0, 0, Header, 1, 35, 240
1, 0, Start_track
1, 0, Time_signature, 4, 2, 24, 8
1, 0, Tempo, 357143
1, 0, Marker_t, "Symphony No. 5 in C minor, Op. 67 (4th mov.), Beethoven (arr. Jerry A. Enfield)"
1, 227520, Time_signature, 3, 2, 24, 8
1, 227520, Tempo, 208333
1, 266400, Time_signature, 4, 2, 24, 8
1, 266400, Tempo, 357143
1, 400080, Tempo, 352941
1, 400320, Tempo, 348837
1, 400560, Tempo, 344828
1, 400800, Tempo, 340909
1, 401040, Tempo, 337079
1, 401280, Tempo, 333333
1, 401520, Tempo, 329670
1, 401760, Tempo, 326087
1, 402000, Tempo, 322581
1, 402240, Tempo, 319149
1, 402480, Tempo, 315789
1, 402720, Tempo, 312500
1, 402960, Tempo, 309278
1, 403200, Tempo, 306122
1, 403440, Tempo, 303030
1, 403680, Tempo, 298507
1, 403920, Tempo, 295567
1, 404160, Tempo, 292683
1, 404400, Tempo, 289855
1, 404640, Tempo, 287081
1, 404880, Tempo, 284360
1, 405120, Tempo, 281690
1, 405360, Tempo, 279070
1, 405600, Tempo, 276498
1, 405840, Tempo, 273973
1, 406080, Tempo, 271493
1, 406320, Tempo, 269058
1, 406560, Tempo, 266667
1, 406800, Tempo, 264317
1, 407040, Tempo, 262009
1, 407280, Tempo, 259740
1, 407520, Tempo, 256410
1, 407760, Tempo, 254237
1, 408000, Tempo, 252101
1, 408240, Tempo, 250000
1, 408480, Tempo, 247934
1, 408720, Tempo, 245902
1, 408960, Tempo, 243902
1, 409200, Tempo, 241935
1, 409440, Tempo, 240000
1, 409680, Tempo, 238095
1, 409920, Tempo, 236220
1, 410160, Tempo, 234375
1, 410400, Tempo, 232558
1, 410640, Tempo, 230769
1, 410880, Tempo, 229008
1, 411120, Tempo, 227273
1, 411360, Tempo, 224719
1, 411600, Tempo, 223048
1, 411840, Tempo, 221402
1, 412080, Tempo, 219780
1, 412320, Tempo, 218182
1, 412560, Tempo, 216606
1, 412800, Tempo, 215054
1, 413040, Tempo, 213523
1, 413280, Tempo, 212014
1, 413520, Tempo, 210526
1, 413760, Tempo, 209059
1, 414000, Tempo, 207612
1, 414240, Tempo, 206186
1, 414480, Tempo, 204778
1, 414720, Tempo, 203390
1, 414960, Tempo, 202020
1, 415200, Tempo, 200000
1, 416160, Tempo, 285714
1, 454560, Tempo, 705882
1, 455520, Tempo, 285714
1, 455520, End_track
2, 0, Start_track
2, 0, Title_t, "Piccolo"
2, 0, Program_c, 0, 72
2, 0, Control_c, 0, 7, 95
2, 0, Note_on_c, 0, 84, 108
2, 0, Control_c, 0, 91, 32
2, 0, Control_c, 0, 93, 20
2, 0, Control_c, 0, 10, 51
2, 205, Note_off_c, 0, 84, 64
2, 478, Note_on_c, 0, 88, 108
2, 683, Note_off_c, 0, 88, 64
2, 962, Note_on_c, 0, 91, 108
2, 1167, Note_off_c, 0, 91, 64
2, 1679, Note_on_c, 0, 89, 111
2, 1770, Note_off_c, 0, 89, 56
2, 1919, Note_on_c, 0, 88, 111
2, 2010, Note_off_c, 0, 88, 56
2, 2159, Note_on_c, 0, 86, 111
2, 2250, Note_off_c, 0, 86, 56
2, 2399, Note_on_c, 0, 84, 111
2, 2490, Note_off_c, 0, 84, 56
2, 2640, Note_on_c, 0, 86, 111
2, 2731, Note_off_c, 0, 86, 56
2, 2881, Note_on_c, 0, 84, 108
2, 3529, Note_off_c, 0, 84, 64
2, 3599, Note_on_c, 0, 84, 108
2, 3752, Note_off_c, 0, 84, 64
2, 3780, Note_on_c, 0, 84, 114
2, 3825, Note_off_c, 0, 84, 56
2, 3842, Note_on_c, 0, 86, 108
2, 4490, Note_off_c, 0, 86, 64
2, 4559, Note_on_c, 0, 86, 108
2, 4712, Note_off_c, 0, 86, 64
2, 4740, Note_on_c, 0, 86, 114
2, 4785, Note_off_c, 0, 86, 56
2, 4800, Note_on_c, 0, 88, 108
2, 5388, Note_off_c, 0, 88, 64
2, 5399, Note_on_c, 0, 84, 111
2, 5467, Note_off_c, 0, 84, 56
2, 5520, Note_on_c, 0, 86, 111
2, 5588, Note_off_c, 0, 86, 56
2, 5641, Note_on_c, 0, 88, 111
2, 5709, Note_off_c, 0, 88, 56
2, 5759, Note_on_c, 0, 89, 111
2, 5827, Note_off_c, 0, 89, 56
2, 5879, Note_on_c, 0, 88, 111
2, 5947, Note_off_c, 0, 88, 56
2, 5999, Note_on_c, 0, 89, 111
2, 6067, Note_off_c, 0, 89, 56
2, 6121, Note_on_c, 0, 91, 111
2, 6189, Note_off_c, 0, 91, 56
2, 6240, Note_on_c, 0, 93, 111
2, 6308, Note_off_c, 0, 93, 56
2, 6360, Note_on_c, 0, 91, 111
2, 6428, Note_off_c, 0, 91, 56
2, 6480, Note_on_c, 0, 93, 111
2, 6548, Note_off_c, 0, 93, 56
2, 6599, Note_on_c, 0, 95, 111
2, 6667, Note_off_c, 0, 95, 56
2, 6719, Note_on_c, 0, 96, 108
2, 7307, Note_off_c, 0, 96, 64
2, 7321, Note_on_c, 0, 84, 111
2, 7389, Note_off_c, 0, 84, 56
2, 7440, Note_on_c, 0, 86, 111
2, 7508, Note_off_c, 0, 86, 56
2, 7559, Note_on_c, 0, 88, 111
2, 7627, Note_off_c, 0, 88, 56
2, 7680, Note_on_c, 0, 89, 111
2, 7748, Note_off_c, 0, 89, 56
2, 7800, Note_on_c, 0, 88, 111
2, 7868, Note_off_c, 0, 88, 56
2, 7919, Note_on_c, 0, 89, 111
2, 7987, Note_off_c, 0, 89, 56
2, 8041, Note_on_c, 0, 91, 111
2, 8109, Note_off_c, 0, 91, 56
2, 8159, Note_on_c, 0, 93, 111
2, 8227, Note_off_c, 0, 93, 56
2, 8281, Note_on_c, 0, 91, 111
2, 8349, Note_off_c, 0, 91, 56
2, 8401, Note_on_c, 0, 93, 111
2, 8469, Note_off_c, 0, 93, 56
2, 8519, Note_on_c, 0, 95, 111
2, 8587, Note_off_c, 0, 95, 56
2, 8640, Note_on_c, 0, 96, 108
2, 9228, Note_off_c, 0, 96, 64
2, 9240, Note_on_c, 0, 84, 111
2, 9308, Note_off_c, 0, 84, 56
2, 9360, Note_on_c, 0, 86, 111
2, 9428, Note_off_c, 0, 86, 56
2, 9480, Note_on_c, 0, 88, 111
2, 9548, Note_off_c, 0, 88, 56
2, 9600, Note_on_c, 0, 91, 114
2, 9617, Note_off_c, 0, 91, 56
2, 9630, Note_on_c, 0, 89, 114
2, 9675, Note_off_c, 0, 89, 56
2, 9721, Note_on_c, 0, 88, 111
2, 9789, Note_off_c, 0, 88, 56
2, 9839, Note_on_c, 0, 89, 111
2, 9907, Note_off_c, 0, 89, 56
2, 9959, Note_on_c, 0, 91, 111
2, 10027, Note_off_c, 0, 91, 56
2, 10080, Note_on_c, 0, 95, 114
2, 10097, Note_off_c, 0, 95, 56
2, 10110, Note_on_c, 0, 93, 114
2, 10155, Note_off_c, 0, 93, 56
2, 10199, Note_on_c, 0, 91, 111
2, 10267, Note_off_c, 0, 91, 56
2, 10320, Note_on_c, 0, 93, 111
2, 10388, Note_off_c, 0, 93, 56
2, 10439, Note_on_c, 0, 95, 111
2, 10507, Note_off_c, 0, 95, 56
2, 10560, Note_on_c, 0, 98, 114
2, 10577, Note_off_c, 0, 98, 56
2, 10590, Note_on_c, 0, 96, 114
2, 10635, Note_off_c, 0, 96, 56
2, 10679, Note_on_c, 0, 95, 111
2, 10747, Note_off_c, 0, 95, 56
2, 10799, Note_on_c, 0, 96, 111
2, 10867, Note_off_c, 0, 96, 56
2, 10920, Note_on_c, 0, 98, 111
2, 10988, Note_off_c, 0, 98, 56
2, 11039, Note_on_c, 0, 100, 108
2, 11244, Note_off_c, 0, 100, 64
2, 11280, Note_on_c, 0, 91, 111
2, 11371, Note_off_c, 0, 91, 56
2, 11460, Note_on_c, 0, 103, 114
2, 11505, Note_off_c, 0, 103, 56
2, 11519, Note_on_c, 0, 103, 111
2, 11627, Note_off_c, 0, 103, 56
2, 11639, Note_on_c, 0, 101, 111
2, 11730, Note_off_c, 0, 101, 56
2, 11759, Note_on_c, 0, 89, 111
2, 11850, Note_off_c, 0, 89, 56
2, 11940, Note_on_c, 0, 98, 114
2, 11985, Note_off_c, 0, 98, 56
2, 11999, Note_on_c, 0, 98, 111
2, 12107, Note_off_c, 0, 98, 56
2, 12121, Note_on_c, 0, 96, 111
2, 12212, Note_off_c, 0, 96, 56
2, 12239, Note_on_c, 0, 88, 111
2, 12330, Note_off_c, 0, 88, 56
2, 12420, Note_on_c, 0, 96, 114
2, 12465, Note_off_c, 0, 96, 56
2, 12479, Note_on_c, 0, 96, 111
2, 12587, Note_off_c, 0, 96, 56
2, 12601, Note_on_c, 0, 95, 111
2, 12692, Note_off_c, 0, 95, 56
2, 12719, Note_on_c, 0, 95, 108
2, 13151, Note_off_c, 0, 95, 64
2, 13200, Note_on_c, 0, 96, 111
2, 13291, Note_off_c, 0, 96, 56
2, 13380, Note_on_c, 0, 100, 114
2, 13425, Note_off_c, 0, 100, 56
2, 13438, Note_on_c, 0, 100, 111
2, 13546, Note_off_c, 0, 100, 56
2, 13561, Note_on_c, 0, 98, 111
2, 13669, Note_off_c, 0, 98, 56
2, 13680, Note_on_c, 0, 89, 111
2, 13771, Note_off_c, 0, 89, 56
2, 13860, Note_on_c, 0, 98, 114
2, 13905, Note_off_c, 0, 98, 56
2, 13920, Note_on_c, 0, 98, 111
2, 14028, Note_off_c, 0, 98, 56
2, 14039, Note_on_c, 0, 96, 111
2, 14130, Note_off_c, 0, 96, 56
2, 14159, Note_on_c, 0, 88, 111
2, 14250, Note_off_c, 0, 88, 56
2, 14340, Note_on_c, 0, 96, 114
2, 14385, Note_off_c, 0, 96, 56
2, 14402, Note_on_c, 0, 96, 111
2, 14510, Note_off_c, 0, 96, 56
2, 14521, Note_on_c, 0, 95, 111
2, 14612, Note_off_c, 0, 95, 56
2, 14637, Note_on_c, 0, 95, 108
2, 15069, Note_off_c, 0, 95, 64
2, 15121, Note_on_c, 0, 96, 111
2, 15189, Note_off_c, 0, 96, 56
2, 15300, Note_on_c, 0, 100, 114
2, 15334, Note_off_c, 0, 100, 56
2, 15360, Note_on_c, 0, 100, 111
2, 15428, Note_off_c, 0, 100, 56
2, 15540, Note_on_c, 0, 98, 114
2, 15574, Note_off_c, 0, 98, 56
2, 15599, Note_on_c, 0, 89, 111
2, 15667, Note_off_c, 0, 89, 56
2, 15780, Note_on_c, 0, 98, 114
2, 15814, Note_off_c, 0, 98, 56
2, 15841, Note_on_c, 0, 98, 111
2, 15909, Note_off_c, 0, 98, 56
2, 16020, Note_on_c, 0, 96, 114
2, 16054, Note_off_c, 0, 96, 56
2, 16080, Note_on_c, 0, 88, 111
2, 16148, Note_off_c, 0, 88, 56
2, 16260, Note_on_c, 0, 96, 114
2, 16294, Note_off_c, 0, 96, 56
2, 16319, Note_on_c, 0, 95, 111
2, 16387, Note_off_c, 0, 95, 56
2, 16500, Note_on_c, 0, 86, 114
2, 16545, Note_off_c, 0, 86, 56
2, 16557, Note_on_c, 0, 91, 108
2, 16989, Note_off_c, 0, 91, 64
2, 17040, Note_on_c, 0, 93, 114
2, 17094, Note_off_c, 0, 93, 56
2, 17099, Note_on_c, 0, 91, 114
2, 17153, Note_off_c, 0, 91, 56
2, 17161, Note_on_c, 0, 89, 114
2, 17215, Note_off_c, 0, 89, 56
2, 17221, Note_on_c, 0, 88, 114
2, 17275, Note_off_c, 0, 88, 56
2, 17280, Note_on_c, 0, 86, 111
2, 17371, Note_off_c, 0, 86, 56
2, 17460, Note_on_c, 0, 86, 114
2, 17505, Note_off_c, 0, 86, 56
2, 17519, Note_on_c, 0, 91, 108
2, 17951, Note_off_c, 0, 91, 64
2, 18000, Note_on_c, 0, 93, 114
2, 18054, Note_off_c, 0, 93, 56
2, 18061, Note_on_c, 0, 91, 114
2, 18115, Note_off_c, 0, 91, 56
2, 18119, Note_on_c, 0, 89, 114
2, 18173, Note_off_c, 0, 89, 56
2, 18180, Note_on_c, 0, 88, 114
2, 18225, Note_off_c, 0, 88, 56
2, 18240, Note_on_c, 0, 86, 111
2, 18331, Note_off_c, 0, 86, 56
2, 18420, Note_on_c, 0, 91, 114
2, 18465, Note_off_c, 0, 91, 56
2, 18480, Note_on_c, 0, 93, 114
2, 18534, Note_off_c, 0, 93, 56
2, 18540, Note_on_c, 0, 91, 114
2, 18594, Note_off_c, 0, 91, 56
2, 18601, Note_on_c, 0, 89, 114
2, 18655, Note_off_c, 0, 89, 56
2, 18660, Note_on_c, 0, 88, 114
2, 18714, Note_off_c, 0, 88, 56
2, 18721, Note_on_c, 0, 86, 111
2, 18812, Note_off_c, 0, 86, 56
2, 18900, Note_on_c, 0, 91, 114
2, 18945, Note_off_c, 0, 91, 56
2, 18960, Note_on_c, 0, 93, 114
2, 19014, Note_off_c, 0, 93, 56
2, 19020, Note_on_c, 0, 91, 114
2, 19074, Note_off_c, 0, 91, 56
2, 19081, Note_on_c, 0, 89, 114
2, 19135, Note_off_c, 0, 89, 56
2, 19141, Note_on_c, 0, 88, 114
2, 19195, Note_off_c, 0, 88, 56
2, 19200, Note_on_c, 0, 86, 111
2, 19291, Note_off_c, 0, 86, 56
2, 19380, Note_on_c, 0, 91, 114
2, 19425, Note_off_c, 0, 91, 56
2, 19440, Note_on_c, 0, 93, 114
2, 19494, Note_off_c, 0, 93, 56
2, 19501, Note_on_c, 0, 91, 114
2, 19555, Note_off_c, 0, 91, 56
2, 19559, Note_on_c, 0, 89, 114
2, 19613, Note_off_c, 0, 89, 56
2, 19621, Note_on_c, 0, 88, 114
2, 19675, Note_off_c, 0, 88, 56
2, 19681, Note_on_c, 0, 86, 111
2, 19789, Note_off_c, 0, 86, 56
2, 19860, Note_on_c, 0, 91, 114
2, 19905, Note_off_c, 0, 91, 56
2, 19919, Note_on_c, 0, 93, 114
2, 19973, Note_off_c, 0, 93, 56
2, 19979, Note_on_c, 0, 91, 114
2, 20033, Note_off_c, 0, 91, 56
2, 20041, Note_on_c, 0, 89, 114
2, 20095, Note_off_c, 0, 89, 56
2, 20099, Note_on_c, 0, 88, 114
2, 20153, Note_off_c, 0, 88, 56
2, 20160, Note_on_c, 0, 86, 111
2, 20251, Note_off_c, 0, 86, 56
2, 23162, Note_on_c, 0, 96, 111
2, 23270, Note_off_c, 0, 96, 56
2, 23281, Note_on_c, 0, 95, 111
2, 23372, Note_off_c, 0, 95, 56
2, 23399, Note_on_c, 0, 93, 111
2, 23490, Note_off_c, 0, 93, 56
2, 23519, Note_on_c, 0, 91, 111
2, 23587, Note_off_c, 0, 91, 56
2, 23640, Note_on_c, 0, 89, 111
2, 23708, Note_off_c, 0, 89, 56
2, 23759, Note_on_c, 0, 88, 111
2, 23827, Note_off_c, 0, 88, 56
2, 23880, Note_on_c, 0, 86, 111
2, 23948, Note_off_c, 0, 86, 56
2, 23999, Note_on_c, 0, 84, 108
2, 24204, Note_off_c, 0, 84, 64
2, 45840, Note_on_c, 0, 81, 93
2, 45908, Note_off_c, 0, 81, 56
2, 45919, Note_on_c, 0, 83, 93
2, 45987, Note_off_c, 0, 83, 56
2, 46000, Note_on_c, 0, 84, 93
2, 46068, Note_off_c, 0, 84, 56
2, 46078, Note_on_c, 0, 86, 90
2, 46283, Note_off_c, 0, 86, 64
2, 46319, Note_on_c, 0, 83, 93
2, 46387, Note_off_c, 0, 83, 56
2, 46401, Note_on_c, 0, 84, 93
2, 46469, Note_off_c, 0, 84, 56
2, 46481, Note_on_c, 0, 86, 93
2, 46549, Note_off_c, 0, 86, 56
2, 46557, Note_on_c, 0, 88, 90
2, 46762, Note_off_c, 0, 88, 64
2, 46800, Note_on_c, 0, 88, 93
2, 46868, Note_off_c, 0, 88, 56
2, 46880, Note_on_c, 0, 90, 93
2, 46948, Note_off_c, 0, 90, 56
2, 46961, Note_on_c, 0, 91, 93
2, 47029, Note_off_c, 0, 91, 56
2, 47038, Note_on_c, 0, 86, 90
2, 47686, Note_off_c, 0, 86, 64
2, 69719, Note_on_c, 0, 86, 96
2, 69773, Note_off_c, 0, 86, 56
2, 69781, Note_on_c, 0, 88, 96
2, 69835, Note_off_c, 0, 88, 56
2, 69840, Note_on_c, 0, 90, 96
2, 69894, Note_off_c, 0, 90, 56
2, 69901, Note_on_c, 0, 91, 96
2, 69955, Note_off_c, 0, 91, 56
2, 69960, Note_on_c, 0, 93, 96
2, 70014, Note_off_c, 0, 93, 56
2, 70020, Note_on_c, 0, 90, 96
2, 70074, Note_off_c, 0, 90, 56
2, 70082, Note_on_c, 0, 91, 90
2, 70287, Note_off_c, 0, 91, 64
2, 71641, Note_on_c, 0, 86, 96
2, 71695, Note_off_c, 0, 86, 56
2, 71701, Note_on_c, 0, 88, 96
2, 71755, Note_off_c, 0, 88, 56
2, 71760, Note_on_c, 0, 90, 96
2, 71814, Note_off_c, 0, 90, 56
2, 71821, Note_on_c, 0, 91, 96
2, 71875, Note_off_c, 0, 91, 56
2, 71879, Note_on_c, 0, 93, 96
2, 71933, Note_off_c, 0, 93, 56
2, 71940, Note_on_c, 0, 95, 96
2, 71994, Note_off_c, 0, 95, 56
2, 72002, Note_on_c, 0, 96, 96
2, 72207, Note_off_c, 0, 96, 64
2, 75121, Note_on_c, 0, 84, 104
2, 75326, Note_off_c, 0, 84, 64
2, 75360, Note_on_c, 0, 84, 105
2, 75565, Note_off_c, 0, 84, 64
2, 75601, Note_on_c, 0, 84, 106
2, 75806, Note_off_c, 0, 84, 64
2, 75838, Note_on_c, 0, 89, 108
2, 77662, Note_off_c, 0, 89, 64
2, 77759, Note_on_c, 0, 83, 108
2, 77964, Note_off_c, 0, 83, 64
2, 81360, Note_on_c, 0, 95, 111
2, 81451, Note_off_c, 0, 95, 56
2, 81480, Note_on_c, 0, 91, 111
2, 81571, Note_off_c, 0, 91, 56
2, 81599, Note_on_c, 0, 96, 108
2, 81804, Note_off_c, 0, 96, 64
2, 82082, Note_on_c, 0, 88, 108
2, 82287, Note_off_c, 0, 88, 64
2, 82558, Note_on_c, 0, 91, 108
2, 82763, Note_off_c, 0, 91, 64
2, 83279, Note_on_c, 0, 89, 111
2, 83370, Note_off_c, 0, 89, 56
2, 83520, Note_on_c, 0, 88, 111
2, 83611, Note_off_c, 0, 88, 56
2, 83759, Note_on_c, 0, 86, 111
2, 83850, Note_off_c, 0, 86, 56
2, 83999, Note_on_c, 0, 84, 111
2, 84090, Note_off_c, 0, 84, 56
2, 84241, Note_on_c, 0, 86, 111
2, 84332, Note_off_c, 0, 86, 56
2, 84482, Note_on_c, 0, 84, 108
2, 85130, Note_off_c, 0, 84, 64
2, 85201, Note_on_c, 0, 84, 108
2, 85354, Note_off_c, 0, 84, 64
2, 85380, Note_on_c, 0, 84, 114
2, 85425, Note_off_c, 0, 84, 56
2, 85441, Note_on_c, 0, 86, 108
2, 86089, Note_off_c, 0, 86, 64
2, 86157, Note_on_c, 0, 86, 108
2, 86310, Note_off_c, 0, 86, 64
2, 86340, Note_on_c, 0, 86, 114
2, 86385, Note_off_c, 0, 86, 56
2, 86402, Note_on_c, 0, 88, 108
2, 86990, Note_off_c, 0, 88, 64
2, 86999, Note_on_c, 0, 84, 111
2, 87067, Note_off_c, 0, 84, 56
2, 87121, Note_on_c, 0, 86, 111
2, 87189, Note_off_c, 0, 86, 56
2, 87241, Note_on_c, 0, 88, 111
2, 87309, Note_off_c, 0, 88, 56
2, 87359, Note_on_c, 0, 89, 111
2, 87427, Note_off_c, 0, 89, 56
2, 87481, Note_on_c, 0, 88, 111
2, 87549, Note_off_c, 0, 88, 56
2, 87599, Note_on_c, 0, 89, 111
2, 87667, Note_off_c, 0, 89, 56
2, 87719, Note_on_c, 0, 91, 111
2, 87787, Note_off_c, 0, 91, 56
2, 87840, Note_on_c, 0, 93, 111
2, 87908, Note_off_c, 0, 93, 56
2, 87959, Note_on_c, 0, 91, 111
2, 88027, Note_off_c, 0, 91, 56
2, 88081, Note_on_c, 0, 93, 111
2, 88149, Note_off_c, 0, 93, 56
2, 88200, Note_on_c, 0, 95, 111
2, 88268, Note_off_c, 0, 95, 56
2, 88323, Note_on_c, 0, 96, 108
2, 88911, Note_off_c, 0, 96, 64
2, 88920, Note_on_c, 0, 84, 111
2, 88988, Note_off_c, 0, 84, 56
2, 89039, Note_on_c, 0, 86, 111
2, 89107, Note_off_c, 0, 86, 56
2, 89159, Note_on_c, 0, 88, 111
2, 89227, Note_off_c, 0, 88, 56
2, 89280, Note_on_c, 0, 89, 111
2, 89348, Note_off_c, 0, 89, 56
2, 89399, Note_on_c, 0, 88, 111
2, 89467, Note_off_c, 0, 88, 56
2, 89520, Note_on_c, 0, 89, 111
2, 89588, Note_off_c, 0, 89, 56
2, 89641, Note_on_c, 0, 91, 111
2, 89709, Note_off_c, 0, 91, 56
2, 89761, Note_on_c, 0, 93, 111
2, 89829, Note_off_c, 0, 93, 56
2, 89879, Note_on_c, 0, 91, 111
2, 89947, Note_off_c, 0, 91, 56
2, 89999, Note_on_c, 0, 93, 111
2, 90067, Note_off_c, 0, 93, 56
2, 90121, Note_on_c, 0, 95, 111
2, 90189, Note_off_c, 0, 95, 56
2, 90238, Note_on_c, 0, 96, 108
2, 90826, Note_off_c, 0, 96, 64
2, 90840, Note_on_c, 0, 84, 111
2, 90908, Note_off_c, 0, 84, 56
2, 90960, Note_on_c, 0, 86, 111
2, 91028, Note_off_c, 0, 86, 56
2, 91081, Note_on_c, 0, 88, 111
2, 91149, Note_off_c, 0, 88, 56
2, 91200, Note_on_c, 0, 91, 114
2, 91217, Note_off_c, 0, 91, 56
2, 91230, Note_on_c, 0, 89, 114
2, 91275, Note_off_c, 0, 89, 56
2, 91320, Note_on_c, 0, 88, 111
2, 91388, Note_off_c, 0, 88, 56
2, 91439, Note_on_c, 0, 89, 111
2, 91507, Note_off_c, 0, 89, 56
2, 91559, Note_on_c, 0, 91, 111
2, 91627, Note_off_c, 0, 91, 56
2, 91680, Note_on_c, 0, 95, 114
2, 91697, Note_off_c, 0, 95, 56
2, 91710, Note_on_c, 0, 93, 114
2, 91755, Note_off_c, 0, 93, 56
2, 91799, Note_on_c, 0, 91, 111
2, 91867, Note_off_c, 0, 91, 56
2, 91920, Note_on_c, 0, 93, 111
2, 91988, Note_off_c, 0, 93, 56
2, 92039, Note_on_c, 0, 95, 111
2, 92107, Note_off_c, 0, 95, 56
2, 92160, Note_on_c, 0, 98, 114
2, 92177, Note_off_c, 0, 98, 56
2, 92190, Note_on_c, 0, 96, 114
2, 92235, Note_off_c, 0, 96, 56
2, 92281, Note_on_c, 0, 95, 111
2, 92349, Note_off_c, 0, 95, 56
2, 92401, Note_on_c, 0, 96, 111
2, 92469, Note_off_c, 0, 96, 56
2, 92519, Note_on_c, 0, 98, 111
2, 92587, Note_off_c, 0, 98, 56
2, 92637, Note_on_c, 0, 100, 108
2, 92842, Note_off_c, 0, 100, 64
2, 92879, Note_on_c, 0, 91, 111
2, 92970, Note_off_c, 0, 91, 56
2, 93060, Note_on_c, 0, 103, 114
2, 93105, Note_off_c, 0, 103, 56
2, 93120, Note_on_c, 0, 103, 111
2, 93228, Note_off_c, 0, 103, 56
2, 93239, Note_on_c, 0, 101, 111
2, 93330, Note_off_c, 0, 101, 56
2, 93359, Note_on_c, 0, 89, 111
2, 93450, Note_off_c, 0, 89, 56
2, 93540, Note_on_c, 0, 98, 114
2, 93585, Note_off_c, 0, 98, 56
2, 93601, Note_on_c, 0, 98, 111
2, 93709, Note_off_c, 0, 98, 56
2, 93720, Note_on_c, 0, 96, 111
2, 93811, Note_off_c, 0, 96, 56
2, 93840, Note_on_c, 0, 88, 111
2, 93931, Note_off_c, 0, 88, 56
2, 94020, Note_on_c, 0, 96, 114
2, 94065, Note_off_c, 0, 96, 56
2, 94082, Note_on_c, 0, 96, 111
2, 94190, Note_off_c, 0, 96, 56
2, 94199, Note_on_c, 0, 95, 111
2, 94290, Note_off_c, 0, 95, 56
2, 94323, Note_on_c, 0, 95, 108
2, 94755, Note_off_c, 0, 95, 64
2, 94800, Note_on_c, 0, 96, 111
2, 94891, Note_off_c, 0, 96, 56
2, 94980, Note_on_c, 0, 100, 114
2, 95025, Note_off_c, 0, 100, 56
2, 95042, Note_on_c, 0, 100, 111
2, 95150, Note_off_c, 0, 100, 56
2, 95162, Note_on_c, 0, 98, 111
2, 95270, Note_off_c, 0, 98, 56
2, 95281, Note_on_c, 0, 89, 111
2, 95372, Note_off_c, 0, 89, 56
2, 95460, Note_on_c, 0, 98, 114
2, 95505, Note_off_c, 0, 98, 56
2, 95522, Note_on_c, 0, 98, 111
2, 95630, Note_off_c, 0, 98, 56
2, 95640, Note_on_c, 0, 96, 111
2, 95731, Note_off_c, 0, 96, 56
2, 95760, Note_on_c, 0, 88, 111
2, 95851, Note_off_c, 0, 88, 56
2, 95940, Note_on_c, 0, 96, 114
2, 95985, Note_off_c, 0, 96, 56
2, 95999, Note_on_c, 0, 96, 111
2, 96107, Note_off_c, 0, 96, 56
2, 96120, Note_on_c, 0, 95, 111
2, 96211, Note_off_c, 0, 95, 56
2, 96240, Note_on_c, 0, 95, 108
2, 96672, Note_off_c, 0, 95, 64
2, 96720, Note_on_c, 0, 96, 111
2, 96788, Note_off_c, 0, 96, 56
2, 96900, Note_on_c, 0, 100, 114
2, 96934, Note_off_c, 0, 100, 56
2, 96961, Note_on_c, 0, 100, 111
2, 97029, Note_off_c, 0, 100, 56
2, 97140, Note_on_c, 0, 98, 114
2, 97174, Note_off_c, 0, 98, 56
2, 97199, Note_on_c, 0, 89, 111
2, 97267, Note_off_c, 0, 89, 56
2, 97380, Note_on_c, 0, 98, 114
2, 97414, Note_off_c, 0, 98, 56
2, 97439, Note_on_c, 0, 98, 111
2, 97507, Note_off_c, 0, 98, 56
2, 97620, Note_on_c, 0, 96, 114
2, 97654, Note_off_c, 0, 96, 56
2, 97680, Note_on_c, 0, 88, 111
2, 97748, Note_off_c, 0, 88, 56
2, 97860, Note_on_c, 0, 96, 114
2, 97894, Note_off_c, 0, 96, 56
2, 97921, Note_on_c, 0, 95, 111
2, 97989, Note_off_c, 0, 95, 56
2, 98100, Note_on_c, 0, 86, 114
2, 98145, Note_off_c, 0, 86, 56
2, 98160, Note_on_c, 0, 91, 108
2, 98592, Note_off_c, 0, 91, 64
2, 98641, Note_on_c, 0, 93, 114
2, 98695, Note_off_c, 0, 93, 56
2, 98701, Note_on_c, 0, 91, 114
2, 98755, Note_off_c, 0, 91, 56
2, 98761, Note_on_c, 0, 89, 114
2, 98815, Note_off_c, 0, 89, 56
2, 98819, Note_on_c, 0, 88, 114
2, 98873, Note_off_c, 0, 88, 56
2, 98879, Note_on_c, 0, 86, 111
2, 98970, Note_off_c, 0, 86, 56
2, 99060, Note_on_c, 0, 86, 114
2, 99105, Note_off_c, 0, 86, 56
2, 99123, Note_on_c, 0, 91, 108
2, 99555, Note_off_c, 0, 91, 64
2, 99601, Note_on_c, 0, 93, 114
2, 99655, Note_off_c, 0, 93, 56
2, 99661, Note_on_c, 0, 91, 114
2, 99715, Note_off_c, 0, 91, 56
2, 99720, Note_on_c, 0, 89, 114
2, 99774, Note_off_c, 0, 89, 56
2, 99780, Note_on_c, 0, 88, 114
2, 99825, Note_off_c, 0, 88, 56
2, 99841, Note_on_c, 0, 86, 111
2, 99932, Note_off_c, 0, 86, 56
2, 100020, Note_on_c, 0, 91, 114
2, 100065, Note_off_c, 0, 91, 56
2, 100079, Note_on_c, 0, 93, 114
2, 100133, Note_off_c, 0, 93, 56
2, 100140, Note_on_c, 0, 91, 114
2, 100194, Note_off_c, 0, 91, 56
2, 100201, Note_on_c, 0, 89, 114
2, 100255, Note_off_c, 0, 89, 56
2, 100260, Note_on_c, 0, 88, 114
2, 100314, Note_off_c, 0, 88, 56
2, 100320, Note_on_c, 0, 86, 111
2, 100411, Note_off_c, 0, 86, 56
2, 100500, Note_on_c, 0, 91, 114
2, 100545, Note_off_c, 0, 91, 56
2, 100559, Note_on_c, 0, 93, 114
2, 100613, Note_off_c, 0, 93, 56
2, 100619, Note_on_c, 0, 91, 114
2, 100673, Note_off_c, 0, 91, 56
2, 100679, Note_on_c, 0, 89, 114
2, 100733, Note_off_c, 0, 89, 56
2, 100741, Note_on_c, 0, 88, 114
2, 100795, Note_off_c, 0, 88, 56
2, 100800, Note_on_c, 0, 86, 111
2, 100891, Note_off_c, 0, 86, 56
2, 100980, Note_on_c, 0, 91, 114
2, 101025, Note_off_c, 0, 91, 56
2, 101039, Note_on_c, 0, 93, 114
2, 101093, Note_off_c, 0, 93, 56
2, 101099, Note_on_c, 0, 91, 114
2, 101153, Note_off_c, 0, 91, 56
2, 101159, Note_on_c, 0, 89, 114
2, 101213, Note_off_c, 0, 89, 56
2, 101219, Note_on_c, 0, 88, 114
2, 101273, Note_off_c, 0, 88, 56
2, 101282, Note_on_c, 0, 86, 111
2, 101390, Note_off_c, 0, 86, 56
2, 101460, Note_on_c, 0, 91, 114
2, 101505, Note_off_c, 0, 91, 56
2, 101519, Note_on_c, 0, 93, 114
2, 101573, Note_off_c, 0, 93, 56
2, 101579, Note_on_c, 0, 91, 114
2, 101633, Note_off_c, 0, 91, 56
2, 101640, Note_on_c, 0, 89, 114
2, 101694, Note_off_c, 0, 89, 56
2, 101699, Note_on_c, 0, 88, 114
2, 101753, Note_off_c, 0, 88, 56
2, 101759, Note_on_c, 0, 86, 111
2, 101850, Note_off_c, 0, 86, 56
2, 104761, Note_on_c, 0, 96, 111
2, 104869, Note_off_c, 0, 96, 56
2, 104879, Note_on_c, 0, 95, 111
2, 104970, Note_off_c, 0, 95, 56
2, 104999, Note_on_c, 0, 93, 111
2, 105090, Note_off_c, 0, 93, 56
2, 105120, Note_on_c, 0, 91, 111
2, 105188, Note_off_c, 0, 91, 56
2, 105239, Note_on_c, 0, 89, 111
2, 105307, Note_off_c, 0, 89, 56
2, 105359, Note_on_c, 0, 88, 111
2, 105427, Note_off_c, 0, 88, 56
2, 105479, Note_on_c, 0, 86, 111
2, 105547, Note_off_c, 0, 86, 56
2, 105599, Note_on_c, 0, 84, 108
2, 105804, Note_off_c, 0, 84, 64
2, 127439, Note_on_c, 0, 81, 93
2, 127507, Note_off_c, 0, 81, 56
2, 127519, Note_on_c, 0, 83, 93
2, 127587, Note_off_c, 0, 83, 56
2, 127601, Note_on_c, 0, 84, 93
2, 127669, Note_off_c, 0, 84, 56
2, 127678, Note_on_c, 0, 86, 90
2, 127883, Note_off_c, 0, 86, 64
2, 127920, Note_on_c, 0, 83, 93
2, 127988, Note_off_c, 0, 83, 56
2, 128000, Note_on_c, 0, 84, 93
2, 128068, Note_off_c, 0, 84, 56
2, 128081, Note_on_c, 0, 86, 93
2, 128149, Note_off_c, 0, 86, 56
2, 128162, Note_on_c, 0, 88, 90
2, 128367, Note_off_c, 0, 88, 64
2, 128399, Note_on_c, 0, 88, 93
2, 128467, Note_off_c, 0, 88, 56
2, 128481, Note_on_c, 0, 90, 93
2, 128549, Note_off_c, 0, 90, 56
2, 128560, Note_on_c, 0, 91, 93
2, 128628, Note_off_c, 0, 91, 56
2, 128642, Note_on_c, 0, 86, 90
2, 129290, Note_off_c, 0, 86, 64
2, 151321, Note_on_c, 0, 86, 96
2, 151375, Note_off_c, 0, 86, 56
2, 151380, Note_on_c, 0, 88, 96
2, 151434, Note_off_c, 0, 88, 56
2, 151440, Note_on_c, 0, 90, 96
2, 151494, Note_off_c, 0, 90, 56
2, 151501, Note_on_c, 0, 91, 96
2, 151555, Note_off_c, 0, 91, 56
2, 151560, Note_on_c, 0, 93, 96
2, 151614, Note_off_c, 0, 93, 56
2, 151620, Note_on_c, 0, 90, 96
2, 151674, Note_off_c, 0, 90, 56
2, 151678, Note_on_c, 0, 91, 90
2, 151883, Note_off_c, 0, 91, 64
2, 153241, Note_on_c, 0, 86, 96
2, 153295, Note_off_c, 0, 86, 56
2, 153301, Note_on_c, 0, 88, 96
2, 153355, Note_off_c, 0, 88, 56
2, 153360, Note_on_c, 0, 90, 96
2, 153414, Note_off_c, 0, 90, 56
2, 153420, Note_on_c, 0, 91, 96
2, 153474, Note_off_c, 0, 91, 56
2, 153479, Note_on_c, 0, 93, 96
2, 153533, Note_off_c, 0, 93, 56
2, 153541, Note_on_c, 0, 95, 96
2, 153595, Note_off_c, 0, 95, 56
2, 153599, Note_on_c, 0, 96, 96
2, 153804, Note_off_c, 0, 96, 64
2, 156723, Note_on_c, 0, 84, 104
2, 156928, Note_off_c, 0, 84, 64
2, 156961, Note_on_c, 0, 84, 105
2, 157166, Note_off_c, 0, 84, 64
2, 157200, Note_on_c, 0, 84, 106
2, 157405, Note_off_c, 0, 84, 64
2, 157440, Note_on_c, 0, 89, 108
2, 159264, Note_off_c, 0, 89, 64
2, 159360, Note_on_c, 0, 83, 108
2, 159565, Note_off_c, 0, 83, 64
2, 162239, Note_on_c, 0, 83, 111
2, 162330, Note_off_c, 0, 83, 56
2, 162359, Note_on_c, 0, 79, 111
2, 162450, Note_off_c, 0, 79, 56
2, 162480, Note_on_c, 0, 86, 111
2, 162571, Note_off_c, 0, 86, 56
2, 162601, Note_on_c, 0, 83, 111
2, 162692, Note_off_c, 0, 83, 56
2, 162721, Note_on_c, 0, 89, 111
2, 162812, Note_off_c, 0, 89, 56
2, 162839, Note_on_c, 0, 86, 111
2, 162930, Note_off_c, 0, 86, 56
2, 162960, Note_on_c, 0, 89, 111
2, 163051, Note_off_c, 0, 89, 56
2, 163079, Note_on_c, 0, 89, 111
2, 163170, Note_off_c, 0, 89, 56
2, 163197, Note_on_c, 0, 88, 108
2, 166509, Note_off_c, 0, 88, 64
2, 166559, Note_on_c, 0, 86, 111
2, 166650, Note_off_c, 0, 86, 56
2, 166679, Note_on_c, 0, 83, 111
2, 166770, Note_off_c, 0, 83, 56
2, 166800, Note_on_c, 0, 92, 111
2, 166891, Note_off_c, 0, 92, 56
2, 166920, Note_on_c, 0, 88, 111
2, 167011, Note_off_c, 0, 88, 56
2, 167037, Note_on_c, 0, 93, 108
2, 167242, Note_off_c, 0, 93, 64
2, 167279, Note_on_c, 0, 85, 111
2, 167351, Note_off_c, 0, 85, 56
2, 167361, Note_on_c, 0, 86, 111
2, 167433, Note_off_c, 0, 86, 56
2, 167441, Note_on_c, 0, 88, 111
2, 167509, Note_off_c, 0, 88, 56
2, 167520, Note_on_c, 0, 90, 108
2, 167725, Note_off_c, 0, 90, 64
2, 167759, Note_on_c, 0, 90, 111
2, 167831, Note_off_c, 0, 90, 56
2, 167840, Note_on_c, 0, 92, 111
2, 167912, Note_off_c, 0, 92, 56
2, 167921, Note_on_c, 0, 93, 111
2, 167993, Note_off_c, 0, 93, 56
2, 167997, Note_on_c, 0, 88, 108
2, 168645, Note_off_c, 0, 88, 64
2, 209521, Note_on_c, 0, 86, 111
2, 209593, Note_off_c, 0, 86, 56
2, 209601, Note_on_c, 0, 88, 111
2, 209673, Note_off_c, 0, 88, 56
2, 209681, Note_on_c, 0, 90, 111
2, 209753, Note_off_c, 0, 90, 56
2, 209762, Note_on_c, 0, 91, 108
2, 209967, Note_off_c, 0, 91, 64
2, 211441, Note_on_c, 0, 88, 111
2, 211513, Note_off_c, 0, 88, 56
2, 211521, Note_on_c, 0, 88, 111
2, 211593, Note_off_c, 0, 88, 56
2, 211601, Note_on_c, 0, 89, 111
2, 211673, Note_off_c, 0, 89, 56
2, 211677, Note_on_c, 0, 91, 108
2, 211882, Note_off_c, 0, 91, 64
2, 217201, Note_on_c, 0, 90, 111
2, 217269, Note_off_c, 0, 90, 56
2, 217280, Note_on_c, 0, 91, 111
2, 217348, Note_off_c, 0, 91, 56
2, 217361, Note_on_c, 0, 93, 111
2, 217429, Note_off_c, 0, 93, 56
2, 217681, Note_on_c, 0, 90, 111
2, 217749, Note_off_c, 0, 90, 56
2, 217760, Note_on_c, 0, 91, 111
2, 217828, Note_off_c, 0, 91, 56
2, 217840, Note_on_c, 0, 93, 111
2, 217908, Note_off_c, 0, 93, 56
2, 218160, Note_on_c, 0, 90, 111
2, 218228, Note_off_c, 0, 90, 56
2, 218239, Note_on_c, 0, 91, 111
2, 218307, Note_off_c, 0, 91, 56
2, 218319, Note_on_c, 0, 93, 111
2, 218387, Note_off_c, 0, 93, 56
2, 218641, Note_on_c, 0, 90, 111
2, 218709, Note_off_c, 0, 90, 56
2, 218721, Note_on_c, 0, 91, 111
2, 218789, Note_off_c, 0, 91, 56
2, 218801, Note_on_c, 0, 93, 111
2, 218869, Note_off_c, 0, 93, 56
2, 218877, Note_on_c, 0, 95, 108
2, 219741, Note_off_c, 0, 95, 64
2, 219840, Note_on_c, 0, 95, 108
2, 220704, Note_off_c, 0, 95, 64
2, 220798, Note_on_c, 0, 95, 108
2, 221003, Note_off_c, 0, 95, 64
2, 221039, Note_on_c, 0, 95, 111
2, 221130, Note_off_c, 0, 95, 56
2, 221159, Note_on_c, 0, 95, 111
2, 221250, Note_off_c, 0, 95, 56
2, 221282, Note_on_c, 0, 95, 108
2, 221487, Note_off_c, 0, 95, 64
2, 221521, Note_on_c, 0, 95, 111
2, 221612, Note_off_c, 0, 95, 56
2, 221640, Note_on_c, 0, 95, 111
2, 221731, Note_off_c, 0, 95, 56
2, 221763, Note_on_c, 0, 95, 108
2, 221968, Note_off_c, 0, 95, 64
2, 222001, Note_on_c, 0, 95, 111
2, 222092, Note_off_c, 0, 95, 56
2, 222119, Note_on_c, 0, 95, 111
2, 222210, Note_off_c, 0, 95, 56
2, 222238, Note_on_c, 0, 95, 108
2, 222443, Note_off_c, 0, 95, 64
2, 222481, Note_on_c, 0, 95, 111
2, 222572, Note_off_c, 0, 95, 56
2, 222599, Note_on_c, 0, 95, 111
2, 222690, Note_off_c, 0, 95, 56
2, 222720, Note_on_c, 0, 95, 108
2, 222925, Note_off_c, 0, 95, 64
2, 222960, Note_on_c, 0, 95, 111
2, 223051, Note_off_c, 0, 95, 56
2, 223079, Note_on_c, 0, 95, 111
2, 223170, Note_off_c, 0, 95, 56
2, 223203, Note_on_c, 0, 95, 108
2, 223408, Note_off_c, 0, 95, 64
2, 223440, Note_on_c, 0, 95, 111
2, 223531, Note_off_c, 0, 95, 56
2, 223561, Note_on_c, 0, 95, 111
2, 223652, Note_off_c, 0, 95, 56
2, 223683, Note_on_c, 0, 95, 108
2, 223888, Note_off_c, 0, 95, 64
2, 223919, Note_on_c, 0, 95, 111
2, 224010, Note_off_c, 0, 95, 56
2, 224041, Note_on_c, 0, 95, 111
2, 224132, Note_off_c, 0, 95, 56
2, 224159, Note_on_c, 0, 95, 108
2, 224364, Note_off_c, 0, 95, 64
2, 224399, Note_on_c, 0, 95, 111
2, 224490, Note_off_c, 0, 95, 56
2, 224520, Note_on_c, 0, 95, 111
2, 224611, Note_off_c, 0, 95, 56
2, 224640, Note_on_c, 0, 95, 108
2, 227424, Note_off_c, 0, 95, 64
2, 227522, Note_on_c, 0, 91, 108
2, 227727, Note_off_c, 0, 91, 64
2, 266402, Note_on_c, 0, 84, 108
2, 266538, Note_off_c, 0, 84, 64
2, 266880, Note_on_c, 0, 88, 108
2, 267016, Note_off_c, 0, 88, 64
2, 267357, Note_on_c, 0, 91, 108
2, 267562, Note_off_c, 0, 91, 64
2, 268080, Note_on_c, 0, 89, 111
2, 268182, Note_off_c, 0, 89, 56
2, 268318, Note_on_c, 0, 88, 111
2, 268420, Note_off_c, 0, 88, 56
2, 268561, Note_on_c, 0, 86, 111
2, 268663, Note_off_c, 0, 86, 56
2, 268798, Note_on_c, 0, 84, 111
2, 268900, Note_off_c, 0, 84, 56
2, 269038, Note_on_c, 0, 86, 111
2, 269140, Note_off_c, 0, 86, 56
2, 269283, Note_on_c, 0, 84, 108
2, 269931, Note_off_c, 0, 84, 64
2, 270001, Note_on_c, 0, 84, 108
2, 270154, Note_off_c, 0, 84, 64
2, 270180, Note_on_c, 0, 84, 114
2, 270231, Note_off_c, 0, 84, 56
2, 270240, Note_on_c, 0, 86, 108
2, 270888, Note_off_c, 0, 86, 64
2, 270961, Note_on_c, 0, 86, 108
2, 271114, Note_off_c, 0, 86, 64
2, 271141, Note_on_c, 0, 86, 114
2, 271192, Note_off_c, 0, 86, 56
2, 271202, Note_on_c, 0, 88, 108
2, 271790, Note_off_c, 0, 88, 64
2, 271799, Note_on_c, 0, 84, 111
2, 271867, Note_off_c, 0, 84, 56
2, 271921, Note_on_c, 0, 86, 111
2, 271989, Note_off_c, 0, 86, 56
2, 272040, Note_on_c, 0, 88, 111
2, 272108, Note_off_c, 0, 88, 56
2, 272161, Note_on_c, 0, 89, 111
2, 272229, Note_off_c, 0, 89, 56
2, 272281, Note_on_c, 0, 88, 111
2, 272349, Note_off_c, 0, 88, 56
2, 272400, Note_on_c, 0, 89, 111
2, 272468, Note_off_c, 0, 89, 56
2, 272519, Note_on_c, 0, 91, 111
2, 272587, Note_off_c, 0, 91, 56
2, 272641, Note_on_c, 0, 93, 111
2, 272709, Note_off_c, 0, 93, 56
2, 272761, Note_on_c, 0, 91, 111
2, 272829, Note_off_c, 0, 91, 56
2, 272881, Note_on_c, 0, 93, 111
2, 272949, Note_off_c, 0, 93, 56
2, 272999, Note_on_c, 0, 95, 111
2, 273067, Note_off_c, 0, 95, 56
2, 273119, Note_on_c, 0, 96, 108
2, 273707, Note_off_c, 0, 96, 64
2, 273719, Note_on_c, 0, 84, 111
2, 273787, Note_off_c, 0, 84, 56
2, 273840, Note_on_c, 0, 86, 111
2, 273908, Note_off_c, 0, 86, 56
2, 273961, Note_on_c, 0, 88, 111
2, 274029, Note_off_c, 0, 88, 56
2, 274081, Note_on_c, 0, 89, 111
2, 274149, Note_off_c, 0, 89, 56
2, 274199, Note_on_c, 0, 88, 111
2, 274267, Note_off_c, 0, 88, 56
2, 274320, Note_on_c, 0, 89, 111
2, 274388, Note_off_c, 0, 89, 56
2, 274441, Note_on_c, 0, 91, 111
2, 274509, Note_off_c, 0, 91, 56
2, 274560, Note_on_c, 0, 93, 111
2, 274628, Note_off_c, 0, 93, 56
2, 274680, Note_on_c, 0, 91, 111
2, 274748, Note_off_c, 0, 91, 56
2, 274799, Note_on_c, 0, 93, 111
2, 274867, Note_off_c, 0, 93, 56
2, 274921, Note_on_c, 0, 95, 111
2, 274989, Note_off_c, 0, 95, 56
2, 275037, Note_on_c, 0, 96, 108
2, 275625, Note_off_c, 0, 96, 64
2, 275641, Note_on_c, 0, 84, 111
2, 275709, Note_off_c, 0, 84, 56
2, 275761, Note_on_c, 0, 86, 111
2, 275829, Note_off_c, 0, 86, 56
2, 275879, Note_on_c, 0, 88, 111
2, 275947, Note_off_c, 0, 88, 56
2, 276000, Note_on_c, 0, 91, 114
2, 276017, Note_off_c, 0, 91, 56
2, 276031, Note_on_c, 0, 89, 114
2, 276082, Note_off_c, 0, 89, 56
2, 276119, Note_on_c, 0, 88, 111
2, 276187, Note_off_c, 0, 88, 56
2, 276240, Note_on_c, 0, 89, 111
2, 276308, Note_off_c, 0, 89, 56
2, 276359, Note_on_c, 0, 91, 111
2, 276427, Note_off_c, 0, 91, 56
2, 276480, Note_on_c, 0, 95, 114
2, 276497, Note_off_c, 0, 95, 56
2, 276509, Note_on_c, 0, 93, 114
2, 276560, Note_off_c, 0, 93, 56
2, 276601, Note_on_c, 0, 91, 111
2, 276669, Note_off_c, 0, 91, 56
2, 276721, Note_on_c, 0, 93, 111
2, 276789, Note_off_c, 0, 93, 56
2, 276839, Note_on_c, 0, 95, 111
2, 276907, Note_off_c, 0, 95, 56
2, 276960, Note_on_c, 0, 98, 114
2, 276977, Note_off_c, 0, 98, 56
2, 276990, Note_on_c, 0, 96, 114
2, 277041, Note_off_c, 0, 96, 56
2, 277079, Note_on_c, 0, 95, 111
2, 277147, Note_off_c, 0, 95, 56
2, 277201, Note_on_c, 0, 96, 111
2, 277269, Note_off_c, 0, 96, 56
2, 277319, Note_on_c, 0, 98, 111
2, 277387, Note_off_c, 0, 98, 56
2, 277438, Note_on_c, 0, 100, 108
2, 277643, Note_off_c, 0, 100, 64
2, 277679, Note_on_c, 0, 91, 111
2, 277781, Note_off_c, 0, 91, 56
2, 277860, Note_on_c, 0, 100, 114
2, 277911, Note_off_c, 0, 100, 56
2, 277921, Note_on_c, 0, 100, 111
2, 278029, Note_off_c, 0, 100, 56
2, 278040, Note_on_c, 0, 98, 111
2, 278142, Note_off_c, 0, 98, 56
2, 278162, Note_on_c, 0, 89, 111
2, 278264, Note_off_c, 0, 89, 56
2, 278340, Note_on_c, 0, 98, 114
2, 278391, Note_off_c, 0, 98, 56
2, 278402, Note_on_c, 0, 98, 111
2, 278510, Note_off_c, 0, 98, 56
2, 278520, Note_on_c, 0, 96, 111
2, 278622, Note_off_c, 0, 96, 56
2, 278638, Note_on_c, 0, 88, 111
2, 278740, Note_off_c, 0, 88, 56
2, 278820, Note_on_c, 0, 96, 114
2, 278871, Note_off_c, 0, 96, 56
2, 278879, Note_on_c, 0, 96, 111
2, 278987, Note_off_c, 0, 96, 56
2, 279000, Note_on_c, 0, 95, 111
2, 279102, Note_off_c, 0, 95, 56
2, 279117, Note_on_c, 0, 95, 108
2, 279549, Note_off_c, 0, 95, 64
2, 279600, Note_on_c, 0, 96, 111
2, 279702, Note_off_c, 0, 96, 56
2, 279780, Note_on_c, 0, 100, 114
2, 279831, Note_off_c, 0, 100, 56
2, 279839, Note_on_c, 0, 100, 111
2, 279947, Note_off_c, 0, 100, 56
2, 279960, Note_on_c, 0, 98, 111
2, 280068, Note_off_c, 0, 98, 56
2, 280078, Note_on_c, 0, 89, 111
2, 280180, Note_off_c, 0, 89, 56
2, 280261, Note_on_c, 0, 98, 114
2, 280312, Note_off_c, 0, 98, 56
2, 280322, Note_on_c, 0, 98, 111
2, 280430, Note_off_c, 0, 98, 56
2, 280438, Note_on_c, 0, 96, 111
2, 280540, Note_off_c, 0, 96, 56
2, 280558, Note_on_c, 0, 88, 111
2, 280660, Note_off_c, 0, 88, 56
2, 280740, Note_on_c, 0, 96, 114
2, 280791, Note_off_c, 0, 96, 56
2, 280798, Note_on_c, 0, 96, 111
2, 280906, Note_off_c, 0, 96, 56
2, 280919, Note_on_c, 0, 95, 111
2, 281021, Note_off_c, 0, 95, 56
2, 281043, Note_on_c, 0, 95, 108
2, 281475, Note_off_c, 0, 95, 64
2, 281521, Note_on_c, 0, 96, 111
2, 281589, Note_off_c, 0, 96, 56
2, 281700, Note_on_c, 0, 100, 114
2, 281734, Note_off_c, 0, 100, 56
2, 281760, Note_on_c, 0, 100, 111
2, 281828, Note_off_c, 0, 100, 56
2, 281940, Note_on_c, 0, 98, 114
2, 281974, Note_off_c, 0, 98, 56
2, 282000, Note_on_c, 0, 89, 111
2, 282068, Note_off_c, 0, 89, 56
2, 282180, Note_on_c, 0, 98, 114
2, 282214, Note_off_c, 0, 98, 56
2, 282239, Note_on_c, 0, 98, 111
2, 282307, Note_off_c, 0, 98, 56
2, 282420, Note_on_c, 0, 96, 114
2, 282454, Note_off_c, 0, 96, 56
2, 282479, Note_on_c, 0, 88, 111
2, 282547, Note_off_c, 0, 88, 56
2, 282660, Note_on_c, 0, 96, 114
2, 282694, Note_off_c, 0, 96, 56
2, 282721, Note_on_c, 0, 95, 111
2, 282789, Note_off_c, 0, 95, 56
2, 282899, Note_on_c, 0, 86, 114
2, 282950, Note_off_c, 0, 86, 56
2, 282960, Note_on_c, 0, 91, 108
2, 283392, Note_off_c, 0, 91, 64
2, 283440, Note_on_c, 0, 93, 114
2, 283494, Note_off_c, 0, 93, 56
2, 283499, Note_on_c, 0, 91, 114
2, 283553, Note_off_c, 0, 91, 56
2, 283559, Note_on_c, 0, 89, 114
2, 283613, Note_off_c, 0, 89, 56
2, 283619, Note_on_c, 0, 88, 114
2, 283673, Note_off_c, 0, 88, 56
2, 283678, Note_on_c, 0, 86, 111
2, 283780, Note_off_c, 0, 86, 56
2, 283860, Note_on_c, 0, 86, 114
2, 283911, Note_off_c, 0, 86, 56
2, 283919, Note_on_c, 0, 91, 108
2, 284351, Note_off_c, 0, 91, 64
2, 284399, Note_on_c, 0, 93, 114
2, 284453, Note_off_c, 0, 93, 56
2, 284459, Note_on_c, 0, 91, 114
2, 284513, Note_off_c, 0, 91, 56
2, 284519, Note_on_c, 0, 89, 114
2, 284573, Note_off_c, 0, 89, 56
2, 284579, Note_on_c, 0, 88, 114
2, 284630, Note_off_c, 0, 88, 56
2, 284641, Note_on_c, 0, 86, 111
2, 284743, Note_off_c, 0, 86, 56
2, 284819, Note_on_c, 0, 91, 114
2, 284870, Note_off_c, 0, 91, 56
2, 284879, Note_on_c, 0, 93, 114
2, 284933, Note_off_c, 0, 93, 56
2, 284939, Note_on_c, 0, 91, 114
2, 284993, Note_off_c, 0, 91, 56
2, 284999, Note_on_c, 0, 89, 114
2, 285053, Note_off_c, 0, 89, 56
2, 285060, Note_on_c, 0, 88, 114
2, 285114, Note_off_c, 0, 88, 56
2, 285119, Note_on_c, 0, 86, 111
2, 285221, Note_off_c, 0, 86, 56
2, 285299, Note_on_c, 0, 91, 114
2, 285350, Note_off_c, 0, 91, 56
2, 285359, Note_on_c, 0, 93, 114
2, 285413, Note_off_c, 0, 93, 56
2, 285421, Note_on_c, 0, 91, 114
2, 285475, Note_off_c, 0, 91, 56
2, 285481, Note_on_c, 0, 89, 114
2, 285535, Note_off_c, 0, 89, 56
2, 285541, Note_on_c, 0, 88, 114
2, 285595, Note_off_c, 0, 88, 56
2, 285601, Note_on_c, 0, 86, 111
2, 285703, Note_off_c, 0, 86, 56
2, 285780, Note_on_c, 0, 91, 114
2, 285831, Note_off_c, 0, 91, 56
2, 285840, Note_on_c, 0, 93, 114
2, 285894, Note_off_c, 0, 93, 56
2, 285901, Note_on_c, 0, 91, 114
2, 285955, Note_off_c, 0, 91, 56
2, 285959, Note_on_c, 0, 89, 114
2, 286013, Note_off_c, 0, 89, 56
2, 286020, Note_on_c, 0, 88, 114
2, 286074, Note_off_c, 0, 88, 56
2, 286080, Note_on_c, 0, 86, 111
2, 286188, Note_off_c, 0, 86, 56
2, 286259, Note_on_c, 0, 91, 114
2, 286310, Note_off_c, 0, 91, 56
2, 286321, Note_on_c, 0, 93, 114
2, 286375, Note_off_c, 0, 93, 56
2, 286379, Note_on_c, 0, 91, 114
2, 286433, Note_off_c, 0, 91, 56
2, 286439, Note_on_c, 0, 89, 114
2, 286493, Note_off_c, 0, 89, 56
2, 286501, Note_on_c, 0, 88, 114
2, 286555, Note_off_c, 0, 88, 56
2, 286560, Note_on_c, 0, 86, 111
2, 286662, Note_off_c, 0, 86, 56
2, 289561, Note_on_c, 0, 96, 111
2, 289669, Note_off_c, 0, 96, 56
2, 289680, Note_on_c, 0, 95, 111
2, 289782, Note_off_c, 0, 95, 56
2, 289802, Note_on_c, 0, 93, 111
2, 289904, Note_off_c, 0, 93, 56
2, 289920, Note_on_c, 0, 91, 111
2, 289988, Note_off_c, 0, 91, 56
2, 290040, Note_on_c, 0, 89, 111
2, 290108, Note_off_c, 0, 89, 56
2, 290161, Note_on_c, 0, 88, 111
2, 290229, Note_off_c, 0, 88, 56
2, 290281, Note_on_c, 0, 86, 111
2, 290349, Note_off_c, 0, 86, 56
2, 290398, Note_on_c, 0, 84, 108
2, 290603, Note_off_c, 0, 84, 64
2, 302042, Note_on_c, 0, 90, 111
2, 302144, Note_off_c, 0, 90, 56
2, 302161, Note_on_c, 0, 91, 111
2, 302263, Note_off_c, 0, 91, 56
2, 302281, Note_on_c, 0, 91, 111
2, 302383, Note_off_c, 0, 91, 56
2, 302403, Note_on_c, 0, 91, 108
2, 302991, Note_off_c, 0, 91, 64
2, 303001, Note_on_c, 0, 90, 111
2, 303103, Note_off_c, 0, 90, 56
2, 303119, Note_on_c, 0, 91, 111
2, 303221, Note_off_c, 0, 91, 56
2, 303238, Note_on_c, 0, 91, 111
2, 303340, Note_off_c, 0, 91, 56
2, 303362, Note_on_c, 0, 91, 108
2, 303950, Note_off_c, 0, 91, 64
2, 303962, Note_on_c, 0, 90, 111
2, 304064, Note_off_c, 0, 90, 56
2, 304080, Note_on_c, 0, 91, 111
2, 304182, Note_off_c, 0, 91, 56
2, 304201, Note_on_c, 0, 91, 111
2, 304303, Note_off_c, 0, 91, 56
2, 304320, Note_on_c, 0, 91, 108
2, 304908, Note_off_c, 0, 91, 64
2, 304921, Note_on_c, 0, 90, 111
2, 305023, Note_off_c, 0, 90, 56
2, 305038, Note_on_c, 0, 91, 111
2, 305140, Note_off_c, 0, 91, 56
2, 305161, Note_on_c, 0, 91, 111
2, 305263, Note_off_c, 0, 91, 56
2, 305278, Note_on_c, 0, 91, 108
2, 305866, Note_off_c, 0, 91, 64
2, 305878, Note_on_c, 0, 90, 111
2, 305980, Note_off_c, 0, 90, 56
2, 306000, Note_on_c, 0, 91, 111
2, 306068, Note_off_c, 0, 91, 56
2, 306120, Note_on_c, 0, 91, 111
2, 306188, Note_off_c, 0, 91, 56
2, 306242, Note_on_c, 0, 91, 111
2, 306350, Note_off_c, 0, 91, 56
2, 306360, Note_on_c, 0, 90, 111
2, 306462, Note_off_c, 0, 90, 56
2, 306479, Note_on_c, 0, 91, 111
2, 306547, Note_off_c, 0, 91, 56
2, 306601, Note_on_c, 0, 91, 111
2, 306669, Note_off_c, 0, 91, 56
2, 306719, Note_on_c, 0, 91, 111
2, 306827, Note_off_c, 0, 91, 56
2, 306842, Note_on_c, 0, 90, 111
2, 306944, Note_off_c, 0, 90, 56
2, 306959, Note_on_c, 0, 91, 111
2, 307027, Note_off_c, 0, 91, 56
2, 307080, Note_on_c, 0, 91, 111
2, 307148, Note_off_c, 0, 91, 56
2, 307202, Note_on_c, 0, 91, 111
2, 307310, Note_off_c, 0, 91, 56
2, 307322, Note_on_c, 0, 90, 111
2, 307424, Note_off_c, 0, 90, 56
2, 307441, Note_on_c, 0, 91, 111
2, 307509, Note_off_c, 0, 91, 56
2, 307561, Note_on_c, 0, 91, 111
2, 307629, Note_off_c, 0, 91, 56
2, 307678, Note_on_c, 0, 91, 71
2, 307860, Note_off_c, 0, 91, 64
2, 315121, Note_on_c, 0, 86, 96
2, 315181, Note_off_c, 0, 86, 56
2, 315199, Note_on_c, 0, 88, 96
2, 315259, Note_off_c, 0, 88, 56
2, 315279, Note_on_c, 0, 89, 96
2, 315339, Note_off_c, 0, 89, 56
2, 315358, Note_on_c, 0, 91, 90
2, 315540, Note_off_c, 0, 91, 64
2, 315600, Note_on_c, 0, 88, 96
2, 315660, Note_off_c, 0, 88, 56
2, 315680, Note_on_c, 0, 89, 96
2, 315740, Note_off_c, 0, 89, 56
2, 315761, Note_on_c, 0, 91, 96
2, 315821, Note_off_c, 0, 91, 56
2, 315841, Note_on_c, 0, 93, 90
2, 316023, Note_off_c, 0, 93, 64
2, 316081, Note_on_c, 0, 93, 96
2, 316141, Note_off_c, 0, 93, 56
2, 316160, Note_on_c, 0, 95, 96
2, 316220, Note_off_c, 0, 95, 56
2, 316240, Note_on_c, 0, 96, 96
2, 316300, Note_off_c, 0, 96, 56
2, 316317, Note_on_c, 0, 91, 90
2, 316893, Note_off_c, 0, 91, 64
2, 325559, Note_on_c, 0, 89, 111
2, 325650, Note_off_c, 0, 89, 56
2, 325679, Note_on_c, 0, 89, 111
2, 325770, Note_off_c, 0, 89, 56
2, 325801, Note_on_c, 0, 89, 111
2, 325892, Note_off_c, 0, 89, 56
2, 325918, Note_on_c, 0, 89, 108
2, 326100, Note_off_c, 0, 89, 64
2, 326159, Note_on_c, 0, 90, 108
2, 326341, Note_off_c, 0, 90, 64
2, 326402, Note_on_c, 0, 91, 108
2, 326584, Note_off_c, 0, 91, 64
2, 326637, Note_on_c, 0, 92, 108
2, 326819, Note_off_c, 0, 92, 64
2, 326878, Note_on_c, 0, 93, 108
2, 327060, Note_off_c, 0, 93, 64
2, 327117, Note_on_c, 0, 95, 108
2, 327299, Note_off_c, 0, 95, 64
2, 327360, Note_on_c, 0, 96, 114
2, 327405, Note_off_c, 0, 96, 56
2, 327420, Note_on_c, 0, 95, 114
2, 327465, Note_off_c, 0, 95, 56
2, 327480, Note_on_c, 0, 93, 114
2, 327525, Note_off_c, 0, 93, 56
2, 327540, Note_on_c, 0, 91, 114
2, 327585, Note_off_c, 0, 91, 56
2, 327600, Note_on_c, 0, 89, 114
2, 327645, Note_off_c, 0, 89, 56
2, 327660, Note_on_c, 0, 88, 114
2, 327705, Note_off_c, 0, 88, 56
2, 327720, Note_on_c, 0, 86, 114
2, 327765, Note_off_c, 0, 86, 56
2, 327780, Note_on_c, 0, 84, 114
2, 327825, Note_off_c, 0, 84, 56
2, 327841, Note_on_c, 0, 89, 108
2, 327977, Note_off_c, 0, 89, 64
2, 328798, Note_on_c, 0, 86, 108
2, 328934, Note_off_c, 0, 86, 64
2, 380397, Note_on_c, 0, 91, 74
2, 380613, Note_off_c, 0, 91, 64
2, 380643, Note_on_c, 0, 95, 78
2, 380859, Note_off_c, 0, 95, 64
2, 380878, Note_on_c, 0, 91, 81
2, 381094, Note_off_c, 0, 91, 64
2, 381120, Note_on_c, 0, 98, 83
2, 381336, Note_off_c, 0, 98, 64
2, 381360, Note_on_c, 0, 96, 87
2, 381522, Note_off_c, 0, 96, 64
2, 381540, Note_on_c, 0, 95, 95
2, 381585, Note_off_c, 0, 95, 56
2, 381602, Note_on_c, 0, 96, 90
2, 381818, Note_off_c, 0, 96, 64
2, 381838, Note_on_c, 0, 95, 90
2, 382054, Note_off_c, 0, 95, 64
2, 382077, Note_on_c, 0, 93, 90
2, 382293, Note_off_c, 0, 93, 64
2, 382323, Note_on_c, 0, 91, 90
2, 382539, Note_off_c, 0, 91, 64
2, 382561, Note_on_c, 0, 89, 90
2, 382777, Note_off_c, 0, 89, 64
2, 382801, Note_on_c, 0, 88, 90
2, 383017, Note_off_c, 0, 88, 64
2, 383038, Note_on_c, 0, 86, 90
2, 383254, Note_off_c, 0, 86, 64
2, 383279, Note_on_c, 0, 85, 90
2, 383461, Note_off_c, 0, 85, 64
2, 383520, Note_on_c, 0, 86, 96
2, 383565, Note_off_c, 0, 86, 56
2, 383580, Note_on_c, 0, 84, 96
2, 383625, Note_off_c, 0, 84, 56
2, 383640, Note_on_c, 0, 86, 96
2, 383685, Note_off_c, 0, 86, 56
2, 383700, Note_on_c, 0, 88, 96
2, 383745, Note_off_c, 0, 88, 56
2, 383760, Note_on_c, 0, 89, 96
2, 383805, Note_off_c, 0, 89, 56
2, 383820, Note_on_c, 0, 91, 96
2, 383865, Note_off_c, 0, 91, 56
2, 383880, Note_on_c, 0, 93, 96
2, 383925, Note_off_c, 0, 93, 56
2, 383940, Note_on_c, 0, 95, 96
2, 383985, Note_off_c, 0, 95, 56
2, 384000, Note_on_c, 0, 96, 90
2, 384182, Note_off_c, 0, 96, 64
2, 384540, Note_on_c, 0, 84, 96
2, 384585, Note_off_c, 0, 84, 56
2, 384600, Note_on_c, 0, 86, 96
2, 384645, Note_off_c, 0, 86, 56
2, 384660, Note_on_c, 0, 88, 96
2, 384705, Note_off_c, 0, 88, 56
2, 384720, Note_on_c, 0, 89, 96
2, 384765, Note_off_c, 0, 89, 56
2, 384780, Note_on_c, 0, 91, 96
2, 384825, Note_off_c, 0, 91, 56
2, 384840, Note_on_c, 0, 93, 96
2, 384885, Note_off_c, 0, 93, 56
2, 384900, Note_on_c, 0, 95, 96
2, 384945, Note_off_c, 0, 95, 56
2, 384957, Note_on_c, 0, 96, 90
2, 385139, Note_off_c, 0, 96, 64
2, 385500, Note_on_c, 0, 84, 96
2, 385545, Note_off_c, 0, 84, 56
2, 385560, Note_on_c, 0, 86, 96
2, 385605, Note_off_c, 0, 86, 56
2, 385620, Note_on_c, 0, 88, 96
2, 385665, Note_off_c, 0, 88, 56
2, 385680, Note_on_c, 0, 89, 96
2, 385725, Note_off_c, 0, 89, 56
2, 385740, Note_on_c, 0, 91, 96
2, 385785, Note_off_c, 0, 91, 56
2, 385800, Note_on_c, 0, 93, 96
2, 385845, Note_off_c, 0, 93, 56
2, 385860, Note_on_c, 0, 95, 96
2, 385905, Note_off_c, 0, 95, 56
2, 385919, Note_on_c, 0, 96, 90
2, 386101, Note_off_c, 0, 96, 64
2, 386460, Note_on_c, 0, 84, 96
2, 386505, Note_off_c, 0, 84, 56
2, 386520, Note_on_c, 0, 86, 96
2, 386565, Note_off_c, 0, 86, 56
2, 386580, Note_on_c, 0, 87, 96
2, 386625, Note_off_c, 0, 87, 56
2, 386640, Note_on_c, 0, 89, 96
2, 386685, Note_off_c, 0, 89, 56
2, 386700, Note_on_c, 0, 91, 96
2, 386745, Note_off_c, 0, 91, 56
2, 386760, Note_on_c, 0, 93, 96
2, 386805, Note_off_c, 0, 93, 56
2, 386820, Note_on_c, 0, 95, 96
2, 386865, Note_off_c, 0, 95, 56
2, 386881, Note_on_c, 0, 96, 93
2, 386972, Note_off_c, 0, 96, 56
2, 387001, Note_on_c, 0, 96, 93
2, 387092, Note_off_c, 0, 96, 56
2, 387119, Note_on_c, 0, 96, 93
2, 387210, Note_off_c, 0, 96, 56
2, 387241, Note_on_c, 0, 96, 93
2, 387332, Note_off_c, 0, 96, 56
2, 387357, Note_on_c, 0, 91, 90
2, 387539, Note_off_c, 0, 91, 64
2, 390959, Note_on_c, 0, 76, 73
2, 391175, Note_off_c, 0, 76, 64
2, 391200, Note_on_c, 0, 84, 73
2, 391416, Note_off_c, 0, 84, 64
2, 391439, Note_on_c, 0, 79, 73
2, 391655, Note_off_c, 0, 79, 64
2, 391677, Note_on_c, 0, 88, 73
2, 391893, Note_off_c, 0, 88, 64
2, 391922, Note_on_c, 0, 86, 73
2, 392084, Note_off_c, 0, 86, 64
2, 392101, Note_on_c, 0, 84, 79
2, 392155, Note_off_c, 0, 84, 56
2, 392160, Note_on_c, 0, 91, 79
2, 392205, Note_off_c, 0, 91, 56
2, 392220, Note_on_c, 0, 93, 79
2, 392265, Note_off_c, 0, 93, 56
2, 392280, Note_on_c, 0, 91, 79
2, 392325, Note_off_c, 0, 91, 56
2, 392340, Note_on_c, 0, 93, 79
2, 392385, Note_off_c, 0, 93, 56
2, 392400, Note_on_c, 0, 91, 80
2, 392445, Note_off_c, 0, 91, 56
2, 392460, Note_on_c, 0, 93, 80
2, 392505, Note_off_c, 0, 93, 56
2, 392520, Note_on_c, 0, 91, 80
2, 392565, Note_off_c, 0, 91, 56
2, 392580, Note_on_c, 0, 93, 80
2, 392625, Note_off_c, 0, 93, 56
2, 392640, Note_on_c, 0, 91, 80
2, 392685, Note_off_c, 0, 91, 56
2, 392700, Note_on_c, 0, 93, 80
2, 392745, Note_off_c, 0, 93, 56
2, 392760, Note_on_c, 0, 91, 81
2, 392805, Note_off_c, 0, 91, 56
2, 392820, Note_on_c, 0, 93, 81
2, 392865, Note_off_c, 0, 93, 56
2, 392880, Note_on_c, 0, 91, 81
2, 392925, Note_off_c, 0, 91, 56
2, 392940, Note_on_c, 0, 93, 81
2, 392985, Note_off_c, 0, 93, 56
2, 393000, Note_on_c, 0, 91, 81
2, 393045, Note_off_c, 0, 91, 56
2, 393060, Note_on_c, 0, 93, 81
2, 393105, Note_off_c, 0, 93, 56
2, 393120, Note_on_c, 0, 91, 81
2, 393165, Note_off_c, 0, 91, 56
2, 393180, Note_on_c, 0, 93, 83
2, 393225, Note_off_c, 0, 93, 56
2, 393240, Note_on_c, 0, 91, 83
2, 393285, Note_off_c, 0, 91, 56
2, 393300, Note_on_c, 0, 93, 83
2, 393345, Note_off_c, 0, 93, 56
2, 393360, Note_on_c, 0, 91, 83
2, 393405, Note_off_c, 0, 91, 56
2, 393420, Note_on_c, 0, 93, 83
2, 393465, Note_off_c, 0, 93, 56
2, 393480, Note_on_c, 0, 91, 83
2, 393525, Note_off_c, 0, 91, 56
2, 393540, Note_on_c, 0, 93, 84
2, 393585, Note_off_c, 0, 93, 56
2, 393600, Note_on_c, 0, 91, 84
2, 393645, Note_off_c, 0, 91, 56
2, 393660, Note_on_c, 0, 93, 84
2, 393705, Note_off_c, 0, 93, 56
2, 393720, Note_on_c, 0, 91, 84
2, 393765, Note_off_c, 0, 91, 56
2, 393780, Note_on_c, 0, 93, 84
2, 393825, Note_off_c, 0, 93, 56
2, 393840, Note_on_c, 0, 91, 84
2, 393885, Note_off_c, 0, 91, 56
2, 393900, Note_on_c, 0, 93, 84
2, 393945, Note_off_c, 0, 93, 56
2, 393960, Note_on_c, 0, 91, 85
2, 394005, Note_off_c, 0, 91, 56
2, 394020, Note_on_c, 0, 93, 85
2, 394065, Note_off_c, 0, 93, 56
2, 394080, Note_on_c, 0, 91, 85
2, 394125, Note_off_c, 0, 91, 56
2, 394140, Note_on_c, 0, 93, 85
2, 394185, Note_off_c, 0, 93, 56
2, 394200, Note_on_c, 0, 91, 85
2, 394245, Note_off_c, 0, 91, 56
2, 394260, Note_on_c, 0, 93, 85
2, 394305, Note_off_c, 0, 93, 56
2, 394320, Note_on_c, 0, 91, 86
2, 394365, Note_off_c, 0, 91, 56
2, 394380, Note_on_c, 0, 93, 86
2, 394425, Note_off_c, 0, 93, 56
2, 394440, Note_on_c, 0, 91, 86
2, 394485, Note_off_c, 0, 91, 56
2, 394500, Note_on_c, 0, 93, 86
2, 394545, Note_off_c, 0, 93, 56
2, 394560, Note_on_c, 0, 91, 86
2, 394605, Note_off_c, 0, 91, 56
2, 394620, Note_on_c, 0, 93, 86
2, 394665, Note_off_c, 0, 93, 56
2, 394680, Note_on_c, 0, 91, 86
2, 394725, Note_off_c, 0, 91, 56
2, 394740, Note_on_c, 0, 93, 87
2, 394785, Note_off_c, 0, 93, 56
2, 394800, Note_on_c, 0, 91, 87
2, 394845, Note_off_c, 0, 91, 56
2, 394860, Note_on_c, 0, 93, 87
2, 394905, Note_off_c, 0, 93, 56
2, 394920, Note_on_c, 0, 91, 87
2, 394965, Note_off_c, 0, 91, 56
2, 394980, Note_on_c, 0, 93, 87
2, 395025, Note_off_c, 0, 93, 56
2, 395040, Note_on_c, 0, 91, 87
2, 395085, Note_off_c, 0, 91, 56
2, 395100, Note_on_c, 0, 93, 88
2, 395145, Note_off_c, 0, 93, 56
2, 395160, Note_on_c, 0, 91, 88
2, 395205, Note_off_c, 0, 91, 56
2, 395220, Note_on_c, 0, 93, 88
2, 395265, Note_off_c, 0, 93, 56
2, 395280, Note_on_c, 0, 91, 88
2, 395325, Note_off_c, 0, 91, 56
2, 395340, Note_on_c, 0, 93, 88
2, 395385, Note_off_c, 0, 93, 56
2, 395400, Note_on_c, 0, 91, 88
2, 395445, Note_off_c, 0, 91, 56
2, 395460, Note_on_c, 0, 93, 89
2, 395505, Note_off_c, 0, 93, 56
2, 395520, Note_on_c, 0, 91, 89
2, 395565, Note_off_c, 0, 91, 56
2, 395580, Note_on_c, 0, 93, 89
2, 395625, Note_off_c, 0, 93, 56
2, 395640, Note_on_c, 0, 91, 89
2, 395685, Note_off_c, 0, 91, 56
2, 395700, Note_on_c, 0, 93, 89
2, 395745, Note_off_c, 0, 93, 56
2, 395760, Note_on_c, 0, 91, 89
2, 395805, Note_off_c, 0, 91, 56
2, 395820, Note_on_c, 0, 93, 89
2, 395865, Note_off_c, 0, 93, 56
2, 395880, Note_on_c, 0, 91, 91
2, 395925, Note_off_c, 0, 91, 56
2, 395940, Note_on_c, 0, 93, 91
2, 395985, Note_off_c, 0, 93, 56
2, 396000, Note_on_c, 0, 91, 91
2, 396045, Note_off_c, 0, 91, 56
2, 396060, Note_on_c, 0, 93, 91
2, 396105, Note_off_c, 0, 93, 56
2, 396120, Note_on_c, 0, 91, 91
2, 396165, Note_off_c, 0, 91, 56
2, 396180, Note_on_c, 0, 93, 91
2, 396225, Note_off_c, 0, 93, 56
2, 396240, Note_on_c, 0, 91, 92
2, 396285, Note_off_c, 0, 91, 56
2, 396300, Note_on_c, 0, 93, 92
2, 396345, Note_off_c, 0, 93, 56
2, 396360, Note_on_c, 0, 91, 92
2, 396405, Note_off_c, 0, 91, 56
2, 396420, Note_on_c, 0, 93, 92
2, 396465, Note_off_c, 0, 93, 56
2, 396480, Note_on_c, 0, 91, 92
2, 396525, Note_off_c, 0, 91, 56
2, 396540, Note_on_c, 0, 93, 92
2, 396585, Note_off_c, 0, 93, 56
2, 396600, Note_on_c, 0, 91, 92
2, 396645, Note_off_c, 0, 91, 56
2, 396660, Note_on_c, 0, 93, 93
2, 396705, Note_off_c, 0, 93, 56
2, 396720, Note_on_c, 0, 91, 93
2, 396765, Note_off_c, 0, 91, 56
2, 396780, Note_on_c, 0, 93, 93
2, 396825, Note_off_c, 0, 93, 56
2, 396840, Note_on_c, 0, 91, 93
2, 396885, Note_off_c, 0, 91, 56
2, 396900, Note_on_c, 0, 93, 93
2, 396945, Note_off_c, 0, 93, 56
2, 396960, Note_on_c, 0, 91, 93
2, 397005, Note_off_c, 0, 91, 56
2, 397020, Note_on_c, 0, 93, 94
2, 397065, Note_off_c, 0, 93, 56
2, 397080, Note_on_c, 0, 91, 94
2, 397125, Note_off_c, 0, 91, 56
2, 397140, Note_on_c, 0, 93, 94
2, 397185, Note_off_c, 0, 93, 56
2, 397200, Note_on_c, 0, 91, 94
2, 397245, Note_off_c, 0, 91, 56
2, 397260, Note_on_c, 0, 93, 94
2, 397305, Note_off_c, 0, 93, 56
2, 397320, Note_on_c, 0, 91, 94
2, 397365, Note_off_c, 0, 91, 56
2, 397380, Note_on_c, 0, 93, 95
2, 397425, Note_off_c, 0, 93, 56
2, 397440, Note_on_c, 0, 91, 95
2, 397485, Note_off_c, 0, 91, 56
2, 397500, Note_on_c, 0, 93, 95
2, 397545, Note_off_c, 0, 93, 56
2, 397560, Note_on_c, 0, 91, 95
2, 397605, Note_off_c, 0, 91, 56
2, 397620, Note_on_c, 0, 93, 95
2, 397665, Note_off_c, 0, 93, 56
2, 397680, Note_on_c, 0, 91, 95
2, 397725, Note_off_c, 0, 91, 56
2, 397740, Note_on_c, 0, 93, 95
2, 397785, Note_off_c, 0, 93, 56
2, 397800, Note_on_c, 0, 93, 96
2, 397845, Note_off_c, 0, 93, 56
2, 397860, Note_on_c, 0, 95, 96
2, 397905, Note_off_c, 0, 95, 56
2, 397917, Note_on_c, 0, 96, 90
2, 398133, Note_off_c, 0, 96, 64
2, 398158, Note_on_c, 0, 95, 90
2, 398374, Note_off_c, 0, 95, 64
2, 398401, Note_on_c, 0, 93, 90
2, 398617, Note_off_c, 0, 93, 64
2, 398639, Note_on_c, 0, 91, 90
2, 398855, Note_off_c, 0, 91, 64
2, 398881, Note_on_c, 0, 89, 90
2, 399097, Note_off_c, 0, 89, 64
2, 399121, Note_on_c, 0, 88, 90
2, 399337, Note_off_c, 0, 88, 64
2, 399358, Note_on_c, 0, 86, 90
2, 399574, Note_off_c, 0, 86, 64
2, 399602, Note_on_c, 0, 85, 90
2, 399784, Note_off_c, 0, 85, 64
2, 399840, Note_on_c, 0, 86, 96
2, 399885, Note_off_c, 0, 86, 56
2, 399900, Note_on_c, 0, 84, 96
2, 399945, Note_off_c, 0, 84, 56
2, 399960, Note_on_c, 0, 86, 96
2, 400005, Note_off_c, 0, 86, 56
2, 400020, Note_on_c, 0, 88, 96
2, 400065, Note_off_c, 0, 88, 56
2, 400080, Note_on_c, 0, 89, 96
2, 400125, Note_off_c, 0, 89, 56
2, 400140, Note_on_c, 0, 91, 96
2, 400185, Note_off_c, 0, 91, 56
2, 400200, Note_on_c, 0, 93, 96
2, 400245, Note_off_c, 0, 93, 56
2, 400260, Note_on_c, 0, 95, 96
2, 400305, Note_off_c, 0, 95, 56
2, 400318, Note_on_c, 0, 96, 90
2, 400454, Note_off_c, 0, 96, 64
2, 400860, Note_on_c, 0, 84, 96
2, 400905, Note_off_c, 0, 84, 56
2, 400920, Note_on_c, 0, 86, 96
2, 400965, Note_off_c, 0, 86, 56
2, 400980, Note_on_c, 0, 88, 96
2, 401025, Note_off_c, 0, 88, 56
2, 401040, Note_on_c, 0, 89, 96
2, 401085, Note_off_c, 0, 89, 56
2, 401100, Note_on_c, 0, 91, 96
2, 401145, Note_off_c, 0, 91, 56
2, 401160, Note_on_c, 0, 93, 96
2, 401205, Note_off_c, 0, 93, 56
2, 401220, Note_on_c, 0, 95, 96
2, 401265, Note_off_c, 0, 95, 56
2, 401278, Note_on_c, 0, 96, 90
2, 401414, Note_off_c, 0, 96, 64
2, 401820, Note_on_c, 0, 84, 96
2, 401865, Note_off_c, 0, 84, 56
2, 401880, Note_on_c, 0, 86, 96
2, 401925, Note_off_c, 0, 86, 56
2, 401940, Note_on_c, 0, 88, 96
2, 401985, Note_off_c, 0, 88, 56
2, 402000, Note_on_c, 0, 89, 96
2, 402045, Note_off_c, 0, 89, 56
2, 402060, Note_on_c, 0, 91, 96
2, 402105, Note_off_c, 0, 91, 56
2, 402120, Note_on_c, 0, 93, 96
2, 402165, Note_off_c, 0, 93, 56
2, 402180, Note_on_c, 0, 95, 96
2, 402225, Note_off_c, 0, 95, 56
2, 402241, Note_on_c, 0, 96, 90
2, 402377, Note_off_c, 0, 96, 64
2, 402780, Note_on_c, 0, 84, 96
2, 402825, Note_off_c, 0, 84, 56
2, 402840, Note_on_c, 0, 86, 96
2, 402885, Note_off_c, 0, 86, 56
2, 402900, Note_on_c, 0, 87, 96
2, 402945, Note_off_c, 0, 87, 56
2, 402960, Note_on_c, 0, 89, 96
2, 403005, Note_off_c, 0, 89, 56
2, 403020, Note_on_c, 0, 91, 96
2, 403065, Note_off_c, 0, 91, 56
2, 403080, Note_on_c, 0, 93, 96
2, 403125, Note_off_c, 0, 93, 56
2, 403140, Note_on_c, 0, 95, 96
2, 403185, Note_off_c, 0, 95, 56
2, 403201, Note_on_c, 0, 96, 93
2, 403292, Note_off_c, 0, 96, 56
2, 403321, Note_on_c, 0, 96, 93
2, 403412, Note_off_c, 0, 96, 56
2, 403441, Note_on_c, 0, 96, 93
2, 403532, Note_off_c, 0, 96, 56
2, 403560, Note_on_c, 0, 96, 93
2, 403651, Note_off_c, 0, 96, 56
2, 403679, Note_on_c, 0, 96, 76
2, 403770, Note_off_c, 0, 96, 56
2, 403801, Note_on_c, 0, 91, 76
2, 403892, Note_off_c, 0, 91, 56
2, 403919, Note_on_c, 0, 88, 76
2, 404010, Note_off_c, 0, 88, 56
2, 404039, Note_on_c, 0, 91, 76
2, 404130, Note_off_c, 0, 91, 56
2, 404279, Note_on_c, 0, 91, 77
2, 404370, Note_off_c, 0, 91, 56
2, 404399, Note_on_c, 0, 88, 77
2, 404490, Note_off_c, 0, 88, 56
2, 404521, Note_on_c, 0, 91, 77
2, 404612, Note_off_c, 0, 91, 56
2, 404761, Note_on_c, 0, 91, 77
2, 404852, Note_off_c, 0, 91, 56
2, 404880, Note_on_c, 0, 88, 78
2, 404971, Note_off_c, 0, 88, 56
2, 405000, Note_on_c, 0, 91, 78
2, 405091, Note_off_c, 0, 91, 56
2, 405241, Note_on_c, 0, 89, 78
2, 405332, Note_off_c, 0, 89, 56
2, 405360, Note_on_c, 0, 88, 78
2, 405451, Note_off_c, 0, 88, 56
2, 405480, Note_on_c, 0, 89, 78
2, 405571, Note_off_c, 0, 89, 56
2, 405719, Note_on_c, 0, 89, 80
2, 405810, Note_off_c, 0, 89, 56
2, 405840, Note_on_c, 0, 86, 80
2, 405931, Note_off_c, 0, 86, 56
2, 405960, Note_on_c, 0, 89, 80
2, 406051, Note_off_c, 0, 89, 56
2, 406199, Note_on_c, 0, 88, 80
2, 406290, Note_off_c, 0, 88, 56
2, 406320, Note_on_c, 0, 86, 80
2, 406411, Note_off_c, 0, 86, 56
2, 406441, Note_on_c, 0, 88, 81
2, 406532, Note_off_c, 0, 88, 56
2, 406800, Note_on_c, 0, 86, 78
2, 406982, Note_off_c, 0, 86, 64
2, 407279, Note_on_c, 0, 91, 79
2, 407461, Note_off_c, 0, 91, 64
2, 407757, Note_on_c, 0, 91, 79
2, 407939, Note_off_c, 0, 91, 64
2, 408242, Note_on_c, 0, 91, 80
2, 408424, Note_off_c, 0, 91, 64
2, 408720, Note_on_c, 0, 91, 81
2, 408902, Note_off_c, 0, 91, 64
2, 409201, Note_on_c, 0, 89, 81
2, 409383, Note_off_c, 0, 89, 64
2, 409680, Note_on_c, 0, 89, 82
2, 409862, Note_off_c, 0, 89, 64
2, 410157, Note_on_c, 0, 88, 82
2, 410339, Note_off_c, 0, 88, 64
2, 410637, Note_on_c, 0, 86, 83
2, 410819, Note_off_c, 0, 86, 64
2, 411119, Note_on_c, 0, 91, 85
2, 411301, Note_off_c, 0, 91, 64
2, 411599, Note_on_c, 0, 91, 85
2, 411781, Note_off_c, 0, 91, 64
2, 412077, Note_on_c, 0, 91, 86
2, 412259, Note_off_c, 0, 91, 64
2, 412562, Note_on_c, 0, 91, 87
2, 412744, Note_off_c, 0, 91, 64
2, 413037, Note_on_c, 0, 89, 87
2, 413219, Note_off_c, 0, 89, 64
2, 413519, Note_on_c, 0, 89, 88
2, 413701, Note_off_c, 0, 89, 64
2, 414003, Note_on_c, 0, 88, 88
2, 414185, Note_off_c, 0, 88, 64
2, 414477, Note_on_c, 0, 86, 89
2, 414659, Note_off_c, 0, 86, 64
2, 414960, Note_on_c, 0, 91, 90
2, 415142, Note_off_c, 0, 91, 64
2, 415199, Note_on_c, 0, 84, 111
2, 415319, Note_off_c, 0, 84, 56
2, 426483, Note_on_c, 0, 91, 89
2, 426675, Note_off_c, 0, 91, 67
2, 426723, Note_on_c, 0, 91, 90
2, 427299, Note_off_c, 0, 91, 67
2, 427441, Note_on_c, 0, 89, 90
2, 427633, Note_off_c, 0, 89, 67
2, 427681, Note_on_c, 0, 89, 90
2, 427873, Note_off_c, 0, 89, 67
2, 427923, Note_on_c, 0, 88, 90
2, 428115, Note_off_c, 0, 88, 67
2, 428159, Note_on_c, 0, 86, 90
2, 428351, Note_off_c, 0, 86, 67
2, 428402, Note_on_c, 0, 91, 90
2, 428594, Note_off_c, 0, 91, 67
2, 428641, Note_on_c, 0, 84, 108
2, 428833, Note_off_c, 0, 84, 67
2, 428883, Note_on_c, 0, 88, 108
2, 429075, Note_off_c, 0, 88, 67
2, 429121, Note_on_c, 0, 91, 108
2, 429409, Note_off_c, 0, 91, 67
2, 429478, Note_on_c, 0, 89, 111
2, 429574, Note_off_c, 0, 89, 56
2, 429602, Note_on_c, 0, 88, 111
2, 429698, Note_off_c, 0, 88, 56
2, 429719, Note_on_c, 0, 86, 111
2, 429815, Note_off_c, 0, 86, 56
2, 429839, Note_on_c, 0, 84, 111
2, 429935, Note_off_c, 0, 84, 56
2, 429961, Note_on_c, 0, 86, 111
2, 430057, Note_off_c, 0, 86, 56
2, 430083, Note_on_c, 0, 88, 108
2, 430371, Note_off_c, 0, 88, 68
2, 430438, Note_on_c, 0, 88, 111
2, 430534, Note_off_c, 0, 88, 56
2, 430561, Note_on_c, 0, 88, 111
2, 430657, Note_off_c, 0, 88, 56
2, 430681, Note_on_c, 0, 86, 111
2, 430777, Note_off_c, 0, 86, 56
2, 430799, Note_on_c, 0, 88, 111
2, 430895, Note_off_c, 0, 88, 56
2, 430920, Note_on_c, 0, 89, 111
2, 431016, Note_off_c, 0, 89, 56
2, 431038, Note_on_c, 0, 91, 108
2, 431326, Note_off_c, 0, 91, 68
2, 431401, Note_on_c, 0, 91, 111
2, 431497, Note_off_c, 0, 91, 56
2, 431522, Note_on_c, 0, 91, 111
2, 431618, Note_off_c, 0, 91, 56
2, 431642, Note_on_c, 0, 89, 111
2, 431738, Note_off_c, 0, 89, 56
2, 431759, Note_on_c, 0, 91, 111
2, 431855, Note_off_c, 0, 91, 56
2, 431878, Note_on_c, 0, 95, 111
2, 431974, Note_off_c, 0, 95, 56
2, 432002, Note_on_c, 0, 96, 108
2, 432290, Note_off_c, 0, 96, 69
2, 432362, Note_on_c, 0, 95, 111
2, 432458, Note_off_c, 0, 95, 56
2, 432480, Note_on_c, 0, 96, 111
2, 432576, Note_off_c, 0, 96, 56
2, 432598, Note_on_c, 0, 95, 111
2, 432694, Note_off_c, 0, 95, 56
2, 432720, Note_on_c, 0, 96, 111
2, 432816, Note_off_c, 0, 96, 56
2, 432838, Note_on_c, 0, 98, 111
2, 432934, Note_off_c, 0, 98, 56
2, 432962, Note_on_c, 0, 100, 111
2, 433058, Note_off_c, 0, 100, 56
2, 433079, Note_on_c, 0, 98, 111
2, 433175, Note_off_c, 0, 98, 56
2, 433200, Note_on_c, 0, 100, 111
2, 433296, Note_off_c, 0, 100, 56
2, 433318, Note_on_c, 0, 101, 111
2, 433414, Note_off_c, 0, 101, 56
2, 433439, Note_on_c, 0, 103, 108
2, 434207, Note_off_c, 0, 103, 69
2, 434399, Note_on_c, 0, 103, 108
2, 435167, Note_off_c, 0, 103, 69
2, 435359, Note_on_c, 0, 96, 111
2, 435479, Note_off_c, 0, 96, 56
2, 435840, Note_on_c, 0, 86, 111
2, 435960, Note_off_c, 0, 86, 56
2, 436321, Note_on_c, 0, 88, 111
2, 436441, Note_off_c, 0, 88, 56
2, 436798, Note_on_c, 0, 91, 111
2, 436918, Note_off_c, 0, 91, 56
2, 437282, Note_on_c, 0, 88, 111
2, 437402, Note_off_c, 0, 88, 56
2, 437762, Note_on_c, 0, 86, 111
2, 437882, Note_off_c, 0, 86, 56
2, 438242, Note_on_c, 0, 88, 111
2, 438362, Note_off_c, 0, 88, 56
2, 438718, Note_on_c, 0, 91, 111
2, 438838, Note_off_c, 0, 91, 56
2, 439199, Note_on_c, 0, 88, 111
2, 439319, Note_off_c, 0, 88, 56
2, 439678, Note_on_c, 0, 91, 111
2, 439798, Note_off_c, 0, 91, 56
2, 440160, Note_on_c, 0, 88, 111
2, 440280, Note_off_c, 0, 88, 56
2, 440641, Note_on_c, 0, 91, 111
2, 440761, Note_off_c, 0, 91, 56
2, 441118, Note_on_c, 0, 96, 108
2, 441886, Note_off_c, 0, 96, 71
2, 442082, Note_on_c, 0, 96, 108
2, 442658, Note_off_c, 0, 96, 72
2, 442800, Note_on_c, 0, 91, 111
2, 442896, Note_off_c, 0, 91, 56
2, 442920, Note_on_c, 0, 88, 111
2, 443016, Note_off_c, 0, 88, 56
2, 443042, Note_on_c, 0, 84, 111
2, 443138, Note_off_c, 0, 84, 56
2, 443400, Note_on_c, 0, 84, 111
2, 443496, Note_off_c, 0, 84, 56
2, 443521, Note_on_c, 0, 84, 111
2, 443617, Note_off_c, 0, 84, 56
2, 443641, Note_on_c, 0, 84, 111
2, 443737, Note_off_c, 0, 84, 56
2, 443762, Note_on_c, 0, 84, 111
2, 443858, Note_off_c, 0, 84, 56
2, 443878, Note_on_c, 0, 84, 111
2, 443974, Note_off_c, 0, 84, 56
2, 443998, Note_on_c, 0, 84, 111
2, 444094, Note_off_c, 0, 84, 56
2, 444361, Note_on_c, 0, 88, 111
2, 444457, Note_off_c, 0, 88, 56
2, 444481, Note_on_c, 0, 88, 111
2, 444577, Note_off_c, 0, 88, 56
2, 444598, Note_on_c, 0, 88, 111
2, 444694, Note_off_c, 0, 88, 56
2, 444719, Note_on_c, 0, 88, 111
2, 444815, Note_off_c, 0, 88, 56
2, 444840, Note_on_c, 0, 88, 111
2, 444936, Note_off_c, 0, 88, 56
2, 444959, Note_on_c, 0, 88, 111
2, 445055, Note_off_c, 0, 88, 56
2, 445200, Note_on_c, 0, 84, 111
2, 445296, Note_off_c, 0, 84, 56
2, 445319, Note_on_c, 0, 84, 111
2, 445415, Note_off_c, 0, 84, 56
2, 445440, Note_on_c, 0, 84, 111
2, 445536, Note_off_c, 0, 84, 56
2, 445680, Note_on_c, 0, 88, 111
2, 445776, Note_off_c, 0, 88, 56
2, 445800, Note_on_c, 0, 88, 111
2, 445896, Note_off_c, 0, 88, 56
2, 445921, Note_on_c, 0, 88, 111
2, 446017, Note_off_c, 0, 88, 56
2, 446160, Note_on_c, 0, 91, 111
2, 446256, Note_off_c, 0, 91, 56
2, 446279, Note_on_c, 0, 91, 111
2, 446375, Note_off_c, 0, 91, 56
2, 446399, Note_on_c, 0, 91, 111
2, 446495, Note_off_c, 0, 91, 56
2, 446640, Note_on_c, 0, 96, 111
2, 446736, Note_off_c, 0, 96, 56
2, 446761, Note_on_c, 0, 96, 111
2, 446857, Note_off_c, 0, 96, 56
2, 446883, Note_on_c, 0, 96, 108
2, 447651, Note_off_c, 0, 96, 73
2, 447842, Note_on_c, 0, 100, 108
2, 448610, Note_off_c, 0, 100, 74
2, 448798, Note_on_c, 0, 100, 111
2, 448918, Note_off_c, 0, 100, 56
2, 449762, Note_on_c, 0, 96, 111
2, 449882, Note_off_c, 0, 96, 56
2, 450718, Note_on_c, 0, 84, 111
2, 450838, Note_off_c, 0, 84, 56
2, 451682, Note_on_c, 0, 96, 111
2, 451802, Note_off_c, 0, 96, 56
2, 452159, Note_on_c, 0, 96, 111
2, 452279, Note_off_c, 0, 96, 56
2, 452641, Note_on_c, 0, 96, 111
2, 452761, Note_off_c, 0, 96, 56
2, 453599, Note_on_c, 0, 96, 111
2, 453719, Note_off_c, 0, 96, 56
2, 454557, Note_on_c, 0, 96, 108
2, 455517, Note_off_c, 0, 96, 76
2, 455517, End_track
3, 0, Start_track
3, 0, Title_t, "Flute1"
3, 0, Program_c, 1, 73
3, 0, Control_c, 1, 7, 92
3, 0, Note_on_c, 1, 84, 108
3, 0, Control_c, 1, 91, 27
3, 0, Control_c, 1, 93, 26
3, 0, Control_c, 1, 10, 37
3, 205, Note_off_c, 1, 84, 64
3, 480, Note_on_c, 1, 88, 108
3, 685, Note_off_c, 1, 88, 64
3, 957, Note_on_c, 1, 91, 108
3, 1605, Note_off_c, 1, 91, 64
3, 1680, Note_on_c, 1, 89, 111
3, 1771, Note_off_c, 1, 89, 56
3, 1921, Note_on_c, 1, 88, 111
3, 2012, Note_off_c, 1, 88, 56
3, 2160, Note_on_c, 1, 86, 111
3, 2251, Note_off_c, 1, 86, 56
3, 2400, Note_on_c, 1, 84, 111
3, 2491, Note_off_c, 1, 84, 56
3, 2639, Note_on_c, 1, 86, 111
3, 2730, Note_off_c, 1, 86, 56
3, 2881, Note_on_c, 1, 84, 108
3, 3529, Note_off_c, 1, 84, 64
3, 3597, Note_on_c, 1, 84, 108
3, 3750, Note_off_c, 1, 84, 64
3, 3780, Note_on_c, 1, 84, 114
3, 3825, Note_off_c, 1, 84, 56
3, 3837, Note_on_c, 1, 86, 108
3, 4485, Note_off_c, 1, 86, 64
3, 4562, Note_on_c, 1, 86, 108
3, 4715, Note_off_c, 1, 86, 64
3, 4740, Note_on_c, 1, 86, 114
3, 4785, Note_off_c, 1, 86, 56
3, 4800, Note_on_c, 1, 88, 108
3, 5388, Note_off_c, 1, 88, 64
3, 5401, Note_on_c, 1, 72, 111
3, 5469, Note_off_c, 1, 72, 56
3, 5521, Note_on_c, 1, 74, 111
3, 5589, Note_off_c, 1, 74, 56
3, 5640, Note_on_c, 1, 76, 111
3, 5708, Note_off_c, 1, 76, 56
3, 5761, Note_on_c, 1, 77, 111
3, 5829, Note_off_c, 1, 77, 56
3, 5879, Note_on_c, 1, 76, 111
3, 5947, Note_off_c, 1, 76, 56
3, 5999, Note_on_c, 1, 77, 111
3, 6067, Note_off_c, 1, 77, 56
3, 6119, Note_on_c, 1, 79, 111
3, 6187, Note_off_c, 1, 79, 56
3, 6239, Note_on_c, 1, 81, 111
3, 6307, Note_off_c, 1, 81, 56
3, 6360, Note_on_c, 1, 79, 111
3, 6428, Note_off_c, 1, 79, 56
3, 6480, Note_on_c, 1, 81, 111
3, 6548, Note_off_c, 1, 81, 56
3, 6600, Note_on_c, 1, 83, 111
3, 6668, Note_off_c, 1, 83, 56
3, 6723, Note_on_c, 1, 84, 108
3, 7311, Note_off_c, 1, 84, 64
3, 7320, Note_on_c, 1, 72, 111
3, 7388, Note_off_c, 1, 72, 56
3, 7440, Note_on_c, 1, 74, 111
3, 7508, Note_off_c, 1, 74, 56
3, 7561, Note_on_c, 1, 76, 111
3, 7629, Note_off_c, 1, 76, 56
3, 7681, Note_on_c, 1, 77, 111
3, 7749, Note_off_c, 1, 77, 56
3, 7801, Note_on_c, 1, 76, 111
3, 7869, Note_off_c, 1, 76, 56
3, 7920, Note_on_c, 1, 77, 111
3, 7988, Note_off_c, 1, 77, 56
3, 8040, Note_on_c, 1, 79, 111
3, 8108, Note_off_c, 1, 79, 56
3, 8159, Note_on_c, 1, 81, 111
3, 8227, Note_off_c, 1, 81, 56
3, 8280, Note_on_c, 1, 79, 111
3, 8348, Note_off_c, 1, 79, 56
3, 8400, Note_on_c, 1, 81, 111
3, 8468, Note_off_c, 1, 81, 56
3, 8519, Note_on_c, 1, 83, 111
3, 8587, Note_off_c, 1, 83, 56
3, 8641, Note_on_c, 1, 84, 108
3, 9229, Note_off_c, 1, 84, 64
3, 9240, Note_on_c, 1, 72, 111
3, 9308, Note_off_c, 1, 72, 56
3, 9359, Note_on_c, 1, 74, 111
3, 9427, Note_off_c, 1, 74, 56
3, 9479, Note_on_c, 1, 76, 111
3, 9547, Note_off_c, 1, 76, 56
3, 9600, Note_on_c, 1, 79, 114
3, 9617, Note_off_c, 1, 79, 56
3, 9630, Note_on_c, 1, 77, 114
3, 9675, Note_off_c, 1, 77, 56
3, 9719, Note_on_c, 1, 76, 111
3, 9787, Note_off_c, 1, 76, 56
3, 9841, Note_on_c, 1, 77, 111
3, 9909, Note_off_c, 1, 77, 56
3, 9959, Note_on_c, 1, 79, 111
3, 10027, Note_off_c, 1, 79, 56
3, 10080, Note_on_c, 1, 83, 114
3, 10097, Note_off_c, 1, 83, 56
3, 10110, Note_on_c, 1, 81, 114
3, 10155, Note_off_c, 1, 81, 56
3, 10199, Note_on_c, 1, 79, 111
3, 10267, Note_off_c, 1, 79, 56
3, 10320, Note_on_c, 1, 81, 111
3, 10388, Note_off_c, 1, 81, 56
3, 10440, Note_on_c, 1, 83, 111
3, 10508, Note_off_c, 1, 83, 56
3, 10560, Note_on_c, 1, 86, 114
3, 10577, Note_off_c, 1, 86, 56
3, 10590, Note_on_c, 1, 84, 114
3, 10635, Note_off_c, 1, 84, 56
3, 10680, Note_on_c, 1, 83, 111
3, 10748, Note_off_c, 1, 83, 56
3, 10801, Note_on_c, 1, 84, 111
3, 10869, Note_off_c, 1, 84, 56
3, 10921, Note_on_c, 1, 86, 111
3, 10989, Note_off_c, 1, 86, 56
3, 11043, Note_on_c, 1, 88, 108
3, 11248, Note_off_c, 1, 88, 64
3, 11280, Note_on_c, 1, 79, 111
3, 11371, Note_off_c, 1, 79, 56
3, 11460, Note_on_c, 1, 91, 114
3, 11505, Note_off_c, 1, 91, 56
3, 11521, Note_on_c, 1, 91, 111
3, 11629, Note_off_c, 1, 91, 56
3, 11639, Note_on_c, 1, 89, 111
3, 11730, Note_off_c, 1, 89, 56
3, 11759, Note_on_c, 1, 77, 111
3, 11850, Note_off_c, 1, 77, 56
3, 11940, Note_on_c, 1, 86, 114
3, 11985, Note_off_c, 1, 86, 56
3, 11998, Note_on_c, 1, 86, 111
3, 12106, Note_off_c, 1, 86, 56
3, 12119, Note_on_c, 1, 84, 111
3, 12210, Note_off_c, 1, 84, 56
3, 12240, Note_on_c, 1, 76, 111
3, 12331, Note_off_c, 1, 76, 56
3, 12420, Note_on_c, 1, 84, 114
3, 12465, Note_off_c, 1, 84, 56
3, 12482, Note_on_c, 1, 84, 111
3, 12590, Note_off_c, 1, 84, 56
3, 12601, Note_on_c, 1, 83, 111
3, 12692, Note_off_c, 1, 83, 56
3, 12719, Note_on_c, 1, 83, 108
3, 13151, Note_off_c, 1, 83, 64
3, 13199, Note_on_c, 1, 84, 111
3, 13290, Note_off_c, 1, 84, 56
3, 13380, Note_on_c, 1, 88, 114
3, 13425, Note_off_c, 1, 88, 56
3, 13441, Note_on_c, 1, 88, 111
3, 13549, Note_off_c, 1, 88, 56
3, 13560, Note_on_c, 1, 86, 111
3, 13651, Note_off_c, 1, 86, 56
3, 13681, Note_on_c, 1, 77, 111
3, 13772, Note_off_c, 1, 77, 56
3, 13860, Note_on_c, 1, 86, 114
3, 13905, Note_off_c, 1, 86, 56
3, 13918, Note_on_c, 1, 86, 111
3, 14026, Note_off_c, 1, 86, 56
3, 14040, Note_on_c, 1, 84, 111
3, 14131, Note_off_c, 1, 84, 56
3, 14160, Note_on_c, 1, 76, 111
3, 14251, Note_off_c, 1, 76, 56
3, 14340, Note_on_c, 1, 84, 114
3, 14385, Note_off_c, 1, 84, 56
3, 14399, Note_on_c, 1, 84, 111
3, 14507, Note_off_c, 1, 84, 56
3, 14521, Note_on_c, 1, 83, 111
3, 14612, Note_off_c, 1, 83, 56
3, 14643, Note_on_c, 1, 83, 108
3, 15075, Note_off_c, 1, 83, 64
3, 15119, Note_on_c, 1, 84, 111
3, 15187, Note_off_c, 1, 84, 56
3, 15300, Note_on_c, 1, 88, 114
3, 15334, Note_off_c, 1, 88, 56
3, 15361, Note_on_c, 1, 88, 111
3, 15429, Note_off_c, 1, 88, 56
3, 15540, Note_on_c, 1, 86, 114
3, 15574, Note_off_c, 1, 86, 56
3, 15600, Note_on_c, 1, 77, 111
3, 15668, Note_off_c, 1, 77, 56
3, 15780, Note_on_c, 1, 86, 114
3, 15814, Note_off_c, 1, 86, 56
3, 15841, Note_on_c, 1, 86, 111
3, 15909, Note_off_c, 1, 86, 56
3, 16020, Note_on_c, 1, 84, 114
3, 16054, Note_off_c, 1, 84, 56
3, 16080, Note_on_c, 1, 76, 111
3, 16148, Note_off_c, 1, 76, 56
3, 16260, Note_on_c, 1, 84, 114
3, 16294, Note_off_c, 1, 84, 56
3, 16320, Note_on_c, 1, 83, 111
3, 16388, Note_off_c, 1, 83, 56
3, 16500, Note_on_c, 1, 74, 114
3, 16545, Note_off_c, 1, 74, 56
3, 16557, Note_on_c, 1, 79, 108
3, 16989, Note_off_c, 1, 79, 64
3, 17040, Note_on_c, 1, 81, 114
3, 17094, Note_off_c, 1, 81, 56
3, 17101, Note_on_c, 1, 79, 114
3, 17155, Note_off_c, 1, 79, 56
3, 17160, Note_on_c, 1, 77, 114
3, 17214, Note_off_c, 1, 77, 56
3, 17221, Note_on_c, 1, 76, 114
3, 17275, Note_off_c, 1, 76, 56
3, 17281, Note_on_c, 1, 74, 111
3, 17372, Note_off_c, 1, 74, 56
3, 17460, Note_on_c, 1, 74, 114
3, 17505, Note_off_c, 1, 74, 56
3, 17518, Note_on_c, 1, 79, 108
3, 17950, Note_off_c, 1, 79, 64
3, 18000, Note_on_c, 1, 81, 114
3, 18054, Note_off_c, 1, 81, 56
3, 18059, Note_on_c, 1, 79, 114
3, 18113, Note_off_c, 1, 79, 56
3, 18119, Note_on_c, 1, 77, 114
3, 18173, Note_off_c, 1, 77, 56
3, 18180, Note_on_c, 1, 76, 114
3, 18225, Note_off_c, 1, 76, 56
3, 18240, Note_on_c, 1, 74, 111
3, 18331, Note_off_c, 1, 74, 56
3, 18420, Note_on_c, 1, 79, 114
3, 18465, Note_off_c, 1, 79, 56
3, 18480, Note_on_c, 1, 81, 114
3, 18534, Note_off_c, 1, 81, 56
3, 18541, Note_on_c, 1, 79, 114
3, 18595, Note_off_c, 1, 79, 56
3, 18601, Note_on_c, 1, 77, 114
3, 18655, Note_off_c, 1, 77, 56
3, 18660, Note_on_c, 1, 76, 114
3, 18714, Note_off_c, 1, 76, 56
3, 18721, Note_on_c, 1, 74, 111
3, 18812, Note_off_c, 1, 74, 56
3, 18900, Note_on_c, 1, 79, 114
3, 18945, Note_off_c, 1, 79, 56
3, 18961, Note_on_c, 1, 81, 114
3, 19015, Note_off_c, 1, 81, 56
3, 19020, Note_on_c, 1, 79, 114
3, 19074, Note_off_c, 1, 79, 56
3, 19079, Note_on_c, 1, 77, 114
3, 19133, Note_off_c, 1, 77, 56
3, 19139, Note_on_c, 1, 76, 114
3, 19193, Note_off_c, 1, 76, 56
3, 19201, Note_on_c, 1, 74, 111
3, 19292, Note_off_c, 1, 74, 56
3, 19380, Note_on_c, 1, 79, 114
3, 19425, Note_off_c, 1, 79, 56
3, 19439, Note_on_c, 1, 81, 114
3, 19493, Note_off_c, 1, 81, 56
3, 19501, Note_on_c, 1, 79, 114
3, 19555, Note_off_c, 1, 79, 56
3, 19559, Note_on_c, 1, 77, 114
3, 19613, Note_off_c, 1, 77, 56
3, 19619, Note_on_c, 1, 76, 114
3, 19673, Note_off_c, 1, 76, 56
3, 19678, Note_on_c, 1, 74, 111
3, 19786, Note_off_c, 1, 74, 56
3, 19860, Note_on_c, 1, 79, 114
3, 19905, Note_off_c, 1, 79, 56
3, 19921, Note_on_c, 1, 81, 114
3, 19975, Note_off_c, 1, 81, 56
3, 19979, Note_on_c, 1, 79, 114
3, 20033, Note_off_c, 1, 79, 56
3, 20039, Note_on_c, 1, 77, 114
3, 20093, Note_off_c, 1, 77, 56
3, 20101, Note_on_c, 1, 76, 114
3, 20155, Note_off_c, 1, 76, 56
3, 20160, Note_on_c, 1, 74, 111
3, 20251, Note_off_c, 1, 74, 56
3, 22680, Note_on_c, 1, 84, 111
3, 22788, Note_off_c, 1, 84, 56
3, 22801, Note_on_c, 1, 83, 111
3, 22892, Note_off_c, 1, 83, 56
3, 22920, Note_on_c, 1, 81, 111
3, 22988, Note_off_c, 1, 81, 56
3, 23041, Note_on_c, 1, 79, 111
3, 23109, Note_off_c, 1, 79, 56
3, 23161, Note_on_c, 1, 84, 111
3, 23229, Note_off_c, 1, 84, 56
3, 23280, Note_on_c, 1, 83, 111
3, 23371, Note_off_c, 1, 83, 56
3, 23400, Note_on_c, 1, 81, 111
3, 23491, Note_off_c, 1, 81, 56
3, 23521, Note_on_c, 1, 79, 111
3, 23589, Note_off_c, 1, 79, 56
3, 23640, Note_on_c, 1, 77, 111
3, 23708, Note_off_c, 1, 77, 56
3, 23759, Note_on_c, 1, 76, 111
3, 23827, Note_off_c, 1, 76, 56
3, 23879, Note_on_c, 1, 74, 111
3, 23947, Note_off_c, 1, 74, 56
3, 24001, Note_on_c, 1, 72, 108
3, 24206, Note_off_c, 1, 72, 64
3, 25922, Note_on_c, 1, 86, 108
3, 27746, Note_off_c, 1, 86, 64
3, 27842, Note_on_c, 1, 86, 108
3, 28047, Note_off_c, 1, 86, 64
3, 29763, Note_on_c, 1, 88, 108
3, 31587, Note_off_c, 1, 88, 64
3, 31680, Note_on_c, 1, 88, 108
3, 31885, Note_off_c, 1, 88, 64
3, 32642, Note_on_c, 1, 88, 108
3, 32847, Note_off_c, 1, 88, 64
3, 33597, Note_on_c, 1, 90, 108
3, 33802, Note_off_c, 1, 90, 64
3, 34557, Note_on_c, 1, 90, 108
3, 34762, Note_off_c, 1, 90, 64
3, 35519, Note_on_c, 1, 91, 108
3, 35724, Note_off_c, 1, 91, 64
3, 35997, Note_on_c, 1, 91, 108
3, 36202, Note_off_c, 1, 91, 64
3, 36479, Note_on_c, 1, 90, 108
3, 36684, Note_off_c, 1, 90, 64
3, 36959, Note_on_c, 1, 90, 108
3, 37164, Note_off_c, 1, 90, 64
3, 37443, Note_on_c, 1, 91, 108
3, 37648, Note_off_c, 1, 91, 64
3, 37920, Note_on_c, 1, 91, 108
3, 38125, Note_off_c, 1, 91, 64
3, 38400, Note_on_c, 1, 86, 108
3, 39948, Note_off_c, 1, 86, 64
3, 39962, Note_on_c, 1, 86, 111
3, 40070, Note_off_c, 1, 86, 56
3, 40081, Note_on_c, 1, 85, 111
3, 40172, Note_off_c, 1, 85, 56
3, 40200, Note_on_c, 1, 85, 111
3, 40268, Note_off_c, 1, 85, 56
3, 40320, Note_on_c, 1, 86, 111
3, 40411, Note_off_c, 1, 86, 56
3, 40438, Note_on_c, 1, 86, 111
3, 40546, Note_off_c, 1, 86, 56
3, 40560, Note_on_c, 1, 85, 111
3, 40651, Note_off_c, 1, 85, 56
3, 40679, Note_on_c, 1, 91, 111
3, 40747, Note_off_c, 1, 91, 56
3, 40800, Note_on_c, 1, 90, 111
3, 40891, Note_off_c, 1, 90, 56
3, 42241, Note_on_c, 1, 86, 108
3, 42377, Note_off_c, 1, 86, 64
3, 42720, Note_on_c, 1, 88, 108
3, 42856, Note_off_c, 1, 88, 64
3, 43200, Note_on_c, 1, 86, 108
3, 43848, Note_off_c, 1, 86, 64
3, 45840, Note_on_c, 1, 81, 93
3, 45908, Note_off_c, 1, 81, 56
3, 45919, Note_on_c, 1, 83, 93
3, 45987, Note_off_c, 1, 83, 56
3, 46001, Note_on_c, 1, 84, 93
3, 46069, Note_off_c, 1, 84, 56
3, 46079, Note_on_c, 1, 86, 90
3, 46284, Note_off_c, 1, 86, 64
3, 46321, Note_on_c, 1, 83, 93
3, 46389, Note_off_c, 1, 83, 56
3, 46401, Note_on_c, 1, 84, 93
3, 46469, Note_off_c, 1, 84, 56
3, 46481, Note_on_c, 1, 86, 93
3, 46549, Note_off_c, 1, 86, 56
3, 46558, Note_on_c, 1, 88, 90
3, 46763, Note_off_c, 1, 88, 64
3, 46800, Note_on_c, 1, 88, 93
3, 46868, Note_off_c, 1, 88, 56
3, 46880, Note_on_c, 1, 90, 93
3, 46948, Note_off_c, 1, 90, 56
3, 46960, Note_on_c, 1, 91, 93
3, 47028, Note_off_c, 1, 91, 56
3, 47040, Note_on_c, 1, 86, 90
3, 47688, Note_off_c, 1, 86, 64
3, 54717, Note_on_c, 1, 88, 108
3, 55305, Note_off_c, 1, 88, 64
3, 55320, Note_on_c, 1, 88, 111
3, 55411, Note_off_c, 1, 88, 56
3, 55440, Note_on_c, 1, 88, 111
3, 55531, Note_off_c, 1, 88, 56
3, 55559, Note_on_c, 1, 88, 111
3, 55650, Note_off_c, 1, 88, 56
3, 55681, Note_on_c, 1, 88, 111
3, 55772, Note_off_c, 1, 88, 56
3, 55800, Note_on_c, 1, 88, 111
3, 55891, Note_off_c, 1, 88, 56
3, 55919, Note_on_c, 1, 88, 111
3, 56010, Note_off_c, 1, 88, 56
3, 56039, Note_on_c, 1, 88, 111
3, 56130, Note_off_c, 1, 88, 56
3, 56160, Note_on_c, 1, 88, 111
3, 56251, Note_off_c, 1, 88, 56
3, 56280, Note_on_c, 1, 88, 111
3, 56371, Note_off_c, 1, 88, 56
3, 56400, Note_on_c, 1, 88, 111
3, 56491, Note_off_c, 1, 88, 56
3, 56521, Note_on_c, 1, 88, 111
3, 56612, Note_off_c, 1, 88, 56
3, 56638, Note_on_c, 1, 88, 108
3, 56843, Note_off_c, 1, 88, 64
3, 56877, Note_on_c, 1, 85, 108
3, 57082, Note_off_c, 1, 85, 64
3, 57120, Note_on_c, 1, 86, 108
3, 57325, Note_off_c, 1, 86, 64
3, 57357, Note_on_c, 1, 87, 108
3, 57562, Note_off_c, 1, 87, 64
3, 57597, Note_on_c, 1, 88, 108
3, 57802, Note_off_c, 1, 88, 64
3, 57842, Note_on_c, 1, 90, 108
3, 58047, Note_off_c, 1, 90, 64
3, 58080, Note_on_c, 1, 91, 114
3, 58125, Note_off_c, 1, 91, 56
3, 58140, Note_on_c, 1, 90, 114
3, 58185, Note_off_c, 1, 90, 56
3, 58200, Note_on_c, 1, 88, 114
3, 58245, Note_off_c, 1, 88, 56
3, 58260, Note_on_c, 1, 86, 114
3, 58305, Note_off_c, 1, 86, 56
3, 58320, Note_on_c, 1, 84, 114
3, 58365, Note_off_c, 1, 84, 56
3, 58380, Note_on_c, 1, 83, 114
3, 58425, Note_off_c, 1, 83, 56
3, 58440, Note_on_c, 1, 81, 114
3, 58485, Note_off_c, 1, 81, 56
3, 58500, Note_on_c, 1, 79, 114
3, 58545, Note_off_c, 1, 79, 56
3, 58559, Note_on_c, 1, 84, 108
3, 58695, Note_off_c, 1, 84, 64
3, 59521, Note_on_c, 1, 81, 108
3, 59657, Note_off_c, 1, 81, 64
3, 68160, Note_on_c, 1, 79, 90
3, 68808, Note_off_c, 1, 79, 64
3, 68881, Note_on_c, 1, 78, 90
3, 69086, Note_off_c, 1, 78, 64
3, 69123, Note_on_c, 1, 76, 90
3, 69328, Note_off_c, 1, 76, 64
3, 69362, Note_on_c, 1, 74, 90
3, 69567, Note_off_c, 1, 74, 64
3, 69601, Note_on_c, 1, 74, 90
3, 69806, Note_off_c, 1, 74, 64
3, 69840, Note_on_c, 1, 74, 90
3, 70045, Note_off_c, 1, 74, 64
3, 70078, Note_on_c, 1, 79, 90
3, 70726, Note_off_c, 1, 79, 64
3, 70798, Note_on_c, 1, 78, 90
3, 71003, Note_off_c, 1, 78, 64
3, 71037, Note_on_c, 1, 76, 90
3, 71242, Note_off_c, 1, 76, 64
3, 71278, Note_on_c, 1, 74, 90
3, 71483, Note_off_c, 1, 74, 64
3, 71519, Note_on_c, 1, 74, 90
3, 71724, Note_off_c, 1, 74, 64
3, 71758, Note_on_c, 1, 74, 90
3, 71963, Note_off_c, 1, 74, 64
3, 71998, Note_on_c, 1, 84, 96
3, 72646, Note_off_c, 1, 84, 64
3, 72719, Note_on_c, 1, 83, 90
3, 72924, Note_off_c, 1, 83, 64
3, 72960, Note_on_c, 1, 81, 93
3, 73165, Note_off_c, 1, 81, 64
3, 73201, Note_on_c, 1, 80, 94
3, 73406, Note_off_c, 1, 80, 64
3, 73437, Note_on_c, 1, 80, 95
3, 73642, Note_off_c, 1, 80, 64
3, 73682, Note_on_c, 1, 80, 96
3, 73887, Note_off_c, 1, 80, 64
3, 73922, Note_on_c, 1, 80, 97
3, 74127, Note_off_c, 1, 80, 64
3, 74161, Note_on_c, 1, 80, 98
3, 74366, Note_off_c, 1, 80, 64
3, 74403, Note_on_c, 1, 80, 100
3, 74608, Note_off_c, 1, 80, 64
3, 74641, Note_on_c, 1, 80, 101
3, 74846, Note_off_c, 1, 80, 64
3, 74877, Note_on_c, 1, 80, 103
3, 75082, Note_off_c, 1, 80, 64
3, 75121, Note_on_c, 1, 84, 104
3, 75326, Note_off_c, 1, 84, 64
3, 75361, Note_on_c, 1, 84, 105
3, 75566, Note_off_c, 1, 84, 64
3, 75600, Note_on_c, 1, 84, 106
3, 75805, Note_off_c, 1, 84, 64
3, 75837, Note_on_c, 1, 89, 108
3, 77661, Note_off_c, 1, 89, 64
3, 77759, Note_on_c, 1, 89, 108
3, 78407, Note_off_c, 1, 89, 64
3, 78481, Note_on_c, 1, 89, 111
3, 78572, Note_off_c, 1, 89, 56
3, 78599, Note_on_c, 1, 89, 111
3, 78690, Note_off_c, 1, 89, 56
3, 78717, Note_on_c, 1, 89, 108
3, 79365, Note_off_c, 1, 89, 64
3, 79440, Note_on_c, 1, 89, 111
3, 79531, Note_off_c, 1, 89, 56
3, 79559, Note_on_c, 1, 89, 111
3, 79650, Note_off_c, 1, 89, 56
3, 79683, Note_on_c, 1, 89, 108
3, 79888, Note_off_c, 1, 89, 64
3, 79920, Note_on_c, 1, 89, 111
3, 80011, Note_off_c, 1, 89, 56
3, 80041, Note_on_c, 1, 89, 111
3, 80132, Note_off_c, 1, 89, 56
3, 80159, Note_on_c, 1, 89, 108
3, 80364, Note_off_c, 1, 89, 64
3, 80401, Note_on_c, 1, 89, 111
3, 80492, Note_off_c, 1, 89, 56
3, 80520, Note_on_c, 1, 89, 111
3, 80611, Note_off_c, 1, 89, 56
3, 80640, Note_on_c, 1, 83, 111
3, 80731, Note_off_c, 1, 83, 56
3, 80760, Note_on_c, 1, 79, 111
3, 80851, Note_off_c, 1, 79, 56
3, 80881, Note_on_c, 1, 86, 111
3, 80972, Note_off_c, 1, 86, 56
3, 80999, Note_on_c, 1, 83, 111
3, 81090, Note_off_c, 1, 83, 56
3, 81121, Note_on_c, 1, 89, 111
3, 81212, Note_off_c, 1, 89, 56
3, 81239, Note_on_c, 1, 86, 111
3, 81330, Note_off_c, 1, 86, 56
3, 81361, Note_on_c, 1, 83, 111
3, 81452, Note_off_c, 1, 83, 56
3, 81481, Note_on_c, 1, 79, 111
3, 81572, Note_off_c, 1, 79, 56
3, 81601, Note_on_c, 1, 84, 108
3, 81806, Note_off_c, 1, 84, 64
3, 82080, Note_on_c, 1, 88, 108
3, 82285, Note_off_c, 1, 88, 64
3, 82562, Note_on_c, 1, 91, 108
3, 83210, Note_off_c, 1, 91, 64
3, 83279, Note_on_c, 1, 89, 111
3, 83370, Note_off_c, 1, 89, 56
3, 83521, Note_on_c, 1, 88, 111
3, 83612, Note_off_c, 1, 88, 56
3, 83760, Note_on_c, 1, 86, 111
3, 83851, Note_off_c, 1, 86, 56
3, 84000, Note_on_c, 1, 84, 111
3, 84091, Note_off_c, 1, 84, 56
3, 84240, Note_on_c, 1, 86, 111
3, 84331, Note_off_c, 1, 86, 56
3, 84483, Note_on_c, 1, 84, 108
3, 85131, Note_off_c, 1, 84, 64
3, 85203, Note_on_c, 1, 84, 108
3, 85356, Note_off_c, 1, 84, 64
3, 85380, Note_on_c, 1, 84, 114
3, 85425, Note_off_c, 1, 84, 56
3, 85443, Note_on_c, 1, 86, 108
3, 86091, Note_off_c, 1, 86, 64
3, 86163, Note_on_c, 1, 86, 108
3, 86316, Note_off_c, 1, 86, 64
3, 86340, Note_on_c, 1, 86, 114
3, 86385, Note_off_c, 1, 86, 56
3, 86399, Note_on_c, 1, 88, 108
3, 86987, Note_off_c, 1, 88, 64
3, 87001, Note_on_c, 1, 72, 111
3, 87069, Note_off_c, 1, 72, 56
3, 87120, Note_on_c, 1, 74, 111
3, 87188, Note_off_c, 1, 74, 56
3, 87240, Note_on_c, 1, 76, 111
3, 87308, Note_off_c, 1, 76, 56
3, 87360, Note_on_c, 1, 77, 111
3, 87428, Note_off_c, 1, 77, 56
3, 87481, Note_on_c, 1, 76, 111
3, 87549, Note_off_c, 1, 76, 56
3, 87601, Note_on_c, 1, 77, 111
3, 87669, Note_off_c, 1, 77, 56
3, 87719, Note_on_c, 1, 79, 111
3, 87787, Note_off_c, 1, 79, 56
3, 87839, Note_on_c, 1, 81, 111
3, 87907, Note_off_c, 1, 81, 56
3, 87961, Note_on_c, 1, 79, 111
3, 88029, Note_off_c, 1, 79, 56
3, 88081, Note_on_c, 1, 81, 111
3, 88149, Note_off_c, 1, 81, 56
3, 88201, Note_on_c, 1, 83, 111
3, 88269, Note_off_c, 1, 83, 56
3, 88321, Note_on_c, 1, 84, 108
3, 88909, Note_off_c, 1, 84, 64
3, 88920, Note_on_c, 1, 72, 111
3, 88988, Note_off_c, 1, 72, 56
3, 89041, Note_on_c, 1, 74, 111
3, 89109, Note_off_c, 1, 74, 56
3, 89160, Note_on_c, 1, 76, 111
3, 89228, Note_off_c, 1, 76, 56
3, 89280, Note_on_c, 1, 77, 111
3, 89348, Note_off_c, 1, 77, 56
3, 89399, Note_on_c, 1, 76, 111
3, 89467, Note_off_c, 1, 76, 56
3, 89519, Note_on_c, 1, 77, 111
3, 89587, Note_off_c, 1, 77, 56
3, 89641, Note_on_c, 1, 79, 111
3, 89709, Note_off_c, 1, 79, 56
3, 89759, Note_on_c, 1, 81, 111
3, 89827, Note_off_c, 1, 81, 56
3, 89881, Note_on_c, 1, 79, 111
3, 89949, Note_off_c, 1, 79, 56
3, 90001, Note_on_c, 1, 81, 111
3, 90069, Note_off_c, 1, 81, 56
3, 90119, Note_on_c, 1, 83, 111
3, 90187, Note_off_c, 1, 83, 56
3, 90242, Note_on_c, 1, 84, 108
3, 90830, Note_off_c, 1, 84, 64
3, 90839, Note_on_c, 1, 72, 111
3, 90907, Note_off_c, 1, 72, 56
3, 90961, Note_on_c, 1, 74, 111
3, 91029, Note_off_c, 1, 74, 56
3, 91081, Note_on_c, 1, 76, 111
3, 91149, Note_off_c, 1, 76, 56
3, 91200, Note_on_c, 1, 79, 114
3, 91217, Note_off_c, 1, 79, 56
3, 91230, Note_on_c, 1, 77, 114
3, 91275, Note_off_c, 1, 77, 56
3, 91321, Note_on_c, 1, 76, 111
3, 91389, Note_off_c, 1, 76, 56
3, 91441, Note_on_c, 1, 77, 111
3, 91509, Note_off_c, 1, 77, 56
3, 91560, Note_on_c, 1, 79, 111
3, 91628, Note_off_c, 1, 79, 56
3, 91680, Note_on_c, 1, 83, 114
3, 91697, Note_off_c, 1, 83, 56
3, 91710, Note_on_c, 1, 81, 114
3, 91755, Note_off_c, 1, 81, 56
3, 91800, Note_on_c, 1, 79, 111
3, 91868, Note_off_c, 1, 79, 56
3, 91920, Note_on_c, 1, 81, 111
3, 91988, Note_off_c, 1, 81, 56
3, 92041, Note_on_c, 1, 83, 111
3, 92109, Note_off_c, 1, 83, 56
3, 92160, Note_on_c, 1, 86, 114
3, 92177, Note_off_c, 1, 86, 56
3, 92190, Note_on_c, 1, 84, 114
3, 92235, Note_off_c, 1, 84, 56
3, 92279, Note_on_c, 1, 83, 111
3, 92347, Note_off_c, 1, 83, 56
3, 92399, Note_on_c, 1, 84, 111
3, 92467, Note_off_c, 1, 84, 56
3, 92521, Note_on_c, 1, 86, 111
3, 92589, Note_off_c, 1, 86, 56
3, 92640, Note_on_c, 1, 88, 108
3, 92845, Note_off_c, 1, 88, 64
3, 92881, Note_on_c, 1, 79, 111
3, 92972, Note_off_c, 1, 79, 56
3, 93060, Note_on_c, 1, 91, 114
3, 93105, Note_off_c, 1, 91, 56
3, 93122, Note_on_c, 1, 91, 111
3, 93230, Note_off_c, 1, 91, 56
3, 93241, Note_on_c, 1, 89, 111
3, 93332, Note_off_c, 1, 89, 56
3, 93361, Note_on_c, 1, 77, 111
3, 93452, Note_off_c, 1, 77, 56
3, 93540, Note_on_c, 1, 86, 114
3, 93585, Note_off_c, 1, 86, 56
3, 93599, Note_on_c, 1, 86, 111
3, 93707, Note_off_c, 1, 86, 56
3, 93720, Note_on_c, 1, 84, 111
3, 93811, Note_off_c, 1, 84, 56
3, 93839, Note_on_c, 1, 76, 111
3, 93930, Note_off_c, 1, 76, 56
3, 94020, Note_on_c, 1, 84, 114
3, 94065, Note_off_c, 1, 84, 56
3, 94082, Note_on_c, 1, 84, 111
3, 94190, Note_off_c, 1, 84, 56
3, 94200, Note_on_c, 1, 83, 111
3, 94291, Note_off_c, 1, 83, 56
3, 94317, Note_on_c, 1, 83, 108
3, 94749, Note_off_c, 1, 83, 64
3, 94801, Note_on_c, 1, 84, 111
3, 94892, Note_off_c, 1, 84, 56
3, 94980, Note_on_c, 1, 88, 114
3, 95025, Note_off_c, 1, 88, 56
3, 95038, Note_on_c, 1, 88, 111
3, 95146, Note_off_c, 1, 88, 56
3, 95160, Note_on_c, 1, 86, 111
3, 95251, Note_off_c, 1, 86, 56
3, 95280, Note_on_c, 1, 77, 111
3, 95371, Note_off_c, 1, 77, 56
3, 95460, Note_on_c, 1, 86, 114
3, 95505, Note_off_c, 1, 86, 56
3, 95521, Note_on_c, 1, 86, 111
3, 95629, Note_off_c, 1, 86, 56
3, 95640, Note_on_c, 1, 84, 111
3, 95731, Note_off_c, 1, 84, 56
3, 95761, Note_on_c, 1, 76, 111
3, 95852, Note_off_c, 1, 76, 56
3, 95940, Note_on_c, 1, 84, 114
3, 95985, Note_off_c, 1, 84, 56
3, 95998, Note_on_c, 1, 84, 111
3, 96106, Note_off_c, 1, 84, 56
3, 96120, Note_on_c, 1, 83, 111
3, 96211, Note_off_c, 1, 83, 56
3, 96243, Note_on_c, 1, 83, 108
3, 96675, Note_off_c, 1, 83, 64
3, 96720, Note_on_c, 1, 84, 111
3, 96788, Note_off_c, 1, 84, 56
3, 96900, Note_on_c, 1, 88, 114
3, 96934, Note_off_c, 1, 88, 56
3, 96961, Note_on_c, 1, 88, 111
3, 97029, Note_off_c, 1, 88, 56
3, 97140, Note_on_c, 1, 86, 114
3, 97174, Note_off_c, 1, 86, 56
3, 97199, Note_on_c, 1, 77, 111
3, 97267, Note_off_c, 1, 77, 56
3, 97380, Note_on_c, 1, 86, 114
3, 97414, Note_off_c, 1, 86, 56
3, 97441, Note_on_c, 1, 86, 111
3, 97509, Note_off_c, 1, 86, 56
3, 97620, Note_on_c, 1, 84, 114
3, 97654, Note_off_c, 1, 84, 56
3, 97680, Note_on_c, 1, 76, 111
3, 97748, Note_off_c, 1, 76, 56
3, 97860, Note_on_c, 1, 84, 114
3, 97894, Note_off_c, 1, 84, 56
3, 97920, Note_on_c, 1, 83, 111
3, 97988, Note_off_c, 1, 83, 56
3, 98100, Note_on_c, 1, 74, 114
3, 98145, Note_off_c, 1, 74, 56
3, 98159, Note_on_c, 1, 79, 108
3, 98591, Note_off_c, 1, 79, 64
3, 98640, Note_on_c, 1, 81, 114
3, 98694, Note_off_c, 1, 81, 56
3, 98700, Note_on_c, 1, 79, 114
3, 98754, Note_off_c, 1, 79, 56
3, 98759, Note_on_c, 1, 77, 114
3, 98813, Note_off_c, 1, 77, 56
3, 98819, Note_on_c, 1, 76, 114
3, 98873, Note_off_c, 1, 76, 56
3, 98879, Note_on_c, 1, 74, 111
3, 98970, Note_off_c, 1, 74, 56
3, 99060, Note_on_c, 1, 74, 114
3, 99105, Note_off_c, 1, 74, 56
3, 99120, Note_on_c, 1, 79, 108
3, 99552, Note_off_c, 1, 79, 64
3, 99600, Note_on_c, 1, 81, 114
3, 99654, Note_off_c, 1, 81, 56
3, 99661, Note_on_c, 1, 79, 114
3, 99715, Note_off_c, 1, 79, 56
3, 99720, Note_on_c, 1, 77, 114
3, 99774, Note_off_c, 1, 77, 56
3, 99780, Note_on_c, 1, 76, 114
3, 99825, Note_off_c, 1, 76, 56
3, 99839, Note_on_c, 1, 74, 111
3, 99930, Note_off_c, 1, 74, 56
3, 100020, Note_on_c, 1, 79, 114
3, 100065, Note_off_c, 1, 79, 56
3, 100079, Note_on_c, 1, 81, 114
3, 100133, Note_off_c, 1, 81, 56
3, 100140, Note_on_c, 1, 79, 114
3, 100194, Note_off_c, 1, 79, 56
3, 100201, Note_on_c, 1, 77, 114
3, 100255, Note_off_c, 1, 77, 56
3, 100260, Note_on_c, 1, 76, 114
3, 100314, Note_off_c, 1, 76, 56
3, 100321, Note_on_c, 1, 74, 111
3, 100412, Note_off_c, 1, 74, 56
3, 100500, Note_on_c, 1, 79, 114
3, 100545, Note_off_c, 1, 79, 56
3, 100561, Note_on_c, 1, 81, 114
3, 100615, Note_off_c, 1, 81, 56
3, 100621, Note_on_c, 1, 79, 114
3, 100675, Note_off_c, 1, 79, 56
3, 100681, Note_on_c, 1, 77, 114
3, 100735, Note_off_c, 1, 77, 56
3, 100741, Note_on_c, 1, 76, 114
3, 100795, Note_off_c, 1, 76, 56
3, 100799, Note_on_c, 1, 74, 111
3, 100890, Note_off_c, 1, 74, 56
3, 100980, Note_on_c, 1, 79, 114
3, 101025, Note_off_c, 1, 79, 56
3, 101041, Note_on_c, 1, 81, 114
3, 101095, Note_off_c, 1, 81, 56
3, 101099, Note_on_c, 1, 79, 114
3, 101153, Note_off_c, 1, 79, 56
3, 101160, Note_on_c, 1, 77, 114
3, 101214, Note_off_c, 1, 77, 56
3, 101219, Note_on_c, 1, 76, 114
3, 101273, Note_off_c, 1, 76, 56
3, 101278, Note_on_c, 1, 74, 111
3, 101386, Note_off_c, 1, 74, 56
3, 101460, Note_on_c, 1, 79, 114
3, 101505, Note_off_c, 1, 79, 56
3, 101519, Note_on_c, 1, 81, 114
3, 101573, Note_off_c, 1, 81, 56
3, 101579, Note_on_c, 1, 79, 114
3, 101633, Note_off_c, 1, 79, 56
3, 101639, Note_on_c, 1, 77, 114
3, 101693, Note_off_c, 1, 77, 56
3, 101700, Note_on_c, 1, 76, 114
3, 101754, Note_off_c, 1, 76, 56
3, 101760, Note_on_c, 1, 74, 111
3, 101851, Note_off_c, 1, 74, 56
3, 104279, Note_on_c, 1, 84, 111
3, 104387, Note_off_c, 1, 84, 56
3, 104399, Note_on_c, 1, 83, 111
3, 104490, Note_off_c, 1, 83, 56
3, 104520, Note_on_c, 1, 81, 111
3, 104588, Note_off_c, 1, 81, 56
3, 104639, Note_on_c, 1, 79, 111
3, 104707, Note_off_c, 1, 79, 56
3, 104760, Note_on_c, 1, 84, 111
3, 104828, Note_off_c, 1, 84, 56
3, 104881, Note_on_c, 1, 83, 111
3, 104972, Note_off_c, 1, 83, 56
3, 105001, Note_on_c, 1, 81, 111
3, 105092, Note_off_c, 1, 81, 56
3, 105121, Note_on_c, 1, 79, 111
3, 105189, Note_off_c, 1, 79, 56
3, 105240, Note_on_c, 1, 77, 111
3, 105308, Note_off_c, 1, 77, 56
3, 105360, Note_on_c, 1, 76, 111
3, 105428, Note_off_c, 1, 76, 56
3, 105480, Note_on_c, 1, 74, 111
3, 105548, Note_off_c, 1, 74, 56
3, 105598, Note_on_c, 1, 72, 108
3, 105803, Note_off_c, 1, 72, 64
3, 107523, Note_on_c, 1, 86, 108
3, 109347, Note_off_c, 1, 86, 64
3, 109438, Note_on_c, 1, 86, 108
3, 109643, Note_off_c, 1, 86, 64
3, 111360, Note_on_c, 1, 88, 108
3, 113184, Note_off_c, 1, 88, 64
3, 113280, Note_on_c, 1, 88, 108
3, 113485, Note_off_c, 1, 88, 64
3, 114241, Note_on_c, 1, 88, 108
3, 114446, Note_off_c, 1, 88, 64
3, 115198, Note_on_c, 1, 90, 108
3, 115403, Note_off_c, 1, 90, 64
3, 116157, Note_on_c, 1, 90, 108
3, 116362, Note_off_c, 1, 90, 64
3, 117123, Note_on_c, 1, 91, 108
3, 117328, Note_off_c, 1, 91, 64
3, 117601, Note_on_c, 1, 91, 108
3, 117806, Note_off_c, 1, 91, 64
3, 118082, Note_on_c, 1, 90, 108
3, 118287, Note_off_c, 1, 90, 64
3, 118563, Note_on_c, 1, 90, 108
3, 118768, Note_off_c, 1, 90, 64
3, 119042, Note_on_c, 1, 91, 108
3, 119247, Note_off_c, 1, 91, 64
3, 119522, Note_on_c, 1, 91, 108
3, 119727, Note_off_c, 1, 91, 64
3, 119997, Note_on_c, 1, 86, 108
3, 121545, Note_off_c, 1, 86, 64
3, 121561, Note_on_c, 1, 86, 111
3, 121669, Note_off_c, 1, 86, 56
3, 121680, Note_on_c, 1, 85, 111
3, 121771, Note_off_c, 1, 85, 56
3, 121799, Note_on_c, 1, 85, 111
3, 121867, Note_off_c, 1, 85, 56
3, 121919, Note_on_c, 1, 86, 111
3, 122010, Note_off_c, 1, 86, 56
3, 122038, Note_on_c, 1, 86, 111
3, 122146, Note_off_c, 1, 86, 56
3, 122161, Note_on_c, 1, 85, 111
3, 122252, Note_off_c, 1, 85, 56
3, 122279, Note_on_c, 1, 91, 111
3, 122347, Note_off_c, 1, 91, 56
3, 122401, Note_on_c, 1, 90, 111
3, 122492, Note_off_c, 1, 90, 56
3, 123839, Note_on_c, 1, 86, 108
3, 123975, Note_off_c, 1, 86, 64
3, 124322, Note_on_c, 1, 88, 108
3, 124458, Note_off_c, 1, 88, 64
3, 124803, Note_on_c, 1, 86, 108
3, 125451, Note_off_c, 1, 86, 64
3, 127439, Note_on_c, 1, 81, 93
3, 127507, Note_off_c, 1, 81, 56
3, 127520, Note_on_c, 1, 83, 93
3, 127588, Note_off_c, 1, 83, 56
3, 127600, Note_on_c, 1, 84, 93
3, 127668, Note_off_c, 1, 84, 56
3, 127677, Note_on_c, 1, 86, 90
3, 127882, Note_off_c, 1, 86, 64
3, 127919, Note_on_c, 1, 83, 93
3, 127987, Note_off_c, 1, 83, 56
3, 128001, Note_on_c, 1, 84, 93
3, 128069, Note_off_c, 1, 84, 56
3, 128079, Note_on_c, 1, 86, 93
3, 128147, Note_off_c, 1, 86, 56
3, 128159, Note_on_c, 1, 88, 90
3, 128364, Note_off_c, 1, 88, 64
3, 128400, Note_on_c, 1, 88, 93
3, 128468, Note_off_c, 1, 88, 56
3, 128481, Note_on_c, 1, 90, 93
3, 128549, Note_off_c, 1, 90, 56
3, 128560, Note_on_c, 1, 91, 93
3, 128628, Note_off_c, 1, 91, 56
3, 128641, Note_on_c, 1, 86, 90
3, 129289, Note_off_c, 1, 86, 64
3, 136321, Note_on_c, 1, 88, 108
3, 136909, Note_off_c, 1, 88, 64
3, 136919, Note_on_c, 1, 88, 111
3, 137010, Note_off_c, 1, 88, 56
3, 137040, Note_on_c, 1, 88, 111
3, 137131, Note_off_c, 1, 88, 56
3, 137160, Note_on_c, 1, 88, 111
3, 137251, Note_off_c, 1, 88, 56
3, 137279, Note_on_c, 1, 88, 111
3, 137370, Note_off_c, 1, 88, 56
3, 137399, Note_on_c, 1, 88, 111
3, 137490, Note_off_c, 1, 88, 56
3, 137520, Note_on_c, 1, 88, 111
3, 137611, Note_off_c, 1, 88, 56
3, 137640, Note_on_c, 1, 88, 111
3, 137731, Note_off_c, 1, 88, 56
3, 137759, Note_on_c, 1, 88, 111
3, 137850, Note_off_c, 1, 88, 56
3, 137881, Note_on_c, 1, 88, 111
3, 137972, Note_off_c, 1, 88, 56
3, 138000, Note_on_c, 1, 88, 111
3, 138091, Note_off_c, 1, 88, 56
3, 138121, Note_on_c, 1, 88, 111
3, 138212, Note_off_c, 1, 88, 56
3, 138242, Note_on_c, 1, 88, 108
3, 138447, Note_off_c, 1, 88, 64
3, 138481, Note_on_c, 1, 85, 108
3, 138686, Note_off_c, 1, 85, 64
3, 138718, Note_on_c, 1, 86, 108
3, 138923, Note_off_c, 1, 86, 64
3, 138962, Note_on_c, 1, 87, 108
3, 139167, Note_off_c, 1, 87, 64
3, 139203, Note_on_c, 1, 88, 108
3, 139408, Note_off_c, 1, 88, 64
3, 139439, Note_on_c, 1, 90, 108
3, 139644, Note_off_c, 1, 90, 64
3, 139680, Note_on_c, 1, 91, 114
3, 139725, Note_off_c, 1, 91, 56
3, 139740, Note_on_c, 1, 90, 114
3, 139785, Note_off_c, 1, 90, 56
3, 139800, Note_on_c, 1, 88, 114
3, 139845, Note_off_c, 1, 88, 56
3, 139860, Note_on_c, 1, 86, 114
3, 139905, Note_off_c, 1, 86, 56
3, 139920, Note_on_c, 1, 84, 114
3, 139965, Note_off_c, 1, 84, 56
3, 139980, Note_on_c, 1, 83, 114
3, 140025, Note_off_c, 1, 83, 56
3, 140040, Note_on_c, 1, 81, 114
3, 140085, Note_off_c, 1, 81, 56
3, 140100, Note_on_c, 1, 79, 114
3, 140145, Note_off_c, 1, 79, 56
3, 140159, Note_on_c, 1, 84, 108
3, 140295, Note_off_c, 1, 84, 64
3, 141120, Note_on_c, 1, 81, 108
3, 141256, Note_off_c, 1, 81, 64
3, 149762, Note_on_c, 1, 79, 90
3, 150410, Note_off_c, 1, 79, 64
3, 150483, Note_on_c, 1, 78, 90
3, 150688, Note_off_c, 1, 78, 64
3, 150719, Note_on_c, 1, 76, 90
3, 150924, Note_off_c, 1, 76, 64
3, 150957, Note_on_c, 1, 74, 90
3, 151162, Note_off_c, 1, 74, 64
3, 151199, Note_on_c, 1, 74, 90
3, 151404, Note_off_c, 1, 74, 64
3, 151438, Note_on_c, 1, 74, 90
3, 151643, Note_off_c, 1, 74, 64
3, 151681, Note_on_c, 1, 79, 90
3, 152329, Note_off_c, 1, 79, 64
3, 152398, Note_on_c, 1, 78, 90
3, 152603, Note_off_c, 1, 78, 64
3, 152639, Note_on_c, 1, 76, 90
3, 152844, Note_off_c, 1, 76, 64
3, 152879, Note_on_c, 1, 74, 90
3, 153084, Note_off_c, 1, 74, 64
3, 153118, Note_on_c, 1, 74, 90
3, 153323, Note_off_c, 1, 74, 64
3, 153362, Note_on_c, 1, 74, 90
3, 153567, Note_off_c, 1, 74, 64
3, 153602, Note_on_c, 1, 84, 96
3, 154250, Note_off_c, 1, 84, 64
3, 154317, Note_on_c, 1, 83, 90
3, 154522, Note_off_c, 1, 83, 64
3, 154561, Note_on_c, 1, 81, 93
3, 154766, Note_off_c, 1, 81, 64
3, 154799, Note_on_c, 1, 80, 94
3, 155004, Note_off_c, 1, 80, 64
3, 155043, Note_on_c, 1, 80, 95
3, 155248, Note_off_c, 1, 80, 64
3, 155280, Note_on_c, 1, 80, 96
3, 155485, Note_off_c, 1, 80, 64
3, 155519, Note_on_c, 1, 80, 97
3, 155724, Note_off_c, 1, 80, 64
3, 155761, Note_on_c, 1, 80, 98
3, 155966, Note_off_c, 1, 80, 64
3, 155997, Note_on_c, 1, 80, 100
3, 156202, Note_off_c, 1, 80, 64
3, 156243, Note_on_c, 1, 80, 101
3, 156448, Note_off_c, 1, 80, 64
3, 156478, Note_on_c, 1, 80, 103
3, 156683, Note_off_c, 1, 80, 64
3, 156717, Note_on_c, 1, 84, 104
3, 156922, Note_off_c, 1, 84, 64
3, 156963, Note_on_c, 1, 84, 105
3, 157168, Note_off_c, 1, 84, 64
3, 157199, Note_on_c, 1, 84, 106
3, 157404, Note_off_c, 1, 84, 64
3, 157443, Note_on_c, 1, 89, 108
3, 159267, Note_off_c, 1, 89, 64
3, 159360, Note_on_c, 1, 89, 108
3, 160008, Note_off_c, 1, 89, 64
3, 160080, Note_on_c, 1, 89, 111
3, 160171, Note_off_c, 1, 89, 56
3, 160199, Note_on_c, 1, 89, 111
3, 160290, Note_off_c, 1, 89, 56
3, 160318, Note_on_c, 1, 89, 108
3, 160966, Note_off_c, 1, 89, 64
3, 161039, Note_on_c, 1, 89, 111
3, 161130, Note_off_c, 1, 89, 56
3, 161159, Note_on_c, 1, 89, 111
3, 161250, Note_off_c, 1, 89, 56
3, 161278, Note_on_c, 1, 89, 108
3, 161483, Note_off_c, 1, 89, 64
3, 161519, Note_on_c, 1, 89, 111
3, 161610, Note_off_c, 1, 89, 56
3, 161641, Note_on_c, 1, 89, 111
3, 161732, Note_off_c, 1, 89, 56
3, 161763, Note_on_c, 1, 89, 108
3, 161968, Note_off_c, 1, 89, 64
3, 162001, Note_on_c, 1, 89, 111
3, 162092, Note_off_c, 1, 89, 56
3, 162121, Note_on_c, 1, 89, 111
3, 162212, Note_off_c, 1, 89, 56
3, 162241, Note_on_c, 1, 83, 111
3, 162332, Note_off_c, 1, 83, 56
3, 162361, Note_on_c, 1, 79, 111
3, 162452, Note_off_c, 1, 79, 56
3, 162480, Note_on_c, 1, 86, 111
3, 162571, Note_off_c, 1, 86, 56
3, 162601, Note_on_c, 1, 83, 111
3, 162692, Note_off_c, 1, 83, 56
3, 162719, Note_on_c, 1, 89, 111
3, 162810, Note_off_c, 1, 89, 56
3, 162841, Note_on_c, 1, 86, 111
3, 162932, Note_off_c, 1, 86, 56
3, 162960, Note_on_c, 1, 86, 111
3, 163051, Note_off_c, 1, 86, 56
3, 163080, Note_on_c, 1, 86, 111
3, 163171, Note_off_c, 1, 86, 56
3, 163199, Note_on_c, 1, 88, 108
3, 165983, Note_off_c, 1, 88, 64
3, 166081, Note_on_c, 1, 80, 111
3, 166172, Note_off_c, 1, 80, 56
3, 166200, Note_on_c, 1, 76, 111
3, 166291, Note_off_c, 1, 76, 56
3, 166321, Note_on_c, 1, 83, 111
3, 166412, Note_off_c, 1, 83, 56
3, 166439, Note_on_c, 1, 80, 111
3, 166530, Note_off_c, 1, 80, 56
3, 166559, Note_on_c, 1, 86, 111
3, 166650, Note_off_c, 1, 86, 56
3, 166680, Note_on_c, 1, 83, 111
3, 166771, Note_off_c, 1, 83, 56
3, 166801, Note_on_c, 1, 86, 111
3, 166892, Note_off_c, 1, 86, 56
3, 166921, Note_on_c, 1, 86, 111
3, 167012, Note_off_c, 1, 86, 56
3, 167043, Note_on_c, 1, 85, 108
3, 167248, Note_off_c, 1, 85, 64
3, 167521, Note_on_c, 1, 90, 108
3, 167726, Note_off_c, 1, 90, 64
3, 167998, Note_on_c, 1, 88, 108
3, 168646, Note_off_c, 1, 88, 64
3, 173999, Note_on_c, 1, 79, 76
3, 174071, Note_off_c, 1, 79, 56
3, 174079, Note_on_c, 1, 81, 76
3, 174151, Note_off_c, 1, 81, 56
3, 174160, Note_on_c, 1, 83, 76
3, 174232, Note_off_c, 1, 83, 56
3, 174239, Note_on_c, 1, 84, 73
3, 174375, Note_off_c, 1, 84, 64
3, 175921, Note_on_c, 1, 79, 76
3, 175993, Note_off_c, 1, 79, 56
3, 175999, Note_on_c, 1, 81, 76
3, 176071, Note_off_c, 1, 81, 56
3, 176080, Note_on_c, 1, 83, 76
3, 176152, Note_off_c, 1, 83, 56
3, 176163, Note_on_c, 1, 84, 73
3, 176379, Note_off_c, 1, 84, 64
3, 176401, Note_on_c, 1, 82, 73
3, 176617, Note_off_c, 1, 82, 64
3, 176643, Note_on_c, 1, 81, 73
3, 176859, Note_off_c, 1, 81, 64
3, 176881, Note_on_c, 1, 79, 73
3, 177097, Note_off_c, 1, 79, 64
3, 177121, Note_on_c, 1, 77, 73
3, 177337, Note_off_c, 1, 77, 64
3, 177362, Note_on_c, 1, 78, 73
3, 177578, Note_off_c, 1, 78, 64
3, 177600, Note_on_c, 1, 79, 73
3, 177816, Note_off_c, 1, 79, 64
3, 177841, Note_on_c, 1, 81, 73
3, 178057, Note_off_c, 1, 81, 64
3, 178083, Note_on_c, 1, 82, 73
3, 178288, Note_off_c, 1, 82, 64
3, 178322, Note_on_c, 1, 83, 73
3, 178538, Note_off_c, 1, 83, 64
3, 178560, Note_on_c, 1, 84, 73
3, 178776, Note_off_c, 1, 84, 64
3, 178798, Note_on_c, 1, 86, 73
3, 179014, Note_off_c, 1, 86, 64
3, 179040, Note_on_c, 1, 87, 73
3, 179256, Note_off_c, 1, 87, 64
3, 179282, Note_on_c, 1, 88, 73
3, 179498, Note_off_c, 1, 88, 64
3, 179518, Note_on_c, 1, 89, 73
3, 179723, Note_off_c, 1, 89, 64
3, 179759, Note_on_c, 1, 81, 76
3, 179831, Note_off_c, 1, 81, 56
3, 179841, Note_on_c, 1, 83, 76
3, 179913, Note_off_c, 1, 83, 56
3, 179919, Note_on_c, 1, 85, 76
3, 179991, Note_off_c, 1, 85, 56
3, 180000, Note_on_c, 1, 86, 73
3, 180216, Note_off_c, 1, 86, 64
3, 180239, Note_on_c, 1, 84, 73
3, 180455, Note_off_c, 1, 84, 64
3, 180477, Note_on_c, 1, 82, 73
3, 180693, Note_off_c, 1, 82, 64
3, 180722, Note_on_c, 1, 81, 73
3, 180938, Note_off_c, 1, 81, 64
3, 180957, Note_on_c, 1, 79, 73
3, 181173, Note_off_c, 1, 79, 64
3, 181200, Note_on_c, 1, 80, 73
3, 181416, Note_off_c, 1, 80, 64
3, 181441, Note_on_c, 1, 81, 73
3, 181657, Note_off_c, 1, 81, 64
3, 181677, Note_on_c, 1, 83, 73
3, 181893, Note_off_c, 1, 83, 64
3, 181921, Note_on_c, 1, 84, 73
3, 182126, Note_off_c, 1, 84, 64
3, 182162, Note_on_c, 1, 85, 75
3, 182378, Note_off_c, 1, 85, 64
3, 182397, Note_on_c, 1, 86, 80
3, 182613, Note_off_c, 1, 86, 64
3, 182638, Note_on_c, 1, 87, 83
3, 182854, Note_off_c, 1, 87, 64
3, 182881, Note_on_c, 1, 89, 88
3, 183086, Note_off_c, 1, 89, 64
3, 183119, Note_on_c, 1, 89, 90
3, 185927, Note_off_c, 1, 89, 64
3, 186000, Note_on_c, 1, 89, 90
3, 188808, Note_off_c, 1, 89, 64
3, 190077, Note_on_c, 1, 80, 90
3, 191685, Note_off_c, 1, 80, 64
3, 192959, Note_on_c, 1, 80, 90
3, 194567, Note_off_c, 1, 80, 64
3, 194641, Note_on_c, 1, 84, 93
3, 194713, Note_off_c, 1, 84, 56
3, 194719, Note_on_c, 1, 82, 93
3, 194791, Note_off_c, 1, 82, 56
3, 194801, Note_on_c, 1, 80, 93
3, 194873, Note_off_c, 1, 80, 56
3, 194880, Note_on_c, 1, 79, 90
3, 195096, Note_off_c, 1, 79, 64
3, 195119, Note_on_c, 1, 82, 93
3, 195191, Note_off_c, 1, 82, 56
3, 195199, Note_on_c, 1, 80, 93
3, 195271, Note_off_c, 1, 80, 56
3, 195279, Note_on_c, 1, 79, 93
3, 195351, Note_off_c, 1, 79, 56
3, 195359, Note_on_c, 1, 77, 90
3, 195575, Note_off_c, 1, 77, 64
3, 195600, Note_on_c, 1, 80, 93
3, 195672, Note_off_c, 1, 80, 56
3, 195680, Note_on_c, 1, 79, 93
3, 195752, Note_off_c, 1, 79, 56
3, 195759, Note_on_c, 1, 77, 93
3, 195831, Note_off_c, 1, 77, 56
3, 195841, Note_on_c, 1, 75, 90
3, 195977, Note_off_c, 1, 75, 64
3, 196081, Note_on_c, 1, 87, 93
3, 196153, Note_off_c, 1, 87, 56
3, 196159, Note_on_c, 1, 89, 93
3, 196231, Note_off_c, 1, 89, 56
3, 196241, Note_on_c, 1, 91, 93
3, 196313, Note_off_c, 1, 91, 56
3, 196320, Note_on_c, 1, 84, 90
3, 196456, Note_off_c, 1, 84, 64
3, 198480, Note_on_c, 1, 76, 95
3, 198548, Note_off_c, 1, 76, 56
3, 198561, Note_on_c, 1, 77, 95
3, 198629, Note_off_c, 1, 77, 56
3, 198639, Note_on_c, 1, 79, 95
3, 198707, Note_off_c, 1, 79, 56
3, 198718, Note_on_c, 1, 80, 92
3, 198923, Note_off_c, 1, 80, 64
3, 199441, Note_on_c, 1, 77, 96
3, 199509, Note_off_c, 1, 77, 56
3, 199521, Note_on_c, 1, 79, 96
3, 199589, Note_off_c, 1, 79, 56
3, 199600, Note_on_c, 1, 80, 96
3, 199668, Note_off_c, 1, 80, 56
3, 199681, Note_on_c, 1, 82, 94
3, 199886, Note_off_c, 1, 82, 64
3, 200400, Note_on_c, 1, 79, 98
3, 200468, Note_off_c, 1, 79, 56
3, 200481, Note_on_c, 1, 80, 98
3, 200549, Note_off_c, 1, 80, 56
3, 200559, Note_on_c, 1, 82, 98
3, 200627, Note_off_c, 1, 82, 56
3, 200641, Note_on_c, 1, 84, 95
3, 200846, Note_off_c, 1, 84, 64
3, 201360, Note_on_c, 1, 80, 99
3, 201428, Note_off_c, 1, 80, 56
3, 201439, Note_on_c, 1, 82, 99
3, 201507, Note_off_c, 1, 82, 56
3, 201521, Note_on_c, 1, 84, 100
3, 201589, Note_off_c, 1, 84, 56
3, 201600, Note_on_c, 1, 86, 97
3, 201805, Note_off_c, 1, 86, 64
3, 202319, Note_on_c, 1, 83, 101
3, 202387, Note_off_c, 1, 83, 56
3, 202399, Note_on_c, 1, 84, 101
3, 202467, Note_off_c, 1, 84, 56
3, 202480, Note_on_c, 1, 86, 101
3, 202548, Note_off_c, 1, 86, 56
3, 202563, Note_on_c, 1, 87, 98
3, 202768, Note_off_c, 1, 87, 64
3, 203281, Note_on_c, 1, 84, 103
3, 203349, Note_off_c, 1, 84, 56
3, 203361, Note_on_c, 1, 86, 104
3, 203429, Note_off_c, 1, 86, 56
3, 203441, Note_on_c, 1, 87, 104
3, 203509, Note_off_c, 1, 87, 56
3, 203517, Note_on_c, 1, 89, 101
3, 203722, Note_off_c, 1, 89, 64
3, 204241, Note_on_c, 1, 86, 105
3, 204309, Note_off_c, 1, 86, 56
3, 204319, Note_on_c, 1, 87, 105
3, 204387, Note_off_c, 1, 87, 56
3, 204399, Note_on_c, 1, 89, 105
3, 204467, Note_off_c, 1, 89, 56
3, 204480, Note_on_c, 1, 91, 102
3, 204685, Note_off_c, 1, 91, 64
3, 205199, Note_on_c, 1, 87, 107
3, 205267, Note_off_c, 1, 87, 56
3, 205279, Note_on_c, 1, 89, 107
3, 205347, Note_off_c, 1, 89, 56
3, 205361, Note_on_c, 1, 91, 107
3, 205429, Note_off_c, 1, 91, 56
3, 205679, Note_on_c, 1, 86, 107
3, 205747, Note_off_c, 1, 86, 56
3, 205761, Note_on_c, 1, 88, 107
3, 205829, Note_off_c, 1, 88, 56
3, 205839, Note_on_c, 1, 90, 108
3, 205907, Note_off_c, 1, 90, 56
3, 206161, Note_on_c, 1, 86, 108
3, 206229, Note_off_c, 1, 86, 56
3, 206239, Note_on_c, 1, 88, 108
3, 206307, Note_off_c, 1, 88, 56
3, 206319, Note_on_c, 1, 90, 108
3, 206387, Note_off_c, 1, 90, 56
3, 206640, Note_on_c, 1, 86, 109
3, 206708, Note_off_c, 1, 86, 56
3, 206721, Note_on_c, 1, 88, 109
3, 206789, Note_off_c, 1, 88, 56
3, 206801, Note_on_c, 1, 90, 109
3, 206869, Note_off_c, 1, 90, 56
3, 207120, Note_on_c, 1, 86, 111
3, 207188, Note_off_c, 1, 86, 56
3, 207200, Note_on_c, 1, 88, 111
3, 207268, Note_off_c, 1, 88, 56
3, 207281, Note_on_c, 1, 90, 111
3, 207349, Note_off_c, 1, 90, 56
3, 207359, Note_on_c, 1, 91, 108
3, 208007, Note_off_c, 1, 91, 64
3, 208078, Note_on_c, 1, 84, 108
3, 208283, Note_off_c, 1, 84, 64
3, 208317, Note_on_c, 1, 83, 108
3, 208749, Note_off_c, 1, 83, 64
3, 208797, Note_on_c, 1, 84, 108
3, 209229, Note_off_c, 1, 84, 64
3, 209280, Note_on_c, 1, 86, 108
3, 209928, Note_off_c, 1, 86, 64
3, 210003, Note_on_c, 1, 86, 108
3, 210208, Note_off_c, 1, 86, 64
3, 210240, Note_on_c, 1, 84, 108
3, 210672, Note_off_c, 1, 84, 64
3, 210722, Note_on_c, 1, 86, 108
3, 211154, Note_off_c, 1, 86, 64
3, 211201, Note_on_c, 1, 88, 108
3, 211849, Note_off_c, 1, 88, 64
3, 211921, Note_on_c, 1, 88, 108
3, 212126, Note_off_c, 1, 88, 64
3, 212157, Note_on_c, 1, 86, 108
3, 212589, Note_off_c, 1, 86, 64
3, 212642, Note_on_c, 1, 88, 108
3, 213074, Note_off_c, 1, 88, 64
3, 213123, Note_on_c, 1, 89, 108
3, 213771, Note_off_c, 1, 89, 64
3, 213839, Note_on_c, 1, 89, 108
3, 214044, Note_off_c, 1, 89, 64
3, 214082, Note_on_c, 1, 88, 108
3, 214514, Note_off_c, 1, 88, 64
3, 214561, Note_on_c, 1, 89, 108
3, 214993, Note_off_c, 1, 89, 64
3, 215042, Note_on_c, 1, 91, 108
3, 215906, Note_off_c, 1, 91, 64
3, 216001, Note_on_c, 1, 92, 108
3, 216865, Note_off_c, 1, 92, 64
3, 216961, Note_on_c, 1, 93, 108
3, 218785, Note_off_c, 1, 93, 64
3, 218883, Note_on_c, 1, 95, 108
3, 219747, Note_off_c, 1, 95, 64
3, 219838, Note_on_c, 1, 95, 108
3, 220702, Note_off_c, 1, 95, 64
3, 220803, Note_on_c, 1, 95, 108
3, 221008, Note_off_c, 1, 95, 64
3, 221040, Note_on_c, 1, 95, 111
3, 221131, Note_off_c, 1, 95, 56
3, 221159, Note_on_c, 1, 95, 111
3, 221250, Note_off_c, 1, 95, 56
3, 221283, Note_on_c, 1, 95, 108
3, 221488, Note_off_c, 1, 95, 64
3, 221521, Note_on_c, 1, 95, 111
3, 221612, Note_off_c, 1, 95, 56
3, 221641, Note_on_c, 1, 95, 111
3, 221732, Note_off_c, 1, 95, 56
3, 221763, Note_on_c, 1, 95, 108
3, 221968, Note_off_c, 1, 95, 64
3, 221999, Note_on_c, 1, 95, 111
3, 222090, Note_off_c, 1, 95, 56
3, 222119, Note_on_c, 1, 95, 111
3, 222210, Note_off_c, 1, 95, 56
3, 222238, Note_on_c, 1, 95, 108
3, 222443, Note_off_c, 1, 95, 64
3, 222480, Note_on_c, 1, 95, 111
3, 222571, Note_off_c, 1, 95, 56
3, 222599, Note_on_c, 1, 95, 111
3, 222690, Note_off_c, 1, 95, 56
3, 222721, Note_on_c, 1, 95, 108
3, 222926, Note_off_c, 1, 95, 64
3, 222959, Note_on_c, 1, 95, 111
3, 223050, Note_off_c, 1, 95, 56
3, 223079, Note_on_c, 1, 95, 111
3, 223170, Note_off_c, 1, 95, 56
3, 223198, Note_on_c, 1, 95, 108
3, 223403, Note_off_c, 1, 95, 64
3, 223440, Note_on_c, 1, 95, 111
3, 223531, Note_off_c, 1, 95, 56
3, 223561, Note_on_c, 1, 95, 111
3, 223652, Note_off_c, 1, 95, 56
3, 223682, Note_on_c, 1, 95, 108
3, 223887, Note_off_c, 1, 95, 64
3, 223921, Note_on_c, 1, 95, 111
3, 224012, Note_off_c, 1, 95, 56
3, 224040, Note_on_c, 1, 95, 111
3, 224131, Note_off_c, 1, 95, 56
3, 224162, Note_on_c, 1, 95, 108
3, 224367, Note_off_c, 1, 95, 64
3, 224400, Note_on_c, 1, 95, 111
3, 224491, Note_off_c, 1, 95, 56
3, 224520, Note_on_c, 1, 95, 111
3, 224611, Note_off_c, 1, 95, 56
3, 224637, Note_on_c, 1, 95, 108
3, 227421, Note_off_c, 1, 95, 64
3, 227519, Note_on_c, 1, 91, 108
3, 227724, Note_off_c, 1, 91, 64
3, 255597, Note_on_c, 1, 89, 73
3, 256965, Note_off_c, 1, 89, 64
3, 257041, Note_on_c, 1, 86, 73
3, 258409, Note_off_c, 1, 86, 64
3, 258479, Note_on_c, 1, 83, 73
3, 259847, Note_off_c, 1, 83, 64
3, 259919, Note_on_c, 1, 86, 73
3, 261287, Note_off_c, 1, 86, 64
3, 261362, Note_on_c, 1, 89, 73
3, 262730, Note_off_c, 1, 89, 64
3, 262800, Note_on_c, 1, 86, 73
3, 263448, Note_off_c, 1, 86, 64
3, 263520, Note_on_c, 1, 83, 73
3, 264168, Note_off_c, 1, 83, 64
3, 264241, Note_on_c, 1, 86, 73
3, 264889, Note_off_c, 1, 86, 64
3, 264958, Note_on_c, 1, 89, 85
3, 265606, Note_off_c, 1, 89, 64
3, 265680, Note_on_c, 1, 83, 96
3, 266328, Note_off_c, 1, 83, 64
3, 266398, Note_on_c, 1, 84, 108
3, 266534, Note_off_c, 1, 84, 64
3, 266881, Note_on_c, 1, 88, 108
3, 267017, Note_off_c, 1, 88, 64
3, 267361, Note_on_c, 1, 91, 108
3, 268009, Note_off_c, 1, 91, 64
3, 268078, Note_on_c, 1, 89, 111
3, 268180, Note_off_c, 1, 89, 56
3, 268318, Note_on_c, 1, 88, 111
3, 268420, Note_off_c, 1, 88, 56
3, 268560, Note_on_c, 1, 86, 111
3, 268662, Note_off_c, 1, 86, 56
3, 268800, Note_on_c, 1, 84, 111
3, 268902, Note_off_c, 1, 84, 56
3, 269042, Note_on_c, 1, 86, 111
3, 269144, Note_off_c, 1, 86, 56
3, 269280, Note_on_c, 1, 84, 108
3, 269928, Note_off_c, 1, 84, 64
3, 269999, Note_on_c, 1, 84, 108
3, 270152, Note_off_c, 1, 84, 64
3, 270181, Note_on_c, 1, 84, 114
3, 270232, Note_off_c, 1, 84, 56
3, 270241, Note_on_c, 1, 86, 108
3, 270889, Note_off_c, 1, 86, 64
3, 270958, Note_on_c, 1, 86, 108
3, 271111, Note_off_c, 1, 86, 64
3, 271140, Note_on_c, 1, 86, 114
3, 271191, Note_off_c, 1, 86, 56
3, 271201, Note_on_c, 1, 88, 108
3, 271789, Note_off_c, 1, 88, 64
3, 271801, Note_on_c, 1, 72, 111
3, 271869, Note_off_c, 1, 72, 56
3, 271920, Note_on_c, 1, 74, 111
3, 271988, Note_off_c, 1, 74, 56
3, 272039, Note_on_c, 1, 76, 111
3, 272107, Note_off_c, 1, 76, 56
3, 272160, Note_on_c, 1, 77, 111
3, 272228, Note_off_c, 1, 77, 56
3, 272280, Note_on_c, 1, 76, 111
3, 272348, Note_off_c, 1, 76, 56
3, 272400, Note_on_c, 1, 77, 111
3, 272468, Note_off_c, 1, 77, 56
3, 272521, Note_on_c, 1, 79, 111
3, 272589, Note_off_c, 1, 79, 56
3, 272640, Note_on_c, 1, 81, 111
3, 272708, Note_off_c, 1, 81, 56
3, 272759, Note_on_c, 1, 79, 111
3, 272827, Note_off_c, 1, 79, 56
3, 272881, Note_on_c, 1, 81, 111
3, 272949, Note_off_c, 1, 81, 56
3, 273001, Note_on_c, 1, 83, 111
3, 273069, Note_off_c, 1, 83, 56
3, 273123, Note_on_c, 1, 84, 108
3, 273711, Note_off_c, 1, 84, 64
3, 273720, Note_on_c, 1, 72, 111
3, 273788, Note_off_c, 1, 72, 56
3, 273841, Note_on_c, 1, 74, 111
3, 273909, Note_off_c, 1, 74, 56
3, 273960, Note_on_c, 1, 76, 111
3, 274028, Note_off_c, 1, 76, 56
3, 274080, Note_on_c, 1, 77, 111
3, 274148, Note_off_c, 1, 77, 56
3, 274200, Note_on_c, 1, 76, 111
3, 274268, Note_off_c, 1, 76, 56
3, 274319, Note_on_c, 1, 77, 111
3, 274387, Note_off_c, 1, 77, 56
3, 274439, Note_on_c, 1, 79, 111
3, 274507, Note_off_c, 1, 79, 56
3, 274561, Note_on_c, 1, 81, 111
3, 274629, Note_off_c, 1, 81, 56
3, 274679, Note_on_c, 1, 79, 111
3, 274747, Note_off_c, 1, 79, 56
3, 274801, Note_on_c, 1, 81, 111
3, 274869, Note_off_c, 1, 81, 56
3, 274920, Note_on_c, 1, 83, 111
3, 274988, Note_off_c, 1, 83, 56
3, 275043, Note_on_c, 1, 84, 108
3, 275631, Note_off_c, 1, 84, 64
3, 275641, Note_on_c, 1, 72, 111
3, 275709, Note_off_c, 1, 72, 56
3, 275759, Note_on_c, 1, 74, 111
3, 275827, Note_off_c, 1, 74, 56
3, 275881, Note_on_c, 1, 76, 111
3, 275949, Note_off_c, 1, 76, 56
3, 276000, Note_on_c, 1, 79, 114
3, 276017, Note_off_c, 1, 79, 56
3, 276030, Note_on_c, 1, 77, 114
3, 276081, Note_off_c, 1, 77, 56
3, 276119, Note_on_c, 1, 76, 111
3, 276187, Note_off_c, 1, 76, 56
3, 276239, Note_on_c, 1, 77, 111
3, 276307, Note_off_c, 1, 77, 56
3, 276361, Note_on_c, 1, 79, 111
3, 276429, Note_off_c, 1, 79, 56
3, 276480, Note_on_c, 1, 83, 114
3, 276497, Note_off_c, 1, 83, 56
3, 276509, Note_on_c, 1, 81, 114
3, 276560, Note_off_c, 1, 81, 56
3, 276600, Note_on_c, 1, 79, 111
3, 276668, Note_off_c, 1, 79, 56
3, 276721, Note_on_c, 1, 81, 111
3, 276789, Note_off_c, 1, 81, 56
3, 276839, Note_on_c, 1, 83, 111
3, 276907, Note_off_c, 1, 83, 56
3, 276960, Note_on_c, 1, 86, 114
3, 276977, Note_off_c, 1, 86, 56
3, 276991, Note_on_c, 1, 84, 114
3, 277042, Note_off_c, 1, 84, 56
3, 277081, Note_on_c, 1, 83, 111
3, 277149, Note_off_c, 1, 83, 56
3, 277201, Note_on_c, 1, 84, 111
3, 277269, Note_off_c, 1, 84, 56
3, 277321, Note_on_c, 1, 86, 111
3, 277389, Note_off_c, 1, 86, 56
3, 277437, Note_on_c, 1, 88, 108
3, 277642, Note_off_c, 1, 88, 64
3, 277680, Note_on_c, 1, 79, 111
3, 277782, Note_off_c, 1, 79, 56
3, 277860, Note_on_c, 1, 88, 114
3, 277911, Note_off_c, 1, 88, 56
3, 277921, Note_on_c, 1, 88, 111
3, 278029, Note_off_c, 1, 88, 56
3, 278038, Note_on_c, 1, 86, 111
3, 278140, Note_off_c, 1, 86, 56
3, 278161, Note_on_c, 1, 77, 111
3, 278263, Note_off_c, 1, 77, 56
3, 278341, Note_on_c, 1, 86, 114
3, 278392, Note_off_c, 1, 86, 56
3, 278400, Note_on_c, 1, 86, 111
3, 278508, Note_off_c, 1, 86, 56
3, 278520, Note_on_c, 1, 84, 111
3, 278622, Note_off_c, 1, 84, 56
3, 278639, Note_on_c, 1, 76, 111
3, 278741, Note_off_c, 1, 76, 56
3, 278819, Note_on_c, 1, 84, 114
3, 278870, Note_off_c, 1, 84, 56
3, 278878, Note_on_c, 1, 84, 111
3, 278986, Note_off_c, 1, 84, 56
3, 278999, Note_on_c, 1, 83, 111
3, 279101, Note_off_c, 1, 83, 56
3, 279120, Note_on_c, 1, 83, 108
3, 279552, Note_off_c, 1, 83, 64
3, 279600, Note_on_c, 1, 84, 111
3, 279702, Note_off_c, 1, 84, 56
3, 279780, Note_on_c, 1, 88, 114
3, 279831, Note_off_c, 1, 88, 56
3, 279840, Note_on_c, 1, 88, 111
3, 279948, Note_off_c, 1, 88, 56
3, 279960, Note_on_c, 1, 86, 111
3, 280062, Note_off_c, 1, 86, 56
3, 280081, Note_on_c, 1, 77, 111
3, 280183, Note_off_c, 1, 77, 56
3, 280260, Note_on_c, 1, 86, 114
3, 280311, Note_off_c, 1, 86, 56
3, 280319, Note_on_c, 1, 86, 111
3, 280427, Note_off_c, 1, 86, 56
3, 280439, Note_on_c, 1, 84, 111
3, 280541, Note_off_c, 1, 84, 56
3, 280560, Note_on_c, 1, 76, 111
3, 280662, Note_off_c, 1, 76, 56
3, 280740, Note_on_c, 1, 84, 114
3, 280791, Note_off_c, 1, 84, 56
3, 280798, Note_on_c, 1, 84, 111
3, 280906, Note_off_c, 1, 84, 56
3, 280921, Note_on_c, 1, 83, 111
3, 281023, Note_off_c, 1, 83, 56
3, 281038, Note_on_c, 1, 83, 108
3, 281470, Note_off_c, 1, 83, 64
3, 281519, Note_on_c, 1, 84, 111
3, 281587, Note_off_c, 1, 84, 56
3, 281700, Note_on_c, 1, 88, 114
3, 281734, Note_off_c, 1, 88, 56
3, 281760, Note_on_c, 1, 88, 111
3, 281828, Note_off_c, 1, 88, 56
3, 281940, Note_on_c, 1, 86, 114
3, 281974, Note_off_c, 1, 86, 56
3, 281999, Note_on_c, 1, 77, 111
3, 282067, Note_off_c, 1, 77, 56
3, 282180, Note_on_c, 1, 86, 114
3, 282214, Note_off_c, 1, 86, 56
3, 282239, Note_on_c, 1, 86, 111
3, 282307, Note_off_c, 1, 86, 56
3, 282420, Note_on_c, 1, 84, 114
3, 282454, Note_off_c, 1, 84, 56
3, 282481, Note_on_c, 1, 76, 111
3, 282549, Note_off_c, 1, 76, 56
3, 282660, Note_on_c, 1, 84, 114
3, 282694, Note_off_c, 1, 84, 56
3, 282719, Note_on_c, 1, 83, 111
3, 282787, Note_off_c, 1, 83, 56
3, 282900, Note_on_c, 1, 74, 114
3, 282951, Note_off_c, 1, 74, 56
3, 282962, Note_on_c, 1, 79, 108
3, 283394, Note_off_c, 1, 79, 64
3, 283441, Note_on_c, 1, 81, 114
3, 283495, Note_off_c, 1, 81, 56
3, 283501, Note_on_c, 1, 79, 114
3, 283555, Note_off_c, 1, 79, 56
3, 283559, Note_on_c, 1, 77, 114
3, 283613, Note_off_c, 1, 77, 56
3, 283619, Note_on_c, 1, 76, 114
3, 283673, Note_off_c, 1, 76, 56
3, 283680, Note_on_c, 1, 74, 111
3, 283782, Note_off_c, 1, 74, 56
3, 283861, Note_on_c, 1, 74, 114
3, 283912, Note_off_c, 1, 74, 56
3, 283920, Note_on_c, 1, 79, 108
3, 284352, Note_off_c, 1, 79, 64
3, 284400, Note_on_c, 1, 81, 114
3, 284454, Note_off_c, 1, 81, 56
3, 284459, Note_on_c, 1, 79, 114
3, 284513, Note_off_c, 1, 79, 56
3, 284520, Note_on_c, 1, 77, 114
3, 284574, Note_off_c, 1, 77, 56
3, 284579, Note_on_c, 1, 76, 114
3, 284630, Note_off_c, 1, 76, 56
3, 284642, Note_on_c, 1, 74, 111
3, 284744, Note_off_c, 1, 74, 56
3, 284820, Note_on_c, 1, 79, 114
3, 284871, Note_off_c, 1, 79, 56
3, 284881, Note_on_c, 1, 81, 114
3, 284935, Note_off_c, 1, 81, 56
3, 284939, Note_on_c, 1, 79, 114
3, 284993, Note_off_c, 1, 79, 56
3, 284999, Note_on_c, 1, 77, 114
3, 285053, Note_off_c, 1, 77, 56
3, 285059, Note_on_c, 1, 76, 114
3, 285113, Note_off_c, 1, 76, 56
3, 285122, Note_on_c, 1, 74, 111
3, 285224, Note_off_c, 1, 74, 56
3, 285300, Note_on_c, 1, 79, 114
3, 285351, Note_off_c, 1, 79, 56
3, 285361, Note_on_c, 1, 81, 114
3, 285415, Note_off_c, 1, 81, 56
3, 285420, Note_on_c, 1, 79, 114
3, 285474, Note_off_c, 1, 79, 56
3, 285480, Note_on_c, 1, 77, 114
3, 285534, Note_off_c, 1, 77, 56
3, 285541, Note_on_c, 1, 76, 114
3, 285595, Note_off_c, 1, 76, 56
3, 285602, Note_on_c, 1, 74, 111
3, 285704, Note_off_c, 1, 74, 56
3, 285781, Note_on_c, 1, 79, 114
3, 285832, Note_off_c, 1, 79, 56
3, 285840, Note_on_c, 1, 81, 114
3, 285894, Note_off_c, 1, 81, 56
3, 285900, Note_on_c, 1, 79, 114
3, 285954, Note_off_c, 1, 79, 56
3, 285960, Note_on_c, 1, 77, 114
3, 286014, Note_off_c, 1, 77, 56
3, 286021, Note_on_c, 1, 76, 114
3, 286075, Note_off_c, 1, 76, 56
3, 286078, Note_on_c, 1, 74, 111
3, 286186, Note_off_c, 1, 74, 56
3, 286261, Note_on_c, 1, 79, 114
3, 286312, Note_off_c, 1, 79, 56
3, 286320, Note_on_c, 1, 81, 114
3, 286374, Note_off_c, 1, 81, 56
3, 286380, Note_on_c, 1, 79, 114
3, 286434, Note_off_c, 1, 79, 56
3, 286441, Note_on_c, 1, 77, 114
3, 286495, Note_off_c, 1, 77, 56
3, 286499, Note_on_c, 1, 76, 114
3, 286553, Note_off_c, 1, 76, 56
3, 286560, Note_on_c, 1, 74, 111
3, 286662, Note_off_c, 1, 74, 56
3, 289081, Note_on_c, 1, 84, 111
3, 289189, Note_off_c, 1, 84, 56
3, 289200, Note_on_c, 1, 83, 111
3, 289302, Note_off_c, 1, 83, 56
3, 289320, Note_on_c, 1, 81, 111
3, 289388, Note_off_c, 1, 81, 56
3, 289440, Note_on_c, 1, 79, 111
3, 289508, Note_off_c, 1, 79, 56
3, 289561, Note_on_c, 1, 84, 111
3, 289629, Note_off_c, 1, 84, 56
3, 289682, Note_on_c, 1, 83, 111
3, 289784, Note_off_c, 1, 83, 56
3, 289800, Note_on_c, 1, 81, 111
3, 289902, Note_off_c, 1, 81, 56
3, 289921, Note_on_c, 1, 79, 111
3, 289989, Note_off_c, 1, 79, 56
3, 290041, Note_on_c, 1, 77, 111
3, 290109, Note_off_c, 1, 77, 56
3, 290160, Note_on_c, 1, 76, 111
3, 290228, Note_off_c, 1, 76, 56
3, 290279, Note_on_c, 1, 74, 111
3, 290347, Note_off_c, 1, 74, 56
3, 290401, Note_on_c, 1, 72, 108
3, 290606, Note_off_c, 1, 72, 64
3, 292322, Note_on_c, 1, 86, 108
3, 294146, Note_off_c, 1, 86, 64
3, 294238, Note_on_c, 1, 86, 108
3, 294443, Note_off_c, 1, 86, 64
3, 296163, Note_on_c, 1, 88, 108
3, 297987, Note_off_c, 1, 88, 64
3, 298082, Note_on_c, 1, 88, 108
3, 298287, Note_off_c, 1, 88, 64
3, 299039, Note_on_c, 1, 88, 108
3, 299244, Note_off_c, 1, 88, 64
3, 300002, Note_on_c, 1, 89, 108
3, 300207, Note_off_c, 1, 89, 64
3, 300958, Note_on_c, 1, 89, 108
3, 301163, Note_off_c, 1, 89, 64
3, 301922, Note_on_c, 1, 83, 108
3, 303314, Note_off_c, 1, 83, 64
3, 303361, Note_on_c, 1, 83, 108
3, 303566, Note_off_c, 1, 83, 64
3, 303599, Note_on_c, 1, 84, 108
3, 303752, Note_off_c, 1, 84, 64
3, 303780, Note_on_c, 1, 86, 114
3, 303831, Note_off_c, 1, 86, 56
3, 303842, Note_on_c, 1, 84, 108
3, 305234, Note_off_c, 1, 84, 64
3, 305282, Note_on_c, 1, 84, 108
3, 305487, Note_off_c, 1, 84, 64
3, 305520, Note_on_c, 1, 86, 108
3, 305673, Note_off_c, 1, 86, 64
3, 305699, Note_on_c, 1, 88, 114
3, 305750, Note_off_c, 1, 88, 56
3, 305762, Note_on_c, 1, 86, 108
3, 306194, Note_off_c, 1, 86, 64
3, 306237, Note_on_c, 1, 83, 108
3, 306561, Note_off_c, 1, 83, 64
3, 306600, Note_on_c, 1, 84, 114
3, 306651, Note_off_c, 1, 84, 56
3, 306661, Note_on_c, 1, 86, 114
3, 306712, Note_off_c, 1, 86, 56
3, 306720, Note_on_c, 1, 84, 108
3, 307152, Note_off_c, 1, 84, 64
3, 307197, Note_on_c, 1, 84, 108
3, 307521, Note_off_c, 1, 84, 64
3, 307561, Note_on_c, 1, 86, 114
3, 307612, Note_off_c, 1, 86, 56
3, 307621, Note_on_c, 1, 88, 114
3, 307672, Note_off_c, 1, 88, 56
3, 307682, Note_on_c, 1, 86, 111
3, 307784, Note_off_c, 1, 86, 56
3, 307797, Note_on_c, 1, 91, 108
3, 308265, Note_off_c, 1, 91, 64
3, 308278, Note_on_c, 1, 91, 108
3, 308746, Note_off_c, 1, 91, 64
3, 308761, Note_on_c, 1, 91, 108
3, 308966, Note_off_c, 1, 91, 64
3, 309000, Note_on_c, 1, 91, 111
3, 309102, Note_off_c, 1, 91, 56
3, 309120, Note_on_c, 1, 91, 111
3, 309188, Note_off_c, 1, 91, 56
3, 309242, Note_on_c, 1, 91, 111
3, 309350, Note_off_c, 1, 91, 56
3, 309359, Note_on_c, 1, 90, 111
3, 309461, Note_off_c, 1, 90, 56
3, 309478, Note_on_c, 1, 90, 111
3, 309580, Note_off_c, 1, 90, 56
3, 309599, Note_on_c, 1, 91, 111
3, 309667, Note_off_c, 1, 91, 56
3, 309721, Note_on_c, 1, 79, 111
3, 309829, Note_off_c, 1, 79, 56
3, 309839, Note_on_c, 1, 78, 111
3, 309941, Note_off_c, 1, 78, 56
3, 309960, Note_on_c, 1, 84, 111
3, 310028, Note_off_c, 1, 84, 56
3, 310082, Note_on_c, 1, 83, 111
3, 310184, Note_off_c, 1, 83, 56
3, 315121, Note_on_c, 1, 74, 96
3, 315181, Note_off_c, 1, 74, 56
3, 315200, Note_on_c, 1, 76, 96
3, 315260, Note_off_c, 1, 76, 56
3, 315281, Note_on_c, 1, 77, 96
3, 315341, Note_off_c, 1, 77, 56
3, 315357, Note_on_c, 1, 79, 90
3, 315562, Note_off_c, 1, 79, 64
3, 315601, Note_on_c, 1, 76, 96
3, 315661, Note_off_c, 1, 76, 56
3, 315681, Note_on_c, 1, 77, 96
3, 315741, Note_off_c, 1, 77, 56
3, 315761, Note_on_c, 1, 79, 96
3, 315821, Note_off_c, 1, 79, 56
3, 315837, Note_on_c, 1, 81, 90
3, 316042, Note_off_c, 1, 81, 64
3, 316080, Note_on_c, 1, 81, 96
3, 316140, Note_off_c, 1, 81, 56
3, 316159, Note_on_c, 1, 83, 96
3, 316219, Note_off_c, 1, 83, 56
3, 316239, Note_on_c, 1, 84, 96
3, 316299, Note_off_c, 1, 84, 56
3, 316317, Note_on_c, 1, 79, 90
3, 316965, Note_off_c, 1, 79, 64
3, 321841, Note_on_c, 1, 84, 59
3, 321913, Note_off_c, 1, 84, 56
3, 321921, Note_on_c, 1, 82, 59
3, 321993, Note_off_c, 1, 82, 56
3, 322001, Note_on_c, 1, 81, 59
3, 322073, Note_off_c, 1, 81, 56
3, 322083, Note_on_c, 1, 79, 62
3, 322947, Note_off_c, 1, 79, 64
3, 323043, Note_on_c, 1, 80, 85
3, 323907, Note_off_c, 1, 80, 64
3, 324001, Note_on_c, 1, 81, 108
3, 324589, Note_off_c, 1, 81, 64
3, 324599, Note_on_c, 1, 81, 111
3, 324701, Note_off_c, 1, 81, 56
3, 324718, Note_on_c, 1, 81, 111
3, 324820, Note_off_c, 1, 81, 56
3, 324842, Note_on_c, 1, 81, 111
3, 324944, Note_off_c, 1, 81, 56
3, 324962, Note_on_c, 1, 81, 111
3, 325064, Note_off_c, 1, 81, 56
3, 325082, Note_on_c, 1, 81, 111
3, 325184, Note_off_c, 1, 81, 56
3, 325201, Note_on_c, 1, 81, 111
3, 325303, Note_off_c, 1, 81, 56
3, 325322, Note_on_c, 1, 81, 111
3, 325424, Note_off_c, 1, 81, 56
3, 325440, Note_on_c, 1, 81, 111
3, 325542, Note_off_c, 1, 81, 56
3, 325558, Note_on_c, 1, 89, 111
3, 325660, Note_off_c, 1, 89, 56
3, 325680, Note_on_c, 1, 89, 111
3, 325782, Note_off_c, 1, 89, 56
3, 325800, Note_on_c, 1, 89, 111
3, 325902, Note_off_c, 1, 89, 56
3, 325917, Note_on_c, 1, 89, 108
3, 326122, Note_off_c, 1, 89, 64
3, 326158, Note_on_c, 1, 78, 108
3, 326363, Note_off_c, 1, 78, 64
3, 326398, Note_on_c, 1, 79, 108
3, 326603, Note_off_c, 1, 79, 64
3, 326640, Note_on_c, 1, 80, 108
3, 326845, Note_off_c, 1, 80, 64
3, 326883, Note_on_c, 1, 81, 108
3, 327088, Note_off_c, 1, 81, 64
3, 327120, Note_on_c, 1, 83, 108
3, 327325, Note_off_c, 1, 83, 64
3, 327359, Note_on_c, 1, 84, 114
3, 327410, Note_off_c, 1, 84, 56
3, 327420, Note_on_c, 1, 83, 114
3, 327471, Note_off_c, 1, 83, 56
3, 327481, Note_on_c, 1, 81, 114
3, 327532, Note_off_c, 1, 81, 56
3, 327541, Note_on_c, 1, 79, 114
3, 327592, Note_off_c, 1, 79, 56
3, 327600, Note_on_c, 1, 77, 114
3, 327651, Note_off_c, 1, 77, 56
3, 327661, Note_on_c, 1, 76, 114
3, 327712, Note_off_c, 1, 76, 56
3, 327720, Note_on_c, 1, 74, 114
3, 327771, Note_off_c, 1, 74, 56
3, 327779, Note_on_c, 1, 72, 114
3, 327830, Note_off_c, 1, 72, 56
3, 327840, Note_on_c, 1, 86, 108
3, 327976, Note_off_c, 1, 86, 64
3, 328799, Note_on_c, 1, 86, 108
3, 328935, Note_off_c, 1, 86, 64
3, 334801, Note_on_c, 1, 82, 73
3, 335006, Note_off_c, 1, 82, 64
3, 335042, Note_on_c, 1, 82, 73
3, 335247, Note_off_c, 1, 82, 64
3, 335278, Note_on_c, 1, 82, 73
3, 335483, Note_off_c, 1, 82, 64
3, 335519, Note_on_c, 1, 81, 73
3, 335951, Note_off_c, 1, 81, 64
3, 335998, Note_on_c, 1, 81, 73
3, 336397, Note_off_c, 1, 81, 64
3, 336420, Note_on_c, 1, 77, 79
3, 336474, Note_off_c, 1, 77, 56
3, 336480, Note_on_c, 1, 76, 73
3, 336936, Note_off_c, 1, 76, 64
3, 336957, Note_on_c, 1, 77, 73
3, 337356, Note_off_c, 1, 77, 64
3, 337380, Note_on_c, 1, 74, 79
3, 337431, Note_off_c, 1, 74, 56
3, 337437, Note_on_c, 1, 84, 90
3, 338085, Note_off_c, 1, 84, 64
3, 338158, Note_on_c, 1, 83, 90
3, 338363, Note_off_c, 1, 83, 64
3, 338402, Note_on_c, 1, 81, 90
3, 338607, Note_off_c, 1, 81, 64
3, 338639, Note_on_c, 1, 79, 90
3, 338844, Note_off_c, 1, 79, 64
3, 338879, Note_on_c, 1, 79, 90
3, 339084, Note_off_c, 1, 79, 64
3, 339120, Note_on_c, 1, 79, 90
3, 339325, Note_off_c, 1, 79, 64
3, 339363, Note_on_c, 1, 84, 96
3, 340011, Note_off_c, 1, 84, 64
3, 340080, Note_on_c, 1, 83, 90
3, 340285, Note_off_c, 1, 83, 64
3, 340321, Note_on_c, 1, 81, 90
3, 340526, Note_off_c, 1, 81, 64
3, 340560, Note_on_c, 1, 79, 90
3, 340765, Note_off_c, 1, 79, 64
3, 340799, Note_on_c, 1, 79, 90
3, 341004, Note_off_c, 1, 79, 64
3, 341043, Note_on_c, 1, 79, 90
3, 341248, Note_off_c, 1, 79, 64
3, 341277, Note_on_c, 1, 89, 96
3, 341925, Note_off_c, 1, 89, 64
3, 341999, Note_on_c, 1, 88, 90
3, 342204, Note_off_c, 1, 88, 64
3, 342241, Note_on_c, 1, 86, 90
3, 342446, Note_off_c, 1, 86, 64
3, 342483, Note_on_c, 1, 85, 92
3, 342688, Note_off_c, 1, 85, 64
3, 342718, Note_on_c, 1, 85, 93
3, 342923, Note_off_c, 1, 85, 64
3, 342957, Note_on_c, 1, 85, 95
3, 343162, Note_off_c, 1, 85, 64
3, 343201, Note_on_c, 1, 85, 96
3, 343406, Note_off_c, 1, 85, 64
3, 343443, Note_on_c, 1, 88, 97
3, 343648, Note_off_c, 1, 88, 64
3, 343682, Note_on_c, 1, 88, 98
3, 343887, Note_off_c, 1, 88, 64
3, 343920, Note_on_c, 1, 88, 101
3, 344125, Note_off_c, 1, 88, 64
3, 344160, Note_on_c, 1, 88, 102
3, 344365, Note_off_c, 1, 88, 64
3, 344403, Note_on_c, 1, 91, 103
3, 344608, Note_off_c, 1, 91, 64
3, 344641, Note_on_c, 1, 91, 104
3, 344846, Note_off_c, 1, 91, 64
3, 344879, Note_on_c, 1, 91, 106
3, 345084, Note_off_c, 1, 91, 64
3, 345119, Note_on_c, 1, 91, 108
3, 345983, Note_off_c, 1, 91, 64
3, 346080, Note_on_c, 1, 89, 108
3, 346944, Note_off_c, 1, 89, 64
3, 347037, Note_on_c, 1, 89, 108
3, 347901, Note_off_c, 1, 89, 64
3, 348003, Note_on_c, 1, 87, 108
3, 349827, Note_off_c, 1, 87, 64
3, 349921, Note_on_c, 1, 88, 108
3, 350569, Note_off_c, 1, 88, 64
3, 354959, Note_on_c, 1, 83, 93
3, 355031, Note_off_c, 1, 83, 56
3, 355039, Note_on_c, 1, 84, 93
3, 355111, Note_off_c, 1, 84, 56
3, 355119, Note_on_c, 1, 86, 93
3, 355191, Note_off_c, 1, 86, 56
3, 355441, Note_on_c, 1, 84, 93
3, 355513, Note_off_c, 1, 84, 56
3, 355520, Note_on_c, 1, 86, 93
3, 355592, Note_off_c, 1, 86, 56
3, 355600, Note_on_c, 1, 88, 93
3, 355672, Note_off_c, 1, 88, 56
3, 355920, Note_on_c, 1, 86, 93
3, 355992, Note_off_c, 1, 86, 56
3, 355999, Note_on_c, 1, 88, 93
3, 356071, Note_off_c, 1, 88, 56
3, 356079, Note_on_c, 1, 89, 93
3, 356151, Note_off_c, 1, 89, 56
3, 356880, Note_on_c, 1, 84, 93
3, 356952, Note_off_c, 1, 84, 56
3, 356961, Note_on_c, 1, 86, 93
3, 357033, Note_off_c, 1, 86, 56
3, 357039, Note_on_c, 1, 88, 93
3, 357111, Note_off_c, 1, 88, 56
3, 357361, Note_on_c, 1, 86, 93
3, 357433, Note_off_c, 1, 86, 56
3, 357440, Note_on_c, 1, 88, 93
3, 357512, Note_off_c, 1, 88, 56
3, 357520, Note_on_c, 1, 89, 93
3, 357592, Note_off_c, 1, 89, 56
3, 357841, Note_on_c, 1, 88, 93
3, 357913, Note_off_c, 1, 88, 56
3, 357919, Note_on_c, 1, 89, 93
3, 357991, Note_off_c, 1, 89, 56
3, 358001, Note_on_c, 1, 91, 93
3, 358073, Note_off_c, 1, 91, 56
3, 358319, Note_on_c, 1, 88, 90
3, 358524, Note_off_c, 1, 88, 64
3, 358563, Note_on_c, 1, 86, 93
3, 358995, Note_off_c, 1, 86, 64
3, 359040, Note_on_c, 1, 88, 95
3, 359472, Note_off_c, 1, 88, 64
3, 359522, Note_on_c, 1, 89, 97
3, 360170, Note_off_c, 1, 89, 64
3, 360239, Note_on_c, 1, 89, 101
3, 360444, Note_off_c, 1, 89, 64
3, 360482, Note_on_c, 1, 88, 103
3, 360914, Note_off_c, 1, 88, 64
3, 360960, Note_on_c, 1, 89, 105
3, 361392, Note_off_c, 1, 89, 64
3, 361443, Note_on_c, 1, 91, 108
3, 363267, Note_off_c, 1, 91, 64
3, 363359, Note_on_c, 1, 93, 108
3, 363947, Note_off_c, 1, 93, 64
3, 363959, Note_on_c, 1, 93, 111
3, 364061, Note_off_c, 1, 93, 56
3, 364081, Note_on_c, 1, 93, 111
3, 364183, Note_off_c, 1, 93, 56
3, 364198, Note_on_c, 1, 93, 111
3, 364300, Note_off_c, 1, 93, 56
3, 364320, Note_on_c, 1, 93, 108
3, 364908, Note_off_c, 1, 93, 64
3, 364920, Note_on_c, 1, 93, 111
3, 365022, Note_off_c, 1, 93, 56
3, 365042, Note_on_c, 1, 93, 111
3, 365144, Note_off_c, 1, 93, 56
3, 365158, Note_on_c, 1, 93, 111
3, 365260, Note_off_c, 1, 93, 56
3, 365282, Note_on_c, 1, 93, 108
3, 365487, Note_off_c, 1, 93, 64
3, 365521, Note_on_c, 1, 93, 111
3, 365623, Note_off_c, 1, 93, 56
3, 365641, Note_on_c, 1, 93, 111
3, 365743, Note_off_c, 1, 93, 56
3, 365761, Note_on_c, 1, 93, 111
3, 365863, Note_off_c, 1, 93, 56
3, 365880, Note_on_c, 1, 93, 111
3, 365982, Note_off_c, 1, 93, 56
3, 365998, Note_on_c, 1, 93, 111
3, 366100, Note_off_c, 1, 93, 56
3, 366120, Note_on_c, 1, 93, 111
3, 366222, Note_off_c, 1, 93, 56
3, 366239, Note_on_c, 1, 93, 111
3, 366341, Note_off_c, 1, 93, 56
3, 366362, Note_on_c, 1, 93, 111
3, 366464, Note_off_c, 1, 93, 56
3, 366479, Note_on_c, 1, 93, 111
3, 366581, Note_off_c, 1, 93, 56
3, 366598, Note_on_c, 1, 93, 111
3, 366700, Note_off_c, 1, 93, 56
3, 366720, Note_on_c, 1, 93, 111
3, 366822, Note_off_c, 1, 93, 56
3, 366840, Note_on_c, 1, 93, 111
3, 366942, Note_off_c, 1, 93, 56
3, 366962, Note_on_c, 1, 93, 111
3, 367064, Note_off_c, 1, 93, 56
3, 367080, Note_on_c, 1, 93, 111
3, 367182, Note_off_c, 1, 93, 56
3, 367201, Note_on_c, 1, 91, 108
3, 367337, Note_off_c, 1, 91, 64
3, 368158, Note_on_c, 1, 91, 108
3, 368294, Note_off_c, 1, 91, 64
3, 369118, Note_on_c, 1, 88, 108
3, 369254, Note_off_c, 1, 88, 64
3, 370080, Note_on_c, 1, 91, 108
3, 370216, Note_off_c, 1, 91, 64
3, 371042, Note_on_c, 1, 88, 108
3, 371178, Note_off_c, 1, 88, 64
3, 372002, Note_on_c, 1, 91, 108
3, 372138, Note_off_c, 1, 91, 64
3, 376561, Note_on_c, 1, 79, 73
3, 376777, Note_off_c, 1, 79, 64
3, 376798, Note_on_c, 1, 83, 74
3, 377014, Note_off_c, 1, 83, 64
3, 377038, Note_on_c, 1, 79, 75
3, 377254, Note_off_c, 1, 79, 64
3, 377283, Note_on_c, 1, 86, 75
3, 377499, Note_off_c, 1, 86, 64
3, 377521, Note_on_c, 1, 84, 77
3, 377683, Note_off_c, 1, 84, 64
3, 377701, Note_on_c, 1, 83, 84
3, 377752, Note_off_c, 1, 83, 56
3, 377763, Note_on_c, 1, 84, 78
3, 377979, Note_off_c, 1, 84, 64
3, 377999, Note_on_c, 1, 79, 79
3, 378215, Note_off_c, 1, 79, 64
3, 378242, Note_on_c, 1, 88, 79
3, 378458, Note_off_c, 1, 88, 64
3, 378479, Note_on_c, 1, 86, 80
3, 378641, Note_off_c, 1, 86, 64
3, 378659, Note_on_c, 1, 84, 86
3, 378713, Note_off_c, 1, 84, 56
3, 378719, Note_on_c, 1, 83, 81
3, 378935, Note_off_c, 1, 83, 64
3, 378959, Note_on_c, 1, 79, 81
3, 379175, Note_off_c, 1, 79, 64
3, 379202, Note_on_c, 1, 86, 82
3, 379418, Note_off_c, 1, 86, 64
3, 379441, Note_on_c, 1, 84, 83
3, 379603, Note_off_c, 1, 84, 64
3, 379620, Note_on_c, 1, 83, 89
3, 379671, Note_off_c, 1, 83, 56
3, 379678, Note_on_c, 1, 84, 83
3, 379894, Note_off_c, 1, 84, 64
3, 379923, Note_on_c, 1, 79, 85
3, 380139, Note_off_c, 1, 79, 64
3, 380159, Note_on_c, 1, 88, 86
3, 380375, Note_off_c, 1, 88, 64
3, 380401, Note_on_c, 1, 86, 86
3, 380563, Note_off_c, 1, 86, 64
3, 380579, Note_on_c, 1, 84, 93
3, 380630, Note_off_c, 1, 84, 56
3, 380638, Note_on_c, 1, 83, 87
3, 380854, Note_off_c, 1, 83, 64
3, 380878, Note_on_c, 1, 79, 88
3, 381094, Note_off_c, 1, 79, 64
3, 381117, Note_on_c, 1, 86, 89
3, 381333, Note_off_c, 1, 86, 64
3, 381361, Note_on_c, 1, 84, 89
3, 381523, Note_off_c, 1, 84, 64
3, 381539, Note_on_c, 1, 83, 96
3, 381590, Note_off_c, 1, 83, 56
3, 381599, Note_on_c, 1, 84, 90
3, 381815, Note_off_c, 1, 84, 64
3, 381842, Note_on_c, 1, 83, 90
3, 382058, Note_off_c, 1, 83, 64
3, 382078, Note_on_c, 1, 81, 90
3, 382294, Note_off_c, 1, 81, 64
3, 382317, Note_on_c, 1, 91, 90
3, 382533, Note_off_c, 1, 91, 64
3, 382559, Note_on_c, 1, 89, 90
3, 382775, Note_off_c, 1, 89, 64
3, 382798, Note_on_c, 1, 88, 90
3, 383014, Note_off_c, 1, 88, 64
3, 383041, Note_on_c, 1, 86, 90
3, 383257, Note_off_c, 1, 86, 64
3, 383282, Note_on_c, 1, 85, 90
3, 383487, Note_off_c, 1, 85, 64
3, 383518, Note_on_c, 1, 86, 90
3, 384166, Note_off_c, 1, 86, 64
3, 384242, Note_on_c, 1, 88, 90
3, 384378, Note_off_c, 1, 88, 64
3, 384480, Note_on_c, 1, 89, 90
3, 385128, Note_off_c, 1, 89, 64
3, 385198, Note_on_c, 1, 88, 90
3, 385334, Note_off_c, 1, 88, 64
3, 385437, Note_on_c, 1, 86, 90
3, 385869, Note_off_c, 1, 86, 64
3, 386162, Note_on_c, 1, 88, 90
3, 386298, Note_off_c, 1, 88, 64
3, 386397, Note_on_c, 1, 89, 90
3, 387045, Note_off_c, 1, 89, 64
3, 387119, Note_on_c, 1, 89, 90
3, 387255, Note_off_c, 1, 89, 64
3, 387358, Note_on_c, 1, 91, 90
3, 387563, Note_off_c, 1, 91, 64
3, 387839, Note_on_c, 1, 88, 73
3, 388044, Note_off_c, 1, 88, 64
3, 388322, Note_on_c, 1, 89, 73
3, 388527, Note_off_c, 1, 89, 64
3, 388803, Note_on_c, 1, 86, 73
3, 389008, Note_off_c, 1, 86, 64
3, 393360, Note_on_c, 1, 71, 83
3, 393387, Note_off_c, 1, 71, 56
3, 393390, Note_on_c, 1, 72, 83
3, 393417, Note_off_c, 1, 72, 56
3, 393419, Note_on_c, 1, 74, 77
3, 393609, Note_off_c, 1, 74, 64
3, 393870, Note_on_c, 1, 71, 84
3, 393897, Note_off_c, 1, 71, 56
3, 393900, Note_on_c, 1, 72, 84
3, 393927, Note_off_c, 1, 72, 56
3, 393932, Note_on_c, 1, 74, 79
3, 394122, Note_off_c, 1, 74, 64
3, 394320, Note_on_c, 1, 72, 86
3, 394347, Note_off_c, 1, 72, 56
3, 394350, Note_on_c, 1, 74, 86
3, 394377, Note_off_c, 1, 74, 56
3, 394378, Note_on_c, 1, 76, 80
3, 394568, Note_off_c, 1, 76, 64
3, 394830, Note_on_c, 1, 72, 87
3, 394857, Note_off_c, 1, 72, 56
3, 394860, Note_on_c, 1, 74, 87
3, 394887, Note_off_c, 1, 74, 56
3, 394892, Note_on_c, 1, 76, 81
3, 395082, Note_off_c, 1, 76, 64
3, 395280, Note_on_c, 1, 83, 88
3, 395307, Note_off_c, 1, 83, 56
3, 395310, Note_on_c, 1, 84, 88
3, 395337, Note_off_c, 1, 84, 56
3, 395343, Note_on_c, 1, 86, 82
3, 395533, Note_off_c, 1, 86, 64
3, 395790, Note_on_c, 1, 83, 89
3, 395817, Note_off_c, 1, 83, 56
3, 395820, Note_on_c, 1, 84, 89
3, 395847, Note_off_c, 1, 84, 56
3, 395851, Note_on_c, 1, 86, 85
3, 396041, Note_off_c, 1, 86, 64
3, 396240, Note_on_c, 1, 84, 92
3, 396267, Note_off_c, 1, 84, 56
3, 396270, Note_on_c, 1, 86, 92
3, 396297, Note_off_c, 1, 86, 56
3, 396302, Note_on_c, 1, 88, 86
3, 396492, Note_off_c, 1, 88, 64
3, 396750, Note_on_c, 1, 84, 93
3, 396777, Note_off_c, 1, 84, 56
3, 396780, Note_on_c, 1, 86, 93
3, 396807, Note_off_c, 1, 86, 56
3, 396807, Note_on_c, 1, 88, 87
3, 396997, Note_off_c, 1, 88, 64
3, 397200, Note_on_c, 1, 83, 94
3, 397227, Note_off_c, 1, 83, 56
3, 397230, Note_on_c, 1, 84, 94
3, 397257, Note_off_c, 1, 84, 56
3, 397259, Note_on_c, 1, 86, 88
3, 397449, Note_off_c, 1, 86, 64
3, 397710, Note_on_c, 1, 83, 95
3, 397737, Note_off_c, 1, 83, 56
3, 397740, Note_on_c, 1, 84, 95
3, 397767, Note_off_c, 1, 84, 56
3, 397771, Note_on_c, 1, 86, 90
3, 397920, Note_on_c, 1, 84, 90
3, 397961, Note_off_c, 1, 86, 64
3, 398136, Note_off_c, 1, 84, 64
3, 398157, Note_on_c, 1, 83, 90
3, 398373, Note_off_c, 1, 83, 64
3, 398399, Note_on_c, 1, 81, 90
3, 398615, Note_off_c, 1, 81, 64
3, 398637, Note_on_c, 1, 91, 90
3, 398853, Note_off_c, 1, 91, 64
3, 398881, Note_on_c, 1, 89, 90
3, 399097, Note_off_c, 1, 89, 64
3, 399117, Note_on_c, 1, 88, 90
3, 399333, Note_off_c, 1, 88, 64
3, 399361, Note_on_c, 1, 86, 90
3, 399577, Note_off_c, 1, 86, 64
3, 399601, Note_on_c, 1, 85, 90
3, 399806, Note_off_c, 1, 85, 64
3, 399842, Note_on_c, 1, 86, 90
3, 400490, Note_off_c, 1, 86, 64
3, 400559, Note_on_c, 1, 88, 90
3, 400764, Note_off_c, 1, 88, 64
3, 400800, Note_on_c, 1, 89, 90
3, 401448, Note_off_c, 1, 89, 64
3, 401519, Note_on_c, 1, 87, 90
3, 401655, Note_off_c, 1, 87, 64
3, 401760, Note_on_c, 1, 86, 90
3, 402408, Note_off_c, 1, 86, 64
3, 402478, Note_on_c, 1, 87, 90
3, 402614, Note_off_c, 1, 87, 64
3, 402720, Note_on_c, 1, 89, 90
3, 403368, Note_off_c, 1, 89, 64
3, 403442, Note_on_c, 1, 89, 90
3, 403578, Note_off_c, 1, 89, 64
3, 403678, Note_on_c, 1, 88, 76
3, 403780, Note_off_c, 1, 88, 56
3, 403800, Note_on_c, 1, 84, 76
3, 403902, Note_off_c, 1, 84, 56
3, 403921, Note_on_c, 1, 84, 76
3, 404023, Note_off_c, 1, 84, 56
3, 404039, Note_on_c, 1, 84, 76
3, 404141, Note_off_c, 1, 84, 56
3, 404282, Note_on_c, 1, 84, 77
3, 404384, Note_off_c, 1, 84, 56
3, 404402, Note_on_c, 1, 84, 77
3, 404504, Note_off_c, 1, 84, 56
3, 404519, Note_on_c, 1, 84, 77
3, 404621, Note_off_c, 1, 84, 56
3, 404758, Note_on_c, 1, 84, 77
3, 404860, Note_off_c, 1, 84, 56
3, 404881, Note_on_c, 1, 84, 78
3, 404983, Note_off_c, 1, 84, 56
3, 405002, Note_on_c, 1, 84, 78
3, 405104, Note_off_c, 1, 84, 56
3, 405238, Note_on_c, 1, 84, 78
3, 405340, Note_off_c, 1, 84, 56
3, 405362, Note_on_c, 1, 84, 78
3, 405464, Note_off_c, 1, 84, 56
3, 405479, Note_on_c, 1, 84, 78
3, 405581, Note_off_c, 1, 84, 56
3, 405722, Note_on_c, 1, 83, 80
3, 405824, Note_off_c, 1, 83, 56
3, 405839, Note_on_c, 1, 83, 80
3, 405941, Note_off_c, 1, 83, 56
3, 405958, Note_on_c, 1, 83, 80
3, 406060, Note_off_c, 1, 83, 56
3, 406198, Note_on_c, 1, 84, 80
3, 406300, Note_off_c, 1, 84, 56
3, 406318, Note_on_c, 1, 84, 80
3, 406420, Note_off_c, 1, 84, 56
3, 406442, Note_on_c, 1, 84, 81
3, 406544, Note_off_c, 1, 84, 56
3, 406800, Note_on_c, 1, 86, 78
3, 407005, Note_off_c, 1, 86, 64
3, 407280, Note_on_c, 1, 88, 79
3, 407485, Note_off_c, 1, 88, 64
3, 407760, Note_on_c, 1, 88, 79
3, 407965, Note_off_c, 1, 88, 64
3, 408239, Note_on_c, 1, 88, 80
3, 408444, Note_off_c, 1, 88, 64
3, 408721, Note_on_c, 1, 84, 81
3, 408926, Note_off_c, 1, 84, 64
3, 409202, Note_on_c, 1, 84, 81
3, 409407, Note_off_c, 1, 84, 64
3, 409682, Note_on_c, 1, 86, 82
3, 409887, Note_off_c, 1, 86, 64
3, 410160, Note_on_c, 1, 88, 82
3, 410365, Note_off_c, 1, 88, 64
3, 410639, Note_on_c, 1, 86, 83
3, 410844, Note_off_c, 1, 86, 64
3, 411122, Note_on_c, 1, 88, 85
3, 411327, Note_off_c, 1, 88, 64
3, 411599, Note_on_c, 1, 88, 85
3, 411804, Note_off_c, 1, 88, 64
3, 412079, Note_on_c, 1, 88, 86
3, 412284, Note_off_c, 1, 88, 64
3, 412560, Note_on_c, 1, 84, 87
3, 412765, Note_off_c, 1, 84, 64
3, 413037, Note_on_c, 1, 84, 87
3, 413242, Note_off_c, 1, 84, 64
3, 413518, Note_on_c, 1, 86, 88
3, 413723, Note_off_c, 1, 86, 64
3, 414003, Note_on_c, 1, 88, 88
3, 414208, Note_off_c, 1, 88, 64
3, 414482, Note_on_c, 1, 86, 89
3, 414687, Note_off_c, 1, 86, 64
3, 414959, Note_on_c, 1, 86, 90
3, 415164, Note_off_c, 1, 86, 64
3, 415201, Note_on_c, 1, 84, 111
3, 415321, Note_off_c, 1, 84, 56
3, 419041, Note_on_c, 1, 84, 73
3, 419329, Note_off_c, 1, 84, 64
3, 419401, Note_on_c, 1, 83, 76
3, 419497, Note_off_c, 1, 83, 56
3, 419520, Note_on_c, 1, 81, 76
3, 419616, Note_off_c, 1, 81, 56
3, 419639, Note_on_c, 1, 79, 76
3, 419735, Note_off_c, 1, 79, 56
3, 419761, Note_on_c, 1, 79, 76
3, 419857, Note_off_c, 1, 79, 56
3, 419882, Note_on_c, 1, 79, 76
3, 419978, Note_off_c, 1, 79, 56
3, 420002, Note_on_c, 1, 84, 73
3, 420290, Note_off_c, 1, 84, 65
3, 420358, Note_on_c, 1, 83, 76
3, 420454, Note_off_c, 1, 83, 56
3, 420479, Note_on_c, 1, 81, 76
3, 420575, Note_off_c, 1, 81, 56
3, 420602, Note_on_c, 1, 79, 76
3, 420698, Note_off_c, 1, 79, 56
3, 420720, Note_on_c, 1, 79, 76
3, 420816, Note_off_c, 1, 79, 56
3, 420841, Note_on_c, 1, 79, 76
3, 420937, Note_off_c, 1, 79, 56
3, 420958, Note_on_c, 1, 88, 73
3, 420961, Note_on_c, 1, 84, 73
3, 421246, Note_off_c, 1, 88, 65
3, 421249, Note_off_c, 1, 84, 65
3, 421319, Note_on_c, 1, 86, 76
3, 421321, Note_on_c, 1, 83, 76
3, 421415, Note_off_c, 1, 86, 56
3, 421417, Note_off_c, 1, 83, 56
3, 421438, Note_on_c, 1, 81, 76
3, 421441, Note_on_c, 1, 84, 76
3, 421534, Note_off_c, 1, 81, 56
3, 421537, Note_off_c, 1, 84, 56
3, 421558, Note_on_c, 1, 79, 76
3, 421559, Note_on_c, 1, 83, 76
3, 421654, Note_off_c, 1, 79, 56
3, 421655, Note_off_c, 1, 83, 56
3, 421681, Note_on_c, 1, 83, 76
3, 421682, Note_on_c, 1, 79, 76
3, 421777, Note_off_c, 1, 83, 56
3, 421778, Note_off_c, 1, 79, 56
3, 421800, Note_on_c, 1, 83, 76
3, 421802, Note_on_c, 1, 79, 76
3, 421896, Note_off_c, 1, 83, 56
3, 421898, Note_off_c, 1, 79, 56
3, 421920, Note_on_c, 1, 88, 73
3, 421922, Note_on_c, 1, 84, 73
3, 422208, Note_off_c, 1, 88, 65
3, 422210, Note_off_c, 1, 84, 65
3, 422281, Note_on_c, 1, 86, 76
3, 422282, Note_on_c, 1, 83, 76
3, 422377, Note_off_c, 1, 86, 56
3, 422378, Note_off_c, 1, 83, 56
3, 422400, Note_on_c, 1, 84, 76
3, 422402, Note_on_c, 1, 81, 76
3, 422496, Note_off_c, 1, 84, 56
3, 422498, Note_off_c, 1, 81, 56
3, 422522, Note_on_c, 1, 79, 76
3, 422522, Note_on_c, 1, 83, 76
3, 422618, Note_off_c, 1, 83, 56
3, 422618, Note_off_c, 1, 79, 56
3, 422639, Note_on_c, 1, 83, 76
3, 422640, Note_on_c, 1, 79, 76
3, 422735, Note_off_c, 1, 83, 56
3, 422736, Note_off_c, 1, 79, 56
3, 422761, Note_on_c, 1, 79, 76
3, 422762, Note_on_c, 1, 83, 76
3, 422857, Note_off_c, 1, 79, 56
3, 422858, Note_off_c, 1, 83, 56
3, 422879, Note_on_c, 1, 84, 76
3, 422880, Note_on_c, 1, 88, 76
3, 422975, Note_off_c, 1, 84, 56
3, 422976, Note_off_c, 1, 88, 56
3, 423118, Note_on_c, 1, 84, 76
3, 423118, Note_on_c, 1, 91, 76
3, 423214, Note_off_c, 1, 91, 56
3, 423214, Note_off_c, 1, 84, 56
3, 423358, Note_on_c, 1, 84, 77
3, 423358, Note_on_c, 1, 91, 77
3, 423454, Note_off_c, 1, 91, 56
3, 423454, Note_off_c, 1, 84, 56
3, 423601, Note_on_c, 1, 89, 78
3, 423602, Note_on_c, 1, 84, 78
3, 423697, Note_off_c, 1, 89, 56
3, 423698, Note_off_c, 1, 84, 56
3, 423839, Note_on_c, 1, 89, 80
3, 423840, Note_on_c, 1, 83, 80
3, 423935, Note_off_c, 1, 89, 56
3, 423936, Note_off_c, 1, 83, 56
3, 424078, Note_on_c, 1, 88, 81
3, 424080, Note_on_c, 1, 84, 81
3, 424174, Note_off_c, 1, 88, 56
3, 424176, Note_off_c, 1, 84, 56
3, 424320, Note_on_c, 1, 86, 82
3, 424320, Note_on_c, 1, 83, 82
3, 424416, Note_off_c, 1, 83, 56
3, 424416, Note_off_c, 1, 86, 56
3, 424559, Note_on_c, 1, 84, 83
3, 424560, Note_on_c, 1, 91, 83
3, 424655, Note_off_c, 1, 84, 56
3, 424656, Note_off_c, 1, 91, 56
3, 424800, Note_on_c, 1, 84, 84
3, 424801, Note_on_c, 1, 91, 84
3, 424896, Note_off_c, 1, 84, 56
3, 424897, Note_off_c, 1, 91, 56
3, 425040, Note_on_c, 1, 84, 85
3, 425041, Note_on_c, 1, 91, 85
3, 425136, Note_off_c, 1, 84, 56
3, 425137, Note_off_c, 1, 91, 56
3, 425279, Note_on_c, 1, 84, 86
3, 425281, Note_on_c, 1, 91, 86
3, 425375, Note_off_c, 1, 84, 56
3, 425377, Note_off_c, 1, 91, 56
3, 425518, Note_on_c, 1, 84, 88
3, 425521, Note_on_c, 1, 89, 88
3, 425614, Note_off_c, 1, 84, 56
3, 425617, Note_off_c, 1, 89, 56
3, 425760, Note_on_c, 1, 83, 89
3, 425762, Note_on_c, 1, 89, 89
3, 425856, Note_off_c, 1, 83, 56
3, 425858, Note_off_c, 1, 89, 56
3, 425999, Note_on_c, 1, 84, 90
3, 425999, Note_on_c, 1, 88, 90
3, 426095, Note_off_c, 1, 88, 56
3, 426095, Note_off_c, 1, 84, 56
3, 426238, Note_on_c, 1, 86, 91
3, 426242, Note_on_c, 1, 83, 91
3, 426334, Note_off_c, 1, 86, 56
3, 426338, Note_off_c, 1, 83, 56
3, 426478, Note_on_c, 1, 84, 92
3, 426479, Note_on_c, 1, 91, 92
3, 426574, Note_off_c, 1, 84, 56
3, 426575, Note_off_c, 1, 91, 56
3, 426601, Note_on_c, 1, 91, 92
3, 426601, Note_on_c, 1, 84, 92
3, 426697, Note_off_c, 1, 84, 56
3, 426697, Note_off_c, 1, 91, 56
3, 426718, Note_on_c, 1, 91, 93
3, 426720, Note_on_c, 1, 84, 93
3, 426814, Note_off_c, 1, 91, 56
3, 426816, Note_off_c, 1, 84, 56
3, 426840, Note_on_c, 1, 91, 93
3, 426841, Note_on_c, 1, 84, 93
3, 426936, Note_off_c, 1, 91, 56
3, 426937, Note_off_c, 1, 84, 56
3, 426959, Note_on_c, 1, 84, 93
3, 426961, Note_on_c, 1, 91, 93
3, 427055, Note_off_c, 1, 84, 56
3, 427057, Note_off_c, 1, 91, 56
3, 427080, Note_on_c, 1, 91, 93
3, 427080, Note_on_c, 1, 84, 93
3, 427176, Note_off_c, 1, 84, 56
3, 427176, Note_off_c, 1, 91, 56
3, 427200, Note_on_c, 1, 84, 93
3, 427202, Note_on_c, 1, 91, 93
3, 427296, Note_off_c, 1, 84, 56
3, 427298, Note_off_c, 1, 91, 56
3, 427318, Note_on_c, 1, 84, 93
3, 427321, Note_on_c, 1, 91, 93
3, 427414, Note_off_c, 1, 84, 56
3, 427417, Note_off_c, 1, 91, 56
3, 427440, Note_on_c, 1, 89, 93
3, 427440, Note_on_c, 1, 84, 93
3, 427536, Note_off_c, 1, 84, 56
3, 427536, Note_off_c, 1, 89, 56
3, 427558, Note_on_c, 1, 84, 93
3, 427559, Note_on_c, 1, 89, 93
3, 427654, Note_off_c, 1, 84, 56
3, 427655, Note_off_c, 1, 89, 56
3, 427678, Note_on_c, 1, 83, 93
3, 427679, Note_on_c, 1, 89, 93
3, 427774, Note_off_c, 1, 83, 56
3, 427775, Note_off_c, 1, 89, 56
3, 427800, Note_on_c, 1, 89, 93
3, 427802, Note_on_c, 1, 83, 93
3, 427896, Note_off_c, 1, 89, 56
3, 427898, Note_off_c, 1, 83, 56
3, 427918, Note_on_c, 1, 88, 93
3, 427920, Note_on_c, 1, 84, 93
3, 428014, Note_off_c, 1, 88, 56
3, 428016, Note_off_c, 1, 84, 56
3, 428038, Note_on_c, 1, 84, 93
3, 428040, Note_on_c, 1, 88, 93
3, 428134, Note_off_c, 1, 84, 56
3, 428136, Note_off_c, 1, 88, 56
3, 428158, Note_on_c, 1, 84, 93
3, 428160, Note_on_c, 1, 86, 93
3, 428254, Note_off_c, 1, 84, 56
3, 428256, Note_off_c, 1, 86, 56
3, 428280, Note_on_c, 1, 84, 93
3, 428280, Note_on_c, 1, 86, 93
3, 428376, Note_off_c, 1, 86, 56
3, 428376, Note_off_c, 1, 84, 56
3, 428398, Note_on_c, 1, 83, 93
3, 428399, Note_on_c, 1, 91, 93
3, 428494, Note_off_c, 1, 83, 56
3, 428495, Note_off_c, 1, 91, 56
3, 428518, Note_on_c, 1, 91, 93
3, 428522, Note_on_c, 1, 83, 93
3, 428614, Note_off_c, 1, 91, 56
3, 428618, Note_off_c, 1, 83, 56
3, 428641, Note_on_c, 1, 72, 108
3, 428833, Note_off_c, 1, 72, 67
3, 428883, Note_on_c, 1, 76, 108
3, 429075, Note_off_c, 1, 76, 67
3, 429117, Note_on_c, 1, 79, 108
3, 429405, Note_off_c, 1, 79, 67
3, 429480, Note_on_c, 1, 77, 111
3, 429576, Note_off_c, 1, 77, 56
3, 429600, Note_on_c, 1, 76, 111
3, 429696, Note_off_c, 1, 76, 56
3, 429722, Note_on_c, 1, 74, 111
3, 429818, Note_off_c, 1, 74, 56
3, 429840, Note_on_c, 1, 72, 111
3, 429936, Note_off_c, 1, 72, 56
3, 429962, Note_on_c, 1, 74, 111
3, 430058, Note_off_c, 1, 74, 56
3, 430079, Note_on_c, 1, 76, 108
3, 430367, Note_off_c, 1, 76, 68
3, 430439, Note_on_c, 1, 76, 111
3, 430535, Note_off_c, 1, 76, 56
3, 430560, Note_on_c, 1, 76, 111
3, 430656, Note_off_c, 1, 76, 56
3, 430682, Note_on_c, 1, 74, 111
3, 430778, Note_off_c, 1, 74, 56
3, 430798, Note_on_c, 1, 76, 111
3, 430894, Note_off_c, 1, 76, 56
3, 430922, Note_on_c, 1, 77, 111
3, 431018, Note_off_c, 1, 77, 56
3, 431042, Note_on_c, 1, 79, 108
3, 431330, Note_off_c, 1, 79, 68
3, 431398, Note_on_c, 1, 79, 111
3, 431494, Note_off_c, 1, 79, 56
3, 431520, Note_on_c, 1, 79, 111
3, 431616, Note_off_c, 1, 79, 56
3, 431640, Note_on_c, 1, 77, 111
3, 431736, Note_off_c, 1, 77, 56
3, 431759, Note_on_c, 1, 79, 111
3, 431855, Note_off_c, 1, 79, 56
3, 431882, Note_on_c, 1, 83, 111
3, 431978, Note_off_c, 1, 83, 56
3, 432000, Note_on_c, 1, 84, 108
3, 432288, Note_off_c, 1, 84, 69
3, 432359, Note_on_c, 1, 83, 111
3, 432455, Note_off_c, 1, 83, 56
3, 432478, Note_on_c, 1, 84, 111
3, 432574, Note_off_c, 1, 84, 56
3, 432598, Note_on_c, 1, 83, 111
3, 432601, Note_on_c, 1, 71, 111
3, 432694, Note_off_c, 1, 83, 56
3, 432697, Note_off_c, 1, 71, 56
3, 432719, Note_on_c, 1, 84, 111
3, 432722, Note_on_c, 1, 72, 111
3, 432815, Note_off_c, 1, 84, 56
3, 432818, Note_off_c, 1, 72, 56
3, 432839, Note_on_c, 1, 86, 111
3, 432842, Note_on_c, 1, 74, 111
3, 432935, Note_off_c, 1, 86, 56
3, 432938, Note_off_c, 1, 74, 56
3, 432961, Note_on_c, 1, 76, 111
3, 432961, Note_on_c, 1, 88, 111
3, 433057, Note_off_c, 1, 88, 56
3, 433057, Note_off_c, 1, 76, 56
3, 433079, Note_on_c, 1, 86, 111
3, 433082, Note_on_c, 1, 74, 111
3, 433175, Note_off_c, 1, 86, 56
3, 433178, Note_off_c, 1, 74, 56
3, 433199, Note_on_c, 1, 76, 111
3, 433199, Note_on_c, 1, 88, 111
3, 433295, Note_off_c, 1, 88, 56
3, 433295, Note_off_c, 1, 76, 56
3, 433318, Note_on_c, 1, 89, 111
3, 433322, Note_on_c, 1, 77, 111
3, 433414, Note_off_c, 1, 89, 56
3, 433418, Note_off_c, 1, 77, 56
3, 433437, Note_on_c, 1, 79, 108
3, 433442, Note_on_c, 1, 91, 108
3, 434205, Note_off_c, 1, 79, 69
3, 434210, Note_off_c, 1, 91, 69
3, 434397, Note_on_c, 1, 76, 108
3, 434398, Note_on_c, 1, 88, 108
3, 435165, Note_off_c, 1, 76, 69
3, 435166, Note_off_c, 1, 88, 69
3, 435358, Note_on_c, 1, 84, 111
3, 435358, Note_on_c, 1, 72, 111
3, 435478, Note_off_c, 1, 72, 56
3, 435478, Note_off_c, 1, 84, 56
3, 435838, Note_on_c, 1, 83, 111
3, 435839, Note_on_c, 1, 86, 111
3, 435958, Note_off_c, 1, 83, 56
3, 435959, Note_off_c, 1, 86, 56
3, 436319, Note_on_c, 1, 84, 111
3, 436321, Note_on_c, 1, 88, 111
3, 436439, Note_off_c, 1, 84, 56
3, 436441, Note_off_c, 1, 88, 56
3, 436798, Note_on_c, 1, 91, 111
3, 436800, Note_on_c, 1, 83, 111
3, 436918, Note_off_c, 1, 91, 56
3, 436920, Note_off_c, 1, 83, 56
3, 437279, Note_on_c, 1, 84, 111
3, 437282, Note_on_c, 1, 88, 111
3, 437399, Note_off_c, 1, 84, 56
3, 437402, Note_off_c, 1, 88, 56
3, 437758, Note_on_c, 1, 86, 111
3, 437759, Note_on_c, 1, 83, 111
3, 437878, Note_off_c, 1, 86, 56
3, 437879, Note_off_c, 1, 83, 56
3, 438239, Note_on_c, 1, 88, 111
3, 438241, Note_on_c, 1, 84, 111
3, 438359, Note_off_c, 1, 88, 56
3, 438361, Note_off_c, 1, 84, 56
3, 438718, Note_on_c, 1, 83, 111
3, 438721, Note_on_c, 1, 91, 111
3, 438838, Note_off_c, 1, 83, 56
3, 438841, Note_off_c, 1, 91, 56
3, 439199, Note_on_c, 1, 84, 111
3, 439200, Note_on_c, 1, 88, 111
3, 439319, Note_off_c, 1, 84, 56
3, 439320, Note_off_c, 1, 88, 56
3, 439678, Note_on_c, 1, 83, 111
3, 439678, Note_on_c, 1, 91, 111
3, 439798, Note_off_c, 1, 91, 56
3, 439798, Note_off_c, 1, 83, 56
3, 440159, Note_on_c, 1, 84, 111
3, 440162, Note_on_c, 1, 88, 111
3, 440279, Note_off_c, 1, 84, 56
3, 440282, Note_off_c, 1, 88, 56
3, 440640, Note_on_c, 1, 83, 111
3, 440640, Note_on_c, 1, 91, 111
3, 440760, Note_off_c, 1, 91, 56
3, 440760, Note_off_c, 1, 83, 56
3, 441118, Note_on_c, 1, 76, 108
3, 441123, Note_on_c, 1, 84, 108
3, 441886, Note_off_c, 1, 76, 71
3, 441891, Note_off_c, 1, 84, 71
3, 442079, Note_on_c, 1, 84, 108
3, 442655, Note_off_c, 1, 84, 72
3, 442798, Note_on_c, 1, 79, 111
3, 442894, Note_off_c, 1, 79, 56
3, 442918, Note_on_c, 1, 76, 111
3, 443014, Note_off_c, 1, 76, 56
3, 443039, Note_on_c, 1, 72, 111
3, 443135, Note_off_c, 1, 72, 56
3, 443398, Note_on_c, 1, 84, 111
3, 443400, Note_on_c, 1, 76, 111
3, 443494, Note_off_c, 1, 84, 56
3, 443496, Note_off_c, 1, 76, 56
3, 443519, Note_on_c, 1, 84, 111
3, 443522, Note_on_c, 1, 76, 111
3, 443615, Note_off_c, 1, 84, 56
3, 443618, Note_off_c, 1, 76, 56
3, 443639, Note_on_c, 1, 84, 111
3, 443641, Note_on_c, 1, 76, 111
3, 443735, Note_off_c, 1, 84, 56
3, 443737, Note_off_c, 1, 76, 56
3, 443759, Note_on_c, 1, 84, 111
3, 443760, Note_on_c, 1, 76, 111
3, 443855, Note_off_c, 1, 84, 56
3, 443856, Note_off_c, 1, 76, 56
3, 443879, Note_on_c, 1, 76, 111
3, 443880, Note_on_c, 1, 84, 111
3, 443975, Note_off_c, 1, 76, 56
3, 443976, Note_off_c, 1, 84, 56
3, 444001, Note_on_c, 1, 76, 111
3, 444002, Note_on_c, 1, 84, 111
3, 444097, Note_off_c, 1, 76, 56
3, 444098, Note_off_c, 1, 84, 56
3, 444360, Note_on_c, 1, 84, 111
3, 444362, Note_on_c, 1, 88, 111
3, 444456, Note_off_c, 1, 84, 56
3, 444458, Note_off_c, 1, 88, 56
3, 444479, Note_on_c, 1, 88, 111
3, 444480, Note_on_c, 1, 84, 111
3, 444575, Note_off_c, 1, 88, 56
3, 444576, Note_off_c, 1, 84, 56
3, 444598, Note_on_c, 1, 88, 111
3, 444599, Note_on_c, 1, 84, 111
3, 444694, Note_off_c, 1, 88, 56
3, 444695, Note_off_c, 1, 84, 56
3, 444718, Note_on_c, 1, 88, 111
3, 444722, Note_on_c, 1, 84, 111
3, 444814, Note_off_c, 1, 88, 56
3, 444818, Note_off_c, 1, 84, 56
3, 444838, Note_on_c, 1, 88, 111
3, 444842, Note_on_c, 1, 84, 111
3, 444934, Note_off_c, 1, 88, 56
3, 444938, Note_off_c, 1, 84, 56
3, 444960, Note_on_c, 1, 84, 111
3, 444962, Note_on_c, 1, 88, 111
3, 445056, Note_off_c, 1, 84, 56
3, 445058, Note_off_c, 1, 88, 56
3, 445198, Note_on_c, 1, 84, 111
3, 445202, Note_on_c, 1, 76, 111
3, 445294, Note_off_c, 1, 84, 56
3, 445298, Note_off_c, 1, 76, 56
3, 445321, Note_on_c, 1, 84, 111
3, 445322, Note_on_c, 1, 76, 111
3, 445417, Note_off_c, 1, 84, 56
3, 445418, Note_off_c, 1, 76, 56
3, 445438, Note_on_c, 1, 84, 111
3, 445534, Note_off_c, 1, 84, 56
3, 445678, Note_on_c, 1, 88, 111
3, 445680, Note_on_c, 1, 84, 111
3, 445774, Note_off_c, 1, 88, 56
3, 445776, Note_off_c, 1, 84, 56
3, 445799, Note_on_c, 1, 84, 111
3, 445801, Note_on_c, 1, 88, 111
3, 445895, Note_off_c, 1, 84, 56
3, 445897, Note_off_c, 1, 88, 56
3, 445918, Note_on_c, 1, 88, 111
3, 445918, Note_on_c, 1, 84, 111
3, 446014, Note_off_c, 1, 84, 56
3, 446014, Note_off_c, 1, 88, 56
3, 446158, Note_on_c, 1, 88, 111
3, 446159, Note_on_c, 1, 91, 111
3, 446254, Note_off_c, 1, 88, 56
3, 446255, Note_off_c, 1, 91, 56
3, 446278, Note_on_c, 1, 91, 111
3, 446280, Note_on_c, 1, 88, 111
3, 446374, Note_off_c, 1, 91, 56
3, 446376, Note_off_c, 1, 88, 56
3, 446399, Note_on_c, 1, 91, 111
3, 446402, Note_on_c, 1, 88, 111
3, 446495, Note_off_c, 1, 91, 56
3, 446498, Note_off_c, 1, 88, 56
3, 446639, Note_on_c, 1, 84, 111
3, 446642, Note_on_c, 1, 76, 111
3, 446735, Note_off_c, 1, 84, 56
3, 446738, Note_off_c, 1, 76, 56
3, 446759, Note_on_c, 1, 76, 111
3, 446759, Note_on_c, 1, 84, 111
3, 446855, Note_off_c, 1, 84, 56
3, 446855, Note_off_c, 1, 76, 56
3, 446877, Note_on_c, 1, 84, 108
3, 446881, Note_on_c, 1, 76, 108
3, 447645, Note_off_c, 1, 84, 73
3, 447649, Note_off_c, 1, 76, 73
3, 447843, Note_on_c, 1, 84, 108
3, 447843, Note_on_c, 1, 88, 108
3, 448611, Note_off_c, 1, 88, 74
3, 448611, Note_off_c, 1, 84, 74
3, 448801, Note_on_c, 1, 88, 111
3, 448802, Note_on_c, 1, 84, 111
3, 448921, Note_off_c, 1, 88, 56
3, 448922, Note_off_c, 1, 84, 56
3, 449758, Note_on_c, 1, 84, 111
3, 449762, Note_on_c, 1, 76, 111
3, 449878, Note_off_c, 1, 84, 56
3, 449882, Note_off_c, 1, 76, 56
3, 450718, Note_on_c, 1, 76, 111
3, 450719, Note_on_c, 1, 84, 111
3, 450838, Note_off_c, 1, 76, 56
3, 450839, Note_off_c, 1, 84, 56
3, 451679, Note_on_c, 1, 84, 111
3, 451680, Note_on_c, 1, 76, 111
3, 451799, Note_off_c, 1, 84, 56
3, 451800, Note_off_c, 1, 76, 56
3, 452160, Note_on_c, 1, 76, 111
3, 452161, Note_on_c, 1, 84, 111
3, 452280, Note_off_c, 1, 76, 56
3, 452281, Note_off_c, 1, 84, 56
3, 452640, Note_on_c, 1, 84, 111
3, 452640, Note_on_c, 1, 76, 111
3, 452760, Note_off_c, 1, 76, 56
3, 452760, Note_off_c, 1, 84, 56
3, 453598, Note_on_c, 1, 84, 111
3, 453601, Note_on_c, 1, 76, 111
3, 453718, Note_off_c, 1, 84, 56
3, 453721, Note_off_c, 1, 76, 56
3, 454560, Note_on_c, 1, 76, 108
3, 454562, Note_on_c, 1, 84, 108
3, 455520, Note_off_c, 1, 76, 76
3, 455522, Note_off_c, 1, 84, 76
3, 455522, End_track
4, 0, Start_track
4, 0, Title_t, "Oboe1"
4, 0, Program_c, 2, 68
4, 0, Control_c, 2, 7, 84
4, 0, Control_c, 2, 91, 37
4, 0, Control_c, 2, 93, 18
4, 0, Control_c, 2, 10, 46
4, 1, Note_on_c, 2, 72, 108
4, 433, Note_off_c, 2, 72, 64
4, 477, Note_on_c, 2, 76, 108
4, 909, Note_off_c, 2, 76, 64
4, 961, Note_on_c, 2, 79, 108
4, 1609, Note_off_c, 2, 79, 64
4, 1679, Note_on_c, 2, 77, 111
4, 1770, Note_off_c, 2, 77, 56
4, 1921, Note_on_c, 2, 76, 111
4, 2012, Note_off_c, 2, 76, 56
4, 2161, Note_on_c, 2, 74, 111
4, 2252, Note_off_c, 2, 74, 56
4, 2400, Note_on_c, 2, 72, 111
4, 2491, Note_off_c, 2, 72, 56
4, 2641, Note_on_c, 2, 74, 111
4, 2732, Note_off_c, 2, 74, 56
4, 2881, Note_on_c, 2, 72, 108
4, 3529, Note_off_c, 2, 72, 64
4, 3597, Note_on_c, 2, 72, 108
4, 3750, Note_off_c, 2, 72, 64
4, 3780, Note_on_c, 2, 72, 114
4, 3825, Note_off_c, 2, 72, 56
4, 3838, Note_on_c, 2, 74, 108
4, 4486, Note_off_c, 2, 74, 64
4, 4559, Note_on_c, 2, 74, 108
4, 4712, Note_off_c, 2, 74, 64
4, 4740, Note_on_c, 2, 74, 114
4, 4785, Note_off_c, 2, 74, 56
4, 4801, Note_on_c, 2, 76, 108
4, 5389, Note_off_c, 2, 76, 64
4, 5399, Note_on_c, 2, 72, 111
4, 5467, Note_off_c, 2, 72, 56
4, 5520, Note_on_c, 2, 74, 111
4, 5588, Note_off_c, 2, 74, 56
4, 5640, Note_on_c, 2, 76, 111
4, 5708, Note_off_c, 2, 76, 56
4, 5760, Note_on_c, 2, 77, 111
4, 5828, Note_off_c, 2, 77, 56
4, 5880, Note_on_c, 2, 76, 111
4, 5948, Note_off_c, 2, 76, 56
4, 6001, Note_on_c, 2, 77, 111
4, 6069, Note_off_c, 2, 77, 56
4, 6121, Note_on_c, 2, 79, 111
4, 6189, Note_off_c, 2, 79, 56
4, 6239, Note_on_c, 2, 81, 111
4, 6307, Note_off_c, 2, 81, 56
4, 6360, Note_on_c, 2, 79, 111
4, 6428, Note_off_c, 2, 79, 56
4, 6481, Note_on_c, 2, 81, 111
4, 6549, Note_off_c, 2, 81, 56
4, 6601, Note_on_c, 2, 83, 111
4, 6669, Note_off_c, 2, 83, 56
4, 6718, Note_on_c, 2, 84, 108
4, 7306, Note_off_c, 2, 84, 64
4, 7320, Note_on_c, 2, 72, 111
4, 7388, Note_off_c, 2, 72, 56
4, 7439, Note_on_c, 2, 74, 111
4, 7507, Note_off_c, 2, 74, 56
4, 7561, Note_on_c, 2, 76, 111
4, 7629, Note_off_c, 2, 76, 56
4, 7679, Note_on_c, 2, 77, 111
4, 7747, Note_off_c, 2, 77, 56
4, 7801, Note_on_c, 2, 76, 111
4, 7869, Note_off_c, 2, 76, 56
4, 7920, Note_on_c, 2, 77, 111
4, 7988, Note_off_c, 2, 77, 56
4, 8041, Note_on_c, 2, 79, 111
4, 8109, Note_off_c, 2, 79, 56
4, 8161, Note_on_c, 2, 81, 111
4, 8229, Note_off_c, 2, 81, 56
4, 8280, Note_on_c, 2, 79, 111
4, 8348, Note_off_c, 2, 79, 56
4, 8399, Note_on_c, 2, 81, 111
4, 8467, Note_off_c, 2, 81, 56
4, 8519, Note_on_c, 2, 83, 111
4, 8587, Note_off_c, 2, 83, 56
4, 8637, Note_on_c, 2, 84, 108
4, 9225, Note_off_c, 2, 84, 64
4, 9239, Note_on_c, 2, 72, 111
4, 9307, Note_off_c, 2, 72, 56
4, 9361, Note_on_c, 2, 74, 111
4, 9429, Note_off_c, 2, 74, 56
4, 9481, Note_on_c, 2, 76, 111
4, 9549, Note_off_c, 2, 76, 56
4, 9600, Note_on_c, 2, 79, 114
4, 9617, Note_off_c, 2, 79, 56
4, 9630, Note_on_c, 2, 77, 114
4, 9675, Note_off_c, 2, 77, 56
4, 9721, Note_on_c, 2, 76, 111
4, 9789, Note_off_c, 2, 76, 56
4, 9839, Note_on_c, 2, 77, 111
4, 9907, Note_off_c, 2, 77, 56
4, 9959, Note_on_c, 2, 79, 111
4, 10027, Note_off_c, 2, 79, 56
4, 10080, Note_on_c, 2, 83, 114
4, 10097, Note_off_c, 2, 83, 56
4, 10110, Note_on_c, 2, 81, 114
4, 10155, Note_off_c, 2, 81, 56
4, 10200, Note_on_c, 2, 79, 111
4, 10268, Note_off_c, 2, 79, 56
4, 10320, Note_on_c, 2, 81, 111
4, 10388, Note_off_c, 2, 81, 56
4, 10439, Note_on_c, 2, 83, 111
4, 10507, Note_off_c, 2, 83, 56
4, 10559, Note_on_c, 2, 79, 111
4, 10627, Note_off_c, 2, 79, 56
4, 10679, Note_on_c, 2, 71, 111
4, 10747, Note_off_c, 2, 71, 56
4, 10799, Note_on_c, 2, 72, 111
4, 10867, Note_off_c, 2, 72, 56
4, 10921, Note_on_c, 2, 74, 111
4, 10989, Note_off_c, 2, 74, 56
4, 11038, Note_on_c, 2, 76, 108
4, 11243, Note_off_c, 2, 76, 64
4, 11280, Note_on_c, 2, 79, 111
4, 11371, Note_off_c, 2, 79, 56
4, 11460, Note_on_c, 2, 79, 114
4, 11505, Note_off_c, 2, 79, 56
4, 11519, Note_on_c, 2, 79, 111
4, 11627, Note_off_c, 2, 79, 56
4, 11640, Note_on_c, 2, 77, 111
4, 11731, Note_off_c, 2, 77, 56
4, 11760, Note_on_c, 2, 77, 111
4, 11851, Note_off_c, 2, 77, 56
4, 11940, Note_on_c, 2, 77, 114
4, 11985, Note_off_c, 2, 77, 56
4, 12000, Note_on_c, 2, 77, 111
4, 12108, Note_off_c, 2, 77, 56
4, 12119, Note_on_c, 2, 76, 111
4, 12210, Note_off_c, 2, 76, 56
4, 12240, Note_on_c, 2, 76, 111
4, 12331, Note_off_c, 2, 76, 56
4, 12420, Note_on_c, 2, 76, 114
4, 12465, Note_off_c, 2, 76, 56
4, 12479, Note_on_c, 2, 76, 111
4, 12587, Note_off_c, 2, 76, 56
4, 12600, Note_on_c, 2, 74, 111
4, 12691, Note_off_c, 2, 74, 56
4, 12722, Note_on_c, 2, 74, 108
4, 13154, Note_off_c, 2, 74, 64
4, 13200, Note_on_c, 2, 76, 111
4, 13291, Note_off_c, 2, 76, 56
4, 13380, Note_on_c, 2, 79, 114
4, 13425, Note_off_c, 2, 79, 56
4, 13442, Note_on_c, 2, 79, 111
4, 13550, Note_off_c, 2, 79, 56
4, 13560, Note_on_c, 2, 77, 111
4, 13651, Note_off_c, 2, 77, 56
4, 13680, Note_on_c, 2, 77, 111
4, 13771, Note_off_c, 2, 77, 56
4, 13860, Note_on_c, 2, 77, 114
4, 13905, Note_off_c, 2, 77, 56
4, 13919, Note_on_c, 2, 77, 111
4, 14027, Note_off_c, 2, 77, 56
4, 14041, Note_on_c, 2, 76, 111
4, 14132, Note_off_c, 2, 76, 56
4, 14159, Note_on_c, 2, 76, 111
4, 14250, Note_off_c, 2, 76, 56
4, 14340, Note_on_c, 2, 76, 114
4, 14385, Note_off_c, 2, 76, 56
4, 14398, Note_on_c, 2, 76, 111
4, 14506, Note_off_c, 2, 76, 56
4, 14521, Note_on_c, 2, 74, 111
4, 14612, Note_off_c, 2, 74, 56
4, 14639, Note_on_c, 2, 74, 108
4, 15071, Note_off_c, 2, 74, 64
4, 15121, Note_on_c, 2, 76, 111
4, 15189, Note_off_c, 2, 76, 56
4, 15300, Note_on_c, 2, 79, 114
4, 15334, Note_off_c, 2, 79, 56
4, 15361, Note_on_c, 2, 79, 111
4, 15429, Note_off_c, 2, 79, 56
4, 15540, Note_on_c, 2, 77, 114
4, 15574, Note_off_c, 2, 77, 56
4, 15599, Note_on_c, 2, 77, 111
4, 15667, Note_off_c, 2, 77, 56
4, 15780, Note_on_c, 2, 77, 114
4, 15814, Note_off_c, 2, 77, 56
4, 15841, Note_on_c, 2, 77, 111
4, 15909, Note_off_c, 2, 77, 56
4, 16020, Note_on_c, 2, 76, 114
4, 16054, Note_off_c, 2, 76, 56
4, 16079, Note_on_c, 2, 76, 111
4, 16147, Note_off_c, 2, 76, 56
4, 16260, Note_on_c, 2, 76, 114
4, 16294, Note_off_c, 2, 76, 56
4, 16323, Note_on_c, 2, 74, 108
4, 16528, Note_off_c, 2, 74, 64
4, 16558, Note_on_c, 2, 79, 108
4, 16990, Note_off_c, 2, 79, 64
4, 17040, Note_on_c, 2, 81, 114
4, 17094, Note_off_c, 2, 81, 56
4, 17100, Note_on_c, 2, 79, 114
4, 17154, Note_off_c, 2, 79, 56
4, 17160, Note_on_c, 2, 77, 114
4, 17214, Note_off_c, 2, 77, 56
4, 17221, Note_on_c, 2, 76, 114
4, 17275, Note_off_c, 2, 76, 56
4, 17281, Note_on_c, 2, 74, 111
4, 17372, Note_off_c, 2, 74, 56
4, 17460, Note_on_c, 2, 74, 114
4, 17505, Note_off_c, 2, 74, 56
4, 17522, Note_on_c, 2, 79, 108
4, 17954, Note_off_c, 2, 79, 64
4, 17999, Note_on_c, 2, 81, 114
4, 18053, Note_off_c, 2, 81, 56
4, 18060, Note_on_c, 2, 79, 114
4, 18114, Note_off_c, 2, 79, 56
4, 18119, Note_on_c, 2, 77, 114
4, 18173, Note_off_c, 2, 77, 56
4, 18180, Note_on_c, 2, 76, 114
4, 18225, Note_off_c, 2, 76, 56
4, 18240, Note_on_c, 2, 74, 111
4, 18331, Note_off_c, 2, 74, 56
4, 18420, Note_on_c, 2, 79, 114
4, 18465, Note_off_c, 2, 79, 56
4, 18479, Note_on_c, 2, 81, 114
4, 18533, Note_off_c, 2, 81, 56
4, 18540, Note_on_c, 2, 79, 114
4, 18594, Note_off_c, 2, 79, 56
4, 18600, Note_on_c, 2, 77, 114
4, 18654, Note_off_c, 2, 77, 56
4, 18660, Note_on_c, 2, 76, 114
4, 18714, Note_off_c, 2, 76, 56
4, 18720, Note_on_c, 2, 74, 111
4, 18811, Note_off_c, 2, 74, 56
4, 18900, Note_on_c, 2, 79, 114
4, 18945, Note_off_c, 2, 79, 56
4, 18959, Note_on_c, 2, 81, 114
4, 19013, Note_off_c, 2, 81, 56
4, 19020, Note_on_c, 2, 79, 114
4, 19074, Note_off_c, 2, 79, 56
4, 19081, Note_on_c, 2, 77, 114
4, 19135, Note_off_c, 2, 77, 56
4, 19139, Note_on_c, 2, 76, 114
4, 19193, Note_off_c, 2, 76, 56
4, 19200, Note_on_c, 2, 74, 111
4, 19291, Note_off_c, 2, 74, 56
4, 19380, Note_on_c, 2, 79, 114
4, 19425, Note_off_c, 2, 79, 56
4, 19441, Note_on_c, 2, 81, 114
4, 19495, Note_off_c, 2, 81, 56
4, 19501, Note_on_c, 2, 79, 114
4, 19555, Note_off_c, 2, 79, 56
4, 19560, Note_on_c, 2, 77, 114
4, 19614, Note_off_c, 2, 77, 56
4, 19619, Note_on_c, 2, 76, 114
4, 19673, Note_off_c, 2, 76, 56
4, 19680, Note_on_c, 2, 74, 111
4, 19788, Note_off_c, 2, 74, 56
4, 19860, Note_on_c, 2, 79, 114
4, 19905, Note_off_c, 2, 79, 56
4, 19920, Note_on_c, 2, 81, 114
4, 19974, Note_off_c, 2, 81, 56
4, 19981, Note_on_c, 2, 79, 114
4, 20035, Note_off_c, 2, 79, 56
4, 20039, Note_on_c, 2, 77, 114
4, 20093, Note_off_c, 2, 77, 56
4, 20100, Note_on_c, 2, 76, 114
4, 20154, Note_off_c, 2, 76, 56
4, 20161, Note_on_c, 2, 74, 111
4, 20252, Note_off_c, 2, 74, 56
4, 22199, Note_on_c, 2, 72, 111
4, 22307, Note_off_c, 2, 72, 56
4, 22320, Note_on_c, 2, 71, 111
4, 22411, Note_off_c, 2, 71, 56
4, 22441, Note_on_c, 2, 69, 111
4, 22509, Note_off_c, 2, 69, 56
4, 22559, Note_on_c, 2, 67, 111
4, 22627, Note_off_c, 2, 67, 56
4, 22680, Note_on_c, 2, 72, 111
4, 22788, Note_off_c, 2, 72, 56
4, 22800, Note_on_c, 2, 71, 111
4, 22891, Note_off_c, 2, 71, 56
4, 22920, Note_on_c, 2, 69, 111
4, 22988, Note_off_c, 2, 69, 56
4, 23040, Note_on_c, 2, 67, 111
4, 23108, Note_off_c, 2, 67, 56
4, 23160, Note_on_c, 2, 72, 111
4, 23228, Note_off_c, 2, 72, 56
4, 23279, Note_on_c, 2, 71, 111
4, 23370, Note_off_c, 2, 71, 56
4, 23401, Note_on_c, 2, 69, 111
4, 23492, Note_off_c, 2, 69, 56
4, 23520, Note_on_c, 2, 67, 111
4, 23588, Note_off_c, 2, 67, 56
4, 23639, Note_on_c, 2, 77, 111
4, 23707, Note_off_c, 2, 77, 56
4, 23760, Note_on_c, 2, 76, 111
4, 23828, Note_off_c, 2, 76, 56
4, 23880, Note_on_c, 2, 74, 111
4, 23948, Note_off_c, 2, 74, 56
4, 23998, Note_on_c, 2, 72, 108
4, 24646, Note_off_c, 2, 72, 64
4, 24720, Note_on_c, 2, 67, 108
4, 24936, Note_off_c, 2, 67, 64
4, 24963, Note_on_c, 2, 76, 108
4, 25647, Note_off_c, 2, 76, 64
4, 25683, Note_on_c, 2, 74, 108
4, 25845, Note_off_c, 2, 74, 64
4, 25860, Note_on_c, 2, 72, 114
4, 25905, Note_off_c, 2, 72, 56
4, 25921, Note_on_c, 2, 71, 108
4, 26126, Note_off_c, 2, 71, 64
4, 27843, Note_on_c, 2, 74, 108
4, 28491, Note_off_c, 2, 74, 64
4, 28560, Note_on_c, 2, 67, 108
4, 28776, Note_off_c, 2, 67, 64
4, 28799, Note_on_c, 2, 77, 108
4, 29483, Note_off_c, 2, 77, 64
4, 29520, Note_on_c, 2, 76, 108
4, 29682, Note_off_c, 2, 76, 64
4, 29700, Note_on_c, 2, 74, 114
4, 29745, Note_off_c, 2, 74, 56
4, 29767, Note_on_c, 2, 74, 108
4, 29983, Note_off_c, 2, 74, 64
4, 30001, Note_on_c, 2, 76, 108
4, 31585, Note_off_c, 2, 76, 64
4, 31678, Note_on_c, 2, 84, 108
4, 31883, Note_off_c, 2, 84, 64
4, 32642, Note_on_c, 2, 84, 108
4, 32847, Note_off_c, 2, 84, 64
4, 33597, Note_on_c, 2, 81, 108
4, 33802, Note_off_c, 2, 81, 64
4, 34561, Note_on_c, 2, 81, 108
4, 34766, Note_off_c, 2, 81, 64
4, 35519, Note_on_c, 2, 83, 108
4, 35724, Note_off_c, 2, 83, 64
4, 35997, Note_on_c, 2, 83, 108
4, 36202, Note_off_c, 2, 83, 64
4, 36482, Note_on_c, 2, 81, 108
4, 36687, Note_off_c, 2, 81, 64
4, 36961, Note_on_c, 2, 81, 108
4, 37166, Note_off_c, 2, 81, 64
4, 37440, Note_on_c, 2, 83, 108
4, 37645, Note_off_c, 2, 83, 64
4, 37918, Note_on_c, 2, 83, 108
4, 38123, Note_off_c, 2, 83, 64
4, 38403, Note_on_c, 2, 81, 108
4, 38608, Note_off_c, 2, 81, 64
4, 38637, Note_on_c, 2, 86, 108
4, 39945, Note_off_c, 2, 86, 64
4, 39959, Note_on_c, 2, 78, 111
4, 40067, Note_off_c, 2, 78, 56
4, 40079, Note_on_c, 2, 79, 111
4, 40170, Note_off_c, 2, 79, 56
4, 40199, Note_on_c, 2, 79, 111
4, 40267, Note_off_c, 2, 79, 56
4, 40320, Note_on_c, 2, 78, 111
4, 40411, Note_off_c, 2, 78, 56
4, 40442, Note_on_c, 2, 74, 111
4, 40550, Note_off_c, 2, 74, 56
4, 40561, Note_on_c, 2, 73, 111
4, 40652, Note_off_c, 2, 73, 56
4, 40681, Note_on_c, 2, 79, 111
4, 40749, Note_off_c, 2, 79, 56
4, 40800, Note_on_c, 2, 78, 111
4, 40891, Note_off_c, 2, 78, 56
4, 42238, Note_on_c, 2, 83, 108
4, 42374, Note_off_c, 2, 83, 64
4, 42722, Note_on_c, 2, 84, 108
4, 42858, Note_off_c, 2, 84, 64
4, 43198, Note_on_c, 2, 83, 108
4, 43846, Note_off_c, 2, 83, 64
4, 45841, Note_on_c, 2, 69, 93
4, 45909, Note_off_c, 2, 69, 56
4, 45920, Note_on_c, 2, 71, 93
4, 45988, Note_off_c, 2, 71, 56
4, 45993, Note_on_c, 2, 72, 93
4, 46061, Note_off_c, 2, 72, 56
4, 46079, Note_on_c, 2, 74, 90
4, 46284, Note_off_c, 2, 74, 64
4, 46320, Note_on_c, 2, 71, 93
4, 46388, Note_off_c, 2, 71, 56
4, 46401, Note_on_c, 2, 72, 93
4, 46469, Note_off_c, 2, 72, 56
4, 46480, Note_on_c, 2, 74, 93
4, 46548, Note_off_c, 2, 74, 56
4, 46557, Note_on_c, 2, 76, 90
4, 46762, Note_off_c, 2, 76, 64
4, 46799, Note_on_c, 2, 76, 93
4, 46867, Note_off_c, 2, 76, 56
4, 46880, Note_on_c, 2, 78, 93
4, 46948, Note_off_c, 2, 78, 56
4, 46961, Note_on_c, 2, 79, 93
4, 47029, Note_off_c, 2, 79, 56
4, 47039, Note_on_c, 2, 74, 90
4, 47687, Note_off_c, 2, 74, 64
4, 52560, Note_on_c, 2, 72, 58
4, 52765, Note_off_c, 2, 72, 64
4, 52798, Note_on_c, 2, 74, 63
4, 53662, Note_off_c, 2, 74, 64
4, 53760, Note_on_c, 2, 75, 82
4, 54624, Note_off_c, 2, 75, 64
4, 54722, Note_on_c, 2, 84, 102
4, 55310, Note_off_c, 2, 84, 64
4, 55319, Note_on_c, 2, 84, 111
4, 55410, Note_off_c, 2, 84, 56
4, 55440, Note_on_c, 2, 84, 111
4, 55531, Note_off_c, 2, 84, 56
4, 55560, Note_on_c, 2, 84, 111
4, 55651, Note_off_c, 2, 84, 56
4, 55679, Note_on_c, 2, 84, 111
4, 55770, Note_off_c, 2, 84, 56
4, 55801, Note_on_c, 2, 84, 111
4, 55892, Note_off_c, 2, 84, 56
4, 55920, Note_on_c, 2, 84, 111
4, 56011, Note_off_c, 2, 84, 56
4, 56040, Note_on_c, 2, 84, 111
4, 56131, Note_off_c, 2, 84, 56
4, 56161, Note_on_c, 2, 84, 111
4, 56252, Note_off_c, 2, 84, 56
4, 56279, Note_on_c, 2, 84, 111
4, 56370, Note_off_c, 2, 84, 56
4, 56400, Note_on_c, 2, 84, 111
4, 56491, Note_off_c, 2, 84, 56
4, 56521, Note_on_c, 2, 84, 111
4, 56612, Note_off_c, 2, 84, 56
4, 56639, Note_on_c, 2, 84, 108
4, 56844, Note_off_c, 2, 84, 64
4, 56883, Note_on_c, 2, 73, 108
4, 57088, Note_off_c, 2, 73, 64
4, 57123, Note_on_c, 2, 74, 108
4, 57328, Note_off_c, 2, 74, 64
4, 57358, Note_on_c, 2, 75, 108
4, 57563, Note_off_c, 2, 75, 64
4, 57599, Note_on_c, 2, 76, 108
4, 57804, Note_off_c, 2, 76, 64
4, 57842, Note_on_c, 2, 78, 108
4, 58047, Note_off_c, 2, 78, 64
4, 58081, Note_on_c, 2, 79, 111
4, 58172, Note_off_c, 2, 79, 56
4, 58199, Note_on_c, 2, 74, 111
4, 58290, Note_off_c, 2, 74, 56
4, 58320, Note_on_c, 2, 72, 111
4, 58411, Note_off_c, 2, 72, 56
4, 58439, Note_on_c, 2, 71, 111
4, 58530, Note_off_c, 2, 71, 56
4, 58558, Note_on_c, 2, 84, 108
4, 58694, Note_off_c, 2, 84, 64
4, 59522, Note_on_c, 2, 81, 108
4, 59658, Note_off_c, 2, 81, 64
4, 65521, Note_on_c, 2, 77, 108
4, 65726, Note_off_c, 2, 77, 64
4, 65759, Note_on_c, 2, 77, 108
4, 65964, Note_off_c, 2, 77, 64
4, 66000, Note_on_c, 2, 77, 108
4, 66205, Note_off_c, 2, 77, 64
4, 66240, Note_on_c, 2, 76, 108
4, 66672, Note_off_c, 2, 76, 64
4, 66718, Note_on_c, 2, 76, 108
4, 67117, Note_off_c, 2, 76, 64
4, 67140, Note_on_c, 2, 72, 114
4, 67194, Note_off_c, 2, 72, 56
4, 67200, Note_on_c, 2, 71, 108
4, 67656, Note_off_c, 2, 71, 64
4, 67679, Note_on_c, 2, 72, 108
4, 68078, Note_off_c, 2, 72, 64
4, 68100, Note_on_c, 2, 69, 114
4, 68145, Note_off_c, 2, 69, 56
4, 68163, Note_on_c, 2, 79, 90
4, 68811, Note_off_c, 2, 79, 64
4, 68878, Note_on_c, 2, 78, 90
4, 69083, Note_off_c, 2, 78, 64
4, 69118, Note_on_c, 2, 76, 90
4, 69323, Note_off_c, 2, 76, 64
4, 69359, Note_on_c, 2, 74, 90
4, 69564, Note_off_c, 2, 74, 64
4, 69602, Note_on_c, 2, 74, 90
4, 69807, Note_off_c, 2, 74, 64
4, 69837, Note_on_c, 2, 74, 90
4, 70042, Note_off_c, 2, 74, 64
4, 70083, Note_on_c, 2, 79, 90
4, 70731, Note_off_c, 2, 79, 64
4, 70799, Note_on_c, 2, 78, 90
4, 71004, Note_off_c, 2, 78, 64
4, 71037, Note_on_c, 2, 76, 90
4, 71242, Note_off_c, 2, 76, 64
4, 71281, Note_on_c, 2, 74, 90
4, 71486, Note_off_c, 2, 74, 64
4, 71520, Note_on_c, 2, 74, 90
4, 71725, Note_off_c, 2, 74, 64
4, 71763, Note_on_c, 2, 74, 90
4, 71968, Note_off_c, 2, 74, 64
4, 71997, Note_on_c, 2, 84, 96
4, 72645, Note_off_c, 2, 84, 64
4, 72719, Note_on_c, 2, 83, 90
4, 72924, Note_off_c, 2, 83, 64
4, 72962, Note_on_c, 2, 81, 93
4, 73167, Note_off_c, 2, 81, 64
4, 73197, Note_on_c, 2, 80, 94
4, 73402, Note_off_c, 2, 80, 64
4, 73439, Note_on_c, 2, 80, 95
4, 73644, Note_off_c, 2, 80, 64
4, 73683, Note_on_c, 2, 80, 96
4, 73888, Note_off_c, 2, 80, 64
4, 73923, Note_on_c, 2, 80, 97
4, 74128, Note_off_c, 2, 80, 64
4, 74161, Note_on_c, 2, 80, 98
4, 74366, Note_off_c, 2, 80, 64
4, 74400, Note_on_c, 2, 80, 100
4, 74605, Note_off_c, 2, 80, 64
4, 74638, Note_on_c, 2, 80, 101
4, 74843, Note_off_c, 2, 80, 64
4, 74883, Note_on_c, 2, 80, 103
4, 75088, Note_off_c, 2, 80, 64
4, 75120, Note_on_c, 2, 80, 104
4, 75325, Note_off_c, 2, 80, 64
4, 75360, Note_on_c, 2, 80, 105
4, 75565, Note_off_c, 2, 80, 64
4, 75601, Note_on_c, 2, 80, 106
4, 75806, Note_off_c, 2, 80, 64
4, 75841, Note_on_c, 2, 77, 108
4, 77665, Note_off_c, 2, 77, 64
4, 77761, Note_on_c, 2, 77, 108
4, 78409, Note_off_c, 2, 77, 64
4, 78479, Note_on_c, 2, 77, 111
4, 78570, Note_off_c, 2, 77, 56
4, 78600, Note_on_c, 2, 77, 111
4, 78691, Note_off_c, 2, 77, 56
4, 78720, Note_on_c, 2, 77, 108
4, 79368, Note_off_c, 2, 77, 64
4, 79439, Note_on_c, 2, 77, 111
4, 79530, Note_off_c, 2, 77, 56
4, 79561, Note_on_c, 2, 77, 111
4, 79652, Note_off_c, 2, 77, 56
4, 79683, Note_on_c, 2, 77, 108
4, 79888, Note_off_c, 2, 77, 64
4, 79921, Note_on_c, 2, 77, 111
4, 80012, Note_off_c, 2, 77, 56
4, 80041, Note_on_c, 2, 77, 111
4, 80132, Note_off_c, 2, 77, 56
4, 80157, Note_on_c, 2, 77, 108
4, 80362, Note_off_c, 2, 77, 64
4, 80401, Note_on_c, 2, 77, 111
4, 80492, Note_off_c, 2, 77, 56
4, 80519, Note_on_c, 2, 77, 111
4, 80610, Note_off_c, 2, 77, 56
4, 80640, Note_on_c, 2, 71, 111
4, 80731, Note_off_c, 2, 71, 56
4, 80761, Note_on_c, 2, 67, 111
4, 80852, Note_off_c, 2, 67, 56
4, 80879, Note_on_c, 2, 74, 111
4, 80970, Note_off_c, 2, 74, 56
4, 81000, Note_on_c, 2, 71, 111
4, 81091, Note_off_c, 2, 71, 56
4, 81120, Note_on_c, 2, 77, 111
4, 81211, Note_off_c, 2, 77, 56
4, 81239, Note_on_c, 2, 74, 111
4, 81330, Note_off_c, 2, 74, 56
4, 81361, Note_on_c, 2, 83, 111
4, 81452, Note_off_c, 2, 83, 56
4, 81481, Note_on_c, 2, 79, 111
4, 81572, Note_off_c, 2, 79, 56
4, 81603, Note_on_c, 2, 84, 108
4, 81808, Note_off_c, 2, 84, 64
4, 82082, Note_on_c, 2, 76, 108
4, 82514, Note_off_c, 2, 76, 64
4, 82559, Note_on_c, 2, 79, 108
4, 83207, Note_off_c, 2, 79, 64
4, 83281, Note_on_c, 2, 77, 111
4, 83372, Note_off_c, 2, 77, 56
4, 83519, Note_on_c, 2, 76, 111
4, 83610, Note_off_c, 2, 76, 56
4, 83761, Note_on_c, 2, 74, 111
4, 83852, Note_off_c, 2, 74, 56
4, 84000, Note_on_c, 2, 72, 111
4, 84091, Note_off_c, 2, 72, 56
4, 84239, Note_on_c, 2, 74, 111
4, 84330, Note_off_c, 2, 74, 56
4, 84479, Note_on_c, 2, 72, 108
4, 85127, Note_off_c, 2, 72, 64
4, 85197, Note_on_c, 2, 72, 108
4, 85350, Note_off_c, 2, 72, 64
4, 85380, Note_on_c, 2, 72, 114
4, 85425, Note_off_c, 2, 72, 56
4, 85442, Note_on_c, 2, 74, 108
4, 86090, Note_off_c, 2, 74, 64
4, 86160, Note_on_c, 2, 74, 108
4, 86313, Note_off_c, 2, 74, 64
4, 86340, Note_on_c, 2, 74, 114
4, 86385, Note_off_c, 2, 74, 56
4, 86398, Note_on_c, 2, 76, 108
4, 86986, Note_off_c, 2, 76, 64
4, 87001, Note_on_c, 2, 72, 111
4, 87069, Note_off_c, 2, 72, 56
4, 87120, Note_on_c, 2, 74, 111
4, 87188, Note_off_c, 2, 74, 56
4, 87239, Note_on_c, 2, 76, 111
4, 87307, Note_off_c, 2, 76, 56
4, 87359, Note_on_c, 2, 77, 111
4, 87427, Note_off_c, 2, 77, 56
4, 87481, Note_on_c, 2, 76, 111
4, 87549, Note_off_c, 2, 76, 56
4, 87599, Note_on_c, 2, 77, 111
4, 87667, Note_off_c, 2, 77, 56
4, 87721, Note_on_c, 2, 79, 111
4, 87789, Note_off_c, 2, 79, 56
4, 87839, Note_on_c, 2, 81, 111
4, 87907, Note_off_c, 2, 81, 56
4, 87960, Note_on_c, 2, 79, 111
4, 88028, Note_off_c, 2, 79, 56
4, 88080, Note_on_c, 2, 81, 111
4, 88148, Note_off_c, 2, 81, 56
4, 88201, Note_on_c, 2, 83, 111
4, 88269, Note_off_c, 2, 83, 56
4, 88321, Note_on_c, 2, 84, 108
4, 88909, Note_off_c, 2, 84, 64
4, 88920, Note_on_c, 2, 72, 111
4, 88988, Note_off_c, 2, 72, 56
4, 89041, Note_on_c, 2, 74, 111
4, 89109, Note_off_c, 2, 74, 56
4, 89161, Note_on_c, 2, 76, 111
4, 89229, Note_off_c, 2, 76, 56
4, 89281, Note_on_c, 2, 77, 111
4, 89349, Note_off_c, 2, 77, 56
4, 89401, Note_on_c, 2, 76, 111
4, 89469, Note_off_c, 2, 76, 56
4, 89519, Note_on_c, 2, 77, 111
4, 89587, Note_off_c, 2, 77, 56
4, 89641, Note_on_c, 2, 79, 111
4, 89709, Note_off_c, 2, 79, 56
4, 89760, Note_on_c, 2, 81, 111
4, 89828, Note_off_c, 2, 81, 56
4, 89880, Note_on_c, 2, 79, 111
4, 89948, Note_off_c, 2, 79, 56
4, 90000, Note_on_c, 2, 81, 111
4, 90068, Note_off_c, 2, 81, 56
4, 90119, Note_on_c, 2, 83, 111
4, 90187, Note_off_c, 2, 83, 56
4, 90242, Note_on_c, 2, 84, 108
4, 90830, Note_off_c, 2, 84, 64
4, 90841, Note_on_c, 2, 72, 111
4, 90909, Note_off_c, 2, 72, 56
4, 90959, Note_on_c, 2, 74, 111
4, 91027, Note_off_c, 2, 74, 56
4, 91079, Note_on_c, 2, 76, 111
4, 91147, Note_off_c, 2, 76, 56
4, 91200, Note_on_c, 2, 79, 114
4, 91217, Note_off_c, 2, 79, 56
4, 91230, Note_on_c, 2, 77, 114
4, 91275, Note_off_c, 2, 77, 56
4, 91321, Note_on_c, 2, 76, 111
4, 91389, Note_off_c, 2, 76, 56
4, 91440, Note_on_c, 2, 77, 111
4, 91508, Note_off_c, 2, 77, 56
4, 91559, Note_on_c, 2, 79, 111
4, 91627, Note_off_c, 2, 79, 56
4, 91680, Note_on_c, 2, 83, 114
4, 91697, Note_off_c, 2, 83, 56
4, 91710, Note_on_c, 2, 81, 114
4, 91755, Note_off_c, 2, 81, 56
4, 91799, Note_on_c, 2, 79, 111
4, 91867, Note_off_c, 2, 79, 56
4, 91921, Note_on_c, 2, 81, 111
4, 91989, Note_off_c, 2, 81, 56
4, 92040, Note_on_c, 2, 83, 111
4, 92108, Note_off_c, 2, 83, 56
4, 92160, Note_on_c, 2, 79, 111
4, 92228, Note_off_c, 2, 79, 56
4, 92280, Note_on_c, 2, 71, 111
4, 92348, Note_off_c, 2, 71, 56
4, 92400, Note_on_c, 2, 72, 111
4, 92468, Note_off_c, 2, 72, 56
4, 92520, Note_on_c, 2, 74, 111
4, 92588, Note_off_c, 2, 74, 56
4, 92640, Note_on_c, 2, 76, 108
4, 92845, Note_off_c, 2, 76, 64
4, 92881, Note_on_c, 2, 79, 111
4, 92972, Note_off_c, 2, 79, 56
4, 93060, Note_on_c, 2, 79, 114
4, 93105, Note_off_c, 2, 79, 56
4, 93122, Note_on_c, 2, 79, 111
4, 93230, Note_off_c, 2, 79, 56
4, 93240, Note_on_c, 2, 77, 111
4, 93331, Note_off_c, 2, 77, 56
4, 93361, Note_on_c, 2, 77, 111
4, 93452, Note_off_c, 2, 77, 56
4, 93540, Note_on_c, 2, 77, 114
4, 93585, Note_off_c, 2, 77, 56
4, 93602, Note_on_c, 2, 77, 111
4, 93710, Note_off_c, 2, 77, 56
4, 93719, Note_on_c, 2, 76, 111
4, 93810, Note_off_c, 2, 76, 56
4, 93840, Note_on_c, 2, 76, 111
4, 93931, Note_off_c, 2, 76, 56
4, 94020, Note_on_c, 2, 76, 114
4, 94065, Note_off_c, 2, 76, 56
4, 94081, Note_on_c, 2, 76, 111
4, 94189, Note_off_c, 2, 76, 56
4, 94201, Note_on_c, 2, 74, 111
4, 94292, Note_off_c, 2, 74, 56
4, 94317, Note_on_c, 2, 74, 108
4, 94749, Note_off_c, 2, 74, 64
4, 94799, Note_on_c, 2, 76, 111
4, 94890, Note_off_c, 2, 76, 56
4, 94980, Note_on_c, 2, 79, 114
4, 95025, Note_off_c, 2, 79, 56
4, 95042, Note_on_c, 2, 79, 111
4, 95150, Note_off_c, 2, 79, 56
4, 95160, Note_on_c, 2, 77, 111
4, 95251, Note_off_c, 2, 77, 56
4, 95280, Note_on_c, 2, 77, 111
4, 95371, Note_off_c, 2, 77, 56
4, 95460, Note_on_c, 2, 77, 114
4, 95505, Note_off_c, 2, 77, 56
4, 95518, Note_on_c, 2, 77, 111
4, 95626, Note_off_c, 2, 77, 56
4, 95640, Note_on_c, 2, 76, 111
4, 95731, Note_off_c, 2, 76, 56
4, 95759, Note_on_c, 2, 76, 111
4, 95850, Note_off_c, 2, 76, 56
4, 95940, Note_on_c, 2, 76, 114
4, 95985, Note_off_c, 2, 76, 56
4, 96001, Note_on_c, 2, 76, 111
4, 96109, Note_off_c, 2, 76, 56
4, 96121, Note_on_c, 2, 74, 111
4, 96212, Note_off_c, 2, 74, 56
4, 96242, Note_on_c, 2, 74, 108
4, 96674, Note_off_c, 2, 74, 64
4, 96719, Note_on_c, 2, 76, 111
4, 96787, Note_off_c, 2, 76, 56
4, 96900, Note_on_c, 2, 79, 114
4, 96934, Note_off_c, 2, 79, 56
4, 96959, Note_on_c, 2, 79, 111
4, 97027, Note_off_c, 2, 79, 56
4, 97140, Note_on_c, 2, 77, 114
4, 97174, Note_off_c, 2, 77, 56
4, 97201, Note_on_c, 2, 77, 111
4, 97269, Note_off_c, 2, 77, 56
4, 97380, Note_on_c, 2, 77, 114
4, 97414, Note_off_c, 2, 77, 56
4, 97439, Note_on_c, 2, 77, 111
4, 97507, Note_off_c, 2, 77, 56
4, 97620, Note_on_c, 2, 76, 114
4, 97654, Note_off_c, 2, 76, 56
4, 97681, Note_on_c, 2, 76, 111
4, 97749, Note_off_c, 2, 76, 56
4, 97860, Note_on_c, 2, 76, 114
4, 97894, Note_off_c, 2, 76, 56
4, 97919, Note_on_c, 2, 74, 108
4, 98124, Note_off_c, 2, 74, 64
4, 98160, Note_on_c, 2, 79, 108
4, 98592, Note_off_c, 2, 79, 64
4, 98641, Note_on_c, 2, 81, 114
4, 98695, Note_off_c, 2, 81, 56
4, 98699, Note_on_c, 2, 79, 114
4, 98753, Note_off_c, 2, 79, 56
4, 98759, Note_on_c, 2, 77, 114
4, 98813, Note_off_c, 2, 77, 56
4, 98819, Note_on_c, 2, 76, 114
4, 98873, Note_off_c, 2, 76, 56
4, 98881, Note_on_c, 2, 74, 111
4, 98972, Note_off_c, 2, 74, 56
4, 99060, Note_on_c, 2, 74, 114
4, 99105, Note_off_c, 2, 74, 56
4, 99120, Note_on_c, 2, 79, 108
4, 99552, Note_off_c, 2, 79, 64
4, 99599, Note_on_c, 2, 81, 114
4, 99653, Note_off_c, 2, 81, 56
4, 99659, Note_on_c, 2, 79, 114
4, 99713, Note_off_c, 2, 79, 56
4, 99719, Note_on_c, 2, 77, 114
4, 99773, Note_off_c, 2, 77, 56
4, 99780, Note_on_c, 2, 76, 114
4, 99825, Note_off_c, 2, 76, 56
4, 99839, Note_on_c, 2, 74, 111
4, 99930, Note_off_c, 2, 74, 56
4, 100020, Note_on_c, 2, 79, 114
4, 100065, Note_off_c, 2, 79, 56
4, 100079, Note_on_c, 2, 81, 114
4, 100133, Note_off_c, 2, 81, 56
4, 100141, Note_on_c, 2, 79, 114
4, 100195, Note_off_c, 2, 79, 56
4, 100201, Note_on_c, 2, 77, 114
4, 100255, Note_off_c, 2, 77, 56
4, 100259, Note_on_c, 2, 76, 114
4, 100313, Note_off_c, 2, 76, 56
4, 100319, Note_on_c, 2, 74, 111
4, 100410, Note_off_c, 2, 74, 56
4, 100500, Note_on_c, 2, 79, 114
4, 100545, Note_off_c, 2, 79, 56
4, 100559, Note_on_c, 2, 81, 114
4, 100613, Note_off_c, 2, 81, 56
4, 100621, Note_on_c, 2, 79, 114
4, 100675, Note_off_c, 2, 79, 56
4, 100680, Note_on_c, 2, 77, 114
4, 100734, Note_off_c, 2, 77, 56
4, 100741, Note_on_c, 2, 76, 114
4, 100795, Note_off_c, 2, 76, 56
4, 100801, Note_on_c, 2, 74, 111
4, 100892, Note_off_c, 2, 74, 56
4, 100980, Note_on_c, 2, 79, 114
4, 101025, Note_off_c, 2, 79, 56
4, 101040, Note_on_c, 2, 81, 114
4, 101094, Note_off_c, 2, 81, 56
4, 101100, Note_on_c, 2, 79, 114
4, 101154, Note_off_c, 2, 79, 56
4, 101160, Note_on_c, 2, 77, 114
4, 101214, Note_off_c, 2, 77, 56
4, 101221, Note_on_c, 2, 76, 114
4, 101275, Note_off_c, 2, 76, 56
4, 101280, Note_on_c, 2, 74, 111
4, 101388, Note_off_c, 2, 74, 56
4, 101460, Note_on_c, 2, 79, 114
4, 101505, Note_off_c, 2, 79, 56
4, 101519, Note_on_c, 2, 81, 114
4, 101573, Note_off_c, 2, 81, 56
4, 101581, Note_on_c, 2, 79, 114
4, 101635, Note_off_c, 2, 79, 56
4, 101641, Note_on_c, 2, 77, 114
4, 101695, Note_off_c, 2, 77, 56
4, 101700, Note_on_c, 2, 76, 114
4, 101754, Note_off_c, 2, 76, 56
4, 101761, Note_on_c, 2, 74, 111
4, 101852, Note_off_c, 2, 74, 56
4, 103802, Note_on_c, 2, 72, 111
4, 103910, Note_off_c, 2, 72, 56
4, 103921, Note_on_c, 2, 71, 111
4, 104012, Note_off_c, 2, 71, 56
4, 104039, Note_on_c, 2, 69, 111
4, 104107, Note_off_c, 2, 69, 56
4, 104160, Note_on_c, 2, 67, 111
4, 104228, Note_off_c, 2, 67, 56
4, 104278, Note_on_c, 2, 72, 111
4, 104386, Note_off_c, 2, 72, 56
4, 104399, Note_on_c, 2, 71, 111
4, 104490, Note_off_c, 2, 71, 56
4, 104520, Note_on_c, 2, 69, 111
4, 104588, Note_off_c, 2, 69, 56
4, 104641, Note_on_c, 2, 67, 111
4, 104709, Note_off_c, 2, 67, 56
4, 104759, Note_on_c, 2, 72, 111
4, 104827, Note_off_c, 2, 72, 56
4, 104879, Note_on_c, 2, 71, 111
4, 104970, Note_off_c, 2, 71, 56
4, 105001, Note_on_c, 2, 69, 111
4, 105092, Note_off_c, 2, 69, 56
4, 105121, Note_on_c, 2, 67, 111
4, 105189, Note_off_c, 2, 67, 56
4, 105241, Note_on_c, 2, 77, 111
4, 105309, Note_off_c, 2, 77, 56
4, 105360, Note_on_c, 2, 76, 111
4, 105428, Note_off_c, 2, 76, 56
4, 105481, Note_on_c, 2, 74, 111
4, 105549, Note_off_c, 2, 74, 56
4, 105603, Note_on_c, 2, 72, 108
4, 106251, Note_off_c, 2, 72, 64
4, 106323, Note_on_c, 2, 67, 108
4, 106539, Note_off_c, 2, 67, 64
4, 106563, Note_on_c, 2, 76, 108
4, 107247, Note_off_c, 2, 76, 64
4, 107277, Note_on_c, 2, 74, 108
4, 107439, Note_off_c, 2, 74, 64
4, 107460, Note_on_c, 2, 72, 114
4, 107505, Note_off_c, 2, 72, 56
4, 107519, Note_on_c, 2, 71, 108
4, 107724, Note_off_c, 2, 71, 64
4, 109443, Note_on_c, 2, 74, 108
4, 110091, Note_off_c, 2, 74, 64
4, 110161, Note_on_c, 2, 67, 108
4, 110377, Note_off_c, 2, 67, 64
4, 110400, Note_on_c, 2, 77, 108
4, 111084, Note_off_c, 2, 77, 64
4, 111119, Note_on_c, 2, 76, 108
4, 111281, Note_off_c, 2, 76, 64
4, 111300, Note_on_c, 2, 74, 114
4, 111345, Note_off_c, 2, 74, 56
4, 111357, Note_on_c, 2, 74, 108
4, 111573, Note_off_c, 2, 74, 64
4, 111599, Note_on_c, 2, 76, 108
4, 113183, Note_off_c, 2, 76, 64
4, 113280, Note_on_c, 2, 84, 108
4, 113485, Note_off_c, 2, 84, 64
4, 114238, Note_on_c, 2, 84, 108
4, 114443, Note_off_c, 2, 84, 64
4, 115203, Note_on_c, 2, 81, 108
4, 115408, Note_off_c, 2, 81, 64
4, 116158, Note_on_c, 2, 81, 108
4, 116363, Note_off_c, 2, 81, 64
4, 117123, Note_on_c, 2, 83, 108
4, 117328, Note_off_c, 2, 83, 64
4, 117603, Note_on_c, 2, 83, 108
4, 117808, Note_off_c, 2, 83, 64
4, 118079, Note_on_c, 2, 81, 108
4, 118284, Note_off_c, 2, 81, 64
4, 118562, Note_on_c, 2, 81, 108
4, 118767, Note_off_c, 2, 81, 64
4, 119042, Note_on_c, 2, 83, 108
4, 119247, Note_off_c, 2, 83, 64
4, 119522, Note_on_c, 2, 83, 108
4, 119727, Note_off_c, 2, 83, 64
4, 119998, Note_on_c, 2, 81, 108
4, 120203, Note_off_c, 2, 81, 64
4, 120241, Note_on_c, 2, 86, 108
4, 121549, Note_off_c, 2, 86, 64
4, 121560, Note_on_c, 2, 78, 111
4, 121668, Note_off_c, 2, 78, 56
4, 121680, Note_on_c, 2, 79, 111
4, 121771, Note_off_c, 2, 79, 56
4, 121799, Note_on_c, 2, 79, 111
4, 121867, Note_off_c, 2, 79, 56
4, 121919, Note_on_c, 2, 78, 111
4, 122010, Note_off_c, 2, 78, 56
4, 122042, Note_on_c, 2, 74, 111
4, 122150, Note_off_c, 2, 74, 56
4, 122160, Note_on_c, 2, 73, 111
4, 122251, Note_off_c, 2, 73, 56
4, 122280, Note_on_c, 2, 79, 111
4, 122348, Note_off_c, 2, 79, 56
4, 122400, Note_on_c, 2, 78, 111
4, 122491, Note_off_c, 2, 78, 56
4, 123842, Note_on_c, 2, 83, 108
4, 123978, Note_off_c, 2, 83, 64
4, 124318, Note_on_c, 2, 84, 108
4, 124454, Note_off_c, 2, 84, 64
4, 124802, Note_on_c, 2, 83, 108
4, 125450, Note_off_c, 2, 83, 64
4, 127440, Note_on_c, 2, 69, 93
4, 127508, Note_off_c, 2, 69, 56
4, 127519, Note_on_c, 2, 71, 93
4, 127587, Note_off_c, 2, 71, 56
4, 127601, Note_on_c, 2, 72, 93
4, 127669, Note_off_c, 2, 72, 56
4, 127682, Note_on_c, 2, 74, 90
4, 127887, Note_off_c, 2, 74, 64
4, 127921, Note_on_c, 2, 71, 93
4, 127989, Note_off_c, 2, 71, 56
4, 128000, Note_on_c, 2, 72, 93
4, 128068, Note_off_c, 2, 72, 56
4, 128081, Note_on_c, 2, 74, 93
4, 128149, Note_off_c, 2, 74, 56
4, 128157, Note_on_c, 2, 76, 90
4, 128362, Note_off_c, 2, 76, 64
4, 128400, Note_on_c, 2, 76, 93
4, 128468, Note_off_c, 2, 76, 56
4, 128479, Note_on_c, 2, 78, 93
4, 128547, Note_off_c, 2, 78, 56
4, 128559, Note_on_c, 2, 79, 93
4, 128627, Note_off_c, 2, 79, 56
4, 128643, Note_on_c, 2, 74, 90
4, 129291, Note_off_c, 2, 74, 64
4, 134162, Note_on_c, 2, 72, 58
4, 134367, Note_off_c, 2, 72, 64
4, 134401, Note_on_c, 2, 74, 63
4, 135265, Note_off_c, 2, 74, 64
4, 135359, Note_on_c, 2, 75, 82
4, 136223, Note_off_c, 2, 75, 64
4, 136320, Note_on_c, 2, 84, 102
4, 136908, Note_off_c, 2, 84, 64
4, 136921, Note_on_c, 2, 84, 111
4, 137012, Note_off_c, 2, 84, 56
4, 137040, Note_on_c, 2, 84, 111
4, 137131, Note_off_c, 2, 84, 56
4, 137161, Note_on_c, 2, 84, 111
4, 137252, Note_off_c, 2, 84, 56
4, 137281, Note_on_c, 2, 84, 111
4, 137372, Note_off_c, 2, 84, 56
4, 137401, Note_on_c, 2, 84, 111
4, 137492, Note_off_c, 2, 84, 56
4, 137520, Note_on_c, 2, 84, 111
4, 137611, Note_off_c, 2, 84, 56
4, 137641, Note_on_c, 2, 84, 111
4, 137732, Note_off_c, 2, 84, 56
4, 137759, Note_on_c, 2, 84, 111
4, 137850, Note_off_c, 2, 84, 56
4, 137880, Note_on_c, 2, 84, 111
4, 137971, Note_off_c, 2, 84, 56
4, 138001, Note_on_c, 2, 84, 111
4, 138092, Note_off_c, 2, 84, 56
4, 138119, Note_on_c, 2, 84, 111
4, 138210, Note_off_c, 2, 84, 56
4, 138243, Note_on_c, 2, 84, 108
4, 138448, Note_off_c, 2, 84, 64
4, 138478, Note_on_c, 2, 73, 108
4, 138683, Note_off_c, 2, 73, 64
4, 138717, Note_on_c, 2, 74, 108
4, 138922, Note_off_c, 2, 74, 64
4, 138957, Note_on_c, 2, 75, 108
4, 139162, Note_off_c, 2, 75, 64
4, 139198, Note_on_c, 2, 76, 108
4, 139403, Note_off_c, 2, 76, 64
4, 139440, Note_on_c, 2, 78, 108
4, 139645, Note_off_c, 2, 78, 64
4, 139681, Note_on_c, 2, 79, 111
4, 139772, Note_off_c, 2, 79, 56
4, 139801, Note_on_c, 2, 74, 111
4, 139892, Note_off_c, 2, 74, 56
4, 139921, Note_on_c, 2, 72, 111
4, 140012, Note_off_c, 2, 72, 56
4, 140041, Note_on_c, 2, 71, 111
4, 140132, Note_off_c, 2, 71, 56
4, 140162, Note_on_c, 2, 84, 108
4, 140298, Note_off_c, 2, 84, 64
4, 141118, Note_on_c, 2, 81, 108
4, 141254, Note_off_c, 2, 81, 64
4, 147119, Note_on_c, 2, 77, 108
4, 147324, Note_off_c, 2, 77, 64
4, 147362, Note_on_c, 2, 77, 108
4, 147567, Note_off_c, 2, 77, 64
4, 147597, Note_on_c, 2, 77, 108
4, 147802, Note_off_c, 2, 77, 64
4, 147838, Note_on_c, 2, 76, 108
4, 148270, Note_off_c, 2, 76, 64
4, 148321, Note_on_c, 2, 76, 108
4, 148720, Note_off_c, 2, 76, 64
4, 148739, Note_on_c, 2, 72, 114
4, 148793, Note_off_c, 2, 72, 56
4, 148799, Note_on_c, 2, 71, 108
4, 149255, Note_off_c, 2, 71, 64
4, 149282, Note_on_c, 2, 72, 108
4, 149681, Note_off_c, 2, 72, 64
4, 149700, Note_on_c, 2, 69, 114
4, 149745, Note_off_c, 2, 69, 56
4, 149763, Note_on_c, 2, 79, 90
4, 150411, Note_off_c, 2, 79, 64
4, 150483, Note_on_c, 2, 78, 90
4, 150688, Note_off_c, 2, 78, 64
4, 150719, Note_on_c, 2, 76, 90
4, 150924, Note_off_c, 2, 76, 64
4, 150960, Note_on_c, 2, 74, 90
4, 151165, Note_off_c, 2, 74, 64
4, 151197, Note_on_c, 2, 74, 90
4, 151402, Note_off_c, 2, 74, 64
4, 151441, Note_on_c, 2, 74, 90
4, 151646, Note_off_c, 2, 74, 64
4, 151680, Note_on_c, 2, 79, 90
4, 152328, Note_off_c, 2, 79, 64
4, 152401, Note_on_c, 2, 78, 90
4, 152606, Note_off_c, 2, 78, 64
4, 152643, Note_on_c, 2, 76, 90
4, 152848, Note_off_c, 2, 76, 64
4, 152878, Note_on_c, 2, 74, 90
4, 153083, Note_off_c, 2, 74, 64
4, 153117, Note_on_c, 2, 74, 90
4, 153322, Note_off_c, 2, 74, 64
4, 153358, Note_on_c, 2, 74, 90
4, 153563, Note_off_c, 2, 74, 64
4, 153601, Note_on_c, 2, 84, 96
4, 154249, Note_off_c, 2, 84, 64
4, 154318, Note_on_c, 2, 83, 90
4, 154523, Note_off_c, 2, 83, 64
4, 154558, Note_on_c, 2, 81, 93
4, 154763, Note_off_c, 2, 81, 64
4, 154801, Note_on_c, 2, 80, 94
4, 155006, Note_off_c, 2, 80, 64
4, 155039, Note_on_c, 2, 80, 95
4, 155244, Note_off_c, 2, 80, 64
4, 155279, Note_on_c, 2, 80, 96
4, 155484, Note_off_c, 2, 80, 64
4, 155521, Note_on_c, 2, 80, 97
4, 155726, Note_off_c, 2, 80, 64
4, 155763, Note_on_c, 2, 80, 98
4, 155968, Note_off_c, 2, 80, 64
4, 156003, Note_on_c, 2, 80, 100
4, 156208, Note_off_c, 2, 80, 64
4, 156237, Note_on_c, 2, 80, 101
4, 156442, Note_off_c, 2, 80, 64
4, 156480, Note_on_c, 2, 80, 103
4, 156685, Note_off_c, 2, 80, 64
4, 156717, Note_on_c, 2, 80, 104
4, 156922, Note_off_c, 2, 80, 64
4, 156957, Note_on_c, 2, 80, 105
4, 157162, Note_off_c, 2, 80, 64
4, 157203, Note_on_c, 2, 80, 106
4, 157408, Note_off_c, 2, 80, 64
4, 157442, Note_on_c, 2, 77, 108
4, 159266, Note_off_c, 2, 77, 64
4, 159360, Note_on_c, 2, 77, 108
4, 160008, Note_off_c, 2, 77, 64
4, 160081, Note_on_c, 2, 77, 111
4, 160172, Note_off_c, 2, 77, 56
4, 160200, Note_on_c, 2, 77, 111
4, 160291, Note_off_c, 2, 77, 56
4, 160317, Note_on_c, 2, 77, 108
4, 160965, Note_off_c, 2, 77, 64
4, 161041, Note_on_c, 2, 77, 111
4, 161132, Note_off_c, 2, 77, 56
4, 161161, Note_on_c, 2, 77, 111
4, 161252, Note_off_c, 2, 77, 56
4, 161279, Note_on_c, 2, 77, 108
4, 161484, Note_off_c, 2, 77, 64
4, 161521, Note_on_c, 2, 77, 111
4, 161612, Note_off_c, 2, 77, 56
4, 161639, Note_on_c, 2, 77, 111
4, 161730, Note_off_c, 2, 77, 56
4, 161761, Note_on_c, 2, 77, 108
4, 161966, Note_off_c, 2, 77, 64
4, 162001, Note_on_c, 2, 77, 111
4, 162092, Note_off_c, 2, 77, 56
4, 162120, Note_on_c, 2, 77, 111
4, 162211, Note_off_c, 2, 77, 56
4, 162241, Note_on_c, 2, 71, 111
4, 162332, Note_off_c, 2, 71, 56
4, 162359, Note_on_c, 2, 67, 111
4, 162450, Note_off_c, 2, 67, 56
4, 162479, Note_on_c, 2, 74, 111
4, 162570, Note_off_c, 2, 74, 56
4, 162600, Note_on_c, 2, 71, 111
4, 162691, Note_off_c, 2, 71, 56
4, 162719, Note_on_c, 2, 77, 111
4, 162810, Note_off_c, 2, 77, 56
4, 162839, Note_on_c, 2, 74, 111
4, 162930, Note_off_c, 2, 74, 56
4, 162959, Note_on_c, 2, 77, 111
4, 163050, Note_off_c, 2, 77, 56
4, 163079, Note_on_c, 2, 86, 111
4, 163170, Note_off_c, 2, 86, 56
4, 163202, Note_on_c, 2, 86, 108
4, 165986, Note_off_c, 2, 86, 64
4, 166081, Note_on_c, 2, 68, 111
4, 166172, Note_off_c, 2, 68, 56
4, 166201, Note_on_c, 2, 64, 111
4, 166292, Note_off_c, 2, 64, 56
4, 166320, Note_on_c, 2, 71, 111
4, 166411, Note_off_c, 2, 71, 56
4, 166440, Note_on_c, 2, 68, 111
4, 166531, Note_off_c, 2, 68, 56
4, 166559, Note_on_c, 2, 74, 111
4, 166650, Note_off_c, 2, 74, 56
4, 166681, Note_on_c, 2, 71, 111
4, 166772, Note_off_c, 2, 71, 56
4, 166800, Note_on_c, 2, 80, 111
4, 166891, Note_off_c, 2, 80, 56
4, 166921, Note_on_c, 2, 76, 111
4, 167012, Note_off_c, 2, 76, 56
4, 167041, Note_on_c, 2, 76, 108
4, 167246, Note_off_c, 2, 76, 64
4, 167521, Note_on_c, 2, 78, 108
4, 167726, Note_off_c, 2, 78, 64
4, 167998, Note_on_c, 2, 76, 108
4, 168646, Note_off_c, 2, 76, 64
4, 173040, Note_on_c, 2, 72, 76
4, 173112, Note_off_c, 2, 72, 56
4, 173120, Note_on_c, 2, 74, 76
4, 173192, Note_off_c, 2, 74, 56
4, 173200, Note_on_c, 2, 76, 76
4, 173272, Note_off_c, 2, 76, 56
4, 173282, Note_on_c, 2, 77, 73
4, 173418, Note_off_c, 2, 77, 64
4, 173520, Note_on_c, 2, 77, 76
4, 173592, Note_off_c, 2, 77, 56
4, 173599, Note_on_c, 2, 79, 76
4, 173671, Note_off_c, 2, 79, 56
4, 173680, Note_on_c, 2, 81, 76
4, 173752, Note_off_c, 2, 81, 56
4, 173760, Note_on_c, 2, 82, 73
4, 173896, Note_off_c, 2, 82, 64
4, 174960, Note_on_c, 2, 72, 76
4, 175032, Note_off_c, 2, 72, 56
4, 175039, Note_on_c, 2, 74, 76
4, 175111, Note_off_c, 2, 74, 56
4, 175119, Note_on_c, 2, 76, 76
4, 175191, Note_off_c, 2, 76, 56
4, 175200, Note_on_c, 2, 77, 73
4, 175336, Note_off_c, 2, 77, 64
4, 175440, Note_on_c, 2, 77, 76
4, 175512, Note_off_c, 2, 77, 56
4, 175521, Note_on_c, 2, 79, 76
4, 175593, Note_off_c, 2, 79, 56
4, 175601, Note_on_c, 2, 81, 76
4, 175673, Note_off_c, 2, 81, 56
4, 175679, Note_on_c, 2, 82, 73
4, 175815, Note_off_c, 2, 82, 64
4, 176401, Note_on_c, 2, 72, 73
4, 176869, Note_off_c, 2, 72, 64
4, 176877, Note_on_c, 2, 73, 73
4, 177093, Note_off_c, 2, 73, 64
4, 177121, Note_on_c, 2, 74, 73
4, 177337, Note_off_c, 2, 74, 64
4, 177357, Note_on_c, 2, 75, 73
4, 177573, Note_off_c, 2, 75, 64
4, 177599, Note_on_c, 2, 74, 73
4, 177815, Note_off_c, 2, 74, 64
4, 177841, Note_on_c, 2, 78, 73
4, 178057, Note_off_c, 2, 78, 64
4, 178083, Note_on_c, 2, 79, 73
4, 178299, Note_off_c, 2, 79, 64
4, 178321, Note_on_c, 2, 74, 73
4, 178537, Note_off_c, 2, 74, 64
4, 178560, Note_on_c, 2, 79, 73
4, 178776, Note_off_c, 2, 79, 64
4, 178801, Note_on_c, 2, 77, 73
4, 179017, Note_off_c, 2, 77, 64
4, 179043, Note_on_c, 2, 75, 73
4, 179259, Note_off_c, 2, 75, 64
4, 179277, Note_on_c, 2, 76, 73
4, 179493, Note_off_c, 2, 76, 64
4, 179521, Note_on_c, 2, 77, 73
4, 179726, Note_off_c, 2, 77, 64
4, 180241, Note_on_c, 2, 74, 73
4, 180697, Note_off_c, 2, 74, 64
4, 180723, Note_on_c, 2, 74, 73
4, 180939, Note_off_c, 2, 74, 64
4, 180959, Note_on_c, 2, 76, 73
4, 181164, Note_off_c, 2, 76, 64
4, 181200, Note_on_c, 2, 76, 73
4, 181405, Note_off_c, 2, 76, 64
4, 181439, Note_on_c, 2, 76, 73
4, 182087, Note_off_c, 2, 76, 64
4, 182160, Note_on_c, 2, 73, 75
4, 182376, Note_off_c, 2, 73, 64
4, 182403, Note_on_c, 2, 74, 80
4, 182619, Note_off_c, 2, 74, 64
4, 182638, Note_on_c, 2, 75, 83
4, 182854, Note_off_c, 2, 75, 64
4, 182881, Note_on_c, 2, 77, 88
4, 183086, Note_off_c, 2, 77, 64
4, 183123, Note_on_c, 2, 77, 90
4, 185931, Note_off_c, 2, 77, 64
4, 185998, Note_on_c, 2, 77, 90
4, 188806, Note_off_c, 2, 77, 64
4, 189360, Note_on_c, 2, 80, 93
4, 189428, Note_off_c, 2, 80, 56
4, 189441, Note_on_c, 2, 80, 93
4, 189509, Note_off_c, 2, 80, 56
4, 189521, Note_on_c, 2, 80, 93
4, 189589, Note_off_c, 2, 80, 56
4, 189841, Note_on_c, 2, 80, 93
4, 189909, Note_off_c, 2, 80, 56
4, 189920, Note_on_c, 2, 80, 93
4, 189988, Note_off_c, 2, 80, 56
4, 190000, Note_on_c, 2, 80, 93
4, 190068, Note_off_c, 2, 80, 56
4, 190078, Note_on_c, 2, 80, 90
4, 191686, Note_off_c, 2, 80, 64
4, 192239, Note_on_c, 2, 80, 93
4, 192307, Note_off_c, 2, 80, 56
4, 192321, Note_on_c, 2, 80, 93
4, 192389, Note_off_c, 2, 80, 56
4, 192401, Note_on_c, 2, 80, 93
4, 192469, Note_off_c, 2, 80, 56
4, 192719, Note_on_c, 2, 80, 93
4, 192787, Note_off_c, 2, 80, 56
4, 192801, Note_on_c, 2, 80, 93
4, 192869, Note_off_c, 2, 80, 56
4, 192880, Note_on_c, 2, 80, 93
4, 192948, Note_off_c, 2, 80, 56
4, 192959, Note_on_c, 2, 80, 90
4, 194567, Note_off_c, 2, 80, 64
4, 194640, Note_on_c, 2, 72, 93
4, 194712, Note_off_c, 2, 72, 56
4, 194720, Note_on_c, 2, 70, 93
4, 194792, Note_off_c, 2, 70, 56
4, 194801, Note_on_c, 2, 68, 93
4, 194873, Note_off_c, 2, 68, 56
4, 194877, Note_on_c, 2, 67, 90
4, 195093, Note_off_c, 2, 67, 64
4, 195119, Note_on_c, 2, 70, 93
4, 195191, Note_off_c, 2, 70, 56
4, 195199, Note_on_c, 2, 68, 93
4, 195271, Note_off_c, 2, 68, 56
4, 195280, Note_on_c, 2, 67, 93
4, 195352, Note_off_c, 2, 67, 56
4, 195357, Note_on_c, 2, 65, 90
4, 195573, Note_off_c, 2, 65, 64
4, 195601, Note_on_c, 2, 68, 93
4, 195673, Note_off_c, 2, 68, 56
4, 195681, Note_on_c, 2, 67, 93
4, 195753, Note_off_c, 2, 67, 56
4, 195761, Note_on_c, 2, 65, 93
4, 195833, Note_off_c, 2, 65, 56
4, 195840, Note_on_c, 2, 63, 90
4, 195976, Note_off_c, 2, 63, 64
4, 196559, Note_on_c, 2, 75, 93
4, 196631, Note_off_c, 2, 75, 56
4, 196641, Note_on_c, 2, 77, 93
4, 196713, Note_off_c, 2, 77, 56
4, 196720, Note_on_c, 2, 79, 93
4, 196792, Note_off_c, 2, 79, 56
4, 196799, Note_on_c, 2, 72, 90
4, 196935, Note_off_c, 2, 72, 64
4, 198481, Note_on_c, 2, 79, 95
4, 198549, Note_off_c, 2, 79, 56
4, 198560, Note_on_c, 2, 79, 95
4, 198628, Note_off_c, 2, 79, 56
4, 198640, Note_on_c, 2, 79, 95
4, 198708, Note_off_c, 2, 79, 56
4, 198721, Note_on_c, 2, 80, 92
4, 198926, Note_off_c, 2, 80, 64
4, 199440, Note_on_c, 2, 80, 96
4, 199508, Note_off_c, 2, 80, 56
4, 199519, Note_on_c, 2, 80, 96
4, 199587, Note_off_c, 2, 80, 56
4, 199601, Note_on_c, 2, 80, 96
4, 199669, Note_off_c, 2, 80, 56
4, 199680, Note_on_c, 2, 82, 94
4, 199885, Note_off_c, 2, 82, 64
4, 200399, Note_on_c, 2, 82, 98
4, 200467, Note_off_c, 2, 82, 56
4, 200479, Note_on_c, 2, 82, 98
4, 200547, Note_off_c, 2, 82, 56
4, 200560, Note_on_c, 2, 82, 98
4, 200628, Note_off_c, 2, 82, 56
4, 200640, Note_on_c, 2, 84, 95
4, 200845, Note_off_c, 2, 84, 64
4, 201359, Note_on_c, 2, 72, 99
4, 201427, Note_off_c, 2, 72, 56
4, 201441, Note_on_c, 2, 72, 99
4, 201509, Note_off_c, 2, 72, 56
4, 201519, Note_on_c, 2, 72, 100
4, 201587, Note_off_c, 2, 72, 56
4, 201602, Note_on_c, 2, 74, 97
4, 201807, Note_off_c, 2, 74, 64
4, 202321, Note_on_c, 2, 74, 101
4, 202389, Note_off_c, 2, 74, 56
4, 202401, Note_on_c, 2, 74, 101
4, 202469, Note_off_c, 2, 74, 56
4, 202480, Note_on_c, 2, 74, 101
4, 202548, Note_off_c, 2, 74, 56
4, 202561, Note_on_c, 2, 75, 98
4, 202766, Note_off_c, 2, 75, 64
4, 203280, Note_on_c, 2, 75, 103
4, 203348, Note_off_c, 2, 75, 56
4, 203359, Note_on_c, 2, 75, 104
4, 203427, Note_off_c, 2, 75, 56
4, 203441, Note_on_c, 2, 75, 104
4, 203509, Note_off_c, 2, 75, 56
4, 203521, Note_on_c, 2, 77, 101
4, 203726, Note_off_c, 2, 77, 64
4, 204239, Note_on_c, 2, 77, 105
4, 204307, Note_off_c, 2, 77, 56
4, 204320, Note_on_c, 2, 77, 105
4, 204388, Note_off_c, 2, 77, 56
4, 204399, Note_on_c, 2, 77, 105
4, 204467, Note_off_c, 2, 77, 56
4, 204481, Note_on_c, 2, 79, 102
4, 204686, Note_off_c, 2, 79, 64
4, 205201, Note_on_c, 2, 79, 107
4, 205269, Note_off_c, 2, 79, 56
4, 205281, Note_on_c, 2, 79, 107
4, 205349, Note_off_c, 2, 79, 56
4, 205360, Note_on_c, 2, 79, 107
4, 205428, Note_off_c, 2, 79, 56
4, 205679, Note_on_c, 2, 78, 107
4, 205747, Note_off_c, 2, 78, 56
4, 205761, Note_on_c, 2, 78, 107
4, 205829, Note_off_c, 2, 78, 56
4, 205839, Note_on_c, 2, 78, 108
4, 205907, Note_off_c, 2, 78, 56
4, 206159, Note_on_c, 2, 78, 108
4, 206227, Note_off_c, 2, 78, 56
4, 206241, Note_on_c, 2, 78, 108
4, 206309, Note_off_c, 2, 78, 56
4, 206319, Note_on_c, 2, 78, 108
4, 206387, Note_off_c, 2, 78, 56
4, 206641, Note_on_c, 2, 78, 109
4, 206709, Note_off_c, 2, 78, 56
4, 206720, Note_on_c, 2, 78, 109
4, 206788, Note_off_c, 2, 78, 56
4, 206799, Note_on_c, 2, 78, 109
4, 206867, Note_off_c, 2, 78, 56
4, 207120, Note_on_c, 2, 78, 111
4, 207188, Note_off_c, 2, 78, 56
4, 207201, Note_on_c, 2, 78, 111
4, 207269, Note_off_c, 2, 78, 56
4, 207281, Note_on_c, 2, 78, 111
4, 207349, Note_off_c, 2, 78, 56
4, 207357, Note_on_c, 2, 79, 108
4, 208005, Note_off_c, 2, 79, 64
4, 208077, Note_on_c, 2, 84, 108
4, 208282, Note_off_c, 2, 84, 64
4, 208321, Note_on_c, 2, 83, 108
4, 208753, Note_off_c, 2, 83, 64
4, 208800, Note_on_c, 2, 84, 108
4, 209232, Note_off_c, 2, 84, 64
4, 209277, Note_on_c, 2, 86, 108
4, 209925, Note_off_c, 2, 86, 64
4, 209999, Note_on_c, 2, 74, 108
4, 210204, Note_off_c, 2, 74, 64
4, 210238, Note_on_c, 2, 72, 108
4, 210670, Note_off_c, 2, 72, 64
4, 210722, Note_on_c, 2, 74, 108
4, 211154, Note_off_c, 2, 74, 64
4, 211202, Note_on_c, 2, 76, 108
4, 211850, Note_off_c, 2, 76, 64
4, 211917, Note_on_c, 2, 76, 108
4, 212122, Note_off_c, 2, 76, 64
4, 212159, Note_on_c, 2, 74, 108
4, 212591, Note_off_c, 2, 74, 64
4, 212637, Note_on_c, 2, 76, 108
4, 213069, Note_off_c, 2, 76, 64
4, 213123, Note_on_c, 2, 77, 108
4, 213771, Note_off_c, 2, 77, 64
4, 213842, Note_on_c, 2, 77, 108
4, 214047, Note_off_c, 2, 77, 64
4, 214082, Note_on_c, 2, 76, 108
4, 214514, Note_off_c, 2, 76, 64
4, 214558, Note_on_c, 2, 77, 108
4, 214990, Note_off_c, 2, 77, 64
4, 215037, Note_on_c, 2, 79, 108
4, 215901, Note_off_c, 2, 79, 64
4, 216003, Note_on_c, 2, 80, 108
4, 216867, Note_off_c, 2, 80, 64
4, 216959, Note_on_c, 2, 81, 108
4, 218783, Note_off_c, 2, 81, 64
4, 218877, Note_on_c, 2, 83, 108
4, 219741, Note_off_c, 2, 83, 64
4, 219838, Note_on_c, 2, 83, 108
4, 220702, Note_off_c, 2, 83, 64
4, 220798, Note_on_c, 2, 83, 108
4, 221003, Note_off_c, 2, 83, 64
4, 221040, Note_on_c, 2, 83, 111
4, 221131, Note_off_c, 2, 83, 56
4, 221161, Note_on_c, 2, 83, 111
4, 221252, Note_off_c, 2, 83, 56
4, 221280, Note_on_c, 2, 83, 108
4, 221485, Note_off_c, 2, 83, 64
4, 221521, Note_on_c, 2, 83, 111
4, 221612, Note_off_c, 2, 83, 56
4, 221640, Note_on_c, 2, 83, 111
4, 221731, Note_off_c, 2, 83, 56
4, 221759, Note_on_c, 2, 83, 108
4, 221964, Note_off_c, 2, 83, 64
4, 222000, Note_on_c, 2, 83, 111
4, 222091, Note_off_c, 2, 83, 56
4, 222119, Note_on_c, 2, 83, 111
4, 222210, Note_off_c, 2, 83, 56
4, 222240, Note_on_c, 2, 83, 108
4, 222445, Note_off_c, 2, 83, 64
4, 222481, Note_on_c, 2, 83, 111
4, 222572, Note_off_c, 2, 83, 56
4, 222599, Note_on_c, 2, 83, 111
4, 222690, Note_off_c, 2, 83, 56
4, 222719, Note_on_c, 2, 83, 108
4, 222924, Note_off_c, 2, 83, 64
4, 222959, Note_on_c, 2, 83, 111
4, 223050, Note_off_c, 2, 83, 56
4, 223079, Note_on_c, 2, 83, 111
4, 223170, Note_off_c, 2, 83, 56
4, 223202, Note_on_c, 2, 83, 108
4, 223407, Note_off_c, 2, 83, 64
4, 223441, Note_on_c, 2, 83, 111
4, 223532, Note_off_c, 2, 83, 56
4, 223560, Note_on_c, 2, 83, 111
4, 223651, Note_off_c, 2, 83, 56
4, 223682, Note_on_c, 2, 83, 108
4, 223887, Note_off_c, 2, 83, 64
4, 223920, Note_on_c, 2, 83, 111
4, 224011, Note_off_c, 2, 83, 56
4, 224039, Note_on_c, 2, 83, 111
4, 224130, Note_off_c, 2, 83, 56
4, 224161, Note_on_c, 2, 83, 108
4, 224366, Note_off_c, 2, 83, 64
4, 224401, Note_on_c, 2, 83, 111
4, 224492, Note_off_c, 2, 83, 56
4, 224519, Note_on_c, 2, 83, 111
4, 224610, Note_off_c, 2, 83, 56
4, 224641, Note_on_c, 2, 83, 108
4, 227425, Note_off_c, 2, 83, 64
4, 227522, Note_on_c, 2, 79, 108
4, 227727, Note_off_c, 2, 79, 64
4, 241200, Note_on_c, 2, 72, 73
4, 241405, Note_off_c, 2, 72, 64
4, 241442, Note_on_c, 2, 72, 73
4, 241647, Note_off_c, 2, 72, 64
4, 241683, Note_on_c, 2, 72, 73
4, 241888, Note_off_c, 2, 72, 64
4, 241923, Note_on_c, 2, 72, 73
4, 242571, Note_off_c, 2, 72, 64
4, 242639, Note_on_c, 2, 75, 73
4, 242844, Note_off_c, 2, 75, 64
4, 242878, Note_on_c, 2, 74, 73
4, 243083, Note_off_c, 2, 74, 64
4, 243120, Note_on_c, 2, 72, 73
4, 243325, Note_off_c, 2, 72, 64
4, 243357, Note_on_c, 2, 79, 73
4, 245445, Note_off_c, 2, 79, 64
4, 245519, Note_on_c, 2, 78, 73
4, 246167, Note_off_c, 2, 78, 64
4, 246238, Note_on_c, 2, 79, 73
4, 248326, Note_off_c, 2, 79, 64
4, 248399, Note_on_c, 2, 78, 73
4, 249047, Note_off_c, 2, 78, 64
4, 249119, Note_on_c, 2, 79, 73
4, 249767, Note_off_c, 2, 79, 64
4, 249837, Note_on_c, 2, 77, 73
4, 251205, Note_off_c, 2, 77, 64
4, 251282, Note_on_c, 2, 74, 73
4, 252650, Note_off_c, 2, 74, 64
4, 252720, Note_on_c, 2, 71, 73
4, 254088, Note_off_c, 2, 71, 64
4, 254162, Note_on_c, 2, 74, 73
4, 255530, Note_off_c, 2, 74, 64
4, 255598, Note_on_c, 2, 77, 73
4, 256966, Note_off_c, 2, 77, 64
4, 257042, Note_on_c, 2, 74, 73
4, 258410, Note_off_c, 2, 74, 64
4, 258480, Note_on_c, 2, 71, 73
4, 259848, Note_off_c, 2, 71, 64
4, 259917, Note_on_c, 2, 74, 73
4, 261285, Note_off_c, 2, 74, 64
4, 261358, Note_on_c, 2, 77, 73
4, 262726, Note_off_c, 2, 77, 64
4, 262801, Note_on_c, 2, 74, 73
4, 263449, Note_off_c, 2, 74, 64
4, 263520, Note_on_c, 2, 71, 73
4, 264168, Note_off_c, 2, 71, 64
4, 264242, Note_on_c, 2, 74, 73
4, 264890, Note_off_c, 2, 74, 64
4, 264959, Note_on_c, 2, 77, 85
4, 265607, Note_off_c, 2, 77, 64
4, 265677, Note_on_c, 2, 71, 96
4, 266325, Note_off_c, 2, 71, 64
4, 266402, Note_on_c, 2, 72, 108
4, 266834, Note_off_c, 2, 72, 64
4, 266883, Note_on_c, 2, 76, 108
4, 267315, Note_off_c, 2, 76, 64
4, 267363, Note_on_c, 2, 79, 108
4, 268011, Note_off_c, 2, 79, 64
4, 268081, Note_on_c, 2, 77, 111
4, 268183, Note_off_c, 2, 77, 56
4, 268562, Note_on_c, 2, 74, 111
4, 268664, Note_off_c, 2, 74, 56
4, 268801, Note_on_c, 2, 72, 111
4, 268903, Note_off_c, 2, 72, 56
4, 269039, Note_on_c, 2, 74, 111
4, 269141, Note_off_c, 2, 74, 56
4, 269282, Note_on_c, 2, 72, 108
4, 269930, Note_off_c, 2, 72, 64
4, 270001, Note_on_c, 2, 72, 108
4, 270154, Note_off_c, 2, 72, 64
4, 270180, Note_on_c, 2, 72, 114
4, 270231, Note_off_c, 2, 72, 56
4, 270240, Note_on_c, 2, 74, 108
4, 270888, Note_off_c, 2, 74, 64
4, 270960, Note_on_c, 2, 74, 108
4, 271113, Note_off_c, 2, 74, 64
4, 271139, Note_on_c, 2, 74, 114
4, 271190, Note_off_c, 2, 74, 56
4, 271200, Note_on_c, 2, 76, 108
4, 271788, Note_off_c, 2, 76, 64
4, 271801, Note_on_c, 2, 72, 111
4, 271869, Note_off_c, 2, 72, 56
4, 271919, Note_on_c, 2, 74, 111
4, 271987, Note_off_c, 2, 74, 56
4, 272041, Note_on_c, 2, 76, 111
4, 272109, Note_off_c, 2, 76, 56
4, 272159, Note_on_c, 2, 77, 111
4, 272227, Note_off_c, 2, 77, 56
4, 272280, Note_on_c, 2, 76, 111
4, 272348, Note_off_c, 2, 76, 56
4, 272399, Note_on_c, 2, 77, 111
4, 272467, Note_off_c, 2, 77, 56
4, 272520, Note_on_c, 2, 79, 111
4, 272588, Note_off_c, 2, 79, 56
4, 272641, Note_on_c, 2, 81, 111
4, 272709, Note_off_c, 2, 81, 56
4, 272759, Note_on_c, 2, 79, 111
4, 272827, Note_off_c, 2, 79, 56
4, 272881, Note_on_c, 2, 81, 111
4, 272949, Note_off_c, 2, 81, 56
4, 273001, Note_on_c, 2, 83, 111
4, 273069, Note_off_c, 2, 83, 56
4, 273118, Note_on_c, 2, 84, 108
4, 273706, Note_off_c, 2, 84, 64
4, 273720, Note_on_c, 2, 72, 111
4, 273788, Note_off_c, 2, 72, 56
4, 273839, Note_on_c, 2, 74, 111
4, 273907, Note_off_c, 2, 74, 56
4, 273961, Note_on_c, 2, 76, 111
4, 274029, Note_off_c, 2, 76, 56
4, 274079, Note_on_c, 2, 77, 111
4, 274147, Note_off_c, 2, 77, 56
4, 274199, Note_on_c, 2, 76, 111
4, 274267, Note_off_c, 2, 76, 56
4, 274319, Note_on_c, 2, 77, 111
4, 274387, Note_off_c, 2, 77, 56
4, 274441, Note_on_c, 2, 79, 111
4, 274509, Note_off_c, 2, 79, 56
4, 274560, Note_on_c, 2, 81, 111
4, 274628, Note_off_c, 2, 81, 56
4, 274681, Note_on_c, 2, 79, 111
4, 274749, Note_off_c, 2, 79, 56
4, 274799, Note_on_c, 2, 81, 111
4, 274867, Note_off_c, 2, 81, 56
4, 274919, Note_on_c, 2, 83, 111
4, 274987, Note_off_c, 2, 83, 56
4, 275037, Note_on_c, 2, 84, 108
4, 275625, Note_off_c, 2, 84, 64
4, 275641, Note_on_c, 2, 72, 111
4, 275709, Note_off_c, 2, 72, 56
4, 275759, Note_on_c, 2, 74, 111
4, 275827, Note_off_c, 2, 74, 56
4, 275879, Note_on_c, 2, 76, 111
4, 275947, Note_off_c, 2, 76, 56
4, 276000, Note_on_c, 2, 79, 114
4, 276017, Note_off_c, 2, 79, 56
4, 276029, Note_on_c, 2, 77, 114
4, 276080, Note_off_c, 2, 77, 56
4, 276119, Note_on_c, 2, 76, 111
4, 276187, Note_off_c, 2, 76, 56
4, 276240, Note_on_c, 2, 77, 111
4, 276308, Note_off_c, 2, 77, 56
4, 276361, Note_on_c, 2, 79, 111
4, 276429, Note_off_c, 2, 79, 56
4, 276480, Note_on_c, 2, 83, 114
4, 276497, Note_off_c, 2, 83, 56
4, 276511, Note_on_c, 2, 81, 114
4, 276562, Note_off_c, 2, 81, 56
4, 276600, Note_on_c, 2, 79, 111
4, 276668, Note_off_c, 2, 79, 56
4, 276719, Note_on_c, 2, 81, 111
4, 276787, Note_off_c, 2, 81, 56
4, 276839, Note_on_c, 2, 83, 111
4, 276907, Note_off_c, 2, 83, 56
4, 276960, Note_on_c, 2, 72, 111
4, 276961, Note_on_c, 2, 79, 111
4, 277028, Note_off_c, 2, 72, 56
4, 277029, Note_off_c, 2, 79, 56
4, 277080, Note_on_c, 2, 71, 111
4, 277148, Note_off_c, 2, 71, 56
4, 277201, Note_on_c, 2, 72, 111
4, 277269, Note_off_c, 2, 72, 56
4, 277319, Note_on_c, 2, 74, 111
4, 277387, Note_off_c, 2, 74, 56
4, 277438, Note_on_c, 2, 76, 108
4, 277643, Note_off_c, 2, 76, 64
4, 277681, Note_on_c, 2, 79, 111
4, 277783, Note_off_c, 2, 79, 56
4, 277860, Note_on_c, 2, 79, 114
4, 277911, Note_off_c, 2, 79, 56
4, 277922, Note_on_c, 2, 79, 111
4, 278030, Note_off_c, 2, 79, 56
4, 278039, Note_on_c, 2, 77, 111
4, 278141, Note_off_c, 2, 77, 56
4, 278158, Note_on_c, 2, 77, 111
4, 278260, Note_off_c, 2, 77, 56
4, 278340, Note_on_c, 2, 77, 114
4, 278391, Note_off_c, 2, 77, 56
4, 278400, Note_on_c, 2, 77, 111
4, 278508, Note_off_c, 2, 77, 56
4, 278521, Note_on_c, 2, 76, 111
4, 278623, Note_off_c, 2, 76, 56
4, 278642, Note_on_c, 2, 76, 111
4, 278744, Note_off_c, 2, 76, 56
4, 278819, Note_on_c, 2, 76, 114
4, 278870, Note_off_c, 2, 76, 56
4, 278878, Note_on_c, 2, 76, 111
4, 278986, Note_off_c, 2, 76, 56
4, 279002, Note_on_c, 2, 74, 111
4, 279104, Note_off_c, 2, 74, 56
4, 279118, Note_on_c, 2, 74, 108
4, 279550, Note_off_c, 2, 74, 64
4, 279599, Note_on_c, 2, 76, 111
4, 279701, Note_off_c, 2, 76, 56
4, 279779, Note_on_c, 2, 79, 114
4, 279830, Note_off_c, 2, 79, 56
4, 279842, Note_on_c, 2, 79, 111
4, 279950, Note_off_c, 2, 79, 56
4, 279962, Note_on_c, 2, 77, 111
4, 280064, Note_off_c, 2, 77, 56
4, 280080, Note_on_c, 2, 77, 111
4, 280182, Note_off_c, 2, 77, 56
4, 280260, Note_on_c, 2, 77, 114
4, 280311, Note_off_c, 2, 77, 56
4, 280320, Note_on_c, 2, 77, 111
4, 280428, Note_off_c, 2, 77, 56
4, 280442, Note_on_c, 2, 76, 111
4, 280544, Note_off_c, 2, 76, 56
4, 280559, Note_on_c, 2, 76, 111
4, 280661, Note_off_c, 2, 76, 56
4, 280741, Note_on_c, 2, 76, 114
4, 280792, Note_off_c, 2, 76, 56
4, 280798, Note_on_c, 2, 76, 111
4, 280906, Note_off_c, 2, 76, 56
4, 280920, Note_on_c, 2, 74, 111
4, 281022, Note_off_c, 2, 74, 56
4, 281039, Note_on_c, 2, 74, 108
4, 281471, Note_off_c, 2, 74, 64
4, 281519, Note_on_c, 2, 76, 111
4, 281587, Note_off_c, 2, 76, 56
4, 281700, Note_on_c, 2, 79, 114
4, 281734, Note_off_c, 2, 79, 56
4, 281759, Note_on_c, 2, 79, 111
4, 281827, Note_off_c, 2, 79, 56
4, 281940, Note_on_c, 2, 77, 114
4, 281974, Note_off_c, 2, 77, 56
4, 282000, Note_on_c, 2, 77, 111
4, 282068, Note_off_c, 2, 77, 56
4, 282180, Note_on_c, 2, 77, 114
4, 282214, Note_off_c, 2, 77, 56
4, 282241, Note_on_c, 2, 77, 111
4, 282309, Note_off_c, 2, 77, 56
4, 282420, Note_on_c, 2, 76, 114
4, 282454, Note_off_c, 2, 76, 56
4, 282479, Note_on_c, 2, 76, 111
4, 282547, Note_off_c, 2, 76, 56
4, 282660, Note_on_c, 2, 76, 114
4, 282694, Note_off_c, 2, 76, 56
4, 282721, Note_on_c, 2, 74, 108
4, 282926, Note_off_c, 2, 74, 64
4, 282960, Note_on_c, 2, 79, 108
4, 283392, Note_off_c, 2, 79, 64
4, 283441, Note_on_c, 2, 81, 114
4, 283495, Note_off_c, 2, 81, 56
4, 283500, Note_on_c, 2, 79, 114
4, 283554, Note_off_c, 2, 79, 56
4, 283561, Note_on_c, 2, 77, 114
4, 283615, Note_off_c, 2, 77, 56
4, 283620, Note_on_c, 2, 76, 114
4, 283674, Note_off_c, 2, 76, 56
4, 283680, Note_on_c, 2, 74, 111
4, 283782, Note_off_c, 2, 74, 56
4, 283860, Note_on_c, 2, 74, 114
4, 283911, Note_off_c, 2, 74, 56
4, 283918, Note_on_c, 2, 79, 108
4, 284350, Note_off_c, 2, 79, 64
4, 284399, Note_on_c, 2, 81, 114
4, 284453, Note_off_c, 2, 81, 56
4, 284461, Note_on_c, 2, 79, 114
4, 284515, Note_off_c, 2, 79, 56
4, 284519, Note_on_c, 2, 77, 114
4, 284573, Note_off_c, 2, 77, 56
4, 284580, Note_on_c, 2, 76, 114
4, 284631, Note_off_c, 2, 76, 56
4, 284640, Note_on_c, 2, 74, 111
4, 284742, Note_off_c, 2, 74, 56
4, 284819, Note_on_c, 2, 79, 114
4, 284870, Note_off_c, 2, 79, 56
4, 284881, Note_on_c, 2, 81, 114
4, 284935, Note_off_c, 2, 81, 56
4, 284939, Note_on_c, 2, 79, 114
4, 284993, Note_off_c, 2, 79, 56
4, 285001, Note_on_c, 2, 77, 114
4, 285055, Note_off_c, 2, 77, 56
4, 285060, Note_on_c, 2, 76, 114
4, 285114, Note_off_c, 2, 76, 56
4, 285122, Note_on_c, 2, 74, 111
4, 285224, Note_off_c, 2, 74, 56
4, 285301, Note_on_c, 2, 79, 114
4, 285352, Note_off_c, 2, 79, 56
4, 285361, Note_on_c, 2, 81, 114
4, 285415, Note_off_c, 2, 81, 56
4, 285421, Note_on_c, 2, 79, 114
4, 285475, Note_off_c, 2, 79, 56
4, 285480, Note_on_c, 2, 77, 114
4, 285534, Note_off_c, 2, 77, 56
4, 285540, Note_on_c, 2, 76, 114
4, 285594, Note_off_c, 2, 76, 56
4, 285602, Note_on_c, 2, 74, 111
4, 285704, Note_off_c, 2, 74, 56
4, 285779, Note_on_c, 2, 79, 114
4, 285830, Note_off_c, 2, 79, 56
4, 285839, Note_on_c, 2, 81, 114
4, 285893, Note_off_c, 2, 81, 56
4, 285899, Note_on_c, 2, 79, 114
4, 285953, Note_off_c, 2, 79, 56
4, 285959, Note_on_c, 2, 77, 114
4, 286013, Note_off_c, 2, 77, 56
4, 286020, Note_on_c, 2, 76, 114
4, 286074, Note_off_c, 2, 76, 56
4, 286082, Note_on_c, 2, 74, 111
4, 286190, Note_off_c, 2, 74, 56
4, 286261, Note_on_c, 2, 79, 114
4, 286312, Note_off_c, 2, 79, 56
4, 286319, Note_on_c, 2, 81, 114
4, 286373, Note_off_c, 2, 81, 56
4, 286381, Note_on_c, 2, 79, 114
4, 286435, Note_off_c, 2, 79, 56
4, 286439, Note_on_c, 2, 77, 114
4, 286493, Note_off_c, 2, 77, 56
4, 286500, Note_on_c, 2, 76, 114
4, 286554, Note_off_c, 2, 76, 56
4, 286558, Note_on_c, 2, 74, 111
4, 286660, Note_off_c, 2, 74, 56
4, 288601, Note_on_c, 2, 72, 111
4, 288709, Note_off_c, 2, 72, 56
4, 288722, Note_on_c, 2, 71, 111
4, 288824, Note_off_c, 2, 71, 56
4, 288840, Note_on_c, 2, 69, 111
4, 288908, Note_off_c, 2, 69, 56
4, 288961, Note_on_c, 2, 67, 111
4, 289029, Note_off_c, 2, 67, 56
4, 289081, Note_on_c, 2, 72, 111
4, 289189, Note_off_c, 2, 72, 56
4, 289198, Note_on_c, 2, 71, 111
4, 289300, Note_off_c, 2, 71, 56
4, 289319, Note_on_c, 2, 69, 111
4, 289387, Note_off_c, 2, 69, 56
4, 289441, Note_on_c, 2, 67, 111
4, 289509, Note_off_c, 2, 67, 56
4, 289559, Note_on_c, 2, 72, 111
4, 289627, Note_off_c, 2, 72, 56
4, 289682, Note_on_c, 2, 71, 111
4, 289784, Note_off_c, 2, 71, 56
4, 289800, Note_on_c, 2, 69, 111
4, 289902, Note_off_c, 2, 69, 56
4, 289919, Note_on_c, 2, 67, 111
4, 289987, Note_off_c, 2, 67, 56
4, 290040, Note_on_c, 2, 77, 111
4, 290108, Note_off_c, 2, 77, 56
4, 290160, Note_on_c, 2, 76, 111
4, 290228, Note_off_c, 2, 76, 56
4, 290279, Note_on_c, 2, 74, 111
4, 290347, Note_off_c, 2, 74, 56
4, 290400, Note_on_c, 2, 72, 108
4, 291048, Note_off_c, 2, 72, 64
4, 291119, Note_on_c, 2, 67, 108
4, 291335, Note_off_c, 2, 67, 64
4, 291360, Note_on_c, 2, 76, 108
4, 292044, Note_off_c, 2, 76, 64
4, 292082, Note_on_c, 2, 74, 108
4, 292244, Note_off_c, 2, 74, 64
4, 292261, Note_on_c, 2, 72, 114
4, 292312, Note_off_c, 2, 72, 56
4, 292320, Note_on_c, 2, 71, 108
4, 292525, Note_off_c, 2, 71, 64
4, 294237, Note_on_c, 2, 74, 108
4, 294885, Note_off_c, 2, 74, 64
4, 294959, Note_on_c, 2, 67, 108
4, 295175, Note_off_c, 2, 67, 64
4, 295199, Note_on_c, 2, 77, 108
4, 295883, Note_off_c, 2, 77, 64
4, 295923, Note_on_c, 2, 76, 108
4, 296085, Note_off_c, 2, 76, 64
4, 296099, Note_on_c, 2, 74, 114
4, 296150, Note_off_c, 2, 74, 56
4, 296158, Note_on_c, 2, 82, 108
4, 297982, Note_off_c, 2, 82, 64
4, 298077, Note_on_c, 2, 79, 108
4, 298282, Note_off_c, 2, 79, 64
4, 299040, Note_on_c, 2, 79, 108
4, 299245, Note_off_c, 2, 79, 64
4, 299998, Note_on_c, 2, 81, 108
4, 300203, Note_off_c, 2, 81, 64
4, 300958, Note_on_c, 2, 81, 108
4, 301163, Note_off_c, 2, 81, 64
4, 301923, Note_on_c, 2, 71, 108
4, 302787, Note_off_c, 2, 71, 64
4, 302881, Note_on_c, 2, 71, 108
4, 303313, Note_off_c, 2, 71, 64
4, 303362, Note_on_c, 2, 71, 108
4, 303567, Note_off_c, 2, 71, 64
4, 303598, Note_on_c, 2, 72, 108
4, 303751, Note_off_c, 2, 72, 64
4, 303780, Note_on_c, 2, 74, 114
4, 303831, Note_off_c, 2, 74, 56
4, 303838, Note_on_c, 2, 72, 108
4, 304702, Note_off_c, 2, 72, 64
4, 304799, Note_on_c, 2, 72, 108
4, 305231, Note_off_c, 2, 72, 64
4, 305280, Note_on_c, 2, 72, 108
4, 305485, Note_off_c, 2, 72, 64
4, 305519, Note_on_c, 2, 74, 108
4, 305672, Note_off_c, 2, 74, 64
4, 305701, Note_on_c, 2, 76, 114
4, 305752, Note_off_c, 2, 76, 56
4, 305761, Note_on_c, 2, 74, 108
4, 306193, Note_off_c, 2, 74, 64
4, 306241, Note_on_c, 2, 71, 108
4, 306565, Note_off_c, 2, 71, 64
4, 306599, Note_on_c, 2, 72, 114
4, 306650, Note_off_c, 2, 72, 56
4, 306660, Note_on_c, 2, 74, 114
4, 306711, Note_off_c, 2, 74, 56
4, 306720, Note_on_c, 2, 72, 108
4, 307152, Note_off_c, 2, 72, 64
4, 307200, Note_on_c, 2, 72, 108
4, 307524, Note_off_c, 2, 72, 64
4, 307559, Note_on_c, 2, 74, 114
4, 307610, Note_off_c, 2, 74, 56
4, 307619, Note_on_c, 2, 76, 114
4, 307670, Note_off_c, 2, 76, 56
4, 307679, Note_on_c, 2, 74, 111
4, 307781, Note_off_c, 2, 74, 56
4, 307802, Note_on_c, 2, 79, 108
4, 308234, Note_off_c, 2, 79, 64
4, 308282, Note_on_c, 2, 79, 111
4, 308390, Note_off_c, 2, 79, 56
4, 308398, Note_on_c, 2, 77, 111
4, 308500, Note_off_c, 2, 77, 56
4, 308519, Note_on_c, 2, 76, 111
4, 308587, Note_off_c, 2, 76, 56
4, 308641, Note_on_c, 2, 74, 111
4, 308709, Note_off_c, 2, 74, 56
4, 308761, Note_on_c, 2, 76, 111
4, 308869, Note_off_c, 2, 76, 56
4, 308882, Note_on_c, 2, 74, 111
4, 308984, Note_off_c, 2, 74, 56
4, 309001, Note_on_c, 2, 72, 111
4, 309069, Note_off_c, 2, 72, 56
4, 309118, Note_on_c, 2, 71, 111
4, 309220, Note_off_c, 2, 71, 56
4, 309240, Note_on_c, 2, 83, 111
4, 309348, Note_off_c, 2, 83, 56
4, 309359, Note_on_c, 2, 84, 111
4, 309461, Note_off_c, 2, 84, 56
4, 309479, Note_on_c, 2, 84, 111
4, 309547, Note_off_c, 2, 84, 56
4, 309601, Note_on_c, 2, 83, 111
4, 309669, Note_off_c, 2, 83, 56
4, 309721, Note_on_c, 2, 79, 111
4, 309829, Note_off_c, 2, 79, 56
4, 309839, Note_on_c, 2, 78, 111
4, 309941, Note_off_c, 2, 78, 56
4, 309960, Note_on_c, 2, 84, 111
4, 310028, Note_off_c, 2, 84, 56
4, 310080, Note_on_c, 2, 83, 111
4, 310182, Note_off_c, 2, 83, 56
4, 311521, Note_on_c, 2, 79, 108
4, 311657, Note_off_c, 2, 79, 64
4, 312002, Note_on_c, 2, 81, 108
4, 312138, Note_off_c, 2, 81, 64
4, 312481, Note_on_c, 2, 79, 108
4, 313129, Note_off_c, 2, 79, 64
4, 315120, Note_on_c, 2, 74, 96
4, 315180, Note_off_c, 2, 74, 56
4, 315201, Note_on_c, 2, 76, 96
4, 315261, Note_off_c, 2, 76, 56
4, 315280, Note_on_c, 2, 77, 96
4, 315340, Note_off_c, 2, 77, 56
4, 315357, Note_on_c, 2, 79, 90
4, 315562, Note_off_c, 2, 79, 64
4, 315600, Note_on_c, 2, 76, 96
4, 315660, Note_off_c, 2, 76, 56
4, 315680, Note_on_c, 2, 77, 96
4, 315740, Note_off_c, 2, 77, 56
4, 315761, Note_on_c, 2, 79, 96
4, 315821, Note_off_c, 2, 79, 56
4, 315840, Note_on_c, 2, 81, 90
4, 316045, Note_off_c, 2, 81, 64
4, 316081, Note_on_c, 2, 81, 96
4, 316141, Note_off_c, 2, 81, 56
4, 316159, Note_on_c, 2, 83, 96
4, 316219, Note_off_c, 2, 83, 56
4, 316241, Note_on_c, 2, 84, 96
4, 316301, Note_off_c, 2, 84, 56
4, 316321, Note_on_c, 2, 79, 90
4, 316969, Note_off_c, 2, 79, 64
4, 320879, Note_on_c, 2, 84, 76
4, 320951, Note_off_c, 2, 84, 56
4, 320960, Note_on_c, 2, 82, 76
4, 321032, Note_off_c, 2, 82, 56
4, 321040, Note_on_c, 2, 81, 76
4, 321112, Note_off_c, 2, 81, 56
4, 321118, Note_on_c, 2, 79, 73
4, 321334, Note_off_c, 2, 79, 64
4, 321360, Note_on_c, 2, 82, 76
4, 321432, Note_off_c, 2, 82, 56
4, 321441, Note_on_c, 2, 81, 76
4, 321513, Note_off_c, 2, 81, 56
4, 321521, Note_on_c, 2, 79, 76
4, 321593, Note_off_c, 2, 79, 56
4, 321599, Note_on_c, 2, 77, 73
4, 321815, Note_off_c, 2, 77, 64
4, 321840, Note_on_c, 2, 81, 76
4, 321912, Note_off_c, 2, 81, 56
4, 321919, Note_on_c, 2, 79, 76
4, 321991, Note_off_c, 2, 79, 56
4, 321999, Note_on_c, 2, 77, 76
4, 322071, Note_off_c, 2, 77, 56
4, 322077, Note_on_c, 2, 76, 71
4, 323901, Note_off_c, 2, 76, 64
4, 324001, Note_on_c, 2, 81, 108
4, 324589, Note_off_c, 2, 81, 64
4, 324601, Note_on_c, 2, 81, 111
4, 324703, Note_off_c, 2, 81, 56
4, 324721, Note_on_c, 2, 81, 111
4, 324823, Note_off_c, 2, 81, 56
4, 324842, Note_on_c, 2, 81, 111
4, 324944, Note_off_c, 2, 81, 56
4, 324959, Note_on_c, 2, 81, 111
4, 325061, Note_off_c, 2, 81, 56
4, 325080, Note_on_c, 2, 81, 111
4, 325182, Note_off_c, 2, 81, 56
4, 325201, Note_on_c, 2, 81, 111
4, 325303, Note_off_c, 2, 81, 56
4, 325320, Note_on_c, 2, 81, 111
4, 325422, Note_off_c, 2, 81, 56
4, 325439, Note_on_c, 2, 81, 111
4, 325541, Note_off_c, 2, 81, 56
4, 325558, Note_on_c, 2, 81, 111
4, 325660, Note_off_c, 2, 81, 56
4, 325680, Note_on_c, 2, 81, 111
4, 325782, Note_off_c, 2, 81, 56
4, 325800, Note_on_c, 2, 81, 111
4, 325902, Note_off_c, 2, 81, 56
4, 325917, Note_on_c, 2, 81, 108
4, 326122, Note_off_c, 2, 81, 64
4, 326162, Note_on_c, 2, 78, 108
4, 326367, Note_off_c, 2, 78, 64
4, 326400, Note_on_c, 2, 79, 108
4, 326605, Note_off_c, 2, 79, 64
4, 326639, Note_on_c, 2, 80, 108
4, 326844, Note_off_c, 2, 80, 64
4, 326877, Note_on_c, 2, 81, 108
4, 327082, Note_off_c, 2, 81, 64
4, 327121, Note_on_c, 2, 83, 108
4, 327326, Note_off_c, 2, 83, 64
4, 327360, Note_on_c, 2, 84, 114
4, 327361, Note_on_c, 2, 84, 111
4, 327411, Note_off_c, 2, 84, 56
4, 327419, Note_on_c, 2, 83, 114
4, 327463, Note_off_c, 2, 84, 56
4, 327470, Note_off_c, 2, 83, 56
4, 327480, Note_on_c, 2, 81, 114
4, 327531, Note_off_c, 2, 81, 56
4, 327541, Note_on_c, 2, 79, 114
4, 327592, Note_off_c, 2, 79, 56
4, 327601, Note_on_c, 2, 77, 114
4, 327652, Note_off_c, 2, 77, 56
4, 327661, Note_on_c, 2, 76, 114
4, 327712, Note_off_c, 2, 76, 56
4, 327719, Note_on_c, 2, 74, 114
4, 327770, Note_off_c, 2, 74, 56
4, 327780, Note_on_c, 2, 72, 114
4, 327831, Note_off_c, 2, 72, 56
4, 327840, Note_on_c, 2, 77, 108
4, 327976, Note_off_c, 2, 77, 64
4, 328802, Note_on_c, 2, 74, 108
4, 328938, Note_off_c, 2, 74, 64
4, 329763, Note_on_c, 2, 72, 73
4, 330447, Note_off_c, 2, 72, 64
4, 330479, Note_on_c, 2, 71, 73
4, 330695, Note_off_c, 2, 71, 64
4, 330723, Note_on_c, 2, 69, 73
4, 330939, Note_off_c, 2, 69, 64
4, 330957, Note_on_c, 2, 67, 73
4, 331162, Note_off_c, 2, 67, 64
4, 331200, Note_on_c, 2, 67, 73
4, 331405, Note_off_c, 2, 67, 64
4, 331443, Note_on_c, 2, 67, 73
4, 331648, Note_off_c, 2, 67, 64
4, 331680, Note_on_c, 2, 72, 73
4, 332364, Note_off_c, 2, 72, 64
4, 332400, Note_on_c, 2, 71, 73
4, 332616, Note_off_c, 2, 71, 64
4, 332641, Note_on_c, 2, 69, 73
4, 332857, Note_off_c, 2, 69, 64
4, 332877, Note_on_c, 2, 67, 73
4, 333082, Note_off_c, 2, 67, 64
4, 333118, Note_on_c, 2, 67, 73
4, 333323, Note_off_c, 2, 67, 64
4, 333360, Note_on_c, 2, 67, 73
4, 333565, Note_off_c, 2, 67, 64
4, 333599, Note_on_c, 2, 77, 73
4, 334283, Note_off_c, 2, 77, 64
4, 334318, Note_on_c, 2, 76, 73
4, 334534, Note_off_c, 2, 76, 64
4, 334558, Note_on_c, 2, 74, 73
4, 334774, Note_off_c, 2, 74, 64
4, 334800, Note_on_c, 2, 73, 73
4, 335005, Note_off_c, 2, 73, 64
4, 335043, Note_on_c, 2, 73, 73
4, 335248, Note_off_c, 2, 73, 64
4, 335279, Note_on_c, 2, 73, 73
4, 335484, Note_off_c, 2, 73, 64
4, 335517, Note_on_c, 2, 74, 73
4, 335949, Note_off_c, 2, 74, 64
4, 336000, Note_on_c, 2, 77, 73
4, 336399, Note_off_c, 2, 77, 64
4, 336420, Note_on_c, 2, 74, 79
4, 336474, Note_off_c, 2, 74, 56
4, 336477, Note_on_c, 2, 72, 73
4, 336933, Note_off_c, 2, 72, 64
4, 336959, Note_on_c, 2, 74, 73
4, 337358, Note_off_c, 2, 74, 64
4, 337381, Note_on_c, 2, 71, 79
4, 337432, Note_off_c, 2, 71, 56
4, 337437, Note_on_c, 2, 79, 90
4, 338085, Note_off_c, 2, 79, 64
4, 338163, Note_on_c, 2, 77, 90
4, 338368, Note_off_c, 2, 77, 64
4, 338402, Note_on_c, 2, 77, 90
4, 338607, Note_off_c, 2, 77, 64
4, 338637, Note_on_c, 2, 77, 90
4, 338842, Note_off_c, 2, 77, 64
4, 338880, Note_on_c, 2, 77, 90
4, 339085, Note_off_c, 2, 77, 64
4, 339122, Note_on_c, 2, 77, 90
4, 339327, Note_off_c, 2, 77, 64
4, 339357, Note_on_c, 2, 79, 96
4, 340005, Note_off_c, 2, 79, 64
4, 340081, Note_on_c, 2, 77, 90
4, 340286, Note_off_c, 2, 77, 64
4, 340321, Note_on_c, 2, 77, 90
4, 340526, Note_off_c, 2, 77, 64
4, 340558, Note_on_c, 2, 77, 90
4, 340763, Note_off_c, 2, 77, 64
4, 340797, Note_on_c, 2, 77, 90
4, 341002, Note_off_c, 2, 77, 64
4, 341037, Note_on_c, 2, 77, 90
4, 341242, Note_off_c, 2, 77, 64
4, 341280, Note_on_c, 2, 79, 96
4, 341928, Note_off_c, 2, 79, 64
4, 342002, Note_on_c, 2, 79, 90
4, 342207, Note_off_c, 2, 79, 64
4, 342238, Note_on_c, 2, 81, 90
4, 342443, Note_off_c, 2, 81, 64
4, 342481, Note_on_c, 2, 82, 92
4, 342686, Note_off_c, 2, 82, 64
4, 342723, Note_on_c, 2, 82, 93
4, 342928, Note_off_c, 2, 82, 64
4, 342958, Note_on_c, 2, 82, 95
4, 343163, Note_off_c, 2, 82, 64
4, 343201, Note_on_c, 2, 82, 96
4, 343406, Note_off_c, 2, 82, 64
4, 343437, Note_on_c, 2, 85, 97
4, 343642, Note_off_c, 2, 85, 64
4, 343681, Note_on_c, 2, 85, 98
4, 343886, Note_off_c, 2, 85, 64
4, 343918, Note_on_c, 2, 85, 101
4, 344123, Note_off_c, 2, 85, 64
4, 344159, Note_on_c, 2, 85, 102
4, 344364, Note_off_c, 2, 85, 64
4, 344401, Note_on_c, 2, 85, 103
4, 344606, Note_off_c, 2, 85, 64
4, 344637, Note_on_c, 2, 85, 104
4, 344842, Note_off_c, 2, 85, 64
4, 344881, Note_on_c, 2, 85, 106
4, 345086, Note_off_c, 2, 85, 64
4, 345119, Note_on_c, 2, 85, 108
4, 345983, Note_off_c, 2, 85, 64
4, 346083, Note_on_c, 2, 86, 108
4, 346947, Note_off_c, 2, 86, 64
4, 347040, Note_on_c, 2, 86, 108
4, 347904, Note_off_c, 2, 86, 64
4, 348001, Note_on_c, 2, 84, 108
4, 349825, Note_off_c, 2, 84, 64
4, 349919, Note_on_c, 2, 84, 108
4, 350567, Note_off_c, 2, 84, 64
4, 354959, Note_on_c, 2, 71, 93
4, 355031, Note_off_c, 2, 71, 56
4, 355040, Note_on_c, 2, 72, 93
4, 355112, Note_off_c, 2, 72, 56
4, 355119, Note_on_c, 2, 74, 93
4, 355191, Note_off_c, 2, 74, 56
4, 355439, Note_on_c, 2, 72, 93
4, 355511, Note_off_c, 2, 72, 56
4, 355519, Note_on_c, 2, 74, 93
4, 355591, Note_off_c, 2, 74, 56
4, 355599, Note_on_c, 2, 76, 93
4, 355671, Note_off_c, 2, 76, 56
4, 355921, Note_on_c, 2, 74, 93
4, 355993, Note_off_c, 2, 74, 56
4, 356000, Note_on_c, 2, 76, 93
4, 356072, Note_off_c, 2, 76, 56
4, 356079, Note_on_c, 2, 77, 93
4, 356151, Note_off_c, 2, 77, 56
4, 356880, Note_on_c, 2, 72, 93
4, 356952, Note_off_c, 2, 72, 56
4, 356961, Note_on_c, 2, 74, 93
4, 357033, Note_off_c, 2, 74, 56
4, 357039, Note_on_c, 2, 76, 93
4, 357111, Note_off_c, 2, 76, 56
4, 357360, Note_on_c, 2, 74, 93
4, 357432, Note_off_c, 2, 74, 56
4, 357439, Note_on_c, 2, 76, 93
4, 357511, Note_off_c, 2, 76, 56
4, 357520, Note_on_c, 2, 77, 93
4, 357592, Note_off_c, 2, 77, 56
4, 357839, Note_on_c, 2, 76, 93
4, 357911, Note_off_c, 2, 76, 56
4, 357921, Note_on_c, 2, 77, 93
4, 357993, Note_off_c, 2, 77, 56
4, 357999, Note_on_c, 2, 79, 93
4, 358071, Note_off_c, 2, 79, 56
4, 358323, Note_on_c, 2, 76, 90
4, 358528, Note_off_c, 2, 76, 64
4, 358558, Note_on_c, 2, 74, 93
4, 358990, Note_off_c, 2, 74, 64
4, 359038, Note_on_c, 2, 76, 95
4, 359470, Note_off_c, 2, 76, 64
4, 359519, Note_on_c, 2, 77, 97
4, 360167, Note_off_c, 2, 77, 64
4, 360237, Note_on_c, 2, 77, 101
4, 360442, Note_off_c, 2, 77, 64
4, 360478, Note_on_c, 2, 76, 103
4, 360910, Note_off_c, 2, 76, 64
4, 360960, Note_on_c, 2, 77, 105
4, 361392, Note_off_c, 2, 77, 64
4, 361443, Note_on_c, 2, 79, 108
4, 363267, Note_off_c, 2, 79, 64
4, 363362, Note_on_c, 2, 81, 108
4, 363950, Note_off_c, 2, 81, 64
4, 363959, Note_on_c, 2, 81, 111
4, 364061, Note_off_c, 2, 81, 56
4, 364081, Note_on_c, 2, 81, 111
4, 364183, Note_off_c, 2, 81, 56
4, 364198, Note_on_c, 2, 81, 111
4, 364300, Note_off_c, 2, 81, 56
4, 364323, Note_on_c, 2, 84, 108
4, 364911, Note_off_c, 2, 84, 64
4, 364921, Note_on_c, 2, 84, 111
4, 365023, Note_off_c, 2, 84, 56
4, 365041, Note_on_c, 2, 84, 111
4, 365143, Note_off_c, 2, 84, 56
4, 365158, Note_on_c, 2, 84, 111
4, 365260, Note_off_c, 2, 84, 56
4, 365278, Note_on_c, 2, 84, 108
4, 365483, Note_off_c, 2, 84, 64
4, 365521, Note_on_c, 2, 84, 111
4, 365623, Note_off_c, 2, 84, 56
4, 365638, Note_on_c, 2, 84, 111
4, 365740, Note_off_c, 2, 84, 56
4, 365760, Note_on_c, 2, 84, 111
4, 365862, Note_off_c, 2, 84, 56
4, 365880, Note_on_c, 2, 84, 111
4, 365982, Note_off_c, 2, 84, 56
4, 366002, Note_on_c, 2, 84, 111
4, 366104, Note_off_c, 2, 84, 56
4, 366121, Note_on_c, 2, 84, 111
4, 366223, Note_off_c, 2, 84, 56
4, 366241, Note_on_c, 2, 84, 111
4, 366343, Note_off_c, 2, 84, 56
4, 366362, Note_on_c, 2, 84, 111
4, 366464, Note_off_c, 2, 84, 56
4, 366482, Note_on_c, 2, 84, 111
4, 366584, Note_off_c, 2, 84, 56
4, 366598, Note_on_c, 2, 84, 111
4, 366700, Note_off_c, 2, 84, 56
4, 366722, Note_on_c, 2, 84, 111
4, 366824, Note_off_c, 2, 84, 56
4, 366839, Note_on_c, 2, 84, 111
4, 366941, Note_off_c, 2, 84, 56
4, 366960, Note_on_c, 2, 84, 111
4, 367062, Note_off_c, 2, 84, 56
4, 367081, Note_on_c, 2, 84, 111
4, 367183, Note_off_c, 2, 84, 56
4, 367202, Note_on_c, 2, 83, 108
4, 367338, Note_off_c, 2, 83, 64
4, 368161, Note_on_c, 2, 83, 108
4, 368297, Note_off_c, 2, 83, 64
4, 369121, Note_on_c, 2, 84, 108
4, 369257, Note_off_c, 2, 84, 64
4, 370082, Note_on_c, 2, 83, 108
4, 370218, Note_off_c, 2, 83, 64
4, 371042, Note_on_c, 2, 84, 108
4, 371178, Note_off_c, 2, 84, 64
4, 372001, Note_on_c, 2, 83, 108
4, 372137, Note_off_c, 2, 83, 64
4, 379438, Note_on_c, 2, 67, 74
4, 379654, Note_off_c, 2, 67, 64
4, 379683, Note_on_c, 2, 72, 77
4, 379899, Note_off_c, 2, 72, 64
4, 379917, Note_on_c, 2, 67, 78
4, 380133, Note_off_c, 2, 67, 64
4, 380160, Note_on_c, 2, 76, 80
4, 380376, Note_off_c, 2, 76, 64
4, 380399, Note_on_c, 2, 74, 81
4, 380561, Note_off_c, 2, 74, 64
4, 380580, Note_on_c, 2, 72, 88
4, 380631, Note_off_c, 2, 72, 56
4, 380639, Note_on_c, 2, 71, 83
4, 380855, Note_off_c, 2, 71, 64
4, 380878, Note_on_c, 2, 67, 85
4, 381094, Note_off_c, 2, 67, 64
4, 381119, Note_on_c, 2, 74, 87
4, 381335, Note_off_c, 2, 74, 64
4, 381363, Note_on_c, 2, 72, 88
4, 381525, Note_off_c, 2, 72, 64
4, 381539, Note_on_c, 2, 71, 95
4, 381590, Note_off_c, 2, 71, 56
4, 381600, Note_on_c, 2, 72, 90
4, 381816, Note_off_c, 2, 72, 64
4, 381843, Note_on_c, 2, 71, 90
4, 382059, Note_off_c, 2, 71, 64
4, 382080, Note_on_c, 2, 72, 90
4, 382296, Note_off_c, 2, 72, 64
4, 382317, Note_on_c, 2, 74, 90
4, 382533, Note_off_c, 2, 74, 64
4, 382557, Note_on_c, 2, 72, 90
4, 382773, Note_off_c, 2, 72, 64
4, 382801, Note_on_c, 2, 79, 90
4, 383017, Note_off_c, 2, 79, 64
4, 383041, Note_on_c, 2, 81, 90
4, 383257, Note_off_c, 2, 81, 64
4, 383282, Note_on_c, 2, 79, 90
4, 383487, Note_off_c, 2, 79, 64
4, 383519, Note_on_c, 2, 81, 90
4, 384167, Note_off_c, 2, 81, 64
4, 384242, Note_on_c, 2, 79, 90
4, 384378, Note_off_c, 2, 79, 64
4, 384478, Note_on_c, 2, 77, 90
4, 385126, Note_off_c, 2, 77, 64
4, 385200, Note_on_c, 2, 79, 90
4, 385336, Note_off_c, 2, 79, 64
4, 385443, Note_on_c, 2, 81, 90
4, 385875, Note_off_c, 2, 81, 64
4, 386161, Note_on_c, 2, 79, 90
4, 386297, Note_off_c, 2, 79, 64
4, 386403, Note_on_c, 2, 77, 90
4, 387051, Note_off_c, 2, 77, 64
4, 387119, Note_on_c, 2, 78, 90
4, 387255, Note_off_c, 2, 78, 64
4, 387360, Note_on_c, 2, 79, 90
4, 387565, Note_off_c, 2, 79, 64
4, 387838, Note_on_c, 2, 76, 73
4, 388043, Note_off_c, 2, 76, 64
4, 388321, Note_on_c, 2, 77, 73
4, 388526, Note_off_c, 2, 77, 64
4, 388799, Note_on_c, 2, 74, 73
4, 389004, Note_off_c, 2, 74, 64
4, 390959, Note_on_c, 2, 64, 73
4, 391175, Note_off_c, 2, 64, 64
4, 391201, Note_on_c, 2, 72, 73
4, 391417, Note_off_c, 2, 72, 64
4, 391439, Note_on_c, 2, 67, 73
4, 391655, Note_off_c, 2, 67, 64
4, 391680, Note_on_c, 2, 76, 73
4, 391896, Note_off_c, 2, 76, 64
4, 391917, Note_on_c, 2, 74, 73
4, 392079, Note_off_c, 2, 74, 64
4, 392100, Note_on_c, 2, 72, 79
4, 392151, Note_off_c, 2, 72, 56
4, 392161, Note_on_c, 2, 79, 73
4, 392809, Note_off_c, 2, 79, 64
4, 392877, Note_on_c, 2, 79, 75
4, 393093, Note_off_c, 2, 79, 64
4, 393119, Note_on_c, 2, 74, 75
4, 393324, Note_off_c, 2, 74, 64
4, 393361, Note_on_c, 2, 74, 77
4, 393566, Note_off_c, 2, 74, 64
4, 393838, Note_on_c, 2, 74, 78
4, 394043, Note_off_c, 2, 74, 64
4, 394321, Note_on_c, 2, 76, 80
4, 394526, Note_off_c, 2, 76, 64
4, 394797, Note_on_c, 2, 76, 81
4, 395002, Note_off_c, 2, 76, 64
4, 395277, Note_on_c, 2, 74, 82
4, 395482, Note_off_c, 2, 74, 64
4, 395761, Note_on_c, 2, 74, 83
4, 395966, Note_off_c, 2, 74, 64
4, 396243, Note_on_c, 2, 76, 86
4, 396448, Note_off_c, 2, 76, 64
4, 396722, Note_on_c, 2, 76, 87
4, 396927, Note_off_c, 2, 76, 64
4, 397203, Note_on_c, 2, 74, 88
4, 397408, Note_off_c, 2, 74, 64
4, 397678, Note_on_c, 2, 74, 89
4, 397883, Note_off_c, 2, 74, 64
4, 397920, Note_on_c, 2, 72, 90
4, 398136, Note_off_c, 2, 72, 64
4, 398160, Note_on_c, 2, 83, 90
4, 398376, Note_off_c, 2, 83, 64
4, 398402, Note_on_c, 2, 81, 90
4, 398618, Note_off_c, 2, 81, 64
4, 398640, Note_on_c, 2, 79, 90
4, 398856, Note_off_c, 2, 79, 64
4, 398878, Note_on_c, 2, 77, 90
4, 399094, Note_off_c, 2, 77, 64
4, 399120, Note_on_c, 2, 76, 90
4, 399336, Note_off_c, 2, 76, 64
4, 399362, Note_on_c, 2, 74, 90
4, 399578, Note_off_c, 2, 74, 64
4, 399598, Note_on_c, 2, 73, 90
4, 399814, Note_off_c, 2, 73, 64
4, 399840, Note_on_c, 2, 74, 90
4, 400045, Note_off_c, 2, 74, 64
4, 400077, Note_on_c, 2, 81, 90
4, 400509, Note_off_c, 2, 81, 64
4, 400560, Note_on_c, 2, 79, 90
4, 400765, Note_off_c, 2, 79, 64
4, 400798, Note_on_c, 2, 77, 90
4, 401446, Note_off_c, 2, 77, 64
4, 401520, Note_on_c, 2, 79, 90
4, 401656, Note_off_c, 2, 79, 64
4, 401758, Note_on_c, 2, 81, 90
4, 402406, Note_off_c, 2, 81, 64
4, 402479, Note_on_c, 2, 79, 90
4, 402615, Note_off_c, 2, 79, 64
4, 402717, Note_on_c, 2, 77, 90
4, 403365, Note_off_c, 2, 77, 64
4, 403441, Note_on_c, 2, 78, 90
4, 403577, Note_off_c, 2, 78, 64
4, 403679, Note_on_c, 2, 79, 76
4, 403781, Note_off_c, 2, 79, 56
4, 403802, Note_on_c, 2, 79, 76
4, 403904, Note_off_c, 2, 79, 56
4, 403922, Note_on_c, 2, 79, 76
4, 404024, Note_off_c, 2, 79, 56
4, 404039, Note_on_c, 2, 79, 76
4, 404141, Note_off_c, 2, 79, 56
4, 404281, Note_on_c, 2, 79, 77
4, 404383, Note_off_c, 2, 79, 56
4, 404400, Note_on_c, 2, 79, 77
4, 404502, Note_off_c, 2, 79, 56
4, 404518, Note_on_c, 2, 79, 77
4, 404620, Note_off_c, 2, 79, 56
4, 404760, Note_on_c, 2, 79, 77
4, 404862, Note_off_c, 2, 79, 56
4, 404878, Note_on_c, 2, 79, 78
4, 404980, Note_off_c, 2, 79, 56
4, 404998, Note_on_c, 2, 79, 78
4, 405100, Note_off_c, 2, 79, 56
4, 405240, Note_on_c, 2, 77, 78
4, 405342, Note_off_c, 2, 77, 56
4, 405361, Note_on_c, 2, 77, 78
4, 405463, Note_off_c, 2, 77, 56
4, 405482, Note_on_c, 2, 77, 78
4, 405584, Note_off_c, 2, 77, 56
4, 405722, Note_on_c, 2, 77, 80
4, 405824, Note_off_c, 2, 77, 56
4, 405840, Note_on_c, 2, 77, 80
4, 405942, Note_off_c, 2, 77, 56
4, 405962, Note_on_c, 2, 77, 80
4, 406064, Note_off_c, 2, 77, 56
4, 406202, Note_on_c, 2, 76, 80
4, 406304, Note_off_c, 2, 76, 56
4, 406321, Note_on_c, 2, 76, 80
4, 406423, Note_off_c, 2, 76, 56
4, 406438, Note_on_c, 2, 76, 81
4, 406540, Note_off_c, 2, 76, 56
4, 406797, Note_on_c, 2, 74, 78
4, 407002, Note_off_c, 2, 74, 64
4, 407282, Note_on_c, 2, 79, 79
4, 407487, Note_off_c, 2, 79, 64
4, 407757, Note_on_c, 2, 79, 79
4, 407962, Note_off_c, 2, 79, 64
4, 408238, Note_on_c, 2, 79, 80
4, 408443, Note_off_c, 2, 79, 64
4, 408718, Note_on_c, 2, 79, 81
4, 408923, Note_off_c, 2, 79, 64
4, 409198, Note_on_c, 2, 77, 81
4, 409403, Note_off_c, 2, 77, 64
4, 409678, Note_on_c, 2, 77, 82
4, 409883, Note_off_c, 2, 77, 64
4, 410159, Note_on_c, 2, 76, 82
4, 410364, Note_off_c, 2, 76, 64
4, 410641, Note_on_c, 2, 74, 83
4, 410846, Note_off_c, 2, 74, 64
4, 411117, Note_on_c, 2, 79, 85
4, 411322, Note_off_c, 2, 79, 64
4, 411597, Note_on_c, 2, 79, 85
4, 411802, Note_off_c, 2, 79, 64
4, 412083, Note_on_c, 2, 79, 86
4, 412288, Note_off_c, 2, 79, 64
4, 412557, Note_on_c, 2, 79, 87
4, 412762, Note_off_c, 2, 79, 64
4, 413037, Note_on_c, 2, 77, 87
4, 413242, Note_off_c, 2, 77, 64
4, 413517, Note_on_c, 2, 77, 88
4, 413722, Note_off_c, 2, 77, 64
4, 413998, Note_on_c, 2, 76, 88
4, 414203, Note_off_c, 2, 76, 64
4, 414477, Note_on_c, 2, 74, 89
4, 414682, Note_off_c, 2, 74, 64
4, 414962, Note_on_c, 2, 79, 90
4, 415167, Note_off_c, 2, 79, 64
4, 415198, Note_on_c, 2, 72, 111
4, 415199, Note_on_c, 2, 60, 111
4, 415318, Note_off_c, 2, 72, 56
4, 415319, Note_off_c, 2, 60, 56
4, 419040, Note_on_c, 2, 72, 73
4, 419328, Note_off_c, 2, 72, 64
4, 419398, Note_on_c, 2, 71, 76
4, 419494, Note_off_c, 2, 71, 56
4, 419519, Note_on_c, 2, 69, 76
4, 419615, Note_off_c, 2, 69, 56
4, 419639, Note_on_c, 2, 67, 76
4, 419735, Note_off_c, 2, 67, 56
4, 419760, Note_on_c, 2, 67, 76
4, 419856, Note_off_c, 2, 67, 56
4, 419878, Note_on_c, 2, 67, 76
4, 419974, Note_off_c, 2, 67, 56
4, 420000, Note_on_c, 2, 72, 73
4, 420288, Note_off_c, 2, 72, 65
4, 420362, Note_on_c, 2, 71, 76
4, 420458, Note_off_c, 2, 71, 56
4, 420480, Note_on_c, 2, 69, 76
4, 420576, Note_off_c, 2, 69, 56
4, 420602, Note_on_c, 2, 67, 76
4, 420698, Note_off_c, 2, 67, 56
4, 420719, Note_on_c, 2, 67, 76
4, 420815, Note_off_c, 2, 67, 56
4, 420842, Note_on_c, 2, 67, 76
4, 420938, Note_off_c, 2, 67, 56
4, 420958, Note_on_c, 2, 76, 73
4, 420962, Note_on_c, 2, 72, 73
4, 421246, Note_off_c, 2, 76, 65
4, 421250, Note_off_c, 2, 72, 65
4, 421318, Note_on_c, 2, 74, 76
4, 421318, Note_on_c, 2, 71, 76
4, 421414, Note_off_c, 2, 71, 56
4, 421414, Note_off_c, 2, 74, 56
4, 421440, Note_on_c, 2, 69, 76
4, 421440, Note_on_c, 2, 72, 76
4, 421536, Note_off_c, 2, 72, 56
4, 421536, Note_off_c, 2, 69, 56
4, 421559, Note_on_c, 2, 71, 76
4, 421562, Note_on_c, 2, 67, 76
4, 421655, Note_off_c, 2, 71, 56
4, 421658, Note_off_c, 2, 67, 56
4, 421679, Note_on_c, 2, 67, 76
4, 421681, Note_on_c, 2, 71, 76
4, 421775, Note_off_c, 2, 67, 56
4, 421777, Note_off_c, 2, 71, 56
4, 421798, Note_on_c, 2, 71, 76
4, 421801, Note_on_c, 2, 67, 76
4, 421894, Note_off_c, 2, 71, 56
4, 421897, Note_off_c, 2, 67, 56
4, 421919, Note_on_c, 2, 72, 73
4, 421921, Note_on_c, 2, 76, 73
4, 422207, Note_off_c, 2, 72, 65
4, 422209, Note_off_c, 2, 76, 65
4, 422278, Note_on_c, 2, 71, 76
4, 422278, Note_on_c, 2, 74, 76
4, 422374, Note_off_c, 2, 74, 56
4, 422374, Note_off_c, 2, 71, 56
4, 422399, Note_on_c, 2, 69, 76
4, 422402, Note_on_c, 2, 72, 76
4, 422495, Note_off_c, 2, 69, 56
4, 422498, Note_off_c, 2, 72, 56
4, 422520, Note_on_c, 2, 67, 76
4, 422522, Note_on_c, 2, 71, 76
4, 422616, Note_off_c, 2, 67, 56
4, 422618, Note_off_c, 2, 71, 56
4, 422638, Note_on_c, 2, 67, 76
4, 422641, Note_on_c, 2, 71, 76
4, 422734, Note_off_c, 2, 67, 56
4, 422737, Note_off_c, 2, 71, 56
4, 422760, Note_on_c, 2, 71, 76
4, 422761, Note_on_c, 2, 67, 76
4, 422856, Note_off_c, 2, 71, 56
4, 422857, Note_off_c, 2, 67, 56
4, 422880, Note_on_c, 2, 76, 76
4, 422881, Note_on_c, 2, 72, 76
4, 422976, Note_off_c, 2, 76, 56
4, 422977, Note_off_c, 2, 72, 56
4, 423118, Note_on_c, 2, 79, 76
4, 423122, Note_on_c, 2, 72, 76
4, 423214, Note_off_c, 2, 79, 56
4, 423218, Note_off_c, 2, 72, 56
4, 423361, Note_on_c, 2, 72, 77
4, 423361, Note_on_c, 2, 79, 77
4, 423457, Note_off_c, 2, 79, 56
4, 423457, Note_off_c, 2, 72, 56
4, 423600, Note_on_c, 2, 72, 78
4, 423601, Note_on_c, 2, 77, 78
4, 423696, Note_off_c, 2, 72, 56
4, 423697, Note_off_c, 2, 77, 56
4, 423839, Note_on_c, 2, 77, 80
4, 423842, Note_on_c, 2, 71, 80
4, 423935, Note_off_c, 2, 77, 56
4, 423938, Note_off_c, 2, 71, 56
4, 424081, Note_on_c, 2, 76, 81
4, 424081, Note_on_c, 2, 72, 81
4, 424177, Note_off_c, 2, 72, 56
4, 424177, Note_off_c, 2, 76, 56
4, 424319, Note_on_c, 2, 74, 82
4, 424322, Note_on_c, 2, 71, 82
4, 424415, Note_off_c, 2, 74, 56
4, 424418, Note_off_c, 2, 71, 56
4, 424558, Note_on_c, 2, 72, 83
4, 424560, Note_on_c, 2, 79, 83
4, 424654, Note_off_c, 2, 72, 56
4, 424656, Note_off_c, 2, 79, 56
4, 424802, Note_on_c, 2, 72, 84
4, 424802, Note_on_c, 2, 79, 84
4, 424898, Note_off_c, 2, 79, 56
4, 424898, Note_off_c, 2, 72, 56
4, 425038, Note_on_c, 2, 72, 85
4, 425040, Note_on_c, 2, 79, 85
4, 425134, Note_off_c, 2, 72, 56
4, 425136, Note_off_c, 2, 79, 56
4, 425280, Note_on_c, 2, 79, 86
4, 425282, Note_on_c, 2, 72, 86
4, 425376, Note_off_c, 2, 79, 56
4, 425378, Note_off_c, 2, 72, 56
4, 425518, Note_on_c, 2, 72, 88
4, 425519, Note_on_c, 2, 77, 88
4, 425614, Note_off_c, 2, 72, 56
4, 425615, Note_off_c, 2, 77, 56
4, 425758, Note_on_c, 2, 71, 89
4, 425760, Note_on_c, 2, 77, 89
4, 425854, Note_off_c, 2, 71, 56
4, 425856, Note_off_c, 2, 77, 56
4, 426002, Note_on_c, 2, 72, 90
4, 426002, Note_on_c, 2, 76, 90
4, 426098, Note_off_c, 2, 76, 56
4, 426098, Note_off_c, 2, 72, 56
4, 426241, Note_on_c, 2, 74, 91
4, 426241, Note_on_c, 2, 71, 91
4, 426337, Note_off_c, 2, 71, 56
4, 426337, Note_off_c, 2, 74, 56
4, 426480, Note_on_c, 2, 79, 92
4, 426481, Note_on_c, 2, 72, 92
4, 426576, Note_off_c, 2, 79, 56
4, 426577, Note_off_c, 2, 72, 56
4, 426598, Note_on_c, 2, 79, 92
4, 426601, Note_on_c, 2, 72, 92
4, 426694, Note_off_c, 2, 79, 56
4, 426697, Note_off_c, 2, 72, 56
4, 426718, Note_on_c, 2, 76, 93
4, 426721, Note_on_c, 2, 79, 93
4, 426814, Note_off_c, 2, 76, 56
4, 426817, Note_off_c, 2, 79, 56
4, 426839, Note_on_c, 2, 76, 93
4, 426840, Note_on_c, 2, 79, 93
4, 426935, Note_off_c, 2, 76, 56
4, 426936, Note_off_c, 2, 79, 56
4, 426959, Note_on_c, 2, 76, 93
4, 426960, Note_on_c, 2, 79, 93
4, 427055, Note_off_c, 2, 76, 56
4, 427056, Note_off_c, 2, 79, 56
4, 427078, Note_on_c, 2, 76, 93
4, 427081, Note_on_c, 2, 79, 93
4, 427174, Note_off_c, 2, 76, 56
4, 427177, Note_off_c, 2, 79, 56
4, 427200, Note_on_c, 2, 79, 93
4, 427202, Note_on_c, 2, 72, 93
4, 427296, Note_off_c, 2, 79, 56
4, 427298, Note_off_c, 2, 72, 56
4, 427318, Note_on_c, 2, 79, 93
4, 427322, Note_on_c, 2, 72, 93
4, 427414, Note_off_c, 2, 79, 56
4, 427418, Note_off_c, 2, 72, 56
4, 427439, Note_on_c, 2, 77, 93
4, 427440, Note_on_c, 2, 72, 93
4, 427535, Note_off_c, 2, 77, 56
4, 427536, Note_off_c, 2, 72, 56
4, 427560, Note_on_c, 2, 72, 93
4, 427562, Note_on_c, 2, 77, 93
4, 427656, Note_off_c, 2, 72, 56
4, 427658, Note_off_c, 2, 77, 56
4, 427681, Note_on_c, 2, 77, 93
4, 427682, Note_on_c, 2, 71, 93
4, 427777, Note_off_c, 2, 77, 56
4, 427778, Note_off_c, 2, 71, 56
4, 427799, Note_on_c, 2, 71, 93
4, 427802, Note_on_c, 2, 77, 93
4, 427895, Note_off_c, 2, 71, 56
4, 427898, Note_off_c, 2, 77, 56
4, 427918, Note_on_c, 2, 72, 93
4, 427919, Note_on_c, 2, 76, 93
4, 428014, Note_off_c, 2, 72, 56
4, 428015, Note_off_c, 2, 76, 56
4, 428038, Note_on_c, 2, 76, 93
4, 428041, Note_on_c, 2, 72, 93
4, 428134, Note_off_c, 2, 76, 56
4, 428137, Note_off_c, 2, 72, 56
4, 428160, Note_on_c, 2, 72, 93
4, 428161, Note_on_c, 2, 74, 93
4, 428256, Note_off_c, 2, 72, 56
4, 428257, Note_off_c, 2, 74, 56
4, 428281, Note_on_c, 2, 72, 93
4, 428282, Note_on_c, 2, 74, 93
4, 428377, Note_off_c, 2, 72, 56
4, 428378, Note_off_c, 2, 74, 56
4, 428402, Note_on_c, 2, 71, 93
4, 428402, Note_on_c, 2, 79, 93
4, 428498, Note_off_c, 2, 79, 56
4, 428498, Note_off_c, 2, 71, 56
4, 428518, Note_on_c, 2, 79, 93
4, 428519, Note_on_c, 2, 71, 93
4, 428614, Note_off_c, 2, 79, 56
4, 428615, Note_off_c, 2, 71, 56
4, 428639, Note_on_c, 2, 60, 108
4, 428639, Note_on_c, 2, 72, 108
4, 428831, Note_off_c, 2, 72, 67
4, 428831, Note_off_c, 2, 60, 67
4, 428881, Note_on_c, 2, 64, 108
4, 428882, Note_on_c, 2, 76, 108
4, 429073, Note_off_c, 2, 64, 67
4, 429074, Note_off_c, 2, 76, 67
4, 429118, Note_on_c, 2, 79, 108
4, 429121, Note_on_c, 2, 67, 108
4, 429406, Note_off_c, 2, 79, 67
4, 429409, Note_off_c, 2, 67, 67
4, 429479, Note_on_c, 2, 77, 111
4, 429480, Note_on_c, 2, 65, 111
4, 429575, Note_off_c, 2, 77, 56
4, 429576, Note_off_c, 2, 65, 56
4, 429598, Note_on_c, 2, 64, 111
4, 429599, Note_on_c, 2, 76, 111
4, 429694, Note_off_c, 2, 64, 56
4, 429695, Note_off_c, 2, 76, 56
4, 429718, Note_on_c, 2, 62, 111
4, 429718, Note_on_c, 2, 74, 111
4, 429814, Note_off_c, 2, 74, 56
4, 429814, Note_off_c, 2, 62, 56
4, 429838, Note_on_c, 2, 72, 111
4, 429841, Note_on_c, 2, 60, 111
4, 429934, Note_off_c, 2, 72, 56
4, 429937, Note_off_c, 2, 60, 56
4, 429959, Note_on_c, 2, 62, 111
4, 429960, Note_on_c, 2, 74, 111
4, 430055, Note_off_c, 2, 62, 56
4, 430056, Note_off_c, 2, 74, 56
4, 430078, Note_on_c, 2, 64, 108
4, 430080, Note_on_c, 2, 76, 108
4, 430366, Note_off_c, 2, 64, 68
4, 430368, Note_off_c, 2, 76, 68
4, 430440, Note_on_c, 2, 76, 111
4, 430440, Note_on_c, 2, 64, 111
4, 430536, Note_off_c, 2, 64, 56
4, 430536, Note_off_c, 2, 76, 56
4, 430558, Note_on_c, 2, 64, 111
4, 430560, Note_on_c, 2, 76, 111
4, 430654, Note_off_c, 2, 64, 56
4, 430656, Note_off_c, 2, 76, 56
4, 430679, Note_on_c, 2, 62, 111
4, 430682, Note_on_c, 2, 74, 111
4, 430775, Note_off_c, 2, 62, 56
4, 430778, Note_off_c, 2, 74, 56
4, 430802, Note_on_c, 2, 76, 111
4, 430802, Note_on_c, 2, 64, 111
4, 430898, Note_off_c, 2, 64, 56
4, 430898, Note_off_c, 2, 76, 56
4, 430922, Note_on_c, 2, 77, 111
4, 430922, Note_on_c, 2, 65, 111
4, 431018, Note_off_c, 2, 65, 56
4, 431018, Note_off_c, 2, 77, 56
4, 431038, Note_on_c, 2, 79, 108
4, 431042, Note_on_c, 2, 67, 108
4, 431326, Note_off_c, 2, 79, 68
4, 431330, Note_off_c, 2, 67, 68
4, 431401, Note_on_c, 2, 79, 111
4, 431401, Note_on_c, 2, 67, 111
4, 431497, Note_off_c, 2, 67, 56
4, 431497, Note_off_c, 2, 79, 56
4, 431518, Note_on_c, 2, 67, 111
4, 431520, Note_on_c, 2, 79, 111
4, 431614, Note_off_c, 2, 67, 56
4, 431616, Note_off_c, 2, 79, 56
4, 431640, Note_on_c, 2, 65, 111
4, 431640, Note_on_c, 2, 77, 111
4, 431736, Note_off_c, 2, 77, 56
4, 431736, Note_off_c, 2, 65, 56
4, 431759, Note_on_c, 2, 67, 111
4, 431761, Note_on_c, 2, 79, 111
4, 431855, Note_off_c, 2, 67, 56
4, 431857, Note_off_c, 2, 79, 56
4, 431879, Note_on_c, 2, 71, 111
4, 431882, Note_on_c, 2, 83, 111
4, 431975, Note_off_c, 2, 71, 56
4, 431978, Note_off_c, 2, 83, 56
4, 431997, Note_on_c, 2, 84, 108
4, 431999, Note_on_c, 2, 72, 108
4, 432285, Note_off_c, 2, 84, 69
4, 432287, Note_off_c, 2, 72, 69
4, 432359, Note_on_c, 2, 83, 111
4, 432359, Note_on_c, 2, 71, 111
4, 432455, Note_off_c, 2, 71, 56
4, 432455, Note_off_c, 2, 83, 56
4, 432478, Note_on_c, 2, 84, 111
4, 432481, Note_on_c, 2, 72, 111
4, 432574, Note_off_c, 2, 84, 56
4, 432577, Note_off_c, 2, 72, 56
4, 432601, Note_on_c, 2, 71, 111
4, 432602, Note_on_c, 2, 83, 111
4, 432697, Note_off_c, 2, 71, 56
4, 432698, Note_off_c, 2, 83, 56
4, 432719, Note_on_c, 2, 72, 111
4, 432721, Note_on_c, 2, 84, 111
4, 432815, Note_off_c, 2, 72, 56
4, 432817, Note_off_c, 2, 84, 56
4, 432840, Note_on_c, 2, 86, 111
4, 432842, Note_on_c, 2, 74, 111
4, 432936, Note_off_c, 2, 86, 56
4, 432938, Note_off_c, 2, 74, 56
4, 432960, Note_on_c, 2, 76, 111
4, 433056, Note_off_c, 2, 76, 56
4, 433081, Note_on_c, 2, 74, 111
4, 433177, Note_off_c, 2, 74, 56
4, 433199, Note_on_c, 2, 76, 111
4, 433295, Note_off_c, 2, 76, 56
4, 433318, Note_on_c, 2, 77, 111
4, 433414, Note_off_c, 2, 77, 56
4, 433442, Note_on_c, 2, 79, 108
4, 434210, Note_off_c, 2, 79, 69
4, 434403, Note_on_c, 2, 76, 108
4, 435171, Note_off_c, 2, 76, 69
4, 435360, Note_on_c, 2, 72, 111
4, 435480, Note_off_c, 2, 72, 56
4, 435838, Note_on_c, 2, 74, 111
4, 435842, Note_on_c, 2, 83, 111
4, 435958, Note_off_c, 2, 74, 56
4, 435962, Note_off_c, 2, 83, 56
4, 436318, Note_on_c, 2, 76, 111
4, 436319, Note_on_c, 2, 84, 111
4, 436438, Note_off_c, 2, 76, 56
4, 436439, Note_off_c, 2, 84, 56
4, 436798, Note_on_c, 2, 74, 111
4, 436800, Note_on_c, 2, 83, 111
4, 436918, Note_off_c, 2, 74, 56
4, 436920, Note_off_c, 2, 83, 56
4, 437279, Note_on_c, 2, 76, 111
4, 437282, Note_on_c, 2, 84, 111
4, 437399, Note_off_c, 2, 76, 56
4, 437402, Note_off_c, 2, 84, 56
4, 437758, Note_on_c, 2, 74, 111
4, 437759, Note_on_c, 2, 83, 111
4, 437878, Note_off_c, 2, 74, 56
4, 437879, Note_off_c, 2, 83, 56
4, 438240, Note_on_c, 2, 84, 111
4, 438241, Note_on_c, 2, 76, 111
4, 438360, Note_off_c, 2, 84, 56
4, 438361, Note_off_c, 2, 76, 56
4, 438720, Note_on_c, 2, 74, 111
4, 438722, Note_on_c, 2, 83, 111
4, 438840, Note_off_c, 2, 74, 56
4, 438842, Note_off_c, 2, 83, 56
4, 439199, Note_on_c, 2, 84, 111
4, 439202, Note_on_c, 2, 76, 111
4, 439319, Note_off_c, 2, 84, 56
4, 439322, Note_off_c, 2, 76, 56
4, 439680, Note_on_c, 2, 74, 111
4, 439682, Note_on_c, 2, 83, 111
4, 439800, Note_off_c, 2, 74, 56
4, 439802, Note_off_c, 2, 83, 56
4, 440161, Note_on_c, 2, 76, 111
4, 440162, Note_on_c, 2, 84, 111
4, 440281, Note_off_c, 2, 76, 56
4, 440282, Note_off_c, 2, 84, 56
4, 440638, Note_on_c, 2, 83, 111
4, 440640, Note_on_c, 2, 74, 111
4, 440758, Note_off_c, 2, 83, 56
4, 440760, Note_off_c, 2, 74, 56
4, 441119, Note_on_c, 2, 76, 108
4, 441122, Note_on_c, 2, 84, 108
4, 441887, Note_off_c, 2, 76, 71
4, 441890, Note_off_c, 2, 84, 71
4, 442078, Note_on_c, 2, 84, 108
4, 442654, Note_off_c, 2, 84, 72
4, 442801, Note_on_c, 2, 79, 111
4, 442897, Note_off_c, 2, 79, 56
4, 442920, Note_on_c, 2, 76, 111
4, 443016, Note_off_c, 2, 76, 56
4, 443042, Note_on_c, 2, 72, 111
4, 443138, Note_off_c, 2, 72, 56
4, 443399, Note_on_c, 2, 64, 111
4, 443399, Note_on_c, 2, 72, 111
4, 443495, Note_off_c, 2, 72, 56
4, 443495, Note_off_c, 2, 64, 56
4, 443521, Note_on_c, 2, 72, 111
4, 443521, Note_on_c, 2, 64, 111
4, 443617, Note_off_c, 2, 64, 56
4, 443617, Note_off_c, 2, 72, 56
4, 443639, Note_on_c, 2, 72, 111
4, 443642, Note_on_c, 2, 64, 111
4, 443735, Note_off_c, 2, 72, 56
4, 443738, Note_off_c, 2, 64, 56
4, 443758, Note_on_c, 2, 64, 111
4, 443759, Note_on_c, 2, 72, 111
4, 443854, Note_off_c, 2, 64, 56
4, 443855, Note_off_c, 2, 72, 56
4, 443879, Note_on_c, 2, 72, 111
4, 443882, Note_on_c, 2, 64, 111
4, 443975, Note_off_c, 2, 72, 56
4, 443978, Note_off_c, 2, 64, 56
4, 443998, Note_on_c, 2, 72, 111
4, 444000, Note_on_c, 2, 64, 111
4, 444094, Note_off_c, 2, 72, 56
4, 444096, Note_off_c, 2, 64, 56
4, 444360, Note_on_c, 2, 72, 111
4, 444362, Note_on_c, 2, 76, 111
4, 444456, Note_off_c, 2, 72, 56
4, 444458, Note_off_c, 2, 76, 56
4, 444478, Note_on_c, 2, 76, 111
4, 444481, Note_on_c, 2, 72, 111
4, 444574, Note_off_c, 2, 76, 56
4, 444577, Note_off_c, 2, 72, 56
4, 444600, Note_on_c, 2, 76, 111
4, 444600, Note_on_c, 2, 72, 111
4, 444696, Note_off_c, 2, 72, 56
4, 444696, Note_off_c, 2, 76, 56
4, 444718, Note_on_c, 2, 72, 111
4, 444719, Note_on_c, 2, 76, 111
4, 444814, Note_off_c, 2, 72, 56
4, 444815, Note_off_c, 2, 76, 56
4, 444838, Note_on_c, 2, 76, 111
4, 444840, Note_on_c, 2, 72, 111
4, 444934, Note_off_c, 2, 76, 56
4, 444936, Note_off_c, 2, 72, 56
4, 444958, Note_on_c, 2, 76, 111
4, 444962, Note_on_c, 2, 72, 111
4, 445054, Note_off_c, 2, 76, 56
4, 445058, Note_off_c, 2, 72, 56
4, 445201, Note_on_c, 2, 64, 111
4, 445202, Note_on_c, 2, 72, 111
4, 445297, Note_off_c, 2, 64, 56
4, 445298, Note_off_c, 2, 72, 56
4, 445318, Note_on_c, 2, 72, 111
4, 445322, Note_on_c, 2, 64, 111
4, 445414, Note_off_c, 2, 72, 56
4, 445418, Note_off_c, 2, 64, 56
4, 445439, Note_on_c, 2, 72, 111
4, 445441, Note_on_c, 2, 64, 111
4, 445535, Note_off_c, 2, 72, 56
4, 445537, Note_off_c, 2, 64, 56
4, 445680, Note_on_c, 2, 76, 111
4, 445681, Note_on_c, 2, 72, 111
4, 445776, Note_off_c, 2, 76, 56
4, 445777, Note_off_c, 2, 72, 56
4, 445798, Note_on_c, 2, 72, 111
4, 445799, Note_on_c, 2, 76, 111
4, 445894, Note_off_c, 2, 72, 56
4, 445895, Note_off_c, 2, 76, 56
4, 445920, Note_on_c, 2, 72, 111
4, 445921, Note_on_c, 2, 76, 111
4, 446016, Note_off_c, 2, 72, 56
4, 446017, Note_off_c, 2, 76, 56
4, 446158, Note_on_c, 2, 76, 111
4, 446158, Note_on_c, 2, 79, 111
4, 446254, Note_off_c, 2, 79, 56
4, 446254, Note_off_c, 2, 76, 56
4, 446281, Note_on_c, 2, 79, 111
4, 446282, Note_on_c, 2, 76, 111
4, 446377, Note_off_c, 2, 79, 56
4, 446378, Note_off_c, 2, 76, 56
4, 446399, Note_on_c, 2, 76, 111
4, 446401, Note_on_c, 2, 79, 111
4, 446495, Note_off_c, 2, 76, 56
4, 446497, Note_off_c, 2, 79, 56
4, 446638, Note_on_c, 2, 84, 111
4, 446639, Note_on_c, 2, 76, 111
4, 446734, Note_off_c, 2, 84, 56
4, 446735, Note_off_c, 2, 76, 56
4, 446759, Note_on_c, 2, 76, 111
4, 446759, Note_on_c, 2, 84, 111
4, 446855, Note_off_c, 2, 84, 56
4, 446855, Note_off_c, 2, 76, 56
4, 446882, Note_on_c, 2, 76, 108
4, 446882, Note_on_c, 2, 84, 108
4, 447650, Note_off_c, 2, 84, 73
4, 447650, Note_off_c, 2, 76, 73
4, 447841, Note_on_c, 2, 84, 108
4, 447843, Note_on_c, 2, 76, 108
4, 448609, Note_off_c, 2, 84, 74
4, 448611, Note_off_c, 2, 76, 74
4, 448799, Note_on_c, 2, 76, 111
4, 448801, Note_on_c, 2, 84, 111
4, 448919, Note_off_c, 2, 76, 56
4, 448921, Note_off_c, 2, 84, 56
4, 449758, Note_on_c, 2, 84, 111
4, 449762, Note_on_c, 2, 76, 111
4, 449878, Note_off_c, 2, 84, 56
4, 449882, Note_off_c, 2, 76, 56
4, 450718, Note_on_c, 2, 76, 111
4, 450722, Note_on_c, 2, 84, 111
4, 450838, Note_off_c, 2, 76, 56
4, 450842, Note_off_c, 2, 84, 56
4, 451679, Note_on_c, 2, 84, 111
4, 451682, Note_on_c, 2, 76, 111
4, 451799, Note_off_c, 2, 84, 56
4, 451802, Note_off_c, 2, 76, 56
4, 452160, Note_on_c, 2, 76, 111
4, 452162, Note_on_c, 2, 84, 111
4, 452280, Note_off_c, 2, 76, 56
4, 452282, Note_off_c, 2, 84, 56
4, 452639, Note_on_c, 2, 84, 111
4, 452640, Note_on_c, 2, 76, 111
4, 452759, Note_off_c, 2, 84, 56
4, 452760, Note_off_c, 2, 76, 56
4, 453600, Note_on_c, 2, 84, 111
4, 453602, Note_on_c, 2, 76, 111
4, 453720, Note_off_c, 2, 84, 56
4, 453722, Note_off_c, 2, 76, 56
4, 454559, Note_on_c, 2, 72, 108
4, 455519, Note_off_c, 2, 72, 76
4, 455519, End_track
5, 0, Start_track
5, 0, Title_t, "Clar1"
5, 0, Program_c, 3, 71
5, 0, Control_c, 3, 7, 85
5, 0, Note_on_c, 3, 72, 108
5, 0, Control_c, 3, 91, 27
5, 0, Control_c, 3, 93, 24
5, 0, Control_c, 3, 10, 90
5, 432, Note_off_c, 3, 72, 64
5, 478, Note_on_c, 3, 76, 108
5, 910, Note_off_c, 3, 76, 64
5, 958, Note_on_c, 3, 79, 108
5, 1606, Note_off_c, 3, 79, 64
5, 1681, Note_on_c, 3, 77, 111
5, 1772, Note_off_c, 3, 77, 56
5, 1920, Note_on_c, 3, 76, 111
5, 2011, Note_off_c, 3, 76, 56
5, 2160, Note_on_c, 3, 74, 111
5, 2251, Note_off_c, 3, 74, 56
5, 2399, Note_on_c, 3, 72, 111
5, 2490, Note_off_c, 3, 72, 56
5, 2641, Note_on_c, 3, 74, 111
5, 2732, Note_off_c, 3, 74, 56
5, 2881, Note_on_c, 3, 72, 108
5, 3529, Note_off_c, 3, 72, 64
5, 3603, Note_on_c, 3, 72, 108
5, 3756, Note_off_c, 3, 72, 64
5, 3780, Note_on_c, 3, 72, 111
5, 3825, Note_off_c, 3, 72, 56
5, 3839, Note_on_c, 3, 74, 108
5, 4487, Note_off_c, 3, 74, 64
5, 4557, Note_on_c, 3, 74, 108
5, 4710, Note_off_c, 3, 74, 64
5, 4740, Note_on_c, 3, 74, 111
5, 4785, Note_off_c, 3, 74, 56
5, 4803, Note_on_c, 3, 76, 108
5, 5667, Note_off_c, 3, 76, 64
5, 5757, Note_on_c, 3, 77, 108
5, 6189, Note_off_c, 3, 77, 64
5, 6240, Note_on_c, 3, 81, 108
5, 6672, Note_off_c, 3, 81, 64
5, 6722, Note_on_c, 3, 79, 108
5, 7370, Note_off_c, 3, 79, 64
5, 7438, Note_on_c, 3, 76, 108
5, 7643, Note_off_c, 3, 76, 64
5, 7682, Note_on_c, 3, 77, 108
5, 8114, Note_off_c, 3, 77, 64
5, 8161, Note_on_c, 3, 81, 108
5, 8593, Note_off_c, 3, 81, 64
5, 8637, Note_on_c, 3, 79, 108
5, 9285, Note_off_c, 3, 79, 64
5, 9361, Note_on_c, 3, 76, 108
5, 9566, Note_off_c, 3, 76, 64
5, 9600, Note_on_c, 3, 77, 108
5, 10032, Note_off_c, 3, 77, 64
5, 10082, Note_on_c, 3, 81, 108
5, 10514, Note_off_c, 3, 81, 64
5, 10563, Note_on_c, 3, 79, 108
5, 11211, Note_off_c, 3, 79, 64
5, 11278, Note_on_c, 3, 76, 108
5, 11483, Note_off_c, 3, 76, 64
5, 11522, Note_on_c, 3, 74, 108
5, 11954, Note_off_c, 3, 74, 64
5, 11997, Note_on_c, 3, 72, 108
5, 12429, Note_off_c, 3, 72, 64
5, 12481, Note_on_c, 3, 72, 111
5, 12589, Note_off_c, 3, 72, 56
5, 12599, Note_on_c, 3, 71, 111
5, 12690, Note_off_c, 3, 71, 56
5, 12721, Note_on_c, 3, 71, 108
5, 13153, Note_off_c, 3, 71, 64
5, 13200, Note_on_c, 3, 72, 108
5, 13353, Note_off_c, 3, 72, 64
5, 13380, Note_on_c, 3, 72, 111
5, 13425, Note_off_c, 3, 72, 56
5, 13440, Note_on_c, 3, 74, 108
5, 13872, Note_off_c, 3, 74, 64
5, 13919, Note_on_c, 3, 72, 108
5, 14351, Note_off_c, 3, 72, 64
5, 14401, Note_on_c, 3, 72, 111
5, 14509, Note_off_c, 3, 72, 56
5, 14520, Note_on_c, 3, 71, 111
5, 14611, Note_off_c, 3, 71, 56
5, 14637, Note_on_c, 3, 71, 108
5, 15069, Note_off_c, 3, 71, 64
5, 15121, Note_on_c, 3, 72, 111
5, 15189, Note_off_c, 3, 72, 56
5, 15300, Note_on_c, 3, 72, 111
5, 15334, Note_off_c, 3, 72, 56
5, 15360, Note_on_c, 3, 74, 111
5, 15428, Note_off_c, 3, 74, 56
5, 15540, Note_on_c, 3, 74, 111
5, 15574, Note_off_c, 3, 74, 56
5, 15601, Note_on_c, 3, 74, 111
5, 15669, Note_off_c, 3, 74, 56
5, 15780, Note_on_c, 3, 74, 111
5, 15814, Note_off_c, 3, 74, 56
5, 15839, Note_on_c, 3, 72, 111
5, 15907, Note_off_c, 3, 72, 56
5, 16020, Note_on_c, 3, 72, 111
5, 16054, Note_off_c, 3, 72, 56
5, 16081, Note_on_c, 3, 72, 111
5, 16149, Note_off_c, 3, 72, 56
5, 16260, Note_on_c, 3, 72, 111
5, 16294, Note_off_c, 3, 72, 56
5, 16323, Note_on_c, 3, 71, 108
5, 16528, Note_off_c, 3, 71, 64
5, 16559, Note_on_c, 3, 71, 108
5, 16764, Note_off_c, 3, 71, 64
5, 16801, Note_on_c, 3, 76, 108
5, 17006, Note_off_c, 3, 76, 64
5, 17040, Note_on_c, 3, 76, 108
5, 17245, Note_off_c, 3, 76, 64
5, 17279, Note_on_c, 3, 74, 108
5, 17484, Note_off_c, 3, 74, 64
5, 17519, Note_on_c, 3, 71, 108
5, 17724, Note_off_c, 3, 71, 64
5, 17757, Note_on_c, 3, 76, 108
5, 17962, Note_off_c, 3, 76, 64
5, 17998, Note_on_c, 3, 76, 108
5, 18203, Note_off_c, 3, 76, 64
5, 18241, Note_on_c, 3, 74, 111
5, 18332, Note_off_c, 3, 74, 56
5, 18420, Note_on_c, 3, 72, 111
5, 18465, Note_off_c, 3, 72, 56
5, 18482, Note_on_c, 3, 76, 108
5, 18687, Note_off_c, 3, 76, 64
5, 18719, Note_on_c, 3, 74, 111
5, 18810, Note_off_c, 3, 74, 56
5, 18900, Note_on_c, 3, 72, 111
5, 18945, Note_off_c, 3, 72, 56
5, 18957, Note_on_c, 3, 76, 108
5, 19162, Note_off_c, 3, 76, 64
5, 19200, Note_on_c, 3, 74, 111
5, 19291, Note_off_c, 3, 74, 56
5, 19380, Note_on_c, 3, 72, 111
5, 19425, Note_off_c, 3, 72, 56
5, 19437, Note_on_c, 3, 76, 108
5, 19642, Note_off_c, 3, 76, 64
5, 19679, Note_on_c, 3, 74, 111
5, 19770, Note_off_c, 3, 74, 56
5, 19860, Note_on_c, 3, 72, 111
5, 19905, Note_off_c, 3, 72, 56
5, 19921, Note_on_c, 3, 76, 108
5, 20126, Note_off_c, 3, 76, 64
5, 20159, Note_on_c, 3, 74, 111
5, 20250, Note_off_c, 3, 74, 56
5, 21238, Note_on_c, 3, 76, 111
5, 21346, Note_off_c, 3, 76, 56
5, 21359, Note_on_c, 3, 74, 111
5, 21450, Note_off_c, 3, 74, 56
5, 21479, Note_on_c, 3, 72, 111
5, 21547, Note_off_c, 3, 72, 56
5, 21601, Note_on_c, 3, 71, 111
5, 21669, Note_off_c, 3, 71, 56
5, 21721, Note_on_c, 3, 72, 111
5, 21829, Note_off_c, 3, 72, 56
5, 21841, Note_on_c, 3, 71, 111
5, 21932, Note_off_c, 3, 71, 56
5, 21961, Note_on_c, 3, 69, 111
5, 22029, Note_off_c, 3, 69, 56
5, 22081, Note_on_c, 3, 67, 111
5, 22149, Note_off_c, 3, 67, 56
5, 22198, Note_on_c, 3, 72, 111
5, 22306, Note_off_c, 3, 72, 56
5, 22320, Note_on_c, 3, 71, 111
5, 22411, Note_off_c, 3, 71, 56
5, 22440, Note_on_c, 3, 69, 111
5, 22508, Note_off_c, 3, 69, 56
5, 22560, Note_on_c, 3, 67, 111
5, 22628, Note_off_c, 3, 67, 56
5, 22678, Note_on_c, 3, 72, 111
5, 22786, Note_off_c, 3, 72, 56
5, 22800, Note_on_c, 3, 71, 111
5, 22891, Note_off_c, 3, 71, 56
5, 22919, Note_on_c, 3, 69, 111
5, 22987, Note_off_c, 3, 69, 56
5, 23039, Note_on_c, 3, 67, 111
5, 23107, Note_off_c, 3, 67, 56
5, 23160, Note_on_c, 3, 72, 111
5, 23268, Note_off_c, 3, 72, 56
5, 23280, Note_on_c, 3, 71, 111
5, 23371, Note_off_c, 3, 71, 56
5, 23400, Note_on_c, 3, 69, 111
5, 23468, Note_off_c, 3, 69, 56
5, 23519, Note_on_c, 3, 67, 111
5, 23587, Note_off_c, 3, 67, 56
5, 23640, Note_on_c, 3, 65, 111
5, 23708, Note_off_c, 3, 65, 56
5, 23761, Note_on_c, 3, 64, 111
5, 23829, Note_off_c, 3, 64, 56
5, 23879, Note_on_c, 3, 62, 111
5, 23947, Note_off_c, 3, 62, 56
5, 23998, Note_on_c, 3, 72, 108
5, 24646, Note_off_c, 3, 72, 64
5, 24721, Note_on_c, 3, 67, 108
5, 24937, Note_off_c, 3, 67, 64
5, 24962, Note_on_c, 3, 76, 108
5, 25646, Note_off_c, 3, 76, 64
5, 25682, Note_on_c, 3, 74, 108
5, 25844, Note_off_c, 3, 74, 64
5, 25860, Note_on_c, 3, 72, 111
5, 25905, Note_off_c, 3, 72, 56
5, 25921, Note_on_c, 3, 71, 108
5, 26126, Note_off_c, 3, 71, 64
5, 27841, Note_on_c, 3, 74, 108
5, 28489, Note_off_c, 3, 74, 64
5, 28560, Note_on_c, 3, 67, 108
5, 28776, Note_off_c, 3, 67, 64
5, 28799, Note_on_c, 3, 77, 108
5, 29483, Note_off_c, 3, 77, 64
5, 29517, Note_on_c, 3, 76, 108
5, 29679, Note_off_c, 3, 76, 64
5, 29700, Note_on_c, 3, 74, 111
5, 29745, Note_off_c, 3, 74, 56
5, 29759, Note_on_c, 3, 74, 108
5, 29975, Note_off_c, 3, 74, 64
5, 29998, Note_on_c, 3, 76, 108
5, 31582, Note_off_c, 3, 76, 64
5, 31683, Note_on_c, 3, 76, 108
5, 31888, Note_off_c, 3, 76, 64
5, 32637, Note_on_c, 3, 76, 108
5, 32842, Note_off_c, 3, 76, 64
5, 33597, Note_on_c, 3, 72, 108
5, 33802, Note_off_c, 3, 72, 64
5, 34558, Note_on_c, 3, 72, 108
5, 34763, Note_off_c, 3, 72, 64
5, 35522, Note_on_c, 3, 71, 108
5, 35727, Note_off_c, 3, 71, 64
5, 36000, Note_on_c, 3, 71, 108
5, 36205, Note_off_c, 3, 71, 64
5, 36483, Note_on_c, 3, 69, 108
5, 36688, Note_off_c, 3, 69, 64
5, 36957, Note_on_c, 3, 69, 108
5, 37162, Note_off_c, 3, 69, 64
5, 37443, Note_on_c, 3, 71, 108
5, 37648, Note_off_c, 3, 71, 64
5, 37923, Note_on_c, 3, 71, 108
5, 38128, Note_off_c, 3, 71, 64
5, 38401, Note_on_c, 3, 69, 111
5, 38492, Note_off_c, 3, 69, 56
5, 39000, Note_on_c, 3, 74, 111
5, 39091, Note_off_c, 3, 74, 56
5, 39119, Note_on_c, 3, 72, 111
5, 39210, Note_off_c, 3, 72, 56
5, 39241, Note_on_c, 3, 71, 111
5, 39332, Note_off_c, 3, 71, 56
5, 39359, Note_on_c, 3, 69, 111
5, 39427, Note_off_c, 3, 69, 56
5, 39480, Note_on_c, 3, 71, 111
5, 39571, Note_off_c, 3, 71, 56
5, 39601, Note_on_c, 3, 69, 111
5, 39692, Note_off_c, 3, 69, 56
5, 39721, Note_on_c, 3, 67, 111
5, 39789, Note_off_c, 3, 67, 56
5, 39841, Note_on_c, 3, 66, 111
5, 39909, Note_off_c, 3, 66, 56
5, 39960, Note_on_c, 3, 66, 111
5, 40051, Note_off_c, 3, 66, 56
5, 40079, Note_on_c, 3, 67, 111
5, 40170, Note_off_c, 3, 67, 56
5, 40199, Note_on_c, 3, 67, 111
5, 40267, Note_off_c, 3, 67, 56
5, 40319, Note_on_c, 3, 66, 111
5, 40410, Note_off_c, 3, 66, 56
5, 42242, Note_on_c, 3, 74, 108
5, 42378, Note_off_c, 3, 74, 64
5, 42718, Note_on_c, 3, 76, 108
5, 42854, Note_off_c, 3, 76, 64
5, 43197, Note_on_c, 3, 74, 108
5, 43845, Note_off_c, 3, 74, 64
5, 47038, Note_on_c, 3, 74, 108
5, 47686, Note_off_c, 3, 74, 64
5, 54718, Note_on_c, 3, 76, 108
5, 55306, Note_off_c, 3, 76, 64
5, 55321, Note_on_c, 3, 76, 111
5, 55412, Note_off_c, 3, 76, 56
5, 55441, Note_on_c, 3, 76, 111
5, 55532, Note_off_c, 3, 76, 56
5, 55561, Note_on_c, 3, 76, 111
5, 55652, Note_off_c, 3, 76, 56
5, 55681, Note_on_c, 3, 76, 111
5, 55772, Note_off_c, 3, 76, 56
5, 55801, Note_on_c, 3, 76, 111
5, 55892, Note_off_c, 3, 76, 56
5, 55921, Note_on_c, 3, 76, 111
5, 56012, Note_off_c, 3, 76, 56
5, 56039, Note_on_c, 3, 76, 111
5, 56130, Note_off_c, 3, 76, 56
5, 56159, Note_on_c, 3, 76, 111
5, 56250, Note_off_c, 3, 76, 56
5, 56280, Note_on_c, 3, 76, 111
5, 56371, Note_off_c, 3, 76, 56
5, 56400, Note_on_c, 3, 76, 111
5, 56491, Note_off_c, 3, 76, 56
5, 56520, Note_on_c, 3, 76, 111
5, 56611, Note_off_c, 3, 76, 56
5, 56641, Note_on_c, 3, 76, 108
5, 56846, Note_off_c, 3, 76, 64
5, 60478, Note_on_c, 3, 67, 73
5, 61162, Note_off_c, 3, 67, 64
5, 61201, Note_on_c, 3, 66, 73
5, 61417, Note_off_c, 3, 66, 64
5, 61441, Note_on_c, 3, 64, 73
5, 61657, Note_off_c, 3, 64, 64
5, 61679, Note_on_c, 3, 62, 73
5, 61884, Note_off_c, 3, 62, 64
5, 61923, Note_on_c, 3, 62, 73
5, 62128, Note_off_c, 3, 62, 64
5, 62157, Note_on_c, 3, 62, 73
5, 62362, Note_off_c, 3, 62, 64
5, 62401, Note_on_c, 3, 67, 73
5, 63085, Note_off_c, 3, 67, 64
5, 63121, Note_on_c, 3, 66, 73
5, 63337, Note_off_c, 3, 66, 64
5, 63362, Note_on_c, 3, 64, 73
5, 63578, Note_off_c, 3, 64, 64
5, 63602, Note_on_c, 3, 62, 73
5, 63807, Note_off_c, 3, 62, 64
5, 63837, Note_on_c, 3, 62, 73
5, 64042, Note_off_c, 3, 62, 64
5, 64080, Note_on_c, 3, 62, 73
5, 64285, Note_off_c, 3, 62, 64
5, 64322, Note_on_c, 3, 72, 73
5, 65030, Note_off_c, 3, 72, 64
5, 65037, Note_on_c, 3, 71, 73
5, 65253, Note_off_c, 3, 71, 64
5, 65278, Note_on_c, 3, 69, 73
5, 65494, Note_off_c, 3, 69, 64
5, 65523, Note_on_c, 3, 68, 73
5, 65728, Note_off_c, 3, 68, 64
5, 65762, Note_on_c, 3, 68, 73
5, 65967, Note_off_c, 3, 68, 64
5, 66000, Note_on_c, 3, 68, 73
5, 66205, Note_off_c, 3, 68, 64
5, 66237, Note_on_c, 3, 69, 73
5, 66669, Note_off_c, 3, 69, 64
5, 66718, Note_on_c, 3, 72, 73
5, 67117, Note_off_c, 3, 72, 64
5, 67141, Note_on_c, 3, 69, 76
5, 67195, Note_off_c, 3, 69, 56
5, 67200, Note_on_c, 3, 67, 73
5, 67656, Note_off_c, 3, 67, 64
5, 67678, Note_on_c, 3, 69, 73
5, 68077, Note_off_c, 3, 69, 64
5, 68100, Note_on_c, 3, 66, 76
5, 68145, Note_off_c, 3, 66, 56
5, 68157, Note_on_c, 3, 74, 90
5, 68805, Note_off_c, 3, 74, 64
5, 68881, Note_on_c, 3, 72, 90
5, 69086, Note_off_c, 3, 72, 64
5, 69122, Note_on_c, 3, 72, 90
5, 69327, Note_off_c, 3, 72, 64
5, 69360, Note_on_c, 3, 72, 90
5, 69565, Note_off_c, 3, 72, 64
5, 69599, Note_on_c, 3, 72, 90
5, 69804, Note_off_c, 3, 72, 64
5, 69839, Note_on_c, 3, 72, 90
5, 70044, Note_off_c, 3, 72, 64
5, 70080, Note_on_c, 3, 74, 96
5, 70728, Note_off_c, 3, 74, 64
5, 70802, Note_on_c, 3, 72, 90
5, 71007, Note_off_c, 3, 72, 64
5, 71037, Note_on_c, 3, 72, 90
5, 71242, Note_off_c, 3, 72, 64
5, 71280, Note_on_c, 3, 72, 90
5, 71485, Note_off_c, 3, 72, 64
5, 71523, Note_on_c, 3, 72, 90
5, 71728, Note_off_c, 3, 72, 64
5, 71763, Note_on_c, 3, 72, 90
5, 71968, Note_off_c, 3, 72, 64
5, 72000, Note_on_c, 3, 72, 96
5, 72648, Note_off_c, 3, 72, 64
5, 72721, Note_on_c, 3, 71, 98
5, 72926, Note_off_c, 3, 71, 64
5, 72961, Note_on_c, 3, 69, 100
5, 73166, Note_off_c, 3, 69, 64
5, 73203, Note_on_c, 3, 68, 100
5, 73408, Note_off_c, 3, 68, 64
5, 73442, Note_on_c, 3, 68, 101
5, 73647, Note_off_c, 3, 68, 64
5, 73681, Note_on_c, 3, 68, 101
5, 73886, Note_off_c, 3, 68, 64
5, 73918, Note_on_c, 3, 68, 102
5, 74123, Note_off_c, 3, 68, 64
5, 74158, Note_on_c, 3, 68, 103
5, 74363, Note_off_c, 3, 68, 64
5, 74397, Note_on_c, 3, 68, 103
5, 74602, Note_off_c, 3, 68, 64
5, 74638, Note_on_c, 3, 68, 104
5, 74843, Note_off_c, 3, 68, 64
5, 74880, Note_on_c, 3, 68, 105
5, 75085, Note_off_c, 3, 68, 64
5, 75118, Note_on_c, 3, 68, 105
5, 75323, Note_off_c, 3, 68, 64
5, 75361, Note_on_c, 3, 68, 106
5, 75566, Note_off_c, 3, 68, 64
5, 75600, Note_on_c, 3, 68, 106
5, 75805, Note_off_c, 3, 68, 64
5, 75842, Note_on_c, 3, 77, 108
5, 77666, Note_off_c, 3, 77, 64
5, 77763, Note_on_c, 3, 74, 108
5, 78411, Note_off_c, 3, 74, 64
5, 78480, Note_on_c, 3, 74, 111
5, 78571, Note_off_c, 3, 74, 56
5, 78599, Note_on_c, 3, 74, 111
5, 78690, Note_off_c, 3, 74, 56
5, 78722, Note_on_c, 3, 74, 108
5, 79370, Note_off_c, 3, 74, 64
5, 79440, Note_on_c, 3, 74, 111
5, 79531, Note_off_c, 3, 74, 56
5, 79561, Note_on_c, 3, 74, 111
5, 79652, Note_off_c, 3, 74, 56
5, 79682, Note_on_c, 3, 74, 108
5, 79887, Note_off_c, 3, 74, 64
5, 79919, Note_on_c, 3, 74, 111
5, 80010, Note_off_c, 3, 74, 56
5, 80040, Note_on_c, 3, 74, 111
5, 80131, Note_off_c, 3, 74, 56
5, 80163, Note_on_c, 3, 74, 108
5, 80368, Note_off_c, 3, 74, 64
5, 80401, Note_on_c, 3, 74, 111
5, 80492, Note_off_c, 3, 74, 56
5, 80519, Note_on_c, 3, 74, 111
5, 80610, Note_off_c, 3, 74, 56
5, 80641, Note_on_c, 3, 74, 111
5, 80732, Note_off_c, 3, 74, 56
5, 80759, Note_on_c, 3, 67, 111
5, 80850, Note_off_c, 3, 67, 56
5, 80879, Note_on_c, 3, 74, 111
5, 80970, Note_off_c, 3, 74, 56
5, 81000, Note_on_c, 3, 71, 111
5, 81091, Note_off_c, 3, 71, 56
5, 81119, Note_on_c, 3, 77, 111
5, 81210, Note_off_c, 3, 77, 56
5, 81239, Note_on_c, 3, 74, 111
5, 81330, Note_off_c, 3, 74, 56
5, 81360, Note_on_c, 3, 71, 111
5, 81451, Note_off_c, 3, 71, 56
5, 81480, Note_on_c, 3, 67, 111
5, 81571, Note_off_c, 3, 67, 56
5, 81600, Note_on_c, 3, 72, 108
5, 82032, Note_off_c, 3, 72, 64
5, 82080, Note_on_c, 3, 76, 108
5, 82512, Note_off_c, 3, 76, 64
5, 82561, Note_on_c, 3, 79, 108
5, 83209, Note_off_c, 3, 79, 64
5, 83281, Note_on_c, 3, 77, 111
5, 83372, Note_off_c, 3, 77, 56
5, 83521, Note_on_c, 3, 76, 111
5, 83612, Note_off_c, 3, 76, 56
5, 83761, Note_on_c, 3, 74, 111
5, 83852, Note_off_c, 3, 74, 56
5, 84000, Note_on_c, 3, 72, 111
5, 84091, Note_off_c, 3, 72, 56
5, 84241, Note_on_c, 3, 74, 111
5, 84332, Note_off_c, 3, 74, 56
5, 84478, Note_on_c, 3, 72, 108
5, 85126, Note_off_c, 3, 72, 64
5, 85199, Note_on_c, 3, 72, 108
5, 85352, Note_off_c, 3, 72, 64
5, 85380, Note_on_c, 3, 72, 111
5, 85425, Note_off_c, 3, 72, 56
5, 85443, Note_on_c, 3, 74, 108
5, 86091, Note_off_c, 3, 74, 64
5, 86159, Note_on_c, 3, 74, 108
5, 86312, Note_off_c, 3, 74, 64
5, 86340, Note_on_c, 3, 74, 111
5, 86385, Note_off_c, 3, 74, 56
5, 86397, Note_on_c, 3, 76, 108
5, 87261, Note_off_c, 3, 76, 64
5, 87358, Note_on_c, 3, 77, 108
5, 87790, Note_off_c, 3, 77, 64
5, 87840, Note_on_c, 3, 81, 108
5, 88272, Note_off_c, 3, 81, 64
5, 88323, Note_on_c, 3, 79, 108
5, 88971, Note_off_c, 3, 79, 64
5, 89042, Note_on_c, 3, 76, 108
5, 89247, Note_off_c, 3, 76, 64
5, 89283, Note_on_c, 3, 77, 108
5, 89715, Note_off_c, 3, 77, 64
5, 89758, Note_on_c, 3, 81, 108
5, 90190, Note_off_c, 3, 81, 64
5, 90239, Note_on_c, 3, 79, 108
5, 90887, Note_off_c, 3, 79, 64
5, 90963, Note_on_c, 3, 76, 108
5, 91168, Note_off_c, 3, 76, 64
5, 91200, Note_on_c, 3, 77, 108
5, 91632, Note_off_c, 3, 77, 64
5, 91683, Note_on_c, 3, 81, 108
5, 92115, Note_off_c, 3, 81, 64
5, 92158, Note_on_c, 3, 79, 108
5, 92806, Note_off_c, 3, 79, 64
5, 92879, Note_on_c, 3, 76, 108
5, 93084, Note_off_c, 3, 76, 64
5, 93117, Note_on_c, 3, 74, 108
5, 93549, Note_off_c, 3, 74, 64
5, 93600, Note_on_c, 3, 72, 108
5, 94032, Note_off_c, 3, 72, 64
5, 94082, Note_on_c, 3, 72, 111
5, 94190, Note_off_c, 3, 72, 56
5, 94201, Note_on_c, 3, 71, 111
5, 94292, Note_off_c, 3, 71, 56
5, 94320, Note_on_c, 3, 71, 108
5, 94752, Note_off_c, 3, 71, 64
5, 94801, Note_on_c, 3, 72, 108
5, 94954, Note_off_c, 3, 72, 64
5, 94980, Note_on_c, 3, 72, 111
5, 95025, Note_off_c, 3, 72, 56
5, 95041, Note_on_c, 3, 74, 108
5, 95473, Note_off_c, 3, 74, 64
5, 95517, Note_on_c, 3, 72, 108
5, 95949, Note_off_c, 3, 72, 64
5, 95999, Note_on_c, 3, 72, 111
5, 96107, Note_off_c, 3, 72, 56
5, 96119, Note_on_c, 3, 71, 111
5, 96210, Note_off_c, 3, 71, 56
5, 96241, Note_on_c, 3, 71, 108
5, 96673, Note_off_c, 3, 71, 64
5, 96720, Note_on_c, 3, 72, 111
5, 96788, Note_off_c, 3, 72, 56
5, 96900, Note_on_c, 3, 72, 111
5, 96934, Note_off_c, 3, 72, 56
5, 96959, Note_on_c, 3, 74, 111
5, 97027, Note_off_c, 3, 74, 56
5, 97140, Note_on_c, 3, 74, 111
5, 97174, Note_off_c, 3, 74, 56
5, 97199, Note_on_c, 3, 74, 111
5, 97267, Note_off_c, 3, 74, 56
5, 97380, Note_on_c, 3, 74, 111
5, 97414, Note_off_c, 3, 74, 56
5, 97439, Note_on_c, 3, 72, 111
5, 97507, Note_off_c, 3, 72, 56
5, 97620, Note_on_c, 3, 72, 111
5, 97654, Note_off_c, 3, 72, 56
5, 97681, Note_on_c, 3, 72, 111
5, 97749, Note_off_c, 3, 72, 56
5, 97860, Note_on_c, 3, 72, 111
5, 97894, Note_off_c, 3, 72, 56
5, 97922, Note_on_c, 3, 71, 108
5, 98127, Note_off_c, 3, 71, 64
5, 98161, Note_on_c, 3, 71, 108
5, 98366, Note_off_c, 3, 71, 64
5, 98397, Note_on_c, 3, 76, 108
5, 98602, Note_off_c, 3, 76, 64
5, 98643, Note_on_c, 3, 76, 108
5, 98848, Note_off_c, 3, 76, 64
5, 98882, Note_on_c, 3, 74, 108
5, 99087, Note_off_c, 3, 74, 64
5, 99118, Note_on_c, 3, 71, 108
5, 99323, Note_off_c, 3, 71, 64
5, 99359, Note_on_c, 3, 76, 108
5, 99564, Note_off_c, 3, 76, 64
5, 99602, Note_on_c, 3, 76, 108
5, 99807, Note_off_c, 3, 76, 64
5, 99841, Note_on_c, 3, 74, 111
5, 99932, Note_off_c, 3, 74, 56
5, 100020, Note_on_c, 3, 72, 111
5, 100065, Note_off_c, 3, 72, 56
5, 100077, Note_on_c, 3, 76, 108
5, 100282, Note_off_c, 3, 76, 64
5, 100320, Note_on_c, 3, 74, 111
5, 100411, Note_off_c, 3, 74, 56
5, 100500, Note_on_c, 3, 72, 111
5, 100545, Note_off_c, 3, 72, 56
5, 100559, Note_on_c, 3, 76, 108
5, 100764, Note_off_c, 3, 76, 64
5, 100799, Note_on_c, 3, 74, 111
5, 100890, Note_off_c, 3, 74, 56
5, 100980, Note_on_c, 3, 72, 111
5, 101025, Note_off_c, 3, 72, 56
5, 101038, Note_on_c, 3, 76, 108
5, 101243, Note_off_c, 3, 76, 64
5, 101280, Note_on_c, 3, 74, 111
5, 101371, Note_off_c, 3, 74, 56
5, 101460, Note_on_c, 3, 72, 111
5, 101505, Note_off_c, 3, 72, 56
5, 101521, Note_on_c, 3, 76, 108
5, 101726, Note_off_c, 3, 76, 64
5, 101761, Note_on_c, 3, 74, 111
5, 101852, Note_off_c, 3, 74, 56
5, 102839, Note_on_c, 3, 76, 111
5, 102947, Note_off_c, 3, 76, 56
5, 102961, Note_on_c, 3, 74, 111
5, 103052, Note_off_c, 3, 74, 56
5, 103080, Note_on_c, 3, 72, 111
5, 103148, Note_off_c, 3, 72, 56
5, 103199, Note_on_c, 3, 71, 111
5, 103267, Note_off_c, 3, 71, 56
5, 103320, Note_on_c, 3, 72, 111
5, 103428, Note_off_c, 3, 72, 56
5, 103439, Note_on_c, 3, 71, 111
5, 103530, Note_off_c, 3, 71, 56
5, 103561, Note_on_c, 3, 69, 111
5, 103629, Note_off_c, 3, 69, 56
5, 103681, Note_on_c, 3, 67, 111
5, 103749, Note_off_c, 3, 67, 56
5, 103799, Note_on_c, 3, 72, 111
5, 103907, Note_off_c, 3, 72, 56
5, 103919, Note_on_c, 3, 71, 111
5, 104010, Note_off_c, 3, 71, 56
5, 104040, Note_on_c, 3, 69, 111
5, 104108, Note_off_c, 3, 69, 56
5, 104161, Note_on_c, 3, 67, 111
5, 104229, Note_off_c, 3, 67, 56
5, 104279, Note_on_c, 3, 72, 111
5, 104387, Note_off_c, 3, 72, 56
5, 104401, Note_on_c, 3, 71, 111
5, 104492, Note_off_c, 3, 71, 56
5, 104519, Note_on_c, 3, 69, 111
5, 104587, Note_off_c, 3, 69, 56
5, 104640, Note_on_c, 3, 67, 111
5, 104708, Note_off_c, 3, 67, 56
5, 104759, Note_on_c, 3, 72, 111
5, 104867, Note_off_c, 3, 72, 56
5, 104879, Note_on_c, 3, 71, 111
5, 104970, Note_off_c, 3, 71, 56
5, 105001, Note_on_c, 3, 69, 111
5, 105069, Note_off_c, 3, 69, 56
5, 105119, Note_on_c, 3, 67, 111
5, 105187, Note_off_c, 3, 67, 56
5, 105239, Note_on_c, 3, 65, 111
5, 105307, Note_off_c, 3, 65, 56
5, 105360, Note_on_c, 3, 64, 111
5, 105428, Note_off_c, 3, 64, 56
5, 105480, Note_on_c, 3, 62, 111
5, 105548, Note_off_c, 3, 62, 56
5, 105600, Note_on_c, 3, 72, 108
5, 106248, Note_off_c, 3, 72, 64
5, 106319, Note_on_c, 3, 67, 108
5, 106535, Note_off_c, 3, 67, 64
5, 106557, Note_on_c, 3, 76, 108
5, 107241, Note_off_c, 3, 76, 64
5, 107282, Note_on_c, 3, 74, 108
5, 107444, Note_off_c, 3, 74, 64
5, 107460, Note_on_c, 3, 72, 111
5, 107505, Note_off_c, 3, 72, 56
5, 107521, Note_on_c, 3, 71, 108
5, 107726, Note_off_c, 3, 71, 64
5, 109442, Note_on_c, 3, 74, 108
5, 110090, Note_off_c, 3, 74, 64
5, 110401, Note_on_c, 3, 77, 108
5, 111085, Note_off_c, 3, 77, 64
5, 111121, Note_on_c, 3, 76, 108
5, 111283, Note_off_c, 3, 76, 64
5, 111300, Note_on_c, 3, 74, 111
5, 111345, Note_off_c, 3, 74, 56
5, 111369, Note_on_c, 3, 74, 108
5, 111585, Note_off_c, 3, 74, 64
5, 111598, Note_on_c, 3, 76, 108
5, 113182, Note_off_c, 3, 76, 64
5, 113282, Note_on_c, 3, 76, 108
5, 113487, Note_off_c, 3, 76, 64
5, 114242, Note_on_c, 3, 76, 108
5, 114447, Note_off_c, 3, 76, 64
5, 115200, Note_on_c, 3, 72, 108
5, 115405, Note_off_c, 3, 72, 64
5, 116163, Note_on_c, 3, 72, 108
5, 116368, Note_off_c, 3, 72, 64
5, 117120, Note_on_c, 3, 71, 108
5, 117325, Note_off_c, 3, 71, 64
5, 117599, Note_on_c, 3, 71, 108
5, 117804, Note_off_c, 3, 71, 64
5, 118081, Note_on_c, 3, 69, 108
5, 118286, Note_off_c, 3, 69, 64
5, 118561, Note_on_c, 3, 69, 108
5, 118766, Note_off_c, 3, 69, 64
5, 119041, Note_on_c, 3, 71, 108
5, 119246, Note_off_c, 3, 71, 64
5, 119521, Note_on_c, 3, 71, 108
5, 119726, Note_off_c, 3, 71, 64
5, 120000, Note_on_c, 3, 69, 111
5, 120091, Note_off_c, 3, 69, 56
5, 120599, Note_on_c, 3, 74, 111
5, 120690, Note_off_c, 3, 74, 56
5, 120719, Note_on_c, 3, 72, 111
5, 120810, Note_off_c, 3, 72, 56
5, 120841, Note_on_c, 3, 71, 111
5, 120932, Note_off_c, 3, 71, 56
5, 120959, Note_on_c, 3, 69, 111
5, 121027, Note_off_c, 3, 69, 56
5, 121081, Note_on_c, 3, 71, 111
5, 121172, Note_off_c, 3, 71, 56
5, 121200, Note_on_c, 3, 69, 111
5, 121291, Note_off_c, 3, 69, 56
5, 121319, Note_on_c, 3, 67, 111
5, 121387, Note_off_c, 3, 67, 56
5, 121441, Note_on_c, 3, 66, 111
5, 121509, Note_off_c, 3, 66, 56
5, 121561, Note_on_c, 3, 66, 111
5, 121652, Note_off_c, 3, 66, 56
5, 121680, Note_on_c, 3, 67, 111
5, 121771, Note_off_c, 3, 67, 56
5, 121801, Note_on_c, 3, 67, 111
5, 121869, Note_off_c, 3, 67, 56
5, 121920, Note_on_c, 3, 66, 111
5, 122011, Note_off_c, 3, 66, 56
5, 123841, Note_on_c, 3, 74, 108
5, 123977, Note_off_c, 3, 74, 64
5, 124321, Note_on_c, 3, 76, 108
5, 124457, Note_off_c, 3, 76, 64
5, 124798, Note_on_c, 3, 74, 108
5, 125446, Note_off_c, 3, 74, 64
5, 128638, Note_on_c, 3, 74, 108
5, 129286, Note_off_c, 3, 74, 64
5, 136317, Note_on_c, 3, 76, 108
5, 136905, Note_off_c, 3, 76, 64
5, 136920, Note_on_c, 3, 76, 111
5, 137011, Note_off_c, 3, 76, 56
5, 137040, Note_on_c, 3, 76, 111
5, 137131, Note_off_c, 3, 76, 56
5, 137161, Note_on_c, 3, 76, 111
5, 137252, Note_off_c, 3, 76, 56
5, 137280, Note_on_c, 3, 76, 111
5, 137371, Note_off_c, 3, 76, 56
5, 137401, Note_on_c, 3, 76, 111
5, 137492, Note_off_c, 3, 76, 56
5, 137520, Note_on_c, 3, 76, 111
5, 137611, Note_off_c, 3, 76, 56
5, 137640, Note_on_c, 3, 76, 111
5, 137731, Note_off_c, 3, 76, 56
5, 137761, Note_on_c, 3, 76, 111
5, 137852, Note_off_c, 3, 76, 56
5, 137881, Note_on_c, 3, 76, 111
5, 137972, Note_off_c, 3, 76, 56
5, 138001, Note_on_c, 3, 76, 111
5, 138092, Note_off_c, 3, 76, 56
5, 138121, Note_on_c, 3, 76, 111
5, 138212, Note_off_c, 3, 76, 56
5, 138239, Note_on_c, 3, 76, 108
5, 138444, Note_off_c, 3, 76, 64
5, 142082, Note_on_c, 3, 67, 73
5, 142766, Note_off_c, 3, 67, 64
5, 142802, Note_on_c, 3, 66, 73
5, 143018, Note_off_c, 3, 66, 64
5, 143042, Note_on_c, 3, 64, 73
5, 143258, Note_off_c, 3, 64, 64
5, 143279, Note_on_c, 3, 62, 73
5, 143484, Note_off_c, 3, 62, 64
5, 143518, Note_on_c, 3, 62, 73
5, 143723, Note_off_c, 3, 62, 64
5, 143759, Note_on_c, 3, 62, 73
5, 143964, Note_off_c, 3, 62, 64
5, 144003, Note_on_c, 3, 67, 73
5, 144687, Note_off_c, 3, 67, 64
5, 144723, Note_on_c, 3, 66, 73
5, 144939, Note_off_c, 3, 66, 64
5, 144957, Note_on_c, 3, 64, 73
5, 145173, Note_off_c, 3, 64, 64
5, 145198, Note_on_c, 3, 62, 73
5, 145403, Note_off_c, 3, 62, 64
5, 145441, Note_on_c, 3, 62, 73
5, 145646, Note_off_c, 3, 62, 64
5, 145681, Note_on_c, 3, 62, 73
5, 145886, Note_off_c, 3, 62, 64
5, 145920, Note_on_c, 3, 72, 73
5, 146628, Note_off_c, 3, 72, 64
5, 146640, Note_on_c, 3, 71, 73
5, 146856, Note_off_c, 3, 71, 64
5, 146883, Note_on_c, 3, 69, 73
5, 147099, Note_off_c, 3, 69, 64
5, 147119, Note_on_c, 3, 68, 73
5, 147324, Note_off_c, 3, 68, 64
5, 147360, Note_on_c, 3, 68, 73
5, 147565, Note_off_c, 3, 68, 64
5, 147600, Note_on_c, 3, 68, 73
5, 147805, Note_off_c, 3, 68, 64
5, 147841, Note_on_c, 3, 69, 73
5, 148273, Note_off_c, 3, 69, 64
5, 148322, Note_on_c, 3, 72, 73
5, 148721, Note_off_c, 3, 72, 64
5, 148741, Note_on_c, 3, 69, 76
5, 148795, Note_off_c, 3, 69, 56
5, 148802, Note_on_c, 3, 67, 73
5, 149258, Note_off_c, 3, 67, 64
5, 149281, Note_on_c, 3, 69, 73
5, 149680, Note_off_c, 3, 69, 64
5, 149700, Note_on_c, 3, 66, 76
5, 149745, Note_off_c, 3, 66, 56
5, 149762, Note_on_c, 3, 74, 90
5, 150410, Note_off_c, 3, 74, 64
5, 150477, Note_on_c, 3, 72, 90
5, 150682, Note_off_c, 3, 72, 64
5, 150718, Note_on_c, 3, 72, 90
5, 150923, Note_off_c, 3, 72, 64
5, 150958, Note_on_c, 3, 72, 90
5, 151163, Note_off_c, 3, 72, 64
5, 151199, Note_on_c, 3, 72, 90
5, 151404, Note_off_c, 3, 72, 64
5, 151442, Note_on_c, 3, 72, 90
5, 151647, Note_off_c, 3, 72, 64
5, 151683, Note_on_c, 3, 74, 96
5, 152331, Note_off_c, 3, 74, 64
5, 152398, Note_on_c, 3, 72, 90
5, 152603, Note_off_c, 3, 72, 64
5, 152642, Note_on_c, 3, 72, 90
5, 152847, Note_off_c, 3, 72, 64
5, 152883, Note_on_c, 3, 72, 90
5, 153088, Note_off_c, 3, 72, 64
5, 153121, Note_on_c, 3, 72, 90
5, 153326, Note_off_c, 3, 72, 64
5, 153362, Note_on_c, 3, 72, 90
5, 153567, Note_off_c, 3, 72, 64
5, 153603, Note_on_c, 3, 72, 96
5, 154251, Note_off_c, 3, 72, 64
5, 154320, Note_on_c, 3, 71, 98
5, 154525, Note_off_c, 3, 71, 64
5, 154561, Note_on_c, 3, 69, 100
5, 154766, Note_off_c, 3, 69, 64
5, 154802, Note_on_c, 3, 68, 100
5, 155007, Note_off_c, 3, 68, 64
5, 155037, Note_on_c, 3, 68, 101
5, 155242, Note_off_c, 3, 68, 64
5, 155283, Note_on_c, 3, 68, 101
5, 155488, Note_off_c, 3, 68, 64
5, 155522, Note_on_c, 3, 68, 102
5, 155727, Note_off_c, 3, 68, 64
5, 155760, Note_on_c, 3, 68, 103
5, 155965, Note_off_c, 3, 68, 64
5, 156002, Note_on_c, 3, 68, 103
5, 156207, Note_off_c, 3, 68, 64
5, 156239, Note_on_c, 3, 68, 104
5, 156444, Note_off_c, 3, 68, 64
5, 156482, Note_on_c, 3, 68, 105
5, 156687, Note_off_c, 3, 68, 64
5, 156722, Note_on_c, 3, 68, 105
5, 156927, Note_off_c, 3, 68, 64
5, 156957, Note_on_c, 3, 68, 106
5, 157162, Note_off_c, 3, 68, 64
5, 157197, Note_on_c, 3, 68, 106
5, 157402, Note_off_c, 3, 68, 64
5, 157439, Note_on_c, 3, 77, 108
5, 159263, Note_off_c, 3, 77, 64
5, 159359, Note_on_c, 3, 74, 108
5, 160007, Note_off_c, 3, 74, 64
5, 160080, Note_on_c, 3, 74, 111
5, 160171, Note_off_c, 3, 74, 56
5, 160199, Note_on_c, 3, 74, 111
5, 160290, Note_off_c, 3, 74, 56
5, 160317, Note_on_c, 3, 74, 108
5, 160965, Note_off_c, 3, 74, 64
5, 161041, Note_on_c, 3, 74, 111
5, 161132, Note_off_c, 3, 74, 56
5, 161161, Note_on_c, 3, 74, 111
5, 161252, Note_off_c, 3, 74, 56
5, 161280, Note_on_c, 3, 74, 108
5, 161485, Note_off_c, 3, 74, 64
5, 161520, Note_on_c, 3, 74, 111
5, 161611, Note_off_c, 3, 74, 56
5, 161639, Note_on_c, 3, 74, 111
5, 161730, Note_off_c, 3, 74, 56
5, 161757, Note_on_c, 3, 74, 108
5, 161962, Note_off_c, 3, 74, 64
5, 162000, Note_on_c, 3, 74, 111
5, 162091, Note_off_c, 3, 74, 56
5, 162120, Note_on_c, 3, 74, 111
5, 162211, Note_off_c, 3, 74, 56
5, 162239, Note_on_c, 3, 74, 111
5, 162330, Note_off_c, 3, 74, 56
5, 162359, Note_on_c, 3, 74, 111
5, 162450, Note_off_c, 3, 74, 56
5, 162477, Note_on_c, 3, 74, 108
5, 163125, Note_off_c, 3, 74, 64
5, 163201, Note_on_c, 3, 74, 108
5, 166945, Note_off_c, 3, 74, 64
5, 167043, Note_on_c, 3, 73, 108
5, 167248, Note_off_c, 3, 73, 64
5, 176400, Note_on_c, 3, 67, 73
5, 176616, Note_off_c, 3, 67, 64
5, 176642, Note_on_c, 3, 69, 73
5, 177290, Note_off_c, 3, 69, 64
5, 177357, Note_on_c, 3, 69, 73
5, 177573, Note_off_c, 3, 69, 64
5, 177597, Note_on_c, 3, 70, 73
5, 177813, Note_off_c, 3, 70, 64
5, 177839, Note_on_c, 3, 72, 73
5, 178055, Note_off_c, 3, 72, 64
5, 178080, Note_on_c, 3, 74, 73
5, 178296, Note_off_c, 3, 74, 64
5, 178320, Note_on_c, 3, 71, 73
5, 178536, Note_off_c, 3, 71, 64
5, 178558, Note_on_c, 3, 72, 73
5, 178774, Note_off_c, 3, 72, 64
5, 178800, Note_on_c, 3, 71, 73
5, 179016, Note_off_c, 3, 71, 64
5, 179038, Note_on_c, 3, 72, 73
5, 179254, Note_off_c, 3, 72, 64
5, 179283, Note_on_c, 3, 67, 73
5, 179499, Note_off_c, 3, 67, 64
5, 179520, Note_on_c, 3, 72, 73
5, 179725, Note_off_c, 3, 72, 64
5, 180243, Note_on_c, 3, 69, 73
5, 180459, Note_off_c, 3, 69, 64
5, 180477, Note_on_c, 3, 70, 73
5, 180693, Note_off_c, 3, 70, 64
5, 180722, Note_on_c, 3, 69, 73
5, 180938, Note_off_c, 3, 69, 64
5, 180958, Note_on_c, 3, 70, 73
5, 181174, Note_off_c, 3, 70, 64
5, 181200, Note_on_c, 3, 71, 73
5, 181416, Note_off_c, 3, 71, 64
5, 181438, Note_on_c, 3, 72, 73
5, 181654, Note_off_c, 3, 72, 64
5, 181678, Note_on_c, 3, 68, 73
5, 181894, Note_off_c, 3, 68, 64
5, 181920, Note_on_c, 3, 69, 73
5, 182125, Note_off_c, 3, 69, 64
5, 182161, Note_on_c, 3, 76, 73
5, 182377, Note_off_c, 3, 76, 64
5, 182399, Note_on_c, 3, 77, 78
5, 183047, Note_off_c, 3, 77, 64
5, 183121, Note_on_c, 3, 77, 90
5, 185929, Note_off_c, 3, 77, 64
5, 186001, Note_on_c, 3, 77, 90
5, 188809, Note_off_c, 3, 77, 64
5, 190081, Note_on_c, 3, 75, 90
5, 191689, Note_off_c, 3, 75, 64
5, 192957, Note_on_c, 3, 77, 90
5, 194565, Note_off_c, 3, 77, 64
5, 198481, Note_on_c, 3, 67, 95
5, 198549, Note_off_c, 3, 67, 56
5, 198560, Note_on_c, 3, 67, 95
5, 198628, Note_off_c, 3, 67, 56
5, 198639, Note_on_c, 3, 67, 95
5, 198707, Note_off_c, 3, 67, 56
5, 198719, Note_on_c, 3, 68, 92
5, 198924, Note_off_c, 3, 68, 64
5, 199441, Note_on_c, 3, 68, 96
5, 199509, Note_off_c, 3, 68, 56
5, 199519, Note_on_c, 3, 68, 97
5, 199587, Note_off_c, 3, 68, 56
5, 199600, Note_on_c, 3, 68, 97
5, 199668, Note_off_c, 3, 68, 56
5, 199681, Note_on_c, 3, 70, 94
5, 199886, Note_off_c, 3, 70, 64
5, 200401, Note_on_c, 3, 70, 98
5, 200469, Note_off_c, 3, 70, 56
5, 200481, Note_on_c, 3, 70, 98
5, 200549, Note_off_c, 3, 70, 56
5, 200559, Note_on_c, 3, 70, 98
5, 200627, Note_off_c, 3, 70, 56
5, 200643, Note_on_c, 3, 72, 95
5, 200848, Note_off_c, 3, 72, 64
5, 201361, Note_on_c, 3, 60, 99
5, 201429, Note_off_c, 3, 60, 56
5, 201441, Note_on_c, 3, 60, 100
5, 201509, Note_off_c, 3, 60, 56
5, 201520, Note_on_c, 3, 60, 100
5, 201588, Note_off_c, 3, 60, 56
5, 201600, Note_on_c, 3, 62, 97
5, 201805, Note_off_c, 3, 62, 64
5, 202320, Note_on_c, 3, 62, 101
5, 202388, Note_off_c, 3, 62, 56
5, 202399, Note_on_c, 3, 62, 101
5, 202467, Note_off_c, 3, 62, 56
5, 202479, Note_on_c, 3, 62, 101
5, 202547, Note_off_c, 3, 62, 56
5, 202557, Note_on_c, 3, 63, 98
5, 202762, Note_off_c, 3, 63, 64
5, 203281, Note_on_c, 3, 63, 103
5, 203349, Note_off_c, 3, 63, 56
5, 203359, Note_on_c, 3, 63, 104
5, 203427, Note_off_c, 3, 63, 56
5, 203441, Note_on_c, 3, 63, 104
5, 203509, Note_off_c, 3, 63, 56
5, 203520, Note_on_c, 3, 65, 101
5, 203725, Note_off_c, 3, 65, 64
5, 204239, Note_on_c, 3, 65, 105
5, 204307, Note_off_c, 3, 65, 56
5, 204319, Note_on_c, 3, 65, 105
5, 204387, Note_off_c, 3, 65, 56
5, 204401, Note_on_c, 3, 65, 105
5, 204469, Note_off_c, 3, 65, 56
5, 204480, Note_on_c, 3, 67, 102
5, 204685, Note_off_c, 3, 67, 64
5, 205199, Note_on_c, 3, 67, 107
5, 205267, Note_off_c, 3, 67, 56
5, 205279, Note_on_c, 3, 67, 107
5, 205347, Note_off_c, 3, 67, 56
5, 205359, Note_on_c, 3, 67, 107
5, 205427, Note_off_c, 3, 67, 56
5, 205679, Note_on_c, 3, 72, 107
5, 205747, Note_off_c, 3, 72, 56
5, 205761, Note_on_c, 3, 72, 107
5, 205829, Note_off_c, 3, 72, 56
5, 205840, Note_on_c, 3, 72, 108
5, 205908, Note_off_c, 3, 72, 56
5, 206159, Note_on_c, 3, 72, 108
5, 206227, Note_off_c, 3, 72, 56
5, 206240, Note_on_c, 3, 72, 108
5, 206308, Note_off_c, 3, 72, 56
5, 206319, Note_on_c, 3, 72, 108
5, 206387, Note_off_c, 3, 72, 56
5, 206639, Note_on_c, 3, 72, 109
5, 206707, Note_off_c, 3, 72, 56
5, 206719, Note_on_c, 3, 72, 109
5, 206787, Note_off_c, 3, 72, 56
5, 206801, Note_on_c, 3, 72, 109
5, 206869, Note_off_c, 3, 72, 56
5, 207121, Note_on_c, 3, 72, 111
5, 207189, Note_off_c, 3, 72, 56
5, 207199, Note_on_c, 3, 72, 111
5, 207267, Note_off_c, 3, 72, 56
5, 207279, Note_on_c, 3, 72, 111
5, 207347, Note_off_c, 3, 72, 56
5, 207361, Note_on_c, 3, 67, 108
5, 208009, Note_off_c, 3, 67, 64
5, 208081, Note_on_c, 3, 72, 108
5, 208286, Note_off_c, 3, 72, 64
5, 208317, Note_on_c, 3, 71, 108
5, 208749, Note_off_c, 3, 71, 64
5, 208801, Note_on_c, 3, 72, 108
5, 209233, Note_off_c, 3, 72, 64
5, 209283, Note_on_c, 3, 74, 108
5, 209931, Note_off_c, 3, 74, 64
5, 210000, Note_on_c, 3, 62, 108
5, 210205, Note_off_c, 3, 62, 64
5, 210237, Note_on_c, 3, 60, 108
5, 210669, Note_off_c, 3, 60, 64
5, 210717, Note_on_c, 3, 62, 108
5, 211149, Note_off_c, 3, 62, 64
5, 211202, Note_on_c, 3, 64, 108
5, 211850, Note_off_c, 3, 64, 64
5, 211917, Note_on_c, 3, 64, 108
5, 212122, Note_off_c, 3, 64, 64
5, 212157, Note_on_c, 3, 62, 108
5, 212589, Note_off_c, 3, 62, 64
5, 212637, Note_on_c, 3, 64, 108
5, 213069, Note_off_c, 3, 64, 64
5, 213117, Note_on_c, 3, 65, 108
5, 213765, Note_off_c, 3, 65, 64
5, 213838, Note_on_c, 3, 65, 108
5, 214043, Note_off_c, 3, 65, 64
5, 214083, Note_on_c, 3, 64, 108
5, 214515, Note_off_c, 3, 64, 64
5, 214563, Note_on_c, 3, 65, 108
5, 214995, Note_off_c, 3, 65, 64
5, 215037, Note_on_c, 3, 67, 108
5, 215901, Note_off_c, 3, 67, 64
5, 216001, Note_on_c, 3, 68, 108
5, 216865, Note_off_c, 3, 68, 64
5, 216960, Note_on_c, 3, 69, 108
5, 218784, Note_off_c, 3, 69, 64
5, 218877, Note_on_c, 3, 71, 108
5, 219741, Note_off_c, 3, 71, 64
5, 219840, Note_on_c, 3, 71, 108
5, 220704, Note_off_c, 3, 71, 64
5, 220800, Note_on_c, 3, 71, 108
5, 221005, Note_off_c, 3, 71, 64
5, 221040, Note_on_c, 3, 71, 111
5, 221131, Note_off_c, 3, 71, 56
5, 221160, Note_on_c, 3, 71, 111
5, 221251, Note_off_c, 3, 71, 56
5, 221280, Note_on_c, 3, 71, 108
5, 221485, Note_off_c, 3, 71, 64
5, 221520, Note_on_c, 3, 71, 111
5, 221611, Note_off_c, 3, 71, 56
5, 221639, Note_on_c, 3, 71, 111
5, 221730, Note_off_c, 3, 71, 56
5, 221762, Note_on_c, 3, 71, 108
5, 221967, Note_off_c, 3, 71, 64
5, 221999, Note_on_c, 3, 71, 111
5, 222090, Note_off_c, 3, 71, 56
5, 222119, Note_on_c, 3, 71, 111
5, 222210, Note_off_c, 3, 71, 56
5, 222239, Note_on_c, 3, 71, 108
5, 222444, Note_off_c, 3, 71, 64
5, 222480, Note_on_c, 3, 71, 111
5, 222571, Note_off_c, 3, 71, 56
5, 222599, Note_on_c, 3, 71, 111
5, 222690, Note_off_c, 3, 71, 56
5, 222719, Note_on_c, 3, 71, 108
5, 222924, Note_off_c, 3, 71, 64
5, 222961, Note_on_c, 3, 71, 111
5, 223052, Note_off_c, 3, 71, 56
5, 223081, Note_on_c, 3, 71, 111
5, 223172, Note_off_c, 3, 71, 56
5, 223203, Note_on_c, 3, 71, 108
5, 223408, Note_off_c, 3, 71, 64
5, 223440, Note_on_c, 3, 71, 111
5, 223531, Note_off_c, 3, 71, 56
5, 223559, Note_on_c, 3, 71, 111
5, 223650, Note_off_c, 3, 71, 56
5, 223681, Note_on_c, 3, 71, 108
5, 223886, Note_off_c, 3, 71, 64
5, 223921, Note_on_c, 3, 71, 111
5, 224012, Note_off_c, 3, 71, 56
5, 224040, Note_on_c, 3, 71, 111
5, 224131, Note_off_c, 3, 71, 56
5, 224163, Note_on_c, 3, 71, 108
5, 224368, Note_off_c, 3, 71, 64
5, 224401, Note_on_c, 3, 71, 111
5, 224492, Note_off_c, 3, 71, 56
5, 224521, Note_on_c, 3, 71, 111
5, 224612, Note_off_c, 3, 71, 56
5, 224638, Note_on_c, 3, 71, 108
5, 227422, Note_off_c, 3, 71, 64
5, 227517, Note_on_c, 3, 71, 108
5, 227722, Note_off_c, 3, 71, 64
5, 235443, Note_on_c, 3, 67, 73
5, 235648, Note_off_c, 3, 67, 64
5, 235682, Note_on_c, 3, 67, 73
5, 235887, Note_off_c, 3, 67, 64
5, 235918, Note_on_c, 3, 67, 73
5, 236123, Note_off_c, 3, 67, 64
5, 236157, Note_on_c, 3, 67, 73
5, 236805, Note_off_c, 3, 67, 64
5, 236880, Note_on_c, 3, 70, 73
5, 237096, Note_off_c, 3, 70, 64
5, 237121, Note_on_c, 3, 68, 73
5, 237337, Note_off_c, 3, 68, 64
5, 237362, Note_on_c, 3, 67, 73
5, 237498, Note_off_c, 3, 67, 64
5, 237603, Note_on_c, 3, 65, 73
5, 237808, Note_off_c, 3, 65, 64
5, 244081, Note_on_c, 3, 65, 73
5, 244286, Note_off_c, 3, 65, 64
5, 244321, Note_on_c, 3, 65, 73
5, 244526, Note_off_c, 3, 65, 64
5, 244560, Note_on_c, 3, 65, 73
5, 244765, Note_off_c, 3, 65, 64
5, 244802, Note_on_c, 3, 63, 73
5, 245007, Note_off_c, 3, 63, 64
5, 245520, Note_on_c, 3, 63, 73
5, 245725, Note_off_c, 3, 63, 64
5, 245762, Note_on_c, 3, 63, 73
5, 245967, Note_off_c, 3, 63, 64
5, 245998, Note_on_c, 3, 63, 73
5, 246203, Note_off_c, 3, 63, 64
5, 246238, Note_on_c, 3, 62, 73
5, 246443, Note_off_c, 3, 62, 64
5, 246963, Note_on_c, 3, 65, 73
5, 247168, Note_off_c, 3, 65, 64
5, 247198, Note_on_c, 3, 65, 73
5, 247403, Note_off_c, 3, 65, 64
5, 247442, Note_on_c, 3, 65, 73
5, 247647, Note_off_c, 3, 65, 64
5, 247677, Note_on_c, 3, 63, 73
5, 247882, Note_off_c, 3, 63, 64
5, 248400, Note_on_c, 3, 63, 73
5, 248605, Note_off_c, 3, 63, 64
5, 248639, Note_on_c, 3, 63, 73
5, 248844, Note_off_c, 3, 63, 64
5, 248881, Note_on_c, 3, 63, 73
5, 249086, Note_off_c, 3, 63, 64
5, 249118, Note_on_c, 3, 62, 73
5, 249323, Note_off_c, 3, 62, 64
5, 249843, Note_on_c, 3, 62, 73
5, 250048, Note_off_c, 3, 62, 64
5, 250082, Note_on_c, 3, 62, 73
5, 250287, Note_off_c, 3, 62, 64
5, 250321, Note_on_c, 3, 62, 73
5, 250526, Note_off_c, 3, 62, 64
5, 250557, Note_on_c, 3, 62, 73
5, 250762, Note_off_c, 3, 62, 64
5, 251282, Note_on_c, 3, 62, 73
5, 251487, Note_off_c, 3, 62, 64
5, 251521, Note_on_c, 3, 62, 73
5, 251726, Note_off_c, 3, 62, 64
5, 251759, Note_on_c, 3, 62, 73
5, 251964, Note_off_c, 3, 62, 64
5, 251998, Note_on_c, 3, 62, 73
5, 252203, Note_off_c, 3, 62, 64
5, 252719, Note_on_c, 3, 62, 73
5, 252924, Note_off_c, 3, 62, 64
5, 252960, Note_on_c, 3, 62, 73
5, 253165, Note_off_c, 3, 62, 64
5, 253203, Note_on_c, 3, 62, 73
5, 253408, Note_off_c, 3, 62, 64
5, 253437, Note_on_c, 3, 62, 73
5, 253642, Note_off_c, 3, 62, 64
5, 254162, Note_on_c, 3, 62, 73
5, 254367, Note_off_c, 3, 62, 64
5, 254398, Note_on_c, 3, 62, 73
5, 254603, Note_off_c, 3, 62, 64
5, 254641, Note_on_c, 3, 62, 73
5, 254846, Note_off_c, 3, 62, 64
5, 254877, Note_on_c, 3, 62, 73
5, 255082, Note_off_c, 3, 62, 64
5, 255602, Note_on_c, 3, 62, 73
5, 255807, Note_off_c, 3, 62, 64
5, 255841, Note_on_c, 3, 62, 73
5, 256046, Note_off_c, 3, 62, 64
5, 256082, Note_on_c, 3, 62, 73
5, 256287, Note_off_c, 3, 62, 64
5, 256318, Note_on_c, 3, 62, 73
5, 256523, Note_off_c, 3, 62, 64
5, 257037, Note_on_c, 3, 62, 73
5, 257242, Note_off_c, 3, 62, 64
5, 257281, Note_on_c, 3, 62, 73
5, 257486, Note_off_c, 3, 62, 64
5, 257520, Note_on_c, 3, 62, 73
5, 257725, Note_off_c, 3, 62, 64
5, 257760, Note_on_c, 3, 62, 73
5, 257965, Note_off_c, 3, 62, 64
5, 258477, Note_on_c, 3, 62, 73
5, 258682, Note_off_c, 3, 62, 64
5, 258718, Note_on_c, 3, 62, 73
5, 258923, Note_off_c, 3, 62, 64
5, 258959, Note_on_c, 3, 62, 73
5, 259164, Note_off_c, 3, 62, 64
5, 259197, Note_on_c, 3, 62, 73
5, 259402, Note_off_c, 3, 62, 64
5, 259919, Note_on_c, 3, 62, 73
5, 260124, Note_off_c, 3, 62, 64
5, 260161, Note_on_c, 3, 62, 73
5, 260366, Note_off_c, 3, 62, 64
5, 260401, Note_on_c, 3, 62, 73
5, 260606, Note_off_c, 3, 62, 64
5, 260643, Note_on_c, 3, 62, 73
5, 260848, Note_off_c, 3, 62, 64
5, 260881, Note_on_c, 3, 62, 73
5, 261086, Note_off_c, 3, 62, 64
5, 261123, Note_on_c, 3, 62, 73
5, 261328, Note_off_c, 3, 62, 64
5, 261362, Note_on_c, 3, 62, 73
5, 261567, Note_off_c, 3, 62, 64
5, 261601, Note_on_c, 3, 62, 73
5, 261806, Note_off_c, 3, 62, 64
5, 261837, Note_on_c, 3, 62, 73
5, 262042, Note_off_c, 3, 62, 64
5, 262082, Note_on_c, 3, 62, 73
5, 262287, Note_off_c, 3, 62, 64
5, 262322, Note_on_c, 3, 62, 73
5, 262527, Note_off_c, 3, 62, 64
5, 262558, Note_on_c, 3, 62, 73
5, 262763, Note_off_c, 3, 62, 64
5, 262803, Note_on_c, 3, 62, 73
5, 263008, Note_off_c, 3, 62, 64
5, 263038, Note_on_c, 3, 62, 73
5, 263243, Note_off_c, 3, 62, 64
5, 263283, Note_on_c, 3, 62, 73
5, 263488, Note_off_c, 3, 62, 64
5, 263523, Note_on_c, 3, 62, 73
5, 263728, Note_off_c, 3, 62, 64
5, 263761, Note_on_c, 3, 62, 73
5, 263966, Note_off_c, 3, 62, 64
5, 264003, Note_on_c, 3, 62, 73
5, 264208, Note_off_c, 3, 62, 64
5, 264241, Note_on_c, 3, 62, 73
5, 264446, Note_off_c, 3, 62, 64
5, 264478, Note_on_c, 3, 62, 73
5, 264683, Note_off_c, 3, 62, 64
5, 264719, Note_on_c, 3, 62, 73
5, 264924, Note_off_c, 3, 62, 64
5, 264963, Note_on_c, 3, 62, 74
5, 265168, Note_off_c, 3, 62, 64
5, 265197, Note_on_c, 3, 62, 80
5, 265402, Note_off_c, 3, 62, 64
5, 265441, Note_on_c, 3, 62, 86
5, 265646, Note_off_c, 3, 62, 64
5, 265683, Note_on_c, 3, 62, 92
5, 265888, Note_off_c, 3, 62, 64
5, 265918, Note_on_c, 3, 62, 97
5, 266123, Note_off_c, 3, 62, 64
5, 266160, Note_on_c, 3, 62, 102
5, 266365, Note_off_c, 3, 62, 64
5, 266402, Note_on_c, 3, 72, 108
5, 266834, Note_off_c, 3, 72, 64
5, 266881, Note_on_c, 3, 76, 108
5, 267313, Note_off_c, 3, 76, 64
5, 267358, Note_on_c, 3, 79, 108
5, 268006, Note_off_c, 3, 79, 64
5, 268082, Note_on_c, 3, 77, 111
5, 268184, Note_off_c, 3, 77, 56
5, 268320, Note_on_c, 3, 76, 111
5, 268422, Note_off_c, 3, 76, 56
5, 268561, Note_on_c, 3, 74, 111
5, 268663, Note_off_c, 3, 74, 56
5, 268802, Note_on_c, 3, 72, 111
5, 268904, Note_off_c, 3, 72, 56
5, 269038, Note_on_c, 3, 74, 111
5, 269140, Note_off_c, 3, 74, 56
5, 269282, Note_on_c, 3, 72, 108
5, 269930, Note_off_c, 3, 72, 64
5, 270001, Note_on_c, 3, 72, 108
5, 270154, Note_off_c, 3, 72, 64
5, 270181, Note_on_c, 3, 72, 111
5, 270232, Note_off_c, 3, 72, 56
5, 270241, Note_on_c, 3, 74, 108
5, 270889, Note_off_c, 3, 74, 64
5, 270962, Note_on_c, 3, 74, 108
5, 271115, Note_off_c, 3, 74, 64
5, 271141, Note_on_c, 3, 74, 111
5, 271192, Note_off_c, 3, 74, 56
5, 271200, Note_on_c, 3, 76, 108
5, 272064, Note_off_c, 3, 76, 64
5, 272163, Note_on_c, 3, 77, 108
5, 272595, Note_off_c, 3, 77, 64
5, 272642, Note_on_c, 3, 81, 108
5, 273074, Note_off_c, 3, 81, 64
5, 273119, Note_on_c, 3, 79, 108
5, 273767, Note_off_c, 3, 79, 64
5, 273843, Note_on_c, 3, 76, 108
5, 274048, Note_off_c, 3, 76, 64
5, 274080, Note_on_c, 3, 77, 108
5, 274512, Note_off_c, 3, 77, 64
5, 274562, Note_on_c, 3, 81, 108
5, 274994, Note_off_c, 3, 81, 64
5, 275042, Note_on_c, 3, 79, 108
5, 275690, Note_off_c, 3, 79, 64
5, 275759, Note_on_c, 3, 76, 108
5, 275964, Note_off_c, 3, 76, 64
5, 276001, Note_on_c, 3, 77, 108
5, 276433, Note_off_c, 3, 77, 64
5, 276482, Note_on_c, 3, 81, 108
5, 276914, Note_off_c, 3, 81, 64
5, 276961, Note_on_c, 3, 79, 108
5, 277609, Note_off_c, 3, 79, 64
5, 277683, Note_on_c, 3, 76, 108
5, 277888, Note_off_c, 3, 76, 64
5, 277918, Note_on_c, 3, 74, 108
5, 278350, Note_off_c, 3, 74, 64
5, 278397, Note_on_c, 3, 72, 108
5, 278829, Note_off_c, 3, 72, 64
5, 278880, Note_on_c, 3, 72, 111
5, 278988, Note_off_c, 3, 72, 56
5, 279001, Note_on_c, 3, 71, 111
5, 279103, Note_off_c, 3, 71, 56
5, 279117, Note_on_c, 3, 71, 108
5, 279549, Note_off_c, 3, 71, 64
5, 279597, Note_on_c, 3, 72, 108
5, 279750, Note_off_c, 3, 72, 64
5, 279779, Note_on_c, 3, 72, 111
5, 279830, Note_off_c, 3, 72, 56
5, 279837, Note_on_c, 3, 74, 108
5, 280269, Note_off_c, 3, 74, 64
5, 280323, Note_on_c, 3, 72, 108
5, 280755, Note_off_c, 3, 72, 64
5, 280799, Note_on_c, 3, 72, 111
5, 280907, Note_off_c, 3, 72, 56
5, 280921, Note_on_c, 3, 71, 111
5, 281023, Note_off_c, 3, 71, 56
5, 281040, Note_on_c, 3, 71, 108
5, 281472, Note_off_c, 3, 71, 64
5, 281521, Note_on_c, 3, 72, 111
5, 281589, Note_off_c, 3, 72, 56
5, 281700, Note_on_c, 3, 72, 111
5, 281734, Note_off_c, 3, 72, 56
5, 281759, Note_on_c, 3, 74, 111
5, 281827, Note_off_c, 3, 74, 56
5, 281940, Note_on_c, 3, 74, 111
5, 281974, Note_off_c, 3, 74, 56
5, 282001, Note_on_c, 3, 74, 111
5, 282069, Note_off_c, 3, 74, 56
5, 282180, Note_on_c, 3, 74, 111
5, 282214, Note_off_c, 3, 74, 56
5, 282239, Note_on_c, 3, 72, 111
5, 282307, Note_off_c, 3, 72, 56
5, 282420, Note_on_c, 3, 72, 111
5, 282454, Note_off_c, 3, 72, 56
5, 282481, Note_on_c, 3, 72, 111
5, 282549, Note_off_c, 3, 72, 56
5, 282660, Note_on_c, 3, 72, 111
5, 282694, Note_off_c, 3, 72, 56
5, 282720, Note_on_c, 3, 71, 108
5, 282925, Note_off_c, 3, 71, 64
5, 282962, Note_on_c, 3, 71, 108
5, 283167, Note_off_c, 3, 71, 64
5, 283199, Note_on_c, 3, 76, 108
5, 283404, Note_off_c, 3, 76, 64
5, 283438, Note_on_c, 3, 76, 108
5, 283643, Note_off_c, 3, 76, 64
5, 283683, Note_on_c, 3, 74, 108
5, 283888, Note_off_c, 3, 74, 64
5, 283919, Note_on_c, 3, 71, 108
5, 284124, Note_off_c, 3, 71, 64
5, 284163, Note_on_c, 3, 76, 108
5, 284368, Note_off_c, 3, 76, 64
5, 284399, Note_on_c, 3, 76, 108
5, 284604, Note_off_c, 3, 76, 64
5, 284640, Note_on_c, 3, 74, 111
5, 284742, Note_off_c, 3, 74, 56
5, 284820, Note_on_c, 3, 72, 111
5, 284871, Note_off_c, 3, 72, 56
5, 284877, Note_on_c, 3, 76, 108
5, 285082, Note_off_c, 3, 76, 64
5, 285122, Note_on_c, 3, 74, 111
5, 285224, Note_off_c, 3, 74, 56
5, 285299, Note_on_c, 3, 72, 111
5, 285350, Note_off_c, 3, 72, 56
5, 285361, Note_on_c, 3, 76, 108
5, 285566, Note_off_c, 3, 76, 64
5, 285600, Note_on_c, 3, 74, 111
5, 285702, Note_off_c, 3, 74, 56
5, 285780, Note_on_c, 3, 72, 111
5, 285831, Note_off_c, 3, 72, 56
5, 285842, Note_on_c, 3, 76, 108
5, 286047, Note_off_c, 3, 76, 64
5, 286080, Note_on_c, 3, 74, 111
5, 286182, Note_off_c, 3, 74, 56
5, 286259, Note_on_c, 3, 72, 111
5, 286310, Note_off_c, 3, 72, 56
5, 286321, Note_on_c, 3, 76, 108
5, 286526, Note_off_c, 3, 76, 64
5, 286558, Note_on_c, 3, 74, 111
5, 286660, Note_off_c, 3, 74, 56
5, 287638, Note_on_c, 3, 76, 111
5, 287746, Note_off_c, 3, 76, 56
5, 287761, Note_on_c, 3, 74, 111
5, 287863, Note_off_c, 3, 74, 56
5, 287881, Note_on_c, 3, 72, 111
5, 287949, Note_off_c, 3, 72, 56
5, 288001, Note_on_c, 3, 71, 111
5, 288069, Note_off_c, 3, 71, 56
5, 288120, Note_on_c, 3, 72, 111
5, 288228, Note_off_c, 3, 72, 56
5, 288241, Note_on_c, 3, 71, 111
5, 288343, Note_off_c, 3, 71, 56
5, 288359, Note_on_c, 3, 69, 111
5, 288427, Note_off_c, 3, 69, 56
5, 288481, Note_on_c, 3, 67, 111
5, 288549, Note_off_c, 3, 67, 56
5, 288598, Note_on_c, 3, 72, 111
5, 288706, Note_off_c, 3, 72, 56
5, 288721, Note_on_c, 3, 71, 111
5, 288823, Note_off_c, 3, 71, 56
5, 288840, Note_on_c, 3, 69, 111
5, 288908, Note_off_c, 3, 69, 56
5, 288961, Note_on_c, 3, 67, 111
5, 289029, Note_off_c, 3, 67, 56
5, 289079, Note_on_c, 3, 72, 111
5, 289187, Note_off_c, 3, 72, 56
5, 289199, Note_on_c, 3, 71, 111
5, 289301, Note_off_c, 3, 71, 56
5, 289319, Note_on_c, 3, 69, 111
5, 289387, Note_off_c, 3, 69, 56
5, 289439, Note_on_c, 3, 67, 111
5, 289507, Note_off_c, 3, 67, 56
5, 289559, Note_on_c, 3, 72, 111
5, 289667, Note_off_c, 3, 72, 56
5, 289680, Note_on_c, 3, 71, 111
5, 289782, Note_off_c, 3, 71, 56
5, 289799, Note_on_c, 3, 69, 111
5, 289867, Note_off_c, 3, 69, 56
5, 289919, Note_on_c, 3, 67, 111
5, 289987, Note_off_c, 3, 67, 56
5, 290041, Note_on_c, 3, 65, 111
5, 290109, Note_off_c, 3, 65, 56
5, 290159, Note_on_c, 3, 64, 111
5, 290227, Note_off_c, 3, 64, 56
5, 290280, Note_on_c, 3, 62, 111
5, 290348, Note_off_c, 3, 62, 56
5, 290397, Note_on_c, 3, 72, 108
5, 291045, Note_off_c, 3, 72, 64
5, 291121, Note_on_c, 3, 67, 108
5, 291337, Note_off_c, 3, 67, 64
5, 291360, Note_on_c, 3, 76, 108
5, 292044, Note_off_c, 3, 76, 64
5, 292083, Note_on_c, 3, 74, 108
5, 292245, Note_off_c, 3, 74, 64
5, 292261, Note_on_c, 3, 72, 111
5, 292312, Note_off_c, 3, 72, 56
5, 292318, Note_on_c, 3, 71, 108
5, 292523, Note_off_c, 3, 71, 64
5, 294238, Note_on_c, 3, 74, 108
5, 294886, Note_off_c, 3, 74, 64
5, 295201, Note_on_c, 3, 77, 108
5, 295885, Note_off_c, 3, 77, 64
5, 295917, Note_on_c, 3, 76, 108
5, 296079, Note_off_c, 3, 76, 64
5, 296101, Note_on_c, 3, 74, 111
5, 296152, Note_off_c, 3, 74, 56
5, 296163, Note_on_c, 3, 76, 108
5, 297987, Note_off_c, 3, 76, 64
5, 298079, Note_on_c, 3, 76, 108
5, 298284, Note_off_c, 3, 76, 64
5, 299043, Note_on_c, 3, 76, 108
5, 299248, Note_off_c, 3, 76, 64
5, 299998, Note_on_c, 3, 77, 108
5, 300203, Note_off_c, 3, 77, 64
5, 300959, Note_on_c, 3, 77, 108
5, 301164, Note_off_c, 3, 77, 64
5, 301922, Note_on_c, 3, 77, 108
5, 302786, Note_off_c, 3, 77, 64
5, 302879, Note_on_c, 3, 77, 108
5, 303743, Note_off_c, 3, 77, 64
5, 303842, Note_on_c, 3, 76, 108
5, 304706, Note_off_c, 3, 76, 64
5, 304802, Note_on_c, 3, 76, 108
5, 305666, Note_off_c, 3, 76, 64
5, 305759, Note_on_c, 3, 77, 108
5, 306623, Note_off_c, 3, 77, 64
5, 306720, Note_on_c, 3, 76, 108
5, 307584, Note_off_c, 3, 76, 64
5, 307682, Note_on_c, 3, 74, 111
5, 307784, Note_off_c, 3, 74, 56
5, 307797, Note_on_c, 3, 71, 108
5, 308002, Note_off_c, 3, 71, 64
5, 308040, Note_on_c, 3, 72, 111
5, 308142, Note_off_c, 3, 72, 56
5, 308159, Note_on_c, 3, 74, 111
5, 308227, Note_off_c, 3, 74, 56
5, 308282, Note_on_c, 3, 79, 111
5, 308390, Note_off_c, 3, 79, 56
5, 308400, Note_on_c, 3, 77, 111
5, 308502, Note_off_c, 3, 77, 56
5, 308519, Note_on_c, 3, 76, 111
5, 308587, Note_off_c, 3, 76, 56
5, 308640, Note_on_c, 3, 74, 111
5, 308708, Note_off_c, 3, 74, 56
5, 308759, Note_on_c, 3, 76, 111
5, 308867, Note_off_c, 3, 76, 56
5, 308880, Note_on_c, 3, 74, 111
5, 308982, Note_off_c, 3, 74, 56
5, 308999, Note_on_c, 3, 72, 111
5, 309067, Note_off_c, 3, 72, 56
5, 309119, Note_on_c, 3, 71, 111
5, 309187, Note_off_c, 3, 71, 56
5, 309238, Note_on_c, 3, 71, 111
5, 309346, Note_off_c, 3, 71, 56
5, 309358, Note_on_c, 3, 72, 111
5, 309460, Note_off_c, 3, 72, 56
5, 309480, Note_on_c, 3, 72, 111
5, 309548, Note_off_c, 3, 72, 56
5, 309601, Note_on_c, 3, 71, 111
5, 309669, Note_off_c, 3, 71, 56
5, 309720, Note_on_c, 3, 67, 111
5, 309828, Note_off_c, 3, 67, 56
5, 309842, Note_on_c, 3, 66, 111
5, 309944, Note_off_c, 3, 66, 56
5, 309960, Note_on_c, 3, 72, 111
5, 310028, Note_off_c, 3, 72, 56
5, 310080, Note_on_c, 3, 71, 111
5, 310182, Note_off_c, 3, 71, 56
5, 311521, Note_on_c, 3, 67, 108
5, 311657, Note_off_c, 3, 67, 64
5, 311998, Note_on_c, 3, 69, 108
5, 312134, Note_off_c, 3, 69, 64
5, 312478, Note_on_c, 3, 67, 108
5, 313126, Note_off_c, 3, 67, 64
5, 315120, Note_on_c, 3, 62, 93
5, 315188, Note_off_c, 3, 62, 56
5, 315200, Note_on_c, 3, 64, 93
5, 315260, Note_off_c, 3, 64, 56
5, 315279, Note_on_c, 3, 62, 93
5, 315279, Note_on_c, 3, 65, 93
5, 315339, Note_off_c, 3, 65, 56
5, 315339, Note_off_c, 3, 62, 56
5, 315362, Note_on_c, 3, 67, 90
5, 315567, Note_off_c, 3, 67, 64
5, 315599, Note_on_c, 3, 64, 93
5, 315659, Note_off_c, 3, 64, 56
5, 315680, Note_on_c, 3, 65, 93
5, 315740, Note_off_c, 3, 65, 56
5, 315761, Note_on_c, 3, 67, 93
5, 315821, Note_off_c, 3, 67, 56
5, 315839, Note_on_c, 3, 69, 90
5, 316044, Note_off_c, 3, 69, 64
5, 316080, Note_on_c, 3, 69, 93
5, 316140, Note_off_c, 3, 69, 56
5, 316159, Note_on_c, 3, 71, 93
5, 316219, Note_off_c, 3, 71, 56
5, 316239, Note_on_c, 3, 72, 93
5, 316299, Note_off_c, 3, 72, 56
5, 316322, Note_on_c, 3, 67, 90
5, 316970, Note_off_c, 3, 67, 64
5, 318960, Note_on_c, 3, 81, 76
5, 319032, Note_off_c, 3, 81, 56
5, 319039, Note_on_c, 3, 79, 76
5, 319111, Note_off_c, 3, 79, 56
5, 319120, Note_on_c, 3, 77, 76
5, 319192, Note_off_c, 3, 77, 56
5, 319198, Note_on_c, 3, 76, 73
5, 319414, Note_off_c, 3, 76, 64
5, 319439, Note_on_c, 3, 79, 76
5, 319511, Note_off_c, 3, 79, 56
5, 319520, Note_on_c, 3, 77, 76
5, 319592, Note_off_c, 3, 77, 56
5, 319599, Note_on_c, 3, 76, 76
5, 319671, Note_off_c, 3, 76, 56
5, 319680, Note_on_c, 3, 74, 73
5, 319896, Note_off_c, 3, 74, 64
5, 319919, Note_on_c, 3, 77, 76
5, 319991, Note_off_c, 3, 77, 56
5, 320001, Note_on_c, 3, 76, 76
5, 320073, Note_off_c, 3, 76, 56
5, 320081, Note_on_c, 3, 74, 76
5, 320153, Note_off_c, 3, 74, 56
5, 320161, Note_on_c, 3, 73, 73
5, 320366, Note_off_c, 3, 73, 64
5, 320880, Note_on_c, 3, 60, 76
5, 320940, Note_off_c, 3, 60, 56
5, 320959, Note_on_c, 3, 64, 76
5, 321019, Note_off_c, 3, 64, 56
5, 321040, Note_on_c, 3, 65, 76
5, 321100, Note_off_c, 3, 65, 56
5, 321123, Note_on_c, 3, 67, 73
5, 321328, Note_off_c, 3, 67, 64
5, 321360, Note_on_c, 3, 60, 76
5, 321420, Note_off_c, 3, 60, 56
5, 321440, Note_on_c, 3, 65, 76
5, 321500, Note_off_c, 3, 65, 56
5, 321520, Note_on_c, 3, 67, 76
5, 321580, Note_off_c, 3, 67, 56
5, 321603, Note_on_c, 3, 69, 73
5, 321808, Note_off_c, 3, 69, 64
5, 321840, Note_on_c, 3, 60, 76
5, 321900, Note_off_c, 3, 60, 56
5, 321919, Note_on_c, 3, 67, 76
5, 321979, Note_off_c, 3, 67, 56
5, 322001, Note_on_c, 3, 69, 76
5, 322061, Note_off_c, 3, 69, 56
5, 322077, Note_on_c, 3, 70, 74
5, 323901, Note_off_c, 3, 70, 64
5, 324000, Note_on_c, 3, 69, 108
5, 324588, Note_off_c, 3, 69, 64
5, 324600, Note_on_c, 3, 69, 111
5, 324702, Note_off_c, 3, 69, 56
5, 324722, Note_on_c, 3, 69, 111
5, 324824, Note_off_c, 3, 69, 56
5, 324840, Note_on_c, 3, 69, 111
5, 324942, Note_off_c, 3, 69, 56
5, 324959, Note_on_c, 3, 69, 111
5, 325061, Note_off_c, 3, 69, 56
5, 325078, Note_on_c, 3, 69, 111
5, 325180, Note_off_c, 3, 69, 56
5, 325202, Note_on_c, 3, 69, 111
5, 325304, Note_off_c, 3, 69, 56
5, 325318, Note_on_c, 3, 69, 111
5, 325420, Note_off_c, 3, 69, 56
5, 325440, Note_on_c, 3, 69, 111
5, 325542, Note_off_c, 3, 69, 56
5, 325561, Note_on_c, 3, 69, 111
5, 325663, Note_off_c, 3, 69, 56
5, 325681, Note_on_c, 3, 69, 111
5, 325783, Note_off_c, 3, 69, 56
5, 325801, Note_on_c, 3, 69, 111
5, 325903, Note_off_c, 3, 69, 56
5, 325919, Note_on_c, 3, 69, 108
5, 326124, Note_off_c, 3, 69, 64
5, 326159, Note_on_c, 3, 66, 108
5, 326364, Note_off_c, 3, 66, 64
5, 326400, Note_on_c, 3, 67, 108
5, 326605, Note_off_c, 3, 67, 64
5, 326643, Note_on_c, 3, 68, 108
5, 326848, Note_off_c, 3, 68, 64
5, 326880, Note_on_c, 3, 69, 108
5, 327085, Note_off_c, 3, 69, 64
5, 327119, Note_on_c, 3, 71, 108
5, 327324, Note_off_c, 3, 71, 64
5, 327362, Note_on_c, 3, 72, 111
5, 327464, Note_off_c, 3, 72, 56
5, 327478, Note_on_c, 3, 67, 111
5, 327580, Note_off_c, 3, 67, 56
5, 327598, Note_on_c, 3, 65, 111
5, 327700, Note_off_c, 3, 65, 56
5, 327718, Note_on_c, 3, 64, 111
5, 327820, Note_off_c, 3, 64, 56
5, 327842, Note_on_c, 3, 69, 108
5, 327978, Note_off_c, 3, 69, 64
5, 328798, Note_on_c, 3, 62, 108
5, 328934, Note_off_c, 3, 62, 64
5, 329758, Note_on_c, 3, 72, 73
5, 330442, Note_off_c, 3, 72, 64
5, 330480, Note_on_c, 3, 71, 73
5, 330696, Note_off_c, 3, 71, 64
5, 330717, Note_on_c, 3, 69, 73
5, 330933, Note_off_c, 3, 69, 64
5, 330960, Note_on_c, 3, 67, 73
5, 331165, Note_off_c, 3, 67, 64
5, 331203, Note_on_c, 3, 67, 73
5, 331408, Note_off_c, 3, 67, 64
5, 331437, Note_on_c, 3, 67, 73
5, 331642, Note_off_c, 3, 67, 64
5, 331677, Note_on_c, 3, 72, 73
5, 332361, Note_off_c, 3, 72, 64
5, 332399, Note_on_c, 3, 71, 73
5, 332615, Note_off_c, 3, 71, 64
5, 332637, Note_on_c, 3, 69, 73
5, 332853, Note_off_c, 3, 69, 64
5, 332883, Note_on_c, 3, 67, 73
5, 333088, Note_off_c, 3, 67, 64
5, 333121, Note_on_c, 3, 67, 73
5, 333326, Note_off_c, 3, 67, 64
5, 333358, Note_on_c, 3, 67, 73
5, 333563, Note_off_c, 3, 67, 64
5, 333597, Note_on_c, 3, 77, 73
5, 334281, Note_off_c, 3, 77, 64
5, 334317, Note_on_c, 3, 76, 73
5, 334533, Note_off_c, 3, 76, 64
5, 334561, Note_on_c, 3, 74, 73
5, 334777, Note_off_c, 3, 74, 64
5, 334802, Note_on_c, 3, 73, 73
5, 335007, Note_off_c, 3, 73, 64
5, 335037, Note_on_c, 3, 73, 73
5, 335242, Note_off_c, 3, 73, 64
5, 335282, Note_on_c, 3, 73, 73
5, 335487, Note_off_c, 3, 73, 64
5, 335521, Note_on_c, 3, 74, 73
5, 335953, Note_off_c, 3, 74, 64
5, 336000, Note_on_c, 3, 69, 73
5, 336399, Note_off_c, 3, 69, 64
5, 336421, Note_on_c, 3, 65, 76
5, 336475, Note_off_c, 3, 65, 56
5, 336482, Note_on_c, 3, 64, 73
5, 336938, Note_off_c, 3, 64, 64
5, 336963, Note_on_c, 3, 65, 73
5, 337362, Note_off_c, 3, 65, 64
5, 337380, Note_on_c, 3, 62, 76
5, 337431, Note_off_c, 3, 62, 56
5, 337441, Note_on_c, 3, 72, 90
5, 338089, Note_off_c, 3, 72, 64
5, 338162, Note_on_c, 3, 71, 90
5, 338367, Note_off_c, 3, 71, 64
5, 338401, Note_on_c, 3, 69, 90
5, 338606, Note_off_c, 3, 69, 64
5, 338639, Note_on_c, 3, 67, 90
5, 338844, Note_off_c, 3, 67, 64
5, 338882, Note_on_c, 3, 67, 90
5, 339087, Note_off_c, 3, 67, 64
5, 339121, Note_on_c, 3, 67, 90
5, 339326, Note_off_c, 3, 67, 64
5, 339363, Note_on_c, 3, 72, 96
5, 340011, Note_off_c, 3, 72, 64
5, 340077, Note_on_c, 3, 71, 90
5, 340282, Note_off_c, 3, 71, 64
5, 340321, Note_on_c, 3, 69, 90
5, 340526, Note_off_c, 3, 69, 64
5, 340560, Note_on_c, 3, 67, 90
5, 340765, Note_off_c, 3, 67, 64
5, 340802, Note_on_c, 3, 67, 90
5, 341007, Note_off_c, 3, 67, 64
5, 341043, Note_on_c, 3, 67, 90
5, 341248, Note_off_c, 3, 67, 64
5, 341282, Note_on_c, 3, 74, 96
5, 341930, Note_off_c, 3, 74, 64
5, 341999, Note_on_c, 3, 72, 96
5, 342204, Note_off_c, 3, 72, 64
5, 342241, Note_on_c, 3, 74, 97
5, 342446, Note_off_c, 3, 74, 64
5, 342481, Note_on_c, 3, 70, 98
5, 342686, Note_off_c, 3, 70, 64
5, 342720, Note_on_c, 3, 70, 100
5, 342925, Note_off_c, 3, 70, 64
5, 342962, Note_on_c, 3, 70, 100
5, 343167, Note_off_c, 3, 70, 64
5, 343198, Note_on_c, 3, 70, 101
5, 343403, Note_off_c, 3, 70, 64
5, 343439, Note_on_c, 3, 73, 102
5, 343644, Note_off_c, 3, 73, 64
5, 343683, Note_on_c, 3, 73, 103
5, 343888, Note_off_c, 3, 73, 64
5, 343923, Note_on_c, 3, 73, 103
5, 344128, Note_off_c, 3, 73, 64
5, 344158, Note_on_c, 3, 73, 104
5, 344363, Note_off_c, 3, 73, 64
5, 344402, Note_on_c, 3, 73, 105
5, 344607, Note_off_c, 3, 73, 64
5, 344641, Note_on_c, 3, 73, 106
5, 344846, Note_off_c, 3, 73, 64
5, 344879, Note_on_c, 3, 73, 106
5, 345084, Note_off_c, 3, 73, 64
5, 345117, Note_on_c, 3, 73, 108
5, 345981, Note_off_c, 3, 73, 64
5, 346081, Note_on_c, 3, 74, 108
5, 346945, Note_off_c, 3, 74, 64
5, 347039, Note_on_c, 3, 74, 108
5, 347903, Note_off_c, 3, 74, 64
5, 348003, Note_on_c, 3, 75, 108
5, 349827, Note_off_c, 3, 75, 64
5, 349923, Note_on_c, 3, 76, 96
5, 350571, Note_off_c, 3, 76, 64
5, 358319, Note_on_c, 3, 64, 96
5, 358524, Note_off_c, 3, 64, 64
5, 358558, Note_on_c, 3, 62, 97
5, 358990, Note_off_c, 3, 62, 64
5, 359043, Note_on_c, 3, 64, 98
5, 359475, Note_off_c, 3, 64, 64
5, 359521, Note_on_c, 3, 65, 101
5, 360169, Note_off_c, 3, 65, 64
5, 360239, Note_on_c, 3, 65, 103
5, 360444, Note_off_c, 3, 65, 64
5, 360480, Note_on_c, 3, 64, 104
5, 360912, Note_off_c, 3, 64, 64
5, 360958, Note_on_c, 3, 65, 106
5, 361390, Note_off_c, 3, 65, 64
5, 361438, Note_on_c, 3, 70, 108
5, 363262, Note_off_c, 3, 70, 64
5, 363361, Note_on_c, 3, 69, 108
5, 363949, Note_off_c, 3, 69, 64
5, 363959, Note_on_c, 3, 69, 111
5, 364061, Note_off_c, 3, 69, 56
5, 364082, Note_on_c, 3, 69, 111
5, 364184, Note_off_c, 3, 69, 56
5, 364201, Note_on_c, 3, 69, 111
5, 364303, Note_off_c, 3, 69, 56
5, 364320, Note_on_c, 3, 69, 108
5, 364908, Note_off_c, 3, 69, 64
5, 364921, Note_on_c, 3, 69, 111
5, 365023, Note_off_c, 3, 69, 56
5, 365040, Note_on_c, 3, 69, 111
5, 365142, Note_off_c, 3, 69, 56
5, 365159, Note_on_c, 3, 69, 111
5, 365261, Note_off_c, 3, 69, 56
5, 365282, Note_on_c, 3, 77, 108
5, 365487, Note_off_c, 3, 77, 64
5, 365521, Note_on_c, 3, 77, 111
5, 365623, Note_off_c, 3, 77, 56
5, 365641, Note_on_c, 3, 77, 111
5, 365743, Note_off_c, 3, 77, 56
5, 365761, Note_on_c, 3, 77, 111
5, 365863, Note_off_c, 3, 77, 56
5, 365880, Note_on_c, 3, 77, 111
5, 365982, Note_off_c, 3, 77, 56
5, 365998, Note_on_c, 3, 77, 111
5, 366100, Note_off_c, 3, 77, 56
5, 366121, Note_on_c, 3, 77, 111
5, 366223, Note_off_c, 3, 77, 56
5, 366238, Note_on_c, 3, 77, 111
5, 366340, Note_off_c, 3, 77, 56
5, 366360, Note_on_c, 3, 77, 111
5, 366462, Note_off_c, 3, 77, 56
5, 366482, Note_on_c, 3, 77, 111
5, 366584, Note_off_c, 3, 77, 56
5, 366600, Note_on_c, 3, 77, 111
5, 366702, Note_off_c, 3, 77, 56
5, 366722, Note_on_c, 3, 77, 111
5, 366824, Note_off_c, 3, 77, 56
5, 366842, Note_on_c, 3, 77, 111
5, 366944, Note_off_c, 3, 77, 56
5, 366961, Note_on_c, 3, 77, 111
5, 367063, Note_off_c, 3, 77, 56
5, 367082, Note_on_c, 3, 77, 111
5, 367184, Note_off_c, 3, 77, 56
5, 367199, Note_on_c, 3, 74, 108
5, 367335, Note_off_c, 3, 74, 64
5, 368160, Note_on_c, 3, 79, 108
5, 368296, Note_off_c, 3, 79, 64
5, 369118, Note_on_c, 3, 76, 108
5, 369254, Note_off_c, 3, 76, 64
5, 370081, Note_on_c, 3, 79, 108
5, 370217, Note_off_c, 3, 79, 64
5, 371040, Note_on_c, 3, 76, 108
5, 371176, Note_off_c, 3, 76, 64
5, 371998, Note_on_c, 3, 79, 108
5, 372134, Note_off_c, 3, 79, 64
5, 377518, Note_on_c, 3, 67, 75
5, 377734, Note_off_c, 3, 67, 64
5, 377761, Note_on_c, 3, 72, 77
5, 377977, Note_off_c, 3, 72, 64
5, 377999, Note_on_c, 3, 67, 78
5, 378215, Note_off_c, 3, 67, 64
5, 378243, Note_on_c, 3, 76, 78
5, 378459, Note_off_c, 3, 76, 64
5, 378480, Note_on_c, 3, 74, 79
5, 378642, Note_off_c, 3, 74, 64
5, 378661, Note_on_c, 3, 72, 83
5, 378712, Note_off_c, 3, 72, 56
5, 378722, Note_on_c, 3, 71, 80
5, 378938, Note_off_c, 3, 71, 64
5, 378962, Note_on_c, 3, 67, 81
5, 379178, Note_off_c, 3, 67, 64
5, 379200, Note_on_c, 3, 74, 81
5, 379416, Note_off_c, 3, 74, 64
5, 379438, Note_on_c, 3, 72, 82
5, 379600, Note_off_c, 3, 72, 64
5, 379620, Note_on_c, 3, 71, 86
5, 379671, Note_off_c, 3, 71, 56
5, 379677, Note_on_c, 3, 72, 83
5, 379893, Note_off_c, 3, 72, 64
5, 379920, Note_on_c, 3, 67, 85
5, 380136, Note_off_c, 3, 67, 64
5, 380161, Note_on_c, 3, 76, 85
5, 380377, Note_off_c, 3, 76, 64
5, 380400, Note_on_c, 3, 74, 86
5, 380562, Note_off_c, 3, 74, 64
5, 380578, Note_on_c, 3, 72, 87
5, 380637, Note_on_c, 3, 71, 87
5, 380731, Note_off_c, 3, 72, 64
5, 380853, Note_off_c, 3, 71, 64
5, 380877, Note_on_c, 3, 67, 88
5, 381093, Note_off_c, 3, 67, 64
5, 381121, Note_on_c, 3, 74, 88
5, 381337, Note_off_c, 3, 74, 64
5, 381359, Note_on_c, 3, 72, 89
5, 381521, Note_off_c, 3, 72, 64
5, 381541, Note_on_c, 3, 71, 93
5, 381592, Note_off_c, 3, 71, 56
5, 381603, Note_on_c, 3, 72, 90
5, 381819, Note_off_c, 3, 72, 64
5, 381840, Note_on_c, 3, 71, 90
5, 382056, Note_off_c, 3, 71, 64
5, 382077, Note_on_c, 3, 72, 90
5, 382293, Note_off_c, 3, 72, 64
5, 382321, Note_on_c, 3, 74, 90
5, 382537, Note_off_c, 3, 74, 64
5, 382562, Note_on_c, 3, 72, 90
5, 382778, Note_off_c, 3, 72, 64
5, 382802, Note_on_c, 3, 76, 90
5, 383018, Note_off_c, 3, 76, 64
5, 383041, Note_on_c, 3, 74, 90
5, 383257, Note_off_c, 3, 74, 64
5, 383282, Note_on_c, 3, 67, 90
5, 383487, Note_off_c, 3, 67, 64
5, 383520, Note_on_c, 3, 74, 90
5, 384168, Note_off_c, 3, 74, 64
5, 384239, Note_on_c, 3, 76, 90
5, 384375, Note_off_c, 3, 76, 64
5, 384479, Note_on_c, 3, 77, 90
5, 385127, Note_off_c, 3, 77, 64
5, 385202, Note_on_c, 3, 75, 90
5, 385338, Note_off_c, 3, 75, 64
5, 385437, Note_on_c, 3, 74, 90
5, 386085, Note_off_c, 3, 74, 64
5, 386159, Note_on_c, 3, 76, 90
5, 386295, Note_off_c, 3, 76, 64
5, 386401, Note_on_c, 3, 77, 90
5, 387049, Note_off_c, 3, 77, 64
5, 387122, Note_on_c, 3, 75, 90
5, 387258, Note_off_c, 3, 75, 64
5, 387359, Note_on_c, 3, 74, 90
5, 387564, Note_off_c, 3, 74, 64
5, 387838, Note_on_c, 3, 72, 73
5, 388043, Note_off_c, 3, 72, 64
5, 388320, Note_on_c, 3, 74, 73
5, 388525, Note_off_c, 3, 74, 64
5, 388802, Note_on_c, 3, 71, 73
5, 389007, Note_off_c, 3, 71, 64
5, 397198, Note_on_c, 3, 71, 85
5, 397403, Note_off_c, 3, 71, 64
5, 397680, Note_on_c, 3, 71, 89
5, 397885, Note_off_c, 3, 71, 64
5, 397919, Note_on_c, 3, 72, 90
5, 398135, Note_off_c, 3, 72, 64
5, 398161, Note_on_c, 3, 77, 90
5, 398377, Note_off_c, 3, 77, 64
5, 398401, Note_on_c, 3, 76, 90
5, 398617, Note_off_c, 3, 76, 64
5, 398643, Note_on_c, 3, 74, 90
5, 398859, Note_off_c, 3, 74, 64
5, 398883, Note_on_c, 3, 72, 90
5, 399099, Note_off_c, 3, 72, 64
5, 399123, Note_on_c, 3, 72, 90
5, 399339, Note_off_c, 3, 72, 64
5, 399362, Note_on_c, 3, 69, 90
5, 399578, Note_off_c, 3, 69, 64
5, 399597, Note_on_c, 3, 67, 90
5, 399802, Note_off_c, 3, 67, 64
5, 399838, Note_on_c, 3, 74, 90
5, 400486, Note_off_c, 3, 74, 64
5, 400561, Note_on_c, 3, 76, 90
5, 400697, Note_off_c, 3, 76, 64
5, 400799, Note_on_c, 3, 77, 90
5, 401447, Note_off_c, 3, 77, 64
5, 401522, Note_on_c, 3, 75, 90
5, 401658, Note_off_c, 3, 75, 64
5, 401760, Note_on_c, 3, 74, 90
5, 402408, Note_off_c, 3, 74, 64
5, 402478, Note_on_c, 3, 75, 90
5, 402614, Note_off_c, 3, 75, 64
5, 402718, Note_on_c, 3, 77, 90
5, 403366, Note_off_c, 3, 77, 64
5, 403440, Note_on_c, 3, 75, 90
5, 403576, Note_off_c, 3, 75, 64
5, 403682, Note_on_c, 3, 76, 76
5, 403784, Note_off_c, 3, 76, 56
5, 403802, Note_on_c, 3, 76, 76
5, 403904, Note_off_c, 3, 76, 56
5, 403922, Note_on_c, 3, 76, 76
5, 404024, Note_off_c, 3, 76, 56
5, 404039, Note_on_c, 3, 76, 76
5, 404141, Note_off_c, 3, 76, 56
5, 404279, Note_on_c, 3, 67, 77
5, 404381, Note_off_c, 3, 67, 56
5, 404399, Note_on_c, 3, 67, 77
5, 404501, Note_off_c, 3, 67, 56
5, 404518, Note_on_c, 3, 67, 77
5, 404620, Note_off_c, 3, 67, 56
5, 404758, Note_on_c, 3, 67, 77
5, 404860, Note_off_c, 3, 67, 56
5, 404882, Note_on_c, 3, 67, 78
5, 404984, Note_off_c, 3, 67, 56
5, 405001, Note_on_c, 3, 67, 78
5, 405103, Note_off_c, 3, 67, 56
5, 405238, Note_on_c, 3, 65, 78
5, 405340, Note_off_c, 3, 65, 56
5, 405361, Note_on_c, 3, 65, 78
5, 405463, Note_off_c, 3, 65, 56
5, 405479, Note_on_c, 3, 65, 78
5, 405581, Note_off_c, 3, 65, 56
5, 405721, Note_on_c, 3, 65, 80
5, 405823, Note_off_c, 3, 65, 56
5, 405840, Note_on_c, 3, 65, 80
5, 405942, Note_off_c, 3, 65, 56
5, 405959, Note_on_c, 3, 65, 80
5, 406061, Note_off_c, 3, 65, 56
5, 406199, Note_on_c, 3, 64, 80
5, 406301, Note_off_c, 3, 64, 56
5, 406318, Note_on_c, 3, 64, 80
5, 406420, Note_off_c, 3, 64, 56
5, 406438, Note_on_c, 3, 64, 81
5, 406540, Note_off_c, 3, 64, 56
5, 406802, Note_on_c, 3, 65, 78
5, 407007, Note_off_c, 3, 65, 64
5, 407282, Note_on_c, 3, 76, 79
5, 407487, Note_off_c, 3, 76, 64
5, 407761, Note_on_c, 3, 76, 79
5, 407966, Note_off_c, 3, 76, 64
5, 408241, Note_on_c, 3, 67, 80
5, 408446, Note_off_c, 3, 67, 64
5, 408723, Note_on_c, 3, 67, 81
5, 408928, Note_off_c, 3, 67, 64
5, 409200, Note_on_c, 3, 65, 81
5, 409405, Note_off_c, 3, 65, 64
5, 409682, Note_on_c, 3, 65, 82
5, 409887, Note_off_c, 3, 65, 64
5, 410162, Note_on_c, 3, 64, 82
5, 410367, Note_off_c, 3, 64, 64
5, 410638, Note_on_c, 3, 62, 83
5, 410843, Note_off_c, 3, 62, 64
5, 411123, Note_on_c, 3, 67, 85
5, 411328, Note_off_c, 3, 67, 64
5, 411598, Note_on_c, 3, 67, 85
5, 411803, Note_off_c, 3, 67, 64
5, 412078, Note_on_c, 3, 67, 86
5, 412283, Note_off_c, 3, 67, 64
5, 412563, Note_on_c, 3, 67, 87
5, 412768, Note_off_c, 3, 67, 64
5, 413041, Note_on_c, 3, 65, 87
5, 413246, Note_off_c, 3, 65, 64
5, 413517, Note_on_c, 3, 65, 88
5, 413722, Note_off_c, 3, 65, 64
5, 413999, Note_on_c, 3, 64, 88
5, 414204, Note_off_c, 3, 64, 64
5, 414478, Note_on_c, 3, 62, 89
5, 414683, Note_off_c, 3, 62, 64
5, 414963, Note_on_c, 3, 67, 90
5, 415168, Note_off_c, 3, 67, 64
5, 415198, Note_on_c, 3, 60, 93
5, 415318, Note_off_c, 3, 60, 56
5, 419038, Note_on_c, 3, 60, 73
5, 419041, Note_on_c, 3, 64, 73
5, 419422, Note_off_c, 3, 60, 64
5, 419425, Note_off_c, 3, 64, 64
5, 419519, Note_on_c, 3, 62, 73
5, 419519, Note_on_c, 3, 65, 73
5, 419903, Note_off_c, 3, 65, 65
5, 419903, Note_off_c, 3, 62, 65
5, 420000, Note_on_c, 3, 64, 73
5, 420001, Note_on_c, 3, 60, 73
5, 420384, Note_off_c, 3, 64, 65
5, 420385, Note_off_c, 3, 60, 65
5, 420477, Note_on_c, 3, 65, 73
5, 420482, Note_on_c, 3, 62, 73
5, 420861, Note_off_c, 3, 65, 65
5, 420866, Note_off_c, 3, 62, 65
5, 420959, Note_on_c, 3, 60, 73
5, 420962, Note_on_c, 3, 64, 73
5, 421343, Note_off_c, 3, 60, 65
5, 421346, Note_off_c, 3, 64, 65
5, 421438, Note_on_c, 3, 62, 73
5, 421442, Note_on_c, 3, 65, 73
5, 421822, Note_off_c, 3, 62, 65
5, 421826, Note_off_c, 3, 65, 65
5, 421919, Note_on_c, 3, 64, 73
5, 421919, Note_on_c, 3, 60, 73
5, 422303, Note_off_c, 3, 60, 65
5, 422303, Note_off_c, 3, 64, 65
5, 422400, Note_on_c, 3, 62, 73
5, 422400, Note_on_c, 3, 65, 73
5, 422784, Note_off_c, 3, 65, 65
5, 422784, Note_off_c, 3, 62, 65
5, 422881, Note_on_c, 3, 60, 76
5, 422882, Note_on_c, 3, 64, 76
5, 422977, Note_off_c, 3, 60, 56
5, 422978, Note_off_c, 3, 64, 56
5, 423121, Note_on_c, 3, 64, 77
5, 423122, Note_on_c, 3, 72, 77
5, 423217, Note_off_c, 3, 64, 56
5, 423218, Note_off_c, 3, 72, 56
5, 423360, Note_on_c, 3, 64, 78
5, 423361, Note_on_c, 3, 72, 78
5, 423456, Note_off_c, 3, 64, 56
5, 423457, Note_off_c, 3, 72, 56
5, 423598, Note_on_c, 3, 72, 80
5, 423599, Note_on_c, 3, 65, 80
5, 423694, Note_off_c, 3, 72, 56
5, 423695, Note_off_c, 3, 65, 56
5, 423840, Note_on_c, 3, 71, 81
5, 423842, Note_on_c, 3, 62, 81
5, 423936, Note_off_c, 3, 71, 56
5, 423938, Note_off_c, 3, 62, 56
5, 424078, Note_on_c, 3, 72, 82
5, 424080, Note_on_c, 3, 64, 82
5, 424174, Note_off_c, 3, 72, 56
5, 424176, Note_off_c, 3, 64, 56
5, 424318, Note_on_c, 3, 62, 83
5, 424321, Note_on_c, 3, 71, 83
5, 424414, Note_off_c, 3, 62, 56
5, 424417, Note_off_c, 3, 71, 56
5, 424561, Note_on_c, 3, 72, 84
5, 424562, Note_on_c, 3, 64, 84
5, 424657, Note_off_c, 3, 72, 56
5, 424658, Note_off_c, 3, 64, 56
5, 424798, Note_on_c, 3, 64, 85
5, 424798, Note_on_c, 3, 72, 85
5, 424894, Note_off_c, 3, 72, 56
5, 424894, Note_off_c, 3, 64, 56
5, 425042, Note_on_c, 3, 64, 85
5, 425042, Note_on_c, 3, 72, 85
5, 425138, Note_off_c, 3, 72, 56
5, 425138, Note_off_c, 3, 64, 56
5, 425279, Note_on_c, 3, 60, 86
5, 425281, Note_on_c, 3, 72, 86
5, 425375, Note_off_c, 3, 60, 56
5, 425377, Note_off_c, 3, 72, 56
5, 425521, Note_on_c, 3, 72, 88
5, 425617, Note_off_c, 3, 72, 56
5, 425758, Note_on_c, 3, 71, 89
5, 425761, Note_on_c, 3, 62, 89
5, 425854, Note_off_c, 3, 71, 56
5, 425857, Note_off_c, 3, 62, 56
5, 425999, Note_on_c, 3, 72, 90
5, 426001, Note_on_c, 3, 64, 90
5, 426095, Note_off_c, 3, 72, 56
5, 426097, Note_off_c, 3, 64, 56
5, 426239, Note_on_c, 3, 62, 91
5, 426242, Note_on_c, 3, 71, 91
5, 426335, Note_off_c, 3, 62, 56
5, 426338, Note_off_c, 3, 71, 56
5, 426478, Note_on_c, 3, 72, 92
5, 426482, Note_on_c, 3, 64, 92
5, 426574, Note_off_c, 3, 72, 56
5, 426578, Note_off_c, 3, 64, 56
5, 426601, Note_on_c, 3, 64, 93
5, 426601, Note_on_c, 3, 72, 93
5, 426697, Note_off_c, 3, 72, 56
5, 426697, Note_off_c, 3, 64, 56
5, 426718, Note_on_c, 3, 64, 93
5, 426722, Note_on_c, 3, 72, 93
5, 426814, Note_off_c, 3, 64, 56
5, 426818, Note_off_c, 3, 72, 56
5, 426839, Note_on_c, 3, 64, 93
5, 426842, Note_on_c, 3, 72, 93
5, 426935, Note_off_c, 3, 64, 56
5, 426938, Note_off_c, 3, 72, 56
5, 426958, Note_on_c, 3, 72, 93
5, 426959, Note_on_c, 3, 64, 93
5, 427054, Note_off_c, 3, 72, 56
5, 427055, Note_off_c, 3, 64, 56
5, 427079, Note_on_c, 3, 72, 93
5, 427080, Note_on_c, 3, 64, 93
5, 427175, Note_off_c, 3, 72, 56
5, 427176, Note_off_c, 3, 64, 56
5, 427200, Note_on_c, 3, 72, 93
5, 427200, Note_on_c, 3, 60, 93
5, 427296, Note_off_c, 3, 60, 56
5, 427296, Note_off_c, 3, 72, 56
5, 427318, Note_on_c, 3, 60, 93
5, 427318, Note_on_c, 3, 72, 93
5, 427414, Note_off_c, 3, 72, 56
5, 427414, Note_off_c, 3, 60, 56
5, 427441, Note_on_c, 3, 65, 93
5, 427442, Note_on_c, 3, 72, 93
5, 427537, Note_off_c, 3, 65, 56
5, 427538, Note_off_c, 3, 72, 56
5, 427561, Note_on_c, 3, 65, 93
5, 427562, Note_on_c, 3, 72, 93
5, 427657, Note_off_c, 3, 65, 56
5, 427658, Note_off_c, 3, 72, 56
5, 427679, Note_on_c, 3, 71, 93
5, 427680, Note_on_c, 3, 62, 93
5, 427775, Note_off_c, 3, 71, 56
5, 427776, Note_off_c, 3, 62, 56
5, 427800, Note_on_c, 3, 71, 93
5, 427802, Note_on_c, 3, 62, 93
5, 427896, Note_off_c, 3, 71, 56
5, 427898, Note_off_c, 3, 62, 56
5, 427918, Note_on_c, 3, 64, 93
5, 427919, Note_on_c, 3, 72, 93
5, 428014, Note_off_c, 3, 64, 56
5, 428015, Note_off_c, 3, 72, 56
5, 428038, Note_on_c, 3, 64, 93
5, 428042, Note_on_c, 3, 72, 93
5, 428134, Note_off_c, 3, 64, 56
5, 428138, Note_off_c, 3, 72, 56
5, 428159, Note_on_c, 3, 65, 93
5, 428162, Note_on_c, 3, 72, 93
5, 428255, Note_off_c, 3, 65, 56
5, 428258, Note_off_c, 3, 72, 56
5, 428278, Note_on_c, 3, 65, 93
5, 428281, Note_on_c, 3, 72, 93
5, 428374, Note_off_c, 3, 65, 56
5, 428377, Note_off_c, 3, 72, 56
5, 428399, Note_on_c, 3, 65, 93
5, 428399, Note_on_c, 3, 71, 93
5, 428495, Note_off_c, 3, 71, 56
5, 428495, Note_off_c, 3, 65, 56
5, 428520, Note_on_c, 3, 71, 93
5, 428522, Note_on_c, 3, 65, 93
5, 428616, Note_off_c, 3, 71, 56
5, 428618, Note_off_c, 3, 65, 56
5, 428638, Note_on_c, 3, 72, 108
5, 428643, Note_on_c, 3, 64, 108
5, 428830, Note_off_c, 3, 72, 67
5, 428835, Note_off_c, 3, 64, 67
5, 428878, Note_on_c, 3, 64, 108
5, 428880, Note_on_c, 3, 76, 108
5, 429070, Note_off_c, 3, 64, 67
5, 429072, Note_off_c, 3, 76, 67
5, 429117, Note_on_c, 3, 79, 108
5, 429121, Note_on_c, 3, 67, 108
5, 429405, Note_off_c, 3, 79, 67
5, 429409, Note_off_c, 3, 67, 67
5, 429479, Note_on_c, 3, 77, 111
5, 429481, Note_on_c, 3, 65, 111
5, 429575, Note_off_c, 3, 77, 56
5, 429577, Note_off_c, 3, 65, 56
5, 429598, Note_on_c, 3, 76, 111
5, 429600, Note_on_c, 3, 64, 111
5, 429694, Note_off_c, 3, 76, 56
5, 429696, Note_off_c, 3, 64, 56
5, 429718, Note_on_c, 3, 74, 111
5, 429720, Note_on_c, 3, 62, 111
5, 429814, Note_off_c, 3, 74, 56
5, 429816, Note_off_c, 3, 62, 56
5, 429838, Note_on_c, 3, 60, 111
5, 429838, Note_on_c, 3, 72, 111
5, 429934, Note_off_c, 3, 72, 56
5, 429934, Note_off_c, 3, 60, 56
5, 429958, Note_on_c, 3, 74, 111
5, 429959, Note_on_c, 3, 62, 111
5, 430054, Note_off_c, 3, 74, 56
5, 430055, Note_off_c, 3, 62, 56
5, 430081, Note_on_c, 3, 64, 108
5, 430083, Note_on_c, 3, 76, 108
5, 430369, Note_off_c, 3, 64, 68
5, 430371, Note_off_c, 3, 76, 68
5, 430440, Note_on_c, 3, 64, 111
5, 430442, Note_on_c, 3, 76, 111
5, 430536, Note_off_c, 3, 64, 56
5, 430538, Note_off_c, 3, 76, 56
5, 430561, Note_on_c, 3, 76, 111
5, 430562, Note_on_c, 3, 64, 111
5, 430657, Note_off_c, 3, 76, 56
5, 430658, Note_off_c, 3, 64, 56
5, 430678, Note_on_c, 3, 62, 111
5, 430678, Note_on_c, 3, 74, 111
5, 430774, Note_off_c, 3, 74, 56
5, 430774, Note_off_c, 3, 62, 56
5, 430798, Note_on_c, 3, 64, 111
5, 430801, Note_on_c, 3, 76, 111
5, 430894, Note_off_c, 3, 64, 56
5, 430897, Note_off_c, 3, 76, 56
5, 430920, Note_on_c, 3, 77, 111
5, 430922, Note_on_c, 3, 65, 111
5, 431016, Note_off_c, 3, 77, 56
5, 431018, Note_off_c, 3, 65, 56
5, 431038, Note_on_c, 3, 79, 108
5, 431040, Note_on_c, 3, 67, 108
5, 431326, Note_off_c, 3, 79, 68
5, 431328, Note_off_c, 3, 67, 68
5, 431398, Note_on_c, 3, 79, 111
5, 431399, Note_on_c, 3, 67, 111
5, 431494, Note_off_c, 3, 79, 56
5, 431495, Note_off_c, 3, 67, 56
5, 431521, Note_on_c, 3, 79, 111
5, 431522, Note_on_c, 3, 67, 111
5, 431617, Note_off_c, 3, 79, 56
5, 431618, Note_off_c, 3, 67, 56
5, 431639, Note_on_c, 3, 77, 111
5, 431639, Note_on_c, 3, 65, 111
5, 431735, Note_off_c, 3, 65, 56
5, 431735, Note_off_c, 3, 77, 56
5, 431759, Note_on_c, 3, 79, 111
5, 431761, Note_on_c, 3, 67, 111
5, 431855, Note_off_c, 3, 79, 56
5, 431857, Note_off_c, 3, 67, 56
5, 431878, Note_on_c, 3, 71, 111
5, 431880, Note_on_c, 3, 83, 111
5, 431974, Note_off_c, 3, 71, 56
5, 431976, Note_off_c, 3, 83, 56
5, 431997, Note_on_c, 3, 72, 108
5, 432000, Note_on_c, 3, 84, 108
5, 432285, Note_off_c, 3, 72, 69
5, 432288, Note_off_c, 3, 84, 69
5, 432362, Note_on_c, 3, 71, 111
5, 432458, Note_off_c, 3, 71, 56
5, 432478, Note_on_c, 3, 72, 111
5, 432574, Note_off_c, 3, 72, 56
5, 432599, Note_on_c, 3, 71, 111
5, 432695, Note_off_c, 3, 71, 56
5, 432721, Note_on_c, 3, 72, 111
5, 432817, Note_off_c, 3, 72, 56
5, 432842, Note_on_c, 3, 74, 111
5, 432938, Note_off_c, 3, 74, 56
5, 432961, Note_on_c, 3, 76, 111
5, 433057, Note_off_c, 3, 76, 56
5, 433078, Note_on_c, 3, 74, 111
5, 433174, Note_off_c, 3, 74, 56
5, 433199, Note_on_c, 3, 76, 111
5, 433295, Note_off_c, 3, 76, 56
5, 433322, Note_on_c, 3, 77, 111
5, 433418, Note_off_c, 3, 77, 56
5, 433443, Note_on_c, 3, 79, 108
5, 434211, Note_off_c, 3, 79, 69
5, 434402, Note_on_c, 3, 76, 108
5, 435170, Note_off_c, 3, 76, 69
5, 435359, Note_on_c, 3, 72, 111
5, 435479, Note_off_c, 3, 72, 56
5, 435839, Note_on_c, 3, 74, 111
5, 435840, Note_on_c, 3, 71, 111
5, 435959, Note_off_c, 3, 74, 56
5, 435960, Note_off_c, 3, 71, 56
5, 436321, Note_on_c, 3, 76, 111
5, 436322, Note_on_c, 3, 72, 111
5, 436441, Note_off_c, 3, 76, 56
5, 436442, Note_off_c, 3, 72, 56
5, 436800, Note_on_c, 3, 74, 111
5, 436800, Note_on_c, 3, 71, 111
5, 436920, Note_off_c, 3, 71, 56
5, 436920, Note_off_c, 3, 74, 56
5, 437279, Note_on_c, 3, 72, 111
5, 437279, Note_on_c, 3, 76, 111
5, 437399, Note_off_c, 3, 76, 56
5, 437399, Note_off_c, 3, 72, 56
5, 437758, Note_on_c, 3, 71, 111
5, 437761, Note_on_c, 3, 74, 111
5, 437878, Note_off_c, 3, 71, 56
5, 437881, Note_off_c, 3, 74, 56
5, 438240, Note_on_c, 3, 76, 111
5, 438242, Note_on_c, 3, 72, 111
5, 438360, Note_off_c, 3, 76, 56
5, 438362, Note_off_c, 3, 72, 56
5, 438718, Note_on_c, 3, 79, 111
5, 438722, Note_on_c, 3, 71, 111
5, 438838, Note_off_c, 3, 79, 56
5, 438842, Note_off_c, 3, 71, 56
5, 439198, Note_on_c, 3, 72, 111
5, 439201, Note_on_c, 3, 76, 111
5, 439318, Note_off_c, 3, 72, 56
5, 439321, Note_off_c, 3, 76, 56
5, 439680, Note_on_c, 3, 79, 111
5, 439680, Note_on_c, 3, 71, 111
5, 439800, Note_off_c, 3, 71, 56
5, 439800, Note_off_c, 3, 79, 56
5, 440159, Note_on_c, 3, 72, 111
5, 440162, Note_on_c, 3, 76, 111
5, 440279, Note_off_c, 3, 72, 56
5, 440282, Note_off_c, 3, 76, 56
5, 440638, Note_on_c, 3, 71, 111
5, 440640, Note_on_c, 3, 79, 111
5, 440758, Note_off_c, 3, 71, 56
5, 440760, Note_off_c, 3, 79, 56
5, 441117, Note_on_c, 3, 72, 108
5, 441120, Note_on_c, 3, 76, 108
5, 441885, Note_off_c, 3, 72, 71
5, 441888, Note_off_c, 3, 76, 71
5, 442077, Note_on_c, 3, 84, 108
5, 442080, Note_on_c, 3, 72, 108
5, 442653, Note_off_c, 3, 84, 72
5, 442656, Note_off_c, 3, 72, 72
5, 442801, Note_on_c, 3, 67, 111
5, 442801, Note_on_c, 3, 79, 111
5, 442897, Note_off_c, 3, 79, 56
5, 442897, Note_off_c, 3, 67, 56
5, 442920, Note_on_c, 3, 76, 111
5, 442921, Note_on_c, 3, 64, 111
5, 443016, Note_off_c, 3, 76, 56
5, 443017, Note_off_c, 3, 64, 56
5, 443041, Note_on_c, 3, 72, 111
5, 443137, Note_off_c, 3, 72, 56
5, 443399, Note_on_c, 3, 72, 111
5, 443402, Note_on_c, 3, 64, 111
5, 443495, Note_off_c, 3, 72, 56
5, 443498, Note_off_c, 3, 64, 56
5, 443521, Note_on_c, 3, 64, 111
5, 443521, Note_on_c, 3, 72, 111
5, 443617, Note_off_c, 3, 72, 56
5, 443617, Note_off_c, 3, 64, 56
5, 443639, Note_on_c, 3, 64, 111
5, 443639, Note_on_c, 3, 72, 111
5, 443735, Note_off_c, 3, 72, 56
5, 443735, Note_off_c, 3, 64, 56
5, 443761, Note_on_c, 3, 64, 111
5, 443762, Note_on_c, 3, 72, 111
5, 443857, Note_off_c, 3, 64, 56
5, 443858, Note_off_c, 3, 72, 56
5, 443878, Note_on_c, 3, 72, 111
5, 443881, Note_on_c, 3, 64, 111
5, 443974, Note_off_c, 3, 72, 56
5, 443977, Note_off_c, 3, 64, 56
5, 443999, Note_on_c, 3, 64, 111
5, 443999, Note_on_c, 3, 72, 111
5, 444095, Note_off_c, 3, 72, 56
5, 444095, Note_off_c, 3, 64, 56
5, 444359, Note_on_c, 3, 76, 111
5, 444361, Note_on_c, 3, 72, 111
5, 444455, Note_off_c, 3, 76, 56
5, 444457, Note_off_c, 3, 72, 56
5, 444478, Note_on_c, 3, 76, 111
5, 444479, Note_on_c, 3, 72, 111
5, 444574, Note_off_c, 3, 76, 56
5, 444575, Note_off_c, 3, 72, 56
5, 444598, Note_on_c, 3, 72, 111
5, 444602, Note_on_c, 3, 76, 111
5, 444694, Note_off_c, 3, 72, 56
5, 444698, Note_off_c, 3, 76, 56
5, 444721, Note_on_c, 3, 76, 111
5, 444721, Note_on_c, 3, 72, 111
5, 444817, Note_off_c, 3, 72, 56
5, 444817, Note_off_c, 3, 76, 56
5, 444841, Note_on_c, 3, 72, 111
5, 444842, Note_on_c, 3, 76, 111
5, 444937, Note_off_c, 3, 72, 56
5, 444938, Note_off_c, 3, 76, 56
5, 444959, Note_on_c, 3, 72, 111
5, 444961, Note_on_c, 3, 76, 111
5, 445055, Note_off_c, 3, 72, 56
5, 445057, Note_off_c, 3, 76, 56
5, 445200, Note_on_c, 3, 64, 111
5, 445201, Note_on_c, 3, 72, 111
5, 445296, Note_off_c, 3, 64, 56
5, 445297, Note_off_c, 3, 72, 56
5, 445321, Note_on_c, 3, 72, 111
5, 445321, Note_on_c, 3, 64, 111
5, 445417, Note_off_c, 3, 64, 56
5, 445417, Note_off_c, 3, 72, 56
5, 445440, Note_on_c, 3, 72, 111
5, 445440, Note_on_c, 3, 64, 111
5, 445536, Note_off_c, 3, 64, 56
5, 445536, Note_off_c, 3, 72, 56
5, 445680, Note_on_c, 3, 76, 111
5, 445682, Note_on_c, 3, 72, 111
5, 445776, Note_off_c, 3, 76, 56
5, 445778, Note_off_c, 3, 72, 56
5, 445798, Note_on_c, 3, 76, 111
5, 445798, Note_on_c, 3, 72, 111
5, 445894, Note_off_c, 3, 72, 56
5, 445894, Note_off_c, 3, 76, 56
5, 445921, Note_on_c, 3, 76, 111
5, 445921, Note_on_c, 3, 72, 111
5, 446017, Note_off_c, 3, 72, 56
5, 446017, Note_off_c, 3, 76, 56
5, 446162, Note_on_c, 3, 64, 111
5, 446162, Note_on_c, 3, 67, 111
5, 446258, Note_off_c, 3, 67, 56
5, 446258, Note_off_c, 3, 64, 56
5, 446281, Note_on_c, 3, 64, 111
5, 446281, Note_on_c, 3, 67, 111
5, 446377, Note_off_c, 3, 67, 56
5, 446377, Note_off_c, 3, 64, 56
5, 446399, Note_on_c, 3, 64, 111
5, 446399, Note_on_c, 3, 67, 111
5, 446495, Note_off_c, 3, 67, 56
5, 446495, Note_off_c, 3, 64, 56
5, 446638, Note_on_c, 3, 64, 111
5, 446639, Note_on_c, 3, 72, 111
5, 446734, Note_off_c, 3, 64, 56
5, 446735, Note_off_c, 3, 72, 56
5, 446760, Note_on_c, 3, 72, 111
5, 446762, Note_on_c, 3, 64, 111
5, 446856, Note_off_c, 3, 72, 56
5, 446858, Note_off_c, 3, 64, 56
5, 446882, Note_on_c, 3, 64, 108
5, 446882, Note_on_c, 3, 72, 108
5, 447650, Note_off_c, 3, 72, 73
5, 447650, Note_off_c, 3, 64, 73
5, 447839, Note_on_c, 3, 76, 108
5, 447840, Note_on_c, 3, 72, 108
5, 448607, Note_off_c, 3, 76, 74
5, 448608, Note_off_c, 3, 72, 74
5, 448801, Note_on_c, 3, 76, 111
5, 448802, Note_on_c, 3, 72, 111
5, 448921, Note_off_c, 3, 76, 56
5, 448922, Note_off_c, 3, 72, 56
5, 449759, Note_on_c, 3, 64, 111
5, 449761, Note_on_c, 3, 72, 111
5, 449879, Note_off_c, 3, 64, 56
5, 449881, Note_off_c, 3, 72, 56
5, 450720, Note_on_c, 3, 64, 111
5, 450721, Note_on_c, 3, 72, 111
5, 450840, Note_off_c, 3, 64, 56
5, 450841, Note_off_c, 3, 72, 56
5, 451680, Note_on_c, 3, 64, 111
5, 451682, Note_on_c, 3, 72, 111
5, 451800, Note_off_c, 3, 64, 56
5, 451802, Note_off_c, 3, 72, 56
5, 452160, Note_on_c, 3, 64, 111
5, 452162, Note_on_c, 3, 72, 111
5, 452280, Note_off_c, 3, 64, 56
5, 452282, Note_off_c, 3, 72, 56
5, 452640, Note_on_c, 3, 64, 111
5, 452641, Note_on_c, 3, 72, 111
5, 452760, Note_off_c, 3, 64, 56
5, 452761, Note_off_c, 3, 72, 56
5, 453601, Note_on_c, 3, 64, 111
5, 453601, Note_on_c, 3, 72, 111
5, 453721, Note_off_c, 3, 72, 56
5, 453721, Note_off_c, 3, 64, 56
5, 454558, Note_on_c, 3, 72, 108
5, 455518, Note_off_c, 3, 72, 76
5, 455518, End_track
6, 0, Start_track
6, 0, Title_t, "Basn1"
6, 0, Program_c, 4, 70
6, 0, Control_c, 4, 7, 78
6, 0, Note_on_c, 4, 48, 108
6, 0, Control_c, 4, 91, 37
6, 0, Control_c, 4, 93, 18
6, 0, Control_c, 4, 10, 79
6, 432, Note_off_c, 4, 48, 64
6, 477, Note_on_c, 4, 52, 108
6, 909, Note_off_c, 4, 52, 64
6, 959, Note_on_c, 4, 55, 108
6, 1607, Note_off_c, 4, 55, 64
6, 1679, Note_on_c, 4, 53, 108
6, 1770, Note_off_c, 4, 53, 56
6, 1921, Note_on_c, 4, 52, 108
6, 2012, Note_off_c, 4, 52, 56
6, 2160, Note_on_c, 4, 50, 108
6, 2251, Note_off_c, 4, 50, 56
6, 2400, Note_on_c, 4, 48, 108
6, 2491, Note_off_c, 4, 48, 56
6, 2639, Note_on_c, 4, 50, 108
6, 2730, Note_off_c, 4, 50, 56
6, 2883, Note_on_c, 4, 48, 108
6, 3531, Note_off_c, 4, 48, 64
6, 3597, Note_on_c, 4, 48, 108
6, 3750, Note_off_c, 4, 48, 64
6, 3784, Note_on_c, 4, 48, 108
6, 3829, Note_off_c, 4, 48, 56
6, 3839, Note_on_c, 4, 50, 108
6, 4487, Note_off_c, 4, 50, 64
6, 4558, Note_on_c, 4, 50, 108
6, 4711, Note_off_c, 4, 50, 64
6, 4740, Note_on_c, 4, 50, 108
6, 4785, Note_off_c, 4, 50, 56
6, 4803, Note_on_c, 4, 52, 108
6, 5391, Note_off_c, 4, 52, 64
6, 5399, Note_on_c, 4, 60, 108
6, 5490, Note_off_c, 4, 60, 56
6, 5521, Note_on_c, 4, 59, 108
6, 5612, Note_off_c, 4, 59, 56
6, 5639, Note_on_c, 4, 58, 108
6, 5730, Note_off_c, 4, 58, 56
6, 5757, Note_on_c, 4, 57, 108
6, 6621, Note_off_c, 4, 57, 64
6, 6720, Note_on_c, 4, 55, 108
6, 7584, Note_off_c, 4, 55, 64
6, 7683, Note_on_c, 4, 57, 108
6, 8547, Note_off_c, 4, 57, 64
6, 8642, Note_on_c, 4, 55, 108
6, 9506, Note_off_c, 4, 55, 64
6, 9598, Note_on_c, 4, 57, 108
6, 10462, Note_off_c, 4, 57, 64
6, 10563, Note_on_c, 4, 55, 108
6, 11211, Note_off_c, 4, 55, 64
6, 11278, Note_on_c, 4, 55, 108
6, 11483, Note_off_c, 4, 55, 64
6, 11522, Note_on_c, 4, 53, 108
6, 11954, Note_off_c, 4, 53, 64
6, 12000, Note_on_c, 4, 52, 108
6, 12432, Note_off_c, 4, 52, 64
6, 12480, Note_on_c, 4, 50, 108
6, 12685, Note_off_c, 4, 50, 64
6, 12722, Note_on_c, 4, 50, 108
6, 13154, Note_off_c, 4, 50, 64
6, 13201, Note_on_c, 4, 52, 108
6, 13354, Note_off_c, 4, 52, 64
6, 13380, Note_on_c, 4, 52, 108
6, 13425, Note_off_c, 4, 52, 56
6, 13442, Note_on_c, 4, 53, 108
6, 13874, Note_off_c, 4, 53, 64
6, 13920, Note_on_c, 4, 52, 108
6, 14352, Note_off_c, 4, 52, 64
6, 14401, Note_on_c, 4, 50, 108
6, 14606, Note_off_c, 4, 50, 64
6, 14637, Note_on_c, 4, 50, 108
6, 15069, Note_off_c, 4, 50, 64
6, 15122, Note_on_c, 4, 52, 108
6, 15275, Note_off_c, 4, 52, 64
6, 15300, Note_on_c, 4, 52, 108
6, 15345, Note_off_c, 4, 52, 56
6, 15361, Note_on_c, 4, 53, 108
6, 15429, Note_off_c, 4, 53, 56
6, 15540, Note_on_c, 4, 53, 108
6, 15574, Note_off_c, 4, 53, 56
6, 15600, Note_on_c, 4, 53, 108
6, 15668, Note_off_c, 4, 53, 56
6, 15780, Note_on_c, 4, 53, 108
6, 15814, Note_off_c, 4, 53, 56
6, 15841, Note_on_c, 4, 52, 108
6, 15909, Note_off_c, 4, 52, 56
6, 16020, Note_on_c, 4, 52, 108
6, 16054, Note_off_c, 4, 52, 56
6, 16081, Note_on_c, 4, 52, 108
6, 16149, Note_off_c, 4, 52, 56
6, 16260, Note_on_c, 4, 52, 108
6, 16294, Note_off_c, 4, 52, 56
6, 16322, Note_on_c, 4, 50, 108
6, 16527, Note_off_c, 4, 50, 64
6, 16560, Note_on_c, 4, 59, 108
6, 16765, Note_off_c, 4, 59, 64
6, 16801, Note_on_c, 4, 64, 108
6, 17006, Note_off_c, 4, 64, 64
6, 17042, Note_on_c, 4, 64, 108
6, 17247, Note_off_c, 4, 64, 64
6, 17279, Note_on_c, 4, 62, 108
6, 17484, Note_off_c, 4, 62, 64
6, 17519, Note_on_c, 4, 59, 108
6, 17724, Note_off_c, 4, 59, 64
6, 17759, Note_on_c, 4, 64, 108
6, 17964, Note_off_c, 4, 64, 64
6, 18000, Note_on_c, 4, 64, 108
6, 18205, Note_off_c, 4, 64, 64
6, 18239, Note_on_c, 4, 62, 108
6, 18330, Note_off_c, 4, 62, 56
6, 18420, Note_on_c, 4, 60, 108
6, 18465, Note_off_c, 4, 60, 56
6, 18482, Note_on_c, 4, 64, 108
6, 18687, Note_off_c, 4, 64, 64
6, 18719, Note_on_c, 4, 62, 108
6, 18810, Note_off_c, 4, 62, 56
6, 18900, Note_on_c, 4, 60, 108
6, 18945, Note_off_c, 4, 60, 56
6, 18963, Note_on_c, 4, 64, 108
6, 19168, Note_off_c, 4, 64, 64
6, 19201, Note_on_c, 4, 62, 108
6, 19292, Note_off_c, 4, 62, 56
6, 19380, Note_on_c, 4, 60, 108
6, 19425, Note_off_c, 4, 60, 56
6, 19437, Note_on_c, 4, 64, 108
6, 19642, Note_off_c, 4, 64, 64
6, 19679, Note_on_c, 4, 62, 108
6, 19770, Note_off_c, 4, 62, 56
6, 19860, Note_on_c, 4, 60, 108
6, 19905, Note_off_c, 4, 60, 56
6, 19922, Note_on_c, 4, 64, 108
6, 20127, Note_off_c, 4, 64, 64
6, 20160, Note_on_c, 4, 62, 108
6, 20251, Note_off_c, 4, 62, 56
6, 20762, Note_on_c, 4, 64, 108
6, 20870, Note_off_c, 4, 64, 56
6, 20881, Note_on_c, 4, 62, 108
6, 20972, Note_off_c, 4, 62, 56
6, 20999, Note_on_c, 4, 60, 108
6, 21067, Note_off_c, 4, 60, 56
6, 21120, Note_on_c, 4, 59, 108
6, 21188, Note_off_c, 4, 59, 56
6, 21242, Note_on_c, 4, 64, 108
6, 21350, Note_off_c, 4, 64, 56
6, 21360, Note_on_c, 4, 62, 108
6, 21451, Note_off_c, 4, 62, 56
6, 21480, Note_on_c, 4, 60, 108
6, 21548, Note_off_c, 4, 60, 56
6, 21601, Note_on_c, 4, 59, 108
6, 21669, Note_off_c, 4, 59, 56
6, 21721, Note_on_c, 4, 60, 108
6, 21829, Note_off_c, 4, 60, 56
6, 21840, Note_on_c, 4, 59, 108
6, 21931, Note_off_c, 4, 59, 56
6, 21960, Note_on_c, 4, 57, 108
6, 22028, Note_off_c, 4, 57, 56
6, 22081, Note_on_c, 4, 55, 108
6, 22149, Note_off_c, 4, 55, 56
6, 22202, Note_on_c, 4, 60, 108
6, 22310, Note_off_c, 4, 60, 56
6, 22319, Note_on_c, 4, 59, 108
6, 22410, Note_off_c, 4, 59, 56
6, 22439, Note_on_c, 4, 57, 108
6, 22507, Note_off_c, 4, 57, 56
6, 22560, Note_on_c, 4, 55, 108
6, 22628, Note_off_c, 4, 55, 56
6, 22681, Note_on_c, 4, 60, 108
6, 22789, Note_off_c, 4, 60, 56
6, 22800, Note_on_c, 4, 59, 108
6, 22891, Note_off_c, 4, 59, 56
6, 22920, Note_on_c, 4, 57, 108
6, 22988, Note_off_c, 4, 57, 56
6, 23040, Note_on_c, 4, 55, 108
6, 23108, Note_off_c, 4, 55, 56
6, 23159, Note_on_c, 4, 60, 108
6, 23267, Note_off_c, 4, 60, 56
6, 23279, Note_on_c, 4, 59, 108
6, 23370, Note_off_c, 4, 59, 56
6, 23400, Note_on_c, 4, 57, 108
6, 23468, Note_off_c, 4, 57, 56
6, 23521, Note_on_c, 4, 55, 108
6, 23589, Note_off_c, 4, 55, 56
6, 23641, Note_on_c, 4, 53, 108
6, 23709, Note_off_c, 4, 53, 56
6, 23759, Note_on_c, 4, 52, 108
6, 23827, Note_off_c, 4, 52, 56
6, 23879, Note_on_c, 4, 50, 108
6, 23947, Note_off_c, 4, 50, 56
6, 23997, Note_on_c, 4, 60, 108
6, 24645, Note_off_c, 4, 60, 64
6, 24718, Note_on_c, 4, 55, 108
6, 24934, Note_off_c, 4, 55, 64
6, 24957, Note_on_c, 4, 64, 108
6, 25641, Note_off_c, 4, 64, 64
6, 25683, Note_on_c, 4, 62, 108
6, 25845, Note_off_c, 4, 62, 64
6, 25860, Note_on_c, 4, 60, 108
6, 25905, Note_off_c, 4, 60, 56
6, 25921, Note_on_c, 4, 59, 108
6, 26126, Note_off_c, 4, 59, 64
6, 27838, Note_on_c, 4, 62, 108
6, 28486, Note_off_c, 4, 62, 64
6, 28561, Note_on_c, 4, 55, 108
6, 28777, Note_off_c, 4, 55, 64
6, 28800, Note_on_c, 4, 65, 108
6, 29484, Note_off_c, 4, 65, 64
6, 29522, Note_on_c, 4, 64, 108
6, 29684, Note_off_c, 4, 64, 64
6, 29700, Note_on_c, 4, 62, 108
6, 29745, Note_off_c, 4, 62, 56
6, 29759, Note_on_c, 4, 62, 108
6, 29975, Note_off_c, 4, 62, 64
6, 30001, Note_on_c, 4, 64, 108
6, 31585, Note_off_c, 4, 64, 64
6, 31680, Note_on_c, 4, 52, 108
6, 33072, Note_off_c, 4, 52, 64
6, 33117, Note_on_c, 4, 52, 108
6, 33322, Note_off_c, 4, 52, 64
6, 33359, Note_on_c, 4, 54, 108
6, 33512, Note_off_c, 4, 54, 64
6, 33540, Note_on_c, 4, 55, 108
6, 33585, Note_off_c, 4, 55, 56
6, 33600, Note_on_c, 4, 54, 108
6, 34992, Note_off_c, 4, 54, 64
6, 35041, Note_on_c, 4, 54, 108
6, 35246, Note_off_c, 4, 54, 64
6, 35280, Note_on_c, 4, 55, 108
6, 35433, Note_off_c, 4, 55, 64
6, 35460, Note_on_c, 4, 57, 108
6, 35505, Note_off_c, 4, 57, 56
6, 35521, Note_on_c, 4, 59, 108
6, 35953, Note_off_c, 4, 59, 64
6, 36003, Note_on_c, 4, 55, 108
6, 36208, Note_off_c, 4, 55, 64
6, 36241, Note_on_c, 4, 57, 108
6, 36394, Note_off_c, 4, 57, 64
6, 36420, Note_on_c, 4, 59, 108
6, 36465, Note_off_c, 4, 59, 56
6, 36481, Note_on_c, 4, 57, 108
6, 36913, Note_off_c, 4, 57, 64
6, 36958, Note_on_c, 4, 54, 108
6, 37282, Note_off_c, 4, 54, 64
6, 37320, Note_on_c, 4, 55, 108
6, 37365, Note_off_c, 4, 55, 56
6, 37380, Note_on_c, 4, 57, 108
6, 37425, Note_off_c, 4, 57, 56
6, 37441, Note_on_c, 4, 59, 108
6, 37873, Note_off_c, 4, 59, 64
6, 37920, Note_on_c, 4, 55, 108
6, 38244, Note_off_c, 4, 55, 64
6, 38280, Note_on_c, 4, 57, 108
6, 38325, Note_off_c, 4, 57, 56
6, 38340, Note_on_c, 4, 59, 108
6, 38385, Note_off_c, 4, 59, 56
6, 38400, Note_on_c, 4, 50, 108
6, 38491, Note_off_c, 4, 50, 56
6, 38521, Note_on_c, 4, 62, 108
6, 38629, Note_off_c, 4, 62, 56
6, 38639, Note_on_c, 4, 60, 108
6, 38730, Note_off_c, 4, 60, 56
6, 38759, Note_on_c, 4, 59, 108
6, 38827, Note_off_c, 4, 59, 56
6, 38880, Note_on_c, 4, 57, 108
6, 38948, Note_off_c, 4, 57, 56
6, 39001, Note_on_c, 4, 59, 108
6, 39069, Note_off_c, 4, 59, 56
6, 39119, Note_on_c, 4, 57, 108
6, 39210, Note_off_c, 4, 57, 56
6, 39239, Note_on_c, 4, 55, 108
6, 39307, Note_off_c, 4, 55, 56
6, 39360, Note_on_c, 4, 54, 108
6, 39428, Note_off_c, 4, 54, 56
6, 39482, Note_on_c, 4, 55, 108
6, 39590, Note_off_c, 4, 55, 56
6, 39600, Note_on_c, 4, 54, 108
6, 39691, Note_off_c, 4, 54, 56
6, 39720, Note_on_c, 4, 52, 108
6, 39788, Note_off_c, 4, 52, 56
6, 39840, Note_on_c, 4, 50, 108
6, 39908, Note_off_c, 4, 50, 56
6, 39962, Note_on_c, 4, 62, 108
6, 40070, Note_off_c, 4, 62, 56
6, 40081, Note_on_c, 4, 57, 108
6, 40172, Note_off_c, 4, 57, 56
6, 40201, Note_on_c, 4, 57, 108
6, 40269, Note_off_c, 4, 57, 56
6, 40321, Note_on_c, 4, 62, 108
6, 40412, Note_off_c, 4, 62, 56
6, 40440, Note_on_c, 4, 62, 108
6, 40548, Note_off_c, 4, 62, 56
6, 40559, Note_on_c, 4, 61, 108
6, 40667, Note_off_c, 4, 61, 56
6, 40681, Note_on_c, 4, 67, 108
6, 40772, Note_off_c, 4, 67, 56
6, 40800, Note_on_c, 4, 66, 108
6, 40891, Note_off_c, 4, 66, 56
6, 42241, Note_on_c, 4, 62, 108
6, 42377, Note_off_c, 4, 62, 64
6, 42719, Note_on_c, 4, 64, 108
6, 42855, Note_off_c, 4, 64, 64
6, 43203, Note_on_c, 4, 62, 108
6, 43851, Note_off_c, 4, 62, 64
6, 45841, Note_on_c, 4, 57, 108
6, 45909, Note_off_c, 4, 57, 56
6, 45919, Note_on_c, 4, 59, 108
6, 45987, Note_off_c, 4, 59, 56
6, 46001, Note_on_c, 4, 60, 108
6, 46069, Note_off_c, 4, 60, 56
6, 46080, Note_on_c, 4, 62, 108
6, 46285, Note_off_c, 4, 62, 64
6, 46319, Note_on_c, 4, 59, 108
6, 46387, Note_off_c, 4, 59, 56
6, 46401, Note_on_c, 4, 60, 108
6, 46469, Note_off_c, 4, 60, 56
6, 46481, Note_on_c, 4, 62, 108
6, 46549, Note_off_c, 4, 62, 56
6, 46561, Note_on_c, 4, 64, 108
6, 46766, Note_off_c, 4, 64, 64
6, 46801, Note_on_c, 4, 64, 108
6, 46869, Note_off_c, 4, 64, 56
6, 46881, Note_on_c, 4, 66, 108
6, 46949, Note_off_c, 4, 66, 56
6, 46961, Note_on_c, 4, 67, 108
6, 47029, Note_off_c, 4, 67, 56
6, 47042, Note_on_c, 4, 62, 108
6, 47690, Note_off_c, 4, 62, 64
6, 48718, Note_on_c, 4, 62, 73
6, 48934, Note_off_c, 4, 62, 64
6, 48959, Note_on_c, 4, 60, 73
6, 49415, Note_off_c, 4, 60, 64
6, 49440, Note_on_c, 4, 59, 73
6, 49645, Note_off_c, 4, 59, 64
6, 50641, Note_on_c, 4, 64, 73
6, 50857, Note_off_c, 4, 64, 64
6, 50883, Note_on_c, 4, 62, 73
6, 51339, Note_off_c, 4, 62, 64
6, 51360, Note_on_c, 4, 60, 73
6, 51565, Note_off_c, 4, 60, 64
6, 52563, Note_on_c, 4, 60, 58
6, 52779, Note_off_c, 4, 60, 64
6, 52801, Note_on_c, 4, 62, 64
6, 53665, Note_off_c, 4, 62, 64
6, 53761, Note_on_c, 4, 63, 83
6, 54625, Note_off_c, 4, 63, 64
6, 54720, Note_on_c, 4, 64, 103
6, 55308, Note_off_c, 4, 64, 64
6, 55319, Note_on_c, 4, 48, 108
6, 55410, Note_off_c, 4, 48, 56
6, 55441, Note_on_c, 4, 48, 108
6, 55532, Note_off_c, 4, 48, 56
6, 55559, Note_on_c, 4, 48, 108
6, 55650, Note_off_c, 4, 48, 56
6, 55681, Note_on_c, 4, 48, 108
6, 55772, Note_off_c, 4, 48, 56
6, 55799, Note_on_c, 4, 48, 108
6, 55890, Note_off_c, 4, 48, 56
6, 55921, Note_on_c, 4, 48, 108
6, 56012, Note_off_c, 4, 48, 56
6, 56039, Note_on_c, 4, 48, 108
6, 56130, Note_off_c, 4, 48, 56
6, 56160, Note_on_c, 4, 48, 108
6, 56251, Note_off_c, 4, 48, 56
6, 56279, Note_on_c, 4, 48, 108
6, 56370, Note_off_c, 4, 48, 56
6, 56401, Note_on_c, 4, 48, 108
6, 56492, Note_off_c, 4, 48, 56
6, 56520, Note_on_c, 4, 48, 108
6, 56611, Note_off_c, 4, 48, 56
6, 56639, Note_on_c, 4, 48, 108
6, 56844, Note_off_c, 4, 48, 64
6, 56881, Note_on_c, 4, 61, 108
6, 57086, Note_off_c, 4, 61, 64
6, 57121, Note_on_c, 4, 62, 108
6, 57326, Note_off_c, 4, 62, 64
6, 57361, Note_on_c, 4, 63, 108
6, 57566, Note_off_c, 4, 63, 64
6, 57600, Note_on_c, 4, 64, 108
6, 57805, Note_off_c, 4, 64, 64
6, 57840, Note_on_c, 4, 66, 108
6, 58045, Note_off_c, 4, 66, 64
6, 58080, Note_on_c, 4, 67, 108
6, 58171, Note_off_c, 4, 67, 56
6, 58201, Note_on_c, 4, 59, 108
6, 58292, Note_off_c, 4, 59, 56
6, 58320, Note_on_c, 4, 60, 108
6, 58411, Note_off_c, 4, 60, 56
6, 58440, Note_on_c, 4, 62, 108
6, 58531, Note_off_c, 4, 62, 56
6, 58559, Note_on_c, 4, 64, 108
6, 58695, Note_off_c, 4, 64, 64
6, 59520, Note_on_c, 4, 62, 108
6, 59656, Note_off_c, 4, 62, 64
6, 60479, Note_on_c, 4, 62, 73
6, 60935, Note_off_c, 4, 62, 64
6, 60962, Note_on_c, 4, 60, 73
6, 61430, Note_off_c, 4, 60, 64
6, 61440, Note_on_c, 4, 58, 73
6, 61656, Note_off_c, 4, 58, 64
6, 61678, Note_on_c, 4, 57, 73
6, 61883, Note_off_c, 4, 57, 64
6, 61918, Note_on_c, 4, 57, 73
6, 62123, Note_off_c, 4, 57, 64
6, 62159, Note_on_c, 4, 57, 73
6, 62364, Note_off_c, 4, 57, 64
6, 62402, Note_on_c, 4, 62, 73
6, 62858, Note_off_c, 4, 62, 64
6, 62877, Note_on_c, 4, 60, 73
6, 63345, Note_off_c, 4, 60, 64
6, 63358, Note_on_c, 4, 58, 73
6, 63574, Note_off_c, 4, 58, 64
6, 63599, Note_on_c, 4, 57, 73
6, 63804, Note_off_c, 4, 57, 64
6, 63843, Note_on_c, 4, 57, 73
6, 64048, Note_off_c, 4, 57, 64
6, 64078, Note_on_c, 4, 57, 73
6, 64283, Note_off_c, 4, 57, 64
6, 64318, Note_on_c, 4, 55, 73
6, 64774, Note_off_c, 4, 55, 64
6, 64798, Note_on_c, 4, 56, 73
6, 65266, Note_off_c, 4, 56, 64
6, 65283, Note_on_c, 4, 57, 73
6, 65499, Note_off_c, 4, 57, 64
6, 65518, Note_on_c, 4, 62, 73
6, 65723, Note_off_c, 4, 62, 64
6, 65762, Note_on_c, 4, 62, 73
6, 65967, Note_off_c, 4, 62, 64
6, 65997, Note_on_c, 4, 62, 73
6, 66202, Note_off_c, 4, 62, 64
6, 66241, Note_on_c, 4, 64, 73
6, 66673, Note_off_c, 4, 64, 64
6, 66717, Note_on_c, 4, 64, 73
6, 67116, Note_off_c, 4, 64, 64
6, 67141, Note_on_c, 4, 60, 73
6, 67195, Note_off_c, 4, 60, 56
6, 67197, Note_on_c, 4, 59, 73
6, 67653, Note_off_c, 4, 59, 64
6, 67679, Note_on_c, 4, 60, 73
6, 68078, Note_off_c, 4, 60, 64
6, 68100, Note_on_c, 4, 57, 73
6, 68145, Note_off_c, 4, 57, 56
6, 68161, Note_on_c, 4, 62, 90
6, 68809, Note_off_c, 4, 62, 64
6, 68881, Note_on_c, 4, 62, 90
6, 69086, Note_off_c, 4, 62, 64
6, 69117, Note_on_c, 4, 62, 90
6, 69322, Note_off_c, 4, 62, 64
6, 69361, Note_on_c, 4, 62, 90
6, 69566, Note_off_c, 4, 62, 64
6, 69601, Note_on_c, 4, 62, 90
6, 69806, Note_off_c, 4, 62, 64
6, 69838, Note_on_c, 4, 62, 90
6, 70043, Note_off_c, 4, 62, 64
6, 70081, Note_on_c, 4, 62, 96
6, 70729, Note_off_c, 4, 62, 64
6, 70802, Note_on_c, 4, 62, 90
6, 71007, Note_off_c, 4, 62, 64
6, 71040, Note_on_c, 4, 62, 90
6, 71245, Note_off_c, 4, 62, 64
6, 71282, Note_on_c, 4, 62, 90
6, 71487, Note_off_c, 4, 62, 64
6, 71522, Note_on_c, 4, 62, 90
6, 71727, Note_off_c, 4, 62, 64
6, 71761, Note_on_c, 4, 62, 90
6, 71966, Note_off_c, 4, 62, 64
6, 72003, Note_on_c, 4, 62, 96
6, 72651, Note_off_c, 4, 62, 64
6, 72717, Note_on_c, 4, 62, 98
6, 72922, Note_off_c, 4, 62, 64
6, 72963, Note_on_c, 4, 64, 100
6, 73168, Note_off_c, 4, 64, 64
6, 73199, Note_on_c, 4, 65, 100
6, 73404, Note_off_c, 4, 65, 64
6, 73438, Note_on_c, 4, 65, 101
6, 73643, Note_off_c, 4, 65, 64
6, 73681, Note_on_c, 4, 65, 101
6, 73886, Note_off_c, 4, 65, 64
6, 73920, Note_on_c, 4, 65, 102
6, 74125, Note_off_c, 4, 65, 64
6, 74158, Note_on_c, 4, 65, 103
6, 74363, Note_off_c, 4, 65, 64
6, 74401, Note_on_c, 4, 65, 103
6, 74606, Note_off_c, 4, 65, 64
6, 74640, Note_on_c, 4, 65, 104
6, 74845, Note_off_c, 4, 65, 64
6, 74877, Note_on_c, 4, 65, 105
6, 75082, Note_off_c, 4, 65, 64
6, 75119, Note_on_c, 4, 65, 105
6, 75324, Note_off_c, 4, 65, 64
6, 75359, Note_on_c, 4, 65, 106
6, 75564, Note_off_c, 4, 65, 64
6, 75599, Note_on_c, 4, 65, 106
6, 75804, Note_off_c, 4, 65, 64
6, 75841, Note_on_c, 4, 65, 108
6, 77665, Note_off_c, 4, 65, 64
6, 77757, Note_on_c, 4, 65, 108
6, 78405, Note_off_c, 4, 65, 64
6, 78481, Note_on_c, 4, 65, 108
6, 78572, Note_off_c, 4, 65, 56
6, 78601, Note_on_c, 4, 65, 108
6, 78692, Note_off_c, 4, 65, 56
6, 78718, Note_on_c, 4, 65, 108
6, 79366, Note_off_c, 4, 65, 64
6, 79440, Note_on_c, 4, 65, 108
6, 79531, Note_off_c, 4, 65, 56
6, 79560, Note_on_c, 4, 65, 108
6, 79651, Note_off_c, 4, 65, 56
6, 79677, Note_on_c, 4, 65, 108
6, 79882, Note_off_c, 4, 65, 64
6, 79920, Note_on_c, 4, 65, 108
6, 80011, Note_off_c, 4, 65, 56
6, 80041, Note_on_c, 4, 65, 108
6, 80132, Note_off_c, 4, 65, 56
6, 80160, Note_on_c, 4, 65, 108
6, 80365, Note_off_c, 4, 65, 64
6, 80399, Note_on_c, 4, 65, 108
6, 80490, Note_off_c, 4, 65, 56
6, 80520, Note_on_c, 4, 65, 108
6, 80611, Note_off_c, 4, 65, 56
6, 80640, Note_on_c, 4, 65, 108
6, 80731, Note_off_c, 4, 65, 56
6, 80759, Note_on_c, 4, 55, 108
6, 80850, Note_off_c, 4, 55, 56
6, 80880, Note_on_c, 4, 62, 108
6, 80971, Note_off_c, 4, 62, 56
6, 81000, Note_on_c, 4, 59, 108
6, 81091, Note_off_c, 4, 59, 56
6, 81119, Note_on_c, 4, 65, 108
6, 81210, Note_off_c, 4, 65, 56
6, 81240, Note_on_c, 4, 62, 108
6, 81331, Note_off_c, 4, 62, 56
6, 81360, Note_on_c, 4, 59, 108
6, 81451, Note_off_c, 4, 59, 56
6, 81479, Note_on_c, 4, 55, 108
6, 81570, Note_off_c, 4, 55, 56
6, 81597, Note_on_c, 4, 60, 108
6, 82029, Note_off_c, 4, 60, 64
6, 82083, Note_on_c, 4, 52, 108
6, 82515, Note_off_c, 4, 52, 64
6, 82561, Note_on_c, 4, 55, 108
6, 83209, Note_off_c, 4, 55, 64
6, 83281, Note_on_c, 4, 53, 108
6, 83372, Note_off_c, 4, 53, 56
6, 83520, Note_on_c, 4, 52, 108
6, 83611, Note_off_c, 4, 52, 56
6, 83760, Note_on_c, 4, 50, 108
6, 83851, Note_off_c, 4, 50, 56
6, 84000, Note_on_c, 4, 48, 108
6, 84091, Note_off_c, 4, 48, 56
6, 84239, Note_on_c, 4, 50, 108
6, 84330, Note_off_c, 4, 50, 56
6, 84481, Note_on_c, 4, 48, 108
6, 85129, Note_off_c, 4, 48, 64
6, 85202, Note_on_c, 4, 48, 108
6, 85355, Note_off_c, 4, 48, 64
6, 85380, Note_on_c, 4, 48, 108
6, 85425, Note_off_c, 4, 48, 56
6, 85439, Note_on_c, 4, 50, 108
6, 86087, Note_off_c, 4, 50, 64
6, 86158, Note_on_c, 4, 50, 108
6, 86311, Note_off_c, 4, 50, 64
6, 86340, Note_on_c, 4, 50, 108
6, 86385, Note_off_c, 4, 50, 56
6, 86402, Note_on_c, 4, 52, 108
6, 86990, Note_off_c, 4, 52, 64
6, 86999, Note_on_c, 4, 60, 108
6, 87090, Note_off_c, 4, 60, 56
6, 87119, Note_on_c, 4, 59, 108
6, 87210, Note_off_c, 4, 59, 56
6, 87239, Note_on_c, 4, 58, 108
6, 87330, Note_off_c, 4, 58, 56
6, 87362, Note_on_c, 4, 57, 108
6, 88226, Note_off_c, 4, 57, 64
6, 88320, Note_on_c, 4, 55, 108
6, 89184, Note_off_c, 4, 55, 64
6, 89281, Note_on_c, 4, 57, 108
6, 90145, Note_off_c, 4, 57, 64
6, 90241, Note_on_c, 4, 55, 108
6, 91105, Note_off_c, 4, 55, 64
6, 91198, Note_on_c, 4, 57, 108
6, 92062, Note_off_c, 4, 57, 64
6, 92157, Note_on_c, 4, 55, 108
6, 92805, Note_off_c, 4, 55, 64
6, 92880, Note_on_c, 4, 55, 108
6, 93085, Note_off_c, 4, 55, 64
6, 93122, Note_on_c, 4, 53, 108
6, 93554, Note_off_c, 4, 53, 64
6, 93600, Note_on_c, 4, 52, 108
6, 94032, Note_off_c, 4, 52, 64
6, 94078, Note_on_c, 4, 50, 108
6, 94283, Note_off_c, 4, 50, 64
6, 94319, Note_on_c, 4, 50, 108
6, 94751, Note_off_c, 4, 50, 64
6, 94801, Note_on_c, 4, 52, 108
6, 94954, Note_off_c, 4, 52, 64
6, 94980, Note_on_c, 4, 52, 108
6, 95025, Note_off_c, 4, 52, 56
6, 95037, Note_on_c, 4, 53, 108
6, 95469, Note_off_c, 4, 53, 64
6, 95518, Note_on_c, 4, 52, 108
6, 95950, Note_off_c, 4, 52, 64
6, 96002, Note_on_c, 4, 50, 108
6, 96207, Note_off_c, 4, 50, 64
6, 96242, Note_on_c, 4, 50, 108
6, 96674, Note_off_c, 4, 50, 64
6, 96723, Note_on_c, 4, 52, 108
6, 96876, Note_off_c, 4, 52, 64
6, 96900, Note_on_c, 4, 52, 108
6, 96945, Note_off_c, 4, 52, 56
6, 96959, Note_on_c, 4, 53, 108
6, 97027, Note_off_c, 4, 53, 56
6, 97140, Note_on_c, 4, 53, 108
6, 97174, Note_off_c, 4, 53, 56
6, 97201, Note_on_c, 4, 53, 108
6, 97269, Note_off_c, 4, 53, 56
6, 97380, Note_on_c, 4, 53, 108
6, 97414, Note_off_c, 4, 53, 56
6, 97439, Note_on_c, 4, 52, 108
6, 97507, Note_off_c, 4, 52, 56
6, 97620, Note_on_c, 4, 52, 108
6, 97654, Note_off_c, 4, 52, 56
6, 97679, Note_on_c, 4, 52, 108
6, 97747, Note_off_c, 4, 52, 56
6, 97860, Note_on_c, 4, 52, 108
6, 97894, Note_off_c, 4, 52, 56
6, 97917, Note_on_c, 4, 50, 108
6, 98122, Note_off_c, 4, 50, 64
6, 98159, Note_on_c, 4, 59, 108
6, 98364, Note_off_c, 4, 59, 64
6, 98402, Note_on_c, 4, 64, 108
6, 98607, Note_off_c, 4, 64, 64
6, 98643, Note_on_c, 4, 64, 108
6, 98848, Note_off_c, 4, 64, 64
6, 98877, Note_on_c, 4, 62, 108
6, 99082, Note_off_c, 4, 62, 64
6, 99119, Note_on_c, 4, 59, 108
6, 99324, Note_off_c, 4, 59, 64
6, 99361, Note_on_c, 4, 64, 108
6, 99566, Note_off_c, 4, 64, 64
6, 99603, Note_on_c, 4, 64, 108
6, 99808, Note_off_c, 4, 64, 64
6, 99840, Note_on_c, 4, 62, 108
6, 99931, Note_off_c, 4, 62, 56
6, 100020, Note_on_c, 4, 60, 108
6, 100065, Note_off_c, 4, 60, 56
6, 100080, Note_on_c, 4, 64, 108
6, 100285, Note_off_c, 4, 64, 64
6, 100320, Note_on_c, 4, 62, 108
6, 100411, Note_off_c, 4, 62, 56
6, 100500, Note_on_c, 4, 60, 108
6, 100545, Note_off_c, 4, 60, 56
6, 100561, Note_on_c, 4, 64, 108
6, 100766, Note_off_c, 4, 64, 64
6, 100799, Note_on_c, 4, 62, 108
6, 100890, Note_off_c, 4, 62, 56
6, 100980, Note_on_c, 4, 60, 108
6, 101025, Note_off_c, 4, 60, 56
6, 101038, Note_on_c, 4, 64, 108
6, 101243, Note_off_c, 4, 64, 64
6, 101280, Note_on_c, 4, 62, 108
6, 101371, Note_off_c, 4, 62, 56
6, 101460, Note_on_c, 4, 60, 108
6, 101505, Note_off_c, 4, 60, 56
6, 101517, Note_on_c, 4, 64, 108
6, 101722, Note_off_c, 4, 64, 64
6, 101761, Note_on_c, 4, 62, 108
6, 101852, Note_off_c, 4, 62, 56
6, 102361, Note_on_c, 4, 64, 108
6, 102469, Note_off_c, 4, 64, 56
6, 102480, Note_on_c, 4, 62, 108
6, 102571, Note_off_c, 4, 62, 56
6, 102600, Note_on_c, 4, 60, 108
6, 102668, Note_off_c, 4, 60, 56
6, 102721, Note_on_c, 4, 59, 108
6, 102789, Note_off_c, 4, 59, 56
6, 102841, Note_on_c, 4, 64, 108
6, 102949, Note_off_c, 4, 64, 56
6, 102959, Note_on_c, 4, 62, 108
6, 103050, Note_off_c, 4, 62, 56
6, 103081, Note_on_c, 4, 60, 108
6, 103149, Note_off_c, 4, 60, 56
6, 103199, Note_on_c, 4, 59, 108
6, 103267, Note_off_c, 4, 59, 56
6, 103321, Note_on_c, 4, 60, 108
6, 103429, Note_off_c, 4, 60, 56
6, 103439, Note_on_c, 4, 59, 108
6, 103530, Note_off_c, 4, 59, 56
6, 103559, Note_on_c, 4, 57, 108
6, 103627, Note_off_c, 4, 57, 56
6, 103679, Note_on_c, 4, 55, 108
6, 103747, Note_off_c, 4, 55, 56
6, 103799, Note_on_c, 4, 60, 108
6, 103907, Note_off_c, 4, 60, 56
6, 103920, Note_on_c, 4, 59, 108
6, 104011, Note_off_c, 4, 59, 56
6, 104041, Note_on_c, 4, 57, 108
6, 104109, Note_off_c, 4, 57, 56
6, 104161, Note_on_c, 4, 55, 108
6, 104229, Note_off_c, 4, 55, 56
6, 104282, Note_on_c, 4, 60, 108
6, 104390, Note_off_c, 4, 60, 56
6, 104401, Note_on_c, 4, 59, 108
6, 104492, Note_off_c, 4, 59, 56
6, 104519, Note_on_c, 4, 57, 108
6, 104587, Note_off_c, 4, 57, 56
6, 104640, Note_on_c, 4, 55, 108
6, 104708, Note_off_c, 4, 55, 56
6, 104761, Note_on_c, 4, 60, 108
6, 104869, Note_off_c, 4, 60, 56
6, 104881, Note_on_c, 4, 59, 108
6, 104972, Note_off_c, 4, 59, 56
6, 105001, Note_on_c, 4, 57, 108
6, 105069, Note_off_c, 4, 57, 56
6, 105121, Note_on_c, 4, 55, 108
6, 105189, Note_off_c, 4, 55, 56
6, 105240, Note_on_c, 4, 53, 108
6, 105308, Note_off_c, 4, 53, 56
6, 105359, Note_on_c, 4, 52, 108
6, 105427, Note_off_c, 4, 52, 56
6, 105479, Note_on_c, 4, 50, 108
6, 105547, Note_off_c, 4, 50, 56
6, 105601, Note_on_c, 4, 60, 108
6, 106249, Note_off_c, 4, 60, 64
6, 106321, Note_on_c, 4, 55, 108
6, 106537, Note_off_c, 4, 55, 64
6, 106560, Note_on_c, 4, 64, 108
6, 107244, Note_off_c, 4, 64, 64
6, 107282, Note_on_c, 4, 62, 108
6, 107444, Note_off_c, 4, 62, 64
6, 107460, Note_on_c, 4, 60, 108
6, 107505, Note_off_c, 4, 60, 56
6, 107518, Note_on_c, 4, 59, 108
6, 107723, Note_off_c, 4, 59, 64
6, 109443, Note_on_c, 4, 62, 108
6, 110091, Note_off_c, 4, 62, 64
6, 110397, Note_on_c, 4, 65, 108
6, 111081, Note_off_c, 4, 65, 64
6, 111121, Note_on_c, 4, 64, 108
6, 111283, Note_off_c, 4, 64, 64
6, 111300, Note_on_c, 4, 62, 108
6, 111345, Note_off_c, 4, 62, 56
6, 111363, Note_on_c, 4, 62, 108
6, 111579, Note_off_c, 4, 62, 64
6, 111602, Note_on_c, 4, 64, 108
6, 113186, Note_off_c, 4, 64, 64
6, 113277, Note_on_c, 4, 52, 108
6, 114669, Note_off_c, 4, 52, 64
6, 114717, Note_on_c, 4, 52, 108
6, 114922, Note_off_c, 4, 52, 64
6, 114958, Note_on_c, 4, 54, 108
6, 115111, Note_off_c, 4, 54, 64
6, 115140, Note_on_c, 4, 55, 108
6, 115185, Note_off_c, 4, 55, 56
6, 115203, Note_on_c, 4, 54, 108
6, 116595, Note_off_c, 4, 54, 64
6, 116640, Note_on_c, 4, 54, 108
6, 116845, Note_off_c, 4, 54, 64
6, 116878, Note_on_c, 4, 55, 108
6, 117031, Note_off_c, 4, 55, 64
6, 117060, Note_on_c, 4, 57, 108
6, 117105, Note_off_c, 4, 57, 56
6, 117117, Note_on_c, 4, 59, 108
6, 117549, Note_off_c, 4, 59, 64
6, 117598, Note_on_c, 4, 55, 108
6, 117803, Note_off_c, 4, 55, 64
6, 117838, Note_on_c, 4, 57, 108
6, 117991, Note_off_c, 4, 57, 64
6, 118020, Note_on_c, 4, 59, 108
6, 118065, Note_off_c, 4, 59, 56
6, 118082, Note_on_c, 4, 57, 108
6, 118514, Note_off_c, 4, 57, 64
6, 118560, Note_on_c, 4, 54, 108
6, 118884, Note_off_c, 4, 54, 64
6, 118920, Note_on_c, 4, 55, 108
6, 118965, Note_off_c, 4, 55, 56
6, 118980, Note_on_c, 4, 57, 108
6, 119025, Note_off_c, 4, 57, 56
6, 119038, Note_on_c, 4, 59, 108
6, 119470, Note_off_c, 4, 59, 64
6, 119520, Note_on_c, 4, 55, 108
6, 119844, Note_off_c, 4, 55, 64
6, 119880, Note_on_c, 4, 57, 108
6, 119925, Note_off_c, 4, 57, 56
6, 119940, Note_on_c, 4, 59, 108
6, 119985, Note_off_c, 4, 59, 56
6, 120121, Note_on_c, 4, 62, 108
6, 120229, Note_off_c, 4, 62, 56
6, 120239, Note_on_c, 4, 60, 108
6, 120330, Note_off_c, 4, 60, 56
6, 120361, Note_on_c, 4, 59, 108
6, 120429, Note_off_c, 4, 59, 56
6, 120479, Note_on_c, 4, 57, 108
6, 120547, Note_off_c, 4, 57, 56
6, 120600, Note_on_c, 4, 59, 108
6, 120668, Note_off_c, 4, 59, 56
6, 120720, Note_on_c, 4, 57, 108
6, 120811, Note_off_c, 4, 57, 56
6, 120841, Note_on_c, 4, 55, 108
6, 120909, Note_off_c, 4, 55, 56
6, 120959, Note_on_c, 4, 54, 108
6, 121027, Note_off_c, 4, 54, 56
6, 121081, Note_on_c, 4, 55, 108
6, 121189, Note_off_c, 4, 55, 56
6, 121199, Note_on_c, 4, 54, 108
6, 121290, Note_off_c, 4, 54, 56
6, 121319, Note_on_c, 4, 52, 108
6, 121387, Note_off_c, 4, 52, 56
6, 121439, Note_on_c, 4, 50, 108
6, 121507, Note_off_c, 4, 50, 56
6, 121558, Note_on_c, 4, 50, 108
6, 121562, Note_on_c, 4, 62, 108
6, 121666, Note_off_c, 4, 50, 56
6, 121670, Note_off_c, 4, 62, 56
6, 121680, Note_on_c, 4, 57, 108
6, 121771, Note_off_c, 4, 57, 56
6, 121800, Note_on_c, 4, 57, 108
6, 121868, Note_off_c, 4, 57, 56
6, 121920, Note_on_c, 4, 62, 108
6, 122011, Note_off_c, 4, 62, 56
6, 122040, Note_on_c, 4, 62, 108
6, 122148, Note_off_c, 4, 62, 56
6, 122161, Note_on_c, 4, 61, 108
6, 122269, Note_off_c, 4, 61, 56
6, 122279, Note_on_c, 4, 67, 108
6, 122370, Note_off_c, 4, 67, 56
6, 122399, Note_on_c, 4, 66, 108
6, 122490, Note_off_c, 4, 66, 56
6, 123840, Note_on_c, 4, 62, 108
6, 123976, Note_off_c, 4, 62, 64
6, 124318, Note_on_c, 4, 64, 108
6, 124454, Note_off_c, 4, 64, 64
6, 124803, Note_on_c, 4, 62, 108
6, 125451, Note_off_c, 4, 62, 64
6, 127439, Note_on_c, 4, 57, 108
6, 127507, Note_off_c, 4, 57, 56
6, 127520, Note_on_c, 4, 59, 108
6, 127588, Note_off_c, 4, 59, 56
6, 127599, Note_on_c, 4, 60, 108
6, 127667, Note_off_c, 4, 60, 56
6, 127680, Note_on_c, 4, 62, 108
6, 127885, Note_off_c, 4, 62, 64
6, 127920, Note_on_c, 4, 59, 108
6, 127988, Note_off_c, 4, 59, 56
6, 128000, Note_on_c, 4, 60, 108
6, 128068, Note_off_c, 4, 60, 56
6, 128081, Note_on_c, 4, 62, 108
6, 128149, Note_off_c, 4, 62, 56
6, 128158, Note_on_c, 4, 64, 108
6, 128363, Note_off_c, 4, 64, 64
6, 128400, Note_on_c, 4, 64, 108
6, 128468, Note_off_c, 4, 64, 56
6, 128481, Note_on_c, 4, 66, 108
6, 128549, Note_off_c, 4, 66, 56
6, 128560, Note_on_c, 4, 67, 108
6, 128628, Note_off_c, 4, 67, 56
6, 128641, Note_on_c, 4, 62, 108
6, 129289, Note_off_c, 4, 62, 64
6, 130319, Note_on_c, 4, 62, 73
6, 130535, Note_off_c, 4, 62, 64
6, 130557, Note_on_c, 4, 60, 73
6, 131013, Note_off_c, 4, 60, 64
6, 131042, Note_on_c, 4, 59, 73
6, 131247, Note_off_c, 4, 59, 64
6, 132242, Note_on_c, 4, 64, 73
6, 132458, Note_off_c, 4, 64, 64
6, 132480, Note_on_c, 4, 62, 73
6, 132936, Note_off_c, 4, 62, 64
6, 132961, Note_on_c, 4, 60, 73
6, 133166, Note_off_c, 4, 60, 64
6, 134158, Note_on_c, 4, 60, 58
6, 134374, Note_off_c, 4, 60, 64
6, 134399, Note_on_c, 4, 62, 64
6, 135263, Note_off_c, 4, 62, 64
6, 135361, Note_on_c, 4, 63, 83
6, 136225, Note_off_c, 4, 63, 64
6, 136323, Note_on_c, 4, 64, 103
6, 136911, Note_off_c, 4, 64, 64
6, 136920, Note_on_c, 4, 48, 108
6, 137011, Note_off_c, 4, 48, 56
6, 137041, Note_on_c, 4, 48, 108
6, 137132, Note_off_c, 4, 48, 56
6, 137159, Note_on_c, 4, 48, 108
6, 137250, Note_off_c, 4, 48, 56
6, 137281, Note_on_c, 4, 48, 108
6, 137372, Note_off_c, 4, 48, 56
6, 137401, Note_on_c, 4, 48, 108
6, 137492, Note_off_c, 4, 48, 56
6, 137519, Note_on_c, 4, 48, 108
6, 137610, Note_off_c, 4, 48, 56
6, 137640, Note_on_c, 4, 48, 108
6, 137731, Note_off_c, 4, 48, 56
6, 137761, Note_on_c, 4, 48, 108
6, 137852, Note_off_c, 4, 48, 56
6, 137879, Note_on_c, 4, 48, 108
6, 137970, Note_off_c, 4, 48, 56
6, 138001, Note_on_c, 4, 48, 108
6, 138092, Note_off_c, 4, 48, 56
6, 138120, Note_on_c, 4, 48, 108
6, 138211, Note_off_c, 4, 48, 56
6, 138242, Note_on_c, 4, 48, 108
6, 138447, Note_off_c, 4, 48, 64
6, 138480, Note_on_c, 4, 61, 108
6, 138685, Note_off_c, 4, 61, 64
6, 138720, Note_on_c, 4, 62, 108
6, 138925, Note_off_c, 4, 62, 64
6, 138961, Note_on_c, 4, 63, 108
6, 139166, Note_off_c, 4, 63, 64
6, 139198, Note_on_c, 4, 64, 108
6, 139403, Note_off_c, 4, 64, 64
6, 139442, Note_on_c, 4, 66, 108
6, 139647, Note_off_c, 4, 66, 64
6, 139679, Note_on_c, 4, 67, 108
6, 139770, Note_off_c, 4, 67, 56
6, 139800, Note_on_c, 4, 59, 108
6, 139891, Note_off_c, 4, 59, 56
6, 139920, Note_on_c, 4, 60, 108
6, 140011, Note_off_c, 4, 60, 56
6, 140032, Note_on_c, 4, 62, 108
6, 140123, Note_off_c, 4, 62, 56
6, 140158, Note_on_c, 4, 64, 108
6, 140294, Note_off_c, 4, 64, 64
6, 141121, Note_on_c, 4, 62, 108
6, 141257, Note_off_c, 4, 62, 64
6, 142081, Note_on_c, 4, 62, 73
6, 142537, Note_off_c, 4, 62, 64
6, 142560, Note_on_c, 4, 60, 73
6, 143028, Note_off_c, 4, 60, 64
6, 143042, Note_on_c, 4, 58, 73
6, 143258, Note_off_c, 4, 58, 64
6, 143279, Note_on_c, 4, 57, 73
6, 143484, Note_off_c, 4, 57, 64
6, 143521, Note_on_c, 4, 57, 73
6, 143726, Note_off_c, 4, 57, 64
6, 143760, Note_on_c, 4, 57, 73
6, 143965, Note_off_c, 4, 57, 64
6, 143999, Note_on_c, 4, 62, 73
6, 144455, Note_off_c, 4, 62, 64
6, 144482, Note_on_c, 4, 60, 73
6, 144950, Note_off_c, 4, 60, 64
6, 144963, Note_on_c, 4, 58, 73
6, 145179, Note_off_c, 4, 58, 64
6, 145201, Note_on_c, 4, 57, 73
6, 145406, Note_off_c, 4, 57, 64
6, 145440, Note_on_c, 4, 57, 73
6, 145645, Note_off_c, 4, 57, 64
6, 145678, Note_on_c, 4, 57, 73
6, 145883, Note_off_c, 4, 57, 64
6, 145922, Note_on_c, 4, 55, 73
6, 146378, Note_off_c, 4, 55, 64
6, 146397, Note_on_c, 4, 56, 73
6, 146865, Note_off_c, 4, 56, 64
6, 146880, Note_on_c, 4, 57, 73
6, 147096, Note_off_c, 4, 57, 64
6, 147123, Note_on_c, 4, 62, 73
6, 147328, Note_off_c, 4, 62, 64
6, 147363, Note_on_c, 4, 62, 73
6, 147568, Note_off_c, 4, 62, 64
6, 147601, Note_on_c, 4, 62, 73
6, 147806, Note_off_c, 4, 62, 64
6, 147838, Note_on_c, 4, 64, 73
6, 148270, Note_off_c, 4, 64, 64
6, 148320, Note_on_c, 4, 64, 73
6, 148719, Note_off_c, 4, 64, 64
6, 148739, Note_on_c, 4, 60, 73
6, 148793, Note_off_c, 4, 60, 56
6, 148800, Note_on_c, 4, 59, 73
6, 149256, Note_off_c, 4, 59, 64
6, 149280, Note_on_c, 4, 60, 73
6, 149679, Note_off_c, 4, 60, 64
6, 149700, Note_on_c, 4, 57, 73
6, 149745, Note_off_c, 4, 57, 56
6, 149762, Note_on_c, 4, 62, 90
6, 150410, Note_off_c, 4, 62, 64
6, 150478, Note_on_c, 4, 62, 90
6, 150683, Note_off_c, 4, 62, 64
6, 150723, Note_on_c, 4, 62, 90
6, 150928, Note_off_c, 4, 62, 64
6, 150957, Note_on_c, 4, 62, 90
6, 151162, Note_off_c, 4, 62, 64
6, 151202, Note_on_c, 4, 62, 90
6, 151407, Note_off_c, 4, 62, 64
6, 151437, Note_on_c, 4, 62, 90
6, 151642, Note_off_c, 4, 62, 64
6, 151683, Note_on_c, 4, 62, 96
6, 152331, Note_off_c, 4, 62, 64
6, 152400, Note_on_c, 4, 62, 90
6, 152605, Note_off_c, 4, 62, 64
6, 152640, Note_on_c, 4, 62, 90
6, 152845, Note_off_c, 4, 62, 64
6, 152881, Note_on_c, 4, 62, 90
6, 153086, Note_off_c, 4, 62, 64
6, 153122, Note_on_c, 4, 62, 90
6, 153327, Note_off_c, 4, 62, 64
6, 153363, Note_on_c, 4, 62, 90
6, 153568, Note_off_c, 4, 62, 64
6, 153597, Note_on_c, 4, 62, 96
6, 154245, Note_off_c, 4, 62, 64
6, 154317, Note_on_c, 4, 62, 98
6, 154522, Note_off_c, 4, 62, 64
6, 154560, Note_on_c, 4, 64, 100
6, 154765, Note_off_c, 4, 64, 64
6, 154800, Note_on_c, 4, 65, 100
6, 155005, Note_off_c, 4, 65, 64
6, 155040, Note_on_c, 4, 65, 101
6, 155245, Note_off_c, 4, 65, 64
6, 155280, Note_on_c, 4, 65, 101
6, 155485, Note_off_c, 4, 65, 64
6, 155517, Note_on_c, 4, 65, 102
6, 155722, Note_off_c, 4, 65, 64
6, 155760, Note_on_c, 4, 65, 103
6, 155965, Note_off_c, 4, 65, 64
6, 155998, Note_on_c, 4, 65, 103
6, 156203, Note_off_c, 4, 65, 64
6, 156241, Note_on_c, 4, 65, 104
6, 156446, Note_off_c, 4, 65, 64
6, 156483, Note_on_c, 4, 65, 105
6, 156688, Note_off_c, 4, 65, 64
6, 156719, Note_on_c, 4, 65, 105
6, 156924, Note_off_c, 4, 65, 64
6, 156957, Note_on_c, 4, 65, 106
6, 157162, Note_off_c, 4, 65, 64
6, 157201, Note_on_c, 4, 65, 106
6, 157406, Note_off_c, 4, 65, 64
6, 157443, Note_on_c, 4, 65, 108
6, 159267, Note_off_c, 4, 65, 64
6, 159359, Note_on_c, 4, 65, 108
6, 160007, Note_off_c, 4, 65, 64
6, 160079, Note_on_c, 4, 65, 108
6, 160170, Note_off_c, 4, 65, 56
6, 160199, Note_on_c, 4, 65, 108
6, 160290, Note_off_c, 4, 65, 56
6, 160319, Note_on_c, 4, 65, 108
6, 160967, Note_off_c, 4, 65, 64
6, 161039, Note_on_c, 4, 65, 108
6, 161130, Note_off_c, 4, 65, 56
6, 161161, Note_on_c, 4, 65, 108
6, 161252, Note_off_c, 4, 65, 56
6, 161283, Note_on_c, 4, 65, 108
6, 161488, Note_off_c, 4, 65, 64
6, 161521, Note_on_c, 4, 65, 108
6, 161612, Note_off_c, 4, 65, 56
6, 161639, Note_on_c, 4, 65, 108
6, 161730, Note_off_c, 4, 65, 56
6, 161758, Note_on_c, 4, 65, 108
6, 161963, Note_off_c, 4, 65, 64
6, 162000, Note_on_c, 4, 65, 108
6, 162091, Note_off_c, 4, 65, 56
6, 162121, Note_on_c, 4, 65, 108
6, 162212, Note_off_c, 4, 65, 56
6, 162241, Note_on_c, 4, 59, 108
6, 162332, Note_off_c, 4, 59, 56
6, 162359, Note_on_c, 4, 55, 108
6, 162450, Note_off_c, 4, 55, 56
6, 162480, Note_on_c, 4, 62, 108
6, 162571, Note_off_c, 4, 62, 56
6, 162601, Note_on_c, 4, 59, 108
6, 162692, Note_off_c, 4, 59, 56
6, 162721, Note_on_c, 4, 65, 108
6, 162812, Note_off_c, 4, 65, 56
6, 162840, Note_on_c, 4, 62, 108
6, 162931, Note_off_c, 4, 62, 56
6, 162961, Note_on_c, 4, 65, 108
6, 163166, Note_off_c, 4, 65, 64
6, 163198, Note_on_c, 4, 59, 108
6, 165982, Note_off_c, 4, 59, 64
6, 166081, Note_on_c, 4, 56, 108
6, 166172, Note_off_c, 4, 56, 56
6, 166201, Note_on_c, 4, 52, 108
6, 166292, Note_off_c, 4, 52, 56
6, 166319, Note_on_c, 4, 59, 108
6, 166410, Note_off_c, 4, 59, 56
6, 166439, Note_on_c, 4, 56, 108
6, 166530, Note_off_c, 4, 56, 56
6, 166559, Note_on_c, 4, 62, 108
6, 166650, Note_off_c, 4, 62, 56
6, 166679, Note_on_c, 4, 59, 108
6, 166770, Note_off_c, 4, 59, 56
6, 166801, Note_on_c, 4, 62, 108
6, 166892, Note_off_c, 4, 62, 56
6, 166919, Note_on_c, 4, 62, 108
6, 167010, Note_off_c, 4, 62, 56
6, 167040, Note_on_c, 4, 61, 108
6, 167245, Note_off_c, 4, 61, 64
6, 167521, Note_on_c, 4, 66, 108
6, 167726, Note_off_c, 4, 66, 64
6, 167998, Note_on_c, 4, 64, 108
6, 168646, Note_off_c, 4, 64, 64
6, 176400, Note_on_c, 4, 60, 73
6, 176472, Note_off_c, 4, 60, 56
6, 176481, Note_on_c, 4, 62, 73
6, 176553, Note_off_c, 4, 62, 56
6, 176560, Note_on_c, 4, 64, 73
6, 176632, Note_off_c, 4, 64, 56
6, 176641, Note_on_c, 4, 65, 73
6, 176857, Note_off_c, 4, 65, 64
6, 176878, Note_on_c, 4, 64, 73
6, 177094, Note_off_c, 4, 64, 64
6, 177119, Note_on_c, 4, 62, 73
6, 177335, Note_off_c, 4, 62, 64
6, 177359, Note_on_c, 4, 60, 73
6, 177575, Note_off_c, 4, 60, 64
6, 177599, Note_on_c, 4, 58, 73
6, 177815, Note_off_c, 4, 58, 64
6, 177841, Note_on_c, 4, 57, 73
6, 178057, Note_off_c, 4, 57, 64
6, 178080, Note_on_c, 4, 55, 73
6, 178285, Note_off_c, 4, 55, 64
6, 178323, Note_on_c, 4, 65, 73
6, 178539, Note_off_c, 4, 65, 64
6, 178560, Note_on_c, 4, 64, 73
6, 178776, Note_off_c, 4, 64, 64
6, 178802, Note_on_c, 4, 62, 73
6, 179018, Note_off_c, 4, 62, 64
6, 179041, Note_on_c, 4, 60, 73
6, 179257, Note_off_c, 4, 60, 64
6, 179279, Note_on_c, 4, 58, 73
6, 179495, Note_off_c, 4, 58, 64
6, 179521, Note_on_c, 4, 57, 73
6, 179726, Note_off_c, 4, 57, 64
6, 180240, Note_on_c, 4, 62, 73
6, 180312, Note_off_c, 4, 62, 56
6, 180319, Note_on_c, 4, 64, 73
6, 180391, Note_off_c, 4, 64, 56
6, 180399, Note_on_c, 4, 66, 73
6, 180471, Note_off_c, 4, 66, 56
6, 180482, Note_on_c, 4, 67, 73
6, 180698, Note_off_c, 4, 67, 64
6, 180720, Note_on_c, 4, 65, 73
6, 180936, Note_off_c, 4, 65, 64
6, 180960, Note_on_c, 4, 64, 73
6, 181165, Note_off_c, 4, 64, 64
6, 181201, Note_on_c, 4, 64, 73
6, 181417, Note_off_c, 4, 64, 64
6, 181441, Note_on_c, 4, 64, 73
6, 181657, Note_off_c, 4, 64, 64
6, 181682, Note_on_c, 4, 62, 73
6, 181898, Note_off_c, 4, 62, 64
6, 181920, Note_on_c, 4, 60, 73
6, 182125, Note_off_c, 4, 60, 64
6, 182157, Note_on_c, 4, 64, 73
6, 182373, Note_off_c, 4, 64, 64
6, 182397, Note_on_c, 4, 65, 78
6, 183093, Note_off_c, 4, 65, 64
6, 183120, Note_on_c, 4, 53, 90
6, 185928, Note_off_c, 4, 53, 64
6, 185997, Note_on_c, 4, 53, 90
6, 188805, Note_off_c, 4, 53, 64
6, 188881, Note_on_c, 4, 61, 108
6, 189086, Note_off_c, 4, 61, 64
6, 189120, Note_on_c, 4, 60, 108
6, 189552, Note_off_c, 4, 60, 64
6, 189603, Note_on_c, 4, 61, 108
6, 190035, Note_off_c, 4, 61, 64
6, 190079, Note_on_c, 4, 63, 108
6, 191687, Note_off_c, 4, 63, 64
6, 191761, Note_on_c, 4, 63, 108
6, 191966, Note_off_c, 4, 63, 64
6, 192003, Note_on_c, 4, 62, 108
6, 192435, Note_off_c, 4, 62, 64
6, 192482, Note_on_c, 4, 63, 108
6, 192914, Note_off_c, 4, 63, 64
6, 192960, Note_on_c, 4, 65, 108
6, 194568, Note_off_c, 4, 65, 64
6, 194640, Note_on_c, 4, 60, 108
6, 194712, Note_off_c, 4, 60, 56
6, 194719, Note_on_c, 4, 58, 108
6, 194791, Note_off_c, 4, 58, 56
6, 194801, Note_on_c, 4, 56, 108
6, 194873, Note_off_c, 4, 56, 56
6, 194880, Note_on_c, 4, 55, 108
6, 195096, Note_off_c, 4, 55, 64
6, 195119, Note_on_c, 4, 58, 108
6, 195191, Note_off_c, 4, 58, 56
6, 195200, Note_on_c, 4, 56, 108
6, 195272, Note_off_c, 4, 56, 56
6, 195280, Note_on_c, 4, 55, 108
6, 195352, Note_off_c, 4, 55, 56
6, 195359, Note_on_c, 4, 53, 108
6, 195575, Note_off_c, 4, 53, 64
6, 195600, Note_on_c, 4, 56, 108
6, 195672, Note_off_c, 4, 56, 56
6, 195681, Note_on_c, 4, 55, 108
6, 195753, Note_off_c, 4, 55, 56
6, 195761, Note_on_c, 4, 53, 108
6, 195833, Note_off_c, 4, 53, 56
6, 195841, Note_on_c, 4, 52, 108
6, 195977, Note_off_c, 4, 52, 64
6, 197040, Note_on_c, 4, 64, 108
6, 197112, Note_off_c, 4, 64, 56
6, 197121, Note_on_c, 4, 65, 108
6, 197193, Note_off_c, 4, 65, 56
6, 197199, Note_on_c, 4, 67, 108
6, 197271, Note_off_c, 4, 67, 56
6, 197281, Note_on_c, 4, 60, 108
6, 197417, Note_off_c, 4, 60, 64
6, 198479, Note_on_c, 4, 55, 92
6, 198547, Note_off_c, 4, 55, 56
6, 198561, Note_on_c, 4, 55, 92
6, 198629, Note_off_c, 4, 55, 56
6, 198640, Note_on_c, 4, 55, 92
6, 198708, Note_off_c, 4, 55, 56
6, 198719, Note_on_c, 4, 56, 92
6, 198924, Note_off_c, 4, 56, 64
6, 199439, Note_on_c, 4, 56, 93
6, 199507, Note_off_c, 4, 56, 56
6, 199519, Note_on_c, 4, 56, 94
6, 199587, Note_off_c, 4, 56, 56
6, 199599, Note_on_c, 4, 56, 94
6, 199667, Note_off_c, 4, 56, 56
6, 199683, Note_on_c, 4, 58, 94
6, 199888, Note_off_c, 4, 58, 64
6, 200401, Note_on_c, 4, 58, 95
6, 200469, Note_off_c, 4, 58, 56
6, 200480, Note_on_c, 4, 58, 95
6, 200548, Note_off_c, 4, 58, 56
6, 200560, Note_on_c, 4, 58, 95
6, 200628, Note_off_c, 4, 58, 56
6, 200640, Note_on_c, 4, 60, 95
6, 200845, Note_off_c, 4, 60, 64
6, 201361, Note_on_c, 4, 56, 96
6, 201429, Note_off_c, 4, 56, 56
6, 201440, Note_on_c, 4, 56, 97
6, 201508, Note_off_c, 4, 56, 56
6, 201521, Note_on_c, 4, 56, 97
6, 201589, Note_off_c, 4, 56, 56
6, 201599, Note_on_c, 4, 55, 97
6, 201804, Note_off_c, 4, 55, 64
6, 202319, Note_on_c, 4, 55, 98
6, 202387, Note_off_c, 4, 55, 56
6, 202401, Note_on_c, 4, 55, 98
6, 202469, Note_off_c, 4, 55, 56
6, 202479, Note_on_c, 4, 55, 98
6, 202547, Note_off_c, 4, 55, 56
6, 202557, Note_on_c, 4, 48, 98
6, 202762, Note_off_c, 4, 48, 64
6, 203279, Note_on_c, 4, 51, 100
6, 203347, Note_off_c, 4, 51, 56
6, 203359, Note_on_c, 4, 51, 101
6, 203427, Note_off_c, 4, 51, 56
6, 203441, Note_on_c, 4, 51, 101
6, 203509, Note_off_c, 4, 51, 56
6, 203519, Note_on_c, 4, 53, 101
6, 203724, Note_off_c, 4, 53, 64
6, 204239, Note_on_c, 4, 53, 102
6, 204307, Note_off_c, 4, 53, 56
6, 204319, Note_on_c, 4, 53, 102
6, 204387, Note_off_c, 4, 53, 56
6, 204399, Note_on_c, 4, 53, 102
6, 204467, Note_off_c, 4, 53, 56
6, 204477, Note_on_c, 4, 55, 102
6, 204682, Note_off_c, 4, 55, 64
6, 205200, Note_on_c, 4, 55, 104
6, 205268, Note_off_c, 4, 55, 56
6, 205279, Note_on_c, 4, 55, 104
6, 205347, Note_off_c, 4, 55, 56
6, 205360, Note_on_c, 4, 55, 104
6, 205428, Note_off_c, 4, 55, 56
6, 205681, Note_on_c, 4, 62, 104
6, 205749, Note_off_c, 4, 62, 56
6, 205760, Note_on_c, 4, 62, 104
6, 205828, Note_off_c, 4, 62, 56
6, 205841, Note_on_c, 4, 62, 105
6, 205909, Note_off_c, 4, 62, 56
6, 206160, Note_on_c, 4, 62, 105
6, 206228, Note_off_c, 4, 62, 56
6, 206241, Note_on_c, 4, 62, 105
6, 206309, Note_off_c, 4, 62, 56
6, 206320, Note_on_c, 4, 62, 105
6, 206388, Note_off_c, 4, 62, 56
6, 206641, Note_on_c, 4, 62, 106
6, 206709, Note_off_c, 4, 62, 56
6, 206720, Note_on_c, 4, 62, 106
6, 206788, Note_off_c, 4, 62, 56
6, 206799, Note_on_c, 4, 62, 106
6, 206867, Note_off_c, 4, 62, 56
6, 207121, Note_on_c, 4, 62, 108
6, 207189, Note_off_c, 4, 62, 56
6, 207201, Note_on_c, 4, 62, 108
6, 207269, Note_off_c, 4, 62, 56
6, 207279, Note_on_c, 4, 62, 108
6, 207347, Note_off_c, 4, 62, 56
6, 207360, Note_on_c, 4, 67, 108
6, 208008, Note_off_c, 4, 67, 64
6, 208081, Note_on_c, 4, 60, 108
6, 208286, Note_off_c, 4, 60, 64
6, 208318, Note_on_c, 4, 59, 108
6, 208750, Note_off_c, 4, 59, 64
6, 208802, Note_on_c, 4, 60, 108
6, 209234, Note_off_c, 4, 60, 64
6, 209281, Note_on_c, 4, 62, 108
6, 209929, Note_off_c, 4, 62, 64
6, 209999, Note_on_c, 4, 50, 108
6, 210204, Note_off_c, 4, 50, 64
6, 210238, Note_on_c, 4, 48, 108
6, 210670, Note_off_c, 4, 48, 64
6, 210723, Note_on_c, 4, 50, 108
6, 211155, Note_off_c, 4, 50, 64
6, 211199, Note_on_c, 4, 52, 108
6, 211847, Note_off_c, 4, 52, 64
6, 211920, Note_on_c, 4, 52, 108
6, 212125, Note_off_c, 4, 52, 64
6, 212157, Note_on_c, 4, 50, 108
6, 212589, Note_off_c, 4, 50, 64
6, 212641, Note_on_c, 4, 52, 108
6, 213073, Note_off_c, 4, 52, 64
6, 213122, Note_on_c, 4, 53, 108
6, 213770, Note_off_c, 4, 53, 64
6, 213843, Note_on_c, 4, 53, 108
6, 214048, Note_off_c, 4, 53, 64
6, 214080, Note_on_c, 4, 52, 108
6, 214512, Note_off_c, 4, 52, 64
6, 214562, Note_on_c, 4, 53, 108
6, 214994, Note_off_c, 4, 53, 64
6, 215040, Note_on_c, 4, 55, 108
6, 215904, Note_off_c, 4, 55, 64
6, 216000, Note_on_c, 4, 56, 108
6, 216864, Note_off_c, 4, 56, 64
6, 216961, Note_on_c, 4, 57, 108
6, 218785, Note_off_c, 4, 57, 64
6, 218880, Note_on_c, 4, 59, 108
6, 219744, Note_off_c, 4, 59, 64
6, 219841, Note_on_c, 4, 62, 108
6, 220705, Note_off_c, 4, 62, 64
6, 220801, Note_on_c, 4, 62, 108
6, 221006, Note_off_c, 4, 62, 64
6, 221039, Note_on_c, 4, 62, 108
6, 221130, Note_off_c, 4, 62, 56
6, 221160, Note_on_c, 4, 62, 108
6, 221251, Note_off_c, 4, 62, 56
6, 221279, Note_on_c, 4, 62, 108
6, 221484, Note_off_c, 4, 62, 64
6, 221521, Note_on_c, 4, 62, 108
6, 221612, Note_off_c, 4, 62, 56
6, 221640, Note_on_c, 4, 62, 108
6, 221731, Note_off_c, 4, 62, 56
6, 221763, Note_on_c, 4, 62, 108
6, 221968, Note_off_c, 4, 62, 64
6, 221999, Note_on_c, 4, 62, 108
6, 222090, Note_off_c, 4, 62, 56
6, 222119, Note_on_c, 4, 62, 108
6, 222210, Note_off_c, 4, 62, 56
6, 222242, Note_on_c, 4, 62, 108
6, 222447, Note_off_c, 4, 62, 64
6, 222480, Note_on_c, 4, 62, 108
6, 222571, Note_off_c, 4, 62, 56
6, 222600, Note_on_c, 4, 62, 108
6, 222691, Note_off_c, 4, 62, 56
6, 222721, Note_on_c, 4, 62, 108
6, 222926, Note_off_c, 4, 62, 64
6, 222960, Note_on_c, 4, 62, 108
6, 223051, Note_off_c, 4, 62, 56
6, 223079, Note_on_c, 4, 62, 108
6, 223170, Note_off_c, 4, 62, 56
6, 223202, Note_on_c, 4, 62, 108
6, 223407, Note_off_c, 4, 62, 64
6, 223439, Note_on_c, 4, 62, 108
6, 223530, Note_off_c, 4, 62, 56
6, 223560, Note_on_c, 4, 62, 108
6, 223651, Note_off_c, 4, 62, 56
6, 223678, Note_on_c, 4, 62, 108
6, 223883, Note_off_c, 4, 62, 64
6, 223921, Note_on_c, 4, 62, 108
6, 224012, Note_off_c, 4, 62, 56
6, 224039, Note_on_c, 4, 62, 108
6, 224130, Note_off_c, 4, 62, 56
6, 224157, Note_on_c, 4, 62, 108
6, 224362, Note_off_c, 4, 62, 64
6, 224401, Note_on_c, 4, 62, 108
6, 224492, Note_off_c, 4, 62, 56
6, 224520, Note_on_c, 4, 62, 108
6, 224611, Note_off_c, 4, 62, 56
6, 224639, Note_on_c, 4, 62, 108
6, 227423, Note_off_c, 4, 62, 64
6, 227517, Note_on_c, 4, 55, 108
6, 227722, Note_off_c, 4, 55, 64
6, 255599, Note_on_c, 4, 65, 73
6, 256967, Note_off_c, 4, 65, 64
6, 257042, Note_on_c, 4, 62, 73
6, 258410, Note_off_c, 4, 62, 64
6, 258482, Note_on_c, 4, 59, 73
6, 259850, Note_off_c, 4, 59, 64
6, 259917, Note_on_c, 4, 62, 73
6, 261285, Note_off_c, 4, 62, 64
6, 261363, Note_on_c, 4, 65, 73
6, 262731, Note_off_c, 4, 65, 64
6, 262799, Note_on_c, 4, 62, 73
6, 263447, Note_off_c, 4, 62, 64
6, 263519, Note_on_c, 4, 59, 73
6, 264167, Note_off_c, 4, 59, 64
6, 264241, Note_on_c, 4, 62, 73
6, 264889, Note_off_c, 4, 62, 64
6, 264960, Note_on_c, 4, 65, 74
6, 265608, Note_off_c, 4, 65, 64
6, 265682, Note_on_c, 4, 59, 92
6, 266330, Note_off_c, 4, 59, 64
6, 266402, Note_on_c, 4, 60, 108
6, 266834, Note_off_c, 4, 60, 64
6, 266879, Note_on_c, 4, 52, 108
6, 267311, Note_off_c, 4, 52, 64
6, 267357, Note_on_c, 4, 55, 108
6, 268005, Note_off_c, 4, 55, 64
6, 268081, Note_on_c, 4, 53, 108
6, 268183, Note_off_c, 4, 53, 56
6, 268322, Note_on_c, 4, 52, 108
6, 268424, Note_off_c, 4, 52, 56
6, 268558, Note_on_c, 4, 50, 108
6, 268660, Note_off_c, 4, 50, 56
6, 268802, Note_on_c, 4, 48, 108
6, 268904, Note_off_c, 4, 48, 56
6, 269041, Note_on_c, 4, 50, 108
6, 269143, Note_off_c, 4, 50, 56
6, 269283, Note_on_c, 4, 48, 108
6, 269931, Note_off_c, 4, 48, 64
6, 269997, Note_on_c, 4, 48, 108
6, 270150, Note_off_c, 4, 48, 64
6, 270179, Note_on_c, 4, 48, 108
6, 270230, Note_off_c, 4, 48, 56
6, 270241, Note_on_c, 4, 50, 108
6, 270889, Note_off_c, 4, 50, 64
6, 270963, Note_on_c, 4, 50, 108
6, 271116, Note_off_c, 4, 50, 64
6, 271139, Note_on_c, 4, 50, 108
6, 271190, Note_off_c, 4, 50, 56
6, 271198, Note_on_c, 4, 52, 108
6, 271786, Note_off_c, 4, 52, 64
6, 271800, Note_on_c, 4, 60, 108
6, 271902, Note_off_c, 4, 60, 56
6, 271919, Note_on_c, 4, 59, 108
6, 272021, Note_off_c, 4, 59, 56
6, 272039, Note_on_c, 4, 58, 108
6, 272141, Note_off_c, 4, 58, 56
6, 272162, Note_on_c, 4, 57, 108
6, 273026, Note_off_c, 4, 57, 64
6, 273123, Note_on_c, 4, 55, 108
6, 273987, Note_off_c, 4, 55, 64
6, 274081, Note_on_c, 4, 57, 108
6, 274945, Note_off_c, 4, 57, 64
6, 275037, Note_on_c, 4, 55, 108
6, 275901, Note_off_c, 4, 55, 64
6, 276003, Note_on_c, 4, 57, 108
6, 276867, Note_off_c, 4, 57, 64
6, 276957, Note_on_c, 4, 55, 108
6, 277605, Note_off_c, 4, 55, 64
6, 277680, Note_on_c, 4, 55, 108
6, 277885, Note_off_c, 4, 55, 64
6, 277918, Note_on_c, 4, 53, 108
6, 278350, Note_off_c, 4, 53, 64
6, 278400, Note_on_c, 4, 52, 108
6, 278832, Note_off_c, 4, 52, 64
6, 278878, Note_on_c, 4, 50, 108
6, 279083, Note_off_c, 4, 50, 64
6, 279119, Note_on_c, 4, 50, 108
6, 279551, Note_off_c, 4, 50, 64
6, 279598, Note_on_c, 4, 52, 108
6, 279751, Note_off_c, 4, 52, 64
6, 279781, Note_on_c, 4, 52, 108
6, 279832, Note_off_c, 4, 52, 56
6, 279843, Note_on_c, 4, 53, 108
6, 280275, Note_off_c, 4, 53, 64
6, 280319, Note_on_c, 4, 52, 108
6, 280751, Note_off_c, 4, 52, 64
6, 280800, Note_on_c, 4, 50, 108
6, 281005, Note_off_c, 4, 50, 64
6, 281040, Note_on_c, 4, 50, 108
6, 281472, Note_off_c, 4, 50, 64
6, 281518, Note_on_c, 4, 52, 108
6, 281671, Note_off_c, 4, 52, 64
6, 281699, Note_on_c, 4, 52, 108
6, 281750, Note_off_c, 4, 52, 56
6, 281760, Note_on_c, 4, 53, 108
6, 281828, Note_off_c, 4, 53, 56
6, 281940, Note_on_c, 4, 53, 108
6, 281974, Note_off_c, 4, 53, 56
6, 282000, Note_on_c, 4, 53, 108
6, 282068, Note_off_c, 4, 53, 56
6, 282180, Note_on_c, 4, 53, 108
6, 282214, Note_off_c, 4, 53, 56
6, 282240, Note_on_c, 4, 52, 108
6, 282308, Note_off_c, 4, 52, 56
6, 282420, Note_on_c, 4, 52, 108
6, 282454, Note_off_c, 4, 52, 56
6, 282480, Note_on_c, 4, 52, 108
6, 282548, Note_off_c, 4, 52, 56
6, 282660, Note_on_c, 4, 52, 108
6, 282694, Note_off_c, 4, 52, 56
6, 282718, Note_on_c, 4, 50, 108
6, 282923, Note_off_c, 4, 50, 64
6, 282958, Note_on_c, 4, 59, 108
6, 283163, Note_off_c, 4, 59, 64
6, 283199, Note_on_c, 4, 64, 108
6, 283404, Note_off_c, 4, 64, 64
6, 283439, Note_on_c, 4, 64, 108
6, 283644, Note_off_c, 4, 64, 64
6, 283683, Note_on_c, 4, 62, 108
6, 283888, Note_off_c, 4, 62, 64
6, 283923, Note_on_c, 4, 59, 108
6, 284128, Note_off_c, 4, 59, 64
6, 284160, Note_on_c, 4, 64, 108
6, 284365, Note_off_c, 4, 64, 64
6, 284403, Note_on_c, 4, 64, 108
6, 284608, Note_off_c, 4, 64, 64
6, 284640, Note_on_c, 4, 62, 108
6, 284742, Note_off_c, 4, 62, 56
6, 284820, Note_on_c, 4, 60, 108
6, 284871, Note_off_c, 4, 60, 56
6, 284880, Note_on_c, 4, 64, 108
6, 285085, Note_off_c, 4, 64, 64
6, 285121, Note_on_c, 4, 62, 108
6, 285223, Note_off_c, 4, 62, 56
6, 285299, Note_on_c, 4, 60, 108
6, 285350, Note_off_c, 4, 60, 56
6, 285357, Note_on_c, 4, 64, 108
6, 285562, Note_off_c, 4, 64, 64
6, 285601, Note_on_c, 4, 62, 108
6, 285703, Note_off_c, 4, 62, 56
6, 285781, Note_on_c, 4, 60, 108
6, 285832, Note_off_c, 4, 60, 56
6, 285839, Note_on_c, 4, 64, 108
6, 286044, Note_off_c, 4, 64, 64
6, 286079, Note_on_c, 4, 62, 108
6, 286181, Note_off_c, 4, 62, 56
6, 286259, Note_on_c, 4, 60, 108
6, 286310, Note_off_c, 4, 60, 56
6, 286317, Note_on_c, 4, 64, 108
6, 286522, Note_off_c, 4, 64, 64
6, 286562, Note_on_c, 4, 62, 108
6, 286664, Note_off_c, 4, 62, 56
6, 287159, Note_on_c, 4, 64, 108
6, 287267, Note_off_c, 4, 64, 56
6, 287281, Note_on_c, 4, 62, 108
6, 287383, Note_off_c, 4, 62, 56
6, 287401, Note_on_c, 4, 60, 108
6, 287469, Note_off_c, 4, 60, 56
6, 287521, Note_on_c, 4, 59, 108
6, 287589, Note_off_c, 4, 59, 56
6, 287638, Note_on_c, 4, 64, 108
6, 287746, Note_off_c, 4, 64, 56
6, 287760, Note_on_c, 4, 62, 108
6, 287862, Note_off_c, 4, 62, 56
6, 287880, Note_on_c, 4, 60, 108
6, 287948, Note_off_c, 4, 60, 56
6, 288001, Note_on_c, 4, 59, 108
6, 288069, Note_off_c, 4, 59, 56
6, 288122, Note_on_c, 4, 60, 108
6, 288230, Note_off_c, 4, 60, 56
6, 288239, Note_on_c, 4, 59, 108
6, 288341, Note_off_c, 4, 59, 56
6, 288361, Note_on_c, 4, 57, 108
6, 288429, Note_off_c, 4, 57, 56
6, 288480, Note_on_c, 4, 55, 108
6, 288548, Note_off_c, 4, 55, 56
6, 288599, Note_on_c, 4, 60, 108
6, 288707, Note_off_c, 4, 60, 56
6, 288721, Note_on_c, 4, 59, 108
6, 288823, Note_off_c, 4, 59, 56
6, 288841, Note_on_c, 4, 57, 108
6, 288909, Note_off_c, 4, 57, 56
6, 288959, Note_on_c, 4, 55, 108
6, 289027, Note_off_c, 4, 55, 56
6, 289082, Note_on_c, 4, 60, 108
6, 289190, Note_off_c, 4, 60, 56
6, 289201, Note_on_c, 4, 59, 108
6, 289303, Note_off_c, 4, 59, 56
6, 289319, Note_on_c, 4, 57, 108
6, 289387, Note_off_c, 4, 57, 56
6, 289441, Note_on_c, 4, 55, 108
6, 289509, Note_off_c, 4, 55, 56
6, 289558, Note_on_c, 4, 60, 108
6, 289666, Note_off_c, 4, 60, 56
6, 289680, Note_on_c, 4, 59, 108
6, 289782, Note_off_c, 4, 59, 56
6, 289801, Note_on_c, 4, 57, 108
6, 289869, Note_off_c, 4, 57, 56
6, 289919, Note_on_c, 4, 55, 108
6, 289987, Note_off_c, 4, 55, 56
6, 290039, Note_on_c, 4, 53, 108
6, 290107, Note_off_c, 4, 53, 56
6, 290160, Note_on_c, 4, 52, 108
6, 290228, Note_off_c, 4, 52, 56
6, 290281, Note_on_c, 4, 50, 108
6, 290349, Note_off_c, 4, 50, 56
6, 290397, Note_on_c, 4, 60, 108
6, 291045, Note_off_c, 4, 60, 64
6, 291121, Note_on_c, 4, 55, 108
6, 291337, Note_off_c, 4, 55, 64
6, 291359, Note_on_c, 4, 64, 108
6, 292043, Note_off_c, 4, 64, 64
6, 292083, Note_on_c, 4, 62, 108
6, 292245, Note_off_c, 4, 62, 64
6, 292260, Note_on_c, 4, 60, 108
6, 292311, Note_off_c, 4, 60, 56
6, 292321, Note_on_c, 4, 59, 108
6, 292526, Note_off_c, 4, 59, 64
6, 294238, Note_on_c, 4, 62, 108
6, 294886, Note_off_c, 4, 62, 64
6, 294957, Note_on_c, 4, 55, 108
6, 295173, Note_off_c, 4, 55, 64
6, 295200, Note_on_c, 4, 65, 108
6, 295884, Note_off_c, 4, 65, 64
6, 295922, Note_on_c, 4, 64, 108
6, 296084, Note_off_c, 4, 64, 64
6, 296099, Note_on_c, 4, 62, 108
6, 296150, Note_off_c, 4, 62, 56
6, 296159, Note_on_c, 4, 60, 108
6, 297983, Note_off_c, 4, 60, 64
6, 298081, Note_on_c, 4, 60, 108
6, 298286, Note_off_c, 4, 60, 64
6, 299038, Note_on_c, 4, 60, 108
6, 299243, Note_off_c, 4, 60, 64
6, 300002, Note_on_c, 4, 60, 108
6, 300207, Note_off_c, 4, 60, 64
6, 300962, Note_on_c, 4, 60, 108
6, 301167, Note_off_c, 4, 60, 64
6, 301918, Note_on_c, 4, 59, 108
6, 302782, Note_off_c, 4, 59, 64
6, 302877, Note_on_c, 4, 59, 108
6, 303309, Note_off_c, 4, 59, 64
6, 303363, Note_on_c, 4, 59, 108
6, 303579, Note_off_c, 4, 59, 64
6, 303600, Note_on_c, 4, 60, 108
6, 303762, Note_off_c, 4, 60, 64
6, 303781, Note_on_c, 4, 62, 108
6, 303832, Note_off_c, 4, 62, 56
6, 303838, Note_on_c, 4, 60, 108
6, 304702, Note_off_c, 4, 60, 64
6, 304802, Note_on_c, 4, 60, 108
6, 305234, Note_off_c, 4, 60, 64
6, 305278, Note_on_c, 4, 60, 108
6, 305494, Note_off_c, 4, 60, 64
6, 305518, Note_on_c, 4, 62, 108
6, 305680, Note_off_c, 4, 62, 64
6, 305699, Note_on_c, 4, 64, 108
6, 305750, Note_off_c, 4, 64, 56
6, 305757, Note_on_c, 4, 62, 108
6, 306189, Note_off_c, 4, 62, 64
6, 306240, Note_on_c, 4, 59, 108
6, 306582, Note_off_c, 4, 59, 64
6, 306601, Note_on_c, 4, 60, 108
6, 306655, Note_off_c, 4, 60, 56
6, 306659, Note_on_c, 4, 62, 108
6, 306710, Note_off_c, 4, 62, 56
6, 306722, Note_on_c, 4, 60, 108
6, 307154, Note_off_c, 4, 60, 64
6, 307198, Note_on_c, 4, 60, 108
6, 307540, Note_off_c, 4, 60, 64
6, 307559, Note_on_c, 4, 62, 108
6, 307613, Note_off_c, 4, 62, 56
6, 307619, Note_on_c, 4, 64, 108
6, 307670, Note_off_c, 4, 64, 56
6, 307680, Note_on_c, 4, 59, 108
6, 307680, Note_on_c, 4, 62, 108
6, 307782, Note_off_c, 4, 62, 56
6, 307782, Note_off_c, 4, 59, 56
6, 307799, Note_on_c, 4, 67, 108
6, 307907, Note_off_c, 4, 67, 56
6, 307919, Note_on_c, 4, 65, 108
6, 308021, Note_off_c, 4, 65, 56
6, 308040, Note_on_c, 4, 64, 108
6, 308108, Note_off_c, 4, 64, 56
6, 308159, Note_on_c, 4, 62, 108
6, 308227, Note_off_c, 4, 62, 56
6, 308282, Note_on_c, 4, 64, 108
6, 308390, Note_off_c, 4, 64, 56
6, 308401, Note_on_c, 4, 62, 108
6, 308503, Note_off_c, 4, 62, 56
6, 308520, Note_on_c, 4, 60, 108
6, 308588, Note_off_c, 4, 60, 56
6, 308641, Note_on_c, 4, 59, 108
6, 308709, Note_off_c, 4, 59, 56
6, 308761, Note_on_c, 4, 60, 108
6, 308869, Note_off_c, 4, 60, 56
6, 308881, Note_on_c, 4, 59, 108
6, 308983, Note_off_c, 4, 59, 56
6, 309000, Note_on_c, 4, 57, 108
6, 309068, Note_off_c, 4, 57, 56
6, 309121, Note_on_c, 4, 55, 108
6, 309189, Note_off_c, 4, 55, 56
6, 309240, Note_on_c, 4, 55, 108
6, 309348, Note_off_c, 4, 55, 56
6, 309362, Note_on_c, 4, 57, 108
6, 309464, Note_off_c, 4, 57, 56
6, 309479, Note_on_c, 4, 50, 108
6, 309547, Note_off_c, 4, 50, 56
6, 309601, Note_on_c, 4, 55, 108
6, 309806, Note_off_c, 4, 55, 64
6, 311520, Note_on_c, 4, 55, 108
6, 311656, Note_off_c, 4, 55, 64
6, 312002, Note_on_c, 4, 57, 108
6, 312138, Note_off_c, 4, 57, 64
6, 312481, Note_on_c, 4, 55, 108
6, 313129, Note_off_c, 4, 55, 64
6, 315120, Note_on_c, 4, 50, 90
6, 315188, Note_off_c, 4, 50, 56
6, 315200, Note_on_c, 4, 52, 90
6, 315260, Note_off_c, 4, 52, 56
6, 315280, Note_on_c, 4, 53, 90
6, 315340, Note_off_c, 4, 53, 56
6, 315360, Note_on_c, 4, 55, 90
6, 315565, Note_off_c, 4, 55, 64
6, 315600, Note_on_c, 4, 52, 90
6, 315660, Note_off_c, 4, 52, 56
6, 315679, Note_on_c, 4, 53, 90
6, 315739, Note_off_c, 4, 53, 56
6, 315761, Note_on_c, 4, 55, 90
6, 315821, Note_off_c, 4, 55, 56
6, 315838, Note_on_c, 4, 57, 90
6, 316043, Note_off_c, 4, 57, 64
6, 316079, Note_on_c, 4, 57, 90
6, 316139, Note_off_c, 4, 57, 56
6, 316160, Note_on_c, 4, 59, 90
6, 316220, Note_off_c, 4, 59, 56
6, 316240, Note_on_c, 4, 60, 90
6, 316300, Note_off_c, 4, 60, 56
6, 316323, Note_on_c, 4, 55, 90
6, 316971, Note_off_c, 4, 55, 64
6, 318002, Note_on_c, 4, 67, 73
6, 318218, Note_off_c, 4, 67, 64
6, 318238, Note_on_c, 4, 65, 73
6, 318694, Note_off_c, 4, 65, 64
6, 318720, Note_on_c, 4, 64, 73
6, 318925, Note_off_c, 4, 64, 64
6, 319919, Note_on_c, 4, 69, 73
6, 320135, Note_off_c, 4, 69, 64
6, 320160, Note_on_c, 4, 67, 73
6, 320616, Note_off_c, 4, 67, 64
6, 320640, Note_on_c, 4, 65, 73
6, 320845, Note_off_c, 4, 65, 64
6, 320879, Note_on_c, 4, 48, 73
6, 320939, Note_off_c, 4, 48, 56
6, 320960, Note_on_c, 4, 52, 73
6, 321020, Note_off_c, 4, 52, 56
6, 321040, Note_on_c, 4, 53, 73
6, 321100, Note_off_c, 4, 53, 56
6, 321121, Note_on_c, 4, 55, 73
6, 321326, Note_off_c, 4, 55, 64
6, 321359, Note_on_c, 4, 48, 73
6, 321419, Note_off_c, 4, 48, 56
6, 321439, Note_on_c, 4, 53, 73
6, 321499, Note_off_c, 4, 53, 56
6, 321519, Note_on_c, 4, 55, 73
6, 321579, Note_off_c, 4, 55, 56
6, 321601, Note_on_c, 4, 57, 73
6, 321806, Note_off_c, 4, 57, 64
6, 321840, Note_on_c, 4, 48, 73
6, 321900, Note_off_c, 4, 48, 56
6, 321921, Note_on_c, 4, 55, 73
6, 321981, Note_off_c, 4, 55, 56
6, 321999, Note_on_c, 4, 57, 73
6, 322059, Note_off_c, 4, 57, 56
6, 322082, Note_on_c, 4, 58, 74
6, 323906, Note_off_c, 4, 58, 64
6, 323999, Note_on_c, 4, 57, 108
6, 324587, Note_off_c, 4, 57, 64
6, 324601, Note_on_c, 4, 57, 108
6, 324703, Note_off_c, 4, 57, 56
6, 324719, Note_on_c, 4, 57, 108
6, 324821, Note_off_c, 4, 57, 56
6, 324840, Note_on_c, 4, 57, 108
6, 324942, Note_off_c, 4, 57, 56
6, 324962, Note_on_c, 4, 57, 108
6, 325064, Note_off_c, 4, 57, 56
6, 325082, Note_on_c, 4, 57, 108
6, 325184, Note_off_c, 4, 57, 56
6, 325199, Note_on_c, 4, 57, 108
6, 325301, Note_off_c, 4, 57, 56
6, 325319, Note_on_c, 4, 57, 108
6, 325421, Note_off_c, 4, 57, 56
6, 325442, Note_on_c, 4, 57, 108
6, 325544, Note_off_c, 4, 57, 56
6, 325562, Note_on_c, 4, 57, 108
6, 325664, Note_off_c, 4, 57, 56
6, 325679, Note_on_c, 4, 57, 108
6, 325781, Note_off_c, 4, 57, 56
6, 325802, Note_on_c, 4, 57, 108
6, 325904, Note_off_c, 4, 57, 56
6, 325923, Note_on_c, 4, 57, 108
6, 326128, Note_off_c, 4, 57, 64
6, 326158, Note_on_c, 4, 54, 108
6, 326363, Note_off_c, 4, 54, 64
6, 326403, Note_on_c, 4, 55, 108
6, 326608, Note_off_c, 4, 55, 64
6, 326638, Note_on_c, 4, 56, 108
6, 326843, Note_off_c, 4, 56, 64
6, 326879, Note_on_c, 4, 57, 108
6, 327084, Note_off_c, 4, 57, 64
6, 327120, Note_on_c, 4, 59, 108
6, 327325, Note_off_c, 4, 59, 64
6, 327361, Note_on_c, 4, 60, 108
6, 327463, Note_off_c, 4, 60, 56
6, 327478, Note_on_c, 4, 52, 108
6, 327580, Note_off_c, 4, 52, 56
6, 327598, Note_on_c, 4, 53, 108
6, 327700, Note_off_c, 4, 53, 56
6, 327720, Note_on_c, 4, 55, 108
6, 327822, Note_off_c, 4, 55, 56
6, 327838, Note_on_c, 4, 57, 108
6, 327974, Note_off_c, 4, 57, 64
6, 328802, Note_on_c, 4, 55, 108
6, 328938, Note_off_c, 4, 55, 64
6, 329763, Note_on_c, 4, 60, 73
6, 330447, Note_off_c, 4, 60, 64
6, 330480, Note_on_c, 4, 59, 73
6, 330696, Note_off_c, 4, 59, 64
6, 330721, Note_on_c, 4, 57, 73
6, 330937, Note_off_c, 4, 57, 64
6, 330962, Note_on_c, 4, 59, 73
6, 331167, Note_off_c, 4, 59, 64
6, 331201, Note_on_c, 4, 59, 73
6, 331406, Note_off_c, 4, 59, 64
6, 331442, Note_on_c, 4, 59, 73
6, 331647, Note_off_c, 4, 59, 64
6, 331678, Note_on_c, 4, 60, 73
6, 332362, Note_off_c, 4, 60, 64
6, 332399, Note_on_c, 4, 59, 73
6, 332615, Note_off_c, 4, 59, 64
6, 332642, Note_on_c, 4, 57, 73
6, 332858, Note_off_c, 4, 57, 64
6, 332880, Note_on_c, 4, 59, 73
6, 333085, Note_off_c, 4, 59, 64
6, 333117, Note_on_c, 4, 59, 73
6, 333322, Note_off_c, 4, 59, 64
6, 333358, Note_on_c, 4, 59, 73
6, 333563, Note_off_c, 4, 59, 64
6, 333600, Note_on_c, 4, 60, 73
6, 334056, Note_off_c, 4, 60, 64
6, 334077, Note_on_c, 4, 58, 73
6, 334545, Note_off_c, 4, 58, 64
6, 334558, Note_on_c, 4, 57, 73
6, 334774, Note_off_c, 4, 57, 64
6, 334802, Note_on_c, 4, 61, 73
6, 335007, Note_off_c, 4, 61, 64
6, 335042, Note_on_c, 4, 61, 73
6, 335247, Note_off_c, 4, 61, 64
6, 335280, Note_on_c, 4, 61, 73
6, 335485, Note_off_c, 4, 61, 64
6, 335520, Note_on_c, 4, 62, 73
6, 335952, Note_off_c, 4, 62, 64
6, 336420, Note_on_c, 4, 53, 73
6, 336471, Note_off_c, 4, 53, 56
6, 336481, Note_on_c, 4, 55, 73
6, 336913, Note_off_c, 4, 55, 64
6, 336957, Note_on_c, 4, 43, 73
6, 337389, Note_off_c, 4, 43, 64
6, 337437, Note_on_c, 4, 55, 90
6, 338085, Note_off_c, 4, 55, 64
6, 338163, Note_on_c, 4, 59, 90
6, 338368, Note_off_c, 4, 59, 64
6, 338401, Note_on_c, 4, 60, 90
6, 338606, Note_off_c, 4, 60, 64
6, 338642, Note_on_c, 4, 59, 90
6, 338847, Note_off_c, 4, 59, 64
6, 338880, Note_on_c, 4, 59, 90
6, 339085, Note_off_c, 4, 59, 64
6, 339123, Note_on_c, 4, 59, 90
6, 339328, Note_off_c, 4, 59, 64
6, 339363, Note_on_c, 4, 55, 96
6, 340011, Note_off_c, 4, 55, 64
6, 340078, Note_on_c, 4, 59, 90
6, 340283, Note_off_c, 4, 59, 64
6, 340318, Note_on_c, 4, 60, 90
6, 340523, Note_off_c, 4, 60, 64
6, 340558, Note_on_c, 4, 59, 90
6, 340763, Note_off_c, 4, 59, 64
6, 340801, Note_on_c, 4, 59, 90
6, 341006, Note_off_c, 4, 59, 64
6, 341037, Note_on_c, 4, 59, 90
6, 341242, Note_off_c, 4, 59, 64
6, 341277, Note_on_c, 4, 59, 96
6, 341925, Note_off_c, 4, 59, 64
6, 341997, Note_on_c, 4, 60, 96
6, 342202, Note_off_c, 4, 60, 64
6, 342242, Note_on_c, 4, 53, 97
6, 342447, Note_off_c, 4, 53, 64
6, 342481, Note_on_c, 4, 55, 98
6, 342686, Note_off_c, 4, 55, 64
6, 342720, Note_on_c, 4, 55, 100
6, 342925, Note_off_c, 4, 55, 64
6, 342958, Note_on_c, 4, 55, 100
6, 343163, Note_off_c, 4, 55, 64
6, 343198, Note_on_c, 4, 55, 101
6, 343403, Note_off_c, 4, 55, 64
6, 343440, Note_on_c, 4, 58, 102
6, 343645, Note_off_c, 4, 58, 64
6, 343682, Note_on_c, 4, 58, 103
6, 343887, Note_off_c, 4, 58, 64
6, 343920, Note_on_c, 4, 58, 103
6, 344125, Note_off_c, 4, 58, 64
6, 344162, Note_on_c, 4, 58, 104
6, 344367, Note_off_c, 4, 58, 64
6, 344401, Note_on_c, 4, 61, 105
6, 344606, Note_off_c, 4, 61, 64
6, 344642, Note_on_c, 4, 61, 106
6, 344847, Note_off_c, 4, 61, 64
6, 344880, Note_on_c, 4, 61, 106
6, 345085, Note_off_c, 4, 61, 64
6, 345117, Note_on_c, 4, 61, 108
6, 345981, Note_off_c, 4, 61, 64
6, 346081, Note_on_c, 4, 62, 108
6, 346945, Note_off_c, 4, 62, 64
6, 347042, Note_on_c, 4, 62, 108
6, 347906, Note_off_c, 4, 62, 64
6, 348000, Note_on_c, 4, 63, 108
6, 349824, Note_off_c, 4, 63, 64
6, 349918, Note_on_c, 4, 64, 96
6, 350566, Note_off_c, 4, 64, 64
6, 354960, Note_on_c, 4, 59, 90
6, 355032, Note_off_c, 4, 59, 56
6, 355040, Note_on_c, 4, 60, 90
6, 355112, Note_off_c, 4, 60, 56
6, 355120, Note_on_c, 4, 62, 90
6, 355192, Note_off_c, 4, 62, 56
6, 355439, Note_on_c, 4, 60, 90
6, 355511, Note_off_c, 4, 60, 56
6, 355519, Note_on_c, 4, 62, 90
6, 355591, Note_off_c, 4, 62, 56
6, 355599, Note_on_c, 4, 64, 90
6, 355671, Note_off_c, 4, 64, 56
6, 355921, Note_on_c, 4, 62, 90
6, 355993, Note_off_c, 4, 62, 56
6, 355999, Note_on_c, 4, 64, 90
6, 356071, Note_off_c, 4, 64, 56
6, 356081, Note_on_c, 4, 65, 90
6, 356153, Note_off_c, 4, 65, 56
6, 356880, Note_on_c, 4, 60, 90
6, 356952, Note_off_c, 4, 60, 56
6, 356961, Note_on_c, 4, 62, 90
6, 357033, Note_off_c, 4, 62, 56
6, 357040, Note_on_c, 4, 64, 90
6, 357112, Note_off_c, 4, 64, 56
6, 357360, Note_on_c, 4, 62, 90
6, 357432, Note_off_c, 4, 62, 56
6, 357441, Note_on_c, 4, 64, 90
6, 357513, Note_off_c, 4, 64, 56
6, 357519, Note_on_c, 4, 65, 90
6, 357591, Note_off_c, 4, 65, 56
6, 357841, Note_on_c, 4, 64, 90
6, 357913, Note_off_c, 4, 64, 56
6, 357920, Note_on_c, 4, 65, 90
6, 357992, Note_off_c, 4, 65, 56
6, 358000, Note_on_c, 4, 67, 90
6, 358072, Note_off_c, 4, 67, 56
6, 358319, Note_on_c, 4, 48, 96
6, 358524, Note_off_c, 4, 48, 64
6, 358560, Note_on_c, 4, 43, 97
6, 358992, Note_off_c, 4, 43, 64
6, 359043, Note_on_c, 4, 48, 98
6, 359475, Note_off_c, 4, 48, 64
6, 359523, Note_on_c, 4, 50, 101
6, 360171, Note_off_c, 4, 50, 64
6, 360242, Note_on_c, 4, 50, 103
6, 360447, Note_off_c, 4, 50, 64
6, 360482, Note_on_c, 4, 49, 104
6, 360914, Note_off_c, 4, 49, 64
6, 360961, Note_on_c, 4, 50, 106
6, 361393, Note_off_c, 4, 50, 64
6, 361442, Note_on_c, 4, 61, 108
6, 362306, Note_off_c, 4, 61, 64
6, 362400, Note_on_c, 4, 60, 108
6, 363264, Note_off_c, 4, 60, 64
6, 363363, Note_on_c, 4, 57, 108
6, 363951, Note_off_c, 4, 57, 64
6, 363958, Note_on_c, 4, 57, 108
6, 364060, Note_off_c, 4, 57, 56
6, 364080, Note_on_c, 4, 57, 108
6, 364182, Note_off_c, 4, 57, 56
6, 364202, Note_on_c, 4, 57, 108
6, 364304, Note_off_c, 4, 57, 56
6, 364317, Note_on_c, 4, 57, 108
6, 364905, Note_off_c, 4, 57, 64
6, 364922, Note_on_c, 4, 57, 108
6, 365024, Note_off_c, 4, 57, 56
6, 365039, Note_on_c, 4, 57, 108
6, 365141, Note_off_c, 4, 57, 56
6, 365160, Note_on_c, 4, 57, 108
6, 365262, Note_off_c, 4, 57, 56
6, 365278, Note_on_c, 4, 57, 108
6, 365483, Note_off_c, 4, 57, 64
6, 365519, Note_on_c, 4, 57, 108
6, 365621, Note_off_c, 4, 57, 56
6, 365638, Note_on_c, 4, 57, 108
6, 365740, Note_off_c, 4, 57, 56
6, 365761, Note_on_c, 4, 57, 108
6, 365863, Note_off_c, 4, 57, 56
6, 365881, Note_on_c, 4, 57, 108
6, 365983, Note_off_c, 4, 57, 56
6, 365998, Note_on_c, 4, 57, 108
6, 366100, Note_off_c, 4, 57, 56
6, 366120, Note_on_c, 4, 57, 108
6, 366222, Note_off_c, 4, 57, 56
6, 366239, Note_on_c, 4, 57, 108
6, 366341, Note_off_c, 4, 57, 56
6, 366361, Note_on_c, 4, 57, 108
6, 366463, Note_off_c, 4, 57, 56
6, 366482, Note_on_c, 4, 57, 108
6, 366584, Note_off_c, 4, 57, 56
6, 366600, Note_on_c, 4, 57, 108
6, 366702, Note_off_c, 4, 57, 56
6, 366718, Note_on_c, 4, 57, 108
6, 366820, Note_off_c, 4, 57, 56
6, 366838, Note_on_c, 4, 57, 108
6, 366940, Note_off_c, 4, 57, 56
6, 366962, Note_on_c, 4, 57, 108
6, 367064, Note_off_c, 4, 57, 56
6, 367080, Note_on_c, 4, 57, 108
6, 367182, Note_off_c, 4, 57, 56
6, 367200, Note_on_c, 4, 59, 108
6, 367336, Note_off_c, 4, 59, 64
6, 368159, Note_on_c, 4, 62, 108
6, 368295, Note_off_c, 4, 62, 64
6, 369118, Note_on_c, 4, 64, 108
6, 369254, Note_off_c, 4, 64, 64
6, 370081, Note_on_c, 4, 62, 108
6, 370217, Note_off_c, 4, 62, 64
6, 371038, Note_on_c, 4, 64, 108
6, 371174, Note_off_c, 4, 64, 64
6, 372000, Note_on_c, 4, 62, 108
6, 372136, Note_off_c, 4, 62, 64
6, 372718, Note_on_c, 4, 43, 108
6, 372934, Note_off_c, 4, 43, 64
6, 372958, Note_on_c, 4, 48, 108
6, 373174, Note_off_c, 4, 48, 64
6, 373202, Note_on_c, 4, 43, 108
6, 373418, Note_off_c, 4, 43, 64
6, 373438, Note_on_c, 4, 52, 108
6, 373654, Note_off_c, 4, 52, 64
6, 373678, Note_on_c, 4, 50, 108
6, 373840, Note_off_c, 4, 50, 64
6, 373861, Note_on_c, 4, 48, 108
6, 373912, Note_off_c, 4, 48, 56
6, 373921, Note_on_c, 4, 55, 108
6, 374569, Note_off_c, 4, 55, 64
6, 378482, Note_on_c, 4, 55, 75
6, 378698, Note_off_c, 4, 55, 64
6, 378722, Note_on_c, 4, 59, 77
6, 378938, Note_off_c, 4, 59, 64
6, 378959, Note_on_c, 4, 55, 78
6, 379175, Note_off_c, 4, 55, 64
6, 379200, Note_on_c, 4, 62, 79
6, 379416, Note_off_c, 4, 62, 64
6, 379442, Note_on_c, 4, 60, 80
6, 379604, Note_off_c, 4, 60, 64
6, 379621, Note_on_c, 4, 59, 80
6, 379672, Note_off_c, 4, 59, 56
6, 379682, Note_on_c, 4, 60, 81
6, 379898, Note_off_c, 4, 60, 64
6, 379920, Note_on_c, 4, 55, 82
6, 380136, Note_off_c, 4, 55, 64
6, 380161, Note_on_c, 4, 64, 83
6, 380377, Note_off_c, 4, 64, 64
6, 380401, Note_on_c, 4, 62, 85
6, 380563, Note_off_c, 4, 62, 64
6, 380580, Note_on_c, 4, 60, 85
6, 380631, Note_off_c, 4, 60, 56
6, 380639, Note_on_c, 4, 59, 86
6, 380855, Note_off_c, 4, 59, 64
6, 380879, Note_on_c, 4, 55, 87
6, 381095, Note_off_c, 4, 55, 64
6, 381122, Note_on_c, 4, 62, 88
6, 381338, Note_off_c, 4, 62, 64
6, 381360, Note_on_c, 4, 60, 89
6, 381522, Note_off_c, 4, 60, 64
6, 381540, Note_on_c, 4, 59, 90
6, 381591, Note_off_c, 4, 59, 56
6, 381597, Note_on_c, 4, 60, 90
6, 381813, Note_off_c, 4, 60, 64
6, 381842, Note_on_c, 4, 65, 90
6, 382058, Note_off_c, 4, 65, 64
6, 382078, Note_on_c, 4, 64, 90
6, 382294, Note_off_c, 4, 64, 64
6, 382318, Note_on_c, 4, 62, 90
6, 382534, Note_off_c, 4, 62, 64
6, 382558, Note_on_c, 4, 60, 90
6, 382774, Note_off_c, 4, 60, 64
6, 382799, Note_on_c, 4, 60, 90
6, 383015, Note_off_c, 4, 60, 64
6, 383037, Note_on_c, 4, 57, 90
6, 383253, Note_off_c, 4, 57, 64
6, 383278, Note_on_c, 4, 64, 90
6, 383483, Note_off_c, 4, 64, 64
6, 383523, Note_on_c, 4, 62, 90
6, 384171, Note_off_c, 4, 62, 64
6, 384240, Note_on_c, 4, 64, 90
6, 384376, Note_off_c, 4, 64, 64
6, 384477, Note_on_c, 4, 65, 90
6, 385125, Note_off_c, 4, 65, 64
6, 385201, Note_on_c, 4, 63, 90
6, 385337, Note_off_c, 4, 63, 64
6, 385442, Note_on_c, 4, 62, 90
6, 386090, Note_off_c, 4, 62, 64
6, 386158, Note_on_c, 4, 64, 90
6, 386294, Note_off_c, 4, 64, 64
6, 386402, Note_on_c, 4, 65, 90
6, 387050, Note_off_c, 4, 65, 64
6, 387121, Note_on_c, 4, 66, 90
6, 387257, Note_off_c, 4, 66, 64
6, 387363, Note_on_c, 4, 67, 90
6, 387568, Note_off_c, 4, 67, 64
6, 387843, Note_on_c, 4, 52, 73
6, 388048, Note_off_c, 4, 52, 64
6, 388320, Note_on_c, 4, 53, 73
6, 388525, Note_off_c, 4, 53, 64
6, 388797, Note_on_c, 4, 50, 73
6, 389002, Note_off_c, 4, 50, 64
6, 395277, Note_on_c, 4, 62, 74
6, 395482, Note_off_c, 4, 62, 64
6, 395760, Note_on_c, 4, 62, 78
6, 395965, Note_off_c, 4, 62, 64
6, 396237, Note_on_c, 4, 64, 80
6, 396442, Note_off_c, 4, 64, 64
6, 396718, Note_on_c, 4, 64, 83
6, 396923, Note_off_c, 4, 64, 64
6, 397200, Note_on_c, 4, 62, 86
6, 397405, Note_off_c, 4, 62, 64
6, 397680, Note_on_c, 4, 62, 89
6, 397885, Note_off_c, 4, 62, 64
6, 397920, Note_on_c, 4, 64, 90
6, 398136, Note_off_c, 4, 64, 64
6, 398159, Note_on_c, 4, 65, 90
6, 398375, Note_off_c, 4, 65, 64
6, 398399, Note_on_c, 4, 64, 90
6, 398615, Note_off_c, 4, 64, 64
6, 398642, Note_on_c, 4, 62, 90
6, 398858, Note_off_c, 4, 62, 64
6, 398878, Note_on_c, 4, 60, 90
6, 399094, Note_off_c, 4, 60, 64
6, 399118, Note_on_c, 4, 60, 90
6, 399334, Note_off_c, 4, 60, 64
6, 399359, Note_on_c, 4, 57, 90
6, 399575, Note_off_c, 4, 57, 64
6, 399603, Note_on_c, 4, 55, 90
6, 399808, Note_off_c, 4, 55, 64
6, 399839, Note_on_c, 4, 62, 90
6, 400487, Note_off_c, 4, 62, 64
6, 400558, Note_on_c, 4, 64, 90
6, 400694, Note_off_c, 4, 64, 64
6, 400803, Note_on_c, 4, 65, 90
6, 401451, Note_off_c, 4, 65, 64
6, 401520, Note_on_c, 4, 63, 90
6, 401656, Note_off_c, 4, 63, 64
6, 401757, Note_on_c, 4, 62, 90
6, 402405, Note_off_c, 4, 62, 64
6, 402480, Note_on_c, 4, 63, 90
6, 402616, Note_off_c, 4, 63, 64
6, 402720, Note_on_c, 4, 65, 90
6, 403368, Note_off_c, 4, 65, 64
6, 403441, Note_on_c, 4, 63, 90
6, 403577, Note_off_c, 4, 63, 64
6, 403680, Note_on_c, 4, 64, 73
6, 403782, Note_off_c, 4, 64, 56
6, 403798, Note_on_c, 4, 60, 73
6, 403900, Note_off_c, 4, 60, 56
6, 403922, Note_on_c, 4, 60, 73
6, 404024, Note_off_c, 4, 60, 56
6, 404039, Note_on_c, 4, 60, 73
6, 404141, Note_off_c, 4, 60, 56
6, 404279, Note_on_c, 4, 60, 74
6, 404381, Note_off_c, 4, 60, 56
6, 404401, Note_on_c, 4, 60, 74
6, 404503, Note_off_c, 4, 60, 56
6, 404522, Note_on_c, 4, 60, 74
6, 404624, Note_off_c, 4, 60, 56
6, 404758, Note_on_c, 4, 60, 74
6, 404860, Note_off_c, 4, 60, 56
6, 404881, Note_on_c, 4, 60, 75
6, 404983, Note_off_c, 4, 60, 56
6, 405000, Note_on_c, 4, 60, 75
6, 405102, Note_off_c, 4, 60, 56
6, 405240, Note_on_c, 4, 60, 75
6, 405342, Note_off_c, 4, 60, 56
6, 405362, Note_on_c, 4, 60, 75
6, 405464, Note_off_c, 4, 60, 56
6, 405479, Note_on_c, 4, 60, 75
6, 405581, Note_off_c, 4, 60, 56
6, 405720, Note_on_c, 4, 59, 77
6, 405822, Note_off_c, 4, 59, 56
6, 405838, Note_on_c, 4, 59, 77
6, 405940, Note_off_c, 4, 59, 56
6, 405959, Note_on_c, 4, 59, 77
6, 406061, Note_off_c, 4, 59, 56
6, 406201, Note_on_c, 4, 60, 77
6, 406303, Note_off_c, 4, 60, 56
6, 406319, Note_on_c, 4, 60, 77
6, 406421, Note_off_c, 4, 60, 56
6, 406441, Note_on_c, 4, 60, 78
6, 406543, Note_off_c, 4, 60, 56
6, 406801, Note_on_c, 4, 59, 78
6, 407006, Note_off_c, 4, 59, 64
6, 407280, Note_on_c, 4, 60, 79
6, 407485, Note_off_c, 4, 60, 64
6, 407762, Note_on_c, 4, 60, 79
6, 407967, Note_off_c, 4, 60, 64
6, 408241, Note_on_c, 4, 60, 80
6, 408446, Note_off_c, 4, 60, 64
6, 408717, Note_on_c, 4, 60, 81
6, 408922, Note_off_c, 4, 60, 64
6, 409197, Note_on_c, 4, 60, 81
6, 409402, Note_off_c, 4, 60, 64
6, 409679, Note_on_c, 4, 59, 82
6, 409884, Note_off_c, 4, 59, 64
6, 410162, Note_on_c, 4, 60, 82
6, 410367, Note_off_c, 4, 60, 64
6, 410641, Note_on_c, 4, 59, 83
6, 410846, Note_off_c, 4, 59, 64
6, 411120, Note_on_c, 4, 64, 85
6, 411325, Note_off_c, 4, 64, 64
6, 411598, Note_on_c, 4, 64, 85
6, 411803, Note_off_c, 4, 64, 64
6, 412079, Note_on_c, 4, 64, 86
6, 412284, Note_off_c, 4, 64, 64
6, 412563, Note_on_c, 4, 60, 87
6, 412768, Note_off_c, 4, 60, 64
6, 413038, Note_on_c, 4, 60, 87
6, 413243, Note_off_c, 4, 60, 64
6, 413517, Note_on_c, 4, 59, 88
6, 413722, Note_off_c, 4, 59, 64
6, 414002, Note_on_c, 4, 60, 88
6, 414207, Note_off_c, 4, 60, 64
6, 414480, Note_on_c, 4, 60, 89
6, 414685, Note_off_c, 4, 60, 64
6, 414959, Note_on_c, 4, 59, 90
6, 415164, Note_off_c, 4, 59, 64
6, 415199, Note_on_c, 4, 48, 90
6, 415319, Note_off_c, 4, 48, 56
6, 419043, Note_on_c, 4, 60, 73
6, 419331, Note_off_c, 4, 60, 64
6, 419401, Note_on_c, 4, 59, 73
6, 419497, Note_off_c, 4, 59, 56
6, 419519, Note_on_c, 4, 57, 73
6, 419615, Note_off_c, 4, 57, 56
6, 419640, Note_on_c, 4, 55, 73
6, 419736, Note_off_c, 4, 55, 56
6, 419761, Note_on_c, 4, 55, 73
6, 419857, Note_off_c, 4, 55, 56
6, 419878, Note_on_c, 4, 55, 73
6, 419974, Note_off_c, 4, 55, 56
6, 420000, Note_on_c, 4, 60, 73
6, 420288, Note_off_c, 4, 60, 65
6, 420359, Note_on_c, 4, 59, 73
6, 420455, Note_off_c, 4, 59, 56
6, 420478, Note_on_c, 4, 57, 73
6, 420574, Note_off_c, 4, 57, 56
6, 420602, Note_on_c, 4, 55, 73
6, 420698, Note_off_c, 4, 55, 56
6, 420721, Note_on_c, 4, 55, 73
6, 420817, Note_off_c, 4, 55, 56
6, 420842, Note_on_c, 4, 55, 73
6, 420938, Note_off_c, 4, 55, 56
6, 420961, Note_on_c, 4, 60, 73
6, 420961, Note_on_c, 4, 64, 73
6, 421249, Note_off_c, 4, 64, 65
6, 421249, Note_off_c, 4, 60, 65
6, 421319, Note_on_c, 4, 59, 73
6, 421320, Note_on_c, 4, 62, 73
6, 421415, Note_off_c, 4, 59, 56
6, 421416, Note_off_c, 4, 62, 56
6, 421438, Note_on_c, 4, 57, 73
6, 421439, Note_on_c, 4, 60, 73
6, 421534, Note_off_c, 4, 57, 56
6, 421535, Note_off_c, 4, 60, 56
6, 421560, Note_on_c, 4, 59, 73
6, 421562, Note_on_c, 4, 55, 73
6, 421656, Note_off_c, 4, 59, 56
6, 421658, Note_off_c, 4, 55, 56
6, 421678, Note_on_c, 4, 59, 73
6, 421680, Note_on_c, 4, 55, 73
6, 421774, Note_off_c, 4, 59, 56
6, 421776, Note_off_c, 4, 55, 56
6, 421798, Note_on_c, 4, 55, 73
6, 421800, Note_on_c, 4, 59, 73
6, 421894, Note_off_c, 4, 55, 56
6, 421896, Note_off_c, 4, 59, 56
6, 421917, Note_on_c, 4, 60, 73
6, 421923, Note_on_c, 4, 64, 73
6, 422205, Note_off_c, 4, 60, 65
6, 422211, Note_off_c, 4, 64, 65
6, 422281, Note_on_c, 4, 62, 73
6, 422282, Note_on_c, 4, 59, 73
6, 422377, Note_off_c, 4, 62, 56
6, 422378, Note_off_c, 4, 59, 56
6, 422398, Note_on_c, 4, 57, 73
6, 422399, Note_on_c, 4, 60, 73
6, 422494, Note_off_c, 4, 57, 56
6, 422495, Note_off_c, 4, 60, 56
6, 422518, Note_on_c, 4, 55, 73
6, 422520, Note_on_c, 4, 59, 73
6, 422614, Note_off_c, 4, 55, 56
6, 422616, Note_off_c, 4, 59, 56
6, 422639, Note_on_c, 4, 59, 73
6, 422640, Note_on_c, 4, 55, 73
6, 422735, Note_off_c, 4, 59, 56
6, 422736, Note_off_c, 4, 55, 56
6, 422758, Note_on_c, 4, 55, 73
6, 422758, Note_on_c, 4, 59, 73
6, 422854, Note_off_c, 4, 59, 56
6, 422854, Note_off_c, 4, 55, 56
6, 422878, Note_on_c, 4, 64, 73
6, 422879, Note_on_c, 4, 60, 73
6, 422974, Note_off_c, 4, 64, 56
6, 422975, Note_off_c, 4, 60, 56
6, 423118, Note_on_c, 4, 67, 74
6, 423121, Note_on_c, 4, 58, 74
6, 423214, Note_off_c, 4, 67, 56
6, 423217, Note_off_c, 4, 58, 56
6, 423359, Note_on_c, 4, 58, 75
6, 423362, Note_on_c, 4, 67, 75
6, 423455, Note_off_c, 4, 58, 56
6, 423458, Note_off_c, 4, 67, 56
6, 423598, Note_on_c, 4, 57, 77
6, 423599, Note_on_c, 4, 65, 77
6, 423694, Note_off_c, 4, 57, 56
6, 423695, Note_off_c, 4, 65, 56
6, 423840, Note_on_c, 4, 65, 78
6, 423841, Note_on_c, 4, 59, 78
6, 423936, Note_off_c, 4, 65, 56
6, 423937, Note_off_c, 4, 59, 56
6, 424078, Note_on_c, 4, 60, 79
6, 424082, Note_on_c, 4, 64, 79
6, 424174, Note_off_c, 4, 60, 56
6, 424178, Note_off_c, 4, 64, 56
6, 424318, Note_on_c, 4, 59, 80
6, 424322, Note_on_c, 4, 62, 80
6, 424414, Note_off_c, 4, 59, 56
6, 424418, Note_off_c, 4, 62, 56
6, 424558, Note_on_c, 4, 58, 81
6, 424558, Note_on_c, 4, 67, 81
6, 424654, Note_off_c, 4, 67, 56
6, 424654, Note_off_c, 4, 58, 56
6, 424799, Note_on_c, 4, 58, 82
6, 424800, Note_on_c, 4, 67, 82
6, 424895, Note_off_c, 4, 58, 56
6, 424896, Note_off_c, 4, 67, 56
6, 425038, Note_on_c, 4, 67, 82
6, 425039, Note_on_c, 4, 58, 82
6, 425134, Note_off_c, 4, 67, 56
6, 425135, Note_off_c, 4, 58, 56
6, 425279, Note_on_c, 4, 67, 83
6, 425282, Note_on_c, 4, 56, 83
6, 425375, Note_off_c, 4, 67, 56
6, 425378, Note_off_c, 4, 56, 56
6, 425519, Note_on_c, 4, 65, 85
6, 425521, Note_on_c, 4, 56, 85
6, 425615, Note_off_c, 4, 65, 56
6, 425617, Note_off_c, 4, 56, 56
6, 425761, Note_on_c, 4, 59, 86
6, 425762, Note_on_c, 4, 65, 86
6, 425857, Note_off_c, 4, 59, 56
6, 425858, Note_off_c, 4, 65, 56
6, 426001, Note_on_c, 4, 60, 87
6, 426002, Note_on_c, 4, 64, 87
6, 426097, Note_off_c, 4, 60, 56
6, 426098, Note_off_c, 4, 64, 56
6, 426240, Note_on_c, 4, 59, 88
6, 426242, Note_on_c, 4, 62, 88
6, 426336, Note_off_c, 4, 59, 56
6, 426338, Note_off_c, 4, 62, 56
6, 426478, Note_on_c, 4, 58, 89
6, 426478, Note_on_c, 4, 67, 89
6, 426574, Note_off_c, 4, 67, 56
6, 426574, Note_off_c, 4, 58, 56
6, 426598, Note_on_c, 4, 58, 90
6, 426598, Note_on_c, 4, 67, 90
6, 426694, Note_off_c, 4, 67, 56
6, 426694, Note_off_c, 4, 58, 56
6, 426718, Note_on_c, 4, 67, 90
6, 426719, Note_on_c, 4, 58, 90
6, 426814, Note_off_c, 4, 67, 56
6, 426815, Note_off_c, 4, 58, 56
6, 426838, Note_on_c, 4, 67, 90
6, 426840, Note_on_c, 4, 58, 90
6, 426934, Note_off_c, 4, 67, 56
6, 426936, Note_off_c, 4, 58, 56
6, 426962, Note_on_c, 4, 67, 90
6, 426962, Note_on_c, 4, 58, 90
6, 427058, Note_off_c, 4, 58, 56
6, 427058, Note_off_c, 4, 67, 56
6, 427080, Note_on_c, 4, 58, 90
6, 427081, Note_on_c, 4, 67, 90
6, 427176, Note_off_c, 4, 58, 56
6, 427177, Note_off_c, 4, 67, 56
6, 427200, Note_on_c, 4, 56, 90
6, 427202, Note_on_c, 4, 67, 90
6, 427296, Note_off_c, 4, 56, 56
6, 427298, Note_off_c, 4, 67, 56
6, 427320, Note_on_c, 4, 56, 90
6, 427321, Note_on_c, 4, 67, 90
6, 427416, Note_off_c, 4, 56, 56
6, 427417, Note_off_c, 4, 67, 56
6, 427439, Note_on_c, 4, 56, 90
6, 427441, Note_on_c, 4, 65, 90
6, 427535, Note_off_c, 4, 56, 56
6, 427537, Note_off_c, 4, 65, 56
6, 427560, Note_on_c, 4, 65, 90
6, 427561, Note_on_c, 4, 56, 90
6, 427656, Note_off_c, 4, 65, 56
6, 427657, Note_off_c, 4, 56, 56
6, 427679, Note_on_c, 4, 55, 90
6, 427682, Note_on_c, 4, 65, 90
6, 427775, Note_off_c, 4, 55, 56
6, 427778, Note_off_c, 4, 65, 56
6, 427799, Note_on_c, 4, 65, 90
6, 427802, Note_on_c, 4, 55, 90
6, 427895, Note_off_c, 4, 65, 56
6, 427898, Note_off_c, 4, 55, 56
6, 427918, Note_on_c, 4, 55, 90
6, 427918, Note_on_c, 4, 64, 90
6, 428014, Note_off_c, 4, 64, 56
6, 428014, Note_off_c, 4, 55, 56
6, 428038, Note_on_c, 4, 64, 90
6, 428042, Note_on_c, 4, 55, 90
6, 428134, Note_off_c, 4, 64, 56
6, 428138, Note_off_c, 4, 55, 56
6, 428159, Note_on_c, 4, 55, 90
6, 428160, Note_on_c, 4, 62, 90
6, 428255, Note_off_c, 4, 55, 56
6, 428256, Note_off_c, 4, 62, 56
6, 428281, Note_on_c, 4, 55, 90
6, 428282, Note_on_c, 4, 62, 90
6, 428377, Note_off_c, 4, 55, 56
6, 428378, Note_off_c, 4, 62, 56
6, 428398, Note_on_c, 4, 55, 90
6, 428398, Note_on_c, 4, 62, 90
6, 428494, Note_off_c, 4, 62, 56
6, 428494, Note_off_c, 4, 55, 56
6, 428520, Note_on_c, 4, 62, 90
6, 428521, Note_on_c, 4, 55, 90
6, 428616, Note_off_c, 4, 62, 56
6, 428617, Note_off_c, 4, 55, 56
6, 428642, Note_on_c, 4, 48, 108
6, 428642, Note_on_c, 4, 60, 108
6, 428834, Note_off_c, 4, 60, 67
6, 428834, Note_off_c, 4, 48, 67
6, 428878, Note_on_c, 4, 64, 108
6, 428881, Note_on_c, 4, 52, 108
6, 429070, Note_off_c, 4, 64, 67
6, 429073, Note_off_c, 4, 52, 67
6, 429120, Note_on_c, 4, 55, 108
6, 429120, Note_on_c, 4, 67, 108
6, 429408, Note_off_c, 4, 67, 67
6, 429408, Note_off_c, 4, 55, 67
6, 429478, Note_on_c, 4, 53, 108
6, 429480, Note_on_c, 4, 65, 108
6, 429574, Note_off_c, 4, 53, 56
6, 429576, Note_off_c, 4, 65, 56
6, 429598, Note_on_c, 4, 52, 108
6, 429599, Note_on_c, 4, 64, 108
6, 429694, Note_off_c, 4, 52, 56
6, 429695, Note_off_c, 4, 64, 56
6, 429721, Note_on_c, 4, 50, 108
6, 429722, Note_on_c, 4, 62, 108
6, 429817, Note_off_c, 4, 50, 56
6, 429818, Note_off_c, 4, 62, 56
6, 429839, Note_on_c, 4, 48, 108
6, 429840, Note_on_c, 4, 60, 108
6, 429935, Note_off_c, 4, 48, 56
6, 429936, Note_off_c, 4, 60, 56
6, 429959, Note_on_c, 4, 50, 108
6, 429960, Note_on_c, 4, 62, 108
6, 430055, Note_off_c, 4, 50, 56
6, 430056, Note_off_c, 4, 62, 56
6, 430078, Note_on_c, 4, 64, 108
6, 430083, Note_on_c, 4, 52, 108
6, 430366, Note_off_c, 4, 64, 68
6, 430371, Note_off_c, 4, 52, 68
6, 430441, Note_on_c, 4, 52, 108
6, 430442, Note_on_c, 4, 64, 108
6, 430537, Note_off_c, 4, 52, 56
6, 430538, Note_off_c, 4, 64, 56
6, 430558, Note_on_c, 4, 64, 108
6, 430559, Note_on_c, 4, 52, 108
6, 430654, Note_off_c, 4, 64, 56
6, 430655, Note_off_c, 4, 52, 56
6, 430680, Note_on_c, 4, 62, 108
6, 430682, Note_on_c, 4, 50, 108
6, 430776, Note_off_c, 4, 62, 56
6, 430778, Note_off_c, 4, 50, 56
6, 430798, Note_on_c, 4, 52, 108
6, 430798, Note_on_c, 4, 64, 108
6, 430894, Note_off_c, 4, 64, 56
6, 430894, Note_off_c, 4, 52, 56
6, 430918, Note_on_c, 4, 65, 108
6, 430919, Note_on_c, 4, 53, 108
6, 431014, Note_off_c, 4, 65, 56
6, 431015, Note_off_c, 4, 53, 56
6, 431042, Note_on_c, 4, 67, 108
6, 431043, Note_on_c, 4, 55, 108
6, 431330, Note_off_c, 4, 67, 68
6, 431331, Note_off_c, 4, 55, 68
6, 431401, Note_on_c, 4, 55, 108
6, 431497, Note_off_c, 4, 55, 56
6, 431520, Note_on_c, 4, 55, 108
6, 431616, Note_off_c, 4, 55, 56
6, 431642, Note_on_c, 4, 53, 108
6, 431738, Note_off_c, 4, 53, 56
6, 431758, Note_on_c, 4, 55, 108
6, 431854, Note_off_c, 4, 55, 56
6, 431879, Note_on_c, 4, 59, 108
6, 431975, Note_off_c, 4, 59, 56
6, 432001, Note_on_c, 4, 60, 108
6, 432289, Note_off_c, 4, 60, 69
6, 432362, Note_on_c, 4, 59, 108
6, 432458, Note_off_c, 4, 59, 56
6, 432481, Note_on_c, 4, 60, 108
6, 432482, Note_on_c, 4, 48, 108
6, 432577, Note_off_c, 4, 60, 56
6, 432578, Note_off_c, 4, 48, 56
6, 432599, Note_on_c, 4, 47, 108
6, 432600, Note_on_c, 4, 59, 108
6, 432695, Note_off_c, 4, 47, 56
6, 432696, Note_off_c, 4, 59, 56
6, 432720, Note_on_c, 4, 60, 108
6, 432722, Note_on_c, 4, 48, 108
6, 432816, Note_off_c, 4, 60, 56
6, 432818, Note_off_c, 4, 48, 56
6, 432838, Note_on_c, 4, 62, 108
6, 432840, Note_on_c, 4, 50, 108
6, 432934, Note_off_c, 4, 62, 56
6, 432936, Note_off_c, 4, 50, 56
6, 432962, Note_on_c, 4, 64, 108
6, 432962, Note_on_c, 4, 52, 108
6, 433058, Note_off_c, 4, 52, 56
6, 433058, Note_off_c, 4, 64, 56
6, 433079, Note_on_c, 4, 50, 108
6, 433080, Note_on_c, 4, 62, 108
6, 433175, Note_off_c, 4, 50, 56
6, 433176, Note_off_c, 4, 62, 56
6, 433198, Note_on_c, 4, 64, 108
6, 433200, Note_on_c, 4, 52, 108
6, 433294, Note_off_c, 4, 64, 56
6, 433296, Note_off_c, 4, 52, 56
6, 433318, Note_on_c, 4, 65, 108
6, 433322, Note_on_c, 4, 53, 108
6, 433414, Note_off_c, 4, 65, 56
6, 433418, Note_off_c, 4, 53, 56
6, 433441, Note_on_c, 4, 55, 108
6, 433443, Note_on_c, 4, 67, 108
6, 434209, Note_off_c, 4, 55, 69
6, 434211, Note_off_c, 4, 67, 69
6, 434400, Note_on_c, 4, 52, 108
6, 434403, Note_on_c, 4, 64, 108
6, 435168, Note_off_c, 4, 52, 69
6, 435171, Note_off_c, 4, 64, 69
6, 435361, Note_on_c, 4, 48, 108
6, 435361, Note_on_c, 4, 60, 108
6, 435481, Note_off_c, 4, 60, 56
6, 435481, Note_off_c, 4, 48, 56
6, 435839, Note_on_c, 4, 59, 108
6, 435841, Note_on_c, 4, 62, 108
6, 435959, Note_off_c, 4, 59, 56
6, 435961, Note_off_c, 4, 62, 56
6, 436318, Note_on_c, 4, 60, 108
6, 436322, Note_on_c, 4, 64, 108
6, 436438, Note_off_c, 4, 60, 56
6, 436442, Note_off_c, 4, 64, 56
6, 436798, Note_on_c, 4, 59, 108
6, 436800, Note_on_c, 4, 62, 108
6, 436918, Note_off_c, 4, 59, 56
6, 436920, Note_off_c, 4, 62, 56
6, 437281, Note_on_c, 4, 64, 108
6, 437282, Note_on_c, 4, 60, 108
6, 437401, Note_off_c, 4, 64, 56
6, 437402, Note_off_c, 4, 60, 56
6, 437759, Note_on_c, 4, 59, 108
6, 437762, Note_on_c, 4, 62, 108
6, 437879, Note_off_c, 4, 59, 56
6, 437882, Note_off_c, 4, 62, 56
6, 438238, Note_on_c, 4, 60, 108
6, 438242, Note_on_c, 4, 64, 108
6, 438358, Note_off_c, 4, 60, 56
6, 438362, Note_off_c, 4, 64, 56
6, 438722, Note_on_c, 4, 59, 108
6, 438722, Note_on_c, 4, 62, 108
6, 438842, Note_off_c, 4, 62, 56
6, 438842, Note_off_c, 4, 59, 56
6, 439198, Note_on_c, 4, 60, 108
6, 439202, Note_on_c, 4, 64, 108
6, 439318, Note_off_c, 4, 60, 56
6, 439322, Note_off_c, 4, 64, 56
6, 439678, Note_on_c, 4, 59, 108
6, 439678, Note_on_c, 4, 62, 108
6, 439798, Note_off_c, 4, 62, 56
6, 439798, Note_off_c, 4, 59, 56
6, 440158, Note_on_c, 4, 64, 108
6, 440161, Note_on_c, 4, 60, 108
6, 440278, Note_off_c, 4, 64, 56
6, 440281, Note_off_c, 4, 60, 56
6, 440638, Note_on_c, 4, 59, 108
6, 440638, Note_on_c, 4, 62, 108
6, 440758, Note_off_c, 4, 62, 56
6, 440758, Note_off_c, 4, 59, 56
6, 441119, Note_on_c, 4, 60, 108
6, 441887, Note_off_c, 4, 60, 71
6, 442078, Note_on_c, 4, 60, 108
6, 442654, Note_off_c, 4, 60, 72
6, 442802, Note_on_c, 4, 55, 108
6, 442898, Note_off_c, 4, 55, 56
6, 442922, Note_on_c, 4, 52, 108
6, 443018, Note_off_c, 4, 52, 56
6, 443041, Note_on_c, 4, 48, 108
6, 443137, Note_off_c, 4, 48, 56
6, 443401, Note_on_c, 4, 48, 108
6, 443497, Note_off_c, 4, 48, 56
6, 443520, Note_on_c, 4, 48, 108
6, 443616, Note_off_c, 4, 48, 56
6, 443638, Note_on_c, 4, 48, 108
6, 443734, Note_off_c, 4, 48, 56
6, 443762, Note_on_c, 4, 48, 108
6, 443858, Note_off_c, 4, 48, 56
6, 443880, Note_on_c, 4, 48, 108
6, 443976, Note_off_c, 4, 48, 56
6, 444001, Note_on_c, 4, 48, 108
6, 444097, Note_off_c, 4, 48, 56
6, 444359, Note_on_c, 4, 48, 108
6, 444455, Note_off_c, 4, 48, 56
6, 444482, Note_on_c, 4, 48, 108
6, 444578, Note_off_c, 4, 48, 56
6, 444600, Note_on_c, 4, 48, 108
6, 444696, Note_off_c, 4, 48, 56
6, 444722, Note_on_c, 4, 48, 108
6, 444818, Note_off_c, 4, 48, 56
6, 444842, Note_on_c, 4, 48, 108
6, 444938, Note_off_c, 4, 48, 56
6, 444960, Note_on_c, 4, 48, 108
6, 445056, Note_off_c, 4, 48, 56
6, 445202, Note_on_c, 4, 48, 108
6, 445298, Note_off_c, 4, 48, 56
6, 445321, Note_on_c, 4, 48, 108
6, 445417, Note_off_c, 4, 48, 56
6, 445441, Note_on_c, 4, 48, 108
6, 445537, Note_off_c, 4, 48, 56
6, 445679, Note_on_c, 4, 48, 108
6, 445775, Note_off_c, 4, 48, 56
6, 445802, Note_on_c, 4, 48, 108
6, 445898, Note_off_c, 4, 48, 56
6, 445920, Note_on_c, 4, 48, 108
6, 446016, Note_off_c, 4, 48, 56
6, 446160, Note_on_c, 4, 52, 108
6, 446162, Note_on_c, 4, 48, 108
6, 446256, Note_off_c, 4, 52, 56
6, 446258, Note_off_c, 4, 48, 56
6, 446281, Note_on_c, 4, 48, 108
6, 446282, Note_on_c, 4, 52, 108
6, 446377, Note_off_c, 4, 48, 56
6, 446378, Note_off_c, 4, 52, 56
6, 446400, Note_on_c, 4, 52, 108
6, 446402, Note_on_c, 4, 48, 108
6, 446496, Note_off_c, 4, 52, 56
6, 446498, Note_off_c, 4, 48, 56
6, 446639, Note_on_c, 4, 52, 108
6, 446639, Note_on_c, 4, 60, 108
6, 446735, Note_off_c, 4, 60, 56
6, 446735, Note_off_c, 4, 52, 56
6, 446759, Note_on_c, 4, 60, 108
6, 446760, Note_on_c, 4, 52, 108
6, 446855, Note_off_c, 4, 60, 56
6, 446856, Note_off_c, 4, 52, 56
6, 446880, Note_on_c, 4, 60, 108
6, 446882, Note_on_c, 4, 52, 108
6, 447648, Note_off_c, 4, 60, 73
6, 447650, Note_off_c, 4, 52, 73
6, 447838, Note_on_c, 4, 64, 108
6, 447843, Note_on_c, 4, 60, 108
6, 448606, Note_off_c, 4, 64, 74
6, 448611, Note_off_c, 4, 60, 74
6, 448798, Note_on_c, 4, 60, 108
6, 448799, Note_on_c, 4, 64, 108
6, 448918, Note_off_c, 4, 60, 56
6, 448919, Note_off_c, 4, 64, 56
6, 449758, Note_on_c, 4, 48, 108
6, 449761, Note_on_c, 4, 60, 108
6, 449878, Note_off_c, 4, 48, 56
6, 449881, Note_off_c, 4, 60, 56
6, 450720, Note_on_c, 4, 48, 108
6, 450720, Note_on_c, 4, 60, 108
6, 450840, Note_off_c, 4, 60, 56
6, 450840, Note_off_c, 4, 48, 56
6, 451679, Note_on_c, 4, 48, 108
6, 451799, Note_off_c, 4, 48, 56
6, 452158, Note_on_c, 4, 48, 108
6, 452278, Note_off_c, 4, 48, 56
6, 452638, Note_on_c, 4, 48, 108
6, 452758, Note_off_c, 4, 48, 56
6, 453599, Note_on_c, 4, 48, 108
6, 453719, Note_off_c, 4, 48, 56
6, 454562, Note_on_c, 4, 48, 108
6, 455522, Note_off_c, 4, 48, 76
6, 455522, End_track
7, 0, Start_track
7, 0, Title_t, "CBasn"
7, 0, Program_c, 5, 70
7, 0, Control_c, 5, 7, 90
7, 0, Note_on_c, 5, 36, 108
7, 0, Control_c, 5, 91, 44
7, 0, Control_c, 5, 93, 14
7, 0, Control_c, 5, 10, 92
7, 205, Note_off_c, 5, 36, 64
7, 480, Note_on_c, 5, 36, 108
7, 685, Note_off_c, 5, 36, 64
7, 962, Note_on_c, 5, 36, 108
7, 1610, Note_off_c, 5, 36, 64
7, 1680, Note_on_c, 5, 31, 111
7, 1771, Note_off_c, 5, 31, 56
7, 1921, Note_on_c, 5, 36, 111
7, 2012, Note_off_c, 5, 36, 56
7, 2159, Note_on_c, 5, 31, 111
7, 2250, Note_off_c, 5, 31, 56
7, 2401, Note_on_c, 5, 36, 111
7, 2492, Note_off_c, 5, 36, 56
7, 2641, Note_on_c, 5, 31, 111
7, 2732, Note_off_c, 5, 31, 56
7, 2877, Note_on_c, 5, 36, 108
7, 3525, Note_off_c, 5, 36, 64
7, 3597, Note_on_c, 5, 36, 108
7, 3750, Note_off_c, 5, 36, 64
7, 3780, Note_on_c, 5, 36, 111
7, 3825, Note_off_c, 5, 36, 56
7, 3837, Note_on_c, 5, 31, 108
7, 4485, Note_off_c, 5, 31, 64
7, 4557, Note_on_c, 5, 31, 108
7, 4710, Note_off_c, 5, 31, 64
7, 4740, Note_on_c, 5, 31, 111
7, 4785, Note_off_c, 5, 31, 56
7, 4803, Note_on_c, 5, 36, 108
7, 5667, Note_off_c, 5, 36, 64
7, 5762, Note_on_c, 5, 33, 108
7, 6194, Note_off_c, 5, 33, 64
7, 6243, Note_on_c, 5, 29, 108
7, 6675, Note_off_c, 5, 29, 64
7, 6720, Note_on_c, 5, 28, 111
7, 6811, Note_off_c, 5, 28, 56
7, 6839, Note_on_c, 5, 29, 111
7, 6930, Note_off_c, 5, 29, 56
7, 6960, Note_on_c, 5, 28, 111
7, 7051, Note_off_c, 5, 28, 56
7, 7080, Note_on_c, 5, 26, 111
7, 7171, Note_off_c, 5, 26, 56
7, 7197, Note_on_c, 5, 24, 108
7, 7629, Note_off_c, 5, 24, 64
7, 7677, Note_on_c, 5, 33, 108
7, 8109, Note_off_c, 5, 33, 64
7, 8157, Note_on_c, 5, 29, 108
7, 8589, Note_off_c, 5, 29, 64
7, 8641, Note_on_c, 5, 28, 111
7, 8732, Note_off_c, 5, 28, 56
7, 8761, Note_on_c, 5, 29, 111
7, 8852, Note_off_c, 5, 29, 56
7, 8879, Note_on_c, 5, 28, 111
7, 8970, Note_off_c, 5, 28, 56
7, 8999, Note_on_c, 5, 26, 111
7, 9090, Note_off_c, 5, 26, 56
7, 9120, Note_on_c, 5, 24, 108
7, 9552, Note_off_c, 5, 24, 64
7, 9597, Note_on_c, 5, 33, 108
7, 10029, Note_off_c, 5, 33, 64
7, 10083, Note_on_c, 5, 29, 108
7, 10515, Note_off_c, 5, 29, 64
7, 10561, Note_on_c, 5, 28, 111
7, 10652, Note_off_c, 5, 28, 56
7, 10680, Note_on_c, 5, 29, 111
7, 10771, Note_off_c, 5, 29, 56
7, 10800, Note_on_c, 5, 28, 111
7, 10891, Note_off_c, 5, 28, 56
7, 10919, Note_on_c, 5, 26, 111
7, 11010, Note_off_c, 5, 26, 56
7, 11041, Note_on_c, 5, 24, 108
7, 11246, Note_off_c, 5, 24, 64
7, 11279, Note_on_c, 5, 36, 108
7, 11432, Note_off_c, 5, 36, 64
7, 11460, Note_on_c, 5, 36, 111
7, 11505, Note_off_c, 5, 36, 56
7, 11523, Note_on_c, 5, 35, 108
7, 11955, Note_off_c, 5, 35, 64
7, 12000, Note_on_c, 5, 36, 108
7, 12432, Note_off_c, 5, 36, 64
7, 12482, Note_on_c, 5, 31, 108
7, 12687, Note_off_c, 5, 31, 64
7, 12723, Note_on_c, 5, 31, 108
7, 13155, Note_off_c, 5, 31, 64
7, 13201, Note_on_c, 5, 36, 108
7, 13354, Note_off_c, 5, 36, 64
7, 13380, Note_on_c, 5, 36, 111
7, 13425, Note_off_c, 5, 36, 56
7, 13438, Note_on_c, 5, 35, 108
7, 13870, Note_off_c, 5, 35, 64
7, 13921, Note_on_c, 5, 36, 108
7, 14353, Note_off_c, 5, 36, 64
7, 14403, Note_on_c, 5, 31, 108
7, 14608, Note_off_c, 5, 31, 64
7, 14639, Note_on_c, 5, 31, 108
7, 15071, Note_off_c, 5, 31, 64
7, 15120, Note_on_c, 5, 36, 108
7, 15273, Note_off_c, 5, 36, 64
7, 15300, Note_on_c, 5, 36, 111
7, 15345, Note_off_c, 5, 36, 56
7, 15357, Note_on_c, 5, 35, 108
7, 15510, Note_off_c, 5, 35, 64
7, 15540, Note_on_c, 5, 35, 111
7, 15585, Note_off_c, 5, 35, 56
7, 15597, Note_on_c, 5, 31, 108
7, 15750, Note_off_c, 5, 31, 64
7, 15780, Note_on_c, 5, 31, 111
7, 15825, Note_off_c, 5, 31, 56
7, 15838, Note_on_c, 5, 36, 108
7, 15991, Note_off_c, 5, 36, 64
7, 16020, Note_on_c, 5, 36, 111
7, 16065, Note_off_c, 5, 36, 56
7, 16083, Note_on_c, 5, 40, 108
7, 16236, Note_off_c, 5, 40, 64
7, 16260, Note_on_c, 5, 40, 111
7, 16305, Note_off_c, 5, 40, 56
7, 16321, Note_on_c, 5, 43, 111
7, 16412, Note_off_c, 5, 43, 56
7, 16440, Note_on_c, 5, 31, 111
7, 16531, Note_off_c, 5, 31, 56
7, 16561, Note_on_c, 5, 31, 108
7, 16766, Note_off_c, 5, 31, 64
7, 17399, Note_on_c, 5, 31, 111
7, 17490, Note_off_c, 5, 31, 56
7, 17522, Note_on_c, 5, 31, 108
7, 17727, Note_off_c, 5, 31, 64
7, 18359, Note_on_c, 5, 31, 111
7, 18450, Note_off_c, 5, 31, 56
7, 18478, Note_on_c, 5, 31, 108
7, 18683, Note_off_c, 5, 31, 64
7, 18841, Note_on_c, 5, 31, 111
7, 18932, Note_off_c, 5, 31, 56
7, 18960, Note_on_c, 5, 31, 108
7, 19165, Note_off_c, 5, 31, 64
7, 19319, Note_on_c, 5, 31, 111
7, 19410, Note_off_c, 5, 31, 56
7, 19441, Note_on_c, 5, 31, 108
7, 19646, Note_off_c, 5, 31, 64
7, 19799, Note_on_c, 5, 31, 111
7, 19890, Note_off_c, 5, 31, 56
7, 19923, Note_on_c, 5, 31, 108
7, 20128, Note_off_c, 5, 31, 64
7, 20160, Note_on_c, 5, 31, 108
7, 20365, Note_off_c, 5, 31, 64
7, 23159, Note_on_c, 5, 48, 111
7, 23267, Note_off_c, 5, 48, 56
7, 23281, Note_on_c, 5, 47, 111
7, 23372, Note_off_c, 5, 47, 56
7, 23399, Note_on_c, 5, 45, 111
7, 23467, Note_off_c, 5, 45, 56
7, 23519, Note_on_c, 5, 43, 111
7, 23587, Note_off_c, 5, 43, 56
7, 23640, Note_on_c, 5, 41, 111
7, 23708, Note_off_c, 5, 41, 56
7, 23759, Note_on_c, 5, 40, 111
7, 23827, Note_off_c, 5, 40, 56
7, 23879, Note_on_c, 5, 38, 111
7, 23947, Note_off_c, 5, 38, 56
7, 24001, Note_on_c, 5, 36, 108
7, 24206, Note_off_c, 5, 36, 64
7, 25921, Note_on_c, 5, 31, 108
7, 26629, Note_off_c, 5, 31, 64
7, 26639, Note_on_c, 5, 35, 111
7, 26707, Note_off_c, 5, 35, 56
7, 26759, Note_on_c, 5, 38, 111
7, 26827, Note_off_c, 5, 38, 56
7, 26879, Note_on_c, 5, 41, 111
7, 26947, Note_off_c, 5, 41, 56
7, 27000, Note_on_c, 5, 43, 111
7, 27068, Note_off_c, 5, 43, 56
7, 27120, Note_on_c, 5, 47, 111
7, 27188, Note_off_c, 5, 47, 56
7, 27240, Note_on_c, 5, 50, 111
7, 27308, Note_off_c, 5, 50, 56
7, 27360, Note_on_c, 5, 53, 111
7, 27451, Note_off_c, 5, 53, 56
7, 27480, Note_on_c, 5, 55, 111
7, 27571, Note_off_c, 5, 55, 56
7, 27599, Note_on_c, 5, 53, 111
7, 27690, Note_off_c, 5, 53, 56
7, 27719, Note_on_c, 5, 50, 111
7, 27810, Note_off_c, 5, 50, 56
7, 27839, Note_on_c, 5, 47, 111
7, 27930, Note_off_c, 5, 47, 56
7, 27959, Note_on_c, 5, 50, 111
7, 28050, Note_off_c, 5, 50, 56
7, 28079, Note_on_c, 5, 47, 111
7, 28170, Note_off_c, 5, 47, 56
7, 28199, Note_on_c, 5, 43, 111
7, 28290, Note_off_c, 5, 43, 56
7, 28320, Note_on_c, 5, 41, 111
7, 28411, Note_off_c, 5, 41, 56
7, 28441, Note_on_c, 5, 38, 111
7, 28532, Note_off_c, 5, 38, 56
7, 28561, Note_on_c, 5, 35, 111
7, 28652, Note_off_c, 5, 35, 56
7, 28679, Note_on_c, 5, 38, 111
7, 28770, Note_off_c, 5, 38, 56
7, 28802, Note_on_c, 5, 31, 108
7, 29007, Note_off_c, 5, 31, 64
7, 29760, Note_on_c, 5, 36, 108
7, 30468, Note_off_c, 5, 36, 64
7, 30481, Note_on_c, 5, 40, 111
7, 30572, Note_off_c, 5, 40, 56
7, 30600, Note_on_c, 5, 31, 111
7, 30691, Note_off_c, 5, 31, 56
7, 30720, Note_on_c, 5, 36, 111
7, 30811, Note_off_c, 5, 36, 56
7, 30840, Note_on_c, 5, 40, 111
7, 30931, Note_off_c, 5, 40, 56
7, 30959, Note_on_c, 5, 43, 111
7, 31050, Note_off_c, 5, 43, 56
7, 31080, Note_on_c, 5, 48, 111
7, 31171, Note_off_c, 5, 48, 56
7, 31201, Note_on_c, 5, 52, 111
7, 31292, Note_off_c, 5, 52, 56
7, 31320, Note_on_c, 5, 48, 111
7, 31411, Note_off_c, 5, 48, 56
7, 31439, Note_on_c, 5, 43, 111
7, 31530, Note_off_c, 5, 43, 56
7, 31561, Note_on_c, 5, 40, 111
7, 31652, Note_off_c, 5, 40, 56
7, 31679, Note_on_c, 5, 36, 111
7, 31770, Note_off_c, 5, 36, 56
7, 31801, Note_on_c, 5, 35, 111
7, 31892, Note_off_c, 5, 35, 56
7, 31920, Note_on_c, 5, 36, 111
7, 32011, Note_off_c, 5, 36, 56
7, 32039, Note_on_c, 5, 36, 111
7, 32130, Note_off_c, 5, 36, 56
7, 32158, Note_on_c, 5, 36, 108
7, 32746, Note_off_c, 5, 36, 64
7, 32761, Note_on_c, 5, 35, 111
7, 32852, Note_off_c, 5, 35, 56
7, 32881, Note_on_c, 5, 36, 111
7, 32972, Note_off_c, 5, 36, 56
7, 33001, Note_on_c, 5, 36, 111
7, 33092, Note_off_c, 5, 36, 56
7, 33121, Note_on_c, 5, 36, 108
7, 33709, Note_off_c, 5, 36, 64
7, 33721, Note_on_c, 5, 37, 111
7, 33812, Note_off_c, 5, 37, 56
7, 33840, Note_on_c, 5, 38, 111
7, 33931, Note_off_c, 5, 38, 56
7, 33959, Note_on_c, 5, 38, 111
7, 34050, Note_off_c, 5, 38, 56
7, 34083, Note_on_c, 5, 38, 108
7, 34671, Note_off_c, 5, 38, 64
7, 34680, Note_on_c, 5, 37, 111
7, 34771, Note_off_c, 5, 37, 56
7, 34800, Note_on_c, 5, 38, 111
7, 34891, Note_off_c, 5, 38, 56
7, 34919, Note_on_c, 5, 38, 111
7, 35010, Note_off_c, 5, 38, 56
7, 35038, Note_on_c, 5, 38, 108
7, 35626, Note_off_c, 5, 38, 64
7, 35639, Note_on_c, 5, 37, 111
7, 35730, Note_off_c, 5, 37, 56
7, 35760, Note_on_c, 5, 38, 111
7, 35851, Note_off_c, 5, 38, 56
7, 35881, Note_on_c, 5, 38, 111
7, 35972, Note_off_c, 5, 38, 56
7, 36001, Note_on_c, 5, 38, 108
7, 36589, Note_off_c, 5, 38, 64
7, 36600, Note_on_c, 5, 37, 111
7, 36691, Note_off_c, 5, 37, 56
7, 36720, Note_on_c, 5, 38, 111
7, 36811, Note_off_c, 5, 38, 56
7, 36840, Note_on_c, 5, 38, 111
7, 36931, Note_off_c, 5, 38, 56
7, 36961, Note_on_c, 5, 38, 111
7, 37052, Note_off_c, 5, 38, 56
7, 37081, Note_on_c, 5, 37, 111
7, 37172, Note_off_c, 5, 37, 56
7, 37200, Note_on_c, 5, 38, 111
7, 37291, Note_off_c, 5, 38, 56
7, 37320, Note_on_c, 5, 38, 111
7, 37411, Note_off_c, 5, 38, 56
7, 37441, Note_on_c, 5, 38, 111
7, 37532, Note_off_c, 5, 38, 56
7, 37559, Note_on_c, 5, 37, 111
7, 37650, Note_off_c, 5, 37, 56
7, 37681, Note_on_c, 5, 38, 111
7, 37772, Note_off_c, 5, 38, 56
7, 37799, Note_on_c, 5, 38, 111
7, 37890, Note_off_c, 5, 38, 56
7, 37920, Note_on_c, 5, 38, 111
7, 38011, Note_off_c, 5, 38, 56
7, 38040, Note_on_c, 5, 37, 111
7, 38131, Note_off_c, 5, 37, 56
7, 38161, Note_on_c, 5, 38, 111
7, 38252, Note_off_c, 5, 38, 56
7, 38280, Note_on_c, 5, 38, 111
7, 38371, Note_off_c, 5, 38, 56
7, 38399, Note_on_c, 5, 38, 111
7, 38490, Note_off_c, 5, 38, 56
7, 38520, Note_on_c, 5, 50, 111
7, 38628, Note_off_c, 5, 50, 56
7, 38641, Note_on_c, 5, 48, 111
7, 38732, Note_off_c, 5, 48, 56
7, 38761, Note_on_c, 5, 47, 111
7, 38829, Note_off_c, 5, 47, 56
7, 38880, Note_on_c, 5, 45, 111
7, 38948, Note_off_c, 5, 45, 56
7, 39000, Note_on_c, 5, 47, 111
7, 39068, Note_off_c, 5, 47, 56
7, 39119, Note_on_c, 5, 45, 111
7, 39210, Note_off_c, 5, 45, 56
7, 39239, Note_on_c, 5, 43, 111
7, 39307, Note_off_c, 5, 43, 56
7, 39360, Note_on_c, 5, 42, 111
7, 39428, Note_off_c, 5, 42, 56
7, 39482, Note_on_c, 5, 43, 111
7, 39590, Note_off_c, 5, 43, 56
7, 39600, Note_on_c, 5, 42, 111
7, 39691, Note_off_c, 5, 42, 56
7, 39719, Note_on_c, 5, 40, 111
7, 39787, Note_off_c, 5, 40, 56
7, 39841, Note_on_c, 5, 38, 111
7, 39909, Note_off_c, 5, 38, 56
7, 39962, Note_on_c, 5, 38, 111
7, 40070, Note_off_c, 5, 38, 56
7, 40081, Note_on_c, 5, 40, 111
7, 40172, Note_off_c, 5, 40, 56
7, 40200, Note_on_c, 5, 33, 111
7, 40268, Note_off_c, 5, 33, 56
7, 40319, Note_on_c, 5, 38, 111
7, 40410, Note_off_c, 5, 38, 56
7, 41400, Note_on_c, 5, 38, 111
7, 41491, Note_off_c, 5, 38, 56
7, 41520, Note_on_c, 5, 36, 111
7, 41611, Note_off_c, 5, 36, 56
7, 41639, Note_on_c, 5, 45, 111
7, 41707, Note_off_c, 5, 45, 56
7, 41761, Note_on_c, 5, 36, 111
7, 41829, Note_off_c, 5, 36, 56
7, 41880, Note_on_c, 5, 35, 111
7, 41948, Note_off_c, 5, 35, 56
7, 42000, Note_on_c, 5, 33, 111
7, 42091, Note_off_c, 5, 33, 56
7, 42121, Note_on_c, 5, 42, 111
7, 42189, Note_off_c, 5, 42, 56
7, 42238, Note_on_c, 5, 31, 108
7, 42443, Note_off_c, 5, 31, 64
7, 42722, Note_on_c, 5, 31, 108
7, 42927, Note_off_c, 5, 31, 64
7, 43203, Note_on_c, 5, 31, 108
7, 43408, Note_off_c, 5, 31, 64
7, 43440, Note_on_c, 5, 38, 111
7, 43512, Note_off_c, 5, 38, 56
7, 43520, Note_on_c, 5, 40, 111
7, 43592, Note_off_c, 5, 40, 56
7, 43599, Note_on_c, 5, 42, 111
7, 43667, Note_off_c, 5, 42, 56
7, 43680, Note_on_c, 5, 43, 108
7, 43885, Note_off_c, 5, 43, 64
7, 45360, Note_on_c, 5, 42, 111
7, 45432, Note_off_c, 5, 42, 56
7, 45439, Note_on_c, 5, 43, 111
7, 45511, Note_off_c, 5, 43, 56
7, 45521, Note_on_c, 5, 45, 111
7, 45589, Note_off_c, 5, 45, 56
7, 45601, Note_on_c, 5, 38, 108
7, 45806, Note_off_c, 5, 38, 64
7, 45841, Note_on_c, 5, 36, 111
7, 45909, Note_off_c, 5, 36, 56
7, 45921, Note_on_c, 5, 35, 111
7, 45989, Note_off_c, 5, 35, 56
7, 46001, Note_on_c, 5, 33, 111
7, 46069, Note_off_c, 5, 33, 56
7, 46078, Note_on_c, 5, 31, 108
7, 46283, Note_off_c, 5, 31, 64
7, 46558, Note_on_c, 5, 31, 108
7, 46763, Note_off_c, 5, 31, 64
7, 47038, Note_on_c, 5, 31, 108
7, 47243, Note_off_c, 5, 31, 64
7, 47280, Note_on_c, 5, 38, 111
7, 47348, Note_off_c, 5, 38, 56
7, 47360, Note_on_c, 5, 40, 111
7, 47428, Note_off_c, 5, 40, 56
7, 47440, Note_on_c, 5, 42, 111
7, 47508, Note_off_c, 5, 42, 56
7, 47521, Note_on_c, 5, 43, 108
7, 47726, Note_off_c, 5, 43, 64
7, 49199, Note_on_c, 5, 38, 93
7, 49267, Note_off_c, 5, 38, 56
7, 49281, Note_on_c, 5, 40, 93
7, 49349, Note_off_c, 5, 40, 56
7, 49360, Note_on_c, 5, 42, 93
7, 49428, Note_off_c, 5, 42, 56
7, 49442, Note_on_c, 5, 43, 90
7, 49647, Note_off_c, 5, 43, 64
7, 51119, Note_on_c, 5, 40, 93
7, 51187, Note_off_c, 5, 40, 56
7, 51200, Note_on_c, 5, 42, 93
7, 51268, Note_off_c, 5, 42, 56
7, 51280, Note_on_c, 5, 44, 93
7, 51348, Note_off_c, 5, 44, 56
7, 51360, Note_on_c, 5, 45, 90
7, 51565, Note_off_c, 5, 45, 64
7, 54722, Note_on_c, 5, 36, 108
7, 55310, Note_off_c, 5, 36, 64
7, 55320, Note_on_c, 5, 36, 111
7, 55411, Note_off_c, 5, 36, 56
7, 55441, Note_on_c, 5, 36, 111
7, 55532, Note_off_c, 5, 36, 56
7, 55559, Note_on_c, 5, 36, 111
7, 55650, Note_off_c, 5, 36, 56
7, 55681, Note_on_c, 5, 36, 111
7, 55772, Note_off_c, 5, 36, 56
7, 55800, Note_on_c, 5, 36, 111
7, 55891, Note_off_c, 5, 36, 56
7, 55920, Note_on_c, 5, 36, 111
7, 56011, Note_off_c, 5, 36, 56
7, 56041, Note_on_c, 5, 36, 111
7, 56132, Note_off_c, 5, 36, 56
7, 56159, Note_on_c, 5, 36, 111
7, 56250, Note_off_c, 5, 36, 56
7, 56279, Note_on_c, 5, 36, 111
7, 56370, Note_off_c, 5, 36, 56
7, 56401, Note_on_c, 5, 36, 111
7, 56492, Note_off_c, 5, 36, 56
7, 56520, Note_on_c, 5, 36, 111
7, 56611, Note_off_c, 5, 36, 56
7, 56639, Note_on_c, 5, 36, 111
7, 56730, Note_off_c, 5, 36, 56
7, 56760, Note_on_c, 5, 36, 111
7, 56851, Note_off_c, 5, 36, 56
7, 56880, Note_on_c, 5, 37, 111
7, 56971, Note_off_c, 5, 37, 56
7, 57001, Note_on_c, 5, 37, 111
7, 57092, Note_off_c, 5, 37, 56
7, 57119, Note_on_c, 5, 38, 111
7, 57210, Note_off_c, 5, 38, 56
7, 57241, Note_on_c, 5, 38, 111
7, 57332, Note_off_c, 5, 38, 56
7, 57361, Note_on_c, 5, 39, 111
7, 57452, Note_off_c, 5, 39, 56
7, 57479, Note_on_c, 5, 39, 111
7, 57570, Note_off_c, 5, 39, 56
7, 57599, Note_on_c, 5, 40, 111
7, 57690, Note_off_c, 5, 40, 56
7, 57720, Note_on_c, 5, 40, 111
7, 57811, Note_off_c, 5, 40, 56
7, 57839, Note_on_c, 5, 42, 111
7, 57930, Note_off_c, 5, 42, 56
7, 57960, Note_on_c, 5, 42, 111
7, 58051, Note_off_c, 5, 42, 56
7, 58080, Note_on_c, 5, 43, 111
7, 58171, Note_off_c, 5, 43, 56
7, 58201, Note_on_c, 5, 31, 111
7, 58292, Note_off_c, 5, 31, 56
7, 58320, Note_on_c, 5, 33, 111
7, 58411, Note_off_c, 5, 33, 56
7, 58439, Note_on_c, 5, 35, 111
7, 58530, Note_off_c, 5, 35, 56
7, 58561, Note_on_c, 5, 36, 108
7, 58697, Note_off_c, 5, 36, 64
7, 59519, Note_on_c, 5, 38, 108
7, 59655, Note_off_c, 5, 38, 64
7, 68157, Note_on_c, 5, 35, 90
7, 68805, Note_off_c, 5, 35, 64
7, 68882, Note_on_c, 5, 33, 90
7, 69087, Note_off_c, 5, 33, 64
7, 69119, Note_on_c, 5, 31, 90
7, 69324, Note_off_c, 5, 31, 64
7, 69357, Note_on_c, 5, 30, 90
7, 69562, Note_off_c, 5, 30, 64
7, 69603, Note_on_c, 5, 30, 90
7, 69808, Note_off_c, 5, 30, 64
7, 69840, Note_on_c, 5, 30, 90
7, 70045, Note_off_c, 5, 30, 64
7, 70077, Note_on_c, 5, 35, 96
7, 70725, Note_off_c, 5, 35, 64
7, 70800, Note_on_c, 5, 33, 90
7, 71005, Note_off_c, 5, 33, 64
7, 71038, Note_on_c, 5, 31, 90
7, 71243, Note_off_c, 5, 31, 64
7, 71279, Note_on_c, 5, 30, 90
7, 71484, Note_off_c, 5, 30, 64
7, 71518, Note_on_c, 5, 30, 90
7, 71723, Note_off_c, 5, 30, 64
7, 71759, Note_on_c, 5, 30, 90
7, 71964, Note_off_c, 5, 30, 64
7, 71997, Note_on_c, 5, 30, 96
7, 72645, Note_off_c, 5, 30, 64
7, 72723, Note_on_c, 5, 31, 98
7, 72928, Note_off_c, 5, 31, 64
7, 72960, Note_on_c, 5, 36, 100
7, 73165, Note_off_c, 5, 36, 64
7, 73198, Note_on_c, 5, 36, 100
7, 73403, Note_off_c, 5, 36, 64
7, 73442, Note_on_c, 5, 36, 101
7, 73647, Note_off_c, 5, 36, 64
7, 73679, Note_on_c, 5, 36, 101
7, 73884, Note_off_c, 5, 36, 64
7, 73919, Note_on_c, 5, 36, 102
7, 74124, Note_off_c, 5, 36, 64
7, 74158, Note_on_c, 5, 36, 103
7, 74363, Note_off_c, 5, 36, 64
7, 74397, Note_on_c, 5, 36, 103
7, 74602, Note_off_c, 5, 36, 64
7, 74640, Note_on_c, 5, 36, 104
7, 74845, Note_off_c, 5, 36, 64
7, 74881, Note_on_c, 5, 36, 105
7, 75086, Note_off_c, 5, 36, 64
7, 75122, Note_on_c, 5, 36, 105
7, 75327, Note_off_c, 5, 36, 64
7, 75361, Note_on_c, 5, 36, 106
7, 75566, Note_off_c, 5, 36, 64
7, 75599, Note_on_c, 5, 36, 106
7, 75804, Note_off_c, 5, 36, 64
7, 75841, Note_on_c, 5, 29, 111
7, 75909, Note_off_c, 5, 29, 56
7, 75960, Note_on_c, 5, 24, 111
7, 76028, Note_off_c, 5, 24, 56
7, 76082, Note_on_c, 5, 32, 111
7, 76190, Note_off_c, 5, 32, 56
7, 76201, Note_on_c, 5, 29, 111
7, 76292, Note_off_c, 5, 29, 56
7, 76321, Note_on_c, 5, 32, 111
7, 76389, Note_off_c, 5, 32, 56
7, 76441, Note_on_c, 5, 29, 111
7, 76509, Note_off_c, 5, 29, 56
7, 76559, Note_on_c, 5, 36, 111
7, 76667, Note_off_c, 5, 36, 56
7, 76681, Note_on_c, 5, 32, 111
7, 76772, Note_off_c, 5, 32, 56
7, 76799, Note_on_c, 5, 36, 111
7, 76867, Note_off_c, 5, 36, 56
7, 76920, Note_on_c, 5, 32, 111
7, 76988, Note_off_c, 5, 32, 56
7, 77040, Note_on_c, 5, 41, 111
7, 77148, Note_off_c, 5, 41, 56
7, 77161, Note_on_c, 5, 36, 111
7, 77252, Note_off_c, 5, 36, 56
7, 77281, Note_on_c, 5, 41, 111
7, 77349, Note_off_c, 5, 41, 56
7, 77399, Note_on_c, 5, 36, 111
7, 77467, Note_off_c, 5, 36, 56
7, 77518, Note_on_c, 5, 44, 111
7, 77626, Note_off_c, 5, 44, 56
7, 77640, Note_on_c, 5, 41, 111
7, 77731, Note_off_c, 5, 41, 56
7, 77757, Note_on_c, 5, 43, 108
7, 79581, Note_off_c, 5, 43, 64
7, 79680, Note_on_c, 5, 50, 111
7, 79771, Note_off_c, 5, 50, 56
7, 79800, Note_on_c, 5, 53, 111
7, 79891, Note_off_c, 5, 53, 56
7, 79920, Note_on_c, 5, 47, 111
7, 80011, Note_off_c, 5, 47, 56
7, 80039, Note_on_c, 5, 50, 111
7, 80130, Note_off_c, 5, 50, 56
7, 80160, Note_on_c, 5, 43, 111
7, 80251, Note_off_c, 5, 43, 56
7, 80280, Note_on_c, 5, 47, 111
7, 80371, Note_off_c, 5, 47, 56
7, 80401, Note_on_c, 5, 41, 111
7, 80492, Note_off_c, 5, 41, 56
7, 80521, Note_on_c, 5, 43, 111
7, 80612, Note_off_c, 5, 43, 56
7, 80640, Note_on_c, 5, 38, 111
7, 80731, Note_off_c, 5, 38, 56
7, 80761, Note_on_c, 5, 41, 111
7, 80852, Note_off_c, 5, 41, 56
7, 80880, Note_on_c, 5, 35, 111
7, 80971, Note_off_c, 5, 35, 56
7, 80999, Note_on_c, 5, 38, 111
7, 81090, Note_off_c, 5, 38, 56
7, 81119, Note_on_c, 5, 31, 111
7, 81210, Note_off_c, 5, 31, 56
7, 81241, Note_on_c, 5, 43, 111
7, 81332, Note_off_c, 5, 43, 56
7, 81360, Note_on_c, 5, 43, 111
7, 81451, Note_off_c, 5, 43, 56
7, 81479, Note_on_c, 5, 43, 111
7, 81570, Note_off_c, 5, 43, 56
7, 81602, Note_on_c, 5, 36, 108
7, 81807, Note_off_c, 5, 36, 64
7, 82079, Note_on_c, 5, 36, 108
7, 82284, Note_off_c, 5, 36, 64
7, 82560, Note_on_c, 5, 36, 108
7, 83208, Note_off_c, 5, 36, 64
7, 83281, Note_on_c, 5, 31, 111
7, 83372, Note_off_c, 5, 31, 56
7, 83519, Note_on_c, 5, 36, 111
7, 83610, Note_off_c, 5, 36, 56
7, 83759, Note_on_c, 5, 31, 111
7, 83850, Note_off_c, 5, 31, 56
7, 84000, Note_on_c, 5, 36, 111
7, 84091, Note_off_c, 5, 36, 56
7, 84240, Note_on_c, 5, 31, 111
7, 84331, Note_off_c, 5, 31, 56
7, 84483, Note_on_c, 5, 36, 108
7, 85131, Note_off_c, 5, 36, 64
7, 85200, Note_on_c, 5, 36, 108
7, 85353, Note_off_c, 5, 36, 64
7, 85380, Note_on_c, 5, 36, 111
7, 85425, Note_off_c, 5, 36, 56
7, 85438, Note_on_c, 5, 31, 108
7, 86086, Note_off_c, 5, 31, 64
7, 86160, Note_on_c, 5, 31, 108
7, 86313, Note_off_c, 5, 31, 64
7, 86340, Note_on_c, 5, 31, 111
7, 86385, Note_off_c, 5, 31, 56
7, 86398, Note_on_c, 5, 36, 108
7, 87262, Note_off_c, 5, 36, 64
7, 87358, Note_on_c, 5, 33, 108
7, 87790, Note_off_c, 5, 33, 64
7, 87837, Note_on_c, 5, 29, 108
7, 88269, Note_off_c, 5, 29, 64
7, 88321, Note_on_c, 5, 28, 111
7, 88412, Note_off_c, 5, 28, 56
7, 88439, Note_on_c, 5, 29, 111
7, 88530, Note_off_c, 5, 29, 56
7, 88559, Note_on_c, 5, 28, 111
7, 88650, Note_off_c, 5, 28, 56
7, 88681, Note_on_c, 5, 26, 111
7, 88772, Note_off_c, 5, 26, 56
7, 88797, Note_on_c, 5, 24, 108
7, 89229, Note_off_c, 5, 24, 64
7, 89279, Note_on_c, 5, 33, 108
7, 89711, Note_off_c, 5, 33, 64
7, 89761, Note_on_c, 5, 29, 108
7, 90193, Note_off_c, 5, 29, 64
7, 90239, Note_on_c, 5, 28, 111
7, 90330, Note_off_c, 5, 28, 56
7, 90359, Note_on_c, 5, 29, 111
7, 90450, Note_off_c, 5, 29, 56
7, 90480, Note_on_c, 5, 28, 111
7, 90571, Note_off_c, 5, 28, 56
7, 90601, Note_on_c, 5, 26, 111
7, 90692, Note_off_c, 5, 26, 56
7, 90722, Note_on_c, 5, 24, 108
7, 91154, Note_off_c, 5, 24, 64
7, 91201, Note_on_c, 5, 33, 108
7, 91633, Note_off_c, 5, 33, 64
7, 91680, Note_on_c, 5, 29, 108
7, 92112, Note_off_c, 5, 29, 64
7, 92160, Note_on_c, 5, 28, 111
7, 92251, Note_off_c, 5, 28, 56
7, 92280, Note_on_c, 5, 29, 111
7, 92371, Note_off_c, 5, 29, 56
7, 92401, Note_on_c, 5, 28, 111
7, 92492, Note_off_c, 5, 28, 56
7, 92521, Note_on_c, 5, 26, 111
7, 92612, Note_off_c, 5, 26, 56
7, 92639, Note_on_c, 5, 24, 108
7, 92844, Note_off_c, 5, 24, 64
7, 92881, Note_on_c, 5, 36, 108
7, 93034, Note_off_c, 5, 36, 64
7, 93060, Note_on_c, 5, 36, 111
7, 93105, Note_off_c, 5, 36, 56
7, 93122, Note_on_c, 5, 35, 108
7, 93554, Note_off_c, 5, 35, 64
7, 93601, Note_on_c, 5, 36, 108
7, 94033, Note_off_c, 5, 36, 64
7, 94081, Note_on_c, 5, 31, 108
7, 94286, Note_off_c, 5, 31, 64
7, 94323, Note_on_c, 5, 31, 108
7, 94755, Note_off_c, 5, 31, 64
7, 94799, Note_on_c, 5, 36, 108
7, 94952, Note_off_c, 5, 36, 64
7, 94980, Note_on_c, 5, 36, 111
7, 95025, Note_off_c, 5, 36, 56
7, 95042, Note_on_c, 5, 35, 108
7, 95474, Note_off_c, 5, 35, 64
7, 95520, Note_on_c, 5, 36, 108
7, 95952, Note_off_c, 5, 36, 64
7, 95997, Note_on_c, 5, 31, 108
7, 96202, Note_off_c, 5, 31, 64
7, 96239, Note_on_c, 5, 31, 108
7, 96671, Note_off_c, 5, 31, 64
7, 96722, Note_on_c, 5, 36, 108
7, 96875, Note_off_c, 5, 36, 64
7, 96900, Note_on_c, 5, 36, 111
7, 96945, Note_off_c, 5, 36, 56
7, 96957, Note_on_c, 5, 35, 108
7, 97110, Note_off_c, 5, 35, 64
7, 97140, Note_on_c, 5, 35, 111
7, 97185, Note_off_c, 5, 35, 56
7, 97200, Note_on_c, 5, 31, 108
7, 97353, Note_off_c, 5, 31, 64
7, 97380, Note_on_c, 5, 31, 111
7, 97425, Note_off_c, 5, 31, 56
7, 97438, Note_on_c, 5, 36, 108
7, 97591, Note_off_c, 5, 36, 64
7, 97620, Note_on_c, 5, 36, 111
7, 97665, Note_off_c, 5, 36, 56
7, 97680, Note_on_c, 5, 40, 108
7, 97833, Note_off_c, 5, 40, 64
7, 97860, Note_on_c, 5, 40, 111
7, 97905, Note_off_c, 5, 40, 56
7, 97920, Note_on_c, 5, 43, 111
7, 98011, Note_off_c, 5, 43, 56
7, 98039, Note_on_c, 5, 31, 111
7, 98130, Note_off_c, 5, 31, 56
7, 98158, Note_on_c, 5, 31, 108
7, 98363, Note_off_c, 5, 31, 64
7, 99001, Note_on_c, 5, 31, 111
7, 99092, Note_off_c, 5, 31, 56
7, 99122, Note_on_c, 5, 31, 108
7, 99327, Note_off_c, 5, 31, 64
7, 99959, Note_on_c, 5, 31, 111
7, 100050, Note_off_c, 5, 31, 56
7, 100079, Note_on_c, 5, 31, 108
7, 100284, Note_off_c, 5, 31, 64
7, 100441, Note_on_c, 5, 31, 111
7, 100532, Note_off_c, 5, 31, 56
7, 100560, Note_on_c, 5, 31, 108
7, 100765, Note_off_c, 5, 31, 64
7, 100920, Note_on_c, 5, 31, 111
7, 101011, Note_off_c, 5, 31, 56
7, 101038, Note_on_c, 5, 31, 108
7, 101243, Note_off_c, 5, 31, 64
7, 101401, Note_on_c, 5, 31, 111
7, 101492, Note_off_c, 5, 31, 56
7, 101519, Note_on_c, 5, 31, 108
7, 101724, Note_off_c, 5, 31, 64
7, 101759, Note_on_c, 5, 31, 108
7, 101964, Note_off_c, 5, 31, 64
7, 104762, Note_on_c, 5, 48, 111
7, 104870, Note_off_c, 5, 48, 56
7, 104881, Note_on_c, 5, 47, 111
7, 104972, Note_off_c, 5, 47, 56
7, 105001, Note_on_c, 5, 45, 111
7, 105069, Note_off_c, 5, 45, 56
7, 105119, Note_on_c, 5, 43, 111
7, 105187, Note_off_c, 5, 43, 56
7, 105241, Note_on_c, 5, 41, 111
7, 105309, Note_off_c, 5, 41, 56
7, 105361, Note_on_c, 5, 40, 111
7, 105429, Note_off_c, 5, 40, 56
7, 105479, Note_on_c, 5, 38, 111
7, 105547, Note_off_c, 5, 38, 56
7, 105602, Note_on_c, 5, 36, 108
7, 105807, Note_off_c, 5, 36, 64
7, 107522, Note_on_c, 5, 31, 108
7, 108230, Note_off_c, 5, 31, 64
7, 108241, Note_on_c, 5, 35, 111
7, 108309, Note_off_c, 5, 35, 56
7, 108361, Note_on_c, 5, 38, 111
7, 108429, Note_off_c, 5, 38, 56
7, 108479, Note_on_c, 5, 41, 111
7, 108547, Note_off_c, 5, 41, 56
7, 108599, Note_on_c, 5, 43, 111
7, 108667, Note_off_c, 5, 43, 56
7, 108721, Note_on_c, 5, 47, 111
7, 108789, Note_off_c, 5, 47, 56
7, 108840, Note_on_c, 5, 50, 111
7, 108908, Note_off_c, 5, 50, 56
7, 108960, Note_on_c, 5, 53, 111
7, 109051, Note_off_c, 5, 53, 56
7, 109080, Note_on_c, 5, 55, 111
7, 109171, Note_off_c, 5, 55, 56
7, 109200, Note_on_c, 5, 53, 111
7, 109291, Note_off_c, 5, 53, 56
7, 109321, Note_on_c, 5, 50, 111
7, 109412, Note_off_c, 5, 50, 56
7, 109441, Note_on_c, 5, 47, 111
7, 109532, Note_off_c, 5, 47, 56
7, 109561, Note_on_c, 5, 50, 111
7, 109652, Note_off_c, 5, 50, 56
7, 109679, Note_on_c, 5, 47, 111
7, 109770, Note_off_c, 5, 47, 56
7, 109799, Note_on_c, 5, 43, 111
7, 109890, Note_off_c, 5, 43, 56
7, 109920, Note_on_c, 5, 41, 111
7, 110011, Note_off_c, 5, 41, 56
7, 110041, Note_on_c, 5, 38, 111
7, 110132, Note_off_c, 5, 38, 56
7, 110160, Note_on_c, 5, 35, 111
7, 110251, Note_off_c, 5, 35, 56
7, 110281, Note_on_c, 5, 38, 111
7, 110372, Note_off_c, 5, 38, 56
7, 110400, Note_on_c, 5, 31, 108
7, 110605, Note_off_c, 5, 31, 64
7, 111361, Note_on_c, 5, 36, 108
7, 112069, Note_off_c, 5, 36, 64
7, 112080, Note_on_c, 5, 40, 111
7, 112171, Note_off_c, 5, 40, 56
7, 112201, Note_on_c, 5, 31, 111
7, 112292, Note_off_c, 5, 31, 56
7, 112320, Note_on_c, 5, 36, 111
7, 112411, Note_off_c, 5, 36, 56
7, 112439, Note_on_c, 5, 40, 111
7, 112530, Note_off_c, 5, 40, 56
7, 112561, Note_on_c, 5, 43, 111
7, 112652, Note_off_c, 5, 43, 56
7, 112679, Note_on_c, 5, 48, 111
7, 112770, Note_off_c, 5, 48, 56
7, 112800, Note_on_c, 5, 52, 111
7, 112891, Note_off_c, 5, 52, 56
7, 112920, Note_on_c, 5, 48, 111
7, 113011, Note_off_c, 5, 48, 56
7, 113040, Note_on_c, 5, 43, 111
7, 113131, Note_off_c, 5, 43, 56
7, 113160, Note_on_c, 5, 40, 111
7, 113251, Note_off_c, 5, 40, 56
7, 113281, Note_on_c, 5, 36, 111
7, 113372, Note_off_c, 5, 36, 56
7, 113400, Note_on_c, 5, 35, 111
7, 113491, Note_off_c, 5, 35, 56
7, 113520, Note_on_c, 5, 36, 111
7, 113611, Note_off_c, 5, 36, 56
7, 113641, Note_on_c, 5, 36, 111
7, 113732, Note_off_c, 5, 36, 56
7, 113757, Note_on_c, 5, 36, 108
7, 114345, Note_off_c, 5, 36, 64
7, 114360, Note_on_c, 5, 35, 111
7, 114451, Note_off_c, 5, 35, 56
7, 114481, Note_on_c, 5, 36, 111
7, 114572, Note_off_c, 5, 36, 56
7, 114599, Note_on_c, 5, 36, 111
7, 114690, Note_off_c, 5, 36, 56
7, 114722, Note_on_c, 5, 36, 108
7, 115310, Note_off_c, 5, 36, 64
7, 115319, Note_on_c, 5, 37, 111
7, 115410, Note_off_c, 5, 37, 56
7, 115441, Note_on_c, 5, 38, 111
7, 115532, Note_off_c, 5, 38, 56
7, 115560, Note_on_c, 5, 38, 111
7, 115651, Note_off_c, 5, 38, 56
7, 115680, Note_on_c, 5, 38, 108
7, 116268, Note_off_c, 5, 38, 64
7, 116280, Note_on_c, 5, 37, 111
7, 116371, Note_off_c, 5, 37, 56
7, 116400, Note_on_c, 5, 38, 111
7, 116491, Note_off_c, 5, 38, 56
7, 116520, Note_on_c, 5, 38, 111
7, 116611, Note_off_c, 5, 38, 56
7, 116639, Note_on_c, 5, 38, 108
7, 117227, Note_off_c, 5, 38, 64
7, 117239, Note_on_c, 5, 37, 111
7, 117330, Note_off_c, 5, 37, 56
7, 117361, Note_on_c, 5, 38, 111
7, 117452, Note_off_c, 5, 38, 56
7, 117479, Note_on_c, 5, 38, 111
7, 117570, Note_off_c, 5, 38, 56
7, 117601, Note_on_c, 5, 38, 108
7, 118189, Note_off_c, 5, 38, 64
7, 118200, Note_on_c, 5, 37, 111
7, 118291, Note_off_c, 5, 37, 56
7, 118321, Note_on_c, 5, 38, 111
7, 118412, Note_off_c, 5, 38, 56
7, 118439, Note_on_c, 5, 38, 111
7, 118530, Note_off_c, 5, 38, 56
7, 118561, Note_on_c, 5, 38, 111
7, 118652, Note_off_c, 5, 38, 56
7, 118681, Note_on_c, 5, 37, 111
7, 118772, Note_off_c, 5, 37, 56
7, 118800, Note_on_c, 5, 38, 111
7, 118891, Note_off_c, 5, 38, 56
7, 118921, Note_on_c, 5, 38, 111
7, 119012, Note_off_c, 5, 38, 56
7, 119041, Note_on_c, 5, 38, 111
7, 119132, Note_off_c, 5, 38, 56
7, 119159, Note_on_c, 5, 37, 111
7, 119250, Note_off_c, 5, 37, 56
7, 119279, Note_on_c, 5, 38, 111
7, 119370, Note_off_c, 5, 38, 56
7, 119400, Note_on_c, 5, 38, 111
7, 119491, Note_off_c, 5, 38, 56
7, 119521, Note_on_c, 5, 38, 111
7, 119612, Note_off_c, 5, 38, 56
7, 119640, Note_on_c, 5, 37, 111
7, 119731, Note_off_c, 5, 37, 56
7, 119760, Note_on_c, 5, 38, 111
7, 119851, Note_off_c, 5, 38, 56
7, 119879, Note_on_c, 5, 38, 111
7, 119970, Note_off_c, 5, 38, 56
7, 120000, Note_on_c, 5, 38, 111
7, 120091, Note_off_c, 5, 38, 56
7, 120120, Note_on_c, 5, 50, 111
7, 120228, Note_off_c, 5, 50, 56
7, 120241, Note_on_c, 5, 48, 111
7, 120332, Note_off_c, 5, 48, 56
7, 120360, Note_on_c, 5, 47, 111
7, 120428, Note_off_c, 5, 47, 56
7, 120479, Note_on_c, 5, 45, 111
7, 120547, Note_off_c, 5, 45, 56
7, 120601, Note_on_c, 5, 47, 111
7, 120669, Note_off_c, 5, 47, 56
7, 120720, Note_on_c, 5, 45, 111
7, 120811, Note_off_c, 5, 45, 56
7, 120841, Note_on_c, 5, 43, 111
7, 120909, Note_off_c, 5, 43, 56
7, 120961, Note_on_c, 5, 42, 111
7, 121029, Note_off_c, 5, 42, 56
7, 121080, Note_on_c, 5, 43, 111
7, 121188, Note_off_c, 5, 43, 56
7, 121201, Note_on_c, 5, 42, 111
7, 121292, Note_off_c, 5, 42, 56
7, 121319, Note_on_c, 5, 40, 111
7, 121387, Note_off_c, 5, 40, 56
7, 121439, Note_on_c, 5, 38, 111
7, 121507, Note_off_c, 5, 38, 56
7, 121559, Note_on_c, 5, 38, 111
7, 121667, Note_off_c, 5, 38, 56
7, 121680, Note_on_c, 5, 40, 111
7, 121771, Note_off_c, 5, 40, 56
7, 121801, Note_on_c, 5, 33, 111
7, 121869, Note_off_c, 5, 33, 56
7, 121921, Note_on_c, 5, 38, 111
7, 122012, Note_off_c, 5, 38, 56
7, 122999, Note_on_c, 5, 38, 111
7, 123090, Note_off_c, 5, 38, 56
7, 123120, Note_on_c, 5, 36, 111
7, 123211, Note_off_c, 5, 36, 56
7, 123241, Note_on_c, 5, 45, 111
7, 123309, Note_off_c, 5, 45, 56
7, 123360, Note_on_c, 5, 36, 111
7, 123428, Note_off_c, 5, 36, 56
7, 123481, Note_on_c, 5, 35, 111
7, 123549, Note_off_c, 5, 35, 56
7, 123601, Note_on_c, 5, 33, 111
7, 123692, Note_off_c, 5, 33, 56
7, 123719, Note_on_c, 5, 42, 111
7, 123787, Note_off_c, 5, 42, 56
7, 123843, Note_on_c, 5, 31, 108
7, 124048, Note_off_c, 5, 31, 64
7, 124321, Note_on_c, 5, 31, 108
7, 124526, Note_off_c, 5, 31, 64
7, 124797, Note_on_c, 5, 31, 108
7, 125002, Note_off_c, 5, 31, 64
7, 125039, Note_on_c, 5, 38, 111
7, 125111, Note_off_c, 5, 38, 56
7, 125121, Note_on_c, 5, 40, 111
7, 125193, Note_off_c, 5, 40, 56
7, 125201, Note_on_c, 5, 42, 111
7, 125269, Note_off_c, 5, 42, 56
7, 125280, Note_on_c, 5, 43, 108
7, 125485, Note_off_c, 5, 43, 64
7, 126959, Note_on_c, 5, 42, 111
7, 127031, Note_off_c, 5, 42, 56
7, 127039, Note_on_c, 5, 43, 111
7, 127111, Note_off_c, 5, 43, 56
7, 127120, Note_on_c, 5, 45, 111
7, 127188, Note_off_c, 5, 45, 56
7, 127197, Note_on_c, 5, 38, 108
7, 127402, Note_off_c, 5, 38, 64
7, 127440, Note_on_c, 5, 36, 111
7, 127508, Note_off_c, 5, 36, 56
7, 127520, Note_on_c, 5, 35, 111
7, 127588, Note_off_c, 5, 35, 56
7, 127601, Note_on_c, 5, 33, 111
7, 127669, Note_off_c, 5, 33, 56
7, 127682, Note_on_c, 5, 31, 108
7, 127887, Note_off_c, 5, 31, 64
7, 128160, Note_on_c, 5, 31, 108
7, 128365, Note_off_c, 5, 31, 64
7, 128640, Note_on_c, 5, 31, 108
7, 128845, Note_off_c, 5, 31, 64
7, 128879, Note_on_c, 5, 38, 111
7, 128947, Note_off_c, 5, 38, 56
7, 128960, Note_on_c, 5, 40, 111
7, 129028, Note_off_c, 5, 40, 56
7, 129041, Note_on_c, 5, 42, 111
7, 129109, Note_off_c, 5, 42, 56
7, 129118, Note_on_c, 5, 43, 108
7, 129323, Note_off_c, 5, 43, 64
7, 130800, Note_on_c, 5, 38, 93
7, 130868, Note_off_c, 5, 38, 56
7, 130881, Note_on_c, 5, 40, 93
7, 130949, Note_off_c, 5, 40, 56
7, 130960, Note_on_c, 5, 42, 93
7, 131028, Note_off_c, 5, 42, 56
7, 131038, Note_on_c, 5, 43, 90
7, 131243, Note_off_c, 5, 43, 64
7, 132719, Note_on_c, 5, 40, 93
7, 132787, Note_off_c, 5, 40, 56
7, 132801, Note_on_c, 5, 42, 93
7, 132869, Note_off_c, 5, 42, 56
7, 132880, Note_on_c, 5, 44, 93
7, 132948, Note_off_c, 5, 44, 56
7, 132957, Note_on_c, 5, 45, 90
7, 133162, Note_off_c, 5, 45, 64
7, 136323, Note_on_c, 5, 36, 108
7, 136911, Note_off_c, 5, 36, 64
7, 136920, Note_on_c, 5, 36, 111
7, 137011, Note_off_c, 5, 36, 56
7, 137041, Note_on_c, 5, 36, 111
7, 137132, Note_off_c, 5, 36, 56
7, 137160, Note_on_c, 5, 36, 111
7, 137251, Note_off_c, 5, 36, 56
7, 137281, Note_on_c, 5, 36, 111
7, 137372, Note_off_c, 5, 36, 56
7, 137401, Note_on_c, 5, 36, 111
7, 137492, Note_off_c, 5, 36, 56
7, 137519, Note_on_c, 5, 36, 111
7, 137610, Note_off_c, 5, 36, 56
7, 137641, Note_on_c, 5, 36, 111
7, 137732, Note_off_c, 5, 36, 56
7, 137759, Note_on_c, 5, 36, 111
7, 137850, Note_off_c, 5, 36, 56
7, 137880, Note_on_c, 5, 36, 111
7, 137971, Note_off_c, 5, 36, 56
7, 138000, Note_on_c, 5, 36, 111
7, 138091, Note_off_c, 5, 36, 56
7, 138120, Note_on_c, 5, 36, 111
7, 138211, Note_off_c, 5, 36, 56
7, 138240, Note_on_c, 5, 36, 111
7, 138331, Note_off_c, 5, 36, 56
7, 138360, Note_on_c, 5, 36, 111
7, 138451, Note_off_c, 5, 36, 56
7, 138481, Note_on_c, 5, 37, 111
7, 138572, Note_off_c, 5, 37, 56
7, 138601, Note_on_c, 5, 37, 111
7, 138692, Note_off_c, 5, 37, 56
7, 138720, Note_on_c, 5, 38, 111
7, 138811, Note_off_c, 5, 38, 56
7, 138840, Note_on_c, 5, 38, 111
7, 138931, Note_off_c, 5, 38, 56
7, 138961, Note_on_c, 5, 39, 111
7, 139052, Note_off_c, 5, 39, 56
7, 139079, Note_on_c, 5, 39, 111
7, 139170, Note_off_c, 5, 39, 56
7, 139199, Note_on_c, 5, 40, 111
7, 139290, Note_off_c, 5, 40, 56
7, 139321, Note_on_c, 5, 40, 111
7, 139412, Note_off_c, 5, 40, 56
7, 139440, Note_on_c, 5, 42, 111
7, 139531, Note_off_c, 5, 42, 56
7, 139561, Note_on_c, 5, 42, 111
7, 139652, Note_off_c, 5, 42, 56
7, 139679, Note_on_c, 5, 43, 111
7, 139770, Note_off_c, 5, 43, 56
7, 139800, Note_on_c, 5, 31, 111
7, 139891, Note_off_c, 5, 31, 56
7, 139921, Note_on_c, 5, 33, 111
7, 140012, Note_off_c, 5, 33, 56
7, 140039, Note_on_c, 5, 35, 111
7, 140130, Note_off_c, 5, 35, 56
7, 140158, Note_on_c, 5, 36, 108
7, 140294, Note_off_c, 5, 36, 64
7, 141121, Note_on_c, 5, 38, 108
7, 141257, Note_off_c, 5, 38, 64
7, 149761, Note_on_c, 5, 35, 90
7, 150409, Note_off_c, 5, 35, 64
7, 150480, Note_on_c, 5, 33, 90
7, 150685, Note_off_c, 5, 33, 64
7, 150719, Note_on_c, 5, 31, 90
7, 150924, Note_off_c, 5, 31, 64
7, 150963, Note_on_c, 5, 30, 90
7, 151168, Note_off_c, 5, 30, 64
7, 151202, Note_on_c, 5, 30, 90
7, 151407, Note_off_c, 5, 30, 64
7, 151439, Note_on_c, 5, 30, 90
7, 151644, Note_off_c, 5, 30, 64
7, 151681, Note_on_c, 5, 35, 96
7, 152329, Note_off_c, 5, 35, 64
7, 152397, Note_on_c, 5, 33, 90
7, 152602, Note_off_c, 5, 33, 64
7, 152643, Note_on_c, 5, 31, 90
7, 152848, Note_off_c, 5, 31, 64
7, 152881, Note_on_c, 5, 30, 90
7, 153086, Note_off_c, 5, 30, 64
7, 153121, Note_on_c, 5, 30, 90
7, 153326, Note_off_c, 5, 30, 64
7, 153360, Note_on_c, 5, 30, 90
7, 153565, Note_off_c, 5, 30, 64
7, 153602, Note_on_c, 5, 30, 96
7, 154250, Note_off_c, 5, 30, 64
7, 154318, Note_on_c, 5, 31, 98
7, 154523, Note_off_c, 5, 31, 64
7, 154558, Note_on_c, 5, 36, 100
7, 154763, Note_off_c, 5, 36, 64
7, 154802, Note_on_c, 5, 36, 100
7, 155007, Note_off_c, 5, 36, 64
7, 155042, Note_on_c, 5, 36, 101
7, 155247, Note_off_c, 5, 36, 64
7, 155279, Note_on_c, 5, 36, 101
7, 155484, Note_off_c, 5, 36, 64
7, 155519, Note_on_c, 5, 36, 102
7, 155724, Note_off_c, 5, 36, 64
7, 155763, Note_on_c, 5, 36, 103
7, 155968, Note_off_c, 5, 36, 64
7, 155999, Note_on_c, 5, 36, 103
7, 156204, Note_off_c, 5, 36, 64
7, 156240, Note_on_c, 5, 36, 104
7, 156445, Note_off_c, 5, 36, 64
7, 156483, Note_on_c, 5, 36, 105
7, 156688, Note_off_c, 5, 36, 64
7, 156720, Note_on_c, 5, 36, 105
7, 156925, Note_off_c, 5, 36, 64
7, 156963, Note_on_c, 5, 36, 106
7, 157168, Note_off_c, 5, 36, 64
7, 157199, Note_on_c, 5, 36, 106
7, 157404, Note_off_c, 5, 36, 64
7, 157441, Note_on_c, 5, 29, 111
7, 157509, Note_off_c, 5, 29, 56
7, 157560, Note_on_c, 5, 24, 111
7, 157628, Note_off_c, 5, 24, 56
7, 157679, Note_on_c, 5, 32, 111
7, 157787, Note_off_c, 5, 32, 56
7, 157801, Note_on_c, 5, 29, 111
7, 157892, Note_off_c, 5, 29, 56
7, 157921, Note_on_c, 5, 32, 111
7, 157989, Note_off_c, 5, 32, 56
7, 158041, Note_on_c, 5, 29, 111
7, 158109, Note_off_c, 5, 29, 56
7, 158160, Note_on_c, 5, 36, 111
7, 158268, Note_off_c, 5, 36, 56
7, 158280, Note_on_c, 5, 32, 111
7, 158371, Note_off_c, 5, 32, 56
7, 158399, Note_on_c, 5, 36, 111
7, 158467, Note_off_c, 5, 36, 56
7, 158519, Note_on_c, 5, 32, 111
7, 158587, Note_off_c, 5, 32, 56
7, 158639, Note_on_c, 5, 41, 111
7, 158747, Note_off_c, 5, 41, 56
7, 158760, Note_on_c, 5, 36, 111
7, 158851, Note_off_c, 5, 36, 56
7, 158879, Note_on_c, 5, 41, 111
7, 158947, Note_off_c, 5, 41, 56
7, 159000, Note_on_c, 5, 36, 111
7, 159068, Note_off_c, 5, 36, 56
7, 159118, Note_on_c, 5, 44, 111
7, 159226, Note_off_c, 5, 44, 56
7, 159240, Note_on_c, 5, 41, 111
7, 159331, Note_off_c, 5, 41, 56
7, 159361, Note_on_c, 5, 43, 108
7, 161185, Note_off_c, 5, 43, 64
7, 161280, Note_on_c, 5, 50, 111
7, 161371, Note_off_c, 5, 50, 56
7, 161401, Note_on_c, 5, 53, 111
7, 161492, Note_off_c, 5, 53, 56
7, 161521, Note_on_c, 5, 47, 111
7, 161612, Note_off_c, 5, 47, 56
7, 161640, Note_on_c, 5, 50, 111
7, 161731, Note_off_c, 5, 50, 56
7, 161761, Note_on_c, 5, 43, 111
7, 161852, Note_off_c, 5, 43, 56
7, 161879, Note_on_c, 5, 47, 111
7, 161970, Note_off_c, 5, 47, 56
7, 161999, Note_on_c, 5, 41, 111
7, 162090, Note_off_c, 5, 41, 56
7, 162119, Note_on_c, 5, 43, 111
7, 162210, Note_off_c, 5, 43, 56
7, 162241, Note_on_c, 5, 35, 111
7, 162332, Note_off_c, 5, 35, 56
7, 162360, Note_on_c, 5, 38, 111
7, 162451, Note_off_c, 5, 38, 56
7, 162479, Note_on_c, 5, 31, 111
7, 162570, Note_off_c, 5, 31, 56
7, 162599, Note_on_c, 5, 35, 111
7, 162690, Note_off_c, 5, 35, 56
7, 162720, Note_on_c, 5, 31, 111
7, 162811, Note_off_c, 5, 31, 56
7, 162840, Note_on_c, 5, 38, 111
7, 162931, Note_off_c, 5, 38, 56
7, 162961, Note_on_c, 5, 35, 111
7, 163052, Note_off_c, 5, 35, 56
7, 163080, Note_on_c, 5, 31, 111
7, 163171, Note_off_c, 5, 31, 56
7, 163200, Note_on_c, 5, 32, 111
7, 163291, Note_off_c, 5, 32, 56
7, 163319, Note_on_c, 5, 28, 111
7, 163410, Note_off_c, 5, 28, 56
7, 163441, Note_on_c, 5, 35, 111
7, 163532, Note_off_c, 5, 35, 56
7, 163561, Note_on_c, 5, 32, 111
7, 163652, Note_off_c, 5, 32, 56
7, 163680, Note_on_c, 5, 35, 111
7, 163771, Note_off_c, 5, 35, 56
7, 163801, Note_on_c, 5, 32, 111
7, 163892, Note_off_c, 5, 32, 56
7, 163921, Note_on_c, 5, 40, 111
7, 164012, Note_off_c, 5, 40, 56
7, 164039, Note_on_c, 5, 35, 111
7, 164130, Note_off_c, 5, 35, 56
7, 164160, Note_on_c, 5, 40, 111
7, 164251, Note_off_c, 5, 40, 56
7, 164281, Note_on_c, 5, 35, 111
7, 164372, Note_off_c, 5, 35, 56
7, 164401, Note_on_c, 5, 44, 111
7, 164492, Note_off_c, 5, 44, 56
7, 164521, Note_on_c, 5, 40, 111
7, 164612, Note_off_c, 5, 40, 56
7, 164639, Note_on_c, 5, 44, 111
7, 164730, Note_off_c, 5, 44, 56
7, 164759, Note_on_c, 5, 40, 111
7, 164850, Note_off_c, 5, 40, 56
7, 164881, Note_on_c, 5, 47, 111
7, 164972, Note_off_c, 5, 47, 56
7, 165000, Note_on_c, 5, 44, 111
7, 165091, Note_off_c, 5, 44, 56
7, 165119, Note_on_c, 5, 52, 111
7, 165210, Note_off_c, 5, 52, 56
7, 165240, Note_on_c, 5, 47, 111
7, 165331, Note_off_c, 5, 47, 56
7, 165360, Note_on_c, 5, 44, 111
7, 165451, Note_off_c, 5, 44, 56
7, 165480, Note_on_c, 5, 47, 111
7, 165571, Note_off_c, 5, 47, 56
7, 165600, Note_on_c, 5, 40, 111
7, 165691, Note_off_c, 5, 40, 56
7, 165721, Note_on_c, 5, 44, 111
7, 165812, Note_off_c, 5, 44, 56
7, 165839, Note_on_c, 5, 38, 111
7, 165930, Note_off_c, 5, 38, 56
7, 165961, Note_on_c, 5, 40, 111
7, 166052, Note_off_c, 5, 40, 56
7, 166081, Note_on_c, 5, 35, 111
7, 166172, Note_off_c, 5, 35, 56
7, 166201, Note_on_c, 5, 38, 111
7, 166292, Note_off_c, 5, 38, 56
7, 166320, Note_on_c, 5, 32, 111
7, 166411, Note_off_c, 5, 32, 56
7, 166441, Note_on_c, 5, 35, 111
7, 166532, Note_off_c, 5, 35, 56
7, 166560, Note_on_c, 5, 28, 111
7, 166651, Note_off_c, 5, 28, 56
7, 166681, Note_on_c, 5, 40, 111
7, 166772, Note_off_c, 5, 40, 56
7, 166800, Note_on_c, 5, 40, 111
7, 166891, Note_off_c, 5, 40, 56
7, 166920, Note_on_c, 5, 40, 111
7, 167011, Note_off_c, 5, 40, 56
7, 167043, Note_on_c, 5, 33, 108
7, 167248, Note_off_c, 5, 33, 64
7, 167523, Note_on_c, 5, 33, 108
7, 167728, Note_off_c, 5, 33, 64
7, 167997, Note_on_c, 5, 33, 108
7, 168202, Note_off_c, 5, 33, 64
7, 168239, Note_on_c, 5, 40, 111
7, 168311, Note_off_c, 5, 40, 56
7, 168319, Note_on_c, 5, 42, 111
7, 168391, Note_off_c, 5, 42, 56
7, 168400, Note_on_c, 5, 44, 111
7, 168472, Note_off_c, 5, 44, 56
7, 168477, Note_on_c, 5, 45, 108
7, 168682, Note_off_c, 5, 45, 64
7, 183122, Note_on_c, 5, 34, 90
7, 183327, Note_off_c, 5, 34, 64
7, 183357, Note_on_c, 5, 33, 90
7, 183789, Note_off_c, 5, 33, 64
7, 183837, Note_on_c, 5, 34, 90
7, 184269, Note_off_c, 5, 34, 64
7, 184319, Note_on_c, 5, 36, 90
7, 185927, Note_off_c, 5, 36, 64
7, 185999, Note_on_c, 5, 36, 90
7, 186204, Note_off_c, 5, 36, 64
7, 186241, Note_on_c, 5, 34, 90
7, 186673, Note_off_c, 5, 34, 64
7, 186719, Note_on_c, 5, 36, 90
7, 187151, Note_off_c, 5, 36, 64
7, 187197, Note_on_c, 5, 37, 90
7, 188805, Note_off_c, 5, 37, 64
7, 190079, Note_on_c, 5, 36, 90
7, 191687, Note_off_c, 5, 36, 64
7, 192957, Note_on_c, 5, 38, 90
7, 194565, Note_off_c, 5, 38, 64
7, 194639, Note_on_c, 5, 37, 90
7, 194844, Note_off_c, 5, 37, 64
7, 194879, Note_on_c, 5, 37, 90
7, 195743, Note_off_c, 5, 37, 64
7, 195838, Note_on_c, 5, 36, 90
7, 197974, Note_off_c, 5, 36, 64
7, 197999, Note_on_c, 5, 37, 90
7, 198204, Note_off_c, 5, 37, 64
7, 198237, Note_on_c, 5, 36, 90
7, 198933, Note_off_c, 5, 36, 64
7, 198962, Note_on_c, 5, 31, 93
7, 199098, Note_off_c, 5, 31, 64
7, 199202, Note_on_c, 5, 29, 93
7, 199898, Note_off_c, 5, 29, 64
7, 199919, Note_on_c, 5, 41, 94
7, 200055, Note_off_c, 5, 41, 64
7, 200160, Note_on_c, 5, 39, 95
7, 200856, Note_off_c, 5, 39, 64
7, 200879, Note_on_c, 5, 34, 96
7, 201015, Note_off_c, 5, 34, 64
7, 201122, Note_on_c, 5, 32, 96
7, 201818, Note_off_c, 5, 32, 64
7, 201842, Note_on_c, 5, 44, 97
7, 201978, Note_off_c, 5, 44, 64
7, 202083, Note_on_c, 5, 43, 98
7, 202779, Note_off_c, 5, 43, 64
7, 202800, Note_on_c, 5, 38, 100
7, 202936, Note_off_c, 5, 38, 64
7, 203039, Note_on_c, 5, 36, 100
7, 203735, Note_off_c, 5, 36, 64
7, 203759, Note_on_c, 5, 48, 101
7, 203895, Note_off_c, 5, 48, 64
7, 204001, Note_on_c, 5, 46, 102
7, 204697, Note_off_c, 5, 46, 64
7, 204718, Note_on_c, 5, 41, 103
7, 204854, Note_off_c, 5, 41, 64
7, 204961, Note_on_c, 5, 39, 103
7, 205097, Note_off_c, 5, 39, 64
7, 205202, Note_on_c, 5, 51, 104
7, 205338, Note_off_c, 5, 51, 64
7, 205441, Note_on_c, 5, 50, 107
7, 205501, Note_off_c, 5, 50, 56
7, 205520, Note_on_c, 5, 50, 107
7, 205580, Note_off_c, 5, 50, 56
7, 205600, Note_on_c, 5, 50, 107
7, 205660, Note_off_c, 5, 50, 56
7, 205680, Note_on_c, 5, 50, 107
7, 205740, Note_off_c, 5, 50, 56
7, 205761, Note_on_c, 5, 50, 107
7, 205821, Note_off_c, 5, 50, 56
7, 205841, Note_on_c, 5, 50, 108
7, 205901, Note_off_c, 5, 50, 56
7, 205920, Note_on_c, 5, 50, 108
7, 205980, Note_off_c, 5, 50, 56
7, 206001, Note_on_c, 5, 50, 108
7, 206061, Note_off_c, 5, 50, 56
7, 206081, Note_on_c, 5, 50, 108
7, 206141, Note_off_c, 5, 50, 56
7, 206160, Note_on_c, 5, 50, 108
7, 206220, Note_off_c, 5, 50, 56
7, 206241, Note_on_c, 5, 50, 108
7, 206301, Note_off_c, 5, 50, 56
7, 206321, Note_on_c, 5, 50, 108
7, 206381, Note_off_c, 5, 50, 56
7, 206401, Note_on_c, 5, 50, 108
7, 206461, Note_off_c, 5, 50, 56
7, 206480, Note_on_c, 5, 50, 109
7, 206540, Note_off_c, 5, 50, 56
7, 206561, Note_on_c, 5, 50, 109
7, 206621, Note_off_c, 5, 50, 56
7, 206640, Note_on_c, 5, 50, 109
7, 206700, Note_off_c, 5, 50, 56
7, 206719, Note_on_c, 5, 50, 109
7, 206779, Note_off_c, 5, 50, 56
7, 206801, Note_on_c, 5, 50, 109
7, 206861, Note_off_c, 5, 50, 56
7, 206881, Note_on_c, 5, 50, 109
7, 206941, Note_off_c, 5, 50, 56
7, 206960, Note_on_c, 5, 50, 109
7, 207020, Note_off_c, 5, 50, 56
7, 207040, Note_on_c, 5, 50, 109
7, 207100, Note_off_c, 5, 50, 56
7, 207121, Note_on_c, 5, 50, 111
7, 207181, Note_off_c, 5, 50, 56
7, 207200, Note_on_c, 5, 50, 111
7, 207260, Note_off_c, 5, 50, 56
7, 207281, Note_on_c, 5, 50, 111
7, 207341, Note_off_c, 5, 50, 56
7, 207357, Note_on_c, 5, 31, 108
7, 209181, Note_off_c, 5, 31, 64
7, 209277, Note_on_c, 5, 31, 108
7, 211101, Note_off_c, 5, 31, 64
7, 211199, Note_on_c, 5, 31, 108
7, 213023, Note_off_c, 5, 31, 64
7, 213122, Note_on_c, 5, 31, 108
7, 214946, Note_off_c, 5, 31, 64
7, 215040, Note_on_c, 5, 31, 111
7, 215100, Note_off_c, 5, 31, 56
7, 215121, Note_on_c, 5, 31, 111
7, 215181, Note_off_c, 5, 31, 56
7, 215201, Note_on_c, 5, 31, 111
7, 215261, Note_off_c, 5, 31, 56
7, 215280, Note_on_c, 5, 31, 111
7, 215340, Note_off_c, 5, 31, 56
7, 215360, Note_on_c, 5, 31, 111
7, 215420, Note_off_c, 5, 31, 56
7, 215440, Note_on_c, 5, 31, 111
7, 215500, Note_off_c, 5, 31, 56
7, 215519, Note_on_c, 5, 31, 111
7, 215579, Note_off_c, 5, 31, 56
7, 215600, Note_on_c, 5, 31, 111
7, 215660, Note_off_c, 5, 31, 56
7, 215679, Note_on_c, 5, 31, 111
7, 215739, Note_off_c, 5, 31, 56
7, 215760, Note_on_c, 5, 31, 111
7, 215820, Note_off_c, 5, 31, 56
7, 215840, Note_on_c, 5, 31, 111
7, 215900, Note_off_c, 5, 31, 56
7, 215919, Note_on_c, 5, 31, 111
7, 215979, Note_off_c, 5, 31, 56
7, 216001, Note_on_c, 5, 31, 111
7, 216061, Note_off_c, 5, 31, 56
7, 216079, Note_on_c, 5, 31, 111
7, 216139, Note_off_c, 5, 31, 56
7, 216159, Note_on_c, 5, 31, 111
7, 216219, Note_off_c, 5, 31, 56
7, 216240, Note_on_c, 5, 31, 111
7, 216300, Note_off_c, 5, 31, 56
7, 216319, Note_on_c, 5, 31, 111
7, 216379, Note_off_c, 5, 31, 56
7, 216399, Note_on_c, 5, 31, 111
7, 216459, Note_off_c, 5, 31, 56
7, 216481, Note_on_c, 5, 31, 111
7, 216541, Note_off_c, 5, 31, 56
7, 216559, Note_on_c, 5, 31, 111
7, 216619, Note_off_c, 5, 31, 56
7, 216639, Note_on_c, 5, 31, 111
7, 216699, Note_off_c, 5, 31, 56
7, 216719, Note_on_c, 5, 31, 111
7, 216779, Note_off_c, 5, 31, 56
7, 216799, Note_on_c, 5, 31, 111
7, 216859, Note_off_c, 5, 31, 56
7, 216881, Note_on_c, 5, 31, 111
7, 216941, Note_off_c, 5, 31, 56
7, 216959, Note_on_c, 5, 31, 111
7, 217019, Note_off_c, 5, 31, 56
7, 217039, Note_on_c, 5, 31, 111
7, 217099, Note_off_c, 5, 31, 56
7, 217120, Note_on_c, 5, 31, 111
7, 217180, Note_off_c, 5, 31, 56
7, 217199, Note_on_c, 5, 31, 111
7, 217259, Note_off_c, 5, 31, 56
7, 217280, Note_on_c, 5, 31, 111
7, 217340, Note_off_c, 5, 31, 56
7, 217359, Note_on_c, 5, 31, 111
7, 217419, Note_off_c, 5, 31, 56
7, 217441, Note_on_c, 5, 31, 111
7, 217501, Note_off_c, 5, 31, 56
7, 217519, Note_on_c, 5, 31, 111
7, 217579, Note_off_c, 5, 31, 56
7, 217599, Note_on_c, 5, 31, 111
7, 217659, Note_off_c, 5, 31, 56
7, 217679, Note_on_c, 5, 31, 111
7, 217739, Note_off_c, 5, 31, 56
7, 217759, Note_on_c, 5, 31, 111
7, 217819, Note_off_c, 5, 31, 56
7, 217839, Note_on_c, 5, 31, 111
7, 217899, Note_off_c, 5, 31, 56
7, 217920, Note_on_c, 5, 31, 111
7, 217980, Note_off_c, 5, 31, 56
7, 218000, Note_on_c, 5, 31, 111
7, 218060, Note_off_c, 5, 31, 56
7, 218081, Note_on_c, 5, 31, 111
7, 218141, Note_off_c, 5, 31, 56
7, 218161, Note_on_c, 5, 31, 111
7, 218221, Note_off_c, 5, 31, 56
7, 218241, Note_on_c, 5, 31, 111
7, 218301, Note_off_c, 5, 31, 56
7, 218320, Note_on_c, 5, 31, 111
7, 218380, Note_off_c, 5, 31, 56
7, 218399, Note_on_c, 5, 31, 111
7, 218459, Note_off_c, 5, 31, 56
7, 218479, Note_on_c, 5, 31, 111
7, 218539, Note_off_c, 5, 31, 56
7, 218559, Note_on_c, 5, 31, 111
7, 218619, Note_off_c, 5, 31, 56
7, 218639, Note_on_c, 5, 31, 111
7, 218699, Note_off_c, 5, 31, 56
7, 218720, Note_on_c, 5, 31, 111
7, 218780, Note_off_c, 5, 31, 56
7, 218801, Note_on_c, 5, 31, 111
7, 218861, Note_off_c, 5, 31, 56
7, 218880, Note_on_c, 5, 31, 108
7, 219468, Note_off_c, 5, 31, 64
7, 219480, Note_on_c, 5, 38, 111
7, 219571, Note_off_c, 5, 38, 56
7, 219600, Note_on_c, 5, 35, 111
7, 219691, Note_off_c, 5, 35, 56
7, 219721, Note_on_c, 5, 38, 111
7, 219812, Note_off_c, 5, 38, 56
7, 219843, Note_on_c, 5, 43, 108
7, 220431, Note_off_c, 5, 43, 64
7, 220441, Note_on_c, 5, 38, 111
7, 220532, Note_off_c, 5, 38, 56
7, 220561, Note_on_c, 5, 35, 111
7, 220652, Note_off_c, 5, 35, 56
7, 220680, Note_on_c, 5, 38, 111
7, 220771, Note_off_c, 5, 38, 56
7, 220800, Note_on_c, 5, 43, 111
7, 220891, Note_off_c, 5, 43, 56
7, 220921, Note_on_c, 5, 50, 111
7, 221012, Note_off_c, 5, 50, 56
7, 221040, Note_on_c, 5, 47, 111
7, 221131, Note_off_c, 5, 47, 56
7, 221159, Note_on_c, 5, 50, 111
7, 221250, Note_off_c, 5, 50, 56
7, 221280, Note_on_c, 5, 50, 111
7, 221371, Note_off_c, 5, 50, 56
7, 221399, Note_on_c, 5, 47, 111
7, 221490, Note_off_c, 5, 47, 56
7, 221520, Note_on_c, 5, 43, 111
7, 221611, Note_off_c, 5, 43, 56
7, 221639, Note_on_c, 5, 47, 111
7, 221730, Note_off_c, 5, 47, 56
7, 221759, Note_on_c, 5, 47, 111
7, 221850, Note_off_c, 5, 47, 56
7, 221879, Note_on_c, 5, 43, 111
7, 221970, Note_off_c, 5, 43, 56
7, 222001, Note_on_c, 5, 38, 111
7, 222092, Note_off_c, 5, 38, 56
7, 222121, Note_on_c, 5, 43, 111
7, 222212, Note_off_c, 5, 43, 56
7, 222240, Note_on_c, 5, 43, 111
7, 222331, Note_off_c, 5, 43, 56
7, 222359, Note_on_c, 5, 38, 111
7, 222450, Note_off_c, 5, 38, 56
7, 222480, Note_on_c, 5, 35, 111
7, 222571, Note_off_c, 5, 35, 56
7, 222601, Note_on_c, 5, 38, 111
7, 222692, Note_off_c, 5, 38, 56
7, 222721, Note_on_c, 5, 38, 111
7, 222812, Note_off_c, 5, 38, 56
7, 222839, Note_on_c, 5, 35, 111
7, 222930, Note_off_c, 5, 35, 56
7, 222961, Note_on_c, 5, 31, 111
7, 223052, Note_off_c, 5, 31, 56
7, 223080, Note_on_c, 5, 47, 111
7, 223171, Note_off_c, 5, 47, 56
7, 223200, Note_on_c, 5, 47, 111
7, 223291, Note_off_c, 5, 47, 56
7, 223321, Note_on_c, 5, 43, 111
7, 223412, Note_off_c, 5, 43, 56
7, 223439, Note_on_c, 5, 38, 111
7, 223530, Note_off_c, 5, 38, 56
7, 223561, Note_on_c, 5, 43, 111
7, 223652, Note_off_c, 5, 43, 56
7, 223680, Note_on_c, 5, 43, 111
7, 223771, Note_off_c, 5, 43, 56
7, 223801, Note_on_c, 5, 38, 111
7, 223892, Note_off_c, 5, 38, 56
7, 223919, Note_on_c, 5, 35, 111
7, 224010, Note_off_c, 5, 35, 56
7, 224040, Note_on_c, 5, 38, 111
7, 224131, Note_off_c, 5, 38, 56
7, 224161, Note_on_c, 5, 43, 111
7, 224252, Note_off_c, 5, 43, 56
7, 224279, Note_on_c, 5, 38, 111
7, 224370, Note_off_c, 5, 38, 56
7, 224401, Note_on_c, 5, 35, 111
7, 224492, Note_off_c, 5, 35, 56
7, 224519, Note_on_c, 5, 38, 111
7, 224610, Note_off_c, 5, 38, 56
7, 224640, Note_on_c, 5, 31, 108
7, 225504, Note_off_c, 5, 31, 64
7, 225597, Note_on_c, 5, 31, 108
7, 226461, Note_off_c, 5, 31, 64
7, 226558, Note_on_c, 5, 31, 108
7, 227422, Note_off_c, 5, 31, 64
7, 227518, Note_on_c, 5, 31, 108
7, 227723, Note_off_c, 5, 31, 64
7, 266401, Note_on_c, 5, 36, 108
7, 266606, Note_off_c, 5, 36, 64
7, 266882, Note_on_c, 5, 36, 108
7, 267087, Note_off_c, 5, 36, 64
7, 267361, Note_on_c, 5, 36, 108
7, 268009, Note_off_c, 5, 36, 64
7, 268082, Note_on_c, 5, 31, 111
7, 268184, Note_off_c, 5, 31, 56
7, 268320, Note_on_c, 5, 36, 111
7, 268422, Note_off_c, 5, 36, 56
7, 268559, Note_on_c, 5, 31, 111
7, 268661, Note_off_c, 5, 31, 56
7, 268799, Note_on_c, 5, 36, 111
7, 268901, Note_off_c, 5, 36, 56
7, 269042, Note_on_c, 5, 31, 111
7, 269144, Note_off_c, 5, 31, 56
7, 269280, Note_on_c, 5, 36, 108
7, 269928, Note_off_c, 5, 36, 64
7, 270003, Note_on_c, 5, 36, 108
7, 270156, Note_off_c, 5, 36, 64
7, 270180, Note_on_c, 5, 36, 111
7, 270231, Note_off_c, 5, 36, 56
7, 270240, Note_on_c, 5, 31, 108
7, 270888, Note_off_c, 5, 31, 64
7, 270958, Note_on_c, 5, 31, 108
7, 271111, Note_off_c, 5, 31, 64
7, 271141, Note_on_c, 5, 31, 111
7, 271192, Note_off_c, 5, 31, 56
7, 271201, Note_on_c, 5, 36, 108
7, 272065, Note_off_c, 5, 36, 64
7, 272158, Note_on_c, 5, 33, 108
7, 272590, Note_off_c, 5, 33, 64
7, 272639, Note_on_c, 5, 29, 108
7, 273071, Note_off_c, 5, 29, 64
7, 273120, Note_on_c, 5, 28, 111
7, 273222, Note_off_c, 5, 28, 56
7, 273240, Note_on_c, 5, 29, 111
7, 273342, Note_off_c, 5, 29, 56
7, 273358, Note_on_c, 5, 28, 111
7, 273460, Note_off_c, 5, 28, 56
7, 273480, Note_on_c, 5, 26, 111
7, 273582, Note_off_c, 5, 26, 56
7, 273600, Note_on_c, 5, 24, 108
7, 274032, Note_off_c, 5, 24, 64
7, 274079, Note_on_c, 5, 33, 108
7, 274511, Note_off_c, 5, 33, 64
7, 274561, Note_on_c, 5, 29, 108
7, 274993, Note_off_c, 5, 29, 64
7, 275038, Note_on_c, 5, 28, 111
7, 275140, Note_off_c, 5, 28, 56
7, 275162, Note_on_c, 5, 29, 111
7, 275264, Note_off_c, 5, 29, 56
7, 275282, Note_on_c, 5, 28, 111
7, 275384, Note_off_c, 5, 28, 56
7, 275402, Note_on_c, 5, 26, 111
7, 275504, Note_off_c, 5, 26, 56
7, 275520, Note_on_c, 5, 24, 108
7, 275952, Note_off_c, 5, 24, 64
7, 276000, Note_on_c, 5, 33, 108
7, 276432, Note_off_c, 5, 33, 64
7, 276478, Note_on_c, 5, 29, 108
7, 276910, Note_off_c, 5, 29, 64
7, 276961, Note_on_c, 5, 28, 111
7, 277063, Note_off_c, 5, 28, 56
7, 277080, Note_on_c, 5, 29, 111
7, 277182, Note_off_c, 5, 29, 56
7, 277198, Note_on_c, 5, 28, 111
7, 277300, Note_off_c, 5, 28, 56
7, 277319, Note_on_c, 5, 26, 111
7, 277421, Note_off_c, 5, 26, 56
7, 277437, Note_on_c, 5, 24, 108
7, 277642, Note_off_c, 5, 24, 64
7, 277678, Note_on_c, 5, 36, 108
7, 277831, Note_off_c, 5, 36, 64
7, 277859, Note_on_c, 5, 36, 111
7, 277910, Note_off_c, 5, 36, 56
7, 277922, Note_on_c, 5, 35, 108
7, 278354, Note_off_c, 5, 35, 64
7, 278403, Note_on_c, 5, 36, 108
7, 278835, Note_off_c, 5, 36, 64
7, 278882, Note_on_c, 5, 31, 108
7, 279087, Note_off_c, 5, 31, 64
7, 279120, Note_on_c, 5, 31, 108
7, 279552, Note_off_c, 5, 31, 64
7, 279602, Note_on_c, 5, 36, 108
7, 279755, Note_off_c, 5, 36, 64
7, 279781, Note_on_c, 5, 36, 111
7, 279832, Note_off_c, 5, 36, 56
7, 279843, Note_on_c, 5, 35, 108
7, 280275, Note_off_c, 5, 35, 64
7, 280323, Note_on_c, 5, 36, 108
7, 280755, Note_off_c, 5, 36, 64
7, 280799, Note_on_c, 5, 31, 108
7, 281004, Note_off_c, 5, 31, 64
7, 281037, Note_on_c, 5, 31, 108
7, 281469, Note_off_c, 5, 31, 64
7, 281522, Note_on_c, 5, 36, 108
7, 281675, Note_off_c, 5, 36, 64
7, 281699, Note_on_c, 5, 36, 111
7, 281750, Note_off_c, 5, 36, 56
7, 281760, Note_on_c, 5, 35, 108
7, 281913, Note_off_c, 5, 35, 64
7, 281939, Note_on_c, 5, 35, 111
7, 281990, Note_off_c, 5, 35, 56
7, 281999, Note_on_c, 5, 31, 108
7, 282152, Note_off_c, 5, 31, 64
7, 282179, Note_on_c, 5, 31, 111
7, 282230, Note_off_c, 5, 31, 56
7, 282241, Note_on_c, 5, 36, 108
7, 282394, Note_off_c, 5, 36, 64
7, 282421, Note_on_c, 5, 36, 111
7, 282472, Note_off_c, 5, 36, 56
7, 282479, Note_on_c, 5, 40, 108
7, 282632, Note_off_c, 5, 40, 64
7, 282660, Note_on_c, 5, 40, 111
7, 282711, Note_off_c, 5, 40, 56
7, 282722, Note_on_c, 5, 43, 111
7, 282824, Note_off_c, 5, 43, 56
7, 282841, Note_on_c, 5, 31, 111
7, 282943, Note_off_c, 5, 31, 56
7, 282962, Note_on_c, 5, 31, 108
7, 283167, Note_off_c, 5, 31, 64
7, 283799, Note_on_c, 5, 31, 111
7, 283901, Note_off_c, 5, 31, 56
7, 283923, Note_on_c, 5, 31, 108
7, 284128, Note_off_c, 5, 31, 64
7, 284759, Note_on_c, 5, 31, 111
7, 284861, Note_off_c, 5, 31, 56
7, 284882, Note_on_c, 5, 31, 108
7, 285087, Note_off_c, 5, 31, 64
7, 285240, Note_on_c, 5, 31, 111
7, 285342, Note_off_c, 5, 31, 56
7, 285359, Note_on_c, 5, 31, 108
7, 285564, Note_off_c, 5, 31, 64
7, 285718, Note_on_c, 5, 31, 111
7, 285820, Note_off_c, 5, 31, 56
7, 285842, Note_on_c, 5, 31, 108
7, 286047, Note_off_c, 5, 31, 64
7, 286201, Note_on_c, 5, 31, 111
7, 286303, Note_off_c, 5, 31, 56
7, 286322, Note_on_c, 5, 31, 108
7, 286527, Note_off_c, 5, 31, 64
7, 286558, Note_on_c, 5, 31, 108
7, 286763, Note_off_c, 5, 31, 64
7, 289562, Note_on_c, 5, 48, 111
7, 289670, Note_off_c, 5, 48, 56
7, 289678, Note_on_c, 5, 47, 111
7, 289780, Note_off_c, 5, 47, 56
7, 289801, Note_on_c, 5, 45, 111
7, 289869, Note_off_c, 5, 45, 56
7, 289921, Note_on_c, 5, 43, 111
7, 289989, Note_off_c, 5, 43, 56
7, 290040, Note_on_c, 5, 41, 111
7, 290108, Note_off_c, 5, 41, 56
7, 290159, Note_on_c, 5, 40, 111
7, 290227, Note_off_c, 5, 40, 56
7, 290279, Note_on_c, 5, 38, 111
7, 290347, Note_off_c, 5, 38, 56
7, 290401, Note_on_c, 5, 36, 108
7, 290606, Note_off_c, 5, 36, 64
7, 292322, Note_on_c, 5, 31, 108
7, 293030, Note_off_c, 5, 31, 64
7, 293040, Note_on_c, 5, 35, 111
7, 293108, Note_off_c, 5, 35, 56
7, 293159, Note_on_c, 5, 38, 111
7, 293227, Note_off_c, 5, 38, 56
7, 293280, Note_on_c, 5, 41, 111
7, 293348, Note_off_c, 5, 41, 56
7, 293400, Note_on_c, 5, 43, 111
7, 293468, Note_off_c, 5, 43, 56
7, 293519, Note_on_c, 5, 47, 111
7, 293587, Note_off_c, 5, 47, 56
7, 293640, Note_on_c, 5, 50, 111
7, 293708, Note_off_c, 5, 50, 56
7, 293759, Note_on_c, 5, 53, 111
7, 293861, Note_off_c, 5, 53, 56
7, 293878, Note_on_c, 5, 55, 111
7, 293980, Note_off_c, 5, 55, 56
7, 293999, Note_on_c, 5, 53, 111
7, 294101, Note_off_c, 5, 53, 56
7, 294121, Note_on_c, 5, 50, 111
7, 294223, Note_off_c, 5, 50, 56
7, 294240, Note_on_c, 5, 47, 111
7, 294342, Note_off_c, 5, 47, 56
7, 294361, Note_on_c, 5, 50, 111
7, 294463, Note_off_c, 5, 50, 56
7, 294479, Note_on_c, 5, 47, 111
7, 294581, Note_off_c, 5, 47, 56
7, 294599, Note_on_c, 5, 43, 111
7, 294701, Note_off_c, 5, 43, 56
7, 294720, Note_on_c, 5, 41, 111
7, 294822, Note_off_c, 5, 41, 56
7, 294839, Note_on_c, 5, 38, 111
7, 294941, Note_off_c, 5, 38, 56
7, 294958, Note_on_c, 5, 35, 111
7, 295060, Note_off_c, 5, 35, 56
7, 295081, Note_on_c, 5, 38, 111
7, 295183, Note_off_c, 5, 38, 56
7, 295197, Note_on_c, 5, 31, 108
7, 295402, Note_off_c, 5, 31, 64
7, 296158, Note_on_c, 5, 24, 108
7, 296746, Note_off_c, 5, 24, 64
7, 296762, Note_on_c, 5, 24, 111
7, 296864, Note_off_c, 5, 24, 56
7, 296878, Note_on_c, 5, 28, 111
7, 296980, Note_off_c, 5, 28, 56
7, 297000, Note_on_c, 5, 31, 111
7, 297102, Note_off_c, 5, 31, 56
7, 297118, Note_on_c, 5, 36, 111
7, 297220, Note_off_c, 5, 36, 56
7, 297242, Note_on_c, 5, 40, 111
7, 297344, Note_off_c, 5, 40, 56
7, 297360, Note_on_c, 5, 43, 111
7, 297462, Note_off_c, 5, 43, 56
7, 297480, Note_on_c, 5, 48, 111
7, 297582, Note_off_c, 5, 48, 56
7, 297598, Note_on_c, 5, 52, 111
7, 297700, Note_off_c, 5, 52, 56
7, 297722, Note_on_c, 5, 48, 111
7, 297824, Note_off_c, 5, 48, 56
7, 297839, Note_on_c, 5, 43, 111
7, 297941, Note_off_c, 5, 43, 56
7, 297962, Note_on_c, 5, 40, 111
7, 298064, Note_off_c, 5, 40, 56
7, 298079, Note_on_c, 5, 34, 111
7, 298181, Note_off_c, 5, 34, 56
7, 298201, Note_on_c, 5, 33, 111
7, 298303, Note_off_c, 5, 33, 56
7, 298322, Note_on_c, 5, 34, 111
7, 298424, Note_off_c, 5, 34, 56
7, 298439, Note_on_c, 5, 34, 111
7, 298541, Note_off_c, 5, 34, 56
7, 298558, Note_on_c, 5, 34, 108
7, 299146, Note_off_c, 5, 34, 64
7, 299161, Note_on_c, 5, 33, 111
7, 299263, Note_off_c, 5, 33, 56
7, 299279, Note_on_c, 5, 34, 111
7, 299381, Note_off_c, 5, 34, 56
7, 299401, Note_on_c, 5, 34, 111
7, 299503, Note_off_c, 5, 34, 56
7, 299517, Note_on_c, 5, 34, 108
7, 299949, Note_off_c, 5, 34, 64
7, 300002, Note_on_c, 5, 33, 111
7, 300104, Note_off_c, 5, 33, 56
7, 300120, Note_on_c, 5, 32, 111
7, 300222, Note_off_c, 5, 32, 56
7, 300242, Note_on_c, 5, 33, 111
7, 300344, Note_off_c, 5, 33, 56
7, 300362, Note_on_c, 5, 33, 111
7, 300464, Note_off_c, 5, 33, 56
7, 300479, Note_on_c, 5, 33, 108
7, 301067, Note_off_c, 5, 33, 64
7, 301079, Note_on_c, 5, 32, 111
7, 301181, Note_off_c, 5, 32, 56
7, 301200, Note_on_c, 5, 33, 111
7, 301302, Note_off_c, 5, 33, 56
7, 301319, Note_on_c, 5, 33, 111
7, 301421, Note_off_c, 5, 33, 56
7, 301443, Note_on_c, 5, 33, 108
7, 301875, Note_off_c, 5, 33, 64
7, 301919, Note_on_c, 5, 35, 108
7, 302567, Note_off_c, 5, 35, 64
7, 302639, Note_on_c, 5, 31, 108
7, 302855, Note_off_c, 5, 31, 64
7, 302881, Note_on_c, 5, 35, 108
7, 303097, Note_off_c, 5, 35, 64
7, 303123, Note_on_c, 5, 31, 108
7, 303339, Note_off_c, 5, 31, 64
7, 303361, Note_on_c, 5, 38, 108
7, 303577, Note_off_c, 5, 38, 64
7, 303597, Note_on_c, 5, 36, 108
7, 303759, Note_off_c, 5, 36, 64
7, 303781, Note_on_c, 5, 35, 111
7, 303832, Note_off_c, 5, 35, 56
7, 303840, Note_on_c, 5, 36, 108
7, 304488, Note_off_c, 5, 36, 64
7, 304562, Note_on_c, 5, 31, 108
7, 304778, Note_off_c, 5, 31, 64
7, 304803, Note_on_c, 5, 36, 108
7, 305019, Note_off_c, 5, 36, 64
7, 305041, Note_on_c, 5, 31, 108
7, 305257, Note_off_c, 5, 31, 64
7, 305280, Note_on_c, 5, 40, 108
7, 305496, Note_off_c, 5, 40, 64
7, 305522, Note_on_c, 5, 38, 108
7, 305684, Note_off_c, 5, 38, 64
7, 305701, Note_on_c, 5, 36, 111
7, 305752, Note_off_c, 5, 36, 56
7, 305758, Note_on_c, 5, 35, 108
7, 306082, Note_off_c, 5, 35, 64
7, 306118, Note_on_c, 5, 31, 111
7, 306220, Note_off_c, 5, 31, 56
7, 306240, Note_on_c, 5, 38, 108
7, 306582, Note_off_c, 5, 38, 64
7, 306600, Note_on_c, 5, 36, 111
7, 306654, Note_off_c, 5, 36, 56
7, 306660, Note_on_c, 5, 35, 111
7, 306714, Note_off_c, 5, 35, 56
7, 306723, Note_on_c, 5, 36, 108
7, 307047, Note_off_c, 5, 36, 64
7, 307081, Note_on_c, 5, 31, 111
7, 307183, Note_off_c, 5, 31, 56
7, 307199, Note_on_c, 5, 40, 108
7, 307541, Note_off_c, 5, 40, 64
7, 307559, Note_on_c, 5, 38, 111
7, 307613, Note_off_c, 5, 38, 56
7, 307619, Note_on_c, 5, 36, 111
7, 307673, Note_off_c, 5, 36, 56
7, 307679, Note_on_c, 5, 43, 111
7, 307747, Note_off_c, 5, 43, 56
7, 307801, Note_on_c, 5, 55, 111
7, 307909, Note_off_c, 5, 55, 56
7, 307922, Note_on_c, 5, 53, 111
7, 308024, Note_off_c, 5, 53, 56
7, 308041, Note_on_c, 5, 52, 111
7, 308109, Note_off_c, 5, 52, 56
7, 308160, Note_on_c, 5, 50, 111
7, 308228, Note_off_c, 5, 50, 56
7, 308279, Note_on_c, 5, 52, 111
7, 308387, Note_off_c, 5, 52, 56
7, 308402, Note_on_c, 5, 50, 111
7, 308504, Note_off_c, 5, 50, 56
7, 308520, Note_on_c, 5, 48, 111
7, 308588, Note_off_c, 5, 48, 56
7, 308639, Note_on_c, 5, 47, 111
7, 308707, Note_off_c, 5, 47, 56
7, 308759, Note_on_c, 5, 48, 111
7, 308867, Note_off_c, 5, 48, 56
7, 308878, Note_on_c, 5, 47, 111
7, 308980, Note_off_c, 5, 47, 56
7, 309000, Note_on_c, 5, 45, 111
7, 309068, Note_off_c, 5, 45, 56
7, 309119, Note_on_c, 5, 43, 111
7, 309187, Note_off_c, 5, 43, 56
7, 309238, Note_on_c, 5, 43, 111
7, 309346, Note_off_c, 5, 43, 56
7, 309358, Note_on_c, 5, 45, 111
7, 309460, Note_off_c, 5, 45, 56
7, 309479, Note_on_c, 5, 38, 111
7, 309547, Note_off_c, 5, 38, 56
7, 309602, Note_on_c, 5, 43, 108
7, 309807, Note_off_c, 5, 43, 64
7, 310680, Note_on_c, 5, 43, 111
7, 310788, Note_off_c, 5, 43, 56
7, 310798, Note_on_c, 5, 41, 111
7, 310900, Note_off_c, 5, 41, 56
7, 310919, Note_on_c, 5, 50, 111
7, 310987, Note_off_c, 5, 50, 56
7, 311039, Note_on_c, 5, 41, 111
7, 311107, Note_off_c, 5, 41, 56
7, 311162, Note_on_c, 5, 40, 111
7, 311270, Note_off_c, 5, 40, 56
7, 311278, Note_on_c, 5, 38, 111
7, 311380, Note_off_c, 5, 38, 56
7, 311401, Note_on_c, 5, 47, 111
7, 311469, Note_off_c, 5, 47, 56
7, 311521, Note_on_c, 5, 36, 108
7, 311726, Note_off_c, 5, 36, 64
7, 311999, Note_on_c, 5, 36, 108
7, 312204, Note_off_c, 5, 36, 64
7, 312477, Note_on_c, 5, 36, 108
7, 312682, Note_off_c, 5, 36, 64
7, 312721, Note_on_c, 5, 31, 111
7, 312793, Note_off_c, 5, 31, 56
7, 312799, Note_on_c, 5, 33, 111
7, 312871, Note_off_c, 5, 33, 56
7, 312879, Note_on_c, 5, 35, 111
7, 312951, Note_off_c, 5, 35, 56
7, 312962, Note_on_c, 5, 36, 108
7, 313167, Note_off_c, 5, 36, 64
7, 314641, Note_on_c, 5, 47, 111
7, 314701, Note_off_c, 5, 47, 56
7, 314720, Note_on_c, 5, 48, 111
7, 314780, Note_off_c, 5, 48, 56
7, 314800, Note_on_c, 5, 50, 111
7, 314860, Note_off_c, 5, 50, 56
7, 314878, Note_on_c, 5, 43, 108
7, 315083, Note_off_c, 5, 43, 64
7, 315121, Note_on_c, 5, 41, 93
7, 315189, Note_off_c, 5, 41, 56
7, 315200, Note_on_c, 5, 40, 93
7, 315260, Note_off_c, 5, 40, 56
7, 315281, Note_on_c, 5, 38, 93
7, 315341, Note_off_c, 5, 38, 56
7, 315358, Note_on_c, 5, 36, 90
7, 315563, Note_off_c, 5, 36, 64
7, 315842, Note_on_c, 5, 36, 90
7, 316047, Note_off_c, 5, 36, 64
7, 316320, Note_on_c, 5, 36, 90
7, 316525, Note_off_c, 5, 36, 64
7, 316561, Note_on_c, 5, 31, 93
7, 316621, Note_off_c, 5, 31, 56
7, 316641, Note_on_c, 5, 33, 93
7, 316701, Note_off_c, 5, 33, 56
7, 316721, Note_on_c, 5, 35, 93
7, 316781, Note_off_c, 5, 35, 56
7, 316797, Note_on_c, 5, 36, 90
7, 316979, Note_off_c, 5, 36, 64
7, 318479, Note_on_c, 5, 31, 93
7, 318539, Note_off_c, 5, 31, 56
7, 318561, Note_on_c, 5, 33, 93
7, 318621, Note_off_c, 5, 33, 56
7, 318640, Note_on_c, 5, 35, 93
7, 318700, Note_off_c, 5, 35, 56
7, 318720, Note_on_c, 5, 36, 90
7, 318925, Note_off_c, 5, 36, 64
7, 320400, Note_on_c, 5, 33, 93
7, 320460, Note_off_c, 5, 33, 56
7, 320481, Note_on_c, 5, 35, 93
7, 320541, Note_off_c, 5, 35, 56
7, 320561, Note_on_c, 5, 37, 93
7, 320621, Note_off_c, 5, 37, 56
7, 320642, Note_on_c, 5, 38, 90
7, 320847, Note_off_c, 5, 38, 64
7, 324001, Note_on_c, 5, 41, 108
7, 324589, Note_off_c, 5, 41, 64
7, 324602, Note_on_c, 5, 41, 111
7, 324704, Note_off_c, 5, 41, 56
7, 324718, Note_on_c, 5, 41, 111
7, 324820, Note_off_c, 5, 41, 56
7, 324842, Note_on_c, 5, 41, 111
7, 324944, Note_off_c, 5, 41, 56
7, 324962, Note_on_c, 5, 41, 111
7, 325064, Note_off_c, 5, 41, 56
7, 325079, Note_on_c, 5, 41, 111
7, 325181, Note_off_c, 5, 41, 56
7, 325199, Note_on_c, 5, 41, 111
7, 325301, Note_off_c, 5, 41, 56
7, 325320, Note_on_c, 5, 41, 111
7, 325422, Note_off_c, 5, 41, 56
7, 325439, Note_on_c, 5, 41, 111
7, 325541, Note_off_c, 5, 41, 56
7, 325562, Note_on_c, 5, 41, 111
7, 325664, Note_off_c, 5, 41, 56
7, 325682, Note_on_c, 5, 41, 111
7, 325784, Note_off_c, 5, 41, 56
7, 325798, Note_on_c, 5, 41, 111
7, 325900, Note_off_c, 5, 41, 56
7, 325922, Note_on_c, 5, 41, 111
7, 326024, Note_off_c, 5, 41, 56
7, 326040, Note_on_c, 5, 41, 111
7, 326142, Note_off_c, 5, 41, 56
7, 326161, Note_on_c, 5, 42, 111
7, 326263, Note_off_c, 5, 42, 56
7, 326280, Note_on_c, 5, 42, 111
7, 326382, Note_off_c, 5, 42, 56
7, 326399, Note_on_c, 5, 43, 111
7, 326501, Note_off_c, 5, 43, 56
7, 326519, Note_on_c, 5, 43, 111
7, 326621, Note_off_c, 5, 43, 56
7, 326638, Note_on_c, 5, 44, 111
7, 326740, Note_off_c, 5, 44, 56
7, 326761, Note_on_c, 5, 44, 111
7, 326863, Note_off_c, 5, 44, 56
7, 326880, Note_on_c, 5, 45, 111
7, 326982, Note_off_c, 5, 45, 56
7, 327000, Note_on_c, 5, 45, 111
7, 327102, Note_off_c, 5, 45, 56
7, 327121, Note_on_c, 5, 47, 111
7, 327223, Note_off_c, 5, 47, 56
7, 327242, Note_on_c, 5, 47, 111
7, 327344, Note_off_c, 5, 47, 56
7, 327358, Note_on_c, 5, 48, 111
7, 327460, Note_off_c, 5, 48, 56
7, 327479, Note_on_c, 5, 36, 111
7, 327581, Note_off_c, 5, 36, 56
7, 327601, Note_on_c, 5, 38, 111
7, 327703, Note_off_c, 5, 38, 56
7, 327718, Note_on_c, 5, 40, 111
7, 327820, Note_off_c, 5, 40, 56
7, 327842, Note_on_c, 5, 41, 108
7, 327978, Note_off_c, 5, 41, 64
7, 328798, Note_on_c, 5, 43, 108
7, 328934, Note_off_c, 5, 43, 64
7, 337438, Note_on_c, 5, 40, 90
7, 338086, Note_off_c, 5, 40, 64
7, 338160, Note_on_c, 5, 38, 90
7, 338365, Note_off_c, 5, 38, 64
7, 338402, Note_on_c, 5, 36, 90
7, 338607, Note_off_c, 5, 36, 64
7, 338639, Note_on_c, 5, 35, 90
7, 338844, Note_off_c, 5, 35, 64
7, 338879, Note_on_c, 5, 35, 90
7, 339084, Note_off_c, 5, 35, 64
7, 339117, Note_on_c, 5, 35, 90
7, 339322, Note_off_c, 5, 35, 64
7, 339361, Note_on_c, 5, 40, 96
7, 340009, Note_off_c, 5, 40, 64
7, 340081, Note_on_c, 5, 38, 90
7, 340286, Note_off_c, 5, 38, 64
7, 340319, Note_on_c, 5, 36, 90
7, 340524, Note_off_c, 5, 36, 64
7, 340560, Note_on_c, 5, 35, 90
7, 340765, Note_off_c, 5, 35, 64
7, 340802, Note_on_c, 5, 35, 90
7, 341007, Note_off_c, 5, 35, 64
7, 341038, Note_on_c, 5, 35, 90
7, 341243, Note_off_c, 5, 35, 64
7, 341278, Note_on_c, 5, 35, 96
7, 341926, Note_off_c, 5, 35, 64
7, 342001, Note_on_c, 5, 36, 96
7, 342206, Note_off_c, 5, 36, 64
7, 342241, Note_on_c, 5, 29, 97
7, 342446, Note_off_c, 5, 29, 64
7, 342477, Note_on_c, 5, 28, 98
7, 342682, Note_off_c, 5, 28, 64
7, 342717, Note_on_c, 5, 28, 100
7, 342922, Note_off_c, 5, 28, 64
7, 342958, Note_on_c, 5, 28, 100
7, 343163, Note_off_c, 5, 28, 64
7, 343200, Note_on_c, 5, 28, 101
7, 343405, Note_off_c, 5, 28, 64
7, 343439, Note_on_c, 5, 28, 102
7, 343644, Note_off_c, 5, 28, 64
7, 343682, Note_on_c, 5, 28, 103
7, 343887, Note_off_c, 5, 28, 64
7, 343920, Note_on_c, 5, 28, 103
7, 344125, Note_off_c, 5, 28, 64
7, 344163, Note_on_c, 5, 28, 104
7, 344368, Note_off_c, 5, 28, 64
7, 344400, Note_on_c, 5, 28, 105
7, 344605, Note_off_c, 5, 28, 64
7, 344637, Note_on_c, 5, 28, 106
7, 344842, Note_off_c, 5, 28, 64
7, 344882, Note_on_c, 5, 28, 106
7, 345087, Note_off_c, 5, 28, 64
7, 345121, Note_on_c, 5, 29, 108
7, 347905, Note_off_c, 5, 29, 64
7, 347997, Note_on_c, 5, 30, 108
7, 349821, Note_off_c, 5, 30, 64
7, 349918, Note_on_c, 5, 31, 96
7, 351742, Note_off_c, 5, 31, 64
7, 351839, Note_on_c, 5, 31, 96
7, 353663, Note_off_c, 5, 31, 64
7, 353759, Note_on_c, 5, 31, 96
7, 355583, Note_off_c, 5, 31, 64
7, 355682, Note_on_c, 5, 31, 96
7, 357506, Note_off_c, 5, 31, 64
7, 357601, Note_on_c, 5, 31, 96
7, 358249, Note_off_c, 5, 31, 64
7, 358323, Note_on_c, 5, 36, 96
7, 358528, Note_off_c, 5, 36, 64
7, 358560, Note_on_c, 5, 31, 97
7, 358992, Note_off_c, 5, 31, 64
7, 359039, Note_on_c, 5, 36, 98
7, 359471, Note_off_c, 5, 36, 64
7, 359517, Note_on_c, 5, 38, 101
7, 360165, Note_off_c, 5, 38, 64
7, 360238, Note_on_c, 5, 38, 103
7, 360443, Note_off_c, 5, 38, 64
7, 360477, Note_on_c, 5, 37, 104
7, 360909, Note_off_c, 5, 37, 64
7, 360960, Note_on_c, 5, 38, 106
7, 361392, Note_off_c, 5, 38, 64
7, 361442, Note_on_c, 5, 40, 108
7, 363266, Note_off_c, 5, 40, 64
7, 363361, Note_on_c, 5, 41, 111
7, 363463, Note_off_c, 5, 41, 56
7, 363482, Note_on_c, 5, 29, 111
7, 363584, Note_off_c, 5, 29, 56
7, 363599, Note_on_c, 5, 29, 111
7, 363701, Note_off_c, 5, 29, 56
7, 363720, Note_on_c, 5, 29, 111
7, 363822, Note_off_c, 5, 29, 56
7, 363839, Note_on_c, 5, 29, 111
7, 363941, Note_off_c, 5, 29, 56
7, 363962, Note_on_c, 5, 29, 111
7, 364064, Note_off_c, 5, 29, 56
7, 364081, Note_on_c, 5, 29, 111
7, 364183, Note_off_c, 5, 29, 56
7, 364201, Note_on_c, 5, 29, 111
7, 364303, Note_off_c, 5, 29, 56
7, 364318, Note_on_c, 5, 29, 111
7, 364420, Note_off_c, 5, 29, 56
7, 364439, Note_on_c, 5, 29, 111
7, 364541, Note_off_c, 5, 29, 56
7, 364562, Note_on_c, 5, 29, 111
7, 364664, Note_off_c, 5, 29, 56
7, 364678, Note_on_c, 5, 29, 111
7, 364780, Note_off_c, 5, 29, 56
7, 364802, Note_on_c, 5, 29, 111
7, 364904, Note_off_c, 5, 29, 56
7, 364919, Note_on_c, 5, 29, 111
7, 365021, Note_off_c, 5, 29, 56
7, 365039, Note_on_c, 5, 29, 111
7, 365141, Note_off_c, 5, 29, 56
7, 365160, Note_on_c, 5, 29, 111
7, 365262, Note_off_c, 5, 29, 56
7, 365280, Note_on_c, 5, 29, 111
7, 365382, Note_off_c, 5, 29, 56
7, 365402, Note_on_c, 5, 29, 111
7, 365504, Note_off_c, 5, 29, 56
7, 365522, Note_on_c, 5, 29, 111
7, 365624, Note_off_c, 5, 29, 56
7, 365642, Note_on_c, 5, 29, 111
7, 365744, Note_off_c, 5, 29, 56
7, 365762, Note_on_c, 5, 29, 111
7, 365864, Note_off_c, 5, 29, 56
7, 365882, Note_on_c, 5, 29, 111
7, 365984, Note_off_c, 5, 29, 56
7, 366000, Note_on_c, 5, 29, 111
7, 366102, Note_off_c, 5, 29, 56
7, 366119, Note_on_c, 5, 29, 111
7, 366221, Note_off_c, 5, 29, 56
7, 366240, Note_on_c, 5, 29, 111
7, 366342, Note_off_c, 5, 29, 56
7, 366361, Note_on_c, 5, 29, 111
7, 366463, Note_off_c, 5, 29, 56
7, 366478, Note_on_c, 5, 29, 111
7, 366580, Note_off_c, 5, 29, 56
7, 366601, Note_on_c, 5, 29, 111
7, 366703, Note_off_c, 5, 29, 56
7, 366718, Note_on_c, 5, 29, 111
7, 366820, Note_off_c, 5, 29, 56
7, 366838, Note_on_c, 5, 29, 111
7, 366940, Note_off_c, 5, 29, 56
7, 366958, Note_on_c, 5, 29, 111
7, 367060, Note_off_c, 5, 29, 56
7, 367082, Note_on_c, 5, 29, 111
7, 367184, Note_off_c, 5, 29, 56
7, 367198, Note_on_c, 5, 31, 108
7, 367334, Note_off_c, 5, 31, 64
7, 368159, Note_on_c, 5, 31, 108
7, 368295, Note_off_c, 5, 31, 64
7, 369118, Note_on_c, 5, 36, 108
7, 369254, Note_off_c, 5, 36, 64
7, 370079, Note_on_c, 5, 31, 108
7, 370215, Note_off_c, 5, 31, 64
7, 371041, Note_on_c, 5, 36, 108
7, 371177, Note_off_c, 5, 36, 64
7, 372002, Note_on_c, 5, 31, 108
7, 372138, Note_off_c, 5, 31, 64
7, 381602, Note_on_c, 5, 28, 90
7, 381807, Note_off_c, 5, 28, 64
7, 381843, Note_on_c, 5, 38, 90
7, 382059, Note_off_c, 5, 38, 64
7, 382082, Note_on_c, 5, 36, 90
7, 382298, Note_off_c, 5, 36, 64
7, 382320, Note_on_c, 5, 35, 90
7, 382536, Note_off_c, 5, 35, 64
7, 382561, Note_on_c, 5, 33, 90
7, 382777, Note_off_c, 5, 33, 64
7, 382800, Note_on_c, 5, 31, 90
7, 383016, Note_off_c, 5, 31, 64
7, 383043, Note_on_c, 5, 29, 90
7, 383259, Note_off_c, 5, 29, 64
7, 383282, Note_on_c, 5, 28, 90
7, 383487, Note_off_c, 5, 28, 64
7, 383521, Note_on_c, 5, 29, 90
7, 384169, Note_off_c, 5, 29, 64
7, 384241, Note_on_c, 5, 31, 90
7, 384377, Note_off_c, 5, 31, 64
7, 384481, Note_on_c, 5, 33, 90
7, 385129, Note_off_c, 5, 33, 64
7, 385199, Note_on_c, 5, 31, 90
7, 385335, Note_off_c, 5, 31, 64
7, 385440, Note_on_c, 5, 30, 90
7, 386088, Note_off_c, 5, 30, 64
7, 386161, Note_on_c, 5, 31, 90
7, 386297, Note_off_c, 5, 31, 64
7, 386397, Note_on_c, 5, 32, 90
7, 387045, Note_off_c, 5, 32, 64
7, 387119, Note_on_c, 5, 33, 90
7, 387255, Note_off_c, 5, 33, 64
7, 387362, Note_on_c, 5, 35, 90
7, 387567, Note_off_c, 5, 35, 64
7, 387837, Note_on_c, 5, 36, 73
7, 388042, Note_off_c, 5, 36, 64
7, 388320, Note_on_c, 5, 29, 73
7, 388525, Note_off_c, 5, 29, 64
7, 388797, Note_on_c, 5, 31, 73
7, 389002, Note_off_c, 5, 31, 64
7, 389041, Note_on_c, 5, 31, 90
7, 389257, Note_off_c, 5, 31, 64
7, 389282, Note_on_c, 5, 36, 90
7, 389498, Note_off_c, 5, 36, 64
7, 389518, Note_on_c, 5, 31, 90
7, 389734, Note_off_c, 5, 31, 64
7, 389759, Note_on_c, 5, 40, 90
7, 389975, Note_off_c, 5, 40, 64
7, 389997, Note_on_c, 5, 38, 90
7, 390159, Note_off_c, 5, 38, 64
7, 390180, Note_on_c, 5, 36, 93
7, 390231, Note_off_c, 5, 36, 56
7, 390238, Note_on_c, 5, 43, 90
7, 390886, Note_off_c, 5, 43, 64
7, 397921, Note_on_c, 5, 28, 90
7, 398126, Note_off_c, 5, 28, 64
7, 398159, Note_on_c, 5, 38, 90
7, 398375, Note_off_c, 5, 38, 64
7, 398398, Note_on_c, 5, 36, 90
7, 398614, Note_off_c, 5, 36, 64
7, 398642, Note_on_c, 5, 35, 90
7, 398858, Note_off_c, 5, 35, 64
7, 398883, Note_on_c, 5, 33, 90
7, 399099, Note_off_c, 5, 33, 64
7, 399117, Note_on_c, 5, 31, 90
7, 399333, Note_off_c, 5, 31, 64
7, 399359, Note_on_c, 5, 29, 90
7, 399575, Note_off_c, 5, 29, 64
7, 399600, Note_on_c, 5, 28, 90
7, 399805, Note_off_c, 5, 28, 64
7, 399837, Note_on_c, 5, 29, 90
7, 400485, Note_off_c, 5, 29, 64
7, 400562, Note_on_c, 5, 31, 90
7, 400698, Note_off_c, 5, 31, 64
7, 400803, Note_on_c, 5, 33, 90
7, 401451, Note_off_c, 5, 33, 64
7, 401521, Note_on_c, 5, 31, 90
7, 401657, Note_off_c, 5, 31, 64
7, 401761, Note_on_c, 5, 30, 90
7, 402409, Note_off_c, 5, 30, 64
7, 402481, Note_on_c, 5, 31, 90
7, 402617, Note_off_c, 5, 31, 64
7, 402719, Note_on_c, 5, 32, 90
7, 403367, Note_off_c, 5, 32, 64
7, 403442, Note_on_c, 5, 33, 90
7, 403578, Note_off_c, 5, 33, 64
7, 403680, Note_on_c, 5, 34, 73
7, 403885, Note_off_c, 5, 34, 64
7, 410879, Note_on_c, 5, 46, 83
7, 411084, Note_off_c, 5, 46, 64
7, 411358, Note_on_c, 5, 46, 85
7, 411563, Note_off_c, 5, 46, 64
7, 411838, Note_on_c, 5, 46, 86
7, 412043, Note_off_c, 5, 46, 64
7, 412318, Note_on_c, 5, 44, 86
7, 412523, Note_off_c, 5, 44, 64
7, 412799, Note_on_c, 5, 44, 87
7, 413004, Note_off_c, 5, 44, 64
7, 413280, Note_on_c, 5, 43, 87
7, 413485, Note_off_c, 5, 43, 64
7, 413759, Note_on_c, 5, 43, 88
7, 413964, Note_off_c, 5, 43, 64
7, 414239, Note_on_c, 5, 43, 89
7, 414444, Note_off_c, 5, 43, 64
7, 414721, Note_on_c, 5, 31, 89
7, 414926, Note_off_c, 5, 31, 64
7, 415201, Note_on_c, 5, 36, 93
7, 415321, Note_off_c, 5, 36, 56
7, 415802, Note_on_c, 5, 31, 76
7, 415898, Note_off_c, 5, 31, 56
7, 415921, Note_on_c, 5, 31, 76
7, 416017, Note_off_c, 5, 31, 56
7, 416041, Note_on_c, 5, 31, 76
7, 416137, Note_off_c, 5, 31, 56
7, 416161, Note_on_c, 5, 36, 93
7, 416257, Note_off_c, 5, 36, 56
7, 416760, Note_on_c, 5, 31, 76
7, 416856, Note_off_c, 5, 31, 56
7, 416879, Note_on_c, 5, 31, 76
7, 416975, Note_off_c, 5, 31, 56
7, 417001, Note_on_c, 5, 31, 76
7, 417097, Note_off_c, 5, 31, 56
7, 417119, Note_on_c, 5, 36, 93
7, 417215, Note_off_c, 5, 36, 56
7, 417722, Note_on_c, 5, 31, 76
7, 417818, Note_off_c, 5, 31, 56
7, 417839, Note_on_c, 5, 31, 76
7, 417935, Note_off_c, 5, 31, 56
7, 417960, Note_on_c, 5, 31, 76
7, 418056, Note_off_c, 5, 31, 56
7, 418082, Note_on_c, 5, 36, 93
7, 418178, Note_off_c, 5, 36, 56
7, 418678, Note_on_c, 5, 31, 76
7, 418774, Note_off_c, 5, 31, 56
7, 418802, Note_on_c, 5, 31, 76
7, 418898, Note_off_c, 5, 31, 56
7, 418918, Note_on_c, 5, 31, 76
7, 419014, Note_off_c, 5, 31, 56
7, 419042, Note_on_c, 5, 36, 93
7, 419138, Note_off_c, 5, 36, 56
7, 419641, Note_on_c, 5, 31, 76
7, 419737, Note_off_c, 5, 31, 56
7, 419761, Note_on_c, 5, 31, 76
7, 419857, Note_off_c, 5, 31, 56
7, 419880, Note_on_c, 5, 31, 76
7, 419976, Note_off_c, 5, 31, 56
7, 420001, Note_on_c, 5, 36, 93
7, 420097, Note_off_c, 5, 36, 56
7, 420598, Note_on_c, 5, 31, 76
7, 420694, Note_off_c, 5, 31, 56
7, 420719, Note_on_c, 5, 31, 76
7, 420815, Note_off_c, 5, 31, 56
7, 420838, Note_on_c, 5, 31, 76
7, 420934, Note_off_c, 5, 31, 56
7, 420958, Note_on_c, 5, 36, 93
7, 421054, Note_off_c, 5, 36, 56
7, 421560, Note_on_c, 5, 31, 76
7, 421656, Note_off_c, 5, 31, 56
7, 421681, Note_on_c, 5, 31, 76
7, 421777, Note_off_c, 5, 31, 56
7, 421800, Note_on_c, 5, 31, 76
7, 421896, Note_off_c, 5, 31, 56
7, 421921, Note_on_c, 5, 36, 93
7, 422017, Note_off_c, 5, 36, 56
7, 422519, Note_on_c, 5, 31, 76
7, 422615, Note_off_c, 5, 31, 56
7, 422642, Note_on_c, 5, 31, 76
7, 422738, Note_off_c, 5, 31, 56
7, 422761, Note_on_c, 5, 31, 76
7, 422857, Note_off_c, 5, 31, 56
7, 422882, Note_on_c, 5, 46, 76
7, 422978, Note_off_c, 5, 46, 56
7, 423121, Note_on_c, 5, 46, 77
7, 423217, Note_off_c, 5, 46, 56
7, 423362, Note_on_c, 5, 44, 78
7, 423458, Note_off_c, 5, 44, 56
7, 423600, Note_on_c, 5, 44, 80
7, 423696, Note_off_c, 5, 44, 56
7, 423838, Note_on_c, 5, 43, 81
7, 423934, Note_off_c, 5, 43, 56
7, 424080, Note_on_c, 5, 43, 82
7, 424176, Note_off_c, 5, 43, 56
7, 424319, Note_on_c, 5, 43, 83
7, 424415, Note_off_c, 5, 43, 56
7, 424561, Note_on_c, 5, 46, 84
7, 424657, Note_off_c, 5, 46, 56
7, 424798, Note_on_c, 5, 46, 85
7, 424894, Note_off_c, 5, 46, 56
7, 425038, Note_on_c, 5, 46, 85
7, 425134, Note_off_c, 5, 46, 56
7, 425278, Note_on_c, 5, 44, 86
7, 425374, Note_off_c, 5, 44, 56
7, 425519, Note_on_c, 5, 44, 88
7, 425615, Note_off_c, 5, 44, 56
7, 425762, Note_on_c, 5, 43, 89
7, 425858, Note_off_c, 5, 43, 56
7, 425998, Note_on_c, 5, 43, 90
7, 426094, Note_off_c, 5, 43, 56
7, 426241, Note_on_c, 5, 43, 91
7, 426337, Note_off_c, 5, 43, 56
7, 426478, Note_on_c, 5, 46, 92
7, 426574, Note_off_c, 5, 46, 56
7, 426601, Note_on_c, 5, 46, 93
7, 426697, Note_off_c, 5, 46, 56
7, 426722, Note_on_c, 5, 46, 93
7, 426818, Note_off_c, 5, 46, 56
7, 426838, Note_on_c, 5, 46, 93
7, 426934, Note_off_c, 5, 46, 56
7, 426962, Note_on_c, 5, 46, 93
7, 427058, Note_off_c, 5, 46, 56
7, 427080, Note_on_c, 5, 46, 93
7, 427176, Note_off_c, 5, 46, 56
7, 427199, Note_on_c, 5, 44, 93
7, 427295, Note_off_c, 5, 44, 56
7, 427320, Note_on_c, 5, 44, 93
7, 427416, Note_off_c, 5, 44, 56
7, 427438, Note_on_c, 5, 44, 93
7, 427534, Note_off_c, 5, 44, 56
7, 427561, Note_on_c, 5, 44, 93
7, 427657, Note_off_c, 5, 44, 56
7, 427678, Note_on_c, 5, 43, 93
7, 427774, Note_off_c, 5, 43, 56
7, 427800, Note_on_c, 5, 43, 93
7, 427896, Note_off_c, 5, 43, 56
7, 427919, Note_on_c, 5, 43, 93
7, 428015, Note_off_c, 5, 43, 56
7, 428040, Note_on_c, 5, 43, 93
7, 428136, Note_off_c, 5, 43, 56
7, 428162, Note_on_c, 5, 31, 93
7, 428258, Note_off_c, 5, 31, 56
7, 428282, Note_on_c, 5, 31, 93
7, 428378, Note_off_c, 5, 31, 56
7, 428400, Note_on_c, 5, 31, 93
7, 428496, Note_off_c, 5, 31, 56
7, 428521, Note_on_c, 5, 31, 93
7, 428617, Note_off_c, 5, 31, 56
7, 428641, Note_on_c, 5, 36, 111
7, 428737, Note_off_c, 5, 36, 56
7, 429117, Note_on_c, 5, 36, 108
7, 429309, Note_off_c, 5, 36, 67
7, 429361, Note_on_c, 5, 40, 108
7, 429553, Note_off_c, 5, 40, 68
7, 429598, Note_on_c, 5, 43, 108
7, 429886, Note_off_c, 5, 43, 68
7, 429960, Note_on_c, 5, 41, 111
7, 430056, Note_off_c, 5, 41, 56
7, 430078, Note_on_c, 5, 40, 111
7, 430174, Note_off_c, 5, 40, 56
7, 430198, Note_on_c, 5, 38, 111
7, 430294, Note_off_c, 5, 38, 56
7, 430322, Note_on_c, 5, 36, 111
7, 430418, Note_off_c, 5, 36, 56
7, 430442, Note_on_c, 5, 38, 111
7, 430538, Note_off_c, 5, 38, 56
7, 430558, Note_on_c, 5, 40, 108
7, 430846, Note_off_c, 5, 40, 68
7, 430920, Note_on_c, 5, 40, 111
7, 431016, Note_off_c, 5, 40, 56
7, 431041, Note_on_c, 5, 40, 111
7, 431137, Note_off_c, 5, 40, 56
7, 431160, Note_on_c, 5, 38, 111
7, 431256, Note_off_c, 5, 38, 56
7, 431279, Note_on_c, 5, 40, 111
7, 431375, Note_off_c, 5, 40, 56
7, 431401, Note_on_c, 5, 41, 111
7, 431497, Note_off_c, 5, 41, 56
7, 431520, Note_on_c, 5, 43, 108
7, 431808, Note_off_c, 5, 43, 69
7, 431882, Note_on_c, 5, 43, 111
7, 431978, Note_off_c, 5, 43, 56
7, 431998, Note_on_c, 5, 43, 111
7, 432094, Note_off_c, 5, 43, 56
7, 432119, Note_on_c, 5, 41, 111
7, 432215, Note_off_c, 5, 41, 56
7, 432240, Note_on_c, 5, 43, 111
7, 432336, Note_off_c, 5, 43, 56
7, 432358, Note_on_c, 5, 47, 111
7, 432454, Note_off_c, 5, 47, 56
7, 432481, Note_on_c, 5, 48, 111
7, 432577, Note_off_c, 5, 48, 56
7, 432600, Note_on_c, 5, 47, 111
7, 432696, Note_off_c, 5, 47, 56
7, 432718, Note_on_c, 5, 48, 111
7, 432814, Note_off_c, 5, 48, 56
7, 432838, Note_on_c, 5, 50, 111
7, 432934, Note_off_c, 5, 50, 56
7, 432958, Note_on_c, 5, 52, 111
7, 433054, Note_off_c, 5, 52, 56
7, 433081, Note_on_c, 5, 38, 111
7, 433177, Note_off_c, 5, 38, 56
7, 433202, Note_on_c, 5, 40, 111
7, 433298, Note_off_c, 5, 40, 56
7, 433319, Note_on_c, 5, 41, 111
7, 433415, Note_off_c, 5, 41, 56
7, 433441, Note_on_c, 5, 43, 108
7, 434209, Note_off_c, 5, 43, 69
7, 434398, Note_on_c, 5, 40, 108
7, 435166, Note_off_c, 5, 40, 69
7, 435359, Note_on_c, 5, 36, 111
7, 435479, Note_off_c, 5, 36, 56
7, 435838, Note_on_c, 5, 31, 111
7, 435958, Note_off_c, 5, 31, 56
7, 436322, Note_on_c, 5, 36, 111
7, 436442, Note_off_c, 5, 36, 56
7, 436798, Note_on_c, 5, 31, 111
7, 436918, Note_off_c, 5, 31, 56
7, 437278, Note_on_c, 5, 36, 111
7, 437398, Note_off_c, 5, 36, 56
7, 437760, Note_on_c, 5, 31, 111
7, 437880, Note_off_c, 5, 31, 56
7, 438240, Note_on_c, 5, 36, 111
7, 438360, Note_off_c, 5, 36, 56
7, 438718, Note_on_c, 5, 31, 111
7, 438838, Note_off_c, 5, 31, 56
7, 439200, Note_on_c, 5, 36, 111
7, 439320, Note_off_c, 5, 36, 56
7, 439679, Note_on_c, 5, 31, 111
7, 439799, Note_off_c, 5, 31, 56
7, 440159, Note_on_c, 5, 36, 111
7, 440279, Note_off_c, 5, 36, 56
7, 440638, Note_on_c, 5, 31, 111
7, 440758, Note_off_c, 5, 31, 56
7, 441118, Note_on_c, 5, 48, 108
7, 441886, Note_off_c, 5, 48, 71
7, 442080, Note_on_c, 5, 48, 108
7, 442656, Note_off_c, 5, 48, 72
7, 442802, Note_on_c, 5, 43, 111
7, 442898, Note_off_c, 5, 43, 56
7, 442918, Note_on_c, 5, 40, 111
7, 443014, Note_off_c, 5, 40, 56
7, 443042, Note_on_c, 5, 36, 111
7, 443138, Note_off_c, 5, 36, 56
7, 443401, Note_on_c, 5, 36, 111
7, 443497, Note_off_c, 5, 36, 56
7, 443518, Note_on_c, 5, 36, 111
7, 443614, Note_off_c, 5, 36, 56
7, 443640, Note_on_c, 5, 36, 111
7, 443736, Note_off_c, 5, 36, 56
7, 443759, Note_on_c, 5, 36, 111
7, 443855, Note_off_c, 5, 36, 56
7, 443882, Note_on_c, 5, 36, 111
7, 443978, Note_off_c, 5, 36, 56
7, 444000, Note_on_c, 5, 36, 111
7, 444096, Note_off_c, 5, 36, 56
7, 444360, Note_on_c, 5, 36, 111
7, 444456, Note_off_c, 5, 36, 56
7, 444481, Note_on_c, 5, 36, 111
7, 444577, Note_off_c, 5, 36, 56
7, 444600, Note_on_c, 5, 36, 111
7, 444696, Note_off_c, 5, 36, 56
7, 444722, Note_on_c, 5, 36, 111
7, 444818, Note_off_c, 5, 36, 56
7, 444842, Note_on_c, 5, 36, 111
7, 444938, Note_off_c, 5, 36, 56
7, 444961, Note_on_c, 5, 36, 111
7, 445057, Note_off_c, 5, 36, 56
7, 445198, Note_on_c, 5, 36, 111
7, 445294, Note_off_c, 5, 36, 56
7, 445319, Note_on_c, 5, 36, 111
7, 445415, Note_off_c, 5, 36, 56
7, 445440, Note_on_c, 5, 36, 111
7, 445536, Note_off_c, 5, 36, 56
7, 445681, Note_on_c, 5, 36, 111
7, 445777, Note_off_c, 5, 36, 56
7, 445802, Note_on_c, 5, 36, 111
7, 445898, Note_off_c, 5, 36, 56
7, 445920, Note_on_c, 5, 36, 111
7, 446016, Note_off_c, 5, 36, 56
7, 446161, Note_on_c, 5, 36, 111
7, 446257, Note_off_c, 5, 36, 56
7, 446278, Note_on_c, 5, 36, 111
7, 446374, Note_off_c, 5, 36, 56
7, 446398, Note_on_c, 5, 36, 111
7, 446494, Note_off_c, 5, 36, 56
7, 446641, Note_on_c, 5, 36, 111
7, 446737, Note_off_c, 5, 36, 56
7, 446762, Note_on_c, 5, 36, 111
7, 446858, Note_off_c, 5, 36, 56
7, 446881, Note_on_c, 5, 36, 111
7, 446977, Note_off_c, 5, 36, 56
7, 447001, Note_on_c, 5, 40, 111
7, 447097, Note_off_c, 5, 40, 56
7, 447120, Note_on_c, 5, 43, 111
7, 447216, Note_off_c, 5, 43, 56
7, 447238, Note_on_c, 5, 48, 111
7, 447334, Note_off_c, 5, 48, 56
7, 447358, Note_on_c, 5, 52, 111
7, 447454, Note_off_c, 5, 52, 56
7, 447478, Note_on_c, 5, 55, 111
7, 447574, Note_off_c, 5, 55, 56
7, 447602, Note_on_c, 5, 52, 111
7, 447698, Note_off_c, 5, 52, 56
7, 447722, Note_on_c, 5, 48, 111
7, 447818, Note_off_c, 5, 48, 56
7, 447839, Note_on_c, 5, 43, 111
7, 447935, Note_off_c, 5, 43, 56
7, 447960, Note_on_c, 5, 40, 111
7, 448056, Note_off_c, 5, 40, 56
7, 448078, Note_on_c, 5, 36, 111
7, 448174, Note_off_c, 5, 36, 56
7, 448200, Note_on_c, 5, 31, 111
7, 448296, Note_off_c, 5, 31, 56
7, 448320, Note_on_c, 5, 28, 111
7, 448416, Note_off_c, 5, 28, 56
7, 448438, Note_on_c, 5, 24, 111
7, 448534, Note_off_c, 5, 24, 56
7, 448562, Note_on_c, 5, 36, 111
7, 448658, Note_off_c, 5, 36, 56
7, 448679, Note_on_c, 5, 36, 111
7, 448775, Note_off_c, 5, 36, 56
7, 448798, Note_on_c, 5, 36, 111
7, 448918, Note_off_c, 5, 36, 56
7, 449759, Note_on_c, 5, 36, 111
7, 449879, Note_off_c, 5, 36, 56
7, 450719, Note_on_c, 5, 36, 111
7, 450839, Note_off_c, 5, 36, 56
7, 451679, Note_on_c, 5, 36, 111
7, 451799, Note_off_c, 5, 36, 56
7, 452158, Note_on_c, 5, 36, 111
7, 452278, Note_off_c, 5, 36, 56
7, 452638, Note_on_c, 5, 36, 111
7, 452758, Note_off_c, 5, 36, 56
7, 453601, Note_on_c, 5, 36, 111
7, 453721, Note_off_c, 5, 36, 56
7, 454559, Note_on_c, 5, 36, 108
7, 455519, Note_off_c, 5, 36, 76
7, 455519, End_track
8, 0, Start_track
8, 0, Title_t, "Horns1"
8, 0, Program_c, 6, 60
8, 0, Control_c, 6, 7, 102
8, 0, Control_c, 6, 91, 47
8, 0, Control_c, 6, 93, 10
8, 0, Control_c, 6, 10, 49
8, 3, Note_on_c, 6, 72, 108
8, 435, Note_off_c, 6, 72, 64
8, 482, Note_on_c, 6, 76, 108
8, 914, Note_off_c, 6, 76, 64
8, 958, Note_on_c, 6, 79, 108
8, 1606, Note_off_c, 6, 79, 64
8, 1679, Note_on_c, 6, 77, 111
8, 1760, Note_off_c, 6, 77, 56
8, 1920, Note_on_c, 6, 76, 111
8, 2001, Note_off_c, 6, 76, 56
8, 2161, Note_on_c, 6, 74, 111
8, 2242, Note_off_c, 6, 74, 56
8, 2401, Note_on_c, 6, 72, 111
8, 2482, Note_off_c, 6, 72, 56
8, 2641, Note_on_c, 6, 74, 111
8, 2722, Note_off_c, 6, 74, 56
8, 2883, Note_on_c, 6, 72, 108
8, 3531, Note_off_c, 6, 72, 64
8, 3601, Note_on_c, 6, 72, 108
8, 3738, Note_off_c, 6, 72, 64
8, 3780, Note_on_c, 6, 72, 114
8, 3820, Note_off_c, 6, 72, 56
8, 3837, Note_on_c, 6, 74, 108
8, 4485, Note_off_c, 6, 74, 64
8, 4562, Note_on_c, 6, 74, 108
8, 4699, Note_off_c, 6, 74, 64
8, 4740, Note_on_c, 6, 74, 114
8, 4780, Note_off_c, 6, 74, 56
8, 4801, Note_on_c, 6, 76, 108
8, 5389, Note_off_c, 6, 76, 64
8, 5400, Note_on_c, 6, 72, 111
8, 5481, Note_off_c, 6, 72, 56
8, 5520, Note_on_c, 6, 72, 111
8, 5601, Note_off_c, 6, 72, 56
8, 5641, Note_on_c, 6, 72, 111
8, 5722, Note_off_c, 6, 72, 56
8, 5762, Note_on_c, 6, 72, 108
8, 5946, Note_off_c, 6, 72, 64
8, 6001, Note_on_c, 6, 72, 111
8, 6082, Note_off_c, 6, 72, 56
8, 6121, Note_on_c, 6, 72, 111
8, 6202, Note_off_c, 6, 72, 56
8, 6237, Note_on_c, 6, 72, 108
8, 6421, Note_off_c, 6, 72, 64
8, 6481, Note_on_c, 6, 72, 111
8, 6562, Note_off_c, 6, 72, 56
8, 6599, Note_on_c, 6, 72, 111
8, 6680, Note_off_c, 6, 72, 56
8, 6723, Note_on_c, 6, 72, 108
8, 7311, Note_off_c, 6, 72, 64
8, 7321, Note_on_c, 6, 72, 111
8, 7402, Note_off_c, 6, 72, 56
8, 7439, Note_on_c, 6, 72, 111
8, 7520, Note_off_c, 6, 72, 56
8, 7561, Note_on_c, 6, 72, 111
8, 7642, Note_off_c, 6, 72, 56
8, 7679, Note_on_c, 6, 72, 108
8, 7863, Note_off_c, 6, 72, 64
8, 7919, Note_on_c, 6, 72, 111
8, 8000, Note_off_c, 6, 72, 56
8, 8039, Note_on_c, 6, 72, 111
8, 8120, Note_off_c, 6, 72, 56
8, 8157, Note_on_c, 6, 72, 108
8, 8341, Note_off_c, 6, 72, 64
8, 8400, Note_on_c, 6, 72, 111
8, 8481, Note_off_c, 6, 72, 56
8, 8519, Note_on_c, 6, 72, 111
8, 8600, Note_off_c, 6, 72, 56
8, 8642, Note_on_c, 6, 72, 108
8, 9230, Note_off_c, 6, 72, 64
8, 9239, Note_on_c, 6, 72, 111
8, 9320, Note_off_c, 6, 72, 56
8, 9361, Note_on_c, 6, 72, 111
8, 9442, Note_off_c, 6, 72, 56
8, 9479, Note_on_c, 6, 72, 111
8, 9560, Note_off_c, 6, 72, 56
8, 9598, Note_on_c, 6, 72, 108
8, 9782, Note_off_c, 6, 72, 64
8, 9839, Note_on_c, 6, 72, 111
8, 9920, Note_off_c, 6, 72, 56
8, 9959, Note_on_c, 6, 72, 111
8, 10040, Note_off_c, 6, 72, 56
8, 10077, Note_on_c, 6, 72, 108
8, 10261, Note_off_c, 6, 72, 64
8, 10319, Note_on_c, 6, 72, 111
8, 10400, Note_off_c, 6, 72, 56
8, 10441, Note_on_c, 6, 72, 111
8, 10522, Note_off_c, 6, 72, 56
8, 10562, Note_on_c, 6, 72, 108
8, 11210, Note_off_c, 6, 72, 64
8, 11278, Note_on_c, 6, 76, 108
8, 11415, Note_off_c, 6, 76, 64
8, 11460, Note_on_c, 6, 76, 114
8, 11500, Note_off_c, 6, 76, 56
8, 11523, Note_on_c, 6, 74, 108
8, 11707, Note_off_c, 6, 74, 64
8, 11761, Note_on_c, 6, 74, 108
8, 11898, Note_off_c, 6, 74, 64
8, 11940, Note_on_c, 6, 74, 114
8, 11980, Note_off_c, 6, 74, 56
8, 12000, Note_on_c, 6, 76, 108
8, 12184, Note_off_c, 6, 76, 64
8, 12240, Note_on_c, 6, 76, 108
8, 12377, Note_off_c, 6, 76, 64
8, 12420, Note_on_c, 6, 76, 114
8, 12460, Note_off_c, 6, 76, 56
8, 12478, Note_on_c, 6, 74, 108
8, 12662, Note_off_c, 6, 74, 64
8, 12721, Note_on_c, 6, 74, 108
8, 13153, Note_off_c, 6, 74, 64
8, 13198, Note_on_c, 6, 76, 108
8, 13335, Note_off_c, 6, 76, 64
8, 13380, Note_on_c, 6, 76, 114
8, 13420, Note_off_c, 6, 76, 56
8, 13438, Note_on_c, 6, 74, 108
8, 13622, Note_off_c, 6, 74, 64
8, 13680, Note_on_c, 6, 74, 108
8, 13817, Note_off_c, 6, 74, 64
8, 13860, Note_on_c, 6, 74, 114
8, 13900, Note_off_c, 6, 74, 56
8, 13921, Note_on_c, 6, 76, 108
8, 14105, Note_off_c, 6, 76, 64
8, 14162, Note_on_c, 6, 76, 108
8, 14299, Note_off_c, 6, 76, 64
8, 14340, Note_on_c, 6, 76, 114
8, 14380, Note_off_c, 6, 76, 56
8, 14398, Note_on_c, 6, 74, 108
8, 14582, Note_off_c, 6, 74, 64
8, 14638, Note_on_c, 6, 74, 108
8, 15070, Note_off_c, 6, 74, 64
8, 15122, Note_on_c, 6, 76, 108
8, 15259, Note_off_c, 6, 76, 64
8, 15300, Note_on_c, 6, 76, 114
8, 15340, Note_off_c, 6, 76, 56
8, 15362, Note_on_c, 6, 74, 108
8, 15499, Note_off_c, 6, 74, 64
8, 15540, Note_on_c, 6, 74, 114
8, 15580, Note_off_c, 6, 74, 56
8, 15599, Note_on_c, 6, 74, 108
8, 15736, Note_off_c, 6, 74, 64
8, 15780, Note_on_c, 6, 74, 114
8, 15820, Note_off_c, 6, 74, 56
8, 15841, Note_on_c, 6, 76, 108
8, 15978, Note_off_c, 6, 76, 64
8, 16020, Note_on_c, 6, 76, 114
8, 16060, Note_off_c, 6, 76, 56
8, 16080, Note_on_c, 6, 76, 108
8, 16217, Note_off_c, 6, 76, 64
8, 16260, Note_on_c, 6, 76, 114
8, 16300, Note_off_c, 6, 76, 56
8, 16323, Note_on_c, 6, 74, 108
8, 16507, Note_off_c, 6, 74, 64
8, 16560, Note_on_c, 6, 74, 108
8, 16744, Note_off_c, 6, 74, 64
8, 16801, Note_on_c, 6, 76, 108
8, 16985, Note_off_c, 6, 76, 64
8, 17039, Note_on_c, 6, 76, 108
8, 17223, Note_off_c, 6, 76, 64
8, 17283, Note_on_c, 6, 74, 108
8, 17467, Note_off_c, 6, 74, 64
8, 17519, Note_on_c, 6, 74, 108
8, 17703, Note_off_c, 6, 74, 64
8, 17760, Note_on_c, 6, 76, 108
8, 17944, Note_off_c, 6, 76, 64
8, 18001, Note_on_c, 6, 76, 108
8, 18185, Note_off_c, 6, 76, 64
8, 18240, Note_on_c, 6, 74, 111
8, 18321, Note_off_c, 6, 74, 56
8, 18420, Note_on_c, 6, 76, 114
8, 18460, Note_off_c, 6, 76, 56
8, 18481, Note_on_c, 6, 76, 108
8, 18665, Note_off_c, 6, 76, 64
8, 18719, Note_on_c, 6, 74, 111
8, 18800, Note_off_c, 6, 74, 56
8, 18900, Note_on_c, 6, 76, 114
8, 18940, Note_off_c, 6, 76, 56
8, 18961, Note_on_c, 6, 76, 108
8, 19145, Note_off_c, 6, 76, 64
8, 19199, Note_on_c, 6, 74, 111
8, 19280, Note_off_c, 6, 74, 56
8, 19380, Note_on_c, 6, 76, 114
8, 19420, Note_off_c, 6, 76, 56
8, 19439, Note_on_c, 6, 76, 108
8, 19623, Note_off_c, 6, 76, 64
8, 19679, Note_on_c, 6, 74, 111
8, 19760, Note_off_c, 6, 74, 56
8, 19860, Note_on_c, 6, 76, 114
8, 19900, Note_off_c, 6, 76, 56
8, 19919, Note_on_c, 6, 76, 108
8, 20103, Note_off_c, 6, 76, 64
8, 20161, Note_on_c, 6, 74, 111
8, 20242, Note_off_c, 6, 74, 56
8, 23997, Note_on_c, 6, 72, 108
8, 24645, Note_off_c, 6, 72, 64
8, 24719, Note_on_c, 6, 67, 108
8, 24913, Note_off_c, 6, 67, 64
8, 24962, Note_on_c, 6, 76, 108
8, 25646, Note_off_c, 6, 76, 64
8, 25682, Note_on_c, 6, 74, 108
8, 25827, Note_off_c, 6, 74, 64
8, 25859, Note_on_c, 6, 72, 114
8, 25907, Note_off_c, 6, 72, 56
8, 25917, Note_on_c, 6, 74, 108
8, 27741, Note_off_c, 6, 74, 64
8, 27837, Note_on_c, 6, 74, 108
8, 28485, Note_off_c, 6, 74, 64
8, 28562, Note_on_c, 6, 67, 108
8, 28756, Note_off_c, 6, 67, 64
8, 28798, Note_on_c, 6, 77, 108
8, 29482, Note_off_c, 6, 77, 64
8, 29520, Note_on_c, 6, 76, 108
8, 29665, Note_off_c, 6, 76, 64
8, 29700, Note_on_c, 6, 74, 114
8, 29740, Note_off_c, 6, 74, 56
8, 29760, Note_on_c, 6, 74, 108
8, 29954, Note_off_c, 6, 74, 64
8, 29997, Note_on_c, 6, 76, 108
8, 31581, Note_off_c, 6, 76, 64
8, 31681, Note_on_c, 6, 72, 108
8, 32545, Note_off_c, 6, 72, 64
8, 32642, Note_on_c, 6, 72, 108
8, 33506, Note_off_c, 6, 72, 64
8, 33598, Note_on_c, 6, 74, 108
8, 34462, Note_off_c, 6, 74, 64
8, 34563, Note_on_c, 6, 74, 108
8, 35427, Note_off_c, 6, 74, 64
8, 35521, Note_on_c, 6, 74, 108
8, 36385, Note_off_c, 6, 74, 64
8, 36482, Note_on_c, 6, 74, 108
8, 37346, Note_off_c, 6, 74, 64
8, 37441, Note_on_c, 6, 74, 108
8, 38305, Note_off_c, 6, 74, 64
8, 38398, Note_on_c, 6, 74, 108
8, 38986, Note_off_c, 6, 74, 64
8, 39003, Note_on_c, 6, 74, 108
8, 39187, Note_off_c, 6, 74, 64
8, 39241, Note_on_c, 6, 74, 108
8, 39435, Note_off_c, 6, 74, 64
8, 39480, Note_on_c, 6, 74, 108
8, 39664, Note_off_c, 6, 74, 64
8, 39720, Note_on_c, 6, 74, 111
8, 39801, Note_off_c, 6, 74, 56
8, 39841, Note_on_c, 6, 74, 111
8, 39922, Note_off_c, 6, 74, 56
8, 39959, Note_on_c, 6, 74, 111
8, 40056, Note_off_c, 6, 74, 56
8, 40080, Note_on_c, 6, 76, 111
8, 40161, Note_off_c, 6, 76, 56
8, 40200, Note_on_c, 6, 76, 111
8, 40261, Note_off_c, 6, 76, 56
8, 40321, Note_on_c, 6, 74, 111
8, 40402, Note_off_c, 6, 74, 56
8, 42240, Note_on_c, 6, 79, 108
8, 43104, Note_off_c, 6, 79, 64
8, 43198, Note_on_c, 6, 79, 108
8, 43846, Note_off_c, 6, 79, 64
8, 45839, Note_on_c, 6, 74, 93
8, 45900, Note_off_c, 6, 74, 56
8, 45921, Note_on_c, 6, 74, 93
8, 45982, Note_off_c, 6, 74, 56
8, 45999, Note_on_c, 6, 74, 93
8, 46060, Note_off_c, 6, 74, 56
8, 46078, Note_on_c, 6, 67, 90
8, 46262, Note_off_c, 6, 67, 64
8, 46320, Note_on_c, 6, 67, 93
8, 46381, Note_off_c, 6, 67, 56
8, 46400, Note_on_c, 6, 67, 93
8, 46461, Note_off_c, 6, 67, 56
8, 46480, Note_on_c, 6, 67, 93
8, 46541, Note_off_c, 6, 67, 56
8, 46558, Note_on_c, 6, 67, 90
8, 46742, Note_off_c, 6, 67, 64
8, 46801, Note_on_c, 6, 67, 93
8, 46862, Note_off_c, 6, 67, 56
8, 46881, Note_on_c, 6, 67, 93
8, 46942, Note_off_c, 6, 67, 56
8, 46960, Note_on_c, 6, 67, 93
8, 47021, Note_off_c, 6, 67, 56
8, 47037, Note_on_c, 6, 67, 90
8, 47221, Note_off_c, 6, 67, 64
8, 47280, Note_on_c, 6, 67, 93
8, 47341, Note_off_c, 6, 67, 56
8, 47359, Note_on_c, 6, 67, 93
8, 47420, Note_off_c, 6, 67, 56
8, 47440, Note_on_c, 6, 67, 93
8, 47501, Note_off_c, 6, 67, 56
8, 47517, Note_on_c, 6, 67, 90
8, 47701, Note_off_c, 6, 67, 64
8, 51601, Note_on_c, 6, 72, 95
8, 51662, Note_off_c, 6, 72, 56
8, 51679, Note_on_c, 6, 74, 96
8, 51740, Note_off_c, 6, 74, 56
8, 51760, Note_on_c, 6, 76, 96
8, 51821, Note_off_c, 6, 76, 56
8, 51840, Note_on_c, 6, 77, 93
8, 52024, Note_off_c, 6, 77, 64
8, 52080, Note_on_c, 6, 74, 98
8, 52141, Note_off_c, 6, 74, 56
8, 52161, Note_on_c, 6, 76, 98
8, 52222, Note_off_c, 6, 76, 56
8, 52241, Note_on_c, 6, 77, 99
8, 52302, Note_off_c, 6, 77, 56
8, 52322, Note_on_c, 6, 76, 96
8, 52506, Note_off_c, 6, 76, 64
8, 52559, Note_on_c, 6, 72, 100
8, 52620, Note_off_c, 6, 72, 56
8, 52640, Note_on_c, 6, 74, 101
8, 52701, Note_off_c, 6, 74, 56
8, 52720, Note_on_c, 6, 76, 101
8, 52781, Note_off_c, 6, 76, 56
8, 52802, Note_on_c, 6, 77, 100
8, 54626, Note_off_c, 6, 77, 64
8, 54718, Note_on_c, 6, 76, 108
8, 56854, Note_off_c, 6, 76, 64
8, 56878, Note_on_c, 6, 79, 108
8, 57062, Note_off_c, 6, 79, 64
8, 57119, Note_on_c, 6, 79, 108
8, 57303, Note_off_c, 6, 79, 64
8, 57362, Note_on_c, 6, 79, 108
8, 57546, Note_off_c, 6, 79, 64
8, 57603, Note_on_c, 6, 79, 108
8, 57787, Note_off_c, 6, 79, 64
8, 57837, Note_on_c, 6, 74, 108
8, 58021, Note_off_c, 6, 74, 64
8, 58078, Note_on_c, 6, 74, 108
8, 58262, Note_off_c, 6, 74, 64
8, 58317, Note_on_c, 6, 74, 108
8, 58501, Note_off_c, 6, 74, 64
8, 58561, Note_on_c, 6, 72, 108
8, 58683, Note_off_c, 6, 72, 64
8, 59522, Note_on_c, 6, 74, 108
8, 59644, Note_off_c, 6, 74, 64
8, 68160, Note_on_c, 6, 79, 90
8, 68808, Note_off_c, 6, 79, 64
8, 68882, Note_on_c, 6, 78, 90
8, 69066, Note_off_c, 6, 78, 64
8, 69121, Note_on_c, 6, 76, 90
8, 69305, Note_off_c, 6, 76, 64
8, 69362, Note_on_c, 6, 74, 90
8, 69546, Note_off_c, 6, 74, 64
8, 69601, Note_on_c, 6, 74, 90
8, 69785, Note_off_c, 6, 74, 64
8, 69840, Note_on_c, 6, 74, 90
8, 70024, Note_off_c, 6, 74, 64
8, 70080, Note_on_c, 6, 79, 96
8, 70728, Note_off_c, 6, 79, 64
8, 70799, Note_on_c, 6, 78, 90
8, 70983, Note_off_c, 6, 78, 64
8, 71037, Note_on_c, 6, 76, 90
8, 71221, Note_off_c, 6, 76, 64
8, 71282, Note_on_c, 6, 74, 90
8, 71466, Note_off_c, 6, 74, 64
8, 71519, Note_on_c, 6, 74, 90
8, 71703, Note_off_c, 6, 74, 64
8, 71758, Note_on_c, 6, 74, 90
8, 71942, Note_off_c, 6, 74, 64
8, 72001, Note_on_c, 6, 74, 96
8, 72649, Note_off_c, 6, 74, 64
8, 72721, Note_on_c, 6, 79, 98
8, 72905, Note_off_c, 6, 79, 64
8, 72960, Note_on_c, 6, 72, 100
8, 73144, Note_off_c, 6, 72, 64
8, 73199, Note_on_c, 6, 72, 100
8, 73383, Note_off_c, 6, 72, 64
8, 73443, Note_on_c, 6, 72, 101
8, 73627, Note_off_c, 6, 72, 64
8, 73677, Note_on_c, 6, 72, 101
8, 73861, Note_off_c, 6, 72, 64
8, 73917, Note_on_c, 6, 72, 102
8, 74101, Note_off_c, 6, 72, 64
8, 74161, Note_on_c, 6, 72, 103
8, 74345, Note_off_c, 6, 72, 64
8, 74398, Note_on_c, 6, 72, 103
8, 74582, Note_off_c, 6, 72, 64
8, 74640, Note_on_c, 6, 72, 104
8, 74824, Note_off_c, 6, 72, 64
8, 74879, Note_on_c, 6, 72, 105
8, 75063, Note_off_c, 6, 72, 64
8, 75120, Note_on_c, 6, 72, 105
8, 75304, Note_off_c, 6, 72, 64
8, 75360, Note_on_c, 6, 72, 106
8, 75544, Note_off_c, 6, 72, 64
8, 75600, Note_on_c, 6, 72, 108
8, 75784, Note_off_c, 6, 72, 64
8, 75838, Note_on_c, 6, 72, 108
8, 77662, Note_off_c, 6, 72, 64
8, 77761, Note_on_c, 6, 67, 108
8, 78409, Note_off_c, 6, 67, 64
8, 78480, Note_on_c, 6, 74, 111
8, 78561, Note_off_c, 6, 74, 56
8, 78601, Note_on_c, 6, 74, 111
8, 78682, Note_off_c, 6, 74, 56
8, 78717, Note_on_c, 6, 74, 108
8, 79365, Note_off_c, 6, 74, 64
8, 79439, Note_on_c, 6, 74, 111
8, 79520, Note_off_c, 6, 74, 56
8, 79561, Note_on_c, 6, 74, 111
8, 79642, Note_off_c, 6, 74, 56
8, 79679, Note_on_c, 6, 74, 108
8, 79863, Note_off_c, 6, 74, 64
8, 79919, Note_on_c, 6, 74, 111
8, 80000, Note_off_c, 6, 74, 56
8, 80041, Note_on_c, 6, 74, 111
8, 80122, Note_off_c, 6, 74, 56
8, 80158, Note_on_c, 6, 74, 108
8, 80342, Note_off_c, 6, 74, 64
8, 80399, Note_on_c, 6, 74, 111
8, 80480, Note_off_c, 6, 74, 56
8, 80519, Note_on_c, 6, 74, 111
8, 80600, Note_off_c, 6, 74, 56
8, 80641, Note_on_c, 6, 74, 111
8, 80722, Note_off_c, 6, 74, 56
8, 80759, Note_on_c, 6, 74, 111
8, 80840, Note_off_c, 6, 74, 56
8, 80883, Note_on_c, 6, 74, 108
8, 81067, Note_off_c, 6, 74, 64
8, 81362, Note_on_c, 6, 74, 108
8, 81546, Note_off_c, 6, 74, 64
8, 81597, Note_on_c, 6, 72, 108
8, 82029, Note_off_c, 6, 72, 64
8, 82080, Note_on_c, 6, 76, 108
8, 82512, Note_off_c, 6, 76, 64
8, 82563, Note_on_c, 6, 79, 108
8, 83211, Note_off_c, 6, 79, 64
8, 83279, Note_on_c, 6, 77, 111
8, 83360, Note_off_c, 6, 77, 56
8, 83521, Note_on_c, 6, 76, 111
8, 83602, Note_off_c, 6, 76, 56
8, 83759, Note_on_c, 6, 74, 111
8, 83840, Note_off_c, 6, 74, 56
8, 83999, Note_on_c, 6, 72, 111
8, 84080, Note_off_c, 6, 72, 56
8, 84239, Note_on_c, 6, 74, 111
8, 84320, Note_off_c, 6, 74, 56
8, 84480, Note_on_c, 6, 72, 108
8, 85128, Note_off_c, 6, 72, 64
8, 85202, Note_on_c, 6, 72, 108
8, 85339, Note_off_c, 6, 72, 64
8, 85380, Note_on_c, 6, 72, 114
8, 85420, Note_off_c, 6, 72, 56
8, 85437, Note_on_c, 6, 74, 108
8, 86085, Note_off_c, 6, 74, 64
8, 86160, Note_on_c, 6, 74, 108
8, 86297, Note_off_c, 6, 74, 64
8, 86340, Note_on_c, 6, 74, 114
8, 86380, Note_off_c, 6, 74, 56
8, 86400, Note_on_c, 6, 76, 108
8, 86988, Note_off_c, 6, 76, 64
8, 87001, Note_on_c, 6, 72, 111
8, 87082, Note_off_c, 6, 72, 56
8, 87120, Note_on_c, 6, 72, 111
8, 87201, Note_off_c, 6, 72, 56
8, 87241, Note_on_c, 6, 72, 111
8, 87322, Note_off_c, 6, 72, 56
8, 87363, Note_on_c, 6, 72, 108
8, 87547, Note_off_c, 6, 72, 64
8, 87601, Note_on_c, 6, 72, 111
8, 87682, Note_off_c, 6, 72, 56
8, 87721, Note_on_c, 6, 72, 111
8, 87802, Note_off_c, 6, 72, 56
8, 87843, Note_on_c, 6, 72, 108
8, 88027, Note_off_c, 6, 72, 64
8, 88080, Note_on_c, 6, 72, 111
8, 88161, Note_off_c, 6, 72, 56
8, 88200, Note_on_c, 6, 72, 111
8, 88281, Note_off_c, 6, 72, 56
8, 88323, Note_on_c, 6, 72, 108
8, 88911, Note_off_c, 6, 72, 64
8, 88919, Note_on_c, 6, 72, 111
8, 89000, Note_off_c, 6, 72, 56
8, 89041, Note_on_c, 6, 72, 111
8, 89122, Note_off_c, 6, 72, 56
8, 89159, Note_on_c, 6, 72, 111
8, 89240, Note_off_c, 6, 72, 56
8, 89280, Note_on_c, 6, 72, 108
8, 89464, Note_off_c, 6, 72, 64
8, 89520, Note_on_c, 6, 72, 111
8, 89601, Note_off_c, 6, 72, 56
8, 89640, Note_on_c, 6, 72, 111
8, 89721, Note_off_c, 6, 72, 56
8, 89758, Note_on_c, 6, 72, 108
8, 89942, Note_off_c, 6, 72, 64
8, 89999, Note_on_c, 6, 72, 111
8, 90080, Note_off_c, 6, 72, 56
8, 90119, Note_on_c, 6, 72, 111
8, 90200, Note_off_c, 6, 72, 56
8, 90241, Note_on_c, 6, 72, 108
8, 90829, Note_off_c, 6, 72, 64
8, 90841, Note_on_c, 6, 72, 111
8, 90922, Note_off_c, 6, 72, 56
8, 90959, Note_on_c, 6, 72, 111
8, 91040, Note_off_c, 6, 72, 56
8, 91079, Note_on_c, 6, 72, 111
8, 91160, Note_off_c, 6, 72, 56
8, 91200, Note_on_c, 6, 72, 108
8, 91384, Note_off_c, 6, 72, 64
8, 91441, Note_on_c, 6, 72, 111
8, 91522, Note_off_c, 6, 72, 56
8, 91559, Note_on_c, 6, 72, 111
8, 91640, Note_off_c, 6, 72, 56
8, 91678, Note_on_c, 6, 72, 108
8, 91862, Note_off_c, 6, 72, 64
8, 91919, Note_on_c, 6, 72, 111
8, 92000, Note_off_c, 6, 72, 56
8, 92040, Note_on_c, 6, 72, 111
8, 92121, Note_off_c, 6, 72, 56
8, 92161, Note_on_c, 6, 72, 108
8, 92809, Note_off_c, 6, 72, 64
8, 92878, Note_on_c, 6, 76, 108
8, 93015, Note_off_c, 6, 76, 64
8, 93060, Note_on_c, 6, 76, 114
8, 93100, Note_off_c, 6, 76, 56
8, 93119, Note_on_c, 6, 74, 108
8, 93303, Note_off_c, 6, 74, 64
8, 93358, Note_on_c, 6, 74, 108
8, 93495, Note_off_c, 6, 74, 64
8, 93540, Note_on_c, 6, 74, 114
8, 93580, Note_off_c, 6, 74, 56
8, 93603, Note_on_c, 6, 76, 108
8, 93787, Note_off_c, 6, 76, 64
8, 93838, Note_on_c, 6, 76, 108
8, 93975, Note_off_c, 6, 76, 64
8, 94020, Note_on_c, 6, 76, 114
8, 94060, Note_off_c, 6, 76, 56
8, 94081, Note_on_c, 6, 74, 108
8, 94265, Note_off_c, 6, 74, 64
8, 94320, Note_on_c, 6, 74, 108
8, 94752, Note_off_c, 6, 74, 64
8, 94800, Note_on_c, 6, 76, 108
8, 94937, Note_off_c, 6, 76, 64
8, 94980, Note_on_c, 6, 76, 114
8, 95020, Note_off_c, 6, 76, 56
8, 95039, Note_on_c, 6, 74, 108
8, 95223, Note_off_c, 6, 74, 64
8, 95282, Note_on_c, 6, 74, 108
8, 95419, Note_off_c, 6, 74, 64
8, 95460, Note_on_c, 6, 74, 114
8, 95500, Note_off_c, 6, 74, 56
8, 95523, Note_on_c, 6, 76, 108
8, 95707, Note_off_c, 6, 76, 64
8, 95762, Note_on_c, 6, 76, 108
8, 95899, Note_off_c, 6, 76, 64
8, 95940, Note_on_c, 6, 76, 114
8, 95980, Note_off_c, 6, 76, 56
8, 96002, Note_on_c, 6, 74, 108
8, 96186, Note_off_c, 6, 74, 64
8, 96242, Note_on_c, 6, 74, 108
8, 96674, Note_off_c, 6, 74, 64
8, 96721, Note_on_c, 6, 76, 108
8, 96858, Note_off_c, 6, 76, 64
8, 96900, Note_on_c, 6, 76, 114
8, 96940, Note_off_c, 6, 76, 56
8, 96961, Note_on_c, 6, 74, 108
8, 97098, Note_off_c, 6, 74, 64
8, 97140, Note_on_c, 6, 74, 114
8, 97180, Note_off_c, 6, 74, 56
8, 97202, Note_on_c, 6, 74, 108
8, 97339, Note_off_c, 6, 74, 64
8, 97380, Note_on_c, 6, 74, 114
8, 97420, Note_off_c, 6, 74, 56
8, 97441, Note_on_c, 6, 76, 108
8, 97578, Note_off_c, 6, 76, 64
8, 97620, Note_on_c, 6, 76, 114
8, 97660, Note_off_c, 6, 76, 56
8, 97678, Note_on_c, 6, 76, 108
8, 97815, Note_off_c, 6, 76, 64
8, 97860, Note_on_c, 6, 76, 114
8, 97900, Note_off_c, 6, 76, 56
8, 97917, Note_on_c, 6, 74, 108
8, 98101, Note_off_c, 6, 74, 64
8, 98160, Note_on_c, 6, 74, 108
8, 98344, Note_off_c, 6, 74, 64
8, 98398, Note_on_c, 6, 76, 108
8, 98582, Note_off_c, 6, 76, 64
8, 98642, Note_on_c, 6, 76, 108
8, 98826, Note_off_c, 6, 76, 64
8, 98879, Note_on_c, 6, 74, 108
8, 99063, Note_off_c, 6, 74, 64
8, 99119, Note_on_c, 6, 74, 108
8, 99303, Note_off_c, 6, 74, 64
8, 99361, Note_on_c, 6, 76, 108
8, 99545, Note_off_c, 6, 76, 64
8, 99600, Note_on_c, 6, 76, 108
8, 99784, Note_off_c, 6, 76, 64
8, 99840, Note_on_c, 6, 74, 111
8, 99921, Note_off_c, 6, 74, 56
8, 100020, Note_on_c, 6, 76, 114
8, 100060, Note_off_c, 6, 76, 56
8, 100080, Note_on_c, 6, 76, 108
8, 100264, Note_off_c, 6, 76, 64
8, 100321, Note_on_c, 6, 74, 111
8, 100402, Note_off_c, 6, 74, 56
8, 100500, Note_on_c, 6, 76, 114
8, 100540, Note_off_c, 6, 76, 56
8, 100561, Note_on_c, 6, 76, 108
8, 100745, Note_off_c, 6, 76, 64
8, 100799, Note_on_c, 6, 74, 111
8, 100880, Note_off_c, 6, 74, 56
8, 100980, Note_on_c, 6, 76, 114
8, 101020, Note_off_c, 6, 76, 56
8, 101038, Note_on_c, 6, 76, 108
8, 101222, Note_off_c, 6, 76, 64
8, 101281, Note_on_c, 6, 74, 111
8, 101362, Note_off_c, 6, 74, 56
8, 101460, Note_on_c, 6, 76, 114
8, 101500, Note_off_c, 6, 76, 56
8, 101521, Note_on_c, 6, 76, 108
8, 101705, Note_off_c, 6, 76, 64
8, 101759, Note_on_c, 6, 74, 111
8, 101840, Note_off_c, 6, 74, 56
8, 105597, Note_on_c, 6, 72, 108
8, 106245, Note_off_c, 6, 72, 64
8, 106319, Note_on_c, 6, 67, 108
8, 106513, Note_off_c, 6, 67, 64
8, 106559, Note_on_c, 6, 76, 108
8, 107243, Note_off_c, 6, 76, 64
8, 107279, Note_on_c, 6, 74, 108
8, 107424, Note_off_c, 6, 74, 64
8, 107459, Note_on_c, 6, 72, 114
8, 107507, Note_off_c, 6, 72, 56
8, 107518, Note_on_c, 6, 74, 108
8, 109342, Note_off_c, 6, 74, 64
8, 109439, Note_on_c, 6, 74, 108
8, 110087, Note_off_c, 6, 74, 64
8, 110161, Note_on_c, 6, 67, 108
8, 110355, Note_off_c, 6, 67, 64
8, 110400, Note_on_c, 6, 77, 108
8, 111084, Note_off_c, 6, 77, 64
8, 111120, Note_on_c, 6, 76, 108
8, 111265, Note_off_c, 6, 76, 64
8, 111300, Note_on_c, 6, 74, 114
8, 111340, Note_off_c, 6, 74, 56
8, 111357, Note_on_c, 6, 74, 108
8, 111551, Note_off_c, 6, 74, 64
8, 111597, Note_on_c, 6, 76, 108
8, 113181, Note_off_c, 6, 76, 64
8, 113280, Note_on_c, 6, 72, 108
8, 114144, Note_off_c, 6, 72, 64
8, 114239, Note_on_c, 6, 72, 108
8, 115103, Note_off_c, 6, 72, 64
8, 115199, Note_on_c, 6, 74, 108
8, 116063, Note_off_c, 6, 74, 64
8, 116161, Note_on_c, 6, 74, 108
8, 117025, Note_off_c, 6, 74, 64
8, 117120, Note_on_c, 6, 74, 108
8, 117984, Note_off_c, 6, 74, 64
8, 118083, Note_on_c, 6, 74, 108
8, 118947, Note_off_c, 6, 74, 64
8, 119042, Note_on_c, 6, 74, 108
8, 119906, Note_off_c, 6, 74, 64
8, 119997, Note_on_c, 6, 74, 108
8, 120585, Note_off_c, 6, 74, 64
8, 120600, Note_on_c, 6, 74, 108
8, 120784, Note_off_c, 6, 74, 64
8, 120842, Note_on_c, 6, 74, 108
8, 121036, Note_off_c, 6, 74, 64
8, 121080, Note_on_c, 6, 74, 108
8, 121264, Note_off_c, 6, 74, 64
8, 121321, Note_on_c, 6, 74, 111
8, 121402, Note_off_c, 6, 74, 56
8, 121439, Note_on_c, 6, 74, 111
8, 121520, Note_off_c, 6, 74, 56
8, 121560, Note_on_c, 6, 74, 111
8, 121657, Note_off_c, 6, 74, 56
8, 121680, Note_on_c, 6, 76, 111
8, 121761, Note_off_c, 6, 76, 56
8, 121800, Note_on_c, 6, 76, 111
8, 121861, Note_off_c, 6, 76, 56
8, 121919, Note_on_c, 6, 74, 111
8, 122000, Note_off_c, 6, 74, 56
8, 123839, Note_on_c, 6, 79, 108
8, 124703, Note_off_c, 6, 79, 64
8, 124797, Note_on_c, 6, 79, 108
8, 125445, Note_off_c, 6, 79, 64
8, 127440, Note_on_c, 6, 74, 93
8, 127501, Note_off_c, 6, 74, 56
8, 127519, Note_on_c, 6, 74, 93
8, 127580, Note_off_c, 6, 74, 56
8, 127600, Note_on_c, 6, 74, 93
8, 127661, Note_off_c, 6, 74, 56
8, 127683, Note_on_c, 6, 67, 90
8, 127867, Note_off_c, 6, 67, 64
8, 127921, Note_on_c, 6, 67, 93
8, 127982, Note_off_c, 6, 67, 56
8, 128001, Note_on_c, 6, 67, 93
8, 128062, Note_off_c, 6, 67, 56
8, 128080, Note_on_c, 6, 67, 93
8, 128141, Note_off_c, 6, 67, 56
8, 128163, Note_on_c, 6, 67, 90
8, 128347, Note_off_c, 6, 67, 64
8, 128399, Note_on_c, 6, 67, 93
8, 128460, Note_off_c, 6, 67, 56
8, 128481, Note_on_c, 6, 67, 93
8, 128542, Note_off_c, 6, 67, 56
8, 128559, Note_on_c, 6, 67, 93
8, 128620, Note_off_c, 6, 67, 56
8, 128643, Note_on_c, 6, 67, 90
8, 128827, Note_off_c, 6, 67, 64
8, 128881, Note_on_c, 6, 67, 93
8, 128942, Note_off_c, 6, 67, 56
8, 128961, Note_on_c, 6, 67, 93
8, 129022, Note_off_c, 6, 67, 56
8, 129039, Note_on_c, 6, 67, 93
8, 129100, Note_off_c, 6, 67, 56
8, 129118, Note_on_c, 6, 67, 90
8, 129302, Note_off_c, 6, 67, 64
8, 133200, Note_on_c, 6, 72, 95
8, 133261, Note_off_c, 6, 72, 56
8, 133279, Note_on_c, 6, 74, 96
8, 133340, Note_off_c, 6, 74, 56
8, 133359, Note_on_c, 6, 76, 96
8, 133420, Note_off_c, 6, 76, 56
8, 133438, Note_on_c, 6, 77, 93
8, 133622, Note_off_c, 6, 77, 64
8, 133680, Note_on_c, 6, 74, 98
8, 133741, Note_off_c, 6, 74, 56
8, 133760, Note_on_c, 6, 76, 98
8, 133821, Note_off_c, 6, 76, 56
8, 133840, Note_on_c, 6, 77, 99
8, 133901, Note_off_c, 6, 77, 56
8, 133921, Note_on_c, 6, 76, 96
8, 134105, Note_off_c, 6, 76, 64
8, 134160, Note_on_c, 6, 72, 100
8, 134221, Note_off_c, 6, 72, 56
8, 134240, Note_on_c, 6, 74, 101
8, 134301, Note_off_c, 6, 74, 56
8, 134319, Note_on_c, 6, 76, 101
8, 134380, Note_off_c, 6, 76, 56
8, 134397, Note_on_c, 6, 77, 100
8, 136221, Note_off_c, 6, 77, 64
8, 136320, Note_on_c, 6, 76, 108
8, 138456, Note_off_c, 6, 76, 64
8, 138479, Note_on_c, 6, 79, 108
8, 138663, Note_off_c, 6, 79, 64
8, 138721, Note_on_c, 6, 79, 108
8, 138905, Note_off_c, 6, 79, 64
8, 138962, Note_on_c, 6, 79, 108
8, 139146, Note_off_c, 6, 79, 64
8, 139203, Note_on_c, 6, 79, 108
8, 139387, Note_off_c, 6, 79, 64
8, 139441, Note_on_c, 6, 74, 108
8, 139625, Note_off_c, 6, 74, 64
8, 139682, Note_on_c, 6, 74, 108
8, 139866, Note_off_c, 6, 74, 64
8, 139922, Note_on_c, 6, 74, 108
8, 140106, Note_off_c, 6, 74, 64
8, 140159, Note_on_c, 6, 72, 108
8, 140281, Note_off_c, 6, 72, 64
8, 141122, Note_on_c, 6, 74, 108
8, 141244, Note_off_c, 6, 74, 64
8, 149761, Note_on_c, 6, 79, 90
8, 150409, Note_off_c, 6, 79, 64
8, 150481, Note_on_c, 6, 78, 90
8, 150665, Note_off_c, 6, 78, 64
8, 150723, Note_on_c, 6, 76, 90
8, 150907, Note_off_c, 6, 76, 64
8, 150958, Note_on_c, 6, 74, 90
8, 151142, Note_off_c, 6, 74, 64
8, 151201, Note_on_c, 6, 74, 90
8, 151385, Note_off_c, 6, 74, 64
8, 151437, Note_on_c, 6, 74, 90
8, 151621, Note_off_c, 6, 74, 64
8, 151680, Note_on_c, 6, 79, 96
8, 152328, Note_off_c, 6, 79, 64
8, 152398, Note_on_c, 6, 78, 90
8, 152582, Note_off_c, 6, 78, 64
8, 152638, Note_on_c, 6, 76, 90
8, 152822, Note_off_c, 6, 76, 64
8, 152883, Note_on_c, 6, 74, 90
8, 153067, Note_off_c, 6, 74, 64
8, 153119, Note_on_c, 6, 74, 90
8, 153303, Note_off_c, 6, 74, 64
8, 153361, Note_on_c, 6, 74, 90
8, 153545, Note_off_c, 6, 74, 64
8, 153603, Note_on_c, 6, 74, 96
8, 154251, Note_off_c, 6, 74, 64
8, 154323, Note_on_c, 6, 79, 98
8, 154507, Note_off_c, 6, 79, 64
8, 154561, Note_on_c, 6, 72, 100
8, 154745, Note_off_c, 6, 72, 64
8, 154801, Note_on_c, 6, 72, 100
8, 154985, Note_off_c, 6, 72, 64
8, 155039, Note_on_c, 6, 72, 101
8, 155223, Note_off_c, 6, 72, 64
8, 155278, Note_on_c, 6, 72, 101
8, 155462, Note_off_c, 6, 72, 64
8, 155518, Note_on_c, 6, 72, 102
8, 155702, Note_off_c, 6, 72, 64
8, 155759, Note_on_c, 6, 72, 103
8, 155943, Note_off_c, 6, 72, 64
8, 155999, Note_on_c, 6, 72, 103
8, 156183, Note_off_c, 6, 72, 64
8, 156238, Note_on_c, 6, 72, 104
8, 156422, Note_off_c, 6, 72, 64
8, 156477, Note_on_c, 6, 72, 105
8, 156661, Note_off_c, 6, 72, 64
8, 156719, Note_on_c, 6, 72, 105
8, 156903, Note_off_c, 6, 72, 64
8, 156962, Note_on_c, 6, 72, 106
8, 157146, Note_off_c, 6, 72, 64
8, 157203, Note_on_c, 6, 72, 108
8, 157387, Note_off_c, 6, 72, 64
8, 157441, Note_on_c, 6, 72, 108
8, 159265, Note_off_c, 6, 72, 64
8, 159357, Note_on_c, 6, 67, 108
8, 160005, Note_off_c, 6, 67, 64
8, 160079, Note_on_c, 6, 74, 111
8, 160160, Note_off_c, 6, 74, 56
8, 160199, Note_on_c, 6, 74, 111
8, 160280, Note_off_c, 6, 74, 56
8, 160317, Note_on_c, 6, 74, 108
8, 160965, Note_off_c, 6, 74, 64
8, 161039, Note_on_c, 6, 74, 111
8, 161120, Note_off_c, 6, 74, 56
8, 161161, Note_on_c, 6, 74, 111
8, 161242, Note_off_c, 6, 74, 56
8, 161278, Note_on_c, 6, 74, 108
8, 161462, Note_off_c, 6, 74, 64
8, 161520, Note_on_c, 6, 74, 111
8, 161601, Note_off_c, 6, 74, 56
8, 161639, Note_on_c, 6, 74, 111
8, 161720, Note_off_c, 6, 74, 56
8, 161759, Note_on_c, 6, 74, 108
8, 161943, Note_off_c, 6, 74, 64
8, 162001, Note_on_c, 6, 74, 111
8, 162082, Note_off_c, 6, 74, 56
8, 162121, Note_on_c, 6, 74, 111
8, 162202, Note_off_c, 6, 74, 56
8, 162241, Note_on_c, 6, 74, 111
8, 162322, Note_off_c, 6, 74, 56
8, 162359, Note_on_c, 6, 74, 111
8, 162440, Note_off_c, 6, 74, 56
8, 162480, Note_on_c, 6, 74, 108
8, 163128, Note_off_c, 6, 74, 64
8, 163202, Note_on_c, 6, 76, 108
8, 166946, Note_off_c, 6, 76, 64
8, 167040, Note_on_c, 6, 76, 108
8, 167224, Note_off_c, 6, 76, 64
8, 167999, Note_on_c, 6, 76, 108
8, 168647, Note_off_c, 6, 76, 64
8, 172560, Note_on_c, 6, 72, 73
8, 172744, Note_off_c, 6, 72, 64
8, 172802, Note_on_c, 6, 72, 73
8, 172986, Note_off_c, 6, 72, 64
8, 173038, Note_on_c, 6, 72, 73
8, 173222, Note_off_c, 6, 72, 64
8, 173280, Note_on_c, 6, 72, 73
8, 173464, Note_off_c, 6, 72, 64
8, 173520, Note_on_c, 6, 72, 73
8, 173704, Note_off_c, 6, 72, 64
8, 173758, Note_on_c, 6, 72, 73
8, 173942, Note_off_c, 6, 72, 64
8, 173999, Note_on_c, 6, 72, 73
8, 174183, Note_off_c, 6, 72, 64
8, 174243, Note_on_c, 6, 72, 73
8, 174427, Note_off_c, 6, 72, 64
8, 174480, Note_on_c, 6, 72, 73
8, 174664, Note_off_c, 6, 72, 64
8, 174722, Note_on_c, 6, 72, 73
8, 174906, Note_off_c, 6, 72, 64
8, 174962, Note_on_c, 6, 72, 73
8, 175146, Note_off_c, 6, 72, 64
8, 175197, Note_on_c, 6, 72, 73
8, 175381, Note_off_c, 6, 72, 64
8, 175442, Note_on_c, 6, 72, 73
8, 175626, Note_off_c, 6, 72, 64
8, 175680, Note_on_c, 6, 72, 73
8, 175864, Note_off_c, 6, 72, 64
8, 175922, Note_on_c, 6, 72, 73
8, 176106, Note_off_c, 6, 72, 64
8, 176160, Note_on_c, 6, 72, 73
8, 176344, Note_off_c, 6, 72, 64
8, 176400, Note_on_c, 6, 72, 73
8, 176584, Note_off_c, 6, 72, 64
8, 176641, Note_on_c, 6, 77, 73
8, 176825, Note_off_c, 6, 77, 64
8, 190082, Note_on_c, 6, 72, 90
8, 191690, Note_off_c, 6, 72, 64
8, 191757, Note_on_c, 6, 75, 90
8, 191941, Note_off_c, 6, 75, 64
8, 192001, Note_on_c, 6, 74, 90
8, 192433, Note_off_c, 6, 74, 64
8, 192481, Note_on_c, 6, 75, 90
8, 192913, Note_off_c, 6, 75, 64
8, 192963, Note_on_c, 6, 77, 90
8, 194571, Note_off_c, 6, 77, 64
8, 195599, Note_on_c, 6, 77, 90
8, 195783, Note_off_c, 6, 77, 64
8, 195838, Note_on_c, 6, 76, 90
8, 196270, Note_off_c, 6, 76, 64
8, 196318, Note_on_c, 6, 77, 90
8, 196750, Note_off_c, 6, 77, 64
8, 196800, Note_on_c, 6, 79, 90
8, 197448, Note_off_c, 6, 79, 64
8, 197521, Note_on_c, 6, 72, 90
8, 197705, Note_off_c, 6, 72, 64
8, 197999, Note_on_c, 6, 72, 93
8, 198060, Note_off_c, 6, 72, 56
8, 198079, Note_on_c, 6, 72, 93
8, 198140, Note_off_c, 6, 72, 56
8, 198159, Note_on_c, 6, 72, 93
8, 198220, Note_off_c, 6, 72, 56
8, 198241, Note_on_c, 6, 72, 90
8, 198425, Note_off_c, 6, 72, 64
8, 198961, Note_on_c, 6, 72, 93
8, 199022, Note_off_c, 6, 72, 56
8, 199040, Note_on_c, 6, 72, 95
8, 199101, Note_off_c, 6, 72, 56
8, 199120, Note_on_c, 6, 72, 95
8, 199181, Note_off_c, 6, 72, 56
8, 199199, Note_on_c, 6, 72, 92
8, 199383, Note_off_c, 6, 72, 64
8, 199920, Note_on_c, 6, 79, 96
8, 199981, Note_off_c, 6, 79, 56
8, 199999, Note_on_c, 6, 79, 96
8, 200060, Note_off_c, 6, 79, 56
8, 200081, Note_on_c, 6, 79, 96
8, 200142, Note_off_c, 6, 79, 56
8, 200160, Note_on_c, 6, 79, 94
8, 200344, Note_off_c, 6, 79, 64
8, 200881, Note_on_c, 6, 72, 98
8, 200942, Note_off_c, 6, 72, 56
8, 200959, Note_on_c, 6, 72, 98
8, 201020, Note_off_c, 6, 72, 56
8, 201040, Note_on_c, 6, 72, 98
8, 201101, Note_off_c, 6, 72, 56
8, 201123, Note_on_c, 6, 72, 95
8, 201307, Note_off_c, 6, 72, 64
8, 201840, Note_on_c, 6, 79, 99
8, 201901, Note_off_c, 6, 79, 56
8, 201919, Note_on_c, 6, 79, 100
8, 201980, Note_off_c, 6, 79, 56
8, 202001, Note_on_c, 6, 79, 100
8, 202062, Note_off_c, 6, 79, 56
8, 202077, Note_on_c, 6, 79, 97
8, 202261, Note_off_c, 6, 79, 64
8, 202799, Note_on_c, 6, 72, 101
8, 202860, Note_off_c, 6, 72, 56
8, 202880, Note_on_c, 6, 72, 101
8, 202941, Note_off_c, 6, 72, 56
8, 202961, Note_on_c, 6, 72, 101
8, 203022, Note_off_c, 6, 72, 56
8, 203040, Note_on_c, 6, 72, 100
8, 203224, Note_off_c, 6, 72, 64
8, 203761, Note_on_c, 6, 74, 104
8, 203822, Note_off_c, 6, 74, 56
8, 203840, Note_on_c, 6, 74, 104
8, 203901, Note_off_c, 6, 74, 56
8, 203920, Note_on_c, 6, 74, 104
8, 203981, Note_off_c, 6, 74, 56
8, 203999, Note_on_c, 6, 74, 101
8, 204183, Note_off_c, 6, 74, 64
8, 204721, Note_on_c, 6, 79, 105
8, 204782, Note_off_c, 6, 79, 56
8, 204801, Note_on_c, 6, 79, 106
8, 204862, Note_off_c, 6, 79, 56
8, 204881, Note_on_c, 6, 79, 106
8, 204942, Note_off_c, 6, 79, 56
8, 204958, Note_on_c, 6, 79, 103
8, 205142, Note_off_c, 6, 79, 64
8, 205679, Note_on_c, 6, 74, 107
8, 205740, Note_off_c, 6, 74, 56
8, 205759, Note_on_c, 6, 74, 107
8, 205820, Note_off_c, 6, 74, 56
8, 205839, Note_on_c, 6, 74, 107
8, 205900, Note_off_c, 6, 74, 56
8, 206160, Note_on_c, 6, 74, 108
8, 206221, Note_off_c, 6, 74, 56
8, 206239, Note_on_c, 6, 74, 108
8, 206300, Note_off_c, 6, 74, 56
8, 206321, Note_on_c, 6, 74, 108
8, 206382, Note_off_c, 6, 74, 56
8, 206639, Note_on_c, 6, 74, 109
8, 206700, Note_off_c, 6, 74, 56
8, 206721, Note_on_c, 6, 74, 109
8, 206782, Note_off_c, 6, 74, 56
8, 206799, Note_on_c, 6, 74, 109
8, 206860, Note_off_c, 6, 74, 56
8, 207121, Note_on_c, 6, 74, 111
8, 207182, Note_off_c, 6, 74, 56
8, 207200, Note_on_c, 6, 74, 111
8, 207261, Note_off_c, 6, 74, 56
8, 207279, Note_on_c, 6, 74, 111
8, 207340, Note_off_c, 6, 74, 56
8, 207360, Note_on_c, 6, 74, 108
8, 207544, Note_off_c, 6, 74, 64
8, 209282, Note_on_c, 6, 79, 108
8, 209466, Note_off_c, 6, 79, 64
8, 211197, Note_on_c, 6, 79, 108
8, 211381, Note_off_c, 6, 79, 64
8, 211923, Note_on_c, 6, 76, 108
8, 212107, Note_off_c, 6, 76, 64
8, 212163, Note_on_c, 6, 74, 108
8, 212595, Note_off_c, 6, 74, 64
8, 212640, Note_on_c, 6, 76, 108
8, 213072, Note_off_c, 6, 76, 64
8, 213117, Note_on_c, 6, 77, 108
8, 213765, Note_off_c, 6, 77, 64
8, 213841, Note_on_c, 6, 77, 108
8, 214025, Note_off_c, 6, 77, 64
8, 214080, Note_on_c, 6, 76, 108
8, 214512, Note_off_c, 6, 76, 64
8, 214557, Note_on_c, 6, 77, 108
8, 214989, Note_off_c, 6, 77, 64
8, 215040, Note_on_c, 6, 79, 108
8, 215904, Note_off_c, 6, 79, 64
8, 215997, Note_on_c, 6, 72, 108
8, 216861, Note_off_c, 6, 72, 64
8, 216963, Note_on_c, 6, 72, 108
8, 218787, Note_off_c, 6, 72, 64
8, 218881, Note_on_c, 6, 79, 108
8, 219745, Note_off_c, 6, 79, 64
8, 219843, Note_on_c, 6, 79, 108
8, 220707, Note_off_c, 6, 79, 64
8, 220798, Note_on_c, 6, 79, 108
8, 220982, Note_off_c, 6, 79, 64
8, 221040, Note_on_c, 6, 79, 111
8, 221121, Note_off_c, 6, 79, 56
8, 221161, Note_on_c, 6, 79, 111
8, 221242, Note_off_c, 6, 79, 56
8, 221278, Note_on_c, 6, 79, 108
8, 221462, Note_off_c, 6, 79, 64
8, 221519, Note_on_c, 6, 79, 111
8, 221600, Note_off_c, 6, 79, 56
8, 221641, Note_on_c, 6, 79, 111
8, 221722, Note_off_c, 6, 79, 56
8, 221763, Note_on_c, 6, 79, 108
8, 221947, Note_off_c, 6, 79, 64
8, 221999, Note_on_c, 6, 79, 111
8, 222080, Note_off_c, 6, 79, 56
8, 222120, Note_on_c, 6, 79, 111
8, 222201, Note_off_c, 6, 79, 56
8, 222243, Note_on_c, 6, 79, 108
8, 222427, Note_off_c, 6, 79, 64
8, 222479, Note_on_c, 6, 79, 111
8, 222560, Note_off_c, 6, 79, 56
8, 222600, Note_on_c, 6, 79, 111
8, 222681, Note_off_c, 6, 79, 56
8, 222718, Note_on_c, 6, 79, 108
8, 222902, Note_off_c, 6, 79, 64
8, 222959, Note_on_c, 6, 79, 111
8, 223040, Note_off_c, 6, 79, 56
8, 223080, Note_on_c, 6, 79, 111
8, 223161, Note_off_c, 6, 79, 56
8, 223197, Note_on_c, 6, 79, 108
8, 223381, Note_off_c, 6, 79, 64
8, 223441, Note_on_c, 6, 79, 111
8, 223522, Note_off_c, 6, 79, 56
8, 223561, Note_on_c, 6, 79, 111
8, 223642, Note_off_c, 6, 79, 56
8, 223682, Note_on_c, 6, 79, 108
8, 223866, Note_off_c, 6, 79, 64
8, 223921, Note_on_c, 6, 79, 111
8, 224002, Note_off_c, 6, 79, 56
8, 224039, Note_on_c, 6, 79, 111
8, 224120, Note_off_c, 6, 79, 56
8, 224160, Note_on_c, 6, 79, 108
8, 224344, Note_off_c, 6, 79, 64
8, 224399, Note_on_c, 6, 79, 111
8, 224480, Note_off_c, 6, 79, 56
8, 224520, Note_on_c, 6, 79, 111
8, 224601, Note_off_c, 6, 79, 56
8, 224639, Note_on_c, 6, 79, 108
8, 227423, Note_off_c, 6, 79, 64
8, 227519, Note_on_c, 6, 79, 108
8, 227703, Note_off_c, 6, 79, 64
8, 245522, Note_on_c, 6, 67, 73
8, 245706, Note_off_c, 6, 67, 64
8, 245761, Note_on_c, 6, 67, 73
8, 245945, Note_off_c, 6, 67, 64
8, 245999, Note_on_c, 6, 67, 73
8, 246183, Note_off_c, 6, 67, 64
8, 246243, Note_on_c, 6, 67, 73
8, 246427, Note_off_c, 6, 67, 64
8, 248397, Note_on_c, 6, 67, 73
8, 248581, Note_off_c, 6, 67, 64
8, 248639, Note_on_c, 6, 67, 73
8, 248823, Note_off_c, 6, 67, 64
8, 248880, Note_on_c, 6, 67, 73
8, 249064, Note_off_c, 6, 67, 64
8, 249119, Note_on_c, 6, 67, 73
8, 249303, Note_off_c, 6, 67, 64
8, 249839, Note_on_c, 6, 67, 73
8, 250023, Note_off_c, 6, 67, 64
8, 250077, Note_on_c, 6, 67, 73
8, 250261, Note_off_c, 6, 67, 64
8, 250319, Note_on_c, 6, 67, 73
8, 250503, Note_off_c, 6, 67, 64
8, 250563, Note_on_c, 6, 67, 73
8, 250747, Note_off_c, 6, 67, 64
8, 251282, Note_on_c, 6, 67, 73
8, 251466, Note_off_c, 6, 67, 64
8, 251521, Note_on_c, 6, 67, 73
8, 251705, Note_off_c, 6, 67, 64
8, 251759, Note_on_c, 6, 67, 73
8, 251943, Note_off_c, 6, 67, 64
8, 251997, Note_on_c, 6, 67, 73
8, 252181, Note_off_c, 6, 67, 64
8, 252717, Note_on_c, 6, 67, 73
8, 252901, Note_off_c, 6, 67, 64
8, 252960, Note_on_c, 6, 67, 73
8, 253144, Note_off_c, 6, 67, 64
8, 253202, Note_on_c, 6, 67, 73
8, 253386, Note_off_c, 6, 67, 64
8, 253443, Note_on_c, 6, 67, 73
8, 253627, Note_off_c, 6, 67, 64
8, 254163, Note_on_c, 6, 67, 73
8, 254347, Note_off_c, 6, 67, 64
8, 254401, Note_on_c, 6, 67, 73
8, 254585, Note_off_c, 6, 67, 64
8, 254642, Note_on_c, 6, 67, 73
8, 254826, Note_off_c, 6, 67, 64
8, 254880, Note_on_c, 6, 67, 73
8, 255064, Note_off_c, 6, 67, 64
8, 255599, Note_on_c, 6, 67, 73
8, 255783, Note_off_c, 6, 67, 64
8, 255843, Note_on_c, 6, 67, 73
8, 256027, Note_off_c, 6, 67, 64
8, 256077, Note_on_c, 6, 67, 73
8, 256261, Note_off_c, 6, 67, 64
8, 256319, Note_on_c, 6, 67, 73
8, 256503, Note_off_c, 6, 67, 64
8, 257037, Note_on_c, 6, 67, 73
8, 257221, Note_off_c, 6, 67, 64
8, 257281, Note_on_c, 6, 67, 73
8, 257465, Note_off_c, 6, 67, 64
8, 257517, Note_on_c, 6, 67, 73
8, 257701, Note_off_c, 6, 67, 64
8, 257762, Note_on_c, 6, 67, 73
8, 257946, Note_off_c, 6, 67, 64
8, 258481, Note_on_c, 6, 67, 73
8, 258665, Note_off_c, 6, 67, 64
8, 258722, Note_on_c, 6, 67, 73
8, 258906, Note_off_c, 6, 67, 64
8, 258962, Note_on_c, 6, 67, 73
8, 259146, Note_off_c, 6, 67, 64
8, 259203, Note_on_c, 6, 67, 73
8, 259387, Note_off_c, 6, 67, 64
8, 259921, Note_on_c, 6, 74, 73
8, 260105, Note_off_c, 6, 74, 64
8, 260159, Note_on_c, 6, 74, 73
8, 260343, Note_off_c, 6, 74, 64
8, 260402, Note_on_c, 6, 74, 73
8, 260586, Note_off_c, 6, 74, 64
8, 260638, Note_on_c, 6, 74, 73
8, 260822, Note_off_c, 6, 74, 64
8, 260883, Note_on_c, 6, 74, 73
8, 261067, Note_off_c, 6, 74, 64
8, 261117, Note_on_c, 6, 74, 73
8, 261301, Note_off_c, 6, 74, 64
8, 261361, Note_on_c, 6, 74, 73
8, 261545, Note_off_c, 6, 74, 64
8, 261602, Note_on_c, 6, 74, 73
8, 261786, Note_off_c, 6, 74, 64
8, 261843, Note_on_c, 6, 74, 73
8, 262027, Note_off_c, 6, 74, 64
8, 262078, Note_on_c, 6, 74, 73
8, 262262, Note_off_c, 6, 74, 64
8, 262319, Note_on_c, 6, 74, 73
8, 262503, Note_off_c, 6, 74, 64
8, 262559, Note_on_c, 6, 74, 73
8, 262743, Note_off_c, 6, 74, 64
8, 262801, Note_on_c, 6, 74, 73
8, 262985, Note_off_c, 6, 74, 64
8, 263038, Note_on_c, 6, 74, 73
8, 263222, Note_off_c, 6, 74, 64
8, 263277, Note_on_c, 6, 74, 73
8, 263461, Note_off_c, 6, 74, 64
8, 263518, Note_on_c, 6, 74, 73
8, 263702, Note_off_c, 6, 74, 64
8, 263762, Note_on_c, 6, 74, 73
8, 263946, Note_off_c, 6, 74, 64
8, 263998, Note_on_c, 6, 74, 73
8, 264182, Note_off_c, 6, 74, 64
8, 264242, Note_on_c, 6, 74, 73
8, 264426, Note_off_c, 6, 74, 64
8, 264480, Note_on_c, 6, 74, 73
8, 264664, Note_off_c, 6, 74, 64
8, 264720, Note_on_c, 6, 74, 73
8, 264904, Note_off_c, 6, 74, 64
8, 264962, Note_on_c, 6, 74, 73
8, 265146, Note_off_c, 6, 74, 64
8, 265202, Note_on_c, 6, 74, 79
8, 265386, Note_off_c, 6, 74, 64
8, 265440, Note_on_c, 6, 74, 85
8, 265624, Note_off_c, 6, 74, 64
8, 265683, Note_on_c, 6, 74, 90
8, 265867, Note_off_c, 6, 74, 64
8, 265921, Note_on_c, 6, 74, 96
8, 266105, Note_off_c, 6, 74, 64
8, 266162, Note_on_c, 6, 74, 102
8, 266346, Note_off_c, 6, 74, 64
8, 266400, Note_on_c, 6, 72, 108
8, 266832, Note_off_c, 6, 72, 64
8, 266879, Note_on_c, 6, 76, 108
8, 267311, Note_off_c, 6, 76, 64
8, 267358, Note_on_c, 6, 79, 108
8, 268006, Note_off_c, 6, 79, 64
8, 268080, Note_on_c, 6, 77, 111
8, 268171, Note_off_c, 6, 77, 56
8, 268320, Note_on_c, 6, 76, 111
8, 268411, Note_off_c, 6, 76, 56
8, 268561, Note_on_c, 6, 74, 111
8, 268652, Note_off_c, 6, 74, 56
8, 268799, Note_on_c, 6, 72, 111
8, 268890, Note_off_c, 6, 72, 56
8, 269041, Note_on_c, 6, 74, 111
8, 269132, Note_off_c, 6, 74, 56
8, 269279, Note_on_c, 6, 72, 108
8, 269927, Note_off_c, 6, 72, 64
8, 269998, Note_on_c, 6, 72, 108
8, 270135, Note_off_c, 6, 72, 64
8, 270180, Note_on_c, 6, 72, 114
8, 270225, Note_off_c, 6, 72, 56
8, 270237, Note_on_c, 6, 74, 108
8, 270885, Note_off_c, 6, 74, 64
8, 270961, Note_on_c, 6, 74, 108
8, 271098, Note_off_c, 6, 74, 64
8, 271140, Note_on_c, 6, 74, 114
8, 271185, Note_off_c, 6, 74, 56
8, 271198, Note_on_c, 6, 76, 108
8, 271786, Note_off_c, 6, 76, 64
8, 271800, Note_on_c, 6, 72, 111
8, 271891, Note_off_c, 6, 72, 56
8, 271921, Note_on_c, 6, 72, 111
8, 272012, Note_off_c, 6, 72, 56
8, 272041, Note_on_c, 6, 72, 111
8, 272132, Note_off_c, 6, 72, 56
8, 272161, Note_on_c, 6, 72, 108
8, 272345, Note_off_c, 6, 72, 64
8, 272401, Note_on_c, 6, 72, 111
8, 272492, Note_off_c, 6, 72, 56
8, 272521, Note_on_c, 6, 72, 111
8, 272612, Note_off_c, 6, 72, 56
8, 272643, Note_on_c, 6, 72, 108
8, 272827, Note_off_c, 6, 72, 64
8, 272879, Note_on_c, 6, 72, 111
8, 272970, Note_off_c, 6, 72, 56
8, 273000, Note_on_c, 6, 72, 111
8, 273091, Note_off_c, 6, 72, 56
8, 273120, Note_on_c, 6, 72, 108
8, 273708, Note_off_c, 6, 72, 64
8, 273719, Note_on_c, 6, 72, 111
8, 273810, Note_off_c, 6, 72, 56
8, 273841, Note_on_c, 6, 72, 111
8, 273932, Note_off_c, 6, 72, 56
8, 273961, Note_on_c, 6, 72, 111
8, 274052, Note_off_c, 6, 72, 56
8, 274081, Note_on_c, 6, 72, 108
8, 274265, Note_off_c, 6, 72, 64
8, 274319, Note_on_c, 6, 72, 111
8, 274410, Note_off_c, 6, 72, 56
8, 274440, Note_on_c, 6, 72, 111
8, 274531, Note_off_c, 6, 72, 56
8, 274563, Note_on_c, 6, 72, 108
8, 274747, Note_off_c, 6, 72, 64
8, 274799, Note_on_c, 6, 72, 111
8, 274890, Note_off_c, 6, 72, 56
8, 274919, Note_on_c, 6, 72, 111
8, 275010, Note_off_c, 6, 72, 56
8, 275042, Note_on_c, 6, 72, 108
8, 275630, Note_off_c, 6, 72, 64
8, 275641, Note_on_c, 6, 72, 111
8, 275732, Note_off_c, 6, 72, 56
8, 275760, Note_on_c, 6, 72, 111
8, 275851, Note_off_c, 6, 72, 56
8, 275879, Note_on_c, 6, 72, 111
8, 275970, Note_off_c, 6, 72, 56
8, 275998, Note_on_c, 6, 72, 108
8, 276182, Note_off_c, 6, 72, 64
8, 276239, Note_on_c, 6, 72, 111
8, 276330, Note_off_c, 6, 72, 56
8, 276360, Note_on_c, 6, 72, 111
8, 276451, Note_off_c, 6, 72, 56
8, 276483, Note_on_c, 6, 72, 108
8, 276667, Note_off_c, 6, 72, 64
8, 276719, Note_on_c, 6, 72, 111
8, 276810, Note_off_c, 6, 72, 56
8, 276841, Note_on_c, 6, 72, 111
8, 276932, Note_off_c, 6, 72, 56
8, 276958, Note_on_c, 6, 72, 108
8, 277606, Note_off_c, 6, 72, 64
8, 277679, Note_on_c, 6, 76, 108
8, 277816, Note_off_c, 6, 76, 64
8, 277860, Note_on_c, 6, 76, 114
8, 277905, Note_off_c, 6, 76, 56
8, 277921, Note_on_c, 6, 74, 108
8, 278105, Note_off_c, 6, 74, 64
8, 278159, Note_on_c, 6, 74, 108
8, 278296, Note_off_c, 6, 74, 64
8, 278340, Note_on_c, 6, 74, 114
8, 278385, Note_off_c, 6, 74, 56
8, 278403, Note_on_c, 6, 76, 108
8, 278587, Note_off_c, 6, 76, 64
8, 278640, Note_on_c, 6, 76, 108
8, 278777, Note_off_c, 6, 76, 64
8, 278820, Note_on_c, 6, 76, 114
8, 278865, Note_off_c, 6, 76, 56
8, 278878, Note_on_c, 6, 74, 108
8, 279062, Note_off_c, 6, 74, 64
8, 279117, Note_on_c, 6, 74, 108
8, 279549, Note_off_c, 6, 74, 64
8, 279598, Note_on_c, 6, 76, 108
8, 279735, Note_off_c, 6, 76, 64
8, 279780, Note_on_c, 6, 76, 114
8, 279825, Note_off_c, 6, 76, 56
8, 279840, Note_on_c, 6, 74, 108
8, 280024, Note_off_c, 6, 74, 64
8, 280080, Note_on_c, 6, 74, 108
8, 280217, Note_off_c, 6, 74, 64
8, 280260, Note_on_c, 6, 74, 114
8, 280305, Note_off_c, 6, 74, 56
8, 280317, Note_on_c, 6, 76, 108
8, 280501, Note_off_c, 6, 76, 64
8, 280560, Note_on_c, 6, 76, 108
8, 280697, Note_off_c, 6, 76, 64
8, 280740, Note_on_c, 6, 76, 114
8, 280785, Note_off_c, 6, 76, 56
8, 280799, Note_on_c, 6, 74, 108
8, 280983, Note_off_c, 6, 74, 64
8, 281043, Note_on_c, 6, 74, 108
8, 281475, Note_off_c, 6, 74, 64
8, 281520, Note_on_c, 6, 76, 108
8, 281657, Note_off_c, 6, 76, 64
8, 281700, Note_on_c, 6, 76, 114
8, 281745, Note_off_c, 6, 76, 56
8, 281762, Note_on_c, 6, 74, 108
8, 281899, Note_off_c, 6, 74, 64
8, 281940, Note_on_c, 6, 74, 114
8, 281985, Note_off_c, 6, 74, 56
8, 281999, Note_on_c, 6, 74, 108
8, 282136, Note_off_c, 6, 74, 64
8, 282180, Note_on_c, 6, 74, 114
8, 282225, Note_off_c, 6, 74, 56
8, 282238, Note_on_c, 6, 76, 108
8, 282375, Note_off_c, 6, 76, 64
8, 282420, Note_on_c, 6, 76, 114
8, 282465, Note_off_c, 6, 76, 56
8, 282481, Note_on_c, 6, 76, 108
8, 282618, Note_off_c, 6, 76, 64
8, 282660, Note_on_c, 6, 76, 114
8, 282705, Note_off_c, 6, 76, 56
8, 282718, Note_on_c, 6, 74, 108
8, 282902, Note_off_c, 6, 74, 64
8, 282960, Note_on_c, 6, 74, 108
8, 283144, Note_off_c, 6, 74, 64
8, 283200, Note_on_c, 6, 76, 108
8, 283384, Note_off_c, 6, 76, 64
8, 283438, Note_on_c, 6, 76, 108
8, 283622, Note_off_c, 6, 76, 64
8, 283683, Note_on_c, 6, 74, 108
8, 283867, Note_off_c, 6, 74, 64
8, 283921, Note_on_c, 6, 74, 108
8, 284105, Note_off_c, 6, 74, 64
8, 284157, Note_on_c, 6, 76, 108
8, 284341, Note_off_c, 6, 76, 64
8, 284397, Note_on_c, 6, 76, 108
8, 284581, Note_off_c, 6, 76, 64
8, 284639, Note_on_c, 6, 74, 111
8, 284730, Note_off_c, 6, 74, 56
8, 284820, Note_on_c, 6, 76, 114
8, 284865, Note_off_c, 6, 76, 56
8, 284878, Note_on_c, 6, 76, 108
8, 285062, Note_off_c, 6, 76, 64
8, 285119, Note_on_c, 6, 74, 111
8, 285210, Note_off_c, 6, 74, 56
8, 285300, Note_on_c, 6, 76, 114
8, 285345, Note_off_c, 6, 76, 56
8, 285361, Note_on_c, 6, 76, 108
8, 285545, Note_off_c, 6, 76, 64
8, 285600, Note_on_c, 6, 74, 111
8, 285691, Note_off_c, 6, 74, 56
8, 285780, Note_on_c, 6, 76, 114
8, 285825, Note_off_c, 6, 76, 56
8, 285843, Note_on_c, 6, 76, 108
8, 286027, Note_off_c, 6, 76, 64
8, 286080, Note_on_c, 6, 74, 111
8, 286171, Note_off_c, 6, 74, 56
8, 286260, Note_on_c, 6, 76, 114
8, 286305, Note_off_c, 6, 76, 56
8, 286317, Note_on_c, 6, 76, 108
8, 286501, Note_off_c, 6, 76, 64
8, 286559, Note_on_c, 6, 74, 111
8, 286650, Note_off_c, 6, 74, 56
8, 290400, Note_on_c, 6, 72, 108
8, 291048, Note_off_c, 6, 72, 64
8, 291117, Note_on_c, 6, 67, 108
8, 291311, Note_off_c, 6, 67, 64
8, 291360, Note_on_c, 6, 76, 108
8, 292044, Note_off_c, 6, 76, 64
8, 292082, Note_on_c, 6, 74, 108
8, 292227, Note_off_c, 6, 74, 64
8, 292259, Note_on_c, 6, 72, 114
8, 292307, Note_off_c, 6, 72, 56
8, 292321, Note_on_c, 6, 74, 108
8, 294145, Note_off_c, 6, 74, 64
8, 294238, Note_on_c, 6, 74, 108
8, 294886, Note_off_c, 6, 74, 64
8, 294959, Note_on_c, 6, 67, 108
8, 295153, Note_off_c, 6, 67, 64
8, 295200, Note_on_c, 6, 77, 108
8, 295884, Note_off_c, 6, 77, 64
8, 295921, Note_on_c, 6, 76, 108
8, 296066, Note_off_c, 6, 76, 64
8, 296100, Note_on_c, 6, 74, 114
8, 296145, Note_off_c, 6, 74, 56
8, 296160, Note_on_c, 6, 76, 108
8, 297984, Note_off_c, 6, 76, 64
8, 298079, Note_on_c, 6, 72, 108
8, 301823, Note_off_c, 6, 72, 64
8, 301919, Note_on_c, 6, 79, 108
8, 305663, Note_off_c, 6, 79, 64
8, 305761, Note_on_c, 6, 79, 108
8, 306625, Note_off_c, 6, 79, 64
8, 306717, Note_on_c, 6, 79, 108
8, 307581, Note_off_c, 6, 79, 64
8, 307679, Note_on_c, 6, 79, 108
8, 308267, Note_off_c, 6, 79, 64
8, 308280, Note_on_c, 6, 79, 108
8, 308464, Note_off_c, 6, 79, 64
8, 308519, Note_on_c, 6, 79, 111
8, 308610, Note_off_c, 6, 79, 56
8, 308639, Note_on_c, 6, 79, 111
8, 308730, Note_off_c, 6, 79, 56
8, 308759, Note_on_c, 6, 79, 108
8, 308943, Note_off_c, 6, 79, 64
8, 309001, Note_on_c, 6, 79, 111
8, 309092, Note_off_c, 6, 79, 56
8, 309119, Note_on_c, 6, 79, 111
8, 309210, Note_off_c, 6, 79, 56
8, 309242, Note_on_c, 6, 74, 108
8, 309426, Note_off_c, 6, 74, 64
8, 309481, Note_on_c, 6, 74, 111
8, 309572, Note_off_c, 6, 74, 56
8, 309597, Note_on_c, 6, 74, 108
8, 309781, Note_off_c, 6, 74, 64
8, 311521, Note_on_c, 6, 72, 108
8, 311705, Note_off_c, 6, 72, 64
8, 311999, Note_on_c, 6, 72, 108
8, 312183, Note_off_c, 6, 72, 64
8, 312477, Note_on_c, 6, 72, 108
8, 313125, Note_off_c, 6, 72, 64
8, 315120, Note_on_c, 6, 79, 96
8, 315174, Note_off_c, 6, 79, 56
8, 315200, Note_on_c, 6, 79, 96
8, 315254, Note_off_c, 6, 79, 56
8, 315280, Note_on_c, 6, 79, 96
8, 315334, Note_off_c, 6, 79, 56
8, 315357, Note_on_c, 6, 72, 90
8, 315541, Note_off_c, 6, 72, 64
8, 315599, Note_on_c, 6, 72, 96
8, 315653, Note_off_c, 6, 72, 56
8, 315680, Note_on_c, 6, 72, 96
8, 315734, Note_off_c, 6, 72, 56
8, 315760, Note_on_c, 6, 72, 96
8, 315814, Note_off_c, 6, 72, 56
8, 315839, Note_on_c, 6, 72, 90
8, 316023, Note_off_c, 6, 72, 64
8, 316080, Note_on_c, 6, 72, 96
8, 316134, Note_off_c, 6, 72, 56
8, 316160, Note_on_c, 6, 72, 96
8, 316214, Note_off_c, 6, 72, 56
8, 316240, Note_on_c, 6, 72, 96
8, 316294, Note_off_c, 6, 72, 56
8, 316319, Note_on_c, 6, 72, 90
8, 316967, Note_off_c, 6, 72, 64
8, 318479, Note_on_c, 6, 74, 96
8, 318533, Note_off_c, 6, 74, 56
8, 318559, Note_on_c, 6, 74, 96
8, 318613, Note_off_c, 6, 74, 56
8, 318639, Note_on_c, 6, 74, 96
8, 318693, Note_off_c, 6, 74, 56
8, 318718, Note_on_c, 6, 76, 90
8, 318902, Note_off_c, 6, 76, 64
8, 320879, Note_on_c, 6, 72, 56
8, 323903, Note_off_c, 6, 72, 64
8, 324000, Note_on_c, 6, 72, 108
8, 324588, Note_off_c, 6, 72, 64
8, 324600, Note_on_c, 6, 72, 111
8, 324691, Note_off_c, 6, 72, 56
8, 324719, Note_on_c, 6, 72, 111
8, 324810, Note_off_c, 6, 72, 56
8, 324839, Note_on_c, 6, 72, 111
8, 324930, Note_off_c, 6, 72, 56
8, 324959, Note_on_c, 6, 72, 111
8, 325050, Note_off_c, 6, 72, 56
8, 325080, Note_on_c, 6, 72, 111
8, 325171, Note_off_c, 6, 72, 56
8, 325199, Note_on_c, 6, 72, 111
8, 325290, Note_off_c, 6, 72, 56
8, 325321, Note_on_c, 6, 72, 111
8, 325412, Note_off_c, 6, 72, 56
8, 325440, Note_on_c, 6, 72, 111
8, 325531, Note_off_c, 6, 72, 56
8, 325560, Note_on_c, 6, 72, 111
8, 325651, Note_off_c, 6, 72, 56
8, 325681, Note_on_c, 6, 72, 111
8, 325772, Note_off_c, 6, 72, 56
8, 325799, Note_on_c, 6, 72, 111
8, 325890, Note_off_c, 6, 72, 56
8, 325918, Note_on_c, 6, 72, 108
8, 326102, Note_off_c, 6, 72, 64
8, 326162, Note_on_c, 6, 72, 108
8, 326346, Note_off_c, 6, 72, 64
8, 326399, Note_on_c, 6, 72, 108
8, 326583, Note_off_c, 6, 72, 64
8, 326641, Note_on_c, 6, 72, 108
8, 326825, Note_off_c, 6, 72, 64
8, 326877, Note_on_c, 6, 72, 108
8, 327061, Note_off_c, 6, 72, 64
8, 327123, Note_on_c, 6, 72, 108
8, 327307, Note_off_c, 6, 72, 64
8, 327361, Note_on_c, 6, 72, 111
8, 327452, Note_off_c, 6, 72, 56
8, 327479, Note_on_c, 6, 72, 111
8, 327570, Note_off_c, 6, 72, 56
8, 327601, Note_on_c, 6, 72, 111
8, 327692, Note_off_c, 6, 72, 56
8, 327721, Note_on_c, 6, 72, 111
8, 327812, Note_off_c, 6, 72, 56
8, 327841, Note_on_c, 6, 72, 108
8, 327963, Note_off_c, 6, 72, 64
8, 328802, Note_on_c, 6, 67, 108
8, 328924, Note_off_c, 6, 67, 64
8, 330477, Note_on_c, 6, 74, 73
8, 330671, Note_off_c, 6, 74, 64
8, 330720, Note_on_c, 6, 72, 73
8, 330914, Note_off_c, 6, 72, 64
8, 330963, Note_on_c, 6, 74, 73
8, 331147, Note_off_c, 6, 74, 64
8, 331202, Note_on_c, 6, 74, 73
8, 331386, Note_off_c, 6, 74, 64
8, 331441, Note_on_c, 6, 74, 73
8, 331625, Note_off_c, 6, 74, 64
8, 332399, Note_on_c, 6, 74, 73
8, 332593, Note_off_c, 6, 74, 64
8, 332641, Note_on_c, 6, 72, 73
8, 332835, Note_off_c, 6, 72, 64
8, 332879, Note_on_c, 6, 74, 73
8, 333063, Note_off_c, 6, 74, 64
8, 333120, Note_on_c, 6, 74, 73
8, 333304, Note_off_c, 6, 74, 64
8, 333361, Note_on_c, 6, 74, 73
8, 333545, Note_off_c, 6, 74, 64
8, 333598, Note_on_c, 6, 77, 73
8, 334282, Note_off_c, 6, 77, 64
8, 334323, Note_on_c, 6, 76, 73
8, 334517, Note_off_c, 6, 76, 64
8, 334558, Note_on_c, 6, 74, 73
8, 334752, Note_off_c, 6, 74, 64
8, 334797, Note_on_c, 6, 79, 73
8, 334981, Note_off_c, 6, 79, 64
8, 335039, Note_on_c, 6, 79, 73
8, 335223, Note_off_c, 6, 79, 64
8, 335281, Note_on_c, 6, 79, 73
8, 335465, Note_off_c, 6, 79, 64
8, 335518, Note_on_c, 6, 77, 73
8, 335950, Note_off_c, 6, 77, 64
8, 336003, Note_on_c, 6, 77, 73
8, 336435, Note_off_c, 6, 77, 64
8, 336481, Note_on_c, 6, 76, 73
8, 336937, Note_off_c, 6, 76, 64
8, 336959, Note_on_c, 6, 77, 73
8, 337358, Note_off_c, 6, 77, 64
8, 337380, Note_on_c, 6, 74, 79
8, 337425, Note_off_c, 6, 74, 56
8, 337441, Note_on_c, 6, 72, 90
8, 338089, Note_off_c, 6, 72, 64
8, 338157, Note_on_c, 6, 74, 90
8, 338341, Note_off_c, 6, 74, 64
8, 338402, Note_on_c, 6, 72, 90
8, 338586, Note_off_c, 6, 72, 64
8, 338637, Note_on_c, 6, 77, 90
8, 338641, Note_on_c, 6, 74, 90
8, 338821, Note_off_c, 6, 77, 64
8, 338825, Note_off_c, 6, 74, 64
8, 338878, Note_on_c, 6, 77, 90
8, 338880, Note_on_c, 6, 74, 90
8, 339062, Note_off_c, 6, 77, 64
8, 339064, Note_off_c, 6, 74, 64
8, 339117, Note_on_c, 6, 74, 90
8, 339123, Note_on_c, 6, 77, 90
8, 339301, Note_off_c, 6, 74, 64
8, 339307, Note_off_c, 6, 77, 64
8, 339359, Note_on_c, 6, 72, 90
8, 340007, Note_off_c, 6, 72, 64
8, 340081, Note_on_c, 6, 74, 90
8, 340265, Note_off_c, 6, 74, 64
8, 340317, Note_on_c, 6, 72, 90
8, 340501, Note_off_c, 6, 72, 64
8, 340557, Note_on_c, 6, 77, 90
8, 340559, Note_on_c, 6, 74, 90
8, 340741, Note_off_c, 6, 77, 64
8, 340743, Note_off_c, 6, 74, 64
8, 340797, Note_on_c, 6, 74, 90
8, 340801, Note_on_c, 6, 77, 90
8, 340981, Note_off_c, 6, 74, 64
8, 340985, Note_off_c, 6, 77, 64
8, 341037, Note_on_c, 6, 74, 90
8, 341038, Note_on_c, 6, 77, 90
8, 341221, Note_off_c, 6, 74, 64
8, 341222, Note_off_c, 6, 77, 64
8, 341282, Note_on_c, 6, 74, 90
8, 341930, Note_off_c, 6, 74, 64
8, 342002, Note_on_c, 6, 72, 90
8, 342186, Note_off_c, 6, 72, 64
8, 342240, Note_on_c, 6, 72, 90
8, 342424, Note_off_c, 6, 72, 64
8, 342477, Note_on_c, 6, 76, 90
8, 342661, Note_off_c, 6, 76, 64
8, 342720, Note_on_c, 6, 76, 92
8, 342904, Note_off_c, 6, 76, 64
8, 342959, Note_on_c, 6, 76, 93
8, 343143, Note_off_c, 6, 76, 64
8, 343203, Note_on_c, 6, 76, 95
8, 343387, Note_off_c, 6, 76, 64
8, 343440, Note_on_c, 6, 76, 96
8, 343624, Note_off_c, 6, 76, 64
8, 343677, Note_on_c, 6, 76, 98
8, 343861, Note_off_c, 6, 76, 64
8, 343919, Note_on_c, 6, 76, 100
8, 344103, Note_off_c, 6, 76, 64
8, 344162, Note_on_c, 6, 76, 101
8, 344346, Note_off_c, 6, 76, 64
8, 344397, Note_on_c, 6, 76, 103
8, 344581, Note_off_c, 6, 76, 64
8, 344639, Note_on_c, 6, 76, 104
8, 344823, Note_off_c, 6, 76, 64
8, 344882, Note_on_c, 6, 76, 106
8, 345066, Note_off_c, 6, 76, 64
8, 345123, Note_on_c, 6, 76, 108
8, 345987, Note_off_c, 6, 76, 64
8, 346079, Note_on_c, 6, 77, 108
8, 347903, Note_off_c, 6, 77, 64
8, 348001, Note_on_c, 6, 72, 108
8, 349825, Note_off_c, 6, 72, 64
8, 349922, Note_on_c, 6, 72, 96
8, 350570, Note_off_c, 6, 72, 64
8, 351843, Note_on_c, 6, 79, 96
8, 352027, Note_off_c, 6, 79, 64
8, 353763, Note_on_c, 6, 79, 90
8, 353947, Note_off_c, 6, 79, 64
8, 355678, Note_on_c, 6, 79, 90
8, 355862, Note_off_c, 6, 79, 64
8, 357603, Note_on_c, 6, 79, 90
8, 357787, Note_off_c, 6, 79, 64
8, 358321, Note_on_c, 6, 76, 90
8, 358505, Note_off_c, 6, 76, 64
8, 358557, Note_on_c, 6, 74, 93
8, 358989, Note_off_c, 6, 74, 64
8, 359037, Note_on_c, 6, 76, 95
8, 359469, Note_off_c, 6, 76, 64
8, 359521, Note_on_c, 6, 77, 97
8, 360169, Note_off_c, 6, 77, 64
8, 360242, Note_on_c, 6, 77, 102
8, 360426, Note_off_c, 6, 77, 64
8, 360478, Note_on_c, 6, 76, 103
8, 360910, Note_off_c, 6, 76, 64
8, 360963, Note_on_c, 6, 77, 106
8, 361395, Note_off_c, 6, 77, 64
8, 361443, Note_on_c, 6, 79, 108
8, 363267, Note_off_c, 6, 79, 64
8, 363360, Note_on_c, 6, 72, 108
8, 363948, Note_off_c, 6, 72, 64
8, 363960, Note_on_c, 6, 72, 111
8, 364051, Note_off_c, 6, 72, 56
8, 364079, Note_on_c, 6, 72, 111
8, 364170, Note_off_c, 6, 72, 56
8, 364200, Note_on_c, 6, 72, 111
8, 364291, Note_off_c, 6, 72, 56
8, 364318, Note_on_c, 6, 72, 108
8, 364906, Note_off_c, 6, 72, 64
8, 364921, Note_on_c, 6, 72, 111
8, 365012, Note_off_c, 6, 72, 56
8, 365041, Note_on_c, 6, 72, 111
8, 365132, Note_off_c, 6, 72, 56
8, 365160, Note_on_c, 6, 72, 111
8, 365251, Note_off_c, 6, 72, 56
8, 365278, Note_on_c, 6, 72, 108
8, 365462, Note_off_c, 6, 72, 64
8, 365521, Note_on_c, 6, 77, 111
8, 365612, Note_off_c, 6, 77, 56
8, 365641, Note_on_c, 6, 77, 111
8, 365732, Note_off_c, 6, 77, 56
8, 365760, Note_on_c, 6, 77, 111
8, 365851, Note_off_c, 6, 77, 56
8, 365879, Note_on_c, 6, 77, 111
8, 365970, Note_off_c, 6, 77, 56
8, 365999, Note_on_c, 6, 77, 111
8, 366090, Note_off_c, 6, 77, 56
8, 366121, Note_on_c, 6, 77, 111
8, 366212, Note_off_c, 6, 77, 56
8, 366240, Note_on_c, 6, 77, 111
8, 366331, Note_off_c, 6, 77, 56
8, 366361, Note_on_c, 6, 77, 111
8, 366452, Note_off_c, 6, 77, 56
8, 366481, Note_on_c, 6, 77, 111
8, 366572, Note_off_c, 6, 77, 56
8, 366600, Note_on_c, 6, 77, 111
8, 366691, Note_off_c, 6, 77, 56
8, 366721, Note_on_c, 6, 77, 111
8, 366812, Note_off_c, 6, 77, 56
8, 366839, Note_on_c, 6, 77, 111
8, 366930, Note_off_c, 6, 77, 56
8, 366960, Note_on_c, 6, 77, 111
8, 367051, Note_off_c, 6, 77, 56
8, 367080, Note_on_c, 6, 77, 111
8, 367171, Note_off_c, 6, 77, 56
8, 367202, Note_on_c, 6, 74, 108
8, 367324, Note_off_c, 6, 74, 64
8, 368158, Note_on_c, 6, 74, 108
8, 368280, Note_off_c, 6, 74, 64
8, 369121, Note_on_c, 6, 72, 108
8, 369243, Note_off_c, 6, 72, 64
8, 370080, Note_on_c, 6, 74, 108
8, 370202, Note_off_c, 6, 74, 64
8, 371039, Note_on_c, 6, 72, 108
8, 371161, Note_off_c, 6, 72, 64
8, 372002, Note_on_c, 6, 74, 108
8, 372124, Note_off_c, 6, 74, 64
8, 374638, Note_on_c, 6, 64, 73
8, 374832, Note_off_c, 6, 64, 64
8, 374883, Note_on_c, 6, 72, 74
8, 375077, Note_off_c, 6, 72, 64
8, 375117, Note_on_c, 6, 67, 74
8, 375311, Note_off_c, 6, 67, 64
8, 375359, Note_on_c, 6, 76, 75
8, 375553, Note_off_c, 6, 76, 64
8, 375600, Note_on_c, 6, 74, 75
8, 375745, Note_off_c, 6, 74, 64
8, 375780, Note_on_c, 6, 72, 83
8, 375825, Note_off_c, 6, 72, 56
8, 375840, Note_on_c, 6, 79, 77
8, 381504, Note_off_c, 6, 79, 64
8, 381599, Note_on_c, 6, 72, 90
8, 381783, Note_off_c, 6, 72, 64
8, 381839, Note_on_c, 6, 72, 90
8, 382023, Note_off_c, 6, 72, 64
8, 382079, Note_on_c, 6, 72, 90
8, 382263, Note_off_c, 6, 72, 64
8, 382318, Note_on_c, 6, 72, 90
8, 382502, Note_off_c, 6, 72, 64
8, 382559, Note_on_c, 6, 72, 90
8, 382743, Note_off_c, 6, 72, 64
8, 382803, Note_on_c, 6, 72, 90
8, 382987, Note_off_c, 6, 72, 64
8, 383042, Note_on_c, 6, 72, 90
8, 383226, Note_off_c, 6, 72, 64
8, 383283, Note_on_c, 6, 72, 90
8, 383467, Note_off_c, 6, 72, 64
8, 383518, Note_on_c, 6, 72, 90
8, 384166, Note_off_c, 6, 72, 64
8, 384241, Note_on_c, 6, 72, 90
8, 384363, Note_off_c, 6, 72, 64
8, 384477, Note_on_c, 6, 72, 90
8, 385125, Note_off_c, 6, 72, 64
8, 385200, Note_on_c, 6, 72, 90
8, 385322, Note_off_c, 6, 72, 64
8, 385439, Note_on_c, 6, 72, 90
8, 386087, Note_off_c, 6, 72, 64
8, 386160, Note_on_c, 6, 72, 90
8, 386282, Note_off_c, 6, 72, 64
8, 386403, Note_on_c, 6, 72, 90
8, 387051, Note_off_c, 6, 72, 64
8, 387120, Note_on_c, 6, 72, 90
8, 387242, Note_off_c, 6, 72, 64
8, 387360, Note_on_c, 6, 67, 90
8, 387544, Note_off_c, 6, 67, 64
8, 387839, Note_on_c, 6, 76, 73
8, 388023, Note_off_c, 6, 76, 64
8, 388317, Note_on_c, 6, 77, 73
8, 388501, Note_off_c, 6, 77, 64
8, 388801, Note_on_c, 6, 74, 73
8, 388985, Note_off_c, 6, 74, 64
8, 390963, Note_on_c, 6, 64, 74
8, 391157, Note_off_c, 6, 64, 64
8, 391201, Note_on_c, 6, 72, 74
8, 391395, Note_off_c, 6, 72, 64
8, 391438, Note_on_c, 6, 67, 75
8, 391632, Note_off_c, 6, 67, 64
8, 391678, Note_on_c, 6, 76, 75
8, 391872, Note_off_c, 6, 76, 64
8, 391918, Note_on_c, 6, 74, 77
8, 392063, Note_off_c, 6, 74, 64
8, 392100, Note_on_c, 6, 72, 83
8, 392145, Note_off_c, 6, 72, 56
8, 392160, Note_on_c, 6, 79, 77
8, 392808, Note_off_c, 6, 79, 64
8, 392878, Note_on_c, 6, 79, 79
8, 393072, Note_off_c, 6, 79, 64
8, 393120, Note_on_c, 6, 74, 79
8, 393304, Note_off_c, 6, 74, 64
8, 393361, Note_on_c, 6, 74, 80
8, 393545, Note_off_c, 6, 74, 64
8, 393840, Note_on_c, 6, 74, 81
8, 394024, Note_off_c, 6, 74, 64
8, 394323, Note_on_c, 6, 76, 82
8, 394507, Note_off_c, 6, 76, 64
8, 394800, Note_on_c, 6, 76, 83
8, 394984, Note_off_c, 6, 76, 64
8, 395280, Note_on_c, 6, 74, 85
8, 395464, Note_off_c, 6, 74, 64
8, 395759, Note_on_c, 6, 74, 86
8, 395943, Note_off_c, 6, 74, 64
8, 396237, Note_on_c, 6, 76, 87
8, 396421, Note_off_c, 6, 76, 64
8, 396718, Note_on_c, 6, 76, 88
8, 396902, Note_off_c, 6, 76, 64
8, 397197, Note_on_c, 6, 74, 89
8, 397381, Note_off_c, 6, 74, 64
8, 397682, Note_on_c, 6, 74, 90
8, 397866, Note_off_c, 6, 74, 64
8, 397920, Note_on_c, 6, 72, 90
8, 398104, Note_off_c, 6, 72, 64
8, 398163, Note_on_c, 6, 72, 90
8, 398347, Note_off_c, 6, 72, 64
8, 398397, Note_on_c, 6, 72, 90
8, 398581, Note_off_c, 6, 72, 64
8, 398637, Note_on_c, 6, 72, 90
8, 398821, Note_off_c, 6, 72, 64
8, 398880, Note_on_c, 6, 72, 90
8, 399064, Note_off_c, 6, 72, 64
8, 399122, Note_on_c, 6, 72, 90
8, 399306, Note_off_c, 6, 72, 64
8, 399357, Note_on_c, 6, 72, 90
8, 399541, Note_off_c, 6, 72, 64
8, 399601, Note_on_c, 6, 72, 90
8, 399785, Note_off_c, 6, 72, 64
8, 399840, Note_on_c, 6, 72, 90
8, 400488, Note_off_c, 6, 72, 64
8, 400558, Note_on_c, 6, 72, 90
8, 400680, Note_off_c, 6, 72, 64
8, 400802, Note_on_c, 6, 72, 90
8, 401450, Note_off_c, 6, 72, 64
8, 401521, Note_on_c, 6, 72, 90
8, 401643, Note_off_c, 6, 72, 64
8, 401762, Note_on_c, 6, 72, 90
8, 402410, Note_off_c, 6, 72, 64
8, 402482, Note_on_c, 6, 72, 90
8, 402604, Note_off_c, 6, 72, 64
8, 402717, Note_on_c, 6, 72, 90
8, 403365, Note_off_c, 6, 72, 64
8, 403438, Note_on_c, 6, 72, 90
8, 403560, Note_off_c, 6, 72, 64
8, 403681, Note_on_c, 6, 72, 76
8, 403772, Note_off_c, 6, 72, 56
8, 403799, Note_on_c, 6, 72, 76
8, 403890, Note_off_c, 6, 72, 56
8, 403920, Note_on_c, 6, 72, 76
8, 404011, Note_off_c, 6, 72, 56
8, 404040, Note_on_c, 6, 72, 76
8, 404131, Note_off_c, 6, 72, 56
8, 404279, Note_on_c, 6, 72, 77
8, 404370, Note_off_c, 6, 72, 56
8, 404401, Note_on_c, 6, 72, 77
8, 404492, Note_off_c, 6, 72, 56
8, 404520, Note_on_c, 6, 72, 77
8, 404611, Note_off_c, 6, 72, 56
8, 404759, Note_on_c, 6, 72, 77
8, 404850, Note_off_c, 6, 72, 56
8, 404881, Note_on_c, 6, 72, 78
8, 404972, Note_off_c, 6, 72, 56
8, 405001, Note_on_c, 6, 72, 78
8, 405092, Note_off_c, 6, 72, 56
8, 405240, Note_on_c, 6, 72, 78
8, 405331, Note_off_c, 6, 72, 56
8, 405361, Note_on_c, 6, 72, 78
8, 405452, Note_off_c, 6, 72, 56
8, 405480, Note_on_c, 6, 72, 78
8, 405571, Note_off_c, 6, 72, 56
8, 405721, Note_on_c, 6, 74, 80
8, 405812, Note_off_c, 6, 74, 56
8, 405839, Note_on_c, 6, 74, 80
8, 405930, Note_off_c, 6, 74, 56
8, 405961, Note_on_c, 6, 74, 80
8, 406052, Note_off_c, 6, 74, 56
8, 406200, Note_on_c, 6, 76, 80
8, 406291, Note_off_c, 6, 76, 56
8, 406320, Note_on_c, 6, 76, 80
8, 406411, Note_off_c, 6, 76, 56
8, 406440, Note_on_c, 6, 76, 81
8, 406531, Note_off_c, 6, 76, 56
8, 406803, Note_on_c, 6, 74, 78
8, 406987, Note_off_c, 6, 74, 64
8, 407283, Note_on_c, 6, 72, 79
8, 407467, Note_off_c, 6, 72, 64
8, 407763, Note_on_c, 6, 72, 79
8, 407947, Note_off_c, 6, 72, 64
8, 408239, Note_on_c, 6, 72, 80
8, 408423, Note_off_c, 6, 72, 64
8, 408722, Note_on_c, 6, 72, 81
8, 408906, Note_off_c, 6, 72, 64
8, 409199, Note_on_c, 6, 72, 81
8, 409383, Note_off_c, 6, 72, 64
8, 409677, Note_on_c, 6, 74, 82
8, 409861, Note_off_c, 6, 74, 64
8, 410162, Note_on_c, 6, 76, 83
8, 410346, Note_off_c, 6, 76, 64
8, 410641, Note_on_c, 6, 74, 83
8, 410825, Note_off_c, 6, 74, 64
8, 411123, Note_on_c, 6, 72, 85
8, 411307, Note_off_c, 6, 72, 64
8, 411599, Note_on_c, 6, 72, 85
8, 411783, Note_off_c, 6, 72, 64
8, 412083, Note_on_c, 6, 72, 86
8, 412267, Note_off_c, 6, 72, 64
8, 412562, Note_on_c, 6, 72, 87
8, 412746, Note_off_c, 6, 72, 64
8, 413040, Note_on_c, 6, 72, 87
8, 413224, Note_off_c, 6, 72, 64
8, 413279, Note_on_c, 6, 74, 88
8, 413463, Note_off_c, 6, 74, 64
8, 413762, Note_on_c, 6, 76, 88
8, 413946, Note_off_c, 6, 76, 64
8, 414240, Note_on_c, 6, 74, 89
8, 414424, Note_off_c, 6, 74, 64
8, 414717, Note_on_c, 6, 74, 89
8, 414901, Note_off_c, 6, 74, 64
8, 415199, Note_on_c, 6, 72, 93
8, 415307, Note_off_c, 6, 72, 56
8, 416159, Note_on_c, 6, 72, 93
8, 416245, Note_off_c, 6, 72, 56
8, 417119, Note_on_c, 6, 72, 93
8, 417205, Note_off_c, 6, 72, 56
8, 418079, Note_on_c, 6, 72, 93
8, 418165, Note_off_c, 6, 72, 56
8, 419040, Note_on_c, 6, 72, 93
8, 419126, Note_off_c, 6, 72, 56
8, 420000, Note_on_c, 6, 72, 93
8, 420086, Note_off_c, 6, 72, 56
8, 420961, Note_on_c, 6, 72, 93
8, 421047, Note_off_c, 6, 72, 56
8, 421560, Note_on_c, 6, 74, 76
8, 421646, Note_off_c, 6, 74, 56
8, 421680, Note_on_c, 6, 74, 76
8, 421766, Note_off_c, 6, 74, 56
8, 421799, Note_on_c, 6, 74, 76
8, 421885, Note_off_c, 6, 74, 56
8, 421919, Note_on_c, 6, 72, 93
8, 422005, Note_off_c, 6, 72, 56
8, 422520, Note_on_c, 6, 74, 76
8, 422606, Note_off_c, 6, 74, 56
8, 422639, Note_on_c, 6, 74, 76
8, 422725, Note_off_c, 6, 74, 56
8, 422761, Note_on_c, 6, 74, 76
8, 422847, Note_off_c, 6, 74, 56
8, 422880, Note_on_c, 6, 72, 76
8, 422966, Note_off_c, 6, 72, 56
8, 423121, Note_on_c, 6, 72, 77
8, 423207, Note_off_c, 6, 72, 56
8, 423359, Note_on_c, 6, 72, 78
8, 423445, Note_off_c, 6, 72, 56
8, 423600, Note_on_c, 6, 72, 80
8, 423686, Note_off_c, 6, 72, 56
8, 423840, Note_on_c, 6, 74, 81
8, 423926, Note_off_c, 6, 74, 56
8, 424080, Note_on_c, 6, 76, 82
8, 424166, Note_off_c, 6, 76, 56
8, 424319, Note_on_c, 6, 74, 83
8, 424405, Note_off_c, 6, 74, 56
8, 424559, Note_on_c, 6, 72, 84
8, 424645, Note_off_c, 6, 72, 56
8, 424800, Note_on_c, 6, 72, 85
8, 424886, Note_off_c, 6, 72, 56
8, 425041, Note_on_c, 6, 72, 85
8, 425127, Note_off_c, 6, 72, 56
8, 425279, Note_on_c, 6, 72, 86
8, 425365, Note_off_c, 6, 72, 56
8, 425519, Note_on_c, 6, 72, 88
8, 425605, Note_off_c, 6, 72, 56
8, 425759, Note_on_c, 6, 74, 89
8, 425845, Note_off_c, 6, 74, 56
8, 426000, Note_on_c, 6, 76, 90
8, 426086, Note_off_c, 6, 76, 56
8, 426241, Note_on_c, 6, 74, 91
8, 426327, Note_off_c, 6, 74, 56
8, 426481, Note_on_c, 6, 72, 92
8, 426567, Note_off_c, 6, 72, 56
8, 426599, Note_on_c, 6, 72, 93
8, 426685, Note_off_c, 6, 72, 56
8, 426721, Note_on_c, 6, 72, 93
8, 426807, Note_off_c, 6, 72, 56
8, 426839, Note_on_c, 6, 72, 93
8, 426925, Note_off_c, 6, 72, 56
8, 426961, Note_on_c, 6, 72, 93
8, 427047, Note_off_c, 6, 72, 56
8, 427080, Note_on_c, 6, 72, 93
8, 427166, Note_off_c, 6, 72, 56
8, 427200, Note_on_c, 6, 72, 93
8, 427286, Note_off_c, 6, 72, 56
8, 427321, Note_on_c, 6, 72, 93
8, 427407, Note_off_c, 6, 72, 56
8, 427439, Note_on_c, 6, 72, 93
8, 427525, Note_off_c, 6, 72, 56
8, 427560, Note_on_c, 6, 72, 93
8, 427646, Note_off_c, 6, 72, 56
8, 427679, Note_on_c, 6, 74, 93
8, 427765, Note_off_c, 6, 74, 56
8, 427801, Note_on_c, 6, 74, 93
8, 427887, Note_off_c, 6, 74, 56
8, 427920, Note_on_c, 6, 76, 93
8, 428006, Note_off_c, 6, 76, 56
8, 428039, Note_on_c, 6, 76, 93
8, 428125, Note_off_c, 6, 76, 56
8, 428160, Note_on_c, 6, 74, 93
8, 428246, Note_off_c, 6, 74, 56
8, 428281, Note_on_c, 6, 74, 93
8, 428367, Note_off_c, 6, 74, 56
8, 428400, Note_on_c, 6, 74, 93
8, 428486, Note_off_c, 6, 74, 56
8, 428519, Note_on_c, 6, 74, 93
8, 428605, Note_off_c, 6, 74, 56
8, 428637, Note_on_c, 6, 72, 108
8, 428809, Note_off_c, 6, 72, 67
8, 428879, Note_on_c, 6, 76, 108
8, 429051, Note_off_c, 6, 76, 67
8, 429119, Note_on_c, 6, 79, 108
8, 429407, Note_off_c, 6, 79, 67
8, 429479, Note_on_c, 6, 77, 111
8, 429565, Note_off_c, 6, 77, 56
8, 429599, Note_on_c, 6, 76, 111
8, 429685, Note_off_c, 6, 76, 56
8, 429720, Note_on_c, 6, 74, 111
8, 429806, Note_off_c, 6, 74, 56
8, 429840, Note_on_c, 6, 72, 111
8, 429926, Note_off_c, 6, 72, 56
8, 429961, Note_on_c, 6, 74, 111
8, 430047, Note_off_c, 6, 74, 56
8, 430078, Note_on_c, 6, 76, 108
8, 430366, Note_off_c, 6, 76, 68
8, 430440, Note_on_c, 6, 76, 111
8, 430526, Note_off_c, 6, 76, 56
8, 430559, Note_on_c, 6, 76, 111
8, 430645, Note_off_c, 6, 76, 56
8, 430681, Note_on_c, 6, 74, 111
8, 430767, Note_off_c, 6, 74, 56
8, 430799, Note_on_c, 6, 76, 111
8, 430885, Note_off_c, 6, 76, 56
8, 430920, Note_on_c, 6, 77, 111
8, 431006, Note_off_c, 6, 77, 56
8, 431041, Note_on_c, 6, 79, 108
8, 431329, Note_off_c, 6, 79, 68
8, 431399, Note_on_c, 6, 79, 111
8, 431485, Note_off_c, 6, 79, 56
8, 431519, Note_on_c, 6, 79, 111
8, 431605, Note_off_c, 6, 79, 56
8, 431640, Note_on_c, 6, 79, 111
8, 431726, Note_off_c, 6, 79, 56
8, 431761, Note_on_c, 6, 79, 111
8, 431847, Note_off_c, 6, 79, 56
8, 431881, Note_on_c, 6, 79, 111
8, 431967, Note_off_c, 6, 79, 56
8, 431999, Note_on_c, 6, 79, 108
8, 432287, Note_off_c, 6, 79, 69
8, 432361, Note_on_c, 6, 79, 111
8, 432447, Note_off_c, 6, 79, 56
8, 432480, Note_on_c, 6, 79, 111
8, 432566, Note_off_c, 6, 79, 56
8, 432600, Note_on_c, 6, 79, 111
8, 432686, Note_off_c, 6, 79, 56
8, 432719, Note_on_c, 6, 79, 111
8, 432805, Note_off_c, 6, 79, 56
8, 432839, Note_on_c, 6, 79, 111
8, 432925, Note_off_c, 6, 79, 56
8, 432961, Note_on_c, 6, 79, 111
8, 433047, Note_off_c, 6, 79, 56
8, 433081, Note_on_c, 6, 79, 111
8, 433167, Note_off_c, 6, 79, 56
8, 433199, Note_on_c, 6, 79, 111
8, 433285, Note_off_c, 6, 79, 56
8, 433321, Note_on_c, 6, 79, 111
8, 433407, Note_off_c, 6, 79, 56
8, 433440, Note_on_c, 6, 79, 108
8, 434208, Note_off_c, 6, 79, 69
8, 434399, Note_on_c, 6, 76, 108
8, 435167, Note_off_c, 6, 76, 69
8, 435360, Note_on_c, 6, 72, 111
8, 435468, Note_off_c, 6, 72, 56
8, 435840, Note_on_c, 6, 74, 111
8, 435948, Note_off_c, 6, 74, 56
8, 436318, Note_on_c, 6, 76, 111
8, 436426, Note_off_c, 6, 76, 56
8, 436799, Note_on_c, 6, 79, 111
8, 436907, Note_off_c, 6, 79, 56
8, 437280, Note_on_c, 6, 76, 111
8, 437388, Note_off_c, 6, 76, 56
8, 437761, Note_on_c, 6, 74, 111
8, 437869, Note_off_c, 6, 74, 56
8, 438238, Note_on_c, 6, 76, 111
8, 438346, Note_off_c, 6, 76, 56
8, 438718, Note_on_c, 6, 79, 111
8, 438826, Note_off_c, 6, 79, 56
8, 439201, Note_on_c, 6, 76, 111
8, 439309, Note_off_c, 6, 76, 56
8, 439681, Note_on_c, 6, 79, 111
8, 439789, Note_off_c, 6, 79, 56
8, 440160, Note_on_c, 6, 76, 111
8, 440268, Note_off_c, 6, 76, 56
8, 440638, Note_on_c, 6, 79, 111
8, 440746, Note_off_c, 6, 79, 56
8, 441120, Note_on_c, 6, 84, 108
8, 441888, Note_off_c, 6, 84, 71
8, 442081, Note_on_c, 6, 84, 108
8, 442657, Note_off_c, 6, 84, 72
8, 442800, Note_on_c, 6, 79, 111
8, 442886, Note_off_c, 6, 79, 56
8, 442920, Note_on_c, 6, 76, 111
8, 443006, Note_off_c, 6, 76, 56
8, 443039, Note_on_c, 6, 72, 111
8, 443125, Note_off_c, 6, 72, 56
8, 443400, Note_on_c, 6, 72, 111
8, 443486, Note_off_c, 6, 72, 56
8, 443519, Note_on_c, 6, 72, 111
8, 443605, Note_off_c, 6, 72, 56
8, 443641, Note_on_c, 6, 72, 111
8, 443727, Note_off_c, 6, 72, 56
8, 443761, Note_on_c, 6, 72, 111
8, 443847, Note_off_c, 6, 72, 56
8, 443881, Note_on_c, 6, 72, 111
8, 443967, Note_off_c, 6, 72, 56
8, 444000, Note_on_c, 6, 72, 111
8, 444086, Note_off_c, 6, 72, 56
8, 444359, Note_on_c, 6, 76, 111
8, 444445, Note_off_c, 6, 76, 56
8, 444481, Note_on_c, 6, 76, 111
8, 444567, Note_off_c, 6, 76, 56
8, 444601, Note_on_c, 6, 76, 111
8, 444687, Note_off_c, 6, 76, 56
8, 444720, Note_on_c, 6, 76, 111
8, 444806, Note_off_c, 6, 76, 56
8, 444839, Note_on_c, 6, 76, 111
8, 444925, Note_off_c, 6, 76, 56
8, 444961, Note_on_c, 6, 76, 111
8, 445047, Note_off_c, 6, 76, 56
8, 445200, Note_on_c, 6, 72, 111
8, 445286, Note_off_c, 6, 72, 56
8, 445320, Note_on_c, 6, 72, 111
8, 445406, Note_off_c, 6, 72, 56
8, 445439, Note_on_c, 6, 72, 111
8, 445525, Note_off_c, 6, 72, 56
8, 445681, Note_on_c, 6, 76, 111
8, 445767, Note_off_c, 6, 76, 56
8, 445799, Note_on_c, 6, 76, 111
8, 445885, Note_off_c, 6, 76, 56
8, 445920, Note_on_c, 6, 76, 111
8, 446006, Note_off_c, 6, 76, 56
8, 446159, Note_on_c, 6, 79, 111
8, 446245, Note_off_c, 6, 79, 56
8, 446280, Note_on_c, 6, 79, 111
8, 446366, Note_off_c, 6, 79, 56
8, 446400, Note_on_c, 6, 79, 111
8, 446486, Note_off_c, 6, 79, 56
8, 446639, Note_on_c, 6, 72, 111
8, 446725, Note_off_c, 6, 72, 56
8, 446759, Note_on_c, 6, 72, 111
8, 446845, Note_off_c, 6, 72, 56
8, 446879, Note_on_c, 6, 72, 108
8, 447647, Note_off_c, 6, 72, 73
8, 447837, Note_on_c, 6, 76, 108
8, 448605, Note_off_c, 6, 76, 74
8, 448800, Note_on_c, 6, 76, 111
8, 448908, Note_off_c, 6, 76, 56
8, 449759, Note_on_c, 6, 72, 111
8, 449867, Note_off_c, 6, 72, 56
8, 450721, Note_on_c, 6, 72, 111
8, 450829, Note_off_c, 6, 72, 56
8, 451679, Note_on_c, 6, 72, 111
8, 451787, Note_off_c, 6, 72, 56
8, 452158, Note_on_c, 6, 72, 111
8, 452266, Note_off_c, 6, 72, 56
8, 452641, Note_on_c, 6, 72, 111
8, 452749, Note_off_c, 6, 72, 56
8, 453601, Note_on_c, 6, 72, 111
8, 453709, Note_off_c, 6, 72, 56
8, 454563, Note_on_c, 6, 72, 108
8, 455523, Note_off_c, 6, 72, 76
8, 455523, End_track
9, 0, Start_track
9, 0, Title_t, "Trumpets1"
9, 0, Program_c, 7, 56
9, 0, Control_c, 7, 7, 112
9, 0, Note_on_c, 7, 72, 108
9, 0, Control_c, 7, 91, 49
9, 0, Control_c, 7, 93, 10
9, 0, Control_c, 7, 10, 81
9, 432, Note_off_c, 7, 72, 64
9, 478, Note_on_c, 7, 76, 108
9, 910, Note_off_c, 7, 76, 64
9, 958, Note_on_c, 7, 79, 108
9, 1606, Note_off_c, 7, 79, 64
9, 1679, Note_on_c, 7, 77, 111
9, 1760, Note_off_c, 7, 77, 56
9, 1921, Note_on_c, 7, 76, 111
9, 2002, Note_off_c, 7, 76, 56
9, 2160, Note_on_c, 7, 74, 111
9, 2241, Note_off_c, 7, 74, 56
9, 2401, Note_on_c, 7, 72, 111
9, 2482, Note_off_c, 7, 72, 56
9, 2639, Note_on_c, 7, 74, 111
9, 2720, Note_off_c, 7, 74, 56
9, 2882, Note_on_c, 7, 72, 108
9, 3530, Note_off_c, 7, 72, 64
9, 3601, Note_on_c, 7, 72, 108
9, 3738, Note_off_c, 7, 72, 64
9, 3780, Note_on_c, 7, 72, 114
9, 3820, Note_off_c, 7, 72, 56
9, 3843, Note_on_c, 7, 74, 108
9, 4491, Note_off_c, 7, 74, 64
9, 4560, Note_on_c, 7, 74, 108
9, 4697, Note_off_c, 7, 74, 64
9, 4740, Note_on_c, 7, 74, 114
9, 4780, Note_off_c, 7, 74, 56
9, 4799, Note_on_c, 7, 76, 108
9, 5387, Note_off_c, 7, 76, 64
9, 5400, Note_on_c, 7, 72, 111
9, 5481, Note_off_c, 7, 72, 56
9, 5520, Note_on_c, 7, 72, 111
9, 5601, Note_off_c, 7, 72, 56
9, 5640, Note_on_c, 7, 72, 111
9, 5721, Note_off_c, 7, 72, 56
9, 5757, Note_on_c, 7, 72, 108
9, 5941, Note_off_c, 7, 72, 64
9, 6000, Note_on_c, 7, 72, 111
9, 6081, Note_off_c, 7, 72, 56
9, 6120, Note_on_c, 7, 72, 111
9, 6201, Note_off_c, 7, 72, 56
9, 6240, Note_on_c, 7, 72, 108
9, 6424, Note_off_c, 7, 72, 64
9, 6481, Note_on_c, 7, 72, 111
9, 6562, Note_off_c, 7, 72, 56
9, 6599, Note_on_c, 7, 72, 111
9, 6680, Note_off_c, 7, 72, 56
9, 6720, Note_on_c, 7, 72, 108
9, 7308, Note_off_c, 7, 72, 64
9, 7320, Note_on_c, 7, 72, 111
9, 7401, Note_off_c, 7, 72, 56
9, 7439, Note_on_c, 7, 72, 111
9, 7520, Note_off_c, 7, 72, 56
9, 7561, Note_on_c, 7, 72, 111
9, 7642, Note_off_c, 7, 72, 56
9, 7677, Note_on_c, 7, 72, 108
9, 7861, Note_off_c, 7, 72, 64
9, 7920, Note_on_c, 7, 72, 111
9, 8001, Note_off_c, 7, 72, 56
9, 8041, Note_on_c, 7, 72, 111
9, 8122, Note_off_c, 7, 72, 56
9, 8160, Note_on_c, 7, 72, 108
9, 8344, Note_off_c, 7, 72, 64
9, 8401, Note_on_c, 7, 72, 111
9, 8482, Note_off_c, 7, 72, 56
9, 8520, Note_on_c, 7, 72, 111
9, 8601, Note_off_c, 7, 72, 56
9, 8642, Note_on_c, 7, 72, 108
9, 9230, Note_off_c, 7, 72, 64
9, 9240, Note_on_c, 7, 72, 111
9, 9321, Note_off_c, 7, 72, 56
9, 9360, Note_on_c, 7, 72, 111
9, 9441, Note_off_c, 7, 72, 56
9, 9481, Note_on_c, 7, 72, 111
9, 9562, Note_off_c, 7, 72, 56
9, 9597, Note_on_c, 7, 72, 108
9, 9781, Note_off_c, 7, 72, 64
9, 9841, Note_on_c, 7, 72, 111
9, 9922, Note_off_c, 7, 72, 56
9, 9960, Note_on_c, 7, 72, 111
9, 10041, Note_off_c, 7, 72, 56
9, 10082, Note_on_c, 7, 72, 108
9, 10266, Note_off_c, 7, 72, 64
9, 10321, Note_on_c, 7, 72, 111
9, 10402, Note_off_c, 7, 72, 56
9, 10440, Note_on_c, 7, 72, 111
9, 10521, Note_off_c, 7, 72, 56
9, 10560, Note_on_c, 7, 72, 108
9, 11208, Note_off_c, 7, 72, 64
9, 11280, Note_on_c, 7, 76, 108
9, 11417, Note_off_c, 7, 76, 64
9, 11460, Note_on_c, 7, 76, 114
9, 11500, Note_off_c, 7, 76, 56
9, 11521, Note_on_c, 7, 74, 108
9, 11705, Note_off_c, 7, 74, 64
9, 11762, Note_on_c, 7, 74, 108
9, 11899, Note_off_c, 7, 74, 64
9, 11940, Note_on_c, 7, 74, 114
9, 11980, Note_off_c, 7, 74, 56
9, 12001, Note_on_c, 7, 76, 108
9, 12185, Note_off_c, 7, 76, 64
9, 12239, Note_on_c, 7, 76, 108
9, 12376, Note_off_c, 7, 76, 64
9, 12420, Note_on_c, 7, 76, 114
9, 12460, Note_off_c, 7, 76, 56
9, 12480, Note_on_c, 7, 74, 108
9, 12664, Note_off_c, 7, 74, 64
9, 12717, Note_on_c, 7, 74, 108
9, 13149, Note_off_c, 7, 74, 64
9, 13201, Note_on_c, 7, 76, 108
9, 13338, Note_off_c, 7, 76, 64
9, 13380, Note_on_c, 7, 76, 114
9, 13420, Note_off_c, 7, 76, 56
9, 13439, Note_on_c, 7, 74, 108
9, 13623, Note_off_c, 7, 74, 64
9, 13680, Note_on_c, 7, 74, 108
9, 13817, Note_off_c, 7, 74, 64
9, 13860, Note_on_c, 7, 74, 114
9, 13900, Note_off_c, 7, 74, 56
9, 13921, Note_on_c, 7, 76, 108
9, 14105, Note_off_c, 7, 76, 64
9, 14160, Note_on_c, 7, 76, 108
9, 14297, Note_off_c, 7, 76, 64
9, 14340, Note_on_c, 7, 76, 114
9, 14380, Note_off_c, 7, 76, 56
9, 14403, Note_on_c, 7, 74, 108
9, 14587, Note_off_c, 7, 74, 64
9, 14639, Note_on_c, 7, 74, 108
9, 15071, Note_off_c, 7, 74, 64
9, 15119, Note_on_c, 7, 76, 108
9, 15256, Note_off_c, 7, 76, 64
9, 15300, Note_on_c, 7, 76, 114
9, 15340, Note_off_c, 7, 76, 56
9, 15358, Note_on_c, 7, 74, 108
9, 15495, Note_off_c, 7, 74, 64
9, 15540, Note_on_c, 7, 74, 114
9, 15580, Note_off_c, 7, 74, 56
9, 15600, Note_on_c, 7, 74, 108
9, 15737, Note_off_c, 7, 74, 64
9, 15780, Note_on_c, 7, 74, 114
9, 15820, Note_off_c, 7, 74, 56
9, 15838, Note_on_c, 7, 76, 108
9, 15975, Note_off_c, 7, 76, 64
9, 16020, Note_on_c, 7, 76, 114
9, 16060, Note_off_c, 7, 76, 56
9, 16078, Note_on_c, 7, 76, 108
9, 16215, Note_off_c, 7, 76, 64
9, 16260, Note_on_c, 7, 76, 114
9, 16300, Note_off_c, 7, 76, 56
9, 16317, Note_on_c, 7, 74, 108
9, 16501, Note_off_c, 7, 74, 64
9, 16561, Note_on_c, 7, 74, 108
9, 16745, Note_off_c, 7, 74, 64
9, 16797, Note_on_c, 7, 76, 108
9, 16981, Note_off_c, 7, 76, 64
9, 17040, Note_on_c, 7, 76, 108
9, 17224, Note_off_c, 7, 76, 64
9, 17283, Note_on_c, 7, 74, 108
9, 17467, Note_off_c, 7, 74, 64
9, 17519, Note_on_c, 7, 74, 108
9, 17703, Note_off_c, 7, 74, 64
9, 17762, Note_on_c, 7, 76, 108
9, 17946, Note_off_c, 7, 76, 64
9, 18000, Note_on_c, 7, 76, 108
9, 18184, Note_off_c, 7, 76, 64
9, 18241, Note_on_c, 7, 74, 111
9, 18322, Note_off_c, 7, 74, 56
9, 18420, Note_on_c, 7, 76, 114
9, 18460, Note_off_c, 7, 76, 56
9, 18481, Note_on_c, 7, 76, 108
9, 18665, Note_off_c, 7, 76, 64
9, 18720, Note_on_c, 7, 74, 111
9, 18801, Note_off_c, 7, 74, 56
9, 18900, Note_on_c, 7, 76, 114
9, 18940, Note_off_c, 7, 76, 56
9, 18963, Note_on_c, 7, 76, 108
9, 19147, Note_off_c, 7, 76, 64
9, 19200, Note_on_c, 7, 74, 111
9, 19281, Note_off_c, 7, 74, 56
9, 19380, Note_on_c, 7, 76, 114
9, 19420, Note_off_c, 7, 76, 56
9, 19438, Note_on_c, 7, 76, 108
9, 19622, Note_off_c, 7, 76, 64
9, 19680, Note_on_c, 7, 74, 111
9, 19761, Note_off_c, 7, 74, 56
9, 19860, Note_on_c, 7, 76, 114
9, 19900, Note_off_c, 7, 76, 56
9, 19918, Note_on_c, 7, 76, 108
9, 20102, Note_off_c, 7, 76, 64
9, 20161, Note_on_c, 7, 74, 111
9, 20242, Note_off_c, 7, 74, 56
9, 25922, Note_on_c, 7, 74, 108
9, 27746, Note_off_c, 7, 74, 64
9, 27838, Note_on_c, 7, 74, 108
9, 28022, Note_off_c, 7, 74, 64
9, 29761, Note_on_c, 7, 76, 108
9, 31585, Note_off_c, 7, 76, 64
9, 31678, Note_on_c, 7, 72, 108
9, 32542, Note_off_c, 7, 72, 64
9, 32642, Note_on_c, 7, 72, 108
9, 33506, Note_off_c, 7, 72, 64
9, 33602, Note_on_c, 7, 74, 108
9, 34466, Note_off_c, 7, 74, 64
9, 34560, Note_on_c, 7, 74, 108
9, 35424, Note_off_c, 7, 74, 64
9, 35517, Note_on_c, 7, 74, 108
9, 36381, Note_off_c, 7, 74, 64
9, 36478, Note_on_c, 7, 74, 108
9, 37342, Note_off_c, 7, 74, 64
9, 37441, Note_on_c, 7, 74, 108
9, 38305, Note_off_c, 7, 74, 64
9, 38400, Note_on_c, 7, 74, 108
9, 38988, Note_off_c, 7, 74, 64
9, 39000, Note_on_c, 7, 74, 108
9, 39184, Note_off_c, 7, 74, 64
9, 39242, Note_on_c, 7, 74, 108
9, 39436, Note_off_c, 7, 74, 64
9, 39477, Note_on_c, 7, 74, 108
9, 39661, Note_off_c, 7, 74, 64
9, 39719, Note_on_c, 7, 74, 111
9, 39800, Note_off_c, 7, 74, 56
9, 39839, Note_on_c, 7, 74, 111
9, 39920, Note_off_c, 7, 74, 56
9, 39958, Note_on_c, 7, 74, 111
9, 40055, Note_off_c, 7, 74, 56
9, 40080, Note_on_c, 7, 76, 111
9, 40161, Note_off_c, 7, 76, 56
9, 40201, Note_on_c, 7, 76, 111
9, 40262, Note_off_c, 7, 76, 56
9, 40320, Note_on_c, 7, 74, 111
9, 40401, Note_off_c, 7, 74, 56
9, 42238, Note_on_c, 7, 67, 108
9, 42422, Note_off_c, 7, 67, 64
9, 42722, Note_on_c, 7, 67, 108
9, 42906, Note_off_c, 7, 67, 64
9, 43202, Note_on_c, 7, 67, 108
9, 43386, Note_off_c, 7, 67, 64
9, 45840, Note_on_c, 7, 74, 93
9, 45901, Note_off_c, 7, 74, 56
9, 45920, Note_on_c, 7, 74, 93
9, 45981, Note_off_c, 7, 74, 56
9, 45999, Note_on_c, 7, 74, 93
9, 46060, Note_off_c, 7, 74, 56
9, 46082, Note_on_c, 7, 67, 90
9, 46266, Note_off_c, 7, 67, 64
9, 46320, Note_on_c, 7, 67, 93
9, 46381, Note_off_c, 7, 67, 56
9, 46401, Note_on_c, 7, 67, 93
9, 46462, Note_off_c, 7, 67, 56
9, 46481, Note_on_c, 7, 67, 93
9, 46542, Note_off_c, 7, 67, 56
9, 46557, Note_on_c, 7, 67, 90
9, 46741, Note_off_c, 7, 67, 64
9, 46799, Note_on_c, 7, 67, 93
9, 46860, Note_off_c, 7, 67, 56
9, 46881, Note_on_c, 7, 67, 93
9, 46942, Note_off_c, 7, 67, 56
9, 46960, Note_on_c, 7, 67, 93
9, 47021, Note_off_c, 7, 67, 56
9, 47038, Note_on_c, 7, 67, 90
9, 47222, Note_off_c, 7, 67, 64
9, 47281, Note_on_c, 7, 67, 93
9, 47342, Note_off_c, 7, 67, 56
9, 47361, Note_on_c, 7, 67, 93
9, 47422, Note_off_c, 7, 67, 56
9, 47439, Note_on_c, 7, 67, 93
9, 47500, Note_off_c, 7, 67, 56
9, 47521, Note_on_c, 7, 67, 90
9, 47705, Note_off_c, 7, 67, 64
9, 54722, Note_on_c, 7, 76, 108
9, 56858, Note_off_c, 7, 76, 64
9, 56879, Note_on_c, 7, 79, 108
9, 57063, Note_off_c, 7, 79, 64
9, 57120, Note_on_c, 7, 79, 108
9, 57304, Note_off_c, 7, 79, 64
9, 57362, Note_on_c, 7, 79, 108
9, 57546, Note_off_c, 7, 79, 64
9, 57602, Note_on_c, 7, 79, 108
9, 57786, Note_off_c, 7, 79, 64
9, 57839, Note_on_c, 7, 74, 108
9, 58023, Note_off_c, 7, 74, 64
9, 58078, Note_on_c, 7, 74, 108
9, 58262, Note_off_c, 7, 74, 64
9, 58319, Note_on_c, 7, 74, 108
9, 58503, Note_off_c, 7, 74, 64
9, 58562, Note_on_c, 7, 72, 108
9, 58684, Note_off_c, 7, 72, 64
9, 59519, Note_on_c, 7, 74, 108
9, 59641, Note_off_c, 7, 74, 64
9, 68160, Note_on_c, 7, 79, 90
9, 68808, Note_off_c, 7, 79, 64
9, 68883, Note_on_c, 7, 78, 90
9, 69067, Note_off_c, 7, 78, 64
9, 69121, Note_on_c, 7, 76, 90
9, 69305, Note_off_c, 7, 76, 64
9, 69360, Note_on_c, 7, 74, 90
9, 69544, Note_off_c, 7, 74, 64
9, 69602, Note_on_c, 7, 74, 90
9, 69786, Note_off_c, 7, 74, 64
9, 69843, Note_on_c, 7, 74, 90
9, 70027, Note_off_c, 7, 74, 64
9, 70080, Note_on_c, 7, 79, 96
9, 70728, Note_off_c, 7, 79, 64
9, 70800, Note_on_c, 7, 78, 90
9, 70984, Note_off_c, 7, 78, 64
9, 71041, Note_on_c, 7, 76, 90
9, 71225, Note_off_c, 7, 76, 64
9, 71282, Note_on_c, 7, 74, 90
9, 71466, Note_off_c, 7, 74, 64
9, 71517, Note_on_c, 7, 74, 90
9, 71701, Note_off_c, 7, 74, 64
9, 71758, Note_on_c, 7, 74, 90
9, 71942, Note_off_c, 7, 74, 64
9, 71999, Note_on_c, 7, 74, 96
9, 72647, Note_off_c, 7, 74, 64
9, 72722, Note_on_c, 7, 67, 98
9, 72906, Note_off_c, 7, 67, 64
9, 72960, Note_on_c, 7, 72, 100
9, 73144, Note_off_c, 7, 72, 64
9, 73197, Note_on_c, 7, 72, 100
9, 73381, Note_off_c, 7, 72, 64
9, 73439, Note_on_c, 7, 72, 101
9, 73623, Note_off_c, 7, 72, 64
9, 73677, Note_on_c, 7, 72, 101
9, 73861, Note_off_c, 7, 72, 64
9, 73917, Note_on_c, 7, 72, 102
9, 74101, Note_off_c, 7, 72, 64
9, 74159, Note_on_c, 7, 72, 103
9, 74343, Note_off_c, 7, 72, 64
9, 74400, Note_on_c, 7, 72, 103
9, 74584, Note_off_c, 7, 72, 64
9, 74641, Note_on_c, 7, 72, 104
9, 74825, Note_off_c, 7, 72, 64
9, 74878, Note_on_c, 7, 72, 105
9, 75062, Note_off_c, 7, 72, 64
9, 75117, Note_on_c, 7, 72, 105
9, 75301, Note_off_c, 7, 72, 64
9, 75358, Note_on_c, 7, 72, 106
9, 75542, Note_off_c, 7, 72, 64
9, 75599, Note_on_c, 7, 72, 108
9, 75783, Note_off_c, 7, 72, 64
9, 75837, Note_on_c, 7, 72, 108
9, 77661, Note_off_c, 7, 72, 64
9, 77758, Note_on_c, 7, 67, 108
9, 77942, Note_off_c, 7, 67, 64
9, 78483, Note_on_c, 7, 67, 108
9, 78667, Note_off_c, 7, 67, 64
9, 78718, Note_on_c, 7, 67, 108
9, 78902, Note_off_c, 7, 67, 64
9, 79440, Note_on_c, 7, 67, 111
9, 79521, Note_off_c, 7, 67, 56
9, 79561, Note_on_c, 7, 67, 111
9, 79642, Note_off_c, 7, 67, 56
9, 79677, Note_on_c, 7, 67, 108
9, 79861, Note_off_c, 7, 67, 64
9, 79920, Note_on_c, 7, 67, 111
9, 80001, Note_off_c, 7, 67, 56
9, 80040, Note_on_c, 7, 67, 111
9, 80121, Note_off_c, 7, 67, 56
9, 80163, Note_on_c, 7, 67, 108
9, 80347, Note_off_c, 7, 67, 64
9, 80399, Note_on_c, 7, 67, 111
9, 80480, Note_off_c, 7, 67, 56
9, 80519, Note_on_c, 7, 67, 111
9, 80600, Note_off_c, 7, 67, 56
9, 80641, Note_on_c, 7, 67, 111
9, 80722, Note_off_c, 7, 67, 56
9, 80760, Note_on_c, 7, 67, 111
9, 80841, Note_off_c, 7, 67, 56
9, 80880, Note_on_c, 7, 74, 108
9, 81064, Note_off_c, 7, 74, 64
9, 81361, Note_on_c, 7, 67, 108
9, 81545, Note_off_c, 7, 67, 64
9, 81600, Note_on_c, 7, 72, 108
9, 82032, Note_off_c, 7, 72, 64
9, 82081, Note_on_c, 7, 76, 108
9, 82513, Note_off_c, 7, 76, 64
9, 82560, Note_on_c, 7, 79, 108
9, 83208, Note_off_c, 7, 79, 64
9, 83281, Note_on_c, 7, 77, 111
9, 83362, Note_off_c, 7, 77, 56
9, 83519, Note_on_c, 7, 76, 111
9, 83600, Note_off_c, 7, 76, 56
9, 83759, Note_on_c, 7, 74, 111
9, 83840, Note_off_c, 7, 74, 56
9, 84001, Note_on_c, 7, 72, 111
9, 84082, Note_off_c, 7, 72, 56
9, 84241, Note_on_c, 7, 74, 111
9, 84322, Note_off_c, 7, 74, 56
9, 84479, Note_on_c, 7, 72, 108
9, 85127, Note_off_c, 7, 72, 64
9, 85202, Note_on_c, 7, 72, 108
9, 85339, Note_off_c, 7, 72, 64
9, 85380, Note_on_c, 7, 72, 114
9, 85420, Note_off_c, 7, 72, 56
9, 85441, Note_on_c, 7, 74, 108
9, 86089, Note_off_c, 7, 74, 64
9, 86159, Note_on_c, 7, 74, 108
9, 86296, Note_off_c, 7, 74, 64
9, 86340, Note_on_c, 7, 74, 114
9, 86380, Note_off_c, 7, 74, 56
9, 86400, Note_on_c, 7, 76, 108
9, 86988, Note_off_c, 7, 76, 64
9, 87000, Note_on_c, 7, 72, 111
9, 87081, Note_off_c, 7, 72, 56
9, 87119, Note_on_c, 7, 72, 111
9, 87200, Note_off_c, 7, 72, 56
9, 87241, Note_on_c, 7, 72, 111
9, 87322, Note_off_c, 7, 72, 56
9, 87359, Note_on_c, 7, 72, 108
9, 87543, Note_off_c, 7, 72, 64
9, 87600, Note_on_c, 7, 72, 111
9, 87681, Note_off_c, 7, 72, 56
9, 87721, Note_on_c, 7, 72, 111
9, 87802, Note_off_c, 7, 72, 56
9, 87839, Note_on_c, 7, 72, 108
9, 88023, Note_off_c, 7, 72, 64
9, 88080, Note_on_c, 7, 72, 111
9, 88161, Note_off_c, 7, 72, 56
9, 88201, Note_on_c, 7, 72, 111
9, 88282, Note_off_c, 7, 72, 56
9, 88320, Note_on_c, 7, 72, 108
9, 88908, Note_off_c, 7, 72, 64
9, 88920, Note_on_c, 7, 72, 111
9, 89001, Note_off_c, 7, 72, 56
9, 89040, Note_on_c, 7, 72, 111
9, 89121, Note_off_c, 7, 72, 56
9, 89159, Note_on_c, 7, 72, 111
9, 89240, Note_off_c, 7, 72, 56
9, 89278, Note_on_c, 7, 72, 108
9, 89462, Note_off_c, 7, 72, 64
9, 89520, Note_on_c, 7, 72, 111
9, 89601, Note_off_c, 7, 72, 56
9, 89641, Note_on_c, 7, 72, 111
9, 89722, Note_off_c, 7, 72, 56
9, 89763, Note_on_c, 7, 72, 108
9, 89947, Note_off_c, 7, 72, 64
9, 89999, Note_on_c, 7, 72, 111
9, 90080, Note_off_c, 7, 72, 56
9, 90120, Note_on_c, 7, 72, 111
9, 90201, Note_off_c, 7, 72, 56
9, 90238, Note_on_c, 7, 72, 108
9, 90826, Note_off_c, 7, 72, 64
9, 90840, Note_on_c, 7, 72, 111
9, 90921, Note_off_c, 7, 72, 56
9, 90961, Note_on_c, 7, 72, 111
9, 91042, Note_off_c, 7, 72, 56
9, 91080, Note_on_c, 7, 72, 111
9, 91161, Note_off_c, 7, 72, 56
9, 91197, Note_on_c, 7, 72, 108
9, 91381, Note_off_c, 7, 72, 64
9, 91439, Note_on_c, 7, 72, 111
9, 91520, Note_off_c, 7, 72, 56
9, 91561, Note_on_c, 7, 72, 111
9, 91642, Note_off_c, 7, 72, 56
9, 91682, Note_on_c, 7, 72, 108
9, 91866, Note_off_c, 7, 72, 64
9, 91919, Note_on_c, 7, 72, 111
9, 92000, Note_off_c, 7, 72, 56
9, 92039, Note_on_c, 7, 72, 111
9, 92120, Note_off_c, 7, 72, 56
9, 92157, Note_on_c, 7, 72, 108
9, 92805, Note_off_c, 7, 72, 64
9, 92880, Note_on_c, 7, 76, 108
9, 93017, Note_off_c, 7, 76, 64
9, 93060, Note_on_c, 7, 76, 114
9, 93100, Note_off_c, 7, 76, 56
9, 93122, Note_on_c, 7, 74, 108
9, 93306, Note_off_c, 7, 74, 64
9, 93359, Note_on_c, 7, 74, 108
9, 93496, Note_off_c, 7, 74, 64
9, 93540, Note_on_c, 7, 74, 114
9, 93580, Note_off_c, 7, 74, 56
9, 93601, Note_on_c, 7, 76, 108
9, 93785, Note_off_c, 7, 76, 64
9, 93838, Note_on_c, 7, 76, 108
9, 93975, Note_off_c, 7, 76, 64
9, 94020, Note_on_c, 7, 76, 114
9, 94060, Note_off_c, 7, 76, 56
9, 94079, Note_on_c, 7, 74, 108
9, 94263, Note_off_c, 7, 74, 64
9, 94322, Note_on_c, 7, 74, 108
9, 94754, Note_off_c, 7, 74, 64
9, 94798, Note_on_c, 7, 76, 108
9, 94935, Note_off_c, 7, 76, 64
9, 94980, Note_on_c, 7, 76, 114
9, 95020, Note_off_c, 7, 76, 56
9, 95042, Note_on_c, 7, 74, 108
9, 95226, Note_off_c, 7, 74, 64
9, 95279, Note_on_c, 7, 74, 108
9, 95416, Note_off_c, 7, 74, 64
9, 95460, Note_on_c, 7, 74, 114
9, 95500, Note_off_c, 7, 74, 56
9, 95522, Note_on_c, 7, 76, 108
9, 95706, Note_off_c, 7, 76, 64
9, 95761, Note_on_c, 7, 76, 108
9, 95898, Note_off_c, 7, 76, 64
9, 95940, Note_on_c, 7, 76, 114
9, 95980, Note_off_c, 7, 76, 56
9, 95997, Note_on_c, 7, 74, 108
9, 96181, Note_off_c, 7, 74, 64
9, 96239, Note_on_c, 7, 74, 108
9, 96671, Note_off_c, 7, 74, 64
9, 96721, Note_on_c, 7, 76, 108
9, 96858, Note_off_c, 7, 76, 64
9, 96900, Note_on_c, 7, 76, 114
9, 96940, Note_off_c, 7, 76, 56
9, 96962, Note_on_c, 7, 74, 108
9, 97099, Note_off_c, 7, 74, 64
9, 97140, Note_on_c, 7, 74, 114
9, 97180, Note_off_c, 7, 74, 56
9, 97199, Note_on_c, 7, 74, 108
9, 97336, Note_off_c, 7, 74, 64
9, 97380, Note_on_c, 7, 74, 114
9, 97420, Note_off_c, 7, 74, 56
9, 97438, Note_on_c, 7, 76, 108
9, 97575, Note_off_c, 7, 76, 64
9, 97620, Note_on_c, 7, 76, 114
9, 97660, Note_off_c, 7, 76, 56
9, 97678, Note_on_c, 7, 76, 108
9, 97815, Note_off_c, 7, 76, 64
9, 97860, Note_on_c, 7, 76, 114
9, 97900, Note_off_c, 7, 76, 56
9, 97920, Note_on_c, 7, 74, 108
9, 98104, Note_off_c, 7, 74, 64
9, 98159, Note_on_c, 7, 74, 108
9, 98343, Note_off_c, 7, 74, 64
9, 98397, Note_on_c, 7, 76, 108
9, 98581, Note_off_c, 7, 76, 64
9, 98638, Note_on_c, 7, 76, 108
9, 98822, Note_off_c, 7, 76, 64
9, 98879, Note_on_c, 7, 74, 108
9, 99063, Note_off_c, 7, 74, 64
9, 99118, Note_on_c, 7, 74, 108
9, 99302, Note_off_c, 7, 74, 64
9, 99358, Note_on_c, 7, 76, 108
9, 99542, Note_off_c, 7, 76, 64
9, 99603, Note_on_c, 7, 76, 108
9, 99787, Note_off_c, 7, 76, 64
9, 99841, Note_on_c, 7, 74, 111
9, 99922, Note_off_c, 7, 74, 56
9, 100020, Note_on_c, 7, 76, 114
9, 100060, Note_off_c, 7, 76, 56
9, 100079, Note_on_c, 7, 76, 108
9, 100263, Note_off_c, 7, 76, 64
9, 100319, Note_on_c, 7, 74, 111
9, 100400, Note_off_c, 7, 74, 56
9, 100500, Note_on_c, 7, 76, 114
9, 100540, Note_off_c, 7, 76, 56
9, 100561, Note_on_c, 7, 76, 108
9, 100745, Note_off_c, 7, 76, 64
9, 100800, Note_on_c, 7, 74, 111
9, 100881, Note_off_c, 7, 74, 56
9, 100980, Note_on_c, 7, 76, 114
9, 101020, Note_off_c, 7, 76, 56
9, 101038, Note_on_c, 7, 76, 108
9, 101222, Note_off_c, 7, 76, 64
9, 101279, Note_on_c, 7, 74, 111
9, 101360, Note_off_c, 7, 74, 56
9, 101460, Note_on_c, 7, 76, 114
9, 101500, Note_off_c, 7, 76, 56
9, 101518, Note_on_c, 7, 76, 108
9, 101702, Note_off_c, 7, 76, 64
9, 101760, Note_on_c, 7, 74, 111
9, 101841, Note_off_c, 7, 74, 56
9, 107521, Note_on_c, 7, 74, 108
9, 109345, Note_off_c, 7, 74, 64
9, 109437, Note_on_c, 7, 74, 108
9, 109621, Note_off_c, 7, 74, 64
9, 111358, Note_on_c, 7, 76, 108
9, 113182, Note_off_c, 7, 76, 64
9, 113279, Note_on_c, 7, 72, 108
9, 114143, Note_off_c, 7, 72, 64
9, 114239, Note_on_c, 7, 72, 108
9, 115103, Note_off_c, 7, 72, 64
9, 115197, Note_on_c, 7, 74, 108
9, 116061, Note_off_c, 7, 74, 64
9, 116157, Note_on_c, 7, 74, 108
9, 117021, Note_off_c, 7, 74, 64
9, 117119, Note_on_c, 7, 74, 108
9, 117983, Note_off_c, 7, 74, 64
9, 118078, Note_on_c, 7, 74, 108
9, 118942, Note_off_c, 7, 74, 64
9, 119042, Note_on_c, 7, 74, 108
9, 119906, Note_off_c, 7, 74, 64
9, 120003, Note_on_c, 7, 74, 108
9, 120591, Note_off_c, 7, 74, 64
9, 120602, Note_on_c, 7, 74, 108
9, 120786, Note_off_c, 7, 74, 64
9, 120843, Note_on_c, 7, 74, 108
9, 121037, Note_off_c, 7, 74, 64
9, 121079, Note_on_c, 7, 74, 108
9, 121263, Note_off_c, 7, 74, 64
9, 121319, Note_on_c, 7, 74, 111
9, 121400, Note_off_c, 7, 74, 56
9, 121441, Note_on_c, 7, 74, 111
9, 121522, Note_off_c, 7, 74, 56
9, 121559, Note_on_c, 7, 74, 111
9, 121656, Note_off_c, 7, 74, 56
9, 121681, Note_on_c, 7, 76, 111
9, 121762, Note_off_c, 7, 76, 56
9, 121800, Note_on_c, 7, 76, 111
9, 121861, Note_off_c, 7, 76, 56
9, 121921, Note_on_c, 7, 74, 111
9, 122002, Note_off_c, 7, 74, 56
9, 123839, Note_on_c, 7, 67, 108
9, 124023, Note_off_c, 7, 67, 64
9, 124317, Note_on_c, 7, 67, 108
9, 124501, Note_off_c, 7, 67, 64
9, 124801, Note_on_c, 7, 67, 108
9, 124985, Note_off_c, 7, 67, 64
9, 127440, Note_on_c, 7, 74, 93
9, 127501, Note_off_c, 7, 74, 56
9, 127519, Note_on_c, 7, 74, 93
9, 127580, Note_off_c, 7, 74, 56
9, 127599, Note_on_c, 7, 74, 93
9, 127660, Note_off_c, 7, 74, 56
9, 127681, Note_on_c, 7, 67, 90
9, 127865, Note_off_c, 7, 67, 64
9, 127919, Note_on_c, 7, 67, 93
9, 127980, Note_off_c, 7, 67, 56
9, 128001, Note_on_c, 7, 67, 93
9, 128062, Note_off_c, 7, 67, 56
9, 128079, Note_on_c, 7, 67, 93
9, 128140, Note_off_c, 7, 67, 56
9, 128163, Note_on_c, 7, 67, 90
9, 128347, Note_off_c, 7, 67, 64
9, 128399, Note_on_c, 7, 67, 93
9, 128460, Note_off_c, 7, 67, 56
9, 128479, Note_on_c, 7, 67, 93
9, 128540, Note_off_c, 7, 67, 56
9, 128559, Note_on_c, 7, 67, 93
9, 128620, Note_off_c, 7, 67, 56
9, 128640, Note_on_c, 7, 67, 90
9, 128824, Note_off_c, 7, 67, 64
9, 128881, Note_on_c, 7, 67, 93
9, 128942, Note_off_c, 7, 67, 56
9, 128959, Note_on_c, 7, 67, 93
9, 129020, Note_off_c, 7, 67, 56
9, 129039, Note_on_c, 7, 67, 93
9, 129100, Note_off_c, 7, 67, 56
9, 129121, Note_on_c, 7, 67, 90
9, 129305, Note_off_c, 7, 67, 64
9, 136318, Note_on_c, 7, 76, 108
9, 138454, Note_off_c, 7, 76, 64
9, 138483, Note_on_c, 7, 79, 108
9, 138667, Note_off_c, 7, 79, 64
9, 138717, Note_on_c, 7, 79, 108
9, 138901, Note_off_c, 7, 79, 64
9, 138963, Note_on_c, 7, 79, 108
9, 139147, Note_off_c, 7, 79, 64
9, 139200, Note_on_c, 7, 79, 108
9, 139384, Note_off_c, 7, 79, 64
9, 139440, Note_on_c, 7, 74, 108
9, 139624, Note_off_c, 7, 74, 64
9, 139681, Note_on_c, 7, 74, 108
9, 139865, Note_off_c, 7, 74, 64
9, 139919, Note_on_c, 7, 74, 108
9, 140103, Note_off_c, 7, 74, 64
9, 140158, Note_on_c, 7, 72, 108
9, 140280, Note_off_c, 7, 72, 64
9, 141118, Note_on_c, 7, 74, 108
9, 141240, Note_off_c, 7, 74, 64
9, 149759, Note_on_c, 7, 79, 90
9, 150407, Note_off_c, 7, 79, 64
9, 150480, Note_on_c, 7, 78, 90
9, 150664, Note_off_c, 7, 78, 64
9, 150717, Note_on_c, 7, 76, 90
9, 150901, Note_off_c, 7, 76, 64
9, 150960, Note_on_c, 7, 74, 90
9, 151144, Note_off_c, 7, 74, 64
9, 151201, Note_on_c, 7, 74, 90
9, 151385, Note_off_c, 7, 74, 64
9, 151439, Note_on_c, 7, 74, 90
9, 151623, Note_off_c, 7, 74, 64
9, 151683, Note_on_c, 7, 79, 96
9, 152331, Note_off_c, 7, 79, 64
9, 152397, Note_on_c, 7, 78, 90
9, 152581, Note_off_c, 7, 78, 64
9, 152641, Note_on_c, 7, 76, 90
9, 152825, Note_off_c, 7, 76, 64
9, 152880, Note_on_c, 7, 74, 90
9, 153064, Note_off_c, 7, 74, 64
9, 153119, Note_on_c, 7, 74, 90
9, 153303, Note_off_c, 7, 74, 64
9, 153357, Note_on_c, 7, 74, 90
9, 153541, Note_off_c, 7, 74, 64
9, 153603, Note_on_c, 7, 74, 96
9, 154251, Note_off_c, 7, 74, 64
9, 154318, Note_on_c, 7, 67, 98
9, 154502, Note_off_c, 7, 67, 64
9, 154562, Note_on_c, 7, 72, 100
9, 154746, Note_off_c, 7, 72, 64
9, 154802, Note_on_c, 7, 72, 100
9, 154986, Note_off_c, 7, 72, 64
9, 155040, Note_on_c, 7, 72, 101
9, 155224, Note_off_c, 7, 72, 64
9, 155283, Note_on_c, 7, 72, 101
9, 155467, Note_off_c, 7, 72, 64
9, 155518, Note_on_c, 7, 72, 102
9, 155702, Note_off_c, 7, 72, 64
9, 155761, Note_on_c, 7, 72, 103
9, 155945, Note_off_c, 7, 72, 64
9, 156001, Note_on_c, 7, 72, 103
9, 156185, Note_off_c, 7, 72, 64
9, 156238, Note_on_c, 7, 72, 104
9, 156422, Note_off_c, 7, 72, 64
9, 156478, Note_on_c, 7, 72, 105
9, 156662, Note_off_c, 7, 72, 64
9, 156717, Note_on_c, 7, 72, 105
9, 156901, Note_off_c, 7, 72, 64
9, 156958, Note_on_c, 7, 72, 106
9, 157142, Note_off_c, 7, 72, 64
9, 157199, Note_on_c, 7, 72, 108
9, 157383, Note_off_c, 7, 72, 64
9, 157442, Note_on_c, 7, 72, 108
9, 159266, Note_off_c, 7, 72, 64
9, 159363, Note_on_c, 7, 67, 108
9, 159547, Note_off_c, 7, 67, 64
9, 160081, Note_on_c, 7, 67, 108
9, 160265, Note_off_c, 7, 67, 64
9, 160321, Note_on_c, 7, 67, 108
9, 160505, Note_off_c, 7, 67, 64
9, 161040, Note_on_c, 7, 67, 111
9, 161121, Note_off_c, 7, 67, 56
9, 161159, Note_on_c, 7, 67, 111
9, 161240, Note_off_c, 7, 67, 56
9, 161277, Note_on_c, 7, 67, 108
9, 161461, Note_off_c, 7, 67, 64
9, 161521, Note_on_c, 7, 67, 111
9, 161602, Note_off_c, 7, 67, 56
9, 161640, Note_on_c, 7, 67, 111
9, 161721, Note_off_c, 7, 67, 56
9, 161757, Note_on_c, 7, 67, 108
9, 161941, Note_off_c, 7, 67, 64
9, 161999, Note_on_c, 7, 67, 111
9, 162080, Note_off_c, 7, 67, 56
9, 162119, Note_on_c, 7, 67, 111
9, 162200, Note_off_c, 7, 67, 56
9, 162239, Note_on_c, 7, 74, 111
9, 162320, Note_off_c, 7, 74, 56
9, 162359, Note_on_c, 7, 74, 111
9, 162440, Note_off_c, 7, 74, 56
9, 162481, Note_on_c, 7, 74, 108
9, 163129, Note_off_c, 7, 74, 64
9, 163198, Note_on_c, 7, 76, 108
9, 166942, Note_off_c, 7, 76, 64
9, 167038, Note_on_c, 7, 76, 108
9, 167222, Note_off_c, 7, 76, 64
9, 190078, Note_on_c, 7, 72, 90
9, 191686, Note_off_c, 7, 72, 64
9, 192958, Note_on_c, 7, 77, 90
9, 194566, Note_off_c, 7, 77, 64
9, 195601, Note_on_c, 7, 77, 90
9, 195785, Note_off_c, 7, 77, 64
9, 195842, Note_on_c, 7, 76, 90
9, 196274, Note_off_c, 7, 76, 64
9, 196323, Note_on_c, 7, 77, 90
9, 196755, Note_off_c, 7, 77, 64
9, 196798, Note_on_c, 7, 79, 90
9, 197446, Note_off_c, 7, 79, 64
9, 197523, Note_on_c, 7, 72, 90
9, 197707, Note_off_c, 7, 72, 64
9, 197999, Note_on_c, 7, 72, 93
9, 198060, Note_off_c, 7, 72, 56
9, 198080, Note_on_c, 7, 72, 93
9, 198141, Note_off_c, 7, 72, 56
9, 198159, Note_on_c, 7, 72, 93
9, 198220, Note_off_c, 7, 72, 56
9, 198239, Note_on_c, 7, 72, 90
9, 198423, Note_off_c, 7, 72, 64
9, 198961, Note_on_c, 7, 72, 93
9, 199022, Note_off_c, 7, 72, 56
9, 199040, Note_on_c, 7, 72, 95
9, 199101, Note_off_c, 7, 72, 56
9, 199121, Note_on_c, 7, 72, 95
9, 199182, Note_off_c, 7, 72, 56
9, 199197, Note_on_c, 7, 72, 92
9, 199381, Note_off_c, 7, 72, 64
9, 199921, Note_on_c, 7, 79, 96
9, 199982, Note_off_c, 7, 79, 56
9, 200000, Note_on_c, 7, 79, 96
9, 200061, Note_off_c, 7, 79, 56
9, 200079, Note_on_c, 7, 79, 96
9, 200140, Note_off_c, 7, 79, 56
9, 200162, Note_on_c, 7, 79, 94
9, 200346, Note_off_c, 7, 79, 64
9, 200880, Note_on_c, 7, 72, 98
9, 200941, Note_off_c, 7, 72, 56
9, 200961, Note_on_c, 7, 72, 98
9, 201022, Note_off_c, 7, 72, 56
9, 201039, Note_on_c, 7, 72, 98
9, 201100, Note_off_c, 7, 72, 56
9, 201121, Note_on_c, 7, 72, 95
9, 201305, Note_off_c, 7, 72, 64
9, 201841, Note_on_c, 7, 79, 99
9, 201902, Note_off_c, 7, 79, 56
9, 201921, Note_on_c, 7, 79, 100
9, 201982, Note_off_c, 7, 79, 56
9, 202000, Note_on_c, 7, 79, 100
9, 202061, Note_off_c, 7, 79, 56
9, 202080, Note_on_c, 7, 79, 97
9, 202264, Note_off_c, 7, 79, 64
9, 202800, Note_on_c, 7, 72, 101
9, 202861, Note_off_c, 7, 72, 56
9, 202881, Note_on_c, 7, 72, 101
9, 202942, Note_off_c, 7, 72, 56
9, 202959, Note_on_c, 7, 72, 101
9, 203020, Note_off_c, 7, 72, 56
9, 203040, Note_on_c, 7, 72, 100
9, 203224, Note_off_c, 7, 72, 64
9, 203759, Note_on_c, 7, 74, 104
9, 203820, Note_off_c, 7, 74, 56
9, 203839, Note_on_c, 7, 74, 104
9, 203900, Note_off_c, 7, 74, 56
9, 203920, Note_on_c, 7, 74, 104
9, 203981, Note_off_c, 7, 74, 56
9, 204001, Note_on_c, 7, 74, 101
9, 204185, Note_off_c, 7, 74, 64
9, 204719, Note_on_c, 7, 79, 105
9, 204780, Note_off_c, 7, 79, 56
9, 204800, Note_on_c, 7, 79, 106
9, 204861, Note_off_c, 7, 79, 56
9, 204881, Note_on_c, 7, 79, 106
9, 204942, Note_off_c, 7, 79, 56
9, 204961, Note_on_c, 7, 79, 103
9, 205145, Note_off_c, 7, 79, 64
9, 205679, Note_on_c, 7, 74, 107
9, 205740, Note_off_c, 7, 74, 56
9, 205761, Note_on_c, 7, 74, 107
9, 205822, Note_off_c, 7, 74, 56
9, 205841, Note_on_c, 7, 74, 107
9, 205902, Note_off_c, 7, 74, 56
9, 206159, Note_on_c, 7, 74, 108
9, 206220, Note_off_c, 7, 74, 56
9, 206241, Note_on_c, 7, 74, 108
9, 206302, Note_off_c, 7, 74, 56
9, 206319, Note_on_c, 7, 74, 108
9, 206380, Note_off_c, 7, 74, 56
9, 206640, Note_on_c, 7, 74, 109
9, 206701, Note_off_c, 7, 74, 56
9, 206721, Note_on_c, 7, 74, 109
9, 206782, Note_off_c, 7, 74, 56
9, 206800, Note_on_c, 7, 74, 109
9, 206861, Note_off_c, 7, 74, 56
9, 207120, Note_on_c, 7, 74, 111
9, 207181, Note_off_c, 7, 74, 56
9, 207200, Note_on_c, 7, 74, 111
9, 207261, Note_off_c, 7, 74, 56
9, 207279, Note_on_c, 7, 74, 111
9, 207340, Note_off_c, 7, 74, 56
9, 207361, Note_on_c, 7, 67, 108
9, 207545, Note_off_c, 7, 67, 64
9, 209280, Note_on_c, 7, 67, 108
9, 209464, Note_off_c, 7, 67, 64
9, 211203, Note_on_c, 7, 67, 108
9, 211387, Note_off_c, 7, 67, 64
9, 211919, Note_on_c, 7, 76, 108
9, 212103, Note_off_c, 7, 76, 64
9, 212161, Note_on_c, 7, 74, 108
9, 212593, Note_off_c, 7, 74, 64
9, 212637, Note_on_c, 7, 76, 108
9, 213069, Note_off_c, 7, 76, 64
9, 213120, Note_on_c, 7, 77, 108
9, 213768, Note_off_c, 7, 77, 64
9, 213839, Note_on_c, 7, 77, 108
9, 214023, Note_off_c, 7, 77, 64
9, 214079, Note_on_c, 7, 76, 108
9, 214511, Note_off_c, 7, 76, 64
9, 214558, Note_on_c, 7, 77, 108
9, 214990, Note_off_c, 7, 77, 64
9, 215042, Note_on_c, 7, 79, 108
9, 215906, Note_off_c, 7, 79, 64
9, 216002, Note_on_c, 7, 72, 108
9, 216866, Note_off_c, 7, 72, 64
9, 216960, Note_on_c, 7, 72, 108
9, 218784, Note_off_c, 7, 72, 64
9, 218878, Note_on_c, 7, 79, 108
9, 219742, Note_off_c, 7, 79, 64
9, 219839, Note_on_c, 7, 79, 108
9, 220703, Note_off_c, 7, 79, 64
9, 220802, Note_on_c, 7, 79, 108
9, 220986, Note_off_c, 7, 79, 64
9, 221041, Note_on_c, 7, 79, 111
9, 221122, Note_off_c, 7, 79, 56
9, 221161, Note_on_c, 7, 79, 111
9, 221242, Note_off_c, 7, 79, 56
9, 221281, Note_on_c, 7, 79, 108
9, 221465, Note_off_c, 7, 79, 64
9, 221519, Note_on_c, 7, 79, 111
9, 221600, Note_off_c, 7, 79, 56
9, 221639, Note_on_c, 7, 79, 111
9, 221720, Note_off_c, 7, 79, 56
9, 221757, Note_on_c, 7, 79, 108
9, 221941, Note_off_c, 7, 79, 64
9, 222001, Note_on_c, 7, 79, 111
9, 222082, Note_off_c, 7, 79, 56
9, 222119, Note_on_c, 7, 79, 111
9, 222200, Note_off_c, 7, 79, 56
9, 222242, Note_on_c, 7, 79, 108
9, 222426, Note_off_c, 7, 79, 64
9, 222479, Note_on_c, 7, 79, 111
9, 222560, Note_off_c, 7, 79, 56
9, 222600, Note_on_c, 7, 79, 111
9, 222681, Note_off_c, 7, 79, 56
9, 222723, Note_on_c, 7, 79, 108
9, 222907, Note_off_c, 7, 79, 64
9, 222960, Note_on_c, 7, 79, 111
9, 223041, Note_off_c, 7, 79, 56
9, 223080, Note_on_c, 7, 79, 111
9, 223161, Note_off_c, 7, 79, 56
9, 223199, Note_on_c, 7, 79, 108
9, 223383, Note_off_c, 7, 79, 64
9, 223439, Note_on_c, 7, 79, 111
9, 223520, Note_off_c, 7, 79, 56
9, 223561, Note_on_c, 7, 79, 111
9, 223642, Note_off_c, 7, 79, 56
9, 223682, Note_on_c, 7, 79, 108
9, 223866, Note_off_c, 7, 79, 64
9, 223920, Note_on_c, 7, 79, 111
9, 224001, Note_off_c, 7, 79, 56
9, 224040, Note_on_c, 7, 79, 111
9, 224121, Note_off_c, 7, 79, 56
9, 224159, Note_on_c, 7, 79, 108
9, 224343, Note_off_c, 7, 79, 64
9, 224401, Note_on_c, 7, 79, 111
9, 224482, Note_off_c, 7, 79, 56
9, 224521, Note_on_c, 7, 79, 111
9, 224602, Note_off_c, 7, 79, 56
9, 224640, Note_on_c, 7, 79, 108
9, 227424, Note_off_c, 7, 79, 64
9, 227518, Note_on_c, 7, 79, 108
9, 227702, Note_off_c, 7, 79, 64
9, 266403, Note_on_c, 7, 72, 108
9, 266835, Note_off_c, 7, 72, 64
9, 266878, Note_on_c, 7, 76, 108
9, 267310, Note_off_c, 7, 76, 64
9, 267361, Note_on_c, 7, 79, 108
9, 268009, Note_off_c, 7, 79, 64
9, 268079, Note_on_c, 7, 77, 111
9, 268170, Note_off_c, 7, 77, 56
9, 268320, Note_on_c, 7, 76, 111
9, 268411, Note_off_c, 7, 76, 56
9, 268559, Note_on_c, 7, 74, 111
9, 268650, Note_off_c, 7, 74, 56
9, 268801, Note_on_c, 7, 72, 111
9, 268892, Note_off_c, 7, 72, 56
9, 269039, Note_on_c, 7, 74, 111
9, 269130, Note_off_c, 7, 74, 56
9, 269277, Note_on_c, 7, 72, 108
9, 269925, Note_off_c, 7, 72, 64
9, 270002, Note_on_c, 7, 72, 108
9, 270139, Note_off_c, 7, 72, 64
9, 270180, Note_on_c, 7, 72, 114
9, 270225, Note_off_c, 7, 72, 56
9, 270243, Note_on_c, 7, 74, 108
9, 270891, Note_off_c, 7, 74, 64
9, 270962, Note_on_c, 7, 74, 108
9, 271099, Note_off_c, 7, 74, 64
9, 271140, Note_on_c, 7, 74, 114
9, 271185, Note_off_c, 7, 74, 56
9, 271202, Note_on_c, 7, 76, 108
9, 271790, Note_off_c, 7, 76, 64
9, 271800, Note_on_c, 7, 72, 111
9, 271891, Note_off_c, 7, 72, 56
9, 271920, Note_on_c, 7, 72, 111
9, 272011, Note_off_c, 7, 72, 56
9, 272041, Note_on_c, 7, 72, 111
9, 272132, Note_off_c, 7, 72, 56
9, 272158, Note_on_c, 7, 72, 108
9, 272342, Note_off_c, 7, 72, 64
9, 272400, Note_on_c, 7, 72, 111
9, 272491, Note_off_c, 7, 72, 56
9, 272521, Note_on_c, 7, 72, 111
9, 272612, Note_off_c, 7, 72, 56
9, 272641, Note_on_c, 7, 72, 108
9, 272825, Note_off_c, 7, 72, 64
9, 272880, Note_on_c, 7, 72, 111
9, 272971, Note_off_c, 7, 72, 56
9, 273001, Note_on_c, 7, 72, 111
9, 273092, Note_off_c, 7, 72, 56
9, 273119, Note_on_c, 7, 72, 108
9, 273707, Note_off_c, 7, 72, 64
9, 273719, Note_on_c, 7, 72, 111
9, 273810, Note_off_c, 7, 72, 56
9, 273841, Note_on_c, 7, 72, 111
9, 273932, Note_off_c, 7, 72, 56
9, 273961, Note_on_c, 7, 72, 111
9, 274052, Note_off_c, 7, 72, 56
9, 274080, Note_on_c, 7, 72, 108
9, 274264, Note_off_c, 7, 72, 64
9, 274321, Note_on_c, 7, 72, 111
9, 274412, Note_off_c, 7, 72, 56
9, 274440, Note_on_c, 7, 72, 111
9, 274531, Note_off_c, 7, 72, 56
9, 274557, Note_on_c, 7, 72, 108
9, 274741, Note_off_c, 7, 72, 64
9, 274799, Note_on_c, 7, 72, 111
9, 274890, Note_off_c, 7, 72, 56
9, 274921, Note_on_c, 7, 72, 111
9, 275012, Note_off_c, 7, 72, 56
9, 275038, Note_on_c, 7, 72, 108
9, 275626, Note_off_c, 7, 72, 64
9, 275640, Note_on_c, 7, 72, 111
9, 275731, Note_off_c, 7, 72, 56
9, 275759, Note_on_c, 7, 72, 111
9, 275850, Note_off_c, 7, 72, 56
9, 275881, Note_on_c, 7, 72, 111
9, 275972, Note_off_c, 7, 72, 56
9, 275999, Note_on_c, 7, 72, 108
9, 276183, Note_off_c, 7, 72, 64
9, 276241, Note_on_c, 7, 72, 111
9, 276332, Note_off_c, 7, 72, 56
9, 276359, Note_on_c, 7, 72, 111
9, 276450, Note_off_c, 7, 72, 56
9, 276482, Note_on_c, 7, 72, 108
9, 276666, Note_off_c, 7, 72, 64
9, 276719, Note_on_c, 7, 72, 111
9, 276810, Note_off_c, 7, 72, 56
9, 276839, Note_on_c, 7, 72, 111
9, 276930, Note_off_c, 7, 72, 56
9, 276960, Note_on_c, 7, 72, 108
9, 277608, Note_off_c, 7, 72, 64
9, 277678, Note_on_c, 7, 76, 108
9, 277815, Note_off_c, 7, 76, 64
9, 277860, Note_on_c, 7, 76, 114
9, 277905, Note_off_c, 7, 76, 56
9, 277921, Note_on_c, 7, 74, 108
9, 278105, Note_off_c, 7, 74, 64
9, 278159, Note_on_c, 7, 74, 108
9, 278296, Note_off_c, 7, 74, 64
9, 278340, Note_on_c, 7, 74, 114
9, 278385, Note_off_c, 7, 74, 56
9, 278402, Note_on_c, 7, 76, 108
9, 278586, Note_off_c, 7, 76, 64
9, 278638, Note_on_c, 7, 76, 108
9, 278775, Note_off_c, 7, 76, 64
9, 278820, Note_on_c, 7, 76, 114
9, 278865, Note_off_c, 7, 76, 56
9, 278879, Note_on_c, 7, 74, 108
9, 279063, Note_off_c, 7, 74, 64
9, 279118, Note_on_c, 7, 74, 108
9, 279550, Note_off_c, 7, 74, 64
9, 279600, Note_on_c, 7, 76, 108
9, 279737, Note_off_c, 7, 76, 64
9, 279780, Note_on_c, 7, 76, 114
9, 279825, Note_off_c, 7, 76, 56
9, 279840, Note_on_c, 7, 74, 108
9, 280024, Note_off_c, 7, 74, 64
9, 280078, Note_on_c, 7, 74, 108
9, 280215, Note_off_c, 7, 74, 64
9, 280260, Note_on_c, 7, 74, 114
9, 280305, Note_off_c, 7, 74, 56
9, 280323, Note_on_c, 7, 76, 108
9, 280507, Note_off_c, 7, 76, 64
9, 280560, Note_on_c, 7, 76, 108
9, 280697, Note_off_c, 7, 76, 64
9, 280740, Note_on_c, 7, 76, 114
9, 280785, Note_off_c, 7, 76, 56
9, 280803, Note_on_c, 7, 74, 108
9, 280987, Note_off_c, 7, 74, 64
9, 281038, Note_on_c, 7, 74, 108
9, 281470, Note_off_c, 7, 74, 64
9, 281518, Note_on_c, 7, 76, 108
9, 281655, Note_off_c, 7, 76, 64
9, 281700, Note_on_c, 7, 76, 114
9, 281745, Note_off_c, 7, 76, 56
9, 281759, Note_on_c, 7, 74, 108
9, 281896, Note_off_c, 7, 74, 64
9, 281940, Note_on_c, 7, 74, 114
9, 281985, Note_off_c, 7, 74, 56
9, 282001, Note_on_c, 7, 74, 108
9, 282138, Note_off_c, 7, 74, 64
9, 282180, Note_on_c, 7, 74, 114
9, 282225, Note_off_c, 7, 74, 56
9, 282241, Note_on_c, 7, 76, 108
9, 282378, Note_off_c, 7, 76, 64
9, 282420, Note_on_c, 7, 76, 114
9, 282465, Note_off_c, 7, 76, 56
9, 282479, Note_on_c, 7, 76, 108
9, 282616, Note_off_c, 7, 76, 64
9, 282660, Note_on_c, 7, 76, 114
9, 282705, Note_off_c, 7, 76, 56
9, 282717, Note_on_c, 7, 74, 108
9, 282901, Note_off_c, 7, 74, 64
9, 282961, Note_on_c, 7, 74, 108
9, 283145, Note_off_c, 7, 74, 64
9, 283203, Note_on_c, 7, 76, 108
9, 283387, Note_off_c, 7, 76, 64
9, 283443, Note_on_c, 7, 76, 108
9, 283627, Note_off_c, 7, 76, 64
9, 283683, Note_on_c, 7, 74, 108
9, 283867, Note_off_c, 7, 74, 64
9, 283922, Note_on_c, 7, 74, 108
9, 284106, Note_off_c, 7, 74, 64
9, 284158, Note_on_c, 7, 76, 108
9, 284342, Note_off_c, 7, 76, 64
9, 284401, Note_on_c, 7, 76, 108
9, 284585, Note_off_c, 7, 76, 64
9, 284639, Note_on_c, 7, 74, 111
9, 284730, Note_off_c, 7, 74, 56
9, 284820, Note_on_c, 7, 76, 114
9, 284865, Note_off_c, 7, 76, 56
9, 284878, Note_on_c, 7, 76, 108
9, 285062, Note_off_c, 7, 76, 64
9, 285120, Note_on_c, 7, 74, 111
9, 285211, Note_off_c, 7, 74, 56
9, 285300, Note_on_c, 7, 76, 114
9, 285345, Note_off_c, 7, 76, 56
9, 285357, Note_on_c, 7, 76, 108
9, 285541, Note_off_c, 7, 76, 64
9, 285599, Note_on_c, 7, 74, 111
9, 285690, Note_off_c, 7, 74, 56
9, 285780, Note_on_c, 7, 76, 114
9, 285825, Note_off_c, 7, 76, 56
9, 285838, Note_on_c, 7, 76, 108
9, 286022, Note_off_c, 7, 76, 64
9, 286080, Note_on_c, 7, 74, 111
9, 286171, Note_off_c, 7, 74, 56
9, 286260, Note_on_c, 7, 76, 114
9, 286305, Note_off_c, 7, 76, 56
9, 286321, Note_on_c, 7, 76, 108
9, 286505, Note_off_c, 7, 76, 64
9, 286561, Note_on_c, 7, 74, 111
9, 286652, Note_off_c, 7, 74, 56
9, 292319, Note_on_c, 7, 74, 108
9, 294143, Note_off_c, 7, 74, 64
9, 294242, Note_on_c, 7, 74, 108
9, 294426, Note_off_c, 7, 74, 64
9, 296162, Note_on_c, 7, 76, 108
9, 297986, Note_off_c, 7, 76, 64
9, 298078, Note_on_c, 7, 72, 108
9, 298262, Note_off_c, 7, 72, 64
9, 299042, Note_on_c, 7, 72, 108
9, 299226, Note_off_c, 7, 72, 64
9, 300000, Note_on_c, 7, 72, 108
9, 300184, Note_off_c, 7, 72, 64
9, 300962, Note_on_c, 7, 72, 108
9, 301146, Note_off_c, 7, 72, 64
9, 301920, Note_on_c, 7, 79, 108
9, 305664, Note_off_c, 7, 79, 64
9, 305761, Note_on_c, 7, 79, 108
9, 306625, Note_off_c, 7, 79, 64
9, 306717, Note_on_c, 7, 79, 108
9, 307581, Note_off_c, 7, 79, 64
9, 307677, Note_on_c, 7, 79, 72
9, 308253, Note_off_c, 7, 79, 64
9, 308280, Note_on_c, 7, 79, 74
9, 308443, Note_off_c, 7, 79, 64
9, 308519, Note_on_c, 7, 79, 78
9, 308600, Note_off_c, 7, 79, 56
9, 308641, Note_on_c, 7, 79, 74
9, 308722, Note_off_c, 7, 79, 56
9, 308762, Note_on_c, 7, 79, 71
9, 308925, Note_off_c, 7, 79, 64
9, 309001, Note_on_c, 7, 79, 76
9, 309082, Note_off_c, 7, 79, 56
9, 309120, Note_on_c, 7, 79, 74
9, 309201, Note_off_c, 7, 79, 56
9, 309240, Note_on_c, 7, 74, 80
9, 309403, Note_off_c, 7, 74, 64
9, 309481, Note_on_c, 7, 74, 80
9, 309562, Note_off_c, 7, 74, 56
9, 309598, Note_on_c, 7, 74, 71
9, 309761, Note_off_c, 7, 74, 64
9, 311522, Note_on_c, 7, 72, 77
9, 311685, Note_off_c, 7, 72, 64
9, 312000, Note_on_c, 7, 72, 77
9, 312163, Note_off_c, 7, 72, 64
9, 312479, Note_on_c, 7, 72, 75
9, 313055, Note_off_c, 7, 72, 64
9, 315119, Note_on_c, 7, 67, 96
9, 315173, Note_off_c, 7, 67, 56
9, 315200, Note_on_c, 7, 67, 96
9, 315254, Note_off_c, 7, 67, 56
9, 315279, Note_on_c, 7, 67, 96
9, 315333, Note_off_c, 7, 67, 56
9, 315358, Note_on_c, 7, 72, 90
9, 315521, Note_off_c, 7, 72, 64
9, 315600, Note_on_c, 7, 72, 96
9, 315654, Note_off_c, 7, 72, 56
9, 315679, Note_on_c, 7, 72, 96
9, 315733, Note_off_c, 7, 72, 56
9, 315759, Note_on_c, 7, 72, 96
9, 315813, Note_off_c, 7, 72, 56
9, 315840, Note_on_c, 7, 72, 90
9, 316003, Note_off_c, 7, 72, 64
9, 316079, Note_on_c, 7, 72, 96
9, 316133, Note_off_c, 7, 72, 56
9, 316159, Note_on_c, 7, 72, 96
9, 316213, Note_off_c, 7, 72, 56
9, 316241, Note_on_c, 7, 72, 96
9, 316295, Note_off_c, 7, 72, 56
9, 316321, Note_on_c, 7, 72, 90
9, 316897, Note_off_c, 7, 72, 64
9, 318480, Note_on_c, 7, 67, 96
9, 318534, Note_off_c, 7, 67, 56
9, 318560, Note_on_c, 7, 67, 96
9, 318614, Note_off_c, 7, 67, 56
9, 318641, Note_on_c, 7, 67, 96
9, 318695, Note_off_c, 7, 67, 56
9, 318718, Note_on_c, 7, 72, 90
9, 318881, Note_off_c, 7, 72, 64
9, 324001, Note_on_c, 7, 72, 108
9, 324577, Note_off_c, 7, 72, 64
9, 324600, Note_on_c, 7, 72, 111
9, 324681, Note_off_c, 7, 72, 56
9, 324721, Note_on_c, 7, 72, 111
9, 324802, Note_off_c, 7, 72, 56
9, 324841, Note_on_c, 7, 72, 111
9, 324922, Note_off_c, 7, 72, 56
9, 324960, Note_on_c, 7, 72, 111
9, 325041, Note_off_c, 7, 72, 56
9, 325080, Note_on_c, 7, 72, 111
9, 325161, Note_off_c, 7, 72, 56
9, 325200, Note_on_c, 7, 72, 111
9, 325281, Note_off_c, 7, 72, 56
9, 325320, Note_on_c, 7, 72, 111
9, 325401, Note_off_c, 7, 72, 56
9, 325440, Note_on_c, 7, 72, 111
9, 325521, Note_off_c, 7, 72, 56
9, 325560, Note_on_c, 7, 72, 111
9, 325641, Note_off_c, 7, 72, 56
9, 325679, Note_on_c, 7, 72, 111
9, 325760, Note_off_c, 7, 72, 56
9, 325801, Note_on_c, 7, 72, 111
9, 325882, Note_off_c, 7, 72, 56
9, 325920, Note_on_c, 7, 72, 108
9, 326083, Note_off_c, 7, 72, 64
9, 326161, Note_on_c, 7, 72, 108
9, 326324, Note_off_c, 7, 72, 64
9, 326398, Note_on_c, 7, 72, 108
9, 326561, Note_off_c, 7, 72, 64
9, 326639, Note_on_c, 7, 72, 108
9, 326802, Note_off_c, 7, 72, 64
9, 326878, Note_on_c, 7, 72, 108
9, 327041, Note_off_c, 7, 72, 64
9, 327123, Note_on_c, 7, 72, 108
9, 327286, Note_off_c, 7, 72, 64
9, 327361, Note_on_c, 7, 72, 111
9, 327442, Note_off_c, 7, 72, 56
9, 327481, Note_on_c, 7, 72, 111
9, 327562, Note_off_c, 7, 72, 56
9, 327599, Note_on_c, 7, 72, 111
9, 327680, Note_off_c, 7, 72, 56
9, 327719, Note_on_c, 7, 72, 111
9, 327800, Note_off_c, 7, 72, 56
9, 327838, Note_on_c, 7, 72, 108
9, 327960, Note_off_c, 7, 72, 64
9, 328802, Note_on_c, 7, 67, 108
9, 328924, Note_off_c, 7, 67, 64
9, 337437, Note_on_c, 7, 72, 90
9, 338013, Note_off_c, 7, 72, 64
9, 338158, Note_on_c, 7, 67, 90
9, 338321, Note_off_c, 7, 67, 64
9, 338398, Note_on_c, 7, 67, 90
9, 338561, Note_off_c, 7, 67, 64
9, 338637, Note_on_c, 7, 67, 90
9, 338800, Note_off_c, 7, 67, 64
9, 338881, Note_on_c, 7, 67, 90
9, 339044, Note_off_c, 7, 67, 64
9, 339120, Note_on_c, 7, 67, 90
9, 339283, Note_off_c, 7, 67, 64
9, 339358, Note_on_c, 7, 72, 90
9, 339934, Note_off_c, 7, 72, 64
9, 340077, Note_on_c, 7, 67, 90
9, 340240, Note_off_c, 7, 67, 64
9, 340320, Note_on_c, 7, 67, 90
9, 340483, Note_off_c, 7, 67, 64
9, 340557, Note_on_c, 7, 67, 90
9, 340720, Note_off_c, 7, 67, 64
9, 340801, Note_on_c, 7, 67, 90
9, 340964, Note_off_c, 7, 67, 64
9, 341037, Note_on_c, 7, 67, 90
9, 341200, Note_off_c, 7, 67, 64
9, 341279, Note_on_c, 7, 67, 90
9, 341855, Note_off_c, 7, 67, 64
9, 342002, Note_on_c, 7, 72, 90
9, 342165, Note_off_c, 7, 72, 64
9, 342239, Note_on_c, 7, 72, 90
9, 342402, Note_off_c, 7, 72, 64
9, 342479, Note_on_c, 7, 67, 90
9, 342642, Note_off_c, 7, 67, 64
9, 342717, Note_on_c, 7, 67, 92
9, 342880, Note_off_c, 7, 67, 64
9, 342960, Note_on_c, 7, 67, 93
9, 343123, Note_off_c, 7, 67, 64
9, 343201, Note_on_c, 7, 67, 95
9, 343364, Note_off_c, 7, 67, 64
9, 343441, Note_on_c, 7, 67, 96
9, 343604, Note_off_c, 7, 67, 64
9, 343679, Note_on_c, 7, 67, 98
9, 343842, Note_off_c, 7, 67, 64
9, 343923, Note_on_c, 7, 67, 100
9, 344086, Note_off_c, 7, 67, 64
9, 344158, Note_on_c, 7, 67, 101
9, 344321, Note_off_c, 7, 67, 64
9, 344400, Note_on_c, 7, 76, 103
9, 344563, Note_off_c, 7, 76, 64
9, 344641, Note_on_c, 7, 76, 104
9, 344804, Note_off_c, 7, 76, 64
9, 344881, Note_on_c, 7, 76, 106
9, 345044, Note_off_c, 7, 76, 64
9, 345120, Note_on_c, 7, 76, 108
9, 345888, Note_off_c, 7, 76, 64
9, 346078, Note_on_c, 7, 77, 108
9, 347806, Note_off_c, 7, 77, 64
9, 348003, Note_on_c, 7, 72, 108
9, 349731, Note_off_c, 7, 72, 64
9, 349921, Note_on_c, 7, 72, 96
9, 350497, Note_off_c, 7, 72, 64
9, 351837, Note_on_c, 7, 67, 96
9, 352000, Note_off_c, 7, 67, 64
9, 353758, Note_on_c, 7, 67, 90
9, 353921, Note_off_c, 7, 67, 64
9, 355677, Note_on_c, 7, 67, 90
9, 355840, Note_off_c, 7, 67, 64
9, 357602, Note_on_c, 7, 67, 90
9, 357765, Note_off_c, 7, 67, 64
9, 358317, Note_on_c, 7, 60, 90
9, 358480, Note_off_c, 7, 60, 64
9, 358558, Note_on_c, 7, 74, 93
9, 358942, Note_off_c, 7, 74, 64
9, 359040, Note_on_c, 7, 76, 95
9, 359424, Note_off_c, 7, 76, 64
9, 359519, Note_on_c, 7, 77, 97
9, 360095, Note_off_c, 7, 77, 64
9, 360238, Note_on_c, 7, 77, 102
9, 360401, Note_off_c, 7, 77, 64
9, 360480, Note_on_c, 7, 76, 103
9, 360864, Note_off_c, 7, 76, 64
9, 360957, Note_on_c, 7, 77, 106
9, 361341, Note_off_c, 7, 77, 64
9, 361438, Note_on_c, 7, 79, 108
9, 363166, Note_off_c, 7, 79, 64
9, 363362, Note_on_c, 7, 72, 108
9, 363525, Note_off_c, 7, 72, 64
9, 363961, Note_on_c, 7, 72, 111
9, 364042, Note_off_c, 7, 72, 56
9, 364080, Note_on_c, 7, 72, 111
9, 364161, Note_off_c, 7, 72, 56
9, 364199, Note_on_c, 7, 72, 111
9, 364280, Note_off_c, 7, 72, 56
9, 364321, Note_on_c, 7, 72, 108
9, 364484, Note_off_c, 7, 72, 64
9, 364920, Note_on_c, 7, 72, 111
9, 365001, Note_off_c, 7, 72, 56
9, 365040, Note_on_c, 7, 72, 111
9, 365121, Note_off_c, 7, 72, 56
9, 365161, Note_on_c, 7, 72, 111
9, 365242, Note_off_c, 7, 72, 56
9, 365283, Note_on_c, 7, 72, 108
9, 365446, Note_off_c, 7, 72, 64
9, 365521, Note_on_c, 7, 72, 111
9, 365602, Note_off_c, 7, 72, 56
9, 365639, Note_on_c, 7, 72, 111
9, 365720, Note_off_c, 7, 72, 56
9, 365761, Note_on_c, 7, 72, 111
9, 365842, Note_off_c, 7, 72, 56
9, 365880, Note_on_c, 7, 72, 111
9, 365961, Note_off_c, 7, 72, 56
9, 365999, Note_on_c, 7, 72, 111
9, 366080, Note_off_c, 7, 72, 56
9, 366120, Note_on_c, 7, 72, 111
9, 366201, Note_off_c, 7, 72, 56
9, 366241, Note_on_c, 7, 72, 111
9, 366322, Note_off_c, 7, 72, 56
9, 366360, Note_on_c, 7, 72, 111
9, 366441, Note_off_c, 7, 72, 56
9, 366479, Note_on_c, 7, 72, 111
9, 366560, Note_off_c, 7, 72, 56
9, 366599, Note_on_c, 7, 72, 111
9, 366680, Note_off_c, 7, 72, 56
9, 366719, Note_on_c, 7, 72, 111
9, 366800, Note_off_c, 7, 72, 56
9, 366839, Note_on_c, 7, 72, 111
9, 366920, Note_off_c, 7, 72, 56
9, 366961, Note_on_c, 7, 72, 111
9, 367042, Note_off_c, 7, 72, 56
9, 367080, Note_on_c, 7, 72, 111
9, 367161, Note_off_c, 7, 72, 56
9, 367199, Note_on_c, 7, 67, 108
9, 367321, Note_off_c, 7, 67, 64
9, 368161, Note_on_c, 7, 74, 108
9, 368283, Note_off_c, 7, 74, 64
9, 369118, Note_on_c, 7, 72, 108
9, 369240, Note_off_c, 7, 72, 64
9, 370078, Note_on_c, 7, 74, 108
9, 370200, Note_off_c, 7, 74, 64
9, 371042, Note_on_c, 7, 72, 108
9, 371164, Note_off_c, 7, 72, 64
9, 371998, Note_on_c, 7, 74, 108
9, 372120, Note_off_c, 7, 74, 64
9, 380638, Note_on_c, 7, 67, 80
9, 381406, Note_off_c, 7, 67, 64
9, 381601, Note_on_c, 7, 72, 90
9, 381764, Note_off_c, 7, 72, 64
9, 381840, Note_on_c, 7, 72, 90
9, 382003, Note_off_c, 7, 72, 64
9, 382078, Note_on_c, 7, 72, 90
9, 382241, Note_off_c, 7, 72, 64
9, 382322, Note_on_c, 7, 72, 90
9, 382485, Note_off_c, 7, 72, 64
9, 382560, Note_on_c, 7, 72, 90
9, 382723, Note_off_c, 7, 72, 64
9, 382797, Note_on_c, 7, 72, 90
9, 382960, Note_off_c, 7, 72, 64
9, 383040, Note_on_c, 7, 72, 90
9, 383203, Note_off_c, 7, 72, 64
9, 383279, Note_on_c, 7, 72, 90
9, 383442, Note_off_c, 7, 72, 64
9, 383518, Note_on_c, 7, 72, 90
9, 384094, Note_off_c, 7, 72, 64
9, 384238, Note_on_c, 7, 72, 90
9, 384360, Note_off_c, 7, 72, 64
9, 384480, Note_on_c, 7, 72, 90
9, 385056, Note_off_c, 7, 72, 64
9, 385199, Note_on_c, 7, 72, 90
9, 385321, Note_off_c, 7, 72, 64
9, 385439, Note_on_c, 7, 72, 90
9, 386015, Note_off_c, 7, 72, 64
9, 386160, Note_on_c, 7, 72, 90
9, 386282, Note_off_c, 7, 72, 64
9, 386402, Note_on_c, 7, 72, 90
9, 386978, Note_off_c, 7, 72, 64
9, 387120, Note_on_c, 7, 72, 90
9, 387242, Note_off_c, 7, 72, 64
9, 387362, Note_on_c, 7, 67, 90
9, 387525, Note_off_c, 7, 67, 64
9, 387839, Note_on_c, 7, 60, 73
9, 388002, Note_off_c, 7, 60, 64
9, 388321, Note_on_c, 7, 60, 73
9, 388484, Note_off_c, 7, 60, 64
9, 388803, Note_on_c, 7, 67, 73
9, 388966, Note_off_c, 7, 67, 64
9, 397197, Note_on_c, 7, 67, 75
9, 397360, Note_off_c, 7, 67, 64
9, 397682, Note_on_c, 7, 67, 86
9, 397845, Note_off_c, 7, 67, 64
9, 397918, Note_on_c, 7, 72, 90
9, 398081, Note_off_c, 7, 72, 64
9, 398158, Note_on_c, 7, 72, 90
9, 398321, Note_off_c, 7, 72, 64
9, 398403, Note_on_c, 7, 72, 90
9, 398566, Note_off_c, 7, 72, 64
9, 398639, Note_on_c, 7, 72, 90
9, 398802, Note_off_c, 7, 72, 64
9, 398881, Note_on_c, 7, 72, 90
9, 399044, Note_off_c, 7, 72, 64
9, 399123, Note_on_c, 7, 72, 90
9, 399286, Note_off_c, 7, 72, 64
9, 399361, Note_on_c, 7, 72, 90
9, 399524, Note_off_c, 7, 72, 64
9, 399601, Note_on_c, 7, 72, 90
9, 399764, Note_off_c, 7, 72, 64
9, 399841, Note_on_c, 7, 72, 90
9, 400417, Note_off_c, 7, 72, 64
9, 400562, Note_on_c, 7, 72, 90
9, 400684, Note_off_c, 7, 72, 64
9, 400803, Note_on_c, 7, 72, 90
9, 401379, Note_off_c, 7, 72, 64
9, 401522, Note_on_c, 7, 72, 90
9, 401644, Note_off_c, 7, 72, 64
9, 401763, Note_on_c, 7, 72, 90
9, 402339, Note_off_c, 7, 72, 64
9, 402481, Note_on_c, 7, 72, 90
9, 402603, Note_off_c, 7, 72, 64
9, 402722, Note_on_c, 7, 72, 90
9, 403298, Note_off_c, 7, 72, 64
9, 403440, Note_on_c, 7, 72, 90
9, 403562, Note_off_c, 7, 72, 64
9, 403679, Note_on_c, 7, 72, 73
9, 403842, Note_off_c, 7, 72, 64
9, 411841, Note_on_c, 7, 72, 86
9, 412004, Note_off_c, 7, 72, 64
9, 412320, Note_on_c, 7, 72, 86
9, 412483, Note_off_c, 7, 72, 64
9, 412799, Note_on_c, 7, 72, 87
9, 412962, Note_off_c, 7, 72, 64
9, 413281, Note_on_c, 7, 67, 88
9, 413444, Note_off_c, 7, 67, 64
9, 413761, Note_on_c, 7, 67, 88
9, 413924, Note_off_c, 7, 67, 64
9, 414238, Note_on_c, 7, 67, 89
9, 414401, Note_off_c, 7, 67, 64
9, 414722, Note_on_c, 7, 67, 89
9, 414885, Note_off_c, 7, 67, 64
9, 415201, Note_on_c, 7, 60, 93
9, 415309, Note_off_c, 7, 60, 56
9, 416161, Note_on_c, 7, 60, 93
9, 416247, Note_off_c, 7, 60, 56
9, 417121, Note_on_c, 7, 60, 93
9, 417207, Note_off_c, 7, 60, 56
9, 418079, Note_on_c, 7, 60, 93
9, 418165, Note_off_c, 7, 60, 56
9, 419041, Note_on_c, 7, 72, 93
9, 419127, Note_off_c, 7, 72, 56
9, 420001, Note_on_c, 7, 72, 93
9, 420087, Note_off_c, 7, 72, 56
9, 420959, Note_on_c, 7, 72, 93
9, 421045, Note_off_c, 7, 72, 56
9, 421921, Note_on_c, 7, 72, 93
9, 422007, Note_off_c, 7, 72, 56
9, 422881, Note_on_c, 7, 72, 76
9, 422967, Note_off_c, 7, 72, 56
9, 423121, Note_on_c, 7, 72, 77
9, 423207, Note_off_c, 7, 72, 56
9, 423359, Note_on_c, 7, 72, 78
9, 423445, Note_off_c, 7, 72, 56
9, 423601, Note_on_c, 7, 72, 80
9, 423687, Note_off_c, 7, 72, 56
9, 423841, Note_on_c, 7, 67, 81
9, 423927, Note_off_c, 7, 67, 56
9, 424080, Note_on_c, 7, 67, 82
9, 424166, Note_off_c, 7, 67, 56
9, 424319, Note_on_c, 7, 67, 83
9, 424405, Note_off_c, 7, 67, 56
9, 424559, Note_on_c, 7, 72, 84
9, 424645, Note_off_c, 7, 72, 56
9, 424800, Note_on_c, 7, 72, 85
9, 424886, Note_off_c, 7, 72, 56
9, 425040, Note_on_c, 7, 72, 85
9, 425126, Note_off_c, 7, 72, 56
9, 425281, Note_on_c, 7, 72, 86
9, 425367, Note_off_c, 7, 72, 56
9, 425520, Note_on_c, 7, 72, 88
9, 425606, Note_off_c, 7, 72, 56
9, 425760, Note_on_c, 7, 67, 89
9, 425846, Note_off_c, 7, 67, 56
9, 426000, Note_on_c, 7, 67, 90
9, 426086, Note_off_c, 7, 67, 56
9, 426241, Note_on_c, 7, 67, 91
9, 426327, Note_off_c, 7, 67, 56
9, 426480, Note_on_c, 7, 72, 92
9, 426566, Note_off_c, 7, 72, 56
9, 426601, Note_on_c, 7, 72, 93
9, 426687, Note_off_c, 7, 72, 56
9, 426720, Note_on_c, 7, 72, 93
9, 426806, Note_off_c, 7, 72, 56
9, 426839, Note_on_c, 7, 72, 93
9, 426925, Note_off_c, 7, 72, 56
9, 426961, Note_on_c, 7, 72, 93
9, 427047, Note_off_c, 7, 72, 56
9, 427080, Note_on_c, 7, 72, 93
9, 427166, Note_off_c, 7, 72, 56
9, 427199, Note_on_c, 7, 72, 93
9, 427285, Note_off_c, 7, 72, 56
9, 427321, Note_on_c, 7, 72, 93
9, 427407, Note_off_c, 7, 72, 56
9, 427439, Note_on_c, 7, 72, 93
9, 427525, Note_off_c, 7, 72, 56
9, 427560, Note_on_c, 7, 72, 93
9, 427646, Note_off_c, 7, 72, 56
9, 427681, Note_on_c, 7, 67, 93
9, 427767, Note_off_c, 7, 67, 56
9, 427799, Note_on_c, 7, 67, 93
9, 427885, Note_off_c, 7, 67, 56
9, 427920, Note_on_c, 7, 67, 93
9, 428006, Note_off_c, 7, 67, 56
9, 428040, Note_on_c, 7, 67, 93
9, 428126, Note_off_c, 7, 67, 56
9, 428161, Note_on_c, 7, 67, 93
9, 428247, Note_off_c, 7, 67, 56
9, 428279, Note_on_c, 7, 67, 93
9, 428365, Note_off_c, 7, 67, 56
9, 428401, Note_on_c, 7, 67, 93
9, 428487, Note_off_c, 7, 67, 56
9, 428520, Note_on_c, 7, 67, 93
9, 428606, Note_off_c, 7, 67, 56
9, 428637, Note_on_c, 7, 72, 108
9, 428809, Note_off_c, 7, 72, 67
9, 428882, Note_on_c, 7, 76, 108
9, 429054, Note_off_c, 7, 76, 67
9, 429123, Note_on_c, 7, 79, 108
9, 429411, Note_off_c, 7, 79, 67
9, 429479, Note_on_c, 7, 77, 111
9, 429565, Note_off_c, 7, 77, 56
9, 429600, Note_on_c, 7, 76, 111
9, 429686, Note_off_c, 7, 76, 56
9, 429719, Note_on_c, 7, 74, 111
9, 429805, Note_off_c, 7, 74, 56
9, 429840, Note_on_c, 7, 72, 111
9, 429926, Note_off_c, 7, 72, 56
9, 429959, Note_on_c, 7, 74, 111
9, 430045, Note_off_c, 7, 74, 56
9, 430077, Note_on_c, 7, 76, 108
9, 430365, Note_off_c, 7, 76, 68
9, 430440, Note_on_c, 7, 76, 111
9, 430526, Note_off_c, 7, 76, 56
9, 430560, Note_on_c, 7, 76, 111
9, 430646, Note_off_c, 7, 76, 56
9, 430679, Note_on_c, 7, 74, 111
9, 430765, Note_off_c, 7, 74, 56
9, 430800, Note_on_c, 7, 76, 111
9, 430886, Note_off_c, 7, 76, 56
9, 430920, Note_on_c, 7, 77, 111
9, 431006, Note_off_c, 7, 77, 56
9, 431041, Note_on_c, 7, 79, 108
9, 431329, Note_off_c, 7, 79, 68
9, 431401, Note_on_c, 7, 79, 111
9, 431487, Note_off_c, 7, 79, 56
9, 431521, Note_on_c, 7, 79, 111
9, 431607, Note_off_c, 7, 79, 56
9, 431640, Note_on_c, 7, 79, 111
9, 431726, Note_off_c, 7, 79, 56
9, 431760, Note_on_c, 7, 79, 111
9, 431846, Note_off_c, 7, 79, 56
9, 431881, Note_on_c, 7, 79, 111
9, 431967, Note_off_c, 7, 79, 56
9, 432001, Note_on_c, 7, 79, 108
9, 432289, Note_off_c, 7, 79, 69
9, 432359, Note_on_c, 7, 79, 111
9, 432445, Note_off_c, 7, 79, 56
9, 432479, Note_on_c, 7, 79, 111
9, 432565, Note_off_c, 7, 79, 56
9, 432601, Note_on_c, 7, 79, 111
9, 432687, Note_off_c, 7, 79, 56
9, 432719, Note_on_c, 7, 79, 111
9, 432805, Note_off_c, 7, 79, 56
9, 432841, Note_on_c, 7, 79, 111
9, 432927, Note_off_c, 7, 79, 56
9, 432959, Note_on_c, 7, 79, 111
9, 433045, Note_off_c, 7, 79, 56
9, 433081, Note_on_c, 7, 79, 111
9, 433167, Note_off_c, 7, 79, 56
9, 433201, Note_on_c, 7, 79, 111
9, 433287, Note_off_c, 7, 79, 56
9, 433321, Note_on_c, 7, 79, 111
9, 433407, Note_off_c, 7, 79, 56
9, 433439, Note_on_c, 7, 79, 108
9, 434207, Note_off_c, 7, 79, 69
9, 434398, Note_on_c, 7, 76, 108
9, 435166, Note_off_c, 7, 76, 69
9, 435361, Note_on_c, 7, 72, 111
9, 435469, Note_off_c, 7, 72, 56
9, 435841, Note_on_c, 7, 74, 111
9, 435949, Note_off_c, 7, 74, 56
9, 436321, Note_on_c, 7, 76, 111
9, 436429, Note_off_c, 7, 76, 56
9, 436802, Note_on_c, 7, 79, 111
9, 436910, Note_off_c, 7, 79, 56
9, 437280, Note_on_c, 7, 76, 111
9, 437388, Note_off_c, 7, 76, 56
9, 437759, Note_on_c, 7, 74, 111
9, 437867, Note_off_c, 7, 74, 56
9, 438242, Note_on_c, 7, 76, 111
9, 438350, Note_off_c, 7, 76, 56
9, 438718, Note_on_c, 7, 79, 111
9, 438826, Note_off_c, 7, 79, 56
9, 439199, Note_on_c, 7, 76, 111
9, 439307, Note_off_c, 7, 76, 56
9, 439678, Note_on_c, 7, 79, 111
9, 439786, Note_off_c, 7, 79, 56
9, 440161, Note_on_c, 7, 76, 111
9, 440269, Note_off_c, 7, 76, 56
9, 440642, Note_on_c, 7, 79, 111
9, 440750, Note_off_c, 7, 79, 56
9, 441123, Note_on_c, 7, 72, 108
9, 441891, Note_off_c, 7, 72, 71
9, 442078, Note_on_c, 7, 72, 108
9, 442654, Note_off_c, 7, 72, 72
9, 442800, Note_on_c, 7, 67, 111
9, 442886, Note_off_c, 7, 67, 56
9, 442919, Note_on_c, 7, 64, 111
9, 443005, Note_off_c, 7, 64, 56
9, 443040, Note_on_c, 7, 60, 111
9, 443126, Note_off_c, 7, 60, 56
9, 443401, Note_on_c, 7, 72, 111
9, 443487, Note_off_c, 7, 72, 56
9, 443519, Note_on_c, 7, 72, 111
9, 443605, Note_off_c, 7, 72, 56
9, 443641, Note_on_c, 7, 72, 111
9, 443727, Note_off_c, 7, 72, 56
9, 443760, Note_on_c, 7, 72, 111
9, 443846, Note_off_c, 7, 72, 56
9, 443880, Note_on_c, 7, 72, 111
9, 443966, Note_off_c, 7, 72, 56
9, 444001, Note_on_c, 7, 72, 111
9, 444087, Note_off_c, 7, 72, 56
9, 444359, Note_on_c, 7, 72, 111
9, 444445, Note_off_c, 7, 72, 56
9, 444479, Note_on_c, 7, 72, 111
9, 444565, Note_off_c, 7, 72, 56
9, 444599, Note_on_c, 7, 72, 111
9, 444685, Note_off_c, 7, 72, 56
9, 444721, Note_on_c, 7, 72, 111
9, 444807, Note_off_c, 7, 72, 56
9, 444841, Note_on_c, 7, 72, 111
9, 444927, Note_off_c, 7, 72, 56
9, 444961, Note_on_c, 7, 72, 111
9, 445047, Note_off_c, 7, 72, 56
9, 445199, Note_on_c, 7, 72, 111
9, 445285, Note_off_c, 7, 72, 56
9, 445320, Note_on_c, 7, 72, 111
9, 445406, Note_off_c, 7, 72, 56
9, 445439, Note_on_c, 7, 72, 111
9, 445525, Note_off_c, 7, 72, 56
9, 445681, Note_on_c, 7, 72, 111
9, 445767, Note_off_c, 7, 72, 56
9, 445801, Note_on_c, 7, 72, 111
9, 445887, Note_off_c, 7, 72, 56
9, 445921, Note_on_c, 7, 72, 111
9, 446007, Note_off_c, 7, 72, 56
9, 446161, Note_on_c, 7, 72, 111
9, 446247, Note_off_c, 7, 72, 56
9, 446279, Note_on_c, 7, 72, 111
9, 446365, Note_off_c, 7, 72, 56
9, 446401, Note_on_c, 7, 72, 111
9, 446487, Note_off_c, 7, 72, 56
9, 446639, Note_on_c, 7, 72, 111
9, 446725, Note_off_c, 7, 72, 56
9, 446759, Note_on_c, 7, 72, 111
9, 446845, Note_off_c, 7, 72, 56
9, 446878, Note_on_c, 7, 72, 108
9, 447646, Note_off_c, 7, 72, 73
9, 447838, Note_on_c, 7, 76, 108
9, 448606, Note_off_c, 7, 76, 74
9, 448802, Note_on_c, 7, 76, 111
9, 448910, Note_off_c, 7, 76, 56
9, 449761, Note_on_c, 7, 72, 111
9, 449869, Note_off_c, 7, 72, 56
9, 450719, Note_on_c, 7, 72, 111
9, 450827, Note_off_c, 7, 72, 56
9, 451678, Note_on_c, 7, 72, 111
9, 451786, Note_off_c, 7, 72, 56
9, 452161, Note_on_c, 7, 72, 111
9, 452269, Note_off_c, 7, 72, 56
9, 452641, Note_on_c, 7, 72, 111
9, 452749, Note_off_c, 7, 72, 56
9, 453598, Note_on_c, 7, 72, 111
9, 453706, Note_off_c, 7, 72, 56
9, 454562, Note_on_c, 7, 60, 108
9, 455522, Note_off_c, 7, 60, 76
9, 455522, End_track
10, 0, Start_track
10, 0, Title_t, "Tromb1"
10, 0, Program_c, 8, 57
10, 0, Control_c, 8, 7, 90
10, 0, Note_on_c, 8, 72, 108
10, 0, Control_c, 8, 91, 59
10, 0, Control_c, 8, 93, 4
10, 0, Control_c, 8, 10, 88
10, 432, Note_off_c, 8, 72, 64
10, 478, Note_on_c, 8, 64, 108
10, 910, Note_off_c, 8, 64, 64
10, 958, Note_on_c, 8, 67, 108
10, 1606, Note_off_c, 8, 67, 64
10, 1680, Note_on_c, 8, 65, 108
10, 1771, Note_off_c, 8, 65, 56
10, 1921, Note_on_c, 8, 64, 108
10, 2012, Note_off_c, 8, 64, 56
10, 2159, Note_on_c, 8, 62, 108
10, 2250, Note_off_c, 8, 62, 56
10, 2401, Note_on_c, 8, 60, 108
10, 2492, Note_off_c, 8, 60, 56
10, 2641, Note_on_c, 8, 62, 108
10, 2732, Note_off_c, 8, 62, 56
10, 2883, Note_on_c, 8, 60, 108
10, 3531, Note_off_c, 8, 60, 64
10, 3842, Note_on_c, 8, 62, 108
10, 4490, Note_off_c, 8, 62, 64
10, 4797, Note_on_c, 8, 64, 108
10, 5445, Note_off_c, 8, 64, 64
10, 5762, Note_on_c, 8, 65, 108
10, 6086, Note_off_c, 8, 65, 64
10, 6240, Note_on_c, 8, 69, 108
10, 6564, Note_off_c, 8, 69, 64
10, 6720, Note_on_c, 8, 67, 108
10, 7308, Note_off_c, 8, 67, 64
10, 7677, Note_on_c, 8, 65, 108
10, 8109, Note_off_c, 8, 65, 64
10, 8161, Note_on_c, 8, 69, 108
10, 8593, Note_off_c, 8, 69, 64
10, 8642, Note_on_c, 8, 67, 108
10, 9230, Note_off_c, 8, 67, 64
10, 9597, Note_on_c, 8, 65, 108
10, 9921, Note_off_c, 8, 65, 64
10, 10078, Note_on_c, 8, 69, 108
10, 10402, Note_off_c, 8, 69, 64
10, 10563, Note_on_c, 8, 67, 108
10, 11211, Note_off_c, 8, 67, 64
10, 11277, Note_on_c, 8, 64, 108
10, 11482, Note_off_c, 8, 64, 64
10, 11522, Note_on_c, 8, 65, 108
10, 11727, Note_off_c, 8, 65, 64
10, 12003, Note_on_c, 8, 64, 108
10, 12208, Note_off_c, 8, 64, 64
10, 12478, Note_on_c, 8, 62, 108
10, 12683, Note_off_c, 8, 62, 64
10, 12723, Note_on_c, 8, 62, 108
10, 12928, Note_off_c, 8, 62, 64
10, 13201, Note_on_c, 8, 64, 108
10, 13406, Note_off_c, 8, 64, 64
10, 13440, Note_on_c, 8, 65, 108
10, 13645, Note_off_c, 8, 65, 64
10, 13918, Note_on_c, 8, 64, 108
10, 14123, Note_off_c, 8, 64, 64
10, 14401, Note_on_c, 8, 62, 108
10, 14606, Note_off_c, 8, 62, 64
10, 14642, Note_on_c, 8, 62, 108
10, 14847, Note_off_c, 8, 62, 64
10, 15122, Note_on_c, 8, 72, 108
10, 15327, Note_off_c, 8, 72, 64
10, 15360, Note_on_c, 8, 74, 108
10, 15565, Note_off_c, 8, 74, 64
10, 15601, Note_on_c, 8, 74, 108
10, 15806, Note_off_c, 8, 74, 64
10, 15843, Note_on_c, 8, 72, 108
10, 16048, Note_off_c, 8, 72, 64
10, 16081, Note_on_c, 8, 72, 108
10, 16286, Note_off_c, 8, 72, 64
10, 16322, Note_on_c, 8, 71, 108
10, 16527, Note_off_c, 8, 71, 64
10, 17283, Note_on_c, 8, 71, 108
10, 17488, Note_off_c, 8, 71, 64
10, 18243, Note_on_c, 8, 71, 108
10, 18448, Note_off_c, 8, 71, 64
10, 18722, Note_on_c, 8, 71, 108
10, 18927, Note_off_c, 8, 71, 64
10, 19201, Note_on_c, 8, 71, 108
10, 19406, Note_off_c, 8, 71, 64
10, 19678, Note_on_c, 8, 71, 108
10, 19883, Note_off_c, 8, 71, 64
10, 20157, Note_on_c, 8, 71, 108
10, 20362, Note_off_c, 8, 71, 64
10, 25918, Note_on_c, 8, 59, 108
10, 26123, Note_off_c, 8, 59, 64
10, 26397, Note_on_c, 8, 59, 108
10, 26602, Note_off_c, 8, 59, 64
10, 26880, Note_on_c, 8, 59, 108
10, 27085, Note_off_c, 8, 59, 64
10, 27357, Note_on_c, 8, 59, 108
10, 27562, Note_off_c, 8, 59, 64
10, 27837, Note_on_c, 8, 62, 108
10, 28042, Note_off_c, 8, 62, 64
10, 29759, Note_on_c, 8, 64, 108
10, 29964, Note_off_c, 8, 64, 64
10, 30243, Note_on_c, 8, 64, 108
10, 30448, Note_off_c, 8, 64, 64
10, 30721, Note_on_c, 8, 64, 108
10, 30926, Note_off_c, 8, 64, 64
10, 31203, Note_on_c, 8, 64, 108
10, 31408, Note_off_c, 8, 64, 64
10, 31677, Note_on_c, 8, 64, 108
10, 31882, Note_off_c, 8, 64, 64
10, 32643, Note_on_c, 8, 64, 108
10, 32848, Note_off_c, 8, 64, 64
10, 33597, Note_on_c, 8, 66, 108
10, 33802, Note_off_c, 8, 66, 64
10, 34561, Note_on_c, 8, 66, 108
10, 34766, Note_off_c, 8, 66, 64
10, 35519, Note_on_c, 8, 67, 108
10, 35724, Note_off_c, 8, 67, 64
10, 36479, Note_on_c, 8, 66, 108
10, 36684, Note_off_c, 8, 66, 64
10, 36960, Note_on_c, 8, 66, 108
10, 37165, Note_off_c, 8, 66, 64
10, 37441, Note_on_c, 8, 67, 108
10, 37646, Note_off_c, 8, 67, 64
10, 37921, Note_on_c, 8, 67, 108
10, 38126, Note_off_c, 8, 67, 64
10, 38399, Note_on_c, 8, 74, 108
10, 39947, Note_off_c, 8, 74, 64
10, 46083, Note_on_c, 8, 71, 90
10, 46288, Note_off_c, 8, 71, 64
10, 46558, Note_on_c, 8, 72, 90
10, 46763, Note_off_c, 8, 72, 64
10, 47038, Note_on_c, 8, 71, 90
10, 47686, Note_off_c, 8, 71, 64
10, 54717, Note_on_c, 8, 72, 90
10, 56853, Note_off_c, 8, 72, 64
10, 58559, Note_on_c, 8, 72, 90
10, 58695, Note_off_c, 8, 72, 64
10, 59518, Note_on_c, 8, 69, 90
10, 59654, Note_off_c, 8, 69, 64
10, 65521, Note_on_c, 8, 65, 73
10, 65726, Note_off_c, 8, 65, 64
10, 65760, Note_on_c, 8, 65, 73
10, 65965, Note_off_c, 8, 65, 64
10, 65999, Note_on_c, 8, 65, 73
10, 66204, Note_off_c, 8, 65, 64
10, 66239, Note_on_c, 8, 64, 73
10, 66444, Note_off_c, 8, 64, 64
10, 66718, Note_on_c, 8, 69, 73
10, 66923, Note_off_c, 8, 69, 64
10, 67197, Note_on_c, 8, 67, 73
10, 67402, Note_off_c, 8, 67, 64
10, 67679, Note_on_c, 8, 66, 73
10, 67884, Note_off_c, 8, 66, 64
10, 68161, Note_on_c, 8, 67, 90
10, 68809, Note_off_c, 8, 67, 64
10, 68880, Note_on_c, 8, 66, 90
10, 69085, Note_off_c, 8, 66, 64
10, 69120, Note_on_c, 8, 64, 90
10, 69325, Note_off_c, 8, 64, 64
10, 69360, Note_on_c, 8, 62, 90
10, 69565, Note_off_c, 8, 62, 64
10, 69601, Note_on_c, 8, 62, 90
10, 69806, Note_off_c, 8, 62, 64
10, 69838, Note_on_c, 8, 62, 90
10, 70043, Note_off_c, 8, 62, 64
10, 70082, Note_on_c, 8, 67, 96
10, 70730, Note_off_c, 8, 67, 64
10, 70798, Note_on_c, 8, 66, 90
10, 71003, Note_off_c, 8, 66, 64
10, 71042, Note_on_c, 8, 64, 90
10, 71247, Note_off_c, 8, 64, 64
10, 71279, Note_on_c, 8, 62, 90
10, 71484, Note_off_c, 8, 62, 64
10, 71518, Note_on_c, 8, 62, 90
10, 71723, Note_off_c, 8, 62, 64
10, 71763, Note_on_c, 8, 62, 90
10, 71968, Note_off_c, 8, 62, 64
10, 71998, Note_on_c, 8, 72, 96
10, 72646, Note_off_c, 8, 72, 64
10, 72723, Note_on_c, 8, 71, 96
10, 72928, Note_off_c, 8, 71, 64
10, 72962, Note_on_c, 8, 69, 96
10, 73167, Note_off_c, 8, 69, 64
10, 75842, Note_on_c, 8, 81, 108
10, 77666, Note_off_c, 8, 81, 64
10, 77757, Note_on_c, 8, 71, 108
10, 77962, Note_off_c, 8, 71, 64
10, 78717, Note_on_c, 8, 71, 108
10, 78922, Note_off_c, 8, 71, 64
10, 79683, Note_on_c, 8, 71, 108
10, 79888, Note_off_c, 8, 71, 64
10, 80157, Note_on_c, 8, 71, 108
10, 80362, Note_off_c, 8, 71, 64
10, 80639, Note_on_c, 8, 71, 108
10, 80844, Note_off_c, 8, 71, 64
10, 81123, Note_on_c, 8, 71, 108
10, 81328, Note_off_c, 8, 71, 64
10, 81597, Note_on_c, 8, 72, 108
10, 82029, Note_off_c, 8, 72, 64
10, 82081, Note_on_c, 8, 64, 108
10, 82513, Note_off_c, 8, 64, 64
10, 82559, Note_on_c, 8, 67, 108
10, 83207, Note_off_c, 8, 67, 64
10, 83281, Note_on_c, 8, 65, 108
10, 83372, Note_off_c, 8, 65, 56
10, 83521, Note_on_c, 8, 64, 108
10, 83612, Note_off_c, 8, 64, 56
10, 83761, Note_on_c, 8, 62, 108
10, 83852, Note_off_c, 8, 62, 56
10, 83999, Note_on_c, 8, 60, 108
10, 84090, Note_off_c, 8, 60, 56
10, 84241, Note_on_c, 8, 62, 108
10, 84332, Note_off_c, 8, 62, 56
10, 84482, Note_on_c, 8, 60, 108
10, 85130, Note_off_c, 8, 60, 64
10, 85440, Note_on_c, 8, 62, 108
10, 86088, Note_off_c, 8, 62, 64
10, 86400, Note_on_c, 8, 64, 108
10, 87048, Note_off_c, 8, 64, 64
10, 87361, Note_on_c, 8, 65, 108
10, 87685, Note_off_c, 8, 65, 64
10, 87838, Note_on_c, 8, 69, 108
10, 88162, Note_off_c, 8, 69, 64
10, 88323, Note_on_c, 8, 67, 108
10, 88911, Note_off_c, 8, 67, 64
10, 89282, Note_on_c, 8, 65, 108
10, 89714, Note_off_c, 8, 65, 64
10, 89758, Note_on_c, 8, 69, 108
10, 90190, Note_off_c, 8, 69, 64
10, 90243, Note_on_c, 8, 67, 108
10, 90831, Note_off_c, 8, 67, 64
10, 91202, Note_on_c, 8, 65, 108
10, 91526, Note_off_c, 8, 65, 64
10, 91680, Note_on_c, 8, 69, 108
10, 92004, Note_off_c, 8, 69, 64
10, 92163, Note_on_c, 8, 67, 108
10, 92811, Note_off_c, 8, 67, 64
10, 92882, Note_on_c, 8, 64, 108
10, 93087, Note_off_c, 8, 64, 64
10, 93119, Note_on_c, 8, 65, 108
10, 93324, Note_off_c, 8, 65, 64
10, 93597, Note_on_c, 8, 64, 108
10, 93802, Note_off_c, 8, 64, 64
10, 94083, Note_on_c, 8, 62, 108
10, 94288, Note_off_c, 8, 62, 64
10, 94319, Note_on_c, 8, 62, 108
10, 94524, Note_off_c, 8, 62, 64
10, 94800, Note_on_c, 8, 64, 108
10, 95005, Note_off_c, 8, 64, 64
10, 95042, Note_on_c, 8, 65, 108
10, 95247, Note_off_c, 8, 65, 64
10, 95520, Note_on_c, 8, 64, 108
10, 95725, Note_off_c, 8, 64, 64
10, 95999, Note_on_c, 8, 62, 108
10, 96204, Note_off_c, 8, 62, 64
10, 96242, Note_on_c, 8, 62, 108
10, 96447, Note_off_c, 8, 62, 64
10, 96721, Note_on_c, 8, 72, 108
10, 96926, Note_off_c, 8, 72, 64
10, 96959, Note_on_c, 8, 74, 108
10, 97164, Note_off_c, 8, 74, 64
10, 97200, Note_on_c, 8, 74, 108
10, 97405, Note_off_c, 8, 74, 64
10, 97442, Note_on_c, 8, 72, 108
10, 97647, Note_off_c, 8, 72, 64
10, 97680, Note_on_c, 8, 72, 108
10, 97885, Note_off_c, 8, 72, 64
10, 97921, Note_on_c, 8, 71, 108
10, 98126, Note_off_c, 8, 71, 64
10, 98878, Note_on_c, 8, 71, 108
10, 99083, Note_off_c, 8, 71, 64
10, 99841, Note_on_c, 8, 71, 108
10, 100046, Note_off_c, 8, 71, 64
10, 100322, Note_on_c, 8, 71, 108
10, 100527, Note_off_c, 8, 71, 64
10, 100799, Note_on_c, 8, 71, 108
10, 101004, Note_off_c, 8, 71, 64
10, 101280, Note_on_c, 8, 71, 108
10, 101485, Note_off_c, 8, 71, 64
10, 101760, Note_on_c, 8, 71, 108
10, 101965, Note_off_c, 8, 71, 64
10, 107523, Note_on_c, 8, 59, 108
10, 107728, Note_off_c, 8, 59, 64
10, 108003, Note_on_c, 8, 59, 108
10, 108208, Note_off_c, 8, 59, 64
10, 108483, Note_on_c, 8, 59, 108
10, 108688, Note_off_c, 8, 59, 64
10, 108963, Note_on_c, 8, 59, 108
10, 109168, Note_off_c, 8, 59, 64
10, 109438, Note_on_c, 8, 62, 108
10, 109643, Note_off_c, 8, 62, 64
10, 111358, Note_on_c, 8, 64, 108
10, 111563, Note_off_c, 8, 64, 64
10, 111841, Note_on_c, 8, 64, 108
10, 112046, Note_off_c, 8, 64, 64
10, 112320, Note_on_c, 8, 64, 108
10, 112525, Note_off_c, 8, 64, 64
10, 112802, Note_on_c, 8, 64, 108
10, 113007, Note_off_c, 8, 64, 64
10, 113280, Note_on_c, 8, 64, 108
10, 113485, Note_off_c, 8, 64, 64
10, 114241, Note_on_c, 8, 64, 108
10, 114446, Note_off_c, 8, 64, 64
10, 115198, Note_on_c, 8, 66, 108
10, 115403, Note_off_c, 8, 66, 64
10, 116162, Note_on_c, 8, 66, 108
10, 116367, Note_off_c, 8, 66, 64
10, 117123, Note_on_c, 8, 67, 108
10, 117328, Note_off_c, 8, 67, 64
10, 118077, Note_on_c, 8, 66, 108
10, 118282, Note_off_c, 8, 66, 64
10, 118557, Note_on_c, 8, 66, 108
10, 118762, Note_off_c, 8, 66, 64
10, 119039, Note_on_c, 8, 67, 108
10, 119244, Note_off_c, 8, 67, 64
10, 119518, Note_on_c, 8, 67, 108
10, 119723, Note_off_c, 8, 67, 64
10, 119997, Note_on_c, 8, 74, 108
10, 121545, Note_off_c, 8, 74, 64
10, 127679, Note_on_c, 8, 71, 90
10, 127884, Note_off_c, 8, 71, 64
10, 128160, Note_on_c, 8, 72, 90
10, 128365, Note_off_c, 8, 72, 64
10, 128643, Note_on_c, 8, 71, 90
10, 129291, Note_off_c, 8, 71, 64
10, 136322, Note_on_c, 8, 72, 90
10, 138458, Note_off_c, 8, 72, 64
10, 140159, Note_on_c, 8, 72, 90
10, 140295, Note_off_c, 8, 72, 64
10, 141119, Note_on_c, 8, 69, 90
10, 141255, Note_off_c, 8, 69, 64
10, 147121, Note_on_c, 8, 65, 73
10, 147326, Note_off_c, 8, 65, 64
10, 147360, Note_on_c, 8, 65, 73
10, 147565, Note_off_c, 8, 65, 64
10, 147601, Note_on_c, 8, 65, 73
10, 147806, Note_off_c, 8, 65, 64
10, 147840, Note_on_c, 8, 64, 73
10, 148045, Note_off_c, 8, 64, 64
10, 148317, Note_on_c, 8, 69, 73
10, 148522, Note_off_c, 8, 69, 64
10, 148798, Note_on_c, 8, 67, 73
10, 149003, Note_off_c, 8, 67, 64
10, 149278, Note_on_c, 8, 66, 73
10, 149483, Note_off_c, 8, 66, 64
10, 149758, Note_on_c, 8, 67, 90
10, 150406, Note_off_c, 8, 67, 64
10, 150481, Note_on_c, 8, 66, 90
10, 150686, Note_off_c, 8, 66, 64
10, 150720, Note_on_c, 8, 64, 90
10, 150925, Note_off_c, 8, 64, 64
10, 150958, Note_on_c, 8, 62, 90
10, 151163, Note_off_c, 8, 62, 64
10, 151202, Note_on_c, 8, 62, 90
10, 151407, Note_off_c, 8, 62, 64
10, 151441, Note_on_c, 8, 62, 90
10, 151646, Note_off_c, 8, 62, 64
10, 151677, Note_on_c, 8, 67, 96
10, 152325, Note_off_c, 8, 67, 64
10, 152400, Note_on_c, 8, 66, 90
10, 152605, Note_off_c, 8, 66, 64
10, 152643, Note_on_c, 8, 64, 90
10, 152848, Note_off_c, 8, 64, 64
10, 152877, Note_on_c, 8, 62, 90
10, 153082, Note_off_c, 8, 62, 64
10, 153121, Note_on_c, 8, 62, 90
10, 153326, Note_off_c, 8, 62, 64
10, 153363, Note_on_c, 8, 62, 90
10, 153568, Note_off_c, 8, 62, 64
10, 153599, Note_on_c, 8, 72, 96
10, 154247, Note_off_c, 8, 72, 64
10, 154323, Note_on_c, 8, 71, 96
10, 154528, Note_off_c, 8, 71, 64
10, 154557, Note_on_c, 8, 69, 96
10, 154762, Note_off_c, 8, 69, 64
10, 157443, Note_on_c, 8, 81, 108
10, 159267, Note_off_c, 8, 81, 64
10, 159362, Note_on_c, 8, 71, 108
10, 159567, Note_off_c, 8, 71, 64
10, 160322, Note_on_c, 8, 71, 108
10, 160527, Note_off_c, 8, 71, 64
10, 161282, Note_on_c, 8, 71, 108
10, 161487, Note_off_c, 8, 71, 64
10, 161761, Note_on_c, 8, 71, 108
10, 161966, Note_off_c, 8, 71, 64
10, 162241, Note_on_c, 8, 71, 108
10, 162446, Note_off_c, 8, 71, 64
10, 162478, Note_on_c, 8, 71, 108
10, 163126, Note_off_c, 8, 71, 64
10, 163201, Note_on_c, 8, 71, 108
10, 166945, Note_off_c, 8, 71, 64
10, 167038, Note_on_c, 8, 69, 108
10, 167243, Note_off_c, 8, 69, 64
10, 188881, Note_on_c, 8, 61, 90
10, 189086, Note_off_c, 8, 61, 64
10, 189123, Note_on_c, 8, 60, 90
10, 189555, Note_off_c, 8, 60, 64
10, 189601, Note_on_c, 8, 61, 90
10, 190033, Note_off_c, 8, 61, 64
10, 190083, Note_on_c, 8, 63, 90
10, 191691, Note_off_c, 8, 63, 64
10, 191757, Note_on_c, 8, 63, 90
10, 191962, Note_off_c, 8, 63, 64
10, 192002, Note_on_c, 8, 62, 90
10, 192434, Note_off_c, 8, 62, 64
10, 192479, Note_on_c, 8, 63, 90
10, 192911, Note_off_c, 8, 63, 64
10, 192959, Note_on_c, 8, 65, 90
10, 194567, Note_off_c, 8, 65, 64
10, 195843, Note_on_c, 8, 64, 90
10, 197979, Note_off_c, 8, 64, 64
10, 198723, Note_on_c, 8, 56, 90
10, 198928, Note_off_c, 8, 56, 64
10, 199677, Note_on_c, 8, 58, 93
10, 199882, Note_off_c, 8, 58, 64
10, 200641, Note_on_c, 8, 60, 94
10, 200846, Note_off_c, 8, 60, 64
10, 201599, Note_on_c, 8, 62, 96
10, 201804, Note_off_c, 8, 62, 64
10, 202562, Note_on_c, 8, 63, 98
10, 202767, Note_off_c, 8, 63, 64
10, 203517, Note_on_c, 8, 65, 100
10, 203722, Note_off_c, 8, 65, 64
10, 204483, Note_on_c, 8, 67, 102
10, 204688, Note_off_c, 8, 67, 64
10, 205439, Note_on_c, 8, 74, 104
10, 207263, Note_off_c, 8, 74, 64
10, 207360, Note_on_c, 8, 67, 108
10, 207565, Note_off_c, 8, 67, 64
10, 209280, Note_on_c, 8, 62, 108
10, 209485, Note_off_c, 8, 62, 64
10, 211198, Note_on_c, 8, 64, 108
10, 211403, Note_off_c, 8, 64, 64
10, 213122, Note_on_c, 8, 65, 108
10, 213327, Note_off_c, 8, 65, 64
10, 215038, Note_on_c, 8, 67, 108
10, 215243, Note_off_c, 8, 67, 64
10, 216963, Note_on_c, 8, 63, 108
10, 218787, Note_off_c, 8, 63, 64
10, 218878, Note_on_c, 8, 62, 108
10, 219466, Note_off_c, 8, 62, 64
10, 219838, Note_on_c, 8, 62, 108
10, 220426, Note_off_c, 8, 62, 64
10, 220799, Note_on_c, 8, 62, 108
10, 221004, Note_off_c, 8, 62, 64
10, 221283, Note_on_c, 8, 62, 108
10, 221488, Note_off_c, 8, 62, 64
10, 221762, Note_on_c, 8, 62, 108
10, 221967, Note_off_c, 8, 62, 64
10, 222240, Note_on_c, 8, 62, 108
10, 222445, Note_off_c, 8, 62, 64
10, 222721, Note_on_c, 8, 62, 108
10, 222926, Note_off_c, 8, 62, 64
10, 223201, Note_on_c, 8, 62, 108
10, 223406, Note_off_c, 8, 62, 64
10, 223679, Note_on_c, 8, 62, 108
10, 223884, Note_off_c, 8, 62, 64
10, 224162, Note_on_c, 8, 62, 108
10, 224367, Note_off_c, 8, 62, 64
10, 224639, Note_on_c, 8, 67, 108
10, 227423, Note_off_c, 8, 67, 64
10, 227523, Note_on_c, 8, 67, 108
10, 227728, Note_off_c, 8, 67, 64
10, 266402, Note_on_c, 8, 72, 108
10, 266834, Note_off_c, 8, 72, 64
10, 266880, Note_on_c, 8, 64, 108
10, 267312, Note_off_c, 8, 64, 64
10, 267359, Note_on_c, 8, 67, 108
10, 268007, Note_off_c, 8, 67, 64
10, 268079, Note_on_c, 8, 65, 108
10, 268181, Note_off_c, 8, 65, 56
10, 268322, Note_on_c, 8, 64, 108
10, 268424, Note_off_c, 8, 64, 56
10, 268560, Note_on_c, 8, 62, 108
10, 268662, Note_off_c, 8, 62, 56
10, 268799, Note_on_c, 8, 60, 108
10, 268901, Note_off_c, 8, 60, 56
10, 269039, Note_on_c, 8, 62, 108
10, 269141, Note_off_c, 8, 62, 56
10, 269279, Note_on_c, 8, 60, 108
10, 269927, Note_off_c, 8, 60, 64
10, 270241, Note_on_c, 8, 62, 108
10, 270889, Note_off_c, 8, 62, 64
10, 271202, Note_on_c, 8, 64, 108
10, 271850, Note_off_c, 8, 64, 64
10, 272158, Note_on_c, 8, 65, 108
10, 272482, Note_off_c, 8, 65, 64
10, 272643, Note_on_c, 8, 69, 108
10, 272967, Note_off_c, 8, 69, 64
10, 273117, Note_on_c, 8, 67, 108
10, 273705, Note_off_c, 8, 67, 64
10, 274077, Note_on_c, 8, 65, 108
10, 274509, Note_off_c, 8, 65, 64
10, 274562, Note_on_c, 8, 69, 108
10, 274994, Note_off_c, 8, 69, 64
10, 275039, Note_on_c, 8, 67, 108
10, 275627, Note_off_c, 8, 67, 64
10, 275999, Note_on_c, 8, 65, 108
10, 276323, Note_off_c, 8, 65, 64
10, 276478, Note_on_c, 8, 69, 108
10, 276802, Note_off_c, 8, 69, 64
10, 276957, Note_on_c, 8, 67, 108
10, 277605, Note_off_c, 8, 67, 64
10, 277677, Note_on_c, 8, 64, 108
10, 277882, Note_off_c, 8, 64, 64
10, 277921, Note_on_c, 8, 65, 108
10, 278126, Note_off_c, 8, 65, 64
10, 278400, Note_on_c, 8, 64, 108
10, 278605, Note_off_c, 8, 64, 64
10, 278877, Note_on_c, 8, 62, 108
10, 279082, Note_off_c, 8, 62, 64
10, 279123, Note_on_c, 8, 62, 108
10, 279328, Note_off_c, 8, 62, 64
10, 279603, Note_on_c, 8, 64, 108
10, 279808, Note_off_c, 8, 64, 64
10, 279843, Note_on_c, 8, 65, 108
10, 280048, Note_off_c, 8, 65, 64
10, 280323, Note_on_c, 8, 64, 108
10, 280528, Note_off_c, 8, 64, 64
10, 280797, Note_on_c, 8, 62, 108
10, 281002, Note_off_c, 8, 62, 64
10, 281038, Note_on_c, 8, 62, 108
10, 281243, Note_off_c, 8, 62, 64
10, 281522, Note_on_c, 8, 72, 108
10, 281727, Note_off_c, 8, 72, 64
10, 281759, Note_on_c, 8, 74, 108
10, 281964, Note_off_c, 8, 74, 64
10, 281997, Note_on_c, 8, 74, 108
10, 282202, Note_off_c, 8, 74, 64
10, 282240, Note_on_c, 8, 72, 108
10, 282445, Note_off_c, 8, 72, 64
10, 282479, Note_on_c, 8, 72, 108
10, 282684, Note_off_c, 8, 72, 64
10, 282718, Note_on_c, 8, 71, 108
10, 282923, Note_off_c, 8, 71, 64
10, 283683, Note_on_c, 8, 71, 108
10, 283888, Note_off_c, 8, 71, 64
10, 284638, Note_on_c, 8, 71, 108
10, 284843, Note_off_c, 8, 71, 64
10, 285123, Note_on_c, 8, 71, 108
10, 285328, Note_off_c, 8, 71, 64
10, 285600, Note_on_c, 8, 71, 108
10, 285805, Note_off_c, 8, 71, 64
10, 286080, Note_on_c, 8, 71, 108
10, 286285, Note_off_c, 8, 71, 64
10, 286558, Note_on_c, 8, 71, 108
10, 286763, Note_off_c, 8, 71, 64
10, 292322, Note_on_c, 8, 59, 108
10, 292527, Note_off_c, 8, 59, 64
10, 292801, Note_on_c, 8, 59, 108
10, 293006, Note_off_c, 8, 59, 64
10, 293280, Note_on_c, 8, 59, 108
10, 293485, Note_off_c, 8, 59, 64
10, 293761, Note_on_c, 8, 59, 108
10, 293966, Note_off_c, 8, 59, 64
10, 294240, Note_on_c, 8, 62, 108
10, 294445, Note_off_c, 8, 62, 64
10, 296158, Note_on_c, 8, 64, 108
10, 296363, Note_off_c, 8, 64, 64
10, 296643, Note_on_c, 8, 64, 108
10, 296848, Note_off_c, 8, 64, 64
10, 297119, Note_on_c, 8, 64, 108
10, 297324, Note_off_c, 8, 64, 64
10, 297600, Note_on_c, 8, 64, 108
10, 297805, Note_off_c, 8, 64, 64
10, 298080, Note_on_c, 8, 64, 108
10, 298285, Note_off_c, 8, 64, 64
10, 299043, Note_on_c, 8, 64, 108
10, 299248, Note_off_c, 8, 64, 64
10, 299999, Note_on_c, 8, 65, 108
10, 300204, Note_off_c, 8, 65, 64
10, 300962, Note_on_c, 8, 65, 108
10, 301167, Note_off_c, 8, 65, 64
10, 301919, Note_on_c, 8, 65, 108
10, 302351, Note_off_c, 8, 65, 64
10, 303839, Note_on_c, 8, 64, 108
10, 304271, Note_off_c, 8, 64, 64
10, 305762, Note_on_c, 8, 65, 108
10, 306194, Note_off_c, 8, 65, 64
10, 306721, Note_on_c, 8, 64, 108
10, 307153, Note_off_c, 8, 64, 64
10, 307679, Note_on_c, 8, 62, 108
10, 307884, Note_off_c, 8, 62, 64
10, 309603, Note_on_c, 8, 67, 108
10, 309808, Note_off_c, 8, 67, 64
10, 315361, Note_on_c, 8, 67, 90
10, 315566, Note_off_c, 8, 67, 64
10, 315837, Note_on_c, 8, 69, 90
10, 316042, Note_off_c, 8, 69, 64
10, 316319, Note_on_c, 8, 67, 90
10, 316967, Note_off_c, 8, 67, 64
10, 323999, Note_on_c, 8, 69, 108
10, 325823, Note_off_c, 8, 69, 64
10, 325918, Note_on_c, 8, 69, 108
10, 326123, Note_off_c, 8, 69, 64
10, 337443, Note_on_c, 8, 72, 90
10, 338091, Note_off_c, 8, 72, 64
10, 338157, Note_on_c, 8, 71, 90
10, 338362, Note_off_c, 8, 71, 64
10, 338401, Note_on_c, 8, 69, 90
10, 338606, Note_off_c, 8, 69, 64
10, 338641, Note_on_c, 8, 67, 90
10, 338846, Note_off_c, 8, 67, 64
10, 338883, Note_on_c, 8, 67, 90
10, 339088, Note_off_c, 8, 67, 64
10, 339122, Note_on_c, 8, 67, 90
10, 339327, Note_off_c, 8, 67, 64
10, 339360, Note_on_c, 8, 72, 90
10, 340008, Note_off_c, 8, 72, 64
10, 340079, Note_on_c, 8, 71, 90
10, 340284, Note_off_c, 8, 71, 64
10, 340318, Note_on_c, 8, 69, 90
10, 340523, Note_off_c, 8, 69, 64
10, 340559, Note_on_c, 8, 67, 90
10, 340764, Note_off_c, 8, 67, 64
10, 340798, Note_on_c, 8, 67, 90
10, 341003, Note_off_c, 8, 67, 64
10, 341041, Note_on_c, 8, 67, 90
10, 341246, Note_off_c, 8, 67, 64
10, 341281, Note_on_c, 8, 65, 90
10, 341929, Note_off_c, 8, 65, 64
10, 342002, Note_on_c, 8, 64, 90
10, 342207, Note_off_c, 8, 64, 64
10, 342242, Note_on_c, 8, 62, 90
10, 342447, Note_off_c, 8, 62, 64
10, 342480, Note_on_c, 8, 70, 90
10, 342685, Note_off_c, 8, 70, 64
10, 342722, Note_on_c, 8, 70, 92
10, 342927, Note_off_c, 8, 70, 64
10, 342958, Note_on_c, 8, 70, 93
10, 343163, Note_off_c, 8, 70, 64
10, 343199, Note_on_c, 8, 70, 95
10, 343404, Note_off_c, 8, 70, 64
10, 343438, Note_on_c, 8, 70, 96
10, 343643, Note_off_c, 8, 70, 64
10, 343681, Note_on_c, 8, 70, 98
10, 343886, Note_off_c, 8, 70, 64
10, 343918, Note_on_c, 8, 70, 100
10, 344123, Note_off_c, 8, 70, 64
10, 344157, Note_on_c, 8, 70, 101
10, 344362, Note_off_c, 8, 70, 64
10, 344397, Note_on_c, 8, 70, 103
10, 344602, Note_off_c, 8, 70, 64
10, 344639, Note_on_c, 8, 70, 104
10, 344844, Note_off_c, 8, 70, 64
10, 344879, Note_on_c, 8, 70, 106
10, 345084, Note_off_c, 8, 70, 64
10, 345123, Note_on_c, 8, 70, 108
10, 345987, Note_off_c, 8, 70, 64
10, 346078, Note_on_c, 8, 70, 108
10, 346942, Note_off_c, 8, 70, 64
10, 347040, Note_on_c, 8, 71, 108
10, 347904, Note_off_c, 8, 71, 64
10, 347999, Note_on_c, 8, 72, 108
10, 348863, Note_off_c, 8, 72, 64
10, 348963, Note_on_c, 8, 69, 108
10, 349827, Note_off_c, 8, 69, 64
10, 349922, Note_on_c, 8, 67, 96
10, 350570, Note_off_c, 8, 67, 64
10, 355683, Note_on_c, 8, 67, 90
10, 355888, Note_off_c, 8, 67, 64
10, 357601, Note_on_c, 8, 67, 90
10, 357806, Note_off_c, 8, 67, 64
10, 358317, Note_on_c, 8, 64, 90
10, 358522, Note_off_c, 8, 64, 64
10, 358561, Note_on_c, 8, 62, 93
10, 358993, Note_off_c, 8, 62, 64
10, 359038, Note_on_c, 8, 64, 95
10, 359470, Note_off_c, 8, 64, 64
10, 359521, Note_on_c, 8, 65, 97
10, 360169, Note_off_c, 8, 65, 64
10, 360241, Note_on_c, 8, 65, 102
10, 360446, Note_off_c, 8, 65, 64
10, 360481, Note_on_c, 8, 64, 103
10, 360913, Note_off_c, 8, 64, 64
10, 360962, Note_on_c, 8, 65, 106
10, 361394, Note_off_c, 8, 65, 64
10, 361442, Note_on_c, 8, 67, 108
10, 363266, Note_off_c, 8, 67, 64
10, 363358, Note_on_c, 8, 69, 108
10, 364222, Note_off_c, 8, 69, 64
10, 364323, Note_on_c, 8, 69, 108
10, 365187, Note_off_c, 8, 69, 64
10, 365278, Note_on_c, 8, 69, 108
10, 365710, Note_off_c, 8, 69, 64
10, 365757, Note_on_c, 8, 69, 108
10, 366189, Note_off_c, 8, 69, 64
10, 366243, Note_on_c, 8, 69, 108
10, 366675, Note_off_c, 8, 69, 64
10, 366718, Note_on_c, 8, 69, 108
10, 367150, Note_off_c, 8, 69, 64
10, 367201, Note_on_c, 8, 67, 108
10, 367337, Note_off_c, 8, 67, 64
10, 368158, Note_on_c, 8, 67, 108
10, 368294, Note_off_c, 8, 67, 64
10, 369120, Note_on_c, 8, 64, 108
10, 369256, Note_off_c, 8, 64, 64
10, 370079, Note_on_c, 8, 67, 108
10, 370215, Note_off_c, 8, 67, 64
10, 371040, Note_on_c, 8, 64, 108
10, 371176, Note_off_c, 8, 64, 64
10, 372002, Note_on_c, 8, 67, 108
10, 372138, Note_off_c, 8, 67, 64
10, 383518, Note_on_c, 8, 62, 90
10, 383723, Note_off_c, 8, 62, 64
10, 384483, Note_on_c, 8, 65, 90
10, 384688, Note_off_c, 8, 65, 64
10, 385438, Note_on_c, 8, 62, 90
10, 385643, Note_off_c, 8, 62, 64
10, 386403, Note_on_c, 8, 65, 90
10, 386608, Note_off_c, 8, 65, 64
10, 387121, Note_on_c, 8, 66, 90
10, 387257, Note_off_c, 8, 66, 64
10, 387360, Note_on_c, 8, 67, 90
10, 387565, Note_off_c, 8, 67, 64
10, 399838, Note_on_c, 8, 62, 90
10, 400043, Note_off_c, 8, 62, 64
10, 400802, Note_on_c, 8, 65, 90
10, 401007, Note_off_c, 8, 65, 64
10, 401759, Note_on_c, 8, 62, 90
10, 401964, Note_off_c, 8, 62, 64
10, 402719, Note_on_c, 8, 65, 90
10, 402924, Note_off_c, 8, 65, 64
10, 427203, Note_on_c, 8, 72, 90
10, 427587, Note_off_c, 8, 72, 67
10, 427683, Note_on_c, 8, 71, 90
10, 427875, Note_off_c, 8, 71, 67
10, 427919, Note_on_c, 8, 72, 90
10, 428111, Note_off_c, 8, 72, 67
10, 428157, Note_on_c, 8, 72, 90
10, 428349, Note_off_c, 8, 72, 67
10, 428400, Note_on_c, 8, 71, 90
10, 428592, Note_off_c, 8, 71, 67
10, 428639, Note_on_c, 8, 72, 108
10, 428735, Note_off_c, 8, 72, 56
10, 438721, Note_on_c, 8, 71, 108
10, 438841, Note_off_c, 8, 71, 56
10, 439199, Note_on_c, 8, 72, 108
10, 439319, Note_off_c, 8, 72, 56
10, 439681, Note_on_c, 8, 71, 108
10, 439801, Note_off_c, 8, 71, 56
10, 440162, Note_on_c, 8, 72, 108
10, 440282, Note_off_c, 8, 72, 56
10, 440642, Note_on_c, 8, 71, 108
10, 440762, Note_off_c, 8, 71, 56
10, 441122, Note_on_c, 8, 72, 108
10, 441890, Note_off_c, 8, 72, 71
10, 442077, Note_on_c, 8, 72, 108
10, 442845, Note_off_c, 8, 72, 72
10, 443038, Note_on_c, 8, 72, 108
10, 443134, Note_off_c, 8, 72, 56
10, 443998, Note_on_c, 8, 60, 108
10, 444094, Note_off_c, 8, 60, 56
10, 444958, Note_on_c, 8, 64, 108
10, 445054, Note_off_c, 8, 64, 56
10, 445438, Note_on_c, 8, 60, 108
10, 445534, Note_off_c, 8, 60, 56
10, 445918, Note_on_c, 8, 64, 108
10, 446014, Note_off_c, 8, 64, 56
10, 446398, Note_on_c, 8, 67, 108
10, 446494, Note_off_c, 8, 67, 56
10, 446880, Note_on_c, 8, 72, 108
10, 447648, Note_off_c, 8, 72, 73
10, 447842, Note_on_c, 8, 76, 108
10, 448610, Note_off_c, 8, 76, 74
10, 448798, Note_on_c, 8, 76, 108
10, 448918, Note_off_c, 8, 76, 56
10, 449758, Note_on_c, 8, 72, 108
10, 449878, Note_off_c, 8, 72, 56
10, 450721, Note_on_c, 8, 64, 108
10, 450841, Note_off_c, 8, 64, 56
10, 451681, Note_on_c, 8, 72, 108
10, 451801, Note_off_c, 8, 72, 56
10, 452162, Note_on_c, 8, 72, 108
10, 452282, Note_off_c, 8, 72, 56
10, 452639, Note_on_c, 8, 72, 108
10, 452759, Note_off_c, 8, 72, 56
10, 453598, Note_on_c, 8, 72, 108
10, 453718, Note_off_c, 8, 72, 56
10, 454558, Note_on_c, 8, 60, 108
10, 454678, Note_off_c, 8, 60, 56
10, 454678, End_track
11, 0, Start_track
11, 0, Title_t, "1V2"
11, 0, Program_c, 10, 50
11, 0, Control_c, 10, 7, 110
11, 0, Control_c, 10, 0, 0
11, 0, Control_c, 10, 32, 8
11, 0, Note_on_c, 10, 88, 108
11, 0, Control_c, 10, 91, 20
11, 0, Control_c, 10, 93, 30
11, 0, Control_c, 10, 10, 18
11, 3, Note_on_c, 10, 76, 108
11, 182, Note_off_c, 10, 88, 64
11, 185, Note_off_c, 10, 76, 64
11, 477, Note_on_c, 10, 64, 108
11, 483, Note_on_c, 10, 55, 108
11, 659, Note_off_c, 10, 64, 64
11, 665, Note_off_c, 10, 55, 64
11, 958, Note_on_c, 10, 55, 108
11, 962, Note_on_c, 10, 64, 108
11, 1140, Note_off_c, 10, 55, 64
11, 1144, Note_off_c, 10, 64, 64
11, 1679, Note_on_c, 10, 62, 108
11, 1681, Note_on_c, 10, 55, 108
11, 1770, Note_off_c, 10, 62, 56
11, 1772, Note_off_c, 10, 55, 56
11, 1919, Note_on_c, 10, 64, 108
11, 1921, Note_on_c, 10, 55, 108
11, 2010, Note_off_c, 10, 64, 56
11, 2012, Note_off_c, 10, 55, 56
11, 2159, Note_on_c, 10, 55, 108
11, 2159, Note_on_c, 10, 65, 108
11, 2250, Note_off_c, 10, 65, 56
11, 2250, Note_off_c, 10, 55, 56
11, 2400, Note_on_c, 10, 64, 108
11, 2401, Note_on_c, 10, 55, 108
11, 2491, Note_off_c, 10, 64, 56
11, 2492, Note_off_c, 10, 55, 56
11, 2639, Note_on_c, 10, 65, 108
11, 2640, Note_on_c, 10, 55, 108
11, 2730, Note_off_c, 10, 65, 56
11, 2731, Note_off_c, 10, 55, 56
11, 2878, Note_on_c, 10, 64, 108
11, 2883, Note_on_c, 10, 55, 108
11, 3060, Note_off_c, 10, 64, 64
11, 3065, Note_off_c, 10, 55, 64
11, 3601, Note_on_c, 10, 72, 108
11, 3737, Note_off_c, 10, 72, 64
11, 3780, Note_on_c, 10, 72, 113
11, 3825, Note_off_c, 10, 72, 56
11, 3839, Note_on_c, 10, 67, 108
11, 3843, Note_on_c, 10, 55, 108
11, 4021, Note_off_c, 10, 67, 64
11, 4025, Note_off_c, 10, 55, 64
11, 4562, Note_on_c, 10, 74, 108
11, 4698, Note_off_c, 10, 74, 64
11, 4740, Note_on_c, 10, 74, 113
11, 4785, Note_off_c, 10, 74, 56
11, 4798, Note_on_c, 10, 67, 108
11, 4798, Note_on_c, 10, 72, 108
11, 4799, Note_on_c, 10, 60, 108
11, 4980, Note_off_c, 10, 72, 64
11, 4980, Note_off_c, 10, 67, 64
11, 4981, Note_off_c, 10, 60, 64
11, 5401, Note_on_c, 10, 72, 108
11, 5469, Note_off_c, 10, 72, 56
11, 5521, Note_on_c, 10, 74, 108
11, 5589, Note_off_c, 10, 74, 56
11, 5639, Note_on_c, 10, 76, 108
11, 5707, Note_off_c, 10, 76, 56
11, 5759, Note_on_c, 10, 77, 108
11, 5827, Note_off_c, 10, 77, 56
11, 5880, Note_on_c, 10, 76, 108
11, 5948, Note_off_c, 10, 76, 56
11, 5999, Note_on_c, 10, 77, 108
11, 6067, Note_off_c, 10, 77, 56
11, 6119, Note_on_c, 10, 79, 108
11, 6187, Note_off_c, 10, 79, 56
11, 6241, Note_on_c, 10, 81, 108
11, 6309, Note_off_c, 10, 81, 56
11, 6359, Note_on_c, 10, 79, 108
11, 6427, Note_off_c, 10, 79, 56
11, 6481, Note_on_c, 10, 81, 108
11, 6549, Note_off_c, 10, 81, 56
11, 6601, Note_on_c, 10, 83, 108
11, 6669, Note_off_c, 10, 83, 56
11, 6719, Note_on_c, 10, 84, 108
11, 7295, Note_off_c, 10, 84, 64
11, 7319, Note_on_c, 10, 72, 108
11, 7387, Note_off_c, 10, 72, 56
11, 7439, Note_on_c, 10, 74, 108
11, 7507, Note_off_c, 10, 74, 56
11, 7560, Note_on_c, 10, 76, 108
11, 7628, Note_off_c, 10, 76, 56
11, 7681, Note_on_c, 10, 77, 108
11, 7749, Note_off_c, 10, 77, 56
11, 7800, Note_on_c, 10, 76, 108
11, 7868, Note_off_c, 10, 76, 56
11, 7921, Note_on_c, 10, 77, 108
11, 7989, Note_off_c, 10, 77, 56
11, 8041, Note_on_c, 10, 79, 108
11, 8109, Note_off_c, 10, 79, 56
11, 8159, Note_on_c, 10, 81, 108
11, 8227, Note_off_c, 10, 81, 56
11, 8279, Note_on_c, 10, 79, 108
11, 8347, Note_off_c, 10, 79, 56
11, 8399, Note_on_c, 10, 81, 108
11, 8467, Note_off_c, 10, 81, 56
11, 8521, Note_on_c, 10, 83, 108
11, 8589, Note_off_c, 10, 83, 56
11, 8643, Note_on_c, 10, 84, 108
11, 9219, Note_off_c, 10, 84, 64
11, 9240, Note_on_c, 10, 72, 108
11, 9308, Note_off_c, 10, 72, 56
11, 9359, Note_on_c, 10, 74, 108
11, 9427, Note_off_c, 10, 74, 56
11, 9481, Note_on_c, 10, 76, 108
11, 9549, Note_off_c, 10, 76, 56
11, 9600, Note_on_c, 10, 79, 113
11, 9617, Note_off_c, 10, 79, 56
11, 9631, Note_on_c, 10, 77, 113
11, 9682, Note_off_c, 10, 77, 56
11, 9721, Note_on_c, 10, 76, 108
11, 9789, Note_off_c, 10, 76, 56
11, 9841, Note_on_c, 10, 77, 108
11, 9909, Note_off_c, 10, 77, 56
11, 9960, Note_on_c, 10, 79, 108
11, 10028, Note_off_c, 10, 79, 56
11, 10080, Note_on_c, 10, 83, 113
11, 10097, Note_off_c, 10, 83, 56
11, 10109, Note_on_c, 10, 81, 113
11, 10160, Note_off_c, 10, 81, 56
11, 10201, Note_on_c, 10, 79, 108
11, 10269, Note_off_c, 10, 79, 56
11, 10321, Note_on_c, 10, 81, 108
11, 10389, Note_off_c, 10, 81, 56
11, 10439, Note_on_c, 10, 83, 108
11, 10507, Note_off_c, 10, 83, 56
11, 10560, Note_on_c, 10, 86, 113
11, 10582, Note_off_c, 10, 86, 56
11, 10591, Note_on_c, 10, 84, 108
11, 10659, Note_off_c, 10, 84, 56
11, 10679, Note_on_c, 10, 83, 108
11, 10770, Note_off_c, 10, 83, 56
11, 10799, Note_on_c, 10, 84, 108
11, 10890, Note_off_c, 10, 84, 56
11, 10920, Note_on_c, 10, 86, 108
11, 11011, Note_off_c, 10, 86, 56
11, 11041, Note_on_c, 10, 88, 108
11, 11223, Note_off_c, 10, 88, 64
11, 11281, Note_on_c, 10, 79, 108
11, 11372, Note_off_c, 10, 79, 56
11, 11460, Note_on_c, 10, 88, 113
11, 11505, Note_off_c, 10, 88, 56
11, 11519, Note_on_c, 10, 88, 108
11, 11627, Note_off_c, 10, 88, 56
11, 11639, Note_on_c, 10, 86, 108
11, 11730, Note_off_c, 10, 86, 56
11, 11759, Note_on_c, 10, 77, 108
11, 11850, Note_off_c, 10, 77, 56
11, 11940, Note_on_c, 10, 86, 113
11, 11985, Note_off_c, 10, 86, 56
11, 12002, Note_on_c, 10, 86, 108
11, 12110, Note_off_c, 10, 86, 56
11, 12120, Note_on_c, 10, 84, 108
11, 12211, Note_off_c, 10, 84, 56
11, 12239, Note_on_c, 10, 76, 108
11, 12330, Note_off_c, 10, 76, 56
11, 12420, Note_on_c, 10, 84, 113
11, 12465, Note_off_c, 10, 84, 56
11, 12481, Note_on_c, 10, 84, 108
11, 12589, Note_off_c, 10, 84, 56
11, 12601, Note_on_c, 10, 83, 108
11, 12692, Note_off_c, 10, 83, 56
11, 12722, Note_on_c, 10, 83, 108
11, 13106, Note_off_c, 10, 83, 64
11, 13200, Note_on_c, 10, 84, 108
11, 13291, Note_off_c, 10, 84, 56
11, 13380, Note_on_c, 10, 88, 113
11, 13425, Note_off_c, 10, 88, 56
11, 13441, Note_on_c, 10, 88, 108
11, 13549, Note_off_c, 10, 88, 56
11, 13559, Note_on_c, 10, 86, 108
11, 13650, Note_off_c, 10, 86, 56
11, 13680, Note_on_c, 10, 77, 108
11, 13771, Note_off_c, 10, 77, 56
11, 13860, Note_on_c, 10, 86, 113
11, 13905, Note_off_c, 10, 86, 56
11, 13922, Note_on_c, 10, 86, 108
11, 14030, Note_off_c, 10, 86, 56
11, 14039, Note_on_c, 10, 84, 108
11, 14130, Note_off_c, 10, 84, 56
11, 14159, Note_on_c, 10, 76, 108
11, 14250, Note_off_c, 10, 76, 56
11, 14340, Note_on_c, 10, 84, 113
11, 14385, Note_off_c, 10, 84, 56
11, 14398, Note_on_c, 10, 84, 108
11, 14506, Note_off_c, 10, 84, 56
11, 14520, Note_on_c, 10, 83, 108
11, 14611, Note_off_c, 10, 83, 56
11, 14640, Note_on_c, 10, 83, 108
11, 15024, Note_off_c, 10, 83, 64
11, 15120, Note_on_c, 10, 84, 108
11, 15188, Note_off_c, 10, 84, 56
11, 15300, Note_on_c, 10, 88, 113
11, 15334, Note_off_c, 10, 88, 56
11, 15359, Note_on_c, 10, 88, 108
11, 15427, Note_off_c, 10, 88, 56
11, 15540, Note_on_c, 10, 86, 113
11, 15574, Note_off_c, 10, 86, 56
11, 15601, Note_on_c, 10, 77, 108
11, 15669, Note_off_c, 10, 77, 56
11, 15780, Note_on_c, 10, 86, 113
11, 15814, Note_off_c, 10, 86, 56
11, 15841, Note_on_c, 10, 86, 108
11, 15909, Note_off_c, 10, 86, 56
11, 16020, Note_on_c, 10, 84, 113
11, 16054, Note_off_c, 10, 84, 56
11, 16140, Note_on_c, 10, 76, 113
11, 16174, Note_off_c, 10, 76, 56
11, 16260, Note_on_c, 10, 84, 113
11, 16294, Note_off_c, 10, 84, 56
11, 16320, Note_on_c, 10, 83, 108
11, 16388, Note_off_c, 10, 83, 56
11, 16500, Note_on_c, 10, 74, 113
11, 16545, Note_off_c, 10, 74, 56
11, 16559, Note_on_c, 10, 79, 108
11, 16943, Note_off_c, 10, 79, 64
11, 17041, Note_on_c, 10, 81, 113
11, 17095, Note_off_c, 10, 81, 56
11, 17101, Note_on_c, 10, 79, 113
11, 17155, Note_off_c, 10, 79, 56
11, 17159, Note_on_c, 10, 77, 113
11, 17213, Note_off_c, 10, 77, 56
11, 17221, Note_on_c, 10, 76, 113
11, 17275, Note_off_c, 10, 76, 56
11, 17280, Note_on_c, 10, 74, 108
11, 17371, Note_off_c, 10, 74, 56
11, 17460, Note_on_c, 10, 74, 113
11, 17505, Note_off_c, 10, 74, 56
11, 17519, Note_on_c, 10, 79, 108
11, 17903, Note_off_c, 10, 79, 64
11, 17999, Note_on_c, 10, 81, 113
11, 18053, Note_off_c, 10, 81, 56
11, 18059, Note_on_c, 10, 79, 113
11, 18113, Note_off_c, 10, 79, 56
11, 18120, Note_on_c, 10, 77, 113
11, 18174, Note_off_c, 10, 77, 56
11, 18181, Note_on_c, 10, 76, 113
11, 18235, Note_off_c, 10, 76, 56
11, 18241, Note_on_c, 10, 74, 108
11, 18332, Note_off_c, 10, 74, 56
11, 18420, Note_on_c, 10, 79, 113
11, 18465, Note_off_c, 10, 79, 56
11, 18480, Note_on_c, 10, 81, 113
11, 18534, Note_off_c, 10, 81, 56
11, 18539, Note_on_c, 10, 79, 113
11, 18593, Note_off_c, 10, 79, 56
11, 18600, Note_on_c, 10, 77, 113
11, 18654, Note_off_c, 10, 77, 56
11, 18660, Note_on_c, 10, 76, 113
11, 18714, Note_off_c, 10, 76, 56
11, 18718, Note_on_c, 10, 74, 108
11, 18826, Note_off_c, 10, 74, 56
11, 18900, Note_on_c, 10, 79, 113
11, 18945, Note_off_c, 10, 79, 56
11, 18959, Note_on_c, 10, 81, 113
11, 19013, Note_off_c, 10, 81, 56
11, 19021, Note_on_c, 10, 79, 113
11, 19075, Note_off_c, 10, 79, 56
11, 19081, Note_on_c, 10, 77, 113
11, 19135, Note_off_c, 10, 77, 56
11, 19140, Note_on_c, 10, 76, 113
11, 19194, Note_off_c, 10, 76, 56
11, 19199, Note_on_c, 10, 74, 108
11, 19290, Note_off_c, 10, 74, 56
11, 19380, Note_on_c, 10, 79, 113
11, 19425, Note_off_c, 10, 79, 56
11, 19441, Note_on_c, 10, 81, 113
11, 19495, Note_off_c, 10, 81, 56
11, 19499, Note_on_c, 10, 79, 113
11, 19553, Note_off_c, 10, 79, 56
11, 19560, Note_on_c, 10, 77, 113
11, 19614, Note_off_c, 10, 77, 56
11, 19619, Note_on_c, 10, 76, 113
11, 19673, Note_off_c, 10, 76, 56
11, 19682, Note_on_c, 10, 74, 108
11, 19790, Note_off_c, 10, 74, 56
11, 19860, Note_on_c, 10, 79, 113
11, 19905, Note_off_c, 10, 79, 56
11, 19920, Note_on_c, 10, 81, 113
11, 19974, Note_off_c, 10, 81, 56
11, 19981, Note_on_c, 10, 79, 113
11, 20035, Note_off_c, 10, 79, 56
11, 20040, Note_on_c, 10, 77, 113
11, 20094, Note_off_c, 10, 77, 56
11, 20100, Note_on_c, 10, 76, 113
11, 20154, Note_off_c, 10, 76, 56
11, 20160, Note_on_c, 10, 74, 108
11, 20228, Note_off_c, 10, 74, 56
11, 20278, Note_on_c, 10, 79, 108
11, 20386, Note_off_c, 10, 79, 56
11, 20399, Note_on_c, 10, 77, 108
11, 20490, Note_off_c, 10, 77, 56
11, 20520, Note_on_c, 10, 76, 108
11, 20588, Note_off_c, 10, 76, 56
11, 20641, Note_on_c, 10, 74, 108
11, 20709, Note_off_c, 10, 74, 56
11, 20761, Note_on_c, 10, 76, 108
11, 20869, Note_off_c, 10, 76, 56
11, 20879, Note_on_c, 10, 74, 108
11, 20970, Note_off_c, 10, 74, 56
11, 20999, Note_on_c, 10, 72, 108
11, 21067, Note_off_c, 10, 72, 56
11, 21120, Note_on_c, 10, 71, 108
11, 21188, Note_off_c, 10, 71, 56
11, 21241, Note_on_c, 10, 76, 108
11, 21349, Note_off_c, 10, 76, 56
11, 21360, Note_on_c, 10, 74, 108
11, 21451, Note_off_c, 10, 74, 56
11, 21479, Note_on_c, 10, 72, 108
11, 21547, Note_off_c, 10, 72, 56
11, 21600, Note_on_c, 10, 71, 108
11, 21668, Note_off_c, 10, 71, 56
11, 21719, Note_on_c, 10, 72, 108
11, 21827, Note_off_c, 10, 72, 56
11, 21839, Note_on_c, 10, 71, 108
11, 21930, Note_off_c, 10, 71, 56
11, 21961, Note_on_c, 10, 69, 108
11, 22029, Note_off_c, 10, 69, 56
11, 22081, Note_on_c, 10, 67, 108
11, 22149, Note_off_c, 10, 67, 56
11, 22201, Note_on_c, 10, 72, 108
11, 22309, Note_off_c, 10, 72, 56
11, 22319, Note_on_c, 10, 71, 108
11, 22410, Note_off_c, 10, 71, 56
11, 22440, Note_on_c, 10, 69, 108
11, 22508, Note_off_c, 10, 69, 56
11, 22560, Note_on_c, 10, 67, 108
11, 22628, Note_off_c, 10, 67, 56
11, 22678, Note_on_c, 10, 72, 108
11, 22786, Note_off_c, 10, 72, 56
11, 22801, Note_on_c, 10, 71, 108
11, 22892, Note_off_c, 10, 71, 56
11, 22919, Note_on_c, 10, 69, 108
11, 22987, Note_off_c, 10, 69, 56
11, 23039, Note_on_c, 10, 67, 108
11, 23107, Note_off_c, 10, 67, 56
11, 23158, Note_on_c, 10, 72, 108
11, 23266, Note_off_c, 10, 72, 56
11, 23280, Note_on_c, 10, 71, 108
11, 23371, Note_off_c, 10, 71, 56
11, 23401, Note_on_c, 10, 69, 108
11, 23492, Note_off_c, 10, 69, 56
11, 23521, Note_on_c, 10, 67, 108
11, 23589, Note_off_c, 10, 67, 56
11, 23640, Note_on_c, 10, 65, 108
11, 23708, Note_off_c, 10, 65, 56
11, 23759, Note_on_c, 10, 64, 108
11, 23827, Note_off_c, 10, 64, 56
11, 23879, Note_on_c, 10, 62, 108
11, 23947, Note_off_c, 10, 62, 56
11, 24001, Note_on_c, 10, 60, 108
11, 24183, Note_off_c, 10, 60, 64
11, 25922, Note_on_c, 10, 55, 108
11, 26104, Note_off_c, 10, 55, 64
11, 26397, Note_on_c, 10, 55, 108
11, 26579, Note_off_c, 10, 55, 64
11, 26880, Note_on_c, 10, 55, 108
11, 27062, Note_off_c, 10, 55, 64
11, 27362, Note_on_c, 10, 55, 108
11, 27544, Note_off_c, 10, 55, 64
11, 27837, Note_on_c, 10, 55, 108
11, 28019, Note_off_c, 10, 55, 64
11, 29759, Note_on_c, 10, 55, 108
11, 29759, Note_on_c, 10, 64, 108
11, 29941, Note_off_c, 10, 64, 64
11, 29941, Note_off_c, 10, 55, 64
11, 30239, Note_on_c, 10, 64, 108
11, 30242, Note_on_c, 10, 55, 108
11, 30421, Note_off_c, 10, 64, 64
11, 30424, Note_off_c, 10, 55, 64
11, 30720, Note_on_c, 10, 55, 108
11, 30723, Note_on_c, 10, 64, 108
11, 30902, Note_off_c, 10, 55, 64
11, 30905, Note_off_c, 10, 64, 64
11, 31197, Note_on_c, 10, 55, 108
11, 31203, Note_on_c, 10, 64, 108
11, 31379, Note_off_c, 10, 55, 64
11, 31385, Note_off_c, 10, 64, 64
11, 31680, Note_on_c, 10, 64, 108
11, 31681, Note_on_c, 10, 72, 108
11, 31862, Note_off_c, 10, 64, 64
11, 31863, Note_off_c, 10, 72, 64
11, 32398, Note_on_c, 10, 72, 108
11, 32614, Note_off_c, 10, 72, 64
11, 32637, Note_on_c, 10, 76, 108
11, 32853, Note_off_c, 10, 76, 64
11, 32877, Note_on_c, 10, 72, 108
11, 33093, Note_off_c, 10, 72, 64
11, 33121, Note_on_c, 10, 79, 108
11, 33337, Note_off_c, 10, 79, 64
11, 33359, Note_on_c, 10, 78, 108
11, 33521, Note_off_c, 10, 78, 64
11, 33540, Note_on_c, 10, 76, 113
11, 33585, Note_off_c, 10, 76, 56
11, 33599, Note_on_c, 10, 78, 108
11, 34175, Note_off_c, 10, 78, 64
11, 34321, Note_on_c, 10, 72, 108
11, 34537, Note_off_c, 10, 72, 64
11, 34563, Note_on_c, 10, 78, 108
11, 34779, Note_off_c, 10, 78, 64
11, 34797, Note_on_c, 10, 72, 108
11, 35013, Note_off_c, 10, 72, 64
11, 35042, Note_on_c, 10, 81, 108
11, 35258, Note_off_c, 10, 81, 64
11, 35280, Note_on_c, 10, 79, 108
11, 35442, Note_off_c, 10, 79, 64
11, 35460, Note_on_c, 10, 78, 113
11, 35505, Note_off_c, 10, 78, 56
11, 35519, Note_on_c, 10, 79, 108
11, 35735, Note_off_c, 10, 79, 64
11, 35761, Note_on_c, 10, 74, 108
11, 35977, Note_off_c, 10, 74, 64
11, 36002, Note_on_c, 10, 83, 108
11, 36218, Note_off_c, 10, 83, 64
11, 36238, Note_on_c, 10, 81, 108
11, 36400, Note_off_c, 10, 81, 64
11, 36420, Note_on_c, 10, 79, 113
11, 36474, Note_off_c, 10, 79, 56
11, 36483, Note_on_c, 10, 78, 108
11, 36771, Note_off_c, 10, 78, 64
11, 36841, Note_on_c, 10, 74, 108
11, 36932, Note_off_c, 10, 74, 56
11, 36959, Note_on_c, 10, 81, 108
11, 37301, Note_off_c, 10, 81, 64
11, 37320, Note_on_c, 10, 79, 113
11, 37374, Note_off_c, 10, 79, 56
11, 37381, Note_on_c, 10, 78, 113
11, 37435, Note_off_c, 10, 78, 56
11, 37437, Note_on_c, 10, 79, 108
11, 37725, Note_off_c, 10, 79, 64
11, 37801, Note_on_c, 10, 74, 108
11, 37892, Note_off_c, 10, 74, 56
11, 37922, Note_on_c, 10, 83, 108
11, 38264, Note_off_c, 10, 83, 64
11, 38281, Note_on_c, 10, 81, 113
11, 38335, Note_off_c, 10, 81, 56
11, 38340, Note_on_c, 10, 79, 113
11, 38385, Note_off_c, 10, 79, 56
11, 38398, Note_on_c, 10, 86, 108
11, 38974, Note_off_c, 10, 86, 64
11, 39000, Note_on_c, 10, 86, 108
11, 39108, Note_off_c, 10, 86, 56
11, 39121, Note_on_c, 10, 84, 108
11, 39212, Note_off_c, 10, 84, 56
11, 39241, Note_on_c, 10, 83, 108
11, 39309, Note_off_c, 10, 83, 56
11, 39360, Note_on_c, 10, 81, 108
11, 39428, Note_off_c, 10, 81, 56
11, 39480, Note_on_c, 10, 83, 108
11, 39588, Note_off_c, 10, 83, 56
11, 39599, Note_on_c, 10, 81, 108
11, 39690, Note_off_c, 10, 81, 56
11, 39719, Note_on_c, 10, 79, 108
11, 39787, Note_off_c, 10, 79, 56
11, 39840, Note_on_c, 10, 78, 108
11, 39908, Note_off_c, 10, 78, 56
11, 39958, Note_on_c, 10, 74, 108
11, 40066, Note_off_c, 10, 74, 56
11, 40081, Note_on_c, 10, 73, 108
11, 40189, Note_off_c, 10, 73, 56
11, 40201, Note_on_c, 10, 79, 108
11, 40269, Note_off_c, 10, 79, 56
11, 40319, Note_on_c, 10, 78, 108
11, 40410, Note_off_c, 10, 78, 56
11, 40921, Note_on_c, 10, 62, 108
11, 41029, Note_off_c, 10, 62, 56
11, 41041, Note_on_c, 10, 61, 108
11, 41149, Note_off_c, 10, 61, 56
11, 41160, Note_on_c, 10, 67, 108
11, 41251, Note_off_c, 10, 67, 56
11, 41279, Note_on_c, 10, 66, 108
11, 41370, Note_off_c, 10, 66, 56
11, 42000, Note_on_c, 10, 69, 108
11, 42072, Note_off_c, 10, 69, 56
11, 42081, Note_on_c, 10, 71, 108
11, 42153, Note_off_c, 10, 71, 56
11, 42160, Note_on_c, 10, 72, 113
11, 42220, Note_off_c, 10, 72, 56
11, 42240, Note_on_c, 10, 74, 108
11, 42422, Note_off_c, 10, 74, 64
11, 42480, Note_on_c, 10, 71, 108
11, 42552, Note_off_c, 10, 71, 56
11, 42561, Note_on_c, 10, 72, 108
11, 42633, Note_off_c, 10, 72, 56
11, 42639, Note_on_c, 10, 74, 108
11, 42711, Note_off_c, 10, 74, 56
11, 42720, Note_on_c, 10, 76, 108
11, 42902, Note_off_c, 10, 76, 64
11, 42960, Note_on_c, 10, 76, 108
11, 43032, Note_off_c, 10, 76, 56
11, 43041, Note_on_c, 10, 78, 108
11, 43113, Note_off_c, 10, 78, 56
11, 43121, Note_on_c, 10, 79, 113
11, 43181, Note_off_c, 10, 79, 56
11, 43197, Note_on_c, 10, 74, 108
11, 43773, Note_off_c, 10, 74, 64
11, 43921, Note_on_c, 10, 74, 73
11, 43993, Note_off_c, 10, 74, 56
11, 44000, Note_on_c, 10, 72, 73
11, 44072, Note_off_c, 10, 72, 56
11, 44080, Note_on_c, 10, 71, 78
11, 44140, Note_off_c, 10, 71, 56
11, 44158, Note_on_c, 10, 69, 73
11, 44374, Note_off_c, 10, 69, 64
11, 44400, Note_on_c, 10, 72, 73
11, 44472, Note_off_c, 10, 72, 56
11, 44480, Note_on_c, 10, 71, 73
11, 44552, Note_off_c, 10, 71, 56
11, 44559, Note_on_c, 10, 69, 73
11, 44631, Note_off_c, 10, 69, 56
11, 44643, Note_on_c, 10, 67, 73
11, 44859, Note_off_c, 10, 67, 64
11, 44879, Note_on_c, 10, 71, 73
11, 44951, Note_off_c, 10, 71, 56
11, 44959, Note_on_c, 10, 69, 73
11, 45031, Note_off_c, 10, 69, 56
11, 45039, Note_on_c, 10, 67, 73
11, 45111, Note_off_c, 10, 67, 56
11, 45122, Note_on_c, 10, 66, 73
11, 45304, Note_off_c, 10, 66, 64
11, 45361, Note_on_c, 10, 66, 80
11, 45433, Note_off_c, 10, 66, 56
11, 45441, Note_on_c, 10, 67, 82
11, 45513, Note_off_c, 10, 67, 56
11, 45520, Note_on_c, 10, 69, 90
11, 45580, Note_off_c, 10, 69, 56
11, 45601, Note_on_c, 10, 62, 87
11, 45783, Note_off_c, 10, 62, 64
11, 45840, Note_on_c, 10, 60, 95
11, 45900, Note_off_c, 10, 60, 56
11, 45921, Note_on_c, 10, 59, 95
11, 45981, Note_off_c, 10, 59, 56
11, 46001, Note_on_c, 10, 57, 95
11, 46061, Note_off_c, 10, 57, 56
11, 46077, Note_on_c, 10, 62, 90
11, 46078, Note_on_c, 10, 55, 90
11, 46259, Note_off_c, 10, 62, 64
11, 46260, Note_off_c, 10, 55, 64
11, 46559, Note_on_c, 10, 55, 90
11, 46560, Note_on_c, 10, 62, 90
11, 46741, Note_off_c, 10, 55, 64
11, 46742, Note_off_c, 10, 62, 64
11, 47038, Note_on_c, 10, 55, 90
11, 47042, Note_on_c, 10, 62, 90
11, 47220, Note_off_c, 10, 55, 64
11, 47224, Note_off_c, 10, 62, 64
11, 47279, Note_on_c, 10, 62, 95
11, 47339, Note_off_c, 10, 62, 56
11, 47360, Note_on_c, 10, 64, 95
11, 47420, Note_off_c, 10, 64, 56
11, 47439, Note_on_c, 10, 66, 95
11, 47499, Note_off_c, 10, 66, 56
11, 47522, Note_on_c, 10, 67, 90
11, 47704, Note_off_c, 10, 67, 64
11, 47760, Note_on_c, 10, 74, 73
11, 47832, Note_off_c, 10, 74, 56
11, 47840, Note_on_c, 10, 72, 73
11, 47912, Note_off_c, 10, 72, 56
11, 47921, Note_on_c, 10, 71, 73
11, 47993, Note_off_c, 10, 71, 56
11, 47998, Note_on_c, 10, 69, 73
11, 48214, Note_off_c, 10, 69, 64
11, 48241, Note_on_c, 10, 72, 73
11, 48313, Note_off_c, 10, 72, 56
11, 48321, Note_on_c, 10, 71, 73
11, 48393, Note_off_c, 10, 71, 56
11, 48401, Note_on_c, 10, 69, 73
11, 48473, Note_off_c, 10, 69, 56
11, 48483, Note_on_c, 10, 67, 73
11, 48699, Note_off_c, 10, 67, 64
11, 48720, Note_on_c, 10, 71, 73
11, 48792, Note_off_c, 10, 71, 56
11, 48801, Note_on_c, 10, 69, 73
11, 48873, Note_off_c, 10, 69, 56
11, 48879, Note_on_c, 10, 67, 73
11, 48951, Note_off_c, 10, 67, 56
11, 48960, Note_on_c, 10, 66, 73
11, 49142, Note_off_c, 10, 66, 64
11, 49679, Note_on_c, 10, 76, 73
11, 49751, Note_off_c, 10, 76, 56
11, 49761, Note_on_c, 10, 74, 73
11, 49833, Note_off_c, 10, 74, 56
11, 49840, Note_on_c, 10, 72, 73
11, 49912, Note_off_c, 10, 72, 56
11, 49923, Note_on_c, 10, 71, 73
11, 50139, Note_off_c, 10, 71, 64
11, 50159, Note_on_c, 10, 74, 73
11, 50231, Note_off_c, 10, 74, 56
11, 50241, Note_on_c, 10, 72, 73
11, 50313, Note_off_c, 10, 72, 56
11, 50321, Note_on_c, 10, 71, 73
11, 50393, Note_off_c, 10, 71, 56
11, 50397, Note_on_c, 10, 69, 73
11, 50613, Note_off_c, 10, 69, 64
11, 50641, Note_on_c, 10, 72, 73
11, 50713, Note_off_c, 10, 72, 56
11, 50721, Note_on_c, 10, 71, 73
11, 50793, Note_off_c, 10, 71, 56
11, 50801, Note_on_c, 10, 69, 73
11, 50873, Note_off_c, 10, 69, 56
11, 50882, Note_on_c, 10, 68, 73
11, 51064, Note_off_c, 10, 68, 64
11, 51120, Note_on_c, 10, 64, 95
11, 51180, Note_off_c, 10, 64, 56
11, 51199, Note_on_c, 10, 66, 95
11, 51259, Note_off_c, 10, 66, 56
11, 51280, Note_on_c, 10, 68, 95
11, 51340, Note_off_c, 10, 68, 56
11, 51357, Note_on_c, 10, 69, 90
11, 51539, Note_off_c, 10, 69, 64
11, 51599, Note_on_c, 10, 79, 56
11, 51671, Note_off_c, 10, 79, 56
11, 51680, Note_on_c, 10, 77, 56
11, 51752, Note_off_c, 10, 77, 56
11, 51760, Note_on_c, 10, 76, 56
11, 51832, Note_off_c, 10, 76, 56
11, 51840, Note_on_c, 10, 74, 56
11, 52056, Note_off_c, 10, 74, 64
11, 52080, Note_on_c, 10, 77, 56
11, 52152, Note_off_c, 10, 77, 56
11, 52160, Note_on_c, 10, 76, 56
11, 52232, Note_off_c, 10, 76, 56
11, 52240, Note_on_c, 10, 74, 56
11, 52312, Note_off_c, 10, 74, 56
11, 52319, Note_on_c, 10, 72, 56
11, 52535, Note_off_c, 10, 72, 64
11, 52561, Note_on_c, 10, 76, 56
11, 52633, Note_off_c, 10, 76, 56
11, 52640, Note_on_c, 10, 74, 56
11, 52712, Note_off_c, 10, 74, 56
11, 52721, Note_on_c, 10, 72, 56
11, 52793, Note_off_c, 10, 72, 56
11, 52800, Note_on_c, 10, 71, 61
11, 52824, Control_c, 10, 7, 120
11, 52824, Program_c, 10, 44
11, 52845, Note_off_c, 10, 71, 56
11, 52860, Note_on_c, 10, 74, 62
11, 52905, Note_off_c, 10, 74, 56
11, 52920, Note_on_c, 10, 74, 64
11, 52965, Note_off_c, 10, 74, 56
11, 52980, Note_on_c, 10, 74, 65
11, 53025, Note_off_c, 10, 74, 56
11, 53040, Note_on_c, 10, 74, 67
11, 53085, Note_off_c, 10, 74, 56
11, 53100, Note_on_c, 10, 74, 69
11, 53145, Note_off_c, 10, 74, 56
11, 53160, Note_on_c, 10, 74, 70
11, 53205, Note_off_c, 10, 74, 56
11, 53220, Note_on_c, 10, 74, 72
11, 53265, Note_off_c, 10, 74, 56
11, 53280, Note_on_c, 10, 74, 74
11, 53325, Note_off_c, 10, 74, 56
11, 53340, Note_on_c, 10, 74, 75
11, 53385, Note_off_c, 10, 74, 56
11, 53400, Note_on_c, 10, 74, 77
11, 53445, Note_off_c, 10, 74, 56
11, 53460, Note_on_c, 10, 74, 78
11, 53505, Note_off_c, 10, 74, 56
11, 53520, Note_on_c, 10, 74, 80
11, 53565, Note_off_c, 10, 74, 56
11, 53580, Note_on_c, 10, 74, 82
11, 53625, Note_off_c, 10, 74, 56
11, 53640, Note_on_c, 10, 74, 83
11, 53685, Note_off_c, 10, 74, 56
11, 53700, Note_on_c, 10, 74, 85
11, 53745, Note_off_c, 10, 74, 56
11, 53760, Note_on_c, 10, 75, 86
11, 53805, Note_off_c, 10, 75, 56
11, 53820, Note_on_c, 10, 75, 88
11, 53865, Note_off_c, 10, 75, 56
11, 53880, Note_on_c, 10, 75, 90
11, 53925, Note_off_c, 10, 75, 56
11, 53940, Note_on_c, 10, 75, 91
11, 53985, Note_off_c, 10, 75, 56
11, 54000, Note_on_c, 10, 75, 93
11, 54045, Note_off_c, 10, 75, 56
11, 54060, Note_on_c, 10, 75, 94
11, 54105, Note_off_c, 10, 75, 56
11, 54120, Note_on_c, 10, 75, 97
11, 54165, Note_off_c, 10, 75, 56
11, 54180, Note_on_c, 10, 75, 98
11, 54225, Note_off_c, 10, 75, 56
11, 54240, Note_on_c, 10, 75, 99
11, 54285, Note_off_c, 10, 75, 56
11, 54300, Note_on_c, 10, 75, 101
11, 54345, Note_off_c, 10, 75, 56
11, 54360, Note_on_c, 10, 75, 102
11, 54405, Note_off_c, 10, 75, 56
11, 54420, Note_on_c, 10, 75, 105
11, 54465, Note_off_c, 10, 75, 56
11, 54480, Note_on_c, 10, 75, 106
11, 54525, Note_off_c, 10, 75, 56
11, 54540, Note_on_c, 10, 75, 108
11, 54585, Note_off_c, 10, 75, 56
11, 54600, Note_on_c, 10, 75, 109
11, 54645, Note_off_c, 10, 75, 56
11, 54660, Note_on_c, 10, 75, 110
11, 54705, Note_off_c, 10, 75, 56
11, 54720, Note_on_c, 10, 76, 113
11, 54765, Note_off_c, 10, 76, 56
11, 54780, Note_on_c, 10, 76, 113
11, 54825, Note_off_c, 10, 76, 56
11, 54840, Note_on_c, 10, 76, 113
11, 54885, Note_off_c, 10, 76, 56
11, 54900, Note_on_c, 10, 76, 113
11, 54945, Note_off_c, 10, 76, 56
11, 54960, Note_on_c, 10, 76, 113
11, 55005, Note_off_c, 10, 76, 56
11, 55020, Note_on_c, 10, 76, 113
11, 55065, Note_off_c, 10, 76, 56
11, 55080, Note_on_c, 10, 76, 113
11, 55125, Note_off_c, 10, 76, 56
11, 55140, Note_on_c, 10, 76, 113
11, 55185, Note_off_c, 10, 76, 56
11, 55188, Control_c, 10, 7, 100
11, 55188, Control_c, 10, 0, 0
11, 55188, Control_c, 10, 32, 8
11, 55188, Program_c, 10, 50
11, 55200, Note_on_c, 10, 76, 113
11, 55245, Note_off_c, 10, 76, 56
11, 55260, Note_on_c, 10, 60, 113
11, 55305, Note_off_c, 10, 60, 56
11, 55320, Note_on_c, 10, 62, 113
11, 55365, Note_off_c, 10, 62, 56
11, 55380, Note_on_c, 10, 64, 113
11, 55425, Note_off_c, 10, 64, 56
11, 55440, Note_on_c, 10, 65, 113
11, 55485, Note_off_c, 10, 65, 56
11, 55500, Note_on_c, 10, 67, 113
11, 55545, Note_off_c, 10, 67, 56
11, 55560, Note_on_c, 10, 69, 113
11, 55605, Note_off_c, 10, 69, 56
11, 55620, Note_on_c, 10, 71, 113
11, 55665, Note_off_c, 10, 71, 56
11, 55680, Note_on_c, 10, 72, 113
11, 55725, Note_off_c, 10, 72, 56
11, 55740, Note_on_c, 10, 64, 113
11, 55785, Note_off_c, 10, 64, 56
11, 55800, Note_on_c, 10, 65, 113
11, 55845, Note_off_c, 10, 65, 56
11, 55860, Note_on_c, 10, 67, 113
11, 55905, Note_off_c, 10, 67, 56
11, 55920, Note_on_c, 10, 69, 113
11, 55965, Note_off_c, 10, 69, 56
11, 55980, Note_on_c, 10, 71, 113
11, 56025, Note_off_c, 10, 71, 56
11, 56040, Note_on_c, 10, 72, 113
11, 56085, Note_off_c, 10, 72, 56
11, 56100, Note_on_c, 10, 74, 113
11, 56145, Note_off_c, 10, 74, 56
11, 56160, Note_on_c, 10, 76, 113
11, 56205, Note_off_c, 10, 76, 56
11, 56220, Note_on_c, 10, 72, 113
11, 56265, Note_off_c, 10, 72, 56
11, 56280, Note_on_c, 10, 74, 113
11, 56325, Note_off_c, 10, 74, 56
11, 56340, Note_on_c, 10, 76, 113
11, 56385, Note_off_c, 10, 76, 56
11, 56400, Note_on_c, 10, 77, 113
11, 56445, Note_off_c, 10, 77, 56
11, 56460, Note_on_c, 10, 79, 113
11, 56505, Note_off_c, 10, 79, 56
11, 56520, Note_on_c, 10, 81, 113
11, 56565, Note_off_c, 10, 81, 56
11, 56580, Note_on_c, 10, 83, 113
11, 56625, Note_off_c, 10, 83, 56
11, 56640, Note_on_c, 10, 84, 113
11, 56685, Note_off_c, 10, 84, 56
11, 56700, Note_on_c, 10, 86, 113
11, 56745, Note_off_c, 10, 86, 56
11, 56760, Note_on_c, 10, 88, 113
11, 56805, Note_off_c, 10, 88, 56
11, 56820, Note_on_c, 10, 89, 113
11, 56865, Note_off_c, 10, 89, 56
11, 56880, Note_on_c, 10, 91, 113
11, 56925, Note_off_c, 10, 91, 56
11, 56940, Note_on_c, 10, 91, 113
11, 56985, Note_off_c, 10, 91, 56
11, 57000, Note_on_c, 10, 91, 113
11, 57045, Note_off_c, 10, 91, 56
11, 57060, Note_on_c, 10, 91, 113
11, 57105, Note_off_c, 10, 91, 56
11, 57120, Note_on_c, 10, 91, 113
11, 57165, Note_off_c, 10, 91, 56
11, 57180, Note_on_c, 10, 91, 113
11, 57225, Note_off_c, 10, 91, 56
11, 57240, Note_on_c, 10, 91, 113
11, 57285, Note_off_c, 10, 91, 56
11, 57300, Note_on_c, 10, 91, 113
11, 57345, Note_off_c, 10, 91, 56
11, 57360, Note_on_c, 10, 91, 113
11, 57405, Note_off_c, 10, 91, 56
11, 57420, Note_on_c, 10, 91, 113
11, 57465, Note_off_c, 10, 91, 56
11, 57480, Note_on_c, 10, 91, 113
11, 57525, Note_off_c, 10, 91, 56
11, 57540, Note_on_c, 10, 91, 113
11, 57585, Note_off_c, 10, 91, 56
11, 57600, Note_on_c, 10, 91, 113
11, 57645, Note_off_c, 10, 91, 56
11, 57660, Note_on_c, 10, 91, 113
11, 57705, Note_off_c, 10, 91, 56
11, 57720, Note_on_c, 10, 90, 113
11, 57765, Note_off_c, 10, 90, 56
11, 57780, Note_on_c, 10, 88, 113
11, 57825, Note_off_c, 10, 88, 56
11, 57840, Note_on_c, 10, 86, 113
11, 57885, Note_off_c, 10, 86, 56
11, 57900, Note_on_c, 10, 84, 113
11, 57945, Note_off_c, 10, 84, 56
11, 57960, Note_on_c, 10, 83, 113
11, 58005, Note_off_c, 10, 83, 56
11, 58020, Note_on_c, 10, 81, 113
11, 58065, Note_off_c, 10, 81, 56
11, 58080, Note_on_c, 10, 79, 113
11, 58125, Note_off_c, 10, 79, 56
11, 58140, Note_on_c, 10, 78, 113
11, 58185, Note_off_c, 10, 78, 56
11, 58200, Note_on_c, 10, 76, 113
11, 58245, Note_off_c, 10, 76, 56
11, 58260, Note_on_c, 10, 74, 113
11, 58305, Note_off_c, 10, 74, 56
11, 58320, Note_on_c, 10, 72, 113
11, 58365, Note_off_c, 10, 72, 56
11, 58380, Note_on_c, 10, 71, 113
11, 58425, Note_off_c, 10, 71, 56
11, 58440, Note_on_c, 10, 69, 113
11, 58485, Note_off_c, 10, 69, 56
11, 58500, Note_on_c, 10, 67, 113
11, 58545, Note_off_c, 10, 67, 56
11, 58561, Note_on_c, 10, 72, 108
11, 58697, Note_off_c, 10, 72, 64
11, 59520, Note_on_c, 10, 62, 108
11, 59656, Note_off_c, 10, 62, 64
11, 62041, Note_on_c, 10, 74, 78
11, 62095, Note_off_c, 10, 74, 56
11, 62101, Note_on_c, 10, 76, 78
11, 62155, Note_off_c, 10, 76, 56
11, 62160, Note_on_c, 10, 78, 78
11, 62214, Note_off_c, 10, 78, 56
11, 62220, Note_on_c, 10, 79, 78
11, 62274, Note_off_c, 10, 79, 56
11, 62281, Note_on_c, 10, 81, 78
11, 62335, Note_off_c, 10, 81, 56
11, 62339, Note_on_c, 10, 78, 78
11, 62393, Note_off_c, 10, 78, 56
11, 62403, Note_on_c, 10, 79, 73
11, 62585, Note_off_c, 10, 79, 64
11, 63959, Note_on_c, 10, 74, 78
11, 64013, Note_off_c, 10, 74, 56
11, 64019, Note_on_c, 10, 76, 78
11, 64073, Note_off_c, 10, 76, 56
11, 64079, Note_on_c, 10, 78, 78
11, 64133, Note_off_c, 10, 78, 56
11, 64141, Note_on_c, 10, 79, 78
11, 64195, Note_off_c, 10, 79, 56
11, 64200, Note_on_c, 10, 81, 78
11, 64254, Note_off_c, 10, 81, 56
11, 64259, Note_on_c, 10, 83, 78
11, 64313, Note_off_c, 10, 83, 56
11, 64322, Note_on_c, 10, 84, 96
11, 64504, Note_off_c, 10, 84, 64
11, 65881, Note_on_c, 10, 80, 78
11, 65935, Note_off_c, 10, 80, 56
11, 65939, Note_on_c, 10, 81, 78
11, 65993, Note_off_c, 10, 81, 56
11, 66000, Note_on_c, 10, 83, 78
11, 66054, Note_off_c, 10, 83, 56
11, 66061, Note_on_c, 10, 84, 78
11, 66115, Note_off_c, 10, 84, 56
11, 66119, Note_on_c, 10, 86, 78
11, 66173, Note_off_c, 10, 86, 56
11, 66179, Note_on_c, 10, 83, 78
11, 66233, Note_off_c, 10, 83, 56
11, 66238, Note_on_c, 10, 88, 73
11, 66420, Note_off_c, 10, 88, 64
11, 66779, Note_on_c, 10, 76, 78
11, 66833, Note_off_c, 10, 76, 56
11, 66840, Note_on_c, 10, 78, 78
11, 66894, Note_off_c, 10, 78, 56
11, 66899, Note_on_c, 10, 80, 78
11, 66953, Note_off_c, 10, 80, 56
11, 66961, Note_on_c, 10, 81, 78
11, 67015, Note_off_c, 10, 81, 56
11, 67019, Note_on_c, 10, 83, 78
11, 67073, Note_off_c, 10, 83, 56
11, 67081, Note_on_c, 10, 84, 78
11, 67135, Note_off_c, 10, 84, 56
11, 67141, Note_on_c, 10, 81, 78
11, 67195, Note_off_c, 10, 81, 56
11, 67201, Note_on_c, 10, 86, 73
11, 67383, Note_off_c, 10, 86, 64
11, 67800, Note_on_c, 10, 69, 78
11, 67845, Note_off_c, 10, 69, 56
11, 67860, Note_on_c, 10, 71, 78
11, 67905, Note_off_c, 10, 71, 56
11, 67920, Note_on_c, 10, 72, 78
11, 67965, Note_off_c, 10, 72, 56
11, 67980, Note_on_c, 10, 74, 78
11, 68025, Note_off_c, 10, 74, 56
11, 68040, Note_on_c, 10, 76, 78
11, 68085, Note_off_c, 10, 76, 56
11, 68100, Note_on_c, 10, 78, 78
11, 68145, Note_off_c, 10, 78, 56
11, 68160, Note_on_c, 10, 79, 95
11, 68160, Control_c, 10, 7, 120
11, 68160, Program_c, 10, 44
11, 68205, Note_off_c, 10, 79, 56
11, 68220, Note_on_c, 10, 79, 95
11, 68265, Note_off_c, 10, 79, 56
11, 68280, Note_on_c, 10, 79, 95
11, 68325, Note_off_c, 10, 79, 56
11, 68340, Note_on_c, 10, 79, 95
11, 68385, Note_off_c, 10, 79, 56
11, 68400, Note_on_c, 10, 79, 95
11, 68445, Note_off_c, 10, 79, 56
11, 68460, Note_on_c, 10, 79, 95
11, 68505, Note_off_c, 10, 79, 56
11, 68520, Note_on_c, 10, 79, 95
11, 68565, Note_off_c, 10, 79, 56
11, 68580, Note_on_c, 10, 79, 95
11, 68625, Note_off_c, 10, 79, 56
11, 68640, Note_on_c, 10, 79, 95
11, 68685, Note_off_c, 10, 79, 56
11, 68700, Note_on_c, 10, 79, 95
11, 68745, Note_off_c, 10, 79, 56
11, 68760, Note_on_c, 10, 79, 95
11, 68805, Note_off_c, 10, 79, 56
11, 68820, Note_on_c, 10, 79, 95
11, 68865, Note_off_c, 10, 79, 56
11, 68880, Note_on_c, 10, 78, 95
11, 68925, Note_off_c, 10, 78, 56
11, 68940, Note_on_c, 10, 78, 95
11, 68985, Note_off_c, 10, 78, 56
11, 69000, Note_on_c, 10, 78, 95
11, 69045, Note_off_c, 10, 78, 56
11, 69060, Note_on_c, 10, 78, 95
11, 69105, Note_off_c, 10, 78, 56
11, 69120, Note_on_c, 10, 76, 95
11, 69165, Note_off_c, 10, 76, 56
11, 69180, Note_on_c, 10, 76, 95
11, 69225, Note_off_c, 10, 76, 56
11, 69240, Note_on_c, 10, 76, 95
11, 69285, Note_off_c, 10, 76, 56
11, 69300, Note_on_c, 10, 76, 95
11, 69345, Note_off_c, 10, 76, 56
11, 69360, Note_on_c, 10, 74, 95
11, 69405, Note_off_c, 10, 74, 56
11, 69420, Note_on_c, 10, 74, 95
11, 69465, Note_off_c, 10, 74, 56
11, 69480, Note_on_c, 10, 74, 95
11, 69525, Note_off_c, 10, 74, 56
11, 69540, Note_on_c, 10, 74, 95
11, 69585, Note_off_c, 10, 74, 56
11, 69600, Note_on_c, 10, 74, 95
11, 69645, Note_off_c, 10, 74, 56
11, 69660, Note_on_c, 10, 74, 95
11, 69705, Note_off_c, 10, 74, 56
11, 69720, Note_on_c, 10, 74, 95
11, 69765, Note_off_c, 10, 74, 56
11, 69780, Note_on_c, 10, 74, 95
11, 69825, Note_off_c, 10, 74, 56
11, 69840, Note_on_c, 10, 74, 95
11, 69885, Note_off_c, 10, 74, 56
11, 69900, Note_on_c, 10, 74, 95
11, 69945, Note_off_c, 10, 74, 56
11, 69960, Note_on_c, 10, 74, 95
11, 70005, Note_off_c, 10, 74, 56
11, 70020, Note_on_c, 10, 74, 95
11, 70065, Note_off_c, 10, 74, 56
11, 70080, Note_on_c, 10, 79, 95
11, 70125, Note_off_c, 10, 79, 56
11, 70140, Note_on_c, 10, 79, 95
11, 70185, Note_off_c, 10, 79, 56
11, 70200, Note_on_c, 10, 79, 95
11, 70245, Note_off_c, 10, 79, 56
11, 70260, Note_on_c, 10, 79, 95
11, 70305, Note_off_c, 10, 79, 56
11, 70320, Note_on_c, 10, 79, 95
11, 70365, Note_off_c, 10, 79, 56
11, 70380, Note_on_c, 10, 79, 95
11, 70425, Note_off_c, 10, 79, 56
11, 70440, Note_on_c, 10, 79, 95
11, 70485, Note_off_c, 10, 79, 56
11, 70500, Note_on_c, 10, 79, 95
11, 70545, Note_off_c, 10, 79, 56
11, 70560, Note_on_c, 10, 79, 95
11, 70605, Note_off_c, 10, 79, 56
11, 70620, Note_on_c, 10, 79, 95
11, 70665, Note_off_c, 10, 79, 56
11, 70680, Note_on_c, 10, 79, 95
11, 70725, Note_off_c, 10, 79, 56
11, 70740, Note_on_c, 10, 79, 95
11, 70785, Note_off_c, 10, 79, 56
11, 70800, Note_on_c, 10, 78, 95
11, 70845, Note_off_c, 10, 78, 56
11, 70860, Note_on_c, 10, 78, 95
11, 70905, Note_off_c, 10, 78, 56
11, 70920, Note_on_c, 10, 78, 95
11, 70965, Note_off_c, 10, 78, 56
11, 70980, Note_on_c, 10, 78, 95
11, 71025, Note_off_c, 10, 78, 56
11, 71040, Note_on_c, 10, 76, 95
11, 71085, Note_off_c, 10, 76, 56
11, 71100, Note_on_c, 10, 76, 95
11, 71145, Note_off_c, 10, 76, 56
11, 71160, Note_on_c, 10, 76, 95
11, 71205, Note_off_c, 10, 76, 56
11, 71220, Note_on_c, 10, 76, 95
11, 71265, Note_off_c, 10, 76, 56
11, 71280, Note_on_c, 10, 74, 95
11, 71325, Note_off_c, 10, 74, 56
11, 71340, Note_on_c, 10, 74, 95
11, 71385, Note_off_c, 10, 74, 56
11, 71400, Note_on_c, 10, 74, 95
11, 71445, Note_off_c, 10, 74, 56
11, 71460, Note_on_c, 10, 74, 95
11, 71505, Note_off_c, 10, 74, 56
11, 71520, Note_on_c, 10, 74, 95
11, 71565, Note_off_c, 10, 74, 56
11, 71580, Note_on_c, 10, 74, 95
11, 71625, Note_off_c, 10, 74, 56
11, 71640, Note_on_c, 10, 74, 95
11, 71685, Note_off_c, 10, 74, 56
11, 71700, Note_on_c, 10, 74, 95
11, 71745, Note_off_c, 10, 74, 56
11, 71760, Note_on_c, 10, 74, 95
11, 71805, Note_off_c, 10, 74, 56
11, 71820, Note_on_c, 10, 74, 95
11, 71865, Note_off_c, 10, 74, 56
11, 71880, Note_on_c, 10, 74, 95
11, 71925, Note_off_c, 10, 74, 56
11, 71940, Note_on_c, 10, 74, 95
11, 71985, Note_off_c, 10, 74, 56
11, 72000, Note_on_c, 10, 84, 95
11, 72045, Note_off_c, 10, 84, 56
11, 72060, Note_on_c, 10, 84, 95
11, 72105, Note_off_c, 10, 84, 56
11, 72120, Note_on_c, 10, 84, 95
11, 72165, Note_off_c, 10, 84, 56
11, 72180, Note_on_c, 10, 84, 97
11, 72225, Note_off_c, 10, 84, 56
11, 72240, Note_on_c, 10, 84, 97
11, 72285, Note_off_c, 10, 84, 56
11, 72300, Note_on_c, 10, 84, 97
11, 72345, Note_off_c, 10, 84, 56
11, 72360, Note_on_c, 10, 84, 97
11, 72405, Note_off_c, 10, 84, 56
11, 72420, Note_on_c, 10, 84, 98
11, 72465, Note_off_c, 10, 84, 56
11, 72480, Note_on_c, 10, 84, 98
11, 72525, Note_off_c, 10, 84, 56
11, 72540, Note_on_c, 10, 84, 98
11, 72585, Note_off_c, 10, 84, 56
11, 72600, Note_on_c, 10, 84, 98
11, 72645, Note_off_c, 10, 84, 56
11, 72660, Note_on_c, 10, 84, 99
11, 72705, Note_off_c, 10, 84, 56
11, 72720, Note_on_c, 10, 83, 99
11, 72765, Note_off_c, 10, 83, 56
11, 72780, Note_on_c, 10, 83, 99
11, 72825, Note_off_c, 10, 83, 56
11, 72840, Note_on_c, 10, 83, 99
11, 72885, Note_off_c, 10, 83, 56
11, 72900, Note_on_c, 10, 83, 99
11, 72945, Note_off_c, 10, 83, 56
11, 72960, Note_on_c, 10, 81, 100
11, 73005, Note_off_c, 10, 81, 56
11, 73020, Note_on_c, 10, 81, 100
11, 73065, Note_off_c, 10, 81, 56
11, 73080, Note_on_c, 10, 81, 100
11, 73125, Note_off_c, 10, 81, 56
11, 73140, Note_on_c, 10, 81, 100
11, 73185, Note_off_c, 10, 81, 56
11, 73200, Note_on_c, 10, 80, 101
11, 73245, Note_off_c, 10, 80, 56
11, 73260, Note_on_c, 10, 80, 101
11, 73305, Note_off_c, 10, 80, 56
11, 73320, Note_on_c, 10, 80, 101
11, 73365, Note_off_c, 10, 80, 56
11, 73380, Note_on_c, 10, 80, 101
11, 73425, Note_off_c, 10, 80, 56
11, 73440, Note_on_c, 10, 80, 102
11, 73485, Note_off_c, 10, 80, 56
11, 73500, Note_on_c, 10, 80, 102
11, 73545, Note_off_c, 10, 80, 56
11, 73560, Note_on_c, 10, 80, 102
11, 73605, Note_off_c, 10, 80, 56
11, 73620, Note_on_c, 10, 80, 102
11, 73665, Note_off_c, 10, 80, 56
11, 73680, Note_on_c, 10, 80, 102
11, 73725, Note_off_c, 10, 80, 56
11, 73740, Note_on_c, 10, 80, 103
11, 73785, Note_off_c, 10, 80, 56
11, 73800, Note_on_c, 10, 80, 103
11, 73845, Note_off_c, 10, 80, 56
11, 73860, Note_on_c, 10, 80, 103
11, 73905, Note_off_c, 10, 80, 56
11, 73920, Note_on_c, 10, 80, 103
11, 73965, Note_off_c, 10, 80, 56
11, 73980, Note_on_c, 10, 80, 105
11, 74025, Note_off_c, 10, 80, 56
11, 74040, Note_on_c, 10, 80, 105
11, 74085, Note_off_c, 10, 80, 56
11, 74100, Note_on_c, 10, 80, 105
11, 74145, Note_off_c, 10, 80, 56
11, 74160, Note_on_c, 10, 80, 105
11, 74205, Note_off_c, 10, 80, 56
11, 74220, Note_on_c, 10, 80, 106
11, 74265, Note_off_c, 10, 80, 56
11, 74280, Note_on_c, 10, 80, 106
11, 74325, Note_off_c, 10, 80, 56
11, 74340, Note_on_c, 10, 80, 106
11, 74385, Note_off_c, 10, 80, 56
11, 74400, Note_on_c, 10, 80, 106
11, 74445, Note_off_c, 10, 80, 56
11, 74460, Note_on_c, 10, 80, 106
11, 74505, Note_off_c, 10, 80, 56
11, 74520, Note_on_c, 10, 80, 107
11, 74565, Note_off_c, 10, 80, 56
11, 74580, Note_on_c, 10, 80, 107
11, 74625, Note_off_c, 10, 80, 56
11, 74640, Note_on_c, 10, 80, 107
11, 74685, Note_off_c, 10, 80, 56
11, 74700, Note_on_c, 10, 80, 107
11, 74745, Note_off_c, 10, 80, 56
11, 74760, Note_on_c, 10, 80, 108
11, 74805, Note_off_c, 10, 80, 56
11, 74820, Note_on_c, 10, 80, 108
11, 74865, Note_off_c, 10, 80, 56
11, 74880, Note_on_c, 10, 80, 108
11, 74925, Note_off_c, 10, 80, 56
11, 74940, Note_on_c, 10, 80, 108
11, 74985, Note_off_c, 10, 80, 56
11, 75000, Note_on_c, 10, 80, 109
11, 75045, Note_off_c, 10, 80, 56
11, 75060, Note_on_c, 10, 80, 109
11, 75105, Note_off_c, 10, 80, 56
11, 75120, Note_on_c, 10, 84, 109
11, 75165, Note_off_c, 10, 84, 56
11, 75180, Note_on_c, 10, 84, 109
11, 75225, Note_off_c, 10, 84, 56
11, 75240, Note_on_c, 10, 84, 110
11, 75285, Note_off_c, 10, 84, 56
11, 75300, Note_on_c, 10, 84, 110
11, 75345, Note_off_c, 10, 84, 56
11, 75360, Note_on_c, 10, 84, 110
11, 75405, Note_off_c, 10, 84, 56
11, 75420, Note_on_c, 10, 84, 110
11, 75465, Note_off_c, 10, 84, 56
11, 75480, Note_on_c, 10, 84, 110
11, 75525, Note_off_c, 10, 84, 56
11, 75540, Note_on_c, 10, 84, 111
11, 75585, Note_off_c, 10, 84, 56
11, 75600, Note_on_c, 10, 84, 111
11, 75645, Note_off_c, 10, 84, 56
11, 75660, Note_on_c, 10, 84, 111
11, 75705, Note_off_c, 10, 84, 56
11, 75720, Note_on_c, 10, 84, 111
11, 75765, Note_off_c, 10, 84, 56
11, 75780, Note_on_c, 10, 84, 113
11, 75825, Note_off_c, 10, 84, 56
11, 75837, Note_on_c, 10, 89, 108
11, 75840, Control_c, 10, 0, 0
11, 75840, Control_c, 10, 32, 8
11, 75840, Program_c, 10, 50
11, 75848, Control_c, 10, 7, 100
11, 77565, Note_off_c, 10, 89, 64
11, 77761, Note_on_c, 10, 55, 108
11, 77829, Note_off_c, 10, 55, 56
11, 77880, Note_on_c, 10, 55, 108
11, 77948, Note_off_c, 10, 55, 56
11, 78001, Note_on_c, 10, 59, 108
11, 78069, Note_off_c, 10, 59, 56
11, 78121, Note_on_c, 10, 55, 108
11, 78212, Note_off_c, 10, 55, 56
11, 78241, Note_on_c, 10, 59, 108
11, 78332, Note_off_c, 10, 59, 56
11, 78360, Note_on_c, 10, 55, 108
11, 78428, Note_off_c, 10, 55, 56
11, 78480, Note_on_c, 10, 62, 108
11, 78548, Note_off_c, 10, 62, 56
11, 78599, Note_on_c, 10, 59, 108
11, 78690, Note_off_c, 10, 59, 56
11, 78721, Note_on_c, 10, 62, 108
11, 78789, Note_off_c, 10, 62, 56
11, 78841, Note_on_c, 10, 59, 108
11, 78909, Note_off_c, 10, 59, 56
11, 78961, Note_on_c, 10, 65, 108
11, 79029, Note_off_c, 10, 65, 56
11, 79079, Note_on_c, 10, 62, 108
11, 79170, Note_off_c, 10, 62, 56
11, 79200, Note_on_c, 10, 65, 108
11, 79268, Note_off_c, 10, 65, 56
11, 79320, Note_on_c, 10, 62, 108
11, 79388, Note_off_c, 10, 62, 56
11, 79441, Note_on_c, 10, 71, 108
11, 79532, Note_off_c, 10, 71, 56
11, 79561, Note_on_c, 10, 65, 108
11, 79652, Note_off_c, 10, 65, 56
11, 79680, Note_on_c, 10, 71, 108
11, 79748, Note_off_c, 10, 71, 56
11, 79801, Note_on_c, 10, 65, 108
11, 79869, Note_off_c, 10, 65, 56
11, 79920, Note_on_c, 10, 74, 108
11, 79988, Note_off_c, 10, 74, 56
11, 80041, Note_on_c, 10, 71, 108
11, 80109, Note_off_c, 10, 71, 56
11, 80161, Note_on_c, 10, 77, 108
11, 80229, Note_off_c, 10, 77, 56
11, 80280, Note_on_c, 10, 74, 108
11, 80348, Note_off_c, 10, 74, 56
11, 80401, Note_on_c, 10, 83, 108
11, 80469, Note_off_c, 10, 83, 56
11, 80521, Note_on_c, 10, 77, 108
11, 80589, Note_off_c, 10, 77, 56
11, 80641, Note_on_c, 10, 83, 108
11, 80709, Note_off_c, 10, 83, 56
11, 80759, Note_on_c, 10, 77, 108
11, 80827, Note_off_c, 10, 77, 56
11, 80880, Note_on_c, 10, 86, 108
11, 81062, Note_off_c, 10, 86, 64
11, 81360, Note_on_c, 10, 55, 108
11, 81542, Note_off_c, 10, 55, 64
11, 81597, Note_on_c, 10, 55, 108
11, 81779, Note_off_c, 10, 55, 64
11, 81841, Note_on_c, 10, 64, 108
11, 81843, Note_on_c, 10, 55, 108
11, 82023, Note_off_c, 10, 64, 64
11, 82025, Note_off_c, 10, 55, 64
11, 82560, Note_on_c, 10, 64, 108
11, 82563, Note_on_c, 10, 55, 108
11, 82742, Note_off_c, 10, 64, 64
11, 82745, Note_off_c, 10, 55, 64
11, 83281, Note_on_c, 10, 62, 108
11, 83281, Note_on_c, 10, 55, 108
11, 83372, Note_off_c, 10, 55, 56
11, 83372, Note_off_c, 10, 62, 56
11, 83519, Note_on_c, 10, 64, 108
11, 83520, Note_on_c, 10, 55, 108
11, 83610, Note_off_c, 10, 64, 56
11, 83611, Note_off_c, 10, 55, 56
11, 83759, Note_on_c, 10, 65, 108
11, 83761, Note_on_c, 10, 55, 108
11, 83850, Note_off_c, 10, 65, 56
11, 83852, Note_off_c, 10, 55, 56
11, 84000, Note_on_c, 10, 64, 108
11, 84001, Note_on_c, 10, 55, 108
11, 84091, Note_off_c, 10, 64, 56
11, 84092, Note_off_c, 10, 55, 56
11, 84240, Note_on_c, 10, 55, 108
11, 84241, Note_on_c, 10, 65, 108
11, 84331, Note_off_c, 10, 55, 56
11, 84332, Note_off_c, 10, 65, 56
11, 84480, Note_on_c, 10, 55, 108
11, 84481, Note_on_c, 10, 64, 108
11, 84662, Note_off_c, 10, 55, 64
11, 84663, Note_off_c, 10, 64, 64
11, 85202, Note_on_c, 10, 72, 108
11, 85338, Note_off_c, 10, 72, 64
11, 85380, Note_on_c, 10, 72, 113
11, 85425, Note_off_c, 10, 72, 56
11, 85437, Note_on_c, 10, 67, 108
11, 85441, Note_on_c, 10, 55, 108
11, 85619, Note_off_c, 10, 67, 64
11, 85623, Note_off_c, 10, 55, 64
11, 86158, Note_on_c, 10, 74, 108
11, 86294, Note_off_c, 10, 74, 64
11, 86340, Note_on_c, 10, 74, 113
11, 86385, Note_off_c, 10, 74, 56
11, 86398, Note_on_c, 10, 60, 108
11, 86400, Note_on_c, 10, 72, 108
11, 86400, Note_on_c, 10, 67, 108
11, 86580, Note_off_c, 10, 60, 64
11, 86582, Note_off_c, 10, 67, 64
11, 86582, Note_off_c, 10, 72, 64
11, 87001, Note_on_c, 10, 72, 108
11, 87069, Note_off_c, 10, 72, 56
11, 87120, Note_on_c, 10, 74, 108
11, 87188, Note_off_c, 10, 74, 56
11, 87240, Note_on_c, 10, 76, 108
11, 87308, Note_off_c, 10, 76, 56
11, 87361, Note_on_c, 10, 77, 108
11, 87429, Note_off_c, 10, 77, 56
11, 87480, Note_on_c, 10, 76, 108
11, 87548, Note_off_c, 10, 76, 56
11, 87601, Note_on_c, 10, 77, 108
11, 87669, Note_off_c, 10, 77, 56
11, 87721, Note_on_c, 10, 79, 108
11, 87789, Note_off_c, 10, 79, 56
11, 87841, Note_on_c, 10, 81, 108
11, 87909, Note_off_c, 10, 81, 56
11, 87960, Note_on_c, 10, 79, 108
11, 88028, Note_off_c, 10, 79, 56
11, 88080, Note_on_c, 10, 81, 108
11, 88148, Note_off_c, 10, 81, 56
11, 88199, Note_on_c, 10, 83, 108
11, 88267, Note_off_c, 10, 83, 56
11, 88317, Note_on_c, 10, 84, 108
11, 88893, Note_off_c, 10, 84, 64
11, 88919, Note_on_c, 10, 72, 108
11, 88987, Note_off_c, 10, 72, 56
11, 89041, Note_on_c, 10, 74, 108
11, 89109, Note_off_c, 10, 74, 56
11, 89159, Note_on_c, 10, 76, 108
11, 89227, Note_off_c, 10, 76, 56
11, 89280, Note_on_c, 10, 77, 108
11, 89348, Note_off_c, 10, 77, 56
11, 89400, Note_on_c, 10, 76, 108
11, 89468, Note_off_c, 10, 76, 56
11, 89519, Note_on_c, 10, 77, 108
11, 89587, Note_off_c, 10, 77, 56
11, 89639, Note_on_c, 10, 79, 108
11, 89707, Note_off_c, 10, 79, 56
11, 89760, Note_on_c, 10, 81, 108
11, 89828, Note_off_c, 10, 81, 56
11, 89879, Note_on_c, 10, 79, 108
11, 89947, Note_off_c, 10, 79, 56
11, 90001, Note_on_c, 10, 81, 108
11, 90069, Note_off_c, 10, 81, 56
11, 90119, Note_on_c, 10, 83, 108
11, 90187, Note_off_c, 10, 83, 56
11, 90238, Note_on_c, 10, 84, 108
11, 90814, Note_off_c, 10, 84, 64
11, 90841, Note_on_c, 10, 72, 108
11, 90909, Note_off_c, 10, 72, 56
11, 90960, Note_on_c, 10, 74, 108
11, 91028, Note_off_c, 10, 74, 56
11, 91080, Note_on_c, 10, 76, 108
11, 91148, Note_off_c, 10, 76, 56
11, 91200, Note_on_c, 10, 79, 113
11, 91217, Note_off_c, 10, 79, 56
11, 91229, Note_on_c, 10, 77, 113
11, 91280, Note_off_c, 10, 77, 56
11, 91321, Note_on_c, 10, 76, 108
11, 91389, Note_off_c, 10, 76, 56
11, 91439, Note_on_c, 10, 77, 108
11, 91507, Note_off_c, 10, 77, 56
11, 91560, Note_on_c, 10, 79, 108
11, 91628, Note_off_c, 10, 79, 56
11, 91680, Note_on_c, 10, 83, 113
11, 91697, Note_off_c, 10, 83, 56
11, 91710, Note_on_c, 10, 81, 113
11, 91761, Note_off_c, 10, 81, 56
11, 91800, Note_on_c, 10, 79, 108
11, 91868, Note_off_c, 10, 79, 56
11, 91919, Note_on_c, 10, 81, 108
11, 91987, Note_off_c, 10, 81, 56
11, 92039, Note_on_c, 10, 83, 108
11, 92107, Note_off_c, 10, 83, 56
11, 92160, Note_on_c, 10, 86, 113
11, 92182, Note_off_c, 10, 86, 56
11, 92191, Note_on_c, 10, 84, 108
11, 92259, Note_off_c, 10, 84, 56
11, 92280, Note_on_c, 10, 83, 108
11, 92371, Note_off_c, 10, 83, 56
11, 92400, Note_on_c, 10, 84, 108
11, 92491, Note_off_c, 10, 84, 56
11, 92519, Note_on_c, 10, 86, 108
11, 92610, Note_off_c, 10, 86, 56
11, 92639, Note_on_c, 10, 88, 108
11, 92821, Note_off_c, 10, 88, 64
11, 92880, Note_on_c, 10, 79, 108
11, 92971, Note_off_c, 10, 79, 56
11, 93060, Note_on_c, 10, 88, 113
11, 93105, Note_off_c, 10, 88, 56
11, 93119, Note_on_c, 10, 88, 108
11, 93227, Note_off_c, 10, 88, 56
11, 93241, Note_on_c, 10, 86, 108
11, 93332, Note_off_c, 10, 86, 56
11, 93360, Note_on_c, 10, 77, 108
11, 93451, Note_off_c, 10, 77, 56
11, 93540, Note_on_c, 10, 86, 113
11, 93585, Note_off_c, 10, 86, 56
11, 93602, Note_on_c, 10, 86, 108
11, 93710, Note_off_c, 10, 86, 56
11, 93720, Note_on_c, 10, 84, 108
11, 93811, Note_off_c, 10, 84, 56
11, 93840, Note_on_c, 10, 76, 108
11, 93931, Note_off_c, 10, 76, 56
11, 94020, Note_on_c, 10, 84, 113
11, 94065, Note_off_c, 10, 84, 56
11, 94081, Note_on_c, 10, 84, 108
11, 94189, Note_off_c, 10, 84, 56
11, 94199, Note_on_c, 10, 83, 108
11, 94290, Note_off_c, 10, 83, 56
11, 94320, Note_on_c, 10, 83, 108
11, 94704, Note_off_c, 10, 83, 64
11, 94801, Note_on_c, 10, 84, 108
11, 94892, Note_off_c, 10, 84, 56
11, 94980, Note_on_c, 10, 88, 113
11, 95025, Note_off_c, 10, 88, 56
11, 95038, Note_on_c, 10, 88, 108
11, 95146, Note_off_c, 10, 88, 56
11, 95159, Note_on_c, 10, 86, 108
11, 95250, Note_off_c, 10, 86, 56
11, 95280, Note_on_c, 10, 77, 108
11, 95371, Note_off_c, 10, 77, 56
11, 95460, Note_on_c, 10, 86, 113
11, 95505, Note_off_c, 10, 86, 56
11, 95520, Note_on_c, 10, 86, 108
11, 95628, Note_off_c, 10, 86, 56
11, 95640, Note_on_c, 10, 84, 108
11, 95731, Note_off_c, 10, 84, 56
11, 95760, Note_on_c, 10, 76, 108
11, 95851, Note_off_c, 10, 76, 56
11, 95940, Note_on_c, 10, 84, 113
11, 95985, Note_off_c, 10, 84, 56
11, 96002, Note_on_c, 10, 84, 108
11, 96110, Note_off_c, 10, 84, 56
11, 96120, Note_on_c, 10, 83, 108
11, 96211, Note_off_c, 10, 83, 56
11, 96241, Note_on_c, 10, 83, 108
11, 96625, Note_off_c, 10, 83, 64
11, 96720, Note_on_c, 10, 84, 108
11, 96788, Note_off_c, 10, 84, 56
11, 96900, Note_on_c, 10, 88, 113
11, 96934, Note_off_c, 10, 88, 56
11, 96960, Note_on_c, 10, 88, 108
11, 97028, Note_off_c, 10, 88, 56
11, 97140, Note_on_c, 10, 86, 113
11, 97174, Note_off_c, 10, 86, 56
11, 97199, Note_on_c, 10, 77, 108
11, 97267, Note_off_c, 10, 77, 56
11, 97380, Note_on_c, 10, 86, 113
11, 97414, Note_off_c, 10, 86, 56
11, 97439, Note_on_c, 10, 86, 108
11, 97507, Note_off_c, 10, 86, 56
11, 97620, Note_on_c, 10, 84, 113
11, 97654, Note_off_c, 10, 84, 56
11, 97740, Note_on_c, 10, 76, 113
11, 97774, Note_off_c, 10, 76, 56
11, 97860, Note_on_c, 10, 84, 113
11, 97894, Note_off_c, 10, 84, 56
11, 97921, Note_on_c, 10, 83, 108
11, 97989, Note_off_c, 10, 83, 56
11, 98100, Note_on_c, 10, 74, 113
11, 98145, Note_off_c, 10, 74, 56
11, 98161, Note_on_c, 10, 79, 108
11, 98545, Note_off_c, 10, 79, 64
11, 98639, Note_on_c, 10, 81, 113
11, 98693, Note_off_c, 10, 81, 56
11, 98701, Note_on_c, 10, 79, 113
11, 98755, Note_off_c, 10, 79, 56
11, 98761, Note_on_c, 10, 77, 113
11, 98815, Note_off_c, 10, 77, 56
11, 98821, Note_on_c, 10, 76, 113
11, 98875, Note_off_c, 10, 76, 56
11, 98881, Note_on_c, 10, 74, 108
11, 98972, Note_off_c, 10, 74, 56
11, 99060, Note_on_c, 10, 74, 113
11, 99105, Note_off_c, 10, 74, 56
11, 99123, Note_on_c, 10, 79, 108
11, 99507, Note_off_c, 10, 79, 64
11, 99599, Note_on_c, 10, 81, 113
11, 99653, Note_off_c, 10, 81, 56
11, 99660, Note_on_c, 10, 79, 113
11, 99714, Note_off_c, 10, 79, 56
11, 99719, Note_on_c, 10, 77, 113
11, 99773, Note_off_c, 10, 77, 56
11, 99781, Note_on_c, 10, 76, 113
11, 99835, Note_off_c, 10, 76, 56
11, 99840, Note_on_c, 10, 74, 108
11, 99931, Note_off_c, 10, 74, 56
11, 100020, Note_on_c, 10, 79, 113
11, 100065, Note_off_c, 10, 79, 56
11, 100079, Note_on_c, 10, 81, 113
11, 100133, Note_off_c, 10, 81, 56
11, 100139, Note_on_c, 10, 79, 113
11, 100193, Note_off_c, 10, 79, 56
11, 100200, Note_on_c, 10, 77, 113
11, 100254, Note_off_c, 10, 77, 56
11, 100260, Note_on_c, 10, 76, 113
11, 100314, Note_off_c, 10, 76, 56
11, 100320, Note_on_c, 10, 74, 108
11, 100428, Note_off_c, 10, 74, 56
11, 100500, Note_on_c, 10, 79, 113
11, 100545, Note_off_c, 10, 79, 56
11, 100559, Note_on_c, 10, 81, 113
11, 100613, Note_off_c, 10, 81, 56
11, 100621, Note_on_c, 10, 79, 113
11, 100675, Note_off_c, 10, 79, 56
11, 100681, Note_on_c, 10, 77, 113
11, 100735, Note_off_c, 10, 77, 56
11, 100740, Note_on_c, 10, 76, 113
11, 100794, Note_off_c, 10, 76, 56
11, 100800, Note_on_c, 10, 74, 108
11, 100891, Note_off_c, 10, 74, 56
11, 100980, Note_on_c, 10, 79, 113
11, 101025, Note_off_c, 10, 79, 56
11, 101039, Note_on_c, 10, 81, 113
11, 101093, Note_off_c, 10, 81, 56
11, 101101, Note_on_c, 10, 79, 113
11, 101155, Note_off_c, 10, 79, 56
11, 101160, Note_on_c, 10, 77, 113
11, 101214, Note_off_c, 10, 77, 56
11, 101221, Note_on_c, 10, 76, 113
11, 101275, Note_off_c, 10, 76, 56
11, 101280, Note_on_c, 10, 74, 108
11, 101388, Note_off_c, 10, 74, 56
11, 101460, Note_on_c, 10, 79, 113
11, 101505, Note_off_c, 10, 79, 56
11, 101519, Note_on_c, 10, 81, 113
11, 101573, Note_off_c, 10, 81, 56
11, 101580, Note_on_c, 10, 79, 113
11, 101634, Note_off_c, 10, 79, 56
11, 101641, Note_on_c, 10, 77, 113
11, 101695, Note_off_c, 10, 77, 56
11, 101699, Note_on_c, 10, 76, 113
11, 101753, Note_off_c, 10, 76, 56
11, 101759, Note_on_c, 10, 74, 108
11, 101827, Note_off_c, 10, 74, 56
11, 101878, Note_on_c, 10, 79, 108
11, 101986, Note_off_c, 10, 79, 56
11, 102001, Note_on_c, 10, 77, 108
11, 102092, Note_off_c, 10, 77, 56
11, 102120, Note_on_c, 10, 76, 108
11, 102188, Note_off_c, 10, 76, 56
11, 102240, Note_on_c, 10, 74, 108
11, 102308, Note_off_c, 10, 74, 56
11, 102360, Note_on_c, 10, 76, 108
11, 102468, Note_off_c, 10, 76, 56
11, 102480, Note_on_c, 10, 74, 108
11, 102571, Note_off_c, 10, 74, 56
11, 102601, Note_on_c, 10, 72, 108
11, 102669, Note_off_c, 10, 72, 56
11, 102720, Note_on_c, 10, 71, 108
11, 102788, Note_off_c, 10, 71, 56
11, 102839, Note_on_c, 10, 76, 108
11, 102947, Note_off_c, 10, 76, 56
11, 102960, Note_on_c, 10, 74, 108
11, 103051, Note_off_c, 10, 74, 56
11, 103080, Note_on_c, 10, 72, 108
11, 103148, Note_off_c, 10, 72, 56
11, 103201, Note_on_c, 10, 71, 108
11, 103269, Note_off_c, 10, 71, 56
11, 103318, Note_on_c, 10, 72, 108
11, 103426, Note_off_c, 10, 72, 56
11, 103440, Note_on_c, 10, 71, 108
11, 103531, Note_off_c, 10, 71, 56
11, 103559, Note_on_c, 10, 69, 108
11, 103627, Note_off_c, 10, 69, 56
11, 103679, Note_on_c, 10, 67, 108
11, 103747, Note_off_c, 10, 67, 56
11, 103799, Note_on_c, 10, 72, 108
11, 103907, Note_off_c, 10, 72, 56
11, 103920, Note_on_c, 10, 71, 108
11, 104011, Note_off_c, 10, 71, 56
11, 104041, Note_on_c, 10, 69, 108
11, 104109, Note_off_c, 10, 69, 56
11, 104159, Note_on_c, 10, 67, 108
11, 104227, Note_off_c, 10, 67, 56
11, 104280, Note_on_c, 10, 72, 108
11, 104388, Note_off_c, 10, 72, 56
11, 104399, Note_on_c, 10, 71, 108
11, 104490, Note_off_c, 10, 71, 56
11, 104521, Note_on_c, 10, 69, 108
11, 104589, Note_off_c, 10, 69, 56
11, 104639, Note_on_c, 10, 67, 108
11, 104707, Note_off_c, 10, 67, 56
11, 104759, Note_on_c, 10, 72, 108
11, 104867, Note_off_c, 10, 72, 56
11, 104879, Note_on_c, 10, 71, 108
11, 104970, Note_off_c, 10, 71, 56
11, 105001, Note_on_c, 10, 69, 108
11, 105092, Note_off_c, 10, 69, 56
11, 105120, Note_on_c, 10, 67, 108
11, 105188, Note_off_c, 10, 67, 56
11, 105241, Note_on_c, 10, 65, 108
11, 105309, Note_off_c, 10, 65, 56
11, 105360, Note_on_c, 10, 64, 108
11, 105428, Note_off_c, 10, 64, 56
11, 105480, Note_on_c, 10, 62, 108
11, 105548, Note_off_c, 10, 62, 56
11, 105599, Note_on_c, 10, 60, 108
11, 105781, Note_off_c, 10, 60, 64
11, 107522, Note_on_c, 10, 55, 108
11, 107704, Note_off_c, 10, 55, 64
11, 108003, Note_on_c, 10, 55, 108
11, 108185, Note_off_c, 10, 55, 64
11, 108480, Note_on_c, 10, 55, 108
11, 108662, Note_off_c, 10, 55, 64
11, 108961, Note_on_c, 10, 55, 108
11, 109143, Note_off_c, 10, 55, 64
11, 109441, Note_on_c, 10, 55, 108
11, 109623, Note_off_c, 10, 55, 64
11, 111359, Note_on_c, 10, 64, 108
11, 111362, Note_on_c, 10, 55, 108
11, 111541, Note_off_c, 10, 64, 64
11, 111544, Note_off_c, 10, 55, 64
11, 111841, Note_on_c, 10, 55, 108
11, 111841, Note_on_c, 10, 64, 108
11, 112023, Note_off_c, 10, 64, 64
11, 112023, Note_off_c, 10, 55, 64
11, 112319, Note_on_c, 10, 55, 108
11, 112320, Note_on_c, 10, 64, 108
11, 112501, Note_off_c, 10, 55, 64
11, 112502, Note_off_c, 10, 64, 64
11, 112798, Note_on_c, 10, 55, 108
11, 112800, Note_on_c, 10, 64, 108
11, 112980, Note_off_c, 10, 55, 64
11, 112982, Note_off_c, 10, 64, 64
11, 113277, Note_on_c, 10, 64, 108
11, 113282, Note_on_c, 10, 72, 108
11, 113459, Note_off_c, 10, 64, 64
11, 113464, Note_off_c, 10, 72, 64
11, 114000, Note_on_c, 10, 72, 108
11, 114216, Note_off_c, 10, 72, 64
11, 114239, Note_on_c, 10, 76, 108
11, 114455, Note_off_c, 10, 76, 64
11, 114483, Note_on_c, 10, 72, 108
11, 114699, Note_off_c, 10, 72, 64
11, 114720, Note_on_c, 10, 79, 108
11, 114936, Note_off_c, 10, 79, 64
11, 114958, Note_on_c, 10, 78, 108
11, 115120, Note_off_c, 10, 78, 64
11, 115140, Note_on_c, 10, 76, 113
11, 115185, Note_off_c, 10, 76, 56
11, 115202, Note_on_c, 10, 78, 108
11, 115778, Note_off_c, 10, 78, 64
11, 115920, Note_on_c, 10, 72, 108
11, 116136, Note_off_c, 10, 72, 64
11, 116161, Note_on_c, 10, 78, 108
11, 116377, Note_off_c, 10, 78, 64
11, 116401, Note_on_c, 10, 72, 108
11, 116617, Note_off_c, 10, 72, 64
11, 116642, Note_on_c, 10, 81, 108
11, 116858, Note_off_c, 10, 81, 64
11, 116883, Note_on_c, 10, 79, 108
11, 117045, Note_off_c, 10, 79, 64
11, 117060, Note_on_c, 10, 78, 113
11, 117105, Note_off_c, 10, 78, 56
11, 117122, Note_on_c, 10, 79, 108
11, 117338, Note_off_c, 10, 79, 64
11, 117358, Note_on_c, 10, 74, 108
11, 117574, Note_off_c, 10, 74, 64
11, 117602, Note_on_c, 10, 83, 108
11, 117818, Note_off_c, 10, 83, 64
11, 117837, Note_on_c, 10, 81, 108
11, 117999, Note_off_c, 10, 81, 64
11, 118020, Note_on_c, 10, 79, 113
11, 118074, Note_off_c, 10, 79, 56
11, 118083, Note_on_c, 10, 78, 108
11, 118371, Note_off_c, 10, 78, 64
11, 118439, Note_on_c, 10, 74, 108
11, 118530, Note_off_c, 10, 74, 56
11, 118559, Note_on_c, 10, 81, 108
11, 118901, Note_off_c, 10, 81, 64
11, 118921, Note_on_c, 10, 79, 113
11, 118975, Note_off_c, 10, 79, 56
11, 118980, Note_on_c, 10, 78, 113
11, 119034, Note_off_c, 10, 78, 56
11, 119041, Note_on_c, 10, 79, 108
11, 119329, Note_off_c, 10, 79, 64
11, 119401, Note_on_c, 10, 74, 108
11, 119492, Note_off_c, 10, 74, 56
11, 119522, Note_on_c, 10, 83, 108
11, 119864, Note_off_c, 10, 83, 64
11, 119880, Note_on_c, 10, 81, 113
11, 119934, Note_off_c, 10, 81, 56
11, 119940, Note_on_c, 10, 79, 113
11, 119985, Note_off_c, 10, 79, 56
11, 120003, Note_on_c, 10, 86, 108
11, 120579, Note_off_c, 10, 86, 64
11, 120600, Note_on_c, 10, 86, 108
11, 120708, Note_off_c, 10, 86, 56
11, 120720, Note_on_c, 10, 84, 108
11, 120811, Note_off_c, 10, 84, 56
11, 120840, Note_on_c, 10, 83, 108
11, 120908, Note_off_c, 10, 83, 56
11, 120961, Note_on_c, 10, 81, 108
11, 121029, Note_off_c, 10, 81, 56
11, 121079, Note_on_c, 10, 83, 108
11, 121187, Note_off_c, 10, 83, 56
11, 121201, Note_on_c, 10, 81, 108
11, 121292, Note_off_c, 10, 81, 56
11, 121319, Note_on_c, 10, 79, 108
11, 121387, Note_off_c, 10, 79, 56
11, 121441, Note_on_c, 10, 78, 108
11, 121509, Note_off_c, 10, 78, 56
11, 121561, Note_on_c, 10, 74, 108
11, 121669, Note_off_c, 10, 74, 56
11, 121679, Note_on_c, 10, 73, 108
11, 121787, Note_off_c, 10, 73, 56
11, 121799, Note_on_c, 10, 79, 108
11, 121867, Note_off_c, 10, 79, 56
11, 121919, Note_on_c, 10, 78, 108
11, 122010, Note_off_c, 10, 78, 56
11, 122522, Note_on_c, 10, 62, 108
11, 122630, Note_off_c, 10, 62, 56
11, 122639, Note_on_c, 10, 61, 108
11, 122747, Note_off_c, 10, 61, 56
11, 122760, Note_on_c, 10, 67, 108
11, 122851, Note_off_c, 10, 67, 56
11, 122879, Note_on_c, 10, 66, 108
11, 122970, Note_off_c, 10, 66, 56
11, 123601, Note_on_c, 10, 69, 108
11, 123673, Note_off_c, 10, 69, 56
11, 123679, Note_on_c, 10, 71, 108
11, 123751, Note_off_c, 10, 71, 56
11, 123759, Note_on_c, 10, 72, 113
11, 123819, Note_off_c, 10, 72, 56
11, 123841, Note_on_c, 10, 74, 108
11, 124023, Note_off_c, 10, 74, 64
11, 124080, Note_on_c, 10, 71, 108
11, 124152, Note_off_c, 10, 71, 56
11, 124161, Note_on_c, 10, 72, 108
11, 124233, Note_off_c, 10, 72, 56
11, 124239, Note_on_c, 10, 74, 108
11, 124311, Note_off_c, 10, 74, 56
11, 124317, Note_on_c, 10, 76, 108
11, 124499, Note_off_c, 10, 76, 64
11, 124559, Note_on_c, 10, 76, 108
11, 124631, Note_off_c, 10, 76, 56
11, 124639, Note_on_c, 10, 78, 108
11, 124711, Note_off_c, 10, 78, 56
11, 124721, Note_on_c, 10, 79, 113
11, 124781, Note_off_c, 10, 79, 56
11, 124799, Note_on_c, 10, 74, 108
11, 125375, Note_off_c, 10, 74, 64
11, 125519, Note_on_c, 10, 74, 73
11, 125591, Note_off_c, 10, 74, 56
11, 125599, Note_on_c, 10, 72, 73
11, 125671, Note_off_c, 10, 72, 56
11, 125679, Note_on_c, 10, 71, 78
11, 125739, Note_off_c, 10, 71, 56
11, 125759, Note_on_c, 10, 69, 73
11, 125975, Note_off_c, 10, 69, 64
11, 126000, Note_on_c, 10, 72, 73
11, 126072, Note_off_c, 10, 72, 56
11, 126081, Note_on_c, 10, 71, 73
11, 126153, Note_off_c, 10, 71, 56
11, 126159, Note_on_c, 10, 69, 73
11, 126231, Note_off_c, 10, 69, 56
11, 126242, Note_on_c, 10, 67, 73
11, 126458, Note_off_c, 10, 67, 64
11, 126479, Note_on_c, 10, 71, 73
11, 126551, Note_off_c, 10, 71, 56
11, 126560, Note_on_c, 10, 69, 73
11, 126632, Note_off_c, 10, 69, 56
11, 126639, Note_on_c, 10, 67, 73
11, 126711, Note_off_c, 10, 67, 56
11, 126723, Note_on_c, 10, 66, 73
11, 126905, Note_off_c, 10, 66, 64
11, 126960, Note_on_c, 10, 66, 80
11, 127032, Note_off_c, 10, 66, 56
11, 127040, Note_on_c, 10, 67, 82
11, 127112, Note_off_c, 10, 67, 56
11, 127120, Note_on_c, 10, 69, 90
11, 127180, Note_off_c, 10, 69, 56
11, 127200, Note_on_c, 10, 62, 87
11, 127382, Note_off_c, 10, 62, 64
11, 127440, Note_on_c, 10, 60, 95
11, 127500, Note_off_c, 10, 60, 56
11, 127521, Note_on_c, 10, 59, 95
11, 127581, Note_off_c, 10, 59, 56
11, 127599, Note_on_c, 10, 57, 95
11, 127659, Note_off_c, 10, 57, 56
11, 127681, Note_on_c, 10, 62, 90
11, 127682, Note_on_c, 10, 55, 90
11, 127863, Note_off_c, 10, 62, 64
11, 127864, Note_off_c, 10, 55, 64
11, 128157, Note_on_c, 10, 55, 90
11, 128161, Note_on_c, 10, 62, 90
11, 128339, Note_off_c, 10, 55, 64
11, 128343, Note_off_c, 10, 62, 64
11, 128637, Note_on_c, 10, 55, 90
11, 128641, Note_on_c, 10, 62, 90
11, 128819, Note_off_c, 10, 55, 64
11, 128823, Note_off_c, 10, 62, 64
11, 128881, Note_on_c, 10, 62, 95
11, 128941, Note_off_c, 10, 62, 56
11, 128961, Note_on_c, 10, 64, 95
11, 129021, Note_off_c, 10, 64, 56
11, 129041, Note_on_c, 10, 66, 95
11, 129101, Note_off_c, 10, 66, 56
11, 129119, Note_on_c, 10, 67, 90
11, 129301, Note_off_c, 10, 67, 64
11, 129359, Note_on_c, 10, 74, 73
11, 129431, Note_off_c, 10, 74, 56
11, 129439, Note_on_c, 10, 72, 73
11, 129511, Note_off_c, 10, 72, 56
11, 129519, Note_on_c, 10, 71, 73
11, 129591, Note_off_c, 10, 71, 56
11, 129599, Note_on_c, 10, 69, 73
11, 129815, Note_off_c, 10, 69, 64
11, 129840, Note_on_c, 10, 72, 73
11, 129912, Note_off_c, 10, 72, 56
11, 129920, Note_on_c, 10, 71, 73
11, 129992, Note_off_c, 10, 71, 56
11, 130000, Note_on_c, 10, 69, 73
11, 130072, Note_off_c, 10, 69, 56
11, 130078, Note_on_c, 10, 67, 73
11, 130294, Note_off_c, 10, 67, 64
11, 130319, Note_on_c, 10, 71, 73
11, 130391, Note_off_c, 10, 71, 56
11, 130399, Note_on_c, 10, 69, 73
11, 130471, Note_off_c, 10, 69, 56
11, 130480, Note_on_c, 10, 67, 73
11, 130552, Note_off_c, 10, 67, 56
11, 130561, Note_on_c, 10, 66, 73
11, 130743, Note_off_c, 10, 66, 64
11, 131281, Note_on_c, 10, 76, 73
11, 131353, Note_off_c, 10, 76, 56
11, 131360, Note_on_c, 10, 74, 73
11, 131432, Note_off_c, 10, 74, 56
11, 131440, Note_on_c, 10, 72, 73
11, 131512, Note_off_c, 10, 72, 56
11, 131518, Note_on_c, 10, 71, 73
11, 131734, Note_off_c, 10, 71, 64
11, 131761, Note_on_c, 10, 74, 73
11, 131833, Note_off_c, 10, 74, 56
11, 131839, Note_on_c, 10, 72, 73
11, 131911, Note_off_c, 10, 72, 56
11, 131919, Note_on_c, 10, 71, 73
11, 131991, Note_off_c, 10, 71, 56
11, 132003, Note_on_c, 10, 69, 73
11, 132219, Note_off_c, 10, 69, 64
11, 132241, Note_on_c, 10, 72, 73
11, 132313, Note_off_c, 10, 72, 56
11, 132319, Note_on_c, 10, 71, 73
11, 132391, Note_off_c, 10, 71, 56
11, 132399, Note_on_c, 10, 69, 73
11, 132471, Note_off_c, 10, 69, 56
11, 132480, Note_on_c, 10, 68, 73
11, 132662, Note_off_c, 10, 68, 64
11, 132719, Note_on_c, 10, 64, 95
11, 132779, Note_off_c, 10, 64, 56
11, 132800, Note_on_c, 10, 66, 95
11, 132860, Note_off_c, 10, 66, 56
11, 132879, Note_on_c, 10, 68, 95
11, 132939, Note_off_c, 10, 68, 56
11, 132962, Note_on_c, 10, 69, 90
11, 133144, Note_off_c, 10, 69, 64
11, 133201, Note_on_c, 10, 79, 56
11, 133273, Note_off_c, 10, 79, 56
11, 133280, Note_on_c, 10, 77, 56
11, 133352, Note_off_c, 10, 77, 56
11, 133359, Note_on_c, 10, 76, 56
11, 133431, Note_off_c, 10, 76, 56
11, 133442, Note_on_c, 10, 74, 56
11, 133658, Note_off_c, 10, 74, 64
11, 133680, Note_on_c, 10, 77, 56
11, 133752, Note_off_c, 10, 77, 56
11, 133761, Note_on_c, 10, 76, 56
11, 133833, Note_off_c, 10, 76, 56
11, 133841, Note_on_c, 10, 74, 56
11, 133913, Note_off_c, 10, 74, 56
11, 133922, Note_on_c, 10, 72, 56
11, 134138, Note_off_c, 10, 72, 64
11, 134159, Note_on_c, 10, 76, 56
11, 134231, Note_off_c, 10, 76, 56
11, 134241, Note_on_c, 10, 74, 56
11, 134313, Note_off_c, 10, 74, 56
11, 134321, Note_on_c, 10, 72, 56
11, 134393, Note_off_c, 10, 72, 56
11, 134400, Note_on_c, 10, 71, 61
11, 134424, Program_c, 10, 44
11, 134432, Control_c, 10, 7, 120
11, 134445, Note_off_c, 10, 71, 56
11, 134460, Note_on_c, 10, 74, 62
11, 134505, Note_off_c, 10, 74, 56
11, 134520, Note_on_c, 10, 74, 64
11, 134565, Note_off_c, 10, 74, 56
11, 134580, Note_on_c, 10, 74, 65
11, 134625, Note_off_c, 10, 74, 56
11, 134640, Note_on_c, 10, 74, 67
11, 134685, Note_off_c, 10, 74, 56
11, 134700, Note_on_c, 10, 74, 69
11, 134745, Note_off_c, 10, 74, 56
11, 134760, Note_on_c, 10, 74, 70
11, 134805, Note_off_c, 10, 74, 56
11, 134820, Note_on_c, 10, 74, 72
11, 134865, Note_off_c, 10, 74, 56
11, 134880, Note_on_c, 10, 74, 74
11, 134925, Note_off_c, 10, 74, 56
11, 134940, Note_on_c, 10, 74, 75
11, 134985, Note_off_c, 10, 74, 56
11, 135000, Note_on_c, 10, 74, 77
11, 135045, Note_off_c, 10, 74, 56
11, 135060, Note_on_c, 10, 74, 78
11, 135105, Note_off_c, 10, 74, 56
11, 135120, Note_on_c, 10, 74, 80
11, 135165, Note_off_c, 10, 74, 56
11, 135180, Note_on_c, 10, 74, 82
11, 135225, Note_off_c, 10, 74, 56
11, 135240, Note_on_c, 10, 74, 83
11, 135285, Note_off_c, 10, 74, 56
11, 135300, Note_on_c, 10, 74, 85
11, 135345, Note_off_c, 10, 74, 56
11, 135360, Note_on_c, 10, 75, 86
11, 135405, Note_off_c, 10, 75, 56
11, 135420, Note_on_c, 10, 75, 88
11, 135465, Note_off_c, 10, 75, 56
11, 135480, Note_on_c, 10, 75, 90
11, 135525, Note_off_c, 10, 75, 56
11, 135540, Note_on_c, 10, 75, 91
11, 135585, Note_off_c, 10, 75, 56
11, 135600, Note_on_c, 10, 75, 93
11, 135645, Note_off_c, 10, 75, 56
11, 135660, Note_on_c, 10, 75, 94
11, 135705, Note_off_c, 10, 75, 56
11, 135720, Note_on_c, 10, 75, 97
11, 135765, Note_off_c, 10, 75, 56
11, 135780, Note_on_c, 10, 75, 98
11, 135825, Note_off_c, 10, 75, 56
11, 135840, Note_on_c, 10, 75, 99
11, 135885, Note_off_c, 10, 75, 56
11, 135900, Note_on_c, 10, 75, 101
11, 135945, Note_off_c, 10, 75, 56
11, 135960, Note_on_c, 10, 75, 102
11, 136005, Note_off_c, 10, 75, 56
11, 136020, Note_on_c, 10, 75, 105
11, 136065, Note_off_c, 10, 75, 56
11, 136080, Note_on_c, 10, 75, 106
11, 136125, Note_off_c, 10, 75, 56
11, 136140, Note_on_c, 10, 75, 108
11, 136185, Note_off_c, 10, 75, 56
11, 136200, Note_on_c, 10, 75, 109
11, 136245, Note_off_c, 10, 75, 56
11, 136260, Note_on_c, 10, 75, 110
11, 136305, Note_off_c, 10, 75, 56
11, 136320, Note_on_c, 10, 76, 113
11, 136365, Note_off_c, 10, 76, 56
11, 136380, Note_on_c, 10, 76, 113
11, 136425, Note_off_c, 10, 76, 56
11, 136440, Note_on_c, 10, 76, 113
11, 136485, Note_off_c, 10, 76, 56
11, 136500, Note_on_c, 10, 76, 113
11, 136545, Note_off_c, 10, 76, 56
11, 136560, Note_on_c, 10, 76, 113
11, 136605, Note_off_c, 10, 76, 56
11, 136620, Note_on_c, 10, 76, 113
11, 136665, Note_off_c, 10, 76, 56
11, 136680, Note_on_c, 10, 76, 113
11, 136725, Note_off_c, 10, 76, 56
11, 136740, Note_on_c, 10, 76, 113
11, 136785, Note_off_c, 10, 76, 56
11, 136800, Control_c, 10, 0, 0
11, 136800, Control_c, 10, 7, 100
11, 136800, Control_c, 10, 32, 8
11, 136800, Program_c, 10, 50
11, 136800, Note_on_c, 10, 76, 113
11, 136845, Note_off_c, 10, 76, 56
11, 136860, Note_on_c, 10, 60, 113
11, 136905, Note_off_c, 10, 60, 56
11, 136920, Note_on_c, 10, 62, 113
11, 136965, Note_off_c, 10, 62, 56
11, 136980, Note_on_c, 10, 64, 113
11, 137025, Note_off_c, 10, 64, 56
11, 137040, Note_on_c, 10, 65, 113
11, 137085, Note_off_c, 10, 65, 56
11, 137100, Note_on_c, 10, 67, 113
11, 137145, Note_off_c, 10, 67, 56
11, 137160, Note_on_c, 10, 69, 113
11, 137205, Note_off_c, 10, 69, 56
11, 137220, Note_on_c, 10, 71, 113
11, 137265, Note_off_c, 10, 71, 56
11, 137280, Note_on_c, 10, 72, 113
11, 137325, Note_off_c, 10, 72, 56
11, 137340, Note_on_c, 10, 64, 113
11, 137385, Note_off_c, 10, 64, 56
11, 137400, Note_on_c, 10, 65, 113
11, 137445, Note_off_c, 10, 65, 56
11, 137460, Note_on_c, 10, 67, 113
11, 137505, Note_off_c, 10, 67, 56
11, 137520, Note_on_c, 10, 69, 113
11, 137565, Note_off_c, 10, 69, 56
11, 137580, Note_on_c, 10, 71, 113
11, 137625, Note_off_c, 10, 71, 56
11, 137640, Note_on_c, 10, 72, 113
11, 137685, Note_off_c, 10, 72, 56
11, 137700, Note_on_c, 10, 74, 113
11, 137745, Note_off_c, 10, 74, 56
11, 137760, Note_on_c, 10, 76, 113
11, 137805, Note_off_c, 10, 76, 56
11, 137820, Note_on_c, 10, 72, 113
11, 137865, Note_off_c, 10, 72, 56
11, 137880, Note_on_c, 10, 74, 113
11, 137925, Note_off_c, 10, 74, 56
11, 137940, Note_on_c, 10, 76, 113
11, 137985, Note_off_c, 10, 76, 56
11, 138000, Note_on_c, 10, 77, 113
11, 138045, Note_off_c, 10, 77, 56
11, 138060, Note_on_c, 10, 79, 113
11, 138105, Note_off_c, 10, 79, 56
11, 138120, Note_on_c, 10, 81, 113
11, 138165, Note_off_c, 10, 81, 56
11, 138180, Note_on_c, 10, 83, 113
11, 138225, Note_off_c, 10, 83, 56
11, 138240, Note_on_c, 10, 84, 113
11, 138285, Note_off_c, 10, 84, 56
11, 138300, Note_on_c, 10, 86, 113
11, 138345, Note_off_c, 10, 86, 56
11, 138360, Note_on_c, 10, 88, 113
11, 138405, Note_off_c, 10, 88, 56
11, 138420, Note_on_c, 10, 89, 113
11, 138465, Note_off_c, 10, 89, 56
11, 138480, Note_on_c, 10, 91, 113
11, 138525, Note_off_c, 10, 91, 56
11, 138540, Note_on_c, 10, 91, 113
11, 138585, Note_off_c, 10, 91, 56
11, 138600, Note_on_c, 10, 91, 113
11, 138645, Note_off_c, 10, 91, 56
11, 138660, Note_on_c, 10, 91, 113
11, 138705, Note_off_c, 10, 91, 56
11, 138720, Note_on_c, 10, 91, 113
11, 138765, Note_off_c, 10, 91, 56
11, 138780, Note_on_c, 10, 91, 113
11, 138825, Note_off_c, 10, 91, 56
11, 138840, Note_on_c, 10, 91, 113
11, 138885, Note_off_c, 10, 91, 56
11, 138900, Note_on_c, 10, 91, 113
11, 138945, Note_off_c, 10, 91, 56
11, 138960, Note_on_c, 10, 91, 113
11, 139005, Note_off_c, 10, 91, 56
11, 139020, Note_on_c, 10, 91, 113
11, 139065, Note_off_c, 10, 91, 56
11, 139080, Note_on_c, 10, 91, 113
11, 139125, Note_off_c, 10, 91, 56
11, 139140, Note_on_c, 10, 91, 113
11, 139185, Note_off_c, 10, 91, 56
11, 139200, Note_on_c, 10, 91, 113
11, 139245, Note_off_c, 10, 91, 56
11, 139260, Note_on_c, 10, 91, 113
11, 139305, Note_off_c, 10, 91, 56
11, 139320, Note_on_c, 10, 90, 113
11, 139365, Note_off_c, 10, 90, 56
11, 139380, Note_on_c, 10, 88, 113
11, 139425, Note_off_c, 10, 88, 56
11, 139440, Note_on_c, 10, 86, 113
11, 139485, Note_off_c, 10, 86, 56
11, 139500, Note_on_c, 10, 84, 113
11, 139545, Note_off_c, 10, 84, 56
11, 139560, Note_on_c, 10, 83, 113
11, 139605, Note_off_c, 10, 83, 56
11, 139620, Note_on_c, 10, 81, 113
11, 139665, Note_off_c, 10, 81, 56
11, 139680, Note_on_c, 10, 79, 113
11, 139725, Note_off_c, 10, 79, 56
11, 139740, Note_on_c, 10, 78, 113
11, 139785, Note_off_c, 10, 78, 56
11, 139800, Note_on_c, 10, 76, 113
11, 139845, Note_off_c, 10, 76, 56
11, 139860, Note_on_c, 10, 74, 113
11, 139905, Note_off_c, 10, 74, 56
11, 139920, Note_on_c, 10, 72, 113
11, 139965, Note_off_c, 10, 72, 56
11, 139980, Note_on_c, 10, 71, 113
11, 140025, Note_off_c, 10, 71, 56
11, 140040, Note_on_c, 10, 69, 113
11, 140085, Note_off_c, 10, 69, 56
11, 140100, Note_on_c, 10, 67, 113
11, 140145, Note_off_c, 10, 67, 56
11, 140162, Note_on_c, 10, 72, 108
11, 140298, Note_off_c, 10, 72, 64
11, 141121, Note_on_c, 10, 62, 108
11, 141257, Note_off_c, 10, 62, 64
11, 143640, Note_on_c, 10, 74, 78
11, 143694, Note_off_c, 10, 74, 56
11, 143701, Note_on_c, 10, 76, 78
11, 143755, Note_off_c, 10, 76, 56
11, 143760, Note_on_c, 10, 78, 78
11, 143814, Note_off_c, 10, 78, 56
11, 143820, Note_on_c, 10, 79, 78
11, 143874, Note_off_c, 10, 79, 56
11, 143879, Note_on_c, 10, 81, 78
11, 143933, Note_off_c, 10, 81, 56
11, 143940, Note_on_c, 10, 78, 78
11, 143994, Note_off_c, 10, 78, 56
11, 143999, Note_on_c, 10, 79, 73
11, 144181, Note_off_c, 10, 79, 64
11, 145559, Note_on_c, 10, 74, 78
11, 145613, Note_off_c, 10, 74, 56
11, 145621, Note_on_c, 10, 76, 78
11, 145675, Note_off_c, 10, 76, 56
11, 145681, Note_on_c, 10, 78, 78
11, 145735, Note_off_c, 10, 78, 56
11, 145740, Note_on_c, 10, 79, 78
11, 145794, Note_off_c, 10, 79, 56
11, 145801, Note_on_c, 10, 81, 78
11, 145855, Note_off_c, 10, 81, 56
11, 145860, Note_on_c, 10, 83, 78
11, 145914, Note_off_c, 10, 83, 56
11, 145922, Note_on_c, 10, 84, 96
11, 146104, Note_off_c, 10, 84, 64
11, 147481, Note_on_c, 10, 80, 78
11, 147535, Note_off_c, 10, 80, 56
11, 147539, Note_on_c, 10, 81, 78
11, 147593, Note_off_c, 10, 81, 56
11, 147599, Note_on_c, 10, 83, 78
11, 147653, Note_off_c, 10, 83, 56
11, 147660, Note_on_c, 10, 84, 78
11, 147714, Note_off_c, 10, 84, 56
11, 147720, Note_on_c, 10, 86, 78
11, 147774, Note_off_c, 10, 86, 56
11, 147781, Note_on_c, 10, 83, 78
11, 147835, Note_off_c, 10, 83, 56
11, 147842, Note_on_c, 10, 88, 73
11, 148024, Note_off_c, 10, 88, 64
11, 148381, Note_on_c, 10, 76, 78
11, 148435, Note_off_c, 10, 76, 56
11, 148440, Note_on_c, 10, 78, 78
11, 148494, Note_off_c, 10, 78, 56
11, 148499, Note_on_c, 10, 80, 78
11, 148553, Note_off_c, 10, 80, 56
11, 148559, Note_on_c, 10, 81, 78
11, 148613, Note_off_c, 10, 81, 56
11, 148621, Note_on_c, 10, 83, 78
11, 148675, Note_off_c, 10, 83, 56
11, 148681, Note_on_c, 10, 84, 78
11, 148735, Note_off_c, 10, 84, 56
11, 148739, Note_on_c, 10, 81, 78
11, 148793, Note_off_c, 10, 81, 56
11, 148799, Note_on_c, 10, 86, 73
11, 148981, Note_off_c, 10, 86, 64
11, 149400, Note_on_c, 10, 69, 78
11, 149445, Note_off_c, 10, 69, 56
11, 149460, Note_on_c, 10, 71, 78
11, 149505, Note_off_c, 10, 71, 56
11, 149520, Note_on_c, 10, 72, 78
11, 149565, Note_off_c, 10, 72, 56
11, 149580, Note_on_c, 10, 74, 78
11, 149625, Note_off_c, 10, 74, 56
11, 149640, Note_on_c, 10, 76, 78
11, 149685, Note_off_c, 10, 76, 56
11, 149700, Note_on_c, 10, 78, 78
11, 149745, Note_off_c, 10, 78, 56
11, 149760, Note_on_c, 10, 79, 95
11, 149760, Control_c, 10, 7, 120
11, 149760, Program_c, 10, 44
11, 149805, Note_off_c, 10, 79, 56
11, 149820, Note_on_c, 10, 79, 95
11, 149865, Note_off_c, 10, 79, 56
11, 149880, Note_on_c, 10, 79, 95
11, 149925, Note_off_c, 10, 79, 56
11, 149940, Note_on_c, 10, 79, 95
11, 149985, Note_off_c, 10, 79, 56
11, 150000, Note_on_c, 10, 79, 95
11, 150045, Note_off_c, 10, 79, 56
11, 150060, Note_on_c, 10, 79, 95
11, 150105, Note_off_c, 10, 79, 56
11, 150120, Note_on_c, 10, 79, 95
11, 150165, Note_off_c, 10, 79, 56
11, 150180, Note_on_c, 10, 79, 95
11, 150225, Note_off_c, 10, 79, 56
11, 150240, Note_on_c, 10, 79, 95
11, 150285, Note_off_c, 10, 79, 56
11, 150300, Note_on_c, 10, 79, 95
11, 150345, Note_off_c, 10, 79, 56
11, 150360, Note_on_c, 10, 79, 95
11, 150405, Note_off_c, 10, 79, 56
11, 150420, Note_on_c, 10, 79, 95
11, 150465, Note_off_c, 10, 79, 56
11, 150480, Note_on_c, 10, 78, 95
11, 150525, Note_off_c, 10, 78, 56
11, 150540, Note_on_c, 10, 78, 95
11, 150585, Note_off_c, 10, 78, 56
11, 150600, Note_on_c, 10, 78, 95
11, 150645, Note_off_c, 10, 78, 56
11, 150660, Note_on_c, 10, 78, 95
11, 150705, Note_off_c, 10, 78, 56
11, 150720, Note_on_c, 10, 76, 95
11, 150765, Note_off_c, 10, 76, 56
11, 150780, Note_on_c, 10, 76, 95
11, 150825, Note_off_c, 10, 76, 56
11, 150840, Note_on_c, 10, 76, 95
11, 150885, Note_off_c, 10, 76, 56
11, 150900, Note_on_c, 10, 76, 95
11, 150945, Note_off_c, 10, 76, 56
11, 150960, Note_on_c, 10, 74, 95
11, 151005, Note_off_c, 10, 74, 56
11, 151020, Note_on_c, 10, 74, 95
11, 151065, Note_off_c, 10, 74, 56
11, 151080, Note_on_c, 10, 74, 95
11, 151125, Note_off_c, 10, 74, 56
11, 151140, Note_on_c, 10, 74, 95
11, 151185, Note_off_c, 10, 74, 56
11, 151200, Note_on_c, 10, 74, 95
11, 151245, Note_off_c, 10, 74, 56
11, 151260, Note_on_c, 10, 74, 95
11, 151305, Note_off_c, 10, 74, 56
11, 151320, Note_on_c, 10, 74, 95
11, 151365, Note_off_c, 10, 74, 56
11, 151380, Note_on_c, 10, 74, 95
11, 151425, Note_off_c, 10, 74, 56
11, 151440, Note_on_c, 10, 74, 95
11, 151485, Note_off_c, 10, 74, 56
11, 151500, Note_on_c, 10, 74, 95
11, 151545, Note_off_c, 10, 74, 56
11, 151560, Note_on_c, 10, 74, 95
11, 151605, Note_off_c, 10, 74, 56
11, 151620, Note_on_c, 10, 74, 95
11, 151665, Note_off_c, 10, 74, 56
11, 151680, Note_on_c, 10, 79, 95
11, 151725, Note_off_c, 10, 79, 56
11, 151740, Note_on_c, 10, 79, 95
11, 151785, Note_off_c, 10, 79, 56
11, 151800, Note_on_c, 10, 79, 95
11, 151845, Note_off_c, 10, 79, 56
11, 151860, Note_on_c, 10, 79, 95
11, 151905, Note_off_c, 10, 79, 56
11, 151920, Note_on_c, 10, 79, 95
11, 151965, Note_off_c, 10, 79, 56
11, 151980, Note_on_c, 10, 79, 95
11, 152025, Note_off_c, 10, 79, 56
11, 152040, Note_on_c, 10, 79, 95
11, 152085, Note_off_c, 10, 79, 56
11, 152100, Note_on_c, 10, 79, 95
11, 152145, Note_off_c, 10, 79, 56
11, 152160, Note_on_c, 10, 79, 95
11, 152205, Note_off_c, 10, 79, 56
11, 152220, Note_on_c, 10, 79, 95
11, 152265, Note_off_c, 10, 79, 56
11, 152280, Note_on_c, 10, 79, 95
11, 152325, Note_off_c, 10, 79, 56
11, 152340, Note_on_c, 10, 79, 95
11, 152385, Note_off_c, 10, 79, 56
11, 152400, Note_on_c, 10, 78, 95
11, 152445, Note_off_c, 10, 78, 56
11, 152460, Note_on_c, 10, 78, 95
11, 152505, Note_off_c, 10, 78, 56
11, 152520, Note_on_c, 10, 78, 95
11, 152565, Note_off_c, 10, 78, 56
11, 152580, Note_on_c, 10, 78, 95
11, 152625, Note_off_c, 10, 78, 56
11, 152640, Note_on_c, 10, 76, 95
11, 152685, Note_off_c, 10, 76, 56
11, 152700, Note_on_c, 10, 76, 95
11, 152745, Note_off_c, 10, 76, 56
11, 152760, Note_on_c, 10, 76, 95
11, 152805, Note_off_c, 10, 76, 56
11, 152820, Note_on_c, 10, 76, 95
11, 152865, Note_off_c, 10, 76, 56
11, 152880, Note_on_c, 10, 74, 95
11, 152925, Note_off_c, 10, 74, 56
11, 152940, Note_on_c, 10, 74, 95
11, 152985, Note_off_c, 10, 74, 56
11, 153000, Note_on_c, 10, 74, 95
11, 153045, Note_off_c, 10, 74, 56
11, 153060, Note_on_c, 10, 74, 95
11, 153105, Note_off_c, 10, 74, 56
11, 153120, Note_on_c, 10, 74, 95
11, 153165, Note_off_c, 10, 74, 56
11, 153180, Note_on_c, 10, 74, 95
11, 153225, Note_off_c, 10, 74, 56
11, 153240, Note_on_c, 10, 74, 95
11, 153285, Note_off_c, 10, 74, 56
11, 153300, Note_on_c, 10, 74, 95
11, 153345, Note_off_c, 10, 74, 56
11, 153360, Note_on_c, 10, 74, 95
11, 153405, Note_off_c, 10, 74, 56
11, 153420, Note_on_c, 10, 74, 95
11, 153465, Note_off_c, 10, 74, 56
11, 153480, Note_on_c, 10, 74, 95
11, 153525, Note_off_c, 10, 74, 56
11, 153540, Note_on_c, 10, 74, 95
11, 153585, Note_off_c, 10, 74, 56
11, 153600, Note_on_c, 10, 84, 95
11, 153645, Note_off_c, 10, 84, 56
11, 153660, Note_on_c, 10, 84, 95
11, 153705, Note_off_c, 10, 84, 56
11, 153720, Note_on_c, 10, 84, 95
11, 153765, Note_off_c, 10, 84, 56
11, 153780, Note_on_c, 10, 84, 97
11, 153825, Note_off_c, 10, 84, 56
11, 153840, Note_on_c, 10, 84, 97
11, 153885, Note_off_c, 10, 84, 56
11, 153900, Note_on_c, 10, 84, 97
11, 153945, Note_off_c, 10, 84, 56
11, 153960, Note_on_c, 10, 84, 97
11, 154005, Note_off_c, 10, 84, 56
11, 154020, Note_on_c, 10, 84, 98
11, 154065, Note_off_c, 10, 84, 56
11, 154080, Note_on_c, 10, 84, 98
11, 154125, Note_off_c, 10, 84, 56
11, 154140, Note_on_c, 10, 84, 98
11, 154185, Note_off_c, 10, 84, 56
11, 154200, Note_on_c, 10, 84, 98
11, 154245, Note_off_c, 10, 84, 56
11, 154260, Note_on_c, 10, 84, 99
11, 154305, Note_off_c, 10, 84, 56
11, 154320, Note_on_c, 10, 83, 99
11, 154365, Note_off_c, 10, 83, 56
11, 154380, Note_on_c, 10, 83, 99
11, 154425, Note_off_c, 10, 83, 56
11, 154440, Note_on_c, 10, 83, 99
11, 154485, Note_off_c, 10, 83, 56
11, 154500, Note_on_c, 10, 83, 99
11, 154545, Note_off_c, 10, 83, 56
11, 154560, Note_on_c, 10, 81, 100
11, 154605, Note_off_c, 10, 81, 56
11, 154620, Note_on_c, 10, 81, 100
11, 154665, Note_off_c, 10, 81, 56
11, 154680, Note_on_c, 10, 81, 100
11, 154725, Note_off_c, 10, 81, 56
11, 154740, Note_on_c, 10, 81, 100
11, 154785, Note_off_c, 10, 81, 56
11, 154800, Note_on_c, 10, 80, 101
11, 154845, Note_off_c, 10, 80, 56
11, 154860, Note_on_c, 10, 80, 101
11, 154905, Note_off_c, 10, 80, 56
11, 154920, Note_on_c, 10, 80, 101
11, 154965, Note_off_c, 10, 80, 56
11, 154980, Note_on_c, 10, 80, 101
11, 155025, Note_off_c, 10, 80, 56
11, 155040, Note_on_c, 10, 80, 102
11, 155085, Note_off_c, 10, 80, 56
11, 155100, Note_on_c, 10, 80, 102
11, 155145, Note_off_c, 10, 80, 56
11, 155160, Note_on_c, 10, 80, 102
11, 155205, Note_off_c, 10, 80, 56
11, 155220, Note_on_c, 10, 80, 102
11, 155265, Note_off_c, 10, 80, 56
11, 155280, Note_on_c, 10, 80, 102
11, 155325, Note_off_c, 10, 80, 56
11, 155340, Note_on_c, 10, 80, 103
11, 155385, Note_off_c, 10, 80, 56
11, 155400, Note_on_c, 10, 80, 103
11, 155445, Note_off_c, 10, 80, 56
11, 155460, Note_on_c, 10, 80, 103
11, 155505, Note_off_c, 10, 80, 56
11, 155520, Note_on_c, 10, 80, 103
11, 155565, Note_off_c, 10, 80, 56
11, 155580, Note_on_c, 10, 80, 105
11, 155625, Note_off_c, 10, 80, 56
11, 155640, Note_on_c, 10, 80, 105
11, 155685, Note_off_c, 10, 80, 56
11, 155700, Note_on_c, 10, 80, 105
11, 155745, Note_off_c, 10, 80, 56
11, 155760, Note_on_c, 10, 80, 105
11, 155805, Note_off_c, 10, 80, 56
11, 155820, Note_on_c, 10, 80, 106
11, 155865, Note_off_c, 10, 80, 56
11, 155880, Note_on_c, 10, 80, 106
11, 155925, Note_off_c, 10, 80, 56
11, 155940, Note_on_c, 10, 80, 106
11, 155985, Note_off_c, 10, 80, 56
11, 156000, Note_on_c, 10, 80, 106
11, 156045, Note_off_c, 10, 80, 56
11, 156060, Note_on_c, 10, 80, 106
11, 156105, Note_off_c, 10, 80, 56
11, 156120, Note_on_c, 10, 80, 107
11, 156165, Note_off_c, 10, 80, 56
11, 156180, Note_on_c, 10, 80, 107
11, 156225, Note_off_c, 10, 80, 56
11, 156240, Note_on_c, 10, 80, 107
11, 156285, Note_off_c, 10, 80, 56
11, 156300, Note_on_c, 10, 80, 107
11, 156345, Note_off_c, 10, 80, 56
11, 156360, Note_on_c, 10, 80, 108
11, 156405, Note_off_c, 10, 80, 56
11, 156420, Note_on_c, 10, 80, 108
11, 156465, Note_off_c, 10, 80, 56
11, 156480, Note_on_c, 10, 80, 108
11, 156525, Note_off_c, 10, 80, 56
11, 156540, Note_on_c, 10, 80, 108
11, 156585, Note_off_c, 10, 80, 56
11, 156600, Note_on_c, 10, 80, 109
11, 156645, Note_off_c, 10, 80, 56
11, 156660, Note_on_c, 10, 80, 109
11, 156705, Note_off_c, 10, 80, 56
11, 156720, Note_on_c, 10, 84, 109
11, 156765, Note_off_c, 10, 84, 56
11, 156780, Note_on_c, 10, 84, 109
11, 156825, Note_off_c, 10, 84, 56
11, 156840, Note_on_c, 10, 84, 110
11, 156885, Note_off_c, 10, 84, 56
11, 156900, Note_on_c, 10, 84, 110
11, 156945, Note_off_c, 10, 84, 56
11, 156960, Note_on_c, 10, 84, 110
11, 157005, Note_off_c, 10, 84, 56
11, 157020, Note_on_c, 10, 84, 110
11, 157065, Note_off_c, 10, 84, 56
11, 157080, Note_on_c, 10, 84, 110
11, 157125, Note_off_c, 10, 84, 56
11, 157140, Note_on_c, 10, 84, 111
11, 157185, Note_off_c, 10, 84, 56
11, 157200, Note_on_c, 10, 84, 111
11, 157245, Note_off_c, 10, 84, 56
11, 157260, Note_on_c, 10, 84, 111
11, 157305, Note_off_c, 10, 84, 56
11, 157320, Note_on_c, 10, 84, 111
11, 157365, Note_off_c, 10, 84, 56
11, 157380, Note_on_c, 10, 84, 113
11, 157425, Note_off_c, 10, 84, 56
11, 157440, Control_c, 10, 7, 100
11, 157443, Note_on_c, 10, 89, 108
11, 157452, Control_c, 10, 0, 0
11, 157452, Control_c, 10, 32, 8
11, 157452, Program_c, 10, 50
11, 159171, Note_off_c, 10, 89, 64
11, 159359, Note_on_c, 10, 55, 108
11, 159427, Note_off_c, 10, 55, 56
11, 159479, Note_on_c, 10, 55, 108
11, 159547, Note_off_c, 10, 55, 56
11, 159599, Note_on_c, 10, 59, 108
11, 159667, Note_off_c, 10, 59, 56
11, 159721, Note_on_c, 10, 55, 108
11, 159812, Note_off_c, 10, 55, 56
11, 159840, Note_on_c, 10, 59, 108
11, 159931, Note_off_c, 10, 59, 56
11, 159961, Note_on_c, 10, 55, 108
11, 160029, Note_off_c, 10, 55, 56
11, 160081, Note_on_c, 10, 62, 108
11, 160149, Note_off_c, 10, 62, 56
11, 160201, Note_on_c, 10, 59, 108
11, 160292, Note_off_c, 10, 59, 56
11, 160321, Note_on_c, 10, 62, 108
11, 160389, Note_off_c, 10, 62, 56
11, 160441, Note_on_c, 10, 59, 108
11, 160509, Note_off_c, 10, 59, 56
11, 160560, Note_on_c, 10, 65, 108
11, 160628, Note_off_c, 10, 65, 56
11, 160679, Note_on_c, 10, 62, 108
11, 160770, Note_off_c, 10, 62, 56
11, 160800, Note_on_c, 10, 65, 108
11, 160868, Note_off_c, 10, 65, 56
11, 160920, Note_on_c, 10, 62, 108
11, 160988, Note_off_c, 10, 62, 56
11, 161040, Note_on_c, 10, 71, 108
11, 161131, Note_off_c, 10, 71, 56
11, 161159, Note_on_c, 10, 65, 108
11, 161250, Note_off_c, 10, 65, 56
11, 161281, Note_on_c, 10, 71, 108
11, 161349, Note_off_c, 10, 71, 56
11, 161400, Note_on_c, 10, 65, 108
11, 161468, Note_off_c, 10, 65, 56
11, 161519, Note_on_c, 10, 74, 108
11, 161587, Note_off_c, 10, 74, 56
11, 161639, Note_on_c, 10, 71, 108
11, 161707, Note_off_c, 10, 71, 56
11, 161760, Note_on_c, 10, 77, 108
11, 161828, Note_off_c, 10, 77, 56
11, 161879, Note_on_c, 10, 74, 108
11, 161947, Note_off_c, 10, 74, 56
11, 162001, Note_on_c, 10, 83, 108
11, 162069, Note_off_c, 10, 83, 56
11, 162120, Note_on_c, 10, 77, 108
11, 162188, Note_off_c, 10, 77, 56
11, 162241, Note_on_c, 10, 86, 108
11, 162332, Note_off_c, 10, 86, 56
11, 162359, Note_on_c, 10, 83, 108
11, 162360, Control_c, 10, 7, 120
11, 162360, Program_c, 10, 44
11, 162450, Note_off_c, 10, 83, 56
11, 162480, Note_on_c, 10, 89, 113
11, 162525, Note_off_c, 10, 89, 56
11, 162540, Note_on_c, 10, 89, 113
11, 162585, Note_off_c, 10, 89, 56
11, 162600, Note_on_c, 10, 89, 113
11, 162645, Note_off_c, 10, 89, 56
11, 162660, Note_on_c, 10, 89, 113
11, 162705, Note_off_c, 10, 89, 56
11, 162720, Note_on_c, 10, 89, 113
11, 162765, Note_off_c, 10, 89, 56
11, 162780, Note_on_c, 10, 89, 113
11, 162825, Note_off_c, 10, 89, 56
11, 162840, Note_on_c, 10, 89, 113
11, 162885, Note_off_c, 10, 89, 56
11, 162900, Note_on_c, 10, 89, 113
11, 162945, Note_off_c, 10, 89, 56
11, 162960, Note_on_c, 10, 89, 113
11, 163005, Note_off_c, 10, 89, 56
11, 163020, Note_on_c, 10, 89, 113
11, 163065, Note_off_c, 10, 89, 56
11, 163080, Note_on_c, 10, 89, 113
11, 163125, Note_off_c, 10, 89, 56
11, 163140, Note_on_c, 10, 89, 113
11, 163185, Note_off_c, 10, 89, 56
11, 163200, Note_on_c, 10, 76, 113
11, 163245, Note_off_c, 10, 76, 56
11, 163260, Note_on_c, 10, 76, 113
11, 163305, Note_off_c, 10, 76, 56
11, 163320, Note_on_c, 10, 76, 113
11, 163365, Note_off_c, 10, 76, 56
11, 163380, Note_on_c, 10, 76, 113
11, 163425, Note_off_c, 10, 76, 56
11, 163440, Note_on_c, 10, 76, 113
11, 163485, Note_off_c, 10, 76, 56
11, 163500, Note_on_c, 10, 76, 113
11, 163545, Note_off_c, 10, 76, 56
11, 163560, Note_on_c, 10, 76, 113
11, 163605, Note_off_c, 10, 76, 56
11, 163620, Note_on_c, 10, 76, 113
11, 163665, Note_off_c, 10, 76, 56
11, 163680, Note_on_c, 10, 76, 113
11, 163725, Note_off_c, 10, 76, 56
11, 163740, Note_on_c, 10, 76, 113
11, 163785, Note_off_c, 10, 76, 56
11, 163800, Note_on_c, 10, 76, 113
11, 163845, Note_off_c, 10, 76, 56
11, 163860, Note_on_c, 10, 76, 113
11, 163905, Note_off_c, 10, 76, 56
11, 163920, Note_on_c, 10, 76, 113
11, 163965, Note_off_c, 10, 76, 56
11, 163980, Note_on_c, 10, 76, 113
11, 164025, Note_off_c, 10, 76, 56
11, 164040, Note_on_c, 10, 76, 113
11, 164085, Note_off_c, 10, 76, 56
11, 164100, Note_on_c, 10, 76, 113
11, 164145, Note_off_c, 10, 76, 56
11, 164160, Note_on_c, 10, 76, 113
11, 164205, Note_off_c, 10, 76, 56
11, 164220, Note_on_c, 10, 76, 113
11, 164265, Note_off_c, 10, 76, 56
11, 164280, Note_on_c, 10, 76, 113
11, 164325, Note_off_c, 10, 76, 56
11, 164340, Note_on_c, 10, 76, 113
11, 164385, Note_off_c, 10, 76, 56
11, 164400, Note_on_c, 10, 76, 113
11, 164445, Note_off_c, 10, 76, 56
11, 164460, Note_on_c, 10, 76, 113
11, 164505, Note_off_c, 10, 76, 56
11, 164520, Note_on_c, 10, 76, 113
11, 164565, Note_off_c, 10, 76, 56
11, 164580, Note_on_c, 10, 76, 113
11, 164625, Note_off_c, 10, 76, 56
11, 164640, Note_on_c, 10, 76, 113
11, 164685, Note_off_c, 10, 76, 56
11, 164700, Note_on_c, 10, 76, 113
11, 164745, Note_off_c, 10, 76, 56
11, 164760, Note_on_c, 10, 76, 113
11, 164805, Note_off_c, 10, 76, 56
11, 164820, Note_on_c, 10, 76, 113
11, 164865, Note_off_c, 10, 76, 56
11, 164880, Note_on_c, 10, 76, 113
11, 164925, Note_off_c, 10, 76, 56
11, 164940, Note_on_c, 10, 76, 113
11, 164985, Note_off_c, 10, 76, 56
11, 165000, Note_on_c, 10, 76, 113
11, 165045, Note_off_c, 10, 76, 56
11, 165060, Note_on_c, 10, 76, 113
11, 165105, Note_off_c, 10, 76, 56
11, 165120, Note_on_c, 10, 76, 113
11, 165165, Note_off_c, 10, 76, 56
11, 165180, Note_on_c, 10, 76, 113
11, 165225, Note_off_c, 10, 76, 56
11, 165240, Note_on_c, 10, 76, 113
11, 165285, Note_off_c, 10, 76, 56
11, 165300, Note_on_c, 10, 76, 113
11, 165345, Note_off_c, 10, 76, 56
11, 165360, Note_on_c, 10, 76, 113
11, 165405, Note_off_c, 10, 76, 56
11, 165420, Note_on_c, 10, 76, 113
11, 165465, Note_off_c, 10, 76, 56
11, 165480, Note_on_c, 10, 76, 113
11, 165525, Note_off_c, 10, 76, 56
11, 165540, Note_on_c, 10, 76, 113
11, 165585, Note_off_c, 10, 76, 56
11, 165600, Note_on_c, 10, 76, 113
11, 165645, Note_off_c, 10, 76, 56
11, 165660, Note_on_c, 10, 76, 113
11, 165705, Note_off_c, 10, 76, 56
11, 165720, Note_on_c, 10, 76, 113
11, 165765, Note_off_c, 10, 76, 56
11, 165780, Note_on_c, 10, 76, 113
11, 165825, Note_off_c, 10, 76, 56
11, 165840, Note_on_c, 10, 76, 113
11, 165885, Note_off_c, 10, 76, 56
11, 165900, Note_on_c, 10, 76, 113
11, 165945, Note_off_c, 10, 76, 56
11, 165960, Note_on_c, 10, 76, 113
11, 166005, Note_off_c, 10, 76, 56
11, 166020, Note_on_c, 10, 76, 113
11, 166065, Note_off_c, 10, 76, 56
11, 166080, Note_on_c, 10, 76, 113
11, 166125, Note_off_c, 10, 76, 56
11, 166140, Note_on_c, 10, 76, 113
11, 166185, Note_off_c, 10, 76, 56
11, 166200, Note_on_c, 10, 76, 113
11, 166245, Note_off_c, 10, 76, 56
11, 166260, Note_on_c, 10, 76, 113
11, 166305, Note_off_c, 10, 76, 56
11, 166320, Note_on_c, 10, 76, 113
11, 166365, Note_off_c, 10, 76, 56
11, 166380, Note_on_c, 10, 76, 113
11, 166425, Note_off_c, 10, 76, 56
11, 166440, Note_on_c, 10, 76, 113
11, 166485, Note_off_c, 10, 76, 56
11, 166500, Note_on_c, 10, 76, 113
11, 166545, Note_off_c, 10, 76, 56
11, 166560, Note_on_c, 10, 76, 113
11, 166605, Note_off_c, 10, 76, 56
11, 166620, Note_on_c, 10, 76, 113
11, 166665, Note_off_c, 10, 76, 56
11, 166680, Note_on_c, 10, 76, 113
11, 166725, Note_off_c, 10, 76, 56
11, 166740, Note_on_c, 10, 76, 113
11, 166785, Note_off_c, 10, 76, 56
11, 166800, Note_on_c, 10, 76, 113
11, 166845, Note_off_c, 10, 76, 56
11, 166860, Note_on_c, 10, 76, 113
11, 166905, Note_off_c, 10, 76, 56
11, 166920, Note_on_c, 10, 76, 113
11, 166920, Note_on_c, 10, 76, 113
11, 166965, Note_off_c, 10, 76, 56
11, 166965, Note_off_c, 10, 76, 56
11, 166980, Note_on_c, 10, 76, 113
11, 167025, Note_off_c, 10, 76, 56
11, 167037, Note_on_c, 10, 88, 108
11, 167040, Control_c, 10, 7, 100
11, 167041, Note_on_c, 10, 76, 108
11, 167052, Control_c, 10, 0, 0
11, 167052, Control_c, 10, 32, 8
11, 167052, Program_c, 10, 50
11, 167219, Note_off_c, 10, 88, 64
11, 167223, Note_off_c, 10, 76, 64
11, 167281, Note_on_c, 10, 73, 108
11, 167353, Note_off_c, 10, 73, 56
11, 167360, Note_on_c, 10, 74, 108
11, 167432, Note_off_c, 10, 74, 56
11, 167440, Note_on_c, 10, 76, 108
11, 167512, Note_off_c, 10, 76, 56
11, 167518, Note_on_c, 10, 78, 108
11, 167700, Note_off_c, 10, 78, 64
11, 167761, Note_on_c, 10, 78, 108
11, 167833, Note_off_c, 10, 78, 56
11, 167840, Note_on_c, 10, 80, 108
11, 167912, Note_off_c, 10, 80, 56
11, 167921, Note_on_c, 10, 81, 113
11, 167981, Note_off_c, 10, 81, 56
11, 167998, Note_on_c, 10, 76, 108
11, 168646, Note_off_c, 10, 76, 64
11, 168721, Note_on_c, 10, 76, 73
11, 168793, Note_off_c, 10, 76, 56
11, 168800, Note_on_c, 10, 74, 73
11, 168872, Note_off_c, 10, 74, 56
11, 168880, Note_on_c, 10, 73, 73
11, 168952, Note_off_c, 10, 73, 56
11, 168957, Note_on_c, 10, 71, 73
11, 169173, Note_off_c, 10, 71, 64
11, 169200, Note_on_c, 10, 74, 73
11, 169272, Note_off_c, 10, 74, 56
11, 169279, Note_on_c, 10, 73, 73
11, 169351, Note_off_c, 10, 73, 56
11, 169360, Note_on_c, 10, 71, 73
11, 169432, Note_off_c, 10, 71, 56
11, 169439, Note_on_c, 10, 69, 73
11, 169655, Note_off_c, 10, 69, 64
11, 169681, Note_on_c, 10, 73, 73
11, 169753, Note_off_c, 10, 73, 56
11, 169759, Note_on_c, 10, 71, 73
11, 169831, Note_off_c, 10, 71, 56
11, 169839, Note_on_c, 10, 69, 73
11, 169911, Note_off_c, 10, 69, 56
11, 169921, Note_on_c, 10, 68, 73
11, 170057, Note_off_c, 10, 68, 64
11, 170159, Note_on_c, 10, 68, 73
11, 170231, Note_off_c, 10, 68, 56
11, 170240, Note_on_c, 10, 69, 73
11, 170312, Note_off_c, 10, 69, 56
11, 170321, Note_on_c, 10, 71, 73
11, 170393, Note_off_c, 10, 71, 56
11, 170402, Note_on_c, 10, 64, 73
11, 170618, Note_off_c, 10, 64, 64
11, 170639, Note_on_c, 10, 76, 73
11, 170711, Note_off_c, 10, 76, 56
11, 170720, Note_on_c, 10, 74, 73
11, 170792, Note_off_c, 10, 74, 56
11, 170800, Note_on_c, 10, 72, 73
11, 170872, Note_off_c, 10, 72, 56
11, 170877, Note_on_c, 10, 71, 73
11, 171093, Note_off_c, 10, 71, 64
11, 171119, Note_on_c, 10, 74, 73
11, 171191, Note_off_c, 10, 74, 56
11, 171201, Note_on_c, 10, 72, 73
11, 171273, Note_off_c, 10, 72, 56
11, 171281, Note_on_c, 10, 71, 73
11, 171353, Note_off_c, 10, 71, 56
11, 171360, Note_on_c, 10, 69, 73
11, 171576, Note_off_c, 10, 69, 64
11, 171601, Note_on_c, 10, 72, 73
11, 171673, Note_off_c, 10, 72, 56
11, 171679, Note_on_c, 10, 71, 73
11, 171751, Note_off_c, 10, 71, 56
11, 171761, Note_on_c, 10, 69, 73
11, 171833, Note_off_c, 10, 69, 56
11, 171839, Note_on_c, 10, 68, 73
11, 171975, Note_off_c, 10, 68, 64
11, 172079, Note_on_c, 10, 68, 73
11, 172151, Note_off_c, 10, 68, 56
11, 172159, Note_on_c, 10, 69, 73
11, 172231, Note_off_c, 10, 69, 56
11, 172239, Note_on_c, 10, 71, 73
11, 172311, Note_off_c, 10, 71, 56
11, 172318, Note_on_c, 10, 64, 73
11, 172523, Note_off_c, 10, 64, 64
11, 172560, Note_on_c, 10, 60, 73
11, 172696, Note_off_c, 10, 60, 64
11, 172799, Note_on_c, 10, 64, 73
11, 173255, Note_off_c, 10, 64, 64
11, 173280, Note_on_c, 10, 65, 73
11, 173736, Note_off_c, 10, 65, 64
11, 173757, Note_on_c, 10, 67, 73
11, 174405, Note_off_c, 10, 67, 64
11, 174481, Note_on_c, 10, 65, 73
11, 174617, Note_off_c, 10, 65, 64
11, 174719, Note_on_c, 10, 64, 73
11, 175175, Note_off_c, 10, 64, 64
11, 175201, Note_on_c, 10, 65, 73
11, 175657, Note_off_c, 10, 65, 64
11, 175679, Note_on_c, 10, 67, 73
11, 175884, Note_off_c, 10, 67, 64
11, 176881, Note_on_c, 10, 69, 73
11, 176953, Note_off_c, 10, 69, 56
11, 176960, Note_on_c, 10, 71, 73
11, 177032, Note_off_c, 10, 71, 56
11, 177039, Note_on_c, 10, 73, 73
11, 177111, Note_off_c, 10, 73, 56
11, 177123, Note_on_c, 10, 74, 73
11, 177328, Note_off_c, 10, 74, 64
11, 178321, Note_on_c, 10, 71, 73
11, 178537, Note_off_c, 10, 71, 64
11, 178559, Note_on_c, 10, 72, 73
11, 178775, Note_off_c, 10, 72, 64
11, 178799, Note_on_c, 10, 74, 73
11, 179015, Note_off_c, 10, 74, 64
11, 179037, Note_on_c, 10, 75, 73
11, 179253, Note_off_c, 10, 75, 64
11, 179280, Note_on_c, 10, 76, 73
11, 179496, Note_off_c, 10, 76, 64
11, 179521, Note_on_c, 10, 77, 73
11, 179726, Note_off_c, 10, 77, 64
11, 180720, Note_on_c, 10, 69, 73
11, 180792, Note_off_c, 10, 69, 56
11, 180801, Note_on_c, 10, 72, 73
11, 180873, Note_off_c, 10, 72, 56
11, 180880, Note_on_c, 10, 74, 73
11, 180952, Note_off_c, 10, 74, 56
11, 180962, Note_on_c, 10, 76, 73
11, 181167, Note_off_c, 10, 76, 64
11, 182157, Note_on_c, 10, 61, 75
11, 182373, Note_off_c, 10, 61, 64
11, 182399, Note_on_c, 10, 62, 80
11, 182615, Note_off_c, 10, 62, 64
11, 182640, Note_on_c, 10, 63, 85
11, 182856, Note_off_c, 10, 63, 64
11, 182879, Note_on_c, 10, 65, 89
11, 183084, Note_off_c, 10, 65, 64
11, 183121, Note_on_c, 10, 77, 90
11, 183193, Note_off_c, 10, 77, 56
11, 183201, Note_on_c, 10, 75, 90
11, 183273, Note_off_c, 10, 75, 56
11, 183281, Note_on_c, 10, 74, 90
11, 183353, Note_off_c, 10, 74, 56
11, 183358, Note_on_c, 10, 72, 90
11, 183574, Note_off_c, 10, 72, 64
11, 183601, Note_on_c, 10, 75, 90
11, 183673, Note_off_c, 10, 75, 56
11, 183681, Note_on_c, 10, 74, 90
11, 183753, Note_off_c, 10, 74, 56
11, 183761, Note_on_c, 10, 72, 90
11, 183833, Note_off_c, 10, 72, 56
11, 183837, Note_on_c, 10, 70, 90
11, 184053, Note_off_c, 10, 70, 64
11, 184080, Note_on_c, 10, 74, 90
11, 184152, Note_off_c, 10, 74, 56
11, 184161, Note_on_c, 10, 72, 90
11, 184233, Note_off_c, 10, 72, 56
11, 184239, Note_on_c, 10, 70, 90
11, 184311, Note_off_c, 10, 70, 56
11, 184321, Note_on_c, 10, 69, 90
11, 184526, Note_off_c, 10, 69, 64
11, 184559, Note_on_c, 10, 81, 95
11, 184619, Note_off_c, 10, 81, 56
11, 184639, Note_on_c, 10, 82, 95
11, 184699, Note_off_c, 10, 82, 56
11, 184721, Note_on_c, 10, 84, 95
11, 184781, Note_off_c, 10, 84, 56
11, 184803, Note_on_c, 10, 77, 90
11, 185008, Note_off_c, 10, 77, 64
11, 186000, Note_on_c, 10, 78, 90
11, 186072, Note_off_c, 10, 78, 56
11, 186079, Note_on_c, 10, 77, 90
11, 186151, Note_off_c, 10, 77, 56
11, 186159, Note_on_c, 10, 75, 90
11, 186231, Note_off_c, 10, 75, 56
11, 186241, Note_on_c, 10, 73, 90
11, 186457, Note_off_c, 10, 73, 64
11, 186480, Note_on_c, 10, 77, 90
11, 186552, Note_off_c, 10, 77, 56
11, 186561, Note_on_c, 10, 75, 90
11, 186633, Note_off_c, 10, 75, 56
11, 186640, Note_on_c, 10, 73, 90
11, 186712, Note_off_c, 10, 73, 56
11, 186719, Note_on_c, 10, 72, 90
11, 186935, Note_off_c, 10, 72, 64
11, 186961, Note_on_c, 10, 75, 90
11, 187033, Note_off_c, 10, 75, 56
11, 187039, Note_on_c, 10, 73, 90
11, 187111, Note_off_c, 10, 73, 56
11, 187121, Note_on_c, 10, 72, 90
11, 187193, Note_off_c, 10, 72, 56
11, 187202, Note_on_c, 10, 70, 90
11, 187407, Note_off_c, 10, 70, 64
11, 187440, Note_on_c, 10, 82, 95
11, 187500, Note_off_c, 10, 82, 56
11, 187521, Note_on_c, 10, 84, 95
11, 187581, Note_off_c, 10, 84, 56
11, 187601, Note_on_c, 10, 85, 95
11, 187661, Note_off_c, 10, 85, 56
11, 187677, Note_on_c, 10, 77, 90
11, 187882, Note_off_c, 10, 77, 64
11, 190082, Note_on_c, 10, 80, 90
11, 190287, Note_off_c, 10, 80, 64
11, 190319, Note_on_c, 10, 84, 95
11, 190379, Note_off_c, 10, 84, 56
11, 190400, Note_on_c, 10, 85, 95
11, 190460, Note_off_c, 10, 85, 56
11, 190479, Note_on_c, 10, 87, 95
11, 190539, Note_off_c, 10, 87, 56
11, 190562, Note_on_c, 10, 80, 90
11, 190767, Note_off_c, 10, 80, 64
11, 191757, Note_on_c, 10, 68, 90
11, 193173, Note_off_c, 10, 68, 64
11, 193201, Note_on_c, 10, 83, 95
11, 193261, Note_off_c, 10, 83, 56
11, 193281, Note_on_c, 10, 84, 95
11, 193341, Note_off_c, 10, 84, 56
11, 193360, Note_on_c, 10, 86, 95
11, 193420, Note_off_c, 10, 86, 56
11, 193437, Note_on_c, 10, 77, 90
11, 193642, Note_off_c, 10, 77, 64
11, 194640, Note_on_c, 10, 77, 90
11, 194776, Note_off_c, 10, 77, 64
11, 194881, Note_on_c, 10, 75, 90
11, 195169, Note_off_c, 10, 75, 64
11, 195360, Note_on_c, 10, 77, 90
11, 195648, Note_off_c, 10, 77, 64
11, 195837, Note_on_c, 10, 79, 90
11, 197445, Note_off_c, 10, 79, 64
11, 197521, Note_on_c, 10, 77, 90
11, 197657, Note_off_c, 10, 77, 64
11, 197761, Note_on_c, 10, 75, 90
11, 198409, Note_off_c, 10, 75, 64
11, 198481, Note_on_c, 10, 79, 92
11, 198617, Note_off_c, 10, 79, 64
11, 198718, Note_on_c, 10, 77, 92
11, 199366, Note_off_c, 10, 77, 64
11, 199441, Note_on_c, 10, 80, 94
11, 199577, Note_off_c, 10, 80, 64
11, 199681, Note_on_c, 10, 79, 94
11, 200329, Note_off_c, 10, 79, 64
11, 200399, Note_on_c, 10, 82, 95
11, 200535, Note_off_c, 10, 82, 64
11, 200642, Note_on_c, 10, 80, 95
11, 201290, Note_off_c, 10, 80, 64
11, 201358, Note_on_c, 10, 84, 97
11, 201494, Note_off_c, 10, 84, 64
11, 201603, Note_on_c, 10, 83, 97
11, 202251, Note_off_c, 10, 83, 64
11, 202320, Note_on_c, 10, 86, 98
11, 202456, Note_off_c, 10, 86, 64
11, 202557, Note_on_c, 10, 84, 98
11, 203205, Note_off_c, 10, 84, 64
11, 203280, Note_on_c, 10, 87, 101
11, 203416, Note_off_c, 10, 87, 64
11, 203521, Note_on_c, 10, 86, 101
11, 204169, Note_off_c, 10, 86, 64
11, 204239, Note_on_c, 10, 89, 102
11, 204375, Note_off_c, 10, 89, 64
11, 204481, Note_on_c, 10, 87, 102
11, 205129, Note_off_c, 10, 87, 64
11, 205201, Note_on_c, 10, 91, 104
11, 205337, Note_off_c, 10, 91, 64
11, 205440, Note_on_c, 10, 90, 109
11, 205440, Control_c, 10, 7, 120
11, 205440, Program_c, 10, 44
11, 205500, Note_off_c, 10, 90, 56
11, 205521, Note_on_c, 10, 90, 109
11, 205581, Note_off_c, 10, 90, 56
11, 205599, Note_on_c, 10, 90, 109
11, 205659, Note_off_c, 10, 90, 56
11, 205679, Note_on_c, 10, 90, 109
11, 205739, Note_off_c, 10, 90, 56
11, 205760, Note_on_c, 10, 90, 109
11, 205820, Note_off_c, 10, 90, 56
11, 205841, Note_on_c, 10, 90, 110
11, 205901, Note_off_c, 10, 90, 56
11, 205921, Note_on_c, 10, 90, 110
11, 205981, Note_off_c, 10, 90, 56
11, 206000, Note_on_c, 10, 90, 110
11, 206060, Note_off_c, 10, 90, 56
11, 206081, Note_on_c, 10, 90, 110
11, 206141, Note_off_c, 10, 90, 56
11, 206159, Note_on_c, 10, 90, 110
11, 206219, Note_off_c, 10, 90, 56
11, 206241, Note_on_c, 10, 90, 110
11, 206301, Note_off_c, 10, 90, 56
11, 206320, Note_on_c, 10, 90, 110
11, 206380, Note_off_c, 10, 90, 56
11, 206401, Note_on_c, 10, 90, 110
11, 206461, Note_off_c, 10, 90, 56
11, 206479, Note_on_c, 10, 90, 111
11, 206539, Note_off_c, 10, 90, 56
11, 206561, Note_on_c, 10, 90, 111
11, 206621, Note_off_c, 10, 90, 56
11, 206639, Note_on_c, 10, 90, 111
11, 206699, Note_off_c, 10, 90, 56
11, 206721, Note_on_c, 10, 90, 111
11, 206781, Note_off_c, 10, 90, 56
11, 206799, Note_on_c, 10, 90, 111
11, 206859, Note_off_c, 10, 90, 56
11, 206881, Note_on_c, 10, 90, 111
11, 206941, Note_off_c, 10, 90, 56
11, 206959, Note_on_c, 10, 90, 111
11, 207019, Note_off_c, 10, 90, 56
11, 207039, Note_on_c, 10, 90, 111
11, 207099, Note_off_c, 10, 90, 56
11, 207120, Note_on_c, 10, 90, 113
11, 207180, Note_off_c, 10, 90, 56
11, 207201, Note_on_c, 10, 90, 113
11, 207261, Note_off_c, 10, 90, 56
11, 207281, Note_on_c, 10, 90, 113
11, 207341, Note_off_c, 10, 90, 56
11, 207361, Note_on_c, 10, 79, 113
11, 207421, Note_off_c, 10, 79, 56
11, 207439, Note_on_c, 10, 79, 113
11, 207499, Note_off_c, 10, 79, 56
11, 207520, Note_on_c, 10, 79, 113
11, 207580, Note_off_c, 10, 79, 56
11, 207599, Note_on_c, 10, 79, 113
11, 207659, Note_off_c, 10, 79, 56
11, 207680, Note_on_c, 10, 79, 113
11, 207740, Note_off_c, 10, 79, 56
11, 207761, Note_on_c, 10, 79, 113
11, 207821, Note_off_c, 10, 79, 56
11, 207839, Note_on_c, 10, 79, 113
11, 207899, Note_off_c, 10, 79, 56
11, 207919, Note_on_c, 10, 79, 113
11, 207979, Note_off_c, 10, 79, 56
11, 208001, Note_on_c, 10, 79, 113
11, 208061, Note_off_c, 10, 79, 56
11, 208079, Note_on_c, 10, 79, 113
11, 208139, Note_off_c, 10, 79, 56
11, 208161, Note_on_c, 10, 79, 113
11, 208221, Note_off_c, 10, 79, 56
11, 208240, Note_on_c, 10, 79, 113
11, 208300, Note_off_c, 10, 79, 56
11, 208321, Note_on_c, 10, 79, 113
11, 208381, Note_off_c, 10, 79, 56
11, 208399, Note_on_c, 10, 79, 113
11, 208459, Note_off_c, 10, 79, 56
11, 208481, Note_on_c, 10, 79, 113
11, 208541, Note_off_c, 10, 79, 56
11, 208560, Note_on_c, 10, 79, 113
11, 208620, Note_off_c, 10, 79, 56
11, 208639, Note_on_c, 10, 79, 113
11, 208699, Note_off_c, 10, 79, 56
11, 208720, Note_on_c, 10, 79, 113
11, 208780, Note_off_c, 10, 79, 56
11, 208800, Note_on_c, 10, 79, 113
11, 208860, Note_off_c, 10, 79, 56
11, 208881, Note_on_c, 10, 79, 113
11, 208941, Note_off_c, 10, 79, 56
11, 208959, Note_on_c, 10, 79, 113
11, 209019, Note_off_c, 10, 79, 56
11, 209041, Note_on_c, 10, 79, 113
11, 209101, Note_off_c, 10, 79, 56
11, 209121, Note_on_c, 10, 79, 113
11, 209181, Note_off_c, 10, 79, 56
11, 209201, Note_on_c, 10, 79, 113
11, 209261, Note_off_c, 10, 79, 56
11, 209280, Note_on_c, 10, 79, 113
11, 209340, Note_off_c, 10, 79, 56
11, 209359, Note_on_c, 10, 79, 113
11, 209419, Note_off_c, 10, 79, 56
11, 209440, Note_on_c, 10, 79, 113
11, 209500, Note_off_c, 10, 79, 56
11, 209519, Note_on_c, 10, 79, 113
11, 209579, Note_off_c, 10, 79, 56
11, 209599, Note_on_c, 10, 79, 113
11, 209659, Note_off_c, 10, 79, 56
11, 209681, Note_on_c, 10, 79, 113
11, 209741, Note_off_c, 10, 79, 56
11, 209759, Note_on_c, 10, 79, 113
11, 209819, Note_off_c, 10, 79, 56
11, 209840, Note_on_c, 10, 79, 113
11, 209900, Note_off_c, 10, 79, 56
11, 209920, Note_on_c, 10, 79, 113
11, 209980, Note_off_c, 10, 79, 56
11, 210001, Note_on_c, 10, 79, 113
11, 210061, Note_off_c, 10, 79, 56
11, 210081, Note_on_c, 10, 79, 113
11, 210141, Note_off_c, 10, 79, 56
11, 210159, Note_on_c, 10, 79, 113
11, 210219, Note_off_c, 10, 79, 56
11, 210239, Note_on_c, 10, 79, 113
11, 210299, Note_off_c, 10, 79, 56
11, 210321, Note_on_c, 10, 79, 113
11, 210381, Note_off_c, 10, 79, 56
11, 210401, Note_on_c, 10, 79, 113
11, 210461, Note_off_c, 10, 79, 56
11, 210480, Note_on_c, 10, 79, 113
11, 210540, Note_off_c, 10, 79, 56
11, 210560, Note_on_c, 10, 79, 113
11, 210620, Note_off_c, 10, 79, 56
11, 210639, Note_on_c, 10, 79, 113
11, 210699, Note_off_c, 10, 79, 56
11, 210719, Note_on_c, 10, 79, 113
11, 210779, Note_off_c, 10, 79, 56
11, 210799, Note_on_c, 10, 79, 113
11, 210859, Note_off_c, 10, 79, 56
11, 210880, Note_on_c, 10, 79, 113
11, 210940, Note_off_c, 10, 79, 56
11, 210960, Note_on_c, 10, 79, 113
11, 211020, Note_off_c, 10, 79, 56
11, 211039, Note_on_c, 10, 79, 113
11, 211099, Note_off_c, 10, 79, 56
11, 211121, Note_on_c, 10, 79, 113
11, 211181, Note_off_c, 10, 79, 56
11, 211199, Note_on_c, 10, 79, 113
11, 211259, Note_off_c, 10, 79, 56
11, 211281, Note_on_c, 10, 79, 113
11, 211341, Note_off_c, 10, 79, 56
11, 211360, Note_on_c, 10, 79, 113
11, 211420, Note_off_c, 10, 79, 56
11, 211441, Note_on_c, 10, 79, 113
11, 211501, Note_off_c, 10, 79, 56
11, 211521, Note_on_c, 10, 79, 113
11, 211581, Note_off_c, 10, 79, 56
11, 211601, Note_on_c, 10, 79, 113
11, 211661, Note_off_c, 10, 79, 56
11, 211681, Note_on_c, 10, 79, 113
11, 211741, Note_off_c, 10, 79, 56
11, 211760, Note_on_c, 10, 79, 113
11, 211820, Note_off_c, 10, 79, 56
11, 211841, Note_on_c, 10, 79, 113
11, 211901, Note_off_c, 10, 79, 56
11, 211920, Note_on_c, 10, 79, 113
11, 211980, Note_off_c, 10, 79, 56
11, 212000, Note_on_c, 10, 79, 113
11, 212060, Note_off_c, 10, 79, 56
11, 212081, Note_on_c, 10, 79, 113
11, 212141, Note_off_c, 10, 79, 56
11, 212159, Note_on_c, 10, 79, 113
11, 212219, Note_off_c, 10, 79, 56
11, 212240, Note_on_c, 10, 79, 113
11, 212300, Note_off_c, 10, 79, 56
11, 212319, Note_on_c, 10, 79, 113
11, 212379, Note_off_c, 10, 79, 56
11, 212401, Note_on_c, 10, 79, 113
11, 212461, Note_off_c, 10, 79, 56
11, 212480, Note_on_c, 10, 79, 113
11, 212540, Note_off_c, 10, 79, 56
11, 212560, Note_on_c, 10, 79, 113
11, 212620, Note_off_c, 10, 79, 56
11, 212641, Note_on_c, 10, 79, 113
11, 212701, Note_off_c, 10, 79, 56
11, 212720, Note_on_c, 10, 79, 113
11, 212780, Note_off_c, 10, 79, 56
11, 212801, Note_on_c, 10, 79, 113
11, 212861, Note_off_c, 10, 79, 56
11, 212880, Note_on_c, 10, 79, 113
11, 212940, Note_off_c, 10, 79, 56
11, 212960, Note_on_c, 10, 79, 113
11, 213020, Note_off_c, 10, 79, 56
11, 213039, Note_on_c, 10, 79, 113
11, 213099, Note_off_c, 10, 79, 56
11, 213119, Note_on_c, 10, 79, 113
11, 213179, Note_off_c, 10, 79, 56
11, 213201, Note_on_c, 10, 79, 113
11, 213261, Note_off_c, 10, 79, 56
11, 213281, Note_on_c, 10, 79, 113
11, 213341, Note_off_c, 10, 79, 56
11, 213359, Note_on_c, 10, 79, 113
11, 213419, Note_off_c, 10, 79, 56
11, 213439, Note_on_c, 10, 79, 113
11, 213499, Note_off_c, 10, 79, 56
11, 213519, Note_on_c, 10, 79, 113
11, 213579, Note_off_c, 10, 79, 56
11, 213601, Note_on_c, 10, 79, 113
11, 213661, Note_off_c, 10, 79, 56
11, 213681, Note_on_c, 10, 79, 113
11, 213741, Note_off_c, 10, 79, 56
11, 213759, Note_on_c, 10, 79, 113
11, 213819, Note_off_c, 10, 79, 56
11, 213840, Note_on_c, 10, 79, 113
11, 213900, Note_off_c, 10, 79, 56
11, 213921, Note_on_c, 10, 79, 113
11, 213981, Note_off_c, 10, 79, 56
11, 214001, Note_on_c, 10, 79, 113
11, 214061, Note_off_c, 10, 79, 56
11, 214079, Note_on_c, 10, 79, 113
11, 214139, Note_off_c, 10, 79, 56
11, 214161, Note_on_c, 10, 79, 113
11, 214221, Note_off_c, 10, 79, 56
11, 214239, Note_on_c, 10, 79, 113
11, 214299, Note_off_c, 10, 79, 56
11, 214321, Note_on_c, 10, 79, 113
11, 214381, Note_off_c, 10, 79, 56
11, 214400, Note_on_c, 10, 79, 113
11, 214460, Note_off_c, 10, 79, 56
11, 214481, Note_on_c, 10, 79, 113
11, 214541, Note_off_c, 10, 79, 56
11, 214559, Note_on_c, 10, 79, 113
11, 214619, Note_off_c, 10, 79, 56
11, 214639, Note_on_c, 10, 79, 113
11, 214699, Note_off_c, 10, 79, 56
11, 214720, Note_on_c, 10, 79, 113
11, 214780, Note_off_c, 10, 79, 56
11, 214801, Note_on_c, 10, 79, 113
11, 214861, Note_off_c, 10, 79, 56
11, 214880, Note_on_c, 10, 79, 113
11, 214940, Note_off_c, 10, 79, 56
11, 214961, Note_on_c, 10, 79, 113
11, 215021, Note_off_c, 10, 79, 56
11, 215039, Note_on_c, 10, 79, 113
11, 215099, Note_off_c, 10, 79, 56
11, 215120, Note_on_c, 10, 79, 113
11, 215180, Note_off_c, 10, 79, 56
11, 215201, Note_on_c, 10, 79, 113
11, 215261, Note_off_c, 10, 79, 56
11, 215281, Note_on_c, 10, 79, 113
11, 215341, Note_off_c, 10, 79, 56
11, 215361, Note_on_c, 10, 79, 113
11, 215421, Note_off_c, 10, 79, 56
11, 215440, Note_on_c, 10, 79, 113
11, 215500, Note_off_c, 10, 79, 56
11, 215519, Note_on_c, 10, 79, 113
11, 215579, Note_off_c, 10, 79, 56
11, 215599, Note_on_c, 10, 79, 113
11, 215659, Note_off_c, 10, 79, 56
11, 215679, Note_on_c, 10, 79, 113
11, 215739, Note_off_c, 10, 79, 56
11, 215759, Note_on_c, 10, 79, 113
11, 215819, Note_off_c, 10, 79, 56
11, 215840, Note_on_c, 10, 79, 113
11, 215900, Note_off_c, 10, 79, 56
11, 215921, Note_on_c, 10, 79, 113
11, 215981, Note_off_c, 10, 79, 56
11, 216001, Note_on_c, 10, 80, 113
11, 216061, Note_off_c, 10, 80, 56
11, 216080, Note_on_c, 10, 80, 113
11, 216140, Note_off_c, 10, 80, 56
11, 216161, Note_on_c, 10, 80, 113
11, 216221, Note_off_c, 10, 80, 56
11, 216240, Note_on_c, 10, 80, 113
11, 216300, Note_off_c, 10, 80, 56
11, 216319, Note_on_c, 10, 80, 113
11, 216379, Note_off_c, 10, 80, 56
11, 216400, Note_on_c, 10, 80, 113
11, 216460, Note_off_c, 10, 80, 56
11, 216481, Note_on_c, 10, 80, 113
11, 216541, Note_off_c, 10, 80, 56
11, 216561, Note_on_c, 10, 80, 113
11, 216621, Note_off_c, 10, 80, 56
11, 216639, Note_on_c, 10, 80, 113
11, 216699, Note_off_c, 10, 80, 56
11, 216719, Note_on_c, 10, 80, 113
11, 216779, Note_off_c, 10, 80, 56
11, 216800, Note_on_c, 10, 80, 113
11, 216860, Note_off_c, 10, 80, 56
11, 216880, Note_on_c, 10, 80, 113
11, 216940, Note_off_c, 10, 80, 56
11, 216959, Note_on_c, 10, 81, 113
11, 216960, Control_c, 10, 7, 100
11, 216984, Control_c, 10, 0, 0
11, 216984, Control_c, 10, 32, 8
11, 216984, Program_c, 10, 50
11, 217019, Note_off_c, 10, 81, 56
11, 217039, Note_on_c, 10, 78, 113
11, 217099, Note_off_c, 10, 78, 56
11, 217120, Note_on_c, 10, 75, 113
11, 217180, Note_off_c, 10, 75, 56
11, 217200, Note_on_c, 10, 72, 113
11, 217260, Note_off_c, 10, 72, 56
11, 217281, Note_on_c, 10, 69, 113
11, 217341, Note_off_c, 10, 69, 56
11, 217359, Note_on_c, 10, 66, 113
11, 217419, Note_off_c, 10, 66, 56
11, 217441, Note_on_c, 10, 63, 113
11, 217501, Note_off_c, 10, 63, 56
11, 217519, Note_on_c, 10, 60, 113
11, 217579, Note_off_c, 10, 60, 56
11, 217600, Note_on_c, 10, 57, 113
11, 217660, Note_off_c, 10, 57, 56
11, 217681, Note_on_c, 10, 60, 113
11, 217741, Note_off_c, 10, 60, 56
11, 217761, Note_on_c, 10, 63, 113
11, 217821, Note_off_c, 10, 63, 56
11, 217840, Note_on_c, 10, 66, 113
11, 217900, Note_off_c, 10, 66, 56
11, 217919, Note_on_c, 10, 69, 113
11, 217979, Note_off_c, 10, 69, 56
11, 218000, Note_on_c, 10, 72, 113
11, 218060, Note_off_c, 10, 72, 56
11, 218081, Note_on_c, 10, 75, 113
11, 218141, Note_off_c, 10, 75, 56
11, 218159, Note_on_c, 10, 78, 113
11, 218216, Program_c, 10, 44
11, 218219, Note_off_c, 10, 78, 56
11, 218220, Control_c, 10, 7, 120
11, 218239, Note_on_c, 10, 81, 113
11, 218299, Note_off_c, 10, 81, 56
11, 218321, Note_on_c, 10, 81, 113
11, 218381, Note_off_c, 10, 81, 56
11, 218399, Note_on_c, 10, 81, 113
11, 218459, Note_off_c, 10, 81, 56
11, 218481, Note_on_c, 10, 81, 113
11, 218541, Note_off_c, 10, 81, 56
11, 218561, Note_on_c, 10, 81, 113
11, 218621, Note_off_c, 10, 81, 56
11, 218639, Note_on_c, 10, 81, 113
11, 218699, Note_off_c, 10, 81, 56
11, 218721, Note_on_c, 10, 81, 113
11, 218781, Note_off_c, 10, 81, 56
11, 218800, Note_on_c, 10, 81, 113
11, 218860, Note_off_c, 10, 81, 56
11, 218881, Note_on_c, 10, 83, 113
11, 218941, Note_off_c, 10, 83, 56
11, 218961, Note_on_c, 10, 83, 113
11, 219021, Note_off_c, 10, 83, 56
11, 219039, Note_on_c, 10, 83, 113
11, 219099, Note_off_c, 10, 83, 56
11, 219121, Note_on_c, 10, 83, 113
11, 219181, Note_off_c, 10, 83, 56
11, 219199, Note_on_c, 10, 83, 113
11, 219259, Note_off_c, 10, 83, 56
11, 219281, Note_on_c, 10, 83, 113
11, 219341, Note_off_c, 10, 83, 56
11, 219360, Note_on_c, 10, 83, 113
11, 219405, Note_off_c, 10, 83, 56
11, 219420, Note_on_c, 10, 83, 113
11, 219465, Note_off_c, 10, 83, 56
11, 219480, Note_on_c, 10, 86, 113
11, 219525, Note_off_c, 10, 86, 56
11, 219540, Note_on_c, 10, 86, 113
11, 219585, Note_off_c, 10, 86, 56
11, 219600, Note_on_c, 10, 83, 113
11, 219645, Note_off_c, 10, 83, 56
11, 219660, Note_on_c, 10, 83, 113
11, 219705, Note_off_c, 10, 83, 56
11, 219720, Note_on_c, 10, 86, 113
11, 219765, Note_off_c, 10, 86, 56
11, 219780, Note_on_c, 10, 86, 113
11, 219825, Note_off_c, 10, 86, 56
11, 219840, Note_on_c, 10, 91, 113
11, 219885, Note_off_c, 10, 91, 56
11, 219900, Note_on_c, 10, 91, 113
11, 219945, Note_off_c, 10, 91, 56
11, 219960, Note_on_c, 10, 91, 113
11, 220005, Note_off_c, 10, 91, 56
11, 220020, Note_on_c, 10, 91, 113
11, 220065, Note_off_c, 10, 91, 56
11, 220080, Note_on_c, 10, 91, 113
11, 220125, Note_off_c, 10, 91, 56
11, 220140, Note_on_c, 10, 91, 113
11, 220185, Note_off_c, 10, 91, 56
11, 220200, Note_on_c, 10, 91, 113
11, 220245, Note_off_c, 10, 91, 56
11, 220260, Note_on_c, 10, 91, 113
11, 220305, Note_off_c, 10, 91, 56
11, 220320, Note_on_c, 10, 91, 113
11, 220365, Note_off_c, 10, 91, 56
11, 220380, Note_on_c, 10, 91, 113
11, 220425, Note_off_c, 10, 91, 56
11, 220440, Note_on_c, 10, 86, 113
11, 220485, Note_off_c, 10, 86, 56
11, 220500, Note_on_c, 10, 86, 113
11, 220545, Note_off_c, 10, 86, 56
11, 220560, Note_on_c, 10, 83, 113
11, 220605, Note_off_c, 10, 83, 56
11, 220620, Note_on_c, 10, 83, 113
11, 220665, Note_off_c, 10, 83, 56
11, 220680, Note_on_c, 10, 86, 113
11, 220725, Note_off_c, 10, 86, 56
11, 220740, Note_on_c, 10, 86, 113
11, 220785, Note_off_c, 10, 86, 56
11, 220800, Note_on_c, 10, 91, 113
11, 220845, Note_off_c, 10, 91, 56
11, 220860, Note_on_c, 10, 91, 113
11, 220905, Note_off_c, 10, 91, 56
11, 220920, Note_on_c, 10, 86, 113
11, 220965, Note_off_c, 10, 86, 56
11, 220980, Note_on_c, 10, 86, 113
11, 221025, Note_off_c, 10, 86, 56
11, 221040, Note_on_c, 10, 83, 113
11, 221085, Note_off_c, 10, 83, 56
11, 221100, Note_on_c, 10, 83, 113
11, 221145, Note_off_c, 10, 83, 56
11, 221160, Note_on_c, 10, 86, 113
11, 221205, Note_off_c, 10, 86, 56
11, 221220, Note_on_c, 10, 86, 113
11, 221265, Note_off_c, 10, 86, 56
11, 221280, Note_on_c, 10, 86, 113
11, 221325, Note_off_c, 10, 86, 56
11, 221340, Note_on_c, 10, 86, 113
11, 221385, Note_off_c, 10, 86, 56
11, 221400, Note_on_c, 10, 83, 113
11, 221445, Note_off_c, 10, 83, 56
11, 221460, Note_on_c, 10, 83, 113
11, 221505, Note_off_c, 10, 83, 56
11, 221520, Note_on_c, 10, 79, 113
11, 221565, Note_off_c, 10, 79, 56
11, 221580, Note_on_c, 10, 79, 113
11, 221625, Note_off_c, 10, 79, 56
11, 221640, Note_on_c, 10, 83, 113
11, 221685, Note_off_c, 10, 83, 56
11, 221700, Note_on_c, 10, 83, 113
11, 221745, Note_off_c, 10, 83, 56
11, 221760, Note_on_c, 10, 83, 113
11, 221805, Note_off_c, 10, 83, 56
11, 221820, Note_on_c, 10, 83, 113
11, 221865, Note_off_c, 10, 83, 56
11, 221880, Note_on_c, 10, 79, 113
11, 221925, Note_off_c, 10, 79, 56
11, 221940, Note_on_c, 10, 79, 113
11, 221985, Note_off_c, 10, 79, 56
11, 222000, Note_on_c, 10, 74, 113
11, 222045, Note_off_c, 10, 74, 56
11, 222060, Note_on_c, 10, 74, 113
11, 222105, Note_off_c, 10, 74, 56
11, 222120, Note_on_c, 10, 79, 113
11, 222165, Note_off_c, 10, 79, 56
11, 222180, Note_on_c, 10, 79, 113
11, 222225, Note_off_c, 10, 79, 56
11, 222240, Note_on_c, 10, 79, 113
11, 222285, Note_off_c, 10, 79, 56
11, 222300, Note_on_c, 10, 79, 113
11, 222345, Note_off_c, 10, 79, 56
11, 222360, Note_on_c, 10, 74, 113
11, 222405, Note_off_c, 10, 74, 56
11, 222420, Note_on_c, 10, 74, 113
11, 222465, Note_off_c, 10, 74, 56
11, 222480, Note_on_c, 10, 71, 113
11, 222525, Note_off_c, 10, 71, 56
11, 222540, Note_on_c, 10, 71, 113
11, 222585, Note_off_c, 10, 71, 56
11, 222600, Note_on_c, 10, 74, 113
11, 222645, Note_off_c, 10, 74, 56
11, 222660, Note_on_c, 10, 74, 113
11, 222705, Note_off_c, 10, 74, 56
11, 222720, Note_on_c, 10, 74, 113
11, 222765, Note_off_c, 10, 74, 56
11, 222780, Note_on_c, 10, 74, 113
11, 222825, Note_off_c, 10, 74, 56
11, 222840, Note_on_c, 10, 71, 113
11, 222885, Note_off_c, 10, 71, 56
11, 222900, Note_on_c, 10, 71, 113
11, 222945, Note_off_c, 10, 71, 56
11, 222960, Note_on_c, 10, 67, 113
11, 223005, Note_off_c, 10, 67, 56
11, 223020, Note_on_c, 10, 67, 113
11, 223065, Note_off_c, 10, 67, 56
11, 223080, Note_on_c, 10, 71, 113
11, 223125, Note_off_c, 10, 71, 56
11, 223140, Note_on_c, 10, 71, 113
11, 223185, Note_off_c, 10, 71, 56
11, 223200, Note_on_c, 10, 71, 113
11, 223245, Note_off_c, 10, 71, 56
11, 223260, Note_on_c, 10, 71, 113
11, 223305, Note_off_c, 10, 71, 56
11, 223320, Note_on_c, 10, 67, 113
11, 223365, Note_off_c, 10, 67, 56
11, 223380, Note_on_c, 10, 67, 113
11, 223425, Note_off_c, 10, 67, 56
11, 223440, Note_on_c, 10, 62, 113
11, 223485, Note_off_c, 10, 62, 56
11, 223500, Note_on_c, 10, 62, 113
11, 223545, Note_off_c, 10, 62, 56
11, 223560, Note_on_c, 10, 67, 113
11, 223605, Note_off_c, 10, 67, 56
11, 223620, Note_on_c, 10, 67, 113
11, 223665, Note_off_c, 10, 67, 56
11, 223680, Note_on_c, 10, 67, 113
11, 223725, Note_off_c, 10, 67, 56
11, 223740, Note_on_c, 10, 67, 113
11, 223785, Note_off_c, 10, 67, 56
11, 223800, Note_on_c, 10, 62, 113
11, 223845, Note_off_c, 10, 62, 56
11, 223860, Note_on_c, 10, 62, 113
11, 223905, Note_off_c, 10, 62, 56
11, 223920, Note_on_c, 10, 59, 113
11, 223965, Note_off_c, 10, 59, 56
11, 223980, Note_on_c, 10, 59, 113
11, 224025, Note_off_c, 10, 59, 56
11, 224040, Note_on_c, 10, 62, 113
11, 224085, Note_off_c, 10, 62, 56
11, 224100, Note_on_c, 10, 62, 113
11, 224145, Note_off_c, 10, 62, 56
11, 224160, Note_on_c, 10, 67, 113
11, 224205, Note_off_c, 10, 67, 56
11, 224220, Note_on_c, 10, 67, 113
11, 224265, Note_off_c, 10, 67, 56
11, 224280, Note_on_c, 10, 62, 113
11, 224325, Note_off_c, 10, 62, 56
11, 224340, Note_on_c, 10, 62, 113
11, 224385, Note_off_c, 10, 62, 56
11, 224400, Note_on_c, 10, 59, 113
11, 224445, Note_off_c, 10, 59, 56
11, 224460, Note_on_c, 10, 59, 113
11, 224505, Note_off_c, 10, 59, 56
11, 224520, Note_on_c, 10, 62, 113
11, 224565, Note_off_c, 10, 62, 56
11, 224580, Note_on_c, 10, 62, 113
11, 224625, Note_off_c, 10, 62, 56
11, 224640, Control_c, 10, 0, 0
11, 224640, Control_c, 10, 7, 100
11, 224640, Control_c, 10, 32, 8
11, 224640, Program_c, 10, 50
11, 224641, Note_on_c, 10, 67, 108
11, 224643, Note_on_c, 10, 55, 108
11, 225505, Note_off_c, 10, 67, 64
11, 225507, Note_off_c, 10, 55, 64
11, 225598, Note_on_c, 10, 62, 108
11, 225599, Note_on_c, 10, 55, 108
11, 225803, Note_off_c, 10, 62, 64
11, 225804, Note_off_c, 10, 55, 64
11, 226558, Note_on_c, 10, 55, 108
11, 226561, Note_on_c, 10, 62, 108
11, 226763, Note_off_c, 10, 55, 64
11, 226766, Note_off_c, 10, 62, 64
11, 227518, Note_on_c, 10, 55, 108
11, 227521, Note_on_c, 10, 62, 108
11, 227723, Note_off_c, 10, 55, 64
11, 227726, Note_off_c, 10, 62, 64
11, 228242, Note_on_c, 10, 67, 108
11, 228447, Note_off_c, 10, 67, 64
11, 228962, Note_on_c, 10, 67, 98
11, 229167, Note_off_c, 10, 67, 64
11, 229678, Note_on_c, 10, 67, 89
11, 229883, Note_off_c, 10, 67, 64
11, 230397, Note_on_c, 10, 67, 80
11, 230602, Note_off_c, 10, 67, 64
11, 231119, Note_on_c, 10, 67, 70
11, 231324, Note_off_c, 10, 67, 64
11, 231840, Note_on_c, 10, 67, 60
11, 232045, Note_off_c, 10, 67, 64
11, 232561, Note_on_c, 10, 67, 56
11, 232766, Note_off_c, 10, 67, 64
11, 232803, Note_on_c, 10, 67, 56
11, 233008, Note_off_c, 10, 67, 64
11, 233037, Note_on_c, 10, 67, 56
11, 233242, Note_off_c, 10, 67, 64
11, 233278, Note_on_c, 10, 67, 56
11, 233483, Note_off_c, 10, 67, 64
11, 234002, Note_on_c, 10, 67, 56
11, 234207, Note_off_c, 10, 67, 64
11, 234239, Note_on_c, 10, 67, 56
11, 234444, Note_off_c, 10, 67, 64
11, 234481, Note_on_c, 10, 67, 56
11, 234686, Note_off_c, 10, 67, 64
11, 234723, Note_on_c, 10, 67, 56
11, 234928, Note_off_c, 10, 67, 64
11, 235440, Control_c, 10, 11, 85
11, 235440, Program_c, 10, 45
11, 235442, Note_on_c, 10, 65, 56
11, 235647, Note_off_c, 10, 65, 64
11, 236157, Note_on_c, 10, 63, 56
11, 236362, Note_off_c, 10, 63, 64
11, 236883, Note_on_c, 10, 65, 56
11, 237088, Note_off_c, 10, 65, 64
11, 237603, Note_on_c, 10, 62, 56
11, 237808, Note_off_c, 10, 62, 64
11, 238320, Control_c, 10, 11, 127
11, 238322, Note_on_c, 10, 72, 56
11, 238344, Control_c, 10, 0, 0
11, 238344, Control_c, 10, 32, 8
11, 238344, Program_c, 10, 50
11, 238527, Note_off_c, 10, 72, 64
11, 238563, Note_on_c, 10, 72, 56
11, 238768, Note_off_c, 10, 72, 64
11, 238798, Note_on_c, 10, 72, 56
11, 239003, Note_off_c, 10, 72, 64
11, 239040, Note_on_c, 10, 72, 56
11, 239245, Note_off_c, 10, 72, 64
11, 239759, Note_on_c, 10, 72, 56
11, 239964, Note_off_c, 10, 72, 64
11, 239999, Note_on_c, 10, 72, 56
11, 240204, Note_off_c, 10, 72, 64
11, 240237, Note_on_c, 10, 72, 56
11, 240442, Note_off_c, 10, 72, 64
11, 240481, Note_on_c, 10, 72, 56
11, 240686, Note_off_c, 10, 72, 64
11, 241200, Control_c, 10, 11, 85
11, 241200, Program_c, 10, 45
11, 241201, Note_on_c, 10, 64, 56
11, 241406, Note_off_c, 10, 64, 64
11, 241923, Note_on_c, 10, 65, 56
11, 242128, Note_off_c, 10, 65, 64
11, 242639, Note_on_c, 10, 66, 56
11, 242844, Note_off_c, 10, 66, 64
11, 243362, Note_on_c, 10, 67, 56
11, 243567, Note_off_c, 10, 67, 64
11, 245518, Note_on_c, 10, 63, 56
11, 245521, Note_on_c, 10, 55, 56
11, 245723, Note_off_c, 10, 63, 64
11, 245726, Note_off_c, 10, 55, 64
11, 246242, Note_on_c, 10, 55, 56
11, 246242, Note_on_c, 10, 62, 56
11, 246447, Note_off_c, 10, 62, 64
11, 246447, Note_off_c, 10, 55, 64
11, 248398, Note_on_c, 10, 55, 56
11, 248399, Note_on_c, 10, 63, 56
11, 248603, Note_off_c, 10, 55, 64
11, 248604, Note_off_c, 10, 63, 64
11, 249117, Note_on_c, 10, 62, 56
11, 249120, Note_on_c, 10, 55, 56
11, 249322, Note_off_c, 10, 62, 64
11, 249325, Note_off_c, 10, 55, 64
11, 264959, Note_on_c, 10, 83, 55
11, 264960, Control_c, 10, 7, 120
11, 264960, Control_c, 10, 11, 127
11, 264960, Program_c, 10, 44
11, 265050, Note_off_c, 10, 83, 56
11, 265079, Note_on_c, 10, 83, 59
11, 265170, Note_off_c, 10, 83, 56
11, 265201, Note_on_c, 10, 83, 64
11, 265292, Note_off_c, 10, 83, 56
11, 265320, Note_on_c, 10, 83, 69
11, 265411, Note_off_c, 10, 83, 56
11, 265439, Note_on_c, 10, 83, 73
11, 265530, Note_off_c, 10, 83, 56
11, 265561, Note_on_c, 10, 83, 77
11, 265652, Note_off_c, 10, 83, 56
11, 265679, Note_on_c, 10, 83, 81
11, 265770, Note_off_c, 10, 83, 56
11, 265799, Note_on_c, 10, 83, 86
11, 265890, Note_off_c, 10, 83, 56
11, 265920, Note_on_c, 10, 83, 90
11, 266011, Note_off_c, 10, 83, 56
11, 266040, Note_on_c, 10, 83, 95
11, 266131, Note_off_c, 10, 83, 56
11, 266159, Note_on_c, 10, 83, 98
11, 266250, Note_off_c, 10, 83, 56
11, 266280, Note_on_c, 10, 83, 103
11, 266371, Note_off_c, 10, 83, 56
11, 266397, Note_on_c, 10, 88, 108
11, 266398, Note_on_c, 10, 76, 108
11, 266400, Control_c, 10, 7, 100
11, 266412, Control_c, 10, 0, 0
11, 266412, Control_c, 10, 32, 8
11, 266412, Program_c, 10, 50
11, 266579, Note_off_c, 10, 88, 64
11, 266580, Note_off_c, 10, 76, 64
11, 266880, Note_on_c, 10, 55, 108
11, 266882, Note_on_c, 10, 64, 108
11, 267062, Note_off_c, 10, 55, 64
11, 267064, Note_off_c, 10, 64, 64
11, 267358, Note_on_c, 10, 55, 108
11, 267361, Note_on_c, 10, 64, 108
11, 267540, Note_off_c, 10, 55, 64
11, 267543, Note_off_c, 10, 64, 64
11, 268079, Note_on_c, 10, 62, 108
11, 268081, Note_on_c, 10, 55, 108
11, 268170, Note_off_c, 10, 62, 56
11, 268172, Note_off_c, 10, 55, 56
11, 268320, Note_on_c, 10, 55, 108
11, 268321, Note_on_c, 10, 64, 108
11, 268411, Note_off_c, 10, 55, 56
11, 268412, Note_off_c, 10, 64, 56
11, 268559, Note_on_c, 10, 55, 108
11, 268561, Note_on_c, 10, 65, 108
11, 268650, Note_off_c, 10, 55, 56
11, 268652, Note_off_c, 10, 65, 56
11, 268800, Note_on_c, 10, 55, 108
11, 268801, Note_on_c, 10, 64, 108
11, 268891, Note_off_c, 10, 55, 56
11, 268892, Note_off_c, 10, 64, 56
11, 269041, Note_on_c, 10, 55, 108
11, 269041, Note_on_c, 10, 65, 108
11, 269132, Note_off_c, 10, 65, 56
11, 269132, Note_off_c, 10, 55, 56
11, 269278, Note_on_c, 10, 64, 108
11, 269283, Note_on_c, 10, 55, 108
11, 269460, Note_off_c, 10, 64, 64
11, 269465, Note_off_c, 10, 55, 64
11, 270000, Note_on_c, 10, 72, 108
11, 270136, Note_off_c, 10, 72, 64
11, 270180, Note_on_c, 10, 72, 113
11, 270225, Note_off_c, 10, 72, 56
11, 270237, Note_on_c, 10, 67, 108
11, 270242, Note_on_c, 10, 55, 108
11, 270419, Note_off_c, 10, 67, 64
11, 270424, Note_off_c, 10, 55, 64
11, 270961, Note_on_c, 10, 74, 108
11, 271097, Note_off_c, 10, 74, 64
11, 271140, Note_on_c, 10, 74, 113
11, 271185, Note_off_c, 10, 74, 56
11, 271197, Note_on_c, 10, 67, 108
11, 271203, Note_on_c, 10, 72, 108
11, 271203, Note_on_c, 10, 60, 108
11, 271379, Note_off_c, 10, 67, 64
11, 271385, Note_off_c, 10, 60, 64
11, 271385, Note_off_c, 10, 72, 64
11, 271799, Note_on_c, 10, 72, 108
11, 271867, Note_off_c, 10, 72, 56
11, 271921, Note_on_c, 10, 74, 108
11, 271989, Note_off_c, 10, 74, 56
11, 272041, Note_on_c, 10, 76, 108
11, 272109, Note_off_c, 10, 76, 56
11, 272160, Note_on_c, 10, 77, 108
11, 272228, Note_off_c, 10, 77, 56
11, 272280, Note_on_c, 10, 76, 108
11, 272348, Note_off_c, 10, 76, 56
11, 272399, Note_on_c, 10, 77, 108
11, 272467, Note_off_c, 10, 77, 56
11, 272519, Note_on_c, 10, 79, 108
11, 272587, Note_off_c, 10, 79, 56
11, 272639, Note_on_c, 10, 81, 108
11, 272707, Note_off_c, 10, 81, 56
11, 272761, Note_on_c, 10, 79, 108
11, 272829, Note_off_c, 10, 79, 56
11, 272881, Note_on_c, 10, 81, 108
11, 272949, Note_off_c, 10, 81, 56
11, 273000, Note_on_c, 10, 83, 108
11, 273068, Note_off_c, 10, 83, 56
11, 273118, Note_on_c, 10, 84, 108
11, 273694, Note_off_c, 10, 84, 64
11, 273719, Note_on_c, 10, 72, 108
11, 273787, Note_off_c, 10, 72, 56
11, 273840, Note_on_c, 10, 74, 108
11, 273908, Note_off_c, 10, 74, 56
11, 273960, Note_on_c, 10, 76, 108
11, 274028, Note_off_c, 10, 76, 56
11, 274079, Note_on_c, 10, 77, 108
11, 274147, Note_off_c, 10, 77, 56
11, 274199, Note_on_c, 10, 76, 108
11, 274267, Note_off_c, 10, 76, 56
11, 274320, Note_on_c, 10, 77, 108
11, 274388, Note_off_c, 10, 77, 56
11, 274439, Note_on_c, 10, 79, 108
11, 274507, Note_off_c, 10, 79, 56
11, 274561, Note_on_c, 10, 81, 108
11, 274629, Note_off_c, 10, 81, 56
11, 274680, Note_on_c, 10, 79, 108
11, 274748, Note_off_c, 10, 79, 56
11, 274800, Note_on_c, 10, 81, 108
11, 274868, Note_off_c, 10, 81, 56
11, 274919, Note_on_c, 10, 83, 108
11, 274987, Note_off_c, 10, 83, 56
11, 275043, Note_on_c, 10, 84, 108
11, 275619, Note_off_c, 10, 84, 64
11, 275640, Note_on_c, 10, 72, 108
11, 275708, Note_off_c, 10, 72, 56
11, 275760, Note_on_c, 10, 74, 108
11, 275828, Note_off_c, 10, 74, 56
11, 275880, Note_on_c, 10, 76, 108
11, 275948, Note_off_c, 10, 76, 56
11, 276000, Note_on_c, 10, 79, 113
11, 276017, Note_off_c, 10, 79, 56
11, 276030, Note_on_c, 10, 77, 113
11, 276081, Note_off_c, 10, 77, 56
11, 276121, Note_on_c, 10, 76, 108
11, 276189, Note_off_c, 10, 76, 56
11, 276241, Note_on_c, 10, 77, 108
11, 276309, Note_off_c, 10, 77, 56
11, 276361, Note_on_c, 10, 79, 108
11, 276429, Note_off_c, 10, 79, 56
11, 276480, Note_on_c, 10, 83, 113
11, 276497, Note_off_c, 10, 83, 56
11, 276509, Note_on_c, 10, 81, 113
11, 276560, Note_off_c, 10, 81, 56
11, 276601, Note_on_c, 10, 79, 108
11, 276669, Note_off_c, 10, 79, 56
11, 276719, Note_on_c, 10, 81, 108
11, 276787, Note_off_c, 10, 81, 56
11, 276839, Note_on_c, 10, 83, 108
11, 276907, Note_off_c, 10, 83, 56
11, 276960, Note_on_c, 10, 86, 113
11, 276982, Note_off_c, 10, 86, 56
11, 276989, Note_on_c, 10, 84, 108
11, 277057, Note_off_c, 10, 84, 56
11, 277080, Note_on_c, 10, 83, 108
11, 277171, Note_off_c, 10, 83, 56
11, 277199, Note_on_c, 10, 84, 108
11, 277290, Note_off_c, 10, 84, 56
11, 277320, Note_on_c, 10, 86, 108
11, 277411, Note_off_c, 10, 86, 56
11, 277440, Note_on_c, 10, 88, 108
11, 277622, Note_off_c, 10, 88, 64
11, 277679, Note_on_c, 10, 79, 108
11, 277770, Note_off_c, 10, 79, 56
11, 277860, Note_on_c, 10, 88, 113
11, 277905, Note_off_c, 10, 88, 56
11, 277922, Note_on_c, 10, 88, 108
11, 278030, Note_off_c, 10, 88, 56
11, 278041, Note_on_c, 10, 86, 108
11, 278132, Note_off_c, 10, 86, 56
11, 278160, Note_on_c, 10, 77, 108
11, 278251, Note_off_c, 10, 77, 56
11, 278340, Note_on_c, 10, 86, 113
11, 278385, Note_off_c, 10, 86, 56
11, 278401, Note_on_c, 10, 86, 108
11, 278509, Note_off_c, 10, 86, 56
11, 278520, Note_on_c, 10, 84, 108
11, 278611, Note_off_c, 10, 84, 56
11, 278640, Note_on_c, 10, 76, 108
11, 278731, Note_off_c, 10, 76, 56
11, 278820, Note_on_c, 10, 84, 113
11, 278865, Note_off_c, 10, 84, 56
11, 278881, Note_on_c, 10, 84, 108
11, 278989, Note_off_c, 10, 84, 56
11, 279001, Note_on_c, 10, 83, 108
11, 279092, Note_off_c, 10, 83, 56
11, 279120, Note_on_c, 10, 83, 108
11, 279504, Note_off_c, 10, 83, 64
11, 279600, Note_on_c, 10, 84, 108
11, 279691, Note_off_c, 10, 84, 56
11, 279780, Note_on_c, 10, 88, 113
11, 279825, Note_off_c, 10, 88, 56
11, 279838, Note_on_c, 10, 88, 108
11, 279946, Note_off_c, 10, 88, 56
11, 279959, Note_on_c, 10, 86, 108
11, 280050, Note_off_c, 10, 86, 56
11, 280081, Note_on_c, 10, 77, 108
11, 280172, Note_off_c, 10, 77, 56
11, 280260, Note_on_c, 10, 86, 113
11, 280305, Note_off_c, 10, 86, 56
11, 280320, Note_on_c, 10, 86, 108
11, 280428, Note_off_c, 10, 86, 56
11, 280441, Note_on_c, 10, 84, 108
11, 280532, Note_off_c, 10, 84, 56
11, 280560, Note_on_c, 10, 76, 108
11, 280651, Note_off_c, 10, 76, 56
11, 280740, Note_on_c, 10, 84, 113
11, 280785, Note_off_c, 10, 84, 56
11, 280802, Note_on_c, 10, 84, 108
11, 280910, Note_off_c, 10, 84, 56
11, 280920, Note_on_c, 10, 83, 108
11, 281011, Note_off_c, 10, 83, 56
11, 281037, Note_on_c, 10, 83, 108
11, 281421, Note_off_c, 10, 83, 64
11, 281520, Note_on_c, 10, 84, 108
11, 281588, Note_off_c, 10, 84, 56
11, 281700, Note_on_c, 10, 88, 113
11, 281734, Note_off_c, 10, 88, 56
11, 281759, Note_on_c, 10, 88, 108
11, 281827, Note_off_c, 10, 88, 56
11, 281940, Note_on_c, 10, 86, 113
11, 281974, Note_off_c, 10, 86, 56
11, 282000, Note_on_c, 10, 77, 108
11, 282068, Note_off_c, 10, 77, 56
11, 282180, Note_on_c, 10, 86, 113
11, 282214, Note_off_c, 10, 86, 56
11, 282241, Note_on_c, 10, 86, 108
11, 282309, Note_off_c, 10, 86, 56
11, 282420, Note_on_c, 10, 84, 113
11, 282454, Note_off_c, 10, 84, 56
11, 282540, Note_on_c, 10, 76, 113
11, 282574, Note_off_c, 10, 76, 56
11, 282660, Note_on_c, 10, 84, 113
11, 282694, Note_off_c, 10, 84, 56
11, 282720, Note_on_c, 10, 83, 108
11, 282788, Note_off_c, 10, 83, 56
11, 282900, Note_on_c, 10, 74, 113
11, 282945, Note_off_c, 10, 74, 56
11, 282959, Note_on_c, 10, 79, 108
11, 283343, Note_off_c, 10, 79, 64
11, 283440, Note_on_c, 10, 81, 113
11, 283494, Note_off_c, 10, 81, 56
11, 283501, Note_on_c, 10, 79, 113
11, 283555, Note_off_c, 10, 79, 56
11, 283561, Note_on_c, 10, 77, 113
11, 283615, Note_off_c, 10, 77, 56
11, 283621, Note_on_c, 10, 76, 113
11, 283675, Note_off_c, 10, 76, 56
11, 283681, Note_on_c, 10, 74, 108
11, 283772, Note_off_c, 10, 74, 56
11, 283860, Note_on_c, 10, 74, 113
11, 283905, Note_off_c, 10, 74, 56
11, 283923, Note_on_c, 10, 79, 108
11, 284307, Note_off_c, 10, 79, 64
11, 284399, Note_on_c, 10, 81, 113
11, 284453, Note_off_c, 10, 81, 56
11, 284459, Note_on_c, 10, 79, 113
11, 284513, Note_off_c, 10, 79, 56
11, 284520, Note_on_c, 10, 77, 113
11, 284574, Note_off_c, 10, 77, 56
11, 284579, Note_on_c, 10, 76, 113
11, 284633, Note_off_c, 10, 76, 56
11, 284639, Note_on_c, 10, 74, 108
11, 284730, Note_off_c, 10, 74, 56
11, 284820, Note_on_c, 10, 79, 113
11, 284865, Note_off_c, 10, 79, 56
11, 284879, Note_on_c, 10, 81, 113
11, 284933, Note_off_c, 10, 81, 56
11, 284940, Note_on_c, 10, 79, 113
11, 284994, Note_off_c, 10, 79, 56
11, 284999, Note_on_c, 10, 77, 113
11, 285053, Note_off_c, 10, 77, 56
11, 285061, Note_on_c, 10, 76, 113
11, 285115, Note_off_c, 10, 76, 56
11, 285118, Note_on_c, 10, 74, 108
11, 285226, Note_off_c, 10, 74, 56
11, 285300, Note_on_c, 10, 79, 113
11, 285345, Note_off_c, 10, 79, 56
11, 285361, Note_on_c, 10, 81, 113
11, 285415, Note_off_c, 10, 81, 56
11, 285421, Note_on_c, 10, 79, 113
11, 285475, Note_off_c, 10, 79, 56
11, 285481, Note_on_c, 10, 77, 113
11, 285535, Note_off_c, 10, 77, 56
11, 285541, Note_on_c, 10, 76, 113
11, 285595, Note_off_c, 10, 76, 56
11, 285601, Note_on_c, 10, 74, 108
11, 285692, Note_off_c, 10, 74, 56
11, 285780, Note_on_c, 10, 79, 113
11, 285825, Note_off_c, 10, 79, 56
11, 285840, Note_on_c, 10, 81, 113
11, 285894, Note_off_c, 10, 81, 56
11, 285899, Note_on_c, 10, 79, 113
11, 285953, Note_off_c, 10, 79, 56
11, 285959, Note_on_c, 10, 77, 113
11, 286013, Note_off_c, 10, 77, 56
11, 286021, Note_on_c, 10, 76, 113
11, 286075, Note_off_c, 10, 76, 56
11, 286079, Note_on_c, 10, 74, 108
11, 286187, Note_off_c, 10, 74, 56
11, 286260, Note_on_c, 10, 79, 113
11, 286305, Note_off_c, 10, 79, 56
11, 286321, Note_on_c, 10, 81, 113
11, 286375, Note_off_c, 10, 81, 56
11, 286379, Note_on_c, 10, 79, 113
11, 286433, Note_off_c, 10, 79, 56
11, 286441, Note_on_c, 10, 77, 113
11, 286495, Note_off_c, 10, 77, 56
11, 286501, Note_on_c, 10, 76, 113
11, 286555, Note_off_c, 10, 76, 56
11, 286560, Note_on_c, 10, 74, 108
11, 286628, Note_off_c, 10, 74, 56
11, 286682, Note_on_c, 10, 79, 108
11, 286790, Note_off_c, 10, 79, 56
11, 286800, Note_on_c, 10, 77, 108
11, 286891, Note_off_c, 10, 77, 56
11, 286920, Note_on_c, 10, 76, 108
11, 286988, Note_off_c, 10, 76, 56
11, 287040, Note_on_c, 10, 74, 108
11, 287108, Note_off_c, 10, 74, 56
11, 287159, Note_on_c, 10, 76, 108
11, 287267, Note_off_c, 10, 76, 56
11, 287279, Note_on_c, 10, 74, 108
11, 287370, Note_off_c, 10, 74, 56
11, 287401, Note_on_c, 10, 72, 108
11, 287469, Note_off_c, 10, 72, 56
11, 287520, Note_on_c, 10, 71, 108
11, 287588, Note_off_c, 10, 71, 56
11, 287639, Note_on_c, 10, 76, 108
11, 287747, Note_off_c, 10, 76, 56
11, 287760, Note_on_c, 10, 74, 108
11, 287851, Note_off_c, 10, 74, 56
11, 287880, Note_on_c, 10, 72, 108
11, 287948, Note_off_c, 10, 72, 56
11, 288001, Note_on_c, 10, 71, 108
11, 288069, Note_off_c, 10, 71, 56
11, 288121, Note_on_c, 10, 72, 108
11, 288229, Note_off_c, 10, 72, 56
11, 288239, Note_on_c, 10, 71, 108
11, 288330, Note_off_c, 10, 71, 56
11, 288359, Note_on_c, 10, 69, 108
11, 288427, Note_off_c, 10, 69, 56
11, 288481, Note_on_c, 10, 67, 108
11, 288549, Note_off_c, 10, 67, 56
11, 288598, Note_on_c, 10, 72, 108
11, 288706, Note_off_c, 10, 72, 56
11, 288720, Note_on_c, 10, 71, 108
11, 288811, Note_off_c, 10, 71, 56
11, 288839, Note_on_c, 10, 69, 108
11, 288907, Note_off_c, 10, 69, 56
11, 288960, Note_on_c, 10, 67, 108
11, 289028, Note_off_c, 10, 67, 56
11, 289081, Note_on_c, 10, 72, 108
11, 289189, Note_off_c, 10, 72, 56
11, 289201, Note_on_c, 10, 71, 108
11, 289292, Note_off_c, 10, 71, 56
11, 289321, Note_on_c, 10, 69, 108
11, 289389, Note_off_c, 10, 69, 56
11, 289439, Note_on_c, 10, 67, 108
11, 289507, Note_off_c, 10, 67, 56
11, 289562, Note_on_c, 10, 72, 108
11, 289670, Note_off_c, 10, 72, 56
11, 289680, Note_on_c, 10, 71, 108
11, 289771, Note_off_c, 10, 71, 56
11, 289799, Note_on_c, 10, 69, 108
11, 289890, Note_off_c, 10, 69, 56
11, 289919, Note_on_c, 10, 67, 108
11, 289987, Note_off_c, 10, 67, 56
11, 290041, Note_on_c, 10, 65, 108
11, 290109, Note_off_c, 10, 65, 56
11, 290159, Note_on_c, 10, 64, 108
11, 290227, Note_off_c, 10, 64, 56
11, 290281, Note_on_c, 10, 62, 108
11, 290349, Note_off_c, 10, 62, 56
11, 290398, Note_on_c, 10, 60, 108
11, 290580, Note_off_c, 10, 60, 64
11, 292321, Note_on_c, 10, 55, 108
11, 292503, Note_off_c, 10, 55, 64
11, 292803, Note_on_c, 10, 55, 108
11, 292985, Note_off_c, 10, 55, 64
11, 293279, Note_on_c, 10, 55, 108
11, 293461, Note_off_c, 10, 55, 64
11, 293758, Note_on_c, 10, 55, 108
11, 293940, Note_off_c, 10, 55, 64
11, 294238, Note_on_c, 10, 55, 108
11, 294420, Note_off_c, 10, 55, 64
11, 296161, Note_on_c, 10, 55, 65
11, 296161, Note_on_c, 10, 67, 66
11, 296343, Note_off_c, 10, 67, 64
11, 296343, Note_off_c, 10, 55, 64
11, 296639, Note_on_c, 10, 67, 66
11, 296639, Note_on_c, 10, 55, 65
11, 296821, Note_off_c, 10, 55, 64
11, 296821, Note_off_c, 10, 67, 64
11, 297118, Note_on_c, 10, 55, 65
11, 297120, Note_on_c, 10, 67, 71
11, 297300, Note_off_c, 10, 55, 64
11, 297302, Note_off_c, 10, 67, 64
11, 297598, Note_on_c, 10, 55, 69
11, 297601, Note_on_c, 10, 67, 66
11, 297780, Note_off_c, 10, 55, 64
11, 297783, Note_off_c, 10, 67, 64
11, 298081, Note_on_c, 10, 76, 108
11, 298729, Note_off_c, 10, 76, 64
11, 298800, Note_on_c, 10, 72, 108
11, 299016, Note_off_c, 10, 72, 64
11, 299038, Note_on_c, 10, 76, 108
11, 299254, Note_off_c, 10, 76, 64
11, 299277, Note_on_c, 10, 72, 108
11, 299493, Note_off_c, 10, 72, 64
11, 299523, Note_on_c, 10, 79, 108
11, 299739, Note_off_c, 10, 79, 64
11, 299763, Note_on_c, 10, 77, 108
11, 299925, Note_off_c, 10, 77, 64
11, 299941, Note_on_c, 10, 76, 113
11, 299992, Note_off_c, 10, 76, 56
11, 300000, Note_on_c, 10, 77, 108
11, 300648, Note_off_c, 10, 77, 64
11, 300718, Note_on_c, 10, 72, 108
11, 300934, Note_off_c, 10, 72, 64
11, 300963, Note_on_c, 10, 77, 108
11, 301179, Note_off_c, 10, 77, 64
11, 301201, Note_on_c, 10, 72, 108
11, 301417, Note_off_c, 10, 72, 64
11, 301441, Note_on_c, 10, 81, 108
11, 301657, Note_off_c, 10, 81, 64
11, 301681, Note_on_c, 10, 79, 108
11, 301843, Note_off_c, 10, 79, 64
11, 301861, Note_on_c, 10, 77, 113
11, 301912, Note_off_c, 10, 77, 56
11, 301920, Note_on_c, 10, 67, 113
11, 301920, Control_c, 10, 7, 120
11, 301920, Program_c, 10, 44
11, 301965, Note_off_c, 10, 67, 56
11, 301980, Note_on_c, 10, 67, 113
11, 302025, Note_off_c, 10, 67, 56
11, 302040, Note_on_c, 10, 67, 113
11, 302085, Note_off_c, 10, 67, 56
11, 302100, Note_on_c, 10, 67, 113
11, 302145, Note_off_c, 10, 67, 56
11, 302160, Note_on_c, 10, 67, 113
11, 302205, Note_off_c, 10, 67, 56
11, 302220, Note_on_c, 10, 67, 113
11, 302265, Note_off_c, 10, 67, 56
11, 302280, Note_on_c, 10, 67, 113
11, 302325, Note_off_c, 10, 67, 56
11, 302340, Note_on_c, 10, 67, 113
11, 302385, Note_off_c, 10, 67, 56
11, 302400, Note_on_c, 10, 67, 113
11, 302445, Note_off_c, 10, 67, 56
11, 302460, Note_on_c, 10, 67, 113
11, 302505, Note_off_c, 10, 67, 56
11, 302520, Note_on_c, 10, 67, 113
11, 302565, Note_off_c, 10, 67, 56
11, 302580, Note_on_c, 10, 67, 113
11, 302625, Note_off_c, 10, 67, 56
11, 302640, Note_on_c, 10, 67, 113
11, 302685, Note_off_c, 10, 67, 56
11, 302700, Note_on_c, 10, 67, 113
11, 302745, Note_off_c, 10, 67, 56
11, 302760, Note_on_c, 10, 67, 113
11, 302805, Note_off_c, 10, 67, 56
11, 302820, Note_on_c, 10, 67, 113
11, 302865, Note_off_c, 10, 67, 56
11, 302880, Note_on_c, 10, 67, 113
11, 302925, Note_off_c, 10, 67, 56
11, 302940, Note_on_c, 10, 67, 113
11, 302985, Note_off_c, 10, 67, 56
11, 303000, Note_on_c, 10, 67, 113
11, 303045, Note_off_c, 10, 67, 56
11, 303060, Note_on_c, 10, 67, 113
11, 303105, Note_off_c, 10, 67, 56
11, 303120, Note_on_c, 10, 67, 113
11, 303165, Note_off_c, 10, 67, 56
11, 303180, Note_on_c, 10, 67, 113
11, 303225, Note_off_c, 10, 67, 56
11, 303240, Note_on_c, 10, 67, 113
11, 303285, Note_off_c, 10, 67, 56
11, 303300, Note_on_c, 10, 67, 113
11, 303345, Note_off_c, 10, 67, 56
11, 303360, Note_on_c, 10, 67, 113
11, 303405, Note_off_c, 10, 67, 56
11, 303420, Note_on_c, 10, 67, 113
11, 303465, Note_off_c, 10, 67, 56
11, 303480, Note_on_c, 10, 67, 113
11, 303525, Note_off_c, 10, 67, 56
11, 303540, Note_on_c, 10, 67, 113
11, 303585, Note_off_c, 10, 67, 56
11, 303600, Note_on_c, 10, 67, 113
11, 303645, Note_off_c, 10, 67, 56
11, 303660, Note_on_c, 10, 67, 113
11, 303705, Note_off_c, 10, 67, 56
11, 303720, Note_on_c, 10, 67, 113
11, 303765, Note_off_c, 10, 67, 56
11, 303780, Note_on_c, 10, 67, 113
11, 303825, Note_off_c, 10, 67, 56
11, 303840, Note_on_c, 10, 67, 113
11, 303885, Note_off_c, 10, 67, 56
11, 303900, Note_on_c, 10, 67, 113
11, 303945, Note_off_c, 10, 67, 56
11, 303960, Note_on_c, 10, 67, 113
11, 304005, Note_off_c, 10, 67, 56
11, 304020, Note_on_c, 10, 67, 113
11, 304065, Note_off_c, 10, 67, 56
11, 304080, Note_on_c, 10, 67, 113
11, 304125, Note_off_c, 10, 67, 56
11, 304140, Note_on_c, 10, 67, 113
11, 304185, Note_off_c, 10, 67, 56
11, 304200, Note_on_c, 10, 67, 113
11, 304245, Note_off_c, 10, 67, 56
11, 304260, Note_on_c, 10, 67, 113
11, 304305, Note_off_c, 10, 67, 56
11, 304320, Note_on_c, 10, 67, 113
11, 304365, Note_off_c, 10, 67, 56
11, 304380, Note_on_c, 10, 67, 113
11, 304425, Note_off_c, 10, 67, 56
11, 304440, Note_on_c, 10, 67, 113
11, 304485, Note_off_c, 10, 67, 56
11, 304500, Note_on_c, 10, 67, 113
11, 304545, Note_off_c, 10, 67, 56
11, 304560, Note_on_c, 10, 67, 113
11, 304605, Note_off_c, 10, 67, 56
11, 304620, Note_on_c, 10, 67, 113
11, 304665, Note_off_c, 10, 67, 56
11, 304680, Note_on_c, 10, 67, 113
11, 304725, Note_off_c, 10, 67, 56
11, 304740, Note_on_c, 10, 67, 113
11, 304785, Note_off_c, 10, 67, 56
11, 304800, Note_on_c, 10, 67, 113
11, 304845, Note_off_c, 10, 67, 56
11, 304860, Note_on_c, 10, 67, 113
11, 304905, Note_off_c, 10, 67, 56
11, 304920, Note_on_c, 10, 67, 113
11, 304965, Note_off_c, 10, 67, 56
11, 304980, Note_on_c, 10, 67, 113
11, 305025, Note_off_c, 10, 67, 56
11, 305040, Note_on_c, 10, 67, 113
11, 305085, Note_off_c, 10, 67, 56
11, 305100, Note_on_c, 10, 67, 113
11, 305145, Note_off_c, 10, 67, 56
11, 305160, Note_on_c, 10, 67, 113
11, 305205, Note_off_c, 10, 67, 56
11, 305220, Note_on_c, 10, 67, 113
11, 305265, Note_off_c, 10, 67, 56
11, 305280, Note_on_c, 10, 67, 113
11, 305325, Note_off_c, 10, 67, 56
11, 305340, Note_on_c, 10, 67, 113
11, 305385, Note_off_c, 10, 67, 56
11, 305400, Note_on_c, 10, 67, 113
11, 305445, Note_off_c, 10, 67, 56
11, 305460, Note_on_c, 10, 67, 113
11, 305505, Note_off_c, 10, 67, 56
11, 305520, Note_on_c, 10, 67, 113
11, 305565, Note_off_c, 10, 67, 56
11, 305580, Note_on_c, 10, 67, 113
11, 305625, Note_off_c, 10, 67, 56
11, 305640, Note_on_c, 10, 67, 113
11, 305685, Note_off_c, 10, 67, 56
11, 305700, Note_on_c, 10, 67, 113
11, 305745, Note_off_c, 10, 67, 56
11, 305760, Note_on_c, 10, 67, 113
11, 305805, Note_off_c, 10, 67, 56
11, 305820, Note_on_c, 10, 67, 113
11, 305865, Note_off_c, 10, 67, 56
11, 305880, Note_on_c, 10, 67, 113
11, 305925, Note_off_c, 10, 67, 56
11, 305940, Note_on_c, 10, 67, 113
11, 305985, Note_off_c, 10, 67, 56
11, 306000, Note_on_c, 10, 67, 113
11, 306045, Note_off_c, 10, 67, 56
11, 306060, Note_on_c, 10, 67, 113
11, 306105, Note_off_c, 10, 67, 56
11, 306120, Note_on_c, 10, 67, 113
11, 306165, Note_off_c, 10, 67, 56
11, 306180, Note_on_c, 10, 67, 113
11, 306225, Note_off_c, 10, 67, 56
11, 306240, Note_on_c, 10, 67, 113
11, 306285, Note_off_c, 10, 67, 56
11, 306300, Note_on_c, 10, 67, 113
11, 306345, Note_off_c, 10, 67, 56
11, 306360, Note_on_c, 10, 67, 113
11, 306405, Note_off_c, 10, 67, 56
11, 306420, Note_on_c, 10, 67, 113
11, 306465, Note_off_c, 10, 67, 56
11, 306480, Note_on_c, 10, 67, 113
11, 306525, Note_off_c, 10, 67, 56
11, 306540, Note_on_c, 10, 67, 113
11, 306585, Note_off_c, 10, 67, 56
11, 306600, Note_on_c, 10, 67, 113
11, 306645, Note_off_c, 10, 67, 56
11, 306660, Note_on_c, 10, 67, 113
11, 306705, Note_off_c, 10, 67, 56
11, 306720, Note_on_c, 10, 67, 113
11, 306765, Note_off_c, 10, 67, 56
11, 306780, Note_on_c, 10, 67, 113
11, 306825, Note_off_c, 10, 67, 56
11, 306840, Note_on_c, 10, 67, 113
11, 306885, Note_off_c, 10, 67, 56
11, 306900, Note_on_c, 10, 67, 113
11, 306945, Note_off_c, 10, 67, 56
11, 306960, Note_on_c, 10, 67, 113
11, 307005, Note_off_c, 10, 67, 56
11, 307020, Note_on_c, 10, 67, 113
11, 307065, Note_off_c, 10, 67, 56
11, 307080, Note_on_c, 10, 67, 113
11, 307125, Note_off_c, 10, 67, 56
11, 307140, Note_on_c, 10, 67, 113
11, 307185, Note_off_c, 10, 67, 56
11, 307200, Note_on_c, 10, 67, 113
11, 307245, Note_off_c, 10, 67, 56
11, 307260, Note_on_c, 10, 67, 113
11, 307305, Note_off_c, 10, 67, 56
11, 307320, Note_on_c, 10, 67, 113
11, 307365, Note_off_c, 10, 67, 56
11, 307380, Note_on_c, 10, 67, 113
11, 307425, Note_off_c, 10, 67, 56
11, 307440, Note_on_c, 10, 67, 113
11, 307485, Note_off_c, 10, 67, 56
11, 307500, Note_on_c, 10, 67, 113
11, 307545, Note_off_c, 10, 67, 56
11, 307560, Note_on_c, 10, 67, 113
11, 307605, Note_off_c, 10, 67, 56
11, 307620, Note_on_c, 10, 67, 113
11, 307665, Note_off_c, 10, 67, 56
11, 307677, Note_on_c, 10, 79, 108
11, 307680, Control_c, 10, 7, 100
11, 307704, Control_c, 10, 0, 0
11, 307704, Control_c, 10, 32, 8
11, 307704, Program_c, 10, 50
11, 308265, Note_off_c, 10, 79, 64
11, 308278, Note_on_c, 10, 79, 108
11, 308386, Note_off_c, 10, 79, 56
11, 308400, Note_on_c, 10, 77, 108
11, 308502, Note_off_c, 10, 77, 56
11, 308521, Note_on_c, 10, 76, 108
11, 308589, Note_off_c, 10, 76, 56
11, 308641, Note_on_c, 10, 74, 108
11, 308709, Note_off_c, 10, 74, 56
11, 308759, Note_on_c, 10, 76, 108
11, 308867, Note_off_c, 10, 76, 56
11, 308880, Note_on_c, 10, 74, 108
11, 308982, Note_off_c, 10, 74, 56
11, 309000, Note_on_c, 10, 72, 108
11, 309068, Note_off_c, 10, 72, 56
11, 309121, Note_on_c, 10, 71, 108
11, 309189, Note_off_c, 10, 71, 56
11, 309242, Note_on_c, 10, 79, 108
11, 309350, Note_off_c, 10, 79, 56
11, 309360, Note_on_c, 10, 78, 108
11, 309462, Note_off_c, 10, 78, 56
11, 309479, Note_on_c, 10, 84, 108
11, 309547, Note_off_c, 10, 84, 56
11, 309600, Note_on_c, 10, 83, 108
11, 309805, Note_off_c, 10, 83, 64
11, 310200, Note_on_c, 10, 67, 108
11, 310308, Note_off_c, 10, 67, 56
11, 310318, Note_on_c, 10, 66, 108
11, 310420, Note_off_c, 10, 66, 56
11, 310440, Note_on_c, 10, 72, 108
11, 310508, Note_off_c, 10, 72, 56
11, 310558, Note_on_c, 10, 71, 108
11, 310660, Note_off_c, 10, 71, 56
11, 311280, Note_on_c, 10, 74, 108
11, 311352, Note_off_c, 10, 74, 56
11, 311361, Note_on_c, 10, 76, 108
11, 311433, Note_off_c, 10, 76, 56
11, 311441, Note_on_c, 10, 77, 108
11, 311513, Note_off_c, 10, 77, 56
11, 311518, Note_on_c, 10, 79, 108
11, 311654, Note_off_c, 10, 79, 64
11, 311759, Note_on_c, 10, 76, 108
11, 311831, Note_off_c, 10, 76, 56
11, 311840, Note_on_c, 10, 77, 108
11, 311912, Note_off_c, 10, 77, 56
11, 311920, Note_on_c, 10, 79, 108
11, 311992, Note_off_c, 10, 79, 56
11, 312002, Note_on_c, 10, 81, 108
11, 312138, Note_off_c, 10, 81, 64
11, 312241, Note_on_c, 10, 81, 108
11, 312313, Note_off_c, 10, 81, 56
11, 312321, Note_on_c, 10, 83, 108
11, 312393, Note_off_c, 10, 83, 56
11, 312401, Note_on_c, 10, 84, 108
11, 312473, Note_off_c, 10, 84, 56
11, 312483, Note_on_c, 10, 79, 108
11, 313131, Note_off_c, 10, 79, 64
11, 313199, Note_on_c, 10, 79, 73
11, 313271, Note_off_c, 10, 79, 56
11, 313281, Note_on_c, 10, 77, 73
11, 313353, Note_off_c, 10, 77, 56
11, 313360, Note_on_c, 10, 76, 73
11, 313432, Note_off_c, 10, 76, 56
11, 313441, Note_on_c, 10, 74, 73
11, 313657, Note_off_c, 10, 74, 64
11, 313680, Note_on_c, 10, 77, 73
11, 313752, Note_off_c, 10, 77, 56
11, 313761, Note_on_c, 10, 76, 73
11, 313833, Note_off_c, 10, 76, 56
11, 313839, Note_on_c, 10, 74, 73
11, 313911, Note_off_c, 10, 74, 56
11, 313921, Note_on_c, 10, 72, 73
11, 314137, Note_off_c, 10, 72, 64
11, 314161, Note_on_c, 10, 76, 73
11, 314233, Note_off_c, 10, 76, 56
11, 314241, Note_on_c, 10, 74, 73
11, 314313, Note_off_c, 10, 74, 56
11, 314320, Note_on_c, 10, 72, 73
11, 314392, Note_off_c, 10, 72, 56
11, 314400, Note_on_c, 10, 71, 73
11, 314536, Note_off_c, 10, 71, 64
11, 314639, Note_on_c, 10, 71, 80
11, 314711, Note_off_c, 10, 71, 56
11, 314720, Note_on_c, 10, 72, 82
11, 314792, Note_off_c, 10, 72, 56
11, 314799, Note_on_c, 10, 74, 83
11, 314871, Note_off_c, 10, 74, 56
11, 314878, Note_on_c, 10, 67, 86
11, 315094, Note_off_c, 10, 67, 64
11, 315119, Note_on_c, 10, 62, 90
11, 315187, Note_off_c, 10, 62, 56
11, 315201, Note_on_c, 10, 64, 90
11, 315269, Note_off_c, 10, 64, 56
11, 315281, Note_on_c, 10, 65, 90
11, 315349, Note_off_c, 10, 65, 56
11, 315358, Note_on_c, 10, 67, 66
11, 315540, Note_off_c, 10, 67, 64
11, 315838, Note_on_c, 10, 69, 72
11, 316020, Note_off_c, 10, 69, 64
11, 316318, Note_on_c, 10, 67, 67
11, 316500, Note_off_c, 10, 67, 64
11, 316560, Note_on_c, 10, 67, 90
11, 316628, Note_off_c, 10, 67, 56
11, 316639, Note_on_c, 10, 69, 90
11, 316707, Note_off_c, 10, 69, 56
11, 316721, Note_on_c, 10, 71, 90
11, 316789, Note_off_c, 10, 71, 56
11, 316800, Note_on_c, 10, 72, 90
11, 317005, Note_off_c, 10, 72, 64
11, 317039, Note_on_c, 10, 79, 73
11, 317111, Note_off_c, 10, 79, 56
11, 317121, Note_on_c, 10, 77, 73
11, 317193, Note_off_c, 10, 77, 56
11, 317200, Note_on_c, 10, 76, 73
11, 317272, Note_off_c, 10, 76, 56
11, 317280, Note_on_c, 10, 74, 73
11, 317496, Note_off_c, 10, 74, 64
11, 317520, Note_on_c, 10, 77, 73
11, 317592, Note_off_c, 10, 77, 56
11, 317601, Note_on_c, 10, 76, 73
11, 317673, Note_off_c, 10, 76, 56
11, 317680, Note_on_c, 10, 74, 73
11, 317752, Note_off_c, 10, 74, 56
11, 317761, Note_on_c, 10, 72, 73
11, 317977, Note_off_c, 10, 72, 64
11, 318001, Note_on_c, 10, 76, 73
11, 318073, Note_off_c, 10, 76, 56
11, 318081, Note_on_c, 10, 74, 73
11, 318153, Note_off_c, 10, 74, 56
11, 318161, Note_on_c, 10, 72, 73
11, 318229, Note_off_c, 10, 72, 56
11, 318243, Note_on_c, 10, 71, 73
11, 318448, Note_off_c, 10, 71, 64
11, 318959, Note_on_c, 10, 81, 73
11, 319031, Note_off_c, 10, 81, 56
11, 319039, Note_on_c, 10, 79, 73
11, 319111, Note_off_c, 10, 79, 56
11, 319121, Note_on_c, 10, 77, 73
11, 319193, Note_off_c, 10, 77, 56
11, 319197, Note_on_c, 10, 76, 73
11, 319413, Note_off_c, 10, 76, 64
11, 319441, Note_on_c, 10, 79, 73
11, 319513, Note_off_c, 10, 79, 56
11, 319521, Note_on_c, 10, 77, 73
11, 319593, Note_off_c, 10, 77, 56
11, 319601, Note_on_c, 10, 76, 73
11, 319673, Note_off_c, 10, 76, 56
11, 319679, Note_on_c, 10, 74, 73
11, 319895, Note_off_c, 10, 74, 64
11, 319920, Note_on_c, 10, 77, 73
11, 319992, Note_off_c, 10, 77, 56
11, 319999, Note_on_c, 10, 76, 73
11, 320071, Note_off_c, 10, 76, 56
11, 320080, Note_on_c, 10, 74, 73
11, 320152, Note_off_c, 10, 74, 56
11, 320163, Note_on_c, 10, 73, 73
11, 320368, Note_off_c, 10, 73, 64
11, 320879, Note_on_c, 10, 84, 56
11, 320951, Note_off_c, 10, 84, 56
11, 320961, Note_on_c, 10, 82, 56
11, 321033, Note_off_c, 10, 82, 56
11, 321040, Note_on_c, 10, 81, 56
11, 321112, Note_off_c, 10, 81, 56
11, 321117, Note_on_c, 10, 79, 56
11, 321333, Note_off_c, 10, 79, 64
11, 321360, Note_on_c, 10, 82, 56
11, 321432, Note_off_c, 10, 82, 56
11, 321440, Note_on_c, 10, 81, 56
11, 321512, Note_off_c, 10, 81, 56
11, 321520, Note_on_c, 10, 79, 56
11, 321592, Note_off_c, 10, 79, 56
11, 321601, Note_on_c, 10, 77, 56
11, 321817, Note_off_c, 10, 77, 64
11, 321839, Note_on_c, 10, 81, 56
11, 321911, Note_off_c, 10, 81, 56
11, 321919, Note_on_c, 10, 79, 56
11, 321991, Note_off_c, 10, 79, 56
11, 321999, Note_on_c, 10, 77, 56
11, 322071, Note_off_c, 10, 77, 56
11, 322080, Note_on_c, 10, 76, 61
11, 322080, Control_c, 10, 7, 120
11, 322080, Program_c, 10, 44
11, 322125, Note_off_c, 10, 76, 56
11, 322140, Note_on_c, 10, 79, 62
11, 322185, Note_off_c, 10, 79, 56
11, 322200, Note_on_c, 10, 79, 64
11, 322245, Note_off_c, 10, 79, 56
11, 322260, Note_on_c, 10, 79, 65
11, 322305, Note_off_c, 10, 79, 56
11, 322320, Note_on_c, 10, 79, 67
11, 322365, Note_off_c, 10, 79, 56
11, 322380, Note_on_c, 10, 79, 69
11, 322425, Note_off_c, 10, 79, 56
11, 322440, Note_on_c, 10, 79, 70
11, 322485, Note_off_c, 10, 79, 56
11, 322500, Note_on_c, 10, 79, 72
11, 322545, Note_off_c, 10, 79, 56
11, 322560, Note_on_c, 10, 79, 74
11, 322605, Note_off_c, 10, 79, 56
11, 322620, Note_on_c, 10, 79, 76
11, 322665, Note_off_c, 10, 79, 56
11, 322680, Note_on_c, 10, 79, 77
11, 322725, Note_off_c, 10, 79, 56
11, 322740, Note_on_c, 10, 79, 78
11, 322785, Note_off_c, 10, 79, 56
11, 322800, Note_on_c, 10, 79, 80
11, 322845, Note_off_c, 10, 79, 56
11, 322860, Note_on_c, 10, 79, 82
11, 322905, Note_off_c, 10, 79, 56
11, 322920, Note_on_c, 10, 79, 84
11, 322965, Note_off_c, 10, 79, 56
11, 322980, Note_on_c, 10, 79, 85
11, 323025, Note_off_c, 10, 79, 56
11, 323040, Note_on_c, 10, 80, 87
11, 323085, Note_off_c, 10, 80, 56
11, 323100, Note_on_c, 10, 80, 88
11, 323145, Note_off_c, 10, 80, 56
11, 323160, Note_on_c, 10, 80, 90
11, 323205, Note_off_c, 10, 80, 56
11, 323220, Note_on_c, 10, 80, 92
11, 323265, Note_off_c, 10, 80, 56
11, 323280, Note_on_c, 10, 80, 93
11, 323325, Note_off_c, 10, 80, 56
11, 323340, Note_on_c, 10, 80, 95
11, 323385, Note_off_c, 10, 80, 56
11, 323400, Note_on_c, 10, 80, 97
11, 323445, Note_off_c, 10, 80, 56
11, 323460, Note_on_c, 10, 80, 98
11, 323505, Note_off_c, 10, 80, 56
11, 323520, Note_on_c, 10, 80, 100
11, 323565, Note_off_c, 10, 80, 56
11, 323580, Note_on_c, 10, 80, 101
11, 323625, Note_off_c, 10, 80, 56
11, 323640, Note_on_c, 10, 80, 103
11, 323685, Note_off_c, 10, 80, 56
11, 323700, Note_on_c, 10, 80, 105
11, 323745, Note_off_c, 10, 80, 56
11, 323760, Note_on_c, 10, 80, 107
11, 323805, Note_off_c, 10, 80, 56
11, 323820, Note_on_c, 10, 80, 108
11, 323865, Note_off_c, 10, 80, 56
11, 323880, Note_on_c, 10, 80, 109
11, 323925, Note_off_c, 10, 80, 56
11, 323940, Note_on_c, 10, 80, 111
11, 323985, Note_off_c, 10, 80, 56
11, 324000, Note_on_c, 10, 81, 113
11, 324045, Note_off_c, 10, 81, 56
11, 324060, Note_on_c, 10, 81, 113
11, 324105, Note_off_c, 10, 81, 56
11, 324120, Note_on_c, 10, 81, 113
11, 324165, Note_off_c, 10, 81, 56
11, 324180, Note_on_c, 10, 81, 113
11, 324225, Note_off_c, 10, 81, 56
11, 324240, Note_on_c, 10, 81, 113
11, 324285, Note_off_c, 10, 81, 56
11, 324300, Note_on_c, 10, 81, 113
11, 324345, Note_off_c, 10, 81, 56
11, 324360, Note_on_c, 10, 81, 113
11, 324405, Note_off_c, 10, 81, 56
11, 324420, Note_on_c, 10, 81, 113
11, 324465, Note_off_c, 10, 81, 56
11, 324480, Control_c, 10, 0, 0
11, 324480, Control_c, 10, 7, 100
11, 324480, Control_c, 10, 32, 8
11, 324480, Program_c, 10, 50
11, 324480, Note_on_c, 10, 81, 113
11, 324525, Note_off_c, 10, 81, 56
11, 324540, Note_on_c, 10, 57, 113
11, 324585, Note_off_c, 10, 57, 56
11, 324600, Note_on_c, 10, 58, 113
11, 324645, Note_off_c, 10, 58, 56
11, 324660, Note_on_c, 10, 60, 113
11, 324705, Note_off_c, 10, 60, 56
11, 324720, Note_on_c, 10, 62, 113
11, 324765, Note_off_c, 10, 62, 56
11, 324780, Note_on_c, 10, 64, 113
11, 324825, Note_off_c, 10, 64, 56
11, 324840, Note_on_c, 10, 65, 113
11, 324885, Note_off_c, 10, 65, 56
11, 324900, Note_on_c, 10, 67, 113
11, 324945, Note_off_c, 10, 67, 56
11, 324960, Note_on_c, 10, 69, 113
11, 325005, Note_off_c, 10, 69, 56
11, 325020, Note_on_c, 10, 60, 113
11, 325065, Note_off_c, 10, 60, 56
11, 325080, Note_on_c, 10, 62, 113
11, 325125, Note_off_c, 10, 62, 56
11, 325140, Note_on_c, 10, 64, 113
11, 325185, Note_off_c, 10, 64, 56
11, 325200, Note_on_c, 10, 65, 113
11, 325245, Note_off_c, 10, 65, 56
11, 325260, Note_on_c, 10, 67, 113
11, 325305, Note_off_c, 10, 67, 56
11, 325320, Note_on_c, 10, 69, 113
11, 325365, Note_off_c, 10, 69, 56
11, 325380, Note_on_c, 10, 70, 113
11, 325425, Note_off_c, 10, 70, 56
11, 325440, Note_on_c, 10, 72, 113
11, 325485, Note_off_c, 10, 72, 56
11, 325500, Note_on_c, 10, 69, 113
11, 325545, Note_off_c, 10, 69, 56
11, 325560, Note_on_c, 10, 70, 113
11, 325605, Note_off_c, 10, 70, 56
11, 325620, Note_on_c, 10, 72, 113
11, 325665, Note_off_c, 10, 72, 56
11, 325680, Note_on_c, 10, 74, 113
11, 325725, Note_off_c, 10, 74, 56
11, 325740, Note_on_c, 10, 76, 113
11, 325785, Note_off_c, 10, 76, 56
11, 325800, Note_on_c, 10, 77, 113
11, 325845, Note_off_c, 10, 77, 56
11, 325860, Note_on_c, 10, 79, 113
11, 325905, Note_off_c, 10, 79, 56
11, 325920, Note_on_c, 10, 81, 113
11, 325965, Note_off_c, 10, 81, 56
11, 325980, Note_on_c, 10, 79, 113
11, 326025, Note_off_c, 10, 79, 56
11, 326040, Note_on_c, 10, 81, 113
11, 326085, Note_off_c, 10, 81, 56
11, 326100, Note_on_c, 10, 83, 113
11, 326145, Note_off_c, 10, 83, 56
11, 326160, Note_on_c, 10, 84, 113
11, 326205, Note_off_c, 10, 84, 56
11, 326220, Note_on_c, 10, 84, 113
11, 326265, Note_off_c, 10, 84, 56
11, 326280, Note_on_c, 10, 84, 113
11, 326325, Note_off_c, 10, 84, 56
11, 326340, Note_on_c, 10, 84, 113
11, 326385, Note_off_c, 10, 84, 56
11, 326400, Note_on_c, 10, 84, 113
11, 326445, Note_off_c, 10, 84, 56
11, 326460, Note_on_c, 10, 84, 113
11, 326505, Note_off_c, 10, 84, 56
11, 326520, Note_on_c, 10, 84, 113
11, 326565, Note_off_c, 10, 84, 56
11, 326580, Note_on_c, 10, 84, 113
11, 326625, Note_off_c, 10, 84, 56
11, 326640, Note_on_c, 10, 84, 113
11, 326685, Note_off_c, 10, 84, 56
11, 326700, Note_on_c, 10, 84, 113
11, 326745, Note_off_c, 10, 84, 56
11, 326760, Note_on_c, 10, 84, 113
11, 326805, Note_off_c, 10, 84, 56
11, 326820, Note_on_c, 10, 84, 113
11, 326865, Note_off_c, 10, 84, 56
11, 326880, Note_on_c, 10, 84, 113
11, 326925, Note_off_c, 10, 84, 56
11, 326940, Note_on_c, 10, 84, 113
11, 326985, Note_off_c, 10, 84, 56
11, 327000, Note_on_c, 10, 83, 113
11, 327045, Note_off_c, 10, 83, 56
11, 327060, Note_on_c, 10, 81, 113
11, 327105, Note_off_c, 10, 81, 56
11, 327120, Note_on_c, 10, 79, 113
11, 327165, Note_off_c, 10, 79, 56
11, 327180, Note_on_c, 10, 77, 113
11, 327225, Note_off_c, 10, 77, 56
11, 327240, Note_on_c, 10, 76, 113
11, 327285, Note_off_c, 10, 76, 56
11, 327300, Note_on_c, 10, 74, 113
11, 327345, Note_off_c, 10, 74, 56
11, 327360, Note_on_c, 10, 72, 113
11, 327405, Note_off_c, 10, 72, 56
11, 327420, Note_on_c, 10, 71, 113
11, 327465, Note_off_c, 10, 71, 56
11, 327480, Note_on_c, 10, 69, 113
11, 327525, Note_off_c, 10, 69, 56
11, 327540, Note_on_c, 10, 67, 113
11, 327585, Note_off_c, 10, 67, 56
11, 327600, Note_on_c, 10, 65, 113
11, 327645, Note_off_c, 10, 65, 56
11, 327660, Note_on_c, 10, 64, 113
11, 327705, Note_off_c, 10, 64, 56
11, 327720, Note_on_c, 10, 62, 113
11, 327765, Note_off_c, 10, 62, 56
11, 327780, Note_on_c, 10, 60, 113
11, 327825, Note_off_c, 10, 60, 56
11, 327838, Note_on_c, 10, 65, 108
11, 327974, Note_off_c, 10, 65, 64
11, 328799, Note_on_c, 10, 59, 108
11, 328801, Note_on_c, 10, 65, 108
11, 328935, Note_off_c, 10, 59, 64
11, 328937, Note_off_c, 10, 65, 64
11, 331319, Note_on_c, 10, 67, 78
11, 331373, Note_off_c, 10, 67, 56
11, 331381, Note_on_c, 10, 69, 78
11, 331435, Note_off_c, 10, 69, 56
11, 331440, Note_on_c, 10, 71, 78
11, 331494, Note_off_c, 10, 71, 56
11, 331500, Note_on_c, 10, 72, 78
11, 331554, Note_off_c, 10, 72, 56
11, 331559, Note_on_c, 10, 74, 78
11, 331613, Note_off_c, 10, 74, 56
11, 331619, Note_on_c, 10, 71, 78
11, 331673, Note_off_c, 10, 71, 56
11, 331679, Note_on_c, 10, 72, 73
11, 331884, Note_off_c, 10, 72, 64
11, 333241, Note_on_c, 10, 67, 78
11, 333295, Note_off_c, 10, 67, 56
11, 333301, Note_on_c, 10, 69, 78
11, 333355, Note_off_c, 10, 69, 56
11, 333361, Note_on_c, 10, 71, 78
11, 333415, Note_off_c, 10, 71, 56
11, 333420, Note_on_c, 10, 72, 78
11, 333474, Note_off_c, 10, 72, 56
11, 333480, Note_on_c, 10, 74, 78
11, 333534, Note_off_c, 10, 74, 56
11, 333539, Note_on_c, 10, 76, 78
11, 333593, Note_off_c, 10, 76, 56
11, 333600, Note_on_c, 10, 77, 96
11, 333805, Note_off_c, 10, 77, 64
11, 335161, Note_on_c, 10, 73, 78
11, 335215, Note_off_c, 10, 73, 56
11, 335220, Note_on_c, 10, 74, 78
11, 335274, Note_off_c, 10, 74, 56
11, 335281, Note_on_c, 10, 76, 78
11, 335335, Note_off_c, 10, 76, 56
11, 335341, Note_on_c, 10, 77, 78
11, 335395, Note_off_c, 10, 77, 56
11, 335399, Note_on_c, 10, 79, 78
11, 335453, Note_off_c, 10, 79, 56
11, 335461, Note_on_c, 10, 76, 78
11, 335515, Note_off_c, 10, 76, 56
11, 335517, Note_on_c, 10, 81, 73
11, 335733, Note_off_c, 10, 81, 64
11, 336059, Note_on_c, 10, 69, 78
11, 336113, Note_off_c, 10, 69, 56
11, 336120, Note_on_c, 10, 71, 78
11, 336174, Note_off_c, 10, 71, 56
11, 336181, Note_on_c, 10, 73, 78
11, 336235, Note_off_c, 10, 73, 56
11, 336241, Note_on_c, 10, 74, 78
11, 336295, Note_off_c, 10, 74, 56
11, 336299, Note_on_c, 10, 76, 78
11, 336353, Note_off_c, 10, 76, 56
11, 336359, Note_on_c, 10, 77, 78
11, 336413, Note_off_c, 10, 77, 56
11, 336419, Note_on_c, 10, 74, 78
11, 336473, Note_off_c, 10, 74, 56
11, 336482, Note_on_c, 10, 79, 73
11, 336698, Note_off_c, 10, 79, 64
11, 337080, Note_on_c, 10, 74, 78
11, 337134, Note_off_c, 10, 74, 56
11, 337141, Note_on_c, 10, 76, 78
11, 337195, Note_off_c, 10, 76, 56
11, 337201, Note_on_c, 10, 77, 78
11, 337255, Note_off_c, 10, 77, 56
11, 337260, Note_on_c, 10, 79, 78
11, 337314, Note_off_c, 10, 79, 56
11, 337321, Note_on_c, 10, 81, 78
11, 337375, Note_off_c, 10, 81, 56
11, 337379, Note_on_c, 10, 83, 78
11, 337433, Note_off_c, 10, 83, 56
11, 337440, Note_on_c, 10, 84, 95
11, 337440, Control_c, 10, 7, 120
11, 337440, Program_c, 10, 44
11, 337485, Note_off_c, 10, 84, 56
11, 337500, Note_on_c, 10, 84, 95
11, 337545, Note_off_c, 10, 84, 56
11, 337560, Note_on_c, 10, 84, 95
11, 337605, Note_off_c, 10, 84, 56
11, 337620, Note_on_c, 10, 84, 95
11, 337665, Note_off_c, 10, 84, 56
11, 337680, Note_on_c, 10, 84, 95
11, 337725, Note_off_c, 10, 84, 56
11, 337740, Note_on_c, 10, 84, 97
11, 337785, Note_off_c, 10, 84, 56
11, 337800, Note_on_c, 10, 84, 97
11, 337845, Note_off_c, 10, 84, 56
11, 337860, Note_on_c, 10, 84, 97
11, 337905, Note_off_c, 10, 84, 56
11, 337920, Note_on_c, 10, 84, 97
11, 337965, Note_off_c, 10, 84, 56
11, 337980, Note_on_c, 10, 84, 97
11, 338025, Note_off_c, 10, 84, 56
11, 338040, Note_on_c, 10, 84, 97
11, 338085, Note_off_c, 10, 84, 56
11, 338100, Note_on_c, 10, 84, 97
11, 338145, Note_off_c, 10, 84, 56
11, 338160, Note_on_c, 10, 83, 97
11, 338205, Note_off_c, 10, 83, 56
11, 338220, Note_on_c, 10, 83, 98
11, 338265, Note_off_c, 10, 83, 56
11, 338280, Note_on_c, 10, 83, 98
11, 338325, Note_off_c, 10, 83, 56
11, 338340, Note_on_c, 10, 83, 98
11, 338385, Note_off_c, 10, 83, 56
11, 338400, Note_on_c, 10, 81, 98
11, 338445, Note_off_c, 10, 81, 56
11, 338460, Note_on_c, 10, 81, 98
11, 338505, Note_off_c, 10, 81, 56
11, 338520, Note_on_c, 10, 81, 98
11, 338565, Note_off_c, 10, 81, 56
11, 338580, Note_on_c, 10, 81, 98
11, 338625, Note_off_c, 10, 81, 56
11, 338640, Note_on_c, 10, 79, 98
11, 338685, Note_off_c, 10, 79, 56
11, 338700, Note_on_c, 10, 79, 98
11, 338745, Note_off_c, 10, 79, 56
11, 338760, Note_on_c, 10, 79, 99
11, 338805, Note_off_c, 10, 79, 56
11, 338820, Note_on_c, 10, 79, 99
11, 338865, Note_off_c, 10, 79, 56
11, 338880, Note_on_c, 10, 79, 99
11, 338925, Note_off_c, 10, 79, 56
11, 338940, Note_on_c, 10, 79, 99
11, 338985, Note_off_c, 10, 79, 56
11, 339000, Note_on_c, 10, 79, 99
11, 339045, Note_off_c, 10, 79, 56
11, 339060, Note_on_c, 10, 79, 99
11, 339105, Note_off_c, 10, 79, 56
11, 339120, Note_on_c, 10, 79, 99
11, 339165, Note_off_c, 10, 79, 56
11, 339180, Note_on_c, 10, 79, 99
11, 339225, Note_off_c, 10, 79, 56
11, 339240, Note_on_c, 10, 79, 100
11, 339285, Note_off_c, 10, 79, 56
11, 339300, Note_on_c, 10, 79, 100
11, 339345, Note_off_c, 10, 79, 56
11, 339360, Note_on_c, 10, 84, 100
11, 339405, Note_off_c, 10, 84, 56
11, 339420, Note_on_c, 10, 84, 100
11, 339465, Note_off_c, 10, 84, 56
11, 339480, Note_on_c, 10, 84, 100
11, 339525, Note_off_c, 10, 84, 56
11, 339540, Note_on_c, 10, 84, 100
11, 339585, Note_off_c, 10, 84, 56
11, 339600, Note_on_c, 10, 84, 100
11, 339645, Note_off_c, 10, 84, 56
11, 339660, Note_on_c, 10, 84, 100
11, 339705, Note_off_c, 10, 84, 56
11, 339720, Note_on_c, 10, 84, 100
11, 339765, Note_off_c, 10, 84, 56
11, 339780, Note_on_c, 10, 84, 101
11, 339825, Note_off_c, 10, 84, 56
11, 339840, Note_on_c, 10, 84, 101
11, 339885, Note_off_c, 10, 84, 56
11, 339900, Note_on_c, 10, 84, 101
11, 339945, Note_off_c, 10, 84, 56
11, 339960, Note_on_c, 10, 84, 101
11, 340005, Note_off_c, 10, 84, 56
11, 340020, Note_on_c, 10, 84, 101
11, 340065, Note_off_c, 10, 84, 56
11, 340080, Note_on_c, 10, 83, 101
11, 340125, Note_off_c, 10, 83, 56
11, 340140, Note_on_c, 10, 83, 101
11, 340185, Note_off_c, 10, 83, 56
11, 340200, Note_on_c, 10, 83, 101
11, 340245, Note_off_c, 10, 83, 56
11, 340260, Note_on_c, 10, 83, 102
11, 340305, Note_off_c, 10, 83, 56
11, 340320, Note_on_c, 10, 81, 102
11, 340365, Note_off_c, 10, 81, 56
11, 340380, Note_on_c, 10, 81, 102
11, 340425, Note_off_c, 10, 81, 56
11, 340440, Note_on_c, 10, 81, 102
11, 340485, Note_off_c, 10, 81, 56
11, 340500, Note_on_c, 10, 81, 102
11, 340545, Note_off_c, 10, 81, 56
11, 340560, Note_on_c, 10, 79, 102
11, 340605, Note_off_c, 10, 79, 56
11, 340620, Note_on_c, 10, 79, 102
11, 340665, Note_off_c, 10, 79, 56
11, 340680, Note_on_c, 10, 79, 102
11, 340725, Note_off_c, 10, 79, 56
11, 340740, Note_on_c, 10, 79, 102
11, 340785, Note_off_c, 10, 79, 56
11, 340800, Note_on_c, 10, 79, 103
11, 340845, Note_off_c, 10, 79, 56
11, 340860, Note_on_c, 10, 79, 103
11, 340905, Note_off_c, 10, 79, 56
11, 340920, Note_on_c, 10, 79, 103
11, 340965, Note_off_c, 10, 79, 56
11, 340980, Note_on_c, 10, 79, 103
11, 341025, Note_off_c, 10, 79, 56
11, 341040, Note_on_c, 10, 79, 103
11, 341085, Note_off_c, 10, 79, 56
11, 341100, Note_on_c, 10, 79, 103
11, 341145, Note_off_c, 10, 79, 56
11, 341160, Note_on_c, 10, 79, 103
11, 341205, Note_off_c, 10, 79, 56
11, 341220, Note_on_c, 10, 79, 103
11, 341265, Note_off_c, 10, 79, 56
11, 341280, Note_on_c, 10, 89, 105
11, 341325, Note_off_c, 10, 89, 56
11, 341340, Note_on_c, 10, 89, 105
11, 341385, Note_off_c, 10, 89, 56
11, 341400, Note_on_c, 10, 89, 105
11, 341445, Note_off_c, 10, 89, 56
11, 341460, Note_on_c, 10, 89, 105
11, 341505, Note_off_c, 10, 89, 56
11, 341520, Note_on_c, 10, 89, 105
11, 341565, Note_off_c, 10, 89, 56
11, 341580, Note_on_c, 10, 89, 105
11, 341625, Note_off_c, 10, 89, 56
11, 341640, Note_on_c, 10, 89, 105
11, 341685, Note_off_c, 10, 89, 56
11, 341700, Note_on_c, 10, 89, 105
11, 341745, Note_off_c, 10, 89, 56
11, 341760, Note_on_c, 10, 89, 105
11, 341805, Note_off_c, 10, 89, 56
11, 341820, Note_on_c, 10, 89, 106
11, 341865, Note_off_c, 10, 89, 56
11, 341880, Note_on_c, 10, 89, 106
11, 341925, Note_off_c, 10, 89, 56
11, 341940, Note_on_c, 10, 89, 106
11, 341985, Note_off_c, 10, 89, 56
11, 342000, Note_on_c, 10, 88, 106
11, 342045, Note_off_c, 10, 88, 56
11, 342060, Note_on_c, 10, 88, 106
11, 342105, Note_off_c, 10, 88, 56
11, 342120, Note_on_c, 10, 88, 106
11, 342165, Note_off_c, 10, 88, 56
11, 342180, Note_on_c, 10, 88, 106
11, 342225, Note_off_c, 10, 88, 56
11, 342240, Note_on_c, 10, 86, 106
11, 342285, Note_off_c, 10, 86, 56
11, 342300, Note_on_c, 10, 86, 106
11, 342345, Note_off_c, 10, 86, 56
11, 342360, Note_on_c, 10, 86, 107
11, 342405, Note_off_c, 10, 86, 56
11, 342420, Note_on_c, 10, 86, 107
11, 342465, Note_off_c, 10, 86, 56
11, 342480, Note_on_c, 10, 85, 107
11, 342525, Note_off_c, 10, 85, 56
11, 342540, Note_on_c, 10, 85, 107
11, 342585, Note_off_c, 10, 85, 56
11, 342600, Note_on_c, 10, 85, 107
11, 342645, Note_off_c, 10, 85, 56
11, 342660, Note_on_c, 10, 85, 107
11, 342705, Note_off_c, 10, 85, 56
11, 342720, Note_on_c, 10, 85, 107
11, 342720, Note_on_c, 10, 85, 107
11, 342765, Note_off_c, 10, 85, 56
11, 342765, Note_off_c, 10, 85, 56
11, 342780, Note_on_c, 10, 85, 107
11, 342825, Note_off_c, 10, 85, 56
11, 342840, Note_on_c, 10, 85, 108
11, 342885, Note_off_c, 10, 85, 56
11, 342900, Note_on_c, 10, 85, 108
11, 342945, Note_off_c, 10, 85, 56
11, 342960, Note_on_c, 10, 85, 108
11, 343005, Note_off_c, 10, 85, 56
11, 343020, Note_on_c, 10, 85, 108
11, 343020, Note_on_c, 10, 85, 108
11, 343065, Note_off_c, 10, 85, 56
11, 343065, Note_off_c, 10, 85, 56
11, 343080, Note_on_c, 10, 85, 108
11, 343125, Note_off_c, 10, 85, 56
11, 343140, Note_on_c, 10, 85, 108
11, 343185, Note_off_c, 10, 85, 56
11, 343200, Note_on_c, 10, 85, 108
11, 343245, Note_off_c, 10, 85, 56
11, 343260, Note_on_c, 10, 85, 108
11, 343305, Note_off_c, 10, 85, 56
11, 343320, Note_on_c, 10, 85, 108
11, 343365, Note_off_c, 10, 85, 56
11, 343380, Note_on_c, 10, 85, 109
11, 343425, Note_off_c, 10, 85, 56
11, 343440, Note_on_c, 10, 88, 109
11, 343485, Note_off_c, 10, 88, 56
11, 343500, Note_on_c, 10, 88, 109
11, 343545, Note_off_c, 10, 88, 56
11, 343560, Note_on_c, 10, 88, 109
11, 343605, Note_off_c, 10, 88, 56
11, 343620, Note_on_c, 10, 88, 109
11, 343665, Note_off_c, 10, 88, 56
11, 343680, Note_on_c, 10, 88, 109
11, 343725, Note_off_c, 10, 88, 56
11, 343740, Note_on_c, 10, 88, 109
11, 343785, Note_off_c, 10, 88, 56
11, 343800, Note_on_c, 10, 88, 109
11, 343845, Note_off_c, 10, 88, 56
11, 343860, Note_on_c, 10, 88, 110
11, 343905, Note_off_c, 10, 88, 56
11, 343920, Note_on_c, 10, 88, 110
11, 343965, Note_off_c, 10, 88, 56
11, 343980, Note_on_c, 10, 88, 110
11, 344025, Note_off_c, 10, 88, 56
11, 344040, Note_on_c, 10, 88, 110
11, 344085, Note_off_c, 10, 88, 56
11, 344100, Note_on_c, 10, 88, 110
11, 344145, Note_off_c, 10, 88, 56
11, 344160, Note_on_c, 10, 88, 110
11, 344205, Note_off_c, 10, 88, 56
11, 344220, Note_on_c, 10, 88, 110
11, 344265, Note_off_c, 10, 88, 56
11, 344280, Note_on_c, 10, 88, 110
11, 344325, Note_off_c, 10, 88, 56
11, 344340, Note_on_c, 10, 88, 110
11, 344385, Note_off_c, 10, 88, 56
11, 344400, Note_on_c, 10, 91, 111
11, 344445, Note_off_c, 10, 91, 56
11, 344460, Note_on_c, 10, 91, 111
11, 344505, Note_off_c, 10, 91, 56
11, 344520, Note_on_c, 10, 91, 111
11, 344565, Note_off_c, 10, 91, 56
11, 344580, Note_on_c, 10, 91, 111
11, 344625, Note_off_c, 10, 91, 56
11, 344640, Note_on_c, 10, 91, 111
11, 344685, Note_off_c, 10, 91, 56
11, 344700, Note_on_c, 10, 91, 111
11, 344745, Note_off_c, 10, 91, 56
11, 344760, Note_on_c, 10, 91, 111
11, 344760, Note_on_c, 10, 91, 111
11, 344805, Note_off_c, 10, 91, 56
11, 344805, Note_off_c, 10, 91, 56
11, 344820, Note_on_c, 10, 91, 111
11, 344865, Note_off_c, 10, 91, 56
11, 344880, Note_on_c, 10, 91, 113
11, 344925, Note_off_c, 10, 91, 56
11, 344940, Note_on_c, 10, 91, 113
11, 344985, Note_off_c, 10, 91, 56
11, 345000, Note_on_c, 10, 91, 113
11, 345000, Note_on_c, 10, 91, 113
11, 345045, Note_off_c, 10, 91, 56
11, 345045, Note_off_c, 10, 91, 56
11, 345060, Note_on_c, 10, 91, 113
11, 345105, Note_off_c, 10, 91, 56
11, 345120, Note_on_c, 10, 91, 113
11, 345165, Note_off_c, 10, 91, 56
11, 345180, Note_on_c, 10, 91, 113
11, 345225, Note_off_c, 10, 91, 56
11, 345240, Note_on_c, 10, 91, 113
11, 345285, Note_off_c, 10, 91, 56
11, 345300, Note_on_c, 10, 91, 113
11, 345345, Note_off_c, 10, 91, 56
11, 345360, Note_on_c, 10, 91, 113
11, 345405, Note_off_c, 10, 91, 56
11, 345420, Note_on_c, 10, 91, 113
11, 345465, Note_off_c, 10, 91, 56
11, 345480, Note_on_c, 10, 91, 113
11, 345525, Note_off_c, 10, 91, 56
11, 345540, Note_on_c, 10, 91, 113
11, 345585, Note_off_c, 10, 91, 56
11, 345600, Note_on_c, 10, 91, 113
11, 345645, Note_off_c, 10, 91, 56
11, 345660, Note_on_c, 10, 91, 113
11, 345705, Note_off_c, 10, 91, 56
11, 345720, Note_on_c, 10, 91, 113
11, 345765, Note_off_c, 10, 91, 56
11, 345780, Note_on_c, 10, 91, 113
11, 345825, Note_off_c, 10, 91, 56
11, 345840, Note_on_c, 10, 91, 113
11, 345885, Note_off_c, 10, 91, 56
11, 345900, Note_on_c, 10, 91, 113
11, 345945, Note_off_c, 10, 91, 56
11, 345960, Note_on_c, 10, 91, 113
11, 346005, Note_off_c, 10, 91, 56
11, 346020, Note_on_c, 10, 91, 113
11, 346065, Note_off_c, 10, 91, 56
11, 346080, Note_on_c, 10, 89, 113
11, 346125, Note_off_c, 10, 89, 56
11, 346140, Note_on_c, 10, 89, 113
11, 346185, Note_off_c, 10, 89, 56
11, 346200, Note_on_c, 10, 89, 113
11, 346245, Note_off_c, 10, 89, 56
11, 346260, Note_on_c, 10, 89, 113
11, 346305, Note_off_c, 10, 89, 56
11, 346320, Note_on_c, 10, 89, 113
11, 346365, Note_off_c, 10, 89, 56
11, 346380, Note_on_c, 10, 89, 113
11, 346425, Note_off_c, 10, 89, 56
11, 346440, Note_on_c, 10, 89, 113
11, 346485, Note_off_c, 10, 89, 56
11, 346500, Note_on_c, 10, 89, 113
11, 346545, Note_off_c, 10, 89, 56
11, 346560, Note_on_c, 10, 89, 113
11, 346605, Note_off_c, 10, 89, 56
11, 346620, Note_on_c, 10, 89, 113
11, 346665, Note_off_c, 10, 89, 56
11, 346680, Note_on_c, 10, 89, 113
11, 346725, Note_off_c, 10, 89, 56
11, 346740, Note_on_c, 10, 89, 113
11, 346785, Note_off_c, 10, 89, 56
11, 346800, Note_on_c, 10, 89, 113
11, 346845, Note_off_c, 10, 89, 56
11, 346860, Note_on_c, 10, 89, 113
11, 346905, Note_off_c, 10, 89, 56
11, 346920, Note_on_c, 10, 89, 113
11, 346965, Note_off_c, 10, 89, 56
11, 346980, Note_on_c, 10, 89, 113
11, 347025, Note_off_c, 10, 89, 56
11, 347040, Note_on_c, 10, 89, 113
11, 347085, Note_off_c, 10, 89, 56
11, 347100, Note_on_c, 10, 89, 113
11, 347145, Note_off_c, 10, 89, 56
11, 347160, Note_on_c, 10, 89, 113
11, 347205, Note_off_c, 10, 89, 56
11, 347220, Note_on_c, 10, 89, 113
11, 347265, Note_off_c, 10, 89, 56
11, 347280, Note_on_c, 10, 89, 113
11, 347325, Note_off_c, 10, 89, 56
11, 347340, Note_on_c, 10, 89, 113
11, 347385, Note_off_c, 10, 89, 56
11, 347400, Note_on_c, 10, 89, 113
11, 347445, Note_off_c, 10, 89, 56
11, 347460, Note_on_c, 10, 89, 113
11, 347505, Note_off_c, 10, 89, 56
11, 347520, Note_on_c, 10, 89, 113
11, 347565, Note_off_c, 10, 89, 56
11, 347580, Note_on_c, 10, 89, 113
11, 347625, Note_off_c, 10, 89, 56
11, 347640, Note_on_c, 10, 89, 113
11, 347685, Note_off_c, 10, 89, 56
11, 347700, Note_on_c, 10, 89, 113
11, 347745, Note_off_c, 10, 89, 56
11, 347760, Note_on_c, 10, 89, 113
11, 347805, Note_off_c, 10, 89, 56
11, 347820, Note_on_c, 10, 89, 113
11, 347865, Note_off_c, 10, 89, 56
11, 347880, Note_on_c, 10, 89, 113
11, 347925, Note_off_c, 10, 89, 56
11, 347940, Note_on_c, 10, 89, 113
11, 347985, Note_off_c, 10, 89, 56
11, 348000, Note_on_c, 10, 87, 113
11, 348045, Note_off_c, 10, 87, 56
11, 348060, Note_on_c, 10, 87, 113
11, 348105, Note_off_c, 10, 87, 56
11, 348120, Note_on_c, 10, 87, 113
11, 348165, Note_off_c, 10, 87, 56
11, 348180, Note_on_c, 10, 87, 113
11, 348225, Note_off_c, 10, 87, 56
11, 348240, Note_on_c, 10, 87, 113
11, 348285, Note_off_c, 10, 87, 56
11, 348300, Note_on_c, 10, 87, 113
11, 348345, Note_off_c, 10, 87, 56
11, 348360, Note_on_c, 10, 87, 113
11, 348405, Note_off_c, 10, 87, 56
11, 348420, Note_on_c, 10, 87, 113
11, 348465, Note_off_c, 10, 87, 56
11, 348480, Note_on_c, 10, 87, 113
11, 348525, Note_off_c, 10, 87, 56
11, 348540, Note_on_c, 10, 87, 113
11, 348585, Note_off_c, 10, 87, 56
11, 348600, Note_on_c, 10, 87, 113
11, 348645, Note_off_c, 10, 87, 56
11, 348660, Note_on_c, 10, 87, 113
11, 348705, Note_off_c, 10, 87, 56
11, 348720, Note_on_c, 10, 87, 113
11, 348765, Note_off_c, 10, 87, 56
11, 348780, Note_on_c, 10, 87, 113
11, 348825, Note_off_c, 10, 87, 56
11, 348840, Note_on_c, 10, 87, 113
11, 348885, Note_off_c, 10, 87, 56
11, 348900, Note_on_c, 10, 87, 113
11, 348945, Note_off_c, 10, 87, 56
11, 348960, Note_on_c, 10, 87, 113
11, 349005, Note_off_c, 10, 87, 56
11, 349020, Note_on_c, 10, 87, 113
11, 349065, Note_off_c, 10, 87, 56
11, 349080, Note_on_c, 10, 87, 113
11, 349125, Note_off_c, 10, 87, 56
11, 349140, Note_on_c, 10, 87, 113
11, 349185, Note_off_c, 10, 87, 56
11, 349200, Note_on_c, 10, 87, 113
11, 349245, Note_off_c, 10, 87, 56
11, 349260, Note_on_c, 10, 87, 113
11, 349305, Note_off_c, 10, 87, 56
11, 349320, Note_on_c, 10, 87, 113
11, 349365, Note_off_c, 10, 87, 56
11, 349380, Note_on_c, 10, 87, 113
11, 349425, Note_off_c, 10, 87, 56
11, 349440, Note_on_c, 10, 87, 113
11, 349485, Note_off_c, 10, 87, 56
11, 349500, Note_on_c, 10, 87, 113
11, 349545, Note_off_c, 10, 87, 56
11, 349560, Note_on_c, 10, 87, 113
11, 349605, Note_off_c, 10, 87, 56
11, 349620, Note_on_c, 10, 87, 113
11, 349665, Note_off_c, 10, 87, 56
11, 349680, Note_on_c, 10, 87, 113
11, 349725, Note_off_c, 10, 87, 56
11, 349740, Note_on_c, 10, 87, 113
11, 349785, Note_off_c, 10, 87, 56
11, 349800, Note_on_c, 10, 87, 113
11, 349845, Note_off_c, 10, 87, 56
11, 349860, Note_on_c, 10, 87, 113
11, 349905, Note_off_c, 10, 87, 56
11, 349920, Note_on_c, 10, 88, 108
11, 349920, Control_c, 10, 7, 100
11, 349932, Control_c, 10, 0, 0
11, 349932, Control_c, 10, 32, 8
11, 349932, Program_c, 10, 50
11, 350568, Note_off_c, 10, 88, 64
11, 350640, Note_on_c, 10, 79, 108
11, 350712, Note_off_c, 10, 79, 56
11, 350719, Note_on_c, 10, 77, 108
11, 350791, Note_off_c, 10, 77, 56
11, 350800, Note_on_c, 10, 76, 108
11, 350872, Note_off_c, 10, 76, 56
11, 350877, Note_on_c, 10, 74, 108
11, 351093, Note_off_c, 10, 74, 64
11, 351120, Note_on_c, 10, 77, 108
11, 351192, Note_off_c, 10, 77, 56
11, 351199, Note_on_c, 10, 76, 108
11, 351271, Note_off_c, 10, 76, 56
11, 351280, Note_on_c, 10, 74, 108
11, 351352, Note_off_c, 10, 74, 56
11, 351360, Note_on_c, 10, 72, 108
11, 351576, Note_off_c, 10, 72, 64
11, 351600, Note_on_c, 10, 76, 108
11, 351672, Note_off_c, 10, 76, 56
11, 351679, Note_on_c, 10, 74, 108
11, 351751, Note_off_c, 10, 74, 56
11, 351760, Note_on_c, 10, 72, 108
11, 351832, Note_off_c, 10, 72, 56
11, 351838, Note_on_c, 10, 71, 108
11, 351974, Note_off_c, 10, 71, 64
11, 352079, Note_on_c, 10, 71, 108
11, 352151, Note_off_c, 10, 71, 56
11, 352161, Note_on_c, 10, 72, 108
11, 352233, Note_off_c, 10, 72, 56
11, 352241, Note_on_c, 10, 74, 108
11, 352313, Note_off_c, 10, 74, 56
11, 352321, Note_on_c, 10, 67, 108
11, 352457, Note_off_c, 10, 67, 64
11, 352561, Note_on_c, 10, 81, 108
11, 352633, Note_off_c, 10, 81, 56
11, 352639, Note_on_c, 10, 79, 108
11, 352711, Note_off_c, 10, 79, 56
11, 352719, Note_on_c, 10, 77, 108
11, 352791, Note_off_c, 10, 77, 56
11, 352799, Note_on_c, 10, 76, 108
11, 353015, Note_off_c, 10, 76, 64
11, 353041, Note_on_c, 10, 79, 108
11, 353113, Note_off_c, 10, 79, 56
11, 353121, Note_on_c, 10, 77, 108
11, 353193, Note_off_c, 10, 77, 56
11, 353201, Note_on_c, 10, 76, 108
11, 353273, Note_off_c, 10, 76, 56
11, 353283, Note_on_c, 10, 74, 108
11, 353499, Note_off_c, 10, 74, 64
11, 353519, Note_on_c, 10, 77, 108
11, 353591, Note_off_c, 10, 77, 56
11, 353601, Note_on_c, 10, 76, 108
11, 353673, Note_off_c, 10, 76, 56
11, 353680, Note_on_c, 10, 74, 108
11, 353752, Note_off_c, 10, 74, 56
11, 353762, Note_on_c, 10, 72, 108
11, 353898, Note_off_c, 10, 72, 64
11, 354001, Note_on_c, 10, 72, 108
11, 354073, Note_off_c, 10, 72, 56
11, 354079, Note_on_c, 10, 74, 108
11, 354151, Note_off_c, 10, 74, 56
11, 354161, Note_on_c, 10, 76, 108
11, 354233, Note_off_c, 10, 76, 56
11, 354240, Note_on_c, 10, 67, 108
11, 354376, Note_off_c, 10, 67, 64
11, 354483, Note_on_c, 10, 72, 108
11, 354688, Note_off_c, 10, 72, 64
11, 354717, Note_on_c, 10, 71, 108
11, 355149, Note_off_c, 10, 71, 64
11, 355202, Note_on_c, 10, 72, 108
11, 355634, Note_off_c, 10, 72, 64
11, 355683, Note_on_c, 10, 74, 108
11, 356331, Note_off_c, 10, 74, 64
11, 356397, Note_on_c, 10, 74, 108
11, 356602, Note_off_c, 10, 74, 64
11, 356637, Note_on_c, 10, 72, 108
11, 357069, Note_off_c, 10, 72, 64
11, 357123, Note_on_c, 10, 74, 108
11, 357555, Note_off_c, 10, 74, 64
11, 357600, Note_on_c, 10, 76, 108
11, 358248, Note_off_c, 10, 76, 64
11, 358320, Note_on_c, 10, 79, 113
11, 358380, Note_off_c, 10, 79, 56
11, 358399, Note_on_c, 10, 77, 113
11, 358459, Note_off_c, 10, 77, 56
11, 358481, Note_on_c, 10, 76, 113
11, 358541, Note_off_c, 10, 76, 56
11, 358561, Note_on_c, 10, 74, 113
11, 358621, Note_off_c, 10, 74, 56
11, 358639, Note_on_c, 10, 73, 113
11, 358699, Note_off_c, 10, 73, 56
11, 358721, Note_on_c, 10, 74, 113
11, 358781, Note_off_c, 10, 74, 56
11, 358799, Note_on_c, 10, 77, 113
11, 358859, Note_off_c, 10, 77, 56
11, 358880, Note_on_c, 10, 76, 113
11, 358940, Note_off_c, 10, 76, 56
11, 358961, Note_on_c, 10, 74, 113
11, 359021, Note_off_c, 10, 74, 56
11, 359041, Note_on_c, 10, 76, 113
11, 359101, Note_off_c, 10, 76, 56
11, 359119, Note_on_c, 10, 74, 113
11, 359179, Note_off_c, 10, 74, 56
11, 359199, Note_on_c, 10, 76, 113
11, 359259, Note_off_c, 10, 76, 56
11, 359280, Note_on_c, 10, 79, 113
11, 359340, Note_off_c, 10, 79, 56
11, 359360, Note_on_c, 10, 77, 113
11, 359420, Note_off_c, 10, 77, 56
11, 359440, Note_on_c, 10, 76, 113
11, 359500, Note_off_c, 10, 76, 56
11, 359521, Note_on_c, 10, 77, 113
11, 359581, Note_off_c, 10, 77, 56
11, 359601, Note_on_c, 10, 76, 113
11, 359661, Note_off_c, 10, 76, 56
11, 359681, Note_on_c, 10, 77, 113
11, 359741, Note_off_c, 10, 77, 56
11, 359759, Note_on_c, 10, 81, 113
11, 359819, Note_off_c, 10, 81, 56
11, 359841, Note_on_c, 10, 79, 113
11, 359901, Note_off_c, 10, 79, 56
11, 359921, Note_on_c, 10, 77, 113
11, 359981, Note_off_c, 10, 77, 56
11, 360001, Note_on_c, 10, 77, 113
11, 360061, Note_off_c, 10, 77, 56
11, 360079, Note_on_c, 10, 76, 113
11, 360139, Note_off_c, 10, 76, 56
11, 360159, Note_on_c, 10, 77, 113
11, 360219, Note_off_c, 10, 77, 56
11, 360239, Note_on_c, 10, 81, 113
11, 360299, Note_off_c, 10, 81, 56
11, 360319, Note_on_c, 10, 79, 113
11, 360379, Note_off_c, 10, 79, 56
11, 360400, Note_on_c, 10, 77, 113
11, 360460, Note_off_c, 10, 77, 56
11, 360481, Note_on_c, 10, 76, 113
11, 360541, Note_off_c, 10, 76, 56
11, 360559, Note_on_c, 10, 74, 113
11, 360619, Note_off_c, 10, 74, 56
11, 360640, Note_on_c, 10, 76, 113
11, 360700, Note_off_c, 10, 76, 56
11, 360720, Note_on_c, 10, 79, 113
11, 360780, Note_off_c, 10, 79, 56
11, 360799, Note_on_c, 10, 77, 113
11, 360859, Note_off_c, 10, 77, 56
11, 360880, Note_on_c, 10, 76, 113
11, 360940, Note_off_c, 10, 76, 56
11, 360961, Note_on_c, 10, 77, 113
11, 361021, Note_off_c, 10, 77, 56
11, 361039, Note_on_c, 10, 76, 113
11, 361099, Note_off_c, 10, 76, 56
11, 361119, Note_on_c, 10, 77, 113
11, 361179, Note_off_c, 10, 77, 56
11, 361200, Note_on_c, 10, 81, 113
11, 361260, Note_off_c, 10, 81, 56
11, 361281, Note_on_c, 10, 79, 113
11, 361341, Note_off_c, 10, 79, 56
11, 361360, Note_on_c, 10, 77, 113
11, 361420, Note_off_c, 10, 77, 56
11, 361440, Note_on_c, 10, 79, 113
11, 361500, Note_off_c, 10, 79, 56
11, 361519, Note_on_c, 10, 78, 113
11, 361579, Note_off_c, 10, 78, 56
11, 361599, Note_on_c, 10, 79, 113
11, 361659, Note_off_c, 10, 79, 56
11, 361680, Note_on_c, 10, 82, 113
11, 361740, Note_off_c, 10, 82, 56
11, 361759, Note_on_c, 10, 81, 113
11, 361819, Note_off_c, 10, 81, 56
11, 361840, Note_on_c, 10, 79, 113
11, 361900, Note_off_c, 10, 79, 56
11, 361920, Note_on_c, 10, 79, 113
11, 361980, Note_off_c, 10, 79, 56
11, 361999, Note_on_c, 10, 78, 113
11, 362059, Note_off_c, 10, 78, 56
11, 362081, Note_on_c, 10, 79, 113
11, 362141, Note_off_c, 10, 79, 56
11, 362159, Note_on_c, 10, 82, 113
11, 362219, Note_off_c, 10, 82, 56
11, 362241, Note_on_c, 10, 81, 113
11, 362301, Note_off_c, 10, 81, 56
11, 362321, Note_on_c, 10, 79, 113
11, 362381, Note_off_c, 10, 79, 56
11, 362401, Note_on_c, 10, 79, 113
11, 362461, Note_off_c, 10, 79, 56
11, 362479, Note_on_c, 10, 78, 113
11, 362539, Note_off_c, 10, 78, 56
11, 362561, Note_on_c, 10, 79, 113
11, 362621, Note_off_c, 10, 79, 56
11, 362641, Note_on_c, 10, 82, 113
11, 362701, Note_off_c, 10, 82, 56
11, 362721, Note_on_c, 10, 81, 113
11, 362781, Note_off_c, 10, 81, 56
11, 362801, Note_on_c, 10, 79, 113
11, 362861, Note_off_c, 10, 79, 56
11, 362881, Note_on_c, 10, 79, 113
11, 362941, Note_off_c, 10, 79, 56
11, 362961, Note_on_c, 10, 78, 113
11, 363021, Note_off_c, 10, 78, 56
11, 363039, Note_on_c, 10, 79, 113
11, 363099, Note_off_c, 10, 79, 56
11, 363120, Note_on_c, 10, 82, 113
11, 363180, Note_off_c, 10, 82, 56
11, 363200, Note_on_c, 10, 81, 113
11, 363260, Note_off_c, 10, 81, 56
11, 363280, Note_on_c, 10, 79, 113
11, 363340, Note_off_c, 10, 79, 56
11, 363360, Note_on_c, 10, 81, 113
11, 363360, Control_c, 10, 7, 120
11, 363360, Program_c, 10, 44
11, 363405, Note_off_c, 10, 81, 56
11, 363420, Note_on_c, 10, 69, 113
11, 363465, Note_off_c, 10, 69, 56
11, 363480, Note_on_c, 10, 81, 113
11, 363525, Note_off_c, 10, 81, 56
11, 363540, Note_on_c, 10, 81, 113
11, 363585, Note_off_c, 10, 81, 56
11, 363600, Note_on_c, 10, 81, 113
11, 363645, Note_off_c, 10, 81, 56
11, 363660, Note_on_c, 10, 81, 113
11, 363705, Note_off_c, 10, 81, 56
11, 363720, Note_on_c, 10, 81, 113
11, 363765, Note_off_c, 10, 81, 56
11, 363780, Note_on_c, 10, 81, 113
11, 363825, Note_off_c, 10, 81, 56
11, 363840, Note_on_c, 10, 81, 113
11, 363885, Note_off_c, 10, 81, 56
11, 363900, Note_on_c, 10, 81, 113
11, 363945, Note_off_c, 10, 81, 56
11, 363960, Note_on_c, 10, 81, 113
11, 364005, Note_off_c, 10, 81, 56
11, 364020, Note_on_c, 10, 81, 113
11, 364065, Note_off_c, 10, 81, 56
11, 364080, Note_on_c, 10, 81, 113
11, 364125, Note_off_c, 10, 81, 56
11, 364140, Note_on_c, 10, 81, 113
11, 364185, Note_off_c, 10, 81, 56
11, 364200, Note_on_c, 10, 81, 113
11, 364245, Note_off_c, 10, 81, 56
11, 364260, Note_on_c, 10, 81, 113
11, 364305, Note_off_c, 10, 81, 56
11, 364320, Note_on_c, 10, 84, 113
11, 364365, Note_off_c, 10, 84, 56
11, 364380, Note_on_c, 10, 72, 113
11, 364425, Note_off_c, 10, 72, 56
11, 364440, Note_on_c, 10, 84, 113
11, 364485, Note_off_c, 10, 84, 56
11, 364500, Note_on_c, 10, 84, 113
11, 364545, Note_off_c, 10, 84, 56
11, 364560, Note_on_c, 10, 84, 113
11, 364605, Note_off_c, 10, 84, 56
11, 364620, Note_on_c, 10, 84, 113
11, 364665, Note_off_c, 10, 84, 56
11, 364680, Note_on_c, 10, 84, 113
11, 364725, Note_off_c, 10, 84, 56
11, 364740, Note_on_c, 10, 84, 113
11, 364785, Note_off_c, 10, 84, 56
11, 364800, Note_on_c, 10, 84, 113
11, 364845, Note_off_c, 10, 84, 56
11, 364860, Note_on_c, 10, 84, 113
11, 364905, Note_off_c, 10, 84, 56
11, 364920, Note_on_c, 10, 84, 113
11, 364965, Note_off_c, 10, 84, 56
11, 364980, Note_on_c, 10, 84, 113
11, 365025, Note_off_c, 10, 84, 56
11, 365040, Note_on_c, 10, 84, 113
11, 365085, Note_off_c, 10, 84, 56
11, 365100, Note_on_c, 10, 84, 113
11, 365145, Note_off_c, 10, 84, 56
11, 365160, Note_on_c, 10, 84, 113
11, 365205, Note_off_c, 10, 84, 56
11, 365220, Note_on_c, 10, 84, 113
11, 365265, Note_off_c, 10, 84, 56
11, 365280, Note_on_c, 10, 89, 113
11, 365325, Note_off_c, 10, 89, 56
11, 365340, Note_on_c, 10, 72, 113
11, 365385, Note_off_c, 10, 72, 56
11, 365400, Note_on_c, 10, 89, 113
11, 365445, Note_off_c, 10, 89, 56
11, 365460, Note_on_c, 10, 89, 113
11, 365505, Note_off_c, 10, 89, 56
11, 365520, Note_on_c, 10, 89, 113
11, 365565, Note_off_c, 10, 89, 56
11, 365580, Note_on_c, 10, 89, 113
11, 365625, Note_off_c, 10, 89, 56
11, 365640, Note_on_c, 10, 89, 113
11, 365685, Note_off_c, 10, 89, 56
11, 365700, Note_on_c, 10, 89, 113
11, 365745, Note_off_c, 10, 89, 56
11, 365760, Note_on_c, 10, 89, 113
11, 365805, Note_off_c, 10, 89, 56
11, 365820, Note_on_c, 10, 89, 113
11, 365865, Note_off_c, 10, 89, 56
11, 365880, Note_on_c, 10, 89, 113
11, 365925, Note_off_c, 10, 89, 56
11, 365940, Note_on_c, 10, 89, 113
11, 365985, Note_off_c, 10, 89, 56
11, 366000, Note_on_c, 10, 89, 113
11, 366045, Note_off_c, 10, 89, 56
11, 366060, Note_on_c, 10, 89, 113
11, 366105, Note_off_c, 10, 89, 56
11, 366120, Note_on_c, 10, 89, 113
11, 366165, Note_off_c, 10, 89, 56
11, 366180, Note_on_c, 10, 89, 113
11, 366225, Note_off_c, 10, 89, 56
11, 366240, Note_on_c, 10, 93, 113
11, 366285, Note_off_c, 10, 93, 56
11, 366300, Note_on_c, 10, 72, 113
11, 366345, Note_off_c, 10, 72, 56
11, 366360, Note_on_c, 10, 93, 113
11, 366405, Note_off_c, 10, 93, 56
11, 366420, Note_on_c, 10, 93, 113
11, 366465, Note_off_c, 10, 93, 56
11, 366480, Note_on_c, 10, 93, 113
11, 366525, Note_off_c, 10, 93, 56
11, 366540, Note_on_c, 10, 93, 113
11, 366585, Note_off_c, 10, 93, 56
11, 366600, Note_on_c, 10, 93, 113
11, 366645, Note_off_c, 10, 93, 56
11, 366660, Note_on_c, 10, 93, 113
11, 366705, Note_off_c, 10, 93, 56
11, 366720, Note_on_c, 10, 93, 113
11, 366765, Note_off_c, 10, 93, 56
11, 366780, Note_on_c, 10, 93, 113
11, 366825, Note_off_c, 10, 93, 56
11, 366840, Note_on_c, 10, 93, 113
11, 366885, Note_off_c, 10, 93, 56
11, 366900, Note_on_c, 10, 93, 113
11, 366945, Note_off_c, 10, 93, 56
11, 366960, Note_on_c, 10, 93, 113
11, 367005, Note_off_c, 10, 93, 56
11, 367020, Note_on_c, 10, 93, 113
11, 367065, Note_off_c, 10, 93, 56
11, 367080, Note_on_c, 10, 93, 113
11, 367125, Note_off_c, 10, 93, 56
11, 367140, Note_on_c, 10, 93, 113
11, 367185, Note_off_c, 10, 93, 56
11, 367200, Control_c, 10, 7, 100
11, 367202, Note_on_c, 10, 91, 108
11, 367212, Control_c, 10, 0, 0
11, 367212, Control_c, 10, 32, 8
11, 367212, Program_c, 10, 50
11, 367338, Note_off_c, 10, 91, 64
11, 368159, Note_on_c, 10, 55, 108
11, 368162, Note_on_c, 10, 62, 108
11, 368364, Note_off_c, 10, 55, 64
11, 368367, Note_off_c, 10, 62, 64
11, 369120, Note_on_c, 10, 55, 108
11, 369122, Note_on_c, 10, 64, 108
11, 369325, Note_off_c, 10, 55, 64
11, 369327, Note_off_c, 10, 64, 64
11, 370083, Note_on_c, 10, 55, 108
11, 370083, Note_on_c, 10, 62, 108
11, 370288, Note_off_c, 10, 62, 64
11, 370288, Note_off_c, 10, 55, 64
11, 371040, Note_on_c, 10, 64, 108
11, 371043, Note_on_c, 10, 55, 108
11, 371245, Note_off_c, 10, 64, 64
11, 371248, Note_off_c, 10, 55, 64
11, 371998, Note_on_c, 10, 55, 108
11, 372003, Note_on_c, 10, 62, 108
11, 372203, Note_off_c, 10, 55, 64
11, 372208, Note_off_c, 10, 62, 64
11, 377040, Note_on_c, 10, 71, 78
11, 377067, Note_off_c, 10, 71, 56
11, 377070, Note_on_c, 10, 72, 79
11, 377097, Note_off_c, 10, 72, 56
11, 377097, Note_on_c, 10, 74, 74
11, 377259, Note_off_c, 10, 74, 64
11, 377520, Note_on_c, 10, 71, 80
11, 377547, Note_off_c, 10, 71, 56
11, 377550, Note_on_c, 10, 72, 80
11, 377577, Note_off_c, 10, 72, 56
11, 377577, Note_on_c, 10, 74, 75
11, 377739, Note_off_c, 10, 74, 64
11, 378000, Note_on_c, 10, 72, 83
11, 378027, Note_off_c, 10, 72, 56
11, 378030, Note_on_c, 10, 74, 83
11, 378057, Note_off_c, 10, 74, 56
11, 378063, Note_on_c, 10, 76, 78
11, 378225, Note_off_c, 10, 76, 64
11, 378480, Note_on_c, 10, 72, 84
11, 378507, Note_off_c, 10, 72, 56
11, 378510, Note_on_c, 10, 74, 84
11, 378537, Note_off_c, 10, 74, 56
11, 378539, Note_on_c, 10, 76, 79
11, 378701, Note_off_c, 10, 76, 64
11, 378960, Note_on_c, 10, 71, 86
11, 378987, Note_off_c, 10, 71, 56
11, 378990, Note_on_c, 10, 72, 86
11, 379017, Note_off_c, 10, 72, 56
11, 379019, Note_on_c, 10, 74, 81
11, 379181, Note_off_c, 10, 74, 64
11, 379440, Note_on_c, 10, 71, 87
11, 379467, Note_off_c, 10, 71, 56
11, 379470, Note_on_c, 10, 72, 87
11, 379497, Note_off_c, 10, 72, 56
11, 379502, Note_on_c, 10, 74, 82
11, 379664, Note_off_c, 10, 74, 64
11, 379920, Note_on_c, 10, 72, 90
11, 379947, Note_off_c, 10, 72, 56
11, 379950, Note_on_c, 10, 74, 90
11, 379977, Note_off_c, 10, 74, 56
11, 379977, Note_on_c, 10, 76, 85
11, 380139, Note_off_c, 10, 76, 64
11, 380400, Note_on_c, 10, 72, 91
11, 380427, Note_off_c, 10, 72, 56
11, 380430, Note_on_c, 10, 74, 91
11, 380457, Note_off_c, 10, 74, 56
11, 380461, Note_on_c, 10, 76, 86
11, 380623, Note_off_c, 10, 76, 64
11, 380880, Note_on_c, 10, 79, 93
11, 380907, Note_off_c, 10, 79, 56
11, 380910, Note_on_c, 10, 81, 93
11, 380937, Note_off_c, 10, 81, 56
11, 380937, Note_on_c, 10, 83, 88
11, 381099, Note_off_c, 10, 83, 64
11, 381360, Note_on_c, 10, 79, 94
11, 381387, Note_off_c, 10, 79, 56
11, 381390, Note_on_c, 10, 81, 94
11, 381417, Note_off_c, 10, 81, 56
11, 381419, Note_on_c, 10, 83, 89
11, 381581, Note_off_c, 10, 83, 64
11, 381598, Note_on_c, 10, 84, 90
11, 381814, Note_off_c, 10, 84, 64
11, 381839, Note_on_c, 10, 83, 90
11, 382055, Note_off_c, 10, 83, 64
11, 382083, Note_on_c, 10, 81, 90
11, 382299, Note_off_c, 10, 81, 64
11, 382317, Note_on_c, 10, 79, 90
11, 382533, Note_off_c, 10, 79, 64
11, 382560, Note_on_c, 10, 77, 90
11, 382776, Note_off_c, 10, 77, 64
11, 382803, Note_on_c, 10, 76, 90
11, 383019, Note_off_c, 10, 76, 64
11, 383039, Note_on_c, 10, 74, 90
11, 383255, Note_off_c, 10, 74, 64
11, 383277, Note_on_c, 10, 73, 90
11, 383482, Note_off_c, 10, 73, 64
11, 383520, Note_on_c, 10, 74, 90
11, 384168, Note_off_c, 10, 74, 64
11, 384239, Note_on_c, 10, 76, 90
11, 384375, Note_off_c, 10, 76, 64
11, 384482, Note_on_c, 10, 77, 90
11, 385130, Note_off_c, 10, 77, 64
11, 385201, Note_on_c, 10, 75, 90
11, 385337, Note_off_c, 10, 75, 64
11, 385440, Note_on_c, 10, 74, 90
11, 386088, Note_off_c, 10, 74, 64
11, 386161, Note_on_c, 10, 76, 90
11, 386297, Note_off_c, 10, 76, 64
11, 386398, Note_on_c, 10, 77, 90
11, 387046, Note_off_c, 10, 77, 64
11, 387120, Note_on_c, 10, 78, 90
11, 387256, Note_off_c, 10, 78, 64
11, 387357, Note_on_c, 10, 79, 90
11, 387562, Note_off_c, 10, 79, 64
11, 387842, Note_on_c, 10, 76, 73
11, 388047, Note_off_c, 10, 76, 64
11, 388319, Note_on_c, 10, 77, 73
11, 388524, Note_off_c, 10, 77, 64
11, 388802, Note_on_c, 10, 74, 73
11, 389007, Note_off_c, 10, 74, 64
11, 389040, Note_on_c, 10, 55, 90
11, 389256, Note_off_c, 10, 55, 64
11, 389278, Note_on_c, 10, 60, 90
11, 389494, Note_off_c, 10, 60, 64
11, 389518, Note_on_c, 10, 55, 90
11, 389734, Note_off_c, 10, 55, 64
11, 389759, Note_on_c, 10, 64, 90
11, 389975, Note_off_c, 10, 64, 64
11, 390001, Note_on_c, 10, 62, 90
11, 390163, Note_off_c, 10, 62, 64
11, 390180, Note_on_c, 10, 60, 95
11, 390231, Note_off_c, 10, 60, 56
11, 390237, Note_on_c, 10, 67, 90
11, 390885, Note_off_c, 10, 67, 64
11, 392879, Note_on_c, 10, 79, 73
11, 393095, Note_off_c, 10, 79, 64
11, 393123, Note_on_c, 10, 83, 74
11, 393339, Note_off_c, 10, 83, 64
11, 393360, Note_on_c, 10, 79, 75
11, 393576, Note_off_c, 10, 79, 64
11, 393602, Note_on_c, 10, 86, 77
11, 393818, Note_off_c, 10, 86, 64
11, 393841, Note_on_c, 10, 84, 77
11, 394003, Note_off_c, 10, 84, 64
11, 394020, Note_on_c, 10, 83, 83
11, 394071, Note_off_c, 10, 83, 56
11, 394077, Note_on_c, 10, 84, 78
11, 394293, Note_off_c, 10, 84, 64
11, 394318, Note_on_c, 10, 79, 79
11, 394534, Note_off_c, 10, 79, 64
11, 394562, Note_on_c, 10, 88, 79
11, 394778, Note_off_c, 10, 88, 64
11, 394797, Note_on_c, 10, 86, 80
11, 394959, Note_off_c, 10, 86, 64
11, 394979, Note_on_c, 10, 84, 86
11, 395030, Note_off_c, 10, 84, 56
11, 395039, Note_on_c, 10, 83, 81
11, 395255, Note_off_c, 10, 83, 64
11, 395282, Note_on_c, 10, 79, 81
11, 395498, Note_off_c, 10, 79, 64
11, 395519, Note_on_c, 10, 86, 82
11, 395735, Note_off_c, 10, 86, 64
11, 395760, Note_on_c, 10, 84, 83
11, 395922, Note_off_c, 10, 84, 64
11, 395939, Note_on_c, 10, 83, 88
11, 395990, Note_off_c, 10, 83, 56
11, 395997, Note_on_c, 10, 84, 85
11, 396213, Note_off_c, 10, 84, 64
11, 396243, Note_on_c, 10, 79, 85
11, 396459, Note_off_c, 10, 79, 64
11, 396480, Note_on_c, 10, 88, 86
11, 396696, Note_off_c, 10, 88, 64
11, 396720, Note_on_c, 10, 86, 87
11, 396882, Note_off_c, 10, 86, 64
11, 396901, Note_on_c, 10, 84, 92
11, 396952, Note_off_c, 10, 84, 56
11, 396960, Note_on_c, 10, 83, 87
11, 397176, Note_off_c, 10, 83, 64
11, 397201, Note_on_c, 10, 79, 88
11, 397417, Note_off_c, 10, 79, 64
11, 397443, Note_on_c, 10, 86, 89
11, 397659, Note_off_c, 10, 86, 64
11, 397679, Note_on_c, 10, 84, 89
11, 397841, Note_off_c, 10, 84, 64
11, 397859, Note_on_c, 10, 83, 95
11, 397910, Note_off_c, 10, 83, 56
11, 397920, Note_on_c, 10, 84, 95
11, 397928, Program_c, 10, 44
11, 397928, Control_c, 10, 7, 120
11, 397965, Note_off_c, 10, 84, 56
11, 397980, Note_on_c, 10, 84, 95
11, 398025, Note_off_c, 10, 84, 56
11, 398040, Note_on_c, 10, 84, 95
11, 398085, Note_off_c, 10, 84, 56
11, 398100, Note_on_c, 10, 84, 95
11, 398145, Note_off_c, 10, 84, 56
11, 398160, Note_on_c, 10, 83, 95
11, 398205, Note_off_c, 10, 83, 56
11, 398220, Note_on_c, 10, 83, 95
11, 398265, Note_off_c, 10, 83, 56
11, 398280, Note_on_c, 10, 83, 95
11, 398325, Note_off_c, 10, 83, 56
11, 398340, Note_on_c, 10, 83, 95
11, 398385, Note_off_c, 10, 83, 56
11, 398400, Note_on_c, 10, 81, 95
11, 398445, Note_off_c, 10, 81, 56
11, 398460, Note_on_c, 10, 81, 95
11, 398505, Note_off_c, 10, 81, 56
11, 398520, Note_on_c, 10, 81, 95
11, 398565, Note_off_c, 10, 81, 56
11, 398580, Note_on_c, 10, 81, 95
11, 398625, Note_off_c, 10, 81, 56
11, 398640, Note_on_c, 10, 79, 95
11, 398685, Note_off_c, 10, 79, 56
11, 398700, Note_on_c, 10, 79, 95
11, 398745, Note_off_c, 10, 79, 56
11, 398760, Note_on_c, 10, 79, 95
11, 398805, Note_off_c, 10, 79, 56
11, 398820, Note_on_c, 10, 79, 95
11, 398865, Note_off_c, 10, 79, 56
11, 398880, Note_on_c, 10, 77, 95
11, 398925, Note_off_c, 10, 77, 56
11, 398940, Note_on_c, 10, 77, 95
11, 398985, Note_off_c, 10, 77, 56
11, 399000, Note_on_c, 10, 77, 95
11, 399045, Note_off_c, 10, 77, 56
11, 399060, Note_on_c, 10, 77, 95
11, 399105, Note_off_c, 10, 77, 56
11, 399120, Note_on_c, 10, 76, 95
11, 399165, Note_off_c, 10, 76, 56
11, 399180, Note_on_c, 10, 76, 95
11, 399225, Note_off_c, 10, 76, 56
11, 399240, Note_on_c, 10, 76, 95
11, 399285, Note_off_c, 10, 76, 56
11, 399300, Note_on_c, 10, 76, 95
11, 399345, Note_off_c, 10, 76, 56
11, 399360, Note_on_c, 10, 74, 95
11, 399405, Note_off_c, 10, 74, 56
11, 399420, Note_on_c, 10, 74, 95
11, 399465, Note_off_c, 10, 74, 56
11, 399480, Note_on_c, 10, 74, 95
11, 399525, Note_off_c, 10, 74, 56
11, 399540, Note_on_c, 10, 74, 95
11, 399585, Note_off_c, 10, 74, 56
11, 399600, Note_on_c, 10, 73, 95
11, 399645, Note_off_c, 10, 73, 56
11, 399660, Note_on_c, 10, 73, 95
11, 399705, Note_off_c, 10, 73, 56
11, 399720, Note_on_c, 10, 73, 95
11, 399765, Note_off_c, 10, 73, 56
11, 399780, Note_on_c, 10, 73, 95
11, 399825, Note_off_c, 10, 73, 56
11, 399840, Control_c, 10, 0, 0
11, 399840, Control_c, 10, 7, 100
11, 399840, Control_c, 10, 32, 8
11, 399840, Program_c, 10, 50
11, 399842, Note_on_c, 10, 74, 90
11, 400490, Note_off_c, 10, 74, 64
11, 400560, Note_on_c, 10, 76, 90
11, 400696, Note_off_c, 10, 76, 64
11, 400798, Note_on_c, 10, 77, 90
11, 401446, Note_off_c, 10, 77, 64
11, 401519, Note_on_c, 10, 75, 90
11, 401655, Note_off_c, 10, 75, 64
11, 401763, Note_on_c, 10, 74, 90
11, 402411, Note_off_c, 10, 74, 64
11, 402481, Note_on_c, 10, 75, 90
11, 402617, Note_off_c, 10, 75, 64
11, 402721, Note_on_c, 10, 77, 90
11, 403369, Note_off_c, 10, 77, 64
11, 403439, Note_on_c, 10, 78, 90
11, 403575, Note_off_c, 10, 78, 64
11, 403678, Note_on_c, 10, 79, 73
11, 403883, Note_off_c, 10, 79, 64
11, 404161, Note_on_c, 10, 79, 74
11, 404366, Note_off_c, 10, 79, 64
11, 404643, Note_on_c, 10, 79, 74
11, 404848, Note_off_c, 10, 79, 64
11, 405122, Note_on_c, 10, 77, 75
11, 405327, Note_off_c, 10, 77, 64
11, 405603, Note_on_c, 10, 77, 77
11, 405808, Note_off_c, 10, 77, 64
11, 406080, Note_on_c, 10, 76, 77
11, 406285, Note_off_c, 10, 76, 64
11, 406560, Note_on_c, 10, 74, 78
11, 406765, Note_off_c, 10, 74, 64
11, 407039, Note_on_c, 10, 79, 78
11, 407244, Note_off_c, 10, 79, 64
11, 407523, Note_on_c, 10, 79, 79
11, 407728, Note_off_c, 10, 79, 64
11, 408000, Note_on_c, 10, 79, 80
11, 408205, Note_off_c, 10, 79, 64
11, 408480, Note_on_c, 10, 79, 80
11, 408685, Note_off_c, 10, 79, 64
11, 408958, Note_on_c, 10, 77, 81
11, 409163, Note_off_c, 10, 77, 64
11, 409440, Note_on_c, 10, 77, 82
11, 409645, Note_off_c, 10, 77, 64
11, 409917, Note_on_c, 10, 76, 82
11, 410122, Note_off_c, 10, 76, 64
11, 410403, Note_on_c, 10, 74, 83
11, 410608, Note_off_c, 10, 74, 64
11, 410880, Note_on_c, 10, 79, 83
11, 411085, Note_off_c, 10, 79, 64
11, 411357, Note_on_c, 10, 79, 85
11, 411562, Note_off_c, 10, 79, 64
11, 411839, Note_on_c, 10, 79, 86
11, 412044, Note_off_c, 10, 79, 64
11, 412319, Note_on_c, 10, 79, 86
11, 412524, Note_off_c, 10, 79, 64
11, 412802, Note_on_c, 10, 77, 87
11, 413007, Note_off_c, 10, 77, 64
11, 413283, Note_on_c, 10, 77, 88
11, 413488, Note_off_c, 10, 77, 64
11, 413759, Note_on_c, 10, 76, 88
11, 413964, Note_off_c, 10, 76, 64
11, 414238, Note_on_c, 10, 74, 89
11, 414443, Note_off_c, 10, 74, 64
11, 414717, Note_on_c, 10, 79, 89
11, 414922, Note_off_c, 10, 79, 64
11, 415198, Note_on_c, 10, 60, 73
11, 415558, Note_off_c, 10, 60, 64
11, 415558, Note_on_c, 10, 59, 73
11, 415654, Note_off_c, 10, 59, 56
11, 415681, Note_on_c, 10, 57, 73
11, 415777, Note_off_c, 10, 57, 56
11, 415801, Note_on_c, 10, 55, 73
11, 415897, Note_off_c, 10, 55, 56
11, 415919, Note_on_c, 10, 55, 73
11, 416015, Note_off_c, 10, 55, 56
11, 416038, Note_on_c, 10, 55, 73
11, 416134, Note_off_c, 10, 55, 56
11, 416158, Note_on_c, 10, 60, 73
11, 416446, Note_off_c, 10, 60, 64
11, 416518, Note_on_c, 10, 59, 73
11, 416614, Note_off_c, 10, 59, 56
11, 416640, Note_on_c, 10, 57, 73
11, 416736, Note_off_c, 10, 57, 56
11, 416759, Note_on_c, 10, 55, 73
11, 416855, Note_off_c, 10, 55, 56
11, 416882, Note_on_c, 10, 55, 73
11, 416978, Note_off_c, 10, 55, 56
11, 417001, Note_on_c, 10, 55, 73
11, 417097, Note_off_c, 10, 55, 56
11, 417117, Note_on_c, 10, 64, 73
11, 417405, Note_off_c, 10, 64, 64
11, 417481, Note_on_c, 10, 62, 73
11, 417577, Note_off_c, 10, 62, 56
11, 417602, Note_on_c, 10, 60, 73
11, 417698, Note_off_c, 10, 60, 56
11, 417719, Note_on_c, 10, 59, 73
11, 417815, Note_off_c, 10, 59, 56
11, 417840, Note_on_c, 10, 59, 73
11, 417936, Note_off_c, 10, 59, 56
11, 417959, Note_on_c, 10, 59, 73
11, 418055, Note_off_c, 10, 59, 56
11, 418083, Note_on_c, 10, 64, 73
11, 418371, Note_off_c, 10, 64, 64
11, 418441, Note_on_c, 10, 62, 73
11, 418537, Note_off_c, 10, 62, 56
11, 418562, Note_on_c, 10, 60, 73
11, 418658, Note_off_c, 10, 60, 56
11, 418682, Note_on_c, 10, 59, 73
11, 418778, Note_off_c, 10, 59, 56
11, 418800, Note_on_c, 10, 59, 73
11, 418896, Note_off_c, 10, 59, 56
11, 418920, Note_on_c, 10, 59, 73
11, 419016, Note_off_c, 10, 59, 56
11, 419039, Note_on_c, 10, 72, 73
11, 419327, Note_off_c, 10, 72, 64
11, 419400, Note_on_c, 10, 71, 73
11, 419496, Note_off_c, 10, 71, 56
11, 419520, Note_on_c, 10, 69, 73
11, 419616, Note_off_c, 10, 69, 56
11, 419639, Note_on_c, 10, 67, 73
11, 419735, Note_off_c, 10, 67, 56
11, 419761, Note_on_c, 10, 67, 73
11, 419857, Note_off_c, 10, 67, 56
11, 419882, Note_on_c, 10, 67, 73
11, 419978, Note_off_c, 10, 67, 56
11, 419997, Note_on_c, 10, 72, 73
11, 420285, Note_off_c, 10, 72, 65
11, 420358, Note_on_c, 10, 71, 73
11, 420454, Note_off_c, 10, 71, 56
11, 420481, Note_on_c, 10, 69, 73
11, 420577, Note_off_c, 10, 69, 56
11, 420600, Note_on_c, 10, 67, 73
11, 420696, Note_off_c, 10, 67, 56
11, 420719, Note_on_c, 10, 67, 73
11, 420815, Note_off_c, 10, 67, 56
11, 420839, Note_on_c, 10, 67, 73
11, 420935, Note_off_c, 10, 67, 56
11, 420962, Note_on_c, 10, 76, 73
11, 421250, Note_off_c, 10, 76, 65
11, 421320, Note_on_c, 10, 74, 73
11, 421416, Note_off_c, 10, 74, 56
11, 421439, Note_on_c, 10, 72, 73
11, 421535, Note_off_c, 10, 72, 56
11, 421559, Note_on_c, 10, 71, 73
11, 421655, Note_off_c, 10, 71, 56
11, 421681, Note_on_c, 10, 71, 73
11, 421777, Note_off_c, 10, 71, 56
11, 421799, Note_on_c, 10, 71, 73
11, 421895, Note_off_c, 10, 71, 56
11, 421918, Note_on_c, 10, 76, 73
11, 422206, Note_off_c, 10, 76, 65
11, 422279, Note_on_c, 10, 74, 73
11, 422375, Note_off_c, 10, 74, 56
11, 422401, Note_on_c, 10, 72, 73
11, 422497, Note_off_c, 10, 72, 56
11, 422522, Note_on_c, 10, 71, 73
11, 422618, Note_off_c, 10, 71, 56
11, 422642, Note_on_c, 10, 71, 73
11, 422738, Note_off_c, 10, 71, 56
11, 422760, Note_on_c, 10, 71, 73
11, 422856, Note_off_c, 10, 71, 56
11, 422881, Note_on_c, 10, 79, 73
11, 422977, Note_off_c, 10, 79, 56
11, 423119, Note_on_c, 10, 79, 74
11, 423215, Note_off_c, 10, 79, 56
11, 423361, Note_on_c, 10, 79, 75
11, 423457, Note_off_c, 10, 79, 56
11, 423601, Note_on_c, 10, 77, 78
11, 423697, Note_off_c, 10, 77, 56
11, 423838, Note_on_c, 10, 77, 79
11, 423934, Note_off_c, 10, 77, 56
11, 424079, Note_on_c, 10, 76, 80
11, 424175, Note_off_c, 10, 76, 56
11, 424322, Note_on_c, 10, 74, 81
11, 424418, Note_off_c, 10, 74, 56
11, 424562, Note_on_c, 10, 79, 83
11, 424658, Note_off_c, 10, 79, 56
11, 424801, Note_on_c, 10, 79, 85
11, 424897, Note_off_c, 10, 79, 56
11, 425041, Note_on_c, 10, 79, 86
11, 425137, Note_off_c, 10, 79, 56
11, 425280, Note_on_c, 10, 79, 87
11, 425376, Note_off_c, 10, 79, 56
11, 425520, Note_on_c, 10, 77, 89
11, 425616, Note_off_c, 10, 77, 56
11, 425760, Note_on_c, 10, 77, 90
11, 425856, Note_off_c, 10, 77, 56
11, 426001, Note_on_c, 10, 76, 92
11, 426097, Note_off_c, 10, 76, 56
11, 426242, Note_on_c, 10, 74, 93
11, 426338, Note_off_c, 10, 74, 56
11, 426480, Control_c, 10, 7, 120
11, 426480, Program_c, 10, 44
11, 426481, Note_on_c, 10, 79, 100
11, 426529, Note_off_c, 10, 79, 56
11, 426539, Note_on_c, 10, 79, 100
11, 426587, Note_off_c, 10, 79, 56
11, 426600, Note_on_c, 10, 79, 100
11, 426648, Note_off_c, 10, 79, 56
11, 426661, Note_on_c, 10, 79, 101
11, 426709, Note_off_c, 10, 79, 56
11, 426720, Note_on_c, 10, 79, 101
11, 426768, Note_off_c, 10, 79, 56
11, 426779, Note_on_c, 10, 79, 101
11, 426827, Note_off_c, 10, 79, 56
11, 426841, Note_on_c, 10, 79, 101
11, 426889, Note_off_c, 10, 79, 56
11, 426899, Note_on_c, 10, 79, 102
11, 426947, Note_off_c, 10, 79, 56
11, 426961, Note_on_c, 10, 79, 102
11, 427009, Note_off_c, 10, 79, 56
11, 427019, Note_on_c, 10, 79, 102
11, 427067, Note_off_c, 10, 79, 56
11, 427079, Note_on_c, 10, 79, 103
11, 427127, Note_off_c, 10, 79, 56
11, 427140, Note_on_c, 10, 79, 103
11, 427188, Note_off_c, 10, 79, 56
11, 427201, Note_on_c, 10, 79, 103
11, 427249, Note_off_c, 10, 79, 56
11, 427259, Note_on_c, 10, 79, 105
11, 427307, Note_off_c, 10, 79, 56
11, 427319, Note_on_c, 10, 79, 105
11, 427367, Note_off_c, 10, 79, 56
11, 427381, Note_on_c, 10, 79, 105
11, 427429, Note_off_c, 10, 79, 56
11, 427439, Note_on_c, 10, 77, 106
11, 427487, Note_off_c, 10, 77, 56
11, 427499, Note_on_c, 10, 77, 106
11, 427547, Note_off_c, 10, 77, 56
11, 427559, Note_on_c, 10, 77, 106
11, 427607, Note_off_c, 10, 77, 56
11, 427619, Note_on_c, 10, 77, 107
11, 427667, Note_off_c, 10, 77, 56
11, 427680, Note_on_c, 10, 77, 107
11, 427728, Note_off_c, 10, 77, 56
11, 427741, Note_on_c, 10, 77, 107
11, 427789, Note_off_c, 10, 77, 56
11, 427800, Note_on_c, 10, 77, 107
11, 427848, Note_off_c, 10, 77, 56
11, 427859, Note_on_c, 10, 77, 108
11, 427907, Note_off_c, 10, 77, 56
11, 427921, Note_on_c, 10, 76, 108
11, 427969, Note_off_c, 10, 76, 56
11, 427979, Note_on_c, 10, 76, 108
11, 428027, Note_off_c, 10, 76, 56
11, 428039, Note_on_c, 10, 76, 109
11, 428087, Note_off_c, 10, 76, 56
11, 428101, Note_on_c, 10, 76, 109
11, 428149, Note_off_c, 10, 76, 56
11, 428161, Note_on_c, 10, 74, 109
11, 428209, Note_off_c, 10, 74, 56
11, 428219, Note_on_c, 10, 74, 110
11, 428267, Note_off_c, 10, 74, 56
11, 428279, Note_on_c, 10, 74, 110
11, 428327, Note_off_c, 10, 74, 56
11, 428339, Note_on_c, 10, 74, 110
11, 428387, Note_off_c, 10, 74, 56
11, 428400, Note_on_c, 10, 79, 111
11, 428448, Note_off_c, 10, 79, 56
11, 428460, Note_on_c, 10, 79, 111
11, 428508, Note_off_c, 10, 79, 56
11, 428519, Note_on_c, 10, 79, 111
11, 428567, Note_off_c, 10, 79, 56
11, 428581, Note_on_c, 10, 79, 113
11, 428629, Note_off_c, 10, 79, 56
11, 428640, Note_on_c, 10, 72, 113
11, 428688, Note_off_c, 10, 72, 56
11, 428701, Note_on_c, 10, 72, 113
11, 428749, Note_off_c, 10, 72, 56
11, 428760, Note_on_c, 10, 72, 113
11, 428808, Note_off_c, 10, 72, 56
11, 428821, Note_on_c, 10, 72, 113
11, 428869, Note_off_c, 10, 72, 56
11, 428880, Note_on_c, 10, 76, 113
11, 428928, Note_off_c, 10, 76, 56
11, 428941, Note_on_c, 10, 76, 113
11, 428989, Note_off_c, 10, 76, 56
11, 429001, Note_on_c, 10, 76, 113
11, 429049, Note_off_c, 10, 76, 56
11, 429060, Note_on_c, 10, 76, 113
11, 429108, Note_off_c, 10, 76, 56
11, 429120, Note_on_c, 10, 79, 113
11, 429168, Note_off_c, 10, 79, 56
11, 429181, Note_on_c, 10, 79, 113
11, 429229, Note_off_c, 10, 79, 56
11, 429240, Note_on_c, 10, 79, 113
11, 429288, Note_off_c, 10, 79, 56
11, 429299, Note_on_c, 10, 79, 113
11, 429347, Note_off_c, 10, 79, 56
11, 429361, Note_on_c, 10, 79, 113
11, 429409, Note_off_c, 10, 79, 56
11, 429419, Note_on_c, 10, 79, 113
11, 429467, Note_off_c, 10, 79, 56
11, 429479, Note_on_c, 10, 77, 113
11, 429527, Note_off_c, 10, 77, 56
11, 429539, Note_on_c, 10, 77, 113
11, 429587, Note_off_c, 10, 77, 56
11, 429600, Note_on_c, 10, 76, 113
11, 429648, Note_off_c, 10, 76, 56
11, 429661, Note_on_c, 10, 76, 113
11, 429709, Note_off_c, 10, 76, 56
11, 429719, Note_on_c, 10, 74, 113
11, 429767, Note_off_c, 10, 74, 56
11, 429780, Note_on_c, 10, 74, 113
11, 429828, Note_off_c, 10, 74, 56
11, 429840, Note_on_c, 10, 72, 113
11, 429888, Note_off_c, 10, 72, 56
11, 429899, Note_on_c, 10, 72, 113
11, 429947, Note_off_c, 10, 72, 56
11, 429960, Note_on_c, 10, 74, 113
11, 430008, Note_off_c, 10, 74, 56
11, 430019, Note_on_c, 10, 74, 113
11, 430067, Note_off_c, 10, 74, 56
11, 430080, Note_on_c, 10, 76, 113
11, 430128, Note_off_c, 10, 76, 56
11, 430139, Note_on_c, 10, 76, 113
11, 430187, Note_off_c, 10, 76, 56
11, 430199, Note_on_c, 10, 76, 113
11, 430247, Note_off_c, 10, 76, 56
11, 430261, Note_on_c, 10, 76, 113
11, 430309, Note_off_c, 10, 76, 56
11, 430320, Note_on_c, 10, 76, 113
11, 430368, Note_off_c, 10, 76, 56
11, 430380, Note_on_c, 10, 76, 113
11, 430428, Note_off_c, 10, 76, 56
11, 430439, Note_on_c, 10, 76, 113
11, 430487, Note_off_c, 10, 76, 56
11, 430499, Note_on_c, 10, 76, 113
11, 430547, Note_off_c, 10, 76, 56
11, 430561, Note_on_c, 10, 76, 113
11, 430609, Note_off_c, 10, 76, 56
11, 430619, Note_on_c, 10, 76, 113
11, 430667, Note_off_c, 10, 76, 56
11, 430681, Note_on_c, 10, 74, 113
11, 430729, Note_off_c, 10, 74, 56
11, 430740, Note_on_c, 10, 74, 113
11, 430788, Note_off_c, 10, 74, 56
11, 430799, Note_on_c, 10, 76, 113
11, 430847, Note_off_c, 10, 76, 56
11, 430860, Note_on_c, 10, 76, 113
11, 430908, Note_off_c, 10, 76, 56
11, 430919, Note_on_c, 10, 77, 113
11, 430967, Note_off_c, 10, 77, 56
11, 430980, Note_on_c, 10, 77, 113
11, 431028, Note_off_c, 10, 77, 56
11, 431039, Note_on_c, 10, 79, 113
11, 431087, Note_off_c, 10, 79, 56
11, 431101, Note_on_c, 10, 79, 113
11, 431149, Note_off_c, 10, 79, 56
11, 431161, Note_on_c, 10, 79, 113
11, 431209, Note_off_c, 10, 79, 56
11, 431219, Note_on_c, 10, 79, 113
11, 431267, Note_off_c, 10, 79, 56
11, 431280, Note_on_c, 10, 79, 113
11, 431328, Note_off_c, 10, 79, 56
11, 431340, Note_on_c, 10, 79, 113
11, 431388, Note_off_c, 10, 79, 56
11, 431400, Note_on_c, 10, 79, 113
11, 431448, Note_off_c, 10, 79, 56
11, 431460, Note_on_c, 10, 79, 113
11, 431508, Note_off_c, 10, 79, 56
11, 431519, Note_on_c, 10, 79, 113
11, 431567, Note_off_c, 10, 79, 56
11, 431580, Note_on_c, 10, 79, 113
11, 431628, Note_off_c, 10, 79, 56
11, 431641, Note_on_c, 10, 77, 113
11, 431689, Note_off_c, 10, 77, 56
11, 431700, Note_on_c, 10, 77, 113
11, 431748, Note_off_c, 10, 77, 56
11, 431760, Note_on_c, 10, 79, 113
11, 431808, Note_off_c, 10, 79, 56
11, 431821, Note_on_c, 10, 79, 113
11, 431869, Note_off_c, 10, 79, 56
11, 431879, Note_on_c, 10, 83, 113
11, 431927, Note_off_c, 10, 83, 56
11, 431940, Note_on_c, 10, 83, 113
11, 431988, Note_off_c, 10, 83, 56
11, 432000, Note_on_c, 10, 84, 113
11, 432048, Note_off_c, 10, 84, 56
11, 432061, Note_on_c, 10, 84, 113
11, 432109, Note_off_c, 10, 84, 56
11, 432120, Note_on_c, 10, 84, 113
11, 432168, Note_off_c, 10, 84, 56
11, 432179, Note_on_c, 10, 84, 113
11, 432227, Note_off_c, 10, 84, 56
11, 432241, Note_on_c, 10, 84, 113
11, 432289, Note_off_c, 10, 84, 56
11, 432300, Note_on_c, 10, 84, 113
11, 432348, Note_off_c, 10, 84, 56
11, 432361, Note_on_c, 10, 83, 113
11, 432409, Note_off_c, 10, 83, 56
11, 432419, Note_on_c, 10, 83, 113
11, 432467, Note_off_c, 10, 83, 56
11, 432479, Note_on_c, 10, 84, 113
11, 432527, Note_off_c, 10, 84, 56
11, 432541, Note_on_c, 10, 84, 113
11, 432589, Note_off_c, 10, 84, 56
11, 432601, Note_on_c, 10, 83, 113
11, 432649, Note_off_c, 10, 83, 56
11, 432660, Note_on_c, 10, 83, 113
11, 432708, Note_off_c, 10, 83, 56
11, 432719, Note_on_c, 10, 84, 113
11, 432767, Note_off_c, 10, 84, 56
11, 432781, Note_on_c, 10, 84, 113
11, 432829, Note_off_c, 10, 84, 56
11, 432840, Note_on_c, 10, 86, 113
11, 432888, Note_off_c, 10, 86, 56
11, 432900, Note_on_c, 10, 86, 113
11, 432948, Note_off_c, 10, 86, 56
11, 432961, Note_on_c, 10, 88, 113
11, 433009, Note_off_c, 10, 88, 56
11, 433019, Note_on_c, 10, 88, 113
11, 433067, Note_off_c, 10, 88, 56
11, 433079, Note_on_c, 10, 86, 113
11, 433127, Note_off_c, 10, 86, 56
11, 433140, Note_on_c, 10, 86, 113
11, 433188, Note_off_c, 10, 86, 56
11, 433199, Note_on_c, 10, 88, 113
11, 433247, Note_off_c, 10, 88, 56
11, 433261, Note_on_c, 10, 88, 113
11, 433309, Note_off_c, 10, 88, 56
11, 433320, Note_on_c, 10, 89, 113
11, 433368, Note_off_c, 10, 89, 56
11, 433381, Note_on_c, 10, 89, 113
11, 433429, Note_off_c, 10, 89, 56
11, 433440, Note_on_c, 10, 91, 113
11, 433488, Note_off_c, 10, 91, 56
11, 433499, Note_on_c, 10, 91, 113
11, 433547, Note_off_c, 10, 91, 56
11, 433560, Note_on_c, 10, 91, 113
11, 433608, Note_off_c, 10, 91, 56
11, 433620, Note_on_c, 10, 91, 113
11, 433668, Note_off_c, 10, 91, 56
11, 433680, Note_on_c, 10, 91, 113
11, 433728, Note_off_c, 10, 91, 56
11, 433741, Note_on_c, 10, 91, 113
11, 433789, Note_off_c, 10, 91, 56
11, 433800, Note_on_c, 10, 91, 113
11, 433848, Note_off_c, 10, 91, 56
11, 433859, Note_on_c, 10, 91, 113
11, 433907, Note_off_c, 10, 91, 56
11, 433920, Note_on_c, 10, 91, 113
11, 433968, Note_off_c, 10, 91, 56
11, 433979, Note_on_c, 10, 91, 113
11, 434027, Note_off_c, 10, 91, 56
11, 434040, Note_on_c, 10, 91, 113
11, 434088, Note_off_c, 10, 91, 56
11, 434099, Note_on_c, 10, 91, 113
11, 434147, Note_off_c, 10, 91, 56
11, 434159, Note_on_c, 10, 91, 113
11, 434207, Note_off_c, 10, 91, 56
11, 434219, Note_on_c, 10, 91, 113
11, 434267, Note_off_c, 10, 91, 56
11, 434280, Note_on_c, 10, 91, 113
11, 434328, Note_off_c, 10, 91, 56
11, 434340, Note_on_c, 10, 91, 113
11, 434388, Note_off_c, 10, 91, 56
11, 434400, Note_on_c, 10, 88, 113
11, 434448, Note_off_c, 10, 88, 56
11, 434460, Note_on_c, 10, 88, 113
11, 434508, Note_off_c, 10, 88, 56
11, 434520, Note_on_c, 10, 88, 113
11, 434568, Note_off_c, 10, 88, 56
11, 434579, Note_on_c, 10, 88, 113
11, 434627, Note_off_c, 10, 88, 56
11, 434639, Note_on_c, 10, 88, 113
11, 434687, Note_off_c, 10, 88, 56
11, 434701, Note_on_c, 10, 88, 113
11, 434749, Note_off_c, 10, 88, 56
11, 434759, Note_on_c, 10, 88, 113
11, 434807, Note_off_c, 10, 88, 56
11, 434819, Note_on_c, 10, 88, 113
11, 434867, Note_off_c, 10, 88, 56
11, 434879, Note_on_c, 10, 88, 113
11, 434927, Note_off_c, 10, 88, 56
11, 434941, Note_on_c, 10, 88, 113
11, 434989, Note_off_c, 10, 88, 56
11, 435001, Note_on_c, 10, 88, 113
11, 435049, Note_off_c, 10, 88, 56
11, 435059, Note_on_c, 10, 88, 113
11, 435107, Note_off_c, 10, 88, 56
11, 435120, Note_on_c, 10, 88, 113
11, 435168, Note_off_c, 10, 88, 56
11, 435180, Note_on_c, 10, 88, 113
11, 435228, Note_off_c, 10, 88, 56
11, 435241, Note_on_c, 10, 88, 113
11, 435289, Note_off_c, 10, 88, 56
11, 435301, Note_on_c, 10, 88, 113
11, 435349, Note_off_c, 10, 88, 56
11, 435360, Control_c, 10, 7, 100
11, 435362, Note_on_c, 10, 84, 108
11, 435372, Control_c, 10, 0, 0
11, 435372, Control_c, 10, 32, 8
11, 435372, Program_c, 10, 50
11, 435482, Note_off_c, 10, 84, 56
11, 435838, Note_on_c, 10, 55, 108
11, 435842, Note_on_c, 10, 67, 108
11, 435958, Note_off_c, 10, 55, 56
11, 435962, Note_off_c, 10, 67, 56
11, 436319, Note_on_c, 10, 67, 108
11, 436320, Note_on_c, 10, 55, 108
11, 436439, Note_off_c, 10, 67, 56
11, 436440, Note_off_c, 10, 55, 56
11, 436799, Note_on_c, 10, 55, 108
11, 436800, Note_on_c, 10, 62, 108
11, 436919, Note_off_c, 10, 55, 56
11, 436920, Note_off_c, 10, 62, 56
11, 437278, Note_on_c, 10, 55, 108
11, 437280, Note_on_c, 10, 64, 108
11, 437398, Note_off_c, 10, 55, 56
11, 437400, Note_off_c, 10, 64, 56
11, 437759, Note_on_c, 10, 67, 108
11, 437762, Note_on_c, 10, 55, 108
11, 437879, Note_off_c, 10, 67, 56
11, 437882, Note_off_c, 10, 55, 56
11, 438239, Note_on_c, 10, 55, 108
11, 438242, Note_on_c, 10, 67, 108
11, 438359, Note_off_c, 10, 55, 56
11, 438362, Note_off_c, 10, 67, 56
11, 438719, Note_on_c, 10, 62, 108
11, 438721, Note_on_c, 10, 55, 108
11, 438839, Note_off_c, 10, 62, 56
11, 438841, Note_off_c, 10, 55, 56
11, 439198, Note_on_c, 10, 64, 108
11, 439201, Note_on_c, 10, 55, 108
11, 439318, Note_off_c, 10, 64, 56
11, 439321, Note_off_c, 10, 55, 56
11, 439678, Note_on_c, 10, 55, 108
11, 439681, Note_on_c, 10, 62, 108
11, 439798, Note_off_c, 10, 55, 56
11, 439801, Note_off_c, 10, 62, 56
11, 440162, Note_on_c, 10, 55, 108
11, 440162, Note_on_c, 10, 64, 108
11, 440282, Note_off_c, 10, 64, 56
11, 440282, Note_off_c, 10, 55, 56
11, 440641, Note_on_c, 10, 55, 108
11, 440642, Note_on_c, 10, 62, 108
11, 440761, Note_off_c, 10, 55, 56
11, 440762, Note_off_c, 10, 62, 56
11, 441119, Note_on_c, 10, 84, 113
11, 441128, Program_c, 10, 44
11, 441128, Control_c, 10, 7, 120
11, 441167, Note_off_c, 10, 84, 56
11, 441181, Note_on_c, 10, 84, 113
11, 441229, Note_off_c, 10, 84, 56
11, 441241, Note_on_c, 10, 84, 113
11, 441289, Note_off_c, 10, 84, 56
11, 441301, Note_on_c, 10, 84, 113
11, 441349, Note_off_c, 10, 84, 56
11, 441361, Note_on_c, 10, 84, 113
11, 441409, Note_off_c, 10, 84, 56
11, 441419, Note_on_c, 10, 84, 113
11, 441467, Note_off_c, 10, 84, 56
11, 441479, Note_on_c, 10, 84, 113
11, 441527, Note_off_c, 10, 84, 56
11, 441541, Note_on_c, 10, 84, 113
11, 441589, Note_off_c, 10, 84, 56
11, 441601, Note_on_c, 10, 84, 113
11, 441649, Note_off_c, 10, 84, 56
11, 441661, Note_on_c, 10, 84, 113
11, 441709, Note_off_c, 10, 84, 56
11, 441719, Note_on_c, 10, 84, 113
11, 441767, Note_off_c, 10, 84, 56
11, 441780, Note_on_c, 10, 84, 113
11, 441828, Note_off_c, 10, 84, 56
11, 441841, Note_on_c, 10, 79, 113
11, 441889, Note_off_c, 10, 79, 56
11, 441901, Note_on_c, 10, 79, 113
11, 441949, Note_off_c, 10, 79, 56
11, 441960, Note_on_c, 10, 76, 113
11, 442008, Note_off_c, 10, 76, 56
11, 442021, Note_on_c, 10, 76, 113
11, 442069, Note_off_c, 10, 76, 56
11, 442080, Note_on_c, 10, 72, 113
11, 442128, Note_off_c, 10, 72, 56
11, 442140, Note_on_c, 10, 72, 113
11, 442188, Note_off_c, 10, 72, 56
11, 442200, Note_on_c, 10, 72, 113
11, 442248, Note_off_c, 10, 72, 56
11, 442261, Note_on_c, 10, 72, 113
11, 442309, Note_off_c, 10, 72, 56
11, 442320, Note_on_c, 10, 72, 113
11, 442368, Note_off_c, 10, 72, 56
11, 442379, Note_on_c, 10, 72, 113
11, 442427, Note_off_c, 10, 72, 56
11, 442439, Note_on_c, 10, 72, 113
11, 442487, Note_off_c, 10, 72, 56
11, 442499, Note_on_c, 10, 72, 113
11, 442547, Note_off_c, 10, 72, 56
11, 442559, Note_on_c, 10, 72, 113
11, 442607, Note_off_c, 10, 72, 56
11, 442620, Note_on_c, 10, 72, 113
11, 442668, Note_off_c, 10, 72, 56
11, 442680, Note_on_c, 10, 72, 113
11, 442728, Note_off_c, 10, 72, 56
11, 442741, Note_on_c, 10, 72, 113
11, 442789, Note_off_c, 10, 72, 56
11, 442800, Note_on_c, 10, 67, 113
11, 442848, Note_off_c, 10, 67, 56
11, 442860, Note_on_c, 10, 67, 113
11, 442908, Note_off_c, 10, 67, 56
11, 442919, Note_on_c, 10, 64, 113
11, 442967, Note_off_c, 10, 64, 56
11, 442979, Note_on_c, 10, 64, 113
11, 443027, Note_off_c, 10, 64, 56
11, 443040, Note_on_c, 10, 60, 108
11, 443052, Control_c, 10, 0, 0
11, 443052, Control_c, 10, 32, 8
11, 443052, Program_c, 10, 50
11, 443136, Note_off_c, 10, 60, 56
11, 443398, Note_on_c, 10, 72, 108
11, 443494, Note_off_c, 10, 72, 56
11, 443518, Note_on_c, 10, 72, 108
11, 443614, Note_off_c, 10, 72, 56
11, 443642, Note_on_c, 10, 72, 108
11, 443738, Note_off_c, 10, 72, 56
11, 443759, Note_on_c, 10, 72, 108
11, 443855, Note_off_c, 10, 72, 56
11, 443880, Note_on_c, 10, 72, 108
11, 443976, Note_off_c, 10, 72, 56
11, 444001, Note_on_c, 10, 72, 108
11, 444097, Note_off_c, 10, 72, 56
11, 444359, Note_on_c, 10, 76, 108
11, 444455, Note_off_c, 10, 76, 56
11, 444478, Note_on_c, 10, 76, 108
11, 444574, Note_off_c, 10, 76, 56
11, 444602, Note_on_c, 10, 76, 108
11, 444698, Note_off_c, 10, 76, 56
11, 444718, Note_on_c, 10, 76, 108
11, 444814, Note_off_c, 10, 76, 56
11, 444842, Note_on_c, 10, 76, 108
11, 444938, Note_off_c, 10, 76, 56
11, 444959, Note_on_c, 10, 76, 108
11, 445055, Note_off_c, 10, 76, 56
11, 445202, Note_on_c, 10, 72, 108
11, 445298, Note_off_c, 10, 72, 56
11, 445320, Note_on_c, 10, 72, 108
11, 445416, Note_off_c, 10, 72, 56
11, 445438, Note_on_c, 10, 72, 108
11, 445534, Note_off_c, 10, 72, 56
11, 445680, Note_on_c, 10, 76, 108
11, 445776, Note_off_c, 10, 76, 56
11, 445800, Note_on_c, 10, 76, 108
11, 445896, Note_off_c, 10, 76, 56
11, 445922, Note_on_c, 10, 76, 108
11, 446018, Note_off_c, 10, 76, 56
11, 446161, Note_on_c, 10, 79, 108
11, 446257, Note_off_c, 10, 79, 56
11, 446280, Note_on_c, 10, 79, 108
11, 446376, Note_off_c, 10, 79, 56
11, 446400, Note_on_c, 10, 79, 108
11, 446496, Note_off_c, 10, 79, 56
11, 446640, Note_on_c, 10, 84, 108
11, 446736, Note_off_c, 10, 84, 56
11, 446762, Note_on_c, 10, 84, 108
11, 446858, Note_off_c, 10, 84, 56
11, 446880, Note_on_c, 10, 84, 113
11, 446880, Program_c, 10, 44
11, 446928, Note_off_c, 10, 84, 56
11, 446940, Note_on_c, 10, 84, 113
11, 446988, Note_off_c, 10, 84, 56
11, 447000, Note_on_c, 10, 84, 113
11, 447048, Note_off_c, 10, 84, 56
11, 447060, Note_on_c, 10, 84, 113
11, 447108, Note_off_c, 10, 84, 56
11, 447119, Note_on_c, 10, 84, 113
11, 447167, Note_off_c, 10, 84, 56
11, 447179, Note_on_c, 10, 84, 113
11, 447227, Note_off_c, 10, 84, 56
11, 447239, Note_on_c, 10, 84, 113
11, 447287, Note_off_c, 10, 84, 56
11, 447300, Note_on_c, 10, 84, 113
11, 447348, Note_off_c, 10, 84, 56
11, 447360, Note_on_c, 10, 84, 113
11, 447408, Note_off_c, 10, 84, 56
11, 447420, Note_on_c, 10, 84, 113
11, 447468, Note_off_c, 10, 84, 56
11, 447480, Note_on_c, 10, 84, 113
11, 447528, Note_off_c, 10, 84, 56
11, 447541, Note_on_c, 10, 84, 113
11, 447589, Note_off_c, 10, 84, 56
11, 447599, Note_on_c, 10, 84, 113
11, 447647, Note_off_c, 10, 84, 56
11, 447660, Note_on_c, 10, 84, 113
11, 447708, Note_off_c, 10, 84, 56
11, 447720, Note_on_c, 10, 84, 113
11, 447768, Note_off_c, 10, 84, 56
11, 447779, Note_on_c, 10, 84, 113
11, 447827, Note_off_c, 10, 84, 56
11, 447839, Note_on_c, 10, 88, 113
11, 447887, Note_off_c, 10, 88, 56
11, 447900, Note_on_c, 10, 88, 113
11, 447948, Note_off_c, 10, 88, 56
11, 447961, Note_on_c, 10, 88, 113
11, 448009, Note_off_c, 10, 88, 56
11, 448021, Note_on_c, 10, 88, 113
11, 448069, Note_off_c, 10, 88, 56
11, 448079, Note_on_c, 10, 88, 113
11, 448127, Note_off_c, 10, 88, 56
11, 448141, Note_on_c, 10, 88, 113
11, 448189, Note_off_c, 10, 88, 56
11, 448200, Note_on_c, 10, 88, 113
11, 448248, Note_off_c, 10, 88, 56
11, 448260, Note_on_c, 10, 88, 113
11, 448308, Note_off_c, 10, 88, 56
11, 448320, Note_on_c, 10, 88, 113
11, 448368, Note_off_c, 10, 88, 56
11, 448381, Note_on_c, 10, 88, 113
11, 448429, Note_off_c, 10, 88, 56
11, 448440, Note_on_c, 10, 88, 113
11, 448488, Note_off_c, 10, 88, 56
11, 448499, Note_on_c, 10, 88, 113
11, 448547, Note_off_c, 10, 88, 56
11, 448560, Note_on_c, 10, 88, 113
11, 448608, Note_off_c, 10, 88, 56
11, 448620, Note_on_c, 10, 88, 113
11, 448668, Note_off_c, 10, 88, 56
11, 448680, Note_on_c, 10, 88, 113
11, 448728, Note_off_c, 10, 88, 56
11, 448739, Note_on_c, 10, 88, 113
11, 448787, Note_off_c, 10, 88, 56
11, 448800, Control_c, 10, 0, 0
11, 448800, Control_c, 10, 32, 8
11, 448800, Program_c, 10, 50
11, 448802, Note_on_c, 10, 67, 108
11, 448808, Control_c, 10, 7, 100
11, 448922, Note_off_c, 10, 67, 56
11, 449758, Note_on_c, 10, 60, 108
11, 449761, Note_on_c, 10, 67, 108
11, 449878, Note_off_c, 10, 60, 56
11, 449881, Note_off_c, 10, 67, 56
11, 450720, Note_on_c, 10, 64, 108
11, 450721, Note_on_c, 10, 55, 108
11, 450840, Note_off_c, 10, 64, 56
11, 450841, Note_off_c, 10, 55, 56
11, 451678, Note_on_c, 10, 67, 108
11, 451682, Note_on_c, 10, 60, 108
11, 451798, Note_off_c, 10, 67, 56
11, 451802, Note_off_c, 10, 60, 56
11, 452161, Note_on_c, 10, 60, 108
11, 452162, Note_on_c, 10, 67, 108
11, 452281, Note_off_c, 10, 60, 56
11, 452282, Note_off_c, 10, 67, 56
11, 452639, Note_on_c, 10, 60, 108
11, 452640, Note_on_c, 10, 67, 108
11, 452759, Note_off_c, 10, 60, 56
11, 452760, Note_off_c, 10, 67, 56
11, 453599, Note_on_c, 10, 60, 108
11, 453600, Note_on_c, 10, 67, 108
11, 453719, Note_off_c, 10, 60, 56
11, 453720, Note_off_c, 10, 67, 56
11, 454559, Note_on_c, 10, 60, 108
11, 455519, Note_off_c, 10, 60, 76
11, 455519, End_track
12, 0, Start_track
12, 0, Title_t, "2V2"
12, 0, Program_c, 11, 50
12, 0, Control_c, 11, 7, 110
12, 0, Control_c, 11, 0, 0
12, 0, Control_c, 11, 32, 8
12, 0, Note_on_c, 11, 88, 108
12, 0, Control_c, 11, 91, 20
12, 0, Control_c, 11, 93, 30
12, 0, Control_c, 11, 10, 109
12, 1, Note_on_c, 11, 76, 108
12, 182, Note_off_c, 11, 88, 64
12, 183, Note_off_c, 11, 76, 64
12, 478, Note_on_c, 11, 64, 108
12, 482, Note_on_c, 11, 55, 108
12, 660, Note_off_c, 11, 64, 64
12, 664, Note_off_c, 11, 55, 64
12, 958, Note_on_c, 11, 55, 108
12, 959, Note_on_c, 11, 64, 108
12, 1140, Note_off_c, 11, 55, 64
12, 1141, Note_off_c, 11, 64, 64
12, 1679, Note_on_c, 11, 55, 108
12, 1679, Note_on_c, 11, 62, 108
12, 1770, Note_off_c, 11, 62, 56
12, 1770, Note_off_c, 11, 55, 56
12, 1920, Note_on_c, 11, 55, 108
12, 1920, Note_on_c, 11, 64, 108
12, 2011, Note_off_c, 11, 64, 56
12, 2011, Note_off_c, 11, 55, 56
12, 2160, Note_on_c, 11, 55, 108
12, 2161, Note_on_c, 11, 65, 108
12, 2251, Note_off_c, 11, 55, 56
12, 2252, Note_off_c, 11, 65, 56
12, 2399, Note_on_c, 11, 55, 108
12, 2400, Note_on_c, 11, 64, 108
12, 2490, Note_off_c, 11, 55, 56
12, 2491, Note_off_c, 11, 64, 56
12, 2639, Note_on_c, 11, 55, 108
12, 2641, Note_on_c, 11, 65, 108
12, 2730, Note_off_c, 11, 55, 56
12, 2732, Note_off_c, 11, 65, 56
12, 2880, Note_on_c, 11, 64, 113
12, 2880, Note_on_c, 11, 55, 113
12, 2896, Program_c, 11, 44
12, 2896, Control_c, 11, 7, 120
12, 2925, Note_off_c, 11, 55, 56
12, 2925, Note_off_c, 11, 64, 56
12, 2940, Note_on_c, 11, 60, 113
12, 2985, Note_off_c, 11, 60, 56
12, 3000, Note_on_c, 11, 60, 113
12, 3045, Note_off_c, 11, 60, 56
12, 3060, Note_on_c, 11, 60, 113
12, 3105, Note_off_c, 11, 60, 56
12, 3120, Note_on_c, 11, 60, 113
12, 3165, Note_off_c, 11, 60, 56
12, 3180, Note_on_c, 11, 60, 113
12, 3225, Note_off_c, 11, 60, 56
12, 3240, Note_on_c, 11, 60, 113
12, 3285, Note_off_c, 11, 60, 56
12, 3300, Note_on_c, 11, 60, 113
12, 3345, Note_off_c, 11, 60, 56
12, 3360, Note_on_c, 11, 60, 113
12, 3405, Note_off_c, 11, 60, 56
12, 3420, Note_on_c, 11, 60, 113
12, 3465, Note_off_c, 11, 60, 56
12, 3480, Note_on_c, 11, 60, 113
12, 3525, Note_off_c, 11, 60, 56
12, 3540, Note_on_c, 11, 60, 113
12, 3585, Note_off_c, 11, 60, 56
12, 3840, Note_on_c, 11, 59, 113
12, 3885, Note_off_c, 11, 59, 56
12, 3900, Note_on_c, 11, 59, 113
12, 3945, Note_off_c, 11, 59, 56
12, 3960, Note_on_c, 11, 59, 113
12, 4005, Note_off_c, 11, 59, 56
12, 4020, Note_on_c, 11, 59, 113
12, 4065, Note_off_c, 11, 59, 56
12, 4080, Note_on_c, 11, 59, 113
12, 4125, Note_off_c, 11, 59, 56
12, 4140, Note_on_c, 11, 59, 113
12, 4140, Note_on_c, 11, 59, 113
12, 4185, Note_off_c, 11, 59, 56
12, 4185, Note_off_c, 11, 59, 56
12, 4200, Note_on_c, 11, 59, 113
12, 4245, Note_off_c, 11, 59, 56
12, 4260, Note_on_c, 11, 59, 113
12, 4305, Note_off_c, 11, 59, 56
12, 4320, Note_on_c, 11, 59, 113
12, 4365, Note_off_c, 11, 59, 56
12, 4380, Note_on_c, 11, 59, 113
12, 4425, Note_off_c, 11, 59, 56
12, 4440, Note_on_c, 11, 59, 113
12, 4485, Note_off_c, 11, 59, 56
12, 4500, Note_on_c, 11, 59, 113
12, 4545, Note_off_c, 11, 59, 56
12, 4560, Note_on_c, 11, 59, 113
12, 4605, Note_off_c, 11, 59, 56
12, 4620, Note_on_c, 11, 59, 113
12, 4665, Note_off_c, 11, 59, 56
12, 4680, Note_on_c, 11, 59, 113
12, 4725, Note_off_c, 11, 59, 56
12, 4740, Note_on_c, 11, 59, 113
12, 4785, Note_off_c, 11, 59, 56
12, 4800, Note_on_c, 11, 60, 113
12, 4845, Note_off_c, 11, 60, 56
12, 4860, Note_on_c, 11, 60, 113
12, 4905, Note_off_c, 11, 60, 56
12, 4920, Note_on_c, 11, 60, 113
12, 4965, Note_off_c, 11, 60, 56
12, 4980, Note_on_c, 11, 60, 113
12, 5025, Note_off_c, 11, 60, 56
12, 5040, Note_on_c, 11, 60, 113
12, 5085, Note_off_c, 11, 60, 56
12, 5100, Note_on_c, 11, 60, 113
12, 5145, Note_off_c, 11, 60, 56
12, 5160, Note_on_c, 11, 60, 113
12, 5205, Note_off_c, 11, 60, 56
12, 5220, Note_on_c, 11, 60, 113
12, 5265, Note_off_c, 11, 60, 56
12, 5280, Note_on_c, 11, 60, 113
12, 5325, Note_off_c, 11, 60, 56
12, 5340, Note_on_c, 11, 60, 113
12, 5385, Note_off_c, 11, 60, 56
12, 5400, Note_on_c, 11, 60, 113
12, 5445, Note_off_c, 11, 60, 56
12, 5460, Note_on_c, 11, 60, 113
12, 5505, Note_off_c, 11, 60, 56
12, 5520, Note_on_c, 11, 60, 113
12, 5565, Note_off_c, 11, 60, 56
12, 5580, Note_on_c, 11, 60, 113
12, 5625, Note_off_c, 11, 60, 56
12, 5640, Note_on_c, 11, 60, 113
12, 5685, Note_off_c, 11, 60, 56
12, 5700, Note_on_c, 11, 60, 113
12, 5745, Note_off_c, 11, 60, 56
12, 5760, Note_on_c, 11, 60, 113
12, 5805, Note_off_c, 11, 60, 56
12, 5820, Note_on_c, 11, 60, 113
12, 5865, Note_off_c, 11, 60, 56
12, 5880, Note_on_c, 11, 60, 113
12, 5925, Note_off_c, 11, 60, 56
12, 5940, Note_on_c, 11, 60, 113
12, 5985, Note_off_c, 11, 60, 56
12, 6000, Note_on_c, 11, 60, 113
12, 6045, Note_off_c, 11, 60, 56
12, 6060, Note_on_c, 11, 60, 113
12, 6105, Note_off_c, 11, 60, 56
12, 6120, Note_on_c, 11, 60, 113
12, 6165, Note_off_c, 11, 60, 56
12, 6180, Note_on_c, 11, 60, 113
12, 6225, Note_off_c, 11, 60, 56
12, 6240, Note_on_c, 11, 60, 113
12, 6285, Note_off_c, 11, 60, 56
12, 6300, Note_on_c, 11, 60, 113
12, 6345, Note_off_c, 11, 60, 56
12, 6360, Note_on_c, 11, 60, 113
12, 6360, Note_on_c, 11, 60, 113
12, 6405, Note_off_c, 11, 60, 56
12, 6405, Note_off_c, 11, 60, 56
12, 6420, Note_on_c, 11, 60, 113
12, 6465, Note_off_c, 11, 60, 56
12, 6480, Note_on_c, 11, 60, 113
12, 6525, Note_off_c, 11, 60, 56
12, 6540, Note_on_c, 11, 60, 113
12, 6585, Note_off_c, 11, 60, 56
12, 6600, Note_on_c, 11, 60, 113
12, 6645, Note_off_c, 11, 60, 56
12, 6660, Note_on_c, 11, 60, 113
12, 6705, Note_off_c, 11, 60, 56
12, 6720, Note_on_c, 11, 60, 113
12, 6765, Note_off_c, 11, 60, 56
12, 6780, Note_on_c, 11, 60, 113
12, 6825, Note_off_c, 11, 60, 56
12, 6840, Note_on_c, 11, 60, 113
12, 6885, Note_off_c, 11, 60, 56
12, 6900, Note_on_c, 11, 60, 113
12, 6945, Note_off_c, 11, 60, 56
12, 6960, Note_on_c, 11, 60, 113
12, 7005, Note_off_c, 11, 60, 56
12, 7020, Note_on_c, 11, 60, 113
12, 7065, Note_off_c, 11, 60, 56
12, 7080, Note_on_c, 11, 60, 113
12, 7125, Note_off_c, 11, 60, 56
12, 7140, Note_on_c, 11, 60, 113
12, 7185, Note_off_c, 11, 60, 56
12, 7200, Note_on_c, 11, 60, 113
12, 7245, Note_off_c, 11, 60, 56
12, 7260, Note_on_c, 11, 60, 113
12, 7305, Note_off_c, 11, 60, 56
12, 7320, Note_on_c, 11, 60, 113
12, 7365, Note_off_c, 11, 60, 56
12, 7380, Note_on_c, 11, 60, 113
12, 7425, Note_off_c, 11, 60, 56
12, 7440, Note_on_c, 11, 60, 113
12, 7485, Note_off_c, 11, 60, 56
12, 7500, Note_on_c, 11, 60, 113
12, 7545, Note_off_c, 11, 60, 56
12, 7560, Note_on_c, 11, 60, 113
12, 7605, Note_off_c, 11, 60, 56
12, 7620, Note_on_c, 11, 60, 113
12, 7665, Note_off_c, 11, 60, 56
12, 7680, Note_on_c, 11, 60, 113
12, 7725, Note_off_c, 11, 60, 56
12, 7740, Note_on_c, 11, 60, 113
12, 7785, Note_off_c, 11, 60, 56
12, 7800, Note_on_c, 11, 60, 113
12, 7845, Note_off_c, 11, 60, 56
12, 7860, Note_on_c, 11, 60, 113
12, 7905, Note_off_c, 11, 60, 56
12, 7920, Note_on_c, 11, 60, 113
12, 7965, Note_off_c, 11, 60, 56
12, 7980, Note_on_c, 11, 60, 113
12, 8025, Note_off_c, 11, 60, 56
12, 8040, Note_on_c, 11, 60, 113
12, 8085, Note_off_c, 11, 60, 56
12, 8100, Note_on_c, 11, 60, 113
12, 8145, Note_off_c, 11, 60, 56
12, 8160, Note_on_c, 11, 60, 113
12, 8205, Note_off_c, 11, 60, 56
12, 8220, Note_on_c, 11, 60, 113
12, 8265, Note_off_c, 11, 60, 56
12, 8280, Note_on_c, 11, 60, 113
12, 8325, Note_off_c, 11, 60, 56
12, 8340, Note_on_c, 11, 60, 113
12, 8385, Note_off_c, 11, 60, 56
12, 8400, Note_on_c, 11, 60, 113
12, 8445, Note_off_c, 11, 60, 56
12, 8460, Note_on_c, 11, 60, 113
12, 8505, Note_off_c, 11, 60, 56
12, 8520, Note_on_c, 11, 60, 113
12, 8565, Note_off_c, 11, 60, 56
12, 8580, Note_on_c, 11, 60, 113
12, 8625, Note_off_c, 11, 60, 56
12, 8640, Note_on_c, 11, 60, 113
12, 8685, Note_off_c, 11, 60, 56
12, 8700, Note_on_c, 11, 60, 113
12, 8745, Note_off_c, 11, 60, 56
12, 8760, Note_on_c, 11, 60, 113
12, 8805, Note_off_c, 11, 60, 56
12, 8820, Note_on_c, 11, 60, 113
12, 8865, Note_off_c, 11, 60, 56
12, 8880, Note_on_c, 11, 60, 113
12, 8925, Note_off_c, 11, 60, 56
12, 8940, Note_on_c, 11, 60, 113
12, 8985, Note_off_c, 11, 60, 56
12, 9000, Note_on_c, 11, 60, 113
12, 9045, Note_off_c, 11, 60, 56
12, 9060, Note_on_c, 11, 60, 113
12, 9105, Note_off_c, 11, 60, 56
12, 9120, Note_on_c, 11, 60, 113
12, 9165, Note_off_c, 11, 60, 56
12, 9180, Note_on_c, 11, 60, 113
12, 9225, Note_off_c, 11, 60, 56
12, 9240, Note_on_c, 11, 60, 113
12, 9285, Note_off_c, 11, 60, 56
12, 9300, Note_on_c, 11, 60, 113
12, 9345, Note_off_c, 11, 60, 56
12, 9360, Note_on_c, 11, 60, 113
12, 9405, Note_off_c, 11, 60, 56
12, 9420, Note_on_c, 11, 60, 113
12, 9465, Note_off_c, 11, 60, 56
12, 9480, Note_on_c, 11, 60, 113
12, 9525, Note_off_c, 11, 60, 56
12, 9540, Note_on_c, 11, 60, 113
12, 9585, Note_off_c, 11, 60, 56
12, 9600, Note_on_c, 11, 60, 113
12, 9645, Note_off_c, 11, 60, 56
12, 9660, Note_on_c, 11, 60, 113
12, 9705, Note_off_c, 11, 60, 56
12, 9720, Note_on_c, 11, 60, 113
12, 9765, Note_off_c, 11, 60, 56
12, 9780, Note_on_c, 11, 60, 113
12, 9825, Note_off_c, 11, 60, 56
12, 9840, Note_on_c, 11, 60, 113
12, 9885, Note_off_c, 11, 60, 56
12, 9900, Note_on_c, 11, 60, 113
12, 9945, Note_off_c, 11, 60, 56
12, 9960, Note_on_c, 11, 60, 113
12, 10005, Note_off_c, 11, 60, 56
12, 10020, Note_on_c, 11, 60, 113
12, 10065, Note_off_c, 11, 60, 56
12, 10080, Note_on_c, 11, 60, 113
12, 10125, Note_off_c, 11, 60, 56
12, 10140, Note_on_c, 11, 60, 113
12, 10185, Note_off_c, 11, 60, 56
12, 10200, Note_on_c, 11, 60, 113
12, 10245, Note_off_c, 11, 60, 56
12, 10260, Note_on_c, 11, 60, 113
12, 10305, Note_off_c, 11, 60, 56
12, 10320, Note_on_c, 11, 60, 113
12, 10365, Note_off_c, 11, 60, 56
12, 10380, Note_on_c, 11, 60, 113
12, 10425, Note_off_c, 11, 60, 56
12, 10440, Note_on_c, 11, 60, 113
12, 10485, Note_off_c, 11, 60, 56
12, 10500, Note_on_c, 11, 60, 113
12, 10545, Note_off_c, 11, 60, 56
12, 10560, Note_on_c, 11, 60, 113
12, 10605, Note_off_c, 11, 60, 56
12, 10620, Note_on_c, 11, 60, 113
12, 10665, Note_off_c, 11, 60, 56
12, 10680, Note_on_c, 11, 60, 113
12, 10725, Note_off_c, 11, 60, 56
12, 10740, Note_on_c, 11, 60, 113
12, 10785, Note_off_c, 11, 60, 56
12, 10800, Note_on_c, 11, 60, 113
12, 10845, Note_off_c, 11, 60, 56
12, 10860, Note_on_c, 11, 60, 113
12, 10905, Note_off_c, 11, 60, 56
12, 10920, Note_on_c, 11, 60, 113
12, 10965, Note_off_c, 11, 60, 56
12, 10980, Note_on_c, 11, 60, 113
12, 11025, Note_off_c, 11, 60, 56
12, 11040, Note_on_c, 11, 60, 113
12, 11085, Note_off_c, 11, 60, 56
12, 11100, Note_on_c, 11, 60, 113
12, 11145, Note_off_c, 11, 60, 56
12, 11160, Note_on_c, 11, 60, 113
12, 11205, Note_off_c, 11, 60, 56
12, 11220, Note_on_c, 11, 60, 113
12, 11265, Note_off_c, 11, 60, 56
12, 11280, Note_on_c, 11, 60, 113
12, 11325, Note_off_c, 11, 60, 56
12, 11340, Note_on_c, 11, 60, 113
12, 11385, Note_off_c, 11, 60, 56
12, 11400, Note_on_c, 11, 60, 113
12, 11445, Note_off_c, 11, 60, 56
12, 11460, Note_on_c, 11, 60, 113
12, 11505, Note_off_c, 11, 60, 56
12, 11520, Note_on_c, 11, 65, 108
12, 11520, Control_c, 11, 0, 0
12, 11520, Control_c, 11, 7, 100
12, 11520, Control_c, 11, 32, 8
12, 11520, Program_c, 11, 50
12, 11521, Note_on_c, 11, 55, 108
12, 11702, Note_off_c, 11, 65, 64
12, 11703, Note_off_c, 11, 55, 64
12, 11758, Note_on_c, 11, 65, 108
12, 11761, Note_on_c, 11, 55, 108
12, 11894, Note_off_c, 11, 65, 64
12, 11897, Note_off_c, 11, 55, 64
12, 11940, Note_on_c, 11, 55, 113
12, 11940, Note_on_c, 11, 65, 113
12, 11985, Note_off_c, 11, 65, 56
12, 11985, Note_off_c, 11, 55, 56
12, 11999, Note_on_c, 11, 55, 108
12, 12000, Note_on_c, 11, 64, 108
12, 12181, Note_off_c, 11, 55, 64
12, 12182, Note_off_c, 11, 64, 64
12, 12238, Note_on_c, 11, 64, 108
12, 12240, Note_on_c, 11, 55, 108
12, 12374, Note_off_c, 11, 64, 64
12, 12376, Note_off_c, 11, 55, 64
12, 12420, Note_on_c, 11, 55, 113
12, 12420, Note_on_c, 11, 64, 113
12, 12465, Note_off_c, 11, 64, 56
12, 12465, Note_off_c, 11, 55, 56
12, 12477, Note_on_c, 11, 55, 108
12, 12479, Note_on_c, 11, 62, 108
12, 12659, Note_off_c, 11, 55, 64
12, 12661, Note_off_c, 11, 62, 64
12, 12721, Note_on_c, 11, 62, 108
12, 12723, Note_on_c, 11, 55, 108
12, 13105, Note_off_c, 11, 62, 64
12, 13107, Note_off_c, 11, 55, 64
12, 13198, Note_on_c, 11, 64, 108
12, 13202, Note_on_c, 11, 55, 108
12, 13334, Note_off_c, 11, 64, 64
12, 13338, Note_off_c, 11, 55, 64
12, 13380, Note_on_c, 11, 55, 113
12, 13380, Note_on_c, 11, 64, 113
12, 13425, Note_off_c, 11, 64, 56
12, 13425, Note_off_c, 11, 55, 56
12, 13437, Note_on_c, 11, 65, 108
12, 13440, Note_on_c, 11, 55, 108
12, 13619, Note_off_c, 11, 65, 64
12, 13622, Note_off_c, 11, 55, 64
12, 13681, Note_on_c, 11, 65, 108
12, 13682, Note_on_c, 11, 55, 108
12, 13817, Note_off_c, 11, 65, 64
12, 13818, Note_off_c, 11, 55, 64
12, 13860, Note_on_c, 11, 55, 113
12, 13860, Note_on_c, 11, 65, 113
12, 13905, Note_off_c, 11, 65, 56
12, 13905, Note_off_c, 11, 55, 56
12, 13919, Note_on_c, 11, 64, 108
12, 13919, Note_on_c, 11, 55, 108
12, 14101, Note_off_c, 11, 55, 64
12, 14101, Note_off_c, 11, 64, 64
12, 14159, Note_on_c, 11, 64, 108
12, 14159, Note_on_c, 11, 55, 108
12, 14295, Note_off_c, 11, 55, 64
12, 14295, Note_off_c, 11, 64, 64
12, 14340, Note_on_c, 11, 55, 113
12, 14340, Note_on_c, 11, 64, 113
12, 14385, Note_off_c, 11, 64, 56
12, 14385, Note_off_c, 11, 55, 56
12, 14398, Note_on_c, 11, 62, 108
12, 14401, Note_on_c, 11, 55, 108
12, 14580, Note_off_c, 11, 62, 64
12, 14583, Note_off_c, 11, 55, 64
12, 14638, Note_on_c, 11, 62, 108
12, 14643, Note_on_c, 11, 55, 108
12, 15022, Note_off_c, 11, 62, 64
12, 15027, Note_off_c, 11, 55, 64
12, 15118, Note_on_c, 11, 55, 108
12, 15121, Note_on_c, 11, 64, 108
12, 15254, Note_off_c, 11, 55, 64
12, 15257, Note_off_c, 11, 64, 64
12, 15300, Note_on_c, 11, 55, 113
12, 15300, Note_on_c, 11, 64, 113
12, 15345, Note_off_c, 11, 64, 56
12, 15345, Note_off_c, 11, 55, 56
12, 15360, Note_on_c, 11, 55, 108
12, 15360, Note_on_c, 11, 65, 108
12, 15496, Note_off_c, 11, 65, 64
12, 15496, Note_off_c, 11, 55, 64
12, 15540, Note_on_c, 11, 65, 113
12, 15540, Note_on_c, 11, 55, 113
12, 15585, Note_off_c, 11, 55, 56
12, 15585, Note_off_c, 11, 65, 56
12, 15598, Note_on_c, 11, 65, 108
12, 15602, Note_on_c, 11, 55, 108
12, 15734, Note_off_c, 11, 65, 64
12, 15738, Note_off_c, 11, 55, 64
12, 15780, Note_on_c, 11, 55, 113
12, 15780, Note_on_c, 11, 65, 113
12, 15825, Note_off_c, 11, 65, 56
12, 15825, Note_off_c, 11, 55, 56
12, 15839, Note_on_c, 11, 55, 108
12, 15841, Note_on_c, 11, 64, 108
12, 15975, Note_off_c, 11, 55, 64
12, 15977, Note_off_c, 11, 64, 64
12, 16020, Note_on_c, 11, 55, 113
12, 16020, Note_on_c, 11, 64, 113
12, 16065, Note_off_c, 11, 64, 56
12, 16065, Note_off_c, 11, 55, 56
12, 16079, Note_on_c, 11, 55, 108
12, 16080, Note_on_c, 11, 64, 108
12, 16215, Note_off_c, 11, 55, 64
12, 16216, Note_off_c, 11, 64, 64
12, 16260, Note_on_c, 11, 55, 113
12, 16260, Note_on_c, 11, 64, 113
12, 16305, Note_off_c, 11, 64, 56
12, 16305, Note_off_c, 11, 55, 56
12, 16320, Note_on_c, 11, 55, 113
12, 16320, Control_c, 11, 7, 120
12, 16320, Program_c, 11, 44
12, 16365, Note_off_c, 11, 55, 56
12, 16380, Note_on_c, 11, 55, 113
12, 16425, Note_off_c, 11, 55, 56
12, 16440, Note_on_c, 11, 55, 113
12, 16485, Note_off_c, 11, 55, 56
12, 16500, Note_on_c, 11, 55, 113
12, 16545, Note_off_c, 11, 55, 56
12, 16560, Note_on_c, 11, 55, 113
12, 16605, Note_off_c, 11, 55, 56
12, 16620, Note_on_c, 11, 55, 113
12, 16665, Note_off_c, 11, 55, 56
12, 16680, Note_on_c, 11, 55, 113
12, 16725, Note_off_c, 11, 55, 56
12, 16740, Note_on_c, 11, 55, 113
12, 16785, Note_off_c, 11, 55, 56
12, 16800, Note_on_c, 11, 55, 113
12, 16845, Note_off_c, 11, 55, 56
12, 16860, Note_on_c, 11, 55, 113
12, 16905, Note_off_c, 11, 55, 56
12, 16920, Note_on_c, 11, 55, 113
12, 16965, Note_off_c, 11, 55, 56
12, 16980, Note_on_c, 11, 55, 113
12, 17025, Note_off_c, 11, 55, 56
12, 17040, Note_on_c, 11, 55, 113
12, 17085, Note_off_c, 11, 55, 56
12, 17100, Note_on_c, 11, 55, 113
12, 17145, Note_off_c, 11, 55, 56
12, 17160, Note_on_c, 11, 55, 113
12, 17205, Note_off_c, 11, 55, 56
12, 17220, Note_on_c, 11, 55, 113
12, 17265, Note_off_c, 11, 55, 56
12, 17280, Note_on_c, 11, 55, 113
12, 17325, Note_off_c, 11, 55, 56
12, 17340, Note_on_c, 11, 55, 113
12, 17385, Note_off_c, 11, 55, 56
12, 17400, Note_on_c, 11, 55, 113
12, 17445, Note_off_c, 11, 55, 56
12, 17460, Note_on_c, 11, 55, 113
12, 17505, Note_off_c, 11, 55, 56
12, 17520, Note_on_c, 11, 55, 113
12, 17565, Note_off_c, 11, 55, 56
12, 17580, Note_on_c, 11, 55, 113
12, 17625, Note_off_c, 11, 55, 56
12, 17640, Note_on_c, 11, 55, 113
12, 17685, Note_off_c, 11, 55, 56
12, 17700, Note_on_c, 11, 55, 113
12, 17745, Note_off_c, 11, 55, 56
12, 17760, Note_on_c, 11, 55, 113
12, 17805, Note_off_c, 11, 55, 56
12, 17820, Note_on_c, 11, 55, 113
12, 17865, Note_off_c, 11, 55, 56
12, 17880, Note_on_c, 11, 55, 113
12, 17925, Note_off_c, 11, 55, 56
12, 17940, Note_on_c, 11, 55, 113
12, 17985, Note_off_c, 11, 55, 56
12, 18000, Note_on_c, 11, 55, 113
12, 18045, Note_off_c, 11, 55, 56
12, 18060, Note_on_c, 11, 55, 113
12, 18105, Note_off_c, 11, 55, 56
12, 18120, Note_on_c, 11, 55, 113
12, 18165, Note_off_c, 11, 55, 56
12, 18180, Note_on_c, 11, 55, 113
12, 18225, Note_off_c, 11, 55, 56
12, 18240, Note_on_c, 11, 55, 113
12, 18285, Note_off_c, 11, 55, 56
12, 18300, Note_on_c, 11, 55, 113
12, 18345, Note_off_c, 11, 55, 56
12, 18360, Note_on_c, 11, 55, 113
12, 18405, Note_off_c, 11, 55, 56
12, 18420, Note_on_c, 11, 55, 113
12, 18465, Note_off_c, 11, 55, 56
12, 18480, Note_on_c, 11, 55, 113
12, 18525, Note_off_c, 11, 55, 56
12, 18540, Note_on_c, 11, 55, 113
12, 18585, Note_off_c, 11, 55, 56
12, 18600, Note_on_c, 11, 55, 113
12, 18645, Note_off_c, 11, 55, 56
12, 18660, Note_on_c, 11, 55, 113
12, 18705, Note_off_c, 11, 55, 56
12, 18720, Note_on_c, 11, 55, 113
12, 18765, Note_off_c, 11, 55, 56
12, 18780, Note_on_c, 11, 55, 113
12, 18825, Note_off_c, 11, 55, 56
12, 18840, Note_on_c, 11, 55, 113
12, 18885, Note_off_c, 11, 55, 56
12, 18900, Note_on_c, 11, 55, 113
12, 18945, Note_off_c, 11, 55, 56
12, 18960, Note_on_c, 11, 55, 113
12, 19005, Note_off_c, 11, 55, 56
12, 19020, Note_on_c, 11, 55, 113
12, 19065, Note_off_c, 11, 55, 56
12, 19080, Note_on_c, 11, 55, 113
12, 19125, Note_off_c, 11, 55, 56
12, 19140, Note_on_c, 11, 55, 113
12, 19185, Note_off_c, 11, 55, 56
12, 19200, Note_on_c, 11, 55, 113
12, 19245, Note_off_c, 11, 55, 56
12, 19260, Note_on_c, 11, 55, 113
12, 19305, Note_off_c, 11, 55, 56
12, 19320, Note_on_c, 11, 55, 113
12, 19365, Note_off_c, 11, 55, 56
12, 19380, Note_on_c, 11, 55, 113
12, 19425, Note_off_c, 11, 55, 56
12, 19440, Note_on_c, 11, 55, 113
12, 19485, Note_off_c, 11, 55, 56
12, 19500, Note_on_c, 11, 55, 113
12, 19545, Note_off_c, 11, 55, 56
12, 19560, Note_on_c, 11, 55, 113
12, 19605, Note_off_c, 11, 55, 56
12, 19620, Note_on_c, 11, 55, 113
12, 19665, Note_off_c, 11, 55, 56
12, 19680, Note_on_c, 11, 55, 113
12, 19725, Note_off_c, 11, 55, 56
12, 19740, Note_on_c, 11, 55, 113
12, 19785, Note_off_c, 11, 55, 56
12, 19800, Note_on_c, 11, 55, 113
12, 19845, Note_off_c, 11, 55, 56
12, 19860, Note_on_c, 11, 55, 113
12, 19905, Note_off_c, 11, 55, 56
12, 19920, Note_on_c, 11, 55, 113
12, 19965, Note_off_c, 11, 55, 56
12, 19980, Note_on_c, 11, 55, 113
12, 20025, Note_off_c, 11, 55, 56
12, 20040, Note_on_c, 11, 55, 113
12, 20085, Note_off_c, 11, 55, 56
12, 20100, Note_on_c, 11, 55, 113
12, 20145, Note_off_c, 11, 55, 56
12, 20160, Note_on_c, 11, 55, 108
12, 20160, Control_c, 11, 0, 0
12, 20160, Control_c, 11, 7, 100
12, 20160, Control_c, 11, 32, 8
12, 20160, Program_c, 11, 50
12, 20228, Note_off_c, 11, 55, 56
12, 20279, Note_on_c, 11, 79, 108
12, 20387, Note_off_c, 11, 79, 56
12, 20401, Note_on_c, 11, 77, 108
12, 20492, Note_off_c, 11, 77, 56
12, 20519, Note_on_c, 11, 76, 108
12, 20587, Note_off_c, 11, 76, 56
12, 20641, Note_on_c, 11, 74, 108
12, 20709, Note_off_c, 11, 74, 56
12, 20760, Note_on_c, 11, 76, 108
12, 20868, Note_off_c, 11, 76, 56
12, 20880, Note_on_c, 11, 74, 108
12, 20971, Note_off_c, 11, 74, 56
12, 21000, Note_on_c, 11, 72, 108
12, 21068, Note_off_c, 11, 72, 56
12, 21119, Note_on_c, 11, 71, 108
12, 21187, Note_off_c, 11, 71, 56
12, 21238, Note_on_c, 11, 76, 108
12, 21346, Note_off_c, 11, 76, 56
12, 21359, Note_on_c, 11, 74, 108
12, 21450, Note_off_c, 11, 74, 56
12, 21479, Note_on_c, 11, 72, 108
12, 21547, Note_off_c, 11, 72, 56
12, 21601, Note_on_c, 11, 71, 108
12, 21669, Note_off_c, 11, 71, 56
12, 21718, Note_on_c, 11, 72, 108
12, 21826, Note_off_c, 11, 72, 56
12, 21841, Note_on_c, 11, 71, 108
12, 21932, Note_off_c, 11, 71, 56
12, 21959, Note_on_c, 11, 69, 108
12, 22027, Note_off_c, 11, 69, 56
12, 22080, Note_on_c, 11, 67, 108
12, 22148, Note_off_c, 11, 67, 56
12, 22199, Note_on_c, 11, 72, 108
12, 22307, Note_off_c, 11, 72, 56
12, 22320, Note_on_c, 11, 71, 108
12, 22411, Note_off_c, 11, 71, 56
12, 22441, Note_on_c, 11, 69, 108
12, 22509, Note_off_c, 11, 69, 56
12, 22560, Note_on_c, 11, 67, 108
12, 22628, Note_off_c, 11, 67, 56
12, 22678, Note_on_c, 11, 72, 108
12, 22786, Note_off_c, 11, 72, 56
12, 22799, Note_on_c, 11, 71, 108
12, 22890, Note_off_c, 11, 71, 56
12, 22920, Note_on_c, 11, 69, 108
12, 22988, Note_off_c, 11, 69, 56
12, 23040, Note_on_c, 11, 67, 108
12, 23108, Note_off_c, 11, 67, 56
12, 23160, Note_on_c, 11, 72, 108
12, 23268, Note_off_c, 11, 72, 56
12, 23281, Note_on_c, 11, 71, 108
12, 23372, Note_off_c, 11, 71, 56
12, 23401, Note_on_c, 11, 69, 108
12, 23492, Note_off_c, 11, 69, 56
12, 23521, Note_on_c, 11, 67, 108
12, 23589, Note_off_c, 11, 67, 56
12, 23639, Note_on_c, 11, 65, 108
12, 23707, Note_off_c, 11, 65, 56
12, 23759, Note_on_c, 11, 64, 108
12, 23827, Note_off_c, 11, 64, 56
12, 23879, Note_on_c, 11, 62, 108
12, 23947, Note_off_c, 11, 62, 56
12, 24000, Note_on_c, 11, 60, 113
12, 24008, Program_c, 11, 44
12, 24008, Control_c, 11, 7, 120
12, 24045, Note_off_c, 11, 60, 56
12, 24060, Note_on_c, 11, 60, 113
12, 24105, Note_off_c, 11, 60, 56
12, 24120, Note_on_c, 11, 60, 113
12, 24165, Note_off_c, 11, 60, 56
12, 24180, Note_on_c, 11, 60, 113
12, 24225, Note_off_c, 11, 60, 56
12, 24240, Note_on_c, 11, 60, 113
12, 24285, Note_off_c, 11, 60, 56
12, 24300, Note_on_c, 11, 60, 113
12, 24345, Note_off_c, 11, 60, 56
12, 24360, Note_on_c, 11, 60, 113
12, 24405, Note_off_c, 11, 60, 56
12, 24420, Note_on_c, 11, 60, 113
12, 24465, Note_off_c, 11, 60, 56
12, 24480, Note_on_c, 11, 60, 113
12, 24525, Note_off_c, 11, 60, 56
12, 24540, Note_on_c, 11, 60, 113
12, 24585, Note_off_c, 11, 60, 56
12, 24600, Note_on_c, 11, 60, 113
12, 24645, Note_off_c, 11, 60, 56
12, 24660, Note_on_c, 11, 60, 113
12, 24705, Note_off_c, 11, 60, 56
12, 24720, Note_on_c, 11, 60, 113
12, 24765, Note_off_c, 11, 60, 56
12, 24780, Note_on_c, 11, 60, 113
12, 24825, Note_off_c, 11, 60, 56
12, 24840, Note_on_c, 11, 60, 113
12, 24885, Note_off_c, 11, 60, 56
12, 24900, Note_on_c, 11, 60, 113
12, 24945, Note_off_c, 11, 60, 56
12, 24960, Note_on_c, 11, 60, 113
12, 25005, Note_off_c, 11, 60, 56
12, 25020, Note_on_c, 11, 60, 113
12, 25065, Note_off_c, 11, 60, 56
12, 25080, Note_on_c, 11, 60, 113
12, 25125, Note_off_c, 11, 60, 56
12, 25140, Note_on_c, 11, 60, 113
12, 25185, Note_off_c, 11, 60, 56
12, 25200, Note_on_c, 11, 60, 113
12, 25245, Note_off_c, 11, 60, 56
12, 25260, Note_on_c, 11, 60, 113
12, 25305, Note_off_c, 11, 60, 56
12, 25320, Note_on_c, 11, 60, 113
12, 25365, Note_off_c, 11, 60, 56
12, 25380, Note_on_c, 11, 60, 113
12, 25425, Note_off_c, 11, 60, 56
12, 25440, Note_on_c, 11, 60, 113
12, 25485, Note_off_c, 11, 60, 56
12, 25500, Note_on_c, 11, 60, 113
12, 25545, Note_off_c, 11, 60, 56
12, 25560, Note_on_c, 11, 60, 113
12, 25605, Note_off_c, 11, 60, 56
12, 25620, Note_on_c, 11, 60, 113
12, 25665, Note_off_c, 11, 60, 56
12, 25680, Note_on_c, 11, 60, 113
12, 25725, Note_off_c, 11, 60, 56
12, 25740, Note_on_c, 11, 60, 113
12, 25785, Note_off_c, 11, 60, 56
12, 25800, Note_on_c, 11, 60, 113
12, 25845, Note_off_c, 11, 60, 56
12, 25860, Note_on_c, 11, 60, 113
12, 25905, Note_off_c, 11, 60, 56
12, 25920, Note_on_c, 11, 59, 113
12, 25965, Note_off_c, 11, 59, 56
12, 25980, Note_on_c, 11, 59, 113
12, 26025, Note_off_c, 11, 59, 56
12, 26040, Note_on_c, 11, 59, 113
12, 26085, Note_off_c, 11, 59, 56
12, 26100, Note_on_c, 11, 59, 113
12, 26145, Note_off_c, 11, 59, 56
12, 26160, Note_on_c, 11, 59, 113
12, 26205, Note_off_c, 11, 59, 56
12, 26220, Note_on_c, 11, 59, 113
12, 26265, Note_off_c, 11, 59, 56
12, 26280, Note_on_c, 11, 59, 113
12, 26325, Note_off_c, 11, 59, 56
12, 26340, Note_on_c, 11, 59, 113
12, 26385, Note_off_c, 11, 59, 56
12, 26400, Note_on_c, 11, 59, 113
12, 26445, Note_off_c, 11, 59, 56
12, 26460, Note_on_c, 11, 59, 113
12, 26505, Note_off_c, 11, 59, 56
12, 26520, Note_on_c, 11, 59, 113
12, 26565, Note_off_c, 11, 59, 56
12, 26580, Note_on_c, 11, 59, 113
12, 26625, Note_off_c, 11, 59, 56
12, 26640, Note_on_c, 11, 59, 113
12, 26685, Note_off_c, 11, 59, 56
12, 26700, Note_on_c, 11, 59, 113
12, 26745, Note_off_c, 11, 59, 56
12, 26760, Note_on_c, 11, 59, 113
12, 26805, Note_off_c, 11, 59, 56
12, 26820, Note_on_c, 11, 59, 113
12, 26865, Note_off_c, 11, 59, 56
12, 26880, Note_on_c, 11, 59, 113
12, 26925, Note_off_c, 11, 59, 56
12, 26940, Note_on_c, 11, 59, 113
12, 26985, Note_off_c, 11, 59, 56
12, 27000, Note_on_c, 11, 59, 113
12, 27045, Note_off_c, 11, 59, 56
12, 27060, Note_on_c, 11, 59, 113
12, 27105, Note_off_c, 11, 59, 56
12, 27120, Note_on_c, 11, 59, 113
12, 27165, Note_off_c, 11, 59, 56
12, 27180, Note_on_c, 11, 59, 113
12, 27225, Note_off_c, 11, 59, 56
12, 27240, Note_on_c, 11, 59, 113
12, 27285, Note_off_c, 11, 59, 56
12, 27300, Note_on_c, 11, 59, 113
12, 27345, Note_off_c, 11, 59, 56
12, 27360, Note_on_c, 11, 59, 113
12, 27405, Note_off_c, 11, 59, 56
12, 27420, Note_on_c, 11, 59, 113
12, 27465, Note_off_c, 11, 59, 56
12, 27480, Note_on_c, 11, 59, 113
12, 27525, Note_off_c, 11, 59, 56
12, 27540, Note_on_c, 11, 59, 113
12, 27585, Note_off_c, 11, 59, 56
12, 27600, Note_on_c, 11, 59, 113
12, 27645, Note_off_c, 11, 59, 56
12, 27660, Note_on_c, 11, 59, 113
12, 27705, Note_off_c, 11, 59, 56
12, 27720, Note_on_c, 11, 59, 113
12, 27765, Note_off_c, 11, 59, 56
12, 27780, Note_on_c, 11, 59, 113
12, 27825, Note_off_c, 11, 59, 56
12, 27840, Note_on_c, 11, 59, 113
12, 27885, Note_off_c, 11, 59, 56
12, 27900, Note_on_c, 11, 59, 113
12, 27945, Note_off_c, 11, 59, 56
12, 27960, Note_on_c, 11, 59, 113
12, 28005, Note_off_c, 11, 59, 56
12, 28020, Note_on_c, 11, 59, 113
12, 28065, Note_off_c, 11, 59, 56
12, 28080, Note_on_c, 11, 59, 113
12, 28125, Note_off_c, 11, 59, 56
12, 28140, Note_on_c, 11, 59, 113
12, 28185, Note_off_c, 11, 59, 56
12, 28200, Note_on_c, 11, 59, 113
12, 28245, Note_off_c, 11, 59, 56
12, 28260, Note_on_c, 11, 59, 113
12, 28305, Note_off_c, 11, 59, 56
12, 28320, Note_on_c, 11, 59, 113
12, 28365, Note_off_c, 11, 59, 56
12, 28380, Note_on_c, 11, 59, 113
12, 28425, Note_off_c, 11, 59, 56
12, 28440, Note_on_c, 11, 59, 113
12, 28485, Note_off_c, 11, 59, 56
12, 28500, Note_on_c, 11, 59, 113
12, 28545, Note_off_c, 11, 59, 56
12, 28560, Note_on_c, 11, 59, 113
12, 28605, Note_off_c, 11, 59, 56
12, 28620, Note_on_c, 11, 59, 113
12, 28665, Note_off_c, 11, 59, 56
12, 28680, Note_on_c, 11, 59, 113
12, 28725, Note_off_c, 11, 59, 56
12, 28740, Note_on_c, 11, 59, 113
12, 28785, Note_off_c, 11, 59, 56
12, 28800, Note_on_c, 11, 59, 113
12, 28845, Note_off_c, 11, 59, 56
12, 28860, Note_on_c, 11, 59, 113
12, 28905, Note_off_c, 11, 59, 56
12, 28920, Note_on_c, 11, 59, 113
12, 28965, Note_off_c, 11, 59, 56
12, 28980, Note_on_c, 11, 59, 113
12, 29025, Note_off_c, 11, 59, 56
12, 29040, Note_on_c, 11, 59, 113
12, 29085, Note_off_c, 11, 59, 56
12, 29100, Note_on_c, 11, 59, 113
12, 29145, Note_off_c, 11, 59, 56
12, 29160, Note_on_c, 11, 59, 113
12, 29205, Note_off_c, 11, 59, 56
12, 29220, Note_on_c, 11, 59, 113
12, 29265, Note_off_c, 11, 59, 56
12, 29280, Note_on_c, 11, 59, 113
12, 29325, Note_off_c, 11, 59, 56
12, 29340, Note_on_c, 11, 59, 113
12, 29385, Note_off_c, 11, 59, 56
12, 29400, Note_on_c, 11, 59, 113
12, 29445, Note_off_c, 11, 59, 56
12, 29460, Note_on_c, 11, 59, 113
12, 29505, Note_off_c, 11, 59, 56
12, 29520, Note_on_c, 11, 59, 113
12, 29565, Note_off_c, 11, 59, 56
12, 29580, Note_on_c, 11, 59, 113
12, 29625, Note_off_c, 11, 59, 56
12, 29640, Note_on_c, 11, 59, 113
12, 29685, Note_off_c, 11, 59, 56
12, 29700, Note_on_c, 11, 59, 113
12, 29745, Note_off_c, 11, 59, 56
12, 29760, Note_on_c, 11, 60, 113
12, 29805, Note_off_c, 11, 60, 56
12, 29820, Note_on_c, 11, 60, 113
12, 29865, Note_off_c, 11, 60, 56
12, 29880, Note_on_c, 11, 60, 113
12, 29925, Note_off_c, 11, 60, 56
12, 29940, Note_on_c, 11, 60, 113
12, 29985, Note_off_c, 11, 60, 56
12, 30000, Note_on_c, 11, 60, 113
12, 30045, Note_off_c, 11, 60, 56
12, 30060, Note_on_c, 11, 60, 113
12, 30105, Note_off_c, 11, 60, 56
12, 30120, Note_on_c, 11, 60, 113
12, 30165, Note_off_c, 11, 60, 56
12, 30180, Note_on_c, 11, 60, 113
12, 30225, Note_off_c, 11, 60, 56
12, 30240, Note_on_c, 11, 60, 113
12, 30285, Note_off_c, 11, 60, 56
12, 30300, Note_on_c, 11, 60, 113
12, 30345, Note_off_c, 11, 60, 56
12, 30360, Note_on_c, 11, 60, 113
12, 30405, Note_off_c, 11, 60, 56
12, 30420, Note_on_c, 11, 60, 113
12, 30465, Note_off_c, 11, 60, 56
12, 30480, Note_on_c, 11, 60, 113
12, 30525, Note_off_c, 11, 60, 56
12, 30540, Note_on_c, 11, 60, 113
12, 30585, Note_off_c, 11, 60, 56
12, 30600, Note_on_c, 11, 60, 113
12, 30645, Note_off_c, 11, 60, 56
12, 30660, Note_on_c, 11, 60, 113
12, 30705, Note_off_c, 11, 60, 56
12, 30720, Note_on_c, 11, 60, 113
12, 30765, Note_off_c, 11, 60, 56
12, 30780, Note_on_c, 11, 60, 113
12, 30825, Note_off_c, 11, 60, 56
12, 30840, Note_on_c, 11, 60, 113
12, 30885, Note_off_c, 11, 60, 56
12, 30900, Note_on_c, 11, 60, 113
12, 30945, Note_off_c, 11, 60, 56
12, 30960, Note_on_c, 11, 60, 113
12, 31005, Note_off_c, 11, 60, 56
12, 31020, Note_on_c, 11, 60, 113
12, 31065, Note_off_c, 11, 60, 56
12, 31080, Note_on_c, 11, 60, 113
12, 31125, Note_off_c, 11, 60, 56
12, 31140, Note_on_c, 11, 60, 113
12, 31185, Note_off_c, 11, 60, 56
12, 31200, Note_on_c, 11, 60, 113
12, 31245, Note_off_c, 11, 60, 56
12, 31260, Note_on_c, 11, 60, 113
12, 31305, Note_off_c, 11, 60, 56
12, 31320, Note_on_c, 11, 60, 113
12, 31365, Note_off_c, 11, 60, 56
12, 31380, Note_on_c, 11, 60, 113
12, 31425, Note_off_c, 11, 60, 56
12, 31440, Note_on_c, 11, 60, 113
12, 31485, Note_off_c, 11, 60, 56
12, 31500, Note_on_c, 11, 60, 113
12, 31545, Note_off_c, 11, 60, 56
12, 31560, Note_on_c, 11, 60, 113
12, 31605, Note_off_c, 11, 60, 56
12, 31620, Note_on_c, 11, 60, 113
12, 31665, Note_off_c, 11, 60, 56
12, 31679, Note_on_c, 11, 64, 108
12, 31679, Note_on_c, 11, 55, 108
12, 31680, Control_c, 11, 7, 100
12, 31683, Note_on_c, 11, 72, 108
12, 31692, Control_c, 11, 0, 0
12, 31692, Control_c, 11, 32, 8
12, 31692, Program_c, 11, 50
12, 31861, Note_off_c, 11, 55, 64
12, 31861, Note_off_c, 11, 64, 64
12, 31865, Note_off_c, 11, 72, 64
12, 32400, Note_on_c, 11, 60, 108
12, 32616, Note_off_c, 11, 60, 64
12, 32639, Note_on_c, 11, 64, 108
12, 32855, Note_off_c, 11, 64, 64
12, 32879, Note_on_c, 11, 60, 108
12, 33095, Note_off_c, 11, 60, 64
12, 33122, Note_on_c, 11, 67, 108
12, 33338, Note_off_c, 11, 67, 64
12, 33362, Note_on_c, 11, 66, 108
12, 33524, Note_off_c, 11, 66, 64
12, 33540, Note_on_c, 11, 64, 113
12, 33585, Note_off_c, 11, 64, 56
12, 33598, Note_on_c, 11, 66, 108
12, 34174, Note_off_c, 11, 66, 64
12, 34322, Note_on_c, 11, 60, 108
12, 34538, Note_off_c, 11, 60, 64
12, 34562, Note_on_c, 11, 66, 108
12, 34778, Note_off_c, 11, 66, 64
12, 34801, Note_on_c, 11, 60, 108
12, 35017, Note_off_c, 11, 60, 64
12, 35038, Note_on_c, 11, 69, 108
12, 35254, Note_off_c, 11, 69, 64
12, 35279, Note_on_c, 11, 67, 108
12, 35441, Note_off_c, 11, 67, 64
12, 35460, Note_on_c, 11, 66, 113
12, 35505, Note_off_c, 11, 66, 56
12, 35520, Note_on_c, 11, 67, 108
12, 35736, Note_off_c, 11, 67, 64
12, 35759, Note_on_c, 11, 62, 108
12, 35975, Note_off_c, 11, 62, 64
12, 36003, Note_on_c, 11, 71, 108
12, 36219, Note_off_c, 11, 71, 64
12, 36237, Note_on_c, 11, 69, 108
12, 36399, Note_off_c, 11, 69, 64
12, 36420, Note_on_c, 11, 67, 113
12, 36474, Note_off_c, 11, 67, 56
12, 36482, Note_on_c, 11, 66, 108
12, 36770, Note_off_c, 11, 66, 64
12, 36840, Note_on_c, 11, 62, 108
12, 36931, Note_off_c, 11, 62, 56
12, 36959, Note_on_c, 11, 69, 108
12, 37301, Note_off_c, 11, 69, 64
12, 37321, Note_on_c, 11, 67, 113
12, 37375, Note_off_c, 11, 67, 56
12, 37380, Note_on_c, 11, 66, 113
12, 37434, Note_off_c, 11, 66, 56
12, 37437, Note_on_c, 11, 67, 108
12, 37725, Note_off_c, 11, 67, 64
12, 37800, Note_on_c, 11, 62, 108
12, 37891, Note_off_c, 11, 62, 56
12, 37922, Note_on_c, 11, 71, 108
12, 38264, Note_off_c, 11, 71, 64
12, 38281, Note_on_c, 11, 69, 113
12, 38335, Note_off_c, 11, 69, 56
12, 38340, Note_on_c, 11, 67, 113
12, 38385, Note_off_c, 11, 67, 56
12, 38397, Note_on_c, 11, 74, 108
12, 38401, Note_on_c, 11, 86, 108
12, 38973, Note_off_c, 11, 74, 64
12, 38977, Note_off_c, 11, 86, 64
12, 38999, Note_on_c, 11, 86, 108
12, 39107, Note_off_c, 11, 86, 56
12, 39120, Note_on_c, 11, 84, 108
12, 39211, Note_off_c, 11, 84, 56
12, 39240, Note_on_c, 11, 83, 108
12, 39308, Note_off_c, 11, 83, 56
12, 39359, Note_on_c, 11, 81, 108
12, 39427, Note_off_c, 11, 81, 56
12, 39479, Note_on_c, 11, 83, 108
12, 39587, Note_off_c, 11, 83, 56
12, 39600, Note_on_c, 11, 81, 108
12, 39691, Note_off_c, 11, 81, 56
12, 39719, Note_on_c, 11, 79, 108
12, 39787, Note_off_c, 11, 79, 56
12, 39840, Note_on_c, 11, 78, 108
12, 39908, Note_off_c, 11, 78, 56
12, 39960, Note_on_c, 11, 66, 108
12, 40068, Note_off_c, 11, 66, 56
12, 40081, Note_on_c, 11, 67, 108
12, 40189, Note_off_c, 11, 67, 56
12, 40199, Note_on_c, 11, 61, 108
12, 40267, Note_off_c, 11, 61, 56
12, 40321, Note_on_c, 11, 62, 108
12, 40412, Note_off_c, 11, 62, 56
12, 42000, Note_on_c, 11, 57, 113
12, 42060, Note_off_c, 11, 57, 56
12, 42080, Note_on_c, 11, 59, 108
12, 42152, Note_off_c, 11, 59, 56
12, 42161, Note_on_c, 11, 60, 108
12, 42233, Note_off_c, 11, 60, 56
12, 42239, Note_on_c, 11, 62, 113
12, 42299, Note_off_c, 11, 62, 56
12, 42321, Note_on_c, 11, 59, 113
12, 42381, Note_off_c, 11, 59, 56
12, 42399, Note_on_c, 11, 62, 113
12, 42459, Note_off_c, 11, 62, 56
12, 42481, Note_on_c, 11, 62, 113
12, 42541, Note_off_c, 11, 62, 56
12, 42561, Note_on_c, 11, 62, 113
12, 42621, Note_off_c, 11, 62, 56
12, 42640, Note_on_c, 11, 62, 113
12, 42700, Note_off_c, 11, 62, 56
12, 42721, Note_on_c, 11, 60, 113
12, 42781, Note_off_c, 11, 60, 56
12, 42801, Note_on_c, 11, 64, 113
12, 42861, Note_off_c, 11, 64, 56
12, 42880, Note_on_c, 11, 64, 113
12, 42940, Note_off_c, 11, 64, 56
12, 42961, Note_on_c, 11, 64, 113
12, 43021, Note_off_c, 11, 64, 56
12, 43039, Note_on_c, 11, 64, 113
12, 43099, Note_off_c, 11, 64, 56
12, 43121, Note_on_c, 11, 64, 113
12, 43181, Note_off_c, 11, 64, 56
12, 43199, Note_on_c, 11, 59, 113
12, 43259, Note_off_c, 11, 59, 56
12, 43280, Note_on_c, 11, 62, 113
12, 43340, Note_off_c, 11, 62, 56
12, 43361, Note_on_c, 11, 62, 113
12, 43421, Note_off_c, 11, 62, 56
12, 43441, Note_on_c, 11, 62, 113
12, 43501, Note_off_c, 11, 62, 56
12, 43520, Note_on_c, 11, 62, 113
12, 43580, Note_off_c, 11, 62, 56
12, 43599, Note_on_c, 11, 62, 113
12, 43659, Note_off_c, 11, 62, 56
12, 43681, Note_on_c, 11, 62, 108
12, 43863, Note_off_c, 11, 62, 64
12, 43920, Note_on_c, 11, 59, 73
12, 43992, Note_off_c, 11, 59, 56
12, 44001, Note_on_c, 11, 60, 73
12, 44073, Note_off_c, 11, 60, 56
12, 44080, Note_on_c, 11, 62, 73
12, 44152, Note_off_c, 11, 62, 56
12, 44158, Note_on_c, 11, 60, 73
12, 44374, Note_off_c, 11, 60, 64
12, 44399, Note_on_c, 11, 57, 73
12, 44471, Note_off_c, 11, 57, 56
12, 44481, Note_on_c, 11, 59, 73
12, 44553, Note_off_c, 11, 59, 56
12, 44561, Note_on_c, 11, 60, 73
12, 44633, Note_off_c, 11, 60, 56
12, 44638, Note_on_c, 11, 59, 73
12, 44854, Note_off_c, 11, 59, 64
12, 44880, Note_on_c, 11, 55, 73
12, 44952, Note_off_c, 11, 55, 56
12, 44959, Note_on_c, 11, 57, 73
12, 45031, Note_off_c, 11, 57, 56
12, 45039, Note_on_c, 11, 59, 73
12, 45111, Note_off_c, 11, 59, 56
12, 45121, Note_on_c, 11, 60, 73
12, 45303, Note_off_c, 11, 60, 64
12, 45359, Note_on_c, 11, 66, 80
12, 45431, Note_off_c, 11, 66, 56
12, 45440, Note_on_c, 11, 67, 82
12, 45512, Note_off_c, 11, 67, 56
12, 45519, Note_on_c, 11, 69, 90
12, 45579, Note_off_c, 11, 69, 56
12, 45603, Note_on_c, 11, 62, 87
12, 45785, Note_off_c, 11, 62, 64
12, 45840, Note_on_c, 11, 60, 95
12, 45900, Note_off_c, 11, 60, 56
12, 45920, Note_on_c, 11, 59, 95
12, 45980, Note_off_c, 11, 59, 56
12, 46000, Note_on_c, 11, 57, 95
12, 46060, Note_off_c, 11, 57, 56
12, 46079, Note_on_c, 11, 67, 95
12, 46139, Note_off_c, 11, 67, 56
12, 46160, Note_on_c, 11, 79, 95
12, 46220, Note_off_c, 11, 79, 56
12, 46241, Note_on_c, 11, 79, 95
12, 46301, Note_off_c, 11, 79, 56
12, 46321, Note_on_c, 11, 79, 95
12, 46381, Note_off_c, 11, 79, 56
12, 46400, Note_on_c, 11, 78, 95
12, 46460, Note_off_c, 11, 78, 56
12, 46481, Note_on_c, 11, 77, 95
12, 46541, Note_off_c, 11, 77, 56
12, 46561, Note_on_c, 11, 76, 95
12, 46621, Note_off_c, 11, 76, 56
12, 46640, Note_on_c, 11, 76, 95
12, 46700, Note_off_c, 11, 76, 56
12, 46721, Note_on_c, 11, 76, 95
12, 46781, Note_off_c, 11, 76, 56
12, 46800, Note_on_c, 11, 76, 95
12, 46860, Note_off_c, 11, 76, 56
12, 46879, Note_on_c, 11, 74, 95
12, 46939, Note_off_c, 11, 74, 56
12, 46960, Note_on_c, 11, 72, 95
12, 47020, Note_off_c, 11, 72, 56
12, 47041, Note_on_c, 11, 74, 95
12, 47101, Note_off_c, 11, 74, 56
12, 47121, Note_on_c, 11, 62, 95
12, 47181, Note_off_c, 11, 62, 56
12, 47200, Note_on_c, 11, 62, 95
12, 47260, Note_off_c, 11, 62, 56
12, 47280, Note_on_c, 11, 62, 95
12, 47340, Note_off_c, 11, 62, 56
12, 47359, Note_on_c, 11, 62, 95
12, 47419, Note_off_c, 11, 62, 56
12, 47441, Note_on_c, 11, 62, 95
12, 47501, Note_off_c, 11, 62, 56
12, 47521, Note_on_c, 11, 62, 90
12, 47703, Note_off_c, 11, 62, 64
12, 47759, Note_on_c, 11, 59, 73
12, 47831, Note_off_c, 11, 59, 56
12, 47841, Note_on_c, 11, 60, 73
12, 47913, Note_off_c, 11, 60, 56
12, 47921, Note_on_c, 11, 62, 73
12, 47993, Note_off_c, 11, 62, 56
12, 48001, Note_on_c, 11, 60, 73
12, 48217, Note_off_c, 11, 60, 64
12, 48240, Note_on_c, 11, 57, 73
12, 48312, Note_off_c, 11, 57, 56
12, 48320, Note_on_c, 11, 59, 73
12, 48392, Note_off_c, 11, 59, 56
12, 48401, Note_on_c, 11, 60, 73
12, 48473, Note_off_c, 11, 60, 56
12, 48482, Note_on_c, 11, 59, 73
12, 48698, Note_off_c, 11, 59, 64
12, 48721, Note_on_c, 11, 55, 73
12, 48793, Note_off_c, 11, 55, 56
12, 48799, Note_on_c, 11, 57, 73
12, 48871, Note_off_c, 11, 57, 56
12, 48879, Note_on_c, 11, 59, 73
12, 48951, Note_off_c, 11, 59, 56
12, 48959, Note_on_c, 11, 60, 73
12, 49141, Note_off_c, 11, 60, 64
12, 49199, Note_on_c, 11, 62, 95
12, 49259, Note_off_c, 11, 62, 56
12, 49279, Note_on_c, 11, 64, 95
12, 49339, Note_off_c, 11, 64, 56
12, 49360, Note_on_c, 11, 66, 95
12, 49420, Note_off_c, 11, 66, 56
12, 49443, Note_on_c, 11, 67, 90
12, 49625, Note_off_c, 11, 67, 64
12, 49681, Note_on_c, 11, 60, 73
12, 49753, Note_off_c, 11, 60, 56
12, 49761, Note_on_c, 11, 62, 73
12, 49833, Note_off_c, 11, 62, 56
12, 49841, Note_on_c, 11, 64, 73
12, 49913, Note_off_c, 11, 64, 56
12, 49923, Note_on_c, 11, 62, 73
12, 50139, Note_off_c, 11, 62, 64
12, 50159, Note_on_c, 11, 59, 73
12, 50231, Note_off_c, 11, 59, 56
12, 50239, Note_on_c, 11, 60, 73
12, 50311, Note_off_c, 11, 60, 56
12, 50321, Note_on_c, 11, 62, 73
12, 50393, Note_off_c, 11, 62, 56
12, 50401, Note_on_c, 11, 60, 73
12, 50617, Note_off_c, 11, 60, 64
12, 50639, Note_on_c, 11, 57, 73
12, 50711, Note_off_c, 11, 57, 56
12, 50719, Note_on_c, 11, 59, 73
12, 50791, Note_off_c, 11, 59, 56
12, 50800, Note_on_c, 11, 60, 73
12, 50872, Note_off_c, 11, 60, 56
12, 50880, Note_on_c, 11, 62, 73
12, 51062, Note_off_c, 11, 62, 64
12, 51120, Note_on_c, 11, 64, 95
12, 51180, Note_off_c, 11, 64, 56
12, 51201, Note_on_c, 11, 66, 95
12, 51261, Note_off_c, 11, 66, 56
12, 51280, Note_on_c, 11, 68, 95
12, 51340, Note_off_c, 11, 68, 56
12, 51358, Note_on_c, 11, 69, 90
12, 51540, Note_off_c, 11, 69, 64
12, 51601, Note_on_c, 11, 67, 56
12, 51673, Note_off_c, 11, 67, 56
12, 51680, Note_on_c, 11, 65, 56
12, 51752, Note_off_c, 11, 65, 56
12, 51761, Note_on_c, 11, 64, 56
12, 51833, Note_off_c, 11, 64, 56
12, 51838, Note_on_c, 11, 62, 56
12, 52054, Note_off_c, 11, 62, 64
12, 52080, Note_on_c, 11, 65, 56
12, 52152, Note_off_c, 11, 65, 56
12, 52160, Note_on_c, 11, 64, 56
12, 52232, Note_off_c, 11, 64, 56
12, 52241, Note_on_c, 11, 62, 56
12, 52313, Note_off_c, 11, 62, 56
12, 52323, Note_on_c, 11, 60, 56
12, 52539, Note_off_c, 11, 60, 64
12, 52560, Note_on_c, 11, 64, 56
12, 52632, Note_off_c, 11, 64, 56
12, 52641, Note_on_c, 11, 62, 56
12, 52713, Note_off_c, 11, 62, 56
12, 52721, Note_on_c, 11, 60, 56
12, 52793, Note_off_c, 11, 60, 56
12, 52800, Note_on_c, 11, 59, 61
12, 52816, Program_c, 11, 44
12, 52816, Control_c, 11, 7, 120
12, 52845, Note_off_c, 11, 59, 56
12, 52860, Note_on_c, 11, 71, 62
12, 52905, Note_off_c, 11, 71, 56
12, 52920, Note_on_c, 11, 71, 64
12, 52965, Note_off_c, 11, 71, 56
12, 52980, Note_on_c, 11, 71, 65
12, 53025, Note_off_c, 11, 71, 56
12, 53040, Note_on_c, 11, 71, 67
12, 53085, Note_off_c, 11, 71, 56
12, 53100, Note_on_c, 11, 71, 69
12, 53145, Note_off_c, 11, 71, 56
12, 53160, Note_on_c, 11, 71, 70
12, 53205, Note_off_c, 11, 71, 56
12, 53220, Note_on_c, 11, 71, 72
12, 53265, Note_off_c, 11, 71, 56
12, 53280, Note_on_c, 11, 71, 74
12, 53325, Note_off_c, 11, 71, 56
12, 53340, Note_on_c, 11, 71, 75
12, 53385, Note_off_c, 11, 71, 56
12, 53400, Note_on_c, 11, 71, 77
12, 53445, Note_off_c, 11, 71, 56
12, 53460, Note_on_c, 11, 71, 78
12, 53505, Note_off_c, 11, 71, 56
12, 53520, Note_on_c, 11, 71, 80
12, 53565, Note_off_c, 11, 71, 56
12, 53580, Note_on_c, 11, 71, 82
12, 53625, Note_off_c, 11, 71, 56
12, 53640, Note_on_c, 11, 71, 83
12, 53685, Note_off_c, 11, 71, 56
12, 53700, Note_on_c, 11, 71, 85
12, 53745, Note_off_c, 11, 71, 56
12, 53760, Note_on_c, 11, 71, 86
12, 53805, Note_off_c, 11, 71, 56
12, 53820, Note_on_c, 11, 71, 88
12, 53865, Note_off_c, 11, 71, 56
12, 53880, Note_on_c, 11, 71, 90
12, 53925, Note_off_c, 11, 71, 56
12, 53940, Note_on_c, 11, 71, 91
12, 53985, Note_off_c, 11, 71, 56
12, 54000, Note_on_c, 11, 71, 93
12, 54045, Note_off_c, 11, 71, 56
12, 54060, Note_on_c, 11, 71, 94
12, 54105, Note_off_c, 11, 71, 56
12, 54120, Note_on_c, 11, 71, 97
12, 54165, Note_off_c, 11, 71, 56
12, 54180, Note_on_c, 11, 71, 98
12, 54225, Note_off_c, 11, 71, 56
12, 54240, Note_on_c, 11, 71, 99
12, 54285, Note_off_c, 11, 71, 56
12, 54300, Note_on_c, 11, 71, 101
12, 54345, Note_off_c, 11, 71, 56
12, 54360, Note_on_c, 11, 71, 102
12, 54405, Note_off_c, 11, 71, 56
12, 54420, Note_on_c, 11, 71, 105
12, 54465, Note_off_c, 11, 71, 56
12, 54480, Note_on_c, 11, 71, 106
12, 54525, Note_off_c, 11, 71, 56
12, 54540, Note_on_c, 11, 71, 108
12, 54585, Note_off_c, 11, 71, 56
12, 54600, Note_on_c, 11, 71, 109
12, 54600, Note_on_c, 11, 71, 109
12, 54645, Note_off_c, 11, 71, 56
12, 54645, Note_off_c, 11, 71, 56
12, 54660, Note_on_c, 11, 71, 110
12, 54705, Note_off_c, 11, 71, 56
12, 54720, Note_on_c, 11, 72, 113
12, 54765, Note_off_c, 11, 72, 56
12, 54780, Note_on_c, 11, 72, 113
12, 54825, Note_off_c, 11, 72, 56
12, 54840, Note_on_c, 11, 72, 113
12, 54840, Note_on_c, 11, 72, 113
12, 54885, Note_off_c, 11, 72, 56
12, 54885, Note_off_c, 11, 72, 56
12, 54900, Note_on_c, 11, 72, 113
12, 54945, Note_off_c, 11, 72, 56
12, 54960, Note_on_c, 11, 72, 113
12, 55005, Note_off_c, 11, 72, 56
12, 55020, Note_on_c, 11, 72, 113
12, 55065, Note_off_c, 11, 72, 56
12, 55080, Note_on_c, 11, 72, 113
12, 55125, Note_off_c, 11, 72, 56
12, 55140, Note_on_c, 11, 72, 113
12, 55185, Note_off_c, 11, 72, 56
12, 55200, Control_c, 11, 0, 0
12, 55200, Control_c, 11, 7, 100
12, 55200, Control_c, 11, 32, 8
12, 55200, Program_c, 11, 50
12, 55200, Note_on_c, 11, 72, 113
12, 55245, Note_off_c, 11, 72, 56
12, 55260, Note_on_c, 11, 60, 113
12, 55305, Note_off_c, 11, 60, 56
12, 55320, Note_on_c, 11, 62, 113
12, 55365, Note_off_c, 11, 62, 56
12, 55380, Note_on_c, 11, 64, 113
12, 55425, Note_off_c, 11, 64, 56
12, 55440, Note_on_c, 11, 65, 113
12, 55485, Note_off_c, 11, 65, 56
12, 55500, Note_on_c, 11, 67, 113
12, 55545, Note_off_c, 11, 67, 56
12, 55560, Note_on_c, 11, 69, 113
12, 55605, Note_off_c, 11, 69, 56
12, 55620, Note_on_c, 11, 71, 113
12, 55665, Note_off_c, 11, 71, 56
12, 55680, Note_on_c, 11, 72, 113
12, 55725, Note_off_c, 11, 72, 56
12, 55740, Note_on_c, 11, 60, 113
12, 55785, Note_off_c, 11, 60, 56
12, 55800, Note_on_c, 11, 62, 113
12, 55845, Note_off_c, 11, 62, 56
12, 55860, Note_on_c, 11, 64, 113
12, 55905, Note_off_c, 11, 64, 56
12, 55920, Note_on_c, 11, 65, 113
12, 55965, Note_off_c, 11, 65, 56
12, 55980, Note_on_c, 11, 67, 113
12, 56025, Note_off_c, 11, 67, 56
12, 56040, Note_on_c, 11, 69, 113
12, 56085, Note_off_c, 11, 69, 56
12, 56100, Note_on_c, 11, 71, 113
12, 56145, Note_off_c, 11, 71, 56
12, 56160, Note_on_c, 11, 72, 113
12, 56205, Note_off_c, 11, 72, 56
12, 56220, Note_on_c, 11, 64, 113
12, 56265, Note_off_c, 11, 64, 56
12, 56280, Note_on_c, 11, 65, 113
12, 56325, Note_off_c, 11, 65, 56
12, 56340, Note_on_c, 11, 67, 113
12, 56385, Note_off_c, 11, 67, 56
12, 56400, Note_on_c, 11, 69, 113
12, 56445, Note_off_c, 11, 69, 56
12, 56460, Note_on_c, 11, 71, 113
12, 56505, Note_off_c, 11, 71, 56
12, 56520, Note_on_c, 11, 72, 113
12, 56565, Note_off_c, 11, 72, 56
12, 56580, Note_on_c, 11, 74, 113
12, 56625, Note_off_c, 11, 74, 56
12, 56640, Note_on_c, 11, 76, 113
12, 56685, Note_off_c, 11, 76, 56
12, 56700, Note_on_c, 11, 74, 113
12, 56745, Note_off_c, 11, 74, 56
12, 56760, Note_on_c, 11, 76, 113
12, 56805, Note_off_c, 11, 76, 56
12, 56820, Note_on_c, 11, 77, 113
12, 56865, Note_off_c, 11, 77, 56
12, 56880, Note_on_c, 11, 79, 113
12, 56925, Note_off_c, 11, 79, 56
12, 56940, Note_on_c, 11, 79, 113
12, 56985, Note_off_c, 11, 79, 56
12, 57000, Note_on_c, 11, 79, 113
12, 57000, Note_on_c, 11, 79, 113
12, 57045, Note_off_c, 11, 79, 56
12, 57045, Note_off_c, 11, 79, 56
12, 57060, Note_on_c, 11, 79, 113
12, 57105, Note_off_c, 11, 79, 56
12, 57120, Note_on_c, 11, 79, 113
12, 57165, Note_off_c, 11, 79, 56
12, 57180, Note_on_c, 11, 79, 113
12, 57225, Note_off_c, 11, 79, 56
12, 57240, Note_on_c, 11, 79, 113
12, 57240, Note_on_c, 11, 79, 113
12, 57285, Note_off_c, 11, 79, 56
12, 57285, Note_off_c, 11, 79, 56
12, 57300, Note_on_c, 11, 79, 113
12, 57345, Note_off_c, 11, 79, 56
12, 57360, Note_on_c, 11, 79, 113
12, 57405, Note_off_c, 11, 79, 56
12, 57420, Note_on_c, 11, 79, 113
12, 57465, Note_off_c, 11, 79, 56
12, 57480, Note_on_c, 11, 79, 113
12, 57480, Note_on_c, 11, 79, 113
12, 57525, Note_off_c, 11, 79, 56
12, 57525, Note_off_c, 11, 79, 56
12, 57540, Note_on_c, 11, 79, 113
12, 57585, Note_off_c, 11, 79, 56
12, 57600, Note_on_c, 11, 79, 113
12, 57645, Note_off_c, 11, 79, 56
12, 57660, Note_on_c, 11, 79, 113
12, 57705, Note_off_c, 11, 79, 56
12, 57720, Note_on_c, 11, 78, 113
12, 57765, Note_off_c, 11, 78, 56
12, 57780, Note_on_c, 11, 76, 113
12, 57825, Note_off_c, 11, 76, 56
12, 57840, Note_on_c, 11, 74, 113
12, 57885, Note_off_c, 11, 74, 56
12, 57900, Note_on_c, 11, 72, 113
12, 57945, Note_off_c, 11, 72, 56
12, 57960, Note_on_c, 11, 71, 113
12, 58005, Note_off_c, 11, 71, 56
12, 58020, Note_on_c, 11, 69, 113
12, 58065, Note_off_c, 11, 69, 56
12, 58080, Note_on_c, 11, 67, 113
12, 58125, Note_off_c, 11, 67, 56
12, 58140, Note_on_c, 11, 66, 113
12, 58185, Note_off_c, 11, 66, 56
12, 58200, Note_on_c, 11, 64, 113
12, 58245, Note_off_c, 11, 64, 56
12, 58260, Note_on_c, 11, 62, 113
12, 58305, Note_off_c, 11, 62, 56
12, 58320, Note_on_c, 11, 60, 113
12, 58365, Note_off_c, 11, 60, 56
12, 58380, Note_on_c, 11, 59, 113
12, 58425, Note_off_c, 11, 59, 56
12, 58440, Note_on_c, 11, 57, 113
12, 58485, Note_off_c, 11, 57, 56
12, 58500, Note_on_c, 11, 55, 113
12, 58545, Note_off_c, 11, 55, 56
12, 58559, Note_on_c, 11, 69, 108
12, 58695, Note_off_c, 11, 69, 64
12, 59520, Note_on_c, 11, 62, 108
12, 59656, Note_off_c, 11, 62, 64
12, 60960, Note_on_c, 11, 63, 73
12, 61416, Note_off_c, 11, 63, 64
12, 61441, Note_on_c, 11, 64, 73
12, 61623, Note_off_c, 11, 64, 64
12, 62878, Note_on_c, 11, 63, 73
12, 63334, Note_off_c, 11, 63, 64
12, 63357, Note_on_c, 11, 64, 73
12, 63539, Note_off_c, 11, 64, 64
12, 64797, Note_on_c, 11, 68, 73
12, 65253, Note_off_c, 11, 68, 64
12, 65283, Note_on_c, 11, 69, 73
12, 65465, Note_off_c, 11, 69, 64
12, 68160, Note_on_c, 11, 67, 95
12, 68160, Control_c, 11, 7, 120
12, 68160, Program_c, 11, 44
12, 68205, Note_off_c, 11, 67, 56
12, 68220, Note_on_c, 11, 67, 95
12, 68265, Note_off_c, 11, 67, 56
12, 68280, Note_on_c, 11, 67, 95
12, 68325, Note_off_c, 11, 67, 56
12, 68340, Note_on_c, 11, 67, 95
12, 68385, Note_off_c, 11, 67, 56
12, 68400, Note_on_c, 11, 67, 95
12, 68445, Note_off_c, 11, 67, 56
12, 68460, Note_on_c, 11, 67, 95
12, 68505, Note_off_c, 11, 67, 56
12, 68520, Note_on_c, 11, 67, 95
12, 68565, Note_off_c, 11, 67, 56
12, 68580, Note_on_c, 11, 67, 95
12, 68625, Note_off_c, 11, 67, 56
12, 68640, Note_on_c, 11, 67, 95
12, 68685, Note_off_c, 11, 67, 56
12, 68700, Note_on_c, 11, 67, 95
12, 68745, Note_off_c, 11, 67, 56
12, 68760, Note_on_c, 11, 67, 95
12, 68805, Note_off_c, 11, 67, 56
12, 68820, Note_on_c, 11, 67, 95
12, 68865, Note_off_c, 11, 67, 56
12, 68880, Note_on_c, 11, 66, 95
12, 68925, Note_off_c, 11, 66, 56
12, 68940, Note_on_c, 11, 66, 95
12, 68985, Note_off_c, 11, 66, 56
12, 69000, Note_on_c, 11, 66, 95
12, 69045, Note_off_c, 11, 66, 56
12, 69060, Note_on_c, 11, 66, 95
12, 69105, Note_off_c, 11, 66, 56
12, 69120, Note_on_c, 11, 64, 95
12, 69165, Note_off_c, 11, 64, 56
12, 69180, Note_on_c, 11, 64, 95
12, 69225, Note_off_c, 11, 64, 56
12, 69240, Note_on_c, 11, 64, 95
12, 69285, Note_off_c, 11, 64, 56
12, 69300, Note_on_c, 11, 64, 95
12, 69345, Note_off_c, 11, 64, 56
12, 69360, Note_on_c, 11, 62, 95
12, 69405, Note_off_c, 11, 62, 56
12, 69420, Note_on_c, 11, 62, 95
12, 69465, Note_off_c, 11, 62, 56
12, 69480, Note_on_c, 11, 62, 95
12, 69525, Note_off_c, 11, 62, 56
12, 69540, Note_on_c, 11, 62, 95
12, 69585, Note_off_c, 11, 62, 56
12, 69600, Note_on_c, 11, 62, 95
12, 69645, Note_off_c, 11, 62, 56
12, 69660, Note_on_c, 11, 62, 95
12, 69705, Note_off_c, 11, 62, 56
12, 69720, Note_on_c, 11, 62, 95
12, 69765, Note_off_c, 11, 62, 56
12, 69780, Note_on_c, 11, 62, 95
12, 69825, Note_off_c, 11, 62, 56
12, 69840, Note_on_c, 11, 62, 95
12, 69885, Note_off_c, 11, 62, 56
12, 69900, Note_on_c, 11, 62, 95
12, 69945, Note_off_c, 11, 62, 56
12, 69960, Note_on_c, 11, 62, 95
12, 70005, Note_off_c, 11, 62, 56
12, 70020, Note_on_c, 11, 62, 95
12, 70065, Note_off_c, 11, 62, 56
12, 70080, Note_on_c, 11, 67, 95
12, 70125, Note_off_c, 11, 67, 56
12, 70140, Note_on_c, 11, 67, 95
12, 70185, Note_off_c, 11, 67, 56
12, 70200, Note_on_c, 11, 67, 95
12, 70245, Note_off_c, 11, 67, 56
12, 70260, Note_on_c, 11, 67, 95
12, 70305, Note_off_c, 11, 67, 56
12, 70320, Note_on_c, 11, 67, 95
12, 70365, Note_off_c, 11, 67, 56
12, 70380, Note_on_c, 11, 67, 95
12, 70425, Note_off_c, 11, 67, 56
12, 70440, Note_on_c, 11, 67, 95
12, 70485, Note_off_c, 11, 67, 56
12, 70500, Note_on_c, 11, 67, 95
12, 70545, Note_off_c, 11, 67, 56
12, 70560, Note_on_c, 11, 67, 95
12, 70605, Note_off_c, 11, 67, 56
12, 70620, Note_on_c, 11, 67, 95
12, 70665, Note_off_c, 11, 67, 56
12, 70680, Note_on_c, 11, 67, 95
12, 70725, Note_off_c, 11, 67, 56
12, 70740, Note_on_c, 11, 67, 95
12, 70785, Note_off_c, 11, 67, 56
12, 70800, Note_on_c, 11, 66, 95
12, 70845, Note_off_c, 11, 66, 56
12, 70860, Note_on_c, 11, 66, 95
12, 70905, Note_off_c, 11, 66, 56
12, 70920, Note_on_c, 11, 66, 95
12, 70965, Note_off_c, 11, 66, 56
12, 70980, Note_on_c, 11, 66, 95
12, 71025, Note_off_c, 11, 66, 56
12, 71040, Note_on_c, 11, 64, 95
12, 71085, Note_off_c, 11, 64, 56
12, 71100, Note_on_c, 11, 64, 95
12, 71145, Note_off_c, 11, 64, 56
12, 71160, Note_on_c, 11, 64, 95
12, 71205, Note_off_c, 11, 64, 56
12, 71220, Note_on_c, 11, 64, 95
12, 71265, Note_off_c, 11, 64, 56
12, 71280, Note_on_c, 11, 62, 95
12, 71325, Note_off_c, 11, 62, 56
12, 71340, Note_on_c, 11, 62, 95
12, 71385, Note_off_c, 11, 62, 56
12, 71400, Note_on_c, 11, 62, 95
12, 71445, Note_off_c, 11, 62, 56
12, 71460, Note_on_c, 11, 62, 95
12, 71505, Note_off_c, 11, 62, 56
12, 71520, Note_on_c, 11, 62, 95
12, 71565, Note_off_c, 11, 62, 56
12, 71580, Note_on_c, 11, 62, 95
12, 71625, Note_off_c, 11, 62, 56
12, 71640, Note_on_c, 11, 62, 95
12, 71685, Note_off_c, 11, 62, 56
12, 71700, Note_on_c, 11, 62, 95
12, 71745, Note_off_c, 11, 62, 56
12, 71760, Note_on_c, 11, 62, 95
12, 71805, Note_off_c, 11, 62, 56
12, 71820, Note_on_c, 11, 62, 95
12, 71865, Note_off_c, 11, 62, 56
12, 71880, Note_on_c, 11, 62, 95
12, 71925, Note_off_c, 11, 62, 56
12, 71940, Note_on_c, 11, 62, 95
12, 71985, Note_off_c, 11, 62, 56
12, 72000, Note_on_c, 11, 72, 95
12, 72045, Note_off_c, 11, 72, 56
12, 72060, Note_on_c, 11, 72, 95
12, 72105, Note_off_c, 11, 72, 56
12, 72120, Note_on_c, 11, 72, 95
12, 72165, Note_off_c, 11, 72, 56
12, 72180, Note_on_c, 11, 72, 97
12, 72225, Note_off_c, 11, 72, 56
12, 72240, Note_on_c, 11, 72, 97
12, 72285, Note_off_c, 11, 72, 56
12, 72300, Note_on_c, 11, 72, 97
12, 72345, Note_off_c, 11, 72, 56
12, 72360, Note_on_c, 11, 72, 97
12, 72405, Note_off_c, 11, 72, 56
12, 72420, Note_on_c, 11, 72, 98
12, 72465, Note_off_c, 11, 72, 56
12, 72480, Note_on_c, 11, 72, 98
12, 72525, Note_off_c, 11, 72, 56
12, 72540, Note_on_c, 11, 72, 98
12, 72585, Note_off_c, 11, 72, 56
12, 72600, Note_on_c, 11, 72, 98
12, 72645, Note_off_c, 11, 72, 56
12, 72660, Note_on_c, 11, 72, 99
12, 72705, Note_off_c, 11, 72, 56
12, 72720, Note_on_c, 11, 71, 99
12, 72765, Note_off_c, 11, 71, 56
12, 72780, Note_on_c, 11, 71, 99
12, 72825, Note_off_c, 11, 71, 56
12, 72840, Note_on_c, 11, 71, 99
12, 72885, Note_off_c, 11, 71, 56
12, 72900, Note_on_c, 11, 71, 99
12, 72945, Note_off_c, 11, 71, 56
12, 72960, Note_on_c, 11, 69, 100
12, 73005, Note_off_c, 11, 69, 56
12, 73020, Note_on_c, 11, 69, 100
12, 73065, Note_off_c, 11, 69, 56
12, 73080, Note_on_c, 11, 69, 100
12, 73125, Note_off_c, 11, 69, 56
12, 73140, Note_on_c, 11, 69, 100
12, 73185, Note_off_c, 11, 69, 56
12, 73200, Note_on_c, 11, 68, 101
12, 73245, Note_off_c, 11, 68, 56
12, 73260, Note_on_c, 11, 68, 101
12, 73305, Note_off_c, 11, 68, 56
12, 73320, Note_on_c, 11, 68, 101
12, 73365, Note_off_c, 11, 68, 56
12, 73380, Note_on_c, 11, 68, 101
12, 73425, Note_off_c, 11, 68, 56
12, 73440, Note_on_c, 11, 68, 102
12, 73485, Note_off_c, 11, 68, 56
12, 73500, Note_on_c, 11, 68, 102
12, 73545, Note_off_c, 11, 68, 56
12, 73560, Note_on_c, 11, 68, 102
12, 73605, Note_off_c, 11, 68, 56
12, 73620, Note_on_c, 11, 68, 102
12, 73665, Note_off_c, 11, 68, 56
12, 73680, Note_on_c, 11, 68, 102
12, 73725, Note_off_c, 11, 68, 56
12, 73740, Note_on_c, 11, 68, 103
12, 73785, Note_off_c, 11, 68, 56
12, 73800, Note_on_c, 11, 68, 103
12, 73845, Note_off_c, 11, 68, 56
12, 73860, Note_on_c, 11, 68, 103
12, 73905, Note_off_c, 11, 68, 56
12, 73920, Note_on_c, 11, 68, 103
12, 73965, Note_off_c, 11, 68, 56
12, 73980, Note_on_c, 11, 68, 105
12, 74025, Note_off_c, 11, 68, 56
12, 74040, Note_on_c, 11, 68, 105
12, 74085, Note_off_c, 11, 68, 56
12, 74100, Note_on_c, 11, 68, 105
12, 74145, Note_off_c, 11, 68, 56
12, 74160, Note_on_c, 11, 68, 105
12, 74205, Note_off_c, 11, 68, 56
12, 74220, Note_on_c, 11, 68, 106
12, 74265, Note_off_c, 11, 68, 56
12, 74280, Note_on_c, 11, 68, 106
12, 74325, Note_off_c, 11, 68, 56
12, 74340, Note_on_c, 11, 68, 106
12, 74385, Note_off_c, 11, 68, 56
12, 74400, Note_on_c, 11, 68, 106
12, 74445, Note_off_c, 11, 68, 56
12, 74460, Note_on_c, 11, 68, 106
12, 74505, Note_off_c, 11, 68, 56
12, 74520, Note_on_c, 11, 68, 107
12, 74565, Note_off_c, 11, 68, 56
12, 74580, Note_on_c, 11, 68, 107
12, 74625, Note_off_c, 11, 68, 56
12, 74640, Note_on_c, 11, 68, 107
12, 74685, Note_off_c, 11, 68, 56
12, 74700, Note_on_c, 11, 68, 107
12, 74745, Note_off_c, 11, 68, 56
12, 74760, Note_on_c, 11, 68, 108
12, 74805, Note_off_c, 11, 68, 56
12, 74820, Note_on_c, 11, 68, 108
12, 74865, Note_off_c, 11, 68, 56
12, 74880, Note_on_c, 11, 68, 108
12, 74925, Note_off_c, 11, 68, 56
12, 74940, Note_on_c, 11, 68, 108
12, 74985, Note_off_c, 11, 68, 56
12, 75000, Note_on_c, 11, 68, 109
12, 75045, Note_off_c, 11, 68, 56
12, 75060, Note_on_c, 11, 68, 109
12, 75105, Note_off_c, 11, 68, 56
12, 75120, Note_on_c, 11, 84, 109
12, 75165, Note_off_c, 11, 84, 56
12, 75180, Note_on_c, 11, 84, 109
12, 75225, Note_off_c, 11, 84, 56
12, 75240, Note_on_c, 11, 84, 110
12, 75285, Note_off_c, 11, 84, 56
12, 75300, Note_on_c, 11, 84, 110
12, 75345, Note_off_c, 11, 84, 56
12, 75360, Note_on_c, 11, 84, 110
12, 75405, Note_off_c, 11, 84, 56
12, 75420, Note_on_c, 11, 84, 110
12, 75465, Note_off_c, 11, 84, 56
12, 75480, Note_on_c, 11, 84, 110
12, 75525, Note_off_c, 11, 84, 56
12, 75540, Note_on_c, 11, 84, 111
12, 75585, Note_off_c, 11, 84, 56
12, 75600, Note_on_c, 11, 84, 111
12, 75645, Note_off_c, 11, 84, 56
12, 75660, Note_on_c, 11, 84, 111
12, 75705, Note_off_c, 11, 84, 56
12, 75720, Note_on_c, 11, 84, 111
12, 75765, Note_off_c, 11, 84, 56
12, 75780, Note_on_c, 11, 84, 113
12, 75825, Note_off_c, 11, 84, 56
12, 75837, Note_on_c, 11, 80, 108
12, 75840, Control_c, 11, 0, 0
12, 75840, Control_c, 11, 32, 8
12, 75840, Program_c, 11, 50
12, 75848, Control_c, 11, 7, 100
12, 77565, Note_off_c, 11, 80, 64
12, 77759, Note_on_c, 11, 59, 108
12, 77827, Note_off_c, 11, 59, 56
12, 77879, Note_on_c, 11, 55, 108
12, 77947, Note_off_c, 11, 55, 56
12, 77999, Note_on_c, 11, 59, 108
12, 78067, Note_off_c, 11, 59, 56
12, 78121, Note_on_c, 11, 55, 108
12, 78212, Note_off_c, 11, 55, 56
12, 78241, Note_on_c, 11, 59, 108
12, 78332, Note_off_c, 11, 59, 56
12, 78361, Note_on_c, 11, 55, 108
12, 78429, Note_off_c, 11, 55, 56
12, 78479, Note_on_c, 11, 59, 108
12, 78547, Note_off_c, 11, 59, 56
12, 78600, Note_on_c, 11, 55, 108
12, 78691, Note_off_c, 11, 55, 56
12, 78720, Note_on_c, 11, 59, 108
12, 78788, Note_off_c, 11, 59, 56
12, 78841, Note_on_c, 11, 55, 108
12, 78909, Note_off_c, 11, 55, 56
12, 78960, Note_on_c, 11, 62, 108
12, 79028, Note_off_c, 11, 62, 56
12, 79080, Note_on_c, 11, 59, 108
12, 79171, Note_off_c, 11, 59, 56
12, 79200, Note_on_c, 11, 62, 108
12, 79291, Note_off_c, 11, 62, 56
12, 79320, Note_on_c, 11, 59, 108
12, 79411, Note_off_c, 11, 59, 56
12, 79440, Note_on_c, 11, 65, 108
12, 79531, Note_off_c, 11, 65, 56
12, 79560, Note_on_c, 11, 62, 108
12, 79651, Note_off_c, 11, 62, 56
12, 79680, Note_on_c, 11, 65, 108
12, 79748, Note_off_c, 11, 65, 56
12, 79800, Note_on_c, 11, 62, 108
12, 79868, Note_off_c, 11, 62, 56
12, 79920, Note_on_c, 11, 71, 108
12, 79988, Note_off_c, 11, 71, 56
12, 80041, Note_on_c, 11, 65, 108
12, 80109, Note_off_c, 11, 65, 56
12, 80161, Note_on_c, 11, 74, 108
12, 80229, Note_off_c, 11, 74, 56
12, 80279, Note_on_c, 11, 71, 108
12, 80347, Note_off_c, 11, 71, 56
12, 80399, Note_on_c, 11, 77, 108
12, 80467, Note_off_c, 11, 77, 56
12, 80519, Note_on_c, 11, 74, 108
12, 80587, Note_off_c, 11, 74, 56
12, 80640, Note_on_c, 11, 83, 108
12, 80708, Note_off_c, 11, 83, 56
12, 80760, Note_on_c, 11, 77, 108
12, 80828, Note_off_c, 11, 77, 56
12, 80882, Note_on_c, 11, 86, 108
12, 81064, Note_off_c, 11, 86, 64
12, 81363, Note_on_c, 11, 55, 108
12, 81545, Note_off_c, 11, 55, 64
12, 81598, Note_on_c, 11, 55, 108
12, 81780, Note_off_c, 11, 55, 64
12, 82077, Note_on_c, 11, 64, 108
12, 82079, Note_on_c, 11, 55, 108
12, 82259, Note_off_c, 11, 64, 64
12, 82261, Note_off_c, 11, 55, 64
12, 82558, Note_on_c, 11, 55, 108
12, 82562, Note_on_c, 11, 64, 108
12, 82740, Note_off_c, 11, 55, 64
12, 82744, Note_off_c, 11, 64, 64
12, 83280, Note_on_c, 11, 55, 108
12, 83280, Note_on_c, 11, 62, 108
12, 83371, Note_off_c, 11, 62, 56
12, 83371, Note_off_c, 11, 55, 56
12, 83519, Note_on_c, 11, 64, 108
12, 83521, Note_on_c, 11, 55, 108
12, 83610, Note_off_c, 11, 64, 56
12, 83612, Note_off_c, 11, 55, 56
12, 83760, Note_on_c, 11, 65, 108
12, 83761, Note_on_c, 11, 55, 108
12, 83851, Note_off_c, 11, 65, 56
12, 83852, Note_off_c, 11, 55, 56
12, 83999, Note_on_c, 11, 55, 108
12, 84001, Note_on_c, 11, 64, 108
12, 84090, Note_off_c, 11, 55, 56
12, 84092, Note_off_c, 11, 64, 56
12, 84240, Note_on_c, 11, 55, 108
12, 84240, Note_on_c, 11, 65, 108
12, 84331, Note_off_c, 11, 65, 56
12, 84331, Note_off_c, 11, 55, 56
12, 84480, Note_on_c, 11, 64, 113
12, 84480, Note_on_c, 11, 55, 113
12, 84512, Program_c, 11, 44
12, 84512, Control_c, 11, 7, 120
12, 84525, Note_off_c, 11, 55, 56
12, 84525, Note_off_c, 11, 64, 56
12, 84540, Note_on_c, 11, 60, 113
12, 84585, Note_off_c, 11, 60, 56
12, 84600, Note_on_c, 11, 60, 113
12, 84645, Note_off_c, 11, 60, 56
12, 84660, Note_on_c, 11, 60, 113
12, 84705, Note_off_c, 11, 60, 56
12, 84720, Note_on_c, 11, 60, 113
12, 84765, Note_off_c, 11, 60, 56
12, 84780, Note_on_c, 11, 60, 113
12, 84825, Note_off_c, 11, 60, 56
12, 84840, Note_on_c, 11, 60, 113
12, 84885, Note_off_c, 11, 60, 56
12, 84900, Note_on_c, 11, 60, 113
12, 84945, Note_off_c, 11, 60, 56
12, 84960, Note_on_c, 11, 60, 113
12, 85005, Note_off_c, 11, 60, 56
12, 85020, Note_on_c, 11, 60, 113
12, 85065, Note_off_c, 11, 60, 56
12, 85080, Note_on_c, 11, 60, 113
12, 85125, Note_off_c, 11, 60, 56
12, 85140, Note_on_c, 11, 60, 113
12, 85185, Note_off_c, 11, 60, 56
12, 85440, Note_on_c, 11, 59, 113
12, 85485, Note_off_c, 11, 59, 56
12, 85500, Note_on_c, 11, 59, 113
12, 85545, Note_off_c, 11, 59, 56
12, 85560, Note_on_c, 11, 59, 113
12, 85605, Note_off_c, 11, 59, 56
12, 85620, Note_on_c, 11, 59, 113
12, 85665, Note_off_c, 11, 59, 56
12, 85680, Note_on_c, 11, 59, 113
12, 85725, Note_off_c, 11, 59, 56
12, 85740, Note_on_c, 11, 59, 113
12, 85740, Note_on_c, 11, 59, 113
12, 85785, Note_off_c, 11, 59, 56
12, 85785, Note_off_c, 11, 59, 56
12, 85800, Note_on_c, 11, 59, 113
12, 85845, Note_off_c, 11, 59, 56
12, 85860, Note_on_c, 11, 59, 113
12, 85905, Note_off_c, 11, 59, 56
12, 85920, Note_on_c, 11, 59, 113
12, 85965, Note_off_c, 11, 59, 56
12, 85980, Note_on_c, 11, 59, 113
12, 86025, Note_off_c, 11, 59, 56
12, 86040, Note_on_c, 11, 59, 113
12, 86085, Note_off_c, 11, 59, 56
12, 86100, Note_on_c, 11, 59, 113
12, 86145, Note_off_c, 11, 59, 56
12, 86160, Note_on_c, 11, 59, 113
12, 86205, Note_off_c, 11, 59, 56
12, 86220, Note_on_c, 11, 59, 113
12, 86265, Note_off_c, 11, 59, 56
12, 86280, Note_on_c, 11, 59, 113
12, 86325, Note_off_c, 11, 59, 56
12, 86340, Note_on_c, 11, 59, 113
12, 86385, Note_off_c, 11, 59, 56
12, 86400, Note_on_c, 11, 60, 113
12, 86445, Note_off_c, 11, 60, 56
12, 86460, Note_on_c, 11, 60, 113
12, 86505, Note_off_c, 11, 60, 56
12, 86520, Note_on_c, 11, 60, 113
12, 86565, Note_off_c, 11, 60, 56
12, 86580, Note_on_c, 11, 60, 113
12, 86625, Note_off_c, 11, 60, 56
12, 86640, Note_on_c, 11, 60, 113
12, 86685, Note_off_c, 11, 60, 56
12, 86700, Note_on_c, 11, 60, 113
12, 86745, Note_off_c, 11, 60, 56
12, 86760, Note_on_c, 11, 60, 113
12, 86805, Note_off_c, 11, 60, 56
12, 86820, Note_on_c, 11, 60, 113
12, 86865, Note_off_c, 11, 60, 56
12, 86880, Note_on_c, 11, 60, 113
12, 86925, Note_off_c, 11, 60, 56
12, 86940, Note_on_c, 11, 60, 113
12, 86985, Note_off_c, 11, 60, 56
12, 87000, Note_on_c, 11, 60, 113
12, 87045, Note_off_c, 11, 60, 56
12, 87060, Note_on_c, 11, 60, 113
12, 87105, Note_off_c, 11, 60, 56
12, 87120, Note_on_c, 11, 60, 113
12, 87165, Note_off_c, 11, 60, 56
12, 87180, Note_on_c, 11, 60, 113
12, 87225, Note_off_c, 11, 60, 56
12, 87240, Note_on_c, 11, 60, 113
12, 87285, Note_off_c, 11, 60, 56
12, 87300, Note_on_c, 11, 60, 113
12, 87345, Note_off_c, 11, 60, 56
12, 87360, Note_on_c, 11, 60, 113
12, 87405, Note_off_c, 11, 60, 56
12, 87420, Note_on_c, 11, 60, 113
12, 87465, Note_off_c, 11, 60, 56
12, 87480, Note_on_c, 11, 60, 113
12, 87525, Note_off_c, 11, 60, 56
12, 87540, Note_on_c, 11, 60, 113
12, 87585, Note_off_c, 11, 60, 56
12, 87600, Note_on_c, 11, 60, 113
12, 87645, Note_off_c, 11, 60, 56
12, 87660, Note_on_c, 11, 60, 113
12, 87705, Note_off_c, 11, 60, 56
12, 87720, Note_on_c, 11, 60, 113
12, 87765, Note_off_c, 11, 60, 56
12, 87780, Note_on_c, 11, 60, 113
12, 87825, Note_off_c, 11, 60, 56
12, 87840, Note_on_c, 11, 60, 113
12, 87885, Note_off_c, 11, 60, 56
12, 87900, Note_on_c, 11, 60, 113
12, 87945, Note_off_c, 11, 60, 56
12, 87960, Note_on_c, 11, 60, 113
12, 87960, Note_on_c, 11, 60, 113
12, 88005, Note_off_c, 11, 60, 56
12, 88005, Note_off_c, 11, 60, 56
12, 88020, Note_on_c, 11, 60, 113
12, 88065, Note_off_c, 11, 60, 56
12, 88080, Note_on_c, 11, 60, 113
12, 88125, Note_off_c, 11, 60, 56
12, 88140, Note_on_c, 11, 60, 113
12, 88185, Note_off_c, 11, 60, 56
12, 88200, Note_on_c, 11, 60, 113
12, 88245, Note_off_c, 11, 60, 56
12, 88260, Note_on_c, 11, 60, 113
12, 88305, Note_off_c, 11, 60, 56
12, 88320, Note_on_c, 11, 60, 113
12, 88365, Note_off_c, 11, 60, 56
12, 88380, Note_on_c, 11, 60, 113
12, 88425, Note_off_c, 11, 60, 56
12, 88440, Note_on_c, 11, 60, 113
12, 88485, Note_off_c, 11, 60, 56
12, 88500, Note_on_c, 11, 60, 113
12, 88545, Note_off_c, 11, 60, 56
12, 88560, Note_on_c, 11, 60, 113
12, 88605, Note_off_c, 11, 60, 56
12, 88620, Note_on_c, 11, 60, 113
12, 88665, Note_off_c, 11, 60, 56
12, 88680, Note_on_c, 11, 60, 113
12, 88725, Note_off_c, 11, 60, 56
12, 88740, Note_on_c, 11, 60, 113
12, 88785, Note_off_c, 11, 60, 56
12, 88800, Note_on_c, 11, 60, 113
12, 88845, Note_off_c, 11, 60, 56
12, 88860, Note_on_c, 11, 60, 113
12, 88905, Note_off_c, 11, 60, 56
12, 88920, Note_on_c, 11, 60, 113
12, 88965, Note_off_c, 11, 60, 56
12, 88980, Note_on_c, 11, 60, 113
12, 89025, Note_off_c, 11, 60, 56
12, 89040, Note_on_c, 11, 60, 113
12, 89085, Note_off_c, 11, 60, 56
12, 89100, Note_on_c, 11, 60, 113
12, 89145, Note_off_c, 11, 60, 56
12, 89160, Note_on_c, 11, 60, 113
12, 89205, Note_off_c, 11, 60, 56
12, 89220, Note_on_c, 11, 60, 113
12, 89265, Note_off_c, 11, 60, 56
12, 89280, Note_on_c, 11, 60, 113
12, 89325, Note_off_c, 11, 60, 56
12, 89340, Note_on_c, 11, 60, 113
12, 89385, Note_off_c, 11, 60, 56
12, 89400, Note_on_c, 11, 60, 113
12, 89445, Note_off_c, 11, 60, 56
12, 89460, Note_on_c, 11, 60, 113
12, 89505, Note_off_c, 11, 60, 56
12, 89520, Note_on_c, 11, 60, 113
12, 89565, Note_off_c, 11, 60, 56
12, 89580, Note_on_c, 11, 60, 113
12, 89625, Note_off_c, 11, 60, 56
12, 89640, Note_on_c, 11, 60, 113
12, 89685, Note_off_c, 11, 60, 56
12, 89700, Note_on_c, 11, 60, 113
12, 89745, Note_off_c, 11, 60, 56
12, 89760, Note_on_c, 11, 60, 113
12, 89805, Note_off_c, 11, 60, 56
12, 89820, Note_on_c, 11, 60, 113
12, 89865, Note_off_c, 11, 60, 56
12, 89880, Note_on_c, 11, 60, 113
12, 89925, Note_off_c, 11, 60, 56
12, 89940, Note_on_c, 11, 60, 113
12, 89985, Note_off_c, 11, 60, 56
12, 90000, Note_on_c, 11, 60, 113
12, 90045, Note_off_c, 11, 60, 56
12, 90060, Note_on_c, 11, 60, 113
12, 90105, Note_off_c, 11, 60, 56
12, 90120, Note_on_c, 11, 60, 113
12, 90165, Note_off_c, 11, 60, 56
12, 90180, Note_on_c, 11, 60, 113
12, 90225, Note_off_c, 11, 60, 56
12, 90240, Note_on_c, 11, 60, 113
12, 90285, Note_off_c, 11, 60, 56
12, 90300, Note_on_c, 11, 60, 113
12, 90345, Note_off_c, 11, 60, 56
12, 90360, Note_on_c, 11, 60, 113
12, 90405, Note_off_c, 11, 60, 56
12, 90420, Note_on_c, 11, 60, 113
12, 90465, Note_off_c, 11, 60, 56
12, 90480, Note_on_c, 11, 60, 113
12, 90525, Note_off_c, 11, 60, 56
12, 90540, Note_on_c, 11, 60, 113
12, 90585, Note_off_c, 11, 60, 56
12, 90600, Note_on_c, 11, 60, 113
12, 90645, Note_off_c, 11, 60, 56
12, 90660, Note_on_c, 11, 60, 113
12, 90705, Note_off_c, 11, 60, 56
12, 90720, Note_on_c, 11, 60, 113
12, 90765, Note_off_c, 11, 60, 56
12, 90780, Note_on_c, 11, 60, 113
12, 90825, Note_off_c, 11, 60, 56
12, 90840, Note_on_c, 11, 60, 113
12, 90885, Note_off_c, 11, 60, 56
12, 90900, Note_on_c, 11, 60, 113
12, 90945, Note_off_c, 11, 60, 56
12, 90960, Note_on_c, 11, 60, 113
12, 91005, Note_off_c, 11, 60, 56
12, 91020, Note_on_c, 11, 60, 113
12, 91065, Note_off_c, 11, 60, 56
12, 91080, Note_on_c, 11, 60, 113
12, 91125, Note_off_c, 11, 60, 56
12, 91140, Note_on_c, 11, 60, 113
12, 91185, Note_off_c, 11, 60, 56
12, 91200, Note_on_c, 11, 60, 113
12, 91245, Note_off_c, 11, 60, 56
12, 91260, Note_on_c, 11, 60, 113
12, 91305, Note_off_c, 11, 60, 56
12, 91320, Note_on_c, 11, 60, 113
12, 91365, Note_off_c, 11, 60, 56
12, 91380, Note_on_c, 11, 60, 113
12, 91425, Note_off_c, 11, 60, 56
12, 91440, Note_on_c, 11, 60, 113
12, 91485, Note_off_c, 11, 60, 56
12, 91500, Note_on_c, 11, 60, 113
12, 91545, Note_off_c, 11, 60, 56
12, 91560, Note_on_c, 11, 60, 113
12, 91605, Note_off_c, 11, 60, 56
12, 91620, Note_on_c, 11, 60, 113
12, 91665, Note_off_c, 11, 60, 56
12, 91680, Note_on_c, 11, 60, 113
12, 91725, Note_off_c, 11, 60, 56
12, 91740, Note_on_c, 11, 60, 113
12, 91785, Note_off_c, 11, 60, 56
12, 91800, Note_on_c, 11, 60, 113
12, 91845, Note_off_c, 11, 60, 56
12, 91860, Note_on_c, 11, 60, 113
12, 91905, Note_off_c, 11, 60, 56
12, 91920, Note_on_c, 11, 60, 113
12, 91965, Note_off_c, 11, 60, 56
12, 91980, Note_on_c, 11, 60, 113
12, 92025, Note_off_c, 11, 60, 56
12, 92040, Note_on_c, 11, 60, 113
12, 92085, Note_off_c, 11, 60, 56
12, 92100, Note_on_c, 11, 60, 113
12, 92145, Note_off_c, 11, 60, 56
12, 92160, Note_on_c, 11, 60, 113
12, 92205, Note_off_c, 11, 60, 56
12, 92220, Note_on_c, 11, 60, 113
12, 92265, Note_off_c, 11, 60, 56
12, 92280, Note_on_c, 11, 60, 113
12, 92325, Note_off_c, 11, 60, 56
12, 92340, Note_on_c, 11, 60, 113
12, 92385, Note_off_c, 11, 60, 56
12, 92400, Note_on_c, 11, 60, 113
12, 92445, Note_off_c, 11, 60, 56
12, 92460, Note_on_c, 11, 60, 113
12, 92505, Note_off_c, 11, 60, 56
12, 92520, Note_on_c, 11, 60, 113
12, 92565, Note_off_c, 11, 60, 56
12, 92580, Note_on_c, 11, 60, 113
12, 92625, Note_off_c, 11, 60, 56
12, 92640, Note_on_c, 11, 60, 113
12, 92685, Note_off_c, 11, 60, 56
12, 92700, Note_on_c, 11, 60, 113
12, 92745, Note_off_c, 11, 60, 56
12, 92760, Note_on_c, 11, 60, 113
12, 92805, Note_off_c, 11, 60, 56
12, 92820, Note_on_c, 11, 60, 113
12, 92865, Note_off_c, 11, 60, 56
12, 92880, Note_on_c, 11, 60, 113
12, 92925, Note_off_c, 11, 60, 56
12, 92940, Note_on_c, 11, 60, 113
12, 92985, Note_off_c, 11, 60, 56
12, 93000, Note_on_c, 11, 60, 113
12, 93045, Note_off_c, 11, 60, 56
12, 93060, Note_on_c, 11, 60, 113
12, 93105, Note_off_c, 11, 60, 56
12, 93119, Note_on_c, 11, 65, 108
12, 93123, Note_on_c, 11, 55, 108
12, 93132, Control_c, 11, 0, 0
12, 93132, Control_c, 11, 32, 8
12, 93132, Program_c, 11, 50
12, 93136, Control_c, 11, 7, 100
12, 93301, Note_off_c, 11, 65, 64
12, 93305, Note_off_c, 11, 55, 64
12, 93358, Note_on_c, 11, 55, 108
12, 93359, Note_on_c, 11, 65, 108
12, 93494, Note_off_c, 11, 55, 64
12, 93495, Note_off_c, 11, 65, 64
12, 93540, Note_on_c, 11, 55, 113
12, 93540, Note_on_c, 11, 65, 113
12, 93585, Note_off_c, 11, 65, 56
12, 93585, Note_off_c, 11, 55, 56
12, 93601, Note_on_c, 11, 55, 108
12, 93602, Note_on_c, 11, 64, 108
12, 93783, Note_off_c, 11, 55, 64
12, 93784, Note_off_c, 11, 64, 64
12, 93839, Note_on_c, 11, 55, 108
12, 93840, Note_on_c, 11, 64, 108
12, 93975, Note_off_c, 11, 55, 64
12, 93976, Note_off_c, 11, 64, 64
12, 94020, Note_on_c, 11, 55, 113
12, 94020, Note_on_c, 11, 64, 113
12, 94065, Note_off_c, 11, 64, 56
12, 94065, Note_off_c, 11, 55, 56
12, 94077, Note_on_c, 11, 55, 108
12, 94082, Note_on_c, 11, 62, 108
12, 94259, Note_off_c, 11, 55, 64
12, 94264, Note_off_c, 11, 62, 64
12, 94320, Note_on_c, 11, 62, 108
12, 94321, Note_on_c, 11, 55, 108
12, 94704, Note_off_c, 11, 62, 64
12, 94705, Note_off_c, 11, 55, 64
12, 94798, Note_on_c, 11, 55, 108
12, 94798, Note_on_c, 11, 64, 108
12, 94934, Note_off_c, 11, 64, 64
12, 94934, Note_off_c, 11, 55, 64
12, 94980, Note_on_c, 11, 55, 113
12, 94980, Note_on_c, 11, 64, 113
12, 95025, Note_off_c, 11, 64, 56
12, 95025, Note_off_c, 11, 55, 56
12, 95037, Note_on_c, 11, 65, 108
12, 95042, Note_on_c, 11, 55, 108
12, 95219, Note_off_c, 11, 65, 64
12, 95224, Note_off_c, 11, 55, 64
12, 95281, Note_on_c, 11, 55, 108
12, 95281, Note_on_c, 11, 65, 108
12, 95417, Note_off_c, 11, 65, 64
12, 95417, Note_off_c, 11, 55, 64
12, 95460, Note_on_c, 11, 55, 113
12, 95460, Note_on_c, 11, 65, 113
12, 95505, Note_off_c, 11, 65, 56
12, 95505, Note_off_c, 11, 55, 56
12, 95517, Note_on_c, 11, 55, 108
12, 95521, Note_on_c, 11, 64, 108
12, 95699, Note_off_c, 11, 55, 64
12, 95703, Note_off_c, 11, 64, 64
12, 95760, Note_on_c, 11, 64, 108
12, 95760, Note_on_c, 11, 55, 108
12, 95896, Note_off_c, 11, 55, 64
12, 95896, Note_off_c, 11, 64, 64
12, 95940, Note_on_c, 11, 55, 113
12, 95940, Note_on_c, 11, 64, 113
12, 95985, Note_off_c, 11, 64, 56
12, 95985, Note_off_c, 11, 55, 56
12, 96000, Note_on_c, 11, 55, 108
12, 96003, Note_on_c, 11, 62, 108
12, 96182, Note_off_c, 11, 55, 64
12, 96185, Note_off_c, 11, 62, 64
12, 96237, Note_on_c, 11, 55, 108
12, 96240, Note_on_c, 11, 62, 108
12, 96621, Note_off_c, 11, 55, 64
12, 96624, Note_off_c, 11, 62, 64
12, 96721, Note_on_c, 11, 64, 108
12, 96722, Note_on_c, 11, 55, 108
12, 96857, Note_off_c, 11, 64, 64
12, 96858, Note_off_c, 11, 55, 64
12, 96900, Note_on_c, 11, 55, 113
12, 96900, Note_on_c, 11, 64, 113
12, 96945, Note_off_c, 11, 64, 56
12, 96945, Note_off_c, 11, 55, 56
12, 96961, Note_on_c, 11, 55, 108
12, 96961, Note_on_c, 11, 65, 108
12, 97097, Note_off_c, 11, 65, 64
12, 97097, Note_off_c, 11, 55, 64
12, 97140, Note_on_c, 11, 65, 113
12, 97140, Note_on_c, 11, 55, 113
12, 97185, Note_off_c, 11, 55, 56
12, 97185, Note_off_c, 11, 65, 56
12, 97198, Note_on_c, 11, 55, 108
12, 97200, Note_on_c, 11, 65, 108
12, 97334, Note_off_c, 11, 55, 64
12, 97336, Note_off_c, 11, 65, 64
12, 97380, Note_on_c, 11, 55, 113
12, 97380, Note_on_c, 11, 65, 113
12, 97425, Note_off_c, 11, 65, 56
12, 97425, Note_off_c, 11, 55, 56
12, 97439, Note_on_c, 11, 55, 108
12, 97442, Note_on_c, 11, 64, 108
12, 97575, Note_off_c, 11, 55, 64
12, 97578, Note_off_c, 11, 64, 64
12, 97620, Note_on_c, 11, 55, 113
12, 97620, Note_on_c, 11, 64, 113
12, 97665, Note_off_c, 11, 64, 56
12, 97665, Note_off_c, 11, 55, 56
12, 97679, Note_on_c, 11, 55, 108
12, 97681, Note_on_c, 11, 64, 108
12, 97815, Note_off_c, 11, 55, 64
12, 97817, Note_off_c, 11, 64, 64
12, 97860, Note_on_c, 11, 55, 113
12, 97860, Note_on_c, 11, 64, 113
12, 97905, Note_off_c, 11, 64, 56
12, 97905, Note_off_c, 11, 55, 56
12, 97920, Note_on_c, 11, 55, 113
12, 97920, Control_c, 11, 7, 120
12, 97920, Program_c, 11, 44
12, 97965, Note_off_c, 11, 55, 56
12, 97980, Note_on_c, 11, 55, 113
12, 98025, Note_off_c, 11, 55, 56
12, 98040, Note_on_c, 11, 55, 113
12, 98085, Note_off_c, 11, 55, 56
12, 98100, Note_on_c, 11, 55, 113
12, 98145, Note_off_c, 11, 55, 56
12, 98160, Note_on_c, 11, 55, 113
12, 98205, Note_off_c, 11, 55, 56
12, 98220, Note_on_c, 11, 55, 113
12, 98265, Note_off_c, 11, 55, 56
12, 98280, Note_on_c, 11, 55, 113
12, 98325, Note_off_c, 11, 55, 56
12, 98340, Note_on_c, 11, 55, 113
12, 98385, Note_off_c, 11, 55, 56
12, 98400, Note_on_c, 11, 55, 113
12, 98445, Note_off_c, 11, 55, 56
12, 98460, Note_on_c, 11, 55, 113
12, 98505, Note_off_c, 11, 55, 56
12, 98520, Note_on_c, 11, 55, 113
12, 98565, Note_off_c, 11, 55, 56
12, 98580, Note_on_c, 11, 55, 113
12, 98625, Note_off_c, 11, 55, 56
12, 98640, Note_on_c, 11, 55, 113
12, 98685, Note_off_c, 11, 55, 56
12, 98700, Note_on_c, 11, 55, 113
12, 98745, Note_off_c, 11, 55, 56
12, 98760, Note_on_c, 11, 55, 113
12, 98805, Note_off_c, 11, 55, 56
12, 98820, Note_on_c, 11, 55, 113
12, 98865, Note_off_c, 11, 55, 56
12, 98880, Note_on_c, 11, 55, 113
12, 98925, Note_off_c, 11, 55, 56
12, 98940, Note_on_c, 11, 55, 113
12, 98985, Note_off_c, 11, 55, 56
12, 99000, Note_on_c, 11, 55, 113
12, 99045, Note_off_c, 11, 55, 56
12, 99060, Note_on_c, 11, 55, 113
12, 99105, Note_off_c, 11, 55, 56
12, 99120, Note_on_c, 11, 55, 113
12, 99165, Note_off_c, 11, 55, 56
12, 99180, Note_on_c, 11, 55, 113
12, 99225, Note_off_c, 11, 55, 56
12, 99240, Note_on_c, 11, 55, 113
12, 99285, Note_off_c, 11, 55, 56
12, 99300, Note_on_c, 11, 55, 113
12, 99345, Note_off_c, 11, 55, 56
12, 99360, Note_on_c, 11, 55, 113
12, 99405, Note_off_c, 11, 55, 56
12, 99420, Note_on_c, 11, 55, 113
12, 99465, Note_off_c, 11, 55, 56
12, 99480, Note_on_c, 11, 55, 113
12, 99525, Note_off_c, 11, 55, 56
12, 99540, Note_on_c, 11, 55, 113
12, 99585, Note_off_c, 11, 55, 56
12, 99600, Note_on_c, 11, 55, 113
12, 99645, Note_off_c, 11, 55, 56
12, 99660, Note_on_c, 11, 55, 113
12, 99705, Note_off_c, 11, 55, 56
12, 99720, Note_on_c, 11, 55, 113
12, 99765, Note_off_c, 11, 55, 56
12, 99780, Note_on_c, 11, 55, 113
12, 99825, Note_off_c, 11, 55, 56
12, 99840, Note_on_c, 11, 55, 113
12, 99885, Note_off_c, 11, 55, 56
12, 99900, Note_on_c, 11, 55, 113
12, 99945, Note_off_c, 11, 55, 56
12, 99960, Note_on_c, 11, 55, 113
12, 100005, Note_off_c, 11, 55, 56
12, 100020, Note_on_c, 11, 55, 113
12, 100065, Note_off_c, 11, 55, 56
12, 100080, Note_on_c, 11, 55, 113
12, 100125, Note_off_c, 11, 55, 56
12, 100140, Note_on_c, 11, 55, 113
12, 100185, Note_off_c, 11, 55, 56
12, 100200, Note_on_c, 11, 55, 113
12, 100245, Note_off_c, 11, 55, 56
12, 100260, Note_on_c, 11, 55, 113
12, 100305, Note_off_c, 11, 55, 56
12, 100320, Note_on_c, 11, 55, 113
12, 100365, Note_off_c, 11, 55, 56
12, 100380, Note_on_c, 11, 55, 113
12, 100425, Note_off_c, 11, 55, 56
12, 100440, Note_on_c, 11, 55, 113
12, 100485, Note_off_c, 11, 55, 56
12, 100500, Note_on_c, 11, 55, 113
12, 100545, Note_off_c, 11, 55, 56
12, 100560, Note_on_c, 11, 55, 113
12, 100605, Note_off_c, 11, 55, 56
12, 100620, Note_on_c, 11, 55, 113
12, 100665, Note_off_c, 11, 55, 56
12, 100680, Note_on_c, 11, 55, 113
12, 100725, Note_off_c, 11, 55, 56
12, 100740, Note_on_c, 11, 55, 113
12, 100785, Note_off_c, 11, 55, 56
12, 100800, Note_on_c, 11, 55, 113
12, 100845, Note_off_c, 11, 55, 56
12, 100860, Note_on_c, 11, 55, 113
12, 100905, Note_off_c, 11, 55, 56
12, 100920, Note_on_c, 11, 55, 113
12, 100965, Note_off_c, 11, 55, 56
12, 100980, Note_on_c, 11, 55, 113
12, 101025, Note_off_c, 11, 55, 56
12, 101040, Note_on_c, 11, 55, 113
12, 101085, Note_off_c, 11, 55, 56
12, 101100, Note_on_c, 11, 55, 113
12, 101145, Note_off_c, 11, 55, 56
12, 101160, Note_on_c, 11, 55, 113
12, 101205, Note_off_c, 11, 55, 56
12, 101220, Note_on_c, 11, 55, 113
12, 101265, Note_off_c, 11, 55, 56
12, 101280, Note_on_c, 11, 55, 113
12, 101325, Note_off_c, 11, 55, 56
12, 101340, Note_on_c, 11, 55, 113
12, 101385, Note_off_c, 11, 55, 56
12, 101400, Note_on_c, 11, 55, 113
12, 101445, Note_off_c, 11, 55, 56
12, 101460, Note_on_c, 11, 55, 113
12, 101505, Note_off_c, 11, 55, 56
12, 101520, Note_on_c, 11, 55, 113
12, 101565, Note_off_c, 11, 55, 56
12, 101580, Note_on_c, 11, 55, 113
12, 101625, Note_off_c, 11, 55, 56
12, 101640, Note_on_c, 11, 55, 113
12, 101685, Note_off_c, 11, 55, 56
12, 101700, Note_on_c, 11, 55, 113
12, 101745, Note_off_c, 11, 55, 56
12, 101759, Note_on_c, 11, 55, 108
12, 101761, Note_on_c, 11, 62, 108
12, 101776, Control_c, 11, 7, 100
12, 101784, Control_c, 11, 0, 0
12, 101784, Control_c, 11, 32, 8
12, 101784, Program_c, 11, 50
12, 101827, Note_off_c, 11, 55, 56
12, 101829, Note_off_c, 11, 62, 56
12, 101880, Note_on_c, 11, 79, 108
12, 101988, Note_off_c, 11, 79, 56
12, 101999, Note_on_c, 11, 77, 108
12, 102090, Note_off_c, 11, 77, 56
12, 102120, Note_on_c, 11, 76, 108
12, 102188, Note_off_c, 11, 76, 56
12, 102240, Note_on_c, 11, 74, 108
12, 102308, Note_off_c, 11, 74, 56
12, 102358, Note_on_c, 11, 76, 108
12, 102466, Note_off_c, 11, 76, 56
12, 102479, Note_on_c, 11, 74, 108
12, 102570, Note_off_c, 11, 74, 56
12, 102601, Note_on_c, 11, 72, 108
12, 102669, Note_off_c, 11, 72, 56
12, 102719, Note_on_c, 11, 71, 108
12, 102787, Note_off_c, 11, 71, 56
12, 102841, Note_on_c, 11, 76, 108
12, 102949, Note_off_c, 11, 76, 56
12, 102961, Note_on_c, 11, 74, 108
12, 103052, Note_off_c, 11, 74, 56
12, 103079, Note_on_c, 11, 72, 108
12, 103147, Note_off_c, 11, 72, 56
12, 103201, Note_on_c, 11, 71, 108
12, 103269, Note_off_c, 11, 71, 56
12, 103318, Note_on_c, 11, 72, 108
12, 103426, Note_off_c, 11, 72, 56
12, 103441, Note_on_c, 11, 71, 108
12, 103532, Note_off_c, 11, 71, 56
12, 103560, Note_on_c, 11, 69, 108
12, 103628, Note_off_c, 11, 69, 56
12, 103681, Note_on_c, 11, 67, 108
12, 103749, Note_off_c, 11, 67, 56
12, 103801, Note_on_c, 11, 72, 108
12, 103909, Note_off_c, 11, 72, 56
12, 103920, Note_on_c, 11, 71, 108
12, 104011, Note_off_c, 11, 71, 56
12, 104040, Note_on_c, 11, 69, 108
12, 104108, Note_off_c, 11, 69, 56
12, 104160, Note_on_c, 11, 67, 108
12, 104228, Note_off_c, 11, 67, 56
12, 104282, Note_on_c, 11, 72, 108
12, 104390, Note_off_c, 11, 72, 56
12, 104400, Note_on_c, 11, 71, 108
12, 104491, Note_off_c, 11, 71, 56
12, 104520, Note_on_c, 11, 69, 108
12, 104588, Note_off_c, 11, 69, 56
12, 104641, Note_on_c, 11, 67, 108
12, 104709, Note_off_c, 11, 67, 56
12, 104762, Note_on_c, 11, 72, 108
12, 104870, Note_off_c, 11, 72, 56
12, 104881, Note_on_c, 11, 71, 108
12, 104972, Note_off_c, 11, 71, 56
12, 105001, Note_on_c, 11, 69, 108
12, 105092, Note_off_c, 11, 69, 56
12, 105119, Note_on_c, 11, 67, 108
12, 105187, Note_off_c, 11, 67, 56
12, 105241, Note_on_c, 11, 65, 108
12, 105309, Note_off_c, 11, 65, 56
12, 105359, Note_on_c, 11, 64, 108
12, 105427, Note_off_c, 11, 64, 56
12, 105479, Note_on_c, 11, 62, 108
12, 105547, Note_off_c, 11, 62, 56
12, 105600, Note_on_c, 11, 60, 113
12, 105600, Control_c, 11, 7, 120
12, 105600, Program_c, 11, 44
12, 105645, Note_off_c, 11, 60, 56
12, 105660, Note_on_c, 11, 60, 113
12, 105705, Note_off_c, 11, 60, 56
12, 105720, Note_on_c, 11, 60, 113
12, 105765, Note_off_c, 11, 60, 56
12, 105780, Note_on_c, 11, 60, 113
12, 105825, Note_off_c, 11, 60, 56
12, 105840, Note_on_c, 11, 60, 113
12, 105885, Note_off_c, 11, 60, 56
12, 105900, Note_on_c, 11, 60, 113
12, 105945, Note_off_c, 11, 60, 56
12, 105960, Note_on_c, 11, 60, 113
12, 106005, Note_off_c, 11, 60, 56
12, 106020, Note_on_c, 11, 60, 113
12, 106065, Note_off_c, 11, 60, 56
12, 106080, Note_on_c, 11, 60, 113
12, 106125, Note_off_c, 11, 60, 56
12, 106140, Note_on_c, 11, 60, 113
12, 106185, Note_off_c, 11, 60, 56
12, 106200, Note_on_c, 11, 60, 113
12, 106245, Note_off_c, 11, 60, 56
12, 106260, Note_on_c, 11, 60, 113
12, 106305, Note_off_c, 11, 60, 56
12, 106320, Note_on_c, 11, 60, 113
12, 106365, Note_off_c, 11, 60, 56
12, 106380, Note_on_c, 11, 60, 113
12, 106425, Note_off_c, 11, 60, 56
12, 106440, Note_on_c, 11, 60, 113
12, 106485, Note_off_c, 11, 60, 56
12, 106500, Note_on_c, 11, 60, 113
12, 106545, Note_off_c, 11, 60, 56
12, 106560, Note_on_c, 11, 60, 113
12, 106605, Note_off_c, 11, 60, 56
12, 106620, Note_on_c, 11, 60, 113
12, 106665, Note_off_c, 11, 60, 56
12, 106680, Note_on_c, 11, 60, 113
12, 106725, Note_off_c, 11, 60, 56
12, 106740, Note_on_c, 11, 60, 113
12, 106785, Note_off_c, 11, 60, 56
12, 106800, Note_on_c, 11, 60, 113
12, 106845, Note_off_c, 11, 60, 56
12, 106860, Note_on_c, 11, 60, 113
12, 106905, Note_off_c, 11, 60, 56
12, 106920, Note_on_c, 11, 60, 113
12, 106965, Note_off_c, 11, 60, 56
12, 106980, Note_on_c, 11, 60, 113
12, 107025, Note_off_c, 11, 60, 56
12, 107040, Note_on_c, 11, 60, 113
12, 107085, Note_off_c, 11, 60, 56
12, 107100, Note_on_c, 11, 60, 113
12, 107145, Note_off_c, 11, 60, 56
12, 107160, Note_on_c, 11, 60, 113
12, 107205, Note_off_c, 11, 60, 56
12, 107220, Note_on_c, 11, 60, 113
12, 107265, Note_off_c, 11, 60, 56
12, 107280, Note_on_c, 11, 60, 113
12, 107325, Note_off_c, 11, 60, 56
12, 107340, Note_on_c, 11, 60, 113
12, 107385, Note_off_c, 11, 60, 56
12, 107400, Note_on_c, 11, 60, 113
12, 107445, Note_off_c, 11, 60, 56
12, 107460, Note_on_c, 11, 60, 113
12, 107505, Note_off_c, 11, 60, 56
12, 107520, Note_on_c, 11, 59, 113
12, 107565, Note_off_c, 11, 59, 56
12, 107580, Note_on_c, 11, 59, 113
12, 107625, Note_off_c, 11, 59, 56
12, 107640, Note_on_c, 11, 59, 113
12, 107685, Note_off_c, 11, 59, 56
12, 107700, Note_on_c, 11, 59, 113
12, 107745, Note_off_c, 11, 59, 56
12, 107760, Note_on_c, 11, 59, 113
12, 107805, Note_off_c, 11, 59, 56
12, 107820, Note_on_c, 11, 59, 113
12, 107865, Note_off_c, 11, 59, 56
12, 107880, Note_on_c, 11, 59, 113
12, 107925, Note_off_c, 11, 59, 56
12, 107940, Note_on_c, 11, 59, 113
12, 107985, Note_off_c, 11, 59, 56
12, 108000, Note_on_c, 11, 59, 113
12, 108045, Note_off_c, 11, 59, 56
12, 108060, Note_on_c, 11, 59, 113
12, 108105, Note_off_c, 11, 59, 56
12, 108120, Note_on_c, 11, 59, 113
12, 108165, Note_off_c, 11, 59, 56
12, 108180, Note_on_c, 11, 59, 113
12, 108225, Note_off_c, 11, 59, 56
12, 108240, Note_on_c, 11, 59, 113
12, 108285, Note_off_c, 11, 59, 56
12, 108300, Note_on_c, 11, 59, 113
12, 108345, Note_off_c, 11, 59, 56
12, 108360, Note_on_c, 11, 59, 113
12, 108405, Note_off_c, 11, 59, 56
12, 108420, Note_on_c, 11, 59, 113
12, 108465, Note_off_c, 11, 59, 56
12, 108480, Note_on_c, 11, 59, 113
12, 108525, Note_off_c, 11, 59, 56
12, 108540, Note_on_c, 11, 59, 113
12, 108585, Note_off_c, 11, 59, 56
12, 108600, Note_on_c, 11, 59, 113
12, 108645, Note_off_c, 11, 59, 56
12, 108660, Note_on_c, 11, 59, 113
12, 108705, Note_off_c, 11, 59, 56
12, 108720, Note_on_c, 11, 59, 113
12, 108765, Note_off_c, 11, 59, 56
12, 108780, Note_on_c, 11, 59, 113
12, 108825, Note_off_c, 11, 59, 56
12, 108840, Note_on_c, 11, 59, 113
12, 108885, Note_off_c, 11, 59, 56
12, 108900, Note_on_c, 11, 59, 113
12, 108945, Note_off_c, 11, 59, 56
12, 108960, Note_on_c, 11, 59, 113
12, 109005, Note_off_c, 11, 59, 56
12, 109020, Note_on_c, 11, 59, 113
12, 109065, Note_off_c, 11, 59, 56
12, 109080, Note_on_c, 11, 59, 113
12, 109125, Note_off_c, 11, 59, 56
12, 109140, Note_on_c, 11, 59, 113
12, 109185, Note_off_c, 11, 59, 56
12, 109200, Note_on_c, 11, 59, 113
12, 109245, Note_off_c, 11, 59, 56
12, 109260, Note_on_c, 11, 59, 113
12, 109305, Note_off_c, 11, 59, 56
12, 109320, Note_on_c, 11, 59, 113
12, 109365, Note_off_c, 11, 59, 56
12, 109380, Note_on_c, 11, 59, 113
12, 109425, Note_off_c, 11, 59, 56
12, 109440, Note_on_c, 11, 59, 113
12, 109485, Note_off_c, 11, 59, 56
12, 109500, Note_on_c, 11, 59, 113
12, 109545, Note_off_c, 11, 59, 56
12, 109560, Note_on_c, 11, 59, 113
12, 109605, Note_off_c, 11, 59, 56
12, 109620, Note_on_c, 11, 59, 113
12, 109665, Note_off_c, 11, 59, 56
12, 109680, Note_on_c, 11, 59, 113
12, 109725, Note_off_c, 11, 59, 56
12, 109740, Note_on_c, 11, 59, 113
12, 109785, Note_off_c, 11, 59, 56
12, 109800, Note_on_c, 11, 59, 113
12, 109845, Note_off_c, 11, 59, 56
12, 109860, Note_on_c, 11, 59, 113
12, 109905, Note_off_c, 11, 59, 56
12, 109920, Note_on_c, 11, 59, 113
12, 109965, Note_off_c, 11, 59, 56
12, 109980, Note_on_c, 11, 59, 113
12, 110025, Note_off_c, 11, 59, 56
12, 110040, Note_on_c, 11, 59, 113
12, 110085, Note_off_c, 11, 59, 56
12, 110100, Note_on_c, 11, 59, 113
12, 110145, Note_off_c, 11, 59, 56
12, 110160, Note_on_c, 11, 59, 113
12, 110205, Note_off_c, 11, 59, 56
12, 110220, Note_on_c, 11, 59, 113
12, 110265, Note_off_c, 11, 59, 56
12, 110280, Note_on_c, 11, 59, 113
12, 110325, Note_off_c, 11, 59, 56
12, 110340, Note_on_c, 11, 59, 113
12, 110385, Note_off_c, 11, 59, 56
12, 110400, Note_on_c, 11, 59, 113
12, 110445, Note_off_c, 11, 59, 56
12, 110460, Note_on_c, 11, 59, 113
12, 110505, Note_off_c, 11, 59, 56
12, 110520, Note_on_c, 11, 59, 113
12, 110565, Note_off_c, 11, 59, 56
12, 110580, Note_on_c, 11, 59, 113
12, 110625, Note_off_c, 11, 59, 56
12, 110640, Note_on_c, 11, 59, 113
12, 110685, Note_off_c, 11, 59, 56
12, 110700, Note_on_c, 11, 59, 113
12, 110745, Note_off_c, 11, 59, 56
12, 110760, Note_on_c, 11, 59, 113
12, 110805, Note_off_c, 11, 59, 56
12, 110820, Note_on_c, 11, 59, 113
12, 110865, Note_off_c, 11, 59, 56
12, 110880, Note_on_c, 11, 59, 113
12, 110925, Note_off_c, 11, 59, 56
12, 110940, Note_on_c, 11, 59, 113
12, 110985, Note_off_c, 11, 59, 56
12, 111000, Note_on_c, 11, 59, 113
12, 111045, Note_off_c, 11, 59, 56
12, 111060, Note_on_c, 11, 59, 113
12, 111105, Note_off_c, 11, 59, 56
12, 111120, Note_on_c, 11, 59, 113
12, 111165, Note_off_c, 11, 59, 56
12, 111180, Note_on_c, 11, 59, 113
12, 111225, Note_off_c, 11, 59, 56
12, 111240, Note_on_c, 11, 59, 113
12, 111285, Note_off_c, 11, 59, 56
12, 111300, Note_on_c, 11, 59, 113
12, 111345, Note_off_c, 11, 59, 56
12, 111360, Note_on_c, 11, 60, 113
12, 111405, Note_off_c, 11, 60, 56
12, 111420, Note_on_c, 11, 60, 113
12, 111465, Note_off_c, 11, 60, 56
12, 111480, Note_on_c, 11, 60, 113
12, 111525, Note_off_c, 11, 60, 56
12, 111540, Note_on_c, 11, 60, 113
12, 111585, Note_off_c, 11, 60, 56
12, 111600, Note_on_c, 11, 60, 113
12, 111645, Note_off_c, 11, 60, 56
12, 111660, Note_on_c, 11, 60, 113
12, 111705, Note_off_c, 11, 60, 56
12, 111720, Note_on_c, 11, 60, 113
12, 111765, Note_off_c, 11, 60, 56
12, 111780, Note_on_c, 11, 60, 113
12, 111825, Note_off_c, 11, 60, 56
12, 111840, Note_on_c, 11, 60, 113
12, 111885, Note_off_c, 11, 60, 56
12, 111900, Note_on_c, 11, 60, 113
12, 111945, Note_off_c, 11, 60, 56
12, 111960, Note_on_c, 11, 60, 113
12, 112005, Note_off_c, 11, 60, 56
12, 112020, Note_on_c, 11, 60, 113
12, 112065, Note_off_c, 11, 60, 56
12, 112080, Note_on_c, 11, 60, 113
12, 112125, Note_off_c, 11, 60, 56
12, 112140, Note_on_c, 11, 60, 113
12, 112185, Note_off_c, 11, 60, 56
12, 112200, Note_on_c, 11, 60, 113
12, 112245, Note_off_c, 11, 60, 56
12, 112260, Note_on_c, 11, 60, 113
12, 112305, Note_off_c, 11, 60, 56
12, 112320, Note_on_c, 11, 60, 113
12, 112365, Note_off_c, 11, 60, 56
12, 112380, Note_on_c, 11, 60, 113
12, 112425, Note_off_c, 11, 60, 56
12, 112440, Note_on_c, 11, 60, 113
12, 112485, Note_off_c, 11, 60, 56
12, 112500, Note_on_c, 11, 60, 113
12, 112545, Note_off_c, 11, 60, 56
12, 112560, Note_on_c, 11, 60, 113
12, 112605, Note_off_c, 11, 60, 56
12, 112620, Note_on_c, 11, 60, 113
12, 112665, Note_off_c, 11, 60, 56
12, 112680, Note_on_c, 11, 60, 113
12, 112725, Note_off_c, 11, 60, 56
12, 112740, Note_on_c, 11, 60, 113
12, 112785, Note_off_c, 11, 60, 56
12, 112800, Note_on_c, 11, 60, 113
12, 112845, Note_off_c, 11, 60, 56
12, 112860, Note_on_c, 11, 60, 113
12, 112905, Note_off_c, 11, 60, 56
12, 112920, Note_on_c, 11, 60, 113
12, 112965, Note_off_c, 11, 60, 56
12, 112980, Note_on_c, 11, 60, 113
12, 113025, Note_off_c, 11, 60, 56
12, 113040, Note_on_c, 11, 60, 113
12, 113085, Note_off_c, 11, 60, 56
12, 113100, Note_on_c, 11, 60, 113
12, 113145, Note_off_c, 11, 60, 56
12, 113160, Note_on_c, 11, 60, 113
12, 113205, Note_off_c, 11, 60, 56
12, 113220, Note_on_c, 11, 60, 113
12, 113265, Note_off_c, 11, 60, 56
12, 113277, Note_on_c, 11, 55, 108
12, 113280, Control_c, 11, 7, 100
12, 113281, Note_on_c, 11, 72, 108
12, 113282, Note_on_c, 11, 64, 108
12, 113292, Control_c, 11, 0, 0
12, 113292, Control_c, 11, 32, 8
12, 113292, Program_c, 11, 50
12, 113459, Note_off_c, 11, 55, 64
12, 113463, Note_off_c, 11, 72, 64
12, 113464, Note_off_c, 11, 64, 64
12, 113998, Note_on_c, 11, 60, 108
12, 114214, Note_off_c, 11, 60, 64
12, 114237, Note_on_c, 11, 64, 108
12, 114453, Note_off_c, 11, 64, 64
12, 114477, Note_on_c, 11, 60, 108
12, 114693, Note_off_c, 11, 60, 64
12, 114718, Note_on_c, 11, 67, 108
12, 114934, Note_off_c, 11, 67, 64
12, 114963, Note_on_c, 11, 66, 108
12, 115125, Note_off_c, 11, 66, 64
12, 115140, Note_on_c, 11, 64, 113
12, 115185, Note_off_c, 11, 64, 56
12, 115201, Note_on_c, 11, 66, 108
12, 115777, Note_off_c, 11, 66, 64
12, 115918, Note_on_c, 11, 60, 108
12, 116134, Note_off_c, 11, 60, 64
12, 116157, Note_on_c, 11, 66, 108
12, 116373, Note_off_c, 11, 66, 64
12, 116400, Note_on_c, 11, 60, 108
12, 116616, Note_off_c, 11, 60, 64
12, 116637, Note_on_c, 11, 69, 108
12, 116853, Note_off_c, 11, 69, 64
12, 116878, Note_on_c, 11, 67, 108
12, 117040, Note_off_c, 11, 67, 64
12, 117060, Note_on_c, 11, 66, 113
12, 117105, Note_off_c, 11, 66, 56
12, 117122, Note_on_c, 11, 67, 108
12, 117338, Note_off_c, 11, 67, 64
12, 117357, Note_on_c, 11, 62, 108
12, 117573, Note_off_c, 11, 62, 64
12, 117598, Note_on_c, 11, 71, 108
12, 117814, Note_off_c, 11, 71, 64
12, 117837, Note_on_c, 11, 69, 108
12, 117999, Note_off_c, 11, 69, 64
12, 118019, Note_on_c, 11, 67, 113
12, 118073, Note_off_c, 11, 67, 56
12, 118077, Note_on_c, 11, 66, 108
12, 118365, Note_off_c, 11, 66, 64
12, 118441, Note_on_c, 11, 62, 108
12, 118532, Note_off_c, 11, 62, 56
12, 118559, Note_on_c, 11, 69, 108
12, 118901, Note_off_c, 11, 69, 64
12, 118920, Note_on_c, 11, 67, 113
12, 118974, Note_off_c, 11, 67, 56
12, 118979, Note_on_c, 11, 66, 113
12, 119033, Note_off_c, 11, 66, 56
12, 119037, Note_on_c, 11, 67, 108
12, 119325, Note_off_c, 11, 67, 64
12, 119399, Note_on_c, 11, 62, 108
12, 119490, Note_off_c, 11, 62, 56
12, 119517, Note_on_c, 11, 71, 108
12, 119859, Note_off_c, 11, 71, 64
12, 119881, Note_on_c, 11, 69, 113
12, 119935, Note_off_c, 11, 69, 56
12, 119940, Note_on_c, 11, 67, 113
12, 119985, Note_off_c, 11, 67, 56
12, 119998, Note_on_c, 11, 86, 108
12, 120001, Note_on_c, 11, 74, 108
12, 120574, Note_off_c, 11, 86, 64
12, 120577, Note_off_c, 11, 74, 64
12, 120601, Note_on_c, 11, 86, 108
12, 120709, Note_off_c, 11, 86, 56
12, 120721, Note_on_c, 11, 84, 108
12, 120812, Note_off_c, 11, 84, 56
12, 120840, Note_on_c, 11, 83, 108
12, 120908, Note_off_c, 11, 83, 56
12, 120960, Note_on_c, 11, 81, 108
12, 121028, Note_off_c, 11, 81, 56
12, 121078, Note_on_c, 11, 83, 108
12, 121186, Note_off_c, 11, 83, 56
12, 121201, Note_on_c, 11, 81, 108
12, 121292, Note_off_c, 11, 81, 56
12, 121321, Note_on_c, 11, 79, 108
12, 121389, Note_off_c, 11, 79, 56
12, 121441, Note_on_c, 11, 78, 108
12, 121509, Note_off_c, 11, 78, 56
12, 121562, Note_on_c, 11, 66, 108
12, 121670, Note_off_c, 11, 66, 56
12, 121682, Note_on_c, 11, 67, 108
12, 121790, Note_off_c, 11, 67, 56
12, 121801, Note_on_c, 11, 61, 108
12, 121869, Note_off_c, 11, 61, 56
12, 121920, Note_on_c, 11, 62, 108
12, 122011, Note_off_c, 11, 62, 56
12, 123601, Note_on_c, 11, 57, 113
12, 123661, Note_off_c, 11, 57, 56
12, 123679, Note_on_c, 11, 59, 108
12, 123751, Note_off_c, 11, 59, 56
12, 123759, Note_on_c, 11, 60, 108
12, 123831, Note_off_c, 11, 60, 56
12, 123840, Note_on_c, 11, 62, 113
12, 123900, Note_off_c, 11, 62, 56
12, 123919, Note_on_c, 11, 59, 113
12, 123979, Note_off_c, 11, 59, 56
12, 124001, Note_on_c, 11, 62, 113
12, 124061, Note_off_c, 11, 62, 56
12, 124080, Note_on_c, 11, 62, 113
12, 124140, Note_off_c, 11, 62, 56
12, 124161, Note_on_c, 11, 62, 113
12, 124221, Note_off_c, 11, 62, 56
12, 124239, Note_on_c, 11, 62, 113
12, 124299, Note_off_c, 11, 62, 56
12, 124320, Note_on_c, 11, 60, 113
12, 124380, Note_off_c, 11, 60, 56
12, 124400, Note_on_c, 11, 64, 113
12, 124460, Note_off_c, 11, 64, 56
12, 124481, Note_on_c, 11, 64, 113
12, 124541, Note_off_c, 11, 64, 56
12, 124561, Note_on_c, 11, 64, 113
12, 124621, Note_off_c, 11, 64, 56
12, 124640, Note_on_c, 11, 64, 113
12, 124700, Note_off_c, 11, 64, 56
12, 124720, Note_on_c, 11, 64, 113
12, 124780, Note_off_c, 11, 64, 56
12, 124801, Note_on_c, 11, 59, 113
12, 124861, Note_off_c, 11, 59, 56
12, 124879, Note_on_c, 11, 62, 113
12, 124939, Note_off_c, 11, 62, 56
12, 124960, Note_on_c, 11, 62, 113
12, 125020, Note_off_c, 11, 62, 56
12, 125039, Note_on_c, 11, 62, 113
12, 125099, Note_off_c, 11, 62, 56
12, 125121, Note_on_c, 11, 62, 113
12, 125181, Note_off_c, 11, 62, 56
12, 125200, Note_on_c, 11, 62, 113
12, 125260, Note_off_c, 11, 62, 56
12, 125281, Note_on_c, 11, 62, 108
12, 125463, Note_off_c, 11, 62, 64
12, 125519, Note_on_c, 11, 59, 73
12, 125591, Note_off_c, 11, 59, 56
12, 125600, Note_on_c, 11, 60, 73
12, 125672, Note_off_c, 11, 60, 56
12, 125681, Note_on_c, 11, 62, 73
12, 125753, Note_off_c, 11, 62, 56
12, 125762, Note_on_c, 11, 60, 73
12, 125978, Note_off_c, 11, 60, 64
12, 126001, Note_on_c, 11, 57, 73
12, 126073, Note_off_c, 11, 57, 56
12, 126080, Note_on_c, 11, 59, 73
12, 126152, Note_off_c, 11, 59, 56
12, 126159, Note_on_c, 11, 60, 73
12, 126231, Note_off_c, 11, 60, 56
12, 126239, Note_on_c, 11, 59, 73
12, 126455, Note_off_c, 11, 59, 64
12, 126481, Note_on_c, 11, 55, 73
12, 126553, Note_off_c, 11, 55, 56
12, 126561, Note_on_c, 11, 57, 73
12, 126633, Note_off_c, 11, 57, 56
12, 126641, Note_on_c, 11, 59, 73
12, 126713, Note_off_c, 11, 59, 56
12, 126722, Note_on_c, 11, 60, 73
12, 126904, Note_off_c, 11, 60, 64
12, 126961, Note_on_c, 11, 66, 80
12, 127033, Note_off_c, 11, 66, 56
12, 127039, Note_on_c, 11, 67, 82
12, 127111, Note_off_c, 11, 67, 56
12, 127121, Note_on_c, 11, 69, 90
12, 127181, Note_off_c, 11, 69, 56
12, 127200, Note_on_c, 11, 62, 87
12, 127382, Note_off_c, 11, 62, 64
12, 127440, Note_on_c, 11, 60, 95
12, 127500, Note_off_c, 11, 60, 56
12, 127521, Note_on_c, 11, 59, 95
12, 127581, Note_off_c, 11, 59, 56
12, 127600, Note_on_c, 11, 57, 95
12, 127660, Note_off_c, 11, 57, 56
12, 127681, Note_on_c, 11, 67, 95
12, 127741, Note_off_c, 11, 67, 56
12, 127760, Note_on_c, 11, 79, 95
12, 127820, Note_off_c, 11, 79, 56
12, 127839, Note_on_c, 11, 79, 95
12, 127899, Note_off_c, 11, 79, 56
12, 127919, Note_on_c, 11, 79, 95
12, 127979, Note_off_c, 11, 79, 56
12, 128000, Note_on_c, 11, 78, 95
12, 128060, Note_off_c, 11, 78, 56
12, 128081, Note_on_c, 11, 77, 95
12, 128141, Note_off_c, 11, 77, 56
12, 128159, Note_on_c, 11, 76, 95
12, 128219, Note_off_c, 11, 76, 56
12, 128240, Note_on_c, 11, 76, 95
12, 128300, Note_off_c, 11, 76, 56
12, 128319, Note_on_c, 11, 76, 95
12, 128379, Note_off_c, 11, 76, 56
12, 128399, Note_on_c, 11, 76, 95
12, 128459, Note_off_c, 11, 76, 56
12, 128480, Note_on_c, 11, 74, 95
12, 128540, Note_off_c, 11, 74, 56
12, 128561, Note_on_c, 11, 72, 95
12, 128621, Note_off_c, 11, 72, 56
12, 128639, Note_on_c, 11, 74, 95
12, 128699, Note_off_c, 11, 74, 56
12, 128721, Note_on_c, 11, 62, 95
12, 128781, Note_off_c, 11, 62, 56
12, 128801, Note_on_c, 11, 62, 95
12, 128861, Note_off_c, 11, 62, 56
12, 128879, Note_on_c, 11, 62, 95
12, 128939, Note_off_c, 11, 62, 56
12, 128960, Note_on_c, 11, 62, 95
12, 129020, Note_off_c, 11, 62, 56
12, 129039, Note_on_c, 11, 62, 95
12, 129099, Note_off_c, 11, 62, 56
12, 129119, Note_on_c, 11, 62, 90
12, 129301, Note_off_c, 11, 62, 64
12, 129360, Note_on_c, 11, 59, 73
12, 129432, Note_off_c, 11, 59, 56
12, 129440, Note_on_c, 11, 60, 73
12, 129512, Note_off_c, 11, 60, 56
12, 129521, Note_on_c, 11, 62, 73
12, 129593, Note_off_c, 11, 62, 56
12, 129600, Note_on_c, 11, 60, 73
12, 129816, Note_off_c, 11, 60, 64
12, 129841, Note_on_c, 11, 57, 73
12, 129913, Note_off_c, 11, 57, 56
12, 129919, Note_on_c, 11, 59, 73
12, 129991, Note_off_c, 11, 59, 56
12, 130000, Note_on_c, 11, 60, 73
12, 130072, Note_off_c, 11, 60, 56
12, 130077, Note_on_c, 11, 59, 73
12, 130293, Note_off_c, 11, 59, 64
12, 130321, Note_on_c, 11, 55, 73
12, 130393, Note_off_c, 11, 55, 56
12, 130401, Note_on_c, 11, 57, 73
12, 130473, Note_off_c, 11, 57, 56
12, 130479, Note_on_c, 11, 59, 73
12, 130551, Note_off_c, 11, 59, 56
12, 130557, Note_on_c, 11, 60, 73
12, 130739, Note_off_c, 11, 60, 64
12, 130801, Note_on_c, 11, 62, 95
12, 130861, Note_off_c, 11, 62, 56
12, 130880, Note_on_c, 11, 64, 95
12, 130940, Note_off_c, 11, 64, 56
12, 130959, Note_on_c, 11, 66, 95
12, 131019, Note_off_c, 11, 66, 56
12, 131041, Note_on_c, 11, 67, 90
12, 131223, Note_off_c, 11, 67, 64
12, 131281, Note_on_c, 11, 60, 73
12, 131353, Note_off_c, 11, 60, 56
12, 131360, Note_on_c, 11, 62, 73
12, 131432, Note_off_c, 11, 62, 56
12, 131439, Note_on_c, 11, 64, 73
12, 131511, Note_off_c, 11, 64, 56
12, 131519, Note_on_c, 11, 62, 73
12, 131735, Note_off_c, 11, 62, 64
12, 131759, Note_on_c, 11, 59, 73
12, 131831, Note_off_c, 11, 59, 56
12, 131839, Note_on_c, 11, 60, 73
12, 131911, Note_off_c, 11, 60, 56
12, 131921, Note_on_c, 11, 62, 73
12, 131993, Note_off_c, 11, 62, 56
12, 132000, Note_on_c, 11, 60, 73
12, 132216, Note_off_c, 11, 60, 64
12, 132240, Note_on_c, 11, 57, 73
12, 132312, Note_off_c, 11, 57, 56
12, 132319, Note_on_c, 11, 59, 73
12, 132391, Note_off_c, 11, 59, 56
12, 132401, Note_on_c, 11, 60, 73
12, 132473, Note_off_c, 11, 60, 56
12, 132482, Note_on_c, 11, 62, 73
12, 132664, Note_off_c, 11, 62, 64
12, 132721, Note_on_c, 11, 64, 95
12, 132781, Note_off_c, 11, 64, 56
12, 132799, Note_on_c, 11, 66, 95
12, 132859, Note_off_c, 11, 66, 56
12, 132879, Note_on_c, 11, 68, 95
12, 132939, Note_off_c, 11, 68, 56
12, 132960, Note_on_c, 11, 69, 90
12, 133142, Note_off_c, 11, 69, 64
12, 133199, Note_on_c, 11, 67, 56
12, 133271, Note_off_c, 11, 67, 56
12, 133279, Note_on_c, 11, 65, 56
12, 133351, Note_off_c, 11, 65, 56
12, 133360, Note_on_c, 11, 64, 56
12, 133432, Note_off_c, 11, 64, 56
12, 133442, Note_on_c, 11, 62, 56
12, 133658, Note_off_c, 11, 62, 64
12, 133680, Note_on_c, 11, 65, 56
12, 133752, Note_off_c, 11, 65, 56
12, 133759, Note_on_c, 11, 64, 56
12, 133831, Note_off_c, 11, 64, 56
12, 133840, Note_on_c, 11, 62, 56
12, 133912, Note_off_c, 11, 62, 56
12, 133919, Note_on_c, 11, 60, 56
12, 134135, Note_off_c, 11, 60, 64
12, 134160, Note_on_c, 11, 64, 56
12, 134232, Note_off_c, 11, 64, 56
12, 134239, Note_on_c, 11, 62, 56
12, 134311, Note_off_c, 11, 62, 56
12, 134320, Note_on_c, 11, 60, 56
12, 134392, Note_off_c, 11, 60, 56
12, 134400, Note_on_c, 11, 59, 61
12, 134424, Program_c, 11, 44
12, 134424, Control_c, 11, 7, 120
12, 134445, Note_off_c, 11, 59, 56
12, 134460, Note_on_c, 11, 71, 62
12, 134505, Note_off_c, 11, 71, 56
12, 134520, Note_on_c, 11, 71, 64
12, 134565, Note_off_c, 11, 71, 56
12, 134580, Note_on_c, 11, 71, 65
12, 134625, Note_off_c, 11, 71, 56
12, 134640, Note_on_c, 11, 71, 67
12, 134685, Note_off_c, 11, 71, 56
12, 134700, Note_on_c, 11, 71, 69
12, 134745, Note_off_c, 11, 71, 56
12, 134760, Note_on_c, 11, 71, 70
12, 134805, Note_off_c, 11, 71, 56
12, 134820, Note_on_c, 11, 71, 72
12, 134865, Note_off_c, 11, 71, 56
12, 134880, Note_on_c, 11, 71, 74
12, 134925, Note_off_c, 11, 71, 56
12, 134940, Note_on_c, 11, 71, 75
12, 134985, Note_off_c, 11, 71, 56
12, 135000, Note_on_c, 11, 71, 77
12, 135045, Note_off_c, 11, 71, 56
12, 135060, Note_on_c, 11, 71, 78
12, 135105, Note_off_c, 11, 71, 56
12, 135120, Note_on_c, 11, 71, 80
12, 135165, Note_off_c, 11, 71, 56
12, 135180, Note_on_c, 11, 71, 82
12, 135225, Note_off_c, 11, 71, 56
12, 135240, Note_on_c, 11, 71, 83
12, 135285, Note_off_c, 11, 71, 56
12, 135300, Note_on_c, 11, 71, 85
12, 135345, Note_off_c, 11, 71, 56
12, 135360, Note_on_c, 11, 71, 86
12, 135405, Note_off_c, 11, 71, 56
12, 135420, Note_on_c, 11, 71, 88
12, 135465, Note_off_c, 11, 71, 56
12, 135480, Note_on_c, 11, 71, 90
12, 135525, Note_off_c, 11, 71, 56
12, 135540, Note_on_c, 11, 71, 91
12, 135585, Note_off_c, 11, 71, 56
12, 135600, Note_on_c, 11, 71, 93
12, 135645, Note_off_c, 11, 71, 56
12, 135660, Note_on_c, 11, 71, 94
12, 135705, Note_off_c, 11, 71, 56
12, 135720, Note_on_c, 11, 71, 97
12, 135765, Note_off_c, 11, 71, 56
12, 135780, Note_on_c, 11, 71, 98
12, 135825, Note_off_c, 11, 71, 56
12, 135840, Note_on_c, 11, 71, 99
12, 135885, Note_off_c, 11, 71, 56
12, 135900, Note_on_c, 11, 71, 101
12, 135945, Note_off_c, 11, 71, 56
12, 135960, Note_on_c, 11, 71, 102
12, 136005, Note_off_c, 11, 71, 56
12, 136020, Note_on_c, 11, 71, 105
12, 136065, Note_off_c, 11, 71, 56
12, 136080, Note_on_c, 11, 71, 106
12, 136125, Note_off_c, 11, 71, 56
12, 136140, Note_on_c, 11, 71, 108
12, 136185, Note_off_c, 11, 71, 56
12, 136200, Note_on_c, 11, 71, 109
12, 136200, Note_on_c, 11, 71, 109
12, 136245, Note_off_c, 11, 71, 56
12, 136245, Note_off_c, 11, 71, 56
12, 136260, Note_on_c, 11, 71, 110
12, 136305, Note_off_c, 11, 71, 56
12, 136320, Note_on_c, 11, 72, 113
12, 136365, Note_off_c, 11, 72, 56
12, 136380, Note_on_c, 11, 72, 113
12, 136425, Note_off_c, 11, 72, 56
12, 136440, Note_on_c, 11, 72, 113
12, 136440, Note_on_c, 11, 72, 113
12, 136485, Note_off_c, 11, 72, 56
12, 136485, Note_off_c, 11, 72, 56
12, 136500, Note_on_c, 11, 72, 113
12, 136545, Note_off_c, 11, 72, 56
12, 136560, Note_on_c, 11, 72, 113
12, 136605, Note_off_c, 11, 72, 56
12, 136620, Note_on_c, 11, 72, 113
12, 136665, Note_off_c, 11, 72, 56
12, 136680, Note_on_c, 11, 72, 113
12, 136725, Note_off_c, 11, 72, 56
12, 136740, Note_on_c, 11, 72, 113
12, 136785, Note_off_c, 11, 72, 56
12, 136800, Control_c, 11, 0, 0
12, 136800, Control_c, 11, 32, 8
12, 136800, Program_c, 11, 50
12, 136800, Note_on_c, 11, 72, 113
12, 136808, Control_c, 11, 7, 100
12, 136845, Note_off_c, 11, 72, 56
12, 136860, Note_on_c, 11, 60, 113
12, 136905, Note_off_c, 11, 60, 56
12, 136920, Note_on_c, 11, 62, 113
12, 136965, Note_off_c, 11, 62, 56
12, 136980, Note_on_c, 11, 64, 113
12, 137025, Note_off_c, 11, 64, 56
12, 137040, Note_on_c, 11, 65, 113
12, 137085, Note_off_c, 11, 65, 56
12, 137100, Note_on_c, 11, 67, 113
12, 137145, Note_off_c, 11, 67, 56
12, 137160, Note_on_c, 11, 69, 113
12, 137205, Note_off_c, 11, 69, 56
12, 137220, Note_on_c, 11, 71, 113
12, 137265, Note_off_c, 11, 71, 56
12, 137280, Note_on_c, 11, 72, 113
12, 137325, Note_off_c, 11, 72, 56
12, 137340, Note_on_c, 11, 60, 113
12, 137385, Note_off_c, 11, 60, 56
12, 137400, Note_on_c, 11, 62, 113
12, 137445, Note_off_c, 11, 62, 56
12, 137460, Note_on_c, 11, 64, 113
12, 137505, Note_off_c, 11, 64, 56
12, 137520, Note_on_c, 11, 65, 113
12, 137565, Note_off_c, 11, 65, 56
12, 137580, Note_on_c, 11, 67, 113
12, 137625, Note_off_c, 11, 67, 56
12, 137640, Note_on_c, 11, 69, 113
12, 137685, Note_off_c, 11, 69, 56
12, 137700, Note_on_c, 11, 71, 113
12, 137745, Note_off_c, 11, 71, 56
12, 137760, Note_on_c, 11, 72, 113
12, 137805, Note_off_c, 11, 72, 56
12, 137820, Note_on_c, 11, 64, 113
12, 137865, Note_off_c, 11, 64, 56
12, 137880, Note_on_c, 11, 65, 113
12, 137925, Note_off_c, 11, 65, 56
12, 137940, Note_on_c, 11, 67, 113
12, 137985, Note_off_c, 11, 67, 56
12, 138000, Note_on_c, 11, 69, 113
12, 138045, Note_off_c, 11, 69, 56
12, 138060, Note_on_c, 11, 71, 113
12, 138105, Note_off_c, 11, 71, 56
12, 138120, Note_on_c, 11, 72, 113
12, 138165, Note_off_c, 11, 72, 56
12, 138180, Note_on_c, 11, 74, 113
12, 138225, Note_off_c, 11, 74, 56
12, 138240, Note_on_c, 11, 76, 113
12, 138285, Note_off_c, 11, 76, 56
12, 138300, Note_on_c, 11, 74, 113
12, 138345, Note_off_c, 11, 74, 56
12, 138360, Note_on_c, 11, 76, 113
12, 138405, Note_off_c, 11, 76, 56
12, 138420, Note_on_c, 11, 77, 113
12, 138465, Note_off_c, 11, 77, 56
12, 138480, Note_on_c, 11, 79, 113
12, 138525, Note_off_c, 11, 79, 56
12, 138540, Note_on_c, 11, 79, 113
12, 138585, Note_off_c, 11, 79, 56
12, 138600, Note_on_c, 11, 79, 113
12, 138600, Note_on_c, 11, 79, 113
12, 138645, Note_off_c, 11, 79, 56
12, 138645, Note_off_c, 11, 79, 56
12, 138660, Note_on_c, 11, 79, 113
12, 138705, Note_off_c, 11, 79, 56
12, 138720, Note_on_c, 11, 79, 113
12, 138765, Note_off_c, 11, 79, 56
12, 138780, Note_on_c, 11, 79, 113
12, 138825, Note_off_c, 11, 79, 56
12, 138840, Note_on_c, 11, 79, 113
12, 138840, Note_on_c, 11, 79, 113
12, 138885, Note_off_c, 11, 79, 56
12, 138885, Note_off_c, 11, 79, 56
12, 138900, Note_on_c, 11, 79, 113
12, 138945, Note_off_c, 11, 79, 56
12, 138960, Note_on_c, 11, 79, 113
12, 139005, Note_off_c, 11, 79, 56
12, 139020, Note_on_c, 11, 79, 113
12, 139065, Note_off_c, 11, 79, 56
12, 139080, Note_on_c, 11, 79, 113
12, 139080, Note_on_c, 11, 79, 113
12, 139125, Note_off_c, 11, 79, 56
12, 139125, Note_off_c, 11, 79, 56
12, 139140, Note_on_c, 11, 79, 113
12, 139185, Note_off_c, 11, 79, 56
12, 139200, Note_on_c, 11, 79, 113
12, 139245, Note_off_c, 11, 79, 56
12, 139260, Note_on_c, 11, 79, 113
12, 139305, Note_off_c, 11, 79, 56
12, 139320, Note_on_c, 11, 78, 113
12, 139365, Note_off_c, 11, 78, 56
12, 139380, Note_on_c, 11, 76, 113
12, 139425, Note_off_c, 11, 76, 56
12, 139440, Note_on_c, 11, 74, 113
12, 139485, Note_off_c, 11, 74, 56
12, 139500, Note_on_c, 11, 72, 113
12, 139545, Note_off_c, 11, 72, 56
12, 139560, Note_on_c, 11, 71, 113
12, 139605, Note_off_c, 11, 71, 56
12, 139620, Note_on_c, 11, 69, 113
12, 139665, Note_off_c, 11, 69, 56
12, 139680, Note_on_c, 11, 67, 113
12, 139725, Note_off_c, 11, 67, 56
12, 139740, Note_on_c, 11, 66, 113
12, 139785, Note_off_c, 11, 66, 56
12, 139800, Note_on_c, 11, 64, 113
12, 139845, Note_off_c, 11, 64, 56
12, 139860, Note_on_c, 11, 62, 113
12, 139905, Note_off_c, 11, 62, 56
12, 139920, Note_on_c, 11, 60, 113
12, 139965, Note_off_c, 11, 60, 56
12, 139980, Note_on_c, 11, 59, 113
12, 140025, Note_off_c, 11, 59, 56
12, 140040, Note_on_c, 11, 57, 113
12, 140085, Note_off_c, 11, 57, 56
12, 140100, Note_on_c, 11, 55, 113
12, 140145, Note_off_c, 11, 55, 56
12, 140159, Note_on_c, 11, 69, 108
12, 140295, Note_off_c, 11, 69, 64
12, 141118, Note_on_c, 11, 62, 108
12, 141254, Note_off_c, 11, 62, 64
12, 142557, Note_on_c, 11, 63, 73
12, 143013, Note_off_c, 11, 63, 64
12, 143037, Note_on_c, 11, 64, 73
12, 143219, Note_off_c, 11, 64, 64
12, 144478, Note_on_c, 11, 63, 73
12, 144934, Note_off_c, 11, 63, 64
12, 144958, Note_on_c, 11, 64, 73
12, 145140, Note_off_c, 11, 64, 64
12, 146401, Note_on_c, 11, 68, 73
12, 146857, Note_off_c, 11, 68, 64
12, 146877, Note_on_c, 11, 69, 73
12, 147059, Note_off_c, 11, 69, 64
12, 149760, Note_on_c, 11, 67, 95
12, 149760, Control_c, 11, 7, 120
12, 149760, Program_c, 11, 44
12, 149805, Note_off_c, 11, 67, 56
12, 149820, Note_on_c, 11, 67, 95
12, 149865, Note_off_c, 11, 67, 56
12, 149880, Note_on_c, 11, 67, 95
12, 149925, Note_off_c, 11, 67, 56
12, 149940, Note_on_c, 11, 67, 95
12, 149985, Note_off_c, 11, 67, 56
12, 150000, Note_on_c, 11, 67, 95
12, 150045, Note_off_c, 11, 67, 56
12, 150060, Note_on_c, 11, 67, 95
12, 150105, Note_off_c, 11, 67, 56
12, 150120, Note_on_c, 11, 67, 95
12, 150165, Note_off_c, 11, 67, 56
12, 150180, Note_on_c, 11, 67, 95
12, 150225, Note_off_c, 11, 67, 56
12, 150240, Note_on_c, 11, 67, 95
12, 150285, Note_off_c, 11, 67, 56
12, 150300, Note_on_c, 11, 67, 95
12, 150345, Note_off_c, 11, 67, 56
12, 150360, Note_on_c, 11, 67, 95
12, 150405, Note_off_c, 11, 67, 56
12, 150420, Note_on_c, 11, 67, 95
12, 150465, Note_off_c, 11, 67, 56
12, 150480, Note_on_c, 11, 66, 95
12, 150525, Note_off_c, 11, 66, 56
12, 150540, Note_on_c, 11, 66, 95
12, 150585, Note_off_c, 11, 66, 56
12, 150600, Note_on_c, 11, 66, 95
12, 150645, Note_off_c, 11, 66, 56
12, 150660, Note_on_c, 11, 66, 95
12, 150705, Note_off_c, 11, 66, 56
12, 150720, Note_on_c, 11, 64, 95
12, 150765, Note_off_c, 11, 64, 56
12, 150780, Note_on_c, 11, 64, 95
12, 150825, Note_off_c, 11, 64, 56
12, 150840, Note_on_c, 11, 64, 95
12, 150885, Note_off_c, 11, 64, 56
12, 150900, Note_on_c, 11, 64, 95
12, 150945, Note_off_c, 11, 64, 56
12, 150960, Note_on_c, 11, 62, 95
12, 151005, Note_off_c, 11, 62, 56
12, 151020, Note_on_c, 11, 62, 95
12, 151065, Note_off_c, 11, 62, 56
12, 151080, Note_on_c, 11, 62, 95
12, 151125, Note_off_c, 11, 62, 56
12, 151140, Note_on_c, 11, 62, 95
12, 151185, Note_off_c, 11, 62, 56
12, 151200, Note_on_c, 11, 62, 95
12, 151245, Note_off_c, 11, 62, 56
12, 151260, Note_on_c, 11, 62, 95
12, 151305, Note_off_c, 11, 62, 56
12, 151320, Note_on_c, 11, 62, 95
12, 151365, Note_off_c, 11, 62, 56
12, 151380, Note_on_c, 11, 62, 95
12, 151425, Note_off_c, 11, 62, 56
12, 151440, Note_on_c, 11, 62, 95
12, 151485, Note_off_c, 11, 62, 56
12, 151500, Note_on_c, 11, 62, 95
12, 151545, Note_off_c, 11, 62, 56
12, 151560, Note_on_c, 11, 62, 95
12, 151605, Note_off_c, 11, 62, 56
12, 151620, Note_on_c, 11, 62, 95
12, 151665, Note_off_c, 11, 62, 56
12, 151680, Note_on_c, 11, 67, 95
12, 151725, Note_off_c, 11, 67, 56
12, 151740, Note_on_c, 11, 67, 95
12, 151785, Note_off_c, 11, 67, 56
12, 151800, Note_on_c, 11, 67, 95
12, 151845, Note_off_c, 11, 67, 56
12, 151860, Note_on_c, 11, 67, 95
12, 151905, Note_off_c, 11, 67, 56
12, 151920, Note_on_c, 11, 67, 95
12, 151965, Note_off_c, 11, 67, 56
12, 151980, Note_on_c, 11, 67, 95
12, 152025, Note_off_c, 11, 67, 56
12, 152040, Note_on_c, 11, 67, 95
12, 152085, Note_off_c, 11, 67, 56
12, 152100, Note_on_c, 11, 67, 95
12, 152145, Note_off_c, 11, 67, 56
12, 152160, Note_on_c, 11, 67, 95
12, 152205, Note_off_c, 11, 67, 56
12, 152220, Note_on_c, 11, 67, 95
12, 152265, Note_off_c, 11, 67, 56
12, 152280, Note_on_c, 11, 67, 95
12, 152325, Note_off_c, 11, 67, 56
12, 152340, Note_on_c, 11, 67, 95
12, 152385, Note_off_c, 11, 67, 56
12, 152400, Note_on_c, 11, 66, 95
12, 152445, Note_off_c, 11, 66, 56
12, 152460, Note_on_c, 11, 66, 95
12, 152505, Note_off_c, 11, 66, 56
12, 152520, Note_on_c, 11, 66, 95
12, 152565, Note_off_c, 11, 66, 56
12, 152580, Note_on_c, 11, 66, 95
12, 152625, Note_off_c, 11, 66, 56
12, 152640, Note_on_c, 11, 64, 95
12, 152685, Note_off_c, 11, 64, 56
12, 152700, Note_on_c, 11, 64, 95
12, 152745, Note_off_c, 11, 64, 56
12, 152760, Note_on_c, 11, 64, 95
12, 152805, Note_off_c, 11, 64, 56
12, 152820, Note_on_c, 11, 64, 95
12, 152865, Note_off_c, 11, 64, 56
12, 152880, Note_on_c, 11, 62, 95
12, 152925, Note_off_c, 11, 62, 56
12, 152940, Note_on_c, 11, 62, 95
12, 152985, Note_off_c, 11, 62, 56
12, 153000, Note_on_c, 11, 62, 95
12, 153045, Note_off_c, 11, 62, 56
12, 153060, Note_on_c, 11, 62, 95
12, 153105, Note_off_c, 11, 62, 56
12, 153120, Note_on_c, 11, 62, 95
12, 153165, Note_off_c, 11, 62, 56
12, 153180, Note_on_c, 11, 62, 95
12, 153225, Note_off_c, 11, 62, 56
12, 153240, Note_on_c, 11, 62, 95
12, 153285, Note_off_c, 11, 62, 56
12, 153300, Note_on_c, 11, 62, 95
12, 153345, Note_off_c, 11, 62, 56
12, 153360, Note_on_c, 11, 62, 95
12, 153405, Note_off_c, 11, 62, 56
12, 153420, Note_on_c, 11, 62, 95
12, 153465, Note_off_c, 11, 62, 56
12, 153480, Note_on_c, 11, 62, 95
12, 153525, Note_off_c, 11, 62, 56
12, 153540, Note_on_c, 11, 62, 95
12, 153585, Note_off_c, 11, 62, 56
12, 153600, Note_on_c, 11, 72, 95
12, 153645, Note_off_c, 11, 72, 56
12, 153660, Note_on_c, 11, 72, 95
12, 153705, Note_off_c, 11, 72, 56
12, 153720, Note_on_c, 11, 72, 95
12, 153765, Note_off_c, 11, 72, 56
12, 153780, Note_on_c, 11, 72, 97
12, 153825, Note_off_c, 11, 72, 56
12, 153840, Note_on_c, 11, 72, 97
12, 153885, Note_off_c, 11, 72, 56
12, 153900, Note_on_c, 11, 72, 97
12, 153945, Note_off_c, 11, 72, 56
12, 153960, Note_on_c, 11, 72, 97
12, 154005, Note_off_c, 11, 72, 56
12, 154020, Note_on_c, 11, 72, 98
12, 154065, Note_off_c, 11, 72, 56
12, 154080, Note_on_c, 11, 72, 98
12, 154125, Note_off_c, 11, 72, 56
12, 154140, Note_on_c, 11, 72, 98
12, 154185, Note_off_c, 11, 72, 56
12, 154200, Note_on_c, 11, 72, 98
12, 154245, Note_off_c, 11, 72, 56
12, 154260, Note_on_c, 11, 72, 99
12, 154305, Note_off_c, 11, 72, 56
12, 154320, Note_on_c, 11, 71, 99
12, 154365, Note_off_c, 11, 71, 56
12, 154380, Note_on_c, 11, 71, 99
12, 154425, Note_off_c, 11, 71, 56
12, 154440, Note_on_c, 11, 71, 99
12, 154485, Note_off_c, 11, 71, 56
12, 154500, Note_on_c, 11, 71, 99
12, 154545, Note_off_c, 11, 71, 56
12, 154560, Note_on_c, 11, 69, 100
12, 154605, Note_off_c, 11, 69, 56
12, 154620, Note_on_c, 11, 69, 100
12, 154665, Note_off_c, 11, 69, 56
12, 154680, Note_on_c, 11, 69, 100
12, 154725, Note_off_c, 11, 69, 56
12, 154740, Note_on_c, 11, 69, 100
12, 154785, Note_off_c, 11, 69, 56
12, 154800, Note_on_c, 11, 68, 101
12, 154845, Note_off_c, 11, 68, 56
12, 154860, Note_on_c, 11, 68, 101
12, 154905, Note_off_c, 11, 68, 56
12, 154920, Note_on_c, 11, 68, 101
12, 154965, Note_off_c, 11, 68, 56
12, 154980, Note_on_c, 11, 68, 101
12, 155025, Note_off_c, 11, 68, 56
12, 155040, Note_on_c, 11, 68, 102
12, 155085, Note_off_c, 11, 68, 56
12, 155100, Note_on_c, 11, 68, 102
12, 155145, Note_off_c, 11, 68, 56
12, 155160, Note_on_c, 11, 68, 102
12, 155205, Note_off_c, 11, 68, 56
12, 155220, Note_on_c, 11, 68, 102
12, 155265, Note_off_c, 11, 68, 56
12, 155280, Note_on_c, 11, 68, 102
12, 155325, Note_off_c, 11, 68, 56
12, 155340, Note_on_c, 11, 68, 103
12, 155385, Note_off_c, 11, 68, 56
12, 155400, Note_on_c, 11, 68, 103
12, 155445, Note_off_c, 11, 68, 56
12, 155460, Note_on_c, 11, 68, 103
12, 155505, Note_off_c, 11, 68, 56
12, 155520, Note_on_c, 11, 68, 103
12, 155565, Note_off_c, 11, 68, 56
12, 155580, Note_on_c, 11, 68, 105
12, 155625, Note_off_c, 11, 68, 56
12, 155640, Note_on_c, 11, 68, 105
12, 155685, Note_off_c, 11, 68, 56
12, 155700, Note_on_c, 11, 68, 105
12, 155745, Note_off_c, 11, 68, 56
12, 155760, Note_on_c, 11, 68, 105
12, 155805, Note_off_c, 11, 68, 56
12, 155820, Note_on_c, 11, 68, 106
12, 155865, Note_off_c, 11, 68, 56
12, 155880, Note_on_c, 11, 68, 106
12, 155925, Note_off_c, 11, 68, 56
12, 155940, Note_on_c, 11, 68, 106
12, 155985, Note_off_c, 11, 68, 56
12, 156000, Note_on_c, 11, 68, 106
12, 156045, Note_off_c, 11, 68, 56
12, 156060, Note_on_c, 11, 68, 106
12, 156105, Note_off_c, 11, 68, 56
12, 156120, Note_on_c, 11, 68, 107
12, 156165, Note_off_c, 11, 68, 56
12, 156180, Note_on_c, 11, 68, 107
12, 156225, Note_off_c, 11, 68, 56
12, 156240, Note_on_c, 11, 68, 107
12, 156285, Note_off_c, 11, 68, 56
12, 156300, Note_on_c, 11, 68, 107
12, 156345, Note_off_c, 11, 68, 56
12, 156360, Note_on_c, 11, 68, 108
12, 156405, Note_off_c, 11, 68, 56
12, 156420, Note_on_c, 11, 68, 108
12, 156465, Note_off_c, 11, 68, 56
12, 156480, Note_on_c, 11, 68, 108
12, 156525, Note_off_c, 11, 68, 56
12, 156540, Note_on_c, 11, 68, 108
12, 156585, Note_off_c, 11, 68, 56
12, 156600, Note_on_c, 11, 68, 109
12, 156645, Note_off_c, 11, 68, 56
12, 156660, Note_on_c, 11, 68, 109
12, 156705, Note_off_c, 11, 68, 56
12, 156720, Note_on_c, 11, 84, 109
12, 156765, Note_off_c, 11, 84, 56
12, 156780, Note_on_c, 11, 84, 109
12, 156825, Note_off_c, 11, 84, 56
12, 156840, Note_on_c, 11, 84, 110
12, 156885, Note_off_c, 11, 84, 56
12, 156900, Note_on_c, 11, 84, 110
12, 156945, Note_off_c, 11, 84, 56
12, 156960, Note_on_c, 11, 84, 110
12, 157005, Note_off_c, 11, 84, 56
12, 157020, Note_on_c, 11, 84, 110
12, 157065, Note_off_c, 11, 84, 56
12, 157080, Note_on_c, 11, 84, 110
12, 157125, Note_off_c, 11, 84, 56
12, 157140, Note_on_c, 11, 84, 111
12, 157185, Note_off_c, 11, 84, 56
12, 157200, Note_on_c, 11, 84, 111
12, 157245, Note_off_c, 11, 84, 56
12, 157260, Note_on_c, 11, 84, 111
12, 157305, Note_off_c, 11, 84, 56
12, 157320, Note_on_c, 11, 84, 111
12, 157365, Note_off_c, 11, 84, 56
12, 157380, Note_on_c, 11, 84, 113
12, 157425, Note_off_c, 11, 84, 56
12, 157440, Note_on_c, 11, 80, 108
12, 157440, Control_c, 11, 7, 100
12, 157452, Control_c, 11, 0, 0
12, 157452, Control_c, 11, 32, 8
12, 157452, Program_c, 11, 50
12, 159168, Note_off_c, 11, 80, 64
12, 159360, Note_on_c, 11, 59, 108
12, 159428, Note_off_c, 11, 59, 56
12, 159480, Note_on_c, 11, 55, 108
12, 159548, Note_off_c, 11, 55, 56
12, 159599, Note_on_c, 11, 59, 108
12, 159667, Note_off_c, 11, 59, 56
12, 159719, Note_on_c, 11, 55, 108
12, 159810, Note_off_c, 11, 55, 56
12, 159839, Note_on_c, 11, 59, 108
12, 159930, Note_off_c, 11, 59, 56
12, 159959, Note_on_c, 11, 55, 108
12, 160027, Note_off_c, 11, 55, 56
12, 160081, Note_on_c, 11, 59, 108
12, 160149, Note_off_c, 11, 59, 56
12, 160200, Note_on_c, 11, 55, 108
12, 160291, Note_off_c, 11, 55, 56
12, 160321, Note_on_c, 11, 59, 108
12, 160389, Note_off_c, 11, 59, 56
12, 160440, Note_on_c, 11, 55, 108
12, 160508, Note_off_c, 11, 55, 56
12, 160559, Note_on_c, 11, 62, 108
12, 160627, Note_off_c, 11, 62, 56
12, 160681, Note_on_c, 11, 59, 108
12, 160772, Note_off_c, 11, 59, 56
12, 160799, Note_on_c, 11, 62, 108
12, 160890, Note_off_c, 11, 62, 56
12, 160920, Note_on_c, 11, 59, 108
12, 161011, Note_off_c, 11, 59, 56
12, 161040, Note_on_c, 11, 65, 108
12, 161131, Note_off_c, 11, 65, 56
12, 161160, Note_on_c, 11, 62, 108
12, 161251, Note_off_c, 11, 62, 56
12, 161279, Note_on_c, 11, 65, 108
12, 161347, Note_off_c, 11, 65, 56
12, 161400, Note_on_c, 11, 62, 108
12, 161468, Note_off_c, 11, 62, 56
12, 161521, Note_on_c, 11, 71, 108
12, 161589, Note_off_c, 11, 71, 56
12, 161639, Note_on_c, 11, 65, 108
12, 161707, Note_off_c, 11, 65, 56
12, 161761, Note_on_c, 11, 74, 108
12, 161829, Note_off_c, 11, 74, 56
12, 161881, Note_on_c, 11, 71, 108
12, 161949, Note_off_c, 11, 71, 56
12, 161999, Note_on_c, 11, 77, 108
12, 162067, Note_off_c, 11, 77, 56
12, 162119, Note_on_c, 11, 74, 108
12, 162187, Note_off_c, 11, 74, 56
12, 162240, Note_on_c, 11, 83, 108
12, 162331, Note_off_c, 11, 83, 56
12, 162361, Note_on_c, 11, 77, 108
12, 162452, Note_off_c, 11, 77, 56
12, 162456, Program_c, 11, 44
12, 162456, Control_c, 11, 7, 120
12, 162480, Note_on_c, 11, 74, 113
12, 162525, Note_off_c, 11, 74, 56
12, 162540, Note_on_c, 11, 74, 113
12, 162585, Note_off_c, 11, 74, 56
12, 162600, Note_on_c, 11, 74, 113
12, 162645, Note_off_c, 11, 74, 56
12, 162660, Note_on_c, 11, 74, 113
12, 162705, Note_off_c, 11, 74, 56
12, 162720, Note_on_c, 11, 74, 113
12, 162765, Note_off_c, 11, 74, 56
12, 162780, Note_on_c, 11, 74, 113
12, 162825, Note_off_c, 11, 74, 56
12, 162840, Note_on_c, 11, 74, 113
12, 162885, Note_off_c, 11, 74, 56
12, 162900, Note_on_c, 11, 74, 113
12, 162945, Note_off_c, 11, 74, 56
12, 162960, Note_on_c, 11, 74, 113
12, 163005, Note_off_c, 11, 74, 56
12, 163020, Note_on_c, 11, 74, 113
12, 163065, Note_off_c, 11, 74, 56
12, 163080, Note_on_c, 11, 74, 113
12, 163125, Note_off_c, 11, 74, 56
12, 163140, Note_on_c, 11, 74, 113
12, 163185, Note_off_c, 11, 74, 56
12, 163200, Note_on_c, 11, 74, 113
12, 163245, Note_off_c, 11, 74, 56
12, 163260, Note_on_c, 11, 74, 113
12, 163305, Note_off_c, 11, 74, 56
12, 163320, Note_on_c, 11, 74, 113
12, 163365, Note_off_c, 11, 74, 56
12, 163380, Note_on_c, 11, 74, 113
12, 163425, Note_off_c, 11, 74, 56
12, 163440, Note_on_c, 11, 74, 113
12, 163485, Note_off_c, 11, 74, 56
12, 163500, Note_on_c, 11, 74, 113
12, 163545, Note_off_c, 11, 74, 56
12, 163560, Note_on_c, 11, 74, 113
12, 163605, Note_off_c, 11, 74, 56
12, 163620, Note_on_c, 11, 74, 113
12, 163665, Note_off_c, 11, 74, 56
12, 163680, Note_on_c, 11, 74, 113
12, 163725, Note_off_c, 11, 74, 56
12, 163740, Note_on_c, 11, 74, 113
12, 163785, Note_off_c, 11, 74, 56
12, 163800, Note_on_c, 11, 74, 113
12, 163845, Note_off_c, 11, 74, 56
12, 163860, Note_on_c, 11, 74, 113
12, 163905, Note_off_c, 11, 74, 56
12, 163920, Note_on_c, 11, 74, 113
12, 163965, Note_off_c, 11, 74, 56
12, 163980, Note_on_c, 11, 74, 113
12, 164025, Note_off_c, 11, 74, 56
12, 164040, Note_on_c, 11, 74, 113
12, 164085, Note_off_c, 11, 74, 56
12, 164100, Note_on_c, 11, 74, 113
12, 164145, Note_off_c, 11, 74, 56
12, 164160, Note_on_c, 11, 74, 113
12, 164205, Note_off_c, 11, 74, 56
12, 164220, Note_on_c, 11, 74, 113
12, 164265, Note_off_c, 11, 74, 56
12, 164280, Note_on_c, 11, 74, 113
12, 164325, Note_off_c, 11, 74, 56
12, 164340, Note_on_c, 11, 74, 113
12, 164385, Note_off_c, 11, 74, 56
12, 164400, Note_on_c, 11, 74, 113
12, 164445, Note_off_c, 11, 74, 56
12, 164460, Note_on_c, 11, 74, 113
12, 164505, Note_off_c, 11, 74, 56
12, 164520, Note_on_c, 11, 74, 113
12, 164565, Note_off_c, 11, 74, 56
12, 164580, Note_on_c, 11, 74, 113
12, 164625, Note_off_c, 11, 74, 56
12, 164640, Note_on_c, 11, 74, 113
12, 164685, Note_off_c, 11, 74, 56
12, 164700, Note_on_c, 11, 74, 113
12, 164745, Note_off_c, 11, 74, 56
12, 164760, Note_on_c, 11, 74, 113
12, 164805, Note_off_c, 11, 74, 56
12, 164820, Note_on_c, 11, 74, 113
12, 164865, Note_off_c, 11, 74, 56
12, 164880, Note_on_c, 11, 74, 113
12, 164925, Note_off_c, 11, 74, 56
12, 164940, Note_on_c, 11, 74, 113
12, 164985, Note_off_c, 11, 74, 56
12, 165000, Note_on_c, 11, 74, 113
12, 165045, Note_off_c, 11, 74, 56
12, 165060, Note_on_c, 11, 74, 113
12, 165105, Note_off_c, 11, 74, 56
12, 165120, Control_c, 11, 0, 0
12, 165120, Control_c, 11, 7, 100
12, 165120, Control_c, 11, 32, 8
12, 165120, Program_c, 11, 50
12, 165121, Note_on_c, 11, 64, 108
12, 165212, Note_off_c, 11, 64, 56
12, 165241, Note_on_c, 11, 59, 108
12, 165309, Note_off_c, 11, 59, 56
12, 165359, Note_on_c, 11, 68, 108
12, 165427, Note_off_c, 11, 68, 56
12, 165479, Note_on_c, 11, 64, 108
12, 165547, Note_off_c, 11, 64, 56
12, 165600, Note_on_c, 11, 71, 108
12, 165668, Note_off_c, 11, 71, 56
12, 165719, Note_on_c, 11, 68, 108
12, 165787, Note_off_c, 11, 68, 56
12, 165839, Note_on_c, 11, 76, 108
12, 165907, Note_off_c, 11, 76, 56
12, 165960, Note_on_c, 11, 71, 108
12, 166028, Note_off_c, 11, 71, 56
12, 166080, Note_on_c, 11, 80, 113
12, 166080, Control_c, 11, 7, 120
12, 166080, Program_c, 11, 44
12, 166125, Note_off_c, 11, 80, 56
12, 166140, Note_on_c, 11, 74, 113
12, 166185, Note_off_c, 11, 74, 56
12, 166200, Note_on_c, 11, 74, 113
12, 166245, Note_off_c, 11, 74, 56
12, 166260, Note_on_c, 11, 74, 113
12, 166305, Note_off_c, 11, 74, 56
12, 166320, Note_on_c, 11, 74, 113
12, 166365, Note_off_c, 11, 74, 56
12, 166380, Note_on_c, 11, 74, 113
12, 166425, Note_off_c, 11, 74, 56
12, 166440, Note_on_c, 11, 74, 113
12, 166485, Note_off_c, 11, 74, 56
12, 166500, Note_on_c, 11, 74, 113
12, 166545, Note_off_c, 11, 74, 56
12, 166560, Note_on_c, 11, 74, 113
12, 166605, Note_off_c, 11, 74, 56
12, 166620, Note_on_c, 11, 74, 113
12, 166665, Note_off_c, 11, 74, 56
12, 166680, Note_on_c, 11, 74, 113
12, 166725, Note_off_c, 11, 74, 56
12, 166740, Note_on_c, 11, 74, 113
12, 166785, Note_off_c, 11, 74, 56
12, 166800, Note_on_c, 11, 74, 113
12, 166845, Note_off_c, 11, 74, 56
12, 166860, Note_on_c, 11, 74, 113
12, 166905, Note_off_c, 11, 74, 56
12, 166920, Note_on_c, 11, 74, 113
12, 166965, Note_off_c, 11, 74, 56
12, 166980, Note_on_c, 11, 74, 113
12, 167025, Note_off_c, 11, 74, 56
12, 167039, Note_on_c, 11, 73, 113
12, 167040, Note_on_c, 11, 81, 113
12, 167040, Control_c, 11, 7, 100
12, 167052, Control_c, 11, 0, 0
12, 167052, Control_c, 11, 32, 8
12, 167052, Program_c, 11, 50
12, 167099, Note_off_c, 11, 73, 56
12, 167100, Note_off_c, 11, 81, 56
12, 167120, Note_on_c, 11, 64, 113
12, 167180, Note_off_c, 11, 64, 56
12, 167200, Note_on_c, 11, 64, 113
12, 167260, Note_off_c, 11, 64, 56
12, 167280, Note_on_c, 11, 61, 113
12, 167340, Note_off_c, 11, 61, 56
12, 167360, Note_on_c, 11, 64, 113
12, 167420, Note_off_c, 11, 64, 56
12, 167439, Note_on_c, 11, 64, 113
12, 167499, Note_off_c, 11, 64, 56
12, 167519, Note_on_c, 11, 62, 113
12, 167579, Note_off_c, 11, 62, 56
12, 167601, Note_on_c, 11, 66, 113
12, 167661, Note_off_c, 11, 66, 56
12, 167679, Note_on_c, 11, 66, 113
12, 167739, Note_off_c, 11, 66, 56
12, 167760, Note_on_c, 11, 62, 113
12, 167820, Note_off_c, 11, 62, 56
12, 167840, Note_on_c, 11, 66, 113
12, 167900, Note_off_c, 11, 66, 56
12, 167919, Note_on_c, 11, 66, 113
12, 167979, Note_off_c, 11, 66, 56
12, 167999, Note_on_c, 11, 61, 113
12, 168059, Note_off_c, 11, 61, 56
12, 168081, Note_on_c, 11, 64, 113
12, 168141, Note_off_c, 11, 64, 56
12, 168160, Note_on_c, 11, 64, 113
12, 168220, Note_off_c, 11, 64, 56
12, 168239, Note_on_c, 11, 64, 113
12, 168299, Note_off_c, 11, 64, 56
12, 168319, Note_on_c, 11, 64, 113
12, 168379, Note_off_c, 11, 64, 56
12, 168399, Note_on_c, 11, 64, 113
12, 168459, Note_off_c, 11, 64, 56
12, 168483, Note_on_c, 11, 64, 108
12, 168665, Note_off_c, 11, 64, 64
12, 168719, Note_on_c, 11, 57, 73
12, 168791, Note_off_c, 11, 57, 56
12, 168801, Note_on_c, 11, 59, 73
12, 168873, Note_off_c, 11, 59, 56
12, 168879, Note_on_c, 11, 61, 73
12, 168951, Note_off_c, 11, 61, 56
12, 168959, Note_on_c, 11, 62, 73
12, 169175, Note_off_c, 11, 62, 64
12, 169199, Note_on_c, 11, 59, 73
12, 169271, Note_off_c, 11, 59, 56
12, 169281, Note_on_c, 11, 61, 73
12, 169353, Note_off_c, 11, 61, 56
12, 169359, Note_on_c, 11, 62, 73
12, 169431, Note_off_c, 11, 62, 56
12, 169441, Note_on_c, 11, 61, 73
12, 169657, Note_off_c, 11, 61, 64
12, 169680, Note_on_c, 11, 57, 73
12, 169752, Note_off_c, 11, 57, 56
12, 169759, Note_on_c, 11, 59, 73
12, 169831, Note_off_c, 11, 59, 56
12, 169841, Note_on_c, 11, 61, 73
12, 169913, Note_off_c, 11, 61, 56
12, 169917, Note_on_c, 11, 62, 73
12, 170565, Note_off_c, 11, 62, 64
12, 170640, Note_on_c, 11, 57, 73
12, 170712, Note_off_c, 11, 57, 56
12, 170721, Note_on_c, 11, 59, 73
12, 170793, Note_off_c, 11, 59, 56
12, 170799, Note_on_c, 11, 60, 73
12, 170871, Note_off_c, 11, 60, 56
12, 170881, Note_on_c, 11, 62, 73
12, 171097, Note_off_c, 11, 62, 64
12, 171120, Note_on_c, 11, 59, 73
12, 171192, Note_off_c, 11, 59, 56
12, 171201, Note_on_c, 11, 60, 73
12, 171273, Note_off_c, 11, 60, 56
12, 171279, Note_on_c, 11, 62, 73
12, 171351, Note_off_c, 11, 62, 56
12, 171362, Note_on_c, 11, 60, 73
12, 171578, Note_off_c, 11, 60, 64
12, 171599, Note_on_c, 11, 57, 73
12, 171671, Note_off_c, 11, 57, 56
12, 171679, Note_on_c, 11, 59, 73
12, 171751, Note_off_c, 11, 59, 56
12, 171759, Note_on_c, 11, 60, 73
12, 171831, Note_off_c, 11, 60, 56
12, 171840, Note_on_c, 11, 62, 73
12, 172488, Note_off_c, 11, 62, 64
12, 172559, Note_on_c, 11, 60, 73
12, 172695, Note_off_c, 11, 60, 64
12, 172799, Note_on_c, 11, 58, 73
12, 173255, Note_off_c, 11, 58, 64
12, 173283, Note_on_c, 11, 57, 73
12, 173739, Note_off_c, 11, 57, 64
12, 173758, Note_on_c, 11, 58, 73
12, 174406, Note_off_c, 11, 58, 64
12, 174482, Note_on_c, 11, 57, 73
12, 174618, Note_off_c, 11, 57, 64
12, 174723, Note_on_c, 11, 58, 73
12, 175179, Note_off_c, 11, 58, 64
12, 175202, Note_on_c, 11, 57, 73
12, 175658, Note_off_c, 11, 57, 64
12, 175678, Note_on_c, 11, 58, 73
12, 175883, Note_off_c, 11, 58, 64
12, 177359, Note_on_c, 11, 66, 73
12, 177431, Note_off_c, 11, 66, 56
12, 177441, Note_on_c, 11, 67, 73
12, 177513, Note_off_c, 11, 67, 56
12, 177521, Note_on_c, 11, 69, 73
12, 177593, Note_off_c, 11, 69, 56
12, 177600, Note_on_c, 11, 70, 73
12, 177805, Note_off_c, 11, 70, 64
12, 178320, Note_on_c, 11, 68, 73
12, 178536, Note_off_c, 11, 68, 64
12, 178559, Note_on_c, 11, 67, 73
12, 178775, Note_off_c, 11, 67, 64
12, 178798, Note_on_c, 11, 71, 73
12, 179014, Note_off_c, 11, 71, 64
12, 179041, Note_on_c, 11, 72, 73
12, 179257, Note_off_c, 11, 72, 64
12, 179279, Note_on_c, 11, 72, 73
12, 179735, Note_off_c, 11, 72, 64
12, 181199, Note_on_c, 11, 64, 73
12, 181271, Note_off_c, 11, 64, 56
12, 181279, Note_on_c, 11, 66, 73
12, 181351, Note_off_c, 11, 66, 56
12, 181360, Note_on_c, 11, 68, 73
12, 181432, Note_off_c, 11, 68, 56
12, 181440, Note_on_c, 11, 69, 73
12, 181645, Note_off_c, 11, 69, 64
12, 182162, Note_on_c, 11, 58, 75
12, 182378, Note_off_c, 11, 58, 64
12, 182402, Note_on_c, 11, 58, 80
12, 182618, Note_off_c, 11, 58, 64
12, 182638, Note_on_c, 11, 60, 85
12, 182854, Note_off_c, 11, 60, 64
12, 182881, Note_on_c, 11, 62, 89
12, 183086, Note_off_c, 11, 62, 64
12, 183120, Note_on_c, 11, 65, 90
12, 183192, Note_off_c, 11, 65, 56
12, 183199, Note_on_c, 11, 63, 90
12, 183271, Note_off_c, 11, 63, 56
12, 183281, Note_on_c, 11, 62, 90
12, 183353, Note_off_c, 11, 62, 56
12, 183363, Note_on_c, 11, 60, 90
12, 183579, Note_off_c, 11, 60, 64
12, 183599, Note_on_c, 11, 63, 90
12, 183671, Note_off_c, 11, 63, 56
12, 183679, Note_on_c, 11, 62, 90
12, 183751, Note_off_c, 11, 62, 56
12, 183760, Note_on_c, 11, 60, 90
12, 183832, Note_off_c, 11, 60, 56
12, 183838, Note_on_c, 11, 58, 90
12, 184054, Note_off_c, 11, 58, 64
12, 184079, Note_on_c, 11, 62, 90
12, 184151, Note_off_c, 11, 62, 56
12, 184161, Note_on_c, 11, 60, 90
12, 184233, Note_off_c, 11, 60, 56
12, 184240, Note_on_c, 11, 58, 90
12, 184312, Note_off_c, 11, 58, 56
12, 184318, Note_on_c, 11, 65, 90
12, 184523, Note_off_c, 11, 65, 64
12, 185040, Note_on_c, 11, 69, 95
12, 185100, Note_off_c, 11, 69, 56
12, 185121, Note_on_c, 11, 70, 95
12, 185181, Note_off_c, 11, 70, 56
12, 185200, Note_on_c, 11, 72, 95
12, 185260, Note_off_c, 11, 72, 56
12, 185278, Note_on_c, 11, 65, 90
12, 185483, Note_off_c, 11, 65, 64
12, 186001, Note_on_c, 11, 66, 90
12, 186073, Note_off_c, 11, 66, 56
12, 186079, Note_on_c, 11, 65, 90
12, 186151, Note_off_c, 11, 65, 56
12, 186159, Note_on_c, 11, 63, 90
12, 186231, Note_off_c, 11, 63, 56
12, 186241, Note_on_c, 11, 61, 90
12, 186457, Note_off_c, 11, 61, 64
12, 186481, Note_on_c, 11, 65, 90
12, 186553, Note_off_c, 11, 65, 56
12, 186561, Note_on_c, 11, 63, 90
12, 186633, Note_off_c, 11, 63, 56
12, 186641, Note_on_c, 11, 61, 90
12, 186713, Note_off_c, 11, 61, 56
12, 186719, Note_on_c, 11, 60, 90
12, 186935, Note_off_c, 11, 60, 64
12, 186961, Note_on_c, 11, 63, 90
12, 187033, Note_off_c, 11, 63, 56
12, 187041, Note_on_c, 11, 61, 90
12, 187113, Note_off_c, 11, 61, 56
12, 187119, Note_on_c, 11, 60, 90
12, 187191, Note_off_c, 11, 60, 56
12, 187199, Note_on_c, 11, 58, 90
12, 187404, Note_off_c, 11, 58, 64
12, 187920, Note_on_c, 11, 73, 95
12, 187980, Note_off_c, 11, 73, 56
12, 187999, Note_on_c, 11, 75, 95
12, 188059, Note_off_c, 11, 75, 56
12, 188080, Note_on_c, 11, 77, 95
12, 188140, Note_off_c, 11, 77, 56
12, 188161, Note_on_c, 11, 70, 90
12, 188366, Note_off_c, 11, 70, 64
12, 188881, Note_on_c, 11, 68, 90
12, 188882, Note_on_c, 11, 56, 90
12, 190729, Note_off_c, 11, 68, 64
12, 190730, Note_off_c, 11, 56, 64
12, 190799, Note_on_c, 11, 72, 95
12, 190859, Note_off_c, 11, 72, 56
12, 190879, Note_on_c, 11, 73, 95
12, 190939, Note_off_c, 11, 73, 56
12, 190959, Note_on_c, 11, 75, 95
12, 191019, Note_off_c, 11, 75, 56
12, 191037, Note_on_c, 11, 68, 90
12, 191242, Note_off_c, 11, 68, 64
12, 192001, Note_on_c, 11, 59, 90
12, 193609, Note_off_c, 11, 59, 64
12, 193679, Note_on_c, 11, 74, 95
12, 193739, Note_off_c, 11, 74, 56
12, 193761, Note_on_c, 11, 75, 95
12, 193821, Note_off_c, 11, 75, 56
12, 193840, Note_on_c, 11, 77, 95
12, 193900, Note_off_c, 11, 77, 56
12, 193917, Note_on_c, 11, 71, 90
12, 194122, Note_off_c, 11, 71, 64
12, 194640, Note_on_c, 11, 65, 90
12, 194776, Note_off_c, 11, 65, 64
12, 194881, Note_on_c, 11, 64, 90
12, 195169, Note_off_c, 11, 64, 64
12, 195360, Note_on_c, 11, 65, 90
12, 195648, Note_off_c, 11, 65, 64
12, 195842, Note_on_c, 11, 67, 90
12, 196706, Note_off_c, 11, 67, 64
12, 196799, Note_on_c, 11, 67, 90
12, 197447, Note_off_c, 11, 67, 64
12, 197522, Note_on_c, 11, 65, 90
12, 197658, Note_off_c, 11, 65, 64
12, 197762, Note_on_c, 11, 64, 90
12, 198410, Note_off_c, 11, 64, 64
12, 198479, Note_on_c, 11, 67, 92
12, 198615, Note_off_c, 11, 67, 64
12, 198721, Note_on_c, 11, 65, 92
12, 199369, Note_off_c, 11, 65, 64
12, 199441, Note_on_c, 11, 68, 94
12, 199577, Note_off_c, 11, 68, 64
12, 199677, Note_on_c, 11, 67, 94
12, 200325, Note_off_c, 11, 67, 64
12, 200400, Note_on_c, 11, 70, 95
12, 200536, Note_off_c, 11, 70, 64
12, 200637, Note_on_c, 11, 68, 95
12, 201285, Note_off_c, 11, 68, 64
12, 201358, Note_on_c, 11, 72, 97
12, 201494, Note_off_c, 11, 72, 64
12, 201601, Note_on_c, 11, 71, 97
12, 202249, Note_off_c, 11, 71, 64
12, 202322, Note_on_c, 11, 74, 98
12, 202458, Note_off_c, 11, 74, 64
12, 202559, Note_on_c, 11, 72, 98
12, 203207, Note_off_c, 11, 72, 64
12, 203279, Note_on_c, 11, 75, 101
12, 203415, Note_off_c, 11, 75, 64
12, 203519, Note_on_c, 11, 74, 101
12, 204167, Note_off_c, 11, 74, 64
12, 204240, Note_on_c, 11, 77, 102
12, 204376, Note_off_c, 11, 77, 64
12, 204477, Note_on_c, 11, 75, 102
12, 205125, Note_off_c, 11, 75, 64
12, 205199, Note_on_c, 11, 79, 104
12, 205335, Note_off_c, 11, 79, 64
12, 205440, Control_c, 11, 7, 120
12, 205441, Note_on_c, 11, 69, 109
12, 205444, Program_c, 11, 44
12, 205501, Note_off_c, 11, 69, 56
12, 205519, Note_on_c, 11, 69, 109
12, 205579, Note_off_c, 11, 69, 56
12, 205599, Note_on_c, 11, 69, 109
12, 205659, Note_off_c, 11, 69, 56
12, 205679, Note_on_c, 11, 69, 109
12, 205739, Note_off_c, 11, 69, 56
12, 205760, Note_on_c, 11, 69, 109
12, 205820, Note_off_c, 11, 69, 56
12, 205841, Note_on_c, 11, 69, 110
12, 205901, Note_off_c, 11, 69, 56
12, 205919, Note_on_c, 11, 69, 110
12, 205979, Note_off_c, 11, 69, 56
12, 205999, Note_on_c, 11, 69, 110
12, 206059, Note_off_c, 11, 69, 56
12, 206080, Note_on_c, 11, 69, 110
12, 206140, Note_off_c, 11, 69, 56
12, 206160, Note_on_c, 11, 69, 110
12, 206220, Note_off_c, 11, 69, 56
12, 206240, Note_on_c, 11, 69, 110
12, 206300, Note_off_c, 11, 69, 56
12, 206321, Note_on_c, 11, 69, 110
12, 206381, Note_off_c, 11, 69, 56
12, 206401, Note_on_c, 11, 69, 110
12, 206461, Note_off_c, 11, 69, 56
12, 206480, Note_on_c, 11, 69, 111
12, 206540, Note_off_c, 11, 69, 56
12, 206560, Note_on_c, 11, 69, 111
12, 206620, Note_off_c, 11, 69, 56
12, 206639, Note_on_c, 11, 69, 111
12, 206640, Note_on_c, 11, 69, 111
12, 206699, Note_off_c, 11, 69, 56
12, 206700, Note_off_c, 11, 69, 56
12, 206720, Note_on_c, 11, 69, 111
12, 206780, Note_off_c, 11, 69, 56
12, 206800, Note_on_c, 11, 69, 111
12, 206860, Note_off_c, 11, 69, 56
12, 206879, Note_on_c, 11, 69, 111
12, 206939, Note_off_c, 11, 69, 56
12, 206960, Note_on_c, 11, 69, 111
12, 207020, Note_off_c, 11, 69, 56
12, 207041, Note_on_c, 11, 69, 111
12, 207101, Note_off_c, 11, 69, 56
12, 207121, Note_on_c, 11, 69, 113
12, 207181, Note_off_c, 11, 69, 56
12, 207199, Note_on_c, 11, 69, 113
12, 207259, Note_off_c, 11, 69, 56
12, 207279, Note_on_c, 11, 69, 113
12, 207339, Note_off_c, 11, 69, 56
12, 207358, Note_on_c, 11, 79, 108
12, 207359, Note_on_c, 11, 71, 108
12, 207360, Control_c, 11, 0, 0
12, 207360, Control_c, 11, 7, 100
12, 207360, Control_c, 11, 32, 8
12, 207360, Program_c, 11, 50
12, 208006, Note_off_c, 11, 79, 64
12, 208007, Note_off_c, 11, 71, 64
12, 208079, Note_on_c, 11, 79, 113
12, 208139, Note_off_c, 11, 79, 56
12, 208160, Note_on_c, 11, 77, 113
12, 208220, Note_off_c, 11, 77, 56
12, 208240, Note_on_c, 11, 76, 113
12, 208300, Note_off_c, 11, 76, 56
12, 208321, Note_on_c, 11, 74, 113
12, 208381, Note_off_c, 11, 74, 56
12, 208399, Note_on_c, 11, 73, 113
12, 208459, Note_off_c, 11, 73, 56
12, 208481, Note_on_c, 11, 74, 113
12, 208541, Note_off_c, 11, 74, 56
12, 208560, Note_on_c, 11, 77, 113
12, 208620, Note_off_c, 11, 77, 56
12, 208641, Note_on_c, 11, 76, 113
12, 208701, Note_off_c, 11, 76, 56
12, 208719, Note_on_c, 11, 74, 113
12, 208779, Note_off_c, 11, 74, 56
12, 208800, Note_on_c, 11, 72, 113
12, 208860, Note_off_c, 11, 72, 56
12, 208881, Note_on_c, 11, 71, 113
12, 208941, Note_off_c, 11, 71, 56
12, 208961, Note_on_c, 11, 72, 113
12, 209021, Note_off_c, 11, 72, 56
12, 209040, Note_on_c, 11, 76, 113
12, 209100, Note_off_c, 11, 76, 56
12, 209119, Note_on_c, 11, 74, 113
12, 209179, Note_off_c, 11, 74, 56
12, 209201, Note_on_c, 11, 72, 113
12, 209261, Note_off_c, 11, 72, 56
12, 209280, Note_on_c, 11, 71, 113
12, 209340, Note_off_c, 11, 71, 56
12, 209360, Note_on_c, 11, 69, 113
12, 209420, Note_off_c, 11, 69, 56
12, 209439, Note_on_c, 11, 71, 113
12, 209499, Note_off_c, 11, 71, 56
12, 209521, Note_on_c, 11, 74, 113
12, 209581, Note_off_c, 11, 74, 56
12, 209599, Note_on_c, 11, 72, 113
12, 209659, Note_off_c, 11, 72, 56
12, 209680, Note_on_c, 11, 71, 113
12, 209740, Note_off_c, 11, 71, 56
12, 209760, Note_on_c, 11, 67, 113
12, 209820, Note_off_c, 11, 67, 56
12, 209840, Note_on_c, 11, 77, 113
12, 209900, Note_off_c, 11, 77, 56
12, 209920, Note_on_c, 11, 79, 113
12, 209980, Note_off_c, 11, 79, 56
12, 210000, Note_on_c, 11, 81, 113
12, 210060, Note_off_c, 11, 81, 56
12, 210080, Note_on_c, 11, 79, 113
12, 210140, Note_off_c, 11, 79, 56
12, 210160, Note_on_c, 11, 77, 113
12, 210220, Note_off_c, 11, 77, 56
12, 210240, Note_on_c, 11, 77, 113
12, 210300, Note_off_c, 11, 77, 56
12, 210320, Note_on_c, 11, 76, 113
12, 210380, Note_off_c, 11, 76, 56
12, 210400, Note_on_c, 11, 77, 113
12, 210460, Note_off_c, 11, 77, 56
12, 210479, Note_on_c, 11, 79, 113
12, 210539, Note_off_c, 11, 79, 56
12, 210560, Note_on_c, 11, 77, 113
12, 210620, Note_off_c, 11, 77, 56
12, 210640, Note_on_c, 11, 76, 113
12, 210700, Note_off_c, 11, 76, 56
12, 210721, Note_on_c, 11, 76, 113
12, 210781, Note_off_c, 11, 76, 56
12, 210800, Note_on_c, 11, 74, 113
12, 210860, Note_off_c, 11, 74, 56
12, 210881, Note_on_c, 11, 76, 113
12, 210941, Note_off_c, 11, 76, 56
12, 210959, Note_on_c, 11, 77, 113
12, 211019, Note_off_c, 11, 77, 56
12, 211040, Note_on_c, 11, 76, 113
12, 211100, Note_off_c, 11, 76, 56
12, 211121, Note_on_c, 11, 74, 113
12, 211181, Note_off_c, 11, 74, 56
12, 211199, Note_on_c, 11, 74, 113
12, 211259, Note_off_c, 11, 74, 56
12, 211281, Note_on_c, 11, 72, 113
12, 211341, Note_off_c, 11, 72, 56
12, 211360, Note_on_c, 11, 74, 113
12, 211420, Note_off_c, 11, 74, 56
12, 211440, Note_on_c, 11, 76, 113
12, 211500, Note_off_c, 11, 76, 56
12, 211520, Note_on_c, 11, 74, 113
12, 211580, Note_off_c, 11, 74, 56
12, 211601, Note_on_c, 11, 72, 113
12, 211661, Note_off_c, 11, 72, 56
12, 211681, Note_on_c, 11, 72, 113
12, 211741, Note_off_c, 11, 72, 56
12, 211759, Note_on_c, 11, 76, 113
12, 211819, Note_off_c, 11, 76, 56
12, 211840, Note_on_c, 11, 77, 113
12, 211900, Note_off_c, 11, 77, 56
12, 211921, Note_on_c, 11, 79, 113
12, 211981, Note_off_c, 11, 79, 56
12, 212001, Note_on_c, 11, 77, 113
12, 212061, Note_off_c, 11, 77, 56
12, 212081, Note_on_c, 11, 76, 113
12, 212141, Note_off_c, 11, 76, 56
12, 212160, Note_on_c, 11, 74, 113
12, 212220, Note_off_c, 11, 74, 56
12, 212239, Note_on_c, 11, 72, 113
12, 212299, Note_off_c, 11, 72, 56
12, 212321, Note_on_c, 11, 74, 113
12, 212381, Note_off_c, 11, 74, 56
12, 212399, Note_on_c, 11, 77, 113
12, 212459, Note_off_c, 11, 77, 56
12, 212480, Note_on_c, 11, 76, 113
12, 212540, Note_off_c, 11, 76, 56
12, 212559, Note_on_c, 11, 74, 113
12, 212619, Note_off_c, 11, 74, 56
12, 212639, Note_on_c, 11, 76, 113
12, 212699, Note_off_c, 11, 76, 56
12, 212721, Note_on_c, 11, 74, 113
12, 212781, Note_off_c, 11, 74, 56
12, 212800, Note_on_c, 11, 76, 113
12, 212860, Note_off_c, 11, 76, 56
12, 212881, Note_on_c, 11, 79, 113
12, 212941, Note_off_c, 11, 79, 56
12, 212961, Note_on_c, 11, 77, 113
12, 213021, Note_off_c, 11, 77, 56
12, 213039, Note_on_c, 11, 76, 113
12, 213099, Note_off_c, 11, 76, 56
12, 213121, Note_on_c, 11, 77, 113
12, 213181, Note_off_c, 11, 77, 56
12, 213199, Note_on_c, 11, 76, 113
12, 213259, Note_off_c, 11, 76, 56
12, 213281, Note_on_c, 11, 77, 113
12, 213341, Note_off_c, 11, 77, 56
12, 213360, Note_on_c, 11, 81, 113
12, 213420, Note_off_c, 11, 81, 56
12, 213439, Note_on_c, 11, 79, 113
12, 213499, Note_off_c, 11, 79, 56
12, 213521, Note_on_c, 11, 77, 113
12, 213581, Note_off_c, 11, 77, 56
12, 213601, Note_on_c, 11, 77, 113
12, 213661, Note_off_c, 11, 77, 56
12, 213680, Note_on_c, 11, 76, 113
12, 213740, Note_off_c, 11, 76, 56
12, 213759, Note_on_c, 11, 77, 113
12, 213819, Note_off_c, 11, 77, 56
12, 213839, Note_on_c, 11, 81, 113
12, 213899, Note_off_c, 11, 81, 56
12, 213921, Note_on_c, 11, 79, 113
12, 213981, Note_off_c, 11, 79, 56
12, 214001, Note_on_c, 11, 77, 113
12, 214061, Note_off_c, 11, 77, 56
12, 214080, Note_on_c, 11, 76, 113
12, 214140, Note_off_c, 11, 76, 56
12, 214161, Note_on_c, 11, 74, 113
12, 214221, Note_off_c, 11, 74, 56
12, 214239, Note_on_c, 11, 76, 113
12, 214299, Note_off_c, 11, 76, 56
12, 214319, Note_on_c, 11, 79, 113
12, 214379, Note_off_c, 11, 79, 56
12, 214401, Note_on_c, 11, 77, 113
12, 214461, Note_off_c, 11, 77, 56
12, 214479, Note_on_c, 11, 76, 113
12, 214539, Note_off_c, 11, 76, 56
12, 214559, Note_on_c, 11, 77, 113
12, 214619, Note_off_c, 11, 77, 56
12, 214641, Note_on_c, 11, 76, 113
12, 214701, Note_off_c, 11, 76, 56
12, 214720, Note_on_c, 11, 77, 113
12, 214780, Note_off_c, 11, 77, 56
12, 214800, Note_on_c, 11, 81, 113
12, 214860, Note_off_c, 11, 81, 56
12, 214880, Note_on_c, 11, 79, 113
12, 214940, Note_off_c, 11, 79, 56
12, 214961, Note_on_c, 11, 77, 113
12, 215021, Note_off_c, 11, 77, 56
12, 215041, Note_on_c, 11, 79, 113
12, 215092, Control_c, 11, 7, 120
12, 215100, Program_c, 11, 44
12, 215101, Note_off_c, 11, 79, 56
12, 215120, Note_on_c, 11, 76, 113
12, 215180, Note_off_c, 11, 76, 56
12, 215199, Note_on_c, 11, 76, 113
12, 215259, Note_off_c, 11, 76, 56
12, 215279, Note_on_c, 11, 76, 113
12, 215339, Note_off_c, 11, 76, 56
12, 215361, Note_on_c, 11, 76, 113
12, 215421, Note_off_c, 11, 76, 56
12, 215441, Note_on_c, 11, 76, 113
12, 215501, Note_off_c, 11, 76, 56
12, 215520, Note_on_c, 11, 76, 113
12, 215580, Note_off_c, 11, 76, 56
12, 215600, Note_on_c, 11, 76, 113
12, 215660, Note_off_c, 11, 76, 56
12, 215681, Note_on_c, 11, 76, 113
12, 215741, Note_off_c, 11, 76, 56
12, 215761, Note_on_c, 11, 76, 113
12, 215821, Note_off_c, 11, 76, 56
12, 215841, Note_on_c, 11, 76, 113
12, 215901, Note_off_c, 11, 76, 56
12, 215920, Note_on_c, 11, 76, 113
12, 215980, Note_off_c, 11, 76, 56
12, 216001, Note_on_c, 11, 77, 113
12, 216061, Note_off_c, 11, 77, 56
12, 216081, Note_on_c, 11, 77, 113
12, 216141, Note_off_c, 11, 77, 56
12, 216159, Note_on_c, 11, 77, 113
12, 216219, Note_off_c, 11, 77, 56
12, 216241, Note_on_c, 11, 77, 113
12, 216301, Note_off_c, 11, 77, 56
12, 216321, Note_on_c, 11, 77, 113
12, 216381, Note_off_c, 11, 77, 56
12, 216400, Note_on_c, 11, 77, 113
12, 216460, Note_off_c, 11, 77, 56
12, 216480, Note_on_c, 11, 77, 113
12, 216540, Note_off_c, 11, 77, 56
12, 216559, Note_on_c, 11, 77, 113
12, 216619, Note_off_c, 11, 77, 56
12, 216639, Note_on_c, 11, 77, 113
12, 216699, Note_off_c, 11, 77, 56
12, 216721, Note_on_c, 11, 77, 113
12, 216781, Note_off_c, 11, 77, 56
12, 216801, Note_on_c, 11, 77, 113
12, 216861, Note_off_c, 11, 77, 56
12, 216881, Note_on_c, 11, 77, 113
12, 216941, Note_off_c, 11, 77, 56
12, 216961, Note_on_c, 11, 69, 113
12, 217021, Note_off_c, 11, 69, 56
12, 217040, Note_on_c, 11, 69, 113
12, 217100, Note_off_c, 11, 69, 56
12, 217119, Note_on_c, 11, 69, 113
12, 217179, Note_off_c, 11, 69, 56
12, 217200, Note_on_c, 11, 69, 113
12, 217260, Note_off_c, 11, 69, 56
12, 217280, Note_on_c, 11, 69, 113
12, 217340, Note_off_c, 11, 69, 56
12, 217360, Note_on_c, 11, 69, 113
12, 217420, Note_off_c, 11, 69, 56
12, 217441, Note_on_c, 11, 69, 113
12, 217501, Note_off_c, 11, 69, 56
12, 217520, Note_on_c, 11, 69, 113
12, 217580, Note_off_c, 11, 69, 56
12, 217601, Note_on_c, 11, 69, 113
12, 217661, Note_off_c, 11, 69, 56
12, 217679, Note_on_c, 11, 69, 113
12, 217739, Note_off_c, 11, 69, 56
12, 217759, Note_on_c, 11, 69, 113
12, 217819, Note_off_c, 11, 69, 56
12, 217839, Note_on_c, 11, 69, 113
12, 217899, Note_off_c, 11, 69, 56
12, 217921, Note_on_c, 11, 69, 113
12, 217981, Note_off_c, 11, 69, 56
12, 218001, Note_on_c, 11, 69, 113
12, 218061, Note_off_c, 11, 69, 56
12, 218081, Note_on_c, 11, 69, 113
12, 218141, Note_off_c, 11, 69, 56
12, 218159, Note_on_c, 11, 69, 113
12, 218219, Note_off_c, 11, 69, 56
12, 218239, Note_on_c, 11, 69, 113
12, 218299, Note_off_c, 11, 69, 56
12, 218319, Note_on_c, 11, 69, 113
12, 218379, Note_off_c, 11, 69, 56
12, 218400, Note_on_c, 11, 69, 113
12, 218460, Note_off_c, 11, 69, 56
12, 218481, Note_on_c, 11, 69, 113
12, 218541, Note_off_c, 11, 69, 56
12, 218561, Note_on_c, 11, 69, 113
12, 218621, Note_off_c, 11, 69, 56
12, 218641, Note_on_c, 11, 69, 113
12, 218701, Note_off_c, 11, 69, 56
12, 218720, Note_on_c, 11, 69, 113
12, 218780, Note_off_c, 11, 69, 56
12, 218799, Note_on_c, 11, 69, 113
12, 218859, Note_off_c, 11, 69, 56
12, 218879, Note_on_c, 11, 71, 113
12, 218939, Note_off_c, 11, 71, 56
12, 218960, Note_on_c, 11, 71, 113
12, 219020, Note_off_c, 11, 71, 56
12, 219041, Note_on_c, 11, 71, 113
12, 219101, Note_off_c, 11, 71, 56
12, 219121, Note_on_c, 11, 71, 113
12, 219181, Note_off_c, 11, 71, 56
12, 219201, Note_on_c, 11, 71, 113
12, 219261, Note_off_c, 11, 71, 56
12, 219279, Note_on_c, 11, 71, 113
12, 219339, Note_off_c, 11, 71, 56
12, 219360, Note_on_c, 11, 71, 113
12, 219405, Note_off_c, 11, 71, 56
12, 219420, Note_on_c, 11, 71, 113
12, 219465, Note_off_c, 11, 71, 56
12, 219480, Note_on_c, 11, 74, 113
12, 219525, Note_off_c, 11, 74, 56
12, 219540, Note_on_c, 11, 74, 113
12, 219585, Note_off_c, 11, 74, 56
12, 219600, Note_on_c, 11, 71, 113
12, 219645, Note_off_c, 11, 71, 56
12, 219660, Note_on_c, 11, 71, 113
12, 219705, Note_off_c, 11, 71, 56
12, 219720, Note_on_c, 11, 74, 113
12, 219765, Note_off_c, 11, 74, 56
12, 219780, Note_on_c, 11, 74, 113
12, 219825, Note_off_c, 11, 74, 56
12, 219840, Note_on_c, 11, 79, 113
12, 219885, Note_off_c, 11, 79, 56
12, 219900, Note_on_c, 11, 79, 113
12, 219945, Note_off_c, 11, 79, 56
12, 219960, Note_on_c, 11, 79, 113
12, 219960, Note_on_c, 11, 79, 113
12, 220005, Note_off_c, 11, 79, 56
12, 220005, Note_off_c, 11, 79, 56
12, 220020, Note_on_c, 11, 79, 113
12, 220065, Note_off_c, 11, 79, 56
12, 220080, Note_on_c, 11, 79, 113
12, 220125, Note_off_c, 11, 79, 56
12, 220140, Note_on_c, 11, 79, 113
12, 220185, Note_off_c, 11, 79, 56
12, 220200, Note_on_c, 11, 79, 113
12, 220200, Note_on_c, 11, 79, 113
12, 220245, Note_off_c, 11, 79, 56
12, 220245, Note_off_c, 11, 79, 56
12, 220260, Note_on_c, 11, 79, 113
12, 220305, Note_off_c, 11, 79, 56
12, 220320, Note_on_c, 11, 79, 113
12, 220365, Note_off_c, 11, 79, 56
12, 220380, Note_on_c, 11, 79, 113
12, 220425, Note_off_c, 11, 79, 56
12, 220440, Note_on_c, 11, 74, 113
12, 220485, Note_off_c, 11, 74, 56
12, 220500, Note_on_c, 11, 74, 113
12, 220545, Note_off_c, 11, 74, 56
12, 220560, Note_on_c, 11, 71, 113
12, 220605, Note_off_c, 11, 71, 56
12, 220620, Note_on_c, 11, 71, 113
12, 220665, Note_off_c, 11, 71, 56
12, 220680, Note_on_c, 11, 74, 113
12, 220725, Note_off_c, 11, 74, 56
12, 220740, Note_on_c, 11, 74, 113
12, 220785, Note_off_c, 11, 74, 56
12, 220800, Note_on_c, 11, 79, 113
12, 220845, Note_off_c, 11, 79, 56
12, 220860, Note_on_c, 11, 79, 113
12, 220905, Note_off_c, 11, 79, 56
12, 220920, Note_on_c, 11, 74, 113
12, 220965, Note_off_c, 11, 74, 56
12, 220980, Note_on_c, 11, 74, 113
12, 221025, Note_off_c, 11, 74, 56
12, 221040, Note_on_c, 11, 71, 113
12, 221085, Note_off_c, 11, 71, 56
12, 221100, Note_on_c, 11, 71, 113
12, 221145, Note_off_c, 11, 71, 56
12, 221160, Note_on_c, 11, 74, 113
12, 221205, Note_off_c, 11, 74, 56
12, 221220, Note_on_c, 11, 74, 113
12, 221265, Note_off_c, 11, 74, 56
12, 221280, Note_on_c, 11, 74, 113
12, 221325, Note_off_c, 11, 74, 56
12, 221340, Note_on_c, 11, 74, 113
12, 221385, Note_off_c, 11, 74, 56
12, 221400, Note_on_c, 11, 83, 113
12, 221445, Note_off_c, 11, 83, 56
12, 221460, Note_on_c, 11, 83, 113
12, 221505, Note_off_c, 11, 83, 56
12, 221520, Note_on_c, 11, 79, 113
12, 221565, Note_off_c, 11, 79, 56
12, 221580, Note_on_c, 11, 79, 113
12, 221625, Note_off_c, 11, 79, 56
12, 221640, Note_on_c, 11, 83, 113
12, 221685, Note_off_c, 11, 83, 56
12, 221700, Note_on_c, 11, 83, 113
12, 221745, Note_off_c, 11, 83, 56
12, 221760, Note_on_c, 11, 83, 113
12, 221805, Note_off_c, 11, 83, 56
12, 221820, Note_on_c, 11, 83, 113
12, 221865, Note_off_c, 11, 83, 56
12, 221880, Note_on_c, 11, 79, 113
12, 221925, Note_off_c, 11, 79, 56
12, 221940, Note_on_c, 11, 79, 113
12, 221985, Note_off_c, 11, 79, 56
12, 222000, Note_on_c, 11, 74, 113
12, 222045, Note_off_c, 11, 74, 56
12, 222060, Note_on_c, 11, 74, 113
12, 222105, Note_off_c, 11, 74, 56
12, 222120, Note_on_c, 11, 79, 113
12, 222165, Note_off_c, 11, 79, 56
12, 222180, Note_on_c, 11, 79, 113
12, 222225, Note_off_c, 11, 79, 56
12, 222240, Note_on_c, 11, 79, 113
12, 222285, Note_off_c, 11, 79, 56
12, 222300, Note_on_c, 11, 79, 113
12, 222345, Note_off_c, 11, 79, 56
12, 222360, Note_on_c, 11, 74, 113
12, 222405, Note_off_c, 11, 74, 56
12, 222420, Note_on_c, 11, 74, 113
12, 222465, Note_off_c, 11, 74, 56
12, 222480, Note_on_c, 11, 71, 113
12, 222525, Note_off_c, 11, 71, 56
12, 222540, Note_on_c, 11, 71, 113
12, 222585, Note_off_c, 11, 71, 56
12, 222600, Note_on_c, 11, 74, 113
12, 222645, Note_off_c, 11, 74, 56
12, 222660, Note_on_c, 11, 74, 113
12, 222705, Note_off_c, 11, 74, 56
12, 222720, Note_on_c, 11, 74, 113
12, 222765, Note_off_c, 11, 74, 56
12, 222780, Note_on_c, 11, 74, 113
12, 222825, Note_off_c, 11, 74, 56
12, 222840, Note_on_c, 11, 71, 113
12, 222885, Note_off_c, 11, 71, 56
12, 222900, Note_on_c, 11, 71, 113
12, 222945, Note_off_c, 11, 71, 56
12, 222960, Note_on_c, 11, 67, 113
12, 223005, Note_off_c, 11, 67, 56
12, 223020, Note_on_c, 11, 67, 113
12, 223065, Note_off_c, 11, 67, 56
12, 223080, Note_on_c, 11, 71, 113
12, 223125, Note_off_c, 11, 71, 56
12, 223140, Note_on_c, 11, 71, 113
12, 223185, Note_off_c, 11, 71, 56
12, 223200, Note_on_c, 11, 71, 113
12, 223245, Note_off_c, 11, 71, 56
12, 223260, Note_on_c, 11, 71, 113
12, 223305, Note_off_c, 11, 71, 56
12, 223320, Note_on_c, 11, 67, 113
12, 223365, Note_off_c, 11, 67, 56
12, 223380, Note_on_c, 11, 67, 113
12, 223425, Note_off_c, 11, 67, 56
12, 223440, Note_on_c, 11, 62, 113
12, 223485, Note_off_c, 11, 62, 56
12, 223500, Note_on_c, 11, 62, 113
12, 223545, Note_off_c, 11, 62, 56
12, 223560, Note_on_c, 11, 67, 113
12, 223605, Note_off_c, 11, 67, 56
12, 223620, Note_on_c, 11, 67, 113
12, 223665, Note_off_c, 11, 67, 56
12, 223680, Note_on_c, 11, 67, 113
12, 223725, Note_off_c, 11, 67, 56
12, 223740, Note_on_c, 11, 67, 113
12, 223785, Note_off_c, 11, 67, 56
12, 223800, Note_on_c, 11, 62, 113
12, 223845, Note_off_c, 11, 62, 56
12, 223860, Note_on_c, 11, 62, 113
12, 223905, Note_off_c, 11, 62, 56
12, 223920, Note_on_c, 11, 59, 113
12, 223965, Note_off_c, 11, 59, 56
12, 223980, Note_on_c, 11, 59, 113
12, 224025, Note_off_c, 11, 59, 56
12, 224040, Note_on_c, 11, 62, 113
12, 224085, Note_off_c, 11, 62, 56
12, 224100, Note_on_c, 11, 62, 113
12, 224145, Note_off_c, 11, 62, 56
12, 224160, Note_on_c, 11, 67, 113
12, 224205, Note_off_c, 11, 67, 56
12, 224220, Note_on_c, 11, 67, 113
12, 224265, Note_off_c, 11, 67, 56
12, 224280, Note_on_c, 11, 62, 113
12, 224325, Note_off_c, 11, 62, 56
12, 224340, Note_on_c, 11, 62, 113
12, 224385, Note_off_c, 11, 62, 56
12, 224400, Note_on_c, 11, 59, 113
12, 224445, Note_off_c, 11, 59, 56
12, 224460, Note_on_c, 11, 59, 113
12, 224505, Note_off_c, 11, 59, 56
12, 224520, Note_on_c, 11, 62, 113
12, 224565, Note_off_c, 11, 62, 56
12, 224580, Note_on_c, 11, 62, 113
12, 224625, Note_off_c, 11, 62, 56
12, 224638, Note_on_c, 11, 67, 108
12, 224640, Note_on_c, 11, 55, 108
12, 224640, Control_c, 11, 0, 0
12, 224640, Control_c, 11, 7, 100
12, 224640, Control_c, 11, 32, 8
12, 224640, Program_c, 11, 50
12, 225502, Note_off_c, 11, 67, 64
12, 225504, Note_off_c, 11, 55, 64
12, 225599, Note_on_c, 11, 62, 108
12, 225602, Note_on_c, 11, 55, 108
12, 225804, Note_off_c, 11, 62, 64
12, 225807, Note_off_c, 11, 55, 64
12, 226563, Note_on_c, 11, 62, 108
12, 226563, Note_on_c, 11, 55, 108
12, 226768, Note_off_c, 11, 55, 64
12, 226768, Note_off_c, 11, 62, 64
12, 227517, Note_on_c, 11, 55, 108
12, 227518, Note_on_c, 11, 62, 108
12, 227722, Note_off_c, 11, 55, 64
12, 227723, Note_off_c, 11, 62, 64
12, 233277, Note_on_c, 11, 63, 56
12, 233280, Control_c, 11, 11, 85
12, 233280, Program_c, 11, 45
12, 233482, Note_off_c, 11, 63, 64
12, 234001, Note_on_c, 11, 65, 56
12, 234206, Note_off_c, 11, 65, 64
12, 234719, Note_on_c, 11, 63, 56
12, 234924, Note_off_c, 11, 63, 64
12, 235442, Note_on_c, 11, 62, 56
12, 235647, Note_off_c, 11, 62, 64
12, 236163, Note_on_c, 11, 60, 56
12, 236368, Note_off_c, 11, 60, 64
12, 236879, Note_on_c, 11, 60, 56
12, 237084, Note_off_c, 11, 60, 64
12, 237600, Note_on_c, 11, 58, 56
12, 237805, Note_off_c, 11, 58, 64
12, 238318, Note_on_c, 11, 64, 56
12, 238523, Note_off_c, 11, 64, 64
12, 239043, Note_on_c, 11, 68, 56
12, 239248, Note_off_c, 11, 68, 64
12, 239757, Note_on_c, 11, 64, 56
12, 239962, Note_off_c, 11, 64, 64
12, 240478, Note_on_c, 11, 65, 56
12, 240683, Note_off_c, 11, 65, 64
12, 241198, Note_on_c, 11, 60, 56
12, 241403, Note_off_c, 11, 60, 64
12, 241921, Note_on_c, 11, 60, 56
12, 242126, Note_off_c, 11, 60, 64
12, 242640, Note_on_c, 11, 60, 56
12, 242845, Note_off_c, 11, 60, 64
12, 243360, Note_on_c, 11, 59, 56
12, 243565, Note_off_c, 11, 59, 64
12, 245518, Note_on_c, 11, 60, 56
12, 245723, Note_off_c, 11, 60, 64
12, 246243, Note_on_c, 11, 59, 56
12, 246448, Note_off_c, 11, 59, 64
12, 248402, Note_on_c, 11, 60, 56
12, 248607, Note_off_c, 11, 60, 64
12, 249118, Note_on_c, 11, 59, 56
12, 249323, Note_off_c, 11, 59, 64
12, 264960, Note_on_c, 11, 74, 55
12, 264960, Control_c, 11, 7, 120
12, 264960, Control_c, 11, 11, 127
12, 264960, Program_c, 11, 44
12, 265051, Note_off_c, 11, 74, 56
12, 265080, Note_on_c, 11, 74, 59
12, 265171, Note_off_c, 11, 74, 56
12, 265200, Note_on_c, 11, 74, 64
12, 265291, Note_off_c, 11, 74, 56
12, 265319, Note_on_c, 11, 74, 69
12, 265410, Note_off_c, 11, 74, 56
12, 265440, Note_on_c, 11, 74, 73
12, 265531, Note_off_c, 11, 74, 56
12, 265559, Note_on_c, 11, 74, 77
12, 265650, Note_off_c, 11, 74, 56
12, 265679, Note_on_c, 11, 74, 81
12, 265770, Note_off_c, 11, 74, 56
12, 265800, Note_on_c, 11, 74, 86
12, 265891, Note_off_c, 11, 74, 56
12, 265919, Note_on_c, 11, 74, 90
12, 266010, Note_off_c, 11, 74, 56
12, 266041, Note_on_c, 11, 74, 95
12, 266132, Note_off_c, 11, 74, 56
12, 266159, Note_on_c, 11, 74, 98
12, 266250, Note_off_c, 11, 74, 56
12, 266279, Note_on_c, 11, 74, 103
12, 266370, Note_off_c, 11, 74, 56
12, 266400, Note_on_c, 11, 76, 108
12, 266400, Control_c, 11, 0, 0
12, 266400, Control_c, 11, 32, 8
12, 266400, Program_c, 11, 50
12, 266402, Note_on_c, 11, 88, 108
12, 266408, Control_c, 11, 7, 100
12, 266582, Note_off_c, 11, 76, 64
12, 266584, Note_off_c, 11, 88, 64
12, 266881, Note_on_c, 11, 64, 108
12, 266883, Note_on_c, 11, 55, 108
12, 267063, Note_off_c, 11, 64, 64
12, 267065, Note_off_c, 11, 55, 64
12, 267359, Note_on_c, 11, 64, 108
12, 267361, Note_on_c, 11, 55, 108
12, 267541, Note_off_c, 11, 64, 64
12, 267543, Note_off_c, 11, 55, 64
12, 268080, Note_on_c, 11, 55, 108
12, 268080, Note_on_c, 11, 62, 108
12, 268171, Note_off_c, 11, 62, 56
12, 268171, Note_off_c, 11, 55, 56
12, 268319, Note_on_c, 11, 64, 108
12, 268319, Note_on_c, 11, 55, 108
12, 268410, Note_off_c, 11, 55, 56
12, 268410, Note_off_c, 11, 64, 56
12, 268561, Note_on_c, 11, 55, 108
12, 268561, Note_on_c, 11, 65, 108
12, 268652, Note_off_c, 11, 65, 56
12, 268652, Note_off_c, 11, 55, 56
12, 268799, Note_on_c, 11, 64, 108
12, 268799, Note_on_c, 11, 55, 108
12, 268890, Note_off_c, 11, 55, 56
12, 268890, Note_off_c, 11, 64, 56
12, 269039, Note_on_c, 11, 55, 108
12, 269039, Note_on_c, 11, 65, 108
12, 269130, Note_off_c, 11, 65, 56
12, 269130, Note_off_c, 11, 55, 56
12, 269280, Note_on_c, 11, 55, 113
12, 269280, Control_c, 11, 7, 120
12, 269280, Note_on_c, 11, 64, 113
12, 269280, Program_c, 11, 44
12, 269325, Note_off_c, 11, 64, 56
12, 269325, Note_off_c, 11, 55, 56
12, 269340, Note_on_c, 11, 60, 113
12, 269385, Note_off_c, 11, 60, 56
12, 269400, Note_on_c, 11, 60, 113
12, 269445, Note_off_c, 11, 60, 56
12, 269460, Note_on_c, 11, 60, 113
12, 269505, Note_off_c, 11, 60, 56
12, 269520, Note_on_c, 11, 60, 113
12, 269565, Note_off_c, 11, 60, 56
12, 269580, Note_on_c, 11, 60, 113
12, 269625, Note_off_c, 11, 60, 56
12, 269640, Note_on_c, 11, 60, 113
12, 269685, Note_off_c, 11, 60, 56
12, 269700, Note_on_c, 11, 60, 113
12, 269745, Note_off_c, 11, 60, 56
12, 269760, Note_on_c, 11, 60, 113
12, 269805, Note_off_c, 11, 60, 56
12, 269820, Note_on_c, 11, 60, 113
12, 269865, Note_off_c, 11, 60, 56
12, 269880, Note_on_c, 11, 60, 113
12, 269925, Note_off_c, 11, 60, 56
12, 269940, Note_on_c, 11, 60, 113
12, 269985, Note_off_c, 11, 60, 56
12, 270240, Note_on_c, 11, 59, 113
12, 270285, Note_off_c, 11, 59, 56
12, 270300, Note_on_c, 11, 59, 113
12, 270345, Note_off_c, 11, 59, 56
12, 270360, Note_on_c, 11, 59, 113
12, 270405, Note_off_c, 11, 59, 56
12, 270420, Note_on_c, 11, 59, 113
12, 270465, Note_off_c, 11, 59, 56
12, 270480, Note_on_c, 11, 59, 113
12, 270525, Note_off_c, 11, 59, 56
12, 270540, Note_on_c, 11, 59, 113
12, 270540, Note_on_c, 11, 59, 113
12, 270585, Note_off_c, 11, 59, 56
12, 270585, Note_off_c, 11, 59, 56
12, 270600, Note_on_c, 11, 59, 113
12, 270645, Note_off_c, 11, 59, 56
12, 270660, Note_on_c, 11, 59, 113
12, 270705, Note_off_c, 11, 59, 56
12, 270720, Note_on_c, 11, 59, 113
12, 270765, Note_off_c, 11, 59, 56
12, 270780, Note_on_c, 11, 59, 113
12, 270825, Note_off_c, 11, 59, 56
12, 270840, Note_on_c, 11, 59, 113
12, 270885, Note_off_c, 11, 59, 56
12, 270900, Note_on_c, 11, 59, 113
12, 270945, Note_off_c, 11, 59, 56
12, 270960, Note_on_c, 11, 59, 113
12, 271005, Note_off_c, 11, 59, 56
12, 271020, Note_on_c, 11, 59, 113
12, 271065, Note_off_c, 11, 59, 56
12, 271080, Note_on_c, 11, 59, 113
12, 271125, Note_off_c, 11, 59, 56
12, 271140, Note_on_c, 11, 59, 113
12, 271185, Note_off_c, 11, 59, 56
12, 271200, Note_on_c, 11, 60, 113
12, 271245, Note_off_c, 11, 60, 56
12, 271260, Note_on_c, 11, 60, 113
12, 271305, Note_off_c, 11, 60, 56
12, 271320, Note_on_c, 11, 60, 113
12, 271365, Note_off_c, 11, 60, 56
12, 271380, Note_on_c, 11, 60, 113
12, 271425, Note_off_c, 11, 60, 56
12, 271440, Note_on_c, 11, 60, 113
12, 271485, Note_off_c, 11, 60, 56
12, 271500, Note_on_c, 11, 60, 113
12, 271545, Note_off_c, 11, 60, 56
12, 271560, Note_on_c, 11, 60, 113
12, 271605, Note_off_c, 11, 60, 56
12, 271620, Note_on_c, 11, 60, 113
12, 271665, Note_off_c, 11, 60, 56
12, 271680, Note_on_c, 11, 60, 113
12, 271725, Note_off_c, 11, 60, 56
12, 271740, Note_on_c, 11, 60, 113
12, 271785, Note_off_c, 11, 60, 56
12, 271800, Note_on_c, 11, 60, 113
12, 271845, Note_off_c, 11, 60, 56
12, 271860, Note_on_c, 11, 60, 113
12, 271905, Note_off_c, 11, 60, 56
12, 271920, Note_on_c, 11, 60, 113
12, 271965, Note_off_c, 11, 60, 56
12, 271980, Note_on_c, 11, 60, 113
12, 272025, Note_off_c, 11, 60, 56
12, 272040, Note_on_c, 11, 60, 113
12, 272085, Note_off_c, 11, 60, 56
12, 272100, Note_on_c, 11, 60, 113
12, 272145, Note_off_c, 11, 60, 56
12, 272160, Note_on_c, 11, 60, 113
12, 272205, Note_off_c, 11, 60, 56
12, 272220, Note_on_c, 11, 60, 113
12, 272265, Note_off_c, 11, 60, 56
12, 272280, Note_on_c, 11, 60, 113
12, 272325, Note_off_c, 11, 60, 56
12, 272340, Note_on_c, 11, 60, 113
12, 272385, Note_off_c, 11, 60, 56
12, 272400, Note_on_c, 11, 60, 113
12, 272445, Note_off_c, 11, 60, 56
12, 272460, Note_on_c, 11, 60, 113
12, 272505, Note_off_c, 11, 60, 56
12, 272520, Note_on_c, 11, 60, 113
12, 272565, Note_off_c, 11, 60, 56
12, 272580, Note_on_c, 11, 60, 113
12, 272625, Note_off_c, 11, 60, 56
12, 272640, Note_on_c, 11, 60, 113
12, 272685, Note_off_c, 11, 60, 56
12, 272700, Note_on_c, 11, 60, 113
12, 272745, Note_off_c, 11, 60, 56
12, 272760, Note_on_c, 11, 60, 113
12, 272760, Note_on_c, 11, 60, 113
12, 272805, Note_off_c, 11, 60, 56
12, 272805, Note_off_c, 11, 60, 56
12, 272820, Note_on_c, 11, 60, 113
12, 272865, Note_off_c, 11, 60, 56
12, 272880, Note_on_c, 11, 60, 113
12, 272925, Note_off_c, 11, 60, 56
12, 272940, Note_on_c, 11, 60, 113
12, 272985, Note_off_c, 11, 60, 56
12, 273000, Note_on_c, 11, 60, 113
12, 273045, Note_off_c, 11, 60, 56
12, 273060, Note_on_c, 11, 60, 113
12, 273105, Note_off_c, 11, 60, 56
12, 273120, Note_on_c, 11, 60, 113
12, 273165, Note_off_c, 11, 60, 56
12, 273180, Note_on_c, 11, 60, 113
12, 273225, Note_off_c, 11, 60, 56
12, 273240, Note_on_c, 11, 60, 113
12, 273285, Note_off_c, 11, 60, 56
12, 273300, Note_on_c, 11, 60, 113
12, 273345, Note_off_c, 11, 60, 56
12, 273360, Note_on_c, 11, 60, 113
12, 273405, Note_off_c, 11, 60, 56
12, 273420, Note_on_c, 11, 60, 113
12, 273465, Note_off_c, 11, 60, 56
12, 273480, Note_on_c, 11, 60, 113
12, 273525, Note_off_c, 11, 60, 56
12, 273540, Note_on_c, 11, 60, 113
12, 273585, Note_off_c, 11, 60, 56
12, 273600, Note_on_c, 11, 60, 113
12, 273645, Note_off_c, 11, 60, 56
12, 273660, Note_on_c, 11, 60, 113
12, 273705, Note_off_c, 11, 60, 56
12, 273720, Note_on_c, 11, 60, 113
12, 273765, Note_off_c, 11, 60, 56
12, 273780, Note_on_c, 11, 60, 113
12, 273825, Note_off_c, 11, 60, 56
12, 273840, Note_on_c, 11, 60, 113
12, 273885, Note_off_c, 11, 60, 56
12, 273900, Note_on_c, 11, 60, 113
12, 273945, Note_off_c, 11, 60, 56
12, 273960, Note_on_c, 11, 60, 113
12, 274005, Note_off_c, 11, 60, 56
12, 274020, Note_on_c, 11, 60, 113
12, 274065, Note_off_c, 11, 60, 56
12, 274080, Note_on_c, 11, 60, 113
12, 274125, Note_off_c, 11, 60, 56
12, 274140, Note_on_c, 11, 60, 113
12, 274185, Note_off_c, 11, 60, 56
12, 274200, Note_on_c, 11, 60, 113
12, 274245, Note_off_c, 11, 60, 56
12, 274260, Note_on_c, 11, 60, 113
12, 274305, Note_off_c, 11, 60, 56
12, 274320, Note_on_c, 11, 60, 113
12, 274365, Note_off_c, 11, 60, 56
12, 274380, Note_on_c, 11, 60, 113
12, 274425, Note_off_c, 11, 60, 56
12, 274440, Note_on_c, 11, 60, 113
12, 274485, Note_off_c, 11, 60, 56
12, 274500, Note_on_c, 11, 60, 113
12, 274545, Note_off_c, 11, 60, 56
12, 274560, Note_on_c, 11, 60, 113
12, 274605, Note_off_c, 11, 60, 56
12, 274620, Note_on_c, 11, 60, 113
12, 274665, Note_off_c, 11, 60, 56
12, 274680, Note_on_c, 11, 60, 113
12, 274725, Note_off_c, 11, 60, 56
12, 274740, Note_on_c, 11, 60, 113
12, 274785, Note_off_c, 11, 60, 56
12, 274800, Note_on_c, 11, 60, 113
12, 274845, Note_off_c, 11, 60, 56
12, 274860, Note_on_c, 11, 60, 113
12, 274905, Note_off_c, 11, 60, 56
12, 274920, Note_on_c, 11, 60, 113
12, 274965, Note_off_c, 11, 60, 56
12, 274980, Note_on_c, 11, 60, 113
12, 275025, Note_off_c, 11, 60, 56
12, 275040, Note_on_c, 11, 60, 113
12, 275085, Note_off_c, 11, 60, 56
12, 275100, Note_on_c, 11, 60, 113
12, 275145, Note_off_c, 11, 60, 56
12, 275160, Note_on_c, 11, 60, 113
12, 275205, Note_off_c, 11, 60, 56
12, 275220, Note_on_c, 11, 60, 113
12, 275265, Note_off_c, 11, 60, 56
12, 275280, Note_on_c, 11, 60, 113
12, 275325, Note_off_c, 11, 60, 56
12, 275340, Note_on_c, 11, 60, 113
12, 275385, Note_off_c, 11, 60, 56
12, 275400, Note_on_c, 11, 60, 113
12, 275445, Note_off_c, 11, 60, 56
12, 275460, Note_on_c, 11, 60, 113
12, 275505, Note_off_c, 11, 60, 56
12, 275520, Note_on_c, 11, 60, 113
12, 275565, Note_off_c, 11, 60, 56
12, 275580, Note_on_c, 11, 60, 113
12, 275625, Note_off_c, 11, 60, 56
12, 275640, Note_on_c, 11, 60, 113
12, 275685, Note_off_c, 11, 60, 56
12, 275700, Note_on_c, 11, 60, 113
12, 275745, Note_off_c, 11, 60, 56
12, 275760, Note_on_c, 11, 60, 113
12, 275805, Note_off_c, 11, 60, 56
12, 275820, Note_on_c, 11, 60, 113
12, 275865, Note_off_c, 11, 60, 56
12, 275880, Note_on_c, 11, 60, 113
12, 275925, Note_off_c, 11, 60, 56
12, 275940, Note_on_c, 11, 60, 113
12, 275985, Note_off_c, 11, 60, 56
12, 276000, Note_on_c, 11, 60, 113
12, 276045, Note_off_c, 11, 60, 56
12, 276060, Note_on_c, 11, 60, 113
12, 276105, Note_off_c, 11, 60, 56
12, 276120, Note_on_c, 11, 60, 113
12, 276165, Note_off_c, 11, 60, 56
12, 276180, Note_on_c, 11, 60, 113
12, 276225, Note_off_c, 11, 60, 56
12, 276240, Note_on_c, 11, 60, 113
12, 276285, Note_off_c, 11, 60, 56
12, 276300, Note_on_c, 11, 60, 113
12, 276345, Note_off_c, 11, 60, 56
12, 276360, Note_on_c, 11, 60, 113
12, 276405, Note_off_c, 11, 60, 56
12, 276420, Note_on_c, 11, 60, 113
12, 276465, Note_off_c, 11, 60, 56
12, 276480, Note_on_c, 11, 60, 113
12, 276525, Note_off_c, 11, 60, 56
12, 276540, Note_on_c, 11, 60, 113
12, 276585, Note_off_c, 11, 60, 56
12, 276600, Note_on_c, 11, 60, 113
12, 276645, Note_off_c, 11, 60, 56
12, 276660, Note_on_c, 11, 60, 113
12, 276705, Note_off_c, 11, 60, 56
12, 276720, Note_on_c, 11, 60, 113
12, 276765, Note_off_c, 11, 60, 56
12, 276780, Note_on_c, 11, 60, 113
12, 276825, Note_off_c, 11, 60, 56
12, 276840, Note_on_c, 11, 60, 113
12, 276885, Note_off_c, 11, 60, 56
12, 276900, Note_on_c, 11, 60, 113
12, 276945, Note_off_c, 11, 60, 56
12, 276960, Note_on_c, 11, 60, 113
12, 277005, Note_off_c, 11, 60, 56
12, 277020, Note_on_c, 11, 60, 113
12, 277065, Note_off_c, 11, 60, 56
12, 277080, Note_on_c, 11, 60, 113
12, 277125, Note_off_c, 11, 60, 56
12, 277140, Note_on_c, 11, 60, 113
12, 277185, Note_off_c, 11, 60, 56
12, 277200, Note_on_c, 11, 60, 113
12, 277245, Note_off_c, 11, 60, 56
12, 277260, Note_on_c, 11, 60, 113
12, 277305, Note_off_c, 11, 60, 56
12, 277320, Note_on_c, 11, 60, 113
12, 277365, Note_off_c, 11, 60, 56
12, 277380, Note_on_c, 11, 60, 113
12, 277425, Note_off_c, 11, 60, 56
12, 277440, Note_on_c, 11, 60, 113
12, 277485, Note_off_c, 11, 60, 56
12, 277500, Note_on_c, 11, 60, 113
12, 277545, Note_off_c, 11, 60, 56
12, 277560, Note_on_c, 11, 60, 113
12, 277605, Note_off_c, 11, 60, 56
12, 277620, Note_on_c, 11, 60, 113
12, 277665, Note_off_c, 11, 60, 56
12, 277680, Note_on_c, 11, 60, 113
12, 277725, Note_off_c, 11, 60, 56
12, 277740, Note_on_c, 11, 60, 113
12, 277785, Note_off_c, 11, 60, 56
12, 277800, Note_on_c, 11, 60, 113
12, 277845, Note_off_c, 11, 60, 56
12, 277860, Note_on_c, 11, 60, 113
12, 277905, Note_off_c, 11, 60, 56
12, 277920, Note_on_c, 11, 65, 108
12, 277920, Control_c, 11, 7, 100
12, 277921, Note_on_c, 11, 55, 108
12, 277932, Control_c, 11, 0, 0
12, 277932, Control_c, 11, 32, 8
12, 277932, Program_c, 11, 50
12, 278102, Note_off_c, 11, 65, 64
12, 278103, Note_off_c, 11, 55, 64
12, 278158, Note_on_c, 11, 55, 108
12, 278161, Note_on_c, 11, 65, 108
12, 278294, Note_off_c, 11, 55, 64
12, 278297, Note_off_c, 11, 65, 64
12, 278340, Note_on_c, 11, 55, 113
12, 278340, Note_on_c, 11, 65, 113
12, 278385, Note_off_c, 11, 65, 56
12, 278385, Note_off_c, 11, 55, 56
12, 278398, Note_on_c, 11, 64, 108
12, 278401, Note_on_c, 11, 55, 108
12, 278580, Note_off_c, 11, 64, 64
12, 278583, Note_off_c, 11, 55, 64
12, 278641, Note_on_c, 11, 55, 108
12, 278642, Note_on_c, 11, 64, 108
12, 278777, Note_off_c, 11, 55, 64
12, 278778, Note_off_c, 11, 64, 64
12, 278820, Note_on_c, 11, 55, 113
12, 278820, Note_on_c, 11, 64, 113
12, 278865, Note_off_c, 11, 64, 56
12, 278865, Note_off_c, 11, 55, 56
12, 278877, Note_on_c, 11, 55, 108
12, 278882, Note_on_c, 11, 62, 108
12, 279059, Note_off_c, 11, 55, 64
12, 279064, Note_off_c, 11, 62, 64
12, 279118, Note_on_c, 11, 55, 108
12, 279120, Note_on_c, 11, 62, 108
12, 279502, Note_off_c, 11, 55, 64
12, 279504, Note_off_c, 11, 62, 64
12, 279599, Note_on_c, 11, 55, 108
12, 279602, Note_on_c, 11, 64, 108
12, 279735, Note_off_c, 11, 55, 64
12, 279738, Note_off_c, 11, 64, 64
12, 279780, Note_on_c, 11, 55, 113
12, 279780, Note_on_c, 11, 64, 113
12, 279825, Note_off_c, 11, 64, 56
12, 279825, Note_off_c, 11, 55, 56
12, 279840, Note_on_c, 11, 65, 108
12, 279841, Note_on_c, 11, 55, 108
12, 280022, Note_off_c, 11, 65, 64
12, 280023, Note_off_c, 11, 55, 64
12, 280081, Note_on_c, 11, 65, 108
12, 280082, Note_on_c, 11, 55, 108
12, 280217, Note_off_c, 11, 65, 64
12, 280218, Note_off_c, 11, 55, 64
12, 280260, Note_on_c, 11, 55, 113
12, 280260, Note_on_c, 11, 65, 113
12, 280305, Note_off_c, 11, 65, 56
12, 280305, Note_off_c, 11, 55, 56
12, 280321, Note_on_c, 11, 64, 108
12, 280321, Note_on_c, 11, 55, 108
12, 280503, Note_off_c, 11, 55, 64
12, 280503, Note_off_c, 11, 64, 64
12, 280558, Note_on_c, 11, 55, 108
12, 280560, Note_on_c, 11, 64, 108
12, 280694, Note_off_c, 11, 55, 64
12, 280696, Note_off_c, 11, 64, 64
12, 280740, Note_on_c, 11, 55, 113
12, 280740, Note_on_c, 11, 64, 113
12, 280785, Note_off_c, 11, 64, 56
12, 280785, Note_off_c, 11, 55, 56
12, 280802, Note_on_c, 11, 55, 108
12, 280802, Note_on_c, 11, 62, 108
12, 280984, Note_off_c, 11, 62, 64
12, 280984, Note_off_c, 11, 55, 64
12, 281037, Note_on_c, 11, 55, 108
12, 281037, Note_on_c, 11, 62, 108
12, 281421, Note_off_c, 11, 62, 64
12, 281421, Note_off_c, 11, 55, 64
12, 281518, Note_on_c, 11, 64, 108
12, 281522, Note_on_c, 11, 55, 108
12, 281654, Note_off_c, 11, 64, 64
12, 281658, Note_off_c, 11, 55, 64
12, 281700, Note_on_c, 11, 55, 113
12, 281700, Note_on_c, 11, 64, 113
12, 281745, Note_off_c, 11, 64, 56
12, 281745, Note_off_c, 11, 55, 56
12, 281760, Note_on_c, 11, 55, 108
12, 281762, Note_on_c, 11, 65, 108
12, 281896, Note_off_c, 11, 55, 64
12, 281898, Note_off_c, 11, 65, 64
12, 281940, Note_on_c, 11, 65, 113
12, 281940, Note_on_c, 11, 55, 113
12, 281985, Note_off_c, 11, 55, 56
12, 281985, Note_off_c, 11, 65, 56
12, 281998, Note_on_c, 11, 55, 108
12, 282000, Note_on_c, 11, 65, 108
12, 282134, Note_off_c, 11, 55, 64
12, 282136, Note_off_c, 11, 65, 64
12, 282180, Note_on_c, 11, 55, 113
12, 282180, Note_on_c, 11, 65, 113
12, 282225, Note_off_c, 11, 65, 56
12, 282225, Note_off_c, 11, 55, 56
12, 282238, Note_on_c, 11, 64, 108
12, 282239, Note_on_c, 11, 55, 108
12, 282374, Note_off_c, 11, 64, 64
12, 282375, Note_off_c, 11, 55, 64
12, 282420, Note_on_c, 11, 55, 113
12, 282420, Note_on_c, 11, 64, 113
12, 282465, Note_off_c, 11, 64, 56
12, 282465, Note_off_c, 11, 55, 56
12, 282480, Note_on_c, 11, 64, 108
12, 282481, Note_on_c, 11, 55, 108
12, 282616, Note_off_c, 11, 64, 64
12, 282617, Note_off_c, 11, 55, 64
12, 282660, Note_on_c, 11, 55, 113
12, 282660, Note_on_c, 11, 64, 113
12, 282705, Note_off_c, 11, 64, 56
12, 282705, Note_off_c, 11, 55, 56
12, 282720, Note_on_c, 11, 55, 113
12, 282720, Control_c, 11, 7, 120
12, 282720, Program_c, 11, 44
12, 282765, Note_off_c, 11, 55, 56
12, 282780, Note_on_c, 11, 55, 113
12, 282825, Note_off_c, 11, 55, 56
12, 282840, Note_on_c, 11, 55, 113
12, 282885, Note_off_c, 11, 55, 56
12, 282900, Note_on_c, 11, 55, 113
12, 282945, Note_off_c, 11, 55, 56
12, 282960, Note_on_c, 11, 55, 113
12, 283005, Note_off_c, 11, 55, 56
12, 283020, Note_on_c, 11, 55, 113
12, 283065, Note_off_c, 11, 55, 56
12, 283080, Note_on_c, 11, 55, 113
12, 283125, Note_off_c, 11, 55, 56
12, 283140, Note_on_c, 11, 55, 113
12, 283185, Note_off_c, 11, 55, 56
12, 283200, Note_on_c, 11, 55, 113
12, 283245, Note_off_c, 11, 55, 56
12, 283260, Note_on_c, 11, 55, 113
12, 283305, Note_off_c, 11, 55, 56
12, 283320, Note_on_c, 11, 55, 113
12, 283365, Note_off_c, 11, 55, 56
12, 283380, Note_on_c, 11, 55, 113
12, 283425, Note_off_c, 11, 55, 56
12, 283440, Note_on_c, 11, 55, 113
12, 283485, Note_off_c, 11, 55, 56
12, 283500, Note_on_c, 11, 55, 113
12, 283545, Note_off_c, 11, 55, 56
12, 283560, Note_on_c, 11, 55, 113
12, 283605, Note_off_c, 11, 55, 56
12, 283620, Note_on_c, 11, 55, 113
12, 283665, Note_off_c, 11, 55, 56
12, 283680, Note_on_c, 11, 55, 113
12, 283725, Note_off_c, 11, 55, 56
12, 283740, Note_on_c, 11, 55, 113
12, 283785, Note_off_c, 11, 55, 56
12, 283800, Note_on_c, 11, 55, 113
12, 283845, Note_off_c, 11, 55, 56
12, 283860, Note_on_c, 11, 55, 113
12, 283905, Note_off_c, 11, 55, 56
12, 283920, Note_on_c, 11, 55, 113
12, 283965, Note_off_c, 11, 55, 56
12, 283980, Note_on_c, 11, 55, 113
12, 284025, Note_off_c, 11, 55, 56
12, 284040, Note_on_c, 11, 55, 113
12, 284085, Note_off_c, 11, 55, 56
12, 284100, Note_on_c, 11, 55, 113
12, 284145, Note_off_c, 11, 55, 56
12, 284160, Note_on_c, 11, 55, 113
12, 284205, Note_off_c, 11, 55, 56
12, 284220, Note_on_c, 11, 55, 113
12, 284265, Note_off_c, 11, 55, 56
12, 284280, Note_on_c, 11, 55, 113
12, 284325, Note_off_c, 11, 55, 56
12, 284340, Note_on_c, 11, 55, 113
12, 284385, Note_off_c, 11, 55, 56
12, 284400, Note_on_c, 11, 55, 113
12, 284445, Note_off_c, 11, 55, 56
12, 284460, Note_on_c, 11, 55, 113
12, 284505, Note_off_c, 11, 55, 56
12, 284520, Note_on_c, 11, 55, 113
12, 284565, Note_off_c, 11, 55, 56
12, 284580, Note_on_c, 11, 55, 113
12, 284625, Note_off_c, 11, 55, 56
12, 284640, Note_on_c, 11, 55, 113
12, 284685, Note_off_c, 11, 55, 56
12, 284700, Note_on_c, 11, 55, 113
12, 284745, Note_off_c, 11, 55, 56
12, 284760, Note_on_c, 11, 55, 113
12, 284805, Note_off_c, 11, 55, 56
12, 284820, Note_on_c, 11, 55, 113
12, 284865, Note_off_c, 11, 55, 56
12, 284880, Note_on_c, 11, 55, 113
12, 284925, Note_off_c, 11, 55, 56
12, 284940, Note_on_c, 11, 55, 113
12, 284985, Note_off_c, 11, 55, 56
12, 285000, Note_on_c, 11, 55, 113
12, 285045, Note_off_c, 11, 55, 56
12, 285060, Note_on_c, 11, 55, 113
12, 285105, Note_off_c, 11, 55, 56
12, 285120, Note_on_c, 11, 55, 113
12, 285165, Note_off_c, 11, 55, 56
12, 285180, Note_on_c, 11, 55, 113
12, 285225, Note_off_c, 11, 55, 56
12, 285240, Note_on_c, 11, 55, 113
12, 285285, Note_off_c, 11, 55, 56
12, 285300, Note_on_c, 11, 55, 113
12, 285345, Note_off_c, 11, 55, 56
12, 285360, Note_on_c, 11, 55, 113
12, 285405, Note_off_c, 11, 55, 56
12, 285420, Note_on_c, 11, 55, 113
12, 285465, Note_off_c, 11, 55, 56
12, 285480, Note_on_c, 11, 55, 113
12, 285525, Note_off_c, 11, 55, 56
12, 285540, Note_on_c, 11, 55, 113
12, 285585, Note_off_c, 11, 55, 56
12, 285600, Note_on_c, 11, 55, 113
12, 285645, Note_off_c, 11, 55, 56
12, 285660, Note_on_c, 11, 55, 113
12, 285705, Note_off_c, 11, 55, 56
12, 285720, Note_on_c, 11, 55, 113
12, 285765, Note_off_c, 11, 55, 56
12, 285780, Note_on_c, 11, 55, 113
12, 285825, Note_off_c, 11, 55, 56
12, 285840, Note_on_c, 11, 55, 113
12, 285885, Note_off_c, 11, 55, 56
12, 285900, Note_on_c, 11, 55, 113
12, 285945, Note_off_c, 11, 55, 56
12, 285960, Note_on_c, 11, 55, 113
12, 286005, Note_off_c, 11, 55, 56
12, 286020, Note_on_c, 11, 55, 113
12, 286065, Note_off_c, 11, 55, 56
12, 286080, Note_on_c, 11, 55, 113
12, 286125, Note_off_c, 11, 55, 56
12, 286140, Note_on_c, 11, 55, 113
12, 286185, Note_off_c, 11, 55, 56
12, 286200, Note_on_c, 11, 55, 113
12, 286245, Note_off_c, 11, 55, 56
12, 286260, Note_on_c, 11, 55, 113
12, 286305, Note_off_c, 11, 55, 56
12, 286320, Note_on_c, 11, 55, 113
12, 286365, Note_off_c, 11, 55, 56
12, 286380, Note_on_c, 11, 55, 113
12, 286425, Note_off_c, 11, 55, 56
12, 286440, Note_on_c, 11, 55, 113
12, 286485, Note_off_c, 11, 55, 56
12, 286500, Note_on_c, 11, 55, 113
12, 286545, Note_off_c, 11, 55, 56
12, 286559, Note_on_c, 11, 62, 108
12, 286560, Control_c, 11, 0, 0
12, 286560, Control_c, 11, 7, 100
12, 286560, Control_c, 11, 32, 8
12, 286560, Program_c, 11, 50
12, 286561, Note_on_c, 11, 55, 108
12, 286627, Note_off_c, 11, 62, 56
12, 286629, Note_off_c, 11, 55, 56
12, 286679, Note_on_c, 11, 79, 108
12, 286787, Note_off_c, 11, 79, 56
12, 286799, Note_on_c, 11, 77, 108
12, 286890, Note_off_c, 11, 77, 56
12, 286921, Note_on_c, 11, 76, 108
12, 286989, Note_off_c, 11, 76, 56
12, 287041, Note_on_c, 11, 74, 108
12, 287109, Note_off_c, 11, 74, 56
12, 287159, Note_on_c, 11, 76, 108
12, 287267, Note_off_c, 11, 76, 56
12, 287281, Note_on_c, 11, 74, 108
12, 287372, Note_off_c, 11, 74, 56
12, 287399, Note_on_c, 11, 72, 108
12, 287467, Note_off_c, 11, 72, 56
12, 287519, Note_on_c, 11, 71, 108
12, 287587, Note_off_c, 11, 71, 56
12, 287642, Note_on_c, 11, 76, 108
12, 287750, Note_off_c, 11, 76, 56
12, 287761, Note_on_c, 11, 74, 108
12, 287852, Note_off_c, 11, 74, 56
12, 287880, Note_on_c, 11, 72, 108
12, 287948, Note_off_c, 11, 72, 56
12, 288001, Note_on_c, 11, 71, 108
12, 288069, Note_off_c, 11, 71, 56
12, 288120, Note_on_c, 11, 72, 108
12, 288228, Note_off_c, 11, 72, 56
12, 288240, Note_on_c, 11, 71, 108
12, 288331, Note_off_c, 11, 71, 56
12, 288361, Note_on_c, 11, 69, 108
12, 288429, Note_off_c, 11, 69, 56
12, 288480, Note_on_c, 11, 67, 108
12, 288548, Note_off_c, 11, 67, 56
12, 288600, Note_on_c, 11, 72, 108
12, 288708, Note_off_c, 11, 72, 56
12, 288721, Note_on_c, 11, 71, 108
12, 288812, Note_off_c, 11, 71, 56
12, 288839, Note_on_c, 11, 69, 108
12, 288907, Note_off_c, 11, 69, 56
12, 288959, Note_on_c, 11, 67, 108
12, 289027, Note_off_c, 11, 67, 56
12, 289082, Note_on_c, 11, 72, 108
12, 289190, Note_off_c, 11, 72, 56
12, 289201, Note_on_c, 11, 71, 108
12, 289292, Note_off_c, 11, 71, 56
12, 289320, Note_on_c, 11, 69, 108
12, 289388, Note_off_c, 11, 69, 56
12, 289440, Note_on_c, 11, 67, 108
12, 289508, Note_off_c, 11, 67, 56
12, 289562, Note_on_c, 11, 72, 108
12, 289670, Note_off_c, 11, 72, 56
12, 289681, Note_on_c, 11, 71, 108
12, 289772, Note_off_c, 11, 71, 56
12, 289800, Note_on_c, 11, 69, 108
12, 289891, Note_off_c, 11, 69, 56
12, 289921, Note_on_c, 11, 67, 108
12, 289989, Note_off_c, 11, 67, 56
12, 290040, Note_on_c, 11, 65, 108
12, 290108, Note_off_c, 11, 65, 56
12, 290159, Note_on_c, 11, 64, 108
12, 290227, Note_off_c, 11, 64, 56
12, 290280, Note_on_c, 11, 62, 108
12, 290348, Note_off_c, 11, 62, 56
12, 290400, Note_on_c, 11, 60, 113
12, 290400, Control_c, 11, 7, 120
12, 290400, Program_c, 11, 44
12, 290445, Note_off_c, 11, 60, 56
12, 290460, Note_on_c, 11, 60, 113
12, 290505, Note_off_c, 11, 60, 56
12, 290520, Note_on_c, 11, 60, 113
12, 290565, Note_off_c, 11, 60, 56
12, 290580, Note_on_c, 11, 60, 113
12, 290625, Note_off_c, 11, 60, 56
12, 290640, Note_on_c, 11, 60, 113
12, 290685, Note_off_c, 11, 60, 56
12, 290700, Note_on_c, 11, 60, 113
12, 290745, Note_off_c, 11, 60, 56
12, 290760, Note_on_c, 11, 60, 113
12, 290805, Note_off_c, 11, 60, 56
12, 290820, Note_on_c, 11, 60, 113
12, 290865, Note_off_c, 11, 60, 56
12, 290880, Note_on_c, 11, 60, 113
12, 290925, Note_off_c, 11, 60, 56
12, 290940, Note_on_c, 11, 60, 113
12, 290985, Note_off_c, 11, 60, 56
12, 291000, Note_on_c, 11, 60, 113
12, 291045, Note_off_c, 11, 60, 56
12, 291060, Note_on_c, 11, 60, 113
12, 291105, Note_off_c, 11, 60, 56
12, 291120, Note_on_c, 11, 60, 113
12, 291165, Note_off_c, 11, 60, 56
12, 291180, Note_on_c, 11, 60, 113
12, 291225, Note_off_c, 11, 60, 56
12, 291240, Note_on_c, 11, 60, 113
12, 291285, Note_off_c, 11, 60, 56
12, 291300, Note_on_c, 11, 60, 113
12, 291345, Note_off_c, 11, 60, 56
12, 291360, Note_on_c, 11, 60, 113
12, 291405, Note_off_c, 11, 60, 56
12, 291420, Note_on_c, 11, 60, 113
12, 291465, Note_off_c, 11, 60, 56
12, 291480, Note_on_c, 11, 60, 113
12, 291525, Note_off_c, 11, 60, 56
12, 291540, Note_on_c, 11, 60, 113
12, 291585, Note_off_c, 11, 60, 56
12, 291600, Note_on_c, 11, 60, 113
12, 291645, Note_off_c, 11, 60, 56
12, 291660, Note_on_c, 11, 60, 113
12, 291705, Note_off_c, 11, 60, 56
12, 291720, Note_on_c, 11, 60, 113
12, 291765, Note_off_c, 11, 60, 56
12, 291780, Note_on_c, 11, 60, 113
12, 291825, Note_off_c, 11, 60, 56
12, 291840, Note_on_c, 11, 60, 113
12, 291885, Note_off_c, 11, 60, 56
12, 291900, Note_on_c, 11, 60, 113
12, 291945, Note_off_c, 11, 60, 56
12, 291960, Note_on_c, 11, 60, 113
12, 292005, Note_off_c, 11, 60, 56
12, 292020, Note_on_c, 11, 60, 113
12, 292065, Note_off_c, 11, 60, 56
12, 292080, Note_on_c, 11, 60, 113
12, 292125, Note_off_c, 11, 60, 56
12, 292140, Note_on_c, 11, 60, 113
12, 292185, Note_off_c, 11, 60, 56
12, 292200, Note_on_c, 11, 60, 113
12, 292245, Note_off_c, 11, 60, 56
12, 292260, Note_on_c, 11, 60, 113
12, 292305, Note_off_c, 11, 60, 56
12, 292320, Note_on_c, 11, 59, 113
12, 292365, Note_off_c, 11, 59, 56
12, 292380, Note_on_c, 11, 59, 113
12, 292425, Note_off_c, 11, 59, 56
12, 292440, Note_on_c, 11, 59, 113
12, 292485, Note_off_c, 11, 59, 56
12, 292500, Note_on_c, 11, 59, 113
12, 292545, Note_off_c, 11, 59, 56
12, 292560, Note_on_c, 11, 59, 113
12, 292605, Note_off_c, 11, 59, 56
12, 292620, Note_on_c, 11, 59, 113
12, 292665, Note_off_c, 11, 59, 56
12, 292680, Note_on_c, 11, 59, 113
12, 292725, Note_off_c, 11, 59, 56
12, 292740, Note_on_c, 11, 59, 113
12, 292785, Note_off_c, 11, 59, 56
12, 292800, Note_on_c, 11, 59, 113
12, 292845, Note_off_c, 11, 59, 56
12, 292860, Note_on_c, 11, 59, 113
12, 292905, Note_off_c, 11, 59, 56
12, 292920, Note_on_c, 11, 59, 113
12, 292965, Note_off_c, 11, 59, 56
12, 292980, Note_on_c, 11, 59, 113
12, 293025, Note_off_c, 11, 59, 56
12, 293040, Note_on_c, 11, 59, 113
12, 293085, Note_off_c, 11, 59, 56
12, 293100, Note_on_c, 11, 59, 113
12, 293145, Note_off_c, 11, 59, 56
12, 293160, Note_on_c, 11, 59, 113
12, 293205, Note_off_c, 11, 59, 56
12, 293220, Note_on_c, 11, 59, 113
12, 293265, Note_off_c, 11, 59, 56
12, 293280, Note_on_c, 11, 59, 113
12, 293325, Note_off_c, 11, 59, 56
12, 293340, Note_on_c, 11, 59, 113
12, 293385, Note_off_c, 11, 59, 56
12, 293400, Note_on_c, 11, 59, 113
12, 293445, Note_off_c, 11, 59, 56
12, 293460, Note_on_c, 11, 59, 113
12, 293505, Note_off_c, 11, 59, 56
12, 293520, Note_on_c, 11, 59, 113
12, 293565, Note_off_c, 11, 59, 56
12, 293580, Note_on_c, 11, 59, 113
12, 293625, Note_off_c, 11, 59, 56
12, 293640, Note_on_c, 11, 59, 113
12, 293685, Note_off_c, 11, 59, 56
12, 293700, Note_on_c, 11, 59, 113
12, 293745, Note_off_c, 11, 59, 56
12, 293760, Note_on_c, 11, 59, 113
12, 293805, Note_off_c, 11, 59, 56
12, 293820, Note_on_c, 11, 59, 113
12, 293865, Note_off_c, 11, 59, 56
12, 293880, Note_on_c, 11, 59, 113
12, 293925, Note_off_c, 11, 59, 56
12, 293940, Note_on_c, 11, 59, 113
12, 293985, Note_off_c, 11, 59, 56
12, 294000, Note_on_c, 11, 59, 113
12, 294045, Note_off_c, 11, 59, 56
12, 294060, Note_on_c, 11, 59, 113
12, 294105, Note_off_c, 11, 59, 56
12, 294120, Note_on_c, 11, 59, 113
12, 294165, Note_off_c, 11, 59, 56
12, 294180, Note_on_c, 11, 59, 113
12, 294225, Note_off_c, 11, 59, 56
12, 294240, Note_on_c, 11, 59, 113
12, 294285, Note_off_c, 11, 59, 56
12, 294300, Note_on_c, 11, 59, 113
12, 294345, Note_off_c, 11, 59, 56
12, 294360, Note_on_c, 11, 59, 113
12, 294405, Note_off_c, 11, 59, 56
12, 294420, Note_on_c, 11, 59, 113
12, 294465, Note_off_c, 11, 59, 56
12, 294480, Note_on_c, 11, 59, 113
12, 294525, Note_off_c, 11, 59, 56
12, 294540, Note_on_c, 11, 59, 113
12, 294585, Note_off_c, 11, 59, 56
12, 294600, Note_on_c, 11, 59, 113
12, 294645, Note_off_c, 11, 59, 56
12, 294660, Note_on_c, 11, 59, 113
12, 294705, Note_off_c, 11, 59, 56
12, 294720, Note_on_c, 11, 59, 113
12, 294765, Note_off_c, 11, 59, 56
12, 294780, Note_on_c, 11, 59, 113
12, 294825, Note_off_c, 11, 59, 56
12, 294840, Note_on_c, 11, 59, 113
12, 294885, Note_off_c, 11, 59, 56
12, 294900, Note_on_c, 11, 59, 113
12, 294945, Note_off_c, 11, 59, 56
12, 294960, Note_on_c, 11, 59, 113
12, 295005, Note_off_c, 11, 59, 56
12, 295020, Note_on_c, 11, 59, 113
12, 295065, Note_off_c, 11, 59, 56
12, 295080, Note_on_c, 11, 59, 113
12, 295125, Note_off_c, 11, 59, 56
12, 295140, Note_on_c, 11, 59, 113
12, 295185, Note_off_c, 11, 59, 56
12, 295200, Note_on_c, 11, 59, 113
12, 295245, Note_off_c, 11, 59, 56
12, 295260, Note_on_c, 11, 59, 113
12, 295305, Note_off_c, 11, 59, 56
12, 295320, Note_on_c, 11, 59, 113
12, 295365, Note_off_c, 11, 59, 56
12, 295380, Note_on_c, 11, 59, 113
12, 295425, Note_off_c, 11, 59, 56
12, 295440, Note_on_c, 11, 59, 113
12, 295485, Note_off_c, 11, 59, 56
12, 295500, Note_on_c, 11, 59, 113
12, 295545, Note_off_c, 11, 59, 56
12, 295560, Note_on_c, 11, 59, 113
12, 295605, Note_off_c, 11, 59, 56
12, 295620, Note_on_c, 11, 59, 113
12, 295665, Note_off_c, 11, 59, 56
12, 295680, Note_on_c, 11, 59, 113
12, 295725, Note_off_c, 11, 59, 56
12, 295740, Note_on_c, 11, 59, 113
12, 295785, Note_off_c, 11, 59, 56
12, 295800, Note_on_c, 11, 59, 113
12, 295845, Note_off_c, 11, 59, 56
12, 295860, Note_on_c, 11, 59, 113
12, 295905, Note_off_c, 11, 59, 56
12, 295920, Note_on_c, 11, 59, 113
12, 295965, Note_off_c, 11, 59, 56
12, 295980, Note_on_c, 11, 59, 113
12, 296025, Note_off_c, 11, 59, 56
12, 296040, Note_on_c, 11, 59, 113
12, 296085, Note_off_c, 11, 59, 56
12, 296100, Note_on_c, 11, 59, 113
12, 296145, Note_off_c, 11, 59, 56
12, 296160, Note_on_c, 11, 60, 113
12, 296205, Note_off_c, 11, 60, 56
12, 296220, Note_on_c, 11, 60, 113
12, 296265, Note_off_c, 11, 60, 56
12, 296280, Note_on_c, 11, 60, 113
12, 296325, Note_off_c, 11, 60, 56
12, 296340, Note_on_c, 11, 60, 113
12, 296385, Note_off_c, 11, 60, 56
12, 296400, Note_on_c, 11, 60, 113
12, 296445, Note_off_c, 11, 60, 56
12, 296460, Note_on_c, 11, 60, 113
12, 296505, Note_off_c, 11, 60, 56
12, 296520, Note_on_c, 11, 60, 113
12, 296565, Note_off_c, 11, 60, 56
12, 296580, Note_on_c, 11, 60, 113
12, 296625, Note_off_c, 11, 60, 56
12, 296640, Note_on_c, 11, 60, 113
12, 296685, Note_off_c, 11, 60, 56
12, 296700, Note_on_c, 11, 60, 113
12, 296745, Note_off_c, 11, 60, 56
12, 296760, Note_on_c, 11, 60, 113
12, 296805, Note_off_c, 11, 60, 56
12, 296820, Note_on_c, 11, 60, 113
12, 296865, Note_off_c, 11, 60, 56
12, 296880, Note_on_c, 11, 60, 113
12, 296925, Note_off_c, 11, 60, 56
12, 296940, Note_on_c, 11, 60, 113
12, 296985, Note_off_c, 11, 60, 56
12, 297000, Note_on_c, 11, 60, 113
12, 297045, Note_off_c, 11, 60, 56
12, 297060, Note_on_c, 11, 60, 113
12, 297105, Note_off_c, 11, 60, 56
12, 297120, Note_on_c, 11, 60, 113
12, 297165, Note_off_c, 11, 60, 56
12, 297180, Note_on_c, 11, 60, 113
12, 297225, Note_off_c, 11, 60, 56
12, 297240, Note_on_c, 11, 60, 113
12, 297285, Note_off_c, 11, 60, 56
12, 297300, Note_on_c, 11, 60, 113
12, 297345, Note_off_c, 11, 60, 56
12, 297360, Note_on_c, 11, 60, 113
12, 297405, Note_off_c, 11, 60, 56
12, 297420, Note_on_c, 11, 60, 113
12, 297465, Note_off_c, 11, 60, 56
12, 297480, Note_on_c, 11, 60, 113
12, 297525, Note_off_c, 11, 60, 56
12, 297540, Note_on_c, 11, 60, 113
12, 297585, Note_off_c, 11, 60, 56
12, 297600, Note_on_c, 11, 60, 113
12, 297645, Note_off_c, 11, 60, 56
12, 297660, Note_on_c, 11, 60, 113
12, 297705, Note_off_c, 11, 60, 56
12, 297720, Note_on_c, 11, 60, 113
12, 297765, Note_off_c, 11, 60, 56
12, 297780, Note_on_c, 11, 60, 113
12, 297825, Note_off_c, 11, 60, 56
12, 297840, Note_on_c, 11, 60, 113
12, 297885, Note_off_c, 11, 60, 56
12, 297900, Note_on_c, 11, 60, 113
12, 297945, Note_off_c, 11, 60, 56
12, 297960, Note_on_c, 11, 60, 113
12, 298005, Note_off_c, 11, 60, 56
12, 298020, Note_on_c, 11, 60, 113
12, 298065, Note_off_c, 11, 60, 56
12, 298080, Control_c, 11, 0, 0
12, 298080, Control_c, 11, 32, 8
12, 298080, Program_c, 11, 50
12, 298083, Note_on_c, 11, 64, 108
12, 298088, Control_c, 11, 7, 100
12, 298731, Note_off_c, 11, 64, 64
12, 298799, Note_on_c, 11, 60, 108
12, 299015, Note_off_c, 11, 60, 64
12, 299040, Note_on_c, 11, 64, 108
12, 299256, Note_off_c, 11, 64, 64
12, 299277, Note_on_c, 11, 60, 108
12, 299493, Note_off_c, 11, 60, 64
12, 299521, Note_on_c, 11, 67, 108
12, 299737, Note_off_c, 11, 67, 64
12, 299763, Note_on_c, 11, 65, 108
12, 299925, Note_off_c, 11, 65, 64
12, 299941, Note_on_c, 11, 64, 113
12, 299992, Note_off_c, 11, 64, 56
12, 299999, Note_on_c, 11, 65, 108
12, 300647, Note_off_c, 11, 65, 64
12, 300723, Note_on_c, 11, 60, 108
12, 300939, Note_off_c, 11, 60, 64
12, 300961, Note_on_c, 11, 65, 108
12, 301177, Note_off_c, 11, 65, 64
12, 301202, Note_on_c, 11, 60, 108
12, 301418, Note_off_c, 11, 60, 64
12, 301437, Note_on_c, 11, 69, 108
12, 301653, Note_off_c, 11, 69, 64
12, 301677, Note_on_c, 11, 67, 108
12, 301839, Note_off_c, 11, 67, 64
12, 301860, Note_on_c, 11, 65, 113
12, 301911, Note_off_c, 11, 65, 56
12, 301920, Note_on_c, 11, 74, 113
12, 301920, Control_c, 11, 7, 120
12, 301920, Program_c, 11, 44
12, 301965, Note_off_c, 11, 74, 56
12, 301980, Note_on_c, 11, 74, 113
12, 302025, Note_off_c, 11, 74, 56
12, 302040, Note_on_c, 11, 74, 113
12, 302085, Note_off_c, 11, 74, 56
12, 302100, Note_on_c, 11, 74, 113
12, 302145, Note_off_c, 11, 74, 56
12, 302160, Note_on_c, 11, 74, 113
12, 302205, Note_off_c, 11, 74, 56
12, 302220, Note_on_c, 11, 74, 113
12, 302265, Note_off_c, 11, 74, 56
12, 302280, Note_on_c, 11, 74, 113
12, 302325, Note_off_c, 11, 74, 56
12, 302340, Note_on_c, 11, 74, 113
12, 302385, Note_off_c, 11, 74, 56
12, 302400, Note_on_c, 11, 74, 113
12, 302445, Note_off_c, 11, 74, 56
12, 302460, Note_on_c, 11, 74, 113
12, 302505, Note_off_c, 11, 74, 56
12, 302520, Note_on_c, 11, 74, 113
12, 302565, Note_off_c, 11, 74, 56
12, 302580, Note_on_c, 11, 74, 113
12, 302625, Note_off_c, 11, 74, 56
12, 302640, Note_on_c, 11, 74, 113
12, 302685, Note_off_c, 11, 74, 56
12, 302700, Note_on_c, 11, 74, 113
12, 302745, Note_off_c, 11, 74, 56
12, 302760, Note_on_c, 11, 74, 113
12, 302805, Note_off_c, 11, 74, 56
12, 302820, Note_on_c, 11, 74, 113
12, 302865, Note_off_c, 11, 74, 56
12, 302880, Note_on_c, 11, 74, 113
12, 302925, Note_off_c, 11, 74, 56
12, 302940, Note_on_c, 11, 74, 113
12, 302985, Note_off_c, 11, 74, 56
12, 303000, Note_on_c, 11, 74, 113
12, 303045, Note_off_c, 11, 74, 56
12, 303060, Note_on_c, 11, 74, 113
12, 303105, Note_off_c, 11, 74, 56
12, 303120, Note_on_c, 11, 74, 113
12, 303165, Note_off_c, 11, 74, 56
12, 303180, Note_on_c, 11, 74, 113
12, 303225, Note_off_c, 11, 74, 56
12, 303240, Note_on_c, 11, 74, 113
12, 303285, Note_off_c, 11, 74, 56
12, 303300, Note_on_c, 11, 74, 113
12, 303345, Note_off_c, 11, 74, 56
12, 303360, Note_on_c, 11, 74, 113
12, 303405, Note_off_c, 11, 74, 56
12, 303420, Note_on_c, 11, 74, 113
12, 303465, Note_off_c, 11, 74, 56
12, 303480, Note_on_c, 11, 74, 113
12, 303525, Note_off_c, 11, 74, 56
12, 303540, Note_on_c, 11, 74, 113
12, 303585, Note_off_c, 11, 74, 56
12, 303600, Note_on_c, 11, 74, 113
12, 303645, Note_off_c, 11, 74, 56
12, 303660, Note_on_c, 11, 74, 113
12, 303705, Note_off_c, 11, 74, 56
12, 303720, Note_on_c, 11, 74, 113
12, 303765, Note_off_c, 11, 74, 56
12, 303780, Note_on_c, 11, 74, 113
12, 303825, Note_off_c, 11, 74, 56
12, 303840, Note_on_c, 11, 72, 113
12, 303885, Note_off_c, 11, 72, 56
12, 303900, Note_on_c, 11, 72, 113
12, 303945, Note_off_c, 11, 72, 56
12, 303960, Note_on_c, 11, 72, 113
12, 304005, Note_off_c, 11, 72, 56
12, 304020, Note_on_c, 11, 72, 113
12, 304065, Note_off_c, 11, 72, 56
12, 304080, Note_on_c, 11, 72, 113
12, 304125, Note_off_c, 11, 72, 56
12, 304140, Note_on_c, 11, 72, 113
12, 304185, Note_off_c, 11, 72, 56
12, 304200, Note_on_c, 11, 72, 113
12, 304245, Note_off_c, 11, 72, 56
12, 304260, Note_on_c, 11, 72, 113
12, 304305, Note_off_c, 11, 72, 56
12, 304320, Note_on_c, 11, 72, 113
12, 304365, Note_off_c, 11, 72, 56
12, 304380, Note_on_c, 11, 72, 113
12, 304425, Note_off_c, 11, 72, 56
12, 304440, Note_on_c, 11, 72, 113
12, 304485, Note_off_c, 11, 72, 56
12, 304500, Note_on_c, 11, 72, 113
12, 304545, Note_off_c, 11, 72, 56
12, 304560, Note_on_c, 11, 72, 113
12, 304605, Note_off_c, 11, 72, 56
12, 304620, Note_on_c, 11, 72, 113
12, 304665, Note_off_c, 11, 72, 56
12, 304680, Note_on_c, 11, 72, 113
12, 304725, Note_off_c, 11, 72, 56
12, 304740, Note_on_c, 11, 72, 113
12, 304785, Note_off_c, 11, 72, 56
12, 304800, Note_on_c, 11, 72, 113
12, 304845, Note_off_c, 11, 72, 56
12, 304860, Note_on_c, 11, 72, 113
12, 304905, Note_off_c, 11, 72, 56
12, 304920, Note_on_c, 11, 72, 113
12, 304965, Note_off_c, 11, 72, 56
12, 304980, Note_on_c, 11, 72, 113
12, 305025, Note_off_c, 11, 72, 56
12, 305040, Note_on_c, 11, 72, 113
12, 305085, Note_off_c, 11, 72, 56
12, 305100, Note_on_c, 11, 72, 113
12, 305145, Note_off_c, 11, 72, 56
12, 305160, Note_on_c, 11, 72, 113
12, 305205, Note_off_c, 11, 72, 56
12, 305220, Note_on_c, 11, 72, 113
12, 305265, Note_off_c, 11, 72, 56
12, 305280, Note_on_c, 11, 72, 113
12, 305325, Note_off_c, 11, 72, 56
12, 305340, Note_on_c, 11, 72, 113
12, 305385, Note_off_c, 11, 72, 56
12, 305400, Note_on_c, 11, 72, 113
12, 305445, Note_off_c, 11, 72, 56
12, 305460, Note_on_c, 11, 72, 113
12, 305505, Note_off_c, 11, 72, 56
12, 305520, Note_on_c, 11, 72, 113
12, 305565, Note_off_c, 11, 72, 56
12, 305580, Note_on_c, 11, 72, 113
12, 305625, Note_off_c, 11, 72, 56
12, 305640, Note_on_c, 11, 72, 113
12, 305685, Note_off_c, 11, 72, 56
12, 305700, Note_on_c, 11, 72, 113
12, 305745, Note_off_c, 11, 72, 56
12, 305760, Note_on_c, 11, 74, 113
12, 305805, Note_off_c, 11, 74, 56
12, 305820, Note_on_c, 11, 74, 113
12, 305865, Note_off_c, 11, 74, 56
12, 305880, Note_on_c, 11, 74, 113
12, 305925, Note_off_c, 11, 74, 56
12, 305940, Note_on_c, 11, 74, 113
12, 305985, Note_off_c, 11, 74, 56
12, 306000, Note_on_c, 11, 74, 113
12, 306045, Note_off_c, 11, 74, 56
12, 306060, Note_on_c, 11, 74, 113
12, 306105, Note_off_c, 11, 74, 56
12, 306120, Note_on_c, 11, 74, 113
12, 306165, Note_off_c, 11, 74, 56
12, 306180, Note_on_c, 11, 74, 113
12, 306225, Note_off_c, 11, 74, 56
12, 306240, Note_on_c, 11, 74, 113
12, 306285, Note_off_c, 11, 74, 56
12, 306300, Note_on_c, 11, 74, 113
12, 306345, Note_off_c, 11, 74, 56
12, 306360, Note_on_c, 11, 74, 113
12, 306405, Note_off_c, 11, 74, 56
12, 306420, Note_on_c, 11, 74, 113
12, 306465, Note_off_c, 11, 74, 56
12, 306480, Note_on_c, 11, 74, 113
12, 306525, Note_off_c, 11, 74, 56
12, 306540, Note_on_c, 11, 74, 113
12, 306585, Note_off_c, 11, 74, 56
12, 306600, Note_on_c, 11, 74, 113
12, 306645, Note_off_c, 11, 74, 56
12, 306660, Note_on_c, 11, 74, 113
12, 306705, Note_off_c, 11, 74, 56
12, 306720, Note_on_c, 11, 72, 113
12, 306765, Note_off_c, 11, 72, 56
12, 306780, Note_on_c, 11, 72, 113
12, 306825, Note_off_c, 11, 72, 56
12, 306840, Note_on_c, 11, 72, 113
12, 306885, Note_off_c, 11, 72, 56
12, 306900, Note_on_c, 11, 72, 113
12, 306945, Note_off_c, 11, 72, 56
12, 306960, Note_on_c, 11, 72, 113
12, 307005, Note_off_c, 11, 72, 56
12, 307020, Note_on_c, 11, 72, 113
12, 307065, Note_off_c, 11, 72, 56
12, 307080, Note_on_c, 11, 72, 113
12, 307125, Note_off_c, 11, 72, 56
12, 307140, Note_on_c, 11, 72, 113
12, 307185, Note_off_c, 11, 72, 56
12, 307200, Note_on_c, 11, 72, 113
12, 307245, Note_off_c, 11, 72, 56
12, 307260, Note_on_c, 11, 72, 113
12, 307305, Note_off_c, 11, 72, 56
12, 307320, Note_on_c, 11, 72, 113
12, 307365, Note_off_c, 11, 72, 56
12, 307380, Note_on_c, 11, 72, 113
12, 307425, Note_off_c, 11, 72, 56
12, 307440, Note_on_c, 11, 72, 113
12, 307485, Note_off_c, 11, 72, 56
12, 307500, Note_on_c, 11, 72, 113
12, 307545, Note_off_c, 11, 72, 56
12, 307560, Note_on_c, 11, 72, 113
12, 307605, Note_off_c, 11, 72, 56
12, 307620, Note_on_c, 11, 72, 113
12, 307665, Note_off_c, 11, 72, 56
12, 307680, Control_c, 11, 7, 100
12, 307682, Note_on_c, 11, 74, 108
12, 307692, Control_c, 11, 0, 0
12, 307692, Control_c, 11, 32, 8
12, 307692, Program_c, 11, 50
12, 307784, Note_off_c, 11, 74, 56
12, 307801, Note_on_c, 11, 71, 108
12, 308006, Note_off_c, 11, 71, 64
12, 308039, Note_on_c, 11, 72, 108
12, 308141, Note_off_c, 11, 72, 56
12, 308160, Note_on_c, 11, 74, 108
12, 308228, Note_off_c, 11, 74, 56
12, 308279, Note_on_c, 11, 79, 108
12, 308387, Note_off_c, 11, 79, 56
12, 308398, Note_on_c, 11, 77, 108
12, 308500, Note_off_c, 11, 77, 56
12, 308521, Note_on_c, 11, 76, 108
12, 308589, Note_off_c, 11, 76, 56
12, 308641, Note_on_c, 11, 74, 108
12, 308709, Note_off_c, 11, 74, 56
12, 308759, Note_on_c, 11, 76, 108
12, 308867, Note_off_c, 11, 76, 56
12, 308880, Note_on_c, 11, 74, 108
12, 308982, Note_off_c, 11, 74, 56
12, 309001, Note_on_c, 11, 72, 108
12, 309069, Note_off_c, 11, 72, 56
12, 309120, Note_on_c, 11, 71, 108
12, 309188, Note_off_c, 11, 71, 56
12, 309241, Note_on_c, 11, 71, 108
12, 309349, Note_off_c, 11, 71, 56
12, 309358, Note_on_c, 11, 72, 108
12, 309460, Note_off_c, 11, 72, 56
12, 309479, Note_on_c, 11, 66, 108
12, 309547, Note_off_c, 11, 66, 56
12, 309602, Note_on_c, 11, 67, 108
12, 309807, Note_off_c, 11, 67, 64
12, 310202, Note_on_c, 11, 67, 108
12, 310310, Note_off_c, 11, 67, 56
12, 310321, Note_on_c, 11, 66, 108
12, 310423, Note_off_c, 11, 66, 56
12, 310441, Note_on_c, 11, 72, 108
12, 310509, Note_off_c, 11, 72, 56
12, 310561, Note_on_c, 11, 71, 108
12, 310663, Note_off_c, 11, 71, 56
12, 311280, Note_on_c, 11, 62, 108
12, 311352, Note_off_c, 11, 62, 56
12, 311360, Note_on_c, 11, 64, 108
12, 311432, Note_off_c, 11, 64, 56
12, 311440, Note_on_c, 11, 65, 108
12, 311512, Note_off_c, 11, 65, 56
12, 311522, Note_on_c, 11, 67, 108
12, 311658, Note_off_c, 11, 67, 64
12, 311761, Note_on_c, 11, 64, 108
12, 311833, Note_off_c, 11, 64, 56
12, 311839, Note_on_c, 11, 65, 108
12, 311911, Note_off_c, 11, 65, 56
12, 311921, Note_on_c, 11, 67, 108
12, 311993, Note_off_c, 11, 67, 56
12, 312002, Note_on_c, 11, 69, 108
12, 312138, Note_off_c, 11, 69, 64
12, 312241, Note_on_c, 11, 69, 108
12, 312313, Note_off_c, 11, 69, 56
12, 312319, Note_on_c, 11, 71, 108
12, 312391, Note_off_c, 11, 71, 56
12, 312399, Note_on_c, 11, 72, 108
12, 312471, Note_off_c, 11, 72, 56
12, 312481, Note_on_c, 11, 67, 108
12, 313129, Note_off_c, 11, 67, 64
12, 313199, Note_on_c, 11, 64, 73
12, 313271, Note_off_c, 11, 64, 56
12, 313280, Note_on_c, 11, 65, 73
12, 313352, Note_off_c, 11, 65, 56
12, 313361, Note_on_c, 11, 67, 73
12, 313433, Note_off_c, 11, 67, 56
12, 313438, Note_on_c, 11, 65, 73
12, 313654, Note_off_c, 11, 65, 64
12, 313679, Note_on_c, 11, 62, 73
12, 313751, Note_off_c, 11, 62, 56
12, 313761, Note_on_c, 11, 64, 73
12, 313833, Note_off_c, 11, 64, 56
12, 313839, Note_on_c, 11, 65, 73
12, 313911, Note_off_c, 11, 65, 56
12, 313917, Note_on_c, 11, 64, 73
12, 314133, Note_off_c, 11, 64, 64
12, 314161, Note_on_c, 11, 60, 73
12, 314233, Note_off_c, 11, 60, 56
12, 314240, Note_on_c, 11, 62, 73
12, 314312, Note_off_c, 11, 62, 56
12, 314319, Note_on_c, 11, 64, 73
12, 314391, Note_off_c, 11, 64, 56
12, 314398, Note_on_c, 11, 65, 73
12, 314534, Note_off_c, 11, 65, 64
12, 314641, Note_on_c, 11, 59, 80
12, 314713, Note_off_c, 11, 59, 56
12, 314720, Note_on_c, 11, 60, 82
12, 314792, Note_off_c, 11, 60, 56
12, 314801, Note_on_c, 11, 62, 83
12, 314873, Note_off_c, 11, 62, 56
12, 314883, Note_on_c, 11, 55, 86
12, 315099, Note_off_c, 11, 55, 64
12, 315120, Note_on_c, 11, 71, 95
12, 315180, Note_off_c, 11, 71, 56
12, 315201, Note_on_c, 11, 72, 95
12, 315261, Note_off_c, 11, 72, 56
12, 315279, Note_on_c, 11, 74, 95
12, 315339, Note_off_c, 11, 74, 56
12, 315359, Note_on_c, 11, 72, 95
12, 315419, Note_off_c, 11, 72, 56
12, 315440, Note_on_c, 11, 60, 95
12, 315500, Note_off_c, 11, 60, 56
12, 315521, Note_on_c, 11, 72, 95
12, 315581, Note_off_c, 11, 72, 56
12, 315600, Note_on_c, 11, 72, 95
12, 315660, Note_off_c, 11, 72, 56
12, 315681, Note_on_c, 11, 71, 95
12, 315741, Note_off_c, 11, 71, 56
12, 315761, Note_on_c, 11, 70, 95
12, 315821, Note_off_c, 11, 70, 56
12, 315841, Note_on_c, 11, 69, 95
12, 315901, Note_off_c, 11, 69, 56
12, 315921, Note_on_c, 11, 69, 95
12, 315981, Note_off_c, 11, 69, 56
12, 316000, Note_on_c, 11, 69, 95
12, 316060, Note_off_c, 11, 69, 56
12, 316081, Note_on_c, 11, 69, 95
12, 316141, Note_off_c, 11, 69, 56
12, 316159, Note_on_c, 11, 67, 95
12, 316219, Note_off_c, 11, 67, 56
12, 316240, Note_on_c, 11, 65, 95
12, 316300, Note_off_c, 11, 65, 56
12, 316321, Note_on_c, 11, 64, 95
12, 316381, Note_off_c, 11, 64, 56
12, 316400, Note_on_c, 11, 55, 95
12, 316460, Note_off_c, 11, 55, 56
12, 316481, Note_on_c, 11, 55, 95
12, 316541, Note_off_c, 11, 55, 56
12, 316559, Note_on_c, 11, 55, 95
12, 316619, Note_off_c, 11, 55, 56
12, 316640, Note_on_c, 11, 57, 95
12, 316700, Note_off_c, 11, 57, 56
12, 316719, Note_on_c, 11, 59, 95
12, 316779, Note_off_c, 11, 59, 56
12, 316803, Note_on_c, 11, 60, 90
12, 316985, Note_off_c, 11, 60, 64
12, 317040, Note_on_c, 11, 64, 73
12, 317112, Note_off_c, 11, 64, 56
12, 317120, Note_on_c, 11, 65, 73
12, 317192, Note_off_c, 11, 65, 56
12, 317199, Note_on_c, 11, 67, 73
12, 317271, Note_off_c, 11, 67, 56
12, 317277, Note_on_c, 11, 65, 73
12, 317493, Note_off_c, 11, 65, 64
12, 317520, Note_on_c, 11, 62, 73
12, 317592, Note_off_c, 11, 62, 56
12, 317600, Note_on_c, 11, 64, 73
12, 317672, Note_off_c, 11, 64, 56
12, 317681, Note_on_c, 11, 65, 73
12, 317753, Note_off_c, 11, 65, 56
12, 317760, Note_on_c, 11, 64, 73
12, 317976, Note_off_c, 11, 64, 64
12, 318001, Note_on_c, 11, 60, 73
12, 318073, Note_off_c, 11, 60, 56
12, 318080, Note_on_c, 11, 62, 73
12, 318152, Note_off_c, 11, 62, 56
12, 318159, Note_on_c, 11, 64, 73
12, 318227, Note_off_c, 11, 64, 56
12, 318237, Note_on_c, 11, 65, 73
12, 318442, Note_off_c, 11, 65, 64
12, 318479, Note_on_c, 11, 67, 95
12, 318539, Note_off_c, 11, 67, 56
12, 318560, Note_on_c, 11, 69, 95
12, 318620, Note_off_c, 11, 69, 56
12, 318641, Note_on_c, 11, 71, 95
12, 318701, Note_off_c, 11, 71, 56
12, 318723, Note_on_c, 11, 72, 90
12, 318928, Note_off_c, 11, 72, 64
12, 318961, Note_on_c, 11, 65, 73
12, 319033, Note_off_c, 11, 65, 56
12, 319039, Note_on_c, 11, 67, 73
12, 319111, Note_off_c, 11, 67, 56
12, 319120, Note_on_c, 11, 69, 73
12, 319192, Note_off_c, 11, 69, 56
12, 319198, Note_on_c, 11, 67, 73
12, 319414, Note_off_c, 11, 67, 64
12, 319441, Note_on_c, 11, 64, 73
12, 319513, Note_off_c, 11, 64, 56
12, 319521, Note_on_c, 11, 65, 73
12, 319593, Note_off_c, 11, 65, 56
12, 319600, Note_on_c, 11, 67, 73
12, 319672, Note_off_c, 11, 67, 56
12, 319679, Note_on_c, 11, 65, 73
12, 319895, Note_off_c, 11, 65, 64
12, 319919, Note_on_c, 11, 62, 73
12, 319991, Note_off_c, 11, 62, 56
12, 320001, Note_on_c, 11, 64, 73
12, 320073, Note_off_c, 11, 64, 56
12, 320079, Note_on_c, 11, 65, 73
12, 320151, Note_off_c, 11, 65, 56
12, 320159, Note_on_c, 11, 67, 73
12, 320364, Note_off_c, 11, 67, 64
12, 320400, Note_on_c, 11, 57, 95
12, 320460, Note_off_c, 11, 57, 56
12, 320480, Note_on_c, 11, 59, 95
12, 320540, Note_off_c, 11, 59, 56
12, 320559, Note_on_c, 11, 61, 95
12, 320619, Note_off_c, 11, 61, 56
12, 320640, Note_on_c, 11, 62, 90
12, 320822, Note_off_c, 11, 62, 64
12, 321840, Note_on_c, 11, 72, 56
12, 321912, Note_off_c, 11, 72, 56
12, 321919, Note_on_c, 11, 70, 56
12, 321991, Note_off_c, 11, 70, 56
12, 321999, Note_on_c, 11, 69, 56
12, 322071, Note_off_c, 11, 69, 56
12, 322080, Note_on_c, 11, 67, 61
12, 322088, Program_c, 11, 44
12, 322088, Control_c, 11, 7, 120
12, 322125, Note_off_c, 11, 67, 56
12, 322140, Note_on_c, 11, 76, 62
12, 322185, Note_off_c, 11, 76, 56
12, 322200, Note_on_c, 11, 76, 64
12, 322245, Note_off_c, 11, 76, 56
12, 322260, Note_on_c, 11, 76, 65
12, 322305, Note_off_c, 11, 76, 56
12, 322320, Note_on_c, 11, 76, 67
12, 322365, Note_off_c, 11, 76, 56
12, 322380, Note_on_c, 11, 76, 69
12, 322425, Note_off_c, 11, 76, 56
12, 322440, Note_on_c, 11, 76, 70
12, 322485, Note_off_c, 11, 76, 56
12, 322500, Note_on_c, 11, 76, 72
12, 322545, Note_off_c, 11, 76, 56
12, 322560, Note_on_c, 11, 76, 74
12, 322605, Note_off_c, 11, 76, 56
12, 322620, Note_on_c, 11, 76, 76
12, 322665, Note_off_c, 11, 76, 56
12, 322680, Note_on_c, 11, 76, 77
12, 322725, Note_off_c, 11, 76, 56
12, 322740, Note_on_c, 11, 76, 78
12, 322785, Note_off_c, 11, 76, 56
12, 322800, Note_on_c, 11, 76, 80
12, 322845, Note_off_c, 11, 76, 56
12, 322860, Note_on_c, 11, 76, 82
12, 322905, Note_off_c, 11, 76, 56
12, 322920, Note_on_c, 11, 76, 84
12, 322965, Note_off_c, 11, 76, 56
12, 322980, Note_on_c, 11, 76, 85
12, 323025, Note_off_c, 11, 76, 56
12, 323040, Note_on_c, 11, 76, 87
12, 323085, Note_off_c, 11, 76, 56
12, 323100, Note_on_c, 11, 76, 88
12, 323145, Note_off_c, 11, 76, 56
12, 323160, Note_on_c, 11, 76, 90
12, 323205, Note_off_c, 11, 76, 56
12, 323220, Note_on_c, 11, 76, 92
12, 323265, Note_off_c, 11, 76, 56
12, 323280, Note_on_c, 11, 76, 93
12, 323325, Note_off_c, 11, 76, 56
12, 323340, Note_on_c, 11, 76, 95
12, 323385, Note_off_c, 11, 76, 56
12, 323400, Note_on_c, 11, 76, 97
12, 323445, Note_off_c, 11, 76, 56
12, 323460, Note_on_c, 11, 76, 98
12, 323505, Note_off_c, 11, 76, 56
12, 323520, Note_on_c, 11, 76, 100
12, 323565, Note_off_c, 11, 76, 56
12, 323580, Note_on_c, 11, 76, 101
12, 323625, Note_off_c, 11, 76, 56
12, 323640, Note_on_c, 11, 76, 103
12, 323685, Note_off_c, 11, 76, 56
12, 323700, Note_on_c, 11, 76, 105
12, 323745, Note_off_c, 11, 76, 56
12, 323760, Note_on_c, 11, 76, 107
12, 323805, Note_off_c, 11, 76, 56
12, 323820, Note_on_c, 11, 76, 108
12, 323865, Note_off_c, 11, 76, 56
12, 323880, Note_on_c, 11, 76, 109
12, 323925, Note_off_c, 11, 76, 56
12, 323940, Note_on_c, 11, 76, 111
12, 323985, Note_off_c, 11, 76, 56
12, 324000, Note_on_c, 11, 69, 113
12, 324045, Note_off_c, 11, 69, 56
12, 324060, Note_on_c, 11, 69, 113
12, 324105, Note_off_c, 11, 69, 56
12, 324120, Note_on_c, 11, 69, 113
12, 324165, Note_off_c, 11, 69, 56
12, 324180, Note_on_c, 11, 69, 113
12, 324225, Note_off_c, 11, 69, 56
12, 324240, Note_on_c, 11, 69, 113
12, 324285, Note_off_c, 11, 69, 56
12, 324300, Note_on_c, 11, 69, 113
12, 324345, Note_off_c, 11, 69, 56
12, 324360, Note_on_c, 11, 69, 113
12, 324405, Note_off_c, 11, 69, 56
12, 324420, Note_on_c, 11, 69, 113
12, 324465, Note_off_c, 11, 69, 56
12, 324480, Note_on_c, 11, 69, 113
12, 324525, Note_off_c, 11, 69, 56
12, 324540, Note_on_c, 11, 69, 113
12, 324585, Note_off_c, 11, 69, 56
12, 324600, Note_on_c, 11, 69, 113
12, 324645, Note_off_c, 11, 69, 56
12, 324660, Note_on_c, 11, 69, 113
12, 324705, Note_off_c, 11, 69, 56
12, 324720, Note_on_c, 11, 69, 113
12, 324765, Note_off_c, 11, 69, 56
12, 324780, Note_on_c, 11, 69, 113
12, 324825, Note_off_c, 11, 69, 56
12, 324840, Note_on_c, 11, 69, 113
12, 324885, Note_off_c, 11, 69, 56
12, 324900, Note_on_c, 11, 69, 113
12, 324945, Note_off_c, 11, 69, 56
12, 324960, Note_on_c, 11, 69, 113
12, 324960, Control_c, 11, 7, 100
12, 324960, Note_on_c, 11, 77, 113
12, 324972, Control_c, 11, 0, 0
12, 324972, Control_c, 11, 32, 8
12, 324972, Program_c, 11, 50
12, 325005, Note_off_c, 11, 77, 56
12, 325005, Note_off_c, 11, 69, 56
12, 325020, Note_on_c, 11, 57, 113
12, 325065, Note_off_c, 11, 57, 56
12, 325080, Note_on_c, 11, 58, 113
12, 325125, Note_off_c, 11, 58, 56
12, 325140, Note_on_c, 11, 60, 113
12, 325185, Note_off_c, 11, 60, 56
12, 325200, Note_on_c, 11, 62, 113
12, 325245, Note_off_c, 11, 62, 56
12, 325260, Note_on_c, 11, 64, 113
12, 325305, Note_off_c, 11, 64, 56
12, 325320, Note_on_c, 11, 65, 113
12, 325365, Note_off_c, 11, 65, 56
12, 325380, Note_on_c, 11, 67, 113
12, 325425, Note_off_c, 11, 67, 56
12, 325440, Note_on_c, 11, 69, 113
12, 325485, Note_off_c, 11, 69, 56
12, 325500, Note_on_c, 11, 65, 113
12, 325545, Note_off_c, 11, 65, 56
12, 325560, Note_on_c, 11, 67, 113
12, 325605, Note_off_c, 11, 67, 56
12, 325620, Note_on_c, 11, 69, 113
12, 325665, Note_off_c, 11, 69, 56
12, 325680, Note_on_c, 11, 70, 113
12, 325725, Note_off_c, 11, 70, 56
12, 325740, Note_on_c, 11, 72, 113
12, 325785, Note_off_c, 11, 72, 56
12, 325800, Note_on_c, 11, 74, 113
12, 325845, Note_off_c, 11, 74, 56
12, 325860, Note_on_c, 11, 76, 113
12, 325905, Note_off_c, 11, 76, 56
12, 325920, Note_on_c, 11, 77, 113
12, 325965, Note_off_c, 11, 77, 56
12, 325980, Note_on_c, 11, 79, 113
12, 326025, Note_off_c, 11, 79, 56
12, 326040, Note_on_c, 11, 81, 113
12, 326085, Note_off_c, 11, 81, 56
12, 326100, Note_on_c, 11, 83, 113
12, 326145, Note_off_c, 11, 83, 56
12, 326160, Note_on_c, 11, 84, 113
12, 326205, Note_off_c, 11, 84, 56
12, 326220, Note_on_c, 11, 84, 113
12, 326265, Note_off_c, 11, 84, 56
12, 326280, Note_on_c, 11, 84, 113
12, 326325, Note_off_c, 11, 84, 56
12, 326340, Note_on_c, 11, 84, 113
12, 326385, Note_off_c, 11, 84, 56
12, 326400, Note_on_c, 11, 84, 113
12, 326445, Note_off_c, 11, 84, 56
12, 326460, Note_on_c, 11, 84, 113
12, 326505, Note_off_c, 11, 84, 56
12, 326520, Note_on_c, 11, 84, 113
12, 326565, Note_off_c, 11, 84, 56
12, 326580, Note_on_c, 11, 84, 113
12, 326625, Note_off_c, 11, 84, 56
12, 326640, Note_on_c, 11, 84, 113
12, 326685, Note_off_c, 11, 84, 56
12, 326700, Note_on_c, 11, 84, 113
12, 326745, Note_off_c, 11, 84, 56
12, 326760, Note_on_c, 11, 84, 113
12, 326805, Note_off_c, 11, 84, 56
12, 326820, Note_on_c, 11, 84, 113
12, 326865, Note_off_c, 11, 84, 56
12, 326880, Note_on_c, 11, 84, 113
12, 326925, Note_off_c, 11, 84, 56
12, 326940, Note_on_c, 11, 84, 113
12, 326985, Note_off_c, 11, 84, 56
12, 327000, Note_on_c, 11, 83, 113
12, 327045, Note_off_c, 11, 83, 56
12, 327060, Note_on_c, 11, 81, 113
12, 327105, Note_off_c, 11, 81, 56
12, 327120, Note_on_c, 11, 79, 113
12, 327165, Note_off_c, 11, 79, 56
12, 327180, Note_on_c, 11, 77, 113
12, 327225, Note_off_c, 11, 77, 56
12, 327240, Note_on_c, 11, 76, 113
12, 327285, Note_off_c, 11, 76, 56
12, 327300, Note_on_c, 11, 74, 113
12, 327345, Note_off_c, 11, 74, 56
12, 327360, Note_on_c, 11, 72, 113
12, 327405, Note_off_c, 11, 72, 56
12, 327420, Note_on_c, 11, 71, 113
12, 327465, Note_off_c, 11, 71, 56
12, 327480, Note_on_c, 11, 69, 113
12, 327525, Note_off_c, 11, 69, 56
12, 327540, Note_on_c, 11, 67, 113
12, 327585, Note_off_c, 11, 67, 56
12, 327600, Note_on_c, 11, 65, 113
12, 327645, Note_off_c, 11, 65, 56
12, 327660, Note_on_c, 11, 64, 113
12, 327705, Note_off_c, 11, 64, 56
12, 327720, Note_on_c, 11, 62, 113
12, 327765, Note_off_c, 11, 62, 56
12, 327780, Note_on_c, 11, 60, 113
12, 327825, Note_off_c, 11, 60, 56
12, 327838, Note_on_c, 11, 62, 108
12, 327974, Note_off_c, 11, 62, 64
12, 328802, Note_on_c, 11, 59, 108
12, 328938, Note_off_c, 11, 59, 64
12, 330241, Note_on_c, 11, 56, 73
12, 330697, Note_off_c, 11, 56, 64
12, 330723, Note_on_c, 11, 57, 73
12, 330928, Note_off_c, 11, 57, 64
12, 332162, Note_on_c, 11, 56, 73
12, 332618, Note_off_c, 11, 56, 64
12, 332642, Note_on_c, 11, 57, 73
12, 332847, Note_off_c, 11, 57, 64
12, 334079, Note_on_c, 11, 73, 73
12, 334535, Note_off_c, 11, 73, 64
12, 334562, Note_on_c, 11, 74, 73
12, 334767, Note_off_c, 11, 74, 64
12, 334797, Note_on_c, 11, 58, 73
12, 335002, Note_off_c, 11, 58, 64
12, 335043, Note_on_c, 11, 58, 73
12, 335248, Note_off_c, 11, 58, 64
12, 335282, Note_on_c, 11, 58, 73
12, 335487, Note_off_c, 11, 58, 64
12, 335519, Note_on_c, 11, 57, 73
12, 335735, Note_off_c, 11, 57, 64
12, 337079, Note_on_c, 11, 62, 78
12, 337133, Note_off_c, 11, 62, 56
12, 337140, Note_on_c, 11, 64, 78
12, 337194, Note_off_c, 11, 64, 56
12, 337200, Note_on_c, 11, 65, 78
12, 337254, Note_off_c, 11, 65, 56
12, 337260, Note_on_c, 11, 67, 78
12, 337314, Note_off_c, 11, 67, 56
12, 337319, Note_on_c, 11, 69, 78
12, 337373, Note_off_c, 11, 69, 56
12, 337381, Note_on_c, 11, 71, 78
12, 337435, Note_off_c, 11, 71, 56
12, 337440, Note_on_c, 11, 72, 95
12, 337440, Control_c, 11, 7, 120
12, 337440, Program_c, 11, 44
12, 337485, Note_off_c, 11, 72, 56
12, 337500, Note_on_c, 11, 72, 95
12, 337545, Note_off_c, 11, 72, 56
12, 337560, Note_on_c, 11, 72, 95
12, 337605, Note_off_c, 11, 72, 56
12, 337620, Note_on_c, 11, 72, 95
12, 337665, Note_off_c, 11, 72, 56
12, 337680, Note_on_c, 11, 72, 95
12, 337725, Note_off_c, 11, 72, 56
12, 337740, Note_on_c, 11, 72, 97
12, 337785, Note_off_c, 11, 72, 56
12, 337800, Note_on_c, 11, 72, 97
12, 337845, Note_off_c, 11, 72, 56
12, 337860, Note_on_c, 11, 72, 97
12, 337905, Note_off_c, 11, 72, 56
12, 337920, Note_on_c, 11, 72, 97
12, 337965, Note_off_c, 11, 72, 56
12, 337980, Note_on_c, 11, 72, 97
12, 338025, Note_off_c, 11, 72, 56
12, 338040, Note_on_c, 11, 72, 97
12, 338085, Note_off_c, 11, 72, 56
12, 338100, Note_on_c, 11, 72, 97
12, 338145, Note_off_c, 11, 72, 56
12, 338160, Note_on_c, 11, 71, 97
12, 338205, Note_off_c, 11, 71, 56
12, 338220, Note_on_c, 11, 71, 98
12, 338265, Note_off_c, 11, 71, 56
12, 338280, Note_on_c, 11, 71, 98
12, 338325, Note_off_c, 11, 71, 56
12, 338340, Note_on_c, 11, 71, 98
12, 338385, Note_off_c, 11, 71, 56
12, 338400, Note_on_c, 11, 69, 98
12, 338445, Note_off_c, 11, 69, 56
12, 338460, Note_on_c, 11, 69, 98
12, 338505, Note_off_c, 11, 69, 56
12, 338520, Note_on_c, 11, 69, 98
12, 338565, Note_off_c, 11, 69, 56
12, 338580, Note_on_c, 11, 69, 98
12, 338625, Note_off_c, 11, 69, 56
12, 338640, Note_on_c, 11, 67, 98
12, 338685, Note_off_c, 11, 67, 56
12, 338700, Note_on_c, 11, 67, 98
12, 338745, Note_off_c, 11, 67, 56
12, 338760, Note_on_c, 11, 67, 99
12, 338805, Note_off_c, 11, 67, 56
12, 338820, Note_on_c, 11, 67, 99
12, 338865, Note_off_c, 11, 67, 56
12, 338880, Note_on_c, 11, 67, 99
12, 338925, Note_off_c, 11, 67, 56
12, 338940, Note_on_c, 11, 67, 99
12, 338985, Note_off_c, 11, 67, 56
12, 339000, Note_on_c, 11, 67, 99
12, 339045, Note_off_c, 11, 67, 56
12, 339060, Note_on_c, 11, 67, 99
12, 339105, Note_off_c, 11, 67, 56
12, 339120, Note_on_c, 11, 67, 99
12, 339165, Note_off_c, 11, 67, 56
12, 339180, Note_on_c, 11, 67, 99
12, 339225, Note_off_c, 11, 67, 56
12, 339240, Note_on_c, 11, 67, 100
12, 339285, Note_off_c, 11, 67, 56
12, 339300, Note_on_c, 11, 67, 100
12, 339345, Note_off_c, 11, 67, 56
12, 339360, Note_on_c, 11, 72, 100
12, 339405, Note_off_c, 11, 72, 56
12, 339420, Note_on_c, 11, 72, 100
12, 339465, Note_off_c, 11, 72, 56
12, 339480, Note_on_c, 11, 72, 100
12, 339525, Note_off_c, 11, 72, 56
12, 339540, Note_on_c, 11, 72, 100
12, 339585, Note_off_c, 11, 72, 56
12, 339600, Note_on_c, 11, 72, 100
12, 339645, Note_off_c, 11, 72, 56
12, 339660, Note_on_c, 11, 72, 100
12, 339705, Note_off_c, 11, 72, 56
12, 339720, Note_on_c, 11, 72, 100
12, 339765, Note_off_c, 11, 72, 56
12, 339780, Note_on_c, 11, 72, 101
12, 339825, Note_off_c, 11, 72, 56
12, 339840, Note_on_c, 11, 72, 101
12, 339885, Note_off_c, 11, 72, 56
12, 339900, Note_on_c, 11, 72, 101
12, 339945, Note_off_c, 11, 72, 56
12, 339960, Note_on_c, 11, 72, 101
12, 340005, Note_off_c, 11, 72, 56
12, 340020, Note_on_c, 11, 72, 101
12, 340065, Note_off_c, 11, 72, 56
12, 340080, Note_on_c, 11, 71, 101
12, 340125, Note_off_c, 11, 71, 56
12, 340140, Note_on_c, 11, 71, 101
12, 340185, Note_off_c, 11, 71, 56
12, 340200, Note_on_c, 11, 71, 101
12, 340245, Note_off_c, 11, 71, 56
12, 340260, Note_on_c, 11, 71, 102
12, 340305, Note_off_c, 11, 71, 56
12, 340320, Note_on_c, 11, 69, 102
12, 340365, Note_off_c, 11, 69, 56
12, 340380, Note_on_c, 11, 69, 102
12, 340425, Note_off_c, 11, 69, 56
12, 340440, Note_on_c, 11, 69, 102
12, 340485, Note_off_c, 11, 69, 56
12, 340500, Note_on_c, 11, 69, 102
12, 340545, Note_off_c, 11, 69, 56
12, 340560, Note_on_c, 11, 67, 102
12, 340605, Note_off_c, 11, 67, 56
12, 340620, Note_on_c, 11, 67, 102
12, 340665, Note_off_c, 11, 67, 56
12, 340680, Note_on_c, 11, 67, 102
12, 340725, Note_off_c, 11, 67, 56
12, 340740, Note_on_c, 11, 67, 102
12, 340785, Note_off_c, 11, 67, 56
12, 340800, Note_on_c, 11, 67, 103
12, 340845, Note_off_c, 11, 67, 56
12, 340860, Note_on_c, 11, 67, 103
12, 340905, Note_off_c, 11, 67, 56
12, 340920, Note_on_c, 11, 67, 103
12, 340965, Note_off_c, 11, 67, 56
12, 340980, Note_on_c, 11, 67, 103
12, 341025, Note_off_c, 11, 67, 56
12, 341040, Note_on_c, 11, 67, 103
12, 341085, Note_off_c, 11, 67, 56
12, 341100, Note_on_c, 11, 67, 103
12, 341145, Note_off_c, 11, 67, 56
12, 341160, Note_on_c, 11, 67, 103
12, 341205, Note_off_c, 11, 67, 56
12, 341220, Note_on_c, 11, 67, 103
12, 341265, Note_off_c, 11, 67, 56
12, 341280, Note_on_c, 11, 77, 105
12, 341325, Note_off_c, 11, 77, 56
12, 341340, Note_on_c, 11, 77, 105
12, 341385, Note_off_c, 11, 77, 56
12, 341400, Note_on_c, 11, 77, 105
12, 341445, Note_off_c, 11, 77, 56
12, 341460, Note_on_c, 11, 77, 105
12, 341505, Note_off_c, 11, 77, 56
12, 341520, Note_on_c, 11, 77, 105
12, 341565, Note_off_c, 11, 77, 56
12, 341580, Note_on_c, 11, 77, 105
12, 341625, Note_off_c, 11, 77, 56
12, 341640, Note_on_c, 11, 77, 105
12, 341685, Note_off_c, 11, 77, 56
12, 341700, Note_on_c, 11, 77, 105
12, 341745, Note_off_c, 11, 77, 56
12, 341760, Note_on_c, 11, 77, 105
12, 341805, Note_off_c, 11, 77, 56
12, 341820, Note_on_c, 11, 77, 106
12, 341865, Note_off_c, 11, 77, 56
12, 341880, Note_on_c, 11, 77, 106
12, 341925, Note_off_c, 11, 77, 56
12, 341940, Note_on_c, 11, 77, 106
12, 341985, Note_off_c, 11, 77, 56
12, 342000, Note_on_c, 11, 76, 106
12, 342045, Note_off_c, 11, 76, 56
12, 342060, Note_on_c, 11, 76, 106
12, 342105, Note_off_c, 11, 76, 56
12, 342120, Note_on_c, 11, 76, 106
12, 342165, Note_off_c, 11, 76, 56
12, 342180, Note_on_c, 11, 76, 106
12, 342225, Note_off_c, 11, 76, 56
12, 342240, Note_on_c, 11, 74, 106
12, 342285, Note_off_c, 11, 74, 56
12, 342300, Note_on_c, 11, 74, 106
12, 342345, Note_off_c, 11, 74, 56
12, 342360, Note_on_c, 11, 74, 107
12, 342405, Note_off_c, 11, 74, 56
12, 342420, Note_on_c, 11, 74, 107
12, 342465, Note_off_c, 11, 74, 56
12, 342480, Note_on_c, 11, 73, 107
12, 342525, Note_off_c, 11, 73, 56
12, 342540, Note_on_c, 11, 73, 107
12, 342585, Note_off_c, 11, 73, 56
12, 342600, Note_on_c, 11, 73, 107
12, 342645, Note_off_c, 11, 73, 56
12, 342660, Note_on_c, 11, 73, 107
12, 342705, Note_off_c, 11, 73, 56
12, 342720, Note_on_c, 11, 73, 107
12, 342720, Note_on_c, 11, 73, 107
12, 342765, Note_off_c, 11, 73, 56
12, 342765, Note_off_c, 11, 73, 56
12, 342780, Note_on_c, 11, 73, 107
12, 342825, Note_off_c, 11, 73, 56
12, 342840, Note_on_c, 11, 73, 108
12, 342885, Note_off_c, 11, 73, 56
12, 342900, Note_on_c, 11, 73, 108
12, 342945, Note_off_c, 11, 73, 56
12, 342960, Note_on_c, 11, 73, 108
12, 343005, Note_off_c, 11, 73, 56
12, 343020, Note_on_c, 11, 73, 108
12, 343020, Note_on_c, 11, 73, 108
12, 343065, Note_off_c, 11, 73, 56
12, 343065, Note_off_c, 11, 73, 56
12, 343080, Note_on_c, 11, 73, 108
12, 343125, Note_off_c, 11, 73, 56
12, 343140, Note_on_c, 11, 73, 108
12, 343185, Note_off_c, 11, 73, 56
12, 343200, Note_on_c, 11, 73, 108
12, 343245, Note_off_c, 11, 73, 56
12, 343260, Note_on_c, 11, 73, 108
12, 343305, Note_off_c, 11, 73, 56
12, 343320, Note_on_c, 11, 73, 108
12, 343320, Note_on_c, 11, 73, 108
12, 343365, Note_off_c, 11, 73, 56
12, 343365, Note_off_c, 11, 73, 56
12, 343380, Note_on_c, 11, 73, 109
12, 343425, Note_off_c, 11, 73, 56
12, 343440, Note_on_c, 11, 73, 109
12, 343485, Note_off_c, 11, 73, 56
12, 343500, Note_on_c, 11, 73, 109
12, 343545, Note_off_c, 11, 73, 56
12, 343560, Note_on_c, 11, 73, 109
12, 343560, Note_on_c, 11, 73, 109
12, 343605, Note_off_c, 11, 73, 56
12, 343605, Note_off_c, 11, 73, 56
12, 343620, Note_on_c, 11, 73, 109
12, 343665, Note_off_c, 11, 73, 56
12, 343680, Note_on_c, 11, 73, 109
12, 343725, Note_off_c, 11, 73, 56
12, 343740, Note_on_c, 11, 73, 109
12, 343785, Note_off_c, 11, 73, 56
12, 343800, Note_on_c, 11, 73, 109
12, 343800, Note_on_c, 11, 73, 109
12, 343845, Note_off_c, 11, 73, 56
12, 343845, Note_off_c, 11, 73, 56
12, 343860, Note_on_c, 11, 73, 110
12, 343905, Note_off_c, 11, 73, 56
12, 343920, Note_on_c, 11, 73, 110
12, 343965, Note_off_c, 11, 73, 56
12, 343980, Note_on_c, 11, 73, 110
12, 344025, Note_off_c, 11, 73, 56
12, 344040, Note_on_c, 11, 73, 110
12, 344040, Note_on_c, 11, 73, 110
12, 344085, Note_off_c, 11, 73, 56
12, 344085, Note_off_c, 11, 73, 56
12, 344100, Note_on_c, 11, 73, 110
12, 344145, Note_off_c, 11, 73, 56
12, 344160, Note_on_c, 11, 73, 110
12, 344205, Note_off_c, 11, 73, 56
12, 344220, Note_on_c, 11, 73, 110
12, 344265, Note_off_c, 11, 73, 56
12, 344280, Note_on_c, 11, 73, 110
12, 344325, Note_off_c, 11, 73, 56
12, 344340, Note_on_c, 11, 73, 110
12, 344385, Note_off_c, 11, 73, 56
12, 344400, Note_on_c, 11, 73, 111
12, 344445, Note_off_c, 11, 73, 56
12, 344460, Note_on_c, 11, 73, 111
12, 344505, Note_off_c, 11, 73, 56
12, 344520, Note_on_c, 11, 73, 111
12, 344565, Note_off_c, 11, 73, 56
12, 344580, Note_on_c, 11, 73, 111
12, 344625, Note_off_c, 11, 73, 56
12, 344640, Note_on_c, 11, 73, 111
12, 344685, Note_off_c, 11, 73, 56
12, 344700, Note_on_c, 11, 73, 111
12, 344745, Note_off_c, 11, 73, 56
12, 344760, Note_on_c, 11, 73, 111
12, 344805, Note_off_c, 11, 73, 56
12, 344820, Note_on_c, 11, 73, 111
12, 344865, Note_off_c, 11, 73, 56
12, 344880, Note_on_c, 11, 73, 113
12, 344925, Note_off_c, 11, 73, 56
12, 344940, Note_on_c, 11, 73, 113
12, 344985, Note_off_c, 11, 73, 56
12, 345000, Note_on_c, 11, 73, 113
12, 345045, Note_off_c, 11, 73, 56
12, 345060, Note_on_c, 11, 73, 113
12, 345105, Note_off_c, 11, 73, 56
12, 345120, Note_on_c, 11, 73, 113
12, 345165, Note_off_c, 11, 73, 56
12, 345180, Note_on_c, 11, 73, 113
12, 345225, Note_off_c, 11, 73, 56
12, 345240, Note_on_c, 11, 73, 113
12, 345285, Note_off_c, 11, 73, 56
12, 345300, Note_on_c, 11, 73, 113
12, 345345, Note_off_c, 11, 73, 56
12, 345360, Note_on_c, 11, 73, 113
12, 345405, Note_off_c, 11, 73, 56
12, 345420, Note_on_c, 11, 73, 113
12, 345465, Note_off_c, 11, 73, 56
12, 345480, Note_on_c, 11, 73, 113
12, 345525, Note_off_c, 11, 73, 56
12, 345540, Note_on_c, 11, 73, 113
12, 345585, Note_off_c, 11, 73, 56
12, 345600, Note_on_c, 11, 73, 113
12, 345645, Note_off_c, 11, 73, 56
12, 345660, Note_on_c, 11, 73, 113
12, 345705, Note_off_c, 11, 73, 56
12, 345720, Note_on_c, 11, 73, 113
12, 345765, Note_off_c, 11, 73, 56
12, 345780, Note_on_c, 11, 73, 113
12, 345825, Note_off_c, 11, 73, 56
12, 345840, Note_on_c, 11, 73, 113
12, 345885, Note_off_c, 11, 73, 56
12, 345900, Note_on_c, 11, 73, 113
12, 345945, Note_off_c, 11, 73, 56
12, 345960, Note_on_c, 11, 73, 113
12, 346005, Note_off_c, 11, 73, 56
12, 346020, Note_on_c, 11, 73, 113
12, 346065, Note_off_c, 11, 73, 56
12, 346080, Note_on_c, 11, 74, 113
12, 346125, Note_off_c, 11, 74, 56
12, 346140, Note_on_c, 11, 74, 113
12, 346185, Note_off_c, 11, 74, 56
12, 346200, Note_on_c, 11, 74, 113
12, 346245, Note_off_c, 11, 74, 56
12, 346260, Note_on_c, 11, 74, 113
12, 346305, Note_off_c, 11, 74, 56
12, 346320, Note_on_c, 11, 74, 113
12, 346365, Note_off_c, 11, 74, 56
12, 346380, Note_on_c, 11, 74, 113
12, 346425, Note_off_c, 11, 74, 56
12, 346440, Note_on_c, 11, 74, 113
12, 346485, Note_off_c, 11, 74, 56
12, 346500, Note_on_c, 11, 74, 113
12, 346545, Note_off_c, 11, 74, 56
12, 346560, Note_on_c, 11, 74, 113
12, 346605, Note_off_c, 11, 74, 56
12, 346620, Note_on_c, 11, 74, 113
12, 346665, Note_off_c, 11, 74, 56
12, 346680, Note_on_c, 11, 74, 113
12, 346725, Note_off_c, 11, 74, 56
12, 346740, Note_on_c, 11, 74, 113
12, 346785, Note_off_c, 11, 74, 56
12, 346800, Note_on_c, 11, 74, 113
12, 346845, Note_off_c, 11, 74, 56
12, 346860, Note_on_c, 11, 74, 113
12, 346905, Note_off_c, 11, 74, 56
12, 346920, Note_on_c, 11, 74, 113
12, 346965, Note_off_c, 11, 74, 56
12, 346980, Note_on_c, 11, 74, 113
12, 347025, Note_off_c, 11, 74, 56
12, 347040, Note_on_c, 11, 74, 113
12, 347085, Note_off_c, 11, 74, 56
12, 347100, Note_on_c, 11, 74, 113
12, 347145, Note_off_c, 11, 74, 56
12, 347160, Note_on_c, 11, 74, 113
12, 347205, Note_off_c, 11, 74, 56
12, 347220, Note_on_c, 11, 74, 113
12, 347265, Note_off_c, 11, 74, 56
12, 347280, Note_on_c, 11, 74, 113
12, 347325, Note_off_c, 11, 74, 56
12, 347340, Note_on_c, 11, 74, 113
12, 347385, Note_off_c, 11, 74, 56
12, 347400, Note_on_c, 11, 74, 113
12, 347445, Note_off_c, 11, 74, 56
12, 347460, Note_on_c, 11, 74, 113
12, 347505, Note_off_c, 11, 74, 56
12, 347520, Note_on_c, 11, 74, 113
12, 347565, Note_off_c, 11, 74, 56
12, 347580, Note_on_c, 11, 74, 113
12, 347625, Note_off_c, 11, 74, 56
12, 347640, Note_on_c, 11, 74, 113
12, 347685, Note_off_c, 11, 74, 56
12, 347700, Note_on_c, 11, 74, 113
12, 347745, Note_off_c, 11, 74, 56
12, 347760, Note_on_c, 11, 74, 113
12, 347805, Note_off_c, 11, 74, 56
12, 347820, Note_on_c, 11, 74, 113
12, 347865, Note_off_c, 11, 74, 56
12, 347880, Note_on_c, 11, 74, 113
12, 347925, Note_off_c, 11, 74, 56
12, 347940, Note_on_c, 11, 74, 113
12, 347985, Note_off_c, 11, 74, 56
12, 348000, Note_on_c, 11, 75, 113
12, 348045, Note_off_c, 11, 75, 56
12, 348060, Note_on_c, 11, 75, 113
12, 348105, Note_off_c, 11, 75, 56
12, 348120, Note_on_c, 11, 75, 113
12, 348165, Note_off_c, 11, 75, 56
12, 348180, Note_on_c, 11, 75, 113
12, 348225, Note_off_c, 11, 75, 56
12, 348240, Note_on_c, 11, 75, 113
12, 348285, Note_off_c, 11, 75, 56
12, 348300, Note_on_c, 11, 75, 113
12, 348345, Note_off_c, 11, 75, 56
12, 348360, Note_on_c, 11, 75, 113
12, 348405, Note_off_c, 11, 75, 56
12, 348420, Note_on_c, 11, 75, 113
12, 348465, Note_off_c, 11, 75, 56
12, 348480, Note_on_c, 11, 75, 113
12, 348525, Note_off_c, 11, 75, 56
12, 348540, Note_on_c, 11, 75, 113
12, 348585, Note_off_c, 11, 75, 56
12, 348600, Note_on_c, 11, 75, 113
12, 348645, Note_off_c, 11, 75, 56
12, 348660, Note_on_c, 11, 75, 113
12, 348705, Note_off_c, 11, 75, 56
12, 348720, Note_on_c, 11, 75, 113
12, 348765, Note_off_c, 11, 75, 56
12, 348780, Note_on_c, 11, 75, 113
12, 348825, Note_off_c, 11, 75, 56
12, 348840, Note_on_c, 11, 75, 113
12, 348885, Note_off_c, 11, 75, 56
12, 348900, Note_on_c, 11, 75, 113
12, 348945, Note_off_c, 11, 75, 56
12, 348960, Note_on_c, 11, 75, 113
12, 349005, Note_off_c, 11, 75, 56
12, 349020, Note_on_c, 11, 75, 113
12, 349065, Note_off_c, 11, 75, 56
12, 349080, Note_on_c, 11, 75, 113
12, 349125, Note_off_c, 11, 75, 56
12, 349140, Note_on_c, 11, 75, 113
12, 349185, Note_off_c, 11, 75, 56
12, 349200, Note_on_c, 11, 75, 113
12, 349245, Note_off_c, 11, 75, 56
12, 349260, Note_on_c, 11, 75, 113
12, 349305, Note_off_c, 11, 75, 56
12, 349320, Note_on_c, 11, 75, 113
12, 349365, Note_off_c, 11, 75, 56
12, 349380, Note_on_c, 11, 75, 113
12, 349425, Note_off_c, 11, 75, 56
12, 349440, Note_on_c, 11, 75, 113
12, 349485, Note_off_c, 11, 75, 56
12, 349500, Note_on_c, 11, 75, 113
12, 349545, Note_off_c, 11, 75, 56
12, 349560, Note_on_c, 11, 75, 113
12, 349605, Note_off_c, 11, 75, 56
12, 349620, Note_on_c, 11, 75, 113
12, 349665, Note_off_c, 11, 75, 56
12, 349680, Note_on_c, 11, 75, 113
12, 349725, Note_off_c, 11, 75, 56
12, 349740, Note_on_c, 11, 75, 113
12, 349785, Note_off_c, 11, 75, 56
12, 349800, Note_on_c, 11, 75, 113
12, 349845, Note_off_c, 11, 75, 56
12, 349860, Note_on_c, 11, 75, 113
12, 349905, Note_off_c, 11, 75, 56
12, 349920, Control_c, 11, 7, 100
12, 349922, Note_on_c, 11, 84, 108
12, 349923, Note_on_c, 11, 76, 108
12, 349932, Control_c, 11, 0, 0
12, 349932, Control_c, 11, 32, 8
12, 349932, Program_c, 11, 50
12, 350570, Note_off_c, 11, 84, 64
12, 350571, Note_off_c, 11, 76, 64
12, 351120, Note_on_c, 11, 62, 108
12, 351192, Note_off_c, 11, 62, 56
12, 351200, Note_on_c, 11, 64, 108
12, 351272, Note_off_c, 11, 64, 56
12, 351279, Note_on_c, 11, 65, 108
12, 351351, Note_off_c, 11, 65, 56
12, 351601, Note_on_c, 11, 60, 108
12, 351673, Note_off_c, 11, 60, 56
12, 351680, Note_on_c, 11, 62, 108
12, 351752, Note_off_c, 11, 62, 56
12, 351760, Note_on_c, 11, 64, 108
12, 351832, Note_off_c, 11, 64, 56
12, 352079, Note_on_c, 11, 59, 108
12, 352151, Note_off_c, 11, 59, 56
12, 352161, Note_on_c, 11, 60, 108
12, 352233, Note_off_c, 11, 60, 56
12, 352240, Note_on_c, 11, 62, 108
12, 352312, Note_off_c, 11, 62, 56
12, 353040, Note_on_c, 11, 64, 108
12, 353112, Note_off_c, 11, 64, 56
12, 353121, Note_on_c, 11, 65, 108
12, 353193, Note_off_c, 11, 65, 56
12, 353199, Note_on_c, 11, 67, 108
12, 353271, Note_off_c, 11, 67, 56
12, 353521, Note_on_c, 11, 62, 108
12, 353593, Note_off_c, 11, 62, 56
12, 353600, Note_on_c, 11, 64, 108
12, 353672, Note_off_c, 11, 64, 56
12, 353681, Note_on_c, 11, 65, 108
12, 353753, Note_off_c, 11, 65, 56
12, 354001, Note_on_c, 11, 60, 108
12, 354073, Note_off_c, 11, 60, 56
12, 354081, Note_on_c, 11, 62, 108
12, 354153, Note_off_c, 11, 62, 56
12, 354159, Note_on_c, 11, 64, 108
12, 354231, Note_off_c, 11, 64, 56
12, 354481, Note_on_c, 11, 67, 108
12, 354553, Note_off_c, 11, 67, 56
12, 354561, Note_on_c, 11, 65, 108
12, 354633, Note_off_c, 11, 65, 56
12, 354639, Note_on_c, 11, 64, 108
12, 354711, Note_off_c, 11, 64, 56
12, 354722, Note_on_c, 11, 62, 108
12, 354938, Note_off_c, 11, 62, 64
12, 354960, Note_on_c, 11, 65, 108
12, 355032, Note_off_c, 11, 65, 56
12, 355040, Note_on_c, 11, 64, 108
12, 355112, Note_off_c, 11, 64, 56
12, 355121, Note_on_c, 11, 62, 108
12, 355193, Note_off_c, 11, 62, 56
12, 355203, Note_on_c, 11, 60, 108
12, 355419, Note_off_c, 11, 60, 64
12, 355439, Note_on_c, 11, 64, 108
12, 355511, Note_off_c, 11, 64, 56
12, 355520, Note_on_c, 11, 62, 108
12, 355592, Note_off_c, 11, 62, 56
12, 355599, Note_on_c, 11, 60, 108
12, 355671, Note_off_c, 11, 60, 56
12, 355682, Note_on_c, 11, 59, 108
12, 355818, Note_off_c, 11, 59, 64
12, 355919, Note_on_c, 11, 59, 108
12, 355991, Note_off_c, 11, 59, 56
12, 355999, Note_on_c, 11, 60, 108
12, 356071, Note_off_c, 11, 60, 56
12, 356080, Note_on_c, 11, 62, 108
12, 356152, Note_off_c, 11, 62, 56
12, 356161, Note_on_c, 11, 55, 108
12, 356297, Note_off_c, 11, 55, 64
12, 356400, Note_on_c, 11, 69, 108
12, 356472, Note_off_c, 11, 69, 56
12, 356481, Note_on_c, 11, 67, 108
12, 356553, Note_off_c, 11, 67, 56
12, 356561, Note_on_c, 11, 65, 108
12, 356633, Note_off_c, 11, 65, 56
12, 356637, Note_on_c, 11, 64, 108
12, 356853, Note_off_c, 11, 64, 64
12, 356880, Note_on_c, 11, 67, 108
12, 356952, Note_off_c, 11, 67, 56
12, 356960, Note_on_c, 11, 65, 108
12, 357032, Note_off_c, 11, 65, 56
12, 357040, Note_on_c, 11, 64, 108
12, 357112, Note_off_c, 11, 64, 56
12, 357121, Note_on_c, 11, 62, 108
12, 357337, Note_off_c, 11, 62, 64
12, 357360, Note_on_c, 11, 65, 108
12, 357432, Note_off_c, 11, 65, 56
12, 357439, Note_on_c, 11, 64, 108
12, 357511, Note_off_c, 11, 64, 56
12, 357520, Note_on_c, 11, 62, 108
12, 357592, Note_off_c, 11, 62, 56
12, 357601, Note_on_c, 11, 60, 108
12, 357737, Note_off_c, 11, 60, 64
12, 357839, Note_on_c, 11, 60, 108
12, 357911, Note_off_c, 11, 60, 56
12, 357920, Note_on_c, 11, 62, 108
12, 357992, Note_off_c, 11, 62, 56
12, 358001, Note_on_c, 11, 64, 108
12, 358073, Note_off_c, 11, 64, 56
12, 358078, Note_on_c, 11, 55, 108
12, 358214, Note_off_c, 11, 55, 64
12, 358320, Note_on_c, 11, 72, 113
12, 358320, Control_c, 11, 7, 120
12, 358320, Program_c, 11, 44
12, 358380, Note_off_c, 11, 72, 56
12, 358399, Note_on_c, 11, 72, 113
12, 358459, Note_off_c, 11, 72, 56
12, 358481, Note_on_c, 11, 72, 113
12, 358541, Note_off_c, 11, 72, 56
12, 358559, Note_on_c, 11, 71, 113
12, 358619, Note_off_c, 11, 71, 56
12, 358641, Note_on_c, 11, 71, 113
12, 358701, Note_off_c, 11, 71, 56
12, 358721, Note_on_c, 11, 71, 113
12, 358781, Note_off_c, 11, 71, 56
12, 358799, Note_on_c, 11, 71, 113
12, 358859, Note_off_c, 11, 71, 56
12, 358880, Note_on_c, 11, 71, 113
12, 358940, Note_off_c, 11, 71, 56
12, 358959, Note_on_c, 11, 71, 113
12, 359019, Note_off_c, 11, 71, 56
12, 359041, Note_on_c, 11, 72, 113
12, 359101, Note_off_c, 11, 72, 56
12, 359120, Note_on_c, 11, 72, 113
12, 359180, Note_off_c, 11, 72, 56
12, 359200, Note_on_c, 11, 72, 113
12, 359260, Note_off_c, 11, 72, 56
12, 359281, Note_on_c, 11, 72, 113
12, 359341, Note_off_c, 11, 72, 56
12, 359361, Note_on_c, 11, 72, 113
12, 359421, Note_off_c, 11, 72, 56
12, 359440, Note_on_c, 11, 72, 113
12, 359500, Note_off_c, 11, 72, 56
12, 359519, Note_on_c, 11, 71, 113
12, 359579, Note_off_c, 11, 71, 56
12, 359600, Note_on_c, 11, 71, 113
12, 359660, Note_off_c, 11, 71, 56
12, 359681, Note_on_c, 11, 71, 113
12, 359741, Note_off_c, 11, 71, 56
12, 359761, Note_on_c, 11, 71, 113
12, 359821, Note_off_c, 11, 71, 56
12, 359840, Note_on_c, 11, 71, 113
12, 359900, Note_off_c, 11, 71, 56
12, 359919, Note_on_c, 11, 71, 113
12, 359979, Note_off_c, 11, 71, 56
12, 360001, Note_on_c, 11, 71, 113
12, 360061, Note_off_c, 11, 71, 56
12, 360081, Note_on_c, 11, 71, 113
12, 360141, Note_off_c, 11, 71, 56
12, 360161, Note_on_c, 11, 71, 113
12, 360221, Note_off_c, 11, 71, 56
12, 360241, Note_on_c, 11, 71, 113
12, 360301, Note_off_c, 11, 71, 56
12, 360319, Note_on_c, 11, 71, 113
12, 360379, Note_off_c, 11, 71, 56
12, 360399, Note_on_c, 11, 71, 113
12, 360459, Note_off_c, 11, 71, 56
12, 360479, Note_on_c, 11, 70, 113
12, 360539, Note_off_c, 11, 70, 56
12, 360559, Note_on_c, 11, 70, 113
12, 360619, Note_off_c, 11, 70, 56
12, 360641, Note_on_c, 11, 70, 113
12, 360701, Note_off_c, 11, 70, 56
12, 360720, Note_on_c, 11, 70, 113
12, 360780, Note_off_c, 11, 70, 56
12, 360800, Note_on_c, 11, 70, 113
12, 360860, Note_off_c, 11, 70, 56
12, 360879, Note_on_c, 11, 70, 113
12, 360939, Note_off_c, 11, 70, 56
12, 360960, Note_on_c, 11, 70, 113
12, 361020, Note_off_c, 11, 70, 56
12, 361040, Note_on_c, 11, 70, 113
12, 361100, Note_off_c, 11, 70, 56
12, 361119, Note_on_c, 11, 70, 113
12, 361179, Note_off_c, 11, 70, 56
12, 361201, Note_on_c, 11, 70, 113
12, 361261, Note_off_c, 11, 70, 56
12, 361281, Note_on_c, 11, 70, 113
12, 361341, Note_off_c, 11, 70, 56
12, 361361, Note_on_c, 11, 70, 113
12, 361421, Note_off_c, 11, 70, 56
12, 361439, Note_on_c, 11, 70, 113
12, 361499, Note_off_c, 11, 70, 56
12, 361521, Note_on_c, 11, 70, 113
12, 361581, Note_off_c, 11, 70, 56
12, 361599, Note_on_c, 11, 70, 113
12, 361659, Note_off_c, 11, 70, 56
12, 361680, Note_on_c, 11, 70, 113
12, 361740, Note_off_c, 11, 70, 56
12, 361761, Note_on_c, 11, 70, 113
12, 361821, Note_off_c, 11, 70, 56
12, 361841, Note_on_c, 11, 70, 113
12, 361901, Note_off_c, 11, 70, 56
12, 361921, Note_on_c, 11, 70, 113
12, 361981, Note_off_c, 11, 70, 56
12, 362001, Note_on_c, 11, 70, 113
12, 362061, Note_off_c, 11, 70, 56
12, 362080, Note_on_c, 11, 70, 113
12, 362140, Note_off_c, 11, 70, 56
12, 362159, Note_on_c, 11, 70, 113
12, 362219, Note_off_c, 11, 70, 56
12, 362241, Note_on_c, 11, 70, 113
12, 362301, Note_off_c, 11, 70, 56
12, 362321, Note_on_c, 11, 70, 113
12, 362381, Note_off_c, 11, 70, 56
12, 362401, Note_on_c, 11, 70, 113
12, 362461, Note_off_c, 11, 70, 56
12, 362480, Note_on_c, 11, 70, 113
12, 362540, Note_off_c, 11, 70, 56
12, 362560, Note_on_c, 11, 70, 113
12, 362620, Note_off_c, 11, 70, 56
12, 362641, Note_on_c, 11, 70, 113
12, 362701, Note_off_c, 11, 70, 56
12, 362721, Note_on_c, 11, 70, 113
12, 362781, Note_off_c, 11, 70, 56
12, 362799, Note_on_c, 11, 70, 113
12, 362859, Note_off_c, 11, 70, 56
12, 362881, Note_on_c, 11, 70, 113
12, 362941, Note_off_c, 11, 70, 56
12, 362960, Note_on_c, 11, 70, 113
12, 363020, Note_off_c, 11, 70, 56
12, 363039, Note_on_c, 11, 70, 113
12, 363099, Note_off_c, 11, 70, 56
12, 363120, Note_on_c, 11, 70, 113
12, 363180, Note_off_c, 11, 70, 56
12, 363200, Note_on_c, 11, 70, 113
12, 363260, Note_off_c, 11, 70, 56
12, 363280, Note_on_c, 11, 70, 113
12, 363340, Note_off_c, 11, 70, 56
12, 363360, Note_on_c, 11, 69, 113
12, 363405, Note_off_c, 11, 69, 56
12, 363420, Note_on_c, 11, 60, 113
12, 363465, Note_off_c, 11, 60, 56
12, 363480, Note_on_c, 11, 69, 113
12, 363525, Note_off_c, 11, 69, 56
12, 363540, Note_on_c, 11, 69, 113
12, 363585, Note_off_c, 11, 69, 56
12, 363600, Note_on_c, 11, 69, 113
12, 363645, Note_off_c, 11, 69, 56
12, 363660, Note_on_c, 11, 69, 113
12, 363705, Note_off_c, 11, 69, 56
12, 363720, Note_on_c, 11, 69, 113
12, 363765, Note_off_c, 11, 69, 56
12, 363780, Note_on_c, 11, 69, 113
12, 363825, Note_off_c, 11, 69, 56
12, 363840, Note_on_c, 11, 69, 113
12, 363885, Note_off_c, 11, 69, 56
12, 363900, Note_on_c, 11, 69, 113
12, 363945, Note_off_c, 11, 69, 56
12, 363960, Note_on_c, 11, 69, 113
12, 364005, Note_off_c, 11, 69, 56
12, 364020, Note_on_c, 11, 69, 113
12, 364065, Note_off_c, 11, 69, 56
12, 364080, Note_on_c, 11, 69, 113
12, 364125, Note_off_c, 11, 69, 56
12, 364140, Note_on_c, 11, 69, 113
12, 364185, Note_off_c, 11, 69, 56
12, 364200, Note_on_c, 11, 69, 113
12, 364245, Note_off_c, 11, 69, 56
12, 364260, Note_on_c, 11, 69, 113
12, 364305, Note_off_c, 11, 69, 56
12, 364320, Note_on_c, 11, 72, 113
12, 364365, Note_off_c, 11, 72, 56
12, 364380, Note_on_c, 11, 69, 113
12, 364425, Note_off_c, 11, 69, 56
12, 364440, Note_on_c, 11, 72, 113
12, 364485, Note_off_c, 11, 72, 56
12, 364500, Note_on_c, 11, 72, 113
12, 364545, Note_off_c, 11, 72, 56
12, 364560, Note_on_c, 11, 72, 113
12, 364605, Note_off_c, 11, 72, 56
12, 364620, Note_on_c, 11, 72, 113
12, 364665, Note_off_c, 11, 72, 56
12, 364680, Note_on_c, 11, 72, 113
12, 364725, Note_off_c, 11, 72, 56
12, 364740, Note_on_c, 11, 72, 113
12, 364785, Note_off_c, 11, 72, 56
12, 364800, Note_on_c, 11, 72, 113
12, 364845, Note_off_c, 11, 72, 56
12, 364860, Note_on_c, 11, 72, 113
12, 364905, Note_off_c, 11, 72, 56
12, 364920, Note_on_c, 11, 72, 113
12, 364965, Note_off_c, 11, 72, 56
12, 364980, Note_on_c, 11, 72, 113
12, 365025, Note_off_c, 11, 72, 56
12, 365040, Note_on_c, 11, 72, 113
12, 365085, Note_off_c, 11, 72, 56
12, 365100, Note_on_c, 11, 72, 113
12, 365145, Note_off_c, 11, 72, 56
12, 365160, Note_on_c, 11, 72, 113
12, 365205, Note_off_c, 11, 72, 56
12, 365220, Note_on_c, 11, 72, 113
12, 365265, Note_off_c, 11, 72, 56
12, 365280, Note_on_c, 11, 77, 113
12, 365325, Note_off_c, 11, 77, 56
12, 365340, Note_on_c, 11, 69, 113
12, 365385, Note_off_c, 11, 69, 56
12, 365400, Note_on_c, 11, 77, 113
12, 365445, Note_off_c, 11, 77, 56
12, 365460, Note_on_c, 11, 77, 113
12, 365505, Note_off_c, 11, 77, 56
12, 365520, Note_on_c, 11, 77, 113
12, 365565, Note_off_c, 11, 77, 56
12, 365580, Note_on_c, 11, 77, 113
12, 365625, Note_off_c, 11, 77, 56
12, 365640, Note_on_c, 11, 77, 113
12, 365685, Note_off_c, 11, 77, 56
12, 365700, Note_on_c, 11, 77, 113
12, 365745, Note_off_c, 11, 77, 56
12, 365760, Note_on_c, 11, 77, 113
12, 365805, Note_off_c, 11, 77, 56
12, 365820, Note_on_c, 11, 77, 113
12, 365865, Note_off_c, 11, 77, 56
12, 365880, Note_on_c, 11, 77, 113
12, 365925, Note_off_c, 11, 77, 56
12, 365940, Note_on_c, 11, 77, 113
12, 365985, Note_off_c, 11, 77, 56
12, 366000, Note_on_c, 11, 77, 113
12, 366045, Note_off_c, 11, 77, 56
12, 366060, Note_on_c, 11, 77, 113
12, 366105, Note_off_c, 11, 77, 56
12, 366120, Note_on_c, 11, 77, 113
12, 366165, Note_off_c, 11, 77, 56
12, 366180, Note_on_c, 11, 77, 113
12, 366225, Note_off_c, 11, 77, 56
12, 366240, Note_on_c, 11, 81, 113
12, 366285, Note_off_c, 11, 81, 56
12, 366300, Note_on_c, 11, 69, 113
12, 366345, Note_off_c, 11, 69, 56
12, 366360, Note_on_c, 11, 81, 113
12, 366405, Note_off_c, 11, 81, 56
12, 366420, Note_on_c, 11, 81, 113
12, 366465, Note_off_c, 11, 81, 56
12, 366480, Note_on_c, 11, 81, 113
12, 366525, Note_off_c, 11, 81, 56
12, 366540, Note_on_c, 11, 81, 113
12, 366585, Note_off_c, 11, 81, 56
12, 366600, Note_on_c, 11, 81, 113
12, 366645, Note_off_c, 11, 81, 56
12, 366660, Note_on_c, 11, 81, 113
12, 366705, Note_off_c, 11, 81, 56
12, 366720, Note_on_c, 11, 81, 113
12, 366765, Note_off_c, 11, 81, 56
12, 366780, Note_on_c, 11, 81, 113
12, 366825, Note_off_c, 11, 81, 56
12, 366840, Note_on_c, 11, 81, 113
12, 366885, Note_off_c, 11, 81, 56
12, 366900, Note_on_c, 11, 81, 113
12, 366945, Note_off_c, 11, 81, 56
12, 366960, Note_on_c, 11, 81, 113
12, 367005, Note_off_c, 11, 81, 56
12, 367020, Note_on_c, 11, 81, 113
12, 367065, Note_off_c, 11, 81, 56
12, 367080, Note_on_c, 11, 81, 113
12, 367125, Note_off_c, 11, 81, 56
12, 367140, Note_on_c, 11, 81, 113
12, 367185, Note_off_c, 11, 81, 56
12, 367200, Control_c, 11, 7, 100
12, 367201, Note_on_c, 11, 79, 108
12, 367212, Control_c, 11, 0, 0
12, 367212, Control_c, 11, 32, 8
12, 367212, Program_c, 11, 50
12, 367337, Note_off_c, 11, 79, 64
12, 368158, Note_on_c, 11, 55, 108
12, 368163, Note_on_c, 11, 62, 108
12, 368363, Note_off_c, 11, 55, 64
12, 368368, Note_off_c, 11, 62, 64
12, 369119, Note_on_c, 11, 64, 108
12, 369120, Note_on_c, 11, 55, 108
12, 369324, Note_off_c, 11, 64, 64
12, 369325, Note_off_c, 11, 55, 64
12, 370078, Note_on_c, 11, 62, 108
12, 370083, Note_on_c, 11, 55, 108
12, 370283, Note_off_c, 11, 62, 64
12, 370288, Note_off_c, 11, 55, 64
12, 371037, Note_on_c, 11, 64, 108
12, 371039, Note_on_c, 11, 55, 108
12, 371242, Note_off_c, 11, 64, 64
12, 371244, Note_off_c, 11, 55, 64
12, 371999, Note_on_c, 11, 55, 108
12, 372003, Note_on_c, 11, 62, 108
12, 372204, Note_off_c, 11, 55, 64
12, 372208, Note_off_c, 11, 62, 64
12, 378960, Note_on_c, 11, 59, 79
12, 378987, Note_off_c, 11, 59, 56
12, 378990, Note_on_c, 11, 60, 79
12, 379017, Note_off_c, 11, 60, 56
12, 379023, Note_on_c, 11, 62, 74
12, 379185, Note_off_c, 11, 62, 64
12, 379440, Note_on_c, 11, 59, 83
12, 379467, Note_off_c, 11, 59, 56
12, 379470, Note_on_c, 11, 60, 83
12, 379497, Note_off_c, 11, 60, 56
12, 379497, Note_on_c, 11, 62, 78
12, 379659, Note_off_c, 11, 62, 64
12, 379920, Note_on_c, 11, 60, 85
12, 379947, Note_off_c, 11, 60, 56
12, 379950, Note_on_c, 11, 62, 85
12, 379977, Note_off_c, 11, 62, 56
12, 379980, Note_on_c, 11, 64, 80
12, 380142, Note_off_c, 11, 64, 64
12, 380400, Note_on_c, 11, 60, 88
12, 380427, Note_off_c, 11, 60, 56
12, 380430, Note_on_c, 11, 62, 88
12, 380457, Note_off_c, 11, 62, 56
12, 380462, Note_on_c, 11, 64, 83
12, 380624, Note_off_c, 11, 64, 64
12, 380880, Note_on_c, 11, 67, 91
12, 380907, Note_off_c, 11, 67, 56
12, 380910, Note_on_c, 11, 69, 91
12, 380937, Note_off_c, 11, 69, 56
12, 380938, Note_on_c, 11, 71, 87
12, 381100, Note_off_c, 11, 71, 64
12, 381360, Note_on_c, 11, 67, 94
12, 381387, Note_off_c, 11, 67, 56
12, 381390, Note_on_c, 11, 69, 94
12, 381417, Note_off_c, 11, 69, 56
12, 381419, Note_on_c, 11, 71, 89
12, 381581, Note_off_c, 11, 71, 64
12, 381600, Note_on_c, 11, 67, 95
12, 381600, Control_c, 11, 7, 120
12, 381600, Program_c, 11, 44
12, 381645, Note_off_c, 11, 67, 56
12, 381660, Note_on_c, 11, 67, 95
12, 381705, Note_off_c, 11, 67, 56
12, 381720, Note_on_c, 11, 67, 95
12, 381765, Note_off_c, 11, 67, 56
12, 381780, Note_on_c, 11, 67, 95
12, 381825, Note_off_c, 11, 67, 56
12, 381840, Note_on_c, 11, 65, 95
12, 381885, Note_off_c, 11, 65, 56
12, 381900, Note_on_c, 11, 65, 95
12, 381945, Note_off_c, 11, 65, 56
12, 381960, Note_on_c, 11, 65, 95
12, 382005, Note_off_c, 11, 65, 56
12, 382020, Note_on_c, 11, 65, 95
12, 382065, Note_off_c, 11, 65, 56
12, 382080, Note_on_c, 11, 64, 95
12, 382125, Note_off_c, 11, 64, 56
12, 382140, Note_on_c, 11, 64, 95
12, 382185, Note_off_c, 11, 64, 56
12, 382200, Note_on_c, 11, 64, 95
12, 382245, Note_off_c, 11, 64, 56
12, 382260, Note_on_c, 11, 64, 95
12, 382305, Note_off_c, 11, 64, 56
12, 382320, Note_on_c, 11, 62, 95
12, 382365, Note_off_c, 11, 62, 56
12, 382380, Note_on_c, 11, 62, 95
12, 382425, Note_off_c, 11, 62, 56
12, 382440, Note_on_c, 11, 62, 95
12, 382485, Note_off_c, 11, 62, 56
12, 382500, Note_on_c, 11, 62, 95
12, 382545, Note_off_c, 11, 62, 56
12, 382560, Note_on_c, 11, 60, 95
12, 382605, Note_off_c, 11, 60, 56
12, 382620, Note_on_c, 11, 60, 95
12, 382665, Note_off_c, 11, 60, 56
12, 382680, Note_on_c, 11, 60, 95
12, 382725, Note_off_c, 11, 60, 56
12, 382740, Note_on_c, 11, 60, 95
12, 382785, Note_off_c, 11, 60, 56
12, 382800, Note_on_c, 11, 67, 95
12, 382845, Note_off_c, 11, 67, 56
12, 382860, Note_on_c, 11, 67, 95
12, 382905, Note_off_c, 11, 67, 56
12, 382920, Note_on_c, 11, 67, 95
12, 382965, Note_off_c, 11, 67, 56
12, 382980, Note_on_c, 11, 67, 95
12, 383025, Note_off_c, 11, 67, 56
12, 383040, Note_on_c, 11, 69, 95
12, 383085, Note_off_c, 11, 69, 56
12, 383100, Note_on_c, 11, 69, 95
12, 383145, Note_off_c, 11, 69, 56
12, 383160, Note_on_c, 11, 69, 95
12, 383205, Note_off_c, 11, 69, 56
12, 383220, Note_on_c, 11, 69, 95
12, 383265, Note_off_c, 11, 69, 56
12, 383280, Note_on_c, 11, 69, 95
12, 383325, Note_off_c, 11, 69, 56
12, 383340, Note_on_c, 11, 69, 95
12, 383385, Note_off_c, 11, 69, 56
12, 383400, Note_on_c, 11, 69, 95
12, 383445, Note_off_c, 11, 69, 56
12, 383460, Note_on_c, 11, 69, 95
12, 383505, Note_off_c, 11, 69, 56
12, 383520, Note_on_c, 11, 69, 90
12, 383520, Control_c, 11, 7, 100
12, 383544, Control_c, 11, 0, 0
12, 383544, Control_c, 11, 32, 8
12, 383544, Program_c, 11, 50
12, 384168, Note_off_c, 11, 69, 64
12, 384238, Note_on_c, 11, 67, 90
12, 384374, Note_off_c, 11, 67, 64
12, 384483, Note_on_c, 11, 65, 90
12, 385131, Note_off_c, 11, 65, 64
12, 385202, Note_on_c, 11, 64, 90
12, 385338, Note_off_c, 11, 64, 64
12, 385438, Note_on_c, 11, 69, 90
12, 386086, Note_off_c, 11, 69, 64
12, 386159, Note_on_c, 11, 67, 90
12, 386295, Note_off_c, 11, 67, 64
12, 386400, Note_on_c, 11, 65, 90
12, 387048, Note_off_c, 11, 65, 64
12, 387120, Note_on_c, 11, 72, 90
12, 387256, Note_off_c, 11, 72, 64
12, 387363, Note_on_c, 11, 74, 90
12, 387568, Note_off_c, 11, 74, 64
12, 387841, Note_on_c, 11, 72, 73
12, 388046, Note_off_c, 11, 72, 64
12, 388319, Note_on_c, 11, 74, 73
12, 388524, Note_off_c, 11, 74, 64
12, 388797, Note_on_c, 11, 65, 73
12, 389002, Note_off_c, 11, 65, 64
12, 389039, Note_on_c, 11, 55, 90
12, 389255, Note_off_c, 11, 55, 64
12, 389277, Note_on_c, 11, 60, 90
12, 389493, Note_off_c, 11, 60, 64
12, 389521, Note_on_c, 11, 55, 90
12, 389737, Note_off_c, 11, 55, 64
12, 389760, Note_on_c, 11, 64, 90
12, 389976, Note_off_c, 11, 64, 64
12, 389997, Note_on_c, 11, 62, 90
12, 390159, Note_off_c, 11, 62, 64
12, 390181, Note_on_c, 11, 60, 95
12, 390232, Note_off_c, 11, 60, 56
12, 390239, Note_on_c, 11, 67, 90
12, 390887, Note_off_c, 11, 67, 64
12, 392877, Note_on_c, 11, 67, 73
12, 393093, Note_off_c, 11, 67, 64
12, 393120, Note_on_c, 11, 71, 74
12, 393336, Note_off_c, 11, 71, 64
12, 393360, Note_on_c, 11, 67, 75
12, 393576, Note_off_c, 11, 67, 64
12, 393599, Note_on_c, 11, 74, 77
12, 393815, Note_off_c, 11, 74, 64
12, 393840, Note_on_c, 11, 72, 77
12, 394002, Note_off_c, 11, 72, 64
12, 394019, Note_on_c, 11, 71, 83
12, 394070, Note_off_c, 11, 71, 56
12, 394082, Note_on_c, 11, 72, 78
12, 394298, Note_off_c, 11, 72, 64
12, 394321, Note_on_c, 11, 67, 79
12, 394537, Note_off_c, 11, 67, 64
12, 394562, Note_on_c, 11, 76, 79
12, 394778, Note_off_c, 11, 76, 64
12, 394797, Note_on_c, 11, 74, 80
12, 394959, Note_off_c, 11, 74, 64
12, 394980, Note_on_c, 11, 72, 86
12, 395031, Note_off_c, 11, 72, 56
12, 395042, Note_on_c, 11, 71, 81
12, 395258, Note_off_c, 11, 71, 64
12, 395280, Note_on_c, 11, 67, 81
12, 395496, Note_off_c, 11, 67, 64
12, 395523, Note_on_c, 11, 74, 82
12, 395739, Note_off_c, 11, 74, 64
12, 395763, Note_on_c, 11, 72, 83
12, 395925, Note_off_c, 11, 72, 64
12, 395939, Note_on_c, 11, 71, 88
12, 395990, Note_off_c, 11, 71, 56
12, 395998, Note_on_c, 11, 72, 85
12, 396214, Note_off_c, 11, 72, 64
12, 396240, Note_on_c, 11, 67, 85
12, 396456, Note_off_c, 11, 67, 64
12, 396480, Note_on_c, 11, 76, 86
12, 396696, Note_off_c, 11, 76, 64
12, 396720, Note_on_c, 11, 74, 87
12, 396882, Note_off_c, 11, 74, 64
12, 396900, Note_on_c, 11, 72, 92
12, 396951, Note_off_c, 11, 72, 56
12, 396962, Note_on_c, 11, 71, 87
12, 397178, Note_off_c, 11, 71, 64
12, 397197, Note_on_c, 11, 67, 88
12, 397413, Note_off_c, 11, 67, 64
12, 397439, Note_on_c, 11, 74, 89
12, 397655, Note_off_c, 11, 74, 64
12, 397678, Note_on_c, 11, 72, 89
12, 397840, Note_off_c, 11, 72, 64
12, 397859, Note_on_c, 11, 71, 95
12, 397910, Note_off_c, 11, 71, 56
12, 397920, Note_on_c, 11, 72, 95
12, 397920, Control_c, 11, 7, 120
12, 397920, Program_c, 11, 44
12, 397965, Note_off_c, 11, 72, 56
12, 397980, Note_on_c, 11, 72, 95
12, 398025, Note_off_c, 11, 72, 56
12, 398040, Note_on_c, 11, 72, 95
12, 398085, Note_off_c, 11, 72, 56
12, 398100, Note_on_c, 11, 72, 95
12, 398145, Note_off_c, 11, 72, 56
12, 398160, Note_on_c, 11, 65, 95
12, 398205, Note_off_c, 11, 65, 56
12, 398220, Note_on_c, 11, 65, 95
12, 398265, Note_off_c, 11, 65, 56
12, 398280, Note_on_c, 11, 65, 95
12, 398325, Note_off_c, 11, 65, 56
12, 398340, Note_on_c, 11, 65, 95
12, 398385, Note_off_c, 11, 65, 56
12, 398400, Note_on_c, 11, 64, 95
12, 398445, Note_off_c, 11, 64, 56
12, 398460, Note_on_c, 11, 64, 95
12, 398505, Note_off_c, 11, 64, 56
12, 398520, Note_on_c, 11, 64, 95
12, 398565, Note_off_c, 11, 64, 56
12, 398580, Note_on_c, 11, 64, 95
12, 398625, Note_off_c, 11, 64, 56
12, 398640, Note_on_c, 11, 62, 95
12, 398685, Note_off_c, 11, 62, 56
12, 398700, Note_on_c, 11, 62, 95
12, 398745, Note_off_c, 11, 62, 56
12, 398760, Note_on_c, 11, 62, 95
12, 398805, Note_off_c, 11, 62, 56
12, 398820, Note_on_c, 11, 62, 95
12, 398865, Note_off_c, 11, 62, 56
12, 398880, Note_on_c, 11, 60, 95
12, 398925, Note_off_c, 11, 60, 56
12, 398940, Note_on_c, 11, 60, 95
12, 398985, Note_off_c, 11, 60, 56
12, 399000, Note_on_c, 11, 60, 95
12, 399045, Note_off_c, 11, 60, 56
12, 399060, Note_on_c, 11, 60, 95
12, 399105, Note_off_c, 11, 60, 56
12, 399120, Note_on_c, 11, 64, 95
12, 399165, Note_off_c, 11, 64, 56
12, 399180, Note_on_c, 11, 64, 95
12, 399225, Note_off_c, 11, 64, 56
12, 399240, Note_on_c, 11, 64, 95
12, 399285, Note_off_c, 11, 64, 56
12, 399300, Note_on_c, 11, 64, 95
12, 399345, Note_off_c, 11, 64, 56
12, 399360, Note_on_c, 11, 69, 95
12, 399405, Note_off_c, 11, 69, 56
12, 399420, Note_on_c, 11, 69, 95
12, 399465, Note_off_c, 11, 69, 56
12, 399480, Note_on_c, 11, 69, 95
12, 399525, Note_off_c, 11, 69, 56
12, 399540, Note_on_c, 11, 69, 95
12, 399585, Note_off_c, 11, 69, 56
12, 399600, Note_on_c, 11, 67, 95
12, 399645, Note_off_c, 11, 67, 56
12, 399660, Note_on_c, 11, 67, 95
12, 399705, Note_off_c, 11, 67, 56
12, 399720, Note_on_c, 11, 67, 95
12, 399765, Note_off_c, 11, 67, 56
12, 399780, Note_on_c, 11, 67, 95
12, 399825, Note_off_c, 11, 67, 56
12, 399841, Note_on_c, 11, 69, 90
12, 399848, Control_c, 11, 7, 100
12, 399852, Control_c, 11, 0, 0
12, 399852, Control_c, 11, 32, 8
12, 399852, Program_c, 11, 50
12, 400489, Note_off_c, 11, 69, 64
12, 400558, Note_on_c, 11, 67, 90
12, 400694, Note_off_c, 11, 67, 64
12, 400803, Note_on_c, 11, 65, 90
12, 401451, Note_off_c, 11, 65, 64
12, 401519, Note_on_c, 11, 67, 90
12, 401655, Note_off_c, 11, 67, 64
12, 401762, Note_on_c, 11, 69, 90
12, 402410, Note_off_c, 11, 69, 64
12, 402481, Note_on_c, 11, 67, 90
12, 402617, Note_off_c, 11, 67, 64
12, 402718, Note_on_c, 11, 65, 90
12, 403366, Note_off_c, 11, 65, 64
12, 403440, Note_on_c, 11, 72, 90
12, 403576, Note_off_c, 11, 72, 64
12, 403677, Note_on_c, 11, 72, 73
12, 403882, Note_off_c, 11, 72, 64
12, 404160, Note_on_c, 11, 76, 74
12, 404365, Note_off_c, 11, 76, 64
12, 404638, Note_on_c, 11, 72, 74
12, 404843, Note_off_c, 11, 72, 64
12, 405119, Note_on_c, 11, 72, 75
12, 405324, Note_off_c, 11, 72, 64
12, 405601, Note_on_c, 11, 71, 77
12, 405806, Note_off_c, 11, 71, 64
12, 406081, Note_on_c, 11, 72, 77
12, 406286, Note_off_c, 11, 72, 64
12, 406560, Note_on_c, 11, 71, 78
12, 406765, Note_off_c, 11, 71, 64
12, 407037, Note_on_c, 11, 72, 78
12, 407242, Note_off_c, 11, 72, 64
12, 407521, Note_on_c, 11, 72, 79
12, 407726, Note_off_c, 11, 72, 64
12, 408003, Note_on_c, 11, 72, 80
12, 408208, Note_off_c, 11, 72, 64
12, 408479, Note_on_c, 11, 72, 80
12, 408684, Note_off_c, 11, 72, 64
12, 408958, Note_on_c, 11, 72, 81
12, 409163, Note_off_c, 11, 72, 64
12, 409441, Note_on_c, 11, 71, 82
12, 409646, Note_off_c, 11, 71, 64
12, 409920, Note_on_c, 11, 72, 82
12, 410125, Note_off_c, 11, 72, 64
12, 410397, Note_on_c, 11, 71, 83
12, 410602, Note_off_c, 11, 71, 64
12, 410882, Note_on_c, 11, 72, 83
12, 411087, Note_off_c, 11, 72, 64
12, 411363, Note_on_c, 11, 72, 85
12, 411568, Note_off_c, 11, 72, 64
12, 411839, Note_on_c, 11, 72, 86
12, 412044, Note_off_c, 11, 72, 64
12, 412323, Note_on_c, 11, 72, 86
12, 412528, Note_off_c, 11, 72, 64
12, 412798, Note_on_c, 11, 72, 87
12, 413003, Note_off_c, 11, 72, 64
12, 413279, Note_on_c, 11, 71, 88
12, 413484, Note_off_c, 11, 71, 64
12, 413762, Note_on_c, 11, 72, 88
12, 413967, Note_off_c, 11, 72, 64
12, 414241, Note_on_c, 11, 72, 89
12, 414446, Note_off_c, 11, 72, 64
12, 414722, Note_on_c, 11, 71, 89
12, 414927, Note_off_c, 11, 71, 64
12, 417117, Note_on_c, 11, 60, 73
12, 417405, Note_off_c, 11, 60, 64
12, 417480, Note_on_c, 11, 59, 73
12, 417576, Note_off_c, 11, 59, 56
12, 417600, Note_on_c, 11, 57, 73
12, 417696, Note_off_c, 11, 57, 56
12, 417719, Note_on_c, 11, 55, 73
12, 417815, Note_off_c, 11, 55, 56
12, 417841, Note_on_c, 11, 55, 73
12, 417937, Note_off_c, 11, 55, 56
12, 417959, Note_on_c, 11, 55, 73
12, 418055, Note_off_c, 11, 55, 56
12, 418077, Note_on_c, 11, 60, 73
12, 418365, Note_off_c, 11, 60, 64
12, 418442, Note_on_c, 11, 59, 73
12, 418538, Note_off_c, 11, 59, 56
12, 418559, Note_on_c, 11, 57, 73
12, 418655, Note_off_c, 11, 57, 56
12, 418680, Note_on_c, 11, 55, 73
12, 418776, Note_off_c, 11, 55, 56
12, 418799, Note_on_c, 11, 55, 73
12, 418895, Note_off_c, 11, 55, 56
12, 418920, Note_on_c, 11, 55, 73
12, 419016, Note_off_c, 11, 55, 56
12, 419041, Note_on_c, 11, 64, 73
12, 419329, Note_off_c, 11, 64, 64
12, 419402, Note_on_c, 11, 62, 73
12, 419498, Note_off_c, 11, 62, 56
12, 419522, Note_on_c, 11, 60, 73
12, 419618, Note_off_c, 11, 60, 56
12, 419638, Note_on_c, 11, 59, 73
12, 419734, Note_off_c, 11, 59, 56
12, 419759, Note_on_c, 11, 59, 73
12, 419855, Note_off_c, 11, 59, 56
12, 419881, Note_on_c, 11, 59, 73
12, 419977, Note_off_c, 11, 59, 56
12, 420001, Note_on_c, 11, 64, 73
12, 420289, Note_off_c, 11, 64, 65
12, 420360, Note_on_c, 11, 62, 73
12, 420456, Note_off_c, 11, 62, 56
12, 420479, Note_on_c, 11, 60, 73
12, 420575, Note_off_c, 11, 60, 56
12, 420602, Note_on_c, 11, 59, 73
12, 420698, Note_off_c, 11, 59, 56
12, 420718, Note_on_c, 11, 59, 73
12, 420814, Note_off_c, 11, 59, 56
12, 420841, Note_on_c, 11, 59, 73
12, 420937, Note_off_c, 11, 59, 56
12, 420963, Note_on_c, 11, 72, 73
12, 421251, Note_off_c, 11, 72, 65
12, 421320, Note_on_c, 11, 71, 73
12, 421416, Note_off_c, 11, 71, 56
12, 421438, Note_on_c, 11, 69, 73
12, 421534, Note_off_c, 11, 69, 56
12, 421562, Note_on_c, 11, 67, 73
12, 421658, Note_off_c, 11, 67, 56
12, 421678, Note_on_c, 11, 67, 73
12, 421774, Note_off_c, 11, 67, 56
12, 421800, Note_on_c, 11, 67, 73
12, 421896, Note_off_c, 11, 67, 56
12, 421923, Note_on_c, 11, 72, 73
12, 422211, Note_off_c, 11, 72, 65
12, 422278, Note_on_c, 11, 71, 73
12, 422374, Note_off_c, 11, 71, 56
12, 422399, Note_on_c, 11, 69, 73
12, 422495, Note_off_c, 11, 69, 56
12, 422518, Note_on_c, 11, 67, 73
12, 422614, Note_off_c, 11, 67, 56
12, 422641, Note_on_c, 11, 67, 73
12, 422737, Note_off_c, 11, 67, 56
12, 422761, Note_on_c, 11, 67, 73
12, 422857, Note_off_c, 11, 67, 56
12, 422878, Note_on_c, 11, 72, 73
12, 422974, Note_off_c, 11, 72, 56
12, 423121, Note_on_c, 11, 72, 74
12, 423217, Note_off_c, 11, 72, 56
12, 423359, Note_on_c, 11, 72, 75
12, 423455, Note_off_c, 11, 72, 56
12, 423599, Note_on_c, 11, 72, 78
12, 423695, Note_off_c, 11, 72, 56
12, 423839, Note_on_c, 11, 71, 79
12, 423935, Note_off_c, 11, 71, 56
12, 424081, Note_on_c, 11, 72, 80
12, 424177, Note_off_c, 11, 72, 56
12, 424322, Note_on_c, 11, 71, 81
12, 424418, Note_off_c, 11, 71, 56
12, 424561, Note_on_c, 11, 72, 83
12, 424657, Note_off_c, 11, 72, 56
12, 424800, Program_c, 11, 44
12, 424800, Control_c, 11, 7, 120
12, 424801, Note_on_c, 11, 72, 90
12, 424849, Note_off_c, 11, 72, 56
12, 424860, Note_on_c, 11, 72, 90
12, 424908, Note_off_c, 11, 72, 56
12, 424922, Note_on_c, 11, 72, 86
12, 425018, Note_off_c, 11, 72, 56
12, 425041, Note_on_c, 11, 72, 91
12, 425089, Note_off_c, 11, 72, 56
12, 425099, Note_on_c, 11, 72, 91
12, 425147, Note_off_c, 11, 72, 56
12, 425161, Note_on_c, 11, 72, 87
12, 425257, Note_off_c, 11, 72, 56
12, 425279, Note_on_c, 11, 72, 92
12, 425327, Note_off_c, 11, 72, 56
12, 425341, Note_on_c, 11, 72, 93
12, 425389, Note_off_c, 11, 72, 56
12, 425400, Note_on_c, 11, 72, 88
12, 425496, Note_off_c, 11, 72, 56
12, 425519, Note_on_c, 11, 72, 94
12, 425567, Note_off_c, 11, 72, 56
12, 425580, Note_on_c, 11, 72, 94
12, 425628, Note_off_c, 11, 72, 56
12, 425640, Note_on_c, 11, 72, 89
12, 425736, Note_off_c, 11, 72, 56
12, 425759, Note_on_c, 11, 71, 95
12, 425807, Note_off_c, 11, 71, 56
12, 425820, Note_on_c, 11, 71, 95
12, 425868, Note_off_c, 11, 71, 56
12, 425878, Note_on_c, 11, 71, 92
12, 425974, Note_off_c, 11, 71, 56
12, 426000, Note_on_c, 11, 72, 97
12, 426048, Note_off_c, 11, 72, 56
12, 426061, Note_on_c, 11, 72, 97
12, 426109, Note_off_c, 11, 72, 56
12, 426120, Note_on_c, 11, 72, 93
12, 426216, Note_off_c, 11, 72, 56
12, 426239, Note_on_c, 11, 71, 98
12, 426287, Note_off_c, 11, 71, 56
12, 426300, Note_on_c, 11, 71, 99
12, 426348, Note_off_c, 11, 71, 56
12, 426361, Note_on_c, 11, 71, 94
12, 426457, Note_off_c, 11, 71, 56
12, 426480, Note_on_c, 11, 72, 100
12, 426528, Note_off_c, 11, 72, 56
12, 426540, Note_on_c, 11, 72, 100
12, 426588, Note_off_c, 11, 72, 56
12, 426601, Note_on_c, 11, 72, 100
12, 426649, Note_off_c, 11, 72, 56
12, 426660, Note_on_c, 11, 72, 101
12, 426708, Note_off_c, 11, 72, 56
12, 426720, Note_on_c, 11, 72, 101
12, 426768, Note_off_c, 11, 72, 56
12, 426781, Note_on_c, 11, 72, 101
12, 426829, Note_off_c, 11, 72, 56
12, 426840, Note_on_c, 11, 72, 101
12, 426888, Note_off_c, 11, 72, 56
12, 426900, Note_on_c, 11, 72, 102
12, 426948, Note_off_c, 11, 72, 56
12, 426959, Note_on_c, 11, 72, 102
12, 427007, Note_off_c, 11, 72, 56
12, 427019, Note_on_c, 11, 72, 102
12, 427067, Note_off_c, 11, 72, 56
12, 427079, Note_on_c, 11, 72, 103
12, 427127, Note_off_c, 11, 72, 56
12, 427139, Note_on_c, 11, 72, 103
12, 427187, Note_off_c, 11, 72, 56
12, 427199, Note_on_c, 11, 72, 103
12, 427247, Note_off_c, 11, 72, 56
12, 427261, Note_on_c, 11, 72, 105
12, 427309, Note_off_c, 11, 72, 56
12, 427319, Note_on_c, 11, 72, 105
12, 427367, Note_off_c, 11, 72, 56
12, 427381, Note_on_c, 11, 72, 105
12, 427429, Note_off_c, 11, 72, 56
12, 427439, Note_on_c, 11, 72, 106
12, 427487, Note_off_c, 11, 72, 56
12, 427499, Note_on_c, 11, 72, 106
12, 427547, Note_off_c, 11, 72, 56
12, 427560, Note_on_c, 11, 72, 106
12, 427608, Note_off_c, 11, 72, 56
12, 427620, Note_on_c, 11, 72, 107
12, 427668, Note_off_c, 11, 72, 56
12, 427680, Note_on_c, 11, 71, 107
12, 427728, Note_off_c, 11, 71, 56
12, 427739, Note_on_c, 11, 71, 107
12, 427787, Note_off_c, 11, 71, 56
12, 427801, Note_on_c, 11, 71, 107
12, 427849, Note_off_c, 11, 71, 56
12, 427860, Note_on_c, 11, 71, 108
12, 427908, Note_off_c, 11, 71, 56
12, 427919, Note_on_c, 11, 72, 108
12, 427967, Note_off_c, 11, 72, 56
12, 427979, Note_on_c, 11, 72, 108
12, 428027, Note_off_c, 11, 72, 56
12, 428040, Note_on_c, 11, 72, 109
12, 428088, Note_off_c, 11, 72, 56
12, 428100, Note_on_c, 11, 72, 109
12, 428148, Note_off_c, 11, 72, 56
12, 428161, Note_on_c, 11, 72, 109
12, 428209, Note_off_c, 11, 72, 56
12, 428221, Note_on_c, 11, 72, 110
12, 428269, Note_off_c, 11, 72, 56
12, 428279, Note_on_c, 11, 72, 110
12, 428327, Note_off_c, 11, 72, 56
12, 428339, Note_on_c, 11, 72, 110
12, 428387, Note_off_c, 11, 72, 56
12, 428401, Note_on_c, 11, 71, 111
12, 428449, Note_off_c, 11, 71, 56
12, 428461, Note_on_c, 11, 71, 111
12, 428509, Note_off_c, 11, 71, 56
12, 428519, Note_on_c, 11, 71, 111
12, 428567, Note_off_c, 11, 71, 56
12, 428580, Note_on_c, 11, 71, 113
12, 428628, Note_off_c, 11, 71, 56
12, 428639, Note_on_c, 11, 72, 113
12, 428687, Note_off_c, 11, 72, 56
12, 428701, Note_on_c, 11, 60, 113
12, 428749, Note_off_c, 11, 60, 56
12, 428759, Note_on_c, 11, 60, 113
12, 428807, Note_off_c, 11, 60, 56
12, 428821, Note_on_c, 11, 60, 113
12, 428869, Note_off_c, 11, 60, 56
12, 428879, Note_on_c, 11, 60, 113
12, 428927, Note_off_c, 11, 60, 56
12, 428941, Note_on_c, 11, 60, 113
12, 428989, Note_off_c, 11, 60, 56
12, 429001, Note_on_c, 11, 60, 113
12, 429049, Note_off_c, 11, 60, 56
12, 429059, Note_on_c, 11, 60, 113
12, 429107, Note_off_c, 11, 60, 56
12, 429121, Note_on_c, 11, 60, 113
12, 429169, Note_off_c, 11, 60, 56
12, 429181, Note_on_c, 11, 60, 113
12, 429229, Note_off_c, 11, 60, 56
12, 429239, Note_on_c, 11, 60, 113
12, 429287, Note_off_c, 11, 60, 56
12, 429300, Note_on_c, 11, 60, 113
12, 429348, Note_off_c, 11, 60, 56
12, 429360, Note_on_c, 11, 60, 113
12, 429408, Note_off_c, 11, 60, 56
12, 429419, Note_on_c, 11, 60, 113
12, 429467, Note_off_c, 11, 60, 56
12, 429479, Note_on_c, 11, 60, 113
12, 429527, Note_off_c, 11, 60, 56
12, 429540, Note_on_c, 11, 60, 113
12, 429588, Note_off_c, 11, 60, 56
12, 429600, Note_on_c, 11, 60, 113
12, 429648, Note_off_c, 11, 60, 56
12, 429661, Note_on_c, 11, 60, 113
12, 429709, Note_off_c, 11, 60, 56
12, 429721, Note_on_c, 11, 60, 113
12, 429769, Note_off_c, 11, 60, 56
12, 429779, Note_on_c, 11, 60, 113
12, 429827, Note_off_c, 11, 60, 56
12, 429840, Note_on_c, 11, 60, 113
12, 429888, Note_off_c, 11, 60, 56
12, 429900, Note_on_c, 11, 60, 113
12, 429948, Note_off_c, 11, 60, 56
12, 429959, Note_on_c, 11, 60, 113
12, 430007, Note_off_c, 11, 60, 56
12, 430021, Note_on_c, 11, 60, 113
12, 430069, Note_off_c, 11, 60, 56
12, 430081, Note_on_c, 11, 60, 113
12, 430129, Note_off_c, 11, 60, 56
12, 430139, Note_on_c, 11, 60, 113
12, 430187, Note_off_c, 11, 60, 56
12, 430201, Note_on_c, 11, 60, 113
12, 430249, Note_off_c, 11, 60, 56
12, 430261, Note_on_c, 11, 60, 113
12, 430309, Note_off_c, 11, 60, 56
12, 430321, Note_on_c, 11, 60, 113
12, 430369, Note_off_c, 11, 60, 56
12, 430381, Note_on_c, 11, 60, 113
12, 430429, Note_off_c, 11, 60, 56
12, 430441, Note_on_c, 11, 60, 113
12, 430489, Note_off_c, 11, 60, 56
12, 430501, Note_on_c, 11, 60, 113
12, 430549, Note_off_c, 11, 60, 56
12, 430560, Note_on_c, 11, 60, 113
12, 430608, Note_off_c, 11, 60, 56
12, 430619, Note_on_c, 11, 60, 113
12, 430667, Note_off_c, 11, 60, 56
12, 430679, Note_on_c, 11, 60, 113
12, 430727, Note_off_c, 11, 60, 56
12, 430739, Note_on_c, 11, 60, 113
12, 430787, Note_off_c, 11, 60, 56
12, 430799, Note_on_c, 11, 60, 113
12, 430847, Note_off_c, 11, 60, 56
12, 430859, Note_on_c, 11, 60, 113
12, 430907, Note_off_c, 11, 60, 56
12, 430919, Note_on_c, 11, 60, 113
12, 430967, Note_off_c, 11, 60, 56
12, 430979, Note_on_c, 11, 60, 113
12, 431027, Note_off_c, 11, 60, 56
12, 431039, Note_on_c, 11, 60, 113
12, 431087, Note_off_c, 11, 60, 56
12, 431101, Note_on_c, 11, 60, 113
12, 431149, Note_off_c, 11, 60, 56
12, 431160, Note_on_c, 11, 60, 113
12, 431208, Note_off_c, 11, 60, 56
12, 431219, Note_on_c, 11, 60, 113
12, 431267, Note_off_c, 11, 60, 56
12, 431279, Note_on_c, 11, 60, 113
12, 431327, Note_off_c, 11, 60, 56
12, 431339, Note_on_c, 11, 60, 113
12, 431387, Note_off_c, 11, 60, 56
12, 431400, Note_on_c, 11, 60, 113
12, 431448, Note_off_c, 11, 60, 56
12, 431461, Note_on_c, 11, 60, 113
12, 431509, Note_off_c, 11, 60, 56
12, 431521, Note_on_c, 11, 60, 113
12, 431569, Note_off_c, 11, 60, 56
12, 431581, Note_on_c, 11, 60, 113
12, 431629, Note_off_c, 11, 60, 56
12, 431641, Note_on_c, 11, 60, 113
12, 431689, Note_off_c, 11, 60, 56
12, 431700, Note_on_c, 11, 60, 113
12, 431748, Note_off_c, 11, 60, 56
12, 431761, Note_on_c, 11, 60, 113
12, 431809, Note_off_c, 11, 60, 56
12, 431819, Note_on_c, 11, 60, 113
12, 431867, Note_off_c, 11, 60, 56
12, 431881, Note_on_c, 11, 60, 113
12, 431929, Note_off_c, 11, 60, 56
12, 431939, Note_on_c, 11, 60, 113
12, 431987, Note_off_c, 11, 60, 56
12, 432001, Note_on_c, 11, 60, 113
12, 432049, Note_off_c, 11, 60, 56
12, 432060, Note_on_c, 11, 60, 113
12, 432108, Note_off_c, 11, 60, 56
12, 432121, Note_on_c, 11, 60, 113
12, 432169, Note_off_c, 11, 60, 56
12, 432180, Note_on_c, 11, 60, 113
12, 432228, Note_off_c, 11, 60, 56
12, 432241, Note_on_c, 11, 60, 113
12, 432289, Note_off_c, 11, 60, 56
12, 432301, Note_on_c, 11, 60, 113
12, 432349, Note_off_c, 11, 60, 56
12, 432359, Note_on_c, 11, 60, 113
12, 432407, Note_off_c, 11, 60, 56
12, 432419, Note_on_c, 11, 60, 113
12, 432467, Note_off_c, 11, 60, 56
12, 432480, Note_on_c, 11, 60, 113
12, 432528, Note_off_c, 11, 60, 56
12, 432541, Note_on_c, 11, 60, 113
12, 432589, Note_off_c, 11, 60, 56
12, 432599, Note_on_c, 11, 60, 113
12, 432647, Note_off_c, 11, 60, 56
12, 432660, Note_on_c, 11, 60, 113
12, 432708, Note_off_c, 11, 60, 56
12, 432720, Note_on_c, 11, 60, 113
12, 432768, Note_off_c, 11, 60, 56
12, 432779, Note_on_c, 11, 60, 113
12, 432827, Note_off_c, 11, 60, 56
12, 432841, Note_on_c, 11, 60, 113
12, 432889, Note_off_c, 11, 60, 56
12, 432900, Note_on_c, 11, 60, 113
12, 432948, Note_off_c, 11, 60, 56
12, 432960, Note_on_c, 11, 60, 113
12, 433008, Note_off_c, 11, 60, 56
12, 433021, Note_on_c, 11, 60, 113
12, 433069, Note_off_c, 11, 60, 56
12, 433079, Note_on_c, 11, 60, 113
12, 433127, Note_off_c, 11, 60, 56
12, 433141, Note_on_c, 11, 60, 113
12, 433189, Note_off_c, 11, 60, 56
12, 433200, Note_on_c, 11, 60, 113
12, 433248, Note_off_c, 11, 60, 56
12, 433261, Note_on_c, 11, 60, 113
12, 433309, Note_off_c, 11, 60, 56
12, 433321, Note_on_c, 11, 60, 113
12, 433369, Note_off_c, 11, 60, 56
12, 433379, Note_on_c, 11, 60, 113
12, 433427, Note_off_c, 11, 60, 56
12, 433440, Note_on_c, 11, 60, 113
12, 433488, Note_off_c, 11, 60, 56
12, 433500, Note_on_c, 11, 64, 113
12, 433548, Note_off_c, 11, 64, 56
12, 433559, Note_on_c, 11, 64, 113
12, 433607, Note_off_c, 11, 64, 56
12, 433619, Note_on_c, 11, 64, 113
12, 433667, Note_off_c, 11, 64, 56
12, 433680, Note_on_c, 11, 64, 113
12, 433728, Note_off_c, 11, 64, 56
12, 433739, Note_on_c, 11, 64, 113
12, 433787, Note_off_c, 11, 64, 56
12, 433799, Note_on_c, 11, 64, 113
12, 433800, Note_on_c, 11, 64, 113
12, 433847, Note_off_c, 11, 64, 56
12, 433848, Note_off_c, 11, 64, 56
12, 433860, Note_on_c, 11, 64, 113
12, 433908, Note_off_c, 11, 64, 56
12, 433919, Note_on_c, 11, 64, 113
12, 433967, Note_off_c, 11, 64, 56
12, 433979, Note_on_c, 11, 64, 113
12, 434027, Note_off_c, 11, 64, 56
12, 434041, Note_on_c, 11, 64, 113
12, 434089, Note_off_c, 11, 64, 56
12, 434101, Note_on_c, 11, 64, 113
12, 434149, Note_off_c, 11, 64, 56
12, 434161, Note_on_c, 11, 64, 113
12, 434209, Note_off_c, 11, 64, 56
12, 434219, Note_on_c, 11, 64, 113
12, 434267, Note_off_c, 11, 64, 56
12, 434280, Note_on_c, 11, 64, 113
12, 434328, Note_off_c, 11, 64, 56
12, 434339, Note_on_c, 11, 64, 113
12, 434387, Note_off_c, 11, 64, 56
12, 434400, Note_on_c, 11, 64, 113
12, 434448, Note_off_c, 11, 64, 56
12, 434459, Note_on_c, 11, 64, 113
12, 434507, Note_off_c, 11, 64, 56
12, 434521, Note_on_c, 11, 64, 113
12, 434569, Note_off_c, 11, 64, 56
12, 434581, Note_on_c, 11, 64, 113
12, 434629, Note_off_c, 11, 64, 56
12, 434640, Note_on_c, 11, 64, 113
12, 434688, Note_off_c, 11, 64, 56
12, 434700, Note_on_c, 11, 64, 113
12, 434748, Note_off_c, 11, 64, 56
12, 434759, Note_on_c, 11, 64, 113
12, 434807, Note_off_c, 11, 64, 56
12, 434819, Note_on_c, 11, 64, 113
12, 434867, Note_off_c, 11, 64, 56
12, 434879, Note_on_c, 11, 64, 113
12, 434927, Note_off_c, 11, 64, 56
12, 434941, Note_on_c, 11, 64, 113
12, 434989, Note_off_c, 11, 64, 56
12, 435001, Note_on_c, 11, 64, 113
12, 435049, Note_off_c, 11, 64, 56
12, 435059, Note_on_c, 11, 64, 113
12, 435107, Note_off_c, 11, 64, 56
12, 435119, Note_on_c, 11, 64, 113
12, 435167, Note_off_c, 11, 64, 56
12, 435181, Note_on_c, 11, 64, 113
12, 435229, Note_off_c, 11, 64, 56
12, 435241, Note_on_c, 11, 64, 113
12, 435289, Note_off_c, 11, 64, 56
12, 435299, Note_on_c, 11, 64, 113
12, 435347, Note_off_c, 11, 64, 56
12, 435359, Note_on_c, 11, 72, 108
12, 435360, Control_c, 11, 7, 100
12, 435361, Note_on_c, 11, 64, 108
12, 435372, Control_c, 11, 0, 0
12, 435372, Control_c, 11, 32, 8
12, 435372, Program_c, 11, 50
12, 435479, Note_off_c, 11, 72, 56
12, 435481, Note_off_c, 11, 64, 56
12, 435842, Note_on_c, 11, 74, 108
12, 435842, Note_on_c, 11, 67, 108
12, 435962, Note_off_c, 11, 67, 56
12, 435962, Note_off_c, 11, 74, 56
12, 436318, Note_on_c, 11, 67, 108
12, 436321, Note_on_c, 11, 76, 108
12, 436438, Note_off_c, 11, 67, 56
12, 436441, Note_off_c, 11, 76, 56
12, 436801, Note_on_c, 11, 79, 108
12, 436802, Note_on_c, 11, 71, 108
12, 436921, Note_off_c, 11, 79, 56
12, 436922, Note_off_c, 11, 71, 56
12, 437280, Note_on_c, 11, 76, 108
12, 437281, Note_on_c, 11, 72, 108
12, 437400, Note_off_c, 11, 76, 56
12, 437401, Note_off_c, 11, 72, 56
12, 437758, Note_on_c, 11, 67, 108
12, 437760, Note_on_c, 11, 74, 108
12, 437878, Note_off_c, 11, 67, 56
12, 437880, Note_off_c, 11, 74, 56
12, 438240, Note_on_c, 11, 76, 108
12, 438241, Note_on_c, 11, 67, 108
12, 438360, Note_off_c, 11, 76, 56
12, 438361, Note_off_c, 11, 67, 56
12, 438718, Note_on_c, 11, 71, 108
12, 438721, Note_on_c, 11, 79, 108
12, 438838, Note_off_c, 11, 71, 56
12, 438841, Note_off_c, 11, 79, 56
12, 439201, Note_on_c, 11, 72, 108
12, 439201, Note_on_c, 11, 76, 108
12, 439321, Note_off_c, 11, 76, 56
12, 439321, Note_off_c, 11, 72, 56
12, 439678, Note_on_c, 11, 79, 108
12, 439679, Note_on_c, 11, 71, 108
12, 439798, Note_off_c, 11, 79, 56
12, 439799, Note_off_c, 11, 71, 56
12, 440160, Note_on_c, 11, 76, 108
12, 440162, Note_on_c, 11, 72, 108
12, 440280, Note_off_c, 11, 76, 56
12, 440282, Note_off_c, 11, 72, 56
12, 440638, Note_on_c, 11, 79, 108
12, 440639, Note_on_c, 11, 71, 108
12, 440758, Note_off_c, 11, 79, 56
12, 440759, Note_off_c, 11, 71, 56
12, 441119, Note_on_c, 11, 84, 113
12, 441120, Control_c, 11, 7, 120
12, 441167, Note_off_c, 11, 84, 56
12, 441179, Note_on_c, 11, 84, 113
12, 441227, Note_off_c, 11, 84, 56
12, 441241, Note_on_c, 11, 84, 113
12, 441289, Note_off_c, 11, 84, 56
12, 441301, Note_on_c, 11, 84, 113
12, 441349, Note_off_c, 11, 84, 56
12, 441360, Note_on_c, 11, 84, 113
12, 441408, Note_off_c, 11, 84, 56
12, 441419, Note_on_c, 11, 84, 113
12, 441467, Note_off_c, 11, 84, 56
12, 441480, Note_on_c, 11, 84, 113
12, 441528, Note_off_c, 11, 84, 56
12, 441539, Note_on_c, 11, 84, 113
12, 441587, Note_off_c, 11, 84, 56
12, 441601, Note_on_c, 11, 84, 113
12, 441649, Note_off_c, 11, 84, 56
12, 441661, Note_on_c, 11, 84, 113
12, 441709, Note_off_c, 11, 84, 56
12, 441719, Note_on_c, 11, 84, 113
12, 441767, Note_off_c, 11, 84, 56
12, 441780, Note_on_c, 11, 84, 113
12, 441828, Note_off_c, 11, 84, 56
12, 441841, Note_on_c, 11, 79, 113
12, 441889, Note_off_c, 11, 79, 56
12, 441900, Note_on_c, 11, 79, 113
12, 441948, Note_off_c, 11, 79, 56
12, 441959, Note_on_c, 11, 76, 113
12, 442007, Note_off_c, 11, 76, 56
12, 442020, Note_on_c, 11, 76, 113
12, 442068, Note_off_c, 11, 76, 56
12, 442081, Note_on_c, 11, 72, 113
12, 442129, Note_off_c, 11, 72, 56
12, 442141, Note_on_c, 11, 72, 113
12, 442189, Note_off_c, 11, 72, 56
12, 442199, Note_on_c, 11, 72, 113
12, 442247, Note_off_c, 11, 72, 56
12, 442260, Note_on_c, 11, 72, 113
12, 442308, Note_off_c, 11, 72, 56
12, 442321, Note_on_c, 11, 72, 113
12, 442369, Note_off_c, 11, 72, 56
12, 442380, Note_on_c, 11, 72, 113
12, 442428, Note_off_c, 11, 72, 56
12, 442441, Note_on_c, 11, 72, 113
12, 442489, Note_off_c, 11, 72, 56
12, 442500, Note_on_c, 11, 72, 113
12, 442548, Note_off_c, 11, 72, 56
12, 442561, Note_on_c, 11, 72, 113
12, 442609, Note_off_c, 11, 72, 56
12, 442621, Note_on_c, 11, 72, 113
12, 442669, Note_off_c, 11, 72, 56
12, 442681, Note_on_c, 11, 72, 113
12, 442729, Note_off_c, 11, 72, 56
12, 442740, Note_on_c, 11, 72, 113
12, 442788, Note_off_c, 11, 72, 56
12, 442799, Note_on_c, 11, 67, 113
12, 442847, Note_off_c, 11, 67, 56
12, 442860, Note_on_c, 11, 67, 113
12, 442908, Note_off_c, 11, 67, 56
12, 442920, Note_on_c, 11, 64, 113
12, 442968, Note_off_c, 11, 64, 56
12, 442979, Note_on_c, 11, 64, 113
12, 443027, Note_off_c, 11, 64, 56
12, 443038, Note_on_c, 11, 60, 108
12, 443040, Control_c, 11, 7, 100
12, 443134, Note_off_c, 11, 60, 56
12, 443401, Note_on_c, 11, 64, 108
12, 443497, Note_off_c, 11, 64, 56
12, 443520, Note_on_c, 11, 64, 108
12, 443616, Note_off_c, 11, 64, 56
12, 443638, Note_on_c, 11, 64, 108
12, 443734, Note_off_c, 11, 64, 56
12, 443759, Note_on_c, 11, 64, 108
12, 443855, Note_off_c, 11, 64, 56
12, 443880, Note_on_c, 11, 64, 108
12, 443976, Note_off_c, 11, 64, 56
12, 443999, Note_on_c, 11, 64, 108
12, 444095, Note_off_c, 11, 64, 56
12, 444359, Note_on_c, 11, 72, 108
12, 444455, Note_off_c, 11, 72, 56
12, 444478, Note_on_c, 11, 72, 108
12, 444574, Note_off_c, 11, 72, 56
12, 444601, Note_on_c, 11, 72, 108
12, 444697, Note_off_c, 11, 72, 56
12, 444722, Note_on_c, 11, 72, 108
12, 444818, Note_off_c, 11, 72, 56
12, 444840, Note_on_c, 11, 72, 108
12, 444936, Note_off_c, 11, 72, 56
12, 444958, Note_on_c, 11, 72, 108
12, 445054, Note_off_c, 11, 72, 56
12, 445202, Note_on_c, 11, 64, 108
12, 445298, Note_off_c, 11, 64, 56
12, 445319, Note_on_c, 11, 64, 108
12, 445415, Note_off_c, 11, 64, 56
12, 445442, Note_on_c, 11, 64, 108
12, 445538, Note_off_c, 11, 64, 56
12, 445678, Note_on_c, 11, 72, 108
12, 445774, Note_off_c, 11, 72, 56
12, 445801, Note_on_c, 11, 72, 108
12, 445897, Note_off_c, 11, 72, 56
12, 445920, Note_on_c, 11, 72, 108
12, 446016, Note_off_c, 11, 72, 56
12, 446160, Note_on_c, 11, 76, 108
12, 446256, Note_off_c, 11, 76, 56
12, 446279, Note_on_c, 11, 76, 108
12, 446375, Note_off_c, 11, 76, 56
12, 446402, Note_on_c, 11, 76, 108
12, 446498, Note_off_c, 11, 76, 56
12, 446641, Note_on_c, 11, 76, 108
12, 446737, Note_off_c, 11, 76, 56
12, 446761, Note_on_c, 11, 76, 108
12, 446857, Note_off_c, 11, 76, 56
12, 446880, Program_c, 11, 44
12, 446880, Control_c, 11, 7, 120
12, 446881, Note_on_c, 11, 76, 113
12, 446929, Note_off_c, 11, 76, 56
12, 446939, Note_on_c, 11, 76, 113
12, 446987, Note_off_c, 11, 76, 56
12, 447001, Note_on_c, 11, 76, 113
12, 447049, Note_off_c, 11, 76, 56
12, 447059, Note_on_c, 11, 76, 113
12, 447107, Note_off_c, 11, 76, 56
12, 447119, Note_on_c, 11, 76, 113
12, 447167, Note_off_c, 11, 76, 56
12, 447179, Note_on_c, 11, 76, 113
12, 447227, Note_off_c, 11, 76, 56
12, 447239, Note_on_c, 11, 76, 113
12, 447287, Note_off_c, 11, 76, 56
12, 447301, Note_on_c, 11, 76, 113
12, 447349, Note_off_c, 11, 76, 56
12, 447359, Note_on_c, 11, 76, 113
12, 447407, Note_off_c, 11, 76, 56
12, 447420, Note_on_c, 11, 76, 113
12, 447468, Note_off_c, 11, 76, 56
12, 447479, Note_on_c, 11, 76, 113
12, 447527, Note_off_c, 11, 76, 56
12, 447539, Note_on_c, 11, 76, 113
12, 447587, Note_off_c, 11, 76, 56
12, 447600, Note_on_c, 11, 76, 113
12, 447648, Note_off_c, 11, 76, 56
12, 447660, Note_on_c, 11, 76, 113
12, 447708, Note_off_c, 11, 76, 56
12, 447721, Note_on_c, 11, 76, 113
12, 447769, Note_off_c, 11, 76, 56
12, 447779, Note_on_c, 11, 76, 113
12, 447827, Note_off_c, 11, 76, 56
12, 447840, Note_on_c, 11, 76, 113
12, 447888, Note_off_c, 11, 76, 56
12, 447901, Note_on_c, 11, 76, 113
12, 447949, Note_off_c, 11, 76, 56
12, 447959, Note_on_c, 11, 76, 113
12, 448007, Note_off_c, 11, 76, 56
12, 448020, Note_on_c, 11, 76, 113
12, 448068, Note_off_c, 11, 76, 56
12, 448080, Note_on_c, 11, 76, 113
12, 448128, Note_off_c, 11, 76, 56
12, 448140, Note_on_c, 11, 76, 113
12, 448188, Note_off_c, 11, 76, 56
12, 448201, Note_on_c, 11, 76, 113
12, 448249, Note_off_c, 11, 76, 56
12, 448261, Note_on_c, 11, 76, 113
12, 448309, Note_off_c, 11, 76, 56
12, 448320, Note_on_c, 11, 76, 113
12, 448368, Note_off_c, 11, 76, 56
12, 448380, Note_on_c, 11, 76, 113
12, 448428, Note_off_c, 11, 76, 56
12, 448441, Note_on_c, 11, 76, 113
12, 448489, Note_off_c, 11, 76, 56
12, 448501, Note_on_c, 11, 76, 113
12, 448549, Note_off_c, 11, 76, 56
12, 448560, Note_on_c, 11, 76, 113
12, 448608, Note_off_c, 11, 76, 56
12, 448621, Note_on_c, 11, 76, 113
12, 448669, Note_off_c, 11, 76, 56
12, 448681, Note_on_c, 11, 76, 113
12, 448729, Note_off_c, 11, 76, 56
12, 448740, Note_on_c, 11, 76, 113
12, 448788, Note_off_c, 11, 76, 56
12, 448798, Note_on_c, 11, 84, 108
12, 448799, Note_on_c, 11, 76, 108
12, 448800, Control_c, 11, 7, 100
12, 448824, Control_c, 11, 0, 0
12, 448824, Control_c, 11, 32, 8
12, 448824, Program_c, 11, 50
12, 448918, Note_off_c, 11, 84, 56
12, 448919, Note_off_c, 11, 76, 56
12, 449758, Note_on_c, 11, 60, 108
12, 449760, Note_on_c, 11, 67, 108
12, 449878, Note_off_c, 11, 60, 56
12, 449880, Note_off_c, 11, 67, 56
12, 450718, Note_on_c, 11, 55, 108
12, 450720, Note_on_c, 11, 64, 108
12, 450838, Note_off_c, 11, 55, 56
12, 450840, Note_off_c, 11, 64, 56
12, 451681, Note_on_c, 11, 60, 108
12, 451682, Note_on_c, 11, 67, 108
12, 451801, Note_off_c, 11, 60, 56
12, 451802, Note_off_c, 11, 67, 56
12, 452159, Note_on_c, 11, 60, 108
12, 452162, Note_on_c, 11, 67, 108
12, 452279, Note_off_c, 11, 60, 56
12, 452282, Note_off_c, 11, 67, 56
12, 452638, Note_on_c, 11, 60, 108
12, 452639, Note_on_c, 11, 67, 108
12, 452758, Note_off_c, 11, 60, 56
12, 452759, Note_off_c, 11, 67, 56
12, 453598, Note_on_c, 11, 60, 108
12, 453602, Note_on_c, 11, 67, 108
12, 453718, Note_off_c, 11, 60, 56
12, 453722, Note_off_c, 11, 67, 56
12, 454562, Note_on_c, 11, 60, 108
12, 455522, Note_off_c, 11, 60, 76
12, 455522, End_track
13, 0, Start_track
13, 0, Title_t, "Orch-L"
13, 0, Program_c, 12, 48
13, 0, Control_c, 12, 7, 110
13, 0, Control_c, 12, 0, 0
13, 0, Control_c, 12, 32, 8
13, 0, Note_on_c, 12, 60, 113
13, 0, Note_on_c, 12, 36, 108
13, 0, Note_on_c, 12, 48, 113
13, 0, Note_on_c, 12, 76, 108
13, 0, Control_c, 12, 91, 22
13, 0, Control_c, 12, 93, 26
13, 0, Control_c, 12, 10, 28
13, 2, Note_on_c, 12, 88, 108
13, 45, Note_off_c, 12, 48, 56
13, 45, Note_off_c, 12, 60, 56
13, 62, Note_on_c, 12, 48, 113
13, 62, Note_on_c, 12, 60, 113
13, 107, Note_off_c, 12, 60, 56
13, 107, Note_off_c, 12, 48, 56
13, 121, Note_on_c, 12, 60, 113
13, 121, Note_on_c, 12, 48, 113
13, 163, Note_off_c, 12, 36, 64
13, 166, Note_off_c, 12, 48, 56
13, 166, Note_off_c, 12, 60, 56
13, 180, Note_on_c, 12, 48, 113
13, 182, Note_off_c, 12, 76, 64
13, 182, Note_on_c, 12, 60, 113
13, 184, Note_off_c, 12, 88, 64
13, 225, Note_off_c, 12, 48, 56
13, 227, Note_off_c, 12, 60, 56
13, 238, Note_on_c, 12, 60, 113
13, 238, Note_on_c, 12, 48, 113
13, 283, Note_off_c, 12, 48, 56
13, 283, Note_off_c, 12, 60, 56
13, 299, Note_on_c, 12, 48, 113
13, 300, Note_on_c, 12, 60, 113
13, 344, Note_off_c, 12, 48, 56
13, 345, Note_off_c, 12, 60, 56
13, 359, Note_on_c, 12, 60, 113
13, 359, Note_on_c, 12, 48, 113
13, 404, Note_off_c, 12, 48, 56
13, 404, Note_off_c, 12, 60, 56
13, 418, Note_on_c, 12, 48, 113
13, 420, Note_on_c, 12, 60, 113
13, 463, Note_off_c, 12, 48, 56
13, 465, Note_off_c, 12, 60, 56
13, 479, Note_on_c, 12, 48, 113
13, 479, Note_on_c, 12, 60, 113
13, 480, Note_on_c, 12, 76, 108
13, 480, Note_on_c, 12, 36, 108
13, 480, Note_on_c, 12, 55, 108
13, 482, Note_on_c, 12, 64, 108
13, 524, Note_off_c, 12, 60, 56
13, 524, Note_off_c, 12, 48, 56
13, 540, Note_on_c, 12, 60, 113
13, 541, Note_on_c, 12, 48, 113
13, 585, Note_off_c, 12, 60, 56
13, 586, Note_off_c, 12, 48, 56
13, 599, Note_on_c, 12, 60, 113
13, 600, Note_on_c, 12, 48, 113
13, 643, Note_off_c, 12, 36, 64
13, 644, Note_off_c, 12, 60, 56
13, 645, Note_off_c, 12, 48, 56
13, 659, Note_on_c, 12, 48, 113
13, 661, Note_on_c, 12, 60, 113
13, 662, Note_off_c, 12, 55, 64
13, 662, Note_off_c, 12, 76, 64
13, 664, Note_off_c, 12, 64, 64
13, 704, Note_off_c, 12, 48, 56
13, 706, Note_off_c, 12, 60, 56
13, 718, Note_on_c, 12, 60, 113
13, 720, Note_on_c, 12, 48, 113
13, 763, Note_off_c, 12, 60, 56
13, 765, Note_off_c, 12, 48, 56
13, 779, Note_on_c, 12, 60, 113
13, 779, Note_on_c, 12, 48, 113
13, 824, Note_off_c, 12, 48, 56
13, 824, Note_off_c, 12, 60, 56
13, 841, Note_on_c, 12, 60, 113
13, 842, Note_on_c, 12, 48, 113
13, 886, Note_off_c, 12, 60, 56
13, 887, Note_off_c, 12, 48, 56
13, 900, Note_on_c, 12, 60, 113
13, 900, Note_on_c, 12, 48, 113
13, 945, Note_off_c, 12, 48, 56
13, 945, Note_off_c, 12, 60, 56
13, 958, Note_on_c, 12, 79, 108
13, 959, Note_on_c, 12, 55, 108
13, 960, Note_on_c, 12, 36, 108
13, 961, Note_on_c, 12, 60, 113
13, 962, Note_on_c, 12, 48, 113
13, 962, Note_on_c, 12, 64, 108
13, 1006, Note_off_c, 12, 60, 56
13, 1007, Note_off_c, 12, 48, 56
13, 1020, Note_on_c, 12, 60, 113
13, 1021, Note_on_c, 12, 48, 113
13, 1065, Note_off_c, 12, 60, 56
13, 1066, Note_off_c, 12, 48, 56
13, 1081, Note_on_c, 12, 60, 113
13, 1082, Note_on_c, 12, 48, 113
13, 1126, Note_off_c, 12, 60, 56
13, 1127, Note_off_c, 12, 48, 56
13, 1139, Note_on_c, 12, 48, 113
13, 1139, Note_on_c, 12, 60, 113
13, 1141, Note_off_c, 12, 55, 64
13, 1144, Note_off_c, 12, 64, 64
13, 1184, Note_off_c, 12, 60, 56
13, 1184, Note_off_c, 12, 48, 56
13, 1201, Note_on_c, 12, 48, 113
13, 1201, Note_on_c, 12, 60, 113
13, 1246, Note_off_c, 12, 60, 56
13, 1246, Note_off_c, 12, 48, 56
13, 1260, Note_on_c, 12, 60, 113
13, 1262, Note_on_c, 12, 48, 113
13, 1305, Note_off_c, 12, 60, 56
13, 1307, Note_off_c, 12, 48, 56
13, 1320, Note_on_c, 12, 48, 113
13, 1320, Note_on_c, 12, 60, 113
13, 1365, Note_off_c, 12, 60, 56
13, 1365, Note_off_c, 12, 48, 56
13, 1380, Note_on_c, 12, 60, 113
13, 1382, Note_on_c, 12, 48, 113
13, 1425, Note_off_c, 12, 60, 56
13, 1427, Note_off_c, 12, 48, 56
13, 1439, Note_on_c, 12, 48, 113
13, 1441, Note_on_c, 12, 60, 113
13, 1478, Note_off_c, 12, 36, 64
13, 1484, Note_off_c, 12, 48, 56
13, 1486, Note_off_c, 12, 60, 56
13, 1501, Note_on_c, 12, 48, 113
13, 1502, Note_on_c, 12, 60, 113
13, 1546, Note_off_c, 12, 48, 56
13, 1547, Note_off_c, 12, 60, 56
13, 1558, Note_on_c, 12, 48, 113
13, 1559, Note_on_c, 12, 60, 113
13, 1582, Note_off_c, 12, 79, 64
13, 1603, Note_off_c, 12, 48, 56
13, 1604, Note_off_c, 12, 60, 56
13, 1618, Note_on_c, 12, 60, 113
13, 1620, Note_on_c, 12, 48, 113
13, 1663, Note_off_c, 12, 60, 56
13, 1665, Note_off_c, 12, 48, 56
13, 1678, Note_on_c, 12, 59, 113
13, 1679, Note_on_c, 12, 50, 113
13, 1680, Note_on_c, 12, 62, 108
13, 1680, Note_on_c, 12, 31, 108
13, 1681, Note_on_c, 12, 55, 108
13, 1682, Note_on_c, 12, 77, 108
13, 1723, Note_off_c, 12, 59, 56
13, 1724, Note_off_c, 12, 50, 56
13, 1739, Note_on_c, 12, 50, 113
13, 1741, Note_on_c, 12, 59, 113
13, 1761, Note_off_c, 12, 31, 56
13, 1771, Note_off_c, 12, 62, 56
13, 1772, Note_off_c, 12, 55, 56
13, 1773, Note_off_c, 12, 77, 56
13, 1784, Note_off_c, 12, 50, 56
13, 1786, Note_off_c, 12, 59, 56
13, 1798, Note_on_c, 12, 50, 113
13, 1798, Note_on_c, 12, 59, 113
13, 1843, Note_off_c, 12, 59, 56
13, 1843, Note_off_c, 12, 50, 56
13, 1858, Note_on_c, 12, 59, 113
13, 1862, Note_on_c, 12, 50, 113
13, 1903, Note_off_c, 12, 59, 56
13, 1907, Note_off_c, 12, 50, 56
13, 1918, Note_on_c, 12, 55, 108
13, 1919, Note_on_c, 12, 48, 113
13, 1919, Note_on_c, 12, 76, 108
13, 1920, Note_on_c, 12, 36, 108
13, 1921, Note_on_c, 12, 64, 108
13, 1921, Note_on_c, 12, 60, 113
13, 1964, Note_off_c, 12, 48, 56
13, 1966, Note_off_c, 12, 60, 56
13, 1981, Note_on_c, 12, 48, 113
13, 1982, Note_on_c, 12, 60, 113
13, 2001, Note_off_c, 12, 36, 56
13, 2009, Note_off_c, 12, 55, 56
13, 2010, Note_off_c, 12, 76, 56
13, 2012, Note_off_c, 12, 64, 56
13, 2026, Note_off_c, 12, 48, 56
13, 2027, Note_off_c, 12, 60, 56
13, 2042, Note_on_c, 12, 48, 113
13, 2042, Note_on_c, 12, 60, 113
13, 2087, Note_off_c, 12, 60, 56
13, 2087, Note_off_c, 12, 48, 56
13, 2098, Note_on_c, 12, 60, 113
13, 2099, Note_on_c, 12, 48, 113
13, 2143, Note_off_c, 12, 60, 56
13, 2144, Note_off_c, 12, 48, 56
13, 2159, Note_on_c, 12, 50, 113
13, 2159, Note_on_c, 12, 59, 113
13, 2159, Note_on_c, 12, 74, 108
13, 2160, Note_on_c, 12, 31, 108
13, 2161, Note_on_c, 12, 65, 108
13, 2162, Note_on_c, 12, 55, 108
13, 2204, Note_off_c, 12, 59, 56
13, 2204, Note_off_c, 12, 50, 56
13, 2219, Note_on_c, 12, 59, 113
13, 2222, Note_on_c, 12, 50, 113
13, 2241, Note_off_c, 12, 31, 56
13, 2250, Note_off_c, 12, 74, 56
13, 2252, Note_off_c, 12, 65, 56
13, 2253, Note_off_c, 12, 55, 56
13, 2264, Note_off_c, 12, 59, 56
13, 2267, Note_off_c, 12, 50, 56
13, 2280, Note_on_c, 12, 50, 113
13, 2281, Note_on_c, 12, 59, 113
13, 2325, Note_off_c, 12, 50, 56
13, 2326, Note_off_c, 12, 59, 56
13, 2341, Note_on_c, 12, 59, 113
13, 2341, Note_on_c, 12, 50, 113
13, 2386, Note_off_c, 12, 50, 56
13, 2386, Note_off_c, 12, 59, 56
13, 2398, Note_on_c, 12, 72, 108
13, 2399, Note_on_c, 12, 48, 113
13, 2400, Note_on_c, 12, 55, 108
13, 2400, Note_on_c, 12, 36, 108
13, 2401, Note_on_c, 12, 64, 108
13, 2402, Note_on_c, 12, 60, 113
13, 2444, Note_off_c, 12, 48, 56
13, 2447, Note_off_c, 12, 60, 56
13, 2461, Note_on_c, 12, 60, 113
13, 2462, Note_on_c, 12, 48, 113
13, 2481, Note_off_c, 12, 36, 56
13, 2489, Note_off_c, 12, 72, 56
13, 2491, Note_off_c, 12, 55, 56
13, 2492, Note_off_c, 12, 64, 56
13, 2506, Note_off_c, 12, 60, 56
13, 2507, Note_off_c, 12, 48, 56
13, 2518, Note_on_c, 12, 60, 113
13, 2522, Note_on_c, 12, 48, 113
13, 2563, Note_off_c, 12, 60, 56
13, 2567, Note_off_c, 12, 48, 56
13, 2579, Note_on_c, 12, 60, 113
13, 2580, Note_on_c, 12, 48, 113
13, 2624, Note_off_c, 12, 60, 56
13, 2625, Note_off_c, 12, 48, 56
13, 2638, Note_on_c, 12, 55, 108
13, 2639, Note_on_c, 12, 50, 113
13, 2639, Note_on_c, 12, 31, 108
13, 2639, Note_on_c, 12, 59, 113
13, 2641, Note_on_c, 12, 74, 108
13, 2642, Note_on_c, 12, 65, 108
13, 2684, Note_off_c, 12, 59, 56
13, 2684, Note_off_c, 12, 50, 56
13, 2698, Note_on_c, 12, 59, 113
13, 2700, Note_on_c, 12, 50, 113
13, 2720, Note_off_c, 12, 31, 56
13, 2729, Note_off_c, 12, 55, 56
13, 2732, Note_off_c, 12, 74, 56
13, 2733, Note_off_c, 12, 65, 56
13, 2743, Note_off_c, 12, 59, 56
13, 2745, Note_off_c, 12, 50, 56
13, 2760, Note_on_c, 12, 50, 113
13, 2762, Note_on_c, 12, 59, 113
13, 2805, Note_off_c, 12, 50, 56
13, 2807, Note_off_c, 12, 59, 56
13, 2820, Note_on_c, 12, 59, 113
13, 2821, Note_on_c, 12, 50, 113
13, 2865, Note_off_c, 12, 59, 56
13, 2866, Note_off_c, 12, 50, 56
13, 2878, Note_on_c, 12, 52, 113
13, 2879, Note_on_c, 12, 48, 113
13, 2879, Note_on_c, 12, 72, 108
13, 2879, Note_on_c, 12, 64, 108
13, 2880, Note_on_c, 12, 55, 108
13, 2882, Note_on_c, 12, 36, 108
13, 2923, Note_off_c, 12, 52, 56
13, 2924, Note_off_c, 12, 48, 56
13, 2938, Note_on_c, 12, 52, 113
13, 2940, Note_on_c, 12, 48, 113
13, 2983, Note_off_c, 12, 52, 56
13, 2985, Note_off_c, 12, 48, 56
13, 2998, Note_on_c, 12, 48, 113
13, 3002, Note_on_c, 12, 52, 113
13, 3043, Note_off_c, 12, 48, 56
13, 3047, Note_off_c, 12, 52, 56
13, 3059, Note_on_c, 12, 52, 113
13, 3060, Note_on_c, 12, 48, 113
13, 3061, Note_off_c, 12, 64, 64
13, 3062, Note_off_c, 12, 55, 64
13, 3104, Note_off_c, 12, 52, 56
13, 3105, Note_off_c, 12, 48, 56
13, 3118, Note_on_c, 12, 48, 113
13, 3118, Note_on_c, 12, 52, 113
13, 3163, Note_off_c, 12, 52, 56
13, 3163, Note_off_c, 12, 48, 56
13, 3179, Note_on_c, 12, 52, 113
13, 3182, Note_on_c, 12, 48, 113
13, 3224, Note_off_c, 12, 52, 56
13, 3227, Note_off_c, 12, 48, 56
13, 3238, Note_on_c, 12, 48, 113
13, 3239, Note_on_c, 12, 52, 113
13, 3283, Note_off_c, 12, 48, 56
13, 3284, Note_off_c, 12, 52, 56
13, 3299, Note_on_c, 12, 52, 113
13, 3300, Note_on_c, 12, 48, 113
13, 3344, Note_off_c, 12, 52, 56
13, 3345, Note_off_c, 12, 48, 56
13, 3360, Note_on_c, 12, 52, 113
13, 3360, Note_on_c, 12, 48, 113
13, 3400, Note_off_c, 12, 36, 64
13, 3405, Note_off_c, 12, 48, 56
13, 3405, Note_off_c, 12, 52, 56
13, 3420, Note_on_c, 12, 52, 113
13, 3420, Note_on_c, 12, 48, 113
13, 3455, Note_off_c, 12, 72, 64
13, 3465, Note_off_c, 12, 48, 56
13, 3465, Note_off_c, 12, 52, 56
13, 3481, Note_on_c, 12, 52, 113
13, 3481, Note_on_c, 12, 48, 113
13, 3526, Note_off_c, 12, 48, 56
13, 3526, Note_off_c, 12, 52, 56
13, 3538, Note_on_c, 12, 52, 113
13, 3542, Note_on_c, 12, 48, 113
13, 3583, Note_off_c, 12, 52, 56
13, 3587, Note_off_c, 12, 48, 56
13, 3599, Note_on_c, 12, 52, 113
13, 3601, Note_on_c, 12, 48, 113
13, 3601, Note_on_c, 12, 36, 108
13, 3602, Note_on_c, 12, 72, 108
13, 3644, Note_off_c, 12, 52, 56
13, 3646, Note_off_c, 12, 48, 56
13, 3660, Note_on_c, 12, 48, 113
13, 3661, Note_on_c, 12, 52, 113
13, 3705, Note_off_c, 12, 48, 56
13, 3706, Note_off_c, 12, 52, 56
13, 3719, Note_on_c, 12, 52, 113
13, 3719, Note_on_c, 12, 48, 113
13, 3723, Note_off_c, 12, 36, 64
13, 3738, Note_off_c, 12, 72, 64
13, 3764, Note_off_c, 12, 48, 56
13, 3764, Note_off_c, 12, 52, 56
13, 3778, Note_on_c, 12, 48, 113
13, 3780, Note_on_c, 12, 36, 113
13, 3781, Note_on_c, 12, 72, 113
13, 3781, Note_on_c, 12, 52, 113
13, 3820, Note_off_c, 12, 36, 56
13, 3823, Note_off_c, 12, 48, 56
13, 3826, Note_off_c, 12, 52, 56
13, 3826, Note_off_c, 12, 72, 56
13, 3838, Note_on_c, 12, 55, 108
13, 3838, Note_on_c, 12, 74, 108
13, 3839, Note_on_c, 12, 50, 113
13, 3840, Note_on_c, 12, 31, 108
13, 3840, Note_on_c, 12, 67, 108
13, 3884, Note_off_c, 12, 50, 56
13, 3898, Note_on_c, 12, 55, 113
13, 3902, Note_on_c, 12, 50, 113
13, 3943, Note_off_c, 12, 55, 56
13, 3947, Note_off_c, 12, 50, 56
13, 3960, Note_on_c, 12, 55, 113
13, 3962, Note_on_c, 12, 50, 113
13, 4005, Note_off_c, 12, 55, 56
13, 4007, Note_off_c, 12, 50, 56
13, 4020, Note_off_c, 12, 55, 64
13, 4021, Note_on_c, 12, 55, 113
13, 4021, Note_on_c, 12, 50, 113
13, 4022, Note_off_c, 12, 67, 64
13, 4066, Note_off_c, 12, 50, 56
13, 4066, Note_off_c, 12, 55, 56
13, 4078, Note_on_c, 12, 55, 113
13, 4079, Note_on_c, 12, 50, 113
13, 4123, Note_off_c, 12, 55, 56
13, 4124, Note_off_c, 12, 50, 56
13, 4138, Note_on_c, 12, 50, 113
13, 4140, Note_on_c, 12, 55, 113
13, 4183, Note_off_c, 12, 50, 56
13, 4185, Note_off_c, 12, 55, 56
13, 4199, Note_on_c, 12, 50, 113
13, 4199, Note_on_c, 12, 55, 113
13, 4244, Note_off_c, 12, 55, 56
13, 4244, Note_off_c, 12, 50, 56
13, 4258, Note_on_c, 12, 55, 113
13, 4262, Note_on_c, 12, 50, 113
13, 4303, Note_off_c, 12, 55, 56
13, 4307, Note_off_c, 12, 50, 56
13, 4319, Note_on_c, 12, 55, 113
13, 4319, Note_on_c, 12, 50, 113
13, 4358, Note_off_c, 12, 31, 64
13, 4364, Note_off_c, 12, 50, 56
13, 4364, Note_off_c, 12, 55, 56
13, 4381, Note_on_c, 12, 50, 113
13, 4382, Note_on_c, 12, 55, 113
13, 4414, Note_off_c, 12, 74, 64
13, 4426, Note_off_c, 12, 50, 56
13, 4427, Note_off_c, 12, 55, 56
13, 4441, Note_on_c, 12, 50, 113
13, 4442, Note_on_c, 12, 55, 113
13, 4486, Note_off_c, 12, 50, 56
13, 4487, Note_off_c, 12, 55, 56
13, 4499, Note_on_c, 12, 50, 113
13, 4502, Note_on_c, 12, 55, 113
13, 4544, Note_off_c, 12, 50, 56
13, 4547, Note_off_c, 12, 55, 56
13, 4561, Note_on_c, 12, 55, 113
13, 4561, Note_on_c, 12, 74, 108
13, 4562, Note_on_c, 12, 50, 113
13, 4562, Note_on_c, 12, 31, 108
13, 4606, Note_off_c, 12, 55, 56
13, 4607, Note_off_c, 12, 50, 56
13, 4618, Note_on_c, 12, 55, 113
13, 4621, Note_on_c, 12, 50, 113
13, 4663, Note_off_c, 12, 55, 56
13, 4666, Note_off_c, 12, 50, 56
13, 4680, Note_on_c, 12, 50, 113
13, 4681, Note_on_c, 12, 55, 113
13, 4684, Note_off_c, 12, 31, 64
13, 4697, Note_off_c, 12, 74, 64
13, 4725, Note_off_c, 12, 50, 56
13, 4726, Note_off_c, 12, 55, 56
13, 4740, Note_on_c, 12, 50, 113
13, 4740, Note_on_c, 12, 31, 113
13, 4741, Note_on_c, 12, 74, 113
13, 4741, Note_on_c, 12, 55, 113
13, 4780, Note_off_c, 12, 31, 56
13, 4785, Note_off_c, 12, 50, 56
13, 4786, Note_off_c, 12, 55, 56
13, 4786, Note_off_c, 12, 74, 56
13, 4798, Note_on_c, 12, 72, 108
13, 4799, Note_on_c, 12, 60, 108
13, 4800, Note_on_c, 12, 67, 108
13, 4800, Note_on_c, 12, 52, 113
13, 4801, Note_on_c, 12, 55, 113
13, 4801, Note_on_c, 12, 76, 108
13, 4803, Note_on_c, 12, 36, 108
13, 4845, Note_off_c, 12, 52, 56
13, 4846, Note_off_c, 12, 55, 56
13, 4861, Note_on_c, 12, 52, 113
13, 4862, Note_on_c, 12, 55, 113
13, 4906, Note_off_c, 12, 52, 56
13, 4907, Note_off_c, 12, 55, 56
13, 4919, Note_on_c, 12, 52, 113
13, 4922, Note_on_c, 12, 55, 113
13, 4964, Note_off_c, 12, 52, 56
13, 4967, Note_off_c, 12, 55, 56
13, 4978, Note_on_c, 12, 52, 113
13, 4979, Note_on_c, 12, 55, 113
13, 4980, Note_off_c, 12, 72, 64
13, 4981, Note_off_c, 12, 60, 64
13, 4982, Note_off_c, 12, 67, 64
13, 5023, Note_off_c, 12, 52, 56
13, 5024, Note_off_c, 12, 55, 56
13, 5038, Note_on_c, 12, 52, 113
13, 5042, Note_on_c, 12, 55, 113
13, 5083, Note_off_c, 12, 52, 56
13, 5087, Note_off_c, 12, 55, 56
13, 5099, Note_on_c, 12, 52, 113
13, 5102, Note_on_c, 12, 55, 113
13, 5144, Note_off_c, 12, 52, 56
13, 5147, Note_off_c, 12, 55, 56
13, 5161, Note_on_c, 12, 52, 113
13, 5161, Note_on_c, 12, 55, 113
13, 5206, Note_off_c, 12, 55, 56
13, 5206, Note_off_c, 12, 52, 56
13, 5221, Note_on_c, 12, 52, 113
13, 5222, Note_on_c, 12, 55, 113
13, 5266, Note_off_c, 12, 52, 56
13, 5267, Note_off_c, 12, 55, 56
13, 5282, Note_on_c, 12, 55, 113
13, 5282, Note_on_c, 12, 52, 113
13, 5327, Note_off_c, 12, 52, 56
13, 5327, Note_off_c, 12, 55, 56
13, 5340, Note_on_c, 12, 52, 113
13, 5342, Note_on_c, 12, 55, 113
13, 5377, Note_off_c, 12, 76, 64
13, 5385, Note_off_c, 12, 52, 56
13, 5387, Note_off_c, 12, 55, 56
13, 5398, Note_on_c, 12, 52, 113
13, 5398, Note_on_c, 12, 55, 113
13, 5401, Note_on_c, 12, 72, 108
13, 5443, Note_off_c, 12, 55, 56
13, 5443, Note_off_c, 12, 52, 56
13, 5461, Note_on_c, 12, 52, 113
13, 5461, Note_on_c, 12, 55, 113
13, 5469, Note_off_c, 12, 72, 56
13, 5506, Note_off_c, 12, 55, 56
13, 5506, Note_off_c, 12, 52, 56
13, 5520, Note_on_c, 12, 74, 108
13, 5521, Note_on_c, 12, 55, 113
13, 5522, Note_on_c, 12, 52, 113
13, 5566, Note_off_c, 12, 55, 56
13, 5567, Note_off_c, 12, 52, 56
13, 5571, Note_off_c, 12, 36, 64
13, 5578, Note_on_c, 12, 52, 113
13, 5581, Note_on_c, 12, 55, 113
13, 5588, Note_off_c, 12, 74, 56
13, 5623, Note_off_c, 12, 52, 56
13, 5626, Note_off_c, 12, 55, 56
13, 5638, Note_on_c, 12, 76, 108
13, 5641, Note_on_c, 12, 55, 113
13, 5641, Note_on_c, 12, 52, 113
13, 5686, Note_off_c, 12, 52, 56
13, 5686, Note_off_c, 12, 55, 56
13, 5699, Note_on_c, 12, 55, 113
13, 5701, Note_on_c, 12, 52, 113
13, 5706, Note_off_c, 12, 76, 56
13, 5744, Note_off_c, 12, 55, 56
13, 5746, Note_off_c, 12, 52, 56
13, 5759, Note_on_c, 12, 57, 113
13, 5761, Note_on_c, 12, 77, 108
13, 5762, Note_on_c, 12, 53, 113
13, 5762, Note_on_c, 12, 33, 108
13, 5804, Note_off_c, 12, 57, 56
13, 5807, Note_off_c, 12, 53, 56
13, 5820, Note_on_c, 12, 53, 113
13, 5822, Note_on_c, 12, 57, 113
13, 5829, Note_off_c, 12, 77, 56
13, 5865, Note_off_c, 12, 53, 56
13, 5867, Note_off_c, 12, 57, 56
13, 5880, Note_on_c, 12, 57, 113
13, 5880, Note_on_c, 12, 53, 113
13, 5881, Note_on_c, 12, 76, 108
13, 5925, Note_off_c, 12, 53, 56
13, 5925, Note_off_c, 12, 57, 56
13, 5940, Note_on_c, 12, 57, 113
13, 5941, Note_on_c, 12, 53, 113
13, 5949, Note_off_c, 12, 76, 56
13, 5985, Note_off_c, 12, 57, 56
13, 5986, Note_off_c, 12, 53, 56
13, 5998, Note_on_c, 12, 57, 113
13, 6000, Note_on_c, 12, 77, 108
13, 6002, Note_on_c, 12, 53, 113
13, 6043, Note_off_c, 12, 57, 56
13, 6047, Note_off_c, 12, 53, 56
13, 6059, Note_on_c, 12, 53, 113
13, 6061, Note_on_c, 12, 57, 113
13, 6068, Note_off_c, 12, 77, 56
13, 6104, Note_off_c, 12, 53, 56
13, 6106, Note_off_c, 12, 57, 56
13, 6107, Note_off_c, 12, 33, 64
13, 6118, Note_on_c, 12, 57, 113
13, 6119, Note_on_c, 12, 79, 108
13, 6121, Note_on_c, 12, 53, 113
13, 6163, Note_off_c, 12, 57, 56
13, 6166, Note_off_c, 12, 53, 56
13, 6179, Note_on_c, 12, 57, 113
13, 6180, Note_on_c, 12, 53, 113
13, 6187, Note_off_c, 12, 79, 56
13, 6224, Note_off_c, 12, 57, 56
13, 6225, Note_off_c, 12, 53, 56
13, 6238, Note_on_c, 12, 81, 108
13, 6238, Note_on_c, 12, 29, 108
13, 6240, Note_on_c, 12, 57, 113
13, 6242, Note_on_c, 12, 53, 113
13, 6285, Note_off_c, 12, 57, 56
13, 6287, Note_off_c, 12, 53, 56
13, 6299, Note_on_c, 12, 57, 113
13, 6301, Note_on_c, 12, 53, 113
13, 6306, Note_off_c, 12, 81, 56
13, 6344, Note_off_c, 12, 57, 56
13, 6346, Note_off_c, 12, 53, 56
13, 6358, Note_on_c, 12, 79, 108
13, 6359, Note_on_c, 12, 57, 113
13, 6360, Note_on_c, 12, 53, 113
13, 6404, Note_off_c, 12, 57, 56
13, 6405, Note_off_c, 12, 53, 56
13, 6421, Note_on_c, 12, 53, 113
13, 6422, Note_on_c, 12, 57, 113
13, 6426, Note_off_c, 12, 79, 56
13, 6466, Note_off_c, 12, 53, 56
13, 6467, Note_off_c, 12, 57, 56
13, 6479, Note_on_c, 12, 53, 113
13, 6480, Note_on_c, 12, 81, 108
13, 6482, Note_on_c, 12, 57, 113
13, 6524, Note_off_c, 12, 53, 56
13, 6527, Note_off_c, 12, 57, 56
13, 6539, Note_on_c, 12, 53, 113
13, 6541, Note_on_c, 12, 57, 113
13, 6548, Note_off_c, 12, 81, 56
13, 6583, Note_off_c, 12, 29, 64
13, 6584, Note_off_c, 12, 53, 56
13, 6586, Note_off_c, 12, 57, 56
13, 6599, Note_on_c, 12, 83, 108
13, 6599, Note_on_c, 12, 53, 113
13, 6600, Note_on_c, 12, 57, 113
13, 6644, Note_off_c, 12, 53, 56
13, 6645, Note_off_c, 12, 57, 56
13, 6660, Note_on_c, 12, 57, 113
13, 6662, Note_on_c, 12, 53, 113
13, 6667, Note_off_c, 12, 83, 56
13, 6705, Note_off_c, 12, 57, 56
13, 6707, Note_off_c, 12, 53, 56
13, 6719, Note_on_c, 12, 55, 113
13, 6719, Note_on_c, 12, 28, 108
13, 6720, Note_on_c, 12, 52, 113
13, 6722, Note_on_c, 12, 84, 108
13, 6764, Note_off_c, 12, 55, 56
13, 6765, Note_off_c, 12, 52, 56
13, 6778, Note_on_c, 12, 52, 113
13, 6780, Note_on_c, 12, 55, 113
13, 6800, Note_off_c, 12, 28, 56
13, 6823, Note_off_c, 12, 52, 56
13, 6825, Note_off_c, 12, 55, 56
13, 6838, Note_on_c, 12, 52, 113
13, 6838, Note_on_c, 12, 55, 113
13, 6841, Note_on_c, 12, 29, 108
13, 6883, Note_off_c, 12, 55, 56
13, 6883, Note_off_c, 12, 52, 56
13, 6901, Note_on_c, 12, 52, 113
13, 6902, Note_on_c, 12, 55, 113
13, 6922, Note_off_c, 12, 29, 56
13, 6946, Note_off_c, 12, 52, 56
13, 6947, Note_off_c, 12, 55, 56
13, 6959, Note_on_c, 12, 55, 113
13, 6961, Note_on_c, 12, 52, 113
13, 6961, Note_on_c, 12, 28, 108
13, 7004, Note_off_c, 12, 55, 56
13, 7006, Note_off_c, 12, 52, 56
13, 7019, Note_on_c, 12, 52, 113
13, 7022, Note_on_c, 12, 55, 113
13, 7042, Note_off_c, 12, 28, 56
13, 7064, Note_off_c, 12, 52, 56
13, 7067, Note_off_c, 12, 55, 56
13, 7078, Note_on_c, 12, 55, 113
13, 7080, Note_on_c, 12, 26, 108
13, 7081, Note_on_c, 12, 52, 113
13, 7123, Note_off_c, 12, 55, 56
13, 7126, Note_off_c, 12, 52, 56
13, 7138, Note_on_c, 12, 52, 113
13, 7140, Note_on_c, 12, 55, 113
13, 7161, Note_off_c, 12, 26, 56
13, 7183, Note_off_c, 12, 52, 56
13, 7185, Note_off_c, 12, 55, 56
13, 7198, Note_on_c, 12, 52, 113
13, 7200, Note_on_c, 12, 55, 113
13, 7201, Note_on_c, 12, 24, 108
13, 7243, Note_off_c, 12, 52, 56
13, 7245, Note_off_c, 12, 55, 56
13, 7259, Note_on_c, 12, 55, 113
13, 7261, Note_on_c, 12, 52, 113
13, 7298, Note_off_c, 12, 84, 64
13, 7304, Note_off_c, 12, 55, 56
13, 7306, Note_off_c, 12, 52, 56
13, 7320, Note_on_c, 12, 72, 108
13, 7320, Note_on_c, 12, 52, 113
13, 7320, Note_on_c, 12, 55, 113
13, 7365, Note_off_c, 12, 55, 56
13, 7365, Note_off_c, 12, 52, 56
13, 7380, Note_on_c, 12, 55, 113
13, 7382, Note_on_c, 12, 52, 113
13, 7388, Note_off_c, 12, 72, 56
13, 7425, Note_off_c, 12, 55, 56
13, 7427, Note_off_c, 12, 52, 56
13, 7439, Note_on_c, 12, 55, 113
13, 7442, Note_on_c, 12, 74, 108
13, 7442, Note_on_c, 12, 52, 113
13, 7484, Note_off_c, 12, 55, 56
13, 7487, Note_off_c, 12, 52, 56
13, 7499, Note_on_c, 12, 52, 113
13, 7502, Note_on_c, 12, 55, 113
13, 7510, Note_off_c, 12, 74, 56
13, 7544, Note_off_c, 12, 52, 56
13, 7546, Note_off_c, 12, 24, 64
13, 7547, Note_off_c, 12, 55, 56
13, 7558, Note_on_c, 12, 76, 108
13, 7560, Note_on_c, 12, 55, 113
13, 7561, Note_on_c, 12, 52, 113
13, 7605, Note_off_c, 12, 55, 56
13, 7606, Note_off_c, 12, 52, 56
13, 7618, Note_on_c, 12, 52, 113
13, 7622, Note_on_c, 12, 55, 113
13, 7626, Note_off_c, 12, 76, 56
13, 7663, Note_off_c, 12, 52, 56
13, 7667, Note_off_c, 12, 55, 56
13, 7679, Note_on_c, 12, 57, 113
13, 7680, Note_on_c, 12, 77, 108
13, 7681, Note_on_c, 12, 33, 108
13, 7682, Note_on_c, 12, 53, 113
13, 7724, Note_off_c, 12, 57, 56
13, 7727, Note_off_c, 12, 53, 56
13, 7738, Note_on_c, 12, 53, 113
13, 7738, Note_on_c, 12, 57, 113
13, 7748, Note_off_c, 12, 77, 56
13, 7783, Note_off_c, 12, 57, 56
13, 7783, Note_off_c, 12, 53, 56
13, 7801, Note_on_c, 12, 57, 113
13, 7801, Note_on_c, 12, 53, 113
13, 7802, Note_on_c, 12, 76, 108
13, 7846, Note_off_c, 12, 53, 56
13, 7846, Note_off_c, 12, 57, 56
13, 7861, Note_on_c, 12, 57, 113
13, 7862, Note_on_c, 12, 53, 113
13, 7870, Note_off_c, 12, 76, 56
13, 7906, Note_off_c, 12, 57, 56
13, 7907, Note_off_c, 12, 53, 56
13, 7919, Note_on_c, 12, 77, 108
13, 7920, Note_on_c, 12, 57, 113
13, 7922, Note_on_c, 12, 53, 113
13, 7965, Note_off_c, 12, 57, 56
13, 7967, Note_off_c, 12, 53, 56
13, 7980, Note_on_c, 12, 57, 113
13, 7982, Note_on_c, 12, 53, 113
13, 7987, Note_off_c, 12, 77, 56
13, 8025, Note_off_c, 12, 57, 56
13, 8026, Note_off_c, 12, 33, 64
13, 8027, Note_off_c, 12, 53, 56
13, 8039, Note_on_c, 12, 53, 113
13, 8041, Note_on_c, 12, 79, 108
13, 8042, Note_on_c, 12, 57, 113
13, 8084, Note_off_c, 12, 53, 56
13, 8087, Note_off_c, 12, 57, 56
13, 8098, Note_on_c, 12, 53, 113
13, 8100, Note_on_c, 12, 57, 113
13, 8109, Note_off_c, 12, 79, 56
13, 8143, Note_off_c, 12, 53, 56
13, 8145, Note_off_c, 12, 57, 56
13, 8157, Note_on_c, 12, 29, 108
13, 8158, Note_on_c, 12, 81, 108
13, 8159, Note_on_c, 12, 53, 113
13, 8159, Note_on_c, 12, 57, 113
13, 8204, Note_off_c, 12, 57, 56
13, 8204, Note_off_c, 12, 53, 56
13, 8220, Note_on_c, 12, 53, 113
13, 8221, Note_on_c, 12, 57, 113
13, 8226, Note_off_c, 12, 81, 56
13, 8265, Note_off_c, 12, 53, 56
13, 8266, Note_off_c, 12, 57, 56
13, 8278, Note_on_c, 12, 57, 113
13, 8282, Note_on_c, 12, 79, 108
13, 8282, Note_on_c, 12, 53, 113
13, 8323, Note_off_c, 12, 57, 56
13, 8327, Note_off_c, 12, 53, 56
13, 8339, Note_on_c, 12, 57, 113
13, 8339, Note_on_c, 12, 53, 113
13, 8350, Note_off_c, 12, 79, 56
13, 8384, Note_off_c, 12, 53, 56
13, 8384, Note_off_c, 12, 57, 56
13, 8399, Note_on_c, 12, 53, 113
13, 8399, Note_on_c, 12, 57, 113
13, 8401, Note_on_c, 12, 81, 108
13, 8444, Note_off_c, 12, 57, 56
13, 8444, Note_off_c, 12, 53, 56
13, 8458, Note_on_c, 12, 53, 113
13, 8461, Note_on_c, 12, 57, 113
13, 8469, Note_off_c, 12, 81, 56
13, 8502, Note_off_c, 12, 29, 64
13, 8503, Note_off_c, 12, 53, 56
13, 8506, Note_off_c, 12, 57, 56
13, 8518, Note_on_c, 12, 53, 113
13, 8520, Note_on_c, 12, 83, 108
13, 8521, Note_on_c, 12, 57, 113
13, 8563, Note_off_c, 12, 53, 56
13, 8566, Note_off_c, 12, 57, 56
13, 8580, Note_on_c, 12, 53, 113
13, 8581, Note_on_c, 12, 57, 113
13, 8588, Note_off_c, 12, 83, 56
13, 8625, Note_off_c, 12, 53, 56
13, 8626, Note_off_c, 12, 57, 56
13, 8638, Note_on_c, 12, 55, 113
13, 8639, Note_on_c, 12, 84, 108
13, 8641, Note_on_c, 12, 52, 113
13, 8641, Note_on_c, 12, 28, 108
13, 8683, Note_off_c, 12, 55, 56
13, 8686, Note_off_c, 12, 52, 56
13, 8699, Note_on_c, 12, 52, 113
13, 8701, Note_on_c, 12, 55, 113
13, 8722, Note_off_c, 12, 28, 56
13, 8744, Note_off_c, 12, 52, 56
13, 8746, Note_off_c, 12, 55, 56
13, 8759, Note_on_c, 12, 55, 113
13, 8759, Note_on_c, 12, 29, 108
13, 8760, Note_on_c, 12, 52, 113
13, 8804, Note_off_c, 12, 55, 56
13, 8805, Note_off_c, 12, 52, 56
13, 8819, Note_on_c, 12, 55, 113
13, 8822, Note_on_c, 12, 52, 113
13, 8840, Note_off_c, 12, 29, 56
13, 8864, Note_off_c, 12, 55, 56
13, 8867, Note_off_c, 12, 52, 56
13, 8879, Note_on_c, 12, 55, 113
13, 8879, Note_on_c, 12, 28, 108
13, 8880, Note_on_c, 12, 52, 113
13, 8924, Note_off_c, 12, 55, 56
13, 8925, Note_off_c, 12, 52, 56
13, 8939, Note_on_c, 12, 52, 113
13, 8942, Note_on_c, 12, 55, 113
13, 8960, Note_off_c, 12, 28, 56
13, 8984, Note_off_c, 12, 52, 56
13, 8987, Note_off_c, 12, 55, 56
13, 8998, Note_on_c, 12, 52, 113
13, 8998, Note_on_c, 12, 55, 113
13, 9000, Note_on_c, 12, 26, 108
13, 9043, Note_off_c, 12, 55, 56
13, 9043, Note_off_c, 12, 52, 56
13, 9059, Note_on_c, 12, 55, 113
13, 9061, Note_on_c, 12, 52, 113
13, 9081, Note_off_c, 12, 26, 56
13, 9104, Note_off_c, 12, 55, 56
13, 9106, Note_off_c, 12, 52, 56
13, 9119, Note_on_c, 12, 24, 108
13, 9122, Note_on_c, 12, 52, 113
13, 9122, Note_on_c, 12, 55, 113
13, 9167, Note_off_c, 12, 55, 56
13, 9167, Note_off_c, 12, 52, 56
13, 9180, Note_on_c, 12, 52, 113
13, 9182, Note_on_c, 12, 55, 113
13, 9215, Note_off_c, 12, 84, 64
13, 9225, Note_off_c, 12, 52, 56
13, 9227, Note_off_c, 12, 55, 56
13, 9241, Note_on_c, 12, 52, 113
13, 9242, Note_on_c, 12, 72, 108
13, 9242, Note_on_c, 12, 55, 113
13, 9286, Note_off_c, 12, 52, 56
13, 9287, Note_off_c, 12, 55, 56
13, 9298, Note_on_c, 12, 52, 113
13, 9298, Note_on_c, 12, 55, 113
13, 9310, Note_off_c, 12, 72, 56
13, 9343, Note_off_c, 12, 55, 56
13, 9343, Note_off_c, 12, 52, 56
13, 9359, Note_on_c, 12, 52, 113
13, 9361, Note_on_c, 12, 74, 108
13, 9362, Note_on_c, 12, 55, 113
13, 9404, Note_off_c, 12, 52, 56
13, 9407, Note_off_c, 12, 55, 56
13, 9420, Note_on_c, 12, 52, 113
13, 9422, Note_on_c, 12, 55, 113
13, 9429, Note_off_c, 12, 74, 56
13, 9464, Note_off_c, 12, 24, 64
13, 9465, Note_off_c, 12, 52, 56
13, 9467, Note_off_c, 12, 55, 56
13, 9480, Note_on_c, 12, 76, 108
13, 9481, Note_on_c, 12, 52, 113
13, 9481, Note_on_c, 12, 55, 113
13, 9526, Note_off_c, 12, 55, 56
13, 9526, Note_off_c, 12, 52, 56
13, 9538, Note_on_c, 12, 55, 113
13, 9541, Note_on_c, 12, 52, 113
13, 9548, Note_off_c, 12, 76, 56
13, 9583, Note_off_c, 12, 55, 56
13, 9586, Note_off_c, 12, 52, 56
13, 9598, Note_on_c, 12, 79, 113
13, 9598, Note_on_c, 12, 33, 108
13, 9599, Note_on_c, 12, 57, 113
13, 9600, Note_on_c, 12, 53, 113
13, 9615, Note_off_c, 12, 79, 56
13, 9630, Note_on_c, 12, 77, 113
13, 9644, Note_off_c, 12, 57, 56
13, 9645, Note_off_c, 12, 53, 56
13, 9662, Note_on_c, 12, 53, 113
13, 9662, Note_on_c, 12, 57, 113
13, 9681, Note_off_c, 12, 77, 56
13, 9707, Note_off_c, 12, 57, 56
13, 9707, Note_off_c, 12, 53, 56
13, 9722, Note_on_c, 12, 76, 108
13, 9722, Note_on_c, 12, 53, 113
13, 9722, Note_on_c, 12, 57, 113
13, 9767, Note_off_c, 12, 57, 56
13, 9767, Note_off_c, 12, 53, 56
13, 9780, Note_on_c, 12, 53, 113
13, 9782, Note_on_c, 12, 57, 113
13, 9790, Note_off_c, 12, 76, 56
13, 9825, Note_off_c, 12, 53, 56
13, 9827, Note_off_c, 12, 57, 56
13, 9838, Note_on_c, 12, 53, 113
13, 9840, Note_on_c, 12, 77, 108
13, 9841, Note_on_c, 12, 57, 113
13, 9883, Note_off_c, 12, 53, 56
13, 9886, Note_off_c, 12, 57, 56
13, 9900, Note_on_c, 12, 57, 113
13, 9901, Note_on_c, 12, 53, 113
13, 9908, Note_off_c, 12, 77, 56
13, 9943, Note_off_c, 12, 33, 64
13, 9945, Note_off_c, 12, 57, 56
13, 9946, Note_off_c, 12, 53, 56
13, 9958, Note_on_c, 12, 79, 108
13, 9960, Note_on_c, 12, 57, 113
13, 9961, Note_on_c, 12, 53, 113
13, 10005, Note_off_c, 12, 57, 56
13, 10006, Note_off_c, 12, 53, 56
13, 10021, Note_on_c, 12, 53, 113
13, 10021, Note_on_c, 12, 57, 113
13, 10026, Note_off_c, 12, 79, 56
13, 10066, Note_off_c, 12, 57, 56
13, 10066, Note_off_c, 12, 53, 56
13, 10078, Note_on_c, 12, 57, 113
13, 10079, Note_on_c, 12, 29, 108
13, 10080, Note_on_c, 12, 83, 113
13, 10080, Note_on_c, 12, 53, 113
13, 10097, Note_off_c, 12, 83, 56
13, 10108, Note_on_c, 12, 81, 113
13, 10123, Note_off_c, 12, 57, 56
13, 10125, Note_off_c, 12, 53, 56
13, 10140, Note_on_c, 12, 57, 113
13, 10141, Note_on_c, 12, 53, 113
13, 10159, Note_off_c, 12, 81, 56
13, 10185, Note_off_c, 12, 57, 56
13, 10186, Note_off_c, 12, 53, 56
13, 10200, Note_on_c, 12, 79, 108
13, 10200, Note_on_c, 12, 53, 113
13, 10202, Note_on_c, 12, 57, 113
13, 10245, Note_off_c, 12, 53, 56
13, 10247, Note_off_c, 12, 57, 56
13, 10258, Note_on_c, 12, 57, 113
13, 10261, Note_on_c, 12, 53, 113
13, 10268, Note_off_c, 12, 79, 56
13, 10303, Note_off_c, 12, 57, 56
13, 10306, Note_off_c, 12, 53, 56
13, 10320, Note_on_c, 12, 81, 108
13, 10321, Note_on_c, 12, 53, 113
13, 10322, Note_on_c, 12, 57, 113
13, 10366, Note_off_c, 12, 53, 56
13, 10367, Note_off_c, 12, 57, 56
13, 10379, Note_on_c, 12, 53, 113
13, 10379, Note_on_c, 12, 57, 113
13, 10388, Note_off_c, 12, 81, 56
13, 10424, Note_off_c, 12, 57, 56
13, 10424, Note_off_c, 12, 53, 56
13, 10424, Note_off_c, 12, 29, 64
13, 10438, Note_on_c, 12, 83, 108
13, 10440, Note_on_c, 12, 57, 113
13, 10441, Note_on_c, 12, 53, 113
13, 10485, Note_off_c, 12, 57, 56
13, 10486, Note_off_c, 12, 53, 56
13, 10498, Note_on_c, 12, 53, 113
13, 10501, Note_on_c, 12, 57, 113
13, 10506, Note_off_c, 12, 83, 56
13, 10543, Note_off_c, 12, 53, 56
13, 10546, Note_off_c, 12, 57, 56
13, 10559, Note_on_c, 12, 52, 113
13, 10560, Note_on_c, 12, 86, 113
13, 10560, Note_on_c, 12, 55, 113
13, 10561, Note_on_c, 12, 28, 108
13, 10582, Note_off_c, 12, 86, 56
13, 10590, Note_on_c, 12, 84, 108
13, 10604, Note_off_c, 12, 52, 56
13, 10605, Note_off_c, 12, 55, 56
13, 10619, Note_on_c, 12, 52, 113
13, 10622, Note_on_c, 12, 55, 113
13, 10642, Note_off_c, 12, 28, 56
13, 10658, Note_off_c, 12, 84, 56
13, 10664, Note_off_c, 12, 52, 56
13, 10667, Note_off_c, 12, 55, 56
13, 10678, Note_on_c, 12, 83, 108
13, 10678, Note_on_c, 12, 52, 113
13, 10680, Note_on_c, 12, 55, 113
13, 10681, Note_on_c, 12, 29, 108
13, 10723, Note_off_c, 12, 52, 56
13, 10725, Note_off_c, 12, 55, 56
13, 10741, Note_on_c, 12, 52, 113
13, 10742, Note_on_c, 12, 55, 113
13, 10762, Note_off_c, 12, 29, 56
13, 10769, Note_off_c, 12, 83, 56
13, 10786, Note_off_c, 12, 52, 56
13, 10787, Note_off_c, 12, 55, 56
13, 10798, Note_on_c, 12, 84, 108
13, 10798, Note_on_c, 12, 55, 113
13, 10798, Note_on_c, 12, 52, 113
13, 10801, Note_on_c, 12, 28, 108
13, 10843, Note_off_c, 12, 52, 56
13, 10843, Note_off_c, 12, 55, 56
13, 10859, Note_on_c, 12, 55, 113
13, 10861, Note_on_c, 12, 52, 113
13, 10882, Note_off_c, 12, 28, 56
13, 10889, Note_off_c, 12, 84, 56
13, 10904, Note_off_c, 12, 55, 56
13, 10906, Note_off_c, 12, 52, 56
13, 10918, Note_on_c, 12, 55, 113
13, 10919, Note_on_c, 12, 52, 113
13, 10920, Note_on_c, 12, 86, 108
13, 10921, Note_on_c, 12, 26, 108
13, 10963, Note_off_c, 12, 55, 56
13, 10964, Note_off_c, 12, 52, 56
13, 10978, Note_on_c, 12, 52, 113
13, 10978, Note_on_c, 12, 55, 113
13, 11002, Note_off_c, 12, 26, 56
13, 11011, Note_off_c, 12, 86, 56
13, 11023, Note_off_c, 12, 55, 56
13, 11023, Note_off_c, 12, 52, 56
13, 11038, Note_on_c, 12, 88, 108
13, 11038, Note_on_c, 12, 52, 113
13, 11042, Note_on_c, 12, 55, 113
13, 11043, Note_on_c, 12, 24, 108
13, 11083, Note_off_c, 12, 52, 56
13, 11087, Note_off_c, 12, 55, 56
13, 11102, Note_on_c, 12, 55, 113
13, 11102, Note_on_c, 12, 52, 113
13, 11147, Note_off_c, 12, 52, 56
13, 11147, Note_off_c, 12, 55, 56
13, 11158, Note_on_c, 12, 52, 113
13, 11159, Note_on_c, 12, 55, 113
13, 11203, Note_off_c, 12, 52, 56
13, 11204, Note_off_c, 12, 55, 56
13, 11206, Note_off_c, 12, 24, 64
13, 11220, Note_off_c, 12, 88, 64
13, 11221, Note_on_c, 12, 52, 113
13, 11222, Note_on_c, 12, 55, 113
13, 11266, Note_off_c, 12, 52, 56
13, 11267, Note_off_c, 12, 55, 56
13, 11279, Note_on_c, 12, 79, 108
13, 11279, Note_on_c, 12, 55, 113
13, 11280, Note_on_c, 12, 52, 113
13, 11282, Note_on_c, 12, 36, 108
13, 11324, Note_off_c, 12, 55, 56
13, 11325, Note_off_c, 12, 52, 56
13, 11341, Note_on_c, 12, 55, 113
13, 11341, Note_on_c, 12, 52, 113
13, 11370, Note_off_c, 12, 79, 56
13, 11386, Note_off_c, 12, 52, 56
13, 11386, Note_off_c, 12, 55, 56
13, 11399, Note_on_c, 12, 52, 113
13, 11402, Note_on_c, 12, 55, 113
13, 11404, Note_off_c, 12, 36, 64
13, 11444, Note_off_c, 12, 52, 56
13, 11447, Note_off_c, 12, 55, 56
13, 11460, Note_on_c, 12, 36, 113
13, 11461, Note_on_c, 12, 55, 113
13, 11462, Note_on_c, 12, 88, 113
13, 11462, Note_on_c, 12, 52, 113
13, 11500, Note_off_c, 12, 36, 56
13, 11506, Note_off_c, 12, 55, 56
13, 11507, Note_off_c, 12, 52, 56
13, 11507, Note_off_c, 12, 88, 56
13, 11518, Note_on_c, 12, 88, 108
13, 11520, Note_on_c, 12, 62, 108
13, 11522, Note_on_c, 12, 35, 108
13, 11626, Note_off_c, 12, 88, 56
13, 11640, Note_on_c, 12, 86, 108
13, 11702, Note_off_c, 12, 62, 64
13, 11731, Note_off_c, 12, 86, 56
13, 11758, Note_on_c, 12, 77, 108
13, 11759, Note_on_c, 12, 62, 108
13, 11849, Note_off_c, 12, 77, 56
13, 11867, Note_off_c, 12, 35, 64
13, 11895, Note_off_c, 12, 62, 64
13, 11938, Note_on_c, 12, 62, 113
13, 11940, Note_on_c, 12, 86, 113
13, 11983, Note_off_c, 12, 62, 56
13, 11985, Note_off_c, 12, 86, 56
13, 11998, Note_on_c, 12, 86, 108
13, 11998, Note_on_c, 12, 60, 108
13, 12001, Note_on_c, 12, 36, 108
13, 12106, Note_off_c, 12, 86, 56
13, 12119, Note_on_c, 12, 84, 108
13, 12180, Note_off_c, 12, 60, 64
13, 12210, Note_off_c, 12, 84, 56
13, 12240, Note_on_c, 12, 60, 108
13, 12241, Note_on_c, 12, 76, 108
13, 12332, Note_off_c, 12, 76, 56
13, 12346, Note_off_c, 12, 36, 64
13, 12376, Note_off_c, 12, 60, 64
13, 12421, Note_on_c, 12, 60, 113
13, 12422, Note_on_c, 12, 84, 113
13, 12466, Note_off_c, 12, 60, 56
13, 12467, Note_off_c, 12, 84, 56
13, 12480, Note_on_c, 12, 84, 108
13, 12481, Note_on_c, 12, 31, 108
13, 12482, Note_on_c, 12, 59, 108
13, 12588, Note_off_c, 12, 84, 56
13, 12599, Note_on_c, 12, 83, 108
13, 12644, Note_off_c, 12, 31, 64
13, 12664, Note_off_c, 12, 59, 64
13, 12690, Note_off_c, 12, 83, 56
13, 12718, Note_on_c, 12, 59, 108
13, 12720, Note_on_c, 12, 83, 108
13, 12722, Note_on_c, 12, 31, 108
13, 13067, Note_off_c, 12, 31, 64
13, 13102, Note_off_c, 12, 59, 64
13, 13104, Note_off_c, 12, 83, 64
13, 13200, Note_on_c, 12, 84, 108
13, 13201, Note_on_c, 12, 36, 108
13, 13202, Note_on_c, 12, 60, 108
13, 13291, Note_off_c, 12, 84, 56
13, 13323, Note_off_c, 12, 36, 64
13, 13338, Note_off_c, 12, 60, 64
13, 13378, Note_on_c, 12, 60, 113
13, 13380, Note_on_c, 12, 88, 113
13, 13380, Note_on_c, 12, 36, 113
13, 13420, Note_off_c, 12, 36, 56
13, 13423, Note_off_c, 12, 60, 56
13, 13425, Note_off_c, 12, 88, 56
13, 13441, Note_on_c, 12, 88, 108
13, 13441, Note_on_c, 12, 35, 108
13, 13442, Note_on_c, 12, 62, 108
13, 13549, Note_off_c, 12, 88, 56
13, 13561, Note_on_c, 12, 86, 108
13, 13624, Note_off_c, 12, 62, 64
13, 13652, Note_off_c, 12, 86, 56
13, 13678, Note_on_c, 12, 62, 108
13, 13680, Note_on_c, 12, 77, 108
13, 13771, Note_off_c, 12, 77, 56
13, 13786, Note_off_c, 12, 35, 64
13, 13814, Note_off_c, 12, 62, 64
13, 13860, Note_on_c, 12, 62, 113
13, 13861, Note_on_c, 12, 86, 113
13, 13905, Note_off_c, 12, 62, 56
13, 13906, Note_off_c, 12, 86, 56
13, 13919, Note_on_c, 12, 86, 108
13, 13919, Note_on_c, 12, 36, 108
13, 13920, Note_on_c, 12, 60, 108
13, 14027, Note_off_c, 12, 86, 56
13, 14039, Note_on_c, 12, 84, 108
13, 14102, Note_off_c, 12, 60, 64
13, 14130, Note_off_c, 12, 84, 56
13, 14158, Note_on_c, 12, 76, 108
13, 14158, Note_on_c, 12, 60, 108
13, 14249, Note_off_c, 12, 76, 56
13, 14264, Note_off_c, 12, 36, 64
13, 14294, Note_off_c, 12, 60, 64
13, 14338, Note_on_c, 12, 84, 113
13, 14342, Note_on_c, 12, 60, 113
13, 14383, Note_off_c, 12, 84, 56
13, 14387, Note_off_c, 12, 60, 56
13, 14399, Note_on_c, 12, 84, 108
13, 14400, Note_on_c, 12, 59, 108
13, 14401, Note_on_c, 12, 31, 108
13, 14507, Note_off_c, 12, 84, 56
13, 14518, Note_on_c, 12, 83, 108
13, 14564, Note_off_c, 12, 31, 64
13, 14582, Note_off_c, 12, 59, 64
13, 14609, Note_off_c, 12, 83, 56
13, 14639, Note_on_c, 12, 83, 108
13, 14639, Note_on_c, 12, 59, 108
13, 14641, Note_on_c, 12, 31, 108
13, 14986, Note_off_c, 12, 31, 64
13, 15023, Note_off_c, 12, 59, 64
13, 15023, Note_off_c, 12, 83, 64
13, 15119, Note_on_c, 12, 84, 108
13, 15119, Note_on_c, 12, 60, 108
13, 15122, Note_on_c, 12, 36, 108
13, 15187, Note_off_c, 12, 84, 56
13, 15244, Note_off_c, 12, 36, 64
13, 15255, Note_off_c, 12, 60, 64
13, 15300, Note_on_c, 12, 60, 113
13, 15300, Note_on_c, 12, 36, 113
13, 15301, Note_on_c, 12, 88, 113
13, 15335, Note_off_c, 12, 88, 56
13, 15340, Note_off_c, 12, 36, 56
13, 15345, Note_off_c, 12, 60, 56
13, 15358, Note_on_c, 12, 88, 108
13, 15358, Note_on_c, 12, 62, 108
13, 15358, Note_on_c, 12, 35, 108
13, 15426, Note_off_c, 12, 88, 56
13, 15480, Note_off_c, 12, 35, 64
13, 15494, Note_off_c, 12, 62, 64
13, 15540, Note_on_c, 12, 35, 113
13, 15541, Note_on_c, 12, 86, 113
13, 15542, Note_on_c, 12, 62, 113
13, 15575, Note_off_c, 12, 86, 56
13, 15580, Note_off_c, 12, 35, 56
13, 15587, Note_off_c, 12, 62, 56
13, 15598, Note_on_c, 12, 77, 108
13, 15601, Note_on_c, 12, 59, 108
13, 15602, Note_on_c, 12, 31, 108
13, 15666, Note_off_c, 12, 77, 56
13, 15724, Note_off_c, 12, 31, 64
13, 15737, Note_off_c, 12, 59, 64
13, 15779, Note_on_c, 12, 59, 113
13, 15780, Note_on_c, 12, 86, 113
13, 15780, Note_on_c, 12, 31, 113
13, 15814, Note_off_c, 12, 86, 56
13, 15820, Note_off_c, 12, 31, 56
13, 15824, Note_off_c, 12, 59, 56
13, 15838, Note_on_c, 12, 60, 108
13, 15840, Note_on_c, 12, 36, 108
13, 15842, Note_on_c, 12, 86, 108
13, 15910, Note_off_c, 12, 86, 56
13, 15962, Note_off_c, 12, 36, 64
13, 15974, Note_off_c, 12, 60, 64
13, 16020, Note_on_c, 12, 36, 113
13, 16021, Note_on_c, 12, 84, 113
13, 16021, Note_on_c, 12, 60, 113
13, 16055, Note_off_c, 12, 84, 56
13, 16060, Note_off_c, 12, 36, 56
13, 16066, Note_off_c, 12, 60, 56
13, 16078, Note_on_c, 12, 40, 108
13, 16081, Note_on_c, 12, 60, 108
13, 16138, Note_on_c, 12, 76, 113
13, 16172, Note_off_c, 12, 76, 56
13, 16200, Note_off_c, 12, 40, 64
13, 16217, Note_off_c, 12, 60, 64
13, 16260, Note_on_c, 12, 84, 113
13, 16260, Note_on_c, 12, 40, 113
13, 16260, Note_on_c, 12, 60, 113
13, 16294, Note_off_c, 12, 84, 56
13, 16300, Note_off_c, 12, 40, 56
13, 16305, Note_off_c, 12, 60, 56
13, 16318, Note_on_c, 12, 59, 113
13, 16320, Note_on_c, 12, 43, 108
13, 16321, Note_on_c, 12, 83, 108
13, 16363, Note_off_c, 12, 59, 56
13, 16382, Note_on_c, 12, 59, 113
13, 16389, Note_off_c, 12, 83, 56
13, 16401, Note_off_c, 12, 43, 56
13, 16427, Note_off_c, 12, 59, 56
13, 16441, Note_on_c, 12, 59, 113
13, 16441, Note_on_c, 12, 31, 108
13, 16486, Note_off_c, 12, 59, 56
13, 16498, Note_on_c, 12, 59, 113
13, 16500, Note_on_c, 12, 74, 113
13, 16522, Note_off_c, 12, 31, 56
13, 16543, Note_off_c, 12, 59, 56
13, 16545, Note_off_c, 12, 74, 56
13, 16560, Note_on_c, 12, 79, 108
13, 16562, Note_on_c, 12, 59, 113
13, 16563, Note_on_c, 12, 31, 108
13, 16607, Note_off_c, 12, 59, 56
13, 16621, Note_on_c, 12, 59, 113
13, 16666, Note_off_c, 12, 59, 56
13, 16681, Note_on_c, 12, 59, 113
13, 16726, Note_off_c, 12, 59, 56
13, 16726, Note_off_c, 12, 31, 64
13, 16740, Note_on_c, 12, 59, 113
13, 16785, Note_off_c, 12, 59, 56
13, 16799, Note_on_c, 12, 60, 113
13, 16844, Note_off_c, 12, 60, 56
13, 16858, Note_on_c, 12, 60, 113
13, 16903, Note_off_c, 12, 60, 56
13, 16918, Note_on_c, 12, 60, 113
13, 16944, Note_off_c, 12, 79, 64
13, 16963, Note_off_c, 12, 60, 56
13, 16981, Note_on_c, 12, 60, 113
13, 17026, Note_off_c, 12, 60, 56
13, 17041, Note_on_c, 12, 60, 113
13, 17042, Note_on_c, 12, 81, 113
13, 17086, Note_off_c, 12, 60, 56
13, 17096, Note_off_c, 12, 81, 56
13, 17098, Note_on_c, 12, 60, 113
13, 17098, Note_on_c, 12, 79, 113
13, 17143, Note_off_c, 12, 60, 56
13, 17152, Note_off_c, 12, 79, 56
13, 17159, Note_on_c, 12, 60, 113
13, 17162, Note_on_c, 12, 77, 113
13, 17204, Note_off_c, 12, 60, 56
13, 17216, Note_off_c, 12, 77, 56
13, 17218, Note_on_c, 12, 60, 113
13, 17219, Note_on_c, 12, 76, 113
13, 17263, Note_off_c, 12, 60, 56
13, 17273, Note_off_c, 12, 76, 56
13, 17278, Note_on_c, 12, 74, 108
13, 17280, Note_on_c, 12, 59, 113
13, 17325, Note_off_c, 12, 59, 56
13, 17341, Note_on_c, 12, 59, 113
13, 17369, Note_off_c, 12, 74, 56
13, 17386, Note_off_c, 12, 59, 56
13, 17398, Note_on_c, 12, 59, 113
13, 17400, Note_on_c, 12, 31, 108
13, 17443, Note_off_c, 12, 59, 56
13, 17459, Note_on_c, 12, 74, 113
13, 17459, Note_on_c, 12, 59, 113
13, 17481, Note_off_c, 12, 31, 56
13, 17504, Note_off_c, 12, 59, 56
13, 17504, Note_off_c, 12, 74, 56
13, 17519, Note_on_c, 12, 59, 113
13, 17520, Note_on_c, 12, 79, 108
13, 17522, Note_on_c, 12, 31, 108
13, 17564, Note_off_c, 12, 59, 56
13, 17579, Note_on_c, 12, 59, 113
13, 17624, Note_off_c, 12, 59, 56
13, 17640, Note_on_c, 12, 59, 113
13, 17685, Note_off_c, 12, 59, 56
13, 17685, Note_off_c, 12, 31, 64
13, 17700, Note_on_c, 12, 59, 113
13, 17745, Note_off_c, 12, 59, 56
13, 17759, Note_on_c, 12, 60, 113
13, 17804, Note_off_c, 12, 60, 56
13, 17822, Note_on_c, 12, 60, 113
13, 17867, Note_off_c, 12, 60, 56
13, 17879, Note_on_c, 12, 60, 113
13, 17904, Note_off_c, 12, 79, 64
13, 17924, Note_off_c, 12, 60, 56
13, 17939, Note_on_c, 12, 60, 113
13, 17984, Note_off_c, 12, 60, 56
13, 18000, Note_on_c, 12, 81, 113
13, 18000, Note_on_c, 12, 60, 113
13, 18045, Note_off_c, 12, 60, 56
13, 18054, Note_off_c, 12, 81, 56
13, 18060, Note_on_c, 12, 79, 113
13, 18060, Note_on_c, 12, 60, 113
13, 18105, Note_off_c, 12, 60, 56
13, 18114, Note_off_c, 12, 79, 56
13, 18118, Note_on_c, 12, 77, 113
13, 18119, Note_on_c, 12, 60, 113
13, 18164, Note_off_c, 12, 60, 56
13, 18172, Note_off_c, 12, 77, 56
13, 18179, Note_on_c, 12, 60, 113
13, 18181, Note_on_c, 12, 76, 113
13, 18224, Note_off_c, 12, 60, 56
13, 18235, Note_off_c, 12, 76, 56
13, 18242, Note_on_c, 12, 59, 113
13, 18242, Note_on_c, 12, 74, 108
13, 18287, Note_off_c, 12, 59, 56
13, 18298, Note_on_c, 12, 59, 113
13, 18333, Note_off_c, 12, 74, 56
13, 18343, Note_off_c, 12, 59, 56
13, 18361, Note_on_c, 12, 31, 108
13, 18362, Note_on_c, 12, 60, 113
13, 18407, Note_off_c, 12, 60, 56
13, 18419, Note_on_c, 12, 79, 113
13, 18420, Note_on_c, 12, 60, 113
13, 18442, Note_off_c, 12, 31, 56
13, 18464, Note_off_c, 12, 79, 56
13, 18465, Note_off_c, 12, 60, 56
13, 18478, Note_on_c, 12, 60, 113
13, 18479, Note_on_c, 12, 31, 108
13, 18481, Note_on_c, 12, 81, 113
13, 18523, Note_off_c, 12, 60, 56
13, 18535, Note_off_c, 12, 81, 56
13, 18540, Note_on_c, 12, 60, 113
13, 18542, Note_on_c, 12, 79, 113
13, 18585, Note_off_c, 12, 60, 56
13, 18596, Note_off_c, 12, 79, 56
13, 18602, Note_on_c, 12, 77, 113
13, 18602, Note_on_c, 12, 60, 113
13, 18642, Note_off_c, 12, 31, 64
13, 18647, Note_off_c, 12, 60, 56
13, 18656, Note_off_c, 12, 77, 56
13, 18660, Note_on_c, 12, 76, 113
13, 18660, Note_on_c, 12, 60, 113
13, 18705, Note_off_c, 12, 60, 56
13, 18714, Note_off_c, 12, 76, 56
13, 18720, Note_on_c, 12, 74, 108
13, 18722, Note_on_c, 12, 59, 113
13, 18767, Note_off_c, 12, 59, 56
13, 18781, Note_on_c, 12, 59, 113
13, 18826, Note_off_c, 12, 59, 56
13, 18828, Note_off_c, 12, 74, 56
13, 18839, Note_on_c, 12, 31, 108
13, 18840, Note_on_c, 12, 60, 113
13, 18885, Note_off_c, 12, 60, 56
13, 18899, Note_on_c, 12, 79, 113
13, 18901, Note_on_c, 12, 60, 113
13, 18920, Note_off_c, 12, 31, 56
13, 18944, Note_off_c, 12, 79, 56
13, 18946, Note_off_c, 12, 60, 56
13, 18958, Note_on_c, 12, 60, 113
13, 18960, Note_on_c, 12, 81, 113
13, 18960, Note_on_c, 12, 31, 108
13, 19003, Note_off_c, 12, 60, 56
13, 19014, Note_off_c, 12, 81, 56
13, 19018, Note_on_c, 12, 60, 113
13, 19021, Note_on_c, 12, 79, 113
13, 19063, Note_off_c, 12, 60, 56
13, 19075, Note_off_c, 12, 79, 56
13, 19081, Note_on_c, 12, 77, 113
13, 19081, Note_on_c, 12, 60, 113
13, 19123, Note_off_c, 12, 31, 64
13, 19126, Note_off_c, 12, 60, 56
13, 19135, Note_off_c, 12, 77, 56
13, 19140, Note_on_c, 12, 60, 113
13, 19142, Note_on_c, 12, 76, 113
13, 19185, Note_off_c, 12, 60, 56
13, 19196, Note_off_c, 12, 76, 56
13, 19199, Note_on_c, 12, 59, 113
13, 19199, Note_on_c, 12, 74, 108
13, 19244, Note_off_c, 12, 59, 56
13, 19258, Note_on_c, 12, 59, 113
13, 19290, Note_off_c, 12, 74, 56
13, 19303, Note_off_c, 12, 59, 56
13, 19319, Note_on_c, 12, 31, 108
13, 19322, Note_on_c, 12, 60, 113
13, 19367, Note_off_c, 12, 60, 56
13, 19378, Note_on_c, 12, 60, 113
13, 19379, Note_on_c, 12, 79, 113
13, 19400, Note_off_c, 12, 31, 56
13, 19423, Note_off_c, 12, 60, 56
13, 19424, Note_off_c, 12, 79, 56
13, 19438, Note_on_c, 12, 81, 113
13, 19439, Note_on_c, 12, 60, 113
13, 19439, Note_on_c, 12, 31, 108
13, 19484, Note_off_c, 12, 60, 56
13, 19492, Note_off_c, 12, 81, 56
13, 19498, Note_on_c, 12, 79, 113
13, 19502, Note_on_c, 12, 60, 113
13, 19547, Note_off_c, 12, 60, 56
13, 19552, Note_off_c, 12, 79, 56
13, 19558, Note_on_c, 12, 77, 113
13, 19561, Note_on_c, 12, 60, 113
13, 19602, Note_off_c, 12, 31, 64
13, 19606, Note_off_c, 12, 60, 56
13, 19612, Note_off_c, 12, 77, 56
13, 19621, Note_on_c, 12, 60, 113
13, 19622, Note_on_c, 12, 76, 113
13, 19666, Note_off_c, 12, 60, 56
13, 19676, Note_off_c, 12, 76, 56
13, 19679, Note_on_c, 12, 74, 108
13, 19681, Note_on_c, 12, 59, 113
13, 19726, Note_off_c, 12, 59, 56
13, 19742, Note_on_c, 12, 59, 113
13, 19787, Note_off_c, 12, 59, 56
13, 19787, Note_off_c, 12, 74, 56
13, 19800, Note_on_c, 12, 60, 113
13, 19801, Note_on_c, 12, 31, 108
13, 19845, Note_off_c, 12, 60, 56
13, 19859, Note_on_c, 12, 79, 113
13, 19862, Note_on_c, 12, 60, 113
13, 19882, Note_off_c, 12, 31, 56
13, 19904, Note_off_c, 12, 79, 56
13, 19907, Note_off_c, 12, 60, 56
13, 19918, Note_on_c, 12, 31, 108
13, 19919, Note_on_c, 12, 81, 113
13, 19921, Note_on_c, 12, 60, 113
13, 19966, Note_off_c, 12, 60, 56
13, 19973, Note_off_c, 12, 81, 56
13, 19978, Note_on_c, 12, 60, 113
13, 19980, Note_on_c, 12, 79, 113
13, 20023, Note_off_c, 12, 60, 56
13, 20034, Note_off_c, 12, 79, 56
13, 20039, Note_on_c, 12, 77, 113
13, 20041, Note_on_c, 12, 60, 113
13, 20081, Note_off_c, 12, 31, 64
13, 20086, Note_off_c, 12, 60, 56
13, 20093, Note_off_c, 12, 77, 56
13, 20098, Note_on_c, 12, 60, 113
13, 20101, Note_on_c, 12, 76, 113
13, 20143, Note_off_c, 12, 60, 56
13, 20155, Note_off_c, 12, 76, 56
13, 20158, Note_on_c, 12, 74, 108
13, 20159, Note_on_c, 12, 59, 108
13, 20161, Note_on_c, 12, 31, 108
13, 20226, Note_off_c, 12, 74, 56
13, 20227, Note_off_c, 12, 59, 56
13, 20278, Note_on_c, 12, 67, 108
13, 20280, Note_on_c, 12, 79, 108
13, 20324, Note_off_c, 12, 31, 64
13, 20369, Note_off_c, 12, 67, 56
13, 20388, Note_off_c, 12, 79, 56
13, 20399, Note_on_c, 12, 77, 108
13, 20400, Note_on_c, 12, 65, 108
13, 20490, Note_off_c, 12, 77, 56
13, 20491, Note_off_c, 12, 65, 56
13, 20520, Note_on_c, 12, 64, 108
13, 20522, Note_on_c, 12, 76, 108
13, 20588, Note_off_c, 12, 64, 56
13, 20590, Note_off_c, 12, 76, 56
13, 20640, Note_on_c, 12, 74, 108
13, 20641, Note_on_c, 12, 62, 108
13, 20708, Note_off_c, 12, 74, 56
13, 20709, Note_off_c, 12, 62, 56
13, 20759, Note_on_c, 12, 76, 108
13, 20761, Note_on_c, 12, 64, 108
13, 20852, Note_off_c, 12, 64, 56
13, 20867, Note_off_c, 12, 76, 56
13, 20878, Note_on_c, 12, 74, 108
13, 20881, Note_on_c, 12, 62, 108
13, 20969, Note_off_c, 12, 74, 56
13, 20972, Note_off_c, 12, 62, 56
13, 20998, Note_on_c, 12, 72, 108
13, 21001, Note_on_c, 12, 60, 108
13, 21066, Note_off_c, 12, 72, 56
13, 21069, Note_off_c, 12, 60, 56
13, 21120, Note_on_c, 12, 59, 108
13, 21121, Note_on_c, 12, 71, 108
13, 21188, Note_off_c, 12, 59, 56
13, 21189, Note_off_c, 12, 71, 56
13, 21238, Note_on_c, 12, 64, 108
13, 21240, Note_on_c, 12, 76, 108
13, 21329, Note_off_c, 12, 64, 56
13, 21348, Note_off_c, 12, 76, 56
13, 21360, Note_on_c, 12, 74, 108
13, 21360, Note_on_c, 12, 62, 108
13, 21451, Note_off_c, 12, 62, 56
13, 21451, Note_off_c, 12, 74, 56
13, 21478, Note_on_c, 12, 60, 108
13, 21482, Note_on_c, 12, 72, 108
13, 21546, Note_off_c, 12, 60, 56
13, 21550, Note_off_c, 12, 72, 56
13, 21598, Note_on_c, 12, 59, 108
13, 21599, Note_on_c, 12, 71, 108
13, 21666, Note_off_c, 12, 59, 56
13, 21667, Note_off_c, 12, 71, 56
13, 21718, Note_on_c, 12, 72, 108
13, 21721, Note_on_c, 12, 60, 108
13, 21812, Note_off_c, 12, 60, 56
13, 21826, Note_off_c, 12, 72, 56
13, 21838, Note_on_c, 12, 59, 108
13, 21840, Note_on_c, 12, 71, 108
13, 21929, Note_off_c, 12, 59, 56
13, 21931, Note_off_c, 12, 71, 56
13, 21958, Note_on_c, 12, 69, 108
13, 21962, Note_on_c, 12, 57, 108
13, 22026, Note_off_c, 12, 69, 56
13, 22053, Note_off_c, 12, 57, 56
13, 22078, Note_on_c, 12, 67, 108
13, 22081, Note_on_c, 12, 55, 108
13, 22146, Note_off_c, 12, 67, 56
13, 22149, Note_off_c, 12, 55, 56
13, 22199, Note_on_c, 12, 72, 108
13, 22202, Note_on_c, 12, 60, 108
13, 22293, Note_off_c, 12, 60, 56
13, 22307, Note_off_c, 12, 72, 56
13, 22318, Note_on_c, 12, 59, 108
13, 22322, Note_on_c, 12, 71, 108
13, 22409, Note_off_c, 12, 59, 56
13, 22413, Note_off_c, 12, 71, 56
13, 22438, Note_on_c, 12, 69, 108
13, 22441, Note_on_c, 12, 57, 108
13, 22506, Note_off_c, 12, 69, 56
13, 22509, Note_off_c, 12, 57, 56
13, 22560, Note_on_c, 12, 67, 108
13, 22562, Note_on_c, 12, 55, 108
13, 22628, Note_off_c, 12, 67, 56
13, 22630, Note_off_c, 12, 55, 56
13, 22678, Note_on_c, 12, 60, 108
13, 22682, Note_on_c, 12, 72, 108
13, 22769, Note_off_c, 12, 60, 56
13, 22790, Note_off_c, 12, 72, 56
13, 22799, Note_on_c, 12, 59, 108
13, 22801, Note_on_c, 12, 71, 108
13, 22890, Note_off_c, 12, 59, 56
13, 22892, Note_off_c, 12, 71, 56
13, 22918, Note_on_c, 12, 69, 108
13, 22922, Note_on_c, 12, 57, 108
13, 22986, Note_off_c, 12, 69, 56
13, 22990, Note_off_c, 12, 57, 56
13, 23040, Note_on_c, 12, 67, 108
13, 23041, Note_on_c, 12, 55, 108
13, 23108, Note_off_c, 12, 67, 56
13, 23132, Note_off_c, 12, 55, 56
13, 23160, Note_on_c, 12, 60, 108
13, 23160, Note_on_c, 12, 48, 108
13, 23162, Note_on_c, 12, 72, 108
13, 23241, Note_off_c, 12, 48, 56
13, 23251, Note_off_c, 12, 60, 56
13, 23270, Note_off_c, 12, 72, 56
13, 23279, Note_on_c, 12, 71, 108
13, 23279, Note_on_c, 12, 59, 108
13, 23281, Note_on_c, 12, 47, 108
13, 23362, Note_off_c, 12, 47, 56
13, 23370, Note_off_c, 12, 59, 56
13, 23370, Note_off_c, 12, 71, 56
13, 23400, Note_on_c, 12, 69, 108
13, 23400, Note_on_c, 12, 45, 108
13, 23400, Note_on_c, 12, 57, 108
13, 23481, Note_off_c, 12, 45, 56
13, 23491, Note_off_c, 12, 57, 56
13, 23491, Note_off_c, 12, 69, 56
13, 23519, Note_on_c, 12, 55, 108
13, 23519, Note_on_c, 12, 43, 108
13, 23522, Note_on_c, 12, 67, 108
13, 23580, Note_off_c, 12, 43, 56
13, 23587, Note_off_c, 12, 55, 56
13, 23590, Note_off_c, 12, 67, 56
13, 23638, Note_on_c, 12, 53, 108
13, 23641, Note_on_c, 12, 65, 108
13, 23641, Note_on_c, 12, 41, 108
13, 23702, Note_off_c, 12, 41, 56
13, 23706, Note_off_c, 12, 53, 56
13, 23709, Note_off_c, 12, 65, 56
13, 23759, Note_on_c, 12, 64, 108
13, 23759, Note_on_c, 12, 40, 108
13, 23762, Note_on_c, 12, 52, 108
13, 23820, Note_off_c, 12, 40, 56
13, 23827, Note_off_c, 12, 64, 56
13, 23830, Note_off_c, 12, 52, 56
13, 23878, Note_on_c, 12, 62, 108
13, 23880, Note_on_c, 12, 50, 108
13, 23880, Note_on_c, 12, 38, 108
13, 23941, Note_off_c, 12, 38, 56
13, 23946, Note_off_c, 12, 62, 56
13, 23948, Note_off_c, 12, 50, 56
13, 24000, Note_on_c, 12, 36, 108
13, 24001, Note_on_c, 12, 48, 113
13, 24001, Note_on_c, 12, 60, 108
13, 24046, Note_off_c, 12, 48, 56
13, 24060, Note_on_c, 12, 55, 113
13, 24062, Note_on_c, 12, 52, 113
13, 24105, Note_off_c, 12, 55, 56
13, 24107, Note_off_c, 12, 52, 56
13, 24119, Note_on_c, 12, 55, 113
13, 24120, Note_on_c, 12, 52, 113
13, 24163, Note_off_c, 12, 36, 64
13, 24164, Note_off_c, 12, 55, 56
13, 24165, Note_off_c, 12, 52, 56
13, 24178, Note_on_c, 12, 55, 113
13, 24182, Note_on_c, 12, 52, 113
13, 24183, Note_off_c, 12, 60, 64
13, 24223, Note_off_c, 12, 55, 56
13, 24227, Note_off_c, 12, 52, 56
13, 24240, Note_on_c, 12, 55, 113
13, 24241, Note_on_c, 12, 52, 113
13, 24285, Note_off_c, 12, 55, 56
13, 24286, Note_off_c, 12, 52, 56
13, 24298, Note_on_c, 12, 55, 113
13, 24302, Note_on_c, 12, 52, 113
13, 24343, Note_off_c, 12, 55, 56
13, 24347, Note_off_c, 12, 52, 56
13, 24359, Note_on_c, 12, 55, 113
13, 24361, Note_on_c, 12, 52, 113
13, 24404, Note_off_c, 12, 55, 56
13, 24406, Note_off_c, 12, 52, 56
13, 24418, Note_on_c, 12, 55, 113
13, 24420, Note_on_c, 12, 52, 113
13, 24463, Note_off_c, 12, 55, 56
13, 24465, Note_off_c, 12, 52, 56
13, 24480, Note_on_c, 12, 55, 113
13, 24482, Note_on_c, 12, 52, 113
13, 24525, Note_off_c, 12, 55, 56
13, 24527, Note_off_c, 12, 52, 56
13, 24539, Note_on_c, 12, 52, 113
13, 24541, Note_on_c, 12, 55, 113
13, 24584, Note_off_c, 12, 52, 56
13, 24586, Note_off_c, 12, 55, 56
13, 24599, Note_on_c, 12, 52, 113
13, 24601, Note_on_c, 12, 55, 113
13, 24644, Note_off_c, 12, 52, 56
13, 24646, Note_off_c, 12, 55, 56
13, 24658, Note_on_c, 12, 55, 113
13, 24661, Note_on_c, 12, 52, 113
13, 24703, Note_off_c, 12, 55, 56
13, 24706, Note_off_c, 12, 52, 56
13, 24719, Note_on_c, 12, 52, 113
13, 24722, Note_on_c, 12, 55, 113
13, 24764, Note_off_c, 12, 52, 56
13, 24767, Note_off_c, 12, 55, 56
13, 24778, Note_on_c, 12, 52, 113
13, 24782, Note_on_c, 12, 55, 113
13, 24823, Note_off_c, 12, 52, 56
13, 24827, Note_off_c, 12, 55, 56
13, 24840, Note_on_c, 12, 52, 113
13, 24842, Note_on_c, 12, 55, 113
13, 24885, Note_off_c, 12, 52, 56
13, 24887, Note_off_c, 12, 55, 56
13, 24899, Note_on_c, 12, 52, 113
13, 24901, Note_on_c, 12, 55, 113
13, 24944, Note_off_c, 12, 52, 56
13, 24946, Note_off_c, 12, 55, 56
13, 24961, Note_on_c, 12, 52, 113
13, 24962, Note_on_c, 12, 55, 113
13, 25006, Note_off_c, 12, 52, 56
13, 25007, Note_off_c, 12, 55, 56
13, 25018, Note_on_c, 12, 52, 113
13, 25020, Note_on_c, 12, 55, 113
13, 25063, Note_off_c, 12, 52, 56
13, 25065, Note_off_c, 12, 55, 56
13, 25078, Note_on_c, 12, 52, 113
13, 25078, Note_on_c, 12, 55, 113
13, 25123, Note_off_c, 12, 55, 56
13, 25123, Note_off_c, 12, 52, 56
13, 25141, Note_on_c, 12, 52, 113
13, 25142, Note_on_c, 12, 55, 113
13, 25186, Note_off_c, 12, 52, 56
13, 25187, Note_off_c, 12, 55, 56
13, 25200, Note_on_c, 12, 55, 113
13, 25201, Note_on_c, 12, 52, 113
13, 25245, Note_off_c, 12, 55, 56
13, 25246, Note_off_c, 12, 52, 56
13, 25260, Note_on_c, 12, 52, 113
13, 25262, Note_on_c, 12, 55, 113
13, 25305, Note_off_c, 12, 52, 56
13, 25307, Note_off_c, 12, 55, 56
13, 25319, Note_on_c, 12, 52, 113
13, 25321, Note_on_c, 12, 55, 113
13, 25364, Note_off_c, 12, 52, 56
13, 25366, Note_off_c, 12, 55, 56
13, 25381, Note_on_c, 12, 52, 113
13, 25382, Note_on_c, 12, 55, 113
13, 25426, Note_off_c, 12, 52, 56
13, 25427, Note_off_c, 12, 55, 56
13, 25438, Note_on_c, 12, 52, 113
13, 25438, Note_on_c, 12, 55, 113
13, 25483, Note_off_c, 12, 55, 56
13, 25483, Note_off_c, 12, 52, 56
13, 25499, Note_on_c, 12, 55, 113
13, 25500, Note_on_c, 12, 52, 113
13, 25544, Note_off_c, 12, 55, 56
13, 25545, Note_off_c, 12, 52, 56
13, 25561, Note_on_c, 12, 52, 113
13, 25562, Note_on_c, 12, 55, 113
13, 25606, Note_off_c, 12, 52, 56
13, 25607, Note_off_c, 12, 55, 56
13, 25620, Note_on_c, 12, 55, 113
13, 25622, Note_on_c, 12, 52, 113
13, 25665, Note_off_c, 12, 55, 56
13, 25667, Note_off_c, 12, 52, 56
13, 25678, Note_on_c, 12, 52, 113
13, 25682, Note_on_c, 12, 55, 113
13, 25723, Note_off_c, 12, 52, 56
13, 25727, Note_off_c, 12, 55, 56
13, 25738, Note_on_c, 12, 55, 113
13, 25742, Note_on_c, 12, 52, 113
13, 25783, Note_off_c, 12, 55, 56
13, 25787, Note_off_c, 12, 52, 56
13, 25798, Note_on_c, 12, 55, 113
13, 25798, Note_on_c, 12, 52, 113
13, 25843, Note_off_c, 12, 52, 56
13, 25843, Note_off_c, 12, 55, 56
13, 25861, Note_on_c, 12, 52, 113
13, 25861, Note_on_c, 12, 55, 113
13, 25906, Note_off_c, 12, 55, 56
13, 25906, Note_off_c, 12, 52, 56
13, 25918, Note_on_c, 12, 55, 108
13, 25919, Note_on_c, 12, 53, 113
13, 25921, Note_on_c, 12, 71, 108
13, 25923, Note_on_c, 12, 31, 108
13, 25964, Note_off_c, 12, 53, 56
13, 25980, Note_on_c, 12, 55, 113
13, 25980, Note_on_c, 12, 53, 113
13, 26025, Note_off_c, 12, 53, 56
13, 26025, Note_off_c, 12, 55, 56
13, 26040, Note_on_c, 12, 55, 113
13, 26040, Note_on_c, 12, 53, 113
13, 26085, Note_off_c, 12, 53, 56
13, 26085, Note_off_c, 12, 55, 56
13, 26098, Note_on_c, 12, 53, 113
13, 26100, Note_off_c, 12, 55, 64
13, 26101, Note_on_c, 12, 55, 113
13, 26103, Note_off_c, 12, 71, 64
13, 26143, Note_off_c, 12, 53, 56
13, 26146, Note_off_c, 12, 55, 56
13, 26159, Note_on_c, 12, 53, 113
13, 26161, Note_on_c, 12, 55, 113
13, 26204, Note_off_c, 12, 53, 56
13, 26206, Note_off_c, 12, 55, 56
13, 26220, Note_on_c, 12, 53, 113
13, 26221, Note_on_c, 12, 55, 113
13, 26265, Note_off_c, 12, 53, 56
13, 26266, Note_off_c, 12, 55, 56
13, 26278, Note_on_c, 12, 55, 113
13, 26282, Note_on_c, 12, 53, 113
13, 26323, Note_off_c, 12, 55, 56
13, 26327, Note_off_c, 12, 53, 56
13, 26338, Note_on_c, 12, 53, 113
13, 26338, Note_on_c, 12, 55, 113
13, 26383, Note_off_c, 12, 55, 56
13, 26383, Note_off_c, 12, 53, 56
13, 26400, Note_on_c, 12, 55, 113
13, 26401, Note_on_c, 12, 53, 113
13, 26401, Note_on_c, 12, 71, 108
13, 26441, Note_off_c, 12, 31, 64
13, 26445, Note_off_c, 12, 55, 56
13, 26446, Note_off_c, 12, 53, 56
13, 26461, Note_on_c, 12, 55, 113
13, 26461, Note_on_c, 12, 53, 113
13, 26506, Note_off_c, 12, 53, 56
13, 26506, Note_off_c, 12, 55, 56
13, 26519, Note_on_c, 12, 31, 108
13, 26520, Note_on_c, 12, 55, 113
13, 26522, Note_on_c, 12, 53, 113
13, 26565, Note_off_c, 12, 55, 56
13, 26567, Note_off_c, 12, 53, 56
13, 26581, Note_on_c, 12, 53, 113
13, 26582, Note_on_c, 12, 55, 113
13, 26583, Note_off_c, 12, 71, 64
13, 26600, Note_off_c, 12, 31, 56
13, 26626, Note_off_c, 12, 53, 56
13, 26627, Note_off_c, 12, 55, 56
13, 26639, Note_on_c, 12, 53, 113
13, 26639, Note_on_c, 12, 35, 108
13, 26641, Note_on_c, 12, 55, 113
13, 26684, Note_off_c, 12, 53, 56
13, 26686, Note_off_c, 12, 55, 56
13, 26700, Note_off_c, 12, 35, 56
13, 26700, Note_on_c, 12, 53, 113
13, 26701, Note_on_c, 12, 55, 113
13, 26745, Note_off_c, 12, 53, 56
13, 26746, Note_off_c, 12, 55, 56
13, 26758, Note_on_c, 12, 53, 113
13, 26759, Note_on_c, 12, 55, 113
13, 26760, Note_on_c, 12, 38, 108
13, 26803, Note_off_c, 12, 53, 56
13, 26804, Note_off_c, 12, 55, 56
13, 26821, Note_off_c, 12, 38, 56
13, 26821, Note_on_c, 12, 55, 113
13, 26822, Note_on_c, 12, 53, 113
13, 26866, Note_off_c, 12, 55, 56
13, 26867, Note_off_c, 12, 53, 56
13, 26878, Note_on_c, 12, 53, 113
13, 26879, Note_on_c, 12, 55, 113
13, 26881, Note_on_c, 12, 71, 108
13, 26881, Note_on_c, 12, 41, 108
13, 26923, Note_off_c, 12, 53, 56
13, 26924, Note_off_c, 12, 55, 56
13, 26941, Note_on_c, 12, 55, 113
13, 26942, Note_off_c, 12, 41, 56
13, 26942, Note_on_c, 12, 53, 113
13, 26986, Note_off_c, 12, 55, 56
13, 26987, Note_off_c, 12, 53, 56
13, 26998, Note_on_c, 12, 53, 113
13, 26998, Note_on_c, 12, 55, 113
13, 26999, Note_on_c, 12, 43, 108
13, 27043, Note_off_c, 12, 55, 56
13, 27043, Note_off_c, 12, 53, 56
13, 27060, Note_off_c, 12, 43, 56
13, 27060, Note_on_c, 12, 55, 113
13, 27061, Note_on_c, 12, 53, 113
13, 27063, Note_off_c, 12, 71, 64
13, 27105, Note_off_c, 12, 55, 56
13, 27106, Note_off_c, 12, 53, 56
13, 27119, Note_on_c, 12, 55, 113
13, 27121, Note_on_c, 12, 53, 113
13, 27121, Note_on_c, 12, 47, 108
13, 27164, Note_off_c, 12, 55, 56
13, 27166, Note_off_c, 12, 53, 56
13, 27178, Note_on_c, 12, 55, 113
13, 27179, Note_on_c, 12, 53, 113
13, 27182, Note_off_c, 12, 47, 56
13, 27223, Note_off_c, 12, 55, 56
13, 27224, Note_off_c, 12, 53, 56
13, 27238, Note_on_c, 12, 55, 113
13, 27239, Note_on_c, 12, 50, 108
13, 27241, Note_on_c, 12, 53, 113
13, 27283, Note_off_c, 12, 55, 56
13, 27286, Note_off_c, 12, 53, 56
13, 27301, Note_on_c, 12, 53, 113
13, 27302, Note_on_c, 12, 55, 113
13, 27320, Note_off_c, 12, 50, 56
13, 27346, Note_off_c, 12, 53, 56
13, 27347, Note_off_c, 12, 55, 56
13, 27361, Note_on_c, 12, 71, 108
13, 27361, Note_on_c, 12, 53, 113
13, 27362, Note_on_c, 12, 55, 108
13, 27406, Note_off_c, 12, 53, 56
13, 27420, Note_on_c, 12, 55, 113
13, 27422, Note_on_c, 12, 53, 113
13, 27465, Note_off_c, 12, 55, 56
13, 27467, Note_off_c, 12, 53, 56
13, 27479, Note_on_c, 12, 53, 113
13, 27482, Note_on_c, 12, 55, 113
13, 27524, Note_off_c, 12, 53, 56
13, 27527, Note_off_c, 12, 55, 56
13, 27538, Note_on_c, 12, 53, 113
13, 27541, Note_on_c, 12, 55, 113
13, 27543, Note_off_c, 12, 71, 64
13, 27544, Note_off_c, 12, 55, 64
13, 27583, Note_off_c, 12, 53, 56
13, 27586, Note_off_c, 12, 55, 56
13, 27599, Note_on_c, 12, 55, 113
13, 27599, Note_on_c, 12, 53, 113
13, 27644, Note_off_c, 12, 53, 56
13, 27644, Note_off_c, 12, 55, 56
13, 27658, Note_on_c, 12, 53, 113
13, 27658, Note_on_c, 12, 55, 113
13, 27703, Note_off_c, 12, 55, 56
13, 27703, Note_off_c, 12, 53, 56
13, 27719, Note_on_c, 12, 55, 113
13, 27719, Note_on_c, 12, 50, 108
13, 27722, Note_on_c, 12, 53, 113
13, 27764, Note_off_c, 12, 55, 56
13, 27767, Note_off_c, 12, 53, 56
13, 27779, Note_on_c, 12, 55, 113
13, 27782, Note_on_c, 12, 53, 113
13, 27800, Note_off_c, 12, 50, 56
13, 27824, Note_off_c, 12, 55, 56
13, 27827, Note_off_c, 12, 53, 56
13, 27838, Note_on_c, 12, 55, 113
13, 27840, Note_on_c, 12, 74, 108
13, 27840, Note_on_c, 12, 47, 108
13, 27842, Note_on_c, 12, 53, 113
13, 27883, Note_off_c, 12, 55, 56
13, 27887, Note_off_c, 12, 53, 56
13, 27898, Note_on_c, 12, 55, 113
13, 27901, Note_on_c, 12, 53, 113
13, 27921, Note_off_c, 12, 47, 56
13, 27943, Note_off_c, 12, 55, 56
13, 27946, Note_off_c, 12, 53, 56
13, 27959, Note_on_c, 12, 55, 113
13, 27960, Note_on_c, 12, 53, 113
13, 27961, Note_on_c, 12, 50, 108
13, 28004, Note_off_c, 12, 55, 56
13, 28005, Note_off_c, 12, 53, 56
13, 28020, Note_on_c, 12, 53, 113
13, 28021, Note_on_c, 12, 55, 113
13, 28022, Note_off_c, 12, 74, 64
13, 28042, Note_off_c, 12, 50, 56
13, 28065, Note_off_c, 12, 53, 56
13, 28066, Note_off_c, 12, 55, 56
13, 28079, Note_on_c, 12, 53, 113
13, 28079, Note_on_c, 12, 55, 113
13, 28080, Note_on_c, 12, 47, 108
13, 28124, Note_off_c, 12, 55, 56
13, 28124, Note_off_c, 12, 53, 56
13, 28141, Note_on_c, 12, 53, 113
13, 28142, Note_on_c, 12, 55, 113
13, 28161, Note_off_c, 12, 47, 56
13, 28186, Note_off_c, 12, 53, 56
13, 28187, Note_off_c, 12, 55, 56
13, 28198, Note_on_c, 12, 53, 113
13, 28200, Note_on_c, 12, 43, 108
13, 28202, Note_on_c, 12, 55, 113
13, 28243, Note_off_c, 12, 53, 56
13, 28247, Note_off_c, 12, 55, 56
13, 28259, Note_on_c, 12, 55, 113
13, 28260, Note_on_c, 12, 53, 113
13, 28281, Note_off_c, 12, 43, 56
13, 28304, Note_off_c, 12, 55, 56
13, 28305, Note_off_c, 12, 53, 56
13, 28318, Note_on_c, 12, 55, 113
13, 28321, Note_on_c, 12, 53, 113
13, 28321, Note_on_c, 12, 41, 108
13, 28363, Note_off_c, 12, 55, 56
13, 28366, Note_off_c, 12, 53, 56
13, 28378, Note_on_c, 12, 53, 113
13, 28379, Note_on_c, 12, 55, 113
13, 28402, Note_off_c, 12, 41, 56
13, 28423, Note_off_c, 12, 53, 56
13, 28424, Note_off_c, 12, 55, 56
13, 28439, Note_on_c, 12, 53, 113
13, 28439, Note_on_c, 12, 55, 113
13, 28440, Note_on_c, 12, 38, 108
13, 28484, Note_off_c, 12, 55, 56
13, 28484, Note_off_c, 12, 53, 56
13, 28502, Note_on_c, 12, 53, 113
13, 28502, Note_on_c, 12, 55, 113
13, 28521, Note_off_c, 12, 38, 56
13, 28547, Note_off_c, 12, 55, 56
13, 28547, Note_off_c, 12, 53, 56
13, 28559, Note_on_c, 12, 55, 113
13, 28560, Note_on_c, 12, 53, 113
13, 28561, Note_on_c, 12, 35, 108
13, 28604, Note_off_c, 12, 55, 56
13, 28605, Note_off_c, 12, 53, 56
13, 28619, Note_on_c, 12, 53, 113
13, 28621, Note_on_c, 12, 55, 113
13, 28642, Note_off_c, 12, 35, 56
13, 28664, Note_off_c, 12, 53, 56
13, 28666, Note_off_c, 12, 55, 56
13, 28678, Note_on_c, 12, 55, 113
13, 28679, Note_on_c, 12, 38, 108
13, 28680, Note_on_c, 12, 53, 113
13, 28723, Note_off_c, 12, 55, 56
13, 28725, Note_off_c, 12, 53, 56
13, 28738, Note_on_c, 12, 55, 113
13, 28739, Note_on_c, 12, 53, 113
13, 28760, Note_off_c, 12, 38, 56
13, 28783, Note_off_c, 12, 55, 56
13, 28784, Note_off_c, 12, 53, 56
13, 28798, Note_on_c, 12, 55, 113
13, 28799, Note_on_c, 12, 53, 113
13, 28801, Note_on_c, 12, 31, 108
13, 28843, Note_off_c, 12, 55, 56
13, 28844, Note_off_c, 12, 53, 56
13, 28858, Note_on_c, 12, 53, 113
13, 28859, Note_on_c, 12, 55, 113
13, 28903, Note_off_c, 12, 53, 56
13, 28904, Note_off_c, 12, 55, 56
13, 28919, Note_on_c, 12, 55, 113
13, 28920, Note_on_c, 12, 53, 113
13, 28964, Note_off_c, 12, 55, 56
13, 28964, Note_off_c, 12, 31, 64
13, 28965, Note_off_c, 12, 53, 56
13, 28978, Note_on_c, 12, 55, 113
13, 28978, Note_on_c, 12, 53, 113
13, 29023, Note_off_c, 12, 53, 56
13, 29023, Note_off_c, 12, 55, 56
13, 29040, Note_on_c, 12, 53, 113
13, 29042, Note_on_c, 12, 55, 113
13, 29085, Note_off_c, 12, 53, 56
13, 29087, Note_off_c, 12, 55, 56
13, 29101, Note_on_c, 12, 53, 113
13, 29101, Note_on_c, 12, 55, 113
13, 29146, Note_off_c, 12, 55, 56
13, 29146, Note_off_c, 12, 53, 56
13, 29159, Note_on_c, 12, 53, 113
13, 29160, Note_on_c, 12, 55, 113
13, 29204, Note_off_c, 12, 53, 56
13, 29205, Note_off_c, 12, 55, 56
13, 29220, Note_on_c, 12, 55, 113
13, 29221, Note_on_c, 12, 53, 113
13, 29265, Note_off_c, 12, 55, 56
13, 29266, Note_off_c, 12, 53, 56
13, 29281, Note_on_c, 12, 53, 113
13, 29282, Note_on_c, 12, 55, 113
13, 29326, Note_off_c, 12, 53, 56
13, 29327, Note_off_c, 12, 55, 56
13, 29341, Note_on_c, 12, 53, 113
13, 29342, Note_on_c, 12, 55, 113
13, 29386, Note_off_c, 12, 53, 56
13, 29387, Note_off_c, 12, 55, 56
13, 29399, Note_on_c, 12, 55, 113
13, 29401, Note_on_c, 12, 53, 113
13, 29444, Note_off_c, 12, 55, 56
13, 29446, Note_off_c, 12, 53, 56
13, 29461, Note_on_c, 12, 53, 113
13, 29462, Note_on_c, 12, 55, 113
13, 29506, Note_off_c, 12, 53, 56
13, 29507, Note_off_c, 12, 55, 56
13, 29520, Note_on_c, 12, 55, 113
13, 29521, Note_on_c, 12, 53, 113
13, 29565, Note_off_c, 12, 55, 56
13, 29566, Note_off_c, 12, 53, 56
13, 29581, Note_on_c, 12, 55, 113
13, 29582, Note_on_c, 12, 53, 113
13, 29626, Note_off_c, 12, 55, 56
13, 29627, Note_off_c, 12, 53, 56
13, 29638, Note_on_c, 12, 53, 113
13, 29638, Note_on_c, 12, 55, 113
13, 29683, Note_off_c, 12, 55, 56
13, 29683, Note_off_c, 12, 53, 56
13, 29701, Note_on_c, 12, 55, 113
13, 29701, Note_on_c, 12, 53, 113
13, 29746, Note_off_c, 12, 53, 56
13, 29746, Note_off_c, 12, 55, 56
13, 29757, Note_on_c, 12, 36, 108
13, 29758, Note_on_c, 12, 76, 108
13, 29758, Note_on_c, 12, 52, 113
13, 29759, Note_on_c, 12, 55, 113
13, 29762, Note_on_c, 12, 64, 108
13, 29803, Note_off_c, 12, 52, 56
13, 29804, Note_off_c, 12, 55, 56
13, 29819, Note_on_c, 12, 55, 113
13, 29821, Note_on_c, 12, 52, 113
13, 29864, Note_off_c, 12, 55, 56
13, 29866, Note_off_c, 12, 52, 56
13, 29881, Note_on_c, 12, 55, 113
13, 29882, Note_on_c, 12, 52, 113
13, 29926, Note_off_c, 12, 55, 56
13, 29927, Note_off_c, 12, 52, 56
13, 29939, Note_on_c, 12, 52, 113
13, 29940, Note_off_c, 12, 76, 64
13, 29940, Note_on_c, 12, 55, 113
13, 29944, Note_off_c, 12, 64, 64
13, 29984, Note_off_c, 12, 52, 56
13, 29985, Note_off_c, 12, 55, 56
13, 30001, Note_on_c, 12, 52, 113
13, 30002, Note_on_c, 12, 55, 113
13, 30046, Note_off_c, 12, 52, 56
13, 30047, Note_off_c, 12, 55, 56
13, 30060, Note_on_c, 12, 52, 113
13, 30061, Note_on_c, 12, 55, 113
13, 30105, Note_off_c, 12, 52, 56
13, 30106, Note_off_c, 12, 55, 56
13, 30118, Note_on_c, 12, 55, 113
13, 30122, Note_on_c, 12, 52, 113
13, 30163, Note_off_c, 12, 55, 56
13, 30167, Note_off_c, 12, 52, 56
13, 30180, Note_on_c, 12, 52, 113
13, 30181, Note_on_c, 12, 55, 113
13, 30225, Note_off_c, 12, 52, 56
13, 30226, Note_off_c, 12, 55, 56
13, 30239, Note_on_c, 12, 76, 108
13, 30241, Note_on_c, 12, 52, 113
13, 30242, Note_on_c, 12, 64, 108
13, 30242, Note_on_c, 12, 55, 108
13, 30275, Note_off_c, 12, 36, 64
13, 30286, Note_off_c, 12, 52, 56
13, 30301, Note_on_c, 12, 52, 113
13, 30302, Note_on_c, 12, 55, 113
13, 30346, Note_off_c, 12, 52, 56
13, 30347, Note_off_c, 12, 55, 56
13, 30359, Note_on_c, 12, 55, 113
13, 30359, Note_on_c, 12, 36, 108
13, 30361, Note_on_c, 12, 52, 113
13, 30404, Note_off_c, 12, 55, 56
13, 30406, Note_off_c, 12, 52, 56
13, 30418, Note_on_c, 12, 55, 113
13, 30419, Note_on_c, 12, 52, 113
13, 30421, Note_off_c, 12, 76, 64
13, 30424, Note_off_c, 12, 55, 64
13, 30424, Note_off_c, 12, 64, 64
13, 30440, Note_off_c, 12, 36, 56
13, 30463, Note_off_c, 12, 55, 56
13, 30464, Note_off_c, 12, 52, 56
13, 30480, Note_on_c, 12, 55, 113
13, 30481, Note_on_c, 12, 40, 108
13, 30482, Note_on_c, 12, 52, 113
13, 30525, Note_off_c, 12, 55, 56
13, 30527, Note_off_c, 12, 52, 56
13, 30538, Note_on_c, 12, 55, 113
13, 30541, Note_on_c, 12, 52, 113
13, 30562, Note_off_c, 12, 40, 56
13, 30583, Note_off_c, 12, 55, 56
13, 30586, Note_off_c, 12, 52, 56
13, 30601, Note_on_c, 12, 52, 113
13, 30601, Note_on_c, 12, 31, 108
13, 30602, Note_on_c, 12, 55, 113
13, 30646, Note_off_c, 12, 52, 56
13, 30647, Note_off_c, 12, 55, 56
13, 30660, Note_on_c, 12, 55, 113
13, 30661, Note_on_c, 12, 52, 113
13, 30682, Note_off_c, 12, 31, 56
13, 30705, Note_off_c, 12, 55, 56
13, 30706, Note_off_c, 12, 52, 56
13, 30718, Note_on_c, 12, 55, 113
13, 30719, Note_on_c, 12, 52, 113
13, 30720, Note_on_c, 12, 36, 108
13, 30720, Note_on_c, 12, 64, 108
13, 30722, Note_on_c, 12, 76, 108
13, 30763, Note_off_c, 12, 55, 56
13, 30764, Note_off_c, 12, 52, 56
13, 30779, Note_on_c, 12, 55, 113
13, 30781, Note_on_c, 12, 52, 113
13, 30801, Note_off_c, 12, 36, 56
13, 30824, Note_off_c, 12, 55, 56
13, 30826, Note_off_c, 12, 52, 56
13, 30841, Note_on_c, 12, 52, 113
13, 30841, Note_on_c, 12, 40, 108
13, 30842, Note_on_c, 12, 55, 113
13, 30886, Note_off_c, 12, 52, 56
13, 30887, Note_off_c, 12, 55, 56
13, 30898, Note_on_c, 12, 52, 113
13, 30902, Note_off_c, 12, 64, 64
13, 30902, Note_on_c, 12, 55, 113
13, 30904, Note_off_c, 12, 76, 64
13, 30922, Note_off_c, 12, 40, 56
13, 30943, Note_off_c, 12, 52, 56
13, 30947, Note_off_c, 12, 55, 56
13, 30960, Note_on_c, 12, 52, 113
13, 30961, Note_on_c, 12, 43, 108
13, 30962, Note_on_c, 12, 55, 113
13, 31005, Note_off_c, 12, 52, 56
13, 31007, Note_off_c, 12, 55, 56
13, 31018, Note_on_c, 12, 52, 113
13, 31021, Note_on_c, 12, 55, 113
13, 31042, Note_off_c, 12, 43, 56
13, 31063, Note_off_c, 12, 52, 56
13, 31066, Note_off_c, 12, 55, 56
13, 31079, Note_on_c, 12, 55, 113
13, 31079, Note_on_c, 12, 48, 108
13, 31082, Note_on_c, 12, 52, 113
13, 31124, Note_off_c, 12, 55, 56
13, 31127, Note_off_c, 12, 52, 56
13, 31138, Note_on_c, 12, 55, 113
13, 31140, Note_on_c, 12, 52, 113
13, 31160, Note_off_c, 12, 48, 56
13, 31183, Note_off_c, 12, 55, 56
13, 31185, Note_off_c, 12, 52, 56
13, 31198, Note_on_c, 12, 76, 108
13, 31198, Note_on_c, 12, 64, 108
13, 31199, Note_on_c, 12, 52, 108
13, 31202, Note_on_c, 12, 55, 113
13, 31247, Note_off_c, 12, 55, 56
13, 31260, Note_on_c, 12, 55, 113
13, 31261, Note_on_c, 12, 52, 113
13, 31280, Note_off_c, 12, 52, 56
13, 31305, Note_off_c, 12, 55, 56
13, 31306, Note_off_c, 12, 52, 56
13, 31319, Note_on_c, 12, 48, 108
13, 31320, Note_on_c, 12, 55, 113
13, 31322, Note_on_c, 12, 52, 113
13, 31365, Note_off_c, 12, 55, 56
13, 31367, Note_off_c, 12, 52, 56
13, 31378, Note_on_c, 12, 55, 113
13, 31378, Note_on_c, 12, 52, 113
13, 31380, Note_off_c, 12, 64, 64
13, 31380, Note_off_c, 12, 76, 64
13, 31400, Note_off_c, 12, 48, 56
13, 31423, Note_off_c, 12, 52, 56
13, 31423, Note_off_c, 12, 55, 56
13, 31439, Note_on_c, 12, 43, 108
13, 31442, Note_on_c, 12, 55, 113
13, 31442, Note_on_c, 12, 52, 113
13, 31487, Note_off_c, 12, 52, 56
13, 31487, Note_off_c, 12, 55, 56
13, 31498, Note_on_c, 12, 55, 113
13, 31498, Note_on_c, 12, 52, 113
13, 31520, Note_off_c, 12, 43, 56
13, 31543, Note_off_c, 12, 52, 56
13, 31543, Note_off_c, 12, 55, 56
13, 31559, Note_on_c, 12, 52, 113
13, 31559, Note_on_c, 12, 55, 113
13, 31560, Note_on_c, 12, 40, 108
13, 31604, Note_off_c, 12, 55, 56
13, 31604, Note_off_c, 12, 52, 56
13, 31618, Note_on_c, 12, 55, 113
13, 31622, Note_on_c, 12, 52, 113
13, 31641, Note_off_c, 12, 40, 56
13, 31663, Note_off_c, 12, 55, 56
13, 31667, Note_off_c, 12, 52, 56
13, 31678, Note_on_c, 12, 52, 108
13, 31680, Note_on_c, 12, 36, 108
13, 31681, Note_on_c, 12, 64, 108
13, 31681, Note_on_c, 12, 76, 108
13, 31681, Note_on_c, 12, 72, 108
13, 31761, Note_off_c, 12, 36, 56
13, 31799, Note_on_c, 12, 35, 108
13, 31863, Note_off_c, 12, 72, 64
13, 31863, Note_off_c, 12, 64, 64
13, 31880, Note_off_c, 12, 35, 56
13, 31920, Note_on_c, 12, 36, 108
13, 32001, Note_off_c, 12, 36, 56
13, 32041, Note_on_c, 12, 36, 108
13, 32122, Note_off_c, 12, 36, 56
13, 32161, Note_on_c, 12, 36, 108
13, 32257, Note_off_c, 12, 76, 64
13, 32400, Note_on_c, 12, 72, 108
13, 32616, Note_off_c, 12, 72, 64
13, 32640, Note_on_c, 12, 76, 108
13, 32679, Note_off_c, 12, 36, 64
13, 32761, Note_on_c, 12, 35, 74
13, 32842, Note_off_c, 12, 35, 56
13, 32857, Note_off_c, 12, 76, 64
13, 32879, Note_on_c, 12, 72, 108
13, 32881, Note_on_c, 12, 36, 71
13, 32962, Note_off_c, 12, 36, 56
13, 33000, Note_on_c, 12, 36, 71
13, 33022, Note_off_c, 12, 52, 64
13, 33081, Note_off_c, 12, 36, 56
13, 33095, Note_off_c, 12, 72, 64
13, 33118, Note_on_c, 12, 36, 71
13, 33121, Note_on_c, 12, 79, 108
13, 33122, Note_on_c, 12, 52, 108
13, 33304, Note_off_c, 12, 52, 64
13, 33337, Note_off_c, 12, 79, 64
13, 33359, Note_on_c, 12, 78, 108
13, 33361, Note_on_c, 12, 54, 108
13, 33497, Note_off_c, 12, 54, 64
13, 33521, Note_off_c, 12, 78, 64
13, 33538, Note_on_c, 12, 55, 113
13, 33541, Note_on_c, 12, 76, 113
13, 33583, Note_off_c, 12, 55, 56
13, 33586, Note_off_c, 12, 76, 56
13, 33601, Note_on_c, 12, 54, 108
13, 33601, Note_on_c, 12, 78, 108
13, 33636, Note_off_c, 12, 36, 64
13, 33719, Note_on_c, 12, 38, 108
13, 33800, Note_off_c, 12, 38, 56
13, 33839, Note_on_c, 12, 38, 108
13, 33920, Note_off_c, 12, 38, 56
13, 33960, Note_on_c, 12, 38, 108
13, 34177, Note_off_c, 12, 78, 64
13, 34322, Note_on_c, 12, 72, 108
13, 34538, Note_off_c, 12, 72, 64
13, 34561, Note_on_c, 12, 78, 108
13, 34586, Note_off_c, 12, 38, 64
13, 34681, Note_on_c, 12, 37, 108
13, 34762, Note_off_c, 12, 37, 56
13, 34777, Note_off_c, 12, 78, 64
13, 34798, Note_on_c, 12, 72, 108
13, 34800, Note_on_c, 12, 38, 108
13, 34881, Note_off_c, 12, 38, 56
13, 34919, Note_on_c, 12, 38, 108
13, 34945, Note_off_c, 12, 54, 64
13, 35000, Note_off_c, 12, 38, 56
13, 35014, Note_off_c, 12, 72, 64
13, 35037, Note_on_c, 12, 38, 108
13, 35038, Note_on_c, 12, 54, 108
13, 35039, Note_on_c, 12, 81, 108
13, 35220, Note_off_c, 12, 54, 64
13, 35255, Note_off_c, 12, 81, 64
13, 35279, Note_on_c, 12, 79, 108
13, 35282, Note_on_c, 12, 55, 108
13, 35418, Note_off_c, 12, 55, 64
13, 35441, Note_off_c, 12, 79, 64
13, 35460, Note_on_c, 12, 78, 113
13, 35461, Note_on_c, 12, 57, 113
13, 35505, Note_off_c, 12, 78, 56
13, 35506, Note_off_c, 12, 57, 56
13, 35518, Note_on_c, 12, 79, 108
13, 35521, Note_on_c, 12, 59, 108
13, 35555, Note_off_c, 12, 38, 64
13, 35639, Note_on_c, 12, 37, 108
13, 35720, Note_off_c, 12, 37, 56
13, 35734, Note_off_c, 12, 79, 64
13, 35761, Note_on_c, 12, 74, 108
13, 35761, Note_on_c, 12, 38, 108
13, 35842, Note_off_c, 12, 38, 56
13, 35879, Note_on_c, 12, 38, 108
13, 35905, Note_off_c, 12, 59, 64
13, 35960, Note_off_c, 12, 38, 56
13, 35977, Note_off_c, 12, 74, 64
13, 35998, Note_on_c, 12, 55, 108
13, 35999, Note_on_c, 12, 38, 108
13, 35999, Note_on_c, 12, 83, 108
13, 36180, Note_off_c, 12, 55, 64
13, 36215, Note_off_c, 12, 83, 64
13, 36238, Note_on_c, 12, 81, 108
13, 36242, Note_on_c, 12, 57, 108
13, 36378, Note_off_c, 12, 57, 64
13, 36400, Note_off_c, 12, 81, 64
13, 36421, Note_on_c, 12, 59, 113
13, 36422, Note_on_c, 12, 79, 113
13, 36466, Note_off_c, 12, 59, 56
13, 36476, Note_off_c, 12, 79, 56
13, 36479, Note_on_c, 12, 78, 108
13, 36481, Note_on_c, 12, 57, 108
13, 36517, Note_off_c, 12, 38, 64
13, 36720, Note_on_c, 12, 37, 108
13, 36767, Note_off_c, 12, 78, 64
13, 36801, Note_off_c, 12, 37, 56
13, 36838, Note_on_c, 12, 74, 108
13, 36841, Note_on_c, 12, 38, 108
13, 36865, Note_off_c, 12, 57, 64
13, 36922, Note_off_c, 12, 38, 56
13, 36929, Note_off_c, 12, 74, 56
13, 36959, Note_on_c, 12, 81, 108
13, 36960, Note_on_c, 12, 38, 108
13, 36962, Note_on_c, 12, 54, 108
13, 37041, Note_off_c, 12, 38, 56
13, 37079, Note_on_c, 12, 38, 108
13, 37160, Note_off_c, 12, 38, 56
13, 37200, Note_on_c, 12, 37, 108
13, 37250, Note_off_c, 12, 54, 64
13, 37281, Note_off_c, 12, 37, 56
13, 37301, Note_off_c, 12, 81, 64
13, 37319, Note_on_c, 12, 38, 108
13, 37320, Note_on_c, 12, 55, 113
13, 37321, Note_on_c, 12, 79, 113
13, 37365, Note_off_c, 12, 55, 56
13, 37375, Note_off_c, 12, 79, 56
13, 37382, Note_on_c, 12, 78, 113
13, 37382, Note_on_c, 12, 57, 113
13, 37400, Note_off_c, 12, 38, 56
13, 37427, Note_off_c, 12, 57, 56
13, 37436, Note_off_c, 12, 78, 56
13, 37438, Note_on_c, 12, 79, 108
13, 37439, Note_on_c, 12, 59, 108
13, 37440, Note_on_c, 12, 38, 108
13, 37521, Note_off_c, 12, 38, 56
13, 37561, Note_on_c, 12, 37, 108
13, 37642, Note_off_c, 12, 37, 56
13, 37679, Note_on_c, 12, 38, 108
13, 37726, Note_off_c, 12, 79, 64
13, 37760, Note_off_c, 12, 38, 56
13, 37799, Note_on_c, 12, 74, 108
13, 37799, Note_on_c, 12, 38, 108
13, 37823, Note_off_c, 12, 59, 64
13, 37880, Note_off_c, 12, 38, 56
13, 37890, Note_off_c, 12, 74, 56
13, 37919, Note_on_c, 12, 83, 108
13, 37919, Note_on_c, 12, 38, 108
13, 37919, Note_on_c, 12, 55, 108
13, 38000, Note_off_c, 12, 38, 56
13, 38039, Note_on_c, 12, 37, 108
13, 38120, Note_off_c, 12, 37, 56
13, 38161, Note_on_c, 12, 38, 108
13, 38207, Note_off_c, 12, 55, 64
13, 38242, Note_off_c, 12, 38, 56
13, 38261, Note_off_c, 12, 83, 64
13, 38279, Note_on_c, 12, 81, 113
13, 38279, Note_on_c, 12, 57, 113
13, 38281, Note_on_c, 12, 38, 108
13, 38324, Note_off_c, 12, 57, 56
13, 38333, Note_off_c, 12, 81, 56
13, 38339, Note_on_c, 12, 79, 113
13, 38340, Note_on_c, 12, 59, 113
13, 38362, Note_off_c, 12, 38, 56
13, 38384, Note_off_c, 12, 79, 56
13, 38385, Note_off_c, 12, 59, 56
13, 38398, Note_on_c, 12, 86, 108
13, 38401, Note_on_c, 12, 38, 108
13, 38402, Note_on_c, 12, 54, 108
13, 38482, Note_off_c, 12, 38, 56
13, 38493, Note_off_c, 12, 54, 56
13, 38519, Note_on_c, 12, 66, 108
13, 38521, Note_on_c, 12, 50, 108
13, 38602, Note_off_c, 12, 50, 56
13, 38640, Note_on_c, 12, 48, 108
13, 38701, Note_off_c, 12, 66, 64
13, 38721, Note_off_c, 12, 48, 56
13, 38759, Note_on_c, 12, 67, 108
13, 38759, Note_on_c, 12, 47, 108
13, 38820, Note_off_c, 12, 47, 56
13, 38827, Note_off_c, 12, 67, 56
13, 38880, Note_on_c, 12, 69, 108
13, 38881, Note_on_c, 12, 45, 108
13, 38942, Note_off_c, 12, 45, 56
13, 38948, Note_off_c, 12, 69, 56
13, 38974, Note_off_c, 12, 86, 64
13, 38999, Note_on_c, 12, 74, 108
13, 39000, Note_on_c, 12, 47, 108
13, 39002, Note_on_c, 12, 86, 108
13, 39081, Note_off_c, 12, 47, 56
13, 39090, Note_off_c, 12, 74, 56
13, 39110, Note_off_c, 12, 86, 56
13, 39118, Note_on_c, 12, 84, 108
13, 39120, Note_on_c, 12, 45, 108
13, 39122, Note_on_c, 12, 72, 108
13, 39201, Note_off_c, 12, 45, 56
13, 39209, Note_off_c, 12, 84, 56
13, 39213, Note_off_c, 12, 72, 56
13, 39240, Note_on_c, 12, 71, 108
13, 39240, Note_on_c, 12, 43, 108
13, 39241, Note_on_c, 12, 83, 108
13, 39309, Note_off_c, 12, 83, 56
13, 39321, Note_off_c, 12, 43, 56
13, 39331, Note_off_c, 12, 71, 56
13, 39359, Note_on_c, 12, 81, 108
13, 39361, Note_on_c, 12, 42, 108
13, 39362, Note_on_c, 12, 69, 108
13, 39422, Note_off_c, 12, 42, 56
13, 39427, Note_off_c, 12, 81, 56
13, 39430, Note_off_c, 12, 69, 56
13, 39478, Note_on_c, 12, 71, 108
13, 39479, Note_on_c, 12, 43, 108
13, 39480, Note_on_c, 12, 83, 108
13, 39560, Note_off_c, 12, 43, 56
13, 39569, Note_off_c, 12, 71, 56
13, 39588, Note_off_c, 12, 83, 56
13, 39599, Note_on_c, 12, 81, 108
13, 39599, Note_on_c, 12, 42, 108
13, 39601, Note_on_c, 12, 69, 108
13, 39680, Note_off_c, 12, 42, 56
13, 39690, Note_off_c, 12, 81, 56
13, 39692, Note_off_c, 12, 69, 56
13, 39719, Note_on_c, 12, 67, 108
13, 39721, Note_on_c, 12, 79, 108
13, 39721, Note_on_c, 12, 40, 108
13, 39782, Note_off_c, 12, 40, 56
13, 39787, Note_off_c, 12, 67, 56
13, 39789, Note_off_c, 12, 79, 56
13, 39839, Note_on_c, 12, 38, 108
13, 39840, Note_on_c, 12, 78, 108
13, 39841, Note_on_c, 12, 62, 108
13, 39900, Note_off_c, 12, 38, 56
13, 39908, Note_off_c, 12, 78, 56
13, 39909, Note_off_c, 12, 62, 56
13, 39959, Note_on_c, 12, 38, 108
13, 39960, Note_on_c, 12, 74, 108
13, 39960, Note_on_c, 12, 62, 108
13, 40040, Note_off_c, 12, 38, 56
13, 40051, Note_off_c, 12, 62, 56
13, 40068, Note_off_c, 12, 74, 56
13, 40079, Note_on_c, 12, 64, 108
13, 40080, Note_on_c, 12, 73, 108
13, 40081, Note_on_c, 12, 40, 108
13, 40162, Note_off_c, 12, 40, 56
13, 40170, Note_off_c, 12, 64, 56
13, 40188, Note_off_c, 12, 73, 56
13, 40198, Note_on_c, 12, 79, 108
13, 40199, Note_on_c, 12, 57, 108
13, 40200, Note_on_c, 12, 33, 108
13, 40261, Note_off_c, 12, 33, 56
13, 40266, Note_off_c, 12, 79, 56
13, 40267, Note_off_c, 12, 57, 56
13, 40321, Note_on_c, 12, 38, 108
13, 40322, Note_on_c, 12, 62, 108
13, 40322, Note_on_c, 12, 78, 108
13, 40402, Note_off_c, 12, 38, 56
13, 40413, Note_off_c, 12, 78, 56
13, 40413, Note_off_c, 12, 62, 56
13, 40919, Note_on_c, 12, 62, 108
13, 40922, Note_on_c, 12, 50, 108
13, 41013, Note_off_c, 12, 50, 56
13, 41027, Note_off_c, 12, 62, 56
13, 41038, Note_on_c, 12, 49, 108
13, 41041, Note_on_c, 12, 61, 108
13, 41129, Note_off_c, 12, 49, 56
13, 41149, Note_off_c, 12, 61, 56
13, 41159, Note_on_c, 12, 55, 108
13, 41160, Note_on_c, 12, 67, 108
13, 41250, Note_off_c, 12, 55, 56
13, 41251, Note_off_c, 12, 67, 56
13, 41278, Note_on_c, 12, 54, 108
13, 41282, Note_on_c, 12, 66, 108
13, 41369, Note_off_c, 12, 54, 56
13, 41373, Note_off_c, 12, 66, 56
13, 41399, Note_on_c, 12, 38, 108
13, 41480, Note_off_c, 12, 38, 56
13, 41519, Note_on_c, 12, 36, 108
13, 41600, Note_off_c, 12, 36, 56
13, 41641, Note_on_c, 12, 45, 108
13, 41702, Note_off_c, 12, 45, 56
13, 41760, Note_on_c, 12, 36, 108
13, 41841, Note_off_c, 12, 36, 56
13, 41881, Note_on_c, 12, 35, 108
13, 41962, Note_off_c, 12, 35, 56
13, 41999, Note_on_c, 12, 33, 108
13, 42001, Note_on_c, 12, 69, 108
13, 42001, Note_on_c, 12, 54, 113
13, 42061, Note_off_c, 12, 54, 56
13, 42073, Note_off_c, 12, 69, 56
13, 42074, Note_on_c, 12, 71, 108
13, 42075, Note_on_c, 12, 55, 113
13, 42080, Note_off_c, 12, 33, 56
13, 42119, Note_on_c, 12, 42, 108
13, 42135, Note_off_c, 12, 55, 56
13, 42146, Note_off_c, 12, 71, 56
13, 42149, Note_on_c, 12, 57, 113
13, 42152, Note_on_c, 12, 72, 113
13, 42200, Note_off_c, 12, 42, 56
13, 42209, Note_off_c, 12, 57, 56
13, 42212, Note_off_c, 12, 72, 56
13, 42241, Note_on_c, 12, 59, 113
13, 42242, Note_on_c, 12, 74, 108
13, 42243, Note_on_c, 12, 31, 108
13, 42301, Note_off_c, 12, 59, 56
13, 42315, Note_on_c, 12, 55, 113
13, 42375, Note_off_c, 12, 55, 56
13, 42392, Note_on_c, 12, 59, 113
13, 42406, Note_off_c, 12, 31, 64
13, 42424, Note_off_c, 12, 74, 64
13, 42452, Note_off_c, 12, 59, 56
13, 42478, Note_on_c, 12, 59, 113
13, 42480, Note_on_c, 12, 71, 108
13, 42538, Note_off_c, 12, 59, 56
13, 42552, Note_off_c, 12, 71, 56
13, 42557, Note_on_c, 12, 72, 108
13, 42557, Note_on_c, 12, 59, 113
13, 42617, Note_off_c, 12, 59, 56
13, 42629, Note_off_c, 12, 72, 56
13, 42631, Note_on_c, 12, 74, 108
13, 42646, Note_on_c, 12, 59, 113
13, 42703, Note_off_c, 12, 74, 56
13, 42706, Note_off_c, 12, 59, 56
13, 42719, Note_on_c, 12, 76, 108
13, 42721, Note_on_c, 12, 55, 113
13, 42722, Note_on_c, 12, 31, 108
13, 42781, Note_off_c, 12, 55, 56
13, 42797, Note_on_c, 12, 60, 113
13, 42857, Note_off_c, 12, 60, 56
13, 42885, Note_off_c, 12, 31, 64
13, 42886, Note_on_c, 12, 60, 113
13, 42901, Note_off_c, 12, 76, 64
13, 42946, Note_off_c, 12, 60, 56
13, 42959, Note_on_c, 12, 76, 108
13, 42959, Note_on_c, 12, 60, 113
13, 43019, Note_off_c, 12, 60, 56
13, 43031, Note_off_c, 12, 76, 56
13, 43035, Note_on_c, 12, 60, 113
13, 43036, Note_on_c, 12, 78, 108
13, 43095, Note_off_c, 12, 60, 56
13, 43108, Note_off_c, 12, 78, 56
13, 43111, Note_on_c, 12, 60, 113
13, 43125, Note_on_c, 12, 79, 113
13, 43171, Note_off_c, 12, 60, 56
13, 43185, Note_off_c, 12, 79, 56
13, 43199, Note_on_c, 12, 55, 113
13, 43200, Note_on_c, 12, 74, 108
13, 43201, Note_on_c, 12, 31, 108
13, 43259, Note_off_c, 12, 55, 56
13, 43275, Note_on_c, 12, 59, 113
13, 43335, Note_off_c, 12, 59, 56
13, 43348, Note_on_c, 12, 59, 113
13, 43364, Note_off_c, 12, 31, 64
13, 43408, Note_off_c, 12, 59, 56
13, 43439, Note_on_c, 12, 38, 113
13, 43440, Note_on_c, 12, 59, 113
13, 43493, Note_off_c, 12, 38, 56
13, 43500, Note_off_c, 12, 59, 56
13, 43516, Note_on_c, 12, 59, 113
13, 43521, Note_on_c, 12, 40, 113
13, 43575, Note_off_c, 12, 40, 56
13, 43576, Note_off_c, 12, 59, 56
13, 43600, Note_on_c, 12, 42, 113
13, 43605, Note_on_c, 12, 59, 113
13, 43654, Note_off_c, 12, 42, 56
13, 43665, Note_off_c, 12, 59, 56
13, 43680, Note_on_c, 12, 59, 108
13, 43682, Note_on_c, 12, 43, 108
13, 43776, Note_off_c, 12, 74, 64
13, 43845, Note_off_c, 12, 43, 64
13, 43862, Note_off_c, 12, 59, 64
13, 43918, Note_on_c, 12, 62, 73
13, 43921, Note_on_c, 12, 74, 73
13, 43993, Note_off_c, 12, 74, 56
13, 43995, Note_on_c, 12, 72, 73
13, 44067, Note_off_c, 12, 72, 56
13, 44068, Note_on_c, 12, 71, 78
13, 44100, Note_off_c, 12, 62, 64
13, 44128, Note_off_c, 12, 71, 56
13, 44161, Note_on_c, 12, 62, 73
13, 44162, Note_on_c, 12, 69, 73
13, 44378, Note_off_c, 12, 69, 64
13, 44400, Note_on_c, 12, 72, 73
13, 44472, Note_off_c, 12, 72, 56
13, 44476, Note_on_c, 12, 71, 73
13, 44548, Note_off_c, 12, 71, 56
13, 44550, Note_on_c, 12, 69, 73
13, 44622, Note_off_c, 12, 69, 56
13, 44638, Note_on_c, 12, 67, 73
13, 44854, Note_off_c, 12, 67, 64
13, 44878, Note_on_c, 12, 71, 73
13, 44929, Note_off_c, 12, 62, 64
13, 44950, Note_off_c, 12, 71, 56
13, 44953, Note_on_c, 12, 69, 73
13, 45025, Note_off_c, 12, 69, 56
13, 45030, Note_on_c, 12, 67, 73
13, 45102, Note_off_c, 12, 67, 56
13, 45119, Note_on_c, 12, 66, 73
13, 45120, Note_on_c, 12, 62, 73
13, 45301, Note_off_c, 12, 66, 64
13, 45302, Note_off_c, 12, 62, 64
13, 45360, Note_on_c, 12, 54, 79
13, 45361, Note_on_c, 12, 66, 80
13, 45361, Note_on_c, 12, 42, 79
13, 45415, Note_off_c, 12, 42, 56
13, 45420, Note_off_c, 12, 54, 56
13, 45433, Note_off_c, 12, 66, 56
13, 45435, Note_on_c, 12, 67, 82
13, 45436, Note_on_c, 12, 55, 83
13, 45439, Note_on_c, 12, 43, 83
13, 45493, Note_off_c, 12, 43, 56
13, 45496, Note_off_c, 12, 55, 56
13, 45507, Note_off_c, 12, 67, 56
13, 45509, Note_on_c, 12, 57, 86
13, 45519, Note_on_c, 12, 45, 86
13, 45524, Note_on_c, 12, 69, 90
13, 45569, Note_off_c, 12, 57, 56
13, 45573, Note_off_c, 12, 45, 56
13, 45584, Note_off_c, 12, 69, 56
13, 45598, Note_on_c, 12, 62, 87
13, 45602, Note_on_c, 12, 50, 85
13, 45603, Note_on_c, 12, 38, 85
13, 45766, Note_off_c, 12, 38, 64
13, 45780, Note_off_c, 12, 62, 64
13, 45784, Note_off_c, 12, 50, 64
13, 45838, Note_on_c, 12, 60, 95
13, 45840, Note_on_c, 12, 36, 95
13, 45894, Note_off_c, 12, 36, 56
13, 45898, Note_off_c, 12, 60, 56
13, 45916, Note_on_c, 12, 59, 95
13, 45920, Note_on_c, 12, 35, 95
13, 45974, Note_off_c, 12, 35, 56
13, 45976, Note_off_c, 12, 59, 56
13, 45999, Note_on_c, 12, 33, 95
13, 46007, Note_on_c, 12, 57, 95
13, 46053, Note_off_c, 12, 33, 56
13, 46067, Note_off_c, 12, 57, 56
13, 46078, Note_on_c, 12, 79, 90
13, 46078, Note_on_c, 12, 55, 95
13, 46078, Note_on_c, 12, 62, 90
13, 46083, Note_on_c, 12, 31, 90
13, 46138, Note_off_c, 12, 55, 56
13, 46155, Note_on_c, 12, 67, 95
13, 46215, Note_off_c, 12, 67, 56
13, 46245, Note_on_c, 12, 67, 95
13, 46246, Note_off_c, 12, 31, 64
13, 46260, Note_off_c, 12, 62, 64
13, 46260, Note_off_c, 12, 79, 64
13, 46305, Note_off_c, 12, 67, 56
13, 46318, Note_on_c, 12, 67, 95
13, 46378, Note_off_c, 12, 67, 56
13, 46393, Note_on_c, 12, 66, 95
13, 46453, Note_off_c, 12, 66, 56
13, 46485, Note_on_c, 12, 65, 95
13, 46545, Note_off_c, 12, 65, 56
13, 46558, Note_on_c, 12, 31, 90
13, 46559, Note_on_c, 12, 55, 90
13, 46559, Note_on_c, 12, 79, 90
13, 46561, Note_on_c, 12, 64, 95
13, 46562, Note_on_c, 12, 62, 90
13, 46621, Note_off_c, 12, 64, 56
13, 46637, Note_on_c, 12, 64, 95
13, 46697, Note_off_c, 12, 64, 56
13, 46721, Note_off_c, 12, 31, 64
13, 46724, Note_on_c, 12, 64, 95
13, 46741, Note_off_c, 12, 79, 64
13, 46741, Note_off_c, 12, 55, 64
13, 46744, Note_off_c, 12, 62, 64
13, 46784, Note_off_c, 12, 64, 56
13, 46801, Note_on_c, 12, 64, 95
13, 46861, Note_off_c, 12, 64, 56
13, 46877, Note_on_c, 12, 62, 95
13, 46937, Note_off_c, 12, 62, 56
13, 46966, Note_on_c, 12, 60, 95
13, 47026, Note_off_c, 12, 60, 56
13, 47038, Note_on_c, 12, 79, 90
13, 47038, Note_on_c, 12, 55, 90
13, 47040, Note_on_c, 12, 31, 90
13, 47041, Note_on_c, 12, 62, 90
13, 47114, Note_on_c, 12, 59, 95
13, 47174, Note_off_c, 12, 59, 56
13, 47188, Note_on_c, 12, 59, 95
13, 47203, Note_off_c, 12, 31, 64
13, 47220, Note_off_c, 12, 55, 64
13, 47220, Note_off_c, 12, 79, 64
13, 47223, Note_off_c, 12, 62, 64
13, 47248, Note_off_c, 12, 59, 56
13, 47278, Note_on_c, 12, 59, 95
13, 47280, Note_on_c, 12, 38, 95
13, 47281, Note_on_c, 12, 62, 95
13, 47334, Note_off_c, 12, 38, 56
13, 47338, Note_off_c, 12, 59, 56
13, 47341, Note_off_c, 12, 62, 56
13, 47353, Note_on_c, 12, 59, 95
13, 47357, Note_on_c, 12, 64, 95
13, 47361, Note_on_c, 12, 40, 95
13, 47413, Note_off_c, 12, 59, 56
13, 47415, Note_off_c, 12, 40, 56
13, 47417, Note_off_c, 12, 64, 56
13, 47428, Note_on_c, 12, 59, 95
13, 47432, Note_on_c, 12, 66, 95
13, 47439, Note_on_c, 12, 42, 95
13, 47488, Note_off_c, 12, 59, 56
13, 47492, Note_off_c, 12, 66, 56
13, 47493, Note_off_c, 12, 42, 56
13, 47520, Note_on_c, 12, 59, 90
13, 47520, Note_on_c, 12, 43, 90
13, 47520, Note_on_c, 12, 67, 90
13, 47683, Note_off_c, 12, 43, 64
13, 47702, Note_off_c, 12, 67, 64
13, 47702, Note_off_c, 12, 59, 64
13, 47759, Note_on_c, 12, 62, 73
13, 47762, Note_on_c, 12, 74, 73
13, 47834, Note_off_c, 12, 74, 56
13, 47837, Note_on_c, 12, 72, 73
13, 47909, Note_off_c, 12, 72, 56
13, 47927, Note_on_c, 12, 71, 73
13, 47998, Note_on_c, 12, 69, 73
13, 47999, Note_off_c, 12, 71, 56
13, 48214, Note_off_c, 12, 69, 64
13, 48241, Note_on_c, 12, 72, 73
13, 48313, Note_off_c, 12, 72, 56
13, 48313, Note_on_c, 12, 71, 73
13, 48385, Note_off_c, 12, 71, 56
13, 48406, Note_on_c, 12, 69, 73
13, 48478, Note_off_c, 12, 69, 56
13, 48478, Note_on_c, 12, 67, 73
13, 48694, Note_off_c, 12, 67, 64
13, 48718, Note_on_c, 12, 71, 73
13, 48790, Note_off_c, 12, 71, 56
13, 48795, Note_on_c, 12, 69, 73
13, 48867, Note_off_c, 12, 69, 56
13, 48869, Note_on_c, 12, 67, 73
13, 48941, Note_off_c, 12, 67, 56
13, 48960, Note_on_c, 12, 66, 73
13, 49142, Note_off_c, 12, 66, 64
13, 49151, Note_off_c, 12, 62, 64
13, 49200, Note_on_c, 12, 38, 95
13, 49201, Note_on_c, 12, 50, 95
13, 49254, Note_off_c, 12, 38, 56
13, 49261, Note_off_c, 12, 50, 56
13, 49276, Note_on_c, 12, 52, 95
13, 49280, Note_on_c, 12, 40, 95
13, 49334, Note_off_c, 12, 40, 56
13, 49336, Note_off_c, 12, 52, 56
13, 49349, Note_on_c, 12, 54, 95
13, 49360, Note_on_c, 12, 42, 95
13, 49409, Note_off_c, 12, 54, 56
13, 49414, Note_off_c, 12, 42, 56
13, 49437, Note_on_c, 12, 43, 90
13, 49442, Note_on_c, 12, 55, 90
13, 49600, Note_off_c, 12, 43, 64
13, 49624, Note_off_c, 12, 55, 64
13, 49679, Note_on_c, 12, 64, 73
13, 49682, Note_on_c, 12, 76, 73
13, 49754, Note_off_c, 12, 76, 56
13, 49757, Note_on_c, 12, 74, 73
13, 49829, Note_off_c, 12, 74, 56
13, 49843, Note_on_c, 12, 72, 73
13, 49915, Note_off_c, 12, 72, 56
13, 49918, Note_on_c, 12, 71, 73
13, 50134, Note_off_c, 12, 71, 64
13, 50160, Note_on_c, 12, 74, 73
13, 50232, Note_off_c, 12, 74, 56
13, 50237, Note_on_c, 12, 72, 73
13, 50309, Note_off_c, 12, 72, 56
13, 50325, Note_on_c, 12, 71, 73
13, 50397, Note_off_c, 12, 71, 56
13, 50401, Note_on_c, 12, 69, 73
13, 50617, Note_off_c, 12, 69, 64
13, 50642, Note_on_c, 12, 72, 73
13, 50713, Note_on_c, 12, 71, 73
13, 50714, Note_off_c, 12, 72, 56
13, 50785, Note_off_c, 12, 71, 56
13, 50806, Note_on_c, 12, 69, 73
13, 50878, Note_off_c, 12, 69, 56
13, 50881, Note_on_c, 12, 68, 73
13, 51063, Note_off_c, 12, 68, 64
13, 51071, Note_off_c, 12, 64, 64
13, 51118, Note_on_c, 12, 64, 95
13, 51119, Note_on_c, 12, 52, 95
13, 51121, Note_on_c, 12, 40, 95
13, 51175, Note_off_c, 12, 40, 56
13, 51178, Note_off_c, 12, 64, 56
13, 51179, Note_off_c, 12, 52, 56
13, 51195, Note_on_c, 12, 54, 95
13, 51196, Note_on_c, 12, 66, 95
13, 51201, Note_on_c, 12, 42, 95
13, 51255, Note_off_c, 12, 42, 56
13, 51255, Note_off_c, 12, 54, 56
13, 51256, Note_off_c, 12, 66, 56
13, 51281, Note_on_c, 12, 44, 95
13, 51285, Note_on_c, 12, 56, 95
13, 51287, Note_on_c, 12, 68, 95
13, 51335, Note_off_c, 12, 44, 56
13, 51345, Note_off_c, 12, 56, 56
13, 51347, Note_off_c, 12, 68, 56
13, 51359, Note_on_c, 12, 69, 90
13, 51359, Note_on_c, 12, 57, 90
13, 51360, Note_on_c, 12, 45, 90
13, 51523, Note_off_c, 12, 45, 64
13, 51541, Note_off_c, 12, 57, 64
13, 51541, Note_off_c, 12, 69, 64
13, 51599, Note_on_c, 12, 79, 56
13, 51602, Note_on_c, 12, 36, 56
13, 51671, Note_off_c, 12, 79, 56
13, 51675, Note_on_c, 12, 77, 56
13, 51747, Note_off_c, 12, 77, 56
13, 51765, Note_off_c, 12, 36, 64
13, 51767, Note_on_c, 12, 76, 56
13, 51838, Note_on_c, 12, 74, 56
13, 51839, Note_off_c, 12, 76, 56
13, 51840, Note_on_c, 12, 35, 56
13, 52054, Note_off_c, 12, 74, 64
13, 52082, Note_on_c, 12, 77, 56
13, 52154, Note_off_c, 12, 77, 56
13, 52157, Note_on_c, 12, 76, 56
13, 52185, Note_off_c, 12, 35, 64
13, 52229, Note_off_c, 12, 76, 56
13, 52231, Note_on_c, 12, 74, 56
13, 52303, Note_off_c, 12, 74, 56
13, 52319, Note_on_c, 12, 72, 56
13, 52323, Note_on_c, 12, 36, 56
13, 52535, Note_off_c, 12, 72, 64
13, 52559, Note_on_c, 12, 60, 61
13, 52562, Note_on_c, 12, 76, 56
13, 52619, Note_off_c, 12, 60, 56
13, 52633, Note_on_c, 12, 74, 56
13, 52634, Note_off_c, 12, 76, 56
13, 52637, Note_on_c, 12, 59, 61
13, 52668, Note_off_c, 12, 36, 64
13, 52697, Note_off_c, 12, 59, 56
13, 52705, Note_off_c, 12, 74, 56
13, 52708, Note_on_c, 12, 72, 56
13, 52708, Note_on_c, 12, 60, 61
13, 52768, Note_off_c, 12, 60, 56
13, 52780, Note_off_c, 12, 72, 56
13, 52798, Note_on_c, 12, 62, 61
13, 52798, Note_on_c, 12, 71, 61
13, 52799, Note_on_c, 12, 59, 61
13, 52799, Note_on_c, 12, 31, 56
13, 52843, Note_off_c, 12, 71, 56
13, 52843, Note_off_c, 12, 62, 56
13, 52844, Note_off_c, 12, 59, 56
13, 52859, Note_on_c, 12, 74, 62
13, 52862, Note_on_c, 12, 62, 62
13, 52862, Note_on_c, 12, 59, 62
13, 52880, Note_off_c, 12, 31, 56
13, 52904, Note_off_c, 12, 74, 56
13, 52907, Note_off_c, 12, 59, 56
13, 52907, Note_off_c, 12, 62, 56
13, 52919, Note_on_c, 12, 43, 59
13, 52921, Note_on_c, 12, 59, 64
13, 52922, Note_on_c, 12, 74, 64
13, 52922, Note_on_c, 12, 62, 64
13, 52966, Note_off_c, 12, 59, 56
13, 52967, Note_off_c, 12, 62, 56
13, 52967, Note_off_c, 12, 74, 56
13, 52978, Note_on_c, 12, 59, 65
13, 52978, Note_on_c, 12, 62, 65
13, 52981, Note_on_c, 12, 74, 65
13, 53000, Note_off_c, 12, 43, 56
13, 53023, Note_off_c, 12, 62, 56
13, 53023, Note_off_c, 12, 59, 56
13, 53026, Note_off_c, 12, 74, 56
13, 53039, Note_on_c, 12, 59, 67
13, 53039, Note_on_c, 12, 43, 62
13, 53040, Note_on_c, 12, 74, 67
13, 53042, Note_on_c, 12, 62, 67
13, 53084, Note_off_c, 12, 59, 56
13, 53085, Note_off_c, 12, 74, 56
13, 53087, Note_off_c, 12, 62, 56
13, 53099, Note_on_c, 12, 74, 69
13, 53101, Note_on_c, 12, 59, 69
13, 53101, Note_on_c, 12, 62, 69
13, 53120, Note_off_c, 12, 43, 56
13, 53144, Note_off_c, 12, 74, 56
13, 53146, Note_off_c, 12, 62, 56
13, 53146, Note_off_c, 12, 59, 56
13, 53158, Note_on_c, 12, 74, 70
13, 53159, Note_on_c, 12, 62, 70
13, 53160, Note_on_c, 12, 43, 65
13, 53161, Note_on_c, 12, 59, 70
13, 53203, Note_off_c, 12, 74, 56
13, 53204, Note_off_c, 12, 62, 56
13, 53206, Note_off_c, 12, 59, 56
13, 53220, Note_on_c, 12, 62, 72
13, 53222, Note_on_c, 12, 74, 72
13, 53222, Note_on_c, 12, 59, 72
13, 53241, Note_off_c, 12, 43, 56
13, 53265, Note_off_c, 12, 62, 56
13, 53267, Note_off_c, 12, 59, 56
13, 53267, Note_off_c, 12, 74, 56
13, 53278, Note_on_c, 12, 59, 74
13, 53280, Note_on_c, 12, 74, 74
13, 53280, Note_on_c, 12, 43, 69
13, 53280, Note_on_c, 12, 62, 74
13, 53323, Note_off_c, 12, 59, 56
13, 53325, Note_off_c, 12, 62, 56
13, 53325, Note_off_c, 12, 74, 56
13, 53338, Note_on_c, 12, 59, 75
13, 53339, Note_on_c, 12, 62, 75
13, 53342, Note_on_c, 12, 74, 75
13, 53361, Note_off_c, 12, 43, 56
13, 53383, Note_off_c, 12, 59, 56
13, 53384, Note_off_c, 12, 62, 56
13, 53387, Note_off_c, 12, 74, 56
13, 53400, Note_on_c, 12, 74, 77
13, 53401, Note_on_c, 12, 43, 72
13, 53402, Note_on_c, 12, 59, 77
13, 53402, Note_on_c, 12, 62, 77
13, 53445, Note_off_c, 12, 74, 56
13, 53447, Note_off_c, 12, 62, 56
13, 53447, Note_off_c, 12, 59, 56
13, 53458, Note_on_c, 12, 62, 78
13, 53458, Note_on_c, 12, 59, 78
13, 53462, Note_on_c, 12, 74, 78
13, 53482, Note_off_c, 12, 43, 56
13, 53503, Note_off_c, 12, 59, 56
13, 53503, Note_off_c, 12, 62, 56
13, 53507, Note_off_c, 12, 74, 56
13, 53519, Note_on_c, 12, 59, 80
13, 53520, Note_on_c, 12, 74, 80
13, 53520, Note_on_c, 12, 62, 80
13, 53521, Note_on_c, 12, 43, 75
13, 53564, Note_off_c, 12, 59, 56
13, 53565, Note_off_c, 12, 62, 56
13, 53565, Note_off_c, 12, 74, 56
13, 53580, Note_on_c, 12, 62, 82
13, 53580, Note_on_c, 12, 59, 82
13, 53582, Note_on_c, 12, 74, 82
13, 53602, Note_off_c, 12, 43, 56
13, 53625, Note_off_c, 12, 59, 56
13, 53625, Note_off_c, 12, 62, 56
13, 53627, Note_off_c, 12, 74, 56
13, 53638, Note_on_c, 12, 59, 84
13, 53638, Note_on_c, 12, 62, 84
13, 53640, Note_on_c, 12, 43, 79
13, 53642, Note_on_c, 12, 74, 83
13, 53683, Note_off_c, 12, 62, 56
13, 53683, Note_off_c, 12, 59, 56
13, 53687, Note_off_c, 12, 74, 56
13, 53698, Note_on_c, 12, 62, 85
13, 53701, Note_on_c, 12, 59, 85
13, 53702, Note_on_c, 12, 74, 85
13, 53721, Note_off_c, 12, 43, 56
13, 53743, Note_off_c, 12, 62, 56
13, 53746, Note_off_c, 12, 59, 56
13, 53747, Note_off_c, 12, 74, 56
13, 53759, Note_on_c, 12, 59, 86
13, 53760, Note_on_c, 12, 75, 86
13, 53760, Note_on_c, 12, 43, 81
13, 53760, Note_on_c, 12, 63, 86
13, 53804, Note_off_c, 12, 59, 56
13, 53805, Note_off_c, 12, 63, 56
13, 53805, Note_off_c, 12, 75, 56
13, 53820, Note_on_c, 12, 75, 88
13, 53821, Note_on_c, 12, 63, 88
13, 53822, Note_on_c, 12, 59, 88
13, 53841, Note_off_c, 12, 43, 56
13, 53865, Note_off_c, 12, 75, 56
13, 53866, Note_off_c, 12, 63, 56
13, 53867, Note_off_c, 12, 59, 56
13, 53880, Note_on_c, 12, 63, 90
13, 53880, Note_on_c, 12, 59, 90
13, 53881, Note_on_c, 12, 75, 90
13, 53881, Note_on_c, 12, 43, 85
13, 53925, Note_off_c, 12, 59, 56
13, 53925, Note_off_c, 12, 63, 56
13, 53926, Note_off_c, 12, 75, 56
13, 53938, Note_on_c, 12, 63, 92
13, 53941, Note_on_c, 12, 75, 91
13, 53941, Note_on_c, 12, 59, 92
13, 53962, Note_off_c, 12, 43, 56
13, 53983, Note_off_c, 12, 63, 56
13, 53986, Note_off_c, 12, 59, 56
13, 53986, Note_off_c, 12, 75, 56
13, 54001, Note_on_c, 12, 43, 88
13, 54002, Note_on_c, 12, 75, 93
13, 54002, Note_on_c, 12, 59, 93
13, 54002, Note_on_c, 12, 63, 93
13, 54047, Note_off_c, 12, 63, 56
13, 54047, Note_off_c, 12, 59, 56
13, 54047, Note_off_c, 12, 75, 56
13, 54059, Note_on_c, 12, 63, 94
13, 54061, Note_on_c, 12, 75, 94
13, 54062, Note_on_c, 12, 59, 94
13, 54082, Note_off_c, 12, 43, 56
13, 54104, Note_off_c, 12, 63, 56
13, 54106, Note_off_c, 12, 75, 56
13, 54107, Note_off_c, 12, 59, 56
13, 54118, Note_on_c, 12, 59, 97
13, 54119, Note_on_c, 12, 75, 97
13, 54119, Note_on_c, 12, 43, 92
13, 54119, Note_on_c, 12, 63, 97
13, 54163, Note_off_c, 12, 59, 56
13, 54164, Note_off_c, 12, 63, 56
13, 54164, Note_off_c, 12, 75, 56
13, 54178, Note_on_c, 12, 63, 98
13, 54180, Note_on_c, 12, 75, 98
13, 54180, Note_on_c, 12, 59, 98
13, 54200, Note_off_c, 12, 43, 56
13, 54223, Note_off_c, 12, 63, 56
13, 54225, Note_off_c, 12, 59, 56
13, 54225, Note_off_c, 12, 75, 56
13, 54239, Note_on_c, 12, 75, 99
13, 54240, Note_on_c, 12, 63, 100
13, 54240, Note_on_c, 12, 43, 95
13, 54240, Note_on_c, 12, 59, 100
13, 54284, Note_off_c, 12, 75, 56
13, 54285, Note_off_c, 12, 59, 56
13, 54285, Note_off_c, 12, 63, 56
13, 54299, Note_on_c, 12, 75, 101
13, 54300, Note_on_c, 12, 59, 101
13, 54302, Note_on_c, 12, 63, 101
13, 54321, Note_off_c, 12, 43, 56
13, 54344, Note_off_c, 12, 75, 56
13, 54345, Note_off_c, 12, 59, 56
13, 54347, Note_off_c, 12, 63, 56
13, 54359, Note_on_c, 12, 75, 102
13, 54359, Note_on_c, 12, 43, 98
13, 54360, Note_on_c, 12, 59, 103
13, 54361, Note_on_c, 12, 63, 103
13, 54404, Note_off_c, 12, 75, 56
13, 54405, Note_off_c, 12, 59, 56
13, 54406, Note_off_c, 12, 63, 56
13, 54419, Note_on_c, 12, 63, 105
13, 54421, Note_on_c, 12, 75, 105
13, 54421, Note_on_c, 12, 59, 105
13, 54440, Note_off_c, 12, 43, 56
13, 54464, Note_off_c, 12, 63, 56
13, 54466, Note_off_c, 12, 59, 56
13, 54466, Note_off_c, 12, 75, 56
13, 54480, Note_on_c, 12, 59, 106
13, 54480, Note_on_c, 12, 43, 101
13, 54481, Note_on_c, 12, 75, 106
13, 54481, Note_on_c, 12, 63, 106
13, 54525, Note_off_c, 12, 59, 56
13, 54526, Note_off_c, 12, 63, 56
13, 54526, Note_off_c, 12, 75, 56
13, 54538, Note_on_c, 12, 63, 108
13, 54539, Note_on_c, 12, 75, 108
13, 54539, Note_on_c, 12, 59, 108
13, 54561, Note_off_c, 12, 43, 56
13, 54583, Note_off_c, 12, 63, 56
13, 54584, Note_off_c, 12, 59, 56
13, 54584, Note_off_c, 12, 75, 56
13, 54598, Note_on_c, 12, 75, 109
13, 54599, Note_on_c, 12, 63, 109
13, 54600, Note_on_c, 12, 59, 109
13, 54601, Note_on_c, 12, 43, 104
13, 54643, Note_off_c, 12, 75, 56
13, 54644, Note_off_c, 12, 63, 56
13, 54645, Note_off_c, 12, 59, 56
13, 54658, Note_on_c, 12, 63, 111
13, 54659, Note_on_c, 12, 75, 110
13, 54662, Note_on_c, 12, 59, 111
13, 54682, Note_off_c, 12, 43, 56
13, 54703, Note_off_c, 12, 63, 56
13, 54704, Note_off_c, 12, 75, 56
13, 54707, Note_off_c, 12, 59, 56
13, 54718, Note_on_c, 12, 36, 108
13, 54720, Note_on_c, 12, 64, 113
13, 54721, Note_on_c, 12, 76, 113
13, 54722, Note_on_c, 12, 60, 113
13, 54765, Note_off_c, 12, 64, 56
13, 54766, Note_off_c, 12, 76, 56
13, 54767, Note_off_c, 12, 60, 56
13, 54780, Note_on_c, 12, 64, 113
13, 54781, Note_on_c, 12, 76, 113
13, 54782, Note_on_c, 12, 60, 113
13, 54825, Note_off_c, 12, 64, 56
13, 54826, Note_off_c, 12, 76, 56
13, 54827, Note_off_c, 12, 60, 56
13, 54839, Note_on_c, 12, 76, 113
13, 54839, Note_on_c, 12, 64, 113
13, 54841, Note_on_c, 12, 60, 113
13, 54884, Note_off_c, 12, 64, 56
13, 54884, Note_off_c, 12, 76, 56
13, 54886, Note_off_c, 12, 60, 56
13, 54900, Note_on_c, 12, 76, 113
13, 54901, Note_on_c, 12, 60, 113
13, 54901, Note_on_c, 12, 64, 113
13, 54945, Note_off_c, 12, 76, 56
13, 54946, Note_off_c, 12, 64, 56
13, 54946, Note_off_c, 12, 60, 56
13, 54959, Note_on_c, 12, 64, 113
13, 54959, Note_on_c, 12, 60, 113
13, 54960, Note_on_c, 12, 76, 113
13, 55004, Note_off_c, 12, 60, 56
13, 55004, Note_off_c, 12, 64, 56
13, 55005, Note_off_c, 12, 76, 56
13, 55020, Note_on_c, 12, 76, 113
13, 55020, Note_on_c, 12, 60, 113
13, 55021, Note_on_c, 12, 64, 113
13, 55065, Note_off_c, 12, 60, 56
13, 55065, Note_off_c, 12, 76, 56
13, 55066, Note_off_c, 12, 64, 56
13, 55078, Note_on_c, 12, 64, 113
13, 55081, Note_on_c, 12, 76, 113
13, 55081, Note_on_c, 12, 60, 113
13, 55123, Note_off_c, 12, 64, 56
13, 55126, Note_off_c, 12, 60, 56
13, 55126, Note_off_c, 12, 76, 56
13, 55138, Note_on_c, 12, 60, 113
13, 55140, Note_on_c, 12, 76, 113
13, 55141, Note_on_c, 12, 64, 113
13, 55183, Note_off_c, 12, 60, 56
13, 55185, Note_off_c, 12, 76, 56
13, 55186, Note_off_c, 12, 64, 56
13, 55199, Note_on_c, 12, 76, 113
13, 55201, Note_on_c, 12, 64, 113
13, 55201, Note_on_c, 12, 60, 113
13, 55236, Note_off_c, 12, 36, 64
13, 55244, Note_off_c, 12, 76, 56
13, 55246, Note_off_c, 12, 60, 56
13, 55246, Note_off_c, 12, 64, 56
13, 55258, Note_on_c, 12, 48, 113
13, 55261, Note_on_c, 12, 60, 113
13, 55303, Note_off_c, 12, 48, 56
13, 55306, Note_off_c, 12, 60, 56
13, 55318, Note_on_c, 12, 62, 113
13, 55319, Note_on_c, 12, 50, 113
13, 55320, Note_on_c, 12, 36, 108
13, 55363, Note_off_c, 12, 62, 56
13, 55364, Note_off_c, 12, 50, 56
13, 55380, Note_on_c, 12, 64, 113
13, 55382, Note_on_c, 12, 52, 113
13, 55401, Note_off_c, 12, 36, 56
13, 55425, Note_off_c, 12, 64, 56
13, 55427, Note_off_c, 12, 52, 56
13, 55441, Note_on_c, 12, 36, 108
13, 55442, Note_on_c, 12, 65, 113
13, 55442, Note_on_c, 12, 53, 113
13, 55487, Note_off_c, 12, 53, 56
13, 55487, Note_off_c, 12, 65, 56
13, 55498, Note_on_c, 12, 67, 113
13, 55499, Note_on_c, 12, 55, 113
13, 55522, Note_off_c, 12, 36, 56
13, 55543, Note_off_c, 12, 67, 56
13, 55544, Note_off_c, 12, 55, 56
13, 55560, Note_on_c, 12, 57, 113
13, 55560, Note_on_c, 12, 36, 108
13, 55561, Note_on_c, 12, 69, 113
13, 55605, Note_off_c, 12, 57, 56
13, 55606, Note_off_c, 12, 69, 56
13, 55621, Note_on_c, 12, 59, 113
13, 55622, Note_on_c, 12, 71, 113
13, 55641, Note_off_c, 12, 36, 56
13, 55666, Note_off_c, 12, 59, 56
13, 55667, Note_off_c, 12, 71, 56
13, 55680, Note_on_c, 12, 72, 113
13, 55680, Note_on_c, 12, 36, 108
13, 55680, Note_on_c, 12, 60, 113
13, 55725, Note_off_c, 12, 60, 56
13, 55725, Note_off_c, 12, 72, 56
13, 55738, Note_on_c, 12, 52, 113
13, 55739, Note_on_c, 12, 48, 113
13, 55740, Note_on_c, 12, 64, 113
13, 55761, Note_off_c, 12, 36, 56
13, 55783, Note_off_c, 12, 52, 56
13, 55784, Note_off_c, 12, 48, 56
13, 55785, Note_off_c, 12, 64, 56
13, 55798, Note_on_c, 12, 65, 113
13, 55800, Note_on_c, 12, 53, 113
13, 55800, Note_on_c, 12, 50, 113
13, 55801, Note_on_c, 12, 36, 108
13, 55843, Note_off_c, 12, 65, 56
13, 55845, Note_off_c, 12, 50, 56
13, 55845, Note_off_c, 12, 53, 56
13, 55859, Note_on_c, 12, 67, 113
13, 55860, Note_on_c, 12, 52, 113
13, 55862, Note_on_c, 12, 55, 113
13, 55882, Note_off_c, 12, 36, 56
13, 55904, Note_off_c, 12, 67, 56
13, 55905, Note_off_c, 12, 52, 56
13, 55907, Note_off_c, 12, 55, 56
13, 55918, Note_on_c, 12, 53, 113
13, 55920, Note_on_c, 12, 69, 113
13, 55920, Note_on_c, 12, 36, 108
13, 55921, Note_on_c, 12, 57, 113
13, 55963, Note_off_c, 12, 53, 56
13, 55965, Note_off_c, 12, 69, 56
13, 55966, Note_off_c, 12, 57, 56
13, 55978, Note_on_c, 12, 71, 113
13, 55981, Note_on_c, 12, 59, 113
13, 55982, Note_on_c, 12, 55, 113
13, 56001, Note_off_c, 12, 36, 56
13, 56023, Note_off_c, 12, 71, 56
13, 56026, Note_off_c, 12, 59, 56
13, 56027, Note_off_c, 12, 55, 56
13, 56040, Note_on_c, 12, 72, 113
13, 56040, Note_on_c, 12, 57, 113
13, 56041, Note_on_c, 12, 36, 108
13, 56042, Note_on_c, 12, 60, 113
13, 56085, Note_off_c, 12, 57, 56
13, 56085, Note_off_c, 12, 72, 56
13, 56087, Note_off_c, 12, 60, 56
13, 56098, Note_on_c, 12, 62, 113
13, 56100, Note_on_c, 12, 59, 113
13, 56101, Note_on_c, 12, 74, 113
13, 56122, Note_off_c, 12, 36, 56
13, 56143, Note_off_c, 12, 62, 56
13, 56145, Note_off_c, 12, 59, 56
13, 56146, Note_off_c, 12, 74, 56
13, 56158, Note_on_c, 12, 76, 113
13, 56159, Note_on_c, 12, 64, 113
13, 56160, Note_on_c, 12, 60, 113
13, 56161, Note_on_c, 12, 36, 108
13, 56203, Note_off_c, 12, 76, 56
13, 56204, Note_off_c, 12, 64, 56
13, 56205, Note_off_c, 12, 60, 56
13, 56219, Note_on_c, 12, 52, 113
13, 56221, Note_on_c, 12, 72, 113
13, 56221, Note_on_c, 12, 60, 113
13, 56242, Note_off_c, 12, 36, 56
13, 56264, Note_off_c, 12, 52, 56
13, 56266, Note_off_c, 12, 60, 56
13, 56266, Note_off_c, 12, 72, 56
13, 56278, Note_on_c, 12, 53, 113
13, 56279, Note_on_c, 12, 36, 108
13, 56281, Note_on_c, 12, 74, 113
13, 56281, Note_on_c, 12, 62, 113
13, 56323, Note_off_c, 12, 53, 56
13, 56326, Note_off_c, 12, 62, 56
13, 56326, Note_off_c, 12, 74, 56
13, 56338, Note_on_c, 12, 76, 113
13, 56339, Note_on_c, 12, 64, 113
13, 56340, Note_on_c, 12, 55, 113
13, 56360, Note_off_c, 12, 36, 56
13, 56383, Note_off_c, 12, 76, 56
13, 56384, Note_off_c, 12, 64, 56
13, 56385, Note_off_c, 12, 55, 56
13, 56399, Note_on_c, 12, 36, 108
13, 56400, Note_on_c, 12, 57, 113
13, 56401, Note_on_c, 12, 65, 113
13, 56402, Note_on_c, 12, 77, 113
13, 56445, Note_off_c, 12, 57, 56
13, 56446, Note_off_c, 12, 65, 56
13, 56447, Note_off_c, 12, 77, 56
13, 56459, Note_on_c, 12, 67, 113
13, 56461, Note_on_c, 12, 79, 113
13, 56461, Note_on_c, 12, 59, 113
13, 56480, Note_off_c, 12, 36, 56
13, 56504, Note_off_c, 12, 67, 56
13, 56506, Note_off_c, 12, 59, 56
13, 56506, Note_off_c, 12, 79, 56
13, 56518, Note_on_c, 12, 69, 113
13, 56520, Note_on_c, 12, 60, 113
13, 56520, Note_on_c, 12, 36, 108
13, 56521, Note_on_c, 12, 81, 113
13, 56563, Note_off_c, 12, 69, 56
13, 56565, Note_off_c, 12, 60, 56
13, 56566, Note_off_c, 12, 81, 56
13, 56578, Note_on_c, 12, 83, 113
13, 56579, Note_on_c, 12, 71, 113
13, 56580, Note_on_c, 12, 62, 113
13, 56601, Note_off_c, 12, 36, 56
13, 56623, Note_off_c, 12, 83, 56
13, 56624, Note_off_c, 12, 71, 56
13, 56625, Note_off_c, 12, 62, 56
13, 56640, Note_on_c, 12, 36, 108
13, 56641, Note_on_c, 12, 84, 113
13, 56641, Note_on_c, 12, 64, 113
13, 56642, Note_on_c, 12, 72, 113
13, 56686, Note_off_c, 12, 64, 56
13, 56686, Note_off_c, 12, 84, 56
13, 56687, Note_off_c, 12, 72, 56
13, 56699, Note_on_c, 12, 60, 113
13, 56701, Note_on_c, 12, 86, 113
13, 56721, Note_off_c, 12, 36, 56
13, 56744, Note_off_c, 12, 60, 56
13, 56746, Note_off_c, 12, 86, 56
13, 56759, Note_on_c, 12, 60, 113
13, 56760, Note_on_c, 12, 88, 113
13, 56761, Note_on_c, 12, 36, 108
13, 56804, Note_off_c, 12, 60, 56
13, 56805, Note_off_c, 12, 88, 56
13, 56821, Note_on_c, 12, 60, 113
13, 56822, Note_on_c, 12, 89, 113
13, 56842, Note_off_c, 12, 36, 56
13, 56866, Note_off_c, 12, 60, 56
13, 56867, Note_off_c, 12, 89, 56
13, 56878, Note_on_c, 12, 91, 113
13, 56878, Note_on_c, 12, 61, 113
13, 56880, Note_on_c, 12, 37, 108
13, 56923, Note_off_c, 12, 61, 56
13, 56923, Note_off_c, 12, 91, 56
13, 56938, Note_on_c, 12, 61, 113
13, 56939, Note_on_c, 12, 91, 113
13, 56961, Note_off_c, 12, 37, 56
13, 56983, Note_off_c, 12, 61, 56
13, 56984, Note_off_c, 12, 91, 56
13, 56999, Note_on_c, 12, 61, 113
13, 57001, Note_on_c, 12, 91, 113
13, 57001, Note_on_c, 12, 37, 108
13, 57044, Note_off_c, 12, 61, 56
13, 57046, Note_off_c, 12, 91, 56
13, 57058, Note_on_c, 12, 91, 113
13, 57058, Note_on_c, 12, 61, 113
13, 57082, Note_off_c, 12, 37, 56
13, 57103, Note_off_c, 12, 61, 56
13, 57103, Note_off_c, 12, 91, 56
13, 57121, Note_on_c, 12, 91, 113
13, 57121, Note_on_c, 12, 38, 108
13, 57121, Note_on_c, 12, 62, 113
13, 57166, Note_off_c, 12, 62, 56
13, 57166, Note_off_c, 12, 91, 56
13, 57180, Note_on_c, 12, 62, 113
13, 57181, Note_on_c, 12, 91, 113
13, 57202, Note_off_c, 12, 38, 56
13, 57225, Note_off_c, 12, 62, 56
13, 57226, Note_off_c, 12, 91, 56
13, 57238, Note_on_c, 12, 62, 113
13, 57239, Note_on_c, 12, 91, 113
13, 57240, Note_on_c, 12, 38, 108
13, 57283, Note_off_c, 12, 62, 56
13, 57284, Note_off_c, 12, 91, 56
13, 57298, Note_on_c, 12, 91, 113
13, 57298, Note_on_c, 12, 62, 113
13, 57321, Note_off_c, 12, 38, 56
13, 57343, Note_off_c, 12, 62, 56
13, 57343, Note_off_c, 12, 91, 56
13, 57360, Note_on_c, 12, 91, 113
13, 57361, Note_on_c, 12, 39, 108
13, 57362, Note_on_c, 12, 63, 113
13, 57405, Note_off_c, 12, 91, 56
13, 57407, Note_off_c, 12, 63, 56
13, 57420, Note_on_c, 12, 91, 113
13, 57420, Note_on_c, 12, 63, 113
13, 57442, Note_off_c, 12, 39, 56
13, 57465, Note_off_c, 12, 63, 56
13, 57465, Note_off_c, 12, 91, 56
13, 57479, Note_on_c, 12, 39, 108
13, 57480, Note_on_c, 12, 91, 113
13, 57481, Note_on_c, 12, 63, 113
13, 57525, Note_off_c, 12, 91, 56
13, 57526, Note_off_c, 12, 63, 56
13, 57542, Note_on_c, 12, 91, 113
13, 57542, Note_on_c, 12, 63, 113
13, 57560, Note_off_c, 12, 39, 56
13, 57587, Note_off_c, 12, 63, 56
13, 57587, Note_off_c, 12, 91, 56
13, 57600, Note_on_c, 12, 40, 108
13, 57601, Note_on_c, 12, 91, 113
13, 57602, Note_on_c, 12, 64, 113
13, 57646, Note_off_c, 12, 91, 56
13, 57647, Note_off_c, 12, 64, 56
13, 57660, Note_on_c, 12, 91, 113
13, 57660, Note_on_c, 12, 64, 113
13, 57681, Note_off_c, 12, 40, 56
13, 57705, Note_off_c, 12, 64, 56
13, 57705, Note_off_c, 12, 91, 56
13, 57718, Note_on_c, 12, 90, 113
13, 57720, Note_on_c, 12, 64, 113
13, 57721, Note_on_c, 12, 40, 108
13, 57763, Note_off_c, 12, 90, 56
13, 57765, Note_off_c, 12, 64, 56
13, 57781, Note_on_c, 12, 64, 113
13, 57782, Note_on_c, 12, 88, 113
13, 57802, Note_off_c, 12, 40, 56
13, 57826, Note_off_c, 12, 64, 56
13, 57827, Note_off_c, 12, 88, 56
13, 57839, Note_on_c, 12, 42, 108
13, 57840, Note_on_c, 12, 66, 113
13, 57841, Note_on_c, 12, 86, 113
13, 57885, Note_off_c, 12, 66, 56
13, 57886, Note_off_c, 12, 86, 56
13, 57898, Note_on_c, 12, 84, 113
13, 57902, Note_on_c, 12, 66, 113
13, 57920, Note_off_c, 12, 42, 56
13, 57943, Note_off_c, 12, 84, 56
13, 57947, Note_off_c, 12, 66, 56
13, 57959, Note_on_c, 12, 66, 113
13, 57960, Note_on_c, 12, 42, 108
13, 57962, Note_on_c, 12, 83, 113
13, 58004, Note_off_c, 12, 66, 56
13, 58007, Note_off_c, 12, 83, 56
13, 58018, Note_on_c, 12, 66, 113
13, 58020, Note_on_c, 12, 81, 113
13, 58041, Note_off_c, 12, 42, 56
13, 58063, Note_off_c, 12, 66, 56
13, 58065, Note_off_c, 12, 81, 56
13, 58080, Note_on_c, 12, 43, 108
13, 58081, Note_on_c, 12, 79, 113
13, 58081, Note_on_c, 12, 67, 113
13, 58126, Note_off_c, 12, 67, 56
13, 58126, Note_off_c, 12, 79, 56
13, 58139, Note_on_c, 12, 67, 113
13, 58142, Note_on_c, 12, 78, 113
13, 58161, Note_off_c, 12, 43, 56
13, 58184, Note_off_c, 12, 67, 56
13, 58187, Note_off_c, 12, 78, 56
13, 58199, Note_on_c, 12, 76, 113
13, 58200, Note_on_c, 12, 31, 108
13, 58201, Note_on_c, 12, 59, 113
13, 58244, Note_off_c, 12, 76, 56
13, 58246, Note_off_c, 12, 59, 56
13, 58258, Note_on_c, 12, 59, 113
13, 58262, Note_on_c, 12, 74, 113
13, 58281, Note_off_c, 12, 31, 56
13, 58303, Note_off_c, 12, 59, 56
13, 58307, Note_off_c, 12, 74, 56
13, 58318, Note_on_c, 12, 60, 113
13, 58319, Note_on_c, 12, 33, 108
13, 58320, Note_on_c, 12, 72, 113
13, 58363, Note_off_c, 12, 60, 56
13, 58365, Note_off_c, 12, 72, 56
13, 58378, Note_on_c, 12, 71, 113
13, 58382, Note_on_c, 12, 60, 113
13, 58400, Note_off_c, 12, 33, 56
13, 58423, Note_off_c, 12, 71, 56
13, 58427, Note_off_c, 12, 60, 56
13, 58439, Note_on_c, 12, 69, 113
13, 58440, Note_on_c, 12, 35, 108
13, 58441, Note_on_c, 12, 62, 113
13, 58484, Note_off_c, 12, 69, 56
13, 58486, Note_off_c, 12, 62, 56
13, 58498, Note_on_c, 12, 67, 113
13, 58502, Note_on_c, 12, 62, 113
13, 58521, Note_off_c, 12, 35, 56
13, 58543, Note_off_c, 12, 67, 56
13, 58547, Note_off_c, 12, 62, 56
13, 58560, Note_on_c, 12, 64, 108
13, 58561, Note_on_c, 12, 36, 108
13, 58562, Note_on_c, 12, 72, 108
13, 58683, Note_off_c, 12, 36, 64
13, 58696, Note_off_c, 12, 64, 64
13, 58698, Note_off_c, 12, 72, 64
13, 59518, Note_on_c, 12, 62, 108
13, 59521, Note_on_c, 12, 69, 108
13, 59522, Note_on_c, 12, 38, 108
13, 59644, Note_off_c, 12, 38, 64
13, 59654, Note_off_c, 12, 62, 64
13, 59657, Note_off_c, 12, 69, 64
13, 60481, Note_on_c, 12, 67, 73
13, 61057, Note_off_c, 12, 67, 64
13, 61200, Note_on_c, 12, 66, 73
13, 61382, Note_off_c, 12, 66, 64
13, 61441, Note_on_c, 12, 64, 73
13, 61623, Note_off_c, 12, 64, 64
13, 61680, Note_on_c, 12, 62, 73
13, 61862, Note_off_c, 12, 62, 64
13, 61919, Note_on_c, 12, 62, 73
13, 62038, Note_on_c, 12, 74, 78
13, 62092, Note_off_c, 12, 74, 56
13, 62101, Note_off_c, 12, 62, 64
13, 62102, Note_on_c, 12, 76, 78
13, 62156, Note_off_c, 12, 76, 56
13, 62158, Note_on_c, 12, 62, 73
13, 62160, Note_on_c, 12, 78, 78
13, 62214, Note_off_c, 12, 78, 56
13, 62218, Note_on_c, 12, 79, 78
13, 62272, Note_off_c, 12, 79, 56
13, 62282, Note_on_c, 12, 81, 78
13, 62336, Note_off_c, 12, 81, 56
13, 62338, Note_on_c, 12, 78, 78
13, 62340, Note_off_c, 12, 62, 64
13, 62392, Note_off_c, 12, 78, 56
13, 62398, Note_on_c, 12, 79, 73
13, 62399, Note_on_c, 12, 67, 73
13, 62580, Note_off_c, 12, 79, 64
13, 62975, Note_off_c, 12, 67, 64
13, 63120, Note_on_c, 12, 66, 73
13, 63302, Note_off_c, 12, 66, 64
13, 63358, Note_on_c, 12, 64, 73
13, 63540, Note_off_c, 12, 64, 64
13, 63602, Note_on_c, 12, 62, 73
13, 63784, Note_off_c, 12, 62, 64
13, 63841, Note_on_c, 12, 62, 73
13, 63962, Note_on_c, 12, 74, 78
13, 64016, Note_off_c, 12, 74, 56
13, 64019, Note_on_c, 12, 76, 78
13, 64023, Note_off_c, 12, 62, 64
13, 64073, Note_off_c, 12, 76, 56
13, 64080, Note_on_c, 12, 78, 78
13, 64081, Note_on_c, 12, 62, 73
13, 64134, Note_off_c, 12, 78, 56
13, 64141, Note_on_c, 12, 79, 78
13, 64195, Note_off_c, 12, 79, 56
13, 64198, Note_on_c, 12, 81, 78
13, 64252, Note_off_c, 12, 81, 56
13, 64260, Note_on_c, 12, 83, 78
13, 64263, Note_off_c, 12, 62, 64
13, 64314, Note_off_c, 12, 83, 56
13, 64319, Note_on_c, 12, 84, 96
13, 64319, Note_on_c, 12, 72, 73
13, 64501, Note_off_c, 12, 84, 64
13, 64895, Note_off_c, 12, 72, 64
13, 65038, Note_on_c, 12, 71, 73
13, 65220, Note_off_c, 12, 71, 64
13, 65280, Note_on_c, 12, 69, 73
13, 65462, Note_off_c, 12, 69, 64
13, 65521, Note_on_c, 12, 68, 73
13, 65703, Note_off_c, 12, 68, 64
13, 65762, Note_on_c, 12, 68, 73
13, 65881, Note_on_c, 12, 80, 78
13, 65935, Note_off_c, 12, 80, 56
13, 65942, Note_on_c, 12, 81, 78
13, 65944, Note_off_c, 12, 68, 64
13, 65996, Note_off_c, 12, 81, 56
13, 66002, Note_on_c, 12, 68, 73
13, 66002, Note_on_c, 12, 83, 78
13, 66056, Note_off_c, 12, 83, 56
13, 66062, Note_on_c, 12, 84, 78
13, 66116, Note_off_c, 12, 84, 56
13, 66120, Note_on_c, 12, 86, 78
13, 66174, Note_off_c, 12, 86, 56
13, 66178, Note_on_c, 12, 83, 78
13, 66184, Note_off_c, 12, 68, 64
13, 66232, Note_off_c, 12, 83, 56
13, 66240, Note_on_c, 12, 88, 73
13, 66241, Note_on_c, 12, 69, 73
13, 66422, Note_off_c, 12, 88, 64
13, 66625, Note_off_c, 12, 69, 64
13, 66721, Note_on_c, 12, 72, 73
13, 66780, Note_on_c, 12, 76, 78
13, 66834, Note_off_c, 12, 76, 56
13, 66841, Note_on_c, 12, 78, 78
13, 66895, Note_off_c, 12, 78, 56
13, 66898, Note_on_c, 12, 80, 78
13, 66952, Note_off_c, 12, 80, 56
13, 66960, Note_on_c, 12, 81, 78
13, 67014, Note_off_c, 12, 81, 56
13, 67019, Note_on_c, 12, 83, 78
13, 67057, Note_off_c, 12, 72, 64
13, 67073, Note_off_c, 12, 83, 56
13, 67082, Note_on_c, 12, 84, 78
13, 67136, Note_off_c, 12, 84, 56
13, 67139, Note_on_c, 12, 69, 78
13, 67140, Note_on_c, 12, 81, 78
13, 67184, Note_off_c, 12, 69, 56
13, 67194, Note_off_c, 12, 81, 56
13, 67199, Note_on_c, 12, 67, 73
13, 67202, Note_on_c, 12, 86, 73
13, 67384, Note_off_c, 12, 86, 64
13, 67583, Note_off_c, 12, 67, 64
13, 67679, Note_on_c, 12, 69, 73
13, 67798, Note_on_c, 12, 69, 78
13, 67843, Note_off_c, 12, 69, 56
13, 67861, Note_on_c, 12, 71, 78
13, 67906, Note_off_c, 12, 71, 56
13, 67921, Note_on_c, 12, 72, 78
13, 67966, Note_off_c, 12, 72, 56
13, 67979, Note_on_c, 12, 74, 78
13, 68015, Note_off_c, 12, 69, 64
13, 68024, Note_off_c, 12, 74, 56
13, 68040, Note_on_c, 12, 76, 78
13, 68085, Note_off_c, 12, 76, 56
13, 68099, Note_on_c, 12, 78, 78
13, 68100, Note_on_c, 12, 66, 78
13, 68144, Note_off_c, 12, 78, 56
13, 68145, Note_off_c, 12, 66, 56
13, 68160, Note_on_c, 12, 79, 95
13, 68161, Note_on_c, 12, 59, 95
13, 68161, Note_on_c, 12, 35, 90
13, 68162, Note_on_c, 12, 62, 95
13, 68205, Note_off_c, 12, 79, 56
13, 68206, Note_off_c, 12, 59, 56
13, 68207, Note_off_c, 12, 62, 56
13, 68218, Note_on_c, 12, 79, 95
13, 68218, Note_on_c, 12, 59, 95
13, 68219, Note_on_c, 12, 62, 95
13, 68263, Note_off_c, 12, 59, 56
13, 68263, Note_off_c, 12, 79, 56
13, 68264, Note_off_c, 12, 62, 56
13, 68279, Note_on_c, 12, 79, 95
13, 68282, Note_on_c, 12, 59, 95
13, 68282, Note_on_c, 12, 62, 95
13, 68324, Note_off_c, 12, 79, 56
13, 68327, Note_off_c, 12, 62, 56
13, 68327, Note_off_c, 12, 59, 56
13, 68338, Note_on_c, 12, 62, 95
13, 68340, Note_on_c, 12, 79, 95
13, 68341, Note_on_c, 12, 59, 95
13, 68383, Note_off_c, 12, 62, 56
13, 68385, Note_off_c, 12, 79, 56
13, 68386, Note_off_c, 12, 59, 56
13, 68398, Note_on_c, 12, 79, 95
13, 68400, Note_on_c, 12, 59, 95
13, 68402, Note_on_c, 12, 62, 95
13, 68443, Note_off_c, 12, 79, 56
13, 68445, Note_off_c, 12, 59, 56
13, 68447, Note_off_c, 12, 62, 56
13, 68458, Note_on_c, 12, 79, 95
13, 68459, Note_on_c, 12, 59, 95
13, 68460, Note_on_c, 12, 62, 95
13, 68503, Note_off_c, 12, 79, 56
13, 68504, Note_off_c, 12, 59, 56
13, 68505, Note_off_c, 12, 62, 56
13, 68519, Note_on_c, 12, 62, 95
13, 68520, Note_on_c, 12, 59, 95
13, 68522, Note_on_c, 12, 79, 95
13, 68564, Note_off_c, 12, 62, 56
13, 68565, Note_off_c, 12, 59, 56
13, 68567, Note_off_c, 12, 79, 56
13, 68578, Note_on_c, 12, 79, 95
13, 68581, Note_on_c, 12, 59, 95
13, 68581, Note_on_c, 12, 62, 95
13, 68623, Note_off_c, 12, 79, 56
13, 68626, Note_off_c, 12, 62, 56
13, 68626, Note_off_c, 12, 59, 56
13, 68638, Note_on_c, 12, 62, 95
13, 68639, Note_on_c, 12, 79, 95
13, 68639, Note_on_c, 12, 59, 95
13, 68679, Note_off_c, 12, 35, 64
13, 68683, Note_off_c, 12, 62, 56
13, 68684, Note_off_c, 12, 59, 56
13, 68684, Note_off_c, 12, 79, 56
13, 68699, Note_on_c, 12, 59, 95
13, 68701, Note_on_c, 12, 79, 95
13, 68701, Note_on_c, 12, 62, 95
13, 68744, Note_off_c, 12, 59, 56
13, 68746, Note_off_c, 12, 62, 56
13, 68746, Note_off_c, 12, 79, 56
13, 68760, Note_on_c, 12, 79, 95
13, 68761, Note_on_c, 12, 62, 95
13, 68762, Note_on_c, 12, 59, 95
13, 68805, Note_off_c, 12, 79, 56
13, 68806, Note_off_c, 12, 62, 56
13, 68807, Note_off_c, 12, 59, 56
13, 68818, Note_on_c, 12, 62, 95
13, 68820, Note_on_c, 12, 59, 95
13, 68822, Note_on_c, 12, 79, 95
13, 68863, Note_off_c, 12, 62, 56
13, 68865, Note_off_c, 12, 59, 56
13, 68867, Note_off_c, 12, 79, 56
13, 68878, Note_on_c, 12, 57, 95
13, 68879, Note_on_c, 12, 60, 95
13, 68881, Note_on_c, 12, 78, 95
13, 68883, Note_on_c, 12, 33, 90
13, 68923, Note_off_c, 12, 57, 56
13, 68924, Note_off_c, 12, 60, 56
13, 68926, Note_off_c, 12, 78, 56
13, 68939, Note_on_c, 12, 57, 95
13, 68941, Note_on_c, 12, 60, 95
13, 68942, Note_on_c, 12, 78, 95
13, 68984, Note_off_c, 12, 57, 56
13, 68986, Note_off_c, 12, 60, 56
13, 68987, Note_off_c, 12, 78, 56
13, 68998, Note_on_c, 12, 60, 95
13, 69001, Note_on_c, 12, 78, 95
13, 69002, Note_on_c, 12, 57, 95
13, 69043, Note_off_c, 12, 60, 56
13, 69046, Note_off_c, 12, 78, 56
13, 69046, Note_off_c, 12, 33, 64
13, 69047, Note_off_c, 12, 57, 56
13, 69060, Note_on_c, 12, 60, 95
13, 69061, Note_on_c, 12, 78, 95
13, 69061, Note_on_c, 12, 57, 95
13, 69105, Note_off_c, 12, 60, 56
13, 69106, Note_off_c, 12, 57, 56
13, 69106, Note_off_c, 12, 78, 56
13, 69121, Note_on_c, 12, 76, 95
13, 69122, Note_on_c, 12, 55, 95
13, 69122, Note_on_c, 12, 31, 90
13, 69122, Note_on_c, 12, 60, 95
13, 69166, Note_off_c, 12, 76, 56
13, 69167, Note_off_c, 12, 60, 56
13, 69167, Note_off_c, 12, 55, 56
13, 69178, Note_on_c, 12, 55, 95
13, 69179, Note_on_c, 12, 60, 95
13, 69181, Note_on_c, 12, 76, 95
13, 69223, Note_off_c, 12, 55, 56
13, 69224, Note_off_c, 12, 60, 56
13, 69226, Note_off_c, 12, 76, 56
13, 69239, Note_on_c, 12, 76, 95
13, 69240, Note_on_c, 12, 60, 95
13, 69241, Note_on_c, 12, 55, 95
13, 69284, Note_off_c, 12, 76, 56
13, 69285, Note_off_c, 12, 60, 56
13, 69285, Note_off_c, 12, 31, 64
13, 69286, Note_off_c, 12, 55, 56
13, 69299, Note_on_c, 12, 76, 95
13, 69299, Note_on_c, 12, 55, 95
13, 69302, Note_on_c, 12, 60, 95
13, 69344, Note_off_c, 12, 55, 56
13, 69344, Note_off_c, 12, 76, 56
13, 69347, Note_off_c, 12, 60, 56
13, 69360, Note_on_c, 12, 57, 95
13, 69360, Note_on_c, 12, 30, 90
13, 69360, Note_on_c, 12, 60, 95
13, 69362, Note_on_c, 12, 74, 95
13, 69405, Note_off_c, 12, 60, 56
13, 69405, Note_off_c, 12, 57, 56
13, 69407, Note_off_c, 12, 74, 56
13, 69419, Note_on_c, 12, 74, 95
13, 69419, Note_on_c, 12, 57, 95
13, 69422, Note_on_c, 12, 60, 95
13, 69464, Note_off_c, 12, 57, 56
13, 69464, Note_off_c, 12, 74, 56
13, 69467, Note_off_c, 12, 60, 56
13, 69479, Note_on_c, 12, 74, 95
13, 69480, Note_on_c, 12, 60, 95
13, 69482, Note_on_c, 12, 57, 95
13, 69523, Note_off_c, 12, 30, 64
13, 69524, Note_off_c, 12, 74, 56
13, 69525, Note_off_c, 12, 60, 56
13, 69527, Note_off_c, 12, 57, 56
13, 69538, Note_on_c, 12, 74, 95
13, 69539, Note_on_c, 12, 57, 95
13, 69541, Note_on_c, 12, 60, 95
13, 69583, Note_off_c, 12, 74, 56
13, 69584, Note_off_c, 12, 57, 56
13, 69586, Note_off_c, 12, 60, 56
13, 69598, Note_on_c, 12, 74, 95
13, 69600, Note_on_c, 12, 57, 95
13, 69602, Note_on_c, 12, 60, 95
13, 69602, Note_on_c, 12, 30, 90
13, 69643, Note_off_c, 12, 74, 56
13, 69645, Note_off_c, 12, 57, 56
13, 69647, Note_off_c, 12, 60, 56
13, 69659, Note_on_c, 12, 74, 95
13, 69659, Note_on_c, 12, 60, 95
13, 69660, Note_on_c, 12, 57, 95
13, 69704, Note_off_c, 12, 60, 56
13, 69704, Note_off_c, 12, 74, 56
13, 69705, Note_off_c, 12, 57, 56
13, 69719, Note_on_c, 12, 57, 95
13, 69720, Note_on_c, 12, 74, 95
13, 69720, Note_on_c, 12, 60, 95
13, 69764, Note_off_c, 12, 57, 56
13, 69765, Note_off_c, 12, 60, 56
13, 69765, Note_off_c, 12, 74, 56
13, 69765, Note_off_c, 12, 30, 64
13, 69778, Note_on_c, 12, 60, 95
13, 69781, Note_on_c, 12, 57, 95
13, 69782, Note_on_c, 12, 74, 95
13, 69823, Note_off_c, 12, 60, 56
13, 69826, Note_off_c, 12, 57, 56
13, 69827, Note_off_c, 12, 74, 56
13, 69837, Note_on_c, 12, 30, 90
13, 69838, Note_on_c, 12, 74, 95
13, 69838, Note_on_c, 12, 57, 95
13, 69840, Note_on_c, 12, 60, 95
13, 69883, Note_off_c, 12, 57, 56
13, 69883, Note_off_c, 12, 74, 56
13, 69885, Note_off_c, 12, 60, 56
13, 69898, Note_on_c, 12, 57, 95
13, 69899, Note_on_c, 12, 74, 95
13, 69901, Note_on_c, 12, 60, 95
13, 69943, Note_off_c, 12, 57, 56
13, 69944, Note_off_c, 12, 74, 56
13, 69946, Note_off_c, 12, 60, 56
13, 69961, Note_on_c, 12, 74, 95
13, 69961, Note_on_c, 12, 60, 95
13, 69961, Note_on_c, 12, 57, 95
13, 70000, Note_off_c, 12, 30, 64
13, 70006, Note_off_c, 12, 57, 56
13, 70006, Note_off_c, 12, 60, 56
13, 70006, Note_off_c, 12, 74, 56
13, 70018, Note_on_c, 12, 60, 95
13, 70019, Note_on_c, 12, 57, 95
13, 70020, Note_on_c, 12, 74, 95
13, 70063, Note_off_c, 12, 60, 56
13, 70064, Note_off_c, 12, 57, 56
13, 70065, Note_off_c, 12, 74, 56
13, 70078, Note_on_c, 12, 62, 95
13, 70078, Note_on_c, 12, 59, 95
13, 70078, Note_on_c, 12, 79, 95
13, 70079, Note_on_c, 12, 35, 96
13, 70123, Note_off_c, 12, 79, 56
13, 70123, Note_off_c, 12, 59, 56
13, 70123, Note_off_c, 12, 62, 56
13, 70138, Note_on_c, 12, 62, 95
13, 70142, Note_on_c, 12, 79, 95
13, 70142, Note_on_c, 12, 59, 95
13, 70183, Note_off_c, 12, 62, 56
13, 70187, Note_off_c, 12, 59, 56
13, 70187, Note_off_c, 12, 79, 56
13, 70198, Note_on_c, 12, 59, 95
13, 70201, Note_on_c, 12, 62, 95
13, 70202, Note_on_c, 12, 79, 95
13, 70243, Note_off_c, 12, 59, 56
13, 70246, Note_off_c, 12, 62, 56
13, 70247, Note_off_c, 12, 79, 56
13, 70260, Note_on_c, 12, 79, 95
13, 70260, Note_on_c, 12, 62, 95
13, 70260, Note_on_c, 12, 59, 95
13, 70305, Note_off_c, 12, 59, 56
13, 70305, Note_off_c, 12, 62, 56
13, 70305, Note_off_c, 12, 79, 56
13, 70319, Note_on_c, 12, 59, 95
13, 70320, Note_on_c, 12, 79, 95
13, 70320, Note_on_c, 12, 62, 95
13, 70364, Note_off_c, 12, 59, 56
13, 70365, Note_off_c, 12, 62, 56
13, 70365, Note_off_c, 12, 79, 56
13, 70378, Note_on_c, 12, 62, 95
13, 70379, Note_on_c, 12, 79, 95
13, 70380, Note_on_c, 12, 59, 95
13, 70423, Note_off_c, 12, 62, 56
13, 70424, Note_off_c, 12, 79, 56
13, 70425, Note_off_c, 12, 59, 56
13, 70438, Note_on_c, 12, 79, 95
13, 70439, Note_on_c, 12, 59, 95
13, 70440, Note_on_c, 12, 62, 95
13, 70483, Note_off_c, 12, 79, 56
13, 70484, Note_off_c, 12, 59, 56
13, 70485, Note_off_c, 12, 62, 56
13, 70499, Note_on_c, 12, 59, 95
13, 70501, Note_on_c, 12, 79, 95
13, 70502, Note_on_c, 12, 62, 95
13, 70544, Note_off_c, 12, 59, 56
13, 70546, Note_off_c, 12, 79, 56
13, 70547, Note_off_c, 12, 62, 56
13, 70559, Note_on_c, 12, 62, 95
13, 70560, Note_on_c, 12, 59, 95
13, 70561, Note_on_c, 12, 79, 95
13, 70597, Note_off_c, 12, 35, 64
13, 70604, Note_off_c, 12, 62, 56
13, 70605, Note_off_c, 12, 59, 56
13, 70606, Note_off_c, 12, 79, 56
13, 70619, Note_on_c, 12, 59, 95
13, 70619, Note_on_c, 12, 62, 95
13, 70622, Note_on_c, 12, 79, 95
13, 70664, Note_off_c, 12, 62, 56
13, 70664, Note_off_c, 12, 59, 56
13, 70667, Note_off_c, 12, 79, 56
13, 70679, Note_on_c, 12, 79, 95
13, 70680, Note_on_c, 12, 59, 95
13, 70682, Note_on_c, 12, 62, 95
13, 70724, Note_off_c, 12, 79, 56
13, 70725, Note_off_c, 12, 59, 56
13, 70727, Note_off_c, 12, 62, 56
13, 70738, Note_on_c, 12, 59, 95
13, 70739, Note_on_c, 12, 62, 95
13, 70741, Note_on_c, 12, 79, 95
13, 70783, Note_off_c, 12, 59, 56
13, 70784, Note_off_c, 12, 62, 56
13, 70786, Note_off_c, 12, 79, 56
13, 70797, Note_on_c, 12, 33, 90
13, 70798, Note_on_c, 12, 57, 95
13, 70801, Note_on_c, 12, 78, 95
13, 70802, Note_on_c, 12, 60, 95
13, 70843, Note_off_c, 12, 57, 56
13, 70846, Note_off_c, 12, 78, 56
13, 70847, Note_off_c, 12, 60, 56
13, 70860, Note_on_c, 12, 57, 95
13, 70861, Note_on_c, 12, 78, 95
13, 70861, Note_on_c, 12, 60, 95
13, 70905, Note_off_c, 12, 57, 56
13, 70906, Note_off_c, 12, 60, 56
13, 70906, Note_off_c, 12, 78, 56
13, 70919, Note_on_c, 12, 60, 95
13, 70919, Note_on_c, 12, 57, 95
13, 70920, Note_on_c, 12, 78, 95
13, 70960, Note_off_c, 12, 33, 64
13, 70964, Note_off_c, 12, 57, 56
13, 70964, Note_off_c, 12, 60, 56
13, 70965, Note_off_c, 12, 78, 56
13, 70978, Note_on_c, 12, 57, 95
13, 70979, Note_on_c, 12, 78, 95
13, 70980, Note_on_c, 12, 60, 95
13, 71023, Note_off_c, 12, 57, 56
13, 71024, Note_off_c, 12, 78, 56
13, 71025, Note_off_c, 12, 60, 56
13, 71039, Note_on_c, 12, 60, 95
13, 71039, Note_on_c, 12, 76, 95
13, 71039, Note_on_c, 12, 31, 90
13, 71040, Note_on_c, 12, 55, 95
13, 71084, Note_off_c, 12, 76, 56
13, 71084, Note_off_c, 12, 60, 56
13, 71085, Note_off_c, 12, 55, 56
13, 71098, Note_on_c, 12, 76, 95
13, 71099, Note_on_c, 12, 60, 95
13, 71099, Note_on_c, 12, 55, 95
13, 71143, Note_off_c, 12, 76, 56
13, 71144, Note_off_c, 12, 55, 56
13, 71144, Note_off_c, 12, 60, 56
13, 71160, Note_on_c, 12, 60, 95
13, 71161, Note_on_c, 12, 76, 95
13, 71162, Note_on_c, 12, 55, 95
13, 71202, Note_off_c, 12, 31, 64
13, 71205, Note_off_c, 12, 60, 56
13, 71206, Note_off_c, 12, 76, 56
13, 71207, Note_off_c, 12, 55, 56
13, 71218, Note_on_c, 12, 55, 95
13, 71219, Note_on_c, 12, 60, 95
13, 71222, Note_on_c, 12, 76, 95
13, 71263, Note_off_c, 12, 55, 56
13, 71264, Note_off_c, 12, 60, 56
13, 71267, Note_off_c, 12, 76, 56
13, 71281, Note_on_c, 12, 60, 95
13, 71281, Note_on_c, 12, 30, 90
13, 71282, Note_on_c, 12, 74, 95
13, 71282, Note_on_c, 12, 57, 95
13, 71326, Note_off_c, 12, 60, 56
13, 71327, Note_off_c, 12, 57, 56
13, 71327, Note_off_c, 12, 74, 56
13, 71338, Note_on_c, 12, 74, 95
13, 71340, Note_on_c, 12, 60, 95
13, 71341, Note_on_c, 12, 57, 95
13, 71383, Note_off_c, 12, 74, 56
13, 71385, Note_off_c, 12, 60, 56
13, 71386, Note_off_c, 12, 57, 56
13, 71401, Note_on_c, 12, 74, 95
13, 71401, Note_on_c, 12, 60, 95
13, 71401, Note_on_c, 12, 57, 95
13, 71444, Note_off_c, 12, 30, 64
13, 71446, Note_off_c, 12, 57, 56
13, 71446, Note_off_c, 12, 60, 56
13, 71446, Note_off_c, 12, 74, 56
13, 71458, Note_on_c, 12, 74, 95
13, 71460, Note_on_c, 12, 57, 95
13, 71460, Note_on_c, 12, 60, 95
13, 71503, Note_off_c, 12, 74, 56
13, 71505, Note_off_c, 12, 60, 56
13, 71505, Note_off_c, 12, 57, 56
13, 71518, Note_on_c, 12, 74, 95
13, 71519, Note_on_c, 12, 60, 95
13, 71520, Note_on_c, 12, 30, 90
13, 71521, Note_on_c, 12, 57, 95
13, 71563, Note_off_c, 12, 74, 56
13, 71564, Note_off_c, 12, 60, 56
13, 71566, Note_off_c, 12, 57, 56
13, 71579, Note_on_c, 12, 60, 95
13, 71579, Note_on_c, 12, 57, 95
13, 71582, Note_on_c, 12, 74, 95
13, 71624, Note_off_c, 12, 57, 56
13, 71624, Note_off_c, 12, 60, 56
13, 71627, Note_off_c, 12, 74, 56
13, 71638, Note_on_c, 12, 57, 95
13, 71639, Note_on_c, 12, 74, 95
13, 71641, Note_on_c, 12, 60, 95
13, 71683, Note_off_c, 12, 57, 56
13, 71683, Note_off_c, 12, 30, 64
13, 71684, Note_off_c, 12, 74, 56
13, 71686, Note_off_c, 12, 60, 56
13, 71698, Note_on_c, 12, 74, 95
13, 71699, Note_on_c, 12, 60, 95
13, 71701, Note_on_c, 12, 57, 95
13, 71743, Note_off_c, 12, 74, 56
13, 71744, Note_off_c, 12, 60, 56
13, 71746, Note_off_c, 12, 57, 56
13, 71758, Note_on_c, 12, 74, 95
13, 71761, Note_on_c, 12, 57, 95
13, 71762, Note_on_c, 12, 60, 95
13, 71762, Note_on_c, 12, 30, 90
13, 71803, Note_off_c, 12, 74, 56
13, 71806, Note_off_c, 12, 57, 56
13, 71807, Note_off_c, 12, 60, 56
13, 71819, Note_on_c, 12, 60, 95
13, 71820, Note_on_c, 12, 74, 95
13, 71821, Note_on_c, 12, 57, 95
13, 71864, Note_off_c, 12, 60, 56
13, 71865, Note_off_c, 12, 74, 56
13, 71866, Note_off_c, 12, 57, 56
13, 71878, Note_on_c, 12, 57, 95
13, 71881, Note_on_c, 12, 74, 95
13, 71882, Note_on_c, 12, 60, 95
13, 71923, Note_off_c, 12, 57, 56
13, 71925, Note_off_c, 12, 30, 64
13, 71926, Note_off_c, 12, 74, 56
13, 71927, Note_off_c, 12, 60, 56
13, 71938, Note_on_c, 12, 57, 95
13, 71940, Note_on_c, 12, 60, 95
13, 71942, Note_on_c, 12, 74, 95
13, 71983, Note_off_c, 12, 57, 56
13, 71985, Note_off_c, 12, 60, 56
13, 71987, Note_off_c, 12, 74, 56
13, 71999, Note_on_c, 12, 62, 95
13, 71999, Note_on_c, 12, 84, 95
13, 72000, Note_on_c, 12, 57, 95
13, 72003, Note_on_c, 12, 30, 90
13, 72044, Note_off_c, 12, 84, 56
13, 72044, Note_off_c, 12, 62, 56
13, 72045, Note_off_c, 12, 57, 56
13, 72058, Note_on_c, 12, 84, 95
13, 72059, Note_on_c, 12, 62, 95
13, 72060, Note_on_c, 12, 57, 95
13, 72103, Note_off_c, 12, 84, 56
13, 72104, Note_off_c, 12, 62, 56
13, 72105, Note_off_c, 12, 57, 56
13, 72118, Note_on_c, 12, 57, 95
13, 72119, Note_on_c, 12, 62, 95
13, 72120, Note_on_c, 12, 84, 95
13, 72163, Note_off_c, 12, 57, 56
13, 72164, Note_off_c, 12, 62, 56
13, 72165, Note_off_c, 12, 84, 56
13, 72178, Note_on_c, 12, 84, 97
13, 72180, Note_on_c, 12, 62, 97
13, 72182, Note_on_c, 12, 57, 97
13, 72223, Note_off_c, 12, 84, 56
13, 72225, Note_off_c, 12, 62, 56
13, 72227, Note_off_c, 12, 57, 56
13, 72238, Note_on_c, 12, 57, 97
13, 72239, Note_on_c, 12, 62, 97
13, 72241, Note_on_c, 12, 84, 97
13, 72283, Note_off_c, 12, 57, 56
13, 72284, Note_off_c, 12, 62, 56
13, 72286, Note_off_c, 12, 84, 56
13, 72299, Note_on_c, 12, 57, 97
13, 72301, Note_on_c, 12, 84, 97
13, 72301, Note_on_c, 12, 62, 97
13, 72344, Note_off_c, 12, 57, 56
13, 72346, Note_off_c, 12, 62, 56
13, 72346, Note_off_c, 12, 84, 56
13, 72359, Note_on_c, 12, 84, 97
13, 72359, Note_on_c, 12, 57, 97
13, 72361, Note_on_c, 12, 62, 97
13, 72404, Note_off_c, 12, 57, 56
13, 72404, Note_off_c, 12, 84, 56
13, 72406, Note_off_c, 12, 62, 56
13, 72419, Note_on_c, 12, 62, 98
13, 72419, Note_on_c, 12, 57, 98
13, 72420, Note_on_c, 12, 84, 98
13, 72464, Note_off_c, 12, 57, 56
13, 72464, Note_off_c, 12, 62, 56
13, 72465, Note_off_c, 12, 84, 56
13, 72478, Note_on_c, 12, 57, 98
13, 72482, Note_on_c, 12, 84, 98
13, 72482, Note_on_c, 12, 62, 98
13, 72521, Note_off_c, 12, 30, 64
13, 72523, Note_off_c, 12, 57, 56
13, 72527, Note_off_c, 12, 62, 56
13, 72527, Note_off_c, 12, 84, 56
13, 72541, Note_on_c, 12, 62, 98
13, 72542, Note_on_c, 12, 84, 98
13, 72542, Note_on_c, 12, 57, 98
13, 72586, Note_off_c, 12, 62, 56
13, 72587, Note_off_c, 12, 57, 56
13, 72587, Note_off_c, 12, 84, 56
13, 72600, Note_on_c, 12, 84, 98
13, 72601, Note_on_c, 12, 57, 98
13, 72602, Note_on_c, 12, 62, 98
13, 72645, Note_off_c, 12, 84, 56
13, 72646, Note_off_c, 12, 57, 56
13, 72647, Note_off_c, 12, 62, 56
13, 72658, Note_on_c, 12, 57, 99
13, 72659, Note_on_c, 12, 62, 99
13, 72662, Note_on_c, 12, 84, 99
13, 72703, Note_off_c, 12, 57, 56
13, 72704, Note_off_c, 12, 62, 56
13, 72707, Note_off_c, 12, 84, 56
13, 72719, Note_on_c, 12, 59, 99
13, 72721, Note_on_c, 12, 83, 99
13, 72721, Note_on_c, 12, 31, 94
13, 72721, Note_on_c, 12, 62, 99
13, 72764, Note_off_c, 12, 59, 56
13, 72766, Note_off_c, 12, 62, 56
13, 72766, Note_off_c, 12, 83, 56
13, 72778, Note_on_c, 12, 83, 99
13, 72780, Note_on_c, 12, 62, 99
13, 72781, Note_on_c, 12, 59, 99
13, 72823, Note_off_c, 12, 83, 56
13, 72825, Note_off_c, 12, 62, 56
13, 72826, Note_off_c, 12, 59, 56
13, 72838, Note_on_c, 12, 59, 99
13, 72839, Note_on_c, 12, 83, 99
13, 72842, Note_on_c, 12, 62, 99
13, 72883, Note_off_c, 12, 59, 56
13, 72884, Note_off_c, 12, 83, 56
13, 72884, Note_off_c, 12, 31, 64
13, 72887, Note_off_c, 12, 62, 56
13, 72898, Note_on_c, 12, 83, 99
13, 72898, Note_on_c, 12, 62, 100
13, 72902, Note_on_c, 12, 59, 100
13, 72943, Note_off_c, 12, 62, 56
13, 72943, Note_off_c, 12, 83, 56
13, 72947, Note_off_c, 12, 59, 56
13, 72958, Note_on_c, 12, 81, 100
13, 72959, Note_on_c, 12, 60, 100
13, 72961, Note_on_c, 12, 64, 100
13, 72962, Note_on_c, 12, 36, 95
13, 73003, Note_off_c, 12, 81, 56
13, 73004, Note_off_c, 12, 60, 56
13, 73006, Note_off_c, 12, 64, 56
13, 73018, Note_on_c, 12, 81, 100
13, 73018, Note_on_c, 12, 64, 100
13, 73021, Note_on_c, 12, 60, 100
13, 73063, Note_off_c, 12, 64, 56
13, 73063, Note_off_c, 12, 81, 56
13, 73066, Note_off_c, 12, 60, 56
13, 73079, Note_on_c, 12, 64, 100
13, 73080, Note_on_c, 12, 81, 100
13, 73080, Note_on_c, 12, 60, 100
13, 73124, Note_off_c, 12, 64, 56
13, 73125, Note_off_c, 12, 60, 56
13, 73125, Note_off_c, 12, 81, 56
13, 73125, Note_off_c, 12, 36, 64
13, 73139, Note_on_c, 12, 60, 100
13, 73140, Note_on_c, 12, 81, 100
13, 73142, Note_on_c, 12, 64, 100
13, 73184, Note_off_c, 12, 60, 56
13, 73185, Note_off_c, 12, 81, 56
13, 73187, Note_off_c, 12, 64, 56
13, 73198, Note_on_c, 12, 60, 101
13, 73198, Note_on_c, 12, 36, 96
13, 73200, Note_on_c, 12, 65, 101
13, 73202, Note_on_c, 12, 80, 101
13, 73243, Note_off_c, 12, 60, 56
13, 73245, Note_off_c, 12, 65, 56
13, 73247, Note_off_c, 12, 80, 56
13, 73259, Note_on_c, 12, 80, 101
13, 73259, Note_on_c, 12, 65, 101
13, 73260, Note_on_c, 12, 60, 101
13, 73304, Note_off_c, 12, 65, 56
13, 73304, Note_off_c, 12, 80, 56
13, 73305, Note_off_c, 12, 60, 56
13, 73318, Note_on_c, 12, 80, 101
13, 73321, Note_on_c, 12, 60, 101
13, 73321, Note_on_c, 12, 65, 101
13, 73361, Note_off_c, 12, 36, 64
13, 73363, Note_off_c, 12, 80, 56
13, 73366, Note_off_c, 12, 65, 56
13, 73366, Note_off_c, 12, 60, 56
13, 73379, Note_on_c, 12, 60, 101
13, 73380, Note_on_c, 12, 65, 101
13, 73382, Note_on_c, 12, 80, 101
13, 73424, Note_off_c, 12, 60, 56
13, 73425, Note_off_c, 12, 65, 56
13, 73427, Note_off_c, 12, 80, 56
13, 73437, Note_on_c, 12, 36, 97
13, 73439, Note_on_c, 12, 60, 102
13, 73440, Note_on_c, 12, 65, 102
13, 73441, Note_on_c, 12, 80, 102
13, 73484, Note_off_c, 12, 60, 56
13, 73485, Note_off_c, 12, 65, 56
13, 73486, Note_off_c, 12, 80, 56
13, 73498, Note_on_c, 12, 80, 102
13, 73500, Note_on_c, 12, 65, 102
13, 73501, Note_on_c, 12, 60, 102
13, 73543, Note_off_c, 12, 80, 56
13, 73545, Note_off_c, 12, 65, 56
13, 73546, Note_off_c, 12, 60, 56
13, 73560, Note_on_c, 12, 60, 102
13, 73560, Note_on_c, 12, 65, 102
13, 73561, Note_on_c, 12, 80, 102
13, 73600, Note_off_c, 12, 36, 64
13, 73605, Note_off_c, 12, 65, 56
13, 73605, Note_off_c, 12, 60, 56
13, 73606, Note_off_c, 12, 80, 56
13, 73618, Note_on_c, 12, 60, 102
13, 73621, Note_on_c, 12, 65, 102
13, 73622, Note_on_c, 12, 80, 102
13, 73663, Note_off_c, 12, 60, 56
13, 73666, Note_off_c, 12, 65, 56
13, 73667, Note_off_c, 12, 80, 56
13, 73679, Note_on_c, 12, 60, 103
13, 73680, Note_on_c, 12, 65, 103
13, 73680, Note_on_c, 12, 36, 98
13, 73681, Note_on_c, 12, 80, 102
13, 73724, Note_off_c, 12, 60, 56
13, 73725, Note_off_c, 12, 65, 56
13, 73726, Note_off_c, 12, 80, 56
13, 73739, Note_on_c, 12, 80, 103
13, 73740, Note_on_c, 12, 65, 103
13, 73742, Note_on_c, 12, 60, 103
13, 73784, Note_off_c, 12, 80, 56
13, 73785, Note_off_c, 12, 65, 56
13, 73787, Note_off_c, 12, 60, 56
13, 73799, Note_on_c, 12, 80, 103
13, 73800, Note_on_c, 12, 65, 103
13, 73801, Note_on_c, 12, 60, 103
13, 73843, Note_off_c, 12, 36, 64
13, 73844, Note_off_c, 12, 80, 56
13, 73845, Note_off_c, 12, 65, 56
13, 73846, Note_off_c, 12, 60, 56
13, 73858, Note_on_c, 12, 80, 103
13, 73860, Note_on_c, 12, 65, 103
13, 73860, Note_on_c, 12, 60, 103
13, 73903, Note_off_c, 12, 80, 56
13, 73905, Note_off_c, 12, 60, 56
13, 73905, Note_off_c, 12, 65, 56
13, 73919, Note_on_c, 12, 36, 98
13, 73921, Note_on_c, 12, 60, 103
13, 73922, Note_on_c, 12, 80, 103
13, 73922, Note_on_c, 12, 65, 103
13, 73966, Note_off_c, 12, 60, 56
13, 73967, Note_off_c, 12, 65, 56
13, 73967, Note_off_c, 12, 80, 56
13, 73978, Note_on_c, 12, 65, 105
13, 73978, Note_on_c, 12, 60, 105
13, 73979, Note_on_c, 12, 80, 105
13, 74023, Note_off_c, 12, 60, 56
13, 74023, Note_off_c, 12, 65, 56
13, 74024, Note_off_c, 12, 80, 56
13, 74039, Note_on_c, 12, 60, 105
13, 74040, Note_on_c, 12, 80, 105
13, 74042, Note_on_c, 12, 65, 105
13, 74082, Note_off_c, 12, 36, 64
13, 74084, Note_off_c, 12, 60, 56
13, 74085, Note_off_c, 12, 80, 56
13, 74087, Note_off_c, 12, 65, 56
13, 74099, Note_on_c, 12, 60, 105
13, 74099, Note_on_c, 12, 65, 105
13, 74101, Note_on_c, 12, 80, 105
13, 74144, Note_off_c, 12, 65, 56
13, 74144, Note_off_c, 12, 60, 56
13, 74146, Note_off_c, 12, 80, 56
13, 74158, Note_on_c, 12, 80, 105
13, 74158, Note_on_c, 12, 36, 100
13, 74158, Note_on_c, 12, 65, 105
13, 74161, Note_on_c, 12, 60, 105
13, 74203, Note_off_c, 12, 65, 56
13, 74203, Note_off_c, 12, 80, 56
13, 74206, Note_off_c, 12, 60, 56
13, 74219, Note_on_c, 12, 60, 106
13, 74221, Note_on_c, 12, 80, 106
13, 74221, Note_on_c, 12, 65, 106
13, 74264, Note_off_c, 12, 60, 56
13, 74266, Note_off_c, 12, 65, 56
13, 74266, Note_off_c, 12, 80, 56
13, 74279, Note_on_c, 12, 80, 106
13, 74279, Note_on_c, 12, 60, 106
13, 74281, Note_on_c, 12, 65, 106
13, 74321, Note_off_c, 12, 36, 64
13, 74324, Note_off_c, 12, 60, 56
13, 74324, Note_off_c, 12, 80, 56
13, 74326, Note_off_c, 12, 65, 56
13, 74338, Note_on_c, 12, 80, 106
13, 74341, Note_on_c, 12, 65, 106
13, 74342, Note_on_c, 12, 60, 106
13, 74383, Note_off_c, 12, 80, 56
13, 74386, Note_off_c, 12, 65, 56
13, 74387, Note_off_c, 12, 60, 56
13, 74399, Note_on_c, 12, 65, 106
13, 74401, Note_on_c, 12, 60, 106
13, 74401, Note_on_c, 12, 36, 101
13, 74402, Note_on_c, 12, 80, 106
13, 74444, Note_off_c, 12, 65, 56
13, 74446, Note_off_c, 12, 60, 56
13, 74447, Note_off_c, 12, 80, 56
13, 74461, Note_on_c, 12, 80, 106
13, 74461, Note_on_c, 12, 65, 107
13, 74462, Note_on_c, 12, 60, 107
13, 74506, Note_off_c, 12, 65, 56
13, 74506, Note_off_c, 12, 80, 56
13, 74507, Note_off_c, 12, 60, 56
13, 74518, Note_on_c, 12, 80, 107
13, 74518, Note_on_c, 12, 60, 107
13, 74519, Note_on_c, 12, 65, 107
13, 74563, Note_off_c, 12, 60, 56
13, 74563, Note_off_c, 12, 80, 56
13, 74564, Note_off_c, 12, 65, 56
13, 74564, Note_off_c, 12, 36, 64
13, 74578, Note_on_c, 12, 80, 107
13, 74578, Note_on_c, 12, 60, 107
13, 74582, Note_on_c, 12, 65, 107
13, 74623, Note_off_c, 12, 60, 56
13, 74623, Note_off_c, 12, 80, 56
13, 74627, Note_off_c, 12, 65, 56
13, 74637, Note_on_c, 12, 36, 102
13, 74638, Note_on_c, 12, 80, 107
13, 74638, Note_on_c, 12, 65, 107
13, 74639, Note_on_c, 12, 60, 107
13, 74683, Note_off_c, 12, 65, 56
13, 74683, Note_off_c, 12, 80, 56
13, 74684, Note_off_c, 12, 60, 56
13, 74698, Note_on_c, 12, 60, 108
13, 74699, Note_on_c, 12, 65, 108
13, 74701, Note_on_c, 12, 80, 107
13, 74743, Note_off_c, 12, 60, 56
13, 74744, Note_off_c, 12, 65, 56
13, 74746, Note_off_c, 12, 80, 56
13, 74759, Note_on_c, 12, 65, 108
13, 74760, Note_on_c, 12, 80, 108
13, 74762, Note_on_c, 12, 60, 108
13, 74800, Note_off_c, 12, 36, 64
13, 74804, Note_off_c, 12, 65, 56
13, 74805, Note_off_c, 12, 80, 56
13, 74807, Note_off_c, 12, 60, 56
13, 74818, Note_on_c, 12, 80, 108
13, 74818, Note_on_c, 12, 60, 108
13, 74820, Note_on_c, 12, 65, 108
13, 74863, Note_off_c, 12, 60, 56
13, 74863, Note_off_c, 12, 80, 56
13, 74865, Note_off_c, 12, 65, 56
13, 74878, Note_on_c, 12, 60, 108
13, 74878, Note_on_c, 12, 80, 108
13, 74880, Note_on_c, 12, 65, 108
13, 74883, Note_on_c, 12, 36, 103
13, 74923, Note_off_c, 12, 80, 56
13, 74923, Note_off_c, 12, 60, 56
13, 74925, Note_off_c, 12, 65, 56
13, 74938, Note_on_c, 12, 65, 108
13, 74939, Note_on_c, 12, 80, 108
13, 74940, Note_on_c, 12, 60, 108
13, 74983, Note_off_c, 12, 65, 56
13, 74984, Note_off_c, 12, 80, 56
13, 74985, Note_off_c, 12, 60, 56
13, 75000, Note_on_c, 12, 60, 109
13, 75000, Note_on_c, 12, 65, 109
13, 75001, Note_on_c, 12, 80, 109
13, 75045, Note_off_c, 12, 65, 56
13, 75045, Note_off_c, 12, 60, 56
13, 75046, Note_off_c, 12, 80, 56
13, 75046, Note_off_c, 12, 36, 64
13, 75058, Note_on_c, 12, 60, 109
13, 75058, Note_on_c, 12, 65, 109
13, 75059, Note_on_c, 12, 80, 109
13, 75103, Note_off_c, 12, 65, 56
13, 75103, Note_off_c, 12, 60, 56
13, 75104, Note_off_c, 12, 80, 56
13, 75118, Note_on_c, 12, 84, 109
13, 75121, Note_on_c, 12, 68, 109
13, 75121, Note_on_c, 12, 65, 109
13, 75123, Note_on_c, 12, 36, 104
13, 75163, Note_off_c, 12, 84, 56
13, 75166, Note_off_c, 12, 65, 56
13, 75166, Note_off_c, 12, 68, 56
13, 75179, Note_on_c, 12, 68, 109
13, 75181, Note_on_c, 12, 84, 109
13, 75182, Note_on_c, 12, 65, 109
13, 75224, Note_off_c, 12, 68, 56
13, 75226, Note_off_c, 12, 84, 56
13, 75227, Note_off_c, 12, 65, 56
13, 75238, Note_on_c, 12, 84, 110
13, 75238, Note_on_c, 12, 65, 110
13, 75240, Note_on_c, 12, 68, 110
13, 75283, Note_off_c, 12, 65, 56
13, 75283, Note_off_c, 12, 84, 56
13, 75285, Note_off_c, 12, 68, 56
13, 75286, Note_off_c, 12, 36, 64
13, 75298, Note_on_c, 12, 65, 110
13, 75300, Note_on_c, 12, 84, 110
13, 75300, Note_on_c, 12, 68, 110
13, 75343, Note_off_c, 12, 65, 56
13, 75345, Note_off_c, 12, 68, 56
13, 75345, Note_off_c, 12, 84, 56
13, 75358, Note_on_c, 12, 68, 110
13, 75359, Note_on_c, 12, 84, 110
13, 75359, Note_on_c, 12, 65, 110
13, 75363, Note_on_c, 12, 36, 105
13, 75403, Note_off_c, 12, 68, 56
13, 75404, Note_off_c, 12, 65, 56
13, 75404, Note_off_c, 12, 84, 56
13, 75419, Note_on_c, 12, 65, 110
13, 75421, Note_on_c, 12, 84, 110
13, 75421, Note_on_c, 12, 68, 110
13, 75464, Note_off_c, 12, 65, 56
13, 75466, Note_off_c, 12, 68, 56
13, 75466, Note_off_c, 12, 84, 56
13, 75478, Note_on_c, 12, 84, 110
13, 75478, Note_on_c, 12, 68, 111
13, 75479, Note_on_c, 12, 65, 111
13, 75523, Note_off_c, 12, 68, 56
13, 75523, Note_off_c, 12, 84, 56
13, 75524, Note_off_c, 12, 65, 56
13, 75526, Note_off_c, 12, 36, 64
13, 75539, Note_on_c, 12, 84, 111
13, 75540, Note_on_c, 12, 65, 111
13, 75542, Note_on_c, 12, 68, 111
13, 75584, Note_off_c, 12, 84, 56
13, 75585, Note_off_c, 12, 65, 56
13, 75587, Note_off_c, 12, 68, 56
13, 75598, Note_on_c, 12, 68, 111
13, 75600, Note_on_c, 12, 65, 111
13, 75601, Note_on_c, 12, 84, 111
13, 75601, Note_on_c, 12, 36, 106
13, 75643, Note_off_c, 12, 68, 56
13, 75645, Note_off_c, 12, 65, 56
13, 75646, Note_off_c, 12, 84, 56
13, 75659, Note_on_c, 12, 68, 111
13, 75660, Note_on_c, 12, 84, 111
13, 75660, Note_on_c, 12, 65, 111
13, 75704, Note_off_c, 12, 68, 56
13, 75705, Note_off_c, 12, 65, 56
13, 75705, Note_off_c, 12, 84, 56
13, 75720, Note_on_c, 12, 65, 111
13, 75721, Note_on_c, 12, 84, 111
13, 75721, Note_on_c, 12, 68, 111
13, 75764, Note_off_c, 12, 36, 64
13, 75765, Note_off_c, 12, 65, 56
13, 75766, Note_off_c, 12, 68, 56
13, 75766, Note_off_c, 12, 84, 56
13, 75780, Note_on_c, 12, 68, 113
13, 75781, Note_on_c, 12, 65, 113
13, 75782, Note_on_c, 12, 84, 113
13, 75825, Note_off_c, 12, 68, 56
13, 75826, Note_off_c, 12, 65, 56
13, 75827, Note_off_c, 12, 84, 56
13, 75838, Note_on_c, 12, 65, 108
13, 75838, Note_on_c, 12, 68, 108
13, 75838, Note_on_c, 12, 89, 108
13, 75840, Note_on_c, 12, 29, 108
13, 75901, Note_off_c, 12, 29, 56
13, 75961, Note_on_c, 12, 24, 108
13, 76022, Note_off_c, 12, 24, 56
13, 76079, Note_on_c, 12, 32, 108
13, 76140, Note_off_c, 12, 32, 56
13, 76200, Note_on_c, 12, 29, 108
13, 76281, Note_off_c, 12, 29, 56
13, 76321, Note_on_c, 12, 32, 108
13, 76382, Note_off_c, 12, 32, 56
13, 76441, Note_on_c, 12, 29, 108
13, 76502, Note_off_c, 12, 29, 56
13, 76560, Note_on_c, 12, 36, 108
13, 76641, Note_off_c, 12, 36, 56
13, 76679, Note_on_c, 12, 32, 108
13, 76760, Note_off_c, 12, 32, 56
13, 76801, Note_on_c, 12, 36, 108
13, 76862, Note_off_c, 12, 36, 56
13, 76920, Note_on_c, 12, 32, 108
13, 76981, Note_off_c, 12, 32, 56
13, 77039, Note_on_c, 12, 41, 108
13, 77100, Note_off_c, 12, 41, 56
13, 77159, Note_on_c, 12, 36, 108
13, 77240, Note_off_c, 12, 36, 56
13, 77279, Note_on_c, 12, 41, 108
13, 77360, Note_off_c, 12, 41, 56
13, 77400, Note_on_c, 12, 36, 108
13, 77461, Note_off_c, 12, 36, 56
13, 77519, Note_on_c, 12, 44, 108
13, 77566, Note_off_c, 12, 89, 64
13, 77566, Note_off_c, 12, 68, 64
13, 77566, Note_off_c, 12, 65, 64
13, 77600, Note_off_c, 12, 44, 56
13, 77640, Note_on_c, 12, 41, 108
13, 77721, Note_off_c, 12, 41, 56
13, 77757, Note_on_c, 12, 43, 108
13, 77758, Note_on_c, 12, 50, 108
13, 77762, Note_on_c, 12, 71, 108
13, 77762, Note_on_c, 12, 55, 108
13, 77830, Note_off_c, 12, 55, 56
13, 77830, Note_off_c, 12, 71, 56
13, 77881, Note_on_c, 12, 55, 108
13, 77949, Note_off_c, 12, 55, 56
13, 77998, Note_on_c, 12, 59, 108
13, 78066, Note_off_c, 12, 59, 56
13, 78122, Note_on_c, 12, 55, 108
13, 78213, Note_off_c, 12, 55, 56
13, 78242, Note_on_c, 12, 59, 108
13, 78333, Note_off_c, 12, 59, 56
13, 78334, Note_off_c, 12, 50, 64
13, 78358, Note_on_c, 12, 55, 108
13, 78426, Note_off_c, 12, 55, 56
13, 78479, Note_on_c, 12, 62, 108
13, 78479, Note_on_c, 12, 50, 108
13, 78547, Note_off_c, 12, 62, 56
13, 78570, Note_off_c, 12, 50, 56
13, 78599, Note_on_c, 12, 53, 108
13, 78600, Note_on_c, 12, 59, 108
13, 78690, Note_off_c, 12, 53, 56
13, 78691, Note_off_c, 12, 59, 56
13, 78721, Note_on_c, 12, 62, 108
13, 78721, Note_on_c, 12, 50, 108
13, 78722, Note_on_c, 12, 53, 108
13, 78789, Note_off_c, 12, 50, 56
13, 78789, Note_off_c, 12, 62, 56
13, 78790, Note_off_c, 12, 53, 56
13, 78840, Note_on_c, 12, 59, 108
13, 78840, Note_on_c, 12, 53, 108
13, 78908, Note_off_c, 12, 53, 56
13, 78908, Note_off_c, 12, 59, 56
13, 78958, Note_on_c, 12, 65, 108
13, 78961, Note_on_c, 12, 50, 108
13, 78961, Note_on_c, 12, 53, 108
13, 79026, Note_off_c, 12, 65, 56
13, 79029, Note_off_c, 12, 53, 56
13, 79029, Note_off_c, 12, 50, 56
13, 79081, Note_on_c, 12, 59, 108
13, 79082, Note_on_c, 12, 62, 108
13, 79082, Note_on_c, 12, 53, 108
13, 79172, Note_off_c, 12, 59, 56
13, 79173, Note_off_c, 12, 53, 56
13, 79173, Note_off_c, 12, 62, 56
13, 79200, Note_on_c, 12, 59, 108
13, 79201, Note_on_c, 12, 53, 108
13, 79202, Note_on_c, 12, 65, 108
13, 79268, Note_off_c, 12, 59, 56
13, 79269, Note_off_c, 12, 53, 56
13, 79293, Note_off_c, 12, 65, 56
13, 79322, Note_on_c, 12, 59, 108
13, 79322, Note_on_c, 12, 62, 108
13, 79390, Note_off_c, 12, 62, 56
13, 79390, Note_off_c, 12, 59, 56
13, 79438, Note_on_c, 12, 53, 108
13, 79438, Note_on_c, 12, 59, 108
13, 79440, Note_on_c, 12, 71, 108
13, 79485, Note_off_c, 12, 43, 64
13, 79529, Note_off_c, 12, 59, 56
13, 79529, Note_off_c, 12, 53, 56
13, 79531, Note_off_c, 12, 71, 56
13, 79559, Note_on_c, 12, 65, 108
13, 79560, Note_on_c, 12, 62, 108
13, 79562, Note_on_c, 12, 59, 108
13, 79650, Note_off_c, 12, 65, 56
13, 79651, Note_off_c, 12, 62, 56
13, 79653, Note_off_c, 12, 59, 56
13, 79678, Note_on_c, 12, 59, 108
13, 79679, Note_on_c, 12, 53, 108
13, 79681, Note_on_c, 12, 71, 108
13, 79681, Note_on_c, 12, 50, 108
13, 79746, Note_off_c, 12, 59, 56
13, 79747, Note_off_c, 12, 53, 56
13, 79749, Note_off_c, 12, 71, 56
13, 79762, Note_off_c, 12, 50, 56
13, 79798, Note_on_c, 12, 59, 108
13, 79799, Note_on_c, 12, 53, 108
13, 79801, Note_on_c, 12, 65, 108
13, 79802, Note_on_c, 12, 62, 108
13, 79866, Note_off_c, 12, 59, 56
13, 79869, Note_off_c, 12, 65, 56
13, 79870, Note_off_c, 12, 62, 56
13, 79880, Note_off_c, 12, 53, 56
13, 79918, Note_on_c, 12, 74, 108
13, 79918, Note_on_c, 12, 62, 108
13, 79919, Note_on_c, 12, 59, 108
13, 79920, Note_on_c, 12, 47, 108
13, 79986, Note_off_c, 12, 74, 56
13, 80001, Note_off_c, 12, 47, 56
13, 80009, Note_off_c, 12, 62, 56
13, 80010, Note_off_c, 12, 59, 56
13, 80038, Note_on_c, 12, 65, 108
13, 80039, Note_on_c, 12, 62, 108
13, 80041, Note_on_c, 12, 71, 108
13, 80041, Note_on_c, 12, 50, 108
13, 80109, Note_off_c, 12, 71, 56
13, 80122, Note_off_c, 12, 50, 56
13, 80129, Note_off_c, 12, 65, 56
13, 80130, Note_off_c, 12, 62, 56
13, 80158, Note_on_c, 12, 77, 108
13, 80159, Note_on_c, 12, 43, 108
13, 80161, Note_on_c, 12, 65, 108
13, 80162, Note_on_c, 12, 62, 108
13, 80226, Note_off_c, 12, 77, 56
13, 80229, Note_off_c, 12, 65, 56
13, 80230, Note_off_c, 12, 62, 56
13, 80240, Note_off_c, 12, 43, 56
13, 80279, Note_on_c, 12, 71, 108
13, 80280, Note_on_c, 12, 74, 108
13, 80280, Note_on_c, 12, 47, 108
13, 80282, Note_on_c, 12, 65, 108
13, 80347, Note_off_c, 12, 71, 56
13, 80348, Note_off_c, 12, 74, 56
13, 80350, Note_off_c, 12, 65, 56
13, 80361, Note_off_c, 12, 47, 56
13, 80398, Note_on_c, 12, 71, 108
13, 80399, Note_on_c, 12, 65, 108
13, 80400, Note_on_c, 12, 83, 108
13, 80400, Note_on_c, 12, 41, 108
13, 80466, Note_off_c, 12, 71, 56
13, 80467, Note_off_c, 12, 65, 56
13, 80468, Note_off_c, 12, 83, 56
13, 80481, Note_off_c, 12, 41, 56
13, 80518, Note_on_c, 12, 71, 108
13, 80521, Note_on_c, 12, 77, 108
13, 80521, Note_on_c, 12, 43, 108
13, 80521, Note_on_c, 12, 74, 108
13, 80586, Note_off_c, 12, 71, 56
13, 80589, Note_off_c, 12, 74, 56
13, 80589, Note_off_c, 12, 77, 56
13, 80602, Note_off_c, 12, 43, 56
13, 80638, Note_on_c, 12, 71, 108
13, 80639, Note_on_c, 12, 38, 108
13, 80641, Note_on_c, 12, 74, 108
13, 80642, Note_on_c, 12, 83, 108
13, 80706, Note_off_c, 12, 71, 56
13, 80709, Note_off_c, 12, 74, 56
13, 80710, Note_off_c, 12, 83, 56
13, 80720, Note_off_c, 12, 38, 56
13, 80758, Note_on_c, 12, 77, 108
13, 80760, Note_on_c, 12, 74, 108
13, 80760, Note_on_c, 12, 41, 108
13, 80826, Note_off_c, 12, 77, 56
13, 80828, Note_off_c, 12, 74, 56
13, 80841, Note_off_c, 12, 41, 56
13, 80878, Note_on_c, 12, 74, 108
13, 80879, Note_on_c, 12, 77, 108
13, 80880, Note_on_c, 12, 86, 108
13, 80881, Note_on_c, 12, 35, 108
13, 80962, Note_off_c, 12, 35, 56
13, 80999, Note_on_c, 12, 38, 108
13, 81060, Note_off_c, 12, 74, 64
13, 81061, Note_off_c, 12, 77, 64
13, 81062, Note_off_c, 12, 86, 64
13, 81080, Note_off_c, 12, 38, 56
13, 81121, Note_on_c, 12, 31, 108
13, 81202, Note_off_c, 12, 31, 56
13, 81240, Note_on_c, 12, 43, 108
13, 81321, Note_off_c, 12, 43, 56
13, 81360, Note_on_c, 12, 71, 108
13, 81360, Note_on_c, 12, 43, 108
13, 81362, Note_on_c, 12, 67, 108
13, 81362, Note_on_c, 12, 55, 108
13, 81441, Note_off_c, 12, 43, 56
13, 81480, Note_on_c, 12, 43, 108
13, 81542, Note_off_c, 12, 71, 64
13, 81544, Note_off_c, 12, 55, 64
13, 81544, Note_off_c, 12, 67, 64
13, 81561, Note_off_c, 12, 43, 56
13, 81598, Note_on_c, 12, 55, 108
13, 81599, Note_on_c, 12, 60, 113
13, 81600, Note_on_c, 12, 72, 108
13, 81601, Note_on_c, 12, 48, 113
13, 81603, Note_on_c, 12, 36, 108
13, 81644, Note_off_c, 12, 60, 56
13, 81646, Note_off_c, 12, 48, 56
13, 81660, Note_on_c, 12, 48, 113
13, 81661, Note_on_c, 12, 60, 113
13, 81705, Note_off_c, 12, 48, 56
13, 81706, Note_off_c, 12, 60, 56
13, 81721, Note_on_c, 12, 60, 113
13, 81722, Note_on_c, 12, 48, 113
13, 81766, Note_off_c, 12, 60, 56
13, 81766, Note_off_c, 12, 36, 64
13, 81767, Note_off_c, 12, 48, 56
13, 81780, Note_off_c, 12, 55, 64
13, 81780, Note_on_c, 12, 48, 113
13, 81781, Note_on_c, 12, 60, 113
13, 81782, Note_off_c, 12, 72, 64
13, 81825, Note_off_c, 12, 48, 56
13, 81826, Note_off_c, 12, 60, 56
13, 81839, Note_on_c, 12, 60, 113
13, 81841, Note_on_c, 12, 48, 113
13, 81841, Note_on_c, 12, 55, 108
13, 81842, Note_on_c, 12, 64, 108
13, 81884, Note_off_c, 12, 60, 56
13, 81886, Note_off_c, 12, 48, 56
13, 81898, Note_on_c, 12, 60, 113
13, 81902, Note_on_c, 12, 48, 113
13, 81943, Note_off_c, 12, 60, 56
13, 81947, Note_off_c, 12, 48, 56
13, 81959, Note_on_c, 12, 60, 113
13, 81960, Note_on_c, 12, 48, 113
13, 82004, Note_off_c, 12, 60, 56
13, 82005, Note_off_c, 12, 48, 56
13, 82020, Note_on_c, 12, 48, 113
13, 82020, Note_on_c, 12, 60, 113
13, 82023, Note_off_c, 12, 55, 64
13, 82024, Note_off_c, 12, 64, 64
13, 82065, Note_off_c, 12, 60, 56
13, 82065, Note_off_c, 12, 48, 56
13, 82079, Note_on_c, 12, 76, 108
13, 82079, Note_on_c, 12, 36, 108
13, 82079, Note_on_c, 12, 48, 113
13, 82081, Note_on_c, 12, 60, 113
13, 82124, Note_off_c, 12, 48, 56
13, 82126, Note_off_c, 12, 60, 56
13, 82139, Note_on_c, 12, 48, 113
13, 82141, Note_on_c, 12, 60, 113
13, 82184, Note_off_c, 12, 48, 56
13, 82186, Note_off_c, 12, 60, 56
13, 82198, Note_on_c, 12, 48, 113
13, 82199, Note_on_c, 12, 60, 113
13, 82242, Note_off_c, 12, 36, 64
13, 82243, Note_off_c, 12, 48, 56
13, 82244, Note_off_c, 12, 60, 56
13, 82258, Note_on_c, 12, 48, 113
13, 82258, Note_on_c, 12, 60, 113
13, 82261, Note_off_c, 12, 76, 64
13, 82303, Note_off_c, 12, 60, 56
13, 82303, Note_off_c, 12, 48, 56
13, 82318, Note_on_c, 12, 60, 113
13, 82319, Note_on_c, 12, 48, 113
13, 82363, Note_off_c, 12, 60, 56
13, 82364, Note_off_c, 12, 48, 56
13, 82380, Note_on_c, 12, 48, 113
13, 82380, Note_on_c, 12, 60, 113
13, 82425, Note_off_c, 12, 60, 56
13, 82425, Note_off_c, 12, 48, 56
13, 82438, Note_on_c, 12, 60, 113
13, 82439, Note_on_c, 12, 48, 113
13, 82483, Note_off_c, 12, 60, 56
13, 82484, Note_off_c, 12, 48, 56
13, 82498, Note_on_c, 12, 48, 113
13, 82501, Note_on_c, 12, 60, 113
13, 82543, Note_off_c, 12, 48, 56
13, 82546, Note_off_c, 12, 60, 56
13, 82558, Note_on_c, 12, 36, 108
13, 82560, Note_on_c, 12, 48, 113
13, 82561, Note_on_c, 12, 60, 113
13, 82561, Note_on_c, 12, 55, 108
13, 82562, Note_on_c, 12, 64, 108
13, 82562, Note_on_c, 12, 79, 108
13, 82605, Note_off_c, 12, 48, 56
13, 82606, Note_off_c, 12, 60, 56
13, 82620, Note_on_c, 12, 48, 113
13, 82620, Note_on_c, 12, 60, 113
13, 82665, Note_off_c, 12, 60, 56
13, 82665, Note_off_c, 12, 48, 56
13, 82678, Note_on_c, 12, 60, 113
13, 82681, Note_on_c, 12, 48, 113
13, 82723, Note_off_c, 12, 60, 56
13, 82726, Note_off_c, 12, 48, 56
13, 82738, Note_on_c, 12, 48, 113
13, 82742, Note_on_c, 12, 60, 113
13, 82743, Note_off_c, 12, 55, 64
13, 82744, Note_off_c, 12, 64, 64
13, 82783, Note_off_c, 12, 48, 56
13, 82787, Note_off_c, 12, 60, 56
13, 82802, Note_on_c, 12, 48, 113
13, 82802, Note_on_c, 12, 60, 113
13, 82847, Note_off_c, 12, 60, 56
13, 82847, Note_off_c, 12, 48, 56
13, 82861, Note_on_c, 12, 48, 113
13, 82862, Note_on_c, 12, 60, 113
13, 82906, Note_off_c, 12, 48, 56
13, 82907, Note_off_c, 12, 60, 56
13, 82918, Note_on_c, 12, 60, 113
13, 82921, Note_on_c, 12, 48, 113
13, 82963, Note_off_c, 12, 60, 56
13, 82966, Note_off_c, 12, 48, 56
13, 82979, Note_on_c, 12, 48, 113
13, 82982, Note_on_c, 12, 60, 113
13, 83024, Note_off_c, 12, 48, 56
13, 83027, Note_off_c, 12, 60, 56
13, 83038, Note_on_c, 12, 60, 113
13, 83041, Note_on_c, 12, 48, 113
13, 83076, Note_off_c, 12, 36, 64
13, 83083, Note_off_c, 12, 60, 56
13, 83086, Note_off_c, 12, 48, 56
13, 83101, Note_on_c, 12, 60, 113
13, 83102, Note_on_c, 12, 48, 113
13, 83146, Note_off_c, 12, 60, 56
13, 83147, Note_off_c, 12, 48, 56
13, 83158, Note_on_c, 12, 60, 113
13, 83159, Note_on_c, 12, 48, 113
13, 83186, Note_off_c, 12, 79, 64
13, 83203, Note_off_c, 12, 60, 56
13, 83204, Note_off_c, 12, 48, 56
13, 83218, Note_on_c, 12, 48, 113
13, 83220, Note_on_c, 12, 60, 113
13, 83263, Note_off_c, 12, 48, 56
13, 83265, Note_off_c, 12, 60, 56
13, 83278, Note_on_c, 12, 50, 113
13, 83278, Note_on_c, 12, 55, 108
13, 83279, Note_on_c, 12, 62, 108
13, 83281, Note_on_c, 12, 77, 108
13, 83281, Note_on_c, 12, 31, 108
13, 83282, Note_on_c, 12, 59, 113
13, 83323, Note_off_c, 12, 50, 56
13, 83327, Note_off_c, 12, 59, 56
13, 83338, Note_on_c, 12, 50, 113
13, 83341, Note_on_c, 12, 59, 113
13, 83362, Note_off_c, 12, 31, 56
13, 83369, Note_off_c, 12, 55, 56
13, 83370, Note_off_c, 12, 62, 56
13, 83372, Note_off_c, 12, 77, 56
13, 83383, Note_off_c, 12, 50, 56
13, 83386, Note_off_c, 12, 59, 56
13, 83400, Note_on_c, 12, 59, 113
13, 83402, Note_on_c, 12, 50, 113
13, 83445, Note_off_c, 12, 59, 56
13, 83447, Note_off_c, 12, 50, 56
13, 83458, Note_on_c, 12, 50, 113
13, 83462, Note_on_c, 12, 59, 113
13, 83503, Note_off_c, 12, 50, 56
13, 83507, Note_off_c, 12, 59, 56
13, 83518, Note_on_c, 12, 60, 113
13, 83520, Note_on_c, 12, 64, 108
13, 83520, Note_on_c, 12, 36, 108
13, 83520, Note_on_c, 12, 48, 113
13, 83521, Note_on_c, 12, 76, 108
13, 83522, Note_on_c, 12, 55, 108
13, 83563, Note_off_c, 12, 60, 56
13, 83565, Note_off_c, 12, 48, 56
13, 83578, Note_on_c, 12, 48, 113
13, 83581, Note_on_c, 12, 60, 113
13, 83601, Note_off_c, 12, 36, 56
13, 83611, Note_off_c, 12, 64, 56
13, 83612, Note_off_c, 12, 76, 56
13, 83613, Note_off_c, 12, 55, 56
13, 83623, Note_off_c, 12, 48, 56
13, 83626, Note_off_c, 12, 60, 56
13, 83639, Note_on_c, 12, 48, 113
13, 83642, Note_on_c, 12, 60, 113
13, 83684, Note_off_c, 12, 48, 56
13, 83687, Note_off_c, 12, 60, 56
13, 83699, Note_on_c, 12, 60, 113
13, 83699, Note_on_c, 12, 48, 113
13, 83744, Note_off_c, 12, 48, 56
13, 83744, Note_off_c, 12, 60, 56
13, 83758, Note_on_c, 12, 74, 108
13, 83759, Note_on_c, 12, 65, 108
13, 83759, Note_on_c, 12, 31, 108
13, 83760, Note_on_c, 12, 59, 113
13, 83762, Note_on_c, 12, 50, 113
13, 83762, Note_on_c, 12, 55, 108
13, 83805, Note_off_c, 12, 59, 56
13, 83807, Note_off_c, 12, 50, 56
13, 83820, Note_on_c, 12, 50, 113
13, 83822, Note_on_c, 12, 59, 113
13, 83840, Note_off_c, 12, 31, 56
13, 83849, Note_off_c, 12, 74, 56
13, 83850, Note_off_c, 12, 65, 56
13, 83853, Note_off_c, 12, 55, 56
13, 83865, Note_off_c, 12, 50, 56
13, 83867, Note_off_c, 12, 59, 56
13, 83882, Note_on_c, 12, 50, 113
13, 83882, Note_on_c, 12, 59, 113
13, 83927, Note_off_c, 12, 59, 56
13, 83927, Note_off_c, 12, 50, 56
13, 83940, Note_on_c, 12, 59, 113
13, 83941, Note_on_c, 12, 50, 113
13, 83985, Note_off_c, 12, 59, 56
13, 83986, Note_off_c, 12, 50, 56
13, 83998, Note_on_c, 12, 60, 113
13, 83999, Note_on_c, 12, 55, 108
13, 84000, Note_on_c, 12, 64, 108
13, 84001, Note_on_c, 12, 72, 108
13, 84001, Note_on_c, 12, 36, 108
13, 84001, Note_on_c, 12, 48, 113
13, 84043, Note_off_c, 12, 60, 56
13, 84046, Note_off_c, 12, 48, 56
13, 84060, Note_on_c, 12, 60, 113
13, 84062, Note_on_c, 12, 48, 113
13, 84082, Note_off_c, 12, 36, 56
13, 84090, Note_off_c, 12, 55, 56
13, 84091, Note_off_c, 12, 64, 56
13, 84092, Note_off_c, 12, 72, 56
13, 84105, Note_off_c, 12, 60, 56
13, 84107, Note_off_c, 12, 48, 56
13, 84119, Note_on_c, 12, 60, 113
13, 84120, Note_on_c, 12, 48, 113
13, 84164, Note_off_c, 12, 60, 56
13, 84165, Note_off_c, 12, 48, 56
13, 84178, Note_on_c, 12, 60, 113
13, 84179, Note_on_c, 12, 48, 113
13, 84223, Note_off_c, 12, 60, 56
13, 84224, Note_off_c, 12, 48, 56
13, 84238, Note_on_c, 12, 65, 108
13, 84239, Note_on_c, 12, 74, 108
13, 84239, Note_on_c, 12, 59, 113
13, 84240, Note_on_c, 12, 50, 113
13, 84241, Note_on_c, 12, 55, 108
13, 84241, Note_on_c, 12, 31, 108
13, 84284, Note_off_c, 12, 59, 56
13, 84285, Note_off_c, 12, 50, 56
13, 84298, Note_on_c, 12, 59, 113
13, 84298, Note_on_c, 12, 50, 113
13, 84322, Note_off_c, 12, 31, 56
13, 84329, Note_off_c, 12, 65, 56
13, 84330, Note_off_c, 12, 74, 56
13, 84332, Note_off_c, 12, 55, 56
13, 84343, Note_off_c, 12, 50, 56
13, 84343, Note_off_c, 12, 59, 56
13, 84360, Note_on_c, 12, 59, 113
13, 84362, Note_on_c, 12, 50, 113
13, 84405, Note_off_c, 12, 59, 56
13, 84407, Note_off_c, 12, 50, 56
13, 84422, Note_on_c, 12, 59, 113
13, 84422, Note_on_c, 12, 50, 113
13, 84467, Note_off_c, 12, 50, 56
13, 84467, Note_off_c, 12, 59, 56
13, 84478, Note_on_c, 12, 72, 108
13, 84479, Note_on_c, 12, 64, 108
13, 84479, Note_on_c, 12, 48, 113
13, 84479, Note_on_c, 12, 52, 113
13, 84479, Note_on_c, 12, 36, 108
13, 84482, Note_on_c, 12, 55, 108
13, 84524, Note_off_c, 12, 52, 56
13, 84524, Note_off_c, 12, 48, 56
13, 84538, Note_on_c, 12, 52, 113
13, 84542, Note_on_c, 12, 48, 113
13, 84583, Note_off_c, 12, 52, 56
13, 84587, Note_off_c, 12, 48, 56
13, 84599, Note_on_c, 12, 52, 113
13, 84600, Note_on_c, 12, 48, 113
13, 84644, Note_off_c, 12, 52, 56
13, 84645, Note_off_c, 12, 48, 56
13, 84660, Note_on_c, 12, 48, 113
13, 84661, Note_off_c, 12, 64, 64
13, 84662, Note_on_c, 12, 52, 113
13, 84664, Note_off_c, 12, 55, 64
13, 84705, Note_off_c, 12, 48, 56
13, 84707, Note_off_c, 12, 52, 56
13, 84718, Note_on_c, 12, 52, 113
13, 84722, Note_on_c, 12, 48, 113
13, 84763, Note_off_c, 12, 52, 56
13, 84767, Note_off_c, 12, 48, 56
13, 84781, Note_on_c, 12, 48, 113
13, 84781, Note_on_c, 12, 52, 113
13, 84826, Note_off_c, 12, 52, 56
13, 84826, Note_off_c, 12, 48, 56
13, 84839, Note_on_c, 12, 48, 113
13, 84841, Note_on_c, 12, 52, 113
13, 84884, Note_off_c, 12, 48, 56
13, 84886, Note_off_c, 12, 52, 56
13, 84898, Note_on_c, 12, 52, 113
13, 84901, Note_on_c, 12, 48, 113
13, 84943, Note_off_c, 12, 52, 56
13, 84946, Note_off_c, 12, 48, 56
13, 84959, Note_on_c, 12, 48, 113
13, 84962, Note_on_c, 12, 52, 113
13, 84997, Note_off_c, 12, 36, 64
13, 85004, Note_off_c, 12, 48, 56
13, 85007, Note_off_c, 12, 52, 56
13, 85018, Note_on_c, 12, 48, 113
13, 85022, Note_on_c, 12, 52, 113
13, 85054, Note_off_c, 12, 72, 64
13, 85063, Note_off_c, 12, 48, 56
13, 85067, Note_off_c, 12, 52, 56
13, 85081, Note_on_c, 12, 52, 113
13, 85081, Note_on_c, 12, 48, 113
13, 85126, Note_off_c, 12, 48, 56
13, 85126, Note_off_c, 12, 52, 56
13, 85141, Note_on_c, 12, 52, 113
13, 85142, Note_on_c, 12, 48, 113
13, 85186, Note_off_c, 12, 52, 56
13, 85187, Note_off_c, 12, 48, 56
13, 85198, Note_on_c, 12, 72, 108
13, 85198, Note_on_c, 12, 36, 108
13, 85199, Note_on_c, 12, 48, 113
13, 85201, Note_on_c, 12, 52, 113
13, 85244, Note_off_c, 12, 48, 56
13, 85246, Note_off_c, 12, 52, 56
13, 85259, Note_on_c, 12, 52, 113
13, 85260, Note_on_c, 12, 48, 113
13, 85304, Note_off_c, 12, 52, 56
13, 85305, Note_off_c, 12, 48, 56
13, 85320, Note_off_c, 12, 36, 64
13, 85321, Note_on_c, 12, 52, 113
13, 85321, Note_on_c, 12, 48, 113
13, 85334, Note_off_c, 12, 72, 64
13, 85366, Note_off_c, 12, 48, 56
13, 85366, Note_off_c, 12, 52, 56
13, 85379, Note_on_c, 12, 48, 113
13, 85380, Note_on_c, 12, 36, 113
13, 85381, Note_on_c, 12, 72, 113
13, 85382, Note_on_c, 12, 52, 113
13, 85420, Note_off_c, 12, 36, 56
13, 85424, Note_off_c, 12, 48, 56
13, 85426, Note_off_c, 12, 72, 56
13, 85427, Note_off_c, 12, 52, 56
13, 85439, Note_on_c, 12, 55, 108
13, 85441, Note_on_c, 12, 74, 108
13, 85441, Note_on_c, 12, 50, 113
13, 85442, Note_on_c, 12, 67, 108
13, 85442, Note_on_c, 12, 31, 108
13, 85486, Note_off_c, 12, 50, 56
13, 85501, Note_on_c, 12, 55, 113
13, 85502, Note_on_c, 12, 50, 113
13, 85546, Note_off_c, 12, 55, 56
13, 85547, Note_off_c, 12, 50, 56
13, 85560, Note_on_c, 12, 55, 113
13, 85560, Note_on_c, 12, 50, 113
13, 85605, Note_off_c, 12, 50, 56
13, 85605, Note_off_c, 12, 55, 56
13, 85619, Note_on_c, 12, 55, 113
13, 85620, Note_on_c, 12, 50, 113
13, 85621, Note_off_c, 12, 55, 64
13, 85624, Note_off_c, 12, 67, 64
13, 85664, Note_off_c, 12, 55, 56
13, 85665, Note_off_c, 12, 50, 56
13, 85679, Note_on_c, 12, 50, 113
13, 85680, Note_on_c, 12, 55, 113
13, 85724, Note_off_c, 12, 50, 56
13, 85725, Note_off_c, 12, 55, 56
13, 85739, Note_on_c, 12, 55, 113
13, 85740, Note_on_c, 12, 50, 113
13, 85784, Note_off_c, 12, 55, 56
13, 85785, Note_off_c, 12, 50, 56
13, 85798, Note_on_c, 12, 50, 113
13, 85801, Note_on_c, 12, 55, 113
13, 85843, Note_off_c, 12, 50, 56
13, 85846, Note_off_c, 12, 55, 56
13, 85858, Note_on_c, 12, 55, 113
13, 85859, Note_on_c, 12, 50, 113
13, 85903, Note_off_c, 12, 55, 56
13, 85904, Note_off_c, 12, 50, 56
13, 85918, Note_on_c, 12, 55, 113
13, 85920, Note_on_c, 12, 50, 113
13, 85960, Note_off_c, 12, 31, 64
13, 85963, Note_off_c, 12, 55, 56
13, 85965, Note_off_c, 12, 50, 56
13, 85978, Note_on_c, 12, 55, 113
13, 85979, Note_on_c, 12, 50, 113
13, 86017, Note_off_c, 12, 74, 64
13, 86023, Note_off_c, 12, 55, 56
13, 86024, Note_off_c, 12, 50, 56
13, 86040, Note_on_c, 12, 55, 113
13, 86040, Note_on_c, 12, 50, 113
13, 86085, Note_off_c, 12, 50, 56
13, 86085, Note_off_c, 12, 55, 56
13, 86098, Note_on_c, 12, 50, 113
13, 86102, Note_on_c, 12, 55, 113
13, 86143, Note_off_c, 12, 50, 56
13, 86147, Note_off_c, 12, 55, 56
13, 86158, Note_on_c, 12, 50, 113
13, 86160, Note_on_c, 12, 31, 108
13, 86161, Note_on_c, 12, 74, 108
13, 86162, Note_on_c, 12, 55, 113
13, 86203, Note_off_c, 12, 50, 56
13, 86207, Note_off_c, 12, 55, 56
13, 86218, Note_on_c, 12, 55, 113
13, 86220, Note_on_c, 12, 50, 113
13, 86263, Note_off_c, 12, 55, 56
13, 86265, Note_off_c, 12, 50, 56
13, 86278, Note_on_c, 12, 50, 113
13, 86279, Note_on_c, 12, 55, 113
13, 86282, Note_off_c, 12, 31, 64
13, 86297, Note_off_c, 12, 74, 64
13, 86323, Note_off_c, 12, 50, 56
13, 86324, Note_off_c, 12, 55, 56
13, 86339, Note_on_c, 12, 74, 113
13, 86340, Note_on_c, 12, 31, 113
13, 86341, Note_on_c, 12, 55, 113
13, 86341, Note_on_c, 12, 50, 113
13, 86380, Note_off_c, 12, 31, 56
13, 86384, Note_off_c, 12, 74, 56
13, 86386, Note_off_c, 12, 50, 56
13, 86386, Note_off_c, 12, 55, 56
13, 86398, Note_on_c, 12, 67, 108
13, 86398, Note_on_c, 12, 72, 108
13, 86400, Note_on_c, 12, 60, 108
13, 86400, Note_on_c, 12, 52, 113
13, 86400, Note_on_c, 12, 55, 113
13, 86402, Note_on_c, 12, 76, 108
13, 86403, Note_on_c, 12, 36, 108
13, 86445, Note_off_c, 12, 55, 56
13, 86445, Note_off_c, 12, 52, 56
13, 86460, Note_on_c, 12, 55, 113
13, 86461, Note_on_c, 12, 52, 113
13, 86505, Note_off_c, 12, 55, 56
13, 86506, Note_off_c, 12, 52, 56
13, 86520, Note_on_c, 12, 52, 113
13, 86520, Note_on_c, 12, 55, 113
13, 86565, Note_off_c, 12, 55, 56
13, 86565, Note_off_c, 12, 52, 56
13, 86580, Note_off_c, 12, 72, 64
13, 86580, Note_off_c, 12, 67, 64
13, 86581, Note_on_c, 12, 55, 113
13, 86582, Note_off_c, 12, 60, 64
13, 86582, Note_on_c, 12, 52, 113
13, 86626, Note_off_c, 12, 55, 56
13, 86627, Note_off_c, 12, 52, 56
13, 86639, Note_on_c, 12, 52, 113
13, 86641, Note_on_c, 12, 55, 113
13, 86684, Note_off_c, 12, 52, 56
13, 86686, Note_off_c, 12, 55, 56
13, 86699, Note_on_c, 12, 52, 113
13, 86701, Note_on_c, 12, 55, 113
13, 86744, Note_off_c, 12, 52, 56
13, 86746, Note_off_c, 12, 55, 56
13, 86758, Note_on_c, 12, 55, 113
13, 86759, Note_on_c, 12, 52, 113
13, 86803, Note_off_c, 12, 55, 56
13, 86804, Note_off_c, 12, 52, 56
13, 86820, Note_on_c, 12, 52, 113
13, 86821, Note_on_c, 12, 55, 113
13, 86865, Note_off_c, 12, 52, 56
13, 86866, Note_off_c, 12, 55, 56
13, 86878, Note_on_c, 12, 55, 113
13, 86879, Note_on_c, 12, 52, 113
13, 86923, Note_off_c, 12, 55, 56
13, 86924, Note_off_c, 12, 52, 56
13, 86939, Note_on_c, 12, 55, 113
13, 86940, Note_on_c, 12, 52, 113
13, 86978, Note_off_c, 12, 76, 64
13, 86984, Note_off_c, 12, 55, 56
13, 86985, Note_off_c, 12, 52, 56
13, 86998, Note_on_c, 12, 55, 113
13, 86999, Note_on_c, 12, 52, 113
13, 87002, Note_on_c, 12, 72, 108
13, 87043, Note_off_c, 12, 55, 56
13, 87044, Note_off_c, 12, 52, 56
13, 87058, Note_on_c, 12, 52, 113
13, 87059, Note_on_c, 12, 55, 113
13, 87070, Note_off_c, 12, 72, 56
13, 87103, Note_off_c, 12, 52, 56
13, 87104, Note_off_c, 12, 55, 56
13, 87119, Note_on_c, 12, 55, 113
13, 87121, Note_on_c, 12, 74, 108
13, 87122, Note_on_c, 12, 52, 113
13, 87164, Note_off_c, 12, 55, 56
13, 87167, Note_off_c, 12, 52, 56
13, 87171, Note_off_c, 12, 36, 64
13, 87178, Note_on_c, 12, 52, 113
13, 87181, Note_on_c, 12, 55, 113
13, 87189, Note_off_c, 12, 74, 56
13, 87223, Note_off_c, 12, 52, 56
13, 87226, Note_off_c, 12, 55, 56
13, 87238, Note_on_c, 12, 52, 113
13, 87240, Note_on_c, 12, 76, 108
13, 87242, Note_on_c, 12, 55, 113
13, 87283, Note_off_c, 12, 52, 56
13, 87287, Note_off_c, 12, 55, 56
13, 87299, Note_on_c, 12, 55, 113
13, 87301, Note_on_c, 12, 52, 113
13, 87308, Note_off_c, 12, 76, 56
13, 87344, Note_off_c, 12, 55, 56
13, 87346, Note_off_c, 12, 52, 56
13, 87358, Note_on_c, 12, 53, 113
13, 87360, Note_on_c, 12, 77, 108
13, 87361, Note_on_c, 12, 57, 113
13, 87363, Note_on_c, 12, 33, 108
13, 87403, Note_off_c, 12, 53, 56
13, 87406, Note_off_c, 12, 57, 56
13, 87418, Note_on_c, 12, 53, 113
13, 87422, Note_on_c, 12, 57, 113
13, 87428, Note_off_c, 12, 77, 56
13, 87463, Note_off_c, 12, 53, 56
13, 87467, Note_off_c, 12, 57, 56
13, 87478, Note_on_c, 12, 76, 108
13, 87481, Note_on_c, 12, 57, 113
13, 87482, Note_on_c, 12, 53, 113
13, 87526, Note_off_c, 12, 57, 56
13, 87527, Note_off_c, 12, 53, 56
13, 87540, Note_on_c, 12, 57, 113
13, 87541, Note_on_c, 12, 53, 113
13, 87546, Note_off_c, 12, 76, 56
13, 87585, Note_off_c, 12, 57, 56
13, 87586, Note_off_c, 12, 53, 56
13, 87598, Note_on_c, 12, 57, 113
13, 87601, Note_on_c, 12, 77, 108
13, 87601, Note_on_c, 12, 53, 113
13, 87643, Note_off_c, 12, 57, 56
13, 87646, Note_off_c, 12, 53, 56
13, 87658, Note_on_c, 12, 57, 113
13, 87661, Note_on_c, 12, 53, 113
13, 87669, Note_off_c, 12, 77, 56
13, 87703, Note_off_c, 12, 57, 56
13, 87706, Note_off_c, 12, 53, 56
13, 87708, Note_off_c, 12, 33, 64
13, 87719, Note_on_c, 12, 79, 108
13, 87719, Note_on_c, 12, 53, 113
13, 87720, Note_on_c, 12, 57, 113
13, 87764, Note_off_c, 12, 53, 56
13, 87765, Note_off_c, 12, 57, 56
13, 87778, Note_on_c, 12, 57, 113
13, 87781, Note_on_c, 12, 53, 113
13, 87787, Note_off_c, 12, 79, 56
13, 87823, Note_off_c, 12, 57, 56
13, 87826, Note_off_c, 12, 53, 56
13, 87839, Note_on_c, 12, 53, 113
13, 87840, Note_on_c, 12, 81, 108
13, 87841, Note_on_c, 12, 57, 113
13, 87841, Note_on_c, 12, 29, 108
13, 87884, Note_off_c, 12, 53, 56
13, 87886, Note_off_c, 12, 57, 56
13, 87900, Note_on_c, 12, 53, 113
13, 87901, Note_on_c, 12, 57, 113
13, 87908, Note_off_c, 12, 81, 56
13, 87945, Note_off_c, 12, 53, 56
13, 87946, Note_off_c, 12, 57, 56
13, 87960, Note_on_c, 12, 57, 113
13, 87961, Note_on_c, 12, 79, 108
13, 87962, Note_on_c, 12, 53, 113
13, 88005, Note_off_c, 12, 57, 56
13, 88007, Note_off_c, 12, 53, 56
13, 88018, Note_on_c, 12, 53, 113
13, 88020, Note_on_c, 12, 57, 113
13, 88029, Note_off_c, 12, 79, 56
13, 88063, Note_off_c, 12, 53, 56
13, 88065, Note_off_c, 12, 57, 56
13, 88078, Note_on_c, 12, 81, 108
13, 88080, Note_on_c, 12, 53, 113
13, 88081, Note_on_c, 12, 57, 113
13, 88125, Note_off_c, 12, 53, 56
13, 88126, Note_off_c, 12, 57, 56
13, 88138, Note_on_c, 12, 53, 113
13, 88141, Note_on_c, 12, 57, 113
13, 88146, Note_off_c, 12, 81, 56
13, 88183, Note_off_c, 12, 53, 56
13, 88186, Note_off_c, 12, 57, 56
13, 88186, Note_off_c, 12, 29, 64
13, 88199, Note_on_c, 12, 57, 113
13, 88200, Note_on_c, 12, 53, 113
13, 88202, Note_on_c, 12, 83, 108
13, 88244, Note_off_c, 12, 57, 56
13, 88245, Note_off_c, 12, 53, 56
13, 88261, Note_on_c, 12, 57, 113
13, 88262, Note_on_c, 12, 53, 113
13, 88270, Note_off_c, 12, 83, 56
13, 88306, Note_off_c, 12, 57, 56
13, 88307, Note_off_c, 12, 53, 56
13, 88319, Note_on_c, 12, 28, 108
13, 88320, Note_on_c, 12, 84, 108
13, 88320, Note_on_c, 12, 52, 113
13, 88321, Note_on_c, 12, 55, 113
13, 88365, Note_off_c, 12, 52, 56
13, 88366, Note_off_c, 12, 55, 56
13, 88379, Note_on_c, 12, 52, 113
13, 88380, Note_on_c, 12, 55, 113
13, 88400, Note_off_c, 12, 28, 56
13, 88424, Note_off_c, 12, 52, 56
13, 88425, Note_off_c, 12, 55, 56
13, 88438, Note_on_c, 12, 52, 113
13, 88440, Note_on_c, 12, 29, 108
13, 88442, Note_on_c, 12, 55, 113
13, 88483, Note_off_c, 12, 52, 56
13, 88487, Note_off_c, 12, 55, 56
13, 88498, Note_on_c, 12, 52, 113
13, 88501, Note_on_c, 12, 55, 113
13, 88521, Note_off_c, 12, 29, 56
13, 88543, Note_off_c, 12, 52, 56
13, 88546, Note_off_c, 12, 55, 56
13, 88558, Note_on_c, 12, 52, 113
13, 88560, Note_on_c, 12, 28, 108
13, 88562, Note_on_c, 12, 55, 113
13, 88603, Note_off_c, 12, 52, 56
13, 88607, Note_off_c, 12, 55, 56
13, 88618, Note_on_c, 12, 55, 113
13, 88619, Note_on_c, 12, 52, 113
13, 88641, Note_off_c, 12, 28, 56
13, 88663, Note_off_c, 12, 55, 56
13, 88664, Note_off_c, 12, 52, 56
13, 88679, Note_on_c, 12, 26, 108
13, 88681, Note_on_c, 12, 55, 113
13, 88682, Note_on_c, 12, 52, 113
13, 88726, Note_off_c, 12, 55, 56
13, 88727, Note_off_c, 12, 52, 56
13, 88740, Note_on_c, 12, 55, 113
13, 88741, Note_on_c, 12, 52, 113
13, 88760, Note_off_c, 12, 26, 56
13, 88785, Note_off_c, 12, 55, 56
13, 88786, Note_off_c, 12, 52, 56
13, 88800, Note_on_c, 12, 55, 113
13, 88802, Note_on_c, 12, 52, 113
13, 88803, Note_on_c, 12, 24, 108
13, 88845, Note_off_c, 12, 55, 56
13, 88847, Note_off_c, 12, 52, 56
13, 88862, Note_on_c, 12, 55, 113
13, 88862, Note_on_c, 12, 52, 113
13, 88897, Note_off_c, 12, 84, 64
13, 88907, Note_off_c, 12, 52, 56
13, 88907, Note_off_c, 12, 55, 56
13, 88920, Note_on_c, 12, 55, 113
13, 88922, Note_on_c, 12, 72, 108
13, 88922, Note_on_c, 12, 52, 113
13, 88965, Note_off_c, 12, 55, 56
13, 88967, Note_off_c, 12, 52, 56
13, 88978, Note_on_c, 12, 55, 113
13, 88982, Note_on_c, 12, 52, 113
13, 88990, Note_off_c, 12, 72, 56
13, 89023, Note_off_c, 12, 55, 56
13, 89027, Note_off_c, 12, 52, 56
13, 89041, Note_on_c, 12, 74, 108
13, 89042, Note_on_c, 12, 55, 113
13, 89042, Note_on_c, 12, 52, 113
13, 89087, Note_off_c, 12, 52, 56
13, 89087, Note_off_c, 12, 55, 56
13, 89098, Note_on_c, 12, 52, 113
13, 89101, Note_on_c, 12, 55, 113
13, 89109, Note_off_c, 12, 74, 56
13, 89143, Note_off_c, 12, 52, 56
13, 89146, Note_off_c, 12, 55, 56
13, 89148, Note_off_c, 12, 24, 64
13, 89158, Note_on_c, 12, 76, 108
13, 89160, Note_on_c, 12, 52, 113
13, 89161, Note_on_c, 12, 55, 113
13, 89205, Note_off_c, 12, 52, 56
13, 89206, Note_off_c, 12, 55, 56
13, 89219, Note_on_c, 12, 52, 113
13, 89220, Note_on_c, 12, 55, 113
13, 89226, Note_off_c, 12, 76, 56
13, 89264, Note_off_c, 12, 52, 56
13, 89265, Note_off_c, 12, 55, 56
13, 89279, Note_on_c, 12, 53, 113
13, 89281, Note_on_c, 12, 77, 108
13, 89282, Note_on_c, 12, 57, 113
13, 89283, Note_on_c, 12, 33, 108
13, 89324, Note_off_c, 12, 53, 56
13, 89327, Note_off_c, 12, 57, 56
13, 89341, Note_on_c, 12, 53, 113
13, 89341, Note_on_c, 12, 57, 113
13, 89349, Note_off_c, 12, 77, 56
13, 89386, Note_off_c, 12, 57, 56
13, 89386, Note_off_c, 12, 53, 56
13, 89400, Note_on_c, 12, 53, 113
13, 89401, Note_on_c, 12, 76, 108
13, 89402, Note_on_c, 12, 57, 113
13, 89445, Note_off_c, 12, 53, 56
13, 89447, Note_off_c, 12, 57, 56
13, 89460, Note_on_c, 12, 53, 113
13, 89461, Note_on_c, 12, 57, 113
13, 89469, Note_off_c, 12, 76, 56
13, 89505, Note_off_c, 12, 53, 56
13, 89506, Note_off_c, 12, 57, 56
13, 89521, Note_on_c, 12, 53, 113
13, 89521, Note_on_c, 12, 57, 113
13, 89522, Note_on_c, 12, 77, 108
13, 89566, Note_off_c, 12, 57, 56
13, 89566, Note_off_c, 12, 53, 56
13, 89578, Note_on_c, 12, 53, 113
13, 89580, Note_on_c, 12, 57, 113
13, 89590, Note_off_c, 12, 77, 56
13, 89623, Note_off_c, 12, 53, 56
13, 89625, Note_off_c, 12, 57, 56
13, 89628, Note_off_c, 12, 33, 64
13, 89638, Note_on_c, 12, 53, 113
13, 89639, Note_on_c, 12, 57, 113
13, 89640, Note_on_c, 12, 79, 108
13, 89683, Note_off_c, 12, 53, 56
13, 89684, Note_off_c, 12, 57, 56
13, 89698, Note_on_c, 12, 57, 113
13, 89699, Note_on_c, 12, 53, 113
13, 89708, Note_off_c, 12, 79, 56
13, 89743, Note_off_c, 12, 57, 56
13, 89744, Note_off_c, 12, 53, 56
13, 89757, Note_on_c, 12, 29, 108
13, 89759, Note_on_c, 12, 81, 108
13, 89759, Note_on_c, 12, 53, 113
13, 89760, Note_on_c, 12, 57, 113
13, 89804, Note_off_c, 12, 53, 56
13, 89805, Note_off_c, 12, 57, 56
13, 89818, Note_on_c, 12, 53, 113
13, 89821, Note_on_c, 12, 57, 113
13, 89827, Note_off_c, 12, 81, 56
13, 89863, Note_off_c, 12, 53, 56
13, 89866, Note_off_c, 12, 57, 56
13, 89878, Note_on_c, 12, 57, 113
13, 89881, Note_on_c, 12, 79, 108
13, 89881, Note_on_c, 12, 53, 113
13, 89923, Note_off_c, 12, 57, 56
13, 89926, Note_off_c, 12, 53, 56
13, 89938, Note_on_c, 12, 57, 113
13, 89942, Note_on_c, 12, 53, 113
13, 89949, Note_off_c, 12, 79, 56
13, 89983, Note_off_c, 12, 57, 56
13, 89987, Note_off_c, 12, 53, 56
13, 90000, Note_on_c, 12, 81, 108
13, 90000, Note_on_c, 12, 57, 113
13, 90001, Note_on_c, 12, 53, 113
13, 90045, Note_off_c, 12, 57, 56
13, 90046, Note_off_c, 12, 53, 56
13, 90060, Note_on_c, 12, 53, 113
13, 90060, Note_on_c, 12, 57, 113
13, 90068, Note_off_c, 12, 81, 56
13, 90102, Note_off_c, 12, 29, 64
13, 90105, Note_off_c, 12, 57, 56
13, 90105, Note_off_c, 12, 53, 56
13, 90118, Note_on_c, 12, 57, 113
13, 90118, Note_on_c, 12, 53, 113
13, 90120, Note_on_c, 12, 83, 108
13, 90163, Note_off_c, 12, 53, 56
13, 90163, Note_off_c, 12, 57, 56
13, 90179, Note_on_c, 12, 53, 113
13, 90181, Note_on_c, 12, 57, 113
13, 90188, Note_off_c, 12, 83, 56
13, 90224, Note_off_c, 12, 53, 56
13, 90226, Note_off_c, 12, 57, 56
13, 90239, Note_on_c, 12, 55, 113
13, 90240, Note_on_c, 12, 84, 108
13, 90240, Note_on_c, 12, 28, 108
13, 90241, Note_on_c, 12, 52, 113
13, 90284, Note_off_c, 12, 55, 56
13, 90286, Note_off_c, 12, 52, 56
13, 90300, Note_on_c, 12, 55, 113
13, 90300, Note_on_c, 12, 52, 113
13, 90321, Note_off_c, 12, 28, 56
13, 90345, Note_off_c, 12, 52, 56
13, 90345, Note_off_c, 12, 55, 56
13, 90359, Note_on_c, 12, 29, 108
13, 90360, Note_on_c, 12, 52, 113
13, 90361, Note_on_c, 12, 55, 113
13, 90405, Note_off_c, 12, 52, 56
13, 90406, Note_off_c, 12, 55, 56
13, 90418, Note_on_c, 12, 52, 113
13, 90422, Note_on_c, 12, 55, 113
13, 90440, Note_off_c, 12, 29, 56
13, 90463, Note_off_c, 12, 52, 56
13, 90467, Note_off_c, 12, 55, 56
13, 90479, Note_on_c, 12, 28, 108
13, 90480, Note_on_c, 12, 52, 113
13, 90482, Note_on_c, 12, 55, 113
13, 90525, Note_off_c, 12, 52, 56
13, 90527, Note_off_c, 12, 55, 56
13, 90539, Note_on_c, 12, 52, 113
13, 90542, Note_on_c, 12, 55, 113
13, 90560, Note_off_c, 12, 28, 56
13, 90584, Note_off_c, 12, 52, 56
13, 90587, Note_off_c, 12, 55, 56
13, 90598, Note_on_c, 12, 52, 113
13, 90601, Note_on_c, 12, 55, 113
13, 90601, Note_on_c, 12, 26, 108
13, 90643, Note_off_c, 12, 52, 56
13, 90646, Note_off_c, 12, 55, 56
13, 90659, Note_on_c, 12, 55, 113
13, 90661, Note_on_c, 12, 52, 113
13, 90682, Note_off_c, 12, 26, 56
13, 90704, Note_off_c, 12, 55, 56
13, 90706, Note_off_c, 12, 52, 56
13, 90718, Note_on_c, 12, 24, 108
13, 90720, Note_on_c, 12, 52, 113
13, 90722, Note_on_c, 12, 55, 113
13, 90765, Note_off_c, 12, 52, 56
13, 90767, Note_off_c, 12, 55, 56
13, 90778, Note_on_c, 12, 52, 113
13, 90780, Note_on_c, 12, 55, 113
13, 90816, Note_off_c, 12, 84, 64
13, 90823, Note_off_c, 12, 52, 56
13, 90825, Note_off_c, 12, 55, 56
13, 90838, Note_on_c, 12, 72, 108
13, 90840, Note_on_c, 12, 55, 113
13, 90842, Note_on_c, 12, 52, 113
13, 90885, Note_off_c, 12, 55, 56
13, 90887, Note_off_c, 12, 52, 56
13, 90899, Note_on_c, 12, 52, 113
13, 90901, Note_on_c, 12, 55, 113
13, 90906, Note_off_c, 12, 72, 56
13, 90944, Note_off_c, 12, 52, 56
13, 90946, Note_off_c, 12, 55, 56
13, 90958, Note_on_c, 12, 52, 113
13, 90958, Note_on_c, 12, 55, 113
13, 90960, Note_on_c, 12, 74, 108
13, 91003, Note_off_c, 12, 55, 56
13, 91003, Note_off_c, 12, 52, 56
13, 91019, Note_on_c, 12, 52, 113
13, 91019, Note_on_c, 12, 55, 113
13, 91028, Note_off_c, 12, 74, 56
13, 91063, Note_off_c, 12, 24, 64
13, 91064, Note_off_c, 12, 55, 56
13, 91064, Note_off_c, 12, 52, 56
13, 91078, Note_on_c, 12, 76, 108
13, 91081, Note_on_c, 12, 52, 113
13, 91082, Note_on_c, 12, 55, 113
13, 91126, Note_off_c, 12, 52, 56
13, 91127, Note_off_c, 12, 55, 56
13, 91140, Note_on_c, 12, 52, 113
13, 91141, Note_on_c, 12, 55, 113
13, 91146, Note_off_c, 12, 76, 56
13, 91185, Note_off_c, 12, 52, 56
13, 91186, Note_off_c, 12, 55, 56
13, 91198, Note_on_c, 12, 53, 113
13, 91201, Note_on_c, 12, 57, 113
13, 91201, Note_on_c, 12, 33, 108
13, 91202, Note_on_c, 12, 79, 113
13, 91219, Note_off_c, 12, 79, 56
13, 91231, Note_on_c, 12, 77, 113
13, 91243, Note_off_c, 12, 53, 56
13, 91246, Note_off_c, 12, 57, 56
13, 91260, Note_on_c, 12, 57, 113
13, 91261, Note_on_c, 12, 53, 113
13, 91282, Note_off_c, 12, 77, 56
13, 91305, Note_off_c, 12, 57, 56
13, 91306, Note_off_c, 12, 53, 56
13, 91318, Note_on_c, 12, 53, 113
13, 91319, Note_on_c, 12, 57, 113
13, 91320, Note_on_c, 12, 76, 108
13, 91363, Note_off_c, 12, 53, 56
13, 91364, Note_off_c, 12, 57, 56
13, 91380, Note_on_c, 12, 57, 113
13, 91380, Note_on_c, 12, 53, 113
13, 91388, Note_off_c, 12, 76, 56
13, 91425, Note_off_c, 12, 53, 56
13, 91425, Note_off_c, 12, 57, 56
13, 91438, Note_on_c, 12, 77, 108
13, 91439, Note_on_c, 12, 57, 113
13, 91441, Note_on_c, 12, 53, 113
13, 91484, Note_off_c, 12, 57, 56
13, 91486, Note_off_c, 12, 53, 56
13, 91498, Note_on_c, 12, 53, 113
13, 91500, Note_on_c, 12, 57, 113
13, 91506, Note_off_c, 12, 77, 56
13, 91543, Note_off_c, 12, 53, 56
13, 91545, Note_off_c, 12, 57, 56
13, 91546, Note_off_c, 12, 33, 64
13, 91559, Note_on_c, 12, 53, 113
13, 91561, Note_on_c, 12, 79, 108
13, 91561, Note_on_c, 12, 57, 113
13, 91604, Note_off_c, 12, 53, 56
13, 91606, Note_off_c, 12, 57, 56
13, 91619, Note_on_c, 12, 57, 113
13, 91622, Note_on_c, 12, 53, 113
13, 91629, Note_off_c, 12, 79, 56
13, 91664, Note_off_c, 12, 57, 56
13, 91667, Note_off_c, 12, 53, 56
13, 91678, Note_on_c, 12, 53, 113
13, 91679, Note_on_c, 12, 83, 113
13, 91679, Note_on_c, 12, 57, 113
13, 91683, Note_on_c, 12, 29, 108
13, 91696, Note_off_c, 12, 83, 56
13, 91708, Note_on_c, 12, 81, 113
13, 91723, Note_off_c, 12, 53, 56
13, 91724, Note_off_c, 12, 57, 56
13, 91738, Note_on_c, 12, 57, 113
13, 91739, Note_on_c, 12, 53, 113
13, 91759, Note_off_c, 12, 81, 56
13, 91783, Note_off_c, 12, 57, 56
13, 91784, Note_off_c, 12, 53, 56
13, 91800, Note_on_c, 12, 57, 113
13, 91801, Note_on_c, 12, 79, 108
13, 91802, Note_on_c, 12, 53, 113
13, 91845, Note_off_c, 12, 57, 56
13, 91847, Note_off_c, 12, 53, 56
13, 91858, Note_on_c, 12, 57, 113
13, 91861, Note_on_c, 12, 53, 113
13, 91869, Note_off_c, 12, 79, 56
13, 91903, Note_off_c, 12, 57, 56
13, 91906, Note_off_c, 12, 53, 56
13, 91918, Note_on_c, 12, 53, 113
13, 91919, Note_on_c, 12, 81, 108
13, 91919, Note_on_c, 12, 57, 113
13, 91963, Note_off_c, 12, 53, 56
13, 91964, Note_off_c, 12, 57, 56
13, 91979, Note_on_c, 12, 53, 113
13, 91980, Note_on_c, 12, 57, 113
13, 91987, Note_off_c, 12, 81, 56
13, 92024, Note_off_c, 12, 53, 56
13, 92025, Note_off_c, 12, 57, 56
13, 92028, Note_off_c, 12, 29, 64
13, 92040, Note_on_c, 12, 53, 113
13, 92042, Note_on_c, 12, 83, 108
13, 92042, Note_on_c, 12, 57, 113
13, 92085, Note_off_c, 12, 53, 56
13, 92087, Note_off_c, 12, 57, 56
13, 92101, Note_on_c, 12, 53, 113
13, 92102, Note_on_c, 12, 57, 113
13, 92110, Note_off_c, 12, 83, 56
13, 92146, Note_off_c, 12, 53, 56
13, 92147, Note_off_c, 12, 57, 56
13, 92158, Note_on_c, 12, 52, 113
13, 92158, Note_on_c, 12, 55, 113
13, 92159, Note_on_c, 12, 86, 113
13, 92161, Note_on_c, 12, 28, 108
13, 92181, Note_off_c, 12, 86, 56
13, 92191, Note_on_c, 12, 84, 108
13, 92203, Note_off_c, 12, 55, 56
13, 92203, Note_off_c, 12, 52, 56
13, 92218, Note_on_c, 12, 55, 113
13, 92218, Note_on_c, 12, 52, 113
13, 92242, Note_off_c, 12, 28, 56
13, 92259, Note_off_c, 12, 84, 56
13, 92263, Note_off_c, 12, 52, 56
13, 92263, Note_off_c, 12, 55, 56
13, 92280, Note_on_c, 12, 83, 108
13, 92281, Note_on_c, 12, 52, 113
13, 92281, Note_on_c, 12, 29, 108
13, 92282, Note_on_c, 12, 55, 113
13, 92326, Note_off_c, 12, 52, 56
13, 92327, Note_off_c, 12, 55, 56
13, 92338, Note_on_c, 12, 55, 113
13, 92341, Note_on_c, 12, 52, 113
13, 92362, Note_off_c, 12, 29, 56
13, 92371, Note_off_c, 12, 83, 56
13, 92383, Note_off_c, 12, 55, 56
13, 92386, Note_off_c, 12, 52, 56
13, 92398, Note_on_c, 12, 55, 113
13, 92399, Note_on_c, 12, 84, 108
13, 92399, Note_on_c, 12, 28, 108
13, 92401, Note_on_c, 12, 52, 113
13, 92443, Note_off_c, 12, 55, 56
13, 92446, Note_off_c, 12, 52, 56
13, 92460, Note_on_c, 12, 55, 113
13, 92462, Note_on_c, 12, 52, 113
13, 92480, Note_off_c, 12, 28, 56
13, 92490, Note_off_c, 12, 84, 56
13, 92505, Note_off_c, 12, 55, 56
13, 92507, Note_off_c, 12, 52, 56
13, 92519, Note_on_c, 12, 86, 108
13, 92519, Note_on_c, 12, 52, 113
13, 92520, Note_on_c, 12, 26, 108
13, 92521, Note_on_c, 12, 55, 113
13, 92564, Note_off_c, 12, 52, 56
13, 92566, Note_off_c, 12, 55, 56
13, 92579, Note_on_c, 12, 55, 113
13, 92581, Note_on_c, 12, 52, 113
13, 92601, Note_off_c, 12, 26, 56
13, 92610, Note_off_c, 12, 86, 56
13, 92624, Note_off_c, 12, 55, 56
13, 92626, Note_off_c, 12, 52, 56
13, 92638, Note_on_c, 12, 52, 113
13, 92639, Note_on_c, 12, 88, 108
13, 92641, Note_on_c, 12, 55, 113
13, 92642, Note_on_c, 12, 24, 108
13, 92683, Note_off_c, 12, 52, 56
13, 92686, Note_off_c, 12, 55, 56
13, 92698, Note_on_c, 12, 52, 113
13, 92700, Note_on_c, 12, 55, 113
13, 92743, Note_off_c, 12, 52, 56
13, 92745, Note_off_c, 12, 55, 56
13, 92758, Note_on_c, 12, 55, 113
13, 92759, Note_on_c, 12, 52, 113
13, 92803, Note_off_c, 12, 55, 56
13, 92804, Note_off_c, 12, 52, 56
13, 92805, Note_off_c, 12, 24, 64
13, 92820, Note_on_c, 12, 55, 113
13, 92821, Note_off_c, 12, 88, 64
13, 92821, Note_on_c, 12, 52, 113
13, 92865, Note_off_c, 12, 55, 56
13, 92866, Note_off_c, 12, 52, 56
13, 92878, Note_on_c, 12, 79, 108
13, 92878, Note_on_c, 12, 36, 108
13, 92878, Note_on_c, 12, 55, 113
13, 92881, Note_on_c, 12, 52, 113
13, 92923, Note_off_c, 12, 55, 56
13, 92926, Note_off_c, 12, 52, 56
13, 92939, Note_on_c, 12, 55, 113
13, 92939, Note_on_c, 12, 52, 113
13, 92969, Note_off_c, 12, 79, 56
13, 92984, Note_off_c, 12, 52, 56
13, 92984, Note_off_c, 12, 55, 56
13, 93000, Note_off_c, 12, 36, 64
13, 93002, Note_on_c, 12, 55, 113
13, 93002, Note_on_c, 12, 52, 113
13, 93047, Note_off_c, 12, 52, 56
13, 93047, Note_off_c, 12, 55, 56
13, 93060, Note_on_c, 12, 36, 113
13, 93061, Note_on_c, 12, 88, 113
13, 93061, Note_on_c, 12, 52, 113
13, 93061, Note_on_c, 12, 55, 113
13, 93100, Note_off_c, 12, 36, 56
13, 93106, Note_off_c, 12, 55, 56
13, 93106, Note_off_c, 12, 52, 56
13, 93106, Note_off_c, 12, 88, 56
13, 93120, Note_on_c, 12, 88, 108
13, 93121, Note_on_c, 12, 62, 108
13, 93123, Note_on_c, 12, 35, 108
13, 93228, Note_off_c, 12, 88, 56
13, 93241, Note_on_c, 12, 86, 108
13, 93303, Note_off_c, 12, 62, 64
13, 93332, Note_off_c, 12, 86, 56
13, 93360, Note_on_c, 12, 62, 108
13, 93361, Note_on_c, 12, 77, 108
13, 93452, Note_off_c, 12, 77, 56
13, 93468, Note_off_c, 12, 35, 64
13, 93496, Note_off_c, 12, 62, 64
13, 93538, Note_on_c, 12, 62, 113
13, 93539, Note_on_c, 12, 86, 113
13, 93583, Note_off_c, 12, 62, 56
13, 93584, Note_off_c, 12, 86, 56
13, 93597, Note_on_c, 12, 36, 108
13, 93601, Note_on_c, 12, 60, 108
13, 93602, Note_on_c, 12, 86, 108
13, 93710, Note_off_c, 12, 86, 56
13, 93720, Note_on_c, 12, 84, 108
13, 93783, Note_off_c, 12, 60, 64
13, 93811, Note_off_c, 12, 84, 56
13, 93841, Note_on_c, 12, 76, 108
13, 93842, Note_on_c, 12, 60, 108
13, 93932, Note_off_c, 12, 76, 56
13, 93942, Note_off_c, 12, 36, 64
13, 93978, Note_off_c, 12, 60, 64
13, 94021, Note_on_c, 12, 60, 113
13, 94022, Note_on_c, 12, 84, 113
13, 94066, Note_off_c, 12, 60, 56
13, 94067, Note_off_c, 12, 84, 56
13, 94077, Note_on_c, 12, 31, 108
13, 94080, Note_on_c, 12, 84, 108
13, 94082, Note_on_c, 12, 59, 108
13, 94188, Note_off_c, 12, 84, 56
13, 94199, Note_on_c, 12, 83, 108
13, 94240, Note_off_c, 12, 31, 64
13, 94264, Note_off_c, 12, 59, 64
13, 94290, Note_off_c, 12, 83, 56
13, 94318, Note_on_c, 12, 83, 108
13, 94321, Note_on_c, 12, 31, 108
13, 94322, Note_on_c, 12, 59, 108
13, 94666, Note_off_c, 12, 31, 64
13, 94702, Note_off_c, 12, 83, 64
13, 94706, Note_off_c, 12, 59, 64
13, 94801, Note_on_c, 12, 60, 108
13, 94802, Note_on_c, 12, 84, 108
13, 94802, Note_on_c, 12, 36, 108
13, 94893, Note_off_c, 12, 84, 56
13, 94924, Note_off_c, 12, 36, 64
13, 94937, Note_off_c, 12, 60, 64
13, 94979, Note_on_c, 12, 60, 113
13, 94980, Note_on_c, 12, 36, 113
13, 94982, Note_on_c, 12, 88, 113
13, 95020, Note_off_c, 12, 36, 56
13, 95024, Note_off_c, 12, 60, 56
13, 95027, Note_off_c, 12, 88, 56
13, 95041, Note_on_c, 12, 88, 108
13, 95041, Note_on_c, 12, 35, 108
13, 95041, Note_on_c, 12, 62, 108
13, 95149, Note_off_c, 12, 88, 56
13, 95159, Note_on_c, 12, 86, 108
13, 95223, Note_off_c, 12, 62, 64
13, 95250, Note_off_c, 12, 86, 56
13, 95279, Note_on_c, 12, 62, 108
13, 95282, Note_on_c, 12, 77, 108
13, 95373, Note_off_c, 12, 77, 56
13, 95386, Note_off_c, 12, 35, 64
13, 95415, Note_off_c, 12, 62, 64
13, 95458, Note_on_c, 12, 86, 113
13, 95462, Note_on_c, 12, 62, 113
13, 95503, Note_off_c, 12, 86, 56
13, 95507, Note_off_c, 12, 62, 56
13, 95519, Note_on_c, 12, 86, 108
13, 95519, Note_on_c, 12, 36, 108
13, 95520, Note_on_c, 12, 60, 108
13, 95627, Note_off_c, 12, 86, 56
13, 95641, Note_on_c, 12, 84, 108
13, 95702, Note_off_c, 12, 60, 64
13, 95732, Note_off_c, 12, 84, 56
13, 95759, Note_on_c, 12, 76, 108
13, 95762, Note_on_c, 12, 60, 108
13, 95850, Note_off_c, 12, 76, 56
13, 95864, Note_off_c, 12, 36, 64
13, 95898, Note_off_c, 12, 60, 64
13, 95941, Note_on_c, 12, 84, 113
13, 95941, Note_on_c, 12, 60, 113
13, 95986, Note_off_c, 12, 60, 56
13, 95986, Note_off_c, 12, 84, 56
13, 96001, Note_on_c, 12, 59, 108
13, 96002, Note_on_c, 12, 84, 108
13, 96002, Note_on_c, 12, 31, 108
13, 96110, Note_off_c, 12, 84, 56
13, 96120, Note_on_c, 12, 83, 108
13, 96165, Note_off_c, 12, 31, 64
13, 96183, Note_off_c, 12, 59, 64
13, 96211, Note_off_c, 12, 83, 56
13, 96240, Note_on_c, 12, 83, 108
13, 96241, Note_on_c, 12, 59, 108
13, 96243, Note_on_c, 12, 31, 108
13, 96588, Note_off_c, 12, 31, 64
13, 96624, Note_off_c, 12, 83, 64
13, 96625, Note_off_c, 12, 59, 64
13, 96718, Note_on_c, 12, 60, 108
13, 96720, Note_on_c, 12, 36, 108
13, 96722, Note_on_c, 12, 84, 108
13, 96790, Note_off_c, 12, 84, 56
13, 96842, Note_off_c, 12, 36, 64
13, 96854, Note_off_c, 12, 60, 64
13, 96899, Note_on_c, 12, 60, 113
13, 96900, Note_on_c, 12, 36, 113
13, 96902, Note_on_c, 12, 88, 113
13, 96936, Note_off_c, 12, 88, 56
13, 96940, Note_off_c, 12, 36, 56
13, 96944, Note_off_c, 12, 60, 56
13, 96958, Note_on_c, 12, 62, 108
13, 96959, Note_on_c, 12, 35, 108
13, 96960, Note_on_c, 12, 88, 108
13, 97028, Note_off_c, 12, 88, 56
13, 97081, Note_off_c, 12, 35, 64
13, 97094, Note_off_c, 12, 62, 64
13, 97140, Note_on_c, 12, 35, 113
13, 97141, Note_on_c, 12, 62, 113
13, 97142, Note_on_c, 12, 86, 113
13, 97176, Note_off_c, 12, 86, 56
13, 97180, Note_off_c, 12, 35, 56
13, 97186, Note_off_c, 12, 62, 56
13, 97198, Note_on_c, 12, 31, 108
13, 97202, Note_on_c, 12, 59, 108
13, 97202, Note_on_c, 12, 77, 108
13, 97270, Note_off_c, 12, 77, 56
13, 97320, Note_off_c, 12, 31, 64
13, 97338, Note_off_c, 12, 59, 64
13, 97378, Note_on_c, 12, 59, 113
13, 97379, Note_on_c, 12, 86, 113
13, 97380, Note_on_c, 12, 31, 113
13, 97413, Note_off_c, 12, 86, 56
13, 97420, Note_off_c, 12, 31, 56
13, 97423, Note_off_c, 12, 59, 56
13, 97440, Note_on_c, 12, 36, 108
13, 97441, Note_on_c, 12, 86, 108
13, 97442, Note_on_c, 12, 60, 108
13, 97509, Note_off_c, 12, 86, 56
13, 97562, Note_off_c, 12, 36, 64
13, 97578, Note_off_c, 12, 60, 64
13, 97620, Note_on_c, 12, 36, 113
13, 97621, Note_on_c, 12, 60, 113
13, 97622, Note_on_c, 12, 84, 113
13, 97656, Note_off_c, 12, 84, 56
13, 97660, Note_off_c, 12, 36, 56
13, 97666, Note_off_c, 12, 60, 56
13, 97679, Note_on_c, 12, 40, 108
13, 97682, Note_on_c, 12, 60, 108
13, 97740, Note_on_c, 12, 76, 113
13, 97774, Note_off_c, 12, 76, 56
13, 97801, Note_off_c, 12, 40, 64
13, 97818, Note_off_c, 12, 60, 64
13, 97858, Note_on_c, 12, 60, 113
13, 97860, Note_on_c, 12, 40, 113
13, 97861, Note_on_c, 12, 84, 113
13, 97895, Note_off_c, 12, 84, 56
13, 97900, Note_off_c, 12, 40, 56
13, 97903, Note_off_c, 12, 60, 56
13, 97918, Note_on_c, 12, 83, 108
13, 97919, Note_on_c, 12, 43, 108
13, 97922, Note_on_c, 12, 59, 113
13, 97967, Note_off_c, 12, 59, 56
13, 97979, Note_on_c, 12, 59, 113
13, 97986, Note_off_c, 12, 83, 56
13, 98000, Note_off_c, 12, 43, 56
13, 98024, Note_off_c, 12, 59, 56
13, 98041, Note_on_c, 12, 31, 108
13, 98042, Note_on_c, 12, 59, 113
13, 98087, Note_off_c, 12, 59, 56
13, 98099, Note_on_c, 12, 74, 113
13, 98101, Note_on_c, 12, 59, 113
13, 98122, Note_off_c, 12, 31, 56
13, 98144, Note_off_c, 12, 74, 56
13, 98146, Note_off_c, 12, 59, 56
13, 98158, Note_on_c, 12, 79, 108
13, 98159, Note_on_c, 12, 31, 108
13, 98160, Note_on_c, 12, 59, 113
13, 98205, Note_off_c, 12, 59, 56
13, 98218, Note_on_c, 12, 59, 113
13, 98263, Note_off_c, 12, 59, 56
13, 98279, Note_on_c, 12, 59, 113
13, 98322, Note_off_c, 12, 31, 64
13, 98324, Note_off_c, 12, 59, 56
13, 98338, Note_on_c, 12, 59, 113
13, 98383, Note_off_c, 12, 59, 56
13, 98399, Note_on_c, 12, 60, 113
13, 98444, Note_off_c, 12, 60, 56
13, 98459, Note_on_c, 12, 60, 113
13, 98504, Note_off_c, 12, 60, 56
13, 98519, Note_on_c, 12, 60, 113
13, 98542, Note_off_c, 12, 79, 64
13, 98564, Note_off_c, 12, 60, 56
13, 98582, Note_on_c, 12, 60, 113
13, 98627, Note_off_c, 12, 60, 56
13, 98640, Note_on_c, 12, 60, 113
13, 98641, Note_on_c, 12, 81, 113
13, 98685, Note_off_c, 12, 60, 56
13, 98695, Note_off_c, 12, 81, 56
13, 98698, Note_on_c, 12, 60, 113
13, 98698, Note_on_c, 12, 79, 113
13, 98743, Note_off_c, 12, 60, 56
13, 98752, Note_off_c, 12, 79, 56
13, 98758, Note_on_c, 12, 60, 113
13, 98759, Note_on_c, 12, 77, 113
13, 98803, Note_off_c, 12, 60, 56
13, 98813, Note_off_c, 12, 77, 56
13, 98818, Note_on_c, 12, 60, 113
13, 98819, Note_on_c, 12, 76, 113
13, 98863, Note_off_c, 12, 60, 56
13, 98873, Note_off_c, 12, 76, 56
13, 98880, Note_on_c, 12, 74, 108
13, 98881, Note_on_c, 12, 59, 113
13, 98926, Note_off_c, 12, 59, 56
13, 98940, Note_on_c, 12, 59, 113
13, 98971, Note_off_c, 12, 74, 56
13, 98985, Note_off_c, 12, 59, 56
13, 99000, Note_on_c, 12, 59, 113
13, 99001, Note_on_c, 12, 31, 108
13, 99045, Note_off_c, 12, 59, 56
13, 99058, Note_on_c, 12, 74, 113
13, 99062, Note_on_c, 12, 59, 113
13, 99082, Note_off_c, 12, 31, 56
13, 99103, Note_off_c, 12, 74, 56
13, 99107, Note_off_c, 12, 59, 56
13, 99118, Note_on_c, 12, 31, 108
13, 99120, Note_on_c, 12, 59, 113
13, 99120, Note_on_c, 12, 79, 108
13, 99165, Note_off_c, 12, 59, 56
13, 99178, Note_on_c, 12, 59, 113
13, 99223, Note_off_c, 12, 59, 56
13, 99241, Note_on_c, 12, 59, 113
13, 99281, Note_off_c, 12, 31, 64
13, 99286, Note_off_c, 12, 59, 56
13, 99299, Note_on_c, 12, 59, 113
13, 99344, Note_off_c, 12, 59, 56
13, 99362, Note_on_c, 12, 60, 113
13, 99407, Note_off_c, 12, 60, 56
13, 99421, Note_on_c, 12, 60, 113
13, 99466, Note_off_c, 12, 60, 56
13, 99481, Note_on_c, 12, 60, 113
13, 99504, Note_off_c, 12, 79, 64
13, 99526, Note_off_c, 12, 60, 56
13, 99538, Note_on_c, 12, 60, 113
13, 99583, Note_off_c, 12, 60, 56
13, 99598, Note_on_c, 12, 81, 113
13, 99598, Note_on_c, 12, 60, 113
13, 99643, Note_off_c, 12, 60, 56
13, 99652, Note_off_c, 12, 81, 56
13, 99658, Note_on_c, 12, 60, 113
13, 99661, Note_on_c, 12, 79, 113
13, 99703, Note_off_c, 12, 60, 56
13, 99715, Note_off_c, 12, 79, 56
13, 99718, Note_on_c, 12, 77, 113
13, 99719, Note_on_c, 12, 60, 113
13, 99764, Note_off_c, 12, 60, 56
13, 99772, Note_off_c, 12, 77, 56
13, 99778, Note_on_c, 12, 76, 113
13, 99780, Note_on_c, 12, 60, 113
13, 99825, Note_off_c, 12, 60, 56
13, 99832, Note_off_c, 12, 76, 56
13, 99841, Note_on_c, 12, 59, 113
13, 99842, Note_on_c, 12, 74, 108
13, 99886, Note_off_c, 12, 59, 56
13, 99899, Note_on_c, 12, 59, 113
13, 99933, Note_off_c, 12, 74, 56
13, 99944, Note_off_c, 12, 59, 56
13, 99958, Note_on_c, 12, 60, 113
13, 99960, Note_on_c, 12, 31, 108
13, 100003, Note_off_c, 12, 60, 56
13, 100019, Note_on_c, 12, 60, 113
13, 100022, Note_on_c, 12, 79, 113
13, 100041, Note_off_c, 12, 31, 56
13, 100064, Note_off_c, 12, 60, 56
13, 100067, Note_off_c, 12, 79, 56
13, 100078, Note_on_c, 12, 31, 108
13, 100079, Note_on_c, 12, 60, 113
13, 100080, Note_on_c, 12, 81, 113
13, 100124, Note_off_c, 12, 60, 56
13, 100134, Note_off_c, 12, 81, 56
13, 100138, Note_on_c, 12, 60, 113
13, 100142, Note_on_c, 12, 79, 113
13, 100183, Note_off_c, 12, 60, 56
13, 100196, Note_off_c, 12, 79, 56
13, 100198, Note_on_c, 12, 60, 113
13, 100199, Note_on_c, 12, 77, 113
13, 100241, Note_off_c, 12, 31, 64
13, 100243, Note_off_c, 12, 60, 56
13, 100253, Note_off_c, 12, 77, 56
13, 100258, Note_on_c, 12, 76, 113
13, 100259, Note_on_c, 12, 60, 113
13, 100304, Note_off_c, 12, 60, 56
13, 100312, Note_off_c, 12, 76, 56
13, 100318, Note_on_c, 12, 74, 108
13, 100318, Note_on_c, 12, 59, 113
13, 100363, Note_off_c, 12, 59, 56
13, 100380, Note_on_c, 12, 59, 113
13, 100425, Note_off_c, 12, 59, 56
13, 100426, Note_off_c, 12, 74, 56
13, 100438, Note_on_c, 12, 60, 113
13, 100441, Note_on_c, 12, 31, 108
13, 100483, Note_off_c, 12, 60, 56
13, 100501, Note_on_c, 12, 79, 113
13, 100501, Note_on_c, 12, 60, 113
13, 100522, Note_off_c, 12, 31, 56
13, 100546, Note_off_c, 12, 60, 56
13, 100546, Note_off_c, 12, 79, 56
13, 100557, Note_on_c, 12, 31, 108
13, 100560, Note_on_c, 12, 81, 113
13, 100560, Note_on_c, 12, 60, 113
13, 100605, Note_off_c, 12, 60, 56
13, 100614, Note_off_c, 12, 81, 56
13, 100618, Note_on_c, 12, 79, 113
13, 100621, Note_on_c, 12, 60, 113
13, 100666, Note_off_c, 12, 60, 56
13, 100672, Note_off_c, 12, 79, 56
13, 100680, Note_on_c, 12, 60, 113
13, 100680, Note_on_c, 12, 77, 113
13, 100720, Note_off_c, 12, 31, 64
13, 100725, Note_off_c, 12, 60, 56
13, 100734, Note_off_c, 12, 77, 56
13, 100740, Note_on_c, 12, 60, 113
13, 100742, Note_on_c, 12, 76, 113
13, 100785, Note_off_c, 12, 60, 56
13, 100796, Note_off_c, 12, 76, 56
13, 100799, Note_on_c, 12, 74, 108
13, 100800, Note_on_c, 12, 59, 113
13, 100845, Note_off_c, 12, 59, 56
13, 100861, Note_on_c, 12, 59, 113
13, 100890, Note_off_c, 12, 74, 56
13, 100906, Note_off_c, 12, 59, 56
13, 100919, Note_on_c, 12, 60, 113
13, 100921, Note_on_c, 12, 31, 108
13, 100964, Note_off_c, 12, 60, 56
13, 100978, Note_on_c, 12, 60, 113
13, 100982, Note_on_c, 12, 79, 113
13, 101002, Note_off_c, 12, 31, 56
13, 101023, Note_off_c, 12, 60, 56
13, 101027, Note_off_c, 12, 79, 56
13, 101037, Note_on_c, 12, 31, 108
13, 101041, Note_on_c, 12, 60, 113
13, 101042, Note_on_c, 12, 81, 113
13, 101086, Note_off_c, 12, 60, 56
13, 101096, Note_off_c, 12, 81, 56
13, 101098, Note_on_c, 12, 79, 113
13, 101102, Note_on_c, 12, 60, 113
13, 101147, Note_off_c, 12, 60, 56
13, 101152, Note_off_c, 12, 79, 56
13, 101158, Note_on_c, 12, 77, 113
13, 101162, Note_on_c, 12, 60, 113
13, 101200, Note_off_c, 12, 31, 64
13, 101207, Note_off_c, 12, 60, 56
13, 101212, Note_off_c, 12, 77, 56
13, 101218, Note_on_c, 12, 60, 113
13, 101220, Note_on_c, 12, 76, 113
13, 101263, Note_off_c, 12, 60, 56
13, 101274, Note_off_c, 12, 76, 56
13, 101280, Note_on_c, 12, 74, 108
13, 101280, Note_on_c, 12, 59, 113
13, 101325, Note_off_c, 12, 59, 56
13, 101341, Note_on_c, 12, 59, 113
13, 101386, Note_off_c, 12, 59, 56
13, 101388, Note_off_c, 12, 74, 56
13, 101398, Note_on_c, 12, 60, 113
13, 101399, Note_on_c, 12, 31, 108
13, 101443, Note_off_c, 12, 60, 56
13, 101460, Note_on_c, 12, 79, 113
13, 101461, Note_on_c, 12, 60, 113
13, 101480, Note_off_c, 12, 31, 56
13, 101505, Note_off_c, 12, 79, 56
13, 101506, Note_off_c, 12, 60, 56
13, 101520, Note_on_c, 12, 60, 113
13, 101520, Note_on_c, 12, 31, 108
13, 101521, Note_on_c, 12, 81, 113
13, 101565, Note_off_c, 12, 60, 56
13, 101575, Note_off_c, 12, 81, 56
13, 101580, Note_on_c, 12, 79, 113
13, 101581, Note_on_c, 12, 60, 113
13, 101626, Note_off_c, 12, 60, 56
13, 101634, Note_off_c, 12, 79, 56
13, 101638, Note_on_c, 12, 60, 113
13, 101642, Note_on_c, 12, 77, 113
13, 101683, Note_off_c, 12, 60, 56
13, 101683, Note_off_c, 12, 31, 64
13, 101696, Note_off_c, 12, 77, 56
13, 101699, Note_on_c, 12, 60, 113
13, 101701, Note_on_c, 12, 76, 113
13, 101744, Note_off_c, 12, 60, 56
13, 101755, Note_off_c, 12, 76, 56
13, 101760, Note_on_c, 12, 74, 108
13, 101760, Note_on_c, 12, 31, 108
13, 101762, Note_on_c, 12, 59, 108
13, 101828, Note_off_c, 12, 74, 56
13, 101830, Note_off_c, 12, 59, 56
13, 101879, Note_on_c, 12, 67, 108
13, 101881, Note_on_c, 12, 79, 108
13, 101923, Note_off_c, 12, 31, 64
13, 101970, Note_off_c, 12, 67, 56
13, 101989, Note_off_c, 12, 79, 56
13, 102001, Note_on_c, 12, 65, 108
13, 102002, Note_on_c, 12, 77, 108
13, 102092, Note_off_c, 12, 65, 56
13, 102093, Note_off_c, 12, 77, 56
13, 102119, Note_on_c, 12, 64, 108
13, 102119, Note_on_c, 12, 76, 108
13, 102187, Note_off_c, 12, 76, 56
13, 102187, Note_off_c, 12, 64, 56
13, 102240, Note_on_c, 12, 74, 108
13, 102241, Note_on_c, 12, 62, 108
13, 102308, Note_off_c, 12, 74, 56
13, 102309, Note_off_c, 12, 62, 56
13, 102358, Note_on_c, 12, 64, 108
13, 102362, Note_on_c, 12, 76, 108
13, 102449, Note_off_c, 12, 64, 56
13, 102470, Note_off_c, 12, 76, 56
13, 102478, Note_on_c, 12, 74, 108
13, 102479, Note_on_c, 12, 62, 108
13, 102569, Note_off_c, 12, 74, 56
13, 102570, Note_off_c, 12, 62, 56
13, 102599, Note_on_c, 12, 60, 108
13, 102600, Note_on_c, 12, 72, 108
13, 102667, Note_off_c, 12, 60, 56
13, 102668, Note_off_c, 12, 72, 56
13, 102720, Note_on_c, 12, 59, 108
13, 102721, Note_on_c, 12, 71, 108
13, 102788, Note_off_c, 12, 59, 56
13, 102789, Note_off_c, 12, 71, 56
13, 102838, Note_on_c, 12, 64, 108
13, 102842, Note_on_c, 12, 76, 108
13, 102929, Note_off_c, 12, 64, 56
13, 102950, Note_off_c, 12, 76, 56
13, 102959, Note_on_c, 12, 62, 108
13, 102960, Note_on_c, 12, 74, 108
13, 103050, Note_off_c, 12, 62, 56
13, 103051, Note_off_c, 12, 74, 56
13, 103080, Note_on_c, 12, 60, 108
13, 103081, Note_on_c, 12, 72, 108
13, 103148, Note_off_c, 12, 60, 56
13, 103149, Note_off_c, 12, 72, 56
13, 103202, Note_on_c, 12, 71, 108
13, 103202, Note_on_c, 12, 59, 108
13, 103270, Note_off_c, 12, 59, 56
13, 103270, Note_off_c, 12, 71, 56
13, 103319, Note_on_c, 12, 72, 108
13, 103322, Note_on_c, 12, 60, 108
13, 103413, Note_off_c, 12, 60, 56
13, 103427, Note_off_c, 12, 72, 56
13, 103441, Note_on_c, 12, 71, 108
13, 103441, Note_on_c, 12, 59, 108
13, 103532, Note_off_c, 12, 59, 56
13, 103532, Note_off_c, 12, 71, 56
13, 103560, Note_on_c, 12, 69, 108
13, 103561, Note_on_c, 12, 57, 108
13, 103628, Note_off_c, 12, 69, 56
13, 103652, Note_off_c, 12, 57, 56
13, 103680, Note_on_c, 12, 67, 108
13, 103682, Note_on_c, 12, 55, 108
13, 103748, Note_off_c, 12, 67, 56
13, 103750, Note_off_c, 12, 55, 56
13, 103799, Note_on_c, 12, 72, 108
13, 103799, Note_on_c, 12, 60, 108
13, 103890, Note_off_c, 12, 60, 56
13, 103907, Note_off_c, 12, 72, 56
13, 103921, Note_on_c, 12, 71, 108
13, 103922, Note_on_c, 12, 59, 108
13, 104012, Note_off_c, 12, 71, 56
13, 104013, Note_off_c, 12, 59, 56
13, 104038, Note_on_c, 12, 57, 108
13, 104040, Note_on_c, 12, 69, 108
13, 104106, Note_off_c, 12, 57, 56
13, 104108, Note_off_c, 12, 69, 56
13, 104159, Note_on_c, 12, 67, 108
13, 104162, Note_on_c, 12, 55, 108
13, 104227, Note_off_c, 12, 67, 56
13, 104230, Note_off_c, 12, 55, 56
13, 104278, Note_on_c, 12, 72, 108
13, 104278, Note_on_c, 12, 60, 108
13, 104369, Note_off_c, 12, 60, 56
13, 104386, Note_off_c, 12, 72, 56
13, 104399, Note_on_c, 12, 59, 108
13, 104400, Note_on_c, 12, 71, 108
13, 104490, Note_off_c, 12, 59, 56
13, 104491, Note_off_c, 12, 71, 56
13, 104518, Note_on_c, 12, 57, 108
13, 104522, Note_on_c, 12, 69, 108
13, 104586, Note_off_c, 12, 57, 56
13, 104590, Note_off_c, 12, 69, 56
13, 104640, Note_on_c, 12, 55, 108
13, 104641, Note_on_c, 12, 67, 108
13, 104709, Note_off_c, 12, 67, 56
13, 104731, Note_off_c, 12, 55, 56
13, 104759, Note_on_c, 12, 60, 108
13, 104759, Note_on_c, 12, 48, 108
13, 104762, Note_on_c, 12, 72, 108
13, 104840, Note_off_c, 12, 48, 56
13, 104850, Note_off_c, 12, 60, 56
13, 104870, Note_off_c, 12, 72, 56
13, 104879, Note_on_c, 12, 47, 108
13, 104880, Note_on_c, 12, 71, 108
13, 104881, Note_on_c, 12, 59, 108
13, 104960, Note_off_c, 12, 47, 56
13, 104971, Note_off_c, 12, 71, 56
13, 104972, Note_off_c, 12, 59, 56
13, 104999, Note_on_c, 12, 45, 108
13, 105001, Note_on_c, 12, 57, 108
13, 105002, Note_on_c, 12, 69, 108
13, 105080, Note_off_c, 12, 45, 56
13, 105092, Note_off_c, 12, 57, 56
13, 105093, Note_off_c, 12, 69, 56
13, 105120, Note_on_c, 12, 43, 108
13, 105122, Note_on_c, 12, 67, 108
13, 105122, Note_on_c, 12, 55, 108
13, 105181, Note_off_c, 12, 43, 56
13, 105190, Note_off_c, 12, 55, 56
13, 105190, Note_off_c, 12, 67, 56
13, 105238, Note_on_c, 12, 53, 108
13, 105240, Note_on_c, 12, 41, 108
13, 105241, Note_on_c, 12, 65, 108
13, 105301, Note_off_c, 12, 41, 56
13, 105306, Note_off_c, 12, 53, 56
13, 105309, Note_off_c, 12, 65, 56
13, 105358, Note_on_c, 12, 64, 108
13, 105359, Note_on_c, 12, 40, 108
13, 105361, Note_on_c, 12, 52, 108
13, 105420, Note_off_c, 12, 40, 56
13, 105426, Note_off_c, 12, 64, 56
13, 105429, Note_off_c, 12, 52, 56
13, 105479, Note_on_c, 12, 38, 108
13, 105480, Note_on_c, 12, 50, 108
13, 105482, Note_on_c, 12, 62, 108
13, 105540, Note_off_c, 12, 38, 56
13, 105548, Note_off_c, 12, 50, 56
13, 105550, Note_off_c, 12, 62, 56
13, 105602, Note_on_c, 12, 60, 108
13, 105602, Note_on_c, 12, 36, 108
13, 105602, Note_on_c, 12, 48, 113
13, 105647, Note_off_c, 12, 48, 56
13, 105661, Note_on_c, 12, 52, 113
13, 105661, Note_on_c, 12, 55, 113
13, 105706, Note_off_c, 12, 55, 56
13, 105706, Note_off_c, 12, 52, 56
13, 105718, Note_on_c, 12, 52, 113
13, 105718, Note_on_c, 12, 55, 113
13, 105763, Note_off_c, 12, 55, 56
13, 105763, Note_off_c, 12, 52, 56
13, 105765, Note_off_c, 12, 36, 64
13, 105781, Note_on_c, 12, 55, 113
13, 105782, Note_on_c, 12, 52, 113
13, 105784, Note_off_c, 12, 60, 64
13, 105826, Note_off_c, 12, 55, 56
13, 105827, Note_off_c, 12, 52, 56
13, 105838, Note_on_c, 12, 52, 113
13, 105840, Note_on_c, 12, 55, 113
13, 105883, Note_off_c, 12, 52, 56
13, 105885, Note_off_c, 12, 55, 56
13, 105898, Note_on_c, 12, 52, 113
13, 105900, Note_on_c, 12, 55, 113
13, 105943, Note_off_c, 12, 52, 56
13, 105945, Note_off_c, 12, 55, 56
13, 105960, Note_on_c, 12, 52, 113
13, 105960, Note_on_c, 12, 55, 113
13, 106005, Note_off_c, 12, 55, 56
13, 106005, Note_off_c, 12, 52, 56
13, 106022, Note_on_c, 12, 52, 113
13, 106022, Note_on_c, 12, 55, 113
13, 106067, Note_off_c, 12, 55, 56
13, 106067, Note_off_c, 12, 52, 56
13, 106078, Note_on_c, 12, 55, 113
13, 106082, Note_on_c, 12, 52, 113
13, 106123, Note_off_c, 12, 55, 56
13, 106127, Note_off_c, 12, 52, 56
13, 106139, Note_on_c, 12, 52, 113
13, 106139, Note_on_c, 12, 55, 113
13, 106184, Note_off_c, 12, 55, 56
13, 106184, Note_off_c, 12, 52, 56
13, 106198, Note_on_c, 12, 55, 113
13, 106202, Note_on_c, 12, 52, 113
13, 106243, Note_off_c, 12, 55, 56
13, 106247, Note_off_c, 12, 52, 56
13, 106258, Note_on_c, 12, 52, 113
13, 106260, Note_on_c, 12, 55, 113
13, 106303, Note_off_c, 12, 52, 56
13, 106305, Note_off_c, 12, 55, 56
13, 106319, Note_on_c, 12, 55, 113
13, 106321, Note_on_c, 12, 52, 113
13, 106364, Note_off_c, 12, 55, 56
13, 106366, Note_off_c, 12, 52, 56
13, 106379, Note_on_c, 12, 55, 113
13, 106381, Note_on_c, 12, 52, 113
13, 106424, Note_off_c, 12, 55, 56
13, 106426, Note_off_c, 12, 52, 56
13, 106440, Note_on_c, 12, 55, 113
13, 106442, Note_on_c, 12, 52, 113
13, 106485, Note_off_c, 12, 55, 56
13, 106487, Note_off_c, 12, 52, 56
13, 106499, Note_on_c, 12, 55, 113
13, 106502, Note_on_c, 12, 52, 113
13, 106544, Note_off_c, 12, 55, 56
13, 106547, Note_off_c, 12, 52, 56
13, 106561, Note_on_c, 12, 52, 113
13, 106562, Note_on_c, 12, 55, 113
13, 106606, Note_off_c, 12, 52, 56
13, 106607, Note_off_c, 12, 55, 56
13, 106620, Note_on_c, 12, 55, 113
13, 106621, Note_on_c, 12, 52, 113
13, 106665, Note_off_c, 12, 55, 56
13, 106666, Note_off_c, 12, 52, 56
13, 106679, Note_on_c, 12, 52, 113
13, 106681, Note_on_c, 12, 55, 113
13, 106724, Note_off_c, 12, 52, 56
13, 106726, Note_off_c, 12, 55, 56
13, 106740, Note_on_c, 12, 55, 113
13, 106741, Note_on_c, 12, 52, 113
13, 106785, Note_off_c, 12, 55, 56
13, 106786, Note_off_c, 12, 52, 56
13, 106798, Note_on_c, 12, 55, 113
13, 106802, Note_on_c, 12, 52, 113
13, 106843, Note_off_c, 12, 55, 56
13, 106847, Note_off_c, 12, 52, 56
13, 106858, Note_on_c, 12, 55, 113
13, 106861, Note_on_c, 12, 52, 113
13, 106903, Note_off_c, 12, 55, 56
13, 106906, Note_off_c, 12, 52, 56
13, 106922, Note_on_c, 12, 52, 113
13, 106922, Note_on_c, 12, 55, 113
13, 106967, Note_off_c, 12, 55, 56
13, 106967, Note_off_c, 12, 52, 56
13, 106979, Note_on_c, 12, 55, 113
13, 106981, Note_on_c, 12, 52, 113
13, 107024, Note_off_c, 12, 55, 56
13, 107026, Note_off_c, 12, 52, 56
13, 107040, Note_on_c, 12, 55, 113
13, 107041, Note_on_c, 12, 52, 113
13, 107085, Note_off_c, 12, 55, 56
13, 107086, Note_off_c, 12, 52, 56
13, 107100, Note_on_c, 12, 55, 113
13, 107102, Note_on_c, 12, 52, 113
13, 107145, Note_off_c, 12, 55, 56
13, 107147, Note_off_c, 12, 52, 56
13, 107162, Note_on_c, 12, 55, 113
13, 107162, Note_on_c, 12, 52, 113
13, 107207, Note_off_c, 12, 52, 56
13, 107207, Note_off_c, 12, 55, 56
13, 107218, Note_on_c, 12, 55, 113
13, 107220, Note_on_c, 12, 52, 113
13, 107263, Note_off_c, 12, 55, 56
13, 107265, Note_off_c, 12, 52, 56
13, 107281, Note_on_c, 12, 55, 113
13, 107282, Note_on_c, 12, 52, 113
13, 107326, Note_off_c, 12, 55, 56
13, 107327, Note_off_c, 12, 52, 56
13, 107339, Note_on_c, 12, 52, 113
13, 107341, Note_on_c, 12, 55, 113
13, 107384, Note_off_c, 12, 52, 56
13, 107386, Note_off_c, 12, 55, 56
13, 107400, Note_on_c, 12, 55, 113
13, 107400, Note_on_c, 12, 52, 113
13, 107445, Note_off_c, 12, 52, 56
13, 107445, Note_off_c, 12, 55, 56
13, 107459, Note_on_c, 12, 55, 113
13, 107462, Note_on_c, 12, 52, 113
13, 107504, Note_off_c, 12, 55, 56
13, 107507, Note_off_c, 12, 52, 56
13, 107518, Note_on_c, 12, 31, 108
13, 107519, Note_on_c, 12, 55, 108
13, 107519, Note_on_c, 12, 53, 113
13, 107522, Note_on_c, 12, 71, 108
13, 107564, Note_off_c, 12, 53, 56
13, 107581, Note_on_c, 12, 55, 113
13, 107581, Note_on_c, 12, 53, 113
13, 107626, Note_off_c, 12, 53, 56
13, 107626, Note_off_c, 12, 55, 56
13, 107639, Note_on_c, 12, 53, 113
13, 107641, Note_on_c, 12, 55, 113
13, 107684, Note_off_c, 12, 53, 56
13, 107686, Note_off_c, 12, 55, 56
13, 107699, Note_on_c, 12, 53, 113
13, 107701, Note_off_c, 12, 55, 64
13, 107702, Note_on_c, 12, 55, 113
13, 107704, Note_off_c, 12, 71, 64
13, 107744, Note_off_c, 12, 53, 56
13, 107747, Note_off_c, 12, 55, 56
13, 107758, Note_on_c, 12, 53, 113
13, 107760, Note_on_c, 12, 55, 113
13, 107803, Note_off_c, 12, 53, 56
13, 107805, Note_off_c, 12, 55, 56
13, 107818, Note_on_c, 12, 53, 113
13, 107820, Note_on_c, 12, 55, 113
13, 107863, Note_off_c, 12, 53, 56
13, 107865, Note_off_c, 12, 55, 56
13, 107878, Note_on_c, 12, 53, 113
13, 107879, Note_on_c, 12, 55, 113
13, 107923, Note_off_c, 12, 53, 56
13, 107924, Note_off_c, 12, 55, 56
13, 107941, Note_on_c, 12, 53, 113
13, 107941, Note_on_c, 12, 55, 113
13, 107986, Note_off_c, 12, 55, 56
13, 107986, Note_off_c, 12, 53, 56
13, 108000, Note_on_c, 12, 55, 108
13, 108001, Note_on_c, 12, 71, 108
13, 108001, Note_on_c, 12, 53, 113
13, 108036, Note_off_c, 12, 31, 64
13, 108046, Note_off_c, 12, 53, 56
13, 108059, Note_on_c, 12, 53, 113
13, 108062, Note_on_c, 12, 55, 113
13, 108104, Note_off_c, 12, 53, 56
13, 108107, Note_off_c, 12, 55, 56
13, 108118, Note_on_c, 12, 55, 113
13, 108119, Note_on_c, 12, 53, 113
13, 108120, Note_on_c, 12, 31, 108
13, 108163, Note_off_c, 12, 55, 56
13, 108164, Note_off_c, 12, 53, 56
13, 108179, Note_on_c, 12, 53, 113
13, 108180, Note_on_c, 12, 55, 113
13, 108182, Note_off_c, 12, 55, 64
13, 108183, Note_off_c, 12, 71, 64
13, 108201, Note_off_c, 12, 31, 56
13, 108224, Note_off_c, 12, 53, 56
13, 108225, Note_off_c, 12, 55, 56
13, 108239, Note_on_c, 12, 53, 113
13, 108240, Note_on_c, 12, 35, 108
13, 108242, Note_on_c, 12, 55, 113
13, 108284, Note_off_c, 12, 53, 56
13, 108287, Note_off_c, 12, 55, 56
13, 108299, Note_on_c, 12, 53, 113
13, 108301, Note_off_c, 12, 35, 56
13, 108301, Note_on_c, 12, 55, 113
13, 108344, Note_off_c, 12, 53, 56
13, 108346, Note_off_c, 12, 55, 56
13, 108358, Note_on_c, 12, 53, 113
13, 108360, Note_on_c, 12, 38, 108
13, 108362, Note_on_c, 12, 55, 113
13, 108403, Note_off_c, 12, 53, 56
13, 108407, Note_off_c, 12, 55, 56
13, 108420, Note_on_c, 12, 53, 113
13, 108420, Note_on_c, 12, 55, 113
13, 108421, Note_off_c, 12, 38, 56
13, 108465, Note_off_c, 12, 55, 56
13, 108465, Note_off_c, 12, 53, 56
13, 108479, Note_on_c, 12, 55, 113
13, 108479, Note_on_c, 12, 53, 113
13, 108479, Note_on_c, 12, 41, 108
13, 108482, Note_on_c, 12, 71, 108
13, 108524, Note_off_c, 12, 53, 56
13, 108524, Note_off_c, 12, 55, 56
13, 108540, Note_off_c, 12, 41, 56
13, 108541, Note_on_c, 12, 55, 113
13, 108542, Note_on_c, 12, 53, 113
13, 108586, Note_off_c, 12, 55, 56
13, 108587, Note_off_c, 12, 53, 56
13, 108598, Note_on_c, 12, 53, 113
13, 108599, Note_on_c, 12, 55, 113
13, 108601, Note_on_c, 12, 43, 108
13, 108643, Note_off_c, 12, 53, 56
13, 108644, Note_off_c, 12, 55, 56
13, 108660, Note_on_c, 12, 55, 113
13, 108661, Note_on_c, 12, 53, 113
13, 108662, Note_off_c, 12, 43, 56
13, 108664, Note_off_c, 12, 71, 64
13, 108705, Note_off_c, 12, 55, 56
13, 108706, Note_off_c, 12, 53, 56
13, 108718, Note_on_c, 12, 53, 113
13, 108718, Note_on_c, 12, 55, 113
13, 108719, Note_on_c, 12, 47, 108
13, 108763, Note_off_c, 12, 55, 56
13, 108763, Note_off_c, 12, 53, 56
13, 108780, Note_off_c, 12, 47, 56
13, 108780, Note_on_c, 12, 53, 113
13, 108781, Note_on_c, 12, 55, 113
13, 108825, Note_off_c, 12, 53, 56
13, 108826, Note_off_c, 12, 55, 56
13, 108839, Note_on_c, 12, 53, 113
13, 108839, Note_on_c, 12, 50, 108
13, 108840, Note_on_c, 12, 55, 113
13, 108884, Note_off_c, 12, 53, 56
13, 108885, Note_off_c, 12, 55, 56
13, 108901, Note_on_c, 12, 55, 113
13, 108901, Note_on_c, 12, 53, 113
13, 108920, Note_off_c, 12, 50, 56
13, 108946, Note_off_c, 12, 53, 56
13, 108946, Note_off_c, 12, 55, 56
13, 108959, Note_on_c, 12, 55, 108
13, 108959, Note_on_c, 12, 71, 108
13, 108960, Note_on_c, 12, 53, 108
13, 109020, Note_on_c, 12, 55, 113
13, 109021, Note_on_c, 12, 53, 113
13, 109041, Note_off_c, 12, 53, 56
13, 109065, Note_off_c, 12, 55, 56
13, 109066, Note_off_c, 12, 53, 56
13, 109079, Note_on_c, 12, 53, 113
13, 109082, Note_on_c, 12, 55, 113
13, 109124, Note_off_c, 12, 53, 56
13, 109127, Note_off_c, 12, 55, 56
13, 109141, Note_off_c, 12, 55, 64
13, 109141, Note_off_c, 12, 71, 64
13, 109141, Note_on_c, 12, 53, 113
13, 109142, Note_on_c, 12, 55, 113
13, 109186, Note_off_c, 12, 53, 56
13, 109187, Note_off_c, 12, 55, 56
13, 109200, Note_on_c, 12, 55, 113
13, 109201, Note_on_c, 12, 53, 108
13, 109245, Note_off_c, 12, 55, 56
13, 109259, Note_on_c, 12, 55, 113
13, 109261, Note_on_c, 12, 53, 113
13, 109282, Note_off_c, 12, 53, 56
13, 109304, Note_off_c, 12, 55, 56
13, 109306, Note_off_c, 12, 53, 56
13, 109318, Note_on_c, 12, 53, 113
13, 109320, Note_on_c, 12, 55, 113
13, 109321, Note_on_c, 12, 50, 108
13, 109363, Note_off_c, 12, 53, 56
13, 109365, Note_off_c, 12, 55, 56
13, 109380, Note_on_c, 12, 53, 113
13, 109382, Note_on_c, 12, 55, 113
13, 109402, Note_off_c, 12, 50, 56
13, 109425, Note_off_c, 12, 53, 56
13, 109427, Note_off_c, 12, 55, 56
13, 109438, Note_on_c, 12, 53, 113
13, 109440, Note_on_c, 12, 47, 108
13, 109440, Note_on_c, 12, 74, 108
13, 109442, Note_on_c, 12, 55, 108
13, 109483, Note_off_c, 12, 53, 56
13, 109498, Note_on_c, 12, 55, 113
13, 109501, Note_on_c, 12, 53, 113
13, 109521, Note_off_c, 12, 47, 56
13, 109543, Note_off_c, 12, 55, 56
13, 109546, Note_off_c, 12, 53, 56
13, 109560, Note_on_c, 12, 53, 113
13, 109560, Note_on_c, 12, 50, 108
13, 109562, Note_on_c, 12, 55, 113
13, 109605, Note_off_c, 12, 53, 56
13, 109607, Note_off_c, 12, 55, 56
13, 109620, Note_on_c, 12, 55, 113
13, 109621, Note_on_c, 12, 53, 113
13, 109622, Note_off_c, 12, 74, 64
13, 109624, Note_off_c, 12, 55, 64
13, 109641, Note_off_c, 12, 50, 56
13, 109665, Note_off_c, 12, 55, 56
13, 109666, Note_off_c, 12, 53, 56
13, 109678, Note_on_c, 12, 55, 113
13, 109679, Note_on_c, 12, 53, 113
13, 109679, Note_on_c, 12, 47, 108
13, 109723, Note_off_c, 12, 55, 56
13, 109724, Note_off_c, 12, 53, 56
13, 109739, Note_on_c, 12, 53, 113
13, 109742, Note_on_c, 12, 55, 113
13, 109760, Note_off_c, 12, 47, 56
13, 109784, Note_off_c, 12, 53, 56
13, 109787, Note_off_c, 12, 55, 56
13, 109800, Note_on_c, 12, 55, 113
13, 109800, Note_on_c, 12, 43, 108
13, 109802, Note_on_c, 12, 53, 113
13, 109845, Note_off_c, 12, 55, 56
13, 109847, Note_off_c, 12, 53, 56
13, 109861, Note_on_c, 12, 55, 113
13, 109862, Note_on_c, 12, 53, 113
13, 109881, Note_off_c, 12, 43, 56
13, 109906, Note_off_c, 12, 55, 56
13, 109907, Note_off_c, 12, 53, 56
13, 109919, Note_on_c, 12, 53, 113
13, 109921, Note_on_c, 12, 41, 108
13, 109922, Note_on_c, 12, 55, 113
13, 109964, Note_off_c, 12, 53, 56
13, 109967, Note_off_c, 12, 55, 56
13, 109979, Note_on_c, 12, 55, 113
13, 109980, Note_on_c, 12, 53, 113
13, 110002, Note_off_c, 12, 41, 56
13, 110024, Note_off_c, 12, 55, 56
13, 110025, Note_off_c, 12, 53, 56
13, 110038, Note_on_c, 12, 53, 113
13, 110040, Note_on_c, 12, 55, 113
13, 110040, Note_on_c, 12, 38, 108
13, 110083, Note_off_c, 12, 53, 56
13, 110085, Note_off_c, 12, 55, 56
13, 110099, Note_on_c, 12, 53, 113
13, 110102, Note_on_c, 12, 55, 113
13, 110121, Note_off_c, 12, 38, 56
13, 110144, Note_off_c, 12, 53, 56
13, 110147, Note_off_c, 12, 55, 56
13, 110159, Note_on_c, 12, 35, 108
13, 110160, Note_on_c, 12, 55, 113
13, 110161, Note_on_c, 12, 53, 113
13, 110205, Note_off_c, 12, 55, 56
13, 110206, Note_off_c, 12, 53, 56
13, 110218, Note_on_c, 12, 53, 113
13, 110221, Note_on_c, 12, 55, 113
13, 110240, Note_off_c, 12, 35, 56
13, 110263, Note_off_c, 12, 53, 56
13, 110266, Note_off_c, 12, 55, 56
13, 110278, Note_on_c, 12, 53, 113
13, 110279, Note_on_c, 12, 55, 113
13, 110279, Note_on_c, 12, 38, 108
13, 110323, Note_off_c, 12, 53, 56
13, 110324, Note_off_c, 12, 55, 56
13, 110339, Note_on_c, 12, 53, 113
13, 110342, Note_on_c, 12, 55, 113
13, 110360, Note_off_c, 12, 38, 56
13, 110384, Note_off_c, 12, 53, 56
13, 110387, Note_off_c, 12, 55, 56
13, 110397, Note_on_c, 12, 31, 108
13, 110400, Note_on_c, 12, 55, 113
13, 110402, Note_on_c, 12, 53, 113
13, 110445, Note_off_c, 12, 55, 56
13, 110447, Note_off_c, 12, 53, 56
13, 110460, Note_on_c, 12, 55, 113
13, 110460, Note_on_c, 12, 53, 113
13, 110505, Note_off_c, 12, 53, 56
13, 110505, Note_off_c, 12, 55, 56
13, 110518, Note_on_c, 12, 53, 113
13, 110519, Note_on_c, 12, 55, 113
13, 110560, Note_off_c, 12, 31, 64
13, 110563, Note_off_c, 12, 53, 56
13, 110564, Note_off_c, 12, 55, 56
13, 110580, Note_on_c, 12, 55, 113
13, 110581, Note_on_c, 12, 53, 113
13, 110625, Note_off_c, 12, 55, 56
13, 110626, Note_off_c, 12, 53, 56
13, 110639, Note_on_c, 12, 55, 113
13, 110642, Note_on_c, 12, 53, 113
13, 110684, Note_off_c, 12, 55, 56
13, 110687, Note_off_c, 12, 53, 56
13, 110698, Note_on_c, 12, 53, 113
13, 110701, Note_on_c, 12, 55, 113
13, 110743, Note_off_c, 12, 53, 56
13, 110746, Note_off_c, 12, 55, 56
13, 110759, Note_on_c, 12, 55, 113
13, 110762, Note_on_c, 12, 53, 113
13, 110804, Note_off_c, 12, 55, 56
13, 110807, Note_off_c, 12, 53, 56
13, 110820, Note_on_c, 12, 55, 113
13, 110821, Note_on_c, 12, 53, 113
13, 110865, Note_off_c, 12, 55, 56
13, 110866, Note_off_c, 12, 53, 56
13, 110879, Note_on_c, 12, 53, 113
13, 110881, Note_on_c, 12, 55, 113
13, 110924, Note_off_c, 12, 53, 56
13, 110926, Note_off_c, 12, 55, 56
13, 110938, Note_on_c, 12, 55, 113
13, 110942, Note_on_c, 12, 53, 113
13, 110983, Note_off_c, 12, 55, 56
13, 110987, Note_off_c, 12, 53, 56
13, 111000, Note_on_c, 12, 55, 113
13, 111001, Note_on_c, 12, 53, 113
13, 111045, Note_off_c, 12, 55, 56
13, 111046, Note_off_c, 12, 53, 56
13, 111059, Note_on_c, 12, 55, 113
13, 111062, Note_on_c, 12, 53, 113
13, 111104, Note_off_c, 12, 55, 56
13, 111107, Note_off_c, 12, 53, 56
13, 111120, Note_on_c, 12, 53, 113
13, 111120, Note_on_c, 12, 55, 113
13, 111165, Note_off_c, 12, 55, 56
13, 111165, Note_off_c, 12, 53, 56
13, 111180, Note_on_c, 12, 53, 113
13, 111181, Note_on_c, 12, 55, 113
13, 111225, Note_off_c, 12, 53, 56
13, 111226, Note_off_c, 12, 55, 56
13, 111238, Note_on_c, 12, 55, 113
13, 111240, Note_on_c, 12, 53, 113
13, 111283, Note_off_c, 12, 55, 56
13, 111285, Note_off_c, 12, 53, 56
13, 111298, Note_on_c, 12, 55, 113
13, 111301, Note_on_c, 12, 53, 113
13, 111343, Note_off_c, 12, 55, 56
13, 111346, Note_off_c, 12, 53, 56
13, 111359, Note_on_c, 12, 76, 108
13, 111360, Note_on_c, 12, 55, 108
13, 111361, Note_on_c, 12, 52, 113
13, 111362, Note_on_c, 12, 64, 108
13, 111362, Note_on_c, 12, 36, 108
13, 111406, Note_off_c, 12, 52, 56
13, 111419, Note_on_c, 12, 52, 113
13, 111420, Note_on_c, 12, 55, 113
13, 111464, Note_off_c, 12, 52, 56
13, 111465, Note_off_c, 12, 55, 56
13, 111478, Note_on_c, 12, 52, 113
13, 111482, Note_on_c, 12, 55, 113
13, 111523, Note_off_c, 12, 52, 56
13, 111527, Note_off_c, 12, 55, 56
13, 111539, Note_on_c, 12, 55, 113
13, 111540, Note_on_c, 12, 52, 113
13, 111541, Note_off_c, 12, 76, 64
13, 111542, Note_off_c, 12, 55, 64
13, 111544, Note_off_c, 12, 64, 64
13, 111584, Note_off_c, 12, 55, 56
13, 111585, Note_off_c, 12, 52, 56
13, 111602, Note_on_c, 12, 52, 113
13, 111602, Note_on_c, 12, 55, 113
13, 111647, Note_off_c, 12, 55, 56
13, 111647, Note_off_c, 12, 52, 56
13, 111659, Note_on_c, 12, 52, 113
13, 111661, Note_on_c, 12, 55, 113
13, 111704, Note_off_c, 12, 52, 56
13, 111706, Note_off_c, 12, 55, 56
13, 111718, Note_on_c, 12, 55, 113
13, 111722, Note_on_c, 12, 52, 113
13, 111763, Note_off_c, 12, 55, 56
13, 111767, Note_off_c, 12, 52, 56
13, 111778, Note_on_c, 12, 52, 113
13, 111780, Note_on_c, 12, 55, 113
13, 111823, Note_off_c, 12, 52, 56
13, 111825, Note_off_c, 12, 55, 56
13, 111838, Note_on_c, 12, 64, 108
13, 111839, Note_on_c, 12, 76, 108
13, 111839, Note_on_c, 12, 55, 108
13, 111842, Note_on_c, 12, 52, 113
13, 111880, Note_off_c, 12, 36, 64
13, 111887, Note_off_c, 12, 52, 56
13, 111900, Note_on_c, 12, 55, 113
13, 111901, Note_on_c, 12, 52, 113
13, 111945, Note_off_c, 12, 55, 56
13, 111946, Note_off_c, 12, 52, 56
13, 111959, Note_on_c, 12, 52, 113
13, 111960, Note_on_c, 12, 36, 108
13, 111962, Note_on_c, 12, 55, 113
13, 112004, Note_off_c, 12, 52, 56
13, 112007, Note_off_c, 12, 55, 56
13, 112018, Note_on_c, 12, 55, 113
13, 112020, Note_off_c, 12, 64, 64
13, 112020, Note_on_c, 12, 52, 113
13, 112021, Note_off_c, 12, 55, 64
13, 112021, Note_off_c, 12, 76, 64
13, 112041, Note_off_c, 12, 36, 56
13, 112063, Note_off_c, 12, 55, 56
13, 112065, Note_off_c, 12, 52, 56
13, 112080, Note_on_c, 12, 40, 108
13, 112082, Note_on_c, 12, 55, 113
13, 112082, Note_on_c, 12, 52, 113
13, 112127, Note_off_c, 12, 52, 56
13, 112127, Note_off_c, 12, 55, 56
13, 112139, Note_on_c, 12, 55, 113
13, 112141, Note_on_c, 12, 52, 113
13, 112161, Note_off_c, 12, 40, 56
13, 112184, Note_off_c, 12, 55, 56
13, 112186, Note_off_c, 12, 52, 56
13, 112199, Note_on_c, 12, 55, 113
13, 112200, Note_on_c, 12, 31, 108
13, 112202, Note_on_c, 12, 52, 113
13, 112244, Note_off_c, 12, 55, 56
13, 112247, Note_off_c, 12, 52, 56
13, 112261, Note_on_c, 12, 52, 113
13, 112261, Note_on_c, 12, 55, 113
13, 112281, Note_off_c, 12, 31, 56
13, 112306, Note_off_c, 12, 55, 56
13, 112306, Note_off_c, 12, 52, 56
13, 112318, Note_on_c, 12, 55, 113
13, 112320, Note_on_c, 12, 36, 108
13, 112320, Note_on_c, 12, 76, 108
13, 112321, Note_on_c, 12, 64, 108
13, 112322, Note_on_c, 12, 52, 113
13, 112363, Note_off_c, 12, 55, 56
13, 112367, Note_off_c, 12, 52, 56
13, 112379, Note_on_c, 12, 55, 113
13, 112382, Note_on_c, 12, 52, 113
13, 112401, Note_off_c, 12, 36, 56
13, 112424, Note_off_c, 12, 55, 56
13, 112427, Note_off_c, 12, 52, 56
13, 112439, Note_on_c, 12, 52, 113
13, 112440, Note_on_c, 12, 55, 113
13, 112440, Note_on_c, 12, 40, 108
13, 112484, Note_off_c, 12, 52, 56
13, 112485, Note_off_c, 12, 55, 56
13, 112499, Note_on_c, 12, 55, 113
13, 112501, Note_on_c, 12, 52, 113
13, 112502, Note_off_c, 12, 76, 64
13, 112503, Note_off_c, 12, 64, 64
13, 112521, Note_off_c, 12, 40, 56
13, 112544, Note_off_c, 12, 55, 56
13, 112546, Note_off_c, 12, 52, 56
13, 112559, Note_on_c, 12, 55, 113
13, 112559, Note_on_c, 12, 43, 108
13, 112560, Note_on_c, 12, 52, 113
13, 112604, Note_off_c, 12, 55, 56
13, 112605, Note_off_c, 12, 52, 56
13, 112620, Note_on_c, 12, 55, 113
13, 112621, Note_on_c, 12, 52, 113
13, 112640, Note_off_c, 12, 43, 56
13, 112665, Note_off_c, 12, 55, 56
13, 112666, Note_off_c, 12, 52, 56
13, 112679, Note_on_c, 12, 52, 113
13, 112679, Note_on_c, 12, 55, 113
13, 112681, Note_on_c, 12, 48, 108
13, 112724, Note_off_c, 12, 55, 56
13, 112724, Note_off_c, 12, 52, 56
13, 112738, Note_on_c, 12, 55, 113
13, 112739, Note_on_c, 12, 52, 113
13, 112762, Note_off_c, 12, 48, 56
13, 112783, Note_off_c, 12, 55, 56
13, 112784, Note_off_c, 12, 52, 56
13, 112798, Note_on_c, 12, 76, 108
13, 112799, Note_on_c, 12, 55, 113
13, 112801, Note_on_c, 12, 52, 108
13, 112802, Note_on_c, 12, 64, 108
13, 112844, Note_off_c, 12, 55, 56
13, 112860, Note_on_c, 12, 52, 113
13, 112862, Note_on_c, 12, 55, 113
13, 112882, Note_off_c, 12, 52, 56
13, 112905, Note_off_c, 12, 52, 56
13, 112907, Note_off_c, 12, 55, 56
13, 112920, Note_on_c, 12, 55, 113
13, 112921, Note_on_c, 12, 48, 108
13, 112922, Note_on_c, 12, 52, 113
13, 112965, Note_off_c, 12, 55, 56
13, 112967, Note_off_c, 12, 52, 56
13, 112978, Note_on_c, 12, 52, 113
13, 112979, Note_on_c, 12, 55, 113
13, 112980, Note_off_c, 12, 76, 64
13, 112984, Note_off_c, 12, 64, 64
13, 113002, Note_off_c, 12, 48, 56
13, 113023, Note_off_c, 12, 52, 56
13, 113024, Note_off_c, 12, 55, 56
13, 113039, Note_on_c, 12, 52, 113
13, 113039, Note_on_c, 12, 43, 108
13, 113040, Note_on_c, 12, 55, 113
13, 113084, Note_off_c, 12, 52, 56
13, 113085, Note_off_c, 12, 55, 56
13, 113101, Note_on_c, 12, 55, 113
13, 113101, Note_on_c, 12, 52, 113
13, 113120, Note_off_c, 12, 43, 56
13, 113146, Note_off_c, 12, 52, 56
13, 113146, Note_off_c, 12, 55, 56
13, 113159, Note_on_c, 12, 40, 108
13, 113161, Note_on_c, 12, 52, 113
13, 113162, Note_on_c, 12, 55, 113
13, 113206, Note_off_c, 12, 52, 56
13, 113207, Note_off_c, 12, 55, 56
13, 113219, Note_on_c, 12, 55, 113
13, 113221, Note_on_c, 12, 52, 113
13, 113240, Note_off_c, 12, 40, 56
13, 113264, Note_off_c, 12, 55, 56
13, 113266, Note_off_c, 12, 52, 56
13, 113279, Note_on_c, 12, 72, 108
13, 113279, Note_on_c, 12, 36, 108
13, 113280, Note_on_c, 12, 64, 108
13, 113281, Note_on_c, 12, 76, 108
13, 113282, Note_on_c, 12, 52, 108
13, 113360, Note_off_c, 12, 36, 56
13, 113399, Note_on_c, 12, 35, 108
13, 113461, Note_off_c, 12, 72, 64
13, 113462, Note_off_c, 12, 64, 64
13, 113480, Note_off_c, 12, 35, 56
13, 113520, Note_on_c, 12, 36, 108
13, 113601, Note_off_c, 12, 36, 56
13, 113639, Note_on_c, 12, 36, 108
13, 113720, Note_off_c, 12, 36, 56
13, 113759, Note_on_c, 12, 36, 108
13, 113857, Note_off_c, 12, 76, 64
13, 113998, Note_on_c, 12, 72, 108
13, 114214, Note_off_c, 12, 72, 64
13, 114240, Note_on_c, 12, 76, 108
13, 114277, Note_off_c, 12, 36, 64
13, 114360, Note_on_c, 12, 35, 74
13, 114441, Note_off_c, 12, 35, 56
13, 114456, Note_off_c, 12, 76, 64
13, 114478, Note_on_c, 12, 72, 108
13, 114479, Note_on_c, 12, 36, 71
13, 114560, Note_off_c, 12, 36, 56
13, 114599, Note_on_c, 12, 36, 71
13, 114626, Note_off_c, 12, 52, 64
13, 114680, Note_off_c, 12, 36, 56
13, 114694, Note_off_c, 12, 72, 64
13, 114719, Note_on_c, 12, 52, 108
13, 114720, Note_on_c, 12, 36, 71
13, 114720, Note_on_c, 12, 79, 108
13, 114901, Note_off_c, 12, 52, 64
13, 114936, Note_off_c, 12, 79, 64
13, 114958, Note_on_c, 12, 78, 108
13, 114960, Note_on_c, 12, 54, 108
13, 115096, Note_off_c, 12, 54, 64
13, 115120, Note_off_c, 12, 78, 64
13, 115139, Note_on_c, 12, 55, 113
13, 115140, Note_on_c, 12, 76, 113
13, 115184, Note_off_c, 12, 55, 56
13, 115185, Note_off_c, 12, 76, 56
13, 115199, Note_on_c, 12, 78, 108
13, 115200, Note_on_c, 12, 54, 108
13, 115238, Note_off_c, 12, 36, 64
13, 115320, Note_on_c, 12, 38, 108
13, 115401, Note_off_c, 12, 38, 56
13, 115440, Note_on_c, 12, 38, 108
13, 115521, Note_off_c, 12, 38, 56
13, 115557, Note_on_c, 12, 38, 108
13, 115775, Note_off_c, 12, 78, 64
13, 115918, Note_on_c, 12, 72, 108
13, 116134, Note_off_c, 12, 72, 64
13, 116162, Note_on_c, 12, 78, 108
13, 116183, Note_off_c, 12, 38, 64
13, 116280, Note_on_c, 12, 37, 108
13, 116361, Note_off_c, 12, 37, 56
13, 116378, Note_off_c, 12, 78, 64
13, 116401, Note_on_c, 12, 72, 108
13, 116401, Note_on_c, 12, 38, 108
13, 116482, Note_off_c, 12, 38, 56
13, 116519, Note_on_c, 12, 38, 108
13, 116544, Note_off_c, 12, 54, 64
13, 116600, Note_off_c, 12, 38, 56
13, 116617, Note_off_c, 12, 72, 64
13, 116638, Note_on_c, 12, 38, 108
13, 116639, Note_on_c, 12, 54, 108
13, 116640, Note_on_c, 12, 81, 108
13, 116821, Note_off_c, 12, 54, 64
13, 116856, Note_off_c, 12, 81, 64
13, 116878, Note_on_c, 12, 55, 108
13, 116880, Note_on_c, 12, 79, 108
13, 117014, Note_off_c, 12, 55, 64
13, 117042, Note_off_c, 12, 79, 64
13, 117059, Note_on_c, 12, 57, 113
13, 117060, Note_on_c, 12, 78, 113
13, 117104, Note_off_c, 12, 57, 56
13, 117105, Note_off_c, 12, 78, 56
13, 117118, Note_on_c, 12, 59, 108
13, 117121, Note_on_c, 12, 79, 108
13, 117156, Note_off_c, 12, 38, 64
13, 117239, Note_on_c, 12, 37, 108
13, 117320, Note_off_c, 12, 37, 56
13, 117337, Note_off_c, 12, 79, 64
13, 117359, Note_on_c, 12, 74, 108
13, 117361, Note_on_c, 12, 38, 108
13, 117442, Note_off_c, 12, 38, 56
13, 117479, Note_on_c, 12, 38, 108
13, 117502, Note_off_c, 12, 59, 64
13, 117560, Note_off_c, 12, 38, 56
13, 117575, Note_off_c, 12, 74, 64
13, 117598, Note_on_c, 12, 55, 108
13, 117598, Note_on_c, 12, 83, 108
13, 117599, Note_on_c, 12, 38, 108
13, 117780, Note_off_c, 12, 55, 64
13, 117814, Note_off_c, 12, 83, 64
13, 117838, Note_on_c, 12, 81, 108
13, 117838, Note_on_c, 12, 57, 108
13, 117974, Note_off_c, 12, 57, 64
13, 118000, Note_off_c, 12, 81, 64
13, 118018, Note_on_c, 12, 79, 113
13, 118018, Note_on_c, 12, 59, 113
13, 118063, Note_off_c, 12, 59, 56
13, 118072, Note_off_c, 12, 79, 56
13, 118080, Note_on_c, 12, 78, 108
13, 118081, Note_on_c, 12, 57, 108
13, 118117, Note_off_c, 12, 38, 64
13, 118320, Note_on_c, 12, 37, 108
13, 118368, Note_off_c, 12, 78, 64
13, 118401, Note_off_c, 12, 37, 56
13, 118439, Note_on_c, 12, 74, 108
13, 118440, Note_on_c, 12, 38, 108
13, 118465, Note_off_c, 12, 57, 64
13, 118521, Note_off_c, 12, 38, 56
13, 118530, Note_off_c, 12, 74, 56
13, 118561, Note_on_c, 12, 38, 108
13, 118562, Note_on_c, 12, 54, 108
13, 118562, Note_on_c, 12, 81, 108
13, 118642, Note_off_c, 12, 38, 56
13, 118681, Note_on_c, 12, 38, 108
13, 118762, Note_off_c, 12, 38, 56
13, 118799, Note_on_c, 12, 37, 108
13, 118850, Note_off_c, 12, 54, 64
13, 118880, Note_off_c, 12, 37, 56
13, 118904, Note_off_c, 12, 81, 64
13, 118919, Note_on_c, 12, 55, 113
13, 118919, Note_on_c, 12, 38, 108
13, 118922, Note_on_c, 12, 79, 113
13, 118964, Note_off_c, 12, 55, 56
13, 118976, Note_off_c, 12, 79, 56
13, 118978, Note_on_c, 12, 78, 113
13, 118981, Note_on_c, 12, 57, 113
13, 119000, Note_off_c, 12, 38, 56
13, 119026, Note_off_c, 12, 57, 56
13, 119032, Note_off_c, 12, 78, 56
13, 119041, Note_on_c, 12, 59, 108
13, 119041, Note_on_c, 12, 38, 108
13, 119042, Note_on_c, 12, 79, 108
13, 119122, Note_off_c, 12, 38, 56
13, 119159, Note_on_c, 12, 37, 108
13, 119240, Note_off_c, 12, 37, 56
13, 119280, Note_on_c, 12, 38, 108
13, 119330, Note_off_c, 12, 79, 64
13, 119361, Note_off_c, 12, 38, 56
13, 119400, Note_on_c, 12, 38, 108
13, 119402, Note_on_c, 12, 74, 108
13, 119425, Note_off_c, 12, 59, 64
13, 119481, Note_off_c, 12, 38, 56
13, 119493, Note_off_c, 12, 74, 56
13, 119520, Note_on_c, 12, 55, 108
13, 119520, Note_on_c, 12, 38, 108
13, 119522, Note_on_c, 12, 83, 108
13, 119601, Note_off_c, 12, 38, 56
13, 119641, Note_on_c, 12, 37, 108
13, 119722, Note_off_c, 12, 37, 56
13, 119759, Note_on_c, 12, 38, 108
13, 119808, Note_off_c, 12, 55, 64
13, 119840, Note_off_c, 12, 38, 56
13, 119864, Note_off_c, 12, 83, 64
13, 119880, Note_on_c, 12, 38, 108
13, 119882, Note_on_c, 12, 81, 113
13, 119882, Note_on_c, 12, 57, 113
13, 119927, Note_off_c, 12, 57, 56
13, 119936, Note_off_c, 12, 81, 56
13, 119938, Note_on_c, 12, 79, 113
13, 119939, Note_on_c, 12, 59, 113
13, 119961, Note_off_c, 12, 38, 56
13, 119983, Note_off_c, 12, 79, 56
13, 119984, Note_off_c, 12, 59, 56
13, 119999, Note_on_c, 12, 54, 108
13, 120000, Note_on_c, 12, 38, 108
13, 120001, Note_on_c, 12, 86, 108
13, 120081, Note_off_c, 12, 38, 56
13, 120090, Note_off_c, 12, 54, 56
13, 120121, Note_on_c, 12, 66, 108
13, 120121, Note_on_c, 12, 50, 108
13, 120202, Note_off_c, 12, 50, 56
13, 120239, Note_on_c, 12, 48, 108
13, 120303, Note_off_c, 12, 66, 64
13, 120320, Note_off_c, 12, 48, 56
13, 120358, Note_on_c, 12, 67, 108
13, 120361, Note_on_c, 12, 47, 108
13, 120422, Note_off_c, 12, 47, 56
13, 120426, Note_off_c, 12, 67, 56
13, 120479, Note_on_c, 12, 45, 108
13, 120481, Note_on_c, 12, 69, 108
13, 120540, Note_off_c, 12, 45, 56
13, 120549, Note_off_c, 12, 69, 56
13, 120577, Note_off_c, 12, 86, 64
13, 120599, Note_on_c, 12, 74, 108
13, 120600, Note_on_c, 12, 47, 108
13, 120602, Note_on_c, 12, 86, 108
13, 120681, Note_off_c, 12, 47, 56
13, 120690, Note_off_c, 12, 74, 56
13, 120710, Note_off_c, 12, 86, 56
13, 120719, Note_on_c, 12, 45, 108
13, 120720, Note_on_c, 12, 84, 108
13, 120722, Note_on_c, 12, 72, 108
13, 120800, Note_off_c, 12, 45, 56
13, 120811, Note_off_c, 12, 84, 56
13, 120813, Note_off_c, 12, 72, 56
13, 120838, Note_on_c, 12, 71, 108
13, 120840, Note_on_c, 12, 43, 108
13, 120842, Note_on_c, 12, 83, 108
13, 120910, Note_off_c, 12, 83, 56
13, 120921, Note_off_c, 12, 43, 56
13, 120929, Note_off_c, 12, 71, 56
13, 120960, Note_on_c, 12, 42, 108
13, 120961, Note_on_c, 12, 81, 108
13, 120962, Note_on_c, 12, 69, 108
13, 121021, Note_off_c, 12, 42, 56
13, 121029, Note_off_c, 12, 81, 56
13, 121030, Note_off_c, 12, 69, 56
13, 121079, Note_on_c, 12, 71, 108
13, 121080, Note_on_c, 12, 43, 108
13, 121082, Note_on_c, 12, 83, 108
13, 121161, Note_off_c, 12, 43, 56
13, 121170, Note_off_c, 12, 71, 56
13, 121190, Note_off_c, 12, 83, 56
13, 121199, Note_on_c, 12, 69, 108
13, 121200, Note_on_c, 12, 42, 108
13, 121201, Note_on_c, 12, 81, 108
13, 121281, Note_off_c, 12, 42, 56
13, 121290, Note_off_c, 12, 69, 56
13, 121292, Note_off_c, 12, 81, 56
13, 121319, Note_on_c, 12, 79, 108
13, 121320, Note_on_c, 12, 40, 108
13, 121322, Note_on_c, 12, 67, 108
13, 121381, Note_off_c, 12, 40, 56
13, 121387, Note_off_c, 12, 79, 56
13, 121390, Note_off_c, 12, 67, 56
13, 121439, Note_on_c, 12, 62, 108
13, 121441, Note_on_c, 12, 78, 108
13, 121441, Note_on_c, 12, 38, 108
13, 121502, Note_off_c, 12, 38, 56
13, 121507, Note_off_c, 12, 62, 56
13, 121509, Note_off_c, 12, 78, 56
13, 121559, Note_on_c, 12, 62, 108
13, 121560, Note_on_c, 12, 38, 108
13, 121561, Note_on_c, 12, 74, 108
13, 121641, Note_off_c, 12, 38, 56
13, 121650, Note_off_c, 12, 62, 56
13, 121669, Note_off_c, 12, 74, 56
13, 121678, Note_on_c, 12, 73, 108
13, 121678, Note_on_c, 12, 64, 108
13, 121680, Note_on_c, 12, 40, 108
13, 121761, Note_off_c, 12, 40, 56
13, 121769, Note_off_c, 12, 64, 56
13, 121786, Note_off_c, 12, 73, 56
13, 121799, Note_on_c, 12, 79, 108
13, 121801, Note_on_c, 12, 33, 108
13, 121802, Note_on_c, 12, 57, 108
13, 121862, Note_off_c, 12, 33, 56
13, 121867, Note_off_c, 12, 79, 56
13, 121870, Note_off_c, 12, 57, 56
13, 121918, Note_on_c, 12, 78, 108
13, 121919, Note_on_c, 12, 38, 108
13, 121921, Note_on_c, 12, 62, 108
13, 122000, Note_off_c, 12, 38, 56
13, 122009, Note_off_c, 12, 78, 56
13, 122012, Note_off_c, 12, 62, 56
13, 122520, Note_on_c, 12, 50, 108
13, 122520, Note_on_c, 12, 62, 108
13, 122611, Note_off_c, 12, 50, 56
13, 122628, Note_off_c, 12, 62, 56
13, 122639, Note_on_c, 12, 49, 108
13, 122641, Note_on_c, 12, 61, 108
13, 122730, Note_off_c, 12, 49, 56
13, 122749, Note_off_c, 12, 61, 56
13, 122760, Note_on_c, 12, 67, 108
13, 122762, Note_on_c, 12, 55, 108
13, 122851, Note_off_c, 12, 67, 56
13, 122853, Note_off_c, 12, 55, 56
13, 122880, Note_on_c, 12, 66, 108
13, 122881, Note_on_c, 12, 54, 108
13, 122971, Note_off_c, 12, 66, 56
13, 122972, Note_off_c, 12, 54, 56
13, 123001, Note_on_c, 12, 38, 108
13, 123082, Note_off_c, 12, 38, 56
13, 123119, Note_on_c, 12, 36, 108
13, 123200, Note_off_c, 12, 36, 56
13, 123241, Note_on_c, 12, 45, 108
13, 123302, Note_off_c, 12, 45, 56
13, 123359, Note_on_c, 12, 36, 108
13, 123440, Note_off_c, 12, 36, 56
13, 123479, Note_on_c, 12, 35, 108
13, 123560, Note_off_c, 12, 35, 56
13, 123600, Note_on_c, 12, 33, 108
13, 123601, Note_on_c, 12, 54, 113
13, 123602, Note_on_c, 12, 69, 108
13, 123661, Note_off_c, 12, 54, 56
13, 123673, Note_on_c, 12, 71, 108
13, 123673, Note_on_c, 12, 55, 113
13, 123674, Note_off_c, 12, 69, 56
13, 123681, Note_off_c, 12, 33, 56
13, 123721, Note_on_c, 12, 42, 108
13, 123733, Note_off_c, 12, 55, 56
13, 123745, Note_off_c, 12, 71, 56
13, 123749, Note_on_c, 12, 72, 113
13, 123766, Note_on_c, 12, 57, 113
13, 123802, Note_off_c, 12, 42, 56
13, 123809, Note_off_c, 12, 72, 56
13, 123826, Note_off_c, 12, 57, 56
13, 123840, Note_on_c, 12, 74, 108
13, 123842, Note_on_c, 12, 59, 113
13, 123843, Note_on_c, 12, 31, 108
13, 123902, Note_off_c, 12, 59, 56
13, 123915, Note_on_c, 12, 55, 113
13, 123975, Note_off_c, 12, 55, 56
13, 123992, Note_on_c, 12, 59, 113
13, 124006, Note_off_c, 12, 31, 64
13, 124022, Note_off_c, 12, 74, 64
13, 124052, Note_off_c, 12, 59, 56
13, 124078, Note_on_c, 12, 71, 108
13, 124081, Note_on_c, 12, 59, 113
13, 124141, Note_off_c, 12, 59, 56
13, 124150, Note_off_c, 12, 71, 56
13, 124156, Note_on_c, 12, 72, 108
13, 124156, Note_on_c, 12, 59, 113
13, 124216, Note_off_c, 12, 59, 56
13, 124228, Note_off_c, 12, 72, 56
13, 124231, Note_on_c, 12, 74, 108
13, 124231, Note_on_c, 12, 59, 113
13, 124291, Note_off_c, 12, 59, 56
13, 124303, Note_off_c, 12, 74, 56
13, 124319, Note_on_c, 12, 76, 108
13, 124319, Note_on_c, 12, 55, 113
13, 124320, Note_on_c, 12, 31, 108
13, 124379, Note_off_c, 12, 55, 56
13, 124393, Note_on_c, 12, 60, 113
13, 124453, Note_off_c, 12, 60, 56
13, 124483, Note_off_c, 12, 31, 64
13, 124487, Note_on_c, 12, 60, 113
13, 124501, Note_off_c, 12, 76, 64
13, 124547, Note_off_c, 12, 60, 56
13, 124560, Note_on_c, 12, 60, 113
13, 124562, Note_on_c, 12, 76, 108
13, 124620, Note_off_c, 12, 60, 56
13, 124634, Note_off_c, 12, 76, 56
13, 124635, Note_on_c, 12, 78, 108
13, 124635, Note_on_c, 12, 60, 113
13, 124695, Note_off_c, 12, 60, 56
13, 124707, Note_off_c, 12, 78, 56
13, 124708, Note_on_c, 12, 79, 113
13, 124709, Note_on_c, 12, 60, 113
13, 124768, Note_off_c, 12, 79, 56
13, 124769, Note_off_c, 12, 60, 56
13, 124799, Note_on_c, 12, 31, 108
13, 124800, Note_on_c, 12, 74, 108
13, 124800, Note_on_c, 12, 55, 113
13, 124860, Note_off_c, 12, 55, 56
13, 124875, Note_on_c, 12, 59, 113
13, 124935, Note_off_c, 12, 59, 56
13, 124950, Note_on_c, 12, 59, 113
13, 124962, Note_off_c, 12, 31, 64
13, 125010, Note_off_c, 12, 59, 56
13, 125038, Note_on_c, 12, 59, 113
13, 125039, Note_on_c, 12, 38, 113
13, 125093, Note_off_c, 12, 38, 56
13, 125098, Note_off_c, 12, 59, 56
13, 125116, Note_on_c, 12, 59, 113
13, 125121, Note_on_c, 12, 40, 113
13, 125175, Note_off_c, 12, 40, 56
13, 125176, Note_off_c, 12, 59, 56
13, 125201, Note_on_c, 12, 42, 113
13, 125204, Note_on_c, 12, 59, 113
13, 125255, Note_off_c, 12, 42, 56
13, 125264, Note_off_c, 12, 59, 56
13, 125278, Note_on_c, 12, 59, 108
13, 125282, Note_on_c, 12, 43, 108
13, 125376, Note_off_c, 12, 74, 64
13, 125445, Note_off_c, 12, 43, 64
13, 125460, Note_off_c, 12, 59, 64
13, 125521, Note_on_c, 12, 74, 73
13, 125522, Note_on_c, 12, 62, 73
13, 125593, Note_off_c, 12, 74, 56
13, 125597, Note_on_c, 12, 72, 73
13, 125669, Note_off_c, 12, 72, 56
13, 125669, Note_on_c, 12, 71, 78
13, 125704, Note_off_c, 12, 62, 64
13, 125729, Note_off_c, 12, 71, 56
13, 125758, Note_on_c, 12, 69, 73
13, 125762, Note_on_c, 12, 62, 73
13, 125974, Note_off_c, 12, 69, 64
13, 126000, Note_on_c, 12, 72, 73
13, 126072, Note_off_c, 12, 72, 56
13, 126077, Note_on_c, 12, 71, 73
13, 126148, Note_on_c, 12, 69, 73
13, 126149, Note_off_c, 12, 71, 56
13, 126220, Note_off_c, 12, 69, 56
13, 126241, Note_on_c, 12, 67, 73
13, 126457, Note_off_c, 12, 67, 64
13, 126480, Note_on_c, 12, 71, 73
13, 126530, Note_off_c, 12, 62, 64
13, 126552, Note_off_c, 12, 71, 56
13, 126555, Note_on_c, 12, 69, 73
13, 126627, Note_off_c, 12, 69, 56
13, 126632, Note_on_c, 12, 67, 73
13, 126704, Note_off_c, 12, 67, 56
13, 126720, Note_on_c, 12, 62, 73
13, 126720, Note_on_c, 12, 66, 73
13, 126902, Note_off_c, 12, 66, 64
13, 126902, Note_off_c, 12, 62, 64
13, 126958, Note_on_c, 12, 54, 79
13, 126959, Note_on_c, 12, 42, 79
13, 126962, Note_on_c, 12, 66, 80
13, 127013, Note_off_c, 12, 42, 56
13, 127018, Note_off_c, 12, 54, 56
13, 127034, Note_off_c, 12, 66, 56
13, 127034, Note_on_c, 12, 67, 82
13, 127036, Note_on_c, 12, 55, 83
13, 127041, Note_on_c, 12, 43, 83
13, 127095, Note_off_c, 12, 43, 56
13, 127096, Note_off_c, 12, 55, 56
13, 127106, Note_off_c, 12, 67, 56
13, 127119, Note_on_c, 12, 45, 86
13, 127126, Note_on_c, 12, 69, 90
13, 127126, Note_on_c, 12, 57, 86
13, 127173, Note_off_c, 12, 45, 56
13, 127186, Note_off_c, 12, 57, 56
13, 127186, Note_off_c, 12, 69, 56
13, 127201, Note_on_c, 12, 62, 87
13, 127202, Note_on_c, 12, 50, 85
13, 127202, Note_on_c, 12, 38, 85
13, 127365, Note_off_c, 12, 38, 64
13, 127383, Note_off_c, 12, 62, 64
13, 127384, Note_off_c, 12, 50, 64
13, 127438, Note_on_c, 12, 60, 95
13, 127441, Note_on_c, 12, 36, 95
13, 127495, Note_off_c, 12, 36, 56
13, 127498, Note_off_c, 12, 60, 56
13, 127515, Note_on_c, 12, 59, 95
13, 127519, Note_on_c, 12, 35, 95
13, 127573, Note_off_c, 12, 35, 56
13, 127575, Note_off_c, 12, 59, 56
13, 127589, Note_on_c, 12, 57, 95
13, 127600, Note_on_c, 12, 33, 95
13, 127649, Note_off_c, 12, 57, 56
13, 127654, Note_off_c, 12, 33, 56
13, 127678, Note_on_c, 12, 31, 90
13, 127679, Note_on_c, 12, 55, 90
13, 127681, Note_on_c, 12, 62, 90
13, 127682, Note_on_c, 12, 79, 90
13, 127756, Note_on_c, 12, 67, 95
13, 127816, Note_off_c, 12, 67, 56
13, 127832, Note_on_c, 12, 67, 95
13, 127841, Note_off_c, 12, 31, 64
13, 127861, Note_off_c, 12, 55, 64
13, 127863, Note_off_c, 12, 62, 64
13, 127864, Note_off_c, 12, 79, 64
13, 127892, Note_off_c, 12, 67, 56
13, 127919, Note_on_c, 12, 67, 95
13, 127979, Note_off_c, 12, 67, 56
13, 127997, Note_on_c, 12, 66, 95
13, 128057, Note_off_c, 12, 66, 56
13, 128068, Note_on_c, 12, 65, 95
13, 128128, Note_off_c, 12, 65, 56
13, 128158, Note_on_c, 12, 64, 95
13, 128158, Note_on_c, 12, 31, 90
13, 128160, Note_on_c, 12, 55, 90
13, 128160, Note_on_c, 12, 79, 90
13, 128161, Note_on_c, 12, 62, 90
13, 128218, Note_off_c, 12, 64, 56
13, 128235, Note_on_c, 12, 64, 95
13, 128295, Note_off_c, 12, 64, 56
13, 128321, Note_off_c, 12, 31, 64
13, 128325, Note_on_c, 12, 64, 95
13, 128342, Note_off_c, 12, 79, 64
13, 128342, Note_off_c, 12, 55, 64
13, 128343, Note_off_c, 12, 62, 64
13, 128385, Note_off_c, 12, 64, 56
13, 128400, Note_on_c, 12, 64, 95
13, 128460, Note_off_c, 12, 64, 56
13, 128473, Note_on_c, 12, 62, 95
13, 128533, Note_off_c, 12, 62, 56
13, 128565, Note_on_c, 12, 60, 95
13, 128625, Note_off_c, 12, 60, 56
13, 128637, Note_on_c, 12, 31, 90
13, 128638, Note_on_c, 12, 62, 95
13, 128638, Note_on_c, 12, 79, 90
13, 128641, Note_on_c, 12, 55, 90
13, 128698, Note_off_c, 12, 62, 56
13, 128714, Note_on_c, 12, 59, 95
13, 128774, Note_off_c, 12, 59, 56
13, 128792, Note_on_c, 12, 59, 95
13, 128800, Note_off_c, 12, 31, 64
13, 128820, Note_off_c, 12, 79, 64
13, 128823, Note_off_c, 12, 55, 64
13, 128852, Note_off_c, 12, 59, 56
13, 128878, Note_on_c, 12, 62, 95
13, 128878, Note_on_c, 12, 59, 95
13, 128879, Note_on_c, 12, 38, 95
13, 128933, Note_off_c, 12, 38, 56
13, 128938, Note_off_c, 12, 59, 56
13, 128938, Note_off_c, 12, 62, 56
13, 128953, Note_on_c, 12, 64, 95
13, 128954, Note_on_c, 12, 59, 95
13, 128959, Note_on_c, 12, 40, 95
13, 129013, Note_off_c, 12, 40, 56
13, 129013, Note_off_c, 12, 64, 56
13, 129014, Note_off_c, 12, 59, 56
13, 129039, Note_on_c, 12, 42, 95
13, 129045, Note_on_c, 12, 59, 95
13, 129046, Note_on_c, 12, 66, 95
13, 129093, Note_off_c, 12, 42, 56
13, 129105, Note_off_c, 12, 59, 56
13, 129106, Note_off_c, 12, 66, 56
13, 129118, Note_on_c, 12, 43, 90
13, 129120, Note_on_c, 12, 59, 90
13, 129120, Note_on_c, 12, 67, 90
13, 129281, Note_off_c, 12, 43, 64
13, 129302, Note_off_c, 12, 67, 64
13, 129302, Note_off_c, 12, 59, 64
13, 129359, Note_on_c, 12, 62, 73
13, 129362, Note_on_c, 12, 74, 73
13, 129434, Note_off_c, 12, 74, 56
13, 129434, Note_on_c, 12, 72, 73
13, 129506, Note_off_c, 12, 72, 56
13, 129512, Note_on_c, 12, 71, 73
13, 129584, Note_off_c, 12, 71, 56
13, 129598, Note_on_c, 12, 69, 73
13, 129814, Note_off_c, 12, 69, 64
13, 129841, Note_on_c, 12, 72, 73
13, 129913, Note_off_c, 12, 72, 56
13, 129916, Note_on_c, 12, 71, 73
13, 129988, Note_off_c, 12, 71, 56
13, 130004, Note_on_c, 12, 69, 73
13, 130076, Note_off_c, 12, 69, 56
13, 130078, Note_on_c, 12, 67, 73
13, 130294, Note_off_c, 12, 67, 64
13, 130321, Note_on_c, 12, 71, 73
13, 130393, Note_off_c, 12, 71, 56
13, 130396, Note_on_c, 12, 69, 73
13, 130468, Note_off_c, 12, 69, 56
13, 130483, Note_on_c, 12, 67, 73
13, 130555, Note_off_c, 12, 67, 56
13, 130558, Note_on_c, 12, 66, 73
13, 130740, Note_off_c, 12, 66, 64
13, 130751, Note_off_c, 12, 62, 64
13, 130799, Note_on_c, 12, 50, 95
13, 130800, Note_on_c, 12, 38, 95
13, 130854, Note_off_c, 12, 38, 56
13, 130859, Note_off_c, 12, 50, 56
13, 130873, Note_on_c, 12, 52, 95
13, 130879, Note_on_c, 12, 40, 95
13, 130933, Note_off_c, 12, 40, 56
13, 130933, Note_off_c, 12, 52, 56
13, 130950, Note_on_c, 12, 54, 95
13, 130961, Note_on_c, 12, 42, 95
13, 131010, Note_off_c, 12, 54, 56
13, 131015, Note_off_c, 12, 42, 56
13, 131038, Note_on_c, 12, 55, 90
13, 131038, Note_on_c, 12, 43, 90
13, 131201, Note_off_c, 12, 43, 64
13, 131220, Note_off_c, 12, 55, 64
13, 131278, Note_on_c, 12, 64, 73
13, 131279, Note_on_c, 12, 76, 73
13, 131351, Note_off_c, 12, 76, 56
13, 131357, Note_on_c, 12, 74, 73
13, 131429, Note_off_c, 12, 74, 56
13, 131443, Note_on_c, 12, 72, 73
13, 131515, Note_off_c, 12, 72, 56
13, 131519, Note_on_c, 12, 71, 73
13, 131736, Note_off_c, 12, 71, 64
13, 131762, Note_on_c, 12, 74, 73
13, 131834, Note_off_c, 12, 74, 56
13, 131836, Note_on_c, 12, 72, 73
13, 131908, Note_off_c, 12, 72, 56
13, 131912, Note_on_c, 12, 71, 73
13, 131984, Note_off_c, 12, 71, 56
13, 131998, Note_on_c, 12, 69, 73
13, 132214, Note_off_c, 12, 69, 64
13, 132239, Note_on_c, 12, 72, 73
13, 132311, Note_off_c, 12, 72, 56
13, 132315, Note_on_c, 12, 71, 73
13, 132387, Note_off_c, 12, 71, 56
13, 132390, Note_on_c, 12, 69, 73
13, 132462, Note_off_c, 12, 69, 56
13, 132480, Note_on_c, 12, 68, 73
13, 132662, Note_off_c, 12, 68, 64
13, 132670, Note_off_c, 12, 64, 64
13, 132719, Note_on_c, 12, 52, 95
13, 132720, Note_on_c, 12, 64, 95
13, 132721, Note_on_c, 12, 40, 95
13, 132775, Note_off_c, 12, 40, 56
13, 132779, Note_off_c, 12, 52, 56
13, 132780, Note_off_c, 12, 64, 56
13, 132795, Note_on_c, 12, 66, 95
13, 132797, Note_on_c, 12, 54, 95
13, 132801, Note_on_c, 12, 42, 95
13, 132855, Note_off_c, 12, 42, 56
13, 132855, Note_off_c, 12, 66, 56
13, 132857, Note_off_c, 12, 54, 56
13, 132871, Note_on_c, 12, 68, 95
13, 132880, Note_on_c, 12, 44, 95
13, 132884, Note_on_c, 12, 56, 95
13, 132931, Note_off_c, 12, 68, 56
13, 132934, Note_off_c, 12, 44, 56
13, 132944, Note_off_c, 12, 56, 56
13, 132958, Note_on_c, 12, 69, 90
13, 132958, Note_on_c, 12, 57, 90
13, 132962, Note_on_c, 12, 45, 90
13, 133125, Note_off_c, 12, 45, 64
13, 133140, Note_off_c, 12, 57, 64
13, 133140, Note_off_c, 12, 69, 64
13, 133200, Note_on_c, 12, 79, 56
13, 133203, Note_on_c, 12, 36, 56
13, 133272, Note_off_c, 12, 79, 56
13, 133274, Note_on_c, 12, 77, 56
13, 133346, Note_off_c, 12, 77, 56
13, 133351, Note_on_c, 12, 76, 56
13, 133366, Note_off_c, 12, 36, 64
13, 133423, Note_off_c, 12, 76, 56
13, 133441, Note_on_c, 12, 35, 56
13, 133442, Note_on_c, 12, 74, 56
13, 133658, Note_off_c, 12, 74, 64
13, 133680, Note_on_c, 12, 77, 56
13, 133752, Note_off_c, 12, 77, 56
13, 133757, Note_on_c, 12, 76, 56
13, 133786, Note_off_c, 12, 35, 64
13, 133829, Note_off_c, 12, 76, 56
13, 133844, Note_on_c, 12, 74, 56
13, 133916, Note_off_c, 12, 74, 56
13, 133918, Note_on_c, 12, 72, 56
13, 133918, Note_on_c, 12, 36, 56
13, 134134, Note_off_c, 12, 72, 64
13, 134158, Note_on_c, 12, 76, 56
13, 134162, Note_on_c, 12, 60, 61
13, 134222, Note_off_c, 12, 60, 56
13, 134230, Note_off_c, 12, 76, 56
13, 134234, Note_on_c, 12, 74, 56
13, 134234, Note_on_c, 12, 59, 61
13, 134263, Note_off_c, 12, 36, 64
13, 134294, Note_off_c, 12, 59, 56
13, 134306, Note_off_c, 12, 74, 56
13, 134309, Note_on_c, 12, 72, 56
13, 134311, Note_on_c, 12, 60, 61
13, 134371, Note_off_c, 12, 60, 56
13, 134381, Note_off_c, 12, 72, 56
13, 134399, Note_on_c, 12, 71, 61
13, 134401, Note_on_c, 12, 62, 61
13, 134401, Note_on_c, 12, 31, 56
13, 134401, Note_on_c, 12, 59, 61
13, 134444, Note_off_c, 12, 71, 56
13, 134446, Note_off_c, 12, 59, 56
13, 134446, Note_off_c, 12, 62, 56
13, 134458, Note_on_c, 12, 62, 62
13, 134458, Note_on_c, 12, 59, 62
13, 134461, Note_on_c, 12, 74, 62
13, 134482, Note_off_c, 12, 31, 56
13, 134503, Note_off_c, 12, 59, 56
13, 134503, Note_off_c, 12, 62, 56
13, 134506, Note_off_c, 12, 74, 56
13, 134520, Note_on_c, 12, 43, 59
13, 134521, Note_on_c, 12, 74, 64
13, 134521, Note_on_c, 12, 62, 64
13, 134522, Note_on_c, 12, 59, 64
13, 134566, Note_off_c, 12, 62, 56
13, 134566, Note_off_c, 12, 74, 56
13, 134567, Note_off_c, 12, 59, 56
13, 134581, Note_on_c, 12, 59, 65
13, 134582, Note_on_c, 12, 74, 65
13, 134582, Note_on_c, 12, 62, 65
13, 134601, Note_off_c, 12, 43, 56
13, 134626, Note_off_c, 12, 59, 56
13, 134627, Note_off_c, 12, 62, 56
13, 134627, Note_off_c, 12, 74, 56
13, 134641, Note_on_c, 12, 62, 67
13, 134641, Note_on_c, 12, 43, 62
13, 134642, Note_on_c, 12, 74, 67
13, 134642, Note_on_c, 12, 59, 67
13, 134686, Note_off_c, 12, 62, 56
13, 134687, Note_off_c, 12, 59, 56
13, 134687, Note_off_c, 12, 74, 56
13, 134699, Note_on_c, 12, 62, 69
13, 134700, Note_on_c, 12, 74, 69
13, 134702, Note_on_c, 12, 59, 69
13, 134722, Note_off_c, 12, 43, 56
13, 134744, Note_off_c, 12, 62, 56
13, 134745, Note_off_c, 12, 74, 56
13, 134747, Note_off_c, 12, 59, 56
13, 134758, Note_on_c, 12, 74, 70
13, 134760, Note_on_c, 12, 62, 70
13, 134760, Note_on_c, 12, 43, 65
13, 134760, Note_on_c, 12, 59, 70
13, 134803, Note_off_c, 12, 74, 56
13, 134805, Note_off_c, 12, 59, 56
13, 134805, Note_off_c, 12, 62, 56
13, 134820, Note_on_c, 12, 74, 72
13, 134820, Note_on_c, 12, 62, 72
13, 134821, Note_on_c, 12, 59, 72
13, 134841, Note_off_c, 12, 43, 56
13, 134865, Note_off_c, 12, 62, 56
13, 134865, Note_off_c, 12, 74, 56
13, 134866, Note_off_c, 12, 59, 56
13, 134879, Note_on_c, 12, 43, 69
13, 134881, Note_on_c, 12, 74, 74
13, 134881, Note_on_c, 12, 62, 74
13, 134881, Note_on_c, 12, 59, 74
13, 134926, Note_off_c, 12, 59, 56
13, 134926, Note_off_c, 12, 62, 56
13, 134926, Note_off_c, 12, 74, 56
13, 134938, Note_on_c, 12, 59, 75
13, 134940, Note_on_c, 12, 74, 75
13, 134941, Note_on_c, 12, 62, 75
13, 134960, Note_off_c, 12, 43, 56
13, 134983, Note_off_c, 12, 59, 56
13, 134985, Note_off_c, 12, 74, 56
13, 134986, Note_off_c, 12, 62, 56
13, 134999, Note_on_c, 12, 74, 77
13, 134999, Note_on_c, 12, 43, 72
13, 135001, Note_on_c, 12, 59, 77
13, 135001, Note_on_c, 12, 62, 77
13, 135044, Note_off_c, 12, 74, 56
13, 135046, Note_off_c, 12, 62, 56
13, 135046, Note_off_c, 12, 59, 56
13, 135058, Note_on_c, 12, 62, 78
13, 135059, Note_on_c, 12, 74, 78
13, 135061, Note_on_c, 12, 59, 78
13, 135080, Note_off_c, 12, 43, 56
13, 135103, Note_off_c, 12, 62, 56
13, 135104, Note_off_c, 12, 74, 56
13, 135106, Note_off_c, 12, 59, 56
13, 135118, Note_on_c, 12, 59, 80
13, 135120, Note_on_c, 12, 62, 80
13, 135120, Note_on_c, 12, 43, 75
13, 135121, Note_on_c, 12, 74, 80
13, 135163, Note_off_c, 12, 59, 56
13, 135165, Note_off_c, 12, 62, 56
13, 135166, Note_off_c, 12, 74, 56
13, 135178, Note_on_c, 12, 74, 82
13, 135178, Note_on_c, 12, 62, 82
13, 135179, Note_on_c, 12, 59, 82
13, 135201, Note_off_c, 12, 43, 56
13, 135223, Note_off_c, 12, 62, 56
13, 135223, Note_off_c, 12, 74, 56
13, 135224, Note_off_c, 12, 59, 56
13, 135238, Note_on_c, 12, 74, 83
13, 135241, Note_on_c, 12, 62, 84
13, 135241, Note_on_c, 12, 43, 79
13, 135242, Note_on_c, 12, 59, 84
13, 135283, Note_off_c, 12, 74, 56
13, 135286, Note_off_c, 12, 62, 56
13, 135287, Note_off_c, 12, 59, 56
13, 135298, Note_on_c, 12, 59, 85
13, 135301, Note_on_c, 12, 62, 85
13, 135302, Note_on_c, 12, 74, 85
13, 135322, Note_off_c, 12, 43, 56
13, 135343, Note_off_c, 12, 59, 56
13, 135346, Note_off_c, 12, 62, 56
13, 135347, Note_off_c, 12, 74, 56
13, 135358, Note_on_c, 12, 63, 86
13, 135358, Note_on_c, 12, 75, 86
13, 135359, Note_on_c, 12, 43, 81
13, 135361, Note_on_c, 12, 59, 86
13, 135403, Note_off_c, 12, 75, 56
13, 135403, Note_off_c, 12, 63, 56
13, 135406, Note_off_c, 12, 59, 56
13, 135418, Note_on_c, 12, 75, 88
13, 135418, Note_on_c, 12, 63, 88
13, 135421, Note_on_c, 12, 59, 88
13, 135440, Note_off_c, 12, 43, 56
13, 135463, Note_off_c, 12, 63, 56
13, 135463, Note_off_c, 12, 75, 56
13, 135466, Note_off_c, 12, 59, 56
13, 135480, Note_on_c, 12, 43, 85
13, 135481, Note_on_c, 12, 75, 90
13, 135481, Note_on_c, 12, 59, 90
13, 135482, Note_on_c, 12, 63, 90
13, 135526, Note_off_c, 12, 59, 56
13, 135526, Note_off_c, 12, 75, 56
13, 135527, Note_off_c, 12, 63, 56
13, 135538, Note_on_c, 12, 63, 92
13, 135539, Note_on_c, 12, 75, 91
13, 135541, Note_on_c, 12, 59, 92
13, 135561, Note_off_c, 12, 43, 56
13, 135583, Note_off_c, 12, 63, 56
13, 135584, Note_off_c, 12, 75, 56
13, 135586, Note_off_c, 12, 59, 56
13, 135598, Note_on_c, 12, 75, 93
13, 135599, Note_on_c, 12, 59, 93
13, 135600, Note_on_c, 12, 63, 93
13, 135601, Note_on_c, 12, 43, 88
13, 135643, Note_off_c, 12, 75, 56
13, 135644, Note_off_c, 12, 59, 56
13, 135645, Note_off_c, 12, 63, 56
13, 135659, Note_on_c, 12, 75, 94
13, 135660, Note_on_c, 12, 59, 94
13, 135660, Note_on_c, 12, 63, 94
13, 135682, Note_off_c, 12, 43, 56
13, 135704, Note_off_c, 12, 75, 56
13, 135705, Note_off_c, 12, 63, 56
13, 135705, Note_off_c, 12, 59, 56
13, 135718, Note_on_c, 12, 75, 97
13, 135718, Note_on_c, 12, 63, 97
13, 135719, Note_on_c, 12, 59, 97
13, 135719, Note_on_c, 12, 43, 92
13, 135763, Note_off_c, 12, 63, 56
13, 135763, Note_off_c, 12, 75, 56
13, 135764, Note_off_c, 12, 59, 56
13, 135779, Note_on_c, 12, 63, 98
13, 135780, Note_on_c, 12, 75, 98
13, 135780, Note_on_c, 12, 59, 98
13, 135800, Note_off_c, 12, 43, 56
13, 135824, Note_off_c, 12, 63, 56
13, 135825, Note_off_c, 12, 59, 56
13, 135825, Note_off_c, 12, 75, 56
13, 135840, Note_on_c, 12, 43, 95
13, 135841, Note_on_c, 12, 75, 99
13, 135841, Note_on_c, 12, 63, 100
13, 135841, Note_on_c, 12, 59, 100
13, 135886, Note_off_c, 12, 59, 56
13, 135886, Note_off_c, 12, 63, 56
13, 135886, Note_off_c, 12, 75, 56
13, 135898, Note_on_c, 12, 63, 101
13, 135899, Note_on_c, 12, 59, 101
13, 135901, Note_on_c, 12, 75, 101
13, 135921, Note_off_c, 12, 43, 56
13, 135943, Note_off_c, 12, 63, 56
13, 135944, Note_off_c, 12, 59, 56
13, 135946, Note_off_c, 12, 75, 56
13, 135959, Note_on_c, 12, 59, 103
13, 135960, Note_on_c, 12, 63, 103
13, 135960, Note_on_c, 12, 43, 98
13, 135962, Note_on_c, 12, 75, 102
13, 136004, Note_off_c, 12, 59, 56
13, 136005, Note_off_c, 12, 63, 56
13, 136007, Note_off_c, 12, 75, 56
13, 136020, Note_on_c, 12, 59, 105
13, 136021, Note_on_c, 12, 75, 105
13, 136022, Note_on_c, 12, 63, 105
13, 136041, Note_off_c, 12, 43, 56
13, 136065, Note_off_c, 12, 59, 56
13, 136066, Note_off_c, 12, 75, 56
13, 136067, Note_off_c, 12, 63, 56
13, 136078, Note_on_c, 12, 63, 106
13, 136079, Note_on_c, 12, 59, 106
13, 136079, Note_on_c, 12, 43, 101
13, 136082, Note_on_c, 12, 75, 106
13, 136123, Note_off_c, 12, 63, 56
13, 136124, Note_off_c, 12, 59, 56
13, 136127, Note_off_c, 12, 75, 56
13, 136139, Note_on_c, 12, 75, 108
13, 136139, Note_on_c, 12, 63, 108
13, 136141, Note_on_c, 12, 59, 108
13, 136160, Note_off_c, 12, 43, 56
13, 136184, Note_off_c, 12, 63, 56
13, 136184, Note_off_c, 12, 75, 56
13, 136186, Note_off_c, 12, 59, 56
13, 136199, Note_on_c, 12, 59, 109
13, 136201, Note_on_c, 12, 75, 109
13, 136201, Note_on_c, 12, 43, 104
13, 136201, Note_on_c, 12, 63, 109
13, 136244, Note_off_c, 12, 59, 56
13, 136246, Note_off_c, 12, 63, 56
13, 136246, Note_off_c, 12, 75, 56
13, 136260, Note_on_c, 12, 63, 111
13, 136262, Note_on_c, 12, 75, 110
13, 136262, Note_on_c, 12, 59, 111
13, 136282, Note_off_c, 12, 43, 56
13, 136305, Note_off_c, 12, 63, 56
13, 136307, Note_off_c, 12, 59, 56
13, 136307, Note_off_c, 12, 75, 56
13, 136318, Note_on_c, 12, 76, 113
13, 136318, Note_on_c, 12, 36, 108
13, 136321, Note_on_c, 12, 60, 113
13, 136322, Note_on_c, 12, 64, 113
13, 136363, Note_off_c, 12, 76, 56
13, 136366, Note_off_c, 12, 60, 56
13, 136367, Note_off_c, 12, 64, 56
13, 136380, Note_on_c, 12, 76, 113
13, 136382, Note_on_c, 12, 64, 113
13, 136382, Note_on_c, 12, 60, 113
13, 136425, Note_off_c, 12, 76, 56
13, 136427, Note_off_c, 12, 60, 56
13, 136427, Note_off_c, 12, 64, 56
13, 136438, Note_on_c, 12, 76, 113
13, 136440, Note_on_c, 12, 64, 113
13, 136440, Note_on_c, 12, 60, 113
13, 136483, Note_off_c, 12, 76, 56
13, 136485, Note_off_c, 12, 60, 56
13, 136485, Note_off_c, 12, 64, 56
13, 136499, Note_on_c, 12, 60, 113
13, 136499, Note_on_c, 12, 64, 113
13, 136502, Note_on_c, 12, 76, 113
13, 136544, Note_off_c, 12, 64, 56
13, 136544, Note_off_c, 12, 60, 56
13, 136547, Note_off_c, 12, 76, 56
13, 136558, Note_on_c, 12, 76, 113
13, 136558, Note_on_c, 12, 60, 113
13, 136560, Note_on_c, 12, 64, 113
13, 136603, Note_off_c, 12, 60, 56
13, 136603, Note_off_c, 12, 76, 56
13, 136605, Note_off_c, 12, 64, 56
13, 136619, Note_on_c, 12, 76, 113
13, 136621, Note_on_c, 12, 64, 113
13, 136622, Note_on_c, 12, 60, 113
13, 136664, Note_off_c, 12, 76, 56
13, 136666, Note_off_c, 12, 64, 56
13, 136667, Note_off_c, 12, 60, 56
13, 136680, Note_on_c, 12, 76, 113
13, 136680, Note_on_c, 12, 60, 113
13, 136681, Note_on_c, 12, 64, 113
13, 136725, Note_off_c, 12, 60, 56
13, 136725, Note_off_c, 12, 76, 56
13, 136726, Note_off_c, 12, 64, 56
13, 136738, Note_on_c, 12, 76, 113
13, 136738, Note_on_c, 12, 60, 113
13, 136739, Note_on_c, 12, 64, 113
13, 136783, Note_off_c, 12, 60, 56
13, 136783, Note_off_c, 12, 76, 56
13, 136784, Note_off_c, 12, 64, 56
13, 136798, Note_on_c, 12, 64, 113
13, 136799, Note_on_c, 12, 76, 113
13, 136801, Note_on_c, 12, 60, 113
13, 136836, Note_off_c, 12, 36, 64
13, 136843, Note_off_c, 12, 64, 56
13, 136844, Note_off_c, 12, 76, 56
13, 136846, Note_off_c, 12, 60, 56
13, 136858, Note_on_c, 12, 48, 113
13, 136862, Note_on_c, 12, 60, 113
13, 136903, Note_off_c, 12, 48, 56
13, 136907, Note_off_c, 12, 60, 56
13, 136919, Note_on_c, 12, 50, 113
13, 136920, Note_on_c, 12, 36, 108
13, 136921, Note_on_c, 12, 62, 113
13, 136964, Note_off_c, 12, 50, 56
13, 136966, Note_off_c, 12, 62, 56
13, 136978, Note_on_c, 12, 64, 113
13, 136979, Note_on_c, 12, 52, 113
13, 137001, Note_off_c, 12, 36, 56
13, 137023, Note_off_c, 12, 64, 56
13, 137024, Note_off_c, 12, 52, 56
13, 137038, Note_on_c, 12, 65, 113
13, 137039, Note_on_c, 12, 36, 108
13, 137041, Note_on_c, 12, 53, 113
13, 137083, Note_off_c, 12, 65, 56
13, 137086, Note_off_c, 12, 53, 56
13, 137101, Note_on_c, 12, 67, 113
13, 137101, Note_on_c, 12, 55, 113
13, 137120, Note_off_c, 12, 36, 56
13, 137146, Note_off_c, 12, 55, 56
13, 137146, Note_off_c, 12, 67, 56
13, 137160, Note_on_c, 12, 57, 113
13, 137160, Note_on_c, 12, 36, 108
13, 137161, Note_on_c, 12, 69, 113
13, 137205, Note_off_c, 12, 57, 56
13, 137206, Note_off_c, 12, 69, 56
13, 137219, Note_on_c, 12, 71, 113
13, 137220, Note_on_c, 12, 59, 113
13, 137241, Note_off_c, 12, 36, 56
13, 137264, Note_off_c, 12, 71, 56
13, 137265, Note_off_c, 12, 59, 56
13, 137279, Note_on_c, 12, 72, 113
13, 137279, Note_on_c, 12, 36, 108
13, 137282, Note_on_c, 12, 60, 113
13, 137324, Note_off_c, 12, 72, 56
13, 137327, Note_off_c, 12, 60, 56
13, 137339, Note_on_c, 12, 48, 113
13, 137341, Note_on_c, 12, 64, 113
13, 137342, Note_on_c, 12, 52, 113
13, 137360, Note_off_c, 12, 36, 56
13, 137384, Note_off_c, 12, 48, 56
13, 137386, Note_off_c, 12, 64, 56
13, 137387, Note_off_c, 12, 52, 56
13, 137398, Note_on_c, 12, 65, 113
13, 137399, Note_on_c, 12, 53, 113
13, 137400, Note_on_c, 12, 50, 113
13, 137401, Note_on_c, 12, 36, 108
13, 137443, Note_off_c, 12, 65, 56
13, 137444, Note_off_c, 12, 53, 56
13, 137445, Note_off_c, 12, 50, 56
13, 137458, Note_on_c, 12, 52, 113
13, 137460, Note_on_c, 12, 67, 113
13, 137461, Note_on_c, 12, 55, 113
13, 137482, Note_off_c, 12, 36, 56
13, 137503, Note_off_c, 12, 52, 56
13, 137505, Note_off_c, 12, 67, 56
13, 137506, Note_off_c, 12, 55, 56
13, 137518, Note_on_c, 12, 57, 113
13, 137518, Note_on_c, 12, 53, 113
13, 137520, Note_on_c, 12, 36, 108
13, 137521, Note_on_c, 12, 69, 113
13, 137563, Note_off_c, 12, 53, 56
13, 137563, Note_off_c, 12, 57, 56
13, 137566, Note_off_c, 12, 69, 56
13, 137580, Note_on_c, 12, 59, 113
13, 137581, Note_on_c, 12, 55, 113
13, 137582, Note_on_c, 12, 71, 113
13, 137601, Note_off_c, 12, 36, 56
13, 137625, Note_off_c, 12, 59, 56
13, 137626, Note_off_c, 12, 55, 56
13, 137627, Note_off_c, 12, 71, 56
13, 137638, Note_on_c, 12, 72, 113
13, 137639, Note_on_c, 12, 60, 113
13, 137639, Note_on_c, 12, 36, 108
13, 137640, Note_on_c, 12, 57, 113
13, 137683, Note_off_c, 12, 72, 56
13, 137684, Note_off_c, 12, 60, 56
13, 137685, Note_off_c, 12, 57, 56
13, 137699, Note_on_c, 12, 74, 113
13, 137699, Note_on_c, 12, 59, 113
13, 137699, Note_on_c, 12, 62, 113
13, 137720, Note_off_c, 12, 36, 56
13, 137744, Note_off_c, 12, 62, 56
13, 137744, Note_off_c, 12, 59, 56
13, 137744, Note_off_c, 12, 74, 56
13, 137758, Note_on_c, 12, 64, 113
13, 137759, Note_on_c, 12, 36, 108
13, 137761, Note_on_c, 12, 60, 113
13, 137762, Note_on_c, 12, 76, 113
13, 137803, Note_off_c, 12, 64, 56
13, 137806, Note_off_c, 12, 60, 56
13, 137807, Note_off_c, 12, 76, 56
13, 137818, Note_on_c, 12, 52, 113
13, 137821, Note_on_c, 12, 72, 113
13, 137822, Note_on_c, 12, 60, 113
13, 137840, Note_off_c, 12, 36, 56
13, 137863, Note_off_c, 12, 52, 56
13, 137866, Note_off_c, 12, 72, 56
13, 137867, Note_off_c, 12, 60, 56
13, 137880, Note_on_c, 12, 74, 113
13, 137880, Note_on_c, 12, 36, 108
13, 137881, Note_on_c, 12, 53, 113
13, 137882, Note_on_c, 12, 62, 113
13, 137925, Note_off_c, 12, 74, 56
13, 137926, Note_off_c, 12, 53, 56
13, 137927, Note_off_c, 12, 62, 56
13, 137938, Note_on_c, 12, 55, 113
13, 137940, Note_on_c, 12, 64, 113
13, 137942, Note_on_c, 12, 76, 113
13, 137961, Note_off_c, 12, 36, 56
13, 137983, Note_off_c, 12, 55, 56
13, 137985, Note_off_c, 12, 64, 56
13, 137987, Note_off_c, 12, 76, 56
13, 137998, Note_on_c, 12, 65, 113
13, 137999, Note_on_c, 12, 57, 113
13, 138000, Note_on_c, 12, 36, 108
13, 138002, Note_on_c, 12, 77, 113
13, 138043, Note_off_c, 12, 65, 56
13, 138044, Note_off_c, 12, 57, 56
13, 138047, Note_off_c, 12, 77, 56
13, 138058, Note_on_c, 12, 59, 113
13, 138058, Note_on_c, 12, 67, 113
13, 138060, Note_on_c, 12, 79, 113
13, 138081, Note_off_c, 12, 36, 56
13, 138103, Note_off_c, 12, 67, 56
13, 138103, Note_off_c, 12, 59, 56
13, 138105, Note_off_c, 12, 79, 56
13, 138119, Note_on_c, 12, 60, 113
13, 138119, Note_on_c, 12, 36, 108
13, 138120, Note_on_c, 12, 69, 113
13, 138121, Note_on_c, 12, 81, 113
13, 138164, Note_off_c, 12, 60, 56
13, 138165, Note_off_c, 12, 69, 56
13, 138166, Note_off_c, 12, 81, 56
13, 138180, Note_on_c, 12, 62, 113
13, 138180, Note_on_c, 12, 71, 113
13, 138181, Note_on_c, 12, 83, 113
13, 138200, Note_off_c, 12, 36, 56
13, 138225, Note_off_c, 12, 71, 56
13, 138225, Note_off_c, 12, 62, 56
13, 138226, Note_off_c, 12, 83, 56
13, 138241, Note_on_c, 12, 64, 113
13, 138241, Note_on_c, 12, 36, 108
13, 138241, Note_on_c, 12, 72, 113
13, 138242, Note_on_c, 12, 84, 113
13, 138286, Note_off_c, 12, 72, 56
13, 138286, Note_off_c, 12, 64, 56
13, 138287, Note_off_c, 12, 84, 56
13, 138298, Note_on_c, 12, 86, 113
13, 138299, Note_on_c, 12, 60, 113
13, 138322, Note_off_c, 12, 36, 56
13, 138343, Note_off_c, 12, 86, 56
13, 138344, Note_off_c, 12, 60, 56
13, 138359, Note_on_c, 12, 36, 108
13, 138361, Note_on_c, 12, 88, 113
13, 138361, Note_on_c, 12, 60, 113
13, 138406, Note_off_c, 12, 60, 56
13, 138406, Note_off_c, 12, 88, 56
13, 138418, Note_on_c, 12, 89, 113
13, 138421, Note_on_c, 12, 60, 113
13, 138440, Note_off_c, 12, 36, 56
13, 138463, Note_off_c, 12, 89, 56
13, 138466, Note_off_c, 12, 60, 56
13, 138480, Note_on_c, 12, 61, 113
13, 138481, Note_on_c, 12, 37, 108
13, 138482, Note_on_c, 12, 91, 113
13, 138525, Note_off_c, 12, 61, 56
13, 138527, Note_off_c, 12, 91, 56
13, 138541, Note_on_c, 12, 91, 113
13, 138542, Note_on_c, 12, 61, 113
13, 138562, Note_off_c, 12, 37, 56
13, 138586, Note_off_c, 12, 91, 56
13, 138587, Note_off_c, 12, 61, 56
13, 138599, Note_on_c, 12, 91, 113
13, 138600, Note_on_c, 12, 37, 108
13, 138601, Note_on_c, 12, 61, 113
13, 138644, Note_off_c, 12, 91, 56
13, 138646, Note_off_c, 12, 61, 56
13, 138659, Note_on_c, 12, 91, 113
13, 138660, Note_on_c, 12, 61, 113
13, 138681, Note_off_c, 12, 37, 56
13, 138704, Note_off_c, 12, 91, 56
13, 138705, Note_off_c, 12, 61, 56
13, 138719, Note_on_c, 12, 91, 113
13, 138719, Note_on_c, 12, 62, 113
13, 138720, Note_on_c, 12, 38, 108
13, 138764, Note_off_c, 12, 62, 56
13, 138764, Note_off_c, 12, 91, 56
13, 138781, Note_on_c, 12, 91, 113
13, 138782, Note_on_c, 12, 62, 113
13, 138801, Note_off_c, 12, 38, 56
13, 138826, Note_off_c, 12, 91, 56
13, 138827, Note_off_c, 12, 62, 56
13, 138839, Note_on_c, 12, 91, 113
13, 138839, Note_on_c, 12, 38, 108
13, 138839, Note_on_c, 12, 62, 113
13, 138884, Note_off_c, 12, 62, 56
13, 138884, Note_off_c, 12, 91, 56
13, 138898, Note_on_c, 12, 62, 113
13, 138902, Note_on_c, 12, 91, 113
13, 138920, Note_off_c, 12, 38, 56
13, 138943, Note_off_c, 12, 62, 56
13, 138947, Note_off_c, 12, 91, 56
13, 138959, Note_on_c, 12, 63, 113
13, 138961, Note_on_c, 12, 91, 113
13, 138961, Note_on_c, 12, 39, 108
13, 139004, Note_off_c, 12, 63, 56
13, 139006, Note_off_c, 12, 91, 56
13, 139019, Note_on_c, 12, 91, 113
13, 139020, Note_on_c, 12, 63, 113
13, 139042, Note_off_c, 12, 39, 56
13, 139064, Note_off_c, 12, 91, 56
13, 139065, Note_off_c, 12, 63, 56
13, 139079, Note_on_c, 12, 91, 113
13, 139081, Note_on_c, 12, 39, 108
13, 139082, Note_on_c, 12, 63, 113
13, 139124, Note_off_c, 12, 91, 56
13, 139127, Note_off_c, 12, 63, 56
13, 139139, Note_on_c, 12, 63, 113
13, 139140, Note_on_c, 12, 91, 113
13, 139162, Note_off_c, 12, 39, 56
13, 139184, Note_off_c, 12, 63, 56
13, 139185, Note_off_c, 12, 91, 56
13, 139199, Note_on_c, 12, 64, 113
13, 139199, Note_on_c, 12, 40, 108
13, 139201, Note_on_c, 12, 91, 113
13, 139244, Note_off_c, 12, 64, 56
13, 139246, Note_off_c, 12, 91, 56
13, 139259, Note_on_c, 12, 91, 113
13, 139260, Note_on_c, 12, 64, 113
13, 139280, Note_off_c, 12, 40, 56
13, 139304, Note_off_c, 12, 91, 56
13, 139305, Note_off_c, 12, 64, 56
13, 139319, Note_on_c, 12, 40, 108
13, 139320, Note_on_c, 12, 90, 113
13, 139320, Note_on_c, 12, 64, 113
13, 139365, Note_off_c, 12, 64, 56
13, 139365, Note_off_c, 12, 90, 56
13, 139382, Note_on_c, 12, 88, 113
13, 139382, Note_on_c, 12, 64, 113
13, 139400, Note_off_c, 12, 40, 56
13, 139427, Note_off_c, 12, 64, 56
13, 139427, Note_off_c, 12, 88, 56
13, 139439, Note_on_c, 12, 86, 113
13, 139440, Note_on_c, 12, 66, 113
13, 139441, Note_on_c, 12, 42, 108
13, 139484, Note_off_c, 12, 86, 56
13, 139485, Note_off_c, 12, 66, 56
13, 139500, Note_on_c, 12, 84, 113
13, 139501, Note_on_c, 12, 66, 113
13, 139522, Note_off_c, 12, 42, 56
13, 139545, Note_off_c, 12, 84, 56
13, 139546, Note_off_c, 12, 66, 56
13, 139561, Note_on_c, 12, 83, 113
13, 139561, Note_on_c, 12, 42, 108
13, 139562, Note_on_c, 12, 66, 113
13, 139606, Note_off_c, 12, 83, 56
13, 139607, Note_off_c, 12, 66, 56
13, 139619, Note_on_c, 12, 81, 113
13, 139621, Note_on_c, 12, 66, 113
13, 139642, Note_off_c, 12, 42, 56
13, 139664, Note_off_c, 12, 81, 56
13, 139666, Note_off_c, 12, 66, 56
13, 139679, Note_on_c, 12, 67, 113
13, 139680, Note_on_c, 12, 79, 113
13, 139680, Note_on_c, 12, 43, 108
13, 139724, Note_off_c, 12, 67, 56
13, 139725, Note_off_c, 12, 79, 56
13, 139738, Note_on_c, 12, 67, 113
13, 139742, Note_on_c, 12, 78, 113
13, 139761, Note_off_c, 12, 43, 56
13, 139783, Note_off_c, 12, 67, 56
13, 139787, Note_off_c, 12, 78, 56
13, 139798, Note_on_c, 12, 76, 113
13, 139801, Note_on_c, 12, 59, 113
13, 139801, Note_on_c, 12, 31, 108
13, 139843, Note_off_c, 12, 76, 56
13, 139846, Note_off_c, 12, 59, 56
13, 139862, Note_on_c, 12, 74, 113
13, 139862, Note_on_c, 12, 59, 113
13, 139882, Note_off_c, 12, 31, 56
13, 139907, Note_off_c, 12, 59, 56
13, 139907, Note_off_c, 12, 74, 56
13, 139919, Note_on_c, 12, 33, 108
13, 139922, Note_on_c, 12, 72, 113
13, 139922, Note_on_c, 12, 60, 113
13, 139967, Note_off_c, 12, 60, 56
13, 139967, Note_off_c, 12, 72, 56
13, 139982, Note_on_c, 12, 71, 113
13, 139982, Note_on_c, 12, 60, 113
13, 140000, Note_off_c, 12, 33, 56
13, 140027, Note_off_c, 12, 60, 56
13, 140027, Note_off_c, 12, 71, 56
13, 140038, Note_on_c, 12, 69, 113
13, 140040, Note_on_c, 12, 35, 108
13, 140042, Note_on_c, 12, 62, 113
13, 140083, Note_off_c, 12, 69, 56
13, 140087, Note_off_c, 12, 62, 56
13, 140100, Note_on_c, 12, 67, 113
13, 140101, Note_on_c, 12, 62, 113
13, 140121, Note_off_c, 12, 35, 56
13, 140145, Note_off_c, 12, 67, 56
13, 140146, Note_off_c, 12, 62, 56
13, 140158, Note_on_c, 12, 36, 108
13, 140159, Note_on_c, 12, 64, 108
13, 140160, Note_on_c, 12, 72, 108
13, 140280, Note_off_c, 12, 36, 64
13, 140295, Note_off_c, 12, 64, 64
13, 140296, Note_off_c, 12, 72, 64
13, 141121, Note_on_c, 12, 69, 108
13, 141122, Note_on_c, 12, 62, 108
13, 141122, Note_on_c, 12, 38, 108
13, 141244, Note_off_c, 12, 38, 64
13, 141257, Note_off_c, 12, 69, 64
13, 141258, Note_off_c, 12, 62, 64
13, 142079, Note_on_c, 12, 67, 73
13, 142655, Note_off_c, 12, 67, 64
13, 142802, Note_on_c, 12, 66, 73
13, 142984, Note_off_c, 12, 66, 64
13, 143038, Note_on_c, 12, 64, 73
13, 143220, Note_off_c, 12, 64, 64
13, 143280, Note_on_c, 12, 62, 73
13, 143462, Note_off_c, 12, 62, 64
13, 143521, Note_on_c, 12, 62, 73
13, 143641, Note_on_c, 12, 74, 78
13, 143695, Note_off_c, 12, 74, 56
13, 143702, Note_on_c, 12, 76, 78
13, 143703, Note_off_c, 12, 62, 64
13, 143756, Note_off_c, 12, 76, 56
13, 143759, Note_on_c, 12, 78, 78
13, 143760, Note_on_c, 12, 62, 73
13, 143813, Note_off_c, 12, 78, 56
13, 143822, Note_on_c, 12, 79, 78
13, 143876, Note_off_c, 12, 79, 56
13, 143881, Note_on_c, 12, 81, 78
13, 143935, Note_off_c, 12, 81, 56
13, 143940, Note_on_c, 12, 78, 78
13, 143942, Note_off_c, 12, 62, 64
13, 143994, Note_off_c, 12, 78, 56
13, 144000, Note_on_c, 12, 67, 73
13, 144002, Note_on_c, 12, 79, 73
13, 144184, Note_off_c, 12, 79, 64
13, 144576, Note_off_c, 12, 67, 64
13, 144721, Note_on_c, 12, 66, 73
13, 144903, Note_off_c, 12, 66, 64
13, 144960, Note_on_c, 12, 64, 73
13, 145142, Note_off_c, 12, 64, 64
13, 145201, Note_on_c, 12, 62, 73
13, 145383, Note_off_c, 12, 62, 64
13, 145441, Note_on_c, 12, 62, 73
13, 145560, Note_on_c, 12, 74, 78
13, 145614, Note_off_c, 12, 74, 56
13, 145619, Note_on_c, 12, 76, 78
13, 145623, Note_off_c, 12, 62, 64
13, 145673, Note_off_c, 12, 76, 56
13, 145681, Note_on_c, 12, 78, 78
13, 145682, Note_on_c, 12, 62, 73
13, 145735, Note_off_c, 12, 78, 56
13, 145740, Note_on_c, 12, 79, 78
13, 145794, Note_off_c, 12, 79, 56
13, 145802, Note_on_c, 12, 81, 78
13, 145856, Note_off_c, 12, 81, 56
13, 145862, Note_on_c, 12, 83, 78
13, 145864, Note_off_c, 12, 62, 64
13, 145916, Note_off_c, 12, 83, 56
13, 145921, Note_on_c, 12, 84, 96
13, 145922, Note_on_c, 12, 72, 73
13, 146103, Note_off_c, 12, 84, 64
13, 146498, Note_off_c, 12, 72, 64
13, 146638, Note_on_c, 12, 71, 73
13, 146820, Note_off_c, 12, 71, 64
13, 146879, Note_on_c, 12, 69, 73
13, 147061, Note_off_c, 12, 69, 64
13, 147121, Note_on_c, 12, 68, 73
13, 147303, Note_off_c, 12, 68, 64
13, 147360, Note_on_c, 12, 68, 73
13, 147481, Note_on_c, 12, 80, 78
13, 147535, Note_off_c, 12, 80, 56
13, 147538, Note_on_c, 12, 81, 78
13, 147542, Note_off_c, 12, 68, 64
13, 147592, Note_off_c, 12, 81, 56
13, 147598, Note_on_c, 12, 83, 78
13, 147602, Note_on_c, 12, 68, 73
13, 147652, Note_off_c, 12, 83, 56
13, 147661, Note_on_c, 12, 84, 78
13, 147715, Note_off_c, 12, 84, 56
13, 147722, Note_on_c, 12, 86, 78
13, 147776, Note_off_c, 12, 86, 56
13, 147782, Note_on_c, 12, 83, 78
13, 147784, Note_off_c, 12, 68, 64
13, 147836, Note_off_c, 12, 83, 56
13, 147842, Note_on_c, 12, 88, 73
13, 147842, Note_on_c, 12, 69, 73
13, 148024, Note_off_c, 12, 88, 64
13, 148226, Note_off_c, 12, 69, 64
13, 148321, Note_on_c, 12, 72, 73
13, 148382, Note_on_c, 12, 76, 78
13, 148436, Note_off_c, 12, 76, 56
13, 148441, Note_on_c, 12, 78, 78
13, 148495, Note_off_c, 12, 78, 56
13, 148498, Note_on_c, 12, 80, 78
13, 148552, Note_off_c, 12, 80, 56
13, 148561, Note_on_c, 12, 81, 78
13, 148615, Note_off_c, 12, 81, 56
13, 148621, Note_on_c, 12, 83, 78
13, 148657, Note_off_c, 12, 72, 64
13, 148675, Note_off_c, 12, 83, 56
13, 148679, Note_on_c, 12, 84, 78
13, 148733, Note_off_c, 12, 84, 56
13, 148740, Note_on_c, 12, 69, 78
13, 148741, Note_on_c, 12, 81, 78
13, 148785, Note_off_c, 12, 69, 56
13, 148795, Note_off_c, 12, 81, 56
13, 148801, Note_on_c, 12, 67, 73
13, 148802, Note_on_c, 12, 86, 73
13, 148984, Note_off_c, 12, 86, 64
13, 149185, Note_off_c, 12, 67, 64
13, 149281, Note_on_c, 12, 69, 73
13, 149398, Note_on_c, 12, 69, 78
13, 149443, Note_off_c, 12, 69, 56
13, 149459, Note_on_c, 12, 71, 78
13, 149504, Note_off_c, 12, 71, 56
13, 149518, Note_on_c, 12, 72, 78
13, 149563, Note_off_c, 12, 72, 56
13, 149579, Note_on_c, 12, 74, 78
13, 149617, Note_off_c, 12, 69, 64
13, 149624, Note_off_c, 12, 74, 56
13, 149639, Note_on_c, 12, 76, 78
13, 149684, Note_off_c, 12, 76, 56
13, 149699, Note_on_c, 12, 78, 78
13, 149701, Note_on_c, 12, 66, 78
13, 149744, Note_off_c, 12, 78, 56
13, 149746, Note_off_c, 12, 66, 56
13, 149760, Note_on_c, 12, 79, 95
13, 149760, Note_on_c, 12, 59, 95
13, 149761, Note_on_c, 12, 62, 95
13, 149761, Note_on_c, 12, 35, 90
13, 149805, Note_off_c, 12, 59, 56
13, 149805, Note_off_c, 12, 79, 56
13, 149806, Note_off_c, 12, 62, 56
13, 149820, Note_on_c, 12, 79, 95
13, 149820, Note_on_c, 12, 62, 95
13, 149821, Note_on_c, 12, 59, 95
13, 149865, Note_off_c, 12, 62, 56
13, 149865, Note_off_c, 12, 79, 56
13, 149866, Note_off_c, 12, 59, 56
13, 149879, Note_on_c, 12, 79, 95
13, 149879, Note_on_c, 12, 59, 95
13, 149881, Note_on_c, 12, 62, 95
13, 149924, Note_off_c, 12, 59, 56
13, 149924, Note_off_c, 12, 79, 56
13, 149926, Note_off_c, 12, 62, 56
13, 149938, Note_on_c, 12, 79, 95
13, 149939, Note_on_c, 12, 59, 95
13, 149942, Note_on_c, 12, 62, 95
13, 149983, Note_off_c, 12, 79, 56
13, 149984, Note_off_c, 12, 59, 56
13, 149987, Note_off_c, 12, 62, 56
13, 149999, Note_on_c, 12, 59, 95
13, 150001, Note_on_c, 12, 79, 95
13, 150001, Note_on_c, 12, 62, 95
13, 150044, Note_off_c, 12, 59, 56
13, 150046, Note_off_c, 12, 62, 56
13, 150046, Note_off_c, 12, 79, 56
13, 150058, Note_on_c, 12, 62, 95
13, 150059, Note_on_c, 12, 79, 95
13, 150060, Note_on_c, 12, 59, 95
13, 150103, Note_off_c, 12, 62, 56
13, 150104, Note_off_c, 12, 79, 56
13, 150105, Note_off_c, 12, 59, 56
13, 150118, Note_on_c, 12, 79, 95
13, 150119, Note_on_c, 12, 59, 95
13, 150119, Note_on_c, 12, 62, 95
13, 150163, Note_off_c, 12, 79, 56
13, 150164, Note_off_c, 12, 62, 56
13, 150164, Note_off_c, 12, 59, 56
13, 150178, Note_on_c, 12, 79, 95
13, 150179, Note_on_c, 12, 59, 95
13, 150181, Note_on_c, 12, 62, 95
13, 150223, Note_off_c, 12, 79, 56
13, 150224, Note_off_c, 12, 59, 56
13, 150226, Note_off_c, 12, 62, 56
13, 150239, Note_on_c, 12, 79, 95
13, 150241, Note_on_c, 12, 62, 95
13, 150242, Note_on_c, 12, 59, 95
13, 150279, Note_off_c, 12, 35, 64
13, 150284, Note_off_c, 12, 79, 56
13, 150286, Note_off_c, 12, 62, 56
13, 150287, Note_off_c, 12, 59, 56
13, 150298, Note_on_c, 12, 59, 95
13, 150301, Note_on_c, 12, 62, 95
13, 150302, Note_on_c, 12, 79, 95
13, 150343, Note_off_c, 12, 59, 56
13, 150346, Note_off_c, 12, 62, 56
13, 150347, Note_off_c, 12, 79, 56
13, 150358, Note_on_c, 12, 79, 95
13, 150358, Note_on_c, 12, 59, 95
13, 150362, Note_on_c, 12, 62, 95
13, 150403, Note_off_c, 12, 59, 56
13, 150403, Note_off_c, 12, 79, 56
13, 150407, Note_off_c, 12, 62, 56
13, 150420, Note_on_c, 12, 62, 95
13, 150422, Note_on_c, 12, 79, 95
13, 150422, Note_on_c, 12, 59, 95
13, 150465, Note_off_c, 12, 62, 56
13, 150467, Note_off_c, 12, 59, 56
13, 150467, Note_off_c, 12, 79, 56
13, 150477, Note_on_c, 12, 33, 90
13, 150479, Note_on_c, 12, 60, 95
13, 150480, Note_on_c, 12, 78, 95
13, 150480, Note_on_c, 12, 57, 95
13, 150524, Note_off_c, 12, 60, 56
13, 150525, Note_off_c, 12, 57, 56
13, 150525, Note_off_c, 12, 78, 56
13, 150538, Note_on_c, 12, 57, 95
13, 150539, Note_on_c, 12, 78, 95
13, 150540, Note_on_c, 12, 60, 95
13, 150583, Note_off_c, 12, 57, 56
13, 150584, Note_off_c, 12, 78, 56
13, 150585, Note_off_c, 12, 60, 56
13, 150601, Note_on_c, 12, 60, 95
13, 150601, Note_on_c, 12, 57, 95
13, 150602, Note_on_c, 12, 78, 95
13, 150640, Note_off_c, 12, 33, 64
13, 150646, Note_off_c, 12, 57, 56
13, 150646, Note_off_c, 12, 60, 56
13, 150647, Note_off_c, 12, 78, 56
13, 150659, Note_on_c, 12, 57, 95
13, 150661, Note_on_c, 12, 78, 95
13, 150662, Note_on_c, 12, 60, 95
13, 150704, Note_off_c, 12, 57, 56
13, 150706, Note_off_c, 12, 78, 56
13, 150707, Note_off_c, 12, 60, 56
13, 150718, Note_on_c, 12, 60, 95
13, 150718, Note_on_c, 12, 55, 95
13, 150718, Note_on_c, 12, 76, 95
13, 150722, Note_on_c, 12, 31, 90
13, 150763, Note_off_c, 12, 76, 56
13, 150763, Note_off_c, 12, 55, 56
13, 150763, Note_off_c, 12, 60, 56
13, 150779, Note_on_c, 12, 76, 95
13, 150780, Note_on_c, 12, 55, 95
13, 150782, Note_on_c, 12, 60, 95
13, 150824, Note_off_c, 12, 76, 56
13, 150825, Note_off_c, 12, 55, 56
13, 150827, Note_off_c, 12, 60, 56
13, 150838, Note_on_c, 12, 60, 95
13, 150840, Note_on_c, 12, 76, 95
13, 150840, Note_on_c, 12, 55, 95
13, 150883, Note_off_c, 12, 60, 56
13, 150885, Note_off_c, 12, 55, 56
13, 150885, Note_off_c, 12, 76, 56
13, 150885, Note_off_c, 12, 31, 64
13, 150899, Note_on_c, 12, 76, 95
13, 150900, Note_on_c, 12, 60, 95
13, 150902, Note_on_c, 12, 55, 95
13, 150944, Note_off_c, 12, 76, 56
13, 150945, Note_off_c, 12, 60, 56
13, 150947, Note_off_c, 12, 55, 56
13, 150957, Note_on_c, 12, 30, 90
13, 150959, Note_on_c, 12, 74, 95
13, 150960, Note_on_c, 12, 60, 95
13, 150961, Note_on_c, 12, 57, 95
13, 151004, Note_off_c, 12, 74, 56
13, 151005, Note_off_c, 12, 60, 56
13, 151006, Note_off_c, 12, 57, 56
13, 151018, Note_on_c, 12, 60, 95
13, 151018, Note_on_c, 12, 57, 95
13, 151020, Note_on_c, 12, 74, 95
13, 151063, Note_off_c, 12, 57, 56
13, 151063, Note_off_c, 12, 60, 56
13, 151065, Note_off_c, 12, 74, 56
13, 151079, Note_on_c, 12, 74, 95
13, 151079, Note_on_c, 12, 57, 95
13, 151080, Note_on_c, 12, 60, 95
13, 151120, Note_off_c, 12, 30, 64
13, 151124, Note_off_c, 12, 57, 56
13, 151124, Note_off_c, 12, 74, 56
13, 151125, Note_off_c, 12, 60, 56
13, 151138, Note_on_c, 12, 57, 95
13, 151139, Note_on_c, 12, 60, 95
13, 151141, Note_on_c, 12, 74, 95
13, 151183, Note_off_c, 12, 57, 56
13, 151184, Note_off_c, 12, 60, 56
13, 151186, Note_off_c, 12, 74, 56
13, 151199, Note_on_c, 12, 74, 95
13, 151199, Note_on_c, 12, 57, 95
13, 151200, Note_on_c, 12, 60, 95
13, 151201, Note_on_c, 12, 30, 90
13, 151244, Note_off_c, 12, 57, 56
13, 151244, Note_off_c, 12, 74, 56
13, 151245, Note_off_c, 12, 60, 56
13, 151258, Note_on_c, 12, 74, 95
13, 151259, Note_on_c, 12, 60, 95
13, 151261, Note_on_c, 12, 57, 95
13, 151303, Note_off_c, 12, 74, 56
13, 151304, Note_off_c, 12, 60, 56
13, 151306, Note_off_c, 12, 57, 56
13, 151319, Note_on_c, 12, 57, 95
13, 151321, Note_on_c, 12, 60, 95
13, 151322, Note_on_c, 12, 74, 95
13, 151364, Note_off_c, 12, 57, 56
13, 151364, Note_off_c, 12, 30, 64
13, 151366, Note_off_c, 12, 60, 56
13, 151367, Note_off_c, 12, 74, 56
13, 151379, Note_on_c, 12, 74, 95
13, 151379, Note_on_c, 12, 57, 95
13, 151382, Note_on_c, 12, 60, 95
13, 151424, Note_off_c, 12, 57, 56
13, 151424, Note_off_c, 12, 74, 56
13, 151427, Note_off_c, 12, 60, 56
13, 151438, Note_on_c, 12, 30, 90
13, 151440, Note_on_c, 12, 57, 95
13, 151441, Note_on_c, 12, 74, 95
13, 151441, Note_on_c, 12, 60, 95
13, 151485, Note_off_c, 12, 57, 56
13, 151486, Note_off_c, 12, 60, 56
13, 151486, Note_off_c, 12, 74, 56
13, 151499, Note_on_c, 12, 60, 95
13, 151499, Note_on_c, 12, 57, 95
13, 151501, Note_on_c, 12, 74, 95
13, 151544, Note_off_c, 12, 57, 56
13, 151544, Note_off_c, 12, 60, 56
13, 151546, Note_off_c, 12, 74, 56
13, 151560, Note_on_c, 12, 57, 95
13, 151561, Note_on_c, 12, 60, 95
13, 151562, Note_on_c, 12, 74, 95
13, 151601, Note_off_c, 12, 30, 64
13, 151605, Note_off_c, 12, 57, 56
13, 151606, Note_off_c, 12, 60, 56
13, 151607, Note_off_c, 12, 74, 56
13, 151618, Note_on_c, 12, 74, 95
13, 151620, Note_on_c, 12, 60, 95
13, 151622, Note_on_c, 12, 57, 95
13, 151663, Note_off_c, 12, 74, 56
13, 151665, Note_off_c, 12, 60, 56
13, 151667, Note_off_c, 12, 57, 56
13, 151678, Note_on_c, 12, 62, 95
13, 151680, Note_on_c, 12, 79, 95
13, 151680, Note_on_c, 12, 35, 96
13, 151681, Note_on_c, 12, 59, 95
13, 151723, Note_off_c, 12, 62, 56
13, 151725, Note_off_c, 12, 79, 56
13, 151726, Note_off_c, 12, 59, 56
13, 151739, Note_on_c, 12, 59, 95
13, 151740, Note_on_c, 12, 79, 95
13, 151742, Note_on_c, 12, 62, 95
13, 151784, Note_off_c, 12, 59, 56
13, 151785, Note_off_c, 12, 79, 56
13, 151787, Note_off_c, 12, 62, 56
13, 151798, Note_on_c, 12, 79, 95
13, 151799, Note_on_c, 12, 62, 95
13, 151800, Note_on_c, 12, 59, 95
13, 151843, Note_off_c, 12, 79, 56
13, 151844, Note_off_c, 12, 62, 56
13, 151845, Note_off_c, 12, 59, 56
13, 151859, Note_on_c, 12, 62, 95
13, 151859, Note_on_c, 12, 59, 95
13, 151862, Note_on_c, 12, 79, 95
13, 151904, Note_off_c, 12, 59, 56
13, 151904, Note_off_c, 12, 62, 56
13, 151907, Note_off_c, 12, 79, 56
13, 151922, Note_on_c, 12, 79, 95
13, 151922, Note_on_c, 12, 62, 95
13, 151922, Note_on_c, 12, 59, 95
13, 151967, Note_off_c, 12, 59, 56
13, 151967, Note_off_c, 12, 62, 56
13, 151967, Note_off_c, 12, 79, 56
13, 151978, Note_on_c, 12, 79, 95
13, 151979, Note_on_c, 12, 62, 95
13, 151979, Note_on_c, 12, 59, 95
13, 152023, Note_off_c, 12, 79, 56
13, 152024, Note_off_c, 12, 59, 56
13, 152024, Note_off_c, 12, 62, 56
13, 152038, Note_on_c, 12, 79, 95
13, 152038, Note_on_c, 12, 59, 95
13, 152039, Note_on_c, 12, 62, 95
13, 152083, Note_off_c, 12, 59, 56
13, 152083, Note_off_c, 12, 79, 56
13, 152084, Note_off_c, 12, 62, 56
13, 152098, Note_on_c, 12, 79, 95
13, 152098, Note_on_c, 12, 59, 95
13, 152100, Note_on_c, 12, 62, 95
13, 152143, Note_off_c, 12, 59, 56
13, 152143, Note_off_c, 12, 79, 56
13, 152145, Note_off_c, 12, 62, 56
13, 152158, Note_on_c, 12, 79, 95
13, 152160, Note_on_c, 12, 62, 95
13, 152162, Note_on_c, 12, 59, 95
13, 152198, Note_off_c, 12, 35, 64
13, 152203, Note_off_c, 12, 79, 56
13, 152205, Note_off_c, 12, 62, 56
13, 152207, Note_off_c, 12, 59, 56
13, 152218, Note_on_c, 12, 79, 95
13, 152219, Note_on_c, 12, 62, 95
13, 152221, Note_on_c, 12, 59, 95
13, 152263, Note_off_c, 12, 79, 56
13, 152264, Note_off_c, 12, 62, 56
13, 152266, Note_off_c, 12, 59, 56
13, 152278, Note_on_c, 12, 79, 95
13, 152280, Note_on_c, 12, 59, 95
13, 152281, Note_on_c, 12, 62, 95
13, 152323, Note_off_c, 12, 79, 56
13, 152325, Note_off_c, 12, 59, 56
13, 152326, Note_off_c, 12, 62, 56
13, 152338, Note_on_c, 12, 59, 95
13, 152340, Note_on_c, 12, 79, 95
13, 152340, Note_on_c, 12, 62, 95
13, 152383, Note_off_c, 12, 59, 56
13, 152385, Note_off_c, 12, 62, 56
13, 152385, Note_off_c, 12, 79, 56
13, 152398, Note_on_c, 12, 57, 95
13, 152401, Note_on_c, 12, 60, 95
13, 152402, Note_on_c, 12, 78, 95
13, 152402, Note_on_c, 12, 33, 90
13, 152443, Note_off_c, 12, 57, 56
13, 152446, Note_off_c, 12, 60, 56
13, 152447, Note_off_c, 12, 78, 56
13, 152458, Note_on_c, 12, 78, 95
13, 152461, Note_on_c, 12, 60, 95
13, 152462, Note_on_c, 12, 57, 95
13, 152503, Note_off_c, 12, 78, 56
13, 152506, Note_off_c, 12, 60, 56
13, 152507, Note_off_c, 12, 57, 56
13, 152518, Note_on_c, 12, 78, 95
13, 152518, Note_on_c, 12, 60, 95
13, 152521, Note_on_c, 12, 57, 95
13, 152563, Note_off_c, 12, 60, 56
13, 152563, Note_off_c, 12, 78, 56
13, 152565, Note_off_c, 12, 33, 64
13, 152566, Note_off_c, 12, 57, 56
13, 152580, Note_on_c, 12, 78, 95
13, 152580, Note_on_c, 12, 60, 95
13, 152582, Note_on_c, 12, 57, 95
13, 152625, Note_off_c, 12, 60, 56
13, 152625, Note_off_c, 12, 78, 56
13, 152627, Note_off_c, 12, 57, 56
13, 152638, Note_on_c, 12, 31, 90
13, 152640, Note_on_c, 12, 76, 95
13, 152642, Note_on_c, 12, 60, 95
13, 152642, Note_on_c, 12, 55, 95
13, 152685, Note_off_c, 12, 76, 56
13, 152687, Note_off_c, 12, 55, 56
13, 152687, Note_off_c, 12, 60, 56
13, 152698, Note_on_c, 12, 55, 95
13, 152700, Note_on_c, 12, 76, 95
13, 152702, Note_on_c, 12, 60, 95
13, 152743, Note_off_c, 12, 55, 56
13, 152745, Note_off_c, 12, 76, 56
13, 152747, Note_off_c, 12, 60, 56
13, 152760, Note_on_c, 12, 76, 95
13, 152760, Note_on_c, 12, 55, 95
13, 152761, Note_on_c, 12, 60, 95
13, 152801, Note_off_c, 12, 31, 64
13, 152805, Note_off_c, 12, 55, 56
13, 152805, Note_off_c, 12, 76, 56
13, 152806, Note_off_c, 12, 60, 56
13, 152819, Note_on_c, 12, 60, 95
13, 152821, Note_on_c, 12, 55, 95
13, 152822, Note_on_c, 12, 76, 95
13, 152864, Note_off_c, 12, 60, 56
13, 152866, Note_off_c, 12, 55, 56
13, 152867, Note_off_c, 12, 76, 56
13, 152877, Note_on_c, 12, 30, 90
13, 152878, Note_on_c, 12, 74, 95
13, 152880, Note_on_c, 12, 57, 95
13, 152881, Note_on_c, 12, 60, 95
13, 152923, Note_off_c, 12, 74, 56
13, 152925, Note_off_c, 12, 57, 56
13, 152926, Note_off_c, 12, 60, 56
13, 152940, Note_on_c, 12, 74, 95
13, 152941, Note_on_c, 12, 60, 95
13, 152942, Note_on_c, 12, 57, 95
13, 152985, Note_off_c, 12, 74, 56
13, 152986, Note_off_c, 12, 60, 56
13, 152987, Note_off_c, 12, 57, 56
13, 152998, Note_on_c, 12, 60, 95
13, 153001, Note_on_c, 12, 74, 95
13, 153001, Note_on_c, 12, 57, 95
13, 153040, Note_off_c, 12, 30, 64
13, 153043, Note_off_c, 12, 60, 56
13, 153046, Note_off_c, 12, 57, 56
13, 153046, Note_off_c, 12, 74, 56
13, 153059, Note_on_c, 12, 57, 95
13, 153060, Note_on_c, 12, 74, 95
13, 153061, Note_on_c, 12, 60, 95
13, 153104, Note_off_c, 12, 57, 56
13, 153105, Note_off_c, 12, 74, 56
13, 153106, Note_off_c, 12, 60, 56
13, 153120, Note_on_c, 12, 60, 95
13, 153120, Note_on_c, 12, 30, 90
13, 153122, Note_on_c, 12, 74, 95
13, 153122, Note_on_c, 12, 57, 95
13, 153165, Note_off_c, 12, 60, 56
13, 153167, Note_off_c, 12, 57, 56
13, 153167, Note_off_c, 12, 74, 56
13, 153179, Note_on_c, 12, 57, 95
13, 153181, Note_on_c, 12, 74, 95
13, 153182, Note_on_c, 12, 60, 95
13, 153224, Note_off_c, 12, 57, 56
13, 153226, Note_off_c, 12, 74, 56
13, 153227, Note_off_c, 12, 60, 56
13, 153238, Note_on_c, 12, 74, 95
13, 153239, Note_on_c, 12, 57, 95
13, 153240, Note_on_c, 12, 60, 95
13, 153283, Note_off_c, 12, 74, 56
13, 153283, Note_off_c, 12, 30, 64
13, 153284, Note_off_c, 12, 57, 56
13, 153285, Note_off_c, 12, 60, 56
13, 153298, Note_on_c, 12, 74, 95
13, 153300, Note_on_c, 12, 60, 95
13, 153300, Note_on_c, 12, 57, 95
13, 153343, Note_off_c, 12, 74, 56
13, 153345, Note_off_c, 12, 57, 56
13, 153345, Note_off_c, 12, 60, 56
13, 153358, Note_on_c, 12, 60, 95
13, 153358, Note_on_c, 12, 30, 90
13, 153358, Note_on_c, 12, 57, 95
13, 153361, Note_on_c, 12, 74, 95
13, 153403, Note_off_c, 12, 57, 56
13, 153403, Note_off_c, 12, 60, 56
13, 153406, Note_off_c, 12, 74, 56
13, 153418, Note_on_c, 12, 57, 95
13, 153420, Note_on_c, 12, 74, 95
13, 153420, Note_on_c, 12, 60, 95
13, 153463, Note_off_c, 12, 57, 56
13, 153465, Note_off_c, 12, 60, 56
13, 153465, Note_off_c, 12, 74, 56
13, 153481, Note_on_c, 12, 74, 95
13, 153482, Note_on_c, 12, 57, 95
13, 153482, Note_on_c, 12, 60, 95
13, 153521, Note_off_c, 12, 30, 64
13, 153526, Note_off_c, 12, 74, 56
13, 153527, Note_off_c, 12, 60, 56
13, 153527, Note_off_c, 12, 57, 56
13, 153539, Note_on_c, 12, 74, 95
13, 153541, Note_on_c, 12, 60, 95
13, 153541, Note_on_c, 12, 57, 95
13, 153584, Note_off_c, 12, 74, 56
13, 153586, Note_off_c, 12, 57, 56
13, 153586, Note_off_c, 12, 60, 56
13, 153597, Note_on_c, 12, 30, 90
13, 153598, Note_on_c, 12, 84, 95
13, 153602, Note_on_c, 12, 57, 95
13, 153602, Note_on_c, 12, 62, 95
13, 153643, Note_off_c, 12, 84, 56
13, 153647, Note_off_c, 12, 62, 56
13, 153647, Note_off_c, 12, 57, 56
13, 153660, Note_on_c, 12, 57, 95
13, 153662, Note_on_c, 12, 84, 95
13, 153662, Note_on_c, 12, 62, 95
13, 153705, Note_off_c, 12, 57, 56
13, 153707, Note_off_c, 12, 62, 56
13, 153707, Note_off_c, 12, 84, 56
13, 153720, Note_on_c, 12, 57, 95
13, 153722, Note_on_c, 12, 84, 95
13, 153722, Note_on_c, 12, 62, 95
13, 153765, Note_off_c, 12, 57, 56
13, 153767, Note_off_c, 12, 62, 56
13, 153767, Note_off_c, 12, 84, 56
13, 153778, Note_on_c, 12, 57, 97
13, 153780, Note_on_c, 12, 62, 97
13, 153781, Note_on_c, 12, 84, 97
13, 153823, Note_off_c, 12, 57, 56
13, 153825, Note_off_c, 12, 62, 56
13, 153826, Note_off_c, 12, 84, 56
13, 153840, Note_on_c, 12, 57, 97
13, 153841, Note_on_c, 12, 62, 97
13, 153842, Note_on_c, 12, 84, 97
13, 153885, Note_off_c, 12, 57, 56
13, 153886, Note_off_c, 12, 62, 56
13, 153887, Note_off_c, 12, 84, 56
13, 153898, Note_on_c, 12, 62, 97
13, 153900, Note_on_c, 12, 57, 97
13, 153901, Note_on_c, 12, 84, 97
13, 153943, Note_off_c, 12, 62, 56
13, 153945, Note_off_c, 12, 57, 56
13, 153946, Note_off_c, 12, 84, 56
13, 153958, Note_on_c, 12, 84, 97
13, 153960, Note_on_c, 12, 57, 97
13, 153960, Note_on_c, 12, 62, 97
13, 154003, Note_off_c, 12, 84, 56
13, 154005, Note_off_c, 12, 62, 56
13, 154005, Note_off_c, 12, 57, 56
13, 154019, Note_on_c, 12, 84, 98
13, 154020, Note_on_c, 12, 62, 98
13, 154020, Note_on_c, 12, 57, 98
13, 154064, Note_off_c, 12, 84, 56
13, 154065, Note_off_c, 12, 57, 56
13, 154065, Note_off_c, 12, 62, 56
13, 154078, Note_on_c, 12, 84, 98
13, 154079, Note_on_c, 12, 57, 98
13, 154080, Note_on_c, 12, 62, 98
13, 154115, Note_off_c, 12, 30, 64
13, 154123, Note_off_c, 12, 84, 56
13, 154124, Note_off_c, 12, 57, 56
13, 154125, Note_off_c, 12, 62, 56
13, 154139, Note_on_c, 12, 62, 98
13, 154140, Note_on_c, 12, 57, 98
13, 154142, Note_on_c, 12, 84, 98
13, 154184, Note_off_c, 12, 62, 56
13, 154185, Note_off_c, 12, 57, 56
13, 154187, Note_off_c, 12, 84, 56
13, 154198, Note_on_c, 12, 84, 98
13, 154198, Note_on_c, 12, 62, 98
13, 154201, Note_on_c, 12, 57, 98
13, 154243, Note_off_c, 12, 62, 56
13, 154243, Note_off_c, 12, 84, 56
13, 154246, Note_off_c, 12, 57, 56
13, 154260, Note_on_c, 12, 84, 99
13, 154260, Note_on_c, 12, 57, 99
13, 154262, Note_on_c, 12, 62, 99
13, 154305, Note_off_c, 12, 57, 56
13, 154305, Note_off_c, 12, 84, 56
13, 154307, Note_off_c, 12, 62, 56
13, 154318, Note_on_c, 12, 83, 99
13, 154318, Note_on_c, 12, 62, 99
13, 154319, Note_on_c, 12, 59, 99
13, 154323, Note_on_c, 12, 31, 94
13, 154363, Note_off_c, 12, 62, 56
13, 154363, Note_off_c, 12, 83, 56
13, 154364, Note_off_c, 12, 59, 56
13, 154380, Note_on_c, 12, 83, 99
13, 154381, Note_on_c, 12, 59, 99
13, 154381, Note_on_c, 12, 62, 99
13, 154425, Note_off_c, 12, 83, 56
13, 154426, Note_off_c, 12, 62, 56
13, 154426, Note_off_c, 12, 59, 56
13, 154438, Note_on_c, 12, 59, 99
13, 154440, Note_on_c, 12, 83, 99
13, 154441, Note_on_c, 12, 62, 99
13, 154483, Note_off_c, 12, 59, 56
13, 154485, Note_off_c, 12, 83, 56
13, 154486, Note_off_c, 12, 62, 56
13, 154486, Note_off_c, 12, 31, 64
13, 154499, Note_on_c, 12, 62, 100
13, 154500, Note_on_c, 12, 83, 99
13, 154500, Note_on_c, 12, 59, 100
13, 154544, Note_off_c, 12, 62, 56
13, 154545, Note_off_c, 12, 59, 56
13, 154545, Note_off_c, 12, 83, 56
13, 154557, Note_on_c, 12, 36, 95
13, 154558, Note_on_c, 12, 81, 100
13, 154561, Note_on_c, 12, 64, 100
13, 154561, Note_on_c, 12, 60, 100
13, 154603, Note_off_c, 12, 81, 56
13, 154606, Note_off_c, 12, 60, 56
13, 154606, Note_off_c, 12, 64, 56
13, 154619, Note_on_c, 12, 64, 100
13, 154622, Note_on_c, 12, 81, 100
13, 154622, Note_on_c, 12, 60, 100
13, 154664, Note_off_c, 12, 64, 56
13, 154667, Note_off_c, 12, 60, 56
13, 154667, Note_off_c, 12, 81, 56
13, 154678, Note_on_c, 12, 60, 100
13, 154682, Note_on_c, 12, 81, 100
13, 154682, Note_on_c, 12, 64, 100
13, 154720, Note_off_c, 12, 36, 64
13, 154723, Note_off_c, 12, 60, 56
13, 154727, Note_off_c, 12, 64, 56
13, 154727, Note_off_c, 12, 81, 56
13, 154739, Note_on_c, 12, 64, 100
13, 154740, Note_on_c, 12, 81, 100
13, 154742, Note_on_c, 12, 60, 100
13, 154784, Note_off_c, 12, 64, 56
13, 154785, Note_off_c, 12, 81, 56
13, 154787, Note_off_c, 12, 60, 56
13, 154798, Note_on_c, 12, 65, 101
13, 154799, Note_on_c, 12, 80, 101
13, 154802, Note_on_c, 12, 60, 101
13, 154803, Note_on_c, 12, 36, 96
13, 154843, Note_off_c, 12, 65, 56
13, 154844, Note_off_c, 12, 80, 56
13, 154847, Note_off_c, 12, 60, 56
13, 154859, Note_on_c, 12, 65, 101
13, 154860, Note_on_c, 12, 60, 101
13, 154861, Note_on_c, 12, 80, 101
13, 154904, Note_off_c, 12, 65, 56
13, 154905, Note_off_c, 12, 60, 56
13, 154906, Note_off_c, 12, 80, 56
13, 154920, Note_on_c, 12, 80, 101
13, 154920, Note_on_c, 12, 60, 101
13, 154921, Note_on_c, 12, 65, 101
13, 154965, Note_off_c, 12, 60, 56
13, 154965, Note_off_c, 12, 80, 56
13, 154966, Note_off_c, 12, 65, 56
13, 154966, Note_off_c, 12, 36, 64
13, 154979, Note_on_c, 12, 80, 101
13, 154979, Note_on_c, 12, 65, 101
13, 154982, Note_on_c, 12, 60, 101
13, 155024, Note_off_c, 12, 65, 56
13, 155024, Note_off_c, 12, 80, 56
13, 155027, Note_off_c, 12, 60, 56
13, 155038, Note_on_c, 12, 60, 102
13, 155038, Note_on_c, 12, 65, 102
13, 155039, Note_on_c, 12, 36, 97
13, 155042, Note_on_c, 12, 80, 102
13, 155083, Note_off_c, 12, 65, 56
13, 155083, Note_off_c, 12, 60, 56
13, 155087, Note_off_c, 12, 80, 56
13, 155098, Note_on_c, 12, 65, 102
13, 155099, Note_on_c, 12, 60, 102
13, 155101, Note_on_c, 12, 80, 102
13, 155143, Note_off_c, 12, 65, 56
13, 155144, Note_off_c, 12, 60, 56
13, 155146, Note_off_c, 12, 80, 56
13, 155159, Note_on_c, 12, 80, 102
13, 155159, Note_on_c, 12, 65, 102
13, 155162, Note_on_c, 12, 60, 102
13, 155202, Note_off_c, 12, 36, 64
13, 155204, Note_off_c, 12, 65, 56
13, 155204, Note_off_c, 12, 80, 56
13, 155207, Note_off_c, 12, 60, 56
13, 155219, Note_on_c, 12, 60, 102
13, 155220, Note_on_c, 12, 65, 102
13, 155221, Note_on_c, 12, 80, 102
13, 155264, Note_off_c, 12, 60, 56
13, 155265, Note_off_c, 12, 65, 56
13, 155266, Note_off_c, 12, 80, 56
13, 155278, Note_on_c, 12, 36, 98
13, 155279, Note_on_c, 12, 60, 103
13, 155282, Note_on_c, 12, 80, 102
13, 155282, Note_on_c, 12, 65, 103
13, 155324, Note_off_c, 12, 60, 56
13, 155327, Note_off_c, 12, 65, 56
13, 155327, Note_off_c, 12, 80, 56
13, 155338, Note_on_c, 12, 80, 103
13, 155338, Note_on_c, 12, 65, 103
13, 155340, Note_on_c, 12, 60, 103
13, 155383, Note_off_c, 12, 65, 56
13, 155383, Note_off_c, 12, 80, 56
13, 155385, Note_off_c, 12, 60, 56
13, 155398, Note_on_c, 12, 80, 103
13, 155398, Note_on_c, 12, 65, 103
13, 155398, Note_on_c, 12, 60, 103
13, 155441, Note_off_c, 12, 36, 64
13, 155443, Note_off_c, 12, 60, 56
13, 155443, Note_off_c, 12, 65, 56
13, 155443, Note_off_c, 12, 80, 56
13, 155459, Note_on_c, 12, 80, 103
13, 155461, Note_on_c, 12, 65, 103
13, 155461, Note_on_c, 12, 60, 103
13, 155504, Note_off_c, 12, 80, 56
13, 155506, Note_off_c, 12, 60, 56
13, 155506, Note_off_c, 12, 65, 56
13, 155519, Note_on_c, 12, 80, 103
13, 155521, Note_on_c, 12, 65, 103
13, 155522, Note_on_c, 12, 60, 103
13, 155523, Note_on_c, 12, 36, 98
13, 155564, Note_off_c, 12, 80, 56
13, 155566, Note_off_c, 12, 65, 56
13, 155567, Note_off_c, 12, 60, 56
13, 155578, Note_on_c, 12, 80, 105
13, 155578, Note_on_c, 12, 60, 105
13, 155579, Note_on_c, 12, 65, 105
13, 155623, Note_off_c, 12, 60, 56
13, 155623, Note_off_c, 12, 80, 56
13, 155624, Note_off_c, 12, 65, 56
13, 155638, Note_on_c, 12, 60, 105
13, 155639, Note_on_c, 12, 65, 105
13, 155642, Note_on_c, 12, 80, 105
13, 155683, Note_off_c, 12, 60, 56
13, 155684, Note_off_c, 12, 65, 56
13, 155686, Note_off_c, 12, 36, 64
13, 155687, Note_off_c, 12, 80, 56
13, 155699, Note_on_c, 12, 80, 105
13, 155700, Note_on_c, 12, 65, 105
13, 155701, Note_on_c, 12, 60, 105
13, 155744, Note_off_c, 12, 80, 56
13, 155745, Note_off_c, 12, 65, 56
13, 155746, Note_off_c, 12, 60, 56
13, 155758, Note_on_c, 12, 65, 105
13, 155760, Note_on_c, 12, 36, 100
13, 155761, Note_on_c, 12, 80, 105
13, 155762, Note_on_c, 12, 60, 105
13, 155803, Note_off_c, 12, 65, 56
13, 155806, Note_off_c, 12, 80, 56
13, 155807, Note_off_c, 12, 60, 56
13, 155818, Note_on_c, 12, 80, 106
13, 155819, Note_on_c, 12, 60, 106
13, 155822, Note_on_c, 12, 65, 106
13, 155863, Note_off_c, 12, 80, 56
13, 155864, Note_off_c, 12, 60, 56
13, 155867, Note_off_c, 12, 65, 56
13, 155878, Note_on_c, 12, 65, 106
13, 155881, Note_on_c, 12, 80, 106
13, 155882, Note_on_c, 12, 60, 106
13, 155923, Note_off_c, 12, 65, 56
13, 155923, Note_off_c, 12, 36, 64
13, 155926, Note_off_c, 12, 80, 56
13, 155927, Note_off_c, 12, 60, 56
13, 155938, Note_on_c, 12, 80, 106
13, 155939, Note_on_c, 12, 65, 106
13, 155939, Note_on_c, 12, 60, 106
13, 155983, Note_off_c, 12, 80, 56
13, 155984, Note_off_c, 12, 60, 56
13, 155984, Note_off_c, 12, 65, 56
13, 155998, Note_on_c, 12, 65, 106
13, 155999, Note_on_c, 12, 60, 106
13, 156001, Note_on_c, 12, 80, 106
13, 156001, Note_on_c, 12, 36, 101
13, 156043, Note_off_c, 12, 65, 56
13, 156044, Note_off_c, 12, 60, 56
13, 156046, Note_off_c, 12, 80, 56
13, 156059, Note_on_c, 12, 80, 106
13, 156059, Note_on_c, 12, 65, 107
13, 156060, Note_on_c, 12, 60, 107
13, 156104, Note_off_c, 12, 65, 56
13, 156104, Note_off_c, 12, 80, 56
13, 156105, Note_off_c, 12, 60, 56
13, 156120, Note_on_c, 12, 65, 107
13, 156121, Note_on_c, 12, 60, 107
13, 156122, Note_on_c, 12, 80, 107
13, 156164, Note_off_c, 12, 36, 64
13, 156165, Note_off_c, 12, 65, 56
13, 156166, Note_off_c, 12, 60, 56
13, 156167, Note_off_c, 12, 80, 56
13, 156178, Note_on_c, 12, 60, 107
13, 156179, Note_on_c, 12, 80, 107
13, 156182, Note_on_c, 12, 65, 107
13, 156223, Note_off_c, 12, 60, 56
13, 156224, Note_off_c, 12, 80, 56
13, 156227, Note_off_c, 12, 65, 56
13, 156238, Note_on_c, 12, 65, 107
13, 156240, Note_on_c, 12, 60, 107
13, 156241, Note_on_c, 12, 80, 107
13, 156243, Note_on_c, 12, 36, 102
13, 156283, Note_off_c, 12, 65, 56
13, 156285, Note_off_c, 12, 60, 56
13, 156286, Note_off_c, 12, 80, 56
13, 156298, Note_on_c, 12, 80, 107
13, 156299, Note_on_c, 12, 60, 108
13, 156300, Note_on_c, 12, 65, 108
13, 156343, Note_off_c, 12, 80, 56
13, 156344, Note_off_c, 12, 60, 56
13, 156345, Note_off_c, 12, 65, 56
13, 156360, Note_on_c, 12, 65, 108
13, 156360, Note_on_c, 12, 60, 108
13, 156362, Note_on_c, 12, 80, 108
13, 156405, Note_off_c, 12, 60, 56
13, 156405, Note_off_c, 12, 65, 56
13, 156406, Note_off_c, 12, 36, 64
13, 156407, Note_off_c, 12, 80, 56
13, 156419, Note_on_c, 12, 65, 108
13, 156420, Note_on_c, 12, 80, 108
13, 156420, Note_on_c, 12, 60, 108
13, 156464, Note_off_c, 12, 65, 56
13, 156465, Note_off_c, 12, 60, 56
13, 156465, Note_off_c, 12, 80, 56
13, 156478, Note_on_c, 12, 80, 108
13, 156478, Note_on_c, 12, 36, 103
13, 156479, Note_on_c, 12, 65, 108
13, 156482, Note_on_c, 12, 60, 108
13, 156523, Note_off_c, 12, 80, 56
13, 156524, Note_off_c, 12, 65, 56
13, 156527, Note_off_c, 12, 60, 56
13, 156538, Note_on_c, 12, 80, 108
13, 156539, Note_on_c, 12, 60, 108
13, 156542, Note_on_c, 12, 65, 108
13, 156583, Note_off_c, 12, 80, 56
13, 156584, Note_off_c, 12, 60, 56
13, 156587, Note_off_c, 12, 65, 56
13, 156599, Note_on_c, 12, 80, 109
13, 156599, Note_on_c, 12, 65, 109
13, 156602, Note_on_c, 12, 60, 109
13, 156641, Note_off_c, 12, 36, 64
13, 156644, Note_off_c, 12, 65, 56
13, 156644, Note_off_c, 12, 80, 56
13, 156647, Note_off_c, 12, 60, 56
13, 156659, Note_on_c, 12, 80, 109
13, 156660, Note_on_c, 12, 65, 109
13, 156662, Note_on_c, 12, 60, 109
13, 156704, Note_off_c, 12, 80, 56
13, 156705, Note_off_c, 12, 65, 56
13, 156707, Note_off_c, 12, 60, 56
13, 156719, Note_on_c, 12, 68, 109
13, 156720, Note_on_c, 12, 65, 109
13, 156720, Note_on_c, 12, 36, 104
13, 156722, Note_on_c, 12, 84, 109
13, 156764, Note_off_c, 12, 68, 56
13, 156765, Note_off_c, 12, 65, 56
13, 156767, Note_off_c, 12, 84, 56
13, 156778, Note_on_c, 12, 65, 109
13, 156780, Note_on_c, 12, 68, 109
13, 156781, Note_on_c, 12, 84, 109
13, 156823, Note_off_c, 12, 65, 56
13, 156825, Note_off_c, 12, 68, 56
13, 156826, Note_off_c, 12, 84, 56
13, 156839, Note_on_c, 12, 84, 110
13, 156840, Note_on_c, 12, 68, 110
13, 156842, Note_on_c, 12, 65, 110
13, 156883, Note_off_c, 12, 36, 64
13, 156884, Note_off_c, 12, 84, 56
13, 156885, Note_off_c, 12, 68, 56
13, 156887, Note_off_c, 12, 65, 56
13, 156898, Note_on_c, 12, 65, 110
13, 156898, Note_on_c, 12, 68, 110
13, 156901, Note_on_c, 12, 84, 110
13, 156943, Note_off_c, 12, 68, 56
13, 156943, Note_off_c, 12, 65, 56
13, 156946, Note_off_c, 12, 84, 56
13, 156957, Note_on_c, 12, 36, 105
13, 156959, Note_on_c, 12, 65, 110
13, 156959, Note_on_c, 12, 68, 110
13, 156960, Note_on_c, 12, 84, 110
13, 157004, Note_off_c, 12, 68, 56
13, 157004, Note_off_c, 12, 65, 56
13, 157005, Note_off_c, 12, 84, 56
13, 157018, Note_on_c, 12, 84, 110
13, 157021, Note_on_c, 12, 65, 110
13, 157022, Note_on_c, 12, 68, 110
13, 157063, Note_off_c, 12, 84, 56
13, 157066, Note_off_c, 12, 65, 56
13, 157067, Note_off_c, 12, 68, 56
13, 157080, Note_on_c, 12, 68, 111
13, 157081, Note_on_c, 12, 84, 110
13, 157082, Note_on_c, 12, 65, 111
13, 157120, Note_off_c, 12, 36, 64
13, 157125, Note_off_c, 12, 68, 56
13, 157126, Note_off_c, 12, 84, 56
13, 157127, Note_off_c, 12, 65, 56
13, 157140, Note_on_c, 12, 65, 111
13, 157142, Note_on_c, 12, 84, 111
13, 157142, Note_on_c, 12, 68, 111
13, 157185, Note_off_c, 12, 65, 56
13, 157187, Note_off_c, 12, 68, 56
13, 157187, Note_off_c, 12, 84, 56
13, 157198, Note_on_c, 12, 84, 111
13, 157200, Note_on_c, 12, 65, 111
13, 157200, Note_on_c, 12, 68, 111
13, 157203, Note_on_c, 12, 36, 106
13, 157243, Note_off_c, 12, 84, 56
13, 157245, Note_off_c, 12, 68, 56
13, 157245, Note_off_c, 12, 65, 56
13, 157259, Note_on_c, 12, 84, 111
13, 157261, Note_on_c, 12, 65, 111
13, 157262, Note_on_c, 12, 68, 111
13, 157304, Note_off_c, 12, 84, 56
13, 157306, Note_off_c, 12, 65, 56
13, 157307, Note_off_c, 12, 68, 56
13, 157319, Note_on_c, 12, 84, 111
13, 157320, Note_on_c, 12, 65, 111
13, 157322, Note_on_c, 12, 68, 111
13, 157364, Note_off_c, 12, 84, 56
13, 157365, Note_off_c, 12, 65, 56
13, 157366, Note_off_c, 12, 36, 64
13, 157367, Note_off_c, 12, 68, 56
13, 157379, Note_on_c, 12, 68, 113
13, 157379, Note_on_c, 12, 65, 113
13, 157382, Note_on_c, 12, 84, 113
13, 157424, Note_off_c, 12, 65, 56
13, 157424, Note_off_c, 12, 68, 56
13, 157427, Note_off_c, 12, 84, 56
13, 157439, Note_on_c, 12, 68, 108
13, 157440, Note_on_c, 12, 29, 108
13, 157441, Note_on_c, 12, 89, 108
13, 157442, Note_on_c, 12, 65, 108
13, 157501, Note_off_c, 12, 29, 56
13, 157561, Note_on_c, 12, 24, 108
13, 157622, Note_off_c, 12, 24, 56
13, 157681, Note_on_c, 12, 32, 108
13, 157742, Note_off_c, 12, 32, 56
13, 157799, Note_on_c, 12, 29, 108
13, 157880, Note_off_c, 12, 29, 56
13, 157919, Note_on_c, 12, 32, 108
13, 157980, Note_off_c, 12, 32, 56
13, 158041, Note_on_c, 12, 29, 108
13, 158102, Note_off_c, 12, 29, 56
13, 158159, Note_on_c, 12, 36, 108
13, 158240, Note_off_c, 12, 36, 56
13, 158281, Note_on_c, 12, 32, 108
13, 158362, Note_off_c, 12, 32, 56
13, 158399, Note_on_c, 12, 36, 108
13, 158460, Note_off_c, 12, 36, 56
13, 158521, Note_on_c, 12, 32, 108
13, 158582, Note_off_c, 12, 32, 56
13, 158641, Note_on_c, 12, 41, 108
13, 158702, Note_off_c, 12, 41, 56
13, 158759, Note_on_c, 12, 36, 108
13, 158840, Note_off_c, 12, 36, 56
13, 158881, Note_on_c, 12, 41, 108
13, 158962, Note_off_c, 12, 41, 56
13, 159000, Note_on_c, 12, 36, 108
13, 159061, Note_off_c, 12, 36, 56
13, 159119, Note_on_c, 12, 44, 108
13, 159167, Note_off_c, 12, 68, 64
13, 159169, Note_off_c, 12, 89, 64
13, 159170, Note_off_c, 12, 65, 64
13, 159200, Note_off_c, 12, 44, 56
13, 159240, Note_on_c, 12, 41, 108
13, 159321, Note_off_c, 12, 41, 56
13, 159360, Note_on_c, 12, 55, 108
13, 159361, Note_on_c, 12, 43, 108
13, 159362, Note_on_c, 12, 50, 108
13, 159362, Note_on_c, 12, 71, 108
13, 159428, Note_off_c, 12, 55, 56
13, 159430, Note_off_c, 12, 71, 56
13, 159481, Note_on_c, 12, 55, 108
13, 159549, Note_off_c, 12, 55, 56
13, 159600, Note_on_c, 12, 59, 108
13, 159668, Note_off_c, 12, 59, 56
13, 159718, Note_on_c, 12, 55, 108
13, 159809, Note_off_c, 12, 55, 56
13, 159841, Note_on_c, 12, 59, 108
13, 159932, Note_off_c, 12, 59, 56
13, 159938, Note_off_c, 12, 50, 64
13, 159960, Note_on_c, 12, 55, 108
13, 160028, Note_off_c, 12, 55, 56
13, 160078, Note_on_c, 12, 50, 108
13, 160079, Note_on_c, 12, 62, 108
13, 160147, Note_off_c, 12, 62, 56
13, 160169, Note_off_c, 12, 50, 56
13, 160199, Note_on_c, 12, 53, 108
13, 160202, Note_on_c, 12, 59, 108
13, 160290, Note_off_c, 12, 53, 56
13, 160293, Note_off_c, 12, 59, 56
13, 160319, Note_on_c, 12, 50, 108
13, 160320, Note_on_c, 12, 62, 108
13, 160321, Note_on_c, 12, 53, 108
13, 160387, Note_off_c, 12, 50, 56
13, 160388, Note_off_c, 12, 62, 56
13, 160389, Note_off_c, 12, 53, 56
13, 160440, Note_on_c, 12, 53, 108
13, 160441, Note_on_c, 12, 59, 108
13, 160508, Note_off_c, 12, 53, 56
13, 160509, Note_off_c, 12, 59, 56
13, 160558, Note_on_c, 12, 50, 108
13, 160559, Note_on_c, 12, 65, 108
13, 160561, Note_on_c, 12, 53, 108
13, 160626, Note_off_c, 12, 50, 56
13, 160627, Note_off_c, 12, 65, 56
13, 160629, Note_off_c, 12, 53, 56
13, 160681, Note_on_c, 12, 62, 108
13, 160682, Note_on_c, 12, 53, 108
13, 160682, Note_on_c, 12, 59, 108
13, 160772, Note_off_c, 12, 62, 56
13, 160773, Note_off_c, 12, 59, 56
13, 160773, Note_off_c, 12, 53, 56
13, 160799, Note_on_c, 12, 65, 108
13, 160799, Note_on_c, 12, 53, 108
13, 160802, Note_on_c, 12, 59, 108
13, 160867, Note_off_c, 12, 53, 56
13, 160870, Note_off_c, 12, 59, 56
13, 160890, Note_off_c, 12, 65, 56
13, 160921, Note_on_c, 12, 62, 108
13, 160922, Note_on_c, 12, 59, 108
13, 160989, Note_off_c, 12, 62, 56
13, 160990, Note_off_c, 12, 59, 56
13, 161040, Note_on_c, 12, 59, 108
13, 161041, Note_on_c, 12, 53, 108
13, 161042, Note_on_c, 12, 71, 108
13, 161089, Note_off_c, 12, 43, 64
13, 161131, Note_off_c, 12, 59, 56
13, 161132, Note_off_c, 12, 53, 56
13, 161133, Note_off_c, 12, 71, 56
13, 161159, Note_on_c, 12, 59, 108
13, 161162, Note_on_c, 12, 65, 108
13, 161162, Note_on_c, 12, 62, 108
13, 161250, Note_off_c, 12, 59, 56
13, 161253, Note_off_c, 12, 62, 56
13, 161253, Note_off_c, 12, 65, 56
13, 161280, Note_on_c, 12, 50, 108
13, 161281, Note_on_c, 12, 59, 108
13, 161282, Note_on_c, 12, 53, 108
13, 161282, Note_on_c, 12, 71, 108
13, 161349, Note_off_c, 12, 59, 56
13, 161350, Note_off_c, 12, 71, 56
13, 161350, Note_off_c, 12, 53, 56
13, 161361, Note_off_c, 12, 50, 56
13, 161398, Note_on_c, 12, 65, 108
13, 161400, Note_on_c, 12, 62, 108
13, 161400, Note_on_c, 12, 53, 108
13, 161402, Note_on_c, 12, 59, 108
13, 161466, Note_off_c, 12, 65, 56
13, 161468, Note_off_c, 12, 62, 56
13, 161470, Note_off_c, 12, 59, 56
13, 161481, Note_off_c, 12, 53, 56
13, 161519, Note_on_c, 12, 59, 108
13, 161519, Note_on_c, 12, 62, 108
13, 161520, Note_on_c, 12, 74, 108
13, 161521, Note_on_c, 12, 47, 108
13, 161588, Note_off_c, 12, 74, 56
13, 161602, Note_off_c, 12, 47, 56
13, 161610, Note_off_c, 12, 62, 56
13, 161610, Note_off_c, 12, 59, 56
13, 161638, Note_on_c, 12, 62, 108
13, 161639, Note_on_c, 12, 71, 108
13, 161639, Note_on_c, 12, 50, 108
13, 161640, Note_on_c, 12, 65, 108
13, 161707, Note_off_c, 12, 71, 56
13, 161720, Note_off_c, 12, 50, 56
13, 161729, Note_off_c, 12, 62, 56
13, 161731, Note_off_c, 12, 65, 56
13, 161758, Note_on_c, 12, 65, 108
13, 161759, Note_on_c, 12, 43, 108
13, 161760, Note_on_c, 12, 77, 108
13, 161761, Note_on_c, 12, 62, 108
13, 161826, Note_off_c, 12, 65, 56
13, 161828, Note_off_c, 12, 77, 56
13, 161829, Note_off_c, 12, 62, 56
13, 161840, Note_off_c, 12, 43, 56
13, 161878, Note_on_c, 12, 71, 108
13, 161880, Note_on_c, 12, 65, 108
13, 161881, Note_on_c, 12, 47, 108
13, 161882, Note_on_c, 12, 74, 108
13, 161946, Note_off_c, 12, 71, 56
13, 161948, Note_off_c, 12, 65, 56
13, 161950, Note_off_c, 12, 74, 56
13, 161962, Note_off_c, 12, 47, 56
13, 161999, Note_on_c, 12, 83, 108
13, 162000, Note_on_c, 12, 65, 108
13, 162001, Note_on_c, 12, 41, 108
13, 162002, Note_on_c, 12, 71, 108
13, 162067, Note_off_c, 12, 83, 56
13, 162068, Note_off_c, 12, 65, 56
13, 162070, Note_off_c, 12, 71, 56
13, 162082, Note_off_c, 12, 41, 56
13, 162121, Note_on_c, 12, 71, 108
13, 162121, Note_on_c, 12, 43, 108
13, 162122, Note_on_c, 12, 77, 108
13, 162122, Note_on_c, 12, 74, 108
13, 162189, Note_off_c, 12, 71, 56
13, 162190, Note_off_c, 12, 74, 56
13, 162190, Note_off_c, 12, 77, 56
13, 162202, Note_off_c, 12, 43, 56
13, 162239, Note_on_c, 12, 71, 108
13, 162240, Note_on_c, 12, 74, 108
13, 162240, Note_on_c, 12, 35, 108
13, 162241, Note_on_c, 12, 86, 108
13, 162307, Note_off_c, 12, 71, 56
13, 162308, Note_off_c, 12, 74, 56
13, 162321, Note_off_c, 12, 35, 56
13, 162332, Note_off_c, 12, 86, 56
13, 162359, Note_on_c, 12, 83, 108
13, 162361, Note_on_c, 12, 74, 108
13, 162361, Note_on_c, 12, 38, 108
13, 162362, Note_on_c, 12, 77, 108
13, 162429, Note_off_c, 12, 74, 56
13, 162430, Note_off_c, 12, 77, 56
13, 162442, Note_off_c, 12, 38, 56
13, 162450, Note_off_c, 12, 83, 56
13, 162479, Note_on_c, 12, 89, 113
13, 162480, Note_on_c, 12, 55, 113
13, 162480, Note_on_c, 12, 31, 108
13, 162481, Note_on_c, 12, 59, 113
13, 162524, Note_off_c, 12, 89, 56
13, 162525, Note_off_c, 12, 55, 56
13, 162526, Note_off_c, 12, 59, 56
13, 162538, Note_on_c, 12, 89, 113
13, 162538, Note_on_c, 12, 55, 113
13, 162541, Note_on_c, 12, 59, 113
13, 162561, Note_off_c, 12, 31, 56
13, 162583, Note_off_c, 12, 55, 56
13, 162583, Note_off_c, 12, 89, 56
13, 162586, Note_off_c, 12, 59, 56
13, 162599, Note_on_c, 12, 89, 113
13, 162600, Note_on_c, 12, 55, 113
13, 162601, Note_on_c, 12, 35, 108
13, 162602, Note_on_c, 12, 59, 113
13, 162644, Note_off_c, 12, 89, 56
13, 162645, Note_off_c, 12, 55, 56
13, 162647, Note_off_c, 12, 59, 56
13, 162659, Note_on_c, 12, 89, 113
13, 162659, Note_on_c, 12, 59, 113
13, 162662, Note_on_c, 12, 55, 113
13, 162682, Note_off_c, 12, 35, 56
13, 162704, Note_off_c, 12, 59, 56
13, 162704, Note_off_c, 12, 89, 56
13, 162707, Note_off_c, 12, 55, 56
13, 162718, Note_on_c, 12, 89, 113
13, 162719, Note_on_c, 12, 59, 113
13, 162719, Note_on_c, 12, 31, 108
13, 162722, Note_on_c, 12, 55, 113
13, 162763, Note_off_c, 12, 89, 56
13, 162764, Note_off_c, 12, 59, 56
13, 162767, Note_off_c, 12, 55, 56
13, 162779, Note_on_c, 12, 89, 113
13, 162779, Note_on_c, 12, 55, 113
13, 162782, Note_on_c, 12, 59, 113
13, 162800, Note_off_c, 12, 31, 56
13, 162824, Note_off_c, 12, 55, 56
13, 162824, Note_off_c, 12, 89, 56
13, 162827, Note_off_c, 12, 59, 56
13, 162838, Note_on_c, 12, 55, 113
13, 162839, Note_on_c, 12, 38, 108
13, 162840, Note_on_c, 12, 59, 113
13, 162841, Note_on_c, 12, 89, 113
13, 162883, Note_off_c, 12, 55, 56
13, 162885, Note_off_c, 12, 59, 56
13, 162886, Note_off_c, 12, 89, 56
13, 162898, Note_on_c, 12, 89, 113
13, 162899, Note_on_c, 12, 55, 113
13, 162899, Note_on_c, 12, 59, 113
13, 162920, Note_off_c, 12, 38, 56
13, 162943, Note_off_c, 12, 89, 56
13, 162944, Note_off_c, 12, 59, 56
13, 162944, Note_off_c, 12, 55, 56
13, 162959, Note_on_c, 12, 55, 113
13, 162959, Note_on_c, 12, 35, 108
13, 162959, Note_on_c, 12, 59, 113
13, 162962, Note_on_c, 12, 89, 113
13, 163004, Note_off_c, 12, 59, 56
13, 163004, Note_off_c, 12, 55, 56
13, 163007, Note_off_c, 12, 89, 56
13, 163018, Note_on_c, 12, 55, 113
13, 163019, Note_on_c, 12, 89, 113
13, 163020, Note_on_c, 12, 59, 113
13, 163040, Note_off_c, 12, 35, 56
13, 163063, Note_off_c, 12, 55, 56
13, 163064, Note_off_c, 12, 89, 56
13, 163065, Note_off_c, 12, 59, 56
13, 163079, Note_on_c, 12, 31, 108
13, 163081, Note_on_c, 12, 55, 113
13, 163082, Note_on_c, 12, 89, 113
13, 163082, Note_on_c, 12, 59, 113
13, 163126, Note_off_c, 12, 55, 56
13, 163127, Note_off_c, 12, 59, 56
13, 163127, Note_off_c, 12, 89, 56
13, 163138, Note_on_c, 12, 55, 113
13, 163140, Note_on_c, 12, 89, 113
13, 163140, Note_on_c, 12, 59, 113
13, 163160, Note_off_c, 12, 31, 56
13, 163183, Note_off_c, 12, 55, 56
13, 163185, Note_off_c, 12, 59, 56
13, 163185, Note_off_c, 12, 89, 56
13, 163198, Note_on_c, 12, 76, 113
13, 163199, Note_on_c, 12, 59, 113
13, 163199, Note_on_c, 12, 56, 113
13, 163200, Note_on_c, 12, 88, 113
13, 163200, Note_on_c, 12, 32, 108
13, 163243, Note_off_c, 12, 76, 56
13, 163244, Note_off_c, 12, 56, 56
13, 163244, Note_off_c, 12, 59, 56
13, 163245, Note_off_c, 12, 88, 56
13, 163258, Note_on_c, 12, 56, 113
13, 163259, Note_on_c, 12, 76, 113
13, 163261, Note_off_c, 12, 32, 56
13, 163261, Note_on_c, 12, 88, 113
13, 163262, Note_on_c, 12, 59, 113
13, 163303, Note_off_c, 12, 56, 56
13, 163304, Note_off_c, 12, 76, 56
13, 163306, Note_off_c, 12, 88, 56
13, 163307, Note_off_c, 12, 59, 56
13, 163319, Note_on_c, 12, 56, 113
13, 163319, Note_on_c, 12, 76, 113
13, 163320, Note_on_c, 12, 59, 113
13, 163320, Note_on_c, 12, 28, 108
13, 163321, Note_on_c, 12, 88, 113
13, 163364, Note_off_c, 12, 76, 56
13, 163364, Note_off_c, 12, 56, 56
13, 163365, Note_off_c, 12, 59, 56
13, 163366, Note_off_c, 12, 88, 56
13, 163378, Note_on_c, 12, 88, 113
13, 163378, Note_on_c, 12, 59, 113
13, 163381, Note_off_c, 12, 28, 56
13, 163382, Note_on_c, 12, 76, 113
13, 163382, Note_on_c, 12, 56, 113
13, 163423, Note_off_c, 12, 59, 56
13, 163423, Note_off_c, 12, 88, 56
13, 163427, Note_off_c, 12, 56, 56
13, 163427, Note_off_c, 12, 76, 56
13, 163438, Note_on_c, 12, 59, 113
13, 163438, Note_on_c, 12, 76, 113
13, 163439, Note_on_c, 12, 88, 113
13, 163439, Note_on_c, 12, 56, 113
13, 163440, Note_on_c, 12, 35, 108
13, 163483, Note_off_c, 12, 76, 56
13, 163483, Note_off_c, 12, 59, 56
13, 163484, Note_off_c, 12, 56, 56
13, 163484, Note_off_c, 12, 88, 56
13, 163498, Note_on_c, 12, 56, 113
13, 163500, Note_on_c, 12, 88, 113
13, 163501, Note_on_c, 12, 59, 113
13, 163501, Note_on_c, 12, 76, 113
13, 163521, Note_off_c, 12, 35, 56
13, 163543, Note_off_c, 12, 56, 56
13, 163545, Note_off_c, 12, 88, 56
13, 163546, Note_off_c, 12, 76, 56
13, 163546, Note_off_c, 12, 59, 56
13, 163558, Note_on_c, 12, 56, 113
13, 163559, Note_on_c, 12, 88, 113
13, 163559, Note_on_c, 12, 76, 113
13, 163559, Note_on_c, 12, 59, 113
13, 163560, Note_on_c, 12, 32, 108
13, 163603, Note_off_c, 12, 56, 56
13, 163604, Note_off_c, 12, 59, 56
13, 163604, Note_off_c, 12, 76, 56
13, 163604, Note_off_c, 12, 88, 56
13, 163618, Note_on_c, 12, 88, 113
13, 163618, Note_on_c, 12, 59, 113
13, 163618, Note_on_c, 12, 76, 113
13, 163620, Note_on_c, 12, 56, 113
13, 163641, Note_off_c, 12, 32, 56
13, 163663, Note_off_c, 12, 76, 56
13, 163663, Note_off_c, 12, 59, 56
13, 163663, Note_off_c, 12, 88, 56
13, 163665, Note_off_c, 12, 56, 56
13, 163678, Note_on_c, 12, 56, 113
13, 163678, Note_on_c, 12, 76, 113
13, 163679, Note_on_c, 12, 88, 113
13, 163680, Note_on_c, 12, 59, 113
13, 163680, Note_on_c, 12, 35, 108
13, 163723, Note_off_c, 12, 76, 56
13, 163723, Note_off_c, 12, 56, 56
13, 163724, Note_off_c, 12, 88, 56
13, 163725, Note_off_c, 12, 59, 56
13, 163738, Note_on_c, 12, 76, 113
13, 163739, Note_on_c, 12, 56, 113
13, 163741, Note_off_c, 12, 35, 56
13, 163742, Note_on_c, 12, 88, 113
13, 163742, Note_on_c, 12, 59, 113
13, 163783, Note_off_c, 12, 76, 56
13, 163784, Note_off_c, 12, 56, 56
13, 163787, Note_off_c, 12, 59, 56
13, 163787, Note_off_c, 12, 88, 56
13, 163798, Note_on_c, 12, 76, 113
13, 163799, Note_on_c, 12, 88, 113
13, 163799, Note_on_c, 12, 32, 108
13, 163800, Note_on_c, 12, 59, 113
13, 163802, Note_on_c, 12, 56, 113
13, 163843, Note_off_c, 12, 76, 56
13, 163844, Note_off_c, 12, 88, 56
13, 163845, Note_off_c, 12, 59, 56
13, 163847, Note_off_c, 12, 56, 56
13, 163858, Note_on_c, 12, 59, 113
13, 163859, Note_on_c, 12, 56, 113
13, 163860, Note_off_c, 12, 32, 56
13, 163860, Note_on_c, 12, 88, 113
13, 163862, Note_on_c, 12, 76, 113
13, 163903, Note_off_c, 12, 59, 56
13, 163904, Note_off_c, 12, 56, 56
13, 163905, Note_off_c, 12, 88, 56
13, 163907, Note_off_c, 12, 76, 56
13, 163919, Note_on_c, 12, 59, 113
13, 163919, Note_on_c, 12, 76, 113
13, 163920, Note_on_c, 12, 56, 113
13, 163920, Note_on_c, 12, 40, 108
13, 163921, Note_on_c, 12, 88, 113
13, 163964, Note_off_c, 12, 76, 56
13, 163964, Note_off_c, 12, 59, 56
13, 163965, Note_off_c, 12, 56, 56
13, 163966, Note_off_c, 12, 88, 56
13, 163978, Note_on_c, 12, 88, 113
13, 163978, Note_on_c, 12, 59, 113
13, 163978, Note_on_c, 12, 56, 113
13, 163979, Note_on_c, 12, 76, 113
13, 163981, Note_off_c, 12, 40, 56
13, 164023, Note_off_c, 12, 56, 56
13, 164023, Note_off_c, 12, 59, 56
13, 164023, Note_off_c, 12, 88, 56
13, 164024, Note_off_c, 12, 76, 56
13, 164039, Note_on_c, 12, 76, 113
13, 164040, Note_on_c, 12, 59, 113
13, 164041, Note_on_c, 12, 88, 113
13, 164041, Note_on_c, 12, 35, 108
13, 164041, Note_on_c, 12, 56, 113
13, 164084, Note_off_c, 12, 76, 56
13, 164085, Note_off_c, 12, 59, 56
13, 164086, Note_off_c, 12, 56, 56
13, 164086, Note_off_c, 12, 88, 56
13, 164098, Note_on_c, 12, 88, 113
13, 164098, Note_on_c, 12, 59, 113
13, 164101, Note_on_c, 12, 76, 113
13, 164102, Note_on_c, 12, 56, 113
13, 164122, Note_off_c, 12, 35, 56
13, 164143, Note_off_c, 12, 59, 56
13, 164143, Note_off_c, 12, 88, 56
13, 164146, Note_off_c, 12, 76, 56
13, 164147, Note_off_c, 12, 56, 56
13, 164158, Note_on_c, 12, 59, 113
13, 164158, Note_on_c, 12, 88, 113
13, 164160, Note_on_c, 12, 40, 108
13, 164160, Note_on_c, 12, 76, 113
13, 164161, Note_on_c, 12, 56, 113
13, 164203, Note_off_c, 12, 88, 56
13, 164203, Note_off_c, 12, 59, 56
13, 164205, Note_off_c, 12, 76, 56
13, 164206, Note_off_c, 12, 56, 56
13, 164218, Note_on_c, 12, 76, 113
13, 164219, Note_on_c, 12, 56, 113
13, 164221, Note_off_c, 12, 40, 56
13, 164221, Note_on_c, 12, 88, 113
13, 164221, Note_on_c, 12, 59, 113
13, 164263, Note_off_c, 12, 76, 56
13, 164264, Note_off_c, 12, 56, 56
13, 164266, Note_off_c, 12, 59, 56
13, 164266, Note_off_c, 12, 88, 56
13, 164278, Note_on_c, 12, 56, 113
13, 164280, Note_on_c, 12, 76, 113
13, 164281, Note_on_c, 12, 35, 108
13, 164282, Note_on_c, 12, 88, 113
13, 164282, Note_on_c, 12, 59, 113
13, 164323, Note_off_c, 12, 56, 56
13, 164325, Note_off_c, 12, 76, 56
13, 164327, Note_off_c, 12, 59, 56
13, 164327, Note_off_c, 12, 88, 56
13, 164340, Note_on_c, 12, 76, 113
13, 164341, Note_on_c, 12, 88, 113
13, 164341, Note_on_c, 12, 59, 113
13, 164342, Note_off_c, 12, 35, 56
13, 164342, Note_on_c, 12, 56, 113
13, 164385, Note_off_c, 12, 76, 56
13, 164386, Note_off_c, 12, 59, 56
13, 164386, Note_off_c, 12, 88, 56
13, 164387, Note_off_c, 12, 56, 56
13, 164398, Note_on_c, 12, 59, 113
13, 164399, Note_on_c, 12, 44, 108
13, 164400, Note_on_c, 12, 88, 113
13, 164401, Note_on_c, 12, 76, 113
13, 164402, Note_on_c, 12, 56, 113
13, 164443, Note_off_c, 12, 59, 56
13, 164445, Note_off_c, 12, 88, 56
13, 164446, Note_off_c, 12, 76, 56
13, 164447, Note_off_c, 12, 56, 56
13, 164458, Note_on_c, 12, 59, 113
13, 164459, Note_on_c, 12, 56, 113
13, 164459, Note_on_c, 12, 76, 113
13, 164461, Note_on_c, 12, 88, 113
13, 164480, Note_off_c, 12, 44, 56
13, 164503, Note_off_c, 12, 59, 56
13, 164504, Note_off_c, 12, 76, 56
13, 164504, Note_off_c, 12, 56, 56
13, 164506, Note_off_c, 12, 88, 56
13, 164519, Note_on_c, 12, 40, 108
13, 164520, Note_on_c, 12, 59, 113
13, 164521, Note_on_c, 12, 76, 113
13, 164521, Note_on_c, 12, 56, 113
13, 164522, Note_on_c, 12, 88, 113
13, 164565, Note_off_c, 12, 59, 56
13, 164566, Note_off_c, 12, 56, 56
13, 164566, Note_off_c, 12, 76, 56
13, 164567, Note_off_c, 12, 88, 56
13, 164579, Note_on_c, 12, 56, 113
13, 164579, Note_on_c, 12, 59, 113
13, 164580, Note_on_c, 12, 76, 113
13, 164582, Note_on_c, 12, 88, 113
13, 164600, Note_off_c, 12, 40, 56
13, 164624, Note_off_c, 12, 59, 56
13, 164624, Note_off_c, 12, 56, 56
13, 164625, Note_off_c, 12, 76, 56
13, 164627, Note_off_c, 12, 88, 56
13, 164639, Note_on_c, 12, 59, 113
13, 164639, Note_on_c, 12, 76, 113
13, 164640, Note_on_c, 12, 88, 113
13, 164640, Note_on_c, 12, 44, 108
13, 164642, Note_on_c, 12, 56, 113
13, 164684, Note_off_c, 12, 76, 56
13, 164684, Note_off_c, 12, 59, 56
13, 164685, Note_off_c, 12, 88, 56
13, 164687, Note_off_c, 12, 56, 56
13, 164698, Note_on_c, 12, 56, 113
13, 164700, Note_on_c, 12, 88, 113
13, 164700, Note_on_c, 12, 76, 113
13, 164701, Note_off_c, 12, 44, 56
13, 164701, Note_on_c, 12, 59, 113
13, 164743, Note_off_c, 12, 56, 56
13, 164745, Note_off_c, 12, 76, 56
13, 164745, Note_off_c, 12, 88, 56
13, 164746, Note_off_c, 12, 59, 56
13, 164760, Note_on_c, 12, 88, 113
13, 164760, Note_on_c, 12, 59, 113
13, 164761, Note_on_c, 12, 76, 113
13, 164761, Note_on_c, 12, 40, 108
13, 164762, Note_on_c, 12, 56, 113
13, 164805, Note_off_c, 12, 59, 56
13, 164805, Note_off_c, 12, 88, 56
13, 164806, Note_off_c, 12, 76, 56
13, 164807, Note_off_c, 12, 56, 56
13, 164818, Note_on_c, 12, 88, 113
13, 164818, Note_on_c, 12, 56, 113
13, 164818, Note_on_c, 12, 59, 113
13, 164819, Note_on_c, 12, 76, 113
13, 164822, Note_off_c, 12, 40, 56
13, 164863, Note_off_c, 12, 59, 56
13, 164863, Note_off_c, 12, 56, 56
13, 164863, Note_off_c, 12, 88, 56
13, 164864, Note_off_c, 12, 76, 56
13, 164878, Note_on_c, 12, 59, 113
13, 164878, Note_on_c, 12, 56, 113
13, 164879, Note_on_c, 12, 76, 113
13, 164879, Note_on_c, 12, 47, 108
13, 164880, Note_on_c, 12, 88, 113
13, 164923, Note_off_c, 12, 56, 56
13, 164923, Note_off_c, 12, 59, 56
13, 164924, Note_off_c, 12, 76, 56
13, 164925, Note_off_c, 12, 88, 56
13, 164940, Note_on_c, 12, 56, 113
13, 164942, Note_on_c, 12, 88, 113
13, 164942, Note_on_c, 12, 59, 113
13, 164942, Note_on_c, 12, 76, 113
13, 164960, Note_off_c, 12, 47, 56
13, 164985, Note_off_c, 12, 56, 56
13, 164987, Note_off_c, 12, 76, 56
13, 164987, Note_off_c, 12, 59, 56
13, 164987, Note_off_c, 12, 88, 56
13, 164998, Note_on_c, 12, 56, 113
13, 164998, Note_on_c, 12, 76, 113
13, 164998, Note_on_c, 12, 59, 113
13, 164999, Note_on_c, 12, 88, 113
13, 164999, Note_on_c, 12, 44, 108
13, 165043, Note_off_c, 12, 59, 56
13, 165043, Note_off_c, 12, 76, 56
13, 165043, Note_off_c, 12, 56, 56
13, 165044, Note_off_c, 12, 88, 56
13, 165059, Note_on_c, 12, 59, 113
13, 165059, Note_on_c, 12, 56, 113
13, 165060, Note_on_c, 12, 76, 113
13, 165061, Note_on_c, 12, 88, 113
13, 165080, Note_off_c, 12, 44, 56
13, 165104, Note_off_c, 12, 56, 56
13, 165104, Note_off_c, 12, 59, 56
13, 165105, Note_off_c, 12, 76, 56
13, 165106, Note_off_c, 12, 88, 56
13, 165118, Note_on_c, 12, 59, 113
13, 165118, Note_on_c, 12, 88, 113
13, 165119, Note_on_c, 12, 56, 113
13, 165119, Note_on_c, 12, 52, 108
13, 165120, Note_on_c, 12, 76, 113
13, 165163, Note_off_c, 12, 88, 56
13, 165163, Note_off_c, 12, 59, 56
13, 165164, Note_off_c, 12, 56, 56
13, 165165, Note_off_c, 12, 76, 56
13, 165178, Note_on_c, 12, 59, 113
13, 165181, Note_on_c, 12, 56, 113
13, 165182, Note_on_c, 12, 88, 113
13, 165182, Note_on_c, 12, 76, 113
13, 165200, Note_off_c, 12, 52, 56
13, 165223, Note_off_c, 12, 59, 56
13, 165226, Note_off_c, 12, 56, 56
13, 165227, Note_off_c, 12, 76, 56
13, 165227, Note_off_c, 12, 88, 56
13, 165239, Note_on_c, 12, 59, 113
13, 165239, Note_on_c, 12, 47, 108
13, 165240, Note_on_c, 12, 88, 113
13, 165241, Note_on_c, 12, 76, 113
13, 165242, Note_on_c, 12, 56, 113
13, 165284, Note_off_c, 12, 59, 56
13, 165285, Note_off_c, 12, 88, 56
13, 165286, Note_off_c, 12, 76, 56
13, 165287, Note_off_c, 12, 56, 56
13, 165300, Note_off_c, 12, 47, 56
13, 165300, Note_on_c, 12, 88, 113
13, 165300, Note_on_c, 12, 76, 113
13, 165300, Note_on_c, 12, 59, 113
13, 165302, Note_on_c, 12, 56, 113
13, 165345, Note_off_c, 12, 59, 56
13, 165345, Note_off_c, 12, 76, 56
13, 165345, Note_off_c, 12, 88, 56
13, 165347, Note_off_c, 12, 56, 56
13, 165359, Note_on_c, 12, 56, 113
13, 165359, Note_on_c, 12, 44, 108
13, 165360, Note_on_c, 12, 59, 113
13, 165361, Note_on_c, 12, 76, 113
13, 165362, Note_on_c, 12, 88, 113
13, 165404, Note_off_c, 12, 56, 56
13, 165405, Note_off_c, 12, 59, 56
13, 165406, Note_off_c, 12, 76, 56
13, 165407, Note_off_c, 12, 88, 56
13, 165418, Note_on_c, 12, 88, 113
13, 165420, Note_off_c, 12, 44, 56
13, 165420, Note_on_c, 12, 59, 113
13, 165422, Note_on_c, 12, 56, 113
13, 165422, Note_on_c, 12, 76, 113
13, 165463, Note_off_c, 12, 88, 56
13, 165465, Note_off_c, 12, 59, 56
13, 165467, Note_off_c, 12, 76, 56
13, 165467, Note_off_c, 12, 56, 56
13, 165478, Note_on_c, 12, 56, 113
13, 165479, Note_on_c, 12, 76, 113
13, 165479, Note_on_c, 12, 47, 108
13, 165480, Note_on_c, 12, 88, 113
13, 165482, Note_on_c, 12, 59, 113
13, 165523, Note_off_c, 12, 56, 56
13, 165524, Note_off_c, 12, 76, 56
13, 165525, Note_off_c, 12, 88, 56
13, 165527, Note_off_c, 12, 59, 56
13, 165538, Note_on_c, 12, 56, 113
13, 165538, Note_on_c, 12, 59, 113
13, 165539, Note_on_c, 12, 88, 113
13, 165540, Note_off_c, 12, 47, 56
13, 165541, Note_on_c, 12, 76, 113
13, 165583, Note_off_c, 12, 59, 56
13, 165583, Note_off_c, 12, 56, 56
13, 165584, Note_off_c, 12, 88, 56
13, 165586, Note_off_c, 12, 76, 56
13, 165600, Note_on_c, 12, 76, 113
13, 165601, Note_on_c, 12, 59, 113
13, 165601, Note_on_c, 12, 40, 108
13, 165602, Note_on_c, 12, 88, 113
13, 165602, Note_on_c, 12, 56, 113
13, 165645, Note_off_c, 12, 76, 56
13, 165646, Note_off_c, 12, 59, 56
13, 165647, Note_off_c, 12, 56, 56
13, 165647, Note_off_c, 12, 88, 56
13, 165659, Note_on_c, 12, 76, 113
13, 165661, Note_on_c, 12, 88, 113
13, 165662, Note_off_c, 12, 40, 56
13, 165662, Note_on_c, 12, 56, 113
13, 165662, Note_on_c, 12, 59, 113
13, 165704, Note_off_c, 12, 76, 56
13, 165706, Note_off_c, 12, 88, 56
13, 165707, Note_off_c, 12, 59, 56
13, 165707, Note_off_c, 12, 56, 56
13, 165719, Note_on_c, 12, 56, 113
13, 165720, Note_on_c, 12, 59, 113
13, 165721, Note_on_c, 12, 44, 108
13, 165722, Note_on_c, 12, 88, 113
13, 165722, Note_on_c, 12, 76, 113
13, 165764, Note_off_c, 12, 56, 56
13, 165765, Note_off_c, 12, 59, 56
13, 165767, Note_off_c, 12, 76, 56
13, 165767, Note_off_c, 12, 88, 56
13, 165778, Note_on_c, 12, 59, 113
13, 165779, Note_on_c, 12, 76, 113
13, 165780, Note_on_c, 12, 88, 113
13, 165782, Note_off_c, 12, 44, 56
13, 165782, Note_on_c, 12, 56, 113
13, 165823, Note_off_c, 12, 59, 56
13, 165824, Note_off_c, 12, 76, 56
13, 165825, Note_off_c, 12, 88, 56
13, 165827, Note_off_c, 12, 56, 56
13, 165839, Note_on_c, 12, 88, 113
13, 165841, Note_on_c, 12, 59, 113
13, 165841, Note_on_c, 12, 38, 108
13, 165842, Note_on_c, 12, 76, 113
13, 165842, Note_on_c, 12, 56, 113
13, 165884, Note_off_c, 12, 88, 56
13, 165886, Note_off_c, 12, 59, 56
13, 165887, Note_off_c, 12, 56, 56
13, 165887, Note_off_c, 12, 76, 56
13, 165898, Note_on_c, 12, 56, 113
13, 165899, Note_on_c, 12, 76, 113
13, 165902, Note_off_c, 12, 38, 56
13, 165902, Note_on_c, 12, 88, 113
13, 165902, Note_on_c, 12, 59, 113
13, 165943, Note_off_c, 12, 56, 56
13, 165944, Note_off_c, 12, 76, 56
13, 165947, Note_off_c, 12, 59, 56
13, 165947, Note_off_c, 12, 88, 56
13, 165960, Note_on_c, 12, 56, 113
13, 165960, Note_on_c, 12, 40, 108
13, 165961, Note_on_c, 12, 88, 113
13, 165961, Note_on_c, 12, 76, 113
13, 165961, Note_on_c, 12, 59, 113
13, 166005, Note_off_c, 12, 56, 56
13, 166006, Note_off_c, 12, 59, 56
13, 166006, Note_off_c, 12, 76, 56
13, 166006, Note_off_c, 12, 88, 56
13, 166018, Note_on_c, 12, 76, 113
13, 166020, Note_on_c, 12, 88, 113
13, 166020, Note_on_c, 12, 59, 113
13, 166021, Note_off_c, 12, 40, 56
13, 166022, Note_on_c, 12, 56, 113
13, 166063, Note_off_c, 12, 76, 56
13, 166065, Note_off_c, 12, 59, 56
13, 166065, Note_off_c, 12, 88, 56
13, 166067, Note_off_c, 12, 56, 56
13, 166078, Note_on_c, 12, 59, 113
13, 166079, Note_on_c, 12, 76, 113
13, 166080, Note_on_c, 12, 35, 108
13, 166081, Note_on_c, 12, 88, 113
13, 166081, Note_on_c, 12, 56, 113
13, 166123, Note_off_c, 12, 59, 56
13, 166124, Note_off_c, 12, 76, 56
13, 166126, Note_off_c, 12, 56, 56
13, 166126, Note_off_c, 12, 88, 56
13, 166138, Note_on_c, 12, 88, 113
13, 166139, Note_on_c, 12, 56, 113
13, 166140, Note_on_c, 12, 59, 113
13, 166141, Note_off_c, 12, 35, 56
13, 166142, Note_on_c, 12, 76, 113
13, 166183, Note_off_c, 12, 88, 56
13, 166184, Note_off_c, 12, 56, 56
13, 166185, Note_off_c, 12, 59, 56
13, 166187, Note_off_c, 12, 76, 56
13, 166198, Note_on_c, 12, 59, 113
13, 166200, Note_on_c, 12, 88, 113
13, 166201, Note_on_c, 12, 56, 113
13, 166201, Note_on_c, 12, 38, 108
13, 166202, Note_on_c, 12, 76, 113
13, 166243, Note_off_c, 12, 59, 56
13, 166245, Note_off_c, 12, 88, 56
13, 166246, Note_off_c, 12, 56, 56
13, 166247, Note_off_c, 12, 76, 56
13, 166258, Note_on_c, 12, 88, 113
13, 166261, Note_on_c, 12, 59, 113
13, 166262, Note_off_c, 12, 38, 56
13, 166262, Note_on_c, 12, 76, 113
13, 166262, Note_on_c, 12, 56, 113
13, 166303, Note_off_c, 12, 88, 56
13, 166306, Note_off_c, 12, 59, 56
13, 166307, Note_off_c, 12, 56, 56
13, 166307, Note_off_c, 12, 76, 56
13, 166319, Note_on_c, 12, 88, 113
13, 166319, Note_on_c, 12, 56, 113
13, 166320, Note_on_c, 12, 76, 113
13, 166321, Note_on_c, 12, 32, 108
13, 166322, Note_on_c, 12, 59, 113
13, 166364, Note_off_c, 12, 56, 56
13, 166364, Note_off_c, 12, 88, 56
13, 166365, Note_off_c, 12, 76, 56
13, 166367, Note_off_c, 12, 59, 56
13, 166378, Note_on_c, 12, 88, 113
13, 166378, Note_on_c, 12, 59, 113
13, 166379, Note_on_c, 12, 56, 113
13, 166379, Note_on_c, 12, 76, 113
13, 166382, Note_off_c, 12, 32, 56
13, 166423, Note_off_c, 12, 59, 56
13, 166423, Note_off_c, 12, 88, 56
13, 166424, Note_off_c, 12, 76, 56
13, 166424, Note_off_c, 12, 56, 56
13, 166438, Note_on_c, 12, 76, 113
13, 166438, Note_on_c, 12, 56, 113
13, 166440, Note_on_c, 12, 35, 108
13, 166441, Note_on_c, 12, 88, 113
13, 166442, Note_on_c, 12, 59, 113
13, 166483, Note_off_c, 12, 56, 56
13, 166483, Note_off_c, 12, 76, 56
13, 166486, Note_off_c, 12, 88, 56
13, 166487, Note_off_c, 12, 59, 56
13, 166498, Note_on_c, 12, 76, 113
13, 166499, Note_on_c, 12, 88, 113
13, 166500, Note_on_c, 12, 56, 113
13, 166501, Note_off_c, 12, 35, 56
13, 166501, Note_on_c, 12, 59, 113
13, 166543, Note_off_c, 12, 76, 56
13, 166544, Note_off_c, 12, 88, 56
13, 166545, Note_off_c, 12, 56, 56
13, 166546, Note_off_c, 12, 59, 56
13, 166558, Note_on_c, 12, 88, 113
13, 166560, Note_on_c, 12, 76, 113
13, 166560, Note_on_c, 12, 59, 113
13, 166561, Note_on_c, 12, 56, 113
13, 166561, Note_on_c, 12, 28, 108
13, 166603, Note_off_c, 12, 88, 56
13, 166605, Note_off_c, 12, 59, 56
13, 166605, Note_off_c, 12, 76, 56
13, 166606, Note_off_c, 12, 56, 56
13, 166619, Note_on_c, 12, 88, 113
13, 166619, Note_on_c, 12, 76, 113
13, 166619, Note_on_c, 12, 62, 113
13, 166622, Note_on_c, 12, 59, 113
13, 166642, Note_off_c, 12, 28, 56
13, 166664, Note_off_c, 12, 62, 56
13, 166664, Note_off_c, 12, 76, 56
13, 166664, Note_off_c, 12, 88, 56
13, 166667, Note_off_c, 12, 59, 56
13, 166678, Note_on_c, 12, 62, 113
13, 166680, Note_on_c, 12, 59, 113
13, 166681, Note_on_c, 12, 88, 113
13, 166681, Note_on_c, 12, 40, 108
13, 166681, Note_on_c, 12, 76, 113
13, 166723, Note_off_c, 12, 62, 56
13, 166725, Note_off_c, 12, 59, 56
13, 166726, Note_off_c, 12, 76, 56
13, 166726, Note_off_c, 12, 88, 56
13, 166739, Note_on_c, 12, 88, 113
13, 166740, Note_on_c, 12, 76, 113
13, 166740, Note_on_c, 12, 59, 113
13, 166741, Note_on_c, 12, 62, 113
13, 166762, Note_off_c, 12, 40, 56
13, 166784, Note_off_c, 12, 88, 56
13, 166785, Note_off_c, 12, 59, 56
13, 166785, Note_off_c, 12, 76, 56
13, 166786, Note_off_c, 12, 62, 56
13, 166798, Note_on_c, 12, 62, 113
13, 166799, Note_on_c, 12, 88, 113
13, 166800, Note_on_c, 12, 76, 113
13, 166801, Note_on_c, 12, 59, 113
13, 166801, Note_on_c, 12, 40, 108
13, 166843, Note_off_c, 12, 62, 56
13, 166844, Note_off_c, 12, 88, 56
13, 166845, Note_off_c, 12, 76, 56
13, 166846, Note_off_c, 12, 59, 56
13, 166859, Note_on_c, 12, 76, 113
13, 166860, Note_on_c, 12, 88, 113
13, 166860, Note_on_c, 12, 62, 113
13, 166862, Note_on_c, 12, 59, 113
13, 166882, Note_off_c, 12, 40, 56
13, 166904, Note_off_c, 12, 76, 56
13, 166905, Note_off_c, 12, 62, 56
13, 166905, Note_off_c, 12, 88, 56
13, 166907, Note_off_c, 12, 59, 56
13, 166918, Note_on_c, 12, 88, 113
13, 166920, Note_on_c, 12, 62, 113
13, 166920, Note_on_c, 12, 40, 108
13, 166921, Note_on_c, 12, 76, 113
13, 166922, Note_on_c, 12, 59, 113
13, 166963, Note_off_c, 12, 88, 56
13, 166965, Note_off_c, 12, 62, 56
13, 166966, Note_off_c, 12, 76, 56
13, 166967, Note_off_c, 12, 59, 56
13, 166978, Note_on_c, 12, 59, 113
13, 166980, Note_on_c, 12, 88, 113
13, 166981, Note_on_c, 12, 62, 113
13, 166982, Note_on_c, 12, 76, 113
13, 167001, Note_off_c, 12, 40, 56
13, 167023, Note_off_c, 12, 59, 56
13, 167025, Note_off_c, 12, 88, 56
13, 167026, Note_off_c, 12, 62, 56
13, 167027, Note_off_c, 12, 76, 56
13, 167038, Note_on_c, 12, 88, 108
13, 167040, Note_on_c, 12, 33, 108
13, 167041, Note_on_c, 12, 57, 113
13, 167041, Note_on_c, 12, 76, 108
13, 167101, Note_off_c, 12, 57, 56
13, 167113, Note_on_c, 12, 61, 113
13, 167173, Note_off_c, 12, 61, 56
13, 167203, Note_off_c, 12, 33, 64
13, 167204, Note_on_c, 12, 61, 113
13, 167220, Note_off_c, 12, 88, 64
13, 167223, Note_off_c, 12, 76, 64
13, 167264, Note_off_c, 12, 61, 56
13, 167280, Note_on_c, 12, 73, 108
13, 167281, Note_on_c, 12, 57, 113
13, 167341, Note_off_c, 12, 57, 56
13, 167352, Note_off_c, 12, 73, 56
13, 167354, Note_on_c, 12, 74, 108
13, 167356, Note_on_c, 12, 61, 113
13, 167416, Note_off_c, 12, 61, 56
13, 167426, Note_off_c, 12, 74, 56
13, 167429, Note_on_c, 12, 61, 113
13, 167445, Note_on_c, 12, 76, 108
13, 167489, Note_off_c, 12, 61, 56
13, 167517, Note_off_c, 12, 76, 56
13, 167519, Note_on_c, 12, 78, 108
13, 167519, Note_on_c, 12, 57, 113
13, 167522, Note_on_c, 12, 33, 108
13, 167579, Note_off_c, 12, 57, 56
13, 167595, Note_on_c, 12, 62, 113
13, 167655, Note_off_c, 12, 62, 56
13, 167685, Note_off_c, 12, 33, 64
13, 167687, Note_on_c, 12, 62, 113
13, 167701, Note_off_c, 12, 78, 64
13, 167747, Note_off_c, 12, 62, 56
13, 167758, Note_on_c, 12, 57, 113
13, 167761, Note_on_c, 12, 78, 108
13, 167818, Note_off_c, 12, 57, 56
13, 167833, Note_off_c, 12, 78, 56
13, 167833, Note_on_c, 12, 80, 108
13, 167835, Note_on_c, 12, 62, 113
13, 167895, Note_off_c, 12, 62, 56
13, 167905, Note_off_c, 12, 80, 56
13, 167923, Note_on_c, 12, 62, 113
13, 167924, Note_on_c, 12, 81, 113
13, 167983, Note_off_c, 12, 62, 56
13, 167984, Note_off_c, 12, 81, 56
13, 167998, Note_on_c, 12, 57, 108
13, 167998, Note_on_c, 12, 76, 108
13, 167999, Note_on_c, 12, 33, 108
13, 168066, Note_off_c, 12, 57, 56
13, 168076, Note_on_c, 12, 61, 108
13, 168144, Note_off_c, 12, 61, 56
13, 168148, Note_on_c, 12, 61, 108
13, 168183, Note_off_c, 12, 33, 64
13, 168216, Note_off_c, 12, 61, 56
13, 168239, Note_on_c, 12, 61, 108
13, 168239, Note_on_c, 12, 40, 108
13, 168303, Note_off_c, 12, 40, 56
13, 168307, Note_off_c, 12, 61, 56
13, 168316, Note_on_c, 12, 61, 108
13, 168320, Note_on_c, 12, 42, 108
13, 168384, Note_off_c, 12, 42, 56
13, 168384, Note_off_c, 12, 61, 56
13, 168400, Note_on_c, 12, 44, 108
13, 168406, Note_on_c, 12, 61, 108
13, 168464, Note_off_c, 12, 44, 56
13, 168474, Note_off_c, 12, 61, 56
13, 168480, Note_on_c, 12, 61, 108
13, 168482, Note_on_c, 12, 45, 108
13, 168646, Note_off_c, 12, 76, 64
13, 168666, Note_off_c, 12, 45, 64
13, 168685, Note_off_c, 12, 61, 64
13, 168721, Note_on_c, 12, 57, 73
13, 168721, Note_on_c, 12, 45, 73
13, 168722, Note_on_c, 12, 76, 73
13, 168793, Note_on_c, 12, 74, 73
13, 168794, Note_off_c, 12, 76, 56
13, 168865, Note_off_c, 12, 74, 56
13, 168885, Note_on_c, 12, 73, 73
13, 168905, Note_off_c, 12, 45, 64
13, 168937, Note_off_c, 12, 57, 64
13, 168957, Note_off_c, 12, 73, 56
13, 168960, Note_on_c, 12, 56, 73
13, 168961, Note_on_c, 12, 71, 73
13, 169178, Note_off_c, 12, 71, 64
13, 169201, Note_on_c, 12, 74, 73
13, 169273, Note_off_c, 12, 74, 56
13, 169277, Note_on_c, 12, 73, 73
13, 169349, Note_off_c, 12, 73, 56
13, 169364, Note_on_c, 12, 71, 73
13, 169416, Note_off_c, 12, 56, 64
13, 169436, Note_off_c, 12, 71, 56
13, 169439, Note_on_c, 12, 69, 73
13, 169440, Note_on_c, 12, 57, 73
13, 169655, Note_off_c, 12, 69, 64
13, 169680, Note_on_c, 12, 73, 73
13, 169752, Note_off_c, 12, 73, 56
13, 169754, Note_on_c, 12, 71, 73
13, 169826, Note_off_c, 12, 71, 56
13, 169831, Note_on_c, 12, 69, 73
13, 169896, Note_off_c, 12, 57, 64
13, 169903, Note_off_c, 12, 69, 56
13, 169918, Note_on_c, 12, 68, 73
13, 169921, Note_on_c, 12, 59, 73
13, 170054, Note_off_c, 12, 68, 64
13, 170159, Note_on_c, 12, 68, 73
13, 170231, Note_off_c, 12, 68, 56
13, 170234, Note_on_c, 12, 69, 73
13, 170306, Note_off_c, 12, 69, 56
13, 170326, Note_on_c, 12, 71, 73
13, 170398, Note_off_c, 12, 71, 56
13, 170402, Note_on_c, 12, 64, 73
13, 170569, Note_off_c, 12, 59, 64
13, 170618, Note_off_c, 12, 64, 64
13, 170638, Note_on_c, 12, 57, 73
13, 170641, Note_on_c, 12, 76, 73
13, 170713, Note_off_c, 12, 76, 56
13, 170715, Note_on_c, 12, 74, 73
13, 170787, Note_off_c, 12, 74, 56
13, 170804, Note_on_c, 12, 72, 73
13, 170854, Note_off_c, 12, 57, 64
13, 170876, Note_off_c, 12, 72, 56
13, 170878, Note_on_c, 12, 71, 73
13, 170882, Note_on_c, 12, 56, 73
13, 171095, Note_off_c, 12, 71, 64
13, 171120, Note_on_c, 12, 74, 73
13, 171192, Note_off_c, 12, 74, 56
13, 171195, Note_on_c, 12, 72, 73
13, 171267, Note_off_c, 12, 72, 56
13, 171268, Note_on_c, 12, 71, 73
13, 171338, Note_off_c, 12, 56, 64
13, 171340, Note_off_c, 12, 71, 56
13, 171358, Note_on_c, 12, 57, 73
13, 171360, Note_on_c, 12, 69, 73
13, 171576, Note_off_c, 12, 69, 64
13, 171598, Note_on_c, 12, 72, 73
13, 171670, Note_off_c, 12, 72, 56
13, 171677, Note_on_c, 12, 71, 73
13, 171749, Note_off_c, 12, 71, 56
13, 171766, Note_on_c, 12, 69, 73
13, 171814, Note_off_c, 12, 57, 64
13, 171838, Note_off_c, 12, 69, 56
13, 171838, Note_on_c, 12, 59, 73
13, 171841, Note_on_c, 12, 68, 73
13, 171977, Note_off_c, 12, 68, 64
13, 172080, Note_on_c, 12, 68, 73
13, 172152, Note_off_c, 12, 68, 56
13, 172154, Note_on_c, 12, 69, 73
13, 172226, Note_off_c, 12, 69, 56
13, 172229, Note_on_c, 12, 71, 73
13, 172301, Note_off_c, 12, 71, 56
13, 172318, Note_on_c, 12, 64, 73
13, 172486, Note_off_c, 12, 59, 64
13, 172523, Note_off_c, 12, 64, 64
13, 172558, Note_on_c, 12, 60, 73
13, 172560, Note_on_c, 12, 48, 73
13, 172694, Note_off_c, 12, 60, 64
13, 172696, Note_off_c, 12, 48, 64
13, 172798, Note_on_c, 12, 64, 73
13, 172802, Note_on_c, 12, 55, 73
13, 173254, Note_off_c, 12, 64, 64
13, 173258, Note_off_c, 12, 55, 64
13, 173278, Note_on_c, 12, 53, 73
13, 173281, Note_on_c, 12, 65, 73
13, 173734, Note_off_c, 12, 53, 64
13, 173737, Note_off_c, 12, 65, 64
13, 173758, Note_on_c, 12, 52, 73
13, 173761, Note_on_c, 12, 67, 73
13, 174406, Note_off_c, 12, 52, 64
13, 174409, Note_off_c, 12, 67, 64
13, 174479, Note_on_c, 12, 65, 73
13, 174479, Note_on_c, 12, 53, 73
13, 174615, Note_off_c, 12, 53, 64
13, 174615, Note_off_c, 12, 65, 64
13, 174718, Note_on_c, 12, 64, 73
13, 174721, Note_on_c, 12, 55, 73
13, 175174, Note_off_c, 12, 64, 64
13, 175177, Note_off_c, 12, 55, 64
13, 175199, Note_on_c, 12, 65, 73
13, 175200, Note_on_c, 12, 53, 73
13, 175655, Note_off_c, 12, 65, 64
13, 175656, Note_off_c, 12, 53, 64
13, 175678, Note_on_c, 12, 52, 73
13, 175680, Note_on_c, 12, 67, 73
13, 175883, Note_off_c, 12, 52, 64
13, 175885, Note_off_c, 12, 67, 64
13, 176879, Note_on_c, 12, 69, 73
13, 176951, Note_off_c, 12, 69, 56
13, 176956, Note_on_c, 12, 71, 73
13, 177028, Note_off_c, 12, 71, 56
13, 177032, Note_on_c, 12, 73, 73
13, 177104, Note_off_c, 12, 73, 56
13, 177119, Note_on_c, 12, 74, 73
13, 177324, Note_off_c, 12, 74, 64
13, 177840, Note_on_c, 12, 57, 73
13, 177912, Note_off_c, 12, 57, 56
13, 177913, Note_on_c, 12, 58, 73
13, 177985, Note_off_c, 12, 58, 56
13, 178006, Note_on_c, 12, 60, 73
13, 178078, Note_off_c, 12, 60, 56
13, 178081, Note_on_c, 12, 62, 73
13, 178217, Note_off_c, 12, 62, 64
13, 178319, Note_on_c, 12, 71, 73
13, 178319, Note_on_c, 12, 62, 73
13, 178535, Note_off_c, 12, 62, 64
13, 178535, Note_off_c, 12, 71, 64
13, 178559, Note_on_c, 12, 64, 73
13, 178559, Note_on_c, 12, 72, 73
13, 178775, Note_off_c, 12, 72, 64
13, 178775, Note_off_c, 12, 64, 64
13, 178799, Note_on_c, 12, 74, 73
13, 178800, Note_on_c, 12, 65, 73
13, 179015, Note_off_c, 12, 74, 64
13, 179016, Note_off_c, 12, 65, 64
13, 179038, Note_on_c, 12, 75, 73
13, 179040, Note_on_c, 12, 67, 73
13, 179245, Note_off_c, 12, 67, 64
13, 179254, Note_off_c, 12, 75, 64
13, 179280, Note_on_c, 12, 67, 73
13, 179282, Note_on_c, 12, 76, 73
13, 179496, Note_off_c, 12, 67, 64
13, 179498, Note_off_c, 12, 76, 64
13, 179520, Note_on_c, 12, 77, 73
13, 179522, Note_on_c, 12, 60, 73
13, 179725, Note_off_c, 12, 77, 64
13, 179727, Note_off_c, 12, 60, 64
13, 180720, Note_on_c, 12, 69, 73
13, 180792, Note_off_c, 12, 69, 56
13, 180793, Note_on_c, 12, 72, 73
13, 180865, Note_off_c, 12, 72, 56
13, 180883, Note_on_c, 12, 74, 73
13, 180955, Note_off_c, 12, 74, 56
13, 180962, Note_on_c, 12, 76, 73
13, 181167, Note_off_c, 12, 76, 64
13, 181682, Note_on_c, 12, 59, 73
13, 181753, Note_on_c, 12, 60, 73
13, 181754, Note_off_c, 12, 59, 56
13, 181825, Note_off_c, 12, 60, 56
13, 181846, Note_on_c, 12, 62, 73
13, 181918, Note_off_c, 12, 62, 56
13, 181919, Note_on_c, 12, 64, 73
13, 182055, Note_off_c, 12, 64, 64
13, 182158, Note_on_c, 12, 61, 75
13, 182158, Note_on_c, 12, 55, 74
13, 182374, Note_off_c, 12, 55, 64
13, 182374, Note_off_c, 12, 61, 64
13, 182399, Note_on_c, 12, 53, 79
13, 182400, Note_on_c, 12, 62, 80
13, 182604, Note_off_c, 12, 53, 64
13, 182616, Note_off_c, 12, 62, 64
13, 182638, Note_on_c, 12, 63, 85
13, 182641, Note_on_c, 12, 51, 82
13, 182713, Note_off_c, 12, 51, 56
13, 182714, Note_on_c, 12, 53, 83
13, 182786, Note_off_c, 12, 53, 56
13, 182807, Note_on_c, 12, 54, 85
13, 182854, Note_off_c, 12, 63, 64
13, 182878, Note_on_c, 12, 50, 87
13, 182878, Note_on_c, 12, 65, 89
13, 182879, Note_off_c, 12, 54, 56
13, 183014, Note_off_c, 12, 50, 64
13, 183083, Note_off_c, 12, 65, 64
13, 183118, Note_on_c, 12, 34, 90
13, 183119, Note_on_c, 12, 77, 90
13, 183191, Note_off_c, 12, 77, 56
13, 183194, Note_on_c, 12, 75, 90
13, 183266, Note_off_c, 12, 75, 56
13, 183285, Note_on_c, 12, 74, 90
13, 183302, Note_off_c, 12, 34, 64
13, 183357, Note_off_c, 12, 74, 56
13, 183357, Note_on_c, 12, 33, 90
13, 183361, Note_on_c, 12, 72, 90
13, 183577, Note_off_c, 12, 72, 64
13, 183599, Note_on_c, 12, 48, 95
13, 183600, Note_on_c, 12, 75, 90
13, 183659, Note_off_c, 12, 48, 56
13, 183672, Note_off_c, 12, 75, 56
13, 183673, Note_on_c, 12, 48, 95
13, 183675, Note_on_c, 12, 74, 90
13, 183733, Note_off_c, 12, 48, 56
13, 183745, Note_off_c, 12, 33, 64
13, 183747, Note_off_c, 12, 74, 56
13, 183748, Note_on_c, 12, 48, 95
13, 183749, Note_on_c, 12, 72, 90
13, 183808, Note_off_c, 12, 48, 56
13, 183821, Note_off_c, 12, 72, 56
13, 183839, Note_on_c, 12, 70, 90
13, 183840, Note_on_c, 12, 34, 90
13, 184055, Note_off_c, 12, 70, 64
13, 184079, Note_on_c, 12, 50, 95
13, 184080, Note_on_c, 12, 74, 90
13, 184139, Note_off_c, 12, 50, 56
13, 184152, Note_off_c, 12, 74, 56
13, 184154, Note_on_c, 12, 72, 90
13, 184156, Note_on_c, 12, 50, 95
13, 184216, Note_off_c, 12, 50, 56
13, 184226, Note_off_c, 12, 72, 56
13, 184228, Note_off_c, 12, 34, 64
13, 184232, Note_on_c, 12, 70, 90
13, 184243, Note_on_c, 12, 50, 95
13, 184303, Note_off_c, 12, 50, 56
13, 184304, Note_off_c, 12, 70, 56
13, 184318, Note_on_c, 12, 69, 90
13, 184321, Note_on_c, 12, 36, 90
13, 184321, Note_on_c, 12, 51, 90
13, 184523, Note_off_c, 12, 69, 64
13, 184526, Note_off_c, 12, 51, 64
13, 184558, Note_on_c, 12, 81, 95
13, 184618, Note_off_c, 12, 81, 56
13, 184633, Note_on_c, 12, 82, 95
13, 184693, Note_off_c, 12, 82, 56
13, 184727, Note_on_c, 12, 84, 95
13, 184787, Note_off_c, 12, 84, 56
13, 184802, Note_on_c, 12, 77, 90
13, 185007, Note_off_c, 12, 77, 64
13, 185520, Note_on_c, 12, 57, 95
13, 185580, Note_off_c, 12, 57, 56
13, 185595, Note_on_c, 12, 58, 95
13, 185655, Note_off_c, 12, 58, 56
13, 185686, Note_on_c, 12, 60, 95
13, 185746, Note_off_c, 12, 60, 56
13, 185759, Note_on_c, 12, 53, 90
13, 185929, Note_off_c, 12, 36, 64
13, 185941, Note_off_c, 12, 53, 64
13, 185998, Note_on_c, 12, 78, 90
13, 185999, Note_on_c, 12, 36, 90
13, 186070, Note_off_c, 12, 78, 56
13, 186073, Note_on_c, 12, 77, 90
13, 186145, Note_off_c, 12, 77, 56
13, 186152, Note_on_c, 12, 75, 90
13, 186183, Note_off_c, 12, 36, 64
13, 186224, Note_off_c, 12, 75, 56
13, 186240, Note_on_c, 12, 34, 90
13, 186242, Note_on_c, 12, 73, 90
13, 186458, Note_off_c, 12, 73, 64
13, 186481, Note_on_c, 12, 77, 90
13, 186482, Note_on_c, 12, 49, 95
13, 186542, Note_off_c, 12, 49, 56
13, 186553, Note_off_c, 12, 77, 56
13, 186555, Note_on_c, 12, 49, 95
13, 186556, Note_on_c, 12, 75, 90
13, 186615, Note_off_c, 12, 49, 56
13, 186628, Note_off_c, 12, 75, 56
13, 186628, Note_off_c, 12, 34, 64
13, 186629, Note_on_c, 12, 73, 90
13, 186643, Note_on_c, 12, 49, 95
13, 186701, Note_off_c, 12, 73, 56
13, 186703, Note_off_c, 12, 49, 56
13, 186719, Note_on_c, 12, 72, 90
13, 186722, Note_on_c, 12, 36, 90
13, 186935, Note_off_c, 12, 72, 64
13, 186962, Note_on_c, 12, 75, 90
13, 186962, Note_on_c, 12, 51, 95
13, 187022, Note_off_c, 12, 51, 56
13, 187033, Note_on_c, 12, 73, 90
13, 187034, Note_off_c, 12, 75, 56
13, 187036, Note_on_c, 12, 51, 95
13, 187096, Note_off_c, 12, 51, 56
13, 187105, Note_off_c, 12, 73, 56
13, 187110, Note_off_c, 12, 36, 64
13, 187110, Note_on_c, 12, 51, 95
13, 187126, Note_on_c, 12, 72, 90
13, 187170, Note_off_c, 12, 51, 56
13, 187198, Note_off_c, 12, 72, 56
13, 187198, Note_on_c, 12, 70, 90
13, 187199, Note_on_c, 12, 53, 90
13, 187202, Note_on_c, 12, 37, 90
13, 187403, Note_off_c, 12, 70, 64
13, 187404, Note_off_c, 12, 53, 64
13, 187440, Note_on_c, 12, 82, 95
13, 187500, Note_off_c, 12, 82, 56
13, 187516, Note_on_c, 12, 84, 95
13, 187576, Note_off_c, 12, 84, 56
13, 187606, Note_on_c, 12, 85, 95
13, 187666, Note_off_c, 12, 85, 56
13, 187681, Note_on_c, 12, 77, 90
13, 187886, Note_off_c, 12, 77, 64
13, 188398, Note_on_c, 12, 61, 95
13, 188458, Note_off_c, 12, 61, 56
13, 188477, Note_on_c, 12, 63, 95
13, 188537, Note_off_c, 12, 63, 56
13, 188549, Note_on_c, 12, 65, 95
13, 188609, Note_off_c, 12, 65, 56
13, 188642, Note_on_c, 12, 58, 90
13, 188810, Note_off_c, 12, 37, 64
13, 188847, Note_off_c, 12, 58, 64
13, 190079, Note_on_c, 12, 48, 90
13, 190079, Note_on_c, 12, 80, 90
13, 190081, Note_on_c, 12, 60, 90
13, 190082, Note_on_c, 12, 36, 90
13, 190284, Note_off_c, 12, 80, 64
13, 190322, Note_on_c, 12, 84, 95
13, 190382, Note_off_c, 12, 84, 56
13, 190394, Note_on_c, 12, 85, 95
13, 190454, Note_off_c, 12, 85, 56
13, 190470, Note_on_c, 12, 87, 95
13, 190530, Note_off_c, 12, 87, 56
13, 190562, Note_on_c, 12, 80, 90
13, 190767, Note_off_c, 12, 80, 64
13, 191255, Note_off_c, 12, 48, 64
13, 191257, Note_off_c, 12, 60, 64
13, 191279, Note_on_c, 12, 60, 95
13, 191339, Note_off_c, 12, 60, 56
13, 191356, Note_on_c, 12, 61, 95
13, 191416, Note_off_c, 12, 61, 56
13, 191443, Note_on_c, 12, 63, 95
13, 191503, Note_off_c, 12, 63, 56
13, 191521, Note_on_c, 12, 56, 90
13, 191690, Note_off_c, 12, 36, 64
13, 191726, Note_off_c, 12, 56, 64
13, 191758, Note_on_c, 12, 68, 90
13, 191762, Note_on_c, 12, 56, 90
13, 192958, Note_on_c, 12, 38, 90
13, 193176, Note_off_c, 12, 68, 64
13, 193198, Note_on_c, 12, 83, 95
13, 193258, Note_off_c, 12, 83, 56
13, 193277, Note_on_c, 12, 84, 95
13, 193337, Note_off_c, 12, 84, 56
13, 193364, Note_on_c, 12, 86, 95
13, 193424, Note_off_c, 12, 86, 56
13, 193441, Note_on_c, 12, 77, 90
13, 193646, Note_off_c, 12, 77, 64
13, 194138, Note_off_c, 12, 56, 64
13, 194159, Note_on_c, 12, 62, 95
13, 194219, Note_off_c, 12, 62, 56
13, 194235, Note_on_c, 12, 63, 95
13, 194295, Note_off_c, 12, 63, 56
13, 194311, Note_on_c, 12, 65, 95
13, 194371, Note_off_c, 12, 65, 56
13, 194401, Note_on_c, 12, 59, 90
13, 194566, Note_off_c, 12, 38, 64
13, 194606, Note_off_c, 12, 59, 64
13, 194639, Note_on_c, 12, 77, 90
13, 194641, Note_on_c, 12, 37, 90
13, 194775, Note_off_c, 12, 77, 64
13, 194825, Note_off_c, 12, 37, 64
13, 194879, Note_on_c, 12, 37, 90
13, 194880, Note_on_c, 12, 75, 90
13, 195168, Note_off_c, 12, 75, 64
13, 195361, Note_on_c, 12, 77, 90
13, 195649, Note_off_c, 12, 77, 64
13, 195743, Note_off_c, 12, 37, 64
13, 195837, Note_on_c, 12, 36, 90
13, 195839, Note_on_c, 12, 79, 90
13, 196561, Note_on_c, 12, 53, 90
13, 196697, Note_off_c, 12, 53, 64
13, 196802, Note_on_c, 12, 52, 90
13, 197090, Note_off_c, 12, 52, 64
13, 197280, Note_on_c, 12, 53, 90
13, 197453, Note_off_c, 12, 79, 64
13, 197520, Note_on_c, 12, 77, 90
13, 197568, Note_off_c, 12, 53, 64
13, 197656, Note_off_c, 12, 77, 64
13, 197760, Note_on_c, 12, 75, 90
13, 197761, Note_on_c, 12, 55, 90
13, 197897, Note_off_c, 12, 55, 64
13, 197973, Note_off_c, 12, 36, 64
13, 198001, Note_on_c, 12, 49, 90
13, 198001, Note_on_c, 12, 37, 90
13, 198123, Note_off_c, 12, 37, 64
13, 198137, Note_off_c, 12, 49, 64
13, 198239, Note_on_c, 12, 48, 92
13, 198241, Note_on_c, 12, 36, 92
13, 198408, Note_off_c, 12, 75, 64
13, 198478, Note_on_c, 12, 79, 92
13, 198614, Note_off_c, 12, 79, 64
13, 198718, Note_on_c, 12, 77, 92
13, 198867, Note_off_c, 12, 36, 64
13, 198935, Note_off_c, 12, 48, 64
13, 198961, Note_on_c, 12, 55, 93
13, 198961, Note_on_c, 12, 31, 93
13, 199083, Note_off_c, 12, 31, 64
13, 199097, Note_off_c, 12, 55, 64
13, 199199, Note_on_c, 12, 53, 93
13, 199199, Note_on_c, 12, 29, 93
13, 199366, Note_off_c, 12, 77, 64
13, 199438, Note_on_c, 12, 80, 94
13, 199574, Note_off_c, 12, 80, 64
13, 199682, Note_on_c, 12, 79, 94
13, 199825, Note_off_c, 12, 29, 64
13, 199895, Note_off_c, 12, 53, 64
13, 199918, Note_on_c, 12, 53, 94
13, 199919, Note_on_c, 12, 41, 94
13, 200041, Note_off_c, 12, 41, 64
13, 200054, Note_off_c, 12, 53, 64
13, 200159, Note_on_c, 12, 51, 95
13, 200161, Note_on_c, 12, 39, 95
13, 200330, Note_off_c, 12, 79, 64
13, 200401, Note_on_c, 12, 82, 95
13, 200537, Note_off_c, 12, 82, 64
13, 200641, Note_on_c, 12, 80, 95
13, 200787, Note_off_c, 12, 39, 64
13, 200855, Note_off_c, 12, 51, 64
13, 200880, Note_on_c, 12, 58, 96
13, 200882, Note_on_c, 12, 34, 96
13, 201004, Note_off_c, 12, 34, 64
13, 201016, Note_off_c, 12, 58, 64
13, 201122, Note_on_c, 12, 56, 96
13, 201123, Note_on_c, 12, 32, 96
13, 201289, Note_off_c, 12, 80, 64
13, 201362, Note_on_c, 12, 84, 97
13, 201498, Note_off_c, 12, 84, 64
13, 201599, Note_on_c, 12, 83, 97
13, 201749, Note_off_c, 12, 32, 64
13, 201818, Note_off_c, 12, 56, 64
13, 201841, Note_on_c, 12, 56, 97
13, 201842, Note_on_c, 12, 44, 97
13, 201964, Note_off_c, 12, 44, 64
13, 201977, Note_off_c, 12, 56, 64
13, 202078, Note_on_c, 12, 55, 98
13, 202083, Note_on_c, 12, 43, 98
13, 202247, Note_off_c, 12, 83, 64
13, 202318, Note_on_c, 12, 86, 98
13, 202454, Note_off_c, 12, 86, 64
13, 202510, Note_off_c, 12, 55, 64
13, 202559, Note_on_c, 12, 55, 98
13, 202562, Note_on_c, 12, 84, 98
13, 202709, Note_off_c, 12, 43, 64
13, 202764, Note_off_c, 12, 55, 64
13, 202799, Note_on_c, 12, 38, 100
13, 202800, Note_on_c, 12, 50, 100
13, 202921, Note_off_c, 12, 38, 64
13, 202936, Note_off_c, 12, 50, 64
13, 203038, Note_on_c, 12, 36, 100
13, 203039, Note_on_c, 12, 48, 100
13, 203210, Note_off_c, 12, 84, 64
13, 203280, Note_on_c, 12, 87, 101
13, 203416, Note_off_c, 12, 87, 64
13, 203471, Note_off_c, 12, 48, 64
13, 203522, Note_on_c, 12, 48, 101
13, 203522, Note_on_c, 12, 86, 101
13, 203664, Note_off_c, 12, 36, 64
13, 203727, Note_off_c, 12, 48, 64
13, 203759, Note_on_c, 12, 60, 101
13, 203761, Note_on_c, 12, 48, 101
13, 203883, Note_off_c, 12, 48, 64
13, 203895, Note_off_c, 12, 60, 64
13, 203998, Note_on_c, 12, 58, 102
13, 204000, Note_on_c, 12, 46, 102
13, 204170, Note_off_c, 12, 86, 64
13, 204240, Note_on_c, 12, 89, 102
13, 204376, Note_off_c, 12, 89, 64
13, 204430, Note_off_c, 12, 58, 64
13, 204480, Note_on_c, 12, 87, 102
13, 204481, Note_on_c, 12, 58, 102
13, 204626, Note_off_c, 12, 46, 64
13, 204686, Note_off_c, 12, 58, 64
13, 204720, Note_on_c, 12, 53, 103
13, 204722, Note_on_c, 12, 41, 103
13, 204844, Note_off_c, 12, 41, 64
13, 204856, Note_off_c, 12, 53, 64
13, 204958, Note_on_c, 12, 51, 103
13, 204958, Note_on_c, 12, 39, 103
13, 205080, Note_off_c, 12, 39, 64
13, 205094, Note_off_c, 12, 51, 64
13, 205128, Note_off_c, 12, 87, 64
13, 205200, Note_on_c, 12, 91, 104
13, 205201, Note_on_c, 12, 51, 104
13, 205202, Note_on_c, 12, 63, 104
13, 205323, Note_off_c, 12, 51, 64
13, 205336, Note_off_c, 12, 91, 64
13, 205338, Note_off_c, 12, 63, 64
13, 205438, Note_on_c, 12, 90, 109
13, 205439, Note_on_c, 12, 62, 109
13, 205440, Note_on_c, 12, 50, 109
13, 205442, Note_on_c, 12, 72, 109
13, 205494, Note_off_c, 12, 50, 56
13, 205498, Note_off_c, 12, 90, 56
13, 205499, Note_off_c, 12, 62, 56
13, 205502, Note_off_c, 12, 72, 56
13, 205514, Note_on_c, 12, 72, 109
13, 205517, Note_on_c, 12, 90, 109
13, 205517, Note_on_c, 12, 62, 109
13, 205519, Note_on_c, 12, 50, 109
13, 205573, Note_off_c, 12, 50, 56
13, 205574, Note_off_c, 12, 72, 56
13, 205577, Note_off_c, 12, 62, 56
13, 205577, Note_off_c, 12, 90, 56
13, 205591, Note_on_c, 12, 90, 109
13, 205600, Note_on_c, 12, 50, 109
13, 205603, Note_on_c, 12, 62, 109
13, 205606, Note_on_c, 12, 72, 109
13, 205651, Note_off_c, 12, 90, 56
13, 205654, Note_off_c, 12, 50, 56
13, 205663, Note_off_c, 12, 62, 56
13, 205666, Note_off_c, 12, 72, 56
13, 205679, Note_on_c, 12, 72, 109
13, 205680, Note_on_c, 12, 50, 109
13, 205681, Note_on_c, 12, 62, 109
13, 205682, Note_on_c, 12, 90, 109
13, 205734, Note_off_c, 12, 50, 56
13, 205739, Note_off_c, 12, 72, 56
13, 205741, Note_off_c, 12, 62, 56
13, 205742, Note_off_c, 12, 90, 56
13, 205754, Note_on_c, 12, 90, 109
13, 205754, Note_on_c, 12, 72, 109
13, 205756, Note_on_c, 12, 62, 109
13, 205760, Note_on_c, 12, 50, 109
13, 205814, Note_off_c, 12, 50, 56
13, 205814, Note_off_c, 12, 72, 56
13, 205814, Note_off_c, 12, 90, 56
13, 205816, Note_off_c, 12, 62, 56
13, 205832, Note_on_c, 12, 90, 110
13, 205840, Note_on_c, 12, 50, 110
13, 205843, Note_on_c, 12, 62, 110
13, 205846, Note_on_c, 12, 72, 110
13, 205892, Note_off_c, 12, 90, 56
13, 205894, Note_off_c, 12, 50, 56
13, 205903, Note_off_c, 12, 62, 56
13, 205906, Note_off_c, 12, 72, 56
13, 205919, Note_on_c, 12, 72, 110
13, 205920, Note_on_c, 12, 50, 110
13, 205922, Note_on_c, 12, 90, 110
13, 205922, Note_on_c, 12, 62, 110
13, 205974, Note_off_c, 12, 50, 56
13, 205979, Note_off_c, 12, 72, 56
13, 205982, Note_off_c, 12, 62, 56
13, 205982, Note_off_c, 12, 90, 56
13, 205993, Note_on_c, 12, 62, 110
13, 205994, Note_on_c, 12, 72, 110
13, 205995, Note_on_c, 12, 90, 110
13, 206000, Note_on_c, 12, 50, 110
13, 206053, Note_off_c, 12, 62, 56
13, 206054, Note_off_c, 12, 50, 56
13, 206054, Note_off_c, 12, 72, 56
13, 206055, Note_off_c, 12, 90, 56
13, 206069, Note_on_c, 12, 72, 110
13, 206070, Note_on_c, 12, 62, 110
13, 206081, Note_on_c, 12, 50, 110
13, 206083, Note_on_c, 12, 90, 110
13, 206129, Note_off_c, 12, 72, 56
13, 206130, Note_off_c, 12, 62, 56
13, 206135, Note_off_c, 12, 50, 56
13, 206143, Note_off_c, 12, 90, 56
13, 206161, Note_on_c, 12, 90, 110
13, 206161, Note_on_c, 12, 50, 110
13, 206161, Note_on_c, 12, 62, 110
13, 206162, Note_on_c, 12, 72, 110
13, 206215, Note_off_c, 12, 50, 56
13, 206221, Note_off_c, 12, 62, 56
13, 206221, Note_off_c, 12, 90, 56
13, 206222, Note_off_c, 12, 72, 56
13, 206233, Note_on_c, 12, 62, 110
13, 206235, Note_on_c, 12, 72, 110
13, 206236, Note_on_c, 12, 90, 110
13, 206241, Note_on_c, 12, 50, 110
13, 206293, Note_off_c, 12, 62, 56
13, 206295, Note_off_c, 12, 50, 56
13, 206295, Note_off_c, 12, 72, 56
13, 206296, Note_off_c, 12, 90, 56
13, 206319, Note_on_c, 12, 50, 110
13, 206324, Note_on_c, 12, 72, 110
13, 206326, Note_on_c, 12, 90, 110
13, 206326, Note_on_c, 12, 62, 110
13, 206373, Note_off_c, 12, 50, 56
13, 206384, Note_off_c, 12, 72, 56
13, 206386, Note_off_c, 12, 62, 56
13, 206386, Note_off_c, 12, 90, 56
13, 206398, Note_on_c, 12, 90, 110
13, 206398, Note_on_c, 12, 62, 110
13, 206399, Note_on_c, 12, 50, 110
13, 206400, Note_on_c, 12, 72, 110
13, 206453, Note_off_c, 12, 50, 56
13, 206458, Note_off_c, 12, 62, 56
13, 206458, Note_off_c, 12, 90, 56
13, 206460, Note_off_c, 12, 72, 56
13, 206473, Note_on_c, 12, 90, 111
13, 206473, Note_on_c, 12, 72, 111
13, 206476, Note_on_c, 12, 62, 111
13, 206479, Note_on_c, 12, 50, 111
13, 206533, Note_off_c, 12, 50, 56
13, 206533, Note_off_c, 12, 72, 56
13, 206533, Note_off_c, 12, 90, 56
13, 206536, Note_off_c, 12, 62, 56
13, 206550, Note_on_c, 12, 90, 111
13, 206561, Note_on_c, 12, 50, 111
13, 206566, Note_on_c, 12, 72, 111
13, 206566, Note_on_c, 12, 62, 111
13, 206610, Note_off_c, 12, 90, 56
13, 206615, Note_off_c, 12, 50, 56
13, 206626, Note_off_c, 12, 62, 56
13, 206626, Note_off_c, 12, 72, 56
13, 206638, Note_on_c, 12, 90, 111
13, 206639, Note_on_c, 12, 62, 111
13, 206640, Note_on_c, 12, 72, 111
13, 206640, Note_on_c, 12, 50, 111
13, 206694, Note_off_c, 12, 50, 56
13, 206698, Note_off_c, 12, 90, 56
13, 206699, Note_off_c, 12, 62, 56
13, 206700, Note_off_c, 12, 72, 56
13, 206714, Note_on_c, 12, 62, 111
13, 206716, Note_on_c, 12, 90, 111
13, 206716, Note_on_c, 12, 72, 111
13, 206719, Note_on_c, 12, 50, 111
13, 206773, Note_off_c, 12, 50, 56
13, 206774, Note_off_c, 12, 62, 56
13, 206776, Note_off_c, 12, 72, 56
13, 206776, Note_off_c, 12, 90, 56
13, 206790, Note_on_c, 12, 90, 111
13, 206800, Note_on_c, 12, 50, 111
13, 206805, Note_on_c, 12, 62, 111
13, 206805, Note_on_c, 12, 72, 111
13, 206850, Note_off_c, 12, 90, 56
13, 206854, Note_off_c, 12, 50, 56
13, 206865, Note_off_c, 12, 72, 56
13, 206865, Note_off_c, 12, 62, 56
13, 206878, Note_on_c, 12, 72, 111
13, 206880, Note_on_c, 12, 62, 111
13, 206880, Note_on_c, 12, 50, 111
13, 206881, Note_on_c, 12, 90, 111
13, 206934, Note_off_c, 12, 50, 56
13, 206938, Note_off_c, 12, 72, 56
13, 206940, Note_off_c, 12, 62, 56
13, 206941, Note_off_c, 12, 90, 56
13, 206955, Note_on_c, 12, 72, 111
13, 206957, Note_on_c, 12, 90, 111
13, 206957, Note_on_c, 12, 62, 111
13, 206961, Note_on_c, 12, 50, 111
13, 207015, Note_off_c, 12, 50, 56
13, 207015, Note_off_c, 12, 72, 56
13, 207017, Note_off_c, 12, 62, 56
13, 207017, Note_off_c, 12, 90, 56
13, 207031, Note_on_c, 12, 72, 111
13, 207032, Note_on_c, 12, 90, 111
13, 207040, Note_on_c, 12, 50, 111
13, 207047, Note_on_c, 12, 62, 111
13, 207091, Note_off_c, 12, 72, 56
13, 207092, Note_off_c, 12, 90, 56
13, 207094, Note_off_c, 12, 50, 56
13, 207107, Note_off_c, 12, 62, 56
13, 207118, Note_on_c, 12, 90, 113
13, 207119, Note_on_c, 12, 62, 113
13, 207119, Note_on_c, 12, 50, 113
13, 207122, Note_on_c, 12, 72, 113
13, 207173, Note_off_c, 12, 50, 56
13, 207178, Note_off_c, 12, 90, 56
13, 207179, Note_off_c, 12, 62, 56
13, 207182, Note_off_c, 12, 72, 56
13, 207193, Note_on_c, 12, 62, 113
13, 207193, Note_on_c, 12, 72, 113
13, 207196, Note_on_c, 12, 90, 113
13, 207199, Note_on_c, 12, 50, 113
13, 207253, Note_off_c, 12, 50, 56
13, 207253, Note_off_c, 12, 72, 56
13, 207253, Note_off_c, 12, 62, 56
13, 207256, Note_off_c, 12, 90, 56
13, 207269, Note_on_c, 12, 90, 113
13, 207270, Note_on_c, 12, 72, 113
13, 207270, Note_on_c, 12, 62, 113
13, 207279, Note_on_c, 12, 50, 113
13, 207329, Note_off_c, 12, 90, 56
13, 207330, Note_off_c, 12, 62, 56
13, 207330, Note_off_c, 12, 72, 56
13, 207333, Note_off_c, 12, 50, 56
13, 207358, Note_on_c, 12, 31, 108
13, 207358, Note_on_c, 12, 79, 113
13, 207361, Note_on_c, 12, 91, 113
13, 207362, Note_on_c, 12, 55, 108
13, 207418, Note_off_c, 12, 79, 56
13, 207421, Note_off_c, 12, 91, 56
13, 207436, Note_on_c, 12, 79, 113
13, 207436, Note_on_c, 12, 91, 113
13, 207496, Note_off_c, 12, 91, 56
13, 207496, Note_off_c, 12, 79, 56
13, 207523, Note_on_c, 12, 91, 113
13, 207527, Note_on_c, 12, 79, 113
13, 207583, Note_off_c, 12, 91, 56
13, 207587, Note_off_c, 12, 79, 56
13, 207599, Note_on_c, 12, 91, 113
13, 207599, Note_on_c, 12, 79, 113
13, 207659, Note_off_c, 12, 79, 56
13, 207659, Note_off_c, 12, 91, 56
13, 207675, Note_on_c, 12, 79, 113
13, 207676, Note_on_c, 12, 91, 113
13, 207735, Note_off_c, 12, 79, 56
13, 207736, Note_off_c, 12, 91, 56
13, 207763, Note_on_c, 12, 91, 113
13, 207764, Note_on_c, 12, 79, 113
13, 207823, Note_off_c, 12, 91, 56
13, 207824, Note_off_c, 12, 79, 56
13, 207841, Note_on_c, 12, 91, 113
13, 207842, Note_on_c, 12, 79, 113
13, 207901, Note_off_c, 12, 91, 56
13, 207902, Note_off_c, 12, 79, 56
13, 207913, Note_on_c, 12, 79, 113
13, 207913, Note_on_c, 12, 91, 113
13, 207973, Note_off_c, 12, 91, 56
13, 207973, Note_off_c, 12, 79, 56
13, 207992, Note_on_c, 12, 91, 113
13, 208004, Note_on_c, 12, 79, 113
13, 208010, Note_off_c, 12, 55, 64
13, 208052, Note_off_c, 12, 91, 56
13, 208064, Note_off_c, 12, 79, 56
13, 208079, Note_on_c, 12, 91, 113
13, 208080, Note_on_c, 12, 67, 113
13, 208082, Note_on_c, 12, 79, 113
13, 208139, Note_off_c, 12, 91, 56
13, 208140, Note_off_c, 12, 67, 56
13, 208142, Note_off_c, 12, 79, 56
13, 208153, Note_on_c, 12, 79, 113
13, 208154, Note_on_c, 12, 91, 113
13, 208156, Note_on_c, 12, 65, 113
13, 208213, Note_off_c, 12, 79, 56
13, 208214, Note_off_c, 12, 91, 56
13, 208216, Note_off_c, 12, 65, 56
13, 208231, Note_on_c, 12, 91, 113
13, 208247, Note_on_c, 12, 79, 113
13, 208247, Note_on_c, 12, 64, 113
13, 208291, Note_off_c, 12, 91, 56
13, 208307, Note_off_c, 12, 64, 56
13, 208307, Note_off_c, 12, 79, 56
13, 208319, Note_on_c, 12, 91, 113
13, 208322, Note_on_c, 12, 62, 113
13, 208322, Note_on_c, 12, 79, 113
13, 208379, Note_off_c, 12, 91, 56
13, 208382, Note_off_c, 12, 79, 56
13, 208382, Note_off_c, 12, 62, 56
13, 208393, Note_on_c, 12, 79, 113
13, 208395, Note_on_c, 12, 91, 113
13, 208397, Note_on_c, 12, 61, 113
13, 208453, Note_off_c, 12, 79, 56
13, 208455, Note_off_c, 12, 91, 56
13, 208457, Note_off_c, 12, 61, 56
13, 208484, Note_on_c, 12, 62, 113
13, 208485, Note_on_c, 12, 91, 113
13, 208487, Note_on_c, 12, 79, 113
13, 208544, Note_off_c, 12, 62, 56
13, 208545, Note_off_c, 12, 91, 56
13, 208547, Note_off_c, 12, 79, 56
13, 208561, Note_on_c, 12, 91, 113
13, 208562, Note_on_c, 12, 79, 113
13, 208562, Note_on_c, 12, 65, 113
13, 208621, Note_off_c, 12, 91, 56
13, 208622, Note_off_c, 12, 65, 56
13, 208622, Note_off_c, 12, 79, 56
13, 208635, Note_on_c, 12, 91, 113
13, 208635, Note_on_c, 12, 64, 113
13, 208637, Note_on_c, 12, 79, 113
13, 208695, Note_off_c, 12, 64, 56
13, 208695, Note_off_c, 12, 91, 56
13, 208697, Note_off_c, 12, 79, 56
13, 208709, Note_on_c, 12, 62, 113
13, 208724, Note_on_c, 12, 79, 113
13, 208725, Note_on_c, 12, 91, 113
13, 208769, Note_off_c, 12, 62, 56
13, 208784, Note_off_c, 12, 79, 56
13, 208785, Note_off_c, 12, 91, 56
13, 208801, Note_on_c, 12, 79, 113
13, 208802, Note_on_c, 12, 91, 113
13, 208802, Note_on_c, 12, 60, 113
13, 208861, Note_off_c, 12, 79, 56
13, 208862, Note_off_c, 12, 60, 56
13, 208862, Note_off_c, 12, 91, 56
13, 208873, Note_on_c, 12, 91, 113
13, 208877, Note_on_c, 12, 59, 113
13, 208877, Note_on_c, 12, 79, 113
13, 208933, Note_off_c, 12, 91, 56
13, 208937, Note_off_c, 12, 79, 56
13, 208937, Note_off_c, 12, 59, 56
13, 208949, Note_on_c, 12, 60, 113
13, 208952, Note_on_c, 12, 79, 113
13, 208966, Note_on_c, 12, 91, 113
13, 209009, Note_off_c, 12, 60, 56
13, 209012, Note_off_c, 12, 79, 56
13, 209026, Note_off_c, 12, 91, 56
13, 209039, Note_on_c, 12, 79, 113
13, 209040, Note_on_c, 12, 91, 113
13, 209041, Note_on_c, 12, 64, 113
13, 209099, Note_off_c, 12, 79, 56
13, 209100, Note_off_c, 12, 91, 56
13, 209101, Note_off_c, 12, 64, 56
13, 209113, Note_on_c, 12, 91, 113
13, 209114, Note_on_c, 12, 79, 113
13, 209115, Note_on_c, 12, 62, 113
13, 209173, Note_off_c, 12, 91, 56
13, 209174, Note_off_c, 12, 79, 56
13, 209175, Note_off_c, 12, 62, 56
13, 209182, Note_off_c, 12, 31, 64
13, 209191, Note_on_c, 12, 91, 113
13, 209204, Note_on_c, 12, 79, 113
13, 209206, Note_on_c, 12, 60, 113
13, 209251, Note_off_c, 12, 91, 56
13, 209264, Note_off_c, 12, 79, 56
13, 209266, Note_off_c, 12, 60, 56
13, 209279, Note_on_c, 12, 31, 108
13, 209280, Note_on_c, 12, 91, 113
13, 209281, Note_on_c, 12, 59, 113
13, 209282, Note_on_c, 12, 79, 113
13, 209340, Note_off_c, 12, 91, 56
13, 209341, Note_off_c, 12, 59, 56
13, 209342, Note_off_c, 12, 79, 56
13, 209353, Note_on_c, 12, 91, 113
13, 209354, Note_on_c, 12, 79, 113
13, 209354, Note_on_c, 12, 57, 113
13, 209413, Note_off_c, 12, 91, 56
13, 209414, Note_off_c, 12, 57, 56
13, 209414, Note_off_c, 12, 79, 56
13, 209444, Note_on_c, 12, 59, 113
13, 209445, Note_on_c, 12, 79, 113
13, 209447, Note_on_c, 12, 91, 113
13, 209504, Note_off_c, 12, 59, 56
13, 209505, Note_off_c, 12, 79, 56
13, 209507, Note_off_c, 12, 91, 56
13, 209520, Note_on_c, 12, 62, 113
13, 209522, Note_on_c, 12, 79, 113
13, 209522, Note_on_c, 12, 91, 113
13, 209580, Note_off_c, 12, 62, 56
13, 209582, Note_off_c, 12, 91, 56
13, 209582, Note_off_c, 12, 79, 56
13, 209594, Note_on_c, 12, 79, 113
13, 209595, Note_on_c, 12, 60, 113
13, 209597, Note_on_c, 12, 91, 113
13, 209654, Note_off_c, 12, 79, 56
13, 209655, Note_off_c, 12, 60, 56
13, 209657, Note_off_c, 12, 91, 56
13, 209669, Note_on_c, 12, 59, 113
13, 209685, Note_on_c, 12, 91, 113
13, 209685, Note_on_c, 12, 79, 113
13, 209729, Note_off_c, 12, 59, 56
13, 209745, Note_off_c, 12, 79, 56
13, 209745, Note_off_c, 12, 91, 56
13, 209758, Note_on_c, 12, 91, 113
13, 209758, Note_on_c, 12, 79, 113
13, 209759, Note_on_c, 12, 55, 113
13, 209818, Note_off_c, 12, 79, 56
13, 209818, Note_off_c, 12, 91, 56
13, 209819, Note_off_c, 12, 55, 56
13, 209833, Note_on_c, 12, 91, 113
13, 209835, Note_on_c, 12, 65, 113
13, 209837, Note_on_c, 12, 79, 113
13, 209893, Note_off_c, 12, 91, 56
13, 209895, Note_off_c, 12, 65, 56
13, 209897, Note_off_c, 12, 79, 56
13, 209910, Note_on_c, 12, 67, 113
13, 209927, Note_on_c, 12, 79, 113
13, 209927, Note_on_c, 12, 91, 113
13, 209970, Note_off_c, 12, 67, 56
13, 209987, Note_off_c, 12, 91, 56
13, 209987, Note_off_c, 12, 79, 56
13, 210001, Note_on_c, 12, 79, 113
13, 210002, Note_on_c, 12, 69, 113
13, 210002, Note_on_c, 12, 91, 113
13, 210061, Note_off_c, 12, 79, 56
13, 210062, Note_off_c, 12, 91, 56
13, 210062, Note_off_c, 12, 69, 56
13, 210074, Note_on_c, 12, 91, 113
13, 210075, Note_on_c, 12, 79, 113
13, 210076, Note_on_c, 12, 67, 113
13, 210134, Note_off_c, 12, 91, 56
13, 210135, Note_off_c, 12, 79, 56
13, 210136, Note_off_c, 12, 67, 56
13, 210151, Note_on_c, 12, 79, 113
13, 210165, Note_on_c, 12, 65, 113
13, 210166, Note_on_c, 12, 91, 113
13, 210211, Note_off_c, 12, 79, 56
13, 210225, Note_off_c, 12, 65, 56
13, 210226, Note_off_c, 12, 91, 56
13, 210238, Note_on_c, 12, 91, 113
13, 210238, Note_on_c, 12, 79, 113
13, 210241, Note_on_c, 12, 65, 113
13, 210298, Note_off_c, 12, 79, 56
13, 210298, Note_off_c, 12, 91, 56
13, 210301, Note_off_c, 12, 65, 56
13, 210313, Note_on_c, 12, 79, 113
13, 210314, Note_on_c, 12, 91, 113
13, 210317, Note_on_c, 12, 64, 113
13, 210373, Note_off_c, 12, 79, 56
13, 210374, Note_off_c, 12, 91, 56
13, 210377, Note_off_c, 12, 64, 56
13, 210390, Note_on_c, 12, 65, 113
13, 210403, Note_on_c, 12, 91, 113
13, 210406, Note_on_c, 12, 79, 113
13, 210450, Note_off_c, 12, 65, 56
13, 210463, Note_off_c, 12, 91, 56
13, 210466, Note_off_c, 12, 79, 56
13, 210478, Note_on_c, 12, 67, 113
13, 210479, Note_on_c, 12, 79, 113
13, 210479, Note_on_c, 12, 91, 113
13, 210538, Note_off_c, 12, 67, 56
13, 210539, Note_off_c, 12, 91, 56
13, 210539, Note_off_c, 12, 79, 56
13, 210555, Note_on_c, 12, 91, 113
13, 210556, Note_on_c, 12, 65, 113
13, 210557, Note_on_c, 12, 79, 113
13, 210615, Note_off_c, 12, 91, 56
13, 210616, Note_off_c, 12, 65, 56
13, 210617, Note_off_c, 12, 79, 56
13, 210630, Note_on_c, 12, 79, 113
13, 210646, Note_on_c, 12, 91, 113
13, 210646, Note_on_c, 12, 64, 113
13, 210690, Note_off_c, 12, 79, 56
13, 210706, Note_off_c, 12, 64, 56
13, 210706, Note_off_c, 12, 91, 56
13, 210719, Note_on_c, 12, 79, 113
13, 210720, Note_on_c, 12, 91, 113
13, 210722, Note_on_c, 12, 64, 113
13, 210779, Note_off_c, 12, 79, 56
13, 210780, Note_off_c, 12, 91, 56
13, 210782, Note_off_c, 12, 64, 56
13, 210794, Note_on_c, 12, 62, 113
13, 210795, Note_on_c, 12, 91, 113
13, 210796, Note_on_c, 12, 79, 113
13, 210854, Note_off_c, 12, 62, 56
13, 210855, Note_off_c, 12, 91, 56
13, 210856, Note_off_c, 12, 79, 56
13, 210883, Note_on_c, 12, 91, 113
13, 210885, Note_on_c, 12, 64, 113
13, 210887, Note_on_c, 12, 79, 113
13, 210943, Note_off_c, 12, 91, 56
13, 210945, Note_off_c, 12, 64, 56
13, 210947, Note_off_c, 12, 79, 56
13, 210961, Note_on_c, 12, 65, 113
13, 210962, Note_on_c, 12, 79, 113
13, 210962, Note_on_c, 12, 91, 113
13, 211021, Note_off_c, 12, 65, 56
13, 211022, Note_off_c, 12, 91, 56
13, 211022, Note_off_c, 12, 79, 56
13, 211035, Note_on_c, 12, 79, 113
13, 211035, Note_on_c, 12, 91, 113
13, 211035, Note_on_c, 12, 64, 113
13, 211095, Note_off_c, 12, 64, 56
13, 211095, Note_off_c, 12, 91, 56
13, 211095, Note_off_c, 12, 79, 56
13, 211103, Note_off_c, 12, 31, 64
13, 211112, Note_on_c, 12, 91, 113
13, 211127, Note_on_c, 12, 62, 113
13, 211127, Note_on_c, 12, 79, 113
13, 211172, Note_off_c, 12, 91, 56
13, 211187, Note_off_c, 12, 79, 56
13, 211187, Note_off_c, 12, 62, 56
13, 211199, Note_on_c, 12, 31, 108
13, 211201, Note_on_c, 12, 62, 113
13, 211202, Note_on_c, 12, 79, 113
13, 211202, Note_on_c, 12, 91, 113
13, 211261, Note_off_c, 12, 62, 56
13, 211262, Note_off_c, 12, 91, 56
13, 211262, Note_off_c, 12, 79, 56
13, 211274, Note_on_c, 12, 60, 113
13, 211276, Note_on_c, 12, 79, 113
13, 211277, Note_on_c, 12, 91, 113
13, 211334, Note_off_c, 12, 60, 56
13, 211336, Note_off_c, 12, 79, 56
13, 211337, Note_off_c, 12, 91, 56
13, 211350, Note_on_c, 12, 62, 113
13, 211351, Note_on_c, 12, 91, 113
13, 211366, Note_on_c, 12, 79, 113
13, 211410, Note_off_c, 12, 62, 56
13, 211411, Note_off_c, 12, 91, 56
13, 211426, Note_off_c, 12, 79, 56
13, 211440, Note_on_c, 12, 64, 113
13, 211441, Note_on_c, 12, 91, 113
13, 211441, Note_on_c, 12, 79, 113
13, 211500, Note_off_c, 12, 64, 56
13, 211501, Note_off_c, 12, 79, 56
13, 211501, Note_off_c, 12, 91, 56
13, 211513, Note_on_c, 12, 91, 113
13, 211515, Note_on_c, 12, 79, 113
13, 211516, Note_on_c, 12, 62, 113
13, 211573, Note_off_c, 12, 91, 56
13, 211575, Note_off_c, 12, 79, 56
13, 211576, Note_off_c, 12, 62, 56
13, 211592, Note_on_c, 12, 91, 113
13, 211604, Note_on_c, 12, 79, 113
13, 211607, Note_on_c, 12, 60, 113
13, 211652, Note_off_c, 12, 91, 56
13, 211664, Note_off_c, 12, 79, 56
13, 211667, Note_off_c, 12, 60, 56
13, 211679, Note_on_c, 12, 60, 113
13, 211680, Note_on_c, 12, 91, 113
13, 211682, Note_on_c, 12, 79, 113
13, 211739, Note_off_c, 12, 60, 56
13, 211740, Note_off_c, 12, 91, 56
13, 211742, Note_off_c, 12, 79, 56
13, 211753, Note_on_c, 12, 79, 113
13, 211754, Note_on_c, 12, 62, 113
13, 211755, Note_on_c, 12, 91, 113
13, 211755, Note_on_c, 12, 59, 113
13, 211813, Note_off_c, 12, 79, 56
13, 211814, Note_off_c, 12, 62, 56
13, 211815, Note_off_c, 12, 59, 56
13, 211815, Note_off_c, 12, 91, 56
13, 211830, Note_on_c, 12, 60, 113
13, 211844, Note_on_c, 12, 91, 113
13, 211844, Note_on_c, 12, 64, 113
13, 211846, Note_on_c, 12, 79, 113
13, 211890, Note_off_c, 12, 60, 56
13, 211904, Note_off_c, 12, 64, 56
13, 211904, Note_off_c, 12, 91, 56
13, 211906, Note_off_c, 12, 79, 56
13, 211918, Note_on_c, 12, 79, 113
13, 211918, Note_on_c, 12, 62, 113
13, 211919, Note_on_c, 12, 91, 113
13, 211922, Note_on_c, 12, 65, 113
13, 211978, Note_off_c, 12, 62, 56
13, 211978, Note_off_c, 12, 79, 56
13, 211979, Note_off_c, 12, 91, 56
13, 211982, Note_off_c, 12, 65, 56
13, 211994, Note_on_c, 12, 64, 113
13, 211995, Note_on_c, 12, 91, 113
13, 211996, Note_on_c, 12, 79, 113
13, 211997, Note_on_c, 12, 60, 113
13, 212054, Note_off_c, 12, 64, 56
13, 212055, Note_off_c, 12, 91, 56
13, 212056, Note_off_c, 12, 79, 56
13, 212057, Note_off_c, 12, 60, 56
13, 212083, Note_on_c, 12, 91, 113
13, 212083, Note_on_c, 12, 62, 113
13, 212084, Note_on_c, 12, 59, 113
13, 212087, Note_on_c, 12, 79, 113
13, 212143, Note_off_c, 12, 62, 56
13, 212143, Note_off_c, 12, 91, 56
13, 212144, Note_off_c, 12, 59, 56
13, 212147, Note_off_c, 12, 79, 56
13, 212158, Note_on_c, 12, 60, 113
13, 212159, Note_on_c, 12, 91, 113
13, 212159, Note_on_c, 12, 57, 113
13, 212161, Note_on_c, 12, 79, 113
13, 212218, Note_off_c, 12, 60, 56
13, 212219, Note_off_c, 12, 57, 56
13, 212219, Note_off_c, 12, 91, 56
13, 212221, Note_off_c, 12, 79, 56
13, 212234, Note_on_c, 12, 59, 113
13, 212236, Note_on_c, 12, 55, 113
13, 212236, Note_on_c, 12, 79, 113
13, 212237, Note_on_c, 12, 91, 113
13, 212294, Note_off_c, 12, 59, 56
13, 212296, Note_off_c, 12, 79, 56
13, 212296, Note_off_c, 12, 55, 56
13, 212297, Note_off_c, 12, 91, 56
13, 212310, Note_on_c, 12, 60, 113
13, 212311, Note_on_c, 12, 91, 113
13, 212312, Note_on_c, 12, 79, 113
13, 212312, Note_on_c, 12, 57, 113
13, 212370, Note_off_c, 12, 60, 56
13, 212371, Note_off_c, 12, 91, 56
13, 212372, Note_off_c, 12, 57, 56
13, 212372, Note_off_c, 12, 79, 56
13, 212400, Note_on_c, 12, 91, 113
13, 212400, Note_on_c, 12, 65, 113
13, 212401, Note_on_c, 12, 62, 113
13, 212402, Note_on_c, 12, 79, 113
13, 212460, Note_off_c, 12, 65, 56
13, 212460, Note_off_c, 12, 91, 56
13, 212461, Note_off_c, 12, 62, 56
13, 212462, Note_off_c, 12, 79, 56
13, 212473, Note_on_c, 12, 60, 113
13, 212474, Note_on_c, 12, 79, 113
13, 212475, Note_on_c, 12, 64, 113
13, 212477, Note_on_c, 12, 91, 113
13, 212533, Note_off_c, 12, 60, 56
13, 212534, Note_off_c, 12, 79, 56
13, 212535, Note_off_c, 12, 64, 56
13, 212537, Note_off_c, 12, 91, 56
13, 212552, Note_on_c, 12, 91, 113
13, 212563, Note_on_c, 12, 62, 113
13, 212563, Note_on_c, 12, 59, 113
13, 212564, Note_on_c, 12, 79, 113
13, 212612, Note_off_c, 12, 91, 56
13, 212623, Note_off_c, 12, 59, 56
13, 212623, Note_off_c, 12, 62, 56
13, 212624, Note_off_c, 12, 79, 56
13, 212638, Note_on_c, 12, 91, 113
13, 212639, Note_on_c, 12, 60, 113
13, 212641, Note_on_c, 12, 79, 113
13, 212642, Note_on_c, 12, 64, 113
13, 212698, Note_off_c, 12, 91, 56
13, 212699, Note_off_c, 12, 60, 56
13, 212701, Note_off_c, 12, 79, 56
13, 212702, Note_off_c, 12, 64, 56
13, 212714, Note_on_c, 12, 91, 113
13, 212715, Note_on_c, 12, 62, 113
13, 212717, Note_on_c, 12, 59, 113
13, 212717, Note_on_c, 12, 79, 113
13, 212774, Note_off_c, 12, 91, 56
13, 212775, Note_off_c, 12, 62, 56
13, 212777, Note_off_c, 12, 79, 56
13, 212777, Note_off_c, 12, 59, 56
13, 212791, Note_on_c, 12, 60, 113
13, 212805, Note_on_c, 12, 64, 113
13, 212805, Note_on_c, 12, 91, 113
13, 212805, Note_on_c, 12, 79, 113
13, 212851, Note_off_c, 12, 60, 56
13, 212865, Note_off_c, 12, 79, 56
13, 212865, Note_off_c, 12, 91, 56
13, 212865, Note_off_c, 12, 64, 56
13, 212878, Note_on_c, 12, 64, 113
13, 212879, Note_on_c, 12, 79, 113
13, 212880, Note_on_c, 12, 67, 113
13, 212882, Note_on_c, 12, 91, 113
13, 212938, Note_off_c, 12, 64, 56
13, 212939, Note_off_c, 12, 79, 56
13, 212940, Note_off_c, 12, 67, 56
13, 212942, Note_off_c, 12, 91, 56
13, 212953, Note_on_c, 12, 62, 113
13, 212956, Note_on_c, 12, 65, 113
13, 212957, Note_on_c, 12, 79, 113
13, 212957, Note_on_c, 12, 91, 113
13, 213013, Note_off_c, 12, 62, 56
13, 213016, Note_off_c, 12, 65, 56
13, 213017, Note_off_c, 12, 91, 56
13, 213017, Note_off_c, 12, 79, 56
13, 213023, Note_off_c, 12, 31, 64
13, 213031, Note_on_c, 12, 79, 113
13, 213032, Note_on_c, 12, 60, 113
13, 213043, Note_on_c, 12, 64, 113
13, 213044, Note_on_c, 12, 91, 113
13, 213091, Note_off_c, 12, 79, 56
13, 213092, Note_off_c, 12, 60, 56
13, 213103, Note_off_c, 12, 64, 56
13, 213104, Note_off_c, 12, 91, 56
13, 213117, Note_on_c, 12, 31, 108
13, 213118, Note_on_c, 12, 62, 113
13, 213119, Note_on_c, 12, 91, 113
13, 213121, Note_on_c, 12, 79, 113
13, 213121, Note_on_c, 12, 65, 113
13, 213178, Note_off_c, 12, 62, 56
13, 213179, Note_off_c, 12, 91, 56
13, 213181, Note_off_c, 12, 65, 56
13, 213181, Note_off_c, 12, 79, 56
13, 213193, Note_on_c, 12, 91, 113
13, 213193, Note_on_c, 12, 64, 113
13, 213193, Note_on_c, 12, 79, 113
13, 213197, Note_on_c, 12, 60, 113
13, 213253, Note_off_c, 12, 79, 56
13, 213253, Note_off_c, 12, 64, 56
13, 213253, Note_off_c, 12, 91, 56
13, 213257, Note_off_c, 12, 60, 56
13, 213271, Note_on_c, 12, 65, 113
13, 213283, Note_on_c, 12, 62, 113
13, 213283, Note_on_c, 12, 91, 113
13, 213284, Note_on_c, 12, 79, 113
13, 213331, Note_off_c, 12, 65, 56
13, 213343, Note_off_c, 12, 91, 56
13, 213343, Note_off_c, 12, 62, 56
13, 213344, Note_off_c, 12, 79, 56
13, 213359, Note_on_c, 12, 79, 113
13, 213360, Note_on_c, 12, 69, 113
13, 213362, Note_on_c, 12, 91, 113
13, 213362, Note_on_c, 12, 65, 113
13, 213419, Note_off_c, 12, 79, 56
13, 213420, Note_off_c, 12, 69, 56
13, 213422, Note_off_c, 12, 65, 56
13, 213422, Note_off_c, 12, 91, 56
13, 213433, Note_on_c, 12, 64, 113
13, 213434, Note_on_c, 12, 79, 113
13, 213435, Note_on_c, 12, 91, 113
13, 213436, Note_on_c, 12, 67, 113
13, 213493, Note_off_c, 12, 64, 56
13, 213494, Note_off_c, 12, 79, 56
13, 213495, Note_off_c, 12, 91, 56
13, 213496, Note_off_c, 12, 67, 56
13, 213508, Note_on_c, 12, 79, 113
13, 213510, Note_on_c, 12, 91, 113
13, 213510, Note_on_c, 12, 65, 113
13, 213511, Note_on_c, 12, 62, 113
13, 213568, Note_off_c, 12, 79, 56
13, 213570, Note_off_c, 12, 65, 56
13, 213570, Note_off_c, 12, 91, 56
13, 213571, Note_off_c, 12, 62, 56
13, 213598, Note_on_c, 12, 62, 113
13, 213601, Note_on_c, 12, 65, 113
13, 213601, Note_on_c, 12, 79, 113
13, 213602, Note_on_c, 12, 91, 113
13, 213658, Note_off_c, 12, 62, 56
13, 213661, Note_off_c, 12, 79, 56
13, 213661, Note_off_c, 12, 65, 56
13, 213662, Note_off_c, 12, 91, 56
13, 213674, Note_on_c, 12, 60, 113
13, 213675, Note_on_c, 12, 91, 113
13, 213676, Note_on_c, 12, 64, 113
13, 213677, Note_on_c, 12, 79, 113
13, 213734, Note_off_c, 12, 60, 56
13, 213735, Note_off_c, 12, 91, 56
13, 213736, Note_off_c, 12, 64, 56
13, 213737, Note_off_c, 12, 79, 56
13, 213751, Note_on_c, 12, 91, 113
13, 213751, Note_on_c, 12, 79, 113
13, 213763, Note_on_c, 12, 62, 113
13, 213766, Note_on_c, 12, 65, 113
13, 213811, Note_off_c, 12, 79, 56
13, 213811, Note_off_c, 12, 91, 56
13, 213823, Note_off_c, 12, 62, 56
13, 213826, Note_off_c, 12, 65, 56
13, 213840, Note_on_c, 12, 79, 113
13, 213842, Note_on_c, 12, 65, 113
13, 213842, Note_on_c, 12, 69, 113
13, 213842, Note_on_c, 12, 91, 113
13, 213900, Note_off_c, 12, 79, 56
13, 213902, Note_off_c, 12, 91, 56
13, 213902, Note_off_c, 12, 69, 56
13, 213902, Note_off_c, 12, 65, 56
13, 213915, Note_on_c, 12, 67, 113
13, 213916, Note_on_c, 12, 64, 113
13, 213917, Note_on_c, 12, 91, 113
13, 213917, Note_on_c, 12, 79, 113
13, 213975, Note_off_c, 12, 67, 56
13, 213976, Note_off_c, 12, 64, 56
13, 213977, Note_off_c, 12, 79, 56
13, 213977, Note_off_c, 12, 91, 56
13, 214004, Note_on_c, 12, 62, 113
13, 214006, Note_on_c, 12, 91, 113
13, 214006, Note_on_c, 12, 79, 113
13, 214006, Note_on_c, 12, 65, 113
13, 214064, Note_off_c, 12, 62, 56
13, 214066, Note_off_c, 12, 65, 56
13, 214066, Note_off_c, 12, 79, 56
13, 214066, Note_off_c, 12, 91, 56
13, 214078, Note_on_c, 12, 64, 113
13, 214079, Note_on_c, 12, 91, 113
13, 214079, Note_on_c, 12, 79, 113
13, 214081, Note_on_c, 12, 60, 113
13, 214138, Note_off_c, 12, 64, 56
13, 214139, Note_off_c, 12, 79, 56
13, 214139, Note_off_c, 12, 91, 56
13, 214141, Note_off_c, 12, 60, 56
13, 214153, Note_on_c, 12, 91, 113
13, 214156, Note_on_c, 12, 59, 113
13, 214156, Note_on_c, 12, 62, 113
13, 214157, Note_on_c, 12, 79, 113
13, 214213, Note_off_c, 12, 91, 56
13, 214216, Note_off_c, 12, 62, 56
13, 214216, Note_off_c, 12, 59, 56
13, 214217, Note_off_c, 12, 79, 56
13, 214229, Note_on_c, 12, 79, 113
13, 214230, Note_on_c, 12, 60, 113
13, 214243, Note_on_c, 12, 91, 113
13, 214244, Note_on_c, 12, 64, 113
13, 214289, Note_off_c, 12, 79, 56
13, 214290, Note_off_c, 12, 60, 56
13, 214303, Note_off_c, 12, 91, 56
13, 214304, Note_off_c, 12, 64, 56
13, 214318, Note_on_c, 12, 67, 113
13, 214318, Note_on_c, 12, 79, 113
13, 214320, Note_on_c, 12, 91, 113
13, 214320, Note_on_c, 12, 64, 113
13, 214378, Note_off_c, 12, 79, 56
13, 214378, Note_off_c, 12, 67, 56
13, 214380, Note_off_c, 12, 64, 56
13, 214380, Note_off_c, 12, 91, 56
13, 214394, Note_on_c, 12, 65, 113
13, 214395, Note_on_c, 12, 62, 113
13, 214396, Note_on_c, 12, 91, 113
13, 214396, Note_on_c, 12, 79, 113
13, 214454, Note_off_c, 12, 65, 56
13, 214455, Note_off_c, 12, 62, 56
13, 214456, Note_off_c, 12, 79, 56
13, 214456, Note_off_c, 12, 91, 56
13, 214472, Note_on_c, 12, 60, 113
13, 214483, Note_on_c, 12, 64, 113
13, 214486, Note_on_c, 12, 91, 113
13, 214487, Note_on_c, 12, 79, 113
13, 214532, Note_off_c, 12, 60, 56
13, 214543, Note_off_c, 12, 64, 56
13, 214546, Note_off_c, 12, 91, 56
13, 214547, Note_off_c, 12, 79, 56
13, 214558, Note_on_c, 12, 62, 113
13, 214560, Note_on_c, 12, 79, 113
13, 214560, Note_on_c, 12, 65, 113
13, 214561, Note_on_c, 12, 91, 113
13, 214618, Note_off_c, 12, 62, 56
13, 214620, Note_off_c, 12, 65, 56
13, 214620, Note_off_c, 12, 79, 56
13, 214621, Note_off_c, 12, 91, 56
13, 214635, Note_on_c, 12, 79, 113
13, 214635, Note_on_c, 12, 91, 113
13, 214637, Note_on_c, 12, 64, 113
13, 214637, Note_on_c, 12, 60, 113
13, 214695, Note_off_c, 12, 91, 56
13, 214695, Note_off_c, 12, 79, 56
13, 214697, Note_off_c, 12, 60, 56
13, 214697, Note_off_c, 12, 64, 56
13, 214723, Note_on_c, 12, 79, 113
13, 214723, Note_on_c, 12, 62, 113
13, 214723, Note_on_c, 12, 65, 113
13, 214724, Note_on_c, 12, 91, 113
13, 214783, Note_off_c, 12, 65, 56
13, 214783, Note_off_c, 12, 62, 56
13, 214783, Note_off_c, 12, 79, 56
13, 214784, Note_off_c, 12, 91, 56
13, 214798, Note_on_c, 12, 65, 113
13, 214798, Note_on_c, 12, 91, 113
13, 214799, Note_on_c, 12, 79, 113
13, 214802, Note_on_c, 12, 69, 113
13, 214858, Note_off_c, 12, 91, 56
13, 214858, Note_off_c, 12, 65, 56
13, 214859, Note_off_c, 12, 79, 56
13, 214862, Note_off_c, 12, 69, 56
13, 214873, Note_on_c, 12, 91, 113
13, 214875, Note_on_c, 12, 79, 113
13, 214875, Note_on_c, 12, 64, 113
13, 214877, Note_on_c, 12, 67, 113
13, 214933, Note_off_c, 12, 91, 56
13, 214935, Note_off_c, 12, 64, 56
13, 214935, Note_off_c, 12, 79, 56
13, 214937, Note_off_c, 12, 67, 56
13, 214941, Note_off_c, 12, 31, 64
13, 214950, Note_on_c, 12, 65, 113
13, 214963, Note_on_c, 12, 79, 113
13, 214965, Note_on_c, 12, 62, 113
13, 214966, Note_on_c, 12, 91, 113
13, 215010, Note_off_c, 12, 65, 56
13, 215023, Note_off_c, 12, 79, 56
13, 215025, Note_off_c, 12, 62, 56
13, 215026, Note_off_c, 12, 91, 56
13, 215038, Note_on_c, 12, 67, 113
13, 215040, Note_on_c, 12, 64, 113
13, 215041, Note_on_c, 12, 91, 113
13, 215041, Note_on_c, 12, 31, 113
13, 215042, Note_on_c, 12, 79, 113
13, 215095, Note_off_c, 12, 31, 56
13, 215098, Note_off_c, 12, 67, 56
13, 215100, Note_off_c, 12, 64, 56
13, 215101, Note_off_c, 12, 91, 56
13, 215102, Note_off_c, 12, 79, 56
13, 215114, Note_on_c, 12, 79, 113
13, 215116, Note_on_c, 12, 55, 113
13, 215117, Note_on_c, 12, 52, 113
13, 215119, Note_on_c, 12, 31, 113
13, 215173, Note_off_c, 12, 31, 56
13, 215174, Note_off_c, 12, 79, 56
13, 215176, Note_off_c, 12, 55, 56
13, 215177, Note_off_c, 12, 52, 56
13, 215201, Note_on_c, 12, 31, 113
13, 215203, Note_on_c, 12, 52, 113
13, 215203, Note_on_c, 12, 79, 113
13, 215207, Note_on_c, 12, 55, 113
13, 215255, Note_off_c, 12, 31, 56
13, 215263, Note_off_c, 12, 79, 56
13, 215263, Note_off_c, 12, 52, 56
13, 215267, Note_off_c, 12, 55, 56
13, 215279, Note_on_c, 12, 55, 113
13, 215279, Note_on_c, 12, 79, 113
13, 215280, Note_on_c, 12, 31, 113
13, 215282, Note_on_c, 12, 52, 113
13, 215334, Note_off_c, 12, 31, 56
13, 215339, Note_off_c, 12, 79, 56
13, 215339, Note_off_c, 12, 55, 56
13, 215342, Note_off_c, 12, 52, 56
13, 215353, Note_on_c, 12, 55, 113
13, 215354, Note_on_c, 12, 52, 113
13, 215354, Note_on_c, 12, 79, 113
13, 215361, Note_on_c, 12, 31, 113
13, 215413, Note_off_c, 12, 55, 56
13, 215414, Note_off_c, 12, 79, 56
13, 215414, Note_off_c, 12, 52, 56
13, 215415, Note_off_c, 12, 31, 56
13, 215432, Note_on_c, 12, 52, 113
13, 215439, Note_on_c, 12, 31, 113
13, 215446, Note_on_c, 12, 55, 113
13, 215447, Note_on_c, 12, 79, 113
13, 215492, Note_off_c, 12, 52, 56
13, 215493, Note_off_c, 12, 31, 56
13, 215506, Note_off_c, 12, 55, 56
13, 215507, Note_off_c, 12, 79, 56
13, 215519, Note_on_c, 12, 79, 113
13, 215519, Note_on_c, 12, 31, 113
13, 215520, Note_on_c, 12, 52, 113
13, 215522, Note_on_c, 12, 55, 113
13, 215573, Note_off_c, 12, 31, 56
13, 215579, Note_off_c, 12, 79, 56
13, 215580, Note_off_c, 12, 52, 56
13, 215582, Note_off_c, 12, 55, 56
13, 215593, Note_on_c, 12, 52, 113
13, 215595, Note_on_c, 12, 79, 113
13, 215597, Note_on_c, 12, 55, 113
13, 215599, Note_on_c, 12, 31, 113
13, 215653, Note_off_c, 12, 31, 56
13, 215653, Note_off_c, 12, 52, 56
13, 215655, Note_off_c, 12, 79, 56
13, 215657, Note_off_c, 12, 55, 56
13, 215668, Note_on_c, 12, 79, 113
13, 215668, Note_on_c, 12, 55, 113
13, 215681, Note_on_c, 12, 31, 113
13, 215687, Note_on_c, 12, 52, 113
13, 215728, Note_off_c, 12, 55, 56
13, 215728, Note_off_c, 12, 79, 56
13, 215735, Note_off_c, 12, 31, 56
13, 215747, Note_off_c, 12, 52, 56
13, 215760, Note_on_c, 12, 79, 113
13, 215760, Note_on_c, 12, 31, 113
13, 215762, Note_on_c, 12, 55, 113
13, 215762, Note_on_c, 12, 52, 113
13, 215814, Note_off_c, 12, 31, 56
13, 215820, Note_off_c, 12, 79, 56
13, 215822, Note_off_c, 12, 52, 56
13, 215822, Note_off_c, 12, 55, 56
13, 215833, Note_on_c, 12, 52, 113
13, 215835, Note_on_c, 12, 55, 113
13, 215837, Note_on_c, 12, 79, 113
13, 215840, Note_on_c, 12, 31, 113
13, 215893, Note_off_c, 12, 52, 56
13, 215894, Note_off_c, 12, 31, 56
13, 215895, Note_off_c, 12, 55, 56
13, 215897, Note_off_c, 12, 79, 56
13, 215911, Note_on_c, 12, 52, 113
13, 215911, Note_on_c, 12, 55, 113
13, 215920, Note_on_c, 12, 31, 113
13, 215925, Note_on_c, 12, 79, 113
13, 215971, Note_off_c, 12, 55, 56
13, 215971, Note_off_c, 12, 52, 56
13, 215974, Note_off_c, 12, 31, 56
13, 215985, Note_off_c, 12, 79, 56
13, 215998, Note_on_c, 12, 80, 113
13, 215998, Note_on_c, 12, 56, 113
13, 216000, Note_on_c, 12, 31, 113
13, 216000, Note_on_c, 12, 53, 113
13, 216054, Note_off_c, 12, 31, 56
13, 216058, Note_off_c, 12, 56, 56
13, 216058, Note_off_c, 12, 80, 56
13, 216060, Note_off_c, 12, 53, 56
13, 216074, Note_on_c, 12, 56, 113
13, 216075, Note_on_c, 12, 80, 113
13, 216076, Note_on_c, 12, 53, 113
13, 216080, Note_on_c, 12, 31, 113
13, 216134, Note_off_c, 12, 31, 56
13, 216134, Note_off_c, 12, 56, 56
13, 216135, Note_off_c, 12, 80, 56
13, 216136, Note_off_c, 12, 53, 56
13, 216149, Note_on_c, 12, 53, 113
13, 216159, Note_on_c, 12, 31, 113
13, 216165, Note_on_c, 12, 80, 113
13, 216167, Note_on_c, 12, 56, 113
13, 216209, Note_off_c, 12, 53, 56
13, 216213, Note_off_c, 12, 31, 56
13, 216225, Note_off_c, 12, 80, 56
13, 216227, Note_off_c, 12, 56, 56
13, 216238, Note_on_c, 12, 80, 113
13, 216239, Note_on_c, 12, 53, 113
13, 216241, Note_on_c, 12, 31, 113
13, 216242, Note_on_c, 12, 56, 113
13, 216295, Note_off_c, 12, 31, 56
13, 216298, Note_off_c, 12, 80, 56
13, 216299, Note_off_c, 12, 53, 56
13, 216302, Note_off_c, 12, 56, 56
13, 216313, Note_on_c, 12, 53, 113
13, 216315, Note_on_c, 12, 80, 113
13, 216316, Note_on_c, 12, 56, 113
13, 216321, Note_on_c, 12, 31, 113
13, 216373, Note_off_c, 12, 53, 56
13, 216375, Note_off_c, 12, 31, 56
13, 216375, Note_off_c, 12, 80, 56
13, 216376, Note_off_c, 12, 56, 56
13, 216400, Note_on_c, 12, 31, 113
13, 216404, Note_on_c, 12, 80, 113
13, 216404, Note_on_c, 12, 56, 113
13, 216405, Note_on_c, 12, 53, 113
13, 216454, Note_off_c, 12, 31, 56
13, 216464, Note_off_c, 12, 56, 56
13, 216464, Note_off_c, 12, 80, 56
13, 216465, Note_off_c, 12, 53, 56
13, 216479, Note_on_c, 12, 56, 113
13, 216479, Note_on_c, 12, 31, 113
13, 216482, Note_on_c, 12, 53, 113
13, 216482, Note_on_c, 12, 80, 113
13, 216533, Note_off_c, 12, 31, 56
13, 216539, Note_off_c, 12, 56, 56
13, 216542, Note_off_c, 12, 80, 56
13, 216542, Note_off_c, 12, 53, 56
13, 216553, Note_on_c, 12, 56, 113
13, 216556, Note_on_c, 12, 80, 113
13, 216557, Note_on_c, 12, 53, 113
13, 216561, Note_on_c, 12, 31, 113
13, 216613, Note_off_c, 12, 56, 56
13, 216615, Note_off_c, 12, 31, 56
13, 216616, Note_off_c, 12, 80, 56
13, 216617, Note_off_c, 12, 53, 56
13, 216630, Note_on_c, 12, 56, 113
13, 216631, Note_on_c, 12, 53, 113
13, 216632, Note_on_c, 12, 80, 113
13, 216639, Note_on_c, 12, 31, 113
13, 216690, Note_off_c, 12, 56, 56
13, 216691, Note_off_c, 12, 53, 56
13, 216692, Note_off_c, 12, 80, 56
13, 216693, Note_off_c, 12, 31, 56
13, 216718, Note_on_c, 12, 53, 113
13, 216720, Note_on_c, 12, 56, 113
13, 216720, Note_on_c, 12, 31, 113
13, 216722, Note_on_c, 12, 80, 113
13, 216774, Note_off_c, 12, 31, 56
13, 216778, Note_off_c, 12, 53, 56
13, 216780, Note_off_c, 12, 56, 56
13, 216782, Note_off_c, 12, 80, 56
13, 216793, Note_on_c, 12, 56, 113
13, 216793, Note_on_c, 12, 53, 113
13, 216796, Note_on_c, 12, 80, 113
13, 216801, Note_on_c, 12, 31, 113
13, 216853, Note_off_c, 12, 53, 56
13, 216853, Note_off_c, 12, 56, 56
13, 216855, Note_off_c, 12, 31, 56
13, 216856, Note_off_c, 12, 80, 56
13, 216870, Note_on_c, 12, 56, 113
13, 216879, Note_on_c, 12, 31, 113
13, 216884, Note_on_c, 12, 53, 113
13, 216885, Note_on_c, 12, 80, 113
13, 216930, Note_off_c, 12, 56, 56
13, 216933, Note_off_c, 12, 31, 56
13, 216944, Note_off_c, 12, 53, 56
13, 216945, Note_off_c, 12, 80, 56
13, 216959, Note_on_c, 12, 81, 113
13, 216961, Note_on_c, 12, 31, 113
13, 216962, Note_on_c, 12, 54, 113
13, 216962, Note_on_c, 12, 57, 113
13, 217015, Note_off_c, 12, 31, 56
13, 217019, Note_off_c, 12, 81, 56
13, 217022, Note_off_c, 12, 57, 56
13, 217022, Note_off_c, 12, 54, 56
13, 217036, Note_on_c, 12, 57, 113
13, 217036, Note_on_c, 12, 54, 113
13, 217037, Note_on_c, 12, 78, 113
13, 217039, Note_on_c, 12, 31, 113
13, 217093, Note_off_c, 12, 31, 56
13, 217096, Note_off_c, 12, 54, 56
13, 217096, Note_off_c, 12, 57, 56
13, 217097, Note_off_c, 12, 78, 56
13, 217108, Note_on_c, 12, 54, 113
13, 217110, Note_on_c, 12, 57, 113
13, 217121, Note_on_c, 12, 31, 113
13, 217123, Note_on_c, 12, 75, 113
13, 217168, Note_off_c, 12, 54, 56
13, 217170, Note_off_c, 12, 57, 56
13, 217175, Note_off_c, 12, 31, 56
13, 217183, Note_off_c, 12, 75, 56
13, 217198, Note_on_c, 12, 72, 113
13, 217199, Note_on_c, 12, 57, 113
13, 217200, Note_on_c, 12, 54, 113
13, 217200, Note_on_c, 12, 31, 113
13, 217254, Note_off_c, 12, 31, 56
13, 217258, Note_off_c, 12, 72, 56
13, 217259, Note_off_c, 12, 57, 56
13, 217260, Note_off_c, 12, 54, 56
13, 217273, Note_on_c, 12, 57, 113
13, 217274, Note_on_c, 12, 69, 113
13, 217275, Note_on_c, 12, 54, 113
13, 217280, Note_on_c, 12, 31, 113
13, 217333, Note_off_c, 12, 57, 56
13, 217334, Note_off_c, 12, 31, 56
13, 217334, Note_off_c, 12, 69, 56
13, 217335, Note_off_c, 12, 54, 56
13, 217349, Note_on_c, 12, 57, 113
13, 217351, Note_on_c, 12, 66, 113
13, 217361, Note_on_c, 12, 31, 113
13, 217365, Note_on_c, 12, 54, 113
13, 217409, Note_off_c, 12, 57, 56
13, 217411, Note_off_c, 12, 66, 56
13, 217415, Note_off_c, 12, 31, 56
13, 217425, Note_off_c, 12, 54, 56
13, 217438, Note_on_c, 12, 54, 113
13, 217438, Note_on_c, 12, 63, 113
13, 217441, Note_on_c, 12, 57, 113
13, 217441, Note_on_c, 12, 31, 113
13, 217495, Note_off_c, 12, 31, 56
13, 217498, Note_off_c, 12, 63, 56
13, 217498, Note_off_c, 12, 54, 56
13, 217501, Note_off_c, 12, 57, 56
13, 217513, Note_on_c, 12, 60, 113
13, 217516, Note_on_c, 12, 54, 113
13, 217516, Note_on_c, 12, 57, 113
13, 217519, Note_on_c, 12, 31, 113
13, 217573, Note_off_c, 12, 31, 56
13, 217573, Note_off_c, 12, 60, 56
13, 217576, Note_off_c, 12, 57, 56
13, 217576, Note_off_c, 12, 54, 56
13, 217601, Note_on_c, 12, 31, 113
13, 217604, Note_on_c, 12, 54, 113
13, 217607, Note_on_c, 12, 57, 113
13, 217655, Note_off_c, 12, 31, 56
13, 217664, Note_off_c, 12, 54, 56
13, 217667, Note_off_c, 12, 57, 56
13, 217678, Note_on_c, 12, 54, 113
13, 217679, Note_on_c, 12, 60, 113
13, 217680, Note_on_c, 12, 31, 113
13, 217682, Note_on_c, 12, 57, 113
13, 217734, Note_off_c, 12, 31, 56
13, 217738, Note_off_c, 12, 54, 56
13, 217739, Note_off_c, 12, 60, 56
13, 217742, Note_off_c, 12, 57, 56
13, 217754, Note_on_c, 12, 63, 113
13, 217755, Note_on_c, 12, 57, 113
13, 217755, Note_on_c, 12, 54, 113
13, 217759, Note_on_c, 12, 31, 113
13, 217813, Note_off_c, 12, 31, 56
13, 217814, Note_off_c, 12, 63, 56
13, 217815, Note_off_c, 12, 54, 56
13, 217815, Note_off_c, 12, 57, 56
13, 217840, Note_on_c, 12, 31, 113
13, 217844, Note_on_c, 12, 66, 113
13, 217846, Note_on_c, 12, 54, 113
13, 217846, Note_on_c, 12, 57, 113
13, 217894, Note_off_c, 12, 31, 56
13, 217904, Note_off_c, 12, 66, 56
13, 217906, Note_off_c, 12, 57, 56
13, 217906, Note_off_c, 12, 54, 56
13, 217921, Note_on_c, 12, 69, 113
13, 217921, Note_on_c, 12, 31, 113
13, 217921, Note_on_c, 12, 54, 113
13, 217921, Note_on_c, 12, 57, 113
13, 217975, Note_off_c, 12, 31, 56
13, 217981, Note_off_c, 12, 57, 56
13, 217981, Note_off_c, 12, 54, 56
13, 217981, Note_off_c, 12, 69, 56
13, 217993, Note_on_c, 12, 57, 113
13, 217996, Note_on_c, 12, 54, 113
13, 217997, Note_on_c, 12, 72, 113
13, 218000, Note_on_c, 12, 31, 113
13, 218053, Note_off_c, 12, 57, 56
13, 218054, Note_off_c, 12, 31, 56
13, 218056, Note_off_c, 12, 54, 56
13, 218057, Note_off_c, 12, 72, 56
13, 218069, Note_on_c, 12, 54, 113
13, 218080, Note_on_c, 12, 31, 113
13, 218084, Note_on_c, 12, 75, 113
13, 218084, Note_on_c, 12, 57, 113
13, 218129, Note_off_c, 12, 54, 56
13, 218134, Note_off_c, 12, 31, 56
13, 218144, Note_off_c, 12, 57, 56
13, 218144, Note_off_c, 12, 75, 56
13, 218161, Note_on_c, 12, 78, 113
13, 218161, Note_on_c, 12, 31, 113
13, 218162, Note_on_c, 12, 57, 113
13, 218162, Note_on_c, 12, 54, 113
13, 218215, Note_off_c, 12, 31, 56
13, 218221, Note_off_c, 12, 78, 56
13, 218222, Note_off_c, 12, 54, 56
13, 218222, Note_off_c, 12, 57, 56
13, 218234, Note_on_c, 12, 54, 113
13, 218237, Note_on_c, 12, 81, 113
13, 218237, Note_on_c, 12, 57, 113
13, 218241, Note_on_c, 12, 31, 113
13, 218294, Note_off_c, 12, 54, 56
13, 218295, Note_off_c, 12, 31, 56
13, 218297, Note_off_c, 12, 57, 56
13, 218297, Note_off_c, 12, 81, 56
13, 218310, Note_on_c, 12, 54, 113
13, 218320, Note_on_c, 12, 31, 113
13, 218323, Note_on_c, 12, 81, 113
13, 218324, Note_on_c, 12, 57, 113
13, 218370, Note_off_c, 12, 54, 56
13, 218374, Note_off_c, 12, 31, 56
13, 218383, Note_off_c, 12, 81, 56
13, 218384, Note_off_c, 12, 57, 56
13, 218398, Note_on_c, 12, 57, 113
13, 218400, Note_on_c, 12, 54, 113
13, 218401, Note_on_c, 12, 31, 113
13, 218402, Note_on_c, 12, 81, 113
13, 218455, Note_off_c, 12, 31, 56
13, 218458, Note_off_c, 12, 57, 56
13, 218460, Note_off_c, 12, 54, 56
13, 218462, Note_off_c, 12, 81, 56
13, 218475, Note_on_c, 12, 81, 113
13, 218476, Note_on_c, 12, 54, 113
13, 218476, Note_on_c, 12, 57, 113
13, 218480, Note_on_c, 12, 31, 113
13, 218534, Note_off_c, 12, 31, 56
13, 218535, Note_off_c, 12, 81, 56
13, 218536, Note_off_c, 12, 57, 56
13, 218536, Note_off_c, 12, 54, 56
13, 218548, Note_on_c, 12, 81, 113
13, 218551, Note_on_c, 12, 54, 113
13, 218561, Note_on_c, 12, 31, 113
13, 218566, Note_on_c, 12, 57, 113
13, 218608, Note_off_c, 12, 81, 56
13, 218611, Note_off_c, 12, 54, 56
13, 218615, Note_off_c, 12, 31, 56
13, 218626, Note_off_c, 12, 57, 56
13, 218639, Note_on_c, 12, 57, 113
13, 218639, Note_on_c, 12, 31, 113
13, 218641, Note_on_c, 12, 81, 113
13, 218641, Note_on_c, 12, 54, 113
13, 218693, Note_off_c, 12, 31, 56
13, 218699, Note_off_c, 12, 57, 56
13, 218701, Note_off_c, 12, 54, 56
13, 218701, Note_off_c, 12, 81, 56
13, 218713, Note_on_c, 12, 57, 113
13, 218714, Note_on_c, 12, 81, 113
13, 218716, Note_on_c, 12, 54, 113
13, 218720, Note_on_c, 12, 31, 113
13, 218773, Note_off_c, 12, 57, 56
13, 218774, Note_off_c, 12, 31, 56
13, 218774, Note_off_c, 12, 81, 56
13, 218776, Note_off_c, 12, 54, 56
13, 218801, Note_on_c, 12, 31, 113
13, 218803, Note_on_c, 12, 54, 113
13, 218806, Note_on_c, 12, 57, 113
13, 218807, Note_on_c, 12, 81, 113
13, 218855, Note_off_c, 12, 31, 56
13, 218863, Note_off_c, 12, 54, 56
13, 218866, Note_off_c, 12, 57, 56
13, 218867, Note_off_c, 12, 81, 56
13, 218877, Note_on_c, 12, 31, 108
13, 218878, Note_on_c, 12, 55, 113
13, 218879, Note_on_c, 12, 83, 113
13, 218881, Note_on_c, 12, 59, 113
13, 218938, Note_off_c, 12, 55, 56
13, 218939, Note_off_c, 12, 83, 56
13, 218941, Note_off_c, 12, 59, 56
13, 218953, Note_on_c, 12, 59, 113
13, 218954, Note_on_c, 12, 83, 113
13, 218956, Note_on_c, 12, 55, 113
13, 219013, Note_off_c, 12, 59, 56
13, 219014, Note_off_c, 12, 83, 56
13, 219016, Note_off_c, 12, 55, 56
13, 219031, Note_on_c, 12, 55, 113
13, 219032, Note_on_c, 12, 83, 113
13, 219044, Note_on_c, 12, 59, 113
13, 219091, Note_off_c, 12, 55, 56
13, 219092, Note_off_c, 12, 83, 56
13, 219104, Note_off_c, 12, 59, 56
13, 219118, Note_on_c, 12, 55, 113
13, 219118, Note_on_c, 12, 83, 113
13, 219122, Note_on_c, 12, 59, 113
13, 219178, Note_off_c, 12, 83, 56
13, 219178, Note_off_c, 12, 55, 56
13, 219182, Note_off_c, 12, 59, 56
13, 219194, Note_on_c, 12, 59, 113
13, 219195, Note_on_c, 12, 83, 113
13, 219197, Note_on_c, 12, 55, 113
13, 219254, Note_off_c, 12, 59, 56
13, 219255, Note_off_c, 12, 83, 56
13, 219257, Note_off_c, 12, 55, 56
13, 219268, Note_on_c, 12, 83, 113
13, 219286, Note_on_c, 12, 55, 113
13, 219287, Note_on_c, 12, 59, 113
13, 219328, Note_off_c, 12, 83, 56
13, 219346, Note_off_c, 12, 55, 56
13, 219347, Note_off_c, 12, 59, 56
13, 219359, Note_on_c, 12, 83, 113
13, 219361, Note_on_c, 12, 55, 113
13, 219362, Note_on_c, 12, 59, 113
13, 219404, Note_off_c, 12, 83, 56
13, 219406, Note_off_c, 12, 55, 56
13, 219406, Note_off_c, 12, 31, 64
13, 219407, Note_off_c, 12, 59, 56
13, 219418, Note_on_c, 12, 83, 113
13, 219419, Note_on_c, 12, 55, 113
13, 219420, Note_on_c, 12, 59, 113
13, 219463, Note_off_c, 12, 83, 56
13, 219464, Note_off_c, 12, 55, 56
13, 219465, Note_off_c, 12, 59, 56
13, 219478, Note_on_c, 12, 86, 113
13, 219479, Note_on_c, 12, 38, 108
13, 219480, Note_on_c, 12, 62, 113
13, 219523, Note_off_c, 12, 86, 56
13, 219525, Note_off_c, 12, 62, 56
13, 219539, Note_on_c, 12, 62, 113
13, 219541, Note_on_c, 12, 86, 113
13, 219570, Note_off_c, 12, 38, 56
13, 219584, Note_off_c, 12, 62, 56
13, 219586, Note_off_c, 12, 86, 56
13, 219598, Note_on_c, 12, 83, 113
13, 219600, Note_on_c, 12, 35, 108
13, 219601, Note_on_c, 12, 59, 113
13, 219643, Note_off_c, 12, 83, 56
13, 219646, Note_off_c, 12, 59, 56
13, 219658, Note_on_c, 12, 59, 113
13, 219661, Note_on_c, 12, 83, 113
13, 219691, Note_off_c, 12, 35, 56
13, 219703, Note_off_c, 12, 59, 56
13, 219706, Note_off_c, 12, 83, 56
13, 219721, Note_on_c, 12, 86, 113
13, 219721, Note_on_c, 12, 38, 108
13, 219722, Note_on_c, 12, 62, 113
13, 219766, Note_off_c, 12, 86, 56
13, 219767, Note_off_c, 12, 62, 56
13, 219778, Note_on_c, 12, 86, 113
13, 219780, Note_on_c, 12, 62, 113
13, 219812, Note_off_c, 12, 38, 56
13, 219823, Note_off_c, 12, 86, 56
13, 219825, Note_off_c, 12, 62, 56
13, 219838, Note_on_c, 12, 91, 113
13, 219838, Note_on_c, 12, 43, 108
13, 219839, Note_on_c, 12, 67, 113
13, 219883, Note_off_c, 12, 91, 56
13, 219884, Note_off_c, 12, 67, 56
13, 219899, Note_on_c, 12, 91, 113
13, 219899, Note_on_c, 12, 67, 113
13, 219944, Note_off_c, 12, 67, 56
13, 219944, Note_off_c, 12, 91, 56
13, 219958, Note_on_c, 12, 67, 113
13, 219962, Note_on_c, 12, 91, 113
13, 220003, Note_off_c, 12, 67, 56
13, 220007, Note_off_c, 12, 91, 56
13, 220020, Note_on_c, 12, 91, 113
13, 220021, Note_on_c, 12, 67, 113
13, 220065, Note_off_c, 12, 91, 56
13, 220066, Note_off_c, 12, 67, 56
13, 220078, Note_on_c, 12, 91, 113
13, 220082, Note_on_c, 12, 67, 113
13, 220123, Note_off_c, 12, 91, 56
13, 220127, Note_off_c, 12, 67, 56
13, 220140, Note_on_c, 12, 91, 113
13, 220141, Note_on_c, 12, 67, 113
13, 220185, Note_off_c, 12, 91, 56
13, 220186, Note_off_c, 12, 67, 56
13, 220199, Note_on_c, 12, 91, 113
13, 220199, Note_on_c, 12, 67, 113
13, 220244, Note_off_c, 12, 67, 56
13, 220244, Note_off_c, 12, 91, 56
13, 220260, Note_on_c, 12, 67, 113
13, 220261, Note_on_c, 12, 91, 113
13, 220305, Note_off_c, 12, 67, 56
13, 220306, Note_off_c, 12, 91, 56
13, 220319, Note_on_c, 12, 91, 113
13, 220319, Note_on_c, 12, 67, 113
13, 220364, Note_off_c, 12, 67, 56
13, 220364, Note_off_c, 12, 91, 56
13, 220367, Note_off_c, 12, 43, 64
13, 220379, Note_on_c, 12, 91, 113
13, 220382, Note_on_c, 12, 67, 113
13, 220424, Note_off_c, 12, 91, 56
13, 220427, Note_off_c, 12, 67, 56
13, 220440, Note_on_c, 12, 86, 113
13, 220441, Note_on_c, 12, 38, 108
13, 220442, Note_on_c, 12, 62, 113
13, 220485, Note_off_c, 12, 86, 56
13, 220487, Note_off_c, 12, 62, 56
13, 220498, Note_on_c, 12, 86, 113
13, 220500, Note_on_c, 12, 62, 113
13, 220532, Note_off_c, 12, 38, 56
13, 220543, Note_off_c, 12, 86, 56
13, 220545, Note_off_c, 12, 62, 56
13, 220559, Note_on_c, 12, 83, 113
13, 220561, Note_on_c, 12, 59, 113
13, 220561, Note_on_c, 12, 35, 108
13, 220604, Note_off_c, 12, 83, 56
13, 220606, Note_off_c, 12, 59, 56
13, 220622, Note_on_c, 12, 83, 113
13, 220622, Note_on_c, 12, 59, 113
13, 220652, Note_off_c, 12, 35, 56
13, 220667, Note_off_c, 12, 59, 56
13, 220667, Note_off_c, 12, 83, 56
13, 220678, Note_on_c, 12, 86, 113
13, 220680, Note_on_c, 12, 62, 113
13, 220680, Note_on_c, 12, 38, 108
13, 220723, Note_off_c, 12, 86, 56
13, 220725, Note_off_c, 12, 62, 56
13, 220739, Note_on_c, 12, 62, 113
13, 220741, Note_on_c, 12, 86, 113
13, 220771, Note_off_c, 12, 38, 56
13, 220784, Note_off_c, 12, 62, 56
13, 220786, Note_off_c, 12, 86, 56
13, 220799, Note_on_c, 12, 67, 113
13, 220799, Note_on_c, 12, 91, 113
13, 220800, Note_on_c, 12, 43, 108
13, 220844, Note_off_c, 12, 91, 56
13, 220844, Note_off_c, 12, 67, 56
13, 220862, Note_on_c, 12, 91, 113
13, 220862, Note_on_c, 12, 67, 113
13, 220891, Note_off_c, 12, 43, 56
13, 220907, Note_off_c, 12, 67, 56
13, 220907, Note_off_c, 12, 91, 56
13, 220918, Note_on_c, 12, 86, 113
13, 220920, Note_on_c, 12, 50, 108
13, 220922, Note_on_c, 12, 74, 113
13, 220963, Note_off_c, 12, 86, 56
13, 220967, Note_off_c, 12, 74, 56
13, 220981, Note_on_c, 12, 86, 113
13, 220982, Note_on_c, 12, 74, 113
13, 221011, Note_off_c, 12, 50, 56
13, 221026, Note_off_c, 12, 86, 56
13, 221027, Note_off_c, 12, 74, 56
13, 221038, Note_on_c, 12, 71, 113
13, 221039, Note_on_c, 12, 83, 113
13, 221040, Note_on_c, 12, 47, 108
13, 221083, Note_off_c, 12, 71, 56
13, 221084, Note_off_c, 12, 83, 56
13, 221099, Note_on_c, 12, 71, 113
13, 221102, Note_on_c, 12, 83, 113
13, 221131, Note_off_c, 12, 47, 56
13, 221144, Note_off_c, 12, 71, 56
13, 221147, Note_off_c, 12, 83, 56
13, 221161, Note_on_c, 12, 74, 113
13, 221161, Note_on_c, 12, 50, 108
13, 221162, Note_on_c, 12, 86, 113
13, 221206, Note_off_c, 12, 74, 56
13, 221207, Note_off_c, 12, 86, 56
13, 221218, Note_on_c, 12, 74, 113
13, 221222, Note_on_c, 12, 86, 113
13, 221252, Note_off_c, 12, 50, 56
13, 221263, Note_off_c, 12, 74, 56
13, 221267, Note_off_c, 12, 86, 56
13, 221278, Note_on_c, 12, 86, 113
13, 221278, Note_on_c, 12, 74, 113
13, 221280, Note_on_c, 12, 50, 108
13, 221323, Note_off_c, 12, 74, 56
13, 221323, Note_off_c, 12, 86, 56
13, 221338, Note_on_c, 12, 74, 113
13, 221341, Note_on_c, 12, 86, 113
13, 221371, Note_off_c, 12, 50, 56
13, 221383, Note_off_c, 12, 74, 56
13, 221386, Note_off_c, 12, 86, 56
13, 221400, Note_on_c, 12, 83, 113
13, 221400, Note_on_c, 12, 47, 108
13, 221400, Note_on_c, 12, 71, 113
13, 221445, Note_off_c, 12, 71, 56
13, 221445, Note_off_c, 12, 83, 56
13, 221460, Note_on_c, 12, 71, 113
13, 221462, Note_on_c, 12, 83, 113
13, 221491, Note_off_c, 12, 47, 56
13, 221505, Note_off_c, 12, 71, 56
13, 221507, Note_off_c, 12, 83, 56
13, 221518, Note_on_c, 12, 79, 113
13, 221521, Note_on_c, 12, 67, 113
13, 221521, Note_on_c, 12, 43, 108
13, 221563, Note_off_c, 12, 79, 56
13, 221566, Note_off_c, 12, 67, 56
13, 221578, Note_on_c, 12, 67, 113
13, 221581, Note_on_c, 12, 79, 113
13, 221612, Note_off_c, 12, 43, 56
13, 221623, Note_off_c, 12, 67, 56
13, 221626, Note_off_c, 12, 79, 56
13, 221638, Note_on_c, 12, 71, 113
13, 221640, Note_on_c, 12, 47, 108
13, 221641, Note_on_c, 12, 83, 113
13, 221683, Note_off_c, 12, 71, 56
13, 221686, Note_off_c, 12, 83, 56
13, 221698, Note_on_c, 12, 71, 113
13, 221699, Note_on_c, 12, 83, 113
13, 221731, Note_off_c, 12, 47, 56
13, 221743, Note_off_c, 12, 71, 56
13, 221744, Note_off_c, 12, 83, 56
13, 221758, Note_on_c, 12, 71, 113
13, 221760, Note_on_c, 12, 47, 108
13, 221762, Note_on_c, 12, 83, 113
13, 221803, Note_off_c, 12, 71, 56
13, 221807, Note_off_c, 12, 83, 56
13, 221818, Note_on_c, 12, 71, 113
13, 221821, Note_on_c, 12, 83, 113
13, 221851, Note_off_c, 12, 47, 56
13, 221863, Note_off_c, 12, 71, 56
13, 221866, Note_off_c, 12, 83, 56
13, 221879, Note_on_c, 12, 43, 108
13, 221881, Note_on_c, 12, 67, 113
13, 221882, Note_on_c, 12, 79, 113
13, 221926, Note_off_c, 12, 67, 56
13, 221927, Note_off_c, 12, 79, 56
13, 221939, Note_on_c, 12, 79, 113
13, 221941, Note_on_c, 12, 67, 113
13, 221970, Note_off_c, 12, 43, 56
13, 221984, Note_off_c, 12, 79, 56
13, 221986, Note_off_c, 12, 67, 56
13, 222000, Note_on_c, 12, 74, 113
13, 222000, Note_on_c, 12, 62, 113
13, 222001, Note_on_c, 12, 38, 108
13, 222045, Note_off_c, 12, 62, 56
13, 222045, Note_off_c, 12, 74, 56
13, 222058, Note_on_c, 12, 74, 113
13, 222061, Note_on_c, 12, 62, 113
13, 222092, Note_off_c, 12, 38, 56
13, 222103, Note_off_c, 12, 74, 56
13, 222106, Note_off_c, 12, 62, 56
13, 222118, Note_on_c, 12, 79, 113
13, 222121, Note_on_c, 12, 43, 108
13, 222122, Note_on_c, 12, 67, 113
13, 222163, Note_off_c, 12, 79, 56
13, 222167, Note_off_c, 12, 67, 56
13, 222178, Note_on_c, 12, 79, 113
13, 222178, Note_on_c, 12, 67, 113
13, 222212, Note_off_c, 12, 43, 56
13, 222223, Note_off_c, 12, 67, 56
13, 222223, Note_off_c, 12, 79, 56
13, 222238, Note_on_c, 12, 79, 113
13, 222239, Note_on_c, 12, 43, 108
13, 222240, Note_on_c, 12, 67, 113
13, 222283, Note_off_c, 12, 79, 56
13, 222285, Note_off_c, 12, 67, 56
13, 222298, Note_on_c, 12, 79, 113
13, 222302, Note_on_c, 12, 67, 113
13, 222330, Note_off_c, 12, 43, 56
13, 222343, Note_off_c, 12, 79, 56
13, 222347, Note_off_c, 12, 67, 56
13, 222360, Note_on_c, 12, 74, 113
13, 222361, Note_on_c, 12, 38, 108
13, 222362, Note_on_c, 12, 62, 113
13, 222405, Note_off_c, 12, 74, 56
13, 222407, Note_off_c, 12, 62, 56
13, 222419, Note_on_c, 12, 74, 113
13, 222419, Note_on_c, 12, 62, 113
13, 222452, Note_off_c, 12, 38, 56
13, 222464, Note_off_c, 12, 62, 56
13, 222464, Note_off_c, 12, 74, 56
13, 222480, Note_on_c, 12, 35, 108
13, 222481, Note_on_c, 12, 59, 113
13, 222482, Note_on_c, 12, 71, 113
13, 222526, Note_off_c, 12, 59, 56
13, 222527, Note_off_c, 12, 71, 56
13, 222539, Note_on_c, 12, 71, 113
13, 222539, Note_on_c, 12, 59, 113
13, 222571, Note_off_c, 12, 35, 56
13, 222584, Note_off_c, 12, 59, 56
13, 222584, Note_off_c, 12, 71, 56
13, 222599, Note_on_c, 12, 62, 113
13, 222600, Note_on_c, 12, 74, 113
13, 222601, Note_on_c, 12, 38, 108
13, 222644, Note_off_c, 12, 62, 56
13, 222645, Note_off_c, 12, 74, 56
13, 222661, Note_on_c, 12, 74, 113
13, 222661, Note_on_c, 12, 62, 113
13, 222692, Note_off_c, 12, 38, 56
13, 222706, Note_off_c, 12, 62, 56
13, 222706, Note_off_c, 12, 74, 56
13, 222718, Note_on_c, 12, 62, 113
13, 222720, Note_on_c, 12, 74, 113
13, 222721, Note_on_c, 12, 38, 108
13, 222763, Note_off_c, 12, 62, 56
13, 222765, Note_off_c, 12, 74, 56
13, 222779, Note_on_c, 12, 74, 113
13, 222780, Note_on_c, 12, 62, 113
13, 222812, Note_off_c, 12, 38, 56
13, 222824, Note_off_c, 12, 74, 56
13, 222825, Note_off_c, 12, 62, 56
13, 222840, Note_on_c, 12, 71, 113
13, 222840, Note_on_c, 12, 35, 108
13, 222842, Note_on_c, 12, 59, 113
13, 222885, Note_off_c, 12, 71, 56
13, 222887, Note_off_c, 12, 59, 56
13, 222899, Note_on_c, 12, 71, 113
13, 222899, Note_on_c, 12, 59, 113
13, 222931, Note_off_c, 12, 35, 56
13, 222944, Note_off_c, 12, 59, 56
13, 222944, Note_off_c, 12, 71, 56
13, 222958, Note_on_c, 12, 55, 113
13, 222960, Note_on_c, 12, 67, 113
13, 222961, Note_on_c, 12, 31, 108
13, 223003, Note_off_c, 12, 55, 56
13, 223005, Note_off_c, 12, 67, 56
13, 223018, Note_on_c, 12, 67, 113
13, 223019, Note_on_c, 12, 55, 113
13, 223052, Note_off_c, 12, 31, 56
13, 223063, Note_off_c, 12, 67, 56
13, 223064, Note_off_c, 12, 55, 56
13, 223078, Note_on_c, 12, 71, 113
13, 223078, Note_on_c, 12, 59, 113
13, 223081, Note_on_c, 12, 47, 108
13, 223123, Note_off_c, 12, 59, 56
13, 223123, Note_off_c, 12, 71, 56
13, 223138, Note_on_c, 12, 59, 113
13, 223141, Note_on_c, 12, 71, 113
13, 223172, Note_off_c, 12, 47, 56
13, 223183, Note_off_c, 12, 59, 56
13, 223186, Note_off_c, 12, 71, 56
13, 223200, Note_on_c, 12, 47, 108
13, 223202, Note_on_c, 12, 71, 113
13, 223202, Note_on_c, 12, 59, 113
13, 223247, Note_off_c, 12, 59, 56
13, 223247, Note_off_c, 12, 71, 56
13, 223261, Note_on_c, 12, 59, 113
13, 223262, Note_on_c, 12, 71, 113
13, 223291, Note_off_c, 12, 47, 56
13, 223306, Note_off_c, 12, 59, 56
13, 223307, Note_off_c, 12, 71, 56
13, 223319, Note_on_c, 12, 55, 113
13, 223320, Note_on_c, 12, 43, 108
13, 223321, Note_on_c, 12, 67, 113
13, 223364, Note_off_c, 12, 55, 56
13, 223366, Note_off_c, 12, 67, 56
13, 223379, Note_on_c, 12, 55, 113
13, 223381, Note_on_c, 12, 67, 113
13, 223411, Note_off_c, 12, 43, 56
13, 223424, Note_off_c, 12, 55, 56
13, 223426, Note_off_c, 12, 67, 56
13, 223439, Note_on_c, 12, 62, 113
13, 223440, Note_on_c, 12, 38, 108
13, 223442, Note_on_c, 12, 50, 113
13, 223484, Note_off_c, 12, 62, 56
13, 223487, Note_off_c, 12, 50, 56
13, 223498, Note_on_c, 12, 62, 113
13, 223499, Note_on_c, 12, 50, 113
13, 223531, Note_off_c, 12, 38, 56
13, 223543, Note_off_c, 12, 62, 56
13, 223544, Note_off_c, 12, 50, 56
13, 223558, Note_on_c, 12, 55, 113
13, 223559, Note_on_c, 12, 43, 108
13, 223562, Note_on_c, 12, 67, 113
13, 223603, Note_off_c, 12, 55, 56
13, 223607, Note_off_c, 12, 67, 56
13, 223620, Note_on_c, 12, 55, 113
13, 223622, Note_on_c, 12, 67, 113
13, 223650, Note_off_c, 12, 43, 56
13, 223665, Note_off_c, 12, 55, 56
13, 223667, Note_off_c, 12, 67, 56
13, 223680, Note_on_c, 12, 55, 113
13, 223680, Note_on_c, 12, 43, 108
13, 223682, Note_on_c, 12, 67, 113
13, 223725, Note_off_c, 12, 55, 56
13, 223727, Note_off_c, 12, 67, 56
13, 223738, Note_on_c, 12, 67, 113
13, 223738, Note_on_c, 12, 55, 113
13, 223771, Note_off_c, 12, 43, 56
13, 223783, Note_off_c, 12, 55, 56
13, 223783, Note_off_c, 12, 67, 56
13, 223799, Note_on_c, 12, 38, 108
13, 223800, Note_on_c, 12, 62, 113
13, 223845, Note_off_c, 12, 62, 56
13, 223859, Note_on_c, 12, 62, 113
13, 223890, Note_off_c, 12, 38, 56
13, 223904, Note_off_c, 12, 62, 56
13, 223918, Note_on_c, 12, 59, 113
13, 223921, Note_on_c, 12, 35, 108
13, 223963, Note_off_c, 12, 59, 56
13, 223982, Note_on_c, 12, 59, 113
13, 224012, Note_off_c, 12, 35, 56
13, 224027, Note_off_c, 12, 59, 56
13, 224041, Note_on_c, 12, 38, 108
13, 224042, Note_on_c, 12, 62, 113
13, 224087, Note_off_c, 12, 62, 56
13, 224100, Note_on_c, 12, 62, 113
13, 224132, Note_off_c, 12, 38, 56
13, 224145, Note_off_c, 12, 62, 56
13, 224158, Note_on_c, 12, 67, 113
13, 224159, Note_on_c, 12, 43, 108
13, 224203, Note_off_c, 12, 67, 56
13, 224218, Note_on_c, 12, 67, 113
13, 224250, Note_off_c, 12, 43, 56
13, 224263, Note_off_c, 12, 67, 56
13, 224280, Note_on_c, 12, 38, 108
13, 224282, Note_on_c, 12, 62, 113
13, 224327, Note_off_c, 12, 62, 56
13, 224339, Note_on_c, 12, 62, 113
13, 224371, Note_off_c, 12, 38, 56
13, 224384, Note_off_c, 12, 62, 56
13, 224399, Note_on_c, 12, 35, 108
13, 224401, Note_on_c, 12, 59, 113
13, 224446, Note_off_c, 12, 59, 56
13, 224462, Note_on_c, 12, 59, 113
13, 224490, Note_off_c, 12, 35, 56
13, 224507, Note_off_c, 12, 59, 56
13, 224519, Note_on_c, 12, 38, 108
13, 224522, Note_on_c, 12, 62, 113
13, 224567, Note_off_c, 12, 62, 56
13, 224579, Note_on_c, 12, 62, 113
13, 224610, Note_off_c, 12, 38, 56
13, 224624, Note_off_c, 12, 62, 56
13, 224637, Note_on_c, 12, 31, 108
13, 224638, Note_on_c, 12, 55, 108
13, 224639, Note_on_c, 12, 67, 108
13, 225501, Note_off_c, 12, 31, 64
13, 225502, Note_off_c, 12, 55, 64
13, 225503, Note_off_c, 12, 67, 64
13, 225598, Note_on_c, 12, 71, 108
13, 225600, Note_on_c, 12, 31, 108
13, 225602, Note_on_c, 12, 62, 108
13, 225602, Note_on_c, 12, 55, 108
13, 225807, Note_off_c, 12, 55, 64
13, 225807, Note_off_c, 12, 62, 64
13, 226462, Note_off_c, 12, 71, 64
13, 226464, Note_off_c, 12, 31, 64
13, 226558, Note_on_c, 12, 62, 108
13, 226560, Note_on_c, 12, 74, 108
13, 226561, Note_on_c, 12, 55, 108
13, 226562, Note_on_c, 12, 71, 108
13, 226562, Note_on_c, 12, 31, 108
13, 226763, Note_off_c, 12, 62, 64
13, 226766, Note_off_c, 12, 55, 64
13, 227424, Note_off_c, 12, 74, 64
13, 227426, Note_off_c, 12, 31, 64
13, 227426, Note_off_c, 12, 71, 64
13, 227517, Note_on_c, 12, 31, 108
13, 227518, Note_on_c, 12, 67, 108
13, 227519, Note_on_c, 12, 79, 108
13, 227521, Note_on_c, 12, 55, 108
13, 227522, Note_on_c, 12, 62, 108
13, 227701, Note_off_c, 12, 31, 64
13, 227723, Note_off_c, 12, 67, 64
13, 227724, Note_off_c, 12, 79, 64
13, 227726, Note_off_c, 12, 55, 64
13, 227727, Note_off_c, 12, 62, 64
13, 228238, Note_on_c, 12, 67, 108
13, 228443, Note_off_c, 12, 67, 64
13, 228960, Note_on_c, 12, 67, 98
13, 229165, Note_off_c, 12, 67, 64
13, 229679, Note_on_c, 12, 67, 89
13, 229884, Note_off_c, 12, 67, 64
13, 230400, Note_on_c, 12, 67, 80
13, 230607, Note_off_c, 12, 67, 64
13, 231120, Note_on_c, 12, 67, 70
13, 231325, Note_off_c, 12, 67, 64
13, 231841, Note_on_c, 12, 67, 60
13, 232046, Note_off_c, 12, 67, 64
13, 232559, Note_on_c, 12, 67, 56
13, 232764, Note_off_c, 12, 67, 64
13, 232798, Note_on_c, 12, 67, 56
13, 233003, Note_off_c, 12, 67, 64
13, 233042, Note_on_c, 12, 67, 56
13, 233247, Note_off_c, 12, 67, 64
13, 233278, Note_on_c, 12, 60, 56
13, 233282, Note_on_c, 12, 67, 56
13, 233483, Note_off_c, 12, 60, 64
13, 233487, Note_off_c, 12, 67, 64
13, 234001, Note_on_c, 12, 59, 56
13, 234002, Note_on_c, 12, 67, 56
13, 234206, Note_off_c, 12, 59, 64
13, 234207, Note_off_c, 12, 67, 64
13, 234240, Note_on_c, 12, 67, 56
13, 234445, Note_off_c, 12, 67, 64
13, 234482, Note_on_c, 12, 67, 56
13, 234687, Note_off_c, 12, 67, 64
13, 234718, Note_on_c, 12, 67, 56
13, 234721, Note_on_c, 12, 60, 56
13, 234923, Note_off_c, 12, 67, 64
13, 234926, Note_off_c, 12, 60, 64
13, 235440, Note_on_c, 12, 65, 56
13, 235442, Note_on_c, 12, 55, 56
13, 235645, Note_off_c, 12, 65, 64
13, 235647, Note_off_c, 12, 55, 64
13, 236158, Note_on_c, 12, 63, 56
13, 236160, Note_on_c, 12, 55, 56
13, 236363, Note_off_c, 12, 63, 64
13, 236365, Note_off_c, 12, 55, 64
13, 236881, Note_on_c, 12, 65, 56
13, 236881, Note_on_c, 12, 53, 56
13, 237086, Note_off_c, 12, 53, 64
13, 237086, Note_off_c, 12, 65, 64
13, 237598, Note_on_c, 12, 53, 56
13, 237599, Note_on_c, 12, 62, 56
13, 237803, Note_off_c, 12, 53, 64
13, 237804, Note_off_c, 12, 62, 64
13, 238320, Note_on_c, 12, 72, 56
13, 238321, Note_on_c, 12, 52, 56
13, 238525, Note_off_c, 12, 72, 64
13, 238526, Note_off_c, 12, 52, 64
13, 238562, Note_on_c, 12, 72, 56
13, 238767, Note_off_c, 12, 72, 64
13, 238799, Note_on_c, 12, 72, 56
13, 239004, Note_off_c, 12, 72, 64
13, 239040, Note_on_c, 12, 56, 56
13, 239041, Note_on_c, 12, 72, 56
13, 239245, Note_off_c, 12, 56, 64
13, 239246, Note_off_c, 12, 72, 64
13, 239761, Note_on_c, 12, 72, 56
13, 239762, Note_on_c, 12, 58, 56
13, 239966, Note_off_c, 12, 72, 64
13, 239967, Note_off_c, 12, 58, 64
13, 240001, Note_on_c, 12, 72, 56
13, 240206, Note_off_c, 12, 72, 64
13, 240239, Note_on_c, 12, 72, 56
13, 240444, Note_off_c, 12, 72, 64
13, 240478, Note_on_c, 12, 72, 56
13, 240480, Note_on_c, 12, 60, 56
13, 240683, Note_off_c, 12, 72, 64
13, 240685, Note_off_c, 12, 60, 64
13, 241199, Note_on_c, 12, 55, 56
13, 241200, Note_on_c, 12, 64, 56
13, 241404, Note_off_c, 12, 55, 64
13, 241405, Note_off_c, 12, 64, 64
13, 241918, Note_on_c, 12, 65, 56
13, 241919, Note_on_c, 12, 53, 56
13, 242123, Note_off_c, 12, 65, 64
13, 242124, Note_off_c, 12, 53, 64
13, 242639, Note_on_c, 12, 60, 56
13, 242640, Note_on_c, 12, 66, 56
13, 242844, Note_off_c, 12, 60, 64
13, 242845, Note_off_c, 12, 66, 64
13, 243358, Note_on_c, 12, 67, 56
13, 243360, Note_on_c, 12, 62, 56
13, 243563, Note_off_c, 12, 67, 64
13, 243565, Note_off_c, 12, 62, 64
13, 244078, Note_on_c, 12, 62, 56
13, 244079, Note_on_c, 12, 65, 56
13, 244283, Note_off_c, 12, 62, 64
13, 244284, Note_off_c, 12, 65, 64
13, 244319, Note_on_c, 12, 65, 56
13, 244320, Note_on_c, 12, 62, 56
13, 244524, Note_off_c, 12, 65, 64
13, 244525, Note_off_c, 12, 62, 64
13, 244559, Note_on_c, 12, 65, 56
13, 244560, Note_on_c, 12, 62, 56
13, 244764, Note_off_c, 12, 65, 64
13, 244765, Note_off_c, 12, 62, 64
13, 244798, Note_on_c, 12, 60, 56
13, 244799, Note_on_c, 12, 63, 56
13, 245003, Note_off_c, 12, 60, 64
13, 245004, Note_off_c, 12, 63, 64
13, 245518, Note_on_c, 12, 60, 56
13, 245518, Note_on_c, 12, 55, 56
13, 245521, Note_on_c, 12, 63, 56
13, 245723, Note_off_c, 12, 55, 64
13, 245723, Note_off_c, 12, 60, 64
13, 245726, Note_off_c, 12, 63, 64
13, 245759, Note_on_c, 12, 60, 56
13, 245761, Note_on_c, 12, 63, 56
13, 245964, Note_off_c, 12, 60, 64
13, 245966, Note_off_c, 12, 63, 64
13, 245998, Note_on_c, 12, 60, 56
13, 246000, Note_on_c, 12, 63, 56
13, 246203, Note_off_c, 12, 60, 64
13, 246205, Note_off_c, 12, 63, 64
13, 246239, Note_on_c, 12, 62, 56
13, 246240, Note_on_c, 12, 55, 56
13, 246240, Note_on_c, 12, 59, 56
13, 246444, Note_off_c, 12, 62, 64
13, 246445, Note_off_c, 12, 59, 64
13, 246445, Note_off_c, 12, 55, 64
13, 246959, Note_on_c, 12, 62, 56
13, 246960, Note_on_c, 12, 65, 56
13, 247164, Note_off_c, 12, 62, 64
13, 247165, Note_off_c, 12, 65, 64
13, 247200, Note_on_c, 12, 62, 56
13, 247200, Note_on_c, 12, 65, 56
13, 247405, Note_off_c, 12, 65, 64
13, 247405, Note_off_c, 12, 62, 64
13, 247438, Note_on_c, 12, 62, 56
13, 247441, Note_on_c, 12, 65, 56
13, 247643, Note_off_c, 12, 62, 64
13, 247646, Note_off_c, 12, 65, 64
13, 247682, Note_on_c, 12, 63, 56
13, 247682, Note_on_c, 12, 60, 56
13, 247887, Note_off_c, 12, 60, 64
13, 247887, Note_off_c, 12, 63, 64
13, 248399, Note_on_c, 12, 60, 56
13, 248401, Note_on_c, 12, 55, 56
13, 248402, Note_on_c, 12, 63, 56
13, 248604, Note_off_c, 12, 60, 64
13, 248606, Note_off_c, 12, 55, 64
13, 248607, Note_off_c, 12, 63, 64
13, 248639, Note_on_c, 12, 63, 56
13, 248642, Note_on_c, 12, 60, 56
13, 248844, Note_off_c, 12, 63, 64
13, 248847, Note_off_c, 12, 60, 64
13, 248881, Note_on_c, 12, 63, 56
13, 248882, Note_on_c, 12, 60, 56
13, 249086, Note_off_c, 12, 63, 64
13, 249087, Note_off_c, 12, 60, 64
13, 249118, Note_on_c, 12, 59, 56
13, 249121, Note_on_c, 12, 62, 56
13, 249122, Note_on_c, 12, 55, 56
13, 249323, Note_off_c, 12, 59, 64
13, 249327, Note_off_c, 12, 55, 64
13, 249328, Note_off_c, 12, 62, 64
13, 249840, Note_on_c, 12, 59, 56
13, 249841, Note_on_c, 12, 62, 56
13, 250045, Note_off_c, 12, 59, 64
13, 250046, Note_off_c, 12, 62, 64
13, 250080, Note_on_c, 12, 62, 56
13, 250081, Note_on_c, 12, 59, 56
13, 250285, Note_off_c, 12, 62, 64
13, 250286, Note_off_c, 12, 59, 64
13, 250320, Note_on_c, 12, 59, 56
13, 250321, Note_on_c, 12, 62, 56
13, 250525, Note_off_c, 12, 59, 64
13, 250526, Note_off_c, 12, 62, 64
13, 250561, Note_on_c, 12, 59, 56
13, 250562, Note_on_c, 12, 62, 56
13, 250766, Note_off_c, 12, 59, 64
13, 250767, Note_off_c, 12, 62, 64
13, 251278, Note_on_c, 12, 62, 56
13, 251278, Note_on_c, 12, 59, 56
13, 251483, Note_off_c, 12, 59, 64
13, 251483, Note_off_c, 12, 62, 64
13, 251521, Note_on_c, 12, 62, 56
13, 251521, Note_on_c, 12, 59, 56
13, 251726, Note_off_c, 12, 59, 64
13, 251726, Note_off_c, 12, 62, 64
13, 251758, Note_on_c, 12, 62, 56
13, 251759, Note_on_c, 12, 59, 56
13, 251963, Note_off_c, 12, 62, 64
13, 251964, Note_off_c, 12, 59, 64
13, 251998, Note_on_c, 12, 62, 56
13, 252001, Note_on_c, 12, 59, 56
13, 252203, Note_off_c, 12, 62, 64
13, 252206, Note_off_c, 12, 59, 64
13, 252720, Note_on_c, 12, 62, 56
13, 252721, Note_on_c, 12, 59, 56
13, 252925, Note_off_c, 12, 62, 64
13, 252926, Note_off_c, 12, 59, 64
13, 252959, Note_on_c, 12, 59, 56
13, 252959, Note_on_c, 12, 62, 56
13, 253164, Note_off_c, 12, 62, 64
13, 253164, Note_off_c, 12, 59, 64
13, 253198, Note_on_c, 12, 59, 56
13, 253202, Note_on_c, 12, 62, 56
13, 253403, Note_off_c, 12, 59, 64
13, 253407, Note_off_c, 12, 62, 64
13, 253438, Note_on_c, 12, 59, 56
13, 253438, Note_on_c, 12, 62, 56
13, 253643, Note_off_c, 12, 62, 64
13, 253643, Note_off_c, 12, 59, 64
13, 254159, Note_on_c, 12, 62, 56
13, 254161, Note_on_c, 12, 59, 56
13, 254364, Note_off_c, 12, 62, 64
13, 254366, Note_off_c, 12, 59, 64
13, 254400, Note_on_c, 12, 62, 56
13, 254402, Note_on_c, 12, 59, 56
13, 254605, Note_off_c, 12, 62, 64
13, 254607, Note_off_c, 12, 59, 64
13, 254638, Note_on_c, 12, 62, 56
13, 254639, Note_on_c, 12, 59, 56
13, 254843, Note_off_c, 12, 62, 64
13, 254844, Note_off_c, 12, 59, 64
13, 254878, Note_on_c, 12, 59, 56
13, 254882, Note_on_c, 12, 62, 56
13, 255083, Note_off_c, 12, 59, 64
13, 255087, Note_off_c, 12, 62, 64
13, 255598, Note_on_c, 12, 62, 56
13, 255602, Note_on_c, 12, 59, 56
13, 255803, Note_off_c, 12, 62, 64
13, 255807, Note_off_c, 12, 59, 64
13, 255839, Note_on_c, 12, 59, 56
13, 255840, Note_on_c, 12, 62, 56
13, 256044, Note_off_c, 12, 59, 64
13, 256045, Note_off_c, 12, 62, 64
13, 256078, Note_on_c, 12, 62, 56
13, 256078, Note_on_c, 12, 59, 56
13, 256283, Note_off_c, 12, 59, 64
13, 256283, Note_off_c, 12, 62, 64
13, 256320, Note_on_c, 12, 59, 56
13, 256322, Note_on_c, 12, 62, 56
13, 256525, Note_off_c, 12, 59, 64
13, 256527, Note_off_c, 12, 62, 64
13, 257040, Note_on_c, 12, 62, 56
13, 257041, Note_on_c, 12, 59, 56
13, 257245, Note_off_c, 12, 62, 64
13, 257246, Note_off_c, 12, 59, 64
13, 257278, Note_on_c, 12, 62, 56
13, 257281, Note_on_c, 12, 59, 56
13, 257483, Note_off_c, 12, 62, 64
13, 257486, Note_off_c, 12, 59, 64
13, 257518, Note_on_c, 12, 62, 56
13, 257518, Note_on_c, 12, 59, 56
13, 257723, Note_off_c, 12, 59, 64
13, 257723, Note_off_c, 12, 62, 64
13, 257760, Note_on_c, 12, 62, 56
13, 257761, Note_on_c, 12, 59, 56
13, 257965, Note_off_c, 12, 62, 64
13, 257966, Note_off_c, 12, 59, 64
13, 258480, Note_on_c, 12, 62, 56
13, 258482, Note_on_c, 12, 59, 56
13, 258685, Note_off_c, 12, 62, 64
13, 258687, Note_off_c, 12, 59, 64
13, 258720, Note_on_c, 12, 62, 56
13, 258721, Note_on_c, 12, 59, 56
13, 258925, Note_off_c, 12, 62, 64
13, 258926, Note_off_c, 12, 59, 64
13, 258962, Note_on_c, 12, 59, 56
13, 258962, Note_on_c, 12, 62, 56
13, 259167, Note_off_c, 12, 62, 64
13, 259167, Note_off_c, 12, 59, 64
13, 259201, Note_on_c, 12, 62, 56
13, 259201, Note_on_c, 12, 59, 56
13, 259406, Note_off_c, 12, 59, 64
13, 259406, Note_off_c, 12, 62, 64
13, 259918, Note_on_c, 12, 62, 56
13, 259921, Note_on_c, 12, 59, 56
13, 260123, Note_off_c, 12, 62, 64
13, 260126, Note_off_c, 12, 59, 64
13, 260160, Note_on_c, 12, 59, 56
13, 260162, Note_on_c, 12, 62, 56
13, 260365, Note_off_c, 12, 59, 64
13, 260367, Note_off_c, 12, 62, 64
13, 260398, Note_on_c, 12, 62, 56
13, 260401, Note_on_c, 12, 59, 56
13, 260603, Note_off_c, 12, 62, 64
13, 260606, Note_off_c, 12, 59, 64
13, 260639, Note_on_c, 12, 59, 56
13, 260640, Note_on_c, 12, 62, 56
13, 260844, Note_off_c, 12, 59, 64
13, 260845, Note_off_c, 12, 62, 64
13, 260879, Note_on_c, 12, 62, 56
13, 260880, Note_on_c, 12, 59, 56
13, 261084, Note_off_c, 12, 62, 64
13, 261085, Note_off_c, 12, 59, 64
13, 261120, Note_on_c, 12, 59, 56
13, 261122, Note_on_c, 12, 62, 56
13, 261325, Note_off_c, 12, 59, 64
13, 261327, Note_off_c, 12, 62, 64
13, 261359, Note_on_c, 12, 59, 56
13, 261361, Note_on_c, 12, 62, 56
13, 261564, Note_off_c, 12, 59, 64
13, 261566, Note_off_c, 12, 62, 64
13, 261601, Note_on_c, 12, 62, 56
13, 261602, Note_on_c, 12, 59, 56
13, 261806, Note_off_c, 12, 62, 64
13, 261807, Note_off_c, 12, 59, 64
13, 261841, Note_on_c, 12, 62, 56
13, 261841, Note_on_c, 12, 59, 56
13, 262046, Note_off_c, 12, 59, 64
13, 262046, Note_off_c, 12, 62, 64
13, 262078, Note_on_c, 12, 62, 56
13, 262079, Note_on_c, 12, 59, 56
13, 262283, Note_off_c, 12, 62, 64
13, 262284, Note_off_c, 12, 59, 64
13, 262318, Note_on_c, 12, 62, 56
13, 262322, Note_on_c, 12, 59, 56
13, 262523, Note_off_c, 12, 62, 64
13, 262527, Note_off_c, 12, 59, 64
13, 262559, Note_on_c, 12, 59, 56
13, 262560, Note_on_c, 12, 62, 56
13, 262764, Note_off_c, 12, 59, 64
13, 262765, Note_off_c, 12, 62, 64
13, 262798, Note_on_c, 12, 62, 56
13, 262802, Note_on_c, 12, 59, 56
13, 263003, Note_off_c, 12, 62, 64
13, 263007, Note_off_c, 12, 59, 64
13, 263038, Note_on_c, 12, 59, 56
13, 263041, Note_on_c, 12, 62, 56
13, 263243, Note_off_c, 12, 59, 64
13, 263246, Note_off_c, 12, 62, 64
13, 263279, Note_on_c, 12, 59, 56
13, 263281, Note_on_c, 12, 62, 56
13, 263484, Note_off_c, 12, 59, 64
13, 263486, Note_off_c, 12, 62, 64
13, 263518, Note_on_c, 12, 62, 56
13, 263520, Note_on_c, 12, 59, 56
13, 263723, Note_off_c, 12, 62, 64
13, 263725, Note_off_c, 12, 59, 64
13, 263758, Note_on_c, 12, 59, 56
13, 263761, Note_on_c, 12, 62, 56
13, 263963, Note_off_c, 12, 59, 64
13, 263966, Note_off_c, 12, 62, 64
13, 263999, Note_on_c, 12, 62, 56
13, 264002, Note_on_c, 12, 59, 56
13, 264204, Note_off_c, 12, 62, 64
13, 264207, Note_off_c, 12, 59, 64
13, 264239, Note_on_c, 12, 59, 56
13, 264242, Note_on_c, 12, 62, 56
13, 264444, Note_off_c, 12, 59, 64
13, 264447, Note_off_c, 12, 62, 64
13, 264478, Note_on_c, 12, 59, 56
13, 264481, Note_on_c, 12, 62, 56
13, 264683, Note_off_c, 12, 59, 64
13, 264686, Note_off_c, 12, 62, 64
13, 264720, Note_on_c, 12, 59, 56
13, 264720, Note_on_c, 12, 62, 56
13, 264925, Note_off_c, 12, 62, 64
13, 264925, Note_off_c, 12, 59, 64
13, 264959, Note_on_c, 12, 83, 55
13, 264960, Note_on_c, 12, 62, 56
13, 264960, Note_on_c, 12, 36, 56
13, 264960, Note_on_c, 12, 59, 56
13, 265041, Note_off_c, 12, 36, 56
13, 265050, Note_off_c, 12, 83, 56
13, 265080, Note_on_c, 12, 36, 60
13, 265081, Note_on_c, 12, 83, 59
13, 265161, Note_off_c, 12, 36, 56
13, 265165, Note_off_c, 12, 59, 64
13, 265165, Note_off_c, 12, 62, 64
13, 265172, Note_off_c, 12, 83, 56
13, 265198, Note_on_c, 12, 59, 65
13, 265201, Note_on_c, 12, 36, 65
13, 265202, Note_on_c, 12, 83, 64
13, 265202, Note_on_c, 12, 62, 65
13, 265282, Note_off_c, 12, 36, 56
13, 265293, Note_off_c, 12, 83, 56
13, 265319, Note_on_c, 12, 36, 69
13, 265320, Note_on_c, 12, 83, 69
13, 265400, Note_off_c, 12, 36, 56
13, 265403, Note_off_c, 12, 59, 64
13, 265407, Note_off_c, 12, 62, 64
13, 265411, Note_off_c, 12, 83, 56
13, 265439, Note_on_c, 12, 62, 73
13, 265441, Note_on_c, 12, 36, 73
13, 265442, Note_on_c, 12, 83, 73
13, 265442, Note_on_c, 12, 59, 73
13, 265522, Note_off_c, 12, 36, 56
13, 265533, Note_off_c, 12, 83, 56
13, 265558, Note_on_c, 12, 83, 77
13, 265561, Note_on_c, 12, 36, 78
13, 265642, Note_off_c, 12, 36, 56
13, 265644, Note_off_c, 12, 62, 64
13, 265647, Note_off_c, 12, 59, 64
13, 265649, Note_off_c, 12, 83, 56
13, 265678, Note_on_c, 12, 83, 81
13, 265679, Note_on_c, 12, 62, 82
13, 265680, Note_on_c, 12, 59, 82
13, 265681, Note_on_c, 12, 36, 82
13, 265762, Note_off_c, 12, 36, 56
13, 265769, Note_off_c, 12, 83, 56
13, 265798, Note_on_c, 12, 83, 86
13, 265800, Note_on_c, 12, 36, 86
13, 265881, Note_off_c, 12, 36, 56
13, 265884, Note_off_c, 12, 62, 64
13, 265885, Note_off_c, 12, 59, 64
13, 265889, Note_off_c, 12, 83, 56
13, 265919, Note_on_c, 12, 59, 90
13, 265920, Note_on_c, 12, 62, 90
13, 265920, Note_on_c, 12, 36, 90
13, 265921, Note_on_c, 12, 83, 90
13, 266001, Note_off_c, 12, 36, 56
13, 266012, Note_off_c, 12, 83, 56
13, 266039, Note_on_c, 12, 83, 95
13, 266040, Note_on_c, 12, 36, 95
13, 266121, Note_off_c, 12, 36, 56
13, 266124, Note_off_c, 12, 59, 64
13, 266125, Note_off_c, 12, 62, 64
13, 266130, Note_off_c, 12, 83, 56
13, 266158, Note_on_c, 12, 59, 100
13, 266159, Note_on_c, 12, 62, 100
13, 266159, Note_on_c, 12, 36, 100
13, 266160, Note_on_c, 12, 83, 98
13, 266240, Note_off_c, 12, 36, 56
13, 266251, Note_off_c, 12, 83, 56
13, 266280, Note_on_c, 12, 83, 103
13, 266281, Note_on_c, 12, 36, 103
13, 266362, Note_off_c, 12, 36, 56
13, 266363, Note_off_c, 12, 59, 64
13, 266364, Note_off_c, 12, 62, 64
13, 266371, Note_off_c, 12, 83, 56
13, 266398, Note_on_c, 12, 60, 113
13, 266398, Note_on_c, 12, 88, 108
13, 266399, Note_on_c, 12, 48, 113
13, 266401, Note_on_c, 12, 76, 108
13, 266402, Note_on_c, 12, 36, 108
13, 266443, Note_off_c, 12, 60, 56
13, 266444, Note_off_c, 12, 48, 56
13, 266458, Note_on_c, 12, 48, 113
13, 266458, Note_on_c, 12, 60, 113
13, 266503, Note_off_c, 12, 60, 56
13, 266503, Note_off_c, 12, 48, 56
13, 266518, Note_on_c, 12, 48, 113
13, 266521, Note_on_c, 12, 60, 113
13, 266563, Note_off_c, 12, 48, 56
13, 266565, Note_off_c, 12, 36, 64
13, 266566, Note_off_c, 12, 60, 56
13, 266578, Note_on_c, 12, 48, 113
13, 266579, Note_on_c, 12, 60, 113
13, 266580, Note_off_c, 12, 88, 64
13, 266583, Note_off_c, 12, 76, 64
13, 266623, Note_off_c, 12, 48, 56
13, 266624, Note_off_c, 12, 60, 56
13, 266639, Note_on_c, 12, 48, 113
13, 266642, Note_on_c, 12, 60, 113
13, 266684, Note_off_c, 12, 48, 56
13, 266687, Note_off_c, 12, 60, 56
13, 266702, Note_on_c, 12, 60, 113
13, 266702, Note_on_c, 12, 48, 113
13, 266747, Note_off_c, 12, 48, 56
13, 266747, Note_off_c, 12, 60, 56
13, 266758, Note_on_c, 12, 48, 113
13, 266762, Note_on_c, 12, 60, 113
13, 266803, Note_off_c, 12, 48, 56
13, 266807, Note_off_c, 12, 60, 56
13, 266818, Note_on_c, 12, 60, 113
13, 266820, Note_on_c, 12, 48, 113
13, 266863, Note_off_c, 12, 60, 56
13, 266865, Note_off_c, 12, 48, 56
13, 266878, Note_on_c, 12, 48, 113
13, 266879, Note_on_c, 12, 55, 108
13, 266879, Note_on_c, 12, 64, 108
13, 266880, Note_on_c, 12, 60, 113
13, 266882, Note_on_c, 12, 76, 108
13, 266883, Note_on_c, 12, 36, 108
13, 266923, Note_off_c, 12, 48, 56
13, 266925, Note_off_c, 12, 60, 56
13, 266938, Note_on_c, 12, 48, 113
13, 266939, Note_on_c, 12, 60, 113
13, 266983, Note_off_c, 12, 48, 56
13, 266984, Note_off_c, 12, 60, 56
13, 266999, Note_on_c, 12, 48, 113
13, 267001, Note_on_c, 12, 60, 113
13, 267044, Note_off_c, 12, 48, 56
13, 267046, Note_off_c, 12, 60, 56
13, 267046, Note_off_c, 12, 36, 64
13, 267058, Note_on_c, 12, 48, 113
13, 267061, Note_off_c, 12, 64, 64
13, 267061, Note_off_c, 12, 55, 64
13, 267061, Note_on_c, 12, 60, 113
13, 267064, Note_off_c, 12, 76, 64
13, 267103, Note_off_c, 12, 48, 56
13, 267106, Note_off_c, 12, 60, 56
13, 267118, Note_on_c, 12, 48, 113
13, 267120, Note_on_c, 12, 60, 113
13, 267163, Note_off_c, 12, 48, 56
13, 267165, Note_off_c, 12, 60, 56
13, 267179, Note_on_c, 12, 48, 113
13, 267182, Note_on_c, 12, 60, 113
13, 267224, Note_off_c, 12, 48, 56
13, 267227, Note_off_c, 12, 60, 56
13, 267240, Note_on_c, 12, 60, 113
13, 267242, Note_on_c, 12, 48, 113
13, 267285, Note_off_c, 12, 60, 56
13, 267287, Note_off_c, 12, 48, 56
13, 267298, Note_on_c, 12, 48, 113
13, 267300, Note_on_c, 12, 60, 113
13, 267343, Note_off_c, 12, 48, 56
13, 267345, Note_off_c, 12, 60, 56
13, 267358, Note_on_c, 12, 48, 113
13, 267358, Note_on_c, 12, 60, 113
13, 267358, Note_on_c, 12, 55, 108
13, 267359, Note_on_c, 12, 79, 108
13, 267359, Note_on_c, 12, 64, 108
13, 267363, Note_on_c, 12, 36, 108
13, 267403, Note_off_c, 12, 60, 56
13, 267403, Note_off_c, 12, 48, 56
13, 267419, Note_on_c, 12, 60, 113
13, 267420, Note_on_c, 12, 48, 113
13, 267464, Note_off_c, 12, 60, 56
13, 267465, Note_off_c, 12, 48, 56
13, 267480, Note_on_c, 12, 60, 113
13, 267481, Note_on_c, 12, 48, 113
13, 267525, Note_off_c, 12, 60, 56
13, 267526, Note_off_c, 12, 48, 56
13, 267540, Note_off_c, 12, 55, 64
13, 267540, Note_on_c, 12, 60, 113
13, 267541, Note_off_c, 12, 64, 64
13, 267541, Note_on_c, 12, 48, 113
13, 267585, Note_off_c, 12, 60, 56
13, 267586, Note_off_c, 12, 48, 56
13, 267598, Note_on_c, 12, 60, 113
13, 267602, Note_on_c, 12, 48, 113
13, 267643, Note_off_c, 12, 60, 56
13, 267647, Note_off_c, 12, 48, 56
13, 267661, Note_on_c, 12, 60, 113
13, 267662, Note_on_c, 12, 48, 113
13, 267706, Note_off_c, 12, 60, 56
13, 267707, Note_off_c, 12, 48, 56
13, 267722, Note_on_c, 12, 48, 113
13, 267722, Note_on_c, 12, 60, 113
13, 267767, Note_off_c, 12, 60, 56
13, 267767, Note_off_c, 12, 48, 56
13, 267778, Note_on_c, 12, 48, 113
13, 267778, Note_on_c, 12, 60, 113
13, 267823, Note_off_c, 12, 60, 56
13, 267823, Note_off_c, 12, 48, 56
13, 267838, Note_on_c, 12, 60, 113
13, 267839, Note_on_c, 12, 48, 113
13, 267881, Note_off_c, 12, 36, 64
13, 267883, Note_off_c, 12, 60, 56
13, 267884, Note_off_c, 12, 48, 56
13, 267900, Note_on_c, 12, 60, 113
13, 267902, Note_on_c, 12, 48, 113
13, 267945, Note_off_c, 12, 60, 56
13, 267947, Note_off_c, 12, 48, 56
13, 267958, Note_on_c, 12, 60, 113
13, 267959, Note_on_c, 12, 48, 113
13, 267983, Note_off_c, 12, 79, 64
13, 268003, Note_off_c, 12, 60, 56
13, 268004, Note_off_c, 12, 48, 56
13, 268018, Note_on_c, 12, 60, 113
13, 268019, Note_on_c, 12, 48, 113
13, 268063, Note_off_c, 12, 60, 56
13, 268064, Note_off_c, 12, 48, 56
13, 268078, Note_on_c, 12, 62, 108
13, 268079, Note_on_c, 12, 31, 108
13, 268080, Note_on_c, 12, 77, 108
13, 268081, Note_on_c, 12, 59, 113
13, 268082, Note_on_c, 12, 50, 113
13, 268082, Note_on_c, 12, 55, 108
13, 268126, Note_off_c, 12, 59, 56
13, 268127, Note_off_c, 12, 50, 56
13, 268138, Note_on_c, 12, 59, 113
13, 268139, Note_on_c, 12, 50, 113
13, 268160, Note_off_c, 12, 31, 56
13, 268169, Note_off_c, 12, 62, 56
13, 268171, Note_off_c, 12, 77, 56
13, 268173, Note_off_c, 12, 55, 56
13, 268183, Note_off_c, 12, 59, 56
13, 268184, Note_off_c, 12, 50, 56
13, 268198, Note_on_c, 12, 59, 113
13, 268201, Note_on_c, 12, 50, 113
13, 268243, Note_off_c, 12, 59, 56
13, 268246, Note_off_c, 12, 50, 56
13, 268258, Note_on_c, 12, 50, 113
13, 268260, Note_on_c, 12, 59, 113
13, 268303, Note_off_c, 12, 50, 56
13, 268305, Note_off_c, 12, 59, 56
13, 268318, Note_on_c, 12, 55, 108
13, 268319, Note_on_c, 12, 48, 113
13, 268319, Note_on_c, 12, 76, 108
13, 268319, Note_on_c, 12, 36, 108
13, 268320, Note_on_c, 12, 60, 113
13, 268322, Note_on_c, 12, 64, 108
13, 268364, Note_off_c, 12, 48, 56
13, 268365, Note_off_c, 12, 60, 56
13, 268378, Note_on_c, 12, 48, 113
13, 268382, Note_on_c, 12, 60, 113
13, 268400, Note_off_c, 12, 36, 56
13, 268409, Note_off_c, 12, 55, 56
13, 268410, Note_off_c, 12, 76, 56
13, 268413, Note_off_c, 12, 64, 56
13, 268423, Note_off_c, 12, 48, 56
13, 268427, Note_off_c, 12, 60, 56
13, 268438, Note_on_c, 12, 48, 113
13, 268442, Note_on_c, 12, 60, 113
13, 268483, Note_off_c, 12, 48, 56
13, 268487, Note_off_c, 12, 60, 56
13, 268502, Note_on_c, 12, 60, 113
13, 268502, Note_on_c, 12, 48, 113
13, 268547, Note_off_c, 12, 48, 56
13, 268547, Note_off_c, 12, 60, 56
13, 268558, Note_on_c, 12, 74, 108
13, 268559, Note_on_c, 12, 59, 113
13, 268559, Note_on_c, 12, 65, 108
13, 268560, Note_on_c, 12, 55, 108
13, 268561, Note_on_c, 12, 31, 108
13, 268562, Note_on_c, 12, 50, 113
13, 268604, Note_off_c, 12, 59, 56
13, 268607, Note_off_c, 12, 50, 56
13, 268619, Note_on_c, 12, 50, 113
13, 268621, Note_on_c, 12, 59, 113
13, 268642, Note_off_c, 12, 31, 56
13, 268649, Note_off_c, 12, 74, 56
13, 268650, Note_off_c, 12, 65, 56
13, 268651, Note_off_c, 12, 55, 56
13, 268664, Note_off_c, 12, 50, 56
13, 268666, Note_off_c, 12, 59, 56
13, 268681, Note_on_c, 12, 50, 113
13, 268682, Note_on_c, 12, 59, 113
13, 268726, Note_off_c, 12, 50, 56
13, 268727, Note_off_c, 12, 59, 56
13, 268741, Note_on_c, 12, 59, 113
13, 268742, Note_on_c, 12, 50, 113
13, 268786, Note_off_c, 12, 59, 56
13, 268787, Note_off_c, 12, 50, 56
13, 268798, Note_on_c, 12, 48, 113
13, 268799, Note_on_c, 12, 60, 113
13, 268799, Note_on_c, 12, 36, 108
13, 268800, Note_on_c, 12, 55, 108
13, 268802, Note_on_c, 12, 72, 108
13, 268802, Note_on_c, 12, 64, 108
13, 268843, Note_off_c, 12, 48, 56
13, 268844, Note_off_c, 12, 60, 56
13, 268859, Note_on_c, 12, 60, 113
13, 268862, Note_on_c, 12, 48, 113
13, 268880, Note_off_c, 12, 36, 56
13, 268891, Note_off_c, 12, 55, 56
13, 268893, Note_off_c, 12, 64, 56
13, 268893, Note_off_c, 12, 72, 56
13, 268904, Note_off_c, 12, 60, 56
13, 268907, Note_off_c, 12, 48, 56
13, 268918, Note_on_c, 12, 60, 113
13, 268920, Note_on_c, 12, 48, 113
13, 268963, Note_off_c, 12, 60, 56
13, 268965, Note_off_c, 12, 48, 56
13, 268978, Note_on_c, 12, 48, 113
13, 268982, Note_on_c, 12, 60, 113
13, 269023, Note_off_c, 12, 48, 56
13, 269027, Note_off_c, 12, 60, 56
13, 269038, Note_on_c, 12, 65, 108
13, 269039, Note_on_c, 12, 74, 108
13, 269040, Note_on_c, 12, 50, 113
13, 269040, Note_on_c, 12, 59, 113
13, 269041, Note_on_c, 12, 55, 108
13, 269041, Note_on_c, 12, 31, 108
13, 269085, Note_off_c, 12, 59, 56
13, 269085, Note_off_c, 12, 50, 56
13, 269098, Note_on_c, 12, 50, 113
13, 269102, Note_on_c, 12, 59, 113
13, 269122, Note_off_c, 12, 31, 56
13, 269129, Note_off_c, 12, 65, 56
13, 269130, Note_off_c, 12, 74, 56
13, 269132, Note_off_c, 12, 55, 56
13, 269143, Note_off_c, 12, 50, 56
13, 269147, Note_off_c, 12, 59, 56
13, 269159, Note_on_c, 12, 59, 113
13, 269160, Note_on_c, 12, 50, 113
13, 269204, Note_off_c, 12, 59, 56
13, 269205, Note_off_c, 12, 50, 56
13, 269221, Note_on_c, 12, 59, 113
13, 269221, Note_on_c, 12, 50, 113
13, 269266, Note_off_c, 12, 50, 56
13, 269266, Note_off_c, 12, 59, 56
13, 269278, Note_on_c, 12, 48, 113
13, 269278, Note_on_c, 12, 36, 108
13, 269279, Note_on_c, 12, 52, 113
13, 269281, Note_on_c, 12, 64, 108
13, 269281, Note_on_c, 12, 72, 108
13, 269282, Note_on_c, 12, 55, 108
13, 269323, Note_off_c, 12, 48, 56
13, 269324, Note_off_c, 12, 52, 56
13, 269338, Note_on_c, 12, 52, 113
13, 269339, Note_on_c, 12, 48, 113
13, 269383, Note_off_c, 12, 52, 56
13, 269384, Note_off_c, 12, 48, 56
13, 269400, Note_on_c, 12, 52, 113
13, 269402, Note_on_c, 12, 48, 113
13, 269445, Note_off_c, 12, 52, 56
13, 269447, Note_off_c, 12, 48, 56
13, 269460, Note_on_c, 12, 52, 113
13, 269462, Note_on_c, 12, 48, 113
13, 269463, Note_off_c, 12, 64, 64
13, 269464, Note_off_c, 12, 55, 64
13, 269505, Note_off_c, 12, 52, 56
13, 269507, Note_off_c, 12, 48, 56
13, 269519, Note_on_c, 12, 52, 113
13, 269522, Note_on_c, 12, 48, 113
13, 269564, Note_off_c, 12, 52, 56
13, 269567, Note_off_c, 12, 48, 56
13, 269579, Note_on_c, 12, 48, 113
13, 269581, Note_on_c, 12, 52, 113
13, 269624, Note_off_c, 12, 48, 56
13, 269626, Note_off_c, 12, 52, 56
13, 269641, Note_on_c, 12, 48, 113
13, 269642, Note_on_c, 12, 52, 113
13, 269686, Note_off_c, 12, 48, 56
13, 269687, Note_off_c, 12, 52, 56
13, 269699, Note_on_c, 12, 52, 113
13, 269699, Note_on_c, 12, 48, 113
13, 269744, Note_off_c, 12, 48, 56
13, 269744, Note_off_c, 12, 52, 56
13, 269758, Note_on_c, 12, 52, 113
13, 269759, Note_on_c, 12, 48, 113
13, 269796, Note_off_c, 12, 36, 64
13, 269803, Note_off_c, 12, 52, 56
13, 269804, Note_off_c, 12, 48, 56
13, 269820, Note_on_c, 12, 52, 113
13, 269822, Note_on_c, 12, 48, 113
13, 269857, Note_off_c, 12, 72, 64
13, 269865, Note_off_c, 12, 52, 56
13, 269867, Note_off_c, 12, 48, 56
13, 269882, Note_on_c, 12, 52, 113
13, 269882, Note_on_c, 12, 48, 113
13, 269927, Note_off_c, 12, 48, 56
13, 269927, Note_off_c, 12, 52, 56
13, 269941, Note_on_c, 12, 52, 113
13, 269942, Note_on_c, 12, 48, 113
13, 269986, Note_off_c, 12, 52, 56
13, 269987, Note_off_c, 12, 48, 56
13, 269998, Note_on_c, 12, 72, 108
13, 269999, Note_on_c, 12, 48, 113
13, 270002, Note_on_c, 12, 52, 113
13, 270002, Note_on_c, 12, 36, 108
13, 270044, Note_off_c, 12, 48, 56
13, 270047, Note_off_c, 12, 52, 56
13, 270059, Note_on_c, 12, 48, 113
13, 270060, Note_on_c, 12, 52, 113
13, 270104, Note_off_c, 12, 48, 56
13, 270105, Note_off_c, 12, 52, 56
13, 270120, Note_on_c, 12, 52, 113
13, 270120, Note_on_c, 12, 48, 113
13, 270124, Note_off_c, 12, 36, 64
13, 270134, Note_off_c, 12, 72, 64
13, 270165, Note_off_c, 12, 48, 56
13, 270165, Note_off_c, 12, 52, 56
13, 270179, Note_on_c, 12, 52, 113
13, 270180, Note_on_c, 12, 72, 113
13, 270180, Note_on_c, 12, 36, 113
13, 270181, Note_on_c, 12, 48, 113
13, 270220, Note_off_c, 12, 36, 56
13, 270224, Note_off_c, 12, 52, 56
13, 270225, Note_off_c, 12, 72, 56
13, 270226, Note_off_c, 12, 48, 56
13, 270241, Note_on_c, 12, 67, 108
13, 270241, Note_on_c, 12, 74, 108
13, 270241, Note_on_c, 12, 55, 108
13, 270242, Note_on_c, 12, 50, 113
13, 270242, Note_on_c, 12, 31, 108
13, 270287, Note_off_c, 12, 50, 56
13, 270300, Note_on_c, 12, 55, 113
13, 270301, Note_on_c, 12, 50, 113
13, 270345, Note_off_c, 12, 55, 56
13, 270346, Note_off_c, 12, 50, 56
13, 270359, Note_on_c, 12, 55, 113
13, 270360, Note_on_c, 12, 50, 113
13, 270404, Note_off_c, 12, 55, 56
13, 270405, Note_off_c, 12, 50, 56
13, 270419, Note_on_c, 12, 55, 113
13, 270422, Note_on_c, 12, 50, 113
13, 270423, Note_off_c, 12, 55, 64
13, 270423, Note_off_c, 12, 67, 64
13, 270464, Note_off_c, 12, 55, 56
13, 270467, Note_off_c, 12, 50, 56
13, 270478, Note_on_c, 12, 50, 113
13, 270481, Note_on_c, 12, 55, 113
13, 270523, Note_off_c, 12, 50, 56
13, 270526, Note_off_c, 12, 55, 56
13, 270540, Note_on_c, 12, 50, 113
13, 270541, Note_on_c, 12, 55, 113
13, 270585, Note_off_c, 12, 50, 56
13, 270586, Note_off_c, 12, 55, 56
13, 270598, Note_on_c, 12, 55, 113
13, 270600, Note_on_c, 12, 50, 113
13, 270643, Note_off_c, 12, 55, 56
13, 270645, Note_off_c, 12, 50, 56
13, 270661, Note_on_c, 12, 50, 113
13, 270662, Note_on_c, 12, 55, 113
13, 270706, Note_off_c, 12, 50, 56
13, 270707, Note_off_c, 12, 55, 56
13, 270720, Note_on_c, 12, 55, 113
13, 270721, Note_on_c, 12, 50, 113
13, 270760, Note_off_c, 12, 31, 64
13, 270765, Note_off_c, 12, 55, 56
13, 270766, Note_off_c, 12, 50, 56
13, 270778, Note_on_c, 12, 50, 113
13, 270780, Note_on_c, 12, 55, 113
13, 270817, Note_off_c, 12, 74, 64
13, 270823, Note_off_c, 12, 50, 56
13, 270825, Note_off_c, 12, 55, 56
13, 270838, Note_on_c, 12, 50, 113
13, 270840, Note_on_c, 12, 55, 113
13, 270883, Note_off_c, 12, 50, 56
13, 270885, Note_off_c, 12, 55, 56
13, 270898, Note_on_c, 12, 55, 113
13, 270899, Note_on_c, 12, 50, 113
13, 270943, Note_off_c, 12, 55, 56
13, 270944, Note_off_c, 12, 50, 56
13, 270959, Note_on_c, 12, 55, 113
13, 270959, Note_on_c, 12, 31, 108
13, 270961, Note_on_c, 12, 74, 108
13, 270961, Note_on_c, 12, 50, 113
13, 271004, Note_off_c, 12, 55, 56
13, 271006, Note_off_c, 12, 50, 56
13, 271022, Note_on_c, 12, 55, 113
13, 271022, Note_on_c, 12, 50, 113
13, 271067, Note_off_c, 12, 50, 56
13, 271067, Note_off_c, 12, 55, 56
13, 271081, Note_off_c, 12, 31, 64
13, 271081, Note_on_c, 12, 55, 113
13, 271082, Note_on_c, 12, 50, 113
13, 271097, Note_off_c, 12, 74, 64
13, 271126, Note_off_c, 12, 55, 56
13, 271127, Note_off_c, 12, 50, 56
13, 271138, Note_on_c, 12, 74, 113
13, 271140, Note_on_c, 12, 31, 113
13, 271141, Note_on_c, 12, 55, 113
13, 271141, Note_on_c, 12, 50, 113
13, 271180, Note_off_c, 12, 31, 56
13, 271183, Note_off_c, 12, 74, 56
13, 271186, Note_off_c, 12, 50, 56
13, 271186, Note_off_c, 12, 55, 56
13, 271198, Note_on_c, 12, 60, 108
13, 271198, Note_on_c, 12, 55, 113
13, 271200, Note_on_c, 12, 76, 108
13, 271200, Note_on_c, 12, 52, 113
13, 271200, Note_on_c, 12, 72, 108
13, 271201, Note_on_c, 12, 67, 108
13, 271201, Note_on_c, 12, 36, 108
13, 271243, Note_off_c, 12, 55, 56
13, 271245, Note_off_c, 12, 52, 56
13, 271260, Note_on_c, 12, 52, 113
13, 271261, Note_on_c, 12, 55, 113
13, 271305, Note_off_c, 12, 52, 56
13, 271306, Note_off_c, 12, 55, 56
13, 271318, Note_on_c, 12, 52, 113
13, 271319, Note_on_c, 12, 55, 113
13, 271363, Note_off_c, 12, 52, 56
13, 271364, Note_off_c, 12, 55, 56
13, 271379, Note_on_c, 12, 55, 113
13, 271380, Note_off_c, 12, 60, 64
13, 271382, Note_off_c, 12, 72, 64
13, 271382, Note_on_c, 12, 52, 113
13, 271383, Note_off_c, 12, 67, 64
13, 271424, Note_off_c, 12, 55, 56
13, 271427, Note_off_c, 12, 52, 56
13, 271439, Note_on_c, 12, 55, 113
13, 271441, Note_on_c, 12, 52, 113
13, 271484, Note_off_c, 12, 55, 56
13, 271486, Note_off_c, 12, 52, 56
13, 271501, Note_on_c, 12, 52, 113
13, 271501, Note_on_c, 12, 55, 113
13, 271546, Note_off_c, 12, 55, 56
13, 271546, Note_off_c, 12, 52, 56
13, 271561, Note_on_c, 12, 52, 113
13, 271561, Note_on_c, 12, 55, 113
13, 271606, Note_off_c, 12, 55, 56
13, 271606, Note_off_c, 12, 52, 56
13, 271621, Note_on_c, 12, 55, 113
13, 271622, Note_on_c, 12, 52, 113
13, 271666, Note_off_c, 12, 55, 56
13, 271667, Note_off_c, 12, 52, 56
13, 271680, Note_on_c, 12, 55, 113
13, 271680, Note_on_c, 12, 52, 113
13, 271725, Note_off_c, 12, 52, 56
13, 271725, Note_off_c, 12, 55, 56
13, 271739, Note_on_c, 12, 55, 113
13, 271740, Note_on_c, 12, 52, 113
13, 271776, Note_off_c, 12, 76, 64
13, 271784, Note_off_c, 12, 55, 56
13, 271785, Note_off_c, 12, 52, 56
13, 271798, Note_on_c, 12, 72, 108
13, 271799, Note_on_c, 12, 55, 113
13, 271800, Note_on_c, 12, 52, 113
13, 271844, Note_off_c, 12, 55, 56
13, 271845, Note_off_c, 12, 52, 56
13, 271861, Note_on_c, 12, 52, 113
13, 271861, Note_on_c, 12, 55, 113
13, 271866, Note_off_c, 12, 72, 56
13, 271906, Note_off_c, 12, 55, 56
13, 271906, Note_off_c, 12, 52, 56
13, 271919, Note_on_c, 12, 52, 113
13, 271922, Note_on_c, 12, 55, 113
13, 271922, Note_on_c, 12, 74, 108
13, 271964, Note_off_c, 12, 52, 56
13, 271967, Note_off_c, 12, 55, 56
13, 271969, Note_off_c, 12, 36, 64
13, 271980, Note_on_c, 12, 52, 113
13, 271980, Note_on_c, 12, 55, 113
13, 271990, Note_off_c, 12, 74, 56
13, 272025, Note_off_c, 12, 55, 56
13, 272025, Note_off_c, 12, 52, 56
13, 272039, Note_on_c, 12, 55, 113
13, 272039, Note_on_c, 12, 52, 113
13, 272041, Note_on_c, 12, 76, 108
13, 272084, Note_off_c, 12, 52, 56
13, 272084, Note_off_c, 12, 55, 56
13, 272098, Note_on_c, 12, 55, 113
13, 272099, Note_on_c, 12, 52, 113
13, 272109, Note_off_c, 12, 76, 56
13, 272143, Note_off_c, 12, 55, 56
13, 272144, Note_off_c, 12, 52, 56
13, 272157, Note_on_c, 12, 33, 108
13, 272158, Note_on_c, 12, 53, 113
13, 272159, Note_on_c, 12, 57, 113
13, 272161, Note_on_c, 12, 77, 108
13, 272203, Note_off_c, 12, 53, 56
13, 272204, Note_off_c, 12, 57, 56
13, 272219, Note_on_c, 12, 57, 113
13, 272220, Note_on_c, 12, 53, 113
13, 272229, Note_off_c, 12, 77, 56
13, 272264, Note_off_c, 12, 57, 56
13, 272265, Note_off_c, 12, 53, 56
13, 272278, Note_on_c, 12, 76, 108
13, 272282, Note_on_c, 12, 57, 113
13, 272282, Note_on_c, 12, 53, 113
13, 272327, Note_off_c, 12, 53, 56
13, 272327, Note_off_c, 12, 57, 56
13, 272338, Note_on_c, 12, 53, 113
13, 272338, Note_on_c, 12, 57, 113
13, 272346, Note_off_c, 12, 76, 56
13, 272383, Note_off_c, 12, 57, 56
13, 272383, Note_off_c, 12, 53, 56
13, 272398, Note_on_c, 12, 77, 108
13, 272398, Note_on_c, 12, 53, 113
13, 272401, Note_on_c, 12, 57, 113
13, 272443, Note_off_c, 12, 53, 56
13, 272446, Note_off_c, 12, 57, 56
13, 272461, Note_on_c, 12, 57, 113
13, 272462, Note_on_c, 12, 53, 113
13, 272466, Note_off_c, 12, 77, 56
13, 272502, Note_off_c, 12, 33, 64
13, 272506, Note_off_c, 12, 57, 56
13, 272507, Note_off_c, 12, 53, 56
13, 272518, Note_on_c, 12, 57, 113
13, 272520, Note_on_c, 12, 79, 108
13, 272520, Note_on_c, 12, 53, 113
13, 272563, Note_off_c, 12, 57, 56
13, 272565, Note_off_c, 12, 53, 56
13, 272578, Note_on_c, 12, 53, 113
13, 272581, Note_on_c, 12, 57, 113
13, 272588, Note_off_c, 12, 79, 56
13, 272623, Note_off_c, 12, 53, 56
13, 272626, Note_off_c, 12, 57, 56
13, 272638, Note_on_c, 12, 57, 113
13, 272638, Note_on_c, 12, 29, 108
13, 272641, Note_on_c, 12, 81, 108
13, 272642, Note_on_c, 12, 53, 113
13, 272683, Note_off_c, 12, 57, 56
13, 272687, Note_off_c, 12, 53, 56
13, 272699, Note_on_c, 12, 57, 113
13, 272702, Note_on_c, 12, 53, 113
13, 272709, Note_off_c, 12, 81, 56
13, 272744, Note_off_c, 12, 57, 56
13, 272747, Note_off_c, 12, 53, 56
13, 272758, Note_on_c, 12, 53, 113
13, 272759, Note_on_c, 12, 79, 108
13, 272761, Note_on_c, 12, 57, 113
13, 272803, Note_off_c, 12, 53, 56
13, 272806, Note_off_c, 12, 57, 56
13, 272820, Note_on_c, 12, 53, 113
13, 272822, Note_on_c, 12, 57, 113
13, 272827, Note_off_c, 12, 79, 56
13, 272865, Note_off_c, 12, 53, 56
13, 272867, Note_off_c, 12, 57, 56
13, 272878, Note_on_c, 12, 81, 108
13, 272880, Note_on_c, 12, 57, 113
13, 272882, Note_on_c, 12, 53, 113
13, 272925, Note_off_c, 12, 57, 56
13, 272927, Note_off_c, 12, 53, 56
13, 272940, Note_on_c, 12, 57, 113
13, 272942, Note_on_c, 12, 53, 113
13, 272946, Note_off_c, 12, 81, 56
13, 272983, Note_off_c, 12, 29, 64
13, 272985, Note_off_c, 12, 57, 56
13, 272987, Note_off_c, 12, 53, 56
13, 272999, Note_on_c, 12, 53, 113
13, 273000, Note_on_c, 12, 57, 113
13, 273002, Note_on_c, 12, 83, 108
13, 273044, Note_off_c, 12, 53, 56
13, 273045, Note_off_c, 12, 57, 56
13, 273059, Note_on_c, 12, 53, 113
13, 273060, Note_on_c, 12, 57, 113
13, 273070, Note_off_c, 12, 83, 56
13, 273104, Note_off_c, 12, 53, 56
13, 273105, Note_off_c, 12, 57, 56
13, 273119, Note_on_c, 12, 52, 113
13, 273119, Note_on_c, 12, 84, 108
13, 273120, Note_on_c, 12, 28, 108
13, 273120, Note_on_c, 12, 55, 113
13, 273164, Note_off_c, 12, 52, 56
13, 273165, Note_off_c, 12, 55, 56
13, 273178, Note_on_c, 12, 55, 113
13, 273180, Note_on_c, 12, 52, 113
13, 273201, Note_off_c, 12, 28, 56
13, 273223, Note_off_c, 12, 55, 56
13, 273225, Note_off_c, 12, 52, 56
13, 273238, Note_on_c, 12, 52, 113
13, 273240, Note_on_c, 12, 29, 108
13, 273241, Note_on_c, 12, 55, 113
13, 273283, Note_off_c, 12, 52, 56
13, 273286, Note_off_c, 12, 55, 56
13, 273301, Note_on_c, 12, 52, 113
13, 273302, Note_on_c, 12, 55, 113
13, 273321, Note_off_c, 12, 29, 56
13, 273346, Note_off_c, 12, 52, 56
13, 273347, Note_off_c, 12, 55, 56
13, 273359, Note_on_c, 12, 55, 113
13, 273361, Note_on_c, 12, 52, 113
13, 273361, Note_on_c, 12, 28, 108
13, 273404, Note_off_c, 12, 55, 56
13, 273406, Note_off_c, 12, 52, 56
13, 273418, Note_on_c, 12, 52, 113
13, 273421, Note_on_c, 12, 55, 113
13, 273442, Note_off_c, 12, 28, 56
13, 273463, Note_off_c, 12, 52, 56
13, 273466, Note_off_c, 12, 55, 56
13, 273478, Note_on_c, 12, 55, 113
13, 273481, Note_on_c, 12, 26, 108
13, 273482, Note_on_c, 12, 52, 113
13, 273523, Note_off_c, 12, 55, 56
13, 273527, Note_off_c, 12, 52, 56
13, 273540, Note_on_c, 12, 52, 113
13, 273540, Note_on_c, 12, 55, 113
13, 273562, Note_off_c, 12, 26, 56
13, 273585, Note_off_c, 12, 55, 56
13, 273585, Note_off_c, 12, 52, 56
13, 273599, Note_on_c, 12, 52, 113
13, 273599, Note_on_c, 12, 24, 108
13, 273602, Note_on_c, 12, 55, 113
13, 273644, Note_off_c, 12, 52, 56
13, 273647, Note_off_c, 12, 55, 56
13, 273660, Note_on_c, 12, 55, 113
13, 273660, Note_on_c, 12, 52, 113
13, 273696, Note_off_c, 12, 84, 64
13, 273705, Note_off_c, 12, 52, 56
13, 273705, Note_off_c, 12, 55, 56
13, 273718, Note_on_c, 12, 52, 113
13, 273720, Note_on_c, 12, 72, 108
13, 273721, Note_on_c, 12, 55, 113
13, 273763, Note_off_c, 12, 52, 56
13, 273766, Note_off_c, 12, 55, 56
13, 273780, Note_on_c, 12, 55, 113
13, 273782, Note_on_c, 12, 52, 113
13, 273788, Note_off_c, 12, 72, 56
13, 273825, Note_off_c, 12, 55, 56
13, 273827, Note_off_c, 12, 52, 56
13, 273838, Note_on_c, 12, 55, 113
13, 273839, Note_on_c, 12, 52, 113
13, 273840, Note_on_c, 12, 74, 108
13, 273883, Note_off_c, 12, 55, 56
13, 273884, Note_off_c, 12, 52, 56
13, 273901, Note_on_c, 12, 55, 113
13, 273901, Note_on_c, 12, 52, 113
13, 273908, Note_off_c, 12, 74, 56
13, 273944, Note_off_c, 12, 24, 64
13, 273946, Note_off_c, 12, 52, 56
13, 273946, Note_off_c, 12, 55, 56
13, 273958, Note_on_c, 12, 52, 113
13, 273960, Note_on_c, 12, 55, 113
13, 273961, Note_on_c, 12, 76, 108
13, 274003, Note_off_c, 12, 52, 56
13, 274005, Note_off_c, 12, 55, 56
13, 274018, Note_on_c, 12, 52, 113
13, 274022, Note_on_c, 12, 55, 113
13, 274029, Note_off_c, 12, 76, 56
13, 274063, Note_off_c, 12, 52, 56
13, 274067, Note_off_c, 12, 55, 56
13, 274079, Note_on_c, 12, 77, 108
13, 274079, Note_on_c, 12, 33, 108
13, 274080, Note_on_c, 12, 53, 113
13, 274082, Note_on_c, 12, 57, 113
13, 274125, Note_off_c, 12, 53, 56
13, 274127, Note_off_c, 12, 57, 56
13, 274138, Note_on_c, 12, 57, 113
13, 274141, Note_on_c, 12, 53, 113
13, 274147, Note_off_c, 12, 77, 56
13, 274183, Note_off_c, 12, 57, 56
13, 274186, Note_off_c, 12, 53, 56
13, 274200, Note_on_c, 12, 57, 113
13, 274201, Note_on_c, 12, 76, 108
13, 274201, Note_on_c, 12, 53, 113
13, 274245, Note_off_c, 12, 57, 56
13, 274246, Note_off_c, 12, 53, 56
13, 274259, Note_on_c, 12, 53, 113
13, 274259, Note_on_c, 12, 57, 113
13, 274269, Note_off_c, 12, 76, 56
13, 274304, Note_off_c, 12, 57, 56
13, 274304, Note_off_c, 12, 53, 56
13, 274318, Note_on_c, 12, 57, 113
13, 274319, Note_on_c, 12, 53, 113
13, 274322, Note_on_c, 12, 77, 108
13, 274363, Note_off_c, 12, 57, 56
13, 274364, Note_off_c, 12, 53, 56
13, 274379, Note_on_c, 12, 53, 113
13, 274381, Note_on_c, 12, 57, 113
13, 274390, Note_off_c, 12, 77, 56
13, 274424, Note_off_c, 12, 53, 56
13, 274424, Note_off_c, 12, 33, 64
13, 274426, Note_off_c, 12, 57, 56
13, 274440, Note_on_c, 12, 57, 113
13, 274442, Note_on_c, 12, 79, 108
13, 274442, Note_on_c, 12, 53, 113
13, 274485, Note_off_c, 12, 57, 56
13, 274487, Note_off_c, 12, 53, 56
13, 274501, Note_on_c, 12, 57, 113
13, 274501, Note_on_c, 12, 53, 113
13, 274510, Note_off_c, 12, 79, 56
13, 274546, Note_off_c, 12, 53, 56
13, 274546, Note_off_c, 12, 57, 56
13, 274557, Note_on_c, 12, 29, 108
13, 274560, Note_on_c, 12, 57, 113
13, 274561, Note_on_c, 12, 81, 108
13, 274562, Note_on_c, 12, 53, 113
13, 274605, Note_off_c, 12, 57, 56
13, 274607, Note_off_c, 12, 53, 56
13, 274619, Note_on_c, 12, 53, 113
13, 274619, Note_on_c, 12, 57, 113
13, 274629, Note_off_c, 12, 81, 56
13, 274664, Note_off_c, 12, 57, 56
13, 274664, Note_off_c, 12, 53, 56
13, 274679, Note_on_c, 12, 79, 108
13, 274680, Note_on_c, 12, 57, 113
13, 274681, Note_on_c, 12, 53, 113
13, 274725, Note_off_c, 12, 57, 56
13, 274726, Note_off_c, 12, 53, 56
13, 274742, Note_on_c, 12, 57, 113
13, 274742, Note_on_c, 12, 53, 113
13, 274747, Note_off_c, 12, 79, 56
13, 274787, Note_off_c, 12, 53, 56
13, 274787, Note_off_c, 12, 57, 56
13, 274798, Note_on_c, 12, 53, 113
13, 274800, Note_on_c, 12, 57, 113
13, 274802, Note_on_c, 12, 81, 108
13, 274843, Note_off_c, 12, 53, 56
13, 274845, Note_off_c, 12, 57, 56
13, 274859, Note_on_c, 12, 53, 113
13, 274861, Note_on_c, 12, 57, 113
13, 274870, Note_off_c, 12, 81, 56
13, 274902, Note_off_c, 12, 29, 64
13, 274904, Note_off_c, 12, 53, 56
13, 274906, Note_off_c, 12, 57, 56
13, 274918, Note_on_c, 12, 57, 113
13, 274918, Note_on_c, 12, 53, 113
13, 274920, Note_on_c, 12, 83, 108
13, 274963, Note_off_c, 12, 53, 56
13, 274963, Note_off_c, 12, 57, 56
13, 274979, Note_on_c, 12, 53, 113
13, 274980, Note_on_c, 12, 57, 113
13, 274988, Note_off_c, 12, 83, 56
13, 275024, Note_off_c, 12, 53, 56
13, 275025, Note_off_c, 12, 57, 56
13, 275039, Note_on_c, 12, 28, 108
13, 275040, Note_on_c, 12, 52, 113
13, 275040, Note_on_c, 12, 84, 108
13, 275041, Note_on_c, 12, 55, 113
13, 275085, Note_off_c, 12, 52, 56
13, 275086, Note_off_c, 12, 55, 56
13, 275102, Note_on_c, 12, 55, 113
13, 275102, Note_on_c, 12, 52, 113
13, 275120, Note_off_c, 12, 28, 56
13, 275147, Note_off_c, 12, 52, 56
13, 275147, Note_off_c, 12, 55, 56
13, 275160, Note_on_c, 12, 52, 113
13, 275160, Note_on_c, 12, 29, 108
13, 275160, Note_on_c, 12, 55, 113
13, 275205, Note_off_c, 12, 55, 56
13, 275205, Note_off_c, 12, 52, 56
13, 275222, Note_on_c, 12, 52, 113
13, 275222, Note_on_c, 12, 55, 113
13, 275241, Note_off_c, 12, 29, 56
13, 275267, Note_off_c, 12, 55, 56
13, 275267, Note_off_c, 12, 52, 56
13, 275280, Note_on_c, 12, 52, 113
13, 275281, Note_on_c, 12, 55, 113
13, 275281, Note_on_c, 12, 28, 108
13, 275325, Note_off_c, 12, 52, 56
13, 275326, Note_off_c, 12, 55, 56
13, 275340, Note_on_c, 12, 52, 113
13, 275342, Note_on_c, 12, 55, 113
13, 275362, Note_off_c, 12, 28, 56
13, 275385, Note_off_c, 12, 52, 56
13, 275387, Note_off_c, 12, 55, 56
13, 275399, Note_on_c, 12, 55, 113
13, 275400, Note_on_c, 12, 26, 108
13, 275402, Note_on_c, 12, 52, 113
13, 275444, Note_off_c, 12, 55, 56
13, 275447, Note_off_c, 12, 52, 56
13, 275459, Note_on_c, 12, 52, 113
13, 275460, Note_on_c, 12, 55, 113
13, 275481, Note_off_c, 12, 26, 56
13, 275504, Note_off_c, 12, 52, 56
13, 275505, Note_off_c, 12, 55, 56
13, 275519, Note_on_c, 12, 24, 108
13, 275522, Note_on_c, 12, 55, 113
13, 275522, Note_on_c, 12, 52, 113
13, 275567, Note_off_c, 12, 52, 56
13, 275567, Note_off_c, 12, 55, 56
13, 275579, Note_on_c, 12, 55, 113
13, 275582, Note_on_c, 12, 52, 113
13, 275616, Note_off_c, 12, 84, 64
13, 275624, Note_off_c, 12, 55, 56
13, 275627, Note_off_c, 12, 52, 56
13, 275640, Note_on_c, 12, 72, 108
13, 275640, Note_on_c, 12, 55, 113
13, 275640, Note_on_c, 12, 52, 113
13, 275685, Note_off_c, 12, 52, 56
13, 275685, Note_off_c, 12, 55, 56
13, 275699, Note_on_c, 12, 52, 113
13, 275701, Note_on_c, 12, 55, 113
13, 275708, Note_off_c, 12, 72, 56
13, 275744, Note_off_c, 12, 52, 56
13, 275746, Note_off_c, 12, 55, 56
13, 275760, Note_on_c, 12, 74, 108
13, 275760, Note_on_c, 12, 55, 113
13, 275762, Note_on_c, 12, 52, 113
13, 275805, Note_off_c, 12, 55, 56
13, 275807, Note_off_c, 12, 52, 56
13, 275819, Note_on_c, 12, 55, 113
13, 275820, Note_on_c, 12, 52, 113
13, 275828, Note_off_c, 12, 74, 56
13, 275864, Note_off_c, 12, 55, 56
13, 275864, Note_off_c, 12, 24, 64
13, 275865, Note_off_c, 12, 52, 56
13, 275879, Note_on_c, 12, 52, 113
13, 275879, Note_on_c, 12, 55, 113
13, 275881, Note_on_c, 12, 76, 108
13, 275924, Note_off_c, 12, 55, 56
13, 275924, Note_off_c, 12, 52, 56
13, 275940, Note_on_c, 12, 55, 113
13, 275942, Note_on_c, 12, 52, 113
13, 275949, Note_off_c, 12, 76, 56
13, 275985, Note_off_c, 12, 55, 56
13, 275987, Note_off_c, 12, 52, 56
13, 275998, Note_on_c, 12, 79, 113
13, 276000, Note_on_c, 12, 53, 113
13, 276000, Note_on_c, 12, 57, 113
13, 276002, Note_on_c, 12, 33, 108
13, 276015, Note_off_c, 12, 79, 56
13, 276029, Note_on_c, 12, 77, 113
13, 276045, Note_off_c, 12, 57, 56
13, 276045, Note_off_c, 12, 53, 56
13, 276059, Note_on_c, 12, 53, 113
13, 276062, Note_on_c, 12, 57, 113
13, 276080, Note_off_c, 12, 77, 56
13, 276104, Note_off_c, 12, 53, 56
13, 276107, Note_off_c, 12, 57, 56
13, 276118, Note_on_c, 12, 57, 113
13, 276120, Note_on_c, 12, 76, 108
13, 276121, Note_on_c, 12, 53, 113
13, 276163, Note_off_c, 12, 57, 56
13, 276166, Note_off_c, 12, 53, 56
13, 276180, Note_on_c, 12, 57, 113
13, 276181, Note_on_c, 12, 53, 113
13, 276188, Note_off_c, 12, 76, 56
13, 276225, Note_off_c, 12, 57, 56
13, 276226, Note_off_c, 12, 53, 56
13, 276240, Note_on_c, 12, 53, 113
13, 276242, Note_on_c, 12, 77, 108
13, 276242, Note_on_c, 12, 57, 113
13, 276285, Note_off_c, 12, 53, 56
13, 276287, Note_off_c, 12, 57, 56
13, 276300, Note_on_c, 12, 57, 113
13, 276302, Note_on_c, 12, 53, 113
13, 276310, Note_off_c, 12, 77, 56
13, 276345, Note_off_c, 12, 57, 56
13, 276347, Note_off_c, 12, 53, 56
13, 276347, Note_off_c, 12, 33, 64
13, 276358, Note_on_c, 12, 57, 113
13, 276362, Note_on_c, 12, 79, 108
13, 276362, Note_on_c, 12, 53, 113
13, 276403, Note_off_c, 12, 57, 56
13, 276407, Note_off_c, 12, 53, 56
13, 276420, Note_on_c, 12, 57, 113
13, 276422, Note_on_c, 12, 53, 113
13, 276430, Note_off_c, 12, 79, 56
13, 276465, Note_off_c, 12, 57, 56
13, 276467, Note_off_c, 12, 53, 56
13, 276478, Note_on_c, 12, 83, 113
13, 276478, Note_on_c, 12, 57, 113
13, 276480, Note_on_c, 12, 53, 113
13, 276482, Note_on_c, 12, 29, 108
13, 276495, Note_off_c, 12, 83, 56
13, 276511, Note_on_c, 12, 81, 113
13, 276523, Note_off_c, 12, 57, 56
13, 276525, Note_off_c, 12, 53, 56
13, 276539, Note_on_c, 12, 53, 113
13, 276542, Note_on_c, 12, 57, 113
13, 276562, Note_off_c, 12, 81, 56
13, 276584, Note_off_c, 12, 53, 56
13, 276587, Note_off_c, 12, 57, 56
13, 276598, Note_on_c, 12, 53, 113
13, 276600, Note_on_c, 12, 79, 108
13, 276602, Note_on_c, 12, 57, 113
13, 276643, Note_off_c, 12, 53, 56
13, 276647, Note_off_c, 12, 57, 56
13, 276658, Note_on_c, 12, 57, 113
13, 276662, Note_on_c, 12, 53, 113
13, 276668, Note_off_c, 12, 79, 56
13, 276703, Note_off_c, 12, 57, 56
13, 276707, Note_off_c, 12, 53, 56
13, 276718, Note_on_c, 12, 57, 113
13, 276721, Note_on_c, 12, 81, 108
13, 276721, Note_on_c, 12, 53, 113
13, 276763, Note_off_c, 12, 57, 56
13, 276766, Note_off_c, 12, 53, 56
13, 276780, Note_on_c, 12, 57, 113
13, 276781, Note_on_c, 12, 53, 113
13, 276789, Note_off_c, 12, 81, 56
13, 276825, Note_off_c, 12, 57, 56
13, 276826, Note_off_c, 12, 53, 56
13, 276827, Note_off_c, 12, 29, 64
13, 276838, Note_on_c, 12, 53, 113
13, 276842, Note_on_c, 12, 83, 108
13, 276842, Note_on_c, 12, 57, 113
13, 276883, Note_off_c, 12, 53, 56
13, 276887, Note_off_c, 12, 57, 56
13, 276899, Note_on_c, 12, 57, 113
13, 276902, Note_on_c, 12, 53, 113
13, 276910, Note_off_c, 12, 83, 56
13, 276944, Note_off_c, 12, 57, 56
13, 276947, Note_off_c, 12, 53, 56
13, 276958, Note_on_c, 12, 52, 113
13, 276960, Note_on_c, 12, 55, 113
13, 276961, Note_on_c, 12, 28, 108
13, 276962, Note_on_c, 12, 86, 113
13, 276984, Note_off_c, 12, 86, 56
13, 276989, Note_on_c, 12, 84, 108
13, 277003, Note_off_c, 12, 52, 56
13, 277005, Note_off_c, 12, 55, 56
13, 277022, Note_on_c, 12, 55, 113
13, 277022, Note_on_c, 12, 52, 113
13, 277042, Note_off_c, 12, 28, 56
13, 277057, Note_off_c, 12, 84, 56
13, 277067, Note_off_c, 12, 52, 56
13, 277067, Note_off_c, 12, 55, 56
13, 277078, Note_on_c, 12, 83, 108
13, 277078, Note_on_c, 12, 52, 113
13, 277079, Note_on_c, 12, 55, 113
13, 277079, Note_on_c, 12, 29, 108
13, 277123, Note_off_c, 12, 52, 56
13, 277124, Note_off_c, 12, 55, 56
13, 277140, Note_on_c, 12, 52, 113
13, 277141, Note_on_c, 12, 55, 113
13, 277160, Note_off_c, 12, 29, 56
13, 277169, Note_off_c, 12, 83, 56
13, 277185, Note_off_c, 12, 52, 56
13, 277186, Note_off_c, 12, 55, 56
13, 277199, Note_on_c, 12, 55, 113
13, 277199, Note_on_c, 12, 52, 113
13, 277201, Note_on_c, 12, 84, 108
13, 277201, Note_on_c, 12, 28, 108
13, 277244, Note_off_c, 12, 52, 56
13, 277244, Note_off_c, 12, 55, 56
13, 277258, Note_on_c, 12, 55, 113
13, 277259, Note_on_c, 12, 52, 113
13, 277282, Note_off_c, 12, 28, 56
13, 277292, Note_off_c, 12, 84, 56
13, 277303, Note_off_c, 12, 55, 56
13, 277304, Note_off_c, 12, 52, 56
13, 277319, Note_on_c, 12, 86, 108
13, 277319, Note_on_c, 12, 26, 108
13, 277319, Note_on_c, 12, 52, 113
13, 277321, Note_on_c, 12, 55, 113
13, 277364, Note_off_c, 12, 52, 56
13, 277366, Note_off_c, 12, 55, 56
13, 277381, Note_on_c, 12, 55, 113
13, 277382, Note_on_c, 12, 52, 113
13, 277400, Note_off_c, 12, 26, 56
13, 277410, Note_off_c, 12, 86, 56
13, 277426, Note_off_c, 12, 55, 56
13, 277427, Note_off_c, 12, 52, 56
13, 277438, Note_on_c, 12, 52, 113
13, 277439, Note_on_c, 12, 55, 113
13, 277440, Note_on_c, 12, 88, 108
13, 277442, Note_on_c, 12, 24, 108
13, 277483, Note_off_c, 12, 52, 56
13, 277484, Note_off_c, 12, 55, 56
13, 277498, Note_on_c, 12, 55, 113
13, 277499, Note_on_c, 12, 52, 113
13, 277543, Note_off_c, 12, 55, 56
13, 277544, Note_off_c, 12, 52, 56
13, 277561, Note_on_c, 12, 55, 113
13, 277562, Note_on_c, 12, 52, 113
13, 277605, Note_off_c, 12, 24, 64
13, 277606, Note_off_c, 12, 55, 56
13, 277607, Note_off_c, 12, 52, 56
13, 277618, Note_on_c, 12, 55, 113
13, 277619, Note_on_c, 12, 52, 113
13, 277622, Note_off_c, 12, 88, 64
13, 277663, Note_off_c, 12, 55, 56
13, 277664, Note_off_c, 12, 52, 56
13, 277678, Note_on_c, 12, 55, 113
13, 277678, Note_on_c, 12, 36, 108
13, 277679, Note_on_c, 12, 79, 108
13, 277682, Note_on_c, 12, 52, 113
13, 277723, Note_off_c, 12, 55, 56
13, 277727, Note_off_c, 12, 52, 56
13, 277738, Note_on_c, 12, 55, 113
13, 277741, Note_on_c, 12, 52, 113
13, 277770, Note_off_c, 12, 79, 56
13, 277783, Note_off_c, 12, 55, 56
13, 277786, Note_off_c, 12, 52, 56
13, 277800, Note_off_c, 12, 36, 64
13, 277800, Note_on_c, 12, 52, 113
13, 277801, Note_on_c, 12, 55, 113
13, 277845, Note_off_c, 12, 52, 56
13, 277846, Note_off_c, 12, 55, 56
13, 277858, Note_on_c, 12, 52, 113
13, 277858, Note_on_c, 12, 55, 113
13, 277859, Note_on_c, 12, 88, 113
13, 277860, Note_on_c, 12, 36, 113
13, 277900, Note_off_c, 12, 36, 56
13, 277903, Note_off_c, 12, 55, 56
13, 277903, Note_off_c, 12, 52, 56
13, 277904, Note_off_c, 12, 88, 56
13, 277918, Note_on_c, 12, 88, 108
13, 277919, Note_on_c, 12, 62, 108
13, 277920, Note_on_c, 12, 35, 108
13, 278026, Note_off_c, 12, 88, 56
13, 278042, Note_on_c, 12, 86, 108
13, 278101, Note_off_c, 12, 62, 64
13, 278133, Note_off_c, 12, 86, 56
13, 278160, Note_on_c, 12, 77, 108
13, 278160, Note_on_c, 12, 62, 108
13, 278251, Note_off_c, 12, 77, 56
13, 278265, Note_off_c, 12, 35, 64
13, 278296, Note_off_c, 12, 62, 64
13, 278338, Note_on_c, 12, 86, 113
13, 278338, Note_on_c, 12, 62, 113
13, 278383, Note_off_c, 12, 62, 56
13, 278383, Note_off_c, 12, 86, 56
13, 278399, Note_on_c, 12, 60, 108
13, 278399, Note_on_c, 12, 86, 108
13, 278401, Note_on_c, 12, 36, 108
13, 278507, Note_off_c, 12, 86, 56
13, 278521, Note_on_c, 12, 84, 108
13, 278581, Note_off_c, 12, 60, 64
13, 278612, Note_off_c, 12, 84, 56
13, 278638, Note_on_c, 12, 76, 108
13, 278639, Note_on_c, 12, 60, 108
13, 278729, Note_off_c, 12, 76, 56
13, 278746, Note_off_c, 12, 36, 64
13, 278775, Note_off_c, 12, 60, 64
13, 278818, Note_on_c, 12, 84, 113
13, 278821, Note_on_c, 12, 60, 113
13, 278863, Note_off_c, 12, 84, 56
13, 278866, Note_off_c, 12, 60, 56
13, 278879, Note_on_c, 12, 84, 108
13, 278879, Note_on_c, 12, 31, 108
13, 278882, Note_on_c, 12, 59, 108
13, 278987, Note_off_c, 12, 84, 56
13, 279001, Note_on_c, 12, 83, 108
13, 279042, Note_off_c, 12, 31, 64
13, 279064, Note_off_c, 12, 59, 64
13, 279092, Note_off_c, 12, 83, 56
13, 279118, Note_on_c, 12, 83, 108
13, 279118, Note_on_c, 12, 31, 108
13, 279120, Note_on_c, 12, 59, 108
13, 279463, Note_off_c, 12, 31, 64
13, 279502, Note_off_c, 12, 83, 64
13, 279504, Note_off_c, 12, 59, 64
13, 279600, Note_on_c, 12, 60, 108
13, 279602, Note_on_c, 12, 84, 108
13, 279602, Note_on_c, 12, 36, 108
13, 279693, Note_off_c, 12, 84, 56
13, 279724, Note_off_c, 12, 36, 64
13, 279736, Note_off_c, 12, 60, 64
13, 279778, Note_on_c, 12, 60, 113
13, 279780, Note_on_c, 12, 88, 113
13, 279780, Note_on_c, 12, 36, 113
13, 279820, Note_off_c, 12, 36, 56
13, 279823, Note_off_c, 12, 60, 56
13, 279825, Note_off_c, 12, 88, 56
13, 279840, Note_on_c, 12, 62, 108
13, 279841, Note_on_c, 12, 88, 108
13, 279841, Note_on_c, 12, 35, 108
13, 279949, Note_off_c, 12, 88, 56
13, 279962, Note_on_c, 12, 86, 108
13, 280022, Note_off_c, 12, 62, 64
13, 280053, Note_off_c, 12, 86, 56
13, 280080, Note_on_c, 12, 62, 108
13, 280081, Note_on_c, 12, 77, 108
13, 280172, Note_off_c, 12, 77, 56
13, 280186, Note_off_c, 12, 35, 64
13, 280216, Note_off_c, 12, 62, 64
13, 280258, Note_on_c, 12, 62, 113
13, 280261, Note_on_c, 12, 86, 113
13, 280303, Note_off_c, 12, 62, 56
13, 280306, Note_off_c, 12, 86, 56
13, 280319, Note_on_c, 12, 36, 108
13, 280320, Note_on_c, 12, 86, 108
13, 280320, Note_on_c, 12, 60, 108
13, 280428, Note_off_c, 12, 86, 56
13, 280440, Note_on_c, 12, 84, 108
13, 280502, Note_off_c, 12, 60, 64
13, 280531, Note_off_c, 12, 84, 56
13, 280558, Note_on_c, 12, 60, 108
13, 280560, Note_on_c, 12, 76, 108
13, 280651, Note_off_c, 12, 76, 56
13, 280664, Note_off_c, 12, 36, 64
13, 280694, Note_off_c, 12, 60, 64
13, 280741, Note_on_c, 12, 60, 113
13, 280742, Note_on_c, 12, 84, 113
13, 280786, Note_off_c, 12, 60, 56
13, 280787, Note_off_c, 12, 84, 56
13, 280798, Note_on_c, 12, 59, 108
13, 280799, Note_on_c, 12, 84, 108
13, 280800, Note_on_c, 12, 31, 108
13, 280907, Note_off_c, 12, 84, 56
13, 280919, Note_on_c, 12, 83, 108
13, 280963, Note_off_c, 12, 31, 64
13, 280980, Note_off_c, 12, 59, 64
13, 281010, Note_off_c, 12, 83, 56
13, 281038, Note_on_c, 12, 59, 108
13, 281039, Note_on_c, 12, 31, 108
13, 281042, Note_on_c, 12, 83, 108
13, 281384, Note_off_c, 12, 31, 64
13, 281422, Note_off_c, 12, 59, 64
13, 281426, Note_off_c, 12, 83, 64
13, 281518, Note_on_c, 12, 84, 108
13, 281520, Note_on_c, 12, 36, 108
13, 281522, Note_on_c, 12, 60, 108
13, 281586, Note_off_c, 12, 84, 56
13, 281642, Note_off_c, 12, 36, 64
13, 281658, Note_off_c, 12, 60, 64
13, 281700, Note_on_c, 12, 36, 113
13, 281702, Note_on_c, 12, 88, 113
13, 281702, Note_on_c, 12, 60, 113
13, 281736, Note_off_c, 12, 88, 56
13, 281740, Note_off_c, 12, 36, 56
13, 281747, Note_off_c, 12, 60, 56
13, 281758, Note_on_c, 12, 35, 108
13, 281759, Note_on_c, 12, 88, 108
13, 281760, Note_on_c, 12, 62, 108
13, 281827, Note_off_c, 12, 88, 56
13, 281880, Note_off_c, 12, 35, 64
13, 281896, Note_off_c, 12, 62, 64
13, 281938, Note_on_c, 12, 86, 113
13, 281940, Note_on_c, 12, 35, 113
13, 281942, Note_on_c, 12, 62, 113
13, 281972, Note_off_c, 12, 86, 56
13, 281980, Note_off_c, 12, 35, 56
13, 281987, Note_off_c, 12, 62, 56
13, 281998, Note_on_c, 12, 59, 108
13, 282001, Note_on_c, 12, 77, 108
13, 282002, Note_on_c, 12, 31, 108
13, 282069, Note_off_c, 12, 77, 56
13, 282124, Note_off_c, 12, 31, 64
13, 282134, Note_off_c, 12, 59, 64
13, 282179, Note_on_c, 12, 59, 113
13, 282180, Note_on_c, 12, 31, 113
13, 282181, Note_on_c, 12, 86, 113
13, 282215, Note_off_c, 12, 86, 56
13, 282220, Note_off_c, 12, 31, 56
13, 282224, Note_off_c, 12, 59, 56
13, 282238, Note_on_c, 12, 36, 108
13, 282241, Note_on_c, 12, 86, 108
13, 282242, Note_on_c, 12, 60, 108
13, 282309, Note_off_c, 12, 86, 56
13, 282360, Note_off_c, 12, 36, 64
13, 282378, Note_off_c, 12, 60, 64
13, 282418, Note_on_c, 12, 60, 113
13, 282419, Note_on_c, 12, 84, 113
13, 282420, Note_on_c, 12, 36, 113
13, 282453, Note_off_c, 12, 84, 56
13, 282460, Note_off_c, 12, 36, 56
13, 282463, Note_off_c, 12, 60, 56
13, 282482, Note_on_c, 12, 60, 108
13, 282482, Note_on_c, 12, 40, 108
13, 282539, Note_on_c, 12, 76, 113
13, 282573, Note_off_c, 12, 76, 56
13, 282604, Note_off_c, 12, 40, 64
13, 282618, Note_off_c, 12, 60, 64
13, 282660, Note_on_c, 12, 84, 113
13, 282660, Note_on_c, 12, 40, 113
13, 282662, Note_on_c, 12, 60, 113
13, 282694, Note_off_c, 12, 84, 56
13, 282700, Note_off_c, 12, 40, 56
13, 282707, Note_off_c, 12, 60, 56
13, 282718, Note_on_c, 12, 59, 113
13, 282720, Note_on_c, 12, 83, 108
13, 282720, Note_on_c, 12, 43, 108
13, 282763, Note_off_c, 12, 59, 56
13, 282781, Note_on_c, 12, 59, 113
13, 282788, Note_off_c, 12, 83, 56
13, 282801, Note_off_c, 12, 43, 56
13, 282826, Note_off_c, 12, 59, 56
13, 282840, Note_on_c, 12, 59, 113
13, 282840, Note_on_c, 12, 31, 108
13, 282885, Note_off_c, 12, 59, 56
13, 282899, Note_on_c, 12, 74, 113
13, 282901, Note_on_c, 12, 59, 113
13, 282921, Note_off_c, 12, 31, 56
13, 282944, Note_off_c, 12, 74, 56
13, 282946, Note_off_c, 12, 59, 56
13, 282957, Note_on_c, 12, 31, 108
13, 282961, Note_on_c, 12, 79, 108
13, 282961, Note_on_c, 12, 59, 113
13, 283006, Note_off_c, 12, 59, 56
13, 283021, Note_on_c, 12, 59, 113
13, 283066, Note_off_c, 12, 59, 56
13, 283078, Note_on_c, 12, 59, 113
13, 283120, Note_off_c, 12, 31, 64
13, 283123, Note_off_c, 12, 59, 56
13, 283139, Note_on_c, 12, 59, 113
13, 283184, Note_off_c, 12, 59, 56
13, 283200, Note_on_c, 12, 60, 113
13, 283245, Note_off_c, 12, 60, 56
13, 283260, Note_on_c, 12, 60, 113
13, 283305, Note_off_c, 12, 60, 56
13, 283318, Note_on_c, 12, 60, 113
13, 283345, Note_off_c, 12, 79, 64
13, 283363, Note_off_c, 12, 60, 56
13, 283379, Note_on_c, 12, 60, 113
13, 283424, Note_off_c, 12, 60, 56
13, 283438, Note_on_c, 12, 60, 113
13, 283441, Note_on_c, 12, 81, 113
13, 283483, Note_off_c, 12, 60, 56
13, 283495, Note_off_c, 12, 81, 56
13, 283500, Note_on_c, 12, 60, 113
13, 283502, Note_on_c, 12, 79, 113
13, 283545, Note_off_c, 12, 60, 56
13, 283556, Note_off_c, 12, 79, 56
13, 283558, Note_on_c, 12, 77, 113
13, 283561, Note_on_c, 12, 60, 113
13, 283606, Note_off_c, 12, 60, 56
13, 283612, Note_off_c, 12, 77, 56
13, 283618, Note_on_c, 12, 76, 113
13, 283619, Note_on_c, 12, 60, 113
13, 283664, Note_off_c, 12, 60, 56
13, 283672, Note_off_c, 12, 76, 56
13, 283681, Note_on_c, 12, 74, 108
13, 283681, Note_on_c, 12, 59, 113
13, 283726, Note_off_c, 12, 59, 56
13, 283738, Note_on_c, 12, 59, 113
13, 283772, Note_off_c, 12, 74, 56
13, 283783, Note_off_c, 12, 59, 56
13, 283800, Note_on_c, 12, 31, 108
13, 283801, Note_on_c, 12, 59, 113
13, 283846, Note_off_c, 12, 59, 56
13, 283858, Note_on_c, 12, 59, 113
13, 283860, Note_on_c, 12, 74, 113
13, 283881, Note_off_c, 12, 31, 56
13, 283903, Note_off_c, 12, 59, 56
13, 283905, Note_off_c, 12, 74, 56
13, 283918, Note_on_c, 12, 31, 108
13, 283922, Note_on_c, 12, 79, 108
13, 283922, Note_on_c, 12, 59, 113
13, 283967, Note_off_c, 12, 59, 56
13, 283980, Note_on_c, 12, 59, 113
13, 284025, Note_off_c, 12, 59, 56
13, 284042, Note_on_c, 12, 59, 113
13, 284081, Note_off_c, 12, 31, 64
13, 284087, Note_off_c, 12, 59, 56
13, 284102, Note_on_c, 12, 59, 113
13, 284147, Note_off_c, 12, 59, 56
13, 284159, Note_on_c, 12, 60, 113
13, 284204, Note_off_c, 12, 60, 56
13, 284219, Note_on_c, 12, 60, 113
13, 284264, Note_off_c, 12, 60, 56
13, 284282, Note_on_c, 12, 60, 113
13, 284306, Note_off_c, 12, 79, 64
13, 284327, Note_off_c, 12, 60, 56
13, 284340, Note_on_c, 12, 60, 113
13, 284385, Note_off_c, 12, 60, 56
13, 284399, Note_on_c, 12, 60, 113
13, 284401, Note_on_c, 12, 81, 113
13, 284444, Note_off_c, 12, 60, 56
13, 284455, Note_off_c, 12, 81, 56
13, 284458, Note_on_c, 12, 60, 113
13, 284460, Note_on_c, 12, 79, 113
13, 284503, Note_off_c, 12, 60, 56
13, 284514, Note_off_c, 12, 79, 56
13, 284518, Note_on_c, 12, 60, 113
13, 284519, Note_on_c, 12, 77, 113
13, 284563, Note_off_c, 12, 60, 56
13, 284573, Note_off_c, 12, 77, 56
13, 284580, Note_on_c, 12, 60, 113
13, 284581, Note_on_c, 12, 76, 113
13, 284625, Note_off_c, 12, 60, 56
13, 284635, Note_off_c, 12, 76, 56
13, 284640, Note_on_c, 12, 59, 113
13, 284642, Note_on_c, 12, 74, 108
13, 284685, Note_off_c, 12, 59, 56
13, 284700, Note_on_c, 12, 59, 113
13, 284733, Note_off_c, 12, 74, 56
13, 284745, Note_off_c, 12, 59, 56
13, 284759, Note_on_c, 12, 60, 113
13, 284759, Note_on_c, 12, 31, 108
13, 284804, Note_off_c, 12, 60, 56
13, 284821, Note_on_c, 12, 79, 113
13, 284821, Note_on_c, 12, 60, 113
13, 284840, Note_off_c, 12, 31, 56
13, 284866, Note_off_c, 12, 60, 56
13, 284866, Note_off_c, 12, 79, 56
13, 284880, Note_on_c, 12, 60, 113
13, 284881, Note_on_c, 12, 81, 113
13, 284883, Note_on_c, 12, 31, 108
13, 284925, Note_off_c, 12, 60, 56
13, 284935, Note_off_c, 12, 81, 56
13, 284938, Note_on_c, 12, 60, 113
13, 284942, Note_on_c, 12, 79, 113
13, 284983, Note_off_c, 12, 60, 56
13, 284996, Note_off_c, 12, 79, 56
13, 284998, Note_on_c, 12, 60, 113
13, 285002, Note_on_c, 12, 77, 113
13, 285043, Note_off_c, 12, 60, 56
13, 285046, Note_off_c, 12, 31, 64
13, 285056, Note_off_c, 12, 77, 56
13, 285058, Note_on_c, 12, 76, 113
13, 285059, Note_on_c, 12, 60, 113
13, 285104, Note_off_c, 12, 60, 56
13, 285112, Note_off_c, 12, 76, 56
13, 285118, Note_on_c, 12, 59, 113
13, 285119, Note_on_c, 12, 74, 108
13, 285163, Note_off_c, 12, 59, 56
13, 285179, Note_on_c, 12, 59, 113
13, 285224, Note_off_c, 12, 59, 56
13, 285227, Note_off_c, 12, 74, 56
13, 285241, Note_on_c, 12, 60, 113
13, 285241, Note_on_c, 12, 31, 108
13, 285286, Note_off_c, 12, 60, 56
13, 285299, Note_on_c, 12, 79, 113
13, 285300, Note_on_c, 12, 60, 113
13, 285322, Note_off_c, 12, 31, 56
13, 285344, Note_off_c, 12, 79, 56
13, 285345, Note_off_c, 12, 60, 56
13, 285359, Note_on_c, 12, 81, 113
13, 285359, Note_on_c, 12, 31, 108
13, 285360, Note_on_c, 12, 60, 113
13, 285405, Note_off_c, 12, 60, 56
13, 285413, Note_off_c, 12, 81, 56
13, 285418, Note_on_c, 12, 60, 113
13, 285420, Note_on_c, 12, 79, 113
13, 285463, Note_off_c, 12, 60, 56
13, 285474, Note_off_c, 12, 79, 56
13, 285480, Note_on_c, 12, 60, 113
13, 285482, Note_on_c, 12, 77, 113
13, 285522, Note_off_c, 12, 31, 64
13, 285525, Note_off_c, 12, 60, 56
13, 285536, Note_off_c, 12, 77, 56
13, 285539, Note_on_c, 12, 60, 113
13, 285541, Note_on_c, 12, 76, 113
13, 285584, Note_off_c, 12, 60, 56
13, 285595, Note_off_c, 12, 76, 56
13, 285598, Note_on_c, 12, 74, 108
13, 285601, Note_on_c, 12, 59, 113
13, 285646, Note_off_c, 12, 59, 56
13, 285662, Note_on_c, 12, 59, 113
13, 285689, Note_off_c, 12, 74, 56
13, 285707, Note_off_c, 12, 59, 56
13, 285721, Note_on_c, 12, 31, 108
13, 285722, Note_on_c, 12, 60, 113
13, 285767, Note_off_c, 12, 60, 56
13, 285779, Note_on_c, 12, 79, 113
13, 285782, Note_on_c, 12, 60, 113
13, 285802, Note_off_c, 12, 31, 56
13, 285824, Note_off_c, 12, 79, 56
13, 285827, Note_off_c, 12, 60, 56
13, 285838, Note_on_c, 12, 60, 113
13, 285842, Note_on_c, 12, 81, 113
13, 285843, Note_on_c, 12, 31, 108
13, 285883, Note_off_c, 12, 60, 56
13, 285896, Note_off_c, 12, 81, 56
13, 285898, Note_on_c, 12, 79, 113
13, 285901, Note_on_c, 12, 60, 113
13, 285946, Note_off_c, 12, 60, 56
13, 285952, Note_off_c, 12, 79, 56
13, 285961, Note_on_c, 12, 77, 113
13, 285961, Note_on_c, 12, 60, 113
13, 286006, Note_off_c, 12, 60, 56
13, 286006, Note_off_c, 12, 31, 64
13, 286015, Note_off_c, 12, 77, 56
13, 286019, Note_on_c, 12, 60, 113
13, 286022, Note_on_c, 12, 76, 113
13, 286064, Note_off_c, 12, 60, 56
13, 286076, Note_off_c, 12, 76, 56
13, 286079, Note_on_c, 12, 74, 108
13, 286081, Note_on_c, 12, 59, 113
13, 286126, Note_off_c, 12, 59, 56
13, 286142, Note_on_c, 12, 59, 113
13, 286187, Note_off_c, 12, 59, 56
13, 286187, Note_off_c, 12, 74, 56
13, 286200, Note_on_c, 12, 31, 108
13, 286201, Note_on_c, 12, 60, 113
13, 286246, Note_off_c, 12, 60, 56
13, 286259, Note_on_c, 12, 60, 113
13, 286260, Note_on_c, 12, 79, 113
13, 286281, Note_off_c, 12, 31, 56
13, 286304, Note_off_c, 12, 60, 56
13, 286305, Note_off_c, 12, 79, 56
13, 286318, Note_on_c, 12, 81, 113
13, 286320, Note_on_c, 12, 60, 113
13, 286322, Note_on_c, 12, 31, 108
13, 286365, Note_off_c, 12, 60, 56
13, 286372, Note_off_c, 12, 81, 56
13, 286381, Note_on_c, 12, 79, 113
13, 286382, Note_on_c, 12, 60, 113
13, 286427, Note_off_c, 12, 60, 56
13, 286435, Note_off_c, 12, 79, 56
13, 286442, Note_on_c, 12, 77, 113
13, 286442, Note_on_c, 12, 60, 113
13, 286485, Note_off_c, 12, 31, 64
13, 286487, Note_off_c, 12, 60, 56
13, 286496, Note_off_c, 12, 77, 56
13, 286501, Note_on_c, 12, 60, 113
13, 286502, Note_on_c, 12, 76, 113
13, 286546, Note_off_c, 12, 60, 56
13, 286556, Note_off_c, 12, 76, 56
13, 286559, Note_on_c, 12, 74, 108
13, 286559, Note_on_c, 12, 31, 108
13, 286560, Note_on_c, 12, 59, 108
13, 286627, Note_off_c, 12, 74, 56
13, 286628, Note_off_c, 12, 59, 56
13, 286678, Note_on_c, 12, 79, 108
13, 286680, Note_on_c, 12, 67, 108
13, 286722, Note_off_c, 12, 31, 64
13, 286771, Note_off_c, 12, 67, 56
13, 286786, Note_off_c, 12, 79, 56
13, 286800, Note_on_c, 12, 77, 108
13, 286801, Note_on_c, 12, 65, 108
13, 286891, Note_off_c, 12, 77, 56
13, 286892, Note_off_c, 12, 65, 56
13, 286918, Note_on_c, 12, 64, 108
13, 286921, Note_on_c, 12, 76, 108
13, 286986, Note_off_c, 12, 64, 56
13, 286989, Note_off_c, 12, 76, 56
13, 287040, Note_on_c, 12, 74, 108
13, 287042, Note_on_c, 12, 62, 108
13, 287108, Note_off_c, 12, 74, 56
13, 287110, Note_off_c, 12, 62, 56
13, 287161, Note_on_c, 12, 76, 108
13, 287162, Note_on_c, 12, 64, 108
13, 287253, Note_off_c, 12, 64, 56
13, 287269, Note_off_c, 12, 76, 56
13, 287278, Note_on_c, 12, 74, 108
13, 287280, Note_on_c, 12, 62, 108
13, 287369, Note_off_c, 12, 74, 56
13, 287371, Note_off_c, 12, 62, 56
13, 287398, Note_on_c, 12, 60, 108
13, 287399, Note_on_c, 12, 72, 108
13, 287466, Note_off_c, 12, 60, 56
13, 287467, Note_off_c, 12, 72, 56
13, 287521, Note_on_c, 12, 59, 108
13, 287522, Note_on_c, 12, 71, 108
13, 287589, Note_off_c, 12, 59, 56
13, 287590, Note_off_c, 12, 71, 56
13, 287639, Note_on_c, 12, 76, 108
13, 287642, Note_on_c, 12, 64, 108
13, 287733, Note_off_c, 12, 64, 56
13, 287747, Note_off_c, 12, 76, 56
13, 287759, Note_on_c, 12, 74, 108
13, 287760, Note_on_c, 12, 62, 108
13, 287850, Note_off_c, 12, 74, 56
13, 287851, Note_off_c, 12, 62, 56
13, 287881, Note_on_c, 12, 60, 108
13, 287882, Note_on_c, 12, 72, 108
13, 287949, Note_off_c, 12, 60, 56
13, 287950, Note_off_c, 12, 72, 56
13, 287998, Note_on_c, 12, 71, 108
13, 288000, Note_on_c, 12, 59, 108
13, 288066, Note_off_c, 12, 71, 56
13, 288068, Note_off_c, 12, 59, 56
13, 288120, Note_on_c, 12, 72, 108
13, 288121, Note_on_c, 12, 60, 108
13, 288212, Note_off_c, 12, 60, 56
13, 288228, Note_off_c, 12, 72, 56
13, 288238, Note_on_c, 12, 59, 108
13, 288242, Note_on_c, 12, 71, 108
13, 288329, Note_off_c, 12, 59, 56
13, 288333, Note_off_c, 12, 71, 56
13, 288358, Note_on_c, 12, 69, 108
13, 288360, Note_on_c, 12, 57, 108
13, 288426, Note_off_c, 12, 69, 56
13, 288451, Note_off_c, 12, 57, 56
13, 288482, Note_on_c, 12, 55, 108
13, 288482, Note_on_c, 12, 67, 108
13, 288550, Note_off_c, 12, 67, 56
13, 288550, Note_off_c, 12, 55, 56
13, 288598, Note_on_c, 12, 72, 108
13, 288600, Note_on_c, 12, 60, 108
13, 288691, Note_off_c, 12, 60, 56
13, 288706, Note_off_c, 12, 72, 56
13, 288719, Note_on_c, 12, 71, 108
13, 288719, Note_on_c, 12, 59, 108
13, 288810, Note_off_c, 12, 59, 56
13, 288810, Note_off_c, 12, 71, 56
13, 288839, Note_on_c, 12, 69, 108
13, 288842, Note_on_c, 12, 57, 108
13, 288907, Note_off_c, 12, 69, 56
13, 288910, Note_off_c, 12, 57, 56
13, 288959, Note_on_c, 12, 55, 108
13, 288961, Note_on_c, 12, 67, 108
13, 289027, Note_off_c, 12, 55, 56
13, 289029, Note_off_c, 12, 67, 56
13, 289079, Note_on_c, 12, 60, 108
13, 289082, Note_on_c, 12, 72, 108
13, 289170, Note_off_c, 12, 60, 56
13, 289190, Note_off_c, 12, 72, 56
13, 289198, Note_on_c, 12, 59, 108
13, 289201, Note_on_c, 12, 71, 108
13, 289289, Note_off_c, 12, 59, 56
13, 289292, Note_off_c, 12, 71, 56
13, 289320, Note_on_c, 12, 69, 108
13, 289322, Note_on_c, 12, 57, 108
13, 289388, Note_off_c, 12, 69, 56
13, 289390, Note_off_c, 12, 57, 56
13, 289442, Note_on_c, 12, 67, 108
13, 289442, Note_on_c, 12, 55, 108
13, 289510, Note_off_c, 12, 67, 56
13, 289533, Note_off_c, 12, 55, 56
13, 289559, Note_on_c, 12, 60, 108
13, 289559, Note_on_c, 12, 48, 108
13, 289559, Note_on_c, 12, 72, 108
13, 289640, Note_off_c, 12, 48, 56
13, 289650, Note_off_c, 12, 60, 56
13, 289667, Note_off_c, 12, 72, 56
13, 289678, Note_on_c, 12, 71, 108
13, 289680, Note_on_c, 12, 59, 108
13, 289680, Note_on_c, 12, 47, 108
13, 289761, Note_off_c, 12, 47, 56
13, 289769, Note_off_c, 12, 71, 56
13, 289771, Note_off_c, 12, 59, 56
13, 289798, Note_on_c, 12, 69, 108
13, 289800, Note_on_c, 12, 45, 108
13, 289802, Note_on_c, 12, 57, 108
13, 289881, Note_off_c, 12, 45, 56
13, 289889, Note_off_c, 12, 69, 56
13, 289893, Note_off_c, 12, 57, 56
13, 289920, Note_on_c, 12, 55, 108
13, 289920, Note_on_c, 12, 43, 108
13, 289921, Note_on_c, 12, 67, 108
13, 289981, Note_off_c, 12, 43, 56
13, 289988, Note_off_c, 12, 55, 56
13, 289989, Note_off_c, 12, 67, 56
13, 290040, Note_on_c, 12, 65, 108
13, 290040, Note_on_c, 12, 41, 108
13, 290041, Note_on_c, 12, 53, 108
13, 290101, Note_off_c, 12, 41, 56
13, 290108, Note_off_c, 12, 65, 56
13, 290109, Note_off_c, 12, 53, 56
13, 290159, Note_on_c, 12, 40, 108
13, 290160, Note_on_c, 12, 52, 108
13, 290161, Note_on_c, 12, 64, 108
13, 290220, Note_off_c, 12, 40, 56
13, 290228, Note_off_c, 12, 52, 56
13, 290229, Note_off_c, 12, 64, 56
13, 290279, Note_on_c, 12, 38, 108
13, 290281, Note_on_c, 12, 62, 108
13, 290282, Note_on_c, 12, 50, 108
13, 290340, Note_off_c, 12, 38, 56
13, 290349, Note_off_c, 12, 62, 56
13, 290350, Note_off_c, 12, 50, 56
13, 290398, Note_on_c, 12, 36, 108
13, 290401, Note_on_c, 12, 60, 108
13, 290402, Note_on_c, 12, 48, 113
13, 290447, Note_off_c, 12, 48, 56
13, 290460, Note_on_c, 12, 52, 113
13, 290462, Note_on_c, 12, 55, 113
13, 290505, Note_off_c, 12, 52, 56
13, 290507, Note_off_c, 12, 55, 56
13, 290518, Note_on_c, 12, 52, 113
13, 290518, Note_on_c, 12, 55, 113
13, 290561, Note_off_c, 12, 36, 64
13, 290563, Note_off_c, 12, 55, 56
13, 290563, Note_off_c, 12, 52, 56
13, 290580, Note_on_c, 12, 52, 113
13, 290582, Note_on_c, 12, 55, 113
13, 290583, Note_off_c, 12, 60, 64
13, 290625, Note_off_c, 12, 52, 56
13, 290627, Note_off_c, 12, 55, 56
13, 290638, Note_on_c, 12, 52, 113
13, 290641, Note_on_c, 12, 55, 113
13, 290683, Note_off_c, 12, 52, 56
13, 290686, Note_off_c, 12, 55, 56
13, 290700, Note_on_c, 12, 55, 113
13, 290702, Note_on_c, 12, 52, 113
13, 290745, Note_off_c, 12, 55, 56
13, 290747, Note_off_c, 12, 52, 56
13, 290758, Note_on_c, 12, 55, 113
13, 290762, Note_on_c, 12, 52, 113
13, 290803, Note_off_c, 12, 55, 56
13, 290807, Note_off_c, 12, 52, 56
13, 290818, Note_on_c, 12, 52, 113
13, 290819, Note_on_c, 12, 55, 113
13, 290863, Note_off_c, 12, 52, 56
13, 290864, Note_off_c, 12, 55, 56
13, 290881, Note_on_c, 12, 55, 113
13, 290881, Note_on_c, 12, 52, 113
13, 290926, Note_off_c, 12, 52, 56
13, 290926, Note_off_c, 12, 55, 56
13, 290940, Note_on_c, 12, 52, 113
13, 290940, Note_on_c, 12, 55, 113
13, 290985, Note_off_c, 12, 55, 56
13, 290985, Note_off_c, 12, 52, 56
13, 291000, Note_on_c, 12, 52, 113
13, 291001, Note_on_c, 12, 55, 113
13, 291045, Note_off_c, 12, 52, 56
13, 291046, Note_off_c, 12, 55, 56
13, 291058, Note_on_c, 12, 55, 113
13, 291061, Note_on_c, 12, 52, 113
13, 291103, Note_off_c, 12, 55, 56
13, 291106, Note_off_c, 12, 52, 56
13, 291118, Note_on_c, 12, 55, 113
13, 291119, Note_on_c, 12, 52, 113
13, 291163, Note_off_c, 12, 55, 56
13, 291164, Note_off_c, 12, 52, 56
13, 291180, Note_on_c, 12, 55, 113
13, 291180, Note_on_c, 12, 52, 113
13, 291225, Note_off_c, 12, 52, 56
13, 291225, Note_off_c, 12, 55, 56
13, 291239, Note_on_c, 12, 55, 113
13, 291242, Note_on_c, 12, 52, 113
13, 291284, Note_off_c, 12, 55, 56
13, 291287, Note_off_c, 12, 52, 56
13, 291299, Note_on_c, 12, 55, 113
13, 291302, Note_on_c, 12, 52, 113
13, 291344, Note_off_c, 12, 55, 56
13, 291347, Note_off_c, 12, 52, 56
13, 291360, Note_on_c, 12, 52, 113
13, 291360, Note_on_c, 12, 55, 113
13, 291405, Note_off_c, 12, 55, 56
13, 291405, Note_off_c, 12, 52, 56
13, 291418, Note_on_c, 12, 55, 113
13, 291422, Note_on_c, 12, 52, 113
13, 291463, Note_off_c, 12, 55, 56
13, 291467, Note_off_c, 12, 52, 56
13, 291478, Note_on_c, 12, 52, 113
13, 291479, Note_on_c, 12, 55, 113
13, 291523, Note_off_c, 12, 52, 56
13, 291524, Note_off_c, 12, 55, 56
13, 291539, Note_on_c, 12, 52, 113
13, 291540, Note_on_c, 12, 55, 113
13, 291584, Note_off_c, 12, 52, 56
13, 291585, Note_off_c, 12, 55, 56
13, 291598, Note_on_c, 12, 52, 113
13, 291599, Note_on_c, 12, 55, 113
13, 291643, Note_off_c, 12, 52, 56
13, 291644, Note_off_c, 12, 55, 56
13, 291658, Note_on_c, 12, 52, 113
13, 291660, Note_on_c, 12, 55, 113
13, 291703, Note_off_c, 12, 52, 56
13, 291705, Note_off_c, 12, 55, 56
13, 291718, Note_on_c, 12, 55, 113
13, 291720, Note_on_c, 12, 52, 113
13, 291763, Note_off_c, 12, 55, 56
13, 291765, Note_off_c, 12, 52, 56
13, 291781, Note_on_c, 12, 55, 113
13, 291782, Note_on_c, 12, 52, 113
13, 291826, Note_off_c, 12, 55, 56
13, 291827, Note_off_c, 12, 52, 56
13, 291839, Note_on_c, 12, 55, 113
13, 291842, Note_on_c, 12, 52, 113
13, 291884, Note_off_c, 12, 55, 56
13, 291887, Note_off_c, 12, 52, 56
13, 291898, Note_on_c, 12, 55, 113
13, 291900, Note_on_c, 12, 52, 113
13, 291943, Note_off_c, 12, 55, 56
13, 291945, Note_off_c, 12, 52, 56
13, 291960, Note_on_c, 12, 52, 113
13, 291962, Note_on_c, 12, 55, 113
13, 292005, Note_off_c, 12, 52, 56
13, 292007, Note_off_c, 12, 55, 56
13, 292018, Note_on_c, 12, 52, 113
13, 292021, Note_on_c, 12, 55, 113
13, 292063, Note_off_c, 12, 52, 56
13, 292066, Note_off_c, 12, 55, 56
13, 292080, Note_on_c, 12, 55, 113
13, 292080, Note_on_c, 12, 52, 113
13, 292125, Note_off_c, 12, 52, 56
13, 292125, Note_off_c, 12, 55, 56
13, 292138, Note_on_c, 12, 55, 113
13, 292139, Note_on_c, 12, 52, 113
13, 292183, Note_off_c, 12, 55, 56
13, 292184, Note_off_c, 12, 52, 56
13, 292200, Note_on_c, 12, 55, 113
13, 292202, Note_on_c, 12, 52, 113
13, 292245, Note_off_c, 12, 55, 56
13, 292247, Note_off_c, 12, 52, 56
13, 292258, Note_on_c, 12, 55, 113
13, 292259, Note_on_c, 12, 52, 113
13, 292303, Note_off_c, 12, 55, 56
13, 292304, Note_off_c, 12, 52, 56
13, 292318, Note_on_c, 12, 53, 113
13, 292319, Note_on_c, 12, 55, 108
13, 292320, Note_on_c, 12, 31, 108
13, 292322, Note_on_c, 12, 71, 108
13, 292363, Note_off_c, 12, 53, 56
13, 292380, Note_on_c, 12, 53, 113
13, 292382, Note_on_c, 12, 55, 113
13, 292425, Note_off_c, 12, 53, 56
13, 292427, Note_off_c, 12, 55, 56
13, 292440, Note_on_c, 12, 55, 113
13, 292442, Note_on_c, 12, 53, 113
13, 292485, Note_off_c, 12, 55, 56
13, 292487, Note_off_c, 12, 53, 56
13, 292499, Note_on_c, 12, 53, 113
13, 292501, Note_off_c, 12, 55, 64
13, 292502, Note_on_c, 12, 55, 113
13, 292504, Note_off_c, 12, 71, 64
13, 292544, Note_off_c, 12, 53, 56
13, 292547, Note_off_c, 12, 55, 56
13, 292559, Note_on_c, 12, 55, 113
13, 292560, Note_on_c, 12, 53, 113
13, 292604, Note_off_c, 12, 55, 56
13, 292605, Note_off_c, 12, 53, 56
13, 292619, Note_on_c, 12, 55, 113
13, 292622, Note_on_c, 12, 53, 113
13, 292664, Note_off_c, 12, 55, 56
13, 292667, Note_off_c, 12, 53, 56
13, 292679, Note_on_c, 12, 53, 113
13, 292681, Note_on_c, 12, 55, 113
13, 292724, Note_off_c, 12, 53, 56
13, 292726, Note_off_c, 12, 55, 56
13, 292738, Note_on_c, 12, 53, 113
13, 292740, Note_on_c, 12, 55, 113
13, 292783, Note_off_c, 12, 53, 56
13, 292785, Note_off_c, 12, 55, 56
13, 292798, Note_on_c, 12, 71, 108
13, 292798, Note_on_c, 12, 55, 108
13, 292800, Note_on_c, 12, 53, 113
13, 292838, Note_off_c, 12, 31, 64
13, 292845, Note_off_c, 12, 53, 56
13, 292858, Note_on_c, 12, 55, 113
13, 292862, Note_on_c, 12, 53, 113
13, 292903, Note_off_c, 12, 55, 56
13, 292907, Note_off_c, 12, 53, 56
13, 292920, Note_on_c, 12, 31, 108
13, 292921, Note_on_c, 12, 55, 113
13, 292921, Note_on_c, 12, 53, 113
13, 292966, Note_off_c, 12, 53, 56
13, 292966, Note_off_c, 12, 55, 56
13, 292980, Note_off_c, 12, 55, 64
13, 292980, Note_off_c, 12, 71, 64
13, 292982, Note_on_c, 12, 55, 113
13, 292982, Note_on_c, 12, 53, 113
13, 293001, Note_off_c, 12, 31, 56
13, 293027, Note_off_c, 12, 53, 56
13, 293027, Note_off_c, 12, 55, 56
13, 293039, Note_on_c, 12, 35, 108
13, 293040, Note_on_c, 12, 53, 113
13, 293042, Note_on_c, 12, 55, 113
13, 293085, Note_off_c, 12, 53, 56
13, 293087, Note_off_c, 12, 55, 56
13, 293100, Note_off_c, 12, 35, 56
13, 293100, Note_on_c, 12, 55, 113
13, 293102, Note_on_c, 12, 53, 113
13, 293145, Note_off_c, 12, 55, 56
13, 293147, Note_off_c, 12, 53, 56
13, 293158, Note_on_c, 12, 55, 113
13, 293158, Note_on_c, 12, 53, 113
13, 293161, Note_on_c, 12, 38, 108
13, 293203, Note_off_c, 12, 53, 56
13, 293203, Note_off_c, 12, 55, 56
13, 293219, Note_on_c, 12, 53, 113
13, 293221, Note_on_c, 12, 55, 113
13, 293222, Note_off_c, 12, 38, 56
13, 293264, Note_off_c, 12, 53, 56
13, 293266, Note_off_c, 12, 55, 56
13, 293280, Note_on_c, 12, 53, 113
13, 293281, Note_on_c, 12, 55, 113
13, 293281, Note_on_c, 12, 41, 108
13, 293282, Note_on_c, 12, 71, 108
13, 293325, Note_off_c, 12, 53, 56
13, 293326, Note_off_c, 12, 55, 56
13, 293339, Note_on_c, 12, 53, 113
13, 293340, Note_on_c, 12, 55, 113
13, 293342, Note_off_c, 12, 41, 56
13, 293384, Note_off_c, 12, 53, 56
13, 293385, Note_off_c, 12, 55, 56
13, 293399, Note_on_c, 12, 53, 113
13, 293399, Note_on_c, 12, 43, 108
13, 293399, Note_on_c, 12, 55, 113
13, 293444, Note_off_c, 12, 55, 56
13, 293444, Note_off_c, 12, 53, 56
13, 293459, Note_on_c, 12, 55, 113
13, 293460, Note_off_c, 12, 43, 56
13, 293462, Note_on_c, 12, 53, 113
13, 293464, Note_off_c, 12, 71, 64
13, 293504, Note_off_c, 12, 55, 56
13, 293507, Note_off_c, 12, 53, 56
13, 293519, Note_on_c, 12, 47, 108
13, 293521, Note_on_c, 12, 53, 113
13, 293522, Note_on_c, 12, 55, 113
13, 293566, Note_off_c, 12, 53, 56
13, 293567, Note_off_c, 12, 55, 56
13, 293579, Note_on_c, 12, 53, 113
13, 293580, Note_off_c, 12, 47, 56
13, 293582, Note_on_c, 12, 55, 113
13, 293624, Note_off_c, 12, 53, 56
13, 293627, Note_off_c, 12, 55, 56
13, 293639, Note_on_c, 12, 50, 108
13, 293641, Note_on_c, 12, 55, 113
13, 293642, Note_on_c, 12, 53, 113
13, 293686, Note_off_c, 12, 55, 56
13, 293687, Note_off_c, 12, 53, 56
13, 293701, Note_on_c, 12, 55, 113
13, 293701, Note_on_c, 12, 53, 113
13, 293720, Note_off_c, 12, 50, 56
13, 293746, Note_off_c, 12, 53, 56
13, 293746, Note_off_c, 12, 55, 56
13, 293760, Note_on_c, 12, 55, 113
13, 293762, Note_on_c, 12, 71, 108
13, 293762, Note_on_c, 12, 53, 113
13, 293805, Note_off_c, 12, 55, 56
13, 293807, Note_off_c, 12, 53, 56
13, 293819, Note_on_c, 12, 53, 113
13, 293822, Note_on_c, 12, 55, 113
13, 293864, Note_off_c, 12, 53, 56
13, 293867, Note_off_c, 12, 55, 56
13, 293879, Note_on_c, 12, 55, 108
13, 293879, Note_on_c, 12, 53, 113
13, 293924, Note_off_c, 12, 53, 56
13, 293941, Note_on_c, 12, 55, 113
13, 293941, Note_on_c, 12, 53, 113
13, 293944, Note_off_c, 12, 71, 64
13, 293960, Note_off_c, 12, 55, 56
13, 293986, Note_off_c, 12, 53, 56
13, 293986, Note_off_c, 12, 55, 56
13, 293999, Note_on_c, 12, 55, 113
13, 294001, Note_on_c, 12, 53, 108
13, 294044, Note_off_c, 12, 55, 56
13, 294059, Note_on_c, 12, 53, 113
13, 294059, Note_on_c, 12, 55, 113
13, 294082, Note_off_c, 12, 53, 56
13, 294104, Note_off_c, 12, 55, 56
13, 294104, Note_off_c, 12, 53, 56
13, 294119, Note_on_c, 12, 55, 113
13, 294119, Note_on_c, 12, 50, 108
13, 294122, Note_on_c, 12, 53, 113
13, 294164, Note_off_c, 12, 55, 56
13, 294167, Note_off_c, 12, 53, 56
13, 294178, Note_on_c, 12, 53, 113
13, 294178, Note_on_c, 12, 55, 113
13, 294200, Note_off_c, 12, 50, 56
13, 294223, Note_off_c, 12, 55, 56
13, 294223, Note_off_c, 12, 53, 56
13, 294239, Note_on_c, 12, 55, 113
13, 294239, Note_on_c, 12, 74, 108
13, 294240, Note_on_c, 12, 47, 108
13, 294241, Note_on_c, 12, 53, 113
13, 294284, Note_off_c, 12, 55, 56
13, 294286, Note_off_c, 12, 53, 56
13, 294298, Note_on_c, 12, 53, 113
13, 294299, Note_on_c, 12, 55, 113
13, 294321, Note_off_c, 12, 47, 56
13, 294343, Note_off_c, 12, 53, 56
13, 294344, Note_off_c, 12, 55, 56
13, 294359, Note_on_c, 12, 50, 108
13, 294361, Note_on_c, 12, 55, 113
13, 294361, Note_on_c, 12, 53, 113
13, 294406, Note_off_c, 12, 53, 56
13, 294406, Note_off_c, 12, 55, 56
13, 294421, Note_off_c, 12, 74, 64
13, 294422, Note_on_c, 12, 53, 113
13, 294422, Note_on_c, 12, 55, 113
13, 294440, Note_off_c, 12, 50, 56
13, 294467, Note_off_c, 12, 55, 56
13, 294467, Note_off_c, 12, 53, 56
13, 294478, Note_on_c, 12, 55, 113
13, 294480, Note_on_c, 12, 47, 108
13, 294481, Note_on_c, 12, 53, 113
13, 294523, Note_off_c, 12, 55, 56
13, 294526, Note_off_c, 12, 53, 56
13, 294539, Note_on_c, 12, 53, 113
13, 294542, Note_on_c, 12, 55, 113
13, 294561, Note_off_c, 12, 47, 56
13, 294584, Note_off_c, 12, 53, 56
13, 294587, Note_off_c, 12, 55, 56
13, 294600, Note_on_c, 12, 43, 108
13, 294601, Note_on_c, 12, 53, 113
13, 294601, Note_on_c, 12, 55, 113
13, 294646, Note_off_c, 12, 55, 56
13, 294646, Note_off_c, 12, 53, 56
13, 294660, Note_on_c, 12, 55, 113
13, 294662, Note_on_c, 12, 53, 113
13, 294681, Note_off_c, 12, 43, 56
13, 294705, Note_off_c, 12, 55, 56
13, 294707, Note_off_c, 12, 53, 56
13, 294718, Note_on_c, 12, 55, 113
13, 294720, Note_on_c, 12, 53, 113
13, 294720, Note_on_c, 12, 41, 108
13, 294763, Note_off_c, 12, 55, 56
13, 294765, Note_off_c, 12, 53, 56
13, 294779, Note_on_c, 12, 55, 113
13, 294780, Note_on_c, 12, 53, 113
13, 294801, Note_off_c, 12, 41, 56
13, 294824, Note_off_c, 12, 55, 56
13, 294825, Note_off_c, 12, 53, 56
13, 294839, Note_on_c, 12, 38, 108
13, 294841, Note_on_c, 12, 55, 113
13, 294842, Note_on_c, 12, 53, 113
13, 294886, Note_off_c, 12, 55, 56
13, 294887, Note_off_c, 12, 53, 56
13, 294899, Note_on_c, 12, 53, 113
13, 294900, Note_on_c, 12, 55, 113
13, 294920, Note_off_c, 12, 38, 56
13, 294944, Note_off_c, 12, 53, 56
13, 294945, Note_off_c, 12, 55, 56
13, 294961, Note_on_c, 12, 53, 113
13, 294961, Note_on_c, 12, 35, 108
13, 294962, Note_on_c, 12, 55, 113
13, 295006, Note_off_c, 12, 53, 56
13, 295007, Note_off_c, 12, 55, 56
13, 295018, Note_on_c, 12, 55, 113
13, 295022, Note_on_c, 12, 53, 113
13, 295042, Note_off_c, 12, 35, 56
13, 295063, Note_off_c, 12, 55, 56
13, 295067, Note_off_c, 12, 53, 56
13, 295079, Note_on_c, 12, 53, 113
13, 295079, Note_on_c, 12, 38, 108
13, 295080, Note_on_c, 12, 55, 113
13, 295124, Note_off_c, 12, 53, 56
13, 295125, Note_off_c, 12, 55, 56
13, 295138, Note_on_c, 12, 53, 113
13, 295138, Note_on_c, 12, 55, 113
13, 295160, Note_off_c, 12, 38, 56
13, 295183, Note_off_c, 12, 55, 56
13, 295183, Note_off_c, 12, 53, 56
13, 295199, Note_on_c, 12, 53, 113
13, 295200, Note_on_c, 12, 31, 108
13, 295200, Note_on_c, 12, 55, 113
13, 295244, Note_off_c, 12, 53, 56
13, 295245, Note_off_c, 12, 55, 56
13, 295259, Note_on_c, 12, 55, 113
13, 295260, Note_on_c, 12, 53, 113
13, 295304, Note_off_c, 12, 55, 56
13, 295305, Note_off_c, 12, 53, 56
13, 295322, Note_on_c, 12, 55, 113
13, 295322, Note_on_c, 12, 53, 113
13, 295363, Note_off_c, 12, 31, 64
13, 295367, Note_off_c, 12, 53, 56
13, 295367, Note_off_c, 12, 55, 56
13, 295378, Note_on_c, 12, 55, 113
13, 295381, Note_on_c, 12, 53, 113
13, 295423, Note_off_c, 12, 55, 56
13, 295426, Note_off_c, 12, 53, 56
13, 295440, Note_on_c, 12, 55, 113
13, 295440, Note_on_c, 12, 53, 113
13, 295485, Note_off_c, 12, 53, 56
13, 295485, Note_off_c, 12, 55, 56
13, 295500, Note_on_c, 12, 55, 113
13, 295501, Note_on_c, 12, 53, 113
13, 295545, Note_off_c, 12, 55, 56
13, 295546, Note_off_c, 12, 53, 56
13, 295561, Note_on_c, 12, 55, 113
13, 295561, Note_on_c, 12, 53, 113
13, 295606, Note_off_c, 12, 53, 56
13, 295606, Note_off_c, 12, 55, 56
13, 295618, Note_on_c, 12, 55, 113
13, 295619, Note_on_c, 12, 53, 113
13, 295663, Note_off_c, 12, 55, 56
13, 295664, Note_off_c, 12, 53, 56
13, 295680, Note_on_c, 12, 55, 113
13, 295681, Note_on_c, 12, 53, 113
13, 295725, Note_off_c, 12, 55, 56
13, 295726, Note_off_c, 12, 53, 56
13, 295738, Note_on_c, 12, 53, 113
13, 295742, Note_on_c, 12, 55, 113
13, 295783, Note_off_c, 12, 53, 56
13, 295787, Note_off_c, 12, 55, 56
13, 295800, Note_on_c, 12, 55, 113
13, 295802, Note_on_c, 12, 53, 113
13, 295845, Note_off_c, 12, 55, 56
13, 295847, Note_off_c, 12, 53, 56
13, 295858, Note_on_c, 12, 55, 113
13, 295859, Note_on_c, 12, 53, 113
13, 295903, Note_off_c, 12, 55, 56
13, 295904, Note_off_c, 12, 53, 56
13, 295919, Note_on_c, 12, 53, 113
13, 295919, Note_on_c, 12, 55, 113
13, 295964, Note_off_c, 12, 55, 56
13, 295964, Note_off_c, 12, 53, 56
13, 295981, Note_on_c, 12, 53, 113
13, 295982, Note_on_c, 12, 55, 113
13, 296026, Note_off_c, 12, 53, 56
13, 296027, Note_off_c, 12, 55, 56
13, 296041, Note_on_c, 12, 53, 113
13, 296041, Note_on_c, 12, 55, 113
13, 296086, Note_off_c, 12, 55, 56
13, 296086, Note_off_c, 12, 53, 56
13, 296101, Note_on_c, 12, 55, 113
13, 296101, Note_on_c, 12, 53, 113
13, 296146, Note_off_c, 12, 53, 56
13, 296146, Note_off_c, 12, 55, 56
13, 296158, Note_on_c, 12, 67, 66
13, 296159, Note_on_c, 12, 55, 65
13, 296161, Note_on_c, 12, 58, 113
13, 296161, Note_on_c, 12, 76, 108
13, 296163, Note_on_c, 12, 24, 108
13, 296206, Note_off_c, 12, 58, 56
13, 296220, Note_on_c, 12, 55, 113
13, 296221, Note_on_c, 12, 58, 113
13, 296265, Note_off_c, 12, 55, 56
13, 296266, Note_off_c, 12, 58, 56
13, 296280, Note_on_c, 12, 58, 113
13, 296282, Note_on_c, 12, 55, 113
13, 296325, Note_off_c, 12, 58, 56
13, 296327, Note_off_c, 12, 55, 56
13, 296338, Note_on_c, 12, 58, 113
13, 296339, Note_on_c, 12, 55, 113
13, 296340, Note_off_c, 12, 67, 64
13, 296341, Note_off_c, 12, 55, 64
13, 296366, Note_off_c, 12, 76, 64
13, 296383, Note_off_c, 12, 58, 56
13, 296384, Note_off_c, 12, 55, 56
13, 296399, Note_on_c, 12, 58, 113
13, 296402, Note_on_c, 12, 55, 113
13, 296444, Note_off_c, 12, 58, 56
13, 296447, Note_off_c, 12, 55, 56
13, 296459, Note_on_c, 12, 58, 113
13, 296462, Note_on_c, 12, 55, 113
13, 296504, Note_off_c, 12, 58, 56
13, 296507, Note_off_c, 12, 55, 56
13, 296520, Note_on_c, 12, 55, 113
13, 296522, Note_on_c, 12, 58, 113
13, 296565, Note_off_c, 12, 55, 56
13, 296567, Note_off_c, 12, 58, 56
13, 296578, Note_on_c, 12, 55, 113
13, 296581, Note_on_c, 12, 58, 113
13, 296623, Note_off_c, 12, 55, 56
13, 296626, Note_off_c, 12, 58, 56
13, 296638, Note_on_c, 12, 76, 108
13, 296639, Note_on_c, 12, 55, 113
13, 296641, Note_on_c, 12, 67, 66
13, 296641, Note_on_c, 12, 58, 113
13, 296684, Note_off_c, 12, 55, 56
13, 296686, Note_off_c, 12, 58, 56
13, 296692, Note_off_c, 12, 24, 64
13, 296700, Note_on_c, 12, 58, 113
13, 296701, Note_on_c, 12, 55, 113
13, 296745, Note_off_c, 12, 58, 56
13, 296746, Note_off_c, 12, 55, 56
13, 296760, Note_on_c, 12, 58, 113
13, 296760, Note_on_c, 12, 24, 108
13, 296762, Note_on_c, 12, 55, 113
13, 296805, Note_off_c, 12, 58, 56
13, 296807, Note_off_c, 12, 55, 56
13, 296819, Note_on_c, 12, 55, 113
13, 296820, Note_on_c, 12, 58, 113
13, 296823, Note_off_c, 12, 67, 64
13, 296843, Note_off_c, 12, 76, 64
13, 296851, Note_off_c, 12, 24, 56
13, 296864, Note_off_c, 12, 55, 56
13, 296865, Note_off_c, 12, 58, 56
13, 296881, Note_on_c, 12, 58, 113
13, 296881, Note_on_c, 12, 28, 108
13, 296882, Note_on_c, 12, 55, 113
13, 296926, Note_off_c, 12, 58, 56
13, 296927, Note_off_c, 12, 55, 56
13, 296938, Note_on_c, 12, 55, 113
13, 296941, Note_on_c, 12, 58, 113
13, 296972, Note_off_c, 12, 28, 56
13, 296983, Note_off_c, 12, 55, 56
13, 296986, Note_off_c, 12, 58, 56
13, 297000, Note_on_c, 12, 55, 113
13, 297001, Note_on_c, 12, 58, 113
13, 297001, Note_on_c, 12, 31, 108
13, 297045, Note_off_c, 12, 55, 56
13, 297046, Note_off_c, 12, 58, 56
13, 297058, Note_on_c, 12, 55, 113
13, 297059, Note_on_c, 12, 58, 113
13, 297092, Note_off_c, 12, 31, 56
13, 297103, Note_off_c, 12, 55, 56
13, 297104, Note_off_c, 12, 58, 56
13, 297119, Note_on_c, 12, 67, 71
13, 297119, Note_on_c, 12, 58, 113
13, 297120, Note_on_c, 12, 76, 108
13, 297121, Note_on_c, 12, 55, 113
13, 297121, Note_on_c, 12, 36, 108
13, 297164, Note_off_c, 12, 58, 56
13, 297166, Note_off_c, 12, 55, 56
13, 297178, Note_on_c, 12, 55, 113
13, 297179, Note_on_c, 12, 58, 113
13, 297212, Note_off_c, 12, 36, 56
13, 297223, Note_off_c, 12, 55, 56
13, 297224, Note_off_c, 12, 58, 56
13, 297238, Note_on_c, 12, 55, 113
13, 297240, Note_on_c, 12, 40, 108
13, 297242, Note_on_c, 12, 58, 113
13, 297283, Note_off_c, 12, 55, 56
13, 297287, Note_off_c, 12, 58, 56
13, 297298, Note_on_c, 12, 58, 113
13, 297300, Note_on_c, 12, 55, 113
13, 297301, Note_off_c, 12, 67, 64
13, 297325, Note_off_c, 12, 76, 64
13, 297331, Note_off_c, 12, 40, 56
13, 297343, Note_off_c, 12, 58, 56
13, 297345, Note_off_c, 12, 55, 56
13, 297358, Note_on_c, 12, 58, 113
13, 297359, Note_on_c, 12, 43, 108
13, 297362, Note_on_c, 12, 55, 113
13, 297403, Note_off_c, 12, 58, 56
13, 297407, Note_off_c, 12, 55, 56
13, 297418, Note_on_c, 12, 55, 113
13, 297421, Note_on_c, 12, 58, 113
13, 297450, Note_off_c, 12, 43, 56
13, 297463, Note_off_c, 12, 55, 56
13, 297466, Note_off_c, 12, 58, 56
13, 297480, Note_on_c, 12, 48, 108
13, 297482, Note_on_c, 12, 55, 113
13, 297482, Note_on_c, 12, 58, 113
13, 297527, Note_off_c, 12, 58, 56
13, 297527, Note_off_c, 12, 55, 56
13, 297541, Note_on_c, 12, 58, 113
13, 297542, Note_on_c, 12, 55, 113
13, 297571, Note_off_c, 12, 48, 56
13, 297586, Note_off_c, 12, 58, 56
13, 297587, Note_off_c, 12, 55, 56
13, 297598, Note_on_c, 12, 76, 108
13, 297600, Note_on_c, 12, 52, 108
13, 297601, Note_on_c, 12, 55, 113
13, 297601, Note_on_c, 12, 58, 113
13, 297601, Note_on_c, 12, 67, 66
13, 297646, Note_off_c, 12, 58, 56
13, 297646, Note_off_c, 12, 55, 56
13, 297660, Note_on_c, 12, 55, 113
13, 297662, Note_on_c, 12, 58, 113
13, 297691, Note_off_c, 12, 52, 56
13, 297705, Note_off_c, 12, 55, 56
13, 297707, Note_off_c, 12, 58, 56
13, 297721, Note_on_c, 12, 58, 113
13, 297721, Note_on_c, 12, 48, 108
13, 297721, Note_on_c, 12, 55, 113
13, 297766, Note_off_c, 12, 55, 56
13, 297766, Note_off_c, 12, 58, 56
13, 297778, Note_on_c, 12, 58, 113
13, 297780, Note_on_c, 12, 55, 113
13, 297783, Note_off_c, 12, 67, 64
13, 297803, Note_off_c, 12, 76, 64
13, 297812, Note_off_c, 12, 48, 56
13, 297823, Note_off_c, 12, 58, 56
13, 297825, Note_off_c, 12, 55, 56
13, 297839, Note_on_c, 12, 55, 113
13, 297840, Note_on_c, 12, 43, 108
13, 297841, Note_on_c, 12, 58, 113
13, 297884, Note_off_c, 12, 55, 56
13, 297886, Note_off_c, 12, 58, 56
13, 297899, Note_on_c, 12, 55, 113
13, 297902, Note_on_c, 12, 58, 113
13, 297931, Note_off_c, 12, 43, 56
13, 297944, Note_off_c, 12, 55, 56
13, 297947, Note_off_c, 12, 58, 56
13, 297960, Note_on_c, 12, 58, 113
13, 297960, Note_on_c, 12, 40, 108
13, 297962, Note_on_c, 12, 55, 113
13, 298005, Note_off_c, 12, 58, 56
13, 298007, Note_off_c, 12, 55, 56
13, 298020, Note_on_c, 12, 55, 113
13, 298020, Note_on_c, 12, 58, 113
13, 298051, Note_off_c, 12, 40, 56
13, 298065, Note_off_c, 12, 58, 56
13, 298065, Note_off_c, 12, 55, 56
13, 298080, Note_on_c, 12, 76, 108
13, 298081, Note_on_c, 12, 34, 108
13, 298082, Note_on_c, 12, 52, 108
13, 298172, Note_off_c, 12, 34, 56
13, 298199, Note_on_c, 12, 33, 108
13, 298290, Note_off_c, 12, 33, 56
13, 298321, Note_on_c, 12, 34, 108
13, 298412, Note_off_c, 12, 34, 56
13, 298441, Note_on_c, 12, 34, 108
13, 298532, Note_off_c, 12, 34, 56
13, 298562, Note_on_c, 12, 34, 108
13, 298728, Note_off_c, 12, 76, 64
13, 298798, Note_on_c, 12, 72, 108
13, 299014, Note_off_c, 12, 72, 64
13, 299038, Note_on_c, 12, 76, 108
13, 299091, Note_off_c, 12, 34, 64
13, 299161, Note_on_c, 12, 33, 108
13, 299252, Note_off_c, 12, 33, 56
13, 299254, Note_off_c, 12, 76, 64
13, 299279, Note_on_c, 12, 72, 108
13, 299281, Note_on_c, 12, 34, 108
13, 299372, Note_off_c, 12, 34, 56
13, 299400, Note_on_c, 12, 34, 108
13, 299474, Note_off_c, 12, 52, 64
13, 299491, Note_off_c, 12, 34, 56
13, 299495, Note_off_c, 12, 72, 64
13, 299518, Note_on_c, 12, 34, 108
13, 299519, Note_on_c, 12, 52, 108
13, 299520, Note_on_c, 12, 79, 108
13, 299735, Note_off_c, 12, 52, 64
13, 299736, Note_off_c, 12, 79, 64
13, 299758, Note_on_c, 12, 53, 108
13, 299762, Note_on_c, 12, 77, 108
13, 299906, Note_off_c, 12, 34, 64
13, 299920, Note_off_c, 12, 53, 64
13, 299924, Note_off_c, 12, 77, 64
13, 299938, Note_on_c, 12, 76, 113
13, 299939, Note_on_c, 12, 55, 113
13, 299989, Note_off_c, 12, 76, 56
13, 299990, Note_off_c, 12, 55, 56
13, 299998, Note_on_c, 12, 53, 108
13, 299999, Note_on_c, 12, 33, 108
13, 300000, Note_on_c, 12, 77, 108
13, 300090, Note_off_c, 12, 33, 56
13, 300119, Note_on_c, 12, 32, 108
13, 300210, Note_off_c, 12, 32, 56
13, 300241, Note_on_c, 12, 33, 108
13, 300332, Note_off_c, 12, 33, 56
13, 300360, Note_on_c, 12, 33, 108
13, 300451, Note_off_c, 12, 33, 56
13, 300482, Note_on_c, 12, 33, 108
13, 300648, Note_off_c, 12, 77, 64
13, 300721, Note_on_c, 12, 72, 108
13, 300937, Note_off_c, 12, 72, 64
13, 300959, Note_on_c, 12, 77, 108
13, 301011, Note_off_c, 12, 33, 64
13, 301081, Note_on_c, 12, 32, 108
13, 301172, Note_off_c, 12, 32, 56
13, 301175, Note_off_c, 12, 77, 64
13, 301199, Note_on_c, 12, 72, 108
13, 301200, Note_on_c, 12, 33, 108
13, 301291, Note_off_c, 12, 33, 56
13, 301321, Note_on_c, 12, 33, 108
13, 301390, Note_off_c, 12, 53, 64
13, 301412, Note_off_c, 12, 33, 56
13, 301415, Note_off_c, 12, 72, 64
13, 301438, Note_on_c, 12, 33, 108
13, 301439, Note_on_c, 12, 53, 108
13, 301441, Note_on_c, 12, 81, 108
13, 301655, Note_off_c, 12, 53, 64
13, 301657, Note_off_c, 12, 81, 64
13, 301681, Note_on_c, 12, 55, 108
13, 301682, Note_on_c, 12, 79, 108
13, 301826, Note_off_c, 12, 33, 64
13, 301843, Note_off_c, 12, 55, 64
13, 301844, Note_off_c, 12, 79, 64
13, 301859, Note_on_c, 12, 77, 113
13, 301862, Note_on_c, 12, 57, 113
13, 301910, Note_off_c, 12, 77, 56
13, 301913, Note_off_c, 12, 57, 56
13, 301917, Note_on_c, 12, 35, 108
13, 301918, Note_on_c, 12, 59, 108
13, 301922, Note_on_c, 12, 79, 113
13, 301922, Note_on_c, 12, 67, 113
13, 301967, Note_off_c, 12, 67, 56
13, 301967, Note_off_c, 12, 79, 56
13, 301981, Note_on_c, 12, 79, 113
13, 301982, Note_on_c, 12, 67, 113
13, 302026, Note_off_c, 12, 79, 56
13, 302027, Note_off_c, 12, 67, 56
13, 302039, Note_on_c, 12, 79, 113
13, 302042, Note_on_c, 12, 67, 113
13, 302084, Note_off_c, 12, 79, 56
13, 302087, Note_off_c, 12, 67, 56
13, 302100, Note_on_c, 12, 67, 113
13, 302102, Note_on_c, 12, 79, 113
13, 302145, Note_off_c, 12, 67, 56
13, 302147, Note_off_c, 12, 79, 56
13, 302159, Note_on_c, 12, 79, 113
13, 302160, Note_on_c, 12, 67, 113
13, 302204, Note_off_c, 12, 79, 56
13, 302205, Note_off_c, 12, 67, 56
13, 302221, Note_on_c, 12, 67, 113
13, 302222, Note_on_c, 12, 79, 113
13, 302266, Note_off_c, 12, 67, 56
13, 302267, Note_off_c, 12, 79, 56
13, 302279, Note_on_c, 12, 79, 113
13, 302280, Note_on_c, 12, 67, 113
13, 302324, Note_off_c, 12, 79, 56
13, 302325, Note_off_c, 12, 67, 56
13, 302338, Note_on_c, 12, 79, 113
13, 302342, Note_on_c, 12, 67, 113
13, 302383, Note_off_c, 12, 79, 56
13, 302387, Note_off_c, 12, 67, 56
13, 302399, Note_on_c, 12, 79, 113
13, 302402, Note_on_c, 12, 67, 113
13, 302444, Note_off_c, 12, 79, 56
13, 302447, Note_off_c, 12, 67, 56
13, 302459, Note_on_c, 12, 79, 113
13, 302459, Note_on_c, 12, 67, 113
13, 302500, Note_off_c, 12, 35, 64
13, 302504, Note_off_c, 12, 67, 56
13, 302504, Note_off_c, 12, 79, 56
13, 302521, Note_on_c, 12, 79, 113
13, 302521, Note_on_c, 12, 67, 113
13, 302566, Note_off_c, 12, 67, 56
13, 302566, Note_off_c, 12, 79, 56
13, 302566, Note_off_c, 12, 59, 64
13, 302578, Note_on_c, 12, 79, 113
13, 302579, Note_on_c, 12, 67, 113
13, 302623, Note_off_c, 12, 79, 56
13, 302624, Note_off_c, 12, 67, 56
13, 302638, Note_on_c, 12, 79, 113
13, 302639, Note_on_c, 12, 67, 113
13, 302642, Note_on_c, 12, 55, 108
13, 302642, Note_on_c, 12, 31, 108
13, 302683, Note_off_c, 12, 79, 56
13, 302684, Note_off_c, 12, 67, 56
13, 302702, Note_on_c, 12, 79, 113
13, 302702, Note_on_c, 12, 67, 113
13, 302747, Note_off_c, 12, 67, 56
13, 302747, Note_off_c, 12, 79, 56
13, 302759, Note_on_c, 12, 67, 113
13, 302762, Note_on_c, 12, 79, 113
13, 302804, Note_off_c, 12, 67, 56
13, 302807, Note_off_c, 12, 79, 56
13, 302819, Note_on_c, 12, 79, 113
13, 302821, Note_on_c, 12, 67, 113
13, 302836, Note_off_c, 12, 31, 64
13, 302858, Note_off_c, 12, 55, 64
13, 302864, Note_off_c, 12, 79, 56
13, 302866, Note_off_c, 12, 67, 56
13, 302879, Note_on_c, 12, 67, 113
13, 302879, Note_on_c, 12, 59, 108
13, 302879, Note_on_c, 12, 35, 108
13, 302881, Note_on_c, 12, 79, 113
13, 302924, Note_off_c, 12, 67, 56
13, 302926, Note_off_c, 12, 79, 56
13, 302938, Note_on_c, 12, 79, 113
13, 302941, Note_on_c, 12, 67, 113
13, 302983, Note_off_c, 12, 79, 56
13, 302986, Note_off_c, 12, 67, 56
13, 302998, Note_on_c, 12, 79, 113
13, 303000, Note_on_c, 12, 67, 113
13, 303043, Note_off_c, 12, 79, 56
13, 303045, Note_off_c, 12, 67, 56
13, 303060, Note_on_c, 12, 79, 113
13, 303060, Note_on_c, 12, 67, 113
13, 303073, Note_off_c, 12, 35, 64
13, 303095, Note_off_c, 12, 59, 64
13, 303105, Note_off_c, 12, 67, 56
13, 303105, Note_off_c, 12, 79, 56
13, 303118, Note_on_c, 12, 67, 113
13, 303119, Note_on_c, 12, 31, 108
13, 303121, Note_on_c, 12, 79, 113
13, 303122, Note_on_c, 12, 55, 108
13, 303163, Note_off_c, 12, 67, 56
13, 303166, Note_off_c, 12, 79, 56
13, 303179, Note_on_c, 12, 79, 113
13, 303181, Note_on_c, 12, 67, 113
13, 303224, Note_off_c, 12, 79, 56
13, 303226, Note_off_c, 12, 67, 56
13, 303239, Note_on_c, 12, 67, 113
13, 303242, Note_on_c, 12, 79, 113
13, 303284, Note_off_c, 12, 67, 56
13, 303287, Note_off_c, 12, 79, 56
13, 303298, Note_on_c, 12, 67, 113
13, 303301, Note_on_c, 12, 79, 113
13, 303313, Note_off_c, 12, 31, 64
13, 303338, Note_off_c, 12, 55, 64
13, 303343, Note_off_c, 12, 67, 56
13, 303346, Note_off_c, 12, 79, 56
13, 303359, Note_on_c, 12, 38, 108
13, 303360, Note_on_c, 12, 62, 108
13, 303361, Note_on_c, 12, 79, 113
13, 303361, Note_on_c, 12, 67, 113
13, 303406, Note_off_c, 12, 67, 56
13, 303406, Note_off_c, 12, 79, 56
13, 303419, Note_on_c, 12, 79, 113
13, 303419, Note_on_c, 12, 67, 113
13, 303464, Note_off_c, 12, 67, 56
13, 303464, Note_off_c, 12, 79, 56
13, 303481, Note_on_c, 12, 79, 113
13, 303482, Note_on_c, 12, 67, 113
13, 303526, Note_off_c, 12, 79, 56
13, 303527, Note_off_c, 12, 67, 56
13, 303538, Note_on_c, 12, 67, 113
13, 303540, Note_on_c, 12, 79, 113
13, 303553, Note_off_c, 12, 38, 64
13, 303576, Note_off_c, 12, 62, 64
13, 303583, Note_off_c, 12, 67, 56
13, 303585, Note_off_c, 12, 79, 56
13, 303598, Note_on_c, 12, 67, 113
13, 303599, Note_on_c, 12, 60, 108
13, 303600, Note_on_c, 12, 79, 113
13, 303600, Note_on_c, 12, 36, 108
13, 303643, Note_off_c, 12, 67, 56
13, 303645, Note_off_c, 12, 79, 56
13, 303659, Note_on_c, 12, 79, 113
13, 303661, Note_on_c, 12, 67, 113
13, 303704, Note_off_c, 12, 79, 56
13, 303706, Note_off_c, 12, 67, 56
13, 303718, Note_on_c, 12, 67, 113
13, 303719, Note_on_c, 12, 79, 113
13, 303745, Note_off_c, 12, 36, 64
13, 303761, Note_off_c, 12, 60, 64
13, 303763, Note_off_c, 12, 67, 56
13, 303764, Note_off_c, 12, 79, 56
13, 303779, Note_on_c, 12, 59, 113
13, 303780, Note_on_c, 12, 35, 113
13, 303782, Note_on_c, 12, 79, 113
13, 303782, Note_on_c, 12, 67, 113
13, 303825, Note_off_c, 12, 35, 56
13, 303827, Note_off_c, 12, 67, 56
13, 303827, Note_off_c, 12, 79, 56
13, 303830, Note_off_c, 12, 59, 56
13, 303837, Note_on_c, 12, 36, 108
13, 303839, Note_on_c, 12, 67, 113
13, 303839, Note_on_c, 12, 79, 113
13, 303840, Note_on_c, 12, 60, 108
13, 303884, Note_off_c, 12, 79, 56
13, 303884, Note_off_c, 12, 67, 56
13, 303898, Note_on_c, 12, 79, 113
13, 303902, Note_on_c, 12, 67, 113
13, 303943, Note_off_c, 12, 79, 56
13, 303947, Note_off_c, 12, 67, 56
13, 303958, Note_on_c, 12, 79, 113
13, 303961, Note_on_c, 12, 67, 113
13, 304003, Note_off_c, 12, 79, 56
13, 304006, Note_off_c, 12, 67, 56
13, 304019, Note_on_c, 12, 79, 113
13, 304022, Note_on_c, 12, 67, 113
13, 304064, Note_off_c, 12, 79, 56
13, 304067, Note_off_c, 12, 67, 56
13, 304080, Note_on_c, 12, 79, 113
13, 304081, Note_on_c, 12, 67, 113
13, 304125, Note_off_c, 12, 79, 56
13, 304126, Note_off_c, 12, 67, 56
13, 304141, Note_on_c, 12, 67, 113
13, 304142, Note_on_c, 12, 79, 113
13, 304186, Note_off_c, 12, 67, 56
13, 304187, Note_off_c, 12, 79, 56
13, 304198, Note_on_c, 12, 79, 113
13, 304198, Note_on_c, 12, 67, 113
13, 304243, Note_off_c, 12, 67, 56
13, 304243, Note_off_c, 12, 79, 56
13, 304258, Note_on_c, 12, 67, 113
13, 304261, Note_on_c, 12, 79, 113
13, 304303, Note_off_c, 12, 67, 56
13, 304306, Note_off_c, 12, 79, 56
13, 304319, Note_on_c, 12, 67, 113
13, 304321, Note_on_c, 12, 79, 113
13, 304364, Note_off_c, 12, 67, 56
13, 304366, Note_off_c, 12, 79, 56
13, 304378, Note_on_c, 12, 67, 113
13, 304380, Note_on_c, 12, 79, 113
13, 304420, Note_off_c, 12, 36, 64
13, 304423, Note_off_c, 12, 67, 56
13, 304425, Note_off_c, 12, 79, 56
13, 304438, Note_on_c, 12, 67, 113
13, 304442, Note_on_c, 12, 79, 113
13, 304483, Note_off_c, 12, 67, 56
13, 304487, Note_off_c, 12, 79, 56
13, 304488, Note_off_c, 12, 60, 64
13, 304500, Note_on_c, 12, 67, 113
13, 304502, Note_on_c, 12, 79, 113
13, 304545, Note_off_c, 12, 67, 56
13, 304547, Note_off_c, 12, 79, 56
13, 304558, Note_on_c, 12, 31, 108
13, 304560, Note_on_c, 12, 79, 113
13, 304561, Note_on_c, 12, 55, 108
13, 304562, Note_on_c, 12, 67, 113
13, 304605, Note_off_c, 12, 79, 56
13, 304607, Note_off_c, 12, 67, 56
13, 304618, Note_on_c, 12, 67, 113
13, 304622, Note_on_c, 12, 79, 113
13, 304663, Note_off_c, 12, 67, 56
13, 304667, Note_off_c, 12, 79, 56
13, 304678, Note_on_c, 12, 67, 113
13, 304680, Note_on_c, 12, 79, 113
13, 304723, Note_off_c, 12, 67, 56
13, 304725, Note_off_c, 12, 79, 56
13, 304742, Note_on_c, 12, 79, 113
13, 304742, Note_on_c, 12, 67, 113
13, 304752, Note_off_c, 12, 31, 64
13, 304777, Note_off_c, 12, 55, 64
13, 304787, Note_off_c, 12, 67, 56
13, 304787, Note_off_c, 12, 79, 56
13, 304797, Note_on_c, 12, 36, 108
13, 304799, Note_on_c, 12, 67, 113
13, 304801, Note_on_c, 12, 79, 113
13, 304802, Note_on_c, 12, 60, 108
13, 304844, Note_off_c, 12, 67, 56
13, 304846, Note_off_c, 12, 79, 56
13, 304861, Note_on_c, 12, 79, 113
13, 304861, Note_on_c, 12, 67, 113
13, 304906, Note_off_c, 12, 67, 56
13, 304906, Note_off_c, 12, 79, 56
13, 304919, Note_on_c, 12, 79, 113
13, 304922, Note_on_c, 12, 67, 113
13, 304964, Note_off_c, 12, 79, 56
13, 304967, Note_off_c, 12, 67, 56
13, 304981, Note_on_c, 12, 79, 113
13, 304982, Note_on_c, 12, 67, 113
13, 304991, Note_off_c, 12, 36, 64
13, 305018, Note_off_c, 12, 60, 64
13, 305026, Note_off_c, 12, 79, 56
13, 305027, Note_off_c, 12, 67, 56
13, 305038, Note_on_c, 12, 79, 113
13, 305039, Note_on_c, 12, 55, 108
13, 305040, Note_on_c, 12, 67, 113
13, 305041, Note_on_c, 12, 31, 108
13, 305083, Note_off_c, 12, 79, 56
13, 305085, Note_off_c, 12, 67, 56
13, 305098, Note_on_c, 12, 67, 113
13, 305101, Note_on_c, 12, 79, 113
13, 305143, Note_off_c, 12, 67, 56
13, 305146, Note_off_c, 12, 79, 56
13, 305158, Note_on_c, 12, 79, 113
13, 305161, Note_on_c, 12, 67, 113
13, 305203, Note_off_c, 12, 79, 56
13, 305206, Note_off_c, 12, 67, 56
13, 305219, Note_on_c, 12, 79, 113
13, 305221, Note_on_c, 12, 67, 113
13, 305235, Note_off_c, 12, 31, 64
13, 305255, Note_off_c, 12, 55, 64
13, 305264, Note_off_c, 12, 79, 56
13, 305266, Note_off_c, 12, 67, 56
13, 305279, Note_on_c, 12, 40, 108
13, 305280, Note_on_c, 12, 67, 113
13, 305282, Note_on_c, 12, 64, 108
13, 305282, Note_on_c, 12, 79, 113
13, 305325, Note_off_c, 12, 67, 56
13, 305327, Note_off_c, 12, 79, 56
13, 305338, Note_on_c, 12, 79, 113
13, 305338, Note_on_c, 12, 67, 113
13, 305383, Note_off_c, 12, 67, 56
13, 305383, Note_off_c, 12, 79, 56
13, 305400, Note_on_c, 12, 67, 113
13, 305402, Note_on_c, 12, 79, 113
13, 305445, Note_off_c, 12, 67, 56
13, 305447, Note_off_c, 12, 79, 56
13, 305460, Note_on_c, 12, 79, 113
13, 305461, Note_on_c, 12, 67, 113
13, 305473, Note_off_c, 12, 40, 64
13, 305498, Note_off_c, 12, 64, 64
13, 305505, Note_off_c, 12, 79, 56
13, 305506, Note_off_c, 12, 67, 56
13, 305518, Note_on_c, 12, 79, 113
13, 305518, Note_on_c, 12, 62, 108
13, 305519, Note_on_c, 12, 38, 108
13, 305522, Note_on_c, 12, 67, 113
13, 305563, Note_off_c, 12, 79, 56
13, 305567, Note_off_c, 12, 67, 56
13, 305579, Note_on_c, 12, 67, 113
13, 305580, Note_on_c, 12, 79, 113
13, 305624, Note_off_c, 12, 67, 56
13, 305625, Note_off_c, 12, 79, 56
13, 305640, Note_on_c, 12, 79, 113
13, 305642, Note_on_c, 12, 67, 113
13, 305664, Note_off_c, 12, 38, 64
13, 305680, Note_off_c, 12, 62, 64
13, 305685, Note_off_c, 12, 79, 56
13, 305687, Note_off_c, 12, 67, 56
13, 305699, Note_on_c, 12, 60, 113
13, 305700, Note_on_c, 12, 36, 113
13, 305701, Note_on_c, 12, 67, 113
13, 305702, Note_on_c, 12, 79, 113
13, 305745, Note_off_c, 12, 36, 56
13, 305746, Note_off_c, 12, 67, 56
13, 305747, Note_off_c, 12, 79, 56
13, 305750, Note_off_c, 12, 60, 56
13, 305759, Note_on_c, 12, 79, 113
13, 305759, Note_on_c, 12, 59, 108
13, 305760, Note_on_c, 12, 35, 108
13, 305761, Note_on_c, 12, 67, 113
13, 305804, Note_off_c, 12, 79, 56
13, 305806, Note_off_c, 12, 67, 56
13, 305819, Note_on_c, 12, 67, 113
13, 305822, Note_on_c, 12, 79, 113
13, 305864, Note_off_c, 12, 67, 56
13, 305867, Note_off_c, 12, 79, 56
13, 305879, Note_on_c, 12, 67, 113
13, 305880, Note_on_c, 12, 79, 113
13, 305924, Note_off_c, 12, 67, 56
13, 305925, Note_off_c, 12, 79, 56
13, 305940, Note_on_c, 12, 79, 113
13, 305942, Note_on_c, 12, 67, 113
13, 305985, Note_off_c, 12, 79, 56
13, 305987, Note_off_c, 12, 67, 56
13, 305998, Note_on_c, 12, 79, 113
13, 305999, Note_on_c, 12, 67, 113
13, 306043, Note_off_c, 12, 79, 56
13, 306044, Note_off_c, 12, 67, 56
13, 306051, Note_off_c, 12, 35, 64
13, 306061, Note_on_c, 12, 79, 113
13, 306062, Note_on_c, 12, 67, 113
13, 306083, Note_off_c, 12, 59, 64
13, 306106, Note_off_c, 12, 79, 56
13, 306107, Note_off_c, 12, 67, 56
13, 306118, Note_on_c, 12, 67, 113
13, 306119, Note_on_c, 12, 31, 108
13, 306120, Note_on_c, 12, 79, 113
13, 306122, Note_on_c, 12, 55, 108
13, 306163, Note_off_c, 12, 67, 56
13, 306165, Note_off_c, 12, 79, 56
13, 306178, Note_on_c, 12, 67, 113
13, 306180, Note_on_c, 12, 79, 113
13, 306210, Note_off_c, 12, 31, 56
13, 306223, Note_off_c, 12, 67, 56
13, 306224, Note_off_c, 12, 55, 56
13, 306225, Note_off_c, 12, 79, 56
13, 306238, Note_on_c, 12, 79, 113
13, 306242, Note_on_c, 12, 62, 108
13, 306242, Note_on_c, 12, 38, 108
13, 306242, Note_on_c, 12, 67, 113
13, 306283, Note_off_c, 12, 79, 56
13, 306287, Note_off_c, 12, 67, 56
13, 306298, Note_on_c, 12, 79, 113
13, 306300, Note_on_c, 12, 67, 113
13, 306343, Note_off_c, 12, 79, 56
13, 306345, Note_off_c, 12, 67, 56
13, 306358, Note_on_c, 12, 79, 113
13, 306361, Note_on_c, 12, 67, 113
13, 306403, Note_off_c, 12, 79, 56
13, 306406, Note_off_c, 12, 67, 56
13, 306420, Note_on_c, 12, 79, 113
13, 306421, Note_on_c, 12, 67, 113
13, 306465, Note_off_c, 12, 79, 56
13, 306466, Note_off_c, 12, 67, 56
13, 306479, Note_on_c, 12, 79, 113
13, 306482, Note_on_c, 12, 67, 113
13, 306524, Note_off_c, 12, 79, 56
13, 306527, Note_off_c, 12, 67, 56
13, 306541, Note_on_c, 12, 79, 113
13, 306541, Note_on_c, 12, 67, 113
13, 306549, Note_off_c, 12, 38, 64
13, 306584, Note_off_c, 12, 62, 64
13, 306586, Note_off_c, 12, 67, 56
13, 306586, Note_off_c, 12, 79, 56
13, 306599, Note_on_c, 12, 60, 113
13, 306600, Note_on_c, 12, 67, 113
13, 306600, Note_on_c, 12, 36, 113
13, 306601, Note_on_c, 12, 79, 113
13, 306645, Note_off_c, 12, 67, 56
13, 306646, Note_off_c, 12, 79, 56
13, 306648, Note_off_c, 12, 36, 56
13, 306653, Note_off_c, 12, 60, 56
13, 306658, Note_on_c, 12, 79, 113
13, 306660, Note_on_c, 12, 59, 113
13, 306660, Note_on_c, 12, 35, 113
13, 306660, Note_on_c, 12, 67, 113
13, 306703, Note_off_c, 12, 79, 56
13, 306705, Note_off_c, 12, 67, 56
13, 306705, Note_off_c, 12, 35, 56
13, 306711, Note_off_c, 12, 59, 56
13, 306718, Note_on_c, 12, 67, 113
13, 306718, Note_on_c, 12, 60, 108
13, 306720, Note_on_c, 12, 36, 108
13, 306721, Note_on_c, 12, 79, 113
13, 306763, Note_off_c, 12, 67, 56
13, 306766, Note_off_c, 12, 79, 56
13, 306778, Note_on_c, 12, 79, 113
13, 306781, Note_on_c, 12, 67, 113
13, 306823, Note_off_c, 12, 79, 56
13, 306826, Note_off_c, 12, 67, 56
13, 306839, Note_on_c, 12, 79, 113
13, 306839, Note_on_c, 12, 67, 113
13, 306884, Note_off_c, 12, 67, 56
13, 306884, Note_off_c, 12, 79, 56
13, 306898, Note_on_c, 12, 79, 113
13, 306902, Note_on_c, 12, 67, 113
13, 306943, Note_off_c, 12, 79, 56
13, 306947, Note_off_c, 12, 67, 56
13, 306959, Note_on_c, 12, 67, 113
13, 306960, Note_on_c, 12, 79, 113
13, 307004, Note_off_c, 12, 67, 56
13, 307005, Note_off_c, 12, 79, 56
13, 307011, Note_off_c, 12, 36, 64
13, 307018, Note_on_c, 12, 79, 113
13, 307022, Note_on_c, 12, 67, 113
13, 307042, Note_off_c, 12, 60, 64
13, 307063, Note_off_c, 12, 79, 56
13, 307067, Note_off_c, 12, 67, 56
13, 307078, Note_on_c, 12, 55, 108
13, 307080, Note_on_c, 12, 31, 108
13, 307081, Note_on_c, 12, 67, 113
13, 307082, Note_on_c, 12, 79, 113
13, 307126, Note_off_c, 12, 67, 56
13, 307127, Note_off_c, 12, 79, 56
13, 307141, Note_on_c, 12, 79, 113
13, 307141, Note_on_c, 12, 67, 113
13, 307171, Note_off_c, 12, 31, 56
13, 307180, Note_off_c, 12, 55, 56
13, 307186, Note_off_c, 12, 67, 56
13, 307186, Note_off_c, 12, 79, 56
13, 307198, Note_on_c, 12, 64, 108
13, 307199, Note_on_c, 12, 79, 113
13, 307199, Note_on_c, 12, 40, 108
13, 307201, Note_on_c, 12, 67, 113
13, 307244, Note_off_c, 12, 79, 56
13, 307246, Note_off_c, 12, 67, 56
13, 307261, Note_on_c, 12, 79, 113
13, 307262, Note_on_c, 12, 67, 113
13, 307306, Note_off_c, 12, 79, 56
13, 307307, Note_off_c, 12, 67, 56
13, 307320, Note_on_c, 12, 79, 113
13, 307322, Note_on_c, 12, 67, 113
13, 307365, Note_off_c, 12, 79, 56
13, 307367, Note_off_c, 12, 67, 56
13, 307379, Note_on_c, 12, 67, 113
13, 307382, Note_on_c, 12, 79, 113
13, 307424, Note_off_c, 12, 67, 56
13, 307427, Note_off_c, 12, 79, 56
13, 307438, Note_on_c, 12, 79, 113
13, 307439, Note_on_c, 12, 67, 113
13, 307483, Note_off_c, 12, 79, 56
13, 307484, Note_off_c, 12, 67, 56
13, 307501, Note_on_c, 12, 79, 113
13, 307502, Note_on_c, 12, 67, 113
13, 307506, Note_off_c, 12, 40, 64
13, 307540, Note_off_c, 12, 64, 64
13, 307546, Note_off_c, 12, 79, 56
13, 307547, Note_off_c, 12, 67, 56
13, 307558, Note_on_c, 12, 62, 113
13, 307560, Note_on_c, 12, 67, 113
13, 307560, Note_on_c, 12, 38, 113
13, 307562, Note_on_c, 12, 79, 113
13, 307605, Note_off_c, 12, 67, 56
13, 307607, Note_off_c, 12, 79, 56
13, 307608, Note_off_c, 12, 38, 56
13, 307612, Note_off_c, 12, 62, 56
13, 307619, Note_on_c, 12, 79, 113
13, 307620, Note_on_c, 12, 60, 113
13, 307620, Note_on_c, 12, 36, 113
13, 307621, Note_on_c, 12, 67, 113
13, 307664, Note_off_c, 12, 79, 56
13, 307665, Note_off_c, 12, 36, 56
13, 307666, Note_off_c, 12, 67, 56
13, 307671, Note_off_c, 12, 60, 56
13, 307678, Note_on_c, 12, 79, 108
13, 307680, Note_on_c, 12, 43, 108
13, 307682, Note_on_c, 12, 59, 108
13, 307741, Note_off_c, 12, 43, 56
13, 307784, Note_off_c, 12, 59, 56
13, 307799, Note_on_c, 12, 59, 108
13, 307802, Note_on_c, 12, 55, 108
13, 307899, Note_off_c, 12, 55, 56
13, 307921, Note_on_c, 12, 53, 108
13, 308004, Note_off_c, 12, 59, 64
13, 308012, Note_off_c, 12, 53, 56
13, 308040, Note_on_c, 12, 60, 108
13, 308041, Note_on_c, 12, 52, 108
13, 308102, Note_off_c, 12, 52, 56
13, 308108, Note_off_c, 12, 60, 56
13, 308161, Note_on_c, 12, 50, 108
13, 308162, Note_on_c, 12, 62, 108
13, 308222, Note_off_c, 12, 50, 56
13, 308230, Note_off_c, 12, 62, 56
13, 308267, Note_off_c, 12, 79, 64
13, 308278, Note_on_c, 12, 79, 108
13, 308280, Note_on_c, 12, 67, 108
13, 308281, Note_on_c, 12, 52, 108
13, 308378, Note_off_c, 12, 52, 56
13, 308386, Note_off_c, 12, 79, 56
13, 308388, Note_off_c, 12, 67, 56
13, 308399, Note_on_c, 12, 77, 108
13, 308399, Note_on_c, 12, 65, 108
13, 308400, Note_on_c, 12, 50, 108
13, 308491, Note_off_c, 12, 50, 56
13, 308501, Note_off_c, 12, 65, 56
13, 308501, Note_off_c, 12, 77, 56
13, 308519, Note_on_c, 12, 64, 108
13, 308520, Note_on_c, 12, 76, 108
13, 308520, Note_on_c, 12, 48, 108
13, 308581, Note_off_c, 12, 48, 56
13, 308587, Note_off_c, 12, 64, 56
13, 308588, Note_off_c, 12, 76, 56
13, 308639, Note_on_c, 12, 74, 108
13, 308640, Note_on_c, 12, 62, 108
13, 308641, Note_on_c, 12, 47, 108
13, 308702, Note_off_c, 12, 47, 56
13, 308707, Note_off_c, 12, 74, 56
13, 308708, Note_off_c, 12, 62, 56
13, 308759, Note_on_c, 12, 76, 108
13, 308759, Note_on_c, 12, 48, 108
13, 308762, Note_on_c, 12, 64, 108
13, 308856, Note_off_c, 12, 48, 56
13, 308867, Note_off_c, 12, 76, 56
13, 308870, Note_off_c, 12, 64, 56
13, 308880, Note_on_c, 12, 74, 108
13, 308880, Note_on_c, 12, 62, 108
13, 308882, Note_on_c, 12, 47, 108
13, 308979, Note_off_c, 12, 47, 56
13, 308982, Note_off_c, 12, 74, 56
13, 308988, Note_off_c, 12, 62, 56
13, 308998, Note_on_c, 12, 60, 108
13, 308999, Note_on_c, 12, 72, 108
13, 309000, Note_on_c, 12, 45, 108
13, 309061, Note_off_c, 12, 45, 56
13, 309066, Note_off_c, 12, 60, 56
13, 309067, Note_off_c, 12, 72, 56
13, 309118, Note_on_c, 12, 71, 108
13, 309121, Note_on_c, 12, 59, 108
13, 309121, Note_on_c, 12, 43, 108
13, 309182, Note_off_c, 12, 43, 56
13, 309186, Note_off_c, 12, 71, 56
13, 309189, Note_off_c, 12, 59, 56
13, 309240, Note_on_c, 12, 43, 108
13, 309241, Note_on_c, 12, 67, 108
13, 309242, Note_on_c, 12, 79, 108
13, 309337, Note_off_c, 12, 43, 56
13, 309349, Note_off_c, 12, 67, 56
13, 309350, Note_off_c, 12, 79, 56
13, 309359, Note_on_c, 12, 45, 108
13, 309361, Note_on_c, 12, 62, 108
13, 309362, Note_on_c, 12, 78, 108
13, 309450, Note_off_c, 12, 45, 56
13, 309463, Note_off_c, 12, 62, 56
13, 309464, Note_off_c, 12, 78, 56
13, 309479, Note_on_c, 12, 84, 108
13, 309479, Note_on_c, 12, 69, 108
13, 309480, Note_on_c, 12, 38, 108
13, 309541, Note_off_c, 12, 38, 56
13, 309547, Note_off_c, 12, 69, 56
13, 309547, Note_off_c, 12, 84, 56
13, 309599, Note_on_c, 12, 67, 108
13, 309600, Note_on_c, 12, 83, 108
13, 309603, Note_on_c, 12, 43, 108
13, 309787, Note_off_c, 12, 43, 64
13, 309804, Note_off_c, 12, 67, 64
13, 309805, Note_off_c, 12, 83, 64
13, 310198, Note_on_c, 12, 67, 108
13, 310199, Note_on_c, 12, 55, 108
13, 310306, Note_off_c, 12, 67, 56
13, 310307, Note_off_c, 12, 55, 56
13, 310320, Note_on_c, 12, 54, 108
13, 310321, Note_on_c, 12, 66, 108
13, 310423, Note_off_c, 12, 66, 56
13, 310428, Note_off_c, 12, 54, 56
13, 310441, Note_on_c, 12, 60, 108
13, 310441, Note_on_c, 12, 72, 108
13, 310509, Note_off_c, 12, 72, 56
13, 310549, Note_off_c, 12, 60, 56
13, 310559, Note_on_c, 12, 59, 108
13, 310560, Note_on_c, 12, 71, 108
13, 310661, Note_off_c, 12, 59, 56
13, 310662, Note_off_c, 12, 71, 56
13, 310682, Note_on_c, 12, 43, 108
13, 310779, Note_off_c, 12, 43, 56
13, 310799, Note_on_c, 12, 41, 108
13, 310890, Note_off_c, 12, 41, 56
13, 310920, Note_on_c, 12, 50, 108
13, 310981, Note_off_c, 12, 50, 56
13, 311041, Note_on_c, 12, 41, 108
13, 311102, Note_off_c, 12, 41, 56
13, 311158, Note_on_c, 12, 40, 108
13, 311255, Note_off_c, 12, 40, 56
13, 311279, Note_on_c, 12, 59, 108
13, 311279, Note_on_c, 12, 38, 108
13, 311281, Note_on_c, 12, 74, 108
13, 311351, Note_off_c, 12, 59, 56
13, 311353, Note_off_c, 12, 74, 56
13, 311353, Note_on_c, 12, 60, 108
13, 311354, Note_on_c, 12, 76, 108
13, 311370, Note_off_c, 12, 38, 56
13, 311400, Note_on_c, 12, 47, 108
13, 311425, Note_off_c, 12, 60, 56
13, 311426, Note_off_c, 12, 76, 56
13, 311432, Note_on_c, 12, 77, 108
13, 311443, Note_on_c, 12, 62, 108
13, 311461, Note_off_c, 12, 47, 56
13, 311504, Note_off_c, 12, 77, 56
13, 311515, Note_off_c, 12, 62, 56
13, 311520, Note_on_c, 12, 36, 108
13, 311521, Note_on_c, 12, 55, 108
13, 311522, Note_on_c, 12, 79, 108
13, 311522, Note_on_c, 12, 52, 108
13, 311589, Note_off_c, 12, 55, 56
13, 311590, Note_off_c, 12, 52, 56
13, 311595, Note_on_c, 12, 48, 108
13, 311596, Note_on_c, 12, 52, 108
13, 311658, Note_off_c, 12, 79, 64
13, 311663, Note_off_c, 12, 48, 56
13, 311664, Note_off_c, 12, 52, 56
13, 311671, Note_on_c, 12, 52, 108
13, 311672, Note_on_c, 12, 55, 108
13, 311704, Note_off_c, 12, 36, 64
13, 311739, Note_off_c, 12, 52, 56
13, 311740, Note_off_c, 12, 55, 56
13, 311759, Note_on_c, 12, 55, 108
13, 311760, Note_on_c, 12, 52, 108
13, 311762, Note_on_c, 12, 76, 108
13, 311827, Note_off_c, 12, 55, 56
13, 311828, Note_off_c, 12, 52, 56
13, 311833, Note_on_c, 12, 55, 108
13, 311834, Note_off_c, 12, 76, 56
13, 311835, Note_on_c, 12, 52, 108
13, 311836, Note_on_c, 12, 77, 108
13, 311901, Note_off_c, 12, 55, 56
13, 311903, Note_off_c, 12, 52, 56
13, 311908, Note_off_c, 12, 77, 56
13, 311923, Note_on_c, 12, 79, 108
13, 311925, Note_on_c, 12, 52, 108
13, 311927, Note_on_c, 12, 55, 108
13, 311993, Note_off_c, 12, 52, 56
13, 311995, Note_off_c, 12, 55, 56
13, 311995, Note_off_c, 12, 79, 56
13, 311999, Note_on_c, 12, 53, 108
13, 312001, Note_on_c, 12, 48, 108
13, 312001, Note_on_c, 12, 36, 108
13, 312001, Note_on_c, 12, 81, 108
13, 312067, Note_off_c, 12, 53, 56
13, 312069, Note_off_c, 12, 48, 56
13, 312074, Note_on_c, 12, 57, 108
13, 312074, Note_on_c, 12, 53, 108
13, 312137, Note_off_c, 12, 81, 64
13, 312142, Note_off_c, 12, 53, 56
13, 312142, Note_off_c, 12, 57, 56
13, 312148, Note_on_c, 12, 53, 108
13, 312151, Note_on_c, 12, 57, 108
13, 312185, Note_off_c, 12, 36, 64
13, 312216, Note_off_c, 12, 53, 56
13, 312219, Note_off_c, 12, 57, 56
13, 312239, Note_on_c, 12, 81, 108
13, 312241, Note_on_c, 12, 57, 108
13, 312241, Note_on_c, 12, 53, 108
13, 312309, Note_off_c, 12, 53, 56
13, 312309, Note_off_c, 12, 57, 56
13, 312311, Note_off_c, 12, 81, 56
13, 312314, Note_on_c, 12, 83, 108
13, 312315, Note_on_c, 12, 53, 108
13, 312316, Note_on_c, 12, 57, 108
13, 312383, Note_off_c, 12, 53, 56
13, 312384, Note_off_c, 12, 57, 56
13, 312386, Note_off_c, 12, 83, 56
13, 312404, Note_on_c, 12, 84, 108
13, 312407, Note_on_c, 12, 57, 108
13, 312407, Note_on_c, 12, 53, 108
13, 312475, Note_off_c, 12, 53, 56
13, 312475, Note_off_c, 12, 57, 56
13, 312476, Note_off_c, 12, 84, 56
13, 312480, Note_on_c, 12, 48, 108
13, 312480, Note_on_c, 12, 36, 108
13, 312482, Note_on_c, 12, 79, 108
13, 312482, Note_on_c, 12, 52, 108
13, 312548, Note_off_c, 12, 48, 56
13, 312550, Note_off_c, 12, 52, 56
13, 312555, Note_on_c, 12, 52, 108
13, 312555, Note_on_c, 12, 55, 108
13, 312623, Note_off_c, 12, 55, 56
13, 312623, Note_off_c, 12, 52, 56
13, 312629, Note_on_c, 12, 55, 108
13, 312647, Note_on_c, 12, 52, 108
13, 312664, Note_off_c, 12, 36, 64
13, 312697, Note_off_c, 12, 55, 56
13, 312715, Note_off_c, 12, 52, 56
13, 312718, Note_on_c, 12, 55, 108
13, 312718, Note_on_c, 12, 52, 108
13, 312719, Note_on_c, 12, 31, 108
13, 312783, Note_off_c, 12, 31, 56
13, 312786, Note_off_c, 12, 52, 56
13, 312786, Note_off_c, 12, 55, 56
13, 312793, Note_on_c, 12, 52, 108
13, 312797, Note_on_c, 12, 55, 108
13, 312799, Note_on_c, 12, 33, 108
13, 312861, Note_off_c, 12, 52, 56
13, 312863, Note_off_c, 12, 33, 56
13, 312865, Note_off_c, 12, 55, 56
13, 312879, Note_on_c, 12, 35, 108
13, 312883, Note_on_c, 12, 55, 108
13, 312885, Note_on_c, 12, 52, 108
13, 312943, Note_off_c, 12, 35, 56
13, 312951, Note_off_c, 12, 55, 56
13, 312953, Note_off_c, 12, 52, 56
13, 312959, Note_on_c, 12, 55, 108
13, 312960, Note_on_c, 12, 52, 108
13, 312963, Note_on_c, 12, 36, 108
13, 313130, Note_off_c, 12, 79, 64
13, 313147, Note_off_c, 12, 36, 64
13, 313164, Note_off_c, 12, 55, 64
13, 313165, Note_off_c, 12, 52, 64
13, 313199, Note_on_c, 12, 67, 73
13, 313201, Note_on_c, 12, 79, 73
13, 313273, Note_off_c, 12, 79, 56
13, 313274, Note_on_c, 12, 77, 73
13, 313346, Note_off_c, 12, 77, 56
13, 313364, Note_on_c, 12, 76, 73
13, 313436, Note_off_c, 12, 76, 56
13, 313438, Note_on_c, 12, 74, 73
13, 313654, Note_off_c, 12, 74, 64
13, 313681, Note_on_c, 12, 77, 73
13, 313753, Note_off_c, 12, 77, 56
13, 313753, Note_on_c, 12, 76, 73
13, 313825, Note_off_c, 12, 76, 56
13, 313831, Note_on_c, 12, 74, 73
13, 313903, Note_off_c, 12, 74, 56
13, 313922, Note_on_c, 12, 72, 73
13, 314138, Note_off_c, 12, 72, 64
13, 314160, Note_on_c, 12, 76, 73
13, 314232, Note_off_c, 12, 76, 56
13, 314237, Note_on_c, 12, 74, 73
13, 314309, Note_off_c, 12, 74, 56
13, 314326, Note_on_c, 12, 72, 73
13, 314398, Note_off_c, 12, 72, 56
13, 314399, Note_on_c, 12, 71, 73
13, 314535, Note_off_c, 12, 71, 64
13, 314615, Note_off_c, 12, 67, 64
13, 314638, Note_on_c, 12, 71, 80
13, 314639, Note_on_c, 12, 47, 80
13, 314640, Note_on_c, 12, 59, 80
13, 314700, Note_off_c, 12, 47, 56
13, 314708, Note_off_c, 12, 59, 56
13, 314710, Note_off_c, 12, 71, 56
13, 314716, Note_on_c, 12, 60, 82
13, 314717, Note_on_c, 12, 72, 82
13, 314721, Note_on_c, 12, 48, 82
13, 314782, Note_off_c, 12, 48, 56
13, 314784, Note_off_c, 12, 60, 56
13, 314789, Note_off_c, 12, 72, 56
13, 314790, Note_on_c, 12, 74, 83
13, 314800, Note_on_c, 12, 50, 85
13, 314804, Note_on_c, 12, 62, 85
13, 314861, Note_off_c, 12, 50, 56
13, 314862, Note_off_c, 12, 74, 56
13, 314872, Note_off_c, 12, 62, 56
13, 314878, Note_on_c, 12, 43, 87
13, 314881, Note_on_c, 12, 55, 87
13, 314882, Note_on_c, 12, 67, 86
13, 315062, Note_off_c, 12, 43, 64
13, 315086, Note_off_c, 12, 55, 64
13, 315098, Note_off_c, 12, 67, 64
13, 315118, Note_on_c, 12, 62, 90
13, 315119, Note_on_c, 12, 53, 95
13, 315119, Note_on_c, 12, 41, 95
13, 315173, Note_off_c, 12, 41, 56
13, 315179, Note_off_c, 12, 53, 56
13, 315186, Note_off_c, 12, 62, 56
13, 315193, Note_on_c, 12, 64, 90
13, 315196, Note_on_c, 12, 52, 95
13, 315201, Note_on_c, 12, 40, 95
13, 315255, Note_off_c, 12, 40, 56
13, 315256, Note_off_c, 12, 52, 56
13, 315261, Note_off_c, 12, 64, 56
13, 315269, Note_on_c, 12, 50, 95
13, 315279, Note_on_c, 12, 38, 95
13, 315287, Note_on_c, 12, 65, 90
13, 315329, Note_off_c, 12, 50, 56
13, 315333, Note_off_c, 12, 38, 56
13, 315355, Note_off_c, 12, 65, 56
13, 315358, Note_on_c, 12, 84, 90
13, 315358, Note_on_c, 12, 48, 90
13, 315362, Note_on_c, 12, 67, 66
13, 315362, Note_on_c, 12, 36, 90
13, 315426, Note_off_c, 12, 48, 56
13, 315436, Note_on_c, 12, 60, 95
13, 315496, Note_off_c, 12, 60, 56
13, 315526, Note_on_c, 12, 60, 95
13, 315544, Note_off_c, 12, 67, 64
13, 315546, Note_off_c, 12, 36, 64
13, 315563, Note_off_c, 12, 84, 64
13, 315586, Note_off_c, 12, 60, 56
13, 315602, Note_on_c, 12, 60, 95
13, 315662, Note_off_c, 12, 60, 56
13, 315676, Note_on_c, 12, 59, 95
13, 315736, Note_off_c, 12, 59, 56
13, 315766, Note_on_c, 12, 58, 95
13, 315826, Note_off_c, 12, 58, 56
13, 315838, Note_on_c, 12, 69, 72
13, 315840, Note_on_c, 12, 57, 95
13, 315841, Note_on_c, 12, 84, 90
13, 315843, Note_on_c, 12, 36, 90
13, 315900, Note_off_c, 12, 57, 56
13, 315913, Note_on_c, 12, 57, 95
13, 315973, Note_off_c, 12, 57, 56
13, 315990, Note_on_c, 12, 57, 95
13, 316020, Note_off_c, 12, 69, 64
13, 316027, Note_off_c, 12, 36, 64
13, 316046, Note_off_c, 12, 84, 64
13, 316050, Note_off_c, 12, 57, 56
13, 316078, Note_on_c, 12, 57, 95
13, 316138, Note_off_c, 12, 57, 56
13, 316153, Note_on_c, 12, 55, 95
13, 316213, Note_off_c, 12, 55, 56
13, 316229, Note_on_c, 12, 53, 95
13, 316289, Note_off_c, 12, 53, 56
13, 316318, Note_on_c, 12, 52, 95
13, 316319, Note_on_c, 12, 36, 90
13, 316320, Note_on_c, 12, 84, 90
13, 316322, Note_on_c, 12, 67, 67
13, 316378, Note_off_c, 12, 52, 56
13, 316394, Note_on_c, 12, 55, 95
13, 316454, Note_off_c, 12, 55, 56
13, 316485, Note_on_c, 12, 55, 95
13, 316503, Note_off_c, 12, 36, 64
13, 316504, Note_off_c, 12, 67, 64
13, 316525, Note_off_c, 12, 84, 64
13, 316545, Note_off_c, 12, 55, 56
13, 316558, Note_on_c, 12, 67, 90
13, 316561, Note_on_c, 12, 31, 95
13, 316562, Note_on_c, 12, 55, 95
13, 316615, Note_off_c, 12, 31, 56
13, 316622, Note_off_c, 12, 55, 56
13, 316626, Note_off_c, 12, 67, 56
13, 316633, Note_on_c, 12, 57, 95
13, 316637, Note_on_c, 12, 69, 90
13, 316639, Note_on_c, 12, 33, 95
13, 316693, Note_off_c, 12, 33, 56
13, 316693, Note_off_c, 12, 57, 56
13, 316705, Note_off_c, 12, 69, 56
13, 316712, Note_on_c, 12, 59, 95
13, 316720, Note_on_c, 12, 35, 95
13, 316727, Note_on_c, 12, 71, 90
13, 316772, Note_off_c, 12, 59, 56
13, 316774, Note_off_c, 12, 35, 56
13, 316795, Note_off_c, 12, 71, 56
13, 316800, Note_on_c, 12, 72, 90
13, 316800, Note_on_c, 12, 36, 90
13, 316802, Note_on_c, 12, 60, 90
13, 316984, Note_off_c, 12, 36, 64
13, 317005, Note_off_c, 12, 72, 64
13, 317007, Note_off_c, 12, 60, 64
13, 317039, Note_on_c, 12, 79, 73
13, 317042, Note_on_c, 12, 67, 73
13, 317111, Note_off_c, 12, 79, 56
13, 317117, Note_on_c, 12, 77, 73
13, 317189, Note_off_c, 12, 77, 56
13, 317204, Note_on_c, 12, 76, 73
13, 317276, Note_off_c, 12, 76, 56
13, 317281, Note_on_c, 12, 74, 73
13, 317497, Note_off_c, 12, 74, 64
13, 317518, Note_on_c, 12, 77, 73
13, 317590, Note_off_c, 12, 77, 56
13, 317594, Note_on_c, 12, 76, 73
13, 317666, Note_off_c, 12, 76, 56
13, 317685, Note_on_c, 12, 74, 73
13, 317757, Note_off_c, 12, 74, 56
13, 317761, Note_on_c, 12, 72, 73
13, 317977, Note_off_c, 12, 72, 64
13, 318001, Note_on_c, 12, 76, 73
13, 318073, Note_off_c, 12, 76, 56
13, 318077, Note_on_c, 12, 74, 73
13, 318148, Note_on_c, 12, 72, 73
13, 318149, Note_off_c, 12, 74, 56
13, 318216, Note_off_c, 12, 72, 56
13, 318238, Note_on_c, 12, 71, 73
13, 318443, Note_off_c, 12, 71, 64
13, 318458, Note_off_c, 12, 67, 64
13, 318480, Note_on_c, 12, 55, 95
13, 318481, Note_on_c, 12, 31, 95
13, 318535, Note_off_c, 12, 31, 56
13, 318540, Note_off_c, 12, 55, 56
13, 318553, Note_on_c, 12, 57, 95
13, 318560, Note_on_c, 12, 33, 95
13, 318613, Note_off_c, 12, 57, 56
13, 318614, Note_off_c, 12, 33, 56
13, 318640, Note_on_c, 12, 35, 95
13, 318647, Note_on_c, 12, 59, 95
13, 318694, Note_off_c, 12, 35, 56
13, 318707, Note_off_c, 12, 59, 56
13, 318722, Note_on_c, 12, 60, 90
13, 318723, Note_on_c, 12, 36, 90
13, 318907, Note_off_c, 12, 36, 64
13, 318927, Note_off_c, 12, 60, 64
13, 318958, Note_on_c, 12, 69, 73
13, 318959, Note_on_c, 12, 81, 73
13, 319031, Note_off_c, 12, 81, 56
13, 319035, Note_on_c, 12, 79, 73
13, 319107, Note_off_c, 12, 79, 56
13, 319127, Note_on_c, 12, 77, 73
13, 319199, Note_off_c, 12, 77, 56
13, 319201, Note_on_c, 12, 76, 73
13, 319417, Note_off_c, 12, 76, 64
13, 319442, Note_on_c, 12, 79, 73
13, 319514, Note_off_c, 12, 79, 56
13, 319514, Note_on_c, 12, 77, 73
13, 319586, Note_off_c, 12, 77, 56
13, 319603, Note_on_c, 12, 76, 73
13, 319675, Note_off_c, 12, 76, 56
13, 319678, Note_on_c, 12, 74, 73
13, 319894, Note_off_c, 12, 74, 64
13, 319921, Note_on_c, 12, 77, 73
13, 319993, Note_off_c, 12, 77, 56
13, 319997, Note_on_c, 12, 76, 73
13, 320069, Note_off_c, 12, 76, 56
13, 320072, Note_on_c, 12, 74, 73
13, 320144, Note_off_c, 12, 74, 56
13, 320160, Note_on_c, 12, 73, 73
13, 320365, Note_off_c, 12, 73, 64
13, 320374, Note_off_c, 12, 69, 64
13, 320398, Note_on_c, 12, 57, 95
13, 320401, Note_on_c, 12, 33, 95
13, 320455, Note_off_c, 12, 33, 56
13, 320458, Note_off_c, 12, 57, 56
13, 320477, Note_on_c, 12, 59, 95
13, 320479, Note_on_c, 12, 35, 95
13, 320533, Note_off_c, 12, 35, 56
13, 320537, Note_off_c, 12, 59, 56
13, 320551, Note_on_c, 12, 61, 95
13, 320561, Note_on_c, 12, 37, 95
13, 320611, Note_off_c, 12, 61, 56
13, 320615, Note_off_c, 12, 37, 56
13, 320639, Note_on_c, 12, 62, 90
13, 320640, Note_on_c, 12, 38, 90
13, 320824, Note_off_c, 12, 38, 64
13, 320844, Note_off_c, 12, 62, 64
13, 320879, Note_on_c, 12, 84, 56
13, 320880, Note_on_c, 12, 41, 56
13, 320881, Note_on_c, 12, 72, 56
13, 320951, Note_off_c, 12, 84, 56
13, 320953, Note_off_c, 12, 72, 56
13, 320955, Note_on_c, 12, 82, 56
13, 320956, Note_on_c, 12, 70, 56
13, 321027, Note_off_c, 12, 82, 56
13, 321028, Note_off_c, 12, 70, 56
13, 321029, Note_on_c, 12, 69, 56
13, 321043, Note_on_c, 12, 81, 56
13, 321074, Note_off_c, 12, 41, 64
13, 321101, Note_off_c, 12, 69, 56
13, 321115, Note_off_c, 12, 81, 56
13, 321117, Note_on_c, 12, 40, 56
13, 321119, Note_on_c, 12, 67, 56
13, 321119, Note_on_c, 12, 79, 56
13, 321335, Note_off_c, 12, 79, 64
13, 321335, Note_off_c, 12, 67, 64
13, 321358, Note_on_c, 12, 70, 56
13, 321360, Note_on_c, 12, 82, 56
13, 321430, Note_off_c, 12, 70, 56
13, 321432, Note_off_c, 12, 82, 56
13, 321433, Note_on_c, 12, 81, 56
13, 321433, Note_on_c, 12, 69, 56
13, 321505, Note_off_c, 12, 69, 56
13, 321505, Note_off_c, 12, 81, 56
13, 321523, Note_on_c, 12, 79, 56
13, 321524, Note_on_c, 12, 67, 56
13, 321527, Note_off_c, 12, 40, 64
13, 321595, Note_off_c, 12, 79, 56
13, 321596, Note_off_c, 12, 67, 56
13, 321600, Note_on_c, 12, 65, 56
13, 321601, Note_on_c, 12, 77, 56
13, 321602, Note_on_c, 12, 41, 56
13, 321816, Note_off_c, 12, 65, 64
13, 321817, Note_off_c, 12, 77, 64
13, 321841, Note_on_c, 12, 81, 56
13, 321842, Note_on_c, 12, 69, 56
13, 321913, Note_off_c, 12, 81, 56
13, 321914, Note_off_c, 12, 69, 56
13, 321914, Note_on_c, 12, 79, 56
13, 321914, Note_on_c, 12, 67, 56
13, 321986, Note_off_c, 12, 67, 56
13, 321986, Note_off_c, 12, 79, 56
13, 321991, Note_on_c, 12, 77, 56
13, 322005, Note_on_c, 12, 65, 56
13, 322012, Note_off_c, 12, 41, 64
13, 322063, Note_off_c, 12, 77, 56
13, 322077, Note_off_c, 12, 65, 56
13, 322078, Note_on_c, 12, 76, 61
13, 322081, Note_on_c, 12, 36, 56
13, 322082, Note_on_c, 12, 64, 61
13, 322123, Note_off_c, 12, 76, 56
13, 322127, Note_off_c, 12, 64, 56
13, 322138, Note_on_c, 12, 67, 62
13, 322140, Note_on_c, 12, 79, 62
13, 322142, Note_on_c, 12, 64, 62
13, 322162, Note_off_c, 12, 36, 56
13, 322183, Note_off_c, 12, 67, 56
13, 322185, Note_off_c, 12, 79, 56
13, 322187, Note_off_c, 12, 64, 56
13, 322198, Note_on_c, 12, 79, 64
13, 322199, Note_on_c, 12, 67, 64
13, 322199, Note_on_c, 12, 48, 59
13, 322200, Note_on_c, 12, 64, 64
13, 322243, Note_off_c, 12, 79, 56
13, 322244, Note_off_c, 12, 67, 56
13, 322245, Note_off_c, 12, 64, 56
13, 322260, Note_on_c, 12, 79, 65
13, 322261, Note_on_c, 12, 67, 65
13, 322262, Note_on_c, 12, 64, 65
13, 322280, Note_off_c, 12, 48, 56
13, 322305, Note_off_c, 12, 79, 56
13, 322306, Note_off_c, 12, 67, 56
13, 322307, Note_off_c, 12, 64, 56
13, 322318, Note_on_c, 12, 64, 68
13, 322318, Note_on_c, 12, 67, 68
13, 322319, Note_on_c, 12, 79, 67
13, 322319, Note_on_c, 12, 48, 63
13, 322363, Note_off_c, 12, 67, 56
13, 322363, Note_off_c, 12, 64, 56
13, 322364, Note_off_c, 12, 79, 56
13, 322379, Note_on_c, 12, 79, 69
13, 322381, Note_on_c, 12, 67, 69
13, 322381, Note_on_c, 12, 64, 69
13, 322400, Note_off_c, 12, 48, 56
13, 322424, Note_off_c, 12, 79, 56
13, 322426, Note_off_c, 12, 64, 56
13, 322426, Note_off_c, 12, 67, 56
13, 322439, Note_on_c, 12, 64, 70
13, 322440, Note_on_c, 12, 48, 65
13, 322441, Note_on_c, 12, 79, 70
13, 322441, Note_on_c, 12, 67, 70
13, 322484, Note_off_c, 12, 64, 56
13, 322486, Note_off_c, 12, 67, 56
13, 322486, Note_off_c, 12, 79, 56
13, 322498, Note_on_c, 12, 79, 72
13, 322501, Note_on_c, 12, 64, 72
13, 322501, Note_on_c, 12, 67, 72
13, 322521, Note_off_c, 12, 48, 56
13, 322543, Note_off_c, 12, 79, 56
13, 322546, Note_off_c, 12, 67, 56
13, 322546, Note_off_c, 12, 64, 56
13, 322559, Note_on_c, 12, 48, 69
13, 322560, Note_on_c, 12, 67, 74
13, 322561, Note_on_c, 12, 79, 74
13, 322562, Note_on_c, 12, 64, 74
13, 322605, Note_off_c, 12, 67, 56
13, 322606, Note_off_c, 12, 79, 56
13, 322607, Note_off_c, 12, 64, 56
13, 322618, Note_on_c, 12, 79, 76
13, 322621, Note_on_c, 12, 64, 76
13, 322622, Note_on_c, 12, 67, 76
13, 322640, Note_off_c, 12, 48, 56
13, 322663, Note_off_c, 12, 79, 56
13, 322666, Note_off_c, 12, 64, 56
13, 322667, Note_off_c, 12, 67, 56
13, 322678, Note_on_c, 12, 64, 77
13, 322679, Note_on_c, 12, 79, 77
13, 322681, Note_on_c, 12, 48, 72
13, 322682, Note_on_c, 12, 67, 77
13, 322723, Note_off_c, 12, 64, 56
13, 322724, Note_off_c, 12, 79, 56
13, 322727, Note_off_c, 12, 67, 56
13, 322738, Note_on_c, 12, 79, 78
13, 322740, Note_on_c, 12, 64, 78
13, 322742, Note_on_c, 12, 67, 78
13, 322762, Note_off_c, 12, 48, 56
13, 322783, Note_off_c, 12, 79, 56
13, 322785, Note_off_c, 12, 64, 56
13, 322787, Note_off_c, 12, 67, 56
13, 322798, Note_on_c, 12, 79, 80
13, 322799, Note_on_c, 12, 48, 75
13, 322801, Note_on_c, 12, 67, 80
13, 322802, Note_on_c, 12, 64, 80
13, 322843, Note_off_c, 12, 79, 56
13, 322846, Note_off_c, 12, 67, 56
13, 322847, Note_off_c, 12, 64, 56
13, 322859, Note_on_c, 12, 67, 82
13, 322860, Note_on_c, 12, 79, 82
13, 322861, Note_on_c, 12, 64, 82
13, 322880, Note_off_c, 12, 48, 56
13, 322904, Note_off_c, 12, 67, 56
13, 322905, Note_off_c, 12, 79, 56
13, 322906, Note_off_c, 12, 64, 56
13, 322918, Note_on_c, 12, 79, 84
13, 322919, Note_on_c, 12, 67, 83
13, 322919, Note_on_c, 12, 48, 78
13, 322920, Note_on_c, 12, 64, 83
13, 322963, Note_off_c, 12, 79, 56
13, 322964, Note_off_c, 12, 67, 56
13, 322965, Note_off_c, 12, 64, 56
13, 322981, Note_on_c, 12, 79, 85
13, 322982, Note_on_c, 12, 64, 85
13, 322982, Note_on_c, 12, 67, 85
13, 323000, Note_off_c, 12, 48, 56
13, 323026, Note_off_c, 12, 79, 56
13, 323027, Note_off_c, 12, 67, 56
13, 323027, Note_off_c, 12, 64, 56
13, 323038, Note_on_c, 12, 68, 86
13, 323038, Note_on_c, 12, 80, 87
13, 323039, Note_on_c, 12, 64, 86
13, 323041, Note_on_c, 12, 48, 81
13, 323083, Note_off_c, 12, 80, 56
13, 323083, Note_off_c, 12, 68, 56
13, 323084, Note_off_c, 12, 64, 56
13, 323098, Note_on_c, 12, 80, 88
13, 323099, Note_on_c, 12, 68, 88
13, 323102, Note_on_c, 12, 64, 88
13, 323122, Note_off_c, 12, 48, 56
13, 323143, Note_off_c, 12, 80, 56
13, 323144, Note_off_c, 12, 68, 56
13, 323147, Note_off_c, 12, 64, 56
13, 323159, Note_on_c, 12, 80, 90
13, 323159, Note_on_c, 12, 68, 90
13, 323160, Note_on_c, 12, 48, 85
13, 323161, Note_on_c, 12, 64, 90
13, 323204, Note_off_c, 12, 68, 56
13, 323204, Note_off_c, 12, 80, 56
13, 323206, Note_off_c, 12, 64, 56
13, 323220, Note_on_c, 12, 64, 91
13, 323222, Note_on_c, 12, 80, 92
13, 323222, Note_on_c, 12, 68, 91
13, 323241, Note_off_c, 12, 48, 56
13, 323265, Note_off_c, 12, 64, 56
13, 323267, Note_off_c, 12, 68, 56
13, 323267, Note_off_c, 12, 80, 56
13, 323278, Note_on_c, 12, 68, 93
13, 323279, Note_on_c, 12, 48, 88
13, 323280, Note_on_c, 12, 80, 93
13, 323282, Note_on_c, 12, 64, 93
13, 323323, Note_off_c, 12, 68, 56
13, 323325, Note_off_c, 12, 80, 56
13, 323327, Note_off_c, 12, 64, 56
13, 323338, Note_on_c, 12, 64, 94
13, 323340, Note_on_c, 12, 80, 95
13, 323342, Note_on_c, 12, 68, 94
13, 323360, Note_off_c, 12, 48, 56
13, 323383, Note_off_c, 12, 64, 56
13, 323385, Note_off_c, 12, 80, 56
13, 323387, Note_off_c, 12, 68, 56
13, 323399, Note_on_c, 12, 48, 92
13, 323400, Note_on_c, 12, 80, 97
13, 323402, Note_on_c, 12, 68, 97
13, 323402, Note_on_c, 12, 64, 97
13, 323445, Note_off_c, 12, 80, 56
13, 323447, Note_off_c, 12, 64, 56
13, 323447, Note_off_c, 12, 68, 56
13, 323458, Note_on_c, 12, 64, 98
13, 323458, Note_on_c, 12, 68, 98
13, 323459, Note_on_c, 12, 80, 98
13, 323480, Note_off_c, 12, 48, 56
13, 323503, Note_off_c, 12, 68, 56
13, 323503, Note_off_c, 12, 64, 56
13, 323504, Note_off_c, 12, 80, 56
13, 323520, Note_on_c, 12, 80, 100
13, 323520, Note_on_c, 12, 48, 94
13, 323522, Note_on_c, 12, 68, 99
13, 323522, Note_on_c, 12, 64, 99
13, 323565, Note_off_c, 12, 80, 56
13, 323567, Note_off_c, 12, 64, 56
13, 323567, Note_off_c, 12, 68, 56
13, 323578, Note_on_c, 12, 68, 101
13, 323578, Note_on_c, 12, 64, 101
13, 323579, Note_on_c, 12, 80, 101
13, 323601, Note_off_c, 12, 48, 56
13, 323623, Note_off_c, 12, 64, 56
13, 323623, Note_off_c, 12, 68, 56
13, 323624, Note_off_c, 12, 80, 56
13, 323639, Note_on_c, 12, 64, 102
13, 323639, Note_on_c, 12, 48, 97
13, 323640, Note_on_c, 12, 68, 102
13, 323642, Note_on_c, 12, 80, 103
13, 323684, Note_off_c, 12, 64, 56
13, 323685, Note_off_c, 12, 68, 56
13, 323687, Note_off_c, 12, 80, 56
13, 323700, Note_on_c, 12, 80, 105
13, 323701, Note_on_c, 12, 68, 105
13, 323701, Note_on_c, 12, 64, 105
13, 323720, Note_off_c, 12, 48, 56
13, 323745, Note_off_c, 12, 80, 56
13, 323746, Note_off_c, 12, 64, 56
13, 323746, Note_off_c, 12, 68, 56
13, 323759, Note_on_c, 12, 68, 106
13, 323761, Note_on_c, 12, 48, 101
13, 323762, Note_on_c, 12, 80, 107
13, 323762, Note_on_c, 12, 64, 106
13, 323804, Note_off_c, 12, 68, 56
13, 323807, Note_off_c, 12, 64, 56
13, 323807, Note_off_c, 12, 80, 56
13, 323818, Note_on_c, 12, 80, 108
13, 323821, Note_on_c, 12, 64, 107
13, 323822, Note_on_c, 12, 68, 107
13, 323842, Note_off_c, 12, 48, 56
13, 323863, Note_off_c, 12, 80, 56
13, 323866, Note_off_c, 12, 64, 56
13, 323867, Note_off_c, 12, 68, 56
13, 323878, Note_on_c, 12, 64, 109
13, 323878, Note_on_c, 12, 68, 109
13, 323879, Note_on_c, 12, 80, 109
13, 323881, Note_on_c, 12, 48, 104
13, 323923, Note_off_c, 12, 68, 56
13, 323923, Note_off_c, 12, 64, 56
13, 323924, Note_off_c, 12, 80, 56
13, 323939, Note_on_c, 12, 68, 110
13, 323940, Note_on_c, 12, 64, 110
13, 323941, Note_on_c, 12, 80, 111
13, 323962, Note_off_c, 12, 48, 56
13, 323984, Note_off_c, 12, 68, 56
13, 323985, Note_off_c, 12, 64, 56
13, 323986, Note_off_c, 12, 80, 56
13, 323999, Note_on_c, 12, 69, 113
13, 323999, Note_on_c, 12, 65, 113
13, 323999, Note_on_c, 12, 41, 108
13, 324000, Note_on_c, 12, 81, 113
13, 324044, Note_off_c, 12, 65, 56
13, 324044, Note_off_c, 12, 69, 56
13, 324045, Note_off_c, 12, 81, 56
13, 324058, Note_on_c, 12, 57, 113
13, 324059, Note_on_c, 12, 81, 113
13, 324062, Note_on_c, 12, 53, 113
13, 324103, Note_off_c, 12, 57, 56
13, 324104, Note_off_c, 12, 81, 56
13, 324107, Note_off_c, 12, 53, 56
13, 324120, Note_on_c, 12, 53, 113
13, 324121, Note_on_c, 12, 57, 113
13, 324122, Note_on_c, 12, 81, 113
13, 324165, Note_off_c, 12, 53, 56
13, 324166, Note_off_c, 12, 57, 56
13, 324167, Note_off_c, 12, 81, 56
13, 324179, Note_on_c, 12, 81, 113
13, 324179, Note_on_c, 12, 57, 113
13, 324181, Note_on_c, 12, 53, 113
13, 324224, Note_off_c, 12, 57, 56
13, 324224, Note_off_c, 12, 81, 56
13, 324226, Note_off_c, 12, 53, 56
13, 324239, Note_on_c, 12, 53, 113
13, 324241, Note_on_c, 12, 81, 113
13, 324242, Note_on_c, 12, 57, 113
13, 324284, Note_off_c, 12, 53, 56
13, 324286, Note_off_c, 12, 81, 56
13, 324287, Note_off_c, 12, 57, 56
13, 324300, Note_on_c, 12, 81, 113
13, 324301, Note_on_c, 12, 57, 113
13, 324302, Note_on_c, 12, 53, 113
13, 324345, Note_off_c, 12, 81, 56
13, 324346, Note_off_c, 12, 57, 56
13, 324347, Note_off_c, 12, 53, 56
13, 324358, Note_on_c, 12, 81, 113
13, 324358, Note_on_c, 12, 53, 113
13, 324361, Note_on_c, 12, 57, 113
13, 324403, Note_off_c, 12, 53, 56
13, 324403, Note_off_c, 12, 81, 56
13, 324406, Note_off_c, 12, 57, 56
13, 324418, Note_on_c, 12, 53, 113
13, 324418, Note_on_c, 12, 57, 113
13, 324422, Note_on_c, 12, 81, 113
13, 324463, Note_off_c, 12, 57, 56
13, 324463, Note_off_c, 12, 53, 56
13, 324467, Note_off_c, 12, 81, 56
13, 324478, Note_on_c, 12, 81, 113
13, 324479, Note_on_c, 12, 53, 113
13, 324481, Note_on_c, 12, 57, 113
13, 324523, Note_off_c, 12, 81, 56
13, 324524, Note_off_c, 12, 53, 56
13, 324526, Note_off_c, 12, 57, 56
13, 324528, Note_off_c, 12, 41, 64
13, 324540, Note_on_c, 12, 53, 113
13, 324541, Note_on_c, 12, 57, 113
13, 324585, Note_off_c, 12, 53, 56
13, 324586, Note_off_c, 12, 57, 56
13, 324599, Note_on_c, 12, 41, 108
13, 324600, Note_on_c, 12, 53, 113
13, 324601, Note_on_c, 12, 57, 113
13, 324602, Note_on_c, 12, 58, 113
13, 324645, Note_off_c, 12, 53, 56
13, 324646, Note_off_c, 12, 57, 56
13, 324647, Note_off_c, 12, 58, 56
13, 324658, Note_on_c, 12, 60, 113
13, 324660, Note_on_c, 12, 53, 113
13, 324661, Note_on_c, 12, 57, 113
13, 324690, Note_off_c, 12, 41, 56
13, 324703, Note_off_c, 12, 60, 56
13, 324705, Note_off_c, 12, 53, 56
13, 324706, Note_off_c, 12, 57, 56
13, 324719, Note_on_c, 12, 62, 113
13, 324719, Note_on_c, 12, 41, 108
13, 324719, Note_on_c, 12, 53, 113
13, 324722, Note_on_c, 12, 57, 113
13, 324764, Note_off_c, 12, 53, 56
13, 324764, Note_off_c, 12, 62, 56
13, 324767, Note_off_c, 12, 57, 56
13, 324778, Note_on_c, 12, 53, 113
13, 324781, Note_on_c, 12, 64, 113
13, 324781, Note_on_c, 12, 57, 113
13, 324810, Note_off_c, 12, 41, 56
13, 324823, Note_off_c, 12, 53, 56
13, 324826, Note_off_c, 12, 57, 56
13, 324826, Note_off_c, 12, 64, 56
13, 324839, Note_on_c, 12, 65, 113
13, 324839, Note_on_c, 12, 41, 108
13, 324840, Note_on_c, 12, 57, 113
13, 324840, Note_on_c, 12, 53, 113
13, 324884, Note_off_c, 12, 65, 56
13, 324885, Note_off_c, 12, 53, 56
13, 324885, Note_off_c, 12, 57, 56
13, 324899, Note_on_c, 12, 67, 113
13, 324900, Note_on_c, 12, 57, 113
13, 324902, Note_on_c, 12, 53, 113
13, 324930, Note_off_c, 12, 41, 56
13, 324944, Note_off_c, 12, 67, 56
13, 324945, Note_off_c, 12, 57, 56
13, 324947, Note_off_c, 12, 53, 56
13, 324959, Note_on_c, 12, 53, 113
13, 324959, Note_on_c, 12, 69, 113
13, 324960, Note_on_c, 12, 57, 113
13, 324961, Note_on_c, 12, 41, 108
13, 325004, Note_off_c, 12, 69, 56
13, 325004, Note_off_c, 12, 53, 56
13, 325005, Note_off_c, 12, 57, 56
13, 325019, Note_on_c, 12, 60, 113
13, 325020, Note_on_c, 12, 48, 113
13, 325052, Note_off_c, 12, 41, 56
13, 325064, Note_off_c, 12, 60, 56
13, 325065, Note_off_c, 12, 48, 56
13, 325078, Note_on_c, 12, 62, 113
13, 325080, Note_on_c, 12, 41, 108
13, 325081, Note_on_c, 12, 50, 113
13, 325123, Note_off_c, 12, 62, 56
13, 325126, Note_off_c, 12, 50, 56
13, 325138, Note_on_c, 12, 64, 113
13, 325139, Note_on_c, 12, 52, 113
13, 325171, Note_off_c, 12, 41, 56
13, 325183, Note_off_c, 12, 64, 56
13, 325184, Note_off_c, 12, 52, 56
13, 325198, Note_on_c, 12, 65, 113
13, 325199, Note_on_c, 12, 53, 113
13, 325201, Note_on_c, 12, 41, 108
13, 325243, Note_off_c, 12, 65, 56
13, 325244, Note_off_c, 12, 53, 56
13, 325258, Note_on_c, 12, 67, 113
13, 325261, Note_on_c, 12, 55, 113
13, 325292, Note_off_c, 12, 41, 56
13, 325303, Note_off_c, 12, 67, 56
13, 325306, Note_off_c, 12, 55, 56
13, 325318, Note_on_c, 12, 69, 113
13, 325319, Note_on_c, 12, 41, 108
13, 325321, Note_on_c, 12, 57, 113
13, 325363, Note_off_c, 12, 69, 56
13, 325366, Note_off_c, 12, 57, 56
13, 325380, Note_on_c, 12, 70, 113
13, 325381, Note_on_c, 12, 58, 113
13, 325410, Note_off_c, 12, 41, 56
13, 325425, Note_off_c, 12, 70, 56
13, 325426, Note_off_c, 12, 58, 56
13, 325439, Note_on_c, 12, 72, 113
13, 325440, Note_on_c, 12, 60, 113
13, 325441, Note_on_c, 12, 41, 108
13, 325484, Note_off_c, 12, 72, 56
13, 325485, Note_off_c, 12, 60, 56
13, 325500, Note_on_c, 12, 69, 113
13, 325500, Note_on_c, 12, 53, 113
13, 325502, Note_on_c, 12, 57, 113
13, 325532, Note_off_c, 12, 41, 56
13, 325545, Note_off_c, 12, 53, 56
13, 325545, Note_off_c, 12, 69, 56
13, 325547, Note_off_c, 12, 57, 56
13, 325559, Note_on_c, 12, 70, 113
13, 325559, Note_on_c, 12, 41, 108
13, 325559, Note_on_c, 12, 55, 113
13, 325562, Note_on_c, 12, 59, 113
13, 325604, Note_off_c, 12, 55, 56
13, 325604, Note_off_c, 12, 70, 56
13, 325607, Note_off_c, 12, 59, 56
13, 325618, Note_on_c, 12, 72, 113
13, 325619, Note_on_c, 12, 60, 113
13, 325620, Note_on_c, 12, 57, 113
13, 325650, Note_off_c, 12, 41, 56
13, 325663, Note_off_c, 12, 72, 56
13, 325664, Note_off_c, 12, 60, 56
13, 325665, Note_off_c, 12, 57, 56
13, 325678, Note_on_c, 12, 74, 113
13, 325678, Note_on_c, 12, 62, 113
13, 325679, Note_on_c, 12, 41, 108
13, 325681, Note_on_c, 12, 58, 113
13, 325723, Note_off_c, 12, 62, 56
13, 325723, Note_off_c, 12, 74, 56
13, 325726, Note_off_c, 12, 58, 56
13, 325738, Note_on_c, 12, 64, 113
13, 325738, Note_on_c, 12, 60, 113
13, 325742, Note_on_c, 12, 76, 113
13, 325770, Note_off_c, 12, 41, 56
13, 325783, Note_off_c, 12, 60, 56
13, 325783, Note_off_c, 12, 64, 56
13, 325787, Note_off_c, 12, 76, 56
13, 325799, Note_on_c, 12, 65, 113
13, 325800, Note_on_c, 12, 77, 113
13, 325800, Note_on_c, 12, 41, 108
13, 325801, Note_on_c, 12, 62, 113
13, 325844, Note_off_c, 12, 65, 56
13, 325845, Note_off_c, 12, 77, 56
13, 325846, Note_off_c, 12, 62, 56
13, 325858, Note_on_c, 12, 79, 113
13, 325861, Note_on_c, 12, 67, 113
13, 325862, Note_on_c, 12, 64, 113
13, 325891, Note_off_c, 12, 41, 56
13, 325903, Note_off_c, 12, 79, 56
13, 325906, Note_off_c, 12, 67, 56
13, 325907, Note_off_c, 12, 64, 56
13, 325918, Note_on_c, 12, 65, 113
13, 325918, Note_on_c, 12, 81, 113
13, 325920, Note_on_c, 12, 41, 108
13, 325920, Note_on_c, 12, 69, 113
13, 325963, Note_off_c, 12, 81, 56
13, 325963, Note_off_c, 12, 65, 56
13, 325965, Note_off_c, 12, 69, 56
13, 325979, Note_on_c, 12, 79, 113
13, 325982, Note_on_c, 12, 65, 113
13, 326011, Note_off_c, 12, 41, 56
13, 326024, Note_off_c, 12, 79, 56
13, 326027, Note_off_c, 12, 65, 56
13, 326039, Note_on_c, 12, 81, 113
13, 326039, Note_on_c, 12, 41, 108
13, 326042, Note_on_c, 12, 65, 113
13, 326084, Note_off_c, 12, 81, 56
13, 326087, Note_off_c, 12, 65, 56
13, 326098, Note_on_c, 12, 65, 113
13, 326101, Note_on_c, 12, 83, 113
13, 326130, Note_off_c, 12, 41, 56
13, 326143, Note_off_c, 12, 65, 56
13, 326146, Note_off_c, 12, 83, 56
13, 326160, Note_on_c, 12, 84, 113
13, 326161, Note_on_c, 12, 42, 108
13, 326162, Note_on_c, 12, 66, 113
13, 326205, Note_off_c, 12, 84, 56
13, 326207, Note_off_c, 12, 66, 56
13, 326221, Note_on_c, 12, 84, 113
13, 326222, Note_on_c, 12, 66, 113
13, 326252, Note_off_c, 12, 42, 56
13, 326266, Note_off_c, 12, 84, 56
13, 326267, Note_off_c, 12, 66, 56
13, 326279, Note_on_c, 12, 42, 108
13, 326282, Note_on_c, 12, 84, 113
13, 326282, Note_on_c, 12, 66, 113
13, 326327, Note_off_c, 12, 66, 56
13, 326327, Note_off_c, 12, 84, 56
13, 326338, Note_on_c, 12, 66, 113
13, 326341, Note_on_c, 12, 84, 113
13, 326370, Note_off_c, 12, 42, 56
13, 326383, Note_off_c, 12, 66, 56
13, 326386, Note_off_c, 12, 84, 56
13, 326400, Note_on_c, 12, 84, 113
13, 326400, Note_on_c, 12, 43, 108
13, 326400, Note_on_c, 12, 67, 113
13, 326445, Note_off_c, 12, 67, 56
13, 326445, Note_off_c, 12, 84, 56
13, 326458, Note_on_c, 12, 67, 113
13, 326459, Note_on_c, 12, 84, 113
13, 326491, Note_off_c, 12, 43, 56
13, 326503, Note_off_c, 12, 67, 56
13, 326504, Note_off_c, 12, 84, 56
13, 326518, Note_on_c, 12, 67, 113
13, 326521, Note_on_c, 12, 84, 113
13, 326521, Note_on_c, 12, 43, 108
13, 326563, Note_off_c, 12, 67, 56
13, 326566, Note_off_c, 12, 84, 56
13, 326578, Note_on_c, 12, 84, 113
13, 326581, Note_on_c, 12, 67, 113
13, 326612, Note_off_c, 12, 43, 56
13, 326623, Note_off_c, 12, 84, 56
13, 326626, Note_off_c, 12, 67, 56
13, 326639, Note_on_c, 12, 44, 108
13, 326642, Note_on_c, 12, 84, 113
13, 326642, Note_on_c, 12, 68, 113
13, 326687, Note_off_c, 12, 68, 56
13, 326687, Note_off_c, 12, 84, 56
13, 326701, Note_on_c, 12, 84, 113
13, 326702, Note_on_c, 12, 68, 113
13, 326730, Note_off_c, 12, 44, 56
13, 326746, Note_off_c, 12, 84, 56
13, 326747, Note_off_c, 12, 68, 56
13, 326758, Note_on_c, 12, 68, 113
13, 326760, Note_on_c, 12, 44, 108
13, 326762, Note_on_c, 12, 84, 113
13, 326803, Note_off_c, 12, 68, 56
13, 326807, Note_off_c, 12, 84, 56
13, 326820, Note_on_c, 12, 68, 113
13, 326821, Note_on_c, 12, 84, 113
13, 326851, Note_off_c, 12, 44, 56
13, 326865, Note_off_c, 12, 68, 56
13, 326866, Note_off_c, 12, 84, 56
13, 326879, Note_on_c, 12, 69, 113
13, 326879, Note_on_c, 12, 84, 113
13, 326880, Note_on_c, 12, 45, 108
13, 326924, Note_off_c, 12, 84, 56
13, 326924, Note_off_c, 12, 69, 56
13, 326940, Note_on_c, 12, 84, 113
13, 326942, Note_on_c, 12, 69, 113
13, 326971, Note_off_c, 12, 45, 56
13, 326985, Note_off_c, 12, 84, 56
13, 326987, Note_off_c, 12, 69, 56
13, 327001, Note_on_c, 12, 69, 113
13, 327001, Note_on_c, 12, 45, 108
13, 327002, Note_on_c, 12, 83, 113
13, 327046, Note_off_c, 12, 69, 56
13, 327047, Note_off_c, 12, 83, 56
13, 327058, Note_on_c, 12, 81, 113
13, 327060, Note_on_c, 12, 69, 113
13, 327092, Note_off_c, 12, 45, 56
13, 327103, Note_off_c, 12, 81, 56
13, 327105, Note_off_c, 12, 69, 56
13, 327118, Note_on_c, 12, 71, 113
13, 327120, Note_on_c, 12, 47, 108
13, 327122, Note_on_c, 12, 79, 113
13, 327163, Note_off_c, 12, 71, 56
13, 327167, Note_off_c, 12, 79, 56
13, 327179, Note_on_c, 12, 77, 113
13, 327182, Note_on_c, 12, 71, 113
13, 327211, Note_off_c, 12, 47, 56
13, 327224, Note_off_c, 12, 77, 56
13, 327227, Note_off_c, 12, 71, 56
13, 327238, Note_on_c, 12, 71, 113
13, 327241, Note_on_c, 12, 76, 113
13, 327241, Note_on_c, 12, 47, 108
13, 327283, Note_off_c, 12, 71, 56
13, 327286, Note_off_c, 12, 76, 56
13, 327300, Note_on_c, 12, 74, 113
13, 327302, Note_on_c, 12, 71, 113
13, 327332, Note_off_c, 12, 47, 56
13, 327345, Note_off_c, 12, 74, 56
13, 327347, Note_off_c, 12, 71, 56
13, 327359, Note_on_c, 12, 48, 108
13, 327361, Note_on_c, 12, 72, 113
13, 327406, Note_off_c, 12, 72, 56
13, 327420, Note_on_c, 12, 71, 113
13, 327450, Note_off_c, 12, 48, 56
13, 327465, Note_off_c, 12, 71, 56
13, 327478, Note_on_c, 12, 52, 113
13, 327479, Note_on_c, 12, 69, 113
13, 327479, Note_on_c, 12, 36, 108
13, 327480, Note_on_c, 12, 48, 113
13, 327523, Note_off_c, 12, 52, 56
13, 327524, Note_off_c, 12, 69, 56
13, 327525, Note_off_c, 12, 48, 56
13, 327539, Note_on_c, 12, 67, 113
13, 327540, Note_on_c, 12, 52, 113
13, 327540, Note_on_c, 12, 48, 113
13, 327570, Note_off_c, 12, 36, 56
13, 327584, Note_off_c, 12, 67, 56
13, 327585, Note_off_c, 12, 48, 56
13, 327585, Note_off_c, 12, 52, 56
13, 327600, Note_on_c, 12, 38, 108
13, 327602, Note_on_c, 12, 65, 113
13, 327602, Note_on_c, 12, 53, 113
13, 327602, Note_on_c, 12, 50, 113
13, 327647, Note_off_c, 12, 50, 56
13, 327647, Note_off_c, 12, 53, 56
13, 327647, Note_off_c, 12, 65, 56
13, 327659, Note_on_c, 12, 64, 113
13, 327659, Note_on_c, 12, 53, 113
13, 327661, Note_on_c, 12, 50, 113
13, 327691, Note_off_c, 12, 38, 56
13, 327704, Note_off_c, 12, 53, 56
13, 327704, Note_off_c, 12, 64, 56
13, 327706, Note_off_c, 12, 50, 56
13, 327718, Note_on_c, 12, 62, 113
13, 327720, Note_on_c, 12, 40, 108
13, 327722, Note_on_c, 12, 55, 113
13, 327722, Note_on_c, 12, 52, 113
13, 327763, Note_off_c, 12, 62, 56
13, 327767, Note_off_c, 12, 52, 56
13, 327767, Note_off_c, 12, 55, 56
13, 327778, Note_on_c, 12, 52, 113
13, 327778, Note_on_c, 12, 55, 113
13, 327780, Note_on_c, 12, 60, 113
13, 327811, Note_off_c, 12, 40, 56
13, 327823, Note_off_c, 12, 55, 56
13, 327823, Note_off_c, 12, 52, 56
13, 327825, Note_off_c, 12, 60, 56
13, 327838, Note_on_c, 12, 41, 108
13, 327839, Note_on_c, 12, 53, 108
13, 327841, Note_on_c, 12, 57, 108
13, 327842, Note_on_c, 12, 65, 108
13, 327960, Note_off_c, 12, 41, 64
13, 327975, Note_off_c, 12, 53, 64
13, 327977, Note_off_c, 12, 57, 64
13, 327978, Note_off_c, 12, 65, 64
13, 328801, Note_on_c, 12, 65, 108
13, 328801, Note_on_c, 12, 43, 108
13, 328801, Note_on_c, 12, 55, 108
13, 328802, Note_on_c, 12, 59, 108
13, 328923, Note_off_c, 12, 43, 64
13, 328937, Note_off_c, 12, 55, 64
13, 328937, Note_off_c, 12, 65, 64
13, 328938, Note_off_c, 12, 59, 64
13, 329759, Note_on_c, 12, 55, 73
13, 330215, Note_off_c, 12, 55, 64
13, 330241, Note_on_c, 12, 53, 73
13, 330457, Note_off_c, 12, 53, 64
13, 330479, Note_on_c, 12, 59, 73
13, 330695, Note_off_c, 12, 59, 64
13, 330718, Note_on_c, 12, 60, 73
13, 330923, Note_off_c, 12, 60, 64
13, 331318, Note_on_c, 12, 67, 78
13, 331372, Note_off_c, 12, 67, 56
13, 331382, Note_on_c, 12, 69, 78
13, 331436, Note_off_c, 12, 69, 56
13, 331438, Note_on_c, 12, 71, 78
13, 331492, Note_off_c, 12, 71, 56
13, 331502, Note_on_c, 12, 72, 78
13, 331556, Note_off_c, 12, 72, 56
13, 331561, Note_on_c, 12, 74, 78
13, 331615, Note_off_c, 12, 74, 56
13, 331620, Note_on_c, 12, 71, 78
13, 331674, Note_off_c, 12, 71, 56
13, 331682, Note_on_c, 12, 55, 73
13, 331682, Note_on_c, 12, 72, 73
13, 331887, Note_off_c, 12, 72, 64
13, 332138, Note_off_c, 12, 55, 64
13, 332162, Note_on_c, 12, 53, 73
13, 332378, Note_off_c, 12, 53, 64
13, 332401, Note_on_c, 12, 59, 73
13, 332617, Note_off_c, 12, 59, 64
13, 332641, Note_on_c, 12, 60, 73
13, 332846, Note_off_c, 12, 60, 64
13, 333241, Note_on_c, 12, 67, 78
13, 333295, Note_off_c, 12, 67, 56
13, 333298, Note_on_c, 12, 69, 78
13, 333352, Note_off_c, 12, 69, 56
13, 333360, Note_on_c, 12, 71, 78
13, 333414, Note_off_c, 12, 71, 56
13, 333419, Note_on_c, 12, 72, 78
13, 333473, Note_off_c, 12, 72, 56
13, 333478, Note_on_c, 12, 74, 78
13, 333532, Note_off_c, 12, 74, 56
13, 333541, Note_on_c, 12, 76, 78
13, 333595, Note_off_c, 12, 76, 56
13, 333599, Note_on_c, 12, 77, 96
13, 333804, Note_off_c, 12, 77, 64
13, 334079, Note_on_c, 12, 61, 73
13, 334535, Note_off_c, 12, 61, 64
13, 334560, Note_on_c, 12, 62, 73
13, 334765, Note_off_c, 12, 62, 64
13, 334801, Note_on_c, 12, 55, 73
13, 335006, Note_off_c, 12, 55, 64
13, 335038, Note_on_c, 12, 55, 73
13, 335158, Note_on_c, 12, 73, 78
13, 335212, Note_off_c, 12, 73, 56
13, 335220, Note_on_c, 12, 74, 78
13, 335243, Note_off_c, 12, 55, 64
13, 335274, Note_off_c, 12, 74, 56
13, 335279, Note_on_c, 12, 76, 78
13, 335280, Note_on_c, 12, 55, 73
13, 335333, Note_off_c, 12, 76, 56
13, 335338, Note_on_c, 12, 77, 78
13, 335392, Note_off_c, 12, 77, 56
13, 335398, Note_on_c, 12, 79, 78
13, 335452, Note_off_c, 12, 79, 56
13, 335460, Note_on_c, 12, 76, 78
13, 335485, Note_off_c, 12, 55, 64
13, 335514, Note_off_c, 12, 76, 56
13, 335519, Note_on_c, 12, 53, 73
13, 335520, Note_on_c, 12, 81, 73
13, 335724, Note_off_c, 12, 53, 64
13, 335736, Note_off_c, 12, 81, 64
13, 336061, Note_on_c, 12, 69, 78
13, 336115, Note_off_c, 12, 69, 56
13, 336121, Note_on_c, 12, 71, 78
13, 336175, Note_off_c, 12, 71, 56
13, 336179, Note_on_c, 12, 73, 78
13, 336233, Note_off_c, 12, 73, 56
13, 336240, Note_on_c, 12, 74, 78
13, 336294, Note_off_c, 12, 74, 56
13, 336302, Note_on_c, 12, 76, 78
13, 336356, Note_off_c, 12, 76, 56
13, 336358, Note_on_c, 12, 77, 78
13, 336412, Note_off_c, 12, 77, 56
13, 336421, Note_on_c, 12, 74, 78
13, 336475, Note_off_c, 12, 74, 56
13, 336480, Note_on_c, 12, 79, 73
13, 336696, Note_off_c, 12, 79, 64
13, 337080, Note_on_c, 12, 74, 78
13, 337134, Note_off_c, 12, 74, 56
13, 337141, Note_on_c, 12, 76, 78
13, 337195, Note_off_c, 12, 76, 56
13, 337201, Note_on_c, 12, 77, 78
13, 337255, Note_off_c, 12, 77, 56
13, 337262, Note_on_c, 12, 79, 78
13, 337316, Note_off_c, 12, 79, 56
13, 337318, Note_on_c, 12, 81, 78
13, 337372, Note_off_c, 12, 81, 56
13, 337381, Note_on_c, 12, 83, 78
13, 337435, Note_off_c, 12, 83, 56
13, 337438, Note_on_c, 12, 67, 95
13, 337441, Note_on_c, 12, 60, 95
13, 337441, Note_on_c, 12, 40, 90
13, 337442, Note_on_c, 12, 84, 95
13, 337483, Note_off_c, 12, 67, 56
13, 337486, Note_off_c, 12, 60, 56
13, 337487, Note_off_c, 12, 84, 56
13, 337499, Note_on_c, 12, 60, 95
13, 337500, Note_on_c, 12, 84, 95
13, 337501, Note_on_c, 12, 67, 95
13, 337544, Note_off_c, 12, 60, 56
13, 337545, Note_off_c, 12, 84, 56
13, 337546, Note_off_c, 12, 67, 56
13, 337558, Note_on_c, 12, 60, 95
13, 337561, Note_on_c, 12, 84, 95
13, 337562, Note_on_c, 12, 67, 95
13, 337603, Note_off_c, 12, 60, 56
13, 337606, Note_off_c, 12, 84, 56
13, 337607, Note_off_c, 12, 67, 56
13, 337618, Note_on_c, 12, 60, 95
13, 337620, Note_on_c, 12, 84, 95
13, 337621, Note_on_c, 12, 67, 95
13, 337663, Note_off_c, 12, 60, 56
13, 337665, Note_off_c, 12, 84, 56
13, 337666, Note_off_c, 12, 67, 56
13, 337679, Note_on_c, 12, 67, 95
13, 337681, Note_on_c, 12, 60, 95
13, 337682, Note_on_c, 12, 84, 95
13, 337724, Note_off_c, 12, 67, 56
13, 337726, Note_off_c, 12, 60, 56
13, 337727, Note_off_c, 12, 84, 56
13, 337738, Note_on_c, 12, 84, 97
13, 337742, Note_on_c, 12, 67, 95
13, 337742, Note_on_c, 12, 60, 95
13, 337783, Note_off_c, 12, 84, 56
13, 337787, Note_off_c, 12, 60, 56
13, 337787, Note_off_c, 12, 67, 56
13, 337798, Note_on_c, 12, 67, 95
13, 337800, Note_on_c, 12, 84, 97
13, 337802, Note_on_c, 12, 60, 95
13, 337843, Note_off_c, 12, 67, 56
13, 337845, Note_off_c, 12, 84, 56
13, 337847, Note_off_c, 12, 60, 56
13, 337858, Note_on_c, 12, 84, 97
13, 337859, Note_on_c, 12, 67, 95
13, 337861, Note_on_c, 12, 60, 95
13, 337903, Note_off_c, 12, 84, 56
13, 337904, Note_off_c, 12, 67, 56
13, 337906, Note_off_c, 12, 60, 56
13, 337920, Note_on_c, 12, 60, 95
13, 337920, Note_on_c, 12, 67, 95
13, 337921, Note_on_c, 12, 84, 97
13, 337965, Note_off_c, 12, 67, 56
13, 337965, Note_off_c, 12, 60, 56
13, 337966, Note_off_c, 12, 84, 56
13, 337978, Note_on_c, 12, 60, 95
13, 337980, Note_on_c, 12, 84, 97
13, 337981, Note_on_c, 12, 67, 95
13, 338023, Note_off_c, 12, 60, 56
13, 338024, Note_off_c, 12, 40, 64
13, 338025, Note_off_c, 12, 84, 56
13, 338026, Note_off_c, 12, 67, 56
13, 338038, Note_on_c, 12, 84, 97
13, 338039, Note_on_c, 12, 60, 95
13, 338042, Note_on_c, 12, 67, 95
13, 338083, Note_off_c, 12, 84, 56
13, 338084, Note_off_c, 12, 60, 56
13, 338087, Note_off_c, 12, 67, 56
13, 338098, Note_on_c, 12, 67, 95
13, 338098, Note_on_c, 12, 60, 95
13, 338102, Note_on_c, 12, 84, 97
13, 338143, Note_off_c, 12, 60, 56
13, 338143, Note_off_c, 12, 67, 56
13, 338147, Note_off_c, 12, 84, 56
13, 338158, Note_on_c, 12, 83, 97
13, 338159, Note_on_c, 12, 62, 95
13, 338161, Note_on_c, 12, 65, 95
13, 338161, Note_on_c, 12, 38, 90
13, 338203, Note_off_c, 12, 83, 56
13, 338204, Note_off_c, 12, 62, 56
13, 338206, Note_off_c, 12, 65, 56
13, 338218, Note_on_c, 12, 62, 95
13, 338219, Note_on_c, 12, 83, 98
13, 338222, Note_on_c, 12, 65, 95
13, 338263, Note_off_c, 12, 62, 56
13, 338264, Note_off_c, 12, 83, 56
13, 338267, Note_off_c, 12, 65, 56
13, 338279, Note_on_c, 12, 65, 95
13, 338282, Note_on_c, 12, 83, 98
13, 338282, Note_on_c, 12, 62, 95
13, 338324, Note_off_c, 12, 65, 56
13, 338327, Note_off_c, 12, 62, 56
13, 338327, Note_off_c, 12, 83, 56
13, 338338, Note_on_c, 12, 83, 98
13, 338339, Note_on_c, 12, 65, 95
13, 338340, Note_on_c, 12, 62, 95
13, 338345, Note_off_c, 12, 38, 64
13, 338383, Note_off_c, 12, 83, 56
13, 338384, Note_off_c, 12, 65, 56
13, 338385, Note_off_c, 12, 62, 56
13, 338400, Note_on_c, 12, 81, 98
13, 338401, Note_on_c, 12, 36, 90
13, 338402, Note_on_c, 12, 60, 95
13, 338402, Note_on_c, 12, 65, 95
13, 338445, Note_off_c, 12, 81, 56
13, 338447, Note_off_c, 12, 65, 56
13, 338447, Note_off_c, 12, 60, 56
13, 338458, Note_on_c, 12, 65, 95
13, 338458, Note_on_c, 12, 60, 95
13, 338461, Note_on_c, 12, 81, 98
13, 338503, Note_off_c, 12, 60, 56
13, 338503, Note_off_c, 12, 65, 56
13, 338506, Note_off_c, 12, 81, 56
13, 338518, Note_on_c, 12, 65, 95
13, 338520, Note_on_c, 12, 60, 95
13, 338521, Note_on_c, 12, 81, 98
13, 338563, Note_off_c, 12, 65, 56
13, 338565, Note_off_c, 12, 60, 56
13, 338566, Note_off_c, 12, 81, 56
13, 338578, Note_on_c, 12, 81, 98
13, 338581, Note_on_c, 12, 65, 95
13, 338581, Note_on_c, 12, 60, 95
13, 338585, Note_off_c, 12, 36, 64
13, 338623, Note_off_c, 12, 81, 56
13, 338626, Note_off_c, 12, 60, 56
13, 338626, Note_off_c, 12, 65, 56
13, 338638, Note_on_c, 12, 79, 98
13, 338638, Note_on_c, 12, 35, 90
13, 338642, Note_on_c, 12, 65, 95
13, 338642, Note_on_c, 12, 62, 95
13, 338683, Note_off_c, 12, 79, 56
13, 338687, Note_off_c, 12, 62, 56
13, 338687, Note_off_c, 12, 65, 56
13, 338700, Note_on_c, 12, 79, 98
13, 338700, Note_on_c, 12, 62, 95
13, 338701, Note_on_c, 12, 65, 95
13, 338745, Note_off_c, 12, 62, 56
13, 338745, Note_off_c, 12, 79, 56
13, 338746, Note_off_c, 12, 65, 56
13, 338758, Note_on_c, 12, 65, 95
13, 338762, Note_on_c, 12, 79, 99
13, 338762, Note_on_c, 12, 62, 95
13, 338803, Note_off_c, 12, 65, 56
13, 338807, Note_off_c, 12, 62, 56
13, 338807, Note_off_c, 12, 79, 56
13, 338818, Note_on_c, 12, 65, 95
13, 338819, Note_on_c, 12, 62, 95
13, 338821, Note_on_c, 12, 79, 99
13, 338822, Note_off_c, 12, 35, 64
13, 338863, Note_off_c, 12, 65, 56
13, 338864, Note_off_c, 12, 62, 56
13, 338866, Note_off_c, 12, 79, 56
13, 338879, Note_on_c, 12, 65, 95
13, 338880, Note_on_c, 12, 62, 95
13, 338880, Note_on_c, 12, 35, 90
13, 338882, Note_on_c, 12, 79, 99
13, 338924, Note_off_c, 12, 65, 56
13, 338925, Note_off_c, 12, 62, 56
13, 338927, Note_off_c, 12, 79, 56
13, 338938, Note_on_c, 12, 62, 95
13, 338939, Note_on_c, 12, 79, 99
13, 338942, Note_on_c, 12, 65, 95
13, 338983, Note_off_c, 12, 62, 56
13, 338984, Note_off_c, 12, 79, 56
13, 338987, Note_off_c, 12, 65, 56
13, 339000, Note_on_c, 12, 65, 95
13, 339001, Note_on_c, 12, 79, 99
13, 339002, Note_on_c, 12, 62, 95
13, 339045, Note_off_c, 12, 65, 56
13, 339046, Note_off_c, 12, 79, 56
13, 339047, Note_off_c, 12, 62, 56
13, 339058, Note_on_c, 12, 79, 99
13, 339058, Note_on_c, 12, 62, 95
13, 339062, Note_on_c, 12, 65, 95
13, 339064, Note_off_c, 12, 35, 64
13, 339103, Note_off_c, 12, 62, 56
13, 339103, Note_off_c, 12, 79, 56
13, 339107, Note_off_c, 12, 65, 56
13, 339118, Note_on_c, 12, 79, 99
13, 339118, Note_on_c, 12, 62, 95
13, 339119, Note_on_c, 12, 35, 90
13, 339122, Note_on_c, 12, 65, 95
13, 339163, Note_off_c, 12, 62, 56
13, 339163, Note_off_c, 12, 79, 56
13, 339167, Note_off_c, 12, 65, 56
13, 339178, Note_on_c, 12, 65, 95
13, 339180, Note_on_c, 12, 62, 95
13, 339181, Note_on_c, 12, 79, 99
13, 339223, Note_off_c, 12, 65, 56
13, 339225, Note_off_c, 12, 62, 56
13, 339226, Note_off_c, 12, 79, 56
13, 339238, Note_on_c, 12, 65, 95
13, 339240, Note_on_c, 12, 62, 95
13, 339242, Note_on_c, 12, 79, 100
13, 339283, Note_off_c, 12, 65, 56
13, 339285, Note_off_c, 12, 62, 56
13, 339287, Note_off_c, 12, 79, 56
13, 339301, Note_on_c, 12, 65, 95
13, 339302, Note_on_c, 12, 79, 100
13, 339302, Note_on_c, 12, 62, 95
13, 339303, Note_off_c, 12, 35, 64
13, 339346, Note_off_c, 12, 65, 56
13, 339347, Note_off_c, 12, 62, 56
13, 339347, Note_off_c, 12, 79, 56
13, 339358, Note_on_c, 12, 67, 95
13, 339358, Note_on_c, 12, 40, 90
13, 339359, Note_on_c, 12, 60, 95
13, 339359, Note_on_c, 12, 84, 100
13, 339403, Note_off_c, 12, 67, 56
13, 339404, Note_off_c, 12, 84, 56
13, 339404, Note_off_c, 12, 60, 56
13, 339419, Note_on_c, 12, 84, 100
13, 339420, Note_on_c, 12, 60, 95
13, 339422, Note_on_c, 12, 67, 95
13, 339464, Note_off_c, 12, 84, 56
13, 339465, Note_off_c, 12, 60, 56
13, 339467, Note_off_c, 12, 67, 56
13, 339478, Note_on_c, 12, 67, 95
13, 339479, Note_on_c, 12, 60, 95
13, 339482, Note_on_c, 12, 84, 100
13, 339523, Note_off_c, 12, 67, 56
13, 339524, Note_off_c, 12, 60, 56
13, 339527, Note_off_c, 12, 84, 56
13, 339538, Note_on_c, 12, 84, 100
13, 339541, Note_on_c, 12, 60, 95
13, 339541, Note_on_c, 12, 67, 95
13, 339583, Note_off_c, 12, 84, 56
13, 339586, Note_off_c, 12, 67, 56
13, 339586, Note_off_c, 12, 60, 56
13, 339598, Note_on_c, 12, 67, 95
13, 339599, Note_on_c, 12, 60, 95
13, 339602, Note_on_c, 12, 84, 100
13, 339643, Note_off_c, 12, 67, 56
13, 339644, Note_off_c, 12, 60, 56
13, 339647, Note_off_c, 12, 84, 56
13, 339658, Note_on_c, 12, 84, 100
13, 339658, Note_on_c, 12, 60, 95
13, 339661, Note_on_c, 12, 67, 95
13, 339703, Note_off_c, 12, 60, 56
13, 339703, Note_off_c, 12, 84, 56
13, 339706, Note_off_c, 12, 67, 56
13, 339720, Note_on_c, 12, 84, 100
13, 339722, Note_on_c, 12, 60, 95
13, 339722, Note_on_c, 12, 67, 95
13, 339765, Note_off_c, 12, 84, 56
13, 339767, Note_off_c, 12, 67, 56
13, 339767, Note_off_c, 12, 60, 56
13, 339778, Note_on_c, 12, 60, 95
13, 339780, Note_on_c, 12, 67, 95
13, 339781, Note_on_c, 12, 84, 101
13, 339823, Note_off_c, 12, 60, 56
13, 339825, Note_off_c, 12, 67, 56
13, 339826, Note_off_c, 12, 84, 56
13, 339838, Note_on_c, 12, 84, 101
13, 339840, Note_on_c, 12, 67, 95
13, 339841, Note_on_c, 12, 60, 95
13, 339883, Note_off_c, 12, 84, 56
13, 339885, Note_off_c, 12, 67, 56
13, 339886, Note_off_c, 12, 60, 56
13, 339898, Note_on_c, 12, 84, 101
13, 339899, Note_on_c, 12, 60, 95
13, 339900, Note_on_c, 12, 67, 95
13, 339941, Note_off_c, 12, 40, 64
13, 339943, Note_off_c, 12, 84, 56
13, 339944, Note_off_c, 12, 60, 56
13, 339945, Note_off_c, 12, 67, 56
13, 339958, Note_on_c, 12, 67, 95
13, 339959, Note_on_c, 12, 84, 101
13, 339960, Note_on_c, 12, 60, 95
13, 340003, Note_off_c, 12, 67, 56
13, 340004, Note_off_c, 12, 84, 56
13, 340005, Note_off_c, 12, 60, 56
13, 340018, Note_on_c, 12, 60, 95
13, 340021, Note_on_c, 12, 84, 101
13, 340021, Note_on_c, 12, 67, 95
13, 340063, Note_off_c, 12, 60, 56
13, 340066, Note_off_c, 12, 67, 56
13, 340066, Note_off_c, 12, 84, 56
13, 340078, Note_on_c, 12, 83, 101
13, 340079, Note_on_c, 12, 62, 95
13, 340079, Note_on_c, 12, 38, 90
13, 340079, Note_on_c, 12, 65, 95
13, 340123, Note_off_c, 12, 83, 56
13, 340124, Note_off_c, 12, 65, 56
13, 340124, Note_off_c, 12, 62, 56
13, 340141, Note_on_c, 12, 83, 101
13, 340141, Note_on_c, 12, 62, 95
13, 340142, Note_on_c, 12, 65, 95
13, 340186, Note_off_c, 12, 62, 56
13, 340186, Note_off_c, 12, 83, 56
13, 340187, Note_off_c, 12, 65, 56
13, 340198, Note_on_c, 12, 62, 95
13, 340200, Note_on_c, 12, 83, 101
13, 340200, Note_on_c, 12, 65, 95
13, 340243, Note_off_c, 12, 62, 56
13, 340245, Note_off_c, 12, 65, 56
13, 340245, Note_off_c, 12, 83, 56
13, 340258, Note_on_c, 12, 83, 102
13, 340258, Note_on_c, 12, 65, 95
13, 340258, Note_on_c, 12, 62, 95
13, 340263, Note_off_c, 12, 38, 64
13, 340303, Note_off_c, 12, 62, 56
13, 340303, Note_off_c, 12, 65, 56
13, 340303, Note_off_c, 12, 83, 56
13, 340320, Note_on_c, 12, 65, 95
13, 340321, Note_on_c, 12, 81, 102
13, 340322, Note_on_c, 12, 60, 95
13, 340323, Note_on_c, 12, 36, 90
13, 340365, Note_off_c, 12, 65, 56
13, 340366, Note_off_c, 12, 81, 56
13, 340367, Note_off_c, 12, 60, 56
13, 340378, Note_on_c, 12, 60, 95
13, 340382, Note_on_c, 12, 81, 102
13, 340382, Note_on_c, 12, 65, 95
13, 340423, Note_off_c, 12, 60, 56
13, 340427, Note_off_c, 12, 65, 56
13, 340427, Note_off_c, 12, 81, 56
13, 340438, Note_on_c, 12, 65, 95
13, 340439, Note_on_c, 12, 81, 102
13, 340442, Note_on_c, 12, 60, 95
13, 340483, Note_off_c, 12, 65, 56
13, 340484, Note_off_c, 12, 81, 56
13, 340487, Note_off_c, 12, 60, 56
13, 340500, Note_on_c, 12, 81, 102
13, 340500, Note_on_c, 12, 60, 95
13, 340502, Note_on_c, 12, 65, 95
13, 340507, Note_off_c, 12, 36, 64
13, 340545, Note_off_c, 12, 60, 56
13, 340545, Note_off_c, 12, 81, 56
13, 340547, Note_off_c, 12, 65, 56
13, 340557, Note_on_c, 12, 35, 90
13, 340558, Note_on_c, 12, 65, 95
13, 340560, Note_on_c, 12, 79, 102
13, 340562, Note_on_c, 12, 62, 95
13, 340603, Note_off_c, 12, 65, 56
13, 340605, Note_off_c, 12, 79, 56
13, 340607, Note_off_c, 12, 62, 56
13, 340620, Note_on_c, 12, 79, 102
13, 340620, Note_on_c, 12, 65, 95
13, 340622, Note_on_c, 12, 62, 95
13, 340665, Note_off_c, 12, 65, 56
13, 340665, Note_off_c, 12, 79, 56
13, 340667, Note_off_c, 12, 62, 56
13, 340678, Note_on_c, 12, 65, 95
13, 340679, Note_on_c, 12, 79, 102
13, 340680, Note_on_c, 12, 62, 95
13, 340723, Note_off_c, 12, 65, 56
13, 340724, Note_off_c, 12, 79, 56
13, 340725, Note_off_c, 12, 62, 56
13, 340739, Note_on_c, 12, 65, 95
13, 340740, Note_on_c, 12, 79, 102
13, 340740, Note_on_c, 12, 62, 95
13, 340741, Note_off_c, 12, 35, 64
13, 340784, Note_off_c, 12, 65, 56
13, 340785, Note_off_c, 12, 62, 56
13, 340785, Note_off_c, 12, 79, 56
13, 340797, Note_on_c, 12, 35, 90
13, 340798, Note_on_c, 12, 65, 95
13, 340799, Note_on_c, 12, 79, 103
13, 340801, Note_on_c, 12, 62, 95
13, 340843, Note_off_c, 12, 65, 56
13, 340844, Note_off_c, 12, 79, 56
13, 340846, Note_off_c, 12, 62, 56
13, 340858, Note_on_c, 12, 62, 95
13, 340860, Note_on_c, 12, 65, 95
13, 340862, Note_on_c, 12, 79, 103
13, 340903, Note_off_c, 12, 62, 56
13, 340905, Note_off_c, 12, 65, 56
13, 340907, Note_off_c, 12, 79, 56
13, 340920, Note_on_c, 12, 79, 103
13, 340920, Note_on_c, 12, 62, 95
13, 340921, Note_on_c, 12, 65, 95
13, 340965, Note_off_c, 12, 62, 56
13, 340965, Note_off_c, 12, 79, 56
13, 340966, Note_off_c, 12, 65, 56
13, 340980, Note_on_c, 12, 79, 103
13, 340980, Note_on_c, 12, 62, 95
13, 340981, Note_off_c, 12, 35, 64
13, 340982, Note_on_c, 12, 65, 95
13, 341025, Note_off_c, 12, 62, 56
13, 341025, Note_off_c, 12, 79, 56
13, 341027, Note_off_c, 12, 65, 56
13, 341038, Note_on_c, 12, 79, 103
13, 341038, Note_on_c, 12, 35, 90
13, 341038, Note_on_c, 12, 62, 95
13, 341040, Note_on_c, 12, 65, 95
13, 341083, Note_off_c, 12, 62, 56
13, 341083, Note_off_c, 12, 79, 56
13, 341085, Note_off_c, 12, 65, 56
13, 341098, Note_on_c, 12, 79, 103
13, 341098, Note_on_c, 12, 62, 95
13, 341102, Note_on_c, 12, 65, 95
13, 341143, Note_off_c, 12, 62, 56
13, 341143, Note_off_c, 12, 79, 56
13, 341147, Note_off_c, 12, 65, 56
13, 341161, Note_on_c, 12, 62, 95
13, 341161, Note_on_c, 12, 65, 95
13, 341162, Note_on_c, 12, 79, 103
13, 341206, Note_off_c, 12, 65, 56
13, 341206, Note_off_c, 12, 62, 56
13, 341207, Note_off_c, 12, 79, 56
13, 341221, Note_on_c, 12, 79, 103
13, 341221, Note_on_c, 12, 62, 95
13, 341222, Note_off_c, 12, 35, 64
13, 341222, Note_on_c, 12, 65, 95
13, 341266, Note_off_c, 12, 62, 56
13, 341266, Note_off_c, 12, 79, 56
13, 341267, Note_off_c, 12, 65, 56
13, 341277, Note_on_c, 12, 35, 90
13, 341278, Note_on_c, 12, 62, 95
13, 341280, Note_on_c, 12, 89, 105
13, 341280, Note_on_c, 12, 55, 95
13, 341323, Note_off_c, 12, 62, 56
13, 341325, Note_off_c, 12, 55, 56
13, 341325, Note_off_c, 12, 89, 56
13, 341338, Note_on_c, 12, 89, 105
13, 341338, Note_on_c, 12, 55, 95
13, 341338, Note_on_c, 12, 62, 95
13, 341383, Note_off_c, 12, 62, 56
13, 341383, Note_off_c, 12, 55, 56
13, 341383, Note_off_c, 12, 89, 56
13, 341400, Note_on_c, 12, 89, 105
13, 341401, Note_on_c, 12, 55, 95
13, 341402, Note_on_c, 12, 62, 95
13, 341445, Note_off_c, 12, 89, 56
13, 341446, Note_off_c, 12, 55, 56
13, 341447, Note_off_c, 12, 62, 56
13, 341459, Note_on_c, 12, 62, 95
13, 341461, Note_on_c, 12, 89, 105
13, 341461, Note_on_c, 12, 55, 95
13, 341504, Note_off_c, 12, 62, 56
13, 341506, Note_off_c, 12, 55, 56
13, 341506, Note_off_c, 12, 89, 56
13, 341518, Note_on_c, 12, 62, 95
13, 341519, Note_on_c, 12, 89, 105
13, 341519, Note_on_c, 12, 55, 95
13, 341563, Note_off_c, 12, 62, 56
13, 341564, Note_off_c, 12, 55, 56
13, 341564, Note_off_c, 12, 89, 56
13, 341580, Note_on_c, 12, 55, 95
13, 341581, Note_on_c, 12, 89, 105
13, 341581, Note_on_c, 12, 62, 95
13, 341625, Note_off_c, 12, 55, 56
13, 341626, Note_off_c, 12, 62, 56
13, 341626, Note_off_c, 12, 89, 56
13, 341639, Note_on_c, 12, 89, 105
13, 341639, Note_on_c, 12, 55, 95
13, 341642, Note_on_c, 12, 62, 95
13, 341684, Note_off_c, 12, 55, 56
13, 341684, Note_off_c, 12, 89, 56
13, 341687, Note_off_c, 12, 62, 56
13, 341698, Note_on_c, 12, 55, 95
13, 341699, Note_on_c, 12, 62, 95
13, 341701, Note_on_c, 12, 89, 105
13, 341743, Note_off_c, 12, 55, 56
13, 341744, Note_off_c, 12, 62, 56
13, 341746, Note_off_c, 12, 89, 56
13, 341759, Note_on_c, 12, 62, 95
13, 341760, Note_on_c, 12, 89, 105
13, 341761, Note_on_c, 12, 55, 95
13, 341804, Note_off_c, 12, 62, 56
13, 341805, Note_off_c, 12, 89, 56
13, 341806, Note_off_c, 12, 55, 56
13, 341819, Note_on_c, 12, 55, 95
13, 341822, Note_on_c, 12, 89, 106
13, 341822, Note_on_c, 12, 62, 95
13, 341860, Note_off_c, 12, 35, 64
13, 341864, Note_off_c, 12, 55, 56
13, 341867, Note_off_c, 12, 62, 56
13, 341867, Note_off_c, 12, 89, 56
13, 341878, Note_on_c, 12, 55, 95
13, 341880, Note_on_c, 12, 62, 95
13, 341882, Note_on_c, 12, 89, 106
13, 341923, Note_off_c, 12, 55, 56
13, 341925, Note_off_c, 12, 62, 56
13, 341927, Note_off_c, 12, 89, 56
13, 341939, Note_on_c, 12, 55, 95
13, 341940, Note_on_c, 12, 62, 95
13, 341941, Note_on_c, 12, 89, 106
13, 341984, Note_off_c, 12, 55, 56
13, 341985, Note_off_c, 12, 62, 56
13, 341986, Note_off_c, 12, 89, 56
13, 341998, Note_on_c, 12, 55, 95
13, 341998, Note_on_c, 12, 60, 95
13, 342002, Note_on_c, 12, 88, 106
13, 342002, Note_on_c, 12, 36, 90
13, 342043, Note_off_c, 12, 60, 56
13, 342043, Note_off_c, 12, 55, 56
13, 342047, Note_off_c, 12, 88, 56
13, 342058, Note_on_c, 12, 88, 106
13, 342058, Note_on_c, 12, 60, 95
13, 342059, Note_on_c, 12, 55, 95
13, 342103, Note_off_c, 12, 60, 56
13, 342103, Note_off_c, 12, 88, 56
13, 342104, Note_off_c, 12, 55, 56
13, 342121, Note_on_c, 12, 88, 106
13, 342121, Note_on_c, 12, 60, 95
13, 342122, Note_on_c, 12, 55, 95
13, 342166, Note_off_c, 12, 60, 56
13, 342166, Note_off_c, 12, 88, 56
13, 342167, Note_off_c, 12, 55, 56
13, 342178, Note_on_c, 12, 88, 106
13, 342178, Note_on_c, 12, 55, 95
13, 342182, Note_on_c, 12, 60, 95
13, 342186, Note_off_c, 12, 36, 64
13, 342223, Note_off_c, 12, 55, 56
13, 342223, Note_off_c, 12, 88, 56
13, 342227, Note_off_c, 12, 60, 56
13, 342239, Note_on_c, 12, 29, 90
13, 342241, Note_on_c, 12, 86, 106
13, 342242, Note_on_c, 12, 57, 95
13, 342242, Note_on_c, 12, 53, 95
13, 342286, Note_off_c, 12, 86, 56
13, 342287, Note_off_c, 12, 53, 56
13, 342287, Note_off_c, 12, 57, 56
13, 342298, Note_on_c, 12, 57, 95
13, 342301, Note_on_c, 12, 86, 106
13, 342302, Note_on_c, 12, 53, 95
13, 342343, Note_off_c, 12, 57, 56
13, 342346, Note_off_c, 12, 86, 56
13, 342347, Note_off_c, 12, 53, 56
13, 342358, Note_on_c, 12, 86, 107
13, 342360, Note_on_c, 12, 53, 95
13, 342362, Note_on_c, 12, 57, 95
13, 342403, Note_off_c, 12, 86, 56
13, 342405, Note_off_c, 12, 53, 56
13, 342407, Note_off_c, 12, 57, 56
13, 342421, Note_on_c, 12, 57, 95
13, 342422, Note_on_c, 12, 86, 107
13, 342422, Note_on_c, 12, 53, 95
13, 342423, Note_off_c, 12, 29, 64
13, 342466, Note_off_c, 12, 57, 56
13, 342467, Note_off_c, 12, 53, 56
13, 342467, Note_off_c, 12, 86, 56
13, 342478, Note_on_c, 12, 85, 107
13, 342480, Note_on_c, 12, 58, 95
13, 342482, Note_on_c, 12, 55, 95
13, 342483, Note_on_c, 12, 28, 90
13, 342523, Note_off_c, 12, 85, 56
13, 342525, Note_off_c, 12, 58, 56
13, 342527, Note_off_c, 12, 55, 56
13, 342538, Note_on_c, 12, 55, 95
13, 342540, Note_on_c, 12, 85, 107
13, 342541, Note_on_c, 12, 58, 95
13, 342583, Note_off_c, 12, 55, 56
13, 342585, Note_off_c, 12, 85, 56
13, 342586, Note_off_c, 12, 58, 56
13, 342598, Note_on_c, 12, 58, 95
13, 342600, Note_on_c, 12, 85, 107
13, 342601, Note_on_c, 12, 55, 95
13, 342643, Note_off_c, 12, 58, 56
13, 342645, Note_off_c, 12, 85, 56
13, 342646, Note_off_c, 12, 55, 56
13, 342658, Note_on_c, 12, 55, 95
13, 342658, Note_on_c, 12, 58, 95
13, 342660, Note_on_c, 12, 85, 107
13, 342667, Note_off_c, 12, 28, 64
13, 342703, Note_off_c, 12, 58, 56
13, 342703, Note_off_c, 12, 55, 56
13, 342705, Note_off_c, 12, 85, 56
13, 342718, Note_on_c, 12, 55, 95
13, 342719, Note_on_c, 12, 28, 90
13, 342720, Note_on_c, 12, 85, 107
13, 342720, Note_on_c, 12, 58, 95
13, 342763, Note_off_c, 12, 55, 56
13, 342765, Note_off_c, 12, 58, 56
13, 342765, Note_off_c, 12, 85, 56
13, 342778, Note_on_c, 12, 85, 107
13, 342778, Note_on_c, 12, 58, 95
13, 342782, Note_on_c, 12, 55, 95
13, 342823, Note_off_c, 12, 58, 56
13, 342823, Note_off_c, 12, 85, 56
13, 342827, Note_off_c, 12, 55, 56
13, 342839, Note_on_c, 12, 85, 108
13, 342839, Note_on_c, 12, 55, 97
13, 342842, Note_on_c, 12, 58, 97
13, 342884, Note_off_c, 12, 55, 56
13, 342884, Note_off_c, 12, 85, 56
13, 342887, Note_off_c, 12, 58, 56
13, 342898, Note_on_c, 12, 58, 97
13, 342899, Note_on_c, 12, 55, 97
13, 342900, Note_on_c, 12, 85, 108
13, 342903, Note_off_c, 12, 28, 64
13, 342943, Note_off_c, 12, 58, 56
13, 342944, Note_off_c, 12, 55, 56
13, 342945, Note_off_c, 12, 85, 56
13, 342958, Note_on_c, 12, 85, 108
13, 342960, Note_on_c, 12, 58, 98
13, 342962, Note_on_c, 12, 55, 98
13, 342963, Note_on_c, 12, 28, 93
13, 343003, Note_off_c, 12, 85, 56
13, 343005, Note_off_c, 12, 58, 56
13, 343007, Note_off_c, 12, 55, 56
13, 343019, Note_on_c, 12, 85, 108
13, 343019, Note_on_c, 12, 58, 98
13, 343021, Note_on_c, 12, 55, 98
13, 343064, Note_off_c, 12, 58, 56
13, 343064, Note_off_c, 12, 85, 56
13, 343066, Note_off_c, 12, 55, 56
13, 343079, Note_on_c, 12, 58, 98
13, 343080, Note_on_c, 12, 85, 108
13, 343081, Note_on_c, 12, 55, 98
13, 343124, Note_off_c, 12, 58, 56
13, 343125, Note_off_c, 12, 85, 56
13, 343126, Note_off_c, 12, 55, 56
13, 343139, Note_on_c, 12, 55, 99
13, 343139, Note_on_c, 12, 58, 99
13, 343141, Note_on_c, 12, 85, 108
13, 343147, Note_off_c, 12, 28, 64
13, 343184, Note_off_c, 12, 58, 56
13, 343184, Note_off_c, 12, 55, 56
13, 343186, Note_off_c, 12, 85, 56
13, 343200, Note_on_c, 12, 55, 99
13, 343201, Note_on_c, 12, 58, 99
13, 343201, Note_on_c, 12, 28, 94
13, 343202, Note_on_c, 12, 85, 108
13, 343245, Note_off_c, 12, 55, 56
13, 343246, Note_off_c, 12, 58, 56
13, 343247, Note_off_c, 12, 85, 56
13, 343259, Note_on_c, 12, 58, 99
13, 343260, Note_on_c, 12, 85, 108
13, 343261, Note_on_c, 12, 55, 99
13, 343304, Note_off_c, 12, 58, 56
13, 343305, Note_off_c, 12, 85, 56
13, 343306, Note_off_c, 12, 55, 56
13, 343318, Note_on_c, 12, 85, 108
13, 343319, Note_on_c, 12, 58, 100
13, 343322, Note_on_c, 12, 55, 100
13, 343363, Note_off_c, 12, 85, 56
13, 343364, Note_off_c, 12, 58, 56
13, 343367, Note_off_c, 12, 55, 56
13, 343379, Note_on_c, 12, 85, 109
13, 343379, Note_on_c, 12, 58, 100
13, 343380, Note_on_c, 12, 55, 100
13, 343385, Note_off_c, 12, 28, 64
13, 343424, Note_off_c, 12, 58, 56
13, 343424, Note_off_c, 12, 85, 56
13, 343425, Note_off_c, 12, 55, 56
13, 343441, Note_on_c, 12, 88, 109
13, 343441, Note_on_c, 12, 55, 101
13, 343441, Note_on_c, 12, 58, 101
13, 343442, Note_on_c, 12, 28, 96
13, 343486, Note_off_c, 12, 58, 56
13, 343486, Note_off_c, 12, 55, 56
13, 343486, Note_off_c, 12, 88, 56
13, 343499, Note_on_c, 12, 55, 101
13, 343500, Note_on_c, 12, 58, 101
13, 343502, Note_on_c, 12, 88, 109
13, 343544, Note_off_c, 12, 55, 56
13, 343545, Note_off_c, 12, 58, 56
13, 343547, Note_off_c, 12, 88, 56
13, 343558, Note_on_c, 12, 88, 109
13, 343559, Note_on_c, 12, 58, 101
13, 343561, Note_on_c, 12, 55, 101
13, 343603, Note_off_c, 12, 88, 56
13, 343604, Note_off_c, 12, 58, 56
13, 343606, Note_off_c, 12, 55, 56
13, 343619, Note_on_c, 12, 58, 102
13, 343621, Note_on_c, 12, 88, 109
13, 343621, Note_on_c, 12, 55, 102
13, 343626, Note_off_c, 12, 28, 64
13, 343664, Note_off_c, 12, 58, 56
13, 343666, Note_off_c, 12, 55, 56
13, 343666, Note_off_c, 12, 88, 56
13, 343677, Note_on_c, 12, 28, 97
13, 343678, Note_on_c, 12, 55, 102
13, 343681, Note_on_c, 12, 58, 102
13, 343682, Note_on_c, 12, 88, 109
13, 343723, Note_off_c, 12, 55, 56
13, 343726, Note_off_c, 12, 58, 56
13, 343727, Note_off_c, 12, 88, 56
13, 343739, Note_on_c, 12, 55, 102
13, 343740, Note_on_c, 12, 58, 102
13, 343741, Note_on_c, 12, 88, 109
13, 343784, Note_off_c, 12, 55, 56
13, 343785, Note_off_c, 12, 58, 56
13, 343786, Note_off_c, 12, 88, 56
13, 343798, Note_on_c, 12, 58, 103
13, 343800, Note_on_c, 12, 55, 103
13, 343802, Note_on_c, 12, 88, 109
13, 343843, Note_off_c, 12, 58, 56
13, 343845, Note_off_c, 12, 55, 56
13, 343847, Note_off_c, 12, 88, 56
13, 343860, Note_on_c, 12, 88, 110
13, 343860, Note_on_c, 12, 58, 103
13, 343861, Note_off_c, 12, 28, 64
13, 343861, Note_on_c, 12, 55, 103
13, 343905, Note_off_c, 12, 58, 56
13, 343905, Note_off_c, 12, 88, 56
13, 343906, Note_off_c, 12, 55, 56
13, 343919, Note_on_c, 12, 88, 110
13, 343921, Note_on_c, 12, 58, 105
13, 343922, Note_on_c, 12, 55, 105
13, 343923, Note_on_c, 12, 28, 100
13, 343964, Note_off_c, 12, 88, 56
13, 343966, Note_off_c, 12, 58, 56
13, 343967, Note_off_c, 12, 55, 56
13, 343978, Note_on_c, 12, 55, 105
13, 343979, Note_on_c, 12, 88, 110
13, 343982, Note_on_c, 12, 58, 105
13, 344023, Note_off_c, 12, 55, 56
13, 344024, Note_off_c, 12, 88, 56
13, 344027, Note_off_c, 12, 58, 56
13, 344039, Note_on_c, 12, 55, 105
13, 344042, Note_on_c, 12, 88, 110
13, 344042, Note_on_c, 12, 58, 105
13, 344084, Note_off_c, 12, 55, 56
13, 344087, Note_off_c, 12, 58, 56
13, 344087, Note_off_c, 12, 88, 56
13, 344099, Note_on_c, 12, 88, 110
13, 344100, Note_on_c, 12, 58, 106
13, 344101, Note_on_c, 12, 55, 106
13, 344107, Note_off_c, 12, 28, 64
13, 344144, Note_off_c, 12, 88, 56
13, 344145, Note_off_c, 12, 58, 56
13, 344146, Note_off_c, 12, 55, 56
13, 344158, Note_on_c, 12, 58, 106
13, 344159, Note_on_c, 12, 55, 106
13, 344160, Note_on_c, 12, 28, 101
13, 344161, Note_on_c, 12, 88, 110
13, 344203, Note_off_c, 12, 58, 56
13, 344204, Note_off_c, 12, 55, 56
13, 344206, Note_off_c, 12, 88, 56
13, 344218, Note_on_c, 12, 58, 106
13, 344218, Note_on_c, 12, 55, 106
13, 344219, Note_on_c, 12, 88, 110
13, 344263, Note_off_c, 12, 55, 56
13, 344263, Note_off_c, 12, 58, 56
13, 344264, Note_off_c, 12, 88, 56
13, 344279, Note_on_c, 12, 55, 107
13, 344281, Note_on_c, 12, 88, 110
13, 344281, Note_on_c, 12, 58, 107
13, 344324, Note_off_c, 12, 55, 56
13, 344326, Note_off_c, 12, 58, 56
13, 344326, Note_off_c, 12, 88, 56
13, 344339, Note_on_c, 12, 88, 110
13, 344340, Note_on_c, 12, 55, 107
13, 344342, Note_on_c, 12, 58, 107
13, 344344, Note_off_c, 12, 28, 64
13, 344384, Note_off_c, 12, 88, 56
13, 344385, Note_off_c, 12, 55, 56
13, 344387, Note_off_c, 12, 58, 56
13, 344397, Note_on_c, 12, 28, 103
13, 344398, Note_on_c, 12, 55, 108
13, 344401, Note_on_c, 12, 91, 111
13, 344401, Note_on_c, 12, 58, 108
13, 344443, Note_off_c, 12, 55, 56
13, 344446, Note_off_c, 12, 58, 56
13, 344446, Note_off_c, 12, 91, 56
13, 344461, Note_on_c, 12, 91, 111
13, 344462, Note_on_c, 12, 58, 108
13, 344462, Note_on_c, 12, 55, 108
13, 344506, Note_off_c, 12, 91, 56
13, 344507, Note_off_c, 12, 55, 56
13, 344507, Note_off_c, 12, 58, 56
13, 344518, Note_on_c, 12, 91, 111
13, 344520, Note_on_c, 12, 58, 108
13, 344522, Note_on_c, 12, 55, 108
13, 344563, Note_off_c, 12, 91, 56
13, 344565, Note_off_c, 12, 58, 56
13, 344567, Note_off_c, 12, 55, 56
13, 344578, Note_on_c, 12, 91, 111
13, 344578, Note_on_c, 12, 58, 109
13, 344579, Note_on_c, 12, 55, 109
13, 344581, Note_off_c, 12, 28, 64
13, 344623, Note_off_c, 12, 58, 56
13, 344623, Note_off_c, 12, 91, 56
13, 344624, Note_off_c, 12, 55, 56
13, 344638, Note_on_c, 12, 28, 104
13, 344640, Note_on_c, 12, 91, 111
13, 344642, Note_on_c, 12, 58, 109
13, 344642, Note_on_c, 12, 55, 109
13, 344685, Note_off_c, 12, 91, 56
13, 344687, Note_off_c, 12, 55, 56
13, 344687, Note_off_c, 12, 58, 56
13, 344698, Note_on_c, 12, 55, 109
13, 344698, Note_on_c, 12, 58, 109
13, 344702, Note_on_c, 12, 91, 111
13, 344743, Note_off_c, 12, 58, 56
13, 344743, Note_off_c, 12, 55, 56
13, 344747, Note_off_c, 12, 91, 56
13, 344758, Note_on_c, 12, 55, 110
13, 344759, Note_on_c, 12, 58, 110
13, 344762, Note_on_c, 12, 91, 111
13, 344803, Note_off_c, 12, 55, 56
13, 344804, Note_off_c, 12, 58, 56
13, 344807, Note_off_c, 12, 91, 56
13, 344819, Note_on_c, 12, 55, 110
13, 344820, Note_on_c, 12, 91, 111
13, 344821, Note_on_c, 12, 58, 110
13, 344822, Note_off_c, 12, 28, 64
13, 344864, Note_off_c, 12, 55, 56
13, 344865, Note_off_c, 12, 91, 56
13, 344866, Note_off_c, 12, 58, 56
13, 344877, Note_on_c, 12, 28, 106
13, 344879, Note_on_c, 12, 91, 113
13, 344881, Note_on_c, 12, 58, 111
13, 344882, Note_on_c, 12, 55, 111
13, 344924, Note_off_c, 12, 91, 56
13, 344926, Note_off_c, 12, 58, 56
13, 344927, Note_off_c, 12, 55, 56
13, 344941, Note_on_c, 12, 55, 111
13, 344942, Note_on_c, 12, 91, 113
13, 344942, Note_on_c, 12, 58, 111
13, 344986, Note_off_c, 12, 55, 56
13, 344987, Note_off_c, 12, 58, 56
13, 344987, Note_off_c, 12, 91, 56
13, 344998, Note_on_c, 12, 58, 111
13, 344999, Note_on_c, 12, 91, 113
13, 344999, Note_on_c, 12, 55, 111
13, 345043, Note_off_c, 12, 58, 56
13, 345044, Note_off_c, 12, 55, 56
13, 345044, Note_off_c, 12, 91, 56
13, 345058, Note_on_c, 12, 58, 113
13, 345059, Note_on_c, 12, 91, 113
13, 345060, Note_on_c, 12, 55, 113
13, 345061, Note_off_c, 12, 28, 64
13, 345103, Note_off_c, 12, 58, 56
13, 345104, Note_off_c, 12, 91, 56
13, 345105, Note_off_c, 12, 55, 56
13, 345120, Note_on_c, 12, 91, 113
13, 345120, Note_on_c, 12, 58, 113
13, 345122, Note_on_c, 12, 29, 108
13, 345122, Note_on_c, 12, 53, 113
13, 345165, Note_off_c, 12, 58, 56
13, 345165, Note_off_c, 12, 91, 56
13, 345167, Note_off_c, 12, 53, 56
13, 345179, Note_on_c, 12, 58, 113
13, 345182, Note_on_c, 12, 91, 113
13, 345182, Note_on_c, 12, 53, 113
13, 345224, Note_off_c, 12, 58, 56
13, 345227, Note_off_c, 12, 53, 56
13, 345227, Note_off_c, 12, 91, 56
13, 345240, Note_on_c, 12, 53, 113
13, 345241, Note_on_c, 12, 91, 113
13, 345241, Note_on_c, 12, 58, 113
13, 345285, Note_off_c, 12, 53, 56
13, 345286, Note_off_c, 12, 58, 56
13, 345286, Note_off_c, 12, 91, 56
13, 345299, Note_on_c, 12, 53, 113
13, 345301, Note_on_c, 12, 91, 113
13, 345302, Note_on_c, 12, 58, 113
13, 345344, Note_off_c, 12, 53, 56
13, 345346, Note_off_c, 12, 91, 56
13, 345347, Note_off_c, 12, 58, 56
13, 345358, Note_on_c, 12, 58, 113
13, 345359, Note_on_c, 12, 91, 113
13, 345359, Note_on_c, 12, 53, 113
13, 345403, Note_off_c, 12, 58, 56
13, 345404, Note_off_c, 12, 53, 56
13, 345404, Note_off_c, 12, 91, 56
13, 345418, Note_on_c, 12, 91, 113
13, 345421, Note_on_c, 12, 53, 113
13, 345422, Note_on_c, 12, 58, 113
13, 345463, Note_off_c, 12, 91, 56
13, 345466, Note_off_c, 12, 53, 56
13, 345467, Note_off_c, 12, 58, 56
13, 345479, Note_on_c, 12, 53, 113
13, 345480, Note_on_c, 12, 58, 113
13, 345481, Note_on_c, 12, 91, 113
13, 345524, Note_off_c, 12, 53, 56
13, 345525, Note_off_c, 12, 58, 56
13, 345526, Note_off_c, 12, 91, 56
13, 345539, Note_on_c, 12, 91, 113
13, 345540, Note_on_c, 12, 53, 113
13, 345541, Note_on_c, 12, 58, 113
13, 345584, Note_off_c, 12, 91, 56
13, 345585, Note_off_c, 12, 53, 56
13, 345586, Note_off_c, 12, 58, 56
13, 345598, Note_on_c, 12, 58, 113
13, 345602, Note_on_c, 12, 91, 113
13, 345602, Note_on_c, 12, 53, 113
13, 345643, Note_off_c, 12, 58, 56
13, 345647, Note_off_c, 12, 53, 56
13, 345647, Note_off_c, 12, 91, 56
13, 345658, Note_on_c, 12, 58, 113
13, 345659, Note_on_c, 12, 91, 113
13, 345662, Note_on_c, 12, 53, 113
13, 345703, Note_off_c, 12, 58, 56
13, 345704, Note_off_c, 12, 91, 56
13, 345707, Note_off_c, 12, 53, 56
13, 345718, Note_on_c, 12, 91, 113
13, 345719, Note_on_c, 12, 58, 113
13, 345721, Note_on_c, 12, 53, 113
13, 345763, Note_off_c, 12, 91, 56
13, 345764, Note_off_c, 12, 58, 56
13, 345766, Note_off_c, 12, 53, 56
13, 345778, Note_on_c, 12, 53, 113
13, 345778, Note_on_c, 12, 58, 113
13, 345782, Note_on_c, 12, 91, 113
13, 345823, Note_off_c, 12, 58, 56
13, 345823, Note_off_c, 12, 53, 56
13, 345827, Note_off_c, 12, 91, 56
13, 345838, Note_on_c, 12, 53, 113
13, 345841, Note_on_c, 12, 58, 113
13, 345842, Note_on_c, 12, 91, 113
13, 345883, Note_off_c, 12, 53, 56
13, 345886, Note_off_c, 12, 58, 56
13, 345887, Note_off_c, 12, 91, 56
13, 345900, Note_on_c, 12, 58, 113
13, 345900, Note_on_c, 12, 53, 113
13, 345902, Note_on_c, 12, 91, 113
13, 345945, Note_off_c, 12, 53, 56
13, 345945, Note_off_c, 12, 58, 56
13, 345947, Note_off_c, 12, 91, 56
13, 345959, Note_on_c, 12, 53, 113
13, 345959, Note_on_c, 12, 58, 113
13, 345962, Note_on_c, 12, 91, 113
13, 346004, Note_off_c, 12, 58, 56
13, 346004, Note_off_c, 12, 53, 56
13, 346007, Note_off_c, 12, 91, 56
13, 346020, Note_on_c, 12, 91, 113
13, 346021, Note_on_c, 12, 53, 113
13, 346022, Note_on_c, 12, 58, 113
13, 346065, Note_off_c, 12, 91, 56
13, 346066, Note_off_c, 12, 53, 56
13, 346067, Note_off_c, 12, 58, 56
13, 346078, Note_on_c, 12, 89, 113
13, 346080, Note_on_c, 12, 58, 113
13, 346082, Note_on_c, 12, 53, 113
13, 346123, Note_off_c, 12, 89, 56
13, 346125, Note_off_c, 12, 58, 56
13, 346127, Note_off_c, 12, 53, 56
13, 346142, Note_on_c, 12, 89, 113
13, 346142, Note_on_c, 12, 58, 113
13, 346142, Note_on_c, 12, 53, 113
13, 346187, Note_off_c, 12, 53, 56
13, 346187, Note_off_c, 12, 58, 56
13, 346187, Note_off_c, 12, 89, 56
13, 346199, Note_on_c, 12, 53, 113
13, 346200, Note_on_c, 12, 58, 113
13, 346201, Note_on_c, 12, 89, 113
13, 346244, Note_off_c, 12, 53, 56
13, 346245, Note_off_c, 12, 58, 56
13, 346246, Note_off_c, 12, 89, 56
13, 346260, Note_on_c, 12, 58, 113
13, 346262, Note_on_c, 12, 89, 113
13, 346262, Note_on_c, 12, 53, 113
13, 346305, Note_off_c, 12, 58, 56
13, 346307, Note_off_c, 12, 53, 56
13, 346307, Note_off_c, 12, 89, 56
13, 346319, Note_on_c, 12, 58, 113
13, 346320, Note_on_c, 12, 53, 113
13, 346321, Note_on_c, 12, 89, 113
13, 346364, Note_off_c, 12, 58, 56
13, 346365, Note_off_c, 12, 53, 56
13, 346366, Note_off_c, 12, 89, 56
13, 346379, Note_on_c, 12, 89, 113
13, 346379, Note_on_c, 12, 58, 113
13, 346380, Note_on_c, 12, 53, 113
13, 346424, Note_off_c, 12, 58, 56
13, 346424, Note_off_c, 12, 89, 56
13, 346425, Note_off_c, 12, 53, 56
13, 346439, Note_on_c, 12, 89, 113
13, 346441, Note_on_c, 12, 58, 113
13, 346441, Note_on_c, 12, 53, 113
13, 346484, Note_off_c, 12, 89, 56
13, 346486, Note_off_c, 12, 53, 56
13, 346486, Note_off_c, 12, 58, 56
13, 346501, Note_on_c, 12, 89, 113
13, 346501, Note_on_c, 12, 58, 113
13, 346502, Note_on_c, 12, 53, 113
13, 346546, Note_off_c, 12, 58, 56
13, 346546, Note_off_c, 12, 89, 56
13, 346547, Note_off_c, 12, 53, 56
13, 346561, Note_on_c, 12, 89, 113
13, 346561, Note_on_c, 12, 53, 113
13, 346562, Note_on_c, 12, 58, 113
13, 346606, Note_off_c, 12, 53, 56
13, 346606, Note_off_c, 12, 89, 56
13, 346607, Note_off_c, 12, 58, 56
13, 346618, Note_on_c, 12, 58, 113
13, 346622, Note_on_c, 12, 89, 113
13, 346622, Note_on_c, 12, 53, 113
13, 346663, Note_off_c, 12, 58, 56
13, 346667, Note_off_c, 12, 53, 56
13, 346667, Note_off_c, 12, 89, 56
13, 346678, Note_on_c, 12, 58, 113
13, 346679, Note_on_c, 12, 89, 113
13, 346679, Note_on_c, 12, 53, 113
13, 346723, Note_off_c, 12, 58, 56
13, 346724, Note_off_c, 12, 53, 56
13, 346724, Note_off_c, 12, 89, 56
13, 346738, Note_on_c, 12, 89, 113
13, 346739, Note_on_c, 12, 53, 113
13, 346740, Note_on_c, 12, 58, 113
13, 346783, Note_off_c, 12, 89, 56
13, 346784, Note_off_c, 12, 53, 56
13, 346785, Note_off_c, 12, 58, 56
13, 346798, Note_on_c, 12, 89, 113
13, 346798, Note_on_c, 12, 53, 113
13, 346800, Note_on_c, 12, 58, 113
13, 346843, Note_off_c, 12, 53, 56
13, 346843, Note_off_c, 12, 89, 56
13, 346845, Note_off_c, 12, 58, 56
13, 346858, Note_on_c, 12, 89, 113
13, 346858, Note_on_c, 12, 53, 113
13, 346859, Note_on_c, 12, 58, 113
13, 346903, Note_off_c, 12, 53, 56
13, 346903, Note_off_c, 12, 89, 56
13, 346904, Note_off_c, 12, 58, 56
13, 346918, Note_on_c, 12, 89, 113
13, 346920, Note_on_c, 12, 58, 113
13, 346921, Note_on_c, 12, 53, 113
13, 346963, Note_off_c, 12, 89, 56
13, 346965, Note_off_c, 12, 58, 56
13, 346966, Note_off_c, 12, 53, 56
13, 346978, Note_on_c, 12, 89, 113
13, 346978, Note_on_c, 12, 53, 113
13, 346980, Note_on_c, 12, 58, 113
13, 347023, Note_off_c, 12, 53, 56
13, 347023, Note_off_c, 12, 89, 56
13, 347025, Note_off_c, 12, 58, 56
13, 347040, Note_on_c, 12, 59, 113
13, 347042, Note_on_c, 12, 89, 113
13, 347042, Note_on_c, 12, 53, 113
13, 347085, Note_off_c, 12, 59, 56
13, 347087, Note_off_c, 12, 53, 56
13, 347087, Note_off_c, 12, 89, 56
13, 347100, Note_on_c, 12, 53, 113
13, 347101, Note_on_c, 12, 89, 113
13, 347102, Note_on_c, 12, 59, 113
13, 347145, Note_off_c, 12, 53, 56
13, 347146, Note_off_c, 12, 89, 56
13, 347147, Note_off_c, 12, 59, 56
13, 347158, Note_on_c, 12, 59, 113
13, 347159, Note_on_c, 12, 89, 113
13, 347159, Note_on_c, 12, 53, 113
13, 347203, Note_off_c, 12, 59, 56
13, 347204, Note_off_c, 12, 53, 56
13, 347204, Note_off_c, 12, 89, 56
13, 347218, Note_on_c, 12, 59, 113
13, 347219, Note_on_c, 12, 53, 113
13, 347222, Note_on_c, 12, 89, 113
13, 347263, Note_off_c, 12, 59, 56
13, 347264, Note_off_c, 12, 53, 56
13, 347267, Note_off_c, 12, 89, 56
13, 347279, Note_on_c, 12, 89, 113
13, 347279, Note_on_c, 12, 53, 113
13, 347279, Note_on_c, 12, 59, 113
13, 347324, Note_off_c, 12, 59, 56
13, 347324, Note_off_c, 12, 53, 56
13, 347324, Note_off_c, 12, 89, 56
13, 347338, Note_on_c, 12, 59, 113
13, 347339, Note_on_c, 12, 89, 113
13, 347341, Note_on_c, 12, 53, 113
13, 347383, Note_off_c, 12, 59, 56
13, 347384, Note_off_c, 12, 89, 56
13, 347386, Note_off_c, 12, 53, 56
13, 347399, Note_on_c, 12, 59, 113
13, 347400, Note_on_c, 12, 89, 113
13, 347402, Note_on_c, 12, 53, 113
13, 347444, Note_off_c, 12, 59, 56
13, 347445, Note_off_c, 12, 89, 56
13, 347447, Note_off_c, 12, 53, 56
13, 347459, Note_on_c, 12, 89, 113
13, 347459, Note_on_c, 12, 59, 113
13, 347462, Note_on_c, 12, 53, 113
13, 347504, Note_off_c, 12, 59, 56
13, 347504, Note_off_c, 12, 89, 56
13, 347507, Note_off_c, 12, 53, 56
13, 347520, Note_on_c, 12, 89, 113
13, 347520, Note_on_c, 12, 59, 113
13, 347520, Note_on_c, 12, 53, 113
13, 347565, Note_off_c, 12, 53, 56
13, 347565, Note_off_c, 12, 59, 56
13, 347565, Note_off_c, 12, 89, 56
13, 347578, Note_on_c, 12, 89, 113
13, 347578, Note_on_c, 12, 53, 113
13, 347580, Note_on_c, 12, 59, 113
13, 347623, Note_off_c, 12, 53, 56
13, 347623, Note_off_c, 12, 89, 56
13, 347625, Note_off_c, 12, 59, 56
13, 347638, Note_on_c, 12, 89, 113
13, 347640, Note_on_c, 12, 53, 113
13, 347640, Note_on_c, 12, 59, 113
13, 347683, Note_off_c, 12, 89, 56
13, 347685, Note_off_c, 12, 59, 56
13, 347685, Note_off_c, 12, 53, 56
13, 347700, Note_on_c, 12, 89, 113
13, 347701, Note_on_c, 12, 53, 113
13, 347701, Note_on_c, 12, 59, 113
13, 347745, Note_off_c, 12, 89, 56
13, 347746, Note_off_c, 12, 59, 56
13, 347746, Note_off_c, 12, 53, 56
13, 347758, Note_on_c, 12, 89, 113
13, 347759, Note_on_c, 12, 53, 113
13, 347761, Note_on_c, 12, 59, 113
13, 347803, Note_off_c, 12, 89, 56
13, 347804, Note_off_c, 12, 53, 56
13, 347806, Note_off_c, 12, 59, 56
13, 347819, Note_on_c, 12, 53, 113
13, 347820, Note_on_c, 12, 59, 113
13, 347821, Note_on_c, 12, 89, 113
13, 347864, Note_off_c, 12, 53, 56
13, 347865, Note_off_c, 12, 59, 56
13, 347866, Note_off_c, 12, 89, 56
13, 347878, Note_on_c, 12, 53, 113
13, 347879, Note_on_c, 12, 89, 113
13, 347882, Note_on_c, 12, 59, 113
13, 347906, Note_off_c, 12, 29, 64
13, 347923, Note_off_c, 12, 53, 56
13, 347924, Note_off_c, 12, 89, 56
13, 347927, Note_off_c, 12, 59, 56
13, 347938, Note_on_c, 12, 89, 113
13, 347941, Note_on_c, 12, 59, 113
13, 347942, Note_on_c, 12, 53, 113
13, 347983, Note_off_c, 12, 89, 56
13, 347986, Note_off_c, 12, 59, 56
13, 347987, Note_off_c, 12, 53, 56
13, 347997, Note_on_c, 12, 30, 108
13, 347998, Note_on_c, 12, 60, 113
13, 348001, Note_on_c, 12, 87, 113
13, 348001, Note_on_c, 12, 54, 113
13, 348043, Note_off_c, 12, 60, 56
13, 348046, Note_off_c, 12, 54, 56
13, 348046, Note_off_c, 12, 87, 56
13, 348058, Note_on_c, 12, 87, 113
13, 348059, Note_on_c, 12, 60, 113
13, 348060, Note_on_c, 12, 54, 113
13, 348103, Note_off_c, 12, 87, 56
13, 348104, Note_off_c, 12, 60, 56
13, 348105, Note_off_c, 12, 54, 56
13, 348119, Note_on_c, 12, 60, 113
13, 348121, Note_on_c, 12, 87, 113
13, 348121, Note_on_c, 12, 54, 113
13, 348164, Note_off_c, 12, 60, 56
13, 348166, Note_off_c, 12, 54, 56
13, 348166, Note_off_c, 12, 87, 56
13, 348178, Note_on_c, 12, 60, 113
13, 348182, Note_on_c, 12, 87, 113
13, 348182, Note_on_c, 12, 54, 113
13, 348223, Note_off_c, 12, 60, 56
13, 348227, Note_off_c, 12, 54, 56
13, 348227, Note_off_c, 12, 87, 56
13, 348238, Note_on_c, 12, 87, 113
13, 348239, Note_on_c, 12, 60, 113
13, 348242, Note_on_c, 12, 54, 113
13, 348283, Note_off_c, 12, 87, 56
13, 348284, Note_off_c, 12, 60, 56
13, 348287, Note_off_c, 12, 54, 56
13, 348298, Note_on_c, 12, 60, 113
13, 348301, Note_on_c, 12, 87, 113
13, 348301, Note_on_c, 12, 54, 113
13, 348343, Note_off_c, 12, 60, 56
13, 348346, Note_off_c, 12, 54, 56
13, 348346, Note_off_c, 12, 87, 56
13, 348358, Note_on_c, 12, 54, 113
13, 348359, Note_on_c, 12, 87, 113
13, 348361, Note_on_c, 12, 60, 113
13, 348403, Note_off_c, 12, 54, 56
13, 348404, Note_off_c, 12, 87, 56
13, 348406, Note_off_c, 12, 60, 56
13, 348418, Note_on_c, 12, 54, 113
13, 348419, Note_on_c, 12, 87, 113
13, 348419, Note_on_c, 12, 60, 113
13, 348463, Note_off_c, 12, 54, 56
13, 348464, Note_off_c, 12, 60, 56
13, 348464, Note_off_c, 12, 87, 56
13, 348479, Note_on_c, 12, 60, 113
13, 348480, Note_on_c, 12, 54, 113
13, 348482, Note_on_c, 12, 87, 113
13, 348524, Note_off_c, 12, 60, 56
13, 348525, Note_off_c, 12, 54, 56
13, 348527, Note_off_c, 12, 87, 56
13, 348538, Note_on_c, 12, 87, 113
13, 348539, Note_on_c, 12, 54, 113
13, 348540, Note_on_c, 12, 60, 113
13, 348583, Note_off_c, 12, 87, 56
13, 348584, Note_off_c, 12, 54, 56
13, 348585, Note_off_c, 12, 60, 56
13, 348598, Note_on_c, 12, 60, 113
13, 348600, Note_on_c, 12, 87, 113
13, 348602, Note_on_c, 12, 54, 113
13, 348643, Note_off_c, 12, 60, 56
13, 348645, Note_off_c, 12, 87, 56
13, 348647, Note_off_c, 12, 54, 56
13, 348659, Note_on_c, 12, 54, 113
13, 348660, Note_on_c, 12, 60, 113
13, 348661, Note_on_c, 12, 87, 113
13, 348704, Note_off_c, 12, 54, 56
13, 348705, Note_off_c, 12, 60, 56
13, 348706, Note_off_c, 12, 87, 56
13, 348720, Note_on_c, 12, 54, 113
13, 348720, Note_on_c, 12, 60, 113
13, 348722, Note_on_c, 12, 87, 113
13, 348765, Note_off_c, 12, 60, 56
13, 348765, Note_off_c, 12, 54, 56
13, 348767, Note_off_c, 12, 87, 56
13, 348778, Note_on_c, 12, 60, 113
13, 348779, Note_on_c, 12, 87, 113
13, 348781, Note_on_c, 12, 54, 113
13, 348823, Note_off_c, 12, 60, 56
13, 348824, Note_off_c, 12, 87, 56
13, 348826, Note_off_c, 12, 54, 56
13, 348840, Note_on_c, 12, 87, 113
13, 348841, Note_on_c, 12, 60, 113
13, 348841, Note_on_c, 12, 54, 113
13, 348885, Note_off_c, 12, 87, 56
13, 348886, Note_off_c, 12, 54, 56
13, 348886, Note_off_c, 12, 60, 56
13, 348898, Note_on_c, 12, 87, 113
13, 348901, Note_on_c, 12, 60, 113
13, 348902, Note_on_c, 12, 54, 113
13, 348943, Note_off_c, 12, 87, 56
13, 348946, Note_off_c, 12, 60, 56
13, 348947, Note_off_c, 12, 54, 56
13, 348958, Note_on_c, 12, 87, 113
13, 348961, Note_on_c, 12, 54, 113
13, 348961, Note_on_c, 12, 60, 113
13, 349003, Note_off_c, 12, 87, 56
13, 349006, Note_off_c, 12, 60, 56
13, 349006, Note_off_c, 12, 54, 56
13, 349018, Note_on_c, 12, 54, 113
13, 349019, Note_on_c, 12, 87, 113
13, 349022, Note_on_c, 12, 60, 113
13, 349063, Note_off_c, 12, 54, 56
13, 349064, Note_off_c, 12, 87, 56
13, 349067, Note_off_c, 12, 60, 56
13, 349081, Note_on_c, 12, 87, 113
13, 349081, Note_on_c, 12, 60, 113
13, 349082, Note_on_c, 12, 54, 113
13, 349126, Note_off_c, 12, 60, 56
13, 349126, Note_off_c, 12, 87, 56
13, 349127, Note_off_c, 12, 54, 56
13, 349139, Note_on_c, 12, 87, 113
13, 349141, Note_on_c, 12, 60, 113
13, 349142, Note_on_c, 12, 54, 113
13, 349184, Note_off_c, 12, 87, 56
13, 349186, Note_off_c, 12, 60, 56
13, 349187, Note_off_c, 12, 54, 56
13, 349199, Note_on_c, 12, 87, 113
13, 349200, Note_on_c, 12, 60, 113
13, 349201, Note_on_c, 12, 54, 113
13, 349244, Note_off_c, 12, 87, 56
13, 349245, Note_off_c, 12, 60, 56
13, 349246, Note_off_c, 12, 54, 56
13, 349259, Note_on_c, 12, 60, 113
13, 349261, Note_on_c, 12, 87, 113
13, 349261, Note_on_c, 12, 54, 113
13, 349304, Note_off_c, 12, 60, 56
13, 349306, Note_off_c, 12, 54, 56
13, 349306, Note_off_c, 12, 87, 56
13, 349318, Note_on_c, 12, 87, 113
13, 349319, Note_on_c, 12, 54, 113
13, 349320, Note_on_c, 12, 60, 113
13, 349363, Note_off_c, 12, 87, 56
13, 349364, Note_off_c, 12, 54, 56
13, 349365, Note_off_c, 12, 60, 56
13, 349378, Note_on_c, 12, 87, 113
13, 349380, Note_on_c, 12, 60, 113
13, 349381, Note_on_c, 12, 54, 113
13, 349423, Note_off_c, 12, 87, 56
13, 349425, Note_off_c, 12, 60, 56
13, 349426, Note_off_c, 12, 54, 56
13, 349439, Note_on_c, 12, 87, 113
13, 349441, Note_on_c, 12, 54, 113
13, 349442, Note_on_c, 12, 60, 113
13, 349484, Note_off_c, 12, 87, 56
13, 349486, Note_off_c, 12, 54, 56
13, 349487, Note_off_c, 12, 60, 56
13, 349499, Note_on_c, 12, 54, 113
13, 349501, Note_on_c, 12, 87, 113
13, 349501, Note_on_c, 12, 60, 113
13, 349544, Note_off_c, 12, 54, 56
13, 349546, Note_off_c, 12, 60, 56
13, 349546, Note_off_c, 12, 87, 56
13, 349560, Note_on_c, 12, 60, 113
13, 349561, Note_on_c, 12, 87, 113
13, 349561, Note_on_c, 12, 54, 113
13, 349605, Note_off_c, 12, 60, 56
13, 349606, Note_off_c, 12, 54, 56
13, 349606, Note_off_c, 12, 87, 56
13, 349618, Note_on_c, 12, 54, 113
13, 349619, Note_on_c, 12, 87, 113
13, 349622, Note_on_c, 12, 60, 113
13, 349663, Note_off_c, 12, 54, 56
13, 349664, Note_off_c, 12, 87, 56
13, 349667, Note_off_c, 12, 60, 56
13, 349679, Note_on_c, 12, 87, 113
13, 349679, Note_on_c, 12, 60, 113
13, 349682, Note_on_c, 12, 54, 113
13, 349724, Note_off_c, 12, 60, 56
13, 349724, Note_off_c, 12, 87, 56
13, 349727, Note_off_c, 12, 54, 56
13, 349738, Note_on_c, 12, 87, 113
13, 349738, Note_on_c, 12, 60, 113
13, 349742, Note_on_c, 12, 54, 113
13, 349783, Note_off_c, 12, 60, 56
13, 349783, Note_off_c, 12, 87, 56
13, 349787, Note_off_c, 12, 54, 56
13, 349799, Note_on_c, 12, 87, 113
13, 349800, Note_on_c, 12, 60, 113
13, 349801, Note_on_c, 12, 54, 113
13, 349821, Note_off_c, 12, 30, 64
13, 349844, Note_off_c, 12, 87, 56
13, 349845, Note_off_c, 12, 60, 56
13, 349846, Note_off_c, 12, 54, 56
13, 349859, Note_on_c, 12, 54, 113
13, 349860, Note_on_c, 12, 87, 113
13, 349860, Note_on_c, 12, 60, 113
13, 349904, Note_off_c, 12, 54, 56
13, 349905, Note_off_c, 12, 60, 56
13, 349905, Note_off_c, 12, 87, 56
13, 349920, Note_on_c, 12, 31, 96
13, 349921, Note_on_c, 12, 88, 108
13, 349921, Note_on_c, 12, 55, 96
13, 350569, Note_off_c, 12, 55, 64
13, 350569, Note_off_c, 12, 88, 64
13, 350638, Note_on_c, 12, 79, 108
13, 350710, Note_off_c, 12, 79, 56
13, 350713, Note_on_c, 12, 77, 108
13, 350785, Note_off_c, 12, 77, 56
13, 350788, Note_on_c, 12, 76, 108
13, 350860, Note_off_c, 12, 76, 56
13, 350882, Note_on_c, 12, 74, 108
13, 351098, Note_off_c, 12, 74, 64
13, 351120, Note_on_c, 12, 77, 108
13, 351122, Note_on_c, 12, 62, 96
13, 351192, Note_off_c, 12, 77, 56
13, 351194, Note_off_c, 12, 62, 56
13, 351196, Note_on_c, 12, 76, 108
13, 351196, Note_on_c, 12, 64, 96
13, 351268, Note_off_c, 12, 64, 56
13, 351268, Note_off_c, 12, 76, 56
13, 351283, Note_on_c, 12, 74, 108
13, 351284, Note_on_c, 12, 65, 96
13, 351355, Note_off_c, 12, 74, 56
13, 351356, Note_off_c, 12, 65, 56
13, 351361, Note_on_c, 12, 72, 108
13, 351577, Note_off_c, 12, 72, 64
13, 351601, Note_on_c, 12, 76, 108
13, 351601, Note_on_c, 12, 60, 96
13, 351673, Note_off_c, 12, 60, 56
13, 351673, Note_off_c, 12, 76, 56
13, 351675, Note_on_c, 12, 74, 108
13, 351677, Note_on_c, 12, 62, 96
13, 351744, Note_off_c, 12, 31, 64
13, 351747, Note_off_c, 12, 74, 56
13, 351749, Note_off_c, 12, 62, 56
13, 351749, Note_on_c, 12, 64, 96
13, 351764, Note_on_c, 12, 72, 108
13, 351821, Note_off_c, 12, 64, 56
13, 351836, Note_off_c, 12, 72, 56
13, 351838, Note_on_c, 12, 71, 108
13, 351840, Note_on_c, 12, 31, 96
13, 351974, Note_off_c, 12, 71, 64
13, 352079, Note_on_c, 12, 71, 108
13, 352082, Note_on_c, 12, 59, 96
13, 352151, Note_off_c, 12, 71, 56
13, 352154, Note_off_c, 12, 59, 56
13, 352157, Note_on_c, 12, 72, 108
13, 352157, Note_on_c, 12, 60, 96
13, 352229, Note_off_c, 12, 60, 56
13, 352229, Note_off_c, 12, 72, 56
13, 352231, Note_on_c, 12, 62, 96
13, 352245, Note_on_c, 12, 74, 108
13, 352303, Note_off_c, 12, 62, 56
13, 352317, Note_off_c, 12, 74, 56
13, 352322, Note_on_c, 12, 67, 108
13, 352458, Note_off_c, 12, 67, 64
13, 352562, Note_on_c, 12, 81, 108
13, 352634, Note_off_c, 12, 81, 56
13, 352635, Note_on_c, 12, 79, 108
13, 352707, Note_off_c, 12, 79, 56
13, 352710, Note_on_c, 12, 77, 108
13, 352782, Note_off_c, 12, 77, 56
13, 352800, Note_on_c, 12, 76, 108
13, 353016, Note_off_c, 12, 76, 64
13, 353040, Note_on_c, 12, 79, 108
13, 353040, Note_on_c, 12, 64, 96
13, 353112, Note_off_c, 12, 64, 56
13, 353112, Note_off_c, 12, 79, 56
13, 353113, Note_on_c, 12, 65, 96
13, 353117, Note_on_c, 12, 77, 108
13, 353185, Note_off_c, 12, 65, 56
13, 353189, Note_off_c, 12, 77, 56
13, 353204, Note_on_c, 12, 76, 108
13, 353206, Note_on_c, 12, 67, 96
13, 353276, Note_off_c, 12, 76, 56
13, 353278, Note_off_c, 12, 67, 56
13, 353279, Note_on_c, 12, 74, 108
13, 353495, Note_off_c, 12, 74, 64
13, 353520, Note_on_c, 12, 77, 108
13, 353520, Note_on_c, 12, 62, 96
13, 353592, Note_off_c, 12, 62, 56
13, 353592, Note_off_c, 12, 77, 56
13, 353595, Note_on_c, 12, 64, 96
13, 353597, Note_on_c, 12, 76, 108
13, 353664, Note_off_c, 12, 31, 64
13, 353667, Note_off_c, 12, 64, 56
13, 353669, Note_off_c, 12, 76, 56
13, 353671, Note_on_c, 12, 74, 108
13, 353686, Note_on_c, 12, 65, 96
13, 353743, Note_off_c, 12, 74, 56
13, 353758, Note_off_c, 12, 65, 56
13, 353762, Note_on_c, 12, 72, 108
13, 353763, Note_on_c, 12, 31, 96
13, 353898, Note_off_c, 12, 72, 64
13, 354001, Note_on_c, 12, 72, 108
13, 354002, Note_on_c, 12, 60, 96
13, 354073, Note_off_c, 12, 72, 56
13, 354074, Note_off_c, 12, 60, 56
13, 354074, Note_on_c, 12, 62, 96
13, 354076, Note_on_c, 12, 74, 108
13, 354146, Note_off_c, 12, 62, 56
13, 354148, Note_off_c, 12, 74, 56
13, 354149, Note_on_c, 12, 76, 108
13, 354166, Note_on_c, 12, 64, 96
13, 354221, Note_off_c, 12, 76, 56
13, 354238, Note_off_c, 12, 64, 56
13, 354240, Note_on_c, 12, 67, 108
13, 354376, Note_off_c, 12, 67, 64
13, 354478, Note_on_c, 12, 67, 96
13, 354481, Note_on_c, 12, 72, 108
13, 354550, Note_off_c, 12, 67, 56
13, 354555, Note_on_c, 12, 65, 96
13, 354627, Note_off_c, 12, 65, 56
13, 354628, Note_on_c, 12, 64, 96
13, 354686, Note_off_c, 12, 72, 64
13, 354700, Note_off_c, 12, 64, 56
13, 354719, Note_on_c, 12, 71, 108
13, 354720, Note_on_c, 12, 62, 96
13, 354936, Note_off_c, 12, 62, 64
13, 354960, Note_on_c, 12, 65, 96
13, 355032, Note_off_c, 12, 65, 56
13, 355036, Note_on_c, 12, 64, 96
13, 355108, Note_off_c, 12, 64, 56
13, 355125, Note_on_c, 12, 62, 96
13, 355151, Note_off_c, 12, 71, 64
13, 355197, Note_off_c, 12, 62, 56
13, 355198, Note_on_c, 12, 72, 108
13, 355202, Note_on_c, 12, 60, 96
13, 355418, Note_off_c, 12, 60, 64
13, 355439, Note_on_c, 12, 64, 96
13, 355511, Note_off_c, 12, 64, 56
13, 355517, Note_on_c, 12, 62, 96
13, 355587, Note_off_c, 12, 31, 64
13, 355589, Note_off_c, 12, 62, 56
13, 355605, Note_on_c, 12, 60, 96
13, 355630, Note_off_c, 12, 72, 64
13, 355677, Note_off_c, 12, 60, 56
13, 355678, Note_on_c, 12, 74, 108
13, 355680, Note_on_c, 12, 59, 96
13, 355682, Note_on_c, 12, 31, 96
13, 355816, Note_off_c, 12, 59, 64
13, 355919, Note_on_c, 12, 59, 96
13, 355991, Note_off_c, 12, 59, 56
13, 355994, Note_on_c, 12, 60, 96
13, 356066, Note_off_c, 12, 60, 56
13, 356069, Note_on_c, 12, 62, 96
13, 356141, Note_off_c, 12, 62, 56
13, 356158, Note_on_c, 12, 55, 96
13, 356294, Note_off_c, 12, 55, 64
13, 356326, Note_off_c, 12, 74, 64
13, 356398, Note_on_c, 12, 69, 96
13, 356402, Note_on_c, 12, 74, 108
13, 356470, Note_off_c, 12, 69, 56
13, 356474, Note_on_c, 12, 67, 96
13, 356546, Note_off_c, 12, 67, 56
13, 356567, Note_on_c, 12, 65, 96
13, 356607, Note_off_c, 12, 74, 64
13, 356639, Note_off_c, 12, 65, 56
13, 356639, Note_on_c, 12, 64, 96
13, 356640, Note_on_c, 12, 72, 108
13, 356855, Note_off_c, 12, 64, 64
13, 356880, Note_on_c, 12, 67, 96
13, 356952, Note_off_c, 12, 67, 56
13, 356954, Note_on_c, 12, 65, 96
13, 357026, Note_off_c, 12, 65, 56
13, 357046, Note_on_c, 12, 64, 96
13, 357074, Note_off_c, 12, 72, 64
13, 357118, Note_off_c, 12, 64, 56
13, 357119, Note_on_c, 12, 62, 96
13, 357122, Note_on_c, 12, 74, 108
13, 357335, Note_off_c, 12, 62, 64
13, 357360, Note_on_c, 12, 65, 96
13, 357432, Note_off_c, 12, 65, 56
13, 357436, Note_on_c, 12, 64, 96
13, 357506, Note_off_c, 12, 31, 64
13, 357508, Note_off_c, 12, 64, 56
13, 357526, Note_on_c, 12, 62, 96
13, 357554, Note_off_c, 12, 74, 64
13, 357598, Note_off_c, 12, 62, 56
13, 357599, Note_on_c, 12, 31, 96
13, 357600, Note_on_c, 12, 36, 99
13, 357602, Note_on_c, 12, 76, 108
13, 357602, Note_on_c, 12, 60, 96
13, 357654, Note_off_c, 12, 36, 56
13, 357681, Note_on_c, 12, 48, 99
13, 357735, Note_off_c, 12, 48, 56
13, 357738, Note_off_c, 12, 60, 64
13, 357761, Note_on_c, 12, 48, 100
13, 357815, Note_off_c, 12, 48, 56
13, 357838, Note_on_c, 12, 60, 96
13, 357910, Note_off_c, 12, 60, 56
13, 357915, Note_on_c, 12, 62, 96
13, 357987, Note_off_c, 12, 62, 56
13, 358007, Note_on_c, 12, 64, 96
13, 358079, Note_off_c, 12, 64, 56
13, 358082, Note_on_c, 12, 55, 96
13, 358182, Note_off_c, 12, 31, 64
13, 358218, Note_off_c, 12, 55, 64
13, 358250, Note_off_c, 12, 76, 64
13, 358321, Note_on_c, 12, 55, 101
13, 358322, Note_on_c, 12, 79, 113
13, 358381, Note_off_c, 12, 55, 56
13, 358382, Note_off_c, 12, 79, 56
13, 358394, Note_on_c, 12, 77, 113
13, 358394, Note_on_c, 12, 55, 102
13, 358454, Note_off_c, 12, 55, 56
13, 358454, Note_off_c, 12, 77, 56
13, 358468, Note_on_c, 12, 55, 102
13, 358484, Note_on_c, 12, 76, 113
13, 358528, Note_off_c, 12, 55, 56
13, 358544, Note_off_c, 12, 76, 56
13, 358560, Note_on_c, 12, 67, 102
13, 358560, Note_on_c, 12, 55, 102
13, 358561, Note_on_c, 12, 74, 113
13, 358561, Note_on_c, 12, 31, 102
13, 358615, Note_off_c, 12, 31, 56
13, 358620, Note_off_c, 12, 55, 56
13, 358620, Note_off_c, 12, 67, 56
13, 358621, Note_off_c, 12, 74, 56
13, 358633, Note_on_c, 12, 55, 102
13, 358636, Note_on_c, 12, 73, 113
13, 358636, Note_on_c, 12, 67, 102
13, 358641, Note_on_c, 12, 43, 102
13, 358693, Note_off_c, 12, 55, 56
13, 358695, Note_off_c, 12, 43, 56
13, 358696, Note_off_c, 12, 67, 56
13, 358696, Note_off_c, 12, 73, 56
13, 358711, Note_on_c, 12, 67, 103
13, 358712, Note_on_c, 12, 55, 103
13, 358721, Note_on_c, 12, 43, 103
13, 358724, Note_on_c, 12, 74, 113
13, 358771, Note_off_c, 12, 67, 56
13, 358772, Note_off_c, 12, 55, 56
13, 358775, Note_off_c, 12, 43, 56
13, 358784, Note_off_c, 12, 74, 56
13, 358799, Note_on_c, 12, 77, 113
13, 358799, Note_on_c, 12, 67, 103
13, 358801, Note_on_c, 12, 55, 103
13, 358801, Note_on_c, 12, 43, 103
13, 358855, Note_off_c, 12, 43, 56
13, 358859, Note_off_c, 12, 67, 56
13, 358859, Note_off_c, 12, 77, 56
13, 358861, Note_off_c, 12, 55, 56
13, 358873, Note_on_c, 12, 76, 113
13, 358873, Note_on_c, 12, 67, 103
13, 358874, Note_on_c, 12, 55, 103
13, 358880, Note_on_c, 12, 43, 103
13, 358933, Note_off_c, 12, 67, 56
13, 358933, Note_off_c, 12, 76, 56
13, 358934, Note_off_c, 12, 43, 56
13, 358934, Note_off_c, 12, 55, 56
13, 358950, Note_on_c, 12, 74, 113
13, 358960, Note_on_c, 12, 43, 103
13, 358965, Note_on_c, 12, 55, 103
13, 358965, Note_on_c, 12, 67, 103
13, 359010, Note_off_c, 12, 74, 56
13, 359014, Note_off_c, 12, 43, 56
13, 359025, Note_off_c, 12, 67, 56
13, 359025, Note_off_c, 12, 55, 56
13, 359038, Note_on_c, 12, 67, 105
13, 359040, Note_on_c, 12, 76, 113
13, 359041, Note_on_c, 12, 36, 105
13, 359042, Note_on_c, 12, 55, 105
13, 359095, Note_off_c, 12, 36, 56
13, 359098, Note_off_c, 12, 67, 56
13, 359100, Note_off_c, 12, 76, 56
13, 359102, Note_off_c, 12, 55, 56
13, 359114, Note_on_c, 12, 67, 105
13, 359115, Note_on_c, 12, 55, 105
13, 359116, Note_on_c, 12, 74, 113
13, 359119, Note_on_c, 12, 48, 105
13, 359173, Note_off_c, 12, 48, 56
13, 359174, Note_off_c, 12, 67, 56
13, 359175, Note_off_c, 12, 55, 56
13, 359176, Note_off_c, 12, 74, 56
13, 359191, Note_on_c, 12, 76, 113
13, 359191, Note_on_c, 12, 55, 105
13, 359200, Note_on_c, 12, 48, 105
13, 359207, Note_on_c, 12, 67, 105
13, 359251, Note_off_c, 12, 55, 56
13, 359251, Note_off_c, 12, 76, 56
13, 359254, Note_off_c, 12, 48, 56
13, 359267, Note_off_c, 12, 67, 56
13, 359279, Note_on_c, 12, 67, 105
13, 359280, Note_on_c, 12, 48, 105
13, 359281, Note_on_c, 12, 79, 113
13, 359282, Note_on_c, 12, 55, 105
13, 359334, Note_off_c, 12, 48, 56
13, 359339, Note_off_c, 12, 67, 56
13, 359341, Note_off_c, 12, 79, 56
13, 359342, Note_off_c, 12, 55, 56
13, 359355, Note_on_c, 12, 77, 113
13, 359355, Note_on_c, 12, 55, 106
13, 359356, Note_on_c, 12, 67, 106
13, 359361, Note_on_c, 12, 48, 106
13, 359415, Note_off_c, 12, 48, 56
13, 359415, Note_off_c, 12, 55, 56
13, 359415, Note_off_c, 12, 77, 56
13, 359416, Note_off_c, 12, 67, 56
13, 359428, Note_on_c, 12, 76, 113
13, 359429, Note_on_c, 12, 55, 106
13, 359439, Note_on_c, 12, 48, 106
13, 359445, Note_on_c, 12, 67, 106
13, 359488, Note_off_c, 12, 76, 56
13, 359489, Note_off_c, 12, 55, 56
13, 359493, Note_off_c, 12, 48, 56
13, 359505, Note_off_c, 12, 67, 56
13, 359518, Note_on_c, 12, 55, 106
13, 359520, Note_on_c, 12, 77, 113
13, 359521, Note_on_c, 12, 38, 106
13, 359522, Note_on_c, 12, 67, 106
13, 359575, Note_off_c, 12, 38, 56
13, 359578, Note_off_c, 12, 55, 56
13, 359580, Note_off_c, 12, 77, 56
13, 359582, Note_off_c, 12, 67, 56
13, 359594, Note_on_c, 12, 55, 106
13, 359595, Note_on_c, 12, 67, 106
13, 359596, Note_on_c, 12, 76, 113
13, 359599, Note_on_c, 12, 50, 106
13, 359653, Note_off_c, 12, 50, 56
13, 359654, Note_off_c, 12, 55, 56
13, 359655, Note_off_c, 12, 67, 56
13, 359656, Note_off_c, 12, 76, 56
13, 359679, Note_on_c, 12, 50, 107
13, 359683, Note_on_c, 12, 67, 107
13, 359685, Note_on_c, 12, 77, 113
13, 359686, Note_on_c, 12, 55, 107
13, 359733, Note_off_c, 12, 50, 56
13, 359743, Note_off_c, 12, 67, 56
13, 359745, Note_off_c, 12, 77, 56
13, 359746, Note_off_c, 12, 55, 56
13, 359759, Note_on_c, 12, 81, 113
13, 359759, Note_on_c, 12, 67, 107
13, 359760, Note_on_c, 12, 50, 107
13, 359761, Note_on_c, 12, 55, 107
13, 359814, Note_off_c, 12, 50, 56
13, 359819, Note_off_c, 12, 67, 56
13, 359819, Note_off_c, 12, 81, 56
13, 359821, Note_off_c, 12, 55, 56
13, 359833, Note_on_c, 12, 55, 107
13, 359833, Note_on_c, 12, 67, 107
13, 359833, Note_on_c, 12, 79, 113
13, 359841, Note_on_c, 12, 50, 107
13, 359893, Note_off_c, 12, 79, 56
13, 359893, Note_off_c, 12, 67, 56
13, 359893, Note_off_c, 12, 55, 56
13, 359895, Note_off_c, 12, 50, 56
13, 359911, Note_on_c, 12, 55, 107
13, 359921, Note_on_c, 12, 50, 107
13, 359925, Note_on_c, 12, 67, 107
13, 359927, Note_on_c, 12, 77, 113
13, 359971, Note_off_c, 12, 55, 56
13, 359975, Note_off_c, 12, 50, 56
13, 359985, Note_off_c, 12, 67, 56
13, 359987, Note_off_c, 12, 77, 56
13, 359999, Note_on_c, 12, 67, 108
13, 360000, Note_on_c, 12, 77, 113
13, 360000, Note_on_c, 12, 50, 108
13, 360001, Note_on_c, 12, 55, 108
13, 360054, Note_off_c, 12, 50, 56
13, 360059, Note_off_c, 12, 67, 56
13, 360060, Note_off_c, 12, 77, 56
13, 360061, Note_off_c, 12, 55, 56
13, 360074, Note_on_c, 12, 76, 113
13, 360075, Note_on_c, 12, 55, 108
13, 360076, Note_on_c, 12, 67, 108
13, 360080, Note_on_c, 12, 50, 108
13, 360134, Note_off_c, 12, 50, 56
13, 360134, Note_off_c, 12, 76, 56
13, 360135, Note_off_c, 12, 55, 56
13, 360136, Note_off_c, 12, 67, 56
13, 360148, Note_on_c, 12, 55, 108
13, 360150, Note_on_c, 12, 77, 113
13, 360161, Note_on_c, 12, 50, 108
13, 360166, Note_on_c, 12, 67, 108
13, 360208, Note_off_c, 12, 55, 56
13, 360210, Note_off_c, 12, 77, 56
13, 360215, Note_off_c, 12, 50, 56
13, 360226, Note_off_c, 12, 67, 56
13, 360239, Note_on_c, 12, 81, 113
13, 360239, Note_on_c, 12, 67, 108
13, 360239, Note_on_c, 12, 55, 108
13, 360240, Note_on_c, 12, 50, 108
13, 360294, Note_off_c, 12, 50, 56
13, 360299, Note_off_c, 12, 55, 56
13, 360299, Note_off_c, 12, 67, 56
13, 360299, Note_off_c, 12, 81, 56
13, 360314, Note_on_c, 12, 79, 113
13, 360315, Note_on_c, 12, 67, 109
13, 360317, Note_on_c, 12, 55, 109
13, 360321, Note_on_c, 12, 50, 109
13, 360374, Note_off_c, 12, 79, 56
13, 360375, Note_off_c, 12, 50, 56
13, 360375, Note_off_c, 12, 67, 56
13, 360377, Note_off_c, 12, 55, 56
13, 360392, Note_on_c, 12, 67, 109
13, 360400, Note_on_c, 12, 50, 109
13, 360405, Note_on_c, 12, 77, 113
13, 360405, Note_on_c, 12, 55, 109
13, 360452, Note_off_c, 12, 67, 56
13, 360454, Note_off_c, 12, 50, 56
13, 360465, Note_off_c, 12, 55, 56
13, 360465, Note_off_c, 12, 77, 56
13, 360480, Note_on_c, 12, 55, 109
13, 360480, Note_on_c, 12, 37, 109
13, 360481, Note_on_c, 12, 67, 109
13, 360481, Note_on_c, 12, 76, 113
13, 360534, Note_off_c, 12, 37, 56
13, 360540, Note_off_c, 12, 55, 56
13, 360541, Note_off_c, 12, 76, 56
13, 360541, Note_off_c, 12, 67, 56
13, 360553, Note_on_c, 12, 74, 113
13, 360554, Note_on_c, 12, 67, 109
13, 360555, Note_on_c, 12, 55, 109
13, 360559, Note_on_c, 12, 49, 109
13, 360613, Note_off_c, 12, 49, 56
13, 360613, Note_off_c, 12, 74, 56
13, 360614, Note_off_c, 12, 67, 56
13, 360615, Note_off_c, 12, 55, 56
13, 360630, Note_on_c, 12, 55, 110
13, 360632, Note_on_c, 12, 76, 113
13, 360632, Note_on_c, 12, 67, 110
13, 360641, Note_on_c, 12, 49, 110
13, 360690, Note_off_c, 12, 55, 56
13, 360692, Note_off_c, 12, 67, 56
13, 360692, Note_off_c, 12, 76, 56
13, 360695, Note_off_c, 12, 49, 56
13, 360719, Note_on_c, 12, 79, 113
13, 360719, Note_on_c, 12, 55, 110
13, 360721, Note_on_c, 12, 67, 110
13, 360721, Note_on_c, 12, 49, 110
13, 360775, Note_off_c, 12, 49, 56
13, 360779, Note_off_c, 12, 55, 56
13, 360779, Note_off_c, 12, 79, 56
13, 360781, Note_off_c, 12, 67, 56
13, 360793, Note_on_c, 12, 55, 110
13, 360794, Note_on_c, 12, 67, 110
13, 360795, Note_on_c, 12, 77, 113
13, 360799, Note_on_c, 12, 49, 110
13, 360853, Note_off_c, 12, 49, 56
13, 360853, Note_off_c, 12, 55, 56
13, 360854, Note_off_c, 12, 67, 56
13, 360855, Note_off_c, 12, 77, 56
13, 360871, Note_on_c, 12, 55, 110
13, 360872, Note_on_c, 12, 76, 113
13, 360880, Note_on_c, 12, 49, 110
13, 360883, Note_on_c, 12, 67, 110
13, 360931, Note_off_c, 12, 55, 56
13, 360932, Note_off_c, 12, 76, 56
13, 360934, Note_off_c, 12, 49, 56
13, 360943, Note_off_c, 12, 67, 56
13, 360959, Note_on_c, 12, 67, 111
13, 360959, Note_on_c, 12, 38, 111
13, 360961, Note_on_c, 12, 55, 111
13, 360962, Note_on_c, 12, 77, 113
13, 361013, Note_off_c, 12, 38, 56
13, 361019, Note_off_c, 12, 67, 56
13, 361021, Note_off_c, 12, 55, 56
13, 361022, Note_off_c, 12, 77, 56
13, 361034, Note_on_c, 12, 55, 111
13, 361034, Note_on_c, 12, 67, 111
13, 361037, Note_on_c, 12, 76, 113
13, 361039, Note_on_c, 12, 50, 111
13, 361093, Note_off_c, 12, 50, 56
13, 361094, Note_off_c, 12, 67, 56
13, 361094, Note_off_c, 12, 55, 56
13, 361097, Note_off_c, 12, 76, 56
13, 361108, Note_on_c, 12, 67, 111
13, 361110, Note_on_c, 12, 77, 113
13, 361110, Note_on_c, 12, 55, 111
13, 361120, Note_on_c, 12, 50, 111
13, 361168, Note_off_c, 12, 67, 56
13, 361170, Note_off_c, 12, 55, 56
13, 361170, Note_off_c, 12, 77, 56
13, 361174, Note_off_c, 12, 50, 56
13, 361198, Note_on_c, 12, 81, 113
13, 361200, Note_on_c, 12, 50, 111
13, 361201, Note_on_c, 12, 55, 111
13, 361202, Note_on_c, 12, 67, 111
13, 361254, Note_off_c, 12, 50, 56
13, 361258, Note_off_c, 12, 81, 56
13, 361261, Note_off_c, 12, 55, 56
13, 361262, Note_off_c, 12, 67, 56
13, 361277, Note_on_c, 12, 79, 113
13, 361277, Note_on_c, 12, 67, 113
13, 361277, Note_on_c, 12, 55, 113
13, 361281, Note_on_c, 12, 50, 113
13, 361335, Note_off_c, 12, 50, 56
13, 361337, Note_off_c, 12, 55, 56
13, 361337, Note_off_c, 12, 67, 56
13, 361337, Note_off_c, 12, 79, 56
13, 361348, Note_on_c, 12, 77, 113
13, 361361, Note_on_c, 12, 50, 113
13, 361363, Note_on_c, 12, 55, 113
13, 361365, Note_on_c, 12, 67, 113
13, 361408, Note_off_c, 12, 77, 56
13, 361415, Note_off_c, 12, 50, 56
13, 361423, Note_off_c, 12, 55, 56
13, 361425, Note_off_c, 12, 67, 56
13, 361440, Note_on_c, 12, 40, 113
13, 361442, Note_on_c, 12, 79, 113
13, 361442, Note_on_c, 12, 61, 113
13, 361494, Note_off_c, 12, 40, 56
13, 361502, Note_off_c, 12, 61, 56
13, 361502, Note_off_c, 12, 79, 56
13, 361514, Note_on_c, 12, 61, 113
13, 361517, Note_on_c, 12, 78, 113
13, 361520, Note_on_c, 12, 52, 113
13, 361574, Note_off_c, 12, 52, 56
13, 361574, Note_off_c, 12, 61, 56
13, 361577, Note_off_c, 12, 78, 56
13, 361588, Note_on_c, 12, 79, 113
13, 361590, Note_on_c, 12, 61, 113
13, 361600, Note_on_c, 12, 52, 113
13, 361648, Note_off_c, 12, 79, 56
13, 361650, Note_off_c, 12, 61, 56
13, 361654, Note_off_c, 12, 52, 56
13, 361678, Note_on_c, 12, 61, 113
13, 361679, Note_on_c, 12, 52, 113
13, 361681, Note_on_c, 12, 82, 113
13, 361733, Note_off_c, 12, 52, 56
13, 361738, Note_off_c, 12, 61, 56
13, 361741, Note_off_c, 12, 82, 56
13, 361753, Note_on_c, 12, 81, 113
13, 361753, Note_on_c, 12, 61, 113
13, 361760, Note_on_c, 12, 52, 113
13, 361813, Note_off_c, 12, 61, 56
13, 361813, Note_off_c, 12, 81, 56
13, 361814, Note_off_c, 12, 52, 56
13, 361830, Note_on_c, 12, 79, 113
13, 361841, Note_on_c, 12, 52, 113
13, 361844, Note_on_c, 12, 61, 113
13, 361890, Note_off_c, 12, 79, 56
13, 361895, Note_off_c, 12, 52, 56
13, 361904, Note_off_c, 12, 61, 56
13, 361918, Note_on_c, 12, 79, 113
13, 361920, Note_on_c, 12, 61, 113
13, 361921, Note_on_c, 12, 40, 113
13, 361975, Note_off_c, 12, 40, 56
13, 361978, Note_off_c, 12, 79, 56
13, 361980, Note_off_c, 12, 61, 56
13, 361994, Note_on_c, 12, 78, 113
13, 361995, Note_on_c, 12, 61, 113
13, 362000, Note_on_c, 12, 52, 113
13, 362054, Note_off_c, 12, 52, 56
13, 362054, Note_off_c, 12, 78, 56
13, 362055, Note_off_c, 12, 61, 56
13, 362080, Note_on_c, 12, 52, 113
13, 362084, Note_on_c, 12, 79, 113
13, 362086, Note_on_c, 12, 61, 113
13, 362134, Note_off_c, 12, 52, 56
13, 362144, Note_off_c, 12, 79, 56
13, 362146, Note_off_c, 12, 61, 56
13, 362159, Note_on_c, 12, 82, 113
13, 362159, Note_on_c, 12, 52, 113
13, 362160, Note_on_c, 12, 61, 113
13, 362213, Note_off_c, 12, 52, 56
13, 362219, Note_off_c, 12, 82, 56
13, 362220, Note_off_c, 12, 61, 56
13, 362233, Note_on_c, 12, 81, 113
13, 362234, Note_on_c, 12, 61, 113
13, 362240, Note_on_c, 12, 52, 113
13, 362293, Note_off_c, 12, 81, 56
13, 362294, Note_off_c, 12, 52, 56
13, 362294, Note_off_c, 12, 61, 56
13, 362311, Note_on_c, 12, 61, 113
13, 362321, Note_on_c, 12, 52, 113
13, 362324, Note_on_c, 12, 79, 113
13, 362371, Note_off_c, 12, 61, 56
13, 362375, Note_off_c, 12, 52, 56
13, 362384, Note_off_c, 12, 79, 56
13, 362399, Note_on_c, 12, 79, 113
13, 362399, Note_on_c, 12, 40, 113
13, 362401, Note_on_c, 12, 60, 113
13, 362453, Note_off_c, 12, 40, 56
13, 362459, Note_off_c, 12, 79, 56
13, 362461, Note_off_c, 12, 60, 56
13, 362475, Note_on_c, 12, 60, 113
13, 362476, Note_on_c, 12, 78, 113
13, 362479, Note_on_c, 12, 52, 113
13, 362533, Note_off_c, 12, 52, 56
13, 362535, Note_off_c, 12, 60, 56
13, 362536, Note_off_c, 12, 78, 56
13, 362559, Note_on_c, 12, 52, 113
13, 362563, Note_on_c, 12, 79, 113
13, 362566, Note_on_c, 12, 60, 113
13, 362613, Note_off_c, 12, 52, 56
13, 362623, Note_off_c, 12, 79, 56
13, 362626, Note_off_c, 12, 60, 56
13, 362638, Note_on_c, 12, 82, 113
13, 362639, Note_on_c, 12, 52, 113
13, 362641, Note_on_c, 12, 60, 113
13, 362693, Note_off_c, 12, 52, 56
13, 362698, Note_off_c, 12, 82, 56
13, 362701, Note_off_c, 12, 60, 56
13, 362715, Note_on_c, 12, 60, 113
13, 362716, Note_on_c, 12, 81, 113
13, 362720, Note_on_c, 12, 52, 113
13, 362774, Note_off_c, 12, 52, 56
13, 362775, Note_off_c, 12, 60, 56
13, 362776, Note_off_c, 12, 81, 56
13, 362788, Note_on_c, 12, 60, 113
13, 362791, Note_on_c, 12, 79, 113
13, 362800, Note_on_c, 12, 52, 113
13, 362848, Note_off_c, 12, 60, 56
13, 362851, Note_off_c, 12, 79, 56
13, 362854, Note_off_c, 12, 52, 56
13, 362880, Note_on_c, 12, 60, 113
13, 362880, Note_on_c, 12, 40, 113
13, 362881, Note_on_c, 12, 79, 113
13, 362934, Note_off_c, 12, 40, 56
13, 362940, Note_off_c, 12, 60, 56
13, 362941, Note_off_c, 12, 79, 56
13, 362953, Note_on_c, 12, 78, 113
13, 362957, Note_on_c, 12, 60, 113
13, 362959, Note_on_c, 12, 52, 113
13, 363013, Note_off_c, 12, 52, 56
13, 363013, Note_off_c, 12, 78, 56
13, 363017, Note_off_c, 12, 60, 56
13, 363031, Note_on_c, 12, 79, 113
13, 363039, Note_on_c, 12, 52, 113
13, 363045, Note_on_c, 12, 60, 113
13, 363091, Note_off_c, 12, 79, 56
13, 363093, Note_off_c, 12, 52, 56
13, 363105, Note_off_c, 12, 60, 56
13, 363118, Note_on_c, 12, 60, 113
13, 363121, Note_on_c, 12, 52, 113
13, 363122, Note_on_c, 12, 82, 113
13, 363175, Note_off_c, 12, 52, 56
13, 363178, Note_off_c, 12, 60, 56
13, 363182, Note_off_c, 12, 82, 56
13, 363193, Note_on_c, 12, 60, 113
13, 363194, Note_on_c, 12, 81, 113
13, 363200, Note_on_c, 12, 52, 113
13, 363253, Note_off_c, 12, 60, 56
13, 363254, Note_off_c, 12, 52, 56
13, 363254, Note_off_c, 12, 81, 56
13, 363271, Note_on_c, 12, 60, 113
13, 363279, Note_on_c, 12, 52, 113
13, 363286, Note_on_c, 12, 79, 113
13, 363331, Note_off_c, 12, 60, 56
13, 363333, Note_off_c, 12, 52, 56
13, 363346, Note_off_c, 12, 79, 56
13, 363358, Note_on_c, 12, 81, 113
13, 363360, Note_on_c, 12, 41, 108
13, 363362, Note_on_c, 12, 60, 113
13, 363403, Note_off_c, 12, 81, 56
13, 363407, Note_off_c, 12, 60, 56
13, 363419, Note_on_c, 12, 57, 113
13, 363421, Note_on_c, 12, 69, 113
13, 363441, Note_off_c, 12, 41, 56
13, 363464, Note_off_c, 12, 57, 56
13, 363466, Note_off_c, 12, 69, 56
13, 363480, Note_on_c, 12, 60, 113
13, 363481, Note_on_c, 12, 29, 108
13, 363482, Note_on_c, 12, 81, 113
13, 363525, Note_off_c, 12, 60, 56
13, 363527, Note_off_c, 12, 81, 56
13, 363539, Note_on_c, 12, 81, 113
13, 363540, Note_on_c, 12, 60, 113
13, 363562, Note_off_c, 12, 29, 56
13, 363584, Note_off_c, 12, 81, 56
13, 363585, Note_off_c, 12, 60, 56
13, 363599, Note_on_c, 12, 29, 108
13, 363600, Note_on_c, 12, 81, 113
13, 363600, Note_on_c, 12, 60, 113
13, 363645, Note_off_c, 12, 60, 56
13, 363645, Note_off_c, 12, 81, 56
13, 363659, Note_on_c, 12, 81, 113
13, 363662, Note_on_c, 12, 60, 113
13, 363680, Note_off_c, 12, 29, 56
13, 363704, Note_off_c, 12, 81, 56
13, 363707, Note_off_c, 12, 60, 56
13, 363720, Note_on_c, 12, 60, 113
13, 363721, Note_on_c, 12, 29, 108
13, 363722, Note_on_c, 12, 81, 113
13, 363765, Note_off_c, 12, 60, 56
13, 363767, Note_off_c, 12, 81, 56
13, 363779, Note_on_c, 12, 81, 113
13, 363780, Note_on_c, 12, 60, 113
13, 363802, Note_off_c, 12, 29, 56
13, 363824, Note_off_c, 12, 81, 56
13, 363825, Note_off_c, 12, 60, 56
13, 363840, Note_on_c, 12, 81, 113
13, 363840, Note_on_c, 12, 29, 108
13, 363842, Note_on_c, 12, 60, 113
13, 363885, Note_off_c, 12, 81, 56
13, 363887, Note_off_c, 12, 60, 56
13, 363902, Note_on_c, 12, 81, 113
13, 363902, Note_on_c, 12, 60, 113
13, 363921, Note_off_c, 12, 29, 56
13, 363947, Note_off_c, 12, 60, 56
13, 363947, Note_off_c, 12, 81, 56
13, 363958, Note_on_c, 12, 81, 113
13, 363960, Note_on_c, 12, 60, 113
13, 363961, Note_on_c, 12, 29, 108
13, 364003, Note_off_c, 12, 81, 56
13, 364005, Note_off_c, 12, 60, 56
13, 364019, Note_on_c, 12, 81, 113
13, 364021, Note_on_c, 12, 60, 113
13, 364042, Note_off_c, 12, 29, 56
13, 364064, Note_off_c, 12, 81, 56
13, 364066, Note_off_c, 12, 60, 56
13, 364079, Note_on_c, 12, 81, 113
13, 364079, Note_on_c, 12, 60, 113
13, 364080, Note_on_c, 12, 29, 108
13, 364124, Note_off_c, 12, 60, 56
13, 364124, Note_off_c, 12, 81, 56
13, 364140, Note_on_c, 12, 81, 113
13, 364140, Note_on_c, 12, 60, 113
13, 364161, Note_off_c, 12, 29, 56
13, 364185, Note_off_c, 12, 60, 56
13, 364185, Note_off_c, 12, 81, 56
13, 364198, Note_on_c, 12, 81, 113
13, 364200, Note_on_c, 12, 60, 113
13, 364200, Note_on_c, 12, 29, 108
13, 364243, Note_off_c, 12, 81, 56
13, 364245, Note_off_c, 12, 60, 56
13, 364260, Note_on_c, 12, 81, 113
13, 364261, Note_on_c, 12, 60, 113
13, 364281, Note_off_c, 12, 29, 56
13, 364305, Note_off_c, 12, 81, 56
13, 364306, Note_off_c, 12, 60, 56
13, 364320, Note_on_c, 12, 69, 113
13, 364321, Note_on_c, 12, 29, 108
13, 364322, Note_on_c, 12, 84, 113
13, 364365, Note_off_c, 12, 69, 56
13, 364367, Note_off_c, 12, 84, 56
13, 364379, Note_on_c, 12, 60, 113
13, 364381, Note_on_c, 12, 72, 113
13, 364402, Note_off_c, 12, 29, 56
13, 364424, Note_off_c, 12, 60, 56
13, 364426, Note_off_c, 12, 72, 56
13, 364440, Note_on_c, 12, 84, 113
13, 364441, Note_on_c, 12, 69, 113
13, 364441, Note_on_c, 12, 29, 108
13, 364485, Note_off_c, 12, 84, 56
13, 364486, Note_off_c, 12, 69, 56
13, 364500, Note_on_c, 12, 84, 113
13, 364502, Note_on_c, 12, 69, 113
13, 364522, Note_off_c, 12, 29, 56
13, 364545, Note_off_c, 12, 84, 56
13, 364547, Note_off_c, 12, 69, 56
13, 364560, Note_on_c, 12, 84, 113
13, 364560, Note_on_c, 12, 29, 108
13, 364560, Note_on_c, 12, 69, 113
13, 364605, Note_off_c, 12, 69, 56
13, 364605, Note_off_c, 12, 84, 56
13, 364620, Note_on_c, 12, 84, 113
13, 364620, Note_on_c, 12, 69, 113
13, 364641, Note_off_c, 12, 29, 56
13, 364665, Note_off_c, 12, 69, 56
13, 364665, Note_off_c, 12, 84, 56
13, 364679, Note_on_c, 12, 84, 113
13, 364681, Note_on_c, 12, 29, 108
13, 364682, Note_on_c, 12, 69, 113
13, 364724, Note_off_c, 12, 84, 56
13, 364727, Note_off_c, 12, 69, 56
13, 364741, Note_on_c, 12, 84, 113
13, 364741, Note_on_c, 12, 69, 113
13, 364762, Note_off_c, 12, 29, 56
13, 364786, Note_off_c, 12, 69, 56
13, 364786, Note_off_c, 12, 84, 56
13, 364799, Note_on_c, 12, 69, 113
13, 364799, Note_on_c, 12, 29, 108
13, 364800, Note_on_c, 12, 84, 113
13, 364844, Note_off_c, 12, 69, 56
13, 364845, Note_off_c, 12, 84, 56
13, 364860, Note_on_c, 12, 84, 113
13, 364861, Note_on_c, 12, 69, 113
13, 364880, Note_off_c, 12, 29, 56
13, 364905, Note_off_c, 12, 84, 56
13, 364906, Note_off_c, 12, 69, 56
13, 364918, Note_on_c, 12, 84, 113
13, 364919, Note_on_c, 12, 69, 113
13, 364920, Note_on_c, 12, 29, 108
13, 364963, Note_off_c, 12, 84, 56
13, 364964, Note_off_c, 12, 69, 56
13, 364979, Note_on_c, 12, 84, 113
13, 364982, Note_on_c, 12, 69, 113
13, 365001, Note_off_c, 12, 29, 56
13, 365024, Note_off_c, 12, 84, 56
13, 365027, Note_off_c, 12, 69, 56
13, 365038, Note_on_c, 12, 69, 113
13, 365039, Note_on_c, 12, 29, 108
13, 365040, Note_on_c, 12, 84, 113
13, 365083, Note_off_c, 12, 69, 56
13, 365085, Note_off_c, 12, 84, 56
13, 365101, Note_on_c, 12, 69, 113
13, 365102, Note_on_c, 12, 84, 113
13, 365120, Note_off_c, 12, 29, 56
13, 365146, Note_off_c, 12, 69, 56
13, 365147, Note_off_c, 12, 84, 56
13, 365159, Note_on_c, 12, 69, 113
13, 365160, Note_on_c, 12, 84, 113
13, 365161, Note_on_c, 12, 29, 108
13, 365204, Note_off_c, 12, 69, 56
13, 365205, Note_off_c, 12, 84, 56
13, 365220, Note_on_c, 12, 84, 113
13, 365221, Note_on_c, 12, 69, 113
13, 365242, Note_off_c, 12, 29, 56
13, 365265, Note_off_c, 12, 84, 56
13, 365266, Note_off_c, 12, 69, 56
13, 365280, Note_on_c, 12, 89, 113
13, 365281, Note_on_c, 12, 69, 113
13, 365281, Note_on_c, 12, 29, 108
13, 365325, Note_off_c, 12, 89, 56
13, 365326, Note_off_c, 12, 69, 56
13, 365339, Note_on_c, 12, 72, 113
13, 365342, Note_on_c, 12, 60, 113
13, 365362, Note_off_c, 12, 29, 56
13, 365384, Note_off_c, 12, 72, 56
13, 365387, Note_off_c, 12, 60, 56
13, 365398, Note_on_c, 12, 69, 113
13, 365400, Note_on_c, 12, 89, 113
13, 365400, Note_on_c, 12, 29, 108
13, 365443, Note_off_c, 12, 69, 56
13, 365445, Note_off_c, 12, 89, 56
13, 365459, Note_on_c, 12, 69, 113
13, 365462, Note_on_c, 12, 89, 113
13, 365481, Note_off_c, 12, 29, 56
13, 365504, Note_off_c, 12, 69, 56
13, 365507, Note_off_c, 12, 89, 56
13, 365520, Note_on_c, 12, 29, 108
13, 365522, Note_on_c, 12, 89, 113
13, 365522, Note_on_c, 12, 69, 113
13, 365567, Note_off_c, 12, 69, 56
13, 365567, Note_off_c, 12, 89, 56
13, 365580, Note_on_c, 12, 89, 113
13, 365580, Note_on_c, 12, 69, 113
13, 365601, Note_off_c, 12, 29, 56
13, 365625, Note_off_c, 12, 69, 56
13, 365625, Note_off_c, 12, 89, 56
13, 365638, Note_on_c, 12, 89, 113
13, 365639, Note_on_c, 12, 69, 113
13, 365641, Note_on_c, 12, 29, 108
13, 365683, Note_off_c, 12, 89, 56
13, 365684, Note_off_c, 12, 69, 56
13, 365698, Note_on_c, 12, 89, 113
13, 365700, Note_on_c, 12, 69, 113
13, 365722, Note_off_c, 12, 29, 56
13, 365743, Note_off_c, 12, 89, 56
13, 365745, Note_off_c, 12, 69, 56
13, 365758, Note_on_c, 12, 89, 113
13, 365759, Note_on_c, 12, 69, 113
13, 365759, Note_on_c, 12, 29, 108
13, 365803, Note_off_c, 12, 89, 56
13, 365804, Note_off_c, 12, 69, 56
13, 365818, Note_on_c, 12, 69, 113
13, 365819, Note_on_c, 12, 89, 113
13, 365840, Note_off_c, 12, 29, 56
13, 365863, Note_off_c, 12, 69, 56
13, 365864, Note_off_c, 12, 89, 56
13, 365878, Note_on_c, 12, 69, 113
13, 365879, Note_on_c, 12, 29, 108
13, 365882, Note_on_c, 12, 89, 113
13, 365923, Note_off_c, 12, 69, 56
13, 365927, Note_off_c, 12, 89, 56
13, 365941, Note_on_c, 12, 69, 113
13, 365942, Note_on_c, 12, 89, 113
13, 365960, Note_off_c, 12, 29, 56
13, 365986, Note_off_c, 12, 69, 56
13, 365987, Note_off_c, 12, 89, 56
13, 365998, Note_on_c, 12, 89, 113
13, 365999, Note_on_c, 12, 69, 113
13, 366000, Note_on_c, 12, 29, 108
13, 366043, Note_off_c, 12, 89, 56
13, 366044, Note_off_c, 12, 69, 56
13, 366058, Note_on_c, 12, 69, 113
13, 366062, Note_on_c, 12, 89, 113
13, 366081, Note_off_c, 12, 29, 56
13, 366103, Note_off_c, 12, 69, 56
13, 366107, Note_off_c, 12, 89, 56
13, 366118, Note_on_c, 12, 69, 113
13, 366120, Note_on_c, 12, 89, 113
13, 366121, Note_on_c, 12, 29, 108
13, 366163, Note_off_c, 12, 69, 56
13, 366165, Note_off_c, 12, 89, 56
13, 366181, Note_on_c, 12, 89, 113
13, 366182, Note_on_c, 12, 69, 113
13, 366202, Note_off_c, 12, 29, 56
13, 366226, Note_off_c, 12, 89, 56
13, 366227, Note_off_c, 12, 69, 56
13, 366238, Note_on_c, 12, 72, 113
13, 366238, Note_on_c, 12, 93, 113
13, 366241, Note_on_c, 12, 29, 108
13, 366283, Note_off_c, 12, 93, 56
13, 366283, Note_off_c, 12, 72, 56
13, 366299, Note_on_c, 12, 72, 113
13, 366299, Note_on_c, 12, 69, 113
13, 366322, Note_off_c, 12, 29, 56
13, 366344, Note_off_c, 12, 69, 56
13, 366344, Note_off_c, 12, 72, 56
13, 366359, Note_on_c, 12, 29, 108
13, 366360, Note_on_c, 12, 93, 113
13, 366361, Note_on_c, 12, 72, 113
13, 366405, Note_off_c, 12, 93, 56
13, 366406, Note_off_c, 12, 72, 56
13, 366419, Note_on_c, 12, 72, 113
13, 366420, Note_on_c, 12, 93, 113
13, 366440, Note_off_c, 12, 29, 56
13, 366464, Note_off_c, 12, 72, 56
13, 366465, Note_off_c, 12, 93, 56
13, 366478, Note_on_c, 12, 72, 113
13, 366480, Note_on_c, 12, 93, 113
13, 366481, Note_on_c, 12, 29, 108
13, 366523, Note_off_c, 12, 72, 56
13, 366525, Note_off_c, 12, 93, 56
13, 366540, Note_on_c, 12, 93, 113
13, 366540, Note_on_c, 12, 72, 113
13, 366562, Note_off_c, 12, 29, 56
13, 366585, Note_off_c, 12, 72, 56
13, 366585, Note_off_c, 12, 93, 56
13, 366599, Note_on_c, 12, 72, 113
13, 366600, Note_on_c, 12, 29, 108
13, 366602, Note_on_c, 12, 93, 113
13, 366644, Note_off_c, 12, 72, 56
13, 366647, Note_off_c, 12, 93, 56
13, 366658, Note_on_c, 12, 72, 113
13, 366662, Note_on_c, 12, 93, 113
13, 366681, Note_off_c, 12, 29, 56
13, 366703, Note_off_c, 12, 72, 56
13, 366707, Note_off_c, 12, 93, 56
13, 366718, Note_on_c, 12, 93, 113
13, 366719, Note_on_c, 12, 72, 113
13, 366720, Note_on_c, 12, 29, 108
13, 366763, Note_off_c, 12, 93, 56
13, 366764, Note_off_c, 12, 72, 56
13, 366778, Note_on_c, 12, 93, 113
13, 366778, Note_on_c, 12, 72, 113
13, 366801, Note_off_c, 12, 29, 56
13, 366823, Note_off_c, 12, 72, 56
13, 366823, Note_off_c, 12, 93, 56
13, 366838, Note_on_c, 12, 93, 113
13, 366841, Note_on_c, 12, 72, 113
13, 366841, Note_on_c, 12, 29, 108
13, 366883, Note_off_c, 12, 93, 56
13, 366886, Note_off_c, 12, 72, 56
13, 366901, Note_on_c, 12, 93, 113
13, 366902, Note_on_c, 12, 72, 113
13, 366922, Note_off_c, 12, 29, 56
13, 366946, Note_off_c, 12, 93, 56
13, 366947, Note_off_c, 12, 72, 56
13, 366959, Note_on_c, 12, 93, 113
13, 366961, Note_on_c, 12, 72, 113
13, 366961, Note_on_c, 12, 29, 108
13, 367004, Note_off_c, 12, 93, 56
13, 367006, Note_off_c, 12, 72, 56
13, 367020, Note_on_c, 12, 93, 113
13, 367021, Note_on_c, 12, 72, 113
13, 367042, Note_off_c, 12, 29, 56
13, 367065, Note_off_c, 12, 93, 56
13, 367066, Note_off_c, 12, 72, 56
13, 367079, Note_on_c, 12, 72, 113
13, 367080, Note_on_c, 12, 93, 113
13, 367080, Note_on_c, 12, 29, 108
13, 367124, Note_off_c, 12, 72, 56
13, 367125, Note_off_c, 12, 93, 56
13, 367140, Note_on_c, 12, 72, 113
13, 367142, Note_on_c, 12, 93, 113
13, 367161, Note_off_c, 12, 29, 56
13, 367185, Note_off_c, 12, 72, 56
13, 367187, Note_off_c, 12, 93, 56
13, 367199, Note_on_c, 12, 91, 108
13, 367199, Note_on_c, 12, 31, 108
13, 367200, Note_on_c, 12, 71, 108
13, 367321, Note_off_c, 12, 31, 64
13, 367335, Note_off_c, 12, 91, 64
13, 367336, Note_off_c, 12, 71, 64
13, 368158, Note_on_c, 12, 62, 108
13, 368158, Note_on_c, 12, 71, 108
13, 368158, Note_on_c, 12, 55, 108
13, 368161, Note_on_c, 12, 79, 108
13, 368162, Note_on_c, 12, 31, 108
13, 368284, Note_off_c, 12, 31, 64
13, 368294, Note_off_c, 12, 71, 64
13, 368297, Note_off_c, 12, 79, 64
13, 368363, Note_off_c, 12, 55, 64
13, 368363, Note_off_c, 12, 62, 64
13, 369118, Note_on_c, 12, 72, 108
13, 369119, Note_on_c, 12, 55, 108
13, 369119, Note_on_c, 12, 76, 108
13, 369119, Note_on_c, 12, 36, 108
13, 369120, Note_on_c, 12, 64, 108
13, 369121, Note_on_c, 12, 48, 108
13, 369241, Note_off_c, 12, 36, 64
13, 369254, Note_off_c, 12, 72, 64
13, 369255, Note_off_c, 12, 76, 64
13, 369257, Note_off_c, 12, 48, 64
13, 369324, Note_off_c, 12, 55, 64
13, 369325, Note_off_c, 12, 64, 64
13, 370078, Note_on_c, 12, 55, 108
13, 370079, Note_on_c, 12, 71, 108
13, 370080, Note_on_c, 12, 79, 108
13, 370080, Note_on_c, 12, 62, 108
13, 370081, Note_on_c, 12, 31, 108
13, 370203, Note_off_c, 12, 31, 64
13, 370215, Note_off_c, 12, 71, 64
13, 370216, Note_off_c, 12, 79, 64
13, 370283, Note_off_c, 12, 55, 64
13, 370285, Note_off_c, 12, 62, 64
13, 371038, Note_on_c, 12, 55, 108
13, 371038, Note_on_c, 12, 72, 108
13, 371040, Note_on_c, 12, 64, 108
13, 371040, Note_on_c, 12, 48, 108
13, 371041, Note_on_c, 12, 76, 108
13, 371042, Note_on_c, 12, 36, 108
13, 371164, Note_off_c, 12, 36, 64
13, 371174, Note_off_c, 12, 72, 64
13, 371176, Note_off_c, 12, 48, 64
13, 371177, Note_off_c, 12, 76, 64
13, 371243, Note_off_c, 12, 55, 64
13, 371245, Note_off_c, 12, 64, 64
13, 371998, Note_on_c, 12, 79, 108
13, 371999, Note_on_c, 12, 55, 108
13, 372000, Note_on_c, 12, 31, 108
13, 372002, Note_on_c, 12, 71, 108
13, 372002, Note_on_c, 12, 62, 108
13, 372122, Note_off_c, 12, 31, 64
13, 372134, Note_off_c, 12, 79, 64
13, 372138, Note_off_c, 12, 71, 64
13, 372204, Note_off_c, 12, 55, 64
13, 372207, Note_off_c, 12, 62, 64
13, 376798, Note_on_c, 12, 65, 73
13, 376906, Note_off_c, 12, 65, 56
13, 376919, Note_on_c, 12, 67, 74
13, 377027, Note_off_c, 12, 67, 56
13, 377038, Note_on_c, 12, 65, 74
13, 377040, Note_on_c, 12, 71, 78
13, 377067, Note_off_c, 12, 71, 56
13, 377070, Note_on_c, 12, 72, 79
13, 377097, Note_off_c, 12, 72, 56
13, 377101, Note_on_c, 12, 74, 74
13, 377146, Note_off_c, 12, 65, 56
13, 377161, Note_on_c, 12, 67, 74
13, 377263, Note_off_c, 12, 74, 64
13, 377269, Note_off_c, 12, 67, 56
13, 377279, Note_on_c, 12, 65, 75
13, 377387, Note_off_c, 12, 65, 56
13, 377399, Note_on_c, 12, 67, 75
13, 377507, Note_off_c, 12, 67, 56
13, 377520, Note_on_c, 12, 71, 80
13, 377522, Note_on_c, 12, 65, 75
13, 377547, Note_off_c, 12, 71, 56
13, 377550, Note_on_c, 12, 72, 80
13, 377577, Note_off_c, 12, 72, 56
13, 377581, Note_on_c, 12, 74, 75
13, 377630, Note_off_c, 12, 65, 56
13, 377641, Note_on_c, 12, 67, 77
13, 377743, Note_off_c, 12, 74, 64
13, 377749, Note_off_c, 12, 67, 56
13, 377760, Note_on_c, 12, 64, 77
13, 377868, Note_off_c, 12, 64, 56
13, 377879, Note_on_c, 12, 67, 78
13, 377987, Note_off_c, 12, 67, 56
13, 377999, Note_on_c, 12, 72, 83
13, 377999, Note_on_c, 12, 64, 78
13, 378026, Note_off_c, 12, 72, 56
13, 378032, Note_on_c, 12, 74, 83
13, 378059, Note_off_c, 12, 74, 56
13, 378060, Note_on_c, 12, 76, 78
13, 378107, Note_off_c, 12, 64, 56
13, 378121, Note_on_c, 12, 67, 78
13, 378222, Note_off_c, 12, 76, 64
13, 378229, Note_off_c, 12, 67, 56
13, 378239, Note_on_c, 12, 64, 79
13, 378347, Note_off_c, 12, 64, 56
13, 378361, Note_on_c, 12, 67, 79
13, 378469, Note_off_c, 12, 67, 56
13, 378480, Note_on_c, 12, 72, 84
13, 378481, Note_on_c, 12, 64, 79
13, 378507, Note_off_c, 12, 72, 56
13, 378510, Note_on_c, 12, 74, 84
13, 378537, Note_off_c, 12, 74, 56
13, 378539, Note_on_c, 12, 76, 79
13, 378589, Note_off_c, 12, 64, 56
13, 378599, Note_on_c, 12, 67, 80
13, 378701, Note_off_c, 12, 76, 64
13, 378707, Note_off_c, 12, 67, 56
13, 378722, Note_on_c, 12, 65, 80
13, 378830, Note_off_c, 12, 65, 56
13, 378840, Note_on_c, 12, 67, 81
13, 378948, Note_off_c, 12, 67, 56
13, 378958, Note_on_c, 12, 71, 86
13, 378960, Note_on_c, 12, 65, 81
13, 378985, Note_off_c, 12, 71, 56
13, 378992, Note_on_c, 12, 72, 86
13, 379018, Note_on_c, 12, 74, 81
13, 379019, Note_off_c, 12, 72, 56
13, 379068, Note_off_c, 12, 65, 56
13, 379082, Note_on_c, 12, 67, 81
13, 379180, Note_off_c, 12, 74, 64
13, 379190, Note_off_c, 12, 67, 56
13, 379198, Note_on_c, 12, 65, 82
13, 379306, Note_off_c, 12, 65, 56
13, 379320, Note_on_c, 12, 67, 82
13, 379428, Note_off_c, 12, 67, 56
13, 379440, Note_on_c, 12, 65, 82
13, 379442, Note_on_c, 12, 71, 87
13, 379469, Note_off_c, 12, 71, 56
13, 379469, Note_on_c, 12, 72, 87
13, 379496, Note_off_c, 12, 72, 56
13, 379502, Note_on_c, 12, 74, 82
13, 379548, Note_off_c, 12, 65, 56
13, 379561, Note_on_c, 12, 67, 83
13, 379664, Note_off_c, 12, 74, 64
13, 379669, Note_off_c, 12, 67, 56
13, 379679, Note_on_c, 12, 64, 83
13, 379787, Note_off_c, 12, 64, 56
13, 379801, Note_on_c, 12, 67, 85
13, 379909, Note_off_c, 12, 67, 56
13, 379919, Note_on_c, 12, 64, 85
13, 379920, Note_on_c, 12, 72, 90
13, 379947, Note_off_c, 12, 72, 56
13, 379950, Note_on_c, 12, 74, 90
13, 379977, Note_off_c, 12, 74, 56
13, 379981, Note_on_c, 12, 76, 85
13, 380027, Note_off_c, 12, 64, 56
13, 380041, Note_on_c, 12, 67, 85
13, 380143, Note_off_c, 12, 76, 64
13, 380149, Note_off_c, 12, 67, 56
13, 380159, Note_on_c, 12, 64, 86
13, 380267, Note_off_c, 12, 64, 56
13, 380282, Note_on_c, 12, 67, 86
13, 380390, Note_off_c, 12, 67, 56
13, 380399, Note_on_c, 12, 72, 91
13, 380401, Note_on_c, 12, 64, 86
13, 380426, Note_off_c, 12, 72, 56
13, 380429, Note_on_c, 12, 74, 91
13, 380456, Note_off_c, 12, 74, 56
13, 380462, Note_on_c, 12, 76, 86
13, 380509, Note_off_c, 12, 64, 56
13, 380521, Note_on_c, 12, 67, 87
13, 380624, Note_off_c, 12, 76, 64
13, 380629, Note_off_c, 12, 67, 56
13, 380640, Note_on_c, 12, 29, 74
13, 380641, Note_on_c, 12, 65, 87
13, 380737, Note_off_c, 12, 29, 56
13, 380749, Note_off_c, 12, 65, 56
13, 380758, Note_on_c, 12, 67, 88
13, 380761, Note_on_c, 12, 31, 77
13, 380858, Note_off_c, 12, 31, 56
13, 380866, Note_off_c, 12, 67, 56
13, 380879, Note_on_c, 12, 79, 93
13, 380879, Note_on_c, 12, 65, 88
13, 380882, Note_on_c, 12, 29, 79
13, 380906, Note_off_c, 12, 79, 56
13, 380908, Note_on_c, 12, 81, 93
13, 380935, Note_off_c, 12, 81, 56
13, 380941, Note_on_c, 12, 83, 88
13, 380979, Note_off_c, 12, 29, 56
13, 380987, Note_off_c, 12, 65, 56
13, 380999, Note_on_c, 12, 67, 88
13, 381001, Note_on_c, 12, 31, 80
13, 381098, Note_off_c, 12, 31, 56
13, 381103, Note_off_c, 12, 83, 64
13, 381107, Note_off_c, 12, 67, 56
13, 381120, Note_on_c, 12, 29, 82
13, 381122, Note_on_c, 12, 65, 89
13, 381217, Note_off_c, 12, 29, 56
13, 381230, Note_off_c, 12, 65, 56
13, 381239, Note_on_c, 12, 67, 89
13, 381239, Note_on_c, 12, 31, 85
13, 381336, Note_off_c, 12, 31, 56
13, 381347, Note_off_c, 12, 67, 56
13, 381359, Note_on_c, 12, 79, 94
13, 381359, Note_on_c, 12, 29, 87
13, 381362, Note_on_c, 12, 65, 90
13, 381386, Note_off_c, 12, 79, 56
13, 381391, Note_on_c, 12, 81, 94
13, 381418, Note_off_c, 12, 81, 56
13, 381422, Note_on_c, 12, 83, 89
13, 381456, Note_off_c, 12, 29, 56
13, 381470, Note_off_c, 12, 65, 56
13, 381478, Note_on_c, 12, 67, 90
13, 381480, Note_on_c, 12, 31, 88
13, 381577, Note_off_c, 12, 31, 56
13, 381584, Note_off_c, 12, 83, 64
13, 381586, Note_off_c, 12, 67, 56
13, 381599, Note_on_c, 12, 28, 90
13, 381601, Note_on_c, 12, 84, 90
13, 381602, Note_on_c, 12, 64, 95
13, 381647, Note_off_c, 12, 64, 56
13, 381662, Note_on_c, 12, 64, 95
13, 381707, Note_off_c, 12, 64, 56
13, 381720, Note_on_c, 12, 64, 95
13, 381765, Note_off_c, 12, 64, 56
13, 381779, Note_on_c, 12, 64, 95
13, 381783, Note_off_c, 12, 28, 64
13, 381817, Note_off_c, 12, 84, 64
13, 381824, Note_off_c, 12, 64, 56
13, 381839, Note_on_c, 12, 83, 90
13, 381841, Note_on_c, 12, 62, 95
13, 381842, Note_on_c, 12, 38, 90
13, 381886, Note_off_c, 12, 62, 56
13, 381901, Note_on_c, 12, 62, 95
13, 381946, Note_off_c, 12, 62, 56
13, 381961, Note_on_c, 12, 62, 95
13, 382006, Note_off_c, 12, 62, 56
13, 382019, Note_on_c, 12, 62, 95
13, 382036, Note_off_c, 12, 38, 64
13, 382055, Note_off_c, 12, 83, 64
13, 382064, Note_off_c, 12, 62, 56
13, 382078, Note_on_c, 12, 81, 90
13, 382078, Note_on_c, 12, 36, 90
13, 382079, Note_on_c, 12, 60, 95
13, 382124, Note_off_c, 12, 60, 56
13, 382139, Note_on_c, 12, 60, 95
13, 382184, Note_off_c, 12, 60, 56
13, 382202, Note_on_c, 12, 60, 95
13, 382247, Note_off_c, 12, 60, 56
13, 382260, Note_on_c, 12, 60, 95
13, 382272, Note_off_c, 12, 36, 64
13, 382294, Note_off_c, 12, 81, 64
13, 382305, Note_off_c, 12, 60, 56
13, 382318, Note_on_c, 12, 59, 95
13, 382320, Note_on_c, 12, 35, 90
13, 382321, Note_on_c, 12, 79, 90
13, 382363, Note_off_c, 12, 59, 56
13, 382381, Note_on_c, 12, 59, 95
13, 382426, Note_off_c, 12, 59, 56
13, 382439, Note_on_c, 12, 59, 95
13, 382484, Note_off_c, 12, 59, 56
13, 382499, Note_on_c, 12, 59, 95
13, 382514, Note_off_c, 12, 35, 64
13, 382537, Note_off_c, 12, 79, 64
13, 382544, Note_off_c, 12, 59, 56
13, 382557, Note_on_c, 12, 33, 90
13, 382559, Note_on_c, 12, 57, 95
13, 382562, Note_on_c, 12, 77, 90
13, 382604, Note_off_c, 12, 57, 56
13, 382621, Note_on_c, 12, 57, 95
13, 382666, Note_off_c, 12, 57, 56
13, 382679, Note_on_c, 12, 57, 95
13, 382724, Note_off_c, 12, 57, 56
13, 382738, Note_on_c, 12, 57, 95
13, 382751, Note_off_c, 12, 33, 64
13, 382778, Note_off_c, 12, 77, 64
13, 382783, Note_off_c, 12, 57, 56
13, 382798, Note_on_c, 12, 76, 90
13, 382798, Note_on_c, 12, 31, 90
13, 382799, Note_on_c, 12, 55, 95
13, 382844, Note_off_c, 12, 55, 56
13, 382862, Note_on_c, 12, 55, 95
13, 382907, Note_off_c, 12, 55, 56
13, 382921, Note_on_c, 12, 55, 95
13, 382966, Note_off_c, 12, 55, 56
13, 382980, Note_on_c, 12, 55, 95
13, 382992, Note_off_c, 12, 31, 64
13, 383014, Note_off_c, 12, 76, 64
13, 383025, Note_off_c, 12, 55, 56
13, 383039, Note_on_c, 12, 29, 90
13, 383041, Note_on_c, 12, 53, 95
13, 383042, Note_on_c, 12, 74, 90
13, 383042, Note_on_c, 12, 57, 95
13, 383086, Note_off_c, 12, 53, 56
13, 383087, Note_off_c, 12, 57, 56
13, 383100, Note_on_c, 12, 53, 95
13, 383101, Note_on_c, 12, 57, 95
13, 383145, Note_off_c, 12, 53, 56
13, 383146, Note_off_c, 12, 57, 56
13, 383158, Note_on_c, 12, 53, 95
13, 383159, Note_on_c, 12, 57, 95
13, 383203, Note_off_c, 12, 53, 56
13, 383204, Note_off_c, 12, 57, 56
13, 383218, Note_on_c, 12, 57, 95
13, 383219, Note_on_c, 12, 53, 95
13, 383233, Note_off_c, 12, 29, 64
13, 383258, Note_off_c, 12, 74, 64
13, 383263, Note_off_c, 12, 57, 56
13, 383264, Note_off_c, 12, 53, 56
13, 383281, Note_on_c, 12, 55, 95
13, 383282, Note_on_c, 12, 73, 90
13, 383283, Note_on_c, 12, 28, 90
13, 383326, Note_off_c, 12, 55, 56
13, 383342, Note_on_c, 12, 55, 95
13, 383387, Note_off_c, 12, 55, 56
13, 383400, Note_on_c, 12, 55, 95
13, 383445, Note_off_c, 12, 55, 56
13, 383458, Note_on_c, 12, 55, 95
13, 383467, Note_off_c, 12, 28, 64
13, 383487, Note_off_c, 12, 73, 64
13, 383503, Note_off_c, 12, 55, 56
13, 383520, Note_on_c, 12, 57, 90
13, 383521, Note_on_c, 12, 74, 90
13, 383523, Note_on_c, 12, 29, 90
13, 384106, Note_off_c, 12, 29, 64
13, 384168, Note_off_c, 12, 57, 64
13, 384169, Note_off_c, 12, 74, 64
13, 384238, Note_on_c, 12, 76, 90
13, 384240, Note_on_c, 12, 55, 90
13, 384241, Note_on_c, 12, 31, 90
13, 384363, Note_off_c, 12, 31, 64
13, 384374, Note_off_c, 12, 76, 64
13, 384376, Note_off_c, 12, 55, 64
13, 384478, Note_on_c, 12, 77, 90
13, 384480, Note_on_c, 12, 53, 90
13, 384481, Note_on_c, 12, 33, 90
13, 385064, Note_off_c, 12, 33, 64
13, 385126, Note_off_c, 12, 77, 64
13, 385128, Note_off_c, 12, 53, 64
13, 385200, Note_on_c, 12, 75, 90
13, 385202, Note_on_c, 12, 55, 90
13, 385202, Note_on_c, 12, 31, 90
13, 385324, Note_off_c, 12, 31, 64
13, 385336, Note_off_c, 12, 75, 64
13, 385338, Note_off_c, 12, 55, 64
13, 385438, Note_on_c, 12, 74, 90
13, 385439, Note_on_c, 12, 57, 90
13, 385442, Note_on_c, 12, 30, 90
13, 386025, Note_off_c, 12, 30, 64
13, 386086, Note_off_c, 12, 74, 64
13, 386087, Note_off_c, 12, 57, 64
13, 386158, Note_on_c, 12, 76, 90
13, 386158, Note_on_c, 12, 31, 90
13, 386158, Note_on_c, 12, 55, 90
13, 386280, Note_off_c, 12, 31, 64
13, 386294, Note_off_c, 12, 55, 64
13, 386294, Note_off_c, 12, 76, 64
13, 386398, Note_on_c, 12, 32, 90
13, 386399, Note_on_c, 12, 53, 90
13, 386400, Note_on_c, 12, 77, 90
13, 386981, Note_off_c, 12, 32, 64
13, 387047, Note_off_c, 12, 53, 64
13, 387048, Note_off_c, 12, 77, 64
13, 387118, Note_on_c, 12, 33, 90
13, 387121, Note_on_c, 12, 57, 90
13, 387122, Note_on_c, 12, 78, 90
13, 387240, Note_off_c, 12, 33, 64
13, 387257, Note_off_c, 12, 57, 64
13, 387258, Note_off_c, 12, 78, 64
13, 387359, Note_on_c, 12, 59, 90
13, 387361, Note_on_c, 12, 79, 90
13, 387361, Note_on_c, 12, 35, 90
13, 387545, Note_off_c, 12, 35, 64
13, 387564, Note_off_c, 12, 59, 64
13, 387566, Note_off_c, 12, 79, 64
13, 387838, Note_on_c, 12, 60, 73
13, 387840, Note_on_c, 12, 36, 73
13, 387842, Note_on_c, 12, 76, 73
13, 388024, Note_off_c, 12, 36, 64
13, 388043, Note_off_c, 12, 60, 64
13, 388047, Note_off_c, 12, 76, 64
13, 388319, Note_on_c, 12, 57, 73
13, 388319, Note_on_c, 12, 77, 73
13, 388321, Note_on_c, 12, 29, 73
13, 388505, Note_off_c, 12, 29, 64
13, 388524, Note_off_c, 12, 77, 64
13, 388524, Note_off_c, 12, 57, 64
13, 388798, Note_on_c, 12, 59, 73
13, 388801, Note_on_c, 12, 74, 73
13, 388802, Note_on_c, 12, 31, 73
13, 388986, Note_off_c, 12, 31, 64
13, 389003, Note_off_c, 12, 59, 64
13, 389006, Note_off_c, 12, 74, 64
13, 389037, Note_on_c, 12, 31, 90
13, 389039, Note_on_c, 12, 55, 90
13, 389231, Note_off_c, 12, 31, 64
13, 389255, Note_off_c, 12, 55, 64
13, 389277, Note_on_c, 12, 36, 90
13, 389280, Note_on_c, 12, 60, 90
13, 389471, Note_off_c, 12, 36, 64
13, 389498, Note_off_c, 12, 60, 64
13, 389519, Note_on_c, 12, 55, 90
13, 389519, Note_on_c, 12, 31, 90
13, 389713, Note_off_c, 12, 31, 64
13, 389735, Note_off_c, 12, 55, 64
13, 389761, Note_on_c, 12, 64, 90
13, 389761, Note_on_c, 12, 40, 90
13, 389955, Note_off_c, 12, 40, 64
13, 389977, Note_off_c, 12, 64, 64
13, 389998, Note_on_c, 12, 38, 90
13, 390001, Note_on_c, 12, 62, 90
13, 390143, Note_off_c, 12, 38, 64
13, 390163, Note_off_c, 12, 62, 64
13, 390180, Note_on_c, 12, 60, 95
13, 390180, Note_on_c, 12, 36, 95
13, 390225, Note_off_c, 12, 36, 56
13, 390231, Note_off_c, 12, 60, 56
13, 390237, Note_on_c, 12, 43, 90
13, 390238, Note_on_c, 12, 67, 90
13, 390820, Note_off_c, 12, 43, 64
13, 390886, Note_off_c, 12, 67, 64
13, 392882, Note_on_c, 12, 79, 73
13, 393098, Note_off_c, 12, 79, 64
13, 393120, Note_on_c, 12, 62, 73
13, 393122, Note_on_c, 12, 83, 74
13, 393228, Note_off_c, 12, 62, 56
13, 393238, Note_on_c, 12, 59, 73
13, 393338, Note_off_c, 12, 83, 64
13, 393346, Note_off_c, 12, 59, 56
13, 393360, Note_on_c, 12, 62, 74
13, 393360, Note_on_c, 12, 79, 75
13, 393468, Note_off_c, 12, 62, 56
13, 393480, Note_on_c, 12, 59, 74
13, 393576, Note_off_c, 12, 79, 64
13, 393588, Note_off_c, 12, 59, 56
13, 393598, Note_on_c, 12, 86, 77
13, 393601, Note_on_c, 12, 62, 75
13, 393709, Note_off_c, 12, 62, 56
13, 393718, Note_on_c, 12, 59, 75
13, 393814, Note_off_c, 12, 86, 64
13, 393826, Note_off_c, 12, 59, 56
13, 393838, Note_on_c, 12, 84, 77
13, 393840, Note_on_c, 12, 62, 75
13, 393948, Note_off_c, 12, 62, 56
13, 393959, Note_on_c, 12, 59, 77
13, 394000, Note_off_c, 12, 84, 64
13, 394018, Note_on_c, 12, 83, 83
13, 394067, Note_off_c, 12, 59, 56
13, 394069, Note_off_c, 12, 83, 56
13, 394080, Note_on_c, 12, 84, 78
13, 394080, Note_on_c, 12, 64, 77
13, 394188, Note_off_c, 12, 64, 56
13, 394198, Note_on_c, 12, 60, 77
13, 394296, Note_off_c, 12, 84, 64
13, 394306, Note_off_c, 12, 60, 56
13, 394318, Note_on_c, 12, 79, 79
13, 394322, Note_on_c, 12, 64, 78
13, 394430, Note_off_c, 12, 64, 56
13, 394438, Note_on_c, 12, 60, 78
13, 394534, Note_off_c, 12, 79, 64
13, 394546, Note_off_c, 12, 60, 56
13, 394560, Note_on_c, 12, 88, 79
13, 394560, Note_on_c, 12, 64, 79
13, 394668, Note_off_c, 12, 64, 56
13, 394680, Note_on_c, 12, 60, 79
13, 394776, Note_off_c, 12, 88, 64
13, 394788, Note_off_c, 12, 60, 56
13, 394799, Note_on_c, 12, 86, 80
13, 394801, Note_on_c, 12, 64, 79
13, 394909, Note_off_c, 12, 64, 56
13, 394918, Note_on_c, 12, 60, 80
13, 394961, Note_off_c, 12, 86, 64
13, 394978, Note_on_c, 12, 84, 86
13, 395026, Note_off_c, 12, 60, 56
13, 395029, Note_off_c, 12, 84, 56
13, 395038, Note_on_c, 12, 29, 73
13, 395039, Note_on_c, 12, 62, 80
13, 395039, Note_on_c, 12, 83, 81
13, 395135, Note_off_c, 12, 29, 56
13, 395147, Note_off_c, 12, 62, 56
13, 395159, Note_on_c, 12, 31, 74
13, 395161, Note_on_c, 12, 59, 80
13, 395255, Note_off_c, 12, 83, 64
13, 395256, Note_off_c, 12, 31, 56
13, 395269, Note_off_c, 12, 59, 56
13, 395278, Note_on_c, 12, 62, 81
13, 395278, Note_on_c, 12, 29, 74
13, 395281, Note_on_c, 12, 79, 81
13, 395375, Note_off_c, 12, 29, 56
13, 395386, Note_off_c, 12, 62, 56
13, 395398, Note_on_c, 12, 59, 81
13, 395402, Note_on_c, 12, 31, 75
13, 395497, Note_off_c, 12, 79, 64
13, 395499, Note_off_c, 12, 31, 56
13, 395506, Note_off_c, 12, 59, 56
13, 395519, Note_on_c, 12, 86, 82
13, 395519, Note_on_c, 12, 29, 75
13, 395519, Note_on_c, 12, 62, 82
13, 395616, Note_off_c, 12, 29, 56
13, 395627, Note_off_c, 12, 62, 56
13, 395640, Note_on_c, 12, 59, 82
13, 395641, Note_on_c, 12, 31, 77
13, 395735, Note_off_c, 12, 86, 64
13, 395738, Note_off_c, 12, 31, 56
13, 395748, Note_off_c, 12, 59, 56
13, 395758, Note_on_c, 12, 29, 78
13, 395761, Note_on_c, 12, 84, 83
13, 395761, Note_on_c, 12, 62, 82
13, 395855, Note_off_c, 12, 29, 56
13, 395869, Note_off_c, 12, 62, 56
13, 395880, Note_on_c, 12, 31, 78
13, 395882, Note_on_c, 12, 59, 83
13, 395923, Note_off_c, 12, 84, 64
13, 395941, Note_on_c, 12, 83, 88
13, 395977, Note_off_c, 12, 31, 56
13, 395990, Note_off_c, 12, 59, 56
13, 395992, Note_off_c, 12, 83, 56
13, 395999, Note_on_c, 12, 84, 85
13, 396002, Note_on_c, 12, 64, 83
13, 396002, Note_on_c, 12, 28, 79
13, 396099, Note_off_c, 12, 28, 56
13, 396110, Note_off_c, 12, 64, 56
13, 396122, Note_on_c, 12, 60, 83
13, 396122, Note_on_c, 12, 31, 80
13, 396215, Note_off_c, 12, 84, 64
13, 396219, Note_off_c, 12, 31, 56
13, 396230, Note_off_c, 12, 60, 56
13, 396238, Note_on_c, 12, 79, 85
13, 396238, Note_on_c, 12, 28, 80
13, 396241, Note_on_c, 12, 64, 85
13, 396335, Note_off_c, 12, 28, 56
13, 396349, Note_off_c, 12, 64, 56
13, 396360, Note_on_c, 12, 60, 85
13, 396360, Note_on_c, 12, 31, 81
13, 396454, Note_off_c, 12, 79, 64
13, 396457, Note_off_c, 12, 31, 56
13, 396468, Note_off_c, 12, 60, 56
13, 396478, Note_on_c, 12, 64, 86
13, 396479, Note_on_c, 12, 88, 86
13, 396482, Note_on_c, 12, 28, 82
13, 396579, Note_off_c, 12, 28, 56
13, 396586, Note_off_c, 12, 64, 56
13, 396599, Note_on_c, 12, 60, 86
13, 396600, Note_on_c, 12, 31, 82
13, 396695, Note_off_c, 12, 88, 64
13, 396697, Note_off_c, 12, 31, 56
13, 396707, Note_off_c, 12, 60, 56
13, 396718, Note_on_c, 12, 86, 87
13, 396719, Note_on_c, 12, 28, 83
13, 396721, Note_on_c, 12, 64, 86
13, 396816, Note_off_c, 12, 28, 56
13, 396829, Note_off_c, 12, 64, 56
13, 396841, Note_on_c, 12, 31, 83
13, 396842, Note_on_c, 12, 60, 87
13, 396880, Note_off_c, 12, 86, 64
13, 396902, Note_on_c, 12, 84, 92
13, 396938, Note_off_c, 12, 31, 56
13, 396950, Note_off_c, 12, 60, 56
13, 396953, Note_off_c, 12, 84, 56
13, 396960, Note_on_c, 12, 83, 87
13, 396960, Note_on_c, 12, 29, 85
13, 396960, Note_on_c, 12, 62, 87
13, 397057, Note_off_c, 12, 29, 56
13, 397068, Note_off_c, 12, 62, 56
13, 397078, Note_on_c, 12, 31, 86
13, 397082, Note_on_c, 12, 59, 87
13, 397175, Note_off_c, 12, 31, 56
13, 397176, Note_off_c, 12, 83, 64
13, 397190, Note_off_c, 12, 59, 56
13, 397199, Note_on_c, 12, 62, 88
13, 397199, Note_on_c, 12, 79, 88
13, 397202, Note_on_c, 12, 29, 86
13, 397299, Note_off_c, 12, 29, 56
13, 397307, Note_off_c, 12, 62, 56
13, 397319, Note_on_c, 12, 59, 88
13, 397321, Note_on_c, 12, 31, 87
13, 397415, Note_off_c, 12, 79, 64
13, 397418, Note_off_c, 12, 31, 56
13, 397427, Note_off_c, 12, 59, 56
13, 397439, Note_on_c, 12, 86, 89
13, 397439, Note_on_c, 12, 29, 88
13, 397439, Note_on_c, 12, 62, 89
13, 397536, Note_off_c, 12, 29, 56
13, 397547, Note_off_c, 12, 62, 56
13, 397561, Note_on_c, 12, 59, 89
13, 397561, Note_on_c, 12, 31, 88
13, 397655, Note_off_c, 12, 86, 64
13, 397658, Note_off_c, 12, 31, 56
13, 397669, Note_off_c, 12, 59, 56
13, 397679, Note_on_c, 12, 84, 89
13, 397679, Note_on_c, 12, 29, 89
13, 397681, Note_on_c, 12, 62, 89
13, 397776, Note_off_c, 12, 29, 56
13, 397789, Note_off_c, 12, 62, 56
13, 397798, Note_on_c, 12, 31, 89
13, 397799, Note_on_c, 12, 59, 90
13, 397841, Note_off_c, 12, 84, 64
13, 397858, Note_on_c, 12, 83, 95
13, 397895, Note_off_c, 12, 31, 56
13, 397907, Note_off_c, 12, 59, 56
13, 397909, Note_off_c, 12, 83, 56
13, 397918, Note_on_c, 12, 64, 95
13, 397919, Note_on_c, 12, 84, 95
13, 397923, Note_on_c, 12, 28, 90
13, 397963, Note_off_c, 12, 64, 56
13, 397964, Note_off_c, 12, 84, 56
13, 397981, Note_on_c, 12, 84, 95
13, 397981, Note_on_c, 12, 64, 95
13, 398026, Note_off_c, 12, 64, 56
13, 398026, Note_off_c, 12, 84, 56
13, 398039, Note_on_c, 12, 84, 95
13, 398042, Note_on_c, 12, 64, 95
13, 398084, Note_off_c, 12, 84, 56
13, 398087, Note_off_c, 12, 64, 56
13, 398100, Note_on_c, 12, 84, 95
13, 398102, Note_on_c, 12, 64, 95
13, 398107, Note_off_c, 12, 28, 64
13, 398145, Note_off_c, 12, 84, 56
13, 398147, Note_off_c, 12, 64, 56
13, 398158, Note_on_c, 12, 62, 95
13, 398161, Note_on_c, 12, 38, 90
13, 398162, Note_on_c, 12, 83, 95
13, 398203, Note_off_c, 12, 62, 56
13, 398207, Note_off_c, 12, 83, 56
13, 398218, Note_on_c, 12, 83, 95
13, 398218, Note_on_c, 12, 62, 95
13, 398263, Note_off_c, 12, 62, 56
13, 398263, Note_off_c, 12, 83, 56
13, 398278, Note_on_c, 12, 62, 95
13, 398282, Note_on_c, 12, 83, 95
13, 398323, Note_off_c, 12, 62, 56
13, 398327, Note_off_c, 12, 83, 56
13, 398338, Note_on_c, 12, 83, 95
13, 398340, Note_on_c, 12, 62, 95
13, 398355, Note_off_c, 12, 38, 64
13, 398383, Note_off_c, 12, 83, 56
13, 398385, Note_off_c, 12, 62, 56
13, 398399, Note_on_c, 12, 36, 90
13, 398400, Note_on_c, 12, 60, 95
13, 398402, Note_on_c, 12, 81, 95
13, 398445, Note_off_c, 12, 60, 56
13, 398447, Note_off_c, 12, 81, 56
13, 398458, Note_on_c, 12, 81, 95
13, 398461, Note_on_c, 12, 60, 95
13, 398503, Note_off_c, 12, 81, 56
13, 398506, Note_off_c, 12, 60, 56
13, 398519, Note_on_c, 12, 81, 95
13, 398520, Note_on_c, 12, 60, 95
13, 398564, Note_off_c, 12, 81, 56
13, 398565, Note_off_c, 12, 60, 56
13, 398578, Note_on_c, 12, 60, 95
13, 398580, Note_on_c, 12, 81, 95
13, 398593, Note_off_c, 12, 36, 64
13, 398623, Note_off_c, 12, 60, 56
13, 398625, Note_off_c, 12, 81, 56
13, 398638, Note_on_c, 12, 59, 95
13, 398640, Note_on_c, 12, 35, 90
13, 398641, Note_on_c, 12, 79, 95
13, 398683, Note_off_c, 12, 59, 56
13, 398686, Note_off_c, 12, 79, 56
13, 398702, Note_on_c, 12, 79, 95
13, 398702, Note_on_c, 12, 59, 95
13, 398747, Note_off_c, 12, 59, 56
13, 398747, Note_off_c, 12, 79, 56
13, 398759, Note_on_c, 12, 79, 95
13, 398761, Note_on_c, 12, 59, 95
13, 398804, Note_off_c, 12, 79, 56
13, 398806, Note_off_c, 12, 59, 56
13, 398818, Note_on_c, 12, 79, 95
13, 398821, Note_on_c, 12, 59, 95
13, 398834, Note_off_c, 12, 35, 64
13, 398863, Note_off_c, 12, 79, 56
13, 398866, Note_off_c, 12, 59, 56
13, 398878, Note_on_c, 12, 57, 95
13, 398879, Note_on_c, 12, 77, 95
13, 398881, Note_on_c, 12, 33, 90
13, 398923, Note_off_c, 12, 57, 56
13, 398924, Note_off_c, 12, 77, 56
13, 398941, Note_on_c, 12, 77, 95
13, 398941, Note_on_c, 12, 57, 95
13, 398986, Note_off_c, 12, 57, 56
13, 398986, Note_off_c, 12, 77, 56
13, 398999, Note_on_c, 12, 57, 95
13, 399001, Note_on_c, 12, 77, 95
13, 399044, Note_off_c, 12, 57, 56
13, 399046, Note_off_c, 12, 77, 56
13, 399060, Note_on_c, 12, 77, 95
13, 399061, Note_on_c, 12, 57, 95
13, 399075, Note_off_c, 12, 33, 64
13, 399105, Note_off_c, 12, 77, 56
13, 399106, Note_off_c, 12, 57, 56
13, 399117, Note_on_c, 12, 31, 90
13, 399118, Note_on_c, 12, 55, 95
13, 399122, Note_on_c, 12, 76, 95
13, 399163, Note_off_c, 12, 55, 56
13, 399167, Note_off_c, 12, 76, 56
13, 399179, Note_on_c, 12, 76, 95
13, 399180, Note_on_c, 12, 55, 95
13, 399224, Note_off_c, 12, 76, 56
13, 399225, Note_off_c, 12, 55, 56
13, 399240, Note_on_c, 12, 76, 95
13, 399242, Note_on_c, 12, 55, 95
13, 399285, Note_off_c, 12, 76, 56
13, 399287, Note_off_c, 12, 55, 56
13, 399298, Note_on_c, 12, 55, 95
13, 399302, Note_on_c, 12, 76, 95
13, 399311, Note_off_c, 12, 31, 64
13, 399343, Note_off_c, 12, 55, 56
13, 399347, Note_off_c, 12, 76, 56
13, 399359, Note_on_c, 12, 74, 95
13, 399360, Note_on_c, 12, 29, 90
13, 399361, Note_on_c, 12, 53, 95
13, 399404, Note_off_c, 12, 74, 56
13, 399406, Note_off_c, 12, 53, 56
13, 399419, Note_on_c, 12, 74, 95
13, 399420, Note_on_c, 12, 53, 95
13, 399464, Note_off_c, 12, 74, 56
13, 399465, Note_off_c, 12, 53, 56
13, 399478, Note_on_c, 12, 53, 95
13, 399479, Note_on_c, 12, 74, 95
13, 399523, Note_off_c, 12, 53, 56
13, 399524, Note_off_c, 12, 74, 56
13, 399538, Note_on_c, 12, 53, 95
13, 399541, Note_on_c, 12, 74, 95
13, 399554, Note_off_c, 12, 29, 64
13, 399583, Note_off_c, 12, 53, 56
13, 399586, Note_off_c, 12, 74, 56
13, 399598, Note_on_c, 12, 73, 95
13, 399600, Note_on_c, 12, 28, 90
13, 399601, Note_on_c, 12, 55, 95
13, 399643, Note_off_c, 12, 73, 56
13, 399646, Note_off_c, 12, 55, 56
13, 399659, Note_on_c, 12, 55, 95
13, 399661, Note_on_c, 12, 73, 95
13, 399704, Note_off_c, 12, 55, 56
13, 399706, Note_off_c, 12, 73, 56
13, 399718, Note_on_c, 12, 73, 95
13, 399718, Note_on_c, 12, 55, 95
13, 399763, Note_off_c, 12, 55, 56
13, 399763, Note_off_c, 12, 73, 56
13, 399778, Note_on_c, 12, 73, 95
13, 399780, Note_on_c, 12, 55, 95
13, 399794, Note_off_c, 12, 28, 64
13, 399823, Note_off_c, 12, 73, 56
13, 399825, Note_off_c, 12, 55, 56
13, 399838, Note_on_c, 12, 53, 90
13, 399839, Note_on_c, 12, 57, 90
13, 399841, Note_on_c, 12, 74, 90
13, 399841, Note_on_c, 12, 29, 90
13, 400424, Note_off_c, 12, 29, 64
13, 400486, Note_off_c, 12, 53, 64
13, 400487, Note_off_c, 12, 57, 64
13, 400489, Note_off_c, 12, 74, 64
13, 400558, Note_on_c, 12, 31, 90
13, 400560, Note_on_c, 12, 55, 90
13, 400561, Note_on_c, 12, 76, 90
13, 400680, Note_off_c, 12, 31, 64
13, 400696, Note_off_c, 12, 55, 64
13, 400697, Note_off_c, 12, 76, 64
13, 400797, Note_on_c, 12, 33, 90
13, 400799, Note_on_c, 12, 57, 90
13, 400801, Note_on_c, 12, 77, 90
13, 401380, Note_off_c, 12, 33, 64
13, 401447, Note_off_c, 12, 57, 64
13, 401449, Note_off_c, 12, 77, 64
13, 401518, Note_on_c, 12, 31, 90
13, 401522, Note_on_c, 12, 75, 90
13, 401522, Note_on_c, 12, 55, 90
13, 401640, Note_off_c, 12, 31, 64
13, 401658, Note_off_c, 12, 55, 64
13, 401658, Note_off_c, 12, 75, 64
13, 401758, Note_on_c, 12, 54, 90
13, 401759, Note_on_c, 12, 74, 90
13, 401763, Note_on_c, 12, 30, 90
13, 402346, Note_off_c, 12, 30, 64
13, 402406, Note_off_c, 12, 54, 64
13, 402407, Note_off_c, 12, 74, 64
13, 402478, Note_on_c, 12, 31, 90
13, 402479, Note_on_c, 12, 55, 90
13, 402480, Note_on_c, 12, 75, 90
13, 402600, Note_off_c, 12, 31, 64
13, 402615, Note_off_c, 12, 55, 64
13, 402616, Note_off_c, 12, 75, 64
13, 402721, Note_on_c, 12, 77, 90
13, 402721, Note_on_c, 12, 32, 90
13, 402722, Note_on_c, 12, 56, 90
13, 403304, Note_off_c, 12, 32, 64
13, 403369, Note_off_c, 12, 77, 64
13, 403370, Note_off_c, 12, 56, 64
13, 403438, Note_on_c, 12, 33, 90
13, 403441, Note_on_c, 12, 78, 90
13, 403441, Note_on_c, 12, 57, 90
13, 403560, Note_off_c, 12, 33, 64
13, 403577, Note_off_c, 12, 57, 64
13, 403577, Note_off_c, 12, 78, 64
13, 403678, Note_on_c, 12, 79, 73
13, 403680, Note_on_c, 12, 34, 73
13, 403680, Note_on_c, 12, 58, 73
13, 403864, Note_off_c, 12, 34, 64
13, 403883, Note_off_c, 12, 79, 64
13, 403885, Note_off_c, 12, 58, 64
13, 404158, Note_on_c, 12, 60, 74
13, 404161, Note_on_c, 12, 46, 74
13, 404162, Note_on_c, 12, 79, 74
13, 404345, Note_off_c, 12, 46, 64
13, 404363, Note_off_c, 12, 60, 64
13, 404367, Note_off_c, 12, 79, 64
13, 404638, Note_on_c, 12, 79, 74
13, 404638, Note_on_c, 12, 44, 74
13, 404641, Note_on_c, 12, 60, 74
13, 404822, Note_off_c, 12, 44, 64
13, 404843, Note_off_c, 12, 79, 64
13, 404846, Note_off_c, 12, 60, 64
13, 405117, Note_on_c, 12, 44, 75
13, 405120, Note_on_c, 12, 60, 75
13, 405120, Note_on_c, 12, 77, 75
13, 405301, Note_off_c, 12, 44, 64
13, 405325, Note_off_c, 12, 77, 64
13, 405325, Note_off_c, 12, 60, 64
13, 405598, Note_on_c, 12, 62, 77
13, 405600, Note_on_c, 12, 77, 77
13, 405602, Note_on_c, 12, 43, 77
13, 405786, Note_off_c, 12, 43, 64
13, 405803, Note_off_c, 12, 62, 64
13, 405805, Note_off_c, 12, 77, 64
13, 406078, Note_on_c, 12, 76, 77
13, 406081, Note_on_c, 12, 64, 77
13, 406081, Note_on_c, 12, 43, 77
13, 406265, Note_off_c, 12, 43, 64
13, 406283, Note_off_c, 12, 76, 64
13, 406286, Note_off_c, 12, 64, 64
13, 406558, Note_on_c, 12, 43, 78
13, 406560, Note_on_c, 12, 74, 78
13, 406560, Note_on_c, 12, 65, 78
13, 406742, Note_off_c, 12, 43, 64
13, 406765, Note_off_c, 12, 65, 64
13, 406765, Note_off_c, 12, 74, 64
13, 407038, Note_on_c, 12, 79, 78
13, 407038, Note_on_c, 12, 46, 78
13, 407042, Note_on_c, 12, 64, 78
13, 407222, Note_off_c, 12, 46, 64
13, 407243, Note_off_c, 12, 79, 64
13, 407247, Note_off_c, 12, 64, 64
13, 407519, Note_on_c, 12, 64, 79
13, 407519, Note_on_c, 12, 79, 79
13, 407521, Note_on_c, 12, 46, 79
13, 407705, Note_off_c, 12, 46, 64
13, 407724, Note_off_c, 12, 79, 64
13, 407724, Note_off_c, 12, 64, 64
13, 408000, Note_on_c, 12, 46, 80
13, 408002, Note_on_c, 12, 79, 80
13, 408002, Note_on_c, 12, 64, 80
13, 408184, Note_off_c, 12, 46, 64
13, 408207, Note_off_c, 12, 64, 64
13, 408207, Note_off_c, 12, 79, 64
13, 408478, Note_on_c, 12, 60, 80
13, 408482, Note_on_c, 12, 79, 80
13, 408483, Note_on_c, 12, 44, 80
13, 408667, Note_off_c, 12, 44, 64
13, 408683, Note_off_c, 12, 60, 64
13, 408687, Note_off_c, 12, 79, 64
13, 408958, Note_on_c, 12, 60, 81
13, 408959, Note_on_c, 12, 77, 81
13, 408962, Note_on_c, 12, 44, 81
13, 409146, Note_off_c, 12, 44, 64
13, 409163, Note_off_c, 12, 60, 64
13, 409164, Note_off_c, 12, 77, 64
13, 409440, Note_on_c, 12, 77, 82
13, 409441, Note_on_c, 12, 43, 82
13, 409442, Note_on_c, 12, 62, 82
13, 409625, Note_off_c, 12, 43, 64
13, 409645, Note_off_c, 12, 77, 64
13, 409647, Note_off_c, 12, 62, 64
13, 409918, Note_on_c, 12, 43, 82
13, 409919, Note_on_c, 12, 64, 82
13, 409921, Note_on_c, 12, 76, 82
13, 410102, Note_off_c, 12, 43, 64
13, 410124, Note_off_c, 12, 64, 64
13, 410126, Note_off_c, 12, 76, 64
13, 410398, Note_on_c, 12, 65, 83
13, 410398, Note_on_c, 12, 74, 83
13, 410401, Note_on_c, 12, 43, 83
13, 410585, Note_off_c, 12, 43, 64
13, 410603, Note_off_c, 12, 74, 64
13, 410603, Note_off_c, 12, 65, 64
13, 410878, Note_on_c, 12, 64, 83
13, 410881, Note_on_c, 12, 79, 83
13, 410883, Note_on_c, 12, 46, 83
13, 411067, Note_off_c, 12, 46, 64
13, 411083, Note_off_c, 12, 64, 64
13, 411086, Note_off_c, 12, 79, 64
13, 411359, Note_on_c, 12, 64, 85
13, 411360, Note_on_c, 12, 79, 85
13, 411361, Note_on_c, 12, 46, 85
13, 411545, Note_off_c, 12, 46, 64
13, 411564, Note_off_c, 12, 64, 64
13, 411565, Note_off_c, 12, 79, 64
13, 411841, Note_on_c, 12, 79, 86
13, 411841, Note_on_c, 12, 46, 86
13, 411841, Note_on_c, 12, 64, 86
13, 412025, Note_off_c, 12, 46, 64
13, 412046, Note_off_c, 12, 64, 64
13, 412046, Note_off_c, 12, 79, 64
13, 412321, Note_on_c, 12, 79, 86
13, 412321, Note_on_c, 12, 64, 86
13, 412323, Note_on_c, 12, 44, 86
13, 412507, Note_off_c, 12, 44, 64
13, 412526, Note_off_c, 12, 64, 64
13, 412526, Note_off_c, 12, 79, 64
13, 412799, Note_on_c, 12, 65, 87
13, 412799, Note_on_c, 12, 44, 87
13, 412800, Note_on_c, 12, 77, 87
13, 412983, Note_off_c, 12, 44, 64
13, 413004, Note_off_c, 12, 65, 64
13, 413005, Note_off_c, 12, 77, 64
13, 413279, Note_on_c, 12, 43, 88
13, 413281, Note_on_c, 12, 77, 88
13, 413281, Note_on_c, 12, 62, 88
13, 413463, Note_off_c, 12, 43, 64
13, 413486, Note_off_c, 12, 62, 64
13, 413486, Note_off_c, 12, 77, 64
13, 413758, Note_on_c, 12, 76, 88
13, 413759, Note_on_c, 12, 64, 88
13, 413760, Note_on_c, 12, 43, 88
13, 413944, Note_off_c, 12, 43, 64
13, 413963, Note_off_c, 12, 76, 64
13, 413964, Note_off_c, 12, 64, 64
13, 414237, Note_on_c, 12, 43, 89
13, 414238, Note_on_c, 12, 74, 89
13, 414240, Note_on_c, 12, 65, 89
13, 414421, Note_off_c, 12, 43, 64
13, 414443, Note_off_c, 12, 74, 64
13, 414445, Note_off_c, 12, 65, 64
13, 414719, Note_on_c, 12, 79, 89
13, 414719, Note_on_c, 12, 62, 89
13, 414720, Note_on_c, 12, 31, 89
13, 414904, Note_off_c, 12, 31, 64
13, 414924, Note_off_c, 12, 62, 64
13, 414924, Note_off_c, 12, 79, 64
13, 415199, Note_on_c, 12, 52, 78
13, 415201, Note_on_c, 12, 48, 78
13, 415201, Note_on_c, 12, 36, 73
13, 415202, Note_on_c, 12, 60, 73
13, 415224, Control_c, 12, 7, 120
13, 415224, Program_c, 12, 44
13, 415258, Note_on_c, 12, 52, 78
13, 415258, Note_on_c, 12, 48, 78
13, 415259, Note_off_c, 12, 52, 56
13, 415261, Note_off_c, 12, 48, 56
13, 415306, Note_off_c, 12, 48, 56
13, 415306, Note_off_c, 12, 52, 56
13, 415319, Note_on_c, 12, 52, 78
13, 415321, Note_off_c, 12, 36, 56
13, 415321, Note_on_c, 12, 48, 78
13, 415367, Note_off_c, 12, 52, 56
13, 415369, Note_off_c, 12, 48, 56
13, 415381, Note_on_c, 12, 48, 78
13, 415381, Note_on_c, 12, 52, 78
13, 415429, Note_off_c, 12, 52, 56
13, 415429, Note_off_c, 12, 48, 56
13, 415439, Note_on_c, 12, 48, 78
13, 415440, Note_on_c, 12, 52, 78
13, 415487, Note_off_c, 12, 48, 56
13, 415488, Note_off_c, 12, 52, 56
13, 415500, Note_on_c, 12, 52, 78
13, 415502, Note_on_c, 12, 48, 78
13, 415548, Note_off_c, 12, 52, 56
13, 415550, Note_off_c, 12, 48, 56
13, 415558, Note_on_c, 12, 59, 73
13, 415558, Note_on_c, 12, 48, 78
13, 415559, Note_on_c, 12, 52, 78
13, 415562, Note_off_c, 12, 60, 64
13, 415606, Note_off_c, 12, 48, 56
13, 415607, Note_off_c, 12, 52, 56
13, 415619, Note_on_c, 12, 48, 78
13, 415622, Note_on_c, 12, 52, 78
13, 415654, Note_off_c, 12, 59, 56
13, 415667, Note_off_c, 12, 48, 56
13, 415670, Note_off_c, 12, 52, 56
13, 415679, Note_on_c, 12, 53, 78
13, 415680, Note_on_c, 12, 50, 78
13, 415682, Note_on_c, 12, 57, 73
13, 415727, Note_off_c, 12, 53, 56
13, 415728, Note_off_c, 12, 50, 56
13, 415740, Note_on_c, 12, 50, 78
13, 415741, Note_on_c, 12, 53, 78
13, 415778, Note_off_c, 12, 57, 56
13, 415788, Note_off_c, 12, 50, 56
13, 415789, Note_off_c, 12, 53, 56
13, 415799, Note_on_c, 12, 55, 73
13, 415800, Note_on_c, 12, 50, 78
13, 415801, Note_on_c, 12, 53, 78
13, 415801, Note_on_c, 12, 31, 73
13, 415848, Note_off_c, 12, 50, 56
13, 415849, Note_off_c, 12, 53, 56
13, 415860, Note_on_c, 12, 50, 78
13, 415862, Note_on_c, 12, 53, 78
13, 415895, Note_off_c, 12, 55, 56
13, 415897, Note_off_c, 12, 31, 56
13, 415908, Note_off_c, 12, 50, 56
13, 415910, Note_off_c, 12, 53, 56
13, 415918, Note_on_c, 12, 31, 73
13, 415920, Note_on_c, 12, 50, 78
13, 415921, Note_on_c, 12, 55, 73
13, 415922, Note_on_c, 12, 53, 78
13, 415968, Note_off_c, 12, 50, 56
13, 415970, Note_off_c, 12, 53, 56
13, 415979, Note_on_c, 12, 53, 78
13, 415981, Note_on_c, 12, 50, 78
13, 416014, Note_off_c, 12, 31, 56
13, 416017, Note_off_c, 12, 55, 56
13, 416027, Note_off_c, 12, 53, 56
13, 416029, Note_off_c, 12, 50, 56
13, 416038, Note_on_c, 12, 53, 78
13, 416039, Note_on_c, 12, 55, 73
13, 416039, Note_on_c, 12, 50, 78
13, 416041, Note_on_c, 12, 31, 73
13, 416086, Note_off_c, 12, 53, 56
13, 416087, Note_off_c, 12, 50, 56
13, 416101, Note_on_c, 12, 50, 78
13, 416101, Note_on_c, 12, 53, 78
13, 416135, Note_off_c, 12, 55, 56
13, 416137, Note_off_c, 12, 31, 56
13, 416149, Note_off_c, 12, 53, 56
13, 416149, Note_off_c, 12, 50, 56
13, 416159, Note_on_c, 12, 52, 78
13, 416159, Note_on_c, 12, 36, 73
13, 416160, Note_on_c, 12, 48, 78
13, 416161, Note_on_c, 12, 60, 73
13, 416207, Note_off_c, 12, 52, 56
13, 416208, Note_off_c, 12, 48, 56
13, 416219, Note_on_c, 12, 52, 78
13, 416221, Note_on_c, 12, 48, 78
13, 416255, Note_off_c, 12, 36, 56
13, 416267, Note_off_c, 12, 52, 56
13, 416269, Note_off_c, 12, 48, 56
13, 416278, Note_on_c, 12, 48, 78
13, 416279, Note_on_c, 12, 52, 78
13, 416326, Note_off_c, 12, 48, 56
13, 416327, Note_off_c, 12, 52, 56
13, 416338, Note_on_c, 12, 52, 78
13, 416342, Note_on_c, 12, 48, 78
13, 416386, Note_off_c, 12, 52, 56
13, 416390, Note_off_c, 12, 48, 56
13, 416398, Note_on_c, 12, 48, 78
13, 416401, Note_on_c, 12, 52, 78
13, 416446, Note_off_c, 12, 48, 56
13, 416449, Note_off_c, 12, 52, 56
13, 416449, Note_off_c, 12, 60, 64
13, 416462, Note_on_c, 12, 48, 78
13, 416462, Note_on_c, 12, 52, 78
13, 416510, Note_off_c, 12, 52, 56
13, 416510, Note_off_c, 12, 48, 56
13, 416520, Note_on_c, 12, 48, 78
13, 416522, Note_on_c, 12, 59, 73
13, 416522, Note_on_c, 12, 52, 78
13, 416568, Note_off_c, 12, 48, 56
13, 416570, Note_off_c, 12, 52, 56
13, 416579, Note_on_c, 12, 48, 78
13, 416582, Note_on_c, 12, 52, 78
13, 416618, Note_off_c, 12, 59, 56
13, 416627, Note_off_c, 12, 48, 56
13, 416630, Note_off_c, 12, 52, 56
13, 416639, Note_on_c, 12, 57, 73
13, 416640, Note_on_c, 12, 50, 78
13, 416641, Note_on_c, 12, 53, 78
13, 416688, Note_off_c, 12, 50, 56
13, 416689, Note_off_c, 12, 53, 56
13, 416700, Note_on_c, 12, 53, 78
13, 416701, Note_on_c, 12, 50, 78
13, 416735, Note_off_c, 12, 57, 56
13, 416748, Note_off_c, 12, 53, 56
13, 416749, Note_off_c, 12, 50, 56
13, 416759, Note_on_c, 12, 50, 78
13, 416759, Note_on_c, 12, 31, 73
13, 416761, Note_on_c, 12, 53, 78
13, 416762, Note_on_c, 12, 55, 73
13, 416807, Note_off_c, 12, 50, 56
13, 416809, Note_off_c, 12, 53, 56
13, 416818, Note_on_c, 12, 50, 78
13, 416819, Note_on_c, 12, 53, 78
13, 416855, Note_off_c, 12, 31, 56
13, 416858, Note_off_c, 12, 55, 56
13, 416866, Note_off_c, 12, 50, 56
13, 416867, Note_off_c, 12, 53, 56
13, 416878, Note_on_c, 12, 53, 78
13, 416879, Note_on_c, 12, 55, 73
13, 416880, Note_on_c, 12, 50, 78
13, 416881, Note_on_c, 12, 31, 73
13, 416926, Note_off_c, 12, 53, 56
13, 416928, Note_off_c, 12, 50, 56
13, 416938, Note_on_c, 12, 50, 78
13, 416939, Note_on_c, 12, 53, 78
13, 416975, Note_off_c, 12, 55, 56
13, 416977, Note_off_c, 12, 31, 56
13, 416986, Note_off_c, 12, 50, 56
13, 416987, Note_off_c, 12, 53, 56
13, 417000, Note_on_c, 12, 55, 73
13, 417000, Note_on_c, 12, 31, 73
13, 417000, Note_on_c, 12, 50, 78
13, 417001, Note_on_c, 12, 53, 78
13, 417048, Note_off_c, 12, 50, 56
13, 417049, Note_off_c, 12, 53, 56
13, 417058, Note_on_c, 12, 53, 78
13, 417060, Note_on_c, 12, 50, 78
13, 417096, Note_off_c, 12, 31, 56
13, 417096, Note_off_c, 12, 55, 56
13, 417106, Note_off_c, 12, 53, 56
13, 417108, Note_off_c, 12, 50, 56
13, 417118, Note_on_c, 12, 52, 78
13, 417118, Note_on_c, 12, 64, 73
13, 417118, Note_on_c, 12, 36, 73
13, 417121, Note_on_c, 12, 48, 78
13, 417166, Note_off_c, 12, 52, 56
13, 417169, Note_off_c, 12, 48, 56
13, 417182, Note_on_c, 12, 48, 78
13, 417182, Note_on_c, 12, 52, 78
13, 417214, Note_off_c, 12, 36, 56
13, 417230, Note_off_c, 12, 52, 56
13, 417230, Note_off_c, 12, 48, 56
13, 417239, Note_on_c, 12, 48, 78
13, 417242, Note_on_c, 12, 52, 78
13, 417287, Note_off_c, 12, 48, 56
13, 417290, Note_off_c, 12, 52, 56
13, 417298, Note_on_c, 12, 52, 78
13, 417299, Note_on_c, 12, 48, 78
13, 417346, Note_off_c, 12, 52, 56
13, 417347, Note_off_c, 12, 48, 56
13, 417361, Note_on_c, 12, 48, 78
13, 417362, Note_on_c, 12, 52, 78
13, 417406, Note_off_c, 12, 64, 64
13, 417409, Note_off_c, 12, 48, 56
13, 417410, Note_off_c, 12, 52, 56
13, 417421, Note_on_c, 12, 48, 78
13, 417422, Note_on_c, 12, 52, 78
13, 417469, Note_off_c, 12, 48, 56
13, 417470, Note_off_c, 12, 52, 56
13, 417478, Note_on_c, 12, 62, 73
13, 417480, Note_on_c, 12, 48, 78
13, 417482, Note_on_c, 12, 52, 78
13, 417528, Note_off_c, 12, 48, 56
13, 417530, Note_off_c, 12, 52, 56
13, 417538, Note_on_c, 12, 52, 78
13, 417539, Note_on_c, 12, 48, 78
13, 417574, Note_off_c, 12, 62, 56
13, 417586, Note_off_c, 12, 52, 56
13, 417587, Note_off_c, 12, 48, 56
13, 417599, Note_on_c, 12, 50, 78
13, 417600, Note_on_c, 12, 60, 73
13, 417600, Note_on_c, 12, 53, 78
13, 417647, Note_off_c, 12, 50, 56
13, 417648, Note_off_c, 12, 53, 56
13, 417660, Note_on_c, 12, 53, 78
13, 417662, Note_on_c, 12, 50, 78
13, 417696, Note_off_c, 12, 60, 56
13, 417708, Note_off_c, 12, 53, 56
13, 417710, Note_off_c, 12, 50, 56
13, 417720, Note_on_c, 12, 59, 73
13, 417721, Note_on_c, 12, 53, 78
13, 417721, Note_on_c, 12, 50, 78
13, 417722, Note_on_c, 12, 31, 73
13, 417769, Note_off_c, 12, 50, 56
13, 417769, Note_off_c, 12, 53, 56
13, 417778, Note_on_c, 12, 53, 78
13, 417781, Note_on_c, 12, 50, 78
13, 417816, Note_off_c, 12, 59, 56
13, 417818, Note_off_c, 12, 31, 56
13, 417826, Note_off_c, 12, 53, 56
13, 417829, Note_off_c, 12, 50, 56
13, 417839, Note_on_c, 12, 53, 78
13, 417839, Note_on_c, 12, 31, 73
13, 417840, Note_on_c, 12, 59, 73
13, 417840, Note_on_c, 12, 50, 78
13, 417887, Note_off_c, 12, 53, 56
13, 417888, Note_off_c, 12, 50, 56
13, 417899, Note_on_c, 12, 50, 78
13, 417899, Note_on_c, 12, 53, 78
13, 417935, Note_off_c, 12, 31, 56
13, 417936, Note_off_c, 12, 59, 56
13, 417947, Note_off_c, 12, 53, 56
13, 417947, Note_off_c, 12, 50, 56
13, 417959, Note_on_c, 12, 50, 78
13, 417960, Note_on_c, 12, 53, 78
13, 417962, Note_on_c, 12, 59, 73
13, 417962, Note_on_c, 12, 31, 73
13, 418007, Note_off_c, 12, 50, 56
13, 418008, Note_off_c, 12, 53, 56
13, 418018, Note_on_c, 12, 50, 78
13, 418020, Note_on_c, 12, 53, 78
13, 418058, Note_off_c, 12, 31, 56
13, 418058, Note_off_c, 12, 59, 56
13, 418066, Note_off_c, 12, 50, 56
13, 418068, Note_off_c, 12, 53, 56
13, 418078, Note_on_c, 12, 48, 78
13, 418079, Note_on_c, 12, 52, 78
13, 418079, Note_on_c, 12, 36, 73
13, 418081, Note_on_c, 12, 64, 73
13, 418126, Note_off_c, 12, 48, 56
13, 418127, Note_off_c, 12, 52, 56
13, 418141, Note_on_c, 12, 52, 78
13, 418142, Note_on_c, 12, 48, 78
13, 418175, Note_off_c, 12, 36, 56
13, 418189, Note_off_c, 12, 52, 56
13, 418190, Note_off_c, 12, 48, 56
13, 418199, Note_on_c, 12, 48, 78
13, 418200, Note_on_c, 12, 52, 78
13, 418247, Note_off_c, 12, 48, 56
13, 418248, Note_off_c, 12, 52, 56
13, 418258, Note_on_c, 12, 48, 78
13, 418262, Note_on_c, 12, 52, 78
13, 418306, Note_off_c, 12, 48, 56
13, 418310, Note_off_c, 12, 52, 56
13, 418318, Note_on_c, 12, 52, 78
13, 418320, Note_on_c, 12, 48, 78
13, 418366, Note_off_c, 12, 52, 56
13, 418368, Note_off_c, 12, 48, 56
13, 418369, Note_off_c, 12, 64, 64
13, 418379, Note_on_c, 12, 48, 78
13, 418381, Note_on_c, 12, 52, 78
13, 418427, Note_off_c, 12, 48, 56
13, 418429, Note_off_c, 12, 52, 56
13, 418438, Note_on_c, 12, 48, 78
13, 418440, Note_on_c, 12, 52, 78
13, 418441, Note_on_c, 12, 62, 73
13, 418486, Note_off_c, 12, 48, 56
13, 418488, Note_off_c, 12, 52, 56
13, 418498, Note_on_c, 12, 52, 78
13, 418498, Note_on_c, 12, 48, 78
13, 418537, Note_off_c, 12, 62, 56
13, 418546, Note_off_c, 12, 48, 56
13, 418546, Note_off_c, 12, 52, 56
13, 418559, Note_on_c, 12, 60, 73
13, 418559, Note_on_c, 12, 50, 78
13, 418562, Note_on_c, 12, 53, 78
13, 418607, Note_off_c, 12, 50, 56
13, 418610, Note_off_c, 12, 53, 56
13, 418620, Note_on_c, 12, 53, 78
13, 418620, Note_on_c, 12, 50, 78
13, 418655, Note_off_c, 12, 60, 56
13, 418668, Note_off_c, 12, 50, 56
13, 418668, Note_off_c, 12, 53, 56
13, 418678, Note_on_c, 12, 53, 78
13, 418678, Note_on_c, 12, 50, 78
13, 418680, Note_on_c, 12, 59, 73
13, 418681, Note_on_c, 12, 31, 73
13, 418726, Note_off_c, 12, 50, 56
13, 418726, Note_off_c, 12, 53, 56
13, 418739, Note_on_c, 12, 53, 78
13, 418741, Note_on_c, 12, 50, 78
13, 418776, Note_off_c, 12, 59, 56
13, 418777, Note_off_c, 12, 31, 56
13, 418787, Note_off_c, 12, 53, 56
13, 418789, Note_off_c, 12, 50, 56
13, 418799, Note_on_c, 12, 53, 78
13, 418800, Note_on_c, 12, 59, 73
13, 418801, Note_on_c, 12, 50, 78
13, 418801, Note_on_c, 12, 31, 73
13, 418847, Note_off_c, 12, 53, 56
13, 418849, Note_off_c, 12, 50, 56
13, 418858, Note_on_c, 12, 53, 78
13, 418860, Note_on_c, 12, 50, 78
13, 418896, Note_off_c, 12, 59, 56
13, 418897, Note_off_c, 12, 31, 56
13, 418906, Note_off_c, 12, 53, 56
13, 418908, Note_off_c, 12, 50, 56
13, 418918, Note_on_c, 12, 50, 78
13, 418918, Note_on_c, 12, 59, 73
13, 418919, Note_on_c, 12, 53, 78
13, 418919, Note_on_c, 12, 31, 73
13, 418966, Note_off_c, 12, 50, 56
13, 418967, Note_off_c, 12, 53, 56
13, 418978, Note_on_c, 12, 53, 78
13, 418980, Note_on_c, 12, 50, 78
13, 419014, Note_off_c, 12, 59, 56
13, 419015, Note_off_c, 12, 31, 56
13, 419026, Note_off_c, 12, 53, 56
13, 419028, Note_off_c, 12, 50, 56
13, 419038, Note_on_c, 12, 36, 73
13, 419040, Note_on_c, 12, 72, 73
13, 419040, Note_on_c, 12, 52, 78
13, 419041, Note_on_c, 12, 48, 78
13, 419088, Note_off_c, 12, 52, 56
13, 419089, Note_off_c, 12, 48, 56
13, 419098, Note_on_c, 12, 52, 78
13, 419102, Note_on_c, 12, 48, 78
13, 419134, Note_off_c, 12, 36, 56
13, 419146, Note_off_c, 12, 52, 56
13, 419150, Note_off_c, 12, 48, 56
13, 419160, Note_on_c, 12, 48, 78
13, 419161, Note_on_c, 12, 52, 78
13, 419208, Note_off_c, 12, 48, 56
13, 419209, Note_off_c, 12, 52, 56
13, 419218, Note_on_c, 12, 48, 78
13, 419219, Note_on_c, 12, 52, 78
13, 419266, Note_off_c, 12, 48, 56
13, 419267, Note_off_c, 12, 52, 56
13, 419280, Note_on_c, 12, 48, 78
13, 419281, Note_on_c, 12, 52, 78
13, 419328, Note_off_c, 12, 48, 56
13, 419328, Note_off_c, 12, 72, 64
13, 419329, Note_off_c, 12, 52, 56
13, 419340, Note_on_c, 12, 48, 78
13, 419342, Note_on_c, 12, 52, 78
13, 419388, Note_off_c, 12, 48, 56
13, 419390, Note_off_c, 12, 52, 56
13, 419401, Note_on_c, 12, 71, 73
13, 419401, Note_on_c, 12, 48, 78
13, 419402, Note_on_c, 12, 52, 78
13, 419449, Note_off_c, 12, 48, 56
13, 419450, Note_off_c, 12, 52, 56
13, 419461, Note_on_c, 12, 52, 78
13, 419462, Note_on_c, 12, 48, 78
13, 419497, Note_off_c, 12, 71, 56
13, 419509, Note_off_c, 12, 52, 56
13, 419510, Note_off_c, 12, 48, 56
13, 419518, Note_on_c, 12, 69, 73
13, 419519, Note_on_c, 12, 50, 78
13, 419519, Note_on_c, 12, 53, 78
13, 419567, Note_off_c, 12, 53, 56
13, 419567, Note_off_c, 12, 50, 56
13, 419578, Note_on_c, 12, 53, 78
13, 419582, Note_on_c, 12, 50, 78
13, 419614, Note_off_c, 12, 69, 56
13, 419626, Note_off_c, 12, 53, 56
13, 419630, Note_off_c, 12, 50, 56
13, 419638, Note_on_c, 12, 67, 73
13, 419640, Note_on_c, 12, 53, 78
13, 419640, Note_on_c, 12, 50, 78
13, 419641, Note_on_c, 12, 31, 73
13, 419688, Note_off_c, 12, 50, 56
13, 419688, Note_off_c, 12, 53, 56
13, 419701, Note_on_c, 12, 50, 78
13, 419702, Note_on_c, 12, 53, 78
13, 419734, Note_off_c, 12, 67, 56
13, 419737, Note_off_c, 12, 31, 56
13, 419749, Note_off_c, 12, 50, 56
13, 419750, Note_off_c, 12, 53, 56
13, 419758, Note_on_c, 12, 50, 78
13, 419759, Note_on_c, 12, 31, 73
13, 419760, Note_on_c, 12, 53, 78
13, 419761, Note_on_c, 12, 67, 73
13, 419806, Note_off_c, 12, 50, 56
13, 419808, Note_off_c, 12, 53, 56
13, 419822, Note_on_c, 12, 50, 78
13, 419822, Note_on_c, 12, 53, 78
13, 419855, Note_off_c, 12, 31, 56
13, 419857, Note_off_c, 12, 67, 56
13, 419870, Note_off_c, 12, 53, 56
13, 419870, Note_off_c, 12, 50, 56
13, 419878, Note_on_c, 12, 31, 73
13, 419879, Note_on_c, 12, 50, 78
13, 419881, Note_on_c, 12, 67, 73
13, 419882, Note_on_c, 12, 53, 78
13, 419927, Note_off_c, 12, 50, 56
13, 419930, Note_off_c, 12, 53, 56
13, 419938, Note_on_c, 12, 53, 78
13, 419940, Note_on_c, 12, 50, 78
13, 419974, Note_off_c, 12, 31, 56
13, 419977, Note_off_c, 12, 67, 56
13, 419986, Note_off_c, 12, 53, 56
13, 419988, Note_off_c, 12, 50, 56
13, 419998, Note_on_c, 12, 52, 78
13, 419999, Note_on_c, 12, 48, 78
13, 420001, Note_on_c, 12, 36, 73
13, 420002, Note_on_c, 12, 72, 73
13, 420046, Note_off_c, 12, 52, 56
13, 420047, Note_off_c, 12, 48, 56
13, 420058, Note_on_c, 12, 48, 78
13, 420061, Note_on_c, 12, 52, 78
13, 420097, Note_off_c, 12, 36, 56
13, 420106, Note_off_c, 12, 48, 56
13, 420109, Note_off_c, 12, 52, 56
13, 420120, Note_on_c, 12, 48, 78
13, 420121, Note_on_c, 12, 52, 78
13, 420168, Note_off_c, 12, 48, 56
13, 420169, Note_off_c, 12, 52, 56
13, 420182, Note_on_c, 12, 48, 78
13, 420182, Note_on_c, 12, 52, 78
13, 420230, Note_off_c, 12, 52, 56
13, 420230, Note_off_c, 12, 48, 56
13, 420240, Note_on_c, 12, 52, 78
13, 420241, Note_on_c, 12, 48, 78
13, 420288, Note_off_c, 12, 52, 56
13, 420289, Note_off_c, 12, 48, 56
13, 420290, Note_off_c, 12, 72, 65
13, 420298, Note_on_c, 12, 52, 78
13, 420300, Note_on_c, 12, 48, 78
13, 420346, Note_off_c, 12, 52, 56
13, 420348, Note_off_c, 12, 48, 56
13, 420358, Note_on_c, 12, 71, 73
13, 420359, Note_on_c, 12, 52, 78
13, 420361, Note_on_c, 12, 48, 78
13, 420407, Note_off_c, 12, 52, 56
13, 420409, Note_off_c, 12, 48, 56
13, 420419, Note_on_c, 12, 48, 78
13, 420419, Note_on_c, 12, 52, 78
13, 420454, Note_off_c, 12, 71, 56
13, 420467, Note_off_c, 12, 52, 56
13, 420467, Note_off_c, 12, 48, 56
13, 420478, Note_on_c, 12, 50, 78
13, 420479, Note_on_c, 12, 69, 73
13, 420480, Note_on_c, 12, 53, 78
13, 420526, Note_off_c, 12, 50, 56
13, 420528, Note_off_c, 12, 53, 56
13, 420541, Note_on_c, 12, 50, 78
13, 420542, Note_on_c, 12, 53, 78
13, 420575, Note_off_c, 12, 69, 56
13, 420589, Note_off_c, 12, 50, 56
13, 420590, Note_off_c, 12, 53, 56
13, 420598, Note_on_c, 12, 67, 73
13, 420599, Note_on_c, 12, 53, 78
13, 420599, Note_on_c, 12, 31, 73
13, 420601, Note_on_c, 12, 50, 78
13, 420647, Note_off_c, 12, 53, 56
13, 420649, Note_off_c, 12, 50, 56
13, 420658, Note_on_c, 12, 53, 78
13, 420659, Note_on_c, 12, 50, 78
13, 420694, Note_off_c, 12, 67, 56
13, 420695, Note_off_c, 12, 31, 56
13, 420706, Note_off_c, 12, 53, 56
13, 420707, Note_off_c, 12, 50, 56
13, 420719, Note_on_c, 12, 67, 73
13, 420719, Note_on_c, 12, 50, 78
13, 420720, Note_on_c, 12, 53, 78
13, 420722, Note_on_c, 12, 31, 73
13, 420767, Note_off_c, 12, 50, 56
13, 420768, Note_off_c, 12, 53, 56
13, 420778, Note_on_c, 12, 50, 78
13, 420779, Note_on_c, 12, 53, 78
13, 420815, Note_off_c, 12, 67, 56
13, 420818, Note_off_c, 12, 31, 56
13, 420826, Note_off_c, 12, 50, 56
13, 420827, Note_off_c, 12, 53, 56
13, 420838, Note_on_c, 12, 31, 73
13, 420839, Note_on_c, 12, 50, 78
13, 420841, Note_on_c, 12, 67, 73
13, 420841, Note_on_c, 12, 53, 78
13, 420887, Note_off_c, 12, 50, 56
13, 420889, Note_off_c, 12, 53, 56
13, 420900, Note_on_c, 12, 50, 78
13, 420901, Note_on_c, 12, 53, 78
13, 420934, Note_off_c, 12, 31, 56
13, 420937, Note_off_c, 12, 67, 56
13, 420948, Note_off_c, 12, 50, 56
13, 420949, Note_off_c, 12, 53, 56
13, 420958, Note_on_c, 12, 36, 73
13, 420961, Note_on_c, 12, 48, 78
13, 420962, Note_on_c, 12, 76, 73
13, 420962, Note_on_c, 12, 52, 78
13, 421009, Note_off_c, 12, 48, 56
13, 421010, Note_off_c, 12, 52, 56
13, 421018, Note_on_c, 12, 48, 78
13, 421022, Note_on_c, 12, 52, 78
13, 421054, Note_off_c, 12, 36, 56
13, 421066, Note_off_c, 12, 48, 56
13, 421070, Note_off_c, 12, 52, 56
13, 421078, Note_on_c, 12, 52, 78
13, 421079, Note_on_c, 12, 48, 78
13, 421126, Note_off_c, 12, 52, 56
13, 421127, Note_off_c, 12, 48, 56
13, 421138, Note_on_c, 12, 48, 78
13, 421140, Note_on_c, 12, 52, 78
13, 421186, Note_off_c, 12, 48, 56
13, 421188, Note_off_c, 12, 52, 56
13, 421201, Note_on_c, 12, 48, 78
13, 421202, Note_on_c, 12, 52, 78
13, 421249, Note_off_c, 12, 48, 56
13, 421250, Note_off_c, 12, 52, 56
13, 421250, Note_off_c, 12, 76, 65
13, 421258, Note_on_c, 12, 52, 78
13, 421260, Note_on_c, 12, 48, 78
13, 421306, Note_off_c, 12, 52, 56
13, 421308, Note_off_c, 12, 48, 56
13, 421321, Note_on_c, 12, 74, 73
13, 421321, Note_on_c, 12, 48, 78
13, 421321, Note_on_c, 12, 52, 78
13, 421369, Note_off_c, 12, 52, 56
13, 421369, Note_off_c, 12, 48, 56
13, 421379, Note_on_c, 12, 48, 78
13, 421380, Note_on_c, 12, 52, 78
13, 421417, Note_off_c, 12, 74, 56
13, 421427, Note_off_c, 12, 48, 56
13, 421428, Note_off_c, 12, 52, 56
13, 421440, Note_on_c, 12, 72, 73
13, 421440, Note_on_c, 12, 50, 78
13, 421441, Note_on_c, 12, 53, 78
13, 421488, Note_off_c, 12, 50, 56
13, 421489, Note_off_c, 12, 53, 56
13, 421498, Note_on_c, 12, 53, 78
13, 421499, Note_on_c, 12, 50, 78
13, 421536, Note_off_c, 12, 72, 56
13, 421546, Note_off_c, 12, 53, 56
13, 421547, Note_off_c, 12, 50, 56
13, 421558, Note_on_c, 12, 53, 78
13, 421560, Note_on_c, 12, 50, 78
13, 421560, Note_on_c, 12, 31, 73
13, 421562, Note_on_c, 12, 71, 73
13, 421606, Note_off_c, 12, 53, 56
13, 421608, Note_off_c, 12, 50, 56
13, 421620, Note_on_c, 12, 53, 78
13, 421620, Note_on_c, 12, 50, 78
13, 421656, Note_off_c, 12, 31, 56
13, 421658, Note_off_c, 12, 71, 56
13, 421668, Note_off_c, 12, 50, 56
13, 421668, Note_off_c, 12, 53, 56
13, 421679, Note_on_c, 12, 71, 73
13, 421679, Note_on_c, 12, 50, 78
13, 421681, Note_on_c, 12, 53, 78
13, 421681, Note_on_c, 12, 31, 73
13, 421727, Note_off_c, 12, 50, 56
13, 421729, Note_off_c, 12, 53, 56
13, 421739, Note_on_c, 12, 50, 78
13, 421741, Note_on_c, 12, 53, 78
13, 421775, Note_off_c, 12, 71, 56
13, 421777, Note_off_c, 12, 31, 56
13, 421787, Note_off_c, 12, 50, 56
13, 421789, Note_off_c, 12, 53, 56
13, 421798, Note_on_c, 12, 53, 78
13, 421801, Note_on_c, 12, 71, 73
13, 421802, Note_on_c, 12, 50, 78
13, 421802, Note_on_c, 12, 31, 73
13, 421846, Note_off_c, 12, 53, 56
13, 421850, Note_off_c, 12, 50, 56
13, 421858, Note_on_c, 12, 53, 78
13, 421861, Note_on_c, 12, 50, 78
13, 421897, Note_off_c, 12, 71, 56
13, 421898, Note_off_c, 12, 31, 56
13, 421906, Note_off_c, 12, 53, 56
13, 421909, Note_off_c, 12, 50, 56
13, 421918, Note_on_c, 12, 36, 73
13, 421919, Note_on_c, 12, 48, 78
13, 421921, Note_on_c, 12, 76, 73
13, 421922, Note_on_c, 12, 52, 78
13, 421967, Note_off_c, 12, 48, 56
13, 421970, Note_off_c, 12, 52, 56
13, 421980, Note_on_c, 12, 48, 78
13, 421981, Note_on_c, 12, 52, 78
13, 422014, Note_off_c, 12, 36, 56
13, 422028, Note_off_c, 12, 48, 56
13, 422029, Note_off_c, 12, 52, 56
13, 422039, Note_on_c, 12, 52, 78
13, 422039, Note_on_c, 12, 48, 78
13, 422087, Note_off_c, 12, 48, 56
13, 422087, Note_off_c, 12, 52, 56
13, 422100, Note_on_c, 12, 48, 78
13, 422101, Note_on_c, 12, 52, 78
13, 422148, Note_off_c, 12, 48, 56
13, 422149, Note_off_c, 12, 52, 56
13, 422158, Note_on_c, 12, 48, 78
13, 422159, Note_on_c, 12, 52, 78
13, 422206, Note_off_c, 12, 48, 56
13, 422207, Note_off_c, 12, 52, 56
13, 422209, Note_off_c, 12, 76, 65
13, 422219, Note_on_c, 12, 52, 78
13, 422220, Note_on_c, 12, 48, 78
13, 422267, Note_off_c, 12, 52, 56
13, 422268, Note_off_c, 12, 48, 56
13, 422279, Note_on_c, 12, 74, 73
13, 422281, Note_on_c, 12, 48, 78
13, 422281, Note_on_c, 12, 52, 78
13, 422329, Note_off_c, 12, 52, 56
13, 422329, Note_off_c, 12, 48, 56
13, 422339, Note_on_c, 12, 52, 78
13, 422340, Note_on_c, 12, 48, 78
13, 422375, Note_off_c, 12, 74, 56
13, 422387, Note_off_c, 12, 52, 56
13, 422388, Note_off_c, 12, 48, 56
13, 422399, Note_on_c, 12, 50, 78
13, 422401, Note_on_c, 12, 53, 78
13, 422402, Note_on_c, 12, 72, 73
13, 422447, Note_off_c, 12, 50, 56
13, 422449, Note_off_c, 12, 53, 56
13, 422460, Note_on_c, 12, 53, 78
13, 422461, Note_on_c, 12, 50, 78
13, 422498, Note_off_c, 12, 72, 56
13, 422508, Note_off_c, 12, 53, 56
13, 422509, Note_off_c, 12, 50, 56
13, 422518, Note_on_c, 12, 50, 78
13, 422519, Note_on_c, 12, 71, 73
13, 422520, Note_on_c, 12, 53, 78
13, 422522, Note_on_c, 12, 31, 73
13, 422566, Note_off_c, 12, 50, 56
13, 422568, Note_off_c, 12, 53, 56
13, 422578, Note_on_c, 12, 53, 78
13, 422580, Note_on_c, 12, 50, 78
13, 422615, Note_off_c, 12, 71, 56
13, 422618, Note_off_c, 12, 31, 56
13, 422626, Note_off_c, 12, 53, 56
13, 422628, Note_off_c, 12, 50, 56
13, 422638, Note_on_c, 12, 31, 73
13, 422639, Note_on_c, 12, 50, 78
13, 422640, Note_on_c, 12, 53, 78
13, 422642, Note_on_c, 12, 71, 73
13, 422687, Note_off_c, 12, 50, 56
13, 422688, Note_off_c, 12, 53, 56
13, 422698, Note_on_c, 12, 53, 78
13, 422701, Note_on_c, 12, 50, 78
13, 422734, Note_off_c, 12, 31, 56
13, 422738, Note_off_c, 12, 71, 56
13, 422746, Note_off_c, 12, 53, 56
13, 422749, Note_off_c, 12, 50, 56
13, 422759, Note_on_c, 12, 50, 78
13, 422761, Note_on_c, 12, 31, 73
13, 422762, Note_on_c, 12, 53, 78
13, 422762, Note_on_c, 12, 71, 73
13, 422807, Note_off_c, 12, 50, 56
13, 422810, Note_off_c, 12, 53, 56
13, 422818, Note_on_c, 12, 50, 78
13, 422819, Note_on_c, 12, 53, 78
13, 422857, Note_off_c, 12, 31, 56
13, 422858, Note_off_c, 12, 71, 56
13, 422866, Note_off_c, 12, 50, 56
13, 422867, Note_off_c, 12, 53, 56
13, 422879, Note_on_c, 12, 79, 73
13, 422882, Note_on_c, 12, 64, 73
13, 422882, Note_on_c, 12, 46, 73
13, 422975, Note_off_c, 12, 79, 56
13, 422978, Note_off_c, 12, 46, 56
13, 422978, Note_off_c, 12, 64, 56
13, 423118, Note_on_c, 12, 64, 74
13, 423119, Note_on_c, 12, 79, 74
13, 423122, Note_on_c, 12, 46, 74
13, 423214, Note_off_c, 12, 64, 56
13, 423215, Note_off_c, 12, 79, 56
13, 423218, Note_off_c, 12, 46, 56
13, 423358, Note_on_c, 12, 79, 75
13, 423358, Note_on_c, 12, 44, 75
13, 423358, Note_on_c, 12, 60, 75
13, 423454, Note_off_c, 12, 60, 56
13, 423454, Note_off_c, 12, 44, 56
13, 423454, Note_off_c, 12, 79, 56
13, 423599, Note_on_c, 12, 44, 78
13, 423602, Note_on_c, 12, 77, 78
13, 423602, Note_on_c, 12, 60, 78
13, 423695, Note_off_c, 12, 44, 56
13, 423698, Note_off_c, 12, 60, 56
13, 423698, Note_off_c, 12, 77, 56
13, 423839, Note_on_c, 12, 62, 79
13, 423839, Note_on_c, 12, 43, 79
13, 423840, Note_on_c, 12, 77, 79
13, 423935, Note_off_c, 12, 43, 56
13, 423935, Note_off_c, 12, 62, 56
13, 423936, Note_off_c, 12, 77, 56
13, 424079, Note_on_c, 12, 43, 80
13, 424080, Note_on_c, 12, 76, 80
13, 424080, Note_on_c, 12, 64, 80
13, 424175, Note_off_c, 12, 43, 56
13, 424176, Note_off_c, 12, 64, 56
13, 424176, Note_off_c, 12, 76, 56
13, 424318, Note_on_c, 12, 43, 81
13, 424320, Note_on_c, 12, 74, 81
13, 424320, Note_on_c, 12, 65, 81
13, 424414, Note_off_c, 12, 43, 56
13, 424416, Note_off_c, 12, 65, 56
13, 424416, Note_off_c, 12, 74, 56
13, 424559, Note_on_c, 12, 64, 83
13, 424559, Note_on_c, 12, 46, 83
13, 424561, Note_on_c, 12, 79, 83
13, 424655, Note_off_c, 12, 46, 56
13, 424655, Note_off_c, 12, 64, 56
13, 424657, Note_off_c, 12, 79, 56
13, 424798, Note_on_c, 12, 79, 85
13, 424798, Note_on_c, 12, 46, 85
13, 424800, Note_on_c, 12, 64, 90
13, 424848, Note_off_c, 12, 64, 56
13, 424859, Note_on_c, 12, 64, 90
13, 424894, Note_off_c, 12, 46, 56
13, 424894, Note_off_c, 12, 79, 56
13, 424907, Note_off_c, 12, 64, 56
13, 424920, Note_on_c, 12, 64, 86
13, 425016, Note_off_c, 12, 64, 56
13, 425039, Note_on_c, 12, 79, 86
13, 425040, Note_on_c, 12, 46, 86
13, 425042, Note_on_c, 12, 64, 91
13, 425090, Note_off_c, 12, 64, 56
13, 425099, Note_on_c, 12, 64, 91
13, 425135, Note_off_c, 12, 79, 56
13, 425136, Note_off_c, 12, 46, 56
13, 425147, Note_off_c, 12, 64, 56
13, 425158, Note_on_c, 12, 64, 87
13, 425254, Note_off_c, 12, 64, 56
13, 425279, Note_on_c, 12, 65, 92
13, 425280, Note_on_c, 12, 44, 87
13, 425282, Note_on_c, 12, 79, 87
13, 425327, Note_off_c, 12, 65, 56
13, 425339, Note_on_c, 12, 65, 93
13, 425376, Note_off_c, 12, 44, 56
13, 425378, Note_off_c, 12, 79, 56
13, 425387, Note_off_c, 12, 65, 56
13, 425399, Note_on_c, 12, 65, 88
13, 425495, Note_off_c, 12, 65, 56
13, 425518, Note_on_c, 12, 65, 94
13, 425521, Note_on_c, 12, 77, 89
13, 425521, Note_on_c, 12, 44, 89
13, 425566, Note_off_c, 12, 65, 56
13, 425582, Note_on_c, 12, 65, 94
13, 425617, Note_off_c, 12, 44, 56
13, 425617, Note_off_c, 12, 77, 56
13, 425630, Note_off_c, 12, 65, 56
13, 425640, Note_on_c, 12, 65, 89
13, 425736, Note_off_c, 12, 65, 56
13, 425758, Note_on_c, 12, 77, 90
13, 425759, Note_on_c, 12, 43, 90
13, 425760, Note_on_c, 12, 62, 95
13, 425808, Note_off_c, 12, 62, 56
13, 425821, Note_on_c, 12, 62, 95
13, 425854, Note_off_c, 12, 77, 56
13, 425855, Note_off_c, 12, 43, 56
13, 425869, Note_off_c, 12, 62, 56
13, 425878, Note_on_c, 12, 62, 92
13, 425974, Note_off_c, 12, 62, 56
13, 426000, Note_on_c, 12, 64, 97
13, 426001, Note_on_c, 12, 43, 92
13, 426002, Note_on_c, 12, 76, 92
13, 426048, Note_off_c, 12, 64, 56
13, 426058, Note_on_c, 12, 64, 97
13, 426097, Note_off_c, 12, 43, 56
13, 426098, Note_off_c, 12, 76, 56
13, 426106, Note_off_c, 12, 64, 56
13, 426118, Note_on_c, 12, 64, 93
13, 426214, Note_off_c, 12, 64, 56
13, 426241, Note_on_c, 12, 65, 98
13, 426241, Note_on_c, 12, 43, 93
13, 426242, Note_on_c, 12, 74, 93
13, 426289, Note_off_c, 12, 65, 56
13, 426301, Note_on_c, 12, 65, 99
13, 426337, Note_off_c, 12, 43, 56
13, 426338, Note_off_c, 12, 74, 56
13, 426349, Note_off_c, 12, 65, 56
13, 426359, Note_on_c, 12, 65, 94
13, 426455, Note_off_c, 12, 65, 56
13, 426479, Note_on_c, 12, 79, 100
13, 426481, Note_on_c, 12, 64, 100
13, 426482, Note_on_c, 12, 46, 95
13, 426527, Note_off_c, 12, 79, 56
13, 426529, Note_off_c, 12, 64, 56
13, 426538, Note_on_c, 12, 79, 100
13, 426541, Note_on_c, 12, 64, 100
13, 426578, Note_off_c, 12, 46, 56
13, 426586, Note_off_c, 12, 79, 56
13, 426589, Note_off_c, 12, 64, 56
13, 426598, Note_on_c, 12, 79, 100
13, 426599, Note_on_c, 12, 64, 100
13, 426601, Note_on_c, 12, 46, 95
13, 426646, Note_off_c, 12, 79, 56
13, 426647, Note_off_c, 12, 64, 56
13, 426661, Note_on_c, 12, 64, 101
13, 426661, Note_on_c, 12, 79, 101
13, 426697, Note_off_c, 12, 46, 56
13, 426709, Note_off_c, 12, 79, 56
13, 426709, Note_off_c, 12, 64, 56
13, 426718, Note_on_c, 12, 46, 96
13, 426720, Note_on_c, 12, 64, 101
13, 426722, Note_on_c, 12, 79, 101
13, 426768, Note_off_c, 12, 64, 56
13, 426770, Note_off_c, 12, 79, 56
13, 426780, Note_on_c, 12, 79, 101
13, 426781, Note_on_c, 12, 64, 101
13, 426814, Note_off_c, 12, 46, 56
13, 426828, Note_off_c, 12, 79, 56
13, 426829, Note_off_c, 12, 64, 56
13, 426839, Note_on_c, 12, 46, 96
13, 426841, Note_on_c, 12, 79, 101
13, 426842, Note_on_c, 12, 64, 101
13, 426889, Note_off_c, 12, 79, 56
13, 426890, Note_off_c, 12, 64, 56
13, 426900, Note_on_c, 12, 79, 102
13, 426901, Note_on_c, 12, 64, 102
13, 426935, Note_off_c, 12, 46, 56
13, 426948, Note_off_c, 12, 79, 56
13, 426949, Note_off_c, 12, 64, 56
13, 426958, Note_on_c, 12, 79, 102
13, 426961, Note_on_c, 12, 64, 102
13, 426961, Note_on_c, 12, 46, 97
13, 427006, Note_off_c, 12, 79, 56
13, 427009, Note_off_c, 12, 64, 56
13, 427019, Note_on_c, 12, 79, 102
13, 427020, Note_on_c, 12, 64, 102
13, 427057, Note_off_c, 12, 46, 56
13, 427067, Note_off_c, 12, 79, 56
13, 427068, Note_off_c, 12, 64, 56
13, 427081, Note_on_c, 12, 79, 103
13, 427081, Note_on_c, 12, 64, 103
13, 427082, Note_on_c, 12, 46, 98
13, 427129, Note_off_c, 12, 64, 56
13, 427129, Note_off_c, 12, 79, 56
13, 427138, Note_on_c, 12, 79, 103
13, 427142, Note_on_c, 12, 64, 103
13, 427178, Note_off_c, 12, 46, 56
13, 427186, Note_off_c, 12, 79, 56
13, 427190, Note_off_c, 12, 64, 56
13, 427200, Note_on_c, 12, 44, 98
13, 427201, Note_on_c, 12, 65, 103
13, 427202, Note_on_c, 12, 79, 103
13, 427249, Note_off_c, 12, 65, 56
13, 427250, Note_off_c, 12, 79, 56
13, 427261, Note_on_c, 12, 79, 105
13, 427261, Note_on_c, 12, 65, 105
13, 427296, Note_off_c, 12, 44, 56
13, 427309, Note_off_c, 12, 65, 56
13, 427309, Note_off_c, 12, 79, 56
13, 427318, Note_on_c, 12, 79, 105
13, 427319, Note_on_c, 12, 44, 100
13, 427320, Note_on_c, 12, 65, 105
13, 427366, Note_off_c, 12, 79, 56
13, 427368, Note_off_c, 12, 65, 56
13, 427381, Note_on_c, 12, 65, 105
13, 427382, Note_on_c, 12, 79, 105
13, 427415, Note_off_c, 12, 44, 56
13, 427429, Note_off_c, 12, 65, 56
13, 427430, Note_off_c, 12, 79, 56
13, 427439, Note_on_c, 12, 44, 101
13, 427440, Note_on_c, 12, 65, 106
13, 427441, Note_on_c, 12, 77, 106
13, 427488, Note_off_c, 12, 65, 56
13, 427489, Note_off_c, 12, 77, 56
13, 427499, Note_on_c, 12, 65, 106
13, 427502, Note_on_c, 12, 77, 106
13, 427535, Note_off_c, 12, 44, 56
13, 427547, Note_off_c, 12, 65, 56
13, 427550, Note_off_c, 12, 77, 56
13, 427559, Note_on_c, 12, 77, 106
13, 427559, Note_on_c, 12, 44, 101
13, 427561, Note_on_c, 12, 65, 106
13, 427607, Note_off_c, 12, 77, 56
13, 427609, Note_off_c, 12, 65, 56
13, 427618, Note_on_c, 12, 77, 107
13, 427620, Note_on_c, 12, 65, 107
13, 427655, Note_off_c, 12, 44, 56
13, 427666, Note_off_c, 12, 77, 56
13, 427668, Note_off_c, 12, 65, 56
13, 427680, Note_on_c, 12, 62, 107
13, 427680, Note_on_c, 12, 77, 107
13, 427681, Note_on_c, 12, 43, 102
13, 427728, Note_off_c, 12, 77, 56
13, 427728, Note_off_c, 12, 62, 56
13, 427738, Note_on_c, 12, 62, 107
13, 427739, Note_on_c, 12, 77, 107
13, 427777, Note_off_c, 12, 43, 56
13, 427786, Note_off_c, 12, 62, 56
13, 427787, Note_off_c, 12, 77, 56
13, 427798, Note_on_c, 12, 77, 107
13, 427798, Note_on_c, 12, 62, 107
13, 427799, Note_on_c, 12, 43, 102
13, 427846, Note_off_c, 12, 62, 56
13, 427846, Note_off_c, 12, 77, 56
13, 427858, Note_on_c, 12, 62, 108
13, 427861, Note_on_c, 12, 77, 108
13, 427895, Note_off_c, 12, 43, 56
13, 427906, Note_off_c, 12, 62, 56
13, 427909, Note_off_c, 12, 77, 56
13, 427921, Note_on_c, 12, 76, 108
13, 427921, Note_on_c, 12, 43, 103
13, 427922, Note_on_c, 12, 60, 108
13, 427969, Note_off_c, 12, 76, 56
13, 427970, Note_off_c, 12, 60, 56
13, 427980, Note_on_c, 12, 60, 108
13, 427981, Note_on_c, 12, 76, 108
13, 428017, Note_off_c, 12, 43, 56
13, 428028, Note_off_c, 12, 60, 56
13, 428029, Note_off_c, 12, 76, 56
13, 428039, Note_on_c, 12, 76, 109
13, 428039, Note_on_c, 12, 43, 104
13, 428040, Note_on_c, 12, 60, 109
13, 428087, Note_off_c, 12, 76, 56
13, 428088, Note_off_c, 12, 60, 56
13, 428098, Note_on_c, 12, 76, 109
13, 428101, Note_on_c, 12, 60, 109
13, 428135, Note_off_c, 12, 43, 56
13, 428146, Note_off_c, 12, 76, 56
13, 428149, Note_off_c, 12, 60, 56
13, 428158, Note_on_c, 12, 65, 109
13, 428161, Note_on_c, 12, 74, 109
13, 428162, Note_on_c, 12, 31, 104
13, 428206, Note_off_c, 12, 65, 56
13, 428209, Note_off_c, 12, 74, 56
13, 428218, Note_on_c, 12, 74, 110
13, 428219, Note_on_c, 12, 65, 110
13, 428258, Note_off_c, 12, 31, 56
13, 428266, Note_off_c, 12, 74, 56
13, 428267, Note_off_c, 12, 65, 56
13, 428278, Note_on_c, 12, 31, 105
13, 428280, Note_on_c, 12, 74, 110
13, 428280, Note_on_c, 12, 65, 110
13, 428328, Note_off_c, 12, 65, 56
13, 428328, Note_off_c, 12, 74, 56
13, 428341, Note_on_c, 12, 74, 110
13, 428342, Note_on_c, 12, 65, 110
13, 428374, Note_off_c, 12, 31, 56
13, 428389, Note_off_c, 12, 74, 56
13, 428390, Note_off_c, 12, 65, 56
13, 428399, Note_on_c, 12, 79, 111
13, 428399, Note_on_c, 12, 31, 106
13, 428401, Note_on_c, 12, 62, 111
13, 428447, Note_off_c, 12, 79, 56
13, 428449, Note_off_c, 12, 62, 56
13, 428458, Note_on_c, 12, 62, 111
13, 428460, Note_on_c, 12, 79, 111
13, 428495, Note_off_c, 12, 31, 56
13, 428506, Note_off_c, 12, 62, 56
13, 428508, Note_off_c, 12, 79, 56
13, 428519, Note_on_c, 12, 79, 111
13, 428520, Note_on_c, 12, 31, 106
13, 428521, Note_on_c, 12, 62, 111
13, 428567, Note_off_c, 12, 79, 56
13, 428569, Note_off_c, 12, 62, 56
13, 428578, Note_on_c, 12, 79, 113
13, 428581, Note_on_c, 12, 62, 113
13, 428616, Note_off_c, 12, 31, 56
13, 428626, Note_off_c, 12, 79, 56
13, 428629, Note_off_c, 12, 62, 56
13, 428639, Note_on_c, 12, 60, 113
13, 428639, Note_on_c, 12, 72, 113
13, 428641, Note_on_c, 12, 36, 108
13, 428687, Note_off_c, 12, 72, 56
13, 428687, Note_off_c, 12, 60, 56
13, 428698, Note_on_c, 12, 52, 113
13, 428702, Note_on_c, 12, 72, 113
13, 428702, Note_on_c, 12, 55, 113
13, 428737, Note_off_c, 12, 36, 56
13, 428746, Note_off_c, 12, 52, 56
13, 428750, Note_off_c, 12, 55, 56
13, 428750, Note_off_c, 12, 72, 56
13, 428760, Note_on_c, 12, 52, 113
13, 428761, Note_on_c, 12, 72, 113
13, 428761, Note_on_c, 12, 55, 113
13, 428808, Note_off_c, 12, 52, 56
13, 428809, Note_off_c, 12, 55, 56
13, 428809, Note_off_c, 12, 72, 56
13, 428818, Note_on_c, 12, 55, 113
13, 428818, Note_on_c, 12, 72, 113
13, 428820, Note_on_c, 12, 52, 113
13, 428866, Note_off_c, 12, 72, 56
13, 428866, Note_off_c, 12, 55, 56
13, 428868, Note_off_c, 12, 52, 56
13, 428878, Note_on_c, 12, 52, 113
13, 428879, Note_on_c, 12, 55, 113
13, 428880, Note_on_c, 12, 76, 113
13, 428926, Note_off_c, 12, 52, 56
13, 428927, Note_off_c, 12, 55, 56
13, 428928, Note_off_c, 12, 76, 56
13, 428938, Note_on_c, 12, 55, 113
13, 428938, Note_on_c, 12, 76, 113
13, 428942, Note_on_c, 12, 52, 113
13, 428986, Note_off_c, 12, 76, 56
13, 428986, Note_off_c, 12, 55, 56
13, 428990, Note_off_c, 12, 52, 56
13, 428998, Note_on_c, 12, 55, 113
13, 429000, Note_on_c, 12, 52, 113
13, 429002, Note_on_c, 12, 76, 113
13, 429046, Note_off_c, 12, 55, 56
13, 429048, Note_off_c, 12, 52, 56
13, 429050, Note_off_c, 12, 76, 56
13, 429058, Note_on_c, 12, 76, 113
13, 429058, Note_on_c, 12, 55, 113
13, 429059, Note_on_c, 12, 52, 113
13, 429106, Note_off_c, 12, 55, 56
13, 429106, Note_off_c, 12, 76, 56
13, 429107, Note_off_c, 12, 52, 56
13, 429118, Note_on_c, 12, 55, 113
13, 429121, Note_on_c, 12, 79, 113
13, 429122, Note_on_c, 12, 52, 113
13, 429122, Note_on_c, 12, 36, 108
13, 429166, Note_off_c, 12, 55, 56
13, 429169, Note_off_c, 12, 79, 56
13, 429170, Note_off_c, 12, 52, 56
13, 429178, Note_on_c, 12, 52, 113
13, 429180, Note_on_c, 12, 79, 113
13, 429181, Note_on_c, 12, 55, 113
13, 429226, Note_off_c, 12, 52, 56
13, 429228, Note_off_c, 12, 79, 56
13, 429229, Note_off_c, 12, 55, 56
13, 429238, Note_on_c, 12, 52, 113
13, 429240, Note_on_c, 12, 55, 113
13, 429241, Note_on_c, 12, 79, 113
13, 429286, Note_off_c, 12, 52, 56
13, 429288, Note_off_c, 12, 55, 56
13, 429289, Note_off_c, 12, 79, 56
13, 429299, Note_on_c, 12, 79, 113
13, 429301, Note_on_c, 12, 55, 113
13, 429302, Note_on_c, 12, 52, 113
13, 429314, Note_off_c, 12, 36, 67
13, 429347, Note_off_c, 12, 79, 56
13, 429349, Note_off_c, 12, 55, 56
13, 429350, Note_off_c, 12, 52, 56
13, 429358, Note_on_c, 12, 79, 113
13, 429360, Note_on_c, 12, 55, 113
13, 429362, Note_on_c, 12, 52, 113
13, 429362, Note_on_c, 12, 40, 108
13, 429406, Note_off_c, 12, 79, 56
13, 429408, Note_off_c, 12, 55, 56
13, 429410, Note_off_c, 12, 52, 56
13, 429418, Note_on_c, 12, 55, 113
13, 429419, Note_on_c, 12, 79, 113
13, 429419, Note_on_c, 12, 52, 113
13, 429466, Note_off_c, 12, 55, 56
13, 429467, Note_off_c, 12, 52, 56
13, 429467, Note_off_c, 12, 79, 56
13, 429478, Note_on_c, 12, 55, 113
13, 429481, Note_on_c, 12, 77, 113
13, 429482, Note_on_c, 12, 52, 113
13, 429526, Note_off_c, 12, 55, 56
13, 429529, Note_off_c, 12, 77, 56
13, 429530, Note_off_c, 12, 52, 56
13, 429538, Note_on_c, 12, 77, 113
13, 429539, Note_on_c, 12, 52, 113
13, 429541, Note_on_c, 12, 55, 113
13, 429554, Note_off_c, 12, 40, 68
13, 429586, Note_off_c, 12, 77, 56
13, 429587, Note_off_c, 12, 52, 56
13, 429589, Note_off_c, 12, 55, 56
13, 429598, Note_on_c, 12, 55, 113
13, 429598, Note_on_c, 12, 52, 113
13, 429599, Note_on_c, 12, 76, 113
13, 429602, Note_on_c, 12, 43, 108
13, 429646, Note_off_c, 12, 52, 56
13, 429646, Note_off_c, 12, 55, 56
13, 429647, Note_off_c, 12, 76, 56
13, 429658, Note_on_c, 12, 52, 113
13, 429660, Note_on_c, 12, 76, 113
13, 429662, Note_on_c, 12, 55, 113
13, 429706, Note_off_c, 12, 52, 56
13, 429708, Note_off_c, 12, 76, 56
13, 429710, Note_off_c, 12, 55, 56
13, 429718, Note_on_c, 12, 52, 113
13, 429720, Note_on_c, 12, 55, 113
13, 429722, Note_on_c, 12, 74, 113
13, 429766, Note_off_c, 12, 52, 56
13, 429768, Note_off_c, 12, 55, 56
13, 429770, Note_off_c, 12, 74, 56
13, 429781, Note_on_c, 12, 52, 113
13, 429781, Note_on_c, 12, 55, 113
13, 429782, Note_on_c, 12, 74, 113
13, 429829, Note_off_c, 12, 55, 56
13, 429829, Note_off_c, 12, 52, 56
13, 429830, Note_off_c, 12, 74, 56
13, 429839, Note_on_c, 12, 72, 113
13, 429841, Note_on_c, 12, 55, 113
13, 429841, Note_on_c, 12, 52, 113
13, 429887, Note_off_c, 12, 72, 56
13, 429889, Note_off_c, 12, 52, 56
13, 429889, Note_off_c, 12, 55, 56
13, 429890, Note_off_c, 12, 43, 68
13, 429898, Note_on_c, 12, 52, 113
13, 429900, Note_on_c, 12, 55, 113
13, 429902, Note_on_c, 12, 72, 113
13, 429946, Note_off_c, 12, 52, 56
13, 429948, Note_off_c, 12, 55, 56
13, 429950, Note_off_c, 12, 72, 56
13, 429958, Note_on_c, 12, 74, 113
13, 429958, Note_on_c, 12, 52, 113
13, 429959, Note_on_c, 12, 55, 113
13, 429959, Note_on_c, 12, 41, 108
13, 430006, Note_off_c, 12, 52, 56
13, 430006, Note_off_c, 12, 74, 56
13, 430007, Note_off_c, 12, 55, 56
13, 430019, Note_on_c, 12, 74, 113
13, 430020, Note_on_c, 12, 55, 113
13, 430021, Note_on_c, 12, 52, 113
13, 430055, Note_off_c, 12, 41, 56
13, 430067, Note_off_c, 12, 74, 56
13, 430068, Note_off_c, 12, 55, 56
13, 430069, Note_off_c, 12, 52, 56
13, 430078, Note_on_c, 12, 52, 113
13, 430079, Note_on_c, 12, 40, 108
13, 430081, Note_on_c, 12, 76, 113
13, 430081, Note_on_c, 12, 55, 113
13, 430126, Note_off_c, 12, 52, 56
13, 430129, Note_off_c, 12, 55, 56
13, 430129, Note_off_c, 12, 76, 56
13, 430141, Note_on_c, 12, 76, 113
13, 430142, Note_on_c, 12, 55, 113
13, 430142, Note_on_c, 12, 52, 113
13, 430175, Note_off_c, 12, 40, 56
13, 430189, Note_off_c, 12, 76, 56
13, 430190, Note_off_c, 12, 52, 56
13, 430190, Note_off_c, 12, 55, 56
13, 430198, Note_on_c, 12, 55, 113
13, 430199, Note_on_c, 12, 76, 113
13, 430199, Note_on_c, 12, 52, 113
13, 430202, Note_on_c, 12, 38, 108
13, 430246, Note_off_c, 12, 55, 56
13, 430247, Note_off_c, 12, 52, 56
13, 430247, Note_off_c, 12, 76, 56
13, 430261, Note_on_c, 12, 55, 113
13, 430261, Note_on_c, 12, 52, 113
13, 430261, Note_on_c, 12, 76, 113
13, 430298, Note_off_c, 12, 38, 56
13, 430309, Note_off_c, 12, 76, 56
13, 430309, Note_off_c, 12, 52, 56
13, 430309, Note_off_c, 12, 55, 56
13, 430318, Note_on_c, 12, 76, 113
13, 430320, Note_on_c, 12, 52, 113
13, 430321, Note_on_c, 12, 55, 113
13, 430321, Note_on_c, 12, 36, 108
13, 430366, Note_off_c, 12, 76, 56
13, 430368, Note_off_c, 12, 52, 56
13, 430369, Note_off_c, 12, 55, 56
13, 430379, Note_on_c, 12, 76, 113
13, 430381, Note_on_c, 12, 52, 113
13, 430381, Note_on_c, 12, 55, 113
13, 430417, Note_off_c, 12, 36, 56
13, 430427, Note_off_c, 12, 76, 56
13, 430429, Note_off_c, 12, 55, 56
13, 430429, Note_off_c, 12, 52, 56
13, 430438, Note_on_c, 12, 76, 113
13, 430438, Note_on_c, 12, 52, 113
13, 430441, Note_on_c, 12, 55, 113
13, 430441, Note_on_c, 12, 38, 108
13, 430486, Note_off_c, 12, 52, 56
13, 430486, Note_off_c, 12, 76, 56
13, 430489, Note_off_c, 12, 55, 56
13, 430498, Note_on_c, 12, 52, 113
13, 430499, Note_on_c, 12, 55, 113
13, 430502, Note_on_c, 12, 76, 113
13, 430537, Note_off_c, 12, 38, 56
13, 430546, Note_off_c, 12, 52, 56
13, 430547, Note_off_c, 12, 55, 56
13, 430550, Note_off_c, 12, 76, 56
13, 430559, Note_on_c, 12, 76, 113
13, 430559, Note_on_c, 12, 52, 113
13, 430561, Note_on_c, 12, 55, 113
13, 430563, Note_on_c, 12, 40, 108
13, 430607, Note_off_c, 12, 52, 56
13, 430607, Note_off_c, 12, 76, 56
13, 430609, Note_off_c, 12, 55, 56
13, 430622, Note_on_c, 12, 76, 113
13, 430622, Note_on_c, 12, 55, 113
13, 430622, Note_on_c, 12, 52, 113
13, 430670, Note_off_c, 12, 52, 56
13, 430670, Note_off_c, 12, 55, 56
13, 430670, Note_off_c, 12, 76, 56
13, 430680, Note_on_c, 12, 74, 113
13, 430682, Note_on_c, 12, 55, 113
13, 430682, Note_on_c, 12, 52, 113
13, 430728, Note_off_c, 12, 74, 56
13, 430730, Note_off_c, 12, 52, 56
13, 430730, Note_off_c, 12, 55, 56
13, 430738, Note_on_c, 12, 55, 113
13, 430739, Note_on_c, 12, 74, 113
13, 430741, Note_on_c, 12, 52, 113
13, 430786, Note_off_c, 12, 55, 56
13, 430787, Note_off_c, 12, 74, 56
13, 430789, Note_off_c, 12, 52, 56
13, 430798, Note_on_c, 12, 76, 113
13, 430800, Note_on_c, 12, 55, 113
13, 430801, Note_on_c, 12, 52, 113
13, 430846, Note_off_c, 12, 76, 56
13, 430848, Note_off_c, 12, 55, 56
13, 430849, Note_off_c, 12, 52, 56
13, 430851, Note_off_c, 12, 40, 68
13, 430858, Note_on_c, 12, 76, 113
13, 430860, Note_on_c, 12, 55, 113
13, 430862, Note_on_c, 12, 52, 113
13, 430906, Note_off_c, 12, 76, 56
13, 430908, Note_off_c, 12, 55, 56
13, 430910, Note_off_c, 12, 52, 56
13, 430918, Note_on_c, 12, 52, 113
13, 430919, Note_on_c, 12, 40, 108
13, 430921, Note_on_c, 12, 77, 113
13, 430922, Note_on_c, 12, 55, 113
13, 430966, Note_off_c, 12, 52, 56
13, 430969, Note_off_c, 12, 77, 56
13, 430970, Note_off_c, 12, 55, 56
13, 430978, Note_on_c, 12, 52, 113
13, 430980, Note_on_c, 12, 55, 113
13, 430980, Note_on_c, 12, 77, 113
13, 431015, Note_off_c, 12, 40, 56
13, 431026, Note_off_c, 12, 52, 56
13, 431028, Note_off_c, 12, 77, 56
13, 431028, Note_off_c, 12, 55, 56
13, 431038, Note_on_c, 12, 52, 113
13, 431038, Note_on_c, 12, 40, 108
13, 431040, Note_on_c, 12, 79, 113
13, 431040, Note_on_c, 12, 55, 113
13, 431086, Note_off_c, 12, 52, 56
13, 431088, Note_off_c, 12, 55, 56
13, 431088, Note_off_c, 12, 79, 56
13, 431098, Note_on_c, 12, 55, 113
13, 431099, Note_on_c, 12, 79, 113
13, 431099, Note_on_c, 12, 52, 113
13, 431134, Note_off_c, 12, 40, 56
13, 431146, Note_off_c, 12, 55, 56
13, 431147, Note_off_c, 12, 52, 56
13, 431147, Note_off_c, 12, 79, 56
13, 431159, Note_on_c, 12, 79, 113
13, 431159, Note_on_c, 12, 38, 108
13, 431159, Note_on_c, 12, 55, 113
13, 431162, Note_on_c, 12, 52, 113
13, 431207, Note_off_c, 12, 55, 56
13, 431207, Note_off_c, 12, 79, 56
13, 431210, Note_off_c, 12, 52, 56
13, 431219, Note_on_c, 12, 79, 113
13, 431219, Note_on_c, 12, 52, 113
13, 431221, Note_on_c, 12, 55, 113
13, 431255, Note_off_c, 12, 38, 56
13, 431267, Note_off_c, 12, 52, 56
13, 431267, Note_off_c, 12, 79, 56
13, 431269, Note_off_c, 12, 55, 56
13, 431278, Note_on_c, 12, 52, 113
13, 431279, Note_on_c, 12, 55, 113
13, 431281, Note_on_c, 12, 40, 108
13, 431282, Note_on_c, 12, 79, 113
13, 431326, Note_off_c, 12, 52, 56
13, 431327, Note_off_c, 12, 55, 56
13, 431330, Note_off_c, 12, 79, 56
13, 431339, Note_on_c, 12, 52, 113
13, 431340, Note_on_c, 12, 79, 113
13, 431342, Note_on_c, 12, 55, 113
13, 431377, Note_off_c, 12, 40, 56
13, 431387, Note_off_c, 12, 52, 56
13, 431388, Note_off_c, 12, 79, 56
13, 431390, Note_off_c, 12, 55, 56
13, 431399, Note_on_c, 12, 79, 113
13, 431400, Note_on_c, 12, 55, 113
13, 431400, Note_on_c, 12, 52, 113
13, 431401, Note_on_c, 12, 41, 108
13, 431447, Note_off_c, 12, 79, 56
13, 431448, Note_off_c, 12, 52, 56
13, 431448, Note_off_c, 12, 55, 56
13, 431458, Note_on_c, 12, 52, 113
13, 431458, Note_on_c, 12, 79, 113
13, 431458, Note_on_c, 12, 55, 113
13, 431497, Note_off_c, 12, 41, 56
13, 431506, Note_off_c, 12, 55, 56
13, 431506, Note_off_c, 12, 79, 56
13, 431506, Note_off_c, 12, 52, 56
13, 431520, Note_on_c, 12, 52, 113
13, 431521, Note_on_c, 12, 79, 113
13, 431522, Note_on_c, 12, 55, 113
13, 431523, Note_on_c, 12, 43, 108
13, 431568, Note_off_c, 12, 52, 56
13, 431569, Note_off_c, 12, 79, 56
13, 431570, Note_off_c, 12, 55, 56
13, 431580, Note_on_c, 12, 79, 113
13, 431580, Note_on_c, 12, 55, 113
13, 431581, Note_on_c, 12, 52, 113
13, 431628, Note_off_c, 12, 55, 56
13, 431628, Note_off_c, 12, 79, 56
13, 431629, Note_off_c, 12, 52, 56
13, 431639, Note_on_c, 12, 77, 113
13, 431641, Note_on_c, 12, 52, 113
13, 431642, Note_on_c, 12, 55, 113
13, 431687, Note_off_c, 12, 77, 56
13, 431689, Note_off_c, 12, 52, 56
13, 431690, Note_off_c, 12, 55, 56
13, 431698, Note_on_c, 12, 77, 113
13, 431700, Note_on_c, 12, 55, 113
13, 431701, Note_on_c, 12, 52, 113
13, 431746, Note_off_c, 12, 77, 56
13, 431748, Note_off_c, 12, 55, 56
13, 431749, Note_off_c, 12, 52, 56
13, 431760, Note_on_c, 12, 52, 113
13, 431761, Note_on_c, 12, 55, 113
13, 431762, Note_on_c, 12, 79, 113
13, 431808, Note_off_c, 12, 52, 56
13, 431809, Note_off_c, 12, 55, 56
13, 431810, Note_off_c, 12, 79, 56
13, 431811, Note_off_c, 12, 43, 69
13, 431818, Note_on_c, 12, 55, 113
13, 431818, Note_on_c, 12, 52, 113
13, 431822, Note_on_c, 12, 79, 113
13, 431866, Note_off_c, 12, 52, 56
13, 431866, Note_off_c, 12, 55, 56
13, 431870, Note_off_c, 12, 79, 56
13, 431878, Note_on_c, 12, 55, 113
13, 431879, Note_on_c, 12, 52, 113
13, 431881, Note_on_c, 12, 83, 113
13, 431882, Note_on_c, 12, 43, 108
13, 431926, Note_off_c, 12, 55, 56
13, 431927, Note_off_c, 12, 52, 56
13, 431929, Note_off_c, 12, 83, 56
13, 431938, Note_on_c, 12, 52, 113
13, 431939, Note_on_c, 12, 83, 113
13, 431939, Note_on_c, 12, 55, 113
13, 431978, Note_off_c, 12, 43, 56
13, 431986, Note_off_c, 12, 52, 56
13, 431987, Note_off_c, 12, 55, 56
13, 431987, Note_off_c, 12, 83, 56
13, 431998, Note_on_c, 12, 52, 113
13, 432000, Note_on_c, 12, 43, 108
13, 432001, Note_on_c, 12, 84, 113
13, 432002, Note_on_c, 12, 55, 113
13, 432046, Note_off_c, 12, 52, 56
13, 432049, Note_off_c, 12, 84, 56
13, 432050, Note_off_c, 12, 55, 56
13, 432058, Note_on_c, 12, 52, 113
13, 432060, Note_on_c, 12, 84, 113
13, 432061, Note_on_c, 12, 55, 113
13, 432096, Note_off_c, 12, 43, 56
13, 432106, Note_off_c, 12, 52, 56
13, 432108, Note_off_c, 12, 84, 56
13, 432109, Note_off_c, 12, 55, 56
13, 432119, Note_on_c, 12, 41, 108
13, 432120, Note_on_c, 12, 55, 113
13, 432121, Note_on_c, 12, 84, 113
13, 432122, Note_on_c, 12, 52, 113
13, 432168, Note_off_c, 12, 55, 56
13, 432169, Note_off_c, 12, 84, 56
13, 432170, Note_off_c, 12, 52, 56
13, 432179, Note_on_c, 12, 52, 113
13, 432181, Note_on_c, 12, 84, 113
13, 432182, Note_on_c, 12, 55, 113
13, 432215, Note_off_c, 12, 41, 56
13, 432227, Note_off_c, 12, 52, 56
13, 432229, Note_off_c, 12, 84, 56
13, 432230, Note_off_c, 12, 55, 56
13, 432238, Note_on_c, 12, 55, 113
13, 432239, Note_on_c, 12, 84, 113
13, 432240, Note_on_c, 12, 43, 108
13, 432241, Note_on_c, 12, 52, 113
13, 432286, Note_off_c, 12, 55, 56
13, 432287, Note_off_c, 12, 84, 56
13, 432289, Note_off_c, 12, 52, 56
13, 432299, Note_on_c, 12, 55, 113
13, 432301, Note_on_c, 12, 52, 113
13, 432301, Note_on_c, 12, 84, 113
13, 432336, Note_off_c, 12, 43, 56
13, 432347, Note_off_c, 12, 55, 56
13, 432349, Note_off_c, 12, 84, 56
13, 432349, Note_off_c, 12, 52, 56
13, 432359, Note_on_c, 12, 55, 113
13, 432359, Note_on_c, 12, 47, 108
13, 432361, Note_on_c, 12, 52, 113
13, 432362, Note_on_c, 12, 83, 113
13, 432407, Note_off_c, 12, 55, 56
13, 432409, Note_off_c, 12, 52, 56
13, 432410, Note_off_c, 12, 83, 56
13, 432419, Note_on_c, 12, 83, 113
13, 432420, Note_on_c, 12, 55, 113
13, 432421, Note_on_c, 12, 52, 113
13, 432455, Note_off_c, 12, 47, 56
13, 432467, Note_off_c, 12, 83, 56
13, 432468, Note_off_c, 12, 55, 56
13, 432469, Note_off_c, 12, 52, 56
13, 432478, Note_on_c, 12, 84, 113
13, 432480, Note_on_c, 12, 52, 113
13, 432480, Note_on_c, 12, 48, 108
13, 432480, Note_on_c, 12, 55, 113
13, 432526, Note_off_c, 12, 84, 56
13, 432528, Note_off_c, 12, 55, 56
13, 432528, Note_off_c, 12, 52, 56
13, 432538, Note_on_c, 12, 55, 113
13, 432538, Note_on_c, 12, 52, 113
13, 432540, Note_on_c, 12, 84, 113
13, 432576, Note_off_c, 12, 48, 56
13, 432586, Note_off_c, 12, 52, 56
13, 432586, Note_off_c, 12, 55, 56
13, 432588, Note_off_c, 12, 84, 56
13, 432598, Note_on_c, 12, 55, 113
13, 432598, Note_on_c, 12, 47, 108
13, 432598, Note_on_c, 12, 83, 113
13, 432599, Note_on_c, 12, 52, 113
13, 432646, Note_off_c, 12, 83, 56
13, 432646, Note_off_c, 12, 55, 56
13, 432647, Note_off_c, 12, 52, 56
13, 432660, Note_on_c, 12, 83, 113
13, 432661, Note_on_c, 12, 55, 113
13, 432661, Note_on_c, 12, 52, 113
13, 432694, Note_off_c, 12, 47, 56
13, 432708, Note_off_c, 12, 83, 56
13, 432709, Note_off_c, 12, 52, 56
13, 432709, Note_off_c, 12, 55, 56
13, 432718, Note_on_c, 12, 52, 113
13, 432720, Note_on_c, 12, 84, 113
13, 432721, Note_on_c, 12, 55, 113
13, 432722, Note_on_c, 12, 48, 108
13, 432766, Note_off_c, 12, 52, 56
13, 432768, Note_off_c, 12, 84, 56
13, 432769, Note_off_c, 12, 55, 56
13, 432778, Note_on_c, 12, 55, 113
13, 432782, Note_on_c, 12, 84, 113
13, 432782, Note_on_c, 12, 52, 113
13, 432818, Note_off_c, 12, 48, 56
13, 432826, Note_off_c, 12, 55, 56
13, 432830, Note_off_c, 12, 52, 56
13, 432830, Note_off_c, 12, 84, 56
13, 432838, Note_on_c, 12, 55, 113
13, 432841, Note_on_c, 12, 86, 113
13, 432841, Note_on_c, 12, 50, 108
13, 432841, Note_on_c, 12, 52, 113
13, 432886, Note_off_c, 12, 55, 56
13, 432889, Note_off_c, 12, 52, 56
13, 432889, Note_off_c, 12, 86, 56
13, 432898, Note_on_c, 12, 86, 113
13, 432900, Note_on_c, 12, 55, 113
13, 432901, Note_on_c, 12, 52, 113
13, 432937, Note_off_c, 12, 50, 56
13, 432946, Note_off_c, 12, 86, 56
13, 432948, Note_off_c, 12, 55, 56
13, 432949, Note_off_c, 12, 52, 56
13, 432958, Note_on_c, 12, 88, 113
13, 432958, Note_on_c, 12, 55, 113
13, 432960, Note_on_c, 12, 52, 108
13, 433006, Note_off_c, 12, 55, 56
13, 433006, Note_off_c, 12, 88, 56
13, 433019, Note_on_c, 12, 88, 113
13, 433020, Note_on_c, 12, 52, 113
13, 433021, Note_on_c, 12, 55, 113
13, 433056, Note_off_c, 12, 52, 56
13, 433067, Note_off_c, 12, 88, 56
13, 433068, Note_off_c, 12, 52, 56
13, 433069, Note_off_c, 12, 55, 56
13, 433079, Note_on_c, 12, 52, 113
13, 433081, Note_on_c, 12, 86, 113
13, 433081, Note_on_c, 12, 38, 108
13, 433081, Note_on_c, 12, 55, 113
13, 433127, Note_off_c, 12, 52, 56
13, 433129, Note_off_c, 12, 55, 56
13, 433129, Note_off_c, 12, 86, 56
13, 433139, Note_on_c, 12, 55, 113
13, 433139, Note_on_c, 12, 52, 113
13, 433141, Note_on_c, 12, 86, 113
13, 433177, Note_off_c, 12, 38, 56
13, 433187, Note_off_c, 12, 52, 56
13, 433187, Note_off_c, 12, 55, 56
13, 433189, Note_off_c, 12, 86, 56
13, 433198, Note_on_c, 12, 52, 113
13, 433200, Note_on_c, 12, 88, 113
13, 433200, Note_on_c, 12, 40, 108
13, 433202, Note_on_c, 12, 55, 113
13, 433246, Note_off_c, 12, 52, 56
13, 433248, Note_off_c, 12, 88, 56
13, 433250, Note_off_c, 12, 55, 56
13, 433260, Note_on_c, 12, 88, 113
13, 433260, Note_on_c, 12, 55, 113
13, 433261, Note_on_c, 12, 52, 113
13, 433296, Note_off_c, 12, 40, 56
13, 433308, Note_off_c, 12, 55, 56
13, 433308, Note_off_c, 12, 88, 56
13, 433309, Note_off_c, 12, 52, 56
13, 433318, Note_on_c, 12, 41, 108
13, 433320, Note_on_c, 12, 52, 113
13, 433321, Note_on_c, 12, 89, 113
13, 433322, Note_on_c, 12, 55, 113
13, 433368, Note_off_c, 12, 52, 56
13, 433369, Note_off_c, 12, 89, 56
13, 433370, Note_off_c, 12, 55, 56
13, 433381, Note_on_c, 12, 52, 113
13, 433381, Note_on_c, 12, 55, 113
13, 433382, Note_on_c, 12, 89, 113
13, 433414, Note_off_c, 12, 41, 56
13, 433429, Note_off_c, 12, 55, 56
13, 433429, Note_off_c, 12, 52, 56
13, 433430, Note_off_c, 12, 89, 56
13, 433438, Note_on_c, 12, 91, 113
13, 433438, Note_on_c, 12, 43, 108
13, 433439, Note_on_c, 12, 55, 113
13, 433440, Note_on_c, 12, 52, 113
13, 433486, Note_off_c, 12, 91, 56
13, 433487, Note_off_c, 12, 55, 56
13, 433488, Note_off_c, 12, 52, 56
13, 433498, Note_on_c, 12, 55, 113
13, 433500, Note_on_c, 12, 91, 113
13, 433500, Note_on_c, 12, 52, 113
13, 433546, Note_off_c, 12, 55, 56
13, 433548, Note_off_c, 12, 52, 56
13, 433548, Note_off_c, 12, 91, 56
13, 433560, Note_on_c, 12, 55, 113
13, 433562, Note_on_c, 12, 91, 113
13, 433562, Note_on_c, 12, 52, 113
13, 433608, Note_off_c, 12, 55, 56
13, 433610, Note_off_c, 12, 52, 56
13, 433610, Note_off_c, 12, 91, 56
13, 433619, Note_on_c, 12, 91, 113
13, 433620, Note_on_c, 12, 52, 113
13, 433622, Note_on_c, 12, 55, 113
13, 433667, Note_off_c, 12, 91, 56
13, 433668, Note_off_c, 12, 52, 56
13, 433670, Note_off_c, 12, 55, 56
13, 433678, Note_on_c, 12, 52, 113
13, 433681, Note_on_c, 12, 91, 113
13, 433682, Note_on_c, 12, 55, 113
13, 433726, Note_off_c, 12, 52, 56
13, 433729, Note_off_c, 12, 91, 56
13, 433730, Note_off_c, 12, 55, 56
13, 433739, Note_on_c, 12, 55, 113
13, 433741, Note_on_c, 12, 52, 113
13, 433742, Note_on_c, 12, 91, 113
13, 433787, Note_off_c, 12, 55, 56
13, 433789, Note_off_c, 12, 52, 56
13, 433790, Note_off_c, 12, 91, 56
13, 433798, Note_on_c, 12, 55, 113
13, 433798, Note_on_c, 12, 52, 113
13, 433800, Note_on_c, 12, 91, 113
13, 433846, Note_off_c, 12, 52, 56
13, 433846, Note_off_c, 12, 55, 56
13, 433848, Note_off_c, 12, 91, 56
13, 433860, Note_on_c, 12, 91, 113
13, 433861, Note_on_c, 12, 52, 113
13, 433861, Note_on_c, 12, 55, 113
13, 433908, Note_off_c, 12, 91, 56
13, 433909, Note_off_c, 12, 55, 56
13, 433909, Note_off_c, 12, 52, 56
13, 433920, Note_on_c, 12, 91, 113
13, 433920, Note_on_c, 12, 55, 113
13, 433922, Note_on_c, 12, 52, 113
13, 433968, Note_off_c, 12, 55, 56
13, 433968, Note_off_c, 12, 91, 56
13, 433970, Note_off_c, 12, 52, 56
13, 433979, Note_on_c, 12, 55, 113
13, 433981, Note_on_c, 12, 52, 113
13, 433982, Note_on_c, 12, 91, 113
13, 434027, Note_off_c, 12, 55, 56
13, 434029, Note_off_c, 12, 52, 56
13, 434030, Note_off_c, 12, 91, 56
13, 434038, Note_on_c, 12, 55, 113
13, 434040, Note_on_c, 12, 91, 113
13, 434041, Note_on_c, 12, 52, 113
13, 434086, Note_off_c, 12, 55, 56
13, 434088, Note_off_c, 12, 91, 56
13, 434089, Note_off_c, 12, 52, 56
13, 434098, Note_on_c, 12, 55, 113
13, 434100, Note_on_c, 12, 52, 113
13, 434102, Note_on_c, 12, 91, 113
13, 434146, Note_off_c, 12, 55, 56
13, 434148, Note_off_c, 12, 52, 56
13, 434150, Note_off_c, 12, 91, 56
13, 434158, Note_on_c, 12, 52, 113
13, 434160, Note_on_c, 12, 91, 113
13, 434160, Note_on_c, 12, 55, 113
13, 434206, Note_off_c, 12, 52, 56
13, 434206, Note_off_c, 12, 43, 69
13, 434208, Note_off_c, 12, 55, 56
13, 434208, Note_off_c, 12, 91, 56
13, 434218, Note_on_c, 12, 91, 113
13, 434218, Note_on_c, 12, 52, 113
13, 434220, Note_on_c, 12, 55, 113
13, 434266, Note_off_c, 12, 52, 56
13, 434266, Note_off_c, 12, 91, 56
13, 434268, Note_off_c, 12, 55, 56
13, 434278, Note_on_c, 12, 91, 113
13, 434278, Note_on_c, 12, 55, 113
13, 434282, Note_on_c, 12, 52, 113
13, 434326, Note_off_c, 12, 55, 56
13, 434326, Note_off_c, 12, 91, 56
13, 434330, Note_off_c, 12, 52, 56
13, 434341, Note_on_c, 12, 52, 113
13, 434342, Note_on_c, 12, 55, 113
13, 434342, Note_on_c, 12, 91, 113
13, 434389, Note_off_c, 12, 52, 56
13, 434390, Note_off_c, 12, 91, 56
13, 434390, Note_off_c, 12, 55, 56
13, 434398, Note_on_c, 12, 55, 113
13, 434398, Note_on_c, 12, 40, 108
13, 434400, Note_on_c, 12, 88, 113
13, 434401, Note_on_c, 12, 52, 113
13, 434446, Note_off_c, 12, 55, 56
13, 434448, Note_off_c, 12, 88, 56
13, 434449, Note_off_c, 12, 52, 56
13, 434458, Note_on_c, 12, 88, 113
13, 434458, Note_on_c, 12, 52, 113
13, 434461, Note_on_c, 12, 55, 113
13, 434506, Note_off_c, 12, 52, 56
13, 434506, Note_off_c, 12, 88, 56
13, 434509, Note_off_c, 12, 55, 56
13, 434519, Note_on_c, 12, 88, 113
13, 434521, Note_on_c, 12, 55, 113
13, 434522, Note_on_c, 12, 52, 113
13, 434567, Note_off_c, 12, 88, 56
13, 434569, Note_off_c, 12, 55, 56
13, 434570, Note_off_c, 12, 52, 56
13, 434578, Note_on_c, 12, 88, 113
13, 434580, Note_on_c, 12, 52, 113
13, 434581, Note_on_c, 12, 55, 113
13, 434626, Note_off_c, 12, 88, 56
13, 434628, Note_off_c, 12, 52, 56
13, 434629, Note_off_c, 12, 55, 56
13, 434640, Note_on_c, 12, 88, 113
13, 434640, Note_on_c, 12, 55, 113
13, 434642, Note_on_c, 12, 52, 113
13, 434688, Note_off_c, 12, 55, 56
13, 434688, Note_off_c, 12, 88, 56
13, 434690, Note_off_c, 12, 52, 56
13, 434698, Note_on_c, 12, 55, 113
13, 434698, Note_on_c, 12, 52, 113
13, 434702, Note_on_c, 12, 88, 113
13, 434746, Note_off_c, 12, 52, 56
13, 434746, Note_off_c, 12, 55, 56
13, 434750, Note_off_c, 12, 88, 56
13, 434758, Note_on_c, 12, 88, 113
13, 434760, Note_on_c, 12, 52, 113
13, 434760, Note_on_c, 12, 55, 113
13, 434806, Note_off_c, 12, 88, 56
13, 434808, Note_off_c, 12, 55, 56
13, 434808, Note_off_c, 12, 52, 56
13, 434818, Note_on_c, 12, 55, 113
13, 434821, Note_on_c, 12, 52, 113
13, 434822, Note_on_c, 12, 88, 113
13, 434866, Note_off_c, 12, 55, 56
13, 434869, Note_off_c, 12, 52, 56
13, 434870, Note_off_c, 12, 88, 56
13, 434881, Note_on_c, 12, 52, 113
13, 434881, Note_on_c, 12, 55, 113
13, 434882, Note_on_c, 12, 88, 113
13, 434929, Note_off_c, 12, 55, 56
13, 434929, Note_off_c, 12, 52, 56
13, 434930, Note_off_c, 12, 88, 56
13, 434938, Note_on_c, 12, 88, 113
13, 434939, Note_on_c, 12, 55, 113
13, 434942, Note_on_c, 12, 52, 113
13, 434986, Note_off_c, 12, 88, 56
13, 434987, Note_off_c, 12, 55, 56
13, 434990, Note_off_c, 12, 52, 56
13, 434998, Note_on_c, 12, 55, 113
13, 434998, Note_on_c, 12, 52, 113
13, 435001, Note_on_c, 12, 88, 113
13, 435046, Note_off_c, 12, 52, 56
13, 435046, Note_off_c, 12, 55, 56
13, 435049, Note_off_c, 12, 88, 56
13, 435058, Note_on_c, 12, 55, 113
13, 435060, Note_on_c, 12, 88, 113
13, 435061, Note_on_c, 12, 52, 113
13, 435106, Note_off_c, 12, 55, 56
13, 435108, Note_off_c, 12, 88, 56
13, 435109, Note_off_c, 12, 52, 56
13, 435119, Note_on_c, 12, 55, 113
13, 435120, Note_on_c, 12, 52, 113
13, 435120, Note_on_c, 12, 88, 113
13, 435166, Note_off_c, 12, 40, 69
13, 435167, Note_off_c, 12, 55, 56
13, 435168, Note_off_c, 12, 88, 56
13, 435168, Note_off_c, 12, 52, 56
13, 435179, Note_on_c, 12, 52, 113
13, 435179, Note_on_c, 12, 55, 113
13, 435182, Note_on_c, 12, 88, 113
13, 435227, Note_off_c, 12, 55, 56
13, 435227, Note_off_c, 12, 52, 56
13, 435230, Note_off_c, 12, 88, 56
13, 435238, Note_on_c, 12, 52, 113
13, 435238, Note_on_c, 12, 55, 113
13, 435240, Note_on_c, 12, 88, 113
13, 435286, Note_off_c, 12, 55, 56
13, 435286, Note_off_c, 12, 52, 56
13, 435288, Note_off_c, 12, 88, 56
13, 435301, Note_on_c, 12, 55, 113
13, 435301, Note_on_c, 12, 52, 113
13, 435302, Note_on_c, 12, 88, 113
13, 435349, Note_off_c, 12, 52, 56
13, 435349, Note_off_c, 12, 55, 56
13, 435350, Note_off_c, 12, 88, 56
13, 435358, Note_on_c, 12, 36, 108
13, 435360, Note_on_c, 12, 55, 108
13, 435360, Control_c, 12, 7, 100
13, 435360, Program_c, 12, 48
13, 435361, Note_on_c, 12, 52, 108
13, 435362, Note_on_c, 12, 84, 108
13, 435478, Note_off_c, 12, 36, 56
13, 435480, Note_off_c, 12, 55, 56
13, 435481, Note_off_c, 12, 52, 56
13, 435482, Note_off_c, 12, 84, 56
13, 435839, Note_on_c, 12, 55, 108
13, 435839, Note_on_c, 12, 71, 108
13, 435840, Note_on_c, 12, 62, 108
13, 435840, Note_on_c, 12, 31, 108
13, 435840, Note_on_c, 12, 67, 108
13, 435841, Note_on_c, 12, 74, 108
13, 435959, Note_off_c, 12, 71, 56
13, 435959, Note_off_c, 12, 55, 56
13, 435960, Note_off_c, 12, 67, 56
13, 435960, Note_off_c, 12, 31, 56
13, 435960, Note_off_c, 12, 62, 56
13, 435961, Note_off_c, 12, 74, 56
13, 436318, Note_on_c, 12, 72, 108
13, 436319, Note_on_c, 12, 36, 108
13, 436320, Note_on_c, 12, 67, 108
13, 436320, Note_on_c, 12, 76, 108
13, 436320, Note_on_c, 12, 55, 108
13, 436321, Note_on_c, 12, 64, 108
13, 436438, Note_off_c, 12, 72, 56
13, 436439, Note_off_c, 12, 36, 56
13, 436440, Note_off_c, 12, 55, 56
13, 436440, Note_off_c, 12, 76, 56
13, 436440, Note_off_c, 12, 67, 56
13, 436441, Note_off_c, 12, 64, 56
13, 436798, Note_on_c, 12, 79, 108
13, 436798, Note_on_c, 12, 71, 108
13, 436799, Note_on_c, 12, 55, 108
13, 436799, Note_on_c, 12, 62, 108
13, 436800, Note_on_c, 12, 31, 108
13, 436918, Note_off_c, 12, 71, 56
13, 436918, Note_off_c, 12, 79, 56
13, 436919, Note_off_c, 12, 62, 56
13, 436919, Note_off_c, 12, 55, 56
13, 436920, Note_off_c, 12, 31, 56
13, 437279, Note_on_c, 12, 64, 108
13, 437280, Note_on_c, 12, 36, 108
13, 437280, Note_on_c, 12, 76, 108
13, 437281, Note_on_c, 12, 72, 108
13, 437281, Note_on_c, 12, 55, 108
13, 437399, Note_off_c, 12, 64, 56
13, 437400, Note_off_c, 12, 76, 56
13, 437400, Note_off_c, 12, 36, 56
13, 437401, Note_off_c, 12, 55, 56
13, 437401, Note_off_c, 12, 72, 56
13, 437758, Note_on_c, 12, 31, 108
13, 437759, Note_on_c, 12, 55, 108
13, 437760, Note_on_c, 12, 71, 108
13, 437760, Note_on_c, 12, 74, 108
13, 437761, Note_on_c, 12, 67, 108
13, 437761, Note_on_c, 12, 62, 108
13, 437878, Note_off_c, 12, 31, 56
13, 437879, Note_off_c, 12, 55, 56
13, 437880, Note_off_c, 12, 74, 56
13, 437880, Note_off_c, 12, 71, 56
13, 437881, Note_off_c, 12, 62, 56
13, 437881, Note_off_c, 12, 67, 56
13, 438238, Note_on_c, 12, 76, 108
13, 438239, Note_on_c, 12, 64, 108
13, 438239, Note_on_c, 12, 36, 108
13, 438240, Note_on_c, 12, 67, 108
13, 438242, Note_on_c, 12, 55, 108
13, 438242, Note_on_c, 12, 72, 108
13, 438358, Note_off_c, 12, 76, 56
13, 438359, Note_off_c, 12, 36, 56
13, 438359, Note_off_c, 12, 64, 56
13, 438360, Note_off_c, 12, 67, 56
13, 438362, Note_off_c, 12, 72, 56
13, 438362, Note_off_c, 12, 55, 56
13, 438720, Note_on_c, 12, 62, 108
13, 438720, Note_on_c, 12, 55, 108
13, 438721, Note_on_c, 12, 71, 108
13, 438722, Note_on_c, 12, 79, 108
13, 438722, Note_on_c, 12, 31, 108
13, 438840, Note_off_c, 12, 55, 56
13, 438840, Note_off_c, 12, 62, 56
13, 438841, Note_off_c, 12, 71, 56
13, 438842, Note_off_c, 12, 31, 56
13, 438842, Note_off_c, 12, 79, 56
13, 439198, Note_on_c, 12, 72, 108
13, 439199, Note_on_c, 12, 76, 108
13, 439199, Note_on_c, 12, 64, 108
13, 439201, Note_on_c, 12, 55, 108
13, 439201, Note_on_c, 12, 36, 108
13, 439318, Note_off_c, 12, 72, 56
13, 439319, Note_off_c, 12, 64, 56
13, 439319, Note_off_c, 12, 76, 56
13, 439321, Note_off_c, 12, 36, 56
13, 439321, Note_off_c, 12, 55, 56
13, 439680, Note_on_c, 12, 31, 108
13, 439681, Note_on_c, 12, 55, 108
13, 439682, Note_on_c, 12, 62, 108
13, 439682, Note_on_c, 12, 71, 108
13, 439682, Note_on_c, 12, 79, 108
13, 439800, Note_off_c, 12, 31, 56
13, 439801, Note_off_c, 12, 55, 56
13, 439802, Note_off_c, 12, 79, 56
13, 439802, Note_off_c, 12, 71, 56
13, 439802, Note_off_c, 12, 62, 56
13, 440158, Note_on_c, 12, 76, 108
13, 440158, Note_on_c, 12, 36, 108
13, 440159, Note_on_c, 12, 72, 108
13, 440159, Note_on_c, 12, 55, 108
13, 440161, Note_on_c, 12, 64, 108
13, 440278, Note_off_c, 12, 36, 56
13, 440278, Note_off_c, 12, 76, 56
13, 440279, Note_off_c, 12, 55, 56
13, 440279, Note_off_c, 12, 72, 56
13, 440281, Note_off_c, 12, 64, 56
13, 440638, Note_on_c, 12, 71, 108
13, 440638, Note_on_c, 12, 31, 108
13, 440641, Note_on_c, 12, 55, 108
13, 440642, Note_on_c, 12, 62, 108
13, 440642, Note_on_c, 12, 79, 108
13, 440758, Note_off_c, 12, 31, 56
13, 440758, Note_off_c, 12, 71, 56
13, 440761, Note_off_c, 12, 55, 56
13, 440762, Note_off_c, 12, 79, 56
13, 440762, Note_off_c, 12, 62, 56
13, 441118, Note_on_c, 12, 72, 113
13, 441119, Note_on_c, 12, 48, 108
13, 441120, Control_c, 12, 7, 120
13, 441120, Program_c, 12, 44
13, 441122, Note_on_c, 12, 84, 113
13, 441166, Note_off_c, 12, 72, 56
13, 441170, Note_off_c, 12, 84, 56
13, 441180, Note_on_c, 12, 72, 113
13, 441181, Note_on_c, 12, 84, 113
13, 441228, Note_off_c, 12, 72, 56
13, 441229, Note_off_c, 12, 84, 56
13, 441238, Note_on_c, 12, 72, 113
13, 441241, Note_on_c, 12, 84, 113
13, 441286, Note_off_c, 12, 72, 56
13, 441289, Note_off_c, 12, 84, 56
13, 441299, Note_on_c, 12, 72, 113
13, 441302, Note_on_c, 12, 84, 113
13, 441347, Note_off_c, 12, 72, 56
13, 441350, Note_off_c, 12, 84, 56
13, 441358, Note_on_c, 12, 72, 113
13, 441362, Note_on_c, 12, 84, 113
13, 441406, Note_off_c, 12, 72, 56
13, 441410, Note_off_c, 12, 84, 56
13, 441418, Note_on_c, 12, 84, 113
13, 441419, Note_on_c, 12, 72, 113
13, 441466, Note_off_c, 12, 84, 56
13, 441467, Note_off_c, 12, 72, 56
13, 441479, Note_on_c, 12, 84, 113
13, 441482, Note_on_c, 12, 72, 113
13, 441527, Note_off_c, 12, 84, 56
13, 441530, Note_off_c, 12, 72, 56
13, 441540, Note_on_c, 12, 72, 113
13, 441541, Note_on_c, 12, 84, 113
13, 441588, Note_off_c, 12, 72, 56
13, 441589, Note_off_c, 12, 84, 56
13, 441602, Note_on_c, 12, 84, 113
13, 441602, Note_on_c, 12, 72, 113
13, 441650, Note_off_c, 12, 72, 56
13, 441650, Note_off_c, 12, 84, 56
13, 441658, Note_on_c, 12, 84, 113
13, 441661, Note_on_c, 12, 72, 113
13, 441706, Note_off_c, 12, 84, 56
13, 441709, Note_off_c, 12, 72, 56
13, 441719, Note_on_c, 12, 72, 113
13, 441720, Note_on_c, 12, 84, 113
13, 441767, Note_off_c, 12, 72, 56
13, 441768, Note_off_c, 12, 84, 56
13, 441781, Note_on_c, 12, 72, 113
13, 441781, Note_on_c, 12, 84, 113
13, 441829, Note_off_c, 12, 84, 56
13, 441829, Note_off_c, 12, 72, 56
13, 441839, Note_on_c, 12, 79, 113
13, 441839, Note_on_c, 12, 67, 113
13, 441887, Note_off_c, 12, 67, 56
13, 441887, Note_off_c, 12, 79, 56
13, 441887, Note_off_c, 12, 48, 71
13, 441898, Note_on_c, 12, 79, 113
13, 441899, Note_on_c, 12, 67, 113
13, 441946, Note_off_c, 12, 79, 56
13, 441947, Note_off_c, 12, 67, 56
13, 441958, Note_on_c, 12, 76, 113
13, 441960, Note_on_c, 12, 64, 113
13, 442006, Note_off_c, 12, 76, 56
13, 442008, Note_off_c, 12, 64, 56
13, 442019, Note_on_c, 12, 76, 113
13, 442021, Note_on_c, 12, 64, 113
13, 442067, Note_off_c, 12, 76, 56
13, 442069, Note_off_c, 12, 64, 56
13, 442079, Note_on_c, 12, 48, 108
13, 442081, Note_on_c, 12, 72, 113
13, 442082, Note_on_c, 12, 60, 113
13, 442129, Note_off_c, 12, 72, 56
13, 442130, Note_off_c, 12, 60, 56
13, 442140, Note_on_c, 12, 72, 113
13, 442142, Note_on_c, 12, 60, 113
13, 442188, Note_off_c, 12, 72, 56
13, 442190, Note_off_c, 12, 60, 56
13, 442200, Note_on_c, 12, 72, 113
13, 442200, Note_on_c, 12, 60, 113
13, 442248, Note_off_c, 12, 60, 56
13, 442248, Note_off_c, 12, 72, 56
13, 442259, Note_on_c, 12, 60, 113
13, 442260, Note_on_c, 12, 72, 113
13, 442307, Note_off_c, 12, 60, 56
13, 442308, Note_off_c, 12, 72, 56
13, 442318, Note_on_c, 12, 72, 113
13, 442319, Note_on_c, 12, 60, 113
13, 442366, Note_off_c, 12, 72, 56
13, 442367, Note_off_c, 12, 60, 56
13, 442382, Note_on_c, 12, 72, 113
13, 442382, Note_on_c, 12, 60, 113
13, 442430, Note_off_c, 12, 60, 56
13, 442430, Note_off_c, 12, 72, 56
13, 442440, Note_on_c, 12, 60, 113
13, 442441, Note_on_c, 12, 72, 113
13, 442488, Note_off_c, 12, 60, 56
13, 442489, Note_off_c, 12, 72, 56
13, 442502, Note_on_c, 12, 72, 113
13, 442502, Note_on_c, 12, 60, 113
13, 442550, Note_off_c, 12, 60, 56
13, 442550, Note_off_c, 12, 72, 56
13, 442558, Note_on_c, 12, 60, 113
13, 442560, Note_on_c, 12, 72, 113
13, 442606, Note_off_c, 12, 60, 56
13, 442608, Note_off_c, 12, 72, 56
13, 442620, Note_on_c, 12, 72, 113
13, 442620, Note_on_c, 12, 60, 113
13, 442655, Note_off_c, 12, 48, 72
13, 442668, Note_off_c, 12, 60, 56
13, 442668, Note_off_c, 12, 72, 56
13, 442679, Note_on_c, 12, 72, 113
13, 442680, Note_on_c, 12, 60, 113
13, 442727, Note_off_c, 12, 72, 56
13, 442728, Note_off_c, 12, 60, 56
13, 442741, Note_on_c, 12, 60, 113
13, 442742, Note_on_c, 12, 72, 113
13, 442789, Note_off_c, 12, 60, 56
13, 442790, Note_off_c, 12, 72, 56
13, 442798, Note_on_c, 12, 67, 113
13, 442799, Note_on_c, 12, 55, 113
13, 442800, Note_on_c, 12, 43, 108
13, 442846, Note_off_c, 12, 67, 56
13, 442847, Note_off_c, 12, 55, 56
13, 442861, Note_on_c, 12, 55, 113
13, 442862, Note_on_c, 12, 67, 113
13, 442896, Note_off_c, 12, 43, 56
13, 442909, Note_off_c, 12, 55, 56
13, 442910, Note_off_c, 12, 67, 56
13, 442918, Note_on_c, 12, 52, 113
13, 442918, Note_on_c, 12, 40, 108
13, 442920, Note_on_c, 12, 64, 113
13, 442966, Note_off_c, 12, 52, 56
13, 442968, Note_off_c, 12, 64, 56
13, 442981, Note_on_c, 12, 52, 113
13, 442982, Note_on_c, 12, 64, 113
13, 443014, Note_off_c, 12, 40, 56
13, 443029, Note_off_c, 12, 52, 56
13, 443030, Note_off_c, 12, 64, 56
13, 443038, Note_on_c, 12, 60, 108
13, 443038, Note_on_c, 12, 48, 108
13, 443041, Note_on_c, 12, 36, 108
13, 443134, Note_off_c, 12, 48, 56
13, 443134, Note_off_c, 12, 60, 56
13, 443137, Note_off_c, 12, 36, 56
13, 443280, Control_c, 12, 7, 100
13, 443280, Program_c, 12, 48
13, 443399, Note_on_c, 12, 36, 108
13, 443400, Note_on_c, 12, 72, 108
13, 443402, Note_on_c, 12, 60, 108
13, 443495, Note_off_c, 12, 36, 56
13, 443496, Note_off_c, 12, 72, 56
13, 443498, Note_off_c, 12, 60, 56
13, 443518, Note_on_c, 12, 60, 108
13, 443519, Note_on_c, 12, 72, 108
13, 443520, Note_on_c, 12, 36, 108
13, 443614, Note_off_c, 12, 60, 56
13, 443615, Note_off_c, 12, 72, 56
13, 443616, Note_off_c, 12, 36, 56
13, 443639, Note_on_c, 12, 60, 108
13, 443641, Note_on_c, 12, 72, 108
13, 443641, Note_on_c, 12, 36, 108
13, 443735, Note_off_c, 12, 60, 56
13, 443737, Note_off_c, 12, 36, 56
13, 443737, Note_off_c, 12, 72, 56
13, 443760, Note_on_c, 12, 36, 108
13, 443762, Note_on_c, 12, 72, 108
13, 443762, Note_on_c, 12, 60, 108
13, 443856, Note_off_c, 12, 36, 56
13, 443858, Note_off_c, 12, 60, 56
13, 443858, Note_off_c, 12, 72, 56
13, 443879, Note_on_c, 12, 72, 108
13, 443882, Note_on_c, 12, 60, 108
13, 443882, Note_on_c, 12, 36, 108
13, 443975, Note_off_c, 12, 72, 56
13, 443978, Note_off_c, 12, 36, 56
13, 443978, Note_off_c, 12, 60, 56
13, 443998, Note_on_c, 12, 36, 108
13, 443999, Note_on_c, 12, 72, 108
13, 443999, Note_on_c, 12, 60, 108
13, 444094, Note_off_c, 12, 36, 56
13, 444095, Note_off_c, 12, 60, 56
13, 444095, Note_off_c, 12, 72, 56
13, 444358, Note_on_c, 12, 36, 108
13, 444360, Note_on_c, 12, 60, 108
13, 444362, Note_on_c, 12, 76, 108
13, 444454, Note_off_c, 12, 36, 56
13, 444456, Note_off_c, 12, 60, 56
13, 444458, Note_off_c, 12, 76, 56
13, 444479, Note_on_c, 12, 76, 108
13, 444480, Note_on_c, 12, 36, 108
13, 444481, Note_on_c, 12, 60, 108
13, 444575, Note_off_c, 12, 76, 56
13, 444576, Note_off_c, 12, 36, 56
13, 444577, Note_off_c, 12, 60, 56
13, 444598, Note_on_c, 12, 60, 108
13, 444599, Note_on_c, 12, 36, 108
13, 444602, Note_on_c, 12, 76, 108
13, 444694, Note_off_c, 12, 60, 56
13, 444695, Note_off_c, 12, 36, 56
13, 444698, Note_off_c, 12, 76, 56
13, 444718, Note_on_c, 12, 60, 108
13, 444719, Note_on_c, 12, 36, 108
13, 444721, Note_on_c, 12, 76, 108
13, 444814, Note_off_c, 12, 60, 56
13, 444815, Note_off_c, 12, 36, 56
13, 444817, Note_off_c, 12, 76, 56
13, 444838, Note_on_c, 12, 36, 108
13, 444840, Note_on_c, 12, 60, 108
13, 444841, Note_on_c, 12, 76, 108
13, 444934, Note_off_c, 12, 36, 56
13, 444936, Note_off_c, 12, 60, 56
13, 444937, Note_off_c, 12, 76, 56
13, 444958, Note_on_c, 12, 60, 108
13, 444960, Note_on_c, 12, 76, 108
13, 444962, Note_on_c, 12, 36, 108
13, 445054, Note_off_c, 12, 60, 56
13, 445056, Note_off_c, 12, 76, 56
13, 445058, Note_off_c, 12, 36, 56
13, 445199, Note_on_c, 12, 60, 108
13, 445199, Note_on_c, 12, 36, 108
13, 445200, Note_on_c, 12, 72, 108
13, 445200, Note_on_c, 12, 48, 108
13, 445295, Note_off_c, 12, 36, 56
13, 445295, Note_off_c, 12, 60, 56
13, 445296, Note_off_c, 12, 48, 56
13, 445296, Note_off_c, 12, 72, 56
13, 445318, Note_on_c, 12, 36, 108
13, 445319, Note_on_c, 12, 72, 108
13, 445320, Note_on_c, 12, 48, 108
13, 445322, Note_on_c, 12, 60, 108
13, 445414, Note_off_c, 12, 36, 56
13, 445415, Note_off_c, 12, 72, 56
13, 445416, Note_off_c, 12, 48, 56
13, 445418, Note_off_c, 12, 60, 56
13, 445438, Note_on_c, 12, 72, 108
13, 445438, Note_on_c, 12, 36, 108
13, 445438, Note_on_c, 12, 60, 108
13, 445441, Note_on_c, 12, 48, 108
13, 445534, Note_off_c, 12, 60, 56
13, 445534, Note_off_c, 12, 36, 56
13, 445534, Note_off_c, 12, 72, 56
13, 445537, Note_off_c, 12, 48, 56
13, 445678, Note_on_c, 12, 76, 108
13, 445678, Note_on_c, 12, 60, 108
13, 445678, Note_on_c, 12, 48, 108
13, 445679, Note_on_c, 12, 36, 108
13, 445774, Note_off_c, 12, 48, 56
13, 445774, Note_off_c, 12, 60, 56
13, 445774, Note_off_c, 12, 76, 56
13, 445775, Note_off_c, 12, 36, 56
13, 445798, Note_on_c, 12, 48, 108
13, 445799, Note_on_c, 12, 60, 108
13, 445799, Note_on_c, 12, 36, 108
13, 445801, Note_on_c, 12, 76, 108
13, 445894, Note_off_c, 12, 48, 56
13, 445895, Note_off_c, 12, 36, 56
13, 445895, Note_off_c, 12, 60, 56
13, 445897, Note_off_c, 12, 76, 56
13, 445919, Note_on_c, 12, 60, 108
13, 445921, Note_on_c, 12, 76, 108
13, 445922, Note_on_c, 12, 48, 108
13, 445922, Note_on_c, 12, 36, 108
13, 446015, Note_off_c, 12, 60, 56
13, 446017, Note_off_c, 12, 76, 56
13, 446018, Note_off_c, 12, 36, 56
13, 446018, Note_off_c, 12, 48, 56
13, 446158, Note_on_c, 12, 79, 108
13, 446159, Note_on_c, 12, 48, 108
13, 446159, Note_on_c, 12, 36, 108
13, 446160, Note_on_c, 12, 60, 108
13, 446254, Note_off_c, 12, 79, 56
13, 446255, Note_off_c, 12, 36, 56
13, 446255, Note_off_c, 12, 48, 56
13, 446256, Note_off_c, 12, 60, 56
13, 446278, Note_on_c, 12, 48, 108
13, 446279, Note_on_c, 12, 79, 108
13, 446280, Note_on_c, 12, 60, 108
13, 446281, Note_on_c, 12, 36, 108
13, 446374, Note_off_c, 12, 48, 56
13, 446375, Note_off_c, 12, 79, 56
13, 446376, Note_off_c, 12, 60, 56
13, 446377, Note_off_c, 12, 36, 56
13, 446398, Note_on_c, 12, 60, 108
13, 446400, Note_on_c, 12, 48, 108
13, 446400, Note_on_c, 12, 36, 108
13, 446402, Note_on_c, 12, 79, 108
13, 446494, Note_off_c, 12, 60, 56
13, 446496, Note_off_c, 12, 36, 56
13, 446496, Note_off_c, 12, 48, 56
13, 446498, Note_off_c, 12, 79, 56
13, 446638, Note_on_c, 12, 36, 108
13, 446639, Note_on_c, 12, 60, 108
13, 446641, Note_on_c, 12, 84, 108
13, 446734, Note_off_c, 12, 36, 56
13, 446735, Note_off_c, 12, 60, 56
13, 446737, Note_off_c, 12, 84, 56
13, 446758, Note_on_c, 12, 84, 108
13, 446762, Note_on_c, 12, 60, 108
13, 446762, Note_on_c, 12, 36, 108
13, 446854, Note_off_c, 12, 84, 56
13, 446858, Note_off_c, 12, 36, 56
13, 446858, Note_off_c, 12, 60, 56
13, 446878, Note_on_c, 12, 36, 108
13, 446880, Note_on_c, 12, 84, 113
13, 446881, Note_on_c, 12, 60, 108
13, 446928, Note_off_c, 12, 84, 56
13, 446939, Note_on_c, 12, 84, 113
13, 446974, Note_off_c, 12, 36, 56
13, 446977, Note_off_c, 12, 60, 56
13, 446987, Note_off_c, 12, 84, 56
13, 446998, Note_on_c, 12, 64, 108
13, 447002, Note_on_c, 12, 84, 113
13, 447002, Note_on_c, 12, 40, 108
13, 447050, Note_off_c, 12, 84, 56
13, 447060, Note_on_c, 12, 84, 113
13, 447094, Note_off_c, 12, 64, 56
13, 447098, Note_off_c, 12, 40, 56
13, 447108, Note_off_c, 12, 84, 56
13, 447118, Note_on_c, 12, 84, 113
13, 447122, Note_on_c, 12, 67, 108
13, 447122, Note_on_c, 12, 43, 108
13, 447166, Note_off_c, 12, 84, 56
13, 447182, Note_on_c, 12, 84, 113
13, 447218, Note_off_c, 12, 43, 56
13, 447218, Note_off_c, 12, 67, 56
13, 447230, Note_off_c, 12, 84, 56
13, 447239, Note_on_c, 12, 48, 108
13, 447240, Note_on_c, 12, 84, 113
13, 447240, Note_on_c, 12, 72, 108
13, 447288, Note_off_c, 12, 84, 56
13, 447302, Note_on_c, 12, 84, 113
13, 447335, Note_off_c, 12, 48, 56
13, 447336, Note_off_c, 12, 72, 56
13, 447350, Note_off_c, 12, 84, 56
13, 447358, Note_on_c, 12, 84, 113
13, 447358, Note_on_c, 12, 76, 108
13, 447359, Note_on_c, 12, 52, 108
13, 447406, Note_off_c, 12, 84, 56
13, 447418, Note_on_c, 12, 84, 113
13, 447454, Note_off_c, 12, 76, 56
13, 447455, Note_off_c, 12, 52, 56
13, 447466, Note_off_c, 12, 84, 56
13, 447481, Note_on_c, 12, 79, 108
13, 447481, Note_on_c, 12, 55, 108
13, 447482, Note_on_c, 12, 84, 113
13, 447530, Note_off_c, 12, 84, 56
13, 447538, Note_on_c, 12, 84, 113
13, 447577, Note_off_c, 12, 55, 56
13, 447577, Note_off_c, 12, 79, 56
13, 447586, Note_off_c, 12, 84, 56
13, 447598, Note_on_c, 12, 76, 108
13, 447598, Note_on_c, 12, 52, 108
13, 447599, Note_on_c, 12, 84, 113
13, 447647, Note_off_c, 12, 84, 56
13, 447659, Note_on_c, 12, 84, 113
13, 447694, Note_off_c, 12, 52, 56
13, 447694, Note_off_c, 12, 76, 56
13, 447707, Note_off_c, 12, 84, 56
13, 447720, Note_on_c, 12, 48, 108
13, 447722, Note_on_c, 12, 84, 113
13, 447722, Note_on_c, 12, 72, 108
13, 447770, Note_off_c, 12, 84, 56
13, 447780, Note_on_c, 12, 84, 113
13, 447816, Note_off_c, 12, 48, 56
13, 447818, Note_off_c, 12, 72, 56
13, 447828, Note_off_c, 12, 84, 56
13, 447840, Note_on_c, 12, 67, 108
13, 447840, Note_on_c, 12, 43, 108
13, 447841, Note_on_c, 12, 88, 113
13, 447889, Note_off_c, 12, 88, 56
13, 447902, Note_on_c, 12, 88, 113
13, 447936, Note_off_c, 12, 43, 56
13, 447936, Note_off_c, 12, 67, 56
13, 447950, Note_off_c, 12, 88, 56
13, 447959, Note_on_c, 12, 88, 113
13, 447959, Note_on_c, 12, 40, 108
13, 447961, Note_on_c, 12, 64, 108
13, 448007, Note_off_c, 12, 88, 56
13, 448019, Note_on_c, 12, 88, 113
13, 448055, Note_off_c, 12, 40, 56
13, 448057, Note_off_c, 12, 64, 56
13, 448067, Note_off_c, 12, 88, 56
13, 448079, Note_on_c, 12, 88, 113
13, 448079, Note_on_c, 12, 36, 108
13, 448079, Note_on_c, 12, 60, 108
13, 448127, Note_off_c, 12, 88, 56
13, 448141, Note_on_c, 12, 88, 113
13, 448175, Note_off_c, 12, 60, 56
13, 448175, Note_off_c, 12, 36, 56
13, 448189, Note_off_c, 12, 88, 56
13, 448199, Note_on_c, 12, 31, 108
13, 448201, Note_on_c, 12, 88, 113
13, 448202, Note_on_c, 12, 55, 108
13, 448249, Note_off_c, 12, 88, 56
13, 448259, Note_on_c, 12, 88, 113
13, 448295, Note_off_c, 12, 31, 56
13, 448298, Note_off_c, 12, 55, 56
13, 448307, Note_off_c, 12, 88, 56
13, 448318, Note_on_c, 12, 28, 108
13, 448319, Note_on_c, 12, 52, 108
13, 448319, Note_on_c, 12, 88, 113
13, 448367, Note_off_c, 12, 88, 56
13, 448381, Note_on_c, 12, 88, 113
13, 448414, Note_off_c, 12, 28, 56
13, 448415, Note_off_c, 12, 52, 56
13, 448429, Note_off_c, 12, 88, 56
13, 448439, Note_on_c, 12, 88, 113
13, 448439, Note_on_c, 12, 48, 108
13, 448441, Note_on_c, 12, 24, 108
13, 448487, Note_off_c, 12, 88, 56
13, 448502, Note_on_c, 12, 88, 113
13, 448535, Note_off_c, 12, 48, 56
13, 448537, Note_off_c, 12, 24, 56
13, 448550, Note_off_c, 12, 88, 56
13, 448559, Note_on_c, 12, 60, 108
13, 448560, Note_on_c, 12, 88, 113
13, 448562, Note_on_c, 12, 36, 108
13, 448608, Note_off_c, 12, 88, 56
13, 448620, Note_on_c, 12, 88, 113
13, 448655, Note_off_c, 12, 60, 56
13, 448658, Note_off_c, 12, 36, 56
13, 448668, Note_off_c, 12, 88, 56
13, 448678, Note_on_c, 12, 88, 113
13, 448679, Note_on_c, 12, 60, 108
13, 448682, Note_on_c, 12, 36, 108
13, 448726, Note_off_c, 12, 88, 56
13, 448738, Note_on_c, 12, 88, 113
13, 448775, Note_off_c, 12, 60, 56
13, 448778, Note_off_c, 12, 36, 56
13, 448786, Note_off_c, 12, 88, 56
13, 448798, Note_on_c, 12, 60, 108
13, 448799, Note_on_c, 12, 88, 108
13, 448801, Note_on_c, 12, 48, 108
13, 448802, Note_on_c, 12, 67, 108
13, 448802, Note_on_c, 12, 36, 108
13, 448918, Note_off_c, 12, 60, 56
13, 448919, Note_off_c, 12, 88, 56
13, 448921, Note_off_c, 12, 48, 56
13, 448922, Note_off_c, 12, 36, 56
13, 448922, Note_off_c, 12, 67, 56
13, 449759, Note_on_c, 12, 84, 108
13, 449761, Note_on_c, 12, 60, 108
13, 449761, Note_on_c, 12, 67, 108
13, 449761, Note_on_c, 12, 64, 108
13, 449762, Note_on_c, 12, 55, 108
13, 449762, Note_on_c, 12, 36, 108
13, 449762, Note_on_c, 12, 72, 108
13, 449879, Note_off_c, 12, 84, 56
13, 449881, Note_off_c, 12, 64, 56
13, 449881, Note_off_c, 12, 67, 56
13, 449881, Note_off_c, 12, 60, 56
13, 449882, Note_off_c, 12, 72, 56
13, 449882, Note_off_c, 12, 36, 56
13, 449882, Note_off_c, 12, 55, 56
13, 450719, Note_on_c, 12, 60, 108
13, 450719, Note_on_c, 12, 72, 108
13, 450720, Note_on_c, 12, 48, 108
13, 450720, Note_on_c, 12, 36, 108
13, 450721, Note_on_c, 12, 64, 108
13, 450721, Note_on_c, 12, 55, 108
13, 450839, Note_off_c, 12, 72, 56
13, 450839, Note_off_c, 12, 60, 56
13, 450840, Note_off_c, 12, 36, 56
13, 450840, Note_off_c, 12, 48, 56
13, 450841, Note_off_c, 12, 55, 56
13, 450841, Note_off_c, 12, 64, 56
13, 451678, Note_on_c, 12, 84, 108
13, 451678, Note_on_c, 12, 48, 108
13, 451679, Note_on_c, 12, 55, 108
13, 451679, Note_on_c, 12, 67, 108
13, 451679, Note_on_c, 12, 36, 108
13, 451680, Note_on_c, 12, 72, 108
13, 451681, Note_on_c, 12, 64, 108
13, 451682, Note_on_c, 12, 60, 108
13, 451798, Note_off_c, 12, 48, 56
13, 451798, Note_off_c, 12, 84, 56
13, 451799, Note_off_c, 12, 36, 56
13, 451799, Note_off_c, 12, 67, 56
13, 451799, Note_off_c, 12, 55, 56
13, 451800, Note_off_c, 12, 72, 56
13, 451801, Note_off_c, 12, 64, 56
13, 451802, Note_off_c, 12, 60, 56
13, 452159, Note_on_c, 12, 84, 108
13, 452159, Note_on_c, 12, 64, 108
13, 452160, Note_on_c, 12, 72, 108
13, 452161, Note_on_c, 12, 48, 108
13, 452161, Note_on_c, 12, 36, 108
13, 452161, Note_on_c, 12, 55, 108
13, 452162, Note_on_c, 12, 60, 108
13, 452162, Note_on_c, 12, 67, 108
13, 452279, Note_off_c, 12, 64, 56
13, 452279, Note_off_c, 12, 84, 56
13, 452280, Note_off_c, 12, 72, 56
13, 452281, Note_off_c, 12, 55, 56
13, 452281, Note_off_c, 12, 36, 56
13, 452281, Note_off_c, 12, 48, 56
13, 452282, Note_off_c, 12, 67, 56
13, 452282, Note_off_c, 12, 60, 56
13, 452638, Note_on_c, 12, 84, 108
13, 452639, Note_on_c, 12, 36, 108
13, 452640, Note_on_c, 12, 48, 108
13, 452640, Note_on_c, 12, 55, 108
13, 452640, Note_on_c, 12, 72, 108
13, 452642, Note_on_c, 12, 64, 108
13, 452642, Note_on_c, 12, 60, 108
13, 452642, Note_on_c, 12, 67, 108
13, 452758, Note_off_c, 12, 84, 56
13, 452759, Note_off_c, 12, 36, 56
13, 452760, Note_off_c, 12, 72, 56
13, 452760, Note_off_c, 12, 55, 56
13, 452760, Note_off_c, 12, 48, 56
13, 452762, Note_off_c, 12, 67, 56
13, 452762, Note_off_c, 12, 60, 56
13, 452762, Note_off_c, 12, 64, 56
13, 453598, Note_on_c, 12, 72, 108
13, 453598, Note_on_c, 12, 55, 108
13, 453598, Note_on_c, 12, 48, 108
13, 453599, Note_on_c, 12, 84, 108
13, 453599, Note_on_c, 12, 60, 108
13, 453600, Note_on_c, 12, 36, 108
13, 453600, Note_on_c, 12, 67, 108
13, 453600, Note_on_c, 12, 64, 108
13, 453718, Note_off_c, 12, 48, 56
13, 453718, Note_off_c, 12, 55, 56
13, 453718, Note_off_c, 12, 72, 56
13, 453719, Note_off_c, 12, 60, 56
13, 453719, Note_off_c, 12, 84, 56
13, 453720, Note_off_c, 12, 64, 56
13, 453720, Note_off_c, 12, 67, 56
13, 453720, Note_off_c, 12, 36, 56
13, 454558, Note_on_c, 12, 48, 108
13, 454558, Note_on_c, 12, 60, 108
13, 454560, Note_on_c, 12, 36, 108
13, 455518, Note_off_c, 12, 60, 76
13, 455518, Note_off_c, 12, 48, 76
13, 455520, Note_off_c, 12, 36, 76
13, 455520, End_track
14, 0, Start_track
14, 0, Title_t, "Orch-R"
14, 0, Program_c, 13, 48
14, 0, Control_c, 13, 7, 110
14, 0, Control_c, 13, 0, 0
14, 0, Control_c, 13, 32, 8
14, 0, Note_on_c, 13, 88, 108
14, 0, Note_on_c, 13, 48, 108
14, 0, Control_c, 13, 91, 22
14, 0, Control_c, 13, 93, 26
14, 0, Control_c, 13, 10, 99
14, 1, Note_on_c, 13, 36, 108
14, 1, Note_on_c, 13, 76, 108
14, 182, Note_off_c, 13, 48, 64
14, 182, Note_off_c, 13, 88, 64
14, 183, Note_off_c, 13, 76, 64
14, 183, Note_off_c, 13, 36, 64
14, 479, Note_on_c, 13, 64, 108
14, 479, Note_on_c, 13, 55, 108
14, 481, Note_on_c, 13, 48, 108
14, 482, Note_on_c, 13, 36, 108
14, 661, Note_off_c, 13, 55, 64
14, 661, Note_off_c, 13, 64, 64
14, 663, Note_off_c, 13, 48, 64
14, 664, Note_off_c, 13, 36, 64
14, 958, Note_on_c, 13, 48, 108
14, 958, Note_on_c, 13, 36, 108
14, 959, Note_on_c, 13, 64, 108
14, 962, Note_on_c, 13, 55, 108
14, 1141, Note_off_c, 13, 64, 64
14, 1144, Note_off_c, 13, 55, 64
14, 1534, Note_off_c, 13, 36, 64
14, 1534, Note_off_c, 13, 48, 64
14, 1679, Note_on_c, 13, 55, 108
14, 1679, Note_on_c, 13, 43, 108
14, 1681, Note_on_c, 13, 62, 108
14, 1770, Note_off_c, 13, 43, 56
14, 1770, Note_off_c, 13, 55, 56
14, 1772, Note_off_c, 13, 62, 56
14, 1918, Note_on_c, 13, 55, 108
14, 1921, Note_on_c, 13, 48, 108
14, 1921, Note_on_c, 13, 64, 108
14, 2009, Note_off_c, 13, 55, 56
14, 2012, Note_off_c, 13, 64, 56
14, 2012, Note_off_c, 13, 48, 56
14, 2160, Note_on_c, 13, 43, 108
14, 2161, Note_on_c, 13, 55, 108
14, 2162, Note_on_c, 13, 65, 108
14, 2251, Note_off_c, 13, 43, 56
14, 2252, Note_off_c, 13, 55, 56
14, 2253, Note_off_c, 13, 65, 56
14, 2401, Note_on_c, 13, 55, 108
14, 2401, Note_on_c, 13, 36, 108
14, 2402, Note_on_c, 13, 64, 108
14, 2492, Note_off_c, 13, 36, 56
14, 2492, Note_off_c, 13, 55, 56
14, 2493, Note_off_c, 13, 64, 56
14, 2639, Note_on_c, 13, 55, 108
14, 2639, Note_on_c, 13, 65, 108
14, 2641, Note_on_c, 13, 43, 108
14, 2730, Note_off_c, 13, 65, 56
14, 2730, Note_off_c, 13, 55, 56
14, 2732, Note_off_c, 13, 43, 56
14, 2878, Note_on_c, 13, 55, 113
14, 2879, Note_on_c, 13, 36, 108
14, 2882, Note_on_c, 13, 64, 113
14, 2923, Note_off_c, 13, 55, 56
14, 2927, Note_off_c, 13, 64, 56
14, 2940, Note_on_c, 13, 60, 113
14, 2985, Note_off_c, 13, 60, 56
14, 3000, Note_on_c, 13, 60, 113
14, 3045, Note_off_c, 13, 60, 56
14, 3062, Note_on_c, 13, 60, 113
14, 3107, Note_off_c, 13, 60, 56
14, 3119, Note_on_c, 13, 60, 113
14, 3164, Note_off_c, 13, 60, 56
14, 3180, Note_on_c, 13, 60, 113
14, 3225, Note_off_c, 13, 60, 56
14, 3242, Note_on_c, 13, 60, 113
14, 3287, Note_off_c, 13, 60, 56
14, 3298, Note_on_c, 13, 60, 113
14, 3343, Note_off_c, 13, 60, 56
14, 3361, Note_on_c, 13, 60, 113
14, 3406, Note_off_c, 13, 60, 56
14, 3422, Note_on_c, 13, 60, 113
14, 3455, Note_off_c, 13, 36, 64
14, 3467, Note_off_c, 13, 60, 56
14, 3478, Note_on_c, 13, 60, 113
14, 3523, Note_off_c, 13, 60, 56
14, 3539, Note_on_c, 13, 60, 113
14, 3584, Note_off_c, 13, 60, 56
14, 3601, Note_on_c, 13, 48, 108
14, 3737, Note_off_c, 13, 48, 64
14, 3778, Note_on_c, 13, 48, 113
14, 3823, Note_off_c, 13, 48, 56
14, 3838, Note_on_c, 13, 59, 113
14, 3840, Note_on_c, 13, 43, 108
14, 3883, Note_off_c, 13, 59, 56
14, 3900, Note_on_c, 13, 59, 113
14, 3945, Note_off_c, 13, 59, 56
14, 3958, Note_on_c, 13, 59, 113
14, 4003, Note_off_c, 13, 59, 56
14, 4021, Note_on_c, 13, 59, 113
14, 4066, Note_off_c, 13, 59, 56
14, 4079, Note_on_c, 13, 59, 113
14, 4124, Note_off_c, 13, 59, 56
14, 4138, Note_on_c, 13, 59, 113
14, 4183, Note_off_c, 13, 59, 56
14, 4200, Note_on_c, 13, 59, 113
14, 4245, Note_off_c, 13, 59, 56
14, 4260, Note_on_c, 13, 59, 113
14, 4305, Note_off_c, 13, 59, 56
14, 4318, Note_on_c, 13, 59, 113
14, 4363, Note_off_c, 13, 59, 56
14, 4381, Note_on_c, 13, 59, 113
14, 4416, Note_off_c, 13, 43, 64
14, 4426, Note_off_c, 13, 59, 56
14, 4438, Note_on_c, 13, 59, 113
14, 4483, Note_off_c, 13, 59, 56
14, 4499, Note_on_c, 13, 59, 113
14, 4544, Note_off_c, 13, 59, 56
14, 4558, Note_on_c, 13, 43, 108
14, 4559, Note_on_c, 13, 59, 113
14, 4604, Note_off_c, 13, 59, 56
14, 4621, Note_on_c, 13, 59, 113
14, 4666, Note_off_c, 13, 59, 56
14, 4679, Note_on_c, 13, 59, 113
14, 4694, Note_off_c, 13, 43, 64
14, 4724, Note_off_c, 13, 59, 56
14, 4740, Note_on_c, 13, 59, 113
14, 4741, Note_on_c, 13, 43, 113
14, 4785, Note_off_c, 13, 59, 56
14, 4786, Note_off_c, 13, 43, 56
14, 4801, Note_on_c, 13, 60, 113
14, 4802, Note_on_c, 13, 48, 108
14, 4846, Note_off_c, 13, 60, 56
14, 4859, Note_on_c, 13, 60, 113
14, 4904, Note_off_c, 13, 60, 56
14, 4919, Note_on_c, 13, 60, 113
14, 4964, Note_off_c, 13, 60, 56
14, 4978, Note_on_c, 13, 60, 113
14, 5023, Note_off_c, 13, 60, 56
14, 5040, Note_on_c, 13, 60, 113
14, 5085, Note_off_c, 13, 60, 56
14, 5101, Note_on_c, 13, 60, 113
14, 5146, Note_off_c, 13, 60, 56
14, 5159, Note_on_c, 13, 60, 113
14, 5204, Note_off_c, 13, 60, 56
14, 5221, Note_on_c, 13, 60, 113
14, 5266, Note_off_c, 13, 60, 56
14, 5282, Note_on_c, 13, 60, 113
14, 5327, Note_off_c, 13, 60, 56
14, 5342, Note_on_c, 13, 60, 113
14, 5387, Note_off_c, 13, 60, 56
14, 5401, Note_on_c, 13, 60, 113
14, 5446, Note_off_c, 13, 60, 56
14, 5462, Note_on_c, 13, 60, 113
14, 5507, Note_off_c, 13, 60, 56
14, 5518, Note_on_c, 13, 60, 113
14, 5563, Note_off_c, 13, 60, 56
14, 5570, Note_off_c, 13, 48, 64
14, 5580, Note_on_c, 13, 60, 113
14, 5625, Note_off_c, 13, 60, 56
14, 5641, Note_on_c, 13, 60, 113
14, 5686, Note_off_c, 13, 60, 56
14, 5700, Note_on_c, 13, 60, 113
14, 5745, Note_off_c, 13, 60, 56
14, 5759, Note_on_c, 13, 60, 113
14, 5760, Note_on_c, 13, 45, 108
14, 5804, Note_off_c, 13, 60, 56
14, 5820, Note_on_c, 13, 60, 113
14, 5865, Note_off_c, 13, 60, 56
14, 5878, Note_on_c, 13, 60, 113
14, 5923, Note_off_c, 13, 60, 56
14, 5940, Note_on_c, 13, 60, 113
14, 5985, Note_off_c, 13, 60, 56
14, 6002, Note_on_c, 13, 60, 113
14, 6047, Note_off_c, 13, 60, 56
14, 6059, Note_on_c, 13, 60, 113
14, 6104, Note_off_c, 13, 60, 56
14, 6121, Note_on_c, 13, 60, 113
14, 6144, Note_off_c, 13, 45, 64
14, 6166, Note_off_c, 13, 60, 56
14, 6178, Note_on_c, 13, 60, 113
14, 6223, Note_off_c, 13, 60, 56
14, 6240, Note_on_c, 13, 60, 113
14, 6242, Note_on_c, 13, 41, 108
14, 6285, Note_off_c, 13, 60, 56
14, 6298, Note_on_c, 13, 60, 113
14, 6343, Note_off_c, 13, 60, 56
14, 6361, Note_on_c, 13, 60, 113
14, 6406, Note_off_c, 13, 60, 56
14, 6422, Note_on_c, 13, 60, 113
14, 6467, Note_off_c, 13, 60, 56
14, 6481, Note_on_c, 13, 60, 113
14, 6526, Note_off_c, 13, 60, 56
14, 6542, Note_on_c, 13, 60, 113
14, 6587, Note_off_c, 13, 60, 56
14, 6600, Note_on_c, 13, 60, 113
14, 6626, Note_off_c, 13, 41, 64
14, 6645, Note_off_c, 13, 60, 56
14, 6660, Note_on_c, 13, 60, 113
14, 6705, Note_off_c, 13, 60, 56
14, 6718, Note_on_c, 13, 40, 108
14, 6719, Note_on_c, 13, 60, 113
14, 6764, Note_off_c, 13, 60, 56
14, 6782, Note_on_c, 13, 60, 113
14, 6809, Note_off_c, 13, 40, 56
14, 6827, Note_off_c, 13, 60, 56
14, 6839, Note_on_c, 13, 60, 113
14, 6841, Note_on_c, 13, 41, 108
14, 6884, Note_off_c, 13, 60, 56
14, 6901, Note_on_c, 13, 60, 113
14, 6932, Note_off_c, 13, 41, 56
14, 6946, Note_off_c, 13, 60, 56
14, 6959, Note_on_c, 13, 60, 113
14, 6959, Note_on_c, 13, 40, 108
14, 7004, Note_off_c, 13, 60, 56
14, 7021, Note_on_c, 13, 60, 113
14, 7050, Note_off_c, 13, 40, 56
14, 7066, Note_off_c, 13, 60, 56
14, 7081, Note_on_c, 13, 38, 108
14, 7082, Note_on_c, 13, 60, 113
14, 7127, Note_off_c, 13, 60, 56
14, 7140, Note_on_c, 13, 60, 113
14, 7172, Note_off_c, 13, 38, 56
14, 7185, Note_off_c, 13, 60, 56
14, 7199, Note_on_c, 13, 36, 108
14, 7201, Note_on_c, 13, 60, 113
14, 7246, Note_off_c, 13, 60, 56
14, 7260, Note_on_c, 13, 60, 113
14, 7305, Note_off_c, 13, 60, 56
14, 7320, Note_on_c, 13, 60, 113
14, 7365, Note_off_c, 13, 60, 56
14, 7378, Note_on_c, 13, 60, 113
14, 7423, Note_off_c, 13, 60, 56
14, 7441, Note_on_c, 13, 60, 113
14, 7486, Note_off_c, 13, 60, 56
14, 7500, Note_on_c, 13, 60, 113
14, 7545, Note_off_c, 13, 60, 56
14, 7559, Note_on_c, 13, 60, 113
14, 7583, Note_off_c, 13, 36, 64
14, 7604, Note_off_c, 13, 60, 56
14, 7618, Note_on_c, 13, 60, 113
14, 7663, Note_off_c, 13, 60, 56
14, 7679, Note_on_c, 13, 60, 113
14, 7679, Note_on_c, 13, 45, 108
14, 7724, Note_off_c, 13, 60, 56
14, 7742, Note_on_c, 13, 60, 113
14, 7787, Note_off_c, 13, 60, 56
14, 7802, Note_on_c, 13, 60, 113
14, 7847, Note_off_c, 13, 60, 56
14, 7860, Note_on_c, 13, 60, 113
14, 7905, Note_off_c, 13, 60, 56
14, 7921, Note_on_c, 13, 60, 113
14, 7966, Note_off_c, 13, 60, 56
14, 7978, Note_on_c, 13, 60, 113
14, 8023, Note_off_c, 13, 60, 56
14, 8038, Note_on_c, 13, 60, 113
14, 8063, Note_off_c, 13, 45, 64
14, 8083, Note_off_c, 13, 60, 56
14, 8099, Note_on_c, 13, 60, 113
14, 8144, Note_off_c, 13, 60, 56
14, 8162, Note_on_c, 13, 41, 108
14, 8162, Note_on_c, 13, 60, 113
14, 8207, Note_off_c, 13, 60, 56
14, 8221, Note_on_c, 13, 60, 113
14, 8266, Note_off_c, 13, 60, 56
14, 8278, Note_on_c, 13, 60, 113
14, 8323, Note_off_c, 13, 60, 56
14, 8340, Note_on_c, 13, 60, 113
14, 8385, Note_off_c, 13, 60, 56
14, 8399, Note_on_c, 13, 60, 113
14, 8444, Note_off_c, 13, 60, 56
14, 8458, Note_on_c, 13, 60, 113
14, 8503, Note_off_c, 13, 60, 56
14, 8521, Note_on_c, 13, 60, 113
14, 8546, Note_off_c, 13, 41, 64
14, 8566, Note_off_c, 13, 60, 56
14, 8581, Note_on_c, 13, 60, 113
14, 8626, Note_off_c, 13, 60, 56
14, 8639, Note_on_c, 13, 60, 113
14, 8642, Note_on_c, 13, 40, 108
14, 8684, Note_off_c, 13, 60, 56
14, 8701, Note_on_c, 13, 60, 113
14, 8733, Note_off_c, 13, 40, 56
14, 8746, Note_off_c, 13, 60, 56
14, 8758, Note_on_c, 13, 60, 113
14, 8759, Note_on_c, 13, 41, 108
14, 8803, Note_off_c, 13, 60, 56
14, 8821, Note_on_c, 13, 60, 113
14, 8850, Note_off_c, 13, 41, 56
14, 8866, Note_off_c, 13, 60, 56
14, 8881, Note_on_c, 13, 60, 113
14, 8881, Note_on_c, 13, 40, 108
14, 8926, Note_off_c, 13, 60, 56
14, 8939, Note_on_c, 13, 60, 113
14, 8972, Note_off_c, 13, 40, 56
14, 8984, Note_off_c, 13, 60, 56
14, 8998, Note_on_c, 13, 38, 108
14, 9001, Note_on_c, 13, 60, 113
14, 9046, Note_off_c, 13, 60, 56
14, 9061, Note_on_c, 13, 60, 113
14, 9089, Note_off_c, 13, 38, 56
14, 9106, Note_off_c, 13, 60, 56
14, 9120, Note_on_c, 13, 60, 113
14, 9120, Note_on_c, 13, 36, 108
14, 9165, Note_off_c, 13, 60, 56
14, 9182, Note_on_c, 13, 60, 113
14, 9227, Note_off_c, 13, 60, 56
14, 9242, Note_on_c, 13, 60, 113
14, 9287, Note_off_c, 13, 60, 56
14, 9300, Note_on_c, 13, 60, 113
14, 9345, Note_off_c, 13, 60, 56
14, 9359, Note_on_c, 13, 60, 113
14, 9404, Note_off_c, 13, 60, 56
14, 9422, Note_on_c, 13, 60, 113
14, 9467, Note_off_c, 13, 60, 56
14, 9482, Note_on_c, 13, 60, 113
14, 9504, Note_off_c, 13, 36, 64
14, 9527, Note_off_c, 13, 60, 56
14, 9539, Note_on_c, 13, 60, 113
14, 9584, Note_off_c, 13, 60, 56
14, 9598, Note_on_c, 13, 60, 113
14, 9600, Note_on_c, 13, 45, 108
14, 9643, Note_off_c, 13, 60, 56
14, 9658, Note_on_c, 13, 60, 113
14, 9703, Note_off_c, 13, 60, 56
14, 9718, Note_on_c, 13, 60, 113
14, 9763, Note_off_c, 13, 60, 56
14, 9780, Note_on_c, 13, 60, 113
14, 9825, Note_off_c, 13, 60, 56
14, 9838, Note_on_c, 13, 60, 113
14, 9883, Note_off_c, 13, 60, 56
14, 9898, Note_on_c, 13, 60, 113
14, 9943, Note_off_c, 13, 60, 56
14, 9961, Note_on_c, 13, 60, 113
14, 9984, Note_off_c, 13, 45, 64
14, 10006, Note_off_c, 13, 60, 56
14, 10019, Note_on_c, 13, 60, 113
14, 10064, Note_off_c, 13, 60, 56
14, 10078, Note_on_c, 13, 60, 113
14, 10080, Note_on_c, 13, 41, 108
14, 10123, Note_off_c, 13, 60, 56
14, 10142, Note_on_c, 13, 60, 113
14, 10187, Note_off_c, 13, 60, 56
14, 10201, Note_on_c, 13, 60, 113
14, 10246, Note_off_c, 13, 60, 56
14, 10261, Note_on_c, 13, 60, 113
14, 10306, Note_off_c, 13, 60, 56
14, 10319, Note_on_c, 13, 60, 113
14, 10364, Note_off_c, 13, 60, 56
14, 10378, Note_on_c, 13, 60, 113
14, 10423, Note_off_c, 13, 60, 56
14, 10439, Note_on_c, 13, 60, 113
14, 10464, Note_off_c, 13, 41, 64
14, 10484, Note_off_c, 13, 60, 56
14, 10501, Note_on_c, 13, 60, 113
14, 10546, Note_off_c, 13, 60, 56
14, 10560, Note_on_c, 13, 60, 113
14, 10561, Note_on_c, 13, 40, 108
14, 10605, Note_off_c, 13, 60, 56
14, 10621, Note_on_c, 13, 60, 113
14, 10652, Note_off_c, 13, 40, 56
14, 10666, Note_off_c, 13, 60, 56
14, 10678, Note_on_c, 13, 60, 113
14, 10682, Note_on_c, 13, 41, 108
14, 10723, Note_off_c, 13, 60, 56
14, 10742, Note_on_c, 13, 60, 113
14, 10773, Note_off_c, 13, 41, 56
14, 10787, Note_off_c, 13, 60, 56
14, 10798, Note_on_c, 13, 60, 113
14, 10802, Note_on_c, 13, 40, 108
14, 10843, Note_off_c, 13, 60, 56
14, 10862, Note_on_c, 13, 60, 113
14, 10893, Note_off_c, 13, 40, 56
14, 10907, Note_off_c, 13, 60, 56
14, 10918, Note_on_c, 13, 38, 108
14, 10919, Note_on_c, 13, 60, 113
14, 10964, Note_off_c, 13, 60, 56
14, 10978, Note_on_c, 13, 60, 113
14, 11009, Note_off_c, 13, 38, 56
14, 11023, Note_off_c, 13, 60, 56
14, 11040, Note_on_c, 13, 36, 108
14, 11040, Note_on_c, 13, 60, 113
14, 11085, Note_off_c, 13, 60, 56
14, 11102, Note_on_c, 13, 60, 113
14, 11147, Note_off_c, 13, 60, 56
14, 11160, Note_on_c, 13, 60, 113
14, 11205, Note_off_c, 13, 60, 56
14, 11221, Note_on_c, 13, 60, 113
14, 11222, Note_off_c, 13, 36, 64
14, 11266, Note_off_c, 13, 60, 56
14, 11281, Note_on_c, 13, 48, 108
14, 11281, Note_on_c, 13, 60, 113
14, 11326, Note_off_c, 13, 60, 56
14, 11342, Note_on_c, 13, 60, 113
14, 11387, Note_off_c, 13, 60, 56
14, 11402, Note_on_c, 13, 60, 113
14, 11417, Note_off_c, 13, 48, 64
14, 11447, Note_off_c, 13, 60, 56
14, 11458, Note_on_c, 13, 60, 113
14, 11459, Note_on_c, 13, 48, 113
14, 11503, Note_off_c, 13, 60, 56
14, 11504, Note_off_c, 13, 48, 56
14, 11519, Note_on_c, 13, 47, 108
14, 11520, Note_on_c, 13, 65, 108
14, 11522, Note_on_c, 13, 55, 108
14, 11702, Note_off_c, 13, 65, 64
14, 11704, Note_off_c, 13, 55, 64
14, 11760, Note_on_c, 13, 65, 108
14, 11760, Note_on_c, 13, 55, 108
14, 11896, Note_off_c, 13, 55, 64
14, 11896, Note_off_c, 13, 65, 64
14, 11903, Note_off_c, 13, 47, 64
14, 11938, Note_on_c, 13, 55, 113
14, 11939, Note_on_c, 13, 65, 113
14, 11983, Note_off_c, 13, 55, 56
14, 11984, Note_off_c, 13, 65, 56
14, 11998, Note_on_c, 13, 55, 108
14, 11998, Note_on_c, 13, 64, 108
14, 11999, Note_on_c, 13, 48, 108
14, 12180, Note_off_c, 13, 64, 64
14, 12180, Note_off_c, 13, 55, 64
14, 12240, Note_on_c, 13, 64, 108
14, 12241, Note_on_c, 13, 55, 108
14, 12376, Note_off_c, 13, 64, 64
14, 12377, Note_off_c, 13, 55, 64
14, 12383, Note_off_c, 13, 48, 64
14, 12419, Note_on_c, 13, 64, 113
14, 12421, Note_on_c, 13, 55, 113
14, 12464, Note_off_c, 13, 64, 56
14, 12466, Note_off_c, 13, 55, 56
14, 12480, Note_on_c, 13, 62, 108
14, 12481, Note_on_c, 13, 55, 108
14, 12481, Note_on_c, 13, 43, 108
14, 12662, Note_off_c, 13, 62, 64
14, 12663, Note_off_c, 13, 43, 64
14, 12663, Note_off_c, 13, 55, 64
14, 12720, Note_on_c, 13, 43, 108
14, 12722, Note_on_c, 13, 62, 108
14, 12722, Note_on_c, 13, 55, 108
14, 13104, Note_off_c, 13, 43, 64
14, 13106, Note_off_c, 13, 55, 64
14, 13106, Note_off_c, 13, 62, 64
14, 13198, Note_on_c, 13, 55, 108
14, 13199, Note_on_c, 13, 64, 108
14, 13202, Note_on_c, 13, 48, 108
14, 13334, Note_off_c, 13, 55, 64
14, 13335, Note_off_c, 13, 64, 64
14, 13338, Note_off_c, 13, 48, 64
14, 13378, Note_on_c, 13, 48, 113
14, 13380, Note_on_c, 13, 55, 113
14, 13381, Note_on_c, 13, 64, 113
14, 13423, Note_off_c, 13, 48, 56
14, 13425, Note_off_c, 13, 55, 56
14, 13426, Note_off_c, 13, 64, 56
14, 13438, Note_on_c, 13, 55, 108
14, 13439, Note_on_c, 13, 47, 108
14, 13440, Note_on_c, 13, 65, 108
14, 13620, Note_off_c, 13, 55, 64
14, 13622, Note_off_c, 13, 65, 64
14, 13678, Note_on_c, 13, 65, 108
14, 13680, Note_on_c, 13, 55, 108
14, 13814, Note_off_c, 13, 65, 64
14, 13816, Note_off_c, 13, 55, 64
14, 13823, Note_off_c, 13, 47, 64
14, 13859, Note_on_c, 13, 55, 113
14, 13862, Note_on_c, 13, 65, 113
14, 13904, Note_off_c, 13, 55, 56
14, 13907, Note_off_c, 13, 65, 56
14, 13918, Note_on_c, 13, 64, 108
14, 13919, Note_on_c, 13, 55, 108
14, 13922, Note_on_c, 13, 48, 108
14, 14100, Note_off_c, 13, 64, 64
14, 14101, Note_off_c, 13, 55, 64
14, 14158, Note_on_c, 13, 55, 108
14, 14159, Note_on_c, 13, 64, 108
14, 14294, Note_off_c, 13, 55, 64
14, 14295, Note_off_c, 13, 64, 64
14, 14306, Note_off_c, 13, 48, 64
14, 14341, Note_on_c, 13, 55, 113
14, 14341, Note_on_c, 13, 64, 113
14, 14386, Note_off_c, 13, 64, 56
14, 14386, Note_off_c, 13, 55, 56
14, 14398, Note_on_c, 13, 55, 108
14, 14400, Note_on_c, 13, 62, 108
14, 14401, Note_on_c, 13, 43, 108
14, 14580, Note_off_c, 13, 55, 64
14, 14582, Note_off_c, 13, 62, 64
14, 14583, Note_off_c, 13, 43, 64
14, 14638, Note_on_c, 13, 62, 108
14, 14638, Note_on_c, 13, 55, 108
14, 14639, Note_on_c, 13, 43, 108
14, 15022, Note_off_c, 13, 55, 64
14, 15022, Note_off_c, 13, 62, 64
14, 15023, Note_off_c, 13, 43, 64
14, 15119, Note_on_c, 13, 64, 108
14, 15121, Note_on_c, 13, 48, 108
14, 15122, Note_on_c, 13, 55, 108
14, 15255, Note_off_c, 13, 64, 64
14, 15257, Note_off_c, 13, 48, 64
14, 15258, Note_off_c, 13, 55, 64
14, 15299, Note_on_c, 13, 64, 113
14, 15301, Note_on_c, 13, 55, 113
14, 15301, Note_on_c, 13, 48, 113
14, 15344, Note_off_c, 13, 64, 56
14, 15346, Note_off_c, 13, 48, 56
14, 15346, Note_off_c, 13, 55, 56
14, 15359, Note_on_c, 13, 65, 108
14, 15360, Note_on_c, 13, 55, 108
14, 15361, Note_on_c, 13, 47, 108
14, 15495, Note_off_c, 13, 65, 64
14, 15496, Note_off_c, 13, 55, 64
14, 15497, Note_off_c, 13, 47, 64
14, 15540, Note_on_c, 13, 47, 113
14, 15541, Note_on_c, 13, 65, 113
14, 15541, Note_on_c, 13, 55, 113
14, 15585, Note_off_c, 13, 47, 56
14, 15586, Note_off_c, 13, 55, 56
14, 15586, Note_off_c, 13, 65, 56
14, 15600, Note_on_c, 13, 55, 108
14, 15602, Note_on_c, 13, 65, 108
14, 15602, Note_on_c, 13, 43, 108
14, 15736, Note_off_c, 13, 55, 64
14, 15738, Note_off_c, 13, 43, 64
14, 15738, Note_off_c, 13, 65, 64
14, 15779, Note_on_c, 13, 65, 113
14, 15781, Note_on_c, 13, 55, 113
14, 15782, Note_on_c, 13, 43, 113
14, 15824, Note_off_c, 13, 65, 56
14, 15826, Note_off_c, 13, 55, 56
14, 15827, Note_off_c, 13, 43, 56
14, 15838, Note_on_c, 13, 64, 108
14, 15839, Note_on_c, 13, 55, 108
14, 15840, Note_on_c, 13, 48, 108
14, 15974, Note_off_c, 13, 64, 64
14, 15975, Note_off_c, 13, 55, 64
14, 15976, Note_off_c, 13, 48, 64
14, 16019, Note_on_c, 13, 55, 113
14, 16019, Note_on_c, 13, 64, 113
14, 16020, Note_on_c, 13, 48, 113
14, 16064, Note_off_c, 13, 64, 56
14, 16064, Note_off_c, 13, 55, 56
14, 16065, Note_off_c, 13, 48, 56
14, 16078, Note_on_c, 13, 52, 108
14, 16082, Note_on_c, 13, 55, 108
14, 16082, Note_on_c, 13, 64, 108
14, 16214, Note_off_c, 13, 52, 64
14, 16218, Note_off_c, 13, 64, 64
14, 16218, Note_off_c, 13, 55, 64
14, 16260, Note_on_c, 13, 64, 113
14, 16261, Note_on_c, 13, 55, 113
14, 16262, Note_on_c, 13, 52, 113
14, 16305, Note_off_c, 13, 64, 56
14, 16306, Note_off_c, 13, 55, 56
14, 16307, Note_off_c, 13, 52, 56
14, 16322, Note_on_c, 13, 55, 108
14, 16379, Note_on_c, 13, 55, 113
14, 16413, Note_off_c, 13, 55, 56
14, 16424, Note_off_c, 13, 55, 56
14, 16438, Note_on_c, 13, 55, 113
14, 16439, Note_on_c, 13, 43, 108
14, 16483, Note_off_c, 13, 55, 56
14, 16501, Note_on_c, 13, 55, 113
14, 16530, Note_off_c, 13, 43, 56
14, 16546, Note_off_c, 13, 55, 56
14, 16558, Note_on_c, 13, 43, 108
14, 16562, Note_on_c, 13, 55, 113
14, 16607, Note_off_c, 13, 55, 56
14, 16621, Note_on_c, 13, 55, 113
14, 16666, Note_off_c, 13, 55, 56
14, 16681, Note_on_c, 13, 55, 113
14, 16726, Note_off_c, 13, 55, 56
14, 16738, Note_on_c, 13, 55, 113
14, 16740, Note_off_c, 13, 43, 64
14, 16783, Note_off_c, 13, 55, 56
14, 16798, Note_on_c, 13, 55, 113
14, 16843, Note_off_c, 13, 55, 56
14, 16860, Note_on_c, 13, 55, 113
14, 16905, Note_off_c, 13, 55, 56
14, 16922, Note_on_c, 13, 55, 113
14, 16967, Note_off_c, 13, 55, 56
14, 16980, Note_on_c, 13, 55, 113
14, 17025, Note_off_c, 13, 55, 56
14, 17042, Note_on_c, 13, 55, 113
14, 17087, Note_off_c, 13, 55, 56
14, 17098, Note_on_c, 13, 55, 113
14, 17143, Note_off_c, 13, 55, 56
14, 17158, Note_on_c, 13, 55, 113
14, 17203, Note_off_c, 13, 55, 56
14, 17221, Note_on_c, 13, 55, 113
14, 17266, Note_off_c, 13, 55, 56
14, 17282, Note_on_c, 13, 55, 113
14, 17327, Note_off_c, 13, 55, 56
14, 17340, Note_on_c, 13, 55, 113
14, 17385, Note_off_c, 13, 55, 56
14, 17399, Note_on_c, 13, 55, 113
14, 17402, Note_on_c, 13, 43, 108
14, 17444, Note_off_c, 13, 55, 56
14, 17461, Note_on_c, 13, 55, 113
14, 17493, Note_off_c, 13, 43, 56
14, 17506, Note_off_c, 13, 55, 56
14, 17518, Note_on_c, 13, 43, 108
14, 17522, Note_on_c, 13, 55, 113
14, 17567, Note_off_c, 13, 55, 56
14, 17579, Note_on_c, 13, 55, 113
14, 17624, Note_off_c, 13, 55, 56
14, 17639, Note_on_c, 13, 55, 113
14, 17684, Note_off_c, 13, 55, 56
14, 17700, Note_off_c, 13, 43, 64
14, 17700, Note_on_c, 13, 55, 113
14, 17745, Note_off_c, 13, 55, 56
14, 17761, Note_on_c, 13, 55, 113
14, 17806, Note_off_c, 13, 55, 56
14, 17819, Note_on_c, 13, 55, 113
14, 17864, Note_off_c, 13, 55, 56
14, 17878, Note_on_c, 13, 55, 113
14, 17923, Note_off_c, 13, 55, 56
14, 17939, Note_on_c, 13, 55, 113
14, 17984, Note_off_c, 13, 55, 56
14, 17998, Note_on_c, 13, 55, 113
14, 18043, Note_off_c, 13, 55, 56
14, 18062, Note_on_c, 13, 55, 113
14, 18107, Note_off_c, 13, 55, 56
14, 18121, Note_on_c, 13, 55, 113
14, 18166, Note_off_c, 13, 55, 56
14, 18182, Note_on_c, 13, 55, 113
14, 18227, Note_off_c, 13, 55, 56
14, 18240, Note_on_c, 13, 55, 113
14, 18285, Note_off_c, 13, 55, 56
14, 18301, Note_on_c, 13, 55, 113
14, 18346, Note_off_c, 13, 55, 56
14, 18359, Note_on_c, 13, 55, 113
14, 18362, Note_on_c, 13, 43, 108
14, 18404, Note_off_c, 13, 55, 56
14, 18421, Note_on_c, 13, 55, 113
14, 18453, Note_off_c, 13, 43, 56
14, 18466, Note_off_c, 13, 55, 56
14, 18478, Note_on_c, 13, 55, 113
14, 18482, Note_on_c, 13, 43, 108
14, 18523, Note_off_c, 13, 55, 56
14, 18542, Note_on_c, 13, 55, 113
14, 18587, Note_off_c, 13, 55, 56
14, 18600, Note_on_c, 13, 55, 113
14, 18645, Note_off_c, 13, 55, 56
14, 18662, Note_on_c, 13, 55, 113
14, 18664, Note_off_c, 13, 43, 64
14, 18707, Note_off_c, 13, 55, 56
14, 18721, Note_on_c, 13, 55, 113
14, 18766, Note_off_c, 13, 55, 56
14, 18779, Note_on_c, 13, 55, 113
14, 18824, Note_off_c, 13, 55, 56
14, 18840, Note_on_c, 13, 43, 108
14, 18840, Note_on_c, 13, 55, 113
14, 18885, Note_off_c, 13, 55, 56
14, 18900, Note_on_c, 13, 55, 113
14, 18931, Note_off_c, 13, 43, 56
14, 18945, Note_off_c, 13, 55, 56
14, 18960, Note_on_c, 13, 43, 108
14, 18960, Note_on_c, 13, 55, 113
14, 19005, Note_off_c, 13, 55, 56
14, 19020, Note_on_c, 13, 55, 113
14, 19065, Note_off_c, 13, 55, 56
14, 19081, Note_on_c, 13, 55, 113
14, 19126, Note_off_c, 13, 55, 56
14, 19140, Note_on_c, 13, 55, 113
14, 19142, Note_off_c, 13, 43, 64
14, 19185, Note_off_c, 13, 55, 56
14, 19201, Note_on_c, 13, 55, 113
14, 19246, Note_off_c, 13, 55, 56
14, 19261, Note_on_c, 13, 55, 113
14, 19306, Note_off_c, 13, 55, 56
14, 19321, Note_on_c, 13, 55, 113
14, 19321, Note_on_c, 13, 43, 108
14, 19366, Note_off_c, 13, 55, 56
14, 19379, Note_on_c, 13, 55, 113
14, 19412, Note_off_c, 13, 43, 56
14, 19424, Note_off_c, 13, 55, 56
14, 19438, Note_on_c, 13, 43, 108
14, 19439, Note_on_c, 13, 55, 113
14, 19484, Note_off_c, 13, 55, 56
14, 19502, Note_on_c, 13, 55, 113
14, 19547, Note_off_c, 13, 55, 56
14, 19562, Note_on_c, 13, 55, 113
14, 19607, Note_off_c, 13, 55, 56
14, 19620, Note_off_c, 13, 43, 64
14, 19622, Note_on_c, 13, 55, 113
14, 19667, Note_off_c, 13, 55, 56
14, 19680, Note_on_c, 13, 55, 113
14, 19725, Note_off_c, 13, 55, 56
14, 19742, Note_on_c, 13, 55, 113
14, 19787, Note_off_c, 13, 55, 56
14, 19799, Note_on_c, 13, 55, 113
14, 19799, Note_on_c, 13, 43, 108
14, 19844, Note_off_c, 13, 55, 56
14, 19862, Note_on_c, 13, 55, 113
14, 19890, Note_off_c, 13, 43, 56
14, 19907, Note_off_c, 13, 55, 56
14, 19918, Note_on_c, 13, 43, 108
14, 19921, Note_on_c, 13, 55, 113
14, 19966, Note_off_c, 13, 55, 56
14, 19982, Note_on_c, 13, 55, 113
14, 20027, Note_off_c, 13, 55, 56
14, 20042, Note_on_c, 13, 55, 113
14, 20087, Note_off_c, 13, 55, 56
14, 20099, Note_on_c, 13, 55, 113
14, 20100, Note_off_c, 13, 43, 64
14, 20144, Note_off_c, 13, 55, 56
14, 20160, Note_on_c, 13, 55, 108
14, 20162, Note_on_c, 13, 43, 108
14, 20228, Note_off_c, 13, 55, 56
14, 20282, Note_on_c, 13, 79, 108
14, 20344, Note_off_c, 13, 43, 64
14, 20390, Note_off_c, 13, 79, 56
14, 20401, Note_on_c, 13, 77, 108
14, 20492, Note_off_c, 13, 77, 56
14, 20522, Note_on_c, 13, 76, 108
14, 20590, Note_off_c, 13, 76, 56
14, 20638, Note_on_c, 13, 74, 108
14, 20706, Note_off_c, 13, 74, 56
14, 20758, Note_on_c, 13, 76, 108
14, 20866, Note_off_c, 13, 76, 56
14, 20881, Note_on_c, 13, 74, 108
14, 20972, Note_off_c, 13, 74, 56
14, 21002, Note_on_c, 13, 72, 108
14, 21070, Note_off_c, 13, 72, 56
14, 21122, Note_on_c, 13, 71, 108
14, 21190, Note_off_c, 13, 71, 56
14, 21240, Note_on_c, 13, 64, 108
14, 21241, Note_on_c, 13, 76, 108
14, 21331, Note_off_c, 13, 64, 56
14, 21349, Note_off_c, 13, 76, 56
14, 21360, Note_on_c, 13, 74, 108
14, 21362, Note_on_c, 13, 62, 108
14, 21451, Note_off_c, 13, 74, 56
14, 21453, Note_off_c, 13, 62, 56
14, 21480, Note_on_c, 13, 72, 108
14, 21480, Note_on_c, 13, 60, 108
14, 21548, Note_off_c, 13, 60, 56
14, 21548, Note_off_c, 13, 72, 56
14, 21599, Note_on_c, 13, 71, 108
14, 21600, Note_on_c, 13, 59, 108
14, 21667, Note_off_c, 13, 71, 56
14, 21668, Note_off_c, 13, 59, 56
14, 21718, Note_on_c, 13, 72, 108
14, 21720, Note_on_c, 13, 60, 108
14, 21811, Note_off_c, 13, 60, 56
14, 21826, Note_off_c, 13, 72, 56
14, 21841, Note_on_c, 13, 59, 108
14, 21842, Note_on_c, 13, 71, 108
14, 21932, Note_off_c, 13, 59, 56
14, 21933, Note_off_c, 13, 71, 56
14, 21959, Note_on_c, 13, 57, 108
14, 21961, Note_on_c, 13, 69, 108
14, 22029, Note_off_c, 13, 69, 56
14, 22050, Note_off_c, 13, 57, 56
14, 22080, Note_on_c, 13, 55, 108
14, 22081, Note_on_c, 13, 67, 108
14, 22148, Note_off_c, 13, 55, 56
14, 22149, Note_off_c, 13, 67, 56
14, 22198, Note_on_c, 13, 60, 108
14, 22202, Note_on_c, 13, 72, 108
14, 22289, Note_off_c, 13, 60, 56
14, 22310, Note_off_c, 13, 72, 56
14, 22318, Note_on_c, 13, 71, 108
14, 22321, Note_on_c, 13, 59, 108
14, 22409, Note_off_c, 13, 71, 56
14, 22412, Note_off_c, 13, 59, 56
14, 22439, Note_on_c, 13, 57, 108
14, 22442, Note_on_c, 13, 69, 108
14, 22507, Note_off_c, 13, 57, 56
14, 22510, Note_off_c, 13, 69, 56
14, 22560, Note_on_c, 13, 55, 108
14, 22562, Note_on_c, 13, 67, 108
14, 22628, Note_off_c, 13, 55, 56
14, 22630, Note_off_c, 13, 67, 56
14, 22681, Note_on_c, 13, 60, 108
14, 22682, Note_on_c, 13, 72, 108
14, 22772, Note_off_c, 13, 60, 56
14, 22790, Note_off_c, 13, 72, 56
14, 22799, Note_on_c, 13, 59, 108
14, 22801, Note_on_c, 13, 71, 108
14, 22890, Note_off_c, 13, 59, 56
14, 22892, Note_off_c, 13, 71, 56
14, 22919, Note_on_c, 13, 57, 108
14, 22919, Note_on_c, 13, 69, 108
14, 22987, Note_off_c, 13, 69, 56
14, 22987, Note_off_c, 13, 57, 56
14, 23038, Note_on_c, 13, 67, 108
14, 23041, Note_on_c, 13, 55, 108
14, 23106, Note_off_c, 13, 67, 56
14, 23132, Note_off_c, 13, 55, 56
14, 23159, Note_on_c, 13, 72, 108
14, 23159, Note_on_c, 13, 60, 108
14, 23250, Note_off_c, 13, 60, 56
14, 23267, Note_off_c, 13, 72, 56
14, 23279, Note_on_c, 13, 59, 108
14, 23281, Note_on_c, 13, 71, 108
14, 23370, Note_off_c, 13, 59, 56
14, 23372, Note_off_c, 13, 71, 56
14, 23398, Note_on_c, 13, 69, 108
14, 23399, Note_on_c, 13, 57, 108
14, 23489, Note_off_c, 13, 69, 56
14, 23490, Note_off_c, 13, 57, 56
14, 23518, Note_on_c, 13, 67, 108
14, 23521, Note_on_c, 13, 55, 108
14, 23586, Note_off_c, 13, 67, 56
14, 23589, Note_off_c, 13, 55, 56
14, 23639, Note_on_c, 13, 65, 108
14, 23640, Note_on_c, 13, 53, 108
14, 23707, Note_off_c, 13, 65, 56
14, 23708, Note_off_c, 13, 53, 56
14, 23759, Note_on_c, 13, 52, 108
14, 23760, Note_on_c, 13, 64, 108
14, 23827, Note_off_c, 13, 52, 56
14, 23828, Note_off_c, 13, 64, 56
14, 23879, Note_on_c, 13, 62, 108
14, 23882, Note_on_c, 13, 50, 108
14, 23947, Note_off_c, 13, 62, 56
14, 23950, Note_off_c, 13, 50, 56
14, 24002, Note_on_c, 13, 60, 113
14, 24002, Note_on_c, 13, 48, 108
14, 24047, Note_off_c, 13, 60, 56
14, 24061, Note_on_c, 13, 60, 113
14, 24106, Note_off_c, 13, 60, 56
14, 24118, Note_on_c, 13, 60, 113
14, 24163, Note_off_c, 13, 60, 56
14, 24179, Note_on_c, 13, 60, 113
14, 24184, Note_off_c, 13, 48, 64
14, 24224, Note_off_c, 13, 60, 56
14, 24240, Note_on_c, 13, 60, 113
14, 24285, Note_off_c, 13, 60, 56
14, 24302, Note_on_c, 13, 60, 113
14, 24347, Note_off_c, 13, 60, 56
14, 24360, Note_on_c, 13, 60, 113
14, 24405, Note_off_c, 13, 60, 56
14, 24418, Note_on_c, 13, 60, 113
14, 24463, Note_off_c, 13, 60, 56
14, 24479, Note_on_c, 13, 60, 113
14, 24524, Note_off_c, 13, 60, 56
14, 24538, Note_on_c, 13, 60, 113
14, 24583, Note_off_c, 13, 60, 56
14, 24601, Note_on_c, 13, 60, 113
14, 24646, Note_off_c, 13, 60, 56
14, 24660, Note_on_c, 13, 60, 113
14, 24705, Note_off_c, 13, 60, 56
14, 24718, Note_on_c, 13, 60, 113
14, 24763, Note_off_c, 13, 60, 56
14, 24782, Note_on_c, 13, 60, 113
14, 24827, Note_off_c, 13, 60, 56
14, 24838, Note_on_c, 13, 60, 113
14, 24883, Note_off_c, 13, 60, 56
14, 24902, Note_on_c, 13, 60, 113
14, 24947, Note_off_c, 13, 60, 56
14, 24958, Note_on_c, 13, 60, 113
14, 25003, Note_off_c, 13, 60, 56
14, 25018, Note_on_c, 13, 60, 113
14, 25063, Note_off_c, 13, 60, 56
14, 25079, Note_on_c, 13, 60, 113
14, 25124, Note_off_c, 13, 60, 56
14, 25139, Note_on_c, 13, 60, 113
14, 25184, Note_off_c, 13, 60, 56
14, 25198, Note_on_c, 13, 60, 113
14, 25243, Note_off_c, 13, 60, 56
14, 25260, Note_on_c, 13, 60, 113
14, 25305, Note_off_c, 13, 60, 56
14, 25322, Note_on_c, 13, 60, 113
14, 25367, Note_off_c, 13, 60, 56
14, 25380, Note_on_c, 13, 60, 113
14, 25425, Note_off_c, 13, 60, 56
14, 25438, Note_on_c, 13, 60, 113
14, 25483, Note_off_c, 13, 60, 56
14, 25499, Note_on_c, 13, 60, 113
14, 25544, Note_off_c, 13, 60, 56
14, 25560, Note_on_c, 13, 60, 113
14, 25605, Note_off_c, 13, 60, 56
14, 25620, Note_on_c, 13, 60, 113
14, 25665, Note_off_c, 13, 60, 56
14, 25682, Note_on_c, 13, 60, 113
14, 25727, Note_off_c, 13, 60, 56
14, 25739, Note_on_c, 13, 60, 113
14, 25784, Note_off_c, 13, 60, 56
14, 25802, Note_on_c, 13, 60, 113
14, 25847, Note_off_c, 13, 60, 56
14, 25862, Note_on_c, 13, 60, 113
14, 25907, Note_off_c, 13, 60, 56
14, 25918, Note_on_c, 13, 43, 108
14, 25922, Note_on_c, 13, 59, 113
14, 25967, Note_off_c, 13, 59, 56
14, 25982, Note_on_c, 13, 59, 113
14, 26027, Note_off_c, 13, 59, 56
14, 26041, Note_on_c, 13, 59, 113
14, 26086, Note_off_c, 13, 59, 56
14, 26099, Note_on_c, 13, 59, 113
14, 26144, Note_off_c, 13, 59, 56
14, 26161, Note_on_c, 13, 59, 113
14, 26206, Note_off_c, 13, 59, 56
14, 26219, Note_on_c, 13, 59, 113
14, 26264, Note_off_c, 13, 59, 56
14, 26280, Note_on_c, 13, 59, 113
14, 26325, Note_off_c, 13, 59, 56
14, 26338, Note_on_c, 13, 59, 113
14, 26383, Note_off_c, 13, 59, 56
14, 26400, Note_on_c, 13, 59, 113
14, 26445, Note_off_c, 13, 59, 56
14, 26460, Note_on_c, 13, 59, 113
14, 26494, Note_off_c, 13, 43, 64
14, 26505, Note_off_c, 13, 59, 56
14, 26521, Note_on_c, 13, 59, 113
14, 26521, Note_on_c, 13, 43, 108
14, 26566, Note_off_c, 13, 59, 56
14, 26579, Note_on_c, 13, 59, 113
14, 26612, Note_off_c, 13, 43, 56
14, 26624, Note_off_c, 13, 59, 56
14, 26638, Note_on_c, 13, 47, 108
14, 26640, Note_on_c, 13, 59, 113
14, 26685, Note_off_c, 13, 59, 56
14, 26702, Note_on_c, 13, 59, 113
14, 26706, Note_off_c, 13, 47, 56
14, 26747, Note_off_c, 13, 59, 56
14, 26762, Note_on_c, 13, 59, 113
14, 26762, Note_on_c, 13, 50, 108
14, 26807, Note_off_c, 13, 59, 56
14, 26822, Note_on_c, 13, 59, 113
14, 26830, Note_off_c, 13, 50, 56
14, 26867, Note_off_c, 13, 59, 56
14, 26882, Note_on_c, 13, 59, 113
14, 26882, Note_on_c, 13, 53, 108
14, 26927, Note_off_c, 13, 59, 56
14, 26940, Note_on_c, 13, 59, 113
14, 26950, Note_off_c, 13, 53, 56
14, 26985, Note_off_c, 13, 59, 56
14, 27001, Note_on_c, 13, 59, 113
14, 27002, Note_on_c, 13, 55, 108
14, 27046, Note_off_c, 13, 59, 56
14, 27060, Note_on_c, 13, 59, 113
14, 27070, Note_off_c, 13, 55, 56
14, 27105, Note_off_c, 13, 59, 56
14, 27121, Note_on_c, 13, 59, 108
14, 27180, Note_on_c, 13, 59, 113
14, 27189, Note_off_c, 13, 59, 56
14, 27225, Note_off_c, 13, 59, 56
14, 27241, Note_on_c, 13, 62, 108
14, 27241, Note_on_c, 13, 59, 113
14, 27286, Note_off_c, 13, 59, 56
14, 27300, Note_on_c, 13, 59, 113
14, 27332, Note_off_c, 13, 62, 56
14, 27345, Note_off_c, 13, 59, 56
14, 27358, Note_on_c, 13, 65, 108
14, 27361, Note_on_c, 13, 59, 113
14, 27406, Note_off_c, 13, 59, 56
14, 27422, Note_on_c, 13, 59, 113
14, 27449, Note_off_c, 13, 65, 56
14, 27467, Note_off_c, 13, 59, 56
14, 27480, Note_on_c, 13, 59, 113
14, 27482, Note_on_c, 13, 67, 108
14, 27525, Note_off_c, 13, 59, 56
14, 27541, Note_on_c, 13, 59, 113
14, 27573, Note_off_c, 13, 67, 56
14, 27586, Note_off_c, 13, 59, 56
14, 27599, Note_on_c, 13, 59, 113
14, 27602, Note_on_c, 13, 65, 108
14, 27644, Note_off_c, 13, 59, 56
14, 27661, Note_on_c, 13, 59, 113
14, 27693, Note_off_c, 13, 65, 56
14, 27706, Note_off_c, 13, 59, 56
14, 27719, Note_on_c, 13, 62, 108
14, 27720, Note_on_c, 13, 59, 113
14, 27765, Note_off_c, 13, 59, 56
14, 27780, Note_on_c, 13, 59, 113
14, 27810, Note_off_c, 13, 62, 56
14, 27825, Note_off_c, 13, 59, 56
14, 27842, Note_on_c, 13, 59, 113
14, 27887, Note_off_c, 13, 59, 56
14, 27898, Note_on_c, 13, 59, 113
14, 27943, Note_off_c, 13, 59, 56
14, 27958, Note_on_c, 13, 59, 113
14, 27962, Note_on_c, 13, 62, 108
14, 28003, Note_off_c, 13, 59, 56
14, 28018, Note_on_c, 13, 59, 113
14, 28053, Note_off_c, 13, 62, 56
14, 28063, Note_off_c, 13, 59, 56
14, 28081, Note_on_c, 13, 59, 113
14, 28126, Note_off_c, 13, 59, 56
14, 28139, Note_on_c, 13, 59, 113
14, 28184, Note_off_c, 13, 59, 56
14, 28199, Note_on_c, 13, 55, 108
14, 28200, Note_on_c, 13, 59, 113
14, 28245, Note_off_c, 13, 59, 56
14, 28260, Note_on_c, 13, 59, 113
14, 28290, Note_off_c, 13, 55, 56
14, 28305, Note_off_c, 13, 59, 56
14, 28318, Note_on_c, 13, 53, 108
14, 28321, Note_on_c, 13, 59, 113
14, 28366, Note_off_c, 13, 59, 56
14, 28382, Note_on_c, 13, 59, 113
14, 28409, Note_off_c, 13, 53, 56
14, 28427, Note_off_c, 13, 59, 56
14, 28440, Note_on_c, 13, 50, 108
14, 28441, Note_on_c, 13, 59, 113
14, 28486, Note_off_c, 13, 59, 56
14, 28499, Note_on_c, 13, 59, 113
14, 28531, Note_off_c, 13, 50, 56
14, 28544, Note_off_c, 13, 59, 56
14, 28559, Note_on_c, 13, 47, 108
14, 28562, Note_on_c, 13, 59, 113
14, 28607, Note_off_c, 13, 59, 56
14, 28621, Note_on_c, 13, 59, 113
14, 28650, Note_off_c, 13, 47, 56
14, 28666, Note_off_c, 13, 59, 56
14, 28678, Note_on_c, 13, 50, 108
14, 28679, Note_on_c, 13, 59, 113
14, 28724, Note_off_c, 13, 59, 56
14, 28738, Note_on_c, 13, 59, 113
14, 28769, Note_off_c, 13, 50, 56
14, 28783, Note_off_c, 13, 59, 56
14, 28798, Note_on_c, 13, 43, 108
14, 28802, Note_on_c, 13, 59, 113
14, 28847, Note_off_c, 13, 59, 56
14, 28860, Note_on_c, 13, 59, 113
14, 28905, Note_off_c, 13, 59, 56
14, 28921, Note_on_c, 13, 59, 113
14, 28966, Note_off_c, 13, 59, 56
14, 28978, Note_on_c, 13, 59, 113
14, 28980, Note_off_c, 13, 43, 64
14, 29023, Note_off_c, 13, 59, 56
14, 29038, Note_on_c, 13, 59, 113
14, 29083, Note_off_c, 13, 59, 56
14, 29099, Note_on_c, 13, 59, 113
14, 29144, Note_off_c, 13, 59, 56
14, 29159, Note_on_c, 13, 59, 113
14, 29204, Note_off_c, 13, 59, 56
14, 29220, Note_on_c, 13, 59, 113
14, 29265, Note_off_c, 13, 59, 56
14, 29279, Note_on_c, 13, 59, 113
14, 29324, Note_off_c, 13, 59, 56
14, 29339, Note_on_c, 13, 59, 113
14, 29384, Note_off_c, 13, 59, 56
14, 29398, Note_on_c, 13, 59, 113
14, 29443, Note_off_c, 13, 59, 56
14, 29459, Note_on_c, 13, 59, 113
14, 29504, Note_off_c, 13, 59, 56
14, 29522, Note_on_c, 13, 59, 113
14, 29567, Note_off_c, 13, 59, 56
14, 29581, Note_on_c, 13, 59, 113
14, 29626, Note_off_c, 13, 59, 56
14, 29642, Note_on_c, 13, 59, 113
14, 29687, Note_off_c, 13, 59, 56
14, 29698, Note_on_c, 13, 59, 113
14, 29743, Note_off_c, 13, 59, 56
14, 29761, Note_on_c, 13, 36, 108
14, 29762, Note_on_c, 13, 60, 113
14, 29807, Note_off_c, 13, 60, 56
14, 29819, Note_on_c, 13, 60, 113
14, 29864, Note_off_c, 13, 60, 56
14, 29882, Note_on_c, 13, 60, 113
14, 29927, Note_off_c, 13, 60, 56
14, 29939, Note_on_c, 13, 60, 113
14, 29984, Note_off_c, 13, 60, 56
14, 30000, Note_on_c, 13, 60, 113
14, 30045, Note_off_c, 13, 60, 56
14, 30062, Note_on_c, 13, 60, 113
14, 30107, Note_off_c, 13, 60, 56
14, 30119, Note_on_c, 13, 60, 113
14, 30164, Note_off_c, 13, 60, 56
14, 30180, Note_on_c, 13, 60, 113
14, 30225, Note_off_c, 13, 60, 56
14, 30238, Note_on_c, 13, 60, 113
14, 30283, Note_off_c, 13, 60, 56
14, 30299, Note_on_c, 13, 60, 113
14, 30337, Note_off_c, 13, 36, 64
14, 30344, Note_off_c, 13, 60, 56
14, 30362, Note_on_c, 13, 60, 113
14, 30362, Note_on_c, 13, 36, 108
14, 30407, Note_off_c, 13, 60, 56
14, 30421, Note_on_c, 13, 60, 113
14, 30453, Note_off_c, 13, 36, 56
14, 30466, Note_off_c, 13, 60, 56
14, 30479, Note_on_c, 13, 40, 108
14, 30480, Note_on_c, 13, 60, 113
14, 30525, Note_off_c, 13, 60, 56
14, 30542, Note_on_c, 13, 60, 113
14, 30570, Note_off_c, 13, 40, 56
14, 30587, Note_off_c, 13, 60, 56
14, 30598, Note_on_c, 13, 60, 113
14, 30598, Note_on_c, 13, 43, 108
14, 30643, Note_off_c, 13, 60, 56
14, 30659, Note_on_c, 13, 60, 113
14, 30689, Note_off_c, 13, 43, 56
14, 30704, Note_off_c, 13, 60, 56
14, 30719, Note_on_c, 13, 60, 113
14, 30720, Note_on_c, 13, 48, 108
14, 30764, Note_off_c, 13, 60, 56
14, 30781, Note_on_c, 13, 60, 113
14, 30811, Note_off_c, 13, 48, 56
14, 30826, Note_off_c, 13, 60, 56
14, 30840, Note_on_c, 13, 52, 108
14, 30841, Note_on_c, 13, 60, 113
14, 30886, Note_off_c, 13, 60, 56
14, 30901, Note_on_c, 13, 60, 113
14, 30931, Note_off_c, 13, 52, 56
14, 30946, Note_off_c, 13, 60, 56
14, 30959, Note_on_c, 13, 60, 113
14, 30961, Note_on_c, 13, 55, 108
14, 31004, Note_off_c, 13, 60, 56
14, 31020, Note_on_c, 13, 60, 113
14, 31052, Note_off_c, 13, 55, 56
14, 31065, Note_off_c, 13, 60, 56
14, 31078, Note_on_c, 13, 60, 108
14, 31140, Note_on_c, 13, 60, 113
14, 31169, Note_off_c, 13, 60, 56
14, 31185, Note_off_c, 13, 60, 56
14, 31198, Note_on_c, 13, 64, 108
14, 31199, Note_on_c, 13, 60, 113
14, 31244, Note_off_c, 13, 60, 56
14, 31259, Note_on_c, 13, 60, 113
14, 31289, Note_off_c, 13, 64, 56
14, 31304, Note_off_c, 13, 60, 56
14, 31319, Note_on_c, 13, 60, 113
14, 31364, Note_off_c, 13, 60, 56
14, 31380, Note_on_c, 13, 60, 113
14, 31425, Note_off_c, 13, 60, 56
14, 31441, Note_on_c, 13, 60, 113
14, 31442, Note_on_c, 13, 55, 108
14, 31486, Note_off_c, 13, 60, 56
14, 31498, Note_on_c, 13, 60, 113
14, 31533, Note_off_c, 13, 55, 56
14, 31543, Note_off_c, 13, 60, 56
14, 31559, Note_on_c, 13, 60, 113
14, 31560, Note_on_c, 13, 52, 108
14, 31604, Note_off_c, 13, 60, 56
14, 31621, Note_on_c, 13, 60, 113
14, 31651, Note_off_c, 13, 52, 56
14, 31666, Note_off_c, 13, 60, 56
14, 31679, Note_on_c, 13, 48, 108
14, 31679, Note_on_c, 13, 55, 108
14, 31679, Note_on_c, 13, 64, 108
14, 31681, Note_on_c, 13, 72, 108
14, 31770, Note_off_c, 13, 48, 56
14, 31798, Note_on_c, 13, 47, 108
14, 31861, Note_off_c, 13, 64, 64
14, 31861, Note_off_c, 13, 55, 64
14, 31863, Note_off_c, 13, 72, 64
14, 31889, Note_off_c, 13, 47, 56
14, 31921, Note_on_c, 13, 48, 108
14, 32012, Note_off_c, 13, 48, 56
14, 32042, Note_on_c, 13, 48, 108
14, 32133, Note_off_c, 13, 48, 56
14, 32160, Note_on_c, 13, 48, 108
14, 32402, Note_on_c, 13, 60, 108
14, 32618, Note_off_c, 13, 60, 64
14, 32640, Note_on_c, 13, 64, 108
14, 32736, Note_off_c, 13, 48, 64
14, 32760, Note_on_c, 13, 47, 74
14, 32851, Note_off_c, 13, 47, 56
14, 32856, Note_off_c, 13, 64, 64
14, 32879, Note_on_c, 13, 60, 108
14, 32879, Note_on_c, 13, 48, 71
14, 32970, Note_off_c, 13, 48, 56
14, 33002, Note_on_c, 13, 48, 71
14, 33093, Note_off_c, 13, 48, 56
14, 33095, Note_off_c, 13, 60, 64
14, 33119, Note_on_c, 13, 48, 71
14, 33121, Note_on_c, 13, 67, 108
14, 33337, Note_off_c, 13, 67, 64
14, 33359, Note_on_c, 13, 66, 108
14, 33521, Note_off_c, 13, 66, 64
14, 33540, Note_on_c, 13, 64, 113
14, 33585, Note_off_c, 13, 64, 56
14, 33599, Note_on_c, 13, 49, 108
14, 33601, Note_on_c, 13, 66, 108
14, 33690, Note_off_c, 13, 49, 56
14, 33695, Note_off_c, 13, 48, 64
14, 33720, Note_on_c, 13, 50, 108
14, 33811, Note_off_c, 13, 50, 56
14, 33838, Note_on_c, 13, 50, 108
14, 33929, Note_off_c, 13, 50, 56
14, 33958, Note_on_c, 13, 50, 108
14, 34177, Note_off_c, 13, 66, 64
14, 34319, Note_on_c, 13, 60, 108
14, 34535, Note_off_c, 13, 60, 64
14, 34560, Note_on_c, 13, 66, 108
14, 34654, Note_off_c, 13, 50, 64
14, 34678, Note_on_c, 13, 49, 108
14, 34769, Note_off_c, 13, 49, 56
14, 34776, Note_off_c, 13, 66, 64
14, 34799, Note_on_c, 13, 60, 108
14, 34800, Note_on_c, 13, 50, 108
14, 34891, Note_off_c, 13, 50, 56
14, 34922, Note_on_c, 13, 50, 108
14, 35013, Note_off_c, 13, 50, 56
14, 35015, Note_off_c, 13, 60, 64
14, 35038, Note_on_c, 13, 69, 108
14, 35039, Note_on_c, 13, 50, 108
14, 35254, Note_off_c, 13, 69, 64
14, 35282, Note_on_c, 13, 67, 108
14, 35444, Note_off_c, 13, 67, 64
14, 35458, Note_on_c, 13, 66, 113
14, 35503, Note_off_c, 13, 66, 56
14, 35519, Note_on_c, 13, 67, 108
14, 35615, Note_off_c, 13, 50, 64
14, 35642, Note_on_c, 13, 49, 108
14, 35733, Note_off_c, 13, 49, 56
14, 35735, Note_off_c, 13, 67, 64
14, 35760, Note_on_c, 13, 62, 108
14, 35760, Note_on_c, 13, 50, 108
14, 35851, Note_off_c, 13, 50, 56
14, 35878, Note_on_c, 13, 50, 108
14, 35969, Note_off_c, 13, 50, 56
14, 35976, Note_off_c, 13, 62, 64
14, 35999, Note_on_c, 13, 71, 108
14, 36001, Note_on_c, 13, 50, 108
14, 36215, Note_off_c, 13, 71, 64
14, 36239, Note_on_c, 13, 69, 108
14, 36401, Note_off_c, 13, 69, 64
14, 36421, Note_on_c, 13, 67, 113
14, 36475, Note_off_c, 13, 67, 56
14, 36482, Note_on_c, 13, 66, 108
14, 36577, Note_off_c, 13, 50, 64
14, 36602, Note_on_c, 13, 49, 108
14, 36693, Note_off_c, 13, 49, 56
14, 36718, Note_on_c, 13, 50, 108
14, 36770, Note_off_c, 13, 66, 64
14, 36809, Note_off_c, 13, 50, 56
14, 36839, Note_on_c, 13, 62, 108
14, 36841, Note_on_c, 13, 50, 108
14, 36930, Note_off_c, 13, 62, 56
14, 36932, Note_off_c, 13, 50, 56
14, 36958, Note_on_c, 13, 69, 108
14, 36959, Note_on_c, 13, 50, 108
14, 37050, Note_off_c, 13, 50, 56
14, 37080, Note_on_c, 13, 49, 108
14, 37171, Note_off_c, 13, 49, 56
14, 37202, Note_on_c, 13, 50, 108
14, 37293, Note_off_c, 13, 50, 56
14, 37300, Note_off_c, 13, 69, 64
14, 37318, Note_on_c, 13, 50, 108
14, 37319, Note_on_c, 13, 67, 113
14, 37373, Note_off_c, 13, 67, 56
14, 37379, Note_on_c, 13, 66, 113
14, 37409, Note_off_c, 13, 50, 56
14, 37433, Note_off_c, 13, 66, 56
14, 37439, Note_on_c, 13, 67, 108
14, 37441, Note_on_c, 13, 50, 108
14, 37532, Note_off_c, 13, 50, 56
14, 37561, Note_on_c, 13, 49, 108
14, 37652, Note_off_c, 13, 49, 56
14, 37682, Note_on_c, 13, 50, 108
14, 37727, Note_off_c, 13, 67, 64
14, 37773, Note_off_c, 13, 50, 56
14, 37798, Note_on_c, 13, 62, 108
14, 37801, Note_on_c, 13, 50, 108
14, 37889, Note_off_c, 13, 62, 56
14, 37892, Note_off_c, 13, 50, 56
14, 37918, Note_on_c, 13, 50, 108
14, 37918, Note_on_c, 13, 71, 108
14, 38009, Note_off_c, 13, 50, 56
14, 38039, Note_on_c, 13, 49, 108
14, 38130, Note_off_c, 13, 49, 56
14, 38158, Note_on_c, 13, 50, 108
14, 38249, Note_off_c, 13, 50, 56
14, 38260, Note_off_c, 13, 71, 64
14, 38278, Note_on_c, 13, 50, 108
14, 38280, Note_on_c, 13, 69, 113
14, 38334, Note_off_c, 13, 69, 56
14, 38341, Note_on_c, 13, 67, 113
14, 38369, Note_off_c, 13, 50, 56
14, 38386, Note_off_c, 13, 67, 56
14, 38399, Note_on_c, 13, 86, 108
14, 38399, Note_on_c, 13, 50, 108
14, 38402, Note_on_c, 13, 74, 108
14, 38490, Note_off_c, 13, 50, 56
14, 38521, Note_on_c, 13, 62, 108
14, 38612, Note_off_c, 13, 62, 56
14, 38641, Note_on_c, 13, 60, 108
14, 38732, Note_off_c, 13, 60, 56
14, 38761, Note_on_c, 13, 59, 108
14, 38829, Note_off_c, 13, 59, 56
14, 38879, Note_on_c, 13, 57, 108
14, 38947, Note_off_c, 13, 57, 56
14, 38975, Note_off_c, 13, 86, 64
14, 38978, Note_off_c, 13, 74, 64
14, 38998, Note_on_c, 13, 86, 108
14, 38998, Note_on_c, 13, 59, 108
14, 39089, Note_off_c, 13, 59, 56
14, 39106, Note_off_c, 13, 86, 56
14, 39118, Note_on_c, 13, 84, 108
14, 39118, Note_on_c, 13, 57, 108
14, 39209, Note_off_c, 13, 57, 56
14, 39209, Note_off_c, 13, 84, 56
14, 39238, Note_on_c, 13, 83, 108
14, 39239, Note_on_c, 13, 55, 108
14, 39306, Note_off_c, 13, 83, 56
14, 39330, Note_off_c, 13, 55, 56
14, 39358, Note_on_c, 13, 81, 108
14, 39358, Note_on_c, 13, 54, 108
14, 39426, Note_off_c, 13, 54, 56
14, 39426, Note_off_c, 13, 81, 56
14, 39478, Note_on_c, 13, 83, 108
14, 39478, Note_on_c, 13, 55, 108
14, 39569, Note_off_c, 13, 55, 56
14, 39586, Note_off_c, 13, 83, 56
14, 39599, Note_on_c, 13, 81, 108
14, 39601, Note_on_c, 13, 54, 108
14, 39690, Note_off_c, 13, 81, 56
14, 39692, Note_off_c, 13, 54, 56
14, 39718, Note_on_c, 13, 52, 108
14, 39721, Note_on_c, 13, 79, 108
14, 39786, Note_off_c, 13, 52, 56
14, 39789, Note_off_c, 13, 79, 56
14, 39839, Note_on_c, 13, 50, 108
14, 39840, Note_on_c, 13, 78, 108
14, 39907, Note_off_c, 13, 50, 56
14, 39908, Note_off_c, 13, 78, 56
14, 39959, Note_on_c, 13, 66, 108
14, 39959, Note_on_c, 13, 50, 108
14, 40050, Note_off_c, 13, 50, 56
14, 40067, Note_off_c, 13, 66, 56
14, 40082, Note_on_c, 13, 52, 108
14, 40082, Note_on_c, 13, 67, 108
14, 40173, Note_off_c, 13, 52, 56
14, 40190, Note_off_c, 13, 67, 56
14, 40199, Note_on_c, 13, 61, 108
14, 40202, Note_on_c, 13, 45, 108
14, 40267, Note_off_c, 13, 61, 56
14, 40270, Note_off_c, 13, 45, 56
14, 40319, Note_on_c, 13, 50, 108
14, 40321, Note_on_c, 13, 62, 108
14, 40410, Note_off_c, 13, 50, 56
14, 40412, Note_off_c, 13, 62, 56
14, 41401, Note_on_c, 13, 50, 108
14, 41492, Note_off_c, 13, 50, 56
14, 41522, Note_on_c, 13, 48, 108
14, 41613, Note_off_c, 13, 48, 56
14, 41638, Note_on_c, 13, 57, 108
14, 41706, Note_off_c, 13, 57, 56
14, 41760, Note_on_c, 13, 48, 108
14, 41851, Note_off_c, 13, 48, 56
14, 41878, Note_on_c, 13, 47, 108
14, 41969, Note_off_c, 13, 47, 56
14, 42000, Note_on_c, 13, 45, 108
14, 42002, Note_on_c, 13, 57, 113
14, 42062, Note_off_c, 13, 57, 56
14, 42076, Note_on_c, 13, 59, 108
14, 42091, Note_off_c, 13, 45, 56
14, 42121, Note_on_c, 13, 54, 108
14, 42148, Note_off_c, 13, 59, 56
14, 42163, Note_on_c, 13, 60, 108
14, 42212, Note_off_c, 13, 54, 56
14, 42235, Note_off_c, 13, 60, 56
14, 42240, Note_on_c, 13, 62, 113
14, 42242, Note_on_c, 13, 43, 108
14, 42300, Note_off_c, 13, 62, 56
14, 42314, Note_on_c, 13, 59, 113
14, 42374, Note_off_c, 13, 59, 56
14, 42388, Note_on_c, 13, 62, 113
14, 42424, Note_off_c, 13, 43, 64
14, 42448, Note_off_c, 13, 62, 56
14, 42478, Note_on_c, 13, 62, 113
14, 42538, Note_off_c, 13, 62, 56
14, 42554, Note_on_c, 13, 62, 113
14, 42614, Note_off_c, 13, 62, 56
14, 42647, Note_on_c, 13, 62, 113
14, 42707, Note_off_c, 13, 62, 56
14, 42718, Note_on_c, 13, 60, 113
14, 42721, Note_on_c, 13, 43, 108
14, 42778, Note_off_c, 13, 60, 56
14, 42796, Note_on_c, 13, 64, 113
14, 42856, Note_off_c, 13, 64, 56
14, 42885, Note_on_c, 13, 64, 113
14, 42903, Note_off_c, 13, 43, 64
14, 42945, Note_off_c, 13, 64, 56
14, 42959, Note_on_c, 13, 64, 113
14, 43019, Note_off_c, 13, 64, 56
14, 43035, Note_on_c, 13, 64, 113
14, 43095, Note_off_c, 13, 64, 56
14, 43124, Note_on_c, 13, 64, 113
14, 43184, Note_off_c, 13, 64, 56
14, 43199, Note_on_c, 13, 59, 113
14, 43202, Note_on_c, 13, 43, 108
14, 43259, Note_off_c, 13, 59, 56
14, 43277, Note_on_c, 13, 62, 113
14, 43337, Note_off_c, 13, 62, 56
14, 43366, Note_on_c, 13, 62, 113
14, 43384, Note_off_c, 13, 43, 64
14, 43426, Note_off_c, 13, 62, 56
14, 43438, Note_on_c, 13, 50, 113
14, 43438, Note_on_c, 13, 62, 113
14, 43498, Note_off_c, 13, 62, 56
14, 43498, Note_off_c, 13, 50, 56
14, 43515, Note_on_c, 13, 52, 113
14, 43517, Note_on_c, 13, 62, 113
14, 43575, Note_off_c, 13, 52, 56
14, 43577, Note_off_c, 13, 62, 56
14, 43591, Note_on_c, 13, 62, 113
14, 43607, Note_on_c, 13, 54, 113
14, 43651, Note_off_c, 13, 62, 56
14, 43667, Note_off_c, 13, 54, 56
14, 43679, Note_on_c, 13, 55, 108
14, 43680, Note_on_c, 13, 62, 108
14, 43861, Note_off_c, 13, 55, 64
14, 43862, Note_off_c, 13, 62, 64
14, 43921, Note_on_c, 13, 55, 73
14, 43921, Note_on_c, 13, 59, 73
14, 43993, Note_off_c, 13, 59, 56
14, 43997, Note_on_c, 13, 60, 73
14, 44069, Note_off_c, 13, 60, 56
14, 44083, Note_on_c, 13, 62, 73
14, 44103, Note_off_c, 13, 55, 64
14, 44155, Note_off_c, 13, 62, 56
14, 44160, Note_on_c, 13, 54, 73
14, 44161, Note_on_c, 13, 60, 73
14, 44377, Note_off_c, 13, 60, 64
14, 44402, Note_on_c, 13, 57, 73
14, 44474, Note_off_c, 13, 57, 56
14, 44476, Note_on_c, 13, 59, 73
14, 44544, Note_off_c, 13, 54, 64
14, 44548, Note_off_c, 13, 59, 56
14, 44567, Note_on_c, 13, 60, 73
14, 44638, Note_on_c, 13, 59, 73
14, 44639, Note_off_c, 13, 60, 56
14, 44641, Note_on_c, 13, 55, 73
14, 44854, Note_off_c, 13, 59, 64
14, 44878, Note_on_c, 13, 55, 73
14, 44950, Note_off_c, 13, 55, 56
14, 44957, Note_on_c, 13, 57, 73
14, 45025, Note_off_c, 13, 55, 64
14, 45029, Note_off_c, 13, 57, 56
14, 45032, Note_on_c, 13, 59, 73
14, 45104, Note_off_c, 13, 59, 56
14, 45120, Note_on_c, 13, 60, 73
14, 45121, Note_on_c, 13, 57, 73
14, 45302, Note_off_c, 13, 60, 64
14, 45303, Note_off_c, 13, 57, 64
14, 45359, Note_on_c, 13, 66, 80
14, 45362, Note_on_c, 13, 54, 79
14, 45422, Note_off_c, 13, 54, 56
14, 45431, Note_off_c, 13, 66, 56
14, 45434, Note_on_c, 13, 67, 82
14, 45436, Note_on_c, 13, 55, 83
14, 45496, Note_off_c, 13, 55, 56
14, 45506, Note_off_c, 13, 67, 56
14, 45509, Note_on_c, 13, 69, 90
14, 45526, Note_on_c, 13, 57, 86
14, 45569, Note_off_c, 13, 69, 56
14, 45586, Note_off_c, 13, 57, 56
14, 45598, Note_on_c, 13, 50, 85
14, 45599, Note_on_c, 13, 62, 87
14, 45780, Note_off_c, 13, 50, 64
14, 45781, Note_off_c, 13, 62, 64
14, 45838, Note_on_c, 13, 60, 95
14, 45840, Note_on_c, 13, 48, 95
14, 45898, Note_off_c, 13, 60, 56
14, 45900, Note_off_c, 13, 48, 56
14, 45914, Note_on_c, 13, 59, 95
14, 45917, Note_on_c, 13, 47, 95
14, 45974, Note_off_c, 13, 59, 56
14, 45977, Note_off_c, 13, 47, 56
14, 45989, Note_on_c, 13, 45, 95
14, 46005, Note_on_c, 13, 57, 95
14, 46049, Note_off_c, 13, 45, 56
14, 46065, Note_off_c, 13, 57, 56
14, 46079, Note_on_c, 13, 67, 95
14, 46080, Note_on_c, 13, 43, 90
14, 46139, Note_off_c, 13, 67, 56
14, 46157, Note_on_c, 13, 79, 95
14, 46217, Note_off_c, 13, 79, 56
14, 46247, Note_on_c, 13, 79, 95
14, 46262, Note_off_c, 13, 43, 64
14, 46307, Note_off_c, 13, 79, 56
14, 46321, Note_on_c, 13, 79, 95
14, 46381, Note_off_c, 13, 79, 56
14, 46394, Note_on_c, 13, 78, 95
14, 46454, Note_off_c, 13, 78, 56
14, 46485, Note_on_c, 13, 77, 95
14, 46545, Note_off_c, 13, 77, 56
14, 46560, Note_on_c, 13, 43, 90
14, 46562, Note_on_c, 13, 76, 95
14, 46622, Note_off_c, 13, 76, 56
14, 46636, Note_on_c, 13, 76, 95
14, 46696, Note_off_c, 13, 76, 56
14, 46727, Note_on_c, 13, 76, 95
14, 46742, Note_off_c, 13, 43, 64
14, 46787, Note_off_c, 13, 76, 56
14, 46800, Note_on_c, 13, 76, 95
14, 46860, Note_off_c, 13, 76, 56
14, 46873, Note_on_c, 13, 74, 95
14, 46933, Note_off_c, 13, 74, 56
14, 46965, Note_on_c, 13, 72, 95
14, 47025, Note_off_c, 13, 72, 56
14, 47039, Note_on_c, 13, 74, 95
14, 47042, Note_on_c, 13, 43, 90
14, 47099, Note_off_c, 13, 74, 56
14, 47116, Note_on_c, 13, 62, 95
14, 47176, Note_off_c, 13, 62, 56
14, 47205, Note_on_c, 13, 62, 95
14, 47224, Note_off_c, 13, 43, 64
14, 47265, Note_off_c, 13, 62, 56
14, 47279, Note_on_c, 13, 62, 95
14, 47280, Note_on_c, 13, 50, 95
14, 47339, Note_off_c, 13, 62, 56
14, 47340, Note_off_c, 13, 50, 56
14, 47355, Note_on_c, 13, 62, 95
14, 47355, Note_on_c, 13, 52, 95
14, 47415, Note_off_c, 13, 52, 56
14, 47415, Note_off_c, 13, 62, 56
14, 47446, Note_on_c, 13, 62, 95
14, 47447, Note_on_c, 13, 54, 95
14, 47506, Note_off_c, 13, 62, 56
14, 47507, Note_off_c, 13, 54, 56
14, 47518, Note_on_c, 13, 62, 90
14, 47521, Note_on_c, 13, 55, 90
14, 47700, Note_off_c, 13, 62, 64
14, 47703, Note_off_c, 13, 55, 64
14, 47759, Note_on_c, 13, 59, 73
14, 47762, Note_on_c, 13, 55, 73
14, 47831, Note_off_c, 13, 59, 56
14, 47836, Note_on_c, 13, 60, 73
14, 47908, Note_off_c, 13, 60, 56
14, 47924, Note_on_c, 13, 62, 73
14, 47944, Note_off_c, 13, 55, 64
14, 47996, Note_off_c, 13, 62, 56
14, 47998, Note_on_c, 13, 54, 73
14, 48000, Note_on_c, 13, 60, 73
14, 48216, Note_off_c, 13, 60, 64
14, 48242, Note_on_c, 13, 57, 73
14, 48314, Note_off_c, 13, 57, 56
14, 48316, Note_on_c, 13, 59, 73
14, 48382, Note_off_c, 13, 54, 64
14, 48388, Note_off_c, 13, 59, 56
14, 48406, Note_on_c, 13, 60, 73
14, 48478, Note_off_c, 13, 60, 56
14, 48479, Note_on_c, 13, 59, 73
14, 48480, Note_on_c, 13, 55, 73
14, 48695, Note_off_c, 13, 59, 64
14, 48720, Note_on_c, 13, 55, 73
14, 48792, Note_off_c, 13, 55, 56
14, 48796, Note_on_c, 13, 57, 73
14, 48864, Note_off_c, 13, 55, 64
14, 48868, Note_off_c, 13, 57, 56
14, 48868, Note_on_c, 13, 59, 73
14, 48940, Note_off_c, 13, 59, 56
14, 48958, Note_on_c, 13, 60, 73
14, 48958, Note_on_c, 13, 57, 90
14, 49140, Note_off_c, 13, 57, 64
14, 49140, Note_off_c, 13, 60, 64
14, 49198, Note_on_c, 13, 62, 95
14, 49198, Note_on_c, 13, 50, 95
14, 49258, Note_off_c, 13, 50, 56
14, 49258, Note_off_c, 13, 62, 56
14, 49274, Note_on_c, 13, 64, 95
14, 49275, Note_on_c, 13, 52, 95
14, 49334, Note_off_c, 13, 64, 56
14, 49335, Note_off_c, 13, 52, 56
14, 49365, Note_on_c, 13, 66, 95
14, 49367, Note_on_c, 13, 54, 95
14, 49425, Note_off_c, 13, 66, 56
14, 49427, Note_off_c, 13, 54, 56
14, 49439, Note_on_c, 13, 67, 90
14, 49439, Note_on_c, 13, 55, 90
14, 49621, Note_off_c, 13, 55, 64
14, 49621, Note_off_c, 13, 67, 64
14, 49678, Note_on_c, 13, 57, 73
14, 49682, Note_on_c, 13, 60, 73
14, 49754, Note_off_c, 13, 60, 56
14, 49756, Note_on_c, 13, 62, 73
14, 49828, Note_off_c, 13, 62, 56
14, 49846, Note_on_c, 13, 64, 73
14, 49860, Note_off_c, 13, 57, 64
14, 49918, Note_off_c, 13, 64, 56
14, 49921, Note_on_c, 13, 56, 73
14, 49922, Note_on_c, 13, 62, 73
14, 50138, Note_off_c, 13, 62, 64
14, 50158, Note_on_c, 13, 59, 73
14, 50230, Note_off_c, 13, 59, 56
14, 50237, Note_on_c, 13, 60, 73
14, 50305, Note_off_c, 13, 56, 64
14, 50309, Note_off_c, 13, 60, 56
14, 50324, Note_on_c, 13, 62, 73
14, 50396, Note_off_c, 13, 62, 56
14, 50398, Note_on_c, 13, 60, 73
14, 50400, Note_on_c, 13, 57, 73
14, 50614, Note_off_c, 13, 60, 64
14, 50638, Note_on_c, 13, 57, 73
14, 50710, Note_off_c, 13, 57, 56
14, 50714, Note_on_c, 13, 59, 73
14, 50784, Note_off_c, 13, 57, 64
14, 50786, Note_off_c, 13, 59, 56
14, 50805, Note_on_c, 13, 60, 73
14, 50877, Note_off_c, 13, 60, 56
14, 50881, Note_on_c, 13, 59, 73
14, 50882, Note_on_c, 13, 62, 73
14, 51063, Note_off_c, 13, 59, 64
14, 51064, Note_off_c, 13, 62, 64
14, 51119, Note_on_c, 13, 64, 95
14, 51120, Note_on_c, 13, 52, 95
14, 51179, Note_off_c, 13, 64, 56
14, 51180, Note_off_c, 13, 52, 56
14, 51194, Note_on_c, 13, 66, 95
14, 51196, Note_on_c, 13, 54, 95
14, 51254, Note_off_c, 13, 66, 56
14, 51256, Note_off_c, 13, 54, 56
14, 51269, Note_on_c, 13, 56, 95
14, 51286, Note_on_c, 13, 68, 95
14, 51329, Note_off_c, 13, 56, 56
14, 51346, Note_off_c, 13, 68, 56
14, 51360, Note_on_c, 13, 57, 90
14, 51361, Note_on_c, 13, 69, 90
14, 51542, Note_off_c, 13, 57, 64
14, 51543, Note_off_c, 13, 69, 64
14, 51598, Note_on_c, 13, 67, 56
14, 51602, Note_on_c, 13, 48, 56
14, 51670, Note_off_c, 13, 67, 56
14, 51675, Note_on_c, 13, 65, 56
14, 51747, Note_off_c, 13, 65, 56
14, 51766, Note_on_c, 13, 64, 56
14, 51784, Note_off_c, 13, 48, 64
14, 51838, Note_off_c, 13, 64, 56
14, 51838, Note_on_c, 13, 62, 56
14, 51840, Note_on_c, 13, 47, 56
14, 52054, Note_off_c, 13, 62, 64
14, 52080, Note_on_c, 13, 65, 56
14, 52152, Note_off_c, 13, 65, 56
14, 52156, Note_on_c, 13, 64, 56
14, 52224, Note_off_c, 13, 47, 64
14, 52228, Note_off_c, 13, 64, 56
14, 52244, Note_on_c, 13, 62, 56
14, 52316, Note_off_c, 13, 62, 56
14, 52319, Note_on_c, 13, 60, 56
14, 52321, Note_on_c, 13, 48, 56
14, 52535, Note_off_c, 13, 60, 64
14, 52558, Note_on_c, 13, 64, 56
14, 52630, Note_off_c, 13, 64, 56
14, 52637, Note_on_c, 13, 62, 56
14, 52705, Note_off_c, 13, 48, 64
14, 52709, Note_off_c, 13, 62, 56
14, 52727, Note_on_c, 13, 60, 56
14, 52798, Note_on_c, 13, 43, 56
14, 52799, Note_off_c, 13, 60, 56
14, 52799, Note_on_c, 13, 59, 61
14, 52844, Note_off_c, 13, 59, 56
14, 52860, Note_on_c, 13, 71, 62
14, 52889, Note_off_c, 13, 43, 56
14, 52905, Note_off_c, 13, 71, 56
14, 52920, Note_on_c, 13, 71, 64
14, 52921, Note_on_c, 13, 55, 59
14, 52965, Note_off_c, 13, 71, 56
14, 52982, Note_on_c, 13, 71, 65
14, 53012, Note_off_c, 13, 55, 56
14, 53027, Note_off_c, 13, 71, 56
14, 53039, Note_on_c, 13, 55, 62
14, 53042, Note_on_c, 13, 71, 67
14, 53087, Note_off_c, 13, 71, 56
14, 53102, Note_on_c, 13, 71, 69
14, 53130, Note_off_c, 13, 55, 56
14, 53147, Note_off_c, 13, 71, 56
14, 53161, Note_on_c, 13, 55, 65
14, 53162, Note_on_c, 13, 71, 70
14, 53207, Note_off_c, 13, 71, 56
14, 53222, Note_on_c, 13, 71, 72
14, 53252, Note_off_c, 13, 55, 56
14, 53267, Note_off_c, 13, 71, 56
14, 53280, Note_on_c, 13, 55, 69
14, 53281, Note_on_c, 13, 71, 74
14, 53326, Note_off_c, 13, 71, 56
14, 53339, Note_on_c, 13, 71, 75
14, 53371, Note_off_c, 13, 55, 56
14, 53384, Note_off_c, 13, 71, 56
14, 53401, Note_on_c, 13, 55, 72
14, 53401, Note_on_c, 13, 71, 77
14, 53446, Note_off_c, 13, 71, 56
14, 53461, Note_on_c, 13, 71, 78
14, 53492, Note_off_c, 13, 55, 56
14, 53506, Note_off_c, 13, 71, 56
14, 53522, Note_on_c, 13, 71, 80
14, 53522, Note_on_c, 13, 55, 75
14, 53567, Note_off_c, 13, 71, 56
14, 53578, Note_on_c, 13, 71, 82
14, 53613, Note_off_c, 13, 55, 56
14, 53623, Note_off_c, 13, 71, 56
14, 53638, Note_on_c, 13, 71, 83
14, 53642, Note_on_c, 13, 55, 79
14, 53683, Note_off_c, 13, 71, 56
14, 53698, Note_on_c, 13, 71, 85
14, 53733, Note_off_c, 13, 55, 56
14, 53743, Note_off_c, 13, 71, 56
14, 53760, Note_on_c, 13, 71, 86
14, 53761, Note_on_c, 13, 55, 81
14, 53805, Note_off_c, 13, 71, 56
14, 53818, Note_on_c, 13, 71, 88
14, 53852, Note_off_c, 13, 55, 56
14, 53863, Note_off_c, 13, 71, 56
14, 53881, Note_on_c, 13, 71, 90
14, 53881, Note_on_c, 13, 55, 85
14, 53926, Note_off_c, 13, 71, 56
14, 53940, Note_on_c, 13, 71, 91
14, 53972, Note_off_c, 13, 55, 56
14, 53985, Note_off_c, 13, 71, 56
14, 53998, Note_on_c, 13, 71, 93
14, 54001, Note_on_c, 13, 55, 88
14, 54043, Note_off_c, 13, 71, 56
14, 54062, Note_on_c, 13, 71, 94
14, 54092, Note_off_c, 13, 55, 56
14, 54107, Note_off_c, 13, 71, 56
14, 54118, Note_on_c, 13, 71, 97
14, 54122, Note_on_c, 13, 55, 92
14, 54163, Note_off_c, 13, 71, 56
14, 54178, Note_on_c, 13, 71, 98
14, 54213, Note_off_c, 13, 55, 56
14, 54223, Note_off_c, 13, 71, 56
14, 54240, Note_on_c, 13, 71, 99
14, 54241, Note_on_c, 13, 55, 95
14, 54285, Note_off_c, 13, 71, 56
14, 54300, Note_on_c, 13, 71, 101
14, 54332, Note_off_c, 13, 55, 56
14, 54345, Note_off_c, 13, 71, 56
14, 54359, Note_on_c, 13, 55, 98
14, 54360, Note_on_c, 13, 71, 102
14, 54405, Note_off_c, 13, 71, 56
14, 54422, Note_on_c, 13, 71, 105
14, 54450, Note_off_c, 13, 55, 56
14, 54467, Note_off_c, 13, 71, 56
14, 54479, Note_on_c, 13, 55, 101
14, 54482, Note_on_c, 13, 71, 106
14, 54527, Note_off_c, 13, 71, 56
14, 54540, Note_on_c, 13, 71, 108
14, 54570, Note_off_c, 13, 55, 56
14, 54585, Note_off_c, 13, 71, 56
14, 54600, Note_on_c, 13, 71, 109
14, 54601, Note_on_c, 13, 55, 104
14, 54645, Note_off_c, 13, 71, 56
14, 54662, Note_on_c, 13, 71, 110
14, 54692, Note_off_c, 13, 55, 56
14, 54707, Note_off_c, 13, 71, 56
14, 54720, Note_on_c, 13, 48, 108
14, 54722, Note_on_c, 13, 72, 113
14, 54767, Note_off_c, 13, 72, 56
14, 54778, Note_on_c, 13, 72, 113
14, 54823, Note_off_c, 13, 72, 56
14, 54838, Note_on_c, 13, 72, 113
14, 54883, Note_off_c, 13, 72, 56
14, 54901, Note_on_c, 13, 72, 113
14, 54946, Note_off_c, 13, 72, 56
14, 54962, Note_on_c, 13, 72, 113
14, 55007, Note_off_c, 13, 72, 56
14, 55021, Note_on_c, 13, 72, 113
14, 55066, Note_off_c, 13, 72, 56
14, 55081, Note_on_c, 13, 72, 113
14, 55126, Note_off_c, 13, 72, 56
14, 55138, Note_on_c, 13, 72, 113
14, 55183, Note_off_c, 13, 72, 56
14, 55199, Note_on_c, 13, 72, 113
14, 55244, Note_off_c, 13, 72, 56
14, 55260, Note_on_c, 13, 60, 113
14, 55296, Note_off_c, 13, 48, 64
14, 55305, Note_off_c, 13, 60, 56
14, 55318, Note_on_c, 13, 62, 113
14, 55319, Note_on_c, 13, 48, 108
14, 55363, Note_off_c, 13, 62, 56
14, 55378, Note_on_c, 13, 64, 113
14, 55410, Note_off_c, 13, 48, 56
14, 55423, Note_off_c, 13, 64, 56
14, 55439, Note_on_c, 13, 65, 113
14, 55440, Note_on_c, 13, 48, 108
14, 55484, Note_off_c, 13, 65, 56
14, 55502, Note_on_c, 13, 67, 113
14, 55531, Note_off_c, 13, 48, 56
14, 55547, Note_off_c, 13, 67, 56
14, 55558, Note_on_c, 13, 48, 108
14, 55562, Note_on_c, 13, 69, 113
14, 55607, Note_off_c, 13, 69, 56
14, 55619, Note_on_c, 13, 71, 113
14, 55649, Note_off_c, 13, 48, 56
14, 55664, Note_off_c, 13, 71, 56
14, 55678, Note_on_c, 13, 48, 108
14, 55680, Note_on_c, 13, 72, 113
14, 55725, Note_off_c, 13, 72, 56
14, 55738, Note_on_c, 13, 60, 113
14, 55769, Note_off_c, 13, 48, 56
14, 55783, Note_off_c, 13, 60, 56
14, 55798, Note_on_c, 13, 48, 108
14, 55799, Note_on_c, 13, 62, 113
14, 55844, Note_off_c, 13, 62, 56
14, 55859, Note_on_c, 13, 64, 113
14, 55889, Note_off_c, 13, 48, 56
14, 55904, Note_off_c, 13, 64, 56
14, 55919, Note_on_c, 13, 48, 108
14, 55922, Note_on_c, 13, 65, 113
14, 55967, Note_off_c, 13, 65, 56
14, 55979, Note_on_c, 13, 67, 113
14, 56010, Note_off_c, 13, 48, 56
14, 56024, Note_off_c, 13, 67, 56
14, 56040, Note_on_c, 13, 69, 113
14, 56040, Note_on_c, 13, 48, 108
14, 56085, Note_off_c, 13, 69, 56
14, 56100, Note_on_c, 13, 71, 113
14, 56131, Note_off_c, 13, 48, 56
14, 56145, Note_off_c, 13, 71, 56
14, 56160, Note_on_c, 13, 48, 108
14, 56162, Note_on_c, 13, 72, 113
14, 56207, Note_off_c, 13, 72, 56
14, 56219, Note_on_c, 13, 64, 113
14, 56251, Note_off_c, 13, 48, 56
14, 56264, Note_off_c, 13, 64, 56
14, 56281, Note_on_c, 13, 65, 113
14, 56282, Note_on_c, 13, 48, 108
14, 56326, Note_off_c, 13, 65, 56
14, 56340, Note_on_c, 13, 67, 113
14, 56373, Note_off_c, 13, 48, 56
14, 56385, Note_off_c, 13, 67, 56
14, 56401, Note_on_c, 13, 69, 113
14, 56401, Note_on_c, 13, 48, 108
14, 56446, Note_off_c, 13, 69, 56
14, 56459, Note_on_c, 13, 71, 113
14, 56492, Note_off_c, 13, 48, 56
14, 56504, Note_off_c, 13, 71, 56
14, 56519, Note_on_c, 13, 72, 113
14, 56519, Note_on_c, 13, 48, 108
14, 56564, Note_off_c, 13, 72, 56
14, 56579, Note_on_c, 13, 74, 113
14, 56610, Note_off_c, 13, 48, 56
14, 56624, Note_off_c, 13, 74, 56
14, 56639, Note_on_c, 13, 76, 113
14, 56639, Note_on_c, 13, 48, 108
14, 56684, Note_off_c, 13, 76, 56
14, 56701, Note_on_c, 13, 74, 113
14, 56730, Note_off_c, 13, 48, 56
14, 56746, Note_off_c, 13, 74, 56
14, 56758, Note_on_c, 13, 48, 108
14, 56759, Note_on_c, 13, 76, 113
14, 56804, Note_off_c, 13, 76, 56
14, 56822, Note_on_c, 13, 77, 113
14, 56849, Note_off_c, 13, 48, 56
14, 56867, Note_off_c, 13, 77, 56
14, 56878, Note_on_c, 13, 79, 113
14, 56881, Note_on_c, 13, 49, 108
14, 56923, Note_off_c, 13, 79, 56
14, 56938, Note_on_c, 13, 79, 113
14, 56972, Note_off_c, 13, 49, 56
14, 56983, Note_off_c, 13, 79, 56
14, 57001, Note_on_c, 13, 79, 113
14, 57001, Note_on_c, 13, 49, 108
14, 57046, Note_off_c, 13, 79, 56
14, 57059, Note_on_c, 13, 79, 113
14, 57092, Note_off_c, 13, 49, 56
14, 57104, Note_off_c, 13, 79, 56
14, 57119, Note_on_c, 13, 50, 108
14, 57121, Note_on_c, 13, 79, 113
14, 57166, Note_off_c, 13, 79, 56
14, 57180, Note_on_c, 13, 79, 113
14, 57210, Note_off_c, 13, 50, 56
14, 57225, Note_off_c, 13, 79, 56
14, 57238, Note_on_c, 13, 50, 108
14, 57241, Note_on_c, 13, 79, 113
14, 57286, Note_off_c, 13, 79, 56
14, 57301, Note_on_c, 13, 79, 113
14, 57329, Note_off_c, 13, 50, 56
14, 57346, Note_off_c, 13, 79, 56
14, 57361, Note_on_c, 13, 51, 108
14, 57362, Note_on_c, 13, 79, 113
14, 57407, Note_off_c, 13, 79, 56
14, 57421, Note_on_c, 13, 79, 113
14, 57452, Note_off_c, 13, 51, 56
14, 57466, Note_off_c, 13, 79, 56
14, 57478, Note_on_c, 13, 51, 108
14, 57480, Note_on_c, 13, 79, 113
14, 57525, Note_off_c, 13, 79, 56
14, 57538, Note_on_c, 13, 79, 113
14, 57569, Note_off_c, 13, 51, 56
14, 57583, Note_off_c, 13, 79, 56
14, 57599, Note_on_c, 13, 79, 113
14, 57602, Note_on_c, 13, 52, 108
14, 57644, Note_off_c, 13, 79, 56
14, 57658, Note_on_c, 13, 79, 113
14, 57693, Note_off_c, 13, 52, 56
14, 57703, Note_off_c, 13, 79, 56
14, 57719, Note_on_c, 13, 78, 113
14, 57720, Note_on_c, 13, 52, 108
14, 57764, Note_off_c, 13, 78, 56
14, 57781, Note_on_c, 13, 76, 113
14, 57811, Note_off_c, 13, 52, 56
14, 57826, Note_off_c, 13, 76, 56
14, 57840, Note_on_c, 13, 74, 113
14, 57840, Note_on_c, 13, 54, 108
14, 57885, Note_off_c, 13, 74, 56
14, 57901, Note_on_c, 13, 72, 113
14, 57931, Note_off_c, 13, 54, 56
14, 57946, Note_off_c, 13, 72, 56
14, 57958, Note_on_c, 13, 54, 108
14, 57962, Note_on_c, 13, 71, 113
14, 58007, Note_off_c, 13, 71, 56
14, 58022, Note_on_c, 13, 69, 113
14, 58049, Note_off_c, 13, 54, 56
14, 58067, Note_off_c, 13, 69, 56
14, 58081, Note_on_c, 13, 67, 113
14, 58082, Note_on_c, 13, 55, 108
14, 58126, Note_off_c, 13, 67, 56
14, 58139, Note_on_c, 13, 66, 113
14, 58173, Note_off_c, 13, 55, 56
14, 58184, Note_off_c, 13, 66, 56
14, 58199, Note_on_c, 13, 43, 108
14, 58202, Note_on_c, 13, 64, 113
14, 58247, Note_off_c, 13, 64, 56
14, 58262, Note_on_c, 13, 62, 113
14, 58290, Note_off_c, 13, 43, 56
14, 58307, Note_off_c, 13, 62, 56
14, 58321, Note_on_c, 13, 60, 113
14, 58321, Note_on_c, 13, 45, 108
14, 58366, Note_off_c, 13, 60, 56
14, 58379, Note_on_c, 13, 59, 113
14, 58412, Note_off_c, 13, 45, 56
14, 58424, Note_off_c, 13, 59, 56
14, 58441, Note_on_c, 13, 47, 108
14, 58442, Note_on_c, 13, 57, 113
14, 58487, Note_off_c, 13, 57, 56
14, 58498, Note_on_c, 13, 55, 113
14, 58532, Note_off_c, 13, 47, 56
14, 58543, Note_off_c, 13, 55, 56
14, 58560, Note_on_c, 13, 69, 108
14, 58561, Note_on_c, 13, 48, 108
14, 58696, Note_off_c, 13, 69, 64
14, 58697, Note_off_c, 13, 48, 64
14, 59518, Note_on_c, 13, 62, 108
14, 59518, Note_on_c, 13, 50, 108
14, 59654, Note_off_c, 13, 50, 64
14, 59654, Note_off_c, 13, 62, 64
14, 60962, Note_on_c, 13, 63, 73
14, 61418, Note_off_c, 13, 63, 64
14, 61438, Note_on_c, 13, 61, 73
14, 61440, Note_on_c, 13, 64, 73
14, 61620, Note_off_c, 13, 61, 64
14, 61622, Note_off_c, 13, 64, 64
14, 61678, Note_on_c, 13, 62, 73
14, 61860, Note_off_c, 13, 62, 64
14, 61922, Note_on_c, 13, 62, 73
14, 62104, Note_off_c, 13, 62, 64
14, 62158, Note_on_c, 13, 62, 73
14, 62340, Note_off_c, 13, 62, 64
14, 62882, Note_on_c, 13, 63, 73
14, 63338, Note_off_c, 13, 63, 64
14, 63359, Note_on_c, 13, 64, 73
14, 63360, Note_on_c, 13, 61, 73
14, 63541, Note_off_c, 13, 64, 64
14, 63542, Note_off_c, 13, 61, 64
14, 63602, Note_on_c, 13, 62, 73
14, 63784, Note_off_c, 13, 62, 64
14, 63840, Note_on_c, 13, 62, 73
14, 64022, Note_off_c, 13, 62, 64
14, 64079, Note_on_c, 13, 62, 73
14, 64261, Note_off_c, 13, 62, 64
14, 64318, Note_on_c, 13, 52, 73
14, 64801, Note_on_c, 13, 68, 73
14, 64894, Note_off_c, 13, 52, 64
14, 65038, Note_on_c, 13, 50, 73
14, 65220, Note_off_c, 13, 50, 64
14, 65257, Note_off_c, 13, 68, 64
14, 65279, Note_on_c, 13, 69, 73
14, 65282, Note_on_c, 13, 48, 73
14, 65461, Note_off_c, 13, 69, 64
14, 65464, Note_off_c, 13, 48, 64
14, 65519, Note_on_c, 13, 47, 73
14, 65701, Note_off_c, 13, 47, 64
14, 65761, Note_on_c, 13, 47, 73
14, 65943, Note_off_c, 13, 47, 64
14, 66002, Note_on_c, 13, 47, 73
14, 66184, Note_off_c, 13, 47, 64
14, 66241, Note_on_c, 13, 48, 73
14, 66625, Note_off_c, 13, 48, 64
14, 66721, Note_on_c, 13, 45, 73
14, 67057, Note_off_c, 13, 45, 64
14, 67139, Note_on_c, 13, 48, 78
14, 67184, Note_off_c, 13, 48, 56
14, 67198, Note_on_c, 13, 47, 73
14, 67582, Note_off_c, 13, 47, 64
14, 67680, Note_on_c, 13, 47, 73
14, 68064, Note_off_c, 13, 47, 64
14, 68158, Note_on_c, 13, 67, 95
14, 68159, Note_on_c, 13, 47, 90
14, 68203, Note_off_c, 13, 67, 56
14, 68220, Note_on_c, 13, 67, 95
14, 68265, Note_off_c, 13, 67, 56
14, 68281, Note_on_c, 13, 67, 95
14, 68326, Note_off_c, 13, 67, 56
14, 68339, Note_on_c, 13, 67, 95
14, 68384, Note_off_c, 13, 67, 56
14, 68401, Note_on_c, 13, 67, 95
14, 68446, Note_off_c, 13, 67, 56
14, 68458, Note_on_c, 13, 67, 95
14, 68503, Note_off_c, 13, 67, 56
14, 68521, Note_on_c, 13, 67, 95
14, 68566, Note_off_c, 13, 67, 56
14, 68580, Note_on_c, 13, 67, 95
14, 68625, Note_off_c, 13, 67, 56
14, 68639, Note_on_c, 13, 67, 95
14, 68684, Note_off_c, 13, 67, 56
14, 68699, Note_on_c, 13, 67, 95
14, 68735, Note_off_c, 13, 47, 64
14, 68744, Note_off_c, 13, 67, 56
14, 68758, Note_on_c, 13, 67, 95
14, 68803, Note_off_c, 13, 67, 56
14, 68821, Note_on_c, 13, 67, 95
14, 68866, Note_off_c, 13, 67, 56
14, 68879, Note_on_c, 13, 45, 90
14, 68882, Note_on_c, 13, 66, 95
14, 68927, Note_off_c, 13, 66, 56
14, 68942, Note_on_c, 13, 66, 95
14, 68987, Note_off_c, 13, 66, 56
14, 69000, Note_on_c, 13, 66, 95
14, 69045, Note_off_c, 13, 66, 56
14, 69060, Note_on_c, 13, 66, 95
14, 69061, Note_off_c, 13, 45, 64
14, 69105, Note_off_c, 13, 66, 56
14, 69120, Note_on_c, 13, 64, 95
14, 69122, Note_on_c, 13, 43, 90
14, 69165, Note_off_c, 13, 64, 56
14, 69181, Note_on_c, 13, 64, 95
14, 69226, Note_off_c, 13, 64, 56
14, 69239, Note_on_c, 13, 64, 95
14, 69284, Note_off_c, 13, 64, 56
14, 69298, Note_on_c, 13, 64, 95
14, 69304, Note_off_c, 13, 43, 64
14, 69343, Note_off_c, 13, 64, 56
14, 69360, Note_on_c, 13, 42, 90
14, 69362, Note_on_c, 13, 62, 95
14, 69407, Note_off_c, 13, 62, 56
14, 69421, Note_on_c, 13, 62, 95
14, 69466, Note_off_c, 13, 62, 56
14, 69478, Note_on_c, 13, 62, 95
14, 69523, Note_off_c, 13, 62, 56
14, 69541, Note_on_c, 13, 62, 95
14, 69542, Note_off_c, 13, 42, 64
14, 69586, Note_off_c, 13, 62, 56
14, 69599, Note_on_c, 13, 42, 90
14, 69600, Note_on_c, 13, 62, 95
14, 69645, Note_off_c, 13, 62, 56
14, 69659, Note_on_c, 13, 62, 95
14, 69704, Note_off_c, 13, 62, 56
14, 69720, Note_on_c, 13, 62, 95
14, 69765, Note_off_c, 13, 62, 56
14, 69779, Note_on_c, 13, 62, 95
14, 69781, Note_off_c, 13, 42, 64
14, 69824, Note_off_c, 13, 62, 56
14, 69838, Note_on_c, 13, 62, 95
14, 69839, Note_on_c, 13, 42, 90
14, 69883, Note_off_c, 13, 62, 56
14, 69900, Note_on_c, 13, 62, 95
14, 69945, Note_off_c, 13, 62, 56
14, 69959, Note_on_c, 13, 62, 95
14, 70004, Note_off_c, 13, 62, 56
14, 70018, Note_on_c, 13, 62, 95
14, 70021, Note_off_c, 13, 42, 64
14, 70063, Note_off_c, 13, 62, 56
14, 70079, Note_on_c, 13, 47, 96
14, 70080, Note_on_c, 13, 67, 95
14, 70125, Note_off_c, 13, 67, 56
14, 70140, Note_on_c, 13, 67, 95
14, 70185, Note_off_c, 13, 67, 56
14, 70202, Note_on_c, 13, 67, 95
14, 70247, Note_off_c, 13, 67, 56
14, 70261, Note_on_c, 13, 67, 95
14, 70306, Note_off_c, 13, 67, 56
14, 70321, Note_on_c, 13, 67, 95
14, 70366, Note_off_c, 13, 67, 56
14, 70381, Note_on_c, 13, 67, 95
14, 70426, Note_off_c, 13, 67, 56
14, 70440, Note_on_c, 13, 67, 95
14, 70485, Note_off_c, 13, 67, 56
14, 70502, Note_on_c, 13, 67, 95
14, 70547, Note_off_c, 13, 67, 56
14, 70560, Note_on_c, 13, 67, 95
14, 70605, Note_off_c, 13, 67, 56
14, 70618, Note_on_c, 13, 67, 95
14, 70655, Note_off_c, 13, 47, 64
14, 70663, Note_off_c, 13, 67, 56
14, 70679, Note_on_c, 13, 67, 95
14, 70724, Note_off_c, 13, 67, 56
14, 70741, Note_on_c, 13, 67, 95
14, 70786, Note_off_c, 13, 67, 56
14, 70800, Note_on_c, 13, 45, 90
14, 70801, Note_on_c, 13, 66, 95
14, 70846, Note_off_c, 13, 66, 56
14, 70862, Note_on_c, 13, 66, 95
14, 70907, Note_off_c, 13, 66, 56
14, 70918, Note_on_c, 13, 66, 95
14, 70963, Note_off_c, 13, 66, 56
14, 70978, Note_on_c, 13, 66, 95
14, 70982, Note_off_c, 13, 45, 64
14, 71023, Note_off_c, 13, 66, 56
14, 71038, Note_on_c, 13, 43, 90
14, 71040, Note_on_c, 13, 64, 95
14, 71085, Note_off_c, 13, 64, 56
14, 71100, Note_on_c, 13, 64, 95
14, 71145, Note_off_c, 13, 64, 56
14, 71161, Note_on_c, 13, 64, 95
14, 71206, Note_off_c, 13, 64, 56
14, 71219, Note_on_c, 13, 64, 95
14, 71220, Note_off_c, 13, 43, 64
14, 71264, Note_off_c, 13, 64, 56
14, 71280, Note_on_c, 13, 42, 90
14, 71280, Note_on_c, 13, 62, 95
14, 71325, Note_off_c, 13, 62, 56
14, 71340, Note_on_c, 13, 62, 95
14, 71385, Note_off_c, 13, 62, 56
14, 71398, Note_on_c, 13, 62, 95
14, 71443, Note_off_c, 13, 62, 56
14, 71460, Note_on_c, 13, 62, 95
14, 71462, Note_off_c, 13, 42, 64
14, 71505, Note_off_c, 13, 62, 56
14, 71519, Note_on_c, 13, 62, 95
14, 71520, Note_on_c, 13, 42, 90
14, 71564, Note_off_c, 13, 62, 56
14, 71581, Note_on_c, 13, 62, 95
14, 71626, Note_off_c, 13, 62, 56
14, 71639, Note_on_c, 13, 62, 95
14, 71684, Note_off_c, 13, 62, 56
14, 71700, Note_on_c, 13, 62, 95
14, 71702, Note_off_c, 13, 42, 64
14, 71745, Note_off_c, 13, 62, 56
14, 71761, Note_on_c, 13, 62, 95
14, 71761, Note_on_c, 13, 42, 90
14, 71806, Note_off_c, 13, 62, 56
14, 71820, Note_on_c, 13, 62, 95
14, 71865, Note_off_c, 13, 62, 56
14, 71881, Note_on_c, 13, 62, 95
14, 71926, Note_off_c, 13, 62, 56
14, 71941, Note_on_c, 13, 62, 95
14, 71943, Note_off_c, 13, 42, 64
14, 71986, Note_off_c, 13, 62, 56
14, 72000, Note_on_c, 13, 72, 95
14, 72000, Note_on_c, 13, 42, 90
14, 72045, Note_off_c, 13, 72, 56
14, 72060, Note_on_c, 13, 72, 95
14, 72105, Note_off_c, 13, 72, 56
14, 72120, Note_on_c, 13, 72, 95
14, 72165, Note_off_c, 13, 72, 56
14, 72178, Note_on_c, 13, 72, 97
14, 72223, Note_off_c, 13, 72, 56
14, 72241, Note_on_c, 13, 72, 97
14, 72286, Note_off_c, 13, 72, 56
14, 72299, Note_on_c, 13, 72, 97
14, 72344, Note_off_c, 13, 72, 56
14, 72361, Note_on_c, 13, 72, 97
14, 72406, Note_off_c, 13, 72, 56
14, 72422, Note_on_c, 13, 72, 98
14, 72467, Note_off_c, 13, 72, 56
14, 72479, Note_on_c, 13, 72, 98
14, 72524, Note_off_c, 13, 72, 56
14, 72539, Note_on_c, 13, 72, 98
14, 72576, Note_off_c, 13, 42, 64
14, 72584, Note_off_c, 13, 72, 56
14, 72600, Note_on_c, 13, 72, 98
14, 72645, Note_off_c, 13, 72, 56
14, 72660, Note_on_c, 13, 72, 99
14, 72705, Note_off_c, 13, 72, 56
14, 72720, Note_on_c, 13, 43, 94
14, 72722, Note_on_c, 13, 71, 99
14, 72767, Note_off_c, 13, 71, 56
14, 72780, Note_on_c, 13, 71, 99
14, 72825, Note_off_c, 13, 71, 56
14, 72840, Note_on_c, 13, 71, 99
14, 72885, Note_off_c, 13, 71, 56
14, 72900, Note_on_c, 13, 71, 99
14, 72902, Note_off_c, 13, 43, 64
14, 72945, Note_off_c, 13, 71, 56
14, 72958, Note_on_c, 13, 48, 95
14, 72959, Note_on_c, 13, 69, 100
14, 73004, Note_off_c, 13, 69, 56
14, 73019, Note_on_c, 13, 69, 100
14, 73064, Note_off_c, 13, 69, 56
14, 73081, Note_on_c, 13, 69, 100
14, 73126, Note_off_c, 13, 69, 56
14, 73139, Note_on_c, 13, 69, 100
14, 73140, Note_off_c, 13, 48, 64
14, 73184, Note_off_c, 13, 69, 56
14, 73198, Note_on_c, 13, 68, 101
14, 73200, Note_on_c, 13, 48, 96
14, 73243, Note_off_c, 13, 68, 56
14, 73262, Note_on_c, 13, 68, 101
14, 73307, Note_off_c, 13, 68, 56
14, 73321, Note_on_c, 13, 68, 101
14, 73366, Note_off_c, 13, 68, 56
14, 73382, Note_off_c, 13, 48, 64
14, 73382, Note_on_c, 13, 68, 101
14, 73427, Note_off_c, 13, 68, 56
14, 73441, Note_on_c, 13, 68, 102
14, 73442, Note_on_c, 13, 48, 97
14, 73486, Note_off_c, 13, 68, 56
14, 73502, Note_on_c, 13, 68, 102
14, 73547, Note_off_c, 13, 68, 56
14, 73560, Note_on_c, 13, 68, 102
14, 73605, Note_off_c, 13, 68, 56
14, 73620, Note_on_c, 13, 68, 102
14, 73624, Note_off_c, 13, 48, 64
14, 73665, Note_off_c, 13, 68, 56
14, 73678, Note_on_c, 13, 48, 98
14, 73680, Note_on_c, 13, 68, 102
14, 73725, Note_off_c, 13, 68, 56
14, 73741, Note_on_c, 13, 68, 103
14, 73786, Note_off_c, 13, 68, 56
14, 73798, Note_on_c, 13, 68, 103
14, 73843, Note_off_c, 13, 68, 56
14, 73860, Note_off_c, 13, 48, 64
14, 73860, Note_on_c, 13, 68, 103
14, 73905, Note_off_c, 13, 68, 56
14, 73919, Note_on_c, 13, 48, 98
14, 73921, Note_on_c, 13, 68, 103
14, 73966, Note_off_c, 13, 68, 56
14, 73982, Note_on_c, 13, 68, 105
14, 74027, Note_off_c, 13, 68, 56
14, 74040, Note_on_c, 13, 68, 105
14, 74085, Note_off_c, 13, 68, 56
14, 74099, Note_on_c, 13, 68, 105
14, 74101, Note_off_c, 13, 48, 64
14, 74144, Note_off_c, 13, 68, 56
14, 74158, Note_on_c, 13, 48, 100
14, 74159, Note_on_c, 13, 68, 105
14, 74204, Note_off_c, 13, 68, 56
14, 74220, Note_on_c, 13, 68, 106
14, 74265, Note_off_c, 13, 68, 56
14, 74278, Note_on_c, 13, 68, 106
14, 74323, Note_off_c, 13, 68, 56
14, 74338, Note_on_c, 13, 68, 106
14, 74340, Note_off_c, 13, 48, 64
14, 74383, Note_off_c, 13, 68, 56
14, 74399, Note_on_c, 13, 48, 101
14, 74400, Note_on_c, 13, 68, 106
14, 74445, Note_off_c, 13, 68, 56
14, 74461, Note_on_c, 13, 68, 106
14, 74506, Note_off_c, 13, 68, 56
14, 74522, Note_on_c, 13, 68, 107
14, 74567, Note_off_c, 13, 68, 56
14, 74581, Note_off_c, 13, 48, 64
14, 74582, Note_on_c, 13, 68, 107
14, 74627, Note_off_c, 13, 68, 56
14, 74641, Note_on_c, 13, 48, 102
14, 74642, Note_on_c, 13, 68, 107
14, 74687, Note_off_c, 13, 68, 56
14, 74701, Note_on_c, 13, 68, 107
14, 74746, Note_off_c, 13, 68, 56
14, 74761, Note_on_c, 13, 68, 108
14, 74806, Note_off_c, 13, 68, 56
14, 74818, Note_on_c, 13, 68, 108
14, 74823, Note_off_c, 13, 48, 64
14, 74863, Note_off_c, 13, 68, 56
14, 74879, Note_on_c, 13, 48, 103
14, 74882, Note_on_c, 13, 68, 108
14, 74927, Note_off_c, 13, 68, 56
14, 74941, Note_on_c, 13, 68, 108
14, 74986, Note_off_c, 13, 68, 56
14, 75000, Note_on_c, 13, 68, 109
14, 75045, Note_off_c, 13, 68, 56
14, 75061, Note_off_c, 13, 48, 64
14, 75062, Note_on_c, 13, 68, 109
14, 75107, Note_off_c, 13, 68, 56
14, 75120, Note_on_c, 13, 84, 109
14, 75122, Note_on_c, 13, 48, 104
14, 75165, Note_off_c, 13, 84, 56
14, 75178, Note_on_c, 13, 84, 109
14, 75223, Note_off_c, 13, 84, 56
14, 75239, Note_on_c, 13, 84, 110
14, 75284, Note_off_c, 13, 84, 56
14, 75298, Note_on_c, 13, 84, 110
14, 75304, Note_off_c, 13, 48, 64
14, 75343, Note_off_c, 13, 84, 56
14, 75360, Note_on_c, 13, 48, 105
14, 75361, Note_on_c, 13, 84, 110
14, 75406, Note_off_c, 13, 84, 56
14, 75419, Note_on_c, 13, 84, 110
14, 75464, Note_off_c, 13, 84, 56
14, 75478, Note_on_c, 13, 84, 110
14, 75523, Note_off_c, 13, 84, 56
14, 75538, Note_on_c, 13, 84, 111
14, 75542, Note_off_c, 13, 48, 64
14, 75583, Note_off_c, 13, 84, 56
14, 75602, Note_on_c, 13, 84, 111
14, 75602, Note_on_c, 13, 48, 106
14, 75647, Note_off_c, 13, 84, 56
14, 75659, Note_on_c, 13, 84, 111
14, 75704, Note_off_c, 13, 84, 56
14, 75721, Note_on_c, 13, 84, 111
14, 75766, Note_off_c, 13, 84, 56
14, 75780, Note_on_c, 13, 84, 113
14, 75784, Note_off_c, 13, 48, 64
14, 75825, Note_off_c, 13, 84, 56
14, 75838, Note_on_c, 13, 41, 108
14, 75842, Note_on_c, 13, 80, 108
14, 75906, Note_off_c, 13, 41, 56
14, 75961, Note_on_c, 13, 36, 108
14, 76029, Note_off_c, 13, 36, 56
14, 76082, Note_on_c, 13, 44, 108
14, 76150, Note_off_c, 13, 44, 56
14, 76201, Note_on_c, 13, 41, 108
14, 76292, Note_off_c, 13, 41, 56
14, 76321, Note_on_c, 13, 44, 108
14, 76389, Note_off_c, 13, 44, 56
14, 76438, Note_on_c, 13, 41, 108
14, 76506, Note_off_c, 13, 41, 56
14, 76562, Note_on_c, 13, 48, 108
14, 76653, Note_off_c, 13, 48, 56
14, 76682, Note_on_c, 13, 44, 108
14, 76773, Note_off_c, 13, 44, 56
14, 76800, Note_on_c, 13, 48, 108
14, 76868, Note_off_c, 13, 48, 56
14, 76918, Note_on_c, 13, 44, 108
14, 76986, Note_off_c, 13, 44, 56
14, 77039, Note_on_c, 13, 53, 108
14, 77107, Note_off_c, 13, 53, 56
14, 77160, Note_on_c, 13, 48, 108
14, 77251, Note_off_c, 13, 48, 56
14, 77278, Note_on_c, 13, 53, 108
14, 77369, Note_off_c, 13, 53, 56
14, 77400, Note_on_c, 13, 48, 108
14, 77468, Note_off_c, 13, 48, 56
14, 77522, Note_on_c, 13, 56, 108
14, 77570, Note_off_c, 13, 80, 64
14, 77613, Note_off_c, 13, 56, 56
14, 77638, Note_on_c, 13, 53, 108
14, 77729, Note_off_c, 13, 53, 56
14, 77761, Note_on_c, 13, 55, 108
14, 77761, Note_on_c, 13, 59, 108
14, 77829, Note_off_c, 13, 59, 56
14, 77878, Note_on_c, 13, 55, 108
14, 77946, Note_off_c, 13, 55, 56
14, 78002, Note_on_c, 13, 59, 108
14, 78070, Note_off_c, 13, 59, 56
14, 78121, Note_on_c, 13, 55, 108
14, 78212, Note_off_c, 13, 55, 56
14, 78241, Note_on_c, 13, 59, 108
14, 78332, Note_off_c, 13, 59, 56
14, 78359, Note_on_c, 13, 55, 108
14, 78427, Note_off_c, 13, 55, 56
14, 78478, Note_on_c, 13, 59, 108
14, 78546, Note_off_c, 13, 59, 56
14, 78601, Note_on_c, 13, 55, 108
14, 78692, Note_off_c, 13, 55, 56
14, 78718, Note_on_c, 13, 59, 108
14, 78786, Note_off_c, 13, 59, 56
14, 78838, Note_on_c, 13, 55, 108
14, 78906, Note_off_c, 13, 55, 56
14, 78959, Note_on_c, 13, 62, 108
14, 79027, Note_off_c, 13, 62, 56
14, 79078, Note_on_c, 13, 59, 108
14, 79169, Note_off_c, 13, 59, 56
14, 79200, Note_on_c, 13, 62, 108
14, 79291, Note_off_c, 13, 62, 56
14, 79318, Note_on_c, 13, 59, 108
14, 79409, Note_off_c, 13, 59, 56
14, 79439, Note_on_c, 13, 65, 108
14, 79489, Note_off_c, 13, 55, 64
14, 79530, Note_off_c, 13, 65, 56
14, 79562, Note_on_c, 13, 62, 108
14, 79653, Note_off_c, 13, 62, 56
14, 79678, Note_on_c, 13, 62, 108
14, 79680, Note_on_c, 13, 65, 108
14, 79748, Note_off_c, 13, 65, 56
14, 79769, Note_off_c, 13, 62, 56
14, 79798, Note_on_c, 13, 65, 108
14, 79802, Note_on_c, 13, 62, 108
14, 79870, Note_off_c, 13, 62, 56
14, 79889, Note_off_c, 13, 65, 56
14, 79919, Note_on_c, 13, 71, 108
14, 79921, Note_on_c, 13, 59, 108
14, 79987, Note_off_c, 13, 71, 56
14, 80012, Note_off_c, 13, 59, 56
14, 80039, Note_on_c, 13, 65, 108
14, 80040, Note_on_c, 13, 62, 108
14, 80107, Note_off_c, 13, 65, 56
14, 80131, Note_off_c, 13, 62, 56
14, 80159, Note_on_c, 13, 74, 108
14, 80161, Note_on_c, 13, 55, 108
14, 80227, Note_off_c, 13, 74, 56
14, 80252, Note_off_c, 13, 55, 56
14, 80280, Note_on_c, 13, 59, 108
14, 80282, Note_on_c, 13, 71, 108
14, 80350, Note_off_c, 13, 71, 56
14, 80371, Note_off_c, 13, 59, 56
14, 80398, Note_on_c, 13, 77, 108
14, 80399, Note_on_c, 13, 53, 108
14, 80466, Note_off_c, 13, 77, 56
14, 80490, Note_off_c, 13, 53, 56
14, 80518, Note_on_c, 13, 74, 108
14, 80522, Note_on_c, 13, 55, 108
14, 80586, Note_off_c, 13, 74, 56
14, 80613, Note_off_c, 13, 55, 56
14, 80638, Note_on_c, 13, 83, 108
14, 80642, Note_on_c, 13, 50, 108
14, 80706, Note_off_c, 13, 83, 56
14, 80733, Note_off_c, 13, 50, 56
14, 80761, Note_on_c, 13, 53, 108
14, 80762, Note_on_c, 13, 77, 108
14, 80830, Note_off_c, 13, 77, 56
14, 80852, Note_off_c, 13, 53, 56
14, 80879, Note_on_c, 13, 86, 108
14, 80880, Note_on_c, 13, 47, 108
14, 80971, Note_off_c, 13, 47, 56
14, 81000, Note_on_c, 13, 50, 108
14, 81061, Note_off_c, 13, 86, 64
14, 81091, Note_off_c, 13, 50, 56
14, 81122, Note_on_c, 13, 43, 108
14, 81213, Note_off_c, 13, 43, 56
14, 81241, Note_on_c, 13, 55, 108
14, 81332, Note_off_c, 13, 55, 56
14, 81361, Note_on_c, 13, 55, 108
14, 81478, Note_on_c, 13, 55, 108
14, 81543, Note_off_c, 13, 55, 64
14, 81569, Note_off_c, 13, 55, 56
14, 81600, Note_on_c, 13, 55, 108
14, 81602, Note_on_c, 13, 48, 108
14, 81602, Note_on_c, 13, 36, 108
14, 81782, Note_off_c, 13, 55, 64
14, 81784, Note_off_c, 13, 36, 64
14, 81784, Note_off_c, 13, 48, 64
14, 82078, Note_on_c, 13, 64, 108
14, 82078, Note_on_c, 13, 55, 108
14, 82080, Note_on_c, 13, 48, 108
14, 82082, Note_on_c, 13, 36, 108
14, 82260, Note_off_c, 13, 55, 64
14, 82260, Note_off_c, 13, 64, 64
14, 82262, Note_off_c, 13, 48, 64
14, 82264, Note_off_c, 13, 36, 64
14, 82559, Note_on_c, 13, 48, 108
14, 82561, Note_on_c, 13, 36, 108
14, 82562, Note_on_c, 13, 55, 108
14, 82562, Note_on_c, 13, 64, 108
14, 82744, Note_off_c, 13, 64, 64
14, 82744, Note_off_c, 13, 55, 64
14, 83135, Note_off_c, 13, 48, 64
14, 83137, Note_off_c, 13, 36, 64
14, 83281, Note_on_c, 13, 55, 108
14, 83281, Note_on_c, 13, 62, 108
14, 83282, Note_on_c, 13, 43, 108
14, 83372, Note_off_c, 13, 62, 56
14, 83372, Note_off_c, 13, 55, 56
14, 83373, Note_off_c, 13, 43, 56
14, 83518, Note_on_c, 13, 55, 108
14, 83518, Note_on_c, 13, 64, 108
14, 83518, Note_on_c, 13, 48, 108
14, 83609, Note_off_c, 13, 48, 56
14, 83609, Note_off_c, 13, 64, 56
14, 83609, Note_off_c, 13, 55, 56
14, 83761, Note_on_c, 13, 43, 108
14, 83761, Note_on_c, 13, 65, 108
14, 83761, Note_on_c, 13, 55, 108
14, 83852, Note_off_c, 13, 55, 56
14, 83852, Note_off_c, 13, 65, 56
14, 83852, Note_off_c, 13, 43, 56
14, 83998, Note_on_c, 13, 36, 108
14, 84001, Note_on_c, 13, 55, 108
14, 84002, Note_on_c, 13, 64, 108
14, 84089, Note_off_c, 13, 36, 56
14, 84092, Note_off_c, 13, 55, 56
14, 84093, Note_off_c, 13, 64, 56
14, 84238, Note_on_c, 13, 43, 108
14, 84242, Note_on_c, 13, 55, 108
14, 84242, Note_on_c, 13, 65, 108
14, 84329, Note_off_c, 13, 43, 56
14, 84333, Note_off_c, 13, 65, 56
14, 84333, Note_off_c, 13, 55, 56
14, 84478, Note_on_c, 13, 64, 113
14, 84481, Note_on_c, 13, 55, 113
14, 84482, Note_on_c, 13, 36, 108
14, 84523, Note_off_c, 13, 64, 56
14, 84526, Note_off_c, 13, 55, 56
14, 84538, Note_on_c, 13, 60, 113
14, 84583, Note_off_c, 13, 60, 56
14, 84599, Note_on_c, 13, 60, 113
14, 84644, Note_off_c, 13, 60, 56
14, 84662, Note_on_c, 13, 60, 113
14, 84707, Note_off_c, 13, 60, 56
14, 84718, Note_on_c, 13, 60, 113
14, 84763, Note_off_c, 13, 60, 56
14, 84781, Note_on_c, 13, 60, 113
14, 84826, Note_off_c, 13, 60, 56
14, 84841, Note_on_c, 13, 60, 113
14, 84886, Note_off_c, 13, 60, 56
14, 84900, Note_on_c, 13, 60, 113
14, 84945, Note_off_c, 13, 60, 56
14, 84958, Note_on_c, 13, 60, 113
14, 85003, Note_off_c, 13, 60, 56
14, 85022, Note_on_c, 13, 60, 113
14, 85058, Note_off_c, 13, 36, 64
14, 85067, Note_off_c, 13, 60, 56
14, 85081, Note_on_c, 13, 60, 113
14, 85126, Note_off_c, 13, 60, 56
14, 85140, Note_on_c, 13, 60, 113
14, 85185, Note_off_c, 13, 60, 56
14, 85198, Note_on_c, 13, 48, 108
14, 85334, Note_off_c, 13, 48, 64
14, 85379, Note_on_c, 13, 48, 113
14, 85424, Note_off_c, 13, 48, 56
14, 85438, Note_on_c, 13, 59, 113
14, 85442, Note_on_c, 13, 43, 108
14, 85483, Note_off_c, 13, 59, 56
14, 85498, Note_on_c, 13, 59, 113
14, 85543, Note_off_c, 13, 59, 56
14, 85562, Note_on_c, 13, 59, 113
14, 85607, Note_off_c, 13, 59, 56
14, 85620, Note_on_c, 13, 59, 113
14, 85665, Note_off_c, 13, 59, 56
14, 85679, Note_on_c, 13, 59, 113
14, 85724, Note_off_c, 13, 59, 56
14, 85742, Note_on_c, 13, 59, 113
14, 85787, Note_off_c, 13, 59, 56
14, 85798, Note_on_c, 13, 59, 113
14, 85843, Note_off_c, 13, 59, 56
14, 85860, Note_on_c, 13, 59, 113
14, 85905, Note_off_c, 13, 59, 56
14, 85921, Note_on_c, 13, 59, 113
14, 85966, Note_off_c, 13, 59, 56
14, 85982, Note_on_c, 13, 59, 113
14, 86018, Note_off_c, 13, 43, 64
14, 86027, Note_off_c, 13, 59, 56
14, 86039, Note_on_c, 13, 59, 113
14, 86084, Note_off_c, 13, 59, 56
14, 86102, Note_on_c, 13, 59, 113
14, 86147, Note_off_c, 13, 59, 56
14, 86158, Note_on_c, 13, 59, 113
14, 86159, Note_on_c, 13, 43, 108
14, 86203, Note_off_c, 13, 59, 56
14, 86218, Note_on_c, 13, 59, 113
14, 86263, Note_off_c, 13, 59, 56
14, 86282, Note_on_c, 13, 59, 113
14, 86295, Note_off_c, 13, 43, 64
14, 86327, Note_off_c, 13, 59, 56
14, 86340, Note_on_c, 13, 43, 113
14, 86342, Note_on_c, 13, 59, 113
14, 86385, Note_off_c, 13, 43, 56
14, 86387, Note_off_c, 13, 59, 56
14, 86398, Note_on_c, 13, 60, 113
14, 86401, Note_on_c, 13, 48, 108
14, 86443, Note_off_c, 13, 60, 56
14, 86458, Note_on_c, 13, 60, 113
14, 86503, Note_off_c, 13, 60, 56
14, 86519, Note_on_c, 13, 60, 113
14, 86564, Note_off_c, 13, 60, 56
14, 86578, Note_on_c, 13, 60, 113
14, 86623, Note_off_c, 13, 60, 56
14, 86642, Note_on_c, 13, 60, 113
14, 86687, Note_off_c, 13, 60, 56
14, 86699, Note_on_c, 13, 60, 113
14, 86744, Note_off_c, 13, 60, 56
14, 86760, Note_on_c, 13, 60, 113
14, 86805, Note_off_c, 13, 60, 56
14, 86821, Note_on_c, 13, 60, 113
14, 86866, Note_off_c, 13, 60, 56
14, 86879, Note_on_c, 13, 60, 113
14, 86924, Note_off_c, 13, 60, 56
14, 86939, Note_on_c, 13, 60, 113
14, 86984, Note_off_c, 13, 60, 56
14, 87001, Note_on_c, 13, 60, 113
14, 87046, Note_off_c, 13, 60, 56
14, 87062, Note_on_c, 13, 60, 113
14, 87107, Note_off_c, 13, 60, 56
14, 87118, Note_on_c, 13, 60, 113
14, 87163, Note_off_c, 13, 60, 56
14, 87169, Note_off_c, 13, 48, 64
14, 87179, Note_on_c, 13, 60, 113
14, 87224, Note_off_c, 13, 60, 56
14, 87240, Note_on_c, 13, 60, 113
14, 87285, Note_off_c, 13, 60, 56
14, 87302, Note_on_c, 13, 60, 113
14, 87347, Note_off_c, 13, 60, 56
14, 87361, Note_on_c, 13, 45, 108
14, 87362, Note_on_c, 13, 60, 113
14, 87407, Note_off_c, 13, 60, 56
14, 87421, Note_on_c, 13, 60, 113
14, 87466, Note_off_c, 13, 60, 56
14, 87481, Note_on_c, 13, 60, 113
14, 87526, Note_off_c, 13, 60, 56
14, 87538, Note_on_c, 13, 60, 113
14, 87583, Note_off_c, 13, 60, 56
14, 87599, Note_on_c, 13, 60, 113
14, 87644, Note_off_c, 13, 60, 56
14, 87661, Note_on_c, 13, 60, 113
14, 87706, Note_off_c, 13, 60, 56
14, 87719, Note_on_c, 13, 60, 113
14, 87745, Note_off_c, 13, 45, 64
14, 87764, Note_off_c, 13, 60, 56
14, 87781, Note_on_c, 13, 60, 113
14, 87826, Note_off_c, 13, 60, 56
14, 87841, Note_on_c, 13, 41, 108
14, 87842, Note_on_c, 13, 60, 113
14, 87887, Note_off_c, 13, 60, 56
14, 87899, Note_on_c, 13, 60, 113
14, 87944, Note_off_c, 13, 60, 56
14, 87958, Note_on_c, 13, 60, 113
14, 88003, Note_off_c, 13, 60, 56
14, 88020, Note_on_c, 13, 60, 113
14, 88065, Note_off_c, 13, 60, 56
14, 88080, Note_on_c, 13, 60, 113
14, 88125, Note_off_c, 13, 60, 56
14, 88141, Note_on_c, 13, 60, 113
14, 88186, Note_off_c, 13, 60, 56
14, 88200, Note_on_c, 13, 60, 113
14, 88225, Note_off_c, 13, 41, 64
14, 88245, Note_off_c, 13, 60, 56
14, 88260, Note_on_c, 13, 60, 113
14, 88305, Note_off_c, 13, 60, 56
14, 88319, Note_on_c, 13, 60, 113
14, 88322, Note_on_c, 13, 40, 108
14, 88364, Note_off_c, 13, 60, 56
14, 88379, Note_on_c, 13, 60, 113
14, 88413, Note_off_c, 13, 40, 56
14, 88424, Note_off_c, 13, 60, 56
14, 88438, Note_on_c, 13, 41, 108
14, 88439, Note_on_c, 13, 60, 113
14, 88484, Note_off_c, 13, 60, 56
14, 88502, Note_on_c, 13, 60, 113
14, 88529, Note_off_c, 13, 41, 56
14, 88547, Note_off_c, 13, 60, 56
14, 88558, Note_on_c, 13, 40, 108
14, 88560, Note_on_c, 13, 60, 113
14, 88605, Note_off_c, 13, 60, 56
14, 88622, Note_on_c, 13, 60, 113
14, 88649, Note_off_c, 13, 40, 56
14, 88667, Note_off_c, 13, 60, 56
14, 88681, Note_on_c, 13, 60, 113
14, 88681, Note_on_c, 13, 38, 108
14, 88726, Note_off_c, 13, 60, 56
14, 88742, Note_on_c, 13, 60, 113
14, 88772, Note_off_c, 13, 38, 56
14, 88787, Note_off_c, 13, 60, 56
14, 88802, Note_on_c, 13, 60, 113
14, 88802, Note_on_c, 13, 36, 108
14, 88847, Note_off_c, 13, 60, 56
14, 88860, Note_on_c, 13, 60, 113
14, 88905, Note_off_c, 13, 60, 56
14, 88921, Note_on_c, 13, 60, 113
14, 88966, Note_off_c, 13, 60, 56
14, 88982, Note_on_c, 13, 60, 113
14, 89027, Note_off_c, 13, 60, 56
14, 89040, Note_on_c, 13, 60, 113
14, 89085, Note_off_c, 13, 60, 56
14, 89098, Note_on_c, 13, 60, 113
14, 89143, Note_off_c, 13, 60, 56
14, 89160, Note_on_c, 13, 60, 113
14, 89186, Note_off_c, 13, 36, 64
14, 89205, Note_off_c, 13, 60, 56
14, 89221, Note_on_c, 13, 60, 113
14, 89266, Note_off_c, 13, 60, 56
14, 89279, Note_on_c, 13, 60, 113
14, 89280, Note_on_c, 13, 45, 108
14, 89324, Note_off_c, 13, 60, 56
14, 89338, Note_on_c, 13, 60, 113
14, 89383, Note_off_c, 13, 60, 56
14, 89399, Note_on_c, 13, 60, 113
14, 89444, Note_off_c, 13, 60, 56
14, 89459, Note_on_c, 13, 60, 113
14, 89504, Note_off_c, 13, 60, 56
14, 89521, Note_on_c, 13, 60, 113
14, 89566, Note_off_c, 13, 60, 56
14, 89582, Note_on_c, 13, 60, 113
14, 89627, Note_off_c, 13, 60, 56
14, 89638, Note_on_c, 13, 60, 113
14, 89664, Note_off_c, 13, 45, 64
14, 89683, Note_off_c, 13, 60, 56
14, 89702, Note_on_c, 13, 60, 113
14, 89747, Note_off_c, 13, 60, 56
14, 89758, Note_on_c, 13, 60, 113
14, 89759, Note_on_c, 13, 41, 108
14, 89803, Note_off_c, 13, 60, 56
14, 89821, Note_on_c, 13, 60, 113
14, 89866, Note_off_c, 13, 60, 56
14, 89879, Note_on_c, 13, 60, 113
14, 89924, Note_off_c, 13, 60, 56
14, 89940, Note_on_c, 13, 60, 113
14, 89985, Note_off_c, 13, 60, 56
14, 89999, Note_on_c, 13, 60, 113
14, 90044, Note_off_c, 13, 60, 56
14, 90059, Note_on_c, 13, 60, 113
14, 90104, Note_off_c, 13, 60, 56
14, 90118, Note_on_c, 13, 60, 113
14, 90143, Note_off_c, 13, 41, 64
14, 90163, Note_off_c, 13, 60, 56
14, 90179, Note_on_c, 13, 60, 113
14, 90224, Note_off_c, 13, 60, 56
14, 90238, Note_on_c, 13, 60, 113
14, 90239, Note_on_c, 13, 40, 108
14, 90283, Note_off_c, 13, 60, 56
14, 90298, Note_on_c, 13, 60, 113
14, 90330, Note_off_c, 13, 40, 56
14, 90343, Note_off_c, 13, 60, 56
14, 90359, Note_on_c, 13, 60, 113
14, 90361, Note_on_c, 13, 41, 108
14, 90404, Note_off_c, 13, 60, 56
14, 90420, Note_on_c, 13, 60, 113
14, 90452, Note_off_c, 13, 41, 56
14, 90465, Note_off_c, 13, 60, 56
14, 90482, Note_on_c, 13, 60, 113
14, 90482, Note_on_c, 13, 40, 108
14, 90527, Note_off_c, 13, 60, 56
14, 90542, Note_on_c, 13, 60, 113
14, 90573, Note_off_c, 13, 40, 56
14, 90587, Note_off_c, 13, 60, 56
14, 90599, Note_on_c, 13, 60, 113
14, 90601, Note_on_c, 13, 38, 108
14, 90644, Note_off_c, 13, 60, 56
14, 90660, Note_on_c, 13, 60, 113
14, 90692, Note_off_c, 13, 38, 56
14, 90705, Note_off_c, 13, 60, 56
14, 90720, Note_on_c, 13, 60, 113
14, 90721, Note_on_c, 13, 36, 108
14, 90765, Note_off_c, 13, 60, 56
14, 90779, Note_on_c, 13, 60, 113
14, 90824, Note_off_c, 13, 60, 56
14, 90838, Note_on_c, 13, 60, 113
14, 90883, Note_off_c, 13, 60, 56
14, 90900, Note_on_c, 13, 60, 113
14, 90945, Note_off_c, 13, 60, 56
14, 90962, Note_on_c, 13, 60, 113
14, 91007, Note_off_c, 13, 60, 56
14, 91018, Note_on_c, 13, 60, 113
14, 91063, Note_off_c, 13, 60, 56
14, 91079, Note_on_c, 13, 60, 113
14, 91105, Note_off_c, 13, 36, 64
14, 91124, Note_off_c, 13, 60, 56
14, 91139, Note_on_c, 13, 60, 113
14, 91184, Note_off_c, 13, 60, 56
14, 91201, Note_on_c, 13, 60, 113
14, 91202, Note_on_c, 13, 45, 108
14, 91246, Note_off_c, 13, 60, 56
14, 91258, Note_on_c, 13, 60, 113
14, 91303, Note_off_c, 13, 60, 56
14, 91320, Note_on_c, 13, 60, 113
14, 91365, Note_off_c, 13, 60, 56
14, 91381, Note_on_c, 13, 60, 113
14, 91426, Note_off_c, 13, 60, 56
14, 91441, Note_on_c, 13, 60, 113
14, 91486, Note_off_c, 13, 60, 56
14, 91502, Note_on_c, 13, 60, 113
14, 91547, Note_off_c, 13, 60, 56
14, 91558, Note_on_c, 13, 60, 113
14, 91586, Note_off_c, 13, 45, 64
14, 91603, Note_off_c, 13, 60, 56
14, 91621, Note_on_c, 13, 60, 113
14, 91666, Note_off_c, 13, 60, 56
14, 91682, Note_on_c, 13, 41, 108
14, 91682, Note_on_c, 13, 60, 113
14, 91727, Note_off_c, 13, 60, 56
14, 91740, Note_on_c, 13, 60, 113
14, 91785, Note_off_c, 13, 60, 56
14, 91802, Note_on_c, 13, 60, 113
14, 91847, Note_off_c, 13, 60, 56
14, 91860, Note_on_c, 13, 60, 113
14, 91905, Note_off_c, 13, 60, 56
14, 91918, Note_on_c, 13, 60, 113
14, 91963, Note_off_c, 13, 60, 56
14, 91980, Note_on_c, 13, 60, 113
14, 92025, Note_off_c, 13, 60, 56
14, 92042, Note_on_c, 13, 60, 113
14, 92066, Note_off_c, 13, 41, 64
14, 92087, Note_off_c, 13, 60, 56
14, 92102, Note_on_c, 13, 60, 113
14, 92147, Note_off_c, 13, 60, 56
14, 92161, Note_on_c, 13, 60, 113
14, 92161, Note_on_c, 13, 40, 108
14, 92206, Note_off_c, 13, 60, 56
14, 92221, Note_on_c, 13, 60, 113
14, 92252, Note_off_c, 13, 40, 56
14, 92266, Note_off_c, 13, 60, 56
14, 92280, Note_on_c, 13, 60, 113
14, 92280, Note_on_c, 13, 41, 108
14, 92325, Note_off_c, 13, 60, 56
14, 92338, Note_on_c, 13, 60, 113
14, 92371, Note_off_c, 13, 41, 56
14, 92383, Note_off_c, 13, 60, 56
14, 92399, Note_on_c, 13, 40, 108
14, 92401, Note_on_c, 13, 60, 113
14, 92446, Note_off_c, 13, 60, 56
14, 92461, Note_on_c, 13, 60, 113
14, 92490, Note_off_c, 13, 40, 56
14, 92506, Note_off_c, 13, 60, 56
14, 92518, Note_on_c, 13, 38, 108
14, 92521, Note_on_c, 13, 60, 113
14, 92566, Note_off_c, 13, 60, 56
14, 92580, Note_on_c, 13, 60, 113
14, 92609, Note_off_c, 13, 38, 56
14, 92625, Note_off_c, 13, 60, 56
14, 92638, Note_on_c, 13, 60, 113
14, 92640, Note_on_c, 13, 36, 108
14, 92683, Note_off_c, 13, 60, 56
14, 92699, Note_on_c, 13, 60, 113
14, 92744, Note_off_c, 13, 60, 56
14, 92762, Note_on_c, 13, 60, 113
14, 92807, Note_off_c, 13, 60, 56
14, 92818, Note_on_c, 13, 60, 113
14, 92822, Note_off_c, 13, 36, 64
14, 92863, Note_off_c, 13, 60, 56
14, 92878, Note_on_c, 13, 60, 113
14, 92880, Note_on_c, 13, 48, 108
14, 92923, Note_off_c, 13, 60, 56
14, 92938, Note_on_c, 13, 60, 113
14, 92983, Note_off_c, 13, 60, 56
14, 93000, Note_on_c, 13, 60, 113
14, 93016, Note_off_c, 13, 48, 64
14, 93045, Note_off_c, 13, 60, 56
14, 93060, Note_on_c, 13, 60, 113
14, 93060, Note_on_c, 13, 48, 113
14, 93105, Note_off_c, 13, 48, 56
14, 93105, Note_off_c, 13, 60, 56
14, 93118, Note_on_c, 13, 65, 108
14, 93118, Note_on_c, 13, 47, 108
14, 93121, Note_on_c, 13, 55, 108
14, 93300, Note_off_c, 13, 65, 64
14, 93303, Note_off_c, 13, 55, 64
14, 93360, Note_on_c, 13, 65, 108
14, 93362, Note_on_c, 13, 55, 108
14, 93496, Note_off_c, 13, 65, 64
14, 93498, Note_off_c, 13, 55, 64
14, 93502, Note_off_c, 13, 47, 64
14, 93540, Note_on_c, 13, 65, 113
14, 93542, Note_on_c, 13, 55, 113
14, 93585, Note_off_c, 13, 65, 56
14, 93587, Note_off_c, 13, 55, 56
14, 93601, Note_on_c, 13, 55, 108
14, 93601, Note_on_c, 13, 48, 108
14, 93602, Note_on_c, 13, 64, 108
14, 93783, Note_off_c, 13, 55, 64
14, 93784, Note_off_c, 13, 64, 64
14, 93839, Note_on_c, 13, 64, 108
14, 93841, Note_on_c, 13, 55, 108
14, 93975, Note_off_c, 13, 64, 64
14, 93977, Note_off_c, 13, 55, 64
14, 93985, Note_off_c, 13, 48, 64
14, 94022, Note_on_c, 13, 55, 113
14, 94022, Note_on_c, 13, 64, 113
14, 94067, Note_off_c, 13, 64, 56
14, 94067, Note_off_c, 13, 55, 56
14, 94078, Note_on_c, 13, 62, 108
14, 94078, Note_on_c, 13, 55, 108
14, 94081, Note_on_c, 13, 43, 108
14, 94260, Note_off_c, 13, 55, 64
14, 94260, Note_off_c, 13, 62, 64
14, 94263, Note_off_c, 13, 43, 64
14, 94319, Note_on_c, 13, 62, 108
14, 94321, Note_on_c, 13, 55, 108
14, 94322, Note_on_c, 13, 43, 108
14, 94703, Note_off_c, 13, 62, 64
14, 94705, Note_off_c, 13, 55, 64
14, 94706, Note_off_c, 13, 43, 64
14, 94798, Note_on_c, 13, 55, 108
14, 94799, Note_on_c, 13, 48, 108
14, 94801, Note_on_c, 13, 64, 108
14, 94934, Note_off_c, 13, 55, 64
14, 94935, Note_off_c, 13, 48, 64
14, 94937, Note_off_c, 13, 64, 64
14, 94978, Note_on_c, 13, 48, 113
14, 94980, Note_on_c, 13, 55, 113
14, 94981, Note_on_c, 13, 64, 113
14, 95023, Note_off_c, 13, 48, 56
14, 95025, Note_off_c, 13, 55, 56
14, 95026, Note_off_c, 13, 64, 56
14, 95038, Note_on_c, 13, 55, 108
14, 95038, Note_on_c, 13, 65, 108
14, 95041, Note_on_c, 13, 47, 108
14, 95220, Note_off_c, 13, 65, 64
14, 95220, Note_off_c, 13, 55, 64
14, 95278, Note_on_c, 13, 55, 108
14, 95278, Note_on_c, 13, 65, 108
14, 95414, Note_off_c, 13, 65, 64
14, 95414, Note_off_c, 13, 55, 64
14, 95425, Note_off_c, 13, 47, 64
14, 95458, Note_on_c, 13, 65, 113
14, 95462, Note_on_c, 13, 55, 113
14, 95503, Note_off_c, 13, 65, 56
14, 95507, Note_off_c, 13, 55, 56
14, 95518, Note_on_c, 13, 55, 108
14, 95519, Note_on_c, 13, 48, 108
14, 95522, Note_on_c, 13, 64, 108
14, 95700, Note_off_c, 13, 55, 64
14, 95704, Note_off_c, 13, 64, 64
14, 95758, Note_on_c, 13, 55, 108
14, 95760, Note_on_c, 13, 64, 108
14, 95894, Note_off_c, 13, 55, 64
14, 95896, Note_off_c, 13, 64, 64
14, 95903, Note_off_c, 13, 48, 64
14, 95939, Note_on_c, 13, 55, 113
14, 95939, Note_on_c, 13, 64, 113
14, 95984, Note_off_c, 13, 64, 56
14, 95984, Note_off_c, 13, 55, 56
14, 95998, Note_on_c, 13, 43, 108
14, 95999, Note_on_c, 13, 55, 108
14, 96000, Note_on_c, 13, 62, 108
14, 96180, Note_off_c, 13, 43, 64
14, 96181, Note_off_c, 13, 55, 64
14, 96182, Note_off_c, 13, 62, 64
14, 96238, Note_on_c, 13, 62, 108
14, 96241, Note_on_c, 13, 55, 108
14, 96242, Note_on_c, 13, 43, 108
14, 96622, Note_off_c, 13, 62, 64
14, 96625, Note_off_c, 13, 55, 64
14, 96626, Note_off_c, 13, 43, 64
14, 96719, Note_on_c, 13, 48, 108
14, 96719, Note_on_c, 13, 64, 108
14, 96721, Note_on_c, 13, 55, 108
14, 96855, Note_off_c, 13, 64, 64
14, 96855, Note_off_c, 13, 48, 64
14, 96857, Note_off_c, 13, 55, 64
14, 96898, Note_on_c, 13, 48, 113
14, 96899, Note_on_c, 13, 64, 113
14, 96900, Note_on_c, 13, 55, 113
14, 96943, Note_off_c, 13, 48, 56
14, 96944, Note_off_c, 13, 64, 56
14, 96945, Note_off_c, 13, 55, 56
14, 96959, Note_on_c, 13, 55, 108
14, 96960, Note_on_c, 13, 65, 108
14, 96961, Note_on_c, 13, 47, 108
14, 97095, Note_off_c, 13, 55, 64
14, 97096, Note_off_c, 13, 65, 64
14, 97097, Note_off_c, 13, 47, 64
14, 97141, Note_on_c, 13, 55, 113
14, 97142, Note_on_c, 13, 65, 113
14, 97142, Note_on_c, 13, 47, 113
14, 97186, Note_off_c, 13, 55, 56
14, 97187, Note_off_c, 13, 47, 56
14, 97187, Note_off_c, 13, 65, 56
14, 97199, Note_on_c, 13, 65, 108
14, 97200, Note_on_c, 13, 43, 108
14, 97202, Note_on_c, 13, 55, 108
14, 97335, Note_off_c, 13, 65, 64
14, 97336, Note_off_c, 13, 43, 64
14, 97338, Note_off_c, 13, 55, 64
14, 97379, Note_on_c, 13, 55, 113
14, 97379, Note_on_c, 13, 43, 113
14, 97382, Note_on_c, 13, 65, 113
14, 97424, Note_off_c, 13, 43, 56
14, 97424, Note_off_c, 13, 55, 56
14, 97427, Note_off_c, 13, 65, 56
14, 97438, Note_on_c, 13, 55, 108
14, 97440, Note_on_c, 13, 48, 108
14, 97440, Note_on_c, 13, 64, 108
14, 97574, Note_off_c, 13, 55, 64
14, 97576, Note_off_c, 13, 64, 64
14, 97576, Note_off_c, 13, 48, 64
14, 97619, Note_on_c, 13, 55, 113
14, 97619, Note_on_c, 13, 48, 113
14, 97621, Note_on_c, 13, 64, 113
14, 97664, Note_off_c, 13, 48, 56
14, 97664, Note_off_c, 13, 55, 56
14, 97666, Note_off_c, 13, 64, 56
14, 97680, Note_on_c, 13, 55, 108
14, 97681, Note_on_c, 13, 52, 108
14, 97682, Note_on_c, 13, 64, 108
14, 97816, Note_off_c, 13, 55, 64
14, 97817, Note_off_c, 13, 52, 64
14, 97818, Note_off_c, 13, 64, 64
14, 97860, Note_on_c, 13, 52, 113
14, 97861, Note_on_c, 13, 64, 113
14, 97862, Note_on_c, 13, 55, 113
14, 97905, Note_off_c, 13, 52, 56
14, 97906, Note_off_c, 13, 64, 56
14, 97907, Note_off_c, 13, 55, 56
14, 97918, Note_on_c, 13, 55, 108
14, 97980, Note_on_c, 13, 55, 113
14, 98009, Note_off_c, 13, 55, 56
14, 98025, Note_off_c, 13, 55, 56
14, 98038, Note_on_c, 13, 55, 113
14, 98041, Note_on_c, 13, 43, 108
14, 98083, Note_off_c, 13, 55, 56
14, 98100, Note_on_c, 13, 55, 113
14, 98132, Note_off_c, 13, 43, 56
14, 98145, Note_off_c, 13, 55, 56
14, 98160, Note_on_c, 13, 55, 113
14, 98162, Note_on_c, 13, 43, 108
14, 98205, Note_off_c, 13, 55, 56
14, 98218, Note_on_c, 13, 55, 113
14, 98263, Note_off_c, 13, 55, 56
14, 98282, Note_on_c, 13, 55, 113
14, 98327, Note_off_c, 13, 55, 56
14, 98339, Note_on_c, 13, 55, 113
14, 98344, Note_off_c, 13, 43, 64
14, 98384, Note_off_c, 13, 55, 56
14, 98401, Note_on_c, 13, 55, 113
14, 98446, Note_off_c, 13, 55, 56
14, 98459, Note_on_c, 13, 55, 113
14, 98504, Note_off_c, 13, 55, 56
14, 98519, Note_on_c, 13, 55, 113
14, 98564, Note_off_c, 13, 55, 56
14, 98579, Note_on_c, 13, 55, 113
14, 98624, Note_off_c, 13, 55, 56
14, 98640, Note_on_c, 13, 55, 113
14, 98685, Note_off_c, 13, 55, 56
14, 98699, Note_on_c, 13, 55, 113
14, 98744, Note_off_c, 13, 55, 56
14, 98762, Note_on_c, 13, 55, 113
14, 98807, Note_off_c, 13, 55, 56
14, 98818, Note_on_c, 13, 55, 113
14, 98863, Note_off_c, 13, 55, 56
14, 98879, Note_on_c, 13, 55, 113
14, 98924, Note_off_c, 13, 55, 56
14, 98941, Note_on_c, 13, 55, 113
14, 98986, Note_off_c, 13, 55, 56
14, 99001, Note_on_c, 13, 43, 108
14, 99002, Note_on_c, 13, 55, 113
14, 99047, Note_off_c, 13, 55, 56
14, 99062, Note_on_c, 13, 55, 113
14, 99092, Note_off_c, 13, 43, 56
14, 99107, Note_off_c, 13, 55, 56
14, 99120, Note_on_c, 13, 43, 108
14, 99121, Note_on_c, 13, 55, 113
14, 99166, Note_off_c, 13, 55, 56
14, 99180, Note_on_c, 13, 55, 113
14, 99225, Note_off_c, 13, 55, 56
14, 99239, Note_on_c, 13, 55, 113
14, 99284, Note_off_c, 13, 55, 56
14, 99300, Note_on_c, 13, 55, 113
14, 99302, Note_off_c, 13, 43, 64
14, 99345, Note_off_c, 13, 55, 56
14, 99358, Note_on_c, 13, 55, 113
14, 99403, Note_off_c, 13, 55, 56
14, 99419, Note_on_c, 13, 55, 113
14, 99464, Note_off_c, 13, 55, 56
14, 99480, Note_on_c, 13, 55, 113
14, 99525, Note_off_c, 13, 55, 56
14, 99540, Note_on_c, 13, 55, 113
14, 99585, Note_off_c, 13, 55, 56
14, 99598, Note_on_c, 13, 55, 113
14, 99643, Note_off_c, 13, 55, 56
14, 99660, Note_on_c, 13, 55, 113
14, 99705, Note_off_c, 13, 55, 56
14, 99718, Note_on_c, 13, 55, 113
14, 99763, Note_off_c, 13, 55, 56
14, 99782, Note_on_c, 13, 55, 113
14, 99827, Note_off_c, 13, 55, 56
14, 99842, Note_on_c, 13, 55, 113
14, 99887, Note_off_c, 13, 55, 56
14, 99902, Note_on_c, 13, 55, 113
14, 99947, Note_off_c, 13, 55, 56
14, 99961, Note_on_c, 13, 55, 113
14, 99962, Note_on_c, 13, 43, 108
14, 100006, Note_off_c, 13, 55, 56
14, 100021, Note_on_c, 13, 55, 113
14, 100053, Note_off_c, 13, 43, 56
14, 100066, Note_off_c, 13, 55, 56
14, 100081, Note_on_c, 13, 55, 113
14, 100082, Note_on_c, 13, 43, 108
14, 100126, Note_off_c, 13, 55, 56
14, 100139, Note_on_c, 13, 55, 113
14, 100184, Note_off_c, 13, 55, 56
14, 100200, Note_on_c, 13, 55, 113
14, 100245, Note_off_c, 13, 55, 56
14, 100258, Note_on_c, 13, 55, 113
14, 100264, Note_off_c, 13, 43, 64
14, 100303, Note_off_c, 13, 55, 56
14, 100322, Note_on_c, 13, 55, 113
14, 100367, Note_off_c, 13, 55, 56
14, 100380, Note_on_c, 13, 55, 113
14, 100425, Note_off_c, 13, 55, 56
14, 100440, Note_on_c, 13, 55, 113
14, 100441, Note_on_c, 13, 43, 108
14, 100485, Note_off_c, 13, 55, 56
14, 100502, Note_on_c, 13, 55, 113
14, 100532, Note_off_c, 13, 43, 56
14, 100547, Note_off_c, 13, 55, 56
14, 100559, Note_on_c, 13, 43, 108
14, 100562, Note_on_c, 13, 55, 113
14, 100607, Note_off_c, 13, 55, 56
14, 100619, Note_on_c, 13, 55, 113
14, 100664, Note_off_c, 13, 55, 56
14, 100678, Note_on_c, 13, 55, 113
14, 100723, Note_off_c, 13, 55, 56
14, 100739, Note_on_c, 13, 55, 113
14, 100741, Note_off_c, 13, 43, 64
14, 100784, Note_off_c, 13, 55, 56
14, 100802, Note_on_c, 13, 55, 113
14, 100847, Note_off_c, 13, 55, 56
14, 100861, Note_on_c, 13, 55, 113
14, 100906, Note_off_c, 13, 55, 56
14, 100919, Note_on_c, 13, 43, 108
14, 100921, Note_on_c, 13, 55, 113
14, 100966, Note_off_c, 13, 55, 56
14, 100979, Note_on_c, 13, 55, 113
14, 101010, Note_off_c, 13, 43, 56
14, 101024, Note_off_c, 13, 55, 56
14, 101039, Note_on_c, 13, 43, 108
14, 101040, Note_on_c, 13, 55, 113
14, 101085, Note_off_c, 13, 55, 56
14, 101099, Note_on_c, 13, 55, 113
14, 101144, Note_off_c, 13, 55, 56
14, 101161, Note_on_c, 13, 55, 113
14, 101206, Note_off_c, 13, 55, 56
14, 101221, Note_off_c, 13, 43, 64
14, 101221, Note_on_c, 13, 55, 113
14, 101266, Note_off_c, 13, 55, 56
14, 101282, Note_on_c, 13, 55, 113
14, 101327, Note_off_c, 13, 55, 56
14, 101338, Note_on_c, 13, 55, 113
14, 101383, Note_off_c, 13, 55, 56
14, 101398, Note_on_c, 13, 43, 108
14, 101402, Note_on_c, 13, 55, 113
14, 101447, Note_off_c, 13, 55, 56
14, 101462, Note_on_c, 13, 55, 113
14, 101489, Note_off_c, 13, 43, 56
14, 101507, Note_off_c, 13, 55, 56
14, 101521, Note_on_c, 13, 55, 113
14, 101522, Note_on_c, 13, 43, 108
14, 101566, Note_off_c, 13, 55, 56
14, 101578, Note_on_c, 13, 55, 113
14, 101623, Note_off_c, 13, 55, 56
14, 101638, Note_on_c, 13, 55, 113
14, 101683, Note_off_c, 13, 55, 56
14, 101702, Note_on_c, 13, 55, 113
14, 101704, Note_off_c, 13, 43, 64
14, 101747, Note_off_c, 13, 55, 56
14, 101758, Note_on_c, 13, 43, 108
14, 101759, Note_on_c, 13, 62, 108
14, 101762, Note_on_c, 13, 55, 108
14, 101827, Note_off_c, 13, 62, 56
14, 101830, Note_off_c, 13, 55, 56
14, 101882, Note_on_c, 13, 79, 108
14, 101940, Note_off_c, 13, 43, 64
14, 101990, Note_off_c, 13, 79, 56
14, 101998, Note_on_c, 13, 77, 108
14, 102089, Note_off_c, 13, 77, 56
14, 102118, Note_on_c, 13, 76, 108
14, 102186, Note_off_c, 13, 76, 56
14, 102239, Note_on_c, 13, 74, 108
14, 102307, Note_off_c, 13, 74, 56
14, 102362, Note_on_c, 13, 76, 108
14, 102470, Note_off_c, 13, 76, 56
14, 102479, Note_on_c, 13, 74, 108
14, 102570, Note_off_c, 13, 74, 56
14, 102599, Note_on_c, 13, 72, 108
14, 102667, Note_off_c, 13, 72, 56
14, 102718, Note_on_c, 13, 71, 108
14, 102786, Note_off_c, 13, 71, 56
14, 102838, Note_on_c, 13, 64, 108
14, 102842, Note_on_c, 13, 76, 108
14, 102929, Note_off_c, 13, 64, 56
14, 102950, Note_off_c, 13, 76, 56
14, 102959, Note_on_c, 13, 74, 108
14, 102961, Note_on_c, 13, 62, 108
14, 103050, Note_off_c, 13, 74, 56
14, 103052, Note_off_c, 13, 62, 56
14, 103080, Note_on_c, 13, 72, 108
14, 103082, Note_on_c, 13, 60, 108
14, 103148, Note_off_c, 13, 72, 56
14, 103150, Note_off_c, 13, 60, 56
14, 103202, Note_on_c, 13, 71, 108
14, 103202, Note_on_c, 13, 59, 108
14, 103270, Note_off_c, 13, 59, 56
14, 103270, Note_off_c, 13, 71, 56
14, 103320, Note_on_c, 13, 72, 108
14, 103320, Note_on_c, 13, 60, 108
14, 103411, Note_off_c, 13, 60, 56
14, 103428, Note_off_c, 13, 72, 56
14, 103440, Note_on_c, 13, 71, 108
14, 103441, Note_on_c, 13, 59, 108
14, 103531, Note_off_c, 13, 71, 56
14, 103532, Note_off_c, 13, 59, 56
14, 103559, Note_on_c, 13, 69, 108
14, 103561, Note_on_c, 13, 57, 108
14, 103627, Note_off_c, 13, 69, 56
14, 103652, Note_off_c, 13, 57, 56
14, 103679, Note_on_c, 13, 55, 108
14, 103680, Note_on_c, 13, 67, 108
14, 103747, Note_off_c, 13, 55, 56
14, 103748, Note_off_c, 13, 67, 56
14, 103800, Note_on_c, 13, 72, 108
14, 103802, Note_on_c, 13, 60, 108
14, 103893, Note_off_c, 13, 60, 56
14, 103908, Note_off_c, 13, 72, 56
14, 103920, Note_on_c, 13, 59, 108
14, 103920, Note_on_c, 13, 71, 108
14, 104011, Note_off_c, 13, 71, 56
14, 104011, Note_off_c, 13, 59, 56
14, 104038, Note_on_c, 13, 57, 108
14, 104040, Note_on_c, 13, 69, 108
14, 104106, Note_off_c, 13, 57, 56
14, 104108, Note_off_c, 13, 69, 56
14, 104159, Note_on_c, 13, 55, 108
14, 104162, Note_on_c, 13, 67, 108
14, 104227, Note_off_c, 13, 55, 56
14, 104230, Note_off_c, 13, 67, 56
14, 104279, Note_on_c, 13, 60, 108
14, 104281, Note_on_c, 13, 72, 108
14, 104370, Note_off_c, 13, 60, 56
14, 104389, Note_off_c, 13, 72, 56
14, 104398, Note_on_c, 13, 59, 108
14, 104401, Note_on_c, 13, 71, 108
14, 104489, Note_off_c, 13, 59, 56
14, 104492, Note_off_c, 13, 71, 56
14, 104519, Note_on_c, 13, 57, 108
14, 104522, Note_on_c, 13, 69, 108
14, 104587, Note_off_c, 13, 57, 56
14, 104590, Note_off_c, 13, 69, 56
14, 104640, Note_on_c, 13, 67, 108
14, 104641, Note_on_c, 13, 55, 108
14, 104708, Note_off_c, 13, 67, 56
14, 104732, Note_off_c, 13, 55, 56
14, 104760, Note_on_c, 13, 60, 108
14, 104761, Note_on_c, 13, 72, 108
14, 104851, Note_off_c, 13, 60, 56
14, 104869, Note_off_c, 13, 72, 56
14, 104878, Note_on_c, 13, 71, 108
14, 104879, Note_on_c, 13, 59, 108
14, 104969, Note_off_c, 13, 71, 56
14, 104970, Note_off_c, 13, 59, 56
14, 105001, Note_on_c, 13, 57, 108
14, 105002, Note_on_c, 13, 69, 108
14, 105092, Note_off_c, 13, 57, 56
14, 105093, Note_off_c, 13, 69, 56
14, 105118, Note_on_c, 13, 67, 108
14, 105121, Note_on_c, 13, 55, 108
14, 105186, Note_off_c, 13, 67, 56
14, 105189, Note_off_c, 13, 55, 56
14, 105240, Note_on_c, 13, 53, 108
14, 105242, Note_on_c, 13, 65, 108
14, 105308, Note_off_c, 13, 53, 56
14, 105310, Note_off_c, 13, 65, 56
14, 105358, Note_on_c, 13, 64, 108
14, 105359, Note_on_c, 13, 52, 108
14, 105426, Note_off_c, 13, 64, 56
14, 105427, Note_off_c, 13, 52, 56
14, 105480, Note_on_c, 13, 62, 108
14, 105481, Note_on_c, 13, 50, 108
14, 105548, Note_off_c, 13, 62, 56
14, 105549, Note_off_c, 13, 50, 56
14, 105599, Note_on_c, 13, 60, 113
14, 105600, Note_on_c, 13, 48, 108
14, 105644, Note_off_c, 13, 60, 56
14, 105661, Note_on_c, 13, 60, 113
14, 105706, Note_off_c, 13, 60, 56
14, 105722, Note_on_c, 13, 60, 113
14, 105767, Note_off_c, 13, 60, 56
14, 105782, Note_off_c, 13, 48, 64
14, 105782, Note_on_c, 13, 60, 113
14, 105827, Note_off_c, 13, 60, 56
14, 105841, Note_on_c, 13, 60, 113
14, 105886, Note_off_c, 13, 60, 56
14, 105898, Note_on_c, 13, 60, 113
14, 105943, Note_off_c, 13, 60, 56
14, 105961, Note_on_c, 13, 60, 113
14, 106006, Note_off_c, 13, 60, 56
14, 106018, Note_on_c, 13, 60, 113
14, 106063, Note_off_c, 13, 60, 56
14, 106082, Note_on_c, 13, 60, 113
14, 106127, Note_off_c, 13, 60, 56
14, 106141, Note_on_c, 13, 60, 113
14, 106186, Note_off_c, 13, 60, 56
14, 106202, Note_on_c, 13, 60, 113
14, 106247, Note_off_c, 13, 60, 56
14, 106261, Note_on_c, 13, 60, 113
14, 106306, Note_off_c, 13, 60, 56
14, 106318, Note_on_c, 13, 60, 113
14, 106363, Note_off_c, 13, 60, 56
14, 106382, Note_on_c, 13, 60, 113
14, 106427, Note_off_c, 13, 60, 56
14, 106439, Note_on_c, 13, 60, 113
14, 106484, Note_off_c, 13, 60, 56
14, 106500, Note_on_c, 13, 60, 113
14, 106545, Note_off_c, 13, 60, 56
14, 106561, Note_on_c, 13, 60, 113
14, 106606, Note_off_c, 13, 60, 56
14, 106619, Note_on_c, 13, 60, 113
14, 106664, Note_off_c, 13, 60, 56
14, 106678, Note_on_c, 13, 60, 113
14, 106723, Note_off_c, 13, 60, 56
14, 106741, Note_on_c, 13, 60, 113
14, 106786, Note_off_c, 13, 60, 56
14, 106801, Note_on_c, 13, 60, 113
14, 106846, Note_off_c, 13, 60, 56
14, 106860, Note_on_c, 13, 60, 113
14, 106905, Note_off_c, 13, 60, 56
14, 106920, Note_on_c, 13, 60, 113
14, 106965, Note_off_c, 13, 60, 56
14, 106979, Note_on_c, 13, 60, 113
14, 107024, Note_off_c, 13, 60, 56
14, 107039, Note_on_c, 13, 60, 113
14, 107084, Note_off_c, 13, 60, 56
14, 107102, Note_on_c, 13, 60, 113
14, 107147, Note_off_c, 13, 60, 56
14, 107162, Note_on_c, 13, 60, 113
14, 107207, Note_off_c, 13, 60, 56
14, 107218, Note_on_c, 13, 60, 113
14, 107263, Note_off_c, 13, 60, 56
14, 107278, Note_on_c, 13, 60, 113
14, 107323, Note_off_c, 13, 60, 56
14, 107340, Note_on_c, 13, 60, 113
14, 107385, Note_off_c, 13, 60, 56
14, 107399, Note_on_c, 13, 60, 113
14, 107444, Note_off_c, 13, 60, 56
14, 107458, Note_on_c, 13, 60, 113
14, 107503, Note_off_c, 13, 60, 56
14, 107519, Note_on_c, 13, 43, 108
14, 107522, Note_on_c, 13, 59, 113
14, 107567, Note_off_c, 13, 59, 56
14, 107579, Note_on_c, 13, 59, 113
14, 107624, Note_off_c, 13, 59, 56
14, 107640, Note_on_c, 13, 59, 113
14, 107685, Note_off_c, 13, 59, 56
14, 107698, Note_on_c, 13, 59, 113
14, 107743, Note_off_c, 13, 59, 56
14, 107761, Note_on_c, 13, 59, 113
14, 107806, Note_off_c, 13, 59, 56
14, 107822, Note_on_c, 13, 59, 113
14, 107867, Note_off_c, 13, 59, 56
14, 107878, Note_on_c, 13, 59, 113
14, 107923, Note_off_c, 13, 59, 56
14, 107939, Note_on_c, 13, 59, 113
14, 107984, Note_off_c, 13, 59, 56
14, 108001, Note_on_c, 13, 59, 113
14, 108046, Note_off_c, 13, 59, 56
14, 108059, Note_on_c, 13, 59, 113
14, 108095, Note_off_c, 13, 43, 64
14, 108104, Note_off_c, 13, 59, 56
14, 108122, Note_on_c, 13, 59, 113
14, 108122, Note_on_c, 13, 43, 108
14, 108167, Note_off_c, 13, 59, 56
14, 108180, Note_on_c, 13, 59, 113
14, 108213, Note_off_c, 13, 43, 56
14, 108225, Note_off_c, 13, 59, 56
14, 108238, Note_on_c, 13, 59, 113
14, 108238, Note_on_c, 13, 47, 108
14, 108283, Note_off_c, 13, 59, 56
14, 108299, Note_on_c, 13, 59, 113
14, 108306, Note_off_c, 13, 47, 56
14, 108344, Note_off_c, 13, 59, 56
14, 108358, Note_on_c, 13, 59, 113
14, 108361, Note_on_c, 13, 50, 108
14, 108403, Note_off_c, 13, 59, 56
14, 108422, Note_on_c, 13, 59, 113
14, 108429, Note_off_c, 13, 50, 56
14, 108467, Note_off_c, 13, 59, 56
14, 108478, Note_on_c, 13, 59, 113
14, 108481, Note_on_c, 13, 53, 108
14, 108523, Note_off_c, 13, 59, 56
14, 108539, Note_on_c, 13, 59, 113
14, 108549, Note_off_c, 13, 53, 56
14, 108584, Note_off_c, 13, 59, 56
14, 108598, Note_on_c, 13, 55, 108
14, 108600, Note_on_c, 13, 59, 113
14, 108645, Note_off_c, 13, 59, 56
14, 108660, Note_on_c, 13, 59, 113
14, 108666, Note_off_c, 13, 55, 56
14, 108705, Note_off_c, 13, 59, 56
14, 108718, Note_on_c, 13, 59, 113
14, 108763, Note_off_c, 13, 59, 56
14, 108782, Note_on_c, 13, 59, 113
14, 108827, Note_off_c, 13, 59, 56
14, 108840, Note_on_c, 13, 59, 113
14, 108840, Note_on_c, 13, 62, 108
14, 108885, Note_off_c, 13, 59, 56
14, 108902, Note_on_c, 13, 59, 113
14, 108931, Note_off_c, 13, 62, 56
14, 108947, Note_off_c, 13, 59, 56
14, 108959, Note_on_c, 13, 59, 113
14, 108959, Note_on_c, 13, 65, 108
14, 109004, Note_off_c, 13, 59, 56
14, 109020, Note_on_c, 13, 59, 113
14, 109050, Note_off_c, 13, 65, 56
14, 109065, Note_off_c, 13, 59, 56
14, 109080, Note_on_c, 13, 67, 108
14, 109082, Note_on_c, 13, 59, 113
14, 109127, Note_off_c, 13, 59, 56
14, 109142, Note_on_c, 13, 59, 113
14, 109171, Note_off_c, 13, 67, 56
14, 109187, Note_off_c, 13, 59, 56
14, 109198, Note_on_c, 13, 59, 113
14, 109200, Note_on_c, 13, 65, 108
14, 109243, Note_off_c, 13, 59, 56
14, 109261, Note_on_c, 13, 59, 113
14, 109291, Note_off_c, 13, 65, 56
14, 109306, Note_off_c, 13, 59, 56
14, 109319, Note_on_c, 13, 59, 113
14, 109322, Note_on_c, 13, 62, 108
14, 109364, Note_off_c, 13, 59, 56
14, 109378, Note_on_c, 13, 59, 113
14, 109413, Note_off_c, 13, 62, 56
14, 109423, Note_off_c, 13, 59, 56
14, 109441, Note_on_c, 13, 59, 108
14, 109498, Note_on_c, 13, 59, 113
14, 109532, Note_off_c, 13, 59, 56
14, 109543, Note_off_c, 13, 59, 56
14, 109560, Note_on_c, 13, 59, 113
14, 109560, Note_on_c, 13, 62, 108
14, 109605, Note_off_c, 13, 59, 56
14, 109620, Note_on_c, 13, 59, 113
14, 109651, Note_off_c, 13, 62, 56
14, 109665, Note_off_c, 13, 59, 56
14, 109680, Note_on_c, 13, 59, 113
14, 109725, Note_off_c, 13, 59, 56
14, 109742, Note_on_c, 13, 59, 113
14, 109787, Note_off_c, 13, 59, 56
14, 109801, Note_on_c, 13, 59, 113
14, 109801, Note_on_c, 13, 55, 108
14, 109846, Note_off_c, 13, 59, 56
14, 109859, Note_on_c, 13, 59, 113
14, 109892, Note_off_c, 13, 55, 56
14, 109904, Note_off_c, 13, 59, 56
14, 109919, Note_on_c, 13, 53, 108
14, 109920, Note_on_c, 13, 59, 113
14, 109965, Note_off_c, 13, 59, 56
14, 109979, Note_on_c, 13, 59, 113
14, 110010, Note_off_c, 13, 53, 56
14, 110024, Note_off_c, 13, 59, 56
14, 110040, Note_on_c, 13, 59, 113
14, 110041, Note_on_c, 13, 50, 108
14, 110085, Note_off_c, 13, 59, 56
14, 110101, Note_on_c, 13, 59, 113
14, 110132, Note_off_c, 13, 50, 56
14, 110146, Note_off_c, 13, 59, 56
14, 110160, Note_on_c, 13, 47, 108
14, 110161, Note_on_c, 13, 59, 113
14, 110206, Note_off_c, 13, 59, 56
14, 110218, Note_on_c, 13, 59, 113
14, 110251, Note_off_c, 13, 47, 56
14, 110263, Note_off_c, 13, 59, 56
14, 110278, Note_on_c, 13, 50, 108
14, 110281, Note_on_c, 13, 59, 113
14, 110326, Note_off_c, 13, 59, 56
14, 110340, Note_on_c, 13, 59, 113
14, 110369, Note_off_c, 13, 50, 56
14, 110385, Note_off_c, 13, 59, 56
14, 110398, Note_on_c, 13, 43, 108
14, 110400, Note_on_c, 13, 59, 113
14, 110445, Note_off_c, 13, 59, 56
14, 110462, Note_on_c, 13, 59, 113
14, 110507, Note_off_c, 13, 59, 56
14, 110522, Note_on_c, 13, 59, 113
14, 110567, Note_off_c, 13, 59, 56
14, 110580, Note_off_c, 13, 43, 64
14, 110580, Note_on_c, 13, 59, 113
14, 110625, Note_off_c, 13, 59, 56
14, 110641, Note_on_c, 13, 59, 113
14, 110686, Note_off_c, 13, 59, 56
14, 110702, Note_on_c, 13, 59, 113
14, 110747, Note_off_c, 13, 59, 56
14, 110761, Note_on_c, 13, 59, 113
14, 110806, Note_off_c, 13, 59, 56
14, 110822, Note_on_c, 13, 59, 113
14, 110867, Note_off_c, 13, 59, 56
14, 110882, Note_on_c, 13, 59, 113
14, 110927, Note_off_c, 13, 59, 56
14, 110942, Note_on_c, 13, 59, 113
14, 110987, Note_off_c, 13, 59, 56
14, 111001, Note_on_c, 13, 59, 113
14, 111046, Note_off_c, 13, 59, 56
14, 111060, Note_on_c, 13, 59, 113
14, 111105, Note_off_c, 13, 59, 56
14, 111119, Note_on_c, 13, 59, 113
14, 111164, Note_off_c, 13, 59, 56
14, 111181, Note_on_c, 13, 59, 113
14, 111226, Note_off_c, 13, 59, 56
14, 111242, Note_on_c, 13, 59, 113
14, 111287, Note_off_c, 13, 59, 56
14, 111298, Note_on_c, 13, 59, 113
14, 111343, Note_off_c, 13, 59, 56
14, 111358, Note_on_c, 13, 60, 113
14, 111359, Note_on_c, 13, 36, 108
14, 111403, Note_off_c, 13, 60, 56
14, 111419, Note_on_c, 13, 60, 113
14, 111464, Note_off_c, 13, 60, 56
14, 111480, Note_on_c, 13, 60, 113
14, 111525, Note_off_c, 13, 60, 56
14, 111540, Note_on_c, 13, 60, 113
14, 111585, Note_off_c, 13, 60, 56
14, 111601, Note_on_c, 13, 60, 113
14, 111646, Note_off_c, 13, 60, 56
14, 111661, Note_on_c, 13, 60, 113
14, 111706, Note_off_c, 13, 60, 56
14, 111719, Note_on_c, 13, 60, 113
14, 111764, Note_off_c, 13, 60, 56
14, 111782, Note_on_c, 13, 60, 113
14, 111827, Note_off_c, 13, 60, 56
14, 111841, Note_on_c, 13, 60, 113
14, 111886, Note_off_c, 13, 60, 56
14, 111901, Note_on_c, 13, 60, 113
14, 111935, Note_off_c, 13, 36, 64
14, 111946, Note_off_c, 13, 60, 56
14, 111959, Note_on_c, 13, 60, 113
14, 111962, Note_on_c, 13, 36, 108
14, 112004, Note_off_c, 13, 60, 56
14, 112018, Note_on_c, 13, 60, 113
14, 112053, Note_off_c, 13, 36, 56
14, 112063, Note_off_c, 13, 60, 56
14, 112078, Note_on_c, 13, 40, 108
14, 112079, Note_on_c, 13, 60, 113
14, 112124, Note_off_c, 13, 60, 56
14, 112138, Note_on_c, 13, 60, 113
14, 112169, Note_off_c, 13, 40, 56
14, 112183, Note_off_c, 13, 60, 56
14, 112199, Note_on_c, 13, 60, 113
14, 112200, Note_on_c, 13, 43, 108
14, 112244, Note_off_c, 13, 60, 56
14, 112259, Note_on_c, 13, 60, 113
14, 112291, Note_off_c, 13, 43, 56
14, 112304, Note_off_c, 13, 60, 56
14, 112319, Note_on_c, 13, 48, 108
14, 112321, Note_on_c, 13, 60, 113
14, 112366, Note_off_c, 13, 60, 56
14, 112382, Note_on_c, 13, 60, 113
14, 112410, Note_off_c, 13, 48, 56
14, 112427, Note_off_c, 13, 60, 56
14, 112441, Note_on_c, 13, 52, 108
14, 112441, Note_on_c, 13, 60, 113
14, 112486, Note_off_c, 13, 60, 56
14, 112502, Note_on_c, 13, 60, 113
14, 112532, Note_off_c, 13, 52, 56
14, 112547, Note_off_c, 13, 60, 56
14, 112558, Note_on_c, 13, 55, 108
14, 112561, Note_on_c, 13, 60, 113
14, 112606, Note_off_c, 13, 60, 56
14, 112619, Note_on_c, 13, 60, 113
14, 112649, Note_off_c, 13, 55, 56
14, 112664, Note_off_c, 13, 60, 56
14, 112680, Note_on_c, 13, 60, 113
14, 112725, Note_off_c, 13, 60, 56
14, 112738, Note_on_c, 13, 60, 113
14, 112783, Note_off_c, 13, 60, 56
14, 112798, Note_on_c, 13, 64, 108
14, 112802, Note_on_c, 13, 60, 113
14, 112847, Note_off_c, 13, 60, 56
14, 112859, Note_on_c, 13, 60, 113
14, 112889, Note_off_c, 13, 64, 56
14, 112904, Note_off_c, 13, 60, 56
14, 112920, Note_on_c, 13, 60, 113
14, 112965, Note_off_c, 13, 60, 56
14, 112982, Note_on_c, 13, 60, 113
14, 113027, Note_off_c, 13, 60, 56
14, 113038, Note_on_c, 13, 60, 113
14, 113038, Note_on_c, 13, 55, 108
14, 113083, Note_off_c, 13, 60, 56
14, 113099, Note_on_c, 13, 60, 113
14, 113129, Note_off_c, 13, 55, 56
14, 113144, Note_off_c, 13, 60, 56
14, 113158, Note_on_c, 13, 60, 113
14, 113161, Note_on_c, 13, 52, 108
14, 113203, Note_off_c, 13, 60, 56
14, 113218, Note_on_c, 13, 60, 113
14, 113252, Note_off_c, 13, 52, 56
14, 113263, Note_off_c, 13, 60, 56
14, 113278, Note_on_c, 13, 48, 108
14, 113278, Note_on_c, 13, 55, 108
14, 113282, Note_on_c, 13, 72, 108
14, 113282, Note_on_c, 13, 64, 108
14, 113369, Note_off_c, 13, 48, 56
14, 113402, Note_on_c, 13, 47, 108
14, 113460, Note_off_c, 13, 55, 64
14, 113464, Note_off_c, 13, 64, 64
14, 113464, Note_off_c, 13, 72, 64
14, 113493, Note_off_c, 13, 47, 56
14, 113519, Note_on_c, 13, 48, 108
14, 113610, Note_off_c, 13, 48, 56
14, 113642, Note_on_c, 13, 48, 108
14, 113733, Note_off_c, 13, 48, 56
14, 113761, Note_on_c, 13, 48, 108
14, 113999, Note_on_c, 13, 60, 108
14, 114215, Note_off_c, 13, 60, 64
14, 114239, Note_on_c, 13, 64, 108
14, 114337, Note_off_c, 13, 48, 64
14, 114359, Note_on_c, 13, 47, 74
14, 114450, Note_off_c, 13, 47, 56
14, 114455, Note_off_c, 13, 64, 64
14, 114481, Note_on_c, 13, 60, 108
14, 114481, Note_on_c, 13, 48, 71
14, 114572, Note_off_c, 13, 48, 56
14, 114602, Note_on_c, 13, 48, 71
14, 114693, Note_off_c, 13, 48, 56
14, 114697, Note_off_c, 13, 60, 64
14, 114720, Note_on_c, 13, 48, 71
14, 114721, Note_on_c, 13, 67, 108
14, 114937, Note_off_c, 13, 67, 64
14, 114959, Note_on_c, 13, 66, 108
14, 115121, Note_off_c, 13, 66, 64
14, 115142, Note_on_c, 13, 64, 113
14, 115187, Note_off_c, 13, 64, 56
14, 115198, Note_on_c, 13, 66, 108
14, 115198, Note_on_c, 13, 49, 108
14, 115289, Note_off_c, 13, 49, 56
14, 115296, Note_off_c, 13, 48, 64
14, 115322, Note_on_c, 13, 50, 108
14, 115413, Note_off_c, 13, 50, 56
14, 115438, Note_on_c, 13, 50, 108
14, 115529, Note_off_c, 13, 50, 56
14, 115559, Note_on_c, 13, 50, 108
14, 115774, Note_off_c, 13, 66, 64
14, 115922, Note_on_c, 13, 60, 108
14, 116138, Note_off_c, 13, 60, 64
14, 116161, Note_on_c, 13, 66, 108
14, 116255, Note_off_c, 13, 50, 64
14, 116281, Note_on_c, 13, 49, 108
14, 116372, Note_off_c, 13, 49, 56
14, 116377, Note_off_c, 13, 66, 64
14, 116399, Note_on_c, 13, 50, 108
14, 116402, Note_on_c, 13, 60, 108
14, 116490, Note_off_c, 13, 50, 56
14, 116522, Note_on_c, 13, 50, 108
14, 116613, Note_off_c, 13, 50, 56
14, 116618, Note_off_c, 13, 60, 64
14, 116640, Note_on_c, 13, 50, 108
14, 116642, Note_on_c, 13, 69, 108
14, 116858, Note_off_c, 13, 69, 64
14, 116882, Note_on_c, 13, 67, 108
14, 117044, Note_off_c, 13, 67, 64
14, 117058, Note_on_c, 13, 66, 113
14, 117103, Note_off_c, 13, 66, 56
14, 117120, Note_on_c, 13, 67, 108
14, 117216, Note_off_c, 13, 50, 64
14, 117240, Note_on_c, 13, 49, 108
14, 117331, Note_off_c, 13, 49, 56
14, 117336, Note_off_c, 13, 67, 64
14, 117360, Note_on_c, 13, 62, 108
14, 117361, Note_on_c, 13, 50, 108
14, 117452, Note_off_c, 13, 50, 56
14, 117480, Note_on_c, 13, 50, 108
14, 117571, Note_off_c, 13, 50, 56
14, 117576, Note_off_c, 13, 62, 64
14, 117599, Note_on_c, 13, 50, 108
14, 117600, Note_on_c, 13, 71, 108
14, 117816, Note_off_c, 13, 71, 64
14, 117838, Note_on_c, 13, 69, 108
14, 118000, Note_off_c, 13, 69, 64
14, 118022, Note_on_c, 13, 67, 113
14, 118076, Note_off_c, 13, 67, 56
14, 118079, Note_on_c, 13, 66, 108
14, 118175, Note_off_c, 13, 50, 64
14, 118199, Note_on_c, 13, 49, 108
14, 118290, Note_off_c, 13, 49, 56
14, 118319, Note_on_c, 13, 50, 108
14, 118367, Note_off_c, 13, 66, 64
14, 118410, Note_off_c, 13, 50, 56
14, 118441, Note_on_c, 13, 50, 108
14, 118442, Note_on_c, 13, 62, 108
14, 118532, Note_off_c, 13, 50, 56
14, 118533, Note_off_c, 13, 62, 56
14, 118558, Note_on_c, 13, 50, 108
14, 118560, Note_on_c, 13, 69, 108
14, 118649, Note_off_c, 13, 50, 56
14, 118681, Note_on_c, 13, 49, 108
14, 118772, Note_off_c, 13, 49, 56
14, 118798, Note_on_c, 13, 50, 108
14, 118889, Note_off_c, 13, 50, 56
14, 118902, Note_off_c, 13, 69, 64
14, 118920, Note_on_c, 13, 50, 108
14, 118922, Note_on_c, 13, 67, 113
14, 118976, Note_off_c, 13, 67, 56
14, 118979, Note_on_c, 13, 66, 113
14, 119011, Note_off_c, 13, 50, 56
14, 119033, Note_off_c, 13, 66, 56
14, 119038, Note_on_c, 13, 67, 108
14, 119041, Note_on_c, 13, 50, 108
14, 119132, Note_off_c, 13, 50, 56
14, 119161, Note_on_c, 13, 49, 108
14, 119252, Note_off_c, 13, 49, 56
14, 119278, Note_on_c, 13, 50, 108
14, 119326, Note_off_c, 13, 67, 64
14, 119369, Note_off_c, 13, 50, 56
14, 119400, Note_on_c, 13, 62, 108
14, 119400, Note_on_c, 13, 50, 108
14, 119491, Note_off_c, 13, 50, 56
14, 119491, Note_off_c, 13, 62, 56
14, 119520, Note_on_c, 13, 50, 108
14, 119521, Note_on_c, 13, 71, 108
14, 119611, Note_off_c, 13, 50, 56
14, 119639, Note_on_c, 13, 49, 108
14, 119730, Note_off_c, 13, 49, 56
14, 119761, Note_on_c, 13, 50, 108
14, 119852, Note_off_c, 13, 50, 56
14, 119863, Note_off_c, 13, 71, 64
14, 119881, Note_on_c, 13, 50, 108
14, 119881, Note_on_c, 13, 69, 113
14, 119935, Note_off_c, 13, 69, 56
14, 119941, Note_on_c, 13, 67, 113
14, 119972, Note_off_c, 13, 50, 56
14, 119986, Note_off_c, 13, 67, 56
14, 119999, Note_on_c, 13, 74, 108
14, 119999, Note_on_c, 13, 86, 108
14, 120000, Note_on_c, 13, 50, 108
14, 120091, Note_off_c, 13, 50, 56
14, 120121, Note_on_c, 13, 62, 108
14, 120212, Note_off_c, 13, 62, 56
14, 120241, Note_on_c, 13, 60, 108
14, 120332, Note_off_c, 13, 60, 56
14, 120361, Note_on_c, 13, 59, 108
14, 120429, Note_off_c, 13, 59, 56
14, 120479, Note_on_c, 13, 57, 108
14, 120547, Note_off_c, 13, 57, 56
14, 120575, Note_off_c, 13, 86, 64
14, 120575, Note_off_c, 13, 74, 64
14, 120600, Note_on_c, 13, 86, 108
14, 120601, Note_on_c, 13, 59, 108
14, 120692, Note_off_c, 13, 59, 56
14, 120708, Note_off_c, 13, 86, 56
14, 120720, Note_on_c, 13, 84, 108
14, 120721, Note_on_c, 13, 57, 108
14, 120811, Note_off_c, 13, 84, 56
14, 120812, Note_off_c, 13, 57, 56
14, 120838, Note_on_c, 13, 83, 108
14, 120840, Note_on_c, 13, 55, 108
14, 120906, Note_off_c, 13, 83, 56
14, 120931, Note_off_c, 13, 55, 56
14, 120959, Note_on_c, 13, 54, 108
14, 120961, Note_on_c, 13, 81, 108
14, 121027, Note_off_c, 13, 54, 56
14, 121029, Note_off_c, 13, 81, 56
14, 121078, Note_on_c, 13, 55, 108
14, 121082, Note_on_c, 13, 83, 108
14, 121169, Note_off_c, 13, 55, 56
14, 121190, Note_off_c, 13, 83, 56
14, 121201, Note_on_c, 13, 54, 108
14, 121201, Note_on_c, 13, 81, 108
14, 121292, Note_off_c, 13, 81, 56
14, 121292, Note_off_c, 13, 54, 56
14, 121318, Note_on_c, 13, 79, 108
14, 121322, Note_on_c, 13, 52, 108
14, 121386, Note_off_c, 13, 79, 56
14, 121390, Note_off_c, 13, 52, 56
14, 121438, Note_on_c, 13, 78, 108
14, 121442, Note_on_c, 13, 50, 108
14, 121506, Note_off_c, 13, 78, 56
14, 121510, Note_off_c, 13, 50, 56
14, 121558, Note_on_c, 13, 66, 108
14, 121560, Note_on_c, 13, 50, 108
14, 121651, Note_off_c, 13, 50, 56
14, 121666, Note_off_c, 13, 66, 56
14, 121680, Note_on_c, 13, 67, 108
14, 121682, Note_on_c, 13, 52, 108
14, 121773, Note_off_c, 13, 52, 56
14, 121788, Note_off_c, 13, 67, 56
14, 121800, Note_on_c, 13, 45, 108
14, 121802, Note_on_c, 13, 61, 108
14, 121868, Note_off_c, 13, 45, 56
14, 121870, Note_off_c, 13, 61, 56
14, 121918, Note_on_c, 13, 50, 108
14, 121921, Note_on_c, 13, 62, 108
14, 122009, Note_off_c, 13, 50, 56
14, 122012, Note_off_c, 13, 62, 56
14, 123002, Note_on_c, 13, 50, 108
14, 123093, Note_off_c, 13, 50, 56
14, 123120, Note_on_c, 13, 48, 108
14, 123211, Note_off_c, 13, 48, 56
14, 123239, Note_on_c, 13, 57, 108
14, 123307, Note_off_c, 13, 57, 56
14, 123359, Note_on_c, 13, 48, 108
14, 123450, Note_off_c, 13, 48, 56
14, 123480, Note_on_c, 13, 47, 108
14, 123571, Note_off_c, 13, 47, 56
14, 123599, Note_on_c, 13, 57, 113
14, 123601, Note_on_c, 13, 45, 108
14, 123659, Note_off_c, 13, 57, 56
14, 123676, Note_on_c, 13, 59, 108
14, 123692, Note_off_c, 13, 45, 56
14, 123721, Note_on_c, 13, 54, 108
14, 123748, Note_off_c, 13, 59, 56
14, 123751, Note_on_c, 13, 60, 108
14, 123812, Note_off_c, 13, 54, 56
14, 123823, Note_off_c, 13, 60, 56
14, 123838, Note_on_c, 13, 62, 113
14, 123840, Note_on_c, 13, 43, 108
14, 123898, Note_off_c, 13, 62, 56
14, 123916, Note_on_c, 13, 59, 113
14, 123976, Note_off_c, 13, 59, 56
14, 124007, Note_on_c, 13, 62, 113
14, 124022, Note_off_c, 13, 43, 64
14, 124067, Note_off_c, 13, 62, 56
14, 124079, Note_on_c, 13, 62, 113
14, 124139, Note_off_c, 13, 62, 56
14, 124157, Note_on_c, 13, 62, 113
14, 124217, Note_off_c, 13, 62, 56
14, 124228, Note_on_c, 13, 62, 113
14, 124288, Note_off_c, 13, 62, 56
14, 124319, Note_on_c, 13, 60, 113
14, 124322, Note_on_c, 13, 43, 108
14, 124379, Note_off_c, 13, 60, 56
14, 124393, Note_on_c, 13, 64, 113
14, 124453, Note_off_c, 13, 64, 56
14, 124484, Note_on_c, 13, 64, 113
14, 124504, Note_off_c, 13, 43, 64
14, 124544, Note_off_c, 13, 64, 56
14, 124560, Note_on_c, 13, 64, 113
14, 124620, Note_off_c, 13, 64, 56
14, 124636, Note_on_c, 13, 64, 113
14, 124696, Note_off_c, 13, 64, 56
14, 124723, Note_on_c, 13, 64, 113
14, 124783, Note_off_c, 13, 64, 56
14, 124800, Note_on_c, 13, 59, 113
14, 124800, Note_on_c, 13, 43, 108
14, 124860, Note_off_c, 13, 59, 56
14, 124873, Note_on_c, 13, 62, 113
14, 124933, Note_off_c, 13, 62, 56
14, 124963, Note_on_c, 13, 62, 113
14, 124982, Note_off_c, 13, 43, 64
14, 125023, Note_off_c, 13, 62, 56
14, 125038, Note_on_c, 13, 62, 113
14, 125042, Note_on_c, 13, 50, 113
14, 125098, Note_off_c, 13, 62, 56
14, 125102, Note_off_c, 13, 50, 56
14, 125113, Note_on_c, 13, 52, 113
14, 125116, Note_on_c, 13, 62, 113
14, 125173, Note_off_c, 13, 52, 56
14, 125176, Note_off_c, 13, 62, 56
14, 125191, Note_on_c, 13, 54, 113
14, 125204, Note_on_c, 13, 62, 113
14, 125251, Note_off_c, 13, 54, 56
14, 125264, Note_off_c, 13, 62, 56
14, 125280, Note_on_c, 13, 55, 108
14, 125282, Note_on_c, 13, 62, 108
14, 125462, Note_off_c, 13, 55, 64
14, 125464, Note_off_c, 13, 62, 64
14, 125521, Note_on_c, 13, 55, 73
14, 125522, Note_on_c, 13, 59, 73
14, 125594, Note_off_c, 13, 59, 56
14, 125597, Note_on_c, 13, 60, 73
14, 125669, Note_off_c, 13, 60, 56
14, 125685, Note_on_c, 13, 62, 73
14, 125703, Note_off_c, 13, 55, 64
14, 125757, Note_off_c, 13, 62, 56
14, 125762, Note_on_c, 13, 60, 73
14, 125762, Note_on_c, 13, 54, 73
14, 125978, Note_off_c, 13, 60, 64
14, 125999, Note_on_c, 13, 57, 73
14, 126071, Note_off_c, 13, 57, 56
14, 126074, Note_on_c, 13, 59, 73
14, 126146, Note_off_c, 13, 59, 56
14, 126146, Note_off_c, 13, 54, 64
14, 126148, Note_on_c, 13, 60, 73
14, 126220, Note_off_c, 13, 60, 56
14, 126238, Note_on_c, 13, 59, 73
14, 126242, Note_on_c, 13, 55, 73
14, 126454, Note_off_c, 13, 59, 64
14, 126480, Note_on_c, 13, 55, 73
14, 126552, Note_off_c, 13, 55, 56
14, 126553, Note_on_c, 13, 57, 73
14, 126625, Note_off_c, 13, 57, 56
14, 126626, Note_off_c, 13, 55, 64
14, 126647, Note_on_c, 13, 59, 73
14, 126718, Note_on_c, 13, 57, 73
14, 126719, Note_off_c, 13, 59, 56
14, 126719, Note_on_c, 13, 60, 73
14, 126900, Note_off_c, 13, 57, 64
14, 126901, Note_off_c, 13, 60, 64
14, 126958, Note_on_c, 13, 66, 80
14, 126962, Note_on_c, 13, 54, 79
14, 127022, Note_off_c, 13, 54, 56
14, 127030, Note_off_c, 13, 66, 56
14, 127034, Note_on_c, 13, 67, 82
14, 127036, Note_on_c, 13, 55, 83
14, 127096, Note_off_c, 13, 55, 56
14, 127106, Note_off_c, 13, 67, 56
14, 127109, Note_on_c, 13, 57, 86
14, 127125, Note_on_c, 13, 69, 90
14, 127169, Note_off_c, 13, 57, 56
14, 127185, Note_off_c, 13, 69, 56
14, 127199, Note_on_c, 13, 62, 87
14, 127199, Note_on_c, 13, 50, 85
14, 127381, Note_off_c, 13, 50, 64
14, 127381, Note_off_c, 13, 62, 64
14, 127441, Note_on_c, 13, 48, 95
14, 127442, Note_on_c, 13, 60, 95
14, 127501, Note_off_c, 13, 48, 56
14, 127502, Note_off_c, 13, 60, 56
14, 127513, Note_on_c, 13, 59, 95
14, 127517, Note_on_c, 13, 47, 95
14, 127573, Note_off_c, 13, 59, 56
14, 127577, Note_off_c, 13, 47, 56
14, 127589, Note_on_c, 13, 45, 95
14, 127605, Note_on_c, 13, 57, 95
14, 127649, Note_off_c, 13, 45, 56
14, 127665, Note_off_c, 13, 57, 56
14, 127678, Note_on_c, 13, 43, 90
14, 127682, Note_on_c, 13, 67, 95
14, 127742, Note_off_c, 13, 67, 56
14, 127754, Note_on_c, 13, 79, 95
14, 127814, Note_off_c, 13, 79, 56
14, 127828, Note_on_c, 13, 79, 95
14, 127860, Note_off_c, 13, 43, 64
14, 127888, Note_off_c, 13, 79, 56
14, 127920, Note_on_c, 13, 79, 95
14, 127980, Note_off_c, 13, 79, 56
14, 127996, Note_on_c, 13, 78, 95
14, 128056, Note_off_c, 13, 78, 56
14, 128087, Note_on_c, 13, 77, 95
14, 128147, Note_off_c, 13, 77, 56
14, 128158, Note_on_c, 13, 43, 90
14, 128160, Note_on_c, 13, 76, 95
14, 128220, Note_off_c, 13, 76, 56
14, 128234, Note_on_c, 13, 76, 95
14, 128294, Note_off_c, 13, 76, 56
14, 128310, Note_on_c, 13, 76, 95
14, 128340, Note_off_c, 13, 43, 64
14, 128370, Note_off_c, 13, 76, 56
14, 128401, Note_on_c, 13, 76, 95
14, 128461, Note_off_c, 13, 76, 56
14, 128474, Note_on_c, 13, 74, 95
14, 128534, Note_off_c, 13, 74, 56
14, 128567, Note_on_c, 13, 72, 95
14, 128627, Note_off_c, 13, 72, 56
14, 128638, Note_on_c, 13, 43, 90
14, 128639, Note_on_c, 13, 74, 95
14, 128699, Note_off_c, 13, 74, 56
14, 128713, Note_on_c, 13, 62, 95
14, 128773, Note_off_c, 13, 62, 56
14, 128806, Note_on_c, 13, 62, 95
14, 128820, Note_off_c, 13, 43, 64
14, 128866, Note_off_c, 13, 62, 56
14, 128880, Note_on_c, 13, 50, 95
14, 128882, Note_on_c, 13, 62, 95
14, 128940, Note_off_c, 13, 50, 56
14, 128942, Note_off_c, 13, 62, 56
14, 128953, Note_on_c, 13, 52, 95
14, 128954, Note_on_c, 13, 62, 95
14, 129013, Note_off_c, 13, 52, 56
14, 129014, Note_off_c, 13, 62, 56
14, 129029, Note_on_c, 13, 62, 95
14, 129043, Note_on_c, 13, 54, 95
14, 129089, Note_off_c, 13, 62, 56
14, 129103, Note_off_c, 13, 54, 56
14, 129119, Note_on_c, 13, 55, 90
14, 129119, Note_on_c, 13, 62, 90
14, 129301, Note_off_c, 13, 62, 64
14, 129301, Note_off_c, 13, 55, 64
14, 129358, Note_on_c, 13, 55, 73
14, 129361, Note_on_c, 13, 59, 73
14, 129433, Note_off_c, 13, 59, 56
14, 129433, Note_on_c, 13, 60, 73
14, 129505, Note_off_c, 13, 60, 56
14, 129525, Note_on_c, 13, 62, 73
14, 129540, Note_off_c, 13, 55, 64
14, 129597, Note_off_c, 13, 62, 56
14, 129598, Note_on_c, 13, 60, 73
14, 129601, Note_on_c, 13, 54, 73
14, 129814, Note_off_c, 13, 60, 64
14, 129839, Note_on_c, 13, 57, 73
14, 129911, Note_off_c, 13, 57, 56
14, 129916, Note_on_c, 13, 59, 73
14, 129985, Note_off_c, 13, 54, 64
14, 129988, Note_off_c, 13, 59, 56
14, 130007, Note_on_c, 13, 60, 73
14, 130078, Note_on_c, 13, 55, 73
14, 130079, Note_off_c, 13, 60, 56
14, 130079, Note_on_c, 13, 59, 73
14, 130295, Note_off_c, 13, 59, 64
14, 130318, Note_on_c, 13, 55, 73
14, 130390, Note_off_c, 13, 55, 56
14, 130395, Note_on_c, 13, 57, 73
14, 130462, Note_off_c, 13, 55, 64
14, 130467, Note_off_c, 13, 57, 56
14, 130472, Note_on_c, 13, 59, 73
14, 130544, Note_off_c, 13, 59, 56
14, 130559, Note_on_c, 13, 57, 90
14, 130559, Note_on_c, 13, 60, 73
14, 130741, Note_off_c, 13, 60, 64
14, 130741, Note_off_c, 13, 57, 64
14, 130799, Note_on_c, 13, 50, 95
14, 130799, Note_on_c, 13, 62, 95
14, 130859, Note_off_c, 13, 62, 56
14, 130859, Note_off_c, 13, 50, 56
14, 130875, Note_on_c, 13, 64, 95
14, 130875, Note_on_c, 13, 52, 95
14, 130935, Note_off_c, 13, 52, 56
14, 130935, Note_off_c, 13, 64, 56
14, 130949, Note_on_c, 13, 66, 95
14, 130950, Note_on_c, 13, 54, 95
14, 131009, Note_off_c, 13, 66, 56
14, 131010, Note_off_c, 13, 54, 56
14, 131038, Note_on_c, 13, 67, 90
14, 131040, Note_on_c, 13, 55, 90
14, 131220, Note_off_c, 13, 67, 64
14, 131222, Note_off_c, 13, 55, 64
14, 131279, Note_on_c, 13, 60, 73
14, 131279, Note_on_c, 13, 57, 73
14, 131351, Note_off_c, 13, 60, 56
14, 131355, Note_on_c, 13, 62, 73
14, 131427, Note_off_c, 13, 62, 56
14, 131430, Note_on_c, 13, 64, 73
14, 131461, Note_off_c, 13, 57, 64
14, 131502, Note_off_c, 13, 64, 56
14, 131518, Note_on_c, 13, 62, 73
14, 131518, Note_on_c, 13, 56, 73
14, 131734, Note_off_c, 13, 62, 64
14, 131759, Note_on_c, 13, 59, 73
14, 131831, Note_off_c, 13, 59, 56
14, 131833, Note_on_c, 13, 60, 73
14, 131902, Note_off_c, 13, 56, 64
14, 131905, Note_off_c, 13, 60, 56
14, 131925, Note_on_c, 13, 62, 73
14, 131997, Note_off_c, 13, 62, 56
14, 131999, Note_on_c, 13, 57, 73
14, 132002, Note_on_c, 13, 60, 73
14, 132218, Note_off_c, 13, 60, 64
14, 132240, Note_on_c, 13, 57, 73
14, 132312, Note_off_c, 13, 57, 56
14, 132314, Note_on_c, 13, 59, 73
14, 132383, Note_off_c, 13, 57, 64
14, 132386, Note_off_c, 13, 59, 56
14, 132405, Note_on_c, 13, 60, 73
14, 132477, Note_off_c, 13, 60, 56
14, 132478, Note_on_c, 13, 62, 73
14, 132481, Note_on_c, 13, 59, 73
14, 132660, Note_off_c, 13, 62, 64
14, 132663, Note_off_c, 13, 59, 64
14, 132719, Note_on_c, 13, 64, 95
14, 132721, Note_on_c, 13, 52, 95
14, 132779, Note_off_c, 13, 64, 56
14, 132781, Note_off_c, 13, 52, 56
14, 132794, Note_on_c, 13, 66, 95
14, 132796, Note_on_c, 13, 54, 95
14, 132854, Note_off_c, 13, 66, 56
14, 132856, Note_off_c, 13, 54, 56
14, 132869, Note_on_c, 13, 68, 95
14, 132871, Note_on_c, 13, 56, 95
14, 132929, Note_off_c, 13, 68, 56
14, 132931, Note_off_c, 13, 56, 56
14, 132958, Note_on_c, 13, 57, 90
14, 132959, Note_on_c, 13, 69, 90
14, 133140, Note_off_c, 13, 57, 64
14, 133141, Note_off_c, 13, 69, 64
14, 133201, Note_on_c, 13, 67, 56
14, 133202, Note_on_c, 13, 48, 56
14, 133273, Note_off_c, 13, 67, 56
14, 133275, Note_on_c, 13, 65, 56
14, 133347, Note_off_c, 13, 65, 56
14, 133366, Note_on_c, 13, 64, 56
14, 133384, Note_off_c, 13, 48, 64
14, 133438, Note_off_c, 13, 64, 56
14, 133441, Note_on_c, 13, 62, 56
14, 133442, Note_on_c, 13, 47, 56
14, 133657, Note_off_c, 13, 62, 64
14, 133682, Note_on_c, 13, 65, 56
14, 133754, Note_off_c, 13, 65, 56
14, 133756, Note_on_c, 13, 64, 56
14, 133826, Note_off_c, 13, 47, 64
14, 133828, Note_off_c, 13, 64, 56
14, 133844, Note_on_c, 13, 62, 56
14, 133916, Note_off_c, 13, 62, 56
14, 133918, Note_on_c, 13, 60, 56
14, 133920, Note_on_c, 13, 48, 56
14, 134134, Note_off_c, 13, 60, 64
14, 134161, Note_on_c, 13, 64, 56
14, 134233, Note_off_c, 13, 64, 56
14, 134233, Note_on_c, 13, 62, 56
14, 134304, Note_off_c, 13, 48, 64
14, 134305, Note_off_c, 13, 62, 56
14, 134324, Note_on_c, 13, 60, 56
14, 134396, Note_off_c, 13, 60, 56
14, 134399, Note_on_c, 13, 43, 56
14, 134400, Note_on_c, 13, 59, 61
14, 134445, Note_off_c, 13, 59, 56
14, 134462, Note_on_c, 13, 71, 62
14, 134490, Note_off_c, 13, 43, 56
14, 134507, Note_off_c, 13, 71, 56
14, 134521, Note_on_c, 13, 71, 64
14, 134522, Note_on_c, 13, 55, 59
14, 134566, Note_off_c, 13, 71, 56
14, 134578, Note_on_c, 13, 71, 65
14, 134613, Note_off_c, 13, 55, 56
14, 134623, Note_off_c, 13, 71, 56
14, 134638, Note_on_c, 13, 55, 62
14, 134638, Note_on_c, 13, 71, 67
14, 134683, Note_off_c, 13, 71, 56
14, 134700, Note_on_c, 13, 71, 69
14, 134729, Note_off_c, 13, 55, 56
14, 134745, Note_off_c, 13, 71, 56
14, 134759, Note_on_c, 13, 71, 70
14, 134759, Note_on_c, 13, 55, 65
14, 134804, Note_off_c, 13, 71, 56
14, 134819, Note_on_c, 13, 71, 72
14, 134850, Note_off_c, 13, 55, 56
14, 134864, Note_off_c, 13, 71, 56
14, 134878, Note_on_c, 13, 55, 69
14, 134878, Note_on_c, 13, 71, 74
14, 134923, Note_off_c, 13, 71, 56
14, 134941, Note_on_c, 13, 71, 75
14, 134969, Note_off_c, 13, 55, 56
14, 134986, Note_off_c, 13, 71, 56
14, 135001, Note_on_c, 13, 55, 72
14, 135002, Note_on_c, 13, 71, 77
14, 135047, Note_off_c, 13, 71, 56
14, 135058, Note_on_c, 13, 71, 78
14, 135092, Note_off_c, 13, 55, 56
14, 135103, Note_off_c, 13, 71, 56
14, 135121, Note_on_c, 13, 55, 75
14, 135122, Note_on_c, 13, 71, 80
14, 135167, Note_off_c, 13, 71, 56
14, 135179, Note_on_c, 13, 71, 82
14, 135212, Note_off_c, 13, 55, 56
14, 135224, Note_off_c, 13, 71, 56
14, 135241, Note_on_c, 13, 71, 83
14, 135242, Note_on_c, 13, 55, 79
14, 135286, Note_off_c, 13, 71, 56
14, 135299, Note_on_c, 13, 71, 85
14, 135333, Note_off_c, 13, 55, 56
14, 135344, Note_off_c, 13, 71, 56
14, 135361, Note_on_c, 13, 71, 86
14, 135362, Note_on_c, 13, 55, 81
14, 135406, Note_off_c, 13, 71, 56
14, 135422, Note_on_c, 13, 71, 88
14, 135453, Note_off_c, 13, 55, 56
14, 135467, Note_off_c, 13, 71, 56
14, 135481, Note_on_c, 13, 55, 85
14, 135482, Note_on_c, 13, 71, 90
14, 135527, Note_off_c, 13, 71, 56
14, 135541, Note_on_c, 13, 71, 91
14, 135572, Note_off_c, 13, 55, 56
14, 135586, Note_off_c, 13, 71, 56
14, 135598, Note_on_c, 13, 71, 93
14, 135599, Note_on_c, 13, 55, 88
14, 135643, Note_off_c, 13, 71, 56
14, 135660, Note_on_c, 13, 71, 94
14, 135690, Note_off_c, 13, 55, 56
14, 135705, Note_off_c, 13, 71, 56
14, 135718, Note_on_c, 13, 55, 92
14, 135720, Note_on_c, 13, 71, 97
14, 135765, Note_off_c, 13, 71, 56
14, 135780, Note_on_c, 13, 71, 98
14, 135809, Note_off_c, 13, 55, 56
14, 135825, Note_off_c, 13, 71, 56
14, 135839, Note_on_c, 13, 71, 99
14, 135839, Note_on_c, 13, 55, 95
14, 135884, Note_off_c, 13, 71, 56
14, 135901, Note_on_c, 13, 71, 101
14, 135930, Note_off_c, 13, 55, 56
14, 135946, Note_off_c, 13, 71, 56
14, 135958, Note_on_c, 13, 71, 102
14, 135958, Note_on_c, 13, 55, 98
14, 136003, Note_off_c, 13, 71, 56
14, 136022, Note_on_c, 13, 71, 105
14, 136049, Note_off_c, 13, 55, 56
14, 136067, Note_off_c, 13, 71, 56
14, 136081, Note_on_c, 13, 55, 101
14, 136081, Note_on_c, 13, 71, 106
14, 136126, Note_off_c, 13, 71, 56
14, 136140, Note_on_c, 13, 71, 108
14, 136172, Note_off_c, 13, 55, 56
14, 136185, Note_off_c, 13, 71, 56
14, 136199, Note_on_c, 13, 55, 104
14, 136200, Note_on_c, 13, 71, 109
14, 136245, Note_off_c, 13, 71, 56
14, 136259, Note_on_c, 13, 71, 110
14, 136290, Note_off_c, 13, 55, 56
14, 136304, Note_off_c, 13, 71, 56
14, 136320, Note_on_c, 13, 48, 108
14, 136322, Note_on_c, 13, 72, 113
14, 136367, Note_off_c, 13, 72, 56
14, 136378, Note_on_c, 13, 72, 113
14, 136423, Note_off_c, 13, 72, 56
14, 136439, Note_on_c, 13, 72, 113
14, 136484, Note_off_c, 13, 72, 56
14, 136498, Note_on_c, 13, 72, 113
14, 136543, Note_off_c, 13, 72, 56
14, 136561, Note_on_c, 13, 72, 113
14, 136606, Note_off_c, 13, 72, 56
14, 136620, Note_on_c, 13, 72, 113
14, 136665, Note_off_c, 13, 72, 56
14, 136682, Note_on_c, 13, 72, 113
14, 136727, Note_off_c, 13, 72, 56
14, 136740, Note_on_c, 13, 72, 113
14, 136785, Note_off_c, 13, 72, 56
14, 136802, Note_on_c, 13, 72, 113
14, 136847, Note_off_c, 13, 72, 56
14, 136862, Note_on_c, 13, 60, 113
14, 136896, Note_off_c, 13, 48, 64
14, 136907, Note_off_c, 13, 60, 56
14, 136921, Note_on_c, 13, 62, 113
14, 136922, Note_on_c, 13, 48, 108
14, 136966, Note_off_c, 13, 62, 56
14, 136982, Note_on_c, 13, 64, 113
14, 137013, Note_off_c, 13, 48, 56
14, 137027, Note_off_c, 13, 64, 56
14, 137039, Note_on_c, 13, 48, 108
14, 137040, Note_on_c, 13, 65, 113
14, 137085, Note_off_c, 13, 65, 56
14, 137102, Note_on_c, 13, 67, 113
14, 137130, Note_off_c, 13, 48, 56
14, 137147, Note_off_c, 13, 67, 56
14, 137158, Note_on_c, 13, 48, 108
14, 137159, Note_on_c, 13, 69, 113
14, 137204, Note_off_c, 13, 69, 56
14, 137218, Note_on_c, 13, 71, 113
14, 137249, Note_off_c, 13, 48, 56
14, 137263, Note_off_c, 13, 71, 56
14, 137280, Note_on_c, 13, 72, 113
14, 137282, Note_on_c, 13, 48, 108
14, 137325, Note_off_c, 13, 72, 56
14, 137340, Note_on_c, 13, 60, 113
14, 137373, Note_off_c, 13, 48, 56
14, 137385, Note_off_c, 13, 60, 56
14, 137399, Note_on_c, 13, 48, 108
14, 137400, Note_on_c, 13, 62, 113
14, 137445, Note_off_c, 13, 62, 56
14, 137459, Note_on_c, 13, 64, 113
14, 137490, Note_off_c, 13, 48, 56
14, 137504, Note_off_c, 13, 64, 56
14, 137518, Note_on_c, 13, 65, 113
14, 137521, Note_on_c, 13, 48, 108
14, 137563, Note_off_c, 13, 65, 56
14, 137579, Note_on_c, 13, 67, 113
14, 137612, Note_off_c, 13, 48, 56
14, 137624, Note_off_c, 13, 67, 56
14, 137642, Note_on_c, 13, 69, 113
14, 137642, Note_on_c, 13, 48, 108
14, 137687, Note_off_c, 13, 69, 56
14, 137701, Note_on_c, 13, 71, 113
14, 137733, Note_off_c, 13, 48, 56
14, 137746, Note_off_c, 13, 71, 56
14, 137761, Note_on_c, 13, 72, 113
14, 137762, Note_on_c, 13, 48, 108
14, 137806, Note_off_c, 13, 72, 56
14, 137821, Note_on_c, 13, 64, 113
14, 137853, Note_off_c, 13, 48, 56
14, 137866, Note_off_c, 13, 64, 56
14, 137880, Note_on_c, 13, 48, 108
14, 137881, Note_on_c, 13, 65, 113
14, 137926, Note_off_c, 13, 65, 56
14, 137941, Note_on_c, 13, 67, 113
14, 137971, Note_off_c, 13, 48, 56
14, 137986, Note_off_c, 13, 67, 56
14, 138000, Note_on_c, 13, 48, 108
14, 138001, Note_on_c, 13, 69, 113
14, 138046, Note_off_c, 13, 69, 56
14, 138062, Note_on_c, 13, 71, 113
14, 138091, Note_off_c, 13, 48, 56
14, 138107, Note_off_c, 13, 71, 56
14, 138118, Note_on_c, 13, 48, 108
14, 138120, Note_on_c, 13, 72, 113
14, 138165, Note_off_c, 13, 72, 56
14, 138182, Note_on_c, 13, 74, 113
14, 138209, Note_off_c, 13, 48, 56
14, 138227, Note_off_c, 13, 74, 56
14, 138238, Note_on_c, 13, 48, 108
14, 138239, Note_on_c, 13, 76, 113
14, 138284, Note_off_c, 13, 76, 56
14, 138302, Note_on_c, 13, 74, 113
14, 138329, Note_off_c, 13, 48, 56
14, 138347, Note_off_c, 13, 74, 56
14, 138359, Note_on_c, 13, 76, 113
14, 138361, Note_on_c, 13, 48, 108
14, 138404, Note_off_c, 13, 76, 56
14, 138421, Note_on_c, 13, 77, 113
14, 138452, Note_off_c, 13, 48, 56
14, 138466, Note_off_c, 13, 77, 56
14, 138481, Note_on_c, 13, 49, 108
14, 138482, Note_on_c, 13, 79, 113
14, 138527, Note_off_c, 13, 79, 56
14, 138540, Note_on_c, 13, 79, 113
14, 138572, Note_off_c, 13, 49, 56
14, 138585, Note_off_c, 13, 79, 56
14, 138599, Note_on_c, 13, 79, 113
14, 138599, Note_on_c, 13, 49, 108
14, 138644, Note_off_c, 13, 79, 56
14, 138658, Note_on_c, 13, 79, 113
14, 138690, Note_off_c, 13, 49, 56
14, 138703, Note_off_c, 13, 79, 56
14, 138718, Note_on_c, 13, 50, 108
14, 138722, Note_on_c, 13, 79, 113
14, 138767, Note_off_c, 13, 79, 56
14, 138778, Note_on_c, 13, 79, 113
14, 138809, Note_off_c, 13, 50, 56
14, 138823, Note_off_c, 13, 79, 56
14, 138838, Note_on_c, 13, 79, 113
14, 138838, Note_on_c, 13, 50, 108
14, 138883, Note_off_c, 13, 79, 56
14, 138901, Note_on_c, 13, 79, 113
14, 138929, Note_off_c, 13, 50, 56
14, 138946, Note_off_c, 13, 79, 56
14, 138960, Note_on_c, 13, 79, 113
14, 138960, Note_on_c, 13, 51, 108
14, 139005, Note_off_c, 13, 79, 56
14, 139018, Note_on_c, 13, 79, 113
14, 139051, Note_off_c, 13, 51, 56
14, 139063, Note_off_c, 13, 79, 56
14, 139078, Note_on_c, 13, 51, 108
14, 139080, Note_on_c, 13, 79, 113
14, 139125, Note_off_c, 13, 79, 56
14, 139140, Note_on_c, 13, 79, 113
14, 139169, Note_off_c, 13, 51, 56
14, 139185, Note_off_c, 13, 79, 56
14, 139201, Note_on_c, 13, 52, 108
14, 139201, Note_on_c, 13, 79, 113
14, 139246, Note_off_c, 13, 79, 56
14, 139260, Note_on_c, 13, 79, 113
14, 139292, Note_off_c, 13, 52, 56
14, 139305, Note_off_c, 13, 79, 56
14, 139318, Note_on_c, 13, 78, 113
14, 139320, Note_on_c, 13, 52, 108
14, 139363, Note_off_c, 13, 78, 56
14, 139378, Note_on_c, 13, 76, 113
14, 139411, Note_off_c, 13, 52, 56
14, 139423, Note_off_c, 13, 76, 56
14, 139439, Note_on_c, 13, 74, 113
14, 139442, Note_on_c, 13, 54, 108
14, 139484, Note_off_c, 13, 74, 56
14, 139499, Note_on_c, 13, 72, 113
14, 139533, Note_off_c, 13, 54, 56
14, 139544, Note_off_c, 13, 72, 56
14, 139559, Note_on_c, 13, 54, 108
14, 139562, Note_on_c, 13, 71, 113
14, 139607, Note_off_c, 13, 71, 56
14, 139622, Note_on_c, 13, 69, 113
14, 139650, Note_off_c, 13, 54, 56
14, 139667, Note_off_c, 13, 69, 56
14, 139678, Note_on_c, 13, 67, 113
14, 139680, Note_on_c, 13, 55, 108
14, 139723, Note_off_c, 13, 67, 56
14, 139738, Note_on_c, 13, 66, 113
14, 139771, Note_off_c, 13, 55, 56
14, 139783, Note_off_c, 13, 66, 56
14, 139800, Note_on_c, 13, 43, 108
14, 139802, Note_on_c, 13, 64, 113
14, 139847, Note_off_c, 13, 64, 56
14, 139862, Note_on_c, 13, 62, 113
14, 139891, Note_off_c, 13, 43, 56
14, 139907, Note_off_c, 13, 62, 56
14, 139919, Note_on_c, 13, 60, 113
14, 139920, Note_on_c, 13, 45, 108
14, 139964, Note_off_c, 13, 60, 56
14, 139981, Note_on_c, 13, 59, 113
14, 140011, Note_off_c, 13, 45, 56
14, 140026, Note_off_c, 13, 59, 56
14, 140039, Note_on_c, 13, 47, 108
14, 140042, Note_on_c, 13, 57, 113
14, 140087, Note_off_c, 13, 57, 56
14, 140098, Note_on_c, 13, 55, 113
14, 140130, Note_off_c, 13, 47, 56
14, 140143, Note_off_c, 13, 55, 56
14, 140159, Note_on_c, 13, 69, 108
14, 140160, Note_on_c, 13, 48, 108
14, 140295, Note_off_c, 13, 69, 64
14, 140296, Note_off_c, 13, 48, 64
14, 141118, Note_on_c, 13, 50, 108
14, 141121, Note_on_c, 13, 62, 108
14, 141254, Note_off_c, 13, 50, 64
14, 141257, Note_off_c, 13, 62, 64
14, 142561, Note_on_c, 13, 63, 73
14, 143017, Note_off_c, 13, 63, 64
14, 143040, Note_on_c, 13, 64, 73
14, 143040, Note_on_c, 13, 61, 73
14, 143222, Note_off_c, 13, 61, 64
14, 143222, Note_off_c, 13, 64, 64
14, 143282, Note_on_c, 13, 62, 73
14, 143464, Note_off_c, 13, 62, 64
14, 143519, Note_on_c, 13, 62, 73
14, 143701, Note_off_c, 13, 62, 64
14, 143759, Note_on_c, 13, 62, 73
14, 143941, Note_off_c, 13, 62, 64
14, 144482, Note_on_c, 13, 63, 73
14, 144938, Note_off_c, 13, 63, 64
14, 144958, Note_on_c, 13, 64, 73
14, 144962, Note_on_c, 13, 61, 73
14, 145140, Note_off_c, 13, 64, 64
14, 145144, Note_off_c, 13, 61, 64
14, 145201, Note_on_c, 13, 62, 73
14, 145383, Note_off_c, 13, 62, 64
14, 145442, Note_on_c, 13, 62, 73
14, 145624, Note_off_c, 13, 62, 64
14, 145682, Note_on_c, 13, 62, 73
14, 145864, Note_off_c, 13, 62, 64
14, 145919, Note_on_c, 13, 52, 73
14, 146402, Note_on_c, 13, 68, 73
14, 146495, Note_off_c, 13, 52, 64
14, 146642, Note_on_c, 13, 50, 73
14, 146824, Note_off_c, 13, 50, 64
14, 146858, Note_off_c, 13, 68, 64
14, 146878, Note_on_c, 13, 48, 73
14, 146879, Note_on_c, 13, 69, 73
14, 147060, Note_off_c, 13, 48, 64
14, 147061, Note_off_c, 13, 69, 64
14, 147118, Note_on_c, 13, 47, 73
14, 147300, Note_off_c, 13, 47, 64
14, 147361, Note_on_c, 13, 47, 73
14, 147543, Note_off_c, 13, 47, 64
14, 147598, Note_on_c, 13, 47, 73
14, 147780, Note_off_c, 13, 47, 64
14, 147842, Note_on_c, 13, 48, 73
14, 148226, Note_off_c, 13, 48, 64
14, 148322, Note_on_c, 13, 45, 73
14, 148658, Note_off_c, 13, 45, 64
14, 148739, Note_on_c, 13, 48, 78
14, 148784, Note_off_c, 13, 48, 56
14, 148802, Note_on_c, 13, 47, 73
14, 149186, Note_off_c, 13, 47, 64
14, 149280, Note_on_c, 13, 47, 73
14, 149664, Note_off_c, 13, 47, 64
14, 149759, Note_on_c, 13, 67, 95
14, 149761, Note_on_c, 13, 47, 90
14, 149804, Note_off_c, 13, 67, 56
14, 149822, Note_on_c, 13, 67, 95
14, 149867, Note_off_c, 13, 67, 56
14, 149880, Note_on_c, 13, 67, 95
14, 149925, Note_off_c, 13, 67, 56
14, 149942, Note_on_c, 13, 67, 95
14, 149987, Note_off_c, 13, 67, 56
14, 150000, Note_on_c, 13, 67, 95
14, 150045, Note_off_c, 13, 67, 56
14, 150060, Note_on_c, 13, 67, 95
14, 150105, Note_off_c, 13, 67, 56
14, 150122, Note_on_c, 13, 67, 95
14, 150167, Note_off_c, 13, 67, 56
14, 150180, Note_on_c, 13, 67, 95
14, 150225, Note_off_c, 13, 67, 56
14, 150239, Note_on_c, 13, 67, 95
14, 150284, Note_off_c, 13, 67, 56
14, 150302, Note_on_c, 13, 67, 95
14, 150337, Note_off_c, 13, 47, 64
14, 150347, Note_off_c, 13, 67, 56
14, 150362, Note_on_c, 13, 67, 95
14, 150407, Note_off_c, 13, 67, 56
14, 150419, Note_on_c, 13, 67, 95
14, 150464, Note_off_c, 13, 67, 56
14, 150481, Note_on_c, 13, 66, 95
14, 150482, Note_on_c, 13, 45, 90
14, 150526, Note_off_c, 13, 66, 56
14, 150542, Note_on_c, 13, 66, 95
14, 150587, Note_off_c, 13, 66, 56
14, 150598, Note_on_c, 13, 66, 95
14, 150643, Note_off_c, 13, 66, 56
14, 150660, Note_on_c, 13, 66, 95
14, 150664, Note_off_c, 13, 45, 64
14, 150705, Note_off_c, 13, 66, 56
14, 150718, Note_on_c, 13, 43, 90
14, 150720, Note_on_c, 13, 64, 95
14, 150765, Note_off_c, 13, 64, 56
14, 150778, Note_on_c, 13, 64, 95
14, 150823, Note_off_c, 13, 64, 56
14, 150838, Note_on_c, 13, 64, 95
14, 150883, Note_off_c, 13, 64, 56
14, 150899, Note_on_c, 13, 64, 95
14, 150900, Note_off_c, 13, 43, 64
14, 150944, Note_off_c, 13, 64, 56
14, 150959, Note_on_c, 13, 42, 90
14, 150959, Note_on_c, 13, 62, 95
14, 151004, Note_off_c, 13, 62, 56
14, 151019, Note_on_c, 13, 62, 95
14, 151064, Note_off_c, 13, 62, 56
14, 151082, Note_on_c, 13, 62, 95
14, 151127, Note_off_c, 13, 62, 56
14, 151141, Note_off_c, 13, 42, 64
14, 151141, Note_on_c, 13, 62, 95
14, 151186, Note_off_c, 13, 62, 56
14, 151198, Note_on_c, 13, 42, 90
14, 151198, Note_on_c, 13, 62, 95
14, 151243, Note_off_c, 13, 62, 56
14, 151259, Note_on_c, 13, 62, 95
14, 151304, Note_off_c, 13, 62, 56
14, 151321, Note_on_c, 13, 62, 95
14, 151366, Note_off_c, 13, 62, 56
14, 151380, Note_off_c, 13, 42, 64
14, 151382, Note_on_c, 13, 62, 95
14, 151427, Note_off_c, 13, 62, 56
14, 151438, Note_on_c, 13, 62, 95
14, 151441, Note_on_c, 13, 42, 90
14, 151483, Note_off_c, 13, 62, 56
14, 151499, Note_on_c, 13, 62, 95
14, 151544, Note_off_c, 13, 62, 56
14, 151558, Note_on_c, 13, 62, 95
14, 151603, Note_off_c, 13, 62, 56
14, 151618, Note_on_c, 13, 62, 95
14, 151623, Note_off_c, 13, 42, 64
14, 151663, Note_off_c, 13, 62, 56
14, 151680, Note_on_c, 13, 47, 96
14, 151681, Note_on_c, 13, 67, 95
14, 151726, Note_off_c, 13, 67, 56
14, 151742, Note_on_c, 13, 67, 95
14, 151787, Note_off_c, 13, 67, 56
14, 151801, Note_on_c, 13, 67, 95
14, 151846, Note_off_c, 13, 67, 56
14, 151861, Note_on_c, 13, 67, 95
14, 151906, Note_off_c, 13, 67, 56
14, 151920, Note_on_c, 13, 67, 95
14, 151965, Note_off_c, 13, 67, 56
14, 151982, Note_on_c, 13, 67, 95
14, 152027, Note_off_c, 13, 67, 56
14, 152039, Note_on_c, 13, 67, 95
14, 152084, Note_off_c, 13, 67, 56
14, 152100, Note_on_c, 13, 67, 95
14, 152145, Note_off_c, 13, 67, 56
14, 152160, Note_on_c, 13, 67, 95
14, 152205, Note_off_c, 13, 67, 56
14, 152219, Note_on_c, 13, 67, 95
14, 152256, Note_off_c, 13, 47, 64
14, 152264, Note_off_c, 13, 67, 56
14, 152278, Note_on_c, 13, 67, 95
14, 152323, Note_off_c, 13, 67, 56
14, 152338, Note_on_c, 13, 67, 95
14, 152383, Note_off_c, 13, 67, 56
14, 152400, Note_on_c, 13, 66, 95
14, 152401, Note_on_c, 13, 45, 90
14, 152445, Note_off_c, 13, 66, 56
14, 152459, Note_on_c, 13, 66, 95
14, 152504, Note_off_c, 13, 66, 56
14, 152518, Note_on_c, 13, 66, 95
14, 152563, Note_off_c, 13, 66, 56
14, 152580, Note_on_c, 13, 66, 95
14, 152583, Note_off_c, 13, 45, 64
14, 152625, Note_off_c, 13, 66, 56
14, 152638, Note_on_c, 13, 43, 90
14, 152640, Note_on_c, 13, 64, 95
14, 152685, Note_off_c, 13, 64, 56
14, 152701, Note_on_c, 13, 64, 95
14, 152746, Note_off_c, 13, 64, 56
14, 152761, Note_on_c, 13, 64, 95
14, 152806, Note_off_c, 13, 64, 56
14, 152818, Note_on_c, 13, 64, 95
14, 152820, Note_off_c, 13, 43, 64
14, 152863, Note_off_c, 13, 64, 56
14, 152880, Note_on_c, 13, 62, 95
14, 152880, Note_on_c, 13, 42, 90
14, 152925, Note_off_c, 13, 62, 56
14, 152941, Note_on_c, 13, 62, 95
14, 152986, Note_off_c, 13, 62, 56
14, 153001, Note_on_c, 13, 62, 95
14, 153046, Note_off_c, 13, 62, 56
14, 153062, Note_off_c, 13, 42, 64
14, 153062, Note_on_c, 13, 62, 95
14, 153107, Note_off_c, 13, 62, 56
14, 153118, Note_on_c, 13, 62, 95
14, 153122, Note_on_c, 13, 42, 90
14, 153163, Note_off_c, 13, 62, 56
14, 153179, Note_on_c, 13, 62, 95
14, 153224, Note_off_c, 13, 62, 56
14, 153239, Note_on_c, 13, 62, 95
14, 153284, Note_off_c, 13, 62, 56
14, 153302, Note_on_c, 13, 62, 95
14, 153304, Note_off_c, 13, 42, 64
14, 153347, Note_off_c, 13, 62, 56
14, 153361, Note_on_c, 13, 42, 90
14, 153362, Note_on_c, 13, 62, 95
14, 153407, Note_off_c, 13, 62, 56
14, 153421, Note_on_c, 13, 62, 95
14, 153466, Note_off_c, 13, 62, 56
14, 153480, Note_on_c, 13, 62, 95
14, 153525, Note_off_c, 13, 62, 56
14, 153540, Note_on_c, 13, 62, 95
14, 153543, Note_off_c, 13, 42, 64
14, 153585, Note_off_c, 13, 62, 56
14, 153598, Note_on_c, 13, 72, 95
14, 153600, Note_on_c, 13, 42, 90
14, 153643, Note_off_c, 13, 72, 56
14, 153658, Note_on_c, 13, 72, 95
14, 153703, Note_off_c, 13, 72, 56
14, 153721, Note_on_c, 13, 72, 95
14, 153766, Note_off_c, 13, 72, 56
14, 153778, Note_on_c, 13, 72, 97
14, 153823, Note_off_c, 13, 72, 56
14, 153840, Note_on_c, 13, 72, 97
14, 153885, Note_off_c, 13, 72, 56
14, 153902, Note_on_c, 13, 72, 97
14, 153947, Note_off_c, 13, 72, 56
14, 153960, Note_on_c, 13, 72, 97
14, 154005, Note_off_c, 13, 72, 56
14, 154021, Note_on_c, 13, 72, 98
14, 154066, Note_off_c, 13, 72, 56
14, 154078, Note_on_c, 13, 72, 98
14, 154123, Note_off_c, 13, 72, 56
14, 154138, Note_on_c, 13, 72, 98
14, 154176, Note_off_c, 13, 42, 64
14, 154183, Note_off_c, 13, 72, 56
14, 154198, Note_on_c, 13, 72, 98
14, 154243, Note_off_c, 13, 72, 56
14, 154262, Note_on_c, 13, 72, 99
14, 154307, Note_off_c, 13, 72, 56
14, 154319, Note_on_c, 13, 43, 94
14, 154321, Note_on_c, 13, 71, 99
14, 154366, Note_off_c, 13, 71, 56
14, 154379, Note_on_c, 13, 71, 99
14, 154424, Note_off_c, 13, 71, 56
14, 154440, Note_on_c, 13, 71, 99
14, 154485, Note_off_c, 13, 71, 56
14, 154499, Note_on_c, 13, 71, 99
14, 154501, Note_off_c, 13, 43, 64
14, 154544, Note_off_c, 13, 71, 56
14, 154560, Note_on_c, 13, 48, 95
14, 154560, Note_on_c, 13, 69, 100
14, 154605, Note_off_c, 13, 69, 56
14, 154621, Note_on_c, 13, 69, 100
14, 154666, Note_off_c, 13, 69, 56
14, 154682, Note_on_c, 13, 69, 100
14, 154727, Note_off_c, 13, 69, 56
14, 154739, Note_on_c, 13, 69, 100
14, 154742, Note_off_c, 13, 48, 64
14, 154784, Note_off_c, 13, 69, 56
14, 154801, Note_on_c, 13, 68, 101
14, 154802, Note_on_c, 13, 48, 96
14, 154846, Note_off_c, 13, 68, 56
14, 154858, Note_on_c, 13, 68, 101
14, 154903, Note_off_c, 13, 68, 56
14, 154921, Note_on_c, 13, 68, 101
14, 154966, Note_off_c, 13, 68, 56
14, 154981, Note_on_c, 13, 68, 101
14, 154984, Note_off_c, 13, 48, 64
14, 155026, Note_off_c, 13, 68, 56
14, 155039, Note_on_c, 13, 48, 97
14, 155042, Note_on_c, 13, 68, 102
14, 155087, Note_off_c, 13, 68, 56
14, 155101, Note_on_c, 13, 68, 102
14, 155146, Note_off_c, 13, 68, 56
14, 155162, Note_on_c, 13, 68, 102
14, 155207, Note_off_c, 13, 68, 56
14, 155221, Note_off_c, 13, 48, 64
14, 155222, Note_on_c, 13, 68, 102
14, 155267, Note_off_c, 13, 68, 56
14, 155281, Note_on_c, 13, 48, 98
14, 155282, Note_on_c, 13, 68, 102
14, 155327, Note_off_c, 13, 68, 56
14, 155342, Note_on_c, 13, 68, 103
14, 155387, Note_off_c, 13, 68, 56
14, 155402, Note_on_c, 13, 68, 103
14, 155447, Note_off_c, 13, 68, 56
14, 155459, Note_on_c, 13, 68, 103
14, 155463, Note_off_c, 13, 48, 64
14, 155504, Note_off_c, 13, 68, 56
14, 155521, Note_on_c, 13, 48, 98
14, 155522, Note_on_c, 13, 68, 103
14, 155567, Note_off_c, 13, 68, 56
14, 155582, Note_on_c, 13, 68, 105
14, 155627, Note_off_c, 13, 68, 56
14, 155642, Note_on_c, 13, 68, 105
14, 155687, Note_off_c, 13, 68, 56
14, 155698, Note_on_c, 13, 68, 105
14, 155703, Note_off_c, 13, 48, 64
14, 155743, Note_off_c, 13, 68, 56
14, 155758, Note_on_c, 13, 68, 105
14, 155762, Note_on_c, 13, 48, 100
14, 155803, Note_off_c, 13, 68, 56
14, 155820, Note_on_c, 13, 68, 106
14, 155865, Note_off_c, 13, 68, 56
14, 155880, Note_on_c, 13, 68, 106
14, 155925, Note_off_c, 13, 68, 56
14, 155939, Note_on_c, 13, 68, 106
14, 155944, Note_off_c, 13, 48, 64
14, 155984, Note_off_c, 13, 68, 56
14, 155999, Note_on_c, 13, 48, 101
14, 156001, Note_on_c, 13, 68, 106
14, 156046, Note_off_c, 13, 68, 56
14, 156062, Note_on_c, 13, 68, 106
14, 156107, Note_off_c, 13, 68, 56
14, 156121, Note_on_c, 13, 68, 107
14, 156166, Note_off_c, 13, 68, 56
14, 156180, Note_on_c, 13, 68, 107
14, 156181, Note_off_c, 13, 48, 64
14, 156225, Note_off_c, 13, 68, 56
14, 156242, Note_on_c, 13, 68, 107
14, 156242, Note_on_c, 13, 48, 102
14, 156287, Note_off_c, 13, 68, 56
14, 156301, Note_on_c, 13, 68, 107
14, 156346, Note_off_c, 13, 68, 56
14, 156362, Note_on_c, 13, 68, 108
14, 156407, Note_off_c, 13, 68, 56
14, 156421, Note_on_c, 13, 68, 108
14, 156424, Note_off_c, 13, 48, 64
14, 156466, Note_off_c, 13, 68, 56
14, 156479, Note_on_c, 13, 68, 108
14, 156480, Note_on_c, 13, 48, 103
14, 156524, Note_off_c, 13, 68, 56
14, 156542, Note_on_c, 13, 68, 108
14, 156587, Note_off_c, 13, 68, 56
14, 156599, Note_on_c, 13, 68, 109
14, 156644, Note_off_c, 13, 68, 56
14, 156662, Note_off_c, 13, 48, 64
14, 156662, Note_on_c, 13, 68, 109
14, 156707, Note_off_c, 13, 68, 56
14, 156720, Note_on_c, 13, 84, 109
14, 156721, Note_on_c, 13, 48, 104
14, 156765, Note_off_c, 13, 84, 56
14, 156778, Note_on_c, 13, 84, 109
14, 156823, Note_off_c, 13, 84, 56
14, 156838, Note_on_c, 13, 84, 110
14, 156883, Note_off_c, 13, 84, 56
14, 156902, Note_on_c, 13, 84, 110
14, 156903, Note_off_c, 13, 48, 64
14, 156947, Note_off_c, 13, 84, 56
14, 156960, Note_on_c, 13, 48, 105
14, 156961, Note_on_c, 13, 84, 110
14, 157006, Note_off_c, 13, 84, 56
14, 157018, Note_on_c, 13, 84, 110
14, 157063, Note_off_c, 13, 84, 56
14, 157078, Note_on_c, 13, 84, 110
14, 157123, Note_off_c, 13, 84, 56
14, 157140, Note_on_c, 13, 84, 111
14, 157142, Note_off_c, 13, 48, 64
14, 157185, Note_off_c, 13, 84, 56
14, 157199, Note_on_c, 13, 84, 111
14, 157199, Note_on_c, 13, 48, 106
14, 157244, Note_off_c, 13, 84, 56
14, 157260, Note_on_c, 13, 84, 111
14, 157305, Note_off_c, 13, 84, 56
14, 157320, Note_on_c, 13, 84, 111
14, 157365, Note_off_c, 13, 84, 56
14, 157379, Note_on_c, 13, 84, 113
14, 157381, Note_off_c, 13, 48, 64
14, 157424, Note_off_c, 13, 84, 56
14, 157439, Note_on_c, 13, 80, 108
14, 157441, Note_on_c, 13, 41, 108
14, 157509, Note_off_c, 13, 41, 56
14, 157558, Note_on_c, 13, 36, 108
14, 157626, Note_off_c, 13, 36, 56
14, 157681, Note_on_c, 13, 44, 108
14, 157749, Note_off_c, 13, 44, 56
14, 157799, Note_on_c, 13, 41, 108
14, 157890, Note_off_c, 13, 41, 56
14, 157921, Note_on_c, 13, 44, 108
14, 157989, Note_off_c, 13, 44, 56
14, 158040, Note_on_c, 13, 41, 108
14, 158108, Note_off_c, 13, 41, 56
14, 158159, Note_on_c, 13, 48, 108
14, 158250, Note_off_c, 13, 48, 56
14, 158282, Note_on_c, 13, 44, 108
14, 158373, Note_off_c, 13, 44, 56
14, 158401, Note_on_c, 13, 48, 108
14, 158469, Note_off_c, 13, 48, 56
14, 158520, Note_on_c, 13, 44, 108
14, 158588, Note_off_c, 13, 44, 56
14, 158642, Note_on_c, 13, 53, 108
14, 158710, Note_off_c, 13, 53, 56
14, 158759, Note_on_c, 13, 48, 108
14, 158850, Note_off_c, 13, 48, 56
14, 158878, Note_on_c, 13, 53, 108
14, 158969, Note_off_c, 13, 53, 56
14, 159002, Note_on_c, 13, 48, 108
14, 159070, Note_off_c, 13, 48, 56
14, 159119, Note_on_c, 13, 56, 108
14, 159167, Note_off_c, 13, 80, 64
14, 159210, Note_off_c, 13, 56, 56
14, 159240, Note_on_c, 13, 53, 108
14, 159331, Note_off_c, 13, 53, 56
14, 159361, Note_on_c, 13, 55, 108
14, 159362, Note_on_c, 13, 59, 108
14, 159430, Note_off_c, 13, 59, 56
14, 159480, Note_on_c, 13, 55, 108
14, 159548, Note_off_c, 13, 55, 56
14, 159601, Note_on_c, 13, 59, 108
14, 159669, Note_off_c, 13, 59, 56
14, 159722, Note_on_c, 13, 55, 108
14, 159813, Note_off_c, 13, 55, 56
14, 159840, Note_on_c, 13, 59, 108
14, 159931, Note_off_c, 13, 59, 56
14, 159961, Note_on_c, 13, 55, 108
14, 160029, Note_off_c, 13, 55, 56
14, 160082, Note_on_c, 13, 59, 108
14, 160150, Note_off_c, 13, 59, 56
14, 160199, Note_on_c, 13, 55, 108
14, 160290, Note_off_c, 13, 55, 56
14, 160318, Note_on_c, 13, 59, 108
14, 160386, Note_off_c, 13, 59, 56
14, 160439, Note_on_c, 13, 55, 108
14, 160507, Note_off_c, 13, 55, 56
14, 160561, Note_on_c, 13, 62, 108
14, 160629, Note_off_c, 13, 62, 56
14, 160680, Note_on_c, 13, 59, 108
14, 160771, Note_off_c, 13, 59, 56
14, 160802, Note_on_c, 13, 62, 108
14, 160893, Note_off_c, 13, 62, 56
14, 160918, Note_on_c, 13, 59, 108
14, 161009, Note_off_c, 13, 59, 56
14, 161038, Note_on_c, 13, 65, 108
14, 161089, Note_off_c, 13, 55, 64
14, 161129, Note_off_c, 13, 65, 56
14, 161158, Note_on_c, 13, 62, 108
14, 161249, Note_off_c, 13, 62, 56
14, 161278, Note_on_c, 13, 65, 108
14, 161280, Note_on_c, 13, 62, 108
14, 161346, Note_off_c, 13, 65, 56
14, 161371, Note_off_c, 13, 62, 56
14, 161399, Note_on_c, 13, 62, 108
14, 161401, Note_on_c, 13, 65, 108
14, 161467, Note_off_c, 13, 62, 56
14, 161492, Note_off_c, 13, 65, 56
14, 161520, Note_on_c, 13, 71, 108
14, 161522, Note_on_c, 13, 59, 108
14, 161588, Note_off_c, 13, 71, 56
14, 161613, Note_off_c, 13, 59, 56
14, 161638, Note_on_c, 13, 62, 108
14, 161641, Note_on_c, 13, 65, 108
14, 161709, Note_off_c, 13, 65, 56
14, 161729, Note_off_c, 13, 62, 56
14, 161762, Note_on_c, 13, 74, 108
14, 161762, Note_on_c, 13, 55, 108
14, 161830, Note_off_c, 13, 74, 56
14, 161853, Note_off_c, 13, 55, 56
14, 161878, Note_on_c, 13, 71, 108
14, 161880, Note_on_c, 13, 59, 108
14, 161946, Note_off_c, 13, 71, 56
14, 161971, Note_off_c, 13, 59, 56
14, 161999, Note_on_c, 13, 53, 108
14, 162001, Note_on_c, 13, 77, 108
14, 162069, Note_off_c, 13, 77, 56
14, 162090, Note_off_c, 13, 53, 56
14, 162120, Note_on_c, 13, 74, 108
14, 162120, Note_on_c, 13, 55, 108
14, 162188, Note_off_c, 13, 74, 56
14, 162211, Note_off_c, 13, 55, 56
14, 162238, Note_on_c, 13, 83, 108
14, 162238, Note_on_c, 13, 47, 108
14, 162329, Note_off_c, 13, 47, 56
14, 162329, Note_off_c, 13, 83, 56
14, 162361, Note_on_c, 13, 77, 108
14, 162361, Note_on_c, 13, 50, 108
14, 162452, Note_off_c, 13, 50, 56
14, 162452, Note_off_c, 13, 77, 56
14, 162478, Note_on_c, 13, 74, 113
14, 162480, Note_on_c, 13, 43, 108
14, 162523, Note_off_c, 13, 74, 56
14, 162540, Note_on_c, 13, 74, 113
14, 162571, Note_off_c, 13, 43, 56
14, 162585, Note_off_c, 13, 74, 56
14, 162600, Note_on_c, 13, 47, 108
14, 162602, Note_on_c, 13, 74, 113
14, 162647, Note_off_c, 13, 74, 56
14, 162659, Note_on_c, 13, 74, 113
14, 162691, Note_off_c, 13, 47, 56
14, 162704, Note_off_c, 13, 74, 56
14, 162719, Note_on_c, 13, 43, 108
14, 162721, Note_on_c, 13, 74, 113
14, 162766, Note_off_c, 13, 74, 56
14, 162781, Note_on_c, 13, 74, 113
14, 162810, Note_off_c, 13, 43, 56
14, 162826, Note_off_c, 13, 74, 56
14, 162838, Note_on_c, 13, 50, 108
14, 162839, Note_on_c, 13, 74, 113
14, 162884, Note_off_c, 13, 74, 56
14, 162900, Note_on_c, 13, 74, 113
14, 162929, Note_off_c, 13, 50, 56
14, 162945, Note_off_c, 13, 74, 56
14, 162959, Note_on_c, 13, 47, 108
14, 162961, Note_on_c, 13, 74, 113
14, 163006, Note_off_c, 13, 74, 56
14, 163019, Note_on_c, 13, 74, 113
14, 163050, Note_off_c, 13, 47, 56
14, 163064, Note_off_c, 13, 74, 56
14, 163078, Note_on_c, 13, 43, 108
14, 163078, Note_on_c, 13, 74, 113
14, 163123, Note_off_c, 13, 74, 56
14, 163142, Note_on_c, 13, 74, 113
14, 163169, Note_off_c, 13, 43, 56
14, 163187, Note_off_c, 13, 74, 56
14, 163198, Note_on_c, 13, 74, 113
14, 163200, Note_on_c, 13, 44, 108
14, 163243, Note_off_c, 13, 74, 56
14, 163262, Note_on_c, 13, 74, 113
14, 163268, Note_off_c, 13, 44, 56
14, 163307, Note_off_c, 13, 74, 56
14, 163318, Note_on_c, 13, 74, 113
14, 163322, Note_on_c, 13, 40, 108
14, 163363, Note_off_c, 13, 74, 56
14, 163382, Note_on_c, 13, 74, 113
14, 163390, Note_off_c, 13, 40, 56
14, 163427, Note_off_c, 13, 74, 56
14, 163438, Note_on_c, 13, 74, 113
14, 163439, Note_on_c, 13, 47, 108
14, 163483, Note_off_c, 13, 74, 56
14, 163502, Note_on_c, 13, 74, 113
14, 163530, Note_off_c, 13, 47, 56
14, 163547, Note_off_c, 13, 74, 56
14, 163560, Note_on_c, 13, 74, 113
14, 163562, Note_on_c, 13, 44, 108
14, 163605, Note_off_c, 13, 74, 56
14, 163619, Note_on_c, 13, 74, 113
14, 163653, Note_off_c, 13, 44, 56
14, 163664, Note_off_c, 13, 74, 56
14, 163678, Note_on_c, 13, 47, 108
14, 163681, Note_on_c, 13, 74, 113
14, 163726, Note_off_c, 13, 74, 56
14, 163741, Note_on_c, 13, 74, 113
14, 163746, Note_off_c, 13, 47, 56
14, 163786, Note_off_c, 13, 74, 56
14, 163798, Note_on_c, 13, 44, 108
14, 163800, Note_on_c, 13, 74, 113
14, 163845, Note_off_c, 13, 74, 56
14, 163859, Note_on_c, 13, 74, 113
14, 163866, Note_off_c, 13, 44, 56
14, 163904, Note_off_c, 13, 74, 56
14, 163918, Note_on_c, 13, 74, 113
14, 163922, Note_on_c, 13, 52, 108
14, 163963, Note_off_c, 13, 74, 56
14, 163980, Note_on_c, 13, 74, 113
14, 163990, Note_off_c, 13, 52, 56
14, 164025, Note_off_c, 13, 74, 56
14, 164038, Note_on_c, 13, 47, 108
14, 164042, Note_on_c, 13, 74, 113
14, 164087, Note_off_c, 13, 74, 56
14, 164098, Note_on_c, 13, 74, 113
14, 164129, Note_off_c, 13, 47, 56
14, 164143, Note_off_c, 13, 74, 56
14, 164160, Note_on_c, 13, 74, 113
14, 164162, Note_on_c, 13, 52, 108
14, 164205, Note_off_c, 13, 74, 56
14, 164218, Note_on_c, 13, 74, 113
14, 164230, Note_off_c, 13, 52, 56
14, 164263, Note_off_c, 13, 74, 56
14, 164278, Note_on_c, 13, 47, 108
14, 164280, Note_on_c, 13, 74, 113
14, 164325, Note_off_c, 13, 74, 56
14, 164339, Note_on_c, 13, 74, 113
14, 164346, Note_off_c, 13, 47, 56
14, 164384, Note_off_c, 13, 74, 56
14, 164398, Note_on_c, 13, 56, 108
14, 164400, Note_on_c, 13, 74, 113
14, 164445, Note_off_c, 13, 74, 56
14, 164458, Note_on_c, 13, 74, 113
14, 164489, Note_off_c, 13, 56, 56
14, 164503, Note_off_c, 13, 74, 56
14, 164518, Note_on_c, 13, 74, 113
14, 164519, Note_on_c, 13, 52, 108
14, 164563, Note_off_c, 13, 74, 56
14, 164581, Note_on_c, 13, 74, 113
14, 164610, Note_off_c, 13, 52, 56
14, 164626, Note_off_c, 13, 74, 56
14, 164638, Note_on_c, 13, 74, 113
14, 164640, Note_on_c, 13, 56, 108
14, 164683, Note_off_c, 13, 74, 56
14, 164698, Note_on_c, 13, 74, 113
14, 164708, Note_off_c, 13, 56, 56
14, 164743, Note_off_c, 13, 74, 56
14, 164758, Note_on_c, 13, 52, 108
14, 164761, Note_on_c, 13, 74, 113
14, 164806, Note_off_c, 13, 74, 56
14, 164820, Note_on_c, 13, 74, 113
14, 164826, Note_off_c, 13, 52, 56
14, 164865, Note_off_c, 13, 74, 56
14, 164878, Note_on_c, 13, 74, 113
14, 164880, Note_on_c, 13, 59, 108
14, 164923, Note_off_c, 13, 74, 56
14, 164938, Note_on_c, 13, 74, 113
14, 164971, Note_off_c, 13, 59, 56
14, 164983, Note_off_c, 13, 74, 56
14, 164998, Note_on_c, 13, 74, 113
14, 165001, Note_on_c, 13, 56, 108
14, 165043, Note_off_c, 13, 74, 56
14, 165060, Note_on_c, 13, 74, 113
14, 165092, Note_off_c, 13, 56, 56
14, 165105, Note_off_c, 13, 74, 56
14, 165118, Note_on_c, 13, 64, 108
14, 165209, Note_off_c, 13, 64, 56
14, 165238, Note_on_c, 13, 59, 108
14, 165306, Note_off_c, 13, 59, 56
14, 165359, Note_on_c, 13, 68, 108
14, 165362, Note_on_c, 13, 56, 108
14, 165427, Note_off_c, 13, 68, 56
14, 165430, Note_off_c, 13, 56, 56
14, 165480, Note_on_c, 13, 59, 108
14, 165482, Note_on_c, 13, 64, 108
14, 165548, Note_off_c, 13, 59, 56
14, 165550, Note_off_c, 13, 64, 56
14, 165600, Note_on_c, 13, 52, 108
14, 165601, Note_on_c, 13, 71, 108
14, 165668, Note_off_c, 13, 52, 56
14, 165669, Note_off_c, 13, 71, 56
14, 165718, Note_on_c, 13, 68, 108
14, 165719, Note_on_c, 13, 56, 108
14, 165786, Note_off_c, 13, 68, 56
14, 165787, Note_off_c, 13, 56, 56
14, 165841, Note_on_c, 13, 76, 108
14, 165842, Note_on_c, 13, 50, 108
14, 165909, Note_off_c, 13, 76, 56
14, 165910, Note_off_c, 13, 50, 56
14, 165961, Note_on_c, 13, 71, 108
14, 165961, Note_on_c, 13, 52, 108
14, 166029, Note_off_c, 13, 52, 56
14, 166029, Note_off_c, 13, 71, 56
14, 166081, Note_on_c, 13, 80, 113
14, 166082, Note_on_c, 13, 47, 108
14, 166126, Note_off_c, 13, 80, 56
14, 166140, Note_on_c, 13, 74, 113
14, 166150, Note_off_c, 13, 47, 56
14, 166185, Note_off_c, 13, 74, 56
14, 166198, Note_on_c, 13, 74, 113
14, 166199, Note_on_c, 13, 50, 108
14, 166243, Note_off_c, 13, 74, 56
14, 166260, Note_on_c, 13, 74, 113
14, 166267, Note_off_c, 13, 50, 56
14, 166305, Note_off_c, 13, 74, 56
14, 166319, Note_on_c, 13, 44, 108
14, 166321, Note_on_c, 13, 74, 113
14, 166366, Note_off_c, 13, 74, 56
14, 166381, Note_on_c, 13, 74, 113
14, 166387, Note_off_c, 13, 44, 56
14, 166426, Note_off_c, 13, 74, 56
14, 166438, Note_on_c, 13, 74, 113
14, 166441, Note_on_c, 13, 47, 108
14, 166483, Note_off_c, 13, 74, 56
14, 166502, Note_on_c, 13, 74, 113
14, 166509, Note_off_c, 13, 47, 56
14, 166547, Note_off_c, 13, 74, 56
14, 166559, Note_on_c, 13, 40, 108
14, 166562, Note_on_c, 13, 74, 113
14, 166607, Note_off_c, 13, 74, 56
14, 166619, Note_on_c, 13, 74, 113
14, 166650, Note_off_c, 13, 40, 56
14, 166664, Note_off_c, 13, 74, 56
14, 166678, Note_on_c, 13, 74, 113
14, 166681, Note_on_c, 13, 52, 108
14, 166723, Note_off_c, 13, 74, 56
14, 166739, Note_on_c, 13, 74, 113
14, 166772, Note_off_c, 13, 52, 56
14, 166784, Note_off_c, 13, 74, 56
14, 166800, Note_on_c, 13, 52, 108
14, 166802, Note_on_c, 13, 74, 113
14, 166847, Note_off_c, 13, 74, 56
14, 166859, Note_on_c, 13, 74, 113
14, 166891, Note_off_c, 13, 52, 56
14, 166904, Note_off_c, 13, 74, 56
14, 166920, Note_on_c, 13, 74, 113
14, 166920, Note_on_c, 13, 52, 108
14, 166965, Note_off_c, 13, 74, 56
14, 166982, Note_on_c, 13, 74, 113
14, 167011, Note_off_c, 13, 52, 56
14, 167027, Note_off_c, 13, 74, 56
14, 167040, Note_on_c, 13, 73, 113
14, 167041, Note_on_c, 13, 45, 108
14, 167042, Note_on_c, 13, 81, 113
14, 167100, Note_off_c, 13, 73, 56
14, 167102, Note_off_c, 13, 81, 56
14, 167115, Note_on_c, 13, 64, 113
14, 167175, Note_off_c, 13, 64, 56
14, 167207, Note_on_c, 13, 64, 113
14, 167223, Note_off_c, 13, 45, 64
14, 167267, Note_off_c, 13, 64, 56
14, 167281, Note_on_c, 13, 61, 113
14, 167341, Note_off_c, 13, 61, 56
14, 167354, Note_on_c, 13, 64, 113
14, 167414, Note_off_c, 13, 64, 56
14, 167432, Note_on_c, 13, 64, 113
14, 167492, Note_off_c, 13, 64, 56
14, 167522, Note_on_c, 13, 62, 113
14, 167522, Note_on_c, 13, 45, 108
14, 167582, Note_off_c, 13, 62, 56
14, 167594, Note_on_c, 13, 66, 113
14, 167654, Note_off_c, 13, 66, 56
14, 167669, Note_on_c, 13, 66, 113
14, 167704, Note_off_c, 13, 45, 64
14, 167729, Note_off_c, 13, 66, 56
14, 167761, Note_on_c, 13, 62, 113
14, 167821, Note_off_c, 13, 62, 56
14, 167835, Note_on_c, 13, 66, 113
14, 167895, Note_off_c, 13, 66, 56
14, 167912, Note_on_c, 13, 66, 113
14, 167972, Note_off_c, 13, 66, 56
14, 168002, Note_on_c, 13, 61, 113
14, 168002, Note_on_c, 13, 45, 108
14, 168062, Note_off_c, 13, 61, 56
14, 168076, Note_on_c, 13, 64, 113
14, 168136, Note_off_c, 13, 64, 56
14, 168166, Note_on_c, 13, 64, 113
14, 168207, Note_off_c, 13, 45, 64
14, 168226, Note_off_c, 13, 64, 56
14, 168241, Note_on_c, 13, 64, 113
14, 168241, Note_on_c, 13, 52, 108
14, 168301, Note_off_c, 13, 64, 56
14, 168313, Note_off_c, 13, 52, 56
14, 168314, Note_on_c, 13, 64, 113
14, 168315, Note_on_c, 13, 54, 108
14, 168374, Note_off_c, 13, 64, 56
14, 168387, Note_off_c, 13, 54, 56
14, 168392, Note_on_c, 13, 64, 113
14, 168404, Note_on_c, 13, 56, 108
14, 168452, Note_off_c, 13, 64, 56
14, 168476, Note_off_c, 13, 56, 56
14, 168480, Note_on_c, 13, 57, 108
14, 168480, Note_on_c, 13, 64, 108
14, 168662, Note_off_c, 13, 64, 64
14, 168685, Note_off_c, 13, 57, 64
14, 168719, Note_on_c, 13, 57, 73
14, 168795, Note_on_c, 13, 59, 73
14, 168867, Note_off_c, 13, 59, 56
14, 168871, Note_on_c, 13, 61, 73
14, 168935, Note_off_c, 13, 57, 64
14, 168943, Note_off_c, 13, 61, 56
14, 168958, Note_on_c, 13, 56, 73
14, 168962, Note_on_c, 13, 62, 73
14, 169178, Note_off_c, 13, 62, 64
14, 169201, Note_on_c, 13, 59, 73
14, 169273, Note_off_c, 13, 59, 56
14, 169276, Note_on_c, 13, 61, 73
14, 169348, Note_off_c, 13, 61, 56
14, 169352, Note_on_c, 13, 62, 73
14, 169414, Note_off_c, 13, 56, 64
14, 169424, Note_off_c, 13, 62, 56
14, 169439, Note_on_c, 13, 61, 73
14, 169442, Note_on_c, 13, 57, 73
14, 169655, Note_off_c, 13, 61, 64
14, 169680, Note_on_c, 13, 57, 73
14, 169752, Note_off_c, 13, 57, 56
14, 169756, Note_on_c, 13, 59, 73
14, 169828, Note_off_c, 13, 59, 56
14, 169844, Note_on_c, 13, 61, 73
14, 169898, Note_off_c, 13, 57, 64
14, 169916, Note_off_c, 13, 61, 56
14, 169921, Note_on_c, 13, 62, 73
14, 169921, Note_on_c, 13, 59, 73
14, 170569, Note_off_c, 13, 59, 64
14, 170569, Note_off_c, 13, 62, 64
14, 170640, Note_on_c, 13, 57, 73
14, 170713, Note_on_c, 13, 59, 73
14, 170785, Note_off_c, 13, 59, 56
14, 170792, Note_on_c, 13, 60, 73
14, 170856, Note_off_c, 13, 57, 64
14, 170864, Note_off_c, 13, 60, 56
14, 170879, Note_on_c, 13, 56, 73
14, 170880, Note_on_c, 13, 62, 73
14, 171096, Note_off_c, 13, 62, 64
14, 171120, Note_on_c, 13, 59, 73
14, 171192, Note_off_c, 13, 59, 56
14, 171197, Note_on_c, 13, 60, 73
14, 171269, Note_off_c, 13, 60, 56
14, 171269, Note_on_c, 13, 62, 73
14, 171335, Note_off_c, 13, 56, 64
14, 171341, Note_off_c, 13, 62, 56
14, 171361, Note_on_c, 13, 60, 73
14, 171362, Note_on_c, 13, 57, 73
14, 171577, Note_off_c, 13, 60, 64
14, 171601, Note_on_c, 13, 57, 73
14, 171673, Note_off_c, 13, 57, 56
14, 171674, Note_on_c, 13, 59, 73
14, 171746, Note_off_c, 13, 59, 56
14, 171751, Note_on_c, 13, 60, 73
14, 171818, Note_off_c, 13, 57, 64
14, 171823, Note_off_c, 13, 60, 56
14, 171838, Note_on_c, 13, 62, 73
14, 171840, Note_on_c, 13, 59, 73
14, 172486, Note_off_c, 13, 62, 64
14, 172488, Note_off_c, 13, 59, 64
14, 172558, Note_on_c, 13, 60, 73
14, 172559, Note_on_c, 13, 48, 73
14, 172631, Note_off_c, 13, 48, 56
14, 172634, Note_on_c, 13, 46, 73
14, 172694, Note_off_c, 13, 60, 64
14, 172706, Note_off_c, 13, 46, 56
14, 172723, Note_on_c, 13, 45, 73
14, 172795, Note_off_c, 13, 45, 56
14, 172800, Note_on_c, 13, 58, 73
14, 172802, Note_on_c, 13, 43, 73
14, 173018, Note_off_c, 13, 43, 64
14, 173041, Note_on_c, 13, 46, 73
14, 173113, Note_off_c, 13, 46, 56
14, 173113, Note_on_c, 13, 45, 73
14, 173185, Note_off_c, 13, 45, 56
14, 173204, Note_on_c, 13, 43, 73
14, 173256, Note_off_c, 13, 58, 64
14, 173276, Note_off_c, 13, 43, 56
14, 173278, Note_on_c, 13, 41, 73
14, 173279, Note_on_c, 13, 57, 73
14, 173494, Note_off_c, 13, 41, 64
14, 173519, Note_on_c, 13, 45, 73
14, 173591, Note_off_c, 13, 45, 56
14, 173594, Note_on_c, 13, 43, 73
14, 173666, Note_off_c, 13, 43, 56
14, 173686, Note_on_c, 13, 41, 73
14, 173735, Note_off_c, 13, 57, 64
14, 173758, Note_off_c, 13, 41, 56
14, 173758, Note_on_c, 13, 58, 73
14, 173759, Note_on_c, 13, 40, 73
14, 173895, Note_off_c, 13, 40, 64
14, 173999, Note_on_c, 13, 40, 73
14, 174071, Note_off_c, 13, 40, 56
14, 174076, Note_on_c, 13, 41, 73
14, 174148, Note_off_c, 13, 41, 56
14, 174152, Note_on_c, 13, 43, 73
14, 174224, Note_off_c, 13, 43, 56
14, 174238, Note_on_c, 13, 36, 73
14, 174374, Note_off_c, 13, 36, 64
14, 174406, Note_off_c, 13, 58, 64
14, 174478, Note_on_c, 13, 48, 73
14, 174481, Note_on_c, 13, 57, 73
14, 174550, Note_off_c, 13, 48, 56
14, 174556, Note_on_c, 13, 46, 73
14, 174617, Note_off_c, 13, 57, 64
14, 174628, Note_off_c, 13, 46, 56
14, 174645, Note_on_c, 13, 45, 73
14, 174717, Note_off_c, 13, 45, 56
14, 174719, Note_on_c, 13, 58, 73
14, 174722, Note_on_c, 13, 43, 73
14, 174938, Note_off_c, 13, 43, 64
14, 174960, Note_on_c, 13, 46, 73
14, 175032, Note_off_c, 13, 46, 56
14, 175034, Note_on_c, 13, 45, 73
14, 175106, Note_off_c, 13, 45, 56
14, 175127, Note_on_c, 13, 43, 73
14, 175175, Note_off_c, 13, 58, 64
14, 175198, Note_on_c, 13, 41, 73
14, 175199, Note_off_c, 13, 43, 56
14, 175199, Note_on_c, 13, 57, 73
14, 175414, Note_off_c, 13, 41, 64
14, 175440, Note_on_c, 13, 45, 73
14, 175512, Note_off_c, 13, 45, 56
14, 175517, Note_on_c, 13, 43, 73
14, 175589, Note_off_c, 13, 43, 56
14, 175607, Note_on_c, 13, 41, 73
14, 175655, Note_off_c, 13, 57, 64
14, 175679, Note_off_c, 13, 41, 56
14, 175679, Note_on_c, 13, 58, 73
14, 175682, Note_on_c, 13, 40, 73
14, 175884, Note_off_c, 13, 58, 64
14, 175887, Note_off_c, 13, 40, 64
14, 177360, Note_on_c, 13, 66, 73
14, 177432, Note_off_c, 13, 66, 56
14, 177435, Note_on_c, 13, 67, 73
14, 177507, Note_off_c, 13, 67, 56
14, 177524, Note_on_c, 13, 69, 73
14, 177596, Note_off_c, 13, 69, 56
14, 177600, Note_on_c, 13, 70, 73
14, 177805, Note_off_c, 13, 70, 64
14, 178318, Note_on_c, 13, 53, 73
14, 178318, Note_on_c, 13, 68, 73
14, 178390, Note_off_c, 13, 53, 56
14, 178397, Note_on_c, 13, 55, 73
14, 178469, Note_off_c, 13, 55, 56
14, 178486, Note_on_c, 13, 56, 73
14, 178534, Note_off_c, 13, 68, 64
14, 178558, Note_off_c, 13, 56, 56
14, 178558, Note_on_c, 13, 67, 73
14, 178561, Note_on_c, 13, 52, 73
14, 178697, Note_off_c, 13, 52, 64
14, 178774, Note_off_c, 13, 67, 64
14, 178799, Note_on_c, 13, 50, 73
14, 178800, Note_on_c, 13, 71, 73
14, 178871, Note_off_c, 13, 50, 56
14, 178874, Note_on_c, 13, 52, 73
14, 178946, Note_off_c, 13, 52, 56
14, 178949, Note_on_c, 13, 53, 73
14, 179016, Note_off_c, 13, 71, 64
14, 179021, Note_off_c, 13, 53, 56
14, 179040, Note_on_c, 13, 48, 73
14, 179042, Note_on_c, 13, 72, 73
14, 179176, Note_off_c, 13, 48, 64
14, 179258, Note_off_c, 13, 72, 64
14, 179281, Note_on_c, 13, 72, 73
14, 179282, Note_on_c, 13, 46, 73
14, 179353, Note_on_c, 13, 48, 73
14, 179354, Note_off_c, 13, 46, 56
14, 179425, Note_off_c, 13, 48, 56
14, 179429, Note_on_c, 13, 49, 73
14, 179501, Note_off_c, 13, 49, 56
14, 179518, Note_on_c, 13, 45, 73
14, 179723, Note_off_c, 13, 45, 64
14, 179737, Note_off_c, 13, 72, 64
14, 181199, Note_on_c, 13, 64, 73
14, 181271, Note_off_c, 13, 64, 56
14, 181275, Note_on_c, 13, 66, 73
14, 181347, Note_off_c, 13, 66, 56
14, 181363, Note_on_c, 13, 68, 73
14, 181435, Note_off_c, 13, 68, 56
14, 181438, Note_on_c, 13, 69, 73
14, 181643, Note_off_c, 13, 69, 64
14, 182158, Note_on_c, 13, 58, 75
14, 182161, Note_on_c, 13, 55, 74
14, 182233, Note_off_c, 13, 55, 56
14, 182236, Note_on_c, 13, 57, 75
14, 182308, Note_off_c, 13, 57, 56
14, 182323, Note_on_c, 13, 58, 77
14, 182374, Note_off_c, 13, 58, 64
14, 182395, Note_off_c, 13, 58, 56
14, 182402, Note_on_c, 13, 58, 80
14, 182402, Note_on_c, 13, 53, 79
14, 182538, Note_off_c, 13, 53, 64
14, 182618, Note_off_c, 13, 58, 64
14, 182638, Note_on_c, 13, 60, 85
14, 182641, Note_on_c, 13, 51, 82
14, 182713, Note_off_c, 13, 51, 56
14, 182713, Note_on_c, 13, 53, 83
14, 182785, Note_off_c, 13, 53, 56
14, 182803, Note_on_c, 13, 54, 85
14, 182854, Note_off_c, 13, 60, 64
14, 182875, Note_off_c, 13, 54, 56
14, 182881, Note_on_c, 13, 62, 89
14, 182882, Note_on_c, 13, 50, 87
14, 183018, Note_off_c, 13, 50, 64
14, 183086, Note_off_c, 13, 62, 64
14, 183119, Note_on_c, 13, 46, 90
14, 183121, Note_on_c, 13, 65, 90
14, 183193, Note_off_c, 13, 65, 56
14, 183197, Note_on_c, 13, 63, 90
14, 183269, Note_off_c, 13, 63, 56
14, 183285, Note_on_c, 13, 62, 90
14, 183324, Note_off_c, 13, 46, 64
14, 183357, Note_off_c, 13, 62, 56
14, 183359, Note_on_c, 13, 45, 90
14, 183361, Note_on_c, 13, 60, 90
14, 183577, Note_off_c, 13, 60, 64
14, 183600, Note_on_c, 13, 63, 90
14, 183672, Note_off_c, 13, 63, 56
14, 183674, Note_on_c, 13, 62, 90
14, 183746, Note_off_c, 13, 62, 56
14, 183765, Note_on_c, 13, 60, 90
14, 183791, Note_off_c, 13, 45, 64
14, 183837, Note_off_c, 13, 60, 56
14, 183841, Note_on_c, 13, 58, 90
14, 183842, Note_on_c, 13, 46, 90
14, 184057, Note_off_c, 13, 58, 64
14, 184080, Note_on_c, 13, 62, 90
14, 184152, Note_off_c, 13, 62, 56
14, 184157, Note_on_c, 13, 60, 90
14, 184229, Note_off_c, 13, 60, 56
14, 184243, Note_on_c, 13, 58, 90
14, 184274, Note_off_c, 13, 46, 64
14, 184315, Note_off_c, 13, 58, 56
14, 184318, Note_on_c, 13, 65, 90
14, 184321, Note_on_c, 13, 48, 90
14, 184523, Note_off_c, 13, 65, 64
14, 185040, Note_on_c, 13, 69, 95
14, 185100, Note_off_c, 13, 69, 56
14, 185114, Note_on_c, 13, 70, 95
14, 185174, Note_off_c, 13, 70, 56
14, 185204, Note_on_c, 13, 72, 95
14, 185264, Note_off_c, 13, 72, 56
14, 185279, Note_on_c, 13, 65, 90
14, 185484, Note_off_c, 13, 65, 64
14, 185929, Note_off_c, 13, 48, 64
14, 186001, Note_on_c, 13, 48, 90
14, 186002, Note_on_c, 13, 66, 90
14, 186074, Note_off_c, 13, 66, 56
14, 186075, Note_on_c, 13, 65, 90
14, 186147, Note_off_c, 13, 65, 56
14, 186148, Note_on_c, 13, 63, 90
14, 186206, Note_off_c, 13, 48, 64
14, 186220, Note_off_c, 13, 63, 56
14, 186240, Note_on_c, 13, 61, 90
14, 186241, Note_on_c, 13, 46, 90
14, 186456, Note_off_c, 13, 61, 64
14, 186481, Note_on_c, 13, 65, 90
14, 186553, Note_off_c, 13, 65, 56
14, 186554, Note_on_c, 13, 63, 90
14, 186626, Note_off_c, 13, 63, 56
14, 186644, Note_on_c, 13, 61, 90
14, 186673, Note_off_c, 13, 46, 64
14, 186716, Note_off_c, 13, 61, 56
14, 186719, Note_on_c, 13, 60, 90
14, 186720, Note_on_c, 13, 48, 90
14, 186935, Note_off_c, 13, 60, 64
14, 186959, Note_on_c, 13, 63, 90
14, 187031, Note_off_c, 13, 63, 56
14, 187036, Note_on_c, 13, 61, 90
14, 187108, Note_off_c, 13, 61, 56
14, 187110, Note_on_c, 13, 60, 90
14, 187152, Note_off_c, 13, 48, 64
14, 187182, Note_off_c, 13, 60, 56
14, 187198, Note_on_c, 13, 58, 90
14, 187200, Note_on_c, 13, 49, 90
14, 187403, Note_off_c, 13, 58, 64
14, 187919, Note_on_c, 13, 73, 95
14, 187979, Note_off_c, 13, 73, 56
14, 187996, Note_on_c, 13, 75, 95
14, 188056, Note_off_c, 13, 75, 56
14, 188085, Note_on_c, 13, 77, 95
14, 188145, Note_off_c, 13, 77, 56
14, 188162, Note_on_c, 13, 70, 90
14, 188367, Note_off_c, 13, 70, 64
14, 188808, Note_off_c, 13, 49, 64
14, 188879, Note_on_c, 13, 68, 90
14, 188882, Note_on_c, 13, 56, 90
14, 188955, Note_on_c, 13, 54, 90
14, 189027, Note_off_c, 13, 54, 56
14, 189047, Note_on_c, 13, 53, 90
14, 189119, Note_off_c, 13, 53, 56
14, 189119, Note_on_c, 13, 51, 90
14, 189335, Note_off_c, 13, 51, 64
14, 189358, Note_on_c, 13, 54, 90
14, 189430, Note_off_c, 13, 54, 56
14, 189437, Note_on_c, 13, 53, 90
14, 189509, Note_off_c, 13, 53, 56
14, 189526, Note_on_c, 13, 51, 90
14, 189598, Note_off_c, 13, 51, 56
14, 189598, Note_on_c, 13, 49, 90
14, 189814, Note_off_c, 13, 49, 64
14, 189839, Note_on_c, 13, 53, 90
14, 189911, Note_off_c, 13, 53, 56
14, 189917, Note_on_c, 13, 51, 90
14, 189989, Note_off_c, 13, 51, 56
14, 190007, Note_on_c, 13, 50, 90
14, 190079, Note_off_c, 13, 50, 56
14, 190081, Note_on_c, 13, 48, 90
14, 190727, Note_off_c, 13, 68, 64
14, 190730, Note_off_c, 13, 56, 64
14, 190802, Note_on_c, 13, 72, 95
14, 190862, Note_off_c, 13, 72, 56
14, 190875, Note_on_c, 13, 73, 95
14, 190935, Note_off_c, 13, 73, 56
14, 190952, Note_on_c, 13, 75, 95
14, 191012, Note_off_c, 13, 75, 56
14, 191042, Note_on_c, 13, 68, 90
14, 191247, Note_off_c, 13, 68, 64
14, 191689, Note_off_c, 13, 48, 64
14, 191758, Note_on_c, 13, 58, 90
14, 191830, Note_off_c, 13, 58, 56
14, 191836, Note_on_c, 13, 56, 90
14, 191908, Note_off_c, 13, 56, 56
14, 191924, Note_on_c, 13, 54, 90
14, 191996, Note_off_c, 13, 54, 56
14, 192000, Note_on_c, 13, 59, 90
14, 192001, Note_on_c, 13, 53, 90
14, 192217, Note_off_c, 13, 53, 64
14, 192238, Note_on_c, 13, 56, 90
14, 192310, Note_off_c, 13, 56, 56
14, 192314, Note_on_c, 13, 54, 90
14, 192386, Note_off_c, 13, 54, 56
14, 192407, Note_on_c, 13, 53, 90
14, 192479, Note_off_c, 13, 53, 56
14, 192482, Note_on_c, 13, 51, 90
14, 192698, Note_off_c, 13, 51, 64
14, 192720, Note_on_c, 13, 54, 90
14, 192792, Note_off_c, 13, 54, 56
14, 192795, Note_on_c, 13, 53, 90
14, 192867, Note_off_c, 13, 53, 56
14, 192884, Note_on_c, 13, 51, 90
14, 192956, Note_off_c, 13, 51, 56
14, 192961, Note_on_c, 13, 50, 90
14, 193608, Note_off_c, 13, 59, 64
14, 193679, Note_on_c, 13, 74, 95
14, 193739, Note_off_c, 13, 74, 56
14, 193753, Note_on_c, 13, 75, 95
14, 193813, Note_off_c, 13, 75, 56
14, 193843, Note_on_c, 13, 77, 95
14, 193903, Note_off_c, 13, 77, 56
14, 193918, Note_on_c, 13, 71, 90
14, 194123, Note_off_c, 13, 71, 64
14, 194569, Note_off_c, 13, 50, 64
14, 194640, Note_on_c, 13, 65, 90
14, 194642, Note_on_c, 13, 37, 90
14, 194776, Note_off_c, 13, 65, 64
14, 194847, Note_off_c, 13, 37, 64
14, 194878, Note_on_c, 13, 37, 90
14, 194882, Note_on_c, 13, 64, 90
14, 195170, Note_off_c, 13, 64, 64
14, 195362, Note_on_c, 13, 65, 90
14, 195650, Note_off_c, 13, 65, 64
14, 195742, Note_off_c, 13, 37, 64
14, 195838, Note_on_c, 13, 36, 90
14, 195842, Note_on_c, 13, 67, 90
14, 196486, Note_off_c, 13, 36, 64
14, 196558, Note_on_c, 13, 53, 90
14, 196694, Note_off_c, 13, 53, 64
14, 196706, Note_off_c, 13, 67, 64
14, 196798, Note_on_c, 13, 67, 90
14, 196799, Note_on_c, 13, 52, 90
14, 197087, Note_off_c, 13, 52, 64
14, 197280, Note_on_c, 13, 53, 90
14, 197446, Note_off_c, 13, 67, 64
14, 197518, Note_on_c, 13, 65, 90
14, 197568, Note_off_c, 13, 53, 64
14, 197654, Note_off_c, 13, 65, 64
14, 197762, Note_on_c, 13, 55, 90
14, 197762, Note_on_c, 13, 64, 90
14, 197898, Note_off_c, 13, 55, 64
14, 198001, Note_on_c, 13, 49, 90
14, 198137, Note_off_c, 13, 49, 64
14, 198238, Note_on_c, 13, 48, 92
14, 198410, Note_off_c, 13, 64, 64
14, 198481, Note_on_c, 13, 67, 92
14, 198617, Note_off_c, 13, 67, 64
14, 198721, Note_on_c, 13, 65, 92
14, 198934, Note_off_c, 13, 48, 64
14, 198961, Note_on_c, 13, 43, 93
14, 199097, Note_off_c, 13, 43, 64
14, 199199, Note_on_c, 13, 41, 93
14, 199369, Note_off_c, 13, 65, 64
14, 199441, Note_on_c, 13, 68, 94
14, 199577, Note_off_c, 13, 68, 64
14, 199682, Note_on_c, 13, 67, 94
14, 199895, Note_off_c, 13, 41, 64
14, 199919, Note_on_c, 13, 53, 94
14, 200055, Note_off_c, 13, 53, 64
14, 200159, Note_on_c, 13, 51, 95
14, 200330, Note_off_c, 13, 67, 64
14, 200398, Note_on_c, 13, 70, 95
14, 200534, Note_off_c, 13, 70, 64
14, 200639, Note_on_c, 13, 68, 95
14, 200855, Note_off_c, 13, 51, 64
14, 200882, Note_on_c, 13, 46, 96
14, 201018, Note_off_c, 13, 46, 64
14, 201121, Note_on_c, 13, 44, 96
14, 201287, Note_off_c, 13, 68, 64
14, 201362, Note_on_c, 13, 72, 97
14, 201498, Note_off_c, 13, 72, 64
14, 201599, Note_on_c, 13, 71, 97
14, 201817, Note_off_c, 13, 44, 64
14, 201840, Note_on_c, 13, 56, 97
14, 201976, Note_off_c, 13, 56, 64
14, 202082, Note_on_c, 13, 55, 98
14, 202247, Note_off_c, 13, 71, 64
14, 202318, Note_on_c, 13, 74, 98
14, 202454, Note_off_c, 13, 74, 64
14, 202562, Note_on_c, 13, 72, 98
14, 202778, Note_off_c, 13, 55, 64
14, 202798, Note_on_c, 13, 50, 100
14, 202934, Note_off_c, 13, 50, 64
14, 203042, Note_on_c, 13, 48, 100
14, 203210, Note_off_c, 13, 72, 64
14, 203281, Note_on_c, 13, 75, 101
14, 203417, Note_off_c, 13, 75, 64
14, 203520, Note_on_c, 13, 74, 101
14, 203738, Note_off_c, 13, 48, 64
14, 203760, Note_on_c, 13, 60, 101
14, 203896, Note_off_c, 13, 60, 64
14, 203999, Note_on_c, 13, 58, 102
14, 204168, Note_off_c, 13, 74, 64
14, 204238, Note_on_c, 13, 77, 102
14, 204374, Note_off_c, 13, 77, 64
14, 204479, Note_on_c, 13, 75, 102
14, 204695, Note_off_c, 13, 58, 64
14, 204718, Note_on_c, 13, 53, 103
14, 204854, Note_off_c, 13, 53, 64
14, 204962, Note_on_c, 13, 51, 103
14, 205098, Note_off_c, 13, 51, 64
14, 205127, Note_off_c, 13, 75, 64
14, 205202, Note_on_c, 13, 79, 104
14, 205202, Note_on_c, 13, 63, 104
14, 205338, Note_off_c, 13, 63, 64
14, 205338, Note_off_c, 13, 79, 64
14, 205440, Note_on_c, 13, 69, 109
14, 205441, Note_on_c, 13, 62, 109
14, 205500, Note_off_c, 13, 69, 56
14, 205501, Note_off_c, 13, 62, 56
14, 205515, Note_on_c, 13, 69, 109
14, 205517, Note_on_c, 13, 62, 109
14, 205575, Note_off_c, 13, 69, 56
14, 205577, Note_off_c, 13, 62, 56
14, 205591, Note_on_c, 13, 69, 109
14, 205604, Note_on_c, 13, 62, 109
14, 205651, Note_off_c, 13, 69, 56
14, 205664, Note_off_c, 13, 62, 56
14, 205680, Note_on_c, 13, 62, 109
14, 205681, Note_on_c, 13, 69, 109
14, 205740, Note_off_c, 13, 62, 56
14, 205741, Note_off_c, 13, 69, 56
14, 205755, Note_on_c, 13, 69, 109
14, 205757, Note_on_c, 13, 62, 109
14, 205815, Note_off_c, 13, 69, 56
14, 205817, Note_off_c, 13, 62, 56
14, 205829, Note_on_c, 13, 62, 110
14, 205846, Note_on_c, 13, 69, 110
14, 205889, Note_off_c, 13, 62, 56
14, 205906, Note_off_c, 13, 69, 56
14, 205922, Note_on_c, 13, 69, 110
14, 205922, Note_on_c, 13, 62, 110
14, 205982, Note_off_c, 13, 62, 56
14, 205982, Note_off_c, 13, 69, 56
14, 205993, Note_on_c, 13, 62, 110
14, 205995, Note_on_c, 13, 69, 110
14, 206053, Note_off_c, 13, 62, 56
14, 206055, Note_off_c, 13, 69, 56
14, 206083, Note_on_c, 13, 69, 110
14, 206085, Note_on_c, 13, 62, 110
14, 206143, Note_off_c, 13, 69, 56
14, 206145, Note_off_c, 13, 62, 56
14, 206159, Note_on_c, 13, 69, 110
14, 206162, Note_on_c, 13, 62, 110
14, 206219, Note_off_c, 13, 69, 56
14, 206222, Note_off_c, 13, 62, 56
14, 206233, Note_on_c, 13, 62, 110
14, 206234, Note_on_c, 13, 69, 110
14, 206293, Note_off_c, 13, 62, 56
14, 206294, Note_off_c, 13, 69, 56
14, 206323, Note_on_c, 13, 62, 110
14, 206324, Note_on_c, 13, 69, 110
14, 206383, Note_off_c, 13, 62, 56
14, 206384, Note_off_c, 13, 69, 56
14, 206398, Note_on_c, 13, 69, 110
14, 206399, Note_on_c, 13, 62, 110
14, 206458, Note_off_c, 13, 69, 56
14, 206459, Note_off_c, 13, 62, 56
14, 206473, Note_on_c, 13, 62, 111
14, 206475, Note_on_c, 13, 69, 111
14, 206533, Note_off_c, 13, 62, 56
14, 206535, Note_off_c, 13, 69, 56
14, 206565, Note_on_c, 13, 69, 111
14, 206565, Note_on_c, 13, 62, 111
14, 206625, Note_off_c, 13, 62, 56
14, 206625, Note_off_c, 13, 69, 56
14, 206639, Note_on_c, 13, 69, 111
14, 206640, Note_on_c, 13, 62, 111
14, 206699, Note_off_c, 13, 69, 56
14, 206700, Note_off_c, 13, 62, 56
14, 206714, Note_on_c, 13, 62, 111
14, 206716, Note_on_c, 13, 69, 111
14, 206774, Note_off_c, 13, 62, 56
14, 206776, Note_off_c, 13, 69, 56
14, 206791, Note_on_c, 13, 62, 111
14, 206805, Note_on_c, 13, 69, 111
14, 206851, Note_off_c, 13, 62, 56
14, 206865, Note_off_c, 13, 69, 56
14, 206879, Note_on_c, 13, 69, 111
14, 206881, Note_on_c, 13, 62, 111
14, 206939, Note_off_c, 13, 69, 56
14, 206941, Note_off_c, 13, 62, 56
14, 206955, Note_on_c, 13, 69, 111
14, 206956, Note_on_c, 13, 62, 111
14, 207015, Note_off_c, 13, 69, 56
14, 207016, Note_off_c, 13, 62, 56
14, 207046, Note_on_c, 13, 69, 111
14, 207046, Note_on_c, 13, 62, 111
14, 207106, Note_off_c, 13, 62, 56
14, 207106, Note_off_c, 13, 69, 56
14, 207120, Note_on_c, 13, 69, 113
14, 207122, Note_on_c, 13, 62, 113
14, 207180, Note_off_c, 13, 69, 56
14, 207182, Note_off_c, 13, 62, 56
14, 207195, Note_on_c, 13, 69, 113
14, 207195, Note_on_c, 13, 62, 113
14, 207255, Note_off_c, 13, 62, 56
14, 207255, Note_off_c, 13, 69, 56
14, 207268, Note_on_c, 13, 62, 113
14, 207270, Note_on_c, 13, 69, 113
14, 207328, Note_off_c, 13, 62, 56
14, 207330, Note_off_c, 13, 69, 56
14, 207361, Note_on_c, 13, 43, 108
14, 207362, Note_on_c, 13, 79, 108
14, 207362, Note_on_c, 13, 71, 108
14, 208010, Note_off_c, 13, 71, 64
14, 208010, Note_off_c, 13, 79, 64
14, 208081, Note_on_c, 13, 79, 113
14, 208141, Note_off_c, 13, 79, 56
14, 208154, Note_on_c, 13, 77, 113
14, 208214, Note_off_c, 13, 77, 56
14, 208243, Note_on_c, 13, 76, 113
14, 208303, Note_off_c, 13, 76, 56
14, 208321, Note_on_c, 13, 74, 113
14, 208381, Note_off_c, 13, 74, 56
14, 208397, Note_on_c, 13, 73, 113
14, 208457, Note_off_c, 13, 73, 56
14, 208484, Note_on_c, 13, 74, 113
14, 208544, Note_off_c, 13, 74, 56
14, 208558, Note_on_c, 13, 77, 113
14, 208618, Note_off_c, 13, 77, 56
14, 208637, Note_on_c, 13, 76, 113
14, 208697, Note_off_c, 13, 76, 56
14, 208711, Note_on_c, 13, 74, 113
14, 208771, Note_off_c, 13, 74, 56
14, 208799, Note_on_c, 13, 72, 113
14, 208859, Note_off_c, 13, 72, 56
14, 208874, Note_on_c, 13, 71, 113
14, 208934, Note_off_c, 13, 71, 56
14, 208964, Note_on_c, 13, 72, 113
14, 209024, Note_off_c, 13, 72, 56
14, 209040, Note_on_c, 13, 76, 113
14, 209100, Note_off_c, 13, 76, 56
14, 209115, Note_on_c, 13, 74, 113
14, 209175, Note_off_c, 13, 74, 56
14, 209185, Note_off_c, 13, 43, 64
14, 209203, Note_on_c, 13, 72, 113
14, 209263, Note_off_c, 13, 72, 56
14, 209279, Note_on_c, 13, 71, 113
14, 209282, Note_on_c, 13, 43, 108
14, 209339, Note_off_c, 13, 71, 56
14, 209355, Note_on_c, 13, 69, 113
14, 209415, Note_off_c, 13, 69, 56
14, 209429, Note_on_c, 13, 71, 113
14, 209489, Note_off_c, 13, 71, 56
14, 209522, Note_on_c, 13, 74, 113
14, 209582, Note_off_c, 13, 74, 56
14, 209595, Note_on_c, 13, 72, 113
14, 209655, Note_off_c, 13, 72, 56
14, 209685, Note_on_c, 13, 71, 113
14, 209745, Note_off_c, 13, 71, 56
14, 209759, Note_on_c, 13, 67, 113
14, 209819, Note_off_c, 13, 67, 56
14, 209835, Note_on_c, 13, 77, 113
14, 209895, Note_off_c, 13, 77, 56
14, 209927, Note_on_c, 13, 79, 113
14, 209987, Note_off_c, 13, 79, 56
14, 210002, Note_on_c, 13, 81, 113
14, 210062, Note_off_c, 13, 81, 56
14, 210075, Note_on_c, 13, 79, 113
14, 210135, Note_off_c, 13, 79, 56
14, 210164, Note_on_c, 13, 77, 113
14, 210224, Note_off_c, 13, 77, 56
14, 210241, Note_on_c, 13, 77, 113
14, 210301, Note_off_c, 13, 77, 56
14, 210314, Note_on_c, 13, 76, 113
14, 210374, Note_off_c, 13, 76, 56
14, 210403, Note_on_c, 13, 77, 113
14, 210463, Note_off_c, 13, 77, 56
14, 210479, Note_on_c, 13, 79, 113
14, 210539, Note_off_c, 13, 79, 56
14, 210554, Note_on_c, 13, 77, 113
14, 210614, Note_off_c, 13, 77, 56
14, 210645, Note_on_c, 13, 76, 113
14, 210705, Note_off_c, 13, 76, 56
14, 210718, Note_on_c, 13, 76, 113
14, 210778, Note_off_c, 13, 76, 56
14, 210796, Note_on_c, 13, 74, 113
14, 210856, Note_off_c, 13, 74, 56
14, 210886, Note_on_c, 13, 76, 113
14, 210946, Note_off_c, 13, 76, 56
14, 210962, Note_on_c, 13, 77, 113
14, 211022, Note_off_c, 13, 77, 56
14, 211033, Note_on_c, 13, 76, 113
14, 211093, Note_off_c, 13, 76, 56
14, 211106, Note_off_c, 13, 43, 64
14, 211126, Note_on_c, 13, 74, 113
14, 211186, Note_off_c, 13, 74, 56
14, 211198, Note_on_c, 13, 43, 108
14, 211200, Note_on_c, 13, 74, 113
14, 211260, Note_off_c, 13, 74, 56
14, 211275, Note_on_c, 13, 72, 113
14, 211335, Note_off_c, 13, 72, 56
14, 211365, Note_on_c, 13, 74, 113
14, 211425, Note_off_c, 13, 74, 56
14, 211441, Note_on_c, 13, 76, 113
14, 211501, Note_off_c, 13, 76, 56
14, 211517, Note_on_c, 13, 74, 113
14, 211577, Note_off_c, 13, 74, 56
14, 211603, Note_on_c, 13, 72, 113
14, 211663, Note_off_c, 13, 72, 56
14, 211679, Note_on_c, 13, 72, 113
14, 211739, Note_off_c, 13, 72, 56
14, 211750, Note_off_c, 13, 43, 64
14, 211753, Note_on_c, 13, 60, 113
14, 211754, Note_on_c, 13, 76, 113
14, 211756, Note_on_c, 13, 64, 113
14, 211813, Note_off_c, 13, 60, 56
14, 211814, Note_off_c, 13, 76, 56
14, 211816, Note_off_c, 13, 64, 56
14, 211832, Note_on_c, 13, 65, 113
14, 211843, Note_on_c, 13, 77, 113
14, 211843, Note_on_c, 13, 62, 113
14, 211892, Note_off_c, 13, 65, 56
14, 211903, Note_off_c, 13, 62, 56
14, 211903, Note_off_c, 13, 77, 56
14, 211920, Note_on_c, 13, 79, 113
14, 211922, Note_on_c, 13, 64, 113
14, 211922, Note_on_c, 13, 67, 113
14, 211980, Note_off_c, 13, 79, 56
14, 211982, Note_off_c, 13, 67, 56
14, 211982, Note_off_c, 13, 64, 56
14, 211995, Note_on_c, 13, 65, 113
14, 211996, Note_on_c, 13, 62, 113
14, 211996, Note_on_c, 13, 77, 113
14, 212055, Note_off_c, 13, 65, 56
14, 212056, Note_off_c, 13, 77, 56
14, 212056, Note_off_c, 13, 62, 56
14, 212072, Note_on_c, 13, 64, 113
14, 212083, Note_on_c, 13, 76, 113
14, 212085, Note_on_c, 13, 60, 113
14, 212132, Note_off_c, 13, 64, 56
14, 212143, Note_off_c, 13, 76, 56
14, 212145, Note_off_c, 13, 60, 56
14, 212158, Note_on_c, 13, 59, 113
14, 212159, Note_on_c, 13, 74, 113
14, 212161, Note_on_c, 13, 62, 113
14, 212218, Note_off_c, 13, 59, 56
14, 212219, Note_off_c, 13, 74, 56
14, 212221, Note_off_c, 13, 62, 56
14, 212234, Note_on_c, 13, 72, 113
14, 212235, Note_on_c, 13, 60, 113
14, 212237, Note_on_c, 13, 57, 113
14, 212294, Note_off_c, 13, 72, 56
14, 212295, Note_off_c, 13, 60, 56
14, 212297, Note_off_c, 13, 57, 56
14, 212327, Note_on_c, 13, 59, 113
14, 212327, Note_on_c, 13, 74, 113
14, 212327, Note_on_c, 13, 62, 113
14, 212387, Note_off_c, 13, 62, 56
14, 212387, Note_off_c, 13, 74, 56
14, 212387, Note_off_c, 13, 59, 56
14, 212398, Note_on_c, 13, 77, 113
14, 212398, Note_on_c, 13, 62, 113
14, 212399, Note_on_c, 13, 65, 113
14, 212458, Note_off_c, 13, 62, 56
14, 212458, Note_off_c, 13, 77, 56
14, 212459, Note_off_c, 13, 65, 56
14, 212473, Note_on_c, 13, 64, 113
14, 212474, Note_on_c, 13, 76, 113
14, 212474, Note_on_c, 13, 60, 113
14, 212533, Note_off_c, 13, 64, 56
14, 212534, Note_off_c, 13, 60, 56
14, 212534, Note_off_c, 13, 76, 56
14, 212548, Note_on_c, 13, 62, 113
14, 212551, Note_on_c, 13, 59, 113
14, 212552, Note_on_c, 13, 74, 113
14, 212608, Note_off_c, 13, 62, 56
14, 212611, Note_off_c, 13, 59, 56
14, 212612, Note_off_c, 13, 74, 56
14, 212638, Note_on_c, 13, 60, 113
14, 212640, Note_on_c, 13, 64, 113
14, 212641, Note_on_c, 13, 76, 113
14, 212698, Note_off_c, 13, 60, 56
14, 212700, Note_off_c, 13, 64, 56
14, 212701, Note_off_c, 13, 76, 56
14, 212716, Note_on_c, 13, 59, 113
14, 212716, Note_on_c, 13, 62, 113
14, 212717, Note_on_c, 13, 74, 113
14, 212776, Note_off_c, 13, 62, 56
14, 212776, Note_off_c, 13, 59, 56
14, 212777, Note_off_c, 13, 74, 56
14, 212790, Note_on_c, 13, 60, 113
14, 212792, Note_on_c, 13, 64, 113
14, 212803, Note_on_c, 13, 76, 113
14, 212850, Note_off_c, 13, 60, 56
14, 212852, Note_off_c, 13, 64, 56
14, 212863, Note_off_c, 13, 76, 56
14, 212878, Note_on_c, 13, 67, 113
14, 212879, Note_on_c, 13, 64, 113
14, 212881, Note_on_c, 13, 79, 113
14, 212938, Note_off_c, 13, 67, 56
14, 212939, Note_off_c, 13, 64, 56
14, 212941, Note_off_c, 13, 79, 56
14, 212953, Note_on_c, 13, 62, 113
14, 212955, Note_on_c, 13, 77, 113
14, 212955, Note_on_c, 13, 65, 113
14, 213013, Note_off_c, 13, 62, 56
14, 213015, Note_off_c, 13, 65, 56
14, 213015, Note_off_c, 13, 77, 56
14, 213028, Note_on_c, 13, 64, 113
14, 213031, Note_on_c, 13, 76, 113
14, 213043, Note_on_c, 13, 60, 113
14, 213088, Note_off_c, 13, 64, 56
14, 213091, Note_off_c, 13, 76, 56
14, 213103, Note_off_c, 13, 60, 56
14, 213118, Note_on_c, 13, 62, 113
14, 213119, Note_on_c, 13, 65, 113
14, 213120, Note_on_c, 13, 77, 113
14, 213178, Note_off_c, 13, 62, 56
14, 213179, Note_off_c, 13, 65, 56
14, 213180, Note_off_c, 13, 77, 56
14, 213195, Note_on_c, 13, 76, 113
14, 213195, Note_on_c, 13, 60, 113
14, 213196, Note_on_c, 13, 64, 113
14, 213255, Note_off_c, 13, 60, 56
14, 213255, Note_off_c, 13, 76, 56
14, 213256, Note_off_c, 13, 64, 56
14, 213283, Note_on_c, 13, 62, 113
14, 213285, Note_on_c, 13, 77, 113
14, 213286, Note_on_c, 13, 65, 113
14, 213343, Note_off_c, 13, 62, 56
14, 213345, Note_off_c, 13, 77, 56
14, 213346, Note_off_c, 13, 65, 56
14, 213359, Note_on_c, 13, 69, 113
14, 213359, Note_on_c, 13, 65, 113
14, 213362, Note_on_c, 13, 81, 113
14, 213419, Note_off_c, 13, 65, 56
14, 213419, Note_off_c, 13, 69, 56
14, 213422, Note_off_c, 13, 81, 56
14, 213433, Note_on_c, 13, 79, 113
14, 213437, Note_on_c, 13, 64, 113
14, 213437, Note_on_c, 13, 67, 113
14, 213493, Note_off_c, 13, 79, 56
14, 213497, Note_off_c, 13, 67, 56
14, 213497, Note_off_c, 13, 64, 56
14, 213510, Note_on_c, 13, 65, 113
14, 213524, Note_on_c, 13, 62, 113
14, 213527, Note_on_c, 13, 77, 113
14, 213570, Note_off_c, 13, 65, 56
14, 213584, Note_off_c, 13, 62, 56
14, 213587, Note_off_c, 13, 77, 56
14, 213598, Note_on_c, 13, 65, 113
14, 213600, Note_on_c, 13, 77, 113
14, 213600, Note_on_c, 13, 62, 113
14, 213658, Note_off_c, 13, 65, 56
14, 213660, Note_off_c, 13, 62, 56
14, 213660, Note_off_c, 13, 77, 56
14, 213673, Note_on_c, 13, 76, 113
14, 213674, Note_on_c, 13, 64, 113
14, 213675, Note_on_c, 13, 60, 113
14, 213733, Note_off_c, 13, 76, 56
14, 213734, Note_off_c, 13, 64, 56
14, 213735, Note_off_c, 13, 60, 56
14, 213748, Note_on_c, 13, 77, 113
14, 213766, Note_on_c, 13, 65, 113
14, 213767, Note_on_c, 13, 62, 113
14, 213808, Note_off_c, 13, 77, 56
14, 213826, Note_off_c, 13, 65, 56
14, 213827, Note_off_c, 13, 62, 56
14, 213838, Note_on_c, 13, 65, 113
14, 213838, Note_on_c, 13, 69, 113
14, 213840, Note_on_c, 13, 81, 113
14, 213898, Note_off_c, 13, 69, 56
14, 213898, Note_off_c, 13, 65, 56
14, 213900, Note_off_c, 13, 81, 56
14, 213913, Note_on_c, 13, 67, 113
14, 213914, Note_on_c, 13, 64, 113
14, 213914, Note_on_c, 13, 79, 113
14, 213973, Note_off_c, 13, 67, 56
14, 213974, Note_off_c, 13, 79, 56
14, 213974, Note_off_c, 13, 64, 56
14, 213989, Note_on_c, 13, 62, 113
14, 214003, Note_on_c, 13, 65, 113
14, 214007, Note_on_c, 13, 77, 113
14, 214049, Note_off_c, 13, 62, 56
14, 214063, Note_off_c, 13, 65, 56
14, 214067, Note_off_c, 13, 77, 56
14, 214080, Note_on_c, 13, 64, 113
14, 214080, Note_on_c, 13, 60, 113
14, 214082, Note_on_c, 13, 76, 113
14, 214140, Note_off_c, 13, 60, 56
14, 214140, Note_off_c, 13, 64, 56
14, 214142, Note_off_c, 13, 76, 56
14, 214154, Note_on_c, 13, 59, 113
14, 214154, Note_on_c, 13, 62, 113
14, 214156, Note_on_c, 13, 74, 113
14, 214214, Note_off_c, 13, 62, 56
14, 214214, Note_off_c, 13, 59, 56
14, 214216, Note_off_c, 13, 74, 56
14, 214228, Note_on_c, 13, 76, 113
14, 214230, Note_on_c, 13, 60, 113
14, 214247, Note_on_c, 13, 64, 113
14, 214288, Note_off_c, 13, 76, 56
14, 214290, Note_off_c, 13, 60, 56
14, 214307, Note_off_c, 13, 64, 56
14, 214318, Note_on_c, 13, 64, 113
14, 214318, Note_on_c, 13, 67, 113
14, 214322, Note_on_c, 13, 79, 113
14, 214378, Note_off_c, 13, 67, 56
14, 214378, Note_off_c, 13, 64, 56
14, 214382, Note_off_c, 13, 79, 56
14, 214393, Note_on_c, 13, 77, 113
14, 214393, Note_on_c, 13, 65, 113
14, 214395, Note_on_c, 13, 62, 113
14, 214453, Note_off_c, 13, 65, 56
14, 214453, Note_off_c, 13, 77, 56
14, 214455, Note_off_c, 13, 62, 56
14, 214471, Note_on_c, 13, 76, 113
14, 214472, Note_on_c, 13, 60, 113
14, 214487, Note_on_c, 13, 64, 113
14, 214531, Note_off_c, 13, 76, 56
14, 214532, Note_off_c, 13, 60, 56
14, 214547, Note_off_c, 13, 64, 56
14, 214558, Note_on_c, 13, 62, 113
14, 214560, Note_on_c, 13, 77, 113
14, 214560, Note_on_c, 13, 65, 113
14, 214618, Note_off_c, 13, 62, 56
14, 214620, Note_off_c, 13, 65, 56
14, 214620, Note_off_c, 13, 77, 56
14, 214634, Note_on_c, 13, 76, 113
14, 214635, Note_on_c, 13, 60, 113
14, 214637, Note_on_c, 13, 64, 113
14, 214694, Note_off_c, 13, 76, 56
14, 214695, Note_off_c, 13, 60, 56
14, 214697, Note_off_c, 13, 64, 56
14, 214709, Note_on_c, 13, 65, 113
14, 214725, Note_on_c, 13, 77, 113
14, 214727, Note_on_c, 13, 62, 113
14, 214769, Note_off_c, 13, 65, 56
14, 214785, Note_off_c, 13, 77, 56
14, 214787, Note_off_c, 13, 62, 56
14, 214798, Note_on_c, 13, 69, 113
14, 214799, Note_on_c, 13, 65, 113
14, 214800, Note_on_c, 13, 81, 113
14, 214858, Note_off_c, 13, 69, 56
14, 214859, Note_off_c, 13, 65, 56
14, 214860, Note_off_c, 13, 81, 56
14, 214873, Note_on_c, 13, 64, 113
14, 214875, Note_on_c, 13, 67, 113
14, 214877, Note_on_c, 13, 79, 113
14, 214933, Note_off_c, 13, 64, 56
14, 214935, Note_off_c, 13, 67, 56
14, 214937, Note_off_c, 13, 79, 56
14, 214963, Note_on_c, 13, 65, 113
14, 214965, Note_on_c, 13, 77, 113
14, 214967, Note_on_c, 13, 62, 113
14, 215023, Note_off_c, 13, 65, 56
14, 215025, Note_off_c, 13, 77, 56
14, 215027, Note_off_c, 13, 62, 56
14, 215039, Note_on_c, 13, 79, 113
14, 215039, Note_on_c, 13, 67, 113
14, 215042, Note_on_c, 13, 64, 113
14, 215099, Note_off_c, 13, 67, 56
14, 215099, Note_off_c, 13, 79, 56
14, 215102, Note_off_c, 13, 64, 56
14, 215114, Note_on_c, 13, 43, 113
14, 215114, Note_on_c, 13, 76, 113
14, 215174, Note_off_c, 13, 76, 56
14, 215174, Note_off_c, 13, 43, 56
14, 215191, Note_on_c, 13, 76, 113
14, 215207, Note_on_c, 13, 43, 113
14, 215251, Note_off_c, 13, 76, 56
14, 215267, Note_off_c, 13, 43, 56
14, 215278, Note_on_c, 13, 76, 113
14, 215278, Note_on_c, 13, 43, 113
14, 215338, Note_off_c, 13, 43, 56
14, 215338, Note_off_c, 13, 76, 56
14, 215354, Note_on_c, 13, 76, 113
14, 215355, Note_on_c, 13, 43, 113
14, 215414, Note_off_c, 13, 76, 56
14, 215415, Note_off_c, 13, 43, 56
14, 215432, Note_on_c, 13, 43, 113
14, 215443, Note_on_c, 13, 76, 113
14, 215492, Note_off_c, 13, 43, 56
14, 215503, Note_off_c, 13, 76, 56
14, 215518, Note_on_c, 13, 43, 113
14, 215520, Note_on_c, 13, 76, 113
14, 215578, Note_off_c, 13, 43, 56
14, 215580, Note_off_c, 13, 76, 56
14, 215595, Note_on_c, 13, 43, 113
14, 215596, Note_on_c, 13, 76, 113
14, 215655, Note_off_c, 13, 43, 56
14, 215656, Note_off_c, 13, 76, 56
14, 215683, Note_on_c, 13, 76, 113
14, 215685, Note_on_c, 13, 43, 113
14, 215743, Note_off_c, 13, 76, 56
14, 215745, Note_off_c, 13, 43, 56
14, 215760, Note_on_c, 13, 43, 113
14, 215760, Note_on_c, 13, 76, 113
14, 215820, Note_off_c, 13, 76, 56
14, 215820, Note_off_c, 13, 43, 56
14, 215835, Note_on_c, 13, 76, 113
14, 215836, Note_on_c, 13, 43, 113
14, 215895, Note_off_c, 13, 76, 56
14, 215896, Note_off_c, 13, 43, 56
14, 215923, Note_on_c, 13, 76, 113
14, 215923, Note_on_c, 13, 43, 113
14, 215983, Note_off_c, 13, 43, 56
14, 215983, Note_off_c, 13, 76, 56
14, 215998, Note_on_c, 13, 77, 113
14, 215998, Note_on_c, 13, 43, 113
14, 216058, Note_off_c, 13, 43, 56
14, 216058, Note_off_c, 13, 77, 56
14, 216077, Note_on_c, 13, 43, 113
14, 216077, Note_on_c, 13, 77, 113
14, 216137, Note_off_c, 13, 77, 56
14, 216137, Note_off_c, 13, 43, 56
14, 216149, Note_on_c, 13, 77, 113
14, 216165, Note_on_c, 13, 43, 113
14, 216209, Note_off_c, 13, 77, 56
14, 216225, Note_off_c, 13, 43, 56
14, 216240, Note_on_c, 13, 43, 113
14, 216240, Note_on_c, 13, 77, 113
14, 216300, Note_off_c, 13, 77, 56
14, 216300, Note_off_c, 13, 43, 56
14, 216314, Note_on_c, 13, 43, 113
14, 216314, Note_on_c, 13, 77, 113
14, 216374, Note_off_c, 13, 77, 56
14, 216374, Note_off_c, 13, 43, 56
14, 216403, Note_on_c, 13, 77, 113
14, 216406, Note_on_c, 13, 43, 113
14, 216463, Note_off_c, 13, 77, 56
14, 216466, Note_off_c, 13, 43, 56
14, 216479, Note_on_c, 13, 77, 113
14, 216482, Note_on_c, 13, 43, 113
14, 216539, Note_off_c, 13, 77, 56
14, 216542, Note_off_c, 13, 43, 56
14, 216554, Note_on_c, 13, 43, 113
14, 216555, Note_on_c, 13, 77, 113
14, 216614, Note_off_c, 13, 43, 56
14, 216615, Note_off_c, 13, 77, 56
14, 216632, Note_on_c, 13, 77, 113
14, 216643, Note_on_c, 13, 43, 113
14, 216692, Note_off_c, 13, 77, 56
14, 216703, Note_off_c, 13, 43, 56
14, 216720, Note_on_c, 13, 77, 113
14, 216722, Note_on_c, 13, 43, 113
14, 216780, Note_off_c, 13, 77, 56
14, 216782, Note_off_c, 13, 43, 56
14, 216794, Note_on_c, 13, 77, 113
14, 216795, Note_on_c, 13, 43, 113
14, 216854, Note_off_c, 13, 77, 56
14, 216855, Note_off_c, 13, 43, 56
14, 216870, Note_on_c, 13, 43, 113
14, 216884, Note_on_c, 13, 77, 113
14, 216930, Note_off_c, 13, 43, 56
14, 216944, Note_off_c, 13, 77, 56
14, 216960, Note_on_c, 13, 69, 113
14, 216961, Note_on_c, 13, 43, 113
14, 217020, Note_off_c, 13, 69, 56
14, 217021, Note_off_c, 13, 43, 56
14, 217033, Note_on_c, 13, 43, 113
14, 217035, Note_on_c, 13, 69, 113
14, 217093, Note_off_c, 13, 43, 56
14, 217095, Note_off_c, 13, 69, 56
14, 217111, Note_on_c, 13, 69, 113
14, 217111, Note_on_c, 13, 43, 113
14, 217171, Note_off_c, 13, 43, 56
14, 217171, Note_off_c, 13, 69, 56
14, 217200, Note_on_c, 13, 69, 113
14, 217200, Note_on_c, 13, 43, 113
14, 217260, Note_off_c, 13, 43, 56
14, 217260, Note_off_c, 13, 69, 56
14, 217277, Note_on_c, 13, 43, 113
14, 217277, Note_on_c, 13, 69, 113
14, 217337, Note_off_c, 13, 69, 56
14, 217337, Note_off_c, 13, 43, 56
14, 217349, Note_on_c, 13, 43, 113
14, 217364, Note_on_c, 13, 69, 113
14, 217409, Note_off_c, 13, 43, 56
14, 217424, Note_off_c, 13, 69, 56
14, 217442, Note_on_c, 13, 43, 113
14, 217442, Note_on_c, 13, 69, 113
14, 217502, Note_off_c, 13, 69, 56
14, 217502, Note_off_c, 13, 43, 56
14, 217513, Note_on_c, 13, 69, 113
14, 217517, Note_on_c, 13, 43, 113
14, 217573, Note_off_c, 13, 69, 56
14, 217577, Note_off_c, 13, 43, 56
14, 217591, Note_on_c, 13, 43, 113
14, 217604, Note_on_c, 13, 69, 113
14, 217651, Note_off_c, 13, 43, 56
14, 217664, Note_off_c, 13, 69, 56
14, 217682, Note_on_c, 13, 69, 113
14, 217682, Note_on_c, 13, 43, 113
14, 217742, Note_off_c, 13, 43, 56
14, 217742, Note_off_c, 13, 69, 56
14, 217755, Note_on_c, 13, 43, 113
14, 217756, Note_on_c, 13, 69, 113
14, 217815, Note_off_c, 13, 43, 56
14, 217816, Note_off_c, 13, 69, 56
14, 217831, Note_on_c, 13, 69, 113
14, 217844, Note_on_c, 13, 43, 113
14, 217891, Note_off_c, 13, 69, 56
14, 217904, Note_off_c, 13, 43, 56
14, 217918, Note_on_c, 13, 43, 113
14, 217920, Note_on_c, 13, 69, 113
14, 217978, Note_off_c, 13, 43, 56
14, 217980, Note_off_c, 13, 69, 56
14, 217996, Note_on_c, 13, 43, 113
14, 217997, Note_on_c, 13, 69, 113
14, 218056, Note_off_c, 13, 43, 56
14, 218057, Note_off_c, 13, 69, 56
14, 218084, Note_on_c, 13, 43, 113
14, 218086, Note_on_c, 13, 69, 113
14, 218144, Note_off_c, 13, 43, 56
14, 218146, Note_off_c, 13, 69, 56
14, 218158, Note_on_c, 13, 69, 113
14, 218162, Note_on_c, 13, 43, 113
14, 218218, Note_off_c, 13, 69, 56
14, 218222, Note_off_c, 13, 43, 56
14, 218237, Note_on_c, 13, 69, 113
14, 218237, Note_on_c, 13, 43, 113
14, 218297, Note_off_c, 13, 43, 56
14, 218297, Note_off_c, 13, 69, 56
14, 218308, Note_on_c, 13, 43, 113
14, 218312, Note_on_c, 13, 69, 113
14, 218368, Note_off_c, 13, 43, 56
14, 218372, Note_off_c, 13, 69, 56
14, 218400, Note_on_c, 13, 69, 113
14, 218401, Note_on_c, 13, 43, 113
14, 218460, Note_off_c, 13, 69, 56
14, 218461, Note_off_c, 13, 43, 56
14, 218474, Note_on_c, 13, 69, 113
14, 218475, Note_on_c, 13, 43, 113
14, 218534, Note_off_c, 13, 69, 56
14, 218535, Note_off_c, 13, 43, 56
14, 218563, Note_on_c, 13, 43, 113
14, 218565, Note_on_c, 13, 69, 113
14, 218623, Note_off_c, 13, 43, 56
14, 218625, Note_off_c, 13, 69, 56
14, 218641, Note_on_c, 13, 69, 113
14, 218642, Note_on_c, 13, 43, 113
14, 218701, Note_off_c, 13, 69, 56
14, 218702, Note_off_c, 13, 43, 56
14, 218713, Note_on_c, 13, 43, 113
14, 218713, Note_on_c, 13, 69, 113
14, 218773, Note_off_c, 13, 69, 56
14, 218773, Note_off_c, 13, 43, 56
14, 218791, Note_on_c, 13, 69, 113
14, 218807, Note_on_c, 13, 43, 113
14, 218851, Note_off_c, 13, 69, 56
14, 218867, Note_off_c, 13, 43, 56
14, 218881, Note_on_c, 13, 43, 108
14, 218881, Note_on_c, 13, 71, 113
14, 218941, Note_off_c, 13, 71, 56
14, 218956, Note_on_c, 13, 71, 113
14, 219016, Note_off_c, 13, 71, 56
14, 219046, Note_on_c, 13, 71, 113
14, 219106, Note_off_c, 13, 71, 56
14, 219119, Note_on_c, 13, 71, 113
14, 219179, Note_off_c, 13, 71, 56
14, 219196, Note_on_c, 13, 71, 113
14, 219256, Note_off_c, 13, 71, 56
14, 219269, Note_on_c, 13, 71, 113
14, 219329, Note_off_c, 13, 71, 56
14, 219361, Note_on_c, 13, 71, 113
14, 219406, Note_off_c, 13, 71, 56
14, 219421, Note_on_c, 13, 71, 113
14, 219466, Note_off_c, 13, 71, 56
14, 219469, Note_off_c, 13, 43, 64
14, 219478, Note_on_c, 13, 50, 108
14, 219481, Note_on_c, 13, 74, 113
14, 219526, Note_off_c, 13, 74, 56
14, 219538, Note_on_c, 13, 74, 113
14, 219580, Note_off_c, 13, 50, 56
14, 219583, Note_off_c, 13, 74, 56
14, 219601, Note_on_c, 13, 47, 108
14, 219602, Note_on_c, 13, 71, 113
14, 219647, Note_off_c, 13, 71, 56
14, 219661, Note_on_c, 13, 71, 113
14, 219703, Note_off_c, 13, 47, 56
14, 219706, Note_off_c, 13, 71, 56
14, 219720, Note_on_c, 13, 50, 108
14, 219720, Note_on_c, 13, 74, 113
14, 219765, Note_off_c, 13, 74, 56
14, 219781, Note_on_c, 13, 74, 113
14, 219822, Note_off_c, 13, 50, 56
14, 219826, Note_off_c, 13, 74, 56
14, 219840, Note_on_c, 13, 55, 108
14, 219842, Note_on_c, 13, 79, 113
14, 219887, Note_off_c, 13, 79, 56
14, 219902, Note_on_c, 13, 79, 113
14, 219947, Note_off_c, 13, 79, 56
14, 219961, Note_on_c, 13, 79, 113
14, 220006, Note_off_c, 13, 79, 56
14, 220019, Note_on_c, 13, 79, 113
14, 220064, Note_off_c, 13, 79, 56
14, 220080, Note_on_c, 13, 79, 113
14, 220125, Note_off_c, 13, 79, 56
14, 220142, Note_on_c, 13, 79, 113
14, 220187, Note_off_c, 13, 79, 56
14, 220198, Note_on_c, 13, 79, 113
14, 220243, Note_off_c, 13, 79, 56
14, 220262, Note_on_c, 13, 79, 113
14, 220307, Note_off_c, 13, 79, 56
14, 220320, Note_on_c, 13, 79, 113
14, 220365, Note_off_c, 13, 79, 56
14, 220382, Note_on_c, 13, 79, 113
14, 220427, Note_off_c, 13, 79, 56
14, 220428, Note_off_c, 13, 55, 64
14, 220440, Note_on_c, 13, 74, 113
14, 220442, Note_on_c, 13, 50, 108
14, 220485, Note_off_c, 13, 74, 56
14, 220501, Note_on_c, 13, 74, 113
14, 220544, Note_off_c, 13, 50, 56
14, 220546, Note_off_c, 13, 74, 56
14, 220560, Note_on_c, 13, 71, 113
14, 220560, Note_on_c, 13, 47, 108
14, 220605, Note_off_c, 13, 71, 56
14, 220618, Note_on_c, 13, 71, 113
14, 220662, Note_off_c, 13, 47, 56
14, 220663, Note_off_c, 13, 71, 56
14, 220678, Note_on_c, 13, 74, 113
14, 220678, Note_on_c, 13, 50, 108
14, 220723, Note_off_c, 13, 74, 56
14, 220742, Note_on_c, 13, 74, 113
14, 220780, Note_off_c, 13, 50, 56
14, 220787, Note_off_c, 13, 74, 56
14, 220801, Note_on_c, 13, 79, 113
14, 220801, Note_on_c, 13, 55, 108
14, 220846, Note_off_c, 13, 79, 56
14, 220860, Note_on_c, 13, 79, 113
14, 220903, Note_off_c, 13, 55, 56
14, 220905, Note_off_c, 13, 79, 56
14, 220918, Note_on_c, 13, 74, 113
14, 220919, Note_on_c, 13, 62, 108
14, 220963, Note_off_c, 13, 74, 56
14, 220978, Note_on_c, 13, 74, 113
14, 221021, Note_off_c, 13, 62, 56
14, 221023, Note_off_c, 13, 74, 56
14, 221040, Note_on_c, 13, 71, 113
14, 221041, Note_on_c, 13, 59, 108
14, 221085, Note_off_c, 13, 71, 56
14, 221102, Note_on_c, 13, 71, 113
14, 221143, Note_off_c, 13, 59, 56
14, 221147, Note_off_c, 13, 71, 56
14, 221158, Note_on_c, 13, 62, 108
14, 221160, Note_on_c, 13, 74, 113
14, 221205, Note_off_c, 13, 74, 56
14, 221220, Note_on_c, 13, 74, 113
14, 221260, Note_off_c, 13, 62, 56
14, 221265, Note_off_c, 13, 74, 56
14, 221278, Note_on_c, 13, 74, 113
14, 221279, Note_on_c, 13, 62, 108
14, 221323, Note_off_c, 13, 74, 56
14, 221339, Note_on_c, 13, 74, 113
14, 221381, Note_off_c, 13, 62, 56
14, 221384, Note_off_c, 13, 74, 56
14, 221401, Note_on_c, 13, 83, 113
14, 221402, Note_on_c, 13, 59, 108
14, 221446, Note_off_c, 13, 83, 56
14, 221460, Note_on_c, 13, 83, 113
14, 221504, Note_off_c, 13, 59, 56
14, 221505, Note_off_c, 13, 83, 56
14, 221518, Note_on_c, 13, 79, 113
14, 221521, Note_on_c, 13, 55, 108
14, 221563, Note_off_c, 13, 79, 56
14, 221582, Note_on_c, 13, 79, 113
14, 221623, Note_off_c, 13, 55, 56
14, 221627, Note_off_c, 13, 79, 56
14, 221640, Note_on_c, 13, 59, 108
14, 221642, Note_on_c, 13, 83, 113
14, 221687, Note_off_c, 13, 83, 56
14, 221699, Note_on_c, 13, 83, 113
14, 221742, Note_off_c, 13, 59, 56
14, 221744, Note_off_c, 13, 83, 56
14, 221758, Note_on_c, 13, 83, 113
14, 221762, Note_on_c, 13, 59, 108
14, 221803, Note_off_c, 13, 83, 56
14, 221819, Note_on_c, 13, 83, 113
14, 221864, Note_off_c, 13, 83, 56
14, 221864, Note_off_c, 13, 59, 56
14, 221878, Note_on_c, 13, 55, 108
14, 221882, Note_on_c, 13, 79, 113
14, 221927, Note_off_c, 13, 79, 56
14, 221938, Note_on_c, 13, 79, 113
14, 221980, Note_off_c, 13, 55, 56
14, 221983, Note_off_c, 13, 79, 56
14, 221998, Note_on_c, 13, 74, 113
14, 222000, Note_on_c, 13, 50, 108
14, 222043, Note_off_c, 13, 74, 56
14, 222061, Note_on_c, 13, 74, 113
14, 222102, Note_off_c, 13, 50, 56
14, 222106, Note_off_c, 13, 74, 56
14, 222119, Note_on_c, 13, 55, 108
14, 222119, Note_on_c, 13, 79, 113
14, 222164, Note_off_c, 13, 79, 56
14, 222180, Note_on_c, 13, 79, 113
14, 222221, Note_off_c, 13, 55, 56
14, 222225, Note_off_c, 13, 79, 56
14, 222240, Note_on_c, 13, 79, 113
14, 222242, Note_on_c, 13, 55, 108
14, 222285, Note_off_c, 13, 79, 56
14, 222298, Note_on_c, 13, 79, 113
14, 222343, Note_off_c, 13, 79, 56
14, 222344, Note_off_c, 13, 55, 56
14, 222360, Note_on_c, 13, 50, 108
14, 222362, Note_on_c, 13, 74, 113
14, 222407, Note_off_c, 13, 74, 56
14, 222421, Note_on_c, 13, 74, 113
14, 222462, Note_off_c, 13, 50, 56
14, 222466, Note_off_c, 13, 74, 56
14, 222479, Note_on_c, 13, 47, 108
14, 222480, Note_on_c, 13, 71, 113
14, 222525, Note_off_c, 13, 71, 56
14, 222541, Note_on_c, 13, 71, 113
14, 222581, Note_off_c, 13, 47, 56
14, 222586, Note_off_c, 13, 71, 56
14, 222598, Note_on_c, 13, 50, 108
14, 222601, Note_on_c, 13, 74, 113
14, 222646, Note_off_c, 13, 74, 56
14, 222662, Note_on_c, 13, 74, 113
14, 222700, Note_off_c, 13, 50, 56
14, 222707, Note_off_c, 13, 74, 56
14, 222722, Note_on_c, 13, 74, 113
14, 222722, Note_on_c, 13, 50, 108
14, 222767, Note_off_c, 13, 74, 56
14, 222782, Note_on_c, 13, 74, 113
14, 222824, Note_off_c, 13, 50, 56
14, 222827, Note_off_c, 13, 74, 56
14, 222841, Note_on_c, 13, 71, 113
14, 222842, Note_on_c, 13, 47, 108
14, 222886, Note_off_c, 13, 71, 56
14, 222902, Note_on_c, 13, 71, 113
14, 222944, Note_off_c, 13, 47, 56
14, 222947, Note_off_c, 13, 71, 56
14, 222958, Note_on_c, 13, 43, 108
14, 222959, Note_on_c, 13, 67, 113
14, 223004, Note_off_c, 13, 67, 56
14, 223019, Note_on_c, 13, 67, 113
14, 223060, Note_off_c, 13, 43, 56
14, 223064, Note_off_c, 13, 67, 56
14, 223079, Note_on_c, 13, 71, 113
14, 223081, Note_on_c, 13, 59, 108
14, 223124, Note_off_c, 13, 71, 56
14, 223141, Note_on_c, 13, 71, 113
14, 223183, Note_off_c, 13, 59, 56
14, 223186, Note_off_c, 13, 71, 56
14, 223199, Note_on_c, 13, 59, 108
14, 223200, Note_on_c, 13, 71, 113
14, 223245, Note_off_c, 13, 71, 56
14, 223261, Note_on_c, 13, 71, 113
14, 223301, Note_off_c, 13, 59, 56
14, 223306, Note_off_c, 13, 71, 56
14, 223320, Note_on_c, 13, 67, 113
14, 223322, Note_on_c, 13, 55, 108
14, 223365, Note_off_c, 13, 67, 56
14, 223382, Note_on_c, 13, 67, 113
14, 223424, Note_off_c, 13, 55, 56
14, 223427, Note_off_c, 13, 67, 56
14, 223439, Note_on_c, 13, 62, 113
14, 223442, Note_on_c, 13, 50, 108
14, 223484, Note_off_c, 13, 62, 56
14, 223502, Note_on_c, 13, 62, 113
14, 223544, Note_off_c, 13, 50, 56
14, 223547, Note_off_c, 13, 62, 56
14, 223558, Note_on_c, 13, 55, 108
14, 223559, Note_on_c, 13, 67, 113
14, 223604, Note_off_c, 13, 67, 56
14, 223620, Note_on_c, 13, 67, 113
14, 223660, Note_off_c, 13, 55, 56
14, 223665, Note_off_c, 13, 67, 56
14, 223681, Note_on_c, 13, 67, 113
14, 223681, Note_on_c, 13, 55, 108
14, 223726, Note_off_c, 13, 67, 56
14, 223738, Note_on_c, 13, 67, 113
14, 223783, Note_off_c, 13, 67, 56
14, 223783, Note_off_c, 13, 55, 56
14, 223801, Note_on_c, 13, 62, 113
14, 223802, Note_on_c, 13, 50, 108
14, 223846, Note_off_c, 13, 62, 56
14, 223858, Note_on_c, 13, 62, 113
14, 223903, Note_off_c, 13, 62, 56
14, 223904, Note_off_c, 13, 50, 56
14, 223919, Note_on_c, 13, 47, 108
14, 223921, Note_on_c, 13, 59, 113
14, 223966, Note_off_c, 13, 59, 56
14, 223980, Note_on_c, 13, 59, 113
14, 224021, Note_off_c, 13, 47, 56
14, 224025, Note_off_c, 13, 59, 56
14, 224038, Note_on_c, 13, 50, 108
14, 224042, Note_on_c, 13, 62, 113
14, 224087, Note_off_c, 13, 62, 56
14, 224099, Note_on_c, 13, 62, 113
14, 224140, Note_off_c, 13, 50, 56
14, 224144, Note_off_c, 13, 62, 56
14, 224158, Note_on_c, 13, 67, 113
14, 224158, Note_on_c, 13, 55, 108
14, 224203, Note_off_c, 13, 67, 56
14, 224222, Note_on_c, 13, 67, 113
14, 224260, Note_off_c, 13, 55, 56
14, 224267, Note_off_c, 13, 67, 56
14, 224278, Note_on_c, 13, 62, 113
14, 224281, Note_on_c, 13, 50, 108
14, 224323, Note_off_c, 13, 62, 56
14, 224338, Note_on_c, 13, 62, 113
14, 224383, Note_off_c, 13, 62, 56
14, 224383, Note_off_c, 13, 50, 56
14, 224399, Note_on_c, 13, 59, 113
14, 224399, Note_on_c, 13, 47, 108
14, 224444, Note_off_c, 13, 59, 56
14, 224459, Note_on_c, 13, 59, 113
14, 224501, Note_off_c, 13, 47, 56
14, 224504, Note_off_c, 13, 59, 56
14, 224519, Note_on_c, 13, 62, 113
14, 224521, Note_on_c, 13, 50, 108
14, 224564, Note_off_c, 13, 62, 56
14, 224581, Note_on_c, 13, 62, 113
14, 224623, Note_off_c, 13, 50, 56
14, 224626, Note_off_c, 13, 62, 56
14, 224641, Note_on_c, 13, 67, 108
14, 224641, Note_on_c, 13, 55, 108
14, 224642, Note_on_c, 13, 43, 108
14, 225505, Note_off_c, 13, 55, 64
14, 225505, Note_off_c, 13, 67, 64
14, 225506, Note_off_c, 13, 43, 64
14, 225601, Note_on_c, 13, 62, 108
14, 225601, Note_on_c, 13, 43, 108
14, 225601, Note_on_c, 13, 55, 108
14, 225806, Note_off_c, 13, 55, 64
14, 225806, Note_off_c, 13, 62, 64
14, 226465, Note_off_c, 13, 43, 64
14, 226560, Note_on_c, 13, 43, 108
14, 226560, Note_on_c, 13, 55, 108
14, 226561, Note_on_c, 13, 62, 108
14, 226765, Note_off_c, 13, 55, 64
14, 226766, Note_off_c, 13, 62, 64
14, 227424, Note_off_c, 13, 43, 64
14, 227519, Note_on_c, 13, 43, 108
14, 227520, Note_on_c, 13, 62, 108
14, 227522, Note_on_c, 13, 55, 108
14, 227724, Note_off_c, 13, 43, 64
14, 227725, Note_off_c, 13, 62, 64
14, 227727, Note_off_c, 13, 55, 64
14, 233280, Note_on_c, 13, 63, 56
14, 233281, Note_on_c, 13, 48, 56
14, 233485, Note_off_c, 13, 63, 64
14, 233486, Note_off_c, 13, 48, 64
14, 233998, Note_on_c, 13, 50, 56
14, 234001, Note_on_c, 13, 65, 56
14, 234203, Note_off_c, 13, 50, 64
14, 234206, Note_off_c, 13, 65, 64
14, 234719, Note_on_c, 13, 63, 56
14, 234720, Note_on_c, 13, 51, 56
14, 234924, Note_off_c, 13, 63, 64
14, 234925, Note_off_c, 13, 51, 64
14, 235439, Note_on_c, 13, 62, 56
14, 235441, Note_on_c, 13, 47, 56
14, 235644, Note_off_c, 13, 62, 64
14, 235646, Note_off_c, 13, 47, 64
14, 236158, Note_on_c, 13, 60, 56
14, 236160, Note_on_c, 13, 48, 56
14, 236363, Note_off_c, 13, 60, 64
14, 236365, Note_off_c, 13, 48, 64
14, 236639, Note_on_c, 13, 46, 56
14, 236844, Note_off_c, 13, 46, 64
14, 236878, Note_on_c, 13, 44, 56
14, 236882, Note_on_c, 13, 60, 56
14, 237083, Note_off_c, 13, 44, 64
14, 237087, Note_off_c, 13, 60, 64
14, 237359, Note_on_c, 13, 44, 56
14, 237564, Note_off_c, 13, 44, 64
14, 237600, Note_on_c, 13, 58, 56
14, 237601, Note_on_c, 13, 46, 56
14, 237805, Note_off_c, 13, 58, 64
14, 237806, Note_off_c, 13, 46, 64
14, 238320, Note_on_c, 13, 64, 56
14, 238322, Note_on_c, 13, 48, 56
14, 238525, Note_off_c, 13, 64, 64
14, 238527, Note_off_c, 13, 48, 64
14, 239039, Note_on_c, 13, 68, 56
14, 239041, Note_on_c, 13, 53, 56
14, 239244, Note_off_c, 13, 68, 64
14, 239246, Note_off_c, 13, 53, 64
14, 239758, Note_on_c, 13, 55, 56
14, 239762, Note_on_c, 13, 64, 56
14, 239963, Note_off_c, 13, 55, 64
14, 239967, Note_off_c, 13, 64, 64
14, 240480, Note_on_c, 13, 56, 56
14, 240481, Note_on_c, 13, 65, 56
14, 240685, Note_off_c, 13, 56, 64
14, 240686, Note_off_c, 13, 65, 64
14, 241198, Note_on_c, 13, 46, 56
14, 241198, Note_on_c, 13, 60, 56
14, 241403, Note_off_c, 13, 60, 64
14, 241403, Note_off_c, 13, 46, 64
14, 241921, Note_on_c, 13, 60, 56
14, 241922, Note_on_c, 13, 44, 56
14, 242126, Note_off_c, 13, 60, 64
14, 242127, Note_off_c, 13, 44, 64
14, 242641, Note_on_c, 13, 44, 56
14, 242641, Note_on_c, 13, 60, 56
14, 242846, Note_off_c, 13, 60, 64
14, 242846, Note_off_c, 13, 44, 64
14, 243360, Note_on_c, 13, 43, 56
14, 243360, Note_on_c, 13, 59, 56
14, 243565, Note_off_c, 13, 59, 64
14, 243565, Note_off_c, 13, 43, 64
14, 245519, Note_on_c, 13, 43, 56
14, 245519, Note_on_c, 13, 60, 56
14, 245724, Note_off_c, 13, 60, 64
14, 245724, Note_off_c, 13, 43, 64
14, 246239, Note_on_c, 13, 59, 56
14, 246239, Note_on_c, 13, 43, 56
14, 246444, Note_off_c, 13, 43, 64
14, 246444, Note_off_c, 13, 59, 64
14, 248398, Note_on_c, 13, 43, 56
14, 248402, Note_on_c, 13, 60, 56
14, 248603, Note_off_c, 13, 43, 64
14, 248607, Note_off_c, 13, 60, 64
14, 249119, Note_on_c, 13, 59, 56
14, 249120, Note_on_c, 13, 43, 56
14, 249324, Note_off_c, 13, 59, 64
14, 249325, Note_off_c, 13, 43, 64
14, 264959, Note_on_c, 13, 74, 55
14, 264959, Note_on_c, 13, 48, 56
14, 265050, Note_off_c, 13, 48, 56
14, 265050, Note_off_c, 13, 74, 56
14, 265079, Note_on_c, 13, 74, 59
14, 265082, Note_on_c, 13, 48, 60
14, 265170, Note_off_c, 13, 74, 56
14, 265173, Note_off_c, 13, 48, 56
14, 265200, Note_on_c, 13, 74, 64
14, 265200, Note_on_c, 13, 48, 65
14, 265291, Note_off_c, 13, 48, 56
14, 265291, Note_off_c, 13, 74, 56
14, 265318, Note_on_c, 13, 74, 69
14, 265322, Note_on_c, 13, 48, 69
14, 265409, Note_off_c, 13, 74, 56
14, 265413, Note_off_c, 13, 48, 56
14, 265438, Note_on_c, 13, 48, 73
14, 265442, Note_on_c, 13, 74, 73
14, 265529, Note_off_c, 13, 48, 56
14, 265533, Note_off_c, 13, 74, 56
14, 265558, Note_on_c, 13, 48, 78
14, 265562, Note_on_c, 13, 74, 77
14, 265649, Note_off_c, 13, 48, 56
14, 265653, Note_off_c, 13, 74, 56
14, 265679, Note_on_c, 13, 74, 81
14, 265681, Note_on_c, 13, 48, 82
14, 265770, Note_off_c, 13, 74, 56
14, 265772, Note_off_c, 13, 48, 56
14, 265798, Note_on_c, 13, 48, 86
14, 265801, Note_on_c, 13, 74, 86
14, 265889, Note_off_c, 13, 48, 56
14, 265892, Note_off_c, 13, 74, 56
14, 265918, Note_on_c, 13, 48, 90
14, 265919, Note_on_c, 13, 74, 90
14, 266009, Note_off_c, 13, 48, 56
14, 266010, Note_off_c, 13, 74, 56
14, 266038, Note_on_c, 13, 48, 95
14, 266041, Note_on_c, 13, 74, 95
14, 266129, Note_off_c, 13, 48, 56
14, 266132, Note_off_c, 13, 74, 56
14, 266160, Note_on_c, 13, 74, 98
14, 266162, Note_on_c, 13, 48, 100
14, 266251, Note_off_c, 13, 74, 56
14, 266253, Note_off_c, 13, 48, 56
14, 266281, Note_on_c, 13, 48, 103
14, 266282, Note_on_c, 13, 74, 103
14, 266372, Note_off_c, 13, 48, 56
14, 266373, Note_off_c, 13, 74, 56
14, 266398, Note_on_c, 13, 76, 108
14, 266399, Note_on_c, 13, 88, 108
14, 266402, Note_on_c, 13, 36, 108
14, 266402, Note_on_c, 13, 48, 108
14, 266580, Note_off_c, 13, 76, 64
14, 266581, Note_off_c, 13, 88, 64
14, 266584, Note_off_c, 13, 48, 64
14, 266584, Note_off_c, 13, 36, 64
14, 266879, Note_on_c, 13, 55, 108
14, 266880, Note_on_c, 13, 64, 108
14, 266881, Note_on_c, 13, 48, 108
14, 266882, Note_on_c, 13, 36, 108
14, 267061, Note_off_c, 13, 55, 64
14, 267062, Note_off_c, 13, 64, 64
14, 267063, Note_off_c, 13, 48, 64
14, 267064, Note_off_c, 13, 36, 64
14, 267359, Note_on_c, 13, 55, 108
14, 267359, Note_on_c, 13, 64, 108
14, 267360, Note_on_c, 13, 36, 108
14, 267362, Note_on_c, 13, 48, 108
14, 267541, Note_off_c, 13, 64, 64
14, 267541, Note_off_c, 13, 55, 64
14, 267936, Note_off_c, 13, 36, 64
14, 267938, Note_off_c, 13, 48, 64
14, 268079, Note_on_c, 13, 43, 108
14, 268080, Note_on_c, 13, 55, 108
14, 268080, Note_on_c, 13, 62, 108
14, 268170, Note_off_c, 13, 43, 56
14, 268171, Note_off_c, 13, 62, 56
14, 268171, Note_off_c, 13, 55, 56
14, 268320, Note_on_c, 13, 55, 108
14, 268322, Note_on_c, 13, 64, 108
14, 268322, Note_on_c, 13, 48, 108
14, 268411, Note_off_c, 13, 55, 56
14, 268413, Note_off_c, 13, 48, 56
14, 268413, Note_off_c, 13, 64, 56
14, 268560, Note_on_c, 13, 65, 108
14, 268561, Note_on_c, 13, 43, 108
14, 268561, Note_on_c, 13, 55, 108
14, 268651, Note_off_c, 13, 65, 56
14, 268652, Note_off_c, 13, 55, 56
14, 268652, Note_off_c, 13, 43, 56
14, 268798, Note_on_c, 13, 55, 108
14, 268802, Note_on_c, 13, 64, 108
14, 268802, Note_on_c, 13, 36, 108
14, 268889, Note_off_c, 13, 55, 56
14, 268893, Note_off_c, 13, 36, 56
14, 268893, Note_off_c, 13, 64, 56
14, 269038, Note_on_c, 13, 55, 108
14, 269040, Note_on_c, 13, 43, 108
14, 269042, Note_on_c, 13, 65, 108
14, 269129, Note_off_c, 13, 55, 56
14, 269131, Note_off_c, 13, 43, 56
14, 269133, Note_off_c, 13, 65, 56
14, 269278, Note_on_c, 13, 64, 113
14, 269278, Note_on_c, 13, 36, 108
14, 269280, Note_on_c, 13, 55, 113
14, 269323, Note_off_c, 13, 64, 56
14, 269325, Note_off_c, 13, 55, 56
14, 269339, Note_on_c, 13, 60, 113
14, 269384, Note_off_c, 13, 60, 56
14, 269400, Note_on_c, 13, 60, 113
14, 269445, Note_off_c, 13, 60, 56
14, 269458, Note_on_c, 13, 60, 113
14, 269503, Note_off_c, 13, 60, 56
14, 269522, Note_on_c, 13, 60, 113
14, 269567, Note_off_c, 13, 60, 56
14, 269578, Note_on_c, 13, 60, 113
14, 269623, Note_off_c, 13, 60, 56
14, 269641, Note_on_c, 13, 60, 113
14, 269686, Note_off_c, 13, 60, 56
14, 269698, Note_on_c, 13, 60, 113
14, 269743, Note_off_c, 13, 60, 56
14, 269758, Note_on_c, 13, 60, 113
14, 269803, Note_off_c, 13, 60, 56
14, 269818, Note_on_c, 13, 60, 113
14, 269854, Note_off_c, 13, 36, 64
14, 269863, Note_off_c, 13, 60, 56
14, 269878, Note_on_c, 13, 60, 113
14, 269923, Note_off_c, 13, 60, 56
14, 269938, Note_on_c, 13, 60, 113
14, 269983, Note_off_c, 13, 60, 56
14, 269998, Note_on_c, 13, 48, 108
14, 270134, Note_off_c, 13, 48, 64
14, 270182, Note_on_c, 13, 48, 113
14, 270227, Note_off_c, 13, 48, 56
14, 270239, Note_on_c, 13, 43, 108
14, 270239, Note_on_c, 13, 59, 113
14, 270284, Note_off_c, 13, 59, 56
14, 270299, Note_on_c, 13, 59, 113
14, 270344, Note_off_c, 13, 59, 56
14, 270359, Note_on_c, 13, 59, 113
14, 270404, Note_off_c, 13, 59, 56
14, 270418, Note_on_c, 13, 59, 113
14, 270463, Note_off_c, 13, 59, 56
14, 270480, Note_on_c, 13, 59, 113
14, 270525, Note_off_c, 13, 59, 56
14, 270538, Note_on_c, 13, 59, 113
14, 270583, Note_off_c, 13, 59, 56
14, 270599, Note_on_c, 13, 59, 113
14, 270644, Note_off_c, 13, 59, 56
14, 270658, Note_on_c, 13, 59, 113
14, 270703, Note_off_c, 13, 59, 56
14, 270720, Note_on_c, 13, 59, 113
14, 270765, Note_off_c, 13, 59, 56
14, 270779, Note_on_c, 13, 59, 113
14, 270815, Note_off_c, 13, 43, 64
14, 270824, Note_off_c, 13, 59, 56
14, 270838, Note_on_c, 13, 59, 113
14, 270883, Note_off_c, 13, 59, 56
14, 270901, Note_on_c, 13, 59, 113
14, 270946, Note_off_c, 13, 59, 56
14, 270958, Note_on_c, 13, 43, 108
14, 270959, Note_on_c, 13, 59, 113
14, 271004, Note_off_c, 13, 59, 56
14, 271018, Note_on_c, 13, 59, 113
14, 271063, Note_off_c, 13, 59, 56
14, 271078, Note_on_c, 13, 59, 113
14, 271094, Note_off_c, 13, 43, 64
14, 271123, Note_off_c, 13, 59, 56
14, 271138, Note_on_c, 13, 59, 113
14, 271138, Note_on_c, 13, 43, 113
14, 271183, Note_off_c, 13, 43, 56
14, 271183, Note_off_c, 13, 59, 56
14, 271198, Note_on_c, 13, 60, 113
14, 271199, Note_on_c, 13, 48, 108
14, 271243, Note_off_c, 13, 60, 56
14, 271261, Note_on_c, 13, 60, 113
14, 271306, Note_off_c, 13, 60, 56
14, 271320, Note_on_c, 13, 60, 113
14, 271365, Note_off_c, 13, 60, 56
14, 271380, Note_on_c, 13, 60, 113
14, 271425, Note_off_c, 13, 60, 56
14, 271438, Note_on_c, 13, 60, 113
14, 271483, Note_off_c, 13, 60, 56
14, 271498, Note_on_c, 13, 60, 113
14, 271543, Note_off_c, 13, 60, 56
14, 271560, Note_on_c, 13, 60, 113
14, 271605, Note_off_c, 13, 60, 56
14, 271621, Note_on_c, 13, 60, 113
14, 271666, Note_off_c, 13, 60, 56
14, 271682, Note_on_c, 13, 60, 113
14, 271727, Note_off_c, 13, 60, 56
14, 271738, Note_on_c, 13, 60, 113
14, 271783, Note_off_c, 13, 60, 56
14, 271798, Note_on_c, 13, 60, 113
14, 271843, Note_off_c, 13, 60, 56
14, 271860, Note_on_c, 13, 60, 113
14, 271905, Note_off_c, 13, 60, 56
14, 271919, Note_on_c, 13, 60, 113
14, 271964, Note_off_c, 13, 60, 56
14, 271967, Note_off_c, 13, 48, 64
14, 271981, Note_on_c, 13, 60, 113
14, 272026, Note_off_c, 13, 60, 56
14, 272040, Note_on_c, 13, 60, 113
14, 272085, Note_off_c, 13, 60, 56
14, 272098, Note_on_c, 13, 60, 113
14, 272143, Note_off_c, 13, 60, 56
14, 272158, Note_on_c, 13, 45, 108
14, 272160, Note_on_c, 13, 60, 113
14, 272205, Note_off_c, 13, 60, 56
14, 272220, Note_on_c, 13, 60, 113
14, 272265, Note_off_c, 13, 60, 56
14, 272280, Note_on_c, 13, 60, 113
14, 272325, Note_off_c, 13, 60, 56
14, 272340, Note_on_c, 13, 60, 113
14, 272385, Note_off_c, 13, 60, 56
14, 272401, Note_on_c, 13, 60, 113
14, 272446, Note_off_c, 13, 60, 56
14, 272458, Note_on_c, 13, 60, 113
14, 272503, Note_off_c, 13, 60, 56
14, 272519, Note_on_c, 13, 60, 113
14, 272542, Note_off_c, 13, 45, 64
14, 272564, Note_off_c, 13, 60, 56
14, 272582, Note_on_c, 13, 60, 113
14, 272627, Note_off_c, 13, 60, 56
14, 272638, Note_on_c, 13, 41, 108
14, 272640, Note_on_c, 13, 60, 113
14, 272685, Note_off_c, 13, 60, 56
14, 272699, Note_on_c, 13, 60, 113
14, 272744, Note_off_c, 13, 60, 56
14, 272762, Note_on_c, 13, 60, 113
14, 272807, Note_off_c, 13, 60, 56
14, 272819, Note_on_c, 13, 60, 113
14, 272864, Note_off_c, 13, 60, 56
14, 272878, Note_on_c, 13, 60, 113
14, 272923, Note_off_c, 13, 60, 56
14, 272941, Note_on_c, 13, 60, 113
14, 272986, Note_off_c, 13, 60, 56
14, 272998, Note_on_c, 13, 60, 113
14, 273022, Note_off_c, 13, 41, 64
14, 273043, Note_off_c, 13, 60, 56
14, 273060, Note_on_c, 13, 60, 113
14, 273105, Note_off_c, 13, 60, 56
14, 273120, Note_on_c, 13, 40, 108
14, 273122, Note_on_c, 13, 60, 113
14, 273167, Note_off_c, 13, 60, 56
14, 273181, Note_on_c, 13, 60, 113
14, 273211, Note_off_c, 13, 40, 56
14, 273226, Note_off_c, 13, 60, 56
14, 273239, Note_on_c, 13, 41, 108
14, 273240, Note_on_c, 13, 60, 113
14, 273285, Note_off_c, 13, 60, 56
14, 273299, Note_on_c, 13, 60, 113
14, 273330, Note_off_c, 13, 41, 56
14, 273344, Note_off_c, 13, 60, 56
14, 273359, Note_on_c, 13, 60, 113
14, 273362, Note_on_c, 13, 40, 108
14, 273404, Note_off_c, 13, 60, 56
14, 273421, Note_on_c, 13, 60, 113
14, 273453, Note_off_c, 13, 40, 56
14, 273466, Note_off_c, 13, 60, 56
14, 273478, Note_on_c, 13, 60, 113
14, 273482, Note_on_c, 13, 38, 108
14, 273523, Note_off_c, 13, 60, 56
14, 273542, Note_on_c, 13, 60, 113
14, 273573, Note_off_c, 13, 38, 56
14, 273587, Note_off_c, 13, 60, 56
14, 273598, Note_on_c, 13, 36, 108
14, 273598, Note_on_c, 13, 60, 113
14, 273643, Note_off_c, 13, 60, 56
14, 273659, Note_on_c, 13, 60, 113
14, 273704, Note_off_c, 13, 60, 56
14, 273720, Note_on_c, 13, 60, 113
14, 273765, Note_off_c, 13, 60, 56
14, 273780, Note_on_c, 13, 60, 113
14, 273825, Note_off_c, 13, 60, 56
14, 273839, Note_on_c, 13, 60, 113
14, 273884, Note_off_c, 13, 60, 56
14, 273900, Note_on_c, 13, 60, 113
14, 273945, Note_off_c, 13, 60, 56
14, 273960, Note_on_c, 13, 60, 113
14, 273982, Note_off_c, 13, 36, 64
14, 274005, Note_off_c, 13, 60, 56
14, 274022, Note_on_c, 13, 60, 113
14, 274067, Note_off_c, 13, 60, 56
14, 274079, Note_on_c, 13, 45, 108
14, 274082, Note_on_c, 13, 60, 113
14, 274127, Note_off_c, 13, 60, 56
14, 274142, Note_on_c, 13, 60, 113
14, 274187, Note_off_c, 13, 60, 56
14, 274201, Note_on_c, 13, 60, 113
14, 274246, Note_off_c, 13, 60, 56
14, 274259, Note_on_c, 13, 60, 113
14, 274304, Note_off_c, 13, 60, 56
14, 274319, Note_on_c, 13, 60, 113
14, 274364, Note_off_c, 13, 60, 56
14, 274380, Note_on_c, 13, 60, 113
14, 274425, Note_off_c, 13, 60, 56
14, 274438, Note_on_c, 13, 60, 113
14, 274463, Note_off_c, 13, 45, 64
14, 274483, Note_off_c, 13, 60, 56
14, 274501, Note_on_c, 13, 60, 113
14, 274546, Note_off_c, 13, 60, 56
14, 274561, Note_on_c, 13, 41, 108
14, 274561, Note_on_c, 13, 60, 113
14, 274606, Note_off_c, 13, 60, 56
14, 274622, Note_on_c, 13, 60, 113
14, 274667, Note_off_c, 13, 60, 56
14, 274679, Note_on_c, 13, 60, 113
14, 274724, Note_off_c, 13, 60, 56
14, 274741, Note_on_c, 13, 60, 113
14, 274786, Note_off_c, 13, 60, 56
14, 274801, Note_on_c, 13, 60, 113
14, 274846, Note_off_c, 13, 60, 56
14, 274859, Note_on_c, 13, 60, 113
14, 274904, Note_off_c, 13, 60, 56
14, 274921, Note_on_c, 13, 60, 113
14, 274945, Note_off_c, 13, 41, 64
14, 274966, Note_off_c, 13, 60, 56
14, 274981, Note_on_c, 13, 60, 113
14, 275026, Note_off_c, 13, 60, 56
14, 275038, Note_on_c, 13, 40, 108
14, 275040, Note_on_c, 13, 60, 113
14, 275085, Note_off_c, 13, 60, 56
14, 275101, Note_on_c, 13, 60, 113
14, 275129, Note_off_c, 13, 40, 56
14, 275146, Note_off_c, 13, 60, 56
14, 275158, Note_on_c, 13, 60, 113
14, 275162, Note_on_c, 13, 41, 108
14, 275203, Note_off_c, 13, 60, 56
14, 275220, Note_on_c, 13, 60, 113
14, 275253, Note_off_c, 13, 41, 56
14, 275265, Note_off_c, 13, 60, 56
14, 275278, Note_on_c, 13, 60, 113
14, 275280, Note_on_c, 13, 40, 108
14, 275323, Note_off_c, 13, 60, 56
14, 275341, Note_on_c, 13, 60, 113
14, 275371, Note_off_c, 13, 40, 56
14, 275386, Note_off_c, 13, 60, 56
14, 275398, Note_on_c, 13, 38, 108
14, 275400, Note_on_c, 13, 60, 113
14, 275445, Note_off_c, 13, 60, 56
14, 275460, Note_on_c, 13, 60, 113
14, 275489, Note_off_c, 13, 38, 56
14, 275505, Note_off_c, 13, 60, 56
14, 275520, Note_on_c, 13, 36, 108
14, 275522, Note_on_c, 13, 60, 113
14, 275567, Note_off_c, 13, 60, 56
14, 275579, Note_on_c, 13, 60, 113
14, 275624, Note_off_c, 13, 60, 56
14, 275638, Note_on_c, 13, 60, 113
14, 275683, Note_off_c, 13, 60, 56
14, 275700, Note_on_c, 13, 60, 113
14, 275745, Note_off_c, 13, 60, 56
14, 275760, Note_on_c, 13, 60, 113
14, 275805, Note_off_c, 13, 60, 56
14, 275822, Note_on_c, 13, 60, 113
14, 275867, Note_off_c, 13, 60, 56
14, 275880, Note_on_c, 13, 60, 113
14, 275904, Note_off_c, 13, 36, 64
14, 275925, Note_off_c, 13, 60, 56
14, 275941, Note_on_c, 13, 60, 113
14, 275986, Note_off_c, 13, 60, 56
14, 275998, Note_on_c, 13, 45, 108
14, 275998, Note_on_c, 13, 60, 113
14, 276043, Note_off_c, 13, 60, 56
14, 276059, Note_on_c, 13, 60, 113
14, 276104, Note_off_c, 13, 60, 56
14, 276118, Note_on_c, 13, 60, 113
14, 276163, Note_off_c, 13, 60, 56
14, 276182, Note_on_c, 13, 60, 113
14, 276227, Note_off_c, 13, 60, 56
14, 276242, Note_on_c, 13, 60, 113
14, 276287, Note_off_c, 13, 60, 56
14, 276298, Note_on_c, 13, 60, 113
14, 276343, Note_off_c, 13, 60, 56
14, 276362, Note_on_c, 13, 60, 113
14, 276382, Note_off_c, 13, 45, 64
14, 276407, Note_off_c, 13, 60, 56
14, 276422, Note_on_c, 13, 60, 113
14, 276467, Note_off_c, 13, 60, 56
14, 276482, Note_on_c, 13, 41, 108
14, 276482, Note_on_c, 13, 60, 113
14, 276527, Note_off_c, 13, 60, 56
14, 276541, Note_on_c, 13, 60, 113
14, 276586, Note_off_c, 13, 60, 56
14, 276602, Note_on_c, 13, 60, 113
14, 276647, Note_off_c, 13, 60, 56
14, 276661, Note_on_c, 13, 60, 113
14, 276706, Note_off_c, 13, 60, 56
14, 276721, Note_on_c, 13, 60, 113
14, 276766, Note_off_c, 13, 60, 56
14, 276780, Note_on_c, 13, 60, 113
14, 276825, Note_off_c, 13, 60, 56
14, 276838, Note_on_c, 13, 60, 113
14, 276866, Note_off_c, 13, 41, 64
14, 276883, Note_off_c, 13, 60, 56
14, 276898, Note_on_c, 13, 60, 113
14, 276943, Note_off_c, 13, 60, 56
14, 276961, Note_on_c, 13, 40, 108
14, 276962, Note_on_c, 13, 60, 113
14, 277007, Note_off_c, 13, 60, 56
14, 277018, Note_on_c, 13, 60, 113
14, 277052, Note_off_c, 13, 40, 56
14, 277063, Note_off_c, 13, 60, 56
14, 277079, Note_on_c, 13, 60, 113
14, 277081, Note_on_c, 13, 41, 108
14, 277124, Note_off_c, 13, 60, 56
14, 277140, Note_on_c, 13, 60, 113
14, 277172, Note_off_c, 13, 41, 56
14, 277185, Note_off_c, 13, 60, 56
14, 277200, Note_on_c, 13, 40, 108
14, 277202, Note_on_c, 13, 60, 113
14, 277247, Note_off_c, 13, 60, 56
14, 277259, Note_on_c, 13, 60, 113
14, 277291, Note_off_c, 13, 40, 56
14, 277304, Note_off_c, 13, 60, 56
14, 277321, Note_on_c, 13, 38, 108
14, 277322, Note_on_c, 13, 60, 113
14, 277367, Note_off_c, 13, 60, 56
14, 277379, Note_on_c, 13, 60, 113
14, 277412, Note_off_c, 13, 38, 56
14, 277424, Note_off_c, 13, 60, 56
14, 277439, Note_on_c, 13, 60, 113
14, 277442, Note_on_c, 13, 36, 108
14, 277484, Note_off_c, 13, 60, 56
14, 277500, Note_on_c, 13, 60, 113
14, 277545, Note_off_c, 13, 60, 56
14, 277558, Note_on_c, 13, 60, 113
14, 277603, Note_off_c, 13, 60, 56
14, 277621, Note_on_c, 13, 60, 113
14, 277624, Note_off_c, 13, 36, 64
14, 277666, Note_off_c, 13, 60, 56
14, 277680, Note_on_c, 13, 60, 113
14, 277681, Note_on_c, 13, 48, 108
14, 277725, Note_off_c, 13, 60, 56
14, 277739, Note_on_c, 13, 60, 113
14, 277784, Note_off_c, 13, 60, 56
14, 277798, Note_on_c, 13, 60, 113
14, 277817, Note_off_c, 13, 48, 64
14, 277843, Note_off_c, 13, 60, 56
14, 277858, Note_on_c, 13, 48, 113
14, 277862, Note_on_c, 13, 60, 113
14, 277903, Note_off_c, 13, 48, 56
14, 277907, Note_off_c, 13, 60, 56
14, 277918, Note_on_c, 13, 65, 108
14, 277920, Note_on_c, 13, 55, 108
14, 277921, Note_on_c, 13, 47, 108
14, 278100, Note_off_c, 13, 65, 64
14, 278102, Note_off_c, 13, 55, 64
14, 278161, Note_on_c, 13, 65, 108
14, 278162, Note_on_c, 13, 55, 108
14, 278297, Note_off_c, 13, 65, 64
14, 278298, Note_off_c, 13, 55, 64
14, 278305, Note_off_c, 13, 47, 64
14, 278338, Note_on_c, 13, 55, 113
14, 278342, Note_on_c, 13, 65, 113
14, 278383, Note_off_c, 13, 55, 56
14, 278387, Note_off_c, 13, 65, 56
14, 278398, Note_on_c, 13, 48, 108
14, 278399, Note_on_c, 13, 55, 108
14, 278400, Note_on_c, 13, 64, 108
14, 278581, Note_off_c, 13, 55, 64
14, 278582, Note_off_c, 13, 64, 64
14, 278640, Note_on_c, 13, 55, 108
14, 278640, Note_on_c, 13, 64, 108
14, 278776, Note_off_c, 13, 64, 64
14, 278776, Note_off_c, 13, 55, 64
14, 278782, Note_off_c, 13, 48, 64
14, 278818, Note_on_c, 13, 55, 113
14, 278820, Note_on_c, 13, 64, 113
14, 278863, Note_off_c, 13, 55, 56
14, 278865, Note_off_c, 13, 64, 56
14, 278879, Note_on_c, 13, 55, 108
14, 278880, Note_on_c, 13, 62, 108
14, 278882, Note_on_c, 13, 43, 108
14, 279061, Note_off_c, 13, 55, 64
14, 279062, Note_off_c, 13, 62, 64
14, 279064, Note_off_c, 13, 43, 64
14, 279118, Note_on_c, 13, 43, 108
14, 279120, Note_on_c, 13, 55, 108
14, 279122, Note_on_c, 13, 62, 108
14, 279502, Note_off_c, 13, 43, 64
14, 279504, Note_off_c, 13, 55, 64
14, 279506, Note_off_c, 13, 62, 64
14, 279598, Note_on_c, 13, 64, 108
14, 279600, Note_on_c, 13, 55, 108
14, 279601, Note_on_c, 13, 48, 108
14, 279734, Note_off_c, 13, 64, 64
14, 279736, Note_off_c, 13, 55, 64
14, 279737, Note_off_c, 13, 48, 64
14, 279778, Note_on_c, 13, 55, 113
14, 279778, Note_on_c, 13, 64, 113
14, 279781, Note_on_c, 13, 48, 113
14, 279823, Note_off_c, 13, 64, 56
14, 279823, Note_off_c, 13, 55, 56
14, 279826, Note_off_c, 13, 48, 56
14, 279840, Note_on_c, 13, 47, 108
14, 279841, Note_on_c, 13, 55, 108
14, 279842, Note_on_c, 13, 65, 108
14, 280023, Note_off_c, 13, 55, 64
14, 280024, Note_off_c, 13, 65, 64
14, 280080, Note_on_c, 13, 65, 108
14, 280080, Note_on_c, 13, 55, 108
14, 280216, Note_off_c, 13, 55, 64
14, 280216, Note_off_c, 13, 65, 64
14, 280224, Note_off_c, 13, 47, 64
14, 280258, Note_on_c, 13, 55, 113
14, 280258, Note_on_c, 13, 65, 113
14, 280303, Note_off_c, 13, 65, 56
14, 280303, Note_off_c, 13, 55, 56
14, 280318, Note_on_c, 13, 48, 108
14, 280318, Note_on_c, 13, 55, 108
14, 280321, Note_on_c, 13, 64, 108
14, 280500, Note_off_c, 13, 55, 64
14, 280503, Note_off_c, 13, 64, 64
14, 280558, Note_on_c, 13, 64, 108
14, 280559, Note_on_c, 13, 55, 108
14, 280694, Note_off_c, 13, 64, 64
14, 280695, Note_off_c, 13, 55, 64
14, 280702, Note_off_c, 13, 48, 64
14, 280738, Note_on_c, 13, 55, 113
14, 280741, Note_on_c, 13, 64, 113
14, 280783, Note_off_c, 13, 55, 56
14, 280786, Note_off_c, 13, 64, 56
14, 280798, Note_on_c, 13, 43, 108
14, 280799, Note_on_c, 13, 62, 108
14, 280799, Note_on_c, 13, 55, 108
14, 280980, Note_off_c, 13, 43, 64
14, 280981, Note_off_c, 13, 55, 64
14, 280981, Note_off_c, 13, 62, 64
14, 281038, Note_on_c, 13, 55, 108
14, 281038, Note_on_c, 13, 62, 108
14, 281039, Note_on_c, 13, 43, 108
14, 281422, Note_off_c, 13, 62, 64
14, 281422, Note_off_c, 13, 55, 64
14, 281423, Note_off_c, 13, 43, 64
14, 281520, Note_on_c, 13, 48, 108
14, 281520, Note_on_c, 13, 55, 108
14, 281521, Note_on_c, 13, 64, 108
14, 281656, Note_off_c, 13, 55, 64
14, 281656, Note_off_c, 13, 48, 64
14, 281657, Note_off_c, 13, 64, 64
14, 281700, Note_on_c, 13, 55, 113
14, 281700, Note_on_c, 13, 64, 113
14, 281701, Note_on_c, 13, 48, 113
14, 281745, Note_off_c, 13, 64, 56
14, 281745, Note_off_c, 13, 55, 56
14, 281746, Note_off_c, 13, 48, 56
14, 281759, Note_on_c, 13, 47, 108
14, 281760, Note_on_c, 13, 55, 108
14, 281762, Note_on_c, 13, 65, 108
14, 281895, Note_off_c, 13, 47, 64
14, 281896, Note_off_c, 13, 55, 64
14, 281898, Note_off_c, 13, 65, 64
14, 281938, Note_on_c, 13, 65, 113
14, 281940, Note_on_c, 13, 47, 113
14, 281942, Note_on_c, 13, 55, 113
14, 281983, Note_off_c, 13, 65, 56
14, 281985, Note_off_c, 13, 47, 56
14, 281987, Note_off_c, 13, 55, 56
14, 281998, Note_on_c, 13, 55, 108
14, 282000, Note_on_c, 13, 43, 108
14, 282000, Note_on_c, 13, 65, 108
14, 282134, Note_off_c, 13, 55, 64
14, 282136, Note_off_c, 13, 65, 64
14, 282136, Note_off_c, 13, 43, 64
14, 282180, Note_on_c, 13, 43, 113
14, 282180, Note_on_c, 13, 65, 113
14, 282181, Note_on_c, 13, 55, 113
14, 282225, Note_off_c, 13, 65, 56
14, 282225, Note_off_c, 13, 43, 56
14, 282226, Note_off_c, 13, 55, 56
14, 282239, Note_on_c, 13, 48, 108
14, 282240, Note_on_c, 13, 55, 108
14, 282241, Note_on_c, 13, 64, 108
14, 282375, Note_off_c, 13, 48, 64
14, 282376, Note_off_c, 13, 55, 64
14, 282377, Note_off_c, 13, 64, 64
14, 282419, Note_on_c, 13, 64, 113
14, 282420, Note_on_c, 13, 48, 113
14, 282422, Note_on_c, 13, 55, 113
14, 282464, Note_off_c, 13, 64, 56
14, 282465, Note_off_c, 13, 48, 56
14, 282467, Note_off_c, 13, 55, 56
14, 282478, Note_on_c, 13, 55, 108
14, 282479, Note_on_c, 13, 52, 108
14, 282482, Note_on_c, 13, 64, 108
14, 282614, Note_off_c, 13, 55, 64
14, 282615, Note_off_c, 13, 52, 64
14, 282618, Note_off_c, 13, 64, 64
14, 282660, Note_on_c, 13, 55, 113
14, 282660, Note_on_c, 13, 52, 113
14, 282661, Note_on_c, 13, 64, 113
14, 282705, Note_off_c, 13, 52, 56
14, 282705, Note_off_c, 13, 55, 56
14, 282706, Note_off_c, 13, 64, 56
14, 282718, Note_on_c, 13, 55, 113
14, 282763, Note_off_c, 13, 55, 56
14, 282782, Note_on_c, 13, 55, 113
14, 282827, Note_off_c, 13, 55, 56
14, 282839, Note_on_c, 13, 43, 108
14, 282842, Note_on_c, 13, 55, 113
14, 282887, Note_off_c, 13, 55, 56
14, 282901, Note_on_c, 13, 55, 113
14, 282930, Note_off_c, 13, 43, 56
14, 282946, Note_off_c, 13, 55, 56
14, 282958, Note_on_c, 13, 43, 108
14, 282962, Note_on_c, 13, 55, 113
14, 283007, Note_off_c, 13, 55, 56
14, 283020, Note_on_c, 13, 55, 113
14, 283065, Note_off_c, 13, 55, 56
14, 283081, Note_on_c, 13, 55, 113
14, 283126, Note_off_c, 13, 55, 56
14, 283140, Note_off_c, 13, 43, 64
14, 283140, Note_on_c, 13, 55, 113
14, 283185, Note_off_c, 13, 55, 56
14, 283202, Note_on_c, 13, 55, 113
14, 283247, Note_off_c, 13, 55, 56
14, 283261, Note_on_c, 13, 55, 113
14, 283306, Note_off_c, 13, 55, 56
14, 283320, Note_on_c, 13, 55, 113
14, 283365, Note_off_c, 13, 55, 56
14, 283378, Note_on_c, 13, 55, 113
14, 283423, Note_off_c, 13, 55, 56
14, 283442, Note_on_c, 13, 55, 113
14, 283487, Note_off_c, 13, 55, 56
14, 283502, Note_on_c, 13, 55, 113
14, 283547, Note_off_c, 13, 55, 56
14, 283559, Note_on_c, 13, 55, 113
14, 283604, Note_off_c, 13, 55, 56
14, 283622, Note_on_c, 13, 55, 113
14, 283667, Note_off_c, 13, 55, 56
14, 283681, Note_on_c, 13, 55, 113
14, 283726, Note_off_c, 13, 55, 56
14, 283741, Note_on_c, 13, 55, 113
14, 283786, Note_off_c, 13, 55, 56
14, 283800, Note_on_c, 13, 43, 108
14, 283800, Note_on_c, 13, 55, 113
14, 283845, Note_off_c, 13, 55, 56
14, 283862, Note_on_c, 13, 55, 113
14, 283891, Note_off_c, 13, 43, 56
14, 283907, Note_off_c, 13, 55, 56
14, 283918, Note_on_c, 13, 55, 113
14, 283922, Note_on_c, 13, 43, 108
14, 283963, Note_off_c, 13, 55, 56
14, 283978, Note_on_c, 13, 55, 113
14, 284023, Note_off_c, 13, 55, 56
14, 284042, Note_on_c, 13, 55, 113
14, 284087, Note_off_c, 13, 55, 56
14, 284099, Note_on_c, 13, 55, 113
14, 284104, Note_off_c, 13, 43, 64
14, 284144, Note_off_c, 13, 55, 56
14, 284162, Note_on_c, 13, 55, 113
14, 284207, Note_off_c, 13, 55, 56
14, 284222, Note_on_c, 13, 55, 113
14, 284267, Note_off_c, 13, 55, 56
14, 284278, Note_on_c, 13, 55, 113
14, 284323, Note_off_c, 13, 55, 56
14, 284341, Note_on_c, 13, 55, 113
14, 284386, Note_off_c, 13, 55, 56
14, 284400, Note_on_c, 13, 55, 113
14, 284445, Note_off_c, 13, 55, 56
14, 284460, Note_on_c, 13, 55, 113
14, 284505, Note_off_c, 13, 55, 56
14, 284520, Note_on_c, 13, 55, 113
14, 284565, Note_off_c, 13, 55, 56
14, 284579, Note_on_c, 13, 55, 113
14, 284624, Note_off_c, 13, 55, 56
14, 284641, Note_on_c, 13, 55, 113
14, 284686, Note_off_c, 13, 55, 56
14, 284701, Note_on_c, 13, 55, 113
14, 284746, Note_off_c, 13, 55, 56
14, 284758, Note_on_c, 13, 43, 108
14, 284758, Note_on_c, 13, 55, 113
14, 284803, Note_off_c, 13, 55, 56
14, 284819, Note_on_c, 13, 55, 113
14, 284849, Note_off_c, 13, 43, 56
14, 284864, Note_off_c, 13, 55, 56
14, 284878, Note_on_c, 13, 55, 113
14, 284882, Note_on_c, 13, 43, 108
14, 284923, Note_off_c, 13, 55, 56
14, 284939, Note_on_c, 13, 55, 113
14, 284984, Note_off_c, 13, 55, 56
14, 285001, Note_on_c, 13, 55, 113
14, 285046, Note_off_c, 13, 55, 56
14, 285059, Note_on_c, 13, 55, 113
14, 285064, Note_off_c, 13, 43, 64
14, 285104, Note_off_c, 13, 55, 56
14, 285118, Note_on_c, 13, 55, 113
14, 285163, Note_off_c, 13, 55, 56
14, 285178, Note_on_c, 13, 55, 113
14, 285223, Note_off_c, 13, 55, 56
14, 285240, Note_on_c, 13, 55, 113
14, 285242, Note_on_c, 13, 43, 108
14, 285285, Note_off_c, 13, 55, 56
14, 285299, Note_on_c, 13, 55, 113
14, 285333, Note_off_c, 13, 43, 56
14, 285344, Note_off_c, 13, 55, 56
14, 285358, Note_on_c, 13, 55, 113
14, 285362, Note_on_c, 13, 43, 108
14, 285403, Note_off_c, 13, 55, 56
14, 285422, Note_on_c, 13, 55, 113
14, 285467, Note_off_c, 13, 55, 56
14, 285481, Note_on_c, 13, 55, 113
14, 285526, Note_off_c, 13, 55, 56
14, 285540, Note_on_c, 13, 55, 113
14, 285544, Note_off_c, 13, 43, 64
14, 285585, Note_off_c, 13, 55, 56
14, 285600, Note_on_c, 13, 55, 113
14, 285645, Note_off_c, 13, 55, 56
14, 285659, Note_on_c, 13, 55, 113
14, 285704, Note_off_c, 13, 55, 56
14, 285721, Note_on_c, 13, 55, 113
14, 285722, Note_on_c, 13, 43, 108
14, 285766, Note_off_c, 13, 55, 56
14, 285782, Note_on_c, 13, 55, 113
14, 285813, Note_off_c, 13, 43, 56
14, 285827, Note_off_c, 13, 55, 56
14, 285838, Note_on_c, 13, 43, 108
14, 285840, Note_on_c, 13, 55, 113
14, 285885, Note_off_c, 13, 55, 56
14, 285898, Note_on_c, 13, 55, 113
14, 285943, Note_off_c, 13, 55, 56
14, 285962, Note_on_c, 13, 55, 113
14, 286007, Note_off_c, 13, 55, 56
14, 286020, Note_off_c, 13, 43, 64
14, 286020, Note_on_c, 13, 55, 113
14, 286065, Note_off_c, 13, 55, 56
14, 286078, Note_on_c, 13, 55, 113
14, 286123, Note_off_c, 13, 55, 56
14, 286140, Note_on_c, 13, 55, 113
14, 286185, Note_off_c, 13, 55, 56
14, 286198, Note_on_c, 13, 55, 113
14, 286199, Note_on_c, 13, 43, 108
14, 286243, Note_off_c, 13, 55, 56
14, 286259, Note_on_c, 13, 55, 113
14, 286290, Note_off_c, 13, 43, 56
14, 286304, Note_off_c, 13, 55, 56
14, 286318, Note_on_c, 13, 43, 108
14, 286322, Note_on_c, 13, 55, 113
14, 286367, Note_off_c, 13, 55, 56
14, 286379, Note_on_c, 13, 55, 113
14, 286424, Note_off_c, 13, 55, 56
14, 286440, Note_on_c, 13, 55, 113
14, 286485, Note_off_c, 13, 55, 56
14, 286500, Note_off_c, 13, 43, 64
14, 286500, Note_on_c, 13, 55, 113
14, 286545, Note_off_c, 13, 55, 56
14, 286560, Note_on_c, 13, 55, 108
14, 286560, Note_on_c, 13, 43, 108
14, 286562, Note_on_c, 13, 62, 108
14, 286628, Note_off_c, 13, 55, 56
14, 286630, Note_off_c, 13, 62, 56
14, 286682, Note_on_c, 13, 79, 108
14, 286742, Note_off_c, 13, 43, 64
14, 286790, Note_off_c, 13, 79, 56
14, 286800, Note_on_c, 13, 77, 108
14, 286891, Note_off_c, 13, 77, 56
14, 286921, Note_on_c, 13, 76, 108
14, 286989, Note_off_c, 13, 76, 56
14, 287041, Note_on_c, 13, 74, 108
14, 287109, Note_off_c, 13, 74, 56
14, 287161, Note_on_c, 13, 76, 108
14, 287269, Note_off_c, 13, 76, 56
14, 287281, Note_on_c, 13, 74, 108
14, 287372, Note_off_c, 13, 74, 56
14, 287402, Note_on_c, 13, 72, 108
14, 287470, Note_off_c, 13, 72, 56
14, 287520, Note_on_c, 13, 71, 108
14, 287588, Note_off_c, 13, 71, 56
14, 287639, Note_on_c, 13, 64, 108
14, 287640, Note_on_c, 13, 76, 108
14, 287730, Note_off_c, 13, 64, 56
14, 287748, Note_off_c, 13, 76, 56
14, 287761, Note_on_c, 13, 74, 108
14, 287762, Note_on_c, 13, 62, 108
14, 287852, Note_off_c, 13, 74, 56
14, 287853, Note_off_c, 13, 62, 56
14, 287881, Note_on_c, 13, 72, 108
14, 287882, Note_on_c, 13, 60, 108
14, 287949, Note_off_c, 13, 72, 56
14, 287950, Note_off_c, 13, 60, 56
14, 288001, Note_on_c, 13, 71, 108
14, 288002, Note_on_c, 13, 59, 108
14, 288069, Note_off_c, 13, 71, 56
14, 288070, Note_off_c, 13, 59, 56
14, 288119, Note_on_c, 13, 72, 108
14, 288121, Note_on_c, 13, 60, 108
14, 288212, Note_off_c, 13, 60, 56
14, 288227, Note_off_c, 13, 72, 56
14, 288238, Note_on_c, 13, 59, 108
14, 288242, Note_on_c, 13, 71, 108
14, 288329, Note_off_c, 13, 59, 56
14, 288333, Note_off_c, 13, 71, 56
14, 288360, Note_on_c, 13, 69, 108
14, 288360, Note_on_c, 13, 57, 108
14, 288428, Note_off_c, 13, 69, 56
14, 288451, Note_off_c, 13, 57, 56
14, 288478, Note_on_c, 13, 67, 108
14, 288482, Note_on_c, 13, 55, 108
14, 288546, Note_off_c, 13, 67, 56
14, 288550, Note_off_c, 13, 55, 56
14, 288600, Note_on_c, 13, 72, 108
14, 288600, Note_on_c, 13, 60, 108
14, 288691, Note_off_c, 13, 60, 56
14, 288708, Note_off_c, 13, 72, 56
14, 288721, Note_on_c, 13, 59, 108
14, 288722, Note_on_c, 13, 71, 108
14, 288812, Note_off_c, 13, 59, 56
14, 288813, Note_off_c, 13, 71, 56
14, 288838, Note_on_c, 13, 57, 108
14, 288841, Note_on_c, 13, 69, 108
14, 288906, Note_off_c, 13, 57, 56
14, 288909, Note_off_c, 13, 69, 56
14, 288960, Note_on_c, 13, 55, 108
14, 288962, Note_on_c, 13, 67, 108
14, 289028, Note_off_c, 13, 55, 56
14, 289030, Note_off_c, 13, 67, 56
14, 289080, Note_on_c, 13, 60, 108
14, 289081, Note_on_c, 13, 72, 108
14, 289171, Note_off_c, 13, 60, 56
14, 289189, Note_off_c, 13, 72, 56
14, 289200, Note_on_c, 13, 59, 108
14, 289202, Note_on_c, 13, 71, 108
14, 289291, Note_off_c, 13, 59, 56
14, 289293, Note_off_c, 13, 71, 56
14, 289319, Note_on_c, 13, 69, 108
14, 289322, Note_on_c, 13, 57, 108
14, 289387, Note_off_c, 13, 69, 56
14, 289390, Note_off_c, 13, 57, 56
14, 289440, Note_on_c, 13, 55, 108
14, 289441, Note_on_c, 13, 67, 108
14, 289509, Note_off_c, 13, 67, 56
14, 289531, Note_off_c, 13, 55, 56
14, 289558, Note_on_c, 13, 60, 108
14, 289559, Note_on_c, 13, 72, 108
14, 289649, Note_off_c, 13, 60, 56
14, 289667, Note_off_c, 13, 72, 56
14, 289679, Note_on_c, 13, 71, 108
14, 289681, Note_on_c, 13, 59, 108
14, 289770, Note_off_c, 13, 71, 56
14, 289772, Note_off_c, 13, 59, 56
14, 289798, Note_on_c, 13, 57, 108
14, 289800, Note_on_c, 13, 69, 108
14, 289889, Note_off_c, 13, 57, 56
14, 289891, Note_off_c, 13, 69, 56
14, 289919, Note_on_c, 13, 67, 108
14, 289920, Note_on_c, 13, 55, 108
14, 289987, Note_off_c, 13, 67, 56
14, 289988, Note_off_c, 13, 55, 56
14, 290039, Note_on_c, 13, 65, 108
14, 290041, Note_on_c, 13, 53, 108
14, 290107, Note_off_c, 13, 65, 56
14, 290109, Note_off_c, 13, 53, 56
14, 290158, Note_on_c, 13, 64, 108
14, 290159, Note_on_c, 13, 52, 108
14, 290226, Note_off_c, 13, 64, 56
14, 290227, Note_off_c, 13, 52, 56
14, 290280, Note_on_c, 13, 50, 108
14, 290282, Note_on_c, 13, 62, 108
14, 290348, Note_off_c, 13, 50, 56
14, 290350, Note_off_c, 13, 62, 56
14, 290399, Note_on_c, 13, 48, 108
14, 290402, Note_on_c, 13, 60, 113
14, 290447, Note_off_c, 13, 60, 56
14, 290460, Note_on_c, 13, 60, 113
14, 290505, Note_off_c, 13, 60, 56
14, 290522, Note_on_c, 13, 60, 113
14, 290567, Note_off_c, 13, 60, 56
14, 290578, Note_on_c, 13, 60, 113
14, 290581, Note_off_c, 13, 48, 64
14, 290623, Note_off_c, 13, 60, 56
14, 290641, Note_on_c, 13, 60, 113
14, 290686, Note_off_c, 13, 60, 56
14, 290700, Note_on_c, 13, 60, 113
14, 290745, Note_off_c, 13, 60, 56
14, 290761, Note_on_c, 13, 60, 113
14, 290806, Note_off_c, 13, 60, 56
14, 290819, Note_on_c, 13, 60, 113
14, 290864, Note_off_c, 13, 60, 56
14, 290882, Note_on_c, 13, 60, 113
14, 290927, Note_off_c, 13, 60, 56
14, 290938, Note_on_c, 13, 60, 113
14, 290983, Note_off_c, 13, 60, 56
14, 291000, Note_on_c, 13, 60, 113
14, 291045, Note_off_c, 13, 60, 56
14, 291061, Note_on_c, 13, 60, 113
14, 291106, Note_off_c, 13, 60, 56
14, 291120, Note_on_c, 13, 60, 113
14, 291165, Note_off_c, 13, 60, 56
14, 291179, Note_on_c, 13, 60, 113
14, 291224, Note_off_c, 13, 60, 56
14, 291240, Note_on_c, 13, 60, 113
14, 291285, Note_off_c, 13, 60, 56
14, 291301, Note_on_c, 13, 60, 113
14, 291346, Note_off_c, 13, 60, 56
14, 291358, Note_on_c, 13, 60, 113
14, 291403, Note_off_c, 13, 60, 56
14, 291418, Note_on_c, 13, 60, 113
14, 291463, Note_off_c, 13, 60, 56
14, 291480, Note_on_c, 13, 60, 113
14, 291525, Note_off_c, 13, 60, 56
14, 291538, Note_on_c, 13, 60, 113
14, 291583, Note_off_c, 13, 60, 56
14, 291601, Note_on_c, 13, 60, 113
14, 291646, Note_off_c, 13, 60, 56
14, 291660, Note_on_c, 13, 60, 113
14, 291705, Note_off_c, 13, 60, 56
14, 291722, Note_on_c, 13, 60, 113
14, 291767, Note_off_c, 13, 60, 56
14, 291779, Note_on_c, 13, 60, 113
14, 291824, Note_off_c, 13, 60, 56
14, 291838, Note_on_c, 13, 60, 113
14, 291883, Note_off_c, 13, 60, 56
14, 291901, Note_on_c, 13, 60, 113
14, 291946, Note_off_c, 13, 60, 56
14, 291961, Note_on_c, 13, 60, 113
14, 292006, Note_off_c, 13, 60, 56
14, 292020, Note_on_c, 13, 60, 113
14, 292065, Note_off_c, 13, 60, 56
14, 292082, Note_on_c, 13, 60, 113
14, 292127, Note_off_c, 13, 60, 56
14, 292142, Note_on_c, 13, 60, 113
14, 292187, Note_off_c, 13, 60, 56
14, 292198, Note_on_c, 13, 60, 113
14, 292243, Note_off_c, 13, 60, 56
14, 292262, Note_on_c, 13, 60, 113
14, 292307, Note_off_c, 13, 60, 56
14, 292318, Note_on_c, 13, 43, 108
14, 292322, Note_on_c, 13, 59, 113
14, 292367, Note_off_c, 13, 59, 56
14, 292382, Note_on_c, 13, 59, 113
14, 292427, Note_off_c, 13, 59, 56
14, 292439, Note_on_c, 13, 59, 113
14, 292484, Note_off_c, 13, 59, 56
14, 292500, Note_on_c, 13, 59, 113
14, 292545, Note_off_c, 13, 59, 56
14, 292561, Note_on_c, 13, 59, 113
14, 292606, Note_off_c, 13, 59, 56
14, 292620, Note_on_c, 13, 59, 113
14, 292665, Note_off_c, 13, 59, 56
14, 292681, Note_on_c, 13, 59, 113
14, 292726, Note_off_c, 13, 59, 56
14, 292739, Note_on_c, 13, 59, 113
14, 292784, Note_off_c, 13, 59, 56
14, 292802, Note_on_c, 13, 59, 113
14, 292847, Note_off_c, 13, 59, 56
14, 292860, Note_on_c, 13, 59, 113
14, 292894, Note_off_c, 13, 43, 64
14, 292905, Note_off_c, 13, 59, 56
14, 292919, Note_on_c, 13, 59, 113
14, 292921, Note_on_c, 13, 43, 108
14, 292964, Note_off_c, 13, 59, 56
14, 292981, Note_on_c, 13, 59, 113
14, 293012, Note_off_c, 13, 43, 56
14, 293026, Note_off_c, 13, 59, 56
14, 293038, Note_on_c, 13, 47, 108
14, 293040, Note_on_c, 13, 59, 113
14, 293085, Note_off_c, 13, 59, 56
14, 293098, Note_on_c, 13, 59, 113
14, 293106, Note_off_c, 13, 47, 56
14, 293143, Note_off_c, 13, 59, 56
14, 293159, Note_on_c, 13, 50, 108
14, 293160, Note_on_c, 13, 59, 113
14, 293205, Note_off_c, 13, 59, 56
14, 293220, Note_on_c, 13, 59, 113
14, 293227, Note_off_c, 13, 50, 56
14, 293265, Note_off_c, 13, 59, 56
14, 293281, Note_on_c, 13, 53, 108
14, 293282, Note_on_c, 13, 59, 113
14, 293327, Note_off_c, 13, 59, 56
14, 293341, Note_on_c, 13, 59, 113
14, 293349, Note_off_c, 13, 53, 56
14, 293386, Note_off_c, 13, 59, 56
14, 293402, Note_on_c, 13, 59, 113
14, 293402, Note_on_c, 13, 55, 108
14, 293447, Note_off_c, 13, 59, 56
14, 293458, Note_on_c, 13, 59, 113
14, 293470, Note_off_c, 13, 55, 56
14, 293503, Note_off_c, 13, 59, 56
14, 293522, Note_on_c, 13, 59, 113
14, 293567, Note_off_c, 13, 59, 56
14, 293580, Note_on_c, 13, 59, 113
14, 293625, Note_off_c, 13, 59, 56
14, 293639, Note_on_c, 13, 62, 108
14, 293640, Note_on_c, 13, 59, 113
14, 293685, Note_off_c, 13, 59, 56
14, 293699, Note_on_c, 13, 59, 113
14, 293730, Note_off_c, 13, 62, 56
14, 293744, Note_off_c, 13, 59, 56
14, 293760, Note_on_c, 13, 59, 113
14, 293761, Note_on_c, 13, 65, 108
14, 293805, Note_off_c, 13, 59, 56
14, 293820, Note_on_c, 13, 59, 113
14, 293852, Note_off_c, 13, 65, 56
14, 293865, Note_off_c, 13, 59, 56
14, 293882, Note_on_c, 13, 59, 113
14, 293882, Note_on_c, 13, 67, 108
14, 293927, Note_off_c, 13, 59, 56
14, 293941, Note_on_c, 13, 59, 113
14, 293973, Note_off_c, 13, 67, 56
14, 293986, Note_off_c, 13, 59, 56
14, 293999, Note_on_c, 13, 59, 113
14, 294002, Note_on_c, 13, 65, 108
14, 294044, Note_off_c, 13, 59, 56
14, 294058, Note_on_c, 13, 59, 113
14, 294093, Note_off_c, 13, 65, 56
14, 294103, Note_off_c, 13, 59, 56
14, 294119, Note_on_c, 13, 59, 113
14, 294119, Note_on_c, 13, 62, 108
14, 294164, Note_off_c, 13, 59, 56
14, 294178, Note_on_c, 13, 59, 113
14, 294210, Note_off_c, 13, 62, 56
14, 294223, Note_off_c, 13, 59, 56
14, 294239, Note_on_c, 13, 59, 113
14, 294284, Note_off_c, 13, 59, 56
14, 294302, Note_on_c, 13, 59, 113
14, 294347, Note_off_c, 13, 59, 56
14, 294358, Note_on_c, 13, 62, 108
14, 294360, Note_on_c, 13, 59, 113
14, 294405, Note_off_c, 13, 59, 56
14, 294422, Note_on_c, 13, 59, 113
14, 294449, Note_off_c, 13, 62, 56
14, 294467, Note_off_c, 13, 59, 56
14, 294482, Note_on_c, 13, 59, 113
14, 294527, Note_off_c, 13, 59, 56
14, 294542, Note_on_c, 13, 59, 113
14, 294587, Note_off_c, 13, 59, 56
14, 294599, Note_on_c, 13, 59, 113
14, 294602, Note_on_c, 13, 55, 108
14, 294644, Note_off_c, 13, 59, 56
14, 294661, Note_on_c, 13, 59, 113
14, 294693, Note_off_c, 13, 55, 56
14, 294706, Note_off_c, 13, 59, 56
14, 294721, Note_on_c, 13, 53, 108
14, 294722, Note_on_c, 13, 59, 113
14, 294767, Note_off_c, 13, 59, 56
14, 294782, Note_on_c, 13, 59, 113
14, 294812, Note_off_c, 13, 53, 56
14, 294827, Note_off_c, 13, 59, 56
14, 294840, Note_on_c, 13, 59, 113
14, 294841, Note_on_c, 13, 50, 108
14, 294885, Note_off_c, 13, 59, 56
14, 294899, Note_on_c, 13, 59, 113
14, 294932, Note_off_c, 13, 50, 56
14, 294944, Note_off_c, 13, 59, 56
14, 294958, Note_on_c, 13, 47, 108
14, 294961, Note_on_c, 13, 59, 113
14, 295006, Note_off_c, 13, 59, 56
14, 295020, Note_on_c, 13, 59, 113
14, 295049, Note_off_c, 13, 47, 56
14, 295065, Note_off_c, 13, 59, 56
14, 295081, Note_on_c, 13, 59, 113
14, 295082, Note_on_c, 13, 50, 108
14, 295126, Note_off_c, 13, 59, 56
14, 295138, Note_on_c, 13, 59, 113
14, 295173, Note_off_c, 13, 50, 56
14, 295183, Note_off_c, 13, 59, 56
14, 295198, Note_on_c, 13, 43, 108
14, 295202, Note_on_c, 13, 59, 113
14, 295247, Note_off_c, 13, 59, 56
14, 295262, Note_on_c, 13, 59, 113
14, 295307, Note_off_c, 13, 59, 56
14, 295320, Note_on_c, 13, 59, 113
14, 295365, Note_off_c, 13, 59, 56
14, 295380, Note_off_c, 13, 43, 64
14, 295382, Note_on_c, 13, 59, 113
14, 295427, Note_off_c, 13, 59, 56
14, 295442, Note_on_c, 13, 59, 113
14, 295487, Note_off_c, 13, 59, 56
14, 295498, Note_on_c, 13, 59, 113
14, 295543, Note_off_c, 13, 59, 56
14, 295561, Note_on_c, 13, 59, 113
14, 295606, Note_off_c, 13, 59, 56
14, 295620, Note_on_c, 13, 59, 113
14, 295665, Note_off_c, 13, 59, 56
14, 295681, Note_on_c, 13, 59, 113
14, 295726, Note_off_c, 13, 59, 56
14, 295740, Note_on_c, 13, 59, 113
14, 295785, Note_off_c, 13, 59, 56
14, 295801, Note_on_c, 13, 59, 113
14, 295846, Note_off_c, 13, 59, 56
14, 295858, Note_on_c, 13, 59, 113
14, 295903, Note_off_c, 13, 59, 56
14, 295919, Note_on_c, 13, 59, 113
14, 295964, Note_off_c, 13, 59, 56
14, 295981, Note_on_c, 13, 59, 113
14, 296026, Note_off_c, 13, 59, 56
14, 296039, Note_on_c, 13, 59, 113
14, 296084, Note_off_c, 13, 59, 56
14, 296098, Note_on_c, 13, 59, 113
14, 296143, Note_off_c, 13, 59, 56
14, 296158, Note_on_c, 13, 60, 113
14, 296160, Note_on_c, 13, 36, 108
14, 296203, Note_off_c, 13, 60, 56
14, 296218, Note_on_c, 13, 60, 113
14, 296263, Note_off_c, 13, 60, 56
14, 296278, Note_on_c, 13, 60, 113
14, 296323, Note_off_c, 13, 60, 56
14, 296342, Note_on_c, 13, 60, 113
14, 296387, Note_off_c, 13, 60, 56
14, 296398, Note_on_c, 13, 60, 113
14, 296443, Note_off_c, 13, 60, 56
14, 296458, Note_on_c, 13, 60, 113
14, 296503, Note_off_c, 13, 60, 56
14, 296518, Note_on_c, 13, 60, 113
14, 296563, Note_off_c, 13, 60, 56
14, 296578, Note_on_c, 13, 60, 113
14, 296623, Note_off_c, 13, 60, 56
14, 296641, Note_on_c, 13, 60, 113
14, 296686, Note_off_c, 13, 60, 56
14, 296700, Note_on_c, 13, 60, 113
14, 296745, Note_off_c, 13, 60, 56
14, 296748, Note_off_c, 13, 36, 64
14, 296758, Note_on_c, 13, 36, 108
14, 296759, Note_on_c, 13, 60, 113
14, 296804, Note_off_c, 13, 60, 56
14, 296819, Note_on_c, 13, 60, 113
14, 296860, Note_off_c, 13, 36, 56
14, 296864, Note_off_c, 13, 60, 56
14, 296878, Note_on_c, 13, 60, 113
14, 296881, Note_on_c, 13, 40, 108
14, 296923, Note_off_c, 13, 60, 56
14, 296939, Note_on_c, 13, 60, 113
14, 296983, Note_off_c, 13, 40, 56
14, 296984, Note_off_c, 13, 60, 56
14, 297000, Note_on_c, 13, 60, 113
14, 297000, Note_on_c, 13, 43, 108
14, 297045, Note_off_c, 13, 60, 56
14, 297061, Note_on_c, 13, 60, 113
14, 297102, Note_off_c, 13, 43, 56
14, 297106, Note_off_c, 13, 60, 56
14, 297119, Note_on_c, 13, 60, 113
14, 297120, Note_on_c, 13, 48, 108
14, 297164, Note_off_c, 13, 60, 56
14, 297181, Note_on_c, 13, 60, 113
14, 297222, Note_off_c, 13, 48, 56
14, 297226, Note_off_c, 13, 60, 56
14, 297240, Note_on_c, 13, 52, 108
14, 297242, Note_on_c, 13, 60, 113
14, 297287, Note_off_c, 13, 60, 56
14, 297302, Note_on_c, 13, 60, 113
14, 297342, Note_off_c, 13, 52, 56
14, 297347, Note_off_c, 13, 60, 56
14, 297358, Note_on_c, 13, 60, 113
14, 297358, Note_on_c, 13, 55, 108
14, 297403, Note_off_c, 13, 60, 56
14, 297421, Note_on_c, 13, 60, 113
14, 297460, Note_off_c, 13, 55, 56
14, 297466, Note_off_c, 13, 60, 56
14, 297481, Note_on_c, 13, 60, 113
14, 297526, Note_off_c, 13, 60, 56
14, 297542, Note_on_c, 13, 60, 113
14, 297587, Note_off_c, 13, 60, 56
14, 297600, Note_on_c, 13, 60, 113
14, 297602, Note_on_c, 13, 64, 108
14, 297645, Note_off_c, 13, 60, 56
14, 297659, Note_on_c, 13, 60, 113
14, 297704, Note_off_c, 13, 60, 56
14, 297704, Note_off_c, 13, 64, 56
14, 297721, Note_on_c, 13, 60, 113
14, 297766, Note_off_c, 13, 60, 56
14, 297780, Note_on_c, 13, 60, 113
14, 297825, Note_off_c, 13, 60, 56
14, 297840, Note_on_c, 13, 60, 113
14, 297841, Note_on_c, 13, 55, 108
14, 297885, Note_off_c, 13, 60, 56
14, 297900, Note_on_c, 13, 60, 113
14, 297943, Note_off_c, 13, 55, 56
14, 297945, Note_off_c, 13, 60, 56
14, 297960, Note_on_c, 13, 52, 108
14, 297962, Note_on_c, 13, 60, 113
14, 298007, Note_off_c, 13, 60, 56
14, 298021, Note_on_c, 13, 60, 113
14, 298062, Note_off_c, 13, 52, 56
14, 298066, Note_off_c, 13, 60, 56
14, 298081, Note_on_c, 13, 64, 108
14, 298082, Note_on_c, 13, 46, 108
14, 298184, Note_off_c, 13, 46, 56
14, 298198, Note_on_c, 13, 45, 108
14, 298300, Note_off_c, 13, 45, 56
14, 298319, Note_on_c, 13, 46, 108
14, 298421, Note_off_c, 13, 46, 56
14, 298441, Note_on_c, 13, 46, 108
14, 298543, Note_off_c, 13, 46, 56
14, 298561, Note_on_c, 13, 46, 108
14, 298729, Note_off_c, 13, 64, 64
14, 298800, Note_on_c, 13, 60, 108
14, 299016, Note_off_c, 13, 60, 64
14, 299040, Note_on_c, 13, 64, 108
14, 299149, Note_off_c, 13, 46, 64
14, 299159, Note_on_c, 13, 45, 108
14, 299256, Note_off_c, 13, 64, 64
14, 299261, Note_off_c, 13, 45, 56
14, 299278, Note_on_c, 13, 60, 108
14, 299280, Note_on_c, 13, 46, 108
14, 299382, Note_off_c, 13, 46, 56
14, 299402, Note_on_c, 13, 46, 108
14, 299494, Note_off_c, 13, 60, 64
14, 299504, Note_off_c, 13, 46, 56
14, 299518, Note_on_c, 13, 67, 108
14, 299522, Note_on_c, 13, 46, 108
14, 299734, Note_off_c, 13, 67, 64
14, 299761, Note_on_c, 13, 65, 108
14, 299923, Note_off_c, 13, 65, 64
14, 299939, Note_on_c, 13, 64, 113
14, 299954, Note_off_c, 13, 46, 64
14, 299990, Note_off_c, 13, 64, 56
14, 299999, Note_on_c, 13, 65, 108
14, 300001, Note_on_c, 13, 45, 108
14, 300103, Note_off_c, 13, 45, 56
14, 300120, Note_on_c, 13, 44, 108
14, 300222, Note_off_c, 13, 44, 56
14, 300238, Note_on_c, 13, 45, 108
14, 300340, Note_off_c, 13, 45, 56
14, 300359, Note_on_c, 13, 45, 108
14, 300461, Note_off_c, 13, 45, 56
14, 300482, Note_on_c, 13, 45, 108
14, 300647, Note_off_c, 13, 65, 64
14, 300719, Note_on_c, 13, 60, 108
14, 300935, Note_off_c, 13, 60, 64
14, 300961, Note_on_c, 13, 65, 108
14, 301070, Note_off_c, 13, 45, 64
14, 301078, Note_on_c, 13, 44, 108
14, 301177, Note_off_c, 13, 65, 64
14, 301180, Note_off_c, 13, 44, 56
14, 301198, Note_on_c, 13, 60, 108
14, 301200, Note_on_c, 13, 45, 108
14, 301302, Note_off_c, 13, 45, 56
14, 301318, Note_on_c, 13, 45, 108
14, 301414, Note_off_c, 13, 60, 64
14, 301420, Note_off_c, 13, 45, 56
14, 301441, Note_on_c, 13, 45, 108
14, 301442, Note_on_c, 13, 69, 108
14, 301658, Note_off_c, 13, 69, 64
14, 301679, Note_on_c, 13, 67, 108
14, 301841, Note_off_c, 13, 67, 64
14, 301859, Note_on_c, 13, 65, 113
14, 301873, Note_off_c, 13, 45, 64
14, 301910, Note_off_c, 13, 65, 56
14, 301920, Note_on_c, 13, 74, 113
14, 301922, Note_on_c, 13, 47, 108
14, 301965, Note_off_c, 13, 74, 56
14, 301979, Note_on_c, 13, 74, 113
14, 302024, Note_off_c, 13, 74, 56
14, 302038, Note_on_c, 13, 74, 113
14, 302083, Note_off_c, 13, 74, 56
14, 302101, Note_on_c, 13, 74, 113
14, 302146, Note_off_c, 13, 74, 56
14, 302158, Note_on_c, 13, 74, 113
14, 302203, Note_off_c, 13, 74, 56
14, 302219, Note_on_c, 13, 74, 113
14, 302264, Note_off_c, 13, 74, 56
14, 302278, Note_on_c, 13, 74, 113
14, 302323, Note_off_c, 13, 74, 56
14, 302342, Note_on_c, 13, 74, 113
14, 302387, Note_off_c, 13, 74, 56
14, 302398, Note_on_c, 13, 74, 113
14, 302443, Note_off_c, 13, 74, 56
14, 302460, Note_on_c, 13, 74, 113
14, 302505, Note_off_c, 13, 74, 56
14, 302522, Note_on_c, 13, 74, 113
14, 302567, Note_off_c, 13, 74, 56
14, 302570, Note_off_c, 13, 47, 64
14, 302579, Note_on_c, 13, 74, 113
14, 302624, Note_off_c, 13, 74, 56
14, 302640, Note_on_c, 13, 43, 108
14, 302641, Note_on_c, 13, 74, 113
14, 302686, Note_off_c, 13, 74, 56
14, 302702, Note_on_c, 13, 74, 113
14, 302747, Note_off_c, 13, 74, 56
14, 302762, Note_on_c, 13, 74, 113
14, 302807, Note_off_c, 13, 74, 56
14, 302820, Note_on_c, 13, 74, 113
14, 302856, Note_off_c, 13, 43, 64
14, 302865, Note_off_c, 13, 74, 56
14, 302878, Note_on_c, 13, 47, 108
14, 302878, Note_on_c, 13, 74, 113
14, 302923, Note_off_c, 13, 74, 56
14, 302941, Note_on_c, 13, 74, 113
14, 302986, Note_off_c, 13, 74, 56
14, 303001, Note_on_c, 13, 74, 113
14, 303046, Note_off_c, 13, 74, 56
14, 303060, Note_on_c, 13, 74, 113
14, 303094, Note_off_c, 13, 47, 64
14, 303105, Note_off_c, 13, 74, 56
14, 303121, Note_on_c, 13, 43, 108
14, 303122, Note_on_c, 13, 74, 113
14, 303167, Note_off_c, 13, 74, 56
14, 303180, Note_on_c, 13, 74, 113
14, 303225, Note_off_c, 13, 74, 56
14, 303238, Note_on_c, 13, 74, 113
14, 303283, Note_off_c, 13, 74, 56
14, 303301, Note_on_c, 13, 74, 113
14, 303337, Note_off_c, 13, 43, 64
14, 303346, Note_off_c, 13, 74, 56
14, 303360, Note_on_c, 13, 50, 108
14, 303360, Note_on_c, 13, 74, 113
14, 303405, Note_off_c, 13, 74, 56
14, 303422, Note_on_c, 13, 74, 113
14, 303467, Note_off_c, 13, 74, 56
14, 303480, Note_on_c, 13, 74, 113
14, 303525, Note_off_c, 13, 74, 56
14, 303542, Note_on_c, 13, 74, 113
14, 303576, Note_off_c, 13, 50, 64
14, 303587, Note_off_c, 13, 74, 56
14, 303599, Note_on_c, 13, 74, 113
14, 303599, Note_on_c, 13, 48, 108
14, 303644, Note_off_c, 13, 74, 56
14, 303662, Note_on_c, 13, 74, 113
14, 303707, Note_off_c, 13, 74, 56
14, 303720, Note_on_c, 13, 74, 113
14, 303761, Note_off_c, 13, 48, 64
14, 303765, Note_off_c, 13, 74, 56
14, 303781, Note_on_c, 13, 47, 113
14, 303782, Note_on_c, 13, 74, 113
14, 303827, Note_off_c, 13, 74, 56
14, 303832, Note_off_c, 13, 47, 56
14, 303838, Note_on_c, 13, 48, 108
14, 303839, Note_on_c, 13, 72, 113
14, 303884, Note_off_c, 13, 72, 56
14, 303902, Note_on_c, 13, 72, 113
14, 303947, Note_off_c, 13, 72, 56
14, 303961, Note_on_c, 13, 72, 113
14, 304006, Note_off_c, 13, 72, 56
14, 304021, Note_on_c, 13, 72, 113
14, 304066, Note_off_c, 13, 72, 56
14, 304080, Note_on_c, 13, 72, 113
14, 304125, Note_off_c, 13, 72, 56
14, 304142, Note_on_c, 13, 72, 113
14, 304187, Note_off_c, 13, 72, 56
14, 304201, Note_on_c, 13, 72, 113
14, 304246, Note_off_c, 13, 72, 56
14, 304258, Note_on_c, 13, 72, 113
14, 304303, Note_off_c, 13, 72, 56
14, 304322, Note_on_c, 13, 72, 113
14, 304367, Note_off_c, 13, 72, 56
14, 304380, Note_on_c, 13, 72, 113
14, 304425, Note_off_c, 13, 72, 56
14, 304442, Note_on_c, 13, 72, 113
14, 304486, Note_off_c, 13, 48, 64
14, 304487, Note_off_c, 13, 72, 56
14, 304500, Note_on_c, 13, 72, 113
14, 304545, Note_off_c, 13, 72, 56
14, 304559, Note_on_c, 13, 72, 113
14, 304561, Note_on_c, 13, 43, 108
14, 304604, Note_off_c, 13, 72, 56
14, 304619, Note_on_c, 13, 72, 113
14, 304664, Note_off_c, 13, 72, 56
14, 304679, Note_on_c, 13, 72, 113
14, 304724, Note_off_c, 13, 72, 56
14, 304742, Note_on_c, 13, 72, 113
14, 304777, Note_off_c, 13, 43, 64
14, 304787, Note_off_c, 13, 72, 56
14, 304800, Note_on_c, 13, 48, 108
14, 304801, Note_on_c, 13, 72, 113
14, 304846, Note_off_c, 13, 72, 56
14, 304861, Note_on_c, 13, 72, 113
14, 304906, Note_off_c, 13, 72, 56
14, 304918, Note_on_c, 13, 72, 113
14, 304963, Note_off_c, 13, 72, 56
14, 304979, Note_on_c, 13, 72, 113
14, 305016, Note_off_c, 13, 48, 64
14, 305024, Note_off_c, 13, 72, 56
14, 305039, Note_on_c, 13, 72, 113
14, 305040, Note_on_c, 13, 43, 108
14, 305084, Note_off_c, 13, 72, 56
14, 305100, Note_on_c, 13, 72, 113
14, 305145, Note_off_c, 13, 72, 56
14, 305159, Note_on_c, 13, 72, 113
14, 305204, Note_off_c, 13, 72, 56
14, 305221, Note_on_c, 13, 72, 113
14, 305256, Note_off_c, 13, 43, 64
14, 305266, Note_off_c, 13, 72, 56
14, 305280, Note_on_c, 13, 52, 108
14, 305280, Note_on_c, 13, 72, 113
14, 305325, Note_off_c, 13, 72, 56
14, 305342, Note_on_c, 13, 72, 113
14, 305387, Note_off_c, 13, 72, 56
14, 305401, Note_on_c, 13, 72, 113
14, 305446, Note_off_c, 13, 72, 56
14, 305459, Note_on_c, 13, 72, 113
14, 305496, Note_off_c, 13, 52, 64
14, 305504, Note_off_c, 13, 72, 56
14, 305519, Note_on_c, 13, 50, 108
14, 305522, Note_on_c, 13, 72, 113
14, 305567, Note_off_c, 13, 72, 56
14, 305581, Note_on_c, 13, 72, 113
14, 305626, Note_off_c, 13, 72, 56
14, 305638, Note_on_c, 13, 72, 113
14, 305681, Note_off_c, 13, 50, 64
14, 305683, Note_off_c, 13, 72, 56
14, 305698, Note_on_c, 13, 72, 113
14, 305700, Note_on_c, 13, 48, 113
14, 305743, Note_off_c, 13, 72, 56
14, 305751, Note_off_c, 13, 48, 56
14, 305758, Note_on_c, 13, 47, 108
14, 305760, Note_on_c, 13, 74, 113
14, 305805, Note_off_c, 13, 74, 56
14, 305819, Note_on_c, 13, 74, 113
14, 305864, Note_off_c, 13, 74, 56
14, 305882, Note_on_c, 13, 74, 113
14, 305927, Note_off_c, 13, 74, 56
14, 305939, Note_on_c, 13, 74, 113
14, 305984, Note_off_c, 13, 74, 56
14, 305999, Note_on_c, 13, 74, 113
14, 306044, Note_off_c, 13, 74, 56
14, 306062, Note_on_c, 13, 74, 113
14, 306082, Note_off_c, 13, 47, 64
14, 306107, Note_off_c, 13, 74, 56
14, 306122, Note_on_c, 13, 74, 113
14, 306122, Note_on_c, 13, 43, 108
14, 306167, Note_off_c, 13, 74, 56
14, 306179, Note_on_c, 13, 74, 113
14, 306224, Note_off_c, 13, 74, 56
14, 306224, Note_off_c, 13, 43, 56
14, 306238, Note_on_c, 13, 74, 113
14, 306242, Note_on_c, 13, 50, 108
14, 306283, Note_off_c, 13, 74, 56
14, 306300, Note_on_c, 13, 74, 113
14, 306345, Note_off_c, 13, 74, 56
14, 306362, Note_on_c, 13, 74, 113
14, 306407, Note_off_c, 13, 74, 56
14, 306418, Note_on_c, 13, 74, 113
14, 306463, Note_off_c, 13, 74, 56
14, 306482, Note_on_c, 13, 74, 113
14, 306527, Note_off_c, 13, 74, 56
14, 306542, Note_on_c, 13, 74, 113
14, 306584, Note_off_c, 13, 50, 64
14, 306587, Note_off_c, 13, 74, 56
14, 306598, Note_on_c, 13, 48, 113
14, 306598, Note_on_c, 13, 74, 113
14, 306643, Note_off_c, 13, 74, 56
14, 306652, Note_off_c, 13, 48, 56
14, 306658, Note_on_c, 13, 74, 113
14, 306659, Note_on_c, 13, 47, 113
14, 306703, Note_off_c, 13, 74, 56
14, 306710, Note_off_c, 13, 47, 56
14, 306719, Note_on_c, 13, 48, 108
14, 306721, Note_on_c, 13, 72, 113
14, 306766, Note_off_c, 13, 72, 56
14, 306778, Note_on_c, 13, 72, 113
14, 306823, Note_off_c, 13, 72, 56
14, 306841, Note_on_c, 13, 72, 113
14, 306886, Note_off_c, 13, 72, 56
14, 306900, Note_on_c, 13, 72, 113
14, 306945, Note_off_c, 13, 72, 56
14, 306962, Note_on_c, 13, 72, 113
14, 307007, Note_off_c, 13, 72, 56
14, 307021, Note_on_c, 13, 72, 113
14, 307043, Note_off_c, 13, 48, 64
14, 307066, Note_off_c, 13, 72, 56
14, 307082, Note_on_c, 13, 72, 113
14, 307082, Note_on_c, 13, 43, 108
14, 307127, Note_off_c, 13, 72, 56
14, 307141, Note_on_c, 13, 72, 113
14, 307184, Note_off_c, 13, 43, 56
14, 307186, Note_off_c, 13, 72, 56
14, 307198, Note_on_c, 13, 52, 108
14, 307202, Note_on_c, 13, 72, 113
14, 307247, Note_off_c, 13, 72, 56
14, 307262, Note_on_c, 13, 72, 113
14, 307307, Note_off_c, 13, 72, 56
14, 307319, Note_on_c, 13, 72, 113
14, 307364, Note_off_c, 13, 72, 56
14, 307381, Note_on_c, 13, 72, 113
14, 307426, Note_off_c, 13, 72, 56
14, 307441, Note_on_c, 13, 72, 113
14, 307486, Note_off_c, 13, 72, 56
14, 307500, Note_on_c, 13, 72, 113
14, 307540, Note_off_c, 13, 52, 64
14, 307545, Note_off_c, 13, 72, 56
14, 307559, Note_on_c, 13, 50, 113
14, 307561, Note_on_c, 13, 72, 113
14, 307606, Note_off_c, 13, 72, 56
14, 307613, Note_off_c, 13, 50, 56
14, 307618, Note_on_c, 13, 72, 113
14, 307620, Note_on_c, 13, 48, 113
14, 307663, Note_off_c, 13, 72, 56
14, 307671, Note_off_c, 13, 48, 56
14, 307679, Note_on_c, 13, 55, 108
14, 307682, Note_on_c, 13, 74, 108
14, 307747, Note_off_c, 13, 55, 56
14, 307784, Note_off_c, 13, 74, 56
14, 307801, Note_on_c, 13, 67, 108
14, 307802, Note_on_c, 13, 71, 108
14, 307909, Note_off_c, 13, 67, 56
14, 307918, Note_on_c, 13, 65, 108
14, 308007, Note_off_c, 13, 71, 64
14, 308020, Note_off_c, 13, 65, 56
14, 308040, Note_on_c, 13, 64, 108
14, 308042, Note_on_c, 13, 72, 108
14, 308108, Note_off_c, 13, 64, 56
14, 308144, Note_off_c, 13, 72, 56
14, 308158, Note_on_c, 13, 74, 108
14, 308159, Note_on_c, 13, 62, 108
14, 308226, Note_off_c, 13, 74, 56
14, 308227, Note_off_c, 13, 62, 56
14, 308279, Note_on_c, 13, 79, 108
14, 308282, Note_on_c, 13, 64, 108
14, 308387, Note_off_c, 13, 79, 56
14, 308390, Note_off_c, 13, 64, 56
14, 308401, Note_on_c, 13, 77, 108
14, 308402, Note_on_c, 13, 62, 108
14, 308503, Note_off_c, 13, 77, 56
14, 308504, Note_off_c, 13, 62, 56
14, 308518, Note_on_c, 13, 76, 108
14, 308522, Note_on_c, 13, 60, 108
14, 308586, Note_off_c, 13, 76, 56
14, 308590, Note_off_c, 13, 60, 56
14, 308638, Note_on_c, 13, 59, 108
14, 308638, Note_on_c, 13, 74, 108
14, 308706, Note_off_c, 13, 74, 56
14, 308706, Note_off_c, 13, 59, 56
14, 308759, Note_on_c, 13, 60, 108
14, 308761, Note_on_c, 13, 76, 108
14, 308867, Note_off_c, 13, 60, 56
14, 308869, Note_off_c, 13, 76, 56
14, 308878, Note_on_c, 13, 59, 108
14, 308882, Note_on_c, 13, 74, 108
14, 308984, Note_off_c, 13, 74, 56
14, 308986, Note_off_c, 13, 59, 56
14, 309000, Note_on_c, 13, 57, 108
14, 309001, Note_on_c, 13, 72, 108
14, 309068, Note_off_c, 13, 57, 56
14, 309069, Note_off_c, 13, 72, 56
14, 309120, Note_on_c, 13, 55, 108
14, 309121, Note_on_c, 13, 71, 108
14, 309188, Note_off_c, 13, 55, 56
14, 309189, Note_off_c, 13, 71, 56
14, 309241, Note_on_c, 13, 71, 108
14, 309242, Note_on_c, 13, 55, 108
14, 309349, Note_off_c, 13, 71, 56
14, 309350, Note_off_c, 13, 55, 56
14, 309358, Note_on_c, 13, 57, 108
14, 309361, Note_on_c, 13, 72, 108
14, 309460, Note_off_c, 13, 57, 56
14, 309463, Note_off_c, 13, 72, 56
14, 309480, Note_on_c, 13, 50, 108
14, 309481, Note_on_c, 13, 66, 108
14, 309548, Note_off_c, 13, 50, 56
14, 309549, Note_off_c, 13, 66, 56
14, 309600, Note_on_c, 13, 55, 108
14, 309600, Note_on_c, 13, 67, 108
14, 309805, Note_off_c, 13, 67, 64
14, 309805, Note_off_c, 13, 55, 64
14, 310200, Note_on_c, 13, 67, 108
14, 310308, Note_off_c, 13, 67, 56
14, 310321, Note_on_c, 13, 66, 108
14, 310423, Note_off_c, 13, 66, 56
14, 310440, Note_on_c, 13, 72, 108
14, 310508, Note_off_c, 13, 72, 56
14, 310558, Note_on_c, 13, 71, 108
14, 310660, Note_off_c, 13, 71, 56
14, 310680, Note_on_c, 13, 55, 108
14, 310788, Note_off_c, 13, 55, 56
14, 310799, Note_on_c, 13, 53, 108
14, 310901, Note_off_c, 13, 53, 56
14, 310920, Note_on_c, 13, 62, 108
14, 310988, Note_off_c, 13, 62, 56
14, 311038, Note_on_c, 13, 53, 108
14, 311106, Note_off_c, 13, 53, 56
14, 311162, Note_on_c, 13, 52, 108
14, 311270, Note_off_c, 13, 52, 56
14, 311279, Note_on_c, 13, 50, 108
14, 311282, Note_on_c, 13, 62, 108
14, 311354, Note_off_c, 13, 62, 56
14, 311355, Note_on_c, 13, 64, 108
14, 311381, Note_off_c, 13, 50, 56
14, 311401, Note_on_c, 13, 59, 108
14, 311427, Note_off_c, 13, 64, 56
14, 311447, Note_on_c, 13, 65, 108
14, 311469, Note_off_c, 13, 59, 56
14, 311518, Note_on_c, 13, 67, 108
14, 311518, Note_on_c, 13, 48, 108
14, 311519, Note_off_c, 13, 65, 56
14, 311654, Note_off_c, 13, 67, 64
14, 311723, Note_off_c, 13, 48, 64
14, 311760, Note_on_c, 13, 64, 108
14, 311832, Note_off_c, 13, 64, 56
14, 311835, Note_on_c, 13, 65, 108
14, 311907, Note_off_c, 13, 65, 56
14, 311923, Note_on_c, 13, 67, 108
14, 311995, Note_off_c, 13, 67, 56
14, 312000, Note_on_c, 13, 48, 108
14, 312001, Note_on_c, 13, 69, 108
14, 312137, Note_off_c, 13, 69, 64
14, 312205, Note_off_c, 13, 48, 64
14, 312240, Note_on_c, 13, 69, 108
14, 312312, Note_off_c, 13, 69, 56
14, 312316, Note_on_c, 13, 71, 108
14, 312388, Note_off_c, 13, 71, 56
14, 312390, Note_on_c, 13, 72, 108
14, 312462, Note_off_c, 13, 72, 56
14, 312480, Note_on_c, 13, 67, 108
14, 312481, Note_on_c, 13, 48, 108
14, 312686, Note_off_c, 13, 48, 64
14, 312720, Note_on_c, 13, 43, 108
14, 312792, Note_off_c, 13, 43, 56
14, 312796, Note_on_c, 13, 45, 108
14, 312868, Note_off_c, 13, 45, 56
14, 312887, Note_on_c, 13, 47, 108
14, 312959, Note_off_c, 13, 47, 56
14, 312959, Note_on_c, 13, 48, 108
14, 313128, Note_off_c, 13, 67, 64
14, 313164, Note_off_c, 13, 48, 64
14, 313198, Note_on_c, 13, 64, 73
14, 313201, Note_on_c, 13, 60, 73
14, 313270, Note_off_c, 13, 64, 56
14, 313275, Note_on_c, 13, 65, 73
14, 313347, Note_off_c, 13, 65, 56
14, 313367, Note_on_c, 13, 67, 73
14, 313417, Note_off_c, 13, 60, 64
14, 313439, Note_off_c, 13, 67, 56
14, 313440, Note_on_c, 13, 65, 73
14, 313440, Note_on_c, 13, 59, 73
14, 313656, Note_off_c, 13, 65, 64
14, 313681, Note_on_c, 13, 62, 73
14, 313753, Note_off_c, 13, 62, 56
14, 313755, Note_on_c, 13, 64, 73
14, 313827, Note_off_c, 13, 64, 56
14, 313828, Note_on_c, 13, 65, 73
14, 313896, Note_off_c, 13, 59, 64
14, 313900, Note_off_c, 13, 65, 56
14, 313920, Note_on_c, 13, 60, 73
14, 313921, Note_on_c, 13, 64, 73
14, 314137, Note_off_c, 13, 64, 64
14, 314160, Note_on_c, 13, 60, 73
14, 314232, Note_off_c, 13, 60, 56
14, 314233, Note_on_c, 13, 62, 73
14, 314305, Note_off_c, 13, 62, 56
14, 314312, Note_on_c, 13, 64, 73
14, 314376, Note_off_c, 13, 60, 64
14, 314384, Note_off_c, 13, 64, 56
14, 314400, Note_on_c, 13, 62, 73
14, 314402, Note_on_c, 13, 65, 73
14, 314538, Note_off_c, 13, 65, 64
14, 314605, Note_off_c, 13, 62, 64
14, 314639, Note_on_c, 13, 59, 80
14, 314711, Note_off_c, 13, 59, 56
14, 314717, Note_on_c, 13, 60, 82
14, 314789, Note_off_c, 13, 60, 56
14, 314803, Note_on_c, 13, 62, 83
14, 314875, Note_off_c, 13, 62, 56
14, 314880, Note_on_c, 13, 55, 86
14, 315096, Note_off_c, 13, 55, 64
14, 315118, Note_on_c, 13, 53, 95
14, 315120, Note_on_c, 13, 71, 95
14, 315178, Note_off_c, 13, 53, 56
14, 315180, Note_off_c, 13, 71, 56
14, 315194, Note_on_c, 13, 72, 95
14, 315196, Note_on_c, 13, 52, 95
14, 315254, Note_off_c, 13, 72, 56
14, 315256, Note_off_c, 13, 52, 56
14, 315271, Note_on_c, 13, 50, 95
14, 315272, Note_on_c, 13, 74, 95
14, 315331, Note_off_c, 13, 50, 56
14, 315332, Note_off_c, 13, 74, 56
14, 315358, Note_on_c, 13, 48, 90
14, 315358, Note_on_c, 13, 72, 95
14, 315418, Note_off_c, 13, 72, 56
14, 315437, Note_on_c, 13, 60, 95
14, 315497, Note_off_c, 13, 60, 56
14, 315527, Note_on_c, 13, 72, 95
14, 315563, Note_off_c, 13, 48, 64
14, 315587, Note_off_c, 13, 72, 56
14, 315599, Note_on_c, 13, 72, 95
14, 315659, Note_off_c, 13, 72, 56
14, 315676, Note_on_c, 13, 71, 95
14, 315736, Note_off_c, 13, 71, 56
14, 315764, Note_on_c, 13, 70, 95
14, 315824, Note_off_c, 13, 70, 56
14, 315841, Note_on_c, 13, 48, 90
14, 315841, Note_on_c, 13, 69, 95
14, 315901, Note_off_c, 13, 69, 56
14, 315915, Note_on_c, 13, 69, 95
14, 315975, Note_off_c, 13, 69, 56
14, 316004, Note_on_c, 13, 69, 95
14, 316046, Note_off_c, 13, 48, 64
14, 316064, Note_off_c, 13, 69, 56
14, 316078, Note_on_c, 13, 69, 95
14, 316138, Note_off_c, 13, 69, 56
14, 316157, Note_on_c, 13, 67, 95
14, 316217, Note_off_c, 13, 67, 56
14, 316245, Note_on_c, 13, 65, 95
14, 316305, Note_off_c, 13, 65, 56
14, 316318, Note_on_c, 13, 64, 95
14, 316322, Note_on_c, 13, 48, 90
14, 316378, Note_off_c, 13, 64, 56
14, 316394, Note_on_c, 13, 55, 95
14, 316454, Note_off_c, 13, 55, 56
14, 316486, Note_on_c, 13, 55, 95
14, 316527, Note_off_c, 13, 48, 64
14, 316546, Note_off_c, 13, 55, 56
14, 316561, Note_on_c, 13, 43, 95
14, 316562, Note_on_c, 13, 55, 95
14, 316621, Note_off_c, 13, 43, 56
14, 316622, Note_off_c, 13, 55, 56
14, 316634, Note_on_c, 13, 45, 95
14, 316637, Note_on_c, 13, 57, 95
14, 316694, Note_off_c, 13, 45, 56
14, 316697, Note_off_c, 13, 57, 56
14, 316708, Note_on_c, 13, 59, 95
14, 316725, Note_on_c, 13, 47, 95
14, 316768, Note_off_c, 13, 59, 56
14, 316785, Note_off_c, 13, 47, 56
14, 316801, Note_on_c, 13, 48, 90
14, 316801, Note_on_c, 13, 60, 90
14, 316983, Note_off_c, 13, 60, 64
14, 317006, Note_off_c, 13, 48, 64
14, 317039, Note_on_c, 13, 64, 73
14, 317041, Note_on_c, 13, 60, 73
14, 317111, Note_off_c, 13, 64, 56
14, 317115, Note_on_c, 13, 65, 73
14, 317187, Note_off_c, 13, 65, 56
14, 317189, Note_on_c, 13, 67, 73
14, 317246, Note_off_c, 13, 60, 64
14, 317261, Note_off_c, 13, 67, 56
14, 317281, Note_on_c, 13, 65, 73
14, 317282, Note_on_c, 13, 59, 73
14, 317497, Note_off_c, 13, 65, 64
14, 317519, Note_on_c, 13, 62, 73
14, 317591, Note_off_c, 13, 62, 56
14, 317597, Note_on_c, 13, 64, 73
14, 317669, Note_off_c, 13, 64, 56
14, 317684, Note_on_c, 13, 65, 73
14, 317714, Note_off_c, 13, 59, 64
14, 317756, Note_off_c, 13, 65, 56
14, 317758, Note_on_c, 13, 60, 73
14, 317761, Note_on_c, 13, 64, 73
14, 317977, Note_off_c, 13, 64, 64
14, 318002, Note_on_c, 13, 60, 73
14, 318074, Note_off_c, 13, 60, 56
14, 318075, Note_on_c, 13, 62, 73
14, 318147, Note_off_c, 13, 62, 56
14, 318148, Note_on_c, 13, 64, 73
14, 318190, Note_off_c, 13, 60, 64
14, 318216, Note_off_c, 13, 64, 56
14, 318238, Note_on_c, 13, 62, 73
14, 318239, Note_on_c, 13, 65, 73
14, 318443, Note_off_c, 13, 62, 64
14, 318444, Note_off_c, 13, 65, 64
14, 318479, Note_on_c, 13, 43, 95
14, 318482, Note_on_c, 13, 67, 95
14, 318539, Note_off_c, 13, 43, 56
14, 318542, Note_off_c, 13, 67, 56
14, 318554, Note_on_c, 13, 69, 95
14, 318555, Note_on_c, 13, 45, 95
14, 318614, Note_off_c, 13, 69, 56
14, 318615, Note_off_c, 13, 45, 56
14, 318630, Note_on_c, 13, 47, 95
14, 318645, Note_on_c, 13, 71, 95
14, 318690, Note_off_c, 13, 47, 56
14, 318705, Note_off_c, 13, 71, 56
14, 318719, Note_on_c, 13, 72, 90
14, 318721, Note_on_c, 13, 48, 90
14, 318924, Note_off_c, 13, 72, 64
14, 318926, Note_off_c, 13, 48, 64
14, 318960, Note_on_c, 13, 62, 73
14, 318960, Note_on_c, 13, 65, 73
14, 319032, Note_off_c, 13, 65, 56
14, 319036, Note_on_c, 13, 67, 73
14, 319108, Note_off_c, 13, 67, 56
14, 319123, Note_on_c, 13, 69, 73
14, 319165, Note_off_c, 13, 62, 64
14, 319195, Note_off_c, 13, 69, 56
14, 319198, Note_on_c, 13, 67, 73
14, 319202, Note_on_c, 13, 61, 73
14, 319414, Note_off_c, 13, 67, 64
14, 319442, Note_on_c, 13, 64, 73
14, 319514, Note_off_c, 13, 64, 56
14, 319517, Note_on_c, 13, 65, 73
14, 319589, Note_off_c, 13, 65, 56
14, 319607, Note_on_c, 13, 67, 73
14, 319634, Note_off_c, 13, 61, 64
14, 319679, Note_off_c, 13, 67, 56
14, 319680, Note_on_c, 13, 65, 73
14, 319680, Note_on_c, 13, 62, 73
14, 319896, Note_off_c, 13, 65, 64
14, 319922, Note_on_c, 13, 62, 73
14, 319993, Note_on_c, 13, 64, 73
14, 319994, Note_off_c, 13, 62, 56
14, 320065, Note_off_c, 13, 64, 56
14, 320072, Note_on_c, 13, 65, 73
14, 320112, Note_off_c, 13, 62, 64
14, 320144, Note_off_c, 13, 65, 56
14, 320160, Note_on_c, 13, 64, 73
14, 320162, Note_on_c, 13, 67, 73
14, 320365, Note_off_c, 13, 64, 64
14, 320367, Note_off_c, 13, 67, 64
14, 320401, Note_on_c, 13, 57, 95
14, 320402, Note_on_c, 13, 45, 95
14, 320461, Note_off_c, 13, 57, 56
14, 320462, Note_off_c, 13, 45, 56
14, 320474, Note_on_c, 13, 59, 95
14, 320475, Note_on_c, 13, 47, 95
14, 320534, Note_off_c, 13, 59, 56
14, 320535, Note_off_c, 13, 47, 56
14, 320552, Note_on_c, 13, 61, 95
14, 320552, Note_on_c, 13, 49, 95
14, 320612, Note_off_c, 13, 49, 56
14, 320612, Note_off_c, 13, 61, 56
14, 320639, Note_on_c, 13, 62, 90
14, 320642, Note_on_c, 13, 50, 90
14, 320821, Note_off_c, 13, 62, 64
14, 320847, Note_off_c, 13, 50, 64
14, 320878, Note_on_c, 13, 53, 56
14, 321094, Note_off_c, 13, 53, 64
14, 321118, Note_on_c, 13, 52, 56
14, 321574, Note_off_c, 13, 52, 64
14, 321602, Note_on_c, 13, 53, 56
14, 321840, Note_on_c, 13, 72, 56
14, 321912, Note_off_c, 13, 72, 56
14, 321915, Note_on_c, 13, 70, 56
14, 321987, Note_off_c, 13, 70, 56
14, 321992, Note_on_c, 13, 69, 56
14, 322058, Note_off_c, 13, 53, 64
14, 322064, Note_off_c, 13, 69, 56
14, 322081, Note_on_c, 13, 48, 56
14, 322082, Note_on_c, 13, 67, 61
14, 322127, Note_off_c, 13, 67, 56
14, 322140, Note_on_c, 13, 76, 62
14, 322172, Note_off_c, 13, 48, 56
14, 322185, Note_off_c, 13, 76, 56
14, 322198, Note_on_c, 13, 76, 64
14, 322202, Note_on_c, 13, 60, 59
14, 322243, Note_off_c, 13, 76, 56
14, 322259, Note_on_c, 13, 76, 65
14, 322293, Note_off_c, 13, 60, 56
14, 322304, Note_off_c, 13, 76, 56
14, 322321, Note_on_c, 13, 76, 67
14, 322322, Note_on_c, 13, 60, 63
14, 322366, Note_off_c, 13, 76, 56
14, 322381, Note_on_c, 13, 76, 69
14, 322413, Note_off_c, 13, 60, 56
14, 322426, Note_off_c, 13, 76, 56
14, 322440, Note_on_c, 13, 60, 65
14, 322440, Note_on_c, 13, 76, 70
14, 322485, Note_off_c, 13, 76, 56
14, 322498, Note_on_c, 13, 76, 72
14, 322531, Note_off_c, 13, 60, 56
14, 322543, Note_off_c, 13, 76, 56
14, 322560, Note_on_c, 13, 76, 74
14, 322561, Note_on_c, 13, 60, 69
14, 322605, Note_off_c, 13, 76, 56
14, 322619, Note_on_c, 13, 76, 76
14, 322652, Note_off_c, 13, 60, 56
14, 322664, Note_off_c, 13, 76, 56
14, 322681, Note_on_c, 13, 76, 77
14, 322682, Note_on_c, 13, 60, 72
14, 322726, Note_off_c, 13, 76, 56
14, 322741, Note_on_c, 13, 76, 78
14, 322773, Note_off_c, 13, 60, 56
14, 322786, Note_off_c, 13, 76, 56
14, 322798, Note_on_c, 13, 60, 75
14, 322802, Note_on_c, 13, 76, 80
14, 322847, Note_off_c, 13, 76, 56
14, 322858, Note_on_c, 13, 76, 82
14, 322889, Note_off_c, 13, 60, 56
14, 322903, Note_off_c, 13, 76, 56
14, 322920, Note_on_c, 13, 76, 84
14, 322921, Note_on_c, 13, 60, 78
14, 322965, Note_off_c, 13, 76, 56
14, 322981, Note_on_c, 13, 76, 85
14, 323012, Note_off_c, 13, 60, 56
14, 323026, Note_off_c, 13, 76, 56
14, 323039, Note_on_c, 13, 76, 87
14, 323042, Note_on_c, 13, 60, 81
14, 323084, Note_off_c, 13, 76, 56
14, 323100, Note_on_c, 13, 76, 88
14, 323133, Note_off_c, 13, 60, 56
14, 323145, Note_off_c, 13, 76, 56
14, 323158, Note_on_c, 13, 60, 85
14, 323162, Note_on_c, 13, 76, 90
14, 323207, Note_off_c, 13, 76, 56
14, 323218, Note_on_c, 13, 76, 92
14, 323249, Note_off_c, 13, 60, 56
14, 323263, Note_off_c, 13, 76, 56
14, 323278, Note_on_c, 13, 60, 88
14, 323278, Note_on_c, 13, 76, 93
14, 323323, Note_off_c, 13, 76, 56
14, 323342, Note_on_c, 13, 76, 95
14, 323369, Note_off_c, 13, 60, 56
14, 323387, Note_off_c, 13, 76, 56
14, 323400, Note_on_c, 13, 60, 92
14, 323401, Note_on_c, 13, 76, 97
14, 323446, Note_off_c, 13, 76, 56
14, 323462, Note_on_c, 13, 76, 98
14, 323491, Note_off_c, 13, 60, 56
14, 323507, Note_off_c, 13, 76, 56
14, 323518, Note_on_c, 13, 76, 100
14, 323522, Note_on_c, 13, 60, 94
14, 323563, Note_off_c, 13, 76, 56
14, 323579, Note_on_c, 13, 76, 101
14, 323613, Note_off_c, 13, 60, 56
14, 323624, Note_off_c, 13, 76, 56
14, 323639, Note_on_c, 13, 76, 103
14, 323642, Note_on_c, 13, 60, 97
14, 323684, Note_off_c, 13, 76, 56
14, 323700, Note_on_c, 13, 76, 105
14, 323733, Note_off_c, 13, 60, 56
14, 323745, Note_off_c, 13, 76, 56
14, 323761, Note_on_c, 13, 76, 107
14, 323762, Note_on_c, 13, 60, 101
14, 323806, Note_off_c, 13, 76, 56
14, 323819, Note_on_c, 13, 76, 108
14, 323853, Note_off_c, 13, 60, 56
14, 323864, Note_off_c, 13, 76, 56
14, 323878, Note_on_c, 13, 60, 104
14, 323879, Note_on_c, 13, 76, 109
14, 323924, Note_off_c, 13, 76, 56
14, 323940, Note_on_c, 13, 76, 111
14, 323969, Note_off_c, 13, 60, 56
14, 323985, Note_off_c, 13, 76, 56
14, 323999, Note_on_c, 13, 69, 113
14, 324001, Note_on_c, 13, 53, 108
14, 324044, Note_off_c, 13, 69, 56
14, 324059, Note_on_c, 13, 69, 113
14, 324104, Note_off_c, 13, 69, 56
14, 324118, Note_on_c, 13, 69, 113
14, 324163, Note_off_c, 13, 69, 56
14, 324182, Note_on_c, 13, 69, 113
14, 324227, Note_off_c, 13, 69, 56
14, 324238, Note_on_c, 13, 69, 113
14, 324283, Note_off_c, 13, 69, 56
14, 324299, Note_on_c, 13, 69, 113
14, 324344, Note_off_c, 13, 69, 56
14, 324359, Note_on_c, 13, 69, 113
14, 324404, Note_off_c, 13, 69, 56
14, 324419, Note_on_c, 13, 69, 113
14, 324464, Note_off_c, 13, 69, 56
14, 324479, Note_on_c, 13, 69, 113
14, 324524, Note_off_c, 13, 69, 56
14, 324540, Note_on_c, 13, 69, 113
14, 324585, Note_off_c, 13, 69, 56
14, 324589, Note_off_c, 13, 53, 64
14, 324598, Note_on_c, 13, 53, 108
14, 324602, Note_on_c, 13, 69, 113
14, 324647, Note_off_c, 13, 69, 56
14, 324658, Note_on_c, 13, 69, 113
14, 324700, Note_off_c, 13, 53, 56
14, 324703, Note_off_c, 13, 69, 56
14, 324721, Note_on_c, 13, 53, 108
14, 324722, Note_on_c, 13, 69, 113
14, 324767, Note_off_c, 13, 69, 56
14, 324782, Note_on_c, 13, 69, 113
14, 324823, Note_off_c, 13, 53, 56
14, 324827, Note_off_c, 13, 69, 56
14, 324838, Note_on_c, 13, 69, 113
14, 324838, Note_on_c, 13, 53, 108
14, 324883, Note_off_c, 13, 69, 56
14, 324898, Note_on_c, 13, 69, 113
14, 324940, Note_off_c, 13, 53, 56
14, 324943, Note_off_c, 13, 69, 56
14, 324960, Note_on_c, 13, 53, 108
14, 324960, Note_on_c, 13, 69, 113
14, 324961, Note_on_c, 13, 77, 113
14, 325005, Note_off_c, 13, 69, 56
14, 325006, Note_off_c, 13, 77, 56
14, 325020, Note_on_c, 13, 57, 113
14, 325062, Note_off_c, 13, 53, 56
14, 325065, Note_off_c, 13, 57, 56
14, 325079, Note_on_c, 13, 58, 113
14, 325080, Note_on_c, 13, 53, 108
14, 325124, Note_off_c, 13, 58, 56
14, 325142, Note_on_c, 13, 60, 113
14, 325182, Note_off_c, 13, 53, 56
14, 325187, Note_off_c, 13, 60, 56
14, 325199, Note_on_c, 13, 53, 108
14, 325201, Note_on_c, 13, 62, 113
14, 325246, Note_off_c, 13, 62, 56
14, 325260, Note_on_c, 13, 64, 113
14, 325301, Note_off_c, 13, 53, 56
14, 325305, Note_off_c, 13, 64, 56
14, 325321, Note_on_c, 13, 53, 108
14, 325321, Note_on_c, 13, 65, 113
14, 325366, Note_off_c, 13, 65, 56
14, 325382, Note_on_c, 13, 67, 113
14, 325423, Note_off_c, 13, 53, 56
14, 325427, Note_off_c, 13, 67, 56
14, 325441, Note_on_c, 13, 53, 108
14, 325442, Note_on_c, 13, 69, 113
14, 325487, Note_off_c, 13, 69, 56
14, 325500, Note_on_c, 13, 65, 113
14, 325543, Note_off_c, 13, 53, 56
14, 325545, Note_off_c, 13, 65, 56
14, 325558, Note_on_c, 13, 53, 108
14, 325559, Note_on_c, 13, 67, 113
14, 325604, Note_off_c, 13, 67, 56
14, 325619, Note_on_c, 13, 69, 113
14, 325660, Note_off_c, 13, 53, 56
14, 325664, Note_off_c, 13, 69, 56
14, 325679, Note_on_c, 13, 53, 108
14, 325682, Note_on_c, 13, 70, 113
14, 325727, Note_off_c, 13, 70, 56
14, 325742, Note_on_c, 13, 72, 113
14, 325781, Note_off_c, 13, 53, 56
14, 325787, Note_off_c, 13, 72, 56
14, 325798, Note_on_c, 13, 53, 108
14, 325799, Note_on_c, 13, 74, 113
14, 325844, Note_off_c, 13, 74, 56
14, 325859, Note_on_c, 13, 76, 113
14, 325900, Note_off_c, 13, 53, 56
14, 325904, Note_off_c, 13, 76, 56
14, 325919, Note_on_c, 13, 77, 113
14, 325922, Note_on_c, 13, 53, 108
14, 325964, Note_off_c, 13, 77, 56
14, 325982, Note_on_c, 13, 79, 113
14, 326024, Note_off_c, 13, 53, 56
14, 326027, Note_off_c, 13, 79, 56
14, 326038, Note_on_c, 13, 53, 108
14, 326042, Note_on_c, 13, 81, 113
14, 326087, Note_off_c, 13, 81, 56
14, 326101, Note_on_c, 13, 83, 113
14, 326140, Note_off_c, 13, 53, 56
14, 326146, Note_off_c, 13, 83, 56
14, 326160, Note_on_c, 13, 54, 108
14, 326162, Note_on_c, 13, 84, 113
14, 326207, Note_off_c, 13, 84, 56
14, 326219, Note_on_c, 13, 84, 113
14, 326262, Note_off_c, 13, 54, 56
14, 326264, Note_off_c, 13, 84, 56
14, 326278, Note_on_c, 13, 84, 113
14, 326282, Note_on_c, 13, 54, 108
14, 326323, Note_off_c, 13, 84, 56
14, 326338, Note_on_c, 13, 84, 113
14, 326383, Note_off_c, 13, 84, 56
14, 326384, Note_off_c, 13, 54, 56
14, 326398, Note_on_c, 13, 84, 113
14, 326402, Note_on_c, 13, 55, 108
14, 326443, Note_off_c, 13, 84, 56
14, 326462, Note_on_c, 13, 84, 113
14, 326504, Note_off_c, 13, 55, 56
14, 326507, Note_off_c, 13, 84, 56
14, 326519, Note_on_c, 13, 84, 113
14, 326521, Note_on_c, 13, 55, 108
14, 326564, Note_off_c, 13, 84, 56
14, 326581, Note_on_c, 13, 84, 113
14, 326623, Note_off_c, 13, 55, 56
14, 326626, Note_off_c, 13, 84, 56
14, 326638, Note_on_c, 13, 56, 108
14, 326641, Note_on_c, 13, 84, 113
14, 326686, Note_off_c, 13, 84, 56
14, 326700, Note_on_c, 13, 84, 113
14, 326740, Note_off_c, 13, 56, 56
14, 326745, Note_off_c, 13, 84, 56
14, 326760, Note_on_c, 13, 84, 113
14, 326760, Note_on_c, 13, 56, 108
14, 326805, Note_off_c, 13, 84, 56
14, 326822, Note_on_c, 13, 84, 113
14, 326862, Note_off_c, 13, 56, 56
14, 326867, Note_off_c, 13, 84, 56
14, 326881, Note_on_c, 13, 84, 113
14, 326881, Note_on_c, 13, 57, 108
14, 326926, Note_off_c, 13, 84, 56
14, 326939, Note_on_c, 13, 84, 113
14, 326983, Note_off_c, 13, 57, 56
14, 326984, Note_off_c, 13, 84, 56
14, 326999, Note_on_c, 13, 57, 108
14, 327001, Note_on_c, 13, 83, 113
14, 327046, Note_off_c, 13, 83, 56
14, 327060, Note_on_c, 13, 81, 113
14, 327101, Note_off_c, 13, 57, 56
14, 327105, Note_off_c, 13, 81, 56
14, 327120, Note_on_c, 13, 59, 108
14, 327120, Note_on_c, 13, 79, 113
14, 327165, Note_off_c, 13, 79, 56
14, 327178, Note_on_c, 13, 77, 113
14, 327222, Note_off_c, 13, 59, 56
14, 327223, Note_off_c, 13, 77, 56
14, 327239, Note_on_c, 13, 59, 108
14, 327241, Note_on_c, 13, 76, 113
14, 327286, Note_off_c, 13, 76, 56
14, 327299, Note_on_c, 13, 74, 113
14, 327341, Note_off_c, 13, 59, 56
14, 327344, Note_off_c, 13, 74, 56
14, 327358, Note_on_c, 13, 60, 108
14, 327361, Note_on_c, 13, 72, 113
14, 327406, Note_off_c, 13, 72, 56
14, 327418, Note_on_c, 13, 71, 113
14, 327460, Note_off_c, 13, 60, 56
14, 327463, Note_off_c, 13, 71, 56
14, 327479, Note_on_c, 13, 48, 108
14, 327482, Note_on_c, 13, 69, 113
14, 327527, Note_off_c, 13, 69, 56
14, 327541, Note_on_c, 13, 67, 113
14, 327581, Note_off_c, 13, 48, 56
14, 327586, Note_off_c, 13, 67, 56
14, 327599, Note_on_c, 13, 65, 113
14, 327602, Note_on_c, 13, 50, 108
14, 327644, Note_off_c, 13, 65, 56
14, 327659, Note_on_c, 13, 64, 113
14, 327704, Note_off_c, 13, 64, 56
14, 327704, Note_off_c, 13, 50, 56
14, 327720, Note_on_c, 13, 62, 113
14, 327720, Note_on_c, 13, 52, 108
14, 327765, Note_off_c, 13, 62, 56
14, 327780, Note_on_c, 13, 60, 113
14, 327822, Note_off_c, 13, 52, 56
14, 327825, Note_off_c, 13, 60, 56
14, 327838, Note_on_c, 13, 53, 108
14, 327838, Note_on_c, 13, 62, 108
14, 327974, Note_off_c, 13, 62, 64
14, 327974, Note_off_c, 13, 53, 64
14, 328799, Note_on_c, 13, 59, 108
14, 328802, Note_on_c, 13, 55, 108
14, 328935, Note_off_c, 13, 59, 64
14, 328938, Note_off_c, 13, 55, 64
14, 330242, Note_on_c, 13, 56, 73
14, 330698, Note_off_c, 13, 56, 64
14, 330718, Note_on_c, 13, 57, 73
14, 330718, Note_on_c, 13, 63, 73
14, 330923, Note_off_c, 13, 57, 64
14, 330934, Note_off_c, 13, 63, 64
14, 330960, Note_on_c, 13, 62, 73
14, 331165, Note_off_c, 13, 62, 64
14, 331199, Note_on_c, 13, 62, 73
14, 331404, Note_off_c, 13, 62, 64
14, 331440, Note_on_c, 13, 62, 73
14, 331645, Note_off_c, 13, 62, 64
14, 332158, Note_on_c, 13, 56, 73
14, 332614, Note_off_c, 13, 56, 64
14, 332639, Note_on_c, 13, 57, 73
14, 332640, Note_on_c, 13, 63, 73
14, 332844, Note_off_c, 13, 57, 64
14, 332856, Note_off_c, 13, 63, 64
14, 332880, Note_on_c, 13, 62, 73
14, 333085, Note_off_c, 13, 62, 64
14, 333119, Note_on_c, 13, 62, 73
14, 333324, Note_off_c, 13, 62, 64
14, 333359, Note_on_c, 13, 62, 73
14, 333564, Note_off_c, 13, 62, 64
14, 334081, Note_on_c, 13, 73, 73
14, 334537, Note_off_c, 13, 73, 64
14, 334559, Note_on_c, 13, 74, 73
14, 334764, Note_off_c, 13, 74, 64
14, 334800, Note_on_c, 13, 58, 73
14, 335005, Note_off_c, 13, 58, 64
14, 335039, Note_on_c, 13, 58, 73
14, 335244, Note_off_c, 13, 58, 64
14, 335279, Note_on_c, 13, 58, 73
14, 335484, Note_off_c, 13, 58, 64
14, 335522, Note_on_c, 13, 57, 73
14, 335738, Note_off_c, 13, 57, 64
14, 337082, Note_on_c, 13, 62, 78
14, 337136, Note_off_c, 13, 62, 56
14, 337140, Note_on_c, 13, 64, 78
14, 337194, Note_off_c, 13, 64, 56
14, 337201, Note_on_c, 13, 65, 78
14, 337255, Note_off_c, 13, 65, 56
14, 337261, Note_on_c, 13, 67, 78
14, 337315, Note_off_c, 13, 67, 56
14, 337319, Note_on_c, 13, 69, 78
14, 337373, Note_off_c, 13, 69, 56
14, 337381, Note_on_c, 13, 71, 78
14, 337435, Note_off_c, 13, 71, 56
14, 337441, Note_on_c, 13, 72, 95
14, 337442, Note_on_c, 13, 52, 90
14, 337486, Note_off_c, 13, 72, 56
14, 337502, Note_on_c, 13, 72, 95
14, 337547, Note_off_c, 13, 72, 56
14, 337559, Note_on_c, 13, 72, 95
14, 337604, Note_off_c, 13, 72, 56
14, 337619, Note_on_c, 13, 72, 95
14, 337664, Note_off_c, 13, 72, 56
14, 337680, Note_on_c, 13, 72, 95
14, 337725, Note_off_c, 13, 72, 56
14, 337740, Note_on_c, 13, 72, 97
14, 337785, Note_off_c, 13, 72, 56
14, 337798, Note_on_c, 13, 72, 97
14, 337843, Note_off_c, 13, 72, 56
14, 337861, Note_on_c, 13, 72, 97
14, 337906, Note_off_c, 13, 72, 56
14, 337920, Note_on_c, 13, 72, 97
14, 337965, Note_off_c, 13, 72, 56
14, 337981, Note_on_c, 13, 72, 97
14, 338026, Note_off_c, 13, 72, 56
14, 338039, Note_on_c, 13, 72, 97
14, 338084, Note_off_c, 13, 72, 56
14, 338090, Note_off_c, 13, 52, 64
14, 338098, Note_on_c, 13, 72, 97
14, 338143, Note_off_c, 13, 72, 56
14, 338158, Note_on_c, 13, 71, 97
14, 338158, Note_on_c, 13, 50, 90
14, 338203, Note_off_c, 13, 71, 56
14, 338221, Note_on_c, 13, 71, 98
14, 338266, Note_off_c, 13, 71, 56
14, 338281, Note_on_c, 13, 71, 98
14, 338326, Note_off_c, 13, 71, 56
14, 338342, Note_on_c, 13, 71, 98
14, 338363, Note_off_c, 13, 50, 64
14, 338387, Note_off_c, 13, 71, 56
14, 338399, Note_on_c, 13, 69, 98
14, 338401, Note_on_c, 13, 48, 90
14, 338444, Note_off_c, 13, 69, 56
14, 338461, Note_on_c, 13, 69, 98
14, 338506, Note_off_c, 13, 69, 56
14, 338519, Note_on_c, 13, 69, 98
14, 338564, Note_off_c, 13, 69, 56
14, 338580, Note_on_c, 13, 69, 98
14, 338606, Note_off_c, 13, 48, 64
14, 338625, Note_off_c, 13, 69, 56
14, 338638, Note_on_c, 13, 47, 90
14, 338641, Note_on_c, 13, 67, 98
14, 338686, Note_off_c, 13, 67, 56
14, 338698, Note_on_c, 13, 67, 98
14, 338743, Note_off_c, 13, 67, 56
14, 338762, Note_on_c, 13, 67, 99
14, 338807, Note_off_c, 13, 67, 56
14, 338818, Note_on_c, 13, 67, 99
14, 338843, Note_off_c, 13, 47, 64
14, 338863, Note_off_c, 13, 67, 56
14, 338878, Note_on_c, 13, 47, 90
14, 338880, Note_on_c, 13, 67, 99
14, 338925, Note_off_c, 13, 67, 56
14, 338938, Note_on_c, 13, 67, 99
14, 338983, Note_off_c, 13, 67, 56
14, 338998, Note_on_c, 13, 67, 99
14, 339043, Note_off_c, 13, 67, 56
14, 339060, Note_on_c, 13, 67, 99
14, 339083, Note_off_c, 13, 47, 64
14, 339105, Note_off_c, 13, 67, 56
14, 339121, Note_on_c, 13, 47, 90
14, 339121, Note_on_c, 13, 67, 99
14, 339166, Note_off_c, 13, 67, 56
14, 339179, Note_on_c, 13, 67, 99
14, 339224, Note_off_c, 13, 67, 56
14, 339239, Note_on_c, 13, 67, 100
14, 339284, Note_off_c, 13, 67, 56
14, 339301, Note_on_c, 13, 67, 100
14, 339326, Note_off_c, 13, 47, 64
14, 339346, Note_off_c, 13, 67, 56
14, 339360, Note_on_c, 13, 52, 90
14, 339360, Note_on_c, 13, 72, 100
14, 339405, Note_off_c, 13, 72, 56
14, 339421, Note_on_c, 13, 72, 100
14, 339466, Note_off_c, 13, 72, 56
14, 339479, Note_on_c, 13, 72, 100
14, 339524, Note_off_c, 13, 72, 56
14, 339541, Note_on_c, 13, 72, 100
14, 339586, Note_off_c, 13, 72, 56
14, 339601, Note_on_c, 13, 72, 100
14, 339646, Note_off_c, 13, 72, 56
14, 339658, Note_on_c, 13, 72, 100
14, 339703, Note_off_c, 13, 72, 56
14, 339718, Note_on_c, 13, 72, 100
14, 339763, Note_off_c, 13, 72, 56
14, 339778, Note_on_c, 13, 72, 101
14, 339823, Note_off_c, 13, 72, 56
14, 339840, Note_on_c, 13, 72, 101
14, 339885, Note_off_c, 13, 72, 56
14, 339898, Note_on_c, 13, 72, 101
14, 339943, Note_off_c, 13, 72, 56
14, 339960, Note_on_c, 13, 72, 101
14, 340005, Note_off_c, 13, 72, 56
14, 340008, Note_off_c, 13, 52, 64
14, 340018, Note_on_c, 13, 72, 101
14, 340063, Note_off_c, 13, 72, 56
14, 340078, Note_on_c, 13, 71, 101
14, 340082, Note_on_c, 13, 50, 90
14, 340123, Note_off_c, 13, 71, 56
14, 340138, Note_on_c, 13, 71, 101
14, 340183, Note_off_c, 13, 71, 56
14, 340202, Note_on_c, 13, 71, 101
14, 340247, Note_off_c, 13, 71, 56
14, 340260, Note_on_c, 13, 71, 102
14, 340287, Note_off_c, 13, 50, 64
14, 340305, Note_off_c, 13, 71, 56
14, 340321, Note_on_c, 13, 69, 102
14, 340321, Note_on_c, 13, 48, 90
14, 340366, Note_off_c, 13, 69, 56
14, 340382, Note_on_c, 13, 69, 102
14, 340427, Note_off_c, 13, 69, 56
14, 340440, Note_on_c, 13, 69, 102
14, 340485, Note_off_c, 13, 69, 56
14, 340502, Note_on_c, 13, 69, 102
14, 340526, Note_off_c, 13, 48, 64
14, 340547, Note_off_c, 13, 69, 56
14, 340559, Note_on_c, 13, 67, 102
14, 340561, Note_on_c, 13, 47, 90
14, 340604, Note_off_c, 13, 67, 56
14, 340621, Note_on_c, 13, 67, 102
14, 340666, Note_off_c, 13, 67, 56
14, 340681, Note_on_c, 13, 67, 102
14, 340726, Note_off_c, 13, 67, 56
14, 340739, Note_on_c, 13, 67, 102
14, 340766, Note_off_c, 13, 47, 64
14, 340784, Note_off_c, 13, 67, 56
14, 340800, Note_on_c, 13, 47, 90
14, 340801, Note_on_c, 13, 67, 103
14, 340846, Note_off_c, 13, 67, 56
14, 340858, Note_on_c, 13, 67, 103
14, 340903, Note_off_c, 13, 67, 56
14, 340922, Note_on_c, 13, 67, 103
14, 340967, Note_off_c, 13, 67, 56
14, 340979, Note_on_c, 13, 67, 103
14, 341005, Note_off_c, 13, 47, 64
14, 341024, Note_off_c, 13, 67, 56
14, 341039, Note_on_c, 13, 47, 90
14, 341041, Note_on_c, 13, 67, 103
14, 341086, Note_off_c, 13, 67, 56
14, 341102, Note_on_c, 13, 67, 103
14, 341147, Note_off_c, 13, 67, 56
14, 341162, Note_on_c, 13, 67, 103
14, 341207, Note_off_c, 13, 67, 56
14, 341218, Note_on_c, 13, 67, 103
14, 341244, Note_off_c, 13, 47, 64
14, 341263, Note_off_c, 13, 67, 56
14, 341278, Note_on_c, 13, 47, 90
14, 341282, Note_on_c, 13, 77, 105
14, 341327, Note_off_c, 13, 77, 56
14, 341341, Note_on_c, 13, 77, 105
14, 341386, Note_off_c, 13, 77, 56
14, 341402, Note_on_c, 13, 77, 105
14, 341447, Note_off_c, 13, 77, 56
14, 341458, Note_on_c, 13, 77, 105
14, 341503, Note_off_c, 13, 77, 56
14, 341519, Note_on_c, 13, 77, 105
14, 341564, Note_off_c, 13, 77, 56
14, 341582, Note_on_c, 13, 77, 105
14, 341627, Note_off_c, 13, 77, 56
14, 341641, Note_on_c, 13, 77, 105
14, 341686, Note_off_c, 13, 77, 56
14, 341698, Note_on_c, 13, 77, 105
14, 341743, Note_off_c, 13, 77, 56
14, 341761, Note_on_c, 13, 77, 105
14, 341806, Note_off_c, 13, 77, 56
14, 341819, Note_on_c, 13, 77, 106
14, 341864, Note_off_c, 13, 77, 56
14, 341882, Note_on_c, 13, 77, 106
14, 341926, Note_off_c, 13, 47, 64
14, 341927, Note_off_c, 13, 77, 56
14, 341939, Note_on_c, 13, 77, 106
14, 341984, Note_off_c, 13, 77, 56
14, 341999, Note_on_c, 13, 76, 106
14, 342002, Note_on_c, 13, 48, 90
14, 342044, Note_off_c, 13, 76, 56
14, 342062, Note_on_c, 13, 76, 106
14, 342107, Note_off_c, 13, 76, 56
14, 342120, Note_on_c, 13, 76, 106
14, 342165, Note_off_c, 13, 76, 56
14, 342180, Note_on_c, 13, 76, 106
14, 342207, Note_off_c, 13, 48, 64
14, 342225, Note_off_c, 13, 76, 56
14, 342238, Note_on_c, 13, 41, 90
14, 342240, Note_on_c, 13, 74, 106
14, 342285, Note_off_c, 13, 74, 56
14, 342299, Note_on_c, 13, 74, 106
14, 342344, Note_off_c, 13, 74, 56
14, 342358, Note_on_c, 13, 74, 107
14, 342403, Note_off_c, 13, 74, 56
14, 342418, Note_on_c, 13, 74, 107
14, 342443, Note_off_c, 13, 41, 64
14, 342463, Note_off_c, 13, 74, 56
14, 342479, Note_on_c, 13, 40, 90
14, 342479, Note_on_c, 13, 73, 107
14, 342524, Note_off_c, 13, 73, 56
14, 342539, Note_on_c, 13, 73, 107
14, 342584, Note_off_c, 13, 73, 56
14, 342601, Note_on_c, 13, 73, 107
14, 342646, Note_off_c, 13, 73, 56
14, 342658, Note_on_c, 13, 73, 107
14, 342684, Note_off_c, 13, 40, 64
14, 342703, Note_off_c, 13, 73, 56
14, 342720, Note_on_c, 13, 40, 90
14, 342720, Note_on_c, 13, 73, 107
14, 342765, Note_off_c, 13, 73, 56
14, 342778, Note_on_c, 13, 73, 107
14, 342823, Note_off_c, 13, 73, 56
14, 342840, Note_on_c, 13, 73, 108
14, 342885, Note_off_c, 13, 73, 56
14, 342901, Note_on_c, 13, 73, 108
14, 342925, Note_off_c, 13, 40, 64
14, 342946, Note_off_c, 13, 73, 56
14, 342959, Note_on_c, 13, 73, 108
14, 342962, Note_on_c, 13, 40, 93
14, 343004, Note_off_c, 13, 73, 56
14, 343022, Note_on_c, 13, 73, 108
14, 343067, Note_off_c, 13, 73, 56
14, 343080, Note_on_c, 13, 73, 108
14, 343125, Note_off_c, 13, 73, 56
14, 343140, Note_on_c, 13, 73, 108
14, 343167, Note_off_c, 13, 40, 64
14, 343185, Note_off_c, 13, 73, 56
14, 343198, Note_on_c, 13, 40, 94
14, 343200, Note_on_c, 13, 73, 108
14, 343245, Note_off_c, 13, 73, 56
14, 343260, Note_on_c, 13, 73, 108
14, 343305, Note_off_c, 13, 73, 56
14, 343321, Note_on_c, 13, 73, 108
14, 343366, Note_off_c, 13, 73, 56
14, 343379, Note_on_c, 13, 73, 109
14, 343403, Note_off_c, 13, 40, 64
14, 343424, Note_off_c, 13, 73, 56
14, 343438, Note_on_c, 13, 73, 109
14, 343442, Note_on_c, 13, 40, 96
14, 343483, Note_off_c, 13, 73, 56
14, 343498, Note_on_c, 13, 73, 109
14, 343543, Note_off_c, 13, 73, 56
14, 343560, Note_on_c, 13, 73, 109
14, 343605, Note_off_c, 13, 73, 56
14, 343622, Note_on_c, 13, 73, 109
14, 343647, Note_off_c, 13, 40, 64
14, 343667, Note_off_c, 13, 73, 56
14, 343678, Note_on_c, 13, 73, 109
14, 343680, Note_on_c, 13, 40, 97
14, 343723, Note_off_c, 13, 73, 56
14, 343740, Note_on_c, 13, 73, 109
14, 343785, Note_off_c, 13, 73, 56
14, 343801, Note_on_c, 13, 73, 109
14, 343846, Note_off_c, 13, 73, 56
14, 343862, Note_on_c, 13, 73, 110
14, 343885, Note_off_c, 13, 40, 64
14, 343907, Note_off_c, 13, 73, 56
14, 343918, Note_on_c, 13, 73, 110
14, 343919, Note_on_c, 13, 40, 100
14, 343963, Note_off_c, 13, 73, 56
14, 343981, Note_on_c, 13, 73, 110
14, 344026, Note_off_c, 13, 73, 56
14, 344042, Note_on_c, 13, 73, 110
14, 344087, Note_off_c, 13, 73, 56
14, 344098, Note_on_c, 13, 73, 110
14, 344124, Note_off_c, 13, 40, 64
14, 344143, Note_off_c, 13, 73, 56
14, 344158, Note_on_c, 13, 40, 101
14, 344162, Note_on_c, 13, 73, 110
14, 344207, Note_off_c, 13, 73, 56
14, 344222, Note_on_c, 13, 73, 110
14, 344267, Note_off_c, 13, 73, 56
14, 344282, Note_on_c, 13, 73, 110
14, 344327, Note_off_c, 13, 73, 56
14, 344338, Note_on_c, 13, 73, 110
14, 344363, Note_off_c, 13, 40, 64
14, 344383, Note_off_c, 13, 73, 56
14, 344399, Note_on_c, 13, 73, 111
14, 344402, Note_on_c, 13, 40, 103
14, 344444, Note_off_c, 13, 73, 56
14, 344458, Note_on_c, 13, 73, 111
14, 344503, Note_off_c, 13, 73, 56
14, 344519, Note_on_c, 13, 73, 111
14, 344564, Note_off_c, 13, 73, 56
14, 344581, Note_on_c, 13, 73, 111
14, 344607, Note_off_c, 13, 40, 64
14, 344626, Note_off_c, 13, 73, 56
14, 344639, Note_on_c, 13, 73, 111
14, 344640, Note_on_c, 13, 40, 104
14, 344684, Note_off_c, 13, 73, 56
14, 344701, Note_on_c, 13, 73, 111
14, 344746, Note_off_c, 13, 73, 56
14, 344759, Note_on_c, 13, 73, 111
14, 344804, Note_off_c, 13, 73, 56
14, 344822, Note_on_c, 13, 73, 111
14, 344845, Note_off_c, 13, 40, 64
14, 344867, Note_off_c, 13, 73, 56
14, 344880, Note_on_c, 13, 73, 113
14, 344880, Note_on_c, 13, 40, 106
14, 344925, Note_off_c, 13, 73, 56
14, 344941, Note_on_c, 13, 73, 113
14, 344986, Note_off_c, 13, 73, 56
14, 345000, Note_on_c, 13, 73, 113
14, 345045, Note_off_c, 13, 73, 56
14, 345062, Note_on_c, 13, 73, 113
14, 345085, Note_off_c, 13, 40, 64
14, 345107, Note_off_c, 13, 73, 56
14, 345118, Note_on_c, 13, 73, 113
14, 345122, Note_on_c, 13, 41, 108
14, 345163, Note_off_c, 13, 73, 56
14, 345178, Note_on_c, 13, 73, 113
14, 345223, Note_off_c, 13, 73, 56
14, 345242, Note_on_c, 13, 73, 113
14, 345287, Note_off_c, 13, 73, 56
14, 345302, Note_on_c, 13, 73, 113
14, 345347, Note_off_c, 13, 73, 56
14, 345360, Note_on_c, 13, 73, 113
14, 345405, Note_off_c, 13, 73, 56
14, 345421, Note_on_c, 13, 73, 113
14, 345466, Note_off_c, 13, 73, 56
14, 345478, Note_on_c, 13, 73, 113
14, 345523, Note_off_c, 13, 73, 56
14, 345540, Note_on_c, 13, 73, 113
14, 345585, Note_off_c, 13, 73, 56
14, 345601, Note_on_c, 13, 73, 113
14, 345646, Note_off_c, 13, 73, 56
14, 345659, Note_on_c, 13, 73, 113
14, 345704, Note_off_c, 13, 73, 56
14, 345722, Note_on_c, 13, 73, 113
14, 345767, Note_off_c, 13, 73, 56
14, 345778, Note_on_c, 13, 73, 113
14, 345823, Note_off_c, 13, 73, 56
14, 345842, Note_on_c, 13, 73, 113
14, 345887, Note_off_c, 13, 73, 56
14, 345902, Note_on_c, 13, 73, 113
14, 345947, Note_off_c, 13, 73, 56
14, 345959, Note_on_c, 13, 73, 113
14, 346004, Note_off_c, 13, 73, 56
14, 346018, Note_on_c, 13, 73, 113
14, 346063, Note_off_c, 13, 73, 56
14, 346078, Note_on_c, 13, 74, 113
14, 346123, Note_off_c, 13, 74, 56
14, 346139, Note_on_c, 13, 74, 113
14, 346184, Note_off_c, 13, 74, 56
14, 346201, Note_on_c, 13, 74, 113
14, 346246, Note_off_c, 13, 74, 56
14, 346260, Note_on_c, 13, 74, 113
14, 346305, Note_off_c, 13, 74, 56
14, 346319, Note_on_c, 13, 74, 113
14, 346364, Note_off_c, 13, 74, 56
14, 346378, Note_on_c, 13, 74, 113
14, 346423, Note_off_c, 13, 74, 56
14, 346442, Note_on_c, 13, 74, 113
14, 346487, Note_off_c, 13, 74, 56
14, 346499, Note_on_c, 13, 74, 113
14, 346544, Note_off_c, 13, 74, 56
14, 346562, Note_on_c, 13, 74, 113
14, 346607, Note_off_c, 13, 74, 56
14, 346618, Note_on_c, 13, 74, 113
14, 346663, Note_off_c, 13, 74, 56
14, 346681, Note_on_c, 13, 74, 113
14, 346726, Note_off_c, 13, 74, 56
14, 346742, Note_on_c, 13, 74, 113
14, 346787, Note_off_c, 13, 74, 56
14, 346799, Note_on_c, 13, 74, 113
14, 346844, Note_off_c, 13, 74, 56
14, 346860, Note_on_c, 13, 74, 113
14, 346905, Note_off_c, 13, 74, 56
14, 346921, Note_on_c, 13, 74, 113
14, 346966, Note_off_c, 13, 74, 56
14, 346979, Note_on_c, 13, 74, 113
14, 347024, Note_off_c, 13, 74, 56
14, 347040, Note_on_c, 13, 74, 113
14, 347085, Note_off_c, 13, 74, 56
14, 347101, Note_on_c, 13, 74, 113
14, 347146, Note_off_c, 13, 74, 56
14, 347158, Note_on_c, 13, 74, 113
14, 347203, Note_off_c, 13, 74, 56
14, 347221, Note_on_c, 13, 74, 113
14, 347266, Note_off_c, 13, 74, 56
14, 347278, Note_on_c, 13, 74, 113
14, 347323, Note_off_c, 13, 74, 56
14, 347341, Note_on_c, 13, 74, 113
14, 347386, Note_off_c, 13, 74, 56
14, 347401, Note_on_c, 13, 74, 113
14, 347446, Note_off_c, 13, 74, 56
14, 347462, Note_on_c, 13, 74, 113
14, 347507, Note_off_c, 13, 74, 56
14, 347519, Note_on_c, 13, 74, 113
14, 347564, Note_off_c, 13, 74, 56
14, 347581, Note_on_c, 13, 74, 113
14, 347626, Note_off_c, 13, 74, 56
14, 347638, Note_on_c, 13, 74, 113
14, 347683, Note_off_c, 13, 74, 56
14, 347698, Note_on_c, 13, 74, 113
14, 347743, Note_off_c, 13, 74, 56
14, 347760, Note_on_c, 13, 74, 113
14, 347805, Note_off_c, 13, 74, 56
14, 347822, Note_on_c, 13, 74, 113
14, 347867, Note_off_c, 13, 74, 56
14, 347879, Note_on_c, 13, 74, 113
14, 347906, Note_off_c, 13, 41, 64
14, 347924, Note_off_c, 13, 74, 56
14, 347939, Note_on_c, 13, 74, 113
14, 347984, Note_off_c, 13, 74, 56
14, 348000, Note_on_c, 13, 42, 108
14, 348000, Note_on_c, 13, 75, 113
14, 348045, Note_off_c, 13, 75, 56
14, 348061, Note_on_c, 13, 75, 113
14, 348106, Note_off_c, 13, 75, 56
14, 348121, Note_on_c, 13, 75, 113
14, 348166, Note_off_c, 13, 75, 56
14, 348180, Note_on_c, 13, 75, 113
14, 348225, Note_off_c, 13, 75, 56
14, 348238, Note_on_c, 13, 75, 113
14, 348283, Note_off_c, 13, 75, 56
14, 348302, Note_on_c, 13, 75, 113
14, 348347, Note_off_c, 13, 75, 56
14, 348362, Note_on_c, 13, 75, 113
14, 348407, Note_off_c, 13, 75, 56
14, 348421, Note_on_c, 13, 75, 113
14, 348466, Note_off_c, 13, 75, 56
14, 348479, Note_on_c, 13, 75, 113
14, 348524, Note_off_c, 13, 75, 56
14, 348541, Note_on_c, 13, 75, 113
14, 348586, Note_off_c, 13, 75, 56
14, 348601, Note_on_c, 13, 75, 113
14, 348646, Note_off_c, 13, 75, 56
14, 348661, Note_on_c, 13, 75, 113
14, 348706, Note_off_c, 13, 75, 56
14, 348719, Note_on_c, 13, 75, 113
14, 348764, Note_off_c, 13, 75, 56
14, 348780, Note_on_c, 13, 75, 113
14, 348825, Note_off_c, 13, 75, 56
14, 348842, Note_on_c, 13, 75, 113
14, 348887, Note_off_c, 13, 75, 56
14, 348902, Note_on_c, 13, 75, 113
14, 348947, Note_off_c, 13, 75, 56
14, 348962, Note_on_c, 13, 75, 113
14, 349007, Note_off_c, 13, 75, 56
14, 349021, Note_on_c, 13, 75, 113
14, 349066, Note_off_c, 13, 75, 56
14, 349078, Note_on_c, 13, 75, 113
14, 349123, Note_off_c, 13, 75, 56
14, 349139, Note_on_c, 13, 75, 113
14, 349184, Note_off_c, 13, 75, 56
14, 349200, Note_on_c, 13, 75, 113
14, 349245, Note_off_c, 13, 75, 56
14, 349261, Note_on_c, 13, 75, 113
14, 349306, Note_off_c, 13, 75, 56
14, 349318, Note_on_c, 13, 75, 113
14, 349363, Note_off_c, 13, 75, 56
14, 349381, Note_on_c, 13, 75, 113
14, 349426, Note_off_c, 13, 75, 56
14, 349439, Note_on_c, 13, 75, 113
14, 349484, Note_off_c, 13, 75, 56
14, 349498, Note_on_c, 13, 75, 113
14, 349543, Note_off_c, 13, 75, 56
14, 349562, Note_on_c, 13, 75, 113
14, 349607, Note_off_c, 13, 75, 56
14, 349621, Note_on_c, 13, 75, 113
14, 349666, Note_off_c, 13, 75, 56
14, 349680, Note_on_c, 13, 75, 113
14, 349725, Note_off_c, 13, 75, 56
14, 349742, Note_on_c, 13, 75, 113
14, 349787, Note_off_c, 13, 75, 56
14, 349798, Note_on_c, 13, 75, 113
14, 349824, Note_off_c, 13, 42, 64
14, 349843, Note_off_c, 13, 75, 56
14, 349860, Note_on_c, 13, 75, 113
14, 349905, Note_off_c, 13, 75, 56
14, 349918, Note_on_c, 13, 84, 108
14, 349920, Note_on_c, 13, 43, 96
14, 349922, Note_on_c, 13, 76, 108
14, 350566, Note_off_c, 13, 84, 64
14, 350568, Note_off_c, 13, 43, 64
14, 350570, Note_off_c, 13, 76, 64
14, 350640, Note_on_c, 13, 48, 96
14, 350845, Note_off_c, 13, 48, 64
14, 350882, Note_on_c, 13, 47, 96
14, 351120, Note_on_c, 13, 62, 108
14, 351192, Note_off_c, 13, 62, 56
14, 351197, Note_on_c, 13, 64, 108
14, 351269, Note_off_c, 13, 64, 56
14, 351270, Note_on_c, 13, 65, 108
14, 351314, Note_off_c, 13, 47, 64
14, 351342, Note_off_c, 13, 65, 56
14, 351360, Note_on_c, 13, 48, 96
14, 351598, Note_on_c, 13, 60, 108
14, 351670, Note_off_c, 13, 60, 56
14, 351674, Note_on_c, 13, 62, 108
14, 351746, Note_off_c, 13, 62, 56
14, 351765, Note_on_c, 13, 64, 108
14, 351792, Note_off_c, 13, 48, 64
14, 351837, Note_off_c, 13, 64, 56
14, 351842, Note_on_c, 13, 50, 96
14, 352078, Note_on_c, 13, 59, 108
14, 352150, Note_off_c, 13, 59, 56
14, 352154, Note_on_c, 13, 60, 108
14, 352226, Note_off_c, 13, 60, 56
14, 352247, Note_on_c, 13, 62, 108
14, 352319, Note_off_c, 13, 62, 56
14, 352490, Note_off_c, 13, 50, 64
14, 352561, Note_on_c, 13, 50, 96
14, 352766, Note_off_c, 13, 50, 64
14, 352802, Note_on_c, 13, 48, 96
14, 353038, Note_on_c, 13, 64, 108
14, 353110, Note_off_c, 13, 64, 56
14, 353113, Note_on_c, 13, 65, 108
14, 353185, Note_off_c, 13, 65, 56
14, 353192, Note_on_c, 13, 67, 108
14, 353234, Note_off_c, 13, 48, 64
14, 353264, Note_off_c, 13, 67, 56
14, 353279, Note_on_c, 13, 50, 96
14, 353522, Note_on_c, 13, 62, 108
14, 353593, Note_on_c, 13, 64, 108
14, 353594, Note_off_c, 13, 62, 56
14, 353665, Note_off_c, 13, 64, 56
14, 353686, Note_on_c, 13, 65, 108
14, 353711, Note_off_c, 13, 50, 64
14, 353758, Note_off_c, 13, 65, 56
14, 353761, Note_on_c, 13, 52, 96
14, 353998, Note_on_c, 13, 60, 108
14, 354070, Note_off_c, 13, 60, 56
14, 354074, Note_on_c, 13, 62, 108
14, 354146, Note_off_c, 13, 62, 56
14, 354148, Note_on_c, 13, 64, 108
14, 354220, Note_off_c, 13, 64, 56
14, 354409, Note_off_c, 13, 52, 64
14, 354478, Note_on_c, 13, 67, 108
14, 354478, Note_on_c, 13, 55, 96
14, 354550, Note_off_c, 13, 55, 56
14, 354550, Note_off_c, 13, 67, 56
14, 354553, Note_on_c, 13, 53, 96
14, 354553, Note_on_c, 13, 65, 108
14, 354625, Note_off_c, 13, 65, 56
14, 354625, Note_off_c, 13, 53, 56
14, 354631, Note_on_c, 13, 64, 108
14, 354647, Note_on_c, 13, 52, 96
14, 354703, Note_off_c, 13, 64, 56
14, 354719, Note_off_c, 13, 52, 56
14, 354720, Note_on_c, 13, 50, 96
14, 354720, Note_on_c, 13, 62, 108
14, 354936, Note_off_c, 13, 62, 64
14, 354936, Note_off_c, 13, 50, 64
14, 354961, Note_on_c, 13, 65, 108
14, 354962, Note_on_c, 13, 53, 96
14, 355033, Note_off_c, 13, 65, 56
14, 355033, Note_on_c, 13, 64, 108
14, 355033, Note_on_c, 13, 52, 96
14, 355034, Note_off_c, 13, 53, 56
14, 355105, Note_off_c, 13, 52, 56
14, 355105, Note_off_c, 13, 64, 56
14, 355123, Note_on_c, 13, 62, 108
14, 355123, Note_on_c, 13, 50, 96
14, 355195, Note_off_c, 13, 50, 56
14, 355195, Note_off_c, 13, 62, 56
14, 355200, Note_on_c, 13, 48, 96
14, 355201, Note_on_c, 13, 60, 108
14, 355416, Note_off_c, 13, 48, 64
14, 355417, Note_off_c, 13, 60, 64
14, 355438, Note_on_c, 13, 64, 108
14, 355439, Note_on_c, 13, 52, 96
14, 355510, Note_off_c, 13, 64, 56
14, 355511, Note_off_c, 13, 52, 56
14, 355517, Note_on_c, 13, 62, 108
14, 355517, Note_on_c, 13, 50, 96
14, 355589, Note_off_c, 13, 50, 56
14, 355589, Note_off_c, 13, 62, 56
14, 355589, Note_on_c, 13, 60, 108
14, 355606, Note_on_c, 13, 48, 96
14, 355661, Note_off_c, 13, 60, 56
14, 355678, Note_off_c, 13, 48, 56
14, 355680, Note_on_c, 13, 59, 108
14, 355681, Note_on_c, 13, 47, 96
14, 355816, Note_off_c, 13, 59, 64
14, 355817, Note_off_c, 13, 47, 64
14, 355920, Note_on_c, 13, 59, 108
14, 355920, Note_on_c, 13, 47, 96
14, 355992, Note_off_c, 13, 47, 56
14, 355992, Note_off_c, 13, 59, 56
14, 355994, Note_on_c, 13, 48, 96
14, 355996, Note_on_c, 13, 60, 108
14, 356066, Note_off_c, 13, 48, 56
14, 356068, Note_off_c, 13, 60, 56
14, 356068, Note_on_c, 13, 50, 96
14, 356087, Note_on_c, 13, 62, 108
14, 356140, Note_off_c, 13, 50, 56
14, 356159, Note_off_c, 13, 62, 56
14, 356161, Note_on_c, 13, 55, 108
14, 356162, Note_on_c, 13, 43, 96
14, 356297, Note_off_c, 13, 55, 64
14, 356298, Note_off_c, 13, 43, 64
14, 356398, Note_on_c, 13, 57, 96
14, 356399, Note_on_c, 13, 69, 108
14, 356470, Note_off_c, 13, 57, 56
14, 356471, Note_off_c, 13, 69, 56
14, 356474, Note_on_c, 13, 55, 96
14, 356477, Note_on_c, 13, 67, 108
14, 356546, Note_off_c, 13, 55, 56
14, 356549, Note_off_c, 13, 67, 56
14, 356564, Note_on_c, 13, 65, 108
14, 356565, Note_on_c, 13, 53, 96
14, 356636, Note_off_c, 13, 65, 56
14, 356637, Note_off_c, 13, 53, 56
14, 356640, Note_on_c, 13, 52, 96
14, 356641, Note_on_c, 13, 64, 108
14, 356856, Note_off_c, 13, 52, 64
14, 356857, Note_off_c, 13, 64, 64
14, 356878, Note_on_c, 13, 67, 108
14, 356879, Note_on_c, 13, 55, 96
14, 356950, Note_off_c, 13, 67, 56
14, 356951, Note_off_c, 13, 55, 56
14, 356954, Note_on_c, 13, 53, 96
14, 356957, Note_on_c, 13, 65, 108
14, 357026, Note_off_c, 13, 53, 56
14, 357029, Note_off_c, 13, 65, 56
14, 357043, Note_on_c, 13, 52, 96
14, 357047, Note_on_c, 13, 64, 108
14, 357115, Note_off_c, 13, 52, 56
14, 357119, Note_off_c, 13, 64, 56
14, 357119, Note_on_c, 13, 50, 96
14, 357122, Note_on_c, 13, 62, 108
14, 357335, Note_off_c, 13, 50, 64
14, 357338, Note_off_c, 13, 62, 64
14, 357358, Note_on_c, 13, 65, 108
14, 357361, Note_on_c, 13, 53, 96
14, 357430, Note_off_c, 13, 65, 56
14, 357433, Note_off_c, 13, 53, 56
14, 357434, Note_on_c, 13, 64, 108
14, 357435, Note_on_c, 13, 52, 96
14, 357506, Note_off_c, 13, 64, 56
14, 357507, Note_off_c, 13, 52, 56
14, 357523, Note_on_c, 13, 62, 108
14, 357523, Note_on_c, 13, 50, 96
14, 357595, Note_off_c, 13, 50, 56
14, 357595, Note_off_c, 13, 62, 56
14, 357598, Note_on_c, 13, 60, 108
14, 357599, Note_on_c, 13, 48, 96
14, 357734, Note_off_c, 13, 60, 64
14, 357735, Note_off_c, 13, 48, 64
14, 357841, Note_on_c, 13, 60, 108
14, 357841, Note_on_c, 13, 48, 96
14, 357913, Note_off_c, 13, 48, 56
14, 357913, Note_off_c, 13, 60, 56
14, 357917, Note_on_c, 13, 50, 96
14, 357917, Note_on_c, 13, 62, 108
14, 357989, Note_off_c, 13, 62, 56
14, 357989, Note_off_c, 13, 50, 56
14, 358004, Note_on_c, 13, 64, 108
14, 358004, Note_on_c, 13, 52, 96
14, 358076, Note_off_c, 13, 52, 56
14, 358076, Note_off_c, 13, 64, 56
14, 358078, Note_on_c, 13, 43, 96
14, 358079, Note_on_c, 13, 55, 108
14, 358214, Note_off_c, 13, 43, 64
14, 358215, Note_off_c, 13, 55, 64
14, 358318, Note_on_c, 13, 72, 113
14, 358319, Note_on_c, 13, 48, 101
14, 358378, Note_off_c, 13, 72, 56
14, 358379, Note_off_c, 13, 48, 56
14, 358393, Note_on_c, 13, 60, 102
14, 358395, Note_on_c, 13, 72, 113
14, 358453, Note_off_c, 13, 60, 56
14, 358455, Note_off_c, 13, 72, 56
14, 358485, Note_on_c, 13, 60, 102
14, 358486, Note_on_c, 13, 72, 113
14, 358545, Note_off_c, 13, 60, 56
14, 358546, Note_off_c, 13, 72, 56
14, 358561, Note_on_c, 13, 71, 113
14, 358562, Note_on_c, 13, 43, 102
14, 358621, Note_off_c, 13, 71, 56
14, 358622, Note_off_c, 13, 43, 56
14, 358634, Note_on_c, 13, 71, 113
14, 358635, Note_on_c, 13, 55, 102
14, 358694, Note_off_c, 13, 71, 56
14, 358695, Note_off_c, 13, 55, 56
14, 358710, Note_on_c, 13, 55, 103
14, 358726, Note_on_c, 13, 71, 113
14, 358770, Note_off_c, 13, 55, 56
14, 358786, Note_off_c, 13, 71, 56
14, 358800, Note_on_c, 13, 71, 113
14, 358802, Note_on_c, 13, 55, 103
14, 358860, Note_off_c, 13, 71, 56
14, 358862, Note_off_c, 13, 55, 56
14, 358875, Note_on_c, 13, 71, 113
14, 358877, Note_on_c, 13, 55, 103
14, 358935, Note_off_c, 13, 71, 56
14, 358937, Note_off_c, 13, 55, 56
14, 358948, Note_on_c, 13, 71, 113
14, 358952, Note_on_c, 13, 55, 103
14, 359008, Note_off_c, 13, 71, 56
14, 359012, Note_off_c, 13, 55, 56
14, 359040, Note_on_c, 13, 72, 113
14, 359042, Note_on_c, 13, 48, 105
14, 359100, Note_off_c, 13, 72, 56
14, 359102, Note_off_c, 13, 48, 56
14, 359114, Note_on_c, 13, 72, 113
14, 359114, Note_on_c, 13, 60, 105
14, 359174, Note_off_c, 13, 60, 56
14, 359174, Note_off_c, 13, 72, 56
14, 359205, Note_on_c, 13, 72, 113
14, 359205, Note_on_c, 13, 60, 105
14, 359265, Note_off_c, 13, 60, 56
14, 359265, Note_off_c, 13, 72, 56
14, 359279, Note_on_c, 13, 72, 113
14, 359280, Note_on_c, 13, 60, 105
14, 359339, Note_off_c, 13, 72, 56
14, 359340, Note_off_c, 13, 60, 56
14, 359353, Note_on_c, 13, 72, 113
14, 359354, Note_on_c, 13, 60, 106
14, 359413, Note_off_c, 13, 72, 56
14, 359414, Note_off_c, 13, 60, 56
14, 359432, Note_on_c, 13, 60, 106
14, 359446, Note_on_c, 13, 72, 113
14, 359492, Note_off_c, 13, 60, 56
14, 359506, Note_off_c, 13, 72, 56
14, 359521, Note_on_c, 13, 71, 113
14, 359522, Note_on_c, 13, 50, 106
14, 359581, Note_off_c, 13, 71, 56
14, 359582, Note_off_c, 13, 50, 56
14, 359593, Note_on_c, 13, 71, 113
14, 359594, Note_on_c, 13, 62, 106
14, 359653, Note_off_c, 13, 71, 56
14, 359654, Note_off_c, 13, 62, 56
14, 359669, Note_on_c, 13, 62, 107
14, 359684, Note_on_c, 13, 71, 113
14, 359729, Note_off_c, 13, 62, 56
14, 359744, Note_off_c, 13, 71, 56
14, 359759, Note_on_c, 13, 71, 113
14, 359760, Note_on_c, 13, 62, 107
14, 359819, Note_off_c, 13, 71, 56
14, 359820, Note_off_c, 13, 62, 56
14, 359836, Note_on_c, 13, 71, 113
14, 359837, Note_on_c, 13, 62, 107
14, 359896, Note_off_c, 13, 71, 56
14, 359897, Note_off_c, 13, 62, 56
14, 359911, Note_on_c, 13, 71, 113
14, 359923, Note_on_c, 13, 62, 107
14, 359971, Note_off_c, 13, 71, 56
14, 359983, Note_off_c, 13, 62, 56
14, 359999, Note_on_c, 13, 62, 108
14, 360001, Note_on_c, 13, 71, 113
14, 360059, Note_off_c, 13, 62, 56
14, 360061, Note_off_c, 13, 71, 56
14, 360075, Note_on_c, 13, 62, 108
14, 360075, Note_on_c, 13, 71, 113
14, 360135, Note_off_c, 13, 71, 56
14, 360135, Note_off_c, 13, 62, 56
14, 360166, Note_on_c, 13, 71, 113
14, 360167, Note_on_c, 13, 62, 108
14, 360226, Note_off_c, 13, 71, 56
14, 360227, Note_off_c, 13, 62, 56
14, 360241, Note_on_c, 13, 71, 113
14, 360242, Note_on_c, 13, 62, 108
14, 360301, Note_off_c, 13, 71, 56
14, 360302, Note_off_c, 13, 62, 56
14, 360313, Note_on_c, 13, 62, 109
14, 360316, Note_on_c, 13, 71, 113
14, 360373, Note_off_c, 13, 62, 56
14, 360376, Note_off_c, 13, 71, 56
14, 360388, Note_on_c, 13, 71, 113
14, 360405, Note_on_c, 13, 62, 109
14, 360448, Note_off_c, 13, 71, 56
14, 360465, Note_off_c, 13, 62, 56
14, 360481, Note_on_c, 13, 70, 113
14, 360482, Note_on_c, 13, 49, 109
14, 360541, Note_off_c, 13, 70, 56
14, 360542, Note_off_c, 13, 49, 56
14, 360553, Note_on_c, 13, 70, 113
14, 360553, Note_on_c, 13, 61, 109
14, 360613, Note_off_c, 13, 61, 56
14, 360613, Note_off_c, 13, 70, 56
14, 360643, Note_on_c, 13, 70, 113
14, 360645, Note_on_c, 13, 61, 110
14, 360703, Note_off_c, 13, 70, 56
14, 360705, Note_off_c, 13, 61, 56
14, 360719, Note_on_c, 13, 70, 113
14, 360722, Note_on_c, 13, 61, 110
14, 360779, Note_off_c, 13, 70, 56
14, 360782, Note_off_c, 13, 61, 56
14, 360793, Note_on_c, 13, 61, 110
14, 360796, Note_on_c, 13, 70, 113
14, 360853, Note_off_c, 13, 61, 56
14, 360856, Note_off_c, 13, 70, 56
14, 360870, Note_on_c, 13, 70, 113
14, 360886, Note_on_c, 13, 61, 110
14, 360930, Note_off_c, 13, 70, 56
14, 360946, Note_off_c, 13, 61, 56
14, 360959, Note_on_c, 13, 50, 111
14, 360959, Note_on_c, 13, 70, 113
14, 361019, Note_off_c, 13, 70, 56
14, 361019, Note_off_c, 13, 50, 56
14, 361034, Note_on_c, 13, 62, 111
14, 361037, Note_on_c, 13, 70, 113
14, 361094, Note_off_c, 13, 62, 56
14, 361097, Note_off_c, 13, 70, 56
14, 361109, Note_on_c, 13, 62, 111
14, 361111, Note_on_c, 13, 70, 113
14, 361169, Note_off_c, 13, 62, 56
14, 361171, Note_off_c, 13, 70, 56
14, 361198, Note_on_c, 13, 62, 111
14, 361199, Note_on_c, 13, 70, 113
14, 361258, Note_off_c, 13, 62, 56
14, 361259, Note_off_c, 13, 70, 56
14, 361276, Note_on_c, 13, 62, 113
14, 361276, Note_on_c, 13, 70, 113
14, 361336, Note_off_c, 13, 70, 56
14, 361336, Note_off_c, 13, 62, 56
14, 361363, Note_on_c, 13, 62, 113
14, 361363, Note_on_c, 13, 70, 113
14, 361423, Note_off_c, 13, 70, 56
14, 361423, Note_off_c, 13, 62, 56
14, 361438, Note_on_c, 13, 52, 113
14, 361438, Note_on_c, 13, 70, 113
14, 361498, Note_off_c, 13, 70, 56
14, 361498, Note_off_c, 13, 52, 56
14, 361513, Note_on_c, 13, 70, 113
14, 361516, Note_on_c, 13, 64, 113
14, 361573, Note_off_c, 13, 70, 56
14, 361576, Note_off_c, 13, 64, 56
14, 361592, Note_on_c, 13, 70, 113
14, 361607, Note_on_c, 13, 64, 113
14, 361652, Note_off_c, 13, 70, 56
14, 361667, Note_off_c, 13, 64, 56
14, 361681, Note_on_c, 13, 64, 113
14, 361682, Note_on_c, 13, 70, 113
14, 361741, Note_off_c, 13, 64, 56
14, 361742, Note_off_c, 13, 70, 56
14, 361754, Note_on_c, 13, 70, 113
14, 361756, Note_on_c, 13, 64, 113
14, 361814, Note_off_c, 13, 70, 56
14, 361816, Note_off_c, 13, 64, 56
14, 361843, Note_on_c, 13, 64, 113
14, 361847, Note_on_c, 13, 70, 113
14, 361903, Note_off_c, 13, 64, 56
14, 361907, Note_off_c, 13, 70, 56
14, 361921, Note_on_c, 13, 70, 113
14, 361921, Note_on_c, 13, 52, 113
14, 361981, Note_off_c, 13, 52, 56
14, 361981, Note_off_c, 13, 70, 56
14, 361994, Note_on_c, 13, 64, 113
14, 361996, Note_on_c, 13, 70, 113
14, 362054, Note_off_c, 13, 64, 56
14, 362056, Note_off_c, 13, 70, 56
14, 362083, Note_on_c, 13, 64, 113
14, 362084, Note_on_c, 13, 70, 113
14, 362143, Note_off_c, 13, 64, 56
14, 362144, Note_off_c, 13, 70, 56
14, 362158, Note_on_c, 13, 70, 113
14, 362161, Note_on_c, 13, 64, 113
14, 362218, Note_off_c, 13, 70, 56
14, 362221, Note_off_c, 13, 64, 56
14, 362236, Note_on_c, 13, 64, 113
14, 362237, Note_on_c, 13, 70, 113
14, 362296, Note_off_c, 13, 64, 56
14, 362297, Note_off_c, 13, 70, 56
14, 362323, Note_on_c, 13, 64, 113
14, 362326, Note_on_c, 13, 70, 113
14, 362383, Note_off_c, 13, 64, 56
14, 362386, Note_off_c, 13, 70, 56
14, 362399, Note_on_c, 13, 70, 113
14, 362402, Note_on_c, 13, 52, 113
14, 362459, Note_off_c, 13, 70, 56
14, 362462, Note_off_c, 13, 52, 56
14, 362475, Note_on_c, 13, 64, 113
14, 362477, Note_on_c, 13, 70, 113
14, 362535, Note_off_c, 13, 64, 56
14, 362537, Note_off_c, 13, 70, 56
14, 362550, Note_on_c, 13, 64, 113
14, 362565, Note_on_c, 13, 70, 113
14, 362610, Note_off_c, 13, 64, 56
14, 362625, Note_off_c, 13, 70, 56
14, 362639, Note_on_c, 13, 64, 113
14, 362641, Note_on_c, 13, 70, 113
14, 362699, Note_off_c, 13, 64, 56
14, 362701, Note_off_c, 13, 70, 56
14, 362713, Note_on_c, 13, 64, 113
14, 362717, Note_on_c, 13, 70, 113
14, 362773, Note_off_c, 13, 64, 56
14, 362777, Note_off_c, 13, 70, 56
14, 362791, Note_on_c, 13, 70, 113
14, 362791, Note_on_c, 13, 64, 113
14, 362851, Note_off_c, 13, 64, 56
14, 362851, Note_off_c, 13, 70, 56
14, 362878, Note_on_c, 13, 52, 113
14, 362882, Note_on_c, 13, 70, 113
14, 362938, Note_off_c, 13, 52, 56
14, 362942, Note_off_c, 13, 70, 56
14, 362956, Note_on_c, 13, 64, 113
14, 362956, Note_on_c, 13, 70, 113
14, 363016, Note_off_c, 13, 70, 56
14, 363016, Note_off_c, 13, 64, 56
14, 363028, Note_on_c, 13, 64, 113
14, 363031, Note_on_c, 13, 70, 113
14, 363088, Note_off_c, 13, 64, 56
14, 363091, Note_off_c, 13, 70, 56
14, 363118, Note_on_c, 13, 64, 113
14, 363120, Note_on_c, 13, 70, 113
14, 363178, Note_off_c, 13, 64, 56
14, 363180, Note_off_c, 13, 70, 56
14, 363193, Note_on_c, 13, 70, 113
14, 363193, Note_on_c, 13, 64, 113
14, 363253, Note_off_c, 13, 64, 56
14, 363253, Note_off_c, 13, 70, 56
14, 363284, Note_on_c, 13, 70, 113
14, 363284, Note_on_c, 13, 64, 113
14, 363344, Note_off_c, 13, 64, 56
14, 363344, Note_off_c, 13, 70, 56
14, 363361, Note_on_c, 13, 69, 113
14, 363361, Note_on_c, 13, 53, 108
14, 363406, Note_off_c, 13, 69, 56
14, 363421, Note_on_c, 13, 60, 113
14, 363452, Note_off_c, 13, 53, 56
14, 363466, Note_off_c, 13, 60, 56
14, 363482, Note_on_c, 13, 69, 113
14, 363482, Note_on_c, 13, 41, 108
14, 363527, Note_off_c, 13, 69, 56
14, 363541, Note_on_c, 13, 69, 113
14, 363573, Note_off_c, 13, 41, 56
14, 363586, Note_off_c, 13, 69, 56
14, 363599, Note_on_c, 13, 41, 108
14, 363600, Note_on_c, 13, 69, 113
14, 363645, Note_off_c, 13, 69, 56
14, 363662, Note_on_c, 13, 69, 113
14, 363690, Note_off_c, 13, 41, 56
14, 363707, Note_off_c, 13, 69, 56
14, 363719, Note_on_c, 13, 41, 108
14, 363722, Note_on_c, 13, 69, 113
14, 363767, Note_off_c, 13, 69, 56
14, 363779, Note_on_c, 13, 69, 113
14, 363810, Note_off_c, 13, 41, 56
14, 363824, Note_off_c, 13, 69, 56
14, 363841, Note_on_c, 13, 69, 113
14, 363842, Note_on_c, 13, 41, 108
14, 363886, Note_off_c, 13, 69, 56
14, 363901, Note_on_c, 13, 69, 113
14, 363933, Note_off_c, 13, 41, 56
14, 363946, Note_off_c, 13, 69, 56
14, 363958, Note_on_c, 13, 69, 113
14, 363959, Note_on_c, 13, 41, 108
14, 364003, Note_off_c, 13, 69, 56
14, 364018, Note_on_c, 13, 69, 113
14, 364050, Note_off_c, 13, 41, 56
14, 364063, Note_off_c, 13, 69, 56
14, 364082, Note_on_c, 13, 69, 113
14, 364082, Note_on_c, 13, 41, 108
14, 364127, Note_off_c, 13, 69, 56
14, 364139, Note_on_c, 13, 69, 113
14, 364173, Note_off_c, 13, 41, 56
14, 364184, Note_off_c, 13, 69, 56
14, 364198, Note_on_c, 13, 41, 108
14, 364198, Note_on_c, 13, 69, 113
14, 364243, Note_off_c, 13, 69, 56
14, 364262, Note_on_c, 13, 69, 113
14, 364289, Note_off_c, 13, 41, 56
14, 364307, Note_off_c, 13, 69, 56
14, 364320, Note_on_c, 13, 41, 108
14, 364322, Note_on_c, 13, 72, 113
14, 364367, Note_off_c, 13, 72, 56
14, 364380, Note_on_c, 13, 69, 113
14, 364411, Note_off_c, 13, 41, 56
14, 364425, Note_off_c, 13, 69, 56
14, 364439, Note_on_c, 13, 41, 108
14, 364441, Note_on_c, 13, 72, 113
14, 364486, Note_off_c, 13, 72, 56
14, 364498, Note_on_c, 13, 72, 113
14, 364530, Note_off_c, 13, 41, 56
14, 364543, Note_off_c, 13, 72, 56
14, 364558, Note_on_c, 13, 72, 113
14, 364562, Note_on_c, 13, 41, 108
14, 364603, Note_off_c, 13, 72, 56
14, 364620, Note_on_c, 13, 72, 113
14, 364653, Note_off_c, 13, 41, 56
14, 364665, Note_off_c, 13, 72, 56
14, 364680, Note_on_c, 13, 72, 113
14, 364681, Note_on_c, 13, 41, 108
14, 364725, Note_off_c, 13, 72, 56
14, 364741, Note_on_c, 13, 72, 113
14, 364772, Note_off_c, 13, 41, 56
14, 364786, Note_off_c, 13, 72, 56
14, 364798, Note_on_c, 13, 41, 108
14, 364800, Note_on_c, 13, 72, 113
14, 364845, Note_off_c, 13, 72, 56
14, 364861, Note_on_c, 13, 72, 113
14, 364889, Note_off_c, 13, 41, 56
14, 364906, Note_off_c, 13, 72, 56
14, 364921, Note_on_c, 13, 72, 113
14, 364922, Note_on_c, 13, 41, 108
14, 364966, Note_off_c, 13, 72, 56
14, 364979, Note_on_c, 13, 72, 113
14, 365013, Note_off_c, 13, 41, 56
14, 365024, Note_off_c, 13, 72, 56
14, 365039, Note_on_c, 13, 72, 113
14, 365039, Note_on_c, 13, 41, 108
14, 365084, Note_off_c, 13, 72, 56
14, 365101, Note_on_c, 13, 72, 113
14, 365130, Note_off_c, 13, 41, 56
14, 365146, Note_off_c, 13, 72, 56
14, 365161, Note_on_c, 13, 72, 113
14, 365161, Note_on_c, 13, 41, 108
14, 365206, Note_off_c, 13, 72, 56
14, 365219, Note_on_c, 13, 72, 113
14, 365252, Note_off_c, 13, 41, 56
14, 365264, Note_off_c, 13, 72, 56
14, 365279, Note_on_c, 13, 41, 108
14, 365281, Note_on_c, 13, 77, 113
14, 365326, Note_off_c, 13, 77, 56
14, 365341, Note_on_c, 13, 69, 113
14, 365370, Note_off_c, 13, 41, 56
14, 365386, Note_off_c, 13, 69, 56
14, 365398, Note_on_c, 13, 77, 113
14, 365399, Note_on_c, 13, 41, 108
14, 365443, Note_off_c, 13, 77, 56
14, 365459, Note_on_c, 13, 77, 113
14, 365490, Note_off_c, 13, 41, 56
14, 365504, Note_off_c, 13, 77, 56
14, 365521, Note_on_c, 13, 77, 113
14, 365522, Note_on_c, 13, 41, 108
14, 365566, Note_off_c, 13, 77, 56
14, 365579, Note_on_c, 13, 77, 113
14, 365613, Note_off_c, 13, 41, 56
14, 365624, Note_off_c, 13, 77, 56
14, 365640, Note_on_c, 13, 41, 108
14, 365641, Note_on_c, 13, 77, 113
14, 365686, Note_off_c, 13, 77, 56
14, 365702, Note_on_c, 13, 77, 113
14, 365731, Note_off_c, 13, 41, 56
14, 365747, Note_off_c, 13, 77, 56
14, 365758, Note_on_c, 13, 41, 108
14, 365762, Note_on_c, 13, 77, 113
14, 365807, Note_off_c, 13, 77, 56
14, 365821, Note_on_c, 13, 77, 113
14, 365849, Note_off_c, 13, 41, 56
14, 365866, Note_off_c, 13, 77, 56
14, 365879, Note_on_c, 13, 41, 108
14, 365882, Note_on_c, 13, 77, 113
14, 365927, Note_off_c, 13, 77, 56
14, 365938, Note_on_c, 13, 77, 113
14, 365970, Note_off_c, 13, 41, 56
14, 365983, Note_off_c, 13, 77, 56
14, 366000, Note_on_c, 13, 77, 113
14, 366001, Note_on_c, 13, 41, 108
14, 366045, Note_off_c, 13, 77, 56
14, 366059, Note_on_c, 13, 77, 113
14, 366092, Note_off_c, 13, 41, 56
14, 366104, Note_off_c, 13, 77, 56
14, 366118, Note_on_c, 13, 41, 108
14, 366122, Note_on_c, 13, 77, 113
14, 366167, Note_off_c, 13, 77, 56
14, 366180, Note_on_c, 13, 77, 113
14, 366209, Note_off_c, 13, 41, 56
14, 366225, Note_off_c, 13, 77, 56
14, 366239, Note_on_c, 13, 81, 113
14, 366240, Note_on_c, 13, 41, 108
14, 366284, Note_off_c, 13, 81, 56
14, 366299, Note_on_c, 13, 69, 113
14, 366331, Note_off_c, 13, 41, 56
14, 366344, Note_off_c, 13, 69, 56
14, 366358, Note_on_c, 13, 81, 113
14, 366361, Note_on_c, 13, 41, 108
14, 366403, Note_off_c, 13, 81, 56
14, 366420, Note_on_c, 13, 81, 113
14, 366452, Note_off_c, 13, 41, 56
14, 366465, Note_off_c, 13, 81, 56
14, 366481, Note_on_c, 13, 81, 113
14, 366481, Note_on_c, 13, 41, 108
14, 366526, Note_off_c, 13, 81, 56
14, 366541, Note_on_c, 13, 81, 113
14, 366572, Note_off_c, 13, 41, 56
14, 366586, Note_off_c, 13, 81, 56
14, 366599, Note_on_c, 13, 41, 108
14, 366601, Note_on_c, 13, 81, 113
14, 366646, Note_off_c, 13, 81, 56
14, 366661, Note_on_c, 13, 81, 113
14, 366690, Note_off_c, 13, 41, 56
14, 366706, Note_off_c, 13, 81, 56
14, 366719, Note_on_c, 13, 41, 108
14, 366721, Note_on_c, 13, 81, 113
14, 366766, Note_off_c, 13, 81, 56
14, 366781, Note_on_c, 13, 81, 113
14, 366810, Note_off_c, 13, 41, 56
14, 366826, Note_off_c, 13, 81, 56
14, 366838, Note_on_c, 13, 81, 113
14, 366838, Note_on_c, 13, 41, 108
14, 366883, Note_off_c, 13, 81, 56
14, 366898, Note_on_c, 13, 81, 113
14, 366929, Note_off_c, 13, 41, 56
14, 366943, Note_off_c, 13, 81, 56
14, 366960, Note_on_c, 13, 81, 113
14, 366962, Note_on_c, 13, 41, 108
14, 367005, Note_off_c, 13, 81, 56
14, 367021, Note_on_c, 13, 81, 113
14, 367053, Note_off_c, 13, 41, 56
14, 367066, Note_off_c, 13, 81, 56
14, 367078, Note_on_c, 13, 41, 108
14, 367080, Note_on_c, 13, 81, 113
14, 367125, Note_off_c, 13, 81, 56
14, 367139, Note_on_c, 13, 81, 113
14, 367169, Note_off_c, 13, 41, 56
14, 367184, Note_off_c, 13, 81, 56
14, 367198, Note_on_c, 13, 79, 108
14, 367199, Note_on_c, 13, 43, 108
14, 367334, Note_off_c, 13, 79, 64
14, 367335, Note_off_c, 13, 43, 64
14, 368160, Note_on_c, 13, 55, 108
14, 368160, Note_on_c, 13, 43, 108
14, 368160, Note_on_c, 13, 62, 108
14, 368296, Note_off_c, 13, 43, 64
14, 368365, Note_off_c, 13, 62, 64
14, 368365, Note_off_c, 13, 55, 64
14, 369119, Note_on_c, 13, 48, 108
14, 369120, Note_on_c, 13, 64, 108
14, 369121, Note_on_c, 13, 55, 108
14, 369255, Note_off_c, 13, 48, 64
14, 369325, Note_off_c, 13, 64, 64
14, 369326, Note_off_c, 13, 55, 64
14, 370078, Note_on_c, 13, 55, 108
14, 370079, Note_on_c, 13, 62, 108
14, 370082, Note_on_c, 13, 43, 108
14, 370218, Note_off_c, 13, 43, 64
14, 370283, Note_off_c, 13, 55, 64
14, 370284, Note_off_c, 13, 62, 64
14, 371038, Note_on_c, 13, 64, 108
14, 371039, Note_on_c, 13, 55, 108
14, 371040, Note_on_c, 13, 48, 108
14, 371176, Note_off_c, 13, 48, 64
14, 371243, Note_off_c, 13, 64, 64
14, 371244, Note_off_c, 13, 55, 64
14, 371998, Note_on_c, 13, 62, 108
14, 371998, Note_on_c, 13, 55, 108
14, 372000, Note_on_c, 13, 43, 108
14, 372136, Note_off_c, 13, 43, 64
14, 372203, Note_off_c, 13, 55, 64
14, 372203, Note_off_c, 13, 62, 64
14, 378719, Note_on_c, 13, 53, 73
14, 378827, Note_off_c, 13, 53, 56
14, 378841, Note_on_c, 13, 55, 73
14, 378949, Note_off_c, 13, 55, 56
14, 378961, Note_on_c, 13, 53, 74
14, 378962, Note_on_c, 13, 59, 79
14, 378989, Note_off_c, 13, 59, 56
14, 378991, Note_on_c, 13, 60, 79
14, 379018, Note_off_c, 13, 60, 56
14, 379021, Note_on_c, 13, 62, 74
14, 379069, Note_off_c, 13, 53, 56
14, 379081, Note_on_c, 13, 55, 75
14, 379183, Note_off_c, 13, 62, 64
14, 379189, Note_off_c, 13, 55, 56
14, 379202, Note_on_c, 13, 53, 75
14, 379310, Note_off_c, 13, 53, 56
14, 379318, Note_on_c, 13, 55, 77
14, 379426, Note_off_c, 13, 55, 56
14, 379439, Note_on_c, 13, 59, 83
14, 379442, Note_on_c, 13, 53, 78
14, 379466, Note_off_c, 13, 59, 56
14, 379468, Note_on_c, 13, 60, 83
14, 379495, Note_off_c, 13, 60, 56
14, 379500, Note_on_c, 13, 62, 78
14, 379550, Note_off_c, 13, 53, 56
14, 379562, Note_on_c, 13, 55, 78
14, 379662, Note_off_c, 13, 62, 64
14, 379670, Note_off_c, 13, 55, 56
14, 379681, Note_on_c, 13, 52, 79
14, 379789, Note_off_c, 13, 52, 56
14, 379802, Note_on_c, 13, 55, 80
14, 379910, Note_off_c, 13, 55, 56
14, 379918, Note_on_c, 13, 60, 85
14, 379921, Note_on_c, 13, 52, 80
14, 379945, Note_off_c, 13, 60, 56
14, 379948, Note_on_c, 13, 62, 85
14, 379975, Note_off_c, 13, 62, 56
14, 379981, Note_on_c, 13, 64, 80
14, 380029, Note_off_c, 13, 52, 56
14, 380041, Note_on_c, 13, 55, 81
14, 380143, Note_off_c, 13, 64, 64
14, 380149, Note_off_c, 13, 55, 56
14, 380162, Note_on_c, 13, 52, 82
14, 380270, Note_off_c, 13, 52, 56
14, 380280, Note_on_c, 13, 55, 82
14, 380388, Note_off_c, 13, 55, 56
14, 380398, Note_on_c, 13, 52, 83
14, 380402, Note_on_c, 13, 60, 88
14, 380429, Note_off_c, 13, 60, 56
14, 380432, Note_on_c, 13, 62, 88
14, 380459, Note_off_c, 13, 62, 56
14, 380459, Note_on_c, 13, 64, 83
14, 380506, Note_off_c, 13, 52, 56
14, 380521, Note_on_c, 13, 55, 83
14, 380621, Note_off_c, 13, 64, 64
14, 380629, Note_off_c, 13, 55, 56
14, 380641, Note_on_c, 13, 53, 85
14, 380749, Note_off_c, 13, 53, 56
14, 380761, Note_on_c, 13, 55, 86
14, 380869, Note_off_c, 13, 55, 56
14, 380878, Note_on_c, 13, 53, 86
14, 380879, Note_on_c, 13, 67, 91
14, 380906, Note_off_c, 13, 67, 56
14, 380908, Note_on_c, 13, 69, 91
14, 380935, Note_off_c, 13, 69, 56
14, 380940, Note_on_c, 13, 71, 87
14, 380986, Note_off_c, 13, 53, 56
14, 381002, Note_on_c, 13, 55, 87
14, 381102, Note_off_c, 13, 71, 64
14, 381110, Note_off_c, 13, 55, 56
14, 381121, Note_on_c, 13, 53, 88
14, 381229, Note_off_c, 13, 53, 56
14, 381239, Note_on_c, 13, 55, 88
14, 381347, Note_off_c, 13, 55, 56
14, 381361, Note_on_c, 13, 53, 89
14, 381362, Note_on_c, 13, 67, 94
14, 381389, Note_off_c, 13, 67, 56
14, 381392, Note_on_c, 13, 69, 94
14, 381419, Note_off_c, 13, 69, 56
14, 381422, Note_on_c, 13, 71, 89
14, 381469, Note_off_c, 13, 53, 56
14, 381481, Note_on_c, 13, 55, 90
14, 381584, Note_off_c, 13, 71, 64
14, 381589, Note_off_c, 13, 55, 56
14, 381599, Note_on_c, 13, 67, 95
14, 381601, Note_on_c, 13, 40, 90
14, 381644, Note_off_c, 13, 67, 56
14, 381662, Note_on_c, 13, 67, 95
14, 381707, Note_off_c, 13, 67, 56
14, 381719, Note_on_c, 13, 67, 95
14, 381764, Note_off_c, 13, 67, 56
14, 381778, Note_on_c, 13, 67, 95
14, 381806, Note_off_c, 13, 40, 64
14, 381823, Note_off_c, 13, 67, 56
14, 381839, Note_on_c, 13, 65, 95
14, 381842, Note_on_c, 13, 50, 90
14, 381884, Note_off_c, 13, 65, 56
14, 381900, Note_on_c, 13, 65, 95
14, 381945, Note_off_c, 13, 65, 56
14, 381960, Note_on_c, 13, 65, 95
14, 382005, Note_off_c, 13, 65, 56
14, 382020, Note_on_c, 13, 65, 95
14, 382058, Note_off_c, 13, 50, 64
14, 382065, Note_off_c, 13, 65, 56
14, 382079, Note_on_c, 13, 64, 95
14, 382080, Note_on_c, 13, 48, 90
14, 382124, Note_off_c, 13, 64, 56
14, 382138, Note_on_c, 13, 64, 95
14, 382183, Note_off_c, 13, 64, 56
14, 382199, Note_on_c, 13, 64, 95
14, 382244, Note_off_c, 13, 64, 56
14, 382260, Note_on_c, 13, 64, 95
14, 382296, Note_off_c, 13, 48, 64
14, 382305, Note_off_c, 13, 64, 56
14, 382318, Note_on_c, 13, 62, 95
14, 382322, Note_on_c, 13, 47, 90
14, 382363, Note_off_c, 13, 62, 56
14, 382379, Note_on_c, 13, 62, 95
14, 382424, Note_off_c, 13, 62, 56
14, 382438, Note_on_c, 13, 62, 95
14, 382483, Note_off_c, 13, 62, 56
14, 382501, Note_on_c, 13, 62, 95
14, 382538, Note_off_c, 13, 47, 64
14, 382546, Note_off_c, 13, 62, 56
14, 382561, Note_on_c, 13, 60, 95
14, 382562, Note_on_c, 13, 45, 90
14, 382606, Note_off_c, 13, 60, 56
14, 382619, Note_on_c, 13, 60, 95
14, 382664, Note_off_c, 13, 60, 56
14, 382681, Note_on_c, 13, 60, 95
14, 382726, Note_off_c, 13, 60, 56
14, 382742, Note_on_c, 13, 60, 95
14, 382778, Note_off_c, 13, 45, 64
14, 382787, Note_off_c, 13, 60, 56
14, 382800, Note_on_c, 13, 43, 90
14, 382802, Note_on_c, 13, 67, 95
14, 382847, Note_off_c, 13, 67, 56
14, 382862, Note_on_c, 13, 67, 95
14, 382907, Note_off_c, 13, 67, 56
14, 382919, Note_on_c, 13, 67, 95
14, 382964, Note_off_c, 13, 67, 56
14, 382980, Note_on_c, 13, 67, 95
14, 383016, Note_off_c, 13, 43, 64
14, 383025, Note_off_c, 13, 67, 56
14, 383038, Note_on_c, 13, 41, 90
14, 383042, Note_on_c, 13, 69, 95
14, 383087, Note_off_c, 13, 69, 56
14, 383100, Note_on_c, 13, 69, 95
14, 383145, Note_off_c, 13, 69, 56
14, 383162, Note_on_c, 13, 69, 95
14, 383207, Note_off_c, 13, 69, 56
14, 383219, Note_on_c, 13, 69, 95
14, 383254, Note_off_c, 13, 41, 64
14, 383264, Note_off_c, 13, 69, 56
14, 383278, Note_on_c, 13, 69, 95
14, 383279, Note_on_c, 13, 40, 90
14, 383323, Note_off_c, 13, 69, 56
14, 383340, Note_on_c, 13, 69, 95
14, 383385, Note_off_c, 13, 69, 56
14, 383401, Note_on_c, 13, 69, 95
14, 383446, Note_off_c, 13, 69, 56
14, 383458, Note_on_c, 13, 69, 95
14, 383484, Note_off_c, 13, 40, 64
14, 383503, Note_off_c, 13, 69, 56
14, 383518, Note_on_c, 13, 41, 90
14, 383521, Note_on_c, 13, 69, 90
14, 384166, Note_off_c, 13, 41, 64
14, 384169, Note_off_c, 13, 69, 64
14, 384241, Note_on_c, 13, 67, 90
14, 384241, Note_on_c, 13, 43, 90
14, 384377, Note_off_c, 13, 43, 64
14, 384377, Note_off_c, 13, 67, 64
14, 384478, Note_on_c, 13, 65, 90
14, 384479, Note_on_c, 13, 45, 90
14, 385126, Note_off_c, 13, 65, 64
14, 385127, Note_off_c, 13, 45, 64
14, 385199, Note_on_c, 13, 43, 90
14, 385201, Note_on_c, 13, 64, 90
14, 385335, Note_off_c, 13, 43, 64
14, 385337, Note_off_c, 13, 64, 64
14, 385438, Note_on_c, 13, 42, 90
14, 385440, Note_on_c, 13, 69, 90
14, 386086, Note_off_c, 13, 42, 64
14, 386088, Note_off_c, 13, 69, 64
14, 386158, Note_on_c, 13, 67, 90
14, 386160, Note_on_c, 13, 43, 90
14, 386294, Note_off_c, 13, 67, 64
14, 386296, Note_off_c, 13, 43, 64
14, 386399, Note_on_c, 13, 44, 90
14, 386401, Note_on_c, 13, 65, 90
14, 387047, Note_off_c, 13, 44, 64
14, 387049, Note_off_c, 13, 65, 64
14, 387119, Note_on_c, 13, 45, 90
14, 387120, Note_on_c, 13, 72, 90
14, 387255, Note_off_c, 13, 45, 64
14, 387256, Note_off_c, 13, 72, 64
14, 387358, Note_on_c, 13, 47, 90
14, 387359, Note_on_c, 13, 74, 90
14, 387563, Note_off_c, 13, 47, 64
14, 387564, Note_off_c, 13, 74, 64
14, 387839, Note_on_c, 13, 48, 73
14, 387841, Note_on_c, 13, 72, 73
14, 388044, Note_off_c, 13, 48, 64
14, 388046, Note_off_c, 13, 72, 64
14, 388321, Note_on_c, 13, 74, 73
14, 388322, Note_on_c, 13, 41, 73
14, 388526, Note_off_c, 13, 74, 64
14, 388527, Note_off_c, 13, 41, 64
14, 388799, Note_on_c, 13, 43, 73
14, 388802, Note_on_c, 13, 65, 73
14, 389004, Note_off_c, 13, 43, 64
14, 389007, Note_off_c, 13, 65, 64
14, 389038, Note_on_c, 13, 55, 90
14, 389040, Note_on_c, 13, 43, 90
14, 389254, Note_off_c, 13, 55, 64
14, 389256, Note_off_c, 13, 43, 64
14, 389281, Note_on_c, 13, 48, 90
14, 389282, Note_on_c, 13, 60, 90
14, 389497, Note_off_c, 13, 48, 64
14, 389498, Note_off_c, 13, 60, 64
14, 389519, Note_on_c, 13, 43, 90
14, 389521, Note_on_c, 13, 55, 90
14, 389735, Note_off_c, 13, 43, 64
14, 389737, Note_off_c, 13, 55, 64
14, 389761, Note_on_c, 13, 64, 90
14, 389762, Note_on_c, 13, 52, 90
14, 389977, Note_off_c, 13, 64, 64
14, 389978, Note_off_c, 13, 52, 64
14, 389998, Note_on_c, 13, 50, 90
14, 390002, Note_on_c, 13, 62, 90
14, 390160, Note_off_c, 13, 50, 64
14, 390164, Note_off_c, 13, 62, 64
14, 390180, Note_on_c, 13, 60, 95
14, 390181, Note_on_c, 13, 48, 95
14, 390231, Note_off_c, 13, 60, 56
14, 390232, Note_off_c, 13, 48, 56
14, 390239, Note_on_c, 13, 55, 90
14, 390242, Note_on_c, 13, 67, 90
14, 390887, Note_off_c, 13, 55, 64
14, 390890, Note_off_c, 13, 67, 64
14, 392879, Note_on_c, 13, 67, 73
14, 393095, Note_off_c, 13, 67, 64
14, 393120, Note_on_c, 13, 71, 74
14, 393122, Note_on_c, 13, 53, 73
14, 393230, Note_off_c, 13, 53, 56
14, 393240, Note_on_c, 13, 55, 73
14, 393336, Note_off_c, 13, 71, 64
14, 393348, Note_off_c, 13, 55, 56
14, 393358, Note_on_c, 13, 53, 74
14, 393360, Note_on_c, 13, 67, 75
14, 393466, Note_off_c, 13, 53, 56
14, 393478, Note_on_c, 13, 55, 74
14, 393576, Note_off_c, 13, 67, 64
14, 393586, Note_off_c, 13, 55, 56
14, 393598, Note_on_c, 13, 74, 77
14, 393599, Note_on_c, 13, 53, 75
14, 393707, Note_off_c, 13, 53, 56
14, 393719, Note_on_c, 13, 55, 75
14, 393814, Note_off_c, 13, 74, 64
14, 393827, Note_off_c, 13, 55, 56
14, 393841, Note_on_c, 13, 53, 75
14, 393841, Note_on_c, 13, 72, 77
14, 393949, Note_off_c, 13, 53, 56
14, 393960, Note_on_c, 13, 55, 77
14, 394003, Note_off_c, 13, 72, 64
14, 394020, Note_on_c, 13, 71, 83
14, 394068, Note_off_c, 13, 55, 56
14, 394071, Note_off_c, 13, 71, 56
14, 394079, Note_on_c, 13, 52, 77
14, 394081, Note_on_c, 13, 72, 78
14, 394187, Note_off_c, 13, 52, 56
14, 394201, Note_on_c, 13, 55, 77
14, 394297, Note_off_c, 13, 72, 64
14, 394309, Note_off_c, 13, 55, 56
14, 394319, Note_on_c, 13, 67, 79
14, 394322, Note_on_c, 13, 52, 78
14, 394430, Note_off_c, 13, 52, 56
14, 394438, Note_on_c, 13, 55, 78
14, 394535, Note_off_c, 13, 67, 64
14, 394546, Note_off_c, 13, 55, 56
14, 394560, Note_on_c, 13, 76, 79
14, 394561, Note_on_c, 13, 52, 79
14, 394669, Note_off_c, 13, 52, 56
14, 394681, Note_on_c, 13, 55, 79
14, 394776, Note_off_c, 13, 76, 64
14, 394789, Note_off_c, 13, 55, 56
14, 394800, Note_on_c, 13, 52, 79
14, 394801, Note_on_c, 13, 74, 80
14, 394908, Note_off_c, 13, 52, 56
14, 394920, Note_on_c, 13, 55, 80
14, 394963, Note_off_c, 13, 74, 64
14, 394978, Note_on_c, 13, 72, 86
14, 395028, Note_off_c, 13, 55, 56
14, 395029, Note_off_c, 13, 72, 56
14, 395040, Note_on_c, 13, 53, 80
14, 395041, Note_on_c, 13, 71, 81
14, 395148, Note_off_c, 13, 53, 56
14, 395160, Note_on_c, 13, 55, 80
14, 395257, Note_off_c, 13, 71, 64
14, 395268, Note_off_c, 13, 55, 56
14, 395279, Note_on_c, 13, 67, 81
14, 395281, Note_on_c, 13, 53, 81
14, 395389, Note_off_c, 13, 53, 56
14, 395398, Note_on_c, 13, 55, 81
14, 395495, Note_off_c, 13, 67, 64
14, 395506, Note_off_c, 13, 55, 56
14, 395520, Note_on_c, 13, 53, 82
14, 395520, Note_on_c, 13, 74, 82
14, 395628, Note_off_c, 13, 53, 56
14, 395638, Note_on_c, 13, 55, 82
14, 395736, Note_off_c, 13, 74, 64
14, 395746, Note_off_c, 13, 55, 56
14, 395758, Note_on_c, 13, 72, 83
14, 395762, Note_on_c, 13, 53, 82
14, 395870, Note_off_c, 13, 53, 56
14, 395882, Note_on_c, 13, 55, 83
14, 395920, Note_off_c, 13, 72, 64
14, 395938, Note_on_c, 13, 71, 88
14, 395989, Note_off_c, 13, 71, 56
14, 395990, Note_off_c, 13, 55, 56
14, 395998, Note_on_c, 13, 72, 85
14, 396000, Note_on_c, 13, 52, 83
14, 396108, Note_off_c, 13, 52, 56
14, 396122, Note_on_c, 13, 55, 83
14, 396214, Note_off_c, 13, 72, 64
14, 396230, Note_off_c, 13, 55, 56
14, 396239, Note_on_c, 13, 52, 85
14, 396242, Note_on_c, 13, 67, 85
14, 396347, Note_off_c, 13, 52, 56
14, 396360, Note_on_c, 13, 55, 85
14, 396458, Note_off_c, 13, 67, 64
14, 396468, Note_off_c, 13, 55, 56
14, 396478, Note_on_c, 13, 76, 86
14, 396480, Note_on_c, 13, 52, 86
14, 396588, Note_off_c, 13, 52, 56
14, 396598, Note_on_c, 13, 55, 86
14, 396694, Note_off_c, 13, 76, 64
14, 396706, Note_off_c, 13, 55, 56
14, 396720, Note_on_c, 13, 52, 86
14, 396721, Note_on_c, 13, 74, 87
14, 396828, Note_off_c, 13, 52, 56
14, 396839, Note_on_c, 13, 55, 87
14, 396883, Note_off_c, 13, 74, 64
14, 396900, Note_on_c, 13, 72, 92
14, 396947, Note_off_c, 13, 55, 56
14, 396951, Note_off_c, 13, 72, 56
14, 396958, Note_on_c, 13, 53, 87
14, 396961, Note_on_c, 13, 71, 87
14, 397066, Note_off_c, 13, 53, 56
14, 397082, Note_on_c, 13, 55, 87
14, 397177, Note_off_c, 13, 71, 64
14, 397190, Note_off_c, 13, 55, 56
14, 397200, Note_on_c, 13, 53, 88
14, 397201, Note_on_c, 13, 67, 88
14, 397308, Note_off_c, 13, 53, 56
14, 397321, Note_on_c, 13, 55, 88
14, 397417, Note_off_c, 13, 67, 64
14, 397429, Note_off_c, 13, 55, 56
14, 397438, Note_on_c, 13, 53, 89
14, 397441, Note_on_c, 13, 74, 89
14, 397546, Note_off_c, 13, 53, 56
14, 397558, Note_on_c, 13, 55, 89
14, 397657, Note_off_c, 13, 74, 64
14, 397666, Note_off_c, 13, 55, 56
14, 397680, Note_on_c, 13, 53, 89
14, 397682, Note_on_c, 13, 72, 89
14, 397788, Note_off_c, 13, 53, 56
14, 397802, Note_on_c, 13, 55, 90
14, 397844, Note_off_c, 13, 72, 64
14, 397861, Note_on_c, 13, 71, 95
14, 397910, Note_off_c, 13, 55, 56
14, 397912, Note_off_c, 13, 71, 56
14, 397918, Note_on_c, 13, 72, 95
14, 397919, Note_on_c, 13, 40, 90
14, 397963, Note_off_c, 13, 72, 56
14, 397978, Note_on_c, 13, 72, 95
14, 398023, Note_off_c, 13, 72, 56
14, 398038, Note_on_c, 13, 72, 95
14, 398083, Note_off_c, 13, 72, 56
14, 398098, Note_on_c, 13, 72, 95
14, 398124, Note_off_c, 13, 40, 64
14, 398143, Note_off_c, 13, 72, 56
14, 398159, Note_on_c, 13, 50, 90
14, 398159, Note_on_c, 13, 65, 95
14, 398204, Note_off_c, 13, 65, 56
14, 398218, Note_on_c, 13, 65, 95
14, 398263, Note_off_c, 13, 65, 56
14, 398281, Note_on_c, 13, 65, 95
14, 398326, Note_off_c, 13, 65, 56
14, 398341, Note_on_c, 13, 65, 95
14, 398375, Note_off_c, 13, 50, 64
14, 398386, Note_off_c, 13, 65, 56
14, 398399, Note_on_c, 13, 48, 90
14, 398402, Note_on_c, 13, 64, 95
14, 398447, Note_off_c, 13, 64, 56
14, 398458, Note_on_c, 13, 64, 95
14, 398503, Note_off_c, 13, 64, 56
14, 398519, Note_on_c, 13, 64, 95
14, 398564, Note_off_c, 13, 64, 56
14, 398581, Note_on_c, 13, 64, 95
14, 398615, Note_off_c, 13, 48, 64
14, 398626, Note_off_c, 13, 64, 56
14, 398638, Note_on_c, 13, 62, 95
14, 398641, Note_on_c, 13, 47, 90
14, 398683, Note_off_c, 13, 62, 56
14, 398701, Note_on_c, 13, 62, 95
14, 398746, Note_off_c, 13, 62, 56
14, 398762, Note_on_c, 13, 62, 95
14, 398807, Note_off_c, 13, 62, 56
14, 398822, Note_on_c, 13, 62, 95
14, 398857, Note_off_c, 13, 47, 64
14, 398867, Note_off_c, 13, 62, 56
14, 398880, Note_on_c, 13, 60, 95
14, 398881, Note_on_c, 13, 45, 90
14, 398925, Note_off_c, 13, 60, 56
14, 398938, Note_on_c, 13, 60, 95
14, 398983, Note_off_c, 13, 60, 56
14, 399001, Note_on_c, 13, 60, 95
14, 399046, Note_off_c, 13, 60, 56
14, 399061, Note_on_c, 13, 60, 95
14, 399097, Note_off_c, 13, 45, 64
14, 399106, Note_off_c, 13, 60, 56
14, 399118, Note_on_c, 13, 43, 90
14, 399121, Note_on_c, 13, 64, 95
14, 399166, Note_off_c, 13, 64, 56
14, 399179, Note_on_c, 13, 64, 95
14, 399224, Note_off_c, 13, 64, 56
14, 399242, Note_on_c, 13, 64, 95
14, 399287, Note_off_c, 13, 64, 56
14, 399299, Note_on_c, 13, 64, 95
14, 399334, Note_off_c, 13, 43, 64
14, 399344, Note_off_c, 13, 64, 56
14, 399359, Note_on_c, 13, 41, 90
14, 399360, Note_on_c, 13, 69, 95
14, 399405, Note_off_c, 13, 69, 56
14, 399422, Note_on_c, 13, 69, 95
14, 399467, Note_off_c, 13, 69, 56
14, 399480, Note_on_c, 13, 69, 95
14, 399525, Note_off_c, 13, 69, 56
14, 399541, Note_on_c, 13, 69, 95
14, 399575, Note_off_c, 13, 41, 64
14, 399586, Note_off_c, 13, 69, 56
14, 399599, Note_on_c, 13, 40, 90
14, 399601, Note_on_c, 13, 67, 95
14, 399646, Note_off_c, 13, 67, 56
14, 399662, Note_on_c, 13, 67, 95
14, 399707, Note_off_c, 13, 67, 56
14, 399720, Note_on_c, 13, 67, 95
14, 399765, Note_off_c, 13, 67, 56
14, 399782, Note_on_c, 13, 67, 95
14, 399815, Note_off_c, 13, 40, 64
14, 399827, Note_off_c, 13, 67, 56
14, 399839, Note_on_c, 13, 69, 90
14, 399842, Note_on_c, 13, 41, 90
14, 400487, Note_off_c, 13, 69, 64
14, 400490, Note_off_c, 13, 41, 64
14, 400560, Note_on_c, 13, 67, 90
14, 400562, Note_on_c, 13, 43, 90
14, 400696, Note_off_c, 13, 67, 64
14, 400698, Note_off_c, 13, 43, 64
14, 400800, Note_on_c, 13, 45, 90
14, 400801, Note_on_c, 13, 65, 90
14, 401448, Note_off_c, 13, 45, 64
14, 401449, Note_off_c, 13, 65, 64
14, 401518, Note_on_c, 13, 43, 90
14, 401520, Note_on_c, 13, 67, 90
14, 401654, Note_off_c, 13, 43, 64
14, 401656, Note_off_c, 13, 67, 64
14, 401758, Note_on_c, 13, 69, 90
14, 401761, Note_on_c, 13, 42, 90
14, 402406, Note_off_c, 13, 69, 64
14, 402409, Note_off_c, 13, 42, 64
14, 402478, Note_on_c, 13, 67, 90
14, 402479, Note_on_c, 13, 43, 90
14, 402614, Note_off_c, 13, 67, 64
14, 402615, Note_off_c, 13, 43, 64
14, 402718, Note_on_c, 13, 65, 90
14, 402720, Note_on_c, 13, 44, 90
14, 403366, Note_off_c, 13, 65, 64
14, 403368, Note_off_c, 13, 44, 64
14, 403440, Note_on_c, 13, 72, 90
14, 403442, Note_on_c, 13, 45, 90
14, 403576, Note_off_c, 13, 72, 64
14, 403578, Note_off_c, 13, 45, 64
14, 403680, Note_on_c, 13, 72, 73
14, 403680, Note_on_c, 13, 46, 73
14, 403885, Note_off_c, 13, 46, 64
14, 403885, Note_off_c, 13, 72, 64
14, 404160, Note_on_c, 13, 58, 74
14, 404161, Note_on_c, 13, 76, 74
14, 404365, Note_off_c, 13, 58, 64
14, 404366, Note_off_c, 13, 76, 64
14, 404640, Note_on_c, 13, 56, 74
14, 404640, Note_on_c, 13, 72, 74
14, 404845, Note_off_c, 13, 72, 64
14, 404845, Note_off_c, 13, 56, 64
14, 405118, Note_on_c, 13, 56, 75
14, 405122, Note_on_c, 13, 72, 75
14, 405323, Note_off_c, 13, 56, 64
14, 405327, Note_off_c, 13, 72, 64
14, 405601, Note_on_c, 13, 55, 77
14, 405601, Note_on_c, 13, 71, 77
14, 405806, Note_off_c, 13, 71, 64
14, 405806, Note_off_c, 13, 55, 64
14, 406079, Note_on_c, 13, 72, 77
14, 406080, Note_on_c, 13, 55, 77
14, 406284, Note_off_c, 13, 72, 64
14, 406285, Note_off_c, 13, 55, 64
14, 406559, Note_on_c, 13, 55, 78
14, 406559, Note_on_c, 13, 71, 78
14, 406764, Note_off_c, 13, 71, 64
14, 406764, Note_off_c, 13, 55, 64
14, 407041, Note_on_c, 13, 58, 78
14, 407042, Note_on_c, 13, 72, 78
14, 407246, Note_off_c, 13, 58, 64
14, 407247, Note_off_c, 13, 72, 64
14, 407522, Note_on_c, 13, 72, 79
14, 407522, Note_on_c, 13, 58, 79
14, 407727, Note_off_c, 13, 58, 64
14, 407727, Note_off_c, 13, 72, 64
14, 407999, Note_on_c, 13, 58, 80
14, 407999, Note_on_c, 13, 72, 80
14, 408204, Note_off_c, 13, 72, 64
14, 408204, Note_off_c, 13, 58, 64
14, 408482, Note_on_c, 13, 72, 80
14, 408482, Note_on_c, 13, 56, 80
14, 408687, Note_off_c, 13, 56, 64
14, 408687, Note_off_c, 13, 72, 64
14, 408960, Note_on_c, 13, 72, 81
14, 408962, Note_on_c, 13, 56, 81
14, 409165, Note_off_c, 13, 72, 64
14, 409167, Note_off_c, 13, 56, 64
14, 409441, Note_on_c, 13, 55, 82
14, 409442, Note_on_c, 13, 71, 82
14, 409646, Note_off_c, 13, 55, 64
14, 409647, Note_off_c, 13, 71, 64
14, 409918, Note_on_c, 13, 72, 82
14, 409922, Note_on_c, 13, 55, 82
14, 410123, Note_off_c, 13, 72, 64
14, 410127, Note_off_c, 13, 55, 64
14, 410401, Note_on_c, 13, 71, 83
14, 410401, Note_on_c, 13, 55, 83
14, 410606, Note_off_c, 13, 55, 64
14, 410606, Note_off_c, 13, 71, 64
14, 410879, Note_on_c, 13, 72, 83
14, 410882, Note_on_c, 13, 58, 83
14, 411084, Note_off_c, 13, 72, 64
14, 411087, Note_off_c, 13, 58, 64
14, 411358, Note_on_c, 13, 72, 85
14, 411361, Note_on_c, 13, 58, 85
14, 411563, Note_off_c, 13, 72, 64
14, 411566, Note_off_c, 13, 58, 64
14, 411839, Note_on_c, 13, 58, 86
14, 411842, Note_on_c, 13, 72, 86
14, 412044, Note_off_c, 13, 58, 64
14, 412047, Note_off_c, 13, 72, 64
14, 412318, Note_on_c, 13, 56, 86
14, 412320, Note_on_c, 13, 72, 86
14, 412523, Note_off_c, 13, 56, 64
14, 412525, Note_off_c, 13, 72, 64
14, 412799, Note_on_c, 13, 72, 87
14, 412802, Note_on_c, 13, 56, 87
14, 413004, Note_off_c, 13, 72, 64
14, 413007, Note_off_c, 13, 56, 64
14, 413278, Note_on_c, 13, 71, 88
14, 413282, Note_on_c, 13, 55, 88
14, 413483, Note_off_c, 13, 71, 64
14, 413487, Note_off_c, 13, 55, 64
14, 413758, Note_on_c, 13, 72, 88
14, 413760, Note_on_c, 13, 55, 88
14, 413963, Note_off_c, 13, 72, 64
14, 413965, Note_off_c, 13, 55, 64
14, 414240, Note_on_c, 13, 72, 89
14, 414242, Note_on_c, 13, 55, 89
14, 414445, Note_off_c, 13, 72, 64
14, 414447, Note_off_c, 13, 55, 64
14, 414720, Note_on_c, 13, 71, 89
14, 414721, Note_on_c, 13, 43, 89
14, 414925, Note_off_c, 13, 71, 64
14, 414926, Note_off_c, 13, 43, 64
14, 415198, Note_on_c, 13, 48, 73
14, 415318, Note_off_c, 13, 48, 56
14, 415800, Note_on_c, 13, 43, 73
14, 415896, Note_off_c, 13, 43, 56
14, 415922, Note_on_c, 13, 43, 73
14, 416018, Note_off_c, 13, 43, 56
14, 416038, Note_on_c, 13, 43, 73
14, 416134, Note_off_c, 13, 43, 56
14, 416161, Note_on_c, 13, 48, 73
14, 416257, Note_off_c, 13, 48, 56
14, 416760, Note_on_c, 13, 43, 73
14, 416856, Note_off_c, 13, 43, 56
14, 416878, Note_on_c, 13, 43, 73
14, 416974, Note_off_c, 13, 43, 56
14, 417002, Note_on_c, 13, 43, 73
14, 417098, Note_off_c, 13, 43, 56
14, 417119, Note_on_c, 13, 48, 73
14, 417122, Note_on_c, 13, 60, 73
14, 417215, Note_off_c, 13, 48, 56
14, 417410, Note_off_c, 13, 60, 64
14, 417481, Note_on_c, 13, 59, 73
14, 417577, Note_off_c, 13, 59, 56
14, 417601, Note_on_c, 13, 57, 73
14, 417697, Note_off_c, 13, 57, 56
14, 417719, Note_on_c, 13, 55, 73
14, 417721, Note_on_c, 13, 43, 73
14, 417815, Note_off_c, 13, 55, 56
14, 417817, Note_off_c, 13, 43, 56
14, 417838, Note_on_c, 13, 55, 73
14, 417839, Note_on_c, 13, 43, 73
14, 417934, Note_off_c, 13, 55, 56
14, 417935, Note_off_c, 13, 43, 56
14, 417959, Note_on_c, 13, 55, 73
14, 417961, Note_on_c, 13, 43, 73
14, 418055, Note_off_c, 13, 55, 56
14, 418057, Note_off_c, 13, 43, 56
14, 418078, Note_on_c, 13, 48, 73
14, 418078, Note_on_c, 13, 60, 73
14, 418174, Note_off_c, 13, 48, 56
14, 418366, Note_off_c, 13, 60, 64
14, 418442, Note_on_c, 13, 59, 73
14, 418538, Note_off_c, 13, 59, 56
14, 418559, Note_on_c, 13, 57, 73
14, 418655, Note_off_c, 13, 57, 56
14, 418679, Note_on_c, 13, 55, 73
14, 418681, Note_on_c, 13, 43, 73
14, 418775, Note_off_c, 13, 55, 56
14, 418777, Note_off_c, 13, 43, 56
14, 418800, Note_on_c, 13, 43, 73
14, 418802, Note_on_c, 13, 55, 73
14, 418896, Note_off_c, 13, 43, 56
14, 418898, Note_off_c, 13, 55, 56
14, 418919, Note_on_c, 13, 55, 73
14, 418920, Note_on_c, 13, 43, 73
14, 419015, Note_off_c, 13, 55, 56
14, 419016, Note_off_c, 13, 43, 56
14, 419038, Note_on_c, 13, 64, 73
14, 419042, Note_on_c, 13, 48, 73
14, 419138, Note_off_c, 13, 48, 56
14, 419326, Note_off_c, 13, 64, 64
14, 419399, Note_on_c, 13, 62, 73
14, 419495, Note_off_c, 13, 62, 56
14, 419518, Note_on_c, 13, 60, 73
14, 419614, Note_off_c, 13, 60, 56
14, 419639, Note_on_c, 13, 59, 73
14, 419641, Note_on_c, 13, 43, 73
14, 419735, Note_off_c, 13, 59, 56
14, 419737, Note_off_c, 13, 43, 56
14, 419758, Note_on_c, 13, 59, 73
14, 419761, Note_on_c, 13, 43, 73
14, 419854, Note_off_c, 13, 59, 56
14, 419857, Note_off_c, 13, 43, 56
14, 419881, Note_on_c, 13, 59, 73
14, 419882, Note_on_c, 13, 43, 73
14, 419977, Note_off_c, 13, 59, 56
14, 419978, Note_off_c, 13, 43, 56
14, 419998, Note_on_c, 13, 64, 73
14, 420002, Note_on_c, 13, 48, 73
14, 420098, Note_off_c, 13, 48, 56
14, 420286, Note_off_c, 13, 64, 65
14, 420360, Note_on_c, 13, 62, 73
14, 420456, Note_off_c, 13, 62, 56
14, 420481, Note_on_c, 13, 60, 73
14, 420577, Note_off_c, 13, 60, 56
14, 420599, Note_on_c, 13, 59, 73
14, 420602, Note_on_c, 13, 43, 73
14, 420695, Note_off_c, 13, 59, 56
14, 420698, Note_off_c, 13, 43, 56
14, 420718, Note_on_c, 13, 43, 73
14, 420720, Note_on_c, 13, 59, 73
14, 420814, Note_off_c, 13, 43, 56
14, 420816, Note_off_c, 13, 59, 56
14, 420840, Note_on_c, 13, 59, 73
14, 420842, Note_on_c, 13, 43, 73
14, 420936, Note_off_c, 13, 59, 56
14, 420938, Note_off_c, 13, 43, 56
14, 420960, Note_on_c, 13, 48, 73
14, 420962, Note_on_c, 13, 72, 73
14, 421056, Note_off_c, 13, 48, 56
14, 421250, Note_off_c, 13, 72, 65
14, 421318, Note_on_c, 13, 71, 73
14, 421414, Note_off_c, 13, 71, 56
14, 421442, Note_on_c, 13, 69, 73
14, 421538, Note_off_c, 13, 69, 56
14, 421558, Note_on_c, 13, 43, 73
14, 421561, Note_on_c, 13, 67, 73
14, 421654, Note_off_c, 13, 43, 56
14, 421657, Note_off_c, 13, 67, 56
14, 421681, Note_on_c, 13, 43, 73
14, 421682, Note_on_c, 13, 67, 73
14, 421777, Note_off_c, 13, 43, 56
14, 421778, Note_off_c, 13, 67, 56
14, 421798, Note_on_c, 13, 43, 73
14, 421800, Note_on_c, 13, 67, 73
14, 421894, Note_off_c, 13, 43, 56
14, 421896, Note_off_c, 13, 67, 56
14, 421918, Note_on_c, 13, 48, 73
14, 421920, Note_on_c, 13, 72, 73
14, 422014, Note_off_c, 13, 48, 56
14, 422208, Note_off_c, 13, 72, 65
14, 422281, Note_on_c, 13, 71, 73
14, 422377, Note_off_c, 13, 71, 56
14, 422399, Note_on_c, 13, 69, 73
14, 422495, Note_off_c, 13, 69, 56
14, 422518, Note_on_c, 13, 67, 73
14, 422518, Note_on_c, 13, 43, 73
14, 422614, Note_off_c, 13, 43, 56
14, 422614, Note_off_c, 13, 67, 56
14, 422639, Note_on_c, 13, 67, 73
14, 422641, Note_on_c, 13, 43, 73
14, 422735, Note_off_c, 13, 67, 56
14, 422737, Note_off_c, 13, 43, 56
14, 422758, Note_on_c, 13, 43, 73
14, 422758, Note_on_c, 13, 67, 73
14, 422854, Note_off_c, 13, 67, 56
14, 422854, Note_off_c, 13, 43, 56
14, 422878, Note_on_c, 13, 58, 73
14, 422880, Note_on_c, 13, 72, 73
14, 422974, Note_off_c, 13, 58, 56
14, 422976, Note_off_c, 13, 72, 56
14, 423118, Note_on_c, 13, 58, 74
14, 423118, Note_on_c, 13, 72, 74
14, 423214, Note_off_c, 13, 72, 56
14, 423214, Note_off_c, 13, 58, 56
14, 423359, Note_on_c, 13, 56, 75
14, 423362, Note_on_c, 13, 72, 75
14, 423455, Note_off_c, 13, 56, 56
14, 423458, Note_off_c, 13, 72, 56
14, 423598, Note_on_c, 13, 72, 78
14, 423602, Note_on_c, 13, 56, 78
14, 423694, Note_off_c, 13, 72, 56
14, 423698, Note_off_c, 13, 56, 56
14, 423839, Note_on_c, 13, 71, 79
14, 423841, Note_on_c, 13, 55, 79
14, 423935, Note_off_c, 13, 71, 56
14, 423937, Note_off_c, 13, 55, 56
14, 424080, Note_on_c, 13, 72, 80
14, 424080, Note_on_c, 13, 55, 80
14, 424176, Note_off_c, 13, 55, 56
14, 424176, Note_off_c, 13, 72, 56
14, 424319, Note_on_c, 13, 71, 81
14, 424322, Note_on_c, 13, 55, 81
14, 424415, Note_off_c, 13, 71, 56
14, 424418, Note_off_c, 13, 55, 56
14, 424560, Note_on_c, 13, 72, 83
14, 424561, Note_on_c, 13, 58, 83
14, 424656, Note_off_c, 13, 72, 56
14, 424657, Note_off_c, 13, 58, 56
14, 424800, Control_c, 13, 7, 120
14, 424800, Program_c, 13, 44
14, 424801, Note_on_c, 13, 58, 85
14, 424802, Note_on_c, 13, 72, 90
14, 424850, Note_off_c, 13, 72, 56
14, 424859, Note_on_c, 13, 72, 90
14, 424897, Note_off_c, 13, 58, 56
14, 424907, Note_off_c, 13, 72, 56
14, 424922, Note_on_c, 13, 72, 86
14, 425018, Note_off_c, 13, 72, 56
14, 425038, Note_on_c, 13, 72, 91
14, 425042, Note_on_c, 13, 58, 86
14, 425086, Note_off_c, 13, 72, 56
14, 425099, Note_on_c, 13, 72, 91
14, 425138, Note_off_c, 13, 58, 56
14, 425147, Note_off_c, 13, 72, 56
14, 425162, Note_on_c, 13, 72, 87
14, 425258, Note_off_c, 13, 72, 56
14, 425278, Note_on_c, 13, 72, 92
14, 425282, Note_on_c, 13, 56, 87
14, 425326, Note_off_c, 13, 72, 56
14, 425341, Note_on_c, 13, 72, 93
14, 425378, Note_off_c, 13, 56, 56
14, 425389, Note_off_c, 13, 72, 56
14, 425401, Note_on_c, 13, 72, 88
14, 425497, Note_off_c, 13, 72, 56
14, 425518, Note_on_c, 13, 72, 94
14, 425521, Note_on_c, 13, 56, 89
14, 425566, Note_off_c, 13, 72, 56
14, 425580, Note_on_c, 13, 72, 94
14, 425617, Note_off_c, 13, 56, 56
14, 425628, Note_off_c, 13, 72, 56
14, 425639, Note_on_c, 13, 72, 89
14, 425735, Note_off_c, 13, 72, 56
14, 425761, Note_on_c, 13, 71, 95
14, 425761, Note_on_c, 13, 55, 90
14, 425809, Note_off_c, 13, 71, 56
14, 425821, Note_on_c, 13, 71, 95
14, 425857, Note_off_c, 13, 55, 56
14, 425869, Note_off_c, 13, 71, 56
14, 425880, Note_on_c, 13, 71, 92
14, 425976, Note_off_c, 13, 71, 56
14, 425998, Note_on_c, 13, 72, 97
14, 425999, Note_on_c, 13, 55, 92
14, 426046, Note_off_c, 13, 72, 56
14, 426060, Note_on_c, 13, 72, 97
14, 426095, Note_off_c, 13, 55, 56
14, 426108, Note_off_c, 13, 72, 56
14, 426119, Note_on_c, 13, 72, 93
14, 426215, Note_off_c, 13, 72, 56
14, 426240, Note_on_c, 13, 55, 93
14, 426242, Note_on_c, 13, 71, 98
14, 426290, Note_off_c, 13, 71, 56
14, 426302, Note_on_c, 13, 71, 99
14, 426336, Note_off_c, 13, 55, 56
14, 426350, Note_off_c, 13, 71, 56
14, 426362, Note_on_c, 13, 71, 94
14, 426458, Note_off_c, 13, 71, 56
14, 426479, Note_on_c, 13, 58, 95
14, 426481, Note_on_c, 13, 72, 100
14, 426529, Note_off_c, 13, 72, 56
14, 426541, Note_on_c, 13, 72, 100
14, 426575, Note_off_c, 13, 58, 56
14, 426589, Note_off_c, 13, 72, 56
14, 426598, Note_on_c, 13, 72, 100
14, 426600, Note_on_c, 13, 58, 95
14, 426646, Note_off_c, 13, 72, 56
14, 426662, Note_on_c, 13, 72, 101
14, 426696, Note_off_c, 13, 58, 56
14, 426710, Note_off_c, 13, 72, 56
14, 426720, Note_on_c, 13, 58, 96
14, 426721, Note_on_c, 13, 72, 101
14, 426769, Note_off_c, 13, 72, 56
14, 426780, Note_on_c, 13, 72, 101
14, 426816, Note_off_c, 13, 58, 56
14, 426828, Note_off_c, 13, 72, 56
14, 426839, Note_on_c, 13, 72, 101
14, 426842, Note_on_c, 13, 58, 96
14, 426887, Note_off_c, 13, 72, 56
14, 426900, Note_on_c, 13, 72, 102
14, 426938, Note_off_c, 13, 58, 56
14, 426948, Note_off_c, 13, 72, 56
14, 426958, Note_on_c, 13, 58, 97
14, 426962, Note_on_c, 13, 72, 102
14, 427010, Note_off_c, 13, 72, 56
14, 427020, Note_on_c, 13, 72, 102
14, 427054, Note_off_c, 13, 58, 56
14, 427068, Note_off_c, 13, 72, 56
14, 427079, Note_on_c, 13, 72, 103
14, 427081, Note_on_c, 13, 58, 98
14, 427127, Note_off_c, 13, 72, 56
14, 427138, Note_on_c, 13, 72, 103
14, 427177, Note_off_c, 13, 58, 56
14, 427186, Note_off_c, 13, 72, 56
14, 427198, Note_on_c, 13, 56, 98
14, 427200, Note_on_c, 13, 72, 103
14, 427248, Note_off_c, 13, 72, 56
14, 427260, Note_on_c, 13, 72, 105
14, 427294, Note_off_c, 13, 56, 56
14, 427308, Note_off_c, 13, 72, 56
14, 427321, Note_on_c, 13, 72, 105
14, 427321, Note_on_c, 13, 56, 100
14, 427369, Note_off_c, 13, 72, 56
14, 427382, Note_on_c, 13, 72, 105
14, 427417, Note_off_c, 13, 56, 56
14, 427430, Note_off_c, 13, 72, 56
14, 427440, Note_on_c, 13, 72, 106
14, 427442, Note_on_c, 13, 56, 101
14, 427488, Note_off_c, 13, 72, 56
14, 427498, Note_on_c, 13, 72, 106
14, 427538, Note_off_c, 13, 56, 56
14, 427546, Note_off_c, 13, 72, 56
14, 427558, Note_on_c, 13, 56, 101
14, 427562, Note_on_c, 13, 72, 106
14, 427610, Note_off_c, 13, 72, 56
14, 427619, Note_on_c, 13, 72, 107
14, 427654, Note_off_c, 13, 56, 56
14, 427667, Note_off_c, 13, 72, 56
14, 427681, Note_on_c, 13, 55, 102
14, 427682, Note_on_c, 13, 71, 107
14, 427730, Note_off_c, 13, 71, 56
14, 427740, Note_on_c, 13, 71, 107
14, 427777, Note_off_c, 13, 55, 56
14, 427788, Note_off_c, 13, 71, 56
14, 427800, Note_on_c, 13, 71, 107
14, 427801, Note_on_c, 13, 55, 102
14, 427848, Note_off_c, 13, 71, 56
14, 427859, Note_on_c, 13, 71, 108
14, 427897, Note_off_c, 13, 55, 56
14, 427907, Note_off_c, 13, 71, 56
14, 427918, Note_on_c, 13, 72, 108
14, 427922, Note_on_c, 13, 55, 103
14, 427966, Note_off_c, 13, 72, 56
14, 427980, Note_on_c, 13, 72, 108
14, 428018, Note_off_c, 13, 55, 56
14, 428028, Note_off_c, 13, 72, 56
14, 428040, Note_on_c, 13, 55, 104
14, 428042, Note_on_c, 13, 72, 109
14, 428090, Note_off_c, 13, 72, 56
14, 428099, Note_on_c, 13, 72, 109
14, 428136, Note_off_c, 13, 55, 56
14, 428147, Note_off_c, 13, 72, 56
14, 428158, Note_on_c, 13, 43, 104
14, 428160, Note_on_c, 13, 72, 109
14, 428208, Note_off_c, 13, 72, 56
14, 428222, Note_on_c, 13, 72, 110
14, 428254, Note_off_c, 13, 43, 56
14, 428270, Note_off_c, 13, 72, 56
14, 428280, Note_on_c, 13, 72, 110
14, 428282, Note_on_c, 13, 43, 105
14, 428328, Note_off_c, 13, 72, 56
14, 428341, Note_on_c, 13, 72, 110
14, 428378, Note_off_c, 13, 43, 56
14, 428389, Note_off_c, 13, 72, 56
14, 428399, Note_on_c, 13, 43, 106
14, 428399, Note_on_c, 13, 71, 111
14, 428447, Note_off_c, 13, 71, 56
14, 428461, Note_on_c, 13, 71, 111
14, 428495, Note_off_c, 13, 43, 56
14, 428509, Note_off_c, 13, 71, 56
14, 428519, Note_on_c, 13, 43, 106
14, 428521, Note_on_c, 13, 71, 111
14, 428569, Note_off_c, 13, 71, 56
14, 428582, Note_on_c, 13, 71, 113
14, 428615, Note_off_c, 13, 43, 56
14, 428630, Note_off_c, 13, 71, 56
14, 428639, Note_on_c, 13, 48, 108
14, 428640, Note_on_c, 13, 72, 113
14, 428688, Note_off_c, 13, 72, 56
14, 428702, Note_on_c, 13, 60, 113
14, 428735, Note_off_c, 13, 48, 56
14, 428750, Note_off_c, 13, 60, 56
14, 428758, Note_on_c, 13, 60, 113
14, 428806, Note_off_c, 13, 60, 56
14, 428818, Note_on_c, 13, 60, 113
14, 428866, Note_off_c, 13, 60, 56
14, 428880, Note_on_c, 13, 60, 113
14, 428928, Note_off_c, 13, 60, 56
14, 428940, Note_on_c, 13, 60, 113
14, 428988, Note_off_c, 13, 60, 56
14, 429001, Note_on_c, 13, 60, 113
14, 429049, Note_off_c, 13, 60, 56
14, 429062, Note_on_c, 13, 60, 113
14, 429110, Note_off_c, 13, 60, 56
14, 429120, Note_on_c, 13, 48, 108
14, 429122, Note_on_c, 13, 60, 113
14, 429170, Note_off_c, 13, 60, 56
14, 429182, Note_on_c, 13, 60, 113
14, 429230, Note_off_c, 13, 60, 56
14, 429238, Note_on_c, 13, 60, 113
14, 429286, Note_off_c, 13, 60, 56
14, 429301, Note_on_c, 13, 60, 113
14, 429312, Note_off_c, 13, 48, 67
14, 429349, Note_off_c, 13, 60, 56
14, 429358, Note_on_c, 13, 60, 113
14, 429360, Note_on_c, 13, 52, 108
14, 429406, Note_off_c, 13, 60, 56
14, 429422, Note_on_c, 13, 60, 113
14, 429470, Note_off_c, 13, 60, 56
14, 429480, Note_on_c, 13, 60, 113
14, 429528, Note_off_c, 13, 60, 56
14, 429541, Note_on_c, 13, 60, 113
14, 429552, Note_off_c, 13, 52, 68
14, 429589, Note_off_c, 13, 60, 56
14, 429600, Note_on_c, 13, 55, 108
14, 429601, Note_on_c, 13, 60, 113
14, 429649, Note_off_c, 13, 60, 56
14, 429662, Note_on_c, 13, 60, 113
14, 429710, Note_off_c, 13, 60, 56
14, 429720, Note_on_c, 13, 60, 113
14, 429768, Note_off_c, 13, 60, 56
14, 429779, Note_on_c, 13, 60, 113
14, 429827, Note_off_c, 13, 60, 56
14, 429841, Note_on_c, 13, 60, 113
14, 429888, Note_off_c, 13, 55, 68
14, 429889, Note_off_c, 13, 60, 56
14, 429899, Note_on_c, 13, 60, 113
14, 429947, Note_off_c, 13, 60, 56
14, 429959, Note_on_c, 13, 60, 113
14, 429962, Note_on_c, 13, 53, 108
14, 430007, Note_off_c, 13, 60, 56
14, 430021, Note_on_c, 13, 60, 113
14, 430058, Note_off_c, 13, 53, 56
14, 430069, Note_off_c, 13, 60, 56
14, 430078, Note_on_c, 13, 52, 108
14, 430081, Note_on_c, 13, 60, 113
14, 430129, Note_off_c, 13, 60, 56
14, 430139, Note_on_c, 13, 60, 113
14, 430174, Note_off_c, 13, 52, 56
14, 430187, Note_off_c, 13, 60, 56
14, 430199, Note_on_c, 13, 60, 113
14, 430199, Note_on_c, 13, 50, 108
14, 430247, Note_off_c, 13, 60, 56
14, 430259, Note_on_c, 13, 60, 113
14, 430295, Note_off_c, 13, 50, 56
14, 430307, Note_off_c, 13, 60, 56
14, 430319, Note_on_c, 13, 48, 108
14, 430320, Note_on_c, 13, 60, 113
14, 430368, Note_off_c, 13, 60, 56
14, 430381, Note_on_c, 13, 60, 113
14, 430415, Note_off_c, 13, 48, 56
14, 430429, Note_off_c, 13, 60, 56
14, 430439, Note_on_c, 13, 60, 113
14, 430440, Note_on_c, 13, 50, 108
14, 430487, Note_off_c, 13, 60, 56
14, 430499, Note_on_c, 13, 60, 113
14, 430536, Note_off_c, 13, 50, 56
14, 430547, Note_off_c, 13, 60, 56
14, 430558, Note_on_c, 13, 52, 108
14, 430558, Note_on_c, 13, 60, 113
14, 430606, Note_off_c, 13, 60, 56
14, 430621, Note_on_c, 13, 60, 113
14, 430669, Note_off_c, 13, 60, 56
14, 430681, Note_on_c, 13, 60, 113
14, 430729, Note_off_c, 13, 60, 56
14, 430742, Note_on_c, 13, 60, 113
14, 430790, Note_off_c, 13, 60, 56
14, 430799, Note_on_c, 13, 60, 113
14, 430846, Note_off_c, 13, 52, 68
14, 430847, Note_off_c, 13, 60, 56
14, 430859, Note_on_c, 13, 60, 113
14, 430907, Note_off_c, 13, 60, 56
14, 430921, Note_on_c, 13, 52, 108
14, 430922, Note_on_c, 13, 60, 113
14, 430970, Note_off_c, 13, 60, 56
14, 430978, Note_on_c, 13, 60, 113
14, 431017, Note_off_c, 13, 52, 56
14, 431026, Note_off_c, 13, 60, 56
14, 431040, Note_on_c, 13, 60, 113
14, 431041, Note_on_c, 13, 52, 108
14, 431088, Note_off_c, 13, 60, 56
14, 431102, Note_on_c, 13, 60, 113
14, 431137, Note_off_c, 13, 52, 56
14, 431150, Note_off_c, 13, 60, 56
14, 431158, Note_on_c, 13, 60, 113
14, 431160, Note_on_c, 13, 50, 108
14, 431206, Note_off_c, 13, 60, 56
14, 431221, Note_on_c, 13, 60, 113
14, 431256, Note_off_c, 13, 50, 56
14, 431269, Note_off_c, 13, 60, 56
14, 431278, Note_on_c, 13, 52, 108
14, 431281, Note_on_c, 13, 60, 113
14, 431329, Note_off_c, 13, 60, 56
14, 431342, Note_on_c, 13, 60, 113
14, 431374, Note_off_c, 13, 52, 56
14, 431390, Note_off_c, 13, 60, 56
14, 431398, Note_on_c, 13, 53, 108
14, 431402, Note_on_c, 13, 60, 113
14, 431450, Note_off_c, 13, 60, 56
14, 431459, Note_on_c, 13, 60, 113
14, 431494, Note_off_c, 13, 53, 56
14, 431507, Note_off_c, 13, 60, 56
14, 431519, Note_on_c, 13, 60, 113
14, 431520, Note_on_c, 13, 55, 108
14, 431567, Note_off_c, 13, 60, 56
14, 431582, Note_on_c, 13, 60, 113
14, 431630, Note_off_c, 13, 60, 56
14, 431639, Note_on_c, 13, 60, 113
14, 431687, Note_off_c, 13, 60, 56
14, 431701, Note_on_c, 13, 60, 113
14, 431749, Note_off_c, 13, 60, 56
14, 431761, Note_on_c, 13, 60, 113
14, 431808, Note_off_c, 13, 55, 69
14, 431809, Note_off_c, 13, 60, 56
14, 431819, Note_on_c, 13, 60, 113
14, 431867, Note_off_c, 13, 60, 56
14, 431879, Note_on_c, 13, 55, 108
14, 431881, Note_on_c, 13, 60, 113
14, 431929, Note_off_c, 13, 60, 56
14, 431939, Note_on_c, 13, 60, 113
14, 431975, Note_off_c, 13, 55, 56
14, 431987, Note_off_c, 13, 60, 56
14, 431998, Note_on_c, 13, 60, 113
14, 432000, Note_on_c, 13, 55, 108
14, 432046, Note_off_c, 13, 60, 56
14, 432061, Note_on_c, 13, 60, 113
14, 432096, Note_off_c, 13, 55, 56
14, 432109, Note_off_c, 13, 60, 56
14, 432119, Note_on_c, 13, 53, 108
14, 432122, Note_on_c, 13, 60, 113
14, 432170, Note_off_c, 13, 60, 56
14, 432178, Note_on_c, 13, 60, 113
14, 432215, Note_off_c, 13, 53, 56
14, 432226, Note_off_c, 13, 60, 56
14, 432238, Note_on_c, 13, 55, 108
14, 432241, Note_on_c, 13, 60, 113
14, 432289, Note_off_c, 13, 60, 56
14, 432301, Note_on_c, 13, 60, 113
14, 432334, Note_off_c, 13, 55, 56
14, 432349, Note_off_c, 13, 60, 56
14, 432358, Note_on_c, 13, 60, 113
14, 432362, Note_on_c, 13, 59, 108
14, 432406, Note_off_c, 13, 60, 56
14, 432418, Note_on_c, 13, 60, 113
14, 432458, Note_off_c, 13, 59, 56
14, 432466, Note_off_c, 13, 60, 56
14, 432481, Note_on_c, 13, 60, 113
14, 432529, Note_off_c, 13, 60, 56
14, 432542, Note_on_c, 13, 60, 113
14, 432590, Note_off_c, 13, 60, 56
14, 432599, Note_on_c, 13, 60, 113
14, 432600, Note_on_c, 13, 59, 108
14, 432647, Note_off_c, 13, 60, 56
14, 432658, Note_on_c, 13, 60, 113
14, 432696, Note_off_c, 13, 59, 56
14, 432706, Note_off_c, 13, 60, 56
14, 432722, Note_on_c, 13, 60, 113
14, 432770, Note_off_c, 13, 60, 56
14, 432779, Note_on_c, 13, 60, 113
14, 432827, Note_off_c, 13, 60, 56
14, 432839, Note_on_c, 13, 62, 108
14, 432842, Note_on_c, 13, 60, 113
14, 432890, Note_off_c, 13, 60, 56
14, 432902, Note_on_c, 13, 60, 113
14, 432935, Note_off_c, 13, 62, 56
14, 432950, Note_off_c, 13, 60, 56
14, 432958, Note_on_c, 13, 60, 113
14, 432961, Note_on_c, 13, 64, 108
14, 433006, Note_off_c, 13, 60, 56
14, 433018, Note_on_c, 13, 60, 113
14, 433057, Note_off_c, 13, 64, 56
14, 433066, Note_off_c, 13, 60, 56
14, 433079, Note_on_c, 13, 60, 113
14, 433079, Note_on_c, 13, 50, 108
14, 433127, Note_off_c, 13, 60, 56
14, 433139, Note_on_c, 13, 60, 113
14, 433175, Note_off_c, 13, 50, 56
14, 433187, Note_off_c, 13, 60, 56
14, 433201, Note_on_c, 13, 60, 113
14, 433202, Note_on_c, 13, 52, 108
14, 433249, Note_off_c, 13, 60, 56
14, 433261, Note_on_c, 13, 60, 113
14, 433298, Note_off_c, 13, 52, 56
14, 433309, Note_off_c, 13, 60, 56
14, 433318, Note_on_c, 13, 53, 108
14, 433320, Note_on_c, 13, 60, 113
14, 433368, Note_off_c, 13, 60, 56
14, 433380, Note_on_c, 13, 60, 113
14, 433414, Note_off_c, 13, 53, 56
14, 433428, Note_off_c, 13, 60, 56
14, 433438, Note_on_c, 13, 55, 108
14, 433438, Note_on_c, 13, 60, 113
14, 433486, Note_off_c, 13, 60, 56
14, 433499, Note_on_c, 13, 64, 113
14, 433547, Note_off_c, 13, 64, 56
14, 433561, Note_on_c, 13, 64, 113
14, 433609, Note_off_c, 13, 64, 56
14, 433619, Note_on_c, 13, 64, 113
14, 433667, Note_off_c, 13, 64, 56
14, 433680, Note_on_c, 13, 64, 113
14, 433728, Note_off_c, 13, 64, 56
14, 433740, Note_on_c, 13, 64, 113
14, 433788, Note_off_c, 13, 64, 56
14, 433800, Note_on_c, 13, 64, 113
14, 433848, Note_off_c, 13, 64, 56
14, 433862, Note_on_c, 13, 64, 113
14, 433910, Note_off_c, 13, 64, 56
14, 433920, Note_on_c, 13, 64, 113
14, 433968, Note_off_c, 13, 64, 56
14, 433978, Note_on_c, 13, 64, 113
14, 434026, Note_off_c, 13, 64, 56
14, 434038, Note_on_c, 13, 64, 113
14, 434086, Note_off_c, 13, 64, 56
14, 434099, Note_on_c, 13, 64, 113
14, 434147, Note_off_c, 13, 64, 56
14, 434159, Note_on_c, 13, 64, 113
14, 434206, Note_off_c, 13, 55, 69
14, 434207, Note_off_c, 13, 64, 56
14, 434219, Note_on_c, 13, 64, 113
14, 434267, Note_off_c, 13, 64, 56
14, 434278, Note_on_c, 13, 64, 113
14, 434326, Note_off_c, 13, 64, 56
14, 434340, Note_on_c, 13, 64, 113
14, 434388, Note_off_c, 13, 64, 56
14, 434399, Note_on_c, 13, 52, 108
14, 434402, Note_on_c, 13, 64, 113
14, 434450, Note_off_c, 13, 64, 56
14, 434462, Note_on_c, 13, 64, 113
14, 434510, Note_off_c, 13, 64, 56
14, 434520, Note_on_c, 13, 64, 113
14, 434568, Note_off_c, 13, 64, 56
14, 434578, Note_on_c, 13, 64, 113
14, 434626, Note_off_c, 13, 64, 56
14, 434639, Note_on_c, 13, 64, 113
14, 434687, Note_off_c, 13, 64, 56
14, 434702, Note_on_c, 13, 64, 113
14, 434750, Note_off_c, 13, 64, 56
14, 434759, Note_on_c, 13, 64, 113
14, 434807, Note_off_c, 13, 64, 56
14, 434822, Note_on_c, 13, 64, 113
14, 434870, Note_off_c, 13, 64, 56
14, 434882, Note_on_c, 13, 64, 113
14, 434930, Note_off_c, 13, 64, 56
14, 434942, Note_on_c, 13, 64, 113
14, 434990, Note_off_c, 13, 64, 56
14, 435002, Note_on_c, 13, 64, 113
14, 435050, Note_off_c, 13, 64, 56
14, 435062, Note_on_c, 13, 64, 113
14, 435110, Note_off_c, 13, 64, 56
14, 435120, Note_on_c, 13, 64, 113
14, 435167, Note_off_c, 13, 52, 69
14, 435168, Note_off_c, 13, 64, 56
14, 435178, Note_on_c, 13, 64, 113
14, 435226, Note_off_c, 13, 64, 56
14, 435240, Note_on_c, 13, 64, 113
14, 435288, Note_off_c, 13, 64, 56
14, 435299, Note_on_c, 13, 64, 113
14, 435347, Note_off_c, 13, 64, 56
14, 435359, Note_on_c, 13, 48, 108
14, 435361, Note_on_c, 13, 72, 108
14, 435361, Note_on_c, 13, 64, 108
14, 435479, Note_off_c, 13, 48, 56
14, 435481, Note_off_c, 13, 64, 56
14, 435481, Note_off_c, 13, 72, 56
14, 435838, Note_on_c, 13, 67, 108
14, 435839, Note_on_c, 13, 43, 108
14, 435839, Note_on_c, 13, 74, 108
14, 435840, Control_c, 13, 7, 100
14, 435840, Program_c, 13, 48
14, 435958, Note_off_c, 13, 67, 56
14, 435959, Note_off_c, 13, 74, 56
14, 435959, Note_off_c, 13, 43, 56
14, 436319, Note_on_c, 13, 67, 108
14, 436320, Note_on_c, 13, 76, 108
14, 436322, Note_on_c, 13, 48, 108
14, 436439, Note_off_c, 13, 67, 56
14, 436440, Note_off_c, 13, 76, 56
14, 436442, Note_off_c, 13, 48, 56
14, 436798, Note_on_c, 13, 43, 108
14, 436799, Note_on_c, 13, 79, 108
14, 436800, Note_on_c, 13, 71, 108
14, 436918, Note_off_c, 13, 43, 56
14, 436919, Note_off_c, 13, 79, 56
14, 436920, Note_off_c, 13, 71, 56
14, 437279, Note_on_c, 13, 48, 108
14, 437281, Note_on_c, 13, 76, 108
14, 437281, Note_on_c, 13, 72, 108
14, 437399, Note_off_c, 13, 48, 56
14, 437401, Note_off_c, 13, 72, 56
14, 437401, Note_off_c, 13, 76, 56
14, 437758, Note_on_c, 13, 43, 108
14, 437760, Note_on_c, 13, 67, 108
14, 437761, Note_on_c, 13, 74, 108
14, 437878, Note_off_c, 13, 43, 56
14, 437880, Note_off_c, 13, 67, 56
14, 437881, Note_off_c, 13, 74, 56
14, 438240, Note_on_c, 13, 48, 108
14, 438242, Note_on_c, 13, 76, 108
14, 438242, Note_on_c, 13, 67, 108
14, 438360, Note_off_c, 13, 48, 56
14, 438362, Note_off_c, 13, 67, 56
14, 438362, Note_off_c, 13, 76, 56
14, 438719, Note_on_c, 13, 71, 108
14, 438719, Note_on_c, 13, 79, 108
14, 438722, Note_on_c, 13, 43, 108
14, 438839, Note_off_c, 13, 79, 56
14, 438839, Note_off_c, 13, 71, 56
14, 438842, Note_off_c, 13, 43, 56
14, 439198, Note_on_c, 13, 72, 108
14, 439199, Note_on_c, 13, 48, 108
14, 439200, Note_on_c, 13, 76, 108
14, 439318, Note_off_c, 13, 72, 56
14, 439319, Note_off_c, 13, 48, 56
14, 439320, Note_off_c, 13, 76, 56
14, 439678, Note_on_c, 13, 79, 108
14, 439678, Note_on_c, 13, 43, 108
14, 439680, Note_on_c, 13, 71, 108
14, 439798, Note_off_c, 13, 43, 56
14, 439798, Note_off_c, 13, 79, 56
14, 439800, Note_off_c, 13, 71, 56
14, 440161, Note_on_c, 13, 76, 108
14, 440162, Note_on_c, 13, 48, 108
14, 440162, Note_on_c, 13, 72, 108
14, 440281, Note_off_c, 13, 76, 56
14, 440282, Note_off_c, 13, 72, 56
14, 440282, Note_off_c, 13, 48, 56
14, 440639, Note_on_c, 13, 71, 108
14, 440639, Note_on_c, 13, 43, 108
14, 440641, Note_on_c, 13, 79, 108
14, 440759, Note_off_c, 13, 43, 56
14, 440759, Note_off_c, 13, 71, 56
14, 440761, Note_off_c, 13, 79, 56
14, 441118, Note_on_c, 13, 84, 113
14, 441118, Note_on_c, 13, 60, 108
14, 441120, Control_c, 13, 7, 120
14, 441120, Program_c, 13, 44
14, 441166, Note_off_c, 13, 84, 56
14, 441179, Note_on_c, 13, 84, 113
14, 441227, Note_off_c, 13, 84, 56
14, 441240, Note_on_c, 13, 84, 113
14, 441288, Note_off_c, 13, 84, 56
14, 441298, Note_on_c, 13, 84, 113
14, 441346, Note_off_c, 13, 84, 56
14, 441359, Note_on_c, 13, 84, 113
14, 441407, Note_off_c, 13, 84, 56
14, 441419, Note_on_c, 13, 84, 113
14, 441467, Note_off_c, 13, 84, 56
14, 441481, Note_on_c, 13, 84, 113
14, 441529, Note_off_c, 13, 84, 56
14, 441541, Note_on_c, 13, 84, 113
14, 441589, Note_off_c, 13, 84, 56
14, 441599, Note_on_c, 13, 84, 113
14, 441647, Note_off_c, 13, 84, 56
14, 441658, Note_on_c, 13, 84, 113
14, 441706, Note_off_c, 13, 84, 56
14, 441719, Note_on_c, 13, 84, 113
14, 441767, Note_off_c, 13, 84, 56
14, 441782, Note_on_c, 13, 84, 113
14, 441830, Note_off_c, 13, 84, 56
14, 441839, Note_on_c, 13, 79, 113
14, 441886, Note_off_c, 13, 60, 71
14, 441887, Note_off_c, 13, 79, 56
14, 441898, Note_on_c, 13, 79, 113
14, 441946, Note_off_c, 13, 79, 56
14, 441961, Note_on_c, 13, 76, 113
14, 442009, Note_off_c, 13, 76, 56
14, 442021, Note_on_c, 13, 76, 113
14, 442069, Note_off_c, 13, 76, 56
14, 442078, Note_on_c, 13, 72, 113
14, 442079, Note_on_c, 13, 60, 108
14, 442126, Note_off_c, 13, 72, 56
14, 442139, Note_on_c, 13, 72, 113
14, 442187, Note_off_c, 13, 72, 56
14, 442200, Note_on_c, 13, 72, 113
14, 442248, Note_off_c, 13, 72, 56
14, 442258, Note_on_c, 13, 72, 113
14, 442306, Note_off_c, 13, 72, 56
14, 442318, Note_on_c, 13, 72, 113
14, 442366, Note_off_c, 13, 72, 56
14, 442381, Note_on_c, 13, 72, 113
14, 442429, Note_off_c, 13, 72, 56
14, 442442, Note_on_c, 13, 72, 113
14, 442490, Note_off_c, 13, 72, 56
14, 442501, Note_on_c, 13, 72, 113
14, 442549, Note_off_c, 13, 72, 56
14, 442558, Note_on_c, 13, 72, 113
14, 442606, Note_off_c, 13, 72, 56
14, 442622, Note_on_c, 13, 72, 113
14, 442655, Note_off_c, 13, 60, 72
14, 442670, Note_off_c, 13, 72, 56
14, 442681, Note_on_c, 13, 72, 113
14, 442729, Note_off_c, 13, 72, 56
14, 442740, Note_on_c, 13, 72, 113
14, 442788, Note_off_c, 13, 72, 56
14, 442800, Note_on_c, 13, 55, 108
14, 442801, Note_on_c, 13, 67, 113
14, 442849, Note_off_c, 13, 67, 56
14, 442861, Note_on_c, 13, 67, 113
14, 442896, Note_off_c, 13, 55, 56
14, 442909, Note_off_c, 13, 67, 56
14, 442919, Note_on_c, 13, 52, 108
14, 442922, Note_on_c, 13, 64, 113
14, 442970, Note_off_c, 13, 64, 56
14, 442979, Note_on_c, 13, 64, 113
14, 443015, Note_off_c, 13, 52, 56
14, 443027, Note_off_c, 13, 64, 56
14, 443040, Note_on_c, 13, 60, 108
14, 443041, Note_on_c, 13, 48, 108
14, 443136, Note_off_c, 13, 60, 56
14, 443137, Note_off_c, 13, 48, 56
14, 443398, Note_on_c, 13, 48, 108
14, 443401, Note_on_c, 13, 64, 108
14, 443494, Note_off_c, 13, 48, 56
14, 443497, Note_off_c, 13, 64, 56
14, 443519, Note_on_c, 13, 64, 108
14, 443520, Note_on_c, 13, 48, 108
14, 443615, Note_off_c, 13, 64, 56
14, 443616, Note_off_c, 13, 48, 56
14, 443641, Note_on_c, 13, 48, 108
14, 443642, Note_on_c, 13, 64, 108
14, 443737, Note_off_c, 13, 48, 56
14, 443738, Note_off_c, 13, 64, 56
14, 443758, Note_on_c, 13, 48, 108
14, 443759, Note_on_c, 13, 64, 108
14, 443854, Note_off_c, 13, 48, 56
14, 443855, Note_off_c, 13, 64, 56
14, 443878, Note_on_c, 13, 48, 108
14, 443881, Note_on_c, 13, 64, 108
14, 443974, Note_off_c, 13, 48, 56
14, 443977, Note_off_c, 13, 64, 56
14, 444000, Note_on_c, 13, 64, 108
14, 444001, Note_on_c, 13, 48, 108
14, 444096, Note_off_c, 13, 64, 56
14, 444097, Note_off_c, 13, 48, 56
14, 444359, Note_on_c, 13, 72, 108
14, 444362, Note_on_c, 13, 48, 108
14, 444455, Note_off_c, 13, 72, 56
14, 444458, Note_off_c, 13, 48, 56
14, 444480, Note_on_c, 13, 72, 108
14, 444482, Note_on_c, 13, 48, 108
14, 444576, Note_off_c, 13, 72, 56
14, 444578, Note_off_c, 13, 48, 56
14, 444598, Note_on_c, 13, 48, 108
14, 444599, Note_on_c, 13, 72, 108
14, 444694, Note_off_c, 13, 48, 56
14, 444695, Note_off_c, 13, 72, 56
14, 444720, Note_on_c, 13, 72, 108
14, 444722, Note_on_c, 13, 48, 108
14, 444816, Note_off_c, 13, 72, 56
14, 444818, Note_off_c, 13, 48, 56
14, 444841, Note_on_c, 13, 72, 108
14, 444841, Note_on_c, 13, 48, 108
14, 444937, Note_off_c, 13, 48, 56
14, 444937, Note_off_c, 13, 72, 56
14, 444961, Note_on_c, 13, 48, 108
14, 444962, Note_on_c, 13, 72, 108
14, 445057, Note_off_c, 13, 48, 56
14, 445058, Note_off_c, 13, 72, 56
14, 445199, Note_on_c, 13, 64, 108
14, 445201, Note_on_c, 13, 48, 108
14, 445295, Note_off_c, 13, 64, 56
14, 445297, Note_off_c, 13, 48, 56
14, 445320, Note_on_c, 13, 64, 108
14, 445322, Note_on_c, 13, 48, 108
14, 445416, Note_off_c, 13, 64, 56
14, 445418, Note_off_c, 13, 48, 56
14, 445438, Note_on_c, 13, 64, 108
14, 445440, Note_on_c, 13, 48, 108
14, 445534, Note_off_c, 13, 64, 56
14, 445536, Note_off_c, 13, 48, 56
14, 445680, Note_on_c, 13, 48, 108
14, 445682, Note_on_c, 13, 72, 108
14, 445776, Note_off_c, 13, 48, 56
14, 445778, Note_off_c, 13, 72, 56
14, 445802, Note_on_c, 13, 48, 108
14, 445802, Note_on_c, 13, 72, 108
14, 445898, Note_off_c, 13, 72, 56
14, 445898, Note_off_c, 13, 48, 56
14, 445918, Note_on_c, 13, 72, 108
14, 445919, Note_on_c, 13, 48, 108
14, 446014, Note_off_c, 13, 72, 56
14, 446015, Note_off_c, 13, 48, 56
14, 446160, Note_on_c, 13, 76, 108
14, 446162, Note_on_c, 13, 48, 108
14, 446256, Note_off_c, 13, 76, 56
14, 446258, Note_off_c, 13, 48, 56
14, 446280, Note_on_c, 13, 76, 108
14, 446281, Note_on_c, 13, 48, 108
14, 446376, Note_off_c, 13, 76, 56
14, 446377, Note_off_c, 13, 48, 56
14, 446401, Note_on_c, 13, 48, 108
14, 446401, Note_on_c, 13, 76, 108
14, 446497, Note_off_c, 13, 76, 56
14, 446497, Note_off_c, 13, 48, 56
14, 446638, Note_on_c, 13, 76, 108
14, 446639, Note_on_c, 13, 48, 108
14, 446734, Note_off_c, 13, 76, 56
14, 446735, Note_off_c, 13, 48, 56
14, 446761, Note_on_c, 13, 48, 108
14, 446761, Note_on_c, 13, 76, 108
14, 446857, Note_off_c, 13, 76, 56
14, 446857, Note_off_c, 13, 48, 56
14, 446878, Note_on_c, 13, 48, 108
14, 446880, Note_on_c, 13, 76, 113
14, 446928, Note_off_c, 13, 76, 56
14, 446940, Note_on_c, 13, 76, 113
14, 446974, Note_off_c, 13, 48, 56
14, 446988, Note_off_c, 13, 76, 56
14, 447000, Note_on_c, 13, 76, 113
14, 447001, Note_on_c, 13, 52, 108
14, 447048, Note_off_c, 13, 76, 56
14, 447061, Note_on_c, 13, 76, 113
14, 447097, Note_off_c, 13, 52, 56
14, 447109, Note_off_c, 13, 76, 56
14, 447121, Note_on_c, 13, 55, 108
14, 447122, Note_on_c, 13, 76, 113
14, 447170, Note_off_c, 13, 76, 56
14, 447178, Note_on_c, 13, 76, 113
14, 447217, Note_off_c, 13, 55, 56
14, 447226, Note_off_c, 13, 76, 56
14, 447240, Note_on_c, 13, 76, 113
14, 447240, Note_on_c, 13, 60, 108
14, 447288, Note_off_c, 13, 76, 56
14, 447299, Note_on_c, 13, 76, 113
14, 447336, Note_off_c, 13, 60, 56
14, 447347, Note_off_c, 13, 76, 56
14, 447361, Note_on_c, 13, 64, 108
14, 447362, Note_on_c, 13, 76, 113
14, 447410, Note_off_c, 13, 76, 56
14, 447421, Note_on_c, 13, 76, 113
14, 447457, Note_off_c, 13, 64, 56
14, 447469, Note_off_c, 13, 76, 56
14, 447481, Note_on_c, 13, 76, 113
14, 447481, Note_on_c, 13, 67, 108
14, 447529, Note_off_c, 13, 76, 56
14, 447540, Note_on_c, 13, 76, 113
14, 447577, Note_off_c, 13, 67, 56
14, 447588, Note_off_c, 13, 76, 56
14, 447598, Note_on_c, 13, 76, 113
14, 447601, Note_on_c, 13, 64, 108
14, 447646, Note_off_c, 13, 76, 56
14, 447658, Note_on_c, 13, 76, 113
14, 447697, Note_off_c, 13, 64, 56
14, 447706, Note_off_c, 13, 76, 56
14, 447721, Note_on_c, 13, 76, 113
14, 447722, Note_on_c, 13, 60, 108
14, 447769, Note_off_c, 13, 76, 56
14, 447779, Note_on_c, 13, 76, 113
14, 447818, Note_off_c, 13, 60, 56
14, 447827, Note_off_c, 13, 76, 56
14, 447838, Note_on_c, 13, 55, 108
14, 447842, Note_on_c, 13, 76, 113
14, 447890, Note_off_c, 13, 76, 56
14, 447902, Note_on_c, 13, 76, 113
14, 447934, Note_off_c, 13, 55, 56
14, 447950, Note_off_c, 13, 76, 56
14, 447961, Note_on_c, 13, 76, 113
14, 447962, Note_on_c, 13, 52, 108
14, 448009, Note_off_c, 13, 76, 56
14, 448022, Note_on_c, 13, 76, 113
14, 448058, Note_off_c, 13, 52, 56
14, 448070, Note_off_c, 13, 76, 56
14, 448078, Note_on_c, 13, 48, 108
14, 448081, Note_on_c, 13, 76, 113
14, 448129, Note_off_c, 13, 76, 56
14, 448139, Note_on_c, 13, 76, 113
14, 448174, Note_off_c, 13, 48, 56
14, 448187, Note_off_c, 13, 76, 56
14, 448200, Note_on_c, 13, 43, 108
14, 448202, Note_on_c, 13, 76, 113
14, 448250, Note_off_c, 13, 76, 56
14, 448260, Note_on_c, 13, 76, 113
14, 448296, Note_off_c, 13, 43, 56
14, 448308, Note_off_c, 13, 76, 56
14, 448318, Note_on_c, 13, 40, 108
14, 448320, Note_on_c, 13, 76, 113
14, 448368, Note_off_c, 13, 76, 56
14, 448381, Note_on_c, 13, 76, 113
14, 448414, Note_off_c, 13, 40, 56
14, 448429, Note_off_c, 13, 76, 56
14, 448439, Note_on_c, 13, 76, 113
14, 448441, Note_on_c, 13, 36, 108
14, 448487, Note_off_c, 13, 76, 56
14, 448498, Note_on_c, 13, 76, 113
14, 448537, Note_off_c, 13, 36, 56
14, 448546, Note_off_c, 13, 76, 56
14, 448558, Note_on_c, 13, 76, 113
14, 448560, Note_on_c, 13, 48, 108
14, 448606, Note_off_c, 13, 76, 56
14, 448620, Note_on_c, 13, 76, 113
14, 448656, Note_off_c, 13, 48, 56
14, 448668, Note_off_c, 13, 76, 56
14, 448678, Note_on_c, 13, 48, 108
14, 448679, Note_on_c, 13, 76, 113
14, 448727, Note_off_c, 13, 76, 56
14, 448741, Note_on_c, 13, 76, 113
14, 448774, Note_off_c, 13, 48, 56
14, 448789, Note_off_c, 13, 76, 56
14, 448798, Note_on_c, 13, 76, 108
14, 448799, Note_on_c, 13, 48, 108
14, 448802, Note_on_c, 13, 84, 108
14, 448918, Note_off_c, 13, 76, 56
14, 448919, Note_off_c, 13, 48, 56
14, 448922, Note_off_c, 13, 84, 56
14, 449758, Note_on_c, 13, 60, 108
14, 449760, Control_c, 13, 7, 100
14, 449760, Program_c, 13, 48
14, 449761, Note_on_c, 13, 67, 108
14, 449762, Note_on_c, 13, 48, 108
14, 449878, Note_off_c, 13, 60, 56
14, 449881, Note_off_c, 13, 67, 56
14, 449882, Note_off_c, 13, 48, 56
14, 450719, Note_on_c, 13, 48, 108
14, 450722, Note_on_c, 13, 55, 108
14, 450722, Note_on_c, 13, 64, 108
14, 450839, Note_off_c, 13, 48, 56
14, 450842, Note_off_c, 13, 64, 56
14, 450842, Note_off_c, 13, 55, 56
14, 451678, Note_on_c, 13, 67, 108
14, 451678, Note_on_c, 13, 60, 108
14, 451682, Note_on_c, 13, 48, 108
14, 451798, Note_off_c, 13, 60, 56
14, 451798, Note_off_c, 13, 67, 56
14, 451802, Note_off_c, 13, 48, 56
14, 452162, Note_on_c, 13, 60, 108
14, 452162, Note_on_c, 13, 48, 108
14, 452162, Note_on_c, 13, 67, 108
14, 452282, Note_off_c, 13, 67, 56
14, 452282, Note_off_c, 13, 48, 56
14, 452282, Note_off_c, 13, 60, 56
14, 452638, Note_on_c, 13, 48, 108
14, 452640, Note_on_c, 13, 67, 108
14, 452641, Note_on_c, 13, 60, 108
14, 452758, Note_off_c, 13, 48, 56
14, 452760, Note_off_c, 13, 67, 56
14, 452761, Note_off_c, 13, 60, 56
14, 453598, Note_on_c, 13, 67, 108
14, 453600, Note_on_c, 13, 60, 108
14, 453602, Note_on_c, 13, 48, 108
14, 453718, Note_off_c, 13, 67, 56
14, 453720, Note_off_c, 13, 60, 56
14, 453722, Note_off_c, 13, 48, 56
14, 454559, Note_on_c, 13, 48, 108
14, 454560, Note_on_c, 13, 60, 108
14, 455519, Note_off_c, 13, 48, 76
14, 455520, Note_off_c, 13, 60, 76
14, 455520, End_track
15, 0, Start_track
15, 0, Title_t, "CBass"
15, 0, Program_c, 14, 43
15, 0, Control_c, 14, 7, 75
15, 0, Note_on_c, 14, 36, 108
15, 0, Control_c, 14, 91, 62
15, 0, Control_c, 14, 93, 0
15, 0, Control_c, 14, 10, 32
15, 163, Note_off_c, 14, 36, 64
15, 480, Note_on_c, 14, 36, 108
15, 643, Note_off_c, 14, 36, 64
15, 960, Note_on_c, 14, 36, 108
15, 1478, Note_off_c, 14, 36, 64
15, 1680, Note_on_c, 14, 31, 108
15, 1761, Note_off_c, 14, 31, 56
15, 1920, Note_on_c, 14, 36, 108
15, 2001, Note_off_c, 14, 36, 56
15, 2160, Note_on_c, 14, 31, 108
15, 2241, Note_off_c, 14, 31, 56
15, 2400, Note_on_c, 14, 36, 108
15, 2481, Note_off_c, 14, 36, 56
15, 2639, Note_on_c, 14, 31, 108
15, 2720, Note_off_c, 14, 31, 56
15, 2882, Note_on_c, 14, 36, 108
15, 3400, Note_off_c, 14, 36, 64
15, 3601, Note_on_c, 14, 36, 108
15, 3723, Note_off_c, 14, 36, 64
15, 3780, Note_on_c, 14, 36, 113
15, 3820, Note_off_c, 14, 36, 56
15, 3840, Note_on_c, 14, 31, 108
15, 4358, Note_off_c, 14, 31, 64
15, 4562, Note_on_c, 14, 31, 108
15, 4684, Note_off_c, 14, 31, 64
15, 4740, Note_on_c, 14, 31, 113
15, 4780, Note_off_c, 14, 31, 56
15, 4803, Note_on_c, 14, 36, 108
15, 5571, Note_off_c, 14, 36, 64
15, 5762, Note_on_c, 14, 33, 108
15, 6107, Note_off_c, 14, 33, 64
15, 6238, Note_on_c, 14, 29, 108
15, 6583, Note_off_c, 14, 29, 64
15, 6719, Note_on_c, 14, 28, 108
15, 6800, Note_off_c, 14, 28, 56
15, 6841, Note_on_c, 14, 29, 108
15, 6922, Note_off_c, 14, 29, 56
15, 6961, Note_on_c, 14, 28, 108
15, 7042, Note_off_c, 14, 28, 56
15, 7080, Note_on_c, 14, 26, 108
15, 7161, Note_off_c, 14, 26, 56
15, 7201, Note_on_c, 14, 24, 108
15, 7546, Note_off_c, 14, 24, 64
15, 7681, Note_on_c, 14, 33, 108
15, 8026, Note_off_c, 14, 33, 64
15, 8157, Note_on_c, 14, 29, 108
15, 8502, Note_off_c, 14, 29, 64
15, 8641, Note_on_c, 14, 28, 108
15, 8722, Note_off_c, 14, 28, 56
15, 8759, Note_on_c, 14, 29, 108
15, 8840, Note_off_c, 14, 29, 56
15, 8879, Note_on_c, 14, 28, 108
15, 8960, Note_off_c, 14, 28, 56
15, 9000, Note_on_c, 14, 26, 108
15, 9081, Note_off_c, 14, 26, 56
15, 9119, Note_on_c, 14, 24, 108
15, 9464, Note_off_c, 14, 24, 64
15, 9598, Note_on_c, 14, 33, 108
15, 9943, Note_off_c, 14, 33, 64
15, 10079, Note_on_c, 14, 29, 108
15, 10424, Note_off_c, 14, 29, 64
15, 10561, Note_on_c, 14, 28, 108
15, 10642, Note_off_c, 14, 28, 56
15, 10681, Note_on_c, 14, 29, 108
15, 10762, Note_off_c, 14, 29, 56
15, 10801, Note_on_c, 14, 28, 108
15, 10882, Note_off_c, 14, 28, 56
15, 10921, Note_on_c, 14, 26, 108
15, 11002, Note_off_c, 14, 26, 56
15, 11043, Note_on_c, 14, 24, 108
15, 11206, Note_off_c, 14, 24, 64
15, 11282, Note_on_c, 14, 36, 108
15, 11404, Note_off_c, 14, 36, 64
15, 11460, Note_on_c, 14, 36, 113
15, 11500, Note_off_c, 14, 36, 56
15, 11522, Note_on_c, 14, 35, 108
15, 11867, Note_off_c, 14, 35, 64
15, 12001, Note_on_c, 14, 36, 108
15, 12346, Note_off_c, 14, 36, 64
15, 12481, Note_on_c, 14, 31, 108
15, 12644, Note_off_c, 14, 31, 64
15, 12722, Note_on_c, 14, 31, 108
15, 13067, Note_off_c, 14, 31, 64
15, 13201, Note_on_c, 14, 36, 108
15, 13323, Note_off_c, 14, 36, 64
15, 13380, Note_on_c, 14, 36, 113
15, 13420, Note_off_c, 14, 36, 56
15, 13441, Note_on_c, 14, 35, 108
15, 13786, Note_off_c, 14, 35, 64
15, 13919, Note_on_c, 14, 36, 108
15, 14264, Note_off_c, 14, 36, 64
15, 14401, Note_on_c, 14, 31, 108
15, 14564, Note_off_c, 14, 31, 64
15, 14641, Note_on_c, 14, 31, 108
15, 14986, Note_off_c, 14, 31, 64
15, 15122, Note_on_c, 14, 36, 108
15, 15244, Note_off_c, 14, 36, 64
15, 15300, Note_on_c, 14, 36, 113
15, 15340, Note_off_c, 14, 36, 56
15, 15358, Note_on_c, 14, 35, 108
15, 15480, Note_off_c, 14, 35, 64
15, 15540, Note_on_c, 14, 35, 113
15, 15580, Note_off_c, 14, 35, 56
15, 15602, Note_on_c, 14, 31, 108
15, 15724, Note_off_c, 14, 31, 64
15, 15780, Note_on_c, 14, 31, 113
15, 15820, Note_off_c, 14, 31, 56
15, 15840, Note_on_c, 14, 36, 108
15, 15962, Note_off_c, 14, 36, 64
15, 16020, Note_on_c, 14, 36, 113
15, 16060, Note_off_c, 14, 36, 56
15, 16078, Note_on_c, 14, 40, 108
15, 16200, Note_off_c, 14, 40, 64
15, 16260, Note_on_c, 14, 40, 113
15, 16300, Note_off_c, 14, 40, 56
15, 16320, Note_on_c, 14, 43, 108
15, 16401, Note_off_c, 14, 43, 56
15, 16441, Note_on_c, 14, 31, 108
15, 16522, Note_off_c, 14, 31, 56
15, 16563, Note_on_c, 14, 31, 108
15, 16726, Note_off_c, 14, 31, 64
15, 17400, Note_on_c, 14, 31, 108
15, 17481, Note_off_c, 14, 31, 56
15, 17522, Note_on_c, 14, 31, 108
15, 17685, Note_off_c, 14, 31, 64
15, 18361, Note_on_c, 14, 31, 108
15, 18442, Note_off_c, 14, 31, 56
15, 18479, Note_on_c, 14, 31, 108
15, 18642, Note_off_c, 14, 31, 64
15, 18839, Note_on_c, 14, 31, 108
15, 18920, Note_off_c, 14, 31, 56
15, 18960, Note_on_c, 14, 31, 108
15, 19123, Note_off_c, 14, 31, 64
15, 19319, Note_on_c, 14, 31, 108
15, 19400, Note_off_c, 14, 31, 56
15, 19439, Note_on_c, 14, 31, 108
15, 19602, Note_off_c, 14, 31, 64
15, 19801, Note_on_c, 14, 31, 108
15, 19882, Note_off_c, 14, 31, 56
15, 19918, Note_on_c, 14, 31, 108
15, 20081, Note_off_c, 14, 31, 64
15, 20161, Note_on_c, 14, 31, 108
15, 20324, Note_off_c, 14, 31, 64
15, 23160, Note_on_c, 14, 48, 108
15, 23241, Note_off_c, 14, 48, 56
15, 23281, Note_on_c, 14, 47, 108
15, 23362, Note_off_c, 14, 47, 56
15, 23400, Note_on_c, 14, 45, 108
15, 23481, Note_off_c, 14, 45, 56
15, 23519, Note_on_c, 14, 43, 108
15, 23580, Note_off_c, 14, 43, 56
15, 23641, Note_on_c, 14, 41, 108
15, 23702, Note_off_c, 14, 41, 56
15, 23759, Note_on_c, 14, 40, 108
15, 23820, Note_off_c, 14, 40, 56
15, 23880, Note_on_c, 14, 38, 108
15, 23941, Note_off_c, 14, 38, 56
15, 24000, Note_on_c, 14, 36, 108
15, 24163, Note_off_c, 14, 36, 64
15, 25923, Note_on_c, 14, 31, 108
15, 26441, Note_off_c, 14, 31, 64
15, 26519, Note_on_c, 14, 31, 108
15, 26600, Note_off_c, 14, 31, 56
15, 26639, Note_on_c, 14, 35, 108
15, 26700, Note_off_c, 14, 35, 56
15, 26760, Note_on_c, 14, 38, 108
15, 26821, Note_off_c, 14, 38, 56
15, 26881, Note_on_c, 14, 41, 108
15, 26942, Note_off_c, 14, 41, 56
15, 26999, Note_on_c, 14, 43, 108
15, 27060, Note_off_c, 14, 43, 56
15, 27121, Note_on_c, 14, 47, 108
15, 27182, Note_off_c, 14, 47, 56
15, 27239, Note_on_c, 14, 50, 108
15, 27320, Note_off_c, 14, 50, 56
15, 27360, Note_on_c, 14, 53, 108
15, 27441, Note_off_c, 14, 53, 56
15, 27479, Note_on_c, 14, 55, 108
15, 27560, Note_off_c, 14, 55, 56
15, 27599, Note_on_c, 14, 53, 108
15, 27680, Note_off_c, 14, 53, 56
15, 27719, Note_on_c, 14, 50, 108
15, 27800, Note_off_c, 14, 50, 56
15, 27840, Note_on_c, 14, 47, 108
15, 27921, Note_off_c, 14, 47, 56
15, 27961, Note_on_c, 14, 50, 108
15, 28042, Note_off_c, 14, 50, 56
15, 28080, Note_on_c, 14, 47, 108
15, 28161, Note_off_c, 14, 47, 56
15, 28200, Note_on_c, 14, 43, 108
15, 28281, Note_off_c, 14, 43, 56
15, 28321, Note_on_c, 14, 41, 108
15, 28402, Note_off_c, 14, 41, 56
15, 28440, Note_on_c, 14, 38, 108
15, 28521, Note_off_c, 14, 38, 56
15, 28561, Note_on_c, 14, 35, 108
15, 28642, Note_off_c, 14, 35, 56
15, 28679, Note_on_c, 14, 38, 108
15, 28760, Note_off_c, 14, 38, 56
15, 28801, Note_on_c, 14, 31, 108
15, 28964, Note_off_c, 14, 31, 64
15, 29757, Note_on_c, 14, 36, 108
15, 30275, Note_off_c, 14, 36, 64
15, 30359, Note_on_c, 14, 36, 108
15, 30440, Note_off_c, 14, 36, 56
15, 30481, Note_on_c, 14, 40, 108
15, 30562, Note_off_c, 14, 40, 56
15, 30601, Note_on_c, 14, 31, 108
15, 30682, Note_off_c, 14, 31, 56
15, 30720, Note_on_c, 14, 36, 108
15, 30801, Note_off_c, 14, 36, 56
15, 30841, Note_on_c, 14, 40, 108
15, 30922, Note_off_c, 14, 40, 56
15, 30961, Note_on_c, 14, 43, 108
15, 31042, Note_off_c, 14, 43, 56
15, 31079, Note_on_c, 14, 48, 108
15, 31160, Note_off_c, 14, 48, 56
15, 31199, Note_on_c, 14, 52, 108
15, 31280, Note_off_c, 14, 52, 56
15, 31319, Note_on_c, 14, 48, 108
15, 31400, Note_off_c, 14, 48, 56
15, 31439, Note_on_c, 14, 43, 108
15, 31520, Note_off_c, 14, 43, 56
15, 31560, Note_on_c, 14, 40, 108
15, 31641, Note_off_c, 14, 40, 56
15, 31680, Note_on_c, 14, 36, 108
15, 31761, Note_off_c, 14, 36, 56
15, 31799, Note_on_c, 14, 35, 108
15, 31880, Note_off_c, 14, 35, 56
15, 31920, Note_on_c, 14, 36, 108
15, 32001, Note_off_c, 14, 36, 56
15, 32041, Note_on_c, 14, 36, 108
15, 32122, Note_off_c, 14, 36, 56
15, 32161, Note_on_c, 14, 36, 108
15, 32679, Note_off_c, 14, 36, 64
15, 32761, Note_on_c, 14, 35, 74
15, 32842, Note_off_c, 14, 35, 56
15, 32881, Note_on_c, 14, 36, 71
15, 32962, Note_off_c, 14, 36, 56
15, 33000, Note_on_c, 14, 36, 71
15, 33081, Note_off_c, 14, 36, 56
15, 33118, Note_on_c, 14, 36, 71
15, 33636, Note_off_c, 14, 36, 64
15, 33719, Note_on_c, 14, 38, 108
15, 33800, Note_off_c, 14, 38, 56
15, 33839, Note_on_c, 14, 38, 108
15, 33920, Note_off_c, 14, 38, 56
15, 33960, Note_on_c, 14, 38, 108
15, 34586, Note_off_c, 14, 38, 64
15, 34681, Note_on_c, 14, 37, 108
15, 34762, Note_off_c, 14, 37, 56
15, 34800, Note_on_c, 14, 38, 108
15, 34881, Note_off_c, 14, 38, 56
15, 34919, Note_on_c, 14, 38, 108
15, 35000, Note_off_c, 14, 38, 56
15, 35037, Note_on_c, 14, 38, 108
15, 35555, Note_off_c, 14, 38, 64
15, 35639, Note_on_c, 14, 37, 108
15, 35720, Note_off_c, 14, 37, 56
15, 35761, Note_on_c, 14, 38, 108
15, 35842, Note_off_c, 14, 38, 56
15, 35879, Note_on_c, 14, 38, 108
15, 35960, Note_off_c, 14, 38, 56
15, 35999, Note_on_c, 14, 38, 108
15, 36517, Note_off_c, 14, 38, 64
15, 36720, Note_on_c, 14, 37, 108
15, 36801, Note_off_c, 14, 37, 56
15, 36841, Note_on_c, 14, 38, 108
15, 36922, Note_off_c, 14, 38, 56
15, 36960, Note_on_c, 14, 38, 108
15, 37041, Note_off_c, 14, 38, 56
15, 37079, Note_on_c, 14, 38, 108
15, 37160, Note_off_c, 14, 38, 56
15, 37200, Note_on_c, 14, 37, 108
15, 37281, Note_off_c, 14, 37, 56
15, 37319, Note_on_c, 14, 38, 108
15, 37400, Note_off_c, 14, 38, 56
15, 37440, Note_on_c, 14, 38, 108
15, 37521, Note_off_c, 14, 38, 56
15, 37561, Note_on_c, 14, 37, 108
15, 37642, Note_off_c, 14, 37, 56
15, 37679, Note_on_c, 14, 38, 108
15, 37760, Note_off_c, 14, 38, 56
15, 37799, Note_on_c, 14, 38, 108
15, 37880, Note_off_c, 14, 38, 56
15, 37919, Note_on_c, 14, 38, 108
15, 38000, Note_off_c, 14, 38, 56
15, 38039, Note_on_c, 14, 37, 108
15, 38120, Note_off_c, 14, 37, 56
15, 38161, Note_on_c, 14, 38, 108
15, 38242, Note_off_c, 14, 38, 56
15, 38281, Note_on_c, 14, 38, 108
15, 38362, Note_off_c, 14, 38, 56
15, 38401, Note_on_c, 14, 38, 108
15, 38482, Note_off_c, 14, 38, 56
15, 38521, Note_on_c, 14, 50, 108
15, 38602, Note_off_c, 14, 50, 56
15, 38640, Note_on_c, 14, 48, 108
15, 38721, Note_off_c, 14, 48, 56
15, 38759, Note_on_c, 14, 47, 108
15, 38820, Note_off_c, 14, 47, 56
15, 38881, Note_on_c, 14, 45, 108
15, 38942, Note_off_c, 14, 45, 56
15, 39000, Note_on_c, 14, 47, 108
15, 39081, Note_off_c, 14, 47, 56
15, 39120, Note_on_c, 14, 45, 108
15, 39201, Note_off_c, 14, 45, 56
15, 39240, Note_on_c, 14, 43, 108
15, 39321, Note_off_c, 14, 43, 56
15, 39361, Note_on_c, 14, 42, 108
15, 39422, Note_off_c, 14, 42, 56
15, 39479, Note_on_c, 14, 43, 108
15, 39560, Note_off_c, 14, 43, 56
15, 39599, Note_on_c, 14, 42, 108
15, 39680, Note_off_c, 14, 42, 56
15, 39721, Note_on_c, 14, 40, 108
15, 39782, Note_off_c, 14, 40, 56
15, 39839, Note_on_c, 14, 38, 108
15, 39900, Note_off_c, 14, 38, 56
15, 39959, Note_on_c, 14, 38, 108
15, 40040, Note_off_c, 14, 38, 56
15, 40081, Note_on_c, 14, 40, 108
15, 40162, Note_off_c, 14, 40, 56
15, 40200, Note_on_c, 14, 33, 108
15, 40261, Note_off_c, 14, 33, 56
15, 40321, Note_on_c, 14, 38, 108
15, 40402, Note_off_c, 14, 38, 56
15, 41399, Note_on_c, 14, 38, 108
15, 41480, Note_off_c, 14, 38, 56
15, 41519, Note_on_c, 14, 36, 108
15, 41600, Note_off_c, 14, 36, 56
15, 41641, Note_on_c, 14, 45, 108
15, 41702, Note_off_c, 14, 45, 56
15, 41760, Note_on_c, 14, 36, 108
15, 41841, Note_off_c, 14, 36, 56
15, 41881, Note_on_c, 14, 35, 108
15, 41962, Note_off_c, 14, 35, 56
15, 41999, Note_on_c, 14, 33, 108
15, 42080, Note_off_c, 14, 33, 56
15, 42119, Note_on_c, 14, 42, 108
15, 42200, Note_off_c, 14, 42, 56
15, 42243, Note_on_c, 14, 31, 108
15, 42406, Note_off_c, 14, 31, 64
15, 42722, Note_on_c, 14, 31, 108
15, 42885, Note_off_c, 14, 31, 64
15, 43201, Note_on_c, 14, 31, 108
15, 43364, Note_off_c, 14, 31, 64
15, 43439, Note_on_c, 14, 38, 113
15, 43493, Note_off_c, 14, 38, 56
15, 43521, Note_on_c, 14, 40, 113
15, 43575, Note_off_c, 14, 40, 56
15, 43600, Note_on_c, 14, 42, 113
15, 43654, Note_off_c, 14, 42, 56
15, 43682, Note_on_c, 14, 43, 108
15, 43845, Note_off_c, 14, 43, 64
15, 45361, Note_on_c, 14, 42, 79
15, 45415, Note_off_c, 14, 42, 56
15, 45439, Note_on_c, 14, 43, 83
15, 45493, Note_off_c, 14, 43, 56
15, 45519, Note_on_c, 14, 45, 86
15, 45573, Note_off_c, 14, 45, 56
15, 45603, Note_on_c, 14, 38, 85
15, 45766, Note_off_c, 14, 38, 64
15, 45840, Note_on_c, 14, 36, 95
15, 45894, Note_off_c, 14, 36, 56
15, 45920, Note_on_c, 14, 35, 95
15, 45974, Note_off_c, 14, 35, 56
15, 45999, Note_on_c, 14, 33, 95
15, 46053, Note_off_c, 14, 33, 56
15, 46083, Note_on_c, 14, 31, 90
15, 46246, Note_off_c, 14, 31, 64
15, 46558, Note_on_c, 14, 31, 90
15, 46721, Note_off_c, 14, 31, 64
15, 47040, Note_on_c, 14, 31, 90
15, 47203, Note_off_c, 14, 31, 64
15, 47280, Note_on_c, 14, 38, 95
15, 47334, Note_off_c, 14, 38, 56
15, 47361, Note_on_c, 14, 40, 95
15, 47415, Note_off_c, 14, 40, 56
15, 47439, Note_on_c, 14, 42, 95
15, 47493, Note_off_c, 14, 42, 56
15, 47520, Note_on_c, 14, 43, 90
15, 47683, Note_off_c, 14, 43, 64
15, 49200, Note_on_c, 14, 38, 95
15, 49254, Note_off_c, 14, 38, 56
15, 49280, Note_on_c, 14, 40, 95
15, 49334, Note_off_c, 14, 40, 56
15, 49360, Note_on_c, 14, 42, 95
15, 49414, Note_off_c, 14, 42, 56
15, 49437, Note_on_c, 14, 43, 90
15, 49600, Note_off_c, 14, 43, 64
15, 51121, Note_on_c, 14, 40, 95
15, 51175, Note_off_c, 14, 40, 56
15, 51201, Note_on_c, 14, 42, 95
15, 51255, Note_off_c, 14, 42, 56
15, 51281, Note_on_c, 14, 44, 95
15, 51335, Note_off_c, 14, 44, 56
15, 51360, Note_on_c, 14, 45, 90
15, 51523, Note_off_c, 14, 45, 64
15, 51602, Note_on_c, 14, 36, 56
15, 51765, Note_off_c, 14, 36, 64
15, 51840, Note_on_c, 14, 35, 56
15, 52185, Note_off_c, 14, 35, 64
15, 52323, Note_on_c, 14, 36, 56
15, 52668, Note_off_c, 14, 36, 64
15, 52799, Note_on_c, 14, 31, 56
15, 52880, Note_off_c, 14, 31, 56
15, 52919, Note_on_c, 14, 43, 59
15, 53000, Note_off_c, 14, 43, 56
15, 53039, Note_on_c, 14, 43, 62
15, 53120, Note_off_c, 14, 43, 56
15, 53160, Note_on_c, 14, 43, 65
15, 53241, Note_off_c, 14, 43, 56
15, 53280, Note_on_c, 14, 43, 69
15, 53361, Note_off_c, 14, 43, 56
15, 53401, Note_on_c, 14, 43, 72
15, 53482, Note_off_c, 14, 43, 56
15, 53521, Note_on_c, 14, 43, 75
15, 53602, Note_off_c, 14, 43, 56
15, 53640, Note_on_c, 14, 43, 79
15, 53721, Note_off_c, 14, 43, 56
15, 53760, Note_on_c, 14, 43, 81
15, 53841, Note_off_c, 14, 43, 56
15, 53881, Note_on_c, 14, 43, 85
15, 53962, Note_off_c, 14, 43, 56
15, 54001, Note_on_c, 14, 43, 88
15, 54082, Note_off_c, 14, 43, 56
15, 54119, Note_on_c, 14, 43, 92
15, 54200, Note_off_c, 14, 43, 56
15, 54240, Note_on_c, 14, 43, 95
15, 54321, Note_off_c, 14, 43, 56
15, 54359, Note_on_c, 14, 43, 98
15, 54440, Note_off_c, 14, 43, 56
15, 54480, Note_on_c, 14, 43, 101
15, 54561, Note_off_c, 14, 43, 56
15, 54601, Note_on_c, 14, 43, 104
15, 54682, Note_off_c, 14, 43, 56
15, 54718, Note_on_c, 14, 36, 108
15, 55236, Note_off_c, 14, 36, 64
15, 55320, Note_on_c, 14, 36, 108
15, 55401, Note_off_c, 14, 36, 56
15, 55441, Note_on_c, 14, 36, 108
15, 55522, Note_off_c, 14, 36, 56
15, 55560, Note_on_c, 14, 36, 108
15, 55641, Note_off_c, 14, 36, 56
15, 55680, Note_on_c, 14, 36, 108
15, 55761, Note_off_c, 14, 36, 56
15, 55801, Note_on_c, 14, 36, 108
15, 55882, Note_off_c, 14, 36, 56
15, 55920, Note_on_c, 14, 36, 108
15, 56001, Note_off_c, 14, 36, 56
15, 56041, Note_on_c, 14, 36, 108
15, 56122, Note_off_c, 14, 36, 56
15, 56161, Note_on_c, 14, 36, 108
15, 56242, Note_off_c, 14, 36, 56
15, 56279, Note_on_c, 14, 36, 108
15, 56360, Note_off_c, 14, 36, 56
15, 56399, Note_on_c, 14, 36, 108
15, 56480, Note_off_c, 14, 36, 56
15, 56520, Note_on_c, 14, 36, 108
15, 56601, Note_off_c, 14, 36, 56
15, 56640, Note_on_c, 14, 36, 108
15, 56721, Note_off_c, 14, 36, 56
15, 56761, Note_on_c, 14, 36, 108
15, 56842, Note_off_c, 14, 36, 56
15, 56880, Note_on_c, 14, 37, 108
15, 56961, Note_off_c, 14, 37, 56
15, 57001, Note_on_c, 14, 37, 108
15, 57082, Note_off_c, 14, 37, 56
15, 57121, Note_on_c, 14, 38, 108
15, 57202, Note_off_c, 14, 38, 56
15, 57240, Note_on_c, 14, 38, 108
15, 57321, Note_off_c, 14, 38, 56
15, 57361, Note_on_c, 14, 39, 108
15, 57442, Note_off_c, 14, 39, 56
15, 57479, Note_on_c, 14, 39, 108
15, 57560, Note_off_c, 14, 39, 56
15, 57600, Note_on_c, 14, 40, 108
15, 57681, Note_off_c, 14, 40, 56
15, 57721, Note_on_c, 14, 40, 108
15, 57802, Note_off_c, 14, 40, 56
15, 57839, Note_on_c, 14, 42, 108
15, 57920, Note_off_c, 14, 42, 56
15, 57960, Note_on_c, 14, 42, 108
15, 58041, Note_off_c, 14, 42, 56
15, 58080, Note_on_c, 14, 43, 108
15, 58161, Note_off_c, 14, 43, 56
15, 58200, Note_on_c, 14, 31, 108
15, 58281, Note_off_c, 14, 31, 56
15, 58319, Note_on_c, 14, 33, 108
15, 58400, Note_off_c, 14, 33, 56
15, 58440, Note_on_c, 14, 35, 108
15, 58521, Note_off_c, 14, 35, 56
15, 58561, Note_on_c, 14, 36, 108
15, 58683, Note_off_c, 14, 36, 64
15, 59522, Note_on_c, 14, 38, 108
15, 59644, Note_off_c, 14, 38, 64
15, 68161, Note_on_c, 14, 35, 90
15, 68679, Note_off_c, 14, 35, 64
15, 68883, Note_on_c, 14, 33, 90
15, 69046, Note_off_c, 14, 33, 64
15, 69122, Note_on_c, 14, 31, 90
15, 69285, Note_off_c, 14, 31, 64
15, 69360, Note_on_c, 14, 30, 90
15, 69523, Note_off_c, 14, 30, 64
15, 69602, Note_on_c, 14, 30, 90
15, 69765, Note_off_c, 14, 30, 64
15, 69837, Note_on_c, 14, 30, 90
15, 70000, Note_off_c, 14, 30, 64
15, 70079, Note_on_c, 14, 35, 96
15, 70597, Note_off_c, 14, 35, 64
15, 70797, Note_on_c, 14, 33, 90
15, 70960, Note_off_c, 14, 33, 64
15, 71039, Note_on_c, 14, 31, 90
15, 71202, Note_off_c, 14, 31, 64
15, 71281, Note_on_c, 14, 30, 90
15, 71444, Note_off_c, 14, 30, 64
15, 71520, Note_on_c, 14, 30, 90
15, 71683, Note_off_c, 14, 30, 64
15, 71762, Note_on_c, 14, 30, 90
15, 71925, Note_off_c, 14, 30, 64
15, 72003, Note_on_c, 14, 30, 90
15, 72521, Note_off_c, 14, 30, 64
15, 72721, Note_on_c, 14, 31, 94
15, 72884, Note_off_c, 14, 31, 64
15, 72962, Note_on_c, 14, 36, 95
15, 73125, Note_off_c, 14, 36, 64
15, 73198, Note_on_c, 14, 36, 96
15, 73361, Note_off_c, 14, 36, 64
15, 73437, Note_on_c, 14, 36, 97
15, 73600, Note_off_c, 14, 36, 64
15, 73680, Note_on_c, 14, 36, 98
15, 73843, Note_off_c, 14, 36, 64
15, 73919, Note_on_c, 14, 36, 98
15, 74082, Note_off_c, 14, 36, 64
15, 74158, Note_on_c, 14, 36, 100
15, 74321, Note_off_c, 14, 36, 64
15, 74401, Note_on_c, 14, 36, 101
15, 74564, Note_off_c, 14, 36, 64
15, 74637, Note_on_c, 14, 36, 102
15, 74800, Note_off_c, 14, 36, 64
15, 74883, Note_on_c, 14, 36, 103
15, 75046, Note_off_c, 14, 36, 64
15, 75123, Note_on_c, 14, 36, 104
15, 75286, Note_off_c, 14, 36, 64
15, 75363, Note_on_c, 14, 36, 105
15, 75526, Note_off_c, 14, 36, 64
15, 75601, Note_on_c, 14, 36, 106
15, 75764, Note_off_c, 14, 36, 64
15, 75840, Note_on_c, 14, 29, 108
15, 75901, Note_off_c, 14, 29, 56
15, 75961, Note_on_c, 14, 24, 108
15, 76022, Note_off_c, 14, 24, 56
15, 76079, Note_on_c, 14, 32, 108
15, 76140, Note_off_c, 14, 32, 56
15, 76200, Note_on_c, 14, 29, 108
15, 76281, Note_off_c, 14, 29, 56
15, 76321, Note_on_c, 14, 32, 108
15, 76382, Note_off_c, 14, 32, 56
15, 76441, Note_on_c, 14, 29, 108
15, 76502, Note_off_c, 14, 29, 56
15, 76560, Note_on_c, 14, 36, 108
15, 76641, Note_off_c, 14, 36, 56
15, 76679, Note_on_c, 14, 32, 108
15, 76760, Note_off_c, 14, 32, 56
15, 76801, Note_on_c, 14, 36, 108
15, 76862, Note_off_c, 14, 36, 56
15, 76920, Note_on_c, 14, 32, 108
15, 76981, Note_off_c, 14, 32, 56
15, 77039, Note_on_c, 14, 41, 108
15, 77100, Note_off_c, 14, 41, 56
15, 77159, Note_on_c, 14, 36, 108
15, 77240, Note_off_c, 14, 36, 56
15, 77279, Note_on_c, 14, 41, 108
15, 77360, Note_off_c, 14, 41, 56
15, 77400, Note_on_c, 14, 36, 108
15, 77461, Note_off_c, 14, 36, 56
15, 77519, Note_on_c, 14, 44, 108
15, 77600, Note_off_c, 14, 44, 56
15, 77640, Note_on_c, 14, 41, 108
15, 77721, Note_off_c, 14, 41, 56
15, 77757, Note_on_c, 14, 43, 108
15, 79485, Note_off_c, 14, 43, 64
15, 79681, Note_on_c, 14, 50, 108
15, 79762, Note_off_c, 14, 50, 56
15, 79799, Note_on_c, 14, 53, 108
15, 79880, Note_off_c, 14, 53, 56
15, 79920, Note_on_c, 14, 47, 108
15, 80001, Note_off_c, 14, 47, 56
15, 80041, Note_on_c, 14, 50, 108
15, 80122, Note_off_c, 14, 50, 56
15, 80159, Note_on_c, 14, 43, 108
15, 80240, Note_off_c, 14, 43, 56
15, 80280, Note_on_c, 14, 47, 108
15, 80361, Note_off_c, 14, 47, 56
15, 80400, Note_on_c, 14, 41, 108
15, 80481, Note_off_c, 14, 41, 56
15, 80521, Note_on_c, 14, 43, 108
15, 80602, Note_off_c, 14, 43, 56
15, 80639, Note_on_c, 14, 38, 108
15, 80720, Note_off_c, 14, 38, 56
15, 80760, Note_on_c, 14, 41, 108
15, 80841, Note_off_c, 14, 41, 56
15, 80881, Note_on_c, 14, 35, 108
15, 80962, Note_off_c, 14, 35, 56
15, 80999, Note_on_c, 14, 38, 108
15, 81080, Note_off_c, 14, 38, 56
15, 81121, Note_on_c, 14, 31, 108
15, 81202, Note_off_c, 14, 31, 56
15, 81240, Note_on_c, 14, 43, 108
15, 81321, Note_off_c, 14, 43, 56
15, 81360, Note_on_c, 14, 43, 108
15, 81441, Note_off_c, 14, 43, 56
15, 81480, Note_on_c, 14, 43, 108
15, 81561, Note_off_c, 14, 43, 56
15, 81603, Note_on_c, 14, 36, 108
15, 81766, Note_off_c, 14, 36, 64
15, 82079, Note_on_c, 14, 36, 108
15, 82242, Note_off_c, 14, 36, 64
15, 82558, Note_on_c, 14, 36, 108
15, 83076, Note_off_c, 14, 36, 64
15, 83281, Note_on_c, 14, 31, 108
15, 83362, Note_off_c, 14, 31, 56
15, 83520, Note_on_c, 14, 36, 108
15, 83601, Note_off_c, 14, 36, 56
15, 83759, Note_on_c, 14, 31, 108
15, 83840, Note_off_c, 14, 31, 56
15, 84001, Note_on_c, 14, 36, 108
15, 84082, Note_off_c, 14, 36, 56
15, 84241, Note_on_c, 14, 31, 108
15, 84322, Note_off_c, 14, 31, 56
15, 84479, Note_on_c, 14, 36, 108
15, 84997, Note_off_c, 14, 36, 64
15, 85198, Note_on_c, 14, 36, 108
15, 85320, Note_off_c, 14, 36, 64
15, 85380, Note_on_c, 14, 36, 113
15, 85420, Note_off_c, 14, 36, 56
15, 85442, Note_on_c, 14, 31, 108
15, 85960, Note_off_c, 14, 31, 64
15, 86160, Note_on_c, 14, 31, 108
15, 86282, Note_off_c, 14, 31, 64
15, 86340, Note_on_c, 14, 31, 113
15, 86380, Note_off_c, 14, 31, 56
15, 86403, Note_on_c, 14, 36, 108
15, 87171, Note_off_c, 14, 36, 64
15, 87363, Note_on_c, 14, 33, 108
15, 87708, Note_off_c, 14, 33, 64
15, 87841, Note_on_c, 14, 29, 108
15, 88186, Note_off_c, 14, 29, 64
15, 88319, Note_on_c, 14, 28, 108
15, 88400, Note_off_c, 14, 28, 56
15, 88440, Note_on_c, 14, 29, 108
15, 88521, Note_off_c, 14, 29, 56
15, 88560, Note_on_c, 14, 28, 108
15, 88641, Note_off_c, 14, 28, 56
15, 88679, Note_on_c, 14, 26, 108
15, 88760, Note_off_c, 14, 26, 56
15, 88803, Note_on_c, 14, 24, 108
15, 89148, Note_off_c, 14, 24, 64
15, 89283, Note_on_c, 14, 33, 108
15, 89628, Note_off_c, 14, 33, 64
15, 89757, Note_on_c, 14, 29, 108
15, 90102, Note_off_c, 14, 29, 64
15, 90240, Note_on_c, 14, 28, 108
15, 90321, Note_off_c, 14, 28, 56
15, 90359, Note_on_c, 14, 29, 108
15, 90440, Note_off_c, 14, 29, 56
15, 90479, Note_on_c, 14, 28, 108
15, 90560, Note_off_c, 14, 28, 56
15, 90601, Note_on_c, 14, 26, 108
15, 90682, Note_off_c, 14, 26, 56
15, 90718, Note_on_c, 14, 24, 108
15, 91063, Note_off_c, 14, 24, 64
15, 91201, Note_on_c, 14, 33, 108
15, 91546, Note_off_c, 14, 33, 64
15, 91683, Note_on_c, 14, 29, 108
15, 92028, Note_off_c, 14, 29, 64
15, 92161, Note_on_c, 14, 28, 108
15, 92242, Note_off_c, 14, 28, 56
15, 92281, Note_on_c, 14, 29, 108
15, 92362, Note_off_c, 14, 29, 56
15, 92399, Note_on_c, 14, 28, 108
15, 92480, Note_off_c, 14, 28, 56
15, 92520, Note_on_c, 14, 26, 108
15, 92601, Note_off_c, 14, 26, 56
15, 92642, Note_on_c, 14, 24, 108
15, 92805, Note_off_c, 14, 24, 64
15, 92878, Note_on_c, 14, 36, 108
15, 93000, Note_off_c, 14, 36, 64
15, 93060, Note_on_c, 14, 36, 113
15, 93100, Note_off_c, 14, 36, 56
15, 93123, Note_on_c, 14, 35, 108
15, 93468, Note_off_c, 14, 35, 64
15, 93597, Note_on_c, 14, 36, 108
15, 93942, Note_off_c, 14, 36, 64
15, 94077, Note_on_c, 14, 31, 108
15, 94240, Note_off_c, 14, 31, 64
15, 94321, Note_on_c, 14, 31, 108
15, 94666, Note_off_c, 14, 31, 64
15, 94802, Note_on_c, 14, 36, 108
15, 94924, Note_off_c, 14, 36, 64
15, 94980, Note_on_c, 14, 36, 113
15, 95020, Note_off_c, 14, 36, 56
15, 95041, Note_on_c, 14, 35, 108
15, 95386, Note_off_c, 14, 35, 64
15, 95519, Note_on_c, 14, 36, 108
15, 95864, Note_off_c, 14, 36, 64
15, 96002, Note_on_c, 14, 31, 108
15, 96165, Note_off_c, 14, 31, 64
15, 96243, Note_on_c, 14, 31, 108
15, 96588, Note_off_c, 14, 31, 64
15, 96720, Note_on_c, 14, 36, 108
15, 96842, Note_off_c, 14, 36, 64
15, 96900, Note_on_c, 14, 36, 113
15, 96940, Note_off_c, 14, 36, 56
15, 96959, Note_on_c, 14, 35, 108
15, 97081, Note_off_c, 14, 35, 64
15, 97140, Note_on_c, 14, 35, 113
15, 97180, Note_off_c, 14, 35, 56
15, 97198, Note_on_c, 14, 31, 108
15, 97320, Note_off_c, 14, 31, 64
15, 97380, Note_on_c, 14, 31, 113
15, 97420, Note_off_c, 14, 31, 56
15, 97440, Note_on_c, 14, 36, 108
15, 97562, Note_off_c, 14, 36, 64
15, 97620, Note_on_c, 14, 36, 113
15, 97660, Note_off_c, 14, 36, 56
15, 97679, Note_on_c, 14, 40, 108
15, 97801, Note_off_c, 14, 40, 64
15, 97860, Note_on_c, 14, 40, 113
15, 97900, Note_off_c, 14, 40, 56
15, 97919, Note_on_c, 14, 43, 108
15, 98000, Note_off_c, 14, 43, 56
15, 98041, Note_on_c, 14, 31, 108
15, 98122, Note_off_c, 14, 31, 56
15, 98159, Note_on_c, 14, 31, 108
15, 98322, Note_off_c, 14, 31, 64
15, 99001, Note_on_c, 14, 31, 108
15, 99082, Note_off_c, 14, 31, 56
15, 99118, Note_on_c, 14, 31, 108
15, 99281, Note_off_c, 14, 31, 64
15, 99960, Note_on_c, 14, 31, 108
15, 100041, Note_off_c, 14, 31, 56
15, 100078, Note_on_c, 14, 31, 108
15, 100241, Note_off_c, 14, 31, 64
15, 100441, Note_on_c, 14, 31, 108
15, 100522, Note_off_c, 14, 31, 56
15, 100557, Note_on_c, 14, 31, 108
15, 100720, Note_off_c, 14, 31, 64
15, 100921, Note_on_c, 14, 31, 108
15, 101002, Note_off_c, 14, 31, 56
15, 101037, Note_on_c, 14, 31, 108
15, 101200, Note_off_c, 14, 31, 64
15, 101399, Note_on_c, 14, 31, 108
15, 101480, Note_off_c, 14, 31, 56
15, 101520, Note_on_c, 14, 31, 108
15, 101683, Note_off_c, 14, 31, 64
15, 101760, Note_on_c, 14, 31, 108
15, 101923, Note_off_c, 14, 31, 64
15, 104759, Note_on_c, 14, 48, 108
15, 104840, Note_off_c, 14, 48, 56
15, 104879, Note_on_c, 14, 47, 108
15, 104960, Note_off_c, 14, 47, 56
15, 104999, Note_on_c, 14, 45, 108
15, 105080, Note_off_c, 14, 45, 56
15, 105120, Note_on_c, 14, 43, 108
15, 105181, Note_off_c, 14, 43, 56
15, 105240, Note_on_c, 14, 41, 108
15, 105301, Note_off_c, 14, 41, 56
15, 105359, Note_on_c, 14, 40, 108
15, 105420, Note_off_c, 14, 40, 56
15, 105479, Note_on_c, 14, 38, 108
15, 105540, Note_off_c, 14, 38, 56
15, 105602, Note_on_c, 14, 36, 108
15, 105765, Note_off_c, 14, 36, 64
15, 107518, Note_on_c, 14, 31, 108
15, 108036, Note_off_c, 14, 31, 64
15, 108120, Note_on_c, 14, 31, 108
15, 108201, Note_off_c, 14, 31, 56
15, 108240, Note_on_c, 14, 35, 108
15, 108301, Note_off_c, 14, 35, 56
15, 108360, Note_on_c, 14, 38, 108
15, 108421, Note_off_c, 14, 38, 56
15, 108479, Note_on_c, 14, 41, 108
15, 108540, Note_off_c, 14, 41, 56
15, 108601, Note_on_c, 14, 43, 108
15, 108662, Note_off_c, 14, 43, 56
15, 108719, Note_on_c, 14, 47, 108
15, 108780, Note_off_c, 14, 47, 56
15, 108839, Note_on_c, 14, 50, 108
15, 108920, Note_off_c, 14, 50, 56
15, 108960, Note_on_c, 14, 53, 108
15, 109041, Note_off_c, 14, 53, 56
15, 109080, Note_on_c, 14, 55, 108
15, 109161, Note_off_c, 14, 55, 56
15, 109201, Note_on_c, 14, 53, 108
15, 109282, Note_off_c, 14, 53, 56
15, 109321, Note_on_c, 14, 50, 108
15, 109402, Note_off_c, 14, 50, 56
15, 109440, Note_on_c, 14, 47, 108
15, 109521, Note_off_c, 14, 47, 56
15, 109560, Note_on_c, 14, 50, 108
15, 109641, Note_off_c, 14, 50, 56
15, 109679, Note_on_c, 14, 47, 108
15, 109760, Note_off_c, 14, 47, 56
15, 109800, Note_on_c, 14, 43, 108
15, 109881, Note_off_c, 14, 43, 56
15, 109921, Note_on_c, 14, 41, 108
15, 110002, Note_off_c, 14, 41, 56
15, 110040, Note_on_c, 14, 38, 108
15, 110121, Note_off_c, 14, 38, 56
15, 110159, Note_on_c, 14, 35, 108
15, 110240, Note_off_c, 14, 35, 56
15, 110279, Note_on_c, 14, 38, 108
15, 110360, Note_off_c, 14, 38, 56
15, 110397, Note_on_c, 14, 31, 108
15, 110560, Note_off_c, 14, 31, 64
15, 111362, Note_on_c, 14, 36, 108
15, 111880, Note_off_c, 14, 36, 64
15, 111960, Note_on_c, 14, 36, 108
15, 112041, Note_off_c, 14, 36, 56
15, 112080, Note_on_c, 14, 40, 108
15, 112161, Note_off_c, 14, 40, 56
15, 112200, Note_on_c, 14, 31, 108
15, 112281, Note_off_c, 14, 31, 56
15, 112320, Note_on_c, 14, 36, 108
15, 112401, Note_off_c, 14, 36, 56
15, 112440, Note_on_c, 14, 40, 108
15, 112521, Note_off_c, 14, 40, 56
15, 112559, Note_on_c, 14, 43, 108
15, 112640, Note_off_c, 14, 43, 56
15, 112681, Note_on_c, 14, 48, 108
15, 112762, Note_off_c, 14, 48, 56
15, 112801, Note_on_c, 14, 52, 108
15, 112882, Note_off_c, 14, 52, 56
15, 112921, Note_on_c, 14, 48, 108
15, 113002, Note_off_c, 14, 48, 56
15, 113039, Note_on_c, 14, 43, 108
15, 113120, Note_off_c, 14, 43, 56
15, 113159, Note_on_c, 14, 40, 108
15, 113240, Note_off_c, 14, 40, 56
15, 113279, Note_on_c, 14, 36, 108
15, 113360, Note_off_c, 14, 36, 56
15, 113399, Note_on_c, 14, 35, 108
15, 113480, Note_off_c, 14, 35, 56
15, 113520, Note_on_c, 14, 36, 108
15, 113601, Note_off_c, 14, 36, 56
15, 113639, Note_on_c, 14, 36, 108
15, 113720, Note_off_c, 14, 36, 56
15, 113759, Note_on_c, 14, 36, 108
15, 114277, Note_off_c, 14, 36, 64
15, 114360, Note_on_c, 14, 35, 74
15, 114441, Note_off_c, 14, 35, 56
15, 114479, Note_on_c, 14, 36, 71
15, 114560, Note_off_c, 14, 36, 56
15, 114599, Note_on_c, 14, 36, 71
15, 114680, Note_off_c, 14, 36, 56
15, 114720, Note_on_c, 14, 36, 71
15, 115238, Note_off_c, 14, 36, 64
15, 115320, Note_on_c, 14, 38, 108
15, 115401, Note_off_c, 14, 38, 56
15, 115440, Note_on_c, 14, 38, 108
15, 115521, Note_off_c, 14, 38, 56
15, 115557, Note_on_c, 14, 38, 108
15, 116183, Note_off_c, 14, 38, 64
15, 116280, Note_on_c, 14, 37, 108
15, 116361, Note_off_c, 14, 37, 56
15, 116401, Note_on_c, 14, 38, 108
15, 116482, Note_off_c, 14, 38, 56
15, 116519, Note_on_c, 14, 38, 108
15, 116600, Note_off_c, 14, 38, 56
15, 116638, Note_on_c, 14, 38, 108
15, 117156, Note_off_c, 14, 38, 64
15, 117239, Note_on_c, 14, 37, 108
15, 117320, Note_off_c, 14, 37, 56
15, 117361, Note_on_c, 14, 38, 108
15, 117442, Note_off_c, 14, 38, 56
15, 117479, Note_on_c, 14, 38, 108
15, 117560, Note_off_c, 14, 38, 56
15, 117599, Note_on_c, 14, 38, 108
15, 118117, Note_off_c, 14, 38, 64
15, 118320, Note_on_c, 14, 37, 108
15, 118401, Note_off_c, 14, 37, 56
15, 118440, Note_on_c, 14, 38, 108
15, 118521, Note_off_c, 14, 38, 56
15, 118561, Note_on_c, 14, 38, 108
15, 118642, Note_off_c, 14, 38, 56
15, 118681, Note_on_c, 14, 38, 108
15, 118762, Note_off_c, 14, 38, 56
15, 118799, Note_on_c, 14, 37, 108
15, 118880, Note_off_c, 14, 37, 56
15, 118919, Note_on_c, 14, 38, 108
15, 119000, Note_off_c, 14, 38, 56
15, 119041, Note_on_c, 14, 38, 108
15, 119122, Note_off_c, 14, 38, 56
15, 119159, Note_on_c, 14, 37, 108
15, 119240, Note_off_c, 14, 37, 56
15, 119280, Note_on_c, 14, 38, 108
15, 119361, Note_off_c, 14, 38, 56
15, 119400, Note_on_c, 14, 38, 108
15, 119481, Note_off_c, 14, 38, 56
15, 119520, Note_on_c, 14, 38, 108
15, 119601, Note_off_c, 14, 38, 56
15, 119641, Note_on_c, 14, 37, 108
15, 119722, Note_off_c, 14, 37, 56
15, 119759, Note_on_c, 14, 38, 108
15, 119840, Note_off_c, 14, 38, 56
15, 119880, Note_on_c, 14, 38, 108
15, 119961, Note_off_c, 14, 38, 56
15, 120000, Note_on_c, 14, 38, 108
15, 120081, Note_off_c, 14, 38, 56
15, 120121, Note_on_c, 14, 50, 108
15, 120202, Note_off_c, 14, 50, 56
15, 120239, Note_on_c, 14, 48, 108
15, 120320, Note_off_c, 14, 48, 56
15, 120361, Note_on_c, 14, 47, 108
15, 120422, Note_off_c, 14, 47, 56
15, 120479, Note_on_c, 14, 45, 108
15, 120540, Note_off_c, 14, 45, 56
15, 120600, Note_on_c, 14, 47, 108
15, 120681, Note_off_c, 14, 47, 56
15, 120719, Note_on_c, 14, 45, 108
15, 120800, Note_off_c, 14, 45, 56
15, 120840, Note_on_c, 14, 43, 108
15, 120921, Note_off_c, 14, 43, 56
15, 120960, Note_on_c, 14, 42, 108
15, 121021, Note_off_c, 14, 42, 56
15, 121080, Note_on_c, 14, 43, 108
15, 121161, Note_off_c, 14, 43, 56
15, 121200, Note_on_c, 14, 42, 108
15, 121281, Note_off_c, 14, 42, 56
15, 121320, Note_on_c, 14, 40, 108
15, 121381, Note_off_c, 14, 40, 56
15, 121441, Note_on_c, 14, 38, 108
15, 121502, Note_off_c, 14, 38, 56
15, 121560, Note_on_c, 14, 38, 108
15, 121641, Note_off_c, 14, 38, 56
15, 121680, Note_on_c, 14, 40, 108
15, 121761, Note_off_c, 14, 40, 56
15, 121801, Note_on_c, 14, 33, 108
15, 121862, Note_off_c, 14, 33, 56
15, 121919, Note_on_c, 14, 38, 108
15, 122000, Note_off_c, 14, 38, 56
15, 123001, Note_on_c, 14, 38, 108
15, 123082, Note_off_c, 14, 38, 56
15, 123119, Note_on_c, 14, 36, 108
15, 123200, Note_off_c, 14, 36, 56
15, 123241, Note_on_c, 14, 45, 108
15, 123302, Note_off_c, 14, 45, 56
15, 123359, Note_on_c, 14, 36, 108
15, 123440, Note_off_c, 14, 36, 56
15, 123479, Note_on_c, 14, 35, 108
15, 123560, Note_off_c, 14, 35, 56
15, 123600, Note_on_c, 14, 33, 108
15, 123681, Note_off_c, 14, 33, 56
15, 123721, Note_on_c, 14, 42, 108
15, 123802, Note_off_c, 14, 42, 56
15, 123843, Note_on_c, 14, 31, 108
15, 124006, Note_off_c, 14, 31, 64
15, 124320, Note_on_c, 14, 31, 108
15, 124483, Note_off_c, 14, 31, 64
15, 124799, Note_on_c, 14, 31, 108
15, 124962, Note_off_c, 14, 31, 64
15, 125039, Note_on_c, 14, 38, 113
15, 125093, Note_off_c, 14, 38, 56
15, 125121, Note_on_c, 14, 40, 113
15, 125175, Note_off_c, 14, 40, 56
15, 125201, Note_on_c, 14, 42, 113
15, 125255, Note_off_c, 14, 42, 56
15, 125282, Note_on_c, 14, 43, 108
15, 125445, Note_off_c, 14, 43, 64
15, 126959, Note_on_c, 14, 42, 79
15, 127013, Note_off_c, 14, 42, 56
15, 127041, Note_on_c, 14, 43, 83
15, 127095, Note_off_c, 14, 43, 56
15, 127119, Note_on_c, 14, 45, 86
15, 127173, Note_off_c, 14, 45, 56
15, 127202, Note_on_c, 14, 38, 85
15, 127365, Note_off_c, 14, 38, 64
15, 127441, Note_on_c, 14, 36, 95
15, 127495, Note_off_c, 14, 36, 56
15, 127519, Note_on_c, 14, 35, 95
15, 127573, Note_off_c, 14, 35, 56
15, 127600, Note_on_c, 14, 33, 95
15, 127654, Note_off_c, 14, 33, 56
15, 127678, Note_on_c, 14, 31, 90
15, 127841, Note_off_c, 14, 31, 64
15, 128158, Note_on_c, 14, 31, 90
15, 128321, Note_off_c, 14, 31, 64
15, 128637, Note_on_c, 14, 31, 90
15, 128800, Note_off_c, 14, 31, 64
15, 128879, Note_on_c, 14, 38, 95
15, 128933, Note_off_c, 14, 38, 56
15, 128959, Note_on_c, 14, 40, 95
15, 129013, Note_off_c, 14, 40, 56
15, 129039, Note_on_c, 14, 42, 95
15, 129093, Note_off_c, 14, 42, 56
15, 129118, Note_on_c, 14, 43, 90
15, 129281, Note_off_c, 14, 43, 64
15, 130800, Note_on_c, 14, 38, 95
15, 130854, Note_off_c, 14, 38, 56
15, 130879, Note_on_c, 14, 40, 95
15, 130933, Note_off_c, 14, 40, 56
15, 130961, Note_on_c, 14, 42, 95
15, 131015, Note_off_c, 14, 42, 56
15, 131038, Note_on_c, 14, 43, 90
15, 131201, Note_off_c, 14, 43, 64
15, 132721, Note_on_c, 14, 40, 95
15, 132775, Note_off_c, 14, 40, 56
15, 132801, Note_on_c, 14, 42, 95
15, 132855, Note_off_c, 14, 42, 56
15, 132880, Note_on_c, 14, 44, 95
15, 132934, Note_off_c, 14, 44, 56
15, 132962, Note_on_c, 14, 45, 90
15, 133125, Note_off_c, 14, 45, 64
15, 133203, Note_on_c, 14, 36, 56
15, 133366, Note_off_c, 14, 36, 64
15, 133441, Note_on_c, 14, 35, 56
15, 133786, Note_off_c, 14, 35, 64
15, 133918, Note_on_c, 14, 36, 56
15, 134263, Note_off_c, 14, 36, 64
15, 134401, Note_on_c, 14, 31, 56
15, 134482, Note_off_c, 14, 31, 56
15, 134520, Note_on_c, 14, 43, 59
15, 134601, Note_off_c, 14, 43, 56
15, 134641, Note_on_c, 14, 43, 62
15, 134722, Note_off_c, 14, 43, 56
15, 134760, Note_on_c, 14, 43, 65
15, 134841, Note_off_c, 14, 43, 56
15, 134879, Note_on_c, 14, 43, 69
15, 134960, Note_off_c, 14, 43, 56
15, 134999, Note_on_c, 14, 43, 72
15, 135080, Note_off_c, 14, 43, 56
15, 135120, Note_on_c, 14, 43, 75
15, 135201, Note_off_c, 14, 43, 56
15, 135241, Note_on_c, 14, 43, 79
15, 135322, Note_off_c, 14, 43, 56
15, 135359, Note_on_c, 14, 43, 81
15, 135440, Note_off_c, 14, 43, 56
15, 135480, Note_on_c, 14, 43, 85
15, 135561, Note_off_c, 14, 43, 56
15, 135601, Note_on_c, 14, 43, 88
15, 135682, Note_off_c, 14, 43, 56
15, 135719, Note_on_c, 14, 43, 92
15, 135800, Note_off_c, 14, 43, 56
15, 135840, Note_on_c, 14, 43, 95
15, 135921, Note_off_c, 14, 43, 56
15, 135960, Note_on_c, 14, 43, 98
15, 136041, Note_off_c, 14, 43, 56
15, 136079, Note_on_c, 14, 43, 101
15, 136160, Note_off_c, 14, 43, 56
15, 136201, Note_on_c, 14, 43, 104
15, 136282, Note_off_c, 14, 43, 56
15, 136318, Note_on_c, 14, 36, 108
15, 136836, Note_off_c, 14, 36, 64
15, 136920, Note_on_c, 14, 36, 108
15, 137001, Note_off_c, 14, 36, 56
15, 137039, Note_on_c, 14, 36, 108
15, 137120, Note_off_c, 14, 36, 56
15, 137160, Note_on_c, 14, 36, 108
15, 137241, Note_off_c, 14, 36, 56
15, 137279, Note_on_c, 14, 36, 108
15, 137360, Note_off_c, 14, 36, 56
15, 137401, Note_on_c, 14, 36, 108
15, 137482, Note_off_c, 14, 36, 56
15, 137520, Note_on_c, 14, 36, 108
15, 137601, Note_off_c, 14, 36, 56
15, 137639, Note_on_c, 14, 36, 108
15, 137720, Note_off_c, 14, 36, 56
15, 137759, Note_on_c, 14, 36, 108
15, 137840, Note_off_c, 14, 36, 56
15, 137880, Note_on_c, 14, 36, 108
15, 137961, Note_off_c, 14, 36, 56
15, 138000, Note_on_c, 14, 36, 108
15, 138081, Note_off_c, 14, 36, 56
15, 138119, Note_on_c, 14, 36, 108
15, 138200, Note_off_c, 14, 36, 56
15, 138241, Note_on_c, 14, 36, 108
15, 138322, Note_off_c, 14, 36, 56
15, 138359, Note_on_c, 14, 36, 108
15, 138440, Note_off_c, 14, 36, 56
15, 138481, Note_on_c, 14, 37, 108
15, 138562, Note_off_c, 14, 37, 56
15, 138600, Note_on_c, 14, 37, 108
15, 138681, Note_off_c, 14, 37, 56
15, 138720, Note_on_c, 14, 38, 108
15, 138801, Note_off_c, 14, 38, 56
15, 138839, Note_on_c, 14, 38, 108
15, 138920, Note_off_c, 14, 38, 56
15, 138961, Note_on_c, 14, 39, 108
15, 139042, Note_off_c, 14, 39, 56
15, 139081, Note_on_c, 14, 39, 108
15, 139162, Note_off_c, 14, 39, 56
15, 139199, Note_on_c, 14, 40, 108
15, 139280, Note_off_c, 14, 40, 56
15, 139319, Note_on_c, 14, 40, 108
15, 139400, Note_off_c, 14, 40, 56
15, 139441, Note_on_c, 14, 42, 108
15, 139522, Note_off_c, 14, 42, 56
15, 139561, Note_on_c, 14, 42, 108
15, 139642, Note_off_c, 14, 42, 56
15, 139680, Note_on_c, 14, 43, 108
15, 139761, Note_off_c, 14, 43, 56
15, 139801, Note_on_c, 14, 31, 108
15, 139882, Note_off_c, 14, 31, 56
15, 139919, Note_on_c, 14, 33, 108
15, 140000, Note_off_c, 14, 33, 56
15, 140040, Note_on_c, 14, 35, 108
15, 140121, Note_off_c, 14, 35, 56
15, 140158, Note_on_c, 14, 36, 108
15, 140280, Note_off_c, 14, 36, 64
15, 141122, Note_on_c, 14, 38, 108
15, 141244, Note_off_c, 14, 38, 64
15, 149761, Note_on_c, 14, 35, 90
15, 150279, Note_off_c, 14, 35, 64
15, 150477, Note_on_c, 14, 33, 90
15, 150640, Note_off_c, 14, 33, 64
15, 150722, Note_on_c, 14, 31, 90
15, 150885, Note_off_c, 14, 31, 64
15, 150957, Note_on_c, 14, 30, 90
15, 151120, Note_off_c, 14, 30, 64
15, 151201, Note_on_c, 14, 30, 90
15, 151364, Note_off_c, 14, 30, 64
15, 151438, Note_on_c, 14, 30, 90
15, 151601, Note_off_c, 14, 30, 64
15, 151680, Note_on_c, 14, 35, 96
15, 152198, Note_off_c, 14, 35, 64
15, 152402, Note_on_c, 14, 33, 90
15, 152565, Note_off_c, 14, 33, 64
15, 152638, Note_on_c, 14, 31, 90
15, 152801, Note_off_c, 14, 31, 64
15, 152877, Note_on_c, 14, 30, 90
15, 153040, Note_off_c, 14, 30, 64
15, 153120, Note_on_c, 14, 30, 90
15, 153283, Note_off_c, 14, 30, 64
15, 153358, Note_on_c, 14, 30, 90
15, 153521, Note_off_c, 14, 30, 64
15, 153597, Note_on_c, 14, 30, 90
15, 154115, Note_off_c, 14, 30, 64
15, 154323, Note_on_c, 14, 31, 94
15, 154486, Note_off_c, 14, 31, 64
15, 154557, Note_on_c, 14, 36, 95
15, 154720, Note_off_c, 14, 36, 64
15, 154803, Note_on_c, 14, 36, 96
15, 154966, Note_off_c, 14, 36, 64
15, 155039, Note_on_c, 14, 36, 97
15, 155202, Note_off_c, 14, 36, 64
15, 155278, Note_on_c, 14, 36, 98
15, 155441, Note_off_c, 14, 36, 64
15, 155523, Note_on_c, 14, 36, 98
15, 155686, Note_off_c, 14, 36, 64
15, 155760, Note_on_c, 14, 36, 100
15, 155923, Note_off_c, 14, 36, 64
15, 156001, Note_on_c, 14, 36, 101
15, 156164, Note_off_c, 14, 36, 64
15, 156243, Note_on_c, 14, 36, 102
15, 156406, Note_off_c, 14, 36, 64
15, 156478, Note_on_c, 14, 36, 103
15, 156641, Note_off_c, 14, 36, 64
15, 156720, Note_on_c, 14, 36, 104
15, 156883, Note_off_c, 14, 36, 64
15, 156957, Note_on_c, 14, 36, 105
15, 157120, Note_off_c, 14, 36, 64
15, 157203, Note_on_c, 14, 36, 106
15, 157366, Note_off_c, 14, 36, 64
15, 157440, Note_on_c, 14, 29, 108
15, 157501, Note_off_c, 14, 29, 56
15, 157561, Note_on_c, 14, 24, 108
15, 157622, Note_off_c, 14, 24, 56
15, 157681, Note_on_c, 14, 32, 108
15, 157742, Note_off_c, 14, 32, 56
15, 157799, Note_on_c, 14, 29, 108
15, 157880, Note_off_c, 14, 29, 56
15, 157919, Note_on_c, 14, 32, 108
15, 157980, Note_off_c, 14, 32, 56
15, 158041, Note_on_c, 14, 29, 108
15, 158102, Note_off_c, 14, 29, 56
15, 158159, Note_on_c, 14, 36, 108
15, 158240, Note_off_c, 14, 36, 56
15, 158281, Note_on_c, 14, 32, 108
15, 158362, Note_off_c, 14, 32, 56
15, 158399, Note_on_c, 14, 36, 108
15, 158460, Note_off_c, 14, 36, 56
15, 158521, Note_on_c, 14, 32, 108
15, 158582, Note_off_c, 14, 32, 56
15, 158641, Note_on_c, 14, 41, 108
15, 158702, Note_off_c, 14, 41, 56
15, 158759, Note_on_c, 14, 36, 108
15, 158840, Note_off_c, 14, 36, 56
15, 158881, Note_on_c, 14, 41, 108
15, 158962, Note_off_c, 14, 41, 56
15, 159000, Note_on_c, 14, 36, 108
15, 159061, Note_off_c, 14, 36, 56
15, 159119, Note_on_c, 14, 44, 108
15, 159200, Note_off_c, 14, 44, 56
15, 159240, Note_on_c, 14, 41, 108
15, 159321, Note_off_c, 14, 41, 56
15, 159361, Note_on_c, 14, 43, 108
15, 161089, Note_off_c, 14, 43, 64
15, 161280, Note_on_c, 14, 50, 108
15, 161361, Note_off_c, 14, 50, 56
15, 161400, Note_on_c, 14, 53, 108
15, 161481, Note_off_c, 14, 53, 56
15, 161521, Note_on_c, 14, 47, 108
15, 161602, Note_off_c, 14, 47, 56
15, 161639, Note_on_c, 14, 50, 108
15, 161720, Note_off_c, 14, 50, 56
15, 161759, Note_on_c, 14, 43, 108
15, 161840, Note_off_c, 14, 43, 56
15, 161881, Note_on_c, 14, 47, 108
15, 161962, Note_off_c, 14, 47, 56
15, 162001, Note_on_c, 14, 41, 108
15, 162082, Note_off_c, 14, 41, 56
15, 162121, Note_on_c, 14, 43, 108
15, 162202, Note_off_c, 14, 43, 56
15, 162240, Note_on_c, 14, 35, 108
15, 162321, Note_off_c, 14, 35, 56
15, 162361, Note_on_c, 14, 38, 108
15, 162442, Note_off_c, 14, 38, 56
15, 162480, Note_on_c, 14, 31, 108
15, 162561, Note_off_c, 14, 31, 56
15, 162601, Note_on_c, 14, 35, 108
15, 162682, Note_off_c, 14, 35, 56
15, 162719, Note_on_c, 14, 31, 108
15, 162800, Note_off_c, 14, 31, 56
15, 162839, Note_on_c, 14, 38, 108
15, 162920, Note_off_c, 14, 38, 56
15, 162959, Note_on_c, 14, 35, 108
15, 163040, Note_off_c, 14, 35, 56
15, 163079, Note_on_c, 14, 31, 108
15, 163160, Note_off_c, 14, 31, 56
15, 163200, Note_on_c, 14, 32, 108
15, 163261, Note_off_c, 14, 32, 56
15, 163320, Note_on_c, 14, 28, 108
15, 163381, Note_off_c, 14, 28, 56
15, 163440, Note_on_c, 14, 35, 108
15, 163521, Note_off_c, 14, 35, 56
15, 163560, Note_on_c, 14, 32, 108
15, 163641, Note_off_c, 14, 32, 56
15, 163680, Note_on_c, 14, 35, 108
15, 163741, Note_off_c, 14, 35, 56
15, 163799, Note_on_c, 14, 32, 108
15, 163860, Note_off_c, 14, 32, 56
15, 163920, Note_on_c, 14, 40, 108
15, 163981, Note_off_c, 14, 40, 56
15, 164041, Note_on_c, 14, 35, 108
15, 164122, Note_off_c, 14, 35, 56
15, 164160, Note_on_c, 14, 40, 108
15, 164221, Note_off_c, 14, 40, 56
15, 164281, Note_on_c, 14, 35, 108
15, 164342, Note_off_c, 14, 35, 56
15, 164399, Note_on_c, 14, 44, 108
15, 164480, Note_off_c, 14, 44, 56
15, 164519, Note_on_c, 14, 40, 108
15, 164600, Note_off_c, 14, 40, 56
15, 164640, Note_on_c, 14, 44, 108
15, 164701, Note_off_c, 14, 44, 56
15, 164761, Note_on_c, 14, 40, 108
15, 164822, Note_off_c, 14, 40, 56
15, 164879, Note_on_c, 14, 47, 108
15, 164960, Note_off_c, 14, 47, 56
15, 164999, Note_on_c, 14, 44, 108
15, 165080, Note_off_c, 14, 44, 56
15, 165119, Note_on_c, 14, 52, 108
15, 165200, Note_off_c, 14, 52, 56
15, 165239, Note_on_c, 14, 47, 108
15, 165300, Note_off_c, 14, 47, 56
15, 165359, Note_on_c, 14, 44, 108
15, 165420, Note_off_c, 14, 44, 56
15, 165479, Note_on_c, 14, 47, 108
15, 165540, Note_off_c, 14, 47, 56
15, 165601, Note_on_c, 14, 40, 108
15, 165662, Note_off_c, 14, 40, 56
15, 165721, Note_on_c, 14, 44, 108
15, 165782, Note_off_c, 14, 44, 56
15, 165841, Note_on_c, 14, 38, 108
15, 165902, Note_off_c, 14, 38, 56
15, 165960, Note_on_c, 14, 40, 108
15, 166021, Note_off_c, 14, 40, 56
15, 166080, Note_on_c, 14, 35, 108
15, 166141, Note_off_c, 14, 35, 56
15, 166201, Note_on_c, 14, 38, 108
15, 166262, Note_off_c, 14, 38, 56
15, 166321, Note_on_c, 14, 32, 108
15, 166382, Note_off_c, 14, 32, 56
15, 166440, Note_on_c, 14, 35, 108
15, 166501, Note_off_c, 14, 35, 56
15, 166561, Note_on_c, 14, 28, 108
15, 166642, Note_off_c, 14, 28, 56
15, 166681, Note_on_c, 14, 40, 108
15, 166762, Note_off_c, 14, 40, 56
15, 166801, Note_on_c, 14, 40, 108
15, 166882, Note_off_c, 14, 40, 56
15, 166920, Note_on_c, 14, 40, 108
15, 167001, Note_off_c, 14, 40, 56
15, 167040, Note_on_c, 14, 33, 108
15, 167203, Note_off_c, 14, 33, 64
15, 167522, Note_on_c, 14, 33, 108
15, 167685, Note_off_c, 14, 33, 64
15, 167999, Note_on_c, 14, 33, 108
15, 168183, Note_off_c, 14, 33, 64
15, 168239, Note_on_c, 14, 40, 108
15, 168303, Note_off_c, 14, 40, 56
15, 168320, Note_on_c, 14, 42, 108
15, 168384, Note_off_c, 14, 42, 56
15, 168400, Note_on_c, 14, 44, 108
15, 168464, Note_off_c, 14, 44, 56
15, 168482, Note_on_c, 14, 45, 108
15, 168666, Note_off_c, 14, 45, 64
15, 168721, Note_on_c, 14, 45, 73
15, 168905, Note_off_c, 14, 45, 64
15, 183118, Note_on_c, 14, 34, 90
15, 183302, Note_off_c, 14, 34, 64
15, 183357, Note_on_c, 14, 33, 90
15, 183745, Note_off_c, 14, 33, 64
15, 183840, Note_on_c, 14, 34, 90
15, 184228, Note_off_c, 14, 34, 64
15, 184321, Note_on_c, 14, 36, 90
15, 185929, Note_off_c, 14, 36, 64
15, 185999, Note_on_c, 14, 36, 90
15, 186183, Note_off_c, 14, 36, 64
15, 186240, Note_on_c, 14, 34, 90
15, 186628, Note_off_c, 14, 34, 64
15, 186722, Note_on_c, 14, 36, 90
15, 187110, Note_off_c, 14, 36, 64
15, 187202, Note_on_c, 14, 37, 90
15, 188810, Note_off_c, 14, 37, 64
15, 190082, Note_on_c, 14, 36, 90
15, 191690, Note_off_c, 14, 36, 64
15, 192958, Note_on_c, 14, 38, 90
15, 194566, Note_off_c, 14, 38, 64
15, 194641, Note_on_c, 14, 37, 90
15, 194825, Note_off_c, 14, 37, 64
15, 194879, Note_on_c, 14, 37, 90
15, 195743, Note_off_c, 14, 37, 64
15, 195837, Note_on_c, 14, 36, 90
15, 197973, Note_off_c, 14, 36, 64
15, 198001, Note_on_c, 14, 37, 90
15, 198123, Note_off_c, 14, 37, 64
15, 198241, Note_on_c, 14, 36, 92
15, 198867, Note_off_c, 14, 36, 64
15, 198961, Note_on_c, 14, 31, 93
15, 199083, Note_off_c, 14, 31, 64
15, 199199, Note_on_c, 14, 29, 93
15, 199825, Note_off_c, 14, 29, 64
15, 199919, Note_on_c, 14, 41, 94
15, 200041, Note_off_c, 14, 41, 64
15, 200161, Note_on_c, 14, 39, 95
15, 200787, Note_off_c, 14, 39, 64
15, 200882, Note_on_c, 14, 34, 96
15, 201004, Note_off_c, 14, 34, 64
15, 201123, Note_on_c, 14, 32, 96
15, 201749, Note_off_c, 14, 32, 64
15, 201842, Note_on_c, 14, 44, 97
15, 201964, Note_off_c, 14, 44, 64
15, 202083, Note_on_c, 14, 43, 98
15, 202709, Note_off_c, 14, 43, 64
15, 202799, Note_on_c, 14, 38, 100
15, 202921, Note_off_c, 14, 38, 64
15, 203038, Note_on_c, 14, 36, 100
15, 203664, Note_off_c, 14, 36, 64
15, 203761, Note_on_c, 14, 48, 101
15, 203883, Note_off_c, 14, 48, 64
15, 204000, Note_on_c, 14, 46, 102
15, 204626, Note_off_c, 14, 46, 64
15, 204722, Note_on_c, 14, 41, 103
15, 204844, Note_off_c, 14, 41, 64
15, 204958, Note_on_c, 14, 39, 103
15, 205080, Note_off_c, 14, 39, 64
15, 205201, Note_on_c, 14, 51, 104
15, 205323, Note_off_c, 14, 51, 64
15, 205440, Note_on_c, 14, 50, 109
15, 205440, Control_c, 14, 7, 100
15, 205440, Program_c, 14, 44
15, 205494, Note_off_c, 14, 50, 56
15, 205519, Note_on_c, 14, 50, 109
15, 205573, Note_off_c, 14, 50, 56
15, 205600, Note_on_c, 14, 50, 109
15, 205654, Note_off_c, 14, 50, 56
15, 205680, Note_on_c, 14, 50, 109
15, 205734, Note_off_c, 14, 50, 56
15, 205760, Note_on_c, 14, 50, 109
15, 205814, Note_off_c, 14, 50, 56
15, 205840, Note_on_c, 14, 50, 110
15, 205894, Note_off_c, 14, 50, 56
15, 205920, Note_on_c, 14, 50, 110
15, 205974, Note_off_c, 14, 50, 56
15, 206000, Note_on_c, 14, 50, 110
15, 206054, Note_off_c, 14, 50, 56
15, 206081, Note_on_c, 14, 50, 110
15, 206135, Note_off_c, 14, 50, 56
15, 206161, Note_on_c, 14, 50, 110
15, 206215, Note_off_c, 14, 50, 56
15, 206241, Note_on_c, 14, 50, 110
15, 206295, Note_off_c, 14, 50, 56
15, 206319, Note_on_c, 14, 50, 110
15, 206373, Note_off_c, 14, 50, 56
15, 206399, Note_on_c, 14, 50, 110
15, 206453, Note_off_c, 14, 50, 56
15, 206479, Note_on_c, 14, 50, 111
15, 206533, Note_off_c, 14, 50, 56
15, 206561, Note_on_c, 14, 50, 111
15, 206615, Note_off_c, 14, 50, 56
15, 206640, Note_on_c, 14, 50, 111
15, 206694, Note_off_c, 14, 50, 56
15, 206719, Note_on_c, 14, 50, 111
15, 206773, Note_off_c, 14, 50, 56
15, 206800, Note_on_c, 14, 50, 111
15, 206854, Note_off_c, 14, 50, 56
15, 206880, Note_on_c, 14, 50, 111
15, 206934, Note_off_c, 14, 50, 56
15, 206961, Note_on_c, 14, 50, 111
15, 207015, Note_off_c, 14, 50, 56
15, 207040, Note_on_c, 14, 50, 111
15, 207094, Note_off_c, 14, 50, 56
15, 207119, Note_on_c, 14, 50, 113
15, 207173, Note_off_c, 14, 50, 56
15, 207199, Note_on_c, 14, 50, 113
15, 207253, Note_off_c, 14, 50, 56
15, 207279, Note_on_c, 14, 50, 113
15, 207333, Note_off_c, 14, 50, 56
15, 207358, Note_on_c, 14, 31, 108
15, 207360, Control_c, 14, 7, 80
15, 207360, Program_c, 14, 43
15, 209182, Note_off_c, 14, 31, 64
15, 209279, Note_on_c, 14, 31, 108
15, 211103, Note_off_c, 14, 31, 64
15, 211199, Note_on_c, 14, 31, 108
15, 213023, Note_off_c, 14, 31, 64
15, 213117, Note_on_c, 14, 31, 108
15, 214941, Note_off_c, 14, 31, 64
15, 215040, Control_c, 14, 7, 100
15, 215040, Program_c, 14, 44
15, 215041, Note_on_c, 14, 31, 113
15, 215095, Note_off_c, 14, 31, 56
15, 215119, Note_on_c, 14, 31, 113
15, 215173, Note_off_c, 14, 31, 56
15, 215201, Note_on_c, 14, 31, 113
15, 215255, Note_off_c, 14, 31, 56
15, 215280, Note_on_c, 14, 31, 113
15, 215334, Note_off_c, 14, 31, 56
15, 215361, Note_on_c, 14, 31, 113
15, 215415, Note_off_c, 14, 31, 56
15, 215439, Note_on_c, 14, 31, 113
15, 215493, Note_off_c, 14, 31, 56
15, 215519, Note_on_c, 14, 31, 113
15, 215573, Note_off_c, 14, 31, 56
15, 215599, Note_on_c, 14, 31, 113
15, 215653, Note_off_c, 14, 31, 56
15, 215681, Note_on_c, 14, 31, 113
15, 215735, Note_off_c, 14, 31, 56
15, 215760, Note_on_c, 14, 31, 113
15, 215814, Note_off_c, 14, 31, 56
15, 215840, Note_on_c, 14, 31, 113
15, 215894, Note_off_c, 14, 31, 56
15, 215920, Note_on_c, 14, 31, 113
15, 215974, Note_off_c, 14, 31, 56
15, 216000, Note_on_c, 14, 31, 113
15, 216054, Note_off_c, 14, 31, 56
15, 216080, Note_on_c, 14, 31, 113
15, 216134, Note_off_c, 14, 31, 56
15, 216159, Note_on_c, 14, 31, 113
15, 216213, Note_off_c, 14, 31, 56
15, 216241, Note_on_c, 14, 31, 113
15, 216295, Note_off_c, 14, 31, 56
15, 216321, Note_on_c, 14, 31, 113
15, 216375, Note_off_c, 14, 31, 56
15, 216400, Note_on_c, 14, 31, 113
15, 216454, Note_off_c, 14, 31, 56
15, 216479, Note_on_c, 14, 31, 113
15, 216533, Note_off_c, 14, 31, 56
15, 216561, Note_on_c, 14, 31, 113
15, 216615, Note_off_c, 14, 31, 56
15, 216639, Note_on_c, 14, 31, 113
15, 216693, Note_off_c, 14, 31, 56
15, 216720, Note_on_c, 14, 31, 113
15, 216774, Note_off_c, 14, 31, 56
15, 216801, Note_on_c, 14, 31, 113
15, 216855, Note_off_c, 14, 31, 56
15, 216879, Note_on_c, 14, 31, 113
15, 216933, Note_off_c, 14, 31, 56
15, 216961, Note_on_c, 14, 31, 113
15, 217015, Note_off_c, 14, 31, 56
15, 217039, Note_on_c, 14, 31, 113
15, 217093, Note_off_c, 14, 31, 56
15, 217121, Note_on_c, 14, 31, 113
15, 217175, Note_off_c, 14, 31, 56
15, 217200, Note_on_c, 14, 31, 113
15, 217254, Note_off_c, 14, 31, 56
15, 217280, Note_on_c, 14, 31, 113
15, 217334, Note_off_c, 14, 31, 56
15, 217361, Note_on_c, 14, 31, 113
15, 217415, Note_off_c, 14, 31, 56
15, 217441, Note_on_c, 14, 31, 113
15, 217495, Note_off_c, 14, 31, 56
15, 217519, Note_on_c, 14, 31, 113
15, 217573, Note_off_c, 14, 31, 56
15, 217601, Note_on_c, 14, 31, 113
15, 217655, Note_off_c, 14, 31, 56
15, 217680, Note_on_c, 14, 31, 113
15, 217734, Note_off_c, 14, 31, 56
15, 217759, Note_on_c, 14, 31, 113
15, 217813, Note_off_c, 14, 31, 56
15, 217840, Note_on_c, 14, 31, 113
15, 217894, Note_off_c, 14, 31, 56
15, 217921, Note_on_c, 14, 31, 113
15, 217975, Note_off_c, 14, 31, 56
15, 218000, Note_on_c, 14, 31, 113
15, 218054, Note_off_c, 14, 31, 56
15, 218080, Note_on_c, 14, 31, 113
15, 218134, Note_off_c, 14, 31, 56
15, 218161, Note_on_c, 14, 31, 113
15, 218215, Note_off_c, 14, 31, 56
15, 218241, Note_on_c, 14, 31, 113
15, 218295, Note_off_c, 14, 31, 56
15, 218320, Note_on_c, 14, 31, 113
15, 218374, Note_off_c, 14, 31, 56
15, 218401, Note_on_c, 14, 31, 113
15, 218455, Note_off_c, 14, 31, 56
15, 218480, Note_on_c, 14, 31, 113
15, 218534, Note_off_c, 14, 31, 56
15, 218561, Note_on_c, 14, 31, 113
15, 218615, Note_off_c, 14, 31, 56
15, 218639, Note_on_c, 14, 31, 113
15, 218693, Note_off_c, 14, 31, 56
15, 218720, Note_on_c, 14, 31, 113
15, 218774, Note_off_c, 14, 31, 56
15, 218801, Note_on_c, 14, 31, 113
15, 218855, Note_off_c, 14, 31, 56
15, 218877, Note_on_c, 14, 31, 108
15, 218880, Control_c, 14, 7, 80
15, 218880, Program_c, 14, 43
15, 219406, Note_off_c, 14, 31, 64
15, 219479, Note_on_c, 14, 38, 108
15, 219570, Note_off_c, 14, 38, 56
15, 219600, Note_on_c, 14, 35, 108
15, 219691, Note_off_c, 14, 35, 56
15, 219721, Note_on_c, 14, 38, 108
15, 219812, Note_off_c, 14, 38, 56
15, 219838, Note_on_c, 14, 43, 108
15, 220367, Note_off_c, 14, 43, 64
15, 220441, Note_on_c, 14, 38, 108
15, 220532, Note_off_c, 14, 38, 56
15, 220561, Note_on_c, 14, 35, 108
15, 220652, Note_off_c, 14, 35, 56
15, 220680, Note_on_c, 14, 38, 108
15, 220771, Note_off_c, 14, 38, 56
15, 220800, Note_on_c, 14, 43, 108
15, 220891, Note_off_c, 14, 43, 56
15, 220920, Note_on_c, 14, 50, 108
15, 221011, Note_off_c, 14, 50, 56
15, 221040, Note_on_c, 14, 47, 108
15, 221131, Note_off_c, 14, 47, 56
15, 221161, Note_on_c, 14, 50, 108
15, 221252, Note_off_c, 14, 50, 56
15, 221280, Note_on_c, 14, 50, 108
15, 221371, Note_off_c, 14, 50, 56
15, 221400, Note_on_c, 14, 47, 108
15, 221491, Note_off_c, 14, 47, 56
15, 221521, Note_on_c, 14, 43, 108
15, 221612, Note_off_c, 14, 43, 56
15, 221640, Note_on_c, 14, 47, 108
15, 221731, Note_off_c, 14, 47, 56
15, 221760, Note_on_c, 14, 47, 108
15, 221851, Note_off_c, 14, 47, 56
15, 221879, Note_on_c, 14, 43, 108
15, 221970, Note_off_c, 14, 43, 56
15, 222001, Note_on_c, 14, 38, 108
15, 222092, Note_off_c, 14, 38, 56
15, 222121, Note_on_c, 14, 43, 108
15, 222212, Note_off_c, 14, 43, 56
15, 222239, Note_on_c, 14, 43, 108
15, 222330, Note_off_c, 14, 43, 56
15, 222361, Note_on_c, 14, 38, 108
15, 222452, Note_off_c, 14, 38, 56
15, 222480, Note_on_c, 14, 35, 108
15, 222571, Note_off_c, 14, 35, 56
15, 222601, Note_on_c, 14, 38, 108
15, 222692, Note_off_c, 14, 38, 56
15, 222721, Note_on_c, 14, 38, 108
15, 222812, Note_off_c, 14, 38, 56
15, 222840, Note_on_c, 14, 35, 108
15, 222931, Note_off_c, 14, 35, 56
15, 222961, Note_on_c, 14, 31, 108
15, 223052, Note_off_c, 14, 31, 56
15, 223081, Note_on_c, 14, 47, 108
15, 223172, Note_off_c, 14, 47, 56
15, 223200, Note_on_c, 14, 47, 108
15, 223291, Note_off_c, 14, 47, 56
15, 223320, Note_on_c, 14, 43, 108
15, 223411, Note_off_c, 14, 43, 56
15, 223440, Note_on_c, 14, 38, 108
15, 223531, Note_off_c, 14, 38, 56
15, 223559, Note_on_c, 14, 43, 108
15, 223650, Note_off_c, 14, 43, 56
15, 223680, Note_on_c, 14, 43, 108
15, 223771, Note_off_c, 14, 43, 56
15, 223799, Note_on_c, 14, 38, 108
15, 223890, Note_off_c, 14, 38, 56
15, 223921, Note_on_c, 14, 35, 108
15, 224012, Note_off_c, 14, 35, 56
15, 224041, Note_on_c, 14, 38, 108
15, 224132, Note_off_c, 14, 38, 56
15, 224159, Note_on_c, 14, 43, 108
15, 224250, Note_off_c, 14, 43, 56
15, 224280, Note_on_c, 14, 38, 108
15, 224371, Note_off_c, 14, 38, 56
15, 224399, Note_on_c, 14, 35, 108
15, 224490, Note_off_c, 14, 35, 56
15, 224519, Note_on_c, 14, 38, 108
15, 224610, Note_off_c, 14, 38, 56
15, 224637, Note_on_c, 14, 31, 108
15, 225501, Note_off_c, 14, 31, 64
15, 225600, Note_on_c, 14, 31, 108
15, 226464, Note_off_c, 14, 31, 64
15, 226562, Note_on_c, 14, 31, 108
15, 227426, Note_off_c, 14, 31, 64
15, 227517, Note_on_c, 14, 31, 108
15, 227701, Note_off_c, 14, 31, 64
15, 264960, Note_on_c, 14, 36, 56
15, 264960, Control_c, 14, 7, 100
15, 264960, Program_c, 14, 44
15, 265041, Note_off_c, 14, 36, 56
15, 265080, Note_on_c, 14, 36, 60
15, 265161, Note_off_c, 14, 36, 56
15, 265201, Note_on_c, 14, 36, 65
15, 265282, Note_off_c, 14, 36, 56
15, 265319, Note_on_c, 14, 36, 69
15, 265400, Note_off_c, 14, 36, 56
15, 265441, Note_on_c, 14, 36, 73
15, 265522, Note_off_c, 14, 36, 56
15, 265561, Note_on_c, 14, 36, 78
15, 265642, Note_off_c, 14, 36, 56
15, 265681, Note_on_c, 14, 36, 82
15, 265762, Note_off_c, 14, 36, 56
15, 265800, Note_on_c, 14, 36, 86
15, 265881, Note_off_c, 14, 36, 56
15, 265920, Note_on_c, 14, 36, 90
15, 266001, Note_off_c, 14, 36, 56
15, 266040, Note_on_c, 14, 36, 95
15, 266121, Note_off_c, 14, 36, 56
15, 266159, Note_on_c, 14, 36, 100
15, 266240, Note_off_c, 14, 36, 56
15, 266281, Note_on_c, 14, 36, 103
15, 266362, Note_off_c, 14, 36, 56
15, 266400, Control_c, 14, 7, 80
15, 266400, Program_c, 14, 43
15, 266402, Note_on_c, 14, 36, 108
15, 266565, Note_off_c, 14, 36, 64
15, 266883, Note_on_c, 14, 36, 108
15, 267046, Note_off_c, 14, 36, 64
15, 267363, Note_on_c, 14, 36, 108
15, 267881, Note_off_c, 14, 36, 64
15, 268079, Note_on_c, 14, 31, 108
15, 268160, Note_off_c, 14, 31, 56
15, 268319, Note_on_c, 14, 36, 108
15, 268400, Note_off_c, 14, 36, 56
15, 268561, Note_on_c, 14, 31, 108
15, 268642, Note_off_c, 14, 31, 56
15, 268799, Note_on_c, 14, 36, 108
15, 268880, Note_off_c, 14, 36, 56
15, 269041, Note_on_c, 14, 31, 108
15, 269122, Note_off_c, 14, 31, 56
15, 269278, Note_on_c, 14, 36, 108
15, 269796, Note_off_c, 14, 36, 64
15, 270002, Note_on_c, 14, 36, 108
15, 270124, Note_off_c, 14, 36, 64
15, 270180, Note_on_c, 14, 36, 113
15, 270220, Note_off_c, 14, 36, 56
15, 270242, Note_on_c, 14, 31, 108
15, 270760, Note_off_c, 14, 31, 64
15, 270959, Note_on_c, 14, 31, 108
15, 271081, Note_off_c, 14, 31, 64
15, 271140, Note_on_c, 14, 31, 113
15, 271180, Note_off_c, 14, 31, 56
15, 271201, Note_on_c, 14, 36, 108
15, 271969, Note_off_c, 14, 36, 64
15, 272157, Note_on_c, 14, 33, 108
15, 272502, Note_off_c, 14, 33, 64
15, 272638, Note_on_c, 14, 29, 108
15, 272983, Note_off_c, 14, 29, 64
15, 273120, Note_on_c, 14, 28, 108
15, 273201, Note_off_c, 14, 28, 56
15, 273240, Note_on_c, 14, 29, 108
15, 273321, Note_off_c, 14, 29, 56
15, 273361, Note_on_c, 14, 28, 108
15, 273442, Note_off_c, 14, 28, 56
15, 273481, Note_on_c, 14, 26, 108
15, 273562, Note_off_c, 14, 26, 56
15, 273599, Note_on_c, 14, 24, 108
15, 273944, Note_off_c, 14, 24, 64
15, 274079, Note_on_c, 14, 33, 108
15, 274424, Note_off_c, 14, 33, 64
15, 274557, Note_on_c, 14, 29, 108
15, 274902, Note_off_c, 14, 29, 64
15, 275039, Note_on_c, 14, 28, 108
15, 275120, Note_off_c, 14, 28, 56
15, 275160, Note_on_c, 14, 29, 108
15, 275241, Note_off_c, 14, 29, 56
15, 275281, Note_on_c, 14, 28, 108
15, 275362, Note_off_c, 14, 28, 56
15, 275400, Note_on_c, 14, 26, 108
15, 275481, Note_off_c, 14, 26, 56
15, 275519, Note_on_c, 14, 24, 108
15, 275864, Note_off_c, 14, 24, 64
15, 276002, Note_on_c, 14, 33, 108
15, 276347, Note_off_c, 14, 33, 64
15, 276482, Note_on_c, 14, 29, 108
15, 276827, Note_off_c, 14, 29, 64
15, 276961, Note_on_c, 14, 28, 108
15, 277042, Note_off_c, 14, 28, 56
15, 277079, Note_on_c, 14, 29, 108
15, 277160, Note_off_c, 14, 29, 56
15, 277201, Note_on_c, 14, 28, 108
15, 277282, Note_off_c, 14, 28, 56
15, 277319, Note_on_c, 14, 26, 108
15, 277400, Note_off_c, 14, 26, 56
15, 277442, Note_on_c, 14, 24, 108
15, 277605, Note_off_c, 14, 24, 64
15, 277678, Note_on_c, 14, 36, 108
15, 277800, Note_off_c, 14, 36, 64
15, 277860, Note_on_c, 14, 36, 113
15, 277900, Note_off_c, 14, 36, 56
15, 277920, Note_on_c, 14, 35, 108
15, 278265, Note_off_c, 14, 35, 64
15, 278401, Note_on_c, 14, 36, 108
15, 278746, Note_off_c, 14, 36, 64
15, 278879, Note_on_c, 14, 31, 108
15, 279042, Note_off_c, 14, 31, 64
15, 279118, Note_on_c, 14, 31, 108
15, 279463, Note_off_c, 14, 31, 64
15, 279602, Note_on_c, 14, 36, 108
15, 279724, Note_off_c, 14, 36, 64
15, 279780, Note_on_c, 14, 36, 113
15, 279820, Note_off_c, 14, 36, 56
15, 279841, Note_on_c, 14, 35, 108
15, 280186, Note_off_c, 14, 35, 64
15, 280319, Note_on_c, 14, 36, 108
15, 280664, Note_off_c, 14, 36, 64
15, 280800, Note_on_c, 14, 31, 108
15, 280963, Note_off_c, 14, 31, 64
15, 281039, Note_on_c, 14, 31, 108
15, 281384, Note_off_c, 14, 31, 64
15, 281520, Note_on_c, 14, 36, 108
15, 281642, Note_off_c, 14, 36, 64
15, 281700, Note_on_c, 14, 36, 113
15, 281740, Note_off_c, 14, 36, 56
15, 281758, Note_on_c, 14, 35, 108
15, 281880, Note_off_c, 14, 35, 64
15, 281940, Note_on_c, 14, 35, 113
15, 281980, Note_off_c, 14, 35, 56
15, 282002, Note_on_c, 14, 31, 108
15, 282124, Note_off_c, 14, 31, 64
15, 282180, Note_on_c, 14, 31, 113
15, 282220, Note_off_c, 14, 31, 56
15, 282238, Note_on_c, 14, 36, 108
15, 282360, Note_off_c, 14, 36, 64
15, 282420, Note_on_c, 14, 36, 113
15, 282460, Note_off_c, 14, 36, 56
15, 282482, Note_on_c, 14, 40, 108
15, 282604, Note_off_c, 14, 40, 64
15, 282660, Note_on_c, 14, 40, 113
15, 282700, Note_off_c, 14, 40, 56
15, 282720, Note_on_c, 14, 43, 108
15, 282801, Note_off_c, 14, 43, 56
15, 282840, Note_on_c, 14, 31, 108
15, 282921, Note_off_c, 14, 31, 56
15, 282957, Note_on_c, 14, 31, 108
15, 283120, Note_off_c, 14, 31, 64
15, 283800, Note_on_c, 14, 31, 108
15, 283881, Note_off_c, 14, 31, 56
15, 283918, Note_on_c, 14, 31, 108
15, 284081, Note_off_c, 14, 31, 64
15, 284759, Note_on_c, 14, 31, 108
15, 284840, Note_off_c, 14, 31, 56
15, 284883, Note_on_c, 14, 31, 108
15, 285046, Note_off_c, 14, 31, 64
15, 285241, Note_on_c, 14, 31, 108
15, 285322, Note_off_c, 14, 31, 56
15, 285359, Note_on_c, 14, 31, 108
15, 285522, Note_off_c, 14, 31, 64
15, 285721, Note_on_c, 14, 31, 108
15, 285802, Note_off_c, 14, 31, 56
15, 285843, Note_on_c, 14, 31, 108
15, 286006, Note_off_c, 14, 31, 64
15, 286200, Note_on_c, 14, 31, 108
15, 286281, Note_off_c, 14, 31, 56
15, 286322, Note_on_c, 14, 31, 108
15, 286485, Note_off_c, 14, 31, 64
15, 286559, Note_on_c, 14, 31, 108
15, 286722, Note_off_c, 14, 31, 64
15, 289559, Note_on_c, 14, 48, 108
15, 289640, Note_off_c, 14, 48, 56
15, 289680, Note_on_c, 14, 47, 108
15, 289761, Note_off_c, 14, 47, 56
15, 289800, Note_on_c, 14, 45, 108
15, 289881, Note_off_c, 14, 45, 56
15, 289920, Note_on_c, 14, 43, 108
15, 289981, Note_off_c, 14, 43, 56
15, 290040, Note_on_c, 14, 41, 108
15, 290101, Note_off_c, 14, 41, 56
15, 290159, Note_on_c, 14, 40, 108
15, 290220, Note_off_c, 14, 40, 56
15, 290279, Note_on_c, 14, 38, 108
15, 290340, Note_off_c, 14, 38, 56
15, 290398, Note_on_c, 14, 36, 108
15, 290561, Note_off_c, 14, 36, 64
15, 292320, Note_on_c, 14, 31, 108
15, 292838, Note_off_c, 14, 31, 64
15, 292920, Note_on_c, 14, 31, 108
15, 293001, Note_off_c, 14, 31, 56
15, 293039, Note_on_c, 14, 35, 108
15, 293100, Note_off_c, 14, 35, 56
15, 293161, Note_on_c, 14, 38, 108
15, 293222, Note_off_c, 14, 38, 56
15, 293281, Note_on_c, 14, 41, 108
15, 293342, Note_off_c, 14, 41, 56
15, 293399, Note_on_c, 14, 43, 108
15, 293460, Note_off_c, 14, 43, 56
15, 293519, Note_on_c, 14, 47, 108
15, 293580, Note_off_c, 14, 47, 56
15, 293639, Note_on_c, 14, 50, 108
15, 293720, Note_off_c, 14, 50, 56
15, 293760, Note_on_c, 14, 53, 108
15, 293841, Note_off_c, 14, 53, 56
15, 293879, Note_on_c, 14, 55, 108
15, 293960, Note_off_c, 14, 55, 56
15, 294001, Note_on_c, 14, 53, 108
15, 294082, Note_off_c, 14, 53, 56
15, 294119, Note_on_c, 14, 50, 108
15, 294200, Note_off_c, 14, 50, 56
15, 294240, Note_on_c, 14, 47, 108
15, 294321, Note_off_c, 14, 47, 56
15, 294359, Note_on_c, 14, 50, 108
15, 294440, Note_off_c, 14, 50, 56
15, 294480, Note_on_c, 14, 47, 108
15, 294561, Note_off_c, 14, 47, 56
15, 294600, Note_on_c, 14, 43, 108
15, 294681, Note_off_c, 14, 43, 56
15, 294720, Note_on_c, 14, 41, 108
15, 294801, Note_off_c, 14, 41, 56
15, 294839, Note_on_c, 14, 38, 108
15, 294920, Note_off_c, 14, 38, 56
15, 294961, Note_on_c, 14, 35, 108
15, 295042, Note_off_c, 14, 35, 56
15, 295079, Note_on_c, 14, 38, 108
15, 295160, Note_off_c, 14, 38, 56
15, 295200, Note_on_c, 14, 31, 108
15, 295363, Note_off_c, 14, 31, 64
15, 296163, Note_on_c, 14, 24, 108
15, 296692, Note_off_c, 14, 24, 64
15, 296760, Note_on_c, 14, 24, 108
15, 296851, Note_off_c, 14, 24, 56
15, 296881, Note_on_c, 14, 28, 108
15, 296972, Note_off_c, 14, 28, 56
15, 297001, Note_on_c, 14, 31, 108
15, 297092, Note_off_c, 14, 31, 56
15, 297121, Note_on_c, 14, 36, 108
15, 297212, Note_off_c, 14, 36, 56
15, 297240, Note_on_c, 14, 40, 108
15, 297331, Note_off_c, 14, 40, 56
15, 297359, Note_on_c, 14, 43, 108
15, 297450, Note_off_c, 14, 43, 56
15, 297480, Note_on_c, 14, 48, 108
15, 297571, Note_off_c, 14, 48, 56
15, 297600, Note_on_c, 14, 52, 108
15, 297691, Note_off_c, 14, 52, 56
15, 297721, Note_on_c, 14, 48, 108
15, 297812, Note_off_c, 14, 48, 56
15, 297840, Note_on_c, 14, 43, 108
15, 297931, Note_off_c, 14, 43, 56
15, 297960, Note_on_c, 14, 40, 108
15, 298051, Note_off_c, 14, 40, 56
15, 298081, Note_on_c, 14, 34, 108
15, 298172, Note_off_c, 14, 34, 56
15, 298199, Note_on_c, 14, 33, 108
15, 298290, Note_off_c, 14, 33, 56
15, 298321, Note_on_c, 14, 34, 108
15, 298412, Note_off_c, 14, 34, 56
15, 298441, Note_on_c, 14, 34, 108
15, 298532, Note_off_c, 14, 34, 56
15, 298562, Note_on_c, 14, 34, 108
15, 299091, Note_off_c, 14, 34, 64
15, 299161, Note_on_c, 14, 33, 108
15, 299252, Note_off_c, 14, 33, 56
15, 299281, Note_on_c, 14, 34, 108
15, 299372, Note_off_c, 14, 34, 56
15, 299400, Note_on_c, 14, 34, 108
15, 299491, Note_off_c, 14, 34, 56
15, 299518, Note_on_c, 14, 34, 108
15, 299906, Note_off_c, 14, 34, 64
15, 299999, Note_on_c, 14, 33, 108
15, 300090, Note_off_c, 14, 33, 56
15, 300119, Note_on_c, 14, 32, 108
15, 300210, Note_off_c, 14, 32, 56
15, 300241, Note_on_c, 14, 33, 108
15, 300332, Note_off_c, 14, 33, 56
15, 300360, Note_on_c, 14, 33, 108
15, 300451, Note_off_c, 14, 33, 56
15, 300482, Note_on_c, 14, 33, 108
15, 301011, Note_off_c, 14, 33, 64
15, 301081, Note_on_c, 14, 32, 108
15, 301172, Note_off_c, 14, 32, 56
15, 301200, Note_on_c, 14, 33, 108
15, 301291, Note_off_c, 14, 33, 56
15, 301321, Note_on_c, 14, 33, 108
15, 301412, Note_off_c, 14, 33, 56
15, 301438, Note_on_c, 14, 33, 108
15, 301826, Note_off_c, 14, 33, 64
15, 301917, Note_on_c, 14, 35, 108
15, 302500, Note_off_c, 14, 35, 64
15, 302642, Note_on_c, 14, 31, 108
15, 302836, Note_off_c, 14, 31, 64
15, 302879, Note_on_c, 14, 35, 108
15, 303073, Note_off_c, 14, 35, 64
15, 303119, Note_on_c, 14, 31, 108
15, 303313, Note_off_c, 14, 31, 64
15, 303359, Note_on_c, 14, 38, 108
15, 303553, Note_off_c, 14, 38, 64
15, 303600, Note_on_c, 14, 36, 108
15, 303745, Note_off_c, 14, 36, 64
15, 303780, Note_on_c, 14, 35, 113
15, 303825, Note_off_c, 14, 35, 56
15, 303837, Note_on_c, 14, 36, 108
15, 304420, Note_off_c, 14, 36, 64
15, 304558, Note_on_c, 14, 31, 108
15, 304752, Note_off_c, 14, 31, 64
15, 304797, Note_on_c, 14, 36, 108
15, 304991, Note_off_c, 14, 36, 64
15, 305041, Note_on_c, 14, 31, 108
15, 305235, Note_off_c, 14, 31, 64
15, 305279, Note_on_c, 14, 40, 108
15, 305473, Note_off_c, 14, 40, 64
15, 305519, Note_on_c, 14, 38, 108
15, 305664, Note_off_c, 14, 38, 64
15, 305700, Note_on_c, 14, 36, 113
15, 305745, Note_off_c, 14, 36, 56
15, 305760, Note_on_c, 14, 35, 108
15, 306051, Note_off_c, 14, 35, 64
15, 306119, Note_on_c, 14, 31, 108
15, 306210, Note_off_c, 14, 31, 56
15, 306242, Note_on_c, 14, 38, 108
15, 306549, Note_off_c, 14, 38, 64
15, 306600, Note_on_c, 14, 36, 113
15, 306648, Note_off_c, 14, 36, 56
15, 306660, Note_on_c, 14, 35, 113
15, 306705, Note_off_c, 14, 35, 56
15, 306720, Note_on_c, 14, 36, 108
15, 307011, Note_off_c, 14, 36, 64
15, 307080, Note_on_c, 14, 31, 108
15, 307171, Note_off_c, 14, 31, 56
15, 307199, Note_on_c, 14, 40, 108
15, 307506, Note_off_c, 14, 40, 64
15, 307560, Note_on_c, 14, 38, 113
15, 307608, Note_off_c, 14, 38, 56
15, 307620, Note_on_c, 14, 36, 113
15, 307665, Note_off_c, 14, 36, 56
15, 307680, Note_on_c, 14, 43, 108
15, 307741, Note_off_c, 14, 43, 56
15, 307802, Note_on_c, 14, 55, 108
15, 307899, Note_off_c, 14, 55, 56
15, 307921, Note_on_c, 14, 53, 108
15, 308012, Note_off_c, 14, 53, 56
15, 308041, Note_on_c, 14, 52, 108
15, 308102, Note_off_c, 14, 52, 56
15, 308161, Note_on_c, 14, 50, 108
15, 308222, Note_off_c, 14, 50, 56
15, 308281, Note_on_c, 14, 52, 108
15, 308378, Note_off_c, 14, 52, 56
15, 308400, Note_on_c, 14, 50, 108
15, 308491, Note_off_c, 14, 50, 56
15, 308520, Note_on_c, 14, 48, 108
15, 308581, Note_off_c, 14, 48, 56
15, 308641, Note_on_c, 14, 47, 108
15, 308702, Note_off_c, 14, 47, 56
15, 308759, Note_on_c, 14, 48, 108
15, 308856, Note_off_c, 14, 48, 56
15, 308882, Note_on_c, 14, 47, 108
15, 308979, Note_off_c, 14, 47, 56
15, 309000, Note_on_c, 14, 45, 108
15, 309061, Note_off_c, 14, 45, 56
15, 309121, Note_on_c, 14, 43, 108
15, 309182, Note_off_c, 14, 43, 56
15, 309240, Note_on_c, 14, 43, 108
15, 309337, Note_off_c, 14, 43, 56
15, 309359, Note_on_c, 14, 45, 108
15, 309450, Note_off_c, 14, 45, 56
15, 309480, Note_on_c, 14, 38, 108
15, 309541, Note_off_c, 14, 38, 56
15, 309603, Note_on_c, 14, 43, 108
15, 309787, Note_off_c, 14, 43, 64
15, 310682, Note_on_c, 14, 43, 108
15, 310779, Note_off_c, 14, 43, 56
15, 310799, Note_on_c, 14, 41, 108
15, 310890, Note_off_c, 14, 41, 56
15, 310920, Note_on_c, 14, 50, 108
15, 310981, Note_off_c, 14, 50, 56
15, 311041, Note_on_c, 14, 41, 108
15, 311102, Note_off_c, 14, 41, 56
15, 311158, Note_on_c, 14, 40, 108
15, 311255, Note_off_c, 14, 40, 56
15, 311279, Note_on_c, 14, 38, 108
15, 311370, Note_off_c, 14, 38, 56
15, 311400, Note_on_c, 14, 47, 108
15, 311461, Note_off_c, 14, 47, 56
15, 311520, Note_on_c, 14, 36, 108
15, 311704, Note_off_c, 14, 36, 64
15, 312001, Note_on_c, 14, 36, 108
15, 312185, Note_off_c, 14, 36, 64
15, 312480, Note_on_c, 14, 36, 108
15, 312664, Note_off_c, 14, 36, 64
15, 312719, Note_on_c, 14, 31, 108
15, 312783, Note_off_c, 14, 31, 56
15, 312799, Note_on_c, 14, 33, 108
15, 312863, Note_off_c, 14, 33, 56
15, 312879, Note_on_c, 14, 35, 108
15, 312943, Note_off_c, 14, 35, 56
15, 312963, Note_on_c, 14, 36, 108
15, 313147, Note_off_c, 14, 36, 64
15, 314639, Note_on_c, 14, 47, 80
15, 314700, Note_off_c, 14, 47, 56
15, 314721, Note_on_c, 14, 48, 82
15, 314782, Note_off_c, 14, 48, 56
15, 314800, Note_on_c, 14, 50, 85
15, 314861, Note_off_c, 14, 50, 56
15, 314878, Note_on_c, 14, 43, 87
15, 315062, Note_off_c, 14, 43, 64
15, 315119, Note_on_c, 14, 41, 95
15, 315173, Note_off_c, 14, 41, 56
15, 315201, Note_on_c, 14, 40, 95
15, 315255, Note_off_c, 14, 40, 56
15, 315279, Note_on_c, 14, 38, 95
15, 315333, Note_off_c, 14, 38, 56
15, 315362, Note_on_c, 14, 36, 90
15, 315546, Note_off_c, 14, 36, 64
15, 315843, Note_on_c, 14, 36, 90
15, 316027, Note_off_c, 14, 36, 64
15, 316319, Note_on_c, 14, 36, 90
15, 316503, Note_off_c, 14, 36, 64
15, 316561, Note_on_c, 14, 31, 95
15, 316615, Note_off_c, 14, 31, 56
15, 316639, Note_on_c, 14, 33, 95
15, 316693, Note_off_c, 14, 33, 56
15, 316720, Note_on_c, 14, 35, 95
15, 316774, Note_off_c, 14, 35, 56
15, 316800, Note_on_c, 14, 36, 90
15, 316984, Note_off_c, 14, 36, 64
15, 318481, Note_on_c, 14, 31, 95
15, 318535, Note_off_c, 14, 31, 56
15, 318560, Note_on_c, 14, 33, 95
15, 318614, Note_off_c, 14, 33, 56
15, 318640, Note_on_c, 14, 35, 95
15, 318694, Note_off_c, 14, 35, 56
15, 318723, Note_on_c, 14, 36, 90
15, 318907, Note_off_c, 14, 36, 64
15, 320401, Note_on_c, 14, 33, 95
15, 320455, Note_off_c, 14, 33, 56
15, 320479, Note_on_c, 14, 35, 95
15, 320533, Note_off_c, 14, 35, 56
15, 320561, Note_on_c, 14, 37, 95
15, 320615, Note_off_c, 14, 37, 56
15, 320640, Note_on_c, 14, 38, 90
15, 320824, Note_off_c, 14, 38, 64
15, 320880, Note_on_c, 14, 41, 56
15, 321074, Note_off_c, 14, 41, 64
15, 321117, Note_on_c, 14, 40, 56
15, 321527, Note_off_c, 14, 40, 64
15, 321602, Note_on_c, 14, 41, 56
15, 322012, Note_off_c, 14, 41, 64
15, 322081, Note_on_c, 14, 36, 56
15, 322162, Note_off_c, 14, 36, 56
15, 322199, Note_on_c, 14, 48, 59
15, 322280, Note_off_c, 14, 48, 56
15, 322319, Note_on_c, 14, 48, 63
15, 322400, Note_off_c, 14, 48, 56
15, 322440, Note_on_c, 14, 48, 65
15, 322521, Note_off_c, 14, 48, 56
15, 322559, Note_on_c, 14, 48, 69
15, 322640, Note_off_c, 14, 48, 56
15, 322681, Note_on_c, 14, 48, 72
15, 322762, Note_off_c, 14, 48, 56
15, 322799, Note_on_c, 14, 48, 75
15, 322880, Note_off_c, 14, 48, 56
15, 322919, Note_on_c, 14, 48, 78
15, 323000, Note_off_c, 14, 48, 56
15, 323041, Note_on_c, 14, 48, 81
15, 323122, Note_off_c, 14, 48, 56
15, 323160, Note_on_c, 14, 48, 85
15, 323241, Note_off_c, 14, 48, 56
15, 323279, Note_on_c, 14, 48, 88
15, 323360, Note_off_c, 14, 48, 56
15, 323399, Note_on_c, 14, 48, 92
15, 323480, Note_off_c, 14, 48, 56
15, 323520, Note_on_c, 14, 48, 94
15, 323601, Note_off_c, 14, 48, 56
15, 323639, Note_on_c, 14, 48, 97
15, 323720, Note_off_c, 14, 48, 56
15, 323761, Note_on_c, 14, 48, 101
15, 323842, Note_off_c, 14, 48, 56
15, 323881, Note_on_c, 14, 48, 104
15, 323962, Note_off_c, 14, 48, 56
15, 323999, Note_on_c, 14, 41, 108
15, 324528, Note_off_c, 14, 41, 64
15, 324599, Note_on_c, 14, 41, 108
15, 324690, Note_off_c, 14, 41, 56
15, 324719, Note_on_c, 14, 41, 108
15, 324810, Note_off_c, 14, 41, 56
15, 324839, Note_on_c, 14, 41, 108
15, 324930, Note_off_c, 14, 41, 56
15, 324961, Note_on_c, 14, 41, 108
15, 325052, Note_off_c, 14, 41, 56
15, 325080, Note_on_c, 14, 41, 108
15, 325171, Note_off_c, 14, 41, 56
15, 325201, Note_on_c, 14, 41, 108
15, 325292, Note_off_c, 14, 41, 56
15, 325319, Note_on_c, 14, 41, 108
15, 325410, Note_off_c, 14, 41, 56
15, 325441, Note_on_c, 14, 41, 108
15, 325532, Note_off_c, 14, 41, 56
15, 325559, Note_on_c, 14, 41, 108
15, 325650, Note_off_c, 14, 41, 56
15, 325679, Note_on_c, 14, 41, 108
15, 325770, Note_off_c, 14, 41, 56
15, 325800, Note_on_c, 14, 41, 108
15, 325891, Note_off_c, 14, 41, 56
15, 325920, Note_on_c, 14, 41, 108
15, 326011, Note_off_c, 14, 41, 56
15, 326039, Note_on_c, 14, 41, 108
15, 326130, Note_off_c, 14, 41, 56
15, 326161, Note_on_c, 14, 42, 108
15, 326252, Note_off_c, 14, 42, 56
15, 326279, Note_on_c, 14, 42, 108
15, 326370, Note_off_c, 14, 42, 56
15, 326400, Note_on_c, 14, 43, 108
15, 326491, Note_off_c, 14, 43, 56
15, 326521, Note_on_c, 14, 43, 108
15, 326612, Note_off_c, 14, 43, 56
15, 326639, Note_on_c, 14, 44, 108
15, 326730, Note_off_c, 14, 44, 56
15, 326760, Note_on_c, 14, 44, 108
15, 326851, Note_off_c, 14, 44, 56
15, 326880, Note_on_c, 14, 45, 108
15, 326971, Note_off_c, 14, 45, 56
15, 327001, Note_on_c, 14, 45, 108
15, 327092, Note_off_c, 14, 45, 56
15, 327120, Note_on_c, 14, 47, 108
15, 327211, Note_off_c, 14, 47, 56
15, 327241, Note_on_c, 14, 47, 108
15, 327332, Note_off_c, 14, 47, 56
15, 327359, Note_on_c, 14, 48, 108
15, 327450, Note_off_c, 14, 48, 56
15, 327479, Note_on_c, 14, 36, 108
15, 327570, Note_off_c, 14, 36, 56
15, 327600, Note_on_c, 14, 38, 108
15, 327691, Note_off_c, 14, 38, 56
15, 327720, Note_on_c, 14, 40, 108
15, 327811, Note_off_c, 14, 40, 56
15, 327838, Note_on_c, 14, 41, 108
15, 327960, Note_off_c, 14, 41, 64
15, 328801, Note_on_c, 14, 43, 108
15, 328923, Note_off_c, 14, 43, 64
15, 337441, Note_on_c, 14, 40, 90
15, 338024, Note_off_c, 14, 40, 64
15, 338161, Note_on_c, 14, 38, 90
15, 338345, Note_off_c, 14, 38, 64
15, 338401, Note_on_c, 14, 36, 90
15, 338585, Note_off_c, 14, 36, 64
15, 338638, Note_on_c, 14, 35, 90
15, 338822, Note_off_c, 14, 35, 64
15, 338880, Note_on_c, 14, 35, 90
15, 339064, Note_off_c, 14, 35, 64
15, 339119, Note_on_c, 14, 35, 90
15, 339303, Note_off_c, 14, 35, 64
15, 339358, Note_on_c, 14, 40, 90
15, 339941, Note_off_c, 14, 40, 64
15, 340079, Note_on_c, 14, 38, 90
15, 340263, Note_off_c, 14, 38, 64
15, 340323, Note_on_c, 14, 36, 90
15, 340507, Note_off_c, 14, 36, 64
15, 340557, Note_on_c, 14, 35, 90
15, 340741, Note_off_c, 14, 35, 64
15, 340797, Note_on_c, 14, 35, 90
15, 340981, Note_off_c, 14, 35, 64
15, 341038, Note_on_c, 14, 35, 90
15, 341222, Note_off_c, 14, 35, 64
15, 341277, Note_on_c, 14, 35, 90
15, 341860, Note_off_c, 14, 35, 64
15, 342002, Note_on_c, 14, 36, 90
15, 342186, Note_off_c, 14, 36, 64
15, 342239, Note_on_c, 14, 29, 90
15, 342423, Note_off_c, 14, 29, 64
15, 342483, Note_on_c, 14, 28, 90
15, 342667, Note_off_c, 14, 28, 64
15, 342719, Note_on_c, 14, 28, 90
15, 342903, Note_off_c, 14, 28, 64
15, 342963, Note_on_c, 14, 28, 93
15, 343147, Note_off_c, 14, 28, 64
15, 343201, Note_on_c, 14, 28, 94
15, 343385, Note_off_c, 14, 28, 64
15, 343442, Note_on_c, 14, 28, 96
15, 343626, Note_off_c, 14, 28, 64
15, 343677, Note_on_c, 14, 28, 97
15, 343861, Note_off_c, 14, 28, 64
15, 343923, Note_on_c, 14, 28, 100
15, 344107, Note_off_c, 14, 28, 64
15, 344160, Note_on_c, 14, 28, 101
15, 344344, Note_off_c, 14, 28, 64
15, 344397, Note_on_c, 14, 28, 103
15, 344581, Note_off_c, 14, 28, 64
15, 344638, Note_on_c, 14, 28, 104
15, 344822, Note_off_c, 14, 28, 64
15, 344877, Note_on_c, 14, 28, 106
15, 345061, Note_off_c, 14, 28, 64
15, 345122, Note_on_c, 14, 29, 108
15, 347906, Note_off_c, 14, 29, 64
15, 347997, Note_on_c, 14, 30, 108
15, 349821, Note_off_c, 14, 30, 64
15, 349920, Note_on_c, 14, 31, 96
15, 351744, Note_off_c, 14, 31, 64
15, 351840, Note_on_c, 14, 31, 96
15, 353664, Note_off_c, 14, 31, 64
15, 353763, Note_on_c, 14, 31, 96
15, 355587, Note_off_c, 14, 31, 64
15, 355682, Note_on_c, 14, 31, 96
15, 357506, Note_off_c, 14, 31, 64
15, 357599, Note_on_c, 14, 31, 96
15, 357600, Note_on_c, 14, 36, 99
15, 357654, Note_off_c, 14, 36, 56
15, 357681, Note_on_c, 14, 48, 99
15, 357735, Note_off_c, 14, 48, 56
15, 357761, Note_on_c, 14, 48, 100
15, 357815, Note_off_c, 14, 48, 56
15, 358182, Note_off_c, 14, 31, 64
15, 358560, Control_c, 14, 7, 100
15, 358560, Program_c, 14, 44
15, 358561, Note_on_c, 14, 31, 102
15, 358615, Note_off_c, 14, 31, 56
15, 358641, Note_on_c, 14, 43, 102
15, 358695, Note_off_c, 14, 43, 56
15, 358721, Note_on_c, 14, 43, 103
15, 358775, Note_off_c, 14, 43, 56
15, 358801, Note_on_c, 14, 43, 103
15, 358855, Note_off_c, 14, 43, 56
15, 358880, Note_on_c, 14, 43, 103
15, 358934, Note_off_c, 14, 43, 56
15, 358960, Note_on_c, 14, 43, 103
15, 359014, Note_off_c, 14, 43, 56
15, 359041, Note_on_c, 14, 36, 105
15, 359095, Note_off_c, 14, 36, 56
15, 359119, Note_on_c, 14, 48, 105
15, 359173, Note_off_c, 14, 48, 56
15, 359200, Note_on_c, 14, 48, 105
15, 359254, Note_off_c, 14, 48, 56
15, 359280, Note_on_c, 14, 48, 105
15, 359334, Note_off_c, 14, 48, 56
15, 359361, Note_on_c, 14, 48, 106
15, 359415, Note_off_c, 14, 48, 56
15, 359439, Note_on_c, 14, 48, 106
15, 359493, Note_off_c, 14, 48, 56
15, 359521, Note_on_c, 14, 38, 106
15, 359575, Note_off_c, 14, 38, 56
15, 359599, Note_on_c, 14, 50, 106
15, 359653, Note_off_c, 14, 50, 56
15, 359679, Note_on_c, 14, 50, 107
15, 359733, Note_off_c, 14, 50, 56
15, 359760, Note_on_c, 14, 50, 107
15, 359814, Note_off_c, 14, 50, 56
15, 359841, Note_on_c, 14, 50, 107
15, 359895, Note_off_c, 14, 50, 56
15, 359921, Note_on_c, 14, 50, 107
15, 359975, Note_off_c, 14, 50, 56
15, 360000, Note_on_c, 14, 50, 108
15, 360054, Note_off_c, 14, 50, 56
15, 360080, Note_on_c, 14, 50, 108
15, 360134, Note_off_c, 14, 50, 56
15, 360161, Note_on_c, 14, 50, 108
15, 360215, Note_off_c, 14, 50, 56
15, 360240, Note_on_c, 14, 50, 108
15, 360294, Note_off_c, 14, 50, 56
15, 360321, Note_on_c, 14, 50, 109
15, 360375, Note_off_c, 14, 50, 56
15, 360400, Note_on_c, 14, 50, 109
15, 360454, Note_off_c, 14, 50, 56
15, 360480, Note_on_c, 14, 37, 109
15, 360534, Note_off_c, 14, 37, 56
15, 360559, Note_on_c, 14, 49, 109
15, 360613, Note_off_c, 14, 49, 56
15, 360641, Note_on_c, 14, 49, 110
15, 360695, Note_off_c, 14, 49, 56
15, 360721, Note_on_c, 14, 49, 110
15, 360775, Note_off_c, 14, 49, 56
15, 360799, Note_on_c, 14, 49, 110
15, 360853, Note_off_c, 14, 49, 56
15, 360880, Note_on_c, 14, 49, 110
15, 360934, Note_off_c, 14, 49, 56
15, 360959, Note_on_c, 14, 38, 111
15, 361013, Note_off_c, 14, 38, 56
15, 361039, Note_on_c, 14, 50, 111
15, 361093, Note_off_c, 14, 50, 56
15, 361120, Note_on_c, 14, 50, 111
15, 361174, Note_off_c, 14, 50, 56
15, 361200, Note_on_c, 14, 50, 111
15, 361254, Note_off_c, 14, 50, 56
15, 361281, Note_on_c, 14, 50, 113
15, 361335, Note_off_c, 14, 50, 56
15, 361361, Note_on_c, 14, 50, 113
15, 361415, Note_off_c, 14, 50, 56
15, 361440, Note_on_c, 14, 40, 113
15, 361494, Note_off_c, 14, 40, 56
15, 361520, Note_on_c, 14, 52, 113
15, 361574, Note_off_c, 14, 52, 56
15, 361600, Note_on_c, 14, 52, 113
15, 361654, Note_off_c, 14, 52, 56
15, 361679, Note_on_c, 14, 52, 113
15, 361733, Note_off_c, 14, 52, 56
15, 361760, Note_on_c, 14, 52, 113
15, 361814, Note_off_c, 14, 52, 56
15, 361841, Note_on_c, 14, 52, 113
15, 361895, Note_off_c, 14, 52, 56
15, 361921, Note_on_c, 14, 40, 113
15, 361975, Note_off_c, 14, 40, 56
15, 362000, Note_on_c, 14, 52, 113
15, 362054, Note_off_c, 14, 52, 56
15, 362080, Note_on_c, 14, 52, 113
15, 362134, Note_off_c, 14, 52, 56
15, 362159, Note_on_c, 14, 52, 113
15, 362213, Note_off_c, 14, 52, 56
15, 362240, Note_on_c, 14, 52, 113
15, 362294, Note_off_c, 14, 52, 56
15, 362321, Note_on_c, 14, 52, 113
15, 362375, Note_off_c, 14, 52, 56
15, 362399, Note_on_c, 14, 40, 113
15, 362453, Note_off_c, 14, 40, 56
15, 362479, Note_on_c, 14, 52, 113
15, 362533, Note_off_c, 14, 52, 56
15, 362559, Note_on_c, 14, 52, 113
15, 362613, Note_off_c, 14, 52, 56
15, 362639, Note_on_c, 14, 52, 113
15, 362693, Note_off_c, 14, 52, 56
15, 362720, Note_on_c, 14, 52, 113
15, 362774, Note_off_c, 14, 52, 56
15, 362800, Note_on_c, 14, 52, 113
15, 362854, Note_off_c, 14, 52, 56
15, 362880, Note_on_c, 14, 40, 113
15, 362934, Note_off_c, 14, 40, 56
15, 362959, Note_on_c, 14, 52, 113
15, 363013, Note_off_c, 14, 52, 56
15, 363039, Note_on_c, 14, 52, 113
15, 363093, Note_off_c, 14, 52, 56
15, 363121, Note_on_c, 14, 52, 113
15, 363175, Note_off_c, 14, 52, 56
15, 363200, Note_on_c, 14, 52, 113
15, 363254, Note_off_c, 14, 52, 56
15, 363279, Note_on_c, 14, 52, 113
15, 363333, Note_off_c, 14, 52, 56
15, 363360, Note_on_c, 14, 41, 108
15, 363360, Control_c, 14, 7, 80
15, 363360, Program_c, 14, 43
15, 363441, Note_off_c, 14, 41, 56
15, 363481, Note_on_c, 14, 29, 108
15, 363562, Note_off_c, 14, 29, 56
15, 363599, Note_on_c, 14, 29, 108
15, 363680, Note_off_c, 14, 29, 56
15, 363721, Note_on_c, 14, 29, 108
15, 363802, Note_off_c, 14, 29, 56
15, 363840, Note_on_c, 14, 29, 108
15, 363921, Note_off_c, 14, 29, 56
15, 363961, Note_on_c, 14, 29, 108
15, 364042, Note_off_c, 14, 29, 56
15, 364080, Note_on_c, 14, 29, 108
15, 364161, Note_off_c, 14, 29, 56
15, 364200, Note_on_c, 14, 29, 108
15, 364281, Note_off_c, 14, 29, 56
15, 364321, Note_on_c, 14, 29, 108
15, 364402, Note_off_c, 14, 29, 56
15, 364441, Note_on_c, 14, 29, 108
15, 364522, Note_off_c, 14, 29, 56
15, 364560, Note_on_c, 14, 29, 108
15, 364641, Note_off_c, 14, 29, 56
15, 364681, Note_on_c, 14, 29, 108
15, 364762, Note_off_c, 14, 29, 56
15, 364799, Note_on_c, 14, 29, 108
15, 364880, Note_off_c, 14, 29, 56
15, 364920, Note_on_c, 14, 29, 108
15, 365001, Note_off_c, 14, 29, 56
15, 365039, Note_on_c, 14, 29, 108
15, 365120, Note_off_c, 14, 29, 56
15, 365161, Note_on_c, 14, 29, 108
15, 365242, Note_off_c, 14, 29, 56
15, 365281, Note_on_c, 14, 29, 108
15, 365362, Note_off_c, 14, 29, 56
15, 365400, Note_on_c, 14, 29, 108
15, 365481, Note_off_c, 14, 29, 56
15, 365520, Note_on_c, 14, 29, 108
15, 365601, Note_off_c, 14, 29, 56
15, 365641, Note_on_c, 14, 29, 108
15, 365722, Note_off_c, 14, 29, 56
15, 365759, Note_on_c, 14, 29, 108
15, 365840, Note_off_c, 14, 29, 56
15, 365879, Note_on_c, 14, 29, 108
15, 365960, Note_off_c, 14, 29, 56
15, 366000, Note_on_c, 14, 29, 108
15, 366081, Note_off_c, 14, 29, 56
15, 366121, Note_on_c, 14, 29, 108
15, 366202, Note_off_c, 14, 29, 56
15, 366241, Note_on_c, 14, 29, 108
15, 366322, Note_off_c, 14, 29, 56
15, 366359, Note_on_c, 14, 29, 108
15, 366440, Note_off_c, 14, 29, 56
15, 366481, Note_on_c, 14, 29, 108
15, 366562, Note_off_c, 14, 29, 56
15, 366600, Note_on_c, 14, 29, 108
15, 366681, Note_off_c, 14, 29, 56
15, 366720, Note_on_c, 14, 29, 108
15, 366801, Note_off_c, 14, 29, 56
15, 366841, Note_on_c, 14, 29, 108
15, 366922, Note_off_c, 14, 29, 56
15, 366961, Note_on_c, 14, 29, 108
15, 367042, Note_off_c, 14, 29, 56
15, 367080, Note_on_c, 14, 29, 108
15, 367161, Note_off_c, 14, 29, 56
15, 367199, Note_on_c, 14, 31, 108
15, 367321, Note_off_c, 14, 31, 64
15, 368162, Note_on_c, 14, 31, 108
15, 368284, Note_off_c, 14, 31, 64
15, 369119, Note_on_c, 14, 36, 108
15, 369241, Note_off_c, 14, 36, 64
15, 370081, Note_on_c, 14, 31, 108
15, 370203, Note_off_c, 14, 31, 64
15, 371042, Note_on_c, 14, 36, 108
15, 371164, Note_off_c, 14, 36, 64
15, 372000, Note_on_c, 14, 31, 108
15, 372122, Note_off_c, 14, 31, 64
15, 380640, Note_on_c, 14, 29, 74
15, 380737, Note_off_c, 14, 29, 56
15, 380761, Note_on_c, 14, 31, 77
15, 380858, Note_off_c, 14, 31, 56
15, 380882, Note_on_c, 14, 29, 79
15, 380979, Note_off_c, 14, 29, 56
15, 381001, Note_on_c, 14, 31, 80
15, 381098, Note_off_c, 14, 31, 56
15, 381120, Note_on_c, 14, 29, 82
15, 381217, Note_off_c, 14, 29, 56
15, 381239, Note_on_c, 14, 31, 85
15, 381336, Note_off_c, 14, 31, 56
15, 381359, Note_on_c, 14, 29, 87
15, 381456, Note_off_c, 14, 29, 56
15, 381480, Note_on_c, 14, 31, 88
15, 381577, Note_off_c, 14, 31, 56
15, 381599, Note_on_c, 14, 28, 90
15, 381783, Note_off_c, 14, 28, 64
15, 381842, Note_on_c, 14, 38, 90
15, 382036, Note_off_c, 14, 38, 64
15, 382078, Note_on_c, 14, 36, 90
15, 382272, Note_off_c, 14, 36, 64
15, 382320, Note_on_c, 14, 35, 90
15, 382514, Note_off_c, 14, 35, 64
15, 382557, Note_on_c, 14, 33, 90
15, 382751, Note_off_c, 14, 33, 64
15, 382798, Note_on_c, 14, 31, 90
15, 382992, Note_off_c, 14, 31, 64
15, 383039, Note_on_c, 14, 29, 90
15, 383233, Note_off_c, 14, 29, 64
15, 383283, Note_on_c, 14, 28, 90
15, 383467, Note_off_c, 14, 28, 64
15, 383523, Note_on_c, 14, 29, 90
15, 384106, Note_off_c, 14, 29, 64
15, 384241, Note_on_c, 14, 31, 90
15, 384363, Note_off_c, 14, 31, 64
15, 384481, Note_on_c, 14, 33, 90
15, 385064, Note_off_c, 14, 33, 64
15, 385202, Note_on_c, 14, 31, 90
15, 385324, Note_off_c, 14, 31, 64
15, 385442, Note_on_c, 14, 30, 90
15, 386025, Note_off_c, 14, 30, 64
15, 386158, Note_on_c, 14, 31, 90
15, 386280, Note_off_c, 14, 31, 64
15, 386398, Note_on_c, 14, 32, 90
15, 386981, Note_off_c, 14, 32, 64
15, 387118, Note_on_c, 14, 33, 90
15, 387240, Note_off_c, 14, 33, 64
15, 387361, Note_on_c, 14, 35, 90
15, 387545, Note_off_c, 14, 35, 64
15, 387840, Note_on_c, 14, 36, 73
15, 388024, Note_off_c, 14, 36, 64
15, 388321, Note_on_c, 14, 29, 73
15, 388505, Note_off_c, 14, 29, 64
15, 388802, Note_on_c, 14, 31, 73
15, 388986, Note_off_c, 14, 31, 64
15, 389037, Note_on_c, 14, 31, 90
15, 389231, Note_off_c, 14, 31, 64
15, 389277, Note_on_c, 14, 36, 90
15, 389471, Note_off_c, 14, 36, 64
15, 389519, Note_on_c, 14, 31, 90
15, 389713, Note_off_c, 14, 31, 64
15, 389761, Note_on_c, 14, 40, 90
15, 389955, Note_off_c, 14, 40, 64
15, 389998, Note_on_c, 14, 38, 90
15, 390143, Note_off_c, 14, 38, 64
15, 390180, Note_on_c, 14, 36, 95
15, 390225, Note_off_c, 14, 36, 56
15, 390237, Note_on_c, 14, 43, 90
15, 390820, Note_off_c, 14, 43, 64
15, 395038, Note_on_c, 14, 29, 73
15, 395135, Note_off_c, 14, 29, 56
15, 395159, Note_on_c, 14, 31, 74
15, 395256, Note_off_c, 14, 31, 56
15, 395278, Note_on_c, 14, 29, 74
15, 395375, Note_off_c, 14, 29, 56
15, 395402, Note_on_c, 14, 31, 75
15, 395499, Note_off_c, 14, 31, 56
15, 395519, Note_on_c, 14, 29, 75
15, 395616, Note_off_c, 14, 29, 56
15, 395641, Note_on_c, 14, 31, 77
15, 395738, Note_off_c, 14, 31, 56
15, 395758, Note_on_c, 14, 29, 78
15, 395855, Note_off_c, 14, 29, 56
15, 395880, Note_on_c, 14, 31, 78
15, 395977, Note_off_c, 14, 31, 56
15, 396002, Note_on_c, 14, 28, 79
15, 396099, Note_off_c, 14, 28, 56
15, 396122, Note_on_c, 14, 31, 80
15, 396219, Note_off_c, 14, 31, 56
15, 396238, Note_on_c, 14, 28, 80
15, 396335, Note_off_c, 14, 28, 56
15, 396360, Note_on_c, 14, 31, 81
15, 396457, Note_off_c, 14, 31, 56
15, 396482, Note_on_c, 14, 28, 82
15, 396579, Note_off_c, 14, 28, 56
15, 396600, Note_on_c, 14, 31, 82
15, 396697, Note_off_c, 14, 31, 56
15, 396719, Note_on_c, 14, 28, 83
15, 396816, Note_off_c, 14, 28, 56
15, 396841, Note_on_c, 14, 31, 83
15, 396938, Note_off_c, 14, 31, 56
15, 396960, Note_on_c, 14, 29, 85
15, 397057, Note_off_c, 14, 29, 56
15, 397078, Note_on_c, 14, 31, 86
15, 397175, Note_off_c, 14, 31, 56
15, 397202, Note_on_c, 14, 29, 86
15, 397299, Note_off_c, 14, 29, 56
15, 397321, Note_on_c, 14, 31, 87
15, 397418, Note_off_c, 14, 31, 56
15, 397439, Note_on_c, 14, 29, 88
15, 397536, Note_off_c, 14, 29, 56
15, 397561, Note_on_c, 14, 31, 88
15, 397658, Note_off_c, 14, 31, 56
15, 397679, Note_on_c, 14, 29, 89
15, 397776, Note_off_c, 14, 29, 56
15, 397798, Note_on_c, 14, 31, 89
15, 397895, Note_off_c, 14, 31, 56
15, 397923, Note_on_c, 14, 28, 90
15, 398107, Note_off_c, 14, 28, 64
15, 398161, Note_on_c, 14, 38, 90
15, 398355, Note_off_c, 14, 38, 64
15, 398399, Note_on_c, 14, 36, 90
15, 398593, Note_off_c, 14, 36, 64
15, 398640, Note_on_c, 14, 35, 90
15, 398834, Note_off_c, 14, 35, 64
15, 398881, Note_on_c, 14, 33, 90
15, 399075, Note_off_c, 14, 33, 64
15, 399117, Note_on_c, 14, 31, 90
15, 399311, Note_off_c, 14, 31, 64
15, 399360, Note_on_c, 14, 29, 90
15, 399554, Note_off_c, 14, 29, 64
15, 399600, Note_on_c, 14, 28, 90
15, 399794, Note_off_c, 14, 28, 64
15, 399841, Note_on_c, 14, 29, 90
15, 400424, Note_off_c, 14, 29, 64
15, 400558, Note_on_c, 14, 31, 90
15, 400680, Note_off_c, 14, 31, 64
15, 400797, Note_on_c, 14, 33, 90
15, 401380, Note_off_c, 14, 33, 64
15, 401518, Note_on_c, 14, 31, 90
15, 401640, Note_off_c, 14, 31, 64
15, 401763, Note_on_c, 14, 30, 90
15, 402346, Note_off_c, 14, 30, 64
15, 402478, Note_on_c, 14, 31, 90
15, 402600, Note_off_c, 14, 31, 64
15, 402721, Note_on_c, 14, 32, 90
15, 403304, Note_off_c, 14, 32, 64
15, 403438, Note_on_c, 14, 33, 90
15, 403560, Note_off_c, 14, 33, 64
15, 403680, Note_on_c, 14, 34, 73
15, 403864, Note_off_c, 14, 34, 64
15, 404161, Note_on_c, 14, 46, 74
15, 404345, Note_off_c, 14, 46, 64
15, 404638, Note_on_c, 14, 44, 74
15, 404822, Note_off_c, 14, 44, 64
15, 405117, Note_on_c, 14, 44, 75
15, 405301, Note_off_c, 14, 44, 64
15, 405602, Note_on_c, 14, 43, 77
15, 405786, Note_off_c, 14, 43, 64
15, 406081, Note_on_c, 14, 43, 77
15, 406265, Note_off_c, 14, 43, 64
15, 406558, Note_on_c, 14, 43, 78
15, 406742, Note_off_c, 14, 43, 64
15, 407038, Note_on_c, 14, 46, 78
15, 407222, Note_off_c, 14, 46, 64
15, 407521, Note_on_c, 14, 46, 79
15, 407705, Note_off_c, 14, 46, 64
15, 408000, Note_on_c, 14, 46, 80
15, 408184, Note_off_c, 14, 46, 64
15, 408483, Note_on_c, 14, 44, 80
15, 408667, Note_off_c, 14, 44, 64
15, 408962, Note_on_c, 14, 44, 81
15, 409146, Note_off_c, 14, 44, 64
15, 409441, Note_on_c, 14, 43, 82
15, 409625, Note_off_c, 14, 43, 64
15, 409918, Note_on_c, 14, 43, 82
15, 410102, Note_off_c, 14, 43, 64
15, 410401, Note_on_c, 14, 43, 83
15, 410585, Note_off_c, 14, 43, 64
15, 410883, Note_on_c, 14, 46, 83
15, 411067, Note_off_c, 14, 46, 64
15, 411361, Note_on_c, 14, 46, 85
15, 411545, Note_off_c, 14, 46, 64
15, 411841, Note_on_c, 14, 46, 86
15, 412025, Note_off_c, 14, 46, 64
15, 412323, Note_on_c, 14, 44, 86
15, 412507, Note_off_c, 14, 44, 64
15, 412799, Note_on_c, 14, 44, 87
15, 412983, Note_off_c, 14, 44, 64
15, 413279, Note_on_c, 14, 43, 88
15, 413463, Note_off_c, 14, 43, 64
15, 413760, Note_on_c, 14, 43, 88
15, 413944, Note_off_c, 14, 43, 64
15, 414237, Note_on_c, 14, 43, 89
15, 414421, Note_off_c, 14, 43, 64
15, 414720, Note_on_c, 14, 31, 89
15, 414904, Note_off_c, 14, 31, 64
15, 415201, Note_on_c, 14, 36, 73
15, 415321, Note_off_c, 14, 36, 56
15, 415801, Note_on_c, 14, 31, 73
15, 415897, Note_off_c, 14, 31, 56
15, 415918, Note_on_c, 14, 31, 73
15, 416014, Note_off_c, 14, 31, 56
15, 416041, Note_on_c, 14, 31, 73
15, 416137, Note_off_c, 14, 31, 56
15, 416159, Note_on_c, 14, 36, 73
15, 416255, Note_off_c, 14, 36, 56
15, 416759, Note_on_c, 14, 31, 73
15, 416855, Note_off_c, 14, 31, 56
15, 416881, Note_on_c, 14, 31, 73
15, 416977, Note_off_c, 14, 31, 56
15, 417000, Note_on_c, 14, 31, 73
15, 417096, Note_off_c, 14, 31, 56
15, 417118, Note_on_c, 14, 36, 73
15, 417214, Note_off_c, 14, 36, 56
15, 417722, Note_on_c, 14, 31, 73
15, 417818, Note_off_c, 14, 31, 56
15, 417839, Note_on_c, 14, 31, 73
15, 417935, Note_off_c, 14, 31, 56
15, 417962, Note_on_c, 14, 31, 73
15, 418058, Note_off_c, 14, 31, 56
15, 418079, Note_on_c, 14, 36, 73
15, 418175, Note_off_c, 14, 36, 56
15, 418681, Note_on_c, 14, 31, 73
15, 418777, Note_off_c, 14, 31, 56
15, 418801, Note_on_c, 14, 31, 73
15, 418897, Note_off_c, 14, 31, 56
15, 418919, Note_on_c, 14, 31, 73
15, 419015, Note_off_c, 14, 31, 56
15, 419038, Note_on_c, 14, 36, 73
15, 419134, Note_off_c, 14, 36, 56
15, 419641, Note_on_c, 14, 31, 73
15, 419737, Note_off_c, 14, 31, 56
15, 419759, Note_on_c, 14, 31, 73
15, 419855, Note_off_c, 14, 31, 56
15, 419878, Note_on_c, 14, 31, 73
15, 419974, Note_off_c, 14, 31, 56
15, 420001, Note_on_c, 14, 36, 73
15, 420097, Note_off_c, 14, 36, 56
15, 420599, Note_on_c, 14, 31, 73
15, 420695, Note_off_c, 14, 31, 56
15, 420722, Note_on_c, 14, 31, 73
15, 420818, Note_off_c, 14, 31, 56
15, 420838, Note_on_c, 14, 31, 73
15, 420934, Note_off_c, 14, 31, 56
15, 420958, Note_on_c, 14, 36, 73
15, 421054, Note_off_c, 14, 36, 56
15, 421560, Note_on_c, 14, 31, 73
15, 421656, Note_off_c, 14, 31, 56
15, 421681, Note_on_c, 14, 31, 73
15, 421777, Note_off_c, 14, 31, 56
15, 421802, Note_on_c, 14, 31, 73
15, 421898, Note_off_c, 14, 31, 56
15, 421918, Note_on_c, 14, 36, 73
15, 422014, Note_off_c, 14, 36, 56
15, 422522, Note_on_c, 14, 31, 73
15, 422618, Note_off_c, 14, 31, 56
15, 422638, Note_on_c, 14, 31, 73
15, 422734, Note_off_c, 14, 31, 56
15, 422761, Note_on_c, 14, 31, 73
15, 422857, Note_off_c, 14, 31, 56
15, 422882, Note_on_c, 14, 46, 73
15, 422978, Note_off_c, 14, 46, 56
15, 423122, Note_on_c, 14, 46, 74
15, 423218, Note_off_c, 14, 46, 56
15, 423358, Note_on_c, 14, 44, 75
15, 423454, Note_off_c, 14, 44, 56
15, 423599, Note_on_c, 14, 44, 78
15, 423695, Note_off_c, 14, 44, 56
15, 423839, Note_on_c, 14, 43, 79
15, 423935, Note_off_c, 14, 43, 56
15, 424079, Note_on_c, 14, 43, 80
15, 424175, Note_off_c, 14, 43, 56
15, 424318, Note_on_c, 14, 43, 81
15, 424414, Note_off_c, 14, 43, 56
15, 424559, Note_on_c, 14, 46, 83
15, 424655, Note_off_c, 14, 46, 56
15, 424798, Note_on_c, 14, 46, 85
15, 424894, Note_off_c, 14, 46, 56
15, 425040, Note_on_c, 14, 46, 86
15, 425136, Note_off_c, 14, 46, 56
15, 425280, Note_on_c, 14, 44, 87
15, 425376, Note_off_c, 14, 44, 56
15, 425521, Note_on_c, 14, 44, 89
15, 425617, Note_off_c, 14, 44, 56
15, 425759, Note_on_c, 14, 43, 90
15, 425855, Note_off_c, 14, 43, 56
15, 426001, Note_on_c, 14, 43, 92
15, 426097, Note_off_c, 14, 43, 56
15, 426241, Note_on_c, 14, 43, 93
15, 426337, Note_off_c, 14, 43, 56
15, 426482, Note_on_c, 14, 46, 95
15, 426578, Note_off_c, 14, 46, 56
15, 426601, Note_on_c, 14, 46, 95
15, 426697, Note_off_c, 14, 46, 56
15, 426718, Note_on_c, 14, 46, 96
15, 426814, Note_off_c, 14, 46, 56
15, 426839, Note_on_c, 14, 46, 96
15, 426935, Note_off_c, 14, 46, 56
15, 426961, Note_on_c, 14, 46, 97
15, 427057, Note_off_c, 14, 46, 56
15, 427082, Note_on_c, 14, 46, 98
15, 427178, Note_off_c, 14, 46, 56
15, 427200, Note_on_c, 14, 44, 98
15, 427296, Note_off_c, 14, 44, 56
15, 427319, Note_on_c, 14, 44, 100
15, 427415, Note_off_c, 14, 44, 56
15, 427439, Note_on_c, 14, 44, 101
15, 427535, Note_off_c, 14, 44, 56
15, 427559, Note_on_c, 14, 44, 101
15, 427655, Note_off_c, 14, 44, 56
15, 427681, Note_on_c, 14, 43, 102
15, 427777, Note_off_c, 14, 43, 56
15, 427799, Note_on_c, 14, 43, 102
15, 427895, Note_off_c, 14, 43, 56
15, 427921, Note_on_c, 14, 43, 103
15, 428017, Note_off_c, 14, 43, 56
15, 428039, Note_on_c, 14, 43, 104
15, 428135, Note_off_c, 14, 43, 56
15, 428162, Note_on_c, 14, 31, 104
15, 428258, Note_off_c, 14, 31, 56
15, 428278, Note_on_c, 14, 31, 105
15, 428374, Note_off_c, 14, 31, 56
15, 428399, Note_on_c, 14, 31, 106
15, 428495, Note_off_c, 14, 31, 56
15, 428520, Note_on_c, 14, 31, 106
15, 428616, Note_off_c, 14, 31, 56
15, 428641, Note_on_c, 14, 36, 108
15, 428737, Note_off_c, 14, 36, 56
15, 429122, Note_on_c, 14, 36, 108
15, 429314, Note_off_c, 14, 36, 67
15, 429362, Note_on_c, 14, 40, 108
15, 429554, Note_off_c, 14, 40, 68
15, 429602, Note_on_c, 14, 43, 108
15, 429890, Note_off_c, 14, 43, 68
15, 429959, Note_on_c, 14, 41, 108
15, 430055, Note_off_c, 14, 41, 56
15, 430079, Note_on_c, 14, 40, 108
15, 430175, Note_off_c, 14, 40, 56
15, 430202, Note_on_c, 14, 38, 108
15, 430298, Note_off_c, 14, 38, 56
15, 430321, Note_on_c, 14, 36, 108
15, 430417, Note_off_c, 14, 36, 56
15, 430441, Note_on_c, 14, 38, 108
15, 430537, Note_off_c, 14, 38, 56
15, 430563, Note_on_c, 14, 40, 108
15, 430851, Note_off_c, 14, 40, 68
15, 430919, Note_on_c, 14, 40, 108
15, 431015, Note_off_c, 14, 40, 56
15, 431038, Note_on_c, 14, 40, 108
15, 431134, Note_off_c, 14, 40, 56
15, 431159, Note_on_c, 14, 38, 108
15, 431255, Note_off_c, 14, 38, 56
15, 431281, Note_on_c, 14, 40, 108
15, 431377, Note_off_c, 14, 40, 56
15, 431401, Note_on_c, 14, 41, 108
15, 431497, Note_off_c, 14, 41, 56
15, 431523, Note_on_c, 14, 43, 108
15, 431811, Note_off_c, 14, 43, 69
15, 431882, Note_on_c, 14, 43, 108
15, 431978, Note_off_c, 14, 43, 56
15, 432000, Note_on_c, 14, 43, 108
15, 432096, Note_off_c, 14, 43, 56
15, 432119, Note_on_c, 14, 41, 108
15, 432215, Note_off_c, 14, 41, 56
15, 432240, Note_on_c, 14, 43, 108
15, 432336, Note_off_c, 14, 43, 56
15, 432359, Note_on_c, 14, 47, 108
15, 432455, Note_off_c, 14, 47, 56
15, 432480, Note_on_c, 14, 48, 108
15, 432576, Note_off_c, 14, 48, 56
15, 432598, Note_on_c, 14, 47, 108
15, 432694, Note_off_c, 14, 47, 56
15, 432722, Note_on_c, 14, 48, 108
15, 432818, Note_off_c, 14, 48, 56
15, 432841, Note_on_c, 14, 50, 108
15, 432937, Note_off_c, 14, 50, 56
15, 432960, Note_on_c, 14, 52, 108
15, 433056, Note_off_c, 14, 52, 56
15, 433081, Note_on_c, 14, 38, 108
15, 433177, Note_off_c, 14, 38, 56
15, 433200, Note_on_c, 14, 40, 108
15, 433296, Note_off_c, 14, 40, 56
15, 433318, Note_on_c, 14, 41, 108
15, 433414, Note_off_c, 14, 41, 56
15, 433438, Note_on_c, 14, 43, 108
15, 434206, Note_off_c, 14, 43, 69
15, 434398, Note_on_c, 14, 40, 108
15, 435166, Note_off_c, 14, 40, 69
15, 435358, Note_on_c, 14, 36, 108
15, 435478, Note_off_c, 14, 36, 56
15, 435840, Note_on_c, 14, 31, 108
15, 435960, Note_off_c, 14, 31, 56
15, 436319, Note_on_c, 14, 36, 108
15, 436439, Note_off_c, 14, 36, 56
15, 436800, Note_on_c, 14, 31, 108
15, 436920, Note_off_c, 14, 31, 56
15, 437280, Note_on_c, 14, 36, 108
15, 437400, Note_off_c, 14, 36, 56
15, 437758, Note_on_c, 14, 31, 108
15, 437878, Note_off_c, 14, 31, 56
15, 438239, Note_on_c, 14, 36, 108
15, 438359, Note_off_c, 14, 36, 56
15, 438722, Note_on_c, 14, 31, 108
15, 438842, Note_off_c, 14, 31, 56
15, 439201, Note_on_c, 14, 36, 108
15, 439321, Note_off_c, 14, 36, 56
15, 439680, Note_on_c, 14, 31, 108
15, 439800, Note_off_c, 14, 31, 56
15, 440158, Note_on_c, 14, 36, 108
15, 440278, Note_off_c, 14, 36, 56
15, 440638, Note_on_c, 14, 31, 108
15, 440758, Note_off_c, 14, 31, 56
15, 441119, Note_on_c, 14, 48, 108
15, 441887, Note_off_c, 14, 48, 71
15, 442079, Note_on_c, 14, 48, 108
15, 442655, Note_off_c, 14, 48, 72
15, 442800, Note_on_c, 14, 43, 108
15, 442896, Note_off_c, 14, 43, 56
15, 442918, Note_on_c, 14, 40, 108
15, 443014, Note_off_c, 14, 40, 56
15, 443041, Note_on_c, 14, 36, 108
15, 443137, Note_off_c, 14, 36, 56
15, 443399, Note_on_c, 14, 36, 108
15, 443495, Note_off_c, 14, 36, 56
15, 443520, Note_on_c, 14, 36, 108
15, 443616, Note_off_c, 14, 36, 56
15, 443641, Note_on_c, 14, 36, 108
15, 443737, Note_off_c, 14, 36, 56
15, 443760, Note_on_c, 14, 36, 108
15, 443856, Note_off_c, 14, 36, 56
15, 443882, Note_on_c, 14, 36, 108
15, 443978, Note_off_c, 14, 36, 56
15, 443998, Note_on_c, 14, 36, 108
15, 444094, Note_off_c, 14, 36, 56
15, 444358, Note_on_c, 14, 36, 108
15, 444454, Note_off_c, 14, 36, 56
15, 444480, Note_on_c, 14, 36, 108
15, 444576, Note_off_c, 14, 36, 56
15, 444599, Note_on_c, 14, 36, 108
15, 444695, Note_off_c, 14, 36, 56
15, 444719, Note_on_c, 14, 36, 108
15, 444815, Note_off_c, 14, 36, 56
15, 444838, Note_on_c, 14, 36, 108
15, 444934, Note_off_c, 14, 36, 56
15, 444962, Note_on_c, 14, 36, 108
15, 445058, Note_off_c, 14, 36, 56
15, 445199, Note_on_c, 14, 36, 108
15, 445295, Note_off_c, 14, 36, 56
15, 445318, Note_on_c, 14, 36, 108
15, 445414, Note_off_c, 14, 36, 56
15, 445438, Note_on_c, 14, 36, 108
15, 445534, Note_off_c, 14, 36, 56
15, 445679, Note_on_c, 14, 36, 108
15, 445775, Note_off_c, 14, 36, 56
15, 445799, Note_on_c, 14, 36, 108
15, 445895, Note_off_c, 14, 36, 56
15, 445922, Note_on_c, 14, 36, 108
15, 446018, Note_off_c, 14, 36, 56
15, 446159, Note_on_c, 14, 36, 108
15, 446255, Note_off_c, 14, 36, 56
15, 446281, Note_on_c, 14, 36, 108
15, 446377, Note_off_c, 14, 36, 56
15, 446400, Note_on_c, 14, 36, 108
15, 446496, Note_off_c, 14, 36, 56
15, 446638, Note_on_c, 14, 36, 108
15, 446734, Note_off_c, 14, 36, 56
15, 446762, Note_on_c, 14, 36, 108
15, 446858, Note_off_c, 14, 36, 56
15, 446878, Note_on_c, 14, 36, 108
15, 446974, Note_off_c, 14, 36, 56
15, 447002, Note_on_c, 14, 40, 108
15, 447098, Note_off_c, 14, 40, 56
15, 447122, Note_on_c, 14, 43, 108
15, 447218, Note_off_c, 14, 43, 56
15, 447239, Note_on_c, 14, 48, 108
15, 447335, Note_off_c, 14, 48, 56
15, 447359, Note_on_c, 14, 52, 108
15, 447455, Note_off_c, 14, 52, 56
15, 447481, Note_on_c, 14, 55, 108
15, 447577, Note_off_c, 14, 55, 56
15, 447598, Note_on_c, 14, 52, 108
15, 447694, Note_off_c, 14, 52, 56
15, 447720, Note_on_c, 14, 48, 108
15, 447816, Note_off_c, 14, 48, 56
15, 447840, Note_on_c, 14, 43, 108
15, 447936, Note_off_c, 14, 43, 56
15, 447959, Note_on_c, 14, 40, 108
15, 448055, Note_off_c, 14, 40, 56
15, 448079, Note_on_c, 14, 36, 108
15, 448175, Note_off_c, 14, 36, 56
15, 448199, Note_on_c, 14, 31, 108
15, 448295, Note_off_c, 14, 31, 56
15, 448318, Note_on_c, 14, 28, 108
15, 448414, Note_off_c, 14, 28, 56
15, 448441, Note_on_c, 14, 24, 108
15, 448537, Note_off_c, 14, 24, 56
15, 448562, Note_on_c, 14, 36, 108
15, 448658, Note_off_c, 14, 36, 56
15, 448682, Note_on_c, 14, 36, 108
15, 448778, Note_off_c, 14, 36, 56
15, 448802, Note_on_c, 14, 36, 108
15, 448922, Note_off_c, 14, 36, 56
15, 449762, Note_on_c, 14, 36, 108
15, 449882, Note_off_c, 14, 36, 56
15, 450720, Note_on_c, 14, 36, 108
15, 450840, Note_off_c, 14, 36, 56
15, 451679, Note_on_c, 14, 36, 108
15, 451799, Note_off_c, 14, 36, 56
15, 452161, Note_on_c, 14, 36, 108
15, 452281, Note_off_c, 14, 36, 56
15, 452639, Note_on_c, 14, 36, 108
15, 452759, Note_off_c, 14, 36, 56
15, 453600, Note_on_c, 14, 36, 108
15, 453720, Note_off_c, 14, 36, 56
15, 454560, Note_on_c, 14, 36, 108
15, 455520, Note_off_c, 14, 36, 76
15, 455520, End_track
16, 0, Start_track
16, 0, Title_t, "Timp"
16, 0, Program_c, 15, 47
16, 0, Control_c, 15, 7, 110
16, 0, Note_on_c, 15, 48, 108
16, 0, Control_c, 15, 91, 67
16, 0, Control_c, 15, 93, 0
16, 0, Control_c, 15, 10, 63
16, 194, Note_off_c, 15, 48, 64
16, 480, Note_on_c, 15, 48, 108
16, 674, Note_off_c, 15, 48, 64
16, 960, Note_on_c, 15, 48, 108
16, 1154, Note_off_c, 15, 48, 64
16, 1680, Note_on_c, 15, 43, 108
16, 1766, Note_off_c, 15, 43, 56
16, 1920, Note_on_c, 15, 48, 108
16, 2006, Note_off_c, 15, 48, 56
16, 2160, Note_on_c, 15, 43, 108
16, 2246, Note_off_c, 15, 43, 56
16, 2400, Note_on_c, 15, 48, 108
16, 2486, Note_off_c, 15, 48, 56
16, 2640, Note_on_c, 15, 43, 108
16, 2726, Note_off_c, 15, 43, 56
16, 2880, Note_on_c, 15, 48, 108
16, 3074, Note_off_c, 15, 48, 64
16, 3600, Note_on_c, 15, 48, 108
16, 3745, Note_off_c, 15, 48, 64
16, 3780, Note_on_c, 15, 48, 108
16, 3822, Note_off_c, 15, 48, 56
16, 3840, Note_on_c, 15, 43, 108
16, 4034, Note_off_c, 15, 43, 64
16, 4560, Note_on_c, 15, 43, 108
16, 4705, Note_off_c, 15, 43, 64
16, 4740, Note_on_c, 15, 43, 108
16, 4782, Note_off_c, 15, 43, 56
16, 4800, Note_on_c, 15, 48, 108
16, 4994, Note_off_c, 15, 48, 64
16, 5400, Note_on_c, 15, 48, 108
16, 5486, Note_off_c, 15, 48, 56
16, 5520, Note_on_c, 15, 48, 108
16, 5606, Note_off_c, 15, 48, 56
16, 5640, Note_on_c, 15, 48, 108
16, 5726, Note_off_c, 15, 48, 56
16, 5760, Note_on_c, 15, 48, 108
16, 5954, Note_off_c, 15, 48, 64
16, 6000, Note_on_c, 15, 48, 108
16, 6086, Note_off_c, 15, 48, 56
16, 6120, Note_on_c, 15, 48, 108
16, 6206, Note_off_c, 15, 48, 56
16, 6240, Note_on_c, 15, 48, 108
16, 6434, Note_off_c, 15, 48, 64
16, 6480, Note_on_c, 15, 48, 108
16, 6566, Note_off_c, 15, 48, 56
16, 6600, Note_on_c, 15, 48, 108
16, 6686, Note_off_c, 15, 48, 56
16, 6720, Note_on_c, 15, 48, 108
16, 6762, Note_off_c, 15, 48, 56
16, 6780, Note_on_c, 15, 48, 108
16, 6822, Note_off_c, 15, 48, 56
16, 6840, Note_on_c, 15, 48, 108
16, 6840, Note_on_c, 15, 48, 108
16, 6882, Note_off_c, 15, 48, 56
16, 6882, Note_off_c, 15, 48, 56
16, 6900, Note_on_c, 15, 48, 108
16, 6942, Note_off_c, 15, 48, 56
16, 6960, Note_on_c, 15, 48, 108
16, 7002, Note_off_c, 15, 48, 56
16, 7020, Note_on_c, 15, 48, 108
16, 7062, Note_off_c, 15, 48, 56
16, 7080, Note_on_c, 15, 48, 108
16, 7122, Note_off_c, 15, 48, 56
16, 7140, Note_on_c, 15, 48, 108
16, 7182, Note_off_c, 15, 48, 56
16, 7200, Note_on_c, 15, 48, 108
16, 7286, Note_off_c, 15, 48, 56
16, 7320, Note_on_c, 15, 48, 108
16, 7406, Note_off_c, 15, 48, 56
16, 7440, Note_on_c, 15, 48, 108
16, 7526, Note_off_c, 15, 48, 56
16, 7560, Note_on_c, 15, 48, 108
16, 7646, Note_off_c, 15, 48, 56
16, 7680, Note_on_c, 15, 48, 108
16, 7874, Note_off_c, 15, 48, 64
16, 7920, Note_on_c, 15, 48, 108
16, 8006, Note_off_c, 15, 48, 56
16, 8040, Note_on_c, 15, 48, 108
16, 8126, Note_off_c, 15, 48, 56
16, 8160, Note_on_c, 15, 48, 108
16, 8354, Note_off_c, 15, 48, 64
16, 8400, Note_on_c, 15, 48, 108
16, 8486, Note_off_c, 15, 48, 56
16, 8520, Note_on_c, 15, 48, 108
16, 8606, Note_off_c, 15, 48, 56
16, 8640, Note_on_c, 15, 48, 108
16, 8682, Note_off_c, 15, 48, 56
16, 8700, Note_on_c, 15, 48, 108
16, 8742, Note_off_c, 15, 48, 56
16, 8760, Note_on_c, 15, 48, 108
16, 8802, Note_off_c, 15, 48, 56
16, 8820, Note_on_c, 15, 48, 108
16, 8862, Note_off_c, 15, 48, 56
16, 8880, Note_on_c, 15, 48, 108
16, 8922, Note_off_c, 15, 48, 56
16, 8940, Note_on_c, 15, 48, 108
16, 8982, Note_off_c, 15, 48, 56
16, 9000, Note_on_c, 15, 48, 108
16, 9042, Note_off_c, 15, 48, 56
16, 9060, Note_on_c, 15, 48, 108
16, 9102, Note_off_c, 15, 48, 56
16, 9120, Note_on_c, 15, 48, 108
16, 9206, Note_off_c, 15, 48, 56
16, 9240, Note_on_c, 15, 48, 108
16, 9326, Note_off_c, 15, 48, 56
16, 9360, Note_on_c, 15, 48, 108
16, 9446, Note_off_c, 15, 48, 56
16, 9480, Note_on_c, 15, 48, 108
16, 9566, Note_off_c, 15, 48, 56
16, 9600, Note_on_c, 15, 48, 108
16, 9794, Note_off_c, 15, 48, 64
16, 9840, Note_on_c, 15, 48, 108
16, 9926, Note_off_c, 15, 48, 56
16, 9960, Note_on_c, 15, 48, 108
16, 10046, Note_off_c, 15, 48, 56
16, 10080, Note_on_c, 15, 48, 108
16, 10274, Note_off_c, 15, 48, 64
16, 10320, Note_on_c, 15, 48, 108
16, 10406, Note_off_c, 15, 48, 56
16, 10440, Note_on_c, 15, 48, 108
16, 10526, Note_off_c, 15, 48, 56
16, 10560, Note_on_c, 15, 48, 108
16, 10602, Note_off_c, 15, 48, 56
16, 10620, Note_on_c, 15, 48, 108
16, 10662, Note_off_c, 15, 48, 56
16, 10680, Note_on_c, 15, 48, 108
16, 10722, Note_off_c, 15, 48, 56
16, 10740, Note_on_c, 15, 48, 108
16, 10782, Note_off_c, 15, 48, 56
16, 10800, Note_on_c, 15, 48, 108
16, 10842, Note_off_c, 15, 48, 56
16, 10860, Note_on_c, 15, 48, 108
16, 10902, Note_off_c, 15, 48, 56
16, 10920, Note_on_c, 15, 48, 108
16, 10962, Note_off_c, 15, 48, 56
16, 10980, Note_on_c, 15, 48, 108
16, 11022, Note_off_c, 15, 48, 56
16, 11040, Note_on_c, 15, 48, 108
16, 11234, Note_off_c, 15, 48, 64
16, 11280, Note_on_c, 15, 48, 108
16, 11425, Note_off_c, 15, 48, 64
16, 11460, Note_on_c, 15, 48, 108
16, 11502, Note_off_c, 15, 48, 56
16, 11520, Note_on_c, 15, 43, 108
16, 11714, Note_off_c, 15, 43, 64
16, 12000, Note_on_c, 15, 48, 108
16, 12194, Note_off_c, 15, 48, 64
16, 12480, Note_on_c, 15, 43, 108
16, 12674, Note_off_c, 15, 43, 64
16, 12720, Note_on_c, 15, 43, 108
16, 12914, Note_off_c, 15, 43, 64
16, 13200, Note_on_c, 15, 48, 108
16, 13345, Note_off_c, 15, 48, 64
16, 13380, Note_on_c, 15, 48, 108
16, 13422, Note_off_c, 15, 48, 56
16, 13440, Note_on_c, 15, 43, 108
16, 13634, Note_off_c, 15, 43, 64
16, 13920, Note_on_c, 15, 48, 108
16, 14114, Note_off_c, 15, 48, 64
16, 14400, Note_on_c, 15, 43, 108
16, 14594, Note_off_c, 15, 43, 64
16, 14640, Note_on_c, 15, 43, 108
16, 14834, Note_off_c, 15, 43, 64
16, 15120, Note_on_c, 15, 48, 108
16, 15265, Note_off_c, 15, 48, 64
16, 15300, Note_on_c, 15, 48, 108
16, 15342, Note_off_c, 15, 48, 56
16, 15360, Note_on_c, 15, 43, 108
16, 15505, Note_off_c, 15, 43, 64
16, 15540, Note_on_c, 15, 43, 108
16, 15582, Note_off_c, 15, 43, 56
16, 15600, Note_on_c, 15, 43, 108
16, 15745, Note_off_c, 15, 43, 64
16, 15780, Note_on_c, 15, 43, 108
16, 15822, Note_off_c, 15, 43, 56
16, 15840, Note_on_c, 15, 48, 108
16, 15985, Note_off_c, 15, 48, 64
16, 16020, Note_on_c, 15, 48, 108
16, 16062, Note_off_c, 15, 48, 56
16, 16080, Note_on_c, 15, 48, 108
16, 16225, Note_off_c, 15, 48, 64
16, 16260, Note_on_c, 15, 48, 108
16, 16302, Note_off_c, 15, 48, 56
16, 16320, Note_on_c, 15, 43, 108
16, 16465, Note_off_c, 15, 43, 64
16, 16500, Note_on_c, 15, 43, 108
16, 16542, Note_off_c, 15, 43, 56
16, 16560, Note_on_c, 15, 43, 108
16, 16754, Note_off_c, 15, 43, 64
16, 17280, Note_on_c, 15, 43, 108
16, 17425, Note_off_c, 15, 43, 64
16, 17460, Note_on_c, 15, 43, 108
16, 17502, Note_off_c, 15, 43, 56
16, 17520, Note_on_c, 15, 43, 108
16, 17714, Note_off_c, 15, 43, 64
16, 18240, Note_on_c, 15, 43, 108
16, 18385, Note_off_c, 15, 43, 64
16, 18420, Note_on_c, 15, 43, 108
16, 18462, Note_off_c, 15, 43, 56
16, 18480, Note_on_c, 15, 43, 108
16, 18674, Note_off_c, 15, 43, 64
16, 18720, Note_on_c, 15, 43, 108
16, 18865, Note_off_c, 15, 43, 64
16, 18900, Note_on_c, 15, 43, 108
16, 18942, Note_off_c, 15, 43, 56
16, 18960, Note_on_c, 15, 43, 108
16, 19154, Note_off_c, 15, 43, 64
16, 19200, Note_on_c, 15, 43, 108
16, 19345, Note_off_c, 15, 43, 64
16, 19380, Note_on_c, 15, 43, 108
16, 19422, Note_off_c, 15, 43, 56
16, 19440, Note_on_c, 15, 43, 108
16, 19634, Note_off_c, 15, 43, 64
16, 19680, Note_on_c, 15, 43, 108
16, 19825, Note_off_c, 15, 43, 64
16, 19860, Note_on_c, 15, 43, 108
16, 19902, Note_off_c, 15, 43, 56
16, 19920, Note_on_c, 15, 43, 108
16, 20114, Note_off_c, 15, 43, 64
16, 20160, Note_on_c, 15, 43, 108
16, 20246, Note_off_c, 15, 43, 56
16, 25920, Note_on_c, 15, 43, 108
16, 25962, Note_off_c, 15, 43, 56
16, 25980, Note_on_c, 15, 43, 108
16, 26022, Note_off_c, 15, 43, 56
16, 26040, Note_on_c, 15, 43, 108
16, 26082, Note_off_c, 15, 43, 56
16, 26100, Note_on_c, 15, 43, 108
16, 26142, Note_off_c, 15, 43, 56
16, 26160, Note_on_c, 15, 43, 108
16, 26202, Note_off_c, 15, 43, 56
16, 26220, Note_on_c, 15, 43, 108
16, 26262, Note_off_c, 15, 43, 56
16, 26280, Note_on_c, 15, 43, 108
16, 26322, Note_off_c, 15, 43, 56
16, 26340, Note_on_c, 15, 43, 108
16, 26382, Note_off_c, 15, 43, 56
16, 26400, Note_on_c, 15, 43, 108
16, 26442, Note_off_c, 15, 43, 56
16, 26460, Note_on_c, 15, 43, 108
16, 26502, Note_off_c, 15, 43, 56
16, 26520, Note_on_c, 15, 43, 108
16, 26562, Note_off_c, 15, 43, 56
16, 26580, Note_on_c, 15, 43, 108
16, 26622, Note_off_c, 15, 43, 56
16, 26640, Note_on_c, 15, 43, 108
16, 26682, Note_off_c, 15, 43, 56
16, 26700, Note_on_c, 15, 43, 108
16, 26742, Note_off_c, 15, 43, 56
16, 26760, Note_on_c, 15, 43, 108
16, 26802, Note_off_c, 15, 43, 56
16, 26820, Note_on_c, 15, 43, 108
16, 26862, Note_off_c, 15, 43, 56
16, 26880, Note_on_c, 15, 43, 108
16, 26922, Note_off_c, 15, 43, 56
16, 26940, Note_on_c, 15, 43, 108
16, 26982, Note_off_c, 15, 43, 56
16, 27000, Note_on_c, 15, 43, 108
16, 27042, Note_off_c, 15, 43, 56
16, 27060, Note_on_c, 15, 43, 108
16, 27102, Note_off_c, 15, 43, 56
16, 27120, Note_on_c, 15, 43, 108
16, 27162, Note_off_c, 15, 43, 56
16, 27180, Note_on_c, 15, 43, 108
16, 27222, Note_off_c, 15, 43, 56
16, 27240, Note_on_c, 15, 43, 108
16, 27282, Note_off_c, 15, 43, 56
16, 27300, Note_on_c, 15, 43, 108
16, 27342, Note_off_c, 15, 43, 56
16, 27360, Note_on_c, 15, 43, 108
16, 27402, Note_off_c, 15, 43, 56
16, 27420, Note_on_c, 15, 43, 108
16, 27462, Note_off_c, 15, 43, 56
16, 27480, Note_on_c, 15, 43, 108
16, 27522, Note_off_c, 15, 43, 56
16, 27540, Note_on_c, 15, 43, 108
16, 27582, Note_off_c, 15, 43, 56
16, 27600, Note_on_c, 15, 43, 108
16, 27642, Note_off_c, 15, 43, 56
16, 27660, Note_on_c, 15, 43, 108
16, 27702, Note_off_c, 15, 43, 56
16, 27720, Note_on_c, 15, 43, 108
16, 27762, Note_off_c, 15, 43, 56
16, 27780, Note_on_c, 15, 43, 108
16, 27822, Note_off_c, 15, 43, 56
16, 27840, Note_on_c, 15, 43, 108
16, 28034, Note_off_c, 15, 43, 64
16, 29760, Note_on_c, 15, 48, 108
16, 29802, Note_off_c, 15, 48, 56
16, 29820, Note_on_c, 15, 48, 108
16, 29862, Note_off_c, 15, 48, 56
16, 29880, Note_on_c, 15, 48, 108
16, 29922, Note_off_c, 15, 48, 56
16, 29940, Note_on_c, 15, 48, 108
16, 29982, Note_off_c, 15, 48, 56
16, 30000, Note_on_c, 15, 48, 108
16, 30042, Note_off_c, 15, 48, 56
16, 30060, Note_on_c, 15, 48, 108
16, 30102, Note_off_c, 15, 48, 56
16, 30120, Note_on_c, 15, 48, 108
16, 30162, Note_off_c, 15, 48, 56
16, 30180, Note_on_c, 15, 48, 108
16, 30222, Note_off_c, 15, 48, 56
16, 30240, Note_on_c, 15, 48, 108
16, 30282, Note_off_c, 15, 48, 56
16, 30300, Note_on_c, 15, 48, 108
16, 30342, Note_off_c, 15, 48, 56
16, 30360, Note_on_c, 15, 48, 108
16, 30402, Note_off_c, 15, 48, 56
16, 30420, Note_on_c, 15, 48, 108
16, 30462, Note_off_c, 15, 48, 56
16, 30480, Note_on_c, 15, 48, 108
16, 30522, Note_off_c, 15, 48, 56
16, 30540, Note_on_c, 15, 48, 108
16, 30582, Note_off_c, 15, 48, 56
16, 30600, Note_on_c, 15, 48, 108
16, 30642, Note_off_c, 15, 48, 56
16, 30660, Note_on_c, 15, 48, 108
16, 30702, Note_off_c, 15, 48, 56
16, 30720, Note_on_c, 15, 48, 108
16, 30762, Note_off_c, 15, 48, 56
16, 30780, Note_on_c, 15, 48, 108
16, 30822, Note_off_c, 15, 48, 56
16, 30840, Note_on_c, 15, 48, 108
16, 30882, Note_off_c, 15, 48, 56
16, 30900, Note_on_c, 15, 48, 108
16, 30942, Note_off_c, 15, 48, 56
16, 30960, Note_on_c, 15, 48, 108
16, 31002, Note_off_c, 15, 48, 56
16, 31020, Note_on_c, 15, 48, 108
16, 31062, Note_off_c, 15, 48, 56
16, 31080, Note_on_c, 15, 48, 108
16, 31122, Note_off_c, 15, 48, 56
16, 31140, Note_on_c, 15, 48, 108
16, 31182, Note_off_c, 15, 48, 56
16, 31200, Note_on_c, 15, 48, 108
16, 31242, Note_off_c, 15, 48, 56
16, 31260, Note_on_c, 15, 48, 108
16, 31302, Note_off_c, 15, 48, 56
16, 31320, Note_on_c, 15, 48, 108
16, 31362, Note_off_c, 15, 48, 56
16, 31380, Note_on_c, 15, 48, 108
16, 31422, Note_off_c, 15, 48, 56
16, 31440, Note_on_c, 15, 48, 108
16, 31482, Note_off_c, 15, 48, 56
16, 31500, Note_on_c, 15, 48, 108
16, 31542, Note_off_c, 15, 48, 56
16, 31560, Note_on_c, 15, 48, 108
16, 31602, Note_off_c, 15, 48, 56
16, 31620, Note_on_c, 15, 48, 108
16, 31662, Note_off_c, 15, 48, 56
16, 31680, Note_on_c, 15, 48, 108
16, 31874, Note_off_c, 15, 48, 64
16, 32640, Note_on_c, 15, 48, 108
16, 32834, Note_off_c, 15, 48, 64
16, 33600, Note_on_c, 15, 48, 108
16, 33794, Note_off_c, 15, 48, 64
16, 42240, Note_on_c, 15, 43, 108
16, 42434, Note_off_c, 15, 43, 64
16, 42720, Note_on_c, 15, 43, 108
16, 42914, Note_off_c, 15, 43, 64
16, 43200, Note_on_c, 15, 43, 108
16, 43394, Note_off_c, 15, 43, 64
16, 46080, Note_on_c, 15, 43, 90
16, 46274, Note_off_c, 15, 43, 64
16, 46320, Note_on_c, 15, 43, 90
16, 46384, Note_off_c, 15, 43, 56
16, 46400, Note_on_c, 15, 43, 90
16, 46464, Note_off_c, 15, 43, 56
16, 46480, Note_on_c, 15, 43, 90
16, 46544, Note_off_c, 15, 43, 56
16, 46560, Note_on_c, 15, 43, 90
16, 46754, Note_off_c, 15, 43, 64
16, 46800, Note_on_c, 15, 43, 90
16, 46864, Note_off_c, 15, 43, 56
16, 46880, Note_on_c, 15, 43, 90
16, 46944, Note_off_c, 15, 43, 56
16, 46960, Note_on_c, 15, 43, 90
16, 47024, Note_off_c, 15, 43, 56
16, 47040, Note_on_c, 15, 43, 90
16, 47234, Note_off_c, 15, 43, 64
16, 47280, Note_on_c, 15, 43, 90
16, 47344, Note_off_c, 15, 43, 56
16, 47360, Note_on_c, 15, 43, 90
16, 47424, Note_off_c, 15, 43, 56
16, 47440, Note_on_c, 15, 43, 90
16, 47504, Note_off_c, 15, 43, 56
16, 47520, Note_on_c, 15, 43, 90
16, 47714, Note_off_c, 15, 43, 64
16, 54720, Note_on_c, 15, 48, 108
16, 54762, Note_off_c, 15, 48, 56
16, 54780, Note_on_c, 15, 48, 108
16, 54822, Note_off_c, 15, 48, 56
16, 54840, Note_on_c, 15, 48, 108
16, 54882, Note_off_c, 15, 48, 56
16, 54900, Note_on_c, 15, 48, 108
16, 54942, Note_off_c, 15, 48, 56
16, 54960, Note_on_c, 15, 48, 108
16, 55002, Note_off_c, 15, 48, 56
16, 55020, Note_on_c, 15, 48, 108
16, 55062, Note_off_c, 15, 48, 56
16, 55080, Note_on_c, 15, 48, 108
16, 55122, Note_off_c, 15, 48, 56
16, 55140, Note_on_c, 15, 48, 108
16, 55182, Note_off_c, 15, 48, 56
16, 55200, Note_on_c, 15, 48, 108
16, 55286, Note_off_c, 15, 48, 56
16, 55320, Note_on_c, 15, 48, 108
16, 55406, Note_off_c, 15, 48, 56
16, 55440, Note_on_c, 15, 48, 108
16, 55526, Note_off_c, 15, 48, 56
16, 55560, Note_on_c, 15, 48, 108
16, 55646, Note_off_c, 15, 48, 56
16, 55680, Note_on_c, 15, 48, 108
16, 55766, Note_off_c, 15, 48, 56
16, 55800, Note_on_c, 15, 48, 108
16, 55886, Note_off_c, 15, 48, 56
16, 55920, Note_on_c, 15, 48, 108
16, 56006, Note_off_c, 15, 48, 56
16, 56040, Note_on_c, 15, 48, 108
16, 56126, Note_off_c, 15, 48, 56
16, 56160, Note_on_c, 15, 48, 108
16, 56246, Note_off_c, 15, 48, 56
16, 56280, Note_on_c, 15, 48, 108
16, 56366, Note_off_c, 15, 48, 56
16, 56400, Note_on_c, 15, 48, 108
16, 56486, Note_off_c, 15, 48, 56
16, 56520, Note_on_c, 15, 48, 108
16, 56606, Note_off_c, 15, 48, 56
16, 56640, Note_on_c, 15, 48, 108
16, 56834, Note_off_c, 15, 48, 64
16, 56880, Note_on_c, 15, 43, 108
16, 57074, Note_off_c, 15, 43, 64
16, 57120, Note_on_c, 15, 43, 108
16, 57314, Note_off_c, 15, 43, 64
16, 57360, Note_on_c, 15, 43, 108
16, 57554, Note_off_c, 15, 43, 64
16, 57600, Note_on_c, 15, 43, 108
16, 57794, Note_off_c, 15, 43, 64
16, 58320, Note_on_c, 15, 43, 108
16, 58514, Note_off_c, 15, 43, 64
16, 58560, Note_on_c, 15, 48, 108
16, 58689, Note_off_c, 15, 48, 64
16, 68160, Note_on_c, 15, 43, 90
16, 68354, Note_off_c, 15, 43, 64
16, 70080, Note_on_c, 15, 43, 96
16, 70274, Note_off_c, 15, 43, 64
16, 72720, Note_on_c, 15, 43, 98
16, 72914, Note_off_c, 15, 43, 64
16, 72960, Note_on_c, 15, 48, 100
16, 73154, Note_off_c, 15, 48, 64
16, 73200, Note_on_c, 15, 48, 100
16, 73394, Note_off_c, 15, 48, 64
16, 73440, Note_on_c, 15, 48, 101
16, 73634, Note_off_c, 15, 48, 64
16, 73680, Note_on_c, 15, 48, 101
16, 73874, Note_off_c, 15, 48, 64
16, 73920, Note_on_c, 15, 48, 102
16, 74114, Note_off_c, 15, 48, 64
16, 74160, Note_on_c, 15, 48, 103
16, 74354, Note_off_c, 15, 48, 64
16, 74400, Note_on_c, 15, 48, 103
16, 74594, Note_off_c, 15, 48, 64
16, 74640, Note_on_c, 15, 48, 104
16, 74834, Note_off_c, 15, 48, 64
16, 74880, Note_on_c, 15, 48, 105
16, 75074, Note_off_c, 15, 48, 64
16, 75120, Note_on_c, 15, 48, 105
16, 75314, Note_off_c, 15, 48, 64
16, 75360, Note_on_c, 15, 48, 106
16, 75554, Note_off_c, 15, 48, 64
16, 75600, Note_on_c, 15, 48, 108
16, 75794, Note_off_c, 15, 48, 64
16, 75840, Note_on_c, 15, 48, 108
16, 75882, Note_off_c, 15, 48, 56
16, 75900, Note_on_c, 15, 48, 108
16, 75942, Note_off_c, 15, 48, 56
16, 75960, Note_on_c, 15, 48, 108
16, 76002, Note_off_c, 15, 48, 56
16, 76020, Note_on_c, 15, 48, 108
16, 76062, Note_off_c, 15, 48, 56
16, 76080, Note_on_c, 15, 48, 108
16, 76122, Note_off_c, 15, 48, 56
16, 76140, Note_on_c, 15, 48, 108
16, 76182, Note_off_c, 15, 48, 56
16, 76200, Note_on_c, 15, 48, 108
16, 76242, Note_off_c, 15, 48, 56
16, 76260, Note_on_c, 15, 48, 108
16, 76302, Note_off_c, 15, 48, 56
16, 76320, Note_on_c, 15, 48, 108
16, 76362, Note_off_c, 15, 48, 56
16, 76380, Note_on_c, 15, 48, 108
16, 76422, Note_off_c, 15, 48, 56
16, 76440, Note_on_c, 15, 48, 108
16, 76482, Note_off_c, 15, 48, 56
16, 76500, Note_on_c, 15, 48, 108
16, 76542, Note_off_c, 15, 48, 56
16, 76560, Note_on_c, 15, 48, 108
16, 76602, Note_off_c, 15, 48, 56
16, 76620, Note_on_c, 15, 48, 108
16, 76662, Note_off_c, 15, 48, 56
16, 76680, Note_on_c, 15, 48, 108
16, 76722, Note_off_c, 15, 48, 56
16, 76740, Note_on_c, 15, 48, 108
16, 76782, Note_off_c, 15, 48, 56
16, 76800, Note_on_c, 15, 48, 108
16, 76842, Note_off_c, 15, 48, 56
16, 76860, Note_on_c, 15, 48, 108
16, 76902, Note_off_c, 15, 48, 56
16, 76920, Note_on_c, 15, 48, 108
16, 76962, Note_off_c, 15, 48, 56
16, 76980, Note_on_c, 15, 48, 108
16, 77022, Note_off_c, 15, 48, 56
16, 77040, Note_on_c, 15, 48, 108
16, 77082, Note_off_c, 15, 48, 56
16, 77100, Note_on_c, 15, 48, 108
16, 77142, Note_off_c, 15, 48, 56
16, 77160, Note_on_c, 15, 48, 108
16, 77202, Note_off_c, 15, 48, 56
16, 77220, Note_on_c, 15, 48, 108
16, 77262, Note_off_c, 15, 48, 56
16, 77280, Note_on_c, 15, 48, 108
16, 77322, Note_off_c, 15, 48, 56
16, 77340, Note_on_c, 15, 48, 108
16, 77382, Note_off_c, 15, 48, 56
16, 77400, Note_on_c, 15, 48, 108
16, 77442, Note_off_c, 15, 48, 56
16, 77460, Note_on_c, 15, 48, 108
16, 77502, Note_off_c, 15, 48, 56
16, 77520, Note_on_c, 15, 48, 108
16, 77562, Note_off_c, 15, 48, 56
16, 77580, Note_on_c, 15, 48, 108
16, 77622, Note_off_c, 15, 48, 56
16, 77640, Note_on_c, 15, 48, 108
16, 77682, Note_off_c, 15, 48, 56
16, 77700, Note_on_c, 15, 48, 108
16, 77742, Note_off_c, 15, 48, 56
16, 77760, Note_on_c, 15, 43, 108
16, 77954, Note_off_c, 15, 43, 64
16, 78480, Note_on_c, 15, 43, 108
16, 78566, Note_off_c, 15, 43, 56
16, 78600, Note_on_c, 15, 43, 108
16, 78686, Note_off_c, 15, 43, 56
16, 78720, Note_on_c, 15, 43, 108
16, 78914, Note_off_c, 15, 43, 64
16, 79440, Note_on_c, 15, 43, 108
16, 79526, Note_off_c, 15, 43, 56
16, 79560, Note_on_c, 15, 43, 108
16, 79646, Note_off_c, 15, 43, 56
16, 79680, Note_on_c, 15, 43, 108
16, 79874, Note_off_c, 15, 43, 64
16, 79920, Note_on_c, 15, 43, 108
16, 80006, Note_off_c, 15, 43, 56
16, 80040, Note_on_c, 15, 43, 108
16, 80126, Note_off_c, 15, 43, 56
16, 80160, Note_on_c, 15, 43, 108
16, 80354, Note_off_c, 15, 43, 64
16, 80400, Note_on_c, 15, 43, 108
16, 80486, Note_off_c, 15, 43, 56
16, 80520, Note_on_c, 15, 43, 108
16, 80606, Note_off_c, 15, 43, 56
16, 80640, Note_on_c, 15, 43, 108
16, 80726, Note_off_c, 15, 43, 56
16, 80760, Note_on_c, 15, 43, 108
16, 80846, Note_off_c, 15, 43, 56
16, 80880, Note_on_c, 15, 43, 108
16, 81074, Note_off_c, 15, 43, 64
16, 81360, Note_on_c, 15, 43, 108
16, 81554, Note_off_c, 15, 43, 64
16, 81600, Note_on_c, 15, 48, 108
16, 81794, Note_off_c, 15, 48, 64
16, 82080, Note_on_c, 15, 48, 108
16, 82274, Note_off_c, 15, 48, 64
16, 82560, Note_on_c, 15, 48, 108
16, 82754, Note_off_c, 15, 48, 64
16, 83280, Note_on_c, 15, 43, 108
16, 83366, Note_off_c, 15, 43, 56
16, 83520, Note_on_c, 15, 48, 108
16, 83606, Note_off_c, 15, 48, 56
16, 83760, Note_on_c, 15, 43, 108
16, 83846, Note_off_c, 15, 43, 56
16, 84000, Note_on_c, 15, 48, 108
16, 84086, Note_off_c, 15, 48, 56
16, 84240, Note_on_c, 15, 43, 108
16, 84326, Note_off_c, 15, 43, 56
16, 84480, Note_on_c, 15, 48, 108
16, 84674, Note_off_c, 15, 48, 64
16, 85200, Note_on_c, 15, 48, 108
16, 85345, Note_off_c, 15, 48, 64
16, 85380, Note_on_c, 15, 48, 108
16, 85422, Note_off_c, 15, 48, 56
16, 85440, Note_on_c, 15, 43, 108
16, 85634, Note_off_c, 15, 43, 64
16, 86160, Note_on_c, 15, 43, 108
16, 86305, Note_off_c, 15, 43, 64
16, 86340, Note_on_c, 15, 43, 108
16, 86382, Note_off_c, 15, 43, 56
16, 86400, Note_on_c, 15, 48, 108
16, 86594, Note_off_c, 15, 48, 64
16, 87000, Note_on_c, 15, 48, 108
16, 87086, Note_off_c, 15, 48, 56
16, 87120, Note_on_c, 15, 48, 108
16, 87206, Note_off_c, 15, 48, 56
16, 87240, Note_on_c, 15, 48, 108
16, 87326, Note_off_c, 15, 48, 56
16, 87360, Note_on_c, 15, 48, 108
16, 87554, Note_off_c, 15, 48, 64
16, 87600, Note_on_c, 15, 48, 108
16, 87686, Note_off_c, 15, 48, 56
16, 87720, Note_on_c, 15, 48, 108
16, 87806, Note_off_c, 15, 48, 56
16, 87840, Note_on_c, 15, 48, 108
16, 88034, Note_off_c, 15, 48, 64
16, 88080, Note_on_c, 15, 48, 108
16, 88166, Note_off_c, 15, 48, 56
16, 88200, Note_on_c, 15, 48, 108
16, 88286, Note_off_c, 15, 48, 56
16, 88320, Note_on_c, 15, 48, 108
16, 88362, Note_off_c, 15, 48, 56
16, 88380, Note_on_c, 15, 48, 108
16, 88422, Note_off_c, 15, 48, 56
16, 88440, Note_on_c, 15, 48, 108
16, 88440, Note_on_c, 15, 48, 108
16, 88482, Note_off_c, 15, 48, 56
16, 88482, Note_off_c, 15, 48, 56
16, 88500, Note_on_c, 15, 48, 108
16, 88542, Note_off_c, 15, 48, 56
16, 88560, Note_on_c, 15, 48, 108
16, 88602, Note_off_c, 15, 48, 56
16, 88620, Note_on_c, 15, 48, 108
16, 88662, Note_off_c, 15, 48, 56
16, 88680, Note_on_c, 15, 48, 108
16, 88722, Note_off_c, 15, 48, 56
16, 88740, Note_on_c, 15, 48, 108
16, 88782, Note_off_c, 15, 48, 56
16, 88800, Note_on_c, 15, 48, 108
16, 88886, Note_off_c, 15, 48, 56
16, 88920, Note_on_c, 15, 48, 108
16, 89006, Note_off_c, 15, 48, 56
16, 89040, Note_on_c, 15, 48, 108
16, 89126, Note_off_c, 15, 48, 56
16, 89160, Note_on_c, 15, 48, 108
16, 89246, Note_off_c, 15, 48, 56
16, 89280, Note_on_c, 15, 48, 108
16, 89474, Note_off_c, 15, 48, 64
16, 89520, Note_on_c, 15, 48, 108
16, 89606, Note_off_c, 15, 48, 56
16, 89640, Note_on_c, 15, 48, 108
16, 89726, Note_off_c, 15, 48, 56
16, 89760, Note_on_c, 15, 48, 108
16, 89954, Note_off_c, 15, 48, 64
16, 90000, Note_on_c, 15, 48, 108
16, 90086, Note_off_c, 15, 48, 56
16, 90120, Note_on_c, 15, 48, 108
16, 90206, Note_off_c, 15, 48, 56
16, 90240, Note_on_c, 15, 48, 108
16, 90282, Note_off_c, 15, 48, 56
16, 90300, Note_on_c, 15, 48, 108
16, 90342, Note_off_c, 15, 48, 56
16, 90360, Note_on_c, 15, 48, 108
16, 90402, Note_off_c, 15, 48, 56
16, 90420, Note_on_c, 15, 48, 108
16, 90462, Note_off_c, 15, 48, 56
16, 90480, Note_on_c, 15, 48, 108
16, 90522, Note_off_c, 15, 48, 56
16, 90540, Note_on_c, 15, 48, 108
16, 90582, Note_off_c, 15, 48, 56
16, 90600, Note_on_c, 15, 48, 108
16, 90642, Note_off_c, 15, 48, 56
16, 90660, Note_on_c, 15, 48, 108
16, 90702, Note_off_c, 15, 48, 56
16, 90720, Note_on_c, 15, 48, 108
16, 90806, Note_off_c, 15, 48, 56
16, 90840, Note_on_c, 15, 48, 108
16, 90926, Note_off_c, 15, 48, 56
16, 90960, Note_on_c, 15, 48, 108
16, 91046, Note_off_c, 15, 48, 56
16, 91080, Note_on_c, 15, 48, 108
16, 91166, Note_off_c, 15, 48, 56
16, 91200, Note_on_c, 15, 48, 108
16, 91394, Note_off_c, 15, 48, 64
16, 91440, Note_on_c, 15, 48, 108
16, 91526, Note_off_c, 15, 48, 56
16, 91560, Note_on_c, 15, 48, 108
16, 91646, Note_off_c, 15, 48, 56
16, 91680, Note_on_c, 15, 48, 108
16, 91874, Note_off_c, 15, 48, 64
16, 91920, Note_on_c, 15, 48, 108
16, 92006, Note_off_c, 15, 48, 56
16, 92040, Note_on_c, 15, 48, 108
16, 92126, Note_off_c, 15, 48, 56
16, 92160, Note_on_c, 15, 48, 108
16, 92202, Note_off_c, 15, 48, 56
16, 92220, Note_on_c, 15, 48, 108
16, 92262, Note_off_c, 15, 48, 56
16, 92280, Note_on_c, 15, 48, 108
16, 92322, Note_off_c, 15, 48, 56
16, 92340, Note_on_c, 15, 48, 108
16, 92382, Note_off_c, 15, 48, 56
16, 92400, Note_on_c, 15, 48, 108
16, 92442, Note_off_c, 15, 48, 56
16, 92460, Note_on_c, 15, 48, 108
16, 92502, Note_off_c, 15, 48, 56
16, 92520, Note_on_c, 15, 48, 108
16, 92562, Note_off_c, 15, 48, 56
16, 92580, Note_on_c, 15, 48, 108
16, 92622, Note_off_c, 15, 48, 56
16, 92640, Note_on_c, 15, 48, 108
16, 92834, Note_off_c, 15, 48, 64
16, 92880, Note_on_c, 15, 48, 108
16, 93025, Note_off_c, 15, 48, 64
16, 93060, Note_on_c, 15, 48, 108
16, 93102, Note_off_c, 15, 48, 56
16, 93120, Note_on_c, 15, 43, 108
16, 93314, Note_off_c, 15, 43, 64
16, 93600, Note_on_c, 15, 48, 108
16, 93794, Note_off_c, 15, 48, 64
16, 94080, Note_on_c, 15, 43, 108
16, 94274, Note_off_c, 15, 43, 64
16, 94320, Note_on_c, 15, 43, 108
16, 94514, Note_off_c, 15, 43, 64
16, 94800, Note_on_c, 15, 48, 108
16, 94945, Note_off_c, 15, 48, 64
16, 94980, Note_on_c, 15, 48, 108
16, 95022, Note_off_c, 15, 48, 56
16, 95040, Note_on_c, 15, 43, 108
16, 95234, Note_off_c, 15, 43, 64
16, 95520, Note_on_c, 15, 48, 108
16, 95714, Note_off_c, 15, 48, 64
16, 96000, Note_on_c, 15, 43, 108
16, 96194, Note_off_c, 15, 43, 64
16, 96240, Note_on_c, 15, 43, 108
16, 96434, Note_off_c, 15, 43, 64
16, 96720, Note_on_c, 15, 48, 108
16, 96865, Note_off_c, 15, 48, 64
16, 96900, Note_on_c, 15, 48, 108
16, 96942, Note_off_c, 15, 48, 56
16, 96960, Note_on_c, 15, 43, 108
16, 97105, Note_off_c, 15, 43, 64
16, 97140, Note_on_c, 15, 43, 108
16, 97182, Note_off_c, 15, 43, 56
16, 97200, Note_on_c, 15, 43, 108
16, 97345, Note_off_c, 15, 43, 64
16, 97380, Note_on_c, 15, 43, 108
16, 97422, Note_off_c, 15, 43, 56
16, 97440, Note_on_c, 15, 48, 108
16, 97585, Note_off_c, 15, 48, 64
16, 97620, Note_on_c, 15, 48, 108
16, 97662, Note_off_c, 15, 48, 56
16, 97680, Note_on_c, 15, 48, 108
16, 97825, Note_off_c, 15, 48, 64
16, 97860, Note_on_c, 15, 48, 108
16, 97902, Note_off_c, 15, 48, 56
16, 97920, Note_on_c, 15, 43, 108
16, 98065, Note_off_c, 15, 43, 64
16, 98100, Note_on_c, 15, 43, 108
16, 98142, Note_off_c, 15, 43, 56
16, 98160, Note_on_c, 15, 43, 108
16, 98354, Note_off_c, 15, 43, 64
16, 98880, Note_on_c, 15, 43, 108
16, 99025, Note_off_c, 15, 43, 64
16, 99060, Note_on_c, 15, 43, 108
16, 99102, Note_off_c, 15, 43, 56
16, 99120, Note_on_c, 15, 43, 108
16, 99314, Note_off_c, 15, 43, 64
16, 99840, Note_on_c, 15, 43, 108
16, 99985, Note_off_c, 15, 43, 64
16, 100020, Note_on_c, 15, 43, 108
16, 100062, Note_off_c, 15, 43, 56
16, 100080, Note_on_c, 15, 43, 108
16, 100274, Note_off_c, 15, 43, 64
16, 100320, Note_on_c, 15, 43, 108
16, 100465, Note_off_c, 15, 43, 64
16, 100500, Note_on_c, 15, 43, 108
16, 100542, Note_off_c, 15, 43, 56
16, 100560, Note_on_c, 15, 43, 108
16, 100754, Note_off_c, 15, 43, 64
16, 100800, Note_on_c, 15, 43, 108
16, 100945, Note_off_c, 15, 43, 64
16, 100980, Note_on_c, 15, 43, 108
16, 101022, Note_off_c, 15, 43, 56
16, 101040, Note_on_c, 15, 43, 108
16, 101234, Note_off_c, 15, 43, 64
16, 101280, Note_on_c, 15, 43, 108
16, 101425, Note_off_c, 15, 43, 64
16, 101460, Note_on_c, 15, 43, 108
16, 101502, Note_off_c, 15, 43, 56
16, 101520, Note_on_c, 15, 43, 108
16, 101714, Note_off_c, 15, 43, 64
16, 101760, Note_on_c, 15, 43, 108
16, 101846, Note_off_c, 15, 43, 56
16, 107520, Note_on_c, 15, 43, 108
16, 107562, Note_off_c, 15, 43, 56
16, 107580, Note_on_c, 15, 43, 108
16, 107622, Note_off_c, 15, 43, 56
16, 107640, Note_on_c, 15, 43, 108
16, 107682, Note_off_c, 15, 43, 56
16, 107700, Note_on_c, 15, 43, 108
16, 107742, Note_off_c, 15, 43, 56
16, 107760, Note_on_c, 15, 43, 108
16, 107802, Note_off_c, 15, 43, 56
16, 107820, Note_on_c, 15, 43, 108
16, 107862, Note_off_c, 15, 43, 56
16, 107880, Note_on_c, 15, 43, 108
16, 107922, Note_off_c, 15, 43, 56
16, 107940, Note_on_c, 15, 43, 108
16, 107982, Note_off_c, 15, 43, 56
16, 108000, Note_on_c, 15, 43, 108
16, 108042, Note_off_c, 15, 43, 56
16, 108060, Note_on_c, 15, 43, 108
16, 108102, Note_off_c, 15, 43, 56
16, 108120, Note_on_c, 15, 43, 108
16, 108162, Note_off_c, 15, 43, 56
16, 108180, Note_on_c, 15, 43, 108
16, 108222, Note_off_c, 15, 43, 56
16, 108240, Note_on_c, 15, 43, 108
16, 108282, Note_off_c, 15, 43, 56
16, 108300, Note_on_c, 15, 43, 108
16, 108342, Note_off_c, 15, 43, 56
16, 108360, Note_on_c, 15, 43, 108
16, 108402, Note_off_c, 15, 43, 56
16, 108420, Note_on_c, 15, 43, 108
16, 108462, Note_off_c, 15, 43, 56
16, 108480, Note_on_c, 15, 43, 108
16, 108522, Note_off_c, 15, 43, 56
16, 108540, Note_on_c, 15, 43, 108
16, 108582, Note_off_c, 15, 43, 56
16, 108600, Note_on_c, 15, 43, 108
16, 108642, Note_off_c, 15, 43, 56
16, 108660, Note_on_c, 15, 43, 108
16, 108702, Note_off_c, 15, 43, 56
16, 108720, Note_on_c, 15, 43, 108
16, 108762, Note_off_c, 15, 43, 56
16, 108780, Note_on_c, 15, 43, 108
16, 108822, Note_off_c, 15, 43, 56
16, 108840, Note_on_c, 15, 43, 108
16, 108882, Note_off_c, 15, 43, 56
16, 108900, Note_on_c, 15, 43, 108
16, 108942, Note_off_c, 15, 43, 56
16, 108960, Note_on_c, 15, 43, 108
16, 109002, Note_off_c, 15, 43, 56
16, 109020, Note_on_c, 15, 43, 108
16, 109062, Note_off_c, 15, 43, 56
16, 109080, Note_on_c, 15, 43, 108
16, 109122, Note_off_c, 15, 43, 56
16, 109140, Note_on_c, 15, 43, 108
16, 109182, Note_off_c, 15, 43, 56
16, 109200, Note_on_c, 15, 43, 108
16, 109242, Note_off_c, 15, 43, 56
16, 109260, Note_on_c, 15, 43, 108
16, 109302, Note_off_c, 15, 43, 56
16, 109320, Note_on_c, 15, 43, 108
16, 109362, Note_off_c, 15, 43, 56
16, 109380, Note_on_c, 15, 43, 108
16, 109422, Note_off_c, 15, 43, 56
16, 109440, Note_on_c, 15, 43, 108
16, 109634, Note_off_c, 15, 43, 64
16, 111360, Note_on_c, 15, 48, 108
16, 111402, Note_off_c, 15, 48, 56
16, 111420, Note_on_c, 15, 48, 108
16, 111462, Note_off_c, 15, 48, 56
16, 111480, Note_on_c, 15, 48, 108
16, 111522, Note_off_c, 15, 48, 56
16, 111540, Note_on_c, 15, 48, 108
16, 111582, Note_off_c, 15, 48, 56
16, 111600, Note_on_c, 15, 48, 108
16, 111642, Note_off_c, 15, 48, 56
16, 111660, Note_on_c, 15, 48, 108
16, 111702, Note_off_c, 15, 48, 56
16, 111720, Note_on_c, 15, 48, 108
16, 111762, Note_off_c, 15, 48, 56
16, 111780, Note_on_c, 15, 48, 108
16, 111822, Note_off_c, 15, 48, 56
16, 111840, Note_on_c, 15, 48, 108
16, 111882, Note_off_c, 15, 48, 56
16, 111900, Note_on_c, 15, 48, 108
16, 111942, Note_off_c, 15, 48, 56
16, 111960, Note_on_c, 15, 48, 108
16, 112002, Note_off_c, 15, 48, 56
16, 112020, Note_on_c, 15, 48, 108
16, 112062, Note_off_c, 15, 48, 56
16, 112080, Note_on_c, 15, 48, 108
16, 112122, Note_off_c, 15, 48, 56
16, 112140, Note_on_c, 15, 48, 108
16, 112182, Note_off_c, 15, 48, 56
16, 112200, Note_on_c, 15, 48, 108
16, 112242, Note_off_c, 15, 48, 56
16, 112260, Note_on_c, 15, 48, 108
16, 112302, Note_off_c, 15, 48, 56
16, 112320, Note_on_c, 15, 48, 108
16, 112362, Note_off_c, 15, 48, 56
16, 112380, Note_on_c, 15, 48, 108
16, 112422, Note_off_c, 15, 48, 56
16, 112440, Note_on_c, 15, 48, 108
16, 112482, Note_off_c, 15, 48, 56
16, 112500, Note_on_c, 15, 48, 108
16, 112542, Note_off_c, 15, 48, 56
16, 112560, Note_on_c, 15, 48, 108
16, 112602, Note_off_c, 15, 48, 56
16, 112620, Note_on_c, 15, 48, 108
16, 112662, Note_off_c, 15, 48, 56
16, 112680, Note_on_c, 15, 48, 108
16, 112722, Note_off_c, 15, 48, 56
16, 112740, Note_on_c, 15, 48, 108
16, 112782, Note_off_c, 15, 48, 56
16, 112800, Note_on_c, 15, 48, 108
16, 112842, Note_off_c, 15, 48, 56
16, 112860, Note_on_c, 15, 48, 108
16, 112902, Note_off_c, 15, 48, 56
16, 112920, Note_on_c, 15, 48, 108
16, 112962, Note_off_c, 15, 48, 56
16, 112980, Note_on_c, 15, 48, 108
16, 113022, Note_off_c, 15, 48, 56
16, 113040, Note_on_c, 15, 48, 108
16, 113082, Note_off_c, 15, 48, 56
16, 113100, Note_on_c, 15, 48, 108
16, 113142, Note_off_c, 15, 48, 56
16, 113160, Note_on_c, 15, 48, 108
16, 113202, Note_off_c, 15, 48, 56
16, 113220, Note_on_c, 15, 48, 108
16, 113262, Note_off_c, 15, 48, 56
16, 113280, Note_on_c, 15, 48, 108
16, 113474, Note_off_c, 15, 48, 64
16, 114240, Note_on_c, 15, 48, 108
16, 114434, Note_off_c, 15, 48, 64
16, 115200, Note_on_c, 15, 48, 108
16, 115394, Note_off_c, 15, 48, 64
16, 123840, Note_on_c, 15, 43, 108
16, 124034, Note_off_c, 15, 43, 64
16, 124320, Note_on_c, 15, 43, 108
16, 124514, Note_off_c, 15, 43, 64
16, 124800, Note_on_c, 15, 43, 108
16, 124994, Note_off_c, 15, 43, 64
16, 127680, Note_on_c, 15, 43, 90
16, 127874, Note_off_c, 15, 43, 64
16, 127920, Note_on_c, 15, 43, 90
16, 127984, Note_off_c, 15, 43, 56
16, 128000, Note_on_c, 15, 43, 90
16, 128064, Note_off_c, 15, 43, 56
16, 128080, Note_on_c, 15, 43, 90
16, 128144, Note_off_c, 15, 43, 56
16, 128160, Note_on_c, 15, 43, 90
16, 128354, Note_off_c, 15, 43, 64
16, 128400, Note_on_c, 15, 43, 90
16, 128464, Note_off_c, 15, 43, 56
16, 128480, Note_on_c, 15, 43, 90
16, 128544, Note_off_c, 15, 43, 56
16, 128560, Note_on_c, 15, 43, 90
16, 128624, Note_off_c, 15, 43, 56
16, 128640, Note_on_c, 15, 43, 90
16, 128834, Note_off_c, 15, 43, 64
16, 128880, Note_on_c, 15, 43, 90
16, 128944, Note_off_c, 15, 43, 56
16, 128960, Note_on_c, 15, 43, 90
16, 129024, Note_off_c, 15, 43, 56
16, 129040, Note_on_c, 15, 43, 90
16, 129104, Note_off_c, 15, 43, 56
16, 129120, Note_on_c, 15, 43, 90
16, 129314, Note_off_c, 15, 43, 64
16, 136320, Note_on_c, 15, 48, 108
16, 136362, Note_off_c, 15, 48, 56
16, 136380, Note_on_c, 15, 48, 108
16, 136422, Note_off_c, 15, 48, 56
16, 136440, Note_on_c, 15, 48, 108
16, 136482, Note_off_c, 15, 48, 56
16, 136500, Note_on_c, 15, 48, 108
16, 136542, Note_off_c, 15, 48, 56
16, 136560, Note_on_c, 15, 48, 108
16, 136602, Note_off_c, 15, 48, 56
16, 136620, Note_on_c, 15, 48, 108
16, 136662, Note_off_c, 15, 48, 56
16, 136680, Note_on_c, 15, 48, 108
16, 136722, Note_off_c, 15, 48, 56
16, 136740, Note_on_c, 15, 48, 108
16, 136782, Note_off_c, 15, 48, 56
16, 136800, Note_on_c, 15, 48, 108
16, 136886, Note_off_c, 15, 48, 56
16, 136920, Note_on_c, 15, 48, 108
16, 137006, Note_off_c, 15, 48, 56
16, 137040, Note_on_c, 15, 48, 108
16, 137126, Note_off_c, 15, 48, 56
16, 137160, Note_on_c, 15, 48, 108
16, 137246, Note_off_c, 15, 48, 56
16, 137280, Note_on_c, 15, 48, 108
16, 137366, Note_off_c, 15, 48, 56
16, 137400, Note_on_c, 15, 48, 108
16, 137486, Note_off_c, 15, 48, 56
16, 137520, Note_on_c, 15, 48, 108
16, 137606, Note_off_c, 15, 48, 56
16, 137640, Note_on_c, 15, 48, 108
16, 137726, Note_off_c, 15, 48, 56
16, 137760, Note_on_c, 15, 48, 108
16, 137846, Note_off_c, 15, 48, 56
16, 137880, Note_on_c, 15, 48, 108
16, 137966, Note_off_c, 15, 48, 56
16, 138000, Note_on_c, 15, 48, 108
16, 138086, Note_off_c, 15, 48, 56
16, 138120, Note_on_c, 15, 48, 108
16, 138206, Note_off_c, 15, 48, 56
16, 138240, Note_on_c, 15, 48, 108
16, 138434, Note_off_c, 15, 48, 64
16, 138480, Note_on_c, 15, 43, 108
16, 138674, Note_off_c, 15, 43, 64
16, 138720, Note_on_c, 15, 43, 108
16, 138914, Note_off_c, 15, 43, 64
16, 138960, Note_on_c, 15, 43, 108
16, 139154, Note_off_c, 15, 43, 64
16, 139200, Note_on_c, 15, 43, 108
16, 139394, Note_off_c, 15, 43, 64
16, 139920, Note_on_c, 15, 43, 108
16, 140114, Note_off_c, 15, 43, 64
16, 140160, Note_on_c, 15, 48, 108
16, 140289, Note_off_c, 15, 48, 64
16, 149760, Note_on_c, 15, 43, 90
16, 149954, Note_off_c, 15, 43, 64
16, 151680, Note_on_c, 15, 43, 96
16, 151874, Note_off_c, 15, 43, 64
16, 154320, Note_on_c, 15, 43, 98
16, 154514, Note_off_c, 15, 43, 64
16, 154560, Note_on_c, 15, 48, 100
16, 154754, Note_off_c, 15, 48, 64
16, 154800, Note_on_c, 15, 48, 100
16, 154994, Note_off_c, 15, 48, 64
16, 155040, Note_on_c, 15, 48, 101
16, 155234, Note_off_c, 15, 48, 64
16, 155280, Note_on_c, 15, 48, 101
16, 155474, Note_off_c, 15, 48, 64
16, 155520, Note_on_c, 15, 48, 102
16, 155714, Note_off_c, 15, 48, 64
16, 155760, Note_on_c, 15, 48, 103
16, 155954, Note_off_c, 15, 48, 64
16, 156000, Note_on_c, 15, 48, 103
16, 156194, Note_off_c, 15, 48, 64
16, 156240, Note_on_c, 15, 48, 104
16, 156434, Note_off_c, 15, 48, 64
16, 156480, Note_on_c, 15, 48, 105
16, 156674, Note_off_c, 15, 48, 64
16, 156720, Note_on_c, 15, 48, 105
16, 156914, Note_off_c, 15, 48, 64
16, 156960, Note_on_c, 15, 48, 106
16, 157154, Note_off_c, 15, 48, 64
16, 157200, Note_on_c, 15, 48, 108
16, 157394, Note_off_c, 15, 48, 64
16, 157440, Note_on_c, 15, 48, 108
16, 157482, Note_off_c, 15, 48, 56
16, 157500, Note_on_c, 15, 48, 108
16, 157542, Note_off_c, 15, 48, 56
16, 157560, Note_on_c, 15, 48, 108
16, 157602, Note_off_c, 15, 48, 56
16, 157620, Note_on_c, 15, 48, 108
16, 157662, Note_off_c, 15, 48, 56
16, 157680, Note_on_c, 15, 48, 108
16, 157722, Note_off_c, 15, 48, 56
16, 157740, Note_on_c, 15, 48, 108
16, 157782, Note_off_c, 15, 48, 56
16, 157800, Note_on_c, 15, 48, 108
16, 157842, Note_off_c, 15, 48, 56
16, 157860, Note_on_c, 15, 48, 108
16, 157902, Note_off_c, 15, 48, 56
16, 157920, Note_on_c, 15, 48, 108
16, 157962, Note_off_c, 15, 48, 56
16, 157980, Note_on_c, 15, 48, 108
16, 158022, Note_off_c, 15, 48, 56
16, 158040, Note_on_c, 15, 48, 108
16, 158082, Note_off_c, 15, 48, 56
16, 158100, Note_on_c, 15, 48, 108
16, 158142, Note_off_c, 15, 48, 56
16, 158160, Note_on_c, 15, 48, 108
16, 158202, Note_off_c, 15, 48, 56
16, 158220, Note_on_c, 15, 48, 108
16, 158262, Note_off_c, 15, 48, 56
16, 158280, Note_on_c, 15, 48, 108
16, 158322, Note_off_c, 15, 48, 56
16, 158340, Note_on_c, 15, 48, 108
16, 158382, Note_off_c, 15, 48, 56
16, 158400, Note_on_c, 15, 48, 108
16, 158442, Note_off_c, 15, 48, 56
16, 158460, Note_on_c, 15, 48, 108
16, 158502, Note_off_c, 15, 48, 56
16, 158520, Note_on_c, 15, 48, 108
16, 158562, Note_off_c, 15, 48, 56
16, 158580, Note_on_c, 15, 48, 108
16, 158622, Note_off_c, 15, 48, 56
16, 158640, Note_on_c, 15, 48, 108
16, 158682, Note_off_c, 15, 48, 56
16, 158700, Note_on_c, 15, 48, 108
16, 158742, Note_off_c, 15, 48, 56
16, 158760, Note_on_c, 15, 48, 108
16, 158802, Note_off_c, 15, 48, 56
16, 158820, Note_on_c, 15, 48, 108
16, 158862, Note_off_c, 15, 48, 56
16, 158880, Note_on_c, 15, 48, 108
16, 158922, Note_off_c, 15, 48, 56
16, 158940, Note_on_c, 15, 48, 108
16, 158982, Note_off_c, 15, 48, 56
16, 159000, Note_on_c, 15, 48, 108
16, 159042, Note_off_c, 15, 48, 56
16, 159060, Note_on_c, 15, 48, 108
16, 159102, Note_off_c, 15, 48, 56
16, 159120, Note_on_c, 15, 48, 108
16, 159162, Note_off_c, 15, 48, 56
16, 159180, Note_on_c, 15, 48, 108
16, 159222, Note_off_c, 15, 48, 56
16, 159240, Note_on_c, 15, 48, 108
16, 159282, Note_off_c, 15, 48, 56
16, 159300, Note_on_c, 15, 48, 108
16, 159342, Note_off_c, 15, 48, 56
16, 159360, Note_on_c, 15, 43, 108
16, 159554, Note_off_c, 15, 43, 64
16, 160080, Note_on_c, 15, 43, 108
16, 160166, Note_off_c, 15, 43, 56
16, 160200, Note_on_c, 15, 43, 108
16, 160286, Note_off_c, 15, 43, 56
16, 160320, Note_on_c, 15, 43, 108
16, 160514, Note_off_c, 15, 43, 64
16, 161040, Note_on_c, 15, 43, 108
16, 161126, Note_off_c, 15, 43, 56
16, 161160, Note_on_c, 15, 43, 108
16, 161246, Note_off_c, 15, 43, 56
16, 161280, Note_on_c, 15, 43, 108
16, 161474, Note_off_c, 15, 43, 64
16, 161520, Note_on_c, 15, 43, 108
16, 161606, Note_off_c, 15, 43, 56
16, 161640, Note_on_c, 15, 43, 108
16, 161726, Note_off_c, 15, 43, 56
16, 161760, Note_on_c, 15, 43, 108
16, 161954, Note_off_c, 15, 43, 64
16, 162000, Note_on_c, 15, 43, 108
16, 162086, Note_off_c, 15, 43, 56
16, 162120, Note_on_c, 15, 43, 108
16, 162206, Note_off_c, 15, 43, 56
16, 162240, Note_on_c, 15, 43, 108
16, 162326, Note_off_c, 15, 43, 56
16, 162360, Note_on_c, 15, 43, 108
16, 162446, Note_off_c, 15, 43, 56
16, 162480, Note_on_c, 15, 43, 108
16, 162522, Note_off_c, 15, 43, 56
16, 162540, Note_on_c, 15, 43, 108
16, 162582, Note_off_c, 15, 43, 56
16, 162600, Note_on_c, 15, 43, 108
16, 162642, Note_off_c, 15, 43, 56
16, 162660, Note_on_c, 15, 43, 108
16, 162702, Note_off_c, 15, 43, 56
16, 162720, Note_on_c, 15, 43, 108
16, 162762, Note_off_c, 15, 43, 56
16, 162780, Note_on_c, 15, 43, 108
16, 162822, Note_off_c, 15, 43, 56
16, 162840, Note_on_c, 15, 43, 108
16, 162882, Note_off_c, 15, 43, 56
16, 162900, Note_on_c, 15, 43, 108
16, 162942, Note_off_c, 15, 43, 56
16, 162960, Note_on_c, 15, 43, 108
16, 163154, Note_off_c, 15, 43, 64
16, 190080, Note_on_c, 15, 48, 90
16, 190112, Note_off_c, 15, 48, 56
16, 190120, Note_on_c, 15, 48, 90
16, 190152, Note_off_c, 15, 48, 56
16, 190160, Note_on_c, 15, 48, 90
16, 190192, Note_off_c, 15, 48, 56
16, 190200, Note_on_c, 15, 48, 90
16, 190232, Note_off_c, 15, 48, 56
16, 190240, Note_on_c, 15, 48, 90
16, 190272, Note_off_c, 15, 48, 56
16, 190280, Note_on_c, 15, 48, 90
16, 190312, Note_off_c, 15, 48, 56
16, 190320, Note_on_c, 15, 48, 90
16, 190352, Note_off_c, 15, 48, 56
16, 190360, Note_on_c, 15, 48, 90
16, 190392, Note_off_c, 15, 48, 56
16, 190400, Note_on_c, 15, 48, 90
16, 190432, Note_off_c, 15, 48, 56
16, 190440, Note_on_c, 15, 48, 90
16, 190472, Note_off_c, 15, 48, 56
16, 190480, Note_on_c, 15, 48, 90
16, 190512, Note_off_c, 15, 48, 56
16, 190520, Note_on_c, 15, 48, 90
16, 190552, Note_off_c, 15, 48, 56
16, 190560, Note_on_c, 15, 48, 90
16, 190592, Note_off_c, 15, 48, 56
16, 190600, Note_on_c, 15, 48, 90
16, 190632, Note_off_c, 15, 48, 56
16, 190640, Note_on_c, 15, 48, 90
16, 190672, Note_off_c, 15, 48, 56
16, 190680, Note_on_c, 15, 48, 90
16, 190712, Note_off_c, 15, 48, 56
16, 190720, Note_on_c, 15, 48, 90
16, 190752, Note_off_c, 15, 48, 56
16, 190760, Note_on_c, 15, 48, 90
16, 190792, Note_off_c, 15, 48, 56
16, 190800, Note_on_c, 15, 48, 90
16, 190832, Note_off_c, 15, 48, 56
16, 190840, Note_on_c, 15, 48, 90
16, 190872, Note_off_c, 15, 48, 56
16, 190880, Note_on_c, 15, 48, 90
16, 190912, Note_off_c, 15, 48, 56
16, 190920, Note_on_c, 15, 48, 90
16, 190952, Note_off_c, 15, 48, 56
16, 190960, Note_on_c, 15, 48, 90
16, 190992, Note_off_c, 15, 48, 56
16, 191000, Note_on_c, 15, 48, 90
16, 191032, Note_off_c, 15, 48, 56
16, 191040, Note_on_c, 15, 48, 90
16, 191072, Note_off_c, 15, 48, 56
16, 191080, Note_on_c, 15, 48, 90
16, 191112, Note_off_c, 15, 48, 56
16, 191120, Note_on_c, 15, 48, 90
16, 191152, Note_off_c, 15, 48, 56
16, 191160, Note_on_c, 15, 48, 90
16, 191192, Note_off_c, 15, 48, 56
16, 191200, Note_on_c, 15, 48, 90
16, 191232, Note_off_c, 15, 48, 56
16, 191240, Note_on_c, 15, 48, 90
16, 191272, Note_off_c, 15, 48, 56
16, 191280, Note_on_c, 15, 48, 90
16, 191312, Note_off_c, 15, 48, 56
16, 191320, Note_on_c, 15, 48, 90
16, 191352, Note_off_c, 15, 48, 56
16, 191360, Note_on_c, 15, 48, 90
16, 191392, Note_off_c, 15, 48, 56
16, 191400, Note_on_c, 15, 48, 90
16, 191432, Note_off_c, 15, 48, 56
16, 191440, Note_on_c, 15, 48, 90
16, 191472, Note_off_c, 15, 48, 56
16, 191480, Note_on_c, 15, 48, 90
16, 191512, Note_off_c, 15, 48, 56
16, 191520, Note_on_c, 15, 48, 90
16, 191714, Note_off_c, 15, 48, 64
16, 195600, Note_on_c, 15, 48, 90
16, 195794, Note_off_c, 15, 48, 64
16, 195840, Note_on_c, 15, 48, 90
16, 196250, Note_off_c, 15, 48, 64
16, 196320, Note_on_c, 15, 48, 90
16, 196730, Note_off_c, 15, 48, 64
16, 196800, Note_on_c, 15, 48, 90
16, 196994, Note_off_c, 15, 48, 64
16, 197520, Note_on_c, 15, 48, 90
16, 197714, Note_off_c, 15, 48, 64
16, 198000, Note_on_c, 15, 48, 90
16, 198064, Note_off_c, 15, 48, 56
16, 198080, Note_on_c, 15, 48, 90
16, 198144, Note_off_c, 15, 48, 56
16, 198160, Note_on_c, 15, 48, 90
16, 198224, Note_off_c, 15, 48, 56
16, 198240, Note_on_c, 15, 48, 90
16, 198434, Note_off_c, 15, 48, 64
16, 198960, Note_on_c, 15, 48, 90
16, 199024, Note_off_c, 15, 48, 56
16, 199040, Note_on_c, 15, 48, 92
16, 199104, Note_off_c, 15, 48, 56
16, 199120, Note_on_c, 15, 48, 92
16, 199184, Note_off_c, 15, 48, 56
16, 199200, Note_on_c, 15, 48, 92
16, 199394, Note_off_c, 15, 48, 64
16, 199920, Note_on_c, 15, 43, 93
16, 199984, Note_off_c, 15, 43, 56
16, 200000, Note_on_c, 15, 43, 93
16, 200064, Note_off_c, 15, 43, 56
16, 200080, Note_on_c, 15, 43, 93
16, 200144, Note_off_c, 15, 43, 56
16, 200160, Note_on_c, 15, 43, 94
16, 200354, Note_off_c, 15, 43, 64
16, 200880, Note_on_c, 15, 48, 95
16, 200944, Note_off_c, 15, 48, 56
16, 200960, Note_on_c, 15, 48, 95
16, 201024, Note_off_c, 15, 48, 56
16, 201040, Note_on_c, 15, 48, 95
16, 201104, Note_off_c, 15, 48, 56
16, 201120, Note_on_c, 15, 48, 95
16, 201314, Note_off_c, 15, 48, 64
16, 201840, Note_on_c, 15, 43, 96
16, 201904, Note_off_c, 15, 43, 56
16, 201920, Note_on_c, 15, 43, 97
16, 201984, Note_off_c, 15, 43, 56
16, 202000, Note_on_c, 15, 43, 97
16, 202064, Note_off_c, 15, 43, 56
16, 202080, Note_on_c, 15, 43, 97
16, 202274, Note_off_c, 15, 43, 64
16, 202800, Note_on_c, 15, 48, 98
16, 202864, Note_off_c, 15, 48, 56
16, 202880, Note_on_c, 15, 48, 98
16, 202944, Note_off_c, 15, 48, 56
16, 202960, Note_on_c, 15, 48, 98
16, 203024, Note_off_c, 15, 48, 56
16, 203040, Note_on_c, 15, 48, 100
16, 203234, Note_off_c, 15, 48, 64
16, 204720, Note_on_c, 15, 43, 102
16, 204784, Note_off_c, 15, 43, 56
16, 204800, Note_on_c, 15, 43, 103
16, 204864, Note_off_c, 15, 43, 56
16, 204880, Note_on_c, 15, 43, 103
16, 204944, Note_off_c, 15, 43, 56
16, 204960, Note_on_c, 15, 43, 103
16, 205154, Note_off_c, 15, 43, 64
16, 207360, Note_on_c, 15, 43, 108
16, 207554, Note_off_c, 15, 43, 64
16, 209280, Note_on_c, 15, 43, 108
16, 209474, Note_off_c, 15, 43, 64
16, 211200, Note_on_c, 15, 43, 108
16, 211394, Note_off_c, 15, 43, 64
16, 211920, Note_on_c, 15, 48, 108
16, 212114, Note_off_c, 15, 48, 64
16, 212160, Note_on_c, 15, 43, 108
16, 212354, Note_off_c, 15, 43, 64
16, 212640, Note_on_c, 15, 48, 108
16, 212834, Note_off_c, 15, 48, 64
16, 213120, Note_on_c, 15, 43, 108
16, 213314, Note_off_c, 15, 43, 64
16, 213840, Note_on_c, 15, 43, 108
16, 214034, Note_off_c, 15, 43, 64
16, 214080, Note_on_c, 15, 48, 108
16, 214274, Note_off_c, 15, 48, 64
16, 214560, Note_on_c, 15, 43, 108
16, 214754, Note_off_c, 15, 43, 64
16, 215040, Note_on_c, 15, 43, 108
16, 215234, Note_off_c, 15, 43, 64
16, 216000, Note_on_c, 15, 48, 108
16, 216194, Note_off_c, 15, 48, 64
16, 216960, Note_on_c, 15, 48, 108
16, 216992, Note_off_c, 15, 48, 56
16, 217000, Note_on_c, 15, 48, 108
16, 217032, Note_off_c, 15, 48, 56
16, 217040, Note_on_c, 15, 48, 108
16, 217072, Note_off_c, 15, 48, 56
16, 217080, Note_on_c, 15, 48, 108
16, 217112, Note_off_c, 15, 48, 56
16, 217120, Note_on_c, 15, 48, 108
16, 217152, Note_off_c, 15, 48, 56
16, 217160, Note_on_c, 15, 48, 108
16, 217192, Note_off_c, 15, 48, 56
16, 217200, Note_on_c, 15, 48, 108
16, 217232, Note_off_c, 15, 48, 56
16, 217240, Note_on_c, 15, 48, 108
16, 217272, Note_off_c, 15, 48, 56
16, 217280, Note_on_c, 15, 48, 108
16, 217312, Note_off_c, 15, 48, 56
16, 217320, Note_on_c, 15, 48, 108
16, 217352, Note_off_c, 15, 48, 56
16, 217360, Note_on_c, 15, 48, 108
16, 217392, Note_off_c, 15, 48, 56
16, 217400, Note_on_c, 15, 48, 108
16, 217432, Note_off_c, 15, 48, 56
16, 217440, Note_on_c, 15, 48, 108
16, 217472, Note_off_c, 15, 48, 56
16, 217480, Note_on_c, 15, 48, 108
16, 217512, Note_off_c, 15, 48, 56
16, 217520, Note_on_c, 15, 48, 108
16, 217552, Note_off_c, 15, 48, 56
16, 217560, Note_on_c, 15, 48, 108
16, 217592, Note_off_c, 15, 48, 56
16, 217600, Note_on_c, 15, 48, 108
16, 217632, Note_off_c, 15, 48, 56
16, 217640, Note_on_c, 15, 48, 108
16, 217672, Note_off_c, 15, 48, 56
16, 217680, Note_on_c, 15, 48, 108
16, 217712, Note_off_c, 15, 48, 56
16, 217720, Note_on_c, 15, 48, 108
16, 217752, Note_off_c, 15, 48, 56
16, 217760, Note_on_c, 15, 48, 108
16, 217792, Note_off_c, 15, 48, 56
16, 217800, Note_on_c, 15, 48, 108
16, 217832, Note_off_c, 15, 48, 56
16, 217840, Note_on_c, 15, 48, 108
16, 217872, Note_off_c, 15, 48, 56
16, 217880, Note_on_c, 15, 48, 108
16, 217912, Note_off_c, 15, 48, 56
16, 217920, Note_on_c, 15, 48, 108
16, 217952, Note_off_c, 15, 48, 56
16, 217960, Note_on_c, 15, 48, 108
16, 217992, Note_off_c, 15, 48, 56
16, 218000, Note_on_c, 15, 48, 108
16, 218032, Note_off_c, 15, 48, 56
16, 218040, Note_on_c, 15, 48, 108
16, 218072, Note_off_c, 15, 48, 56
16, 218080, Note_on_c, 15, 48, 108
16, 218112, Note_off_c, 15, 48, 56
16, 218120, Note_on_c, 15, 48, 108
16, 218152, Note_off_c, 15, 48, 56
16, 218160, Note_on_c, 15, 48, 108
16, 218192, Note_off_c, 15, 48, 56
16, 218200, Note_on_c, 15, 48, 108
16, 218232, Note_off_c, 15, 48, 56
16, 218240, Note_on_c, 15, 48, 108
16, 218272, Note_off_c, 15, 48, 56
16, 218280, Note_on_c, 15, 48, 108
16, 218312, Note_off_c, 15, 48, 56
16, 218320, Note_on_c, 15, 48, 108
16, 218352, Note_off_c, 15, 48, 56
16, 218360, Note_on_c, 15, 48, 108
16, 218392, Note_off_c, 15, 48, 56
16, 218400, Note_on_c, 15, 48, 108
16, 218432, Note_off_c, 15, 48, 56
16, 218440, Note_on_c, 15, 48, 108
16, 218472, Note_off_c, 15, 48, 56
16, 218480, Note_on_c, 15, 48, 108
16, 218512, Note_off_c, 15, 48, 56
16, 218520, Note_on_c, 15, 48, 108
16, 218552, Note_off_c, 15, 48, 56
16, 218560, Note_on_c, 15, 48, 108
16, 218592, Note_off_c, 15, 48, 56
16, 218600, Note_on_c, 15, 48, 108
16, 218632, Note_off_c, 15, 48, 56
16, 218640, Note_on_c, 15, 48, 108
16, 218672, Note_off_c, 15, 48, 56
16, 218680, Note_on_c, 15, 48, 108
16, 218712, Note_off_c, 15, 48, 56
16, 218720, Note_on_c, 15, 48, 108
16, 218752, Note_off_c, 15, 48, 56
16, 218760, Note_on_c, 15, 48, 108
16, 218792, Note_off_c, 15, 48, 56
16, 218800, Note_on_c, 15, 48, 108
16, 218832, Note_off_c, 15, 48, 56
16, 218840, Note_on_c, 15, 48, 108
16, 218872, Note_off_c, 15, 48, 56
16, 218880, Note_on_c, 15, 43, 108
16, 218922, Note_off_c, 15, 43, 56
16, 218940, Note_on_c, 15, 43, 108
16, 218982, Note_off_c, 15, 43, 56
16, 219000, Note_on_c, 15, 43, 108
16, 219042, Note_off_c, 15, 43, 56
16, 219060, Note_on_c, 15, 43, 108
16, 219102, Note_off_c, 15, 43, 56
16, 219120, Note_on_c, 15, 43, 108
16, 219162, Note_off_c, 15, 43, 56
16, 219180, Note_on_c, 15, 43, 108
16, 219222, Note_off_c, 15, 43, 56
16, 219240, Note_on_c, 15, 43, 108
16, 219282, Note_off_c, 15, 43, 56
16, 219300, Note_on_c, 15, 43, 108
16, 219342, Note_off_c, 15, 43, 56
16, 219360, Note_on_c, 15, 43, 108
16, 219446, Note_off_c, 15, 43, 56
16, 219840, Note_on_c, 15, 43, 108
16, 219882, Note_off_c, 15, 43, 56
16, 219900, Note_on_c, 15, 43, 108
16, 219942, Note_off_c, 15, 43, 56
16, 219960, Note_on_c, 15, 43, 108
16, 220002, Note_off_c, 15, 43, 56
16, 220020, Note_on_c, 15, 43, 108
16, 220062, Note_off_c, 15, 43, 56
16, 220080, Note_on_c, 15, 43, 108
16, 220122, Note_off_c, 15, 43, 56
16, 220140, Note_on_c, 15, 43, 108
16, 220182, Note_off_c, 15, 43, 56
16, 220200, Note_on_c, 15, 43, 108
16, 220242, Note_off_c, 15, 43, 56
16, 220260, Note_on_c, 15, 43, 108
16, 220302, Note_off_c, 15, 43, 56
16, 220320, Note_on_c, 15, 43, 108
16, 220406, Note_off_c, 15, 43, 56
16, 220800, Note_on_c, 15, 43, 108
16, 220994, Note_off_c, 15, 43, 64
16, 221040, Note_on_c, 15, 43, 108
16, 221126, Note_off_c, 15, 43, 56
16, 221160, Note_on_c, 15, 43, 108
16, 221246, Note_off_c, 15, 43, 56
16, 221280, Note_on_c, 15, 43, 108
16, 221474, Note_off_c, 15, 43, 64
16, 221520, Note_on_c, 15, 43, 108
16, 221606, Note_off_c, 15, 43, 56
16, 221640, Note_on_c, 15, 43, 108
16, 221726, Note_off_c, 15, 43, 56
16, 221760, Note_on_c, 15, 43, 108
16, 221954, Note_off_c, 15, 43, 64
16, 222000, Note_on_c, 15, 43, 108
16, 222086, Note_off_c, 15, 43, 56
16, 222120, Note_on_c, 15, 43, 108
16, 222206, Note_off_c, 15, 43, 56
16, 222240, Note_on_c, 15, 43, 108
16, 222434, Note_off_c, 15, 43, 64
16, 222480, Note_on_c, 15, 43, 108
16, 222566, Note_off_c, 15, 43, 56
16, 222600, Note_on_c, 15, 43, 108
16, 222686, Note_off_c, 15, 43, 56
16, 222720, Note_on_c, 15, 43, 108
16, 222914, Note_off_c, 15, 43, 64
16, 222960, Note_on_c, 15, 43, 108
16, 223046, Note_off_c, 15, 43, 56
16, 223080, Note_on_c, 15, 43, 108
16, 223166, Note_off_c, 15, 43, 56
16, 223200, Note_on_c, 15, 43, 108
16, 223394, Note_off_c, 15, 43, 64
16, 223440, Note_on_c, 15, 43, 108
16, 223526, Note_off_c, 15, 43, 56
16, 223560, Note_on_c, 15, 43, 108
16, 223646, Note_off_c, 15, 43, 56
16, 223680, Note_on_c, 15, 43, 108
16, 223874, Note_off_c, 15, 43, 64
16, 223920, Note_on_c, 15, 43, 108
16, 224006, Note_off_c, 15, 43, 56
16, 224040, Note_on_c, 15, 43, 108
16, 224126, Note_off_c, 15, 43, 56
16, 224160, Note_on_c, 15, 43, 108
16, 224354, Note_off_c, 15, 43, 64
16, 224400, Note_on_c, 15, 43, 108
16, 224486, Note_off_c, 15, 43, 56
16, 224520, Note_on_c, 15, 43, 108
16, 224606, Note_off_c, 15, 43, 56
16, 224640, Note_on_c, 15, 43, 108
16, 224682, Note_off_c, 15, 43, 56
16, 224700, Note_on_c, 15, 43, 108
16, 224742, Note_off_c, 15, 43, 56
16, 224760, Note_on_c, 15, 43, 108
16, 224802, Note_off_c, 15, 43, 56
16, 224820, Note_on_c, 15, 43, 108
16, 224862, Note_off_c, 15, 43, 56
16, 224880, Note_on_c, 15, 43, 108
16, 224922, Note_off_c, 15, 43, 56
16, 224940, Note_on_c, 15, 43, 108
16, 224982, Note_off_c, 15, 43, 56
16, 225000, Note_on_c, 15, 43, 108
16, 225042, Note_off_c, 15, 43, 56
16, 225060, Note_on_c, 15, 43, 108
16, 225102, Note_off_c, 15, 43, 56
16, 225120, Note_on_c, 15, 43, 108
16, 225162, Note_off_c, 15, 43, 56
16, 225180, Note_on_c, 15, 43, 108
16, 225222, Note_off_c, 15, 43, 56
16, 225240, Note_on_c, 15, 43, 108
16, 225282, Note_off_c, 15, 43, 56
16, 225300, Note_on_c, 15, 43, 108
16, 225342, Note_off_c, 15, 43, 56
16, 225360, Note_on_c, 15, 43, 108
16, 225402, Note_off_c, 15, 43, 56
16, 225420, Note_on_c, 15, 43, 108
16, 225462, Note_off_c, 15, 43, 56
16, 225480, Note_on_c, 15, 43, 108
16, 225522, Note_off_c, 15, 43, 56
16, 225540, Note_on_c, 15, 43, 108
16, 225582, Note_off_c, 15, 43, 56
16, 225600, Note_on_c, 15, 43, 108
16, 225642, Note_off_c, 15, 43, 56
16, 225660, Note_on_c, 15, 43, 108
16, 225702, Note_off_c, 15, 43, 56
16, 225720, Note_on_c, 15, 43, 108
16, 225762, Note_off_c, 15, 43, 56
16, 225780, Note_on_c, 15, 43, 108
16, 225822, Note_off_c, 15, 43, 56
16, 225840, Note_on_c, 15, 43, 108
16, 225882, Note_off_c, 15, 43, 56
16, 225900, Note_on_c, 15, 43, 108
16, 225942, Note_off_c, 15, 43, 56
16, 225960, Note_on_c, 15, 43, 108
16, 226002, Note_off_c, 15, 43, 56
16, 226020, Note_on_c, 15, 43, 108
16, 226062, Note_off_c, 15, 43, 56
16, 226080, Note_on_c, 15, 43, 108
16, 226122, Note_off_c, 15, 43, 56
16, 226140, Note_on_c, 15, 43, 108
16, 226182, Note_off_c, 15, 43, 56
16, 226200, Note_on_c, 15, 43, 108
16, 226242, Note_off_c, 15, 43, 56
16, 226260, Note_on_c, 15, 43, 108
16, 226302, Note_off_c, 15, 43, 56
16, 226320, Note_on_c, 15, 43, 108
16, 226362, Note_off_c, 15, 43, 56
16, 226380, Note_on_c, 15, 43, 108
16, 226422, Note_off_c, 15, 43, 56
16, 226440, Note_on_c, 15, 43, 108
16, 226482, Note_off_c, 15, 43, 56
16, 226500, Note_on_c, 15, 43, 108
16, 226542, Note_off_c, 15, 43, 56
16, 226560, Note_on_c, 15, 43, 108
16, 226602, Note_off_c, 15, 43, 56
16, 226620, Note_on_c, 15, 43, 108
16, 226662, Note_off_c, 15, 43, 56
16, 226680, Note_on_c, 15, 43, 108
16, 226722, Note_off_c, 15, 43, 56
16, 226740, Note_on_c, 15, 43, 108
16, 226782, Note_off_c, 15, 43, 56
16, 226800, Note_on_c, 15, 43, 108
16, 226842, Note_off_c, 15, 43, 56
16, 226860, Note_on_c, 15, 43, 108
16, 226902, Note_off_c, 15, 43, 56
16, 226920, Note_on_c, 15, 43, 108
16, 226962, Note_off_c, 15, 43, 56
16, 226980, Note_on_c, 15, 43, 108
16, 227022, Note_off_c, 15, 43, 56
16, 227040, Note_on_c, 15, 43, 108
16, 227082, Note_off_c, 15, 43, 56
16, 227100, Note_on_c, 15, 43, 108
16, 227142, Note_off_c, 15, 43, 56
16, 227160, Note_on_c, 15, 43, 108
16, 227202, Note_off_c, 15, 43, 56
16, 227220, Note_on_c, 15, 43, 108
16, 227262, Note_off_c, 15, 43, 56
16, 227280, Note_on_c, 15, 43, 108
16, 227322, Note_off_c, 15, 43, 56
16, 227340, Note_on_c, 15, 43, 108
16, 227382, Note_off_c, 15, 43, 56
16, 227400, Note_on_c, 15, 43, 108
16, 227442, Note_off_c, 15, 43, 56
16, 227460, Note_on_c, 15, 43, 108
16, 227502, Note_off_c, 15, 43, 56
16, 227520, Note_on_c, 15, 43, 108
16, 227714, Note_off_c, 15, 43, 64
16, 263520, Note_on_c, 15, 48, 56
16, 263606, Note_off_c, 15, 48, 56
16, 263640, Note_on_c, 15, 48, 56
16, 263726, Note_off_c, 15, 48, 56
16, 263760, Note_on_c, 15, 48, 56
16, 263846, Note_off_c, 15, 48, 56
16, 263880, Note_on_c, 15, 48, 56
16, 263966, Note_off_c, 15, 48, 56
16, 264000, Note_on_c, 15, 48, 56
16, 264086, Note_off_c, 15, 48, 56
16, 264120, Note_on_c, 15, 48, 56
16, 264206, Note_off_c, 15, 48, 56
16, 264240, Note_on_c, 15, 48, 56
16, 264326, Note_off_c, 15, 48, 56
16, 264360, Note_on_c, 15, 48, 56
16, 264446, Note_off_c, 15, 48, 56
16, 264480, Note_on_c, 15, 48, 56
16, 264566, Note_off_c, 15, 48, 56
16, 264600, Note_on_c, 15, 48, 56
16, 264686, Note_off_c, 15, 48, 56
16, 264720, Note_on_c, 15, 48, 56
16, 264806, Note_off_c, 15, 48, 56
16, 264840, Note_on_c, 15, 48, 56
16, 264926, Note_off_c, 15, 48, 56
16, 264960, Note_on_c, 15, 48, 56
16, 265046, Note_off_c, 15, 48, 56
16, 265080, Note_on_c, 15, 48, 60
16, 265166, Note_off_c, 15, 48, 56
16, 265200, Note_on_c, 15, 48, 65
16, 265286, Note_off_c, 15, 48, 56
16, 265320, Note_on_c, 15, 48, 69
16, 265406, Note_off_c, 15, 48, 56
16, 265440, Note_on_c, 15, 48, 73
16, 265526, Note_off_c, 15, 48, 56
16, 265560, Note_on_c, 15, 48, 78
16, 265646, Note_off_c, 15, 48, 56
16, 265680, Note_on_c, 15, 48, 82
16, 265766, Note_off_c, 15, 48, 56
16, 265800, Note_on_c, 15, 48, 86
16, 265886, Note_off_c, 15, 48, 56
16, 265920, Note_on_c, 15, 48, 90
16, 266006, Note_off_c, 15, 48, 56
16, 266040, Note_on_c, 15, 48, 95
16, 266126, Note_off_c, 15, 48, 56
16, 266160, Note_on_c, 15, 48, 100
16, 266246, Note_off_c, 15, 48, 56
16, 266280, Note_on_c, 15, 48, 103
16, 266366, Note_off_c, 15, 48, 56
16, 266400, Note_on_c, 15, 48, 108
16, 266594, Note_off_c, 15, 48, 64
16, 266880, Note_on_c, 15, 48, 108
16, 267074, Note_off_c, 15, 48, 64
16, 267360, Note_on_c, 15, 48, 108
16, 267554, Note_off_c, 15, 48, 64
16, 268080, Note_on_c, 15, 43, 108
16, 268176, Note_off_c, 15, 43, 56
16, 268320, Note_on_c, 15, 48, 108
16, 268416, Note_off_c, 15, 48, 56
16, 268560, Note_on_c, 15, 43, 108
16, 268656, Note_off_c, 15, 43, 56
16, 268800, Note_on_c, 15, 48, 108
16, 268896, Note_off_c, 15, 48, 56
16, 269040, Note_on_c, 15, 43, 108
16, 269136, Note_off_c, 15, 43, 56
16, 269280, Note_on_c, 15, 48, 108
16, 269474, Note_off_c, 15, 48, 64
16, 270000, Note_on_c, 15, 48, 108
16, 270145, Note_off_c, 15, 48, 64
16, 270180, Note_on_c, 15, 48, 108
16, 270228, Note_off_c, 15, 48, 56
16, 270240, Note_on_c, 15, 43, 108
16, 270434, Note_off_c, 15, 43, 64
16, 270960, Note_on_c, 15, 43, 108
16, 271105, Note_off_c, 15, 43, 64
16, 271140, Note_on_c, 15, 43, 108
16, 271188, Note_off_c, 15, 43, 56
16, 271200, Note_on_c, 15, 48, 108
16, 271394, Note_off_c, 15, 48, 64
16, 271800, Note_on_c, 15, 48, 108
16, 271896, Note_off_c, 15, 48, 56
16, 271920, Note_on_c, 15, 48, 108
16, 272016, Note_off_c, 15, 48, 56
16, 272040, Note_on_c, 15, 48, 108
16, 272136, Note_off_c, 15, 48, 56
16, 272160, Note_on_c, 15, 48, 108
16, 272354, Note_off_c, 15, 48, 64
16, 272400, Note_on_c, 15, 48, 108
16, 272496, Note_off_c, 15, 48, 56
16, 272520, Note_on_c, 15, 48, 108
16, 272616, Note_off_c, 15, 48, 56
16, 272640, Note_on_c, 15, 48, 108
16, 272834, Note_off_c, 15, 48, 64
16, 272880, Note_on_c, 15, 48, 108
16, 272976, Note_off_c, 15, 48, 56
16, 273000, Note_on_c, 15, 48, 108
16, 273096, Note_off_c, 15, 48, 56
16, 273120, Note_on_c, 15, 48, 108
16, 273168, Note_off_c, 15, 48, 56
16, 273180, Note_on_c, 15, 48, 108
16, 273228, Note_off_c, 15, 48, 56
16, 273240, Note_on_c, 15, 48, 108
16, 273240, Note_on_c, 15, 48, 108
16, 273288, Note_off_c, 15, 48, 56
16, 273288, Note_off_c, 15, 48, 56
16, 273300, Note_on_c, 15, 48, 108
16, 273348, Note_off_c, 15, 48, 56
16, 273360, Note_on_c, 15, 48, 108
16, 273408, Note_off_c, 15, 48, 56
16, 273420, Note_on_c, 15, 48, 108
16, 273468, Note_off_c, 15, 48, 56
16, 273480, Note_on_c, 15, 48, 108
16, 273528, Note_off_c, 15, 48, 56
16, 273540, Note_on_c, 15, 48, 108
16, 273588, Note_off_c, 15, 48, 56
16, 273600, Note_on_c, 15, 48, 108
16, 273696, Note_off_c, 15, 48, 56
16, 273720, Note_on_c, 15, 48, 108
16, 273816, Note_off_c, 15, 48, 56
16, 273840, Note_on_c, 15, 48, 108
16, 273936, Note_off_c, 15, 48, 56
16, 273960, Note_on_c, 15, 48, 108
16, 274056, Note_off_c, 15, 48, 56
16, 274080, Note_on_c, 15, 48, 108
16, 274274, Note_off_c, 15, 48, 64
16, 274320, Note_on_c, 15, 48, 108
16, 274416, Note_off_c, 15, 48, 56
16, 274440, Note_on_c, 15, 48, 108
16, 274536, Note_off_c, 15, 48, 56
16, 274560, Note_on_c, 15, 48, 108
16, 274754, Note_off_c, 15, 48, 64
16, 274800, Note_on_c, 15, 48, 108
16, 274896, Note_off_c, 15, 48, 56
16, 274920, Note_on_c, 15, 48, 108
16, 275016, Note_off_c, 15, 48, 56
16, 275040, Note_on_c, 15, 48, 108
16, 275088, Note_off_c, 15, 48, 56
16, 275100, Note_on_c, 15, 48, 108
16, 275148, Note_off_c, 15, 48, 56
16, 275160, Note_on_c, 15, 48, 108
16, 275208, Note_off_c, 15, 48, 56
16, 275220, Note_on_c, 15, 48, 108
16, 275268, Note_off_c, 15, 48, 56
16, 275280, Note_on_c, 15, 48, 108
16, 275328, Note_off_c, 15, 48, 56
16, 275340, Note_on_c, 15, 48, 108
16, 275388, Note_off_c, 15, 48, 56
16, 275400, Note_on_c, 15, 48, 108
16, 275448, Note_off_c, 15, 48, 56
16, 275460, Note_on_c, 15, 48, 108
16, 275508, Note_off_c, 15, 48, 56
16, 275520, Note_on_c, 15, 48, 108
16, 275616, Note_off_c, 15, 48, 56
16, 275640, Note_on_c, 15, 48, 108
16, 275736, Note_off_c, 15, 48, 56
16, 275760, Note_on_c, 15, 48, 108
16, 275856, Note_off_c, 15, 48, 56
16, 275880, Note_on_c, 15, 48, 108
16, 275976, Note_off_c, 15, 48, 56
16, 276000, Note_on_c, 15, 48, 108
16, 276194, Note_off_c, 15, 48, 64
16, 276240, Note_on_c, 15, 48, 108
16, 276336, Note_off_c, 15, 48, 56
16, 276360, Note_on_c, 15, 48, 108
16, 276456, Note_off_c, 15, 48, 56
16, 276480, Note_on_c, 15, 48, 108
16, 276674, Note_off_c, 15, 48, 64
16, 276720, Note_on_c, 15, 48, 108
16, 276816, Note_off_c, 15, 48, 56
16, 276840, Note_on_c, 15, 48, 108
16, 276936, Note_off_c, 15, 48, 56
16, 276960, Note_on_c, 15, 48, 108
16, 277008, Note_off_c, 15, 48, 56
16, 277020, Note_on_c, 15, 48, 108
16, 277068, Note_off_c, 15, 48, 56
16, 277080, Note_on_c, 15, 48, 108
16, 277128, Note_off_c, 15, 48, 56
16, 277140, Note_on_c, 15, 48, 108
16, 277188, Note_off_c, 15, 48, 56
16, 277200, Note_on_c, 15, 48, 108
16, 277248, Note_off_c, 15, 48, 56
16, 277260, Note_on_c, 15, 48, 108
16, 277308, Note_off_c, 15, 48, 56
16, 277320, Note_on_c, 15, 48, 108
16, 277368, Note_off_c, 15, 48, 56
16, 277380, Note_on_c, 15, 48, 108
16, 277428, Note_off_c, 15, 48, 56
16, 277440, Note_on_c, 15, 48, 108
16, 277634, Note_off_c, 15, 48, 64
16, 277680, Note_on_c, 15, 48, 108
16, 277825, Note_off_c, 15, 48, 64
16, 277860, Note_on_c, 15, 48, 108
16, 277908, Note_off_c, 15, 48, 56
16, 277920, Note_on_c, 15, 43, 108
16, 278114, Note_off_c, 15, 43, 64
16, 278400, Note_on_c, 15, 48, 108
16, 278594, Note_off_c, 15, 48, 64
16, 278880, Note_on_c, 15, 43, 108
16, 279074, Note_off_c, 15, 43, 64
16, 279120, Note_on_c, 15, 43, 108
16, 279314, Note_off_c, 15, 43, 64
16, 279600, Note_on_c, 15, 48, 108
16, 279745, Note_off_c, 15, 48, 64
16, 279780, Note_on_c, 15, 48, 108
16, 279828, Note_off_c, 15, 48, 56
16, 279840, Note_on_c, 15, 43, 108
16, 280034, Note_off_c, 15, 43, 64
16, 280320, Note_on_c, 15, 48, 108
16, 280514, Note_off_c, 15, 48, 64
16, 280800, Note_on_c, 15, 43, 108
16, 280994, Note_off_c, 15, 43, 64
16, 281040, Note_on_c, 15, 43, 108
16, 281234, Note_off_c, 15, 43, 64
16, 281520, Note_on_c, 15, 48, 108
16, 281665, Note_off_c, 15, 48, 64
16, 281700, Note_on_c, 15, 48, 108
16, 281748, Note_off_c, 15, 48, 56
16, 281760, Note_on_c, 15, 43, 108
16, 281905, Note_off_c, 15, 43, 64
16, 281940, Note_on_c, 15, 43, 108
16, 281988, Note_off_c, 15, 43, 56
16, 282000, Note_on_c, 15, 43, 108
16, 282145, Note_off_c, 15, 43, 64
16, 282180, Note_on_c, 15, 43, 108
16, 282228, Note_off_c, 15, 43, 56
16, 282240, Note_on_c, 15, 48, 108
16, 282385, Note_off_c, 15, 48, 64
16, 282420, Note_on_c, 15, 48, 108
16, 282468, Note_off_c, 15, 48, 56
16, 282480, Note_on_c, 15, 48, 108
16, 282625, Note_off_c, 15, 48, 64
16, 282660, Note_on_c, 15, 48, 108
16, 282708, Note_off_c, 15, 48, 56
16, 282720, Note_on_c, 15, 43, 108
16, 282865, Note_off_c, 15, 43, 64
16, 282900, Note_on_c, 15, 43, 108
16, 282948, Note_off_c, 15, 43, 56
16, 282960, Note_on_c, 15, 43, 108
16, 283154, Note_off_c, 15, 43, 64
16, 283680, Note_on_c, 15, 43, 108
16, 283825, Note_off_c, 15, 43, 64
16, 283860, Note_on_c, 15, 43, 108
16, 283908, Note_off_c, 15, 43, 56
16, 283920, Note_on_c, 15, 43, 108
16, 284114, Note_off_c, 15, 43, 64
16, 284640, Note_on_c, 15, 43, 108
16, 284785, Note_off_c, 15, 43, 64
16, 284820, Note_on_c, 15, 43, 108
16, 284868, Note_off_c, 15, 43, 56
16, 284880, Note_on_c, 15, 43, 108
16, 285074, Note_off_c, 15, 43, 64
16, 285120, Note_on_c, 15, 43, 108
16, 285265, Note_off_c, 15, 43, 64
16, 285300, Note_on_c, 15, 43, 108
16, 285348, Note_off_c, 15, 43, 56
16, 285360, Note_on_c, 15, 43, 108
16, 285554, Note_off_c, 15, 43, 64
16, 285600, Note_on_c, 15, 43, 108
16, 285745, Note_off_c, 15, 43, 64
16, 285780, Note_on_c, 15, 43, 108
16, 285828, Note_off_c, 15, 43, 56
16, 285840, Note_on_c, 15, 43, 108
16, 286034, Note_off_c, 15, 43, 64
16, 286080, Note_on_c, 15, 43, 108
16, 286225, Note_off_c, 15, 43, 64
16, 286260, Note_on_c, 15, 43, 108
16, 286308, Note_off_c, 15, 43, 56
16, 286320, Note_on_c, 15, 43, 108
16, 286514, Note_off_c, 15, 43, 64
16, 286560, Note_on_c, 15, 43, 108
16, 286656, Note_off_c, 15, 43, 56
16, 292320, Note_on_c, 15, 43, 108
16, 292368, Note_off_c, 15, 43, 56
16, 292380, Note_on_c, 15, 43, 108
16, 292428, Note_off_c, 15, 43, 56
16, 292440, Note_on_c, 15, 43, 108
16, 292488, Note_off_c, 15, 43, 56
16, 292500, Note_on_c, 15, 43, 108
16, 292548, Note_off_c, 15, 43, 56
16, 292560, Note_on_c, 15, 43, 108
16, 292608, Note_off_c, 15, 43, 56
16, 292620, Note_on_c, 15, 43, 108
16, 292668, Note_off_c, 15, 43, 56
16, 292680, Note_on_c, 15, 43, 108
16, 292728, Note_off_c, 15, 43, 56
16, 292740, Note_on_c, 15, 43, 108
16, 292788, Note_off_c, 15, 43, 56
16, 292800, Note_on_c, 15, 43, 108
16, 292848, Note_off_c, 15, 43, 56
16, 292860, Note_on_c, 15, 43, 108
16, 292908, Note_off_c, 15, 43, 56
16, 292920, Note_on_c, 15, 43, 108
16, 292968, Note_off_c, 15, 43, 56
16, 292980, Note_on_c, 15, 43, 108
16, 293028, Note_off_c, 15, 43, 56
16, 293040, Note_on_c, 15, 43, 108
16, 293088, Note_off_c, 15, 43, 56
16, 293100, Note_on_c, 15, 43, 108
16, 293148, Note_off_c, 15, 43, 56
16, 293160, Note_on_c, 15, 43, 108
16, 293208, Note_off_c, 15, 43, 56
16, 293220, Note_on_c, 15, 43, 108
16, 293268, Note_off_c, 15, 43, 56
16, 293280, Note_on_c, 15, 43, 108
16, 293328, Note_off_c, 15, 43, 56
16, 293340, Note_on_c, 15, 43, 108
16, 293388, Note_off_c, 15, 43, 56
16, 293400, Note_on_c, 15, 43, 108
16, 293448, Note_off_c, 15, 43, 56
16, 293460, Note_on_c, 15, 43, 108
16, 293508, Note_off_c, 15, 43, 56
16, 293520, Note_on_c, 15, 43, 108
16, 293568, Note_off_c, 15, 43, 56
16, 293580, Note_on_c, 15, 43, 108
16, 293628, Note_off_c, 15, 43, 56
16, 293640, Note_on_c, 15, 43, 108
16, 293688, Note_off_c, 15, 43, 56
16, 293700, Note_on_c, 15, 43, 108
16, 293748, Note_off_c, 15, 43, 56
16, 293760, Note_on_c, 15, 43, 108
16, 293808, Note_off_c, 15, 43, 56
16, 293820, Note_on_c, 15, 43, 108
16, 293868, Note_off_c, 15, 43, 56
16, 293880, Note_on_c, 15, 43, 108
16, 293928, Note_off_c, 15, 43, 56
16, 293940, Note_on_c, 15, 43, 108
16, 293988, Note_off_c, 15, 43, 56
16, 294000, Note_on_c, 15, 43, 108
16, 294048, Note_off_c, 15, 43, 56
16, 294060, Note_on_c, 15, 43, 108
16, 294108, Note_off_c, 15, 43, 56
16, 294120, Note_on_c, 15, 43, 108
16, 294168, Note_off_c, 15, 43, 56
16, 294180, Note_on_c, 15, 43, 108
16, 294228, Note_off_c, 15, 43, 56
16, 294240, Note_on_c, 15, 43, 108
16, 294434, Note_off_c, 15, 43, 64
16, 296160, Note_on_c, 15, 48, 108
16, 296202, Note_off_c, 15, 48, 56
16, 296220, Note_on_c, 15, 48, 108
16, 296262, Note_off_c, 15, 48, 56
16, 296280, Note_on_c, 15, 48, 108
16, 296322, Note_off_c, 15, 48, 56
16, 296340, Note_on_c, 15, 48, 108
16, 296382, Note_off_c, 15, 48, 56
16, 296400, Note_on_c, 15, 48, 108
16, 296442, Note_off_c, 15, 48, 56
16, 296460, Note_on_c, 15, 48, 108
16, 296502, Note_off_c, 15, 48, 56
16, 296520, Note_on_c, 15, 48, 108
16, 296562, Note_off_c, 15, 48, 56
16, 296580, Note_on_c, 15, 48, 108
16, 296622, Note_off_c, 15, 48, 56
16, 296640, Note_on_c, 15, 48, 108
16, 296682, Note_off_c, 15, 48, 56
16, 296700, Note_on_c, 15, 48, 108
16, 296742, Note_off_c, 15, 48, 56
16, 296760, Note_on_c, 15, 48, 108
16, 296802, Note_off_c, 15, 48, 56
16, 296820, Note_on_c, 15, 48, 108
16, 296862, Note_off_c, 15, 48, 56
16, 296880, Note_on_c, 15, 48, 108
16, 296922, Note_off_c, 15, 48, 56
16, 296940, Note_on_c, 15, 48, 108
16, 296982, Note_off_c, 15, 48, 56
16, 297000, Note_on_c, 15, 48, 108
16, 297042, Note_off_c, 15, 48, 56
16, 297060, Note_on_c, 15, 48, 108
16, 297102, Note_off_c, 15, 48, 56
16, 297120, Note_on_c, 15, 48, 108
16, 297162, Note_off_c, 15, 48, 56
16, 297180, Note_on_c, 15, 48, 108
16, 297222, Note_off_c, 15, 48, 56
16, 297240, Note_on_c, 15, 48, 108
16, 297282, Note_off_c, 15, 48, 56
16, 297300, Note_on_c, 15, 48, 108
16, 297342, Note_off_c, 15, 48, 56
16, 297360, Note_on_c, 15, 48, 108
16, 297402, Note_off_c, 15, 48, 56
16, 297420, Note_on_c, 15, 48, 108
16, 297462, Note_off_c, 15, 48, 56
16, 297480, Note_on_c, 15, 48, 108
16, 297522, Note_off_c, 15, 48, 56
16, 297540, Note_on_c, 15, 48, 108
16, 297582, Note_off_c, 15, 48, 56
16, 297600, Note_on_c, 15, 48, 108
16, 297642, Note_off_c, 15, 48, 56
16, 297660, Note_on_c, 15, 48, 108
16, 297702, Note_off_c, 15, 48, 56
16, 297720, Note_on_c, 15, 48, 108
16, 297762, Note_off_c, 15, 48, 56
16, 297780, Note_on_c, 15, 48, 108
16, 297822, Note_off_c, 15, 48, 56
16, 297840, Note_on_c, 15, 48, 108
16, 297882, Note_off_c, 15, 48, 56
16, 297900, Note_on_c, 15, 48, 108
16, 297942, Note_off_c, 15, 48, 56
16, 297960, Note_on_c, 15, 48, 108
16, 298002, Note_off_c, 15, 48, 56
16, 298020, Note_on_c, 15, 48, 108
16, 298062, Note_off_c, 15, 48, 56
16, 298080, Note_on_c, 15, 48, 108
16, 298274, Note_off_c, 15, 48, 64
16, 299040, Note_on_c, 15, 48, 108
16, 299234, Note_off_c, 15, 48, 64
16, 300000, Note_on_c, 15, 48, 108
16, 300194, Note_off_c, 15, 48, 64
16, 300960, Note_on_c, 15, 48, 108
16, 301154, Note_off_c, 15, 48, 64
16, 301920, Note_on_c, 15, 43, 108
16, 302114, Note_off_c, 15, 43, 64
16, 302880, Note_on_c, 15, 43, 108
16, 303074, Note_off_c, 15, 43, 64
16, 303840, Note_on_c, 15, 43, 108
16, 304034, Note_off_c, 15, 43, 64
16, 304800, Note_on_c, 15, 43, 108
16, 304994, Note_off_c, 15, 43, 64
16, 305760, Note_on_c, 15, 43, 108
16, 305954, Note_off_c, 15, 43, 64
16, 306720, Note_on_c, 15, 43, 108
16, 306914, Note_off_c, 15, 43, 64
16, 307680, Note_on_c, 15, 43, 108
16, 307722, Note_off_c, 15, 43, 56
16, 307740, Note_on_c, 15, 43, 108
16, 307782, Note_off_c, 15, 43, 56
16, 307800, Note_on_c, 15, 43, 108
16, 307842, Note_off_c, 15, 43, 56
16, 307860, Note_on_c, 15, 43, 108
16, 307902, Note_off_c, 15, 43, 56
16, 307920, Note_on_c, 15, 43, 108
16, 307962, Note_off_c, 15, 43, 56
16, 307980, Note_on_c, 15, 43, 108
16, 308022, Note_off_c, 15, 43, 56
16, 308040, Note_on_c, 15, 43, 108
16, 308082, Note_off_c, 15, 43, 56
16, 308100, Note_on_c, 15, 43, 108
16, 308142, Note_off_c, 15, 43, 56
16, 308160, Note_on_c, 15, 43, 108
16, 308246, Note_off_c, 15, 43, 56
16, 308280, Note_on_c, 15, 43, 108
16, 308376, Note_off_c, 15, 43, 56
16, 308520, Note_on_c, 15, 43, 108
16, 308616, Note_off_c, 15, 43, 56
16, 308640, Note_on_c, 15, 43, 108
16, 308736, Note_off_c, 15, 43, 56
16, 308760, Note_on_c, 15, 43, 108
16, 308856, Note_off_c, 15, 43, 56
16, 309000, Note_on_c, 15, 43, 108
16, 309096, Note_off_c, 15, 43, 56
16, 309120, Note_on_c, 15, 43, 108
16, 309216, Note_off_c, 15, 43, 56
16, 309240, Note_on_c, 15, 43, 108
16, 309336, Note_off_c, 15, 43, 56
16, 309600, Note_on_c, 15, 43, 108
16, 309794, Note_off_c, 15, 43, 64
16, 311520, Note_on_c, 15, 48, 108
16, 311714, Note_off_c, 15, 48, 64
16, 312000, Note_on_c, 15, 48, 108
16, 312194, Note_off_c, 15, 48, 64
16, 312480, Note_on_c, 15, 48, 108
16, 312674, Note_off_c, 15, 48, 64
16, 315120, Note_on_c, 15, 43, 90
16, 315177, Note_off_c, 15, 43, 56
16, 315200, Note_on_c, 15, 43, 90
16, 315257, Note_off_c, 15, 43, 56
16, 315280, Note_on_c, 15, 43, 90
16, 315337, Note_off_c, 15, 43, 56
16, 315360, Note_on_c, 15, 48, 90
16, 315554, Note_off_c, 15, 48, 64
16, 315600, Note_on_c, 15, 48, 90
16, 315657, Note_off_c, 15, 48, 56
16, 315680, Note_on_c, 15, 48, 90
16, 315737, Note_off_c, 15, 48, 56
16, 315760, Note_on_c, 15, 48, 90
16, 315817, Note_off_c, 15, 48, 56
16, 315840, Note_on_c, 15, 48, 90
16, 316012, Note_off_c, 15, 48, 64
16, 316080, Note_on_c, 15, 48, 90
16, 316137, Note_off_c, 15, 48, 56
16, 316160, Note_on_c, 15, 48, 90
16, 316217, Note_off_c, 15, 48, 56
16, 316240, Note_on_c, 15, 48, 90
16, 316297, Note_off_c, 15, 48, 56
16, 316320, Note_on_c, 15, 48, 90
16, 316514, Note_off_c, 15, 48, 64
16, 318480, Note_on_c, 15, 43, 90
16, 318537, Note_off_c, 15, 43, 56
16, 318560, Note_on_c, 15, 43, 90
16, 318617, Note_off_c, 15, 43, 56
16, 318640, Note_on_c, 15, 43, 90
16, 318697, Note_off_c, 15, 43, 56
16, 318720, Note_on_c, 15, 48, 90
16, 318914, Note_off_c, 15, 48, 64
16, 324000, Note_on_c, 15, 48, 108
16, 324042, Note_off_c, 15, 48, 56
16, 324060, Note_on_c, 15, 48, 108
16, 324102, Note_off_c, 15, 48, 56
16, 324120, Note_on_c, 15, 48, 108
16, 324162, Note_off_c, 15, 48, 56
16, 324180, Note_on_c, 15, 48, 108
16, 324222, Note_off_c, 15, 48, 56
16, 324240, Note_on_c, 15, 48, 108
16, 324282, Note_off_c, 15, 48, 56
16, 324300, Note_on_c, 15, 48, 108
16, 324342, Note_off_c, 15, 48, 56
16, 324360, Note_on_c, 15, 48, 108
16, 324402, Note_off_c, 15, 48, 56
16, 324420, Note_on_c, 15, 48, 108
16, 324462, Note_off_c, 15, 48, 56
16, 324480, Note_on_c, 15, 48, 108
16, 324576, Note_off_c, 15, 48, 56
16, 324600, Note_on_c, 15, 48, 108
16, 324696, Note_off_c, 15, 48, 56
16, 324720, Note_on_c, 15, 48, 108
16, 324816, Note_off_c, 15, 48, 56
16, 324840, Note_on_c, 15, 48, 108
16, 324936, Note_off_c, 15, 48, 56
16, 324960, Note_on_c, 15, 48, 108
16, 325056, Note_off_c, 15, 48, 56
16, 325080, Note_on_c, 15, 48, 108
16, 325176, Note_off_c, 15, 48, 56
16, 325200, Note_on_c, 15, 48, 108
16, 325296, Note_off_c, 15, 48, 56
16, 325320, Note_on_c, 15, 48, 108
16, 325416, Note_off_c, 15, 48, 56
16, 325440, Note_on_c, 15, 48, 108
16, 325536, Note_off_c, 15, 48, 56
16, 325560, Note_on_c, 15, 48, 108
16, 325656, Note_off_c, 15, 48, 56
16, 325680, Note_on_c, 15, 48, 108
16, 325776, Note_off_c, 15, 48, 56
16, 325800, Note_on_c, 15, 48, 108
16, 325896, Note_off_c, 15, 48, 56
16, 325920, Note_on_c, 15, 48, 108
16, 326114, Note_off_c, 15, 48, 64
16, 326160, Note_on_c, 15, 48, 108
16, 326354, Note_off_c, 15, 48, 64
16, 326400, Note_on_c, 15, 48, 108
16, 326594, Note_off_c, 15, 48, 64
16, 326640, Note_on_c, 15, 48, 108
16, 326834, Note_off_c, 15, 48, 64
16, 326880, Note_on_c, 15, 48, 108
16, 327074, Note_off_c, 15, 48, 64
16, 327120, Note_on_c, 15, 48, 108
16, 327314, Note_off_c, 15, 48, 64
16, 327360, Note_on_c, 15, 48, 108
16, 327456, Note_off_c, 15, 48, 56
16, 327480, Note_on_c, 15, 48, 108
16, 327576, Note_off_c, 15, 48, 56
16, 327600, Note_on_c, 15, 48, 108
16, 327696, Note_off_c, 15, 48, 56
16, 327720, Note_on_c, 15, 48, 108
16, 327816, Note_off_c, 15, 48, 56
16, 327840, Note_on_c, 15, 48, 108
16, 327969, Note_off_c, 15, 48, 64
16, 328800, Note_on_c, 15, 43, 108
16, 328929, Note_off_c, 15, 43, 64
16, 337440, Note_on_c, 15, 48, 90
16, 337634, Note_off_c, 15, 48, 64
16, 338160, Note_on_c, 15, 43, 90
16, 338354, Note_off_c, 15, 43, 64
16, 338400, Note_on_c, 15, 43, 90
16, 338594, Note_off_c, 15, 43, 64
16, 338640, Note_on_c, 15, 43, 90
16, 338834, Note_off_c, 15, 43, 64
16, 338880, Note_on_c, 15, 43, 90
16, 339074, Note_off_c, 15, 43, 64
16, 339120, Note_on_c, 15, 43, 90
16, 339314, Note_off_c, 15, 43, 64
16, 339360, Note_on_c, 15, 48, 90
16, 339554, Note_off_c, 15, 48, 64
16, 340080, Note_on_c, 15, 43, 90
16, 340274, Note_off_c, 15, 43, 64
16, 340320, Note_on_c, 15, 43, 90
16, 340514, Note_off_c, 15, 43, 64
16, 340560, Note_on_c, 15, 43, 90
16, 340754, Note_off_c, 15, 43, 64
16, 340800, Note_on_c, 15, 43, 90
16, 340994, Note_off_c, 15, 43, 64
16, 341040, Note_on_c, 15, 43, 90
16, 341234, Note_off_c, 15, 43, 64
16, 341280, Note_on_c, 15, 43, 90
16, 341474, Note_off_c, 15, 43, 64
16, 342000, Note_on_c, 15, 48, 90
16, 342194, Note_off_c, 15, 48, 64
16, 342240, Note_on_c, 15, 48, 90
16, 342434, Note_off_c, 15, 48, 64
16, 342480, Note_on_c, 15, 43, 90
16, 342674, Note_off_c, 15, 43, 64
16, 342720, Note_on_c, 15, 43, 92
16, 342914, Note_off_c, 15, 43, 64
16, 342960, Note_on_c, 15, 43, 93
16, 343154, Note_off_c, 15, 43, 64
16, 343200, Note_on_c, 15, 43, 95
16, 343394, Note_off_c, 15, 43, 64
16, 343440, Note_on_c, 15, 43, 96
16, 343634, Note_off_c, 15, 43, 64
16, 343680, Note_on_c, 15, 43, 98
16, 343874, Note_off_c, 15, 43, 64
16, 343920, Note_on_c, 15, 43, 100
16, 344114, Note_off_c, 15, 43, 64
16, 344160, Note_on_c, 15, 43, 101
16, 344354, Note_off_c, 15, 43, 64
16, 344400, Note_on_c, 15, 43, 103
16, 344594, Note_off_c, 15, 43, 64
16, 344640, Note_on_c, 15, 43, 104
16, 344834, Note_off_c, 15, 43, 64
16, 344880, Note_on_c, 15, 43, 106
16, 345074, Note_off_c, 15, 43, 64
16, 348000, Note_on_c, 15, 48, 108
16, 348028, Note_off_c, 15, 48, 56
16, 348040, Note_on_c, 15, 48, 108
16, 348068, Note_off_c, 15, 48, 56
16, 348080, Note_on_c, 15, 48, 108
16, 348108, Note_off_c, 15, 48, 56
16, 348120, Note_on_c, 15, 48, 108
16, 348148, Note_off_c, 15, 48, 56
16, 348160, Note_on_c, 15, 48, 108
16, 348188, Note_off_c, 15, 48, 56
16, 348200, Note_on_c, 15, 48, 108
16, 348228, Note_off_c, 15, 48, 56
16, 348240, Note_on_c, 15, 48, 108
16, 348268, Note_off_c, 15, 48, 56
16, 348280, Note_on_c, 15, 48, 108
16, 348308, Note_off_c, 15, 48, 56
16, 348320, Note_on_c, 15, 48, 108
16, 348348, Note_off_c, 15, 48, 56
16, 348360, Note_on_c, 15, 48, 108
16, 348388, Note_off_c, 15, 48, 56
16, 348400, Note_on_c, 15, 48, 108
16, 348428, Note_off_c, 15, 48, 56
16, 348440, Note_on_c, 15, 48, 108
16, 348468, Note_off_c, 15, 48, 56
16, 348480, Note_on_c, 15, 48, 108
16, 348508, Note_off_c, 15, 48, 56
16, 348520, Note_on_c, 15, 48, 108
16, 348548, Note_off_c, 15, 48, 56
16, 348560, Note_on_c, 15, 48, 108
16, 348588, Note_off_c, 15, 48, 56
16, 348600, Note_on_c, 15, 48, 108
16, 348628, Note_off_c, 15, 48, 56
16, 348640, Note_on_c, 15, 48, 108
16, 348668, Note_off_c, 15, 48, 56
16, 348680, Note_on_c, 15, 48, 108
16, 348708, Note_off_c, 15, 48, 56
16, 348720, Note_on_c, 15, 48, 108
16, 348748, Note_off_c, 15, 48, 56
16, 348760, Note_on_c, 15, 48, 108
16, 348788, Note_off_c, 15, 48, 56
16, 348800, Note_on_c, 15, 48, 108
16, 348828, Note_off_c, 15, 48, 56
16, 348840, Note_on_c, 15, 48, 108
16, 348868, Note_off_c, 15, 48, 56
16, 348880, Note_on_c, 15, 48, 108
16, 348908, Note_off_c, 15, 48, 56
16, 348920, Note_on_c, 15, 48, 108
16, 348948, Note_off_c, 15, 48, 56
16, 348960, Note_on_c, 15, 48, 108
16, 348988, Note_off_c, 15, 48, 56
16, 349000, Note_on_c, 15, 48, 108
16, 349028, Note_off_c, 15, 48, 56
16, 349040, Note_on_c, 15, 48, 108
16, 349068, Note_off_c, 15, 48, 56
16, 349080, Note_on_c, 15, 48, 108
16, 349108, Note_off_c, 15, 48, 56
16, 349120, Note_on_c, 15, 48, 108
16, 349148, Note_off_c, 15, 48, 56
16, 349160, Note_on_c, 15, 48, 108
16, 349188, Note_off_c, 15, 48, 56
16, 349200, Note_on_c, 15, 48, 108
16, 349228, Note_off_c, 15, 48, 56
16, 349240, Note_on_c, 15, 48, 108
16, 349268, Note_off_c, 15, 48, 56
16, 349280, Note_on_c, 15, 48, 108
16, 349308, Note_off_c, 15, 48, 56
16, 349320, Note_on_c, 15, 48, 108
16, 349348, Note_off_c, 15, 48, 56
16, 349360, Note_on_c, 15, 48, 108
16, 349388, Note_off_c, 15, 48, 56
16, 349400, Note_on_c, 15, 48, 108
16, 349428, Note_off_c, 15, 48, 56
16, 349440, Note_on_c, 15, 48, 108
16, 349468, Note_off_c, 15, 48, 56
16, 349480, Note_on_c, 15, 48, 108
16, 349508, Note_off_c, 15, 48, 56
16, 349520, Note_on_c, 15, 48, 108
16, 349548, Note_off_c, 15, 48, 56
16, 349560, Note_on_c, 15, 48, 108
16, 349588, Note_off_c, 15, 48, 56
16, 349600, Note_on_c, 15, 48, 108
16, 349628, Note_off_c, 15, 48, 56
16, 349640, Note_on_c, 15, 48, 108
16, 349668, Note_off_c, 15, 48, 56
16, 349680, Note_on_c, 15, 48, 108
16, 349708, Note_off_c, 15, 48, 56
16, 349720, Note_on_c, 15, 48, 108
16, 349748, Note_off_c, 15, 48, 56
16, 349760, Note_on_c, 15, 48, 108
16, 349788, Note_off_c, 15, 48, 56
16, 349800, Note_on_c, 15, 48, 108
16, 349828, Note_off_c, 15, 48, 56
16, 349840, Note_on_c, 15, 48, 108
16, 349868, Note_off_c, 15, 48, 56
16, 349880, Note_on_c, 15, 48, 108
16, 349908, Note_off_c, 15, 48, 56
16, 349920, Note_on_c, 15, 48, 96
16, 349962, Note_off_c, 15, 48, 56
16, 349980, Note_on_c, 15, 48, 96
16, 350022, Note_off_c, 15, 48, 56
16, 350040, Note_on_c, 15, 48, 96
16, 350082, Note_off_c, 15, 48, 56
16, 350100, Note_on_c, 15, 48, 96
16, 350142, Note_off_c, 15, 48, 56
16, 350160, Note_on_c, 15, 48, 96
16, 350202, Note_off_c, 15, 48, 56
16, 350220, Note_on_c, 15, 48, 96
16, 350262, Note_off_c, 15, 48, 56
16, 350280, Note_on_c, 15, 48, 96
16, 350322, Note_off_c, 15, 48, 56
16, 350340, Note_on_c, 15, 48, 96
16, 350382, Note_off_c, 15, 48, 56
16, 350400, Note_on_c, 15, 48, 96
16, 350572, Note_off_c, 15, 48, 64
16, 351840, Note_on_c, 15, 43, 96
16, 352034, Note_off_c, 15, 43, 64
16, 353760, Note_on_c, 15, 43, 90
16, 353954, Note_off_c, 15, 43, 64
16, 355680, Note_on_c, 15, 43, 90
16, 355874, Note_off_c, 15, 43, 64
16, 357600, Note_on_c, 15, 43, 90
16, 357794, Note_off_c, 15, 43, 64
16, 358320, Note_on_c, 15, 48, 90
16, 358514, Note_off_c, 15, 48, 64
16, 358560, Note_on_c, 15, 43, 93
16, 358754, Note_off_c, 15, 43, 64
16, 359040, Note_on_c, 15, 48, 95
16, 359234, Note_off_c, 15, 48, 64
16, 359520, Note_on_c, 15, 43, 97
16, 359714, Note_off_c, 15, 43, 64
16, 360240, Note_on_c, 15, 43, 102
16, 360434, Note_off_c, 15, 43, 64
16, 360480, Note_on_c, 15, 43, 103
16, 360674, Note_off_c, 15, 43, 64
16, 360960, Note_on_c, 15, 43, 106
16, 361154, Note_off_c, 15, 43, 64
16, 361440, Note_on_c, 15, 43, 108
16, 361634, Note_off_c, 15, 43, 64
16, 362400, Note_on_c, 15, 43, 108
16, 362594, Note_off_c, 15, 43, 64
16, 363360, Note_on_c, 15, 48, 108
16, 363554, Note_off_c, 15, 48, 64
16, 363960, Note_on_c, 15, 48, 108
16, 364056, Note_off_c, 15, 48, 56
16, 364080, Note_on_c, 15, 48, 108
16, 364176, Note_off_c, 15, 48, 56
16, 364200, Note_on_c, 15, 48, 108
16, 364296, Note_off_c, 15, 48, 56
16, 364320, Note_on_c, 15, 48, 108
16, 364514, Note_off_c, 15, 48, 64
16, 364920, Note_on_c, 15, 48, 108
16, 365016, Note_off_c, 15, 48, 56
16, 365040, Note_on_c, 15, 48, 108
16, 365136, Note_off_c, 15, 48, 56
16, 365160, Note_on_c, 15, 48, 108
16, 365256, Note_off_c, 15, 48, 56
16, 365280, Note_on_c, 15, 48, 108
16, 365474, Note_off_c, 15, 48, 64
16, 365520, Note_on_c, 15, 48, 108
16, 365616, Note_off_c, 15, 48, 56
16, 365640, Note_on_c, 15, 48, 108
16, 365736, Note_off_c, 15, 48, 56
16, 365760, Note_on_c, 15, 48, 108
16, 365856, Note_off_c, 15, 48, 56
16, 365880, Note_on_c, 15, 48, 108
16, 365976, Note_off_c, 15, 48, 56
16, 366000, Note_on_c, 15, 48, 108
16, 366096, Note_off_c, 15, 48, 56
16, 366120, Note_on_c, 15, 48, 108
16, 366216, Note_off_c, 15, 48, 56
16, 366240, Note_on_c, 15, 48, 108
16, 366336, Note_off_c, 15, 48, 56
16, 366360, Note_on_c, 15, 48, 108
16, 366456, Note_off_c, 15, 48, 56
16, 366480, Note_on_c, 15, 48, 108
16, 366576, Note_off_c, 15, 48, 56
16, 366600, Note_on_c, 15, 48, 108
16, 366696, Note_off_c, 15, 48, 56
16, 366720, Note_on_c, 15, 48, 108
16, 366816, Note_off_c, 15, 48, 56
16, 366840, Note_on_c, 15, 48, 108
16, 366936, Note_off_c, 15, 48, 56
16, 366960, Note_on_c, 15, 48, 108
16, 367056, Note_off_c, 15, 48, 56
16, 367080, Note_on_c, 15, 48, 108
16, 367176, Note_off_c, 15, 48, 56
16, 367200, Note_on_c, 15, 43, 108
16, 367329, Note_off_c, 15, 43, 64
16, 368160, Note_on_c, 15, 43, 108
16, 368289, Note_off_c, 15, 43, 64
16, 369120, Note_on_c, 15, 48, 108
16, 369249, Note_off_c, 15, 48, 64
16, 370080, Note_on_c, 15, 43, 108
16, 370209, Note_off_c, 15, 43, 64
16, 371040, Note_on_c, 15, 48, 108
16, 371169, Note_off_c, 15, 48, 64
16, 372000, Note_on_c, 15, 43, 108
16, 372129, Note_off_c, 15, 43, 64
16, 380640, Note_on_c, 15, 43, 77
16, 380668, Note_off_c, 15, 43, 56
16, 380680, Note_on_c, 15, 43, 77
16, 380708, Note_off_c, 15, 43, 56
16, 380720, Note_on_c, 15, 43, 78
16, 380748, Note_off_c, 15, 43, 56
16, 380760, Note_on_c, 15, 43, 78
16, 380788, Note_off_c, 15, 43, 56
16, 380800, Note_on_c, 15, 43, 79
16, 380828, Note_off_c, 15, 43, 56
16, 380840, Note_on_c, 15, 43, 79
16, 380868, Note_off_c, 15, 43, 56
16, 380880, Note_on_c, 15, 43, 80
16, 380908, Note_off_c, 15, 43, 56
16, 380920, Note_on_c, 15, 43, 80
16, 380948, Note_off_c, 15, 43, 56
16, 380960, Note_on_c, 15, 43, 81
16, 380988, Note_off_c, 15, 43, 56
16, 381000, Note_on_c, 15, 43, 81
16, 381028, Note_off_c, 15, 43, 56
16, 381040, Note_on_c, 15, 43, 82
16, 381068, Note_off_c, 15, 43, 56
16, 381080, Note_on_c, 15, 43, 82
16, 381108, Note_off_c, 15, 43, 56
16, 381120, Note_on_c, 15, 43, 83
16, 381148, Note_off_c, 15, 43, 56
16, 381160, Note_on_c, 15, 43, 83
16, 381188, Note_off_c, 15, 43, 56
16, 381200, Note_on_c, 15, 43, 85
16, 381228, Note_off_c, 15, 43, 56
16, 381240, Note_on_c, 15, 43, 85
16, 381268, Note_off_c, 15, 43, 56
16, 381280, Note_on_c, 15, 43, 86
16, 381308, Note_off_c, 15, 43, 56
16, 381320, Note_on_c, 15, 43, 86
16, 381348, Note_off_c, 15, 43, 56
16, 381360, Note_on_c, 15, 43, 87
16, 381388, Note_off_c, 15, 43, 56
16, 381400, Note_on_c, 15, 43, 87
16, 381428, Note_off_c, 15, 43, 56
16, 381440, Note_on_c, 15, 43, 87
16, 381468, Note_off_c, 15, 43, 56
16, 381480, Note_on_c, 15, 43, 88
16, 381508, Note_off_c, 15, 43, 56
16, 381520, Note_on_c, 15, 43, 88
16, 381548, Note_off_c, 15, 43, 56
16, 381560, Note_on_c, 15, 43, 89
16, 381588, Note_off_c, 15, 43, 56
16, 381600, Note_on_c, 15, 48, 90
16, 381794, Note_off_c, 15, 48, 64
16, 381840, Note_on_c, 15, 48, 90
16, 382034, Note_off_c, 15, 48, 64
16, 382080, Note_on_c, 15, 48, 90
16, 382274, Note_off_c, 15, 48, 64
16, 382320, Note_on_c, 15, 48, 90
16, 382514, Note_off_c, 15, 48, 64
16, 382560, Note_on_c, 15, 48, 90
16, 382754, Note_off_c, 15, 48, 64
16, 382800, Note_on_c, 15, 48, 90
16, 382994, Note_off_c, 15, 48, 64
16, 383040, Note_on_c, 15, 48, 90
16, 383234, Note_off_c, 15, 48, 64
16, 383280, Note_on_c, 15, 48, 90
16, 383474, Note_off_c, 15, 48, 64
16, 383520, Note_on_c, 15, 48, 90
16, 383714, Note_off_c, 15, 48, 64
16, 384240, Note_on_c, 15, 48, 90
16, 384369, Note_off_c, 15, 48, 64
16, 384480, Note_on_c, 15, 48, 90
16, 384674, Note_off_c, 15, 48, 64
16, 385200, Note_on_c, 15, 48, 90
16, 385329, Note_off_c, 15, 48, 64
16, 385440, Note_on_c, 15, 48, 90
16, 385634, Note_off_c, 15, 48, 64
16, 386160, Note_on_c, 15, 48, 90
16, 386289, Note_off_c, 15, 48, 64
16, 386400, Note_on_c, 15, 48, 90
16, 386594, Note_off_c, 15, 48, 64
16, 387120, Note_on_c, 15, 48, 90
16, 387249, Note_off_c, 15, 48, 64
16, 387360, Note_on_c, 15, 43, 90
16, 387554, Note_off_c, 15, 43, 64
16, 387840, Note_on_c, 15, 48, 73
16, 388034, Note_off_c, 15, 48, 64
16, 388320, Note_on_c, 15, 48, 73
16, 388514, Note_off_c, 15, 48, 64
16, 388800, Note_on_c, 15, 43, 73
16, 388994, Note_off_c, 15, 43, 64
16, 397200, Note_on_c, 15, 43, 75
16, 397394, Note_off_c, 15, 43, 64
16, 397680, Note_on_c, 15, 43, 86
16, 397874, Note_off_c, 15, 43, 64
16, 397920, Note_on_c, 15, 48, 90
16, 398114, Note_off_c, 15, 48, 64
16, 398160, Note_on_c, 15, 48, 90
16, 398354, Note_off_c, 15, 48, 64
16, 398400, Note_on_c, 15, 48, 90
16, 398594, Note_off_c, 15, 48, 64
16, 398640, Note_on_c, 15, 48, 90
16, 398834, Note_off_c, 15, 48, 64
16, 398880, Note_on_c, 15, 48, 90
16, 399074, Note_off_c, 15, 48, 64
16, 399120, Note_on_c, 15, 48, 90
16, 399314, Note_off_c, 15, 48, 64
16, 399360, Note_on_c, 15, 48, 90
16, 399554, Note_off_c, 15, 48, 64
16, 399600, Note_on_c, 15, 48, 90
16, 399794, Note_off_c, 15, 48, 64
16, 399840, Note_on_c, 15, 48, 90
16, 400034, Note_off_c, 15, 48, 64
16, 400560, Note_on_c, 15, 48, 90
16, 400689, Note_off_c, 15, 48, 64
16, 400800, Note_on_c, 15, 48, 90
16, 400994, Note_off_c, 15, 48, 64
16, 401520, Note_on_c, 15, 48, 90
16, 401649, Note_off_c, 15, 48, 64
16, 401760, Note_on_c, 15, 48, 90
16, 401954, Note_off_c, 15, 48, 64
16, 402480, Note_on_c, 15, 48, 90
16, 402609, Note_off_c, 15, 48, 64
16, 402720, Note_on_c, 15, 48, 90
16, 402914, Note_off_c, 15, 48, 64
16, 403440, Note_on_c, 15, 48, 90
16, 403569, Note_off_c, 15, 48, 64
16, 403680, Note_on_c, 15, 48, 73
16, 403874, Note_off_c, 15, 48, 64
16, 411840, Note_on_c, 15, 48, 86
16, 412034, Note_off_c, 15, 48, 64
16, 412320, Note_on_c, 15, 48, 86
16, 412514, Note_off_c, 15, 48, 64
16, 412800, Note_on_c, 15, 48, 87
16, 412994, Note_off_c, 15, 48, 64
16, 413280, Note_on_c, 15, 43, 88
16, 413474, Note_off_c, 15, 43, 64
16, 413760, Note_on_c, 15, 43, 88
16, 413954, Note_off_c, 15, 43, 64
16, 414240, Note_on_c, 15, 43, 89
16, 414434, Note_off_c, 15, 43, 64
16, 414720, Note_on_c, 15, 43, 89
16, 414914, Note_off_c, 15, 43, 64
16, 415200, Note_on_c, 15, 48, 90
16, 415314, Note_off_c, 15, 48, 56
16, 416160, Note_on_c, 15, 48, 90
16, 416251, Note_off_c, 15, 48, 56
16, 417120, Note_on_c, 15, 48, 90
16, 417211, Note_off_c, 15, 48, 56
16, 418080, Note_on_c, 15, 48, 90
16, 418171, Note_off_c, 15, 48, 56
16, 419040, Note_on_c, 15, 48, 90
16, 419131, Note_off_c, 15, 48, 56
16, 420000, Note_on_c, 15, 48, 90
16, 420091, Note_off_c, 15, 48, 56
16, 420960, Note_on_c, 15, 48, 90
16, 421051, Note_off_c, 15, 48, 56
16, 421920, Note_on_c, 15, 48, 90
16, 422011, Note_off_c, 15, 48, 56
16, 422880, Note_on_c, 15, 48, 73
16, 422971, Note_off_c, 15, 48, 56
16, 423120, Note_on_c, 15, 48, 74
16, 423211, Note_off_c, 15, 48, 56
16, 423360, Note_on_c, 15, 48, 75
16, 423451, Note_off_c, 15, 48, 56
16, 423600, Note_on_c, 15, 48, 77
16, 423691, Note_off_c, 15, 48, 56
16, 423840, Note_on_c, 15, 43, 78
16, 423931, Note_off_c, 15, 43, 56
16, 424080, Note_on_c, 15, 43, 79
16, 424171, Note_off_c, 15, 43, 56
16, 424320, Note_on_c, 15, 43, 80
16, 424411, Note_off_c, 15, 43, 56
16, 424560, Note_on_c, 15, 48, 81
16, 424651, Note_off_c, 15, 48, 56
16, 424800, Note_on_c, 15, 48, 82
16, 424891, Note_off_c, 15, 48, 56
16, 425040, Note_on_c, 15, 48, 82
16, 425131, Note_off_c, 15, 48, 56
16, 425280, Note_on_c, 15, 48, 83
16, 425371, Note_off_c, 15, 48, 56
16, 425520, Note_on_c, 15, 48, 85
16, 425611, Note_off_c, 15, 48, 56
16, 425760, Note_on_c, 15, 43, 86
16, 425851, Note_off_c, 15, 43, 56
16, 426000, Note_on_c, 15, 43, 87
16, 426091, Note_off_c, 15, 43, 56
16, 426240, Note_on_c, 15, 43, 88
16, 426331, Note_off_c, 15, 43, 56
16, 426480, Note_on_c, 15, 48, 89
16, 426571, Note_off_c, 15, 48, 56
16, 426600, Note_on_c, 15, 48, 90
16, 426691, Note_off_c, 15, 48, 56
16, 426720, Note_on_c, 15, 48, 90
16, 426811, Note_off_c, 15, 48, 56
16, 426840, Note_on_c, 15, 48, 90
16, 426931, Note_off_c, 15, 48, 56
16, 426960, Note_on_c, 15, 48, 90
16, 427051, Note_off_c, 15, 48, 56
16, 427080, Note_on_c, 15, 48, 90
16, 427171, Note_off_c, 15, 48, 56
16, 427200, Note_on_c, 15, 48, 90
16, 427291, Note_off_c, 15, 48, 56
16, 427320, Note_on_c, 15, 48, 90
16, 427411, Note_off_c, 15, 48, 56
16, 427440, Note_on_c, 15, 48, 90
16, 427531, Note_off_c, 15, 48, 56
16, 427560, Note_on_c, 15, 48, 90
16, 427651, Note_off_c, 15, 48, 56
16, 427680, Note_on_c, 15, 43, 90
16, 427771, Note_off_c, 15, 43, 56
16, 427800, Note_on_c, 15, 43, 90
16, 427891, Note_off_c, 15, 43, 56
16, 427920, Note_on_c, 15, 43, 90
16, 428011, Note_off_c, 15, 43, 56
16, 428040, Note_on_c, 15, 43, 90
16, 428131, Note_off_c, 15, 43, 56
16, 428160, Note_on_c, 15, 43, 90
16, 428251, Note_off_c, 15, 43, 56
16, 428280, Note_on_c, 15, 43, 90
16, 428371, Note_off_c, 15, 43, 56
16, 428400, Note_on_c, 15, 43, 90
16, 428491, Note_off_c, 15, 43, 56
16, 428520, Note_on_c, 15, 43, 90
16, 428611, Note_off_c, 15, 43, 56
16, 428640, Note_on_c, 15, 48, 108
16, 428731, Note_off_c, 15, 48, 56
16, 428880, Note_on_c, 15, 48, 108
16, 428971, Note_off_c, 15, 48, 56
16, 429120, Note_on_c, 15, 48, 108
16, 429211, Note_off_c, 15, 48, 56
16, 429360, Note_on_c, 15, 48, 108
16, 429451, Note_off_c, 15, 48, 56
16, 429600, Note_on_c, 15, 48, 108
16, 429691, Note_off_c, 15, 48, 56
16, 429720, Note_on_c, 15, 48, 108
16, 429811, Note_off_c, 15, 48, 56
16, 429840, Note_on_c, 15, 48, 108
16, 429931, Note_off_c, 15, 48, 56
16, 429960, Note_on_c, 15, 48, 108
16, 430051, Note_off_c, 15, 48, 56
16, 430080, Note_on_c, 15, 48, 108
16, 430171, Note_off_c, 15, 48, 56
16, 430440, Note_on_c, 15, 48, 108
16, 430531, Note_off_c, 15, 48, 56
16, 430560, Note_on_c, 15, 48, 108
16, 430651, Note_off_c, 15, 48, 56
16, 430680, Note_on_c, 15, 48, 108
16, 430771, Note_off_c, 15, 48, 56
16, 430800, Note_on_c, 15, 48, 108
16, 430891, Note_off_c, 15, 48, 56
16, 430920, Note_on_c, 15, 48, 108
16, 431011, Note_off_c, 15, 48, 56
16, 431040, Note_on_c, 15, 48, 108
16, 431131, Note_off_c, 15, 48, 56
16, 431400, Note_on_c, 15, 48, 108
16, 431491, Note_off_c, 15, 48, 56
16, 431520, Note_on_c, 15, 43, 108
16, 431611, Note_off_c, 15, 43, 56
16, 431640, Note_on_c, 15, 43, 108
16, 431731, Note_off_c, 15, 43, 56
16, 431760, Note_on_c, 15, 43, 108
16, 431851, Note_off_c, 15, 43, 56
16, 431880, Note_on_c, 15, 43, 108
16, 431971, Note_off_c, 15, 43, 56
16, 432000, Note_on_c, 15, 43, 108
16, 432091, Note_off_c, 15, 43, 56
16, 432360, Note_on_c, 15, 43, 108
16, 432451, Note_off_c, 15, 43, 56
16, 432480, Note_on_c, 15, 43, 108
16, 432571, Note_off_c, 15, 43, 56
16, 432600, Note_on_c, 15, 43, 108
16, 432691, Note_off_c, 15, 43, 56
16, 432720, Note_on_c, 15, 43, 108
16, 432811, Note_off_c, 15, 43, 56
16, 432840, Note_on_c, 15, 43, 108
16, 432931, Note_off_c, 15, 43, 56
16, 432960, Note_on_c, 15, 43, 108
16, 433051, Note_off_c, 15, 43, 56
16, 433080, Note_on_c, 15, 43, 108
16, 433171, Note_off_c, 15, 43, 56
16, 433200, Note_on_c, 15, 43, 108
16, 433291, Note_off_c, 15, 43, 56
16, 433320, Note_on_c, 15, 43, 108
16, 433411, Note_off_c, 15, 43, 56
16, 433440, Note_on_c, 15, 43, 108
16, 433485, Note_off_c, 15, 43, 56
16, 433500, Note_on_c, 15, 43, 108
16, 433545, Note_off_c, 15, 43, 56
16, 433560, Note_on_c, 15, 43, 108
16, 433605, Note_off_c, 15, 43, 56
16, 433620, Note_on_c, 15, 43, 108
16, 433665, Note_off_c, 15, 43, 56
16, 433680, Note_on_c, 15, 43, 108
16, 433725, Note_off_c, 15, 43, 56
16, 433740, Note_on_c, 15, 43, 108
16, 433785, Note_off_c, 15, 43, 56
16, 433800, Note_on_c, 15, 43, 108
16, 433845, Note_off_c, 15, 43, 56
16, 433860, Note_on_c, 15, 43, 108
16, 433905, Note_off_c, 15, 43, 56
16, 433920, Note_on_c, 15, 43, 108
16, 433965, Note_off_c, 15, 43, 56
16, 433980, Note_on_c, 15, 43, 108
16, 434025, Note_off_c, 15, 43, 56
16, 434040, Note_on_c, 15, 43, 108
16, 434085, Note_off_c, 15, 43, 56
16, 434100, Note_on_c, 15, 43, 108
16, 434145, Note_off_c, 15, 43, 56
16, 434160, Note_on_c, 15, 43, 108
16, 434205, Note_off_c, 15, 43, 56
16, 434220, Note_on_c, 15, 43, 108
16, 434265, Note_off_c, 15, 43, 56
16, 434280, Note_on_c, 15, 43, 108
16, 434325, Note_off_c, 15, 43, 56
16, 434340, Note_on_c, 15, 43, 108
16, 434385, Note_off_c, 15, 43, 56
16, 434400, Note_on_c, 15, 43, 108
16, 434445, Note_off_c, 15, 43, 56
16, 434460, Note_on_c, 15, 43, 108
16, 434505, Note_off_c, 15, 43, 56
16, 434520, Note_on_c, 15, 43, 108
16, 434565, Note_off_c, 15, 43, 56
16, 434580, Note_on_c, 15, 43, 108
16, 434625, Note_off_c, 15, 43, 56
16, 434640, Note_on_c, 15, 43, 108
16, 434685, Note_off_c, 15, 43, 56
16, 434700, Note_on_c, 15, 43, 108
16, 434745, Note_off_c, 15, 43, 56
16, 434760, Note_on_c, 15, 43, 108
16, 434805, Note_off_c, 15, 43, 56
16, 434820, Note_on_c, 15, 43, 108
16, 434865, Note_off_c, 15, 43, 56
16, 434880, Note_on_c, 15, 43, 108
16, 434925, Note_off_c, 15, 43, 56
16, 434940, Note_on_c, 15, 43, 108
16, 434985, Note_off_c, 15, 43, 56
16, 435000, Note_on_c, 15, 43, 108
16, 435045, Note_off_c, 15, 43, 56
16, 435060, Note_on_c, 15, 43, 108
16, 435105, Note_off_c, 15, 43, 56
16, 435120, Note_on_c, 15, 43, 108
16, 435165, Note_off_c, 15, 43, 56
16, 435180, Note_on_c, 15, 43, 108
16, 435225, Note_off_c, 15, 43, 56
16, 435240, Note_on_c, 15, 43, 108
16, 435285, Note_off_c, 15, 43, 56
16, 435300, Note_on_c, 15, 43, 108
16, 435345, Note_off_c, 15, 43, 56
16, 435360, Note_on_c, 15, 48, 108
16, 435474, Note_off_c, 15, 48, 56
16, 435840, Note_on_c, 15, 43, 108
16, 435954, Note_off_c, 15, 43, 56
16, 436320, Note_on_c, 15, 48, 108
16, 436434, Note_off_c, 15, 48, 56
16, 436800, Note_on_c, 15, 43, 108
16, 436914, Note_off_c, 15, 43, 56
16, 437280, Note_on_c, 15, 48, 108
16, 437394, Note_off_c, 15, 48, 56
16, 437760, Note_on_c, 15, 43, 108
16, 437874, Note_off_c, 15, 43, 56
16, 438240, Note_on_c, 15, 48, 108
16, 438354, Note_off_c, 15, 48, 56
16, 438720, Note_on_c, 15, 43, 108
16, 438834, Note_off_c, 15, 43, 56
16, 439200, Note_on_c, 15, 48, 108
16, 439314, Note_off_c, 15, 48, 56
16, 439680, Note_on_c, 15, 43, 108
16, 439794, Note_off_c, 15, 43, 56
16, 440160, Note_on_c, 15, 48, 108
16, 440274, Note_off_c, 15, 48, 56
16, 440640, Note_on_c, 15, 43, 108
16, 440754, Note_off_c, 15, 43, 56
16, 441120, Note_on_c, 15, 48, 108
16, 441165, Note_off_c, 15, 48, 56
16, 441180, Note_on_c, 15, 48, 108
16, 441225, Note_off_c, 15, 48, 56
16, 441240, Note_on_c, 15, 48, 108
16, 441285, Note_off_c, 15, 48, 56
16, 441300, Note_on_c, 15, 48, 108
16, 441345, Note_off_c, 15, 48, 56
16, 441360, Note_on_c, 15, 48, 108
16, 441405, Note_off_c, 15, 48, 56
16, 441420, Note_on_c, 15, 48, 108
16, 441465, Note_off_c, 15, 48, 56
16, 441480, Note_on_c, 15, 48, 108
16, 441525, Note_off_c, 15, 48, 56
16, 441540, Note_on_c, 15, 48, 108
16, 441585, Note_off_c, 15, 48, 56
16, 441600, Note_on_c, 15, 48, 108
16, 441645, Note_off_c, 15, 48, 56
16, 441660, Note_on_c, 15, 48, 108
16, 441705, Note_off_c, 15, 48, 56
16, 441720, Note_on_c, 15, 48, 108
16, 441765, Note_off_c, 15, 48, 56
16, 441780, Note_on_c, 15, 48, 108
16, 441825, Note_off_c, 15, 48, 56
16, 441840, Note_on_c, 15, 48, 108
16, 441885, Note_off_c, 15, 48, 56
16, 441900, Note_on_c, 15, 48, 108
16, 441945, Note_off_c, 15, 48, 56
16, 441960, Note_on_c, 15, 48, 108
16, 442005, Note_off_c, 15, 48, 56
16, 442020, Note_on_c, 15, 48, 108
16, 442065, Note_off_c, 15, 48, 56
16, 442080, Note_on_c, 15, 48, 108
16, 442125, Note_off_c, 15, 48, 56
16, 442140, Note_on_c, 15, 48, 108
16, 442185, Note_off_c, 15, 48, 56
16, 442200, Note_on_c, 15, 48, 108
16, 442245, Note_off_c, 15, 48, 56
16, 442260, Note_on_c, 15, 48, 108
16, 442305, Note_off_c, 15, 48, 56
16, 442320, Note_on_c, 15, 48, 108
16, 442365, Note_off_c, 15, 48, 56
16, 442380, Note_on_c, 15, 48, 108
16, 442425, Note_off_c, 15, 48, 56
16, 442440, Note_on_c, 15, 48, 108
16, 442485, Note_off_c, 15, 48, 56
16, 442500, Note_on_c, 15, 48, 108
16, 442545, Note_off_c, 15, 48, 56
16, 442560, Note_on_c, 15, 48, 108
16, 442605, Note_off_c, 15, 48, 56
16, 442620, Note_on_c, 15, 48, 108
16, 442665, Note_off_c, 15, 48, 56
16, 442680, Note_on_c, 15, 48, 108
16, 442725, Note_off_c, 15, 48, 56
16, 442740, Note_on_c, 15, 48, 108
16, 442785, Note_off_c, 15, 48, 56
16, 442800, Note_on_c, 15, 48, 108
16, 442845, Note_off_c, 15, 48, 56
16, 442860, Note_on_c, 15, 48, 108
16, 442905, Note_off_c, 15, 48, 56
16, 442920, Note_on_c, 15, 48, 108
16, 442965, Note_off_c, 15, 48, 56
16, 442980, Note_on_c, 15, 48, 108
16, 443025, Note_off_c, 15, 48, 56
16, 443040, Note_on_c, 15, 48, 108
16, 443131, Note_off_c, 15, 48, 56
16, 443400, Note_on_c, 15, 48, 108
16, 443491, Note_off_c, 15, 48, 56
16, 443520, Note_on_c, 15, 48, 108
16, 443611, Note_off_c, 15, 48, 56
16, 443640, Note_on_c, 15, 48, 108
16, 443731, Note_off_c, 15, 48, 56
16, 443760, Note_on_c, 15, 48, 108
16, 443851, Note_off_c, 15, 48, 56
16, 443880, Note_on_c, 15, 48, 108
16, 443971, Note_off_c, 15, 48, 56
16, 444000, Note_on_c, 15, 48, 108
16, 444091, Note_off_c, 15, 48, 56
16, 444360, Note_on_c, 15, 48, 108
16, 444451, Note_off_c, 15, 48, 56
16, 444480, Note_on_c, 15, 48, 108
16, 444571, Note_off_c, 15, 48, 56
16, 444600, Note_on_c, 15, 48, 108
16, 444691, Note_off_c, 15, 48, 56
16, 444720, Note_on_c, 15, 48, 108
16, 444811, Note_off_c, 15, 48, 56
16, 444840, Note_on_c, 15, 48, 108
16, 444931, Note_off_c, 15, 48, 56
16, 444960, Note_on_c, 15, 48, 108
16, 445051, Note_off_c, 15, 48, 56
16, 445200, Note_on_c, 15, 48, 108
16, 445291, Note_off_c, 15, 48, 56
16, 445320, Note_on_c, 15, 48, 108
16, 445411, Note_off_c, 15, 48, 56
16, 445440, Note_on_c, 15, 48, 108
16, 445531, Note_off_c, 15, 48, 56
16, 445680, Note_on_c, 15, 48, 108
16, 445771, Note_off_c, 15, 48, 56
16, 445800, Note_on_c, 15, 48, 108
16, 445891, Note_off_c, 15, 48, 56
16, 445920, Note_on_c, 15, 48, 108
16, 446011, Note_off_c, 15, 48, 56
16, 446160, Note_on_c, 15, 48, 108
16, 446251, Note_off_c, 15, 48, 56
16, 446280, Note_on_c, 15, 48, 108
16, 446371, Note_off_c, 15, 48, 56
16, 446400, Note_on_c, 15, 48, 108
16, 446491, Note_off_c, 15, 48, 56
16, 446640, Note_on_c, 15, 48, 108
16, 446731, Note_off_c, 15, 48, 56
16, 446760, Note_on_c, 15, 48, 108
16, 446851, Note_off_c, 15, 48, 56
16, 446880, Note_on_c, 15, 48, 108
16, 446925, Note_off_c, 15, 48, 56
16, 446940, Note_on_c, 15, 48, 108
16, 446985, Note_off_c, 15, 48, 56
16, 447000, Note_on_c, 15, 48, 108
16, 447045, Note_off_c, 15, 48, 56
16, 447060, Note_on_c, 15, 48, 108
16, 447105, Note_off_c, 15, 48, 56
16, 447120, Note_on_c, 15, 48, 108
16, 447165, Note_off_c, 15, 48, 56
16, 447180, Note_on_c, 15, 48, 108
16, 447225, Note_off_c, 15, 48, 56
16, 447240, Note_on_c, 15, 48, 108
16, 447285, Note_off_c, 15, 48, 56
16, 447300, Note_on_c, 15, 48, 108
16, 447345, Note_off_c, 15, 48, 56
16, 447360, Note_on_c, 15, 48, 108
16, 447405, Note_off_c, 15, 48, 56
16, 447420, Note_on_c, 15, 48, 108
16, 447465, Note_off_c, 15, 48, 56
16, 447480, Note_on_c, 15, 48, 108
16, 447525, Note_off_c, 15, 48, 56
16, 447540, Note_on_c, 15, 48, 108
16, 447585, Note_off_c, 15, 48, 56
16, 447600, Note_on_c, 15, 48, 108
16, 447645, Note_off_c, 15, 48, 56
16, 447660, Note_on_c, 15, 48, 108
16, 447705, Note_off_c, 15, 48, 56
16, 447720, Note_on_c, 15, 48, 108
16, 447765, Note_off_c, 15, 48, 56
16, 447780, Note_on_c, 15, 48, 108
16, 447825, Note_off_c, 15, 48, 56
16, 447840, Note_on_c, 15, 48, 108
16, 447885, Note_off_c, 15, 48, 56
16, 447900, Note_on_c, 15, 48, 108
16, 447945, Note_off_c, 15, 48, 56
16, 447960, Note_on_c, 15, 48, 108
16, 448005, Note_off_c, 15, 48, 56
16, 448020, Note_on_c, 15, 48, 108
16, 448065, Note_off_c, 15, 48, 56
16, 448080, Note_on_c, 15, 48, 108
16, 448125, Note_off_c, 15, 48, 56
16, 448140, Note_on_c, 15, 48, 108
16, 448185, Note_off_c, 15, 48, 56
16, 448200, Note_on_c, 15, 48, 108
16, 448245, Note_off_c, 15, 48, 56
16, 448260, Note_on_c, 15, 48, 108
16, 448305, Note_off_c, 15, 48, 56
16, 448320, Note_on_c, 15, 48, 108
16, 448365, Note_off_c, 15, 48, 56
16, 448380, Note_on_c, 15, 48, 108
16, 448425, Note_off_c, 15, 48, 56
16, 448440, Note_on_c, 15, 48, 108
16, 448485, Note_off_c, 15, 48, 56
16, 448500, Note_on_c, 15, 48, 108
16, 448545, Note_off_c, 15, 48, 56
16, 448560, Note_on_c, 15, 48, 108
16, 448605, Note_off_c, 15, 48, 56
16, 448620, Note_on_c, 15, 48, 108
16, 448665, Note_off_c, 15, 48, 56
16, 448680, Note_on_c, 15, 48, 108
16, 448725, Note_off_c, 15, 48, 56
16, 448740, Note_on_c, 15, 48, 108
16, 448785, Note_off_c, 15, 48, 56
16, 448800, Note_on_c, 15, 48, 108
16, 448914, Note_off_c, 15, 48, 56
16, 449760, Note_on_c, 15, 48, 108
16, 449874, Note_off_c, 15, 48, 56
16, 450720, Note_on_c, 15, 48, 108
16, 450834, Note_off_c, 15, 48, 56
16, 451680, Note_on_c, 15, 48, 108
16, 451794, Note_off_c, 15, 48, 56
16, 452160, Note_on_c, 15, 48, 108
16, 452274, Note_off_c, 15, 48, 56
16, 452640, Note_on_c, 15, 48, 108
16, 452754, Note_off_c, 15, 48, 56
16, 453600, Note_on_c, 15, 48, 108
16, 453714, Note_off_c, 15, 48, 56
16, 454560, Note_on_c, 15, 48, 100
16, 454580, Note_off_c, 15, 48, 56
16, 454590, Note_on_c, 15, 48, 100
16, 454610, Note_off_c, 15, 48, 56
16, 454620, Note_on_c, 15, 48, 100
16, 454640, Note_off_c, 15, 48, 56
16, 454650, Note_on_c, 15, 48, 100
16, 454670, Note_off_c, 15, 48, 56
16, 454680, Note_on_c, 15, 48, 101
16, 454700, Note_off_c, 15, 48, 56
16, 454710, Note_on_c, 15, 48, 101
16, 454730, Note_off_c, 15, 48, 56
16, 454740, Note_on_c, 15, 48, 101
16, 454760, Note_off_c, 15, 48, 56
16, 454770, Note_on_c, 15, 48, 102
16, 454790, Note_off_c, 15, 48, 56
16, 454800, Note_on_c, 15, 48, 102
16, 454820, Note_off_c, 15, 48, 56
16, 454830, Note_on_c, 15, 48, 102
16, 454850, Note_off_c, 15, 48, 56
16, 454860, Note_on_c, 15, 48, 103
16, 454880, Note_off_c, 15, 48, 56
16, 454890, Note_on_c, 15, 48, 103
16, 454910, Note_off_c, 15, 48, 56
16, 454920, Note_on_c, 15, 48, 103
16, 454940, Note_off_c, 15, 48, 56
16, 454950, Note_on_c, 15, 48, 104
16, 454970, Note_off_c, 15, 48, 56
16, 454980, Note_on_c, 15, 48, 104
16, 455000, Note_off_c, 15, 48, 56
16, 455010, Note_on_c, 15, 48, 104
16, 455030, Note_off_c, 15, 48, 56
16, 455040, Note_on_c, 15, 48, 105
16, 455060, Note_off_c, 15, 48, 56
16, 455070, Note_on_c, 15, 48, 105
16, 455090, Note_off_c, 15, 48, 56
16, 455100, Note_on_c, 15, 48, 105
16, 455100, Note_on_c, 15, 48, 105
16, 455120, Note_off_c, 15, 48, 56
16, 455120, Note_off_c, 15, 48, 56
16, 455130, Note_on_c, 15, 48, 105
16, 455150, Note_off_c, 15, 48, 56
16, 455160, Note_on_c, 15, 48, 106
16, 455180, Note_off_c, 15, 48, 56
16, 455190, Note_on_c, 15, 48, 106
16, 455210, Note_off_c, 15, 48, 56
16, 455220, Note_on_c, 15, 48, 106
16, 455240, Note_off_c, 15, 48, 56
16, 455250, Note_on_c, 15, 48, 107
16, 455250, Note_on_c, 15, 48, 107
16, 455270, Note_off_c, 15, 48, 56
16, 455270, Note_off_c, 15, 48, 56
16, 455280, Note_on_c, 15, 48, 107
16, 455300, Note_off_c, 15, 48, 56
16, 455310, Note_on_c, 15, 48, 107
16, 455330, Note_off_c, 15, 48, 56
16, 455340, Note_on_c, 15, 48, 108
16, 455360, Note_off_c, 15, 48, 56
16, 455370, Note_on_c, 15, 48, 108
16, 455390, Note_off_c, 15, 48, 56
16, 455400, Note_on_c, 15, 48, 108
16, 455420, Note_off_c, 15, 48, 56
16, 455430, Note_on_c, 15, 48, 109
16, 455450, Note_off_c, 15, 48, 56
16, 455460, Note_on_c, 15, 48, 109
16, 455480, Note_off_c, 15, 48, 56
16, 455490, Note_on_c, 15, 48, 109
16, 455510, Note_off_c, 15, 48, 56
16, 455510, End_track
17, 0, Start_track
17, 0, Title_t, "========================"
17, 0, Control_c, 0, 0, 0
17, 0, End_track
18, 0, Start_track
18, 0, Title_t, "jaenfield@worldnet.att.net"
18, 0, Control_c, 0, 0, 0
18, 0, End_track
19, 0, Start_track
19, 0, End_track
20, 0, Start_track
20, 0, End_track
21, 0, Start_track
21, 0, End_track
22, 0, Start_track
22, 0, End_track
23, 0, Start_track
23, 0, End_track
24, 0, Start_track
24, 0, End_track
25, 0, Start_track
25, 0, End_track
26, 0, Start_track
26, 0, End_track
27, 0, Start_track
27, 0, End_track
28, 0, Start_track
28, 0, End_track
29, 0, Start_track
29, 0, End_track
30, 0, Start_track
30, 0, End_track
31, 0, Start_track
31, 0, End_track
32, 0, Start_track
32, 0, End_track
33, 0, Start_track
33, 0, End_track
34, 0, Start_track
34, 0, End_track
35, 0, Start_track
35, 0, End_track
0, 0, End_of_file