0, 0, Header, 1, 3, 192
1, 0, Start_track
1, 0, Title_t, "Bagatellen No.2 in C Major, Allegro"
1, 0, Text_t, "By Ludwig Van Beethoven"
1, 0, Copyright_t, "Copyright \251April 2001 by Reginald Steven Ritchie"
1, 0, Copyright_t, "Reginald Steven Ritchie"
1, 0, Text_t, "Generated by NoteWorthy Composer"
1, 0, Tempo, 333333
1, 0, Tempo, 333333
1, 0, Time_signature, 3, 2, 24, 8
1, 9216, Tempo, 333333
1, 9216, Tempo, 333333
1, 9216, End_track
2, 0, Start_track
2, 0, MIDI_port, 0
2, 0, Title_t, "Copyright 2001 Reg"
2, 0, Program_c, 0, 0
2, 0, Control_c, 0, 7, 127
2, 0, Control_c, 0, 10, 110
2, 0, Program_c, 0, 0
2, 0, Control_c, 0, 7, 127
2, 0, Control_c, 0, 10, 110
2, 0, Control_c, 0, 91, 84
2, 0, Control_c, 0, 93, 84
2, 0, Note_on_c, 0, 72, 60
2, 32, Note_on_c, 0, 72, 0
2, 144, Note_on_c, 0, 72, 60
2, 192, Note_on_c, 0, 72, 0
2, 192, Note_on_c, 0, 76, 92
2, 240, Note_on_c, 0, 76, 0
2, 576, Note_on_c, 0, 72, 60
2, 768, Note_on_c, 0, 72, 0
2, 768, Note_on_c, 0, 71, 60
2, 960, Note_on_c, 0, 71, 0
2, 960, Note_on_c, 0, 72, 60
2, 1120, Note_on_c, 0, 72, 0
2, 1152, Note_on_c, 0, 67, 60
2, 1152, Note_on_c, 0, 74, 60
2, 1200, Note_on_c, 0, 67, 0
2, 1200, Note_on_c, 0, 74, 0
2, 1344, Note_on_c, 0, 67, 60
2, 1344, Note_on_c, 0, 74, 60
2, 1392, Note_on_c, 0, 67, 0
2, 1392, Note_on_c, 0, 74, 0
2, 1536, Note_on_c, 0, 67, 60
2, 1536, Note_on_c, 0, 74, 60
2, 1584, Note_on_c, 0, 67, 0
2, 1584, Note_on_c, 0, 74, 0
2, 1728, Note_on_c, 0, 67, 60
2, 1728, Note_on_c, 0, 74, 60
2, 1776, Note_on_c, 0, 67, 0
2, 1776, Note_on_c, 0, 74, 0
2, 2304, Note_on_c, 0, 74, 60
2, 2336, Note_on_c, 0, 74, 0
2, 2448, Note_on_c, 0, 74, 60
2, 2494, Note_on_c, 0, 74, 0
2, 2496, Note_on_c, 0, 77, 92
2, 2544, Note_on_c, 0, 77, 0
2, 2880, Note_on_c, 0, 74, 60
2, 3072, Note_on_c, 0, 74, 0
2, 3072, Note_on_c, 0, 73, 60
2, 3264, Note_on_c, 0, 73, 0
2, 3264, Note_on_c, 0, 74, 60
2, 3424, Note_on_c, 0, 74, 0
2, 3456, Note_on_c, 0, 69, 60
2, 3456, Note_on_c, 0, 76, 60
2, 3504, Note_on_c, 0, 69, 0
2, 3504, Note_on_c, 0, 76, 0
2, 3648, Note_on_c, 0, 69, 60
2, 3648, Note_on_c, 0, 76, 60
2, 3696, Note_on_c, 0, 69, 0
2, 3696, Note_on_c, 0, 76, 0
2, 3840, Note_on_c, 0, 69, 60
2, 3840, Note_on_c, 0, 76, 60
2, 3888, Note_on_c, 0, 69, 0
2, 3888, Note_on_c, 0, 76, 0
2, 4032, Note_on_c, 0, 69, 60
2, 4032, Note_on_c, 0, 76, 60
2, 4080, Note_on_c, 0, 69, 0
2, 4080, Note_on_c, 0, 76, 0
2, 4608, Note_on_c, 0, 77, 60
2, 4640, Note_on_c, 0, 77, 0
2, 4752, Note_on_c, 0, 77, 60
2, 4800, Note_on_c, 0, 77, 0
2, 4800, Note_on_c, 0, 81, 92
2, 4848, Note_on_c, 0, 81, 0
2, 5184, Note_on_c, 0, 77, 60
2, 5376, Note_on_c, 0, 77, 0
2, 5376, Note_on_c, 0, 76, 60
2, 5568, Note_on_c, 0, 76, 0
2, 5568, Note_on_c, 0, 77, 60
2, 5728, Note_on_c, 0, 77, 0
2, 5760, Note_on_c, 0, 84, 60
2, 5792, Note_on_c, 0, 84, 0
2, 5904, Note_on_c, 0, 84, 60
2, 5938, Note_on_c, 0, 84, 0
2, 5952, Note_on_c, 0, 88, 92
2, 6000, Note_on_c, 0, 88, 0
2, 6336, Note_on_c, 0, 72, 60
2, 6528, Note_on_c, 0, 72, 0
2, 6528, Note_on_c, 0, 71, 60
2, 6720, Note_on_c, 0, 71, 0
2, 6720, Note_on_c, 0, 72, 60
2, 6880, Note_on_c, 0, 72, 0
2, 6912, Note_on_c, 0, 74, 92
2, 6944, Note_on_c, 0, 74, 0
2, 7056, Note_on_c, 0, 74, 92
2, 7104, Note_on_c, 0, 74, 0
2, 7104, Note_on_c, 0, 81, 92
2, 7152, Note_on_c, 0, 81, 0
2, 7488, Note_on_c, 0, 71, 92
2, 7520, Note_on_c, 0, 71, 0
2, 7632, Note_on_c, 0, 71, 92
2, 7680, Note_on_c, 0, 71, 0
2, 7680, Note_on_c, 0, 79, 92
2, 7728, Note_on_c, 0, 79, 0
2, 8064, Note_on_c, 0, 64, 92
2, 8096, Note_on_c, 0, 64, 0
2, 8208, Note_on_c, 0, 64, 92
2, 8256, Note_on_c, 0, 64, 0
2, 8256, Note_on_c, 0, 72, 92
2, 8304, Note_on_c, 0, 72, 0
2, 8640, Note_on_c, 0, 52, 92
2, 8640, Note_on_c, 0, 55, 92
2, 8640, Note_on_c, 0, 60, 92
2, 8688, Note_on_c, 0, 52, 0
2, 8688, Note_on_c, 0, 55, 0
2, 8688, Note_on_c, 0, 60, 0
2, 9024, Note_on_c, 0, 52, 92
2, 9024, Note_on_c, 0, 55, 92
2, 9024, Note_on_c, 0, 60, 92
2, 9072, Note_on_c, 0, 52, 0
2, 9072, Note_on_c, 0, 55, 0
2, 9072, Note_on_c, 0, 60, 0
2, 9216, Control_c, 0, 91, 84
2, 9216, Control_c, 0, 93, 84
2, 9216, Note_on_c, 0, 72, 60
2, 9248, Note_on_c, 0, 72, 0
2, 9360, Note_on_c, 0, 72, 60
2, 9408, Note_on_c, 0, 72, 0
2, 9408, Note_on_c, 0, 76, 92
2, 9456, Note_on_c, 0, 76, 0
2, 9792, Note_on_c, 0, 72, 60
2, 9984, Note_on_c, 0, 72, 0
2, 9984, Note_on_c, 0, 71, 60
2, 10176, Note_on_c, 0, 71, 0
2, 10176, Note_on_c, 0, 72, 60
2, 10336, Note_on_c, 0, 72, 0
2, 10368, Note_on_c, 0, 67, 60
2, 10368, Note_on_c, 0, 74, 60
2, 10416, Note_on_c, 0, 67, 0
2, 10416, Note_on_c, 0, 74, 0
2, 10560, Note_on_c, 0, 67, 60
2, 10560, Note_on_c, 0, 74, 60
2, 10608, Note_on_c, 0, 67, 0
2, 10608, Note_on_c, 0, 74, 0
2, 10752, Note_on_c, 0, 67, 60
2, 10752, Note_on_c, 0, 74, 60
2, 10800, Note_on_c, 0, 67, 0
2, 10800, Note_on_c, 0, 74, 0
2, 10944, Note_on_c, 0, 67, 60
2, 10944, Note_on_c, 0, 74, 60
2, 10992, Note_on_c, 0, 67, 0
2, 10992, Note_on_c, 0, 74, 0
2, 11520, Note_on_c, 0, 74, 60
2, 11552, Note_on_c, 0, 74, 0
2, 11664, Note_on_c, 0, 74, 60
2, 11710, Note_on_c, 0, 74, 0
2, 11712, Note_on_c, 0, 77, 92
2, 11760, Note_on_c, 0, 77, 0
2, 12096, Note_on_c, 0, 74, 60
2, 12288, Note_on_c, 0, 74, 0
2, 12288, Note_on_c, 0, 73, 60
2, 12480, Note_on_c, 0, 73, 0
2, 12480, Note_on_c, 0, 74, 60
2, 12640, Note_on_c, 0, 74, 0
2, 12672, Note_on_c, 0, 69, 60
2, 12672, Note_on_c, 0, 76, 60
2, 12720, Note_on_c, 0, 69, 0
2, 12720, Note_on_c, 0, 76, 0
2, 12864, Note_on_c, 0, 69, 60
2, 12864, Note_on_c, 0, 76, 60
2, 12912, Note_on_c, 0, 69, 0
2, 12912, Note_on_c, 0, 76, 0
2, 13056, Note_on_c, 0, 69, 60
2, 13056, Note_on_c, 0, 76, 60
2, 13104, Note_on_c, 0, 69, 0
2, 13104, Note_on_c, 0, 76, 0
2, 13248, Note_on_c, 0, 69, 60
2, 13248, Note_on_c, 0, 76, 60
2, 13296, Note_on_c, 0, 69, 0
2, 13296, Note_on_c, 0, 76, 0
2, 13824, Note_on_c, 0, 77, 60
2, 13856, Note_on_c, 0, 77, 0
2, 13968, Note_on_c, 0, 77, 60
2, 14016, Note_on_c, 0, 77, 0
2, 14016, Note_on_c, 0, 81, 92
2, 14064, Note_on_c, 0, 81, 0
2, 14400, Note_on_c, 0, 77, 60
2, 14592, Note_on_c, 0, 77, 0
2, 14592, Note_on_c, 0, 76, 60
2, 14784, Note_on_c, 0, 76, 0
2, 14784, Note_on_c, 0, 77, 60
2, 14944, Note_on_c, 0, 77, 0
2, 14976, Note_on_c, 0, 84, 60
2, 15008, Note_on_c, 0, 84, 0
2, 15120, Note_on_c, 0, 84, 60
2, 15154, Note_on_c, 0, 84, 0
2, 15168, Note_on_c, 0, 88, 92
2, 15216, Note_on_c, 0, 88, 0
2, 15552, Note_on_c, 0, 72, 60
2, 15744, Note_on_c, 0, 72, 0
2, 15744, Note_on_c, 0, 71, 60
2, 15936, Note_on_c, 0, 71, 0
2, 15936, Note_on_c, 0, 72, 60
2, 16096, Note_on_c, 0, 72, 0
2, 16128, Note_on_c, 0, 74, 92
2, 16160, Note_on_c, 0, 74, 0
2, 16272, Note_on_c, 0, 74, 92
2, 16320, Note_on_c, 0, 74, 0
2, 16320, Note_on_c, 0, 81, 92
2, 16368, Note_on_c, 0, 81, 0
2, 16704, Note_on_c, 0, 71, 92
2, 16736, Note_on_c, 0, 71, 0
2, 16848, Note_on_c, 0, 71, 92
2, 16896, Note_on_c, 0, 71, 0
2, 16896, Note_on_c, 0, 79, 92
2, 16944, Note_on_c, 0, 79, 0
2, 17280, Note_on_c, 0, 64, 92
2, 17312, Note_on_c, 0, 64, 0
2, 17424, Note_on_c, 0, 64, 92
2, 17472, Note_on_c, 0, 64, 0
2, 17472, Note_on_c, 0, 72, 92
2, 17520, Note_on_c, 0, 72, 0
2, 17856, Note_on_c, 0, 52, 92
2, 17856, Note_on_c, 0, 55, 92
2, 17856, Note_on_c, 0, 60, 92
2, 17904, Note_on_c, 0, 52, 0
2, 17904, Note_on_c, 0, 55, 0
2, 17904, Note_on_c, 0, 60, 0
2, 18240, Note_on_c, 0, 52, 92
2, 18240, Note_on_c, 0, 55, 92
2, 18240, Note_on_c, 0, 60, 92
2, 18288, Note_on_c, 0, 52, 0
2, 18288, Note_on_c, 0, 55, 0
2, 18288, Note_on_c, 0, 60, 0
2, 18432, Note_on_c, 0, 52, 92
2, 18432, Note_on_c, 0, 55, 92
2, 18432, Note_on_c, 0, 60, 92
2, 18480, Note_on_c, 0, 52, 0
2, 18480, Note_on_c, 0, 55, 0
2, 18480, Note_on_c, 0, 60, 0
2, 18816, Note_on_c, 0, 64, 60
2, 19008, Note_on_c, 0, 64, 0
2, 19008, Note_on_c, 0, 60, 60
2, 19008, Note_on_c, 0, 72, 60
2, 19344, Note_on_c, 0, 60, 0
2, 19344, Note_on_c, 0, 72, 0
2, 19392, Note_on_c, 0, 59, 60
2, 19392, Note_on_c, 0, 71, 60
2, 19584, Note_on_c, 0, 59, 0
2, 19584, Note_on_c, 0, 71, 0
2, 19584, Note_on_c, 0, 57, 60
2, 19584, Note_on_c, 0, 69, 60
2, 19968, Note_on_c, 0, 57, 0
2, 19968, Note_on_c, 0, 69, 0
2, 19968, Note_on_c, 0, 59, 60
2, 19968, Note_on_c, 0, 71, 60
2, 20160, Note_on_c, 0, 59, 0
2, 20160, Note_on_c, 0, 71, 0
2, 20160, Note_on_c, 0, 60, 60
2, 20160, Note_on_c, 0, 72, 60
2, 20448, Note_on_c, 0, 60, 0
2, 20448, Note_on_c, 0, 72, 0
2, 20448, Note_on_c, 0, 62, 60
2, 20448, Note_on_c, 0, 74, 60
2, 20544, Note_on_c, 0, 62, 0
2, 20544, Note_on_c, 0, 74, 0
2, 20544, Note_on_c, 0, 60, 60
2, 20544, Note_on_c, 0, 72, 60
2, 20640, Note_on_c, 0, 60, 0
2, 20640, Note_on_c, 0, 72, 0
2, 20640, Note_on_c, 0, 59, 60
2, 20640, Note_on_c, 0, 71, 60
2, 20736, Note_on_c, 0, 59, 0
2, 20736, Note_on_c, 0, 71, 0
2, 20736, Note_on_c, 0, 57, 60
2, 20736, Note_on_c, 0, 69, 60
2, 21072, Note_on_c, 0, 57, 0
2, 21072, Note_on_c, 0, 69, 0
2, 21120, Note_on_c, 0, 59, 60
2, 21120, Note_on_c, 0, 71, 60
2, 21312, Note_on_c, 0, 59, 0
2, 21312, Note_on_c, 0, 71, 0
2, 21312, Note_on_c, 0, 60, 60
2, 21312, Note_on_c, 0, 72, 60
2, 21696, Note_on_c, 0, 60, 0
2, 21696, Note_on_c, 0, 72, 0
2, 21696, Note_on_c, 0, 59, 76
2, 21696, Note_on_c, 0, 71, 76
2, 21888, Note_on_c, 0, 59, 0
2, 21888, Note_on_c, 0, 71, 0
2, 21888, Note_on_c, 0, 60, 84
2, 21888, Note_on_c, 0, 72, 84
2, 22272, Note_on_c, 0, 60, 0
2, 22272, Note_on_c, 0, 72, 0
2, 22272, Note_on_c, 0, 62, 100
2, 22272, Note_on_c, 0, 74, 100
2, 22432, Note_on_c, 0, 62, 0
2, 22432, Note_on_c, 0, 74, 0
2, 22464, Note_on_c, 0, 64, 108
2, 22464, Note_on_c, 0, 76, 108
2, 23040, Note_on_c, 0, 64, 0
2, 23040, Note_on_c, 0, 76, 0
2, 23040, Note_on_c, 0, 64, 84
2, 23040, Note_on_c, 0, 76, 84
2, 23376, Note_on_c, 0, 64, 0
2, 23376, Note_on_c, 0, 76, 0
2, 23424, Note_on_c, 0, 60, 68
2, 23424, Note_on_c, 0, 72, 68
2, 23520, Note_on_c, 0, 60, 0
2, 23520, Note_on_c, 0, 72, 0
2, 23520, Note_on_c, 0, 62, 64
2, 23520, Note_on_c, 0, 74, 64
2, 23616, Note_on_c, 0, 62, 0
2, 23616, Note_on_c, 0, 74, 0
2, 23616, Note_on_c, 0, 64, 60
2, 23616, Note_on_c, 0, 76, 60
2, 24000, Note_on_c, 0, 64, 0
2, 24000, Note_on_c, 0, 76, 0
2, 24000, Note_on_c, 0, 62, 60
2, 24000, Note_on_c, 0, 74, 60
2, 24192, Note_on_c, 0, 62, 0
2, 24192, Note_on_c, 0, 74, 0
2, 24192, Note_on_c, 0, 60, 60
2, 24192, Note_on_c, 0, 72, 60
2, 24576, Note_on_c, 0, 60, 0
2, 24576, Note_on_c, 0, 72, 0
2, 24576, Note_on_c, 0, 62, 60
2, 24576, Note_on_c, 0, 74, 60
2, 24768, Note_on_c, 0, 62, 0
2, 24768, Note_on_c, 0, 74, 0
2, 24768, Note_on_c, 0, 64, 60
2, 24768, Note_on_c, 0, 76, 60
2, 25056, Note_on_c, 0, 64, 0
2, 25056, Note_on_c, 0, 76, 0
2, 25056, Note_on_c, 0, 65, 60
2, 25056, Note_on_c, 0, 77, 60
2, 25152, Note_on_c, 0, 65, 0
2, 25152, Note_on_c, 0, 77, 0
2, 25152, Note_on_c, 0, 64, 60
2, 25152, Note_on_c, 0, 76, 60
2, 25248, Note_on_c, 0, 64, 0
2, 25248, Note_on_c, 0, 76, 0
2, 25248, Note_on_c, 0, 62, 60
2, 25248, Note_on_c, 0, 74, 60
2, 25344, Note_on_c, 0, 62, 0
2, 25344, Note_on_c, 0, 74, 0
2, 25344, Note_on_c, 0, 60, 60
2, 25344, Note_on_c, 0, 72, 60
2, 25680, Note_on_c, 0, 60, 0
2, 25680, Note_on_c, 0, 72, 0
2, 25728, Note_on_c, 0, 62, 60
2, 25728, Note_on_c, 0, 74, 60
2, 25888, Note_on_c, 0, 62, 0
2, 25888, Note_on_c, 0, 74, 0
2, 25920, Note_on_c, 0, 64, 60
2, 25920, Note_on_c, 0, 76, 60
2, 26256, Note_on_c, 0, 64, 0
2, 26256, Note_on_c, 0, 76, 0
2, 26304, Note_on_c, 0, 62, 55
2, 26304, Note_on_c, 0, 74, 55
2, 26464, Note_on_c, 0, 62, 0
2, 26464, Note_on_c, 0, 74, 0
2, 26496, Note_on_c, 0, 60, 53
2, 26496, Note_on_c, 0, 72, 53
2, 26832, Note_on_c, 0, 60, 0
2, 26832, Note_on_c, 0, 72, 0
2, 26880, Note_on_c, 0, 59, 48
2, 26880, Note_on_c, 0, 71, 48
2, 27040, Note_on_c, 0, 59, 0
2, 27040, Note_on_c, 0, 71, 0
2, 27072, Note_on_c, 0, 57, 45
2, 27072, Note_on_c, 0, 69, 45
2, 27648, Note_on_c, 0, 57, 0
2, 27648, Note_on_c, 0, 69, 0
2, 27648, Note_on_c, 0, 57, 45
2, 27648, Note_on_c, 0, 69, 45
2, 27984, Note_on_c, 0, 57, 0
2, 27984, Note_on_c, 0, 69, 0
2, 28032, Note_on_c, 0, 64, 45
2, 28192, Note_on_c, 0, 64, 0
2, 28224, Note_on_c, 0, 60, 45
2, 28224, Note_on_c, 0, 72, 45
2, 28560, Note_on_c, 0, 60, 0
2, 28560, Note_on_c, 0, 72, 0
2, 28608, Note_on_c, 0, 59, 45
2, 28608, Note_on_c, 0, 71, 45
2, 28800, Note_on_c, 0, 59, 0
2, 28800, Note_on_c, 0, 71, 0
2, 28800, Note_on_c, 0, 57, 45
2, 28800, Note_on_c, 0, 69, 45
2, 29184, Note_on_c, 0, 57, 0
2, 29184, Note_on_c, 0, 69, 0
2, 29184, Note_on_c, 0, 59, 45
2, 29184, Note_on_c, 0, 71, 45
2, 29376, Note_on_c, 0, 59, 0
2, 29376, Note_on_c, 0, 71, 0
2, 29376, Note_on_c, 0, 60, 45
2, 29376, Note_on_c, 0, 72, 45
2, 29664, Note_on_c, 0, 60, 0
2, 29664, Note_on_c, 0, 72, 0
2, 29664, Note_on_c, 0, 62, 45
2, 29664, Note_on_c, 0, 74, 45
2, 29760, Note_on_c, 0, 62, 0
2, 29760, Note_on_c, 0, 74, 0
2, 29760, Note_on_c, 0, 60, 45
2, 29760, Note_on_c, 0, 72, 45
2, 29856, Note_on_c, 0, 60, 0
2, 29856, Note_on_c, 0, 72, 0
2, 29856, Note_on_c, 0, 59, 45
2, 29856, Note_on_c, 0, 71, 45
2, 29952, Note_on_c, 0, 59, 0
2, 29952, Note_on_c, 0, 71, 0
2, 29952, Note_on_c, 0, 57, 45
2, 29952, Note_on_c, 0, 69, 45
2, 30288, Note_on_c, 0, 57, 0
2, 30288, Note_on_c, 0, 69, 0
2, 30336, Note_on_c, 0, 59, 45
2, 30336, Note_on_c, 0, 71, 45
2, 30528, Note_on_c, 0, 59, 0
2, 30528, Note_on_c, 0, 71, 0
2, 30528, Note_on_c, 0, 60, 45
2, 30528, Note_on_c, 0, 72, 45
2, 30912, Note_on_c, 0, 60, 0
2, 30912, Note_on_c, 0, 72, 0
2, 30912, Note_on_c, 0, 59, 66
2, 30912, Note_on_c, 0, 71, 66
2, 31104, Note_on_c, 0, 59, 0
2, 31104, Note_on_c, 0, 71, 0
2, 31104, Note_on_c, 0, 60, 76
2, 31104, Note_on_c, 0, 72, 76
2, 31488, Note_on_c, 0, 60, 0
2, 31488, Note_on_c, 0, 72, 0
2, 31488, Note_on_c, 0, 62, 97
2, 31488, Note_on_c, 0, 74, 97
2, 31648, Note_on_c, 0, 62, 0
2, 31648, Note_on_c, 0, 74, 0
2, 31680, Note_on_c, 0, 64, 108
2, 31680, Note_on_c, 0, 76, 108
2, 32256, Note_on_c, 0, 64, 0
2, 32256, Note_on_c, 0, 76, 0
2, 32256, Note_on_c, 0, 64, 84
2, 32256, Note_on_c, 0, 76, 84
2, 32592, Note_on_c, 0, 64, 0
2, 32592, Note_on_c, 0, 76, 0
2, 32640, Note_on_c, 0, 60, 68
2, 32640, Note_on_c, 0, 72, 68
2, 32736, Note_on_c, 0, 60, 0
2, 32736, Note_on_c, 0, 72, 0
2, 32736, Note_on_c, 0, 62, 64
2, 32736, Note_on_c, 0, 74, 64
2, 32832, Note_on_c, 0, 62, 0
2, 32832, Note_on_c, 0, 74, 0
2, 32832, Note_on_c, 0, 64, 60
2, 32832, Note_on_c, 0, 76, 60
2, 33216, Note_on_c, 0, 64, 0
2, 33216, Note_on_c, 0, 76, 0
2, 33216, Note_on_c, 0, 62, 60
2, 33216, Note_on_c, 0, 74, 60
2, 33408, Note_on_c, 0, 62, 0
2, 33408, Note_on_c, 0, 74, 0
2, 33408, Note_on_c, 0, 60, 60
2, 33408, Note_on_c, 0, 72, 60
2, 33792, Note_on_c, 0, 60, 0
2, 33792, Note_on_c, 0, 72, 0
2, 33792, Note_on_c, 0, 62, 60
2, 33792, Note_on_c, 0, 74, 60
2, 33984, Note_on_c, 0, 62, 0
2, 33984, Note_on_c, 0, 74, 0
2, 33984, Note_on_c, 0, 64, 60
2, 33984, Note_on_c, 0, 76, 60
2, 34272, Note_on_c, 0, 64, 0
2, 34272, Note_on_c, 0, 76, 0
2, 34272, Note_on_c, 0, 65, 60
2, 34272, Note_on_c, 0, 77, 60
2, 34368, Note_on_c, 0, 65, 0
2, 34368, Note_on_c, 0, 77, 0
2, 34368, Note_on_c, 0, 64, 60
2, 34368, Note_on_c, 0, 76, 60
2, 34464, Note_on_c, 0, 64, 0
2, 34464, Note_on_c, 0, 76, 0
2, 34464, Note_on_c, 0, 62, 60
2, 34464, Note_on_c, 0, 74, 60
2, 34560, Note_on_c, 0, 62, 0
2, 34560, Note_on_c, 0, 74, 0
2, 34560, Note_on_c, 0, 60, 60
2, 34560, Note_on_c, 0, 72, 60
2, 34896, Note_on_c, 0, 60, 0
2, 34896, Note_on_c, 0, 72, 0
2, 34944, Note_on_c, 0, 62, 60
2, 34944, Note_on_c, 0, 74, 60
2, 35104, Note_on_c, 0, 62, 0
2, 35104, Note_on_c, 0, 74, 0
2, 35136, Note_on_c, 0, 64, 60
2, 35136, Note_on_c, 0, 76, 60
2, 35472, Note_on_c, 0, 64, 0
2, 35472, Note_on_c, 0, 76, 0
2, 35520, Note_on_c, 0, 62, 55
2, 35520, Note_on_c, 0, 74, 55
2, 35680, Note_on_c, 0, 62, 0
2, 35680, Note_on_c, 0, 74, 0
2, 35712, Note_on_c, 0, 60, 53
2, 35712, Note_on_c, 0, 72, 53
2, 36048, Note_on_c, 0, 60, 0
2, 36048, Note_on_c, 0, 72, 0
2, 36096, Note_on_c, 0, 59, 48
2, 36096, Note_on_c, 0, 71, 48
2, 36256, Note_on_c, 0, 59, 0
2, 36256, Note_on_c, 0, 71, 0
2, 36288, Note_on_c, 0, 57, 45
2, 36288, Note_on_c, 0, 69, 45
2, 36864, Note_on_c, 0, 57, 0
2, 36864, Note_on_c, 0, 69, 0
2, 36864, Note_on_c, 0, 57, 45
2, 36864, Note_on_c, 0, 69, 45
2, 37200, Note_on_c, 0, 57, 0
2, 37200, Note_on_c, 0, 69, 0
2, 37248, Note_on_c, 0, 64, 45
2, 37408, Note_on_c, 0, 64, 0
2, 37440, Note_on_c, 0, 57, 60
2, 37440, Note_on_c, 0, 69, 60
2, 38016, Note_on_c, 0, 57, 0
2, 38016, Note_on_c, 0, 69, 0
2, 38016, Note_on_c, 0, 57, 60
2, 38016, Note_on_c, 0, 69, 60
2, 38352, Note_on_c, 0, 57, 0
2, 38352, Note_on_c, 0, 69, 0
2, 38400, Note_on_c, 0, 59, 60
2, 38400, Note_on_c, 0, 71, 60
2, 38560, Note_on_c, 0, 59, 0
2, 38560, Note_on_c, 0, 71, 0
2, 38592, Note_on_c, 0, 72, 60
2, 38624, Note_on_c, 0, 72, 0
2, 38736, Note_on_c, 0, 72, 60
2, 38784, Note_on_c, 0, 72, 0
2, 38784, Note_on_c, 0, 76, 92
2, 38832, Note_on_c, 0, 76, 0
2, 39168, Note_on_c, 0, 72, 60
2, 39360, Note_on_c, 0, 72, 0
2, 39360, Note_on_c, 0, 71, 60
2, 39552, Note_on_c, 0, 71, 0
2, 39552, Note_on_c, 0, 72, 60
2, 39712, Note_on_c, 0, 72, 0
2, 39744, Note_on_c, 0, 67, 60
2, 39744, Note_on_c, 0, 74, 60
2, 39792, Note_on_c, 0, 67, 0
2, 39792, Note_on_c, 0, 74, 0
2, 39936, Note_on_c, 0, 67, 60
2, 39936, Note_on_c, 0, 74, 60
2, 39984, Note_on_c, 0, 67, 0
2, 39984, Note_on_c, 0, 74, 0
2, 40128, Note_on_c, 0, 67, 60
2, 40128, Note_on_c, 0, 74, 60
2, 40176, Note_on_c, 0, 67, 0
2, 40176, Note_on_c, 0, 74, 0
2, 40320, Note_on_c, 0, 67, 60
2, 40320, Note_on_c, 0, 74, 60
2, 40368, Note_on_c, 0, 67, 0
2, 40368, Note_on_c, 0, 74, 0
2, 40896, Note_on_c, 0, 74, 60
2, 40928, Note_on_c, 0, 74, 0
2, 41040, Note_on_c, 0, 74, 60
2, 41086, Note_on_c, 0, 74, 0
2, 41088, Note_on_c, 0, 77, 92
2, 41136, Note_on_c, 0, 77, 0
2, 41472, Note_on_c, 0, 74, 60
2, 41664, Note_on_c, 0, 74, 0
2, 41664, Note_on_c, 0, 73, 60
2, 41856, Note_on_c, 0, 73, 0
2, 41856, Note_on_c, 0, 74, 60
2, 42016, Note_on_c, 0, 74, 0
2, 42048, Note_on_c, 0, 69, 60
2, 42048, Note_on_c, 0, 76, 60
2, 42096, Note_on_c, 0, 69, 0
2, 42096, Note_on_c, 0, 76, 0
2, 42240, Note_on_c, 0, 69, 60
2, 42240, Note_on_c, 0, 76, 60
2, 42288, Note_on_c, 0, 69, 0
2, 42288, Note_on_c, 0, 76, 0
2, 42432, Note_on_c, 0, 69, 60
2, 42432, Note_on_c, 0, 76, 60
2, 42480, Note_on_c, 0, 69, 0
2, 42480, Note_on_c, 0, 76, 0
2, 42624, Note_on_c, 0, 69, 60
2, 42624, Note_on_c, 0, 76, 60
2, 42672, Note_on_c, 0, 69, 0
2, 42672, Note_on_c, 0, 76, 0
2, 43200, Note_on_c, 0, 77, 60
2, 43232, Note_on_c, 0, 77, 0
2, 43344, Note_on_c, 0, 77, 60
2, 43392, Note_on_c, 0, 77, 0
2, 43392, Note_on_c, 0, 81, 92
2, 43440, Note_on_c, 0, 81, 0
2, 43776, Note_on_c, 0, 77, 60
2, 43968, Note_on_c, 0, 77, 0
2, 43968, Note_on_c, 0, 76, 60
2, 44160, Note_on_c, 0, 76, 0
2, 44160, Note_on_c, 0, 77, 60
2, 44320, Note_on_c, 0, 77, 0
2, 44352, Note_on_c, 0, 84, 60
2, 44384, Note_on_c, 0, 84, 0
2, 44496, Note_on_c, 0, 84, 60
2, 44530, Note_on_c, 0, 84, 0
2, 44544, Note_on_c, 0, 88, 92
2, 44592, Note_on_c, 0, 88, 0
2, 44928, Note_on_c, 0, 72, 60
2, 45120, Note_on_c, 0, 72, 0
2, 45120, Note_on_c, 0, 71, 60
2, 45312, Note_on_c, 0, 71, 0
2, 45312, Note_on_c, 0, 72, 60
2, 45472, Note_on_c, 0, 72, 0
2, 45504, Note_on_c, 0, 74, 92
2, 45536, Note_on_c, 0, 74, 0
2, 45648, Note_on_c, 0, 74, 92
2, 45696, Note_on_c, 0, 74, 0
2, 45696, Note_on_c, 0, 81, 92
2, 45744, Note_on_c, 0, 81, 0
2, 46080, Note_on_c, 0, 71, 92
2, 46112, Note_on_c, 0, 71, 0
2, 46224, Note_on_c, 0, 71, 92
2, 46272, Note_on_c, 0, 71, 0
2, 46272, Note_on_c, 0, 79, 92
2, 46320, Note_on_c, 0, 79, 0
2, 46656, Note_on_c, 0, 64, 92
2, 46688, Note_on_c, 0, 64, 0
2, 46800, Note_on_c, 0, 64, 92
2, 46848, Note_on_c, 0, 64, 0
2, 46848, Note_on_c, 0, 72, 92
2, 46896, Note_on_c, 0, 72, 0
2, 47232, Note_on_c, 0, 52, 92
2, 47232, Note_on_c, 0, 55, 92
2, 47232, Note_on_c, 0, 60, 92
2, 47280, Note_on_c, 0, 52, 0
2, 47280, Note_on_c, 0, 55, 0
2, 47280, Note_on_c, 0, 60, 0
2, 47616, Note_on_c, 0, 55, 60
2, 47664, Note_on_c, 0, 55, 0
2, 47808, Note_on_c, 0, 55, 60
2, 47808, Note_on_c, 0, 64, 60
2, 47808, Note_on_c, 0, 67, 60
2, 48384, Note_on_c, 0, 55, 0
2, 48384, Note_on_c, 0, 64, 0
2, 48384, Note_on_c, 0, 67, 0
2, 48384, Note_on_c, 0, 55, 60
2, 48384, Note_on_c, 0, 62, 60
2, 48384, Note_on_c, 0, 65, 60
2, 48912, Note_on_c, 0, 55, 0
2, 48912, Note_on_c, 0, 62, 0
2, 48912, Note_on_c, 0, 65, 0
2, 48960, Note_on_c, 0, 60, 60
2, 48960, Note_on_c, 0, 64, 60
2, 49056, Note_on_c, 0, 60, 0
2, 49056, Note_on_c, 0, 64, 0
2, 49056, Note_on_c, 0, 62, 60
2, 49056, Note_on_c, 0, 65, 60
2, 49152, Note_on_c, 0, 62, 0
2, 49152, Note_on_c, 0, 65, 0
2, 49152, Note_on_c, 0, 64, 60
2, 49152, Note_on_c, 0, 67, 60
2, 49248, Note_on_c, 0, 64, 0
2, 49248, Note_on_c, 0, 67, 0
2, 49248, Note_on_c, 0, 65, 60
2, 49248, Note_on_c, 0, 69, 60
2, 49344, Note_on_c, 0, 65, 0
2, 49344, Note_on_c, 0, 69, 0
2, 49344, Note_on_c, 0, 67, 60
2, 49344, Note_on_c, 0, 71, 60
2, 49440, Note_on_c, 0, 67, 0
2, 49440, Note_on_c, 0, 71, 0
2, 49440, Note_on_c, 0, 69, 60
2, 49440, Note_on_c, 0, 72, 60
2, 49536, Note_on_c, 0, 69, 0
2, 49536, Note_on_c, 0, 72, 0
2, 49536, Note_on_c, 0, 71, 60
2, 49536, Note_on_c, 0, 74, 60
2, 49632, Note_on_c, 0, 71, 0
2, 49632, Note_on_c, 0, 74, 0
2, 49632, Note_on_c, 0, 72, 60
2, 49632, Note_on_c, 0, 76, 60
2, 49728, Note_on_c, 0, 72, 0
2, 49728, Note_on_c, 0, 76, 0
2, 49728, Note_on_c, 0, 74, 60
2, 49728, Note_on_c, 0, 77, 60
2, 49824, Note_on_c, 0, 74, 0
2, 49824, Note_on_c, 0, 77, 0
2, 49824, Note_on_c, 0, 76, 60
2, 49824, Note_on_c, 0, 79, 60
2, 49920, Note_on_c, 0, 76, 0
2, 49920, Note_on_c, 0, 79, 0
2, 49920, Note_on_c, 0, 77, 60
2, 49920, Note_on_c, 0, 81, 60
2, 50016, Note_on_c, 0, 77, 0
2, 50016, Note_on_c, 0, 81, 0
2, 50016, Note_on_c, 0, 74, 60
2, 50016, Note_on_c, 0, 83, 60
2, 50110, Note_on_c, 0, 74, 0
2, 50110, Note_on_c, 0, 83, 0
2, 50112, Note_on_c, 0, 79, 60
2, 50112, Note_on_c, 0, 84, 60
2, 50160, Note_on_c, 0, 79, 0
2, 50160, Note_on_c, 0, 84, 0
2, 50304, Note_on_c, 0, 55, 92
2, 50304, Note_on_c, 0, 64, 92
2, 50304, Note_on_c, 0, 67, 92
2, 50688, Note_on_c, 0, 55, 0
2, 50688, Note_on_c, 0, 64, 0
2, 50688, Note_on_c, 0, 67, 0
2, 50688, Note_on_c, 0, 55, 60
2, 50688, Note_on_c, 0, 62, 60
2, 50688, Note_on_c, 0, 65, 60
2, 50848, Note_on_c, 0, 55, 0
2, 50848, Note_on_c, 0, 62, 0
2, 50848, Note_on_c, 0, 65, 0
2, 50880, Note_on_c, 0, 55, 92
2, 50880, Note_on_c, 0, 62, 92
2, 50880, Note_on_c, 0, 65, 92
2, 51216, Note_on_c, 0, 55, 0
2, 51216, Note_on_c, 0, 62, 0
2, 51216, Note_on_c, 0, 65, 0
2, 51264, Note_on_c, 0, 60, 60
2, 51264, Note_on_c, 0, 64, 60
2, 51360, Note_on_c, 0, 60, 0
2, 51360, Note_on_c, 0, 64, 0
2, 51360, Note_on_c, 0, 62, 62
2, 51360, Note_on_c, 0, 66, 62
2, 51456, Note_on_c, 0, 62, 0
2, 51456, Note_on_c, 0, 66, 0
2, 51456, Note_on_c, 0, 64, 64
2, 51456, Note_on_c, 0, 67, 64
2, 51552, Note_on_c, 0, 64, 0
2, 51552, Note_on_c, 0, 67, 0
2, 51552, Note_on_c, 0, 66, 66
2, 51552, Note_on_c, 0, 69, 66
2, 51648, Note_on_c, 0, 66, 0
2, 51648, Note_on_c, 0, 69, 0
2, 51648, Note_on_c, 0, 67, 68
2, 51648, Note_on_c, 0, 71, 68
2, 51744, Note_on_c, 0, 67, 0
2, 51744, Note_on_c, 0, 71, 0
2, 51744, Note_on_c, 0, 69, 70
2, 51744, Note_on_c, 0, 72, 70
2, 51840, Note_on_c, 0, 69, 0
2, 51840, Note_on_c, 0, 72, 0
2, 51840, Note_on_c, 0, 71, 72
2, 51840, Note_on_c, 0, 74, 72
2, 51936, Note_on_c, 0, 71, 0
2, 51936, Note_on_c, 0, 74, 0
2, 51936, Note_on_c, 0, 72, 74
2, 51936, Note_on_c, 0, 76, 74
2, 52032, Note_on_c, 0, 72, 0
2, 52032, Note_on_c, 0, 76, 0
2, 52032, Note_on_c, 0, 74, 76
2, 52032, Note_on_c, 0, 78, 76
2, 52128, Note_on_c, 0, 74, 0
2, 52128, Note_on_c, 0, 78, 0
2, 52128, Note_on_c, 0, 76, 78
2, 52128, Note_on_c, 0, 79, 78
2, 52224, Note_on_c, 0, 76, 0
2, 52224, Note_on_c, 0, 79, 0
2, 52224, Note_on_c, 0, 78, 80
2, 52224, Note_on_c, 0, 81, 80
2, 52320, Note_on_c, 0, 78, 0
2, 52320, Note_on_c, 0, 81, 0
2, 52320, Note_on_c, 0, 79, 83
2, 52320, Note_on_c, 0, 83, 83
2, 52414, Note_on_c, 0, 79, 0
2, 52414, Note_on_c, 0, 83, 0
2, 52416, Note_on_c, 0, 81, 86
2, 52416, Note_on_c, 0, 84, 86
2, 52464, Note_on_c, 0, 81, 0
2, 52464, Note_on_c, 0, 84, 0
2, 52608, Note_on_c, 0, 81, 92
2, 52608, Note_on_c, 0, 84, 92
2, 52992, Note_on_c, 0, 81, 0
2, 52992, Note_on_c, 0, 84, 0
2, 52992, Note_on_c, 0, 79, 60
2, 52992, Note_on_c, 0, 83, 60
2, 53040, Note_on_c, 0, 79, 0
2, 53040, Note_on_c, 0, 83, 0
2, 53184, Note_on_c, 0, 79, 92
2, 53184, Note_on_c, 0, 83, 92
2, 53520, Note_on_c, 0, 79, 0
2, 53520, Note_on_c, 0, 83, 0
2, 53568, Note_on_c, 0, 79, 60
2, 53568, Note_on_c, 0, 81, 60
2, 53568, Note_on_c, 0, 88, 60
2, 53616, Note_on_c, 0, 79, 0
2, 53616, Note_on_c, 0, 81, 0
2, 53616, Note_on_c, 0, 88, 0
2, 53760, Note_on_c, 0, 79, 60
2, 53760, Note_on_c, 0, 81, 60
2, 53760, Note_on_c, 0, 88, 60
2, 53808, Note_on_c, 0, 79, 0
2, 53808, Note_on_c, 0, 81, 0
2, 53808, Note_on_c, 0, 88, 0
2, 53952, Note_on_c, 0, 78, 60
2, 53952, Note_on_c, 0, 81, 60
2, 53952, Note_on_c, 0, 86, 60
2, 54000, Note_on_c, 0, 78, 0
2, 54000, Note_on_c, 0, 81, 0
2, 54000, Note_on_c, 0, 86, 0
2, 54144, Note_on_c, 0, 74, 60
2, 54144, Note_on_c, 0, 79, 60
2, 54144, Note_on_c, 0, 83, 60
2, 54192, Note_on_c, 0, 74, 0
2, 54192, Note_on_c, 0, 79, 0
2, 54192, Note_on_c, 0, 83, 0
2, 54528, Note_on_c, 0, 55, 60
2, 54576, Note_on_c, 0, 55, 0
2, 54720, Note_on_c, 0, 55, 60
2, 54720, Note_on_c, 0, 64, 60
2, 54720, Note_on_c, 0, 67, 60
2, 55296, Note_on_c, 0, 55, 0
2, 55296, Note_on_c, 0, 64, 0
2, 55296, Note_on_c, 0, 67, 0
2, 55296, Note_on_c, 0, 55, 60
2, 55296, Note_on_c, 0, 62, 60
2, 55296, Note_on_c, 0, 65, 60
2, 55824, Note_on_c, 0, 55, 0
2, 55824, Note_on_c, 0, 62, 0
2, 55824, Note_on_c, 0, 65, 0
2, 55872, Note_on_c, 0, 60, 60
2, 55872, Note_on_c, 0, 64, 60
2, 55968, Note_on_c, 0, 60, 0
2, 55968, Note_on_c, 0, 64, 0
2, 55968, Note_on_c, 0, 62, 60
2, 55968, Note_on_c, 0, 65, 60
2, 56064, Note_on_c, 0, 62, 0
2, 56064, Note_on_c, 0, 65, 0
2, 56064, Note_on_c, 0, 64, 60
2, 56064, Note_on_c, 0, 67, 60
2, 56160, Note_on_c, 0, 64, 0
2, 56160, Note_on_c, 0, 67, 0
2, 56160, Note_on_c, 0, 65, 60
2, 56160, Note_on_c, 0, 69, 60
2, 56256, Note_on_c, 0, 65, 0
2, 56256, Note_on_c, 0, 69, 0
2, 56256, Note_on_c, 0, 67, 60
2, 56256, Note_on_c, 0, 71, 60
2, 56352, Note_on_c, 0, 67, 0
2, 56352, Note_on_c, 0, 71, 0
2, 56352, Note_on_c, 0, 69, 60
2, 56352, Note_on_c, 0, 72, 60
2, 56448, Note_on_c, 0, 69, 0
2, 56448, Note_on_c, 0, 72, 0
2, 56448, Note_on_c, 0, 71, 60
2, 56448, Note_on_c, 0, 74, 60
2, 56544, Note_on_c, 0, 71, 0
2, 56544, Note_on_c, 0, 74, 0
2, 56544, Note_on_c, 0, 72, 60
2, 56544, Note_on_c, 0, 76, 60
2, 56640, Note_on_c, 0, 72, 0
2, 56640, Note_on_c, 0, 76, 0
2, 56640, Note_on_c, 0, 74, 60
2, 56640, Note_on_c, 0, 77, 60
2, 56736, Note_on_c, 0, 74, 0
2, 56736, Note_on_c, 0, 77, 0
2, 56736, Note_on_c, 0, 76, 60
2, 56736, Note_on_c, 0, 79, 60
2, 56832, Note_on_c, 0, 76, 0
2, 56832, Note_on_c, 0, 79, 0
2, 56832, Note_on_c, 0, 77, 60
2, 56832, Note_on_c, 0, 81, 60
2, 56928, Note_on_c, 0, 77, 0
2, 56928, Note_on_c, 0, 81, 0
2, 56928, Note_on_c, 0, 74, 60
2, 56928, Note_on_c, 0, 83, 60
2, 57022, Note_on_c, 0, 74, 0
2, 57022, Note_on_c, 0, 83, 0
2, 57024, Note_on_c, 0, 79, 60
2, 57024, Note_on_c, 0, 84, 60
2, 57072, Note_on_c, 0, 79, 0
2, 57072, Note_on_c, 0, 84, 0
2, 57216, Note_on_c, 0, 55, 92
2, 57216, Note_on_c, 0, 64, 92
2, 57216, Note_on_c, 0, 67, 92
2, 57600, Note_on_c, 0, 55, 0
2, 57600, Note_on_c, 0, 64, 0
2, 57600, Note_on_c, 0, 67, 0
2, 57600, Note_on_c, 0, 55, 60
2, 57600, Note_on_c, 0, 62, 60
2, 57600, Note_on_c, 0, 65, 60
2, 57760, Note_on_c, 0, 55, 0
2, 57760, Note_on_c, 0, 62, 0
2, 57760, Note_on_c, 0, 65, 0
2, 57792, Note_on_c, 0, 55, 92
2, 57792, Note_on_c, 0, 62, 92
2, 57792, Note_on_c, 0, 65, 92
2, 58128, Note_on_c, 0, 55, 0
2, 58128, Note_on_c, 0, 62, 0
2, 58128, Note_on_c, 0, 65, 0
2, 58176, Note_on_c, 0, 60, 60
2, 58176, Note_on_c, 0, 64, 60
2, 58272, Note_on_c, 0, 60, 0
2, 58272, Note_on_c, 0, 64, 0
2, 58272, Note_on_c, 0, 62, 62
2, 58272, Note_on_c, 0, 66, 62
2, 58368, Note_on_c, 0, 62, 0
2, 58368, Note_on_c, 0, 66, 0
2, 58368, Note_on_c, 0, 64, 64
2, 58368, Note_on_c, 0, 67, 64
2, 58464, Note_on_c, 0, 64, 0
2, 58464, Note_on_c, 0, 67, 0
2, 58464, Note_on_c, 0, 66, 66
2, 58464, Note_on_c, 0, 69, 66
2, 58560, Note_on_c, 0, 66, 0
2, 58560, Note_on_c, 0, 69, 0
2, 58560, Note_on_c, 0, 67, 68
2, 58560, Note_on_c, 0, 71, 68
2, 58656, Note_on_c, 0, 67, 0
2, 58656, Note_on_c, 0, 71, 0
2, 58656, Note_on_c, 0, 69, 70
2, 58656, Note_on_c, 0, 72, 70
2, 58752, Note_on_c, 0, 69, 0
2, 58752, Note_on_c, 0, 72, 0
2, 58752, Note_on_c, 0, 71, 72
2, 58752, Note_on_c, 0, 74, 72
2, 58848, Note_on_c, 0, 71, 0
2, 58848, Note_on_c, 0, 74, 0
2, 58848, Note_on_c, 0, 72, 74
2, 58848, Note_on_c, 0, 76, 74
2, 58944, Note_on_c, 0, 72, 0
2, 58944, Note_on_c, 0, 76, 0
2, 58944, Note_on_c, 0, 74, 76
2, 58944, Note_on_c, 0, 78, 76
2, 59040, Note_on_c, 0, 74, 0
2, 59040, Note_on_c, 0, 78, 0
2, 59040, Note_on_c, 0, 76, 78
2, 59040, Note_on_c, 0, 79, 78
2, 59136, Note_on_c, 0, 76, 0
2, 59136, Note_on_c, 0, 79, 0
2, 59136, Note_on_c, 0, 78, 80
2, 59136, Note_on_c, 0, 81, 80
2, 59232, Note_on_c, 0, 78, 0
2, 59232, Note_on_c, 0, 81, 0
2, 59232, Note_on_c, 0, 79, 83
2, 59232, Note_on_c, 0, 83, 83
2, 59326, Note_on_c, 0, 79, 0
2, 59326, Note_on_c, 0, 83, 0
2, 59328, Note_on_c, 0, 81, 86
2, 59328, Note_on_c, 0, 84, 86
2, 59376, Note_on_c, 0, 81, 0
2, 59376, Note_on_c, 0, 84, 0
2, 59520, Note_on_c, 0, 81, 92
2, 59520, Note_on_c, 0, 84, 92
2, 59904, Note_on_c, 0, 81, 0
2, 59904, Note_on_c, 0, 84, 0
2, 59904, Note_on_c, 0, 79, 60
2, 59904, Note_on_c, 0, 83, 60
2, 59952, Note_on_c, 0, 79, 0
2, 59952, Note_on_c, 0, 83, 0
2, 60096, Note_on_c, 0, 79, 92
2, 60096, Note_on_c, 0, 83, 92
2, 60432, Note_on_c, 0, 79, 0
2, 60432, Note_on_c, 0, 83, 0
2, 60480, Note_on_c, 0, 79, 60
2, 60480, Note_on_c, 0, 81, 60
2, 60480, Note_on_c, 0, 88, 60
2, 60528, Note_on_c, 0, 79, 0
2, 60528, Note_on_c, 0, 81, 0
2, 60528, Note_on_c, 0, 88, 0
2, 60672, Note_on_c, 0, 79, 60
2, 60672, Note_on_c, 0, 81, 60
2, 60672, Note_on_c, 0, 88, 60
2, 60720, Note_on_c, 0, 79, 0
2, 60720, Note_on_c, 0, 81, 0
2, 60720, Note_on_c, 0, 88, 0
2, 60864, Note_on_c, 0, 78, 60
2, 60864, Note_on_c, 0, 81, 60
2, 60864, Note_on_c, 0, 86, 60
2, 60912, Note_on_c, 0, 78, 0
2, 60912, Note_on_c, 0, 81, 0
2, 60912, Note_on_c, 0, 86, 0
2, 61056, Note_on_c, 0, 74, 60
2, 61056, Note_on_c, 0, 79, 60
2, 61056, Note_on_c, 0, 83, 60
2, 61104, Note_on_c, 0, 74, 0
2, 61104, Note_on_c, 0, 79, 0
2, 61104, Note_on_c, 0, 83, 0
2, 61440, Note_on_c, 0, 55, 60
2, 61632, Note_on_c, 0, 55, 0
2, 61632, Note_on_c, 0, 55, 60
2, 61632, Note_on_c, 0, 62, 60
2, 61632, Note_on_c, 0, 65, 60
2, 62160, Note_on_c, 0, 55, 0
2, 62160, Note_on_c, 0, 62, 0
2, 62160, Note_on_c, 0, 65, 0
2, 62208, Note_on_c, 0, 55, 60
2, 62208, Note_on_c, 0, 60, 60
2, 62208, Note_on_c, 0, 64, 60
2, 62256, Note_on_c, 0, 55, 0
2, 62256, Note_on_c, 0, 60, 0
2, 62256, Note_on_c, 0, 64, 0
2, 62400, Note_on_c, 0, 62, 60
2, 62448, Note_on_c, 0, 62, 0
2, 62592, Note_on_c, 0, 60, 60
2, 62640, Note_on_c, 0, 60, 0
2, 62784, Note_on_c, 0, 59, 60
2, 62784, Note_on_c, 0, 67, 60
2, 62880, Note_on_c, 0, 59, 0
2, 62880, Note_on_c, 0, 67, 0
2, 62880, Note_on_c, 0, 66, 60
2, 62976, Note_on_c, 0, 66, 0
2, 62976, Note_on_c, 0, 67, 60
2, 63072, Note_on_c, 0, 67, 0
2, 63072, Note_on_c, 0, 69, 60
2, 63168, Note_on_c, 0, 69, 0
2, 63168, Note_on_c, 0, 71, 60
2, 63264, Note_on_c, 0, 71, 0
2, 63264, Note_on_c, 0, 67, 60
2, 63360, Note_on_c, 0, 67, 0
2, 63360, Note_on_c, 0, 72, 60
2, 63456, Note_on_c, 0, 72, 0
2, 63456, Note_on_c, 0, 71, 60
2, 63552, Note_on_c, 0, 71, 0
2, 63552, Note_on_c, 0, 72, 60
2, 63648, Note_on_c, 0, 72, 0
2, 63648, Note_on_c, 0, 74, 60
2, 63744, Note_on_c, 0, 74, 0
2, 63744, Note_on_c, 0, 76, 60
2, 63840, Note_on_c, 0, 76, 0
2, 63840, Note_on_c, 0, 78, 60
2, 63934, Note_on_c, 0, 78, 0
2, 63936, Note_on_c, 0, 79, 60
2, 63984, Note_on_c, 0, 79, 0
2, 64128, Note_on_c, 0, 77, 92
2, 64464, Note_on_c, 0, 77, 0
2, 64512, Note_on_c, 0, 75, 60
2, 64560, Note_on_c, 0, 75, 0
2, 64704, Note_on_c, 0, 74, 60
2, 64752, Note_on_c, 0, 74, 0
2, 64896, Note_on_c, 0, 72, 60
2, 64944, Note_on_c, 0, 72, 0
2, 65088, Note_on_c, 0, 71, 60
2, 65184, Note_on_c, 0, 71, 0
2, 65184, Note_on_c, 0, 69, 60
2, 65280, Note_on_c, 0, 69, 0
2, 65280, Note_on_c, 0, 71, 60
2, 65376, Note_on_c, 0, 71, 0
2, 65376, Note_on_c, 0, 67, 60
2, 65472, Note_on_c, 0, 67, 0
2, 65472, Note_on_c, 0, 69, 60
2, 65568, Note_on_c, 0, 69, 0
2, 65568, Note_on_c, 0, 71, 60
2, 65664, Note_on_c, 0, 71, 0
2, 65664, Note_on_c, 0, 72, 60
2, 65760, Note_on_c, 0, 72, 0
2, 65760, Note_on_c, 0, 71, 60
2, 65856, Note_on_c, 0, 71, 0
2, 65856, Note_on_c, 0, 72, 60
2, 65952, Note_on_c, 0, 72, 0
2, 65952, Note_on_c, 0, 74, 60
2, 66048, Note_on_c, 0, 74, 0
2, 66048, Note_on_c, 0, 75, 60
2, 66144, Note_on_c, 0, 75, 0
2, 66144, Note_on_c, 0, 78, 60
2, 66238, Note_on_c, 0, 78, 0
2, 66240, Note_on_c, 0, 79, 60
2, 66768, Note_on_c, 0, 79, 0
2, 66816, Note_on_c, 0, 79, 73
2, 67072, Note_on_c, 0, 79, 0
2, 67104, Note_on_c, 0, 71, 80
2, 67104, Note_on_c, 0, 74, 80
2, 67198, Note_on_c, 0, 71, 0
2, 67198, Note_on_c, 0, 74, 0
2, 67200, Note_on_c, 0, 72, 82
2, 67200, Note_on_c, 0, 76, 82
2, 67294, Note_on_c, 0, 72, 0
2, 67294, Note_on_c, 0, 76, 0
2, 67296, Note_on_c, 0, 74, 84
2, 67296, Note_on_c, 0, 77, 84
2, 67390, Note_on_c, 0, 74, 0
2, 67390, Note_on_c, 0, 77, 0
2, 67392, Note_on_c, 0, 76, 86
2, 67392, Note_on_c, 0, 79, 86
2, 67440, Note_on_c, 0, 76, 0
2, 67440, Note_on_c, 0, 79, 0
2, 67584, Note_on_c, 0, 76, 92
2, 67584, Note_on_c, 0, 79, 92
2, 67920, Note_on_c, 0, 76, 0
2, 67920, Note_on_c, 0, 79, 0
2, 67968, Note_on_c, 0, 74, 60
2, 67968, Note_on_c, 0, 77, 60
2, 68016, Note_on_c, 0, 74, 0
2, 68016, Note_on_c, 0, 77, 0
2, 68160, Note_on_c, 0, 74, 92
2, 68160, Note_on_c, 0, 77, 92
2, 68496, Note_on_c, 0, 74, 0
2, 68496, Note_on_c, 0, 77, 0
2, 68544, Note_on_c, 0, 72, 60
2, 68544, Note_on_c, 0, 76, 60
2, 68640, Note_on_c, 0, 72, 0
2, 68640, Note_on_c, 0, 76, 0
2, 68640, Note_on_c, 0, 74, 60
2, 68640, Note_on_c, 0, 77, 60
2, 68736, Note_on_c, 0, 74, 0
2, 68736, Note_on_c, 0, 77, 0
2, 68736, Note_on_c, 0, 76, 60
2, 68736, Note_on_c, 0, 79, 60
2, 68832, Note_on_c, 0, 76, 0
2, 68832, Note_on_c, 0, 79, 0
2, 68832, Note_on_c, 0, 77, 60
2, 68832, Note_on_c, 0, 81, 60
2, 68928, Note_on_c, 0, 77, 0
2, 68928, Note_on_c, 0, 81, 0
2, 68928, Note_on_c, 0, 79, 60
2, 68928, Note_on_c, 0, 83, 60
2, 69024, Note_on_c, 0, 79, 0
2, 69024, Note_on_c, 0, 83, 0
2, 69024, Note_on_c, 0, 81, 60
2, 69024, Note_on_c, 0, 84, 60
2, 69120, Note_on_c, 0, 81, 0
2, 69120, Note_on_c, 0, 84, 0
2, 69120, Note_on_c, 0, 83, 60
2, 69120, Note_on_c, 0, 86, 60
2, 69216, Note_on_c, 0, 83, 0
2, 69216, Note_on_c, 0, 86, 0
2, 69216, Note_on_c, 0, 84, 60
2, 69216, Note_on_c, 0, 88, 60
2, 69312, Note_on_c, 0, 84, 0
2, 69312, Note_on_c, 0, 88, 0
2, 69312, Note_on_c, 0, 86, 60
2, 69312, Note_on_c, 0, 89, 60
2, 69408, Note_on_c, 0, 86, 0
2, 69408, Note_on_c, 0, 89, 0
2, 69408, Note_on_c, 0, 79, 60
2, 69408, Note_on_c, 0, 83, 60
2, 69504, Note_on_c, 0, 79, 0
2, 69504, Note_on_c, 0, 83, 0
2, 69504, Note_on_c, 0, 81, 60
2, 69504, Note_on_c, 0, 84, 60
2, 69600, Note_on_c, 0, 81, 0
2, 69600, Note_on_c, 0, 84, 0
2, 69600, Note_on_c, 0, 83, 60
2, 69600, Note_on_c, 0, 86, 60
2, 69694, Note_on_c, 0, 83, 0
2, 69694, Note_on_c, 0, 86, 0
2, 69696, Note_on_c, 0, 84, 60
2, 69696, Note_on_c, 0, 88, 60
2, 69744, Note_on_c, 0, 84, 0
2, 69744, Note_on_c, 0, 88, 0
2, 69888, Note_on_c, 0, 84, 92
2, 69888, Note_on_c, 0, 88, 92
2, 70224, Note_on_c, 0, 84, 0
2, 70224, Note_on_c, 0, 88, 0
2, 70272, Note_on_c, 0, 76, 60
2, 70272, Note_on_c, 0, 84, 60
2, 70320, Note_on_c, 0, 76, 0
2, 70320, Note_on_c, 0, 84, 0
2, 70464, Note_on_c, 0, 76, 92
2, 70464, Note_on_c, 0, 84, 92
2, 70800, Note_on_c, 0, 76, 0
2, 70800, Note_on_c, 0, 84, 0
2, 70848, Note_on_c, 0, 72, 60
2, 70848, Note_on_c, 0, 74, 60
2, 70848, Note_on_c, 0, 81, 60
2, 70896, Note_on_c, 0, 72, 0
2, 70896, Note_on_c, 0, 74, 0
2, 70896, Note_on_c, 0, 81, 0
2, 71040, Note_on_c, 0, 72, 60
2, 71040, Note_on_c, 0, 74, 60
2, 71040, Note_on_c, 0, 81, 60
2, 71088, Note_on_c, 0, 72, 0
2, 71088, Note_on_c, 0, 74, 0
2, 71088, Note_on_c, 0, 81, 0
2, 71232, Note_on_c, 0, 71, 60
2, 71232, Note_on_c, 0, 74, 60
2, 71232, Note_on_c, 0, 79, 60
2, 71280, Note_on_c, 0, 71, 0
2, 71280, Note_on_c, 0, 74, 0
2, 71280, Note_on_c, 0, 79, 0
2, 71424, Note_on_c, 0, 67, 60
2, 71424, Note_on_c, 0, 72, 60
2, 71424, Note_on_c, 0, 76, 60
2, 71472, Note_on_c, 0, 67, 0
2, 71472, Note_on_c, 0, 72, 0
2, 71472, Note_on_c, 0, 76, 0
2, 71808, Note_on_c, 0, 55, 60
2, 72000, Note_on_c, 0, 55, 0
2, 72000, Note_on_c, 0, 55, 60
2, 72000, Note_on_c, 0, 62, 60
2, 72000, Note_on_c, 0, 65, 60
2, 72528, Note_on_c, 0, 55, 0
2, 72528, Note_on_c, 0, 62, 0
2, 72528, Note_on_c, 0, 65, 0
2, 72576, Note_on_c, 0, 55, 60
2, 72576, Note_on_c, 0, 60, 60
2, 72576, Note_on_c, 0, 64, 60
2, 72624, Note_on_c, 0, 55, 0
2, 72624, Note_on_c, 0, 60, 0
2, 72624, Note_on_c, 0, 64, 0
2, 72768, Note_on_c, 0, 62, 60
2, 72816, Note_on_c, 0, 62, 0
2, 72960, Note_on_c, 0, 60, 60
2, 73008, Note_on_c, 0, 60, 0
2, 73152, Note_on_c, 0, 59, 60
2, 73152, Note_on_c, 0, 67, 60
2, 73248, Note_on_c, 0, 59, 0
2, 73248, Note_on_c, 0, 67, 0
2, 73248, Note_on_c, 0, 66, 60
2, 73344, Note_on_c, 0, 66, 0
2, 73344, Note_on_c, 0, 67, 60
2, 73440, Note_on_c, 0, 67, 0
2, 73440, Note_on_c, 0, 69, 60
2, 73536, Note_on_c, 0, 69, 0
2, 73536, Note_on_c, 0, 71, 60
2, 73632, Note_on_c, 0, 71, 0
2, 73632, Note_on_c, 0, 67, 60
2, 73728, Note_on_c, 0, 67, 0
2, 73728, Note_on_c, 0, 72, 60
2, 73824, Note_on_c, 0, 72, 0
2, 73824, Note_on_c, 0, 71, 60
2, 73920, Note_on_c, 0, 71, 0
2, 73920, Note_on_c, 0, 72, 60
2, 74016, Note_on_c, 0, 72, 0
2, 74016, Note_on_c, 0, 74, 60
2, 74112, Note_on_c, 0, 74, 0
2, 74112, Note_on_c, 0, 76, 60
2, 74208, Note_on_c, 0, 76, 0
2, 74208, Note_on_c, 0, 78, 60
2, 74302, Note_on_c, 0, 78, 0
2, 74304, Note_on_c, 0, 79, 60
2, 74352, Note_on_c, 0, 79, 0
2, 74496, Note_on_c, 0, 77, 92
2, 74832, Note_on_c, 0, 77, 0
2, 74880, Note_on_c, 0, 75, 60
2, 74928, Note_on_c, 0, 75, 0
2, 75072, Note_on_c, 0, 74, 60
2, 75120, Note_on_c, 0, 74, 0
2, 75264, Note_on_c, 0, 72, 60
2, 75312, Note_on_c, 0, 72, 0
2, 75456, Note_on_c, 0, 71, 60
2, 75552, Note_on_c, 0, 71, 0
2, 75552, Note_on_c, 0, 69, 60
2, 75648, Note_on_c, 0, 69, 0
2, 75648, Note_on_c, 0, 71, 60
2, 75744, Note_on_c, 0, 71, 0
2, 75744, Note_on_c, 0, 67, 60
2, 75840, Note_on_c, 0, 67, 0
2, 75840, Note_on_c, 0, 69, 60
2, 75936, Note_on_c, 0, 69, 0
2, 75936, Note_on_c, 0, 71, 60
2, 76032, Note_on_c, 0, 71, 0
2, 76032, Note_on_c, 0, 72, 60
2, 76128, Note_on_c, 0, 72, 0
2, 76128, Note_on_c, 0, 71, 60
2, 76224, Note_on_c, 0, 71, 0
2, 76224, Note_on_c, 0, 72, 60
2, 76320, Note_on_c, 0, 72, 0
2, 76320, Note_on_c, 0, 74, 60
2, 76416, Note_on_c, 0, 74, 0
2, 76416, Note_on_c, 0, 75, 60
2, 76512, Note_on_c, 0, 75, 0
2, 76512, Note_on_c, 0, 78, 60
2, 76606, Note_on_c, 0, 78, 0
2, 76608, Note_on_c, 0, 79, 60
2, 77136, Note_on_c, 0, 79, 0
2, 77184, Note_on_c, 0, 79, 73
2, 77440, Note_on_c, 0, 79, 0
2, 77472, Note_on_c, 0, 71, 80
2, 77472, Note_on_c, 0, 74, 80
2, 77566, Note_on_c, 0, 71, 0
2, 77566, Note_on_c, 0, 74, 0
2, 77568, Note_on_c, 0, 72, 82
2, 77568, Note_on_c, 0, 76, 82
2, 77662, Note_on_c, 0, 72, 0
2, 77662, Note_on_c, 0, 76, 0
2, 77664, Note_on_c, 0, 74, 84
2, 77664, Note_on_c, 0, 77, 84
2, 77758, Note_on_c, 0, 74, 0
2, 77758, Note_on_c, 0, 77, 0
2, 77760, Note_on_c, 0, 76, 86
2, 77760, Note_on_c, 0, 79, 86
2, 77808, Note_on_c, 0, 76, 0
2, 77808, Note_on_c, 0, 79, 0
2, 77952, Note_on_c, 0, 76, 92
2, 77952, Note_on_c, 0, 79, 92
2, 78288, Note_on_c, 0, 76, 0
2, 78288, Note_on_c, 0, 79, 0
2, 78336, Note_on_c, 0, 74, 60
2, 78336, Note_on_c, 0, 77, 60
2, 78384, Note_on_c, 0, 74, 0
2, 78384, Note_on_c, 0, 77, 0
2, 78528, Note_on_c, 0, 74, 92
2, 78528, Note_on_c, 0, 77, 92
2, 78864, Note_on_c, 0, 74, 0
2, 78864, Note_on_c, 0, 77, 0
2, 78912, Note_on_c, 0, 72, 60
2, 78912, Note_on_c, 0, 76, 60
2, 79008, Note_on_c, 0, 72, 0
2, 79008, Note_on_c, 0, 76, 0
2, 79008, Note_on_c, 0, 74, 60
2, 79008, Note_on_c, 0, 77, 60
2, 79104, Note_on_c, 0, 74, 0
2, 79104, Note_on_c, 0, 77, 0
2, 79104, Note_on_c, 0, 76, 60
2, 79104, Note_on_c, 0, 79, 60
2, 79200, Note_on_c, 0, 76, 0
2, 79200, Note_on_c, 0, 79, 0
2, 79200, Note_on_c, 0, 77, 60
2, 79200, Note_on_c, 0, 81, 60
2, 79296, Note_on_c, 0, 77, 0
2, 79296, Note_on_c, 0, 81, 0
2, 79296, Note_on_c, 0, 79, 60
2, 79296, Note_on_c, 0, 83, 60
2, 79392, Note_on_c, 0, 79, 0
2, 79392, Note_on_c, 0, 83, 0
2, 79392, Note_on_c, 0, 81, 60
2, 79392, Note_on_c, 0, 84, 60
2, 79488, Note_on_c, 0, 81, 0
2, 79488, Note_on_c, 0, 84, 0
2, 79488, Note_on_c, 0, 83, 60
2, 79488, Note_on_c, 0, 86, 60
2, 79584, Note_on_c, 0, 83, 0
2, 79584, Note_on_c, 0, 86, 0
2, 79584, Note_on_c, 0, 84, 60
2, 79584, Note_on_c, 0, 88, 60
2, 79680, Note_on_c, 0, 84, 0
2, 79680, Note_on_c, 0, 88, 0
2, 79680, Note_on_c, 0, 86, 60
2, 79680, Note_on_c, 0, 89, 60
2, 79776, Note_on_c, 0, 86, 0
2, 79776, Note_on_c, 0, 89, 0
2, 79776, Note_on_c, 0, 79, 60
2, 79776, Note_on_c, 0, 83, 60
2, 79872, Note_on_c, 0, 79, 0
2, 79872, Note_on_c, 0, 83, 0
2, 79872, Note_on_c, 0, 81, 60
2, 79872, Note_on_c, 0, 84, 60
2, 79968, Note_on_c, 0, 81, 0
2, 79968, Note_on_c, 0, 84, 0
2, 79968, Note_on_c, 0, 83, 60
2, 79968, Note_on_c, 0, 86, 60
2, 80062, Note_on_c, 0, 83, 0
2, 80062, Note_on_c, 0, 86, 0
2, 80064, Note_on_c, 0, 84, 60
2, 80064, Note_on_c, 0, 88, 60
2, 80112, Note_on_c, 0, 84, 0
2, 80112, Note_on_c, 0, 88, 0
2, 80256, Note_on_c, 0, 84, 92
2, 80256, Note_on_c, 0, 88, 92
2, 80592, Note_on_c, 0, 84, 0
2, 80592, Note_on_c, 0, 88, 0
2, 80640, Note_on_c, 0, 76, 60
2, 80640, Note_on_c, 0, 84, 60
2, 80688, Note_on_c, 0, 76, 0
2, 80688, Note_on_c, 0, 84, 0
2, 80832, Note_on_c, 0, 76, 92
2, 80832, Note_on_c, 0, 84, 92
2, 81168, Note_on_c, 0, 76, 0
2, 81168, Note_on_c, 0, 84, 0
2, 81216, Note_on_c, 0, 72, 60
2, 81216, Note_on_c, 0, 74, 60
2, 81216, Note_on_c, 0, 81, 60
2, 81264, Note_on_c, 0, 72, 0
2, 81264, Note_on_c, 0, 74, 0
2, 81264, Note_on_c, 0, 81, 0
2, 81408, Note_on_c, 0, 72, 60
2, 81408, Note_on_c, 0, 74, 60
2, 81408, Note_on_c, 0, 81, 60
2, 81456, Note_on_c, 0, 72, 0
2, 81456, Note_on_c, 0, 74, 0
2, 81456, Note_on_c, 0, 81, 0
2, 81600, Note_on_c, 0, 71, 60
2, 81600, Note_on_c, 0, 74, 60
2, 81600, Note_on_c, 0, 79, 60
2, 81648, Note_on_c, 0, 71, 0
2, 81648, Note_on_c, 0, 74, 0
2, 81648, Note_on_c, 0, 79, 0
2, 81792, Note_on_c, 0, 67, 60
2, 81792, Note_on_c, 0, 72, 60
2, 81792, Note_on_c, 0, 76, 60
2, 81840, Note_on_c, 0, 67, 0
2, 81840, Note_on_c, 0, 72, 0
2, 81840, Note_on_c, 0, 76, 0
2, 82176, Note_on_c, 0, 67, 60
2, 82176, Note_on_c, 0, 72, 60
2, 82176, Note_on_c, 0, 76, 60
2, 82224, Note_on_c, 0, 67, 0
2, 82224, Note_on_c, 0, 72, 0
2, 82224, Note_on_c, 0, 76, 0
2, 82752, Note_on_c, 0, 72, 60
2, 82784, Note_on_c, 0, 72, 0
2, 82896, Note_on_c, 0, 72, 60
2, 82944, Note_on_c, 0, 72, 0
2, 82944, Note_on_c, 0, 76, 92
2, 82992, Note_on_c, 0, 76, 0
2, 83328, Note_on_c, 0, 72, 60
2, 83520, Note_on_c, 0, 72, 0
2, 83520, Note_on_c, 0, 71, 60
2, 83712, Note_on_c, 0, 71, 0
2, 83712, Note_on_c, 0, 72, 60
2, 83872, Note_on_c, 0, 72, 0
2, 83904, Note_on_c, 0, 67, 60
2, 83904, Note_on_c, 0, 74, 60
2, 83952, Note_on_c, 0, 67, 0
2, 83952, Note_on_c, 0, 74, 0
2, 84096, Note_on_c, 0, 67, 60
2, 84096, Note_on_c, 0, 74, 60
2, 84144, Note_on_c, 0, 67, 0
2, 84144, Note_on_c, 0, 74, 0
2, 84288, Note_on_c, 0, 67, 60
2, 84288, Note_on_c, 0, 74, 60
2, 84336, Note_on_c, 0, 67, 0
2, 84336, Note_on_c, 0, 74, 0
2, 84480, Note_on_c, 0, 67, 60
2, 84480, Note_on_c, 0, 74, 60
2, 84528, Note_on_c, 0, 67, 0
2, 84528, Note_on_c, 0, 74, 0
2, 85056, Note_on_c, 0, 74, 60
2, 85088, Note_on_c, 0, 74, 0
2, 85200, Note_on_c, 0, 74, 60
2, 85246, Note_on_c, 0, 74, 0
2, 85248, Note_on_c, 0, 77, 92
2, 85296, Note_on_c, 0, 77, 0
2, 85632, Note_on_c, 0, 74, 60
2, 85824, Note_on_c, 0, 74, 0
2, 85824, Note_on_c, 0, 73, 60
2, 86016, Note_on_c, 0, 73, 0
2, 86016, Note_on_c, 0, 74, 60
2, 86176, Note_on_c, 0, 74, 0
2, 86208, Note_on_c, 0, 69, 60
2, 86208, Note_on_c, 0, 76, 60
2, 86256, Note_on_c, 0, 69, 0
2, 86256, Note_on_c, 0, 76, 0
2, 86400, Note_on_c, 0, 69, 60
2, 86400, Note_on_c, 0, 76, 60
2, 86448, Note_on_c, 0, 69, 0
2, 86448, Note_on_c, 0, 76, 0
2, 86592, Note_on_c, 0, 69, 60
2, 86592, Note_on_c, 0, 76, 60
2, 86640, Note_on_c, 0, 69, 0
2, 86640, Note_on_c, 0, 76, 0
2, 86784, Note_on_c, 0, 69, 60
2, 86784, Note_on_c, 0, 76, 60
2, 86832, Note_on_c, 0, 69, 0
2, 86832, Note_on_c, 0, 76, 0
2, 87360, Note_on_c, 0, 77, 60
2, 87392, Note_on_c, 0, 77, 0
2, 87504, Note_on_c, 0, 77, 60
2, 87552, Note_on_c, 0, 77, 0
2, 87552, Note_on_c, 0, 81, 92
2, 87600, Note_on_c, 0, 81, 0
2, 87936, Note_on_c, 0, 77, 60
2, 88128, Note_on_c, 0, 77, 0
2, 88128, Note_on_c, 0, 76, 60
2, 88320, Note_on_c, 0, 76, 0
2, 88320, Note_on_c, 0, 77, 60
2, 88480, Note_on_c, 0, 77, 0
2, 88512, Note_on_c, 0, 84, 60
2, 88544, Note_on_c, 0, 84, 0
2, 88656, Note_on_c, 0, 84, 60
2, 88690, Note_on_c, 0, 84, 0
2, 88704, Note_on_c, 0, 88, 92
2, 88752, Note_on_c, 0, 88, 0
2, 89088, Note_on_c, 0, 72, 60
2, 89280, Note_on_c, 0, 72, 0
2, 89280, Note_on_c, 0, 71, 60
2, 89472, Note_on_c, 0, 71, 0
2, 89472, Note_on_c, 0, 72, 60
2, 89632, Note_on_c, 0, 72, 0
2, 89664, Note_on_c, 0, 74, 92
2, 89696, Note_on_c, 0, 74, 0
2, 89808, Note_on_c, 0, 74, 92
2, 89856, Note_on_c, 0, 74, 0
2, 89856, Note_on_c, 0, 81, 92
2, 89904, Note_on_c, 0, 81, 0
2, 90240, Note_on_c, 0, 71, 92
2, 90272, Note_on_c, 0, 71, 0
2, 90384, Note_on_c, 0, 71, 92
2, 90432, Note_on_c, 0, 71, 0
2, 90432, Note_on_c, 0, 79, 92
2, 90480, Note_on_c, 0, 79, 0
2, 90816, Note_on_c, 0, 64, 92
2, 90848, Note_on_c, 0, 64, 0
2, 90960, Note_on_c, 0, 64, 92
2, 91008, Note_on_c, 0, 64, 0
2, 91008, Note_on_c, 0, 72, 92
2, 91056, Note_on_c, 0, 72, 0
2, 91392, Note_on_c, 0, 52, 92
2, 91392, Note_on_c, 0, 55, 92
2, 91392, Note_on_c, 0, 60, 92
2, 91440, Note_on_c, 0, 52, 0
2, 91440, Note_on_c, 0, 55, 0
2, 91440, Note_on_c, 0, 60, 0
2, 91776, Note_on_c, 0, 52, 92
2, 91776, Note_on_c, 0, 55, 92
2, 91776, Note_on_c, 0, 60, 92
2, 91824, Note_on_c, 0, 52, 0
2, 91824, Note_on_c, 0, 55, 0
2, 91824, Note_on_c, 0, 60, 0
2, 91968, Note_on_c, 0, 72, 60
2, 92000, Note_on_c, 0, 72, 0
2, 92112, Note_on_c, 0, 72, 60
2, 92160, Note_on_c, 0, 72, 0
2, 92160, Note_on_c, 0, 76, 92
2, 92320, Note_on_c, 0, 76, 0
2, 92640, Note_on_c, 0, 72, 60
2, 92672, Note_on_c, 0, 72, 0
2, 92832, Note_on_c, 0, 71, 60
2, 92864, Note_on_c, 0, 71, 0
2, 93024, Note_on_c, 0, 72, 60
2, 93056, Note_on_c, 0, 72, 0
2, 93216, Note_on_c, 0, 67, 60
2, 93216, Note_on_c, 0, 71, 60
2, 93216, Note_on_c, 0, 74, 60
2, 93248, Note_on_c, 0, 67, 0
2, 93248, Note_on_c, 0, 71, 0
2, 93248, Note_on_c, 0, 74, 0
2, 93408, Note_on_c, 0, 67, 60
2, 93408, Note_on_c, 0, 71, 60
2, 93408, Note_on_c, 0, 74, 60
2, 93440, Note_on_c, 0, 67, 0
2, 93440, Note_on_c, 0, 71, 0
2, 93440, Note_on_c, 0, 74, 0
2, 93600, Note_on_c, 0, 67, 60
2, 93600, Note_on_c, 0, 71, 60
2, 93600, Note_on_c, 0, 74, 60
2, 93632, Note_on_c, 0, 67, 0
2, 93632, Note_on_c, 0, 71, 0
2, 93632, Note_on_c, 0, 74, 0
2, 93888, Note_on_c, 0, 67, 60
2, 93888, Note_on_c, 0, 71, 60
2, 93888, Note_on_c, 0, 74, 60
2, 93936, Note_on_c, 0, 67, 0
2, 93936, Note_on_c, 0, 71, 0
2, 93936, Note_on_c, 0, 74, 0
2, 94272, Note_on_c, 0, 74, 60
2, 94304, Note_on_c, 0, 74, 0
2, 94416, Note_on_c, 0, 74, 60
2, 94464, Note_on_c, 0, 74, 0
2, 94464, Note_on_c, 0, 77, 92
2, 94512, Note_on_c, 0, 77, 0
2, 94944, Note_on_c, 0, 74, 60
2, 94976, Note_on_c, 0, 74, 0
2, 95136, Note_on_c, 0, 73, 60
2, 95168, Note_on_c, 0, 73, 0
2, 95328, Note_on_c, 0, 74, 60
2, 95360, Note_on_c, 0, 74, 0
2, 95520, Note_on_c, 0, 69, 60
2, 95520, Note_on_c, 0, 73, 60
2, 95520, Note_on_c, 0, 76, 60
2, 95552, Note_on_c, 0, 69, 0
2, 95552, Note_on_c, 0, 73, 0
2, 95552, Note_on_c, 0, 76, 0
2, 95712, Note_on_c, 0, 69, 60
2, 95712, Note_on_c, 0, 73, 60
2, 95712, Note_on_c, 0, 76, 60
2, 95744, Note_on_c, 0, 69, 0
2, 95744, Note_on_c, 0, 73, 0
2, 95744, Note_on_c, 0, 76, 0
2, 95904, Note_on_c, 0, 69, 60
2, 95904, Note_on_c, 0, 73, 60
2, 95904, Note_on_c, 0, 76, 60
2, 95936, Note_on_c, 0, 69, 0
2, 95936, Note_on_c, 0, 73, 0
2, 95936, Note_on_c, 0, 76, 0
2, 96192, Note_on_c, 0, 69, 60
2, 96192, Note_on_c, 0, 73, 60
2, 96192, Note_on_c, 0, 76, 60
2, 96240, Note_on_c, 0, 69, 0
2, 96240, Note_on_c, 0, 73, 0
2, 96240, Note_on_c, 0, 76, 0
2, 96576, Note_on_c, 0, 77, 60
2, 96608, Note_on_c, 0, 77, 0
2, 96720, Note_on_c, 0, 77, 60
2, 96768, Note_on_c, 0, 77, 0
2, 96768, Note_on_c, 0, 81, 92
2, 96816, Note_on_c, 0, 81, 0
2, 97248, Note_on_c, 0, 77, 60
2, 97280, Note_on_c, 0, 77, 0
2, 97440, Note_on_c, 0, 76, 60
2, 97472, Note_on_c, 0, 76, 0
2, 97632, Note_on_c, 0, 77, 60
2, 97664, Note_on_c, 0, 77, 0
2, 97728, Note_on_c, 0, 84, 60
2, 97760, Note_on_c, 0, 84, 0
2, 97872, Note_on_c, 0, 84, 60
2, 97920, Note_on_c, 0, 84, 0
2, 97920, Note_on_c, 0, 88, 92
2, 97968, Note_on_c, 0, 88, 0
2, 98400, Note_on_c, 0, 72, 60
2, 98432, Note_on_c, 0, 72, 0
2, 98592, Note_on_c, 0, 71, 60
2, 98624, Note_on_c, 0, 71, 0
2, 98784, Note_on_c, 0, 72, 60
2, 98816, Note_on_c, 0, 72, 0
2, 98880, Note_on_c, 0, 74, 92
2, 98912, Note_on_c, 0, 74, 0
2, 99024, Note_on_c, 0, 74, 92
2, 99072, Note_on_c, 0, 74, 0
2, 99072, Note_on_c, 0, 81, 92
2, 99120, Note_on_c, 0, 81, 0
2, 99456, Note_on_c, 0, 71, 92
2, 99488, Note_on_c, 0, 71, 0
2, 99600, Note_on_c, 0, 71, 92
2, 99648, Note_on_c, 0, 71, 0
2, 99648, Note_on_c, 0, 79, 92
2, 99696, Note_on_c, 0, 79, 0
2, 100032, Note_on_c, 0, 64, 92
2, 100032, Note_on_c, 0, 72, 92
2, 100064, Note_on_c, 0, 64, 0
2, 100064, Note_on_c, 0, 72, 0
2, 100224, Note_on_c, 0, 64, 92
2, 100224, Note_on_c, 0, 72, 92
2, 100256, Note_on_c, 0, 64, 0
2, 100256, Note_on_c, 0, 72, 0
2, 100416, Note_on_c, 0, 64, 92
2, 100416, Note_on_c, 0, 72, 92
2, 100448, Note_on_c, 0, 64, 0
2, 100448, Note_on_c, 0, 72, 0
2, 100608, Note_on_c, 0, 64, 92
2, 100608, Note_on_c, 0, 72, 92
2, 100656, Note_on_c, 0, 64, 0
2, 100656, Note_on_c, 0, 72, 0
2, 101184, Note_on_c, 0, 71, 92
2, 101216, Note_on_c, 0, 71, 0
2, 101328, Note_on_c, 0, 71, 92
2, 101376, Note_on_c, 0, 71, 0
2, 101376, Note_on_c, 0, 77, 127
2, 101424, Note_on_c, 0, 77, 0
2, 101760, Note_on_c, 0, 71, 60
2, 101952, Note_on_c, 0, 71, 0
2, 101952, Note_on_c, 0, 70, 60
2, 102144, Note_on_c, 0, 70, 0
2, 102144, Note_on_c, 0, 71, 60
2, 102304, Note_on_c, 0, 71, 0
2, 102336, Note_on_c, 0, 71, 60
2, 102368, Note_on_c, 0, 71, 0
2, 102480, Note_on_c, 0, 71, 60
2, 102528, Note_on_c, 0, 71, 0
2, 102528, Note_on_c, 0, 81, 92
2, 102576, Note_on_c, 0, 81, 0
2, 102912, Note_on_c, 0, 71, 60
2, 103104, Note_on_c, 0, 71, 0
2, 103104, Note_on_c, 0, 70, 60
2, 103296, Note_on_c, 0, 70, 0
2, 103296, Note_on_c, 0, 71, 60
2, 103456, Note_on_c, 0, 71, 0
2, 103488, Note_on_c, 0, 71, 92
2, 103520, Note_on_c, 0, 71, 0
2, 103632, Note_on_c, 0, 71, 92
2, 103680, Note_on_c, 0, 71, 0
2, 103680, Note_on_c, 0, 80, 92
2, 103728, Note_on_c, 0, 80, 0
2, 104064, Note_on_c, 0, 71, 92
2, 104096, Note_on_c, 0, 71, 0
2, 104208, Note_on_c, 0, 71, 92
2, 104256, Note_on_c, 0, 71, 0
2, 104256, Note_on_c, 0, 79, 92
2, 104304, Note_on_c, 0, 79, 0
2, 104640, Note_on_c, 0, 64, 45
2, 104672, Note_on_c, 0, 64, 0
2, 104784, Note_on_c, 0, 64, 45
2, 104832, Note_on_c, 0, 64, 0
2, 104832, Note_on_c, 0, 72, 45
2, 104880, Note_on_c, 0, 72, 0
2, 105216, Note_on_c, 0, 52, 45
2, 105216, Note_on_c, 0, 55, 45
2, 105216, Note_on_c, 0, 60, 45
2, 105264, Note_on_c, 0, 52, 0
2, 105264, Note_on_c, 0, 55, 0
2, 105264, Note_on_c, 0, 60, 0
2, 105600, Note_on_c, 0, 52, 45
2, 105600, Note_on_c, 0, 55, 45
2, 105600, Note_on_c, 0, 60, 45
2, 105648, Note_on_c, 0, 52, 0
2, 105648, Note_on_c, 0, 55, 0
2, 105648, Note_on_c, 0, 60, 0
2, 105792, Note_on_c, 0, 71, 92
2, 105824, Note_on_c, 0, 71, 0
2, 105936, Note_on_c, 0, 71, 92
2, 105982, Note_on_c, 0, 71, 0
2, 105984, Note_on_c, 0, 81, 92
2, 106144, Note_on_c, 0, 81, 0
2, 106368, Note_on_c, 0, 71, 92
2, 106400, Note_on_c, 0, 71, 0
2, 106512, Note_on_c, 0, 71, 92
2, 106560, Note_on_c, 0, 71, 0
2, 106560, Note_on_c, 0, 79, 92
2, 106608, Note_on_c, 0, 79, 0
2, 106944, Note_on_c, 0, 64, 45
2, 106976, Note_on_c, 0, 64, 0
2, 107088, Note_on_c, 0, 64, 45
2, 107136, Note_on_c, 0, 64, 0
2, 107136, Note_on_c, 0, 72, 45
2, 107184, Note_on_c, 0, 72, 0
2, 107520, Note_on_c, 0, 52, 45
2, 107520, Note_on_c, 0, 55, 45
2, 107520, Note_on_c, 0, 60, 45
2, 107568, Note_on_c, 0, 52, 0
2, 107568, Note_on_c, 0, 55, 0
2, 107568, Note_on_c, 0, 60, 0
2, 107904, Note_on_c, 0, 52, 45
2, 107904, Note_on_c, 0, 55, 45
2, 107904, Note_on_c, 0, 60, 45
2, 107952, Note_on_c, 0, 52, 0
2, 107952, Note_on_c, 0, 55, 0
2, 107952, Note_on_c, 0, 60, 0
2, 108096, Note_on_c, 0, 71, 92
2, 108128, Note_on_c, 0, 71, 0
2, 108240, Note_on_c, 0, 71, 92
2, 108288, Note_on_c, 0, 71, 0
2, 108288, Note_on_c, 0, 80, 92
2, 108336, Note_on_c, 0, 80, 0
2, 108672, Note_on_c, 0, 71, 92
2, 108704, Note_on_c, 0, 71, 0
2, 108816, Note_on_c, 0, 71, 92
2, 108864, Note_on_c, 0, 71, 0
2, 108864, Note_on_c, 0, 79, 92
2, 108912, Note_on_c, 0, 79, 0
2, 109248, Note_on_c, 0, 64, 45
2, 109342, Note_on_c, 0, 64, 0
2, 109392, Note_on_c, 0, 64, 45
2, 109438, Note_on_c, 0, 64, 0
2, 109440, Note_on_c, 0, 72, 45
2, 109488, Note_on_c, 0, 72, 0
2, 109824, Note_on_c, 0, 52, 45
2, 109824, Note_on_c, 0, 55, 45
2, 109824, Note_on_c, 0, 60, 45
2, 109872, Note_on_c, 0, 52, 0
2, 109872, Note_on_c, 0, 55, 0
2, 109872, Note_on_c, 0, 60, 0
2, 110208, Note_on_c, 0, 52, 45
2, 110208, Note_on_c, 0, 55, 45
2, 110208, Note_on_c, 0, 60, 45
2, 110256, Note_on_c, 0, 52, 0
2, 110256, Note_on_c, 0, 55, 0
2, 110256, Note_on_c, 0, 60, 0
2, 110400, Note_on_c, 0, 64, 45
2, 110432, Note_on_c, 0, 64, 0
2, 110544, Note_on_c, 0, 64, 47
2, 110592, Note_on_c, 0, 64, 0
2, 110592, Note_on_c, 0, 76, 48
2, 110640, Note_on_c, 0, 76, 0
2, 110976, Note_on_c, 0, 52, 56
2, 110976, Note_on_c, 0, 55, 56
2, 110976, Note_on_c, 0, 60, 56
2, 111024, Note_on_c, 0, 52, 0
2, 111024, Note_on_c, 0, 55, 0
2, 111024, Note_on_c, 0, 60, 0
2, 111360, Note_on_c, 0, 52, 64
2, 111360, Note_on_c, 0, 55, 64
2, 111360, Note_on_c, 0, 60, 64
2, 111408, Note_on_c, 0, 52, 0
2, 111408, Note_on_c, 0, 55, 0
2, 111408, Note_on_c, 0, 60, 0
2, 111552, Note_on_c, 0, 67, 68
2, 111584, Note_on_c, 0, 67, 0
2, 111696, Note_on_c, 0, 67, 71
2, 111744, Note_on_c, 0, 67, 0
2, 111744, Note_on_c, 0, 79, 72
2, 111792, Note_on_c, 0, 79, 0
2, 112128, Note_on_c, 0, 72, 80
2, 112160, Note_on_c, 0, 72, 0
2, 112272, Note_on_c, 0, 72, 83
2, 112320, Note_on_c, 0, 72, 0
2, 112320, Note_on_c, 0, 84, 84
2, 112368, Note_on_c, 0, 84, 0
2, 112704, Note_on_c, 0, 52, 92
2, 112704, Note_on_c, 0, 55, 92
2, 112704, Note_on_c, 0, 60, 92
2, 112752, Note_on_c, 0, 52, 0
2, 112752, Note_on_c, 0, 55, 0
2, 112752, Note_on_c, 0, 60, 0
2, 113088, Note_on_c, 0, 52, 92
2, 113088, Note_on_c, 0, 55, 92
2, 113088, Note_on_c, 0, 60, 92
2, 113136, Note_on_c, 0, 52, 0
2, 113136, Note_on_c, 0, 55, 0
2, 113136, Note_on_c, 0, 60, 0
2, 113472, Note_on_c, 0, 52, 92
2, 113472, Note_on_c, 0, 55, 92
2, 113472, Note_on_c, 0, 60, 92
2, 113520, Note_on_c, 0, 52, 0
2, 113520, Note_on_c, 0, 55, 0
2, 113520, Note_on_c, 0, 60, 0
2, 113856, Note_on_c, 0, 52, 92
2, 113856, Note_on_c, 0, 55, 92
2, 113856, Note_on_c, 0, 60, 92
2, 113904, Note_on_c, 0, 52, 0
2, 113904, Note_on_c, 0, 55, 0
2, 113904, Note_on_c, 0, 60, 0
2, 114240, Note_on_c, 0, 52, 92
2, 114240, Note_on_c, 0, 55, 92
2, 114240, Note_on_c, 0, 60, 92
2, 114288, Note_on_c, 0, 52, 0
2, 114288, Note_on_c, 0, 55, 0
2, 114288, Note_on_c, 0, 60, 0
2, 114624, Note_on_c, 0, 52, 92
2, 114624, Note_on_c, 0, 55, 92
2, 114624, Note_on_c, 0, 60, 92
2, 114672, Note_on_c, 0, 52, 0
2, 114672, Note_on_c, 0, 55, 0
2, 114672, Note_on_c, 0, 60, 0
2, 115008, Note_on_c, 0, 52, 92
2, 115008, Note_on_c, 0, 55, 92
2, 115008, Note_on_c, 0, 60, 92
2, 115056, Note_on_c, 0, 52, 0
2, 115056, Note_on_c, 0, 55, 0
2, 115056, Note_on_c, 0, 60, 0
2, 115584, Note_on_c, 0, 52, 69
2, 115584, Note_on_c, 0, 55, 69
2, 115584, Note_on_c, 0, 60, 69
2, 115632, Note_on_c, 0, 52, 0
2, 115632, Note_on_c, 0, 55, 0
2, 115632, Note_on_c, 0, 60, 0
2, 116160, Note_on_c, 0, 52, 45
2, 116160, Note_on_c, 0, 55, 45
2, 116160, Note_on_c, 0, 60, 45
2, 116208, Note_on_c, 0, 52, 0
2, 116208, Note_on_c, 0, 55, 0
2, 116208, Note_on_c, 0, 60, 0
2, 116208, End_track
3, 0, Start_track
3, 0, MIDI_port, 0
3, 0, Title_t, "Reginald Steven Ritchie"
3, 0, Program_c, 1, 0
3, 0, Control_c, 1, 7, 127
3, 0, Control_c, 1, 10, 9
3, 0, Program_c, 1, 0
3, 0, Control_c, 1, 7, 127
3, 0, Control_c, 1, 10, 9
3, 0, Control_c, 1, 91, 84
3, 0, Control_c, 1, 93, 84
3, 384, Note_on_c, 1, 36, 92
3, 432, Note_on_c, 1, 36, 0
3, 576, Note_on_c, 1, 64, 60
3, 576, Note_on_c, 1, 67, 60
3, 736, Note_on_c, 1, 64, 0
3, 736, Note_on_c, 1, 67, 0
3, 768, Note_on_c, 1, 62, 60
3, 768, Note_on_c, 1, 65, 60
3, 928, Note_on_c, 1, 62, 0
3, 928, Note_on_c, 1, 65, 0
3, 960, Note_on_c, 1, 60, 60
3, 960, Note_on_c, 1, 64, 60
3, 1120, Note_on_c, 1, 60, 0
3, 1120, Note_on_c, 1, 64, 0
3, 1152, Note_on_c, 1, 55, 60
3, 1152, Note_on_c, 1, 59, 60
3, 1152, Note_on_c, 1, 62, 60
3, 1200, Note_on_c, 1, 55, 0
3, 1200, Note_on_c, 1, 59, 0
3, 1200, Note_on_c, 1, 62, 0
3, 1344, Note_on_c, 1, 55, 60
3, 1344, Note_on_c, 1, 59, 60
3, 1344, Note_on_c, 1, 62, 60
3, 1392, Note_on_c, 1, 55, 0
3, 1392, Note_on_c, 1, 59, 0
3, 1392, Note_on_c, 1, 62, 0
3, 1536, Note_on_c, 1, 55, 60
3, 1536, Note_on_c, 1, 59, 60
3, 1536, Note_on_c, 1, 62, 60
3, 1584, Note_on_c, 1, 55, 0
3, 1584, Note_on_c, 1, 59, 0
3, 1584, Note_on_c, 1, 62, 0
3, 1728, Note_on_c, 1, 55, 60
3, 1728, Note_on_c, 1, 59, 60
3, 1728, Note_on_c, 1, 62, 60
3, 1776, Note_on_c, 1, 55, 0
3, 1776, Note_on_c, 1, 59, 0
3, 1776, Note_on_c, 1, 62, 0
3, 2688, Note_on_c, 1, 38, 92
3, 2736, Note_on_c, 1, 38, 0
3, 2880, Note_on_c, 1, 65, 60
3, 2880, Note_on_c, 1, 69, 60
3, 3072, Note_on_c, 1, 65, 0
3, 3072, Note_on_c, 1, 69, 0
3, 3072, Note_on_c, 1, 64, 60
3, 3072, Note_on_c, 1, 67, 60
3, 3264, Note_on_c, 1, 64, 0
3, 3264, Note_on_c, 1, 67, 0
3, 3264, Note_on_c, 1, 62, 60
3, 3264, Note_on_c, 1, 65, 60
3, 3424, Note_on_c, 1, 62, 0
3, 3424, Note_on_c, 1, 65, 0
3, 3456, Note_on_c, 1, 57, 60
3, 3456, Note_on_c, 1, 61, 60
3, 3456, Note_on_c, 1, 64, 60
3, 3504, Note_on_c, 1, 57, 0
3, 3504, Note_on_c, 1, 61, 0
3, 3504, Note_on_c, 1, 64, 0
3, 3648, Note_on_c, 1, 57, 60
3, 3648, Note_on_c, 1, 61, 60
3, 3648, Note_on_c, 1, 64, 60
3, 3696, Note_on_c, 1, 57, 0
3, 3696, Note_on_c, 1, 61, 0
3, 3696, Note_on_c, 1, 64, 0
3, 3840, Note_on_c, 1, 57, 60
3, 3840, Note_on_c, 1, 61, 60
3, 3840, Note_on_c, 1, 64, 60
3, 3888, Note_on_c, 1, 57, 0
3, 3888, Note_on_c, 1, 61, 0
3, 3888, Note_on_c, 1, 64, 0
3, 4032, Note_on_c, 1, 57, 60
3, 4032, Note_on_c, 1, 61, 60
3, 4032, Note_on_c, 1, 64, 60
3, 4080, Note_on_c, 1, 57, 0
3, 4080, Note_on_c, 1, 61, 0
3, 4080, Note_on_c, 1, 64, 0
3, 4992, Note_on_c, 1, 41, 92
3, 5040, Note_on_c, 1, 41, 0
3, 5184, Note_on_c, 1, 69, 60
3, 5184, Note_on_c, 1, 72, 60
3, 5376, Note_on_c, 1, 69, 0
3, 5376, Note_on_c, 1, 72, 0
3, 5376, Note_on_c, 1, 67, 60
3, 5376, Note_on_c, 1, 70, 60
3, 5568, Note_on_c, 1, 67, 0
3, 5568, Note_on_c, 1, 70, 0
3, 5568, Note_on_c, 1, 65, 60
3, 5568, Note_on_c, 1, 69, 60
3, 5728, Note_on_c, 1, 65, 0
3, 5728, Note_on_c, 1, 69, 0
3, 6144, Note_on_c, 1, 48, 92
3, 6192, Note_on_c, 1, 48, 0
3, 6336, Note_on_c, 1, 64, 60
3, 6336, Note_on_c, 1, 67, 60
3, 6528, Note_on_c, 1, 64, 0
3, 6528, Note_on_c, 1, 67, 0
3, 6528, Note_on_c, 1, 62, 60
3, 6528, Note_on_c, 1, 65, 60
3, 6720, Note_on_c, 1, 62, 0
3, 6720, Note_on_c, 1, 65, 0
3, 6720, Note_on_c, 1, 60, 60
3, 6720, Note_on_c, 1, 64, 60
3, 6880, Note_on_c, 1, 60, 0
3, 6880, Note_on_c, 1, 64, 0
3, 7296, Note_on_c, 1, 53, 92
3, 7296, Note_on_c, 1, 57, 92
3, 7296, Note_on_c, 1, 62, 92
3, 7344, Note_on_c, 1, 53, 0
3, 7344, Note_on_c, 1, 57, 0
3, 7344, Note_on_c, 1, 62, 0
3, 7872, Note_on_c, 1, 55, 92
3, 7872, Note_on_c, 1, 59, 92
3, 7872, Note_on_c, 1, 65, 92
3, 7920, Note_on_c, 1, 55, 0
3, 7920, Note_on_c, 1, 59, 0
3, 7920, Note_on_c, 1, 65, 0
3, 8448, Note_on_c, 1, 48, 92
3, 8448, Note_on_c, 1, 55, 92
3, 8448, Note_on_c, 1, 60, 92
3, 8496, Note_on_c, 1, 48, 0
3, 8496, Note_on_c, 1, 55, 0
3, 8496, Note_on_c, 1, 60, 0
3, 8832, Note_on_c, 1, 36, 92
3, 8880, Note_on_c, 1, 36, 0
3, 9216, Control_c, 1, 91, 84
3, 9216, Control_c, 1, 93, 84
3, 9600, Note_on_c, 1, 36, 92
3, 9648, Note_on_c, 1, 36, 0
3, 9792, Note_on_c, 1, 64, 60
3, 9792, Note_on_c, 1, 67, 60
3, 9952, Note_on_c, 1, 64, 0
3, 9952, Note_on_c, 1, 67, 0
3, 9984, Note_on_c, 1, 62, 60
3, 9984, Note_on_c, 1, 65, 60
3, 10144, Note_on_c, 1, 62, 0
3, 10144, Note_on_c, 1, 65, 0
3, 10176, Note_on_c, 1, 60, 60
3, 10176, Note_on_c, 1, 64, 60
3, 10336, Note_on_c, 1, 60, 0
3, 10336, Note_on_c, 1, 64, 0
3, 10368, Note_on_c, 1, 55, 60
3, 10368, Note_on_c, 1, 59, 60
3, 10368, Note_on_c, 1, 62, 60
3, 10416, Note_on_c, 1, 55, 0
3, 10416, Note_on_c, 1, 59, 0
3, 10416, Note_on_c, 1, 62, 0
3, 10560, Note_on_c, 1, 55, 60
3, 10560, Note_on_c, 1, 59, 60
3, 10560, Note_on_c, 1, 62, 60
3, 10608, Note_on_c, 1, 55, 0
3, 10608, Note_on_c, 1, 59, 0
3, 10608, Note_on_c, 1, 62, 0
3, 10752, Note_on_c, 1, 55, 60
3, 10752, Note_on_c, 1, 59, 60
3, 10752, Note_on_c, 1, 62, 60
3, 10800, Note_on_c, 1, 55, 0
3, 10800, Note_on_c, 1, 59, 0
3, 10800, Note_on_c, 1, 62, 0
3, 10944, Note_on_c, 1, 55, 60
3, 10944, Note_on_c, 1, 59, 60
3, 10944, Note_on_c, 1, 62, 60
3, 10992, Note_on_c, 1, 55, 0
3, 10992, Note_on_c, 1, 59, 0
3, 10992, Note_on_c, 1, 62, 0
3, 11904, Note_on_c, 1, 38, 92
3, 11952, Note_on_c, 1, 38, 0
3, 12096, Note_on_c, 1, 65, 60
3, 12096, Note_on_c, 1, 69, 60
3, 12288, Note_on_c, 1, 65, 0
3, 12288, Note_on_c, 1, 69, 0
3, 12288, Note_on_c, 1, 64, 60
3, 12288, Note_on_c, 1, 67, 60
3, 12480, Note_on_c, 1, 64, 0
3, 12480, Note_on_c, 1, 67, 0
3, 12480, Note_on_c, 1, 62, 60
3, 12480, Note_on_c, 1, 65, 60
3, 12640, Note_on_c, 1, 62, 0
3, 12640, Note_on_c, 1, 65, 0
3, 12672, Note_on_c, 1, 57, 60
3, 12672, Note_on_c, 1, 61, 60
3, 12672, Note_on_c, 1, 64, 60
3, 12720, Note_on_c, 1, 57, 0
3, 12720, Note_on_c, 1, 61, 0
3, 12720, Note_on_c, 1, 64, 0
3, 12864, Note_on_c, 1, 57, 60
3, 12864, Note_on_c, 1, 61, 60
3, 12864, Note_on_c, 1, 64, 60
3, 12912, Note_on_c, 1, 57, 0
3, 12912, Note_on_c, 1, 61, 0
3, 12912, Note_on_c, 1, 64, 0
3, 13056, Note_on_c, 1, 57, 60
3, 13056, Note_on_c, 1, 61, 60
3, 13056, Note_on_c, 1, 64, 60
3, 13104, Note_on_c, 1, 57, 0
3, 13104, Note_on_c, 1, 61, 0
3, 13104, Note_on_c, 1, 64, 0
3, 13248, Note_on_c, 1, 57, 60
3, 13248, Note_on_c, 1, 61, 60
3, 13248, Note_on_c, 1, 64, 60
3, 13296, Note_on_c, 1, 57, 0
3, 13296, Note_on_c, 1, 61, 0
3, 13296, Note_on_c, 1, 64, 0
3, 14208, Note_on_c, 1, 41, 92
3, 14256, Note_on_c, 1, 41, 0
3, 14400, Note_on_c, 1, 69, 60
3, 14400, Note_on_c, 1, 72, 60
3, 14592, Note_on_c, 1, 69, 0
3, 14592, Note_on_c, 1, 72, 0
3, 14592, Note_on_c, 1, 67, 60
3, 14592, Note_on_c, 1, 70, 60
3, 14784, Note_on_c, 1, 67, 0
3, 14784, Note_on_c, 1, 70, 0
3, 14784, Note_on_c, 1, 65, 60
3, 14784, Note_on_c, 1, 69, 60
3, 14944, Note_on_c, 1, 65, 0
3, 14944, Note_on_c, 1, 69, 0
3, 15360, Note_on_c, 1, 48, 92
3, 15408, Note_on_c, 1, 48, 0
3, 15552, Note_on_c, 1, 64, 60
3, 15552, Note_on_c, 1, 67, 60
3, 15744, Note_on_c, 1, 64, 0
3, 15744, Note_on_c, 1, 67, 0
3, 15744, Note_on_c, 1, 62, 60
3, 15744, Note_on_c, 1, 65, 60
3, 15936, Note_on_c, 1, 62, 0
3, 15936, Note_on_c, 1, 65, 0
3, 15936, Note_on_c, 1, 60, 60
3, 15936, Note_on_c, 1, 64, 60
3, 16096, Note_on_c, 1, 60, 0
3, 16096, Note_on_c, 1, 64, 0
3, 16512, Note_on_c, 1, 53, 92
3, 16512, Note_on_c, 1, 57, 92
3, 16512, Note_on_c, 1, 62, 92
3, 16560, Note_on_c, 1, 53, 0
3, 16560, Note_on_c, 1, 57, 0
3, 16560, Note_on_c, 1, 62, 0
3, 17088, Note_on_c, 1, 55, 92
3, 17088, Note_on_c, 1, 59, 92
3, 17088, Note_on_c, 1, 65, 92
3, 17136, Note_on_c, 1, 55, 0
3, 17136, Note_on_c, 1, 59, 0
3, 17136, Note_on_c, 1, 65, 0
3, 17664, Note_on_c, 1, 48, 92
3, 17664, Note_on_c, 1, 55, 92
3, 17664, Note_on_c, 1, 60, 92
3, 17712, Note_on_c, 1, 48, 0
3, 17712, Note_on_c, 1, 55, 0
3, 17712, Note_on_c, 1, 60, 0
3, 18048, Note_on_c, 1, 36, 92
3, 18096, Note_on_c, 1, 36, 0
3, 18624, Note_on_c, 1, 36, 92
3, 18672, Note_on_c, 1, 36, 0
3, 19008, Note_on_c, 1, 33, 45
3, 19070, Note_on_c, 1, 33, 0
3, 19072, Note_on_c, 1, 40, 45
3, 19134, Note_on_c, 1, 40, 0
3, 19136, Note_on_c, 1, 45, 45
3, 19198, Note_on_c, 1, 45, 0
3, 19200, Note_on_c, 1, 33, 45
3, 19262, Note_on_c, 1, 33, 0
3, 19264, Note_on_c, 1, 40, 45
3, 19326, Note_on_c, 1, 40, 0
3, 19328, Note_on_c, 1, 45, 45
3, 19390, Note_on_c, 1, 45, 0
3, 19392, Note_on_c, 1, 33, 45
3, 19454, Note_on_c, 1, 33, 0
3, 19456, Note_on_c, 1, 40, 45
3, 19518, Note_on_c, 1, 40, 0
3, 19520, Note_on_c, 1, 45, 45
3, 19582, Note_on_c, 1, 45, 0
3, 19584, Note_on_c, 1, 33, 45
3, 19646, Note_on_c, 1, 33, 0
3, 19648, Note_on_c, 1, 40, 45
3, 19710, Note_on_c, 1, 40, 0
3, 19712, Note_on_c, 1, 45, 45
3, 19774, Note_on_c, 1, 45, 0
3, 19776, Note_on_c, 1, 33, 45
3, 19838, Note_on_c, 1, 33, 0
3, 19840, Note_on_c, 1, 40, 45
3, 19902, Note_on_c, 1, 40, 0
3, 19904, Note_on_c, 1, 45, 45
3, 19966, Note_on_c, 1, 45, 0
3, 19968, Note_on_c, 1, 33, 45
3, 20030, Note_on_c, 1, 33, 0
3, 20032, Note_on_c, 1, 40, 45
3, 20094, Note_on_c, 1, 40, 0
3, 20096, Note_on_c, 1, 44, 45
3, 20158, Note_on_c, 1, 44, 0
3, 20160, Note_on_c, 1, 33, 45
3, 20222, Note_on_c, 1, 33, 0
3, 20224, Note_on_c, 1, 40, 45
3, 20286, Note_on_c, 1, 40, 0
3, 20288, Note_on_c, 1, 45, 45
3, 20350, Note_on_c, 1, 45, 0
3, 20352, Note_on_c, 1, 33, 45
3, 20414, Note_on_c, 1, 33, 0
3, 20416, Note_on_c, 1, 40, 45
3, 20478, Note_on_c, 1, 40, 0
3, 20480, Note_on_c, 1, 45, 45
3, 20542, Note_on_c, 1, 45, 0
3, 20544, Note_on_c, 1, 33, 45
3, 20606, Note_on_c, 1, 33, 0
3, 20608, Note_on_c, 1, 40, 45
3, 20670, Note_on_c, 1, 40, 0
3, 20672, Note_on_c, 1, 45, 45
3, 20734, Note_on_c, 1, 45, 0
3, 20736, Note_on_c, 1, 33, 45
3, 20798, Note_on_c, 1, 33, 0
3, 20800, Note_on_c, 1, 40, 45
3, 20862, Note_on_c, 1, 40, 0
3, 20864, Note_on_c, 1, 45, 45
3, 20926, Note_on_c, 1, 45, 0
3, 20928, Note_on_c, 1, 33, 45
3, 20990, Note_on_c, 1, 33, 0
3, 20992, Note_on_c, 1, 40, 45
3, 21054, Note_on_c, 1, 40, 0
3, 21056, Note_on_c, 1, 45, 45
3, 21118, Note_on_c, 1, 45, 0
3, 21120, Note_on_c, 1, 33, 45
3, 21182, Note_on_c, 1, 33, 0
3, 21184, Note_on_c, 1, 40, 45
3, 21246, Note_on_c, 1, 40, 0
3, 21248, Note_on_c, 1, 44, 45
3, 21310, Note_on_c, 1, 44, 0
3, 21312, Note_on_c, 1, 33, 45
3, 21374, Note_on_c, 1, 33, 0
3, 21376, Note_on_c, 1, 40, 47
3, 21438, Note_on_c, 1, 40, 0
3, 21440, Note_on_c, 1, 45, 49
3, 21502, Note_on_c, 1, 45, 0
3, 21504, Note_on_c, 1, 33, 51
3, 21566, Note_on_c, 1, 33, 0
3, 21568, Note_on_c, 1, 40, 53
3, 21630, Note_on_c, 1, 40, 0
3, 21632, Note_on_c, 1, 45, 55
3, 21694, Note_on_c, 1, 45, 0
3, 21696, Note_on_c, 1, 32, 57
3, 21758, Note_on_c, 1, 32, 0
3, 21760, Note_on_c, 1, 40, 59
3, 21822, Note_on_c, 1, 40, 0
3, 21824, Note_on_c, 1, 44, 62
3, 21886, Note_on_c, 1, 44, 0
3, 21888, Note_on_c, 1, 33, 65
3, 21950, Note_on_c, 1, 33, 0
3, 21952, Note_on_c, 1, 40, 68
3, 22014, Note_on_c, 1, 40, 0
3, 22016, Note_on_c, 1, 45, 71
3, 22078, Note_on_c, 1, 45, 0
3, 22080, Note_on_c, 1, 33, 74
3, 22142, Note_on_c, 1, 33, 0
3, 22144, Note_on_c, 1, 40, 77
3, 22206, Note_on_c, 1, 40, 0
3, 22208, Note_on_c, 1, 45, 80
3, 22270, Note_on_c, 1, 45, 0
3, 22272, Note_on_c, 1, 35, 83
3, 22334, Note_on_c, 1, 35, 0
3, 22336, Note_on_c, 1, 43, 86
3, 22398, Note_on_c, 1, 43, 0
3, 22400, Note_on_c, 1, 47, 89
3, 22462, Note_on_c, 1, 47, 0
3, 22464, Note_on_c, 1, 36, 92
3, 22526, Note_on_c, 1, 36, 0
3, 22528, Note_on_c, 1, 43, 91
3, 22590, Note_on_c, 1, 43, 0
3, 22592, Note_on_c, 1, 48, 90
3, 22654, Note_on_c, 1, 48, 0
3, 22656, Note_on_c, 1, 36, 89
3, 22718, Note_on_c, 1, 36, 0
3, 22720, Note_on_c, 1, 43, 88
3, 22782, Note_on_c, 1, 43, 0
3, 22784, Note_on_c, 1, 48, 87
3, 22846, Note_on_c, 1, 48, 0
3, 22848, Note_on_c, 1, 36, 86
3, 22910, Note_on_c, 1, 36, 0
3, 22912, Note_on_c, 1, 43, 85
3, 22974, Note_on_c, 1, 43, 0
3, 22976, Note_on_c, 1, 48, 84
3, 23038, Note_on_c, 1, 48, 0
3, 23040, Note_on_c, 1, 36, 83
3, 23102, Note_on_c, 1, 36, 0
3, 23104, Note_on_c, 1, 43, 82
3, 23166, Note_on_c, 1, 43, 0
3, 23168, Note_on_c, 1, 48, 81
3, 23230, Note_on_c, 1, 48, 0
3, 23232, Note_on_c, 1, 36, 80
3, 23294, Note_on_c, 1, 36, 0
3, 23296, Note_on_c, 1, 43, 79
3, 23358, Note_on_c, 1, 43, 0
3, 23360, Note_on_c, 1, 48, 77
3, 23422, Note_on_c, 1, 48, 0
3, 23424, Note_on_c, 1, 36, 75
3, 23486, Note_on_c, 1, 36, 0
3, 23488, Note_on_c, 1, 43, 75
3, 23550, Note_on_c, 1, 43, 0
3, 23552, Note_on_c, 1, 48, 75
3, 23614, Note_on_c, 1, 48, 0
3, 23616, Note_on_c, 1, 36, 45
3, 23678, Note_on_c, 1, 36, 0
3, 23680, Note_on_c, 1, 43, 45
3, 23742, Note_on_c, 1, 43, 0
3, 23744, Note_on_c, 1, 48, 45
3, 23806, Note_on_c, 1, 48, 0
3, 23808, Note_on_c, 1, 36, 45
3, 23870, Note_on_c, 1, 36, 0
3, 23872, Note_on_c, 1, 43, 45
3, 23934, Note_on_c, 1, 43, 0
3, 23936, Note_on_c, 1, 48, 45
3, 23998, Note_on_c, 1, 48, 0
3, 24000, Note_on_c, 1, 36, 45
3, 24062, Note_on_c, 1, 36, 0
3, 24064, Note_on_c, 1, 43, 45
3, 24126, Note_on_c, 1, 43, 0
3, 24128, Note_on_c, 1, 48, 45
3, 24190, Note_on_c, 1, 48, 0
3, 24192, Note_on_c, 1, 36, 45
3, 24254, Note_on_c, 1, 36, 0
3, 24256, Note_on_c, 1, 43, 45
3, 24318, Note_on_c, 1, 43, 0
3, 24320, Note_on_c, 1, 48, 45
3, 24382, Note_on_c, 1, 48, 0
3, 24384, Note_on_c, 1, 36, 45
3, 24446, Note_on_c, 1, 36, 0
3, 24448, Note_on_c, 1, 43, 45
3, 24510, Note_on_c, 1, 43, 0
3, 24512, Note_on_c, 1, 48, 45
3, 24574, Note_on_c, 1, 48, 0
3, 24576, Note_on_c, 1, 36, 45
3, 24638, Note_on_c, 1, 36, 0
3, 24640, Note_on_c, 1, 43, 45
3, 24702, Note_on_c, 1, 43, 0
3, 24704, Note_on_c, 1, 48, 45
3, 24766, Note_on_c, 1, 48, 0
3, 24768, Note_on_c, 1, 36, 45
3, 24830, Note_on_c, 1, 36, 0
3, 24832, Note_on_c, 1, 43, 45
3, 24894, Note_on_c, 1, 43, 0
3, 24896, Note_on_c, 1, 48, 45
3, 24958, Note_on_c, 1, 48, 0
3, 24960, Note_on_c, 1, 36, 45
3, 25022, Note_on_c, 1, 36, 0
3, 25024, Note_on_c, 1, 43, 45
3, 25086, Note_on_c, 1, 43, 0
3, 25088, Note_on_c, 1, 48, 45
3, 25150, Note_on_c, 1, 48, 0
3, 25152, Note_on_c, 1, 36, 45
3, 25214, Note_on_c, 1, 36, 0
3, 25216, Note_on_c, 1, 43, 45
3, 25278, Note_on_c, 1, 43, 0
3, 25280, Note_on_c, 1, 48, 45
3, 25342, Note_on_c, 1, 48, 0
3, 25344, Note_on_c, 1, 36, 45
3, 25406, Note_on_c, 1, 36, 0
3, 25408, Note_on_c, 1, 43, 45
3, 25470, Note_on_c, 1, 43, 0
3, 25472, Note_on_c, 1, 48, 45
3, 25534, Note_on_c, 1, 48, 0
3, 25536, Note_on_c, 1, 36, 45
3, 25598, Note_on_c, 1, 36, 0
3, 25600, Note_on_c, 1, 43, 45
3, 25662, Note_on_c, 1, 43, 0
3, 25664, Note_on_c, 1, 48, 45
3, 25726, Note_on_c, 1, 48, 0
3, 25728, Note_on_c, 1, 35, 45
3, 25790, Note_on_c, 1, 35, 0
3, 25792, Note_on_c, 1, 43, 45
3, 25854, Note_on_c, 1, 43, 0
3, 25856, Note_on_c, 1, 47, 45
3, 25918, Note_on_c, 1, 47, 0
3, 25920, Note_on_c, 1, 36, 45
3, 25982, Note_on_c, 1, 36, 0
3, 25984, Note_on_c, 1, 43, 45
3, 26046, Note_on_c, 1, 43, 0
3, 26048, Note_on_c, 1, 48, 45
3, 26110, Note_on_c, 1, 48, 0
3, 26112, Note_on_c, 1, 36, 45
3, 26174, Note_on_c, 1, 36, 0
3, 26176, Note_on_c, 1, 43, 44
3, 26238, Note_on_c, 1, 43, 0
3, 26240, Note_on_c, 1, 48, 43
3, 26302, Note_on_c, 1, 48, 0
3, 26304, Note_on_c, 1, 38, 42
3, 26366, Note_on_c, 1, 38, 0
3, 26368, Note_on_c, 1, 41, 41
3, 26430, Note_on_c, 1, 41, 0
3, 26432, Note_on_c, 1, 50, 40
3, 26494, Note_on_c, 1, 50, 0
3, 26496, Note_on_c, 1, 40, 39
3, 26558, Note_on_c, 1, 40, 0
3, 26560, Note_on_c, 1, 45, 38
3, 26622, Note_on_c, 1, 45, 0
3, 26624, Note_on_c, 1, 52, 37
3, 26686, Note_on_c, 1, 52, 0
3, 26688, Note_on_c, 1, 40, 36
3, 26750, Note_on_c, 1, 40, 0
3, 26752, Note_on_c, 1, 45, 35
3, 26814, Note_on_c, 1, 45, 0
3, 26816, Note_on_c, 1, 52, 34
3, 26878, Note_on_c, 1, 52, 0
3, 26880, Note_on_c, 1, 40, 33
3, 26942, Note_on_c, 1, 40, 0
3, 26944, Note_on_c, 1, 44, 32
3, 27006, Note_on_c, 1, 44, 0
3, 27008, Note_on_c, 1, 52, 31
3, 27070, Note_on_c, 1, 52, 0
3, 27072, Note_on_c, 1, 33, 30
3, 27134, Note_on_c, 1, 33, 0
3, 27136, Note_on_c, 1, 36, 30
3, 27198, Note_on_c, 1, 36, 0
3, 27200, Note_on_c, 1, 40, 30
3, 27262, Note_on_c, 1, 40, 0
3, 27264, Note_on_c, 1, 45, 30
3, 27326, Note_on_c, 1, 45, 0
3, 27328, Note_on_c, 1, 40, 30
3, 27390, Note_on_c, 1, 40, 0
3, 27392, Note_on_c, 1, 36, 30
3, 27454, Note_on_c, 1, 36, 0
3, 27456, Note_on_c, 1, 33, 30
3, 27518, Note_on_c, 1, 33, 0
3, 27520, Note_on_c, 1, 36, 30
3, 27582, Note_on_c, 1, 36, 0
3, 27584, Note_on_c, 1, 40, 30
3, 27646, Note_on_c, 1, 40, 0
3, 27648, Note_on_c, 1, 45, 30
3, 27710, Note_on_c, 1, 45, 0
3, 27712, Note_on_c, 1, 40, 30
3, 27774, Note_on_c, 1, 40, 0
3, 27776, Note_on_c, 1, 36, 30
3, 27838, Note_on_c, 1, 36, 0
3, 27840, Note_on_c, 1, 33, 30
3, 27902, Note_on_c, 1, 33, 0
3, 27904, Note_on_c, 1, 36, 30
3, 27966, Note_on_c, 1, 36, 0
3, 27968, Note_on_c, 1, 40, 30
3, 28030, Note_on_c, 1, 40, 0
3, 28032, Note_on_c, 1, 45, 30
3, 28094, Note_on_c, 1, 45, 0
3, 28096, Note_on_c, 1, 40, 30
3, 28158, Note_on_c, 1, 40, 0
3, 28160, Note_on_c, 1, 36, 30
3, 28222, Note_on_c, 1, 36, 0
3, 28224, Note_on_c, 1, 33, 45
3, 28286, Note_on_c, 1, 33, 0
3, 28288, Note_on_c, 1, 40, 45
3, 28350, Note_on_c, 1, 40, 0
3, 28352, Note_on_c, 1, 45, 45
3, 28414, Note_on_c, 1, 45, 0
3, 28416, Note_on_c, 1, 33, 45
3, 28478, Note_on_c, 1, 33, 0
3, 28480, Note_on_c, 1, 40, 45
3, 28542, Note_on_c, 1, 40, 0
3, 28544, Note_on_c, 1, 45, 45
3, 28606, Note_on_c, 1, 45, 0
3, 28608, Note_on_c, 1, 33, 45
3, 28670, Note_on_c, 1, 33, 0
3, 28672, Note_on_c, 1, 40, 45
3, 28734, Note_on_c, 1, 40, 0
3, 28736, Note_on_c, 1, 45, 45
3, 28798, Note_on_c, 1, 45, 0
3, 28800, Note_on_c, 1, 33, 45
3, 28862, Note_on_c, 1, 33, 0
3, 28864, Note_on_c, 1, 40, 45
3, 28926, Note_on_c, 1, 40, 0
3, 28928, Note_on_c, 1, 45, 45
3, 28990, Note_on_c, 1, 45, 0
3, 28992, Note_on_c, 1, 33, 45
3, 29054, Note_on_c, 1, 33, 0
3, 29056, Note_on_c, 1, 40, 45
3, 29118, Note_on_c, 1, 40, 0
3, 29120, Note_on_c, 1, 45, 45
3, 29182, Note_on_c, 1, 45, 0
3, 29184, Note_on_c, 1, 33, 45
3, 29246, Note_on_c, 1, 33, 0
3, 29248, Note_on_c, 1, 40, 45
3, 29310, Note_on_c, 1, 40, 0
3, 29312, Note_on_c, 1, 44, 45
3, 29374, Note_on_c, 1, 44, 0
3, 29376, Note_on_c, 1, 33, 45
3, 29438, Note_on_c, 1, 33, 0
3, 29440, Note_on_c, 1, 40, 45
3, 29502, Note_on_c, 1, 40, 0
3, 29504, Note_on_c, 1, 45, 45
3, 29566, Note_on_c, 1, 45, 0
3, 29568, Note_on_c, 1, 33, 45
3, 29630, Note_on_c, 1, 33, 0
3, 29632, Note_on_c, 1, 40, 45
3, 29694, Note_on_c, 1, 40, 0
3, 29696, Note_on_c, 1, 45, 45
3, 29758, Note_on_c, 1, 45, 0
3, 29760, Note_on_c, 1, 33, 45
3, 29822, Note_on_c, 1, 33, 0
3, 29824, Note_on_c, 1, 40, 45
3, 29886, Note_on_c, 1, 40, 0
3, 29888, Note_on_c, 1, 45, 45
3, 29950, Note_on_c, 1, 45, 0
3, 29952, Note_on_c, 1, 33, 45
3, 30014, Note_on_c, 1, 33, 0
3, 30016, Note_on_c, 1, 40, 45
3, 30078, Note_on_c, 1, 40, 0
3, 30080, Note_on_c, 1, 45, 45
3, 30142, Note_on_c, 1, 45, 0
3, 30144, Note_on_c, 1, 33, 45
3, 30206, Note_on_c, 1, 33, 0
3, 30208, Note_on_c, 1, 40, 45
3, 30270, Note_on_c, 1, 40, 0
3, 30272, Note_on_c, 1, 45, 45
3, 30334, Note_on_c, 1, 45, 0
3, 30336, Note_on_c, 1, 33, 45
3, 30398, Note_on_c, 1, 33, 0
3, 30400, Note_on_c, 1, 40, 45
3, 30462, Note_on_c, 1, 40, 0
3, 30464, Note_on_c, 1, 44, 45
3, 30526, Note_on_c, 1, 44, 0
3, 30528, Note_on_c, 1, 33, 45
3, 30590, Note_on_c, 1, 33, 0
3, 30592, Note_on_c, 1, 40, 47
3, 30654, Note_on_c, 1, 40, 0
3, 30656, Note_on_c, 1, 45, 49
3, 30718, Note_on_c, 1, 45, 0
3, 30720, Note_on_c, 1, 33, 51
3, 30782, Note_on_c, 1, 33, 0
3, 30784, Note_on_c, 1, 40, 53
3, 30846, Note_on_c, 1, 40, 0
3, 30848, Note_on_c, 1, 45, 55
3, 30910, Note_on_c, 1, 45, 0
3, 30912, Note_on_c, 1, 32, 57
3, 30974, Note_on_c, 1, 32, 0
3, 30976, Note_on_c, 1, 40, 59
3, 31038, Note_on_c, 1, 40, 0
3, 31040, Note_on_c, 1, 44, 62
3, 31102, Note_on_c, 1, 44, 0
3, 31104, Note_on_c, 1, 33, 65
3, 31166, Note_on_c, 1, 33, 0
3, 31168, Note_on_c, 1, 40, 68
3, 31230, Note_on_c, 1, 40, 0
3, 31232, Note_on_c, 1, 45, 71
3, 31294, Note_on_c, 1, 45, 0
3, 31296, Note_on_c, 1, 33, 74
3, 31358, Note_on_c, 1, 33, 0
3, 31360, Note_on_c, 1, 40, 77
3, 31422, Note_on_c, 1, 40, 0
3, 31424, Note_on_c, 1, 45, 80
3, 31486, Note_on_c, 1, 45, 0
3, 31488, Note_on_c, 1, 35, 83
3, 31550, Note_on_c, 1, 35, 0
3, 31552, Note_on_c, 1, 43, 86
3, 31614, Note_on_c, 1, 43, 0
3, 31616, Note_on_c, 1, 47, 89
3, 31678, Note_on_c, 1, 47, 0
3, 31680, Note_on_c, 1, 36, 92
3, 31742, Note_on_c, 1, 36, 0
3, 31744, Note_on_c, 1, 43, 91
3, 31806, Note_on_c, 1, 43, 0
3, 31808, Note_on_c, 1, 48, 90
3, 31870, Note_on_c, 1, 48, 0
3, 31872, Note_on_c, 1, 36, 89
3, 31934, Note_on_c, 1, 36, 0
3, 31936, Note_on_c, 1, 43, 88
3, 31998, Note_on_c, 1, 43, 0
3, 32000, Note_on_c, 1, 48, 87
3, 32062, Note_on_c, 1, 48, 0
3, 32064, Note_on_c, 1, 36, 86
3, 32126, Note_on_c, 1, 36, 0
3, 32128, Note_on_c, 1, 43, 85
3, 32190, Note_on_c, 1, 43, 0
3, 32192, Note_on_c, 1, 48, 84
3, 32254, Note_on_c, 1, 48, 0
3, 32256, Note_on_c, 1, 36, 83
3, 32318, Note_on_c, 1, 36, 0
3, 32320, Note_on_c, 1, 43, 82
3, 32382, Note_on_c, 1, 43, 0
3, 32384, Note_on_c, 1, 48, 81
3, 32446, Note_on_c, 1, 48, 0
3, 32448, Note_on_c, 1, 36, 80
3, 32510, Note_on_c, 1, 36, 0
3, 32512, Note_on_c, 1, 43, 79
3, 32574, Note_on_c, 1, 43, 0
3, 32576, Note_on_c, 1, 48, 77
3, 32638, Note_on_c, 1, 48, 0
3, 32640, Note_on_c, 1, 36, 75
3, 32702, Note_on_c, 1, 36, 0
3, 32704, Note_on_c, 1, 43, 75
3, 32766, Note_on_c, 1, 43, 0
3, 32768, Note_on_c, 1, 48, 75
3, 32830, Note_on_c, 1, 48, 0
3, 32832, Note_on_c, 1, 36, 45
3, 32894, Note_on_c, 1, 36, 0
3, 32896, Note_on_c, 1, 43, 45
3, 32958, Note_on_c, 1, 43, 0
3, 32960, Note_on_c, 1, 48, 45
3, 33022, Note_on_c, 1, 48, 0
3, 33024, Note_on_c, 1, 36, 45
3, 33086, Note_on_c, 1, 36, 0
3, 33088, Note_on_c, 1, 43, 45
3, 33150, Note_on_c, 1, 43, 0
3, 33152, Note_on_c, 1, 48, 45
3, 33214, Note_on_c, 1, 48, 0
3, 33216, Note_on_c, 1, 36, 45
3, 33278, Note_on_c, 1, 36, 0
3, 33280, Note_on_c, 1, 43, 45
3, 33342, Note_on_c, 1, 43, 0
3, 33344, Note_on_c, 1, 48, 45
3, 33406, Note_on_c, 1, 48, 0
3, 33408, Note_on_c, 1, 36, 45
3, 33470, Note_on_c, 1, 36, 0
3, 33472, Note_on_c, 1, 43, 45
3, 33534, Note_on_c, 1, 43, 0
3, 33536, Note_on_c, 1, 48, 45
3, 33598, Note_on_c, 1, 48, 0
3, 33600, Note_on_c, 1, 36, 45
3, 33662, Note_on_c, 1, 36, 0
3, 33664, Note_on_c, 1, 43, 45
3, 33726, Note_on_c, 1, 43, 0
3, 33728, Note_on_c, 1, 48, 45
3, 33790, Note_on_c, 1, 48, 0
3, 33792, Note_on_c, 1, 36, 45
3, 33854, Note_on_c, 1, 36, 0
3, 33856, Note_on_c, 1, 43, 45
3, 33918, Note_on_c, 1, 43, 0
3, 33920, Note_on_c, 1, 48, 45
3, 33982, Note_on_c, 1, 48, 0
3, 33984, Note_on_c, 1, 36, 45
3, 34046, Note_on_c, 1, 36, 0
3, 34048, Note_on_c, 1, 43, 45
3, 34110, Note_on_c, 1, 43, 0
3, 34112, Note_on_c, 1, 48, 45
3, 34174, Note_on_c, 1, 48, 0
3, 34176, Note_on_c, 1, 36, 45
3, 34238, Note_on_c, 1, 36, 0
3, 34240, Note_on_c, 1, 43, 45
3, 34302, Note_on_c, 1, 43, 0
3, 34304, Note_on_c, 1, 48, 45
3, 34366, Note_on_c, 1, 48, 0
3, 34368, Note_on_c, 1, 36, 45
3, 34430, Note_on_c, 1, 36, 0
3, 34432, Note_on_c, 1, 43, 45
3, 34494, Note_on_c, 1, 43, 0
3, 34496, Note_on_c, 1, 48, 45
3, 34558, Note_on_c, 1, 48, 0
3, 34560, Note_on_c, 1, 36, 45
3, 34622, Note_on_c, 1, 36, 0
3, 34624, Note_on_c, 1, 43, 45
3, 34686, Note_on_c, 1, 43, 0
3, 34688, Note_on_c, 1, 48, 45
3, 34750, Note_on_c, 1, 48, 0
3, 34752, Note_on_c, 1, 36, 45
3, 34814, Note_on_c, 1, 36, 0
3, 34816, Note_on_c, 1, 43, 45
3, 34878, Note_on_c, 1, 43, 0
3, 34880, Note_on_c, 1, 48, 45
3, 34942, Note_on_c, 1, 48, 0
3, 34944, Note_on_c, 1, 35, 45
3, 35006, Note_on_c, 1, 35, 0
3, 35008, Note_on_c, 1, 43, 45
3, 35070, Note_on_c, 1, 43, 0
3, 35072, Note_on_c, 1, 47, 45
3, 35134, Note_on_c, 1, 47, 0
3, 35136, Note_on_c, 1, 36, 45
3, 35198, Note_on_c, 1, 36, 0
3, 35200, Note_on_c, 1, 43, 45
3, 35262, Note_on_c, 1, 43, 0
3, 35264, Note_on_c, 1, 48, 45
3, 35326, Note_on_c, 1, 48, 0
3, 35328, Note_on_c, 1, 36, 45
3, 35390, Note_on_c, 1, 36, 0
3, 35392, Note_on_c, 1, 43, 44
3, 35454, Note_on_c, 1, 43, 0
3, 35456, Note_on_c, 1, 48, 43
3, 35518, Note_on_c, 1, 48, 0
3, 35520, Note_on_c, 1, 38, 42
3, 35582, Note_on_c, 1, 38, 0
3, 35584, Note_on_c, 1, 41, 41
3, 35646, Note_on_c, 1, 41, 0
3, 35648, Note_on_c, 1, 50, 40
3, 35710, Note_on_c, 1, 50, 0
3, 35712, Note_on_c, 1, 40, 39
3, 35774, Note_on_c, 1, 40, 0
3, 35776, Note_on_c, 1, 45, 38
3, 35838, Note_on_c, 1, 45, 0
3, 35840, Note_on_c, 1, 52, 37
3, 35902, Note_on_c, 1, 52, 0
3, 35904, Note_on_c, 1, 40, 36
3, 35966, Note_on_c, 1, 40, 0
3, 35968, Note_on_c, 1, 45, 35
3, 36030, Note_on_c, 1, 45, 0
3, 36032, Note_on_c, 1, 52, 34
3, 36094, Note_on_c, 1, 52, 0
3, 36096, Note_on_c, 1, 40, 33
3, 36158, Note_on_c, 1, 40, 0
3, 36160, Note_on_c, 1, 44, 32
3, 36222, Note_on_c, 1, 44, 0
3, 36224, Note_on_c, 1, 52, 31
3, 36286, Note_on_c, 1, 52, 0
3, 36288, Note_on_c, 1, 33, 30
3, 36350, Note_on_c, 1, 33, 0
3, 36352, Note_on_c, 1, 36, 30
3, 36414, Note_on_c, 1, 36, 0
3, 36416, Note_on_c, 1, 40, 30
3, 36478, Note_on_c, 1, 40, 0
3, 36480, Note_on_c, 1, 45, 30
3, 36542, Note_on_c, 1, 45, 0
3, 36544, Note_on_c, 1, 40, 30
3, 36606, Note_on_c, 1, 40, 0
3, 36608, Note_on_c, 1, 36, 30
3, 36670, Note_on_c, 1, 36, 0
3, 36672, Note_on_c, 1, 33, 30
3, 36734, Note_on_c, 1, 33, 0
3, 36736, Note_on_c, 1, 36, 30
3, 36798, Note_on_c, 1, 36, 0
3, 36800, Note_on_c, 1, 40, 30
3, 36862, Note_on_c, 1, 40, 0
3, 36864, Note_on_c, 1, 45, 30
3, 36926, Note_on_c, 1, 45, 0
3, 36928, Note_on_c, 1, 40, 30
3, 36990, Note_on_c, 1, 40, 0
3, 36992, Note_on_c, 1, 36, 30
3, 37054, Note_on_c, 1, 36, 0
3, 37056, Note_on_c, 1, 33, 30
3, 37118, Note_on_c, 1, 33, 0
3, 37120, Note_on_c, 1, 36, 30
3, 37182, Note_on_c, 1, 36, 0
3, 37184, Note_on_c, 1, 40, 30
3, 37246, Note_on_c, 1, 40, 0
3, 37248, Note_on_c, 1, 45, 30
3, 37310, Note_on_c, 1, 45, 0
3, 37312, Note_on_c, 1, 40, 30
3, 37374, Note_on_c, 1, 40, 0
3, 37376, Note_on_c, 1, 36, 30
3, 37438, Note_on_c, 1, 36, 0
3, 37440, Note_on_c, 1, 33, 45
3, 37502, Note_on_c, 1, 33, 0
3, 37504, Note_on_c, 1, 36, 45
3, 37566, Note_on_c, 1, 36, 0
3, 37568, Note_on_c, 1, 40, 45
3, 37630, Note_on_c, 1, 40, 0
3, 37632, Note_on_c, 1, 45, 45
3, 37694, Note_on_c, 1, 45, 0
3, 37696, Note_on_c, 1, 40, 45
3, 37758, Note_on_c, 1, 40, 0
3, 37760, Note_on_c, 1, 36, 45
3, 37822, Note_on_c, 1, 36, 0
3, 37824, Note_on_c, 1, 33, 45
3, 37886, Note_on_c, 1, 33, 0
3, 37888, Note_on_c, 1, 36, 45
3, 37950, Note_on_c, 1, 36, 0
3, 37952, Note_on_c, 1, 40, 45
3, 38014, Note_on_c, 1, 40, 0
3, 38016, Note_on_c, 1, 45, 45
3, 38078, Note_on_c, 1, 45, 0
3, 38080, Note_on_c, 1, 40, 45
3, 38142, Note_on_c, 1, 40, 0
3, 38144, Note_on_c, 1, 36, 45
3, 38206, Note_on_c, 1, 36, 0
3, 38208, Note_on_c, 1, 33, 45
3, 38302, Note_on_c, 1, 33, 0
3, 38304, Note_on_c, 1, 45, 45
3, 38398, Note_on_c, 1, 45, 0
3, 38400, Note_on_c, 1, 35, 45
3, 38494, Note_on_c, 1, 35, 0
3, 38496, Note_on_c, 1, 47, 45
3, 38590, Note_on_c, 1, 47, 0
3, 38976, Note_on_c, 1, 36, 92
3, 39024, Note_on_c, 1, 36, 0
3, 39168, Note_on_c, 1, 64, 60
3, 39168, Note_on_c, 1, 67, 60
3, 39328, Note_on_c, 1, 64, 0
3, 39328, Note_on_c, 1, 67, 0
3, 39360, Note_on_c, 1, 62, 60
3, 39360, Note_on_c, 1, 65, 60
3, 39520, Note_on_c, 1, 62, 0
3, 39520, Note_on_c, 1, 65, 0
3, 39552, Note_on_c, 1, 60, 60
3, 39552, Note_on_c, 1, 64, 60
3, 39712, Note_on_c, 1, 60, 0
3, 39712, Note_on_c, 1, 64, 0
3, 39744, Note_on_c, 1, 55, 60
3, 39744, Note_on_c, 1, 59, 60
3, 39744, Note_on_c, 1, 62, 60
3, 39792, Note_on_c, 1, 55, 0
3, 39792, Note_on_c, 1, 59, 0
3, 39792, Note_on_c, 1, 62, 0
3, 39936, Note_on_c, 1, 55, 60
3, 39936, Note_on_c, 1, 59, 60
3, 39936, Note_on_c, 1, 62, 60
3, 39984, Note_on_c, 1, 55, 0
3, 39984, Note_on_c, 1, 59, 0
3, 39984, Note_on_c, 1, 62, 0
3, 40128, Note_on_c, 1, 55, 60
3, 40128, Note_on_c, 1, 59, 60
3, 40128, Note_on_c, 1, 62, 60
3, 40176, Note_on_c, 1, 55, 0
3, 40176, Note_on_c, 1, 59, 0
3, 40176, Note_on_c, 1, 62, 0
3, 40320, Note_on_c, 1, 55, 60
3, 40320, Note_on_c, 1, 59, 60
3, 40320, Note_on_c, 1, 62, 60
3, 40368, Note_on_c, 1, 55, 0
3, 40368, Note_on_c, 1, 59, 0
3, 40368, Note_on_c, 1, 62, 0
3, 41280, Note_on_c, 1, 38, 92
3, 41328, Note_on_c, 1, 38, 0
3, 41472, Note_on_c, 1, 65, 60
3, 41472, Note_on_c, 1, 69, 60
3, 41664, Note_on_c, 1, 65, 0
3, 41664, Note_on_c, 1, 69, 0
3, 41664, Note_on_c, 1, 64, 60
3, 41664, Note_on_c, 1, 67, 60
3, 41856, Note_on_c, 1, 64, 0
3, 41856, Note_on_c, 1, 67, 0
3, 41856, Note_on_c, 1, 62, 60
3, 41856, Note_on_c, 1, 65, 60
3, 42016, Note_on_c, 1, 62, 0
3, 42016, Note_on_c, 1, 65, 0
3, 42048, Note_on_c, 1, 57, 60
3, 42048, Note_on_c, 1, 61, 60
3, 42048, Note_on_c, 1, 64, 60
3, 42096, Note_on_c, 1, 57, 0
3, 42096, Note_on_c, 1, 61, 0
3, 42096, Note_on_c, 1, 64, 0
3, 42240, Note_on_c, 1, 57, 60
3, 42240, Note_on_c, 1, 61, 60
3, 42240, Note_on_c, 1, 64, 60
3, 42288, Note_on_c, 1, 57, 0
3, 42288, Note_on_c, 1, 61, 0
3, 42288, Note_on_c, 1, 64, 0
3, 42432, Note_on_c, 1, 57, 60
3, 42432, Note_on_c, 1, 61, 60
3, 42432, Note_on_c, 1, 64, 60
3, 42480, Note_on_c, 1, 57, 0
3, 42480, Note_on_c, 1, 61, 0
3, 42480, Note_on_c, 1, 64, 0
3, 42624, Note_on_c, 1, 57, 60
3, 42624, Note_on_c, 1, 61, 60
3, 42624, Note_on_c, 1, 64, 60
3, 42672, Note_on_c, 1, 57, 0
3, 42672, Note_on_c, 1, 61, 0
3, 42672, Note_on_c, 1, 64, 0
3, 43584, Note_on_c, 1, 41, 92
3, 43632, Note_on_c, 1, 41, 0
3, 43776, Note_on_c, 1, 69, 60
3, 43776, Note_on_c, 1, 72, 60
3, 43968, Note_on_c, 1, 69, 0
3, 43968, Note_on_c, 1, 72, 0
3, 43968, Note_on_c, 1, 67, 60
3, 43968, Note_on_c, 1, 70, 60
3, 44160, Note_on_c, 1, 67, 0
3, 44160, Note_on_c, 1, 70, 0
3, 44160, Note_on_c, 1, 65, 60
3, 44160, Note_on_c, 1, 69, 60
3, 44320, Note_on_c, 1, 65, 0
3, 44320, Note_on_c, 1, 69, 0
3, 44736, Note_on_c, 1, 48, 92
3, 44784, Note_on_c, 1, 48, 0
3, 44928, Note_on_c, 1, 64, 60
3, 44928, Note_on_c, 1, 67, 60
3, 45120, Note_on_c, 1, 64, 0
3, 45120, Note_on_c, 1, 67, 0
3, 45120, Note_on_c, 1, 62, 60
3, 45120, Note_on_c, 1, 65, 60
3, 45312, Note_on_c, 1, 62, 0
3, 45312, Note_on_c, 1, 65, 0
3, 45312, Note_on_c, 1, 60, 60
3, 45312, Note_on_c, 1, 64, 60
3, 45472, Note_on_c, 1, 60, 0
3, 45472, Note_on_c, 1, 64, 0
3, 45888, Note_on_c, 1, 53, 92
3, 45888, Note_on_c, 1, 57, 92
3, 45888, Note_on_c, 1, 62, 92
3, 45936, Note_on_c, 1, 53, 0
3, 45936, Note_on_c, 1, 57, 0
3, 45936, Note_on_c, 1, 62, 0
3, 46464, Note_on_c, 1, 55, 92
3, 46464, Note_on_c, 1, 59, 92
3, 46464, Note_on_c, 1, 65, 92
3, 46512, Note_on_c, 1, 55, 0
3, 46512, Note_on_c, 1, 59, 0
3, 46512, Note_on_c, 1, 65, 0
3, 47040, Note_on_c, 1, 48, 92
3, 47040, Note_on_c, 1, 55, 92
3, 47040, Note_on_c, 1, 60, 92
3, 47088, Note_on_c, 1, 48, 0
3, 47088, Note_on_c, 1, 55, 0
3, 47088, Note_on_c, 1, 60, 0
3, 47424, Note_on_c, 1, 36, 92
3, 47472, Note_on_c, 1, 36, 0
3, 47808, Note_on_c, 1, 36, 45
3, 47904, Note_on_c, 1, 36, 0
3, 47904, Note_on_c, 1, 38, 45
3, 48000, Note_on_c, 1, 38, 0
3, 48000, Note_on_c, 1, 40, 45
3, 48096, Note_on_c, 1, 40, 0
3, 48096, Note_on_c, 1, 41, 45
3, 48192, Note_on_c, 1, 41, 0
3, 48192, Note_on_c, 1, 43, 45
3, 48288, Note_on_c, 1, 43, 0
3, 48288, Note_on_c, 1, 45, 45
3, 48384, Note_on_c, 1, 45, 0
3, 48384, Note_on_c, 1, 47, 45
3, 48480, Note_on_c, 1, 47, 0
3, 48480, Note_on_c, 1, 48, 45
3, 48576, Note_on_c, 1, 48, 0
3, 48576, Note_on_c, 1, 50, 45
3, 48672, Note_on_c, 1, 50, 0
3, 48672, Note_on_c, 1, 43, 45
3, 48768, Note_on_c, 1, 43, 0
3, 48768, Note_on_c, 1, 45, 45
3, 48864, Note_on_c, 1, 45, 0
3, 48864, Note_on_c, 1, 47, 45
3, 48960, Note_on_c, 1, 47, 0
3, 48960, Note_on_c, 1, 48, 45
3, 49488, Note_on_c, 1, 48, 0
3, 49536, Note_on_c, 1, 43, 45
3, 49872, Note_on_c, 1, 43, 0
3, 49920, Note_on_c, 1, 41, 45
3, 50080, Note_on_c, 1, 41, 0
3, 50112, Note_on_c, 1, 40, 45
3, 50208, Note_on_c, 1, 40, 0
3, 50208, Note_on_c, 1, 36, 45
3, 50304, Note_on_c, 1, 36, 0
3, 50304, Note_on_c, 1, 40, 45
3, 50400, Note_on_c, 1, 40, 0
3, 50400, Note_on_c, 1, 41, 45
3, 50496, Note_on_c, 1, 41, 0
3, 50496, Note_on_c, 1, 43, 45
3, 50592, Note_on_c, 1, 43, 0
3, 50592, Note_on_c, 1, 45, 45
3, 50688, Note_on_c, 1, 45, 0
3, 50688, Note_on_c, 1, 47, 45
3, 50784, Note_on_c, 1, 47, 0
3, 50784, Note_on_c, 1, 48, 45
3, 50880, Note_on_c, 1, 48, 0
3, 50880, Note_on_c, 1, 50, 45
3, 50976, Note_on_c, 1, 50, 0
3, 50976, Note_on_c, 1, 43, 45
3, 51072, Note_on_c, 1, 43, 0
3, 51072, Note_on_c, 1, 45, 45
3, 51168, Note_on_c, 1, 45, 0
3, 51168, Note_on_c, 1, 47, 45
3, 51262, Note_on_c, 1, 47, 0
3, 51264, Note_on_c, 1, 48, 45
3, 51312, Note_on_c, 1, 48, 0
3, 51456, Note_on_c, 1, 45, 92
3, 51792, Note_on_c, 1, 45, 0
3, 51840, Note_on_c, 1, 43, 60
3, 51888, Note_on_c, 1, 43, 0
3, 52032, Note_on_c, 1, 43, 92
3, 52368, Note_on_c, 1, 43, 0
3, 52416, Note_on_c, 1, 42, 60
3, 52510, Note_on_c, 1, 42, 0
3, 52512, Note_on_c, 1, 43, 60
3, 52606, Note_on_c, 1, 43, 0
3, 52608, Note_on_c, 1, 45, 60
3, 52702, Note_on_c, 1, 45, 0
3, 52704, Note_on_c, 1, 38, 60
3, 52798, Note_on_c, 1, 38, 0
3, 52800, Note_on_c, 1, 40, 60
3, 52894, Note_on_c, 1, 40, 0
3, 52896, Note_on_c, 1, 42, 60
3, 52990, Note_on_c, 1, 42, 0
3, 52992, Note_on_c, 1, 48, 60
3, 53086, Note_on_c, 1, 48, 0
3, 53088, Note_on_c, 1, 47, 60
3, 53182, Note_on_c, 1, 47, 0
3, 53184, Note_on_c, 1, 48, 60
3, 53278, Note_on_c, 1, 48, 0
3, 53280, Note_on_c, 1, 50, 60
3, 53374, Note_on_c, 1, 50, 0
3, 53376, Note_on_c, 1, 51, 60
3, 53470, Note_on_c, 1, 51, 0
3, 53472, Note_on_c, 1, 54, 60
3, 53566, Note_on_c, 1, 54, 0
3, 53568, Note_on_c, 1, 48, 60
3, 53662, Note_on_c, 1, 48, 0
3, 53664, Note_on_c, 1, 47, 60
3, 53758, Note_on_c, 1, 47, 0
3, 53760, Note_on_c, 1, 48, 60
3, 53854, Note_on_c, 1, 48, 0
3, 53856, Note_on_c, 1, 45, 60
3, 53950, Note_on_c, 1, 45, 0
3, 53952, Note_on_c, 1, 50, 60
3, 54046, Note_on_c, 1, 50, 0
3, 54048, Note_on_c, 1, 38, 60
3, 54142, Note_on_c, 1, 38, 0
3, 54144, Note_on_c, 1, 43, 60
3, 54192, Note_on_c, 1, 43, 0
3, 54720, Note_on_c, 1, 36, 45
3, 54816, Note_on_c, 1, 36, 0
3, 54816, Note_on_c, 1, 38, 45
3, 54912, Note_on_c, 1, 38, 0
3, 54912, Note_on_c, 1, 40, 45
3, 55008, Note_on_c, 1, 40, 0
3, 55008, Note_on_c, 1, 41, 45
3, 55104, Note_on_c, 1, 41, 0
3, 55104, Note_on_c, 1, 43, 45
3, 55200, Note_on_c, 1, 43, 0
3, 55200, Note_on_c, 1, 45, 45
3, 55296, Note_on_c, 1, 45, 0
3, 55296, Note_on_c, 1, 47, 45
3, 55392, Note_on_c, 1, 47, 0
3, 55392, Note_on_c, 1, 48, 45
3, 55488, Note_on_c, 1, 48, 0
3, 55488, Note_on_c, 1, 50, 45
3, 55584, Note_on_c, 1, 50, 0
3, 55584, Note_on_c, 1, 43, 45
3, 55680, Note_on_c, 1, 43, 0
3, 55680, Note_on_c, 1, 45, 45
3, 55776, Note_on_c, 1, 45, 0
3, 55776, Note_on_c, 1, 47, 45
3, 55872, Note_on_c, 1, 47, 0
3, 55872, Note_on_c, 1, 48, 45
3, 56400, Note_on_c, 1, 48, 0
3, 56448, Note_on_c, 1, 43, 45
3, 56784, Note_on_c, 1, 43, 0
3, 56832, Note_on_c, 1, 41, 45
3, 56992, Note_on_c, 1, 41, 0
3, 57024, Note_on_c, 1, 40, 45
3, 57120, Note_on_c, 1, 40, 0
3, 57120, Note_on_c, 1, 36, 45
3, 57216, Note_on_c, 1, 36, 0
3, 57216, Note_on_c, 1, 40, 45
3, 57312, Note_on_c, 1, 40, 0
3, 57312, Note_on_c, 1, 41, 45
3, 57408, Note_on_c, 1, 41, 0
3, 57408, Note_on_c, 1, 43, 45
3, 57504, Note_on_c, 1, 43, 0
3, 57504, Note_on_c, 1, 45, 45
3, 57600, Note_on_c, 1, 45, 0
3, 57600, Note_on_c, 1, 47, 45
3, 57696, Note_on_c, 1, 47, 0
3, 57696, Note_on_c, 1, 48, 45
3, 57792, Note_on_c, 1, 48, 0
3, 57792, Note_on_c, 1, 50, 45
3, 57888, Note_on_c, 1, 50, 0
3, 57888, Note_on_c, 1, 43, 45
3, 57984, Note_on_c, 1, 43, 0
3, 57984, Note_on_c, 1, 45, 45
3, 58080, Note_on_c, 1, 45, 0
3, 58080, Note_on_c, 1, 47, 45
3, 58174, Note_on_c, 1, 47, 0
3, 58176, Note_on_c, 1, 48, 45
3, 58224, Note_on_c, 1, 48, 0
3, 58368, Note_on_c, 1, 45, 92
3, 58704, Note_on_c, 1, 45, 0
3, 58752, Note_on_c, 1, 43, 60
3, 58800, Note_on_c, 1, 43, 0
3, 58944, Note_on_c, 1, 43, 92
3, 59280, Note_on_c, 1, 43, 0
3, 59328, Note_on_c, 1, 42, 60
3, 59422, Note_on_c, 1, 42, 0
3, 59424, Note_on_c, 1, 43, 60
3, 59518, Note_on_c, 1, 43, 0
3, 59520, Note_on_c, 1, 45, 60
3, 59614, Note_on_c, 1, 45, 0
3, 59616, Note_on_c, 1, 38, 60
3, 59710, Note_on_c, 1, 38, 0
3, 59712, Note_on_c, 1, 40, 60
3, 59806, Note_on_c, 1, 40, 0
3, 59808, Note_on_c, 1, 42, 60
3, 59902, Note_on_c, 1, 42, 0
3, 59904, Note_on_c, 1, 48, 60
3, 59998, Note_on_c, 1, 48, 0
3, 60000, Note_on_c, 1, 47, 60
3, 60094, Note_on_c, 1, 47, 0
3, 60096, Note_on_c, 1, 48, 60
3, 60190, Note_on_c, 1, 48, 0
3, 60192, Note_on_c, 1, 50, 60
3, 60286, Note_on_c, 1, 50, 0
3, 60288, Note_on_c, 1, 51, 60
3, 60382, Note_on_c, 1, 51, 0
3, 60384, Note_on_c, 1, 54, 60
3, 60478, Note_on_c, 1, 54, 0
3, 60480, Note_on_c, 1, 48, 60
3, 60574, Note_on_c, 1, 48, 0
3, 60576, Note_on_c, 1, 47, 60
3, 60670, Note_on_c, 1, 47, 0
3, 60672, Note_on_c, 1, 48, 60
3, 60766, Note_on_c, 1, 48, 0
3, 60768, Note_on_c, 1, 45, 60
3, 60862, Note_on_c, 1, 45, 0
3, 60864, Note_on_c, 1, 50, 60
3, 60958, Note_on_c, 1, 50, 0
3, 60960, Note_on_c, 1, 38, 60
3, 61054, Note_on_c, 1, 38, 0
3, 61056, Note_on_c, 1, 43, 60
3, 61104, Note_on_c, 1, 43, 0
3, 61632, Note_on_c, 1, 43, 60
3, 61726, Note_on_c, 1, 43, 0
3, 61728, Note_on_c, 1, 42, 60
3, 61822, Note_on_c, 1, 42, 0
3, 61824, Note_on_c, 1, 43, 60
3, 61918, Note_on_c, 1, 43, 0
3, 61920, Note_on_c, 1, 45, 60
3, 62014, Note_on_c, 1, 45, 0
3, 62016, Note_on_c, 1, 47, 60
3, 62110, Note_on_c, 1, 47, 0
3, 62112, Note_on_c, 1, 43, 60
3, 62206, Note_on_c, 1, 43, 0
3, 62208, Note_on_c, 1, 48, 60
3, 62302, Note_on_c, 1, 48, 0
3, 62304, Note_on_c, 1, 47, 60
3, 62398, Note_on_c, 1, 47, 0
3, 62400, Note_on_c, 1, 48, 60
3, 62494, Note_on_c, 1, 48, 0
3, 62496, Note_on_c, 1, 50, 60
3, 62590, Note_on_c, 1, 50, 0
3, 62592, Note_on_c, 1, 52, 60
3, 62686, Note_on_c, 1, 52, 0
3, 62688, Note_on_c, 1, 54, 60
3, 62782, Note_on_c, 1, 54, 0
3, 62784, Note_on_c, 1, 55, 60
3, 62784, Note_on_c, 1, 55, 60
3, 63120, Note_on_c, 1, 55, 0
3, 63168, Note_on_c, 1, 53, 60
3, 63312, Note_on_c, 1, 55, 0
3, 63328, Note_on_c, 1, 53, 0
3, 63360, Note_on_c, 1, 52, 60
3, 63360, Note_on_c, 1, 55, 60
3, 63520, Note_on_c, 1, 52, 0
3, 63552, Note_on_c, 1, 50, 60
3, 63600, Note_on_c, 1, 50, 0
3, 63744, Note_on_c, 1, 48, 60
3, 63792, Note_on_c, 1, 48, 0
3, 63888, Note_on_c, 1, 55, 0
3, 63936, Note_on_c, 1, 47, 60
3, 64030, Note_on_c, 1, 47, 0
3, 64032, Note_on_c, 1, 45, 60
3, 64126, Note_on_c, 1, 45, 0
3, 64128, Note_on_c, 1, 47, 60
3, 64222, Note_on_c, 1, 47, 0
3, 64224, Note_on_c, 1, 43, 60
3, 64318, Note_on_c, 1, 43, 0
3, 64320, Note_on_c, 1, 45, 60
3, 64414, Note_on_c, 1, 45, 0
3, 64416, Note_on_c, 1, 47, 60
3, 64510, Note_on_c, 1, 47, 0
3, 64512, Note_on_c, 1, 48, 60
3, 64606, Note_on_c, 1, 48, 0
3, 64608, Note_on_c, 1, 47, 60
3, 64702, Note_on_c, 1, 47, 0
3, 64704, Note_on_c, 1, 48, 60
3, 64798, Note_on_c, 1, 48, 0
3, 64800, Note_on_c, 1, 50, 60
3, 64894, Note_on_c, 1, 50, 0
3, 64896, Note_on_c, 1, 51, 60
3, 64990, Note_on_c, 1, 51, 0
3, 64992, Note_on_c, 1, 54, 60
3, 65086, Note_on_c, 1, 54, 0
3, 65088, Note_on_c, 1, 55, 60
3, 65088, Note_on_c, 1, 55, 60
3, 65248, Note_on_c, 1, 55, 0
3, 65280, Note_on_c, 1, 53, 92
3, 65616, Note_on_c, 1, 55, 0
3, 65616, Note_on_c, 1, 53, 0
3, 65664, Note_on_c, 1, 51, 60
3, 65664, Note_on_c, 1, 55, 60
3, 65824, Note_on_c, 1, 51, 0
3, 65856, Note_on_c, 1, 50, 60
3, 65904, Note_on_c, 1, 50, 0
3, 66048, Note_on_c, 1, 48, 60
3, 66096, Note_on_c, 1, 48, 0
3, 66192, Note_on_c, 1, 55, 0
3, 66240, Note_on_c, 1, 47, 60
3, 66334, Note_on_c, 1, 47, 0
3, 66336, Note_on_c, 1, 48, 61
3, 66430, Note_on_c, 1, 48, 0
3, 66432, Note_on_c, 1, 50, 62
3, 66526, Note_on_c, 1, 50, 0
3, 66528, Note_on_c, 1, 48, 63
3, 66622, Note_on_c, 1, 48, 0
3, 66624, Note_on_c, 1, 47, 64
3, 66718, Note_on_c, 1, 47, 0
3, 66720, Note_on_c, 1, 45, 65
3, 66814, Note_on_c, 1, 45, 0
3, 66816, Note_on_c, 1, 43, 66
3, 66910, Note_on_c, 1, 43, 0
3, 66912, Note_on_c, 1, 42, 67
3, 67006, Note_on_c, 1, 42, 0
3, 67008, Note_on_c, 1, 43, 68
3, 67102, Note_on_c, 1, 43, 0
3, 67104, Note_on_c, 1, 41, 69
3, 67198, Note_on_c, 1, 41, 0
3, 67200, Note_on_c, 1, 40, 70
3, 67294, Note_on_c, 1, 40, 0
3, 67296, Note_on_c, 1, 38, 71
3, 67390, Note_on_c, 1, 38, 0
3, 67392, Note_on_c, 1, 36, 72
3, 67486, Note_on_c, 1, 36, 0
3, 67488, Note_on_c, 1, 38, 73
3, 67582, Note_on_c, 1, 38, 0
3, 67584, Note_on_c, 1, 40, 74
3, 67678, Note_on_c, 1, 40, 0
3, 67680, Note_on_c, 1, 41, 75
3, 67774, Note_on_c, 1, 41, 0
3, 67776, Note_on_c, 1, 43, 76
3, 67870, Note_on_c, 1, 43, 0
3, 67872, Note_on_c, 1, 45, 77
3, 67966, Note_on_c, 1, 45, 0
3, 67968, Note_on_c, 1, 47, 78
3, 68062, Note_on_c, 1, 47, 0
3, 68064, Note_on_c, 1, 48, 79
3, 68158, Note_on_c, 1, 48, 0
3, 68160, Note_on_c, 1, 50, 80
3, 68254, Note_on_c, 1, 50, 0
3, 68256, Note_on_c, 1, 43, 82
3, 68350, Note_on_c, 1, 43, 0
3, 68352, Note_on_c, 1, 45, 84
3, 68446, Note_on_c, 1, 45, 0
3, 68448, Note_on_c, 1, 47, 86
3, 68542, Note_on_c, 1, 47, 0
3, 68544, Note_on_c, 1, 48, 88
3, 68592, Note_on_c, 1, 48, 0
3, 68736, Note_on_c, 1, 43, 92
3, 69072, Note_on_c, 1, 43, 0
3, 69120, Note_on_c, 1, 41, 60
3, 69168, Note_on_c, 1, 41, 0
3, 69312, Note_on_c, 1, 41, 92
3, 69648, Note_on_c, 1, 41, 0
3, 69696, Note_on_c, 1, 40, 45
3, 69790, Note_on_c, 1, 40, 0
3, 69792, Note_on_c, 1, 41, 45
3, 69886, Note_on_c, 1, 41, 0
3, 69888, Note_on_c, 1, 43, 45
3, 69982, Note_on_c, 1, 43, 0
3, 69984, Note_on_c, 1, 45, 45
3, 70078, Note_on_c, 1, 45, 0
3, 70080, Note_on_c, 1, 47, 45
3, 70174, Note_on_c, 1, 47, 0
3, 70176, Note_on_c, 1, 48, 45
3, 70270, Note_on_c, 1, 48, 0
3, 70272, Note_on_c, 1, 43, 45
3, 70366, Note_on_c, 1, 43, 0
3, 70368, Note_on_c, 1, 45, 45
3, 70462, Note_on_c, 1, 45, 0
3, 70464, Note_on_c, 1, 47, 45
3, 70558, Note_on_c, 1, 47, 0
3, 70560, Note_on_c, 1, 48, 45
3, 70654, Note_on_c, 1, 48, 0
3, 70656, Note_on_c, 1, 50, 45
3, 70750, Note_on_c, 1, 50, 0
3, 70752, Note_on_c, 1, 52, 45
3, 70846, Note_on_c, 1, 52, 0
3, 70848, Note_on_c, 1, 53, 45
3, 70942, Note_on_c, 1, 53, 0
3, 70944, Note_on_c, 1, 52, 45
3, 71038, Note_on_c, 1, 52, 0
3, 71040, Note_on_c, 1, 53, 45
3, 71134, Note_on_c, 1, 53, 0
3, 71136, Note_on_c, 1, 50, 45
3, 71230, Note_on_c, 1, 50, 0
3, 71232, Note_on_c, 1, 55, 45
3, 71326, Note_on_c, 1, 55, 0
3, 71328, Note_on_c, 1, 43, 45
3, 71422, Note_on_c, 1, 43, 0
3, 71424, Note_on_c, 1, 48, 45
3, 71518, Note_on_c, 1, 48, 0
3, 71520, Note_on_c, 1, 43, 45
3, 71614, Note_on_c, 1, 43, 0
3, 71616, Note_on_c, 1, 36, 45
3, 71664, Note_on_c, 1, 36, 0
3, 72000, Note_on_c, 1, 43, 60
3, 72094, Note_on_c, 1, 43, 0
3, 72096, Note_on_c, 1, 42, 60
3, 72190, Note_on_c, 1, 42, 0
3, 72192, Note_on_c, 1, 43, 60
3, 72286, Note_on_c, 1, 43, 0
3, 72288, Note_on_c, 1, 45, 60
3, 72382, Note_on_c, 1, 45, 0
3, 72384, Note_on_c, 1, 47, 60
3, 72478, Note_on_c, 1, 47, 0
3, 72480, Note_on_c, 1, 43, 60
3, 72574, Note_on_c, 1, 43, 0
3, 72576, Note_on_c, 1, 48, 60
3, 72670, Note_on_c, 1, 48, 0
3, 72672, Note_on_c, 1, 47, 60
3, 72766, Note_on_c, 1, 47, 0
3, 72768, Note_on_c, 1, 48, 60
3, 72862, Note_on_c, 1, 48, 0
3, 72864, Note_on_c, 1, 50, 60
3, 72958, Note_on_c, 1, 50, 0
3, 72960, Note_on_c, 1, 52, 60
3, 73054, Note_on_c, 1, 52, 0
3, 73056, Note_on_c, 1, 54, 60
3, 73150, Note_on_c, 1, 54, 0
3, 73152, Note_on_c, 1, 55, 60
3, 73152, Note_on_c, 1, 55, 60
3, 73488, Note_on_c, 1, 55, 0
3, 73536, Note_on_c, 1, 53, 60
3, 73680, Note_on_c, 1, 55, 0
3, 73696, Note_on_c, 1, 53, 0
3, 73728, Note_on_c, 1, 52, 60
3, 73728, Note_on_c, 1, 55, 60
3, 73888, Note_on_c, 1, 52, 0
3, 73920, Note_on_c, 1, 50, 60
3, 73968, Note_on_c, 1, 50, 0
3, 74112, Note_on_c, 1, 48, 60
3, 74160, Note_on_c, 1, 48, 0
3, 74256, Note_on_c, 1, 55, 0
3, 74304, Note_on_c, 1, 47, 60
3, 74398, Note_on_c, 1, 47, 0
3, 74400, Note_on_c, 1, 45, 60
3, 74494, Note_on_c, 1, 45, 0
3, 74496, Note_on_c, 1, 47, 60
3, 74590, Note_on_c, 1, 47, 0
3, 74592, Note_on_c, 1, 43, 60
3, 74686, Note_on_c, 1, 43, 0
3, 74688, Note_on_c, 1, 45, 60
3, 74782, Note_on_c, 1, 45, 0
3, 74784, Note_on_c, 1, 47, 60
3, 74878, Note_on_c, 1, 47, 0
3, 74880, Note_on_c, 1, 48, 60
3, 74974, Note_on_c, 1, 48, 0
3, 74976, Note_on_c, 1, 47, 60
3, 75070, Note_on_c, 1, 47, 0
3, 75072, Note_on_c, 1, 48, 60
3, 75166, Note_on_c, 1, 48, 0
3, 75168, Note_on_c, 1, 50, 60
3, 75262, Note_on_c, 1, 50, 0
3, 75264, Note_on_c, 1, 51, 60
3, 75358, Note_on_c, 1, 51, 0
3, 75360, Note_on_c, 1, 54, 60
3, 75454, Note_on_c, 1, 54, 0
3, 75456, Note_on_c, 1, 55, 60
3, 75456, Note_on_c, 1, 55, 60
3, 75616, Note_on_c, 1, 55, 0
3, 75648, Note_on_c, 1, 53, 92
3, 75984, Note_on_c, 1, 55, 0
3, 75984, Note_on_c, 1, 53, 0
3, 76032, Note_on_c, 1, 51, 60
3, 76032, Note_on_c, 1, 55, 60
3, 76192, Note_on_c, 1, 51, 0
3, 76224, Note_on_c, 1, 50, 60
3, 76272, Note_on_c, 1, 50, 0
3, 76416, Note_on_c, 1, 48, 60
3, 76464, Note_on_c, 1, 48, 0
3, 76560, Note_on_c, 1, 55, 0
3, 76608, Note_on_c, 1, 47, 60
3, 76702, Note_on_c, 1, 47, 0
3, 76704, Note_on_c, 1, 48, 61
3, 76798, Note_on_c, 1, 48, 0
3, 76800, Note_on_c, 1, 50, 62
3, 76894, Note_on_c, 1, 50, 0
3, 76896, Note_on_c, 1, 48, 63
3, 76990, Note_on_c, 1, 48, 0
3, 76992, Note_on_c, 1, 47, 64
3, 77086, Note_on_c, 1, 47, 0
3, 77088, Note_on_c, 1, 45, 65
3, 77182, Note_on_c, 1, 45, 0
3, 77184, Note_on_c, 1, 43, 66
3, 77278, Note_on_c, 1, 43, 0
3, 77280, Note_on_c, 1, 42, 67
3, 77374, Note_on_c, 1, 42, 0
3, 77376, Note_on_c, 1, 43, 68
3, 77470, Note_on_c, 1, 43, 0
3, 77472, Note_on_c, 1, 41, 69
3, 77566, Note_on_c, 1, 41, 0
3, 77568, Note_on_c, 1, 40, 70
3, 77662, Note_on_c, 1, 40, 0
3, 77664, Note_on_c, 1, 38, 71
3, 77758, Note_on_c, 1, 38, 0
3, 77760, Note_on_c, 1, 36, 72
3, 77854, Note_on_c, 1, 36, 0
3, 77856, Note_on_c, 1, 38, 73
3, 77950, Note_on_c, 1, 38, 0
3, 77952, Note_on_c, 1, 40, 74
3, 78046, Note_on_c, 1, 40, 0
3, 78048, Note_on_c, 1, 41, 75
3, 78142, Note_on_c, 1, 41, 0
3, 78144, Note_on_c, 1, 43, 76
3, 78238, Note_on_c, 1, 43, 0
3, 78240, Note_on_c, 1, 45, 77
3, 78334, Note_on_c, 1, 45, 0
3, 78336, Note_on_c, 1, 47, 78
3, 78430, Note_on_c, 1, 47, 0
3, 78432, Note_on_c, 1, 48, 79
3, 78526, Note_on_c, 1, 48, 0
3, 78528, Note_on_c, 1, 50, 80
3, 78622, Note_on_c, 1, 50, 0
3, 78624, Note_on_c, 1, 43, 82
3, 78718, Note_on_c, 1, 43, 0
3, 78720, Note_on_c, 1, 45, 84
3, 78814, Note_on_c, 1, 45, 0
3, 78816, Note_on_c, 1, 47, 86
3, 78910, Note_on_c, 1, 47, 0
3, 78912, Note_on_c, 1, 48, 88
3, 78960, Note_on_c, 1, 48, 0
3, 79104, Note_on_c, 1, 43, 92
3, 79440, Note_on_c, 1, 43, 0
3, 79488, Note_on_c, 1, 41, 60
3, 79536, Note_on_c, 1, 41, 0
3, 79680, Note_on_c, 1, 41, 92
3, 80016, Note_on_c, 1, 41, 0
3, 80064, Note_on_c, 1, 40, 45
3, 80158, Note_on_c, 1, 40, 0
3, 80160, Note_on_c, 1, 41, 45
3, 80254, Note_on_c, 1, 41, 0
3, 80256, Note_on_c, 1, 43, 45
3, 80350, Note_on_c, 1, 43, 0
3, 80352, Note_on_c, 1, 45, 45
3, 80446, Note_on_c, 1, 45, 0
3, 80448, Note_on_c, 1, 47, 45
3, 80542, Note_on_c, 1, 47, 0
3, 80544, Note_on_c, 1, 48, 45
3, 80638, Note_on_c, 1, 48, 0
3, 80640, Note_on_c, 1, 43, 45
3, 80734, Note_on_c, 1, 43, 0
3, 80736, Note_on_c, 1, 45, 45
3, 80830, Note_on_c, 1, 45, 0
3, 80832, Note_on_c, 1, 47, 45
3, 80926, Note_on_c, 1, 47, 0
3, 80928, Note_on_c, 1, 48, 45
3, 81022, Note_on_c, 1, 48, 0
3, 81024, Note_on_c, 1, 50, 45
3, 81118, Note_on_c, 1, 50, 0
3, 81120, Note_on_c, 1, 52, 45
3, 81214, Note_on_c, 1, 52, 0
3, 81216, Note_on_c, 1, 53, 45
3, 81310, Note_on_c, 1, 53, 0
3, 81312, Note_on_c, 1, 52, 45
3, 81406, Note_on_c, 1, 52, 0
3, 81408, Note_on_c, 1, 53, 45
3, 81502, Note_on_c, 1, 53, 0
3, 81504, Note_on_c, 1, 50, 45
3, 81598, Note_on_c, 1, 50, 0
3, 81600, Note_on_c, 1, 55, 45
3, 81694, Note_on_c, 1, 55, 0
3, 81696, Note_on_c, 1, 43, 45
3, 81790, Note_on_c, 1, 43, 0
3, 81792, Note_on_c, 1, 48, 45
3, 81886, Note_on_c, 1, 48, 0
3, 81888, Note_on_c, 1, 43, 45
3, 81982, Note_on_c, 1, 43, 0
3, 81984, Note_on_c, 1, 36, 45
3, 82032, Note_on_c, 1, 36, 0
3, 82176, Note_on_c, 1, 48, 45
3, 82270, Note_on_c, 1, 48, 0
3, 82272, Note_on_c, 1, 43, 45
3, 82366, Note_on_c, 1, 43, 0
3, 82368, Note_on_c, 1, 40, 45
3, 82462, Note_on_c, 1, 40, 0
3, 82464, Note_on_c, 1, 43, 45
3, 82558, Note_on_c, 1, 43, 0
3, 82560, Note_on_c, 1, 36, 45
3, 82608, Note_on_c, 1, 36, 0
3, 83136, Note_on_c, 1, 36, 92
3, 83184, Note_on_c, 1, 36, 0
3, 83328, Note_on_c, 1, 64, 60
3, 83328, Note_on_c, 1, 67, 60
3, 83488, Note_on_c, 1, 64, 0
3, 83488, Note_on_c, 1, 67, 0
3, 83520, Note_on_c, 1, 62, 60
3, 83520, Note_on_c, 1, 65, 60
3, 83680, Note_on_c, 1, 62, 0
3, 83680, Note_on_c, 1, 65, 0
3, 83712, Note_on_c, 1, 60, 60
3, 83712, Note_on_c, 1, 64, 60
3, 83872, Note_on_c, 1, 60, 0
3, 83872, Note_on_c, 1, 64, 0
3, 83904, Note_on_c, 1, 55, 60
3, 83904, Note_on_c, 1, 59, 60
3, 83904, Note_on_c, 1, 62, 60
3, 83952, Note_on_c, 1, 55, 0
3, 83952, Note_on_c, 1, 59, 0
3, 83952, Note_on_c, 1, 62, 0
3, 84096, Note_on_c, 1, 55, 60
3, 84096, Note_on_c, 1, 59, 60
3, 84096, Note_on_c, 1, 62, 60
3, 84144, Note_on_c, 1, 55, 0
3, 84144, Note_on_c, 1, 59, 0
3, 84144, Note_on_c, 1, 62, 0
3, 84288, Note_on_c, 1, 55, 60
3, 84288, Note_on_c, 1, 59, 60
3, 84288, Note_on_c, 1, 62, 60
3, 84336, Note_on_c, 1, 55, 0
3, 84336, Note_on_c, 1, 59, 0
3, 84336, Note_on_c, 1, 62, 0
3, 84480, Note_on_c, 1, 55, 60
3, 84480, Note_on_c, 1, 59, 60
3, 84480, Note_on_c, 1, 62, 60
3, 84528, Note_on_c, 1, 55, 0
3, 84528, Note_on_c, 1, 59, 0
3, 84528, Note_on_c, 1, 62, 0
3, 85440, Note_on_c, 1, 38, 92
3, 85488, Note_on_c, 1, 38, 0
3, 85632, Note_on_c, 1, 65, 60
3, 85632, Note_on_c, 1, 69, 60
3, 85824, Note_on_c, 1, 65, 0
3, 85824, Note_on_c, 1, 69, 0
3, 85824, Note_on_c, 1, 64, 60
3, 85824, Note_on_c, 1, 67, 60
3, 86016, Note_on_c, 1, 64, 0
3, 86016, Note_on_c, 1, 67, 0
3, 86016, Note_on_c, 1, 62, 60
3, 86016, Note_on_c, 1, 65, 60
3, 86176, Note_on_c, 1, 62, 0
3, 86176, Note_on_c, 1, 65, 0
3, 86208, Note_on_c, 1, 57, 60
3, 86208, Note_on_c, 1, 61, 60
3, 86208, Note_on_c, 1, 64, 60
3, 86256, Note_on_c, 1, 57, 0
3, 86256, Note_on_c, 1, 61, 0
3, 86256, Note_on_c, 1, 64, 0
3, 86400, Note_on_c, 1, 57, 60
3, 86400, Note_on_c, 1, 61, 60
3, 86400, Note_on_c, 1, 64, 60
3, 86448, Note_on_c, 1, 57, 0
3, 86448, Note_on_c, 1, 61, 0
3, 86448, Note_on_c, 1, 64, 0
3, 86592, Note_on_c, 1, 57, 60
3, 86592, Note_on_c, 1, 61, 60
3, 86592, Note_on_c, 1, 64, 60
3, 86640, Note_on_c, 1, 57, 0
3, 86640, Note_on_c, 1, 61, 0
3, 86640, Note_on_c, 1, 64, 0
3, 86784, Note_on_c, 1, 57, 60
3, 86784, Note_on_c, 1, 61, 60
3, 86784, Note_on_c, 1, 64, 60
3, 86832, Note_on_c, 1, 57, 0
3, 86832, Note_on_c, 1, 61, 0
3, 86832, Note_on_c, 1, 64, 0
3, 87744, Note_on_c, 1, 41, 92
3, 87792, Note_on_c, 1, 41, 0
3, 87936, Note_on_c, 1, 69, 60
3, 87936, Note_on_c, 1, 72, 60
3, 88128, Note_on_c, 1, 69, 0
3, 88128, Note_on_c, 1, 72, 0
3, 88128, Note_on_c, 1, 67, 60
3, 88128, Note_on_c, 1, 70, 60
3, 88320, Note_on_c, 1, 67, 0
3, 88320, Note_on_c, 1, 70, 0
3, 88320, Note_on_c, 1, 65, 60
3, 88320, Note_on_c, 1, 69, 60
3, 88480, Note_on_c, 1, 65, 0
3, 88480, Note_on_c, 1, 69, 0
3, 88896, Note_on_c, 1, 48, 92
3, 88944, Note_on_c, 1, 48, 0
3, 89088, Note_on_c, 1, 64, 60
3, 89088, Note_on_c, 1, 67, 60
3, 89280, Note_on_c, 1, 64, 0
3, 89280, Note_on_c, 1, 67, 0
3, 89280, Note_on_c, 1, 62, 60
3, 89280, Note_on_c, 1, 65, 60
3, 89472, Note_on_c, 1, 62, 0
3, 89472, Note_on_c, 1, 65, 0
3, 89472, Note_on_c, 1, 60, 60
3, 89472, Note_on_c, 1, 64, 60
3, 89632, Note_on_c, 1, 60, 0
3, 89632, Note_on_c, 1, 64, 0
3, 90048, Note_on_c, 1, 53, 92
3, 90048, Note_on_c, 1, 57, 92
3, 90048, Note_on_c, 1, 62, 92
3, 90096, Note_on_c, 1, 53, 0
3, 90096, Note_on_c, 1, 57, 0
3, 90096, Note_on_c, 1, 62, 0
3, 90624, Note_on_c, 1, 55, 92
3, 90624, Note_on_c, 1, 59, 92
3, 90624, Note_on_c, 1, 65, 92
3, 90672, Note_on_c, 1, 55, 0
3, 90672, Note_on_c, 1, 59, 0
3, 90672, Note_on_c, 1, 65, 0
3, 91200, Note_on_c, 1, 48, 92
3, 91200, Note_on_c, 1, 55, 92
3, 91200, Note_on_c, 1, 60, 92
3, 91248, Note_on_c, 1, 48, 0
3, 91248, Note_on_c, 1, 55, 0
3, 91248, Note_on_c, 1, 60, 0
3, 91584, Note_on_c, 1, 36, 60
3, 91632, Note_on_c, 1, 36, 0
3, 92352, Note_on_c, 1, 57, 92
3, 92400, Note_on_c, 1, 57, 0
3, 92544, Note_on_c, 1, 64, 45
3, 92544, Note_on_c, 1, 67, 45
3, 92576, Note_on_c, 1, 64, 0
3, 92576, Note_on_c, 1, 67, 0
3, 92736, Note_on_c, 1, 62, 45
3, 92736, Note_on_c, 1, 65, 45
3, 92768, Note_on_c, 1, 62, 0
3, 92768, Note_on_c, 1, 65, 0
3, 92928, Note_on_c, 1, 60, 45
3, 92928, Note_on_c, 1, 64, 45
3, 92960, Note_on_c, 1, 60, 0
3, 92960, Note_on_c, 1, 64, 0
3, 93120, Note_on_c, 1, 55, 45
3, 93120, Note_on_c, 1, 59, 45
3, 93120, Note_on_c, 1, 62, 45
3, 93152, Note_on_c, 1, 55, 0
3, 93152, Note_on_c, 1, 59, 0
3, 93152, Note_on_c, 1, 62, 0
3, 93312, Note_on_c, 1, 55, 45
3, 93312, Note_on_c, 1, 59, 45
3, 93312, Note_on_c, 1, 62, 45
3, 93344, Note_on_c, 1, 55, 0
3, 93344, Note_on_c, 1, 59, 0
3, 93344, Note_on_c, 1, 62, 0
3, 93504, Note_on_c, 1, 55, 45
3, 93504, Note_on_c, 1, 59, 45
3, 93504, Note_on_c, 1, 62, 45
3, 93536, Note_on_c, 1, 55, 0
3, 93536, Note_on_c, 1, 59, 0
3, 93536, Note_on_c, 1, 62, 0
3, 93696, Note_on_c, 1, 55, 45
3, 93696, Note_on_c, 1, 59, 45
3, 93696, Note_on_c, 1, 62, 45
3, 93744, Note_on_c, 1, 55, 0
3, 93744, Note_on_c, 1, 59, 0
3, 93744, Note_on_c, 1, 62, 0
3, 94656, Note_on_c, 1, 38, 92
3, 94704, Note_on_c, 1, 38, 0
3, 94848, Note_on_c, 1, 65, 45
3, 94848, Note_on_c, 1, 69, 45
3, 94880, Note_on_c, 1, 65, 0
3, 94880, Note_on_c, 1, 69, 0
3, 95040, Note_on_c, 1, 64, 45
3, 95040, Note_on_c, 1, 67, 45
3, 95072, Note_on_c, 1, 64, 0
3, 95072, Note_on_c, 1, 67, 0
3, 95232, Note_on_c, 1, 62, 45
3, 95232, Note_on_c, 1, 65, 45
3, 95264, Note_on_c, 1, 62, 0
3, 95264, Note_on_c, 1, 65, 0
3, 95424, Note_on_c, 1, 57, 45
3, 95424, Note_on_c, 1, 61, 45
3, 95424, Note_on_c, 1, 64, 45
3, 95456, Note_on_c, 1, 57, 0
3, 95456, Note_on_c, 1, 61, 0
3, 95456, Note_on_c, 1, 64, 0
3, 95616, Note_on_c, 1, 57, 45
3, 95616, Note_on_c, 1, 61, 45
3, 95616, Note_on_c, 1, 64, 45
3, 95648, Note_on_c, 1, 57, 0
3, 95648, Note_on_c, 1, 61, 0
3, 95648, Note_on_c, 1, 64, 0
3, 95808, Note_on_c, 1, 57, 45
3, 95808, Note_on_c, 1, 61, 45
3, 95808, Note_on_c, 1, 64, 45
3, 95840, Note_on_c, 1, 57, 0
3, 95840, Note_on_c, 1, 61, 0
3, 95840, Note_on_c, 1, 64, 0
3, 96000, Note_on_c, 1, 57, 45
3, 96000, Note_on_c, 1, 61, 45
3, 96000, Note_on_c, 1, 64, 45
3, 96048, Note_on_c, 1, 57, 0
3, 96048, Note_on_c, 1, 61, 0
3, 96048, Note_on_c, 1, 64, 0
3, 96960, Note_on_c, 1, 41, 92
3, 97008, Note_on_c, 1, 41, 0
3, 97152, Note_on_c, 1, 69, 60
3, 97152, Note_on_c, 1, 72, 60
3, 97184, Note_on_c, 1, 69, 0
3, 97184, Note_on_c, 1, 72, 0
3, 97344, Note_on_c, 1, 67, 60
3, 97344, Note_on_c, 1, 70, 60
3, 97376, Note_on_c, 1, 67, 0
3, 97376, Note_on_c, 1, 70, 0
3, 97536, Note_on_c, 1, 65, 60
3, 97536, Note_on_c, 1, 69, 60
3, 97568, Note_on_c, 1, 65, 0
3, 97568, Note_on_c, 1, 69, 0
3, 98112, Note_on_c, 1, 48, 92
3, 98160, Note_on_c, 1, 48, 0
3, 98304, Note_on_c, 1, 64, 60
3, 98304, Note_on_c, 1, 67, 60
3, 98336, Note_on_c, 1, 64, 0
3, 98336, Note_on_c, 1, 67, 0
3, 98496, Note_on_c, 1, 62, 60
3, 98496, Note_on_c, 1, 65, 60
3, 98528, Note_on_c, 1, 62, 0
3, 98528, Note_on_c, 1, 65, 0
3, 98688, Note_on_c, 1, 60, 60
3, 98688, Note_on_c, 1, 64, 60
3, 98720, Note_on_c, 1, 60, 0
3, 98720, Note_on_c, 1, 64, 0
3, 99264, Note_on_c, 1, 53, 92
3, 99264, Note_on_c, 1, 57, 92
3, 99264, Note_on_c, 1, 62, 92
3, 99312, Note_on_c, 1, 53, 0
3, 99312, Note_on_c, 1, 57, 0
3, 99312, Note_on_c, 1, 62, 0
3, 99840, Note_on_c, 1, 55, 92
3, 99840, Note_on_c, 1, 59, 92
3, 99840, Note_on_c, 1, 65, 92
3, 99888, Note_on_c, 1, 55, 0
3, 99888, Note_on_c, 1, 59, 0
3, 99888, Note_on_c, 1, 65, 0
3, 100128, Note_on_c, 1, 48, 92
3, 100128, Note_on_c, 1, 55, 92
3, 100128, Note_on_c, 1, 60, 92
3, 100160, Note_on_c, 1, 48, 0
3, 100160, Note_on_c, 1, 55, 0
3, 100160, Note_on_c, 1, 60, 0
3, 100320, Note_on_c, 1, 48, 92
3, 100320, Note_on_c, 1, 55, 92
3, 100320, Note_on_c, 1, 60, 92
3, 100352, Note_on_c, 1, 48, 0
3, 100352, Note_on_c, 1, 55, 0
3, 100352, Note_on_c, 1, 60, 0
3, 100512, Note_on_c, 1, 48, 92
3, 100512, Note_on_c, 1, 55, 92
3, 100512, Note_on_c, 1, 60, 92
3, 100544, Note_on_c, 1, 48, 0
3, 100544, Note_on_c, 1, 55, 0
3, 100544, Note_on_c, 1, 60, 0
3, 100800, Note_on_c, 1, 48, 92
3, 100800, Note_on_c, 1, 55, 92
3, 100800, Note_on_c, 1, 60, 92
3, 100848, Note_on_c, 1, 48, 0
3, 100848, Note_on_c, 1, 55, 0
3, 100848, Note_on_c, 1, 60, 0
3, 101568, Note_on_c, 1, 31, 92
3, 101568, Note_on_c, 1, 43, 92
3, 101616, Note_on_c, 1, 31, 0
3, 101616, Note_on_c, 1, 43, 0
3, 101760, Note_on_c, 1, 62, 60
3, 101760, Note_on_c, 1, 65, 60
3, 101952, Note_on_c, 1, 62, 0
3, 101952, Note_on_c, 1, 65, 0
3, 101952, Note_on_c, 1, 61, 60
3, 101952, Note_on_c, 1, 64, 60
3, 102144, Note_on_c, 1, 61, 0
3, 102144, Note_on_c, 1, 64, 0
3, 102144, Note_on_c, 1, 62, 60
3, 102144, Note_on_c, 1, 65, 60
3, 102304, Note_on_c, 1, 62, 0
3, 102304, Note_on_c, 1, 65, 0
3, 102720, Note_on_c, 1, 31, 92
3, 102720, Note_on_c, 1, 43, 92
3, 102768, Note_on_c, 1, 31, 0
3, 102768, Note_on_c, 1, 43, 0
3, 102912, Note_on_c, 1, 62, 60
3, 102912, Note_on_c, 1, 65, 60
3, 103072, Note_on_c, 1, 62, 0
3, 103072, Note_on_c, 1, 65, 0
3, 103104, Note_on_c, 1, 61, 60
3, 103104, Note_on_c, 1, 64, 60
3, 103264, Note_on_c, 1, 61, 0
3, 103264, Note_on_c, 1, 64, 0
3, 103296, Note_on_c, 1, 62, 60
3, 103296, Note_on_c, 1, 65, 60
3, 103456, Note_on_c, 1, 62, 0
3, 103456, Note_on_c, 1, 65, 0
3, 103872, Note_on_c, 1, 55, 92
3, 103872, Note_on_c, 1, 62, 92
3, 103872, Note_on_c, 1, 65, 92
3, 103920, Note_on_c, 1, 55, 0
3, 103920, Note_on_c, 1, 62, 0
3, 103920, Note_on_c, 1, 65, 0
3, 104448, Note_on_c, 1, 55, 92
3, 104448, Note_on_c, 1, 62, 92
3, 104448, Note_on_c, 1, 65, 92
3, 104496, Note_on_c, 1, 55, 0
3, 104496, Note_on_c, 1, 62, 0
3, 104496, Note_on_c, 1, 65, 0
3, 105024, Note_on_c, 1, 48, 45
3, 105024, Note_on_c, 1, 55, 45
3, 105024, Note_on_c, 1, 60, 45
3, 105072, Note_on_c, 1, 48, 0
3, 105072, Note_on_c, 1, 55, 0
3, 105072, Note_on_c, 1, 60, 0
3, 105408, Note_on_c, 1, 36, 45
3, 105456, Note_on_c, 1, 36, 0
3, 106176, Note_on_c, 1, 55, 92
3, 106176, Note_on_c, 1, 62, 92
3, 106176, Note_on_c, 1, 65, 92
3, 106224, Note_on_c, 1, 55, 0
3, 106224, Note_on_c, 1, 62, 0
3, 106224, Note_on_c, 1, 65, 0
3, 106752, Note_on_c, 1, 55, 92
3, 106752, Note_on_c, 1, 62, 92
3, 106752, Note_on_c, 1, 65, 92
3, 106800, Note_on_c, 1, 55, 0
3, 106800, Note_on_c, 1, 62, 0
3, 106800, Note_on_c, 1, 65, 0
3, 107328, Note_on_c, 1, 48, 45
3, 107328, Note_on_c, 1, 55, 45
3, 107328, Note_on_c, 1, 60, 45
3, 107376, Note_on_c, 1, 48, 0
3, 107376, Note_on_c, 1, 55, 0
3, 107376, Note_on_c, 1, 60, 0
3, 107712, Note_on_c, 1, 36, 45
3, 107760, Note_on_c, 1, 36, 0
3, 108480, Note_on_c, 1, 55, 92
3, 108480, Note_on_c, 1, 62, 92
3, 108480, Note_on_c, 1, 65, 92
3, 108528, Note_on_c, 1, 55, 0
3, 108528, Note_on_c, 1, 62, 0
3, 108528, Note_on_c, 1, 65, 0
3, 109056, Note_on_c, 1, 55, 92
3, 109056, Note_on_c, 1, 59, 92
3, 109056, Note_on_c, 1, 62, 92
3, 109056, Note_on_c, 1, 65, 92
3, 109104, Note_on_c, 1, 55, 0
3, 109104, Note_on_c, 1, 59, 0
3, 109104, Note_on_c, 1, 62, 0
3, 109104, Note_on_c, 1, 65, 0
3, 109632, Note_on_c, 1, 48, 45
3, 109632, Note_on_c, 1, 55, 45
3, 109632, Note_on_c, 1, 60, 45
3, 109680, Note_on_c, 1, 48, 0
3, 109680, Note_on_c, 1, 55, 0
3, 109680, Note_on_c, 1, 60, 0
3, 110016, Note_on_c, 1, 36, 45
3, 110064, Note_on_c, 1, 36, 0
3, 110784, Note_on_c, 1, 48, 52
3, 110784, Note_on_c, 1, 55, 52
3, 110784, Note_on_c, 1, 60, 52
3, 110832, Note_on_c, 1, 48, 0
3, 110832, Note_on_c, 1, 55, 0
3, 110832, Note_on_c, 1, 60, 0
3, 111168, Note_on_c, 1, 36, 60
3, 111216, Note_on_c, 1, 36, 0
3, 111936, Note_on_c, 1, 48, 76
3, 111936, Note_on_c, 1, 52, 76
3, 111936, Note_on_c, 1, 55, 76
3, 111936, Note_on_c, 1, 60, 76
3, 111984, Note_on_c, 1, 48, 0
3, 111984, Note_on_c, 1, 52, 0
3, 111984, Note_on_c, 1, 55, 0
3, 111984, Note_on_c, 1, 60, 0
3, 112512, Note_on_c, 1, 48, 88
3, 112512, Note_on_c, 1, 52, 88
3, 112512, Note_on_c, 1, 55, 88
3, 112512, Note_on_c, 1, 60, 88
3, 112560, Note_on_c, 1, 48, 0
3, 112560, Note_on_c, 1, 52, 0
3, 112560, Note_on_c, 1, 55, 0
3, 112560, Note_on_c, 1, 60, 0
3, 112896, Note_on_c, 1, 36, 92
3, 112944, Note_on_c, 1, 36, 0
3, 113280, Note_on_c, 1, 36, 92
3, 113328, Note_on_c, 1, 36, 0
3, 113664, Note_on_c, 1, 36, 92
3, 113712, Note_on_c, 1, 36, 0
3, 114048, Note_on_c, 1, 36, 92
3, 114096, Note_on_c, 1, 36, 0
3, 114432, Note_on_c, 1, 36, 92
3, 114480, Note_on_c, 1, 36, 0
3, 114816, Note_on_c, 1, 36, 92
3, 114864, Note_on_c, 1, 36, 0
3, 115392, Note_on_c, 1, 36, 92
3, 115440, Note_on_c, 1, 36, 0
3, 115968, Note_on_c, 1, 36, 92
3, 116016, Note_on_c, 1, 36, 0
3, 116352, Note_on_c, 1, 36, 92
3, 116400, Note_on_c, 1, 36, 0
3, 116400, End_track
0, 0, End_of_file