0, 0, Header, 1, 5, 480
1, 0, Start_track
1, 0, Title_t, "Untitled"
1, 0, Time_signature, 4, 2, 24, 8
1, 0, Key_signature, 0, "major"
1, 0, Tempo, 600000
1, 0, Marker_t, "Beethoven"
1, 495, Tempo, 526315
1, 1920, Tempo, 689655
1, 1920, Marker_t, "2 preludes "
1, 1980, Tempo, 674157
1, 3780, Tempo, 689655
1, 3840, Marker_t, "Bunji Hisamori"
1, 3900, Tempo, 674157
1, 5700, Tempo, 689655
1, 5760, Marker_t, "Oct. 1998"
1, 5820, Tempo, 674157
1, 7620, Tempo, 689655
1, 7680, Marker_t, "July 1999,  Rev.1"
1, 7740, Tempo, 674157
1, 9540, Tempo, 689655
1, 9660, Tempo, 674157
1, 11460, Tempo, 689655
1, 11580, Tempo, 674157
1, 13380, Tempo, 689655
1, 13500, Tempo, 674157
1, 15300, Tempo, 689655
1, 15420, Tempo, 674157
1, 17220, Tempo, 705882
1, 17505, Tempo, 674157
1, 19140, Tempo, 689655
1, 19260, Tempo, 674157
1, 21060, Tempo, 689655
1, 21180, Tempo, 674157
1, 22980, Tempo, 689655
1, 23100, Tempo, 674157
1, 24900, Tempo, 689655
1, 25020, Tempo, 674157
1, 26820, Tempo, 689655
1, 26940, Tempo, 674157
1, 28740, Tempo, 689655
1, 28860, Tempo, 674157
1, 30660, Tempo, 689655
1, 30780, Tempo, 674157
1, 32580, Tempo, 689655
1, 32700, Tempo, 674157
1, 34500, Tempo, 689655
1, 34620, Tempo, 674157
1, 36420, Tempo, 705882
1, 36720, Tempo, 674157
1, 38340, Tempo, 689655
1, 38460, Tempo, 674157
1, 40260, Tempo, 689655
1, 40380, Tempo, 674157
1, 42180, Tempo, 689655
1, 42300, Tempo, 674157
1, 44100, Tempo, 689655
1, 44220, Tempo, 674157
1, 46020, Tempo, 689655
1, 46140, Tempo, 674157
1, 47940, Tempo, 689655
1, 48060, Tempo, 674157
1, 49860, Tempo, 689655
1, 49980, Tempo, 674157
1, 51780, Tempo, 689655
1, 51900, Tempo, 674157
1, 53700, Tempo, 705882
1, 53985, Tempo, 674157
1, 55620, Tempo, 705882
1, 55935, Tempo, 674157
1, 57540, Tempo, 689655
1, 57660, Tempo, 674157
1, 59460, Tempo, 705882
1, 59745, Tempo, 674157
1, 61380, Tempo, 689655
1, 61500, Tempo, 674157
1, 63300, Tempo, 689655
1, 63420, Tempo, 674157
1, 65220, Tempo, 705882
1, 65520, Tempo, 674157
1, 67140, Tempo, 689655
1, 67260, Tempo, 674157
1, 69060, Tempo, 705882
1, 69390, Tempo, 674157
1, 70980, Tempo, 689655
1, 71100, Tempo, 674157
1, 72900, Tempo, 705882
1, 73185, Tempo, 674157
1, 74820, Tempo, 689655
1, 74940, Tempo, 674157
1, 76740, Tempo, 689655
1, 76860, Tempo, 674157
1, 78660, Tempo, 689655
1, 78780, Tempo, 674157
1, 80580, Tempo, 705882
1, 80880, Tempo, 674157
1, 82500, Tempo, 689655
1, 82620, Tempo, 674157
1, 84420, Tempo, 689655
1, 84540, Tempo, 674157
1, 86340, Tempo, 689655
1, 86460, Tempo, 674157
1, 88260, Tempo, 689655
1, 88380, Tempo, 674157
1, 90180, Tempo, 689655
1, 90300, Tempo, 674157
1, 92100, Tempo, 689655
1, 92220, Tempo, 674157
1, 94020, Tempo, 689655
1, 94140, Tempo, 674157
1, 95940, Tempo, 689655
1, 96060, Tempo, 674157
1, 97860, Tempo, 689655
1, 97980, Tempo, 674157
1, 99780, Tempo, 689655
1, 99900, Tempo, 674157
1, 101700, Tempo, 689655
1, 101820, Tempo, 674157
1, 103620, Tempo, 689655
1, 103740, Tempo, 674157
1, 105540, Tempo, 689655
1, 105660, Tempo, 674157
1, 107460, Tempo, 689655
1, 107580, Tempo, 674157
1, 109380, Tempo, 689655
1, 109500, Tempo, 674157
1, 111220, Tempo, 705882
1, 111570, Tempo, 674157
1, 113220, Tempo, 689655
1, 113340, Tempo, 674157
1, 115140, Tempo, 689655
1, 115260, Tempo, 674157
1, 117060, Tempo, 689655
1, 117180, Tempo, 674157
1, 118980, Tempo, 689655
1, 119100, Tempo, 674157
1, 120900, Tempo, 689655
1, 121020, Tempo, 674157
1, 122820, Tempo, 689655
1, 122940, Tempo, 674157
1, 124740, Tempo, 689655
1, 124860, Tempo, 674157
1, 126660, Tempo, 689655
1, 126780, Tempo, 674157
1, 128580, Tempo, 689655
1, 128700, Tempo, 674157
1, 130500, Tempo, 705882
1, 130815, Tempo, 674157
1, 132420, Tempo, 689655
1, 132540, Tempo, 674157
1, 134340, Tempo, 689655
1, 134460, Tempo, 674157
1, 136260, Tempo, 689655
1, 136380, Tempo, 674157
1, 138180, Tempo, 689655
1, 138300, Tempo, 674157
1, 140100, Tempo, 689655
1, 140220, Tempo, 674157
1, 142020, Tempo, 705882
1, 142230, Tempo, 674157
1, 143940, Tempo, 689655
1, 144060, Tempo, 674157
1, 145860, Tempo, 689655
1, 145980, Tempo, 674157
1, 147780, Tempo, 689655
1, 147900, Tempo, 674157
1, 149700, Tempo, 689655
1, 149820, Tempo, 674157
1, 151620, Tempo, 689655
1, 151740, Tempo, 674157
1, 153540, Tempo, 689655
1, 153660, Tempo, 674157
1, 155460, Tempo, 689655
1, 155580, Tempo, 674157
1, 157380, Tempo, 689655
1, 157500, Tempo, 674157
1, 159300, Tempo, 689655
1, 159420, Tempo, 674157
1, 161220, Tempo, 705882
1, 161520, Tempo, 674157
1, 163140, Tempo, 689655
1, 163260, Tempo, 674157
1, 165060, Tempo, 689655
1, 165180, Tempo, 674157
1, 166980, Tempo, 689655
1, 167100, Tempo, 674157
1, 168900, Tempo, 689655
1, 169020, Tempo, 674157
1, 170820, Tempo, 689655
1, 170940, Tempo, 674157
1, 172740, Tempo, 705882
1, 173025, Tempo, 674157
1, 174660, Tempo, 689655
1, 174780, Tempo, 674157
1, 176580, Tempo, 689655
1, 176700, Tempo, 674157
1, 178500, Tempo, 689655
1, 178620, Tempo, 674157
1, 180420, Tempo, 689655
1, 180540, Tempo, 674157
1, 182340, Tempo, 689655
1, 182460, Tempo, 674157
1, 184260, Tempo, 689655
1, 184380, Tempo, 674157
1, 186180, Tempo, 689655
1, 186300, Tempo, 674157
1, 188100, Tempo, 689655
1, 188220, Tempo, 674157
1, 190020, Tempo, 689655
1, 190140, Tempo, 674157
1, 191940, Tempo, 689655
1, 192060, Tempo, 674157
1, 193860, Tempo, 689655
1, 193980, Tempo, 674157
1, 195720, Tempo, 689655
1, 195960, Tempo, 638297
1, 196200, Tempo, 652173
1, 196800, Tempo, 705882
1, 197760, Tempo, 659340
1, 197880, Tempo, 652173
1, 198140, Tempo, 659340
1, 198240, Tempo, 689655
1, 198495, Tempo, 240000
1, 202110, Tempo, 689655
1, 202800, Tempo, 722891
1, 203040, Tempo, 750000
1, 203520, Tempo, 789473
1, 203980, Tempo, 674157
1, 205320, Tempo, 689655
1, 205560, Tempo, 674157
1, 207240, Tempo, 689655
1, 207480, Tempo, 674157
1, 209160, Tempo, 689655
1, 209400, Tempo, 674157
1, 211080, Tempo, 689655
1, 211320, Tempo, 674157
1, 213000, Tempo, 689655
1, 213240, Tempo, 674157
1, 214920, Tempo, 689655
1, 215160, Tempo, 674157
1, 216840, Tempo, 689655
1, 217080, Tempo, 674157
1, 218655, Tempo, 689655
1, 219000, Tempo, 674157
1, 220590, Tempo, 689655
1, 220920, Tempo, 674157
1, 222600, Tempo, 689655
1, 222840, Tempo, 674157
1, 223560, Tempo, 689655
1, 224235, Tempo, 689655
1, 224400, Tempo, 769230
1, 224640, Tempo, 652173
1, 224760, Tempo, 638297
1, 225040, Tempo, 652173
1, 225120, Tempo, 689655
1, 225600, Tempo, 1666666
1, 226440, Tempo, 689655
1, 226680, Tempo, 674157
1, 228360, Tempo, 689655
1, 230280, Tempo, 689655
1, 230520, Tempo, 674157
1, 232200, Tempo, 689655
1, 232440, Tempo, 674157
1, 234120, Tempo, 689655
1, 235440, Tempo, 705882
1, 235665, Tempo, 845070
1, 236280, Tempo, 1333333
1, 238080, Tempo, 689655
1, 240000, Tempo, 705882
1, 241920, Tempo, 705882
1, 242040, Tempo, 689655
1, 242520, Tempo, 705882
1, 242640, Tempo, 731707
1, 243840, Tempo, 1666666
1, 245760, Tempo, 869565
1, 245760, Marker_t, "2"
1, 246000, Tempo, 895522
1, 246225, Tempo, 845070
1, 247560, Tempo, 869565
1, 247920, Tempo, 845070
1, 249480, Tempo, 869565
1, 249840, Tempo, 895522
1, 250080, Tempo, 845070
1, 251400, Tempo, 869565
1, 251760, Tempo, 845070
1, 253320, Tempo, 869565
1, 253680, Tempo, 895522
1, 253920, Tempo, 845070
1, 255135, Tempo, 869565
1, 255360, Tempo, 895522
1, 255825, Tempo, 845070
1, 257160, Tempo, 869565
1, 257520, Tempo, 845070
1, 258975, Tempo, 869565
1, 259440, Tempo, 895522
1, 259650, Tempo, 845070
1, 261000, Tempo, 869565
1, 261360, Tempo, 845070
1, 262920, Tempo, 869565
1, 263040, Tempo, 895522
1, 263535, Tempo, 845070
1, 264840, Tempo, 869565
1, 264960, Tempo, 895522
1, 265440, Tempo, 845070
1, 266625, Tempo, 869565
1, 266880, Tempo, 895522
1, 267360, Tempo, 845070
1, 268680, Tempo, 869565
1, 269280, Tempo, 845070
1, 270600, Tempo, 869565
1, 270840, Tempo, 845070
1, 272520, Tempo, 869565
1, 272760, Tempo, 845070
1, 274440, Tempo, 869565
1, 274680, Tempo, 845070
1, 276360, Tempo, 869565
1, 276480, Tempo, 895522
1, 276960, Tempo, 845070
1, 278280, Tempo, 869565
1, 278640, Tempo, 845070
1, 280200, Tempo, 869565
1, 280560, Tempo, 895522
1, 280785, Tempo, 845070
1, 282120, Tempo, 869565
1, 282240, Tempo, 895522
1, 282735, Tempo, 845070
1, 284040, Tempo, 869565
1, 284655, Tempo, 845070
1, 285960, Tempo, 869565
1, 286320, Tempo, 895522
1, 286575, Tempo, 845070
1, 287880, Tempo, 869565
1, 288510, Tempo, 845070
1, 289800, Tempo, 869565
1, 290160, Tempo, 845070
1, 291720, Tempo, 869565
1, 292320, Tempo, 845070
1, 293640, Tempo, 869565
1, 294000, Tempo, 845070
1, 295560, Tempo, 869565
1, 296160, Tempo, 845070
1, 297375, Tempo, 869565
1, 297600, Tempo, 895522
1, 298095, Tempo, 845070
1, 299400, Tempo, 869565
1, 299760, Tempo, 895522
1, 300000, Tempo, 845070
1, 301320, Tempo, 869565
1, 301680, Tempo, 895522
1, 301935, Tempo, 845070
1, 303240, Tempo, 869565
1, 303600, Tempo, 895522
1, 303840, Tempo, 845070
1, 305160, Tempo, 869565
1, 305520, Tempo, 869565
1, 305760, Tempo, 845070
1, 307080, Tempo, 869565
1, 307200, Tempo, 895522
1, 307680, Tempo, 845070
1, 308895, Tempo, 869565
1, 309120, Tempo, 895522
1, 309600, Tempo, 845070
1, 310920, Tempo, 869565
1, 311265, Tempo, 845070
1, 312840, Tempo, 869565
1, 313215, Tempo, 845070
1, 314760, Tempo, 869565
1, 315135, Tempo, 845070
1, 316545, Tempo, 869565
1, 316800, Tempo, 895522
1, 317295, Tempo, 845070
1, 318600, Tempo, 869565
1, 318975, Tempo, 845070
1, 320520, Tempo, 869565
1, 320895, Tempo, 845070
1, 322440, Tempo, 869565
1, 323040, Tempo, 845070
1, 324255, Tempo, 869565
1, 324720, Tempo, 895522
1, 324975, Tempo, 845070
1, 326280, Tempo, 869565
1, 326625, Tempo, 845070
1, 328110, Tempo, 869565
1, 328560, Tempo, 895522
1, 328815, Tempo, 845070
1, 330120, Tempo, 869565
1, 330495, Tempo, 845070
1, 331920, Tempo, 869565
1, 332160, Tempo, 895522
1, 332670, Tempo, 845070
1, 333960, Tempo, 869565
1, 334335, Tempo, 845070
1, 335880, Tempo, 869565
1, 336510, Tempo, 845070
1, 337800, Tempo, 869565
1, 338145, Tempo, 845070
1, 339720, Tempo, 869565
1, 340335, Tempo, 845070
1, 341640, Tempo, 869565
1, 341760, Tempo, 895522
1, 342225, Tempo, 845070
1, 343455, Tempo, 869565
1, 343680, Tempo, 895522
1, 344145, Tempo, 845070
1, 345480, Tempo, 869565
1, 345600, Tempo, 895522
1, 346080, Tempo, 845070
1, 347400, Tempo, 869565
1, 348030, Tempo, 845070
1, 349320, Tempo, 869565
1, 349440, Tempo, 895522
1, 349905, Tempo, 845070
1, 351240, Tempo, 869565
1, 351360, Tempo, 895522
1, 351825, Tempo, 845070
1, 353160, Tempo, 869565
1, 353280, Tempo, 895522
1, 353760, Tempo, 845070
1, 355080, Tempo, 869565
1, 355200, Tempo, 895522
1, 355470, Tempo, 845070
1, 357000, Tempo, 869565
1, 357120, Tempo, 895522
1, 357585, Tempo, 845070
1, 358920, Tempo, 869565
1, 359040, Tempo, 895522
1, 359535, Tempo, 845070
1, 360840, Tempo, 869565
1, 360960, Tempo, 895522
1, 361440, Tempo, 845070
1, 362760, Tempo, 869565
1, 362880, Tempo, 895522
1, 364440, Tempo, 895522
1, 364560, Tempo, 1111111
1, 364800, Tempo, 1500000
1, 366720, Tempo, 845070
1, 368520, Tempo, 869565
1, 368895, Tempo, 845070
1, 370440, Tempo, 869565
1, 370815, Tempo, 845070
1, 372360, Tempo, 869565
1, 372735, Tempo, 845070
1, 374280, Tempo, 869565
1, 374520, Tempo, 845070
1, 376200, Tempo, 869565
1, 376440, Tempo, 845070
1, 377760, Tempo, 895522
1, 379695, Tempo, 923076
1, 380160, Tempo, 923076
1, 380655, Tempo, 845070
1, 381960, Tempo, 869565
1, 382575, Tempo, 845070
1, 383880, Tempo, 869565
1, 384480, Tempo, 845070
1, 385410, Tempo, 869565
1, 385920, Tempo, 923076
1, 387840, Tempo, 952380
1, 388815, Tempo, 1276595
1, 389760, Tempo, 2727272
1, 390730, Tempo, 600000
1, 390730, End_track
2, 0, Start_track
2, 0, Title_t, "Unnamed Track"
2, 0, Control_c, 1, 0, 0
2, 0, Control_c, 1, 32, 0
2, 0, Program_c, 1, 0
2, 0, Control_c, 1, 7, 127
2, 0, Pitch_bend_c, 1, 8192
2, 0, Control_c, 1, 1, 0
2, 0, Control_c, 1, 64, 0
2, 0, Control_c, 1, 93, 28
2, 0, Control_c, 1, 91, 100
2, 0, Control_c, 1, 10, 73
2, 1920, Note_on_c, 1, 60, 42
2, 2160, Note_off_c, 1, 60, 0
2, 2400, Note_on_c, 1, 64, 47
2, 3360, Note_off_c, 1, 64, 0
2, 3360, Note_on_c, 1, 65, 42
2, 3480, Note_off_c, 1, 65, 0
2, 3480, Note_on_c, 1, 64, 43
2, 3600, Note_off_c, 1, 64, 0
2, 3600, Note_on_c, 1, 62, 43
2, 3720, Note_off_c, 1, 62, 0
2, 3720, Note_on_c, 1, 60, 43
2, 3840, Note_off_c, 1, 60, 0
2, 3840, Note_on_c, 1, 67, 43
2, 4800, Note_off_c, 1, 67, 0
2, 4800, Note_on_c, 1, 65, 43
2, 6120, Note_off_c, 1, 65, 0
2, 6240, Note_on_c, 1, 64, 44
2, 6720, Note_off_c, 1, 64, 0
2, 6720, Note_on_c, 1, 65, 44
2, 7200, Note_off_c, 1, 65, 0
2, 7200, Note_on_c, 1, 66, 45
2, 7680, Note_off_c, 1, 66, 0
2, 7680, Note_on_c, 1, 67, 45
2, 9120, Note_off_c, 1, 67, 0
2, 9120, Note_on_c, 1, 67, 46
2, 10080, Note_off_c, 1, 67, 0
2, 10080, Note_on_c, 1, 65, 46
2, 11040, Note_off_c, 1, 65, 0
2, 11040, Note_on_c, 1, 67, 47
2, 11280, Note_off_c, 1, 67, 0
2, 11280, Note_on_c, 1, 65, 47
2, 11520, Note_off_c, 1, 65, 0
2, 11520, Note_on_c, 1, 64, 47
2, 11880, Note_off_c, 1, 64, 0
2, 12000, Note_on_c, 1, 57, 47
2, 12480, Note_off_c, 1, 57, 0
2, 12480, Note_on_c, 1, 58, 48
2, 12960, Note_off_c, 1, 58, 0
2, 12960, Note_on_c, 1, 59, 48
2, 13440, Note_off_c, 1, 59, 0
2, 13440, Note_on_c, 1, 60, 48
2, 13800, Note_off_c, 1, 60, 0
2, 13920, Note_on_c, 1, 59, 48
2, 14400, Note_off_c, 1, 59, 0
2, 14400, Note_on_c, 1, 60, 49
2, 14880, Note_off_c, 1, 60, 0
2, 14880, Note_on_c, 1, 61, 49
2, 15360, Note_off_c, 1, 61, 0
2, 15360, Note_on_c, 1, 62, 49
2, 15720, Note_off_c, 1, 62, 0
2, 15840, Note_on_c, 1, 61, 49
2, 16800, Note_off_c, 1, 61, 0
2, 16800, Note_on_c, 1, 62, 47
2, 17040, Note_off_c, 1, 62, 0
2, 17040, Note_on_c, 1, 60, 47
2, 17280, Note_off_c, 1, 60, 0
2, 17280, Note_on_c, 1, 59, 46
2, 17640, Note_off_c, 1, 59, 0
2, 21120, Note_on_c, 1, 67, 49
2, 21360, Note_off_c, 1, 67, 0
2, 21600, Note_on_c, 1, 71, 55
2, 22560, Note_off_c, 1, 71, 0
2, 22560, Note_on_c, 1, 72, 51
2, 22680, Note_off_c, 1, 72, 0
2, 22680, Note_on_c, 1, 71, 51
2, 22800, Note_off_c, 1, 71, 0
2, 22800, Note_on_c, 1, 69, 51
2, 22920, Note_off_c, 1, 69, 0
2, 22920, Note_on_c, 1, 67, 51
2, 23040, Note_off_c, 1, 67, 0
2, 23040, Note_on_c, 1, 69, 51
2, 23280, Note_off_c, 1, 69, 0
2, 23520, Note_on_c, 1, 72, 57
2, 24480, Note_off_c, 1, 72, 0
2, 24480, Note_on_c, 1, 74, 53
2, 24600, Note_off_c, 1, 74, 0
2, 24600, Note_on_c, 1, 72, 53
2, 24720, Note_off_c, 1, 72, 0
2, 24720, Note_on_c, 1, 71, 53
2, 24840, Note_off_c, 1, 71, 0
2, 24840, Note_on_c, 1, 69, 53
2, 24960, Note_off_c, 1, 69, 0
2, 24960, Note_on_c, 1, 71, 53
2, 25680, Note_off_c, 1, 71, 0
2, 25680, Note_on_c, 1, 75, 54
2, 25920, Note_off_c, 1, 75, 0
2, 25920, Note_on_c, 1, 76, 54
2, 27600, Note_off_c, 1, 76, 0
2, 27600, Note_on_c, 1, 73, 56
2, 27840, Note_off_c, 1, 73, 0
2, 27840, Note_on_c, 1, 74, 56
2, 29520, Note_off_c, 1, 74, 0
2, 29520, Note_on_c, 1, 78, 58
2, 29760, Note_off_c, 1, 78, 0
2, 29760, Note_on_c, 1, 79, 58
2, 31440, Note_off_c, 1, 79, 0
2, 31440, Note_on_c, 1, 80, 58
2, 31680, Note_off_c, 1, 80, 0
2, 31680, Note_on_c, 1, 81, 58
2, 32160, Note_off_c, 1, 81, 0
2, 32640, Note_on_c, 1, 76, 57
2, 33360, Note_off_c, 1, 76, 0
2, 33360, Note_on_c, 1, 77, 56
2, 33600, Note_off_c, 1, 77, 0
2, 33600, Note_on_c, 1, 78, 56
2, 34080, Note_off_c, 1, 78, 0
2, 34560, Note_on_c, 1, 73, 55
2, 35280, Note_off_c, 1, 73, 0
2, 35280, Note_on_c, 1, 75, 54
2, 35520, Note_off_c, 1, 75, 0
2, 35520, Note_on_c, 1, 76, 53
2, 36240, Note_off_c, 1, 76, 0
2, 36240, Note_on_c, 1, 73, 52
2, 36480, Note_off_c, 1, 73, 0
2, 36480, Note_on_c, 1, 74, 52
2, 36840, Note_off_c, 1, 74, 0
2, 36960, Note_on_c, 1, 66, 56
2, 37920, Note_off_c, 1, 66, 0
2, 37920, Note_on_c, 1, 67, 50
2, 38040, Note_off_c, 1, 67, 0
2, 38040, Note_on_c, 1, 66, 50
2, 38160, Note_off_c, 1, 66, 0
2, 38160, Note_on_c, 1, 64, 50
2, 38280, Note_off_c, 1, 64, 0
2, 38280, Note_on_c, 1, 62, 50
2, 38400, Note_off_c, 1, 62, 0
2, 38400, Note_on_c, 1, 69, 50
2, 39360, Note_off_c, 1, 69, 0
2, 39360, Note_on_c, 1, 67, 52
2, 40560, Note_off_c, 1, 67, 0
2, 40800, Note_on_c, 1, 66, 54
2, 41280, Note_off_c, 1, 66, 0
2, 41280, Note_on_c, 1, 67, 54
2, 41760, Note_off_c, 1, 67, 0
2, 41760, Note_on_c, 1, 68, 55
2, 42240, Note_off_c, 1, 68, 0
2, 42240, Note_on_c, 1, 69, 55
2, 42600, Note_off_c, 1, 69, 0
2, 42720, Note_on_c, 1, 68, 56
2, 43200, Note_off_c, 1, 68, 0
2, 43200, Note_on_c, 1, 69, 57
2, 43680, Note_off_c, 1, 69, 0
2, 43680, Note_on_c, 1, 70, 57
2, 44160, Note_off_c, 1, 70, 0
2, 44160, Note_on_c, 1, 71, 58
2, 44520, Note_off_c, 1, 71, 0
2, 44640, Note_on_c, 1, 71, 63
2, 45600, Note_off_c, 1, 71, 0
2, 45600, Note_on_c, 1, 73, 60
2, 45720, Note_off_c, 1, 73, 0
2, 45720, Note_on_c, 1, 71, 60
2, 45840, Note_off_c, 1, 71, 0
2, 45840, Note_on_c, 1, 69, 60
2, 45960, Note_off_c, 1, 69, 0
2, 45960, Note_on_c, 1, 68, 60
2, 46080, Note_off_c, 1, 68, 0
2, 46080, Note_on_c, 1, 69, 60
2, 46320, Note_off_c, 1, 69, 0
2, 46560, Note_on_c, 1, 74, 66
2, 47520, Note_off_c, 1, 74, 0
2, 47520, Note_on_c, 1, 76, 62
2, 47640, Note_off_c, 1, 76, 0
2, 47640, Note_on_c, 1, 74, 62
2, 47760, Note_off_c, 1, 74, 0
2, 47760, Note_on_c, 1, 73, 62
2, 47880, Note_off_c, 1, 73, 0
2, 47880, Note_on_c, 1, 71, 63
2, 48000, Note_off_c, 1, 71, 0
2, 48000, Note_on_c, 1, 73, 63
2, 48360, Note_off_c, 1, 73, 0
2, 48480, Note_on_c, 1, 78, 63
2, 48960, Note_off_c, 1, 78, 0
2, 48960, Note_on_c, 1, 79, 64
2, 49440, Note_off_c, 1, 79, 0
2, 49440, Note_on_c, 1, 80, 65
2, 49920, Note_off_c, 1, 80, 0
2, 49920, Note_on_c, 1, 81, 65
2, 50280, Note_off_c, 1, 81, 0
2, 50400, Note_on_c, 1, 74, 70
2, 51360, Note_off_c, 1, 74, 0
2, 51360, Note_on_c, 1, 76, 64
2, 51480, Note_off_c, 1, 76, 0
2, 51480, Note_on_c, 1, 74, 64
2, 51600, Note_off_c, 1, 74, 0
2, 51600, Note_on_c, 1, 73, 64
2, 51720, Note_off_c, 1, 73, 0
2, 51720, Note_on_c, 1, 71, 64
2, 51840, Note_off_c, 1, 71, 0
2, 51840, Note_on_c, 1, 73, 64
2, 52200, Note_off_c, 1, 73, 0
2, 52320, Note_on_c, 1, 73, 63
2, 52440, Note_off_c, 1, 73, 0
2, 52440, Note_on_c, 1, 71, 63
2, 52560, Note_off_c, 1, 71, 0
2, 52560, Note_on_c, 1, 69, 63
2, 52680, Note_off_c, 1, 69, 0
2, 52680, Note_on_c, 1, 68, 63
2, 52800, Note_off_c, 1, 68, 0
2, 52800, Note_on_c, 1, 69, 63
2, 53160, Note_off_c, 1, 69, 0
2, 53280, Note_on_c, 1, 71, 63
2, 53760, Note_off_c, 1, 71, 0
2, 53760, Note_on_c, 1, 64, 62
2, 54000, Note_off_c, 1, 64, 0
2, 54240, Note_on_c, 1, 61, 67
2, 55200, Note_off_c, 1, 61, 0
2, 55200, Note_on_c, 1, 62, 61
2, 55320, Note_off_c, 1, 62, 0
2, 55320, Note_on_c, 1, 61, 61
2, 55440, Note_off_c, 1, 61, 0
2, 55440, Note_on_c, 1, 59, 61
2, 55560, Note_off_c, 1, 59, 0
2, 55560, Note_on_c, 1, 57, 61
2, 55680, Note_off_c, 1, 57, 0
2, 55680, Note_on_c, 1, 64, 61
2, 55920, Note_off_c, 1, 64, 0
2, 56160, Note_on_c, 1, 68, 65
2, 57120, Note_off_c, 1, 68, 0
2, 57120, Note_on_c, 1, 69, 60
2, 57240, Note_off_c, 1, 69, 0
2, 57240, Note_on_c, 1, 68, 59
2, 57360, Note_off_c, 1, 68, 0
2, 57360, Note_on_c, 1, 66, 59
2, 57480, Note_off_c, 1, 66, 0
2, 57480, Note_on_c, 1, 64, 59
2, 57600, Note_off_c, 1, 64, 0
2, 57600, Note_on_c, 1, 69, 59
2, 58200, Note_off_c, 1, 69, 0
2, 58200, Note_on_c, 1, 68, 59
2, 58320, Note_off_c, 1, 68, 0
2, 58320, Note_on_c, 1, 66, 59
2, 58440, Note_off_c, 1, 66, 0
2, 58440, Note_on_c, 1, 64, 58
2, 58560, Note_off_c, 1, 64, 0
2, 58560, Note_on_c, 1, 63, 58
2, 59160, Note_off_c, 1, 63, 0
2, 59160, Note_on_c, 1, 61, 58
2, 59280, Note_off_c, 1, 61, 0
2, 59280, Note_on_c, 1, 59, 58
2, 59400, Note_off_c, 1, 59, 0
2, 59400, Note_on_c, 1, 57, 58
2, 59520, Note_off_c, 1, 57, 0
2, 59520, Note_on_c, 1, 56, 58
2, 59712, Note_off_c, 1, 56, 0
2, 59760, Note_on_c, 1, 64, 58
2, 60000, Note_off_c, 1, 64, 0
2, 60000, Note_on_c, 1, 63, 58
2, 60240, Note_off_c, 1, 63, 0
2, 60240, Note_on_c, 1, 61, 58
2, 60480, Note_off_c, 1, 61, 0
2, 60480, Note_on_c, 1, 59, 59
2, 60720, Note_off_c, 1, 59, 0
2, 60720, Note_on_c, 1, 58, 59
2, 60960, Note_off_c, 1, 58, 0
2, 60960, Note_on_c, 1, 59, 60
2, 61080, Note_off_c, 1, 59, 0
2, 61080, Note_on_c, 1, 61, 60
2, 61200, Note_off_c, 1, 61, 0
2, 61200, Note_on_c, 1, 63, 60
2, 61320, Note_off_c, 1, 63, 0
2, 61320, Note_on_c, 1, 64, 60
2, 61440, Note_off_c, 1, 64, 0
2, 61440, Note_on_c, 1, 66, 60
2, 61632, Note_off_c, 1, 66, 0
2, 61680, Note_on_c, 1, 68, 61
2, 61920, Note_off_c, 1, 68, 0
2, 61920, Note_on_c, 1, 66, 61
2, 62160, Note_off_c, 1, 66, 0
2, 62160, Note_on_c, 1, 64, 61
2, 62400, Note_off_c, 1, 64, 0
2, 62400, Note_on_c, 1, 63, 62
2, 62640, Note_off_c, 1, 63, 0
2, 62640, Note_on_c, 1, 61, 62
2, 62880, Note_off_c, 1, 61, 0
2, 62880, Note_on_c, 1, 63, 62
2, 63000, Note_off_c, 1, 63, 0
2, 63000, Note_on_c, 1, 65, 63
2, 63120, Note_off_c, 1, 65, 0
2, 63120, Note_on_c, 1, 66, 63
2, 63240, Note_off_c, 1, 66, 0
2, 63240, Note_on_c, 1, 68, 63
2, 63360, Note_off_c, 1, 68, 0
2, 63360, Note_on_c, 1, 69, 63
2, 63552, Note_off_c, 1, 69, 0
2, 63600, Note_on_c, 1, 73, 63
2, 63840, Note_off_c, 1, 73, 0
2, 63840, Note_on_c, 1, 71, 64
2, 64080, Note_off_c, 1, 71, 0
2, 64080, Note_on_c, 1, 69, 64
2, 64320, Note_off_c, 1, 69, 0
2, 64320, Note_on_c, 1, 68, 64
2, 64560, Note_off_c, 1, 68, 0
2, 64560, Note_on_c, 1, 66, 65
2, 64800, Note_off_c, 1, 66, 0
2, 64800, Note_on_c, 1, 68, 65
2, 64920, Note_off_c, 1, 68, 0
2, 64920, Note_on_c, 1, 70, 65
2, 65040, Note_off_c, 1, 70, 0
2, 65040, Note_on_c, 1, 71, 65
2, 65160, Note_off_c, 1, 71, 0
2, 65160, Note_on_c, 1, 73, 66
2, 65280, Note_off_c, 1, 73, 0
2, 65280, Note_on_c, 1, 75, 66
2, 65520, Note_off_c, 1, 75, 0
2, 65760, Note_on_c, 1, 63, 72
2, 66720, Note_off_c, 1, 63, 0
2, 66720, Note_on_c, 1, 64, 68
2, 66840, Note_off_c, 1, 64, 0
2, 66840, Note_on_c, 1, 63, 68
2, 66960, Note_off_c, 1, 63, 0
2, 66960, Note_on_c, 1, 61, 68
2, 67080, Note_off_c, 1, 61, 0
2, 67080, Note_on_c, 1, 59, 68
2, 67200, Note_off_c, 1, 59, 0
2, 67200, Note_on_c, 1, 64, 69
2, 67440, Note_off_c, 1, 64, 0
2, 67680, Note_on_c, 1, 66, 74
2, 68640, Note_off_c, 1, 66, 0
2, 68640, Note_on_c, 1, 68, 71
2, 69120, Note_off_c, 1, 68, 0
2, 69120, Note_on_c, 1, 61, 71
2, 69360, Note_off_c, 1, 61, 0
2, 69600, Note_on_c, 1, 70, 77
2, 70560, Note_off_c, 1, 70, 0
2, 70560, Note_on_c, 1, 71, 74
2, 70680, Note_off_c, 1, 71, 0
2, 70680, Note_on_c, 1, 70, 74
2, 70800, Note_off_c, 1, 70, 0
2, 70800, Note_on_c, 1, 68, 74
2, 70920, Note_off_c, 1, 68, 0
2, 70920, Note_on_c, 1, 66, 74
2, 71040, Note_off_c, 1, 66, 0
2, 71040, Note_on_c, 1, 71, 74
2, 71280, Note_off_c, 1, 71, 0
2, 71520, Note_on_c, 1, 73, 80
2, 72480, Note_off_c, 1, 73, 0
2, 72480, Note_on_c, 1, 75, 76
2, 72960, Note_off_c, 1, 75, 0
2, 72960, Note_on_c, 1, 68, 77
2, 73320, Note_off_c, 1, 68, 0
2, 73440, Note_on_c, 1, 77, 78
2, 73920, Note_off_c, 1, 77, 0
2, 73920, Note_on_c, 1, 78, 78
2, 74400, Note_off_c, 1, 78, 0
2, 74400, Note_on_c, 1, 82, 79
2, 75240, Note_off_c, 1, 82, 0
2, 75360, Note_on_c, 1, 80, 82
2, 76320, Note_off_c, 1, 80, 0
2, 76320, Note_on_c, 1, 78, 73
2, 76800, Note_off_c, 1, 78, 0
2, 76800, Note_on_c, 1, 77, 71
2, 77167, Note_off_c, 1, 77, 0
2, 77280, Note_on_c, 1, 71, 69
2, 77760, Note_off_c, 1, 71, 0
2, 77760, Note_on_c, 1, 70, 67
2, 78127, Note_off_c, 1, 70, 0
2, 78240, Note_on_c, 1, 69, 65
2, 78720, Note_off_c, 1, 69, 0
2, 78720, Note_on_c, 1, 68, 63
2, 79080, Note_off_c, 1, 68, 0
2, 79200, Note_on_c, 1, 65, 61
2, 79680, Note_off_c, 1, 65, 0
2, 79680, Note_on_c, 1, 66, 59
2, 80160, Note_off_c, 1, 66, 0
2, 80160, Note_on_c, 1, 63, 57
2, 80640, Note_off_c, 1, 63, 0
2, 80640, Note_on_c, 1, 65, 55
2, 80880, Note_off_c, 1, 65, 0
2, 81120, Note_on_c, 1, 65, 60
2, 82080, Note_off_c, 1, 65, 0
2, 82080, Note_on_c, 1, 66, 57
2, 82200, Note_off_c, 1, 66, 0
2, 82200, Note_on_c, 1, 65, 57
2, 82320, Note_off_c, 1, 65, 0
2, 82320, Note_on_c, 1, 63, 57
2, 82440, Note_off_c, 1, 63, 0
2, 82440, Note_on_c, 1, 61, 57
2, 82560, Note_off_c, 1, 61, 0
2, 82560, Note_on_c, 1, 63, 57
2, 83040, Note_off_c, 1, 63, 0
2, 83040, Note_on_c, 1, 65, 58
2, 83280, Note_off_c, 1, 65, 0
2, 83280, Note_on_c, 1, 66, 59
2, 83520, Note_off_c, 1, 66, 0
2, 83520, Note_on_c, 1, 68, 59
2, 84000, Note_off_c, 1, 68, 0
2, 84000, Note_on_c, 1, 66, 60
2, 84480, Note_off_c, 1, 66, 0
2, 84480, Note_on_c, 1, 65, 60
2, 85440, Note_off_c, 1, 65, 0
2, 85440, Note_on_c, 1, 66, 62
2, 86400, Note_off_c, 1, 66, 0
2, 86400, Note_on_c, 1, 68, 64
2, 86880, Note_off_c, 1, 68, 0
2, 86880, Note_on_c, 1, 70, 64
2, 87120, Note_off_c, 1, 70, 0
2, 87120, Note_on_c, 1, 71, 65
2, 87360, Note_off_c, 1, 71, 0
2, 87360, Note_on_c, 1, 73, 65
2, 87840, Note_off_c, 1, 73, 0
2, 87840, Note_on_c, 1, 71, 66
2, 88320, Note_off_c, 1, 71, 0
2, 88320, Note_on_c, 1, 70, 67
2, 89280, Note_off_c, 1, 70, 0
2, 89280, Note_on_c, 1, 72, 68
2, 90240, Note_off_c, 1, 72, 0
2, 90240, Note_on_c, 1, 73, 70
2, 90720, Note_off_c, 1, 73, 0
2, 90720, Note_on_c, 1, 75, 71
2, 90960, Note_off_c, 1, 75, 0
2, 90960, Note_on_c, 1, 76, 71
2, 91200, Note_off_c, 1, 76, 0
2, 91200, Note_on_c, 1, 78, 70
2, 92640, Note_off_c, 1, 78, 0
2, 92640, Note_on_c, 1, 76, 66
2, 92880, Note_off_c, 1, 76, 0
2, 92880, Note_on_c, 1, 75, 66
2, 93120, Note_off_c, 1, 75, 0
2, 93120, Note_on_c, 1, 73, 65
2, 94560, Note_off_c, 1, 73, 0
2, 94560, Note_on_c, 1, 72, 61
2, 94800, Note_off_c, 1, 72, 0
2, 94800, Note_on_c, 1, 70, 60
2, 95040, Note_off_c, 1, 70, 0
2, 95040, Note_on_c, 1, 68, 60
2, 95520, Note_off_c, 1, 68, 0
2, 95520, Note_on_c, 1, 66, 59
2, 96480, Note_off_c, 1, 66, 0
2, 96480, Note_on_c, 1, 64, 56
2, 97440, Note_off_c, 1, 64, 0
2, 97440, Note_on_c, 1, 62, 57
2, 97920, Note_on_c, 1, 69, 57
2, 98400, Note_off_c, 1, 69, 0
2, 98400, Note_off_c, 1, 62, 0
2, 98400, Note_on_c, 1, 71, 57
2, 98640, Note_off_c, 1, 71, 0
2, 98640, Note_on_c, 1, 73, 58
2, 98880, Note_off_c, 1, 73, 0
2, 98880, Note_on_c, 1, 74, 58
2, 100320, Note_off_c, 1, 74, 0
2, 100320, Note_on_c, 1, 73, 59
2, 100560, Note_off_c, 1, 73, 0
2, 100560, Note_on_c, 1, 71, 59
2, 100800, Note_off_c, 1, 71, 0
2, 100800, Note_on_c, 1, 69, 60
2, 101280, Note_off_c, 1, 69, 0
2, 101280, Note_on_c, 1, 67, 60
2, 101760, Note_off_c, 1, 67, 0
2, 101760, Note_on_c, 1, 66, 60
2, 103200, Note_off_c, 1, 66, 0
2, 103200, Note_on_c, 1, 67, 62
2, 104160, Note_off_c, 1, 67, 0
2, 104160, Note_on_c, 1, 66, 62
2, 104400, Note_off_c, 1, 66, 0
2, 104400, Note_on_c, 1, 64, 63
2, 104640, Note_off_c, 1, 64, 0
2, 104640, Note_on_c, 1, 62, 63
2, 105120, Note_off_c, 1, 62, 0
2, 105120, Note_on_c, 1, 60, 63
2, 105600, Note_off_c, 1, 60, 0
2, 105600, Note_on_c, 1, 59, 64
2, 106560, Note_off_c, 1, 59, 0
2, 106560, Note_on_c, 1, 60, 64
2, 107040, Note_on_c, 1, 62, 65
2, 107280, Note_off_c, 1, 62, 0
2, 107280, Note_off_c, 1, 60, 0
2, 107280, Note_on_c, 1, 63, 65
2, 107520, Note_off_c, 1, 63, 0
2, 107520, Note_on_c, 1, 65, 65
2, 108000, Note_on_c, 1, 67, 63
2, 108007, Note_off_c, 1, 65, 0
2, 108240, Note_off_c, 1, 67, 0
2, 108240, Note_on_c, 1, 69, 62
2, 108480, Note_off_c, 1, 69, 0
2, 108480, Note_on_c, 1, 70, 65
2, 109920, Note_off_c, 1, 70, 0
2, 109920, Note_on_c, 1, 72, 58
2, 110160, Note_off_c, 1, 72, 0
2, 110160, Note_on_c, 1, 73, 57
2, 110400, Note_off_c, 1, 73, 0
2, 110400, Note_on_c, 1, 75, 56
2, 111360, Note_off_c, 1, 75, 0
2, 111360, Note_on_c, 1, 77, 52
2, 111600, Note_off_c, 1, 77, 0
2, 111840, Note_on_c, 1, 65, 55
2, 112800, Note_off_c, 1, 65, 0
2, 112800, Note_on_c, 1, 66, 51
2, 112920, Note_off_c, 1, 66, 0
2, 112920, Note_on_c, 1, 65, 50
2, 113040, Note_off_c, 1, 65, 0
2, 113040, Note_on_c, 1, 63, 50
2, 113160, Note_off_c, 1, 63, 0
2, 113160, Note_on_c, 1, 61, 50
2, 113280, Note_off_c, 1, 61, 0
2, 113280, Note_on_c, 1, 66, 50
2, 113520, Note_off_c, 1, 66, 0
2, 113760, Note_on_c, 1, 68, 55
2, 114720, Note_off_c, 1, 68, 0
2, 114720, Note_on_c, 1, 70, 51
2, 115200, Note_off_c, 1, 70, 0
2, 115200, Note_on_c, 1, 63, 52
2, 116160, Note_off_c, 1, 63, 0
2, 117600, Note_on_c, 1, 63, 59
2, 118560, Note_off_c, 1, 63, 0
2, 118560, Note_on_c, 1, 65, 54
2, 119040, Note_off_c, 1, 65, 0
2, 119040, Note_on_c, 1, 58, 55
2, 119520, Note_off_c, 1, 58, 0
2, 119520, Note_on_c, 1, 60, 55
2, 119760, Note_off_c, 1, 60, 0
2, 119760, Note_on_c, 1, 62, 56
2, 120000, Note_off_c, 1, 62, 0
2, 120000, Note_on_c, 1, 63, 56
2, 121440, Note_off_c, 1, 63, 0
2, 121440, Note_on_c, 1, 65, 57
2, 121680, Note_off_c, 1, 65, 0
2, 121680, Note_on_c, 1, 63, 57
2, 121920, Note_off_c, 1, 63, 0
2, 121920, Note_on_c, 1, 61, 57
2, 123360, Note_off_c, 1, 61, 0
2, 123360, Note_on_c, 1, 61, 59
2, 123600, Note_off_c, 1, 61, 0
2, 123600, Note_on_c, 1, 59, 59
2, 123840, Note_off_c, 1, 59, 0
2, 123840, Note_on_c, 1, 58, 59
2, 124320, Note_off_c, 1, 58, 0
2, 124320, Note_on_c, 1, 63, 60
2, 125280, Note_off_c, 1, 63, 0
2, 125280, Note_on_c, 1, 65, 60
2, 125520, Note_off_c, 1, 65, 0
2, 125520, Note_on_c, 1, 67, 61
2, 125760, Note_off_c, 1, 67, 0
2, 125760, Note_on_c, 1, 68, 61
2, 126240, Note_off_c, 1, 68, 0
2, 126240, Note_on_c, 1, 70, 61
2, 126720, Note_off_c, 1, 70, 0
2, 126720, Note_on_c, 1, 67, 65
2, 127080, Note_off_c, 1, 67, 0
2, 127200, Note_on_c, 1, 61, 63
2, 127680, Note_off_c, 1, 61, 0
2, 127680, Note_on_c, 1, 60, 62
2, 128160, Note_off_c, 1, 60, 0
2, 128160, Note_on_c, 1, 65, 61
2, 128640, Note_off_c, 1, 65, 0
2, 128640, Note_on_c, 1, 58, 59
2, 129007, Note_off_c, 1, 58, 0
2, 129120, Note_on_c, 1, 63, 58
2, 129600, Note_off_c, 1, 63, 0
2, 129600, Note_on_c, 1, 62, 57
2, 130080, Note_off_c, 1, 62, 0
2, 130080, Note_on_c, 1, 61, 55
2, 130560, Note_off_c, 1, 61, 0
2, 130560, Note_on_c, 1, 60, 54
2, 130920, Note_off_c, 1, 60, 0
2, 134400, Note_on_c, 1, 68, 64
2, 134640, Note_off_c, 1, 68, 0
2, 134880, Note_on_c, 1, 72, 70
2, 135840, Note_off_c, 1, 72, 0
2, 135840, Note_on_c, 1, 73, 67
2, 135960, Note_off_c, 1, 73, 0
2, 135960, Note_on_c, 1, 72, 67
2, 136080, Note_off_c, 1, 72, 0
2, 136080, Note_on_c, 1, 70, 67
2, 136200, Note_off_c, 1, 70, 0
2, 136200, Note_on_c, 1, 68, 67
2, 136320, Note_off_c, 1, 68, 0
2, 136320, Note_on_c, 1, 70, 68
2, 136560, Note_off_c, 1, 70, 0
2, 136800, Note_on_c, 1, 73, 73
2, 137760, Note_off_c, 1, 73, 0
2, 137760, Note_on_c, 1, 75, 70
2, 137880, Note_off_c, 1, 75, 0
2, 137880, Note_on_c, 1, 73, 71
2, 138000, Note_off_c, 1, 73, 0
2, 138000, Note_on_c, 1, 72, 71
2, 138120, Note_off_c, 1, 72, 0
2, 138120, Note_on_c, 1, 70, 71
2, 138240, Note_off_c, 1, 70, 0
2, 138240, Note_on_c, 1, 72, 71
2, 138840, Note_off_c, 1, 72, 0
2, 138840, Note_on_c, 1, 70, 71
2, 138960, Note_off_c, 1, 70, 0
2, 138960, Note_on_c, 1, 68, 71
2, 139080, Note_off_c, 1, 68, 0
2, 139080, Note_on_c, 1, 67, 71
2, 139200, Note_off_c, 1, 67, 0
2, 139200, Note_on_c, 1, 68, 70
2, 139800, Note_off_c, 1, 68, 0
2, 139800, Note_on_c, 1, 67, 70
2, 139920, Note_off_c, 1, 67, 0
2, 139920, Note_on_c, 1, 65, 70
2, 140040, Note_off_c, 1, 65, 0
2, 140040, Note_on_c, 1, 64, 70
2, 140160, Note_off_c, 1, 64, 0
2, 140160, Note_on_c, 1, 65, 69
2, 140520, Note_off_c, 1, 65, 0
2, 140640, Note_on_c, 1, 65, 69
2, 141240, Note_off_c, 1, 65, 0
2, 141240, Note_on_c, 1, 63, 68
2, 141360, Note_off_c, 1, 63, 0
2, 141360, Note_on_c, 1, 62, 68
2, 141480, Note_off_c, 1, 62, 0
2, 141480, Note_on_c, 1, 60, 68
2, 141600, Note_off_c, 1, 60, 0
2, 141720, Note_on_c, 1, 65, 68
2, 141840, Note_off_c, 1, 65, 0
2, 141840, Note_on_c, 1, 67, 68
2, 141960, Note_off_c, 1, 67, 0
2, 141960, Note_on_c, 1, 68, 68
2, 142080, Note_off_c, 1, 68, 0
2, 142080, Note_on_c, 1, 70, 67
2, 142200, Note_off_c, 1, 70, 0
2, 142200, Note_on_c, 1, 68, 67
2, 142320, Note_off_c, 1, 68, 0
2, 142320, Note_on_c, 1, 67, 67
2, 142440, Note_off_c, 1, 67, 0
2, 142440, Note_on_c, 1, 65, 67
2, 142560, Note_off_c, 1, 65, 0
2, 142560, Note_on_c, 1, 67, 67
2, 142680, Note_off_c, 1, 67, 0
2, 142680, Note_on_c, 1, 65, 67
2, 142800, Note_off_c, 1, 65, 0
2, 142800, Note_on_c, 1, 63, 67
2, 142920, Note_off_c, 1, 63, 0
2, 142920, Note_on_c, 1, 62, 67
2, 143040, Note_off_c, 1, 62, 0
2, 143040, Note_on_c, 1, 63, 66
2, 143160, Note_off_c, 1, 63, 0
2, 143160, Note_on_c, 1, 62, 66
2, 143280, Note_off_c, 1, 62, 0
2, 143280, Note_on_c, 1, 60, 66
2, 143400, Note_off_c, 1, 60, 0
2, 143400, Note_on_c, 1, 58, 66
2, 143520, Note_off_c, 1, 58, 0
2, 144000, Note_on_c, 1, 80, 66
2, 144120, Note_off_c, 1, 80, 0
2, 144120, Note_on_c, 1, 79, 65
2, 144240, Note_off_c, 1, 79, 0
2, 144240, Note_on_c, 1, 77, 65
2, 144360, Note_off_c, 1, 77, 0
2, 144360, Note_on_c, 1, 76, 65
2, 144480, Note_off_c, 1, 76, 0
2, 144480, Note_on_c, 1, 77, 65
2, 144600, Note_off_c, 1, 77, 0
2, 144600, Note_on_c, 1, 75, 65
2, 144720, Note_off_c, 1, 75, 0
2, 144720, Note_on_c, 1, 74, 65
2, 144840, Note_off_c, 1, 74, 0
2, 144840, Note_on_c, 1, 73, 65
2, 144960, Note_off_c, 1, 73, 0
2, 144960, Note_on_c, 1, 74, 65
2, 145080, Note_off_c, 1, 74, 0
2, 145080, Note_on_c, 1, 72, 64
2, 145200, Note_off_c, 1, 72, 0
2, 145200, Note_on_c, 1, 70, 64
2, 145320, Note_off_c, 1, 70, 0
2, 145320, Note_on_c, 1, 68, 64
2, 145440, Note_off_c, 1, 68, 0
2, 145920, Note_on_c, 1, 82, 64
2, 146040, Note_off_c, 1, 82, 0
2, 146040, Note_on_c, 1, 80, 63
2, 146160, Note_off_c, 1, 80, 0
2, 146160, Note_on_c, 1, 79, 63
2, 146280, Note_off_c, 1, 79, 0
2, 146280, Note_on_c, 1, 77, 63
2, 146400, Note_off_c, 1, 77, 0
2, 146400, Note_on_c, 1, 79, 63
2, 146520, Note_off_c, 1, 79, 0
2, 146520, Note_on_c, 1, 77, 63
2, 146640, Note_off_c, 1, 77, 0
2, 146640, Note_on_c, 1, 75, 63
2, 146760, Note_off_c, 1, 75, 0
2, 146760, Note_on_c, 1, 74, 63
2, 146880, Note_off_c, 1, 74, 0
2, 146880, Note_on_c, 1, 75, 63
2, 147000, Note_off_c, 1, 75, 0
2, 147000, Note_on_c, 1, 74, 62
2, 147120, Note_off_c, 1, 74, 0
2, 147120, Note_on_c, 1, 72, 62
2, 147240, Note_off_c, 1, 72, 0
2, 147240, Note_on_c, 1, 70, 62
2, 147360, Note_off_c, 1, 70, 0
2, 147840, Note_on_c, 1, 72, 62
2, 147960, Note_off_c, 1, 72, 0
2, 147960, Note_on_c, 1, 70, 61
2, 148080, Note_off_c, 1, 70, 0
2, 148080, Note_on_c, 1, 68, 61
2, 148200, Note_off_c, 1, 68, 0
2, 148200, Note_on_c, 1, 67, 61
2, 148320, Note_off_c, 1, 67, 0
2, 148320, Note_on_c, 1, 65, 61
2, 148440, Note_off_c, 1, 65, 0
2, 148440, Note_on_c, 1, 63, 61
2, 148560, Note_off_c, 1, 63, 0
2, 148560, Note_on_c, 1, 62, 61
2, 148680, Note_off_c, 1, 62, 0
2, 148680, Note_on_c, 1, 61, 61
2, 148800, Note_off_c, 1, 61, 0
2, 148800, Note_on_c, 1, 62, 61
2, 148920, Note_off_c, 1, 62, 0
2, 148920, Note_on_c, 1, 66, 60
2, 149040, Note_off_c, 1, 66, 0
2, 149040, Note_on_c, 1, 67, 60
2, 149160, Note_off_c, 1, 67, 0
2, 149160, Note_on_c, 1, 68, 60
2, 149280, Note_off_c, 1, 68, 0
2, 149280, Note_on_c, 1, 67, 60
2, 149400, Note_off_c, 1, 67, 0
2, 149400, Note_on_c, 1, 65, 60
2, 149520, Note_off_c, 1, 65, 0
2, 149520, Note_on_c, 1, 63, 60
2, 149640, Note_off_c, 1, 63, 0
2, 149640, Note_on_c, 1, 62, 60
2, 149760, Note_off_c, 1, 62, 0
2, 149760, Note_on_c, 1, 60, 58
2, 150000, Note_off_c, 1, 60, 0
2, 150240, Note_on_c, 1, 63, 64
2, 151200, Note_off_c, 1, 63, 0
2, 151200, Note_on_c, 1, 65, 62
2, 151320, Note_off_c, 1, 65, 0
2, 151320, Note_on_c, 1, 63, 62
2, 151440, Note_off_c, 1, 63, 0
2, 151440, Note_on_c, 1, 62, 63
2, 151560, Note_off_c, 1, 62, 0
2, 151560, Note_on_c, 1, 60, 63
2, 151680, Note_off_c, 1, 60, 0
2, 151680, Note_on_c, 1, 62, 63
2, 151920, Note_off_c, 1, 62, 0
2, 152160, Note_on_c, 1, 62, 70
2, 153120, Note_off_c, 1, 62, 0
2, 153120, Note_on_c, 1, 67, 67
2, 153240, Note_off_c, 1, 67, 0
2, 153240, Note_on_c, 1, 65, 68
2, 153360, Note_off_c, 1, 65, 0
2, 153360, Note_on_c, 1, 63, 68
2, 153480, Note_off_c, 1, 63, 0
2, 153480, Note_on_c, 1, 62, 68
2, 153600, Note_off_c, 1, 62, 0
2, 153600, Note_on_c, 1, 63, 69
2, 153840, Note_off_c, 1, 63, 0
2, 154080, Note_on_c, 1, 67, 75
2, 155040, Note_off_c, 1, 67, 0
2, 155040, Note_on_c, 1, 68, 73
2, 155160, Note_off_c, 1, 68, 0
2, 155160, Note_on_c, 1, 67, 71
2, 155280, Note_off_c, 1, 67, 0
2, 155280, Note_on_c, 1, 65, 71
2, 155400, Note_off_c, 1, 65, 0
2, 155400, Note_on_c, 1, 63, 71
2, 155520, Note_off_c, 1, 63, 0
2, 155520, Note_on_c, 1, 65, 71
2, 155760, Note_off_c, 1, 65, 0
2, 156000, Note_on_c, 1, 77, 70
2, 156120, Note_off_c, 1, 77, 0
2, 156120, Note_on_c, 1, 75, 70
2, 156240, Note_off_c, 1, 75, 0
2, 156240, Note_on_c, 1, 74, 69
2, 156360, Note_off_c, 1, 74, 0
2, 156360, Note_on_c, 1, 73, 69
2, 156480, Note_off_c, 1, 73, 0
2, 156480, Note_on_c, 1, 74, 69
2, 156720, Note_off_c, 1, 74, 0
2, 156960, Note_on_c, 1, 67, 68
2, 157080, Note_on_c, 1, 65, 68
2, 157200, Note_off_c, 1, 65, 0
2, 157200, Note_on_c, 1, 63, 68
2, 157320, Note_off_c, 1, 63, 0
2, 157320, Note_on_c, 1, 62, 67
2, 157440, Note_off_c, 1, 62, 0
2, 157440, Note_on_c, 1, 63, 67
2, 157680, Note_off_c, 1, 63, 0
2, 157680, Note_off_c, 1, 67, 0
2, 157920, Note_on_c, 1, 75, 66
2, 158040, Note_off_c, 1, 75, 0
2, 158040, Note_on_c, 1, 74, 66
2, 158160, Note_off_c, 1, 74, 0
2, 158160, Note_on_c, 1, 72, 66
2, 158280, Note_off_c, 1, 72, 0
2, 158280, Note_on_c, 1, 71, 66
2, 158400, Note_off_c, 1, 71, 0
2, 158400, Note_on_c, 1, 72, 65
2, 158640, Note_off_c, 1, 72, 0
2, 158880, Note_on_c, 1, 72, 64
2, 159000, Note_off_c, 1, 72, 0
2, 159000, Note_on_c, 1, 70, 64
2, 159120, Note_off_c, 1, 70, 0
2, 159120, Note_on_c, 1, 68, 64
2, 159240, Note_off_c, 1, 68, 0
2, 159240, Note_on_c, 1, 67, 64
2, 159360, Note_off_c, 1, 67, 0
2, 159360, Note_on_c, 1, 68, 63
2, 159600, Note_off_c, 1, 68, 0
2, 159840, Note_on_c, 1, 68, 63
2, 159960, Note_off_c, 1, 68, 0
2, 159960, Note_on_c, 1, 67, 62
2, 160080, Note_off_c, 1, 67, 0
2, 160080, Note_on_c, 1, 65, 62
2, 160200, Note_off_c, 1, 65, 0
2, 160200, Note_on_c, 1, 64, 62
2, 160320, Note_off_c, 1, 64, 0
2, 160320, Note_on_c, 1, 65, 62
2, 160560, Note_off_c, 1, 65, 0
2, 160800, Note_on_c, 1, 77, 61
2, 160920, Note_off_c, 1, 77, 0
2, 160920, Note_on_c, 1, 75, 60
2, 161040, Note_off_c, 1, 75, 0
2, 161040, Note_on_c, 1, 74, 60
2, 161160, Note_off_c, 1, 74, 0
2, 161160, Note_on_c, 1, 73, 60
2, 161280, Note_off_c, 1, 73, 0
2, 161280, Note_on_c, 1, 74, 60
2, 161520, Note_off_c, 1, 74, 0
2, 162240, Note_on_c, 1, 65, 59
2, 162480, Note_off_c, 1, 65, 0
2, 162720, Note_on_c, 1, 70, 65
2, 163680, Note_off_c, 1, 70, 0
2, 163680, Note_on_c, 1, 72, 62
2, 163800, Note_off_c, 1, 72, 0
2, 163800, Note_on_c, 1, 70, 62
2, 163920, Note_off_c, 1, 70, 0
2, 163920, Note_on_c, 1, 69, 63
2, 164040, Note_off_c, 1, 69, 0
2, 164040, Note_on_c, 1, 67, 63
2, 164160, Note_off_c, 1, 67, 0
2, 164160, Note_on_c, 1, 69, 63
2, 164400, Note_off_c, 1, 69, 0
2, 164640, Note_on_c, 1, 72, 69
2, 165480, Note_off_c, 1, 72, 0
2, 165600, Note_on_c, 1, 74, 63
2, 165720, Note_off_c, 1, 74, 0
2, 165720, Note_on_c, 1, 72, 63
2, 165840, Note_off_c, 1, 72, 0
2, 165840, Note_on_c, 1, 70, 63
2, 165960, Note_off_c, 1, 70, 0
2, 165960, Note_on_c, 1, 69, 63
2, 166080, Note_off_c, 1, 69, 0
2, 166080, Note_on_c, 1, 70, 63
2, 166320, Note_off_c, 1, 70, 0
2, 166560, Note_on_c, 1, 70, 63
2, 166680, Note_off_c, 1, 70, 0
2, 166680, Note_on_c, 1, 69, 62
2, 166800, Note_off_c, 1, 69, 0
2, 166800, Note_on_c, 1, 67, 62
2, 166920, Note_off_c, 1, 67, 0
2, 166920, Note_on_c, 1, 66, 62
2, 167040, Note_off_c, 1, 66, 0
2, 167040, Note_on_c, 1, 67, 62
2, 167760, Note_off_c, 1, 67, 0
2, 167760, Note_on_c, 1, 69, 62
2, 167880, Note_off_c, 1, 69, 0
2, 167880, Note_on_c, 1, 70, 62
2, 168000, Note_off_c, 1, 70, 0
2, 168000, Note_on_c, 1, 72, 62
2, 168600, Note_off_c, 1, 72, 0
2, 168600, Note_on_c, 1, 70, 61
2, 168720, Note_off_c, 1, 70, 0
2, 168720, Note_on_c, 1, 69, 61
2, 168840, Note_off_c, 1, 69, 0
2, 168840, Note_on_c, 1, 67, 61
2, 168960, Note_off_c, 1, 67, 0
2, 168960, Note_on_c, 1, 66, 61
2, 169680, Note_off_c, 1, 66, 0
2, 169680, Note_on_c, 1, 67, 60
2, 169800, Note_off_c, 1, 67, 0
2, 169800, Note_on_c, 1, 69, 60
2, 169920, Note_off_c, 1, 69, 0
2, 169920, Note_on_c, 1, 70, 60
2, 170520, Note_off_c, 1, 70, 0
2, 170520, Note_on_c, 1, 69, 60
2, 170640, Note_off_c, 1, 69, 0
2, 170640, Note_on_c, 1, 67, 60
2, 170760, Note_off_c, 1, 67, 0
2, 170760, Note_on_c, 1, 65, 60
2, 170880, Note_off_c, 1, 65, 0
2, 170880, Note_on_c, 1, 64, 60
2, 171840, Note_off_c, 1, 64, 0
2, 171840, Note_on_c, 1, 65, 59
2, 172320, Note_off_c, 1, 65, 0
2, 172320, Note_on_c, 1, 67, 59
2, 172800, Note_off_c, 1, 67, 0
2, 172800, Note_on_c, 1, 60, 57
2, 173160, Note_off_c, 1, 60, 0
2, 173280, Note_on_c, 1, 77, 62
2, 174240, Note_off_c, 1, 77, 0
2, 174240, Note_on_c, 1, 76, 56
2, 175200, Note_off_c, 1, 76, 0
2, 175200, Note_on_c, 1, 75, 55
2, 175680, Note_off_c, 1, 75, 0
2, 175680, Note_on_c, 1, 74, 55
2, 176160, Note_off_c, 1, 74, 0
2, 176160, Note_on_c, 1, 72, 55
2, 176640, Note_off_c, 1, 72, 0
2, 176640, Note_on_c, 1, 71, 54
2, 177120, Note_off_c, 1, 71, 0
2, 177120, Note_on_c, 1, 72, 59
2, 178080, Note_off_c, 1, 72, 0
2, 178080, Note_on_c, 1, 70, 53
2, 178560, Note_off_c, 1, 70, 0
2, 178560, Note_on_c, 1, 69, 53
2, 178800, Note_off_c, 1, 69, 0
2, 178800, Note_on_c, 1, 65, 53
2, 179040, Note_off_c, 1, 65, 0
2, 179040, Note_on_c, 1, 67, 52
2, 179280, Note_off_c, 1, 67, 0
2, 179280, Note_on_c, 1, 65, 52
2, 179520, Note_off_c, 1, 65, 0
2, 179520, Note_on_c, 1, 64, 52
2, 179760, Note_off_c, 1, 64, 0
2, 179760, Note_on_c, 1, 67, 52
2, 180000, Note_off_c, 1, 67, 0
2, 180000, Note_on_c, 1, 69, 52
2, 180240, Note_off_c, 1, 69, 0
2, 180240, Note_on_c, 1, 67, 51
2, 180480, Note_off_c, 1, 67, 0
2, 180480, Note_on_c, 1, 66, 51
2, 180720, Note_off_c, 1, 66, 0
2, 180720, Note_on_c, 1, 69, 51
2, 180960, Note_off_c, 1, 69, 0
2, 180960, Note_on_c, 1, 70, 51
2, 181200, Note_off_c, 1, 70, 0
2, 181200, Note_on_c, 1, 69, 51
2, 181440, Note_off_c, 1, 69, 0
2, 181440, Note_on_c, 1, 67, 50
2, 181680, Note_off_c, 1, 67, 0
2, 181680, Note_on_c, 1, 74, 50
2, 181920, Note_off_c, 1, 74, 0
2, 181920, Note_on_c, 1, 73, 50
2, 182160, Note_off_c, 1, 73, 0
2, 182160, Note_on_c, 1, 76, 50
2, 182640, Note_off_c, 1, 76, 0
2, 182640, Note_on_c, 1, 74, 50
2, 182880, Note_off_c, 1, 74, 0
2, 182880, Note_on_c, 1, 77, 49
2, 183120, Note_off_c, 1, 77, 0
2, 183120, Note_on_c, 1, 74, 49
2, 183360, Note_off_c, 1, 74, 0
2, 183360, Note_on_c, 1, 73, 49
2, 183600, Note_off_c, 1, 73, 0
2, 183600, Note_on_c, 1, 74, 49
2, 183840, Note_off_c, 1, 74, 0
2, 183840, Note_on_c, 1, 69, 49
2, 184080, Note_off_c, 1, 69, 0
2, 184080, Note_on_c, 1, 74, 48
2, 184320, Note_off_c, 1, 74, 0
2, 184320, Note_on_c, 1, 68, 48
2, 184560, Note_off_c, 1, 68, 0
2, 184560, Note_on_c, 1, 74, 48
2, 184800, Note_off_c, 1, 74, 0
2, 184800, Note_on_c, 1, 65, 48
2, 185040, Note_off_c, 1, 65, 0
2, 185040, Note_on_c, 1, 68, 48
2, 185280, Note_off_c, 1, 68, 0
2, 185280, Note_on_c, 1, 64, 47
2, 185520, Note_off_c, 1, 64, 0
2, 185520, Note_on_c, 1, 68, 47
2, 185760, Note_off_c, 1, 68, 0
2, 185760, Note_on_c, 1, 62, 47
2, 186000, Note_off_c, 1, 62, 0
2, 186000, Note_on_c, 1, 68, 47
2, 186720, Note_off_c, 1, 68, 0
2, 186720, Note_on_c, 1, 67, 46
2, 186840, Note_off_c, 1, 67, 0
2, 186840, Note_on_c, 1, 65, 46
2, 186960, Note_off_c, 1, 65, 0
2, 186960, Note_on_c, 1, 64, 46
2, 187080, Note_off_c, 1, 64, 0
2, 187080, Note_on_c, 1, 62, 46
2, 187200, Note_off_c, 1, 62, 0
2, 187200, Note_on_c, 1, 61, 46
2, 188352, Note_off_c, 1, 61, 0
2, 188400, Note_on_c, 1, 67, 45
2, 188640, Note_off_c, 1, 67, 0
2, 188640, Note_on_c, 1, 69, 45
2, 188880, Note_off_c, 1, 69, 0
2, 188880, Note_on_c, 1, 67, 45
2, 189120, Note_off_c, 1, 67, 0
2, 189120, Note_on_c, 1, 66, 44
2, 189360, Note_off_c, 1, 66, 0
2, 189360, Note_on_c, 1, 69, 44
2, 189600, Note_off_c, 1, 69, 0
2, 189600, Note_on_c, 1, 70, 44
2, 189840, Note_off_c, 1, 70, 0
2, 189840, Note_on_c, 1, 69, 44
2, 190080, Note_off_c, 1, 69, 0
2, 190080, Note_on_c, 1, 67, 44
2, 190440, Note_off_c, 1, 67, 0
2, 191520, Note_on_c, 1, 55, 54
2, 191640, Note_on_c, 1, 57, 55
2, 191662, Note_off_c, 1, 55, 0
2, 191760, Note_off_c, 1, 57, 0
2, 191760, Note_on_c, 1, 58, 55
2, 191880, Note_off_c, 1, 58, 0
2, 191880, Note_on_c, 1, 60, 56
2, 192000, Note_off_c, 1, 60, 0
2, 192000, Note_on_c, 1, 62, 56
2, 192192, Note_off_c, 1, 62, 0
2, 192240, Note_on_c, 1, 62, 57
2, 192480, Note_off_c, 1, 62, 0
2, 192480, Note_on_c, 1, 63, 58
2, 192720, Note_off_c, 1, 63, 0
2, 192720, Note_on_c, 1, 61, 59
2, 192960, Note_off_c, 1, 61, 0
2, 192960, Note_on_c, 1, 60, 60
2, 193152, Note_off_c, 1, 60, 0
2, 193200, Note_on_c, 1, 64, 60
2, 193440, Note_off_c, 1, 64, 0
2, 193440, Note_on_c, 1, 65, 61
2, 193680, Note_off_c, 1, 65, 0
2, 193680, Note_on_c, 1, 63, 62
2, 193920, Note_off_c, 1, 63, 0
2, 193920, Note_on_c, 1, 62, 63
2, 194112, Note_off_c, 1, 62, 0
2, 194160, Note_on_c, 1, 66, 64
2, 194400, Note_off_c, 1, 66, 0
2, 194400, Note_on_c, 1, 67, 65
2, 194640, Note_off_c, 1, 67, 0
2, 194640, Note_on_c, 1, 65, 66
2, 194880, Note_off_c, 1, 65, 0
2, 194880, Note_on_c, 1, 63, 66
2, 195072, Note_off_c, 1, 63, 0
2, 195120, Note_on_c, 1, 67, 67
2, 195360, Note_off_c, 1, 67, 0
2, 195360, Note_on_c, 1, 68, 68
2, 195600, Note_off_c, 1, 68, 0
2, 195600, Note_on_c, 1, 67, 69
2, 195792, Note_off_c, 1, 67, 0
2, 195840, Control_c, 1, 64, 127
2, 197640, Control_c, 1, 64, 0
2, 197760, Control_c, 1, 64, 127
2, 202080, Control_c, 1, 64, 0
2, 202080, Note_on_c, 1, 64, 58
2, 203040, Note_off_c, 1, 64, 0
2, 203040, Note_on_c, 1, 63, 57
2, 203520, Note_off_c, 1, 63, 0
2, 203520, Note_on_c, 1, 62, 59
2, 203880, Note_off_c, 1, 62, 0
2, 204000, Note_on_c, 1, 67, 70
2, 204720, Note_off_c, 1, 67, 0
2, 204720, Note_on_c, 1, 67, 68
2, 204960, Note_off_c, 1, 67, 0
2, 204960, Note_on_c, 1, 68, 69
2, 205200, Note_off_c, 1, 68, 0
2, 205200, Note_on_c, 1, 67, 70
2, 205440, Note_off_c, 1, 67, 0
2, 205440, Note_on_c, 1, 66, 71
2, 205800, Note_off_c, 1, 66, 0
2, 205920, Note_on_c, 1, 72, 78
2, 206640, Note_off_c, 1, 72, 0
2, 206640, Note_on_c, 1, 72, 76
2, 206880, Note_off_c, 1, 72, 0
2, 206880, Note_on_c, 1, 74, 77
2, 207120, Note_off_c, 1, 74, 0
2, 207120, Note_on_c, 1, 72, 78
2, 207360, Note_off_c, 1, 72, 0
2, 207360, Note_on_c, 1, 71, 84
2, 208320, Note_off_c, 1, 71, 0
2, 208560, Note_on_c, 1, 70, 74
2, 208800, Note_off_c, 1, 70, 0
2, 208800, Note_on_c, 1, 72, 73
2, 209040, Note_off_c, 1, 72, 0
2, 209040, Note_on_c, 1, 70, 73
2, 209280, Note_off_c, 1, 70, 0
2, 209280, Note_on_c, 1, 69, 77
2, 210240, Note_off_c, 1, 69, 0
2, 210480, Note_on_c, 1, 68, 69
2, 210720, Note_off_c, 1, 68, 0
2, 210720, Note_on_c, 1, 70, 68
2, 210960, Note_off_c, 1, 70, 0
2, 210960, Note_on_c, 1, 68, 68
2, 211200, Note_off_c, 1, 68, 0
2, 211200, Note_on_c, 1, 67, 67
2, 211680, Note_off_c, 1, 67, 0
2, 211680, Note_on_c, 1, 66, 66
2, 212160, Note_off_c, 1, 66, 0
2, 212160, Note_on_c, 1, 65, 65
2, 212640, Note_off_c, 1, 65, 0
2, 212640, Note_on_c, 1, 64, 64
2, 213120, Note_off_c, 1, 64, 0
2, 213600, Note_on_c, 1, 63, 72
2, 213720, Note_off_c, 1, 63, 0
2, 213720, Note_on_c, 1, 62, 73
2, 213840, Note_off_c, 1, 62, 0
2, 213840, Note_on_c, 1, 60, 74
2, 213960, Note_off_c, 1, 60, 0
2, 213960, Note_on_c, 1, 58, 75
2, 214080, Note_off_c, 1, 58, 0
2, 214080, Note_on_c, 1, 57, 77
2, 214272, Note_off_c, 1, 57, 0
2, 214320, Note_on_c, 1, 63, 79
2, 214560, Note_off_c, 1, 63, 0
2, 214560, Note_on_c, 1, 65, 81
2, 214800, Note_off_c, 1, 65, 0
2, 214800, Note_on_c, 1, 63, 84
2, 215040, Note_off_c, 1, 63, 0
2, 215040, Note_on_c, 1, 72, 86
2, 216480, Note_off_c, 1, 72, 0
2, 216480, Note_on_c, 1, 66, 82
2, 216960, Note_off_c, 1, 66, 0
2, 216960, Note_on_c, 1, 65, 80
2, 217320, Note_off_c, 1, 65, 0
2, 217440, Note_on_c, 1, 68, 83
2, 217560, Note_off_c, 1, 68, 0
2, 217560, Note_on_c, 1, 67, 84
2, 217680, Note_off_c, 1, 67, 0
2, 217680, Note_on_c, 1, 65, 85
2, 217800, Note_off_c, 1, 65, 0
2, 217800, Note_on_c, 1, 63, 86
2, 217920, Note_off_c, 1, 63, 0
2, 217920, Note_on_c, 1, 62, 87
2, 218112, Note_off_c, 1, 62, 0
2, 218160, Note_on_c, 1, 68, 90
2, 218400, Note_off_c, 1, 68, 0
2, 218400, Note_on_c, 1, 70, 92
2, 218640, Note_off_c, 1, 70, 0
2, 218640, Note_on_c, 1, 68, 94
2, 218880, Note_off_c, 1, 68, 0
2, 218880, Note_on_c, 1, 77, 94
2, 220320, Note_off_c, 1, 77, 0
2, 220320, Note_on_c, 1, 68, 76
2, 221032, Note_off_c, 1, 68, 0
2, 221040, Note_on_c, 1, 68, 69
2, 221280, Note_off_c, 1, 68, 0
2, 221280, Note_on_c, 1, 70, 67
2, 221520, Note_off_c, 1, 70, 0
2, 221520, Note_on_c, 1, 68, 65
2, 222000, Note_off_c, 1, 68, 0
2, 222000, Note_on_c, 1, 67, 60
2, 222240, Note_off_c, 1, 67, 0
2, 222240, Note_on_c, 1, 68, 58
2, 222480, Note_off_c, 1, 68, 0
2, 222480, Note_on_c, 1, 67, 56
2, 222952, Note_off_c, 1, 67, 0
2, 222960, Note_on_c, 1, 67, 52
2, 223200, Note_off_c, 1, 67, 0
2, 223200, Note_on_c, 1, 69, 49
2, 223440, Note_off_c, 1, 69, 0
2, 223440, Note_on_c, 1, 67, 47
2, 223905, Note_off_c, 1, 67, 0
2, 223920, Note_on_c, 1, 67, 43
2, 224160, Note_off_c, 1, 67, 0
2, 224160, Note_on_c, 1, 69, 41
2, 224400, Note_off_c, 1, 69, 0
2, 224400, Note_on_c, 1, 67, 38
2, 224640, Control_c, 1, 64, 127
2, 224640, Note_off_c, 1, 67, 0
2, 226560, Control_c, 1, 64, 0
2, 226560, Note_on_c, 1, 60, 34
2, 226800, Note_off_c, 1, 60, 0
2, 227040, Note_on_c, 1, 64, 40
2, 228000, Note_off_c, 1, 64, 0
2, 228000, Note_on_c, 1, 65, 36
2, 228120, Note_off_c, 1, 65, 0
2, 228120, Note_on_c, 1, 64, 36
2, 228240, Note_off_c, 1, 64, 0
2, 228240, Note_on_c, 1, 62, 36
2, 228360, Note_off_c, 1, 62, 0
2, 228360, Note_on_c, 1, 60, 36
2, 228480, Note_off_c, 1, 60, 0
2, 228480, Note_on_c, 1, 67, 36
2, 229440, Note_off_c, 1, 67, 0
2, 229440, Note_on_c, 1, 65, 37
2, 230880, Note_off_c, 1, 65, 0
2, 230880, Note_on_c, 1, 64, 39
2, 231360, Note_off_c, 1, 64, 0
2, 231360, Note_on_c, 1, 65, 40
2, 231840, Note_off_c, 1, 65, 0
2, 231840, Note_on_c, 1, 66, 40
2, 232320, Note_off_c, 1, 66, 0
2, 232320, Note_on_c, 1, 67, 41
2, 233760, Note_off_c, 1, 67, 0
2, 233760, Note_on_c, 1, 67, 42
2, 234615, Note_off_c, 1, 67, 0
2, 234720, Note_on_c, 1, 65, 42
2, 235200, Note_on_c, 1, 62, 41
2, 235680, Note_off_c, 1, 62, 0
2, 235680, Note_off_c, 1, 65, 0
2, 235680, Note_on_c, 1, 64, 40
2, 236160, Note_off_c, 1, 64, 0
2, 236160, Note_on_c, 1, 62, 40
2, 238080, Note_off_c, 1, 62, 0
2, 238080, Note_on_c, 1, 64, 37
2, 240000, Note_off_c, 1, 64, 0
2, 240000, Note_on_c, 1, 62, 34
2, 241920, Control_c, 1, 64, 127
2, 241920, Note_off_c, 1, 62, 0
2, 245760, Control_c, 1, 64, 0
2, 246240, Note_on_c, 1, 64, 30
2, 246720, Note_off_c, 1, 64, 0
2, 246720, Note_on_c, 1, 65, 30
2, 247200, Note_off_c, 1, 65, 0
2, 247200, Note_on_c, 1, 69, 30
2, 247680, Note_off_c, 1, 69, 0
2, 247680, Note_on_c, 1, 67, 30
2, 248047, Note_off_c, 1, 67, 0
2, 248160, Note_on_c, 1, 60, 30
2, 248640, Note_on_c, 1, 65, 30
2, 249120, Note_off_c, 1, 60, 0
2, 249360, Note_off_c, 1, 65, 0
2, 249360, Note_on_c, 1, 67, 31
2, 249600, Note_off_c, 1, 67, 0
2, 249600, Note_on_c, 1, 64, 31
2, 249960, Note_off_c, 1, 64, 0
2, 250080, Note_on_c, 1, 76, 31
2, 250560, Note_off_c, 1, 76, 0
2, 250560, Note_on_c, 1, 77, 31
2, 251040, Note_off_c, 1, 77, 0
2, 251040, Note_on_c, 1, 81, 31
2, 251520, Note_off_c, 1, 81, 0
2, 251520, Note_on_c, 1, 79, 31
2, 251887, Note_off_c, 1, 79, 0
2, 252000, Note_on_c, 1, 72, 31
2, 252480, Note_off_c, 1, 72, 0
2, 252480, Note_on_c, 1, 77, 31
2, 253200, Note_off_c, 1, 77, 0
2, 253200, Note_on_c, 1, 79, 32
2, 253440, Note_off_c, 1, 79, 0
2, 253440, Note_on_c, 1, 76, 32
2, 253800, Note_off_c, 1, 76, 0
2, 253920, Note_on_c, 1, 67, 32
2, 254400, Note_on_c, 1, 72, 32
2, 254880, Note_off_c, 1, 67, 0
2, 255120, Note_off_c, 1, 72, 0
2, 255120, Note_on_c, 1, 74, 32
2, 255360, Note_off_c, 1, 74, 0
2, 255360, Note_on_c, 1, 71, 32
2, 255720, Note_off_c, 1, 71, 0
2, 256800, Note_on_c, 1, 61, 32
2, 257280, Note_off_c, 1, 61, 0
2, 257280, Note_on_c, 1, 62, 33
2, 257640, Note_off_c, 1, 62, 0
2, 257760, Note_on_c, 1, 69, 33
2, 258240, Note_off_c, 1, 69, 0
2, 258240, Note_on_c, 1, 74, 33
2, 258720, Note_off_c, 1, 74, 0
2, 258720, Note_on_c, 1, 72, 33
2, 259200, Note_off_c, 1, 72, 0
2, 259200, Note_on_c, 1, 71, 33
2, 259560, Note_off_c, 1, 71, 0
2, 259680, Note_on_c, 1, 71, 33
2, 260160, Note_off_c, 1, 71, 0
2, 260160, Note_on_c, 1, 72, 33
2, 260640, Note_off_c, 1, 72, 0
2, 260640, Note_on_c, 1, 76, 33
2, 261120, Note_off_c, 1, 76, 0
2, 261120, Note_on_c, 1, 74, 34
2, 261480, Note_off_c, 1, 74, 0
2, 261600, Note_on_c, 1, 62, 34
2, 262080, Note_on_c, 1, 67, 34
2, 262560, Note_off_c, 1, 62, 0
2, 262800, Note_off_c, 1, 67, 0
2, 262800, Note_on_c, 1, 69, 34
2, 263040, Note_off_c, 1, 69, 0
2, 263040, Note_on_c, 1, 66, 34
2, 263400, Note_off_c, 1, 66, 0
2, 263520, Note_on_c, 1, 69, 34
2, 264000, Note_on_c, 1, 74, 34
2, 264480, Note_off_c, 1, 69, 0
2, 264720, Note_off_c, 1, 74, 0
2, 264720, Note_on_c, 1, 76, 34
2, 264960, Note_off_c, 1, 76, 0
2, 264960, Note_on_c, 1, 73, 34
2, 265320, Note_off_c, 1, 73, 0
2, 265440, Note_on_c, 1, 76, 35
2, 265920, Note_on_c, 1, 81, 35
2, 266400, Note_off_c, 1, 76, 0
2, 266640, Note_off_c, 1, 81, 0
2, 266640, Note_on_c, 1, 83, 35
2, 266880, Note_off_c, 1, 83, 0
2, 266880, Note_on_c, 1, 80, 35
2, 267240, Note_off_c, 1, 80, 0
2, 269280, Note_on_c, 1, 68, 36
2, 269760, Note_off_c, 1, 68, 0
2, 269760, Note_on_c, 1, 69, 36
2, 270240, Note_off_c, 1, 69, 0
2, 270240, Note_on_c, 1, 73, 36
2, 270720, Note_off_c, 1, 73, 0
2, 270720, Note_on_c, 1, 71, 36
2, 271200, Note_on_c, 1, 65, 36
2, 271680, Note_off_c, 1, 65, 0
2, 271680, Note_off_c, 1, 71, 0
2, 271680, Note_on_c, 1, 70, 36
2, 272160, Note_off_c, 1, 70, 0
2, 272160, Note_on_c, 1, 69, 36
2, 272640, Note_off_c, 1, 69, 0
2, 272640, Note_on_c, 1, 68, 36
2, 273600, Note_off_c, 1, 68, 0
2, 273600, Note_on_c, 1, 67, 37
2, 274080, Note_off_c, 1, 67, 0
2, 274080, Note_on_c, 1, 66, 37
2, 274560, Note_off_c, 1, 66, 0
2, 274560, Note_on_c, 1, 64, 37
2, 275040, Note_off_c, 1, 64, 0
2, 275040, Note_on_c, 1, 61, 37
2, 275520, Note_off_c, 1, 61, 0
2, 275520, Note_on_c, 1, 66, 37
2, 276240, Note_off_c, 1, 66, 0
2, 276240, Note_on_c, 1, 64, 37
2, 276480, Note_off_c, 1, 64, 0
2, 276480, Note_on_c, 1, 63, 37
2, 276840, Note_off_c, 1, 63, 0
2, 276960, Note_on_c, 1, 75, 37
2, 277440, Note_off_c, 1, 75, 0
2, 277440, Note_on_c, 1, 76, 38
2, 277920, Note_off_c, 1, 76, 0
2, 277920, Note_on_c, 1, 80, 38
2, 278400, Note_off_c, 1, 80, 0
2, 278400, Note_on_c, 1, 78, 38
2, 278760, Note_off_c, 1, 78, 0
2, 278880, Note_on_c, 1, 71, 38
2, 279360, Note_on_c, 1, 76, 38
2, 279840, Note_off_c, 1, 71, 0
2, 280080, Note_off_c, 1, 76, 0
2, 280080, Note_on_c, 1, 78, 38
2, 280320, Note_off_c, 1, 78, 0
2, 280320, Note_on_c, 1, 75, 38
2, 280680, Note_off_c, 1, 75, 0
2, 280800, Note_on_c, 1, 78, 38
2, 281760, Note_off_c, 1, 78, 0
2, 281760, Note_on_c, 1, 77, 39
2, 282240, Note_off_c, 1, 77, 0
2, 282240, Note_on_c, 1, 78, 39
2, 282600, Note_off_c, 1, 78, 0
2, 282720, Note_on_c, 1, 61, 39
2, 283200, Note_on_c, 1, 66, 39
2, 283680, Note_off_c, 1, 61, 0
2, 283920, Note_off_c, 1, 66, 0
2, 283920, Note_on_c, 1, 68, 39
2, 284160, Note_off_c, 1, 68, 0
2, 284160, Note_on_c, 1, 65, 39
2, 284520, Note_off_c, 1, 65, 0
2, 284640, Note_on_c, 1, 61, 39
2, 285600, Note_off_c, 1, 61, 0
2, 285600, Note_on_c, 1, 61, 40
2, 286440, Note_off_c, 1, 61, 0
2, 286560, Note_on_c, 1, 61, 40
2, 287520, Note_off_c, 1, 61, 0
2, 287520, Note_on_c, 1, 61, 40
2, 288360, Note_off_c, 1, 61, 0
2, 288480, Note_on_c, 1, 65, 40
2, 288960, Note_off_c, 1, 65, 0
2, 288960, Note_on_c, 1, 67, 40
2, 289440, Note_off_c, 1, 67, 0
2, 289440, Note_on_c, 1, 70, 41
2, 289920, Note_off_c, 1, 70, 0
2, 289920, Note_on_c, 1, 69, 41
2, 290280, Note_off_c, 1, 69, 0
2, 290400, Note_on_c, 1, 69, 41
2, 290880, Note_off_c, 1, 69, 0
2, 290880, Note_on_c, 1, 70, 41
2, 291360, Note_off_c, 1, 70, 0
2, 291360, Note_on_c, 1, 73, 41
2, 291840, Note_off_c, 1, 73, 0
2, 291840, Note_on_c, 1, 72, 41
2, 292200, Note_off_c, 1, 72, 0
2, 292320, Note_on_c, 1, 63, 41
2, 293280, Note_off_c, 1, 63, 0
2, 293280, Note_on_c, 1, 63, 42
2, 294112, Note_off_c, 1, 63, 0
2, 294240, Note_on_c, 1, 57, 42
2, 294720, Note_off_c, 1, 57, 0
2, 294720, Note_on_c, 1, 58, 42
2, 295200, Note_off_c, 1, 58, 0
2, 295200, Note_on_c, 1, 61, 42
2, 295680, Note_off_c, 1, 61, 0
2, 295680, Note_on_c, 1, 60, 42
2, 296047, Note_off_c, 1, 60, 0
2, 296160, Note_on_c, 1, 62, 42
2, 296640, Note_off_c, 1, 62, 0
2, 296640, Note_on_c, 1, 63, 42
2, 297120, Note_off_c, 1, 63, 0
2, 297120, Note_on_c, 1, 61, 42
2, 297600, Note_off_c, 1, 61, 0
2, 297600, Note_on_c, 1, 60, 43
2, 297960, Note_off_c, 1, 60, 0
2, 298320, Note_on_c, 1, 64, 43
2, 298800, Note_off_c, 1, 64, 0
2, 298800, Note_on_c, 1, 65, 43
2, 299280, Note_off_c, 1, 65, 0
2, 299280, Note_on_c, 1, 62, 43
2, 299760, Note_off_c, 1, 62, 0
2, 299760, Note_on_c, 1, 59, 43
2, 300000, Note_off_c, 1, 59, 0
2, 300000, Note_on_c, 1, 60, 43
2, 300480, Note_off_c, 1, 60, 0
2, 300480, Note_on_c, 1, 61, 43
2, 300960, Note_off_c, 1, 61, 0
2, 300960, Note_on_c, 1, 65, 43
2, 301440, Note_off_c, 1, 65, 0
2, 301440, Note_on_c, 1, 63, 44
2, 301800, Note_off_c, 1, 63, 0
2, 301920, Note_on_c, 1, 72, 44
2, 302400, Note_off_c, 1, 72, 0
2, 302400, Note_on_c, 1, 73, 44
2, 302880, Note_off_c, 1, 73, 0
2, 302880, Note_on_c, 1, 77, 44
2, 303360, Note_off_c, 1, 77, 0
2, 303360, Note_on_c, 1, 75, 44
2, 303720, Note_off_c, 1, 75, 0
2, 303840, Note_on_c, 1, 68, 44
2, 304320, Note_on_c, 1, 73, 44
2, 304800, Note_off_c, 1, 68, 0
2, 305040, Note_off_c, 1, 73, 0
2, 305040, Note_on_c, 1, 75, 44
2, 305280, Note_off_c, 1, 75, 0
2, 305280, Note_on_c, 1, 72, 44
2, 305640, Note_off_c, 1, 72, 0
2, 305760, Note_on_c, 1, 75, 45
2, 306720, Note_off_c, 1, 75, 0
2, 306720, Note_on_c, 1, 74, 45
2, 307200, Note_off_c, 1, 74, 0
2, 307200, Note_on_c, 1, 75, 45
2, 307560, Note_off_c, 1, 75, 0
2, 307680, Note_on_c, 1, 70, 45
2, 308160, Note_off_c, 1, 70, 0
2, 308160, Note_on_c, 1, 75, 45
2, 308880, Note_off_c, 1, 75, 0
2, 308880, Note_on_c, 1, 77, 45
2, 309120, Note_off_c, 1, 77, 0
2, 309120, Note_on_c, 1, 74, 45
2, 309480, Note_off_c, 1, 74, 0
2, 310560, Note_on_c, 1, 63, 46
2, 311040, Note_off_c, 1, 63, 0
2, 311040, Note_on_c, 1, 62, 46
2, 311400, Note_off_c, 1, 62, 0
2, 311520, Note_on_c, 1, 62, 46
2, 312000, Note_off_c, 1, 62, 0
2, 312000, Note_on_c, 1, 63, 46
2, 312480, Note_off_c, 1, 63, 0
2, 312480, Note_on_c, 1, 67, 46
2, 312960, Note_off_c, 1, 67, 0
2, 312960, Note_on_c, 1, 65, 46
2, 313320, Note_off_c, 1, 65, 0
2, 313440, Note_on_c, 1, 65, 47
2, 313920, Note_off_c, 1, 65, 0
2, 313920, Note_on_c, 1, 64, 47
2, 314400, Note_off_c, 1, 64, 0
2, 314400, Note_on_c, 1, 63, 47
2, 314880, Note_off_c, 1, 63, 0
2, 314880, Note_on_c, 1, 62, 47
2, 315240, Note_off_c, 1, 62, 0
2, 315360, Note_on_c, 1, 65, 47
2, 315840, Note_off_c, 1, 65, 0
2, 315840, Note_on_c, 1, 70, 47
2, 316560, Note_off_c, 1, 70, 0
2, 316560, Note_on_c, 1, 72, 47
2, 316800, Note_off_c, 1, 72, 0
2, 316800, Note_on_c, 1, 69, 47
2, 317160, Note_off_c, 1, 69, 0
2, 317280, Note_on_c, 1, 69, 47
2, 317760, Note_off_c, 1, 69, 0
2, 317760, Note_on_c, 1, 70, 48
2, 318240, Note_off_c, 1, 70, 0
2, 318240, Note_on_c, 1, 74, 48
2, 318720, Note_off_c, 1, 74, 0
2, 318720, Note_on_c, 1, 72, 48
2, 319080, Note_off_c, 1, 72, 0
2, 319200, Note_on_c, 1, 65, 48
2, 319680, Note_off_c, 1, 65, 0
2, 319680, Note_on_c, 1, 67, 48
2, 320160, Note_off_c, 1, 67, 0
2, 320160, Note_on_c, 1, 70, 48
2, 320640, Note_off_c, 1, 70, 0
2, 320640, Note_on_c, 1, 69, 48
2, 321000, Note_off_c, 1, 69, 0
2, 321120, Note_on_c, 1, 62, 48
2, 321600, Note_off_c, 1, 62, 0
2, 321600, Note_on_c, 1, 64, 49
2, 322080, Note_off_c, 1, 64, 0
2, 322080, Note_on_c, 1, 67, 49
2, 322560, Note_off_c, 1, 67, 0
2, 322560, Note_on_c, 1, 65, 49
2, 322920, Note_off_c, 1, 65, 0
2, 323040, Note_on_c, 1, 61, 49
2, 323520, Note_off_c, 1, 61, 0
2, 323520, Note_on_c, 1, 62, 49
2, 324000, Note_off_c, 1, 62, 0
2, 324000, Note_on_c, 1, 56, 49
2, 324480, Note_off_c, 1, 56, 0
2, 324480, Note_on_c, 1, 57, 49
2, 324840, Note_off_c, 1, 57, 0
2, 324960, Note_on_c, 1, 69, 49
2, 325440, Note_off_c, 1, 69, 0
2, 325440, Note_on_c, 1, 70, 49
2, 325920, Note_off_c, 1, 70, 0
2, 325920, Note_on_c, 1, 74, 50
2, 326400, Note_off_c, 1, 74, 0
2, 326400, Note_on_c, 1, 73, 50
2, 326760, Note_off_c, 1, 73, 0
2, 326880, Note_on_c, 1, 70, 50
2, 327360, Note_off_c, 1, 70, 0
2, 327360, Note_on_c, 1, 69, 50
2, 327840, Note_off_c, 1, 69, 0
2, 327840, Note_on_c, 1, 63, 50
2, 328320, Note_off_c, 1, 63, 0
2, 328320, Note_on_c, 1, 64, 50
2, 328680, Note_off_c, 1, 64, 0
2, 329760, Note_on_c, 1, 77, 51
2, 330240, Note_off_c, 1, 77, 0
2, 330240, Note_on_c, 1, 76, 51
2, 330600, Note_off_c, 1, 76, 0
2, 330720, Note_on_c, 1, 81, 51
2, 331200, Note_off_c, 1, 81, 0
2, 331200, Note_on_c, 1, 74, 51
2, 331680, Note_off_c, 1, 74, 0
2, 331680, Note_on_c, 1, 79, 51
2, 332160, Note_off_c, 1, 79, 0
2, 332160, Note_on_c, 1, 72, 51
2, 332520, Note_off_c, 1, 72, 0
2, 332640, Note_on_c, 1, 64, 51
2, 333120, Note_off_c, 1, 64, 0
2, 333120, Note_on_c, 1, 65, 51
2, 333600, Note_off_c, 1, 65, 0
2, 333600, Note_on_c, 1, 69, 52
2, 334080, Note_off_c, 1, 69, 0
2, 334080, Note_on_c, 1, 67, 52
2, 334440, Note_off_c, 1, 67, 0
2, 334560, Note_on_c, 1, 60, 52
2, 335040, Note_on_c, 1, 65, 52
2, 335520, Note_off_c, 1, 60, 0
2, 335760, Note_off_c, 1, 65, 0
2, 335760, Note_on_c, 1, 67, 52
2, 336000, Note_off_c, 1, 67, 0
2, 336000, Note_on_c, 1, 64, 52
2, 336360, Note_off_c, 1, 64, 0
2, 336480, Note_on_c, 1, 76, 52
2, 336960, Note_off_c, 1, 76, 0
2, 336960, Note_on_c, 1, 77, 52
2, 337440, Note_off_c, 1, 77, 0
2, 337440, Note_on_c, 1, 81, 52
2, 337920, Note_off_c, 1, 81, 0
2, 337920, Note_on_c, 1, 79, 53
2, 338280, Note_off_c, 1, 79, 0
2, 338400, Note_on_c, 1, 72, 53
2, 338880, Note_on_c, 1, 77, 53
2, 339360, Note_off_c, 1, 72, 0
2, 339600, Note_off_c, 1, 77, 0
2, 339600, Note_on_c, 1, 79, 53
2, 339840, Note_off_c, 1, 79, 0
2, 339840, Note_on_c, 1, 76, 53
2, 340200, Note_off_c, 1, 76, 0
2, 340320, Note_on_c, 1, 67, 53
2, 340800, Note_off_c, 1, 67, 0
2, 340800, Note_on_c, 1, 72, 53
2, 341520, Note_off_c, 1, 72, 0
2, 341520, Note_on_c, 1, 74, 53
2, 341760, Note_off_c, 1, 74, 0
2, 341760, Note_on_c, 1, 71, 54
2, 342120, Note_off_c, 1, 71, 0
2, 342240, Note_on_c, 1, 74, 54
2, 343200, Note_off_c, 1, 74, 0
2, 343200, Note_on_c, 1, 73, 54
2, 343680, Note_off_c, 1, 73, 0
2, 343680, Note_on_c, 1, 74, 54
2, 344040, Note_off_c, 1, 74, 0
2, 344160, Note_on_c, 1, 57, 54
2, 344640, Note_off_c, 1, 57, 0
2, 344640, Note_on_c, 1, 62, 54
2, 345360, Note_off_c, 1, 62, 0
2, 345360, Note_on_c, 1, 64, 54
2, 345600, Note_off_c, 1, 64, 0
2, 345600, Note_on_c, 1, 61, 54
2, 345960, Note_off_c, 1, 61, 0
2, 346080, Note_on_c, 1, 64, 55
2, 346560, Note_on_c, 1, 66, 55
2, 347040, Note_off_c, 1, 66, 0
2, 347040, Note_off_c, 1, 64, 0
2, 347040, Note_on_c, 1, 66, 55
2, 347520, Note_off_c, 1, 66, 0
2, 347520, Note_on_c, 1, 68, 55
2, 347880, Note_off_c, 1, 68, 0
2, 348000, Note_on_c, 1, 71, 55
2, 348480, Note_on_c, 1, 73, 55
2, 348960, Note_off_c, 1, 73, 0
2, 348960, Note_off_c, 1, 71, 0
2, 348960, Note_on_c, 1, 73, 55
2, 349440, Note_off_c, 1, 73, 0
2, 349440, Note_on_c, 1, 75, 55
2, 349800, Note_off_c, 1, 75, 0
2, 350160, Note_on_c, 1, 73, 56
2, 350400, Note_off_c, 1, 73, 0
2, 350400, Note_on_c, 1, 71, 56
2, 350640, Note_off_c, 1, 71, 0
2, 350640, Note_on_c, 1, 75, 56
2, 350880, Note_off_c, 1, 75, 0
2, 350880, Note_on_c, 1, 73, 56
2, 351120, Note_off_c, 1, 73, 0
2, 351120, Note_on_c, 1, 71, 56
2, 351360, Note_off_c, 1, 71, 0
2, 351360, Note_on_c, 1, 70, 56
2, 351600, Note_off_c, 1, 70, 0
2, 351600, Note_on_c, 1, 66, 56
2, 351792, Note_off_c, 1, 66, 0
2, 351840, Note_on_c, 1, 73, 56
2, 352800, Note_off_c, 1, 73, 0
2, 352800, Note_on_c, 1, 72, 56
2, 353280, Note_off_c, 1, 72, 0
2, 353280, Note_on_c, 1, 73, 56
2, 353640, Note_off_c, 1, 73, 0
2, 353760, Note_on_c, 1, 68, 56
2, 354240, Note_on_c, 1, 70, 57
2, 354720, Note_off_c, 1, 70, 0
2, 354720, Note_off_c, 1, 68, 0
2, 354720, Note_on_c, 1, 70, 57
2, 355200, Note_off_c, 1, 70, 0
2, 355200, Note_on_c, 1, 72, 57
2, 355560, Note_off_c, 1, 72, 0
2, 355920, Note_on_c, 1, 63, 57
2, 356160, Note_off_c, 1, 63, 0
2, 356400, Note_on_c, 1, 65, 57
2, 356640, Note_off_c, 1, 65, 0
2, 356880, Note_on_c, 1, 68, 57
2, 357120, Note_off_c, 1, 68, 0
2, 357120, Note_on_c, 1, 67, 57
2, 357360, Note_off_c, 1, 67, 0
2, 357360, Note_on_c, 1, 63, 57
2, 357552, Note_off_c, 1, 63, 0
2, 357840, Note_on_c, 1, 70, 58
2, 358080, Note_off_c, 1, 70, 0
2, 358080, Note_on_c, 1, 67, 58
2, 358320, Note_off_c, 1, 67, 0
2, 358320, Note_on_c, 1, 72, 58
2, 358560, Note_off_c, 1, 72, 0
2, 358560, Note_on_c, 1, 69, 58
2, 358800, Note_off_c, 1, 69, 0
2, 358800, Note_on_c, 1, 75, 58
2, 359040, Note_off_c, 1, 75, 0
2, 359040, Note_on_c, 1, 74, 58
2, 359280, Note_off_c, 1, 74, 0
2, 359280, Note_on_c, 1, 70, 58
2, 359472, Note_off_c, 1, 70, 0
2, 359520, Note_on_c, 1, 72, 58
2, 360000, Note_off_c, 1, 72, 0
2, 360000, Note_on_c, 1, 70, 58
2, 360480, Note_off_c, 1, 70, 0
2, 360480, Note_on_c, 1, 67, 58
2, 360960, Note_off_c, 1, 67, 0
2, 360960, Note_on_c, 1, 69, 58
2, 361320, Note_off_c, 1, 69, 0
2, 361440, Note_on_c, 1, 79, 58
2, 361920, Note_off_c, 1, 79, 0
2, 361920, Note_on_c, 1, 77, 59
2, 362400, Note_off_c, 1, 77, 0
2, 362400, Note_on_c, 1, 74, 59
2, 362880, Note_off_c, 1, 74, 0
2, 362880, Note_on_c, 1, 76, 59
2, 363240, Note_off_c, 1, 76, 0
2, 363360, Note_on_c, 1, 79, 59
2, 363840, Note_off_c, 1, 79, 0
2, 363840, Note_on_c, 1, 77, 59
2, 364320, Note_off_c, 1, 77, 0
2, 364320, Note_on_c, 1, 74, 59
2, 364800, Note_off_c, 1, 74, 0
2, 364800, Note_on_c, 1, 72, 59
2, 366720, Note_off_c, 1, 72, 0
2, 369120, Note_on_c, 1, 62, 51
2, 369600, Note_off_c, 1, 62, 0
2, 369600, Note_on_c, 1, 63, 51
2, 370080, Note_off_c, 1, 63, 0
2, 370080, Note_on_c, 1, 67, 50
2, 370560, Note_off_c, 1, 67, 0
2, 370560, Note_on_c, 1, 66, 50
2, 370920, Note_off_c, 1, 66, 0
2, 371040, Note_on_c, 1, 78, 50
2, 371520, Note_off_c, 1, 78, 0
2, 371520, Note_on_c, 1, 79, 49
2, 372000, Note_off_c, 1, 79, 0
2, 372000, Note_on_c, 1, 82, 49
2, 372480, Note_off_c, 1, 82, 0
2, 372480, Note_on_c, 1, 76, 49
2, 372840, Note_off_c, 1, 76, 0
2, 372960, Note_on_c, 1, 81, 48
2, 373440, Note_off_c, 1, 81, 0
2, 373440, Note_on_c, 1, 74, 48
2, 373920, Note_off_c, 1, 74, 0
2, 373920, Note_on_c, 1, 79, 48
2, 374880, Note_off_c, 1, 79, 0
2, 374880, Note_on_c, 1, 77, 47
2, 375360, Note_off_c, 1, 77, 0
2, 375360, Note_on_c, 1, 76, 47
2, 375720, Note_off_c, 1, 76, 0
2, 375840, Note_on_c, 1, 73, 46
2, 376320, Note_off_c, 1, 73, 0
2, 376320, Note_on_c, 1, 74, 46
2, 376800, Note_off_c, 1, 74, 0
2, 376800, Note_on_c, 1, 71, 46
2, 377280, Note_off_c, 1, 71, 0
2, 377280, Note_on_c, 1, 72, 45
2, 377760, Note_off_c, 1, 72, 0
2, 377760, Note_on_c, 1, 66, 45
2, 378240, Note_off_c, 1, 66, 0
2, 378240, Note_on_c, 1, 67, 45
2, 379200, Note_off_c, 1, 67, 0
2, 379200, Note_on_c, 1, 59, 44
2, 380160, Note_off_c, 1, 59, 0
2, 380160, Note_on_c, 1, 60, 43
2, 380520, Note_off_c, 1, 60, 0
2, 380640, Note_on_c, 1, 60, 43
2, 381600, Note_off_c, 1, 60, 0
2, 381600, Note_on_c, 1, 60, 42
2, 382440, Note_off_c, 1, 60, 0
2, 382560, Note_on_c, 1, 67, 42
2, 383040, Note_off_c, 1, 67, 0
2, 383040, Note_on_c, 1, 68, 41
2, 383520, Note_off_c, 1, 68, 0
2, 383520, Note_on_c, 1, 65, 41
2, 384000, Note_off_c, 1, 65, 0
2, 384000, Note_on_c, 1, 64, 41
2, 384360, Note_off_c, 1, 64, 0
2, 384480, Note_on_c, 1, 76, 40
2, 384960, Note_off_c, 1, 76, 0
2, 384960, Note_on_c, 1, 77, 40
2, 385440, Note_off_c, 1, 77, 0
2, 385440, Note_on_c, 1, 81, 40
2, 385920, Note_off_c, 1, 81, 0
2, 385920, Note_on_c, 1, 79, 39
2, 386280, Note_off_c, 1, 79, 0
2, 386880, Note_on_c, 1, 76, 39
2, 387840, Note_off_c, 1, 76, 0
2, 387840, Note_on_c, 1, 77, 38
2, 388800, Note_off_c, 1, 77, 0
2, 388800, Note_on_c, 1, 71, 37
2, 389760, Note_off_c, 1, 71, 0
2, 389760, Note_on_c, 1, 72, 37
2, 390240, Note_off_c, 1, 72, 0
2, 390240, End_track
3, 0, Start_track
3, 0, Title_t, "Unnamed Track"
3, 0, Control_c, 2, 0, 0
3, 0, Control_c, 2, 32, 0
3, 0, Program_c, 2, 0
3, 0, Control_c, 2, 10, 73
3, 0, Control_c, 2, 91, 100
3, 0, Control_c, 2, 93, 28
3, 0, Control_c, 2, 64, 0
3, 0, Control_c, 2, 1, 0
3, 0, Pitch_bend_c, 2, 8192
3, 0, Control_c, 2, 7, 122
3, 4800, Note_on_c, 2, 62, 43
3, 5760, Note_off_c, 2, 62, 0
3, 5760, Note_on_c, 2, 60, 44
3, 6720, Note_off_c, 2, 60, 0
3, 6720, Note_on_c, 2, 62, 44
3, 8040, Note_off_c, 2, 62, 0
3, 8160, Note_on_c, 2, 62, 45
3, 8640, Note_off_c, 2, 62, 0
3, 8640, Note_on_c, 2, 63, 45
3, 9120, Note_off_c, 2, 63, 0
3, 9120, Note_on_c, 2, 64, 46
3, 9600, Note_off_c, 2, 64, 0
3, 9600, Note_on_c, 2, 60, 46
3, 10560, Note_off_c, 2, 60, 0
3, 10560, Note_on_c, 2, 62, 47
3, 11520, Note_off_c, 2, 62, 0
3, 11520, Note_on_c, 2, 60, 47
3, 11880, Note_off_c, 2, 60, 0
3, 12960, Note_on_c, 2, 55, 48
3, 13800, Note_off_c, 2, 55, 0
3, 14880, Note_on_c, 2, 57, 49
3, 15720, Note_off_c, 2, 57, 0
3, 15840, Note_on_c, 2, 55, 49
3, 16320, Note_off_c, 2, 55, 0
3, 16320, Note_on_c, 2, 57, 48
3, 17280, Note_off_c, 2, 57, 0
3, 17280, Note_on_c, 2, 55, 46
3, 17640, Note_off_c, 2, 55, 0
3, 18240, Note_on_c, 2, 55, 46
3, 19560, Note_off_c, 2, 55, 0
3, 19680, Note_on_c, 2, 60, 53
3, 20640, Note_off_c, 2, 60, 0
3, 20640, Note_on_c, 2, 62, 49
3, 20760, Note_off_c, 2, 62, 0
3, 20760, Note_on_c, 2, 60, 49
3, 20880, Note_off_c, 2, 60, 0
3, 20880, Note_on_c, 2, 59, 49
3, 21000, Note_off_c, 2, 59, 0
3, 21000, Note_on_c, 2, 57, 49
3, 21120, Note_off_c, 2, 57, 0
3, 21120, Note_on_c, 2, 59, 49
3, 21480, Note_off_c, 2, 59, 0
3, 22080, Note_on_c, 2, 67, 50
3, 22560, Note_off_c, 2, 67, 0
3, 22560, Note_on_c, 2, 60, 51
3, 23040, Note_off_c, 2, 60, 0
3, 24000, Note_on_c, 2, 69, 52
3, 24480, Note_off_c, 2, 69, 0
3, 24480, Note_on_c, 2, 62, 53
3, 24960, Note_off_c, 2, 62, 0
3, 26640, Note_on_c, 2, 68, 55
3, 26880, Note_off_c, 2, 68, 0
3, 26880, Note_on_c, 2, 69, 55
3, 28560, Note_off_c, 2, 69, 0
3, 28560, Note_on_c, 2, 66, 57
3, 28800, Note_off_c, 2, 66, 0
3, 28800, Note_on_c, 2, 67, 57
3, 30480, Note_off_c, 2, 67, 0
3, 30480, Note_on_c, 2, 71, 59
3, 30720, Note_off_c, 2, 71, 0
3, 30720, Note_on_c, 2, 72, 59
3, 31200, Note_off_c, 2, 72, 0
3, 31200, Note_on_c, 2, 71, 59
3, 31680, Note_off_c, 2, 71, 0
3, 31680, Note_on_c, 2, 69, 58
3, 32400, Note_off_c, 2, 69, 0
3, 32400, Note_on_c, 2, 68, 57
3, 32640, Note_off_c, 2, 68, 0
3, 32640, Note_on_c, 2, 69, 57
3, 33120, Note_off_c, 2, 69, 0
3, 33120, Note_on_c, 2, 68, 56
3, 33600, Note_off_c, 2, 68, 0
3, 33600, Note_on_c, 2, 66, 56
3, 34320, Note_off_c, 2, 66, 0
3, 34320, Note_on_c, 2, 65, 55
3, 34560, Note_off_c, 2, 65, 0
3, 34560, Note_on_c, 2, 66, 55
3, 35520, Note_off_c, 2, 66, 0
3, 35520, Note_on_c, 2, 64, 53
3, 36480, Note_off_c, 2, 64, 0
3, 36480, Note_on_c, 2, 62, 52
3, 36720, Note_off_c, 2, 62, 0
3, 39120, Note_on_c, 2, 57, 51
3, 39360, Note_off_c, 2, 57, 0
3, 39360, Note_on_c, 2, 57, 52
3, 39840, Note_off_c, 2, 57, 0
3, 39840, Note_on_c, 2, 64, 52
3, 40320, Note_off_c, 2, 64, 0
3, 40320, Note_on_c, 2, 61, 53
3, 40680, Note_off_c, 2, 61, 0
3, 40800, Note_on_c, 2, 62, 54
3, 41760, Note_off_c, 2, 62, 0
3, 41760, Note_on_c, 2, 64, 55
3, 42487, Note_off_c, 2, 64, 0
3, 42720, Note_on_c, 2, 64, 56
3, 43680, Note_off_c, 2, 64, 0
3, 43680, Note_on_c, 2, 66, 57
3, 44527, Note_off_c, 2, 66, 0
3, 44640, Note_on_c, 2, 66, 58
3, 45120, Note_off_c, 2, 66, 0
3, 45120, Note_on_c, 2, 67, 59
3, 45600, Note_off_c, 2, 67, 0
3, 45600, Note_on_c, 2, 68, 60
3, 46080, Note_off_c, 2, 68, 0
3, 46560, Note_on_c, 2, 59, 61
3, 47040, Note_off_c, 2, 59, 0
3, 47040, Note_on_c, 2, 64, 62
3, 47520, Note_off_c, 2, 64, 0
3, 47520, Note_on_c, 2, 61, 62
3, 48000, Note_off_c, 2, 61, 0
3, 48000, Note_on_c, 2, 66, 63
3, 48240, Note_off_c, 2, 66, 0
3, 48480, Note_on_c, 2, 74, 68
3, 49440, Note_off_c, 2, 74, 0
3, 49440, Note_on_c, 2, 76, 65
3, 49560, Note_off_c, 2, 76, 0
3, 49560, Note_on_c, 2, 74, 65
3, 49680, Note_off_c, 2, 74, 0
3, 49680, Note_on_c, 2, 73, 65
3, 49800, Note_off_c, 2, 73, 0
3, 49800, Note_on_c, 2, 71, 65
3, 49920, Note_off_c, 2, 71, 0
3, 49920, Note_on_c, 2, 73, 65
3, 50280, Note_off_c, 2, 73, 0
3, 50400, Note_on_c, 2, 69, 65
3, 50880, Note_off_c, 2, 69, 0
3, 50880, Note_on_c, 2, 70, 65
3, 51360, Note_off_c, 2, 70, 0
3, 51360, Note_on_c, 2, 71, 64
3, 51705, Note_off_c, 2, 71, 0
3, 52320, Note_on_c, 2, 62, 63
3, 52800, Note_off_c, 2, 62, 0
3, 52800, Note_on_c, 2, 63, 63
3, 53280, Note_off_c, 2, 63, 0
3, 53280, Note_on_c, 2, 64, 63
3, 53400, Note_off_c, 2, 64, 0
3, 53400, Note_on_c, 2, 62, 63
3, 53520, Note_off_c, 2, 62, 0
3, 53520, Note_on_c, 2, 61, 63
3, 53640, Note_off_c, 2, 61, 0
3, 53640, Note_on_c, 2, 59, 62
3, 53760, Note_off_c, 2, 59, 0
3, 53760, Note_on_c, 2, 61, 62
3, 54120, Note_off_c, 2, 61, 0
3, 67680, Note_on_c, 2, 64, 69
3, 68160, Note_off_c, 2, 64, 0
3, 68160, Note_on_c, 2, 63, 70
3, 68640, Note_off_c, 2, 63, 0
3, 68640, Note_on_c, 2, 59, 71
3, 69120, Note_off_c, 2, 59, 0
3, 69120, Note_on_c, 2, 58, 71
3, 69480, Note_off_c, 2, 58, 0
3, 71520, Note_on_c, 2, 71, 75
3, 72000, Note_off_c, 2, 71, 0
3, 72000, Note_on_c, 2, 70, 76
3, 72480, Note_off_c, 2, 70, 0
3, 72480, Note_on_c, 2, 66, 76
3, 72960, Note_off_c, 2, 66, 0
3, 72960, Note_on_c, 2, 65, 77
3, 73320, Note_off_c, 2, 65, 0
3, 73440, Note_on_c, 2, 73, 83
3, 74400, Note_off_c, 2, 73, 0
3, 74400, Note_on_c, 2, 72, 79
3, 74880, Note_off_c, 2, 72, 0
3, 74880, Note_on_c, 2, 73, 79
3, 75240, Note_off_c, 2, 73, 0
3, 75360, Note_on_c, 2, 74, 77
3, 75840, Note_off_c, 2, 74, 0
3, 75840, Note_on_c, 2, 75, 75
3, 76320, Note_off_c, 2, 75, 0
3, 76320, Note_on_c, 2, 68, 73
3, 77167, Note_off_c, 2, 68, 0
3, 77280, Note_on_c, 2, 65, 69
3, 77760, Note_off_c, 2, 65, 0
3, 77760, Note_on_c, 2, 66, 67
3, 78127, Note_off_c, 2, 66, 0
3, 78240, Note_on_c, 2, 63, 65
3, 78720, Note_off_c, 2, 63, 0
3, 78720, Note_on_c, 2, 65, 63
3, 79087, Note_off_c, 2, 65, 0
3, 79200, Note_on_c, 2, 62, 61
3, 79680, Note_off_c, 2, 62, 0
3, 79680, Note_on_c, 2, 63, 59
3, 80160, Note_off_c, 2, 63, 0
3, 80160, Note_on_c, 2, 60, 57
3, 80640, Note_off_c, 2, 60, 0
3, 80640, Note_on_c, 2, 61, 55
3, 81000, Note_off_c, 2, 61, 0
3, 82560, Note_on_c, 2, 58, 57
3, 83520, Note_off_c, 2, 58, 0
3, 83520, Note_on_c, 2, 56, 59
3, 84480, Note_off_c, 2, 56, 0
3, 84480, Note_on_c, 2, 56, 60
3, 84720, Note_off_c, 2, 56, 0
3, 84960, Note_on_c, 2, 61, 66
3, 85920, Note_off_c, 2, 61, 0
3, 85920, Note_on_c, 2, 63, 63
3, 86040, Note_off_c, 2, 63, 0
3, 86040, Note_on_c, 2, 61, 63
3, 86160, Note_off_c, 2, 61, 0
3, 86160, Note_on_c, 2, 59, 63
3, 86280, Note_off_c, 2, 59, 0
3, 86280, Note_on_c, 2, 58, 63
3, 86400, Note_off_c, 2, 58, 0
3, 86400, Note_on_c, 2, 59, 64
3, 87360, Note_off_c, 2, 59, 0
3, 87360, Note_on_c, 2, 68, 65
3, 88320, Note_off_c, 2, 68, 0
3, 88320, Note_on_c, 2, 61, 67
3, 88560, Note_off_c, 2, 61, 0
3, 88800, Note_on_c, 2, 66, 72
3, 89760, Note_off_c, 2, 66, 0
3, 89760, Note_on_c, 2, 68, 69
3, 89880, Note_off_c, 2, 68, 0
3, 89880, Note_on_c, 2, 66, 69
3, 90000, Note_off_c, 2, 66, 0
3, 90000, Note_on_c, 2, 64, 69
3, 90120, Note_off_c, 2, 64, 0
3, 90120, Note_on_c, 2, 63, 69
3, 90240, Note_off_c, 2, 63, 0
3, 90240, Note_on_c, 2, 64, 70
3, 90720, Note_off_c, 2, 64, 0
3, 90720, Note_on_c, 2, 66, 71
3, 90960, Note_off_c, 2, 66, 0
3, 90960, Note_on_c, 2, 68, 71
3, 91200, Note_off_c, 2, 68, 0
3, 91200, Note_on_c, 2, 69, 70
3, 92640, Note_off_c, 2, 69, 0
3, 92640, Note_on_c, 2, 68, 66
3, 92880, Note_off_c, 2, 68, 0
3, 92880, Note_on_c, 2, 66, 66
3, 93120, Note_off_c, 2, 66, 0
3, 93120, Note_on_c, 2, 64, 65
3, 94560, Note_off_c, 2, 64, 0
3, 94560, Note_on_c, 2, 63, 61
3, 94800, Note_off_c, 2, 63, 0
3, 94800, Note_on_c, 2, 61, 60
3, 95040, Note_off_c, 2, 61, 0
3, 95040, Note_on_c, 2, 60, 60
3, 95520, Note_off_c, 2, 60, 0
3, 95520, Note_on_c, 2, 61, 59
3, 95760, Note_off_c, 2, 61, 0
3, 95760, Note_on_c, 2, 63, 58
3, 96000, Note_off_c, 2, 63, 0
3, 97440, Note_on_c, 2, 59, 57
3, 97680, Note_off_c, 2, 59, 0
3, 97680, Note_on_c, 2, 61, 57
3, 97920, Note_off_c, 2, 61, 0
3, 98400, Note_on_c, 2, 62, 57
3, 99360, Note_off_c, 2, 62, 0
3, 99360, Note_on_c, 2, 64, 58
3, 99600, Note_off_c, 2, 64, 0
3, 99600, Note_on_c, 2, 66, 59
3, 99840, Note_off_c, 2, 66, 0
3, 99840, Note_on_c, 2, 67, 59
3, 100800, Note_off_c, 2, 67, 0
3, 100800, Note_on_c, 2, 64, 60
3, 101280, Note_off_c, 2, 64, 0
3, 101280, Note_on_c, 2, 61, 60
3, 102240, Note_off_c, 2, 61, 0
3, 102240, Note_on_c, 2, 62, 61
3, 102480, Note_off_c, 2, 62, 0
3, 102480, Note_on_c, 2, 64, 61
3, 102720, Note_off_c, 2, 64, 0
3, 102720, Note_on_c, 2, 62, 61
3, 103680, Note_off_c, 2, 62, 0
3, 103680, Note_on_c, 2, 60, 62
3, 104160, Note_on_c, 2, 54, 62
3, 104400, Note_off_c, 2, 54, 0
3, 104400, Note_on_c, 2, 55, 63
3, 104640, Note_off_c, 2, 55, 0
3, 104640, Note_off_c, 2, 60, 0
3, 104640, Note_on_c, 2, 57, 63
3, 105600, Note_off_c, 2, 57, 0
3, 105600, Note_on_c, 2, 55, 64
3, 106560, Note_off_c, 2, 55, 0
3, 106560, Note_on_c, 2, 55, 64
3, 107520, Note_off_c, 2, 55, 0
3, 107520, Note_on_c, 2, 60, 65
3, 108480, Note_off_c, 2, 60, 0
3, 108480, Note_on_c, 2, 65, 65
3, 109440, Note_off_c, 2, 65, 0
3, 109440, Note_on_c, 2, 58, 60
3, 110400, Note_off_c, 2, 58, 0
3, 110400, Note_on_c, 2, 68, 56
3, 111600, Note_off_c, 2, 68, 0
3, 113760, Note_on_c, 2, 66, 50
3, 114240, Note_off_c, 2, 66, 0
3, 114240, Note_on_c, 2, 65, 51
3, 114720, Note_off_c, 2, 65, 0
3, 114720, Note_on_c, 2, 61, 51
3, 115680, Note_off_c, 2, 61, 0
3, 115680, Note_on_c, 2, 59, 57
3, 116640, Note_off_c, 2, 59, 0
3, 116640, Note_on_c, 2, 61, 53
3, 116760, Note_off_c, 2, 61, 0
3, 116760, Note_on_c, 2, 59, 53
3, 116880, Note_off_c, 2, 59, 0
3, 116880, Note_on_c, 2, 58, 53
3, 117000, Note_off_c, 2, 58, 0
3, 117000, Note_on_c, 2, 56, 53
3, 117120, Note_off_c, 2, 56, 0
3, 117120, Note_on_c, 2, 61, 53
3, 117360, Note_off_c, 2, 61, 0
3, 117600, Note_on_c, 2, 61, 54
3, 118080, Note_off_c, 2, 61, 0
3, 118080, Note_on_c, 2, 59, 54
3, 118560, Note_off_c, 2, 59, 0
3, 118560, Note_on_c, 2, 58, 54
3, 119040, Note_off_c, 2, 58, 0
3, 120000, Note_on_c, 2, 58, 56
3, 120960, Note_off_c, 2, 58, 0
3, 120960, Note_on_c, 2, 59, 57
3, 121920, Note_off_c, 2, 59, 0
3, 121920, Note_on_c, 2, 58, 57
3, 123360, Note_off_c, 2, 58, 0
3, 123360, Note_on_c, 2, 58, 59
3, 123600, Note_off_c, 2, 58, 0
3, 123600, Note_on_c, 2, 56, 59
3, 123840, Note_off_c, 2, 56, 0
3, 123840, Note_on_c, 2, 55, 59
3, 124320, Note_off_c, 2, 55, 0
3, 124320, Note_on_c, 2, 58, 60
3, 124320, Note_on_c, 2, 55, 60
3, 124800, Note_off_c, 2, 55, 0
3, 124800, Note_off_c, 2, 58, 0
3, 124800, Note_on_c, 2, 56, 60
3, 125280, Note_off_c, 2, 56, 0
3, 125280, Note_on_c, 2, 61, 60
3, 125760, Note_off_c, 2, 61, 0
3, 125760, Note_on_c, 2, 59, 61
3, 126240, Note_off_c, 2, 59, 0
3, 126240, Note_on_c, 2, 58, 61
3, 127087, Note_off_c, 2, 58, 0
3, 128160, Note_on_c, 2, 58, 61
3, 128640, Note_off_c, 2, 58, 0
3, 131520, Note_on_c, 2, 56, 58
3, 132720, Note_off_c, 2, 56, 0
3, 132960, Note_on_c, 2, 61, 66
3, 133920, Note_off_c, 2, 61, 0
3, 133920, Note_on_c, 2, 63, 63
3, 134040, Note_off_c, 2, 63, 0
3, 134040, Note_on_c, 2, 61, 63
3, 134160, Note_off_c, 2, 61, 0
3, 134160, Note_on_c, 2, 60, 63
3, 134280, Note_off_c, 2, 60, 0
3, 134280, Note_on_c, 2, 58, 63
3, 134400, Note_off_c, 2, 58, 0
3, 134400, Note_on_c, 2, 60, 64
3, 134760, Note_off_c, 2, 60, 0
3, 135360, Note_on_c, 2, 68, 66
3, 135840, Note_off_c, 2, 68, 0
3, 135840, Note_on_c, 2, 61, 67
3, 136560, Note_off_c, 2, 61, 0
3, 137280, Note_on_c, 2, 70, 69
3, 137760, Note_off_c, 2, 70, 0
3, 137760, Note_on_c, 2, 63, 70
3, 138360, Note_on_c, 2, 61, 71
3, 138480, Note_off_c, 2, 61, 0
3, 138480, Note_on_c, 2, 60, 71
3, 138600, Note_off_c, 2, 60, 0
3, 138600, Note_on_c, 2, 59, 71
3, 138720, Note_off_c, 2, 59, 0
3, 138720, Note_off_c, 2, 63, 0
3, 138720, Note_on_c, 2, 60, 71
3, 139320, Note_off_c, 2, 60, 0
3, 139320, Note_on_c, 2, 58, 70
3, 139440, Note_off_c, 2, 58, 0
3, 139440, Note_on_c, 2, 56, 70
3, 139560, Note_off_c, 2, 56, 0
3, 139560, Note_on_c, 2, 55, 70
3, 139680, Note_off_c, 2, 55, 0
3, 139680, Note_on_c, 2, 56, 70
3, 140280, Note_off_c, 2, 56, 0
3, 140280, Note_on_c, 2, 55, 69
3, 140400, Note_off_c, 2, 55, 0
3, 140400, Note_on_c, 2, 53, 69
3, 140520, Note_off_c, 2, 53, 0
3, 140520, Note_on_c, 2, 52, 69
3, 140640, Note_off_c, 2, 52, 0
3, 140640, Note_on_c, 2, 53, 69
3, 140760, Note_off_c, 2, 53, 0
3, 140760, Note_on_c, 2, 51, 69
3, 140880, Note_off_c, 2, 51, 0
3, 140880, Note_on_c, 2, 50, 69
3, 141000, Note_off_c, 2, 50, 0
3, 141000, Note_on_c, 2, 49, 69
3, 141120, Note_off_c, 2, 49, 0
3, 141120, Note_on_c, 2, 50, 68
3, 141600, Note_off_c, 2, 50, 0
3, 141600, Note_on_c, 2, 59, 68
3, 141720, Note_off_c, 2, 59, 0
3, 141720, Note_on_c, 2, 60, 68
3, 141840, Note_off_c, 2, 60, 0
3, 141840, Note_on_c, 2, 58, 68
3, 141960, Note_off_c, 2, 58, 0
3, 141960, Note_on_c, 2, 56, 68
3, 142080, Note_off_c, 2, 56, 0
3, 142080, Note_on_c, 2, 55, 67
3, 142440, Note_off_c, 2, 55, 0
3, 150240, Note_on_c, 2, 55, 59
3, 150240, Note_on_c, 2, 60, 59
3, 150240, Note_on_c, 2, 51, 59
3, 151200, Note_off_c, 2, 51, 0
3, 151200, Note_off_c, 2, 60, 0
3, 151200, Note_off_c, 2, 55, 0
3, 151200, Note_on_c, 2, 55, 62
3, 151200, Note_on_c, 2, 60, 62
3, 151680, Note_off_c, 2, 60, 0
3, 151680, Note_off_c, 2, 55, 0
3, 151680, Note_on_c, 2, 56, 63
3, 151920, Note_off_c, 2, 56, 0
3, 152160, Note_on_c, 2, 56, 65
3, 152160, Note_on_c, 2, 58, 65
3, 153120, Note_off_c, 2, 58, 0
3, 153120, Note_off_c, 2, 56, 0
3, 153120, Note_on_c, 2, 62, 67
3, 153120, Note_on_c, 2, 56, 67
3, 153600, Note_off_c, 2, 56, 0
3, 153600, Note_off_c, 2, 62, 0
3, 153600, Note_on_c, 2, 58, 69
3, 153840, Note_off_c, 2, 58, 0
3, 154080, Note_on_c, 2, 63, 70
3, 154080, Note_on_c, 2, 58, 70
3, 154080, Note_on_c, 2, 55, 70
3, 155040, Note_off_c, 2, 55, 0
3, 155040, Note_off_c, 2, 58, 0
3, 155040, Note_off_c, 2, 63, 0
3, 155040, Note_on_c, 2, 64, 73
3, 155040, Note_on_c, 2, 58, 73
3, 155520, Note_off_c, 2, 58, 0
3, 155520, Note_off_c, 2, 64, 0
3, 155520, Note_on_c, 2, 60, 71
3, 155760, Note_off_c, 2, 60, 0
3, 156000, Note_on_c, 2, 65, 70
3, 156720, Note_off_c, 2, 65, 0
3, 156960, Note_on_c, 2, 62, 68
3, 157440, Note_off_c, 2, 62, 0
3, 157920, Note_on_c, 2, 65, 66
3, 158400, Note_off_c, 2, 65, 0
3, 158400, Note_on_c, 2, 67, 65
3, 158760, Note_off_c, 2, 67, 0
3, 158880, Note_on_c, 2, 60, 64
3, 159360, Note_off_c, 2, 60, 0
3, 159360, Note_on_c, 2, 60, 63
3, 159720, Note_off_c, 2, 60, 0
3, 159840, Note_on_c, 2, 58, 63
3, 160320, Note_off_c, 2, 58, 0
3, 160320, Note_on_c, 2, 60, 62
3, 160680, Note_off_c, 2, 60, 0
3, 160800, Note_on_c, 2, 65, 61
3, 161640, Note_off_c, 2, 65, 0
3, 165600, Note_on_c, 2, 65, 63
3, 166080, Note_off_c, 2, 65, 0
3, 166080, Note_on_c, 2, 62, 63
3, 166560, Note_off_c, 2, 62, 0
3, 166560, Note_on_c, 2, 60, 63
3, 167040, Note_off_c, 2, 60, 0
3, 167040, Note_on_c, 2, 58, 62
3, 167280, Note_off_c, 2, 58, 0
3, 167520, Note_on_c, 2, 63, 62
3, 168472, Note_off_c, 2, 63, 0
3, 168480, Note_on_c, 2, 63, 61
3, 169080, Note_on_c, 2, 62, 61
3, 169087, Note_off_c, 2, 63, 0
3, 169200, Note_off_c, 2, 62, 0
3, 169200, Note_on_c, 2, 60, 61
3, 169320, Note_off_c, 2, 60, 0
3, 169320, Note_on_c, 2, 58, 61
3, 169440, Note_off_c, 2, 58, 0
3, 169440, Note_on_c, 2, 57, 61
3, 169680, Note_off_c, 2, 57, 0
3, 169680, Note_on_c, 2, 58, 60
3, 169800, Note_off_c, 2, 58, 0
3, 169800, Note_on_c, 2, 60, 60
3, 169920, Note_off_c, 2, 60, 0
3, 169920, Note_on_c, 2, 62, 60
3, 170160, Note_off_c, 2, 62, 0
3, 170160, Note_on_c, 2, 64, 60
3, 170280, Note_off_c, 2, 64, 0
3, 170280, Note_on_c, 2, 65, 60
3, 170400, Note_off_c, 2, 65, 0
3, 170400, Note_on_c, 2, 67, 60
3, 170880, Note_off_c, 2, 67, 0
3, 171000, Note_on_c, 2, 62, 59
3, 171120, Note_off_c, 2, 62, 0
3, 171120, Note_on_c, 2, 60, 59
3, 171240, Note_off_c, 2, 60, 0
3, 171240, Note_on_c, 2, 58, 59
3, 172320, Note_off_c, 2, 58, 0
3, 172320, Note_on_c, 2, 58, 59
3, 172320, Note_on_c, 2, 60, 59
3, 172800, Note_off_c, 2, 60, 0
3, 172800, Note_off_c, 2, 58, 0
3, 172800, Note_on_c, 2, 57, 57
3, 173160, Note_off_c, 2, 57, 0
3, 189120, Note_on_c, 2, 63, 44
3, 189600, Note_off_c, 2, 63, 0
3, 189600, Note_on_c, 2, 62, 44
3, 190440, Note_off_c, 2, 62, 0
3, 192480, Note_on_c, 2, 58, 58
3, 192960, Note_off_c, 2, 58, 0
3, 195840, Control_c, 2, 64, 127
3, 196080, Note_on_c, 2, 57, 69
3, 196200, Note_off_c, 2, 57, 0
3, 196200, Note_on_c, 2, 63, 68
3, 196320, Note_off_c, 2, 63, 0
3, 196320, Note_on_c, 2, 66, 68
3, 196440, Note_off_c, 2, 66, 0
3, 197640, Control_c, 2, 64, 0
3, 197760, Control_c, 2, 64, 127
3, 198120, Note_on_c, 2, 56, 70
3, 198240, Note_off_c, 2, 56, 0
3, 198240, Note_on_c, 2, 62, 71
3, 198360, Note_off_c, 2, 62, 0
3, 198360, Note_on_c, 2, 65, 72
3, 198480, Note_off_c, 2, 65, 0
3, 202080, Control_c, 2, 64, 0
3, 202080, Note_on_c, 2, 62, 53
3, 202560, Note_off_c, 2, 62, 0
3, 202560, Note_on_c, 2, 60, 55
3, 203040, Note_off_c, 2, 60, 0
3, 203040, Note_on_c, 2, 57, 57
3, 203040, Note_on_c, 2, 60, 57
3, 203520, Note_off_c, 2, 60, 0
3, 203520, Note_off_c, 2, 57, 0
3, 203520, Note_on_c, 2, 59, 59
3, 203880, Note_off_c, 2, 59, 0
3, 204960, Note_on_c, 2, 59, 69
3, 205440, Note_off_c, 2, 59, 0
3, 205440, Note_on_c, 2, 60, 71
3, 205800, Note_off_c, 2, 60, 0
3, 205920, Note_on_c, 2, 63, 73
3, 205920, Note_on_c, 2, 66, 73
3, 206640, Note_off_c, 2, 66, 0
3, 206640, Note_off_c, 2, 63, 0
3, 206880, Note_on_c, 2, 69, 77
3, 206880, Note_on_c, 2, 63, 77
3, 207360, Note_off_c, 2, 63, 0
3, 207360, Note_off_c, 2, 69, 0
3, 207360, Note_on_c, 2, 62, 79
3, 207600, Note_on_c, 2, 68, 77
3, 207840, Note_off_c, 2, 68, 0
3, 207840, Note_on_c, 2, 70, 76
3, 208080, Note_off_c, 2, 70, 0
3, 208080, Note_on_c, 2, 68, 75
3, 208320, Note_off_c, 2, 68, 0
3, 208320, Note_off_c, 2, 62, 0
3, 208320, Note_on_c, 2, 67, 75
3, 209280, Note_off_c, 2, 67, 0
3, 209280, Note_on_c, 2, 66, 72
3, 210240, Note_off_c, 2, 66, 0
3, 210240, Note_on_c, 2, 65, 70
3, 211440, Note_off_c, 2, 65, 0
3, 211440, Note_on_c, 2, 64, 67
3, 211920, Note_off_c, 2, 64, 0
3, 211920, Note_on_c, 2, 63, 65
3, 212400, Note_off_c, 2, 63, 0
3, 212400, Note_on_c, 2, 62, 64
3, 212880, Note_off_c, 2, 62, 0
3, 212880, Note_on_c, 2, 60, 63
3, 213120, Note_off_c, 2, 60, 0
3, 214560, Note_on_c, 2, 57, 81
3, 214560, Note_on_c, 2, 60, 81
3, 215040, Note_off_c, 2, 60, 0
3, 215040, Note_off_c, 2, 57, 0
3, 215040, Note_on_c, 2, 63, 86
3, 215040, Note_on_c, 2, 66, 86
3, 215040, Note_on_c, 2, 60, 86
3, 215040, Note_on_c, 2, 69, 86
3, 216480, Note_off_c, 2, 69, 0
3, 216480, Note_off_c, 2, 60, 0
3, 216480, Note_off_c, 2, 66, 0
3, 216480, Note_off_c, 2, 63, 0
3, 216480, Note_on_c, 2, 57, 82
3, 216480, Note_on_c, 2, 63, 82
3, 216480, Note_on_c, 2, 60, 82
3, 216960, Note_off_c, 2, 60, 0
3, 216960, Note_off_c, 2, 63, 0
3, 216960, Note_off_c, 2, 57, 0
3, 216960, Note_on_c, 2, 56, 80
3, 216960, Note_on_c, 2, 62, 80
3, 217320, Note_off_c, 2, 62, 0
3, 217320, Note_off_c, 2, 56, 0
3, 218400, Note_on_c, 2, 59, 92
3, 218400, Note_on_c, 2, 62, 92
3, 218880, Note_off_c, 2, 62, 0
3, 218880, Note_off_c, 2, 59, 0
3, 218880, Note_on_c, 2, 68, 94
3, 218880, Note_on_c, 2, 74, 94
3, 218880, Note_on_c, 2, 71, 94
3, 218880, Note_on_c, 2, 65, 94
3, 220320, Note_off_c, 2, 65, 0
3, 220320, Note_off_c, 2, 71, 0
3, 220320, Note_off_c, 2, 74, 0
3, 220320, Note_off_c, 2, 68, 0
3, 220320, Note_on_c, 2, 62, 76
3, 220320, Note_on_c, 2, 59, 76
3, 220800, Note_off_c, 2, 59, 0
3, 220800, Note_off_c, 2, 62, 0
3, 220800, Note_on_c, 2, 63, 71
3, 220800, Note_on_c, 2, 60, 71
3, 221280, Note_off_c, 2, 60, 0
3, 221280, Note_off_c, 2, 63, 0
3, 221280, Note_on_c, 2, 59, 67
3, 221280, Note_on_c, 2, 65, 67
3, 221760, Note_off_c, 2, 59, 0
3, 221760, Note_on_c, 2, 60, 62
3, 222240, Note_off_c, 2, 60, 0
3, 222240, Note_on_c, 2, 62, 58
3, 222720, Note_off_c, 2, 62, 0
3, 222720, Note_on_c, 2, 60, 54
3, 223080, Note_off_c, 2, 60, 0
3, 223095, Note_off_c, 2, 65, 0
3, 223200, Note_on_c, 2, 59, 49
3, 223200, Note_on_c, 2, 65, 49
3, 223680, Note_off_c, 2, 59, 0
3, 223680, Note_on_c, 2, 60, 45
3, 224160, Note_off_c, 2, 60, 0
3, 224160, Note_off_c, 2, 65, 0
3, 224160, Note_on_c, 2, 62, 41
3, 224160, Note_on_c, 2, 65, 41
3, 224640, Control_c, 2, 64, 127
3, 224640, Note_off_c, 2, 65, 0
3, 224640, Note_off_c, 2, 62, 0
3, 225000, Note_on_c, 2, 59, 33
3, 225120, Note_off_c, 2, 59, 0
3, 225120, Note_on_c, 2, 65, 32
3, 225240, Note_off_c, 2, 65, 0
3, 225240, Note_on_c, 2, 67, 31
3, 225360, Note_off_c, 2, 67, 0
3, 226560, Control_c, 2, 64, 0
3, 228480, Note_on_c, 2, 55, 36
3, 229440, Note_off_c, 2, 55, 0
3, 229440, Note_on_c, 2, 62, 37
3, 229440, Note_on_c, 2, 55, 37
3, 230400, Note_off_c, 2, 55, 0
3, 230400, Note_off_c, 2, 62, 0
3, 230400, Note_on_c, 2, 55, 39
3, 230400, Note_on_c, 2, 60, 39
3, 231360, Note_off_c, 2, 60, 0
3, 231360, Note_off_c, 2, 55, 0
3, 231360, Note_on_c, 2, 57, 40
3, 231360, Note_on_c, 2, 62, 40
3, 232320, Note_off_c, 2, 57, 0
3, 232800, Note_off_c, 2, 62, 0
3, 232800, Note_on_c, 2, 62, 41
3, 233280, Note_off_c, 2, 62, 0
3, 233280, Note_on_c, 2, 63, 42
3, 233760, Note_off_c, 2, 63, 0
3, 233760, Note_on_c, 2, 64, 42
3, 234240, Note_off_c, 2, 64, 0
3, 234240, Note_on_c, 2, 60, 43
3, 235200, Note_off_c, 2, 60, 0
3, 235680, Note_on_c, 2, 60, 40
3, 236160, Note_off_c, 2, 60, 0
3, 236160, Note_on_c, 2, 57, 40
3, 236160, Note_on_c, 2, 60, 40
3, 238080, Note_off_c, 2, 60, 0
3, 238080, Note_off_c, 2, 57, 0
3, 238080, Note_on_c, 2, 60, 37
3, 240000, Note_off_c, 2, 60, 0
3, 240000, Note_on_c, 2, 59, 34
3, 240000, Note_on_c, 2, 55, 34
3, 241920, Control_c, 2, 64, 127
3, 241920, Note_off_c, 2, 55, 0
3, 241920, Note_off_c, 2, 59, 0
3, 242400, Note_on_c, 2, 52, 30
3, 242520, Note_off_c, 2, 52, 0
3, 242520, Note_on_c, 2, 55, 30
3, 242640, Note_off_c, 2, 55, 0
3, 242640, Note_on_c, 2, 60, 30
3, 242760, Note_off_c, 2, 60, 0
3, 242760, Note_on_c, 2, 64, 30
3, 242880, Note_off_c, 2, 64, 0
3, 245760, Control_c, 2, 64, 0
3, 247200, Note_on_c, 2, 60, 30
3, 248047, Note_off_c, 2, 60, 0
3, 249120, Note_on_c, 2, 59, 31
3, 249600, Note_off_c, 2, 59, 0
3, 249600, Note_on_c, 2, 60, 31
3, 249960, Note_off_c, 2, 60, 0
3, 251040, Note_on_c, 2, 72, 31
3, 251880, Note_off_c, 2, 72, 0
3, 252960, Note_on_c, 2, 71, 32
3, 253440, Note_off_c, 2, 71, 0
3, 253440, Note_on_c, 2, 72, 32
3, 253800, Note_off_c, 2, 72, 0
3, 254880, Note_on_c, 2, 66, 32
3, 255360, Note_off_c, 2, 66, 0
3, 255360, Note_on_c, 2, 67, 32
3, 255720, Note_off_c, 2, 67, 0
3, 256800, Note_on_c, 2, 57, 32
3, 257640, Note_off_c, 2, 57, 0
3, 257760, Note_on_c, 2, 66, 33
3, 258240, Note_off_c, 2, 66, 0
3, 258240, Note_on_c, 2, 67, 33
3, 258720, Note_off_c, 2, 67, 0
3, 258720, Note_on_c, 2, 66, 33
3, 259200, Note_off_c, 2, 66, 0
3, 259200, Note_on_c, 2, 67, 33
3, 259560, Note_off_c, 2, 67, 0
3, 260640, Note_on_c, 2, 73, 33
3, 260640, Note_on_c, 2, 69, 33
3, 261120, Note_off_c, 2, 73, 0
3, 261480, Note_off_c, 2, 69, 0
3, 262560, Note_on_c, 2, 61, 34
3, 263040, Note_off_c, 2, 61, 0
3, 263040, Note_on_c, 2, 62, 34
3, 263400, Note_off_c, 2, 62, 0
3, 263520, Note_on_c, 2, 64, 34
3, 264000, Note_off_c, 2, 64, 0
3, 264480, Note_on_c, 2, 68, 34
3, 264960, Note_off_c, 2, 68, 0
3, 264960, Note_on_c, 2, 69, 34
3, 265320, Note_off_c, 2, 69, 0
3, 265440, Note_on_c, 2, 71, 35
3, 265920, Note_off_c, 2, 71, 0
3, 266400, Note_on_c, 2, 75, 35
3, 266880, Note_off_c, 2, 75, 0
3, 266880, Note_on_c, 2, 76, 35
3, 267240, Note_off_c, 2, 76, 0
3, 269280, Note_on_c, 2, 64, 36
3, 270240, Note_off_c, 2, 64, 0
3, 270240, Note_on_c, 2, 63, 36
3, 270240, Note_on_c, 2, 66, 36
3, 270720, Note_off_c, 2, 66, 0
3, 270720, Note_off_c, 2, 63, 0
3, 270720, Note_on_c, 2, 64, 36
3, 271200, Note_off_c, 2, 64, 0
3, 271200, Note_on_c, 2, 61, 36
3, 271680, Note_on_c, 2, 64, 36
3, 272160, Note_off_c, 2, 64, 0
3, 272160, Note_off_c, 2, 61, 0
3, 272160, Note_on_c, 2, 63, 36
3, 272640, Note_off_c, 2, 63, 0
3, 272640, Note_on_c, 2, 64, 36
3, 273120, Note_off_c, 2, 64, 0
3, 273120, Note_on_c, 2, 61, 37
3, 274080, Note_off_c, 2, 61, 0
3, 274080, Note_on_c, 2, 60, 37
3, 274560, Note_off_c, 2, 60, 0
3, 274560, Note_on_c, 2, 61, 37
3, 275040, Note_off_c, 2, 61, 0
3, 275040, Note_on_c, 2, 56, 37
3, 275520, Note_off_c, 2, 56, 0
3, 275520, Note_on_c, 2, 61, 37
3, 276000, Note_off_c, 2, 61, 0
3, 276000, Note_on_c, 2, 58, 37
3, 276480, Note_off_c, 2, 58, 0
3, 276480, Note_on_c, 2, 59, 37
3, 276840, Note_off_c, 2, 59, 0
3, 276960, Note_on_c, 2, 71, 37
3, 277920, Note_off_c, 2, 71, 0
3, 277920, Note_on_c, 2, 71, 38
3, 278760, Note_off_c, 2, 71, 0
3, 279840, Note_on_c, 2, 70, 38
3, 280320, Note_off_c, 2, 70, 0
3, 280320, Note_on_c, 2, 71, 38
3, 280680, Note_off_c, 2, 71, 0
3, 280800, Note_on_c, 2, 66, 38
3, 281280, Note_off_c, 2, 66, 0
3, 281280, Note_on_c, 2, 71, 39
3, 282000, Note_off_c, 2, 71, 0
3, 282000, Note_on_c, 2, 73, 39
3, 282240, Note_off_c, 2, 73, 0
3, 282240, Note_on_c, 2, 70, 39
3, 282600, Note_off_c, 2, 70, 0
3, 283680, Note_on_c, 2, 60, 39
3, 284160, Note_off_c, 2, 60, 0
3, 284160, Note_on_c, 2, 61, 39
3, 284520, Note_off_c, 2, 61, 0
3, 284640, Note_on_c, 2, 56, 39
3, 285120, Note_off_c, 2, 56, 0
3, 285120, Note_on_c, 2, 58, 39
3, 285600, Note_off_c, 2, 58, 0
3, 285600, Note_on_c, 2, 54, 40
3, 286080, Note_off_c, 2, 54, 0
3, 286080, Note_on_c, 2, 53, 40
3, 286440, Note_off_c, 2, 53, 0
3, 286560, Note_on_c, 2, 53, 40
3, 287040, Note_off_c, 2, 53, 0
3, 287040, Note_on_c, 2, 54, 40
3, 287520, Note_off_c, 2, 54, 0
3, 287520, Note_on_c, 2, 58, 40
3, 288000, Note_off_c, 2, 58, 0
3, 288000, Note_on_c, 2, 56, 40
3, 288360, Note_off_c, 2, 56, 0
3, 288480, Note_on_c, 2, 61, 40
3, 289440, Note_off_c, 2, 61, 0
3, 289440, Note_on_c, 2, 63, 41
3, 290272, Note_off_c, 2, 63, 0
3, 290880, Note_on_c, 2, 63, 41
3, 292207, Note_off_c, 2, 63, 0
3, 292320, Note_on_c, 2, 60, 41
3, 292800, Note_off_c, 2, 60, 0
3, 292800, Note_on_c, 2, 61, 41
3, 293280, Note_off_c, 2, 61, 0
3, 293280, Note_on_c, 2, 58, 42
3, 293760, Note_off_c, 2, 58, 0
3, 293760, Note_on_c, 2, 57, 42
3, 294120, Note_off_c, 2, 57, 0
3, 294240, Note_on_c, 2, 54, 42
3, 295200, Note_off_c, 2, 54, 0
3, 295200, Note_on_c, 2, 52, 42
3, 295680, Note_off_c, 2, 52, 0
3, 295680, Note_on_c, 2, 53, 42
3, 296040, Note_off_c, 2, 53, 0
3, 296160, Note_on_c, 2, 59, 42
3, 296640, Note_off_c, 2, 59, 0
3, 296640, Note_on_c, 2, 59, 42
3, 297120, Note_off_c, 2, 59, 0
3, 297120, Note_on_c, 2, 58, 42
3, 297600, Note_off_c, 2, 58, 0
3, 297600, Note_on_c, 2, 56, 43
3, 297960, Note_off_c, 2, 56, 0
3, 302160, Note_on_c, 2, 66, 44
3, 302640, Note_off_c, 2, 66, 0
3, 302640, Note_on_c, 2, 65, 44
3, 303120, Note_off_c, 2, 65, 0
3, 303120, Note_on_c, 2, 67, 44
3, 303600, Note_off_c, 2, 67, 0
3, 303600, Note_on_c, 2, 63, 44
3, 303840, Note_off_c, 2, 63, 0
3, 304800, Note_on_c, 2, 67, 44
3, 305280, Note_off_c, 2, 67, 0
3, 305280, Note_on_c, 2, 68, 44
3, 305640, Note_off_c, 2, 68, 0
3, 306000, Note_on_c, 2, 63, 45
3, 306480, Note_off_c, 2, 63, 0
3, 306480, Note_on_c, 2, 68, 45
3, 306960, Note_off_c, 2, 68, 0
3, 306960, Note_on_c, 2, 70, 45
3, 307200, Note_off_c, 2, 70, 0
3, 307200, Note_on_c, 2, 67, 45
3, 307560, Note_off_c, 2, 67, 0
3, 307920, Note_on_c, 2, 65, 45
3, 308400, Note_off_c, 2, 65, 0
3, 308400, Note_on_c, 2, 70, 45
3, 308640, Note_off_c, 2, 70, 0
3, 308640, Note_on_c, 2, 69, 45
3, 309120, Note_off_c, 2, 69, 0
3, 309120, Note_on_c, 2, 70, 45
3, 309480, Note_off_c, 2, 70, 0
3, 310560, Note_on_c, 2, 58, 46
3, 311040, Note_off_c, 2, 58, 0
3, 311040, Note_on_c, 2, 57, 46
3, 311400, Note_off_c, 2, 57, 0
3, 311520, Note_on_c, 2, 58, 46
3, 312480, Note_off_c, 2, 58, 0
3, 312480, Note_on_c, 2, 63, 46
3, 312960, Note_off_c, 2, 63, 0
3, 312960, Note_on_c, 2, 62, 46
3, 313320, Note_off_c, 2, 62, 0
3, 313440, Note_on_c, 2, 59, 47
3, 313920, Note_off_c, 2, 59, 0
3, 313920, Note_on_c, 2, 58, 47
3, 314400, Note_off_c, 2, 58, 0
3, 314400, Note_on_c, 2, 57, 47
3, 314880, Note_off_c, 2, 57, 0
3, 314880, Note_on_c, 2, 58, 47
3, 315240, Note_off_c, 2, 58, 0
3, 315360, Note_on_c, 2, 60, 47
3, 315840, Note_off_c, 2, 60, 0
3, 315840, Note_on_c, 2, 62, 47
3, 316320, Note_off_c, 2, 62, 0
3, 316320, Note_on_c, 2, 64, 47
3, 316800, Note_off_c, 2, 64, 0
3, 316800, Note_on_c, 2, 65, 47
3, 316800, Note_on_c, 2, 53, 47
3, 317160, Note_off_c, 2, 53, 0
3, 317160, Note_off_c, 2, 65, 0
3, 318240, Note_on_c, 2, 69, 48
3, 318720, Note_off_c, 2, 69, 0
3, 318720, Note_on_c, 2, 67, 48
3, 319080, Note_off_c, 2, 67, 0
3, 320160, Note_on_c, 2, 64, 48
3, 321000, Note_off_c, 2, 64, 0
3, 322080, Note_on_c, 2, 61, 49
3, 322560, Note_off_c, 2, 61, 0
3, 322560, Note_on_c, 2, 62, 49
3, 322920, Note_off_c, 2, 62, 0
3, 323520, Note_on_c, 2, 53, 49
3, 324000, Note_off_c, 2, 53, 0
3, 324000, Note_on_c, 2, 53, 49
3, 324480, Note_off_c, 2, 53, 0
3, 324480, Note_on_c, 2, 52, 49
3, 324840, Note_off_c, 2, 52, 0
3, 325920, Note_on_c, 2, 70, 50
3, 326760, Note_off_c, 2, 70, 0
3, 326880, Note_on_c, 2, 61, 50
3, 327360, Note_off_c, 2, 61, 0
3, 327360, Note_on_c, 2, 62, 50
3, 327840, Note_off_c, 2, 62, 0
3, 327840, Note_on_c, 2, 60, 50
3, 328320, Note_off_c, 2, 60, 0
3, 328320, Note_on_c, 2, 59, 50
3, 328680, Note_off_c, 2, 59, 0
3, 329760, Note_on_c, 2, 74, 51
3, 330600, Note_off_c, 2, 74, 0
3, 330720, Note_on_c, 2, 76, 51
3, 331200, Note_off_c, 2, 76, 0
3, 331200, Note_on_c, 2, 72, 51
3, 331680, Note_off_c, 2, 72, 0
3, 331680, Note_on_c, 2, 74, 51
3, 332160, Note_off_c, 2, 74, 0
3, 333600, Note_on_c, 2, 60, 52
3, 334440, Note_off_c, 2, 60, 0
3, 336000, Note_on_c, 2, 60, 52
3, 336360, Note_off_c, 2, 60, 0
3, 337440, Note_on_c, 2, 72, 52
3, 338280, Note_off_c, 2, 72, 0
3, 339360, Note_on_c, 2, 71, 53
3, 339840, Note_off_c, 2, 71, 0
3, 339840, Note_on_c, 2, 72, 53
3, 340200, Note_off_c, 2, 72, 0
3, 341280, Note_on_c, 2, 66, 53
3, 341760, Note_off_c, 2, 66, 0
3, 341760, Note_on_c, 2, 67, 54
3, 342120, Note_off_c, 2, 67, 0
3, 342240, Note_on_c, 2, 62, 54
3, 342720, Note_off_c, 2, 62, 0
3, 342720, Note_on_c, 2, 67, 54
3, 343440, Note_off_c, 2, 67, 0
3, 343440, Note_on_c, 2, 69, 54
3, 343680, Note_off_c, 2, 69, 0
3, 343680, Note_on_c, 2, 66, 54
3, 344040, Note_off_c, 2, 66, 0
3, 344160, Note_on_c, 2, 52, 54
3, 344640, Note_off_c, 2, 52, 0
3, 344640, Note_on_c, 2, 54, 54
3, 345120, Note_off_c, 2, 54, 0
3, 345120, Note_on_c, 2, 59, 54
3, 345600, Note_off_c, 2, 59, 0
3, 345600, Note_on_c, 2, 57, 54
3, 345960, Note_off_c, 2, 57, 0
3, 347040, Note_on_c, 2, 63, 55
3, 347520, Note_off_c, 2, 63, 0
3, 347520, Note_on_c, 2, 64, 55
3, 347880, Note_off_c, 2, 64, 0
3, 348960, Note_on_c, 2, 70, 55
3, 349440, Note_off_c, 2, 70, 0
3, 349440, Note_on_c, 2, 71, 55
3, 349800, Note_off_c, 2, 71, 0
3, 349920, Note_on_c, 2, 66, 56
3, 350880, Note_off_c, 2, 66, 0
3, 350880, Note_on_c, 2, 68, 56
3, 351360, Note_off_c, 2, 68, 0
3, 351360, Note_on_c, 2, 61, 56
3, 351720, Note_off_c, 2, 61, 0
3, 352080, Note_on_c, 2, 68, 56
3, 352320, Note_off_c, 2, 68, 0
3, 352320, Note_on_c, 2, 66, 56
3, 352560, Note_off_c, 2, 66, 0
3, 352560, Note_on_c, 2, 70, 56
3, 352800, Note_off_c, 2, 70, 0
3, 352800, Note_on_c, 2, 68, 56
3, 353040, Note_off_c, 2, 68, 0
3, 353040, Note_on_c, 2, 66, 56
3, 353280, Note_off_c, 2, 66, 0
3, 353280, Note_on_c, 2, 65, 56
3, 353520, Note_off_c, 2, 65, 0
3, 353520, Note_on_c, 2, 61, 56
3, 353712, Note_off_c, 2, 61, 0
3, 354720, Note_on_c, 2, 67, 57
3, 355200, Note_off_c, 2, 67, 0
3, 355200, Note_on_c, 2, 68, 57
3, 355560, Note_off_c, 2, 68, 0
3, 355680, Note_on_c, 2, 58, 57
3, 356160, Note_off_c, 2, 58, 0
3, 356160, Note_on_c, 2, 60, 57
3, 356640, Note_off_c, 2, 60, 0
3, 356640, Note_on_c, 2, 62, 57
3, 357120, Note_off_c, 2, 62, 0
3, 357600, Note_on_c, 2, 65, 57
3, 358080, Note_off_c, 2, 65, 0
3, 358080, Note_on_c, 2, 63, 58
3, 358560, Note_off_c, 2, 63, 0
3, 358560, Note_on_c, 2, 60, 58
3, 359040, Note_off_c, 2, 60, 0
3, 359040, Note_on_c, 2, 58, 58
3, 359400, Note_off_c, 2, 58, 0
3, 359520, Note_on_c, 2, 60, 58
3, 360000, Note_off_c, 2, 60, 0
3, 360000, Note_on_c, 2, 62, 58
3, 360480, Note_off_c, 2, 62, 0
3, 360480, Note_on_c, 2, 64, 58
3, 360960, Note_off_c, 2, 64, 0
3, 360960, Note_on_c, 2, 65, 58
3, 361320, Note_off_c, 2, 65, 0
3, 361440, Note_on_c, 2, 67, 58
3, 361920, Note_off_c, 2, 67, 0
3, 361920, Note_on_c, 2, 69, 59
3, 362400, Note_off_c, 2, 69, 0
3, 362400, Note_on_c, 2, 71, 59
3, 362880, Note_off_c, 2, 71, 0
3, 362880, Note_on_c, 2, 72, 59
3, 363240, Note_off_c, 2, 72, 0
3, 363360, Note_on_c, 2, 67, 59
3, 363840, Note_off_c, 2, 67, 0
3, 363840, Note_on_c, 2, 69, 59
3, 364320, Note_off_c, 2, 69, 0
3, 364320, Note_on_c, 2, 71, 59
3, 364800, Note_off_c, 2, 71, 0
3, 369120, Note_on_c, 2, 56, 51
3, 369600, Note_off_c, 2, 56, 0
3, 369600, Note_on_c, 2, 55, 51
3, 370080, Note_off_c, 2, 55, 0
3, 370080, Note_on_c, 2, 51, 50
3, 370560, Note_off_c, 2, 51, 0
3, 370560, Note_on_c, 2, 50, 50
3, 370920, Note_off_c, 2, 50, 0
3, 371040, Note_on_c, 2, 69, 50
3, 371520, Note_off_c, 2, 69, 0
3, 371520, Note_on_c, 2, 70, 49
3, 372000, Note_off_c, 2, 70, 0
3, 372000, Note_on_c, 2, 70, 49
3, 372480, Note_off_c, 2, 70, 0
3, 372480, Note_on_c, 2, 69, 49
3, 372840, Note_off_c, 2, 69, 0
3, 372960, Note_on_c, 2, 69, 48
3, 373440, Note_off_c, 2, 69, 0
3, 373440, Note_on_c, 2, 67, 48
3, 373920, Note_off_c, 2, 67, 0
3, 373920, Note_on_c, 2, 67, 48
3, 374400, Note_off_c, 2, 67, 0
3, 374400, Note_on_c, 2, 72, 47
3, 374880, Note_off_c, 2, 72, 0
3, 374880, Note_on_c, 2, 71, 47
3, 375360, Note_off_c, 2, 71, 0
3, 375360, Note_on_c, 2, 72, 47
3, 375720, Note_off_c, 2, 72, 0
3, 375840, Note_on_c, 2, 70, 46
3, 376320, Note_off_c, 2, 70, 0
3, 376320, Note_on_c, 2, 69, 46
3, 376800, Note_off_c, 2, 69, 0
3, 376800, Note_on_c, 2, 65, 46
3, 377280, Note_off_c, 2, 65, 0
3, 377280, Note_on_c, 2, 63, 45
3, 377760, Note_off_c, 2, 63, 0
3, 377760, Note_on_c, 2, 63, 45
3, 378240, Note_off_c, 2, 63, 0
3, 378240, Note_on_c, 2, 64, 45
3, 379200, Note_off_c, 2, 64, 0
3, 379200, Note_on_c, 2, 55, 44
3, 380160, Note_off_c, 2, 55, 0
3, 380160, Note_on_c, 2, 55, 43
3, 380520, Note_off_c, 2, 55, 0
3, 380640, Note_on_c, 2, 52, 43
3, 381120, Note_off_c, 2, 52, 0
3, 381120, Note_on_c, 2, 53, 43
3, 381600, Note_off_c, 2, 53, 0
3, 381600, Note_on_c, 2, 57, 42
3, 382080, Note_off_c, 2, 57, 0
3, 382080, Note_on_c, 2, 55, 43
3, 382560, Note_off_c, 2, 55, 0
3, 382560, Note_on_c, 2, 60, 42
3, 383520, Note_off_c, 2, 60, 0
3, 383520, Note_on_c, 2, 59, 41
3, 384000, Note_off_c, 2, 59, 0
3, 384000, Note_on_c, 2, 60, 41
3, 384360, Note_off_c, 2, 60, 0
3, 384480, Note_on_c, 2, 72, 40
3, 385440, Note_off_c, 2, 72, 0
3, 385440, Note_on_c, 2, 74, 40
3, 385920, Note_off_c, 2, 74, 0
3, 385920, Note_on_c, 2, 76, 39
3, 386280, Note_off_c, 2, 76, 0
3, 386880, Note_on_c, 2, 73, 39
3, 387840, Note_off_c, 2, 73, 0
3, 387840, Note_on_c, 2, 74, 38
3, 388800, Note_off_c, 2, 74, 0
3, 388800, Note_on_c, 2, 67, 37
3, 389760, Note_off_c, 2, 67, 0
3, 389760, Note_on_c, 2, 67, 37
3, 390240, Note_off_c, 2, 67, 0
3, 390240, End_track
4, 0, Start_track
4, 0, Title_t, "Unnamed Track"
4, 0, Control_c, 4, 0, 0
4, 0, Control_c, 4, 32, 0
4, 0, Program_c, 4, 0
4, 0, Control_c, 4, 7, 120
4, 0, Pitch_bend_c, 4, 8192
4, 0, Control_c, 4, 1, 0
4, 0, Control_c, 4, 64, 0
4, 0, Control_c, 4, 93, 28
4, 0, Control_c, 4, 91, 100
4, 0, Control_c, 4, 10, 55
4, 3840, Note_on_c, 4, 55, 43
4, 4800, Note_off_c, 4, 55, 0
4, 4800, Note_on_c, 4, 55, 43
4, 5760, Note_off_c, 4, 55, 0
4, 5760, Note_on_c, 4, 55, 44
4, 6720, Note_off_c, 4, 55, 0
4, 6720, Note_on_c, 4, 57, 44
4, 7680, Note_off_c, 4, 57, 0
4, 7680, Note_on_c, 4, 55, 45
4, 8640, Note_off_c, 4, 55, 0
4, 8640, Note_on_c, 4, 48, 45
4, 9600, Note_off_c, 4, 48, 0
4, 11040, Note_on_c, 4, 55, 47
4, 11872, Note_off_c, 4, 55, 0
4, 12000, Note_on_c, 4, 48, 47
4, 12480, Note_off_c, 4, 48, 0
4, 12480, Note_on_c, 4, 49, 48
4, 12960, Note_off_c, 4, 49, 0
4, 12960, Note_on_c, 4, 50, 48
4, 13440, Note_off_c, 4, 50, 0
4, 13440, Note_on_c, 4, 52, 48
4, 13800, Note_off_c, 4, 52, 0
4, 13920, Note_on_c, 4, 50, 48
4, 14400, Note_off_c, 4, 50, 0
4, 14400, Note_on_c, 4, 51, 49
4, 14880, Note_off_c, 4, 51, 0
4, 14880, Note_on_c, 4, 52, 49
4, 15360, Note_off_c, 4, 52, 0
4, 15360, Note_on_c, 4, 53, 49
4, 15720, Note_off_c, 4, 53, 0
4, 16800, Note_on_c, 4, 50, 47
4, 17640, Note_off_c, 4, 50, 0
4, 48480, Note_on_c, 4, 59, 63
4, 48720, Note_off_c, 4, 59, 0
4, 48720, Note_on_c, 4, 61, 64
4, 48840, Note_off_c, 4, 61, 0
4, 48840, Note_on_c, 4, 62, 64
4, 48960, Note_off_c, 4, 62, 0
4, 48960, Note_on_c, 4, 64, 64
4, 50160, Note_off_c, 4, 64, 0
4, 50160, Note_on_c, 4, 65, 65
4, 50400, Note_off_c, 4, 65, 0
4, 50400, Note_on_c, 4, 66, 65
4, 50880, Note_off_c, 4, 66, 0
4, 50880, Note_on_c, 4, 67, 65
4, 51360, Note_off_c, 4, 67, 0
4, 51360, Note_on_c, 4, 68, 64
4, 51840, Note_on_c, 4, 61, 64
4, 51841, Note_off_c, 4, 68, 0
4, 51960, Note_off_c, 4, 61, 0
4, 51960, Note_on_c, 4, 59, 64
4, 52080, Note_off_c, 4, 59, 0
4, 52080, Note_on_c, 4, 57, 64
4, 52200, Note_off_c, 4, 57, 0
4, 52200, Note_on_c, 4, 56, 64
4, 52320, Note_off_c, 4, 56, 0
4, 52320, Note_on_c, 4, 57, 63
4, 53280, Note_off_c, 4, 57, 0
4, 73440, Note_on_c, 4, 59, 78
4, 73920, Note_off_c, 4, 59, 0
4, 73920, Note_on_c, 4, 58, 78
4, 74400, Note_off_c, 4, 58, 0
4, 74400, Note_on_c, 4, 54, 79
4, 74880, Note_off_c, 4, 54, 0
4, 74880, Note_on_c, 4, 53, 79
4, 75240, Note_off_c, 4, 53, 0
4, 75360, Note_on_c, 4, 53, 77
4, 75360, Note_on_c, 4, 59, 77
4, 75840, Note_off_c, 4, 59, 0
4, 75840, Note_off_c, 4, 53, 0
4, 75840, Note_on_c, 4, 54, 75
4, 75840, Note_on_c, 4, 58, 75
4, 76320, Note_off_c, 4, 58, 0
4, 76320, Note_off_c, 4, 54, 0
4, 76320, Note_on_c, 4, 51, 73
4, 76320, Note_on_c, 4, 60, 73
4, 76800, Note_off_c, 4, 60, 0
4, 76800, Note_off_c, 4, 51, 0
4, 76800, Note_on_c, 4, 53, 71
4, 76800, Note_on_c, 4, 61, 71
4, 77152, Note_off_c, 4, 61, 0
4, 77167, Note_off_c, 4, 53, 0
4, 77280, Note_on_c, 4, 56, 69
4, 77760, Note_off_c, 4, 56, 0
4, 77760, Note_on_c, 4, 54, 67
4, 78127, Note_off_c, 4, 54, 0
4, 78240, Note_on_c, 4, 54, 65
4, 78720, Note_off_c, 4, 54, 0
4, 78720, Note_on_c, 4, 53, 63
4, 79087, Note_off_c, 4, 53, 0
4, 79200, Note_on_c, 4, 59, 61
4, 79680, Note_off_c, 4, 59, 0
4, 79680, Note_on_c, 4, 58, 59
4, 80160, Note_off_c, 4, 58, 0
4, 80160, Note_on_c, 4, 57, 57
4, 80160, Note_on_c, 4, 54, 57
4, 80640, Note_off_c, 4, 54, 0
4, 80640, Note_off_c, 4, 57, 0
4, 80640, Note_on_c, 4, 56, 55
4, 80640, Note_on_c, 4, 53, 55
4, 81000, Note_off_c, 4, 53, 0
4, 81000, Note_off_c, 4, 56, 0
4, 82080, Note_on_c, 4, 56, 57
4, 82560, Note_off_c, 4, 56, 0
4, 82560, Note_on_c, 4, 54, 57
4, 83520, Note_off_c, 4, 54, 0
4, 83520, Note_on_c, 4, 51, 59
4, 84480, Note_off_c, 4, 51, 0
4, 84480, Note_on_c, 4, 49, 60
4, 86400, Note_off_c, 4, 49, 0
4, 86400, Note_on_c, 4, 51, 64
4, 87360, Note_off_c, 4, 51, 0
4, 87360, Note_on_c, 4, 49, 65
4, 88320, Note_off_c, 4, 49, 0
4, 88320, Note_on_c, 4, 42, 67
4, 89280, Note_off_c, 4, 42, 0
4, 89280, Note_on_c, 4, 44, 68
4, 90240, Note_off_c, 4, 44, 0
4, 90240, Note_on_c, 4, 49, 70
4, 90720, Note_off_c, 4, 49, 0
4, 91200, Note_on_c, 4, 48, 70
4, 91680, Note_off_c, 4, 48, 0
4, 91680, Note_on_c, 4, 49, 69
4, 91920, Note_off_c, 4, 49, 0
4, 91920, Note_on_c, 4, 51, 68
4, 92160, Note_off_c, 4, 51, 0
4, 92160, Note_on_c, 4, 52, 67
4, 93600, Note_off_c, 4, 52, 0
4, 93600, Note_on_c, 4, 54, 64
4, 93840, Note_off_c, 4, 54, 0
4, 93840, Note_on_c, 4, 55, 63
4, 94080, Note_off_c, 4, 55, 0
4, 94080, Note_on_c, 4, 56, 62
4, 95520, Note_off_c, 4, 56, 0
4, 95520, Note_on_c, 4, 58, 59
4, 95760, Note_off_c, 4, 58, 0
4, 95760, Note_on_c, 4, 60, 58
4, 96000, Note_off_c, 4, 60, 0
4, 96000, Note_on_c, 4, 56, 57
4, 96960, Note_off_c, 4, 56, 0
4, 96960, Note_on_c, 4, 57, 56
4, 98400, Note_off_c, 4, 57, 0
4, 98400, Note_on_c, 4, 57, 57
4, 99360, Note_off_c, 4, 57, 0
4, 99360, Note_on_c, 4, 59, 58
4, 99600, Note_off_c, 4, 59, 0
4, 99600, Note_on_c, 4, 57, 59
4, 99840, Note_off_c, 4, 57, 0
4, 99840, Note_on_c, 4, 55, 59
4, 100320, Note_off_c, 4, 55, 0
4, 100320, Note_on_c, 4, 57, 59
4, 100560, Note_off_c, 4, 57, 0
4, 100560, Note_on_c, 4, 59, 59
4, 100800, Note_off_c, 4, 59, 0
4, 100800, Note_on_c, 4, 61, 60
4, 101280, Note_off_c, 4, 61, 0
4, 101280, Note_on_c, 4, 50, 60
4, 101520, Note_off_c, 4, 50, 0
4, 101520, Note_on_c, 4, 52, 60
4, 101760, Note_off_c, 4, 52, 0
4, 101760, Note_on_c, 4, 54, 60
4, 102720, Note_off_c, 4, 54, 0
4, 103200, Note_on_c, 4, 48, 62
4, 103440, Note_off_c, 4, 48, 0
4, 103440, Note_on_c, 4, 50, 62
4, 103680, Note_off_c, 4, 50, 0
4, 103680, Note_on_c, 4, 52, 62
4, 104400, Note_off_c, 4, 52, 0
4, 105120, Note_on_c, 4, 50, 63
4, 106080, Note_off_c, 4, 50, 0
4, 106080, Note_on_c, 4, 51, 64
4, 106320, Note_off_c, 4, 51, 0
4, 106320, Note_on_c, 4, 53, 64
4, 106560, Note_off_c, 4, 53, 0
4, 106560, Note_on_c, 4, 51, 64
4, 107520, Note_off_c, 4, 51, 0
4, 107520, Note_on_c, 4, 53, 65
4, 108480, Note_off_c, 4, 53, 0
4, 108480, Note_on_c, 4, 58, 65
4, 108960, Note_off_c, 4, 58, 0
4, 108960, Note_on_c, 4, 60, 63
4, 109200, Note_off_c, 4, 60, 0
4, 109200, Note_on_c, 4, 61, 62
4, 109440, Note_off_c, 4, 61, 0
4, 109440, Note_on_c, 4, 63, 60
4, 110400, Note_off_c, 4, 63, 0
4, 110400, Note_on_c, 4, 60, 56
4, 111360, Note_off_c, 4, 60, 0
4, 111360, Note_on_c, 4, 61, 52
4, 111720, Note_off_c, 4, 61, 0
4, 120000, Note_on_c, 4, 55, 56
4, 120960, Note_off_c, 4, 55, 0
4, 120960, Note_on_c, 4, 53, 57
4, 121920, Note_off_c, 4, 53, 0
4, 121920, Note_on_c, 4, 53, 57
4, 123360, Note_off_c, 4, 53, 0
4, 125280, Note_on_c, 4, 51, 60
4, 126240, Note_off_c, 4, 51, 0
4, 126240, Note_on_c, 4, 50, 61
4, 126720, Note_off_c, 4, 50, 0
4, 126720, Note_on_c, 4, 51, 65
4, 127080, Note_off_c, 4, 51, 0
4, 127200, Note_on_c, 4, 53, 63
4, 127440, Note_off_c, 4, 53, 0
4, 127440, Note_on_c, 4, 55, 63
4, 127680, Note_off_c, 4, 55, 0
4, 127680, Note_on_c, 4, 56, 62
4, 128160, Note_off_c, 4, 56, 0
4, 128160, Note_on_c, 4, 56, 61
4, 128640, Note_off_c, 4, 56, 0
4, 128640, Note_on_c, 4, 55, 59
4, 129007, Note_off_c, 4, 55, 0
4, 129120, Note_on_c, 4, 49, 58
4, 129360, Note_off_c, 4, 49, 0
4, 129360, Note_on_c, 4, 51, 57
4, 129600, Note_off_c, 4, 51, 0
4, 129600, Note_on_c, 4, 53, 57
4, 130080, Note_off_c, 4, 53, 0
4, 130080, Note_on_c, 4, 55, 55
4, 130560, Note_off_c, 4, 55, 0
4, 130560, Note_on_c, 4, 56, 54
4, 130920, Note_off_c, 4, 56, 0
4, 156000, Note_on_c, 4, 63, 70
4, 156480, Note_off_c, 4, 63, 0
4, 156480, Note_on_c, 4, 62, 69
4, 156720, Note_off_c, 4, 62, 0
4, 156960, Note_on_c, 4, 59, 68
4, 157440, Note_off_c, 4, 59, 0
4, 157440, Note_on_c, 4, 60, 67
4, 157680, Note_off_c, 4, 60, 0
4, 157920, Note_on_c, 4, 56, 66
4, 158400, Note_off_c, 4, 56, 0
4, 158400, Note_on_c, 4, 55, 65
4, 158640, Note_off_c, 4, 55, 0
4, 158880, Note_on_c, 4, 58, 64
4, 159360, Note_off_c, 4, 58, 0
4, 159360, Note_on_c, 4, 56, 63
4, 159600, Note_off_c, 4, 56, 0
4, 159840, Note_on_c, 4, 49, 63
4, 160320, Note_off_c, 4, 49, 0
4, 160320, Note_on_c, 4, 48, 62
4, 160560, Note_off_c, 4, 48, 0
4, 160800, Note_on_c, 4, 51, 61
4, 161280, Note_off_c, 4, 51, 0
4, 161280, Note_on_c, 4, 50, 60
4, 161640, Note_off_c, 4, 50, 0
4, 171360, Note_on_c, 4, 57, 59
4, 171480, Note_off_c, 4, 57, 0
4, 171480, Note_on_c, 4, 55, 59
4, 171600, Note_off_c, 4, 55, 0
4, 171600, Note_on_c, 4, 53, 59
4, 171720, Note_off_c, 4, 53, 0
4, 171720, Note_on_c, 4, 52, 59
4, 171840, Note_off_c, 4, 52, 0
4, 186240, Note_on_c, 4, 61, 47
4, 186720, Note_off_c, 4, 61, 0
4, 186720, Note_on_c, 4, 52, 51
4, 187680, Note_off_c, 4, 52, 0
4, 187680, Note_on_c, 4, 52, 46
4, 187800, Note_off_c, 4, 52, 0
4, 187800, Note_on_c, 4, 53, 45
4, 187920, Note_off_c, 4, 53, 0
4, 187920, Note_on_c, 4, 55, 45
4, 188040, Note_off_c, 4, 55, 0
4, 188040, Note_on_c, 4, 57, 45
4, 188160, Note_off_c, 4, 57, 0
4, 188160, Note_on_c, 4, 58, 45
4, 188400, Note_off_c, 4, 58, 0
4, 188640, Note_on_c, 4, 58, 45
4, 189120, Note_off_c, 4, 58, 0
4, 189120, Note_on_c, 4, 57, 44
4, 189600, Note_off_c, 4, 57, 0
4, 189600, Note_on_c, 4, 54, 44
4, 190080, Note_off_c, 4, 54, 0
4, 190080, Note_on_c, 4, 55, 44
4, 190440, Note_off_c, 4, 55, 0
4, 192480, Note_on_c, 4, 51, 58
4, 193200, Note_on_c, 4, 53, 60
4, 193215, Note_off_c, 4, 51, 0
4, 193320, Note_off_c, 4, 53, 0
4, 193320, Note_on_c, 4, 55, 61
4, 193440, Note_off_c, 4, 55, 0
4, 193440, Note_on_c, 4, 57, 61
4, 193560, Note_off_c, 4, 57, 0
4, 193560, Note_on_c, 4, 58, 62
4, 193680, Note_off_c, 4, 58, 0
4, 193680, Note_on_c, 4, 53, 62
4, 193680, Note_on_c, 4, 60, 62
4, 193920, Note_off_c, 4, 60, 0
4, 194160, Note_on_c, 4, 55, 64
4, 194175, Note_off_c, 4, 53, 0
4, 194280, Note_off_c, 4, 55, 0
4, 194280, Note_on_c, 4, 57, 64
4, 194400, Note_off_c, 4, 57, 0
4, 194400, Note_on_c, 4, 59, 65
4, 194520, Note_off_c, 4, 59, 0
4, 194520, Note_on_c, 4, 60, 65
4, 194640, Note_off_c, 4, 60, 0
4, 194640, Note_on_c, 4, 55, 66
4, 194640, Note_on_c, 4, 62, 66
4, 194880, Note_off_c, 4, 62, 0
4, 195120, Note_off_c, 4, 55, 0
4, 195120, Note_on_c, 4, 56, 67
4, 195240, Note_off_c, 4, 56, 0
4, 195240, Note_on_c, 4, 58, 68
4, 195360, Note_off_c, 4, 58, 0
4, 195360, Note_on_c, 4, 60, 68
4, 195480, Note_off_c, 4, 60, 0
4, 195480, Note_on_c, 4, 62, 69
4, 195600, Note_off_c, 4, 62, 0
4, 195600, Note_on_c, 4, 63, 69
4, 195792, Note_off_c, 4, 63, 0
4, 202080, Note_on_c, 4, 55, 53
4, 203040, Note_off_c, 4, 55, 0
4, 203040, Note_on_c, 4, 54, 57
4, 203520, Note_off_c, 4, 54, 0
4, 203520, Note_on_c, 4, 55, 59
4, 203760, Note_off_c, 4, 55, 0
4, 204960, Note_on_c, 4, 55, 69
4, 205440, Note_off_c, 4, 55, 0
4, 205440, Note_on_c, 4, 57, 71
4, 205800, Note_off_c, 4, 57, 0
4, 208320, Note_on_c, 4, 61, 75
4, 209280, Note_off_c, 4, 61, 0
4, 209280, Note_on_c, 4, 60, 72
4, 210240, Note_off_c, 4, 60, 0
4, 210240, Note_on_c, 4, 59, 70
4, 211200, Note_off_c, 4, 59, 0
4, 211200, Note_on_c, 4, 58, 67
4, 211680, Note_off_c, 4, 58, 0
4, 211680, Note_on_c, 4, 57, 66
4, 212160, Note_off_c, 4, 57, 0
4, 212160, Note_on_c, 4, 56, 65
4, 212640, Note_off_c, 4, 56, 0
4, 212640, Note_on_c, 4, 55, 64
4, 213120, Note_off_c, 4, 55, 0
4, 213120, Note_on_c, 4, 51, 67
4, 213120, Note_on_c, 4, 45, 67
4, 213120, Note_on_c, 4, 54, 67
4, 214560, Note_off_c, 4, 54, 0
4, 214560, Note_off_c, 4, 45, 0
4, 214560, Note_off_c, 4, 51, 0
4, 232320, Note_on_c, 4, 55, 41
4, 233280, Note_off_c, 4, 55, 0
4, 233280, Note_on_c, 4, 48, 42
4, 234240, Note_off_c, 4, 48, 0
4, 234720, Note_on_c, 4, 53, 42
4, 235200, Note_off_c, 4, 53, 0
4, 235200, Note_on_c, 4, 55, 41
4, 236160, Note_off_c, 4, 55, 0
4, 236160, Note_on_c, 4, 54, 40
4, 238080, Note_off_c, 4, 54, 0
4, 246720, Note_on_c, 4, 57, 30
4, 247200, Note_off_c, 4, 57, 0
4, 247200, Note_on_c, 4, 53, 30
4, 247680, Note_off_c, 4, 53, 0
4, 247680, Note_on_c, 4, 52, 30
4, 248047, Note_off_c, 4, 52, 0
4, 250080, Note_on_c, 4, 67, 31
4, 250560, Note_off_c, 4, 67, 0
4, 250560, Note_on_c, 4, 69, 31
4, 251040, Note_off_c, 4, 69, 0
4, 251040, Note_on_c, 4, 65, 31
4, 251520, Note_off_c, 4, 65, 0
4, 251520, Note_on_c, 4, 64, 31
4, 251887, Note_off_c, 4, 64, 0
4, 256800, Note_on_c, 4, 55, 32
4, 257280, Note_off_c, 4, 55, 0
4, 257280, Note_on_c, 4, 54, 33
4, 257640, Note_off_c, 4, 54, 0
4, 257760, Note_on_c, 4, 62, 33
4, 258720, Note_off_c, 4, 62, 0
4, 258720, Note_on_c, 4, 62, 33
4, 259560, Note_off_c, 4, 62, 0
4, 272160, Note_on_c, 4, 59, 36
4, 273120, Note_off_c, 4, 59, 0
4, 273120, Note_on_c, 4, 58, 37
4, 274080, Note_off_c, 4, 58, 0
4, 274080, Note_on_c, 4, 56, 37
4, 275040, Note_off_c, 4, 56, 0
4, 275040, Note_on_c, 4, 52, 37
4, 275520, Note_off_c, 4, 52, 0
4, 275520, Note_on_c, 4, 49, 37
4, 276000, Note_off_c, 4, 49, 0
4, 276000, Note_on_c, 4, 54, 37
4, 276840, Note_off_c, 4, 54, 0
4, 284640, Note_on_c, 4, 49, 39
4, 284640, Note_on_c, 4, 41, 39
4, 285120, Note_off_c, 4, 41, 0
4, 285120, Note_on_c, 4, 42, 39
4, 285600, Note_off_c, 4, 42, 0
4, 285600, Note_on_c, 4, 46, 40
4, 286080, Note_off_c, 4, 46, 0
4, 286080, Note_on_c, 4, 44, 40
4, 286440, Note_off_c, 4, 44, 0
4, 286440, Note_off_c, 4, 49, 0
4, 286560, Note_on_c, 4, 49, 40
4, 287520, Note_off_c, 4, 49, 0
4, 287520, Note_on_c, 4, 49, 40
4, 288360, Note_off_c, 4, 49, 0
4, 288480, Note_on_c, 4, 56, 40
4, 288960, Note_off_c, 4, 56, 0
4, 288960, Note_on_c, 4, 58, 40
4, 289440, Note_off_c, 4, 58, 0
4, 289440, Note_on_c, 4, 54, 41
4, 290880, Note_off_c, 4, 54, 0
4, 290880, Note_on_c, 4, 54, 41
4, 292207, Note_off_c, 4, 54, 0
4, 292320, Note_on_c, 4, 54, 41
4, 293280, Note_off_c, 4, 54, 0
4, 293280, Note_on_c, 4, 54, 42
4, 294112, Note_off_c, 4, 54, 0
4, 296160, Note_on_c, 4, 53, 42
4, 296640, Note_off_c, 4, 53, 0
4, 297120, Note_on_c, 4, 51, 42
4, 297967, Note_off_c, 4, 51, 0
4, 302160, Note_on_c, 4, 63, 44
4, 302640, Note_off_c, 4, 63, 0
4, 302640, Note_on_c, 4, 61, 44
4, 303120, Note_off_c, 4, 61, 0
4, 303120, Note_on_c, 4, 58, 44
4, 303600, Note_off_c, 4, 58, 0
4, 303600, Note_on_c, 4, 60, 44
4, 304320, Note_off_c, 4, 60, 0
4, 311520, Note_on_c, 4, 56, 46
4, 312000, Note_off_c, 4, 56, 0
4, 312000, Note_on_c, 4, 55, 46
4, 312480, Note_off_c, 4, 55, 0
4, 312480, Note_on_c, 4, 57, 46
4, 312960, Note_off_c, 4, 57, 0
4, 312960, Note_on_c, 4, 58, 46
4, 313320, Note_off_c, 4, 58, 0
4, 314400, Note_on_c, 4, 53, 47
4, 315240, Note_off_c, 4, 53, 0
4, 315360, Note_on_c, 4, 48, 47
4, 315840, Note_off_c, 4, 48, 0
4, 315840, Note_on_c, 4, 53, 47
4, 316320, Note_off_c, 4, 53, 0
4, 325920, Note_on_c, 4, 67, 50
4, 326760, Note_off_c, 4, 67, 0
4, 329760, Note_on_c, 4, 71, 51
4, 330600, Note_off_c, 4, 71, 0
4, 330720, Note_on_c, 4, 73, 51
4, 331200, Note_off_c, 4, 73, 0
4, 331680, Note_on_c, 4, 71, 51
4, 331680, Note_on_c, 4, 67, 51
4, 332160, Note_off_c, 4, 71, 0
4, 332520, Note_off_c, 4, 67, 0
4, 332640, Note_on_c, 4, 55, 51
4, 333120, Note_off_c, 4, 55, 0
4, 333120, Note_on_c, 4, 57, 51
4, 333600, Note_off_c, 4, 57, 0
4, 333600, Note_on_c, 4, 53, 52
4, 334080, Note_off_c, 4, 53, 0
4, 334080, Note_on_c, 4, 52, 52
4, 334440, Note_off_c, 4, 52, 0
4, 336480, Note_on_c, 4, 67, 52
4, 336960, Note_off_c, 4, 67, 0
4, 336960, Note_on_c, 4, 69, 52
4, 337440, Note_off_c, 4, 69, 0
4, 337440, Note_on_c, 4, 65, 52
4, 337920, Note_off_c, 4, 65, 0
4, 337920, Note_on_c, 4, 64, 53
4, 338280, Note_off_c, 4, 64, 0
4, 344160, Note_on_c, 4, 49, 54
4, 344640, Note_off_c, 4, 49, 0
4, 344640, Note_on_c, 4, 47, 54
4, 345120, Note_off_c, 4, 47, 0
4, 345120, Note_on_c, 4, 52, 54
4, 345960, Note_off_c, 4, 52, 0
4, 349920, Note_on_c, 4, 49, 56
4, 350400, Note_off_c, 4, 49, 0
4, 350400, Note_on_c, 4, 51, 56
4, 350880, Note_off_c, 4, 51, 0
4, 350880, Note_on_c, 4, 53, 56
4, 351360, Note_off_c, 4, 53, 0
4, 351360, Note_on_c, 4, 54, 56
4, 351720, Note_off_c, 4, 54, 0
4, 356160, Note_on_c, 4, 56, 57
4, 356640, Note_off_c, 4, 56, 0
4, 356640, Note_on_c, 4, 53, 57
4, 357120, Note_off_c, 4, 53, 0
4, 357120, Note_on_c, 4, 51, 57
4, 357480, Note_off_c, 4, 51, 0
4, 359760, Note_on_c, 4, 53, 58
4, 360000, Note_off_c, 4, 53, 0
4, 360240, Note_on_c, 4, 55, 58
4, 360480, Note_off_c, 4, 55, 0
4, 360720, Note_on_c, 4, 58, 58
4, 360960, Note_off_c, 4, 58, 0
4, 360960, Note_on_c, 4, 57, 58
4, 361200, Note_off_c, 4, 57, 0
4, 361200, Note_on_c, 4, 53, 58
4, 361392, Note_off_c, 4, 53, 0
4, 361680, Note_on_c, 4, 60, 58
4, 361920, Note_off_c, 4, 60, 0
4, 362160, Note_on_c, 4, 62, 59
4, 362400, Note_off_c, 4, 62, 0
4, 362640, Note_on_c, 4, 65, 59
4, 362880, Note_off_c, 4, 65, 0
4, 362880, Note_on_c, 4, 64, 59
4, 363120, Note_off_c, 4, 64, 0
4, 363120, Note_on_c, 4, 60, 59
4, 363312, Note_off_c, 4, 60, 0
4, 363600, Note_on_c, 4, 60, 59
4, 363840, Note_off_c, 4, 60, 0
4, 364080, Note_on_c, 4, 62, 59
4, 364320, Note_off_c, 4, 62, 0
4, 364560, Note_on_c, 4, 65, 59
4, 364800, Note_off_c, 4, 65, 0
4, 364800, Note_on_c, 4, 63, 59
4, 366720, Note_off_c, 4, 63, 0
4, 371040, Note_on_c, 4, 62, 50
4, 371520, Note_off_c, 4, 62, 0
4, 371520, Note_on_c, 4, 62, 49
4, 372000, Note_off_c, 4, 62, 0
4, 372000, Note_on_c, 4, 62, 49
4, 372480, Note_off_c, 4, 62, 0
4, 372480, Note_on_c, 4, 61, 49
4, 372840, Note_off_c, 4, 61, 0
4, 372960, Note_on_c, 4, 62, 48
4, 372960, Note_on_c, 4, 60, 48
4, 373440, Note_off_c, 4, 60, 0
4, 373440, Note_on_c, 4, 59, 48
4, 373920, Note_off_c, 4, 59, 0
4, 373920, Note_off_c, 4, 62, 0
4, 373920, Note_on_c, 4, 60, 48
4, 373920, Note_on_c, 4, 58, 48
4, 374400, Note_off_c, 4, 58, 0
4, 374400, Note_off_c, 4, 60, 0
4, 374400, Note_on_c, 4, 65, 47
4, 374400, Note_on_c, 4, 57, 47
4, 374880, Note_off_c, 4, 57, 0
4, 374880, Note_off_c, 4, 65, 0
4, 374880, Note_on_c, 4, 62, 47
4, 375360, Note_off_c, 4, 62, 0
4, 375360, Note_on_c, 4, 60, 47
4, 375720, Note_off_c, 4, 60, 0
4, 375840, Note_on_c, 4, 67, 46
4, 376320, Note_off_c, 4, 67, 0
4, 376320, Note_on_c, 4, 65, 46
4, 376800, Note_off_c, 4, 65, 0
4, 376800, Note_on_c, 4, 62, 46
4, 377280, Note_off_c, 4, 62, 0
4, 377280, Note_on_c, 4, 60, 45
4, 377760, Note_off_c, 4, 60, 0
4, 377760, Note_on_c, 4, 60, 45
4, 378240, Note_off_c, 4, 60, 0
4, 378240, Note_on_c, 4, 55, 45
4, 378240, Note_on_c, 4, 60, 45
4, 379200, Note_off_c, 4, 60, 0
4, 379200, Note_off_c, 4, 55, 0
4, 379200, Note_on_c, 4, 53, 44
4, 379200, Note_on_c, 4, 50, 44
4, 380160, Note_off_c, 4, 50, 0
4, 380160, Note_off_c, 4, 53, 0
4, 380160, Note_on_c, 4, 52, 43
4, 380520, Note_off_c, 4, 52, 0
4, 380640, Note_on_c, 4, 43, 43
4, 381120, Note_off_c, 4, 43, 0
4, 381120, Note_on_c, 4, 45, 43
4, 381600, Note_off_c, 4, 45, 0
4, 381600, Note_on_c, 4, 41, 42
4, 382080, Note_off_c, 4, 41, 0
4, 382080, Note_on_c, 4, 40, 42
4, 382440, Note_off_c, 4, 40, 0
4, 382560, Note_on_c, 4, 52, 42
4, 383040, Note_off_c, 4, 52, 0
4, 383040, Note_on_c, 4, 53, 41
4, 383520, Note_off_c, 4, 53, 0
4, 383520, Note_on_c, 4, 56, 41
4, 384000, Note_off_c, 4, 56, 0
4, 384000, Note_on_c, 4, 55, 41
4, 384360, Note_off_c, 4, 55, 0
4, 384480, Note_on_c, 4, 58, 40
4, 384960, Note_off_c, 4, 58, 0
4, 384960, Note_on_c, 4, 57, 40
4, 385440, Note_off_c, 4, 57, 0
4, 385440, Note_on_c, 4, 53, 40
4, 385440, Note_on_c, 4, 59, 40
4, 385920, Note_off_c, 4, 59, 0
4, 385920, Note_off_c, 4, 53, 0
4, 385920, Note_on_c, 4, 60, 39
4, 385920, Note_on_c, 4, 52, 39
4, 386280, Note_off_c, 4, 52, 0
4, 386280, Note_off_c, 4, 60, 0
4, 386880, Note_on_c, 4, 69, 39
4, 386880, Note_on_c, 4, 67, 39
4, 386880, Note_on_c, 4, 64, 39
4, 386880, Note_on_c, 4, 52, 39
4, 386880, Note_on_c, 4, 49, 39
4, 387840, Note_off_c, 4, 49, 0
4, 387840, Note_off_c, 4, 52, 0
4, 387840, Note_off_c, 4, 64, 0
4, 387840, Note_off_c, 4, 67, 0
4, 387840, Note_off_c, 4, 69, 0
4, 387840, Note_on_c, 4, 69, 38
4, 387840, Note_on_c, 4, 65, 38
4, 387840, Note_on_c, 4, 45, 38
4, 387840, Note_on_c, 4, 41, 38
4, 388800, Note_off_c, 4, 41, 0
4, 388800, Note_off_c, 4, 45, 0
4, 388800, Note_off_c, 4, 65, 0
4, 388800, Note_off_c, 4, 69, 0
4, 388800, Note_on_c, 4, 62, 37
4, 388800, Note_on_c, 4, 65, 37
4, 388800, Note_on_c, 4, 59, 37
4, 388800, Note_on_c, 4, 47, 37
4, 388800, Note_on_c, 4, 50, 37
4, 389760, Note_off_c, 4, 50, 0
4, 389760, Note_off_c, 4, 47, 0
4, 389760, Note_off_c, 4, 59, 0
4, 389760, Note_off_c, 4, 65, 0
4, 389760, Note_off_c, 4, 62, 0
4, 389760, Note_on_c, 4, 64, 37
4, 389760, Note_on_c, 4, 60, 37
4, 389760, Note_on_c, 4, 40, 37
4, 389760, Note_on_c, 4, 43, 37
4, 390240, Note_off_c, 4, 43, 0
4, 390240, Note_off_c, 4, 40, 0
4, 390240, Note_off_c, 4, 60, 0
4, 390240, Note_off_c, 4, 64, 0
4, 390240, End_track
5, 0, Start_track
5, 0, Title_t, "Unnamed Track"
5, 0, Control_c, 5, 0, 0
5, 0, Control_c, 5, 32, 0
5, 0, Program_c, 5, 0
5, 0, Control_c, 5, 10, 55
5, 0, Control_c, 5, 91, 100
5, 0, Control_c, 5, 93, 28
5, 0, Control_c, 5, 64, 0
5, 0, Control_c, 5, 1, 0
5, 0, Pitch_bend_c, 5, 8192
5, 0, Control_c, 5, 7, 125
5, 3840, Note_on_c, 5, 43, 43
5, 4080, Note_off_c, 5, 43, 0
5, 4320, Note_on_c, 5, 47, 48
5, 5280, Note_off_c, 5, 47, 0
5, 5280, Note_on_c, 5, 48, 44
5, 5400, Note_off_c, 5, 48, 0
5, 5400, Note_on_c, 5, 47, 44
5, 5520, Note_off_c, 5, 47, 0
5, 5520, Note_on_c, 5, 45, 44
5, 5640, Note_off_c, 5, 45, 0
5, 5640, Note_on_c, 5, 43, 44
5, 5760, Note_off_c, 5, 43, 0
5, 5760, Note_on_c, 5, 48, 44
5, 7200, Note_off_c, 5, 48, 0
5, 7200, Note_on_c, 5, 48, 45
5, 7680, Note_off_c, 5, 48, 0
5, 7680, Note_on_c, 5, 47, 45
5, 8640, Note_off_c, 5, 47, 0
5, 8640, Note_on_c, 5, 46, 45
5, 9600, Note_off_c, 5, 46, 0
5, 9600, Note_on_c, 5, 45, 46
5, 9960, Note_off_c, 5, 45, 0
5, 10080, Note_on_c, 5, 45, 46
5, 10560, Note_off_c, 5, 45, 0
5, 10560, Note_on_c, 5, 46, 47
5, 11040, Note_off_c, 5, 46, 0
5, 11040, Note_on_c, 5, 47, 47
5, 11520, Note_off_c, 5, 47, 0
5, 11520, Note_on_c, 5, 48, 47
5, 11880, Note_off_c, 5, 48, 0
5, 12000, Note_on_c, 5, 41, 47
5, 12960, Note_off_c, 5, 41, 0
5, 12960, Note_on_c, 5, 43, 48
5, 13200, Note_off_c, 5, 43, 0
5, 13200, Note_on_c, 5, 41, 48
5, 13440, Note_off_c, 5, 41, 0
5, 13440, Note_on_c, 5, 40, 48
5, 13800, Note_off_c, 5, 40, 0
5, 13920, Note_on_c, 5, 43, 48
5, 14880, Note_off_c, 5, 43, 0
5, 14880, Note_on_c, 5, 45, 49
5, 15120, Note_off_c, 5, 45, 0
5, 15120, Note_on_c, 5, 43, 49
5, 15360, Note_off_c, 5, 43, 0
5, 15360, Note_on_c, 5, 41, 49
5, 15720, Note_off_c, 5, 41, 0
5, 15840, Note_on_c, 5, 40, 49
5, 16320, Note_off_c, 5, 40, 0
5, 16320, Note_on_c, 5, 41, 48
5, 16800, Note_off_c, 5, 41, 0
5, 16800, Note_on_c, 5, 42, 47
5, 17280, Note_off_c, 5, 42, 0
5, 17280, Note_on_c, 5, 43, 46
5, 17520, Note_off_c, 5, 43, 0
5, 17760, Note_on_c, 5, 47, 51
5, 18720, Note_off_c, 5, 47, 0
5, 18720, Note_on_c, 5, 48, 47
5, 18840, Note_off_c, 5, 48, 0
5, 18840, Note_on_c, 5, 47, 47
5, 18960, Note_off_c, 5, 47, 0
5, 18960, Note_on_c, 5, 45, 47
5, 19080, Note_off_c, 5, 45, 0
5, 19080, Note_on_c, 5, 43, 47
5, 19200, Note_off_c, 5, 43, 0
5, 19200, Note_on_c, 5, 45, 47
5, 20160, Note_off_c, 5, 45, 0
5, 20160, Note_on_c, 5, 50, 48
5, 21840, Note_off_c, 5, 50, 0
5, 21840, Note_on_c, 5, 51, 50
5, 22080, Note_off_c, 5, 51, 0
5, 22080, Note_on_c, 5, 52, 50
5, 23760, Note_off_c, 5, 52, 0
5, 23760, Note_on_c, 5, 53, 52
5, 24000, Note_off_c, 5, 53, 0
5, 24000, Note_on_c, 5, 54, 52
5, 24960, Note_off_c, 5, 54, 0
5, 24960, Note_on_c, 5, 55, 53
5, 25152, Note_off_c, 5, 55, 0
5, 25200, Note_on_c, 5, 57, 54
5, 25440, Note_off_c, 5, 57, 0
5, 25440, Note_on_c, 5, 55, 54
5, 25680, Note_off_c, 5, 55, 0
5, 25680, Note_on_c, 5, 54, 54
5, 25920, Note_off_c, 5, 54, 0
5, 25920, Note_on_c, 5, 52, 54
5, 26160, Note_off_c, 5, 52, 0
5, 26160, Note_on_c, 5, 50, 55
5, 26400, Note_off_c, 5, 50, 0
5, 26400, Note_on_c, 5, 48, 55
5, 26640, Note_off_c, 5, 48, 0
5, 26640, Note_on_c, 5, 47, 55
5, 26880, Note_off_c, 5, 47, 0
5, 26880, Note_on_c, 5, 48, 55
5, 27072, Note_off_c, 5, 48, 0
5, 27120, Note_on_c, 5, 56, 56
5, 27360, Note_off_c, 5, 56, 0
5, 27360, Note_on_c, 5, 57, 56
5, 27600, Note_off_c, 5, 57, 0
5, 27600, Note_on_c, 5, 55, 56
5, 27840, Note_off_c, 5, 55, 0
5, 27840, Note_on_c, 5, 54, 56
5, 28080, Note_off_c, 5, 54, 0
5, 28080, Note_on_c, 5, 52, 57
5, 28320, Note_off_c, 5, 52, 0
5, 28320, Note_on_c, 5, 50, 57
5, 28560, Note_off_c, 5, 50, 0
5, 28560, Note_on_c, 5, 60, 57
5, 28800, Note_off_c, 5, 60, 0
5, 28800, Note_on_c, 5, 59, 57
5, 28992, Note_off_c, 5, 59, 0
5, 29040, Note_on_c, 5, 61, 58
5, 29280, Note_off_c, 5, 61, 0
5, 29280, Note_on_c, 5, 62, 58
5, 29520, Note_off_c, 5, 62, 0
5, 29520, Note_on_c, 5, 60, 58
5, 29760, Note_off_c, 5, 60, 0
5, 29760, Note_on_c, 5, 59, 58
5, 30000, Note_off_c, 5, 59, 0
5, 30000, Note_on_c, 5, 57, 59
5, 30240, Note_off_c, 5, 57, 0
5, 30240, Note_on_c, 5, 55, 59
5, 30480, Note_off_c, 5, 55, 0
5, 30480, Note_on_c, 5, 65, 59
5, 30720, Note_off_c, 5, 65, 0
5, 30720, Note_on_c, 5, 64, 59
5, 30912, Note_off_c, 5, 64, 0
5, 30960, Note_on_c, 5, 67, 59
5, 31200, Note_off_c, 5, 67, 0
5, 31200, Note_on_c, 5, 62, 59
5, 31440, Note_off_c, 5, 62, 0
5, 31440, Note_on_c, 5, 65, 58
5, 31680, Note_off_c, 5, 65, 0
5, 31680, Note_on_c, 5, 61, 58
5, 31920, Note_off_c, 5, 61, 0
5, 31920, Note_on_c, 5, 64, 58
5, 32160, Note_off_c, 5, 64, 0
5, 32160, Note_on_c, 5, 62, 58
5, 32400, Note_off_c, 5, 62, 0
5, 32400, Note_on_c, 5, 65, 57
5, 32640, Note_off_c, 5, 65, 0
5, 32640, Note_on_c, 5, 61, 57
5, 32880, Note_off_c, 5, 61, 0
5, 32880, Note_on_c, 5, 64, 57
5, 33120, Note_off_c, 5, 64, 0
5, 33120, Note_on_c, 5, 59, 56
5, 33360, Note_off_c, 5, 59, 0
5, 33360, Note_on_c, 5, 62, 56
5, 33600, Note_off_c, 5, 62, 0
5, 33600, Note_on_c, 5, 58, 56
5, 33840, Note_off_c, 5, 58, 0
5, 33840, Note_on_c, 5, 61, 55
5, 34080, Note_off_c, 5, 61, 0
5, 34080, Note_on_c, 5, 59, 55
5, 34320, Note_off_c, 5, 59, 0
5, 34320, Note_on_c, 5, 62, 55
5, 34560, Note_off_c, 5, 62, 0
5, 34560, Note_on_c, 5, 58, 55
5, 34800, Note_off_c, 5, 58, 0
5, 34800, Note_on_c, 5, 61, 54
5, 35040, Note_off_c, 5, 61, 0
5, 35040, Note_on_c, 5, 57, 54
5, 35280, Note_off_c, 5, 57, 0
5, 35280, Note_on_c, 5, 60, 54
5, 35520, Note_off_c, 5, 60, 0
5, 35520, Note_on_c, 5, 56, 53
5, 35760, Note_off_c, 5, 56, 0
5, 35760, Note_on_c, 5, 59, 53
5, 36000, Note_off_c, 5, 59, 0
5, 36000, Note_on_c, 5, 55, 53
5, 36240, Note_off_c, 5, 55, 0
5, 36240, Note_on_c, 5, 58, 52
5, 36480, Note_off_c, 5, 58, 0
5, 36480, Note_on_c, 5, 54, 52
5, 36672, Note_off_c, 5, 54, 0
5, 36720, Note_on_c, 5, 57, 52
5, 36960, Note_off_c, 5, 57, 0
5, 36960, Note_on_c, 5, 50, 51
5, 37200, Note_off_c, 5, 50, 0
5, 37200, Note_on_c, 5, 54, 51
5, 37440, Note_off_c, 5, 54, 0
5, 37440, Note_on_c, 5, 47, 51
5, 37680, Note_off_c, 5, 47, 0
5, 37680, Note_on_c, 5, 50, 50
5, 38160, Note_off_c, 5, 50, 0
5, 38160, Note_on_c, 5, 44, 50
5, 38400, Note_off_c, 5, 44, 0
5, 38400, Note_on_c, 5, 45, 50
5, 38640, Note_off_c, 5, 45, 0
5, 38880, Note_on_c, 5, 49, 56
5, 39840, Note_off_c, 5, 49, 0
5, 39840, Note_on_c, 5, 50, 52
5, 39960, Note_off_c, 5, 50, 0
5, 39960, Note_on_c, 5, 49, 52
5, 40080, Note_off_c, 5, 49, 0
5, 40080, Note_on_c, 5, 47, 53
5, 40200, Note_off_c, 5, 47, 0
5, 40200, Note_on_c, 5, 45, 53
5, 40320, Note_off_c, 5, 45, 0
5, 40320, Note_on_c, 5, 46, 53
5, 40560, Note_off_c, 5, 46, 0
5, 40800, Note_on_c, 5, 47, 59
5, 41760, Note_off_c, 5, 47, 0
5, 41760, Note_on_c, 5, 52, 55
5, 41880, Note_off_c, 5, 52, 0
5, 41880, Note_on_c, 5, 50, 55
5, 42000, Note_off_c, 5, 50, 0
5, 42000, Note_on_c, 5, 48, 55
5, 42120, Note_off_c, 5, 48, 0
5, 42120, Note_on_c, 5, 47, 55
5, 42240, Note_off_c, 5, 47, 0
5, 42240, Note_on_c, 5, 48, 55
5, 42480, Note_off_c, 5, 48, 0
5, 42720, Note_on_c, 5, 49, 61
5, 43680, Note_off_c, 5, 49, 0
5, 43680, Note_on_c, 5, 54, 57
5, 43800, Note_off_c, 5, 54, 0
5, 43800, Note_on_c, 5, 52, 57
5, 43920, Note_off_c, 5, 52, 0
5, 43920, Note_on_c, 5, 50, 58
5, 44040, Note_off_c, 5, 50, 0
5, 44040, Note_on_c, 5, 49, 58
5, 44160, Note_off_c, 5, 49, 0
5, 44160, Note_on_c, 5, 50, 58
5, 44400, Note_off_c, 5, 50, 0
5, 44640, Note_on_c, 5, 51, 58
5, 45120, Note_off_c, 5, 51, 0
5, 45120, Note_on_c, 5, 52, 59
5, 45600, Note_off_c, 5, 52, 0
5, 45600, Note_on_c, 5, 53, 60
5, 46080, Note_off_c, 5, 53, 0
5, 46080, Note_on_c, 5, 54, 60
5, 46440, Note_off_c, 5, 54, 0
5, 46560, Note_on_c, 5, 55, 61
5, 47040, Note_off_c, 5, 55, 0
5, 47040, Note_on_c, 5, 56, 62
5, 47520, Note_off_c, 5, 56, 0
5, 47520, Note_on_c, 5, 57, 62
5, 48000, Note_off_c, 5, 57, 0
5, 48000, Note_on_c, 5, 58, 63
5, 48360, Note_off_c, 5, 58, 0
5, 51360, Note_on_c, 5, 52, 64
5, 51840, Note_off_c, 5, 52, 0
5, 51840, Note_on_c, 5, 53, 64
5, 52200, Note_off_c, 5, 53, 0
5, 52320, Note_on_c, 5, 54, 63
5, 53280, Note_off_c, 5, 54, 0
5, 53280, Note_on_c, 5, 56, 63
5, 53760, Note_off_c, 5, 56, 0
5, 53760, Note_on_c, 5, 57, 62
5, 54000, Note_off_c, 5, 57, 0
5, 54000, Note_on_c, 5, 54, 62
5, 54480, Note_off_c, 5, 54, 0
5, 54480, Note_on_c, 5, 52, 62
5, 54720, Note_off_c, 5, 52, 0
5, 54720, Note_on_c, 5, 50, 62
5, 54960, Note_off_c, 5, 50, 0
5, 54960, Note_on_c, 5, 49, 61
5, 55200, Note_off_c, 5, 49, 0
5, 55200, Note_on_c, 5, 47, 61
5, 55440, Note_off_c, 5, 47, 0
5, 55440, Note_on_c, 5, 45, 61
5, 55680, Note_off_c, 5, 45, 0
5, 55680, Note_on_c, 5, 44, 61
5, 55920, Note_off_c, 5, 44, 0
5, 55920, Note_on_c, 5, 47, 61
5, 56160, Note_off_c, 5, 47, 0
5, 56160, Note_on_c, 5, 49, 60
5, 56400, Note_off_c, 5, 49, 0
5, 56400, Note_on_c, 5, 51, 60
5, 56640, Note_off_c, 5, 51, 0
5, 56640, Note_on_c, 5, 52, 60
5, 56880, Note_off_c, 5, 52, 0
5, 56880, Note_on_c, 5, 54, 60
5, 57120, Note_off_c, 5, 54, 0
5, 57120, Note_on_c, 5, 52, 60
5, 57360, Note_off_c, 5, 52, 0
5, 57360, Note_on_c, 5, 50, 59
5, 57600, Note_off_c, 5, 50, 0
5, 57600, Note_on_c, 5, 49, 59
5, 57840, Note_off_c, 5, 49, 0
5, 57840, Note_on_c, 5, 52, 59
5, 58080, Note_off_c, 5, 52, 0
5, 58080, Note_on_c, 5, 45, 59
5, 58320, Note_off_c, 5, 45, 0
5, 58320, Note_on_c, 5, 49, 59
5, 58560, Note_off_c, 5, 49, 0
5, 58560, Note_on_c, 5, 42, 58
5, 58800, Note_off_c, 5, 42, 0
5, 58800, Note_on_c, 5, 45, 58
5, 59040, Note_off_c, 5, 45, 0
5, 59040, Note_on_c, 5, 39, 58
5, 59280, Note_off_c, 5, 39, 0
5, 59280, Note_on_c, 5, 42, 58
5, 59520, Note_off_c, 5, 42, 0
5, 59520, Note_on_c, 5, 40, 58
5, 59760, Note_off_c, 5, 40, 0
5, 60000, Note_on_c, 5, 56, 63
5, 60960, Note_off_c, 5, 56, 0
5, 60960, Note_on_c, 5, 57, 60
5, 61080, Note_off_c, 5, 57, 0
5, 61080, Note_on_c, 5, 56, 60
5, 61200, Note_off_c, 5, 56, 0
5, 61200, Note_on_c, 5, 54, 60
5, 61320, Note_off_c, 5, 54, 0
5, 61320, Note_on_c, 5, 52, 60
5, 61440, Note_off_c, 5, 52, 0
5, 61440, Note_on_c, 5, 50, 60
5, 61680, Note_off_c, 5, 50, 0
5, 61920, Note_on_c, 5, 59, 66
5, 62880, Note_off_c, 5, 59, 0
5, 62880, Note_on_c, 5, 61, 62
5, 63000, Note_off_c, 5, 61, 0
5, 63000, Note_on_c, 5, 59, 63
5, 63120, Note_off_c, 5, 59, 0
5, 63120, Note_on_c, 5, 57, 63
5, 63240, Note_off_c, 5, 57, 0
5, 63240, Note_on_c, 5, 56, 63
5, 63360, Note_off_c, 5, 56, 0
5, 63360, Note_on_c, 5, 54, 63
5, 63600, Note_off_c, 5, 54, 0
5, 63840, Note_on_c, 5, 64, 69
5, 64800, Note_off_c, 5, 64, 0
5, 64800, Note_on_c, 5, 66, 65
5, 64920, Note_off_c, 5, 66, 0
5, 64920, Note_on_c, 5, 64, 65
5, 65040, Note_off_c, 5, 64, 0
5, 65040, Note_on_c, 5, 63, 65
5, 65160, Note_off_c, 5, 63, 0
5, 65160, Note_on_c, 5, 61, 66
5, 65280, Note_off_c, 5, 61, 0
5, 65280, Note_on_c, 5, 59, 66
5, 65472, Note_off_c, 5, 59, 0
5, 65520, Note_on_c, 5, 47, 66
5, 65760, Note_off_c, 5, 47, 0
5, 65760, Note_on_c, 5, 49, 67
5, 66000, Note_off_c, 5, 49, 0
5, 66000, Note_on_c, 5, 51, 67
5, 66240, Note_off_c, 5, 51, 0
5, 66240, Note_on_c, 5, 52, 67
5, 66480, Note_off_c, 5, 52, 0
5, 66480, Note_on_c, 5, 53, 68
5, 66720, Note_off_c, 5, 53, 0
5, 66720, Note_on_c, 5, 54, 68
5, 66960, Note_off_c, 5, 54, 0
5, 66960, Note_on_c, 5, 55, 68
5, 67200, Note_off_c, 5, 55, 0
5, 67200, Note_on_c, 5, 56, 69
5, 67440, Note_off_c, 5, 56, 0
5, 67440, Note_on_c, 5, 57, 69
5, 67680, Note_off_c, 5, 57, 0
5, 67680, Note_on_c, 5, 58, 69
5, 67920, Note_off_c, 5, 58, 0
5, 67920, Note_on_c, 5, 54, 70
5, 68160, Note_off_c, 5, 54, 0
5, 68160, Note_on_c, 5, 59, 70
5, 68400, Note_off_c, 5, 59, 0
5, 68400, Note_on_c, 5, 58, 70
5, 68640, Note_off_c, 5, 58, 0
5, 68880, Note_on_c, 5, 53, 71
5, 69120, Note_off_c, 5, 53, 0
5, 69120, Note_on_c, 5, 54, 71
5, 69312, Note_off_c, 5, 54, 0
5, 69360, Note_on_c, 5, 42, 72
5, 69600, Note_off_c, 5, 42, 0
5, 69600, Note_on_c, 5, 44, 72
5, 69840, Note_off_c, 5, 44, 0
5, 69840, Note_on_c, 5, 46, 72
5, 70080, Note_off_c, 5, 46, 0
5, 70080, Note_on_c, 5, 47, 73
5, 70320, Note_off_c, 5, 47, 0
5, 70320, Note_on_c, 5, 48, 73
5, 70560, Note_off_c, 5, 48, 0
5, 70560, Note_on_c, 5, 49, 74
5, 70800, Note_off_c, 5, 49, 0
5, 70800, Note_on_c, 5, 50, 74
5, 71040, Note_off_c, 5, 50, 0
5, 71040, Note_on_c, 5, 51, 74
5, 71280, Note_off_c, 5, 51, 0
5, 71280, Note_on_c, 5, 52, 75
5, 71520, Note_off_c, 5, 52, 0
5, 71520, Note_on_c, 5, 53, 75
5, 71760, Note_off_c, 5, 53, 0
5, 71760, Note_on_c, 5, 49, 75
5, 72000, Note_off_c, 5, 49, 0
5, 72000, Note_on_c, 5, 54, 76
5, 72240, Note_off_c, 5, 54, 0
5, 72240, Note_on_c, 5, 53, 76
5, 72480, Note_off_c, 5, 53, 0
5, 72480, Note_on_c, 5, 54, 76
5, 72720, Note_off_c, 5, 54, 0
5, 72720, Note_on_c, 5, 48, 77
5, 72960, Note_off_c, 5, 48, 0
5, 72960, Note_on_c, 5, 49, 77
5, 74400, Note_off_c, 5, 49, 0
5, 74400, Note_on_c, 5, 49, 79
5, 76320, Note_off_c, 5, 49, 0
5, 76320, Note_on_c, 5, 49, 73
5, 77167, Note_off_c, 5, 49, 0
5, 77280, Note_on_c, 5, 50, 69
5, 77760, Note_off_c, 5, 50, 0
5, 77760, Note_on_c, 5, 51, 67
5, 78120, Note_off_c, 5, 51, 0
5, 78240, Note_on_c, 5, 48, 65
5, 78720, Note_off_c, 5, 48, 0
5, 78720, Note_on_c, 5, 49, 63
5, 79087, Note_off_c, 5, 49, 0
5, 79200, Note_on_c, 5, 44, 61
5, 79680, Note_off_c, 5, 44, 0
5, 79680, Note_on_c, 5, 42, 59
5, 80640, Note_off_c, 5, 42, 0
5, 80640, Note_on_c, 5, 41, 55
5, 81000, Note_off_c, 5, 41, 0
5, 81120, Note_on_c, 5, 37, 55
5, 81480, Note_off_c, 5, 37, 0
5, 81600, Note_on_c, 5, 49, 56
5, 83520, Note_off_c, 5, 49, 0
5, 83520, Note_on_c, 5, 48, 59
5, 84480, Note_off_c, 5, 48, 0
5, 84480, Note_on_c, 5, 47, 60
5, 85440, Note_off_c, 5, 47, 0
5, 85440, Note_on_c, 5, 46, 62
5, 86400, Note_off_c, 5, 46, 0
5, 86400, Note_on_c, 5, 44, 64
5, 87120, Note_off_c, 5, 44, 0
5, 87120, Note_on_c, 5, 42, 65
5, 87360, Note_off_c, 5, 42, 0
5, 87360, Note_on_c, 5, 41, 65
5, 88320, Note_off_c, 5, 41, 0
5, 88320, Note_on_c, 5, 40, 67
5, 89280, Note_off_c, 5, 40, 0
5, 89280, Note_on_c, 5, 39, 68
5, 90240, Note_off_c, 5, 39, 0
5, 90240, Note_on_c, 5, 37, 70
5, 90720, Note_off_c, 5, 37, 0
5, 91200, Note_on_c, 5, 36, 70
5, 91680, Note_off_c, 5, 36, 0
5, 91680, Note_on_c, 5, 37, 69
5, 91920, Note_off_c, 5, 37, 0
5, 91920, Note_on_c, 5, 39, 68
5, 92160, Note_off_c, 5, 39, 0
5, 92160, Note_on_c, 5, 40, 67
5, 93600, Note_off_c, 5, 40, 0
5, 93600, Note_on_c, 5, 42, 64
5, 93840, Note_off_c, 5, 42, 0
5, 93840, Note_on_c, 5, 43, 63
5, 94080, Note_off_c, 5, 43, 0
5, 94080, Note_on_c, 5, 44, 62
5, 95520, Note_off_c, 5, 44, 0
5, 95520, Note_on_c, 5, 46, 59
5, 95760, Note_off_c, 5, 46, 0
5, 95760, Note_on_c, 5, 48, 58
5, 96000, Note_off_c, 5, 48, 0
5, 96000, Note_on_c, 5, 49, 57
5, 96480, Note_off_c, 5, 49, 0
5, 96480, Note_on_c, 5, 51, 56
5, 96720, Note_off_c, 5, 51, 0
5, 96720, Note_on_c, 5, 52, 56
5, 96960, Note_off_c, 5, 52, 0
5, 96960, Note_on_c, 5, 54, 56
5, 98400, Note_off_c, 5, 54, 0
5, 98400, Note_on_c, 5, 54, 57
5, 99360, Note_off_c, 5, 54, 0
5, 99360, Note_on_c, 5, 55, 58
5, 99600, Note_off_c, 5, 55, 0
5, 99600, Note_on_c, 5, 54, 59
5, 99840, Note_off_c, 5, 54, 0
5, 99840, Note_on_c, 5, 52, 59
5, 100560, Note_off_c, 5, 52, 0
5, 100560, Note_on_c, 5, 50, 59
5, 100800, Note_off_c, 5, 50, 0
5, 100800, Note_on_c, 5, 49, 60
5, 101280, Note_off_c, 5, 49, 0
5, 101280, Note_on_c, 5, 47, 60
5, 101760, Note_off_c, 5, 47, 0
5, 101760, Note_on_c, 5, 46, 60
5, 102720, Note_off_c, 5, 46, 0
5, 102720, Note_on_c, 5, 47, 61
5, 103680, Note_off_c, 5, 47, 0
5, 103680, Note_on_c, 5, 45, 62
5, 104400, Note_off_c, 5, 45, 0
5, 104400, Note_on_c, 5, 43, 63
5, 104640, Note_off_c, 5, 43, 0
5, 104640, Note_on_c, 5, 42, 63
5, 105600, Note_off_c, 5, 42, 0
5, 105600, Note_on_c, 5, 41, 64
5, 106560, Note_off_c, 5, 41, 0
5, 106560, Note_on_c, 5, 39, 64
5, 107520, Note_off_c, 5, 39, 0
5, 107520, Note_on_c, 5, 51, 65
5, 108480, Note_off_c, 5, 51, 0
5, 108480, Note_on_c, 5, 49, 65
5, 108960, Note_off_c, 5, 49, 0
5, 108960, Note_on_c, 5, 51, 63
5, 109200, Note_off_c, 5, 51, 0
5, 109200, Note_on_c, 5, 53, 62
5, 109440, Note_off_c, 5, 53, 0
5, 109440, Note_on_c, 5, 54, 60
5, 110880, Note_off_c, 5, 54, 0
5, 110880, Note_on_c, 5, 56, 54
5, 111120, Note_off_c, 5, 56, 0
5, 111120, Note_on_c, 5, 54, 53
5, 111360, Note_off_c, 5, 54, 0
5, 111360, Note_on_c, 5, 53, 52
5, 111552, Note_off_c, 5, 53, 0
5, 111600, Note_on_c, 5, 37, 50
5, 111840, Note_off_c, 5, 37, 0
5, 111840, Note_on_c, 5, 39, 50
5, 112080, Note_off_c, 5, 39, 0
5, 112080, Note_on_c, 5, 41, 50
5, 112320, Note_off_c, 5, 41, 0
5, 112320, Note_on_c, 5, 42, 51
5, 112560, Note_off_c, 5, 42, 0
5, 112560, Note_on_c, 5, 43, 51
5, 112800, Note_off_c, 5, 43, 0
5, 112800, Note_on_c, 5, 44, 51
5, 113040, Note_off_c, 5, 44, 0
5, 113040, Note_on_c, 5, 45, 50
5, 113280, Note_off_c, 5, 45, 0
5, 113280, Note_on_c, 5, 46, 50
5, 113520, Note_off_c, 5, 46, 0
5, 113520, Note_on_c, 5, 47, 50
5, 113760, Note_off_c, 5, 47, 0
5, 113760, Note_on_c, 5, 48, 50
5, 114000, Note_off_c, 5, 48, 0
5, 114000, Note_on_c, 5, 44, 50
5, 114240, Note_off_c, 5, 44, 0
5, 114240, Note_on_c, 5, 49, 51
5, 114480, Note_off_c, 5, 49, 0
5, 114480, Note_on_c, 5, 48, 51
5, 114720, Note_off_c, 5, 48, 0
5, 114720, Note_on_c, 5, 49, 51
5, 114960, Note_off_c, 5, 49, 0
5, 114960, Note_on_c, 5, 43, 51
5, 115200, Note_off_c, 5, 43, 0
5, 115200, Note_on_c, 5, 44, 52
5, 115387, Note_off_c, 5, 44, 0
5, 115440, Note_on_c, 5, 44, 52
5, 115680, Note_off_c, 5, 44, 0
5, 115680, Note_on_c, 5, 46, 52
5, 115920, Note_off_c, 5, 46, 0
5, 115920, Note_on_c, 5, 47, 52
5, 116160, Note_off_c, 5, 47, 0
5, 116160, Note_on_c, 5, 49, 52
5, 116400, Note_off_c, 5, 49, 0
5, 116400, Note_on_c, 5, 50, 53
5, 116640, Note_off_c, 5, 50, 0
5, 116640, Note_on_c, 5, 51, 53
5, 116880, Note_off_c, 5, 51, 0
5, 116880, Note_on_c, 5, 52, 53
5, 117120, Note_off_c, 5, 52, 0
5, 117120, Note_on_c, 5, 53, 53
5, 117360, Note_off_c, 5, 53, 0
5, 117360, Note_on_c, 5, 54, 53
5, 117600, Note_off_c, 5, 54, 0
5, 117600, Note_on_c, 5, 55, 54
5, 117840, Note_off_c, 5, 55, 0
5, 117840, Note_on_c, 5, 51, 54
5, 118080, Note_off_c, 5, 51, 0
5, 118080, Note_on_c, 5, 56, 54
5, 118320, Note_off_c, 5, 56, 0
5, 118320, Note_on_c, 5, 55, 54
5, 118560, Note_off_c, 5, 55, 0
5, 118560, Note_on_c, 5, 56, 54
5, 118800, Note_on_c, 5, 50, 55
5, 119040, Note_off_c, 5, 50, 0
5, 119040, Note_on_c, 5, 51, 55
5, 120000, Note_off_c, 5, 51, 0
5, 120000, Note_off_c, 5, 56, 0
5, 120000, Note_on_c, 5, 39, 56
5, 120480, Note_off_c, 5, 39, 0
5, 120480, Note_on_c, 5, 41, 56
5, 120720, Note_off_c, 5, 41, 0
5, 120720, Note_on_c, 5, 43, 56
5, 120960, Note_off_c, 5, 43, 0
5, 120960, Note_on_c, 5, 44, 57
5, 122400, Note_off_c, 5, 44, 0
5, 122400, Note_on_c, 5, 46, 58
5, 122640, Note_off_c, 5, 46, 0
5, 122640, Note_on_c, 5, 47, 58
5, 122880, Note_off_c, 5, 47, 0
5, 122880, Note_on_c, 5, 49, 58
5, 123360, Note_on_c, 5, 52, 64
5, 124320, Note_off_c, 5, 52, 0
5, 124320, Note_off_c, 5, 49, 0
5, 124320, Note_on_c, 5, 51, 60
5, 124560, Note_on_c, 5, 49, 60
5, 124800, Note_off_c, 5, 49, 0
5, 124800, Note_on_c, 5, 47, 60
5, 125280, Note_off_c, 5, 47, 0
5, 125280, Note_off_c, 5, 51, 0
5, 125280, Note_on_c, 5, 46, 60
5, 125760, Note_off_c, 5, 46, 0
5, 125760, Note_on_c, 5, 44, 61
5, 126240, Note_off_c, 5, 44, 0
5, 126240, Note_on_c, 5, 41, 61
5, 126720, Note_off_c, 5, 41, 0
5, 126720, Note_on_c, 5, 39, 65
5, 127080, Note_off_c, 5, 39, 0
5, 127200, Note_on_c, 5, 51, 68
5, 128160, Note_off_c, 5, 51, 0
5, 128160, Note_on_c, 5, 50, 61
5, 128640, Note_off_c, 5, 50, 0
5, 128640, Note_on_c, 5, 49, 59
5, 129000, Note_off_c, 5, 49, 0
5, 129120, Note_on_c, 5, 48, 58
5, 129600, Note_off_c, 5, 48, 0
5, 129600, Note_on_c, 5, 46, 57
5, 130080, Note_off_c, 5, 46, 0
5, 130080, Note_on_c, 5, 39, 55
5, 130560, Note_off_c, 5, 39, 0
5, 130560, Note_on_c, 5, 44, 54
5, 130800, Note_off_c, 5, 44, 0
5, 131040, Note_on_c, 5, 48, 62
5, 132000, Note_off_c, 5, 48, 0
5, 132000, Note_on_c, 5, 49, 59
5, 132120, Note_off_c, 5, 49, 0
5, 132120, Note_on_c, 5, 48, 59
5, 132240, Note_off_c, 5, 48, 0
5, 132240, Note_on_c, 5, 46, 59
5, 132360, Note_off_c, 5, 46, 0
5, 132360, Note_on_c, 5, 44, 60
5, 132480, Note_off_c, 5, 44, 0
5, 132480, Note_on_c, 5, 46, 60
5, 133440, Note_off_c, 5, 46, 0
5, 133440, Note_on_c, 5, 51, 62
5, 135120, Note_off_c, 5, 51, 0
5, 135120, Note_on_c, 5, 52, 65
5, 135360, Note_off_c, 5, 52, 0
5, 135360, Note_on_c, 5, 53, 66
5, 137040, Note_off_c, 5, 53, 0
5, 137040, Note_on_c, 5, 54, 69
5, 137280, Note_off_c, 5, 54, 0
5, 137280, Note_on_c, 5, 55, 69
5, 138240, Note_off_c, 5, 55, 0
5, 138240, Note_on_c, 5, 56, 71
5, 138720, Note_off_c, 5, 56, 0
5, 138720, Note_on_c, 5, 52, 71
5, 139200, Note_off_c, 5, 52, 0
5, 139200, Note_on_c, 5, 53, 70
5, 139680, Note_off_c, 5, 53, 0
5, 139680, Note_on_c, 5, 48, 70
5, 140160, Note_off_c, 5, 48, 0
5, 140160, Note_on_c, 5, 49, 69
5, 140640, Note_off_c, 5, 49, 0
5, 140640, Note_on_c, 5, 45, 69
5, 141120, Note_off_c, 5, 45, 0
5, 141120, Note_on_c, 5, 46, 68
5, 141600, Note_off_c, 5, 46, 0
5, 141600, Note_on_c, 5, 50, 68
5, 142080, Note_off_c, 5, 50, 0
5, 142080, Note_on_c, 5, 51, 67
5, 142320, Note_off_c, 5, 51, 0
5, 142560, Note_on_c, 5, 55, 72
5, 143520, Note_off_c, 5, 55, 0
5, 143520, Note_on_c, 5, 56, 66
5, 143640, Note_off_c, 5, 56, 0
5, 143640, Note_on_c, 5, 55, 66
5, 143760, Note_off_c, 5, 55, 0
5, 143760, Note_on_c, 5, 53, 66
5, 143880, Note_off_c, 5, 53, 0
5, 143880, Note_on_c, 5, 51, 66
5, 144000, Note_off_c, 5, 51, 0
5, 144000, Note_on_c, 5, 53, 66
5, 144240, Note_off_c, 5, 53, 0
5, 144480, Note_on_c, 5, 56, 70
5, 145440, Note_off_c, 5, 56, 0
5, 145440, Note_on_c, 5, 58, 64
5, 145560, Note_off_c, 5, 58, 0
5, 145560, Note_on_c, 5, 56, 64
5, 145680, Note_off_c, 5, 56, 0
5, 145680, Note_on_c, 5, 55, 64
5, 145800, Note_off_c, 5, 55, 0
5, 145800, Note_on_c, 5, 53, 64
5, 145920, Note_off_c, 5, 53, 0
5, 145920, Note_on_c, 5, 55, 64
5, 146160, Note_off_c, 5, 55, 0
5, 146400, Note_on_c, 5, 58, 68
5, 147360, Note_off_c, 5, 58, 0
5, 147360, Note_on_c, 5, 60, 62
5, 147480, Note_off_c, 5, 60, 0
5, 147480, Note_on_c, 5, 58, 62
5, 147600, Note_off_c, 5, 58, 0
5, 147600, Note_on_c, 5, 56, 62
5, 147720, Note_off_c, 5, 56, 0
5, 147720, Note_on_c, 5, 55, 62
5, 147840, Note_off_c, 5, 55, 0
5, 147840, Note_on_c, 5, 56, 62
5, 148200, Note_off_c, 5, 56, 0
5, 148320, Note_on_c, 5, 57, 61
5, 148800, Note_off_c, 5, 57, 0
5, 148800, Note_on_c, 5, 58, 61
5, 149280, Note_off_c, 5, 58, 0
5, 149280, Note_on_c, 5, 59, 60
5, 149760, Note_off_c, 5, 59, 0
5, 149760, Note_on_c, 5, 48, 58
5, 149880, Note_off_c, 5, 48, 0
5, 149880, Note_on_c, 5, 46, 58
5, 150000, Note_off_c, 5, 46, 0
5, 150000, Note_on_c, 5, 44, 58
5, 150120, Note_off_c, 5, 44, 0
5, 150120, Note_on_c, 5, 43, 59
5, 150240, Note_off_c, 5, 43, 0
5, 150240, Note_on_c, 5, 44, 59
5, 150360, Note_off_c, 5, 44, 0
5, 150360, Note_on_c, 5, 43, 59
5, 150480, Note_off_c, 5, 43, 0
5, 150480, Note_on_c, 5, 41, 60
5, 150600, Note_off_c, 5, 41, 0
5, 150600, Note_on_c, 5, 39, 60
5, 150720, Note_off_c, 5, 39, 0
5, 150720, Note_on_c, 5, 41, 60
5, 150840, Note_off_c, 5, 41, 0
5, 150840, Note_on_c, 5, 39, 61
5, 150960, Note_off_c, 5, 39, 0
5, 150960, Note_on_c, 5, 38, 61
5, 151080, Note_off_c, 5, 38, 0
5, 151080, Note_on_c, 5, 36, 61
5, 151200, Note_off_c, 5, 36, 0
5, 151200, Note_on_c, 5, 51, 62
5, 151680, Note_off_c, 5, 51, 0
5, 151680, Note_on_c, 5, 53, 63
5, 151800, Note_off_c, 5, 53, 0
5, 151800, Note_on_c, 5, 51, 64
5, 151920, Note_off_c, 5, 51, 0
5, 151920, Note_on_c, 5, 50, 64
5, 152040, Note_off_c, 5, 50, 0
5, 152040, Note_on_c, 5, 48, 64
5, 152160, Note_off_c, 5, 48, 0
5, 152160, Note_on_c, 5, 50, 65
5, 152280, Note_off_c, 5, 50, 0
5, 152280, Note_on_c, 5, 48, 65
5, 152400, Note_off_c, 5, 48, 0
5, 152400, Note_on_c, 5, 46, 65
5, 152520, Note_off_c, 5, 46, 0
5, 152520, Note_on_c, 5, 44, 66
5, 152640, Note_off_c, 5, 44, 0
5, 152640, Note_on_c, 5, 46, 66
5, 152760, Note_off_c, 5, 46, 0
5, 152760, Note_on_c, 5, 44, 66
5, 152880, Note_off_c, 5, 44, 0
5, 152880, Note_on_c, 5, 43, 67
5, 153000, Note_off_c, 5, 43, 0
5, 153000, Note_on_c, 5, 41, 67
5, 153120, Note_off_c, 5, 41, 0
5, 153120, Note_on_c, 5, 53, 67
5, 153600, Note_off_c, 5, 53, 0
5, 153600, Note_on_c, 5, 55, 69
5, 153720, Note_off_c, 5, 55, 0
5, 153720, Note_on_c, 5, 53, 69
5, 153840, Note_off_c, 5, 53, 0
5, 153840, Note_on_c, 5, 51, 70
5, 153960, Note_off_c, 5, 51, 0
5, 153960, Note_on_c, 5, 50, 70
5, 154080, Note_off_c, 5, 50, 0
5, 154080, Note_on_c, 5, 51, 70
5, 154200, Note_off_c, 5, 51, 0
5, 154200, Note_on_c, 5, 50, 71
5, 154320, Note_off_c, 5, 50, 0
5, 154320, Note_on_c, 5, 48, 71
5, 154440, Note_off_c, 5, 48, 0
5, 154440, Note_on_c, 5, 46, 71
5, 154560, Note_off_c, 5, 46, 0
5, 154560, Note_on_c, 5, 48, 72
5, 154680, Note_off_c, 5, 48, 0
5, 154680, Note_on_c, 5, 46, 72
5, 154800, Note_off_c, 5, 46, 0
5, 154800, Note_on_c, 5, 45, 72
5, 154920, Note_off_c, 5, 45, 0
5, 154920, Note_on_c, 5, 43, 73
5, 155040, Note_off_c, 5, 43, 0
5, 155040, Note_on_c, 5, 55, 73
5, 155520, Note_off_c, 5, 55, 0
5, 155520, Note_on_c, 5, 56, 71
5, 155760, Note_off_c, 5, 56, 0
5, 156000, Note_on_c, 5, 57, 70
5, 156480, Note_off_c, 5, 57, 0
5, 156480, Note_on_c, 5, 58, 69
5, 156720, Note_off_c, 5, 58, 0
5, 156960, Note_on_c, 5, 47, 68
5, 157440, Note_off_c, 5, 47, 0
5, 157440, Note_on_c, 5, 48, 67
5, 157680, Note_off_c, 5, 48, 0
5, 157920, Note_on_c, 5, 50, 66
5, 158400, Note_off_c, 5, 50, 0
5, 158400, Note_on_c, 5, 51, 65
5, 158640, Note_off_c, 5, 51, 0
5, 158880, Note_on_c, 5, 52, 64
5, 159360, Note_off_c, 5, 52, 0
5, 159360, Note_on_c, 5, 53, 63
5, 159600, Note_off_c, 5, 53, 0
5, 159840, Note_on_c, 5, 43, 63
5, 160320, Note_off_c, 5, 43, 0
5, 160320, Note_on_c, 5, 44, 62
5, 160560, Note_off_c, 5, 44, 0
5, 160800, Note_on_c, 5, 45, 61
5, 161280, Note_off_c, 5, 45, 0
5, 161280, Note_on_c, 5, 47, 60
5, 161520, Note_off_c, 5, 47, 0
5, 161760, Note_on_c, 5, 62, 63
5, 162720, Note_off_c, 5, 62, 0
5, 162720, Note_on_c, 5, 63, 60
5, 162840, Note_off_c, 5, 63, 0
5, 162840, Note_on_c, 5, 62, 61
5, 162960, Note_off_c, 5, 62, 0
5, 162960, Note_on_c, 5, 60, 61
5, 163080, Note_off_c, 5, 60, 0
5, 163080, Note_on_c, 5, 58, 61
5, 163200, Note_off_c, 5, 58, 0
5, 163200, Note_on_c, 5, 60, 61
5, 163440, Note_off_c, 5, 60, 0
5, 163680, Note_on_c, 5, 63, 67
5, 164640, Note_off_c, 5, 63, 0
5, 164640, Note_on_c, 5, 65, 64
5, 164760, Note_off_c, 5, 65, 0
5, 164760, Note_on_c, 5, 63, 64
5, 164880, Note_off_c, 5, 63, 0
5, 164880, Note_on_c, 5, 62, 65
5, 165000, Note_off_c, 5, 62, 0
5, 165000, Note_on_c, 5, 60, 65
5, 165120, Note_off_c, 5, 60, 0
5, 165120, Note_on_c, 5, 62, 64
5, 165480, Note_off_c, 5, 62, 0
5, 166080, Note_on_c, 5, 46, 63
5, 166320, Note_off_c, 5, 46, 0
5, 166560, Note_on_c, 5, 50, 66
5, 167520, Note_off_c, 5, 50, 0
5, 167520, Note_on_c, 5, 51, 62
5, 167640, Note_off_c, 5, 51, 0
5, 167640, Note_on_c, 5, 50, 62
5, 167760, Note_off_c, 5, 50, 0
5, 167760, Note_on_c, 5, 48, 62
5, 167880, Note_off_c, 5, 48, 0
5, 167880, Note_on_c, 5, 46, 62
5, 168000, Note_off_c, 5, 46, 0
5, 168000, Note_on_c, 5, 45, 62
5, 168240, Note_off_c, 5, 45, 0
5, 168480, Note_on_c, 5, 48, 66
5, 169440, Note_on_c, 5, 50, 61
5, 169462, Note_off_c, 5, 48, 0
5, 169560, Note_off_c, 5, 50, 0
5, 169560, Note_on_c, 5, 48, 60
5, 169680, Note_off_c, 5, 48, 0
5, 169680, Note_on_c, 5, 46, 60
5, 169800, Note_off_c, 5, 46, 0
5, 169800, Note_on_c, 5, 45, 60
5, 169920, Note_off_c, 5, 45, 0
5, 169920, Note_on_c, 5, 43, 60
5, 170040, Note_off_c, 5, 43, 0
5, 170040, Note_on_c, 5, 41, 60
5, 170160, Note_off_c, 5, 41, 0
5, 170160, Note_on_c, 5, 40, 60
5, 170280, Note_off_c, 5, 40, 0
5, 170280, Note_on_c, 5, 38, 60
5, 170400, Note_off_c, 5, 38, 0
5, 170400, Note_on_c, 5, 36, 60
5, 171360, Note_on_c, 5, 48, 59
5, 171840, Note_off_c, 5, 48, 0
5, 171840, Note_on_c, 5, 50, 59
5, 171847, Note_off_c, 5, 36, 0
5, 172320, Note_off_c, 5, 50, 0
5, 172320, Note_on_c, 5, 51, 59
5, 172800, Note_off_c, 5, 51, 0
5, 172800, Note_on_c, 5, 53, 57
5, 173040, Note_off_c, 5, 53, 0
5, 173040, Note_on_c, 5, 57, 57
5, 173280, Note_off_c, 5, 57, 0
5, 173280, Note_on_c, 5, 58, 57
5, 173520, Note_off_c, 5, 58, 0
5, 173520, Note_on_c, 5, 57, 57
5, 173760, Note_off_c, 5, 57, 0
5, 173760, Note_on_c, 5, 55, 57
5, 174000, Note_off_c, 5, 55, 0
5, 174000, Note_on_c, 5, 58, 56
5, 174240, Note_off_c, 5, 58, 0
5, 174240, Note_on_c, 5, 60, 56
5, 174480, Note_off_c, 5, 60, 0
5, 174480, Note_on_c, 5, 58, 56
5, 174720, Note_off_c, 5, 58, 0
5, 174720, Note_on_c, 5, 57, 56
5, 174960, Note_off_c, 5, 57, 0
5, 174960, Note_on_c, 5, 60, 56
5, 175200, Note_off_c, 5, 60, 0
5, 175200, Note_on_c, 5, 62, 55
5, 175440, Note_off_c, 5, 62, 0
5, 175440, Note_on_c, 5, 60, 55
5, 175680, Note_off_c, 5, 60, 0
5, 175680, Note_on_c, 5, 58, 55
5, 175920, Note_off_c, 5, 58, 0
5, 175920, Note_on_c, 5, 62, 55
5, 176160, Note_off_c, 5, 62, 0
5, 176160, Note_on_c, 5, 60, 55
5, 176400, Note_off_c, 5, 60, 0
5, 176400, Note_on_c, 5, 64, 54
5, 176640, Note_off_c, 5, 64, 0
5, 176640, Note_on_c, 5, 62, 54
5, 176880, Note_off_c, 5, 62, 0
5, 176880, Note_on_c, 5, 65, 54
5, 177120, Note_off_c, 5, 65, 0
5, 177120, Note_on_c, 5, 64, 54
5, 177360, Note_off_c, 5, 64, 0
5, 177360, Note_on_c, 5, 67, 54
5, 177600, Note_off_c, 5, 67, 0
5, 177600, Note_on_c, 5, 62, 54
5, 177840, Note_off_c, 5, 62, 0
5, 177840, Note_on_c, 5, 65, 53
5, 178080, Note_off_c, 5, 65, 0
5, 178080, Note_on_c, 5, 60, 53
5, 178320, Note_off_c, 5, 60, 0
5, 178320, Note_on_c, 5, 64, 53
5, 178560, Note_off_c, 5, 64, 0
5, 178560, Note_on_c, 5, 65, 53
5, 178800, Note_off_c, 5, 65, 0
5, 179040, Note_on_c, 5, 62, 52
5, 180000, Note_off_c, 5, 62, 0
5, 180000, Note_on_c, 5, 61, 52
5, 180960, Note_off_c, 5, 61, 0
5, 180960, Note_on_c, 5, 60, 51
5, 181440, Note_off_c, 5, 60, 0
5, 181440, Note_on_c, 5, 59, 50
5, 181920, Note_off_c, 5, 59, 0
5, 181920, Note_on_c, 5, 58, 50
5, 182400, Note_off_c, 5, 58, 0
5, 182400, Note_on_c, 5, 57, 50
5, 182880, Note_off_c, 5, 57, 0
5, 182880, Note_on_c, 5, 56, 49
5, 183840, Note_off_c, 5, 56, 0
5, 183840, Note_on_c, 5, 53, 49
5, 184320, Note_off_c, 5, 53, 0
5, 184320, Note_on_c, 5, 52, 48
5, 184680, Note_off_c, 5, 52, 0
5, 184800, Note_on_c, 5, 50, 48
5, 185280, Note_off_c, 5, 50, 0
5, 185280, Note_on_c, 5, 48, 47
5, 185760, Note_off_c, 5, 48, 0
5, 185760, Note_on_c, 5, 47, 47
5, 186240, Note_off_c, 5, 47, 0
5, 186240, Note_on_c, 5, 46, 47
5, 187680, Note_off_c, 5, 46, 0
5, 188640, Note_on_c, 5, 49, 45
5, 189120, Note_off_c, 5, 49, 0
5, 189120, Note_on_c, 5, 48, 44
5, 190080, Note_off_c, 5, 48, 0
5, 190080, Note_on_c, 5, 46, 44
5, 190440, Note_off_c, 5, 46, 0
5, 190560, Note_on_c, 5, 50, 46
5, 190680, Note_off_c, 5, 50, 0
5, 190680, Note_on_c, 5, 48, 46
5, 190800, Note_off_c, 5, 48, 0
5, 190800, Note_on_c, 5, 46, 46
5, 190920, Note_off_c, 5, 46, 0
5, 190920, Note_on_c, 5, 45, 46
5, 191040, Note_off_c, 5, 45, 0
5, 191040, Note_on_c, 5, 43, 46
5, 192480, Note_off_c, 5, 43, 0
5, 192480, Note_on_c, 5, 43, 58
5, 192960, Note_off_c, 5, 43, 0
5, 192960, Note_on_c, 5, 44, 60
5, 193080, Note_off_c, 5, 44, 0
5, 193080, Note_on_c, 5, 49, 60
5, 193200, Note_off_c, 5, 49, 0
5, 193200, Note_on_c, 5, 48, 60
5, 193320, Note_off_c, 5, 48, 0
5, 193320, Note_on_c, 5, 46, 61
5, 193440, Note_off_c, 5, 46, 0
5, 193440, Note_on_c, 5, 45, 61
5, 193657, Note_off_c, 5, 45, 0
5, 193680, Note_on_c, 5, 45, 62
5, 193920, Note_off_c, 5, 45, 0
5, 193920, Note_on_c, 5, 46, 63
5, 194040, Note_off_c, 5, 46, 0
5, 194040, Note_on_c, 5, 51, 63
5, 194160, Note_off_c, 5, 51, 0
5, 194160, Note_on_c, 5, 50, 64
5, 194280, Note_off_c, 5, 50, 0
5, 194280, Note_on_c, 5, 48, 64
5, 194400, Note_off_c, 5, 48, 0
5, 194400, Note_on_c, 5, 47, 65
5, 194595, Note_off_c, 5, 47, 0
5, 194640, Note_on_c, 5, 47, 66
5, 194880, Note_off_c, 5, 47, 0
5, 194880, Note_on_c, 5, 48, 66
5, 195000, Note_off_c, 5, 48, 0
5, 195000, Note_on_c, 5, 53, 67
5, 195120, Note_off_c, 5, 53, 0
5, 195120, Note_on_c, 5, 51, 67
5, 195240, Note_off_c, 5, 51, 0
5, 195240, Note_on_c, 5, 50, 68
5, 195360, Note_off_c, 5, 50, 0
5, 195360, Note_on_c, 5, 48, 68
5, 195802, Note_off_c, 5, 48, 0
5, 195840, Control_c, 5, 64, 127
5, 195840, Note_on_c, 5, 36, 69
5, 195960, Note_off_c, 5, 36, 0
5, 195960, Note_on_c, 5, 48, 69
5, 196080, Note_off_c, 5, 48, 0
5, 197640, Control_c, 5, 64, 0
5, 197760, Control_c, 5, 64, 127
5, 197760, Note_on_c, 5, 47, 67
5, 197880, Note_off_c, 5, 47, 0
5, 197880, Note_on_c, 5, 50, 68
5, 198000, Note_off_c, 5, 50, 0
5, 198000, Note_on_c, 5, 53, 69
5, 198120, Note_off_c, 5, 53, 0
5, 202080, Control_c, 5, 64, 0
5, 202080, Note_on_c, 5, 48, 53
5, 203040, Note_off_c, 5, 48, 0
5, 203040, Note_on_c, 5, 42, 57
5, 203520, Note_off_c, 5, 42, 0
5, 203520, Note_on_c, 5, 43, 59
5, 203880, Note_off_c, 5, 43, 0
5, 204000, Note_on_c, 5, 50, 65
5, 204120, Note_off_c, 5, 50, 0
5, 204120, Note_on_c, 5, 48, 66
5, 204240, Note_off_c, 5, 48, 0
5, 204240, Note_on_c, 5, 47, 66
5, 204360, Note_off_c, 5, 47, 0
5, 204360, Note_on_c, 5, 45, 67
5, 204480, Note_off_c, 5, 45, 0
5, 204480, Note_on_c, 5, 43, 67
5, 204960, Note_on_c, 5, 50, 69
5, 205440, Note_off_c, 5, 50, 0
5, 205440, Note_on_c, 5, 51, 71
5, 205441, Note_off_c, 5, 43, 0
5, 205800, Note_off_c, 5, 51, 0
5, 205920, Note_on_c, 5, 52, 73
5, 205920, Note_on_c, 5, 43, 73
5, 206040, Note_off_c, 5, 52, 0
5, 206040, Note_on_c, 5, 50, 74
5, 206160, Note_off_c, 5, 50, 0
5, 206160, Note_on_c, 5, 48, 74
5, 206280, Note_off_c, 5, 48, 0
5, 206280, Note_on_c, 5, 46, 75
5, 206400, Note_off_c, 5, 46, 0
5, 206400, Note_on_c, 5, 45, 75
5, 206760, Note_off_c, 5, 45, 0
5, 207360, Note_on_c, 5, 53, 79
5, 208320, Note_off_c, 5, 53, 0
5, 208320, Note_on_c, 5, 52, 75
5, 209280, Note_off_c, 5, 52, 0
5, 209520, Note_on_c, 5, 51, 72
5, 209760, Note_off_c, 5, 51, 0
5, 209760, Note_on_c, 5, 53, 71
5, 210000, Note_off_c, 5, 53, 0
5, 210000, Note_on_c, 5, 51, 70
5, 210240, Note_off_c, 5, 51, 0
5, 210240, Note_on_c, 5, 50, 70
5, 211200, Note_off_c, 5, 50, 0
5, 211200, Note_on_c, 5, 49, 67
5, 211680, Note_off_c, 5, 49, 0
5, 211680, Note_on_c, 5, 48, 66
5, 212160, Note_off_c, 5, 48, 0
5, 212160, Note_on_c, 5, 47, 65
5, 212640, Note_off_c, 5, 47, 0
5, 212640, Note_on_c, 5, 48, 64
5, 213120, Note_off_c, 5, 48, 0
5, 213120, Note_on_c, 5, 48, 67
5, 214560, Note_off_c, 5, 48, 0
5, 214560, Note_on_c, 5, 54, 81
5, 215520, Note_off_c, 5, 54, 0
5, 215520, Note_on_c, 5, 51, 85
5, 215640, Note_off_c, 5, 51, 0
5, 215640, Note_on_c, 5, 50, 85
5, 215760, Note_off_c, 5, 50, 0
5, 215760, Note_on_c, 5, 48, 85
5, 215880, Note_off_c, 5, 48, 0
5, 215880, Note_on_c, 5, 46, 84
5, 216000, Note_off_c, 5, 46, 0
5, 216000, Note_on_c, 5, 45, 84
5, 216192, Note_off_c, 5, 45, 0
5, 216240, Note_on_c, 5, 48, 83
5, 216480, Note_off_c, 5, 48, 0
5, 216480, Note_on_c, 5, 50, 82
5, 216720, Note_off_c, 5, 50, 0
5, 216720, Note_on_c, 5, 48, 81
5, 216960, Note_off_c, 5, 48, 0
5, 216960, Note_on_c, 5, 47, 80
5, 217320, Note_off_c, 5, 47, 0
5, 218400, Note_on_c, 5, 53, 92
5, 219360, Note_off_c, 5, 53, 0
5, 219360, Note_on_c, 5, 56, 87
5, 219480, Note_off_c, 5, 56, 0
5, 219480, Note_on_c, 5, 55, 85
5, 219600, Note_off_c, 5, 55, 0
5, 219600, Note_on_c, 5, 53, 83
5, 219720, Note_off_c, 5, 53, 0
5, 219720, Note_on_c, 5, 51, 82
5, 219840, Note_off_c, 5, 51, 0
5, 219840, Note_on_c, 5, 50, 80
5, 220032, Note_off_c, 5, 50, 0
5, 220080, Note_on_c, 5, 53, 78
5, 220320, Note_off_c, 5, 53, 0
5, 220320, Note_on_c, 5, 55, 76
5, 220560, Note_off_c, 5, 55, 0
5, 220560, Note_on_c, 5, 53, 73
5, 220800, Note_off_c, 5, 53, 0
5, 220800, Note_on_c, 5, 51, 71
5, 221160, Note_off_c, 5, 51, 0
5, 221280, Note_on_c, 5, 50, 67
5, 221760, Note_off_c, 5, 50, 0
5, 221760, Note_on_c, 5, 48, 62
5, 222240, Note_off_c, 5, 48, 0
5, 222240, Note_on_c, 5, 47, 58
5, 222720, Note_off_c, 5, 47, 0
5, 222720, Note_on_c, 5, 48, 54
5, 223080, Note_off_c, 5, 48, 0
5, 223200, Note_on_c, 5, 50, 49
5, 223680, Note_off_c, 5, 50, 0
5, 223680, Note_on_c, 5, 48, 45
5, 224160, Note_off_c, 5, 48, 0
5, 224160, Note_on_c, 5, 47, 41
5, 224640, Control_c, 5, 64, 127
5, 224640, Note_off_c, 5, 47, 0
5, 224640, Note_off_c, 5, 43, 0
5, 224640, Note_on_c, 5, 43, 36
5, 224760, Note_off_c, 5, 43, 0
5, 224760, Note_on_c, 5, 50, 35
5, 224880, Note_off_c, 5, 50, 0
5, 224880, Note_on_c, 5, 55, 35
5, 225000, Note_off_c, 5, 55, 0
5, 226560, Control_c, 5, 64, 0
5, 227520, Note_on_c, 5, 36, 35
5, 227760, Note_off_c, 5, 36, 0
5, 228000, Note_on_c, 5, 40, 36
5, 228480, Note_off_c, 5, 40, 0
5, 228480, Note_on_c, 5, 43, 36
5, 228720, Note_off_c, 5, 43, 0
5, 228960, Note_on_c, 5, 47, 42
5, 229920, Note_off_c, 5, 47, 0
5, 229920, Note_on_c, 5, 48, 38
5, 230040, Note_off_c, 5, 48, 0
5, 230040, Note_on_c, 5, 47, 38
5, 230160, Note_off_c, 5, 47, 0
5, 230160, Note_on_c, 5, 45, 38
5, 230280, Note_off_c, 5, 45, 0
5, 230280, Note_on_c, 5, 43, 38
5, 230400, Note_off_c, 5, 43, 0
5, 230400, Note_on_c, 5, 48, 39
5, 231840, Note_off_c, 5, 48, 0
5, 231840, Note_on_c, 5, 48, 40
5, 232320, Note_off_c, 5, 48, 0
5, 232320, Note_on_c, 5, 47, 41
5, 233280, Note_off_c, 5, 47, 0
5, 233280, Note_on_c, 5, 46, 42
5, 234240, Note_off_c, 5, 46, 0
5, 234240, Note_on_c, 5, 45, 43
5, 234600, Note_off_c, 5, 45, 0
5, 234720, Note_on_c, 5, 45, 42
5, 235200, Note_off_c, 5, 45, 0
5, 235200, Note_on_c, 5, 47, 41
5, 235680, Note_off_c, 5, 47, 0
5, 235680, Note_on_c, 5, 48, 40
5, 236160, Note_off_c, 5, 48, 0
5, 236160, Note_on_c, 5, 42, 40
5, 238080, Note_off_c, 5, 42, 0
5, 238080, Note_on_c, 5, 43, 37
5, 238080, Note_on_c, 5, 55, 37
5, 240000, Note_off_c, 5, 55, 0
5, 240000, Note_off_c, 5, 43, 0
5, 240000, Note_on_c, 5, 41, 34
5, 240000, Note_on_c, 5, 53, 34
5, 241920, Control_c, 5, 64, 127
5, 241920, Note_off_c, 5, 53, 0
5, 241920, Note_off_c, 5, 41, 0
5, 241920, Note_on_c, 5, 36, 31
5, 242040, Note_off_c, 5, 36, 0
5, 242040, Note_on_c, 5, 40, 31
5, 242160, Note_off_c, 5, 40, 0
5, 242160, Note_on_c, 5, 43, 31
5, 242280, Note_off_c, 5, 43, 0
5, 242280, Note_on_c, 5, 48, 31
5, 242400, Note_off_c, 5, 48, 0
5, 245760, Control_c, 5, 64, 0
5, 245760, Note_on_c, 5, 48, 30
5, 248040, Note_off_c, 5, 48, 0
5, 248160, Note_on_c, 5, 57, 30
5, 248640, Note_off_c, 5, 57, 0
5, 248640, Note_on_c, 5, 50, 30
5, 249120, Note_off_c, 5, 50, 0
5, 249120, Note_on_c, 5, 55, 31
5, 249600, Note_off_c, 5, 55, 0
5, 249600, Note_on_c, 5, 48, 31
5, 249960, Note_off_c, 5, 48, 0
5, 250080, Note_on_c, 5, 60, 31
5, 251887, Note_off_c, 5, 60, 0
5, 252000, Note_on_c, 5, 69, 31
5, 252480, Note_off_c, 5, 69, 0
5, 252480, Note_on_c, 5, 62, 31
5, 252960, Note_off_c, 5, 62, 0
5, 252960, Note_on_c, 5, 67, 32
5, 253440, Note_off_c, 5, 67, 0
5, 253440, Note_on_c, 5, 60, 32
5, 253800, Note_off_c, 5, 60, 0
5, 253920, Note_on_c, 5, 59, 32
5, 254400, Note_off_c, 5, 59, 0
5, 254400, Note_on_c, 5, 57, 32
5, 254880, Note_off_c, 5, 57, 0
5, 254880, Note_on_c, 5, 62, 32
5, 255360, Note_off_c, 5, 62, 0
5, 255360, Note_on_c, 5, 55, 32
5, 255720, Note_off_c, 5, 55, 0
5, 255840, Note_on_c, 5, 47, 32
5, 256320, Note_off_c, 5, 47, 0
5, 256320, Note_on_c, 5, 48, 32
5, 256800, Note_off_c, 5, 48, 0
5, 256800, Note_on_c, 5, 52, 32
5, 257280, Note_off_c, 5, 52, 0
5, 257280, Note_on_c, 5, 50, 33
5, 257640, Note_off_c, 5, 50, 0
5, 257760, Note_on_c, 5, 60, 33
5, 258240, Note_off_c, 5, 60, 0
5, 258240, Note_on_c, 5, 59, 33
5, 258720, Note_off_c, 5, 59, 0
5, 258720, Note_on_c, 5, 57, 33
5, 259200, Note_off_c, 5, 57, 0
5, 259200, Note_on_c, 5, 55, 33
5, 259560, Note_off_c, 5, 55, 0
5, 260640, Note_on_c, 5, 67, 33
5, 261120, Note_off_c, 5, 67, 0
5, 261120, Note_on_c, 5, 66, 34
5, 261480, Note_off_c, 5, 66, 0
5, 261600, Note_on_c, 5, 59, 34
5, 262080, Note_off_c, 5, 59, 0
5, 262080, Note_on_c, 5, 52, 34
5, 262560, Note_off_c, 5, 52, 0
5, 262560, Note_on_c, 5, 57, 34
5, 263040, Note_off_c, 5, 57, 0
5, 263040, Note_on_c, 5, 50, 34
5, 263400, Note_off_c, 5, 50, 0
5, 263520, Note_on_c, 5, 49, 34
5, 264000, Note_off_c, 5, 49, 0
5, 264000, Note_on_c, 5, 47, 34
5, 264480, Note_off_c, 5, 47, 0
5, 264480, Note_on_c, 5, 40, 34
5, 264960, Note_off_c, 5, 40, 0
5, 264960, Note_on_c, 5, 45, 34
5, 265320, Note_off_c, 5, 45, 0
5, 265440, Note_on_c, 5, 44, 35
5, 265920, Note_off_c, 5, 44, 0
5, 265920, Note_on_c, 5, 42, 35
5, 266400, Note_off_c, 5, 42, 0
5, 266400, Note_on_c, 5, 47, 35
5, 266880, Note_off_c, 5, 47, 0
5, 266880, Note_on_c, 5, 40, 35
5, 267240, Note_off_c, 5, 40, 0
5, 267360, Note_on_c, 5, 56, 35
5, 267840, Note_off_c, 5, 56, 0
5, 267840, Note_on_c, 5, 57, 35
5, 268320, Note_off_c, 5, 57, 0
5, 268320, Note_on_c, 5, 61, 35
5, 268800, Note_off_c, 5, 61, 0
5, 268800, Note_on_c, 5, 59, 35
5, 269160, Note_off_c, 5, 59, 0
5, 269280, Note_on_c, 5, 47, 36
5, 269760, Note_off_c, 5, 47, 0
5, 269760, Note_on_c, 5, 49, 36
5, 270240, Note_off_c, 5, 49, 0
5, 270240, Note_on_c, 5, 45, 36
5, 270720, Note_off_c, 5, 45, 0
5, 270720, Note_on_c, 5, 44, 36
5, 271200, Note_off_c, 5, 44, 0
5, 271200, Note_on_c, 5, 49, 36
5, 271680, Note_off_c, 5, 49, 0
5, 271680, Note_on_c, 5, 42, 36
5, 272160, Note_off_c, 5, 42, 0
5, 272160, Note_on_c, 5, 47, 36
5, 272640, Note_off_c, 5, 47, 0
5, 272640, Note_on_c, 5, 40, 36
5, 273120, Note_off_c, 5, 40, 0
5, 273120, Note_on_c, 5, 52, 37
5, 273600, Note_off_c, 5, 52, 0
5, 273600, Note_on_c, 5, 51, 37
5, 274080, Note_off_c, 5, 51, 0
5, 274080, Note_on_c, 5, 44, 37
5, 274560, Note_off_c, 5, 44, 0
5, 274560, Note_on_c, 5, 49, 37
5, 275040, Note_off_c, 5, 49, 0
5, 275040, Note_on_c, 5, 47, 37
5, 275520, Note_off_c, 5, 47, 0
5, 275520, Note_on_c, 5, 46, 37
5, 276000, Note_off_c, 5, 46, 0
5, 276000, Note_on_c, 5, 42, 37
5, 276480, Note_off_c, 5, 42, 0
5, 276480, Note_on_c, 5, 47, 37
5, 276840, Note_off_c, 5, 47, 0
5, 276960, Note_on_c, 5, 66, 37
5, 277440, Note_off_c, 5, 66, 0
5, 277440, Note_on_c, 5, 68, 38
5, 277920, Note_off_c, 5, 68, 0
5, 277920, Note_on_c, 5, 64, 38
5, 278400, Note_off_c, 5, 64, 0
5, 278400, Note_on_c, 5, 63, 38
5, 278760, Note_off_c, 5, 63, 0
5, 278880, Note_on_c, 5, 68, 38
5, 279360, Note_off_c, 5, 68, 0
5, 279360, Note_on_c, 5, 61, 38
5, 279840, Note_off_c, 5, 61, 0
5, 279840, Note_on_c, 5, 66, 38
5, 280320, Note_off_c, 5, 66, 0
5, 280320, Note_on_c, 5, 59, 38
5, 280680, Note_off_c, 5, 59, 0
5, 280800, Note_on_c, 5, 57, 38
5, 281280, Note_off_c, 5, 57, 0
5, 281280, Note_on_c, 5, 56, 39
5, 281760, Note_off_c, 5, 56, 0
5, 281760, Note_on_c, 5, 61, 39
5, 282240, Note_off_c, 5, 61, 0
5, 282240, Note_on_c, 5, 54, 39
5, 282600, Note_off_c, 5, 54, 0
5, 282720, Note_on_c, 5, 53, 39
5, 283200, Note_off_c, 5, 53, 0
5, 283200, Note_on_c, 5, 51, 39
5, 283680, Note_off_c, 5, 51, 0
5, 283680, Note_on_c, 5, 56, 39
5, 284160, Note_off_c, 5, 56, 0
5, 284160, Note_on_c, 5, 49, 39
5, 284520, Note_off_c, 5, 49, 0
5, 284640, Note_on_c, 5, 37, 39
5, 285600, Note_off_c, 5, 37, 0
5, 285600, Note_on_c, 5, 37, 40
5, 286440, Note_off_c, 5, 37, 0
5, 286560, Note_on_c, 5, 44, 40
5, 287040, Note_off_c, 5, 44, 0
5, 287040, Note_on_c, 5, 46, 40
5, 287520, Note_off_c, 5, 46, 0
5, 287520, Note_on_c, 5, 42, 40
5, 288000, Note_off_c, 5, 42, 0
5, 288000, Note_on_c, 5, 41, 40
5, 288360, Note_off_c, 5, 41, 0
5, 288480, Note_on_c, 5, 49, 40
5, 289920, Note_off_c, 5, 49, 0
5, 289920, Note_on_c, 5, 48, 41
5, 290880, Note_off_c, 5, 48, 0
5, 290880, Note_on_c, 5, 46, 41
5, 291840, Note_off_c, 5, 46, 0
5, 291840, Note_on_c, 5, 45, 41
5, 292200, Note_off_c, 5, 45, 0
5, 292320, Note_on_c, 5, 45, 41
5, 292800, Note_off_c, 5, 45, 0
5, 292800, Note_on_c, 5, 46, 41
5, 293280, Note_off_c, 5, 46, 0
5, 293280, Note_on_c, 5, 49, 42
5, 293760, Note_off_c, 5, 49, 0
5, 293760, Note_on_c, 5, 48, 42
5, 294120, Note_off_c, 5, 48, 0
5, 294240, Note_on_c, 5, 48, 42
5, 294720, Note_off_c, 5, 48, 0
5, 294720, Note_on_c, 5, 49, 42
5, 295200, Note_off_c, 5, 49, 0
5, 295200, Note_on_c, 5, 46, 42
5, 295680, Note_off_c, 5, 46, 0
5, 295680, Note_on_c, 5, 45, 42
5, 296047, Note_off_c, 5, 45, 0
5, 296160, Note_on_c, 5, 44, 42
5, 296640, Note_off_c, 5, 44, 0
5, 296640, Note_on_c, 5, 43, 42
5, 297120, Note_off_c, 5, 43, 0
5, 297120, Note_on_c, 5, 39, 42
5, 297600, Note_off_c, 5, 39, 0
5, 297600, Note_on_c, 5, 44, 43
5, 297960, Note_off_c, 5, 44, 0
5, 298080, Note_on_c, 5, 48, 43
5, 298560, Note_off_c, 5, 48, 0
5, 298560, Note_on_c, 5, 49, 43
5, 299040, Note_off_c, 5, 49, 0
5, 299040, Note_on_c, 5, 53, 43
5, 299520, Note_off_c, 5, 53, 0
5, 299520, Note_on_c, 5, 51, 43
5, 300240, Note_off_c, 5, 51, 0
5, 300240, Note_on_c, 5, 52, 43
5, 300720, Note_off_c, 5, 52, 0
5, 300720, Note_on_c, 5, 53, 43
5, 301200, Note_off_c, 5, 53, 0
5, 301200, Note_on_c, 5, 55, 43
5, 301680, Note_off_c, 5, 55, 0
5, 301680, Note_on_c, 5, 56, 44
5, 301836, Note_off_c, 5, 56, 0
5, 301920, Note_on_c, 5, 56, 44
5, 303360, Note_off_c, 5, 56, 0
5, 303360, Note_on_c, 5, 56, 44
5, 304080, Note_off_c, 5, 56, 0
5, 304080, Note_on_c, 5, 53, 44
5, 304560, Note_off_c, 5, 53, 0
5, 304560, Note_on_c, 5, 58, 44
5, 305040, Note_off_c, 5, 58, 0
5, 305040, Note_on_c, 5, 51, 44
5, 305520, Note_off_c, 5, 51, 0
5, 305520, Note_on_c, 5, 56, 45
5, 306000, Note_off_c, 5, 56, 0
5, 306000, Note_on_c, 5, 55, 45
5, 306240, Note_off_c, 5, 55, 0
5, 306240, Note_on_c, 5, 53, 45
5, 306720, Note_off_c, 5, 53, 0
5, 306720, Note_on_c, 5, 46, 45
5, 307440, Note_off_c, 5, 46, 0
5, 307440, Note_on_c, 5, 51, 45
5, 307920, Note_off_c, 5, 51, 0
5, 307920, Note_on_c, 5, 49, 45
5, 308400, Note_off_c, 5, 49, 0
5, 308400, Note_on_c, 5, 48, 45
5, 308880, Note_off_c, 5, 48, 0
5, 308880, Note_on_c, 5, 41, 45
5, 309120, Note_off_c, 5, 41, 0
5, 309120, Note_on_c, 5, 46, 45
5, 309480, Note_off_c, 5, 46, 0
5, 309600, Note_on_c, 5, 50, 46
5, 310080, Note_off_c, 5, 50, 0
5, 310080, Note_on_c, 5, 51, 46
5, 310560, Note_off_c, 5, 51, 0
5, 310560, Note_on_c, 5, 55, 46
5, 311040, Note_off_c, 5, 55, 0
5, 311040, Note_on_c, 5, 54, 46
5, 311520, Note_off_c, 5, 54, 0
5, 311520, Note_on_c, 5, 53, 46
5, 312000, Note_off_c, 5, 53, 0
5, 312000, Note_on_c, 5, 51, 46
5, 312480, Note_off_c, 5, 51, 0
5, 312480, Note_on_c, 5, 48, 46
5, 312960, Note_off_c, 5, 48, 0
5, 312960, Note_on_c, 5, 50, 46
5, 313320, Note_off_c, 5, 50, 0
5, 313440, Note_on_c, 5, 43, 47
5, 313920, Note_off_c, 5, 43, 0
5, 313920, Note_on_c, 5, 48, 47
5, 314400, Note_off_c, 5, 48, 0
5, 314400, Note_on_c, 5, 41, 47
5, 314880, Note_off_c, 5, 41, 0
5, 314880, Note_on_c, 5, 46, 47
5, 315240, Note_off_c, 5, 46, 0
5, 315360, Note_on_c, 5, 44, 47
5, 315840, Note_off_c, 5, 44, 0
5, 315840, Note_on_c, 5, 43, 47
5, 316320, Note_off_c, 5, 43, 0
5, 316320, Note_on_c, 5, 48, 47
5, 316800, Note_off_c, 5, 48, 0
5, 316800, Note_on_c, 5, 41, 47
5, 317160, Note_off_c, 5, 41, 0
5, 318240, Note_on_c, 5, 65, 48
5, 318720, Note_off_c, 5, 65, 0
5, 318720, Note_on_c, 5, 64, 48
5, 319080, Note_off_c, 5, 64, 0
5, 319200, Note_on_c, 5, 62, 48
5, 320160, Note_off_c, 5, 62, 0
5, 320160, Note_on_c, 5, 61, 48
5, 320640, Note_off_c, 5, 61, 0
5, 320640, Note_on_c, 5, 60, 48
5, 321000, Note_off_c, 5, 60, 0
5, 321120, Note_on_c, 5, 58, 48
5, 322080, Note_off_c, 5, 58, 0
5, 322080, Note_on_c, 5, 57, 49
5, 322560, Note_off_c, 5, 57, 0
5, 322560, Note_on_c, 5, 56, 49
5, 322920, Note_off_c, 5, 56, 0
5, 323040, Note_on_c, 5, 45, 49
5, 323520, Note_off_c, 5, 45, 0
5, 323520, Note_on_c, 5, 46, 49
5, 324000, Note_off_c, 5, 46, 0
5, 324000, Note_on_c, 5, 50, 49
5, 324480, Note_off_c, 5, 50, 0
5, 324480, Note_on_c, 5, 49, 49
5, 324840, Note_off_c, 5, 49, 0
5, 325920, Note_on_c, 5, 65, 50
5, 326400, Note_off_c, 5, 65, 0
5, 326400, Note_on_c, 5, 64, 50
5, 326760, Note_off_c, 5, 64, 0
5, 326880, Note_on_c, 5, 52, 50
5, 327360, Note_off_c, 5, 52, 0
5, 327360, Note_on_c, 5, 53, 50
5, 327840, Note_off_c, 5, 53, 0
5, 327840, Note_on_c, 5, 57, 50
5, 328320, Note_off_c, 5, 57, 0
5, 328320, Note_on_c, 5, 56, 50
5, 328680, Note_off_c, 5, 56, 0
5, 328800, Note_on_c, 5, 64, 50
5, 329280, Note_off_c, 5, 64, 0
5, 329280, Note_on_c, 5, 65, 50
5, 329760, Note_off_c, 5, 65, 0
5, 329760, Note_on_c, 5, 69, 51
5, 330240, Note_off_c, 5, 69, 0
5, 330240, Note_on_c, 5, 68, 51
5, 330600, Note_off_c, 5, 68, 0
5, 330720, Note_on_c, 5, 67, 51
5, 331200, Note_off_c, 5, 67, 0
5, 331200, Note_on_c, 5, 66, 51
5, 331680, Note_off_c, 5, 66, 0
5, 331680, Note_on_c, 5, 65, 51
5, 332160, Note_off_c, 5, 65, 0
5, 332160, Note_on_c, 5, 64, 51
5, 332520, Note_off_c, 5, 64, 0
5, 332640, Note_on_c, 5, 48, 51
5, 334440, Note_off_c, 5, 48, 0
5, 334560, Note_on_c, 5, 57, 52
5, 335040, Note_off_c, 5, 57, 0
5, 335040, Note_on_c, 5, 50, 52
5, 335520, Note_off_c, 5, 50, 0
5, 335520, Note_on_c, 5, 59, 52
5, 336000, Note_off_c, 5, 59, 0
5, 336000, Note_on_c, 5, 48, 52
5, 336360, Note_off_c, 5, 48, 0
5, 336480, Note_on_c, 5, 60, 52
5, 338280, Note_off_c, 5, 60, 0
5, 338400, Note_on_c, 5, 69, 53
5, 338880, Note_off_c, 5, 69, 0
5, 338880, Note_on_c, 5, 62, 53
5, 339360, Note_off_c, 5, 62, 0
5, 339360, Note_on_c, 5, 67, 53
5, 339840, Note_off_c, 5, 67, 0
5, 339840, Note_on_c, 5, 60, 53
5, 340200, Note_off_c, 5, 60, 0
5, 340320, Note_on_c, 5, 64, 53
5, 340800, Note_off_c, 5, 64, 0
5, 340800, Note_on_c, 5, 57, 53
5, 341280, Note_off_c, 5, 57, 0
5, 341280, Note_on_c, 5, 62, 53
5, 341760, Note_off_c, 5, 62, 0
5, 341760, Note_on_c, 5, 55, 54
5, 342120, Note_off_c, 5, 55, 0
5, 342240, Note_on_c, 5, 59, 54
5, 342720, Note_off_c, 5, 59, 0
5, 342720, Note_on_c, 5, 52, 54
5, 343200, Note_off_c, 5, 52, 0
5, 343200, Note_on_c, 5, 57, 54
5, 343680, Note_off_c, 5, 57, 0
5, 343680, Note_on_c, 5, 50, 54
5, 344040, Note_off_c, 5, 50, 0
5, 344160, Note_on_c, 5, 45, 54
5, 345120, Note_off_c, 5, 45, 0
5, 345120, Note_on_c, 5, 44, 54
5, 345600, Note_off_c, 5, 44, 0
5, 345600, Note_on_c, 5, 45, 54
5, 345960, Note_off_c, 5, 45, 0
5, 346080, Note_on_c, 5, 44, 55
5, 346320, Note_off_c, 5, 44, 0
5, 346320, Note_on_c, 5, 47, 55
5, 346560, Note_off_c, 5, 47, 0
5, 346560, Note_on_c, 5, 45, 55
5, 346800, Note_off_c, 5, 45, 0
5, 346800, Note_on_c, 5, 49, 55
5, 347040, Note_off_c, 5, 49, 0
5, 347040, Note_on_c, 5, 47, 55
5, 347280, Note_off_c, 5, 47, 0
5, 347280, Note_on_c, 5, 45, 55
5, 347520, Note_off_c, 5, 45, 0
5, 347520, Note_on_c, 5, 44, 55
5, 347760, Note_off_c, 5, 44, 0
5, 347760, Note_on_c, 5, 40, 55
5, 347952, Note_off_c, 5, 40, 0
5, 348000, Note_on_c, 5, 51, 55
5, 348240, Note_off_c, 5, 51, 0
5, 348240, Note_on_c, 5, 54, 55
5, 348480, Note_off_c, 5, 54, 0
5, 348480, Note_on_c, 5, 52, 55
5, 348720, Note_off_c, 5, 52, 0
5, 348720, Note_on_c, 5, 56, 55
5, 348960, Note_off_c, 5, 56, 0
5, 348960, Note_on_c, 5, 54, 55
5, 349200, Note_off_c, 5, 54, 0
5, 349200, Note_on_c, 5, 52, 55
5, 349440, Note_off_c, 5, 52, 0
5, 349440, Note_on_c, 5, 51, 55
5, 349680, Note_off_c, 5, 51, 0
5, 349680, Note_on_c, 5, 47, 55
5, 349872, Note_off_c, 5, 47, 0
5, 349920, Note_on_c, 5, 46, 56
5, 350400, Note_off_c, 5, 46, 0
5, 350400, Note_on_c, 5, 44, 56
5, 350880, Note_off_c, 5, 44, 0
5, 350880, Note_on_c, 5, 49, 56
5, 351360, Note_off_c, 5, 49, 0
5, 351360, Note_on_c, 5, 42, 56
5, 351720, Note_off_c, 5, 42, 0
5, 351840, Note_on_c, 5, 53, 56
5, 352320, Note_off_c, 5, 53, 0
5, 352320, Note_on_c, 5, 51, 56
5, 352800, Note_off_c, 5, 51, 0
5, 352800, Note_on_c, 5, 56, 56
5, 353280, Note_off_c, 5, 56, 0
5, 353280, Note_on_c, 5, 49, 56
5, 353640, Note_off_c, 5, 49, 0
5, 353760, Note_on_c, 5, 48, 56
5, 354000, Note_off_c, 5, 48, 0
5, 354000, Note_on_c, 5, 51, 57
5, 354240, Note_off_c, 5, 51, 0
5, 354240, Note_on_c, 5, 49, 57
5, 354480, Note_off_c, 5, 49, 0
5, 354480, Note_on_c, 5, 53, 57
5, 354720, Note_off_c, 5, 53, 0
5, 354720, Note_on_c, 5, 51, 57
5, 354960, Note_off_c, 5, 51, 0
5, 354960, Note_on_c, 5, 49, 57
5, 355200, Note_off_c, 5, 49, 0
5, 355200, Note_on_c, 5, 48, 57
5, 355440, Note_off_c, 5, 48, 0
5, 355440, Note_on_c, 5, 44, 57
5, 355632, Note_off_c, 5, 44, 0
5, 355680, Note_on_c, 5, 43, 57
5, 356160, Note_off_c, 5, 43, 0
5, 356160, Note_on_c, 5, 44, 57
5, 356640, Note_off_c, 5, 44, 0
5, 356640, Note_on_c, 5, 46, 57
5, 357120, Note_off_c, 5, 46, 0
5, 357120, Note_on_c, 5, 39, 57
5, 357480, Note_off_c, 5, 39, 0
5, 357600, Note_on_c, 5, 50, 57
5, 358080, Note_off_c, 5, 50, 0
5, 358080, Note_on_c, 5, 51, 58
5, 358560, Note_off_c, 5, 51, 0
5, 358560, Note_on_c, 5, 53, 58
5, 359040, Note_off_c, 5, 53, 0
5, 359040, Note_on_c, 5, 46, 58
5, 359400, Note_off_c, 5, 46, 0
5, 359520, Note_on_c, 5, 45, 58
5, 360000, Note_off_c, 5, 45, 0
5, 360000, Note_on_c, 5, 46, 58
5, 360480, Note_off_c, 5, 46, 0
5, 360480, Note_on_c, 5, 48, 58
5, 360960, Note_off_c, 5, 48, 0
5, 361440, Note_on_c, 5, 52, 58
5, 361920, Note_off_c, 5, 52, 0
5, 361920, Note_on_c, 5, 53, 59
5, 362400, Note_off_c, 5, 53, 0
5, 362400, Note_on_c, 5, 55, 59
5, 362880, Note_off_c, 5, 55, 0
5, 363360, Note_on_c, 5, 52, 59
5, 363840, Note_off_c, 5, 52, 0
5, 363840, Note_on_c, 5, 53, 59
5, 364320, Note_off_c, 5, 53, 0
5, 364320, Note_on_c, 5, 55, 59
5, 364800, Note_off_c, 5, 55, 0
5, 364800, Note_on_c, 5, 56, 59
5, 366720, Note_off_c, 5, 56, 0
5, 367200, Note_on_c, 5, 43, 52
5, 367680, Note_off_c, 5, 43, 0
5, 367680, Note_on_c, 5, 44, 52
5, 368160, Note_off_c, 5, 44, 0
5, 368160, Note_on_c, 5, 48, 52
5, 368640, Note_off_c, 5, 48, 0
5, 368640, Note_on_c, 5, 47, 51
5, 369600, Note_off_c, 5, 47, 0
5, 369600, Note_on_c, 5, 48, 51
5, 370935, Note_off_c, 5, 48, 0
5, 371040, Note_on_c, 5, 60, 50
5, 371520, Note_off_c, 5, 60, 0
5, 371520, Note_on_c, 5, 58, 49
5, 372000, Note_off_c, 5, 58, 0
5, 372000, Note_on_c, 5, 55, 49
5, 372960, Note_off_c, 5, 55, 0
5, 372960, Note_on_c, 5, 54, 48
5, 373440, Note_off_c, 5, 54, 0
5, 373440, Note_on_c, 5, 53, 48
5, 373920, Note_off_c, 5, 53, 0
5, 373920, Note_on_c, 5, 52, 48
5, 374400, Note_off_c, 5, 52, 0
5, 374400, Note_on_c, 5, 53, 47
5, 374880, Note_off_c, 5, 53, 0
5, 374880, Note_on_c, 5, 55, 47
5, 375360, Note_off_c, 5, 55, 0
5, 375360, Note_on_c, 5, 57, 47
5, 375720, Note_off_c, 5, 57, 0
5, 375840, Note_on_c, 5, 40, 46
5, 376320, Note_off_c, 5, 40, 0
5, 376320, Note_on_c, 5, 41, 46
5, 376800, Note_off_c, 5, 41, 0
5, 376800, Note_on_c, 5, 43, 46
5, 377280, Note_off_c, 5, 43, 0
5, 377280, Note_on_c, 5, 44, 45
5, 377760, Note_off_c, 5, 44, 0
5, 377760, Note_on_c, 5, 45, 45
5, 378240, Note_off_c, 5, 45, 0
5, 378240, Note_on_c, 5, 43, 45
5, 379680, Note_off_c, 5, 43, 0
5, 379680, Note_on_c, 5, 43, 44
5, 380160, Note_off_c, 5, 43, 0
5, 380160, Note_on_c, 5, 48, 43
5, 380520, Note_off_c, 5, 48, 0
5, 380640, Note_on_c, 5, 36, 43
5, 382440, Note_off_c, 5, 36, 0
5, 382560, Note_on_c, 5, 48, 42
5, 385935, Note_off_c, 5, 48, 0
5, 386880, Note_on_c, 5, 45, 39
5, 386880, Note_on_c, 5, 57, 39
5, 387840, Note_off_c, 5, 57, 0
5, 387840, Note_off_c, 5, 45, 0
5, 387840, Note_on_c, 5, 38, 38
5, 387840, Note_on_c, 5, 50, 38
5, 388800, Note_off_c, 5, 50, 0
5, 388800, Note_off_c, 5, 38, 0
5, 388800, Note_on_c, 5, 43, 37
5, 388800, Note_on_c, 5, 55, 37
5, 389760, Note_off_c, 5, 55, 0
5, 389760, Note_off_c, 5, 43, 0
5, 389760, Note_on_c, 5, 36, 37
5, 389760, Note_on_c, 5, 48, 37
5, 390240, Note_off_c, 5, 48, 0
5, 390240, Note_off_c, 5, 36, 0
5, 390240, End_track
0, 0, End_of_file