0, 0, Header, 1, 4, 240
1, 0, Start_track
1, 0, Title_t, "0 textes   "
1, 0, Tempo, 400000
1, 0, Time_signature, 3, 2, 24, 8
1, 0, Key_signature, -3, "minor"
1, 0, Text_t, "Ludwig von Beethoven valse anh.14 n\260 3 en do mineur"
1, 0, Copyright_t, "S\351quencage Paul.M.P.Blondel \340 paris , Septembre 2002"
1, 0, Instrument_name_t, "pianoforte"
1, 0, Marker_t, "Allegro vivace"
1, 480, Tempo, 389333
1, 480, Marker_t, "m\203"
1, 660, Tempo, 404000
1, 720, Tempo, 388000
1, 1200, Tempo, 373333
1, 1380, Tempo, 344000
1, 1440, Tempo, 395000
1, 1680, Tempo, 392000
1, 1920, Tempo, 386000
1, 2160, Tempo, 384000
1, 2640, Tempo, 381333
1, 2820, Tempo, 352000
1, 2880, Tempo, 387000
1, 3120, Tempo, 394000
1, 3360, Tempo, 390000
1, 3600, Tempo, 383000
1, 3600, Marker_t, "p"
1, 3840, Tempo, 402000
1, 4080, Tempo, 401000
1, 4320, Tempo, 388000
1, 4560, Tempo, 382000
1, 4800, Tempo, 392000
1, 5040, Tempo, 368000
1, 5160, Tempo, 400000
1, 5280, Tempo, 399000
1, 5520, Tempo, 406000
1, 5760, Tempo, 406500
1, 6240, Tempo, 401333
1, 6240, Marker_t, "m\203"
1, 6420, Tempo, 280000
1, 6480, Tempo, 387500
1, 6960, Tempo, 389333
1, 7140, Tempo, 312000
1, 7200, Tempo, 382000
1, 7440, Tempo, 372000
1, 7680, Tempo, 384000
1, 7920, Tempo, 405000
1, 8400, Tempo, 361333
1, 8580, Tempo, 372000
1, 8640, Tempo, 391000
1, 8880, Tempo, 407000
1, 9120, Tempo, 410000
1, 9360, Tempo, 399000
1, 9360, Marker_t, "p"
1, 9600, Tempo, 389000
1, 9840, Tempo, 403000
1, 10080, Tempo, 398000
1, 10320, Tempo, 395000
1, 10560, Tempo, 390000
1, 10800, Tempo, 382000
1, 10920, Tempo, 388000
1, 11040, Tempo, 396000
1, 11280, Tempo, 408000
1, 11520, Tempo, 403000
1, 12000, Tempo, 398666
1, 12000, Marker_t, "p"
1, 12180, Tempo, 360000
1, 12240, Tempo, 402000
1, 12480, Tempo, 402000
1, 12720, Tempo, 399000
1, 12960, Tempo, 395000
1, 12960, Marker_t, "cresc."
1, 13200, Tempo, 405000
1, 13440, Tempo, 394000
1, 13680, Tempo, 397000
1, 13920, Tempo, 405000
1, 14160, Tempo, 391000
1, 14400, Tempo, 396000
1, 14640, Tempo, 390000
1, 14880, Tempo, 398000
1, 15120, Tempo, 398000
1, 15360, Tempo, 401000
1, 15600, Tempo, 409000
1, 15840, Tempo, 420000
1, 15840, Marker_t, "\203"
1, 16080, Tempo, 396000
1, 16200, Tempo, 400000
1, 16320, Tempo, 384000
1, 16440, Tempo, 396000
1, 16560, Tempo, 426000
1, 17040, Tempo, 406666
1, 17040, Marker_t, "p"
1, 17220, Tempo, 360000
1, 17280, Tempo, 411000
1, 17280, Marker_t, "cresc."
1, 17520, Tempo, 403000
1, 17760, Tempo, 399000
1, 18000, Tempo, 398000
1, 18240, Tempo, 404000
1, 18480, Tempo, 394000
1, 18720, Tempo, 389000
1, 18960, Tempo, 396000
1, 19200, Tempo, 394000
1, 19440, Tempo, 386000
1, 19680, Tempo, 390000
1, 19920, Tempo, 396000
1, 20160, Tempo, 393000
1, 20400, Tempo, 389000
1, 20640, Tempo, 436000
1, 20880, Tempo, 394000
1, 20880, Marker_t, "\203"
1, 21120, Tempo, 392000
1, 21240, Tempo, 394000
1, 21360, Tempo, 404000
1, 21480, Tempo, 400000
1, 21600, Tempo, 404500
1, 22080, Tempo, 416000
1, 22320, Tempo, 414000
1, 22560, Tempo, 375000
1, 22800, Tempo, 370000
1, 23040, Tempo, 393000
1, 23280, Tempo, 416000
1, 23520, Tempo, 444000
1, 23560, Tempo, 438000
1, 23600, Tempo, 390000
1, 23640, Tempo, 426000
1, 23680, Tempo, 426000
1, 23720, Tempo, 438000
1, 23760, Tempo, 422000
1, 24000, Tempo, 382000
1, 24240, Tempo, 388000
1, 24480, Tempo, 407000
1, 24720, Tempo, 387000
1, 24960, Tempo, 397000
1, 25200, Tempo, 417000
1, 25440, Tempo, 398000
1, 25560, Tempo, 392000
1, 25680, Tempo, 382000
1, 25800, Tempo, 378000
1, 25920, Tempo, 370000
1, 26040, Tempo, 372000
1, 26160, Tempo, 370000
1, 26280, Tempo, 378000
1, 26400, Tempo, 382000
1, 26520, Tempo, 382000
1, 26640, Tempo, 395000
1, 26880, Tempo, 380000
1, 27000, Tempo, 372000
1, 27120, Tempo, 382000
1, 27240, Tempo, 432000
1, 27360, Tempo, 379000
1, 27360, Marker_t, "\006Q0"
1, 27600, Tempo, 389000
1, 27840, Tempo, 400000
1, 28080, Tempo, 388000
1, 28080, Marker_t, "\006Q0"
1, 28320, Tempo, 393000
1, 28560, Tempo, 395000
1, 28800, Tempo, 394000
1, 29040, Tempo, 401000
1, 29280, Tempo, 410000
1, 29520, Tempo, 416000
1, 29550, Tempo, 416000
1, 29580, Tempo, 416000
1, 29610, Tempo, 248000
1, 29640, Tempo, 376000
1, 29670, Tempo, 376000
1, 29700, Tempo, 376000
1, 29730, Tempo, 296000
1, 29760, Tempo, 352000
1, 29790, Tempo, 360000
1, 29820, Tempo, 360000
1, 29850, Tempo, 440000
1, 29880, Tempo, 376000
1, 29910, Tempo, 376000
1, 29940, Tempo, 376000
1, 29970, Tempo, 448000
1, 30000, Tempo, 392000
1, 30030, Tempo, 400000
1, 30060, Tempo, 392000
1, 30090, Tempo, 416000
1, 30120, Tempo, 400000
1, 30150, Tempo, 408000
1, 30180, Tempo, 400000
1, 30210, Tempo, 334285
1, 30238, Tempo, 600000
1, 30240, Tempo, 405000
1, 30480, Tempo, 391000
1, 30720, Tempo, 385000
1, 30960, Tempo, 392000
1, 30960, Marker_t, "\006Q0"
1, 31020, Tempo, 394666
1, 31200, Tempo, 388000
1, 31260, Tempo, 381333
1, 31440, Tempo, 392000
1, 31500, Tempo, 413333
1, 31680, Tempo, 426000
1, 31920, Tempo, 393000
1, 32160, Tempo, 395000
1, 32400, Tempo, 388000
1, 32520, Tempo, 380000
1, 32640, Tempo, 380000
1, 32760, Tempo, 378000
1, 32880, Tempo, 372000
1, 33000, Tempo, 392000
1, 33120, Tempo, 406000
1, 33360, Tempo, 384000
1, 33360, Marker_t, "\006Q0"
1, 33600, Tempo, 380000
1, 33840, Tempo, 398000
1, 33960, Tempo, 358000
1, 34080, Tempo, 402000
1, 34200, Tempo, 362000
1, 34320, Tempo, 400000
1, 34440, Tempo, 366000
1, 34560, Tempo, 390000
1, 34680, Tempo, 366000
1, 34800, Tempo, 386000
1, 34920, Tempo, 378000
1, 35040, Tempo, 382000
1, 35160, Tempo, 374000
1, 35280, Tempo, 388000
1, 35400, Tempo, 360000
1, 35520, Tempo, 380000
1, 35640, Tempo, 370000
1, 35760, Tempo, 394000
1, 35880, Tempo, 370000
1, 36000, Tempo, 377000
1, 36240, Tempo, 389000
1, 36480, Tempo, 381000
1, 36720, Tempo, 370000
1, 36840, Tempo, 358000
1, 36960, Tempo, 394000
1, 37080, Tempo, 372000
1, 37200, Tempo, 392000
1, 37320, Tempo, 366000
1, 37440, Tempo, 388000
1, 37560, Tempo, 360000
1, 37680, Tempo, 390000
1, 37800, Tempo, 376000
1, 37920, Tempo, 402000
1, 38040, Tempo, 364000
1, 38160, Tempo, 396000
1, 38280, Tempo, 362000
1, 38400, Tempo, 394000
1, 38520, Tempo, 370000
1, 38640, Tempo, 404000
1, 38760, Tempo, 352000
1, 38880, Tempo, 377000
1, 39120, Tempo, 389000
1, 39360, Tempo, 388000
1, 39600, Tempo, 383000
1, 39840, Tempo, 392000
1, 40080, Tempo, 387000
1, 40320, Tempo, 390000
1, 40560, Tempo, 390000
1, 40800, Tempo, 415000
1, 41040, Tempo, 389000
1, 41280, Tempo, 390000
1, 41520, Tempo, 401000
1, 41760, Tempo, 371000
1, 42000, Tempo, 390000
1, 42240, Tempo, 384000
1, 42280, Tempo, 384000
1, 42320, Tempo, 456000
1, 42360, Tempo, 408000
1, 42400, Tempo, 408000
1, 42440, Tempo, 366000
1, 42480, Tempo, 361000
1, 42720, Tempo, 386000
1, 42960, Tempo, 383000
1, 43200, Tempo, 384000
1, 43440, Tempo, 388000
1, 43680, Tempo, 390000
1, 43920, Tempo, 391000
1, 44160, Tempo, 374000
1, 44280, Tempo, 384000
1, 44400, Tempo, 370000
1, 44520, Tempo, 360000
1, 44640, Tempo, 360000
1, 44760, Tempo, 364000
1, 44880, Tempo, 370000
1, 45000, Tempo, 380000
1, 45120, Tempo, 374000
1, 45240, Tempo, 390000
1, 45360, Tempo, 391000
1, 45600, Tempo, 364000
1, 45720, Tempo, 360000
1, 45840, Tempo, 358000
1, 45960, Tempo, 352000
1, 46080, Tempo, 373000
1, 46080, Marker_t, "pp"
1, 46320, Tempo, 391000
1, 46560, Tempo, 391000
1, 46800, Tempo, 399000
1, 46800, Marker_t, "cresc."
1, 47040, Tempo, 375000
1, 47280, Tempo, 410000
1, 47520, Tempo, 382000
1, 47760, Tempo, 381000
1, 48000, Tempo, 390000
1, 48240, Tempo, 360000
1, 48270, Tempo, 360000
1, 48300, Tempo, 360000
1, 48330, Tempo, 480000
1, 48360, Tempo, 400000
1, 48390, Tempo, 384000
1, 48420, Tempo, 384000
1, 48450, Tempo, 304000
1, 48480, Tempo, 368000
1, 48510, Tempo, 360000
1, 48540, Tempo, 368000
1, 48570, Tempo, 312000
1, 48600, Tempo, 352000
1, 48630, Tempo, 360000
1, 48660, Tempo, 352000
1, 48690, Tempo, 392000
1, 48720, Tempo, 368000
1, 48750, Tempo, 360000
1, 48780, Tempo, 368000
1, 48810, Tempo, 536000
1, 48840, Tempo, 416000
1, 48870, Tempo, 408000
1, 48900, Tempo, 408000
1, 48930, Tempo, 240000
1, 48958, Tempo, 240000
1, 48960, Tempo, 384000
1, 49200, Tempo, 362000
1, 49440, Tempo, 384000
1, 49680, Tempo, 372000
1, 49680, Marker_t, "dim."
1, 49740, Tempo, 377333
1, 49920, Tempo, 372000
1, 49980, Tempo, 386666
1, 50160, Tempo, 372000
1, 50220, Tempo, 389333
1, 50400, Tempo, 414000
1, 50640, Tempo, 381000
1, 50880, Tempo, 382000
1, 51120, Tempo, 342000
1, 51240, Tempo, 368000
1, 51360, Tempo, 350000
1, 51480, Tempo, 374000
1, 51600, Tempo, 378000
1, 51720, Tempo, 384000
1, 51840, Tempo, 376000
1, 52080, Tempo, 381000
1, 52080, Marker_t, "\203"
1, 52320, Tempo, 390000
1, 52560, Tempo, 372000
1, 52680, Tempo, 356000
1, 52800, Tempo, 352000
1, 52920, Tempo, 370000
1, 53040, Tempo, 384000
1, 53160, Tempo, 372000
1, 53280, Tempo, 366000
1, 53400, Tempo, 352000
1, 53520, Tempo, 362000
1, 53640, Tempo, 376000
1, 53760, Tempo, 348000
1, 53880, Tempo, 368000
1, 54000, Tempo, 360000
1, 54120, Tempo, 354000
1, 54240, Tempo, 362000
1, 54360, Tempo, 370000
1, 54480, Tempo, 388000
1, 54600, Tempo, 350000
1, 54720, Tempo, 361000
1, 54960, Tempo, 377000
1, 55200, Tempo, 360000
1, 55440, Tempo, 360000
1, 55560, Tempo, 364000
1, 55680, Tempo, 350000
1, 55800, Tempo, 380000
1, 55920, Tempo, 340000
1, 56040, Tempo, 358000
1, 56160, Tempo, 372000
1, 56280, Tempo, 366000
1, 56400, Tempo, 362000
1, 56520, Tempo, 370000
1, 56640, Tempo, 382000
1, 56760, Tempo, 354000
1, 56880, Tempo, 380000
1, 57000, Tempo, 364000
1, 57120, Tempo, 366000
1, 57240, Tempo, 348000
1, 57360, Tempo, 366000
1, 57480, Tempo, 348000
1, 57600, Tempo, 371000
1, 57840, Tempo, 385000
1, 58080, Tempo, 374000
1, 58320, Tempo, 380000
1, 58560, Tempo, 395000
1, 58800, Tempo, 377000
1, 59040, Tempo, 395000
1, 59280, Tempo, 390000
1, 59520, Tempo, 383000
1, 59760, Tempo, 378000
1, 59760, Marker_t, "\005\225\260"
1, 60000, Tempo, 379000
1, 60240, Tempo, 385000
1, 60480, Tempo, 381000
1, 60720, Tempo, 373000
1, 60960, Tempo, 394000
1, 60960, Marker_t, "\005\225\260"
1, 61200, Tempo, 600000
1, 61202, Tempo, 353846
1, 61280, Tempo, 453000
1, 61360, Tempo, 333000
1, 61440, Tempo, 357000
1, 61520, Tempo, 459000
1, 61600, Tempo, 294000
1, 61680, Tempo, 333000
1, 61760, Tempo, 423000
1, 61840, Tempo, 348000
1, 61920, Tempo, 357000
1, 62000, Tempo, 405000
1, 62080, Tempo, 339000
1, 62160, Tempo, 357000
1, 62240, Tempo, 408000
1, 62320, Tempo, 363000
1, 62400, Tempo, 369000
1, 62480, Tempo, 372000
1, 62560, Tempo, 353684
1, 62636, Tempo, 600000
1, 62640, Tempo, 366000
1, 62720, Tempo, 387000
1, 62800, Tempo, 360000
1, 62880, Tempo, 366000
1, 62960, Tempo, 354000
1, 63040, Tempo, 363000
1, 63120, Tempo, 363000
1, 63200, Tempo, 393000
1, 63280, Tempo, 369000
1, 63360, Tempo, 372000
1, 63440, Tempo, 372000
1, 63520, Tempo, 366000
1, 63600, Tempo, 369000
1, 63680, Tempo, 366000
1, 63760, Tempo, 360000
1, 63840, Tempo, 366000
1, 63920, Tempo, 381000
1, 64000, Tempo, 366315
1, 64076, Tempo, 240000
1, 64080, Tempo, 357000
1, 64160, Tempo, 372000
1, 64240, Tempo, 363000
1, 64320, Tempo, 363000
1, 64400, Tempo, 372000
1, 64480, Tempo, 348000
1, 64560, Tempo, 357000
1, 64640, Tempo, 396000
1, 64720, Tempo, 345000
1, 64800, Tempo, 357000
1, 64880, Tempo, 408000
1, 64960, Tempo, 354000
1, 65040, Tempo, 363000
1, 65120, Tempo, 366000
1, 65200, Tempo, 396000
1, 65280, Tempo, 390000
1, 65360, Tempo, 309000
1, 65440, Tempo, 347368
1, 65516, Tempo, 1140000
1, 65520, Tempo, 480000
1, 65522, Tempo, 378461
1, 65600, Tempo, 357000
1, 65680, Tempo, 363000
1, 65760, Tempo, 366000
1, 65840, Tempo, 363000
1, 65920, Tempo, 357000
1, 66000, Tempo, 357000
1, 66080, Tempo, 381000
1, 66160, Tempo, 336000
1, 66240, Tempo, 345000
1, 66320, Tempo, 390000
1, 66400, Tempo, 345000
1, 66480, Tempo, 354000
1, 66560, Tempo, 405000
1, 66640, Tempo, 360000
1, 66720, Tempo, 369000
1, 66800, Tempo, 423000
1, 66880, Tempo, 350526
1, 66956, Tempo, 60000
1, 66960, Tempo, 357000
1, 67040, Tempo, 390000
1, 67120, Tempo, 357000
1, 67200, Tempo, 363000
1, 67280, Tempo, 348000
1, 67360, Tempo, 369000
1, 67440, Tempo, 366000
1, 67520, Tempo, 390000
1, 67600, Tempo, 337894
1, 67676, Tempo, 240000
1, 67680, Tempo, 361000
1, 67920, Tempo, 397627
1, 68156, Tempo, 60000
1, 68160, Tempo, 385000
1, 68160, Marker_t, "\005\225\260"
1, 68400, Tempo, 384000
1, 68640, Tempo, 380000
1, 68880, Tempo, 389000
1, 69120, Tempo, 397000
1, 69360, Tempo, 376000
1, 69600, Tempo, 394000
1, 69600, Marker_t, "\005\225\260"
1, 69840, Tempo, 600000
1, 69842, Tempo, 366153
1, 69920, Tempo, 456000
1, 70000, Tempo, 387000
1, 70080, Tempo, 396000
1, 70160, Tempo, 378000
1, 70240, Tempo, 327000
1, 70320, Tempo, 345000
1, 70400, Tempo, 477000
1, 70480, Tempo, 312000
1, 70560, Tempo, 345000
1, 70640, Tempo, 405000
1, 70720, Tempo, 345000
1, 70800, Tempo, 354000
1, 70880, Tempo, 366000
1, 70960, Tempo, 387000
1, 71040, Tempo, 378000
1, 71120, Tempo, 369000
1, 71200, Tempo, 318947
1, 71276, Tempo, 1260000
1, 71280, Tempo, 369000
1, 71360, Tempo, 390000
1, 71440, Tempo, 348000
1, 71520, Tempo, 360000
1, 71600, Tempo, 324000
1, 71680, Tempo, 387000
1, 71760, Tempo, 372000
1, 71840, Tempo, 363000
1, 71920, Tempo, 378000
1, 72000, Tempo, 372000
1, 72080, Tempo, 384000
1, 72160, Tempo, 357000
1, 72240, Tempo, 363000
1, 72320, Tempo, 384000
1, 72400, Tempo, 360000
1, 72480, Tempo, 366000
1, 72560, Tempo, 375000
1, 72640, Tempo, 337894
1, 72716, Tempo, 780000
1, 72720, Tempo, 360000
1, 72800, Tempo, 402000
1, 72880, Tempo, 351000
1, 72960, Tempo, 363000
1, 73040, Tempo, 342000
1, 73120, Tempo, 378000
1, 73200, Tempo, 369000
1, 73280, Tempo, 393000
1, 73360, Tempo, 339000
1, 73440, Tempo, 354000
1, 73520, Tempo, 408000
1, 73600, Tempo, 330000
1, 73680, Tempo, 348000
1, 73760, Tempo, 354000
1, 73840, Tempo, 369000
1, 73920, Tempo, 366000
1, 74000, Tempo, 372000
1, 74080, Tempo, 360000
1, 74156, Tempo, 120000
1, 74160, Tempo, 480000
1, 74162, Tempo, 353846
1, 74240, Tempo, 387000
1, 74320, Tempo, 333000
1, 74400, Tempo, 342000
1, 74480, Tempo, 420000
1, 74560, Tempo, 354000
1, 74640, Tempo, 366000
1, 74720, Tempo, 393000
1, 74800, Tempo, 351000
1, 74880, Tempo, 360000
1, 74960, Tempo, 396000
1, 75040, Tempo, 366000
1, 75120, Tempo, 372000
1, 75200, Tempo, 384000
1, 75280, Tempo, 378000
1, 75360, Tempo, 375000
1, 75440, Tempo, 420000
1, 75520, Tempo, 363157
1, 75596, Tempo, 60000
1, 75600, Tempo, 366000
1, 75680, Tempo, 426000
1, 75760, Tempo, 318000
1, 75840, Tempo, 342000
1, 75920, Tempo, 414000
1, 76000, Tempo, 312000
1, 76080, Tempo, 336000
1, 76160, Tempo, 408000
1, 76240, Tempo, 334736
1, 76316, Tempo, 360000
1, 76320, Tempo, 381000
1, 76560, Tempo, 378305
1, 76796, Tempo, 120000
1, 76800, Tempo, 397333
1, 76800, Marker_t, "p"
1, 76980, Tempo, 340000
1, 77040, Tempo, 372000
1, 77120, Tempo, 327000
1, 77200, Tempo, 375000
1, 77280, Tempo, 366000
1, 77360, Tempo, 393000
1, 77440, Tempo, 330000
1, 77520, Tempo, 348000
1, 77600, Tempo, 393000
1, 77680, Tempo, 342000
1, 77760, Tempo, 351000
1, 77760, Marker_t, "poco a poco cresc -"
1, 77840, Tempo, 384000
1, 77920, Tempo, 357000
1, 78000, Tempo, 360000
1, 78080, Tempo, 363000
1, 78160, Tempo, 348000
1, 78240, Tempo, 354000
1, 78320, Tempo, 393000
1, 78400, Tempo, 339000
1, 78480, Tempo, 351000
1, 78560, Tempo, 399000
1, 78640, Tempo, 351000
1, 78720, Tempo, 366000
1, 78800, Tempo, 360000
1, 78880, Tempo, 351000
1, 78960, Tempo, 357000
1, 79040, Tempo, 399000
1, 79120, Tempo, 345000
1, 79200, Tempo, 357000
1, 79280, Tempo, 399000
1, 79360, Tempo, 348000
1, 79440, Tempo, 360000
1, 79520, Tempo, 366000
1, 79600, Tempo, 354000
1, 79680, Tempo, 357000
1, 79760, Tempo, 396000
1, 79840, Tempo, 363000
1, 79920, Tempo, 372000
1, 80000, Tempo, 363000
1, 80080, Tempo, 351000
1, 80160, Tempo, 354000
1, 80240, Tempo, 366000
1, 80320, Tempo, 378000
1, 80400, Tempo, 372000
1, 80480, Tempo, 360000
1, 80560, Tempo, 369000
1, 80640, Tempo, 366000
1, 80720, Tempo, 375000
1, 80800, Tempo, 330000
1, 80880, Tempo, 342000
1, 80960, Tempo, 411000
1, 81040, Tempo, 336000
1, 81120, Tempo, 348000
1, 81200, Tempo, 444000
1, 81280, Tempo, 309000
1, 81360, Tempo, 339000
1, 81440, Tempo, 417000
1, 81520, Tempo, 348000
1, 81600, Tempo, 357000
1, 81680, Tempo, 396000
1, 81760, Tempo, 333000
1, 81840, Tempo, 342000
1, 81920, Tempo, 459000
1, 82000, Tempo, 312000
1, 82080, Tempo, 386000
1, 82080, Marker_t, "\005\377("
1, 82320, Tempo, 395000
1, 82320, Marker_t, "\005\377("
1, 82560, Tempo, 370666
1, 82740, Tempo, 364000
1, 82800, Tempo, 366000
1, 82880, Tempo, 348000
1, 82960, Tempo, 372000
1, 83040, Tempo, 369000
1, 83120, Tempo, 372000
1, 83200, Tempo, 372000
1, 83280, Tempo, 369000
1, 83360, Tempo, 345000
1, 83440, Tempo, 372000
1, 83520, Tempo, 372000
1, 83520, Marker_t, "\005\377("
1, 83600, Tempo, 366000
1, 83680, Tempo, 357000
1, 83760, Tempo, 366000
1, 83840, Tempo, 366000
1, 83920, Tempo, 357000
1, 84000, Tempo, 366000
1, 84080, Tempo, 357000
1, 84160, Tempo, 363000
1, 84240, Tempo, 366000
1, 84320, Tempo, 345000
1, 84400, Tempo, 336000
1, 84480, Tempo, 342000
1, 84560, Tempo, 375000
1, 84640, Tempo, 345000
1, 84720, Tempo, 348000
1, 84800, Tempo, 399000
1, 84880, Tempo, 351000
1, 84960, Tempo, 360000
1, 85040, Tempo, 408000
1, 85120, Tempo, 354000
1, 85200, Tempo, 363000
1, 85280, Tempo, 390000
1, 85360, Tempo, 351000
1, 85440, Tempo, 360000
1, 85520, Tempo, 423000
1, 85600, Tempo, 330000
1, 85680, Tempo, 351000
1, 85760, Tempo, 408000
1, 85840, Tempo, 345000
1, 85920, Tempo, 354000
1, 86000, Tempo, 345000
1, 86080, Tempo, 363000
1, 86160, Tempo, 360000
1, 86240, Tempo, 405000
1, 86320, Tempo, 360000
1, 86400, Tempo, 372000
1, 86480, Tempo, 369000
1, 86560, Tempo, 366000
1, 86640, Tempo, 366000
1, 86720, Tempo, 375000
1, 86800, Tempo, 354000
1, 86880, Tempo, 360000
1, 86960, Tempo, 381000
1, 87040, Tempo, 357000
1, 87120, Tempo, 357000
1, 87200, Tempo, 396000
1, 87280, Tempo, 336000
1, 87360, Tempo, 351000
1, 87440, Tempo, 363000
1, 87520, Tempo, 357000
1, 87600, Tempo, 360000
1, 87680, Tempo, 351000
1, 87760, Tempo, 333000
1, 87840, Tempo, 418000
1, 87840, Marker_t, "\005\377("
1, 88080, Tempo, 452773
1, 88080, Marker_t, "\005\377("
1, 88080, End_track
2, 0, Start_track
2, 0, Title_t, "1 main droite m\351lodie"
2, 0, Program_c, 0, 1
2, 0, Control_c, 0, 10, 88
2, 0, Control_c, 0, 7, 80
2, 480, Note_on_c, 0, 63, 79
2, 480, Note_on_c, 0, 58, 79
2, 480, Note_on_c, 0, 55, 79
2, 660, Note_on_c, 0, 63, 0
2, 660, Note_on_c, 0, 58, 0
2, 660, Note_on_c, 0, 55, 0
2, 660, Note_on_c, 0, 63, 79
2, 660, Note_on_c, 0, 58, 79
2, 660, Note_on_c, 0, 55, 79
2, 720, Note_on_c, 0, 63, 0
2, 720, Note_on_c, 0, 58, 0
2, 720, Note_on_c, 0, 55, 0
2, 720, Note_on_c, 0, 63, 79
2, 720, Note_on_c, 0, 58, 79
2, 720, Note_on_c, 0, 55, 79
2, 1200, Note_on_c, 0, 63, 0
2, 1200, Note_on_c, 0, 58, 0
2, 1200, Note_on_c, 0, 55, 0
2, 1200, Note_on_c, 0, 63, 72
2, 1200, Note_on_c, 0, 58, 72
2, 1200, Note_on_c, 0, 55, 72
2, 1380, Note_on_c, 0, 63, 0
2, 1380, Note_on_c, 0, 58, 0
2, 1380, Note_on_c, 0, 55, 0
2, 1380, Note_on_c, 0, 63, 79
2, 1380, Note_on_c, 0, 58, 79
2, 1380, Note_on_c, 0, 55, 79
2, 1440, Note_on_c, 0, 63, 0
2, 1440, Note_on_c, 0, 58, 0
2, 1440, Note_on_c, 0, 55, 0
2, 1440, Note_on_c, 0, 63, 79
2, 1440, Note_on_c, 0, 58, 79
2, 1440, Note_on_c, 0, 55, 79
2, 1680, Note_on_c, 0, 63, 0
2, 1680, Note_on_c, 0, 58, 0
2, 1680, Note_on_c, 0, 55, 0
2, 1680, Note_on_c, 0, 63, 75
2, 1680, Note_on_c, 0, 58, 75
2, 1680, Note_on_c, 0, 55, 75
2, 1920, Note_on_c, 0, 63, 0
2, 1920, Note_on_c, 0, 58, 0
2, 1920, Note_on_c, 0, 55, 0
2, 1920, Note_on_c, 0, 63, 79
2, 1920, Note_on_c, 0, 58, 79
2, 1920, Note_on_c, 0, 55, 79
2, 2160, Note_on_c, 0, 63, 0
2, 2160, Note_on_c, 0, 58, 0
2, 2160, Note_on_c, 0, 55, 0
2, 2160, Note_on_c, 0, 65, 79
2, 2160, Note_on_c, 0, 58, 79
2, 2640, Note_on_c, 0, 65, 0
2, 2640, Note_on_c, 0, 58, 0
2, 2640, Note_on_c, 0, 65, 79
2, 2640, Note_on_c, 0, 58, 79
2, 2820, Note_on_c, 0, 65, 0
2, 2820, Note_on_c, 0, 58, 0
2, 2820, Note_on_c, 0, 67, 79
2, 2880, Note_on_c, 0, 67, 0
2, 2880, Note_on_c, 0, 63, 79
2, 2880, Note_on_c, 0, 58, 79
2, 2880, Note_on_c, 0, 55, 79
2, 3360, Note_on_c, 0, 63, 0
2, 3360, Note_on_c, 0, 58, 0
2, 3360, Note_on_c, 0, 55, 0
2, 3840, Note_on_c, 0, 68, 57
2, 3840, Note_on_c, 0, 63, 57
2, 3840, Note_on_c, 0, 60, 57
2, 4080, Note_on_c, 0, 68, 0
2, 4080, Note_on_c, 0, 63, 0
2, 4080, Note_on_c, 0, 60, 0
2, 4080, Note_on_c, 0, 67, 62
2, 4080, Note_on_c, 0, 63, 62
2, 4080, Note_on_c, 0, 58, 62
2, 4320, Note_on_c, 0, 67, 0
2, 4320, Note_on_c, 0, 63, 0
2, 4320, Note_on_c, 0, 58, 0
2, 4560, Note_on_c, 0, 72, 65
2, 4560, Note_on_c, 0, 68, 65
2, 4560, Note_on_c, 0, 63, 65
2, 4800, Note_on_c, 0, 72, 0
2, 4800, Note_on_c, 0, 68, 0
2, 4800, Note_on_c, 0, 63, 0
2, 4800, Note_on_c, 0, 70, 67
2, 4800, Note_on_c, 0, 67, 67
2, 4800, Note_on_c, 0, 63, 67
2, 5040, Note_on_c, 0, 70, 0
2, 5040, Note_on_c, 0, 67, 0
2, 5040, Note_on_c, 0, 63, 0
2, 5040, Note_on_c, 0, 70, 67
2, 5040, Note_on_c, 0, 65, 67
2, 5160, Note_on_c, 0, 70, 0
2, 5160, Note_on_c, 0, 65, 0
2, 5160, Note_on_c, 0, 69, 67
2, 5280, Note_on_c, 0, 69, 0
2, 5280, Note_on_c, 0, 68, 66
2, 5280, Note_on_c, 0, 65, 66
2, 5520, Note_on_c, 0, 68, 0
2, 5520, Note_on_c, 0, 65, 0
2, 5520, Note_on_c, 0, 67, 65
2, 5520, Note_on_c, 0, 63, 65
2, 5760, Note_on_c, 0, 67, 0
2, 5760, Note_on_c, 0, 63, 0
2, 5760, Note_on_c, 0, 65, 62
2, 5760, Note_on_c, 0, 62, 62
2, 6240, Note_on_c, 0, 65, 0
2, 6240, Note_on_c, 0, 62, 0
2, 6240, Note_on_c, 0, 63, 81
2, 6240, Note_on_c, 0, 58, 81
2, 6240, Note_on_c, 0, 55, 81
2, 6420, Note_on_c, 0, 63, 0
2, 6420, Note_on_c, 0, 58, 0
2, 6420, Note_on_c, 0, 55, 0
2, 6420, Note_on_c, 0, 63, 81
2, 6420, Note_on_c, 0, 58, 81
2, 6420, Note_on_c, 0, 55, 81
2, 6480, Note_on_c, 0, 63, 0
2, 6480, Note_on_c, 0, 58, 0
2, 6480, Note_on_c, 0, 55, 0
2, 6480, Note_on_c, 0, 63, 81
2, 6480, Note_on_c, 0, 58, 81
2, 6480, Note_on_c, 0, 55, 81
2, 6960, Note_on_c, 0, 63, 0
2, 6960, Note_on_c, 0, 58, 0
2, 6960, Note_on_c, 0, 55, 0
2, 6960, Note_on_c, 0, 63, 84
2, 6960, Note_on_c, 0, 58, 84
2, 6960, Note_on_c, 0, 55, 84
2, 7140, Note_on_c, 0, 63, 0
2, 7140, Note_on_c, 0, 58, 0
2, 7140, Note_on_c, 0, 55, 0
2, 7140, Note_on_c, 0, 63, 81
2, 7140, Note_on_c, 0, 58, 81
2, 7140, Note_on_c, 0, 55, 81
2, 7200, Note_on_c, 0, 63, 0
2, 7200, Note_on_c, 0, 58, 0
2, 7200, Note_on_c, 0, 55, 0
2, 7200, Note_on_c, 0, 63, 82
2, 7200, Note_on_c, 0, 58, 82
2, 7200, Note_on_c, 0, 55, 82
2, 7440, Note_on_c, 0, 63, 0
2, 7440, Note_on_c, 0, 58, 0
2, 7440, Note_on_c, 0, 55, 0
2, 7440, Note_on_c, 0, 63, 84
2, 7440, Note_on_c, 0, 58, 84
2, 7440, Note_on_c, 0, 55, 84
2, 7680, Note_on_c, 0, 63, 0
2, 7680, Note_on_c, 0, 58, 0
2, 7680, Note_on_c, 0, 55, 0
2, 7680, Note_on_c, 0, 63, 81
2, 7680, Note_on_c, 0, 58, 81
2, 7680, Note_on_c, 0, 55, 81
2, 7920, Note_on_c, 0, 63, 0
2, 7920, Note_on_c, 0, 58, 0
2, 7920, Note_on_c, 0, 55, 0
2, 7920, Note_on_c, 0, 65, 91
2, 7920, Note_on_c, 0, 58, 91
2, 8400, Note_on_c, 0, 65, 0
2, 8400, Note_on_c, 0, 58, 0
2, 8400, Note_on_c, 0, 65, 82
2, 8400, Note_on_c, 0, 58, 82
2, 8580, Note_on_c, 0, 65, 0
2, 8580, Note_on_c, 0, 58, 0
2, 8580, Note_on_c, 0, 67, 81
2, 8640, Note_on_c, 0, 67, 0
2, 8640, Note_on_c, 0, 63, 81
2, 8640, Note_on_c, 0, 58, 81
2, 8640, Note_on_c, 0, 55, 81
2, 9120, Note_on_c, 0, 63, 0
2, 9120, Note_on_c, 0, 58, 0
2, 9120, Note_on_c, 0, 55, 0
2, 9600, Note_on_c, 0, 68, 65
2, 9600, Note_on_c, 0, 63, 65
2, 9600, Note_on_c, 0, 60, 65
2, 9840, Note_on_c, 0, 68, 0
2, 9840, Note_on_c, 0, 63, 0
2, 9840, Note_on_c, 0, 60, 0
2, 9840, Note_on_c, 0, 67, 67
2, 9840, Note_on_c, 0, 63, 67
2, 9840, Note_on_c, 0, 58, 67
2, 10080, Note_on_c, 0, 67, 0
2, 10080, Note_on_c, 0, 63, 0
2, 10080, Note_on_c, 0, 58, 0
2, 10320, Note_on_c, 0, 72, 67
2, 10320, Note_on_c, 0, 68, 67
2, 10320, Note_on_c, 0, 63, 67
2, 10560, Note_on_c, 0, 72, 0
2, 10560, Note_on_c, 0, 68, 0
2, 10560, Note_on_c, 0, 63, 0
2, 10560, Note_on_c, 0, 70, 67
2, 10560, Note_on_c, 0, 67, 67
2, 10560, Note_on_c, 0, 63, 67
2, 10800, Note_on_c, 0, 70, 0
2, 10800, Note_on_c, 0, 67, 0
2, 10800, Note_on_c, 0, 63, 0
2, 10800, Note_on_c, 0, 70, 67
2, 10800, Note_on_c, 0, 65, 67
2, 10920, Note_on_c, 0, 70, 0
2, 10920, Note_on_c, 0, 65, 0
2, 10920, Note_on_c, 0, 69, 66
2, 11040, Note_on_c, 0, 69, 0
2, 11040, Note_on_c, 0, 68, 65
2, 11040, Note_on_c, 0, 65, 65
2, 11280, Note_on_c, 0, 68, 0
2, 11280, Note_on_c, 0, 65, 0
2, 11280, Note_on_c, 0, 67, 61
2, 11280, Note_on_c, 0, 63, 61
2, 11520, Note_on_c, 0, 67, 0
2, 11520, Note_on_c, 0, 63, 0
2, 11520, Note_on_c, 0, 65, 53
2, 11520, Note_on_c, 0, 62, 53
2, 12000, Note_on_c, 0, 65, 0
2, 12000, Note_on_c, 0, 62, 0
2, 12000, Note_on_c, 0, 70, 56
2, 12000, Note_on_c, 0, 63, 56
2, 12180, Note_on_c, 0, 70, 0
2, 12180, Note_on_c, 0, 63, 0
2, 12180, Note_on_c, 0, 70, 57
2, 12180, Note_on_c, 0, 63, 57
2, 12240, Note_on_c, 0, 70, 0
2, 12240, Note_on_c, 0, 63, 0
2, 12240, Note_on_c, 0, 70, 58
2, 12240, Note_on_c, 0, 63, 58
2, 12480, Note_on_c, 0, 70, 0
2, 12480, Note_on_c, 0, 63, 0
2, 12480, Note_on_c, 0, 70, 60
2, 12480, Note_on_c, 0, 63, 60
2, 12720, Note_on_c, 0, 70, 0
2, 12720, Note_on_c, 0, 63, 0
2, 12720, Note_on_c, 0, 70, 61
2, 12720, Note_on_c, 0, 63, 61
2, 12960, Note_on_c, 0, 70, 0
2, 12960, Note_on_c, 0, 63, 0
2, 12960, Note_on_c, 0, 72, 66
2, 12960, Note_on_c, 0, 63, 66
2, 13200, Note_on_c, 0, 72, 0
2, 13200, Note_on_c, 0, 63, 0
2, 13200, Note_on_c, 0, 72, 69
2, 13200, Note_on_c, 0, 63, 69
2, 13440, Note_on_c, 0, 72, 0
2, 13440, Note_on_c, 0, 63, 0
2, 13440, Note_on_c, 0, 72, 70
2, 13440, Note_on_c, 0, 63, 70
2, 13680, Note_on_c, 0, 72, 0
2, 13680, Note_on_c, 0, 63, 0
2, 13680, Note_on_c, 0, 74, 72
2, 13680, Note_on_c, 0, 67, 72
2, 13920, Note_on_c, 0, 74, 0
2, 13920, Note_on_c, 0, 67, 0
2, 13920, Note_on_c, 0, 74, 77
2, 13920, Note_on_c, 0, 67, 77
2, 14160, Note_on_c, 0, 74, 0
2, 14160, Note_on_c, 0, 67, 0
2, 14160, Note_on_c, 0, 74, 77
2, 14160, Note_on_c, 0, 67, 77
2, 14400, Note_on_c, 0, 74, 0
2, 14400, Note_on_c, 0, 67, 0
2, 14400, Note_on_c, 0, 75, 84
2, 14400, Note_on_c, 0, 67, 84
2, 14640, Note_on_c, 0, 75, 0
2, 14640, Note_on_c, 0, 67, 0
2, 14640, Note_on_c, 0, 75, 82
2, 14640, Note_on_c, 0, 67, 82
2, 14880, Note_on_c, 0, 75, 0
2, 14880, Note_on_c, 0, 67, 0
2, 14880, Note_on_c, 0, 75, 83
2, 14880, Note_on_c, 0, 67, 83
2, 15120, Note_on_c, 0, 75, 0
2, 15120, Note_on_c, 0, 67, 0
2, 15120, Note_on_c, 0, 77, 87
2, 15120, Note_on_c, 0, 74, 87
2, 15120, Note_on_c, 0, 70, 87
2, 15360, Note_on_c, 0, 77, 0
2, 15360, Note_on_c, 0, 74, 0
2, 15360, Note_on_c, 0, 70, 0
2, 15360, Note_on_c, 0, 77, 85
2, 15360, Note_on_c, 0, 74, 85
2, 15360, Note_on_c, 0, 70, 85
2, 15600, Note_on_c, 0, 77, 0
2, 15600, Note_on_c, 0, 74, 0
2, 15600, Note_on_c, 0, 70, 0
2, 15600, Note_on_c, 0, 77, 84
2, 15600, Note_on_c, 0, 74, 84
2, 15600, Note_on_c, 0, 70, 84
2, 15840, Note_on_c, 0, 77, 0
2, 15840, Note_on_c, 0, 74, 0
2, 15840, Note_on_c, 0, 70, 0
2, 15840, Note_on_c, 0, 79, 101
2, 15840, Note_on_c, 0, 70, 101
2, 16200, Note_on_c, 0, 79, 0
2, 16200, Note_on_c, 0, 70, 0
2, 16200, Note_on_c, 0, 75, 97
2, 16320, Note_on_c, 0, 75, 0
2, 16320, Note_on_c, 0, 74, 96
2, 16440, Note_on_c, 0, 74, 0
2, 16440, Note_on_c, 0, 77, 95
2, 16560, Note_on_c, 0, 77, 0
2, 16560, Note_on_c, 0, 75, 98
2, 16560, Note_on_c, 0, 70, 98
2, 17040, Note_on_c, 0, 75, 0
2, 17040, Note_on_c, 0, 70, 0
2, 17040, Note_on_c, 0, 70, 52
2, 17040, Note_on_c, 0, 63, 52
2, 17220, Note_on_c, 0, 70, 0
2, 17220, Note_on_c, 0, 63, 0
2, 17220, Note_on_c, 0, 70, 55
2, 17220, Note_on_c, 0, 63, 55
2, 17280, Note_on_c, 0, 70, 0
2, 17280, Note_on_c, 0, 63, 0
2, 17280, Note_on_c, 0, 70, 56
2, 17280, Note_on_c, 0, 63, 56
2, 17520, Note_on_c, 0, 70, 0
2, 17520, Note_on_c, 0, 63, 0
2, 17520, Note_on_c, 0, 70, 61
2, 17520, Note_on_c, 0, 63, 61
2, 17760, Note_on_c, 0, 70, 0
2, 17760, Note_on_c, 0, 63, 0
2, 17760, Note_on_c, 0, 70, 63
2, 17760, Note_on_c, 0, 63, 63
2, 18000, Note_on_c, 0, 70, 0
2, 18000, Note_on_c, 0, 63, 0
2, 18000, Note_on_c, 0, 72, 63
2, 18000, Note_on_c, 0, 63, 63
2, 18240, Note_on_c, 0, 72, 0
2, 18240, Note_on_c, 0, 63, 0
2, 18240, Note_on_c, 0, 72, 65
2, 18240, Note_on_c, 0, 63, 65
2, 18480, Note_on_c, 0, 72, 0
2, 18480, Note_on_c, 0, 63, 0
2, 18480, Note_on_c, 0, 72, 67
2, 18480, Note_on_c, 0, 63, 67
2, 18720, Note_on_c, 0, 72, 0
2, 18720, Note_on_c, 0, 63, 0
2, 18720, Note_on_c, 0, 74, 67
2, 18720, Note_on_c, 0, 67, 67
2, 18960, Note_on_c, 0, 74, 0
2, 18960, Note_on_c, 0, 67, 0
2, 18960, Note_on_c, 0, 74, 67
2, 18960, Note_on_c, 0, 67, 67
2, 19200, Note_on_c, 0, 74, 0
2, 19200, Note_on_c, 0, 67, 0
2, 19200, Note_on_c, 0, 74, 67
2, 19200, Note_on_c, 0, 67, 67
2, 19440, Note_on_c, 0, 74, 0
2, 19440, Note_on_c, 0, 67, 0
2, 19440, Note_on_c, 0, 75, 67
2, 19440, Note_on_c, 0, 67, 67
2, 19680, Note_on_c, 0, 75, 0
2, 19680, Note_on_c, 0, 67, 0
2, 19680, Note_on_c, 0, 75, 70
2, 19680, Note_on_c, 0, 67, 70
2, 19920, Note_on_c, 0, 75, 0
2, 19920, Note_on_c, 0, 67, 0
2, 19920, Note_on_c, 0, 75, 71
2, 19920, Note_on_c, 0, 67, 71
2, 20160, Note_on_c, 0, 75, 0
2, 20160, Note_on_c, 0, 67, 0
2, 20160, Note_on_c, 0, 77, 71
2, 20160, Note_on_c, 0, 74, 71
2, 20160, Note_on_c, 0, 70, 71
2, 20400, Note_on_c, 0, 77, 0
2, 20400, Note_on_c, 0, 74, 0
2, 20400, Note_on_c, 0, 70, 0
2, 20400, Note_on_c, 0, 77, 75
2, 20400, Note_on_c, 0, 74, 75
2, 20400, Note_on_c, 0, 70, 75
2, 20640, Note_on_c, 0, 77, 0
2, 20640, Note_on_c, 0, 74, 0
2, 20640, Note_on_c, 0, 70, 0
2, 20640, Note_on_c, 0, 77, 76
2, 20640, Note_on_c, 0, 74, 76
2, 20640, Note_on_c, 0, 70, 76
2, 20880, Note_on_c, 0, 77, 0
2, 20880, Note_on_c, 0, 74, 0
2, 20880, Note_on_c, 0, 70, 0
2, 20880, Note_on_c, 0, 79, 83
2, 20880, Note_on_c, 0, 70, 83
2, 21240, Note_on_c, 0, 79, 0
2, 21240, Note_on_c, 0, 70, 0
2, 21240, Note_on_c, 0, 75, 85
2, 21360, Note_on_c, 0, 75, 0
2, 21360, Note_on_c, 0, 74, 89
2, 21480, Note_on_c, 0, 74, 0
2, 21480, Note_on_c, 0, 77, 90
2, 21600, Note_on_c, 0, 77, 0
2, 21600, Note_on_c, 0, 75, 92
2, 21600, Note_on_c, 0, 70, 92
2, 22080, Note_on_c, 0, 75, 0
2, 22080, Note_on_c, 0, 70, 0
2, 22080, Note_on_c, 0, 70, 86
2, 22320, Note_on_c, 0, 70, 0
2, 22320, Note_on_c, 0, 82, 86
2, 23040, Note_on_c, 0, 82, 0
2, 23040, Note_on_c, 0, 79, 85
2, 23520, Note_on_c, 0, 79, 0
2, 23520, Note_on_c, 0, 74, 85
2, 23560, Note_on_c, 0, 74, 0
2, 23560, Note_on_c, 0, 75, 85
2, 23600, Note_on_c, 0, 75, 0
2, 23600, Note_on_c, 0, 77, 85
2, 23640, Note_on_c, 0, 77, 0
2, 23640, Note_on_c, 0, 75, 86
2, 23680, Note_on_c, 0, 75, 0
2, 23680, Note_on_c, 0, 74, 86
2, 23720, Note_on_c, 0, 74, 0
2, 23720, Note_on_c, 0, 72, 86
2, 23760, Note_on_c, 0, 72, 0
2, 23760, Note_on_c, 0, 70, 89
2, 24480, Note_on_c, 0, 70, 0
2, 24480, Note_on_c, 0, 70, 91
2, 24720, Note_on_c, 0, 70, 0
2, 24720, Note_on_c, 0, 75, 85
2, 24960, Note_on_c, 0, 75, 0
2, 24960, Note_on_c, 0, 79, 84
2, 25200, Note_on_c, 0, 79, 0
2, 25200, Note_on_c, 0, 77, 92
2, 25440, Note_on_c, 0, 77, 0
2, 25440, Note_on_c, 0, 77, 84
2, 25560, Note_on_c, 0, 77, 0
2, 25560, Note_on_c, 0, 80, 83
2, 25680, Note_on_c, 0, 80, 0
2, 25680, Note_on_c, 0, 74, 83
2, 25800, Note_on_c, 0, 74, 0
2, 25800, Note_on_c, 0, 77, 83
2, 25920, Note_on_c, 0, 77, 0
2, 25920, Note_on_c, 0, 75, 83
2, 26040, Note_on_c, 0, 75, 0
2, 26040, Note_on_c, 0, 82, 83
2, 26160, Note_on_c, 0, 82, 0
2, 26160, Note_on_c, 0, 84, 83
2, 26280, Note_on_c, 0, 84, 0
2, 26280, Note_on_c, 0, 82, 83
2, 26400, Note_on_c, 0, 82, 0
2, 26400, Note_on_c, 0, 80, 83
2, 26520, Note_on_c, 0, 80, 0
2, 26520, Note_on_c, 0, 79, 82
2, 26640, Note_on_c, 0, 79, 0
2, 26640, Note_on_c, 0, 77, 82
2, 26880, Note_on_c, 0, 77, 0
2, 26880, Note_on_c, 0, 77, 81
2, 27000, Note_on_c, 0, 77, 0
2, 27000, Note_on_c, 0, 80, 81
2, 27120, Note_on_c, 0, 80, 0
2, 27120, Note_on_c, 0, 74, 82
2, 27240, Note_on_c, 0, 74, 0
2, 27240, Note_on_c, 0, 77, 82
2, 27360, Note_on_c, 0, 77, 0
2, 27360, Note_on_c, 0, 75, 70
2, 28080, Note_on_c, 0, 75, 0
2, 28080, Note_on_c, 0, 78, 58
2, 28800, Note_on_c, 0, 78, 0
2, 28800, Note_on_c, 0, 83, 67
2, 29280, Note_on_c, 0, 83, 0
2, 29280, Note_on_c, 0, 82, 72
2, 29520, Note_on_c, 0, 82, 0
2, 29520, Note_on_c, 0, 82, 72
2, 29550, Note_on_c, 0, 82, 0
2, 29550, Note_on_c, 0, 81, 73
2, 29580, Note_on_c, 0, 81, 0
2, 29580, Note_on_c, 0, 82, 73
2, 29610, Note_on_c, 0, 82, 0
2, 29610, Note_on_c, 0, 81, 73
2, 29640, Note_on_c, 0, 81, 0
2, 29640, Note_on_c, 0, 82, 73
2, 29670, Note_on_c, 0, 82, 0
2, 29670, Note_on_c, 0, 81, 73
2, 29700, Note_on_c, 0, 81, 0
2, 29700, Note_on_c, 0, 82, 78
2, 29730, Note_on_c, 0, 82, 0
2, 29730, Note_on_c, 0, 81, 78
2, 29760, Note_on_c, 0, 81, 0
2, 29760, Note_on_c, 0, 82, 79
2, 29790, Note_on_c, 0, 82, 0
2, 29790, Note_on_c, 0, 81, 79
2, 29820, Note_on_c, 0, 81, 0
2, 29820, Note_on_c, 0, 82, 79
2, 29850, Note_on_c, 0, 82, 0
2, 29850, Note_on_c, 0, 81, 81
2, 29880, Note_on_c, 0, 81, 0
2, 29880, Note_on_c, 0, 82, 81
2, 29910, Note_on_c, 0, 82, 0
2, 29910, Note_on_c, 0, 81, 83
2, 29940, Note_on_c, 0, 81, 0
2, 29940, Note_on_c, 0, 82, 83
2, 29970, Note_on_c, 0, 82, 0
2, 29970, Note_on_c, 0, 81, 84
2, 30000, Note_on_c, 0, 81, 0
2, 30000, Note_on_c, 0, 82, 84
2, 30030, Note_on_c, 0, 82, 0
2, 30030, Note_on_c, 0, 81, 84
2, 30060, Note_on_c, 0, 81, 0
2, 30060, Note_on_c, 0, 82, 84
2, 30090, Note_on_c, 0, 82, 0
2, 30090, Note_on_c, 0, 81, 84
2, 30120, Note_on_c, 0, 81, 0
2, 30120, Note_on_c, 0, 82, 84
2, 30150, Note_on_c, 0, 82, 0
2, 30150, Note_on_c, 0, 81, 84
2, 30180, Note_on_c, 0, 81, 0
2, 30180, Note_on_c, 0, 80, 86
2, 30210, Note_on_c, 0, 80, 0
2, 30210, Note_on_c, 0, 81, 86
2, 30238, Note_on_c, 0, 82, 88
2, 30240, Note_on_c, 0, 81, 0
2, 30960, Note_on_c, 0, 82, 0
2, 30960, Note_on_c, 0, 84, 97
2, 31020, Note_on_c, 0, 84, 0
2, 31020, Note_on_c, 0, 82, 93
2, 31200, Note_on_c, 0, 82, 0
2, 31200, Note_on_c, 0, 80, 86
2, 31260, Note_on_c, 0, 80, 0
2, 31260, Note_on_c, 0, 79, 86
2, 31440, Note_on_c, 0, 79, 0
2, 31440, Note_on_c, 0, 77, 81
2, 31500, Note_on_c, 0, 77, 0
2, 31500, Note_on_c, 0, 75, 80
2, 31680, Note_on_c, 0, 75, 0
2, 31680, Note_on_c, 0, 70, 77
2, 32400, Note_on_c, 0, 70, 0
2, 32400, Note_on_c, 0, 70, 74
2, 32520, Note_on_c, 0, 70, 0
2, 32520, Note_on_c, 0, 70, 72
2, 32640, Note_on_c, 0, 70, 0
2, 32640, Note_on_c, 0, 70, 71
2, 32760, Note_on_c, 0, 70, 0
2, 32760, Note_on_c, 0, 70, 68
2, 32880, Note_on_c, 0, 70, 0
2, 32880, Note_on_c, 0, 72, 67
2, 33000, Note_on_c, 0, 72, 0
2, 33000, Note_on_c, 0, 74, 68
2, 33120, Note_on_c, 0, 74, 0
2, 33120, Note_on_c, 0, 75, 70
2, 33360, Note_on_c, 0, 75, 0
2, 33360, Note_on_c, 0, 70, 114
2, 33360, Note_on_c, 0, 67, 114
2, 33600, Note_on_c, 0, 70, 0
2, 33600, Note_on_c, 0, 67, 0
2, 33600, Note_on_c, 0, 70, 104
2, 33600, Note_on_c, 0, 67, 104
2, 33840, Note_on_c, 0, 70, 0
2, 33840, Note_on_c, 0, 67, 0
2, 33840, Note_on_c, 0, 70, 105
2, 33840, Note_on_c, 0, 67, 105
2, 33960, Note_on_c, 0, 70, 0
2, 33960, Note_on_c, 0, 67, 0
2, 33960, Note_on_c, 0, 72, 100
2, 34080, Note_on_c, 0, 72, 0
2, 34080, Note_on_c, 0, 70, 103
2, 34080, Note_on_c, 0, 67, 103
2, 34200, Note_on_c, 0, 70, 0
2, 34200, Note_on_c, 0, 67, 0
2, 34200, Note_on_c, 0, 72, 102
2, 34320, Note_on_c, 0, 72, 0
2, 34320, Note_on_c, 0, 70, 106
2, 34320, Note_on_c, 0, 67, 106
2, 34440, Note_on_c, 0, 70, 0
2, 34440, Note_on_c, 0, 67, 0
2, 34440, Note_on_c, 0, 72, 102
2, 34560, Note_on_c, 0, 72, 0
2, 34560, Note_on_c, 0, 68, 107
2, 34560, Note_on_c, 0, 65, 107
2, 34680, Note_on_c, 0, 68, 0
2, 34680, Note_on_c, 0, 65, 0
2, 34680, Note_on_c, 0, 77, 102
2, 34800, Note_on_c, 0, 77, 0
2, 34800, Note_on_c, 0, 68, 105
2, 34800, Note_on_c, 0, 65, 105
2, 34920, Note_on_c, 0, 68, 0
2, 34920, Note_on_c, 0, 65, 0
2, 34920, Note_on_c, 0, 77, 101
2, 35040, Note_on_c, 0, 77, 0
2, 35040, Note_on_c, 0, 68, 103
2, 35040, Note_on_c, 0, 65, 103
2, 35160, Note_on_c, 0, 68, 0
2, 35160, Note_on_c, 0, 65, 0
2, 35160, Note_on_c, 0, 77, 100
2, 35280, Note_on_c, 0, 77, 0
2, 35280, Note_on_c, 0, 68, 103
2, 35280, Note_on_c, 0, 65, 103
2, 35400, Note_on_c, 0, 68, 0
2, 35400, Note_on_c, 0, 65, 0
2, 35400, Note_on_c, 0, 77, 100
2, 35520, Note_on_c, 0, 77, 0
2, 35520, Note_on_c, 0, 68, 100
2, 35520, Note_on_c, 0, 65, 100
2, 35640, Note_on_c, 0, 68, 0
2, 35640, Note_on_c, 0, 65, 0
2, 35640, Note_on_c, 0, 77, 99
2, 35760, Note_on_c, 0, 77, 0
2, 35760, Note_on_c, 0, 68, 99
2, 35760, Note_on_c, 0, 65, 99
2, 35880, Note_on_c, 0, 68, 0
2, 35880, Note_on_c, 0, 65, 0
2, 35880, Note_on_c, 0, 77, 100
2, 36000, Note_on_c, 0, 77, 0
2, 36000, Note_on_c, 0, 75, 103
2, 36000, Note_on_c, 0, 67, 103
2, 36240, Note_on_c, 0, 75, 0
2, 36240, Note_on_c, 0, 67, 0
2, 36240, Note_on_c, 0, 70, 101
2, 36240, Note_on_c, 0, 67, 101
2, 36480, Note_on_c, 0, 70, 0
2, 36480, Note_on_c, 0, 67, 0
2, 36480, Note_on_c, 0, 70, 98
2, 36480, Note_on_c, 0, 67, 98
2, 36720, Note_on_c, 0, 70, 0
2, 36720, Note_on_c, 0, 67, 0
2, 36720, Note_on_c, 0, 70, 102
2, 36720, Note_on_c, 0, 67, 102
2, 36840, Note_on_c, 0, 70, 0
2, 36840, Note_on_c, 0, 67, 0
2, 36840, Note_on_c, 0, 72, 98
2, 36960, Note_on_c, 0, 72, 0
2, 36960, Note_on_c, 0, 70, 98
2, 36960, Note_on_c, 0, 67, 98
2, 37080, Note_on_c, 0, 70, 0
2, 37080, Note_on_c, 0, 67, 0
2, 37080, Note_on_c, 0, 72, 97
2, 37200, Note_on_c, 0, 72, 0
2, 37200, Note_on_c, 0, 70, 100
2, 37200, Note_on_c, 0, 67, 100
2, 37320, Note_on_c, 0, 70, 0
2, 37320, Note_on_c, 0, 67, 0
2, 37320, Note_on_c, 0, 72, 96
2, 37440, Note_on_c, 0, 72, 0
2, 37440, Note_on_c, 0, 68, 104
2, 37440, Note_on_c, 0, 65, 104
2, 37560, Note_on_c, 0, 68, 0
2, 37560, Note_on_c, 0, 65, 0
2, 37560, Note_on_c, 0, 77, 99
2, 37680, Note_on_c, 0, 77, 0
2, 37680, Note_on_c, 0, 68, 98
2, 37680, Note_on_c, 0, 65, 98
2, 37800, Note_on_c, 0, 68, 0
2, 37800, Note_on_c, 0, 65, 0
2, 37800, Note_on_c, 0, 77, 99
2, 37920, Note_on_c, 0, 77, 0
2, 37920, Note_on_c, 0, 68, 99
2, 37920, Note_on_c, 0, 65, 99
2, 38040, Note_on_c, 0, 68, 0
2, 38040, Note_on_c, 0, 65, 0
2, 38040, Note_on_c, 0, 77, 97
2, 38160, Note_on_c, 0, 77, 0
2, 38160, Note_on_c, 0, 68, 97
2, 38160, Note_on_c, 0, 65, 97
2, 38280, Note_on_c, 0, 68, 0
2, 38280, Note_on_c, 0, 65, 0
2, 38280, Note_on_c, 0, 77, 98
2, 38400, Note_on_c, 0, 77, 0
2, 38400, Note_on_c, 0, 68, 98
2, 38400, Note_on_c, 0, 65, 98
2, 38520, Note_on_c, 0, 68, 0
2, 38520, Note_on_c, 0, 65, 0
2, 38520, Note_on_c, 0, 77, 98
2, 38640, Note_on_c, 0, 77, 0
2, 38640, Note_on_c, 0, 68, 97
2, 38640, Note_on_c, 0, 65, 97
2, 38760, Note_on_c, 0, 68, 0
2, 38760, Note_on_c, 0, 65, 0
2, 38760, Note_on_c, 0, 77, 100
2, 38880, Note_on_c, 0, 77, 0
2, 38880, Note_on_c, 0, 75, 97
2, 38880, Note_on_c, 0, 70, 97
2, 38880, Note_on_c, 0, 67, 97
2, 39120, Note_on_c, 0, 75, 0
2, 39120, Note_on_c, 0, 70, 0
2, 39120, Note_on_c, 0, 67, 0
2, 39120, Note_on_c, 0, 79, 99
2, 39120, Note_on_c, 0, 75, 99
2, 39120, Note_on_c, 0, 70, 99
2, 39360, Note_on_c, 0, 79, 0
2, 39360, Note_on_c, 0, 75, 0
2, 39360, Note_on_c, 0, 70, 0
2, 39360, Note_on_c, 0, 77, 98
2, 39360, Note_on_c, 0, 74, 98
2, 39360, Note_on_c, 0, 68, 98
2, 39600, Note_on_c, 0, 77, 0
2, 39600, Note_on_c, 0, 74, 0
2, 39600, Note_on_c, 0, 68, 0
2, 39600, Note_on_c, 0, 75, 96
2, 39600, Note_on_c, 0, 67, 96
2, 39840, Note_on_c, 0, 75, 0
2, 39840, Note_on_c, 0, 67, 0
2, 39840, Note_on_c, 0, 75, 95
2, 39840, Note_on_c, 0, 70, 95
2, 39840, Note_on_c, 0, 67, 95
2, 40080, Note_on_c, 0, 75, 0
2, 40080, Note_on_c, 0, 70, 0
2, 40080, Note_on_c, 0, 67, 0
2, 40080, Note_on_c, 0, 75, 100
2, 40320, Note_on_c, 0, 75, 0
2, 40320, Note_on_c, 0, 75, 104
2, 40320, Note_on_c, 0, 70, 104
2, 40320, Note_on_c, 0, 67, 104
2, 40800, Note_on_c, 0, 75, 0
2, 40800, Note_on_c, 0, 70, 0
2, 40800, Note_on_c, 0, 67, 0
2, 40800, Note_on_c, 0, 70, 97
2, 41040, Note_on_c, 0, 70, 0
2, 41040, Note_on_c, 0, 82, 106
2, 41760, Note_on_c, 0, 82, 0
2, 41760, Note_on_c, 0, 79, 95
2, 42240, Note_on_c, 0, 79, 0
2, 42240, Note_on_c, 0, 74, 94
2, 42280, Note_on_c, 0, 74, 0
2, 42280, Note_on_c, 0, 75, 94
2, 42320, Note_on_c, 0, 75, 0
2, 42320, Note_on_c, 0, 77, 94
2, 42360, Note_on_c, 0, 77, 0
2, 42360, Note_on_c, 0, 75, 92
2, 42400, Note_on_c, 0, 75, 0
2, 42400, Note_on_c, 0, 74, 92
2, 42440, Note_on_c, 0, 74, 0
2, 42440, Note_on_c, 0, 72, 92
2, 42480, Note_on_c, 0, 72, 0
2, 42480, Note_on_c, 0, 70, 94
2, 43200, Note_on_c, 0, 70, 0
2, 43200, Note_on_c, 0, 70, 90
2, 43440, Note_on_c, 0, 70, 0
2, 43440, Note_on_c, 0, 75, 89
2, 43680, Note_on_c, 0, 75, 0
2, 43680, Note_on_c, 0, 79, 85
2, 43920, Note_on_c, 0, 79, 0
2, 43920, Note_on_c, 0, 77, 96
2, 44160, Note_on_c, 0, 77, 0
2, 44160, Note_on_c, 0, 77, 86
2, 44280, Note_on_c, 0, 77, 0
2, 44280, Note_on_c, 0, 80, 86
2, 44400, Note_on_c, 0, 80, 0
2, 44400, Note_on_c, 0, 74, 86
2, 44520, Note_on_c, 0, 74, 0
2, 44520, Note_on_c, 0, 77, 86
2, 44640, Note_on_c, 0, 77, 0
2, 44640, Note_on_c, 0, 75, 94
2, 44760, Note_on_c, 0, 75, 0
2, 44760, Note_on_c, 0, 82, 87
2, 44880, Note_on_c, 0, 82, 0
2, 44880, Note_on_c, 0, 84, 86
2, 45000, Note_on_c, 0, 84, 0
2, 45000, Note_on_c, 0, 82, 86
2, 45120, Note_on_c, 0, 82, 0
2, 45120, Note_on_c, 0, 80, 86
2, 45240, Note_on_c, 0, 80, 0
2, 45240, Note_on_c, 0, 79, 86
2, 45360, Note_on_c, 0, 79, 0
2, 45360, Note_on_c, 0, 77, 94
2, 45600, Note_on_c, 0, 77, 0
2, 45600, Note_on_c, 0, 77, 86
2, 45720, Note_on_c, 0, 77, 0
2, 45720, Note_on_c, 0, 80, 86
2, 45840, Note_on_c, 0, 80, 0
2, 45840, Note_on_c, 0, 74, 86
2, 45960, Note_on_c, 0, 74, 0
2, 45960, Note_on_c, 0, 77, 86
2, 46080, Note_on_c, 0, 77, 0
2, 46080, Note_on_c, 0, 75, 69
2, 46800, Note_on_c, 0, 75, 0
2, 46800, Note_on_c, 0, 78, 73
2, 47520, Note_on_c, 0, 78, 0
2, 47520, Note_on_c, 0, 83, 88
2, 48000, Note_on_c, 0, 83, 0
2, 48000, Note_on_c, 0, 82, 94
2, 48240, Note_on_c, 0, 82, 0
2, 48240, Note_on_c, 0, 82, 104
2, 48270, Note_on_c, 0, 82, 0
2, 48270, Note_on_c, 0, 81, 104
2, 48300, Note_on_c, 0, 81, 0
2, 48300, Note_on_c, 0, 82, 104
2, 48330, Note_on_c, 0, 82, 0
2, 48330, Note_on_c, 0, 81, 104
2, 48360, Note_on_c, 0, 81, 0
2, 48360, Note_on_c, 0, 82, 100
2, 48390, Note_on_c, 0, 82, 0
2, 48390, Note_on_c, 0, 81, 100
2, 48420, Note_on_c, 0, 81, 0
2, 48420, Note_on_c, 0, 82, 97
2, 48450, Note_on_c, 0, 82, 0
2, 48450, Note_on_c, 0, 81, 97
2, 48480, Note_on_c, 0, 81, 0
2, 48480, Note_on_c, 0, 82, 92
2, 48510, Note_on_c, 0, 82, 0
2, 48510, Note_on_c, 0, 81, 92
2, 48540, Note_on_c, 0, 81, 0
2, 48540, Note_on_c, 0, 82, 92
2, 48570, Note_on_c, 0, 82, 0
2, 48570, Note_on_c, 0, 81, 91
2, 48600, Note_on_c, 0, 81, 0
2, 48600, Note_on_c, 0, 82, 91
2, 48630, Note_on_c, 0, 82, 0
2, 48630, Note_on_c, 0, 81, 93
2, 48660, Note_on_c, 0, 81, 0
2, 48660, Note_on_c, 0, 82, 93
2, 48690, Note_on_c, 0, 82, 0
2, 48690, Note_on_c, 0, 81, 93
2, 48720, Note_on_c, 0, 81, 0
2, 48720, Note_on_c, 0, 82, 94
2, 48750, Note_on_c, 0, 82, 0
2, 48750, Note_on_c, 0, 81, 94
2, 48780, Note_on_c, 0, 81, 0
2, 48780, Note_on_c, 0, 82, 96
2, 48810, Note_on_c, 0, 82, 0
2, 48810, Note_on_c, 0, 81, 96
2, 48840, Note_on_c, 0, 81, 0
2, 48840, Note_on_c, 0, 82, 98
2, 48870, Note_on_c, 0, 82, 0
2, 48870, Note_on_c, 0, 81, 98
2, 48900, Note_on_c, 0, 81, 0
2, 48900, Note_on_c, 0, 80, 101
2, 48930, Note_on_c, 0, 80, 0
2, 48930, Note_on_c, 0, 81, 101
2, 48958, Note_on_c, 0, 82, 104
2, 48960, Note_on_c, 0, 81, 0
2, 49680, Note_on_c, 0, 82, 0
2, 49680, Note_on_c, 0, 84, 120
2, 49740, Note_on_c, 0, 84, 0
2, 49740, Note_on_c, 0, 82, 120
2, 49920, Note_on_c, 0, 82, 0
2, 49920, Note_on_c, 0, 80, 103
2, 49980, Note_on_c, 0, 80, 0
2, 49980, Note_on_c, 0, 79, 98
2, 50160, Note_on_c, 0, 79, 0
2, 50160, Note_on_c, 0, 77, 87
2, 50220, Note_on_c, 0, 77, 0
2, 50220, Note_on_c, 0, 75, 87
2, 50400, Note_on_c, 0, 75, 0
2, 50400, Note_on_c, 0, 70, 94
2, 51120, Note_on_c, 0, 70, 0
2, 51120, Note_on_c, 0, 70, 96
2, 51240, Note_on_c, 0, 70, 0
2, 51240, Note_on_c, 0, 70, 90
2, 51360, Note_on_c, 0, 70, 0
2, 51360, Note_on_c, 0, 70, 93
2, 51480, Note_on_c, 0, 70, 0
2, 51480, Note_on_c, 0, 70, 87
2, 51600, Note_on_c, 0, 70, 0
2, 51600, Note_on_c, 0, 72, 89
2, 51720, Note_on_c, 0, 72, 0
2, 51720, Note_on_c, 0, 74, 90
2, 51840, Note_on_c, 0, 74, 0
2, 51840, Note_on_c, 0, 75, 102
2, 52080, Note_on_c, 0, 75, 0
2, 52080, Note_on_c, 0, 70, 93
2, 52080, Note_on_c, 0, 67, 93
2, 52320, Note_on_c, 0, 70, 0
2, 52320, Note_on_c, 0, 67, 0
2, 52320, Note_on_c, 0, 70, 97
2, 52320, Note_on_c, 0, 67, 97
2, 52560, Note_on_c, 0, 70, 0
2, 52560, Note_on_c, 0, 67, 0
2, 52560, Note_on_c, 0, 70, 107
2, 52560, Note_on_c, 0, 67, 107
2, 52680, Note_on_c, 0, 70, 0
2, 52680, Note_on_c, 0, 67, 0
2, 52680, Note_on_c, 0, 72, 94
2, 52800, Note_on_c, 0, 72, 0
2, 52800, Note_on_c, 0, 70, 92
2, 52800, Note_on_c, 0, 67, 92
2, 52920, Note_on_c, 0, 70, 0
2, 52920, Note_on_c, 0, 67, 0
2, 52920, Note_on_c, 0, 72, 90
2, 53040, Note_on_c, 0, 72, 0
2, 53040, Note_on_c, 0, 70, 92
2, 53040, Note_on_c, 0, 67, 92
2, 53160, Note_on_c, 0, 70, 0
2, 53160, Note_on_c, 0, 67, 0
2, 53160, Note_on_c, 0, 72, 96
2, 53280, Note_on_c, 0, 72, 0
2, 53280, Note_on_c, 0, 68, 99
2, 53280, Note_on_c, 0, 65, 99
2, 53400, Note_on_c, 0, 68, 0
2, 53400, Note_on_c, 0, 65, 0
2, 53400, Note_on_c, 0, 77, 93
2, 53520, Note_on_c, 0, 77, 0
2, 53520, Note_on_c, 0, 68, 90
2, 53520, Note_on_c, 0, 65, 90
2, 53640, Note_on_c, 0, 68, 0
2, 53640, Note_on_c, 0, 65, 0
2, 53640, Note_on_c, 0, 77, 87
2, 53760, Note_on_c, 0, 77, 0
2, 53760, Note_on_c, 0, 68, 92
2, 53760, Note_on_c, 0, 65, 92
2, 53880, Note_on_c, 0, 68, 0
2, 53880, Note_on_c, 0, 65, 0
2, 53880, Note_on_c, 0, 77, 86
2, 54000, Note_on_c, 0, 77, 0
2, 54000, Note_on_c, 0, 68, 99
2, 54000, Note_on_c, 0, 65, 99
2, 54120, Note_on_c, 0, 68, 0
2, 54120, Note_on_c, 0, 65, 0
2, 54120, Note_on_c, 0, 77, 89
2, 54240, Note_on_c, 0, 77, 0
2, 54240, Note_on_c, 0, 68, 87
2, 54240, Note_on_c, 0, 65, 87
2, 54360, Note_on_c, 0, 68, 0
2, 54360, Note_on_c, 0, 65, 0
2, 54360, Note_on_c, 0, 77, 85
2, 54480, Note_on_c, 0, 77, 0
2, 54480, Note_on_c, 0, 68, 90
2, 54480, Note_on_c, 0, 65, 90
2, 54600, Note_on_c, 0, 68, 0
2, 54600, Note_on_c, 0, 65, 0
2, 54600, Note_on_c, 0, 77, 96
2, 54720, Note_on_c, 0, 77, 0
2, 54720, Note_on_c, 0, 75, 98
2, 54720, Note_on_c, 0, 67, 98
2, 54960, Note_on_c, 0, 75, 0
2, 54960, Note_on_c, 0, 67, 0
2, 54960, Note_on_c, 0, 70, 88
2, 54960, Note_on_c, 0, 67, 88
2, 55200, Note_on_c, 0, 70, 0
2, 55200, Note_on_c, 0, 67, 0
2, 55200, Note_on_c, 0, 70, 89
2, 55200, Note_on_c, 0, 67, 89
2, 55440, Note_on_c, 0, 70, 0
2, 55440, Note_on_c, 0, 67, 0
2, 55440, Note_on_c, 0, 70, 97
2, 55440, Note_on_c, 0, 67, 97
2, 55560, Note_on_c, 0, 70, 0
2, 55560, Note_on_c, 0, 67, 0
2, 55560, Note_on_c, 0, 72, 86
2, 55680, Note_on_c, 0, 72, 0
2, 55680, Note_on_c, 0, 70, 88
2, 55680, Note_on_c, 0, 67, 88
2, 55800, Note_on_c, 0, 70, 0
2, 55800, Note_on_c, 0, 67, 0
2, 55800, Note_on_c, 0, 72, 85
2, 55920, Note_on_c, 0, 72, 0
2, 55920, Note_on_c, 0, 70, 86
2, 55920, Note_on_c, 0, 67, 86
2, 56040, Note_on_c, 0, 70, 0
2, 56040, Note_on_c, 0, 67, 0
2, 56040, Note_on_c, 0, 72, 85
2, 56160, Note_on_c, 0, 72, 0
2, 56160, Note_on_c, 0, 68, 98
2, 56160, Note_on_c, 0, 65, 98
2, 56280, Note_on_c, 0, 68, 0
2, 56280, Note_on_c, 0, 65, 0
2, 56280, Note_on_c, 0, 77, 95
2, 56400, Note_on_c, 0, 77, 0
2, 56400, Note_on_c, 0, 68, 86
2, 56400, Note_on_c, 0, 65, 86
2, 56520, Note_on_c, 0, 68, 0
2, 56520, Note_on_c, 0, 65, 0
2, 56520, Note_on_c, 0, 77, 86
2, 56640, Note_on_c, 0, 77, 0
2, 56640, Note_on_c, 0, 68, 85
2, 56640, Note_on_c, 0, 65, 85
2, 56760, Note_on_c, 0, 68, 0
2, 56760, Note_on_c, 0, 65, 0
2, 56760, Note_on_c, 0, 77, 95
2, 56880, Note_on_c, 0, 77, 0
2, 56880, Note_on_c, 0, 68, 98
2, 56880, Note_on_c, 0, 65, 98
2, 57000, Note_on_c, 0, 68, 0
2, 57000, Note_on_c, 0, 65, 0
2, 57000, Note_on_c, 0, 77, 92
2, 57120, Note_on_c, 0, 77, 0
2, 57120, Note_on_c, 0, 68, 89
2, 57120, Note_on_c, 0, 65, 89
2, 57240, Note_on_c, 0, 68, 0
2, 57240, Note_on_c, 0, 65, 0
2, 57240, Note_on_c, 0, 77, 86
2, 57360, Note_on_c, 0, 77, 0
2, 57360, Note_on_c, 0, 68, 85
2, 57360, Note_on_c, 0, 65, 85
2, 57480, Note_on_c, 0, 68, 0
2, 57480, Note_on_c, 0, 65, 0
2, 57480, Note_on_c, 0, 77, 90
2, 57600, Note_on_c, 0, 77, 0
2, 57600, Note_on_c, 0, 75, 93
2, 57600, Note_on_c, 0, 70, 93
2, 57600, Note_on_c, 0, 67, 93
2, 57840, Note_on_c, 0, 75, 0
2, 57840, Note_on_c, 0, 70, 0
2, 57840, Note_on_c, 0, 67, 0
2, 57840, Note_on_c, 0, 79, 89
2, 57840, Note_on_c, 0, 75, 89
2, 57840, Note_on_c, 0, 70, 89
2, 58080, Note_on_c, 0, 79, 0
2, 58080, Note_on_c, 0, 75, 0
2, 58080, Note_on_c, 0, 70, 0
2, 58080, Note_on_c, 0, 77, 89
2, 58080, Note_on_c, 0, 74, 89
2, 58080, Note_on_c, 0, 68, 89
2, 58320, Note_on_c, 0, 77, 0
2, 58320, Note_on_c, 0, 74, 0
2, 58320, Note_on_c, 0, 68, 0
2, 58320, Note_on_c, 0, 75, 88
2, 58320, Note_on_c, 0, 67, 88
2, 58560, Note_on_c, 0, 75, 0
2, 58560, Note_on_c, 0, 67, 0
2, 58560, Note_on_c, 0, 75, 84
2, 58560, Note_on_c, 0, 70, 84
2, 58560, Note_on_c, 0, 67, 84
2, 58800, Note_on_c, 0, 75, 0
2, 58800, Note_on_c, 0, 70, 0
2, 58800, Note_on_c, 0, 67, 0
2, 58800, Note_on_c, 0, 75, 86
2, 59040, Note_on_c, 0, 75, 0
2, 59040, Note_on_c, 0, 75, 88
2, 59040, Note_on_c, 0, 70, 88
2, 59040, Note_on_c, 0, 67, 88
2, 59520, Note_on_c, 0, 75, 0
2, 59520, Note_on_c, 0, 70, 0
2, 59520, Note_on_c, 0, 67, 0
2, 59520, Note_on_c, 0, 63, 78
2, 59760, Note_on_c, 0, 63, 0
2, 59760, Note_on_c, 0, 67, 84
2, 59760, Note_on_c, 0, 63, 84
2, 60000, Note_on_c, 0, 67, 0
2, 60000, Note_on_c, 0, 63, 0
2, 60000, Note_on_c, 0, 68, 92
2, 60000, Note_on_c, 0, 65, 92
2, 60240, Note_on_c, 0, 68, 0
2, 60240, Note_on_c, 0, 65, 0
2, 60240, Note_on_c, 0, 69, 102
2, 60240, Note_on_c, 0, 66, 102
2, 60480, Note_on_c, 0, 69, 0
2, 60480, Note_on_c, 0, 66, 0
2, 60480, Note_on_c, 0, 70, 106
2, 60480, Note_on_c, 0, 67, 106
2, 60720, Note_on_c, 0, 70, 0
2, 60720, Note_on_c, 0, 67, 0
2, 60720, Note_on_c, 0, 72, 102
2, 60720, Note_on_c, 0, 68, 102
2, 60960, Note_on_c, 0, 72, 0
2, 60960, Note_on_c, 0, 68, 0
2, 60960, Note_on_c, 0, 74, 108
2, 60960, Note_on_c, 0, 68, 108
2, 60960, Note_on_c, 0, 65, 108
2, 61200, Control_c, 0, 64, 127
2, 61200, Note_on_c, 0, 74, 0
2, 61200, Note_on_c, 0, 68, 0
2, 61200, Note_on_c, 0, 65, 0
2, 61200, Note_on_c, 0, 75, 99
2, 61280, Note_on_c, 0, 75, 0
2, 61280, Note_on_c, 0, 70, 98
2, 61360, Note_on_c, 0, 70, 0
2, 61360, Note_on_c, 0, 67, 97
2, 61440, Note_on_c, 0, 67, 0
2, 61440, Note_on_c, 0, 79, 98
2, 61520, Note_on_c, 0, 79, 0
2, 61520, Note_on_c, 0, 70, 97
2, 61600, Note_on_c, 0, 70, 0
2, 61600, Note_on_c, 0, 67, 97
2, 61680, Note_on_c, 0, 67, 0
2, 61680, Note_on_c, 0, 78, 97
2, 61760, Note_on_c, 0, 78, 0
2, 61760, Note_on_c, 0, 70, 97
2, 61840, Note_on_c, 0, 70, 0
2, 61840, Note_on_c, 0, 67, 97
2, 61920, Note_on_c, 0, 67, 0
2, 61920, Note_on_c, 0, 79, 97
2, 62000, Note_on_c, 0, 79, 0
2, 62000, Note_on_c, 0, 70, 97
2, 62080, Note_on_c, 0, 70, 0
2, 62080, Note_on_c, 0, 67, 97
2, 62160, Note_on_c, 0, 67, 0
2, 62160, Note_on_c, 0, 77, 97
2, 62240, Note_on_c, 0, 77, 0
2, 62240, Note_on_c, 0, 70, 96
2, 62320, Note_on_c, 0, 70, 0
2, 62320, Note_on_c, 0, 67, 95
2, 62400, Note_on_c, 0, 67, 0
2, 62400, Note_on_c, 0, 75, 95
2, 62480, Note_on_c, 0, 75, 0
2, 62480, Note_on_c, 0, 70, 95
2, 62560, Note_on_c, 0, 70, 0
2, 62560, Note_on_c, 0, 67, 95
2, 62636, Control_c, 0, 64, 0
2, 62640, Control_c, 0, 64, 127
2, 62640, Note_on_c, 0, 67, 0
2, 62640, Note_on_c, 0, 75, 95
2, 62720, Note_on_c, 0, 75, 0
2, 62720, Note_on_c, 0, 68, 96
2, 62800, Note_on_c, 0, 68, 0
2, 62800, Note_on_c, 0, 65, 96
2, 62880, Note_on_c, 0, 65, 0
2, 62880, Note_on_c, 0, 74, 96
2, 62960, Note_on_c, 0, 74, 0
2, 62960, Note_on_c, 0, 68, 95
2, 63040, Note_on_c, 0, 68, 0
2, 63040, Note_on_c, 0, 65, 95
2, 63120, Note_on_c, 0, 65, 0
2, 63120, Note_on_c, 0, 72, 95
2, 63200, Note_on_c, 0, 72, 0
2, 63200, Note_on_c, 0, 68, 95
2, 63280, Note_on_c, 0, 68, 0
2, 63280, Note_on_c, 0, 65, 95
2, 63360, Note_on_c, 0, 65, 0
2, 63360, Note_on_c, 0, 70, 94
2, 63440, Note_on_c, 0, 70, 0
2, 63440, Note_on_c, 0, 68, 95
2, 63520, Note_on_c, 0, 68, 0
2, 63520, Note_on_c, 0, 65, 95
2, 63600, Note_on_c, 0, 65, 0
2, 63600, Note_on_c, 0, 72, 94
2, 63680, Note_on_c, 0, 72, 0
2, 63680, Note_on_c, 0, 67, 94
2, 63760, Note_on_c, 0, 67, 0
2, 63760, Note_on_c, 0, 65, 94
2, 63840, Note_on_c, 0, 65, 0
2, 63840, Note_on_c, 0, 74, 93
2, 63920, Note_on_c, 0, 74, 0
2, 63920, Note_on_c, 0, 68, 93
2, 64000, Note_on_c, 0, 68, 0
2, 64000, Note_on_c, 0, 65, 92
2, 64076, Control_c, 0, 64, 0
2, 64080, Control_c, 0, 64, 127
2, 64080, Note_on_c, 0, 65, 0
2, 64080, Note_on_c, 0, 75, 90
2, 64160, Note_on_c, 0, 75, 0
2, 64160, Note_on_c, 0, 70, 86
2, 64240, Note_on_c, 0, 70, 0
2, 64240, Note_on_c, 0, 67, 85
2, 64320, Note_on_c, 0, 67, 0
2, 64320, Note_on_c, 0, 79, 88
2, 64400, Note_on_c, 0, 79, 0
2, 64400, Note_on_c, 0, 70, 90
2, 64480, Note_on_c, 0, 70, 0
2, 64480, Note_on_c, 0, 67, 90
2, 64560, Note_on_c, 0, 67, 0
2, 64560, Note_on_c, 0, 78, 90
2, 64640, Note_on_c, 0, 78, 0
2, 64640, Note_on_c, 0, 70, 90
2, 64720, Note_on_c, 0, 70, 0
2, 64720, Note_on_c, 0, 67, 90
2, 64800, Note_on_c, 0, 67, 0
2, 64800, Note_on_c, 0, 79, 90
2, 64880, Note_on_c, 0, 79, 0
2, 64880, Note_on_c, 0, 70, 90
2, 64960, Note_on_c, 0, 70, 0
2, 64960, Note_on_c, 0, 67, 90
2, 65040, Note_on_c, 0, 67, 0
2, 65040, Note_on_c, 0, 77, 88
2, 65120, Note_on_c, 0, 77, 0
2, 65120, Note_on_c, 0, 70, 88
2, 65200, Note_on_c, 0, 70, 0
2, 65200, Note_on_c, 0, 67, 87
2, 65280, Note_on_c, 0, 67, 0
2, 65280, Note_on_c, 0, 75, 87
2, 65360, Note_on_c, 0, 75, 0
2, 65360, Note_on_c, 0, 70, 87
2, 65440, Note_on_c, 0, 70, 0
2, 65440, Note_on_c, 0, 67, 87
2, 65516, Control_c, 0, 64, 0
2, 65520, Note_on_c, 0, 67, 0
2, 65520, Note_on_c, 0, 75, 88
2, 65522, Control_c, 0, 64, 127
2, 65600, Note_on_c, 0, 75, 0
2, 65600, Note_on_c, 0, 68, 88
2, 65680, Note_on_c, 0, 68, 0
2, 65680, Note_on_c, 0, 65, 86
2, 65760, Note_on_c, 0, 65, 0
2, 65760, Note_on_c, 0, 74, 86
2, 65840, Note_on_c, 0, 74, 0
2, 65840, Note_on_c, 0, 68, 87
2, 65920, Note_on_c, 0, 68, 0
2, 65920, Note_on_c, 0, 65, 86
2, 66000, Note_on_c, 0, 65, 0
2, 66000, Note_on_c, 0, 72, 86
2, 66080, Note_on_c, 0, 72, 0
2, 66080, Note_on_c, 0, 68, 87
2, 66160, Note_on_c, 0, 68, 0
2, 66160, Note_on_c, 0, 65, 87
2, 66240, Note_on_c, 0, 65, 0
2, 66240, Note_on_c, 0, 70, 86
2, 66320, Note_on_c, 0, 70, 0
2, 66320, Note_on_c, 0, 68, 86
2, 66400, Note_on_c, 0, 68, 0
2, 66400, Note_on_c, 0, 65, 85
2, 66480, Note_on_c, 0, 65, 0
2, 66480, Note_on_c, 0, 72, 88
2, 66560, Note_on_c, 0, 72, 0
2, 66560, Note_on_c, 0, 68, 88
2, 66640, Note_on_c, 0, 68, 0
2, 66640, Note_on_c, 0, 65, 88
2, 66720, Note_on_c, 0, 65, 0
2, 66720, Note_on_c, 0, 74, 88
2, 66800, Note_on_c, 0, 74, 0
2, 66800, Note_on_c, 0, 68, 88
2, 66880, Note_on_c, 0, 68, 0
2, 66880, Note_on_c, 0, 65, 88
2, 66956, Control_c, 0, 64, 0
2, 66960, Control_c, 0, 64, 127
2, 66960, Note_on_c, 0, 65, 0
2, 66960, Note_on_c, 0, 75, 88
2, 67040, Note_on_c, 0, 75, 0
2, 67040, Note_on_c, 0, 70, 88
2, 67120, Note_on_c, 0, 70, 0
2, 67120, Note_on_c, 0, 67, 87
2, 67200, Note_on_c, 0, 67, 0
2, 67200, Note_on_c, 0, 79, 87
2, 67280, Note_on_c, 0, 79, 0
2, 67280, Note_on_c, 0, 70, 88
2, 67360, Note_on_c, 0, 70, 0
2, 67360, Note_on_c, 0, 67, 88
2, 67440, Note_on_c, 0, 67, 0
2, 67440, Note_on_c, 0, 77, 88
2, 67520, Note_on_c, 0, 77, 0
2, 67520, Note_on_c, 0, 68, 88
2, 67600, Note_on_c, 0, 68, 0
2, 67600, Note_on_c, 0, 65, 88
2, 67676, Control_c, 0, 64, 0
2, 67680, Control_c, 0, 64, 127
2, 67680, Note_on_c, 0, 65, 0
2, 67680, Note_on_c, 0, 75, 88
2, 67680, Note_on_c, 0, 70, 88
2, 67680, Note_on_c, 0, 67, 88
2, 67920, Note_on_c, 0, 75, 0
2, 67920, Note_on_c, 0, 70, 0
2, 67920, Note_on_c, 0, 67, 0
2, 68156, Control_c, 0, 64, 0
2, 68160, Note_on_c, 0, 63, 82
2, 68400, Note_on_c, 0, 63, 0
2, 68400, Note_on_c, 0, 67, 85
2, 68400, Note_on_c, 0, 63, 85
2, 68640, Note_on_c, 0, 67, 0
2, 68640, Note_on_c, 0, 63, 0
2, 68640, Note_on_c, 0, 68, 84
2, 68640, Note_on_c, 0, 65, 84
2, 68880, Note_on_c, 0, 68, 0
2, 68880, Note_on_c, 0, 65, 0
2, 68880, Note_on_c, 0, 69, 93
2, 68880, Note_on_c, 0, 66, 93
2, 69120, Note_on_c, 0, 69, 0
2, 69120, Note_on_c, 0, 66, 0
2, 69120, Note_on_c, 0, 70, 102
2, 69120, Note_on_c, 0, 67, 102
2, 69360, Note_on_c, 0, 70, 0
2, 69360, Note_on_c, 0, 67, 0
2, 69360, Note_on_c, 0, 72, 101
2, 69360, Note_on_c, 0, 68, 101
2, 69600, Note_on_c, 0, 72, 0
2, 69600, Note_on_c, 0, 68, 0
2, 69600, Note_on_c, 0, 74, 106
2, 69600, Note_on_c, 0, 68, 106
2, 69600, Note_on_c, 0, 65, 106
2, 69840, Control_c, 0, 64, 127
2, 69840, Note_on_c, 0, 74, 0
2, 69840, Note_on_c, 0, 68, 0
2, 69840, Note_on_c, 0, 65, 0
2, 69840, Note_on_c, 0, 75, 107
2, 69920, Note_on_c, 0, 75, 0
2, 69920, Note_on_c, 0, 70, 106
2, 70000, Note_on_c, 0, 70, 0
2, 70000, Note_on_c, 0, 67, 102
2, 70080, Note_on_c, 0, 67, 0
2, 70080, Note_on_c, 0, 79, 101
2, 70160, Note_on_c, 0, 79, 0
2, 70160, Note_on_c, 0, 70, 102
2, 70240, Note_on_c, 0, 70, 0
2, 70240, Note_on_c, 0, 67, 101
2, 70320, Note_on_c, 0, 67, 0
2, 70320, Note_on_c, 0, 78, 100
2, 70400, Note_on_c, 0, 78, 0
2, 70400, Note_on_c, 0, 70, 100
2, 70480, Note_on_c, 0, 70, 0
2, 70480, Note_on_c, 0, 67, 99
2, 70560, Note_on_c, 0, 67, 0
2, 70560, Note_on_c, 0, 79, 99
2, 70640, Note_on_c, 0, 79, 0
2, 70640, Note_on_c, 0, 70, 98
2, 70720, Note_on_c, 0, 70, 0
2, 70720, Note_on_c, 0, 67, 98
2, 70800, Note_on_c, 0, 67, 0
2, 70800, Note_on_c, 0, 77, 98
2, 70880, Note_on_c, 0, 77, 0
2, 70880, Note_on_c, 0, 70, 99
2, 70960, Note_on_c, 0, 70, 0
2, 70960, Note_on_c, 0, 67, 98
2, 71040, Note_on_c, 0, 67, 0
2, 71040, Note_on_c, 0, 75, 97
2, 71120, Note_on_c, 0, 75, 0
2, 71120, Note_on_c, 0, 70, 98
2, 71200, Note_on_c, 0, 70, 0
2, 71200, Note_on_c, 0, 67, 97
2, 71276, Control_c, 0, 64, 0
2, 71280, Control_c, 0, 64, 127
2, 71280, Note_on_c, 0, 67, 0
2, 71280, Note_on_c, 0, 75, 97
2, 71360, Note_on_c, 0, 75, 0
2, 71360, Note_on_c, 0, 68, 97
2, 71440, Note_on_c, 0, 68, 0
2, 71440, Note_on_c, 0, 65, 97
2, 71520, Note_on_c, 0, 65, 0
2, 71520, Note_on_c, 0, 74, 98
2, 71600, Note_on_c, 0, 74, 0
2, 71600, Note_on_c, 0, 68, 98
2, 71680, Note_on_c, 0, 68, 0
2, 71680, Note_on_c, 0, 65, 97
2, 71760, Note_on_c, 0, 65, 0
2, 71760, Note_on_c, 0, 72, 96
2, 71840, Note_on_c, 0, 72, 0
2, 71840, Note_on_c, 0, 68, 97
2, 71920, Note_on_c, 0, 68, 0
2, 71920, Note_on_c, 0, 65, 96
2, 72000, Note_on_c, 0, 65, 0
2, 72000, Note_on_c, 0, 70, 97
2, 72080, Note_on_c, 0, 70, 0
2, 72080, Note_on_c, 0, 68, 97
2, 72160, Note_on_c, 0, 68, 0
2, 72160, Note_on_c, 0, 65, 97
2, 72240, Note_on_c, 0, 65, 0
2, 72240, Note_on_c, 0, 72, 97
2, 72320, Note_on_c, 0, 72, 0
2, 72320, Note_on_c, 0, 67, 97
2, 72400, Note_on_c, 0, 67, 0
2, 72400, Note_on_c, 0, 65, 97
2, 72480, Note_on_c, 0, 65, 0
2, 72480, Note_on_c, 0, 74, 97
2, 72560, Note_on_c, 0, 74, 0
2, 72560, Note_on_c, 0, 68, 97
2, 72640, Note_on_c, 0, 68, 0
2, 72640, Note_on_c, 0, 65, 97
2, 72716, Control_c, 0, 64, 0
2, 72720, Control_c, 0, 64, 127
2, 72720, Note_on_c, 0, 65, 0
2, 72720, Note_on_c, 0, 75, 97
2, 72800, Note_on_c, 0, 75, 0
2, 72800, Note_on_c, 0, 70, 97
2, 72880, Note_on_c, 0, 70, 0
2, 72880, Note_on_c, 0, 67, 96
2, 72960, Note_on_c, 0, 67, 0
2, 72960, Note_on_c, 0, 79, 96
2, 73040, Note_on_c, 0, 79, 0
2, 73040, Note_on_c, 0, 70, 96
2, 73120, Note_on_c, 0, 70, 0
2, 73120, Note_on_c, 0, 67, 96
2, 73200, Note_on_c, 0, 67, 0
2, 73200, Note_on_c, 0, 78, 96
2, 73280, Note_on_c, 0, 78, 0
2, 73280, Note_on_c, 0, 70, 96
2, 73360, Note_on_c, 0, 70, 0
2, 73360, Note_on_c, 0, 67, 97
2, 73440, Note_on_c, 0, 67, 0
2, 73440, Note_on_c, 0, 79, 97
2, 73520, Note_on_c, 0, 79, 0
2, 73520, Note_on_c, 0, 70, 97
2, 73600, Note_on_c, 0, 70, 0
2, 73600, Note_on_c, 0, 67, 96
2, 73680, Note_on_c, 0, 67, 0
2, 73680, Note_on_c, 0, 77, 97
2, 73760, Note_on_c, 0, 77, 0
2, 73760, Note_on_c, 0, 70, 96
2, 73840, Note_on_c, 0, 70, 0
2, 73840, Note_on_c, 0, 67, 95
2, 73920, Note_on_c, 0, 67, 0
2, 73920, Note_on_c, 0, 75, 95
2, 74000, Note_on_c, 0, 75, 0
2, 74000, Note_on_c, 0, 70, 95
2, 74080, Note_on_c, 0, 70, 0
2, 74080, Note_on_c, 0, 67, 95
2, 74156, Control_c, 0, 64, 0
2, 74160, Note_on_c, 0, 67, 0
2, 74160, Note_on_c, 0, 75, 95
2, 74162, Control_c, 0, 64, 127
2, 74240, Note_on_c, 0, 75, 0
2, 74240, Note_on_c, 0, 68, 95
2, 74320, Note_on_c, 0, 68, 0
2, 74320, Note_on_c, 0, 65, 96
2, 74400, Note_on_c, 0, 65, 0
2, 74400, Note_on_c, 0, 74, 96
2, 74480, Note_on_c, 0, 74, 0
2, 74480, Note_on_c, 0, 68, 96
2, 74560, Note_on_c, 0, 68, 0
2, 74560, Note_on_c, 0, 65, 96
2, 74640, Note_on_c, 0, 65, 0
2, 74640, Note_on_c, 0, 72, 95
2, 74720, Note_on_c, 0, 72, 0
2, 74720, Note_on_c, 0, 68, 95
2, 74800, Note_on_c, 0, 68, 0
2, 74800, Note_on_c, 0, 65, 94
2, 74880, Note_on_c, 0, 65, 0
2, 74880, Note_on_c, 0, 70, 94
2, 74960, Note_on_c, 0, 70, 0
2, 74960, Note_on_c, 0, 68, 94
2, 75040, Note_on_c, 0, 68, 0
2, 75040, Note_on_c, 0, 65, 96
2, 75120, Note_on_c, 0, 65, 0
2, 75120, Note_on_c, 0, 72, 97
2, 75200, Note_on_c, 0, 72, 0
2, 75200, Note_on_c, 0, 68, 97
2, 75280, Note_on_c, 0, 68, 0
2, 75280, Note_on_c, 0, 65, 97
2, 75360, Note_on_c, 0, 65, 0
2, 75360, Note_on_c, 0, 74, 97
2, 75440, Note_on_c, 0, 74, 0
2, 75440, Note_on_c, 0, 68, 97
2, 75520, Note_on_c, 0, 68, 0
2, 75520, Note_on_c, 0, 65, 97
2, 75596, Control_c, 0, 64, 0
2, 75600, Control_c, 0, 64, 127
2, 75600, Note_on_c, 0, 65, 0
2, 75600, Note_on_c, 0, 75, 97
2, 75680, Note_on_c, 0, 75, 0
2, 75680, Note_on_c, 0, 70, 97
2, 75760, Note_on_c, 0, 70, 0
2, 75760, Note_on_c, 0, 67, 96
2, 75840, Note_on_c, 0, 67, 0
2, 75840, Note_on_c, 0, 79, 97
2, 75920, Note_on_c, 0, 79, 0
2, 75920, Note_on_c, 0, 70, 99
2, 76000, Note_on_c, 0, 70, 0
2, 76000, Note_on_c, 0, 67, 99
2, 76080, Note_on_c, 0, 67, 0
2, 76080, Note_on_c, 0, 77, 100
2, 76160, Note_on_c, 0, 77, 0
2, 76160, Note_on_c, 0, 68, 100
2, 76240, Note_on_c, 0, 68, 0
2, 76240, Note_on_c, 0, 65, 99
2, 76316, Control_c, 0, 64, 0
2, 76320, Control_c, 0, 64, 127
2, 76320, Note_on_c, 0, 65, 0
2, 76320, Note_on_c, 0, 75, 98
2, 76320, Note_on_c, 0, 70, 98
2, 76320, Note_on_c, 0, 67, 98
2, 76560, Note_on_c, 0, 75, 0
2, 76560, Note_on_c, 0, 70, 0
2, 76560, Note_on_c, 0, 67, 0
2, 76796, Control_c, 0, 64, 0
2, 76800, Note_on_c, 0, 82, 80
2, 76980, Note_on_c, 0, 82, 0
2, 76980, Note_on_c, 0, 82, 63
2, 77040, Note_on_c, 0, 82, 0
2, 77040, Note_on_c, 0, 80, 63
2, 77120, Note_on_c, 0, 80, 0
2, 77120, Note_on_c, 0, 82, 64
2, 77200, Note_on_c, 0, 82, 0
2, 77200, Note_on_c, 0, 80, 64
2, 77280, Note_on_c, 0, 80, 0
2, 77280, Note_on_c, 0, 77, 64
2, 77360, Note_on_c, 0, 77, 0
2, 77360, Note_on_c, 0, 80, 69
2, 77440, Note_on_c, 0, 80, 0
2, 77440, Note_on_c, 0, 77, 70
2, 77520, Note_on_c, 0, 77, 0
2, 77520, Note_on_c, 0, 74, 70
2, 77600, Note_on_c, 0, 74, 0
2, 77600, Note_on_c, 0, 77, 71
2, 77680, Note_on_c, 0, 77, 0
2, 77680, Note_on_c, 0, 74, 71
2, 77760, Note_on_c, 0, 74, 0
2, 77760, Note_on_c, 0, 75, 71
2, 77840, Note_on_c, 0, 75, 0
2, 77840, Note_on_c, 0, 79, 71
2, 77920, Note_on_c, 0, 79, 0
2, 77920, Note_on_c, 0, 75, 71
2, 78000, Note_on_c, 0, 75, 0
2, 78000, Note_on_c, 0, 70, 72
2, 78080, Note_on_c, 0, 70, 0
2, 78080, Note_on_c, 0, 75, 73
2, 78160, Note_on_c, 0, 75, 0
2, 78160, Note_on_c, 0, 70, 72
2, 78240, Note_on_c, 0, 70, 0
2, 78240, Note_on_c, 0, 67, 73
2, 78320, Note_on_c, 0, 67, 0
2, 78320, Note_on_c, 0, 70, 73
2, 78400, Note_on_c, 0, 70, 0
2, 78400, Note_on_c, 0, 67, 74
2, 78480, Note_on_c, 0, 67, 0
2, 78480, Note_on_c, 0, 68, 75
2, 78560, Note_on_c, 0, 68, 0
2, 78560, Note_on_c, 0, 70, 76
2, 78640, Note_on_c, 0, 70, 0
2, 78640, Note_on_c, 0, 68, 76
2, 78720, Note_on_c, 0, 68, 0
2, 78720, Note_on_c, 0, 65, 76
2, 78800, Note_on_c, 0, 65, 0
2, 78800, Note_on_c, 0, 68, 78
2, 78880, Note_on_c, 0, 68, 0
2, 78880, Note_on_c, 0, 65, 78
2, 78960, Note_on_c, 0, 65, 0
2, 78960, Note_on_c, 0, 62, 78
2, 79040, Note_on_c, 0, 62, 0
2, 79040, Note_on_c, 0, 65, 79
2, 79120, Note_on_c, 0, 65, 0
2, 79120, Note_on_c, 0, 62, 79
2, 79200, Note_on_c, 0, 62, 0
2, 79200, Note_on_c, 0, 63, 81
2, 79280, Note_on_c, 0, 63, 0
2, 79280, Note_on_c, 0, 67, 81
2, 79360, Note_on_c, 0, 67, 0
2, 79360, Note_on_c, 0, 63, 83
2, 79440, Note_on_c, 0, 63, 0
2, 79440, Note_on_c, 0, 58, 84
2, 79520, Note_on_c, 0, 58, 0
2, 79520, Note_on_c, 0, 63, 84
2, 79600, Note_on_c, 0, 63, 0
2, 79600, Note_on_c, 0, 58, 84
2, 79680, Note_on_c, 0, 58, 0
2, 79680, Note_on_c, 0, 55, 85
2, 79760, Note_on_c, 0, 55, 0
2, 79760, Note_on_c, 0, 58, 86
2, 79840, Note_on_c, 0, 58, 0
2, 79840, Note_on_c, 0, 55, 88
2, 79920, Note_on_c, 0, 55, 0
2, 79920, Note_on_c, 0, 56, 89
2, 80000, Note_on_c, 0, 56, 0
2, 80000, Note_on_c, 0, 58, 91
2, 80080, Note_on_c, 0, 58, 0
2, 80080, Note_on_c, 0, 56, 93
2, 80160, Note_on_c, 0, 56, 0
2, 80160, Note_on_c, 0, 53, 95
2, 80240, Note_on_c, 0, 53, 0
2, 80240, Note_on_c, 0, 56, 97
2, 80320, Note_on_c, 0, 56, 0
2, 80320, Note_on_c, 0, 53, 97
2, 80400, Note_on_c, 0, 53, 0
2, 80400, Note_on_c, 0, 50, 99
2, 80480, Note_on_c, 0, 50, 0
2, 80480, Note_on_c, 0, 53, 100
2, 80560, Note_on_c, 0, 53, 0
2, 80560, Note_on_c, 0, 50, 101
2, 80640, Note_on_c, 0, 50, 0
2, 80640, Note_on_c, 0, 51, 102
2, 80720, Note_on_c, 0, 51, 0
2, 80720, Note_on_c, 0, 55, 102
2, 80800, Note_on_c, 0, 55, 0
2, 80800, Note_on_c, 0, 51, 103
2, 80880, Note_on_c, 0, 51, 0
2, 80880, Note_on_c, 0, 46, 104
2, 80960, Note_on_c, 0, 46, 0
2, 80960, Note_on_c, 0, 51, 105
2, 81040, Note_on_c, 0, 51, 0
2, 81040, Note_on_c, 0, 46, 105
2, 81120, Note_on_c, 0, 46, 0
2, 81120, Note_on_c, 0, 43, 107
2, 81200, Note_on_c, 0, 43, 0
2, 81200, Note_on_c, 0, 46, 108
2, 81280, Note_on_c, 0, 46, 0
2, 81280, Note_on_c, 0, 43, 110
2, 81360, Note_on_c, 0, 43, 0
2, 81360, Note_on_c, 0, 44, 112
2, 81440, Note_on_c, 0, 44, 0
2, 81440, Note_on_c, 0, 46, 113
2, 81520, Note_on_c, 0, 46, 0
2, 81520, Note_on_c, 0, 44, 115
2, 81600, Note_on_c, 0, 44, 0
2, 81600, Note_on_c, 0, 41, 115
2, 81680, Note_on_c, 0, 41, 0
2, 81680, Note_on_c, 0, 44, 116
2, 81760, Note_on_c, 0, 44, 0
2, 81760, Note_on_c, 0, 41, 116
2, 81840, Note_on_c, 0, 41, 0
2, 81840, Note_on_c, 0, 38, 117
2, 81920, Note_on_c, 0, 38, 0
2, 81920, Note_on_c, 0, 41, 119
2, 82000, Note_on_c, 0, 41, 0
2, 82000, Note_on_c, 0, 38, 127
2, 82080, Note_on_c, 0, 38, 0
2, 82320, Note_on_c, 0, 51, 127
2, 82320, Note_on_c, 0, 39, 127
2, 82560, Note_on_c, 0, 51, 0
2, 82560, Note_on_c, 0, 39, 0
2, 82560, Note_on_c, 0, 82, 114
2, 82740, Note_on_c, 0, 82, 0
2, 82740, Note_on_c, 0, 82, 77
2, 82800, Note_on_c, 0, 82, 0
2, 82800, Note_on_c, 0, 80, 77
2, 82880, Note_on_c, 0, 80, 0
2, 82880, Note_on_c, 0, 82, 76
2, 82960, Note_on_c, 0, 82, 0
2, 82960, Note_on_c, 0, 80, 76
2, 83040, Note_on_c, 0, 80, 0
2, 83040, Note_on_c, 0, 77, 75
2, 83120, Note_on_c, 0, 77, 0
2, 83120, Note_on_c, 0, 80, 76
2, 83200, Note_on_c, 0, 80, 0
2, 83200, Note_on_c, 0, 77, 75
2, 83280, Note_on_c, 0, 77, 0
2, 83280, Note_on_c, 0, 74, 76
2, 83360, Note_on_c, 0, 74, 0
2, 83360, Note_on_c, 0, 77, 76
2, 83440, Note_on_c, 0, 77, 0
2, 83440, Note_on_c, 0, 74, 76
2, 83520, Note_on_c, 0, 74, 0
2, 83520, Note_on_c, 0, 75, 76
2, 83600, Note_on_c, 0, 75, 0
2, 83600, Note_on_c, 0, 79, 77
2, 83680, Note_on_c, 0, 79, 0
2, 83680, Note_on_c, 0, 75, 78
2, 83760, Note_on_c, 0, 75, 0
2, 83760, Note_on_c, 0, 70, 78
2, 83840, Note_on_c, 0, 70, 0
2, 83840, Note_on_c, 0, 75, 78
2, 83920, Note_on_c, 0, 75, 0
2, 83920, Note_on_c, 0, 70, 78
2, 84000, Note_on_c, 0, 70, 0
2, 84000, Note_on_c, 0, 67, 78
2, 84080, Note_on_c, 0, 67, 0
2, 84080, Note_on_c, 0, 70, 79
2, 84160, Note_on_c, 0, 70, 0
2, 84160, Note_on_c, 0, 67, 80
2, 84240, Note_on_c, 0, 67, 0
2, 84240, Note_on_c, 0, 68, 81
2, 84320, Note_on_c, 0, 68, 0
2, 84320, Note_on_c, 0, 70, 81
2, 84400, Note_on_c, 0, 70, 0
2, 84400, Note_on_c, 0, 68, 83
2, 84480, Note_on_c, 0, 68, 0
2, 84480, Note_on_c, 0, 65, 84
2, 84560, Note_on_c, 0, 65, 0
2, 84560, Note_on_c, 0, 68, 84
2, 84640, Note_on_c, 0, 68, 0
2, 84640, Note_on_c, 0, 65, 84
2, 84720, Note_on_c, 0, 65, 0
2, 84720, Note_on_c, 0, 62, 84
2, 84800, Note_on_c, 0, 62, 0
2, 84800, Note_on_c, 0, 65, 84
2, 84880, Note_on_c, 0, 65, 0
2, 84880, Note_on_c, 0, 62, 84
2, 84960, Note_on_c, 0, 62, 0
2, 84960, Note_on_c, 0, 63, 84
2, 85040, Note_on_c, 0, 63, 0
2, 85040, Note_on_c, 0, 67, 86
2, 85120, Note_on_c, 0, 67, 0
2, 85120, Note_on_c, 0, 63, 87
2, 85200, Note_on_c, 0, 63, 0
2, 85200, Note_on_c, 0, 58, 89
2, 85280, Note_on_c, 0, 58, 0
2, 85280, Note_on_c, 0, 63, 91
2, 85360, Note_on_c, 0, 63, 0
2, 85360, Note_on_c, 0, 58, 92
2, 85440, Note_on_c, 0, 58, 0
2, 85440, Note_on_c, 0, 55, 92
2, 85520, Note_on_c, 0, 55, 0
2, 85520, Note_on_c, 0, 58, 93
2, 85600, Note_on_c, 0, 58, 0
2, 85600, Note_on_c, 0, 55, 97
2, 85680, Note_on_c, 0, 55, 0
2, 85680, Note_on_c, 0, 56, 97
2, 85760, Note_on_c, 0, 56, 0
2, 85760, Note_on_c, 0, 58, 97
2, 85840, Note_on_c, 0, 58, 0
2, 85840, Note_on_c, 0, 56, 99
2, 85920, Note_on_c, 0, 56, 0
2, 85920, Note_on_c, 0, 53, 100
2, 86000, Note_on_c, 0, 53, 0
2, 86000, Note_on_c, 0, 56, 101
2, 86080, Note_on_c, 0, 56, 0
2, 86080, Note_on_c, 0, 53, 102
2, 86160, Note_on_c, 0, 53, 0
2, 86160, Note_on_c, 0, 50, 103
2, 86240, Note_on_c, 0, 50, 0
2, 86240, Note_on_c, 0, 53, 103
2, 86320, Note_on_c, 0, 53, 0
2, 86320, Note_on_c, 0, 50, 104
2, 86400, Note_on_c, 0, 50, 0
2, 86400, Note_on_c, 0, 51, 104
2, 86480, Note_on_c, 0, 51, 0
2, 86480, Note_on_c, 0, 55, 105
2, 86560, Note_on_c, 0, 55, 0
2, 86560, Note_on_c, 0, 51, 106
2, 86640, Note_on_c, 0, 51, 0
2, 86640, Note_on_c, 0, 46, 107
2, 86720, Note_on_c, 0, 46, 0
2, 86720, Note_on_c, 0, 51, 109
2, 86800, Note_on_c, 0, 51, 0
2, 86800, Note_on_c, 0, 46, 111
2, 86880, Note_on_c, 0, 46, 0
2, 86880, Note_on_c, 0, 43, 111
2, 86960, Note_on_c, 0, 43, 0
2, 86960, Note_on_c, 0, 46, 112
2, 87040, Note_on_c, 0, 46, 0
2, 87040, Note_on_c, 0, 43, 113
2, 87120, Note_on_c, 0, 43, 0
2, 87120, Note_on_c, 0, 44, 115
2, 87200, Note_on_c, 0, 44, 0
2, 87200, Note_on_c, 0, 46, 118
2, 87280, Note_on_c, 0, 46, 0
2, 87280, Note_on_c, 0, 44, 119
2, 87360, Note_on_c, 0, 44, 0
2, 87360, Note_on_c, 0, 41, 121
2, 87440, Note_on_c, 0, 41, 0
2, 87440, Note_on_c, 0, 44, 123
2, 87520, Note_on_c, 0, 44, 0
2, 87520, Note_on_c, 0, 41, 126
2, 87600, Note_on_c, 0, 41, 0
2, 87600, Note_on_c, 0, 38, 127
2, 87680, Note_on_c, 0, 38, 0
2, 87680, Note_on_c, 0, 41, 127
2, 87760, Note_on_c, 0, 41, 0
2, 87760, Note_on_c, 0, 38, 127
2, 87840, Note_on_c, 0, 38, 0
2, 88080, Note_on_c, 0, 51, 127
2, 88080, Note_on_c, 0, 39, 127
2, 88318, Note_on_c, 0, 51, 0
2, 88318, Note_on_c, 0, 39, 0
2, 88318, End_track
3, 0, Start_track
3, 0, Title_t, "2 main gauche"
3, 0, Program_c, 1, 1
3, 0, Control_c, 1, 10, 40
3, 0, Control_c, 1, 7, 80
3, 480, Note_on_c, 1, 51, 74
3, 720, Note_on_c, 1, 51, 0
3, 720, Note_on_c, 1, 51, 74
3, 1200, Note_on_c, 1, 51, 0
3, 1200, Note_on_c, 1, 51, 67
3, 1440, Note_on_c, 1, 51, 0
3, 1440, Note_on_c, 1, 51, 74
3, 1680, Note_on_c, 1, 51, 0
3, 1680, Note_on_c, 1, 51, 70
3, 1920, Note_on_c, 1, 51, 0
3, 1920, Note_on_c, 1, 51, 74
3, 2160, Note_on_c, 1, 51, 0
3, 2160, Note_on_c, 1, 56, 74
3, 2160, Note_on_c, 1, 46, 74
3, 2640, Note_on_c, 1, 56, 0
3, 2640, Note_on_c, 1, 46, 0
3, 2640, Note_on_c, 1, 56, 74
3, 2640, Note_on_c, 1, 46, 74
3, 2880, Note_on_c, 1, 56, 0
3, 2880, Note_on_c, 1, 46, 0
3, 2880, Note_on_c, 1, 51, 74
3, 3120, Note_on_c, 1, 51, 0
3, 3120, Note_on_c, 1, 39, 74
3, 3360, Note_on_c, 1, 39, 0
3, 3600, Note_on_c, 1, 39, 49
3, 3840, Note_on_c, 1, 39, 0
3, 3840, Note_on_c, 1, 51, 52
3, 4080, Note_on_c, 1, 51, 0
3, 4320, Note_on_c, 1, 39, 60
3, 4560, Note_on_c, 1, 39, 0
3, 4560, Note_on_c, 1, 51, 60
3, 4800, Note_on_c, 1, 51, 0
3, 5040, Note_on_c, 1, 50, 62
3, 5520, Note_on_c, 1, 50, 0
3, 5520, Note_on_c, 1, 51, 60
3, 5760, Note_on_c, 1, 51, 0
3, 5760, Note_on_c, 1, 58, 57
3, 6240, Note_on_c, 1, 58, 0
3, 6240, Note_on_c, 1, 51, 75
3, 6480, Note_on_c, 1, 51, 0
3, 6480, Note_on_c, 1, 51, 75
3, 6960, Note_on_c, 1, 51, 0
3, 6960, Note_on_c, 1, 51, 79
3, 7200, Note_on_c, 1, 51, 0
3, 7200, Note_on_c, 1, 51, 77
3, 7440, Note_on_c, 1, 51, 0
3, 7440, Note_on_c, 1, 51, 79
3, 7680, Note_on_c, 1, 51, 0
3, 7680, Note_on_c, 1, 51, 76
3, 7920, Note_on_c, 1, 51, 0
3, 7920, Note_on_c, 1, 56, 86
3, 7920, Note_on_c, 1, 46, 86
3, 8400, Note_on_c, 1, 56, 0
3, 8400, Note_on_c, 1, 46, 0
3, 8400, Note_on_c, 1, 56, 77
3, 8400, Note_on_c, 1, 46, 77
3, 8640, Note_on_c, 1, 56, 0
3, 8640, Note_on_c, 1, 46, 0
3, 8640, Note_on_c, 1, 51, 76
3, 8880, Note_on_c, 1, 51, 0
3, 8880, Note_on_c, 1, 39, 80
3, 9120, Note_on_c, 1, 39, 0
3, 9360, Note_on_c, 1, 39, 58
3, 9600, Note_on_c, 1, 39, 0
3, 9600, Note_on_c, 1, 51, 60
3, 9840, Note_on_c, 1, 51, 0
3, 10080, Note_on_c, 1, 39, 62
3, 10320, Note_on_c, 1, 39, 0
3, 10320, Note_on_c, 1, 51, 62
3, 10560, Note_on_c, 1, 51, 0
3, 10800, Note_on_c, 1, 50, 62
3, 11280, Note_on_c, 1, 50, 0
3, 11280, Note_on_c, 1, 51, 56
3, 11520, Note_on_c, 1, 51, 0
3, 11520, Note_on_c, 1, 58, 48
3, 12000, Note_on_c, 1, 58, 0
3, 12000, Note_on_c, 1, 55, 51
3, 12000, Note_on_c, 1, 51, 51
3, 12180, Note_on_c, 1, 55, 0
3, 12180, Note_on_c, 1, 51, 0
3, 12180, Note_on_c, 1, 55, 52
3, 12180, Note_on_c, 1, 51, 52
3, 12240, Note_on_c, 1, 55, 0
3, 12240, Note_on_c, 1, 51, 0
3, 12240, Note_on_c, 1, 55, 53
3, 12240, Note_on_c, 1, 51, 53
3, 12480, Note_on_c, 1, 55, 0
3, 12480, Note_on_c, 1, 51, 0
3, 12480, Note_on_c, 1, 55, 55
3, 12480, Note_on_c, 1, 51, 55
3, 12720, Note_on_c, 1, 55, 0
3, 12720, Note_on_c, 1, 51, 0
3, 12720, Note_on_c, 1, 55, 56
3, 12720, Note_on_c, 1, 51, 56
3, 12960, Note_on_c, 1, 55, 0
3, 12960, Note_on_c, 1, 51, 0
3, 12960, Note_on_c, 1, 55, 61
3, 12960, Note_on_c, 1, 48, 61
3, 13200, Note_on_c, 1, 55, 0
3, 13200, Note_on_c, 1, 48, 0
3, 13200, Note_on_c, 1, 55, 64
3, 13200, Note_on_c, 1, 48, 64
3, 13440, Note_on_c, 1, 55, 0
3, 13440, Note_on_c, 1, 48, 0
3, 13440, Note_on_c, 1, 55, 65
3, 13440, Note_on_c, 1, 48, 65
3, 13680, Note_on_c, 1, 55, 0
3, 13680, Note_on_c, 1, 48, 0
3, 13680, Note_on_c, 1, 53, 67
3, 13680, Note_on_c, 1, 47, 67
3, 13920, Note_on_c, 1, 53, 0
3, 13920, Note_on_c, 1, 47, 0
3, 13920, Note_on_c, 1, 53, 72
3, 13920, Note_on_c, 1, 47, 72
3, 14160, Note_on_c, 1, 53, 0
3, 14160, Note_on_c, 1, 47, 0
3, 14160, Note_on_c, 1, 53, 72
3, 14160, Note_on_c, 1, 47, 72
3, 14400, Note_on_c, 1, 53, 0
3, 14400, Note_on_c, 1, 47, 0
3, 14400, Note_on_c, 1, 51, 79
3, 14400, Note_on_c, 1, 48, 79
3, 14640, Note_on_c, 1, 51, 0
3, 14640, Note_on_c, 1, 48, 0
3, 14640, Note_on_c, 1, 51, 77
3, 14640, Note_on_c, 1, 48, 77
3, 14880, Note_on_c, 1, 51, 0
3, 14880, Note_on_c, 1, 48, 0
3, 14880, Note_on_c, 1, 51, 78
3, 14880, Note_on_c, 1, 48, 78
3, 15120, Note_on_c, 1, 51, 0
3, 15120, Note_on_c, 1, 48, 0
3, 15120, Note_on_c, 1, 56, 82
3, 15120, Note_on_c, 1, 53, 82
3, 15120, Note_on_c, 1, 46, 82
3, 15360, Note_on_c, 1, 56, 0
3, 15360, Note_on_c, 1, 53, 0
3, 15360, Note_on_c, 1, 46, 0
3, 15360, Note_on_c, 1, 56, 80
3, 15360, Note_on_c, 1, 53, 80
3, 15360, Note_on_c, 1, 46, 80
3, 15600, Note_on_c, 1, 56, 0
3, 15600, Note_on_c, 1, 53, 0
3, 15600, Note_on_c, 1, 46, 0
3, 15600, Note_on_c, 1, 56, 78
3, 15600, Note_on_c, 1, 53, 78
3, 15600, Note_on_c, 1, 46, 78
3, 15840, Note_on_c, 1, 56, 0
3, 15840, Note_on_c, 1, 53, 0
3, 15840, Note_on_c, 1, 46, 0
3, 15840, Note_on_c, 1, 55, 96
3, 15840, Note_on_c, 1, 51, 96
3, 16080, Note_on_c, 1, 55, 0
3, 16080, Note_on_c, 1, 51, 0
3, 16080, Note_on_c, 1, 55, 88
3, 16080, Note_on_c, 1, 51, 88
3, 16320, Note_on_c, 1, 55, 0
3, 16320, Note_on_c, 1, 51, 0
3, 16320, Note_on_c, 1, 56, 91
3, 16320, Note_on_c, 1, 53, 91
3, 16320, Note_on_c, 1, 46, 91
3, 16560, Note_on_c, 1, 56, 0
3, 16560, Note_on_c, 1, 53, 0
3, 16560, Note_on_c, 1, 46, 0
3, 16560, Note_on_c, 1, 55, 93
3, 16560, Note_on_c, 1, 51, 93
3, 17040, Note_on_c, 1, 55, 0
3, 17040, Note_on_c, 1, 51, 0
3, 17040, Note_on_c, 1, 55, 47
3, 17040, Note_on_c, 1, 51, 47
3, 17220, Note_on_c, 1, 55, 0
3, 17220, Note_on_c, 1, 51, 0
3, 17220, Note_on_c, 1, 55, 50
3, 17220, Note_on_c, 1, 51, 50
3, 17280, Note_on_c, 1, 55, 0
3, 17280, Note_on_c, 1, 51, 0
3, 17280, Note_on_c, 1, 55, 51
3, 17280, Note_on_c, 1, 51, 51
3, 17520, Note_on_c, 1, 55, 0
3, 17520, Note_on_c, 1, 51, 0
3, 17520, Note_on_c, 1, 55, 56
3, 17520, Note_on_c, 1, 51, 56
3, 17760, Note_on_c, 1, 55, 0
3, 17760, Note_on_c, 1, 51, 0
3, 17760, Note_on_c, 1, 55, 58
3, 17760, Note_on_c, 1, 51, 58
3, 18000, Note_on_c, 1, 55, 0
3, 18000, Note_on_c, 1, 51, 0
3, 18000, Note_on_c, 1, 55, 58
3, 18000, Note_on_c, 1, 48, 58
3, 18240, Note_on_c, 1, 55, 0
3, 18240, Note_on_c, 1, 48, 0
3, 18240, Note_on_c, 1, 55, 60
3, 18240, Note_on_c, 1, 48, 60
3, 18480, Note_on_c, 1, 55, 0
3, 18480, Note_on_c, 1, 48, 0
3, 18480, Note_on_c, 1, 55, 62
3, 18480, Note_on_c, 1, 48, 62
3, 18720, Note_on_c, 1, 55, 0
3, 18720, Note_on_c, 1, 48, 0
3, 18720, Note_on_c, 1, 53, 62
3, 18720, Note_on_c, 1, 47, 62
3, 18960, Note_on_c, 1, 53, 0
3, 18960, Note_on_c, 1, 47, 0
3, 18960, Note_on_c, 1, 53, 62
3, 18960, Note_on_c, 1, 47, 62
3, 19200, Note_on_c, 1, 53, 0
3, 19200, Note_on_c, 1, 47, 0
3, 19200, Note_on_c, 1, 53, 62
3, 19200, Note_on_c, 1, 47, 62
3, 19440, Note_on_c, 1, 53, 0
3, 19440, Note_on_c, 1, 47, 0
3, 19440, Note_on_c, 1, 51, 62
3, 19440, Note_on_c, 1, 48, 62
3, 19680, Note_on_c, 1, 51, 0
3, 19680, Note_on_c, 1, 48, 0
3, 19680, Note_on_c, 1, 51, 65
3, 19680, Note_on_c, 1, 48, 65
3, 19920, Note_on_c, 1, 51, 0
3, 19920, Note_on_c, 1, 48, 0
3, 19920, Note_on_c, 1, 51, 66
3, 19920, Note_on_c, 1, 48, 66
3, 20160, Note_on_c, 1, 51, 0
3, 20160, Note_on_c, 1, 48, 0
3, 20160, Note_on_c, 1, 56, 66
3, 20160, Note_on_c, 1, 53, 66
3, 20160, Note_on_c, 1, 46, 66
3, 20400, Note_on_c, 1, 56, 0
3, 20400, Note_on_c, 1, 53, 0
3, 20400, Note_on_c, 1, 46, 0
3, 20400, Note_on_c, 1, 56, 70
3, 20400, Note_on_c, 1, 53, 70
3, 20400, Note_on_c, 1, 46, 70
3, 20640, Note_on_c, 1, 56, 0
3, 20640, Note_on_c, 1, 53, 0
3, 20640, Note_on_c, 1, 46, 0
3, 20640, Note_on_c, 1, 56, 71
3, 20640, Note_on_c, 1, 53, 71
3, 20640, Note_on_c, 1, 46, 71
3, 20880, Note_on_c, 1, 56, 0
3, 20880, Note_on_c, 1, 53, 0
3, 20880, Note_on_c, 1, 46, 0
3, 20880, Note_on_c, 1, 55, 78
3, 20880, Note_on_c, 1, 51, 78
3, 21120, Note_on_c, 1, 55, 0
3, 21120, Note_on_c, 1, 51, 0
3, 21120, Note_on_c, 1, 55, 79
3, 21120, Note_on_c, 1, 51, 79
3, 21360, Note_on_c, 1, 55, 0
3, 21360, Note_on_c, 1, 51, 0
3, 21360, Note_on_c, 1, 56, 84
3, 21360, Note_on_c, 1, 53, 84
3, 21360, Note_on_c, 1, 46, 84
3, 21600, Note_on_c, 1, 56, 0
3, 21600, Note_on_c, 1, 53, 0
3, 21600, Note_on_c, 1, 46, 0
3, 21600, Note_on_c, 1, 55, 87
3, 21600, Note_on_c, 1, 51, 87
3, 22080, Note_on_c, 1, 55, 0
3, 22080, Note_on_c, 1, 51, 0
3, 27360, Note_on_c, 1, 66, 64
3, 27360, Note_on_c, 1, 63, 64
3, 27360, Note_on_c, 1, 59, 64
3, 27600, Note_on_c, 1, 66, 0
3, 27600, Note_on_c, 1, 63, 0
3, 27600, Note_on_c, 1, 59, 0
3, 27600, Note_on_c, 1, 66, 49
3, 27600, Note_on_c, 1, 63, 49
3, 27600, Note_on_c, 1, 59, 49
3, 27840, Note_on_c, 1, 66, 0
3, 27840, Note_on_c, 1, 63, 0
3, 27840, Note_on_c, 1, 59, 0
3, 27840, Note_on_c, 1, 66, 53
3, 27840, Note_on_c, 1, 63, 53
3, 27840, Note_on_c, 1, 59, 53
3, 28080, Note_on_c, 1, 66, 0
3, 28080, Note_on_c, 1, 63, 0
3, 28080, Note_on_c, 1, 59, 0
3, 28080, Note_on_c, 1, 66, 53
3, 28080, Note_on_c, 1, 63, 53
3, 28080, Note_on_c, 1, 59, 53
3, 28320, Note_on_c, 1, 66, 0
3, 28320, Note_on_c, 1, 63, 0
3, 28320, Note_on_c, 1, 59, 0
3, 28320, Note_on_c, 1, 66, 54
3, 28320, Note_on_c, 1, 63, 54
3, 28320, Note_on_c, 1, 59, 54
3, 28560, Note_on_c, 1, 66, 0
3, 28560, Note_on_c, 1, 63, 0
3, 28560, Note_on_c, 1, 59, 0
3, 28560, Note_on_c, 1, 66, 56
3, 28560, Note_on_c, 1, 63, 56
3, 28560, Note_on_c, 1, 59, 56
3, 28800, Note_on_c, 1, 66, 0
3, 28800, Note_on_c, 1, 63, 0
3, 28800, Note_on_c, 1, 59, 0
3, 28800, Note_on_c, 1, 66, 62
3, 28800, Note_on_c, 1, 63, 62
3, 28800, Note_on_c, 1, 59, 62
3, 29040, Note_on_c, 1, 66, 0
3, 29040, Note_on_c, 1, 63, 0
3, 29040, Note_on_c, 1, 59, 0
3, 29040, Note_on_c, 1, 66, 66
3, 29040, Note_on_c, 1, 63, 66
3, 29040, Note_on_c, 1, 59, 66
3, 29280, Note_on_c, 1, 66, 0
3, 29280, Note_on_c, 1, 63, 0
3, 29280, Note_on_c, 1, 59, 0
3, 29280, Note_on_c, 1, 66, 67
3, 29280, Note_on_c, 1, 63, 67
3, 29280, Note_on_c, 1, 59, 67
3, 29520, Note_on_c, 1, 66, 0
3, 29520, Note_on_c, 1, 63, 0
3, 29520, Note_on_c, 1, 59, 0
3, 29520, Note_on_c, 1, 66, 67
3, 29520, Note_on_c, 1, 63, 67
3, 29520, Note_on_c, 1, 59, 67
3, 29760, Note_on_c, 1, 66, 0
3, 29760, Note_on_c, 1, 63, 0
3, 29760, Note_on_c, 1, 59, 0
3, 29760, Note_on_c, 1, 66, 74
3, 29760, Note_on_c, 1, 63, 74
3, 29760, Note_on_c, 1, 59, 74
3, 30000, Note_on_c, 1, 66, 0
3, 30000, Note_on_c, 1, 63, 0
3, 30000, Note_on_c, 1, 59, 0
3, 30000, Note_on_c, 1, 66, 79
3, 30000, Note_on_c, 1, 63, 79
3, 30000, Note_on_c, 1, 59, 79
3, 30238, Note_on_c, 1, 66, 0
3, 30238, Note_on_c, 1, 63, 0
3, 30238, Note_on_c, 1, 59, 0
3, 30240, Note_on_c, 1, 67, 83
3, 30240, Note_on_c, 1, 63, 83
3, 30240, Note_on_c, 1, 58, 83
3, 30480, Note_on_c, 1, 67, 0
3, 30480, Note_on_c, 1, 63, 0
3, 30480, Note_on_c, 1, 58, 0
3, 30480, Note_on_c, 1, 67, 93
3, 30480, Note_on_c, 1, 63, 93
3, 30480, Note_on_c, 1, 58, 93
3, 30720, Note_on_c, 1, 67, 0
3, 30720, Note_on_c, 1, 63, 0
3, 30720, Note_on_c, 1, 58, 0
3, 30720, Note_on_c, 1, 67, 95
3, 30720, Note_on_c, 1, 63, 95
3, 30720, Note_on_c, 1, 58, 95
3, 30960, Note_on_c, 1, 67, 0
3, 30960, Note_on_c, 1, 63, 0
3, 30960, Note_on_c, 1, 58, 0
3, 30960, Note_on_c, 1, 67, 92
3, 30960, Note_on_c, 1, 63, 92
3, 30960, Note_on_c, 1, 58, 92
3, 31200, Note_on_c, 1, 67, 0
3, 31200, Note_on_c, 1, 63, 0
3, 31200, Note_on_c, 1, 58, 0
3, 31200, Note_on_c, 1, 67, 81
3, 31200, Note_on_c, 1, 63, 81
3, 31200, Note_on_c, 1, 58, 81
3, 31440, Note_on_c, 1, 67, 0
3, 31440, Note_on_c, 1, 63, 0
3, 31440, Note_on_c, 1, 58, 0
3, 31440, Note_on_c, 1, 67, 76
3, 31440, Note_on_c, 1, 63, 76
3, 31440, Note_on_c, 1, 58, 76
3, 31680, Note_on_c, 1, 67, 0
3, 31680, Note_on_c, 1, 63, 0
3, 31680, Note_on_c, 1, 58, 0
3, 31680, Note_on_c, 1, 67, 72
3, 31680, Note_on_c, 1, 63, 72
3, 31680, Note_on_c, 1, 58, 72
3, 31920, Note_on_c, 1, 67, 0
3, 31920, Note_on_c, 1, 63, 0
3, 31920, Note_on_c, 1, 58, 0
3, 31920, Note_on_c, 1, 67, 69
3, 31920, Note_on_c, 1, 63, 69
3, 31920, Note_on_c, 1, 58, 69
3, 32160, Note_on_c, 1, 67, 0
3, 32160, Note_on_c, 1, 63, 0
3, 32160, Note_on_c, 1, 58, 0
3, 32160, Note_on_c, 1, 67, 66
3, 32160, Note_on_c, 1, 63, 66
3, 32160, Note_on_c, 1, 58, 66
3, 32400, Note_on_c, 1, 67, 0
3, 32400, Note_on_c, 1, 63, 0
3, 32400, Note_on_c, 1, 58, 0
3, 32400, Note_on_c, 1, 68, 69
3, 32400, Note_on_c, 1, 65, 69
3, 32400, Note_on_c, 1, 58, 69
3, 32640, Note_on_c, 1, 68, 0
3, 32640, Note_on_c, 1, 65, 0
3, 32640, Note_on_c, 1, 58, 0
3, 32640, Note_on_c, 1, 68, 66
3, 32640, Note_on_c, 1, 65, 66
3, 32640, Note_on_c, 1, 58, 66
3, 32880, Note_on_c, 1, 68, 0
3, 32880, Note_on_c, 1, 65, 0
3, 32880, Note_on_c, 1, 58, 0
3, 32880, Note_on_c, 1, 68, 62
3, 32880, Note_on_c, 1, 65, 62
3, 32880, Note_on_c, 1, 58, 62
3, 33120, Note_on_c, 1, 68, 0
3, 33120, Note_on_c, 1, 65, 0
3, 33120, Note_on_c, 1, 58, 0
3, 33120, Note_on_c, 1, 67, 65
3, 33120, Note_on_c, 1, 63, 65
3, 33360, Note_on_c, 1, 67, 0
3, 33360, Note_on_c, 1, 63, 0
3, 33360, Note_on_c, 1, 51, 109
3, 33600, Note_on_c, 1, 51, 0
3, 33600, Note_on_c, 1, 51, 99
3, 33840, Note_on_c, 1, 51, 0
3, 33840, Note_on_c, 1, 51, 100
3, 34080, Note_on_c, 1, 51, 0
3, 34080, Note_on_c, 1, 51, 98
3, 34320, Note_on_c, 1, 51, 0
3, 34320, Note_on_c, 1, 51, 101
3, 34560, Note_on_c, 1, 51, 0
3, 34560, Note_on_c, 1, 46, 102
3, 34560, Note_on_c, 1, 34, 102
3, 34800, Note_on_c, 1, 46, 0
3, 34800, Note_on_c, 1, 34, 0
3, 34800, Note_on_c, 1, 50, 100
3, 35040, Note_on_c, 1, 50, 0
3, 35040, Note_on_c, 1, 53, 98
3, 35280, Note_on_c, 1, 53, 0
3, 35280, Note_on_c, 1, 58, 98
3, 35520, Note_on_c, 1, 58, 0
3, 35520, Note_on_c, 1, 62, 95
3, 35760, Note_on_c, 1, 62, 0
3, 35760, Note_on_c, 1, 58, 94
3, 36000, Note_on_c, 1, 58, 0
3, 36000, Note_on_c, 1, 63, 98
3, 36000, Note_on_c, 1, 51, 98
3, 36240, Note_on_c, 1, 63, 0
3, 36240, Note_on_c, 1, 51, 0
3, 36240, Note_on_c, 1, 51, 96
3, 36480, Note_on_c, 1, 51, 0
3, 36480, Note_on_c, 1, 51, 93
3, 36720, Note_on_c, 1, 51, 0
3, 36720, Note_on_c, 1, 51, 97
3, 36960, Note_on_c, 1, 51, 0
3, 36960, Note_on_c, 1, 51, 93
3, 37200, Note_on_c, 1, 51, 0
3, 37200, Note_on_c, 1, 51, 95
3, 37440, Note_on_c, 1, 51, 0
3, 37440, Note_on_c, 1, 46, 99
3, 37440, Note_on_c, 1, 34, 99
3, 37680, Note_on_c, 1, 46, 0
3, 37680, Note_on_c, 1, 34, 0
3, 37680, Note_on_c, 1, 50, 92
3, 37920, Note_on_c, 1, 50, 0
3, 37920, Note_on_c, 1, 53, 93
3, 38160, Note_on_c, 1, 53, 0
3, 38160, Note_on_c, 1, 58, 91
3, 38400, Note_on_c, 1, 58, 0
3, 38400, Note_on_c, 1, 62, 92
3, 38640, Note_on_c, 1, 62, 0
3, 38640, Note_on_c, 1, 58, 91
3, 38880, Note_on_c, 1, 58, 0
3, 38880, Note_on_c, 1, 51, 90
3, 39120, Note_on_c, 1, 51, 0
3, 39120, Note_on_c, 1, 51, 92
3, 39360, Note_on_c, 1, 51, 0
3, 39360, Note_on_c, 1, 46, 91
3, 39600, Note_on_c, 1, 46, 0
3, 39600, Note_on_c, 1, 51, 89
3, 39840, Note_on_c, 1, 51, 0
3, 39840, Note_on_c, 1, 46, 88
3, 40080, Note_on_c, 1, 46, 0
3, 40080, Note_on_c, 1, 43, 93
3, 40320, Note_on_c, 1, 43, 0
3, 40320, Note_on_c, 1, 39, 96
3, 40560, Note_on_c, 1, 39, 0
3, 40560, Note_on_c, 1, 51, 93
3, 40800, Note_on_c, 1, 51, 0
3, 46080, Note_on_c, 1, 66, 61
3, 46080, Note_on_c, 1, 63, 61
3, 46080, Note_on_c, 1, 59, 61
3, 46320, Note_on_c, 1, 66, 0
3, 46320, Note_on_c, 1, 63, 0
3, 46320, Note_on_c, 1, 59, 0
3, 46320, Note_on_c, 1, 66, 39
3, 46320, Note_on_c, 1, 63, 39
3, 46320, Note_on_c, 1, 59, 39
3, 46560, Note_on_c, 1, 66, 0
3, 46560, Note_on_c, 1, 63, 0
3, 46560, Note_on_c, 1, 59, 0
3, 46560, Note_on_c, 1, 66, 44
3, 46560, Note_on_c, 1, 63, 44
3, 46560, Note_on_c, 1, 59, 44
3, 46800, Note_on_c, 1, 66, 0
3, 46800, Note_on_c, 1, 63, 0
3, 46800, Note_on_c, 1, 59, 0
3, 46800, Note_on_c, 1, 66, 66
3, 46800, Note_on_c, 1, 63, 66
3, 46800, Note_on_c, 1, 59, 66
3, 47040, Note_on_c, 1, 66, 0
3, 47040, Note_on_c, 1, 63, 0
3, 47040, Note_on_c, 1, 59, 0
3, 47040, Note_on_c, 1, 66, 68
3, 47040, Note_on_c, 1, 63, 68
3, 47040, Note_on_c, 1, 59, 68
3, 47280, Note_on_c, 1, 66, 0
3, 47280, Note_on_c, 1, 63, 0
3, 47280, Note_on_c, 1, 59, 0
3, 47280, Note_on_c, 1, 66, 71
3, 47280, Note_on_c, 1, 63, 71
3, 47280, Note_on_c, 1, 59, 71
3, 47520, Note_on_c, 1, 66, 0
3, 47520, Note_on_c, 1, 63, 0
3, 47520, Note_on_c, 1, 59, 0
3, 47520, Note_on_c, 1, 66, 80
3, 47520, Note_on_c, 1, 63, 80
3, 47520, Note_on_c, 1, 59, 80
3, 47760, Note_on_c, 1, 66, 0
3, 47760, Note_on_c, 1, 63, 0
3, 47760, Note_on_c, 1, 59, 0
3, 47760, Note_on_c, 1, 66, 76
3, 47760, Note_on_c, 1, 63, 76
3, 47760, Note_on_c, 1, 59, 76
3, 48000, Note_on_c, 1, 66, 0
3, 48000, Note_on_c, 1, 63, 0
3, 48000, Note_on_c, 1, 59, 0
3, 48000, Note_on_c, 1, 66, 87
3, 48000, Note_on_c, 1, 63, 87
3, 48000, Note_on_c, 1, 59, 87
3, 48240, Note_on_c, 1, 66, 0
3, 48240, Note_on_c, 1, 63, 0
3, 48240, Note_on_c, 1, 59, 0
3, 48240, Note_on_c, 1, 66, 97
3, 48240, Note_on_c, 1, 63, 97
3, 48240, Note_on_c, 1, 59, 97
3, 48480, Note_on_c, 1, 66, 0
3, 48480, Note_on_c, 1, 63, 0
3, 48480, Note_on_c, 1, 59, 0
3, 48480, Note_on_c, 1, 66, 84
3, 48480, Note_on_c, 1, 63, 84
3, 48480, Note_on_c, 1, 59, 84
3, 48720, Note_on_c, 1, 66, 0
3, 48720, Note_on_c, 1, 63, 0
3, 48720, Note_on_c, 1, 59, 0
3, 48720, Note_on_c, 1, 66, 85
3, 48720, Note_on_c, 1, 63, 85
3, 48720, Note_on_c, 1, 59, 85
3, 48958, Note_on_c, 1, 66, 0
3, 48958, Note_on_c, 1, 63, 0
3, 48958, Note_on_c, 1, 59, 0
3, 48960, Note_on_c, 1, 67, 96
3, 48960, Note_on_c, 1, 63, 96
3, 48960, Note_on_c, 1, 58, 96
3, 49200, Note_on_c, 1, 67, 0
3, 49200, Note_on_c, 1, 63, 0
3, 49200, Note_on_c, 1, 58, 0
3, 49200, Note_on_c, 1, 67, 97
3, 49200, Note_on_c, 1, 63, 97
3, 49200, Note_on_c, 1, 58, 97
3, 49440, Note_on_c, 1, 67, 0
3, 49440, Note_on_c, 1, 63, 0
3, 49440, Note_on_c, 1, 58, 0
3, 49440, Note_on_c, 1, 67, 97
3, 49440, Note_on_c, 1, 63, 97
3, 49440, Note_on_c, 1, 58, 97
3, 49680, Note_on_c, 1, 67, 0
3, 49680, Note_on_c, 1, 63, 0
3, 49680, Note_on_c, 1, 58, 0
3, 49680, Note_on_c, 1, 67, 111
3, 49680, Note_on_c, 1, 63, 111
3, 49680, Note_on_c, 1, 58, 111
3, 49920, Note_on_c, 1, 67, 0
3, 49920, Note_on_c, 1, 63, 0
3, 49920, Note_on_c, 1, 58, 0
3, 49920, Note_on_c, 1, 67, 93
3, 49920, Note_on_c, 1, 63, 93
3, 49920, Note_on_c, 1, 58, 93
3, 50160, Note_on_c, 1, 67, 0
3, 50160, Note_on_c, 1, 63, 0
3, 50160, Note_on_c, 1, 58, 0
3, 50160, Note_on_c, 1, 67, 78
3, 50160, Note_on_c, 1, 63, 78
3, 50160, Note_on_c, 1, 58, 78
3, 50400, Note_on_c, 1, 67, 0
3, 50400, Note_on_c, 1, 63, 0
3, 50400, Note_on_c, 1, 58, 0
3, 50400, Note_on_c, 1, 67, 86
3, 50400, Note_on_c, 1, 63, 86
3, 50400, Note_on_c, 1, 58, 86
3, 50640, Note_on_c, 1, 67, 0
3, 50640, Note_on_c, 1, 63, 0
3, 50640, Note_on_c, 1, 58, 0
3, 50640, Note_on_c, 1, 67, 78
3, 50640, Note_on_c, 1, 63, 78
3, 50640, Note_on_c, 1, 58, 78
3, 50880, Note_on_c, 1, 67, 0
3, 50880, Note_on_c, 1, 63, 0
3, 50880, Note_on_c, 1, 58, 0
3, 50880, Note_on_c, 1, 67, 83
3, 50880, Note_on_c, 1, 63, 83
3, 50880, Note_on_c, 1, 58, 83
3, 51120, Note_on_c, 1, 67, 0
3, 51120, Note_on_c, 1, 63, 0
3, 51120, Note_on_c, 1, 58, 0
3, 51120, Note_on_c, 1, 68, 87
3, 51120, Note_on_c, 1, 65, 87
3, 51120, Note_on_c, 1, 58, 87
3, 51360, Note_on_c, 1, 68, 0
3, 51360, Note_on_c, 1, 65, 0
3, 51360, Note_on_c, 1, 58, 0
3, 51360, Note_on_c, 1, 68, 84
3, 51360, Note_on_c, 1, 65, 84
3, 51360, Note_on_c, 1, 58, 84
3, 51600, Note_on_c, 1, 68, 0
3, 51600, Note_on_c, 1, 65, 0
3, 51600, Note_on_c, 1, 58, 0
3, 51600, Note_on_c, 1, 68, 81
3, 51600, Note_on_c, 1, 65, 81
3, 51600, Note_on_c, 1, 58, 81
3, 51840, Note_on_c, 1, 68, 0
3, 51840, Note_on_c, 1, 65, 0
3, 51840, Note_on_c, 1, 58, 0
3, 51840, Note_on_c, 1, 67, 94
3, 51840, Note_on_c, 1, 63, 94
3, 52080, Note_on_c, 1, 67, 0
3, 52080, Note_on_c, 1, 63, 0
3, 52080, Note_on_c, 1, 51, 85
3, 52320, Note_on_c, 1, 51, 0
3, 52320, Note_on_c, 1, 51, 89
3, 52560, Note_on_c, 1, 51, 0
3, 52560, Note_on_c, 1, 51, 99
3, 52800, Note_on_c, 1, 51, 0
3, 52800, Note_on_c, 1, 51, 84
3, 53040, Note_on_c, 1, 51, 0
3, 53040, Note_on_c, 1, 51, 84
3, 53280, Note_on_c, 1, 51, 0
3, 53280, Note_on_c, 1, 46, 91
3, 53280, Note_on_c, 1, 34, 91
3, 53520, Note_on_c, 1, 46, 0
3, 53520, Note_on_c, 1, 34, 0
3, 53520, Note_on_c, 1, 50, 82
3, 53760, Note_on_c, 1, 50, 0
3, 53760, Note_on_c, 1, 53, 83
3, 54000, Note_on_c, 1, 53, 0
3, 54000, Note_on_c, 1, 58, 91
3, 54240, Note_on_c, 1, 58, 0
3, 54240, Note_on_c, 1, 62, 79
3, 54480, Note_on_c, 1, 62, 0
3, 54480, Note_on_c, 1, 58, 82
3, 54720, Note_on_c, 1, 58, 0
3, 54720, Note_on_c, 1, 63, 89
3, 54720, Note_on_c, 1, 51, 89
3, 54960, Note_on_c, 1, 63, 0
3, 54960, Note_on_c, 1, 51, 0
3, 54960, Note_on_c, 1, 51, 81
3, 55200, Note_on_c, 1, 51, 0
3, 55200, Note_on_c, 1, 51, 81
3, 55440, Note_on_c, 1, 51, 0
3, 55440, Note_on_c, 1, 51, 89
3, 55680, Note_on_c, 1, 51, 0
3, 55680, Note_on_c, 1, 51, 81
3, 55920, Note_on_c, 1, 51, 0
3, 55920, Note_on_c, 1, 51, 78
3, 56160, Note_on_c, 1, 51, 0
3, 56160, Note_on_c, 1, 46, 90
3, 56160, Note_on_c, 1, 34, 90
3, 56400, Note_on_c, 1, 46, 0
3, 56400, Note_on_c, 1, 34, 0
3, 56400, Note_on_c, 1, 50, 78
3, 56640, Note_on_c, 1, 50, 0
3, 56640, Note_on_c, 1, 53, 78
3, 56880, Note_on_c, 1, 53, 0
3, 56880, Note_on_c, 1, 58, 91
3, 57120, Note_on_c, 1, 58, 0
3, 57120, Note_on_c, 1, 62, 81
3, 57360, Note_on_c, 1, 62, 0
3, 57360, Note_on_c, 1, 58, 77
3, 57600, Note_on_c, 1, 58, 0
3, 57600, Note_on_c, 1, 51, 85
3, 57840, Note_on_c, 1, 51, 0
3, 57840, Note_on_c, 1, 51, 81
3, 58080, Note_on_c, 1, 51, 0
3, 58080, Note_on_c, 1, 46, 82
3, 58320, Note_on_c, 1, 46, 0
3, 58320, Note_on_c, 1, 51, 80
3, 58560, Note_on_c, 1, 51, 0
3, 58560, Note_on_c, 1, 46, 77
3, 58800, Note_on_c, 1, 46, 0
3, 58800, Note_on_c, 1, 43, 79
3, 59040, Note_on_c, 1, 43, 0
3, 59040, Note_on_c, 1, 39, 81
3, 59280, Note_on_c, 1, 39, 0
3, 59280, Note_on_c, 1, 51, 78
3, 59520, Note_on_c, 1, 51, 0
3, 59760, Note_on_c, 1, 51, 77
3, 60480, Note_on_c, 1, 51, 0
3, 60480, Note_on_c, 1, 51, 98
3, 61200, Note_on_c, 1, 51, 0
3, 61200, Note_on_c, 1, 39, 91
3, 61202, Control_c, 1, 64, 127
3, 61920, Note_on_c, 1, 39, 0
3, 61920, Note_on_c, 1, 51, 89
3, 62636, Control_c, 1, 64, 0
3, 62640, Control_c, 1, 64, 127
3, 62640, Note_on_c, 1, 51, 0
3, 62640, Note_on_c, 1, 34, 87
3, 62880, Note_on_c, 1, 34, 0
3, 62880, Note_on_c, 1, 46, 87
3, 63120, Note_on_c, 1, 46, 0
3, 63120, Note_on_c, 1, 46, 87
3, 63360, Note_on_c, 1, 46, 0
3, 63360, Note_on_c, 1, 34, 86
3, 63600, Note_on_c, 1, 34, 0
3, 63600, Note_on_c, 1, 46, 85
3, 63840, Note_on_c, 1, 46, 0
3, 63840, Note_on_c, 1, 46, 84
3, 64076, Control_c, 1, 64, 0
3, 64080, Control_c, 1, 64, 127
3, 64080, Note_on_c, 1, 46, 0
3, 64080, Note_on_c, 1, 39, 81
3, 64800, Note_on_c, 1, 39, 0
3, 64800, Note_on_c, 1, 51, 82
3, 65516, Control_c, 1, 64, 0
3, 65520, Note_on_c, 1, 51, 0
3, 65520, Note_on_c, 1, 34, 81
3, 65522, Control_c, 1, 64, 127
3, 65760, Note_on_c, 1, 34, 0
3, 65760, Note_on_c, 1, 46, 78
3, 66000, Note_on_c, 1, 46, 0
3, 66000, Note_on_c, 1, 46, 78
3, 66240, Note_on_c, 1, 46, 0
3, 66240, Note_on_c, 1, 34, 79
3, 66480, Note_on_c, 1, 34, 0
3, 66480, Note_on_c, 1, 46, 82
3, 66720, Note_on_c, 1, 46, 0
3, 66720, Note_on_c, 1, 46, 82
3, 66956, Control_c, 1, 64, 0
3, 66960, Control_c, 1, 64, 127
3, 66960, Note_on_c, 1, 46, 0
3, 66960, Note_on_c, 1, 39, 82
3, 67200, Note_on_c, 1, 39, 0
3, 67200, Note_on_c, 1, 51, 81
3, 67440, Note_on_c, 1, 51, 0
3, 67440, Note_on_c, 1, 46, 82
3, 67676, Control_c, 1, 64, 0
3, 67680, Control_c, 1, 64, 127
3, 67680, Note_on_c, 1, 46, 0
3, 67680, Note_on_c, 1, 51, 82
3, 67920, Note_on_c, 1, 51, 0
3, 67920, Note_on_c, 1, 39, 78
3, 68156, Control_c, 1, 64, 0
3, 68160, Note_on_c, 1, 39, 0
3, 68400, Note_on_c, 1, 51, 78
3, 69120, Note_on_c, 1, 51, 0
3, 69120, Note_on_c, 1, 51, 94
3, 69840, Note_on_c, 1, 51, 0
3, 69840, Note_on_c, 1, 39, 99
3, 69842, Control_c, 1, 64, 127
3, 70560, Note_on_c, 1, 39, 0
3, 70560, Note_on_c, 1, 51, 90
3, 71276, Control_c, 1, 64, 0
3, 71280, Control_c, 1, 64, 127
3, 71280, Note_on_c, 1, 51, 0
3, 71280, Note_on_c, 1, 34, 89
3, 71520, Note_on_c, 1, 34, 0
3, 71520, Note_on_c, 1, 46, 90
3, 71760, Note_on_c, 1, 46, 0
3, 71760, Note_on_c, 1, 46, 88
3, 72000, Note_on_c, 1, 46, 0
3, 72000, Note_on_c, 1, 34, 89
3, 72240, Note_on_c, 1, 34, 0
3, 72240, Note_on_c, 1, 46, 89
3, 72480, Note_on_c, 1, 46, 0
3, 72480, Note_on_c, 1, 46, 90
3, 72716, Control_c, 1, 64, 0
3, 72720, Control_c, 1, 64, 127
3, 72720, Note_on_c, 1, 46, 0
3, 72720, Note_on_c, 1, 39, 90
3, 73440, Note_on_c, 1, 39, 0
3, 73440, Note_on_c, 1, 51, 89
3, 74156, Control_c, 1, 64, 0
3, 74160, Note_on_c, 1, 51, 0
3, 74160, Note_on_c, 1, 34, 88
3, 74162, Control_c, 1, 64, 127
3, 74400, Note_on_c, 1, 34, 0
3, 74400, Note_on_c, 1, 46, 88
3, 74640, Note_on_c, 1, 46, 0
3, 74640, Note_on_c, 1, 46, 88
3, 74880, Note_on_c, 1, 46, 0
3, 74880, Note_on_c, 1, 34, 86
3, 75120, Note_on_c, 1, 34, 0
3, 75120, Note_on_c, 1, 46, 90
3, 75360, Note_on_c, 1, 46, 0
3, 75360, Note_on_c, 1, 46, 90
3, 75596, Control_c, 1, 64, 0
3, 75600, Control_c, 1, 64, 127
3, 75600, Note_on_c, 1, 46, 0
3, 75600, Note_on_c, 1, 39, 89
3, 75840, Note_on_c, 1, 39, 0
3, 75840, Note_on_c, 1, 51, 89
3, 76080, Note_on_c, 1, 51, 0
3, 76080, Note_on_c, 1, 46, 92
3, 76316, Control_c, 1, 64, 0
3, 76320, Control_c, 1, 64, 127
3, 76320, Note_on_c, 1, 46, 0
3, 76320, Note_on_c, 1, 51, 90
3, 76560, Note_on_c, 1, 51, 0
3, 76560, Note_on_c, 1, 39, 102
3, 76796, Control_c, 1, 64, 0
3, 76800, Note_on_c, 1, 39, 0
3, 77040, Note_on_c, 1, 77, 55
3, 77280, Note_on_c, 1, 77, 0
3, 77280, Note_on_c, 1, 74, 56
3, 77520, Note_on_c, 1, 74, 0
3, 77520, Note_on_c, 1, 70, 61
3, 77760, Note_on_c, 1, 70, 0
3, 77760, Note_on_c, 1, 70, 62
3, 78000, Note_on_c, 1, 70, 0
3, 78000, Note_on_c, 1, 67, 63
3, 78240, Note_on_c, 1, 67, 0
3, 78240, Note_on_c, 1, 63, 65
3, 78480, Note_on_c, 1, 63, 0
3, 78480, Note_on_c, 1, 65, 67
3, 78720, Note_on_c, 1, 65, 0
3, 78720, Note_on_c, 1, 62, 68
3, 78960, Note_on_c, 1, 62, 0
3, 78960, Note_on_c, 1, 58, 70
3, 79200, Note_on_c, 1, 58, 0
3, 79200, Note_on_c, 1, 58, 73
3, 79440, Note_on_c, 1, 58, 0
3, 79440, Note_on_c, 1, 55, 76
3, 79680, Note_on_c, 1, 55, 0
3, 79680, Note_on_c, 1, 51, 77
3, 79920, Note_on_c, 1, 51, 0
3, 79920, Note_on_c, 1, 53, 80
3, 80160, Note_on_c, 1, 53, 0
3, 80160, Note_on_c, 1, 50, 87
3, 80400, Note_on_c, 1, 50, 0
3, 80400, Note_on_c, 1, 46, 91
3, 80640, Note_on_c, 1, 46, 0
3, 80640, Note_on_c, 1, 46, 94
3, 80880, Note_on_c, 1, 46, 0
3, 80880, Note_on_c, 1, 43, 96
3, 81120, Note_on_c, 1, 43, 0
3, 81120, Note_on_c, 1, 39, 99
3, 81360, Note_on_c, 1, 39, 0
3, 81360, Note_on_c, 1, 41, 104
3, 81600, Note_on_c, 1, 41, 0
3, 81600, Note_on_c, 1, 38, 106
3, 81840, Note_on_c, 1, 38, 0
3, 81840, Note_on_c, 1, 34, 108
3, 82080, Note_on_c, 1, 34, 0
3, 82080, Note_on_c, 1, 39, 127
3, 82080, Note_on_c, 1, 27, 127
3, 82320, Note_on_c, 1, 39, 0
3, 82320, Note_on_c, 1, 27, 0
3, 82800, Note_on_c, 1, 77, 69
3, 83040, Note_on_c, 1, 77, 0
3, 83040, Note_on_c, 1, 74, 67
3, 83280, Note_on_c, 1, 74, 0
3, 83280, Note_on_c, 1, 70, 68
3, 83520, Note_on_c, 1, 70, 0
3, 83520, Note_on_c, 1, 70, 68
3, 83760, Note_on_c, 1, 70, 0
3, 83760, Note_on_c, 1, 67, 67
3, 84000, Note_on_c, 1, 67, 0
3, 84000, Note_on_c, 1, 63, 68
3, 84240, Note_on_c, 1, 63, 0
3, 84240, Note_on_c, 1, 65, 71
3, 84480, Note_on_c, 1, 65, 0
3, 84480, Note_on_c, 1, 62, 74
3, 84720, Note_on_c, 1, 62, 0
3, 84720, Note_on_c, 1, 58, 74
3, 84960, Note_on_c, 1, 58, 0
3, 84960, Note_on_c, 1, 58, 74
3, 85200, Note_on_c, 1, 58, 0
3, 85200, Note_on_c, 1, 55, 79
3, 85440, Note_on_c, 1, 55, 0
3, 85440, Note_on_c, 1, 51, 83
3, 85680, Note_on_c, 1, 51, 0
3, 85680, Note_on_c, 1, 53, 88
3, 85920, Note_on_c, 1, 53, 0
3, 85920, Note_on_c, 1, 50, 91
3, 86160, Note_on_c, 1, 50, 0
3, 86160, Note_on_c, 1, 46, 94
3, 86400, Note_on_c, 1, 46, 0
3, 86400, Note_on_c, 1, 46, 95
3, 86640, Note_on_c, 1, 46, 0
3, 86640, Note_on_c, 1, 43, 97
3, 86880, Note_on_c, 1, 43, 0
3, 86880, Note_on_c, 1, 39, 101
3, 87120, Note_on_c, 1, 39, 0
3, 87120, Note_on_c, 1, 41, 105
3, 87360, Note_on_c, 1, 41, 0
3, 87360, Note_on_c, 1, 38, 111
3, 87600, Note_on_c, 1, 38, 0
3, 87600, Note_on_c, 1, 34, 117
3, 87840, Note_on_c, 1, 34, 0
3, 87840, Note_on_c, 1, 39, 127
3, 87840, Note_on_c, 1, 27, 127
3, 88080, Note_on_c, 1, 39, 0
3, 88080, Note_on_c, 1, 27, 0
3, 88080, End_track
4, 0, Start_track
4, 0, Title_t, "3 main gauche accompagnement"
4, 0, Program_c, 3, 1
4, 0, Control_c, 3, 10, 40
4, 0, Control_c, 3, 7, 80
4, 22320, Note_on_c, 3, 70, 81
4, 22320, Note_on_c, 3, 67, 81
4, 22320, Note_on_c, 3, 63, 81
4, 22320, Note_on_c, 3, 58, 81
4, 22560, Note_on_c, 3, 67, 0
4, 22560, Note_on_c, 3, 63, 0
4, 22560, Note_on_c, 3, 58, 0
4, 22560, Note_on_c, 3, 67, 81
4, 22560, Note_on_c, 3, 63, 81
4, 22560, Note_on_c, 3, 58, 81
4, 22800, Note_on_c, 3, 67, 0
4, 22800, Note_on_c, 3, 63, 0
4, 22800, Note_on_c, 3, 58, 0
4, 22800, Note_on_c, 3, 67, 80
4, 22800, Note_on_c, 3, 63, 80
4, 22800, Note_on_c, 3, 58, 80
4, 23040, Note_on_c, 3, 70, 0
4, 23040, Note_on_c, 3, 67, 0
4, 23040, Note_on_c, 3, 63, 0
4, 23040, Note_on_c, 3, 58, 0
4, 23040, Note_on_c, 3, 67, 80
4, 23040, Note_on_c, 3, 63, 80
4, 23040, Note_on_c, 3, 58, 80
4, 23280, Note_on_c, 3, 67, 0
4, 23280, Note_on_c, 3, 63, 0
4, 23280, Note_on_c, 3, 58, 0
4, 23280, Note_on_c, 3, 67, 80
4, 23280, Note_on_c, 3, 63, 80
4, 23280, Note_on_c, 3, 58, 80
4, 23520, Note_on_c, 3, 67, 0
4, 23520, Note_on_c, 3, 63, 0
4, 23520, Note_on_c, 3, 58, 0
4, 23520, Note_on_c, 3, 67, 80
4, 23520, Note_on_c, 3, 63, 80
4, 23520, Note_on_c, 3, 58, 80
4, 23760, Note_on_c, 3, 67, 0
4, 23760, Note_on_c, 3, 63, 0
4, 23760, Note_on_c, 3, 58, 0
4, 23760, Note_on_c, 3, 67, 84
4, 23760, Note_on_c, 3, 63, 84
4, 23760, Note_on_c, 3, 58, 84
4, 24000, Note_on_c, 3, 67, 0
4, 24000, Note_on_c, 3, 63, 0
4, 24000, Note_on_c, 3, 58, 0
4, 24000, Note_on_c, 3, 67, 80
4, 24000, Note_on_c, 3, 63, 80
4, 24000, Note_on_c, 3, 58, 80
4, 24240, Note_on_c, 3, 67, 0
4, 24240, Note_on_c, 3, 63, 0
4, 24240, Note_on_c, 3, 58, 0
4, 24240, Note_on_c, 3, 67, 80
4, 24240, Note_on_c, 3, 63, 80
4, 24240, Note_on_c, 3, 58, 80
4, 24480, Note_on_c, 3, 67, 0
4, 24480, Note_on_c, 3, 63, 0
4, 24480, Note_on_c, 3, 58, 0
4, 24480, Note_on_c, 3, 67, 86
4, 24480, Note_on_c, 3, 63, 86
4, 24480, Note_on_c, 3, 58, 86
4, 24720, Note_on_c, 3, 67, 0
4, 24720, Note_on_c, 3, 63, 0
4, 24720, Note_on_c, 3, 58, 0
4, 24720, Note_on_c, 3, 67, 80
4, 24720, Note_on_c, 3, 63, 80
4, 24720, Note_on_c, 3, 58, 80
4, 24960, Note_on_c, 3, 67, 0
4, 24960, Note_on_c, 3, 63, 0
4, 24960, Note_on_c, 3, 58, 0
4, 24960, Note_on_c, 3, 67, 79
4, 24960, Note_on_c, 3, 63, 79
4, 24960, Note_on_c, 3, 58, 79
4, 25200, Note_on_c, 3, 67, 0
4, 25200, Note_on_c, 3, 63, 0
4, 25200, Note_on_c, 3, 58, 0
4, 25200, Note_on_c, 3, 68, 87
4, 25200, Note_on_c, 3, 65, 87
4, 25200, Note_on_c, 3, 58, 87
4, 25440, Note_on_c, 3, 68, 0
4, 25440, Note_on_c, 3, 65, 0
4, 25440, Note_on_c, 3, 58, 0
4, 25440, Note_on_c, 3, 68, 79
4, 25440, Note_on_c, 3, 65, 79
4, 25440, Note_on_c, 3, 58, 79
4, 25680, Note_on_c, 3, 68, 0
4, 25680, Note_on_c, 3, 65, 0
4, 25680, Note_on_c, 3, 58, 0
4, 25680, Note_on_c, 3, 68, 78
4, 25680, Note_on_c, 3, 65, 78
4, 25680, Note_on_c, 3, 58, 78
4, 25920, Note_on_c, 3, 68, 0
4, 25920, Note_on_c, 3, 65, 0
4, 25920, Note_on_c, 3, 58, 0
4, 25920, Note_on_c, 3, 67, 78
4, 25920, Note_on_c, 3, 63, 78
4, 25920, Note_on_c, 3, 58, 78
4, 26160, Note_on_c, 3, 67, 0
4, 26160, Note_on_c, 3, 63, 0
4, 26160, Note_on_c, 3, 58, 0
4, 26160, Note_on_c, 3, 67, 78
4, 26160, Note_on_c, 3, 63, 78
4, 26160, Note_on_c, 3, 58, 78
4, 26400, Note_on_c, 3, 67, 0
4, 26400, Note_on_c, 3, 63, 0
4, 26400, Note_on_c, 3, 58, 0
4, 26400, Note_on_c, 3, 67, 78
4, 26400, Note_on_c, 3, 63, 78
4, 26400, Note_on_c, 3, 58, 78
4, 26640, Note_on_c, 3, 67, 0
4, 26640, Note_on_c, 3, 63, 0
4, 26640, Note_on_c, 3, 58, 0
4, 26640, Note_on_c, 3, 68, 77
4, 26640, Note_on_c, 3, 65, 77
4, 26640, Note_on_c, 3, 58, 77
4, 26880, Note_on_c, 3, 68, 0
4, 26880, Note_on_c, 3, 65, 0
4, 26880, Note_on_c, 3, 58, 0
4, 27120, Note_on_c, 3, 68, 77
4, 27120, Note_on_c, 3, 65, 77
4, 27120, Note_on_c, 3, 58, 77
4, 27360, Note_on_c, 3, 68, 0
4, 27360, Note_on_c, 3, 65, 0
4, 27360, Note_on_c, 3, 58, 0
4, 41040, Note_on_c, 3, 70, 99
4, 41040, Note_on_c, 3, 67, 99
4, 41040, Note_on_c, 3, 63, 99
4, 41040, Note_on_c, 3, 58, 99
4, 41280, Note_on_c, 3, 67, 0
4, 41280, Note_on_c, 3, 63, 0
4, 41280, Note_on_c, 3, 58, 0
4, 41280, Note_on_c, 3, 67, 88
4, 41280, Note_on_c, 3, 63, 88
4, 41280, Note_on_c, 3, 58, 88
4, 41520, Note_on_c, 3, 67, 0
4, 41520, Note_on_c, 3, 63, 0
4, 41520, Note_on_c, 3, 58, 0
4, 41520, Note_on_c, 3, 67, 83
4, 41520, Note_on_c, 3, 63, 83
4, 41520, Note_on_c, 3, 58, 83
4, 41760, Note_on_c, 3, 70, 0
4, 41760, Note_on_c, 3, 67, 0
4, 41760, Note_on_c, 3, 63, 0
4, 41760, Note_on_c, 3, 58, 0
4, 41760, Note_on_c, 3, 67, 88
4, 41760, Note_on_c, 3, 63, 88
4, 41760, Note_on_c, 3, 58, 88
4, 42000, Note_on_c, 3, 67, 0
4, 42000, Note_on_c, 3, 63, 0
4, 42000, Note_on_c, 3, 58, 0
4, 42000, Note_on_c, 3, 67, 84
4, 42000, Note_on_c, 3, 63, 84
4, 42000, Note_on_c, 3, 58, 84
4, 42240, Note_on_c, 3, 67, 0
4, 42240, Note_on_c, 3, 63, 0
4, 42240, Note_on_c, 3, 58, 0
4, 42240, Note_on_c, 3, 67, 87
4, 42240, Note_on_c, 3, 63, 87
4, 42240, Note_on_c, 3, 58, 87
4, 42480, Note_on_c, 3, 67, 0
4, 42480, Note_on_c, 3, 63, 0
4, 42480, Note_on_c, 3, 58, 0
4, 42480, Note_on_c, 3, 67, 87
4, 42480, Note_on_c, 3, 63, 87
4, 42480, Note_on_c, 3, 58, 87
4, 42720, Note_on_c, 3, 67, 0
4, 42720, Note_on_c, 3, 63, 0
4, 42720, Note_on_c, 3, 58, 0
4, 42720, Note_on_c, 3, 67, 82
4, 42720, Note_on_c, 3, 63, 82
4, 42720, Note_on_c, 3, 58, 82
4, 42960, Note_on_c, 3, 67, 0
4, 42960, Note_on_c, 3, 63, 0
4, 42960, Note_on_c, 3, 58, 0
4, 42960, Note_on_c, 3, 67, 80
4, 42960, Note_on_c, 3, 63, 80
4, 42960, Note_on_c, 3, 58, 80
4, 43200, Note_on_c, 3, 67, 0
4, 43200, Note_on_c, 3, 63, 0
4, 43200, Note_on_c, 3, 58, 0
4, 43200, Note_on_c, 3, 67, 83
4, 43200, Note_on_c, 3, 63, 83
4, 43200, Note_on_c, 3, 58, 83
4, 43440, Note_on_c, 3, 67, 0
4, 43440, Note_on_c, 3, 63, 0
4, 43440, Note_on_c, 3, 58, 0
4, 43440, Note_on_c, 3, 67, 82
4, 43440, Note_on_c, 3, 63, 82
4, 43440, Note_on_c, 3, 58, 82
4, 43680, Note_on_c, 3, 67, 0
4, 43680, Note_on_c, 3, 63, 0
4, 43680, Note_on_c, 3, 58, 0
4, 43680, Note_on_c, 3, 67, 79
4, 43680, Note_on_c, 3, 63, 79
4, 43680, Note_on_c, 3, 58, 79
4, 43920, Note_on_c, 3, 67, 0
4, 43920, Note_on_c, 3, 63, 0
4, 43920, Note_on_c, 3, 58, 0
4, 43920, Note_on_c, 3, 68, 89
4, 43920, Note_on_c, 3, 65, 89
4, 43920, Note_on_c, 3, 58, 89
4, 44160, Note_on_c, 3, 68, 0
4, 44160, Note_on_c, 3, 65, 0
4, 44160, Note_on_c, 3, 58, 0
4, 44160, Note_on_c, 3, 68, 78
4, 44160, Note_on_c, 3, 65, 78
4, 44160, Note_on_c, 3, 58, 78
4, 44400, Note_on_c, 3, 68, 0
4, 44400, Note_on_c, 3, 65, 0
4, 44400, Note_on_c, 3, 58, 0
4, 44400, Note_on_c, 3, 68, 79
4, 44400, Note_on_c, 3, 65, 79
4, 44400, Note_on_c, 3, 58, 79
4, 44640, Note_on_c, 3, 68, 0
4, 44640, Note_on_c, 3, 65, 0
4, 44640, Note_on_c, 3, 58, 0
4, 44640, Note_on_c, 3, 67, 87
4, 44640, Note_on_c, 3, 63, 87
4, 44640, Note_on_c, 3, 58, 87
4, 44880, Note_on_c, 3, 67, 0
4, 44880, Note_on_c, 3, 63, 0
4, 44880, Note_on_c, 3, 58, 0
4, 44880, Note_on_c, 3, 67, 79
4, 44880, Note_on_c, 3, 63, 79
4, 44880, Note_on_c, 3, 58, 79
4, 45120, Note_on_c, 3, 67, 0
4, 45120, Note_on_c, 3, 63, 0
4, 45120, Note_on_c, 3, 58, 0
4, 45120, Note_on_c, 3, 67, 79
4, 45120, Note_on_c, 3, 63, 79
4, 45120, Note_on_c, 3, 58, 79
4, 45360, Note_on_c, 3, 67, 0
4, 45360, Note_on_c, 3, 63, 0
4, 45360, Note_on_c, 3, 58, 0
4, 45360, Note_on_c, 3, 68, 86
4, 45360, Note_on_c, 3, 65, 86
4, 45360, Note_on_c, 3, 58, 86
4, 45600, Note_on_c, 3, 68, 0
4, 45600, Note_on_c, 3, 65, 0
4, 45600, Note_on_c, 3, 58, 0
4, 45840, Note_on_c, 3, 68, 79
4, 45840, Note_on_c, 3, 65, 79
4, 45840, Note_on_c, 3, 58, 79
4, 46080, Note_on_c, 3, 68, 0
4, 46080, Note_on_c, 3, 65, 0
4, 46080, Note_on_c, 3, 58, 0
4, 46080, End_track
0, 0, End_of_file