0, 0, Header, 1, 2, 480
1, 0, Start_track
1, 0, Key_signature, 0, "major"
1, 0, SMPTE_offset, 96, 0, 0, 0, 0
1, 0, Tempo, 500000
1, 0, Time_signature, 4, 2, 24, 8
1, 0, End_track
2, 0, Start_track
2, 0, Note_on_c, 0, 64, 52
2, 602, Note_on_c, 0, 76, 68
2, 606, Note_on_c, 0, 61, 44
2, 618, Note_on_c, 0, 57, 44
2, 618, Note_on_c, 0, 69, 51
2, 641, Note_on_c, 0, 64, 0
2, 786, Control_c, 0, 64, 127
2, 947, Note_on_c, 0, 76, 0
2, 1043, Note_on_c, 0, 69, 0
2, 1315, Note_on_c, 0, 68, 67
2, 1336, Note_on_c, 0, 59, 50
2, 1359, Note_on_c, 0, 61, 0
2, 1484, Note_on_c, 0, 68, 0
2, 1560, Note_on_c, 0, 61, 47
2, 1563, Note_on_c, 0, 59, 0
2, 1581, Note_on_c, 0, 69, 72
2, 1586, Note_on_c, 0, 76, 80
2, 1656, Control_c, 0, 64, 0
2, 1810, Control_c, 0, 64, 127
2, 1874, Note_on_c, 0, 76, 0
2, 2027, Note_on_c, 0, 76, 80
2, 2042, Note_on_c, 0, 73, 66
2, 2050, Note_on_c, 0, 64, 62
2, 2066, Note_on_c, 0, 69, 0
2, 2160, Note_on_c, 0, 73, 0
2, 2174, Note_on_c, 0, 76, 0
2, 2192, Note_on_c, 0, 57, 0
2, 2242, Note_on_c, 0, 61, 0
2, 2302, Note_on_c, 0, 64, 0
2, 2455, Note_on_c, 0, 71, 55
2, 2477, Control_c, 0, 64, 0
2, 2491, Note_on_c, 0, 57, 62
2, 2496, Note_on_c, 0, 62, 63
2, 2516, Note_on_c, 0, 76, 78
2, 2564, Note_on_c, 0, 71, 0
2, 2584, Note_on_c, 0, 78, 83
2, 2592, Control_c, 0, 64, 127
2, 2612, Note_on_c, 0, 76, 0
2, 2648, Note_on_c, 0, 76, 55
2, 2652, Note_on_c, 0, 78, 0
2, 2699, Note_on_c, 0, 76, 0
2, 2703, Note_on_c, 0, 78, 97
2, 2783, Note_on_c, 0, 76, 78
2, 2806, Note_on_c, 0, 78, 0
2, 2850, Note_on_c, 0, 75, 77
2, 2856, Note_on_c, 0, 76, 0
2, 2911, Note_on_c, 0, 76, 109
2, 2930, Note_on_c, 0, 75, 0
2, 2988, Note_on_c, 0, 78, 100
2, 3059, Note_on_c, 0, 76, 0
2, 3200, Note_on_c, 0, 80, 100
2, 3260, Note_on_c, 0, 78, 0
2, 3419, Note_on_c, 0, 80, 0
2, 3460, Note_on_c, 0, 81, 88
2, 3465, Note_on_c, 0, 61, 57
2, 3481, Note_on_c, 0, 69, 36
2, 3501, Note_on_c, 0, 62, 0
2, 3590, Control_c, 0, 64, 0
2, 3897, Control_c, 0, 64, 127
2, 3967, Note_on_c, 0, 76, 65
2, 3973, Note_on_c, 0, 81, 0
2, 3997, Note_on_c, 0, 57, 0
2, 4061, Note_on_c, 0, 61, 0
2, 4081, Note_on_c, 0, 76, 0
2, 4097, Note_on_c, 0, 69, 0
2, 4520, Note_on_c, 0, 76, 61
2, 4524, Note_on_c, 0, 68, 38
2, 4540, Note_on_c, 0, 59, 38
2, 4550, Note_on_c, 0, 57, 35
2, 4627, Control_c, 0, 64, 0
2, 4831, Control_c, 0, 64, 127
2, 4982, Note_on_c, 0, 71, 52
2, 4993, Note_on_c, 0, 62, 50
2, 5001, Note_on_c, 0, 76, 0
2, 5010, Note_on_c, 0, 68, 0
2, 5040, Note_on_c, 0, 71, 0
2, 5187, Note_on_c, 0, 59, 0
2, 5213, Note_on_c, 0, 57, 0
2, 5292, Note_on_c, 0, 62, 0
2, 5475, Note_on_c, 0, 76, 65
2, 5480, Note_on_c, 0, 68, 41
2, 5482, Note_on_c, 0, 57, 41
2, 5490, Note_on_c, 0, 59, 34
2, 5550, Control_c, 0, 64, 0
2, 5702, Control_c, 0, 64, 127
2, 5750, Note_on_c, 0, 76, 0
2, 5772, Note_on_c, 0, 68, 0
2, 5955, Note_on_c, 0, 62, 56
2, 5964, Note_on_c, 0, 76, 83
2, 5976, Note_on_c, 0, 71, 48
2, 6019, Note_on_c, 0, 71, 0
2, 6057, Note_on_c, 0, 76, 0
2, 6156, Note_on_c, 0, 57, 0
2, 6156, Note_on_c, 0, 59, 0
2, 6465, Note_on_c, 0, 62, 0
2, 6471, Note_on_c, 0, 61, 43
2, 6476, Note_on_c, 0, 69, 39
2, 6492, Note_on_c, 0, 76, 64
2, 6496, Note_on_c, 0, 57, 36
2, 6586, Control_c, 0, 64, 0
2, 6721, Note_on_c, 0, 75, 74
2, 6792, Note_on_c, 0, 76, 0
2, 6948, Note_on_c, 0, 76, 103
2, 6964, Note_on_c, 0, 69, 0
2, 7013, Note_on_c, 0, 75, 0
2, 7160, Note_on_c, 0, 78, 91
2, 7212, Note_on_c, 0, 76, 0
2, 7222, Note_on_c, 0, 57, 0
2, 7285, Note_on_c, 0, 61, 0
2, 7392, Note_on_c, 0, 76, 94
2, 7475, Note_on_c, 0, 78, 0
2, 7611, Note_on_c, 0, 74, 91
2, 7614, Note_on_c, 0, 76, 0
2, 7616, Note_on_c, 0, 66, 64
2, 7823, Note_on_c, 0, 73, 84
2, 7846, Note_on_c, 0, 64, 84
2, 7870, Note_on_c, 0, 74, 0
2, 7873, Note_on_c, 0, 66, 0
2, 8041, Note_on_c, 0, 62, 71
2, 8050, Note_on_c, 0, 71, 83
2, 8100, Note_on_c, 0, 64, 0
2, 8122, Note_on_c, 0, 73, 0
2, 8347, Note_on_c, 0, 61, 60
2, 8359, Note_on_c, 0, 76, 69
2, 8367, Note_on_c, 0, 69, 61
2, 8385, Note_on_c, 0, 57, 32
2, 8387, Note_on_c, 0, 71, 0
2, 8413, Note_on_c, 0, 62, 0
2, 8673, Control_c, 0, 64, 127
2, 9015, Note_on_c, 0, 68, 82
2, 9020, Note_on_c, 0, 59, 62
2, 9078, Note_on_c, 0, 61, 0
2, 9097, Note_on_c, 0, 69, 0
2, 9103, Note_on_c, 0, 76, 0
2, 9261, Note_on_c, 0, 59, 0
2, 9272, Note_on_c, 0, 76, 84
2, 9274, Note_on_c, 0, 61, 59
2, 9276, Note_on_c, 0, 69, 79
2, 9294, Note_on_c, 0, 68, 0
2, 9339, Control_c, 0, 64, 0
2, 9518, Control_c, 0, 64, 127
2, 9562, Note_on_c, 0, 76, 0
2, 9708, Note_on_c, 0, 76, 92
2, 9710, Note_on_c, 0, 73, 84
2, 9718, Note_on_c, 0, 64, 72
2, 9723, Note_on_c, 0, 69, 0
2, 9793, Note_on_c, 0, 61, 0
2, 9811, Note_on_c, 0, 73, 0
2, 9817, Note_on_c, 0, 76, 0
2, 9872, Note_on_c, 0, 61, 2
2, 9895, Note_on_c, 0, 57, 0
2, 9931, Note_on_c, 0, 61, 0
2, 9967, Note_on_c, 0, 64, 0
2, 10145, Note_on_c, 0, 71, 50
2, 10165, Note_on_c, 0, 57, 57
2, 10165, Note_on_c, 0, 62, 68
2, 10172, Control_c, 0, 64, 0
2, 10193, Note_on_c, 0, 76, 82
2, 10237, Note_on_c, 0, 71, 0
2, 10267, Note_on_c, 0, 78, 88
2, 10279, Note_on_c, 0, 76, 0
2, 10287, Control_c, 0, 64, 127
2, 10335, Note_on_c, 0, 76, 102
2, 10356, Note_on_c, 0, 78, 0
2, 10406, Note_on_c, 0, 76, 0
2, 10406, Note_on_c, 0, 78, 91
2, 10463, Note_on_c, 0, 76, 105
2, 10497, Note_on_c, 0, 78, 0
2, 10526, Note_on_c, 0, 75, 94
2, 10556, Note_on_c, 0, 76, 0
2, 10577, Note_on_c, 0, 76, 64
2, 10625, Note_on_c, 0, 75, 0
2, 10671, Note_on_c, 0, 78, 105
2, 10754, Note_on_c, 0, 76, 0
2, 10894, Note_on_c, 0, 80, 103
2, 10938, Note_on_c, 0, 78, 0
2, 11097, Note_on_c, 0, 80, 0
2, 11177, Note_on_c, 0, 81, 76
2, 11190, Note_on_c, 0, 61, 54
2, 11196, Note_on_c, 0, 69, 53
2, 11206, Note_on_c, 0, 62, 0
2, 11260, Control_c, 0, 64, 0
2, 11554, Control_c, 0, 64, 127
2, 11766, Note_on_c, 0, 57, 0
2, 11775, Note_on_c, 0, 76, 74
2, 11782, Note_on_c, 0, 81, 0
2, 11810, Note_on_c, 0, 61, 0
2, 11886, Note_on_c, 0, 76, 0
2, 11917, Note_on_c, 0, 69, 0
2, 12244, Note_on_c, 0, 76, 59
2, 12244, Note_on_c, 0, 68, 35
2, 12251, Note_on_c, 0, 57, 35
2, 12255, Note_on_c, 0, 59, 36
2, 12323, Control_c, 0, 64, 0
2, 12526, Control_c, 0, 64, 127
2, 12722, Note_on_c, 0, 71, 46
2, 12727, Note_on_c, 0, 76, 0
2, 12727, Note_on_c, 0, 68, 0
2, 12732, Note_on_c, 0, 62, 42
2, 12761, Note_on_c, 0, 71, 0
2, 12792, Note_on_c, 0, 59, 0
2, 12828, Note_on_c, 0, 62, 0
2, 12937, Note_on_c, 0, 57, 0
2, 13197, Note_on_c, 0, 68, 45
2, 13197, Note_on_c, 0, 59, 49
2, 13199, Note_on_c, 0, 76, 64
2, 13201, Note_on_c, 0, 57, 42
2, 13245, Control_c, 0, 64, 0
2, 13411, Control_c, 0, 64, 127
2, 13435, Note_on_c, 0, 76, 0
2, 13447, Note_on_c, 0, 68, 0
2, 13681, Note_on_c, 0, 76, 71
2, 13681, Note_on_c, 0, 62, 43
2, 13701, Note_on_c, 0, 71, 31
2, 13718, Control_c, 0, 64, 0
2, 13846, Note_on_c, 0, 76, 0
2, 13846, Control_c, 0, 64, 127
2, 13867, Note_on_c, 0, 71, 0
2, 13888, Note_on_c, 0, 59, 0
2, 13893, Note_on_c, 0, 57, 0
2, 13933, Note_on_c, 0, 62, 0
2, 14230, Note_on_c, 0, 69, 45
2, 14241, Note_on_c, 0, 61, 32
2, 14259, Note_on_c, 0, 57, 25
2, 14281, Control_c, 0, 64, 0
2, 14461, Control_c, 0, 64, 127
2, 14643, Note_on_c, 0, 69, 0
2, 14643, Note_on_c, 0, 57, 0
2, 14712, Note_on_c, 0, 61, 0
2, 15151, Control_c, 0, 64, 0
2, 15976, Note_on_c, 0, 64, 42
2, 16304, Control_c, 0, 64, 127
2, 16571, Note_on_c, 0, 76, 57
2, 16579, Note_on_c, 0, 57, 33
2, 16583, Note_on_c, 0, 64, 0
2, 16583, Note_on_c, 0, 61, 34
2, 16609, Note_on_c, 0, 69, 31
2, 16664, Control_c, 0, 64, 0
2, 16817, Control_c, 0, 64, 127
2, 16884, Note_on_c, 0, 76, 0
2, 16968, Note_on_c, 0, 69, 0
2, 17302, Note_on_c, 0, 68, 59
2, 17311, Note_on_c, 0, 59, 47
2, 17329, Note_on_c, 0, 61, 0
2, 17458, Note_on_c, 0, 68, 0
2, 17550, Note_on_c, 0, 59, 0
2, 17554, Note_on_c, 0, 61, 57
2, 17574, Note_on_c, 0, 69, 54
2, 17576, Note_on_c, 0, 76, 67
2, 17622, Control_c, 0, 64, 0
2, 17802, Control_c, 0, 64, 127
2, 17826, Note_on_c, 0, 76, 0
2, 18012, Note_on_c, 0, 76, 88
2, 18014, Note_on_c, 0, 73, 72
2, 18017, Note_on_c, 0, 64, 67
2, 18053, Note_on_c, 0, 69, 0
2, 18174, Note_on_c, 0, 57, 0
2, 18179, Note_on_c, 0, 76, 0
2, 18193, Note_on_c, 0, 73, 0
2, 18213, Note_on_c, 0, 61, 0
2, 18242, Note_on_c, 0, 64, 0
2, 18431, Note_on_c, 0, 71, 59
2, 18442, Control_c, 0, 64, 0
2, 18462, Note_on_c, 0, 62, 64
2, 18462, Note_on_c, 0, 57, 65
2, 18498, Note_on_c, 0, 76, 87
2, 18560, Note_on_c, 0, 71, 0
2, 18566, Note_on_c, 0, 78, 87
2, 18571, Control_c, 0, 64, 127
2, 18586, Note_on_c, 0, 76, 0
2, 18642, Note_on_c, 0, 76, 80
2, 18646, Note_on_c, 0, 78, 0
2, 18679, Note_on_c, 0, 76, 0
2, 18693, Note_on_c, 0, 78, 97
2, 18749, Note_on_c, 0, 76, 93
2, 18782, Note_on_c, 0, 78, 0
2, 18824, Note_on_c, 0, 76, 0
2, 18826, Note_on_c, 0, 75, 85
2, 18878, Note_on_c, 0, 76, 107
2, 18922, Note_on_c, 0, 75, 0
2, 18968, Note_on_c, 0, 78, 98
2, 19079, Note_on_c, 0, 76, 0
2, 19189, Note_on_c, 0, 80, 98
2, 19239, Note_on_c, 0, 78, 0
2, 19447, Note_on_c, 0, 80, 0
2, 19451, Note_on_c, 0, 61, 48
2, 19451, Note_on_c, 0, 81, 83
2, 19480, Note_on_c, 0, 69, 56
2, 19486, Note_on_c, 0, 62, 0
2, 19570, Control_c, 0, 64, 0
2, 19825, Control_c, 0, 64, 127
2, 19891, Note_on_c, 0, 57, 0
2, 20017, Note_on_c, 0, 81, 0
2, 20023, Note_on_c, 0, 76, 63
2, 20157, Note_on_c, 0, 69, 0
2, 20184, Note_on_c, 0, 76, 0
2, 20257, Note_on_c, 0, 61, 0
2, 20531, Note_on_c, 0, 76, 57
2, 20542, Note_on_c, 0, 59, 43
2, 20542, Note_on_c, 0, 68, 34
2, 20548, Note_on_c, 0, 57, 36
2, 20620, Control_c, 0, 64, 0
2, 20836, Control_c, 0, 64, 127
2, 21005, Note_on_c, 0, 71, 58
2, 21021, Note_on_c, 0, 76, 0
2, 21021, Note_on_c, 0, 62, 45
2, 21041, Note_on_c, 0, 68, 0
2, 21101, Note_on_c, 0, 71, 0
2, 21130, Note_on_c, 0, 59, 0
2, 21222, Note_on_c, 0, 62, 0
2, 21240, Note_on_c, 0, 57, 0
2, 21466, Note_on_c, 0, 68, 53
2, 21469, Note_on_c, 0, 76, 69
2, 21481, Note_on_c, 0, 57, 44
2, 21485, Note_on_c, 0, 59, 35
2, 21517, Control_c, 0, 64, 0
2, 21707, Control_c, 0, 64, 127
2, 21723, Note_on_c, 0, 76, 0
2, 21758, Note_on_c, 0, 68, 0
2, 21926, Note_on_c, 0, 76, 87
2, 21934, Note_on_c, 0, 62, 50
2, 21938, Note_on_c, 0, 71, 50
2, 21981, Note_on_c, 0, 71, 0
2, 22029, Note_on_c, 0, 59, 0
2, 22043, Note_on_c, 0, 76, 0
2, 22086, Note_on_c, 0, 57, 0
2, 22242, Note_on_c, 0, 62, 0
2, 22374, Note_on_c, 0, 69, 58
2, 22395, Note_on_c, 0, 61, 47
2, 22395, Note_on_c, 0, 76, 72
2, 22402, Note_on_c, 0, 57, 47
2, 22426, Control_c, 0, 64, 0
2, 22613, Note_on_c, 0, 75, 83
2, 22702, Note_on_c, 0, 76, 0
2, 22833, Note_on_c, 0, 76, 98
2, 22861, Note_on_c, 0, 69, 0
2, 22920, Note_on_c, 0, 75, 0
2, 23016, Note_on_c, 0, 57, 0
2, 23043, Note_on_c, 0, 78, 82
2, 23077, Note_on_c, 0, 61, 0
2, 23089, Note_on_c, 0, 76, 0
2, 23266, Note_on_c, 0, 76, 83
2, 23326, Note_on_c, 0, 78, 0
2, 23472, Note_on_c, 0, 66, 59
2, 23482, Note_on_c, 0, 76, 0
2, 23482, Note_on_c, 0, 74, 80
2, 23681, Note_on_c, 0, 73, 77
2, 23698, Note_on_c, 0, 64, 79
2, 23702, Note_on_c, 0, 66, 0
2, 23706, Note_on_c, 0, 74, 0
2, 23902, Note_on_c, 0, 71, 81
2, 23909, Note_on_c, 0, 62, 76
2, 23968, Note_on_c, 0, 73, 0
2, 23972, Note_on_c, 0, 64, 0
2, 24179, Note_on_c, 0, 61, 50
2, 24187, Note_on_c, 0, 76, 68
2, 24191, Note_on_c, 0, 69, 57
2, 24193, Note_on_c, 0, 57, 42
2, 24201, Note_on_c, 0, 71, 0
2, 24222, Note_on_c, 0, 62, 0
2, 24473, Control_c, 0, 64, 127
2, 24871, Note_on_c, 0, 59, 54
2, 24871, Note_on_c, 0, 68, 72
2, 24910, Note_on_c, 0, 61, 0
2, 24934, Note_on_c, 0, 76, 0
2, 24941, Note_on_c, 0, 69, 0
2, 25029, Note_on_c, 0, 68, 0
2, 25069, Note_on_c, 0, 59, 0
2, 25139, Note_on_c, 0, 76, 80
2, 25141, Note_on_c, 0, 61, 49
2, 25151, Note_on_c, 0, 69, 67
2, 25191, Control_c, 0, 64, 0
2, 25370, Control_c, 0, 64, 127
2, 25426, Note_on_c, 0, 76, 0
2, 25607, Note_on_c, 0, 76, 91
2, 25609, Note_on_c, 0, 64, 73
2, 25609, Note_on_c, 0, 73, 74
2, 25613, Control_c, 0, 64, 0
2, 25645, Note_on_c, 0, 69, 0
2, 25753, Control_c, 0, 64, 127
2, 25821, Note_on_c, 0, 76, 0
2, 25832, Note_on_c, 0, 73, 0
2, 25838, Note_on_c, 0, 57, 0
2, 25854, Note_on_c, 0, 61, 0
2, 25908, Note_on_c, 0, 64, 0
2, 26053, Note_on_c, 0, 71, 70
2, 26074, Control_c, 0, 64, 0
2, 26078, Note_on_c, 0, 62, 75
2, 26078, Note_on_c, 0, 57, 76
2, 26102, Note_on_c, 0, 76, 91
2, 26148, Note_on_c, 0, 71, 0
2, 26176, Note_on_c, 0, 78, 90
2, 26197, Note_on_c, 0, 76, 0
2, 26202, Control_c, 0, 64, 127
2, 26234, Note_on_c, 0, 76, 69
2, 26256, Note_on_c, 0, 78, 0
2, 26282, Note_on_c, 0, 76, 0
2, 26307, Note_on_c, 0, 78, 90
2, 26352, Note_on_c, 0, 76, 98
2, 26399, Note_on_c, 0, 78, 0
2, 26434, Note_on_c, 0, 75, 89
2, 26444, Note_on_c, 0, 76, 0
2, 26485, Note_on_c, 0, 76, 96
2, 26529, Note_on_c, 0, 75, 0
2, 26567, Note_on_c, 0, 78, 99
2, 26645, Note_on_c, 0, 76, 0
2, 26785, Note_on_c, 0, 80, 101
2, 26838, Note_on_c, 0, 78, 0
2, 26969, Note_on_c, 0, 80, 0
2, 27046, Note_on_c, 0, 81, 80
2, 27059, Note_on_c, 0, 61, 46
2, 27066, Note_on_c, 0, 69, 59
2, 27103, Note_on_c, 0, 62, 0
2, 27137, Control_c, 0, 64, 0
2, 27406, Control_c, 0, 64, 127
2, 27606, Note_on_c, 0, 81, 0
2, 27608, Note_on_c, 0, 76, 55
2, 27632, Note_on_c, 0, 57, 0
2, 27677, Note_on_c, 0, 61, 0
2, 27719, Note_on_c, 0, 69, 0
2, 27787, Note_on_c, 0, 76, 0
2, 28114, Note_on_c, 0, 76, 63
2, 28123, Note_on_c, 0, 68, 38
2, 28140, Note_on_c, 0, 57, 40
2, 28144, Note_on_c, 0, 59, 36
2, 28198, Control_c, 0, 64, 0
2, 28392, Control_c, 0, 64, 127
2, 28588, Note_on_c, 0, 71, 59
2, 28602, Note_on_c, 0, 62, 48
2, 28624, Note_on_c, 0, 76, 0
2, 28646, Note_on_c, 0, 68, 0
2, 28691, Note_on_c, 0, 57, 0
2, 28708, Note_on_c, 0, 59, 0
2, 28708, Note_on_c, 0, 71, 0
2, 28717, Note_on_c, 0, 62, 0
2, 29044, Note_on_c, 0, 68, 45
2, 29047, Note_on_c, 0, 76, 66
2, 29063, Note_on_c, 0, 59, 36
2, 29066, Note_on_c, 0, 57, 41
2, 29082, Control_c, 0, 64, 0
2, 29237, Control_c, 0, 64, 127
2, 29254, Note_on_c, 0, 76, 0
2, 29277, Note_on_c, 0, 68, 0
2, 29532, Note_on_c, 0, 71, 44
2, 29538, Note_on_c, 0, 76, 59
2, 29560, Note_on_c, 0, 62, 48
2, 29583, Control_c, 0, 64, 0
2, 29708, Note_on_c, 0, 59, 0
2, 29723, Control_c, 0, 64, 127
2, 29757, Note_on_c, 0, 76, 0
2, 29793, Note_on_c, 0, 71, 0
2, 29811, Note_on_c, 0, 57, 0
2, 29935, Note_on_c, 0, 62, 0
2, 30081, Note_on_c, 0, 61, 35
2, 30085, Note_on_c, 0, 69, 38
2, 30095, Note_on_c, 0, 57, 26
2, 30172, Control_c, 0, 64, 0
2, 30363, Control_c, 0, 64, 127
2, 30477, Note_on_c, 0, 69, 0
2, 30491, Note_on_c, 0, 61, 0
2, 30491, Note_on_c, 0, 57, 0
2, 31029, Control_c, 0, 64, 0
2, 31750, Note_on_c, 0, 76, 91
2, 32354, Note_on_c, 0, 59, 50
2, 32356, Note_on_c, 0, 74, 84
2, 32358, Note_on_c, 0, 68, 50
2, 32372, Note_on_c, 0, 52, 45
2, 32388, Note_on_c, 0, 76, 0
2, 32770, Control_c, 0, 64, 127
2, 33054, Note_on_c, 0, 61, 70
2, 33065, Note_on_c, 0, 76, 96
2, 33121, Note_on_c, 0, 74, 0
2, 33125, Note_on_c, 0, 59, 0
2, 33312, Note_on_c, 0, 59, 67
2, 33314, Note_on_c, 0, 74, 96
2, 33337, Note_on_c, 0, 61, 0
2, 33354, Note_on_c, 0, 76, 0
2, 33373, Control_c, 0, 64, 0
2, 33552, Control_c, 0, 64, 127
2, 33627, Note_on_c, 0, 68, 0
2, 33770, Note_on_c, 0, 73, 94
2, 33780, Note_on_c, 0, 57, 79
2, 33782, Note_on_c, 0, 69, 75
2, 33808, Control_c, 0, 64, 0
2, 33847, Note_on_c, 0, 59, 0
2, 33932, Note_on_c, 0, 74, 0
2, 33961, Control_c, 0, 64, 127
2, 34008, Note_on_c, 0, 52, 0
2, 34026, Note_on_c, 0, 69, 0
2, 34281, Note_on_c, 0, 73, 0
2, 34320, Note_on_c, 0, 62, 57
2, 34320, Note_on_c, 0, 68, 59
2, 34320, Note_on_c, 0, 71, 70
2, 34332, Note_on_c, 0, 57, 0
2, 34332, Note_on_c, 0, 52, 64
2, 34396, Control_c, 0, 64, 0
2, 34614, Control_c, 0, 64, 127
2, 34817, Note_on_c, 0, 62, 0
2, 34985, Note_on_c, 0, 73, 78
2, 34989, Note_on_c, 0, 71, 0
2, 35003, Note_on_c, 0, 64, 63
2, 35082, Note_on_c, 0, 68, 0
2, 35110, Note_on_c, 0, 64, 0
2, 35243, Note_on_c, 0, 62, 59
2, 35255, Note_on_c, 0, 71, 65
2, 35291, Note_on_c, 0, 73, 0
2, 35306, Control_c, 0, 64, 0
2, 35485, Control_c, 0, 64, 127
2, 35703, Control_c, 0, 64, 0
2, 35707, Note_on_c, 0, 61, 57
2, 35721, Note_on_c, 0, 69, 76
2, 35726, Note_on_c, 0, 64, 39
2, 35742, Note_on_c, 0, 62, 0
2, 35856, Control_c, 0, 64, 127
2, 35910, Note_on_c, 0, 64, 0
2, 35922, Note_on_c, 0, 71, 0
2, 35940, Note_on_c, 0, 52, 0
2, 35953, Note_on_c, 0, 61, 0
2, 35955, Note_on_c, 0, 69, 0
2, 36319, Note_on_c, 0, 76, 98
2, 36327, Note_on_c, 0, 59, 55
2, 36333, Note_on_c, 0, 68, 62
2, 36343, Control_c, 0, 64, 0
2, 36347, Note_on_c, 0, 52, 51
2, 36521, Control_c, 0, 64, 127
2, 36574, Note_on_c, 0, 74, 97
2, 36627, Note_on_c, 0, 68, 0
2, 36634, Note_on_c, 0, 76, 0
2, 36826, Note_on_c, 0, 73, 77
2, 36841, Control_c, 0, 64, 0
2, 36846, Note_on_c, 0, 69, 65
2, 36856, Note_on_c, 0, 57, 50
2, 36858, Note_on_c, 0, 74, 0
2, 36894, Note_on_c, 0, 59, 0
2, 37034, Control_c, 0, 64, 127
2, 37051, Note_on_c, 0, 69, 0
2, 37060, Note_on_c, 0, 73, 0
2, 37122, Note_on_c, 0, 52, 0
2, 37137, Note_on_c, 0, 57, 0
2, 37279, Note_on_c, 0, 76, 101
2, 37283, Note_on_c, 0, 68, 76
2, 37295, Note_on_c, 0, 52, 63
2, 37299, Note_on_c, 0, 59, 60
2, 37329, Control_c, 0, 64, 0
2, 37495, Control_c, 0, 64, 127
2, 37521, Note_on_c, 0, 74, 96
2, 37582, Note_on_c, 0, 76, 0
2, 37602, Note_on_c, 0, 68, 0
2, 37770, Note_on_c, 0, 73, 74
2, 37778, Note_on_c, 0, 59, 0
2, 37778, Note_on_c, 0, 57, 58
2, 37783, Note_on_c, 0, 74, 0
2, 37789, Note_on_c, 0, 69, 53
2, 37803, Control_c, 0, 64, 0
2, 37982, Control_c, 0, 64, 127
2, 37991, Note_on_c, 0, 52, 0
2, 38002, Note_on_c, 0, 57, 0
2, 38004, Note_on_c, 0, 69, 0
2, 38012, Note_on_c, 0, 73, 0
2, 38186, Control_c, 0, 64, 0
2, 38250, Note_on_c, 0, 71, 67
2, 38252, Note_on_c, 0, 68, 56
2, 38258, Note_on_c, 0, 64, 60
2, 38258, Note_on_c, 0, 52, 43
2, 38314, Control_c, 0, 64, 127
2, 38346, Note_on_c, 0, 52, 0
2, 38510, Note_on_c, 0, 63, 69
2, 38548, Note_on_c, 0, 64, 0
2, 38596, Control_c, 0, 64, 0
2, 38748, Note_on_c, 0, 64, 88
2, 38785, Note_on_c, 0, 63, 0
2, 38961, Note_on_c, 0, 66, 84
2, 38995, Note_on_c, 0, 64, 0
2, 39047, Note_on_c, 0, 68, 0
2, 39097, Control_c, 0, 64, 127
2, 39171, Note_on_c, 0, 71, 0
2, 39186, Note_on_c, 0, 64, 97
2, 39193, Note_on_c, 0, 66, 0
2, 39266, Note_on_c, 0, 64, 0
2, 39397, Note_on_c, 0, 62, 78
2, 39409, Note_on_c, 0, 64, 100
2, 39466, Control_c, 0, 64, 0
2, 39625, Note_on_c, 0, 66, 88
2, 39641, Note_on_c, 0, 61, 70
2, 39702, Note_on_c, 0, 62, 0
2, 39744, Note_on_c, 0, 64, 0
2, 39860, Note_on_c, 0, 59, 70
2, 39864, Note_on_c, 0, 68, 79
2, 39886, Note_on_c, 0, 61, 0
2, 39915, Control_c, 0, 64, 127
2, 39957, Note_on_c, 0, 66, 0
2, 39997, Note_on_c, 0, 59, 0
2, 39997, Note_on_c, 0, 68, 0
2, 40227, Note_on_c, 0, 76, 56
2, 40235, Note_on_c, 0, 61, 43
2, 40243, Note_on_c, 0, 69, 43
2, 40248, Note_on_c, 0, 57, 42
2, 40300, Control_c, 0, 64, 0
2, 40683, Control_c, 0, 64, 127
2, 40913, Note_on_c, 0, 68, 56
2, 40915, Note_on_c, 0, 62, 47
2, 40942, Note_on_c, 0, 61, 0
2, 40954, Note_on_c, 0, 69, 0
2, 41002, Note_on_c, 0, 76, 0
2, 41027, Note_on_c, 0, 68, 0
2, 41102, Note_on_c, 0, 62, 0
2, 41187, Note_on_c, 0, 69, 62
2, 41191, Note_on_c, 0, 61, 53
2, 41191, Note_on_c, 0, 76, 67
2, 41234, Control_c, 0, 64, 0
2, 41426, Control_c, 0, 64, 127
2, 41443, Note_on_c, 0, 76, 0
2, 41533, Note_on_c, 0, 69, 0
2, 41646, Note_on_c, 0, 76, 81
2, 41650, Note_on_c, 0, 64, 60
2, 41662, Note_on_c, 0, 73, 62
2, 41670, Control_c, 0, 64, 0
2, 41771, Control_c, 0, 64, 127
2, 41821, Note_on_c, 0, 76, 0
2, 41823, Note_on_c, 0, 73, 0
2, 41841, Note_on_c, 0, 57, 0
2, 41857, Note_on_c, 0, 61, 0
2, 41913, Note_on_c, 0, 64, 0
2, 42081, Note_on_c, 0, 71, 62
2, 42091, Control_c, 0, 64, 0
2, 42103, Note_on_c, 0, 57, 62
2, 42107, Note_on_c, 0, 62, 69
2, 42131, Note_on_c, 0, 76, 87
2, 42191, Note_on_c, 0, 71, 0
2, 42203, Note_on_c, 0, 78, 92
2, 42221, Control_c, 0, 64, 127
2, 42224, Note_on_c, 0, 76, 0
2, 42284, Note_on_c, 0, 78, 0
2, 42284, Note_on_c, 0, 76, 97
2, 42323, Note_on_c, 0, 76, 0
2, 42329, Note_on_c, 0, 78, 95
2, 42392, Note_on_c, 0, 76, 95
2, 42430, Note_on_c, 0, 78, 0
2, 42469, Note_on_c, 0, 76, 0
2, 42474, Note_on_c, 0, 75, 88
2, 42525, Note_on_c, 0, 76, 108
2, 42566, Note_on_c, 0, 75, 0
2, 42612, Note_on_c, 0, 78, 100
2, 42702, Note_on_c, 0, 76, 0
2, 42843, Note_on_c, 0, 80, 101
2, 42896, Note_on_c, 0, 78, 0
2, 43009, Note_on_c, 0, 80, 0
2, 43091, Note_on_c, 0, 81, 79
2, 43103, Note_on_c, 0, 61, 52
2, 43107, Note_on_c, 0, 69, 64
2, 43119, Note_on_c, 0, 62, 0
2, 43168, Control_c, 0, 64, 0
2, 43397, Control_c, 0, 64, 127
2, 43562, Note_on_c, 0, 57, 0
2, 43606, Note_on_c, 0, 76, 82
2, 43618, Note_on_c, 0, 81, 0
2, 43634, Note_on_c, 0, 61, 0
2, 43694, Note_on_c, 0, 69, 0
2, 43711, Note_on_c, 0, 76, 0
2, 44036, Note_on_c, 0, 76, 68
2, 44036, Note_on_c, 0, 57, 43
2, 44045, Note_on_c, 0, 68, 42
2, 44047, Note_on_c, 0, 59, 46
2, 44127, Control_c, 0, 64, 0
2, 44346, Control_c, 0, 64, 127
2, 44523, Note_on_c, 0, 71, 49
2, 44523, Note_on_c, 0, 62, 42
2, 44532, Note_on_c, 0, 76, 0
2, 44539, Note_on_c, 0, 68, 0
2, 44623, Note_on_c, 0, 71, 0
2, 44640, Note_on_c, 0, 62, 0
2, 44642, Note_on_c, 0, 59, 0
2, 44648, Note_on_c, 0, 57, 0
2, 44994, Note_on_c, 0, 68, 42
2, 45011, Note_on_c, 0, 76, 51
2, 45016, Note_on_c, 0, 57, 41
2, 45018, Note_on_c, 0, 59, 37
2, 45024, Control_c, 0, 64, 0
2, 45216, Control_c, 0, 64, 127
2, 45228, Note_on_c, 0, 76, 0
2, 45290, Note_on_c, 0, 68, 0
2, 45491, Note_on_c, 0, 76, 65
2, 45494, Note_on_c, 0, 62, 40
2, 45500, Note_on_c, 0, 71, 37
2, 45522, Control_c, 0, 64, 0
2, 45671, Note_on_c, 0, 76, 0
2, 45688, Note_on_c, 0, 59, 0
2, 45690, Control_c, 0, 64, 127
2, 45706, Note_on_c, 0, 57, 0
2, 45710, Note_on_c, 0, 71, 0
2, 45786, Note_on_c, 0, 62, 0
2, 46057, Note_on_c, 0, 69, 45
2, 46060, Note_on_c, 0, 61, 34
2, 46080, Note_on_c, 0, 57, 25
2, 46126, Control_c, 0, 64, 0
2, 46305, Control_c, 0, 64, 127
2, 46489, Note_on_c, 0, 57, 0
2, 46527, Note_on_c, 0, 69, 0
2, 46527, Note_on_c, 0, 61, 0
2, 46931, Control_c, 0, 64, 0
2, 47647, Note_on_c, 0, 76, 56
2, 48172, Note_on_c, 0, 76, 0
2, 48172, Note_on_c, 0, 59, 38
2, 48180, Note_on_c, 0, 52, 50
2, 48188, Note_on_c, 0, 74, 59
2, 48196, Note_on_c, 0, 68, 30
2, 48443, Control_c, 0, 64, 127
2, 48830, Note_on_c, 0, 61, 44
2, 48832, Note_on_c, 0, 74, 0
2, 48864, Note_on_c, 0, 76, 70
2, 48884, Note_on_c, 0, 59, 0
2, 49072, Note_on_c, 0, 68, 0
2, 49097, Note_on_c, 0, 59, 57
2, 49109, Note_on_c, 0, 61, 0
2, 49119, Note_on_c, 0, 74, 64
2, 49134, Note_on_c, 0, 76, 0
2, 49172, Control_c, 0, 64, 0
2, 49364, Control_c, 0, 64, 127
2, 49551, Note_on_c, 0, 73, 71
2, 49564, Note_on_c, 0, 69, 48
2, 49564, Note_on_c, 0, 57, 53
2, 49571, Note_on_c, 0, 59, 0
2, 49582, Control_c, 0, 64, 0
2, 49585, Note_on_c, 0, 74, 0
2, 49748, Control_c, 0, 64, 127
2, 49827, Note_on_c, 0, 69, 0
2, 49852, Note_on_c, 0, 52, 0
2, 49949, Note_on_c, 0, 73, 0
2, 50041, Note_on_c, 0, 71, 65
2, 50041, Note_on_c, 0, 68, 44
2, 50052, Note_on_c, 0, 57, 0
2, 50052, Note_on_c, 0, 62, 44
2, 50056, Note_on_c, 0, 52, 37
2, 50068, Control_c, 0, 64, 0
2, 50260, Control_c, 0, 64, 127
2, 50456, Note_on_c, 0, 62, 0
2, 50611, Note_on_c, 0, 71, 0
2, 50672, Note_on_c, 0, 73, 79
2, 50692, Note_on_c, 0, 64, 70
2, 50724, Note_on_c, 0, 68, 0
2, 50807, Note_on_c, 0, 64, 0
2, 50923, Note_on_c, 0, 62, 61
2, 50925, Note_on_c, 0, 71, 82
2, 50981, Note_on_c, 0, 73, 0
2, 51016, Control_c, 0, 64, 0
2, 51170, Control_c, 0, 64, 127
2, 51337, Control_c, 0, 64, 0
2, 51344, Note_on_c, 0, 61, 67
2, 51349, Note_on_c, 0, 69, 86
2, 51355, Note_on_c, 0, 64, 58
2, 51439, Control_c, 0, 64, 127
2, 51463, Note_on_c, 0, 62, 0
2, 51512, Note_on_c, 0, 71, 0
2, 51522, Note_on_c, 0, 64, 0
2, 51534, Note_on_c, 0, 52, 0
2, 51552, Note_on_c, 0, 61, 0
2, 51562, Note_on_c, 0, 69, 0
2, 51795, Note_on_c, 0, 76, 95
2, 51801, Note_on_c, 0, 68, 68
2, 51807, Note_on_c, 0, 59, 56
2, 51823, Note_on_c, 0, 52, 49
2, 51836, Control_c, 0, 64, 0
2, 52003, Control_c, 0, 64, 127
2, 52022, Note_on_c, 0, 74, 99
2, 52064, Note_on_c, 0, 68, 0
2, 52068, Note_on_c, 0, 76, 0
2, 52308, Note_on_c, 0, 73, 77
2, 52321, Note_on_c, 0, 69, 60
2, 52343, Note_on_c, 0, 57, 41
2, 52347, Note_on_c, 0, 74, 0
2, 52361, Control_c, 0, 64, 0
2, 52363, Note_on_c, 0, 59, 0
2, 52553, Control_c, 0, 64, 127
2, 52570, Note_on_c, 0, 52, 0
2, 52576, Note_on_c, 0, 69, 0
2, 52590, Note_on_c, 0, 73, 0
2, 52652, Note_on_c, 0, 57, 0
2, 52751, Note_on_c, 0, 76, 97
2, 52758, Note_on_c, 0, 68, 69
2, 52758, Note_on_c, 0, 52, 44
2, 52761, Note_on_c, 0, 59, 59
2, 52809, Control_c, 0, 64, 0
2, 52961, Control_c, 0, 64, 127
2, 52986, Note_on_c, 0, 74, 94
2, 53040, Note_on_c, 0, 76, 0
2, 53040, Note_on_c, 0, 68, 0
2, 53254, Note_on_c, 0, 73, 72
2, 53263, Note_on_c, 0, 59, 0
2, 53266, Note_on_c, 0, 57, 51
2, 53270, Control_c, 0, 64, 0
2, 53272, Note_on_c, 0, 69, 47
2, 53300, Note_on_c, 0, 74, 0
2, 53474, Note_on_c, 0, 52, 0
2, 53474, Note_on_c, 0, 69, 0
2, 53474, Control_c, 0, 64, 127
2, 53499, Note_on_c, 0, 57, 0
2, 53503, Note_on_c, 0, 73, 0
2, 53719, Control_c, 0, 64, 0
2, 53752, Note_on_c, 0, 64, 55
2, 53752, Note_on_c, 0, 71, 60
2, 53759, Note_on_c, 0, 68, 44
2, 53763, Note_on_c, 0, 52, 39
2, 53833, Control_c, 0, 64, 127
2, 53847, Note_on_c, 0, 52, 0
2, 54032, Note_on_c, 0, 63, 70
2, 54081, Note_on_c, 0, 64, 0
2, 54192, Control_c, 0, 64, 0
2, 54271, Note_on_c, 0, 64, 99
2, 54314, Note_on_c, 0, 63, 0
2, 54487, Note_on_c, 0, 66, 95
2, 54542, Note_on_c, 0, 64, 0
2, 54589, Control_c, 0, 64, 127
2, 54612, Note_on_c, 0, 68, 0
2, 54700, Note_on_c, 0, 71, 0
2, 54716, Note_on_c, 0, 64, 102
2, 54726, Note_on_c, 0, 66, 0
2, 54791, Note_on_c, 0, 64, 0
2, 54926, Note_on_c, 0, 62, 84
2, 54930, Note_on_c, 0, 64, 105
2, 54960, Control_c, 0, 64, 0
2, 55142, Note_on_c, 0, 66, 88
2, 55152, Note_on_c, 0, 61, 81
2, 55215, Note_on_c, 0, 62, 0
2, 55256, Note_on_c, 0, 64, 0
2, 55367, Note_on_c, 0, 68, 85
2, 55374, Note_on_c, 0, 59, 67
2, 55399, Note_on_c, 0, 61, 0
2, 55415, Note_on_c, 0, 66, 0
2, 55675, Note_on_c, 0, 68, 0
2, 55710, Note_on_c, 0, 59, 0
2, 55754, Note_on_c, 0, 61, 48
2, 55757, Note_on_c, 0, 76, 51
2, 55761, Note_on_c, 0, 57, 41
2, 55767, Note_on_c, 0, 69, 40
2, 56047, Control_c, 0, 64, 127
2, 56495, Note_on_c, 0, 68, 55
2, 56507, Note_on_c, 0, 62, 40
2, 56525, Note_on_c, 0, 69, 0
2, 56537, Note_on_c, 0, 61, 0
2, 56578, Note_on_c, 0, 76, 0
2, 56651, Note_on_c, 0, 68, 0
2, 56653, Note_on_c, 0, 62, 0
2, 56769, Note_on_c, 0, 61, 54
2, 56784, Note_on_c, 0, 69, 54
2, 56788, Note_on_c, 0, 76, 54
2, 56868, Control_c, 0, 64, 0
2, 57022, Control_c, 0, 64, 127
2, 57051, Note_on_c, 0, 76, 0
2, 57179, Note_on_c, 0, 69, 0
2, 57231, Note_on_c, 0, 61, 0
2, 57242, Note_on_c, 0, 76, 80
2, 57254, Note_on_c, 0, 64, 58
2, 57256, Note_on_c, 0, 73, 56
2, 57264, Control_c, 0, 64, 0
2, 57392, Control_c, 0, 64, 127
2, 57410, Note_on_c, 0, 76, 0
2, 57418, Note_on_c, 0, 73, 0
2, 57469, Note_on_c, 0, 57, 0
2, 57532, Note_on_c, 0, 64, 0
2, 57676, Note_on_c, 0, 71, 47
2, 57710, Note_on_c, 0, 57, 54
2, 57725, Note_on_c, 0, 62, 49
2, 57725, Control_c, 0, 64, 0
2, 57746, Note_on_c, 0, 76, 84
2, 57761, Note_on_c, 0, 71, 0
2, 57817, Note_on_c, 0, 78, 87
2, 57831, Note_on_c, 0, 76, 0
2, 57842, Control_c, 0, 64, 127
2, 57886, Note_on_c, 0, 76, 100
2, 57897, Note_on_c, 0, 78, 0
2, 57947, Note_on_c, 0, 78, 93
2, 57956, Note_on_c, 0, 76, 0
2, 58021, Note_on_c, 0, 76, 96
2, 58041, Note_on_c, 0, 78, 0
2, 58065, Note_on_c, 0, 76, 0
2, 58079, Note_on_c, 0, 75, 85
2, 58129, Note_on_c, 0, 76, 102
2, 58165, Note_on_c, 0, 75, 0
2, 58246, Note_on_c, 0, 78, 92
2, 58305, Note_on_c, 0, 76, 0
2, 58487, Note_on_c, 0, 80, 90
2, 58516, Note_on_c, 0, 78, 0
2, 58641, Note_on_c, 0, 80, 0
2, 58756, Note_on_c, 0, 62, 0
2, 58764, Note_on_c, 0, 81, 72
2, 58778, Note_on_c, 0, 61, 39
2, 58783, Note_on_c, 0, 69, 45
2, 58866, Control_c, 0, 64, 0
2, 59083, Control_c, 0, 64, 127
2, 59249, Note_on_c, 0, 76, 75
2, 59259, Note_on_c, 0, 81, 0
2, 59269, Note_on_c, 0, 57, 0
2, 59328, Note_on_c, 0, 61, 0
2, 59330, Note_on_c, 0, 69, 0
2, 59335, Note_on_c, 0, 76, 0
2, 59700, Note_on_c, 0, 68, 47
2, 59704, Note_on_c, 0, 76, 67
2, 59716, Note_on_c, 0, 57, 55
2, 59730, Note_on_c, 0, 59, 37
2, 59787, Control_c, 0, 64, 0
2, 60004, Control_c, 0, 64, 127
2, 60180, Note_on_c, 0, 62, 49
2, 60186, Note_on_c, 0, 71, 54
2, 60202, Note_on_c, 0, 76, 0
2, 60226, Note_on_c, 0, 68, 0
2, 60273, Note_on_c, 0, 57, 0
2, 60277, Note_on_c, 0, 59, 0
2, 60277, Note_on_c, 0, 71, 0
2, 60305, Note_on_c, 0, 62, 0
2, 60662, Note_on_c, 0, 68, 39
2, 60669, Note_on_c, 0, 57, 45
2, 60669, Note_on_c, 0, 76, 57
2, 60682, Note_on_c, 0, 59, 36
2, 60696, Control_c, 0, 64, 0
2, 60889, Control_c, 0, 64, 127
2, 60912, Note_on_c, 0, 76, 0
2, 60954, Note_on_c, 0, 68, 0
2, 61138, Note_on_c, 0, 59, 0
2, 61186, Note_on_c, 0, 76, 61
2, 61201, Note_on_c, 0, 71, 34
2, 61201, Note_on_c, 0, 62, 29
2, 61222, Control_c, 0, 64, 0
2, 61371, Note_on_c, 0, 76, 0
2, 61373, Control_c, 0, 64, 127
2, 61408, Note_on_c, 0, 57, 0
2, 61416, Note_on_c, 0, 71, 0
2, 61468, Note_on_c, 0, 62, 0
2, 61778, Note_on_c, 0, 69, 40
2, 61804, Note_on_c, 0, 61, 29
2, 61817, Note_on_c, 0, 57, 23
2, 61875, Control_c, 0, 64, 0
2, 62079, Control_c, 0, 64, 127
2, 62217, Note_on_c, 0, 61, 0
2, 62219, Note_on_c, 0, 57, 0
2, 62222, Note_on_c, 0, 69, 0
2, 62911, Control_c, 0, 64, 0
2, 63351, Note_on_c, 0, 45, 60
2, 63602, Note_on_c, 0, 52, 63
2, 63801, Note_on_c, 0, 60, 56
2, 63808, Note_on_c, 0, 57, 43
2, 63821, Note_on_c, 0, 52, 0
2, 63844, Note_on_c, 0, 60, 0
2, 63853, Note_on_c, 0, 57, 0
2, 64025, Note_on_c, 0, 60, 68
2, 64031, Note_on_c, 0, 57, 43
2, 64065, Note_on_c, 0, 60, 0
2, 64076, Note_on_c, 0, 57, 0
2, 64252, Note_on_c, 0, 40, 58
2, 64307, Note_on_c, 0, 45, 0
2, 64457, Note_on_c, 0, 52, 61
2, 64667, Note_on_c, 0, 56, 44
2, 64671, Note_on_c, 0, 59, 50
2, 64699, Note_on_c, 0, 52, 0
2, 64707, Note_on_c, 0, 59, 0
2, 64712, Note_on_c, 0, 56, 0
2, 64876, Note_on_c, 0, 59, 54
2, 64885, Note_on_c, 0, 56, 49
2, 64929, Note_on_c, 0, 59, 0
2, 64938, Note_on_c, 0, 56, 0
2, 65103, Note_on_c, 0, 33, 70
2, 65167, Note_on_c, 0, 40, 0
2, 65311, Note_on_c, 0, 52, 74
2, 65521, Note_on_c, 0, 61, 72
2, 65541, Note_on_c, 0, 52, 0
2, 65557, Note_on_c, 0, 61, 0
2, 65557, Note_on_c, 0, 55, 23
2, 65565, Note_on_c, 0, 57, 18
2, 65601, Note_on_c, 0, 55, 0
2, 65603, Note_on_c, 0, 57, 0
2, 65742, Note_on_c, 0, 61, 58
2, 65757, Note_on_c, 0, 55, 43
2, 65789, Note_on_c, 0, 61, 0
2, 65806, Note_on_c, 0, 55, 0
2, 65986, Note_on_c, 0, 38, 51
2, 66041, Note_on_c, 0, 33, 0
2, 66200, Note_on_c, 0, 53, 66
2, 66416, Note_on_c, 0, 62, 63
2, 66424, Note_on_c, 0, 53, 0
2, 66426, Note_on_c, 0, 57, 47
2, 66462, Note_on_c, 0, 62, 0
2, 66466, Note_on_c, 0, 57, 0
2, 66625, Note_on_c, 0, 62, 70
2, 66631, Note_on_c, 0, 57, 63
2, 66666, Note_on_c, 0, 62, 0
2, 66666, Note_on_c, 0, 57, 0
2, 66852, Note_on_c, 0, 45, 70
2, 66941, Note_on_c, 0, 38, 0
2, 67056, Note_on_c, 0, 57, 69
2, 67257, Note_on_c, 0, 61, 56
2, 67267, Note_on_c, 0, 64, 76
2, 67293, Note_on_c, 0, 57, 0
2, 67298, Note_on_c, 0, 61, 0
2, 67302, Note_on_c, 0, 64, 0
2, 67488, Note_on_c, 0, 64, 84
2, 67490, Note_on_c, 0, 61, 67
2, 67528, Note_on_c, 0, 61, 0
2, 67533, Note_on_c, 0, 64, 0
2, 67715, Note_on_c, 0, 50, 76
2, 67897, Note_on_c, 0, 45, 0
2, 67919, Note_on_c, 0, 57, 81
2, 68132, Note_on_c, 0, 65, 78
2, 68134, Note_on_c, 0, 62, 59
2, 68164, Note_on_c, 0, 57, 0
2, 68168, Note_on_c, 0, 65, 0
2, 68172, Note_on_c, 0, 62, 0
2, 68352, Note_on_c, 0, 65, 66
2, 68360, Note_on_c, 0, 62, 55
2, 68392, Note_on_c, 0, 65, 0
2, 68400, Note_on_c, 0, 62, 0
2, 68576, Note_on_c, 0, 43, 62
2, 68729, Note_on_c, 0, 50, 0
2, 68787, Note_on_c, 0, 59, 62
2, 69003, Note_on_c, 0, 67, 57
2, 69006, Note_on_c, 0, 62, 48
2, 69012, Note_on_c, 0, 59, 0
2, 69046, Note_on_c, 0, 67, 0
2, 69050, Note_on_c, 0, 62, 0
2, 69206, Note_on_c, 0, 62, 59
2, 69229, Note_on_c, 0, 67, 47
2, 69257, Note_on_c, 0, 62, 0
2, 69276, Note_on_c, 0, 67, 0
2, 69452, Note_on_c, 0, 48, 51
2, 69523, Note_on_c, 0, 43, 0
2, 69661, Note_on_c, 0, 55, 56
2, 69889, Note_on_c, 0, 64, 56
2, 69891, Note_on_c, 0, 55, 0
2, 69917, Note_on_c, 0, 60, 13
2, 69931, Note_on_c, 0, 64, 0
2, 69962, Note_on_c, 0, 60, 0
2, 70096, Note_on_c, 0, 60, 13
2, 70099, Note_on_c, 0, 64, 54
2, 70141, Note_on_c, 0, 60, 0
2, 70164, Note_on_c, 0, 64, 0
2, 70387, Note_on_c, 0, 45, 62
2, 70451, Note_on_c, 0, 48, 0
2, 70585, Note_on_c, 0, 64, 67
2, 70792, Note_on_c, 0, 72, 81
2, 70801, Note_on_c, 0, 69, 66
2, 70817, Note_on_c, 0, 64, 0
2, 70830, Note_on_c, 0, 72, 0
2, 70836, Note_on_c, 0, 69, 0
2, 71006, Note_on_c, 0, 72, 85
2, 71006, Note_on_c, 0, 69, 79
2, 71043, Note_on_c, 0, 72, 0
2, 71045, Note_on_c, 0, 69, 0
2, 71206, Note_on_c, 0, 47, 74
2, 71258, Note_on_c, 0, 45, 0
2, 71415, Note_on_c, 0, 63, 81
2, 71641, Note_on_c, 0, 66, 66
2, 71646, Note_on_c, 0, 71, 65
2, 71672, Note_on_c, 0, 63, 0
2, 71677, Note_on_c, 0, 71, 0
2, 71679, Note_on_c, 0, 66, 0
2, 71862, Note_on_c, 0, 71, 73
2, 71866, Note_on_c, 0, 66, 66
2, 71896, Note_on_c, 0, 71, 0
2, 71906, Note_on_c, 0, 66, 0
2, 72093, Note_on_c, 0, 51, 81
2, 72186, Note_on_c, 0, 47, 0
2, 72306, Note_on_c, 0, 59, 78
2, 72508, Note_on_c, 0, 66, 78
2, 72508, Note_on_c, 0, 69, 87
2, 72542, Note_on_c, 0, 59, 0
2, 72544, Note_on_c, 0, 66, 0
2, 72550, Note_on_c, 0, 69, 0
2, 72724, Note_on_c, 0, 69, 95
2, 72726, Note_on_c, 0, 66, 87
2, 72771, Note_on_c, 0, 66, 0
2, 72780, Note_on_c, 0, 69, 0
2, 72950, Note_on_c, 0, 52, 84
2, 73123, Note_on_c, 0, 51, 0
2, 73145, Note_on_c, 0, 59, 73
2, 73358, Note_on_c, 0, 68, 73
2, 73376, Note_on_c, 0, 62, 47
2, 73383, Note_on_c, 0, 59, 0
2, 73403, Note_on_c, 0, 68, 0
2, 73421, Note_on_c, 0, 62, 0
2, 73580, Note_on_c, 0, 62, 53
2, 73594, Note_on_c, 0, 68, 52
2, 73622, Note_on_c, 0, 62, 0
2, 73637, Note_on_c, 0, 68, 0
2, 73862, Note_on_c, 0, 53, 43
2, 73943, Note_on_c, 0, 52, 0
2, 74072, Note_on_c, 0, 57, 52
2, 74272, Note_on_c, 0, 60, 57
2, 74275, Note_on_c, 0, 57, 0
2, 74281, Note_on_c, 0, 69, 55
2, 74321, Note_on_c, 0, 60, 0
2, 74321, Note_on_c, 0, 69, 0
2, 74486, Note_on_c, 0, 60, 57
2, 74499, Note_on_c, 0, 69, 66
2, 74535, Note_on_c, 0, 60, 0
2, 74546, Note_on_c, 0, 69, 0
2, 74715, Note_on_c, 0, 50, 68
2, 74777, Note_on_c, 0, 53, 0
2, 74925, Note_on_c, 0, 59, 56
2, 75128, Note_on_c, 0, 65, 44
2, 75137, Note_on_c, 0, 69, 57
2, 75141, Note_on_c, 0, 59, 0
2, 75177, Note_on_c, 0, 69, 0
2, 75179, Note_on_c, 0, 65, 0
2, 75369, Note_on_c, 0, 69, 59
2, 75371, Note_on_c, 0, 65, 44
2, 75412, Note_on_c, 0, 69, 0
2, 75422, Note_on_c, 0, 65, 0
2, 75603, Note_on_c, 0, 52, 61
2, 75642, Note_on_c, 0, 50, 0
2, 75819, Note_on_c, 0, 59, 54
2, 76021, Note_on_c, 0, 59, 0
2, 76024, Note_on_c, 0, 68, 68
2, 76062, Note_on_c, 0, 62, 25
2, 76066, Note_on_c, 0, 68, 0
2, 76116, Note_on_c, 0, 62, 0
2, 76233, Note_on_c, 0, 62, 34
2, 76240, Note_on_c, 0, 68, 69
2, 76284, Note_on_c, 0, 62, 0
2, 76284, Note_on_c, 0, 68, 0
2, 76487, Note_on_c, 0, 45, 49
2, 76531, Note_on_c, 0, 52, 0
2, 76692, Note_on_c, 0, 57, 55
2, 76915, Note_on_c, 0, 57, 0
2, 76918, Note_on_c, 0, 69, 60
2, 76926, Note_on_c, 0, 60, 39
2, 76956, Note_on_c, 0, 69, 0
2, 76982, Note_on_c, 0, 60, 0
2, 77127, Note_on_c, 0, 60, 62
2, 77127, Note_on_c, 0, 69, 82
2, 77167, Note_on_c, 0, 60, 0
2, 77174, Note_on_c, 0, 69, 0
2, 77430, Note_on_c, 0, 53, 57
2, 77433, Note_on_c, 0, 41, 58
2, 77475, Note_on_c, 0, 45, 0
2, 77658, Note_on_c, 0, 63, 68
2, 77864, Note_on_c, 0, 75, 72
2, 77876, Note_on_c, 0, 72, 71
2, 77890, Note_on_c, 0, 63, 0
2, 77908, Note_on_c, 0, 75, 0
2, 77913, Note_on_c, 0, 72, 0
2, 78070, Note_on_c, 0, 72, 91
2, 78070, Note_on_c, 0, 75, 87
2, 78203, Note_on_c, 0, 75, 0
2, 78211, Note_on_c, 0, 53, 0
2, 78219, Note_on_c, 0, 41, 0
2, 78219, Note_on_c, 0, 72, 0
2, 78285, Note_on_c, 0, 53, 79
2, 78292, Note_on_c, 0, 41, 80
2, 78486, Note_on_c, 0, 63, 95
2, 78692, Note_on_c, 0, 75, 95
2, 78694, Note_on_c, 0, 71, 85
2, 78716, Note_on_c, 0, 63, 0
2, 78725, Note_on_c, 0, 71, 0
2, 78747, Note_on_c, 0, 75, 0
2, 78907, Note_on_c, 0, 75, 97
2, 78910, Note_on_c, 0, 71, 95
2, 78996, Note_on_c, 0, 75, 0
2, 79025, Note_on_c, 0, 71, 0
2, 79029, Note_on_c, 0, 41, 0
2, 79039, Note_on_c, 0, 53, 0
2, 79119, Note_on_c, 0, 53, 103
2, 79126, Note_on_c, 0, 41, 96
2, 79332, Note_on_c, 0, 63, 107
2, 79545, Note_on_c, 0, 75, 106
2, 79547, Note_on_c, 0, 69, 103
2, 79567, Note_on_c, 0, 63, 0
2, 79584, Note_on_c, 0, 69, 0
2, 79618, Note_on_c, 0, 75, 0
2, 79760, Note_on_c, 0, 69, 105
2, 79760, Note_on_c, 0, 75, 107
2, 79812, Note_on_c, 0, 69, 0
2, 79830, Note_on_c, 0, 75, 0
2, 79848, Note_on_c, 0, 41, 0
2, 79861, Note_on_c, 0, 53, 0
2, 79985, Note_on_c, 0, 52, 97
2, 79993, Note_on_c, 0, 40, 102
2, 80197, Note_on_c, 0, 64, 97
2, 80416, Note_on_c, 0, 68, 78
2, 80427, Note_on_c, 0, 64, 0
2, 80427, Note_on_c, 0, 76, 83
2, 80451, Note_on_c, 0, 68, 0
2, 80467, Note_on_c, 0, 76, 0
2, 80639, Note_on_c, 0, 76, 79
2, 80651, Note_on_c, 0, 68, 68
2, 80671, Note_on_c, 0, 76, 0
2, 80679, Note_on_c, 0, 40, 0
2, 80689, Note_on_c, 0, 68, 0
2, 80718, Note_on_c, 0, 52, 0
2, 80930, Note_on_c, 0, 53, 52
2, 81161, Note_on_c, 0, 60, 60
2, 81391, Note_on_c, 0, 69, 54
2, 81391, Note_on_c, 0, 72, 45
2, 81396, Note_on_c, 0, 60, 0
2, 81431, Note_on_c, 0, 69, 0
2, 81442, Note_on_c, 0, 72, 0
2, 81592, Note_on_c, 0, 69, 57
2, 81592, Note_on_c, 0, 72, 60
2, 81636, Note_on_c, 0, 69, 0
2, 81641, Note_on_c, 0, 72, 0
2, 81837, Note_on_c, 0, 50, 54
2, 81891, Note_on_c, 0, 53, 0
2, 82058, Note_on_c, 0, 65, 55
2, 82250, Note_on_c, 0, 65, 0
2, 82281, Note_on_c, 0, 71, 27
2, 82294, Note_on_c, 0, 69, 23
2, 82323, Note_on_c, 0, 71, 0
2, 82340, Note_on_c, 0, 69, 0
2, 82495, Note_on_c, 0, 71, 37
2, 82527, Note_on_c, 0, 69, 22
2, 82536, Note_on_c, 0, 71, 0
2, 82568, Note_on_c, 0, 69, 0
2, 82720, Note_on_c, 0, 52, 57
2, 82754, Note_on_c, 0, 50, 0
2, 82944, Note_on_c, 0, 62, 51
2, 83128, Note_on_c, 0, 71, 37
2, 83146, Note_on_c, 0, 68, 51
2, 83169, Note_on_c, 0, 71, 0
2, 83177, Note_on_c, 0, 62, 0
2, 83190, Note_on_c, 0, 68, 0
2, 83366, Note_on_c, 0, 68, 47
2, 83380, Note_on_c, 0, 71, 37
2, 83418, Note_on_c, 0, 68, 0
2, 83421, Note_on_c, 0, 71, 0
2, 83593, Note_on_c, 0, 45, 66
2, 83637, Note_on_c, 0, 52, 0
2, 83804, Note_on_c, 0, 60, 64
2, 84029, Note_on_c, 0, 60, 0
2, 84029, Note_on_c, 0, 72, 66
2, 84051, Note_on_c, 0, 69, 39
2, 84071, Note_on_c, 0, 72, 0
2, 84099, Note_on_c, 0, 69, 0
2, 84248, Note_on_c, 0, 69, 62
2, 84264, Note_on_c, 0, 72, 61
2, 84284, Note_on_c, 0, 69, 0
2, 84302, Note_on_c, 0, 72, 0
2, 84508, Note_on_c, 0, 41, 70
2, 84538, Note_on_c, 0, 45, 0
2, 84719, Note_on_c, 0, 69, 65
2, 84926, Note_on_c, 0, 81, 83
2, 84933, Note_on_c, 0, 69, 0
2, 84937, Note_on_c, 0, 72, 77
2, 84963, Note_on_c, 0, 81, 0
2, 84971, Note_on_c, 0, 72, 0
2, 85147, Note_on_c, 0, 72, 97
2, 85147, Note_on_c, 0, 81, 94
2, 85191, Note_on_c, 0, 81, 0
2, 85214, Note_on_c, 0, 72, 0
2, 85381, Note_on_c, 0, 39, 89
2, 85427, Note_on_c, 0, 41, 0
2, 85595, Note_on_c, 0, 69, 101
2, 85807, Note_on_c, 0, 71, 86
2, 85810, Note_on_c, 0, 81, 96
2, 85820, Note_on_c, 0, 69, 0
2, 85888, Note_on_c, 0, 71, 0
2, 85895, Note_on_c, 0, 81, 0
2, 86021, Note_on_c, 0, 81, 109
2, 86021, Note_on_c, 0, 71, 92
2, 86052, Note_on_c, 0, 81, 0
2, 86066, Note_on_c, 0, 71, 0
2, 86261, Note_on_c, 0, 40, 101
2, 86302, Note_on_c, 0, 39, 0
2, 86483, Note_on_c, 0, 68, 93
2, 86630, Note_on_c, 0, 68, 0
2, 86697, Note_on_c, 0, 80, 102
2, 86711, Note_on_c, 0, 71, 72
2, 86736, Note_on_c, 0, 71, 0
2, 86777, Note_on_c, 0, 80, 0
2, 86949, Note_on_c, 0, 80, 103
2, 86952, Note_on_c, 0, 71, 80
2, 86984, Note_on_c, 0, 71, 0
2, 87022, Note_on_c, 0, 80, 0
2, 87340, Note_on_c, 0, 81, 103
2, 87352, Note_on_c, 0, 33, 66
2, 87354, Note_on_c, 0, 45, 69
2, 87360, Note_on_c, 0, 69, 75
2, 87370, Note_on_c, 0, 40, 0
2, 88150, Control_c, 0, 64, 127
2, 88216, Note_on_c, 0, 81, 0
2, 88275, Note_on_c, 0, 69, 0
2, 88946, Note_on_c, 0, 64, 47
2, 89047, Control_c, 0, 64, 0
2, 89135, Control_c, 0, 64, 127
2, 89178, Note_on_c, 0, 66, 62
2, 89237, Note_on_c, 0, 33, 0
2, 89292, Note_on_c, 0, 45, 0
2, 89408, Note_on_c, 0, 68, 81
2, 89415, Note_on_c, 0, 64, 0
2, 89451, Note_on_c, 0, 66, 0
2, 89479, Note_on_c, 0, 68, 0
2, 89766, Note_on_c, 0, 76, 55
2, 89768, Note_on_c, 0, 61, 41
2, 89774, Note_on_c, 0, 57, 39
2, 89786, Note_on_c, 0, 69, 44
2, 89891, Control_c, 0, 64, 0
2, 90083, Control_c, 0, 64, 127
2, 90444, Note_on_c, 0, 59, 62
2, 90444, Note_on_c, 0, 68, 73
2, 90463, Note_on_c, 0, 61, 0
2, 90466, Note_on_c, 0, 76, 0
2, 90519, Note_on_c, 0, 69, 0
2, 90628, Note_on_c, 0, 68, 0
2, 90661, Note_on_c, 0, 59, 0
2, 90702, Note_on_c, 0, 61, 59
2, 90704, Note_on_c, 0, 76, 87
2, 90706, Note_on_c, 0, 69, 81
2, 90762, Control_c, 0, 64, 0
2, 90929, Control_c, 0, 64, 127
2, 90978, Note_on_c, 0, 76, 0
2, 91131, Note_on_c, 0, 76, 92
2, 91138, Note_on_c, 0, 73, 82
2, 91150, Note_on_c, 0, 64, 66
2, 91187, Note_on_c, 0, 69, 0
2, 91228, Note_on_c, 0, 57, 0
2, 91279, Note_on_c, 0, 76, 0
2, 91286, Note_on_c, 0, 73, 0
2, 91318, Note_on_c, 0, 61, 0
2, 91348, Note_on_c, 0, 64, 0
2, 91569, Control_c, 0, 64, 0
2, 91575, Note_on_c, 0, 71, 59
2, 91591, Note_on_c, 0, 62, 78
2, 91594, Note_on_c, 0, 57, 72
2, 91652, Note_on_c, 0, 76, 82
2, 91683, Control_c, 0, 64, 127
2, 91715, Note_on_c, 0, 71, 0
2, 91721, Note_on_c, 0, 78, 88
2, 91731, Note_on_c, 0, 76, 0
2, 91791, Note_on_c, 0, 76, 99
2, 91808, Note_on_c, 0, 78, 0
2, 91854, Note_on_c, 0, 78, 95
2, 91868, Note_on_c, 0, 76, 0
2, 91915, Note_on_c, 0, 76, 73
2, 91952, Note_on_c, 0, 78, 0
2, 91991, Note_on_c, 0, 75, 90
2, 91993, Note_on_c, 0, 76, 0
2, 92045, Note_on_c, 0, 76, 106
2, 92089, Note_on_c, 0, 75, 0
2, 92156, Note_on_c, 0, 78, 97
2, 92239, Note_on_c, 0, 76, 0
2, 92371, Note_on_c, 0, 80, 99
2, 92430, Note_on_c, 0, 78, 0
2, 92531, Note_on_c, 0, 80, 0
2, 92631, Note_on_c, 0, 81, 80
2, 92642, Note_on_c, 0, 69, 57
2, 92645, Note_on_c, 0, 61, 54
2, 92671, Note_on_c, 0, 62, 0
2, 92733, Control_c, 0, 64, 0
2, 92964, Control_c, 0, 64, 127
2, 93104, Note_on_c, 0, 57, 0
2, 93108, Note_on_c, 0, 69, 0
2, 93114, Note_on_c, 0, 76, 82
2, 93120, Note_on_c, 0, 81, 0
2, 93150, Note_on_c, 0, 61, 0
2, 93179, Note_on_c, 0, 76, 0
2, 93714, Note_on_c, 0, 68, 41
2, 93721, Note_on_c, 0, 76, 62
2, 93723, Note_on_c, 0, 57, 44
2, 93741, Note_on_c, 0, 59, 40
2, 93846, Control_c, 0, 64, 0
2, 94040, Control_c, 0, 64, 127
2, 94208, Note_on_c, 0, 62, 43
2, 94220, Note_on_c, 0, 71, 49
2, 94234, Note_on_c, 0, 76, 0
2, 94268, Note_on_c, 0, 68, 0
2, 94286, Note_on_c, 0, 71, 0
2, 94345, Note_on_c, 0, 57, 0
2, 94348, Note_on_c, 0, 62, 0
2, 94352, Note_on_c, 0, 59, 0
2, 94672, Note_on_c, 0, 68, 40
2, 94678, Note_on_c, 0, 76, 58
2, 94690, Note_on_c, 0, 59, 38
2, 94694, Note_on_c, 0, 57, 40
2, 94744, Control_c, 0, 64, 0
2, 94872, Control_c, 0, 64, 127
2, 94919, Note_on_c, 0, 76, 0
2, 95005, Note_on_c, 0, 68, 0
2, 95140, Note_on_c, 0, 62, 51
2, 95142, Note_on_c, 0, 76, 75
2, 95150, Note_on_c, 0, 71, 48
2, 95180, Control_c, 0, 64, 0
2, 95294, Control_c, 0, 64, 127
2, 95306, Note_on_c, 0, 71, 0
2, 95312, Note_on_c, 0, 76, 0
2, 95330, Note_on_c, 0, 59, 0
2, 95347, Note_on_c, 0, 57, 0
2, 95406, Note_on_c, 0, 62, 0
2, 95609, Note_on_c, 0, 61, 55
2, 95632, Note_on_c, 0, 76, 68
2, 95641, Note_on_c, 0, 57, 28
2, 95641, Note_on_c, 0, 69, 54
2, 95653, Control_c, 0, 64, 0
2, 95855, Note_on_c, 0, 75, 73
2, 95919, Note_on_c, 0, 76, 0
2, 96081, Note_on_c, 0, 76, 101
2, 96150, Note_on_c, 0, 69, 0
2, 96155, Note_on_c, 0, 75, 0
2, 96279, Note_on_c, 0, 57, 0
2, 96299, Note_on_c, 0, 78, 90
2, 96348, Note_on_c, 0, 76, 0
2, 96352, Note_on_c, 0, 61, 0
2, 96534, Note_on_c, 0, 76, 88
2, 96605, Note_on_c, 0, 78, 0
2, 96718, Note_on_c, 0, 66, 53
2, 96743, Note_on_c, 0, 76, 0
2, 96743, Note_on_c, 0, 74, 80
2, 96952, Note_on_c, 0, 73, 81
2, 96967, Note_on_c, 0, 64, 85
2, 96977, Note_on_c, 0, 66, 0
2, 96981, Note_on_c, 0, 74, 0
2, 97167, Note_on_c, 0, 62, 79
2, 97169, Note_on_c, 0, 71, 79
2, 97221, Note_on_c, 0, 64, 0
2, 97228, Note_on_c, 0, 73, 0
2, 97475, Note_on_c, 0, 61, 57
2, 97482, Note_on_c, 0, 69, 62
2, 97484, Note_on_c, 0, 57, 40
2, 97486, Note_on_c, 0, 76, 68
2, 97488, Note_on_c, 0, 71, 0
2, 97528, Note_on_c, 0, 62, 0
2, 97767, Control_c, 0, 64, 127
2, 98137, Note_on_c, 0, 68, 77
2, 98149, Note_on_c, 0, 59, 68
2, 98177, Note_on_c, 0, 76, 0
2, 98196, Note_on_c, 0, 61, 0
2, 98196, Note_on_c, 0, 69, 0
2, 98388, Note_on_c, 0, 61, 62
2, 98395, Note_on_c, 0, 76, 78
2, 98401, Note_on_c, 0, 59, 0
2, 98401, Note_on_c, 0, 69, 80
2, 98404, Note_on_c, 0, 68, 0
2, 98456, Control_c, 0, 64, 0
2, 98661, Control_c, 0, 64, 127
2, 98703, Note_on_c, 0, 76, 0
2, 98856, Note_on_c, 0, 76, 60
2, 98864, Note_on_c, 0, 73, 56
2, 98866, Note_on_c, 0, 64, 51
2, 98892, Note_on_c, 0, 69, 0
2, 98969, Note_on_c, 0, 57, 0
2, 98978, Note_on_c, 0, 73, 0
2, 98988, Note_on_c, 0, 76, 0
2, 99038, Note_on_c, 0, 61, 0
2, 99059, Note_on_c, 0, 64, 0
2, 99275, Note_on_c, 0, 71, 46
2, 99319, Note_on_c, 0, 62, 64
2, 99322, Note_on_c, 0, 57, 62
2, 99328, Control_c, 0, 64, 0
2, 99370, Note_on_c, 0, 71, 0
2, 99370, Note_on_c, 0, 76, 86
2, 99430, Control_c, 0, 64, 127
2, 99442, Note_on_c, 0, 78, 89
2, 99452, Note_on_c, 0, 76, 0
2, 99506, Note_on_c, 0, 76, 100
2, 99516, Note_on_c, 0, 78, 0
2, 99571, Note_on_c, 0, 78, 92
2, 99581, Note_on_c, 0, 76, 0
2, 99637, Note_on_c, 0, 76, 106
2, 99676, Note_on_c, 0, 78, 0
2, 99702, Note_on_c, 0, 75, 92
2, 99715, Note_on_c, 0, 76, 0
2, 99751, Note_on_c, 0, 76, 81
2, 99802, Note_on_c, 0, 75, 0
2, 99898, Note_on_c, 0, 78, 102
2, 99963, Note_on_c, 0, 76, 0
2, 100123, Note_on_c, 0, 80, 101
2, 100174, Note_on_c, 0, 78, 0
2, 100307, Note_on_c, 0, 80, 0
2, 100377, Note_on_c, 0, 81, 85
2, 100387, Note_on_c, 0, 61, 49
2, 100391, Note_on_c, 0, 69, 51
2, 100421, Note_on_c, 0, 62, 0
2, 100468, Control_c, 0, 64, 0
2, 100736, Control_c, 0, 64, 127
2, 100868, Note_on_c, 0, 57, 0
2, 100868, Note_on_c, 0, 76, 78
2, 100876, Note_on_c, 0, 81, 0
2, 100876, Note_on_c, 0, 61, 0
2, 100921, Note_on_c, 0, 76, 0
2, 100964, Note_on_c, 0, 69, 0
2, 101356, Note_on_c, 0, 76, 57
2, 101359, Note_on_c, 0, 68, 30
2, 101379, Note_on_c, 0, 57, 44
2, 101383, Note_on_c, 0, 59, 42
2, 101453, Control_c, 0, 64, 0
2, 101631, Control_c, 0, 64, 127
2, 101815, Note_on_c, 0, 62, 47
2, 101817, Note_on_c, 0, 71, 53
2, 101843, Note_on_c, 0, 76, 0
2, 101860, Note_on_c, 0, 68, 0
2, 101870, Note_on_c, 0, 71, 0
2, 101922, Note_on_c, 0, 59, 0
2, 101927, Note_on_c, 0, 57, 0
2, 101935, Note_on_c, 0, 62, 0
2, 102243, Note_on_c, 0, 68, 40
2, 102255, Note_on_c, 0, 76, 63
2, 102255, Note_on_c, 0, 59, 54
2, 102266, Note_on_c, 0, 57, 43
2, 102311, Control_c, 0, 64, 0
2, 102477, Control_c, 0, 64, 127
2, 102507, Note_on_c, 0, 76, 0
2, 102584, Note_on_c, 0, 68, 0
2, 102707, Control_c, 0, 64, 0
2, 102727, Note_on_c, 0, 62, 50
2, 102741, Note_on_c, 0, 71, 52
2, 102745, Note_on_c, 0, 76, 72
2, 102849, Control_c, 0, 64, 127
2, 102931, Note_on_c, 0, 59, 0
2, 102966, Note_on_c, 0, 71, 0
2, 102968, Note_on_c, 0, 57, 0
2, 102971, Note_on_c, 0, 76, 0
2, 103063, Note_on_c, 0, 62, 0
2, 103303, Note_on_c, 0, 61, 36
2, 103309, Control_c, 0, 64, 0
2, 103311, Note_on_c, 0, 69, 50
2, 103313, Note_on_c, 0, 57, 41
2, 103452, Control_c, 0, 64, 127
2, 103580, Note_on_c, 0, 69, 0
2, 103583, Note_on_c, 0, 64, 72
2, 103826, Note_on_c, 0, 66, 75
2, 103864, Note_on_c, 0, 64, 0
2, 103873, Control_c, 0, 64, 0
2, 103935, Note_on_c, 0, 57, 0
2, 103972, Note_on_c, 0, 61, 0
2, 104067, Note_on_c, 0, 64, 87
2, 104097, Note_on_c, 0, 66, 0
2, 104287, Note_on_c, 0, 63, 81
2, 104407, Note_on_c, 0, 64, 0
2, 104503, Note_on_c, 0, 66, 70
2, 104570, Note_on_c, 0, 63, 0
2, 104742, Note_on_c, 0, 62, 73
2, 104939, Control_c, 0, 64, 127
2, 104972, Note_on_c, 0, 68, 72
2, 104986, Note_on_c, 0, 62, 0
2, 105004, Note_on_c, 0, 66, 0
2, 105241, Note_on_c, 0, 61, 67
2, 105253, Note_on_c, 0, 40, 54
2, 105284, Control_c, 0, 64, 0
2, 105500, Note_on_c, 0, 69, 75
2, 105527, Control_c, 0, 64, 127
2, 105536, Note_on_c, 0, 68, 0
2, 105588, Note_on_c, 0, 61, 0
2, 105729, Note_on_c, 0, 69, 0
2, 105729, Note_on_c, 0, 59, 76
2, 105818, Note_on_c, 0, 40, 0
2, 105956, Note_on_c, 0, 68, 81
2, 105960, Note_on_c, 0, 59, 0
2, 106170, Note_on_c, 0, 61, 79
2, 106183, Note_on_c, 0, 40, 80
2, 106222, Note_on_c, 0, 68, 0
2, 106232, Control_c, 0, 64, 0
2, 106384, Control_c, 0, 64, 127
2, 106403, Note_on_c, 0, 69, 84
2, 106432, Note_on_c, 0, 61, 0
2, 106434, Note_on_c, 0, 40, 0
2, 106620, Note_on_c, 0, 40, 85
2, 106623, Note_on_c, 0, 64, 94
2, 106637, Note_on_c, 0, 69, 0
2, 106641, Control_c, 0, 64, 0
2, 106769, Control_c, 0, 64, 127
2, 106839, Note_on_c, 0, 40, 0
2, 106863, Note_on_c, 0, 73, 85
2, 106880, Note_on_c, 0, 64, 0
2, 107050, Note_on_c, 0, 62, 85
2, 107052, Note_on_c, 0, 73, 0
2, 107058, Note_on_c, 0, 40, 87
2, 107134, Note_on_c, 0, 42, 80
2, 107158, Note_on_c, 0, 40, 0
2, 107227, Note_on_c, 0, 40, 81
2, 107274, Note_on_c, 0, 42, 0
2, 107314, Note_on_c, 0, 73, 73
2, 107318, Note_on_c, 0, 39, 77
2, 107344, Note_on_c, 0, 40, 0
2, 107409, Note_on_c, 0, 40, 96
2, 107420, Note_on_c, 0, 39, 0
2, 107501, Note_on_c, 0, 42, 84
2, 107501, Note_on_c, 0, 71, 79
2, 107524, Control_c, 0, 64, 0
2, 107532, Note_on_c, 0, 40, 0
2, 107536, Note_on_c, 0, 73, 0
2, 107607, Note_on_c, 0, 62, 0
2, 107679, Control_c, 0, 64, 127
2, 107718, Note_on_c, 0, 44, 84
2, 107731, Note_on_c, 0, 62, 92
2, 107768, Note_on_c, 0, 42, 0
2, 107768, Note_on_c, 0, 71, 0
2, 107819, Note_on_c, 0, 62, 0
2, 107945, Note_on_c, 0, 45, 93
2, 107958, Note_on_c, 0, 61, 78
2, 108003, Note_on_c, 0, 44, 0
2, 108038, Control_c, 0, 64, 0
2, 108207, Note_on_c, 0, 71, 67
2, 108215, Control_c, 0, 64, 127
2, 108425, Note_on_c, 0, 61, 0
2, 108433, Note_on_c, 0, 40, 62
2, 108445, Note_on_c, 0, 71, 0
2, 108452, Note_on_c, 0, 69, 71
2, 108470, Note_on_c, 0, 45, 0
2, 108473, Control_c, 0, 64, 0
2, 108639, Control_c, 0, 64, 127
2, 108694, Note_on_c, 0, 61, 57
2, 108718, Note_on_c, 0, 69, 0
2, 108723, Note_on_c, 0, 40, 0
2, 108751, Note_on_c, 0, 61, 0
2, 108993, Note_on_c, 0, 59, 60
2, 109000, Note_on_c, 0, 40, 54
2, 109074, Control_c, 0, 64, 0
2, 109256, Note_on_c, 0, 69, 66
2, 109293, Control_c, 0, 64, 127
2, 109483, Note_on_c, 0, 68, 71
2, 109520, Note_on_c, 0, 40, 0
2, 109525, Note_on_c, 0, 69, 0
2, 109703, Note_on_c, 0, 66, 76
2, 109730, Note_on_c, 0, 68, 0
2, 109755, Note_on_c, 0, 59, 0
2, 109928, Note_on_c, 0, 40, 75
2, 109933, Note_on_c, 0, 59, 65
2, 109946, Control_c, 0, 64, 0
2, 110112, Control_c, 0, 64, 127
2, 110132, Note_on_c, 0, 59, 0
2, 110167, Note_on_c, 0, 68, 75
2, 110193, Note_on_c, 0, 66, 0
2, 110220, Note_on_c, 0, 40, 0
2, 110389, Note_on_c, 0, 40, 62
2, 110404, Note_on_c, 0, 62, 59
2, 110406, Control_c, 0, 64, 0
2, 110410, Note_on_c, 0, 68, 0
2, 110534, Control_c, 0, 64, 127
2, 110650, Note_on_c, 0, 71, 59
2, 110654, Note_on_c, 0, 40, 0
2, 110664, Note_on_c, 0, 62, 0
2, 110689, Note_on_c, 0, 71, 0
2, 110931, Note_on_c, 0, 40, 52
2, 110931, Note_on_c, 0, 61, 43
2, 110940, Note_on_c, 0, 69, 62
2, 110982, Control_c, 0, 64, 0
2, 111148, Note_on_c, 0, 39, 66
2, 111185, Note_on_c, 0, 40, 0
2, 111368, Note_on_c, 0, 40, 86
2, 111410, Note_on_c, 0, 39, 0
2, 111578, Note_on_c, 0, 40, 0
2, 111585, Note_on_c, 0, 42, 77
2, 111676, Note_on_c, 0, 69, 0
2, 111694, Note_on_c, 0, 61, 0
2, 111807, Note_on_c, 0, 42, 0
2, 111819, Note_on_c, 0, 40, 88
2, 112026, Note_on_c, 0, 66, 85
2, 112031, Note_on_c, 0, 38, 73
2, 112121, Note_on_c, 0, 40, 0
2, 112257, Note_on_c, 0, 37, 78
2, 112262, Note_on_c, 0, 64, 95
2, 112368, Note_on_c, 0, 66, 0
2, 112373, Note_on_c, 0, 38, 0
2, 112479, Note_on_c, 0, 35, 71
2, 112484, Note_on_c, 0, 68, 86
2, 112501, Control_c, 0, 64, 127
2, 112501, Note_on_c, 0, 62, 70
2, 112505, Note_on_c, 0, 37, 0
2, 112523, Note_on_c, 0, 64, 0
2, 112617, Note_on_c, 0, 62, 0
2, 112646, Note_on_c, 0, 68, 0
2, 112781, Note_on_c, 0, 40, 67
2, 112784, Note_on_c, 0, 71, 66
2, 112790, Note_on_c, 0, 61, 51
2, 112802, Note_on_c, 0, 35, 0
2, 112846, Control_c, 0, 64, 0
2, 113051, Control_c, 0, 64, 127
2, 113076, Note_on_c, 0, 71, 0
2, 113076, Note_on_c, 0, 69, 76
2, 113135, Note_on_c, 0, 61, 0
2, 113174, Note_on_c, 0, 69, 0
2, 113301, Note_on_c, 0, 59, 81
2, 113456, Note_on_c, 0, 40, 0
2, 113491, Note_on_c, 0, 59, 0
2, 113512, Note_on_c, 0, 68, 82
2, 113624, Note_on_c, 0, 68, 0
2, 113738, Note_on_c, 0, 61, 84
2, 113740, Note_on_c, 0, 40, 93
2, 113766, Control_c, 0, 64, 0
2, 113922, Control_c, 0, 64, 127
2, 113976, Note_on_c, 0, 69, 87
2, 113987, Note_on_c, 0, 40, 0
2, 113999, Note_on_c, 0, 61, 0
2, 114181, Note_on_c, 0, 64, 94
2, 114187, Note_on_c, 0, 40, 89
2, 114194, Note_on_c, 0, 69, 0
2, 114203, Control_c, 0, 64, 0
2, 114317, Control_c, 0, 64, 127
2, 114391, Note_on_c, 0, 40, 0
2, 114414, Note_on_c, 0, 73, 91
2, 114425, Note_on_c, 0, 64, 0
2, 114588, Note_on_c, 0, 40, 82
2, 114594, Note_on_c, 0, 62, 84
2, 114614, Note_on_c, 0, 73, 0
2, 114661, Note_on_c, 0, 42, 79
2, 114693, Note_on_c, 0, 40, 0
2, 114752, Note_on_c, 0, 40, 97
2, 114800, Note_on_c, 0, 42, 0
2, 114835, Note_on_c, 0, 39, 90
2, 114858, Note_on_c, 0, 40, 0
2, 114861, Note_on_c, 0, 73, 71
2, 114916, Note_on_c, 0, 40, 99
2, 114962, Note_on_c, 0, 39, 0
2, 115026, Note_on_c, 0, 71, 82
2, 115026, Note_on_c, 0, 42, 97
2, 115061, Note_on_c, 0, 40, 0
2, 115066, Note_on_c, 0, 73, 0
2, 115072, Control_c, 0, 64, 0
2, 115140, Note_on_c, 0, 62, 0
2, 115241, Control_c, 0, 64, 127
2, 115259, Note_on_c, 0, 44, 89
2, 115271, Note_on_c, 0, 62, 86
2, 115323, Note_on_c, 0, 42, 0
2, 115337, Note_on_c, 0, 71, 0
2, 115364, Note_on_c, 0, 62, 0
2, 115501, Note_on_c, 0, 45, 102
2, 115511, Note_on_c, 0, 61, 88
2, 115561, Note_on_c, 0, 44, 0
2, 115572, Control_c, 0, 64, 0
2, 115752, Note_on_c, 0, 71, 70
2, 115765, Control_c, 0, 64, 127
2, 116001, Note_on_c, 0, 40, 71
2, 116006, Note_on_c, 0, 69, 73
2, 116014, Note_on_c, 0, 71, 0
2, 116043, Note_on_c, 0, 61, 0
2, 116054, Note_on_c, 0, 45, 0
2, 116060, Control_c, 0, 64, 0
2, 116212, Control_c, 0, 64, 127
2, 116291, Note_on_c, 0, 61, 60
2, 116316, Note_on_c, 0, 40, 0
2, 116326, Note_on_c, 0, 69, 0
2, 116354, Note_on_c, 0, 61, 0
2, 116617, Note_on_c, 0, 59, 51
2, 116632, Note_on_c, 0, 40, 54
2, 116699, Control_c, 0, 64, 0
2, 116901, Note_on_c, 0, 69, 60
2, 116919, Control_c, 0, 64, 127
2, 117123, Note_on_c, 0, 68, 67
2, 117136, Note_on_c, 0, 69, 0
2, 117262, Note_on_c, 0, 40, 0
2, 117357, Note_on_c, 0, 66, 72
2, 117369, Note_on_c, 0, 68, 0
2, 117385, Note_on_c, 0, 59, 0
2, 117590, Note_on_c, 0, 59, 64
2, 117595, Note_on_c, 0, 40, 59
2, 117609, Control_c, 0, 64, 0
2, 117629, Note_on_c, 0, 66, 0
2, 117737, Control_c, 0, 64, 127
2, 117781, Note_on_c, 0, 59, 0
2, 117811, Note_on_c, 0, 68, 64
2, 117860, Note_on_c, 0, 40, 0
2, 118041, Note_on_c, 0, 68, 0
2, 118045, Note_on_c, 0, 62, 60
2, 118063, Note_on_c, 0, 40, 46
2, 118069, Control_c, 0, 64, 0
2, 118147, Control_c, 0, 64, 127
2, 118304, Note_on_c, 0, 40, 0
2, 118306, Note_on_c, 0, 71, 48
2, 118355, Note_on_c, 0, 62, 0
2, 118361, Note_on_c, 0, 71, 0
2, 118612, Note_on_c, 0, 69, 59
2, 118617, Note_on_c, 0, 33, 41
2, 118627, Note_on_c, 0, 61, 26
2, 118684, Control_c, 0, 64, 0
2, 118838, Control_c, 0, 64, 127
2, 118885, Note_on_c, 0, 64, 70
2, 118921, Note_on_c, 0, 69, 0
2, 119008, Note_on_c, 0, 61, 0
2, 119117, Note_on_c, 0, 66, 74
2, 119138, Note_on_c, 0, 64, 0
2, 119322, Note_on_c, 0, 33, 0
2, 119325, Control_c, 0, 64, 0
2, 119343, Note_on_c, 0, 66, 0
2, 119349, Note_on_c, 0, 64, 88
2, 119576, Note_on_c, 0, 69, 83
2, 119606, Note_on_c, 0, 64, 0
2, 119811, Note_on_c, 0, 64, 71
2, 119844, Note_on_c, 0, 69, 0
2, 120062, Note_on_c, 0, 61, 44
2, 120068, Note_on_c, 0, 76, 83
2, 120080, Note_on_c, 0, 64, 0
2, 120182, Control_c, 0, 64, 127
2, 120330, Note_on_c, 0, 76, 0
2, 120369, Note_on_c, 0, 52, 40
2, 120382, Note_on_c, 0, 61, 0
2, 120651, Note_on_c, 0, 52, 0
2, 120661, Note_on_c, 0, 74, 74
2, 120682, Note_on_c, 0, 64, 36
2, 120684, Note_on_c, 0, 59, 39
2, 120732, Control_c, 0, 64, 0
2, 120890, Note_on_c, 0, 58, 84
2, 120960, Note_on_c, 0, 59, 0
2, 121109, Note_on_c, 0, 59, 74
2, 121190, Note_on_c, 0, 58, 0
2, 121328, Note_on_c, 0, 52, 73
2, 121331, Note_on_c, 0, 76, 91
2, 121352, Note_on_c, 0, 74, 0
2, 121362, Note_on_c, 0, 59, 0
2, 121562, Note_on_c, 0, 74, 89
2, 121569, Note_on_c, 0, 59, 62
2, 121587, Note_on_c, 0, 52, 0
2, 121611, Note_on_c, 0, 76, 0
2, 121745, Control_c, 0, 64, 127
2, 121790, Note_on_c, 0, 52, 70
2, 121819, Note_on_c, 0, 59, 0
2, 121851, Note_on_c, 0, 64, 0
2, 121990, Note_on_c, 0, 73, 87
2, 122001, Note_on_c, 0, 64, 70
2, 122011, Note_on_c, 0, 74, 0
2, 122016, Note_on_c, 0, 57, 69
2, 122022, Note_on_c, 0, 52, 0
2, 122038, Control_c, 0, 64, 0
2, 122192, Control_c, 0, 64, 127
2, 122226, Note_on_c, 0, 57, 0
2, 122228, Note_on_c, 0, 52, 80
2, 122242, Note_on_c, 0, 64, 0
2, 122461, Note_on_c, 0, 52, 0
2, 122483, Note_on_c, 0, 62, 73
2, 122496, Note_on_c, 0, 71, 73
2, 122502, Note_on_c, 0, 68, 64
2, 122534, Note_on_c, 0, 73, 0
2, 122537, Control_c, 0, 64, 0
2, 122717, Note_on_c, 0, 61, 84
2, 122771, Note_on_c, 0, 62, 0
2, 122897, Control_c, 0, 64, 127
2, 122940, Note_on_c, 0, 62, 89
2, 122952, Note_on_c, 0, 61, 0
2, 123142, Note_on_c, 0, 73, 86
2, 123162, Note_on_c, 0, 71, 0
2, 123164, Note_on_c, 0, 52, 76
2, 123182, Note_on_c, 0, 62, 0
2, 123389, Note_on_c, 0, 71, 79
2, 123393, Note_on_c, 0, 62, 76
2, 123405, Note_on_c, 0, 52, 0
2, 123431, Note_on_c, 0, 73, 0
2, 123447, Control_c, 0, 64, 0
2, 123588, Control_c, 0, 64, 127
2, 123605, Note_on_c, 0, 52, 82
2, 123628, Note_on_c, 0, 62, 0
2, 123635, Note_on_c, 0, 71, 0
2, 123641, Note_on_c, 0, 68, 0
2, 123812, Note_on_c, 0, 52, 0
2, 123838, Note_on_c, 0, 69, 78
2, 123840, Note_on_c, 0, 61, 58
2, 123848, Note_on_c, 0, 64, 64
2, 123882, Control_c, 0, 64, 0
2, 124010, Control_c, 0, 64, 127
2, 124058, Note_on_c, 0, 64, 0
2, 124061, Note_on_c, 0, 52, 65
2, 124083, Note_on_c, 0, 69, 0
2, 124108, Note_on_c, 0, 61, 0
2, 124354, Note_on_c, 0, 52, 0
2, 124368, Note_on_c, 0, 76, 79
2, 124372, Note_on_c, 0, 59, 49
2, 124386, Note_on_c, 0, 68, 44
2, 124421, Control_c, 0, 64, 0
2, 124549, Control_c, 0, 64, 127
2, 124582, Note_on_c, 0, 52, 63
2, 124599, Note_on_c, 0, 74, 87
2, 124614, Note_on_c, 0, 76, 0
2, 124664, Note_on_c, 0, 68, 0
2, 124782, Note_on_c, 0, 59, 0
2, 124820, Note_on_c, 0, 73, 84
2, 124825, Note_on_c, 0, 52, 0
2, 124831, Note_on_c, 0, 69, 74
2, 124834, Note_on_c, 0, 57, 65
2, 124856, Control_c, 0, 64, 0
2, 124867, Note_on_c, 0, 74, 0
2, 124997, Control_c, 0, 64, 127
2, 125052, Note_on_c, 0, 52, 60
2, 125077, Note_on_c, 0, 69, 0
2, 125091, Note_on_c, 0, 73, 0
2, 125091, Note_on_c, 0, 57, 0
2, 125272, Note_on_c, 0, 52, 0
2, 125292, Note_on_c, 0, 59, 57
2, 125306, Note_on_c, 0, 76, 70
2, 125311, Note_on_c, 0, 68, 50
2, 125367, Control_c, 0, 64, 0
2, 125482, Control_c, 0, 64, 127
2, 125521, Note_on_c, 0, 52, 59
2, 125540, Note_on_c, 0, 74, 67
2, 125567, Note_on_c, 0, 76, 0
2, 125574, Note_on_c, 0, 68, 0
2, 125650, Note_on_c, 0, 59, 0
2, 125737, Note_on_c, 0, 52, 0
2, 125768, Note_on_c, 0, 73, 70
2, 125773, Note_on_c, 0, 57, 61
2, 125793, Note_on_c, 0, 69, 38
2, 125826, Note_on_c, 0, 74, 0
2, 125829, Control_c, 0, 64, 0
2, 125981, Control_c, 0, 64, 127
2, 126026, Note_on_c, 0, 52, 58
2, 126035, Note_on_c, 0, 69, 0
2, 126040, Note_on_c, 0, 73, 0
2, 126054, Note_on_c, 0, 57, 0
2, 126068, Note_on_c, 0, 52, 0
2, 126311, Note_on_c, 0, 71, 52
2, 126311, Note_on_c, 0, 64, 39
2, 126317, Note_on_c, 0, 68, 44
2, 126367, Control_c, 0, 64, 0
2, 126549, Note_on_c, 0, 63, 66
2, 126607, Note_on_c, 0, 64, 0
2, 126807, Note_on_c, 0, 64, 78
2, 126835, Note_on_c, 0, 63, 0
2, 127019, Note_on_c, 0, 66, 84
2, 127049, Note_on_c, 0, 64, 0
2, 127151, Note_on_c, 0, 71, 0
2, 127250, Control_c, 0, 64, 127
2, 127266, Note_on_c, 0, 64, 85
2, 127277, Note_on_c, 0, 68, 0
2, 127281, Note_on_c, 0, 66, 0
2, 127337, Note_on_c, 0, 64, 0
2, 127495, Note_on_c, 0, 64, 72
2, 127501, Note_on_c, 0, 62, 51
2, 127571, Control_c, 0, 64, 0
2, 127726, Note_on_c, 0, 61, 59
2, 127728, Note_on_c, 0, 66, 69
2, 127757, Note_on_c, 0, 62, 0
2, 127801, Note_on_c, 0, 64, 0
2, 127965, Note_on_c, 0, 61, 0
2, 127965, Note_on_c, 0, 68, 66
2, 127972, Note_on_c, 0, 59, 56
2, 128017, Control_c, 0, 64, 127
2, 128034, Note_on_c, 0, 66, 0
2, 128067, Note_on_c, 0, 68, 0
2, 128236, Note_on_c, 0, 59, 0
2, 128239, Note_on_c, 0, 61, 54
2, 128261, Note_on_c, 0, 69, 50
2, 128261, Control_c, 0, 64, 0
2, 128261, Note_on_c, 0, 76, 57
2, 128488, Note_on_c, 0, 59, 63
2, 128493, Note_on_c, 0, 61, 0
2, 128712, Note_on_c, 0, 61, 65
2, 128730, Note_on_c, 0, 59, 0
2, 128951, Note_on_c, 0, 57, 63
2, 128960, Control_c, 0, 64, 127
2, 128962, Note_on_c, 0, 68, 85
2, 128974, Note_on_c, 0, 69, 0
2, 128979, Note_on_c, 0, 61, 0
2, 129015, Note_on_c, 0, 76, 0
2, 129201, Note_on_c, 0, 69, 89
2, 129204, Note_on_c, 0, 76, 80
2, 129206, Note_on_c, 0, 61, 64
2, 129216, Control_c, 0, 64, 0
2, 129222, Note_on_c, 0, 68, 0
2, 129226, Note_on_c, 0, 57, 0
2, 129382, Control_c, 0, 64, 127
2, 129426, Note_on_c, 0, 57, 65
2, 129483, Note_on_c, 0, 61, 0
2, 129490, Note_on_c, 0, 76, 0
2, 129639, Note_on_c, 0, 76, 101
2, 129651, Note_on_c, 0, 73, 76
2, 129665, Control_c, 0, 64, 0
2, 129667, Note_on_c, 0, 64, 71
2, 129677, Note_on_c, 0, 69, 0
2, 129677, Note_on_c, 0, 57, 0
2, 129817, Control_c, 0, 64, 127
2, 129840, Note_on_c, 0, 76, 0
2, 129853, Note_on_c, 0, 73, 0
2, 129895, Note_on_c, 0, 57, 75
2, 129901, Note_on_c, 0, 64, 0
2, 130091, Note_on_c, 0, 71, 62
2, 130114, Note_on_c, 0, 62, 78
2, 130118, Note_on_c, 0, 57, 0
2, 130126, Control_c, 0, 64, 0
2, 130140, Note_on_c, 0, 76, 95
2, 130176, Note_on_c, 0, 71, 0
2, 130224, Note_on_c, 0, 78, 93
2, 130241, Control_c, 0, 64, 127
2, 130243, Note_on_c, 0, 76, 0
2, 130283, Note_on_c, 0, 57, 62
2, 130301, Note_on_c, 0, 76, 97
2, 130326, Note_on_c, 0, 78, 0
2, 130347, Note_on_c, 0, 62, 0
2, 130412, Note_on_c, 0, 75, 84
2, 130422, Note_on_c, 0, 76, 0
2, 130476, Note_on_c, 0, 76, 113
2, 130502, Note_on_c, 0, 75, 0
2, 130546, Note_on_c, 0, 78, 100
2, 130561, Note_on_c, 0, 62, 69
2, 130591, Note_on_c, 0, 57, 0
2, 130612, Note_on_c, 0, 76, 0
2, 130701, Control_c, 0, 64, 0
2, 130753, Control_c, 0, 64, 127
2, 130768, Note_on_c, 0, 80, 99
2, 130790, Note_on_c, 0, 57, 69
2, 130828, Note_on_c, 0, 78, 0
2, 130849, Note_on_c, 0, 62, 0
2, 130930, Note_on_c, 0, 80, 0
2, 131006, Note_on_c, 0, 81, 87
2, 131016, Note_on_c, 0, 69, 67
2, 131016, Note_on_c, 0, 61, 60
2, 131055, Note_on_c, 0, 57, 0
2, 131073, Control_c, 0, 64, 0
2, 131245, Note_on_c, 0, 57, 36
2, 131252, Control_c, 0, 64, 127
2, 131268, Note_on_c, 0, 61, 0
2, 131482, Note_on_c, 0, 61, 51
2, 131482, Note_on_c, 0, 76, 81
2, 131489, Note_on_c, 0, 57, 0
2, 131493, Note_on_c, 0, 81, 0
2, 131547, Control_c, 0, 64, 0
2, 131662, Control_c, 0, 64, 127
2, 131703, Note_on_c, 0, 57, 55
2, 131712, Note_on_c, 0, 69, 0
2, 131730, Note_on_c, 0, 76, 0
2, 131747, Note_on_c, 0, 61, 0
2, 131952, Note_on_c, 0, 76, 74
2, 131954, Note_on_c, 0, 57, 0
2, 131956, Note_on_c, 0, 68, 52
2, 131964, Note_on_c, 0, 59, 45
2, 132034, Control_c, 0, 64, 0
2, 132159, Note_on_c, 0, 59, 0
2, 132162, Control_c, 0, 64, 127
2, 132174, Note_on_c, 0, 57, 53
2, 132403, Note_on_c, 0, 71, 62
2, 132408, Note_on_c, 0, 62, 52
2, 132412, Note_on_c, 0, 57, 0
2, 132456, Control_c, 0, 64, 0
2, 132519, Note_on_c, 0, 76, 0
2, 132557, Control_c, 0, 64, 127
2, 132638, Note_on_c, 0, 68, 0
2, 132654, Note_on_c, 0, 57, 57
2, 132693, Note_on_c, 0, 62, 0
2, 132697, Note_on_c, 0, 71, 0
2, 132875, Note_on_c, 0, 57, 0
2, 132882, Note_on_c, 0, 68, 59
2, 132884, Note_on_c, 0, 76, 80
2, 132886, Note_on_c, 0, 59, 52
2, 132904, Control_c, 0, 64, 0
2, 133032, Control_c, 0, 64, 127
2, 133077, Note_on_c, 0, 59, 0
2, 133090, Note_on_c, 0, 57, 61
2, 133321, Note_on_c, 0, 71, 69
2, 133326, Note_on_c, 0, 62, 61
2, 133329, Note_on_c, 0, 57, 0
2, 133400, Note_on_c, 0, 68, 0
2, 133534, Note_on_c, 0, 57, 53
2, 133540, Note_on_c, 0, 76, 0
2, 133574, Note_on_c, 0, 62, 0
2, 133731, Note_on_c, 0, 57, 0
2, 133797, Note_on_c, 0, 71, 0
2, 133807, Note_on_c, 0, 61, 63
2, 133815, Note_on_c, 0, 57, 39
2, 133824, Note_on_c, 0, 69, 50
2, 133851, Control_c, 0, 64, 0
2, 133967, Control_c, 0, 64, 127
2, 133971, Note_on_c, 0, 61, 0
2, 133993, Note_on_c, 0, 57, 0
2, 134076, Note_on_c, 0, 57, 52
2, 134301, Note_on_c, 0, 59, 72
2, 134313, Control_c, 0, 64, 0
2, 134327, Note_on_c, 0, 57, 0
2, 134502, Note_on_c, 0, 57, 78
2, 134583, Note_on_c, 0, 59, 0
2, 134727, Note_on_c, 0, 56, 86
2, 134803, Note_on_c, 0, 57, 0
2, 134931, Note_on_c, 0, 73, 90
2, 134936, Note_on_c, 0, 76, 95
2, 134944, Note_on_c, 0, 57, 100
2, 135001, Note_on_c, 0, 69, 0
2, 135023, Note_on_c, 0, 56, 0
2, 135154, Note_on_c, 0, 71, 76
2, 135158, Note_on_c, 0, 59, 84
2, 135158, Note_on_c, 0, 74, 97
2, 135194, Note_on_c, 0, 57, 0
2, 135224, Note_on_c, 0, 76, 0
2, 135246, Note_on_c, 0, 73, 0
2, 135372, Note_on_c, 0, 61, 90
2, 135382, Note_on_c, 0, 73, 86
2, 135384, Note_on_c, 0, 69, 89
2, 135430, Note_on_c, 0, 59, 0
2, 135487, Note_on_c, 0, 71, 0
2, 135537, Note_on_c, 0, 69, 0
2, 135561, Note_on_c, 0, 74, 0
2, 135648, Note_on_c, 0, 62, 81
2, 135651, Note_on_c, 0, 71, 80
2, 135676, Note_on_c, 0, 73, 0
2, 135676, Note_on_c, 0, 68, 75
2, 135695, Note_on_c, 0, 61, 0
2, 135937, Note_on_c, 0, 76, 70
2, 136027, Note_on_c, 0, 68, 0
2, 136029, Control_c, 0, 64, 127
2, 136055, Note_on_c, 0, 71, 0
2, 136132, Note_on_c, 0, 71, 50
2, 136154, Note_on_c, 0, 68, 41
2, 136172, Note_on_c, 0, 76, 0
2, 136348, Note_on_c, 0, 68, 0
2, 136357, Note_on_c, 0, 64, 65
2, 136364, Note_on_c, 0, 76, 85
2, 136368, Note_on_c, 0, 62, 0
2, 136376, Note_on_c, 0, 71, 0
2, 136580, Note_on_c, 0, 62, 75
2, 136594, Note_on_c, 0, 76, 0
2, 136594, Note_on_c, 0, 68, 70
2, 136594, Note_on_c, 0, 71, 65
2, 136629, Control_c, 0, 64, 0
2, 136640, Note_on_c, 0, 64, 0
2, 136784, Control_c, 0, 64, 127
2, 136816, Note_on_c, 0, 76, 91
2, 136862, Note_on_c, 0, 68, 0
2, 137024, Note_on_c, 0, 61, 82
2, 137040, Note_on_c, 0, 69, 91
2, 137053, Note_on_c, 0, 76, 0
2, 137066, Control_c, 0, 64, 0
2, 137129, Note_on_c, 0, 62, 0
2, 137220, Control_c, 0, 64, 127
2, 137260, Note_on_c, 0, 61, 0
2, 137274, Note_on_c, 0, 76, 90
2, 137288, Note_on_c, 0, 69, 0
2, 137290, Note_on_c, 0, 71, 0
2, 137301, Note_on_c, 0, 76, 0
2, 137584, Note_on_c, 0, 59, 58
2, 137586, Note_on_c, 0, 68, 55
2, 137591, Note_on_c, 0, 76, 85
2, 137593, Note_on_c, 0, 50, 76
2, 137655, Control_c, 0, 64, 0
2, 137833, Control_c, 0, 64, 127
2, 137844, Note_on_c, 0, 80, 91
2, 137887, Note_on_c, 0, 76, 0
2, 138046, Note_on_c, 0, 50, 0
2, 138067, Note_on_c, 0, 76, 95
2, 138082, Note_on_c, 0, 80, 0
2, 138085, Note_on_c, 0, 59, 0
2, 138277, Note_on_c, 0, 80, 97
2, 138286, Note_on_c, 0, 61, 79
2, 138290, Note_on_c, 0, 52, 89
2, 138304, Note_on_c, 0, 68, 0
2, 138308, Note_on_c, 0, 76, 0
2, 138383, Note_on_c, 0, 61, 0
2, 138383, Note_on_c, 0, 52, 0
2, 138508, Note_on_c, 0, 68, 83
2, 138513, Note_on_c, 0, 76, 97
2, 138515, Note_on_c, 0, 59, 74
2, 138517, Note_on_c, 0, 80, 0
2, 138519, Note_on_c, 0, 50, 83
2, 138589, Control_c, 0, 64, 0
2, 138725, Note_on_c, 0, 80, 92
2, 138730, Control_c, 0, 64, 127
2, 138740, Note_on_c, 0, 68, 0
2, 138746, Note_on_c, 0, 76, 0
2, 138762, Note_on_c, 0, 59, 0
2, 138777, Note_on_c, 0, 50, 0
2, 138828, Note_on_c, 0, 80, 0
2, 138954, Note_on_c, 0, 69, 81
2, 138957, Note_on_c, 0, 49, 84
2, 138957, Note_on_c, 0, 57, 85
2, 138957, Note_on_c, 0, 76, 99
2, 138999, Control_c, 0, 64, 0
2, 139127, Control_c, 0, 64, 127
2, 139185, Note_on_c, 0, 49, 0
2, 139196, Note_on_c, 0, 81, 100
2, 139204, Note_on_c, 0, 69, 0
2, 139217, Note_on_c, 0, 57, 0
2, 139244, Note_on_c, 0, 76, 0
2, 139247, Note_on_c, 0, 81, 0
2, 139467, Note_on_c, 0, 64, 78
2, 139472, Note_on_c, 0, 83, 71
2, 139488, Note_on_c, 0, 56, 50
2, 139536, Control_c, 0, 64, 0
2, 139716, Note_on_c, 0, 62, 66
2, 139722, Note_on_c, 0, 76, 89
2, 139738, Note_on_c, 0, 83, 0
2, 139741, Control_c, 0, 64, 127
2, 139809, Note_on_c, 0, 64, 0
2, 139837, Note_on_c, 0, 56, 0
2, 139980, Note_on_c, 0, 61, 67
2, 139986, Note_on_c, 0, 76, 0
2, 139986, Note_on_c, 0, 81, 68
2, 139992, Note_on_c, 0, 57, 46
2, 139998, Note_on_c, 0, 62, 0
2, 140048, Control_c, 0, 64, 0
2, 140241, Control_c, 0, 64, 127
2, 140248, Note_on_c, 0, 76, 51
2, 140252, Note_on_c, 0, 81, 0
2, 140262, Note_on_c, 0, 57, 0
2, 140296, Note_on_c, 0, 61, 0
2, 140439, Note_on_c, 0, 76, 0
2, 140477, Note_on_c, 0, 83, 55
2, 140487, Note_on_c, 0, 64, 70
2, 140491, Note_on_c, 0, 56, 55
2, 140523, Control_c, 0, 64, 0
2, 140702, Control_c, 0, 64, 127
2, 140721, Note_on_c, 0, 62, 55
2, 140723, Note_on_c, 0, 76, 65
2, 140743, Note_on_c, 0, 83, 0
2, 140760, Note_on_c, 0, 56, 0
2, 140771, Note_on_c, 0, 64, 0
2, 140952, Note_on_c, 0, 76, 0
2, 140965, Note_on_c, 0, 61, 60
2, 140980, Note_on_c, 0, 81, 45
2, 140986, Note_on_c, 0, 62, 0
2, 140991, Note_on_c, 0, 57, 31
2, 141021, Control_c, 0, 64, 0
2, 141176, Control_c, 0, 64, 127
2, 141197, Note_on_c, 0, 81, 0
2, 141231, Note_on_c, 0, 61, 0
2, 141239, Note_on_c, 0, 76, 70
2, 141245, Note_on_c, 0, 57, 0
2, 141578, Note_on_c, 0, 59, 39
2, 141582, Note_on_c, 0, 76, 0
2, 141586, Note_on_c, 0, 88, 58
2, 141608, Note_on_c, 0, 52, 41
2, 141624, Control_c, 0, 64, 0
2, 141804, Note_on_c, 0, 88, 0
2, 142000, Note_on_c, 0, 76, 59
2, 142264, Note_on_c, 0, 78, 62
2, 142284, Note_on_c, 0, 76, 0
2, 142494, Note_on_c, 0, 59, 0
2, 142501, Note_on_c, 0, 76, 76
2, 142528, Note_on_c, 0, 52, 0
2, 142542, Note_on_c, 0, 78, 0
2, 142742, Note_on_c, 0, 75, 68
2, 142902, Note_on_c, 0, 76, 0
2, 142951, Note_on_c, 0, 78, 70
2, 143026, Note_on_c, 0, 75, 0
2, 143181, Note_on_c, 0, 74, 84
2, 143211, Control_c, 0, 64, 127
2, 143403, Note_on_c, 0, 80, 94
2, 143431, Note_on_c, 0, 74, 0
2, 143442, Note_on_c, 0, 78, 0
2, 143477, Note_on_c, 0, 80, 0
2, 143658, Note_on_c, 0, 83, 66
2, 143666, Note_on_c, 0, 73, 44
2, 143666, Note_on_c, 0, 40, 57
2, 143711, Control_c, 0, 64, 0
2, 143901, Note_on_c, 0, 81, 87
2, 143921, Note_on_c, 0, 83, 0
2, 143928, Control_c, 0, 64, 127
2, 144008, Note_on_c, 0, 73, 0
2, 144052, Note_on_c, 0, 81, 0
2, 144130, Note_on_c, 0, 71, 85
2, 144331, Note_on_c, 0, 71, 0
2, 144347, Note_on_c, 0, 80, 88
2, 144379, Note_on_c, 0, 40, 0
2, 144447, Note_on_c, 0, 80, 0
2, 144557, Note_on_c, 0, 73, 82
2, 144559, Note_on_c, 0, 40, 85
2, 144621, Control_c, 0, 64, 0
2, 144722, Control_c, 0, 64, 127
2, 144792, Note_on_c, 0, 81, 93
2, 144827, Note_on_c, 0, 40, 0
2, 144997, Note_on_c, 0, 40, 84
2, 144999, Note_on_c, 0, 76, 101
2, 145017, Control_c, 0, 64, 0
2, 145034, Note_on_c, 0, 81, 0
2, 145131, Control_c, 0, 64, 127
2, 145197, Note_on_c, 0, 73, 0
2, 145197, Note_on_c, 0, 40, 0
2, 145222, Note_on_c, 0, 85, 92
2, 145239, Note_on_c, 0, 76, 0
2, 145408, Note_on_c, 0, 85, 0
2, 145420, Note_on_c, 0, 74, 96
2, 145431, Note_on_c, 0, 40, 92
2, 145497, Note_on_c, 0, 42, 79
2, 145521, Note_on_c, 0, 40, 0
2, 145587, Note_on_c, 0, 40, 88
2, 145637, Note_on_c, 0, 42, 0
2, 145671, Note_on_c, 0, 85, 88
2, 145678, Note_on_c, 0, 39, 84
2, 145704, Note_on_c, 0, 40, 0
2, 145764, Note_on_c, 0, 40, 96
2, 145805, Note_on_c, 0, 39, 0
2, 145843, Note_on_c, 0, 83, 84
2, 145869, Note_on_c, 0, 85, 0
2, 145871, Note_on_c, 0, 42, 91
2, 145887, Control_c, 0, 64, 0
2, 145915, Note_on_c, 0, 74, 0
2, 145966, Note_on_c, 0, 40, 0
2, 146015, Control_c, 0, 64, 127
2, 146089, Note_on_c, 0, 44, 86
2, 146103, Note_on_c, 0, 74, 90
2, 146137, Note_on_c, 0, 42, 0
2, 146166, Note_on_c, 0, 83, 0
2, 146213, Note_on_c, 0, 74, 0
2, 146323, Note_on_c, 0, 45, 89
2, 146327, Note_on_c, 0, 73, 83
2, 146385, Note_on_c, 0, 44, 0
2, 146426, Control_c, 0, 64, 0
2, 146554, Control_c, 0, 64, 127
2, 146567, Note_on_c, 0, 83, 76
2, 146791, Note_on_c, 0, 40, 64
2, 146794, Note_on_c, 0, 81, 79
2, 146796, Note_on_c, 0, 83, 0
2, 146814, Note_on_c, 0, 73, 0
2, 146818, Note_on_c, 0, 45, 0
2, 146822, Control_c, 0, 64, 0
2, 146951, Control_c, 0, 64, 127
2, 147044, Note_on_c, 0, 73, 70
2, 147058, Note_on_c, 0, 81, 0
2, 147085, Note_on_c, 0, 40, 0
2, 147096, Note_on_c, 0, 73, 0
2, 147348, Note_on_c, 0, 40, 50
2, 147357, Note_on_c, 0, 71, 65
2, 147423, Control_c, 0, 64, 0
2, 147661, Note_on_c, 0, 81, 66
2, 147668, Control_c, 0, 64, 127
2, 147891, Note_on_c, 0, 80, 66
2, 147932, Note_on_c, 0, 81, 0
2, 148088, Note_on_c, 0, 40, 0
2, 148114, Note_on_c, 0, 78, 76
2, 148139, Note_on_c, 0, 80, 0
2, 148159, Note_on_c, 0, 71, 0
2, 148344, Note_on_c, 0, 71, 65
2, 148354, Note_on_c, 0, 40, 55
2, 148384, Control_c, 0, 64, 0
2, 148486, Control_c, 0, 64, 127
2, 148554, Note_on_c, 0, 71, 0
2, 148563, Note_on_c, 0, 80, 68
2, 148595, Note_on_c, 0, 78, 0
2, 148601, Note_on_c, 0, 40, 0
2, 148793, Control_c, 0, 64, 0
2, 148798, Note_on_c, 0, 40, 42
2, 148800, Note_on_c, 0, 74, 80
2, 148830, Note_on_c, 0, 80, 0
2, 148897, Control_c, 0, 64, 127
2, 149044, Note_on_c, 0, 40, 0
2, 149061, Note_on_c, 0, 74, 0
2, 149061, Note_on_c, 0, 83, 73
2, 149132, Note_on_c, 0, 83, 0
2, 149402, Note_on_c, 0, 81, 54
2, 149413, Note_on_c, 0, 73, 43
2, 149420, Note_on_c, 0, 33, 33
2, 149460, Control_c, 0, 64, 0
2, 149613, Control_c, 0, 64, 127
2, 149751, Note_on_c, 0, 73, 0
2, 149782, Note_on_c, 0, 81, 0
2, 149786, Note_on_c, 0, 33, 0
2, 150037, Control_c, 0, 64, 0
2, 150789, Note_on_c, 0, 74, 117
2, 150797, Note_on_c, 0, 69, 110
2, 150797, Note_on_c, 0, 66, 106
2, 151317, Control_c, 0, 64, 127
2, 151404, Note_on_c, 0, 66, 0
2, 151482, Note_on_c, 0, 69, 0
2, 151631, Note_on_c, 0, 74, 0
2, 152232, Note_on_c, 0, 78, 59
2, 152246, Note_on_c, 0, 62, 36
2, 152342, Control_c, 0, 64, 0
2, 152521, Control_c, 0, 64, 127
2, 152764, Note_on_c, 0, 78, 0
2, 152811, Note_on_c, 0, 66, 45
2, 152816, Note_on_c, 0, 74, 62
2, 152828, Note_on_c, 0, 59, 38
2, 152867, Note_on_c, 0, 62, 0
2, 152879, Control_c, 0, 64, 0
2, 153020, Control_c, 0, 64, 127
2, 153114, Note_on_c, 0, 66, 0
2, 153272, Note_on_c, 0, 74, 0
2, 153287, Note_on_c, 0, 64, 56
2, 153289, Note_on_c, 0, 59, 0
2, 153289, Note_on_c, 0, 71, 65
2, 153297, Note_on_c, 0, 68, 43
2, 153327, Control_c, 0, 64, 0
2, 153468, Control_c, 0, 64, 127
2, 153559, Note_on_c, 0, 68, 0
2, 153778, Note_on_c, 0, 52, 51
2, 153782, Note_on_c, 0, 68, 56
2, 153782, Note_on_c, 0, 76, 68
2, 153784, Note_on_c, 0, 71, 0
2, 153796, Note_on_c, 0, 64, 0
2, 153826, Control_c, 0, 64, 0
2, 153953, Control_c, 0, 64, 127
2, 154057, Note_on_c, 0, 76, 0
2, 154146, Note_on_c, 0, 68, 0
2, 154321, Note_on_c, 0, 52, 0
2, 154368, Note_on_c, 0, 74, 67
2, 154381, Note_on_c, 0, 57, 42
2, 154391, Note_on_c, 0, 69, 42
2, 154416, Control_c, 0, 64, 0
2, 154621, Note_on_c, 0, 73, 83
2, 154788, Note_on_c, 0, 74, 0
2, 154843, Note_on_c, 0, 71, 84
2, 154886, Note_on_c, 0, 69, 0
2, 154889, Note_on_c, 0, 57, 0
2, 154961, Note_on_c, 0, 73, 0
2, 155030, Control_c, 0, 64, 127
2, 155093, Note_on_c, 0, 69, 95
2, 155162, Note_on_c, 0, 71, 0
2, 155190, Note_on_c, 0, 69, 0
2, 155539, Note_on_c, 0, 57, 96
2, 155539, Note_on_c, 0, 62, 106
2, 155543, Note_on_c, 0, 54, 83
2, 155593, Control_c, 0, 64, 0
2, 156081, Control_c, 0, 64, 127
2, 156226, Note_on_c, 0, 57, 0
2, 156243, Note_on_c, 0, 54, 0
2, 156737, Note_on_c, 0, 62, 0
2, 156825, Note_on_c, 0, 66, 59
2, 156846, Note_on_c, 0, 50, 40
2, 156925, Control_c, 0, 64, 0
2, 157092, Control_c, 0, 64, 127
2, 157111, Note_on_c, 0, 66, 0
2, 157338, Note_on_c, 0, 62, 59
2, 157338, Note_on_c, 0, 54, 47
2, 157355, Note_on_c, 0, 47, 35
2, 157364, Note_on_c, 0, 50, 0
2, 157398, Control_c, 0, 64, 0
2, 157552, Control_c, 0, 64, 127
2, 157656, Note_on_c, 0, 54, 0
2, 157661, Note_on_c, 0, 62, 0
2, 157835, Note_on_c, 0, 47, 0
2, 157842, Note_on_c, 0, 56, 50
2, 157844, Note_on_c, 0, 52, 47
2, 157854, Note_on_c, 0, 59, 52
2, 157886, Control_c, 0, 64, 0
2, 158051, Control_c, 0, 64, 127
2, 158140, Note_on_c, 0, 56, 0
2, 158200, Note_on_c, 0, 59, 0
2, 158394, Note_on_c, 0, 40, 47
2, 158406, Note_on_c, 0, 64, 56
2, 158406, Note_on_c, 0, 56, 43
2, 158429, Note_on_c, 0, 52, 0
2, 158449, Control_c, 0, 64, 0
2, 158615, Control_c, 0, 64, 127
2, 158687, Note_on_c, 0, 64, 0
2, 158705, Note_on_c, 0, 56, 0
2, 158786, Note_on_c, 0, 40, 0
2, 159011, Note_on_c, 0, 61, 50
2, 159033, Note_on_c, 0, 45, 45
2, 159036, Note_on_c, 0, 57, 34
2, 159102, Control_c, 0, 64, 0
2, 159294, Control_c, 0, 64, 127
2, 159455, Note_on_c, 0, 57, 0
2, 159496, Note_on_c, 0, 45, 0
2, 159563, Control_c, 0, 64, 0
2, 159570, Note_on_c, 0, 61, 0
2, 160207, Note_on_c, 0, 71, 54
2, 160211, Note_on_c, 0, 68, 46
2, 160213, Note_on_c, 0, 64, 46
2, 160253, Control_c, 0, 64, 127
2, 160410, Note_on_c, 0, 64, 0
2, 160427, Note_on_c, 0, 68, 0
2, 160444, Note_on_c, 0, 71, 0
2, 160781, Note_on_c, 0, 76, 70
2, 160797, Note_on_c, 0, 68, 40
2, 160819, Note_on_c, 0, 64, 32
2, 160911, Note_on_c, 0, 64, 0
2, 160952, Note_on_c, 0, 76, 0
2, 160969, Note_on_c, 0, 68, 0
2, 161476, Note_on_c, 0, 73, 52
2, 161504, Note_on_c, 0, 57, 43
2, 161507, Note_on_c, 0, 69, 37
2, 161599, Control_c, 0, 64, 0
2, 161762, Note_on_c, 0, 69, 0
2, 161802, Note_on_c, 0, 57, 0
2, 161873, Note_on_c, 0, 73, 0
2, 162820, Note_on_c, 0, 80, 28
2, 162822, Note_on_c, 0, 40, 35
2, 162831, Note_on_c, 0, 83, 39
2, 163068, Note_on_c, 0, 40, 0
2, 163504, Note_on_c, 0, 88, 45
2, 164016, Note_on_c, 0, 80, 0
2, 164289, Note_on_c, 0, 83, 0
2, 164292, Note_on_c, 0, 88, 0
2, 164294, Note_on_c, 0, 33, 49
2, 164305, Note_on_c, 0, 85, 50
2, 164311, Note_on_c, 0, 81, 28
2, 164368, Note_on_c, 0, 33, 0
2, 164435, Note_on_c, 0, 81, 0
2, 164445, Note_on_c, 0, 85, 0
2, 165120, Control_c, 0, 64, 0
2, 165120, End_track
0, 0, End_of_file