0, 0, Header, 1, 2, 240
1, 0, Start_track
1, 0, Time_signature, 4, 2, 24, 8
1, 0, Tempo, 500000
1, 0, End_track
2, 0, Start_track
2, 0, Program_c, 1, 0
2, 0, Note_on_c, 1, 64, 52
2, 301, Note_on_c, 1, 76, 68
2, 303, Note_on_c, 1, 61, 44
2, 309, Note_on_c, 1, 57, 44
2, 309, Note_on_c, 1, 69, 51
2, 320, Note_off_c, 1, 64, 64
2, 393, Control_c, 1, 64, 127
2, 473, Note_off_c, 1, 76, 64
2, 521, Note_off_c, 1, 69, 64
2, 657, Note_on_c, 1, 68, 67
2, 668, Note_on_c, 1, 59, 50
2, 679, Note_off_c, 1, 61, 64
2, 742, Note_off_c, 1, 68, 64
2, 780, Note_on_c, 1, 61, 47
2, 781, Note_off_c, 1, 59, 64
2, 790, Note_on_c, 1, 69, 72
2, 793, Note_on_c, 1, 76, 80
2, 828, Control_c, 1, 64, 0
2, 905, Control_c, 1, 64, 127
2, 937, Note_off_c, 1, 76, 64
2, 1013, Note_on_c, 1, 76, 80
2, 1021, Note_on_c, 1, 73, 66
2, 1025, Note_on_c, 1, 64, 62
2, 1033, Note_off_c, 1, 69, 64
2, 1080, Note_off_c, 1, 73, 64
2, 1087, Note_off_c, 1, 76, 64
2, 1096, Note_off_c, 1, 57, 64
2, 1121, Note_off_c, 1, 61, 64
2, 1151, Note_off_c, 1, 64, 64
2, 1227, Note_on_c, 1, 71, 55
2, 1238, Control_c, 1, 64, 0
2, 1245, Note_on_c, 1, 57, 62
2, 1248, Note_on_c, 1, 62, 63
2, 1258, Note_on_c, 1, 76, 78
2, 1282, Note_off_c, 1, 71, 64
2, 1292, Note_on_c, 1, 78, 83
2, 1296, Control_c, 1, 64, 127
2, 1306, Note_off_c, 1, 76, 64
2, 1324, Note_on_c, 1, 76, 55
2, 1326, Note_off_c, 1, 78, 64
2, 1349, Note_off_c, 1, 76, 64
2, 1351, Note_on_c, 1, 78, 97
2, 1391, Note_on_c, 1, 76, 78
2, 1403, Note_off_c, 1, 78, 64
2, 1425, Note_on_c, 1, 75, 77
2, 1428, Note_off_c, 1, 76, 64
2, 1455, Note_on_c, 1, 76, 109
2, 1465, Note_off_c, 1, 75, 64
2, 1494, Note_on_c, 1, 78, 100
2, 1529, Note_off_c, 1, 76, 64
2, 1600, Note_on_c, 1, 80, 100
2, 1630, Note_off_c, 1, 78, 64
2, 1709, Note_off_c, 1, 80, 64
2, 1730, Note_on_c, 1, 81, 88
2, 1732, Note_on_c, 1, 61, 57
2, 1740, Note_on_c, 1, 69, 36
2, 1750, Note_off_c, 1, 62, 64
2, 1795, Control_c, 1, 64, 0
2, 1948, Control_c, 1, 64, 127
2, 1983, Note_on_c, 1, 76, 65
2, 1986, Note_off_c, 1, 81, 64
2, 1998, Note_off_c, 1, 57, 64
2, 2030, Note_off_c, 1, 61, 64
2, 2040, Note_off_c, 1, 76, 64
2, 2048, Note_off_c, 1, 69, 64
2, 2260, Note_on_c, 1, 76, 61
2, 2262, Note_on_c, 1, 68, 38
2, 2270, Note_on_c, 1, 59, 38
2, 2275, Note_on_c, 1, 57, 35
2, 2313, Control_c, 1, 64, 0
2, 2415, Control_c, 1, 64, 127
2, 2491, Note_on_c, 1, 71, 52
2, 2496, Note_on_c, 1, 62, 50
2, 2500, Note_off_c, 1, 76, 64
2, 2505, Note_off_c, 1, 68, 64
2, 2520, Note_off_c, 1, 71, 64
2, 2593, Note_off_c, 1, 59, 64
2, 2606, Note_off_c, 1, 57, 64
2, 2646, Note_off_c, 1, 62, 64
2, 2737, Note_on_c, 1, 76, 65
2, 2740, Note_on_c, 1, 68, 41
2, 2741, Note_on_c, 1, 57, 41
2, 2745, Note_on_c, 1, 59, 34
2, 2775, Control_c, 1, 64, 0
2, 2851, Control_c, 1, 64, 127
2, 2875, Note_off_c, 1, 76, 64
2, 2886, Note_off_c, 1, 68, 64
2, 2977, Note_on_c, 1, 62, 56
2, 2982, Note_on_c, 1, 76, 83
2, 2988, Note_on_c, 1, 71, 48
2, 3009, Note_off_c, 1, 71, 64
2, 3028, Note_off_c, 1, 76, 64
2, 3078, Note_off_c, 1, 57, 64
2, 3078, Note_off_c, 1, 59, 64
2, 3232, Note_off_c, 1, 62, 64
2, 3235, Note_on_c, 1, 61, 43
2, 3238, Note_on_c, 1, 69, 39
2, 3246, Note_on_c, 1, 76, 64
2, 3248, Note_on_c, 1, 57, 36
2, 3293, Control_c, 1, 64, 0
2, 3360, Note_on_c, 1, 75, 74
2, 3396, Note_off_c, 1, 76, 64
2, 3474, Note_on_c, 1, 76, 103
2, 3482, Note_off_c, 1, 69, 64
2, 3506, Note_off_c, 1, 75, 64
2, 3580, Note_on_c, 1, 78, 91
2, 3606, Note_off_c, 1, 76, 64
2, 3611, Note_off_c, 1, 57, 64
2, 3642, Note_off_c, 1, 61, 64
2, 3696, Note_on_c, 1, 76, 94
2, 3737, Note_off_c, 1, 78, 64
2, 3805, Note_on_c, 1, 74, 91
2, 3807, Note_off_c, 1, 76, 64
2, 3808, Note_on_c, 1, 66, 64
2, 3911, Note_on_c, 1, 73, 84
2, 3923, Note_on_c, 1, 64, 84
2, 3935, Note_off_c, 1, 74, 64
2, 3936, Note_off_c, 1, 66, 64
2, 4020, Note_on_c, 1, 62, 71
2, 4025, Note_on_c, 1, 71, 83
2, 4050, Note_off_c, 1, 64, 64
2, 4061, Note_off_c, 1, 73, 64
2, 4173, Note_on_c, 1, 61, 60
2, 4179, Note_on_c, 1, 76, 69
2, 4183, Note_on_c, 1, 69, 61
2, 4192, Note_on_c, 1, 57, 32
2, 4193, Note_off_c, 1, 71, 64
2, 4206, Note_off_c, 1, 62, 64
2, 4336, Control_c, 1, 64, 127
2, 4507, Note_on_c, 1, 68, 82
2, 4510, Note_on_c, 1, 59, 62
2, 4539, Note_off_c, 1, 61, 64
2, 4548, Note_off_c, 1, 69, 64
2, 4551, Note_off_c, 1, 76, 64
2, 4630, Note_off_c, 1, 59, 64
2, 4636, Note_on_c, 1, 76, 84
2, 4637, Note_on_c, 1, 61, 59
2, 4638, Note_on_c, 1, 69, 79
2, 4647, Note_off_c, 1, 68, 64
2, 4669, Control_c, 1, 64, 0
2, 4759, Control_c, 1, 64, 127
2, 4781, Note_off_c, 1, 76, 64
2, 4854, Note_on_c, 1, 76, 92
2, 4855, Note_on_c, 1, 73, 84
2, 4859, Note_on_c, 1, 64, 72
2, 4861, Note_off_c, 1, 69, 64
2, 4896, Note_off_c, 1, 61, 64
2, 4905, Note_off_c, 1, 73, 64
2, 4908, Note_off_c, 1, 76, 64
2, 4936, Note_on_c, 1, 61, 2
2, 4947, Note_off_c, 1, 57, 64
2, 4965, Note_off_c, 1, 61, 64
2, 4983, Note_off_c, 1, 64, 64
2, 5072, Note_on_c, 1, 71, 50
2, 5082, Note_on_c, 1, 62, 68
2, 5082, Note_on_c, 1, 57, 57
2, 5086, Control_c, 1, 64, 0
2, 5096, Note_on_c, 1, 76, 82
2, 5118, Note_off_c, 1, 71, 64
2, 5133, Note_on_c, 1, 78, 88
2, 5139, Note_off_c, 1, 76, 64
2, 5143, Control_c, 1, 64, 127
2, 5167, Note_on_c, 1, 76, 102
2, 5178, Note_off_c, 1, 78, 64
2, 5203, Note_off_c, 1, 76, 64
2, 5203, Note_on_c, 1, 78, 91
2, 5231, Note_on_c, 1, 76, 105
2, 5248, Note_off_c, 1, 78, 64
2, 5263, Note_on_c, 1, 75, 94
2, 5278, Note_off_c, 1, 76, 64
2, 5288, Note_on_c, 1, 76, 64
2, 5312, Note_off_c, 1, 75, 64
2, 5335, Note_on_c, 1, 78, 105
2, 5377, Note_off_c, 1, 76, 64
2, 5447, Note_on_c, 1, 80, 103
2, 5469, Note_off_c, 1, 78, 64
2, 5548, Note_off_c, 1, 80, 64
2, 5588, Note_on_c, 1, 81, 76
2, 5595, Note_on_c, 1, 61, 54
2, 5598, Note_on_c, 1, 69, 53
2, 5603, Note_off_c, 1, 62, 64
2, 5630, Control_c, 1, 64, 0
2, 5777, Control_c, 1, 64, 127
2, 5883, Note_off_c, 1, 57, 64
2, 5887, Note_on_c, 1, 76, 74
2, 5891, Note_off_c, 1, 81, 64
2, 5905, Note_off_c, 1, 61, 64
2, 5943, Note_off_c, 1, 76, 64
2, 5958, Note_off_c, 1, 69, 64
2, 6122, Note_on_c, 1, 76, 59
2, 6122, Note_on_c, 1, 68, 35
2, 6125, Note_on_c, 1, 57, 35
2, 6127, Note_on_c, 1, 59, 36
2, 6161, Control_c, 1, 64, 0
2, 6263, Control_c, 1, 64, 127
2, 6361, Note_on_c, 1, 71, 46
2, 6363, Note_off_c, 1, 68, 64
2, 6363, Note_off_c, 1, 76, 64
2, 6366, Note_on_c, 1, 62, 42
2, 6380, Note_off_c, 1, 71, 64
2, 6396, Note_off_c, 1, 59, 64
2, 6414, Note_off_c, 1, 62, 64
2, 6468, Note_off_c, 1, 57, 64
2, 6598, Note_on_c, 1, 68, 45
2, 6598, Note_on_c, 1, 59, 49
2, 6599, Note_on_c, 1, 76, 64
2, 6600, Note_on_c, 1, 57, 42
2, 6622, Control_c, 1, 64, 0
2, 6705, Control_c, 1, 64, 127
2, 6717, Note_off_c, 1, 76, 64
2, 6723, Note_off_c, 1, 68, 64
2, 6840, Note_on_c, 1, 76, 71
2, 6840, Note_on_c, 1, 62, 43
2, 6850, Note_on_c, 1, 71, 31
2, 6859, Control_c, 1, 64, 0
2, 6923, Note_off_c, 1, 76, 64
2, 6923, Control_c, 1, 64, 127
2, 6933, Note_off_c, 1, 71, 64
2, 6944, Note_off_c, 1, 59, 64
2, 6946, Note_off_c, 1, 57, 64
2, 6966, Note_off_c, 1, 62, 64
2, 7115, Note_on_c, 1, 69, 45
2, 7120, Note_on_c, 1, 61, 32
2, 7129, Note_on_c, 1, 57, 25
2, 7140, Control_c, 1, 64, 0
2, 7230, Control_c, 1, 64, 127
2, 7321, Note_off_c, 1, 57, 64
2, 7321, Note_off_c, 1, 69, 64
2, 7356, Note_off_c, 1, 61, 64
2, 7575, Control_c, 1, 64, 0
2, 7988, Note_on_c, 1, 64, 42
2, 8152, Control_c, 1, 64, 127
2, 8285, Note_on_c, 1, 76, 57
2, 8289, Note_on_c, 1, 57, 33
2, 8291, Note_off_c, 1, 64, 64
2, 8291, Note_on_c, 1, 61, 34
2, 8304, Note_on_c, 1, 69, 31
2, 8332, Control_c, 1, 64, 0
2, 8408, Control_c, 1, 64, 127
2, 8442, Note_off_c, 1, 76, 64
2, 8484, Note_off_c, 1, 69, 64
2, 8651, Note_on_c, 1, 68, 59
2, 8655, Note_on_c, 1, 59, 47
2, 8664, Note_off_c, 1, 61, 64
2, 8729, Note_off_c, 1, 68, 64
2, 8775, Note_off_c, 1, 59, 64
2, 8777, Note_on_c, 1, 61, 57
2, 8787, Note_on_c, 1, 69, 54
2, 8788, Note_on_c, 1, 76, 67
2, 8811, Control_c, 1, 64, 0
2, 8901, Control_c, 1, 64, 127
2, 8913, Note_off_c, 1, 76, 64
2, 9006, Note_on_c, 1, 76, 88
2, 9007, Note_on_c, 1, 73, 72
2, 9008, Note_on_c, 1, 64, 67
2, 9026, Note_off_c, 1, 69, 64
2, 9087, Note_off_c, 1, 57, 64
2, 9089, Note_off_c, 1, 76, 64
2, 9096, Note_off_c, 1, 73, 64
2, 9106, Note_off_c, 1, 61, 64
2, 9121, Note_off_c, 1, 64, 64
2, 9215, Note_on_c, 1, 71, 59
2, 9221, Control_c, 1, 64, 0
2, 9231, Note_on_c, 1, 62, 64
2, 9231, Note_on_c, 1, 57, 65
2, 9249, Note_on_c, 1, 76, 87
2, 9280, Note_off_c, 1, 71, 64
2, 9283, Note_on_c, 1, 78, 87
2, 9285, Control_c, 1, 64, 127
2, 9293, Note_off_c, 1, 76, 64
2, 9321, Note_on_c, 1, 76, 80
2, 9323, Note_off_c, 1, 78, 64
2, 9339, Note_off_c, 1, 76, 64
2, 9346, Note_on_c, 1, 78, 97
2, 9374, Note_on_c, 1, 76, 93
2, 9391, Note_off_c, 1, 78, 64
2, 9412, Note_off_c, 1, 76, 64
2, 9413, Note_on_c, 1, 75, 85
2, 9439, Note_on_c, 1, 76, 107
2, 9461, Note_off_c, 1, 75, 64
2, 9484, Note_on_c, 1, 78, 98
2, 9539, Note_off_c, 1, 76, 64
2, 9594, Note_on_c, 1, 80, 98
2, 9619, Note_off_c, 1, 78, 64
2, 9723, Note_off_c, 1, 80, 64
2, 9725, Note_on_c, 1, 81, 83
2, 9725, Note_on_c, 1, 61, 48
2, 9740, Note_on_c, 1, 69, 56
2, 9743, Note_off_c, 1, 62, 64
2, 9785, Control_c, 1, 64, 0
2, 9912, Control_c, 1, 64, 127
2, 9945, Note_off_c, 1, 57, 64
2, 10008, Note_off_c, 1, 81, 64
2, 10011, Note_on_c, 1, 76, 63
2, 10078, Note_off_c, 1, 69, 64
2, 10092, Note_off_c, 1, 76, 64
2, 10128, Note_off_c, 1, 61, 64
2, 10265, Note_on_c, 1, 76, 57
2, 10271, Note_on_c, 1, 68, 34
2, 10271, Note_on_c, 1, 59, 43
2, 10274, Note_on_c, 1, 57, 36
2, 10310, Control_c, 1, 64, 0
2, 10418, Control_c, 1, 64, 127
2, 10502, Note_on_c, 1, 71, 58
2, 10510, Note_off_c, 1, 76, 64
2, 10510, Note_on_c, 1, 62, 45
2, 10520, Note_off_c, 1, 68, 64
2, 10550, Note_off_c, 1, 71, 64
2, 10565, Note_off_c, 1, 59, 64
2, 10611, Note_off_c, 1, 62, 64
2, 10620, Note_off_c, 1, 57, 64
2, 10733, Note_on_c, 1, 68, 53
2, 10734, Note_on_c, 1, 76, 69
2, 10740, Note_on_c, 1, 57, 44
2, 10742, Note_on_c, 1, 59, 35
2, 10758, Control_c, 1, 64, 0
2, 10853, Control_c, 1, 64, 127
2, 10861, Note_off_c, 1, 76, 64
2, 10879, Note_off_c, 1, 68, 64
2, 10963, Note_on_c, 1, 76, 87
2, 10967, Note_on_c, 1, 62, 50
2, 10969, Note_on_c, 1, 71, 50
2, 10990, Note_off_c, 1, 71, 64
2, 11014, Note_off_c, 1, 59, 64
2, 11021, Note_off_c, 1, 76, 64
2, 11043, Note_off_c, 1, 57, 64
2, 11121, Note_off_c, 1, 62, 64
2, 11187, Note_on_c, 1, 69, 58
2, 11197, Note_on_c, 1, 61, 47
2, 11197, Note_on_c, 1, 76, 72
2, 11201, Note_on_c, 1, 57, 47
2, 11213, Control_c, 1, 64, 0
2, 11306, Note_on_c, 1, 75, 83
2, 11351, Note_off_c, 1, 76, 64
2, 11416, Note_on_c, 1, 76, 98
2, 11430, Note_off_c, 1, 69, 64
2, 11460, Note_off_c, 1, 75, 64
2, 11508, Note_off_c, 1, 57, 64
2, 11521, Note_on_c, 1, 78, 82
2, 11538, Note_off_c, 1, 61, 64
2, 11544, Note_off_c, 1, 76, 64
2, 11633, Note_on_c, 1, 76, 83
2, 11663, Note_off_c, 1, 78, 64
2, 11736, Note_on_c, 1, 66, 59
2, 11741, Note_off_c, 1, 76, 64
2, 11741, Note_on_c, 1, 74, 80
2, 11840, Note_on_c, 1, 73, 77
2, 11849, Note_on_c, 1, 64, 79
2, 11851, Note_off_c, 1, 66, 64
2, 11853, Note_off_c, 1, 74, 64
2, 11951, Note_on_c, 1, 71, 81
2, 11954, Note_on_c, 1, 62, 76
2, 11984, Note_off_c, 1, 73, 64
2, 11986, Note_off_c, 1, 64, 64
2, 12089, Note_on_c, 1, 61, 50
2, 12093, Note_on_c, 1, 76, 68
2, 12095, Note_on_c, 1, 69, 57
2, 12096, Note_on_c, 1, 57, 42
2, 12100, Note_off_c, 1, 71, 64
2, 12111, Note_off_c, 1, 62, 64
2, 12236, Control_c, 1, 64, 127
2, 12435, Note_on_c, 1, 68, 72
2, 12435, Note_on_c, 1, 59, 54
2, 12455, Note_off_c, 1, 61, 64
2, 12467, Note_off_c, 1, 76, 64
2, 12470, Note_off_c, 1, 69, 64
2, 12514, Note_off_c, 1, 68, 64
2, 12534, Note_off_c, 1, 59, 64
2, 12569, Note_on_c, 1, 76, 80
2, 12570, Note_on_c, 1, 61, 49
2, 12575, Note_on_c, 1, 69, 67
2, 12595, Control_c, 1, 64, 0
2, 12685, Control_c, 1, 64, 127
2, 12713, Note_off_c, 1, 76, 64
2, 12803, Note_on_c, 1, 76, 91
2, 12804, Note_on_c, 1, 64, 73
2, 12804, Note_on_c, 1, 73, 74
2, 12806, Control_c, 1, 64, 0
2, 12822, Note_off_c, 1, 69, 64
2, 12876, Control_c, 1, 64, 127
2, 12910, Note_off_c, 1, 76, 64
2, 12916, Note_off_c, 1, 73, 64
2, 12919, Note_off_c, 1, 57, 64
2, 12927, Note_off_c, 1, 61, 64
2, 12954, Note_off_c, 1, 64, 64
2, 13026, Note_on_c, 1, 71, 70
2, 13037, Control_c, 1, 64, 0
2, 13039, Note_on_c, 1, 57, 76
2, 13039, Note_on_c, 1, 62, 75
2, 13051, Note_on_c, 1, 76, 91
2, 13074, Note_off_c, 1, 71, 64
2, 13088, Note_on_c, 1, 78, 90
2, 13098, Note_off_c, 1, 76, 64
2, 13101, Control_c, 1, 64, 127
2, 13117, Note_on_c, 1, 76, 69
2, 13128, Note_off_c, 1, 78, 64
2, 13141, Note_off_c, 1, 76, 64
2, 13153, Note_on_c, 1, 78, 90
2, 13176, Note_on_c, 1, 76, 98
2, 13199, Note_off_c, 1, 78, 64
2, 13217, Note_on_c, 1, 75, 89
2, 13222, Note_off_c, 1, 76, 64
2, 13242, Note_on_c, 1, 76, 96
2, 13264, Note_off_c, 1, 75, 64
2, 13283, Note_on_c, 1, 78, 99
2, 13322, Note_off_c, 1, 76, 64
2, 13392, Note_on_c, 1, 80, 101
2, 13419, Note_off_c, 1, 78, 64
2, 13484, Note_off_c, 1, 80, 64
2, 13523, Note_on_c, 1, 81, 80
2, 13529, Note_on_c, 1, 61, 46
2, 13533, Note_on_c, 1, 69, 59
2, 13551, Note_off_c, 1, 62, 64
2, 13568, Control_c, 1, 64, 0
2, 13703, Control_c, 1, 64, 127
2, 13803, Note_off_c, 1, 81, 64
2, 13804, Note_on_c, 1, 76, 55
2, 13816, Note_off_c, 1, 57, 64
2, 13838, Note_off_c, 1, 61, 64
2, 13859, Note_off_c, 1, 69, 64
2, 13893, Note_off_c, 1, 76, 64
2, 14057, Note_on_c, 1, 76, 63
2, 14061, Note_on_c, 1, 68, 38
2, 14070, Note_on_c, 1, 57, 40
2, 14072, Note_on_c, 1, 59, 36
2, 14099, Control_c, 1, 64, 0
2, 14196, Control_c, 1, 64, 127
2, 14294, Note_on_c, 1, 71, 59
2, 14301, Note_on_c, 1, 62, 48
2, 14312, Note_off_c, 1, 76, 64
2, 14323, Note_off_c, 1, 68, 64
2, 14345, Note_off_c, 1, 57, 64
2, 14354, Note_off_c, 1, 71, 64
2, 14354, Note_off_c, 1, 59, 64
2, 14358, Note_off_c, 1, 62, 64
2, 14522, Note_on_c, 1, 68, 45
2, 14523, Note_on_c, 1, 76, 66
2, 14531, Note_on_c, 1, 59, 36
2, 14533, Note_on_c, 1, 57, 41
2, 14541, Control_c, 1, 64, 0
2, 14618, Control_c, 1, 64, 127
2, 14627, Note_off_c, 1, 76, 64
2, 14638, Note_off_c, 1, 68, 64
2, 14766, Note_on_c, 1, 71, 44
2, 14769, Note_on_c, 1, 76, 59
2, 14780, Note_on_c, 1, 62, 48
2, 14791, Control_c, 1, 64, 0
2, 14854, Note_off_c, 1, 59, 64
2, 14861, Control_c, 1, 64, 127
2, 14878, Note_off_c, 1, 76, 64
2, 14896, Note_off_c, 1, 71, 64
2, 14905, Note_off_c, 1, 57, 64
2, 14967, Note_off_c, 1, 62, 64
2, 15040, Note_on_c, 1, 61, 35
2, 15042, Note_on_c, 1, 69, 38
2, 15047, Note_on_c, 1, 57, 26
2, 15086, Control_c, 1, 64, 0
2, 15181, Control_c, 1, 64, 127
2, 15238, Note_off_c, 1, 69, 64
2, 15245, Note_off_c, 1, 57, 64
2, 15245, Note_off_c, 1, 61, 64
2, 15514, Control_c, 1, 64, 0
2, 15875, Note_on_c, 1, 76, 91
2, 16177, Note_on_c, 1, 59, 50
2, 16178, Note_on_c, 1, 74, 84
2, 16179, Note_on_c, 1, 68, 50
2, 16186, Note_on_c, 1, 52, 45
2, 16194, Note_off_c, 1, 76, 64
2, 16385, Control_c, 1, 64, 127
2, 16527, Note_on_c, 1, 61, 70
2, 16532, Note_on_c, 1, 76, 96
2, 16560, Note_off_c, 1, 74, 64
2, 16562, Note_off_c, 1, 59, 64
2, 16656, Note_on_c, 1, 59, 67
2, 16657, Note_on_c, 1, 74, 96
2, 16668, Note_off_c, 1, 61, 64
2, 16677, Note_off_c, 1, 76, 64
2, 16686, Control_c, 1, 64, 0
2, 16776, Control_c, 1, 64, 127
2, 16813, Note_off_c, 1, 68, 64
2, 16885, Note_on_c, 1, 73, 94
2, 16890, Note_on_c, 1, 57, 79
2, 16891, Note_on_c, 1, 69, 75
2, 16904, Control_c, 1, 64, 0
2, 16923, Note_off_c, 1, 59, 64
2, 16966, Note_off_c, 1, 74, 64
2, 16980, Control_c, 1, 64, 127
2, 17004, Note_off_c, 1, 52, 64
2, 17013, Note_off_c, 1, 69, 64
2, 17140, Note_off_c, 1, 73, 64
2, 17160, Note_on_c, 1, 71, 70
2, 17160, Note_on_c, 1, 68, 59
2, 17160, Note_on_c, 1, 62, 57
2, 17166, Note_off_c, 1, 57, 64
2, 17166, Note_on_c, 1, 52, 64
2, 17198, Control_c, 1, 64, 0
2, 17307, Control_c, 1, 64, 127
2, 17408, Note_off_c, 1, 62, 64
2, 17492, Note_on_c, 1, 73, 78
2, 17494, Note_off_c, 1, 71, 64
2, 17501, Note_on_c, 1, 64, 63
2, 17541, Note_off_c, 1, 68, 64
2, 17555, Note_off_c, 1, 64, 64
2, 17621, Note_on_c, 1, 62, 59
2, 17627, Note_on_c, 1, 71, 65
2, 17645, Note_off_c, 1, 73, 64
2, 17653, Control_c, 1, 64, 0
2, 17742, Control_c, 1, 64, 127
2, 17851, Control_c, 1, 64, 0
2, 17853, Note_on_c, 1, 61, 57
2, 17860, Note_on_c, 1, 69, 76
2, 17863, Note_on_c, 1, 64, 39
2, 17871, Note_off_c, 1, 62, 64
2, 17928, Control_c, 1, 64, 127
2, 17955, Note_off_c, 1, 64, 64
2, 17961, Note_off_c, 1, 71, 64
2, 17970, Note_off_c, 1, 52, 64
2, 17976, Note_off_c, 1, 61, 64
2, 17977, Note_off_c, 1, 69, 64
2, 18159, Note_on_c, 1, 76, 98
2, 18163, Note_on_c, 1, 59, 55
2, 18166, Note_on_c, 1, 68, 62
2, 18171, Control_c, 1, 64, 0
2, 18173, Note_on_c, 1, 52, 51
2, 18260, Control_c, 1, 64, 127
2, 18287, Note_on_c, 1, 74, 97
2, 18313, Note_off_c, 1, 68, 64
2, 18317, Note_off_c, 1, 76, 64
2, 18413, Note_on_c, 1, 73, 77
2, 18420, Control_c, 1, 64, 0
2, 18423, Note_on_c, 1, 69, 65
2, 18428, Note_on_c, 1, 57, 50
2, 18429, Note_off_c, 1, 74, 64
2, 18447, Note_off_c, 1, 59, 64
2, 18517, Control_c, 1, 64, 127
2, 18525, Note_off_c, 1, 69, 64
2, 18530, Note_off_c, 1, 73, 64
2, 18561, Note_off_c, 1, 52, 64
2, 18568, Note_off_c, 1, 57, 64
2, 18639, Note_on_c, 1, 76, 101
2, 18641, Note_on_c, 1, 68, 76
2, 18647, Note_on_c, 1, 52, 63
2, 18649, Note_on_c, 1, 59, 60
2, 18664, Control_c, 1, 64, 0
2, 18747, Control_c, 1, 64, 127
2, 18760, Note_on_c, 1, 74, 96
2, 18791, Note_off_c, 1, 76, 64
2, 18801, Note_off_c, 1, 68, 64
2, 18885, Note_on_c, 1, 73, 74
2, 18889, Note_off_c, 1, 59, 64
2, 18889, Note_on_c, 1, 57, 58
2, 18891, Note_off_c, 1, 74, 64
2, 18894, Note_on_c, 1, 69, 53
2, 18901, Control_c, 1, 64, 0
2, 18991, Control_c, 1, 64, 127
2, 18995, Note_off_c, 1, 52, 64
2, 19001, Note_off_c, 1, 57, 64
2, 19002, Note_off_c, 1, 69, 64
2, 19006, Note_off_c, 1, 73, 64
2, 19093, Control_c, 1, 64, 0
2, 19125, Note_on_c, 1, 71, 67
2, 19126, Note_on_c, 1, 68, 56
2, 19129, Note_on_c, 1, 64, 60
2, 19129, Note_on_c, 1, 52, 43
2, 19157, Control_c, 1, 64, 127
2, 19173, Note_off_c, 1, 52, 64
2, 19255, Note_on_c, 1, 63, 69
2, 19274, Note_off_c, 1, 64, 64
2, 19298, Control_c, 1, 64, 0
2, 19374, Note_on_c, 1, 64, 88
2, 19392, Note_off_c, 1, 63, 64
2, 19480, Note_on_c, 1, 66, 84
2, 19497, Note_off_c, 1, 64, 64
2, 19523, Note_off_c, 1, 68, 64
2, 19548, Control_c, 1, 64, 127
2, 19585, Note_off_c, 1, 71, 64
2, 19593, Note_on_c, 1, 64, 97
2, 19596, Note_off_c, 1, 66, 64
2, 19633, Note_off_c, 1, 64, 64
2, 19698, Note_on_c, 1, 62, 78
2, 19704, Note_on_c, 1, 64, 100
2, 19733, Control_c, 1, 64, 0
2, 19812, Note_on_c, 1, 66, 88
2, 19820, Note_on_c, 1, 61, 70
2, 19851, Note_off_c, 1, 62, 64
2, 19872, Note_off_c, 1, 64, 64
2, 19930, Note_on_c, 1, 59, 70
2, 19932, Note_on_c, 1, 68, 79
2, 19943, Note_off_c, 1, 61, 64
2, 19957, Control_c, 1, 64, 127
2, 19978, Note_off_c, 1, 66, 64
2, 19998, Note_off_c, 1, 68, 64
2, 19998, Note_off_c, 1, 59, 64
2, 20113, Note_on_c, 1, 76, 56
2, 20117, Note_on_c, 1, 61, 43
2, 20121, Note_on_c, 1, 69, 43
2, 20124, Note_on_c, 1, 57, 42
2, 20150, Control_c, 1, 64, 0
2, 20341, Control_c, 1, 64, 127
2, 20456, Note_on_c, 1, 68, 56
2, 20457, Note_on_c, 1, 62, 47
2, 20471, Note_off_c, 1, 61, 64
2, 20477, Note_off_c, 1, 69, 64
2, 20501, Note_off_c, 1, 76, 64
2, 20513, Note_off_c, 1, 68, 64
2, 20551, Note_off_c, 1, 62, 64
2, 20593, Note_on_c, 1, 69, 62
2, 20595, Note_on_c, 1, 61, 53
2, 20595, Note_on_c, 1, 76, 67
2, 20617, Control_c, 1, 64, 0
2, 20713, Control_c, 1, 64, 127
2, 20721, Note_off_c, 1, 76, 64
2, 20766, Note_off_c, 1, 69, 64
2, 20823, Note_on_c, 1, 76, 81
2, 20825, Note_on_c, 1, 64, 60
2, 20831, Note_on_c, 1, 73, 62
2, 20835, Control_c, 1, 64, 0
2, 20885, Control_c, 1, 64, 127
2, 20910, Note_off_c, 1, 76, 64
2, 20911, Note_off_c, 1, 73, 64
2, 20920, Note_off_c, 1, 57, 64
2, 20928, Note_off_c, 1, 61, 64
2, 20956, Note_off_c, 1, 64, 64
2, 21040, Note_on_c, 1, 71, 62
2, 21045, Control_c, 1, 64, 0
2, 21051, Note_on_c, 1, 57, 62
2, 21053, Note_on_c, 1, 62, 69
2, 21065, Note_on_c, 1, 76, 87
2, 21095, Note_off_c, 1, 71, 64
2, 21101, Note_on_c, 1, 78, 92
2, 21110, Control_c, 1, 64, 127
2, 21112, Note_off_c, 1, 76, 64
2, 21142, Note_off_c, 1, 78, 64
2, 21142, Note_on_c, 1, 76, 97
2, 21161, Note_off_c, 1, 76, 64
2, 21164, Note_on_c, 1, 78, 95
2, 21196, Note_on_c, 1, 76, 95
2, 21215, Note_off_c, 1, 78, 64
2, 21234, Note_off_c, 1, 76, 64
2, 21237, Note_on_c, 1, 75, 88
2, 21262, Note_on_c, 1, 76, 108
2, 21283, Note_off_c, 1, 75, 64
2, 21306, Note_on_c, 1, 78, 100
2, 21351, Note_off_c, 1, 76, 64
2, 21421, Note_on_c, 1, 80, 101
2, 21448, Note_off_c, 1, 78, 64
2, 21504, Note_off_c, 1, 80, 64
2, 21545, Note_on_c, 1, 81, 79
2, 21551, Note_on_c, 1, 61, 52
2, 21553, Note_on_c, 1, 69, 64
2, 21559, Note_off_c, 1, 62, 64
2, 21584, Control_c, 1, 64, 0
2, 21698, Control_c, 1, 64, 127
2, 21781, Note_off_c, 1, 57, 64
2, 21803, Note_on_c, 1, 76, 82
2, 21809, Note_off_c, 1, 81, 64
2, 21817, Note_off_c, 1, 61, 64
2, 21847, Note_off_c, 1, 69, 64
2, 21855, Note_off_c, 1, 76, 64
2, 22018, Note_on_c, 1, 57, 43
2, 22018, Note_on_c, 1, 76, 68
2, 22022, Note_on_c, 1, 68, 42
2, 22023, Note_on_c, 1, 59, 46
2, 22063, Control_c, 1, 64, 0
2, 22173, Control_c, 1, 64, 127
2, 22261, Note_on_c, 1, 71, 49
2, 22261, Note_on_c, 1, 62, 42
2, 22266, Note_off_c, 1, 76, 64
2, 22269, Note_off_c, 1, 68, 64
2, 22311, Note_off_c, 1, 71, 64
2, 22320, Note_off_c, 1, 62, 64
2, 22321, Note_off_c, 1, 59, 64
2, 22324, Note_off_c, 1, 57, 64
2, 22497, Note_on_c, 1, 68, 42
2, 22505, Note_on_c, 1, 76, 51
2, 22508, Note_on_c, 1, 57, 41
2, 22509, Note_on_c, 1, 59, 37
2, 22512, Control_c, 1, 64, 0
2, 22608, Control_c, 1, 64, 127
2, 22614, Note_off_c, 1, 76, 64
2, 22645, Note_off_c, 1, 68, 64
2, 22745, Note_on_c, 1, 76, 65
2, 22747, Note_on_c, 1, 62, 40
2, 22750, Note_on_c, 1, 71, 37
2, 22761, Control_c, 1, 64, 0
2, 22835, Note_off_c, 1, 76, 64
2, 22844, Note_off_c, 1, 59, 64
2, 22845, Control_c, 1, 64, 127
2, 22853, Note_off_c, 1, 57, 64
2, 22855, Note_off_c, 1, 71, 64
2, 22893, Note_off_c, 1, 62, 64
2, 23028, Note_on_c, 1, 69, 45
2, 23030, Note_on_c, 1, 61, 34
2, 23040, Note_on_c, 1, 57, 25
2, 23063, Control_c, 1, 64, 0
2, 23152, Control_c, 1, 64, 127
2, 23244, Note_off_c, 1, 57, 64
2, 23263, Note_off_c, 1, 69, 64
2, 23263, Note_off_c, 1, 61, 64
2, 23465, Control_c, 1, 64, 0
2, 23823, Note_on_c, 1, 76, 56
2, 24086, Note_off_c, 1, 76, 64
2, 24086, Note_on_c, 1, 59, 38
2, 24090, Note_on_c, 1, 52, 50
2, 24094, Note_on_c, 1, 74, 59
2, 24098, Note_on_c, 1, 68, 30
2, 24221, Control_c, 1, 64, 127
2, 24415, Note_on_c, 1, 61, 44
2, 24416, Note_off_c, 1, 74, 64
2, 24432, Note_on_c, 1, 76, 70
2, 24442, Note_off_c, 1, 59, 64
2, 24536, Note_off_c, 1, 68, 64
2, 24548, Note_on_c, 1, 59, 57
2, 24554, Note_off_c, 1, 61, 64
2, 24559, Note_on_c, 1, 74, 64
2, 24567, Note_off_c, 1, 76, 64
2, 24586, Control_c, 1, 64, 0
2, 24682, Control_c, 1, 64, 127
2, 24775, Note_on_c, 1, 73, 71
2, 24782, Note_on_c, 1, 57, 53
2, 24782, Note_on_c, 1, 69, 48
2, 24785, Note_off_c, 1, 59, 64
2, 24791, Control_c, 1, 64, 0
2, 24792, Note_off_c, 1, 74, 64
2, 24874, Control_c, 1, 64, 127
2, 24913, Note_off_c, 1, 69, 64
2, 24926, Note_off_c, 1, 52, 64
2, 24974, Note_off_c, 1, 73, 64
2, 25020, Note_on_c, 1, 71, 65
2, 25020, Note_on_c, 1, 68, 44
2, 25026, Note_off_c, 1, 57, 64
2, 25026, Note_on_c, 1, 62, 44
2, 25028, Note_on_c, 1, 52, 37
2, 25034, Control_c, 1, 64, 0
2, 25130, Control_c, 1, 64, 127
2, 25228, Note_off_c, 1, 62, 64
2, 25305, Note_off_c, 1, 71, 64
2, 25336, Note_on_c, 1, 73, 79
2, 25346, Note_on_c, 1, 64, 70
2, 25362, Note_off_c, 1, 68, 64
2, 25403, Note_off_c, 1, 64, 64
2, 25461, Note_on_c, 1, 62, 61
2, 25462, Note_on_c, 1, 71, 82
2, 25490, Note_off_c, 1, 73, 64
2, 25508, Control_c, 1, 64, 0
2, 25585, Control_c, 1, 64, 127
2, 25668, Control_c, 1, 64, 0
2, 25672, Note_on_c, 1, 61, 67
2, 25674, Note_on_c, 1, 69, 86
2, 25677, Note_on_c, 1, 64, 58
2, 25719, Control_c, 1, 64, 127
2, 25731, Note_off_c, 1, 62, 64
2, 25756, Note_off_c, 1, 71, 64
2, 25761, Note_off_c, 1, 64, 64
2, 25767, Note_off_c, 1, 52, 64
2, 25776, Note_off_c, 1, 61, 64
2, 25781, Note_off_c, 1, 69, 64
2, 25897, Note_on_c, 1, 76, 95
2, 25900, Note_on_c, 1, 68, 68
2, 25903, Note_on_c, 1, 59, 56
2, 25911, Note_on_c, 1, 52, 49
2, 25918, Control_c, 1, 64, 0
2, 26001, Control_c, 1, 64, 127
2, 26011, Note_on_c, 1, 74, 99
2, 26032, Note_off_c, 1, 68, 64
2, 26034, Note_off_c, 1, 76, 64
2, 26154, Note_on_c, 1, 73, 77
2, 26160, Note_on_c, 1, 69, 60
2, 26171, Note_on_c, 1, 57, 41
2, 26173, Note_off_c, 1, 74, 64
2, 26180, Control_c, 1, 64, 0
2, 26181, Note_off_c, 1, 59, 64
2, 26276, Control_c, 1, 64, 127
2, 26285, Note_off_c, 1, 52, 64
2, 26288, Note_off_c, 1, 69, 64
2, 26295, Note_off_c, 1, 73, 64
2, 26326, Note_off_c, 1, 57, 64
2, 26375, Note_on_c, 1, 76, 97
2, 26379, Note_on_c, 1, 68, 69
2, 26379, Note_on_c, 1, 52, 44
2, 26380, Note_on_c, 1, 59, 59
2, 26404, Control_c, 1, 64, 0
2, 26480, Control_c, 1, 64, 127
2, 26493, Note_on_c, 1, 74, 94
2, 26520, Note_off_c, 1, 68, 64
2, 26520, Note_off_c, 1, 76, 64
2, 26627, Note_on_c, 1, 73, 72
2, 26631, Note_off_c, 1, 59, 64
2, 26633, Note_on_c, 1, 57, 51
2, 26635, Control_c, 1, 64, 0
2, 26636, Note_on_c, 1, 69, 47
2, 26650, Note_off_c, 1, 74, 64
2, 26737, Note_off_c, 1, 69, 64
2, 26737, Note_off_c, 1, 52, 64
2, 26737, Control_c, 1, 64, 127
2, 26749, Note_off_c, 1, 57, 64
2, 26751, Note_off_c, 1, 73, 64
2, 26859, Control_c, 1, 64, 0
2, 26876, Note_on_c, 1, 71, 60
2, 26876, Note_on_c, 1, 64, 55
2, 26879, Note_on_c, 1, 68, 44
2, 26881, Note_on_c, 1, 52, 39
2, 26916, Control_c, 1, 64, 127
2, 26923, Note_off_c, 1, 52, 64
2, 27016, Note_on_c, 1, 63, 70
2, 27040, Note_off_c, 1, 64, 64
2, 27096, Control_c, 1, 64, 0
2, 27135, Note_on_c, 1, 64, 99
2, 27157, Note_off_c, 1, 63, 64
2, 27243, Note_on_c, 1, 66, 95
2, 27271, Note_off_c, 1, 64, 64
2, 27294, Control_c, 1, 64, 127
2, 27306, Note_off_c, 1, 68, 64
2, 27350, Note_off_c, 1, 71, 64
2, 27358, Note_on_c, 1, 64, 102
2, 27363, Note_off_c, 1, 66, 64
2, 27395, Note_off_c, 1, 64, 64
2, 27463, Note_on_c, 1, 62, 84
2, 27465, Note_on_c, 1, 64, 105
2, 27480, Control_c, 1, 64, 0
2, 27571, Note_on_c, 1, 66, 88
2, 27576, Note_on_c, 1, 61, 81
2, 27607, Note_off_c, 1, 62, 64
2, 27628, Note_off_c, 1, 64, 64
2, 27683, Note_on_c, 1, 68, 85
2, 27687, Note_on_c, 1, 59, 67
2, 27699, Note_off_c, 1, 61, 64
2, 27707, Note_off_c, 1, 66, 64
2, 27837, Note_off_c, 1, 68, 64
2, 27855, Note_off_c, 1, 59, 64
2, 27877, Note_on_c, 1, 61, 48
2, 27878, Note_on_c, 1, 76, 51
2, 27880, Note_on_c, 1, 57, 41
2, 27883, Note_on_c, 1, 69, 40
2, 28023, Control_c, 1, 64, 127
2, 28247, Note_on_c, 1, 68, 55
2, 28253, Note_on_c, 1, 62, 40
2, 28262, Note_off_c, 1, 69, 64
2, 28268, Note_off_c, 1, 61, 64
2, 28289, Note_off_c, 1, 76, 64
2, 28325, Note_off_c, 1, 68, 64
2, 28326, Note_off_c, 1, 62, 64
2, 28384, Note_on_c, 1, 61, 54
2, 28392, Note_on_c, 1, 69, 54
2, 28394, Note_on_c, 1, 76, 54
2, 28434, Control_c, 1, 64, 0
2, 28511, Control_c, 1, 64, 127
2, 28525, Note_off_c, 1, 76, 64
2, 28589, Note_off_c, 1, 69, 64
2, 28615, Note_off_c, 1, 61, 64
2, 28621, Note_on_c, 1, 76, 80
2, 28627, Note_on_c, 1, 64, 58
2, 28628, Note_on_c, 1, 73, 56
2, 28632, Control_c, 1, 64, 0
2, 28696, Control_c, 1, 64, 127
2, 28705, Note_off_c, 1, 76, 64
2, 28709, Note_off_c, 1, 73, 64
2, 28734, Note_off_c, 1, 57, 64
2, 28766, Note_off_c, 1, 64, 64
2, 28838, Note_on_c, 1, 71, 47
2, 28855, Note_on_c, 1, 57, 54
2, 28862, Note_on_c, 1, 62, 49
2, 28862, Control_c, 1, 64, 0
2, 28873, Note_on_c, 1, 76, 84
2, 28880, Note_off_c, 1, 71, 64
2, 28908, Note_on_c, 1, 78, 87
2, 28915, Note_off_c, 1, 76, 64
2, 28921, Control_c, 1, 64, 127
2, 28943, Note_on_c, 1, 76, 100
2, 28948, Note_off_c, 1, 78, 64
2, 28973, Note_on_c, 1, 78, 93
2, 28978, Note_off_c, 1, 76, 64
2, 29010, Note_on_c, 1, 76, 96
2, 29020, Note_off_c, 1, 78, 64
2, 29032, Note_off_c, 1, 76, 64
2, 29039, Note_on_c, 1, 75, 85
2, 29064, Note_on_c, 1, 76, 102
2, 29082, Note_off_c, 1, 75, 64
2, 29123, Note_on_c, 1, 78, 92
2, 29152, Note_off_c, 1, 76, 64
2, 29243, Note_on_c, 1, 80, 90
2, 29258, Note_off_c, 1, 78, 64
2, 29320, Note_off_c, 1, 80, 64
2, 29378, Note_off_c, 1, 62, 64
2, 29382, Note_on_c, 1, 81, 72
2, 29389, Note_on_c, 1, 61, 39
2, 29391, Note_on_c, 1, 69, 45
2, 29433, Control_c, 1, 64, 0
2, 29541, Control_c, 1, 64, 127
2, 29624, Note_on_c, 1, 76, 75
2, 29629, Note_off_c, 1, 81, 64
2, 29634, Note_off_c, 1, 57, 64
2, 29664, Note_off_c, 1, 61, 64
2, 29665, Note_off_c, 1, 69, 64
2, 29667, Note_off_c, 1, 76, 64
2, 29850, Note_on_c, 1, 68, 47
2, 29852, Note_on_c, 1, 76, 67
2, 29858, Note_on_c, 1, 57, 55
2, 29865, Note_on_c, 1, 59, 37
2, 29893, Control_c, 1, 64, 0
2, 30002, Control_c, 1, 64, 127
2, 30090, Note_on_c, 1, 62, 49
2, 30093, Note_on_c, 1, 71, 54
2, 30101, Note_off_c, 1, 76, 64
2, 30113, Note_off_c, 1, 68, 64
2, 30136, Note_off_c, 1, 57, 64
2, 30138, Note_off_c, 1, 71, 64
2, 30138, Note_off_c, 1, 59, 64
2, 30152, Note_off_c, 1, 62, 64
2, 30331, Note_on_c, 1, 68, 39
2, 30334, Note_on_c, 1, 57, 45
2, 30334, Note_on_c, 1, 76, 57
2, 30341, Note_on_c, 1, 59, 36
2, 30348, Control_c, 1, 64, 0
2, 30444, Control_c, 1, 64, 127
2, 30456, Note_off_c, 1, 76, 64
2, 30477, Note_off_c, 1, 68, 64
2, 30569, Note_off_c, 1, 59, 64
2, 30593, Note_on_c, 1, 76, 61
2, 30600, Note_on_c, 1, 62, 29
2, 30600, Note_on_c, 1, 71, 34
2, 30611, Control_c, 1, 64, 0
2, 30685, Note_off_c, 1, 76, 64
2, 30686, Control_c, 1, 64, 127
2, 30704, Note_off_c, 1, 57, 64
2, 30708, Note_off_c, 1, 71, 64
2, 30734, Note_off_c, 1, 62, 64
2, 30889, Note_on_c, 1, 69, 40
2, 30902, Note_on_c, 1, 61, 29
2, 30908, Note_on_c, 1, 57, 23
2, 30937, Control_c, 1, 64, 0
2, 31039, Control_c, 1, 64, 127
2, 31108, Note_off_c, 1, 61, 64
2, 31109, Note_off_c, 1, 57, 64
2, 31111, Note_off_c, 1, 69, 64
2, 31455, Control_c, 1, 64, 0
2, 31675, Note_on_c, 1, 45, 60
2, 31801, Note_on_c, 1, 52, 63
2, 31900, Note_on_c, 1, 60, 56
2, 31904, Note_on_c, 1, 57, 43
2, 31910, Note_off_c, 1, 52, 64
2, 31922, Note_off_c, 1, 60, 64
2, 31926, Note_off_c, 1, 57, 64
2, 32012, Note_on_c, 1, 60, 68
2, 32015, Note_on_c, 1, 57, 43
2, 32032, Note_off_c, 1, 60, 64
2, 32038, Note_off_c, 1, 57, 64
2, 32126, Note_on_c, 1, 40, 58
2, 32153, Note_off_c, 1, 45, 64
2, 32228, Note_on_c, 1, 52, 61
2, 32333, Note_on_c, 1, 56, 44
2, 32335, Note_on_c, 1, 59, 50
2, 32349, Note_off_c, 1, 52, 64
2, 32353, Note_off_c, 1, 59, 64
2, 32356, Note_off_c, 1, 56, 64
2, 32438, Note_on_c, 1, 59, 54
2, 32442, Note_on_c, 1, 56, 49
2, 32464, Note_off_c, 1, 59, 64
2, 32469, Note_off_c, 1, 56, 64
2, 32551, Note_on_c, 1, 33, 70
2, 32583, Note_off_c, 1, 40, 64
2, 32655, Note_on_c, 1, 52, 74
2, 32760, Note_on_c, 1, 61, 72
2, 32770, Note_off_c, 1, 52, 64
2, 32778, Note_off_c, 1, 61, 64
2, 32778, Note_on_c, 1, 55, 23
2, 32782, Note_on_c, 1, 57, 18
2, 32800, Note_off_c, 1, 55, 64
2, 32801, Note_off_c, 1, 57, 64
2, 32871, Note_on_c, 1, 61, 58
2, 32878, Note_on_c, 1, 55, 43
2, 32894, Note_off_c, 1, 61, 64
2, 32903, Note_off_c, 1, 55, 64
2, 32993, Note_on_c, 1, 38, 51
2, 33020, Note_off_c, 1, 33, 64
2, 33100, Note_on_c, 1, 53, 66
2, 33208, Note_on_c, 1, 62, 63
2, 33212, Note_off_c, 1, 53, 64
2, 33213, Note_on_c, 1, 57, 47
2, 33231, Note_off_c, 1, 62, 64
2, 33233, Note_off_c, 1, 57, 64
2, 33312, Note_on_c, 1, 62, 70
2, 33315, Note_on_c, 1, 57, 63
2, 33333, Note_off_c, 1, 57, 64
2, 33333, Note_off_c, 1, 62, 64
2, 33426, Note_on_c, 1, 45, 70
2, 33470, Note_off_c, 1, 38, 64
2, 33528, Note_on_c, 1, 57, 69
2, 33628, Note_on_c, 1, 61, 56
2, 33633, Note_on_c, 1, 64, 76
2, 33646, Note_off_c, 1, 57, 64
2, 33649, Note_off_c, 1, 61, 64
2, 33651, Note_off_c, 1, 64, 64
2, 33744, Note_on_c, 1, 64, 84
2, 33745, Note_on_c, 1, 61, 67
2, 33764, Note_off_c, 1, 61, 64
2, 33766, Note_off_c, 1, 64, 64
2, 33857, Note_on_c, 1, 50, 76
2, 33948, Note_off_c, 1, 45, 64
2, 33959, Note_on_c, 1, 57, 81
2, 34066, Note_on_c, 1, 65, 78
2, 34067, Note_on_c, 1, 62, 59
2, 34082, Note_off_c, 1, 57, 64
2, 34084, Note_off_c, 1, 65, 64
2, 34086, Note_off_c, 1, 62, 64
2, 34176, Note_on_c, 1, 65, 66
2, 34180, Note_on_c, 1, 62, 55
2, 34196, Note_off_c, 1, 65, 64
2, 34200, Note_off_c, 1, 62, 64
2, 34288, Note_on_c, 1, 43, 62
2, 34364, Note_off_c, 1, 50, 64
2, 34393, Note_on_c, 1, 59, 62
2, 34501, Note_on_c, 1, 67, 57
2, 34503, Note_on_c, 1, 62, 48
2, 34506, Note_off_c, 1, 59, 64
2, 34523, Note_off_c, 1, 67, 64
2, 34525, Note_off_c, 1, 62, 64
2, 34603, Note_on_c, 1, 62, 59
2, 34614, Note_on_c, 1, 67, 47
2, 34628, Note_off_c, 1, 62, 64
2, 34638, Note_off_c, 1, 67, 64
2, 34726, Note_on_c, 1, 48, 51
2, 34761, Note_off_c, 1, 43, 64
2, 34830, Note_on_c, 1, 55, 56
2, 34944, Note_on_c, 1, 64, 56
2, 34945, Note_off_c, 1, 55, 64
2, 34958, Note_on_c, 1, 60, 13
2, 34965, Note_off_c, 1, 64, 64
2, 34981, Note_off_c, 1, 60, 64
2, 35048, Note_on_c, 1, 60, 13
2, 35049, Note_on_c, 1, 64, 54
2, 35070, Note_off_c, 1, 60, 64
2, 35082, Note_off_c, 1, 64, 64
2, 35193, Note_on_c, 1, 45, 62
2, 35225, Note_off_c, 1, 48, 64
2, 35292, Note_on_c, 1, 64, 67
2, 35396, Note_on_c, 1, 72, 81
2, 35400, Note_on_c, 1, 69, 66
2, 35408, Note_off_c, 1, 64, 64
2, 35415, Note_off_c, 1, 72, 64
2, 35418, Note_off_c, 1, 69, 64
2, 35503, Note_on_c, 1, 69, 79
2, 35503, Note_on_c, 1, 72, 85
2, 35521, Note_off_c, 1, 72, 64
2, 35522, Note_off_c, 1, 69, 64
2, 35603, Note_on_c, 1, 47, 74
2, 35629, Note_off_c, 1, 45, 64
2, 35707, Note_on_c, 1, 63, 81
2, 35820, Note_on_c, 1, 66, 66
2, 35823, Note_on_c, 1, 71, 65
2, 35836, Note_off_c, 1, 63, 64
2, 35838, Note_off_c, 1, 71, 64
2, 35839, Note_off_c, 1, 66, 64
2, 35931, Note_on_c, 1, 71, 73
2, 35933, Note_on_c, 1, 66, 66
2, 35948, Note_off_c, 1, 71, 64
2, 35953, Note_off_c, 1, 66, 64
2, 36046, Note_on_c, 1, 51, 81
2, 36093, Note_off_c, 1, 47, 64
2, 36153, Note_on_c, 1, 59, 78
2, 36254, Note_on_c, 1, 66, 78
2, 36254, Note_on_c, 1, 69, 87
2, 36271, Note_off_c, 1, 59, 64
2, 36272, Note_off_c, 1, 66, 64
2, 36275, Note_off_c, 1, 69, 64
2, 36362, Note_on_c, 1, 69, 95
2, 36363, Note_on_c, 1, 66, 87
2, 36385, Note_off_c, 1, 66, 64
2, 36390, Note_off_c, 1, 69, 64
2, 36475, Note_on_c, 1, 52, 84
2, 36561, Note_off_c, 1, 51, 64
2, 36572, Note_on_c, 1, 59, 73
2, 36679, Note_on_c, 1, 68, 73
2, 36688, Note_on_c, 1, 62, 47
2, 36691, Note_off_c, 1, 59, 64
2, 36701, Note_off_c, 1, 68, 64
2, 36710, Note_off_c, 1, 62, 64
2, 36790, Note_on_c, 1, 62, 53
2, 36797, Note_on_c, 1, 68, 52
2, 36811, Note_off_c, 1, 62, 64
2, 36818, Note_off_c, 1, 68, 64
2, 36931, Note_on_c, 1, 53, 43
2, 36971, Note_off_c, 1, 52, 64
2, 37036, Note_on_c, 1, 57, 52
2, 37136, Note_on_c, 1, 60, 57
2, 37137, Note_off_c, 1, 57, 64
2, 37140, Note_on_c, 1, 69, 55
2, 37160, Note_off_c, 1, 69, 64
2, 37160, Note_off_c, 1, 60, 64
2, 37243, Note_on_c, 1, 60, 57
2, 37249, Note_on_c, 1, 69, 66
2, 37267, Note_off_c, 1, 60, 64
2, 37273, Note_off_c, 1, 69, 64
2, 37357, Note_on_c, 1, 50, 68
2, 37388, Note_off_c, 1, 53, 64
2, 37462, Note_on_c, 1, 59, 56
2, 37564, Note_on_c, 1, 65, 44
2, 37568, Note_on_c, 1, 69, 57
2, 37570, Note_off_c, 1, 59, 64
2, 37588, Note_off_c, 1, 69, 64
2, 37589, Note_off_c, 1, 65, 64
2, 37684, Note_on_c, 1, 69, 59
2, 37685, Note_on_c, 1, 65, 44
2, 37706, Note_off_c, 1, 69, 64
2, 37711, Note_off_c, 1, 65, 64
2, 37801, Note_on_c, 1, 52, 61
2, 37821, Note_off_c, 1, 50, 64
2, 37909, Note_on_c, 1, 59, 54
2, 38010, Note_off_c, 1, 59, 64
2, 38012, Note_on_c, 1, 68, 68
2, 38031, Note_on_c, 1, 62, 25
2, 38033, Note_off_c, 1, 68, 64
2, 38058, Note_off_c, 1, 62, 64
2, 38116, Note_on_c, 1, 62, 34
2, 38120, Note_on_c, 1, 68, 69
2, 38142, Note_off_c, 1, 68, 64
2, 38142, Note_off_c, 1, 62, 64
2, 38243, Note_on_c, 1, 45, 49
2, 38265, Note_off_c, 1, 52, 64
2, 38346, Note_on_c, 1, 57, 55
2, 38457, Note_off_c, 1, 57, 64
2, 38459, Note_on_c, 1, 69, 60
2, 38463, Note_on_c, 1, 60, 39
2, 38478, Note_off_c, 1, 69, 64
2, 38491, Note_off_c, 1, 60, 64
2, 38563, Note_on_c, 1, 60, 62
2, 38563, Note_on_c, 1, 69, 82
2, 38583, Note_off_c, 1, 60, 64
2, 38587, Note_off_c, 1, 69, 64
2, 38715, Note_on_c, 1, 53, 57
2, 38716, Note_on_c, 1, 41, 58
2, 38737, Note_off_c, 1, 45, 64
2, 38829, Note_on_c, 1, 63, 68
2, 38932, Note_on_c, 1, 75, 72
2, 38938, Note_on_c, 1, 72, 71
2, 38945, Note_off_c, 1, 63, 64
2, 38954, Note_off_c, 1, 75, 64
2, 38956, Note_off_c, 1, 72, 64
2, 39035, Note_on_c, 1, 72, 91
2, 39035, Note_on_c, 1, 75, 87
2, 39101, Note_off_c, 1, 75, 64
2, 39105, Note_off_c, 1, 53, 64
2, 39109, Note_off_c, 1, 72, 64
2, 39109, Note_off_c, 1, 41, 64
2, 39142, Note_on_c, 1, 53, 79
2, 39146, Note_on_c, 1, 41, 80
2, 39243, Note_on_c, 1, 63, 95
2, 39346, Note_on_c, 1, 75, 95
2, 39347, Note_on_c, 1, 71, 85
2, 39358, Note_off_c, 1, 63, 64
2, 39362, Note_off_c, 1, 71, 64
2, 39373, Note_off_c, 1, 75, 64
2, 39453, Note_on_c, 1, 75, 97
2, 39455, Note_on_c, 1, 71, 95
2, 39498, Note_off_c, 1, 75, 64
2, 39512, Note_off_c, 1, 71, 64
2, 39514, Note_off_c, 1, 41, 64
2, 39519, Note_off_c, 1, 53, 64
2, 39559, Note_on_c, 1, 53, 103
2, 39563, Note_on_c, 1, 41, 96
2, 39666, Note_on_c, 1, 63, 107
2, 39772, Note_on_c, 1, 75, 106
2, 39773, Note_on_c, 1, 69, 103
2, 39783, Note_off_c, 1, 63, 64
2, 39792, Note_off_c, 1, 69, 64
2, 39809, Note_off_c, 1, 75, 64
2, 39880, Note_on_c, 1, 69, 105
2, 39880, Note_on_c, 1, 75, 107
2, 39906, Note_off_c, 1, 69, 64
2, 39915, Note_off_c, 1, 75, 64
2, 39924, Note_off_c, 1, 41, 64
2, 39930, Note_off_c, 1, 53, 64
2, 39992, Note_on_c, 1, 52, 97
2, 39996, Note_on_c, 1, 40, 102
2, 40098, Note_on_c, 1, 64, 97
2, 40208, Note_on_c, 1, 68, 78
2, 40213, Note_off_c, 1, 64, 64
2, 40213, Note_on_c, 1, 76, 83
2, 40225, Note_off_c, 1, 68, 64
2, 40233, Note_off_c, 1, 76, 64
2, 40319, Note_on_c, 1, 76, 79
2, 40325, Note_on_c, 1, 68, 68
2, 40335, Note_off_c, 1, 76, 64
2, 40339, Note_off_c, 1, 40, 64
2, 40344, Note_off_c, 1, 68, 64
2, 40359, Note_off_c, 1, 52, 64
2, 40465, Note_on_c, 1, 53, 52
2, 40580, Note_on_c, 1, 60, 60
2, 40695, Note_on_c, 1, 69, 54
2, 40695, Note_on_c, 1, 72, 45
2, 40698, Note_off_c, 1, 60, 64
2, 40715, Note_off_c, 1, 69, 64
2, 40721, Note_off_c, 1, 72, 64
2, 40796, Note_on_c, 1, 69, 57
2, 40796, Note_on_c, 1, 72, 60
2, 40818, Note_off_c, 1, 69, 64
2, 40820, Note_off_c, 1, 72, 64
2, 40918, Note_on_c, 1, 50, 54
2, 40945, Note_off_c, 1, 53, 64
2, 41029, Note_on_c, 1, 65, 55
2, 41125, Note_off_c, 1, 65, 64
2, 41140, Note_on_c, 1, 71, 27
2, 41147, Note_on_c, 1, 69, 23
2, 41161, Note_off_c, 1, 71, 64
2, 41170, Note_off_c, 1, 69, 64
2, 41247, Note_on_c, 1, 71, 37
2, 41263, Note_on_c, 1, 69, 22
2, 41268, Note_off_c, 1, 71, 64
2, 41284, Note_off_c, 1, 69, 64
2, 41360, Note_on_c, 1, 52, 57
2, 41377, Note_off_c, 1, 50, 64
2, 41472, Note_on_c, 1, 62, 51
2, 41564, Note_on_c, 1, 71, 37
2, 41573, Note_on_c, 1, 68, 51
2, 41584, Note_off_c, 1, 71, 64
2, 41588, Note_off_c, 1, 62, 64
2, 41595, Note_off_c, 1, 68, 64
2, 41683, Note_on_c, 1, 68, 47
2, 41690, Note_on_c, 1, 71, 37
2, 41709, Note_off_c, 1, 68, 64
2, 41710, Note_off_c, 1, 71, 64
2, 41796, Note_on_c, 1, 45, 66
2, 41818, Note_off_c, 1, 52, 64
2, 41902, Note_on_c, 1, 60, 64
2, 42014, Note_off_c, 1, 60, 64
2, 42014, Note_on_c, 1, 72, 66
2, 42025, Note_on_c, 1, 69, 39
2, 42035, Note_off_c, 1, 72, 64
2, 42049, Note_off_c, 1, 69, 64
2, 42124, Note_on_c, 1, 69, 62
2, 42132, Note_on_c, 1, 72, 61
2, 42142, Note_off_c, 1, 69, 64
2, 42151, Note_off_c, 1, 72, 64
2, 42254, Note_on_c, 1, 41, 70
2, 42269, Note_off_c, 1, 45, 64
2, 42359, Note_on_c, 1, 69, 65
2, 42463, Note_on_c, 1, 81, 83
2, 42466, Note_off_c, 1, 69, 64
2, 42468, Note_on_c, 1, 72, 77
2, 42481, Note_off_c, 1, 81, 64
2, 42485, Note_off_c, 1, 72, 64
2, 42573, Note_on_c, 1, 72, 97
2, 42573, Note_on_c, 1, 81, 94
2, 42595, Note_off_c, 1, 81, 64
2, 42607, Note_off_c, 1, 72, 64
2, 42690, Note_on_c, 1, 39, 89
2, 42713, Note_off_c, 1, 41, 64
2, 42797, Note_on_c, 1, 69, 101
2, 42903, Note_on_c, 1, 71, 86
2, 42905, Note_on_c, 1, 81, 96
2, 42910, Note_off_c, 1, 69, 64
2, 42944, Note_off_c, 1, 71, 64
2, 42947, Note_off_c, 1, 81, 64
2, 43010, Note_on_c, 1, 81, 109
2, 43010, Note_on_c, 1, 71, 92
2, 43026, Note_off_c, 1, 81, 64
2, 43033, Note_off_c, 1, 71, 64
2, 43130, Note_on_c, 1, 40, 101
2, 43151, Note_off_c, 1, 39, 64
2, 43241, Note_on_c, 1, 68, 93
2, 43315, Note_off_c, 1, 68, 64
2, 43348, Note_on_c, 1, 80, 102
2, 43355, Note_on_c, 1, 71, 72
2, 43368, Note_off_c, 1, 71, 64
2, 43388, Note_off_c, 1, 80, 64
2, 43474, Note_on_c, 1, 80, 103
2, 43476, Note_on_c, 1, 71, 80
2, 43492, Note_off_c, 1, 71, 64
2, 43511, Note_off_c, 1, 80, 64
2, 43670, Note_on_c, 1, 81, 103
2, 43676, Note_on_c, 1, 33, 66
2, 43677, Note_on_c, 1, 45, 69
2, 43680, Note_on_c, 1, 69, 75
2, 43685, Note_off_c, 1, 40, 64
2, 44075, Control_c, 1, 64, 127
2, 44108, Note_off_c, 1, 81, 64
2, 44137, Note_off_c, 1, 69, 64
2, 44473, Note_on_c, 1, 64, 47
2, 44523, Control_c, 1, 64, 0
2, 44567, Control_c, 1, 64, 127
2, 44589, Note_on_c, 1, 66, 62
2, 44618, Note_off_c, 1, 33, 64
2, 44646, Note_off_c, 1, 45, 64
2, 44704, Note_on_c, 1, 68, 81
2, 44707, Note_off_c, 1, 64, 64
2, 44725, Note_off_c, 1, 66, 64
2, 44739, Note_off_c, 1, 68, 64
2, 44883, Note_on_c, 1, 76, 55
2, 44884, Note_on_c, 1, 61, 41
2, 44887, Note_on_c, 1, 57, 39
2, 44893, Note_on_c, 1, 69, 44
2, 44945, Control_c, 1, 64, 0
2, 45041, Control_c, 1, 64, 127
2, 45222, Note_on_c, 1, 59, 62
2, 45222, Note_on_c, 1, 68, 73
2, 45231, Note_off_c, 1, 61, 64
2, 45233, Note_off_c, 1, 76, 64
2, 45259, Note_off_c, 1, 69, 64
2, 45314, Note_off_c, 1, 68, 64
2, 45330, Note_off_c, 1, 59, 64
2, 45351, Note_on_c, 1, 61, 59
2, 45352, Note_on_c, 1, 76, 87
2, 45353, Note_on_c, 1, 69, 81
2, 45381, Control_c, 1, 64, 0
2, 45464, Control_c, 1, 64, 127
2, 45489, Note_off_c, 1, 76, 64
2, 45565, Note_on_c, 1, 76, 92
2, 45569, Note_on_c, 1, 73, 82
2, 45575, Note_on_c, 1, 64, 66
2, 45593, Note_off_c, 1, 69, 64
2, 45614, Note_off_c, 1, 57, 64
2, 45639, Note_off_c, 1, 76, 64
2, 45643, Note_off_c, 1, 73, 64
2, 45659, Note_off_c, 1, 61, 64
2, 45674, Note_off_c, 1, 64, 64
2, 45784, Control_c, 1, 64, 0
2, 45787, Note_on_c, 1, 71, 59
2, 45795, Note_on_c, 1, 62, 78
2, 45797, Note_on_c, 1, 57, 72
2, 45826, Note_on_c, 1, 76, 82
2, 45841, Control_c, 1, 64, 127
2, 45857, Note_off_c, 1, 71, 64
2, 45860, Note_on_c, 1, 78, 88
2, 45865, Note_off_c, 1, 76, 64
2, 45895, Note_on_c, 1, 76, 99
2, 45904, Note_off_c, 1, 78, 64
2, 45927, Note_on_c, 1, 78, 95
2, 45934, Note_off_c, 1, 76, 64
2, 45957, Note_on_c, 1, 76, 73
2, 45976, Note_off_c, 1, 78, 64
2, 45995, Note_on_c, 1, 75, 90
2, 45996, Note_off_c, 1, 76, 64
2, 46022, Note_on_c, 1, 76, 106
2, 46044, Note_off_c, 1, 75, 64
2, 46078, Note_on_c, 1, 78, 97
2, 46119, Note_off_c, 1, 76, 64
2, 46185, Note_on_c, 1, 80, 99
2, 46215, Note_off_c, 1, 78, 64
2, 46265, Note_off_c, 1, 80, 64
2, 46315, Note_on_c, 1, 81, 80
2, 46321, Note_on_c, 1, 69, 57
2, 46322, Note_on_c, 1, 61, 54
2, 46335, Note_off_c, 1, 62, 64
2, 46366, Control_c, 1, 64, 0
2, 46482, Control_c, 1, 64, 127
2, 46552, Note_off_c, 1, 57, 64
2, 46554, Note_off_c, 1, 69, 64
2, 46557, Note_on_c, 1, 76, 82
2, 46560, Note_off_c, 1, 81, 64
2, 46575, Note_off_c, 1, 61, 64
2, 46589, Note_off_c, 1, 76, 64
2, 46857, Note_on_c, 1, 68, 41
2, 46860, Note_on_c, 1, 76, 62
2, 46861, Note_on_c, 1, 57, 44
2, 46870, Note_on_c, 1, 59, 40
2, 46923, Control_c, 1, 64, 0
2, 47020, Control_c, 1, 64, 127
2, 47104, Note_on_c, 1, 62, 43
2, 47110, Note_on_c, 1, 71, 49
2, 47117, Note_off_c, 1, 76, 64
2, 47134, Note_off_c, 1, 68, 64
2, 47143, Note_off_c, 1, 71, 64
2, 47172, Note_off_c, 1, 57, 64
2, 47174, Note_off_c, 1, 62, 64
2, 47176, Note_off_c, 1, 59, 64
2, 47336, Note_on_c, 1, 68, 40
2, 47339, Note_on_c, 1, 76, 58
2, 47345, Note_on_c, 1, 59, 38
2, 47347, Note_on_c, 1, 57, 40
2, 47372, Control_c, 1, 64, 0
2, 47436, Control_c, 1, 64, 127
2, 47459, Note_off_c, 1, 76, 64
2, 47502, Note_off_c, 1, 68, 64
2, 47570, Note_on_c, 1, 62, 51
2, 47571, Note_on_c, 1, 76, 75
2, 47575, Note_on_c, 1, 71, 48
2, 47590, Control_c, 1, 64, 0
2, 47647, Control_c, 1, 64, 127
2, 47653, Note_off_c, 1, 71, 64
2, 47656, Note_off_c, 1, 76, 64
2, 47665, Note_off_c, 1, 59, 64
2, 47673, Note_off_c, 1, 57, 64
2, 47703, Note_off_c, 1, 62, 64
2, 47804, Note_on_c, 1, 61, 55
2, 47816, Note_on_c, 1, 76, 68
2, 47820, Note_on_c, 1, 69, 54
2, 47820, Note_on_c, 1, 57, 28
2, 47826, Control_c, 1, 64, 0
2, 47927, Note_on_c, 1, 75, 73
2, 47959, Note_off_c, 1, 76, 64
2, 48040, Note_on_c, 1, 76, 101
2, 48075, Note_off_c, 1, 69, 64
2, 48077, Note_off_c, 1, 75, 64
2, 48139, Note_off_c, 1, 57, 64
2, 48149, Note_on_c, 1, 78, 90
2, 48174, Note_off_c, 1, 76, 64
2, 48176, Note_off_c, 1, 61, 64
2, 48267, Note_on_c, 1, 76, 88
2, 48302, Note_off_c, 1, 78, 64
2, 48359, Note_on_c, 1, 66, 53
2, 48371, Note_off_c, 1, 76, 64
2, 48371, Note_on_c, 1, 74, 80
2, 48476, Note_on_c, 1, 73, 81
2, 48483, Note_on_c, 1, 64, 85
2, 48488, Note_off_c, 1, 66, 64
2, 48490, Note_off_c, 1, 74, 64
2, 48583, Note_on_c, 1, 62, 79
2, 48584, Note_on_c, 1, 71, 79
2, 48610, Note_off_c, 1, 64, 64
2, 48614, Note_off_c, 1, 73, 64
2, 48737, Note_on_c, 1, 61, 57
2, 48741, Note_on_c, 1, 69, 62
2, 48742, Note_on_c, 1, 57, 40
2, 48743, Note_on_c, 1, 76, 68
2, 48744, Note_off_c, 1, 71, 64
2, 48764, Note_off_c, 1, 62, 64
2, 48883, Control_c, 1, 64, 127
2, 49068, Note_on_c, 1, 68, 77
2, 49074, Note_on_c, 1, 59, 68
2, 49088, Note_off_c, 1, 76, 64
2, 49098, Note_off_c, 1, 61, 64
2, 49098, Note_off_c, 1, 69, 64
2, 49194, Note_on_c, 1, 61, 62
2, 49197, Note_on_c, 1, 76, 78
2, 49200, Note_off_c, 1, 59, 64
2, 49200, Note_on_c, 1, 69, 80
2, 49202, Note_off_c, 1, 68, 64
2, 49228, Control_c, 1, 64, 0
2, 49330, Control_c, 1, 64, 127
2, 49351, Note_off_c, 1, 76, 64
2, 49428, Note_on_c, 1, 76, 60
2, 49432, Note_on_c, 1, 73, 56
2, 49433, Note_on_c, 1, 64, 51
2, 49446, Note_off_c, 1, 69, 64
2, 49484, Note_off_c, 1, 57, 64
2, 49489, Note_off_c, 1, 73, 64
2, 49494, Note_off_c, 1, 76, 64
2, 49519, Note_off_c, 1, 61, 64
2, 49529, Note_off_c, 1, 64, 64
2, 49637, Note_on_c, 1, 71, 46
2, 49659, Note_on_c, 1, 62, 64
2, 49661, Note_on_c, 1, 57, 62
2, 49664, Control_c, 1, 64, 0
2, 49685, Note_off_c, 1, 71, 64
2, 49685, Note_on_c, 1, 76, 86
2, 49715, Control_c, 1, 64, 127
2, 49721, Note_on_c, 1, 78, 89
2, 49726, Note_off_c, 1, 76, 64
2, 49753, Note_on_c, 1, 76, 100
2, 49758, Note_off_c, 1, 78, 64
2, 49785, Note_on_c, 1, 78, 92
2, 49790, Note_off_c, 1, 76, 64
2, 49818, Note_on_c, 1, 76, 106
2, 49838, Note_off_c, 1, 78, 64
2, 49851, Note_on_c, 1, 75, 92
2, 49857, Note_off_c, 1, 76, 64
2, 49875, Note_on_c, 1, 76, 81
2, 49901, Note_off_c, 1, 75, 64
2, 49949, Note_on_c, 1, 78, 102
2, 49981, Note_off_c, 1, 76, 64
2, 50061, Note_on_c, 1, 80, 101
2, 50087, Note_off_c, 1, 78, 64
2, 50153, Note_off_c, 1, 80, 64
2, 50188, Note_on_c, 1, 81, 85
2, 50193, Note_on_c, 1, 61, 49
2, 50195, Note_on_c, 1, 69, 51
2, 50210, Note_off_c, 1, 62, 64
2, 50234, Control_c, 1, 64, 0
2, 50368, Control_c, 1, 64, 127
2, 50434, Note_off_c, 1, 57, 64
2, 50434, Note_on_c, 1, 76, 78
2, 50438, Note_off_c, 1, 61, 64
2, 50438, Note_off_c, 1, 81, 64
2, 50460, Note_off_c, 1, 76, 64
2, 50482, Note_off_c, 1, 69, 64
2, 50678, Note_on_c, 1, 76, 57
2, 50679, Note_on_c, 1, 68, 30
2, 50689, Note_on_c, 1, 57, 44
2, 50691, Note_on_c, 1, 59, 42
2, 50726, Control_c, 1, 64, 0
2, 50815, Control_c, 1, 64, 127
2, 50907, Note_on_c, 1, 62, 47
2, 50908, Note_on_c, 1, 71, 53
2, 50921, Note_off_c, 1, 76, 64
2, 50930, Note_off_c, 1, 68, 64
2, 50935, Note_off_c, 1, 71, 64
2, 50961, Note_off_c, 1, 59, 64
2, 50963, Note_off_c, 1, 57, 64
2, 50967, Note_off_c, 1, 62, 64
2, 51121, Note_on_c, 1, 68, 40
2, 51127, Note_on_c, 1, 76, 63
2, 51127, Note_on_c, 1, 59, 54
2, 51133, Note_on_c, 1, 57, 43
2, 51155, Control_c, 1, 64, 0
2, 51238, Control_c, 1, 64, 127
2, 51253, Note_off_c, 1, 76, 64
2, 51292, Note_off_c, 1, 68, 64
2, 51353, Control_c, 1, 64, 0
2, 51363, Note_on_c, 1, 62, 50
2, 51370, Note_on_c, 1, 71, 52
2, 51372, Note_on_c, 1, 76, 72
2, 51424, Control_c, 1, 64, 127
2, 51465, Note_off_c, 1, 59, 64
2, 51483, Note_off_c, 1, 71, 64
2, 51484, Note_off_c, 1, 57, 64
2, 51485, Note_off_c, 1, 76, 64
2, 51531, Note_off_c, 1, 62, 64
2, 51651, Note_on_c, 1, 61, 36
2, 51654, Control_c, 1, 64, 0
2, 51655, Note_on_c, 1, 69, 50
2, 51656, Note_on_c, 1, 57, 41
2, 51726, Control_c, 1, 64, 127
2, 51790, Note_off_c, 1, 69, 64
2, 51791, Note_on_c, 1, 64, 72
2, 51913, Note_on_c, 1, 66, 75
2, 51932, Note_off_c, 1, 64, 64
2, 51936, Control_c, 1, 64, 0
2, 51967, Note_off_c, 1, 57, 64
2, 51986, Note_off_c, 1, 61, 64
2, 52033, Note_on_c, 1, 64, 87
2, 52048, Note_off_c, 1, 66, 64
2, 52143, Note_on_c, 1, 63, 81
2, 52203, Note_off_c, 1, 64, 64
2, 52251, Note_on_c, 1, 66, 70
2, 52285, Note_off_c, 1, 63, 64
2, 52371, Note_on_c, 1, 62, 73
2, 52469, Control_c, 1, 64, 127
2, 52486, Note_on_c, 1, 68, 72
2, 52493, Note_off_c, 1, 62, 64
2, 52502, Note_off_c, 1, 66, 64
2, 52620, Note_on_c, 1, 61, 67
2, 52626, Note_on_c, 1, 40, 54
2, 52642, Control_c, 1, 64, 0
2, 52750, Note_on_c, 1, 69, 75
2, 52763, Control_c, 1, 64, 127
2, 52768, Note_off_c, 1, 68, 64
2, 52794, Note_off_c, 1, 61, 64
2, 52864, Note_off_c, 1, 69, 64
2, 52864, Note_on_c, 1, 59, 76
2, 52909, Note_off_c, 1, 40, 64
2, 52978, Note_on_c, 1, 68, 81
2, 52980, Note_off_c, 1, 59, 64
2, 53085, Note_on_c, 1, 61, 79
2, 53091, Note_on_c, 1, 40, 80
2, 53111, Note_off_c, 1, 68, 64
2, 53116, Control_c, 1, 64, 0
2, 53192, Control_c, 1, 64, 127
2, 53201, Note_on_c, 1, 69, 84
2, 53216, Note_off_c, 1, 61, 64
2, 53217, Note_off_c, 1, 40, 64
2, 53310, Note_on_c, 1, 40, 85
2, 53311, Note_on_c, 1, 64, 94
2, 53318, Note_off_c, 1, 69, 64
2, 53320, Control_c, 1, 64, 0
2, 53384, Control_c, 1, 64, 127
2, 53419, Note_off_c, 1, 40, 64
2, 53431, Note_on_c, 1, 73, 85
2, 53440, Note_off_c, 1, 64, 64
2, 53525, Note_on_c, 1, 62, 85
2, 53526, Note_off_c, 1, 73, 64
2, 53529, Note_on_c, 1, 40, 87
2, 53567, Note_on_c, 1, 42, 80
2, 53579, Note_off_c, 1, 40, 64
2, 53613, Note_on_c, 1, 40, 81
2, 53637, Note_off_c, 1, 42, 64
2, 53657, Note_on_c, 1, 73, 73
2, 53659, Note_on_c, 1, 39, 77
2, 53672, Note_off_c, 1, 40, 64
2, 53704, Note_on_c, 1, 40, 96
2, 53710, Note_off_c, 1, 39, 64
2, 53750, Note_on_c, 1, 71, 79
2, 53750, Note_on_c, 1, 42, 84
2, 53762, Control_c, 1, 64, 0
2, 53766, Note_off_c, 1, 40, 64
2, 53768, Note_off_c, 1, 73, 64
2, 53803, Note_off_c, 1, 62, 64
2, 53839, Control_c, 1, 64, 127
2, 53859, Note_on_c, 1, 44, 84
2, 53865, Note_on_c, 1, 62, 92
2, 53884, Note_off_c, 1, 42, 64
2, 53884, Note_off_c, 1, 71, 64
2, 53909, Note_off_c, 1, 62, 64
2, 53972, Note_on_c, 1, 45, 93
2, 53979, Note_on_c, 1, 61, 78
2, 54001, Note_off_c, 1, 44, 64
2, 54019, Control_c, 1, 64, 0
2, 54103, Note_on_c, 1, 71, 67
2, 54107, Control_c, 1, 64, 127
2, 54212, Note_off_c, 1, 61, 64
2, 54216, Note_on_c, 1, 40, 62
2, 54222, Note_off_c, 1, 71, 64
2, 54226, Note_on_c, 1, 69, 71
2, 54235, Note_off_c, 1, 45, 64
2, 54236, Control_c, 1, 64, 0
2, 54319, Control_c, 1, 64, 127
2, 54347, Note_on_c, 1, 61, 57
2, 54359, Note_off_c, 1, 69, 64
2, 54361, Note_off_c, 1, 40, 64
2, 54375, Note_off_c, 1, 61, 64
2, 54496, Note_on_c, 1, 59, 60
2, 54500, Note_on_c, 1, 40, 54
2, 54537, Control_c, 1, 64, 0
2, 54628, Note_on_c, 1, 69, 66
2, 54646, Control_c, 1, 64, 127
2, 54741, Note_on_c, 1, 68, 71
2, 54760, Note_off_c, 1, 40, 64
2, 54762, Note_off_c, 1, 69, 64
2, 54851, Note_on_c, 1, 66, 76
2, 54865, Note_off_c, 1, 68, 64
2, 54877, Note_off_c, 1, 59, 64
2, 54964, Note_on_c, 1, 40, 75
2, 54966, Note_on_c, 1, 59, 65
2, 54973, Control_c, 1, 64, 0
2, 55056, Control_c, 1, 64, 127
2, 55066, Note_off_c, 1, 59, 64
2, 55083, Note_on_c, 1, 68, 75
2, 55096, Note_off_c, 1, 66, 64
2, 55110, Note_off_c, 1, 40, 64
2, 55194, Note_on_c, 1, 40, 62
2, 55202, Note_on_c, 1, 62, 59
2, 55203, Control_c, 1, 64, 0
2, 55205, Note_off_c, 1, 68, 64
2, 55267, Control_c, 1, 64, 127
2, 55325, Note_on_c, 1, 71, 59
2, 55327, Note_off_c, 1, 40, 64
2, 55332, Note_off_c, 1, 62, 64
2, 55344, Note_off_c, 1, 71, 64
2, 55465, Note_on_c, 1, 61, 43
2, 55465, Note_on_c, 1, 40, 52
2, 55470, Note_on_c, 1, 69, 62
2, 55491, Control_c, 1, 64, 0
2, 55574, Note_on_c, 1, 39, 66
2, 55592, Note_off_c, 1, 40, 64
2, 55684, Note_on_c, 1, 40, 86
2, 55705, Note_off_c, 1, 39, 64
2, 55789, Note_off_c, 1, 40, 64
2, 55792, Note_on_c, 1, 42, 77
2, 55838, Note_off_c, 1, 69, 64
2, 55847, Note_off_c, 1, 61, 64
2, 55903, Note_off_c, 1, 42, 64
2, 55909, Note_on_c, 1, 40, 88
2, 56013, Note_on_c, 1, 66, 85
2, 56015, Note_on_c, 1, 38, 73
2, 56060, Note_off_c, 1, 40, 64
2, 56128, Note_on_c, 1, 37, 78
2, 56131, Note_on_c, 1, 64, 95
2, 56184, Note_off_c, 1, 66, 64
2, 56186, Note_off_c, 1, 38, 64
2, 56239, Note_on_c, 1, 35, 71
2, 56242, Note_on_c, 1, 68, 86
2, 56250, Control_c, 1, 64, 127
2, 56250, Note_on_c, 1, 62, 70
2, 56252, Note_off_c, 1, 37, 64
2, 56261, Note_off_c, 1, 64, 64
2, 56308, Note_off_c, 1, 62, 64
2, 56323, Note_off_c, 1, 68, 64
2, 56390, Note_on_c, 1, 40, 67
2, 56392, Note_on_c, 1, 71, 66
2, 56395, Note_on_c, 1, 61, 51
2, 56401, Note_off_c, 1, 35, 64
2, 56423, Control_c, 1, 64, 0
2, 56525, Control_c, 1, 64, 127
2, 56538, Note_off_c, 1, 71, 64
2, 56538, Note_on_c, 1, 69, 76
2, 56567, Note_off_c, 1, 61, 64
2, 56587, Note_off_c, 1, 69, 64
2, 56650, Note_on_c, 1, 59, 81
2, 56728, Note_off_c, 1, 40, 64
2, 56745, Note_off_c, 1, 59, 64
2, 56756, Note_on_c, 1, 68, 82
2, 56812, Note_off_c, 1, 68, 64
2, 56869, Note_on_c, 1, 61, 84
2, 56870, Note_on_c, 1, 40, 93
2, 56883, Control_c, 1, 64, 0
2, 56961, Control_c, 1, 64, 127
2, 56988, Note_on_c, 1, 69, 87
2, 56993, Note_off_c, 1, 40, 64
2, 56999, Note_off_c, 1, 61, 64
2, 57090, Note_on_c, 1, 64, 94
2, 57093, Note_on_c, 1, 40, 89
2, 57097, Note_off_c, 1, 69, 64
2, 57101, Control_c, 1, 64, 0
2, 57158, Control_c, 1, 64, 127
2, 57195, Note_off_c, 1, 40, 64
2, 57207, Note_on_c, 1, 73, 91
2, 57212, Note_off_c, 1, 64, 64
2, 57294, Note_on_c, 1, 40, 82
2, 57297, Note_on_c, 1, 62, 84
2, 57307, Note_off_c, 1, 73, 64
2, 57330, Note_on_c, 1, 42, 79
2, 57346, Note_off_c, 1, 40, 64
2, 57376, Note_on_c, 1, 40, 97
2, 57400, Note_off_c, 1, 42, 64
2, 57417, Note_on_c, 1, 39, 90
2, 57429, Note_off_c, 1, 40, 64
2, 57430, Note_on_c, 1, 73, 71
2, 57458, Note_on_c, 1, 40, 99
2, 57481, Note_off_c, 1, 39, 64
2, 57513, Note_on_c, 1, 42, 97
2, 57513, Note_on_c, 1, 71, 82
2, 57530, Note_off_c, 1, 40, 64
2, 57533, Note_off_c, 1, 73, 64
2, 57536, Control_c, 1, 64, 0
2, 57570, Note_off_c, 1, 62, 64
2, 57620, Control_c, 1, 64, 127
2, 57629, Note_on_c, 1, 44, 89
2, 57635, Note_on_c, 1, 62, 86
2, 57661, Note_off_c, 1, 42, 64
2, 57668, Note_off_c, 1, 71, 64
2, 57682, Note_off_c, 1, 62, 64
2, 57750, Note_on_c, 1, 45, 102
2, 57755, Note_on_c, 1, 61, 88
2, 57780, Note_off_c, 1, 44, 64
2, 57786, Control_c, 1, 64, 0
2, 57876, Note_on_c, 1, 71, 70
2, 57882, Control_c, 1, 64, 127
2, 58000, Note_on_c, 1, 40, 71
2, 58003, Note_on_c, 1, 69, 73
2, 58007, Note_off_c, 1, 71, 64
2, 58021, Note_off_c, 1, 61, 64
2, 58027, Note_off_c, 1, 45, 64
2, 58030, Control_c, 1, 64, 0
2, 58106, Control_c, 1, 64, 127
2, 58145, Note_on_c, 1, 61, 60
2, 58158, Note_off_c, 1, 40, 64
2, 58163, Note_off_c, 1, 69, 64
2, 58177, Note_off_c, 1, 61, 64
2, 58308, Note_on_c, 1, 59, 51
2, 58316, Note_on_c, 1, 40, 54
2, 58349, Control_c, 1, 64, 0
2, 58450, Note_on_c, 1, 69, 60
2, 58459, Control_c, 1, 64, 127
2, 58561, Note_on_c, 1, 68, 67
2, 58568, Note_off_c, 1, 69, 64
2, 58631, Note_off_c, 1, 40, 64
2, 58678, Note_on_c, 1, 66, 72
2, 58684, Note_off_c, 1, 68, 64
2, 58692, Note_off_c, 1, 59, 64
2, 58795, Note_on_c, 1, 59, 64
2, 58797, Note_on_c, 1, 40, 59
2, 58804, Control_c, 1, 64, 0
2, 58814, Note_off_c, 1, 66, 64
2, 58868, Control_c, 1, 64, 127
2, 58890, Note_off_c, 1, 59, 64
2, 58905, Note_on_c, 1, 68, 64
2, 58930, Note_off_c, 1, 40, 64
2, 59020, Note_off_c, 1, 68, 64
2, 59022, Note_on_c, 1, 62, 60
2, 59031, Note_on_c, 1, 40, 46
2, 59034, Control_c, 1, 64, 0
2, 59073, Control_c, 1, 64, 127
2, 59152, Note_off_c, 1, 40, 64
2, 59153, Note_on_c, 1, 71, 48
2, 59177, Note_off_c, 1, 62, 64
2, 59180, Note_off_c, 1, 71, 64
2, 59306, Note_on_c, 1, 69, 59
2, 59308, Note_on_c, 1, 33, 41
2, 59313, Note_on_c, 1, 61, 26
2, 59342, Control_c, 1, 64, 0
2, 59419, Control_c, 1, 64, 127
2, 59442, Note_on_c, 1, 64, 70
2, 59460, Note_off_c, 1, 69, 64
2, 59504, Note_off_c, 1, 61, 64
2, 59558, Note_on_c, 1, 66, 74
2, 59569, Note_off_c, 1, 64, 64
2, 59661, Note_off_c, 1, 33, 64
2, 59662, Control_c, 1, 64, 0
2, 59671, Note_off_c, 1, 66, 64
2, 59674, Note_on_c, 1, 64, 88
2, 59788, Note_on_c, 1, 69, 83
2, 59803, Note_off_c, 1, 64, 64
2, 59905, Note_on_c, 1, 64, 71
2, 59922, Note_off_c, 1, 69, 64
2, 60031, Note_on_c, 1, 61, 44
2, 60034, Note_on_c, 1, 76, 83
2, 60040, Note_off_c, 1, 64, 64
2, 60091, Control_c, 1, 64, 127
2, 60165, Note_off_c, 1, 76, 64
2, 60184, Note_on_c, 1, 52, 40
2, 60191, Note_off_c, 1, 61, 64
2, 60325, Note_off_c, 1, 52, 64
2, 60330, Note_on_c, 1, 74, 74
2, 60341, Note_on_c, 1, 64, 36
2, 60342, Note_on_c, 1, 59, 39
2, 60366, Control_c, 1, 64, 0
2, 60445, Note_on_c, 1, 58, 84
2, 60480, Note_off_c, 1, 59, 64
2, 60554, Note_on_c, 1, 59, 74
2, 60595, Note_off_c, 1, 58, 64
2, 60664, Note_on_c, 1, 52, 73
2, 60665, Note_on_c, 1, 76, 91
2, 60676, Note_off_c, 1, 74, 64
2, 60681, Note_off_c, 1, 59, 64
2, 60781, Note_on_c, 1, 74, 89
2, 60784, Note_on_c, 1, 59, 62
2, 60793, Note_off_c, 1, 52, 64
2, 60805, Note_off_c, 1, 76, 64
2, 60872, Control_c, 1, 64, 127
2, 60895, Note_on_c, 1, 52, 70
2, 60909, Note_off_c, 1, 59, 64
2, 60925, Note_off_c, 1, 64, 64
2, 60995, Note_on_c, 1, 73, 87
2, 61000, Note_on_c, 1, 64, 70
2, 61005, Note_off_c, 1, 74, 64
2, 61008, Note_on_c, 1, 57, 69
2, 61011, Note_off_c, 1, 52, 64
2, 61019, Control_c, 1, 64, 0
2, 61096, Control_c, 1, 64, 127
2, 61113, Note_off_c, 1, 57, 64
2, 61114, Note_on_c, 1, 52, 80
2, 61121, Note_off_c, 1, 64, 64
2, 61230, Note_off_c, 1, 52, 64
2, 61241, Note_on_c, 1, 62, 73
2, 61248, Note_on_c, 1, 71, 73
2, 61251, Note_on_c, 1, 68, 64
2, 61267, Note_off_c, 1, 73, 64
2, 61268, Control_c, 1, 64, 0
2, 61358, Note_on_c, 1, 61, 84
2, 61385, Note_off_c, 1, 62, 64
2, 61448, Control_c, 1, 64, 127
2, 61470, Note_on_c, 1, 62, 89
2, 61476, Note_off_c, 1, 61, 64
2, 61571, Note_on_c, 1, 73, 86
2, 61581, Note_off_c, 1, 71, 64
2, 61582, Note_on_c, 1, 52, 76
2, 61591, Note_off_c, 1, 62, 64
2, 61694, Note_on_c, 1, 71, 79
2, 61696, Note_on_c, 1, 62, 76
2, 61702, Note_off_c, 1, 52, 64
2, 61715, Note_off_c, 1, 73, 64
2, 61723, Control_c, 1, 64, 0
2, 61794, Control_c, 1, 64, 127
2, 61802, Note_on_c, 1, 52, 82
2, 61814, Note_off_c, 1, 62, 64
2, 61817, Note_off_c, 1, 71, 64
2, 61820, Note_off_c, 1, 68, 64
2, 61906, Note_off_c, 1, 52, 64
2, 61919, Note_on_c, 1, 69, 78
2, 61920, Note_on_c, 1, 61, 58
2, 61924, Note_on_c, 1, 64, 64
2, 61941, Control_c, 1, 64, 0
2, 62005, Control_c, 1, 64, 127
2, 62029, Note_off_c, 1, 64, 64
2, 62030, Note_on_c, 1, 52, 65
2, 62041, Note_off_c, 1, 69, 64
2, 62054, Note_off_c, 1, 61, 64
2, 62177, Note_off_c, 1, 52, 64
2, 62184, Note_on_c, 1, 76, 79
2, 62186, Note_on_c, 1, 59, 49
2, 62193, Note_on_c, 1, 68, 44
2, 62210, Control_c, 1, 64, 0
2, 62274, Control_c, 1, 64, 127
2, 62291, Note_on_c, 1, 52, 63
2, 62299, Note_on_c, 1, 74, 87
2, 62307, Note_off_c, 1, 76, 64
2, 62332, Note_off_c, 1, 68, 64
2, 62391, Note_off_c, 1, 59, 64
2, 62410, Note_on_c, 1, 73, 84
2, 62412, Note_off_c, 1, 52, 64
2, 62415, Note_on_c, 1, 69, 74
2, 62417, Note_on_c, 1, 57, 65
2, 62428, Control_c, 1, 64, 0
2, 62433, Note_off_c, 1, 74, 64
2, 62498, Control_c, 1, 64, 127
2, 62526, Note_on_c, 1, 52, 60
2, 62538, Note_off_c, 1, 69, 64
2, 62545, Note_off_c, 1, 57, 64
2, 62545, Note_off_c, 1, 73, 64
2, 62636, Note_off_c, 1, 52, 64
2, 62646, Note_on_c, 1, 59, 57
2, 62653, Note_on_c, 1, 76, 70
2, 62655, Note_on_c, 1, 68, 50
2, 62683, Control_c, 1, 64, 0
2, 62741, Control_c, 1, 64, 127
2, 62760, Note_on_c, 1, 52, 59
2, 62770, Note_on_c, 1, 74, 67
2, 62783, Note_off_c, 1, 76, 64
2, 62787, Note_off_c, 1, 68, 64
2, 62825, Note_off_c, 1, 59, 64
2, 62868, Note_off_c, 1, 52, 64
2, 62884, Note_on_c, 1, 73, 70
2, 62886, Note_on_c, 1, 57, 61
2, 62896, Note_on_c, 1, 69, 38
2, 62913, Note_off_c, 1, 74, 64
2, 62914, Control_c, 1, 64, 0
2, 62990, Control_c, 1, 64, 127
2, 63013, Note_on_c, 1, 52, 58
2, 63017, Note_off_c, 1, 69, 64
2, 63020, Note_off_c, 1, 73, 64
2, 63027, Note_off_c, 1, 57, 64
2, 63034, Note_off_c, 1, 52, 64
2, 63155, Note_on_c, 1, 71, 52
2, 63155, Note_on_c, 1, 64, 39
2, 63158, Note_on_c, 1, 68, 44
2, 63183, Control_c, 1, 64, 0
2, 63274, Note_on_c, 1, 63, 66
2, 63303, Note_off_c, 1, 64, 64
2, 63403, Note_on_c, 1, 64, 78
2, 63417, Note_off_c, 1, 63, 64
2, 63509, Note_on_c, 1, 66, 84
2, 63524, Note_off_c, 1, 64, 64
2, 63575, Note_off_c, 1, 71, 64
2, 63625, Control_c, 1, 64, 127
2, 63633, Note_on_c, 1, 64, 85
2, 63638, Note_off_c, 1, 68, 64
2, 63640, Note_off_c, 1, 66, 64
2, 63668, Note_off_c, 1, 64, 64
2, 63747, Note_on_c, 1, 64, 72
2, 63750, Note_on_c, 1, 62, 51
2, 63785, Control_c, 1, 64, 0
2, 63863, Note_on_c, 1, 61, 59
2, 63864, Note_on_c, 1, 66, 69
2, 63878, Note_off_c, 1, 62, 64
2, 63900, Note_off_c, 1, 64, 64
2, 63982, Note_off_c, 1, 61, 64
2, 63982, Note_on_c, 1, 68, 66
2, 63986, Note_on_c, 1, 59, 56
2, 64008, Control_c, 1, 64, 127
2, 64017, Note_off_c, 1, 66, 64
2, 64033, Note_off_c, 1, 68, 64
2, 64118, Note_off_c, 1, 59, 64
2, 64119, Note_on_c, 1, 61, 54
2, 64130, Note_on_c, 1, 76, 57
2, 64130, Note_on_c, 1, 69, 50
2, 64130, Control_c, 1, 64, 0
2, 64244, Note_on_c, 1, 59, 63
2, 64246, Note_off_c, 1, 61, 64
2, 64356, Note_on_c, 1, 61, 65
2, 64365, Note_off_c, 1, 59, 64
2, 64475, Note_on_c, 1, 57, 63
2, 64480, Control_c, 1, 64, 127
2, 64481, Note_on_c, 1, 68, 85
2, 64487, Note_off_c, 1, 69, 64
2, 64489, Note_off_c, 1, 61, 64
2, 64507, Note_off_c, 1, 76, 64
2, 64600, Note_on_c, 1, 69, 89
2, 64602, Note_on_c, 1, 76, 80
2, 64603, Note_on_c, 1, 61, 64
2, 64608, Control_c, 1, 64, 0
2, 64611, Note_off_c, 1, 68, 64
2, 64613, Note_off_c, 1, 57, 64
2, 64691, Control_c, 1, 64, 127
2, 64713, Note_on_c, 1, 57, 65
2, 64741, Note_off_c, 1, 61, 64
2, 64745, Note_off_c, 1, 76, 64
2, 64819, Note_on_c, 1, 76, 101
2, 64825, Note_on_c, 1, 73, 76
2, 64832, Control_c, 1, 64, 0
2, 64833, Note_on_c, 1, 64, 71
2, 64838, Note_off_c, 1, 57, 64
2, 64838, Note_off_c, 1, 69, 64
2, 64908, Control_c, 1, 64, 127
2, 64920, Note_off_c, 1, 76, 64
2, 64926, Note_off_c, 1, 73, 64
2, 64947, Note_on_c, 1, 57, 75
2, 64950, Note_off_c, 1, 64, 64
2, 65045, Note_on_c, 1, 71, 62
2, 65057, Note_on_c, 1, 62, 78
2, 65059, Note_off_c, 1, 57, 64
2, 65063, Control_c, 1, 64, 0
2, 65070, Note_on_c, 1, 76, 95
2, 65088, Note_off_c, 1, 71, 64
2, 65112, Note_on_c, 1, 78, 93
2, 65120, Control_c, 1, 64, 127
2, 65121, Note_off_c, 1, 76, 64
2, 65141, Note_on_c, 1, 57, 62
2, 65150, Note_on_c, 1, 76, 97
2, 65163, Note_off_c, 1, 78, 64
2, 65173, Note_off_c, 1, 62, 64
2, 65206, Note_on_c, 1, 75, 84
2, 65211, Note_off_c, 1, 76, 64
2, 65238, Note_on_c, 1, 76, 113
2, 65251, Note_off_c, 1, 75, 64
2, 65273, Note_on_c, 1, 78, 100
2, 65280, Note_on_c, 1, 62, 69
2, 65295, Note_off_c, 1, 57, 64
2, 65306, Note_off_c, 1, 76, 64
2, 65350, Control_c, 1, 64, 0
2, 65376, Control_c, 1, 64, 127
2, 65384, Note_on_c, 1, 80, 99
2, 65395, Note_on_c, 1, 57, 69
2, 65414, Note_off_c, 1, 78, 64
2, 65424, Note_off_c, 1, 62, 64
2, 65465, Note_off_c, 1, 80, 64
2, 65503, Note_on_c, 1, 81, 87
2, 65508, Note_on_c, 1, 69, 67
2, 65508, Note_on_c, 1, 61, 60
2, 65527, Note_off_c, 1, 57, 64
2, 65536, Control_c, 1, 64, 0
2, 65622, Note_on_c, 1, 57, 36
2, 65626, Control_c, 1, 64, 127
2, 65634, Note_off_c, 1, 61, 64
2, 65741, Note_on_c, 1, 61, 51
2, 65741, Note_on_c, 1, 76, 81
2, 65744, Note_off_c, 1, 57, 64
2, 65746, Note_off_c, 1, 81, 64
2, 65773, Control_c, 1, 64, 0
2, 65831, Control_c, 1, 64, 127
2, 65851, Note_on_c, 1, 57, 55
2, 65856, Note_off_c, 1, 69, 64
2, 65865, Note_off_c, 1, 76, 64
2, 65873, Note_off_c, 1, 61, 64
2, 65976, Note_on_c, 1, 76, 74
2, 65977, Note_off_c, 1, 57, 64
2, 65978, Note_on_c, 1, 68, 52
2, 65982, Note_on_c, 1, 59, 45
2, 66017, Control_c, 1, 64, 0
2, 66079, Note_off_c, 1, 59, 64
2, 66081, Control_c, 1, 64, 127
2, 66087, Note_on_c, 1, 57, 53
2, 66201, Note_on_c, 1, 71, 62
2, 66204, Note_on_c, 1, 62, 52
2, 66206, Note_off_c, 1, 57, 64
2, 66228, Control_c, 1, 64, 0
2, 66259, Note_off_c, 1, 76, 64
2, 66278, Control_c, 1, 64, 127
2, 66319, Note_off_c, 1, 68, 64
2, 66327, Note_on_c, 1, 57, 57
2, 66346, Note_off_c, 1, 62, 64
2, 66348, Note_off_c, 1, 71, 64
2, 66437, Note_off_c, 1, 57, 64
2, 66441, Note_on_c, 1, 68, 59
2, 66442, Note_on_c, 1, 76, 80
2, 66443, Note_on_c, 1, 59, 52
2, 66452, Control_c, 1, 64, 0
2, 66516, Control_c, 1, 64, 127
2, 66538, Note_off_c, 1, 59, 64
2, 66545, Note_on_c, 1, 57, 61
2, 66660, Note_on_c, 1, 71, 69
2, 66663, Note_on_c, 1, 62, 61
2, 66664, Note_off_c, 1, 57, 64
2, 66700, Note_off_c, 1, 68, 64
2, 66767, Note_on_c, 1, 57, 53
2, 66770, Note_off_c, 1, 76, 64
2, 66787, Note_off_c, 1, 62, 64
2, 66865, Note_off_c, 1, 57, 64
2, 66898, Note_off_c, 1, 71, 64
2, 66903, Note_on_c, 1, 61, 63
2, 66907, Note_on_c, 1, 57, 39
2, 66912, Note_on_c, 1, 69, 50
2, 66925, Control_c, 1, 64, 0
2, 66983, Control_c, 1, 64, 127
2, 66985, Note_off_c, 1, 61, 64
2, 66996, Note_off_c, 1, 57, 64
2, 67038, Note_on_c, 1, 57, 52
2, 67150, Note_on_c, 1, 59, 72
2, 67156, Control_c, 1, 64, 0
2, 67163, Note_off_c, 1, 57, 64
2, 67251, Note_on_c, 1, 57, 78
2, 67291, Note_off_c, 1, 59, 64
2, 67363, Note_on_c, 1, 56, 86
2, 67401, Note_off_c, 1, 57, 64
2, 67465, Note_on_c, 1, 73, 90
2, 67468, Note_on_c, 1, 76, 95
2, 67472, Note_on_c, 1, 57, 100
2, 67500, Note_off_c, 1, 69, 64
2, 67511, Note_off_c, 1, 56, 64
2, 67577, Note_on_c, 1, 71, 76
2, 67579, Note_on_c, 1, 59, 84
2, 67579, Note_on_c, 1, 74, 97
2, 67597, Note_off_c, 1, 57, 64
2, 67612, Note_off_c, 1, 76, 64
2, 67623, Note_off_c, 1, 73, 64
2, 67686, Note_on_c, 1, 61, 90
2, 67691, Note_on_c, 1, 73, 86
2, 67692, Note_on_c, 1, 69, 89
2, 67715, Note_off_c, 1, 59, 64
2, 67743, Note_off_c, 1, 71, 64
2, 67768, Note_off_c, 1, 69, 64
2, 67780, Note_off_c, 1, 74, 64
2, 67824, Note_on_c, 1, 62, 81
2, 67825, Note_on_c, 1, 71, 80
2, 67838, Note_off_c, 1, 73, 64
2, 67838, Note_on_c, 1, 68, 75
2, 67847, Note_off_c, 1, 61, 64
2, 67968, Note_on_c, 1, 76, 70
2, 68013, Note_off_c, 1, 68, 64
2, 68014, Control_c, 1, 64, 127
2, 68027, Note_off_c, 1, 71, 64
2, 68066, Note_on_c, 1, 71, 50
2, 68077, Note_on_c, 1, 68, 41
2, 68086, Note_off_c, 1, 76, 64
2, 68174, Note_off_c, 1, 68, 64
2, 68178, Note_on_c, 1, 64, 65
2, 68182, Note_on_c, 1, 76, 85
2, 68184, Note_off_c, 1, 62, 64
2, 68188, Note_off_c, 1, 71, 64
2, 68290, Note_on_c, 1, 62, 75
2, 68297, Note_off_c, 1, 76, 64
2, 68297, Note_on_c, 1, 68, 70
2, 68297, Note_on_c, 1, 71, 65
2, 68314, Control_c, 1, 64, 0
2, 68320, Note_off_c, 1, 64, 64
2, 68392, Control_c, 1, 64, 127
2, 68408, Note_on_c, 1, 76, 91
2, 68431, Note_off_c, 1, 68, 64
2, 68512, Note_on_c, 1, 61, 82
2, 68520, Note_on_c, 1, 69, 91
2, 68526, Note_off_c, 1, 76, 64
2, 68533, Control_c, 1, 64, 0
2, 68564, Note_off_c, 1, 62, 64
2, 68610, Control_c, 1, 64, 127
2, 68630, Note_off_c, 1, 61, 64
2, 68637, Note_on_c, 1, 76, 90
2, 68644, Note_off_c, 1, 69, 64
2, 68645, Note_off_c, 1, 71, 64
2, 68650, Note_off_c, 1, 76, 64
2, 68792, Note_on_c, 1, 59, 58
2, 68793, Note_on_c, 1, 68, 55
2, 68795, Note_on_c, 1, 76, 85
2, 68796, Note_on_c, 1, 50, 76
2, 68827, Control_c, 1, 64, 0
2, 68916, Control_c, 1, 64, 127
2, 68922, Note_on_c, 1, 80, 91
2, 68943, Note_off_c, 1, 76, 64
2, 69023, Note_off_c, 1, 50, 64
2, 69033, Note_on_c, 1, 76, 95
2, 69041, Note_off_c, 1, 80, 64
2, 69042, Note_off_c, 1, 59, 64
2, 69138, Note_on_c, 1, 80, 97
2, 69143, Note_on_c, 1, 61, 79
2, 69145, Note_on_c, 1, 52, 89
2, 69152, Note_off_c, 1, 68, 64
2, 69154, Note_off_c, 1, 76, 64
2, 69191, Note_off_c, 1, 52, 64
2, 69191, Note_off_c, 1, 61, 64
2, 69254, Note_on_c, 1, 68, 83
2, 69256, Note_on_c, 1, 76, 97
2, 69257, Note_on_c, 1, 59, 74
2, 69258, Note_off_c, 1, 80, 64
2, 69259, Note_on_c, 1, 50, 83
2, 69294, Control_c, 1, 64, 0
2, 69362, Note_on_c, 1, 80, 92
2, 69365, Control_c, 1, 64, 127
2, 69370, Note_off_c, 1, 68, 64
2, 69373, Note_off_c, 1, 76, 64
2, 69381, Note_off_c, 1, 59, 64
2, 69388, Note_off_c, 1, 50, 64
2, 69414, Note_off_c, 1, 80, 64
2, 69477, Note_on_c, 1, 69, 81
2, 69478, Note_on_c, 1, 49, 84
2, 69478, Note_on_c, 1, 57, 85
2, 69478, Note_on_c, 1, 76, 99
2, 69499, Control_c, 1, 64, 0
2, 69563, Control_c, 1, 64, 127
2, 69592, Note_off_c, 1, 49, 64
2, 69598, Note_on_c, 1, 81, 100
2, 69602, Note_off_c, 1, 69, 64
2, 69608, Note_off_c, 1, 57, 64
2, 69622, Note_off_c, 1, 76, 64
2, 69623, Note_off_c, 1, 81, 64
2, 69733, Note_on_c, 1, 64, 78
2, 69736, Note_on_c, 1, 83, 71
2, 69744, Note_on_c, 1, 56, 50
2, 69768, Control_c, 1, 64, 0
2, 69858, Note_on_c, 1, 62, 66
2, 69861, Note_on_c, 1, 76, 89
2, 69869, Note_off_c, 1, 83, 64
2, 69870, Control_c, 1, 64, 127
2, 69904, Note_off_c, 1, 64, 64
2, 69918, Note_off_c, 1, 56, 64
2, 69990, Note_on_c, 1, 61, 67
2, 69993, Note_off_c, 1, 76, 64
2, 69993, Note_on_c, 1, 81, 68
2, 69996, Note_on_c, 1, 57, 46
2, 69999, Note_off_c, 1, 62, 64
2, 70024, Control_c, 1, 64, 0
2, 70120, Control_c, 1, 64, 127
2, 70124, Note_on_c, 1, 76, 51
2, 70126, Note_off_c, 1, 81, 64
2, 70131, Note_off_c, 1, 57, 64
2, 70148, Note_off_c, 1, 61, 64
2, 70219, Note_off_c, 1, 76, 64
2, 70238, Note_on_c, 1, 83, 55
2, 70243, Note_on_c, 1, 64, 70
2, 70245, Note_on_c, 1, 56, 55
2, 70261, Control_c, 1, 64, 0
2, 70351, Control_c, 1, 64, 127
2, 70360, Note_on_c, 1, 62, 55
2, 70361, Note_on_c, 1, 76, 65
2, 70371, Note_off_c, 1, 83, 64
2, 70380, Note_off_c, 1, 56, 64
2, 70385, Note_off_c, 1, 64, 64
2, 70476, Note_off_c, 1, 76, 64
2, 70482, Note_on_c, 1, 61, 60
2, 70490, Note_on_c, 1, 81, 45
2, 70493, Note_off_c, 1, 62, 64
2, 70495, Note_on_c, 1, 57, 31
2, 70510, Control_c, 1, 64, 0
2, 70588, Control_c, 1, 64, 127
2, 70598, Note_off_c, 1, 81, 64
2, 70615, Note_off_c, 1, 61, 64
2, 70619, Note_on_c, 1, 76, 70
2, 70622, Note_off_c, 1, 57, 64
2, 70789, Note_on_c, 1, 59, 39
2, 70791, Note_off_c, 1, 76, 64
2, 70793, Note_on_c, 1, 88, 58
2, 70804, Note_on_c, 1, 52, 41
2, 70812, Control_c, 1, 64, 0
2, 70902, Note_off_c, 1, 88, 64
2, 71000, Note_on_c, 1, 76, 59
2, 71132, Note_on_c, 1, 78, 62
2, 71142, Note_off_c, 1, 76, 64
2, 71247, Note_off_c, 1, 59, 64
2, 71250, Note_on_c, 1, 76, 76
2, 71264, Note_off_c, 1, 52, 64
2, 71271, Note_off_c, 1, 78, 64
2, 71371, Note_on_c, 1, 75, 68
2, 71451, Note_off_c, 1, 76, 64
2, 71475, Note_on_c, 1, 78, 70
2, 71513, Note_off_c, 1, 75, 64
2, 71590, Note_on_c, 1, 74, 84
2, 71605, Control_c, 1, 64, 127
2, 71701, Note_on_c, 1, 80, 94
2, 71715, Note_off_c, 1, 74, 64
2, 71721, Note_off_c, 1, 78, 64
2, 71738, Note_off_c, 1, 80, 64
2, 71829, Note_on_c, 1, 83, 66
2, 71833, Note_on_c, 1, 40, 57
2, 71833, Note_on_c, 1, 73, 44
2, 71855, Control_c, 1, 64, 0
2, 71950, Note_on_c, 1, 81, 87
2, 71960, Note_off_c, 1, 83, 64
2, 71964, Control_c, 1, 64, 127
2, 72004, Note_off_c, 1, 73, 64
2, 72026, Note_off_c, 1, 81, 64
2, 72065, Note_on_c, 1, 71, 85
2, 72165, Note_off_c, 1, 71, 64
2, 72173, Note_on_c, 1, 80, 88
2, 72189, Note_off_c, 1, 40, 64
2, 72223, Note_off_c, 1, 80, 64
2, 72278, Note_on_c, 1, 73, 82
2, 72279, Note_on_c, 1, 40, 85
2, 72310, Control_c, 1, 64, 0
2, 72361, Control_c, 1, 64, 127
2, 72396, Note_on_c, 1, 81, 93
2, 72413, Note_off_c, 1, 40, 64
2, 72498, Note_on_c, 1, 40, 84
2, 72499, Note_on_c, 1, 76, 101
2, 72508, Control_c, 1, 64, 0
2, 72517, Note_off_c, 1, 81, 64
2, 72565, Control_c, 1, 64, 127
2, 72598, Note_off_c, 1, 40, 64
2, 72598, Note_off_c, 1, 73, 64
2, 72611, Note_on_c, 1, 85, 92
2, 72619, Note_off_c, 1, 76, 64
2, 72704, Note_off_c, 1, 85, 64
2, 72710, Note_on_c, 1, 74, 96
2, 72715, Note_on_c, 1, 40, 92
2, 72748, Note_on_c, 1, 42, 79
2, 72760, Note_off_c, 1, 40, 64
2, 72793, Note_on_c, 1, 40, 88
2, 72818, Note_off_c, 1, 42, 64
2, 72835, Note_on_c, 1, 85, 88
2, 72839, Note_on_c, 1, 39, 84
2, 72852, Note_off_c, 1, 40, 64
2, 72882, Note_on_c, 1, 40, 96
2, 72902, Note_off_c, 1, 39, 64
2, 72921, Note_on_c, 1, 83, 84
2, 72934, Note_off_c, 1, 85, 64
2, 72935, Note_on_c, 1, 42, 91
2, 72943, Control_c, 1, 64, 0
2, 72957, Note_off_c, 1, 74, 64
2, 72983, Note_off_c, 1, 40, 64
2, 73007, Control_c, 1, 64, 127
2, 73044, Note_on_c, 1, 44, 86
2, 73051, Note_on_c, 1, 74, 90
2, 73068, Note_off_c, 1, 42, 64
2, 73083, Note_off_c, 1, 83, 64
2, 73106, Note_off_c, 1, 74, 64
2, 73161, Note_on_c, 1, 45, 89
2, 73163, Note_on_c, 1, 73, 83
2, 73192, Note_off_c, 1, 44, 64
2, 73213, Control_c, 1, 64, 0
2, 73277, Control_c, 1, 64, 127
2, 73283, Note_on_c, 1, 83, 76
2, 73395, Note_on_c, 1, 40, 64
2, 73397, Note_on_c, 1, 81, 79
2, 73398, Note_off_c, 1, 83, 64
2, 73407, Note_off_c, 1, 73, 64
2, 73409, Note_off_c, 1, 45, 64
2, 73411, Control_c, 1, 64, 0
2, 73475, Control_c, 1, 64, 127
2, 73522, Note_on_c, 1, 73, 70
2, 73529, Note_off_c, 1, 81, 64
2, 73542, Note_off_c, 1, 40, 64
2, 73548, Note_off_c, 1, 73, 64
2, 73674, Note_on_c, 1, 40, 50
2, 73678, Note_on_c, 1, 71, 65
2, 73711, Control_c, 1, 64, 0
2, 73830, Note_on_c, 1, 81, 66
2, 73834, Control_c, 1, 64, 127
2, 73945, Note_on_c, 1, 80, 66
2, 73966, Note_off_c, 1, 81, 64
2, 74044, Note_off_c, 1, 40, 64
2, 74057, Note_on_c, 1, 78, 76
2, 74069, Note_off_c, 1, 80, 64
2, 74079, Note_off_c, 1, 71, 64
2, 74172, Note_on_c, 1, 71, 65
2, 74177, Note_on_c, 1, 40, 55
2, 74192, Control_c, 1, 64, 0
2, 74243, Control_c, 1, 64, 127
2, 74277, Note_off_c, 1, 71, 64
2, 74281, Note_on_c, 1, 80, 68
2, 74297, Note_off_c, 1, 78, 64
2, 74300, Note_off_c, 1, 40, 64
2, 74396, Control_c, 1, 64, 0
2, 74399, Note_on_c, 1, 40, 42
2, 74400, Note_on_c, 1, 74, 80
2, 74415, Note_off_c, 1, 80, 64
2, 74448, Control_c, 1, 64, 127
2, 74522, Note_off_c, 1, 40, 64
2, 74530, Note_off_c, 1, 74, 64
2, 74530, Note_on_c, 1, 83, 73
2, 74566, Note_off_c, 1, 83, 64
2, 74701, Note_on_c, 1, 81, 54
2, 74706, Note_on_c, 1, 73, 43
2, 74710, Note_on_c, 1, 33, 33
2, 74730, Control_c, 1, 64, 0
2, 74806, Control_c, 1, 64, 127
2, 74875, Note_off_c, 1, 73, 64
2, 74891, Note_off_c, 1, 81, 64
2, 74893, Note_off_c, 1, 33, 64
2, 75018, Control_c, 1, 64, 0
2, 75394, Note_on_c, 1, 74, 117
2, 75398, Note_on_c, 1, 69, 110
2, 75398, Note_on_c, 1, 66, 106
2, 75658, Control_c, 1, 64, 127
2, 75702, Note_off_c, 1, 66, 64
2, 75741, Note_off_c, 1, 69, 64
2, 75815, Note_off_c, 1, 74, 64
2, 76116, Note_on_c, 1, 78, 59
2, 76123, Note_on_c, 1, 62, 36
2, 76171, Control_c, 1, 64, 0
2, 76260, Control_c, 1, 64, 127
2, 76382, Note_off_c, 1, 78, 64
2, 76405, Note_on_c, 1, 66, 45
2, 76408, Note_on_c, 1, 74, 62
2, 76414, Note_on_c, 1, 59, 38
2, 76433, Note_off_c, 1, 62, 64
2, 76439, Control_c, 1, 64, 0
2, 76510, Control_c, 1, 64, 127
2, 76557, Note_off_c, 1, 66, 64
2, 76636, Note_off_c, 1, 74, 64
2, 76643, Note_on_c, 1, 64, 56
2, 76644, Note_off_c, 1, 59, 64
2, 76644, Note_on_c, 1, 71, 65
2, 76648, Note_on_c, 1, 68, 43
2, 76663, Control_c, 1, 64, 0
2, 76734, Control_c, 1, 64, 127
2, 76779, Note_off_c, 1, 68, 64
2, 76889, Note_on_c, 1, 52, 51
2, 76891, Note_on_c, 1, 68, 56
2, 76891, Note_on_c, 1, 76, 68
2, 76892, Note_off_c, 1, 71, 64
2, 76898, Note_off_c, 1, 64, 64
2, 76913, Control_c, 1, 64, 0
2, 76976, Control_c, 1, 64, 127
2, 77028, Note_off_c, 1, 76, 64
2, 77073, Note_off_c, 1, 68, 64
2, 77160, Note_off_c, 1, 52, 64
2, 77184, Note_on_c, 1, 74, 67
2, 77190, Note_on_c, 1, 57, 42
2, 77195, Note_on_c, 1, 69, 42
2, 77208, Control_c, 1, 64, 0
2, 77310, Note_on_c, 1, 73, 83
2, 77394, Note_off_c, 1, 74, 64
2, 77421, Note_on_c, 1, 71, 84
2, 77443, Note_off_c, 1, 69, 64
2, 77444, Note_off_c, 1, 57, 64
2, 77480, Note_off_c, 1, 73, 64
2, 77515, Control_c, 1, 64, 127
2, 77546, Note_on_c, 1, 69, 95
2, 77581, Note_off_c, 1, 71, 64
2, 77595, Note_off_c, 1, 69, 64
2, 77769, Note_on_c, 1, 57, 96
2, 77769, Note_on_c, 1, 62, 106
2, 77771, Note_on_c, 1, 54, 83
2, 77796, Control_c, 1, 64, 0
2, 78040, Control_c, 1, 64, 127
2, 78113, Note_off_c, 1, 57, 64
2, 78121, Note_off_c, 1, 54, 64
2, 78368, Note_off_c, 1, 62, 64
2, 78412, Note_on_c, 1, 66, 59
2, 78423, Note_on_c, 1, 50, 40
2, 78462, Control_c, 1, 64, 0
2, 78546, Control_c, 1, 64, 127
2, 78555, Note_off_c, 1, 66, 64
2, 78669, Note_on_c, 1, 54, 47
2, 78669, Note_on_c, 1, 62, 59
2, 78677, Note_on_c, 1, 47, 35
2, 78682, Note_off_c, 1, 50, 64
2, 78699, Control_c, 1, 64, 0
2, 78776, Control_c, 1, 64, 127
2, 78828, Note_off_c, 1, 54, 64
2, 78830, Note_off_c, 1, 62, 64
2, 78917, Note_off_c, 1, 47, 64
2, 78921, Note_on_c, 1, 56, 50
2, 78922, Note_on_c, 1, 52, 47
2, 78927, Note_on_c, 1, 59, 52
2, 78943, Control_c, 1, 64, 0
2, 79025, Control_c, 1, 64, 127
2, 79070, Note_off_c, 1, 56, 64
2, 79100, Note_off_c, 1, 59, 64
2, 79197, Note_on_c, 1, 40, 47
2, 79203, Note_on_c, 1, 64, 56
2, 79203, Note_on_c, 1, 56, 43
2, 79214, Note_off_c, 1, 52, 64
2, 79224, Control_c, 1, 64, 0
2, 79307, Control_c, 1, 64, 127
2, 79343, Note_off_c, 1, 64, 64
2, 79352, Note_off_c, 1, 56, 64
2, 79393, Note_off_c, 1, 40, 64
2, 79505, Note_on_c, 1, 61, 50
2, 79516, Note_on_c, 1, 45, 45
2, 79518, Note_on_c, 1, 57, 34
2, 79551, Control_c, 1, 64, 0
2, 79647, Control_c, 1, 64, 127
2, 79727, Note_off_c, 1, 57, 64
2, 79748, Note_off_c, 1, 45, 64
2, 79781, Control_c, 1, 64, 0
2, 79785, Note_off_c, 1, 61, 64
2, 80103, Note_on_c, 1, 71, 54
2, 80105, Note_on_c, 1, 68, 46
2, 80106, Note_on_c, 1, 64, 46
2, 80126, Control_c, 1, 64, 127
2, 80205, Note_off_c, 1, 64, 64
2, 80213, Note_off_c, 1, 68, 64
2, 80222, Note_off_c, 1, 71, 64
2, 80390, Note_on_c, 1, 76, 70
2, 80398, Note_on_c, 1, 68, 40
2, 80409, Note_on_c, 1, 64, 32
2, 80455, Note_off_c, 1, 64, 64
2, 80476, Note_off_c, 1, 76, 64
2, 80484, Note_off_c, 1, 68, 64
2, 80738, Note_on_c, 1, 73, 52
2, 80752, Note_on_c, 1, 57, 43
2, 80753, Note_on_c, 1, 69, 37
2, 80799, Control_c, 1, 64, 0
2, 80881, Note_off_c, 1, 69, 64
2, 80901, Note_off_c, 1, 57, 64
2, 80936, Note_off_c, 1, 73, 64
2, 81410, Note_on_c, 1, 80, 28
2, 81411, Note_on_c, 1, 40, 35
2, 81415, Note_on_c, 1, 83, 39
2, 81534, Note_off_c, 1, 40, 64
2, 81752, Note_on_c, 1, 88, 45
2, 82008, Note_off_c, 1, 80, 64
2, 82144, Note_off_c, 1, 83, 64
2, 82146, Note_off_c, 1, 88, 64
2, 82147, Note_on_c, 1, 33, 49
2, 82152, Note_on_c, 1, 85, 50
2, 82155, Note_on_c, 1, 81, 28
2, 82184, Note_off_c, 1, 33, 64
2, 82217, Note_off_c, 1, 81, 64
2, 82222, Note_off_c, 1, 85, 64
2, 82560, Control_c, 1, 64, 0
2, 82560, End_track
0, 0, End_of_file