0, 0, Header, 0, 1, 240
1, 0, Start_track
1, 0, Time_signature, 3, 2, 24, 8
1, 0, Tempo, 240000
1, 0, Program_c, 2, 0
1, 0, Control_c, 2, 7, 127
1, 0, Note_on_c, 2, 36, 100
1, 0, Note_on_c, 2, 48, 100
1, 144, Note_off_c, 2, 48, 64
1, 144, Note_off_c, 2, 36, 64
1, 144, Note_on_c, 2, 39, 100
1, 144, Note_on_c, 2, 51, 100
1, 288, Note_off_c, 2, 51, 64
1, 288, Note_off_c, 2, 39, 64
1, 288, Note_on_c, 2, 43, 100
1, 288, Note_on_c, 2, 55, 100
1, 432, Note_off_c, 2, 55, 64
1, 432, Note_off_c, 2, 43, 64
1, 432, Note_on_c, 2, 60, 100
1, 432, Note_on_c, 2, 48, 100
1, 576, Note_off_c, 2, 48, 64
1, 576, Note_off_c, 2, 60, 64
1, 576, Note_on_c, 2, 63, 100
1, 576, Note_on_c, 2, 51, 100
1, 720, Note_off_c, 2, 51, 64
1, 720, Note_off_c, 2, 63, 64
1, 720, Note_on_c, 2, 55, 100
1, 720, Note_on_c, 2, 67, 100
1, 864, Note_off_c, 2, 67, 64
1, 864, Note_off_c, 2, 55, 64
1, 864, Note_on_c, 2, 60, 100
1, 864, Note_on_c, 2, 79, 100
1, 1008, Note_off_c, 2, 79, 64
1, 1008, Note_off_c, 2, 60, 64
1, 1008, Note_on_c, 2, 63, 100
1, 1008, Note_on_c, 2, 75, 100
1, 1152, Note_off_c, 2, 75, 64
1, 1152, Note_off_c, 2, 63, 64
1, 1152, Note_on_c, 2, 67, 100
1, 1152, Note_on_c, 2, 72, 100
1, 1296, Note_off_c, 2, 72, 64
1, 1296, Note_off_c, 2, 67, 64
1, 1296, Note_on_c, 2, 79, 100
1, 1296, Note_on_c, 2, 59, 100
1, 1440, Note_off_c, 2, 59, 64
1, 1440, Note_off_c, 2, 79, 64
1, 1440, Note_on_c, 2, 62, 100
1, 1440, Note_on_c, 2, 74, 100
1, 1584, Note_off_c, 2, 74, 64
1, 1584, Note_off_c, 2, 62, 64
1, 1584, Note_on_c, 2, 67, 100
1, 1584, Note_on_c, 2, 71, 100
1, 1728, Note_off_c, 2, 71, 64
1, 1728, Note_off_c, 2, 67, 64
1, 1728, Note_on_c, 2, 47, 100
1, 1728, Note_on_c, 2, 67, 100
1, 1872, Note_off_c, 2, 67, 64
1, 1872, Note_off_c, 2, 47, 64
1, 1872, Note_on_c, 2, 50, 100
1, 1872, Note_on_c, 2, 62, 100
1, 2016, Note_off_c, 2, 62, 64
1, 2016, Note_off_c, 2, 50, 64
1, 2016, Note_on_c, 2, 59, 100
1, 2016, Note_on_c, 2, 55, 100
1, 2160, Note_off_c, 2, 55, 64
1, 2160, Note_off_c, 2, 59, 64
1, 2160, Note_on_c, 2, 46, 100
1, 2160, Note_on_c, 2, 67, 100
1, 2304, Note_off_c, 2, 67, 64
1, 2304, Note_off_c, 2, 46, 64
1, 2304, Note_on_c, 2, 50, 100
1, 2304, Note_on_c, 2, 62, 100
1, 2448, Note_off_c, 2, 62, 64
1, 2448, Note_off_c, 2, 50, 64
1, 2448, Note_on_c, 2, 55, 100
1, 2448, Note_on_c, 2, 58, 100
1, 2592, Note_off_c, 2, 58, 64
1, 2592, Note_off_c, 2, 55, 64
1, 2592, Note_on_c, 2, 58, 100
1, 2592, Note_on_c, 2, 79, 100
1, 2736, Note_off_c, 2, 79, 64
1, 2736, Note_off_c, 2, 58, 64
1, 2736, Note_on_c, 2, 74, 100
1, 2736, Note_on_c, 2, 62, 100
1, 2880, Note_off_c, 2, 62, 64
1, 2880, Note_off_c, 2, 74, 64
1, 2880, Note_on_c, 2, 67, 100
1, 2880, Note_on_c, 2, 70, 100
1, 3024, Note_off_c, 2, 70, 64
1, 3024, Note_off_c, 2, 67, 64
1, 3024, Note_on_c, 2, 57, 100
1, 3024, Note_on_c, 2, 77, 100
1, 3168, Note_off_c, 2, 77, 64
1, 3168, Note_off_c, 2, 57, 64
1, 3168, Note_on_c, 2, 60, 100
1, 3168, Note_on_c, 2, 72, 100
1, 3312, Note_off_c, 2, 72, 64
1, 3312, Note_off_c, 2, 60, 64
1, 3312, Note_on_c, 2, 65, 100
1, 3312, Note_on_c, 2, 69, 100
1, 3456, Note_off_c, 2, 69, 64
1, 3456, Note_off_c, 2, 65, 64
1, 3456, Note_on_c, 2, 65, 100
1, 3456, Note_on_c, 2, 45, 100
1, 3600, Note_off_c, 2, 45, 64
1, 3600, Note_off_c, 2, 65, 64
1, 3600, Note_on_c, 2, 48, 100
1, 3600, Note_on_c, 2, 60, 100
1, 3744, Note_off_c, 2, 60, 64
1, 3744, Note_off_c, 2, 48, 64
1, 3744, Note_on_c, 2, 53, 100
1, 3744, Note_on_c, 2, 57, 100
1, 3888, Note_off_c, 2, 57, 64
1, 3888, Note_off_c, 2, 53, 64
1, 3888, Note_on_c, 2, 44, 100
1, 3888, Note_on_c, 2, 65, 100
1, 4032, Note_off_c, 2, 65, 64
1, 4032, Note_off_c, 2, 44, 64
1, 4032, Note_on_c, 2, 48, 100
1, 4032, Note_on_c, 2, 60, 100
1, 4176, Note_off_c, 2, 60, 64
1, 4176, Note_off_c, 2, 48, 64
1, 4176, Note_on_c, 2, 56, 100
1, 4176, Note_on_c, 2, 53, 100
1, 4320, Note_off_c, 2, 53, 64
1, 4320, Note_off_c, 2, 56, 64
1, 4320, Note_on_c, 2, 56, 100
1, 4320, Note_on_c, 2, 77, 100
1, 4464, Note_off_c, 2, 77, 64
1, 4464, Note_off_c, 2, 56, 64
1, 4464, Note_on_c, 2, 60, 100
1, 4464, Note_on_c, 2, 72, 100
1, 4608, Note_off_c, 2, 72, 64
1, 4608, Note_off_c, 2, 60, 64
1, 4608, Note_on_c, 2, 65, 100
1, 4608, Note_on_c, 2, 68, 100
1, 4752, Note_off_c, 2, 68, 64
1, 4752, Note_off_c, 2, 65, 64
1, 4752, Note_on_c, 2, 55, 100
1, 4752, Note_on_c, 2, 75, 100
1, 4896, Note_off_c, 2, 75, 64
1, 4896, Note_off_c, 2, 55, 64
1, 4896, Note_on_c, 2, 72, 100
1, 4896, Note_on_c, 2, 60, 100
1, 5040, Note_off_c, 2, 60, 64
1, 5040, Note_off_c, 2, 72, 64
1, 5040, Note_on_c, 2, 63, 100
1, 5040, Note_on_c, 2, 67, 100
1, 5184, Note_off_c, 2, 67, 64
1, 5184, Note_off_c, 2, 63, 64
1, 5184, Note_on_c, 2, 36, 100
1, 5184, Note_on_c, 2, 48, 100
1, 5184, Note_on_c, 2, 62, 100
1, 5184, Note_on_c, 2, 75, 100
1, 5328, Note_off_c, 2, 75, 64
1, 5328, Note_off_c, 2, 62, 64
1, 5328, Note_off_c, 2, 48, 64
1, 5328, Note_off_c, 2, 36, 64
1, 5328, Note_on_c, 2, 43, 100
1, 5328, Note_on_c, 2, 69, 100
1, 5472, Note_off_c, 2, 69, 64
1, 5472, Note_off_c, 2, 43, 64
1, 5472, Note_on_c, 2, 45, 100
1, 5472, Note_on_c, 2, 67, 100
1, 5616, Note_off_c, 2, 67, 64
1, 5616, Note_off_c, 2, 45, 64
1, 5616, Note_on_c, 2, 74, 100
1, 5616, Note_on_c, 2, 62, 100
1, 5616, Note_on_c, 2, 50, 100
1, 5616, Note_on_c, 2, 38, 100
1, 5760, Note_off_c, 2, 38, 64
1, 5760, Note_off_c, 2, 50, 64
1, 5760, Note_off_c, 2, 62, 64
1, 5760, Note_off_c, 2, 74, 64
1, 5760, Note_on_c, 2, 43, 100
1, 5760, Note_on_c, 2, 70, 100
1, 5904, Note_off_c, 2, 70, 64
1, 5904, Note_off_c, 2, 43, 64
1, 5904, Note_on_c, 2, 46, 100
1, 5904, Note_on_c, 2, 67, 100
1, 6048, Note_off_c, 2, 67, 64
1, 6048, Note_off_c, 2, 46, 64
1, 6048, Note_on_c, 2, 38, 100
1, 6048, Note_on_c, 2, 50, 100
1, 6048, Note_on_c, 2, 62, 100
1, 6048, Note_on_c, 2, 74, 100
1, 6192, Note_off_c, 2, 74, 64
1, 6192, Note_off_c, 2, 62, 64
1, 6192, Note_off_c, 2, 50, 64
1, 6192, Note_off_c, 2, 38, 64
1, 6192, Note_on_c, 2, 42, 100
1, 6192, Note_on_c, 2, 69, 100
1, 6336, Note_off_c, 2, 69, 64
1, 6336, Note_off_c, 2, 42, 64
1, 6336, Note_on_c, 2, 66, 100
1, 6336, Note_on_c, 2, 45, 100
1, 6480, Note_off_c, 2, 45, 64
1, 6480, Note_off_c, 2, 66, 64
1, 6480, Note_on_c, 2, 31, 100
1, 6480, Note_on_c, 2, 43, 100
1, 6480, Note_on_c, 2, 67, 100
1, 6624, Note_off_c, 2, 67, 64
1, 6624, Note_off_c, 2, 43, 64
1, 6624, Note_off_c, 2, 31, 64
1, 6624, Note_on_c, 2, 39, 100
1, 6768, Note_off_c, 2, 39, 64
1, 6768, Note_on_c, 2, 38, 100
1, 6912, Note_off_c, 2, 38, 64
1, 6912, Note_on_c, 2, 36, 100
1, 6912, Note_on_c, 2, 48, 100
1, 7056, Note_off_c, 2, 48, 64
1, 7056, Note_off_c, 2, 36, 64
1, 7056, Note_on_c, 2, 51, 100
1, 7056, Note_on_c, 2, 39, 100
1, 7200, Note_off_c, 2, 39, 64
1, 7200, Note_off_c, 2, 51, 64
1, 7200, Note_on_c, 2, 43, 100
1, 7200, Note_on_c, 2, 55, 100
1, 7344, Note_off_c, 2, 55, 64
1, 7344, Note_off_c, 2, 43, 64
1, 7344, Note_on_c, 2, 60, 100
1, 7344, Note_on_c, 2, 48, 100
1, 7488, Note_off_c, 2, 48, 64
1, 7488, Note_off_c, 2, 60, 64
1, 7488, Note_on_c, 2, 51, 100
1, 7488, Note_on_c, 2, 63, 100
1, 7632, Note_off_c, 2, 63, 64
1, 7632, Note_off_c, 2, 51, 64
1, 7632, Note_on_c, 2, 55, 100
1, 7632, Note_on_c, 2, 67, 100
1, 7776, Note_off_c, 2, 67, 64
1, 7776, Note_off_c, 2, 55, 64
1, 7776, Note_on_c, 2, 79, 100
1, 7776, Note_on_c, 2, 60, 100
1, 7920, Note_off_c, 2, 60, 64
1, 7920, Note_off_c, 2, 79, 64
1, 7920, Note_on_c, 2, 63, 100
1, 7920, Note_on_c, 2, 75, 100
1, 8064, Note_off_c, 2, 75, 64
1, 8064, Note_off_c, 2, 63, 64
1, 8064, Note_on_c, 2, 67, 100
1, 8064, Note_on_c, 2, 72, 100
1, 8208, Note_off_c, 2, 72, 64
1, 8208, Note_off_c, 2, 67, 64
1, 8208, Note_on_c, 2, 59, 100
1, 8208, Note_on_c, 2, 79, 100
1, 8352, Note_off_c, 2, 79, 64
1, 8352, Note_off_c, 2, 59, 64
1, 8352, Note_on_c, 2, 62, 100
1, 8352, Note_on_c, 2, 74, 100
1, 8496, Note_off_c, 2, 74, 64
1, 8496, Note_off_c, 2, 62, 64
1, 8496, Note_on_c, 2, 71, 100
1, 8496, Note_on_c, 2, 67, 100
1, 8640, Note_off_c, 2, 67, 64
1, 8640, Note_off_c, 2, 71, 64
1, 8640, Note_on_c, 2, 47, 100
1, 8640, Note_on_c, 2, 67, 100
1, 8784, Note_off_c, 2, 67, 64
1, 8784, Note_off_c, 2, 47, 64
1, 8784, Note_on_c, 2, 50, 100
1, 8784, Note_on_c, 2, 62, 100
1, 8928, Note_off_c, 2, 62, 64
1, 8928, Note_off_c, 2, 50, 64
1, 8928, Note_on_c, 2, 55, 100
1, 8928, Note_on_c, 2, 59, 100
1, 9072, Note_off_c, 2, 59, 64
1, 9072, Note_off_c, 2, 55, 64
1, 9072, Note_on_c, 2, 46, 100
1, 9072, Note_on_c, 2, 67, 100
1, 9216, Note_off_c, 2, 67, 64
1, 9216, Note_off_c, 2, 46, 64
1, 9216, Note_on_c, 2, 62, 100
1, 9216, Note_on_c, 2, 50, 100
1, 9360, Note_off_c, 2, 50, 64
1, 9360, Note_off_c, 2, 62, 64
1, 9360, Note_on_c, 2, 55, 100
1, 9360, Note_on_c, 2, 58, 100
1, 9504, Note_off_c, 2, 58, 64
1, 9504, Note_off_c, 2, 55, 64
1, 9504, Note_on_c, 2, 58, 100
1, 9504, Note_on_c, 2, 79, 100
1, 9648, Note_off_c, 2, 79, 64
1, 9648, Note_off_c, 2, 58, 64
1, 9648, Note_on_c, 2, 62, 100
1, 9648, Note_on_c, 2, 74, 100
1, 9792, Note_off_c, 2, 74, 64
1, 9792, Note_off_c, 2, 62, 64
1, 9792, Note_on_c, 2, 67, 100
1, 9792, Note_on_c, 2, 70, 100
1, 9936, Note_off_c, 2, 70, 64
1, 9936, Note_off_c, 2, 67, 64
1, 9936, Note_on_c, 2, 77, 100
1, 9936, Note_on_c, 2, 57, 100
1, 10080, Note_off_c, 2, 57, 64
1, 10080, Note_off_c, 2, 77, 64
1, 10080, Note_on_c, 2, 60, 100
1, 10080, Note_on_c, 2, 72, 100
1, 10224, Note_off_c, 2, 72, 64
1, 10224, Note_off_c, 2, 60, 64
1, 10224, Note_on_c, 2, 65, 100
1, 10224, Note_on_c, 2, 69, 100
1, 10368, Note_off_c, 2, 69, 64
1, 10368, Note_off_c, 2, 65, 64
1, 10368, Note_on_c, 2, 45, 100
1, 10368, Note_on_c, 2, 65, 100
1, 10512, Note_off_c, 2, 65, 64
1, 10512, Note_off_c, 2, 45, 64
1, 10512, Note_on_c, 2, 48, 100
1, 10512, Note_on_c, 2, 60, 100
1, 10656, Note_off_c, 2, 60, 64
1, 10656, Note_off_c, 2, 48, 64
1, 10656, Note_on_c, 2, 57, 100
1, 10656, Note_on_c, 2, 53, 100
1, 10800, Note_off_c, 2, 53, 64
1, 10800, Note_off_c, 2, 57, 64
1, 10800, Note_on_c, 2, 44, 100
1, 10800, Note_on_c, 2, 65, 100
1, 10944, Note_off_c, 2, 65, 64
1, 10944, Note_off_c, 2, 44, 64
1, 10944, Note_on_c, 2, 48, 100
1, 10944, Note_on_c, 2, 60, 100
1, 11088, Note_off_c, 2, 60, 64
1, 11088, Note_off_c, 2, 48, 64
1, 11088, Note_on_c, 2, 53, 100
1, 11088, Note_on_c, 2, 56, 100
1, 11232, Note_off_c, 2, 56, 64
1, 11232, Note_off_c, 2, 53, 64
1, 11232, Note_on_c, 2, 56, 100
1, 11232, Note_on_c, 2, 77, 100
1, 11376, Note_off_c, 2, 77, 64
1, 11376, Note_off_c, 2, 56, 64
1, 11376, Note_on_c, 2, 72, 100
1, 11376, Note_on_c, 2, 60, 100
1, 11520, Note_off_c, 2, 60, 64
1, 11520, Note_off_c, 2, 72, 64
1, 11520, Note_on_c, 2, 65, 100
1, 11520, Note_on_c, 2, 68, 100
1, 11664, Note_off_c, 2, 68, 64
1, 11664, Note_off_c, 2, 65, 64
1, 11664, Note_on_c, 2, 55, 100
1, 11664, Note_on_c, 2, 75, 100
1, 11808, Note_off_c, 2, 75, 64
1, 11808, Note_off_c, 2, 55, 64
1, 11808, Note_on_c, 2, 60, 100
1, 11808, Note_on_c, 2, 72, 100
1, 11952, Note_off_c, 2, 72, 64
1, 11952, Note_off_c, 2, 60, 64
1, 11952, Note_on_c, 2, 63, 100
1, 11952, Note_on_c, 2, 67, 100
1, 12096, Note_off_c, 2, 67, 64
1, 12096, Note_off_c, 2, 63, 64
1, 12096, Note_on_c, 2, 75, 100
1, 12096, Note_on_c, 2, 62, 100
1, 12096, Note_on_c, 2, 48, 100
1, 12096, Note_on_c, 2, 36, 100
1, 12240, Note_off_c, 2, 36, 64
1, 12240, Note_off_c, 2, 48, 64
1, 12240, Note_off_c, 2, 62, 64
1, 12240, Note_off_c, 2, 75, 64
1, 12240, Note_on_c, 2, 43, 100
1, 12240, Note_on_c, 2, 69, 100
1, 12384, Note_off_c, 2, 69, 64
1, 12384, Note_off_c, 2, 43, 64
1, 12384, Note_on_c, 2, 45, 100
1, 12384, Note_on_c, 2, 67, 100
1, 12528, Note_off_c, 2, 67, 64
1, 12528, Note_off_c, 2, 45, 64
1, 12528, Note_on_c, 2, 38, 100
1, 12528, Note_on_c, 2, 50, 100
1, 12528, Note_on_c, 2, 62, 100
1, 12528, Note_on_c, 2, 74, 100
1, 12672, Note_off_c, 2, 74, 64
1, 12672, Note_off_c, 2, 62, 64
1, 12672, Note_off_c, 2, 50, 64
1, 12672, Note_off_c, 2, 38, 64
1, 12672, Note_on_c, 2, 43, 100
1, 12672, Note_on_c, 2, 70, 100
1, 12816, Note_off_c, 2, 70, 64
1, 12816, Note_off_c, 2, 43, 64
1, 12816, Note_on_c, 2, 67, 100
1, 12816, Note_on_c, 2, 46, 100
1, 12960, Note_off_c, 2, 46, 64
1, 12960, Note_off_c, 2, 67, 64
1, 12960, Note_on_c, 2, 38, 100
1, 12960, Note_on_c, 2, 50, 100
1, 12960, Note_on_c, 2, 62, 100
1, 12960, Note_on_c, 2, 74, 100
1, 13104, Note_off_c, 2, 74, 64
1, 13104, Note_off_c, 2, 62, 64
1, 13104, Note_off_c, 2, 50, 64
1, 13104, Note_off_c, 2, 38, 64
1, 13104, Note_on_c, 2, 42, 100
1, 13104, Note_on_c, 2, 69, 100
1, 13248, Note_off_c, 2, 69, 64
1, 13248, Note_off_c, 2, 42, 64
1, 13248, Note_on_c, 2, 45, 100
1, 13248, Note_on_c, 2, 66, 100
1, 13392, Note_off_c, 2, 66, 64
1, 13392, Note_off_c, 2, 45, 64
1, 13392, Note_on_c, 2, 31, 100
1, 13392, Note_on_c, 2, 43, 100
1, 13392, Note_on_c, 2, 67, 100
1, 13536, Note_off_c, 2, 67, 64
1, 13536, Note_off_c, 2, 43, 64
1, 13536, Note_off_c, 2, 31, 64
1, 13536, Note_on_c, 2, 41, 100
1, 13680, Note_off_c, 2, 41, 64
1, 13680, Note_on_c, 2, 40, 100
1, 13824, Note_off_c, 2, 40, 64
1, 13824, Note_on_c, 2, 37, 100
1, 13824, Note_on_c, 2, 58, 100
1, 13968, Note_off_c, 2, 58, 64
1, 13968, Note_off_c, 2, 37, 64
1, 13968, Note_on_c, 2, 41, 100
1, 13968, Note_on_c, 2, 53, 100
1, 14112, Note_off_c, 2, 53, 64
1, 14112, Note_off_c, 2, 41, 64
1, 14112, Note_on_c, 2, 46, 100
1, 14112, Note_on_c, 2, 49, 100
1, 14256, Note_off_c, 2, 49, 64
1, 14256, Note_off_c, 2, 46, 64
1, 14256, Note_on_c, 2, 58, 100
1, 14256, Note_on_c, 2, 36, 100
1, 14400, Note_off_c, 2, 36, 64
1, 14400, Note_off_c, 2, 58, 64
1, 14400, Note_on_c, 2, 52, 100
1, 14400, Note_on_c, 2, 40, 100
1, 14544, Note_off_c, 2, 40, 64
1, 14544, Note_off_c, 2, 52, 64
1, 14544, Note_on_c, 2, 46, 100
1, 14544, Note_on_c, 2, 48, 100
1, 14688, Note_off_c, 2, 48, 64
1, 14688, Note_off_c, 2, 46, 64
1, 14688, Note_on_c, 2, 40, 100
1, 14688, Note_on_c, 2, 70, 100
1, 14832, Note_off_c, 2, 70, 64
1, 14832, Note_off_c, 2, 40, 64
1, 14832, Note_on_c, 2, 43, 100
1, 14832, Note_on_c, 2, 67, 100
1, 14976, Note_off_c, 2, 67, 64
1, 14976, Note_off_c, 2, 43, 64
1, 14976, Note_on_c, 2, 60, 100
1, 14976, Note_on_c, 2, 48, 100
1, 15120, Note_off_c, 2, 48, 64
1, 15120, Note_off_c, 2, 60, 64
1, 15120, Note_on_c, 2, 41, 100
1, 15120, Note_on_c, 2, 68, 100
1, 15264, Note_off_c, 2, 68, 64
1, 15264, Note_off_c, 2, 41, 64
1, 15264, Note_on_c, 2, 44, 100
1, 15264, Note_on_c, 2, 65, 100
1, 15408, Note_off_c, 2, 65, 64
1, 15408, Note_off_c, 2, 44, 64
1, 15408, Note_on_c, 2, 48, 100
1, 15408, Note_on_c, 2, 60, 100
1, 15552, Note_off_c, 2, 60, 64
1, 15552, Note_off_c, 2, 48, 64
1, 15552, Note_on_c, 2, 36, 100
1, 15552, Note_on_c, 2, 56, 100
1, 15696, Note_off_c, 2, 56, 64
1, 15696, Note_off_c, 2, 36, 64
1, 15696, Note_on_c, 2, 51, 100
1, 15696, Note_on_c, 2, 39, 100
1, 15840, Note_off_c, 2, 39, 64
1, 15840, Note_off_c, 2, 51, 64
1, 15840, Note_on_c, 2, 44, 100
1, 15840, Note_on_c, 2, 48, 100
1, 15984, Note_off_c, 2, 48, 64
1, 15984, Note_off_c, 2, 44, 64
1, 15984, Note_on_c, 2, 35, 100
1, 15984, Note_on_c, 2, 55, 100
1, 16128, Note_off_c, 2, 55, 64
1, 16128, Note_off_c, 2, 35, 64
1, 16128, Note_on_c, 2, 38, 100
1, 16128, Note_on_c, 2, 50, 100
1, 16272, Note_off_c, 2, 50, 64
1, 16272, Note_off_c, 2, 38, 64
1, 16272, Note_on_c, 2, 47, 100
1, 16272, Note_on_c, 2, 43, 100
1, 16416, Note_off_c, 2, 43, 64
1, 16416, Note_off_c, 2, 47, 64
1, 16416, Note_on_c, 2, 47, 100
1, 16416, Note_on_c, 2, 77, 100
1, 16560, Note_off_c, 2, 77, 64
1, 16560, Note_off_c, 2, 47, 64
1, 16560, Note_on_c, 2, 74, 100
1, 16560, Note_on_c, 2, 50, 100
1, 16704, Note_off_c, 2, 50, 64
1, 16704, Note_off_c, 2, 74, 64
1, 16704, Note_on_c, 2, 67, 100
1, 16704, Note_on_c, 2, 55, 100
1, 16848, Note_off_c, 2, 55, 64
1, 16848, Note_off_c, 2, 67, 64
1, 16848, Note_on_c, 2, 75, 100
1, 16848, Note_on_c, 2, 48, 100
1, 16992, Note_off_c, 2, 48, 64
1, 16992, Note_off_c, 2, 75, 64
1, 16992, Note_on_c, 2, 72, 100
1, 16992, Note_on_c, 2, 51, 100
1, 17136, Note_off_c, 2, 51, 64
1, 17136, Note_off_c, 2, 72, 64
1, 17136, Note_on_c, 2, 55, 100
1, 17136, Note_on_c, 2, 67, 100
1, 17280, Note_off_c, 2, 67, 64
1, 17280, Note_off_c, 2, 55, 64
1, 17280, Note_on_c, 2, 36, 100
1, 17280, Note_on_c, 2, 48, 100
1, 17424, Note_off_c, 2, 48, 64
1, 17424, Note_off_c, 2, 36, 64
1, 17424, Note_on_c, 2, 39, 100
1, 17424, Note_on_c, 2, 51, 100
1, 17568, Note_off_c, 2, 51, 64
1, 17568, Note_off_c, 2, 39, 64
1, 17568, Note_on_c, 2, 55, 100
1, 17568, Note_on_c, 2, 43, 100
1, 17712, Note_off_c, 2, 43, 64
1, 17712, Note_off_c, 2, 55, 64
1, 17712, Note_on_c, 2, 48, 100
1, 17712, Note_on_c, 2, 60, 100
1, 17856, Note_off_c, 2, 60, 64
1, 17856, Note_off_c, 2, 48, 64
1, 17856, Note_on_c, 2, 63, 100
1, 17856, Note_on_c, 2, 51, 100
1, 18000, Note_off_c, 2, 51, 64
1, 18000, Note_off_c, 2, 63, 64
1, 18000, Note_on_c, 2, 55, 100
1, 18000, Note_on_c, 2, 67, 100
1, 18144, Note_off_c, 2, 67, 64
1, 18144, Note_off_c, 2, 55, 64
1, 18144, Note_on_c, 2, 60, 100
1, 18144, Note_on_c, 2, 80, 100
1, 18288, Note_off_c, 2, 80, 64
1, 18288, Note_off_c, 2, 60, 64
1, 18288, Note_on_c, 2, 63, 100
1, 18288, Note_on_c, 2, 75, 100
1, 18432, Note_off_c, 2, 75, 64
1, 18432, Note_off_c, 2, 63, 64
1, 18432, Note_on_c, 2, 68, 100
1, 18432, Note_on_c, 2, 72, 100
1, 18576, Note_off_c, 2, 72, 64
1, 18576, Note_off_c, 2, 68, 64
1, 18576, Note_on_c, 2, 80, 100
1, 18576, Note_on_c, 2, 59, 100
1, 18720, Note_off_c, 2, 59, 64
1, 18720, Note_off_c, 2, 80, 64
1, 18720, Note_on_c, 2, 62, 100
1, 18720, Note_on_c, 2, 74, 100
1, 18864, Note_off_c, 2, 74, 64
1, 18864, Note_off_c, 2, 62, 64
1, 18864, Note_on_c, 2, 68, 100
1, 18864, Note_on_c, 2, 71, 100
1, 19008, Note_off_c, 2, 71, 64
1, 19008, Note_off_c, 2, 68, 64
1, 19008, Note_on_c, 2, 47, 100
1, 19008, Note_on_c, 2, 68, 100
1, 19152, Note_off_c, 2, 68, 64
1, 19152, Note_off_c, 2, 47, 64
1, 19152, Note_on_c, 2, 50, 100
1, 19152, Note_on_c, 2, 62, 100
1, 19296, Note_off_c, 2, 62, 64
1, 19296, Note_off_c, 2, 50, 64
1, 19296, Note_on_c, 2, 59, 100
1, 19296, Note_on_c, 2, 56, 100
1, 19440, Note_off_c, 2, 56, 64
1, 19440, Note_off_c, 2, 59, 64
1, 19440, Note_on_c, 2, 46, 100
1, 19440, Note_on_c, 2, 67, 100
1, 19584, Note_off_c, 2, 67, 64
1, 19584, Note_off_c, 2, 46, 64
1, 19584, Note_on_c, 2, 50, 100
1, 19584, Note_on_c, 2, 62, 100
1, 19728, Note_off_c, 2, 62, 64
1, 19728, Note_off_c, 2, 50, 64
1, 19728, Note_on_c, 2, 55, 100
1, 19728, Note_on_c, 2, 58, 100
1, 19872, Note_off_c, 2, 58, 64
1, 19872, Note_off_c, 2, 55, 64
1, 19872, Note_on_c, 2, 79, 100
1, 19872, Note_on_c, 2, 58, 100
1, 20016, Note_off_c, 2, 58, 64
1, 20016, Note_off_c, 2, 79, 64
1, 20016, Note_on_c, 2, 62, 100
1, 20016, Note_on_c, 2, 74, 100
1, 20160, Note_off_c, 2, 74, 64
1, 20160, Note_off_c, 2, 62, 64
1, 20160, Note_on_c, 2, 70, 100
1, 20160, Note_on_c, 2, 67, 100
1, 20304, Note_off_c, 2, 67, 64
1, 20304, Note_off_c, 2, 70, 64
1, 20304, Note_on_c, 2, 57, 100
1, 20304, Note_on_c, 2, 79, 100
1, 20448, Note_off_c, 2, 79, 64
1, 20448, Note_off_c, 2, 57, 64
1, 20448, Note_on_c, 2, 60, 100
1, 20448, Note_on_c, 2, 72, 100
1, 20592, Note_off_c, 2, 72, 64
1, 20592, Note_off_c, 2, 60, 64
1, 20592, Note_on_c, 2, 67, 100
1, 20592, Note_on_c, 2, 69, 100
1, 20736, Note_off_c, 2, 69, 64
1, 20736, Note_off_c, 2, 67, 64
1, 20736, Note_on_c, 2, 67, 100
1, 20736, Note_on_c, 2, 45, 100
1, 20880, Note_off_c, 2, 45, 64
1, 20880, Note_off_c, 2, 67, 64
1, 20880, Note_on_c, 2, 48, 100
1, 20880, Note_on_c, 2, 60, 100
1, 21024, Note_off_c, 2, 60, 64
1, 21024, Note_off_c, 2, 48, 64
1, 21024, Note_on_c, 2, 55, 100
1, 21024, Note_on_c, 2, 57, 100
1, 21168, Note_off_c, 2, 57, 64
1, 21168, Note_off_c, 2, 55, 64
1, 21168, Note_on_c, 2, 65, 100
1, 21168, Note_on_c, 2, 44, 100
1, 21312, Note_off_c, 2, 44, 64
1, 21312, Note_off_c, 2, 65, 64
1, 21312, Note_on_c, 2, 60, 100
1, 21312, Note_on_c, 2, 48, 100
1, 21456, Note_off_c, 2, 48, 64
1, 21456, Note_off_c, 2, 60, 64
1, 21456, Note_on_c, 2, 53, 100
1, 21456, Note_on_c, 2, 56, 100
1, 21600, Note_off_c, 2, 56, 64
1, 21600, Note_off_c, 2, 53, 64
1, 21600, Note_on_c, 2, 77, 100
1, 21600, Note_on_c, 2, 56, 100
1, 21744, Note_off_c, 2, 56, 64
1, 21744, Note_off_c, 2, 77, 64
1, 21744, Note_on_c, 2, 72, 100
1, 21744, Note_on_c, 2, 60, 100
1, 21888, Note_off_c, 2, 60, 64
1, 21888, Note_off_c, 2, 72, 64
1, 21888, Note_on_c, 2, 68, 100
1, 21888, Note_on_c, 2, 65, 100
1, 22032, Note_off_c, 2, 65, 64
1, 22032, Note_off_c, 2, 68, 64
1, 22032, Note_on_c, 2, 55, 100
1, 22032, Note_on_c, 2, 75, 100
1, 22176, Note_off_c, 2, 75, 64
1, 22176, Note_off_c, 2, 55, 64
1, 22176, Note_on_c, 2, 72, 100
1, 22176, Note_on_c, 2, 60, 100
1, 22320, Note_off_c, 2, 60, 64
1, 22320, Note_off_c, 2, 72, 64
1, 22320, Note_on_c, 2, 63, 100
1, 22320, Note_on_c, 2, 67, 100
1, 22464, Note_off_c, 2, 67, 64
1, 22464, Note_off_c, 2, 63, 64
1, 22464, Note_on_c, 2, 42, 100
1, 22464, Note_on_c, 2, 54, 100
1, 22464, Note_on_c, 2, 60, 100
1, 22464, Note_on_c, 2, 72, 100
1, 22608, Note_off_c, 2, 72, 64
1, 22608, Note_off_c, 2, 60, 64
1, 22608, Note_off_c, 2, 54, 64
1, 22608, Note_off_c, 2, 42, 64
1, 22608, Note_on_c, 2, 48, 100
1, 22608, Note_on_c, 2, 69, 100
1, 22752, Note_off_c, 2, 69, 64
1, 22752, Note_off_c, 2, 48, 64
1, 22752, Note_on_c, 2, 51, 100
1, 22752, Note_on_c, 2, 63, 100
1, 22896, Note_off_c, 2, 63, 64
1, 22896, Note_off_c, 2, 51, 64
1, 22896, Note_on_c, 2, 72, 100
1, 22896, Note_on_c, 2, 60, 100
1, 22896, Note_on_c, 2, 43, 100
1, 22896, Note_on_c, 2, 55, 100
1, 23040, Note_off_c, 2, 55, 64
1, 23040, Note_off_c, 2, 43, 64
1, 23040, Note_off_c, 2, 60, 64
1, 23040, Note_off_c, 2, 72, 64
1, 23040, Note_on_c, 2, 48, 100
1, 23040, Note_on_c, 2, 67, 100
1, 23184, Note_off_c, 2, 67, 64
1, 23184, Note_off_c, 2, 48, 64
1, 23184, Note_on_c, 2, 51, 100
1, 23184, Note_on_c, 2, 63, 100
1, 23328, Note_off_c, 2, 63, 64
1, 23328, Note_off_c, 2, 51, 64
1, 23328, Note_on_c, 2, 43, 100
1, 23328, Note_on_c, 2, 55, 100
1, 23328, Note_on_c, 2, 59, 100
1, 23328, Note_on_c, 2, 71, 100
1, 23472, Note_off_c, 2, 71, 64
1, 23472, Note_off_c, 2, 59, 64
1, 23472, Note_off_c, 2, 55, 64
1, 23472, Note_off_c, 2, 43, 64
1, 23472, Note_on_c, 2, 47, 100
1, 23472, Note_on_c, 2, 67, 100
1, 23616, Note_off_c, 2, 67, 64
1, 23616, Note_off_c, 2, 47, 64
1, 23616, Note_on_c, 2, 62, 100
1, 23616, Note_on_c, 2, 50, 100
1, 23760, Note_off_c, 2, 50, 64
1, 23760, Note_off_c, 2, 62, 64
1, 23760, Note_on_c, 2, 36, 100
1, 23760, Note_on_c, 2, 48, 100
1, 23760, Note_on_c, 2, 72, 100
1, 23760, Note_on_c, 2, 60, 100
1, 23760, Note_on_c, 2, 63, 100
1, 23904, Note_off_c, 2, 63, 64
1, 23904, Note_off_c, 2, 60, 64
1, 23904, Note_off_c, 2, 72, 64
1, 23904, Note_off_c, 2, 48, 64
1, 23904, Note_off_c, 2, 36, 64
1, 23904, Note_on_c, 2, 35, 100
1, 24048, Note_off_c, 2, 35, 64
1, 24048, Note_on_c, 2, 36, 100
1, 24192, Note_off_c, 2, 36, 64
1, 24192, Note_on_c, 2, 37, 100
1, 24192, Note_on_c, 2, 58, 100
1, 24336, Note_off_c, 2, 58, 64
1, 24336, Note_off_c, 2, 37, 64
1, 24336, Note_on_c, 2, 41, 100
1, 24336, Note_on_c, 2, 53, 100
1, 24480, Note_off_c, 2, 53, 64
1, 24480, Note_off_c, 2, 41, 64
1, 24480, Note_on_c, 2, 46, 100
1, 24480, Note_on_c, 2, 49, 100
1, 24624, Note_off_c, 2, 49, 64
1, 24624, Note_off_c, 2, 46, 64
1, 24624, Note_on_c, 2, 36, 100
1, 24624, Note_on_c, 2, 58, 100
1, 24768, Note_off_c, 2, 58, 64
1, 24768, Note_off_c, 2, 36, 64
1, 24768, Note_on_c, 2, 52, 100
1, 24768, Note_on_c, 2, 40, 100
1, 24912, Note_off_c, 2, 40, 64
1, 24912, Note_off_c, 2, 52, 64
1, 24912, Note_on_c, 2, 46, 100
1, 24912, Note_on_c, 2, 48, 100
1, 25056, Note_off_c, 2, 48, 64
1, 25056, Note_off_c, 2, 46, 64
1, 25056, Note_on_c, 2, 70, 100
1, 25056, Note_on_c, 2, 40, 100
1, 25200, Note_off_c, 2, 40, 64
1, 25200, Note_off_c, 2, 70, 64
1, 25200, Note_on_c, 2, 43, 100
1, 25200, Note_on_c, 2, 67, 100
1, 25344, Note_off_c, 2, 67, 64
1, 25344, Note_off_c, 2, 43, 64
1, 25344, Note_on_c, 2, 48, 100
1, 25344, Note_on_c, 2, 60, 100
1, 25488, Note_off_c, 2, 60, 64
1, 25488, Note_off_c, 2, 48, 64
1, 25488, Note_on_c, 2, 41, 100
1, 25488, Note_on_c, 2, 68, 100
1, 25632, Note_off_c, 2, 68, 64
1, 25632, Note_off_c, 2, 41, 64
1, 25632, Note_on_c, 2, 44, 100
1, 25632, Note_on_c, 2, 65, 100
1, 25776, Note_off_c, 2, 65, 64
1, 25776, Note_off_c, 2, 44, 64
1, 25776, Note_on_c, 2, 60, 100
1, 25776, Note_on_c, 2, 48, 100
1, 25920, Note_off_c, 2, 48, 64
1, 25920, Note_off_c, 2, 60, 64
1, 25920, Note_on_c, 2, 36, 100
1, 25920, Note_on_c, 2, 56, 100
1, 26064, Note_off_c, 2, 56, 64
1, 26064, Note_off_c, 2, 36, 64
1, 26064, Note_on_c, 2, 39, 100
1, 26064, Note_on_c, 2, 51, 100
1, 26208, Note_off_c, 2, 51, 64
1, 26208, Note_off_c, 2, 39, 64
1, 26208, Note_on_c, 2, 44, 100
1, 26208, Note_on_c, 2, 48, 100
1, 26352, Note_off_c, 2, 48, 64
1, 26352, Note_off_c, 2, 44, 64
1, 26352, Note_on_c, 2, 35, 100
1, 26352, Note_on_c, 2, 55, 100
1, 26496, Note_off_c, 2, 55, 64
1, 26496, Note_off_c, 2, 35, 64
1, 26496, Note_on_c, 2, 50, 100
1, 26496, Note_on_c, 2, 38, 100
1, 26640, Note_off_c, 2, 38, 64
1, 26640, Note_off_c, 2, 50, 64
1, 26640, Note_on_c, 2, 47, 100
1, 26640, Note_on_c, 2, 43, 100
1, 26784, Note_off_c, 2, 43, 64
1, 26784, Note_off_c, 2, 47, 64
1, 26784, Note_on_c, 2, 77, 100
1, 26784, Note_on_c, 2, 47, 100
1, 26928, Note_off_c, 2, 47, 64
1, 26928, Note_off_c, 2, 77, 64
1, 26928, Note_on_c, 2, 74, 100
1, 26928, Note_on_c, 2, 50, 100
1, 27072, Note_off_c, 2, 50, 64
1, 27072, Note_off_c, 2, 74, 64
1, 27072, Note_on_c, 2, 67, 100
1, 27072, Note_on_c, 2, 55, 100
1, 27216, Note_off_c, 2, 55, 64
1, 27216, Note_off_c, 2, 67, 64
1, 27216, Note_on_c, 2, 48, 100
1, 27216, Note_on_c, 2, 75, 100
1, 27360, Note_off_c, 2, 75, 64
1, 27360, Note_off_c, 2, 48, 64
1, 27360, Note_on_c, 2, 72, 100
1, 27360, Note_on_c, 2, 51, 100
1, 27504, Note_off_c, 2, 51, 64
1, 27504, Note_off_c, 2, 72, 64
1, 27504, Note_on_c, 2, 67, 100
1, 27504, Note_on_c, 2, 55, 100
1, 27648, Note_off_c, 2, 55, 64
1, 27648, Note_off_c, 2, 67, 64
1, 27648, Note_on_c, 2, 36, 100
1, 27648, Note_on_c, 2, 48, 100
1, 27792, Note_off_c, 2, 48, 64
1, 27792, Note_off_c, 2, 36, 64
1, 27792, Note_on_c, 2, 39, 100
1, 27792, Note_on_c, 2, 51, 100
1, 27936, Note_off_c, 2, 51, 64
1, 27936, Note_off_c, 2, 39, 64
1, 27936, Note_on_c, 2, 43, 100
1, 27936, Note_on_c, 2, 55, 100
1, 28080, Note_off_c, 2, 55, 64
1, 28080, Note_off_c, 2, 43, 64
1, 28080, Note_on_c, 2, 48, 100
1, 28080, Note_on_c, 2, 60, 100
1, 28224, Note_off_c, 2, 60, 64
1, 28224, Note_off_c, 2, 48, 64
1, 28224, Note_on_c, 2, 51, 100
1, 28224, Note_on_c, 2, 63, 100
1, 28368, Note_off_c, 2, 63, 64
1, 28368, Note_off_c, 2, 51, 64
1, 28368, Note_on_c, 2, 55, 100
1, 28368, Note_on_c, 2, 67, 100
1, 28512, Note_off_c, 2, 67, 64
1, 28512, Note_off_c, 2, 55, 64
1, 28512, Note_on_c, 2, 60, 100
1, 28512, Note_on_c, 2, 80, 100
1, 28656, Note_off_c, 2, 80, 64
1, 28656, Note_off_c, 2, 60, 64
1, 28656, Note_on_c, 2, 75, 100
1, 28656, Note_on_c, 2, 63, 100
1, 28800, Note_off_c, 2, 63, 64
1, 28800, Note_off_c, 2, 75, 64
1, 28800, Note_on_c, 2, 68, 100
1, 28800, Note_on_c, 2, 72, 100
1, 28944, Note_off_c, 2, 72, 64
1, 28944, Note_off_c, 2, 68, 64
1, 28944, Note_on_c, 2, 59, 100
1, 28944, Note_on_c, 2, 80, 100
1, 29088, Note_off_c, 2, 80, 64
1, 29088, Note_off_c, 2, 59, 64
1, 29088, Note_on_c, 2, 62, 100
1, 29088, Note_on_c, 2, 74, 100
1, 29232, Note_off_c, 2, 74, 64
1, 29232, Note_off_c, 2, 62, 64
1, 29232, Note_on_c, 2, 68, 100
1, 29232, Note_on_c, 2, 71, 100
1, 29376, Note_off_c, 2, 71, 64
1, 29376, Note_off_c, 2, 68, 64
1, 29376, Note_on_c, 2, 68, 100
1, 29376, Note_on_c, 2, 47, 100
1, 29520, Note_off_c, 2, 47, 64
1, 29520, Note_off_c, 2, 68, 64
1, 29520, Note_on_c, 2, 50, 100
1, 29520, Note_on_c, 2, 62, 100
1, 29664, Note_off_c, 2, 62, 64
1, 29664, Note_off_c, 2, 50, 64
1, 29664, Note_on_c, 2, 56, 100
1, 29664, Note_on_c, 2, 59, 100
1, 29808, Note_off_c, 2, 59, 64
1, 29808, Note_off_c, 2, 56, 64
1, 29808, Note_on_c, 2, 46, 100
1, 29808, Note_on_c, 2, 67, 100
1, 29952, Note_off_c, 2, 67, 64
1, 29952, Note_off_c, 2, 46, 64
1, 29952, Note_on_c, 2, 50, 100
1, 29952, Note_on_c, 2, 62, 100
1, 30096, Note_off_c, 2, 62, 64
1, 30096, Note_off_c, 2, 50, 64
1, 30096, Note_on_c, 2, 58, 100
1, 30096, Note_on_c, 2, 55, 100
1, 30240, Note_off_c, 2, 55, 64
1, 30240, Note_off_c, 2, 58, 64
1, 30240, Note_on_c, 2, 79, 100
1, 30240, Note_on_c, 2, 58, 100
1, 30384, Note_off_c, 2, 58, 64
1, 30384, Note_off_c, 2, 79, 64
1, 30384, Note_on_c, 2, 74, 100
1, 30384, Note_on_c, 2, 62, 100
1, 30528, Note_off_c, 2, 62, 64
1, 30528, Note_off_c, 2, 74, 64
1, 30528, Note_on_c, 2, 70, 100
1, 30528, Note_on_c, 2, 67, 100
1, 30672, Note_off_c, 2, 67, 64
1, 30672, Note_off_c, 2, 70, 64
1, 30672, Note_on_c, 2, 57, 100
1, 30672, Note_on_c, 2, 79, 100
1, 30816, Note_off_c, 2, 79, 64
1, 30816, Note_off_c, 2, 57, 64
1, 30816, Note_on_c, 2, 72, 100
1, 30816, Note_on_c, 2, 60, 100
1, 30960, Note_off_c, 2, 60, 64
1, 30960, Note_off_c, 2, 72, 64
1, 30960, Note_on_c, 2, 67, 100
1, 30960, Note_on_c, 2, 69, 100
1, 31104, Note_off_c, 2, 69, 64
1, 31104, Note_off_c, 2, 67, 64
1, 31104, Note_on_c, 2, 45, 100
1, 31104, Note_on_c, 2, 67, 100
1, 31248, Note_off_c, 2, 67, 64
1, 31248, Note_off_c, 2, 45, 64
1, 31248, Note_on_c, 2, 48, 100
1, 31248, Note_on_c, 2, 60, 100
1, 31392, Note_off_c, 2, 60, 64
1, 31392, Note_off_c, 2, 48, 64
1, 31392, Note_on_c, 2, 55, 100
1, 31392, Note_on_c, 2, 57, 100
1, 31536, Note_off_c, 2, 57, 64
1, 31536, Note_off_c, 2, 55, 64
1, 31536, Note_on_c, 2, 44, 100
1, 31536, Note_on_c, 2, 65, 100
1, 31680, Note_off_c, 2, 65, 64
1, 31680, Note_off_c, 2, 44, 64
1, 31680, Note_on_c, 2, 60, 100
1, 31680, Note_on_c, 2, 48, 100
1, 31824, Note_off_c, 2, 48, 64
1, 31824, Note_off_c, 2, 60, 64
1, 31824, Note_on_c, 2, 56, 100
1, 31824, Note_on_c, 2, 53, 100
1, 31968, Note_off_c, 2, 53, 64
1, 31968, Note_off_c, 2, 56, 64
1, 31968, Note_on_c, 2, 77, 100
1, 31968, Note_on_c, 2, 56, 100
1, 32112, Note_off_c, 2, 56, 64
1, 32112, Note_off_c, 2, 77, 64
1, 32112, Note_on_c, 2, 72, 100
1, 32112, Note_on_c, 2, 60, 100
1, 32256, Note_off_c, 2, 60, 64
1, 32256, Note_off_c, 2, 72, 64
1, 32256, Note_on_c, 2, 65, 100
1, 32256, Note_on_c, 2, 68, 100
1, 32400, Note_off_c, 2, 68, 64
1, 32400, Note_off_c, 2, 65, 64
1, 32400, Note_on_c, 2, 55, 100
1, 32400, Note_on_c, 2, 75, 100
1, 32544, Note_off_c, 2, 75, 64
1, 32544, Note_off_c, 2, 55, 64
1, 32544, Note_on_c, 2, 60, 100
1, 32544, Note_on_c, 2, 72, 100
1, 32688, Note_off_c, 2, 72, 64
1, 32688, Note_off_c, 2, 60, 64
1, 32688, Note_on_c, 2, 63, 100
1, 32688, Note_on_c, 2, 67, 100
1, 32832, Note_off_c, 2, 67, 64
1, 32832, Note_off_c, 2, 63, 64
1, 32832, Note_on_c, 2, 42, 100
1, 32832, Note_on_c, 2, 54, 100
1, 32832, Note_on_c, 2, 60, 100
1, 32832, Note_on_c, 2, 72, 100
1, 32976, Note_off_c, 2, 72, 64
1, 32976, Note_off_c, 2, 60, 64
1, 32976, Note_off_c, 2, 54, 64
1, 32976, Note_off_c, 2, 42, 64
1, 32976, Note_on_c, 2, 69, 100
1, 32976, Note_on_c, 2, 48, 100
1, 33120, Note_off_c, 2, 48, 64
1, 33120, Note_off_c, 2, 69, 64
1, 33120, Note_on_c, 2, 51, 100
1, 33120, Note_on_c, 2, 63, 100
1, 33264, Note_off_c, 2, 63, 64
1, 33264, Note_off_c, 2, 51, 64
1, 33264, Note_on_c, 2, 55, 100
1, 33264, Note_on_c, 2, 43, 100
1, 33264, Note_on_c, 2, 60, 100
1, 33264, Note_on_c, 2, 72, 100
1, 33408, Note_off_c, 2, 72, 64
1, 33408, Note_off_c, 2, 60, 64
1, 33408, Note_off_c, 2, 43, 64
1, 33408, Note_off_c, 2, 55, 64
1, 33408, Note_on_c, 2, 48, 100
1, 33408, Note_on_c, 2, 67, 100
1, 33552, Note_off_c, 2, 67, 64
1, 33552, Note_off_c, 2, 48, 64
1, 33552, Note_on_c, 2, 51, 100
1, 33552, Note_on_c, 2, 63, 100
1, 33696, Note_off_c, 2, 63, 64
1, 33696, Note_off_c, 2, 51, 64
1, 33696, Note_on_c, 2, 71, 100
1, 33696, Note_on_c, 2, 59, 100
1, 33696, Note_on_c, 2, 55, 100
1, 33696, Note_on_c, 2, 43, 100
1, 33840, Note_off_c, 2, 43, 64
1, 33840, Note_off_c, 2, 55, 64
1, 33840, Note_off_c, 2, 59, 64
1, 33840, Note_off_c, 2, 71, 64
1, 33840, Note_on_c, 2, 47, 100
1, 33840, Note_on_c, 2, 67, 100
1, 33984, Note_off_c, 2, 67, 64
1, 33984, Note_off_c, 2, 47, 64
1, 33984, Note_on_c, 2, 50, 100
1, 33984, Note_on_c, 2, 62, 100
1, 34128, Note_off_c, 2, 62, 64
1, 34128, Note_off_c, 2, 50, 64
1, 34128, Note_on_c, 2, 36, 100
1, 34128, Note_on_c, 2, 48, 100
1, 34128, Note_on_c, 2, 72, 100
1, 34128, Note_on_c, 2, 60, 100
1, 34272, Note_off_c, 2, 60, 64
1, 34272, Note_off_c, 2, 72, 64
1, 34272, Note_off_c, 2, 48, 64
1, 34272, Note_off_c, 2, 36, 64
1, 34272, Note_on_c, 2, 67, 100
1, 34272, Note_on_c, 2, 39, 100
1, 34416, Note_off_c, 2, 39, 64
1, 34416, Note_off_c, 2, 67, 64
1, 34416, Note_on_c, 2, 43, 100
1, 34416, Note_on_c, 2, 63, 100
1, 34560, Note_off_c, 2, 63, 64
1, 34560, Note_off_c, 2, 43, 64
1, 34560, Note_on_c, 2, 48, 100
1, 34560, Note_on_c, 2, 60, 100
1, 34704, Note_off_c, 2, 60, 64
1, 34704, Note_off_c, 2, 48, 64
1, 34848, Note_on_c, 2, 51, 100
1, 34848, Note_on_c, 2, 48, 100
1, 34848, Note_on_c, 2, 44, 100
1, 34992, Note_off_c, 2, 44, 64
1, 34992, Note_off_c, 2, 48, 64
1, 34992, Note_off_c, 2, 51, 64
1, 35020, Note_on_c, 2, 44, 100
1, 35020, Note_on_c, 2, 48, 100
1, 35020, Note_on_c, 2, 51, 100
1, 35164, Note_off_c, 2, 51, 64
1, 35164, Note_off_c, 2, 48, 64
1, 35164, Note_off_c, 2, 44, 64
1, 35308, Note_on_c, 2, 44, 100
1, 35308, Note_on_c, 2, 48, 100
1, 35308, Note_on_c, 2, 51, 100
1, 35452, Note_off_c, 2, 51, 64
1, 35452, Note_off_c, 2, 48, 64
1, 35452, Note_off_c, 2, 44, 64
1, 35452, Note_on_c, 2, 44, 100
1, 35452, Note_on_c, 2, 48, 100
1, 35452, Note_on_c, 2, 51, 100
1, 35596, Note_off_c, 2, 51, 64
1, 35596, Note_off_c, 2, 48, 64
1, 35596, Note_off_c, 2, 44, 64
1, 35740, Note_on_c, 2, 44, 100
1, 35740, Note_on_c, 2, 48, 100
1, 35740, Note_on_c, 2, 51, 100
1, 35884, Note_off_c, 2, 51, 64
1, 35884, Note_off_c, 2, 48, 64
1, 35884, Note_off_c, 2, 44, 64
1, 35884, Note_on_c, 2, 44, 100
1, 35884, Note_on_c, 2, 48, 100
1, 35884, Note_on_c, 2, 51, 100
1, 36028, Note_off_c, 2, 51, 64
1, 36028, Note_off_c, 2, 48, 64
1, 36028, Note_off_c, 2, 44, 64
1, 36028, Note_on_c, 2, 56, 100
1, 36172, Note_off_c, 2, 56, 64
1, 36172, Note_on_c, 2, 44, 100
1, 36172, Note_on_c, 2, 48, 100
1, 36172, Note_on_c, 2, 51, 100
1, 36316, Note_off_c, 2, 51, 64
1, 36316, Note_off_c, 2, 48, 64
1, 36316, Note_off_c, 2, 44, 64
1, 36316, Note_on_c, 2, 51, 100
1, 36316, Note_on_c, 2, 48, 100
1, 36316, Note_on_c, 2, 44, 100
1, 36460, Note_off_c, 2, 44, 64
1, 36460, Note_off_c, 2, 48, 64
1, 36460, Note_off_c, 2, 51, 64
1, 36460, Note_on_c, 2, 60, 100
1, 36604, Note_off_c, 2, 60, 64
1, 36604, Note_on_c, 2, 51, 100
1, 36604, Note_on_c, 2, 48, 100
1, 36604, Note_on_c, 2, 44, 100
1, 36748, Note_off_c, 2, 44, 64
1, 36748, Note_off_c, 2, 48, 64
1, 36748, Note_off_c, 2, 51, 64
1, 36748, Note_on_c, 2, 51, 100
1, 36748, Note_on_c, 2, 48, 100
1, 36748, Note_on_c, 2, 44, 100
1, 36892, Note_off_c, 2, 44, 64
1, 36892, Note_off_c, 2, 48, 64
1, 36892, Note_off_c, 2, 51, 64
1, 36892, Note_on_c, 2, 63, 100
1, 37036, Note_off_c, 2, 63, 64
1, 37036, Note_on_c, 2, 44, 100
1, 37036, Note_on_c, 2, 48, 100
1, 37036, Note_on_c, 2, 51, 100
1, 37180, Note_off_c, 2, 51, 64
1, 37180, Note_off_c, 2, 48, 64
1, 37180, Note_off_c, 2, 44, 64
1, 37180, Note_on_c, 2, 51, 100
1, 37180, Note_on_c, 2, 48, 100
1, 37180, Note_on_c, 2, 44, 100
1, 37324, Note_off_c, 2, 44, 64
1, 37324, Note_off_c, 2, 48, 64
1, 37324, Note_off_c, 2, 51, 64
1, 37324, Note_on_c, 2, 68, 100
1, 37468, Note_off_c, 2, 68, 64
1, 37468, Note_on_c, 2, 44, 100
1, 37468, Note_on_c, 2, 48, 100
1, 37468, Note_on_c, 2, 51, 100
1, 37612, Note_off_c, 2, 51, 64
1, 37612, Note_off_c, 2, 48, 64
1, 37612, Note_off_c, 2, 44, 64
1, 37612, Note_on_c, 2, 51, 100
1, 37612, Note_on_c, 2, 48, 100
1, 37612, Note_on_c, 2, 44, 100
1, 37756, Note_off_c, 2, 44, 64
1, 37756, Note_off_c, 2, 48, 64
1, 37756, Note_off_c, 2, 51, 64
1, 37756, Note_on_c, 2, 72, 100
1, 37900, Note_off_c, 2, 72, 64
1, 37900, Note_on_c, 2, 44, 100
1, 37900, Note_on_c, 2, 48, 100
1, 37900, Note_on_c, 2, 51, 100
1, 38044, Note_off_c, 2, 51, 64
1, 38044, Note_off_c, 2, 48, 64
1, 38044, Note_off_c, 2, 44, 64
1, 38044, Note_on_c, 2, 44, 100
1, 38044, Note_on_c, 2, 48, 100
1, 38044, Note_on_c, 2, 51, 100
1, 38188, Note_off_c, 2, 51, 64
1, 38188, Note_off_c, 2, 48, 64
1, 38188, Note_off_c, 2, 44, 64
1, 38188, Note_on_c, 2, 75, 100
1, 38332, Note_off_c, 2, 75, 64
1, 38332, Note_on_c, 2, 44, 100
1, 38332, Note_on_c, 2, 48, 100
1, 38332, Note_on_c, 2, 51, 100
1, 38476, Note_off_c, 2, 51, 64
1, 38476, Note_off_c, 2, 48, 64
1, 38476, Note_off_c, 2, 44, 64
1, 38476, Note_on_c, 2, 78, 100
1, 38476, Note_on_c, 2, 54, 100
1, 38476, Note_on_c, 2, 51, 100
1, 38476, Note_on_c, 2, 48, 100
1, 38476, Note_on_c, 2, 45, 100
1, 38548, Note_off_c, 2, 78, 64
1, 38548, Note_on_c, 2, 79, 100
1, 38620, Note_off_c, 2, 79, 64
1, 38620, Note_off_c, 2, 45, 64
1, 38620, Note_off_c, 2, 48, 64
1, 38620, Note_off_c, 2, 51, 64
1, 38620, Note_off_c, 2, 54, 64
1, 38620, Note_on_c, 2, 78, 100
1, 38692, Note_off_c, 2, 78, 64
1, 38692, Note_on_c, 2, 79, 100
1, 38764, Note_off_c, 2, 79, 64
1, 38764, Note_on_c, 2, 54, 100
1, 38764, Note_on_c, 2, 51, 100
1, 38764, Note_on_c, 2, 48, 100
1, 38764, Note_on_c, 2, 45, 100
1, 38764, Note_on_c, 2, 78, 100
1, 38836, Note_off_c, 2, 78, 64
1, 38836, Note_on_c, 2, 79, 100
1, 38908, Note_off_c, 2, 79, 64
1, 38908, Note_off_c, 2, 45, 64
1, 38908, Note_off_c, 2, 48, 64
1, 38908, Note_off_c, 2, 51, 64
1, 38908, Note_off_c, 2, 54, 64
1, 38908, Note_on_c, 2, 78, 100
1, 38908, Note_on_c, 2, 54, 100
1, 38908, Note_on_c, 2, 51, 100
1, 38908, Note_on_c, 2, 48, 100
1, 38908, Note_on_c, 2, 45, 100
1, 38980, Note_off_c, 2, 78, 64
1, 38980, Note_on_c, 2, 79, 100
1, 39052, Note_off_c, 2, 79, 64
1, 39052, Note_off_c, 2, 45, 64
1, 39052, Note_off_c, 2, 48, 64
1, 39052, Note_off_c, 2, 51, 64
1, 39052, Note_off_c, 2, 54, 64
1, 39052, Note_on_c, 2, 78, 100
1, 39124, Note_off_c, 2, 78, 64
1, 39124, Note_on_c, 2, 79, 100
1, 39196, Note_off_c, 2, 79, 64
1, 39196, Note_on_c, 2, 78, 100
1, 39196, Note_on_c, 2, 45, 100
1, 39196, Note_on_c, 2, 48, 100
1, 39196, Note_on_c, 2, 51, 100
1, 39196, Note_on_c, 2, 54, 100
1, 39268, Note_off_c, 2, 78, 64
1, 39268, Note_on_c, 2, 79, 100
1, 39340, Note_off_c, 2, 79, 64
1, 39340, Note_off_c, 2, 54, 64
1, 39340, Note_off_c, 2, 51, 64
1, 39340, Note_off_c, 2, 48, 64
1, 39340, Note_off_c, 2, 45, 64
1, 39340, Note_on_c, 2, 79, 100
1, 39340, Note_on_c, 2, 55, 100
1, 39340, Note_on_c, 2, 51, 100
1, 39340, Note_on_c, 2, 46, 100
1, 39484, Note_off_c, 2, 46, 64
1, 39484, Note_off_c, 2, 51, 64
1, 39484, Note_off_c, 2, 55, 64
1, 39484, Note_off_c, 2, 79, 64
1, 39484, Note_on_c, 2, 75, 100
1, 39628, Note_off_c, 2, 75, 64
1, 39628, Note_on_c, 2, 70, 100
1, 39628, Note_on_c, 2, 55, 100
1, 39628, Note_on_c, 2, 51, 100
1, 39628, Note_on_c, 2, 46, 100
1, 39772, Note_off_c, 2, 46, 64
1, 39772, Note_off_c, 2, 51, 64
1, 39772, Note_off_c, 2, 55, 64
1, 39772, Note_off_c, 2, 70, 64
1, 39772, Note_on_c, 2, 70, 100
1, 39772, Note_on_c, 2, 56, 100
1, 39772, Note_on_c, 2, 50, 100
1, 39772, Note_on_c, 2, 46, 100
1, 39916, Note_off_c, 2, 46, 64
1, 39916, Note_off_c, 2, 50, 64
1, 39916, Note_off_c, 2, 56, 64
1, 39916, Note_off_c, 2, 70, 64
1, 39916, Note_on_c, 2, 68, 100
1, 40060, Note_off_c, 2, 68, 64
1, 40060, Note_on_c, 2, 65, 100
1, 40060, Note_on_c, 2, 56, 100
1, 40060, Note_on_c, 2, 50, 100
1, 40060, Note_on_c, 2, 46, 100
1, 40204, Note_off_c, 2, 46, 64
1, 40204, Note_off_c, 2, 50, 64
1, 40204, Note_off_c, 2, 56, 64
1, 40204, Note_off_c, 2, 65, 64
1, 40204, Note_on_c, 2, 55, 100
1, 40204, Note_on_c, 2, 51, 100
1, 40204, Note_on_c, 2, 39, 100
1, 40204, Note_on_c, 2, 63, 100
1, 40348, Note_off_c, 2, 63, 64
1, 40348, Note_off_c, 2, 39, 64
1, 40348, Note_off_c, 2, 51, 64
1, 40348, Note_off_c, 2, 55, 64
1, 40348, Note_on_c, 2, 58, 100
1, 40492, Note_off_c, 2, 58, 64
1, 40492, Note_on_c, 2, 55, 100
1, 40636, Note_off_c, 2, 55, 64
1, 40636, Note_on_c, 2, 51, 100
1, 40780, Note_off_c, 2, 51, 64
1, 40780, Note_on_c, 2, 49, 100
1, 40924, Note_off_c, 2, 49, 64
1, 40924, Note_on_c, 2, 51, 100
1, 40924, Note_on_c, 2, 46, 100
1, 41044, Note_on_c, 2, 44, 100
1, 41044, Note_on_c, 2, 48, 100
1, 41044, Note_on_c, 2, 51, 100
1, 41068, Note_off_c, 2, 51, 64
1, 41068, Note_off_c, 2, 46, 64
1, 41188, Note_off_c, 2, 48, 64
1, 41188, Note_off_c, 2, 44, 64
1, 41188, Note_off_c, 2, 51, 64
1, 41332, Note_on_c, 2, 44, 100
1, 41332, Note_on_c, 2, 48, 100
1, 41332, Note_on_c, 2, 51, 100
1, 41476, Note_off_c, 2, 51, 64
1, 41476, Note_off_c, 2, 48, 64
1, 41476, Note_off_c, 2, 44, 64
1, 41476, Note_on_c, 2, 44, 100
1, 41476, Note_on_c, 2, 48, 100
1, 41476, Note_on_c, 2, 51, 100
1, 41620, Note_off_c, 2, 51, 64
1, 41620, Note_off_c, 2, 48, 64
1, 41620, Note_off_c, 2, 44, 64
1, 41764, Note_on_c, 2, 44, 100
1, 41764, Note_on_c, 2, 48, 100
1, 41764, Note_on_c, 2, 51, 100
1, 41908, Note_off_c, 2, 51, 64
1, 41908, Note_off_c, 2, 48, 64
1, 41908, Note_off_c, 2, 44, 64
1, 41908, Note_on_c, 2, 51, 100
1, 41908, Note_on_c, 2, 48, 100
1, 41908, Note_on_c, 2, 44, 100
1, 42052, Note_off_c, 2, 44, 64
1, 42052, Note_off_c, 2, 48, 64
1, 42052, Note_off_c, 2, 51, 64
1, 42052, Note_on_c, 2, 56, 100
1, 42196, Note_off_c, 2, 56, 64
1, 42196, Note_on_c, 2, 44, 100
1, 42196, Note_on_c, 2, 48, 100
1, 42196, Note_on_c, 2, 51, 100
1, 42340, Note_off_c, 2, 51, 64
1, 42340, Note_off_c, 2, 48, 64
1, 42340, Note_off_c, 2, 44, 64
1, 42340, Note_on_c, 2, 44, 100
1, 42340, Note_on_c, 2, 48, 100
1, 42340, Note_on_c, 2, 51, 100
1, 42484, Note_off_c, 2, 51, 64
1, 42484, Note_off_c, 2, 48, 64
1, 42484, Note_off_c, 2, 44, 64
1, 42484, Note_on_c, 2, 60, 100
1, 42628, Note_off_c, 2, 60, 64
1, 42628, Note_on_c, 2, 44, 100
1, 42628, Note_on_c, 2, 48, 100
1, 42628, Note_on_c, 2, 51, 100
1, 42772, Note_off_c, 2, 51, 64
1, 42772, Note_off_c, 2, 48, 64
1, 42772, Note_off_c, 2, 44, 64
1, 42772, Note_on_c, 2, 51, 100
1, 42772, Note_on_c, 2, 48, 100
1, 42772, Note_on_c, 2, 44, 100
1, 42916, Note_off_c, 2, 44, 64
1, 42916, Note_off_c, 2, 48, 64
1, 42916, Note_off_c, 2, 51, 64
1, 42916, Note_on_c, 2, 63, 100
1, 43060, Note_off_c, 2, 63, 64
1, 43060, Note_on_c, 2, 51, 100
1, 43060, Note_on_c, 2, 48, 100
1, 43060, Note_on_c, 2, 44, 100
1, 43204, Note_off_c, 2, 44, 64
1, 43204, Note_off_c, 2, 48, 64
1, 43204, Note_off_c, 2, 51, 64
1, 43204, Note_on_c, 2, 51, 100
1, 43204, Note_on_c, 2, 48, 100
1, 43204, Note_on_c, 2, 44, 100
1, 43348, Note_off_c, 2, 44, 64
1, 43348, Note_off_c, 2, 48, 64
1, 43348, Note_off_c, 2, 51, 64
1, 43348, Note_on_c, 2, 68, 100
1, 43492, Note_off_c, 2, 68, 64
1, 43492, Note_on_c, 2, 44, 100
1, 43492, Note_on_c, 2, 48, 100
1, 43492, Note_on_c, 2, 51, 100
1, 43636, Note_off_c, 2, 51, 64
1, 43636, Note_off_c, 2, 48, 64
1, 43636, Note_off_c, 2, 44, 64
1, 43636, Note_on_c, 2, 51, 100
1, 43636, Note_on_c, 2, 48, 100
1, 43636, Note_on_c, 2, 44, 100
1, 43780, Note_off_c, 2, 44, 64
1, 43780, Note_off_c, 2, 48, 64
1, 43780, Note_off_c, 2, 51, 64
1, 43780, Note_on_c, 2, 72, 100
1, 43924, Note_off_c, 2, 72, 64
1, 43924, Note_on_c, 2, 44, 100
1, 43924, Note_on_c, 2, 48, 100
1, 43924, Note_on_c, 2, 51, 100
1, 44068, Note_off_c, 2, 51, 64
1, 44068, Note_off_c, 2, 48, 64
1, 44068, Note_off_c, 2, 44, 64
1, 44068, Note_on_c, 2, 51, 100
1, 44068, Note_on_c, 2, 48, 100
1, 44068, Note_on_c, 2, 44, 100
1, 44212, Note_off_c, 2, 44, 64
1, 44212, Note_off_c, 2, 48, 64
1, 44212, Note_off_c, 2, 51, 64
1, 44212, Note_on_c, 2, 75, 100
1, 44356, Note_off_c, 2, 75, 64
1, 44356, Note_on_c, 2, 44, 100
1, 44356, Note_on_c, 2, 48, 100
1, 44356, Note_on_c, 2, 51, 100
1, 44500, Note_off_c, 2, 51, 64
1, 44500, Note_off_c, 2, 48, 64
1, 44500, Note_off_c, 2, 44, 64
1, 44500, Note_on_c, 2, 45, 100
1, 44500, Note_on_c, 2, 48, 100
1, 44500, Note_on_c, 2, 51, 100
1, 44500, Note_on_c, 2, 54, 100
1, 44500, Note_on_c, 2, 78, 100
1, 44572, Note_off_c, 2, 78, 64
1, 44572, Note_on_c, 2, 79, 100
1, 44644, Note_off_c, 2, 79, 64
1, 44644, Note_off_c, 2, 54, 64
1, 44644, Note_off_c, 2, 51, 64
1, 44644, Note_off_c, 2, 48, 64
1, 44644, Note_off_c, 2, 45, 64
1, 44644, Note_on_c, 2, 78, 100
1, 44716, Note_off_c, 2, 78, 64
1, 44716, Note_on_c, 2, 79, 100
1, 44788, Note_off_c, 2, 79, 64
1, 44788, Note_on_c, 2, 78, 100
1, 44788, Note_on_c, 2, 45, 100
1, 44788, Note_on_c, 2, 48, 100
1, 44788, Note_on_c, 2, 51, 100
1, 44788, Note_on_c, 2, 54, 100
1, 44860, Note_off_c, 2, 78, 64
1, 44860, Note_on_c, 2, 79, 100
1, 44932, Note_off_c, 2, 79, 64
1, 44932, Note_off_c, 2, 54, 64
1, 44932, Note_off_c, 2, 51, 64
1, 44932, Note_off_c, 2, 48, 64
1, 44932, Note_off_c, 2, 45, 64
1, 44932, Note_on_c, 2, 78, 100
1, 44932, Note_on_c, 2, 54, 100
1, 44932, Note_on_c, 2, 51, 100
1, 44932, Note_on_c, 2, 48, 100
1, 44932, Note_on_c, 2, 45, 100
1, 45004, Note_off_c, 2, 78, 64
1, 45004, Note_on_c, 2, 79, 100
1, 45076, Note_off_c, 2, 79, 64
1, 45076, Note_off_c, 2, 45, 64
1, 45076, Note_off_c, 2, 48, 64
1, 45076, Note_off_c, 2, 51, 64
1, 45076, Note_off_c, 2, 54, 64
1, 45076, Note_on_c, 2, 78, 100
1, 45148, Note_off_c, 2, 78, 64
1, 45148, Note_on_c, 2, 79, 100
1, 45220, Note_off_c, 2, 79, 64
1, 45220, Note_on_c, 2, 54, 100
1, 45220, Note_on_c, 2, 51, 100
1, 45220, Note_on_c, 2, 48, 100
1, 45220, Note_on_c, 2, 45, 100
1, 45220, Note_on_c, 2, 78, 100
1, 45292, Note_off_c, 2, 78, 64
1, 45292, Note_on_c, 2, 79, 100
1, 45364, Note_off_c, 2, 79, 64
1, 45364, Note_off_c, 2, 45, 64
1, 45364, Note_off_c, 2, 48, 64
1, 45364, Note_off_c, 2, 51, 64
1, 45364, Note_off_c, 2, 54, 64
1, 45364, Note_on_c, 2, 79, 100
1, 45364, Note_on_c, 2, 55, 100
1, 45364, Note_on_c, 2, 51, 100
1, 45364, Note_on_c, 2, 46, 100
1, 45508, Note_off_c, 2, 46, 64
1, 45508, Note_off_c, 2, 51, 64
1, 45508, Note_off_c, 2, 55, 64
1, 45508, Note_off_c, 2, 79, 64
1, 45508, Note_on_c, 2, 75, 100
1, 45652, Note_off_c, 2, 75, 64
1, 45652, Note_on_c, 2, 70, 100
1, 45652, Note_on_c, 2, 55, 100
1, 45652, Note_on_c, 2, 51, 100
1, 45652, Note_on_c, 2, 46, 100
1, 45796, Note_off_c, 2, 46, 64
1, 45796, Note_off_c, 2, 51, 64
1, 45796, Note_off_c, 2, 55, 64
1, 45796, Note_off_c, 2, 70, 64
1, 45796, Note_on_c, 2, 70, 100
1, 45796, Note_on_c, 2, 56, 100
1, 45796, Note_on_c, 2, 50, 100
1, 45796, Note_on_c, 2, 46, 100
1, 45940, Note_off_c, 2, 46, 64
1, 45940, Note_off_c, 2, 50, 64
1, 45940, Note_off_c, 2, 56, 64
1, 45940, Note_off_c, 2, 70, 64
1, 45940, Note_on_c, 2, 68, 100
1, 46084, Note_off_c, 2, 68, 64
1, 46084, Note_on_c, 2, 65, 100
1, 46084, Note_on_c, 2, 56, 100
1, 46084, Note_on_c, 2, 50, 100
1, 46084, Note_on_c, 2, 46, 100
1, 46228, Note_off_c, 2, 46, 64
1, 46228, Note_off_c, 2, 50, 64
1, 46228, Note_off_c, 2, 56, 64
1, 46228, Note_off_c, 2, 65, 64
1, 46228, Note_on_c, 2, 63, 100
1, 46228, Note_on_c, 2, 39, 100
1, 46228, Note_on_c, 2, 51, 100
1, 46228, Note_on_c, 2, 55, 100
1, 46372, Note_off_c, 2, 55, 64
1, 46372, Note_off_c, 2, 51, 64
1, 46372, Note_off_c, 2, 39, 64
1, 46372, Note_off_c, 2, 63, 64
1, 46372, Note_on_c, 2, 58, 100
1, 46516, Note_off_c, 2, 58, 64
1, 46516, Note_on_c, 2, 55, 100
1, 46660, Note_off_c, 2, 55, 64
1, 46660, Note_on_c, 2, 51, 100
1, 46804, Note_off_c, 2, 51, 64
1, 46944, Note_on_c, 2, 61, 100
1, 46944, Note_on_c, 2, 58, 100
1, 46944, Note_on_c, 2, 51, 100
1, 47088, Note_off_c, 2, 51, 64
1, 47088, Note_off_c, 2, 58, 64
1, 47088, Note_off_c, 2, 61, 64
1, 47088, Note_on_c, 2, 61, 100
1, 47088, Note_on_c, 2, 58, 100
1, 47088, Note_on_c, 2, 51, 100
1, 47232, Note_off_c, 2, 51, 64
1, 47232, Note_off_c, 2, 58, 64
1, 47232, Note_off_c, 2, 61, 64
1, 47376, Note_on_c, 2, 51, 100
1, 47376, Note_on_c, 2, 58, 100
1, 47376, Note_on_c, 2, 61, 100
1, 47520, Note_off_c, 2, 61, 64
1, 47520, Note_off_c, 2, 58, 64
1, 47520, Note_off_c, 2, 51, 64
1, 47520, Note_on_c, 2, 61, 100
1, 47520, Note_on_c, 2, 58, 100
1, 47520, Note_on_c, 2, 51, 100
1, 47664, Note_off_c, 2, 51, 64
1, 47664, Note_off_c, 2, 58, 64
1, 47664, Note_off_c, 2, 61, 64
1, 47808, Note_on_c, 2, 61, 100
1, 47808, Note_on_c, 2, 58, 100
1, 47808, Note_on_c, 2, 51, 100
1, 47952, Note_off_c, 2, 51, 64
1, 47952, Note_off_c, 2, 58, 64
1, 47952, Note_off_c, 2, 61, 64
1, 47952, Note_on_c, 2, 61, 100
1, 47952, Note_on_c, 2, 58, 100
1, 47952, Note_on_c, 2, 51, 100
1, 48096, Note_off_c, 2, 51, 64
1, 48096, Note_off_c, 2, 58, 64
1, 48096, Note_off_c, 2, 61, 64
1, 48096, Note_on_c, 2, 77, 100
1, 48240, Note_off_c, 2, 77, 64
1, 48240, Note_on_c, 2, 75, 100
1, 48240, Note_on_c, 2, 61, 100
1, 48240, Note_on_c, 2, 58, 100
1, 48240, Note_on_c, 2, 51, 100
1, 48384, Note_off_c, 2, 51, 64
1, 48384, Note_off_c, 2, 58, 64
1, 48384, Note_off_c, 2, 61, 64
1, 48384, Note_off_c, 2, 75, 64
1, 48384, Note_on_c, 2, 61, 100
1, 48384, Note_on_c, 2, 58, 100
1, 48384, Note_on_c, 2, 51, 100
1, 48528, Note_off_c, 2, 51, 64
1, 48528, Note_off_c, 2, 58, 64
1, 48528, Note_off_c, 2, 61, 64
1, 48528, Note_on_c, 2, 73, 100
1, 48672, Note_off_c, 2, 73, 64
1, 48672, Note_on_c, 2, 72, 100
1, 48672, Note_on_c, 2, 61, 100
1, 48672, Note_on_c, 2, 58, 100
1, 48672, Note_on_c, 2, 51, 100
1, 48816, Note_off_c, 2, 51, 64
1, 48816, Note_off_c, 2, 58, 64
1, 48816, Note_off_c, 2, 61, 64
1, 48816, Note_off_c, 2, 72, 64
1, 48816, Note_on_c, 2, 51, 100
1, 48816, Note_on_c, 2, 58, 100
1, 48816, Note_on_c, 2, 61, 100
1, 48960, Note_off_c, 2, 61, 64
1, 48960, Note_off_c, 2, 58, 64
1, 48960, Note_off_c, 2, 51, 64
1, 48960, Note_on_c, 2, 70, 100
1, 49104, Note_off_c, 2, 70, 64
1, 49104, Note_on_c, 2, 68, 100
1, 49104, Note_on_c, 2, 61, 100
1, 49104, Note_on_c, 2, 58, 100
1, 49104, Note_on_c, 2, 51, 100
1, 49248, Note_off_c, 2, 51, 64
1, 49248, Note_off_c, 2, 58, 64
1, 49248, Note_off_c, 2, 61, 64
1, 49248, Note_off_c, 2, 68, 64
1, 49248, Note_on_c, 2, 61, 100
1, 49248, Note_on_c, 2, 58, 100
1, 49248, Note_on_c, 2, 51, 100
1, 49392, Note_off_c, 2, 51, 64
1, 49392, Note_off_c, 2, 58, 64
1, 49392, Note_off_c, 2, 61, 64
1, 49392, Note_on_c, 2, 67, 100
1, 49536, Note_off_c, 2, 67, 64
1, 49536, Note_on_c, 2, 51, 100
1, 49536, Note_on_c, 2, 58, 100
1, 49536, Note_on_c, 2, 61, 100
1, 49536, Note_on_c, 2, 68, 100
1, 49680, Note_off_c, 2, 68, 64
1, 49680, Note_off_c, 2, 61, 64
1, 49680, Note_off_c, 2, 58, 64
1, 49680, Note_off_c, 2, 51, 64
1, 49680, Note_on_c, 2, 61, 100
1, 49680, Note_on_c, 2, 58, 100
1, 49680, Note_on_c, 2, 51, 100
1, 49824, Note_off_c, 2, 51, 64
1, 49824, Note_off_c, 2, 58, 64
1, 49824, Note_off_c, 2, 61, 64
1, 49824, Note_on_c, 2, 70, 100
1, 49968, Note_off_c, 2, 70, 64
1, 49968, Note_on_c, 2, 72, 100
1, 49968, Note_on_c, 2, 61, 100
1, 49968, Note_on_c, 2, 58, 100
1, 49968, Note_on_c, 2, 51, 100
1, 50112, Note_off_c, 2, 51, 64
1, 50112, Note_off_c, 2, 58, 64
1, 50112, Note_off_c, 2, 61, 64
1, 50112, Note_off_c, 2, 72, 64
1, 50112, Note_on_c, 2, 61, 100
1, 50112, Note_on_c, 2, 58, 100
1, 50112, Note_on_c, 2, 51, 100
1, 50256, Note_off_c, 2, 51, 64
1, 50256, Note_off_c, 2, 58, 64
1, 50256, Note_off_c, 2, 61, 64
1, 50256, Note_on_c, 2, 73, 100
1, 50400, Note_off_c, 2, 73, 64
1, 50400, Note_on_c, 2, 75, 100
1, 50400, Note_on_c, 2, 61, 100
1, 50400, Note_on_c, 2, 58, 100
1, 50400, Note_on_c, 2, 51, 100
1, 50544, Note_off_c, 2, 51, 64
1, 50544, Note_off_c, 2, 58, 64
1, 50544, Note_off_c, 2, 61, 64
1, 50544, Note_off_c, 2, 75, 64
1, 50544, Note_on_c, 2, 61, 100
1, 50544, Note_on_c, 2, 58, 100
1, 50544, Note_on_c, 2, 51, 100
1, 50688, Note_off_c, 2, 51, 64
1, 50688, Note_off_c, 2, 58, 64
1, 50688, Note_off_c, 2, 61, 64
1, 50688, Note_on_c, 2, 77, 100
1, 50832, Note_off_c, 2, 77, 64
1, 50832, Note_on_c, 2, 75, 100
1, 50832, Note_on_c, 2, 61, 100
1, 50832, Note_on_c, 2, 58, 100
1, 50832, Note_on_c, 2, 51, 100
1, 50976, Note_off_c, 2, 51, 64
1, 50976, Note_off_c, 2, 58, 64
1, 50976, Note_off_c, 2, 61, 64
1, 50976, Note_off_c, 2, 75, 64
1, 50976, Note_on_c, 2, 51, 100
1, 50976, Note_on_c, 2, 58, 100
1, 50976, Note_on_c, 2, 61, 100
1, 51120, Note_off_c, 2, 61, 64
1, 51120, Note_off_c, 2, 58, 64
1, 51120, Note_off_c, 2, 51, 64
1, 51120, Note_on_c, 2, 73, 100
1, 51264, Note_off_c, 2, 73, 64
1, 51264, Note_on_c, 2, 72, 100
1, 51264, Note_on_c, 2, 61, 100
1, 51264, Note_on_c, 2, 58, 100
1, 51264, Note_on_c, 2, 51, 100
1, 51408, Note_off_c, 2, 51, 64
1, 51408, Note_off_c, 2, 58, 64
1, 51408, Note_off_c, 2, 61, 64
1, 51408, Note_off_c, 2, 72, 64
1, 51408, Note_on_c, 2, 49, 100
1, 51408, Note_on_c, 2, 46, 100
1, 51408, Note_on_c, 2, 39, 100
1, 51552, Note_off_c, 2, 39, 64
1, 51552, Note_off_c, 2, 46, 64
1, 51552, Note_off_c, 2, 49, 64
1, 51552, Note_on_c, 2, 70, 100
1, 51696, Note_off_c, 2, 70, 64
1, 51696, Note_on_c, 2, 39, 100
1, 51696, Note_on_c, 2, 46, 100
1, 51696, Note_on_c, 2, 49, 100
1, 51696, Note_on_c, 2, 68, 100
1, 51840, Note_off_c, 2, 68, 64
1, 51840, Note_off_c, 2, 49, 64
1, 51840, Note_off_c, 2, 46, 64
1, 51840, Note_off_c, 2, 39, 64
1, 51840, Note_on_c, 2, 49, 100
1, 51840, Note_on_c, 2, 46, 100
1, 51840, Note_on_c, 2, 39, 100
1, 51984, Note_off_c, 2, 39, 64
1, 51984, Note_off_c, 2, 46, 64
1, 51984, Note_off_c, 2, 49, 64
1, 51984, Note_on_c, 2, 67, 100
1, 52128, Note_off_c, 2, 67, 64
1, 52128, Note_on_c, 2, 65, 100
1, 52128, Note_on_c, 2, 49, 100
1, 52128, Note_on_c, 2, 46, 100
1, 52128, Note_on_c, 2, 39, 100
1, 52272, Note_off_c, 2, 39, 64
1, 52272, Note_off_c, 2, 46, 64
1, 52272, Note_off_c, 2, 49, 64
1, 52272, Note_off_c, 2, 65, 64
1, 52272, Note_on_c, 2, 49, 100
1, 52272, Note_on_c, 2, 46, 100
1, 52272, Note_on_c, 2, 39, 100
1, 52416, Note_off_c, 2, 39, 64
1, 52416, Note_off_c, 2, 46, 64
1, 52416, Note_off_c, 2, 49, 64
1, 52416, Note_on_c, 2, 63, 100
1, 52560, Note_off_c, 2, 63, 64
1, 52560, Note_on_c, 2, 61, 100
1, 52560, Note_on_c, 2, 49, 100
1, 52560, Note_on_c, 2, 46, 100
1, 52560, Note_on_c, 2, 39, 100
1, 52704, Note_off_c, 2, 39, 64
1, 52704, Note_off_c, 2, 46, 64
1, 52704, Note_off_c, 2, 49, 64
1, 52704, Note_off_c, 2, 61, 64
1, 52704, Note_on_c, 2, 49, 100
1, 52704, Note_on_c, 2, 46, 100
1, 52704, Note_on_c, 2, 39, 100
1, 52848, Note_off_c, 2, 39, 64
1, 52848, Note_off_c, 2, 46, 64
1, 52848, Note_off_c, 2, 49, 64
1, 52848, Note_on_c, 2, 60, 100
1, 52992, Note_off_c, 2, 60, 64
1, 52992, Note_on_c, 2, 59, 100
1, 52992, Note_on_c, 2, 49, 100
1, 52992, Note_on_c, 2, 46, 100
1, 52992, Note_on_c, 2, 39, 100
1, 53136, Note_off_c, 2, 39, 64
1, 53136, Note_off_c, 2, 46, 64
1, 53136, Note_off_c, 2, 49, 64
1, 53136, Note_off_c, 2, 59, 64
1, 53136, Note_on_c, 2, 39, 100
1, 53136, Note_on_c, 2, 46, 100
1, 53136, Note_on_c, 2, 49, 100
1, 53280, Note_off_c, 2, 49, 64
1, 53280, Note_off_c, 2, 46, 64
1, 53280, Note_off_c, 2, 39, 64
1, 53280, Note_on_c, 2, 58, 100
1, 53424, Note_off_c, 2, 58, 64
1, 53424, Note_on_c, 2, 60, 100
1, 53424, Note_on_c, 2, 49, 100
1, 53424, Note_on_c, 2, 46, 100
1, 53424, Note_on_c, 2, 39, 100
1, 53568, Note_off_c, 2, 39, 64
1, 53568, Note_off_c, 2, 46, 64
1, 53568, Note_off_c, 2, 49, 64
1, 53568, Note_off_c, 2, 60, 64
1, 53568, Note_on_c, 2, 49, 100
1, 53568, Note_on_c, 2, 46, 100
1, 53568, Note_on_c, 2, 39, 100
1, 53712, Note_off_c, 2, 39, 64
1, 53712, Note_off_c, 2, 46, 64
1, 53712, Note_off_c, 2, 49, 64
1, 53712, Note_on_c, 2, 61, 100
1, 53856, Note_off_c, 2, 61, 64
1, 53856, Note_on_c, 2, 39, 100
1, 53856, Note_on_c, 2, 46, 100
1, 53856, Note_on_c, 2, 49, 100
1, 53856, Note_on_c, 2, 55, 100
1, 54000, Note_off_c, 2, 55, 64
1, 54000, Note_off_c, 2, 49, 64
1, 54000, Note_off_c, 2, 46, 64
1, 54000, Note_off_c, 2, 39, 64
1, 54000, Note_on_c, 2, 44, 100
1, 54000, Note_on_c, 2, 51, 100
1, 54000, Note_on_c, 2, 49, 100
1, 54000, Note_on_c, 2, 55, 100
1, 54000, Note_on_c, 2, 58, 100
1, 54288, Note_off_c, 2, 58, 64
1, 54288, Note_off_c, 2, 55, 64
1, 54288, Note_off_c, 2, 49, 64
1, 54288, Note_off_c, 2, 51, 64
1, 54288, Note_off_c, 2, 44, 64
1, 54432, Note_on_c, 2, 56, 100
1, 54432, Note_on_c, 2, 51, 100
1, 54432, Note_on_c, 2, 48, 100
1, 54432, Note_on_c, 2, 44, 100
1, 54576, Note_off_c, 2, 44, 64
1, 54576, Note_off_c, 2, 48, 64
1, 54576, Note_off_c, 2, 51, 64
1, 54576, Note_off_c, 2, 56, 64
1, 54720, Note_on_c, 2, 61, 100
1, 54720, Note_on_c, 2, 58, 100
1, 54720, Note_on_c, 2, 51, 100
1, 54864, Note_off_c, 2, 51, 64
1, 54864, Note_off_c, 2, 58, 64
1, 54864, Note_off_c, 2, 61, 64
1, 54864, Note_on_c, 2, 61, 100
1, 54864, Note_on_c, 2, 58, 100
1, 54864, Note_on_c, 2, 51, 100
1, 55008, Note_off_c, 2, 51, 64
1, 55008, Note_off_c, 2, 58, 64
1, 55008, Note_off_c, 2, 61, 64
1, 55152, Note_on_c, 2, 61, 100
1, 55152, Note_on_c, 2, 58, 100
1, 55152, Note_on_c, 2, 51, 100
1, 55296, Note_off_c, 2, 51, 64
1, 55296, Note_off_c, 2, 58, 64
1, 55296, Note_off_c, 2, 61, 64
1, 55296, Note_on_c, 2, 51, 100
1, 55296, Note_on_c, 2, 58, 100
1, 55296, Note_on_c, 2, 61, 100
1, 55440, Note_off_c, 2, 61, 64
1, 55440, Note_off_c, 2, 58, 64
1, 55440, Note_off_c, 2, 51, 64
1, 55584, Note_on_c, 2, 61, 100
1, 55584, Note_on_c, 2, 58, 100
1, 55584, Note_on_c, 2, 51, 100
1, 55728, Note_off_c, 2, 51, 64
1, 55728, Note_off_c, 2, 58, 64
1, 55728, Note_off_c, 2, 61, 64
1, 55728, Note_on_c, 2, 61, 100
1, 55728, Note_on_c, 2, 58, 100
1, 55728, Note_on_c, 2, 51, 100
1, 55872, Note_off_c, 2, 51, 64
1, 55872, Note_off_c, 2, 58, 64
1, 55872, Note_off_c, 2, 61, 64
1, 55872, Note_on_c, 2, 77, 100
1, 56016, Note_off_c, 2, 77, 64
1, 56016, Note_on_c, 2, 51, 100
1, 56016, Note_on_c, 2, 58, 100
1, 56016, Note_on_c, 2, 61, 100
1, 56016, Note_on_c, 2, 75, 100
1, 56160, Note_off_c, 2, 75, 64
1, 56160, Note_off_c, 2, 61, 64
1, 56160, Note_off_c, 2, 58, 64
1, 56160, Note_off_c, 2, 51, 64
1, 56160, Note_on_c, 2, 61, 100
1, 56160, Note_on_c, 2, 58, 100
1, 56160, Note_on_c, 2, 51, 100
1, 56304, Note_off_c, 2, 51, 64
1, 56304, Note_off_c, 2, 58, 64
1, 56304, Note_off_c, 2, 61, 64
1, 56304, Note_on_c, 2, 73, 100
1, 56448, Note_off_c, 2, 73, 64
1, 56448, Note_on_c, 2, 72, 100
1, 56448, Note_on_c, 2, 61, 100
1, 56448, Note_on_c, 2, 58, 100
1, 56448, Note_on_c, 2, 51, 100
1, 56592, Note_off_c, 2, 51, 64
1, 56592, Note_off_c, 2, 58, 64
1, 56592, Note_off_c, 2, 61, 64
1, 56592, Note_off_c, 2, 72, 64
1, 56592, Note_on_c, 2, 61, 100
1, 56592, Note_on_c, 2, 58, 100
1, 56592, Note_on_c, 2, 51, 100
1, 56736, Note_off_c, 2, 51, 64
1, 56736, Note_off_c, 2, 58, 64
1, 56736, Note_off_c, 2, 61, 64
1, 56736, Note_on_c, 2, 70, 100
1, 56880, Note_off_c, 2, 70, 64
1, 56880, Note_on_c, 2, 68, 100
1, 56880, Note_on_c, 2, 61, 100
1, 56880, Note_on_c, 2, 58, 100
1, 56880, Note_on_c, 2, 51, 100
1, 57024, Note_off_c, 2, 51, 64
1, 57024, Note_off_c, 2, 58, 64
1, 57024, Note_off_c, 2, 61, 64
1, 57024, Note_off_c, 2, 68, 64
1, 57024, Note_on_c, 2, 61, 100
1, 57024, Note_on_c, 2, 58, 100
1, 57024, Note_on_c, 2, 51, 100
1, 57168, Note_off_c, 2, 51, 64
1, 57168, Note_off_c, 2, 58, 64
1, 57168, Note_off_c, 2, 61, 64
1, 57168, Note_on_c, 2, 67, 100
1, 57312, Note_off_c, 2, 67, 64
1, 57312, Note_on_c, 2, 68, 100
1, 57312, Note_on_c, 2, 61, 100
1, 57312, Note_on_c, 2, 58, 100
1, 57312, Note_on_c, 2, 51, 100
1, 57456, Note_off_c, 2, 51, 64
1, 57456, Note_off_c, 2, 58, 64
1, 57456, Note_off_c, 2, 61, 64
1, 57456, Note_off_c, 2, 68, 64
1, 57456, Note_on_c, 2, 51, 100
1, 57456, Note_on_c, 2, 58, 100
1, 57456, Note_on_c, 2, 61, 100
1, 57600, Note_off_c, 2, 61, 64
1, 57600, Note_off_c, 2, 58, 64
1, 57600, Note_off_c, 2, 51, 64
1, 57600, Note_on_c, 2, 70, 100
1, 57744, Note_off_c, 2, 70, 64
1, 57744, Note_on_c, 2, 72, 100
1, 57744, Note_on_c, 2, 61, 100
1, 57744, Note_on_c, 2, 58, 100
1, 57744, Note_on_c, 2, 51, 100
1, 57888, Note_off_c, 2, 51, 64
1, 57888, Note_off_c, 2, 58, 64
1, 57888, Note_off_c, 2, 61, 64
1, 57888, Note_off_c, 2, 72, 64
1, 57888, Note_on_c, 2, 61, 100
1, 57888, Note_on_c, 2, 58, 100
1, 57888, Note_on_c, 2, 51, 100
1, 58032, Note_off_c, 2, 51, 64
1, 58032, Note_off_c, 2, 58, 64
1, 58032, Note_off_c, 2, 61, 64
1, 58032, Note_on_c, 2, 73, 100
1, 58176, Note_off_c, 2, 73, 64
1, 58176, Note_on_c, 2, 51, 100
1, 58176, Note_on_c, 2, 58, 100
1, 58176, Note_on_c, 2, 61, 100
1, 58176, Note_on_c, 2, 75, 100
1, 58320, Note_off_c, 2, 75, 64
1, 58320, Note_off_c, 2, 61, 64
1, 58320, Note_off_c, 2, 58, 64
1, 58320, Note_off_c, 2, 51, 64
1, 58320, Note_on_c, 2, 61, 100
1, 58320, Note_on_c, 2, 58, 100
1, 58320, Note_on_c, 2, 51, 100
1, 58464, Note_off_c, 2, 51, 64
1, 58464, Note_off_c, 2, 58, 64
1, 58464, Note_off_c, 2, 61, 64
1, 58464, Note_on_c, 2, 77, 100
1, 58608, Note_off_c, 2, 77, 64
1, 58608, Note_on_c, 2, 75, 100
1, 58608, Note_on_c, 2, 61, 100
1, 58608, Note_on_c, 2, 58, 100
1, 58608, Note_on_c, 2, 51, 100
1, 58752, Note_off_c, 2, 51, 64
1, 58752, Note_off_c, 2, 58, 64
1, 58752, Note_off_c, 2, 61, 64
1, 58752, Note_off_c, 2, 75, 64
1, 58752, Note_on_c, 2, 61, 100
1, 58752, Note_on_c, 2, 58, 100
1, 58752, Note_on_c, 2, 51, 100
1, 58896, Note_off_c, 2, 51, 64
1, 58896, Note_off_c, 2, 58, 64
1, 58896, Note_off_c, 2, 61, 64
1, 58896, Note_on_c, 2, 73, 100
1, 59040, Note_off_c, 2, 73, 64
1, 59040, Note_on_c, 2, 72, 100
1, 59040, Note_on_c, 2, 61, 100
1, 59040, Note_on_c, 2, 58, 100
1, 59040, Note_on_c, 2, 51, 100
1, 59184, Note_off_c, 2, 51, 64
1, 59184, Note_off_c, 2, 58, 64
1, 59184, Note_off_c, 2, 61, 64
1, 59184, Note_off_c, 2, 72, 64
1, 59184, Note_on_c, 2, 49, 100
1, 59184, Note_on_c, 2, 46, 100
1, 59184, Note_on_c, 2, 39, 100
1, 59328, Note_off_c, 2, 39, 64
1, 59328, Note_off_c, 2, 46, 64
1, 59328, Note_off_c, 2, 49, 64
1, 59328, Note_on_c, 2, 70, 100
1, 59472, Note_off_c, 2, 70, 64
1, 59472, Note_on_c, 2, 68, 100
1, 59472, Note_on_c, 2, 49, 100
1, 59472, Note_on_c, 2, 46, 100
1, 59472, Note_on_c, 2, 39, 100
1, 59616, Note_off_c, 2, 39, 64
1, 59616, Note_off_c, 2, 46, 64
1, 59616, Note_off_c, 2, 49, 64
1, 59616, Note_off_c, 2, 68, 64
1, 59616, Note_on_c, 2, 39, 100
1, 59616, Note_on_c, 2, 46, 100
1, 59616, Note_on_c, 2, 49, 100
1, 59760, Note_off_c, 2, 49, 64
1, 59760, Note_off_c, 2, 46, 64
1, 59760, Note_off_c, 2, 39, 64
1, 59760, Note_on_c, 2, 67, 100
1, 59904, Note_off_c, 2, 67, 64
1, 59904, Note_on_c, 2, 65, 100
1, 59904, Note_on_c, 2, 49, 100
1, 59904, Note_on_c, 2, 46, 100
1, 59904, Note_on_c, 2, 39, 100
1, 60048, Note_off_c, 2, 39, 64
1, 60048, Note_off_c, 2, 46, 64
1, 60048, Note_off_c, 2, 49, 64
1, 60048, Note_off_c, 2, 65, 64
1, 60048, Note_on_c, 2, 49, 100
1, 60048, Note_on_c, 2, 46, 100
1, 60048, Note_on_c, 2, 39, 100
1, 60192, Note_off_c, 2, 39, 64
1, 60192, Note_off_c, 2, 46, 64
1, 60192, Note_off_c, 2, 49, 64
1, 60192, Note_on_c, 2, 63, 100
1, 60336, Note_off_c, 2, 63, 64
1, 60336, Note_on_c, 2, 39, 100
1, 60336, Note_on_c, 2, 46, 100
1, 60336, Note_on_c, 2, 49, 100
1, 60336, Note_on_c, 2, 61, 100
1, 60480, Note_off_c, 2, 61, 64
1, 60480, Note_off_c, 2, 49, 64
1, 60480, Note_off_c, 2, 46, 64
1, 60480, Note_off_c, 2, 39, 64
1, 60480, Note_on_c, 2, 49, 100
1, 60480, Note_on_c, 2, 46, 100
1, 60480, Note_on_c, 2, 39, 100
1, 60624, Note_off_c, 2, 39, 64
1, 60624, Note_off_c, 2, 46, 64
1, 60624, Note_off_c, 2, 49, 64
1, 60624, Note_on_c, 2, 60, 100
1, 60768, Note_off_c, 2, 60, 64
1, 60768, Note_on_c, 2, 59, 100
1, 60768, Note_on_c, 2, 49, 100
1, 60768, Note_on_c, 2, 46, 100
1, 60768, Note_on_c, 2, 39, 100
1, 60912, Note_off_c, 2, 39, 64
1, 60912, Note_off_c, 2, 46, 64
1, 60912, Note_off_c, 2, 49, 64
1, 60912, Note_off_c, 2, 59, 64
1, 60912, Note_on_c, 2, 49, 100
1, 60912, Note_on_c, 2, 46, 100
1, 60912, Note_on_c, 2, 39, 100
1, 61056, Note_off_c, 2, 39, 64
1, 61056, Note_off_c, 2, 46, 64
1, 61056, Note_off_c, 2, 49, 64
1, 61056, Note_on_c, 2, 58, 100
1, 61200, Note_off_c, 2, 58, 64
1, 61200, Note_on_c, 2, 60, 100
1, 61200, Note_on_c, 2, 49, 100
1, 61200, Note_on_c, 2, 46, 100
1, 61200, Note_on_c, 2, 39, 100
1, 61344, Note_off_c, 2, 39, 64
1, 61344, Note_off_c, 2, 46, 64
1, 61344, Note_off_c, 2, 49, 64
1, 61344, Note_off_c, 2, 60, 64
1, 61344, Note_on_c, 2, 49, 100
1, 61344, Note_on_c, 2, 46, 100
1, 61344, Note_on_c, 2, 39, 100
1, 61488, Note_off_c, 2, 39, 64
1, 61488, Note_off_c, 2, 46, 64
1, 61488, Note_off_c, 2, 49, 64
1, 61488, Note_on_c, 2, 61, 100
1, 61632, Note_off_c, 2, 61, 64
1, 61632, Note_on_c, 2, 55, 100
1, 61632, Note_on_c, 2, 49, 100
1, 61632, Note_on_c, 2, 46, 100
1, 61632, Note_on_c, 2, 39, 100
1, 61776, Note_off_c, 2, 39, 64
1, 61776, Note_off_c, 2, 46, 64
1, 61776, Note_off_c, 2, 49, 64
1, 61776, Note_off_c, 2, 55, 64
1, 61776, Note_on_c, 2, 56, 100
1, 61776, Note_on_c, 2, 48, 100
1, 61776, Note_on_c, 2, 44, 100
1, 61920, Note_off_c, 2, 44, 64
1, 61920, Note_off_c, 2, 48, 64
1, 61920, Note_off_c, 2, 56, 64
1, 61920, Note_on_c, 2, 54, 100
1, 61920, Note_on_c, 2, 42, 100
1, 62064, Note_off_c, 2, 42, 64
1, 62064, Note_off_c, 2, 54, 64
1, 62064, Note_on_c, 2, 55, 100
1, 62064, Note_on_c, 2, 43, 100
1, 62208, Note_off_c, 2, 43, 64
1, 62208, Note_off_c, 2, 55, 64
1, 62208, Note_on_c, 2, 48, 100
1, 62208, Note_on_c, 2, 36, 100
1, 62352, Note_off_c, 2, 36, 64
1, 62352, Note_off_c, 2, 48, 64
1, 62352, Note_on_c, 2, 51, 100
1, 62352, Note_on_c, 2, 39, 100
1, 62496, Note_off_c, 2, 39, 64
1, 62496, Note_off_c, 2, 51, 64
1, 62496, Note_on_c, 2, 43, 100
1, 62496, Note_on_c, 2, 55, 100
1, 62640, Note_off_c, 2, 55, 64
1, 62640, Note_off_c, 2, 43, 64
1, 62644, Note_on_c, 2, 48, 100
1, 62644, Note_on_c, 2, 60, 100
1, 62788, Note_off_c, 2, 60, 64
1, 62788, Note_off_c, 2, 48, 64
1, 62788, Note_on_c, 2, 51, 100
1, 62788, Note_on_c, 2, 63, 100
1, 62932, Note_off_c, 2, 63, 64
1, 62932, Note_off_c, 2, 51, 64
1, 62932, Note_on_c, 2, 55, 100
1, 62932, Note_on_c, 2, 67, 100
1, 63076, Note_off_c, 2, 67, 64
1, 63076, Note_off_c, 2, 55, 64
1, 63076, Note_on_c, 2, 60, 100
1, 63076, Note_on_c, 2, 79, 100
1, 63220, Note_off_c, 2, 79, 64
1, 63220, Note_off_c, 2, 60, 64
1, 63220, Note_on_c, 2, 75, 100
1, 63220, Note_on_c, 2, 63, 100
1, 63364, Note_off_c, 2, 63, 64
1, 63364, Note_off_c, 2, 75, 64
1, 63364, Note_on_c, 2, 67, 100
1, 63364, Note_on_c, 2, 72, 100
1, 63508, Note_off_c, 2, 72, 64
1, 63508, Note_off_c, 2, 67, 64
1, 63508, Note_on_c, 2, 59, 100
1, 63508, Note_on_c, 2, 79, 100
1, 63652, Note_off_c, 2, 79, 64
1, 63652, Note_off_c, 2, 59, 64
1, 63652, Note_on_c, 2, 62, 100
1, 63652, Note_on_c, 2, 74, 100
1, 63796, Note_off_c, 2, 74, 64
1, 63796, Note_off_c, 2, 62, 64
1, 63796, Note_on_c, 2, 67, 100
1, 63796, Note_on_c, 2, 71, 100
1, 63940, Note_off_c, 2, 71, 64
1, 63940, Note_off_c, 2, 67, 64
1, 63940, Note_on_c, 2, 67, 100
1, 63940, Note_on_c, 2, 47, 100
1, 64080, Note_on_c, 2, 62, 100
1, 64084, Note_off_c, 2, 47, 64
1, 64084, Note_off_c, 2, 67, 64
1, 64084, Note_on_c, 2, 50, 100
1, 64224, Note_off_c, 2, 62, 64
1, 64228, Note_off_c, 2, 50, 64
1, 64228, Note_on_c, 2, 55, 100
1, 64228, Note_on_c, 2, 59, 100
1, 64372, Note_off_c, 2, 59, 64
1, 64372, Note_off_c, 2, 55, 64
1, 64372, Note_on_c, 2, 67, 100
1, 64372, Note_on_c, 2, 46, 100
1, 64516, Note_off_c, 2, 46, 64
1, 64516, Note_off_c, 2, 67, 64
1, 64516, Note_on_c, 2, 62, 100
1, 64516, Note_on_c, 2, 50, 100
1, 64660, Note_off_c, 2, 50, 64
1, 64660, Note_off_c, 2, 62, 64
1, 64660, Note_on_c, 2, 55, 100
1, 64660, Note_on_c, 2, 58, 100
1, 64804, Note_off_c, 2, 58, 64
1, 64804, Note_off_c, 2, 55, 64
1, 64804, Note_on_c, 2, 58, 100
1, 64804, Note_on_c, 2, 79, 100
1, 64948, Note_off_c, 2, 79, 64
1, 64948, Note_off_c, 2, 58, 64
1, 64948, Note_on_c, 2, 62, 100
1, 64948, Note_on_c, 2, 74, 100
1, 65092, Note_off_c, 2, 74, 64
1, 65092, Note_off_c, 2, 62, 64
1, 65092, Note_on_c, 2, 67, 100
1, 65092, Note_on_c, 2, 70, 100
1, 65236, Note_off_c, 2, 70, 64
1, 65236, Note_off_c, 2, 67, 64
1, 65236, Note_on_c, 2, 77, 100
1, 65236, Note_on_c, 2, 57, 100
1, 65380, Note_off_c, 2, 57, 64
1, 65380, Note_off_c, 2, 77, 64
1, 65380, Note_on_c, 2, 60, 100
1, 65380, Note_on_c, 2, 72, 100
1, 65524, Note_off_c, 2, 72, 64
1, 65524, Note_off_c, 2, 60, 64
1, 65524, Note_on_c, 2, 69, 100
1, 65524, Note_on_c, 2, 65, 100
1, 65668, Note_off_c, 2, 65, 64
1, 65668, Note_off_c, 2, 69, 64
1, 65668, Note_on_c, 2, 45, 100
1, 65668, Note_on_c, 2, 65, 100
1, 65812, Note_off_c, 2, 65, 64
1, 65812, Note_off_c, 2, 45, 64
1, 65812, Note_on_c, 2, 48, 100
1, 65812, Note_on_c, 2, 60, 100
1, 65956, Note_off_c, 2, 60, 64
1, 65956, Note_off_c, 2, 48, 64
1, 65956, Note_on_c, 2, 53, 100
1, 65956, Note_on_c, 2, 57, 100
1, 66100, Note_off_c, 2, 57, 64
1, 66100, Note_off_c, 2, 53, 64
1, 66100, Note_on_c, 2, 65, 100
1, 66100, Note_on_c, 2, 44, 100
1, 66244, Note_off_c, 2, 44, 64
1, 66244, Note_off_c, 2, 65, 64
1, 66244, Note_on_c, 2, 48, 100
1, 66244, Note_on_c, 2, 60, 100
1, 66388, Note_off_c, 2, 60, 64
1, 66388, Note_off_c, 2, 48, 64
1, 66388, Note_on_c, 2, 53, 100
1, 66388, Note_on_c, 2, 56, 100
1, 66532, Note_off_c, 2, 56, 64
1, 66532, Note_off_c, 2, 53, 64
1, 66532, Note_on_c, 2, 77, 100
1, 66532, Note_on_c, 2, 56, 100
1, 66676, Note_off_c, 2, 56, 64
1, 66676, Note_off_c, 2, 77, 64
1, 66676, Note_on_c, 2, 72, 100
1, 66676, Note_on_c, 2, 60, 100
1, 66820, Note_off_c, 2, 60, 64
1, 66820, Note_off_c, 2, 72, 64
1, 66820, Note_on_c, 2, 65, 100
1, 66820, Note_on_c, 2, 68, 100
1, 66964, Note_off_c, 2, 68, 64
1, 66964, Note_off_c, 2, 65, 64
1, 66964, Note_on_c, 2, 55, 100
1, 66964, Note_on_c, 2, 75, 100
1, 67108, Note_off_c, 2, 75, 64
1, 67108, Note_off_c, 2, 55, 64
1, 67108, Note_on_c, 2, 60, 100
1, 67108, Note_on_c, 2, 72, 100
1, 67252, Note_off_c, 2, 72, 64
1, 67252, Note_off_c, 2, 60, 64
1, 67252, Note_on_c, 2, 63, 100
1, 67252, Note_on_c, 2, 67, 100
1, 67396, Note_off_c, 2, 67, 64
1, 67396, Note_off_c, 2, 63, 64
1, 67396, Note_on_c, 2, 75, 100
1, 67396, Note_on_c, 2, 63, 100
1, 67396, Note_on_c, 2, 36, 100
1, 67396, Note_on_c, 2, 48, 100
1, 67540, Note_off_c, 2, 48, 64
1, 67540, Note_off_c, 2, 36, 64
1, 67540, Note_off_c, 2, 63, 64
1, 67540, Note_off_c, 2, 75, 64
1, 67540, Note_on_c, 2, 43, 100
1, 67540, Note_on_c, 2, 69, 100
1, 67684, Note_off_c, 2, 69, 64
1, 67684, Note_off_c, 2, 43, 64
1, 67684, Note_on_c, 2, 67, 100
1, 67684, Note_on_c, 2, 45, 100
1, 67828, Note_off_c, 2, 45, 64
1, 67828, Note_off_c, 2, 67, 64
1, 67828, Note_on_c, 2, 74, 100
1, 67828, Note_on_c, 2, 62, 100
1, 67828, Note_on_c, 2, 38, 100
1, 67828, Note_on_c, 2, 50, 100
1, 67972, Note_off_c, 2, 50, 64
1, 67972, Note_off_c, 2, 38, 64
1, 67972, Note_off_c, 2, 62, 64
1, 67972, Note_off_c, 2, 74, 64
1, 67972, Note_on_c, 2, 70, 100
1, 67972, Note_on_c, 2, 43, 100
1, 68116, Note_off_c, 2, 43, 64
1, 68116, Note_off_c, 2, 70, 64
1, 68116, Note_on_c, 2, 67, 100
1, 68116, Note_on_c, 2, 46, 100
1, 68260, Note_off_c, 2, 46, 64
1, 68260, Note_off_c, 2, 67, 64
1, 68260, Note_on_c, 2, 74, 100
1, 68260, Note_on_c, 2, 62, 100
1, 68260, Note_on_c, 2, 50, 100
1, 68260, Note_on_c, 2, 38, 100
1, 68404, Note_off_c, 2, 38, 64
1, 68404, Note_off_c, 2, 50, 64
1, 68404, Note_off_c, 2, 62, 64
1, 68404, Note_off_c, 2, 74, 64
1, 68404, Note_on_c, 2, 42, 100
1, 68404, Note_on_c, 2, 69, 100
1, 68548, Note_off_c, 2, 69, 64
1, 68548, Note_off_c, 2, 42, 64
1, 68548, Note_on_c, 2, 44, 100
1, 68548, Note_on_c, 2, 66, 100
1, 68692, Note_off_c, 2, 66, 64
1, 68692, Note_off_c, 2, 44, 64
1, 68692, Note_on_c, 2, 31, 100
1, 68692, Note_on_c, 2, 43, 100
1, 68692, Note_on_c, 2, 67, 100
1, 68836, Note_off_c, 2, 67, 64
1, 68836, Note_off_c, 2, 43, 64
1, 68836, Note_off_c, 2, 31, 64
1, 68836, Note_on_c, 2, 39, 100
1, 68980, Note_off_c, 2, 39, 64
1, 68980, Note_on_c, 2, 38, 100
1, 69124, Note_off_c, 2, 38, 64
1, 69124, Note_on_c, 2, 36, 100
1, 69196, Note_on_c, 2, 48, 100
1, 69268, Note_off_c, 2, 36, 64
1, 69268, Note_on_c, 2, 39, 100
1, 69340, Note_off_c, 2, 48, 64
1, 69340, Note_on_c, 2, 51, 100
1, 69412, Note_off_c, 2, 39, 64
1, 69412, Note_on_c, 2, 43, 100
1, 69484, Note_off_c, 2, 51, 64
1, 69484, Note_on_c, 2, 55, 100
1, 69556, Note_off_c, 2, 43, 64
1, 69556, Note_on_c, 2, 48, 100
1, 69628, Note_off_c, 2, 55, 64
1, 69628, Note_on_c, 2, 60, 100
1, 69700, Note_off_c, 2, 48, 64
1, 69700, Note_on_c, 2, 51, 100
1, 69772, Note_off_c, 2, 60, 64
1, 69772, Note_on_c, 2, 63, 100
1, 69844, Note_off_c, 2, 51, 64
1, 69844, Note_on_c, 2, 55, 100
1, 69916, Note_off_c, 2, 63, 64
1, 69916, Note_on_c, 2, 67, 100
1, 69988, Note_off_c, 2, 67, 64
1, 69988, Note_off_c, 2, 55, 64
1, 69988, Note_on_c, 2, 60, 100
1, 70060, Note_on_c, 2, 79, 100
1, 70132, Note_off_c, 2, 60, 64
1, 70132, Note_on_c, 2, 63, 100
1, 70204, Note_off_c, 2, 79, 64
1, 70204, Note_on_c, 2, 75, 100
1, 70276, Note_off_c, 2, 63, 64
1, 70276, Note_on_c, 2, 67, 100
1, 70348, Note_off_c, 2, 75, 64
1, 70348, Note_on_c, 2, 72, 100
1, 70420, Note_off_c, 2, 72, 64
1, 70420, Note_off_c, 2, 67, 64
1, 70420, Note_on_c, 2, 59, 100
1, 70492, Note_on_c, 2, 79, 100
1, 70564, Note_off_c, 2, 59, 64
1, 70564, Note_on_c, 2, 62, 100
1, 70636, Note_off_c, 2, 79, 64
1, 70636, Note_on_c, 2, 74, 100
1, 70708, Note_off_c, 2, 62, 64
1, 70708, Note_on_c, 2, 67, 100
1, 70780, Note_off_c, 2, 74, 64
1, 70780, Note_on_c, 2, 71, 100
1, 70852, Note_off_c, 2, 71, 64
1, 70852, Note_off_c, 2, 67, 64
1, 70852, Note_on_c, 2, 47, 100
1, 70924, Note_on_c, 2, 67, 100
1, 70996, Note_off_c, 2, 47, 64
1, 70996, Note_on_c, 2, 50, 100
1, 71068, Note_off_c, 2, 67, 64
1, 71068, Note_on_c, 2, 62, 100
1, 71140, Note_off_c, 2, 50, 64
1, 71140, Note_on_c, 2, 55, 100
1, 71212, Note_off_c, 2, 62, 64
1, 71212, Note_on_c, 2, 59, 100
1, 71284, Note_off_c, 2, 55, 64
1, 71284, Note_off_c, 2, 59, 64
1, 71284, Note_on_c, 2, 46, 100
1, 71356, Note_on_c, 2, 67, 100
1, 71428, Note_off_c, 2, 46, 64
1, 71428, Note_on_c, 2, 50, 100
1, 71500, Note_off_c, 2, 67, 64
1, 71500, Note_on_c, 2, 62, 100
1, 71572, Note_off_c, 2, 50, 64
1, 71572, Note_on_c, 2, 55, 100
1, 71644, Note_off_c, 2, 62, 64
1, 71644, Note_on_c, 2, 58, 100
1, 71716, Note_off_c, 2, 58, 64
1, 71716, Note_off_c, 2, 55, 64
1, 71716, Note_on_c, 2, 58, 100
1, 71788, Note_on_c, 2, 79, 100
1, 71860, Note_off_c, 2, 58, 64
1, 71860, Note_on_c, 2, 62, 100
1, 71932, Note_off_c, 2, 79, 64
1, 71932, Note_on_c, 2, 74, 100
1, 72004, Note_off_c, 2, 62, 64
1, 72004, Note_on_c, 2, 67, 100
1, 72076, Note_off_c, 2, 74, 64
1, 72076, Note_on_c, 2, 70, 100
1, 72148, Note_off_c, 2, 70, 64
1, 72148, Note_off_c, 2, 67, 64
1, 72148, Note_on_c, 2, 57, 100
1, 72220, Note_on_c, 2, 77, 100
1, 72292, Note_off_c, 2, 57, 64
1, 72292, Note_on_c, 2, 60, 100
1, 72364, Note_off_c, 2, 77, 64
1, 72364, Note_on_c, 2, 72, 100
1, 72436, Note_off_c, 2, 60, 64
1, 72436, Note_on_c, 2, 65, 100
1, 72508, Note_off_c, 2, 72, 64
1, 72508, Note_on_c, 2, 69, 100
1, 72580, Note_off_c, 2, 69, 64
1, 72580, Note_off_c, 2, 65, 64
1, 72580, Note_on_c, 2, 45, 100
1, 72652, Note_on_c, 2, 65, 100
1, 72724, Note_off_c, 2, 45, 64
1, 72724, Note_on_c, 2, 48, 100
1, 72796, Note_off_c, 2, 65, 64
1, 72796, Note_on_c, 2, 60, 100
1, 72868, Note_off_c, 2, 48, 64
1, 72868, Note_on_c, 2, 53, 100
1, 72940, Note_off_c, 2, 60, 64
1, 72940, Note_on_c, 2, 57, 100
1, 73012, Note_off_c, 2, 57, 64
1, 73012, Note_off_c, 2, 53, 64
1, 73012, Note_on_c, 2, 44, 100
1, 73084, Note_on_c, 2, 65, 100
1, 73156, Note_off_c, 2, 44, 64
1, 73156, Note_on_c, 2, 48, 100
1, 73228, Note_off_c, 2, 65, 64
1, 73228, Note_on_c, 2, 60, 100
1, 73300, Note_off_c, 2, 48, 64
1, 73300, Note_on_c, 2, 53, 100
1, 73372, Note_off_c, 2, 60, 64
1, 73372, Note_on_c, 2, 56, 100
1, 73444, Note_off_c, 2, 53, 64
1, 73444, Note_off_c, 2, 56, 64
1, 73444, Note_on_c, 2, 56, 100
1, 73516, Note_on_c, 2, 77, 100
1, 73588, Note_off_c, 2, 56, 64
1, 73588, Note_on_c, 2, 60, 100
1, 73660, Note_off_c, 2, 77, 64
1, 73660, Note_on_c, 2, 72, 100
1, 73732, Note_off_c, 2, 60, 64
1, 73732, Note_on_c, 2, 65, 100
1, 73804, Note_off_c, 2, 72, 64
1, 73804, Note_on_c, 2, 68, 100
1, 73876, Note_off_c, 2, 68, 64
1, 73876, Note_off_c, 2, 65, 64
1, 73876, Note_on_c, 2, 55, 100
1, 73948, Note_on_c, 2, 75, 100
1, 74020, Note_off_c, 2, 55, 64
1, 74020, Note_on_c, 2, 60, 100
1, 74092, Note_off_c, 2, 75, 64
1, 74092, Note_on_c, 2, 72, 100
1, 74164, Note_off_c, 2, 60, 64
1, 74164, Note_on_c, 2, 63, 100
1, 74236, Note_off_c, 2, 72, 64
1, 74236, Note_on_c, 2, 67, 100
1, 74308, Note_off_c, 2, 67, 64
1, 74308, Note_off_c, 2, 63, 64
1, 74308, Note_on_c, 2, 36, 100
1, 74308, Note_on_c, 2, 48, 100
1, 74380, Note_on_c, 2, 75, 100
1, 74380, Note_on_c, 2, 63, 100
1, 74452, Note_off_c, 2, 48, 64
1, 74452, Note_off_c, 2, 36, 64
1, 74452, Note_on_c, 2, 43, 100
1, 74524, Note_off_c, 2, 63, 64
1, 74524, Note_off_c, 2, 75, 64
1, 74524, Note_on_c, 2, 69, 100
1, 74596, Note_off_c, 2, 43, 64
1, 74596, Note_on_c, 2, 45, 100
1, 74668, Note_off_c, 2, 69, 64
1, 74668, Note_on_c, 2, 67, 100
1, 74740, Note_off_c, 2, 67, 64
1, 74740, Note_off_c, 2, 45, 64
1, 74740, Note_on_c, 2, 50, 100
1, 74740, Note_on_c, 2, 38, 100
1, 74812, Note_on_c, 2, 62, 100
1, 74812, Note_on_c, 2, 74, 100
1, 74884, Note_off_c, 2, 38, 64
1, 74884, Note_off_c, 2, 50, 64
1, 74884, Note_on_c, 2, 43, 100
1, 74956, Note_off_c, 2, 74, 64
1, 74956, Note_off_c, 2, 62, 64
1, 74956, Note_on_c, 2, 70, 100
1, 75028, Note_off_c, 2, 43, 64
1, 75028, Note_on_c, 2, 46, 100
1, 75100, Note_off_c, 2, 70, 64
1, 75100, Note_on_c, 2, 67, 100
1, 75172, Note_off_c, 2, 67, 64
1, 75172, Note_off_c, 2, 46, 64
1, 75172, Note_on_c, 2, 38, 100
1, 75172, Note_on_c, 2, 50, 100
1, 75244, Note_on_c, 2, 74, 100
1, 75244, Note_on_c, 2, 62, 100
1, 75316, Note_off_c, 2, 50, 64
1, 75316, Note_off_c, 2, 38, 64
1, 75316, Note_on_c, 2, 42, 100
1, 75388, Note_off_c, 2, 62, 64
1, 75388, Note_off_c, 2, 74, 64
1, 75388, Note_on_c, 2, 69, 100
1, 75460, Note_off_c, 2, 42, 64
1, 75460, Note_on_c, 2, 45, 100
1, 75532, Note_off_c, 2, 69, 64
1, 75532, Note_on_c, 2, 66, 100
1, 75604, Note_off_c, 2, 45, 64
1, 75604, Note_off_c, 2, 66, 64
1, 75604, Note_on_c, 2, 31, 100
1, 75604, Note_on_c, 2, 43, 100
1, 75604, Note_on_c, 2, 67, 100
1, 75748, Note_off_c, 2, 67, 64
1, 75748, Note_off_c, 2, 43, 64
1, 75748, Note_off_c, 2, 31, 64
1, 75748, Note_on_c, 2, 41, 100
1, 75892, Note_off_c, 2, 41, 64
1, 75892, Note_on_c, 2, 40, 100
1, 76036, Note_off_c, 2, 40, 64
1, 76036, Note_on_c, 2, 37, 100
1, 76108, Note_on_c, 2, 58, 100
1, 76180, Note_off_c, 2, 37, 64
1, 76180, Note_on_c, 2, 41, 100
1, 76252, Note_off_c, 2, 58, 64
1, 76252, Note_on_c, 2, 53, 100
1, 76324, Note_off_c, 2, 41, 64
1, 76324, Note_on_c, 2, 46, 100
1, 76396, Note_off_c, 2, 53, 64
1, 76396, Note_on_c, 2, 49, 100
1, 76468, Note_off_c, 2, 49, 64
1, 76468, Note_off_c, 2, 46, 64
1, 76468, Note_on_c, 2, 36, 100
1, 76540, Note_on_c, 2, 58, 100
1, 76612, Note_off_c, 2, 36, 64
1, 76612, Note_on_c, 2, 40, 100
1, 76684, Note_off_c, 2, 58, 64
1, 76684, Note_on_c, 2, 52, 100
1, 76756, Note_off_c, 2, 40, 64
1, 76756, Note_on_c, 2, 46, 100
1, 76828, Note_off_c, 2, 52, 64
1, 76828, Note_on_c, 2, 48, 100
1, 76900, Note_off_c, 2, 48, 64
1, 76900, Note_off_c, 2, 46, 64
1, 76900, Note_on_c, 2, 40, 100
1, 76972, Note_on_c, 2, 70, 100
1, 77044, Note_off_c, 2, 40, 64
1, 77044, Note_on_c, 2, 43, 100
1, 77116, Note_off_c, 2, 70, 64
1, 77116, Note_on_c, 2, 67, 100
1, 77188, Note_off_c, 2, 43, 64
1, 77188, Note_on_c, 2, 48, 100
1, 77260, Note_off_c, 2, 67, 64
1, 77260, Note_on_c, 2, 60, 100
1, 77332, Note_off_c, 2, 48, 64
1, 77332, Note_on_c, 2, 41, 100
1, 77400, Note_on_c, 2, 68, 100
1, 77404, Note_off_c, 2, 60, 64
1, 77476, Note_off_c, 2, 41, 64
1, 77476, Note_on_c, 2, 44, 100
1, 77544, Note_off_c, 2, 68, 64
1, 77544, Note_on_c, 2, 65, 100
1, 77620, Note_off_c, 2, 44, 64
1, 77620, Note_on_c, 2, 48, 100
1, 77688, Note_off_c, 2, 65, 64
1, 77692, Note_on_c, 2, 60, 100
1, 77764, Note_off_c, 2, 48, 64
1, 77764, Note_off_c, 2, 60, 64
1, 77764, Note_on_c, 2, 36, 100
1, 77836, Note_on_c, 2, 56, 100
1, 77908, Note_off_c, 2, 36, 64
1, 77908, Note_on_c, 2, 39, 100
1, 77980, Note_off_c, 2, 56, 64
1, 77980, Note_on_c, 2, 51, 100
1, 78052, Note_off_c, 2, 39, 64
1, 78052, Note_on_c, 2, 44, 100
1, 78124, Note_off_c, 2, 51, 64
1, 78124, Note_on_c, 2, 48, 100
1, 78196, Note_off_c, 2, 48, 64
1, 78196, Note_off_c, 2, 44, 64
1, 78196, Note_on_c, 2, 35, 100
1, 78268, Note_on_c, 2, 55, 100
1, 78340, Note_off_c, 2, 35, 64
1, 78340, Note_on_c, 2, 38, 100
1, 78412, Note_off_c, 2, 55, 64
1, 78412, Note_on_c, 2, 50, 100
1, 78484, Note_off_c, 2, 38, 64
1, 78484, Note_on_c, 2, 43, 100
1, 78556, Note_off_c, 2, 50, 64
1, 78556, Note_on_c, 2, 47, 100
1, 78628, Note_off_c, 2, 47, 64
1, 78628, Note_off_c, 2, 43, 64
1, 78628, Note_on_c, 2, 47, 100
1, 78700, Note_on_c, 2, 77, 100
1, 78772, Note_off_c, 2, 47, 64
1, 78772, Note_on_c, 2, 50, 100
1, 78844, Note_off_c, 2, 77, 64
1, 78844, Note_on_c, 2, 74, 100
1, 78916, Note_off_c, 2, 50, 64
1, 78916, Note_on_c, 2, 55, 100
1, 78988, Note_off_c, 2, 74, 64
1, 78988, Note_on_c, 2, 67, 100
1, 79060, Note_off_c, 2, 67, 64
1, 79060, Note_off_c, 2, 55, 64
1, 79060, Note_on_c, 2, 48, 100
1, 79132, Note_on_c, 2, 75, 100
1, 79204, Note_off_c, 2, 48, 64
1, 79204, Note_on_c, 2, 51, 100
1, 79276, Note_off_c, 2, 75, 64
1, 79276, Note_on_c, 2, 72, 100
1, 79348, Note_off_c, 2, 51, 64
1, 79348, Note_on_c, 2, 55, 100
1, 79420, Note_off_c, 2, 72, 64
1, 79420, Note_on_c, 2, 67, 100
1, 79492, Note_off_c, 2, 67, 64
1, 79492, Note_off_c, 2, 55, 64
1, 79492, Note_on_c, 2, 36, 100
1, 79564, Note_on_c, 2, 48, 100
1, 79636, Note_off_c, 2, 36, 64
1, 79636, Note_on_c, 2, 39, 100
1, 79708, Note_off_c, 2, 48, 64
1, 79708, Note_on_c, 2, 51, 100
1, 79780, Note_off_c, 2, 39, 64
1, 79780, Note_on_c, 2, 43, 100
1, 79852, Note_off_c, 2, 51, 64
1, 79852, Note_on_c, 2, 55, 100
1, 79924, Note_off_c, 2, 43, 64
1, 79924, Note_off_c, 2, 55, 64
1, 79924, Note_on_c, 2, 48, 100
1, 79996, Note_on_c, 2, 60, 100
1, 80068, Note_off_c, 2, 48, 64
1, 80068, Note_on_c, 2, 51, 100
1, 80140, Note_off_c, 2, 60, 64
1, 80140, Note_on_c, 2, 63, 100
1, 80212, Note_off_c, 2, 51, 64
1, 80212, Note_on_c, 2, 55, 100
1, 80284, Note_off_c, 2, 63, 64
1, 80284, Note_on_c, 2, 67, 100
1, 80356, Note_off_c, 2, 67, 64
1, 80356, Note_off_c, 2, 55, 64
1, 80356, Note_on_c, 2, 60, 100
1, 80428, Note_on_c, 2, 80, 100
1, 80500, Note_off_c, 2, 60, 64
1, 80500, Note_on_c, 2, 63, 100
1, 80572, Note_off_c, 2, 80, 64
1, 80572, Note_on_c, 2, 75, 100
1, 80644, Note_off_c, 2, 63, 64
1, 80644, Note_on_c, 2, 68, 100
1, 80716, Note_off_c, 2, 75, 64
1, 80716, Note_on_c, 2, 72, 100
1, 80788, Note_off_c, 2, 72, 64
1, 80788, Note_off_c, 2, 68, 64
1, 80788, Note_on_c, 2, 59, 100
1, 80860, Note_on_c, 2, 80, 100
1, 80932, Note_off_c, 2, 59, 64
1, 80932, Note_on_c, 2, 62, 100
1, 81004, Note_off_c, 2, 80, 64
1, 81004, Note_on_c, 2, 74, 100
1, 81076, Note_off_c, 2, 62, 64
1, 81076, Note_on_c, 2, 68, 100
1, 81148, Note_off_c, 2, 74, 64
1, 81148, Note_on_c, 2, 71, 100
1, 81220, Note_off_c, 2, 71, 64
1, 81220, Note_off_c, 2, 68, 64
1, 81220, Note_on_c, 2, 47, 100
1, 81292, Note_on_c, 2, 68, 100
1, 81364, Note_off_c, 2, 47, 64
1, 81364, Note_on_c, 2, 50, 100
1, 81436, Note_off_c, 2, 68, 64
1, 81436, Note_on_c, 2, 62, 100
1, 81508, Note_off_c, 2, 50, 64
1, 81508, Note_on_c, 2, 56, 100
1, 81580, Note_off_c, 2, 62, 64
1, 81580, Note_on_c, 2, 59, 100
1, 81652, Note_off_c, 2, 59, 64
1, 81652, Note_off_c, 2, 56, 64
1, 81652, Note_on_c, 2, 46, 100
1, 81724, Note_on_c, 2, 67, 100
1, 81796, Note_off_c, 2, 46, 64
1, 81796, Note_on_c, 2, 50, 100
1, 81868, Note_off_c, 2, 67, 64
1, 81868, Note_on_c, 2, 62, 100
1, 81940, Note_off_c, 2, 50, 64
1, 81940, Note_on_c, 2, 55, 100
1, 82012, Note_off_c, 2, 62, 64
1, 82012, Note_on_c, 2, 58, 100
1, 82084, Note_off_c, 2, 55, 64
1, 82084, Note_off_c, 2, 58, 64
1, 82084, Note_on_c, 2, 58, 100
1, 82156, Note_on_c, 2, 79, 100
1, 82228, Note_off_c, 2, 58, 64
1, 82228, Note_on_c, 2, 62, 100
1, 82300, Note_off_c, 2, 79, 64
1, 82300, Note_on_c, 2, 74, 100
1, 82372, Note_off_c, 2, 62, 64
1, 82372, Note_on_c, 2, 67, 100
1, 82444, Note_off_c, 2, 74, 64
1, 82444, Note_on_c, 2, 70, 100
1, 82516, Note_off_c, 2, 70, 64
1, 82516, Note_off_c, 2, 67, 64
1, 82516, Note_on_c, 2, 57, 100
1, 82588, Note_on_c, 2, 79, 100
1, 82660, Note_off_c, 2, 57, 64
1, 82660, Note_on_c, 2, 60, 100
1, 82732, Note_off_c, 2, 79, 64
1, 82732, Note_on_c, 2, 72, 100
1, 82804, Note_off_c, 2, 60, 64
1, 82804, Note_on_c, 2, 67, 100
1, 82876, Note_off_c, 2, 72, 64
1, 82876, Note_on_c, 2, 69, 100
1, 82948, Note_off_c, 2, 69, 64
1, 82948, Note_off_c, 2, 67, 64
1, 82948, Note_on_c, 2, 45, 100
1, 83020, Note_on_c, 2, 67, 100
1, 83092, Note_off_c, 2, 45, 64
1, 83092, Note_on_c, 2, 48, 100
1, 83164, Note_off_c, 2, 67, 64
1, 83164, Note_on_c, 2, 60, 100
1, 83236, Note_off_c, 2, 48, 64
1, 83236, Note_on_c, 2, 55, 100
1, 83308, Note_off_c, 2, 60, 64
1, 83308, Note_on_c, 2, 57, 100
1, 83380, Note_off_c, 2, 57, 64
1, 83380, Note_off_c, 2, 55, 64
1, 83380, Note_on_c, 2, 44, 100
1, 83452, Note_on_c, 2, 65, 100
1, 83524, Note_off_c, 2, 44, 64
1, 83524, Note_on_c, 2, 48, 100
1, 83596, Note_off_c, 2, 65, 64
1, 83596, Note_on_c, 2, 60, 100
1, 83668, Note_off_c, 2, 48, 64
1, 83668, Note_on_c, 2, 53, 100
1, 83740, Note_off_c, 2, 60, 64
1, 83740, Note_on_c, 2, 56, 100
1, 83812, Note_off_c, 2, 56, 64
1, 83812, Note_off_c, 2, 53, 64
1, 83812, Note_on_c, 2, 56, 100
1, 83884, Note_on_c, 2, 77, 100
1, 83956, Note_off_c, 2, 56, 64
1, 83956, Note_on_c, 2, 60, 100
1, 84028, Note_off_c, 2, 77, 64
1, 84028, Note_on_c, 2, 72, 100
1, 84100, Note_off_c, 2, 60, 64
1, 84100, Note_on_c, 2, 65, 100
1, 84172, Note_off_c, 2, 72, 64
1, 84172, Note_on_c, 2, 68, 100
1, 84244, Note_off_c, 2, 65, 64
1, 84244, Note_off_c, 2, 68, 64
1, 84244, Note_on_c, 2, 55, 100
1, 84316, Note_on_c, 2, 75, 100
1, 84388, Note_off_c, 2, 55, 64
1, 84388, Note_on_c, 2, 60, 100
1, 84460, Note_off_c, 2, 75, 64
1, 84460, Note_on_c, 2, 72, 100
1, 84532, Note_off_c, 2, 60, 64
1, 84532, Note_on_c, 2, 63, 100
1, 84604, Note_off_c, 2, 72, 64
1, 84604, Note_on_c, 2, 67, 100
1, 84676, Note_off_c, 2, 67, 64
1, 84676, Note_off_c, 2, 63, 64
1, 84676, Note_on_c, 2, 54, 100
1, 84676, Note_on_c, 2, 42, 100
1, 84748, Note_on_c, 2, 72, 100
1, 84748, Note_on_c, 2, 60, 100
1, 84820, Note_off_c, 2, 42, 64
1, 84820, Note_off_c, 2, 54, 64
1, 84820, Note_on_c, 2, 48, 100
1, 84892, Note_off_c, 2, 60, 64
1, 84892, Note_off_c, 2, 72, 64
1, 84892, Note_on_c, 2, 69, 100
1, 84964, Note_off_c, 2, 48, 64
1, 84964, Note_on_c, 2, 51, 100
1, 85036, Note_off_c, 2, 69, 64
1, 85036, Note_on_c, 2, 63, 100
1, 85108, Note_off_c, 2, 63, 64
1, 85108, Note_off_c, 2, 51, 64
1, 85108, Note_on_c, 2, 43, 100
1, 85108, Note_on_c, 2, 55, 100
1, 85180, Note_on_c, 2, 72, 100
1, 85180, Note_on_c, 2, 60, 100
1, 85252, Note_off_c, 2, 55, 64
1, 85252, Note_off_c, 2, 43, 64
1, 85252, Note_on_c, 2, 48, 100
1, 85324, Note_off_c, 2, 60, 64
1, 85324, Note_off_c, 2, 72, 64
1, 85324, Note_on_c, 2, 67, 100
1, 85396, Note_off_c, 2, 48, 64
1, 85396, Note_on_c, 2, 51, 100
1, 85468, Note_off_c, 2, 67, 64
1, 85468, Note_on_c, 2, 63, 100
1, 85540, Note_off_c, 2, 63, 64
1, 85540, Note_off_c, 2, 51, 64
1, 85540, Note_on_c, 2, 55, 100
1, 85540, Note_on_c, 2, 43, 100
1, 85612, Note_on_c, 2, 59, 100
1, 85612, Note_on_c, 2, 71, 100
1, 85684, Note_off_c, 2, 43, 64
1, 85684, Note_off_c, 2, 55, 64
1, 85684, Note_on_c, 2, 47, 100
1, 85756, Note_off_c, 2, 71, 64
1, 85756, Note_off_c, 2, 59, 64
1, 85756, Note_on_c, 2, 67, 100
1, 85828, Note_off_c, 2, 47, 64
1, 85828, Note_on_c, 2, 50, 100
1, 85900, Note_off_c, 2, 67, 64
1, 85900, Note_on_c, 2, 62, 100
1, 85972, Note_off_c, 2, 62, 64
1, 85972, Note_off_c, 2, 50, 64
1, 85972, Note_on_c, 2, 36, 100
1, 85972, Note_on_c, 2, 48, 100
1, 86044, Note_on_c, 2, 72, 100
1, 86044, Note_on_c, 2, 60, 100
1, 86116, Note_off_c, 2, 48, 64
1, 86116, Note_off_c, 2, 36, 64
1, 86116, Note_on_c, 2, 40, 100
1, 86188, Note_off_c, 2, 60, 64
1, 86188, Note_off_c, 2, 72, 64
1, 86188, Note_on_c, 2, 67, 100
1, 86260, Note_off_c, 2, 40, 64
1, 86260, Note_on_c, 2, 43, 100
1, 86332, Note_off_c, 2, 67, 64
1, 86332, Note_on_c, 2, 62, 100
1, 86404, Note_off_c, 2, 43, 64
1, 86404, Note_off_c, 2, 62, 64
1, 86404, Note_on_c, 2, 36, 100
1, 86404, Note_on_c, 2, 48, 100
1, 86476, Note_on_c, 2, 72, 100
1, 86476, Note_on_c, 2, 60, 100
1, 86548, Note_off_c, 2, 48, 64
1, 86548, Note_off_c, 2, 36, 64
1, 86548, Note_on_c, 2, 41, 100
1, 86620, Note_off_c, 2, 60, 64
1, 86620, Note_off_c, 2, 72, 64
1, 86620, Note_on_c, 2, 68, 100
1, 86692, Note_off_c, 2, 41, 64
1, 86692, Note_on_c, 2, 44, 100
1, 86764, Note_off_c, 2, 68, 64
1, 86764, Note_on_c, 2, 65, 100
1, 86836, Note_off_c, 2, 65, 64
1, 86836, Note_off_c, 2, 44, 64
1, 86836, Note_on_c, 2, 36, 100
1, 86836, Note_on_c, 2, 48, 100
1, 86908, Note_on_c, 2, 72, 100
1, 86908, Note_on_c, 2, 60, 100
1, 86980, Note_off_c, 2, 48, 64
1, 86980, Note_off_c, 2, 36, 64
1, 86980, Note_on_c, 2, 43, 100
1, 87052, Note_off_c, 2, 60, 64
1, 87052, Note_off_c, 2, 72, 64
1, 87052, Note_on_c, 2, 70, 100
1, 87124, Note_off_c, 2, 43, 64
1, 87124, Note_on_c, 2, 46, 100
1, 87196, Note_off_c, 2, 70, 64
1, 87196, Note_on_c, 2, 67, 100
1, 87268, Note_off_c, 2, 67, 64
1, 87268, Note_off_c, 2, 46, 64
1, 87268, Note_on_c, 2, 36, 100
1, 87268, Note_on_c, 2, 48, 100
1, 87340, Note_on_c, 2, 72, 100
1, 87340, Note_on_c, 2, 60, 100
1, 87412, Note_off_c, 2, 48, 64
1, 87412, Note_off_c, 2, 36, 64
1, 87412, Note_on_c, 2, 41, 100
1, 87484, Note_off_c, 2, 60, 64
1, 87484, Note_off_c, 2, 72, 64
1, 87484, Note_on_c, 2, 68, 100
1, 87556, Note_off_c, 2, 41, 64
1, 87556, Note_on_c, 2, 44, 100
1, 87628, Note_off_c, 2, 68, 64
1, 87628, Note_on_c, 2, 65, 100
1, 87700, Note_off_c, 2, 65, 64
1, 87700, Note_off_c, 2, 44, 64
1, 87700, Note_on_c, 2, 67, 100
1, 87700, Note_on_c, 2, 55, 100
1, 87768, Note_on_c, 2, 72, 100
1, 87772, Note_on_c, 2, 84, 100
1, 87844, Note_off_c, 2, 55, 64
1, 87844, Note_off_c, 2, 67, 64
1, 87844, Note_on_c, 2, 64, 100
1, 87844, Note_on_c, 2, 52, 100
1, 87912, Note_off_c, 2, 72, 64
1, 87916, Note_off_c, 2, 84, 64
1, 87916, Note_on_c, 2, 76, 100
1, 87988, Note_off_c, 2, 52, 64
1, 87988, Note_off_c, 2, 64, 64
1, 87988, Note_on_c, 2, 60, 100
1, 87988, Note_on_c, 2, 48, 100
1, 88060, Note_off_c, 2, 76, 64
1, 88060, Note_on_c, 2, 79, 100
1, 88132, Note_off_c, 2, 79, 64
1, 88132, Note_off_c, 2, 48, 64
1, 88132, Note_off_c, 2, 60, 64
1, 88132, Note_on_c, 2, 68, 100
1, 88132, Note_on_c, 2, 56, 100
1, 88204, Note_on_c, 2, 84, 100
1, 88204, Note_on_c, 2, 72, 100
1, 88276, Note_off_c, 2, 56, 64
1, 88276, Note_off_c, 2, 68, 64
1, 88276, Note_on_c, 2, 53, 100
1, 88276, Note_on_c, 2, 65, 100
1, 88348, Note_off_c, 2, 72, 64
1, 88348, Note_off_c, 2, 84, 64
1, 88348, Note_on_c, 2, 77, 100
1, 88420, Note_off_c, 2, 65, 64
1, 88420, Note_off_c, 2, 53, 64
1, 88420, Note_on_c, 2, 48, 100
1, 88420, Note_on_c, 2, 60, 100
1, 88492, Note_off_c, 2, 77, 64
1, 88492, Note_on_c, 2, 80, 100
1, 88564, Note_off_c, 2, 60, 64
1, 88564, Note_off_c, 2, 48, 64
1, 88564, Note_off_c, 2, 80, 64
1, 88564, Note_on_c, 2, 70, 100
1, 88564, Note_on_c, 2, 58, 100
1, 88636, Note_on_c, 2, 84, 100
1, 88636, Note_on_c, 2, 72, 100
1, 88708, Note_off_c, 2, 58, 64
1, 88708, Note_off_c, 2, 70, 64
1, 88708, Note_on_c, 2, 55, 100
1, 88708, Note_on_c, 2, 67, 100
1, 88780, Note_off_c, 2, 72, 64
1, 88780, Note_off_c, 2, 84, 64
1, 88780, Note_on_c, 2, 79, 100
1, 88852, Note_off_c, 2, 67, 64
1, 88852, Note_off_c, 2, 55, 64
1, 88852, Note_on_c, 2, 60, 100
1, 88852, Note_on_c, 2, 48, 100
1, 88924, Note_off_c, 2, 79, 64
1, 88924, Note_on_c, 2, 82, 100
1, 88996, Note_off_c, 2, 82, 64
1, 88996, Note_off_c, 2, 48, 64
1, 88996, Note_off_c, 2, 60, 64
1, 88996, Note_on_c, 2, 68, 100
1, 88996, Note_on_c, 2, 56, 100
1, 89068, Note_on_c, 2, 72, 100
1, 89068, Note_on_c, 2, 84, 100
1, 89140, Note_off_c, 2, 56, 64
1, 89140, Note_off_c, 2, 68, 64
1, 89140, Note_on_c, 2, 65, 100
1, 89140, Note_on_c, 2, 53, 100
1, 89212, Note_off_c, 2, 84, 64
1, 89212, Note_off_c, 2, 72, 64
1, 89212, Note_on_c, 2, 77, 100
1, 89284, Note_off_c, 2, 53, 64
1, 89284, Note_off_c, 2, 65, 64
1, 89284, Note_on_c, 2, 60, 100
1, 89284, Note_on_c, 2, 48, 100
1, 89356, Note_off_c, 2, 77, 64
1, 89356, Note_on_c, 2, 80, 100
1, 89428, Note_off_c, 2, 80, 64
1, 89428, Note_off_c, 2, 48, 64
1, 89428, Note_off_c, 2, 60, 64
1, 89428, Note_on_c, 2, 60, 100
1, 89428, Note_on_c, 2, 48, 100
1, 89500, Note_on_c, 2, 84, 100
1, 89500, Note_on_c, 2, 72, 100
1, 89572, Note_off_c, 2, 48, 64
1, 89572, Note_off_c, 2, 60, 64
1, 89572, Note_on_c, 2, 67, 100
1, 89644, Note_off_c, 2, 72, 64
1, 89644, Note_off_c, 2, 84, 64
1, 89644, Note_on_c, 2, 79, 100
1, 89716, Note_off_c, 2, 67, 64
1, 89716, Note_on_c, 2, 64, 100
1, 89788, Note_off_c, 2, 79, 64
1, 89788, Note_on_c, 2, 76, 100
1, 89860, Note_off_c, 2, 64, 64
1, 89860, Note_on_c, 2, 60, 100
1, 89932, Note_off_c, 2, 76, 64
1, 89932, Note_on_c, 2, 72, 100
1, 90004, Note_off_c, 2, 60, 64
1, 90004, Note_on_c, 2, 55, 100
1, 90076, Note_off_c, 2, 72, 64
1, 90076, Note_on_c, 2, 67, 100
1, 90148, Note_off_c, 2, 55, 64
1, 90148, Note_on_c, 2, 52, 100
1, 90220, Note_off_c, 2, 67, 64
1, 90220, Note_on_c, 2, 64, 100
1, 90292, Note_off_c, 2, 52, 64
1, 90292, Note_on_c, 2, 48, 100
1, 90364, Note_off_c, 2, 64, 64
1, 90364, Note_on_c, 2, 60, 100
1, 90436, Note_off_c, 2, 48, 64
1, 90436, Note_on_c, 2, 43, 100
1, 90508, Note_off_c, 2, 60, 64
1, 90508, Note_on_c, 2, 55, 100
1, 90580, Note_off_c, 2, 43, 64
1, 90580, Note_on_c, 2, 40, 100
1, 90652, Note_off_c, 2, 55, 64
1, 90652, Note_on_c, 2, 52, 100
1, 90724, Note_off_c, 2, 40, 64
1, 90724, Note_on_c, 2, 36, 100
1, 90796, Note_off_c, 2, 52, 64
1, 90796, Note_on_c, 2, 48, 100
1, 90868, Note_off_c, 2, 36, 64
1, 90868, Note_on_c, 2, 43, 100
1, 90940, Note_off_c, 2, 48, 64
1, 90940, Note_on_c, 2, 55, 100
1, 91012, Note_off_c, 2, 43, 64
1, 91012, Note_on_c, 2, 40, 100
1, 91084, Note_off_c, 2, 55, 64
1, 91084, Note_on_c, 2, 52, 100
1, 91156, Note_off_c, 2, 40, 64
1, 91156, Note_on_c, 2, 36, 100
1, 91228, Note_off_c, 2, 52, 64
1, 91300, Note_on_c, 2, 48, 100
1, 91444, Note_off_c, 2, 36, 64
1, 91588, Note_off_c, 2, 48, 64
1, 91588, End_track
0, 0, End_of_file