0, 0, Header, 1, 4, 120
1, 0, Start_track
1, 0, Time_signature, 2, 2, 24, 8
1, 0, Key_signature, -3, "major"
1, 0, Tempo, 625000
1, 4, Tempo, 2000000
1, 3840, Time_signature, 4, 2, 24, 8
1, 3964, Tempo, 265487
1, 127680, Tempo, 265487
1, 127692, Tempo, 266667
1, 127704, Tempo, 267857
1, 127714, Tempo, 269058
1, 127726, Tempo, 270270
1, 127736, Tempo, 271493
1, 127748, Tempo, 272727
1, 127758, Tempo, 273973
1, 127770, Tempo, 275229
1, 127782, Tempo, 276498
1, 127788, Tempo, 326087
1, 127792, Tempo, 320856
1, 127882, Tempo, 322581
1, 127972, Tempo, 324324
1, 128062, Tempo, 326087
1, 128150, Tempo, 327869
1, 128154, Tempo, 329670
1, 128158, Tempo, 327869
1, 128160, Tempo, 326087
1, 128164, Tempo, 324324
1, 128166, Tempo, 322581
1, 128170, Tempo, 320856
1, 128172, Tempo, 319149
1, 128176, Tempo, 317460
1, 128178, Tempo, 315789
1, 128182, Tempo, 314136
1, 128184, Tempo, 312500
1, 128188, Tempo, 310881
1, 128190, Tempo, 309278
1, 128194, Tempo, 307692
1, 128196, Tempo, 306122
1, 128200, Tempo, 304569
1, 128202, Tempo, 303030
1, 128206, Tempo, 301508
1, 128208, Tempo, 300000
1, 128212, Tempo, 298507
1, 128214, Tempo, 297030
1, 128218, Tempo, 295567
1, 128220, Tempo, 294118
1, 128224, Tempo, 292683
1, 128226, Tempo, 291262
1, 128230, Tempo, 289855
1, 128232, Tempo, 288462
1, 128236, Tempo, 287081
1, 128238, Tempo, 285714
1, 128240, Tempo, 271493
1, 128242, Tempo, 270270
1, 128244, Tempo, 269058
1, 128246, Tempo, 269058
1, 128248, Tempo, 266667
1, 128250, Tempo, 265487
1, 128252, Tempo, 266667
1, 135230, Tempo, 267857
1, 135256, Tempo, 269058
1, 135280, Tempo, 270270
1, 135304, Tempo, 271493
1, 135328, Tempo, 272727
1, 135352, Tempo, 273973
1, 135376, Tempo, 275229
1, 135400, Tempo, 276498
1, 135426, Tempo, 277778
1, 135450, Tempo, 279070
1, 135474, Tempo, 280374
1, 135498, Tempo, 281690
1, 135522, Tempo, 283019
1, 135546, Tempo, 284360
1, 135570, Tempo, 285714
1, 135594, Tempo, 287081
1, 135620, Tempo, 288462
1, 135644, Tempo, 289855
1, 135668, Tempo, 291262
1, 135692, Tempo, 292683
1, 135716, Tempo, 294118
1, 135740, Tempo, 295567
1, 135764, Tempo, 297030
1, 135790, Tempo, 298507
1, 135814, Tempo, 300000
1, 135838, Tempo, 301508
1, 135862, Tempo, 303030
1, 135886, Tempo, 304569
1, 135910, Tempo, 306122
1, 135934, Tempo, 307692
1, 135958, Tempo, 309278
1, 138132, Tempo, 265487
1, 138132, End_track
2, 0, Start_track
2, 0, MIDI_port, 0
2, 0, Title_t, "Piano"
2, 0, Program_c, 0, 0
2, 120, Note_on_c, 0, 63, 64
2, 120, Note_on_c, 0, 67, 64
2, 225, Note_on_c, 0, 67, 0
2, 225, Note_on_c, 0, 63, 0
2, 240, Note_on_c, 0, 58, 64
2, 240, Note_on_c, 0, 65, 64
2, 345, Note_on_c, 0, 65, 0
2, 345, Note_on_c, 0, 58, 0
2, 360, Note_on_c, 0, 55, 64
2, 360, Note_on_c, 0, 63, 64
2, 360, Note_on_c, 0, 36, 64
2, 360, Note_on_c, 0, 48, 64
2, 525, Note_on_c, 0, 48, 0
2, 525, Note_on_c, 0, 55, 0
2, 525, Note_on_c, 0, 63, 0
2, 525, Note_on_c, 0, 36, 0
2, 540, Note_on_c, 0, 63, 64
2, 540, Note_on_c, 0, 48, 64
2, 540, Note_on_c, 0, 51, 64
2, 579, Note_on_c, 0, 63, 0
2, 585, Note_on_c, 0, 68, 64
2, 592, Note_on_c, 0, 51, 0
2, 592, Note_on_c, 0, 48, 0
2, 598, Note_on_c, 0, 68, 0
2, 600, Note_on_c, 0, 67, 64
2, 600, Note_on_c, 0, 46, 64
2, 600, Note_on_c, 0, 52, 64
2, 652, Note_on_c, 0, 52, 0
2, 652, Note_on_c, 0, 46, 0
2, 652, Note_on_c, 0, 67, 0
2, 660, Note_on_c, 0, 67, 64
2, 660, Note_on_c, 0, 46, 64
2, 660, Note_on_c, 0, 52, 64
2, 699, Note_on_c, 0, 67, 0
2, 705, Note_on_c, 0, 73, 64
2, 712, Note_on_c, 0, 52, 0
2, 712, Note_on_c, 0, 46, 0
2, 718, Note_on_c, 0, 73, 0
2, 720, Note_on_c, 0, 72, 64
2, 720, Note_on_c, 0, 45, 64
2, 720, Note_on_c, 0, 53, 64
2, 772, Note_on_c, 0, 53, 0
2, 772, Note_on_c, 0, 45, 0
2, 772, Note_on_c, 0, 72, 0
2, 780, Note_on_c, 0, 72, 64
2, 780, Note_on_c, 0, 44, 64
2, 780, Note_on_c, 0, 54, 64
2, 819, Note_on_c, 0, 72, 0
2, 825, Note_on_c, 0, 75, 64
2, 828, Note_on_c, 0, 75, 0
2, 828, Note_on_c, 0, 74, 64
2, 832, Note_on_c, 0, 74, 0
2, 832, Note_on_c, 0, 54, 0
2, 832, Note_on_c, 0, 44, 0
2, 832, Note_on_c, 0, 72, 64
2, 835, Note_on_c, 0, 72, 0
2, 836, Note_on_c, 0, 74, 64
2, 839, Note_on_c, 0, 74, 0
2, 840, Note_on_c, 0, 75, 64
2, 840, Note_on_c, 0, 63, 64
2, 840, Note_on_c, 0, 55, 64
2, 840, Note_on_c, 0, 43, 64
2, 892, Note_on_c, 0, 55, 0
2, 892, Note_on_c, 0, 63, 0
2, 900, Note_on_c, 0, 63, 64
2, 900, Note_on_c, 0, 66, 64
2, 900, Note_on_c, 0, 57, 64
2, 918, Note_on_c, 0, 75, 0
2, 930, Note_on_c, 0, 72, 64
2, 952, Note_on_c, 0, 66, 0
2, 952, Note_on_c, 0, 57, 0
2, 952, Note_on_c, 0, 63, 0
2, 956, Note_on_c, 0, 72, 0
2, 960, Note_on_c, 0, 62, 64
2, 960, Note_on_c, 0, 67, 64
2, 960, Note_on_c, 0, 71, 64
2, 960, Note_on_c, 0, 59, 64
2, 1005, Note_on_c, 0, 43, 0
2, 1012, Note_on_c, 0, 71, 0
2, 1012, Note_on_c, 0, 62, 0
2, 1012, Note_on_c, 0, 67, 0
2, 1012, Note_on_c, 0, 59, 0
2, 1020, Note_on_c, 0, 79, 64
2, 1046, Note_on_c, 0, 79, 0
2, 1050, Note_on_c, 0, 87, 64
2, 1076, Note_on_c, 0, 87, 0
2, 1080, Note_on_c, 0, 87, 64
2, 1080, Note_on_c, 0, 75, 64
2, 1080, Note_on_c, 0, 67, 64
2, 1080, Note_on_c, 0, 55, 64
2, 1132, Note_on_c, 0, 67, 0
2, 1132, Note_on_c, 0, 75, 0
2, 1140, Note_on_c, 0, 75, 64
2, 1140, Note_on_c, 0, 78, 64
2, 1140, Note_on_c, 0, 69, 64
2, 1158, Note_on_c, 0, 87, 0
2, 1170, Note_on_c, 0, 84, 64
2, 1192, Note_on_c, 0, 78, 0
2, 1192, Note_on_c, 0, 69, 0
2, 1192, Note_on_c, 0, 75, 0
2, 1196, Note_on_c, 0, 84, 0
2, 1200, Note_on_c, 0, 83, 64
2, 1200, Note_on_c, 0, 74, 64
2, 1200, Note_on_c, 0, 79, 64
2, 1200, Note_on_c, 0, 71, 64
2, 1245, Note_on_c, 0, 55, 0
2, 1252, Note_on_c, 0, 79, 0
2, 1252, Note_on_c, 0, 83, 0
2, 1252, Note_on_c, 0, 74, 0
2, 1252, Note_on_c, 0, 71, 0
2, 1260, Note_on_c, 0, 82, 64
2, 1260, Note_on_c, 0, 74, 64
2, 1260, Note_on_c, 0, 79, 64
2, 1260, Note_on_c, 0, 70, 64
2, 1260, Note_on_c, 0, 67, 64
2, 1312, Note_on_c, 0, 67, 0
2, 1312, Note_on_c, 0, 79, 0
2, 1312, Note_on_c, 0, 82, 0
2, 1312, Note_on_c, 0, 74, 0
2, 1312, Note_on_c, 0, 70, 0
2, 1320, Note_on_c, 0, 82, 64
2, 1320, Note_on_c, 0, 74, 64
2, 1320, Note_on_c, 0, 70, 64
2, 1320, Note_on_c, 0, 65, 64
2, 1320, Note_on_c, 0, 68, 64
2, 1372, Note_on_c, 0, 68, 0
2, 1372, Note_on_c, 0, 74, 0
2, 1372, Note_on_c, 0, 65, 0
2, 1380, Note_on_c, 0, 75, 64
2, 1380, Note_on_c, 0, 63, 64
2, 1380, Note_on_c, 0, 67, 64
2, 1432, Note_on_c, 0, 67, 0
2, 1432, Note_on_c, 0, 75, 0
2, 1432, Note_on_c, 0, 63, 0
2, 1440, Note_on_c, 0, 77, 64
2, 1440, Note_on_c, 0, 62, 64
2, 1440, Note_on_c, 0, 65, 64
2, 1457, Note_on_c, 0, 82, 0
2, 1459, Note_on_c, 0, 70, 64
2, 1466, Note_on_c, 0, 77, 0
2, 1477, Note_on_c, 0, 70, 0
2, 1479, Note_on_c, 0, 72, 64
2, 1492, Note_on_c, 0, 70, 0
2, 1492, Note_on_c, 0, 65, 0
2, 1492, Note_on_c, 0, 62, 0
2, 1497, Note_on_c, 0, 72, 0
2, 1500, Note_on_c, 0, 69, 64
2, 1500, Note_on_c, 0, 58, 64
2, 1500, Note_on_c, 0, 62, 64
2, 1517, Note_on_c, 0, 69, 0
2, 1519, Note_on_c, 0, 70, 64
2, 1537, Note_on_c, 0, 70, 0
2, 1539, Note_on_c, 0, 68, 64
2, 1552, Note_on_c, 0, 62, 0
2, 1552, Note_on_c, 0, 58, 0
2, 1557, Note_on_c, 0, 68, 0
2, 1560, Note_on_c, 0, 58, 64
2, 1560, Note_on_c, 0, 61, 64
2, 1560, Note_on_c, 0, 64, 64
2, 1560, Note_on_c, 0, 67, 64
2, 1665, Note_on_c, 0, 67, 0
2, 1665, Note_on_c, 0, 58, 0
2, 1665, Note_on_c, 0, 61, 0
2, 1665, Note_on_c, 0, 64, 0
2, 1680, Note_on_c, 0, 56, 64
2, 1680, Note_on_c, 0, 62, 64
2, 1680, Note_on_c, 0, 65, 64
2, 1680, Note_on_c, 0, 34, 64
2, 1680, Note_on_c, 0, 46, 64
2, 1785, Note_on_c, 0, 46, 0
2, 1785, Note_on_c, 0, 65, 0
2, 1785, Note_on_c, 0, 56, 0
2, 1785, Note_on_c, 0, 62, 0
2, 1785, Note_on_c, 0, 34, 0
2, 1800, Note_on_c, 0, 54, 64
2, 1800, Note_on_c, 0, 63, 64
2, 1800, Note_on_c, 0, 35, 64
2, 1800, Note_on_c, 0, 47, 64
2, 1965, Note_on_c, 0, 47, 0
2, 1965, Note_on_c, 0, 54, 0
2, 1965, Note_on_c, 0, 63, 0
2, 1965, Note_on_c, 0, 35, 0
2, 1980, Note_on_c, 0, 66, 64
2, 1980, Note_on_c, 0, 63, 64
2, 1980, Note_on_c, 0, 47, 64
2, 1980, Note_on_c, 0, 54, 64
2, 2019, Note_on_c, 0, 66, 0
2, 2025, Note_on_c, 0, 71, 64
2, 2032, Note_on_c, 0, 63, 0
2, 2032, Note_on_c, 0, 54, 0
2, 2032, Note_on_c, 0, 47, 0
2, 2038, Note_on_c, 0, 71, 0
2, 2040, Note_on_c, 0, 71, 64
2, 2040, Note_on_c, 0, 64, 64
2, 2040, Note_on_c, 0, 49, 64
2, 2040, Note_on_c, 0, 54, 64
2, 2092, Note_on_c, 0, 54, 0
2, 2092, Note_on_c, 0, 71, 0
2, 2092, Note_on_c, 0, 64, 0
2, 2092, Note_on_c, 0, 49, 0
2, 2100, Note_on_c, 0, 70, 64
2, 2100, Note_on_c, 0, 64, 64
2, 2100, Note_on_c, 0, 49, 64
2, 2100, Note_on_c, 0, 54, 64
2, 2139, Note_on_c, 0, 70, 0
2, 2145, Note_on_c, 0, 76, 64
2, 2152, Note_on_c, 0, 64, 0
2, 2152, Note_on_c, 0, 54, 0
2, 2152, Note_on_c, 0, 49, 0
2, 2158, Note_on_c, 0, 76, 0
2, 2160, Note_on_c, 0, 75, 64
2, 2160, Note_on_c, 0, 63, 64
2, 2160, Note_on_c, 0, 47, 64
2, 2160, Note_on_c, 0, 54, 64
2, 2212, Note_on_c, 0, 54, 0
2, 2212, Note_on_c, 0, 75, 0
2, 2212, Note_on_c, 0, 63, 0
2, 2212, Note_on_c, 0, 47, 0
2, 2220, Note_on_c, 0, 75, 64
2, 2220, Note_on_c, 0, 46, 64
2, 2220, Note_on_c, 0, 54, 64
2, 2259, Note_on_c, 0, 75, 0
2, 2265, Note_on_c, 0, 78, 64
2, 2268, Note_on_c, 0, 78, 0
2, 2268, Note_on_c, 0, 77, 64
2, 2272, Note_on_c, 0, 77, 0
2, 2272, Note_on_c, 0, 46, 0
2, 2272, Note_on_c, 0, 75, 64
2, 2275, Note_on_c, 0, 75, 0
2, 2276, Note_on_c, 0, 77, 64
2, 2279, Note_on_c, 0, 77, 0
2, 2280, Note_on_c, 0, 78, 64
2, 2280, Note_on_c, 0, 72, 64
2, 2280, Note_on_c, 0, 45, 64
2, 2332, Note_on_c, 0, 72, 0
2, 2332, Note_on_c, 0, 54, 0
2, 2340, Note_on_c, 0, 72, 64
2, 2340, Note_on_c, 0, 53, 64
2, 2358, Note_on_c, 0, 78, 0
2, 2370, Note_on_c, 0, 75, 64
2, 2385, Note_on_c, 0, 45, 0
2, 2392, Note_on_c, 0, 53, 0
2, 2392, Note_on_c, 0, 72, 0
2, 2396, Note_on_c, 0, 75, 0
2, 2400, Note_on_c, 0, 74, 64
2, 2400, Note_on_c, 0, 70, 64
2, 2400, Note_on_c, 0, 53, 64
2, 2400, Note_on_c, 0, 46, 64
2, 2415, Note_on_c, 0, 75, 64
2, 2428, Note_on_c, 0, 75, 0
2, 2430, Note_on_c, 0, 73, 64
2, 2443, Note_on_c, 0, 73, 0
2, 2445, Note_on_c, 0, 72, 64
2, 2452, Note_on_c, 0, 46, 0
2, 2452, Note_on_c, 0, 53, 0
2, 2452, Note_on_c, 0, 74, 0
2, 2452, Note_on_c, 0, 70, 0
2, 2458, Note_on_c, 0, 72, 0
2, 2460, Note_on_c, 0, 73, 64
2, 2460, Note_on_c, 0, 70, 64
2, 2460, Note_on_c, 0, 52, 64
2, 2460, Note_on_c, 0, 44, 64
2, 2512, Note_on_c, 0, 44, 0
2, 2520, Note_on_c, 0, 76, 64
2, 2520, Note_on_c, 0, 43, 64
2, 2538, Note_on_c, 0, 73, 0
2, 2550, Note_on_c, 0, 75, 64
2, 2563, Note_on_c, 0, 75, 0
2, 2572, Note_on_c, 0, 70, 0
2, 2572, Note_on_c, 0, 52, 0
2, 2580, Note_on_c, 0, 70, 64
2, 2580, Note_on_c, 0, 51, 64
2, 2598, Note_on_c, 0, 76, 0
2, 2610, Note_on_c, 0, 75, 64
2, 2623, Note_on_c, 0, 75, 0
2, 2625, Note_on_c, 0, 43, 0
2, 2625, Note_on_c, 0, 73, 64
2, 2632, Note_on_c, 0, 70, 0
2, 2632, Note_on_c, 0, 51, 0
2, 2638, Note_on_c, 0, 73, 0
2, 2640, Note_on_c, 0, 71, 64
2, 2640, Note_on_c, 0, 68, 64
2, 2640, Note_on_c, 0, 51, 64
2, 2640, Note_on_c, 0, 44, 64
2, 2692, Note_on_c, 0, 44, 0
2, 2692, Note_on_c, 0, 71, 0
2, 2692, Note_on_c, 0, 68, 0
2, 2692, Note_on_c, 0, 51, 0
2, 2700, Note_on_c, 0, 75, 64
2, 2700, Note_on_c, 0, 63, 64
2, 2700, Note_on_c, 0, 70, 64
2, 2700, Note_on_c, 0, 46, 64
2, 2700, Note_on_c, 0, 54, 64
2, 2700, Note_on_c, 0, 42, 64
2, 2752, Note_on_c, 0, 42, 0
2, 2752, Note_on_c, 0, 63, 0
2, 2752, Note_on_c, 0, 70, 0
2, 2752, Note_on_c, 0, 75, 0
2, 2752, Note_on_c, 0, 54, 0
2, 2752, Note_on_c, 0, 46, 0
2, 2760, Note_on_c, 0, 62, 64
2, 2760, Note_on_c, 0, 68, 64
2, 2760, Note_on_c, 0, 70, 64
2, 2760, Note_on_c, 0, 74, 64
2, 2760, Note_on_c, 0, 43, 64
2, 2760, Note_on_c, 0, 46, 64
2, 2760, Note_on_c, 0, 53, 64
2, 2812, Note_on_c, 0, 53, 0
2, 2812, Note_on_c, 0, 43, 0
2, 2812, Note_on_c, 0, 68, 0
2, 2812, Note_on_c, 0, 70, 0
2, 2812, Note_on_c, 0, 62, 0
2, 2812, Note_on_c, 0, 46, 0
2, 2812, Note_on_c, 0, 74, 0
2, 2910, Note_on_c, 0, 62, 64
2, 2910, Note_on_c, 0, 68, 64
2, 2910, Note_on_c, 0, 70, 64
2, 2910, Note_on_c, 0, 74, 64
2, 2910, Note_on_c, 0, 41, 64
2, 2910, Note_on_c, 0, 46, 64
2, 2910, Note_on_c, 0, 53, 64
2, 2936, Note_on_c, 0, 53, 0
2, 2936, Note_on_c, 0, 41, 0
2, 2936, Note_on_c, 0, 68, 0
2, 2936, Note_on_c, 0, 70, 0
2, 2936, Note_on_c, 0, 62, 0
2, 2936, Note_on_c, 0, 46, 0
2, 2936, Note_on_c, 0, 74, 0
2, 2940, Note_on_c, 0, 63, 64
2, 2940, Note_on_c, 0, 66, 64
2, 2940, Note_on_c, 0, 70, 64
2, 2940, Note_on_c, 0, 75, 64
2, 2940, Note_on_c, 0, 39, 64
2, 2940, Note_on_c, 0, 46, 64
2, 2940, Note_on_c, 0, 51, 64
2, 2966, Note_on_c, 0, 51, 0
2, 2966, Note_on_c, 0, 39, 0
2, 2966, Note_on_c, 0, 66, 0
2, 2966, Note_on_c, 0, 70, 0
2, 2966, Note_on_c, 0, 63, 0
2, 2966, Note_on_c, 0, 46, 0
2, 2966, Note_on_c, 0, 75, 0
2, 2970, Note_on_c, 0, 63, 64
2, 2970, Note_on_c, 0, 66, 64
2, 2970, Note_on_c, 0, 70, 64
2, 2970, Note_on_c, 0, 75, 64
2, 2970, Note_on_c, 0, 39, 64
2, 2970, Note_on_c, 0, 46, 64
2, 2970, Note_on_c, 0, 51, 64
2, 2996, Note_on_c, 0, 51, 0
2, 2996, Note_on_c, 0, 39, 0
2, 2996, Note_on_c, 0, 66, 0
2, 2996, Note_on_c, 0, 70, 0
2, 2996, Note_on_c, 0, 63, 0
2, 2996, Note_on_c, 0, 46, 0
2, 2996, Note_on_c, 0, 75, 0
2, 3000, Note_on_c, 0, 77, 64
2, 3000, Note_on_c, 0, 38, 64
2, 3000, Note_on_c, 0, 46, 64
2, 3000, Note_on_c, 0, 50, 64
2, 3052, Note_on_c, 0, 50, 0
2, 3052, Note_on_c, 0, 77, 0
2, 3052, Note_on_c, 0, 38, 0
2, 3052, Note_on_c, 0, 46, 0
2, 3150, Note_on_c, 0, 70, 64
2, 3150, Note_on_c, 0, 74, 64
2, 3150, Note_on_c, 0, 65, 64
2, 3150, Note_on_c, 0, 68, 64
2, 3176, Note_on_c, 0, 68, 0
2, 3176, Note_on_c, 0, 70, 0
2, 3176, Note_on_c, 0, 74, 0
2, 3176, Note_on_c, 0, 65, 0
2, 3180, Note_on_c, 0, 70, 64
2, 3180, Note_on_c, 0, 75, 64
2, 3180, Note_on_c, 0, 63, 64
2, 3180, Note_on_c, 0, 66, 64
2, 3206, Note_on_c, 0, 66, 0
2, 3206, Note_on_c, 0, 70, 0
2, 3206, Note_on_c, 0, 75, 0
2, 3206, Note_on_c, 0, 63, 0
2, 3210, Note_on_c, 0, 70, 64
2, 3210, Note_on_c, 0, 75, 64
2, 3210, Note_on_c, 0, 63, 64
2, 3210, Note_on_c, 0, 66, 64
2, 3236, Note_on_c, 0, 66, 0
2, 3236, Note_on_c, 0, 70, 0
2, 3236, Note_on_c, 0, 75, 0
2, 3236, Note_on_c, 0, 63, 0
2, 3240, Note_on_c, 0, 70, 64
2, 3240, Note_on_c, 0, 77, 64
2, 3240, Note_on_c, 0, 62, 64
2, 3240, Note_on_c, 0, 65, 64
2, 3292, Note_on_c, 0, 65, 0
2, 3292, Note_on_c, 0, 70, 0
2, 3292, Note_on_c, 0, 77, 0
2, 3292, Note_on_c, 0, 62, 0
2, 3390, Note_on_c, 0, 70, 64
2, 3390, Note_on_c, 0, 77, 64
2, 3390, Note_on_c, 0, 62, 64
2, 3390, Note_on_c, 0, 65, 64
2, 3416, Note_on_c, 0, 65, 0
2, 3416, Note_on_c, 0, 70, 0
2, 3416, Note_on_c, 0, 77, 0
2, 3416, Note_on_c, 0, 62, 0
2, 3420, Note_on_c, 0, 70, 64
2, 3420, Note_on_c, 0, 79, 64
2, 3420, Note_on_c, 0, 61, 64
2, 3420, Note_on_c, 0, 63, 64
2, 3446, Note_on_c, 0, 63, 0
2, 3446, Note_on_c, 0, 70, 0
2, 3446, Note_on_c, 0, 79, 0
2, 3446, Note_on_c, 0, 61, 0
2, 3450, Note_on_c, 0, 68, 64
2, 3450, Note_on_c, 0, 80, 64
2, 3450, Note_on_c, 0, 59, 64
2, 3450, Note_on_c, 0, 63, 64
2, 3476, Note_on_c, 0, 63, 0
2, 3476, Note_on_c, 0, 68, 0
2, 3476, Note_on_c, 0, 80, 0
2, 3476, Note_on_c, 0, 59, 0
2, 3480, Note_on_c, 0, 68, 64
2, 3480, Note_on_c, 0, 80, 64
2, 3480, Note_on_c, 0, 59, 64
2, 3480, Note_on_c, 0, 63, 64
2, 3532, Note_on_c, 0, 63, 0
2, 3532, Note_on_c, 0, 68, 0
2, 3532, Note_on_c, 0, 80, 0
2, 3532, Note_on_c, 0, 59, 0
2, 3630, Note_on_c, 0, 70, 64
2, 3630, Note_on_c, 0, 77, 64
2, 3630, Note_on_c, 0, 62, 64
2, 3630, Note_on_c, 0, 65, 64
2, 3656, Note_on_c, 0, 65, 0
2, 3656, Note_on_c, 0, 70, 0
2, 3656, Note_on_c, 0, 77, 0
2, 3656, Note_on_c, 0, 62, 0
2, 3660, Note_on_c, 0, 70, 64
2, 3660, Note_on_c, 0, 79, 64
2, 3660, Note_on_c, 0, 61, 64
2, 3660, Note_on_c, 0, 63, 64
2, 3686, Note_on_c, 0, 63, 0
2, 3686, Note_on_c, 0, 70, 0
2, 3686, Note_on_c, 0, 79, 0
2, 3686, Note_on_c, 0, 61, 0
2, 3690, Note_on_c, 0, 68, 64
2, 3690, Note_on_c, 0, 80, 64
2, 3690, Note_on_c, 0, 60, 64
2, 3690, Note_on_c, 0, 63, 64
2, 3716, Note_on_c, 0, 63, 0
2, 3716, Note_on_c, 0, 68, 0
2, 3716, Note_on_c, 0, 80, 0
2, 3716, Note_on_c, 0, 60, 0
2, 3780, Note_on_c, 0, 68, 64
2, 3780, Note_on_c, 0, 80, 64
2, 3780, Note_on_c, 0, 60, 64
2, 3780, Note_on_c, 0, 63, 64
2, 3832, Note_on_c, 0, 63, 0
2, 3832, Note_on_c, 0, 68, 0
2, 3832, Note_on_c, 0, 80, 0
2, 3832, Note_on_c, 0, 60, 0
2, 3900, Note_on_c, 0, 68, 64
2, 3900, Note_on_c, 0, 80, 64
2, 3900, Note_on_c, 0, 60, 64
2, 3900, Note_on_c, 0, 63, 64
2, 3952, Note_on_c, 0, 63, 0
2, 3952, Note_on_c, 0, 68, 0
2, 3952, Note_on_c, 0, 80, 0
2, 3952, Note_on_c, 0, 60, 0
2, 3960, Note_on_c, 0, 68, 64
2, 3960, Note_on_c, 0, 80, 64
2, 3960, Note_on_c, 0, 68, 64
2, 3960, Note_on_c, 0, 80, 64
2, 3960, Note_on_c, 0, 60, 64
2, 3960, Note_on_c, 0, 63, 64
2, 4305, Note_on_c, 0, 63, 0
2, 4305, Note_on_c, 0, 80, 0
2, 4305, Note_on_c, 0, 68, 0
2, 4305, Note_on_c, 0, 68, 0
2, 4305, Note_on_c, 0, 60, 0
2, 4305, Note_on_c, 0, 80, 0
2, 4320, Note_on_c, 0, 74, 64
2, 4320, Note_on_c, 0, 67, 64
2, 4320, Note_on_c, 0, 59, 64
2, 4320, Note_on_c, 0, 62, 64
2, 4372, Note_on_c, 0, 62, 0
2, 4372, Note_on_c, 0, 59, 0
2, 4372, Note_on_c, 0, 74, 0
2, 4380, Note_on_c, 0, 79, 64
2, 4380, Note_on_c, 0, 58, 64
2, 4380, Note_on_c, 0, 61, 64
2, 4425, Note_on_c, 0, 67, 0
2, 4432, Note_on_c, 0, 79, 0
2, 4432, Note_on_c, 0, 58, 0
2, 4432, Note_on_c, 0, 61, 0
2, 4440, Note_on_c, 0, 79, 64
2, 4440, Note_on_c, 0, 61, 64
2, 4492, Note_on_c, 0, 61, 0
2, 4500, Note_on_c, 0, 57, 64
2, 4500, Note_on_c, 0, 60, 64
2, 4545, Note_on_c, 0, 79, 0
2, 4552, Note_on_c, 0, 60, 0
2, 4552, Note_on_c, 0, 57, 0
2, 4560, Note_on_c, 0, 72, 64
2, 4560, Note_on_c, 0, 56, 64
2, 4560, Note_on_c, 0, 59, 64
2, 4612, Note_on_c, 0, 59, 0
2, 4612, Note_on_c, 0, 56, 0
2, 4612, Note_on_c, 0, 72, 0
2, 4620, Note_on_c, 0, 77, 64
2, 4620, Note_on_c, 0, 56, 64
2, 4620, Note_on_c, 0, 59, 64
2, 4672, Note_on_c, 0, 59, 0
2, 4672, Note_on_c, 0, 56, 0
2, 4672, Note_on_c, 0, 77, 0
2, 4680, Note_on_c, 0, 77, 64
2, 4680, Note_on_c, 0, 55, 64
2, 4680, Note_on_c, 0, 58, 64
2, 4732, Note_on_c, 0, 58, 0
2, 4732, Note_on_c, 0, 55, 0
2, 4740, Note_on_c, 0, 54, 64
2, 4740, Note_on_c, 0, 57, 64
2, 4785, Note_on_c, 0, 77, 0
2, 4792, Note_on_c, 0, 57, 0
2, 4792, Note_on_c, 0, 54, 0
2, 4800, Note_on_c, 0, 70, 64
2, 4852, Note_on_c, 0, 70, 0
2, 4860, Note_on_c, 0, 75, 64
2, 4912, Note_on_c, 0, 75, 0
2, 4920, Note_on_c, 0, 63, 64
2, 4920, Note_on_c, 0, 75, 64
2, 4920, Note_on_c, 0, 68, 64
2, 4920, Note_on_c, 0, 70, 64
2, 4920, Note_on_c, 0, 53, 64
2, 4920, Note_on_c, 0, 56, 64
2, 5145, Note_on_c, 0, 75, 0
2, 5145, Note_on_c, 0, 63, 0
2, 5160, Note_on_c, 0, 62, 64
2, 5160, Note_on_c, 0, 74, 64
2, 5265, Note_on_c, 0, 74, 0
2, 5265, Note_on_c, 0, 56, 0
2, 5265, Note_on_c, 0, 68, 0
2, 5265, Note_on_c, 0, 70, 0
2, 5265, Note_on_c, 0, 62, 0
2, 5265, Note_on_c, 0, 53, 0
2, 5280, Note_on_c, 0, 63, 64
2, 5280, Note_on_c, 0, 75, 64
2, 5280, Note_on_c, 0, 70, 64
2, 5280, Note_on_c, 0, 51, 64
2, 5280, Note_on_c, 0, 55, 64
2, 5385, Note_on_c, 0, 55, 0
2, 5385, Note_on_c, 0, 70, 0
2, 5385, Note_on_c, 0, 63, 0
2, 5385, Note_on_c, 0, 75, 0
2, 5385, Note_on_c, 0, 51, 0
2, 5400, Note_on_c, 0, 65, 64
2, 5400, Note_on_c, 0, 70, 64
2, 5400, Note_on_c, 0, 77, 64
2, 5400, Note_on_c, 0, 50, 64
2, 5400, Note_on_c, 0, 53, 64
2, 5505, Note_on_c, 0, 53, 0
2, 5505, Note_on_c, 0, 77, 0
2, 5505, Note_on_c, 0, 65, 0
2, 5505, Note_on_c, 0, 70, 0
2, 5505, Note_on_c, 0, 50, 0
2, 5520, Note_on_c, 0, 67, 64
2, 5520, Note_on_c, 0, 70, 64
2, 5520, Note_on_c, 0, 79, 64
2, 5520, Note_on_c, 0, 48, 64
2, 5520, Note_on_c, 0, 51, 64
2, 5625, Note_on_c, 0, 51, 0
2, 5625, Note_on_c, 0, 79, 0
2, 5625, Note_on_c, 0, 67, 0
2, 5625, Note_on_c, 0, 70, 0
2, 5625, Note_on_c, 0, 48, 0
2, 5640, Note_on_c, 0, 68, 64
2, 5640, Note_on_c, 0, 70, 64
2, 5640, Note_on_c, 0, 80, 64
2, 5640, Note_on_c, 0, 46, 64
2, 5640, Note_on_c, 0, 50, 64
2, 5745, Note_on_c, 0, 50, 0
2, 5745, Note_on_c, 0, 80, 0
2, 5745, Note_on_c, 0, 68, 0
2, 5745, Note_on_c, 0, 70, 0
2, 5745, Note_on_c, 0, 46, 0
2, 5760, Note_on_c, 0, 70, 64
2, 5760, Note_on_c, 0, 82, 64
2, 5760, Note_on_c, 0, 46, 64
2, 5760, Note_on_c, 0, 50, 64
2, 5760, Note_on_c, 0, 53, 64
2, 5865, Note_on_c, 0, 53, 0
2, 5865, Note_on_c, 0, 46, 0
2, 5865, Note_on_c, 0, 70, 0
2, 5865, Note_on_c, 0, 82, 0
2, 5865, Note_on_c, 0, 50, 0
2, 5880, Note_on_c, 0, 67, 64
2, 5880, Note_on_c, 0, 70, 64
2, 5880, Note_on_c, 0, 79, 64
2, 5880, Note_on_c, 0, 39, 64
2, 5932, Note_on_c, 0, 39, 0
2, 5932, Note_on_c, 0, 67, 0
2, 5932, Note_on_c, 0, 70, 0
2, 5932, Note_on_c, 0, 79, 0
2, 5940, Note_on_c, 0, 46, 64
2, 5992, Note_on_c, 0, 46, 0
2, 6000, Note_on_c, 0, 55, 64
2, 6052, Note_on_c, 0, 55, 0
2, 6060, Note_on_c, 0, 46, 64
2, 6112, Note_on_c, 0, 46, 0
2, 6120, Note_on_c, 0, 70, 64
2, 6120, Note_on_c, 0, 82, 64
2, 6120, Note_on_c, 0, 39, 64
2, 6172, Note_on_c, 0, 39, 0
2, 6172, Note_on_c, 0, 82, 0
2, 6172, Note_on_c, 0, 70, 0
2, 6180, Note_on_c, 0, 46, 64
2, 6232, Note_on_c, 0, 46, 0
2, 6240, Note_on_c, 0, 55, 64
2, 6292, Note_on_c, 0, 55, 0
2, 6300, Note_on_c, 0, 46, 64
2, 6352, Note_on_c, 0, 46, 0
2, 6360, Note_on_c, 0, 82, 64
2, 6360, Note_on_c, 0, 94, 64
2, 6360, Note_on_c, 0, 41, 64
2, 6412, Note_on_c, 0, 41, 0
2, 6420, Note_on_c, 0, 46, 64
2, 6472, Note_on_c, 0, 46, 0
2, 6480, Note_on_c, 0, 56, 64
2, 6532, Note_on_c, 0, 56, 0
2, 6540, Note_on_c, 0, 46, 64
2, 6592, Note_on_c, 0, 46, 0
2, 6600, Note_on_c, 0, 41, 64
2, 6652, Note_on_c, 0, 41, 0
2, 6660, Note_on_c, 0, 46, 64
2, 6705, Note_on_c, 0, 94, 0
2, 6705, Note_on_c, 0, 82, 0
2, 6712, Note_on_c, 0, 46, 0
2, 6720, Note_on_c, 0, 70, 64
2, 6720, Note_on_c, 0, 82, 64
2, 6720, Note_on_c, 0, 56, 64
2, 6772, Note_on_c, 0, 56, 0
2, 6780, Note_on_c, 0, 46, 64
2, 6832, Note_on_c, 0, 46, 0
2, 6840, Note_on_c, 0, 43, 64
2, 6892, Note_on_c, 0, 43, 0
2, 6900, Note_on_c, 0, 46, 64
2, 6952, Note_on_c, 0, 46, 0
2, 6960, Note_on_c, 0, 58, 64
2, 7012, Note_on_c, 0, 58, 0
2, 7020, Note_on_c, 0, 46, 64
2, 7072, Note_on_c, 0, 46, 0
2, 7080, Note_on_c, 0, 43, 64
2, 7132, Note_on_c, 0, 43, 0
2, 7140, Note_on_c, 0, 46, 64
2, 7185, Note_on_c, 0, 82, 0
2, 7185, Note_on_c, 0, 70, 0
2, 7192, Note_on_c, 0, 46, 0
2, 7200, Note_on_c, 0, 67, 64
2, 7200, Note_on_c, 0, 79, 64
2, 7200, Note_on_c, 0, 58, 64
2, 7252, Note_on_c, 0, 58, 0
2, 7260, Note_on_c, 0, 46, 64
2, 7305, Note_on_c, 0, 79, 0
2, 7305, Note_on_c, 0, 67, 0
2, 7312, Note_on_c, 0, 46, 0
2, 7320, Note_on_c, 0, 65, 64
2, 7320, Note_on_c, 0, 77, 64
2, 7320, Note_on_c, 0, 44, 64
2, 7372, Note_on_c, 0, 44, 0
2, 7380, Note_on_c, 0, 46, 64
2, 7425, Note_on_c, 0, 77, 0
2, 7425, Note_on_c, 0, 65, 0
2, 7432, Note_on_c, 0, 46, 0
2, 7440, Note_on_c, 0, 62, 64
2, 7440, Note_on_c, 0, 74, 64
2, 7440, Note_on_c, 0, 56, 64
2, 7492, Note_on_c, 0, 56, 0
2, 7500, Note_on_c, 0, 46, 64
2, 7545, Note_on_c, 0, 74, 0
2, 7545, Note_on_c, 0, 62, 0
2, 7552, Note_on_c, 0, 46, 0
2, 7560, Note_on_c, 0, 59, 64
2, 7560, Note_on_c, 0, 71, 64
2, 7560, Note_on_c, 0, 34, 64
2, 7612, Note_on_c, 0, 34, 0
2, 7620, Note_on_c, 0, 46, 64
2, 7665, Note_on_c, 0, 71, 0
2, 7665, Note_on_c, 0, 59, 0
2, 7672, Note_on_c, 0, 46, 0
2, 7680, Note_on_c, 0, 58, 64
2, 7680, Note_on_c, 0, 70, 64
2, 7680, Note_on_c, 0, 53, 64
2, 7732, Note_on_c, 0, 53, 0
2, 7740, Note_on_c, 0, 46, 64
2, 7785, Note_on_c, 0, 70, 0
2, 7785, Note_on_c, 0, 58, 0
2, 7792, Note_on_c, 0, 46, 0
2, 7800, Note_on_c, 0, 58, 64
2, 7800, Note_on_c, 0, 70, 64
2, 7800, Note_on_c, 0, 39, 64
2, 7852, Note_on_c, 0, 39, 0
2, 7852, Note_on_c, 0, 70, 0
2, 7852, Note_on_c, 0, 58, 0
2, 7860, Note_on_c, 0, 46, 64
2, 7912, Note_on_c, 0, 46, 0
2, 7920, Note_on_c, 0, 55, 64
2, 7972, Note_on_c, 0, 55, 0
2, 7980, Note_on_c, 0, 46, 64
2, 8032, Note_on_c, 0, 46, 0
2, 8040, Note_on_c, 0, 70, 64
2, 8040, Note_on_c, 0, 82, 64
2, 8040, Note_on_c, 0, 39, 64
2, 8092, Note_on_c, 0, 39, 0
2, 8092, Note_on_c, 0, 82, 0
2, 8092, Note_on_c, 0, 70, 0
2, 8100, Note_on_c, 0, 46, 64
2, 8152, Note_on_c, 0, 46, 0
2, 8160, Note_on_c, 0, 55, 64
2, 8212, Note_on_c, 0, 55, 0
2, 8220, Note_on_c, 0, 46, 64
2, 8272, Note_on_c, 0, 46, 0
2, 8280, Note_on_c, 0, 82, 64
2, 8280, Note_on_c, 0, 94, 64
2, 8280, Note_on_c, 0, 41, 64
2, 8332, Note_on_c, 0, 41, 0
2, 8340, Note_on_c, 0, 46, 64
2, 8392, Note_on_c, 0, 46, 0
2, 8400, Note_on_c, 0, 56, 64
2, 8452, Note_on_c, 0, 56, 0
2, 8460, Note_on_c, 0, 46, 64
2, 8512, Note_on_c, 0, 46, 0
2, 8520, Note_on_c, 0, 41, 64
2, 8572, Note_on_c, 0, 41, 0
2, 8580, Note_on_c, 0, 46, 64
2, 8625, Note_on_c, 0, 94, 0
2, 8625, Note_on_c, 0, 82, 0
2, 8632, Note_on_c, 0, 46, 0
2, 8640, Note_on_c, 0, 70, 64
2, 8640, Note_on_c, 0, 82, 64
2, 8640, Note_on_c, 0, 56, 64
2, 8692, Note_on_c, 0, 56, 0
2, 8700, Note_on_c, 0, 46, 64
2, 8752, Note_on_c, 0, 46, 0
2, 8760, Note_on_c, 0, 43, 64
2, 8812, Note_on_c, 0, 43, 0
2, 8820, Note_on_c, 0, 51, 64
2, 8872, Note_on_c, 0, 51, 0
2, 8880, Note_on_c, 0, 58, 64
2, 8932, Note_on_c, 0, 58, 0
2, 8940, Note_on_c, 0, 51, 64
2, 8992, Note_on_c, 0, 51, 0
2, 9000, Note_on_c, 0, 43, 64
2, 9052, Note_on_c, 0, 43, 0
2, 9060, Note_on_c, 0, 51, 64
2, 9105, Note_on_c, 0, 82, 0
2, 9105, Note_on_c, 0, 70, 0
2, 9112, Note_on_c, 0, 51, 0
2, 9120, Note_on_c, 0, 67, 64
2, 9120, Note_on_c, 0, 79, 64
2, 9120, Note_on_c, 0, 58, 64
2, 9172, Note_on_c, 0, 58, 0
2, 9180, Note_on_c, 0, 51, 64
2, 9225, Note_on_c, 0, 79, 0
2, 9225, Note_on_c, 0, 67, 0
2, 9232, Note_on_c, 0, 51, 0
2, 9240, Note_on_c, 0, 64, 64
2, 9240, Note_on_c, 0, 76, 64
2, 9240, Note_on_c, 0, 44, 64
2, 9292, Note_on_c, 0, 44, 0
2, 9300, Note_on_c, 0, 51, 64
2, 9345, Note_on_c, 0, 76, 0
2, 9345, Note_on_c, 0, 64, 0
2, 9352, Note_on_c, 0, 51, 0
2, 9360, Note_on_c, 0, 65, 64
2, 9360, Note_on_c, 0, 77, 64
2, 9360, Note_on_c, 0, 60, 64
2, 9412, Note_on_c, 0, 60, 0
2, 9420, Note_on_c, 0, 51, 64
2, 9465, Note_on_c, 0, 77, 0
2, 9465, Note_on_c, 0, 65, 0
2, 9472, Note_on_c, 0, 51, 0
2, 9480, Note_on_c, 0, 60, 64
2, 9480, Note_on_c, 0, 72, 64
2, 9480, Note_on_c, 0, 45, 64
2, 9532, Note_on_c, 0, 45, 0
2, 9540, Note_on_c, 0, 51, 64
2, 9585, Note_on_c, 0, 72, 0
2, 9585, Note_on_c, 0, 60, 0
2, 9592, Note_on_c, 0, 51, 0
2, 9600, Note_on_c, 0, 63, 64
2, 9600, Note_on_c, 0, 75, 64
2, 9600, Note_on_c, 0, 60, 64
2, 9652, Note_on_c, 0, 60, 0
2, 9660, Note_on_c, 0, 51, 64
2, 9705, Note_on_c, 0, 75, 0
2, 9705, Note_on_c, 0, 63, 0
2, 9712, Note_on_c, 0, 51, 0
2, 9720, Note_on_c, 0, 62, 64
2, 9720, Note_on_c, 0, 74, 64
2, 9720, Note_on_c, 0, 46, 64
2, 9720, Note_on_c, 0, 58, 64
2, 9772, Note_on_c, 0, 74, 0
2, 9772, Note_on_c, 0, 62, 0
2, 9780, Note_on_c, 0, 70, 64
2, 9825, Note_on_c, 0, 46, 0
2, 9825, Note_on_c, 0, 58, 0
2, 9832, Note_on_c, 0, 70, 0
2, 9840, Note_on_c, 0, 69, 64
2, 9840, Note_on_c, 0, 63, 64
2, 9892, Note_on_c, 0, 63, 0
2, 9892, Note_on_c, 0, 69, 0
2, 9900, Note_on_c, 0, 70, 64
2, 9900, Note_on_c, 0, 62, 64
2, 9952, Note_on_c, 0, 62, 0
2, 9952, Note_on_c, 0, 70, 0
2, 9960, Note_on_c, 0, 69, 64
2, 9960, Note_on_c, 0, 72, 64
2, 9960, Note_on_c, 0, 60, 64
2, 10012, Note_on_c, 0, 60, 0
2, 10012, Note_on_c, 0, 72, 0
2, 10012, Note_on_c, 0, 69, 0
2, 10020, Note_on_c, 0, 70, 64
2, 10020, Note_on_c, 0, 74, 64
2, 10020, Note_on_c, 0, 58, 64
2, 10072, Note_on_c, 0, 58, 0
2, 10072, Note_on_c, 0, 74, 0
2, 10072, Note_on_c, 0, 70, 0
2, 10080, Note_on_c, 0, 72, 64
2, 10080, Note_on_c, 0, 75, 64
2, 10080, Note_on_c, 0, 57, 64
2, 10132, Note_on_c, 0, 57, 0
2, 10132, Note_on_c, 0, 75, 0
2, 10132, Note_on_c, 0, 72, 0
2, 10140, Note_on_c, 0, 74, 64
2, 10140, Note_on_c, 0, 77, 64
2, 10140, Note_on_c, 0, 56, 64
2, 10192, Note_on_c, 0, 56, 0
2, 10192, Note_on_c, 0, 77, 0
2, 10192, Note_on_c, 0, 74, 0
2, 10200, Note_on_c, 0, 75, 64
2, 10200, Note_on_c, 0, 79, 64
2, 10200, Note_on_c, 0, 55, 64
2, 10252, Note_on_c, 0, 55, 0
2, 10260, Note_on_c, 0, 53, 64
2, 10312, Note_on_c, 0, 53, 0
2, 10320, Note_on_c, 0, 51, 64
2, 10372, Note_on_c, 0, 51, 0
2, 10380, Note_on_c, 0, 50, 64
2, 10425, Note_on_c, 0, 79, 0
2, 10425, Note_on_c, 0, 75, 0
2, 10432, Note_on_c, 0, 50, 0
2, 10440, Note_on_c, 0, 80, 64
2, 10440, Note_on_c, 0, 84, 64
2, 10440, Note_on_c, 0, 51, 64
2, 10492, Note_on_c, 0, 51, 0
2, 10492, Note_on_c, 0, 84, 0
2, 10492, Note_on_c, 0, 80, 0
2, 10500, Note_on_c, 0, 79, 64
2, 10500, Note_on_c, 0, 82, 64
2, 10500, Note_on_c, 0, 53, 64
2, 10552, Note_on_c, 0, 53, 0
2, 10552, Note_on_c, 0, 82, 0
2, 10552, Note_on_c, 0, 79, 0
2, 10560, Note_on_c, 0, 77, 64
2, 10560, Note_on_c, 0, 80, 64
2, 10560, Note_on_c, 0, 55, 64
2, 10612, Note_on_c, 0, 55, 0
2, 10612, Note_on_c, 0, 80, 0
2, 10612, Note_on_c, 0, 77, 0
2, 10620, Note_on_c, 0, 75, 64
2, 10620, Note_on_c, 0, 79, 64
2, 10620, Note_on_c, 0, 56, 64
2, 10672, Note_on_c, 0, 56, 0
2, 10672, Note_on_c, 0, 79, 0
2, 10672, Note_on_c, 0, 75, 0
2, 10680, Note_on_c, 0, 74, 64
2, 10680, Note_on_c, 0, 77, 64
2, 10680, Note_on_c, 0, 58, 64
2, 10785, Note_on_c, 0, 58, 0
2, 10785, Note_on_c, 0, 77, 0
2, 10785, Note_on_c, 0, 74, 0
2, 10800, Note_on_c, 0, 60, 64
2, 10852, Note_on_c, 0, 60, 0
2, 10860, Note_on_c, 0, 62, 64
2, 10912, Note_on_c, 0, 62, 0
2, 10920, Note_on_c, 0, 92, 64
2, 10920, Note_on_c, 0, 96, 64
2, 10920, Note_on_c, 0, 63, 64
2, 10972, Note_on_c, 0, 63, 0
2, 10972, Note_on_c, 0, 96, 0
2, 10972, Note_on_c, 0, 92, 0
2, 10980, Note_on_c, 0, 91, 64
2, 10980, Note_on_c, 0, 94, 64
2, 10980, Note_on_c, 0, 65, 64
2, 11032, Note_on_c, 0, 65, 0
2, 11032, Note_on_c, 0, 94, 0
2, 11032, Note_on_c, 0, 91, 0
2, 11040, Note_on_c, 0, 89, 64
2, 11040, Note_on_c, 0, 92, 64
2, 11040, Note_on_c, 0, 67, 64
2, 11092, Note_on_c, 0, 67, 0
2, 11092, Note_on_c, 0, 92, 0
2, 11092, Note_on_c, 0, 89, 0
2, 11100, Note_on_c, 0, 87, 64
2, 11100, Note_on_c, 0, 91, 64
2, 11100, Note_on_c, 0, 68, 64
2, 11152, Note_on_c, 0, 68, 0
2, 11152, Note_on_c, 0, 91, 0
2, 11152, Note_on_c, 0, 87, 0
2, 11160, Note_on_c, 0, 86, 64
2, 11160, Note_on_c, 0, 89, 64
2, 11160, Note_on_c, 0, 70, 64
2, 11265, Note_on_c, 0, 70, 0
2, 11265, Note_on_c, 0, 89, 0
2, 11265, Note_on_c, 0, 86, 0
2, 11280, Note_on_c, 0, 74, 64
2, 11280, Note_on_c, 0, 84, 64
2, 11280, Note_on_c, 0, 68, 64
2, 11332, Note_on_c, 0, 68, 0
2, 11332, Note_on_c, 0, 84, 0
2, 11332, Note_on_c, 0, 74, 0
2, 11340, Note_on_c, 0, 75, 64
2, 11340, Note_on_c, 0, 82, 64
2, 11340, Note_on_c, 0, 67, 64
2, 11392, Note_on_c, 0, 67, 0
2, 11392, Note_on_c, 0, 82, 0
2, 11392, Note_on_c, 0, 75, 0
2, 11400, Note_on_c, 0, 71, 64
2, 11400, Note_on_c, 0, 80, 64
2, 11400, Note_on_c, 0, 65, 64
2, 11452, Note_on_c, 0, 65, 0
2, 11452, Note_on_c, 0, 80, 0
2, 11452, Note_on_c, 0, 71, 0
2, 11460, Note_on_c, 0, 72, 64
2, 11460, Note_on_c, 0, 79, 64
2, 11460, Note_on_c, 0, 63, 64
2, 11512, Note_on_c, 0, 63, 0
2, 11512, Note_on_c, 0, 79, 0
2, 11512, Note_on_c, 0, 72, 0
2, 11520, Note_on_c, 0, 67, 64
2, 11520, Note_on_c, 0, 77, 64
2, 11520, Note_on_c, 0, 62, 64
2, 11546, Note_on_c, 0, 77, 0
2, 11546, Note_on_c, 0, 67, 0
2, 11572, Note_on_c, 0, 62, 0
2, 11580, Note_on_c, 0, 75, 64
2, 11580, Note_on_c, 0, 78, 64
2, 11580, Note_on_c, 0, 60, 64
2, 11606, Note_on_c, 0, 78, 0
2, 11606, Note_on_c, 0, 75, 0
2, 11632, Note_on_c, 0, 60, 0
2, 11640, Note_on_c, 0, 74, 64
2, 11640, Note_on_c, 0, 79, 64
2, 11640, Note_on_c, 0, 59, 64
2, 11666, Note_on_c, 0, 59, 0
2, 11666, Note_on_c, 0, 79, 0
2, 11666, Note_on_c, 0, 74, 0
2, 11700, Note_on_c, 0, 74, 64
2, 11700, Note_on_c, 0, 78, 64
2, 11700, Note_on_c, 0, 81, 64
2, 11700, Note_on_c, 0, 57, 64
2, 11726, Note_on_c, 0, 57, 0
2, 11726, Note_on_c, 0, 74, 0
2, 11726, Note_on_c, 0, 78, 0
2, 11726, Note_on_c, 0, 81, 0
2, 11760, Note_on_c, 0, 74, 64
2, 11760, Note_on_c, 0, 79, 64
2, 11760, Note_on_c, 0, 83, 64
2, 11760, Note_on_c, 0, 55, 64
2, 11786, Note_on_c, 0, 55, 0
2, 11786, Note_on_c, 0, 74, 0
2, 11786, Note_on_c, 0, 79, 0
2, 11786, Note_on_c, 0, 83, 0
2, 11820, Note_on_c, 0, 74, 64
2, 11820, Note_on_c, 0, 79, 64
2, 11820, Note_on_c, 0, 83, 64
2, 11820, Note_on_c, 0, 53, 64
2, 11846, Note_on_c, 0, 53, 0
2, 11846, Note_on_c, 0, 74, 0
2, 11846, Note_on_c, 0, 79, 0
2, 11846, Note_on_c, 0, 83, 0
2, 11880, Note_on_c, 0, 75, 64
2, 11880, Note_on_c, 0, 79, 64
2, 11880, Note_on_c, 0, 84, 64
2, 11880, Note_on_c, 0, 51, 64
2, 11906, Note_on_c, 0, 51, 0
2, 11906, Note_on_c, 0, 75, 0
2, 11906, Note_on_c, 0, 79, 0
2, 11906, Note_on_c, 0, 84, 0
2, 11940, Note_on_c, 0, 77, 64
2, 11940, Note_on_c, 0, 83, 64
2, 11940, Note_on_c, 0, 86, 64
2, 11940, Note_on_c, 0, 50, 64
2, 11966, Note_on_c, 0, 50, 0
2, 11966, Note_on_c, 0, 77, 0
2, 11966, Note_on_c, 0, 83, 0
2, 11966, Note_on_c, 0, 86, 0
2, 12000, Note_on_c, 0, 79, 64
2, 12000, Note_on_c, 0, 84, 64
2, 12000, Note_on_c, 0, 87, 64
2, 12000, Note_on_c, 0, 48, 64
2, 12026, Note_on_c, 0, 48, 0
2, 12026, Note_on_c, 0, 79, 0
2, 12026, Note_on_c, 0, 84, 0
2, 12026, Note_on_c, 0, 87, 0
2, 12060, Note_on_c, 0, 79, 64
2, 12060, Note_on_c, 0, 84, 64
2, 12060, Note_on_c, 0, 88, 64
2, 12060, Note_on_c, 0, 46, 64
2, 12060, Note_on_c, 0, 48, 64
2, 12086, Note_on_c, 0, 48, 0
2, 12086, Note_on_c, 0, 88, 0
2, 12086, Note_on_c, 0, 79, 0
2, 12086, Note_on_c, 0, 84, 0
2, 12086, Note_on_c, 0, 46, 0
2, 12120, Note_on_c, 0, 79, 64
2, 12120, Note_on_c, 0, 84, 64
2, 12120, Note_on_c, 0, 88, 64
2, 12120, Note_on_c, 0, 46, 64
2, 12120, Note_on_c, 0, 48, 64
2, 12172, Note_on_c, 0, 48, 0
2, 12172, Note_on_c, 0, 88, 0
2, 12172, Note_on_c, 0, 79, 0
2, 12172, Note_on_c, 0, 84, 0
2, 12172, Note_on_c, 0, 46, 0
2, 12360, Note_on_c, 0, 77, 64
2, 12360, Note_on_c, 0, 84, 64
2, 12360, Note_on_c, 0, 89, 64
2, 12360, Note_on_c, 0, 45, 64
2, 12360, Note_on_c, 0, 48, 64
2, 12412, Note_on_c, 0, 48, 0
2, 12412, Note_on_c, 0, 89, 0
2, 12412, Note_on_c, 0, 77, 0
2, 12412, Note_on_c, 0, 84, 0
2, 12412, Note_on_c, 0, 45, 0
2, 12600, Note_on_c, 0, 75, 64
2, 12600, Note_on_c, 0, 70, 64
2, 12600, Note_on_c, 0, 48, 64
2, 12600, Note_on_c, 0, 42, 64
2, 12945, Note_on_c, 0, 42, 0
2, 12945, Note_on_c, 0, 75, 0
2, 12960, Note_on_c, 0, 77, 64
2, 12960, Note_on_c, 0, 41, 64
2, 13065, Note_on_c, 0, 41, 0
2, 13065, Note_on_c, 0, 77, 0
2, 13080, Note_on_c, 0, 78, 64
2, 13080, Note_on_c, 0, 39, 64
2, 13185, Note_on_c, 0, 70, 0
2, 13200, Note_on_c, 0, 70, 64
2, 13252, Note_on_c, 0, 70, 0
2, 13260, Note_on_c, 0, 69, 64
2, 13312, Note_on_c, 0, 69, 0
2, 13320, Note_on_c, 0, 70, 64
2, 13372, Note_on_c, 0, 70, 0
2, 13380, Note_on_c, 0, 69, 64
2, 13432, Note_on_c, 0, 69, 0
2, 13440, Note_on_c, 0, 70, 64
2, 13492, Note_on_c, 0, 70, 0
2, 13500, Note_on_c, 0, 69, 64
2, 13545, Note_on_c, 0, 39, 0
2, 13545, Note_on_c, 0, 48, 0
2, 13545, Note_on_c, 0, 78, 0
2, 13552, Note_on_c, 0, 69, 0
2, 13560, Note_on_c, 0, 75, 64
2, 13560, Note_on_c, 0, 70, 64
2, 13560, Note_on_c, 0, 48, 64
2, 13560, Note_on_c, 0, 42, 64
2, 13905, Note_on_c, 0, 42, 0
2, 13905, Note_on_c, 0, 75, 0
2, 13920, Note_on_c, 0, 77, 64
2, 13920, Note_on_c, 0, 41, 64
2, 14025, Note_on_c, 0, 41, 0
2, 14025, Note_on_c, 0, 77, 0
2, 14040, Note_on_c, 0, 79, 64
2, 14040, Note_on_c, 0, 40, 64
2, 14145, Note_on_c, 0, 70, 0
2, 14160, Note_on_c, 0, 70, 64
2, 14212, Note_on_c, 0, 70, 0
2, 14220, Note_on_c, 0, 69, 64
2, 14272, Note_on_c, 0, 69, 0
2, 14280, Note_on_c, 0, 70, 64
2, 14332, Note_on_c, 0, 70, 0
2, 14340, Note_on_c, 0, 69, 64
2, 14392, Note_on_c, 0, 69, 0
2, 14400, Note_on_c, 0, 70, 64
2, 14452, Note_on_c, 0, 70, 0
2, 14460, Note_on_c, 0, 69, 64
2, 14505, Note_on_c, 0, 40, 0
2, 14505, Note_on_c, 0, 48, 0
2, 14505, Note_on_c, 0, 79, 0
2, 14512, Note_on_c, 0, 69, 0
2, 14520, Note_on_c, 0, 78, 64
2, 14520, Note_on_c, 0, 41, 64
2, 14520, Note_on_c, 0, 48, 64
2, 14625, Note_on_c, 0, 48, 0
2, 14625, Note_on_c, 0, 41, 0
2, 14625, Note_on_c, 0, 78, 0
2, 14640, Note_on_c, 0, 70, 64
2, 14692, Note_on_c, 0, 70, 0
2, 14700, Note_on_c, 0, 69, 64
2, 14752, Note_on_c, 0, 69, 0
2, 14760, Note_on_c, 0, 70, 64
2, 14812, Note_on_c, 0, 70, 0
2, 14820, Note_on_c, 0, 69, 64
2, 14872, Note_on_c, 0, 69, 0
2, 14880, Note_on_c, 0, 70, 64
2, 14932, Note_on_c, 0, 70, 0
2, 14940, Note_on_c, 0, 69, 64
2, 14992, Note_on_c, 0, 69, 0
2, 15000, Note_on_c, 0, 77, 64
2, 15000, Note_on_c, 0, 41, 64
2, 15000, Note_on_c, 0, 50, 64
2, 15105, Note_on_c, 0, 50, 0
2, 15105, Note_on_c, 0, 41, 0
2, 15105, Note_on_c, 0, 77, 0
2, 15120, Note_on_c, 0, 72, 64
2, 15172, Note_on_c, 0, 72, 0
2, 15180, Note_on_c, 0, 71, 64
2, 15232, Note_on_c, 0, 71, 0
2, 15240, Note_on_c, 0, 72, 64
2, 15292, Note_on_c, 0, 72, 0
2, 15300, Note_on_c, 0, 71, 64
2, 15352, Note_on_c, 0, 71, 0
2, 15360, Note_on_c, 0, 72, 64
2, 15412, Note_on_c, 0, 72, 0
2, 15420, Note_on_c, 0, 71, 64
2, 15472, Note_on_c, 0, 71, 0
2, 15480, Note_on_c, 0, 77, 64
2, 15480, Note_on_c, 0, 41, 64
2, 15480, Note_on_c, 0, 51, 64
2, 15585, Note_on_c, 0, 51, 0
2, 15585, Note_on_c, 0, 41, 0
2, 15585, Note_on_c, 0, 77, 0
2, 15600, Note_on_c, 0, 74, 64
2, 15652, Note_on_c, 0, 74, 0
2, 15660, Note_on_c, 0, 72, 64
2, 15712, Note_on_c, 0, 72, 0
2, 15720, Note_on_c, 0, 77, 64
2, 15720, Note_on_c, 0, 41, 64
2, 15720, Note_on_c, 0, 50, 64
2, 15825, Note_on_c, 0, 50, 0
2, 15825, Note_on_c, 0, 41, 0
2, 15825, Note_on_c, 0, 77, 0
2, 15840, Note_on_c, 0, 72, 64
2, 15892, Note_on_c, 0, 72, 0
2, 15900, Note_on_c, 0, 70, 64
2, 15952, Note_on_c, 0, 70, 0
2, 15960, Note_on_c, 0, 77, 64
2, 15960, Note_on_c, 0, 41, 64
2, 15960, Note_on_c, 0, 48, 64
2, 16065, Note_on_c, 0, 48, 0
2, 16065, Note_on_c, 0, 41, 0
2, 16065, Note_on_c, 0, 77, 0
2, 16080, Note_on_c, 0, 70, 64
2, 16132, Note_on_c, 0, 70, 0
2, 16140, Note_on_c, 0, 69, 64
2, 16192, Note_on_c, 0, 69, 0
2, 16200, Note_on_c, 0, 77, 64
2, 16200, Note_on_c, 0, 41, 64
2, 16200, Note_on_c, 0, 50, 64
2, 16305, Note_on_c, 0, 50, 0
2, 16305, Note_on_c, 0, 41, 0
2, 16305, Note_on_c, 0, 77, 0
2, 16320, Note_on_c, 0, 72, 64
2, 16372, Note_on_c, 0, 72, 0
2, 16380, Note_on_c, 0, 70, 64
2, 16432, Note_on_c, 0, 70, 0
2, 16440, Note_on_c, 0, 78, 64
2, 16440, Note_on_c, 0, 41, 64
2, 16440, Note_on_c, 0, 48, 64
2, 16545, Note_on_c, 0, 48, 0
2, 16545, Note_on_c, 0, 41, 0
2, 16545, Note_on_c, 0, 78, 0
2, 16560, Note_on_c, 0, 70, 64
2, 16612, Note_on_c, 0, 70, 0
2, 16620, Note_on_c, 0, 69, 64
2, 16672, Note_on_c, 0, 69, 0
2, 16680, Note_on_c, 0, 70, 64
2, 16732, Note_on_c, 0, 70, 0
2, 16740, Note_on_c, 0, 69, 64
2, 16792, Note_on_c, 0, 69, 0
2, 16800, Note_on_c, 0, 70, 64
2, 16852, Note_on_c, 0, 70, 0
2, 16860, Note_on_c, 0, 69, 64
2, 16912, Note_on_c, 0, 69, 0
2, 16920, Note_on_c, 0, 77, 64
2, 16920, Note_on_c, 0, 41, 64
2, 16920, Note_on_c, 0, 50, 64
2, 17025, Note_on_c, 0, 50, 0
2, 17025, Note_on_c, 0, 41, 0
2, 17025, Note_on_c, 0, 77, 0
2, 17040, Note_on_c, 0, 72, 64
2, 17092, Note_on_c, 0, 72, 0
2, 17100, Note_on_c, 0, 71, 64
2, 17152, Note_on_c, 0, 71, 0
2, 17160, Note_on_c, 0, 72, 64
2, 17212, Note_on_c, 0, 72, 0
2, 17220, Note_on_c, 0, 71, 64
2, 17272, Note_on_c, 0, 71, 0
2, 17280, Note_on_c, 0, 72, 64
2, 17332, Note_on_c, 0, 72, 0
2, 17340, Note_on_c, 0, 71, 64
2, 17392, Note_on_c, 0, 71, 0
2, 17400, Note_on_c, 0, 77, 64
2, 17400, Note_on_c, 0, 41, 64
2, 17400, Note_on_c, 0, 51, 64
2, 17505, Note_on_c, 0, 51, 0
2, 17505, Note_on_c, 0, 41, 0
2, 17505, Note_on_c, 0, 77, 0
2, 17520, Note_on_c, 0, 74, 64
2, 17572, Note_on_c, 0, 74, 0
2, 17580, Note_on_c, 0, 72, 64
2, 17632, Note_on_c, 0, 72, 0
2, 17640, Note_on_c, 0, 77, 64
2, 17640, Note_on_c, 0, 41, 64
2, 17640, Note_on_c, 0, 50, 64
2, 17745, Note_on_c, 0, 50, 0
2, 17745, Note_on_c, 0, 41, 0
2, 17745, Note_on_c, 0, 77, 0
2, 17760, Note_on_c, 0, 72, 64
2, 17812, Note_on_c, 0, 72, 0
2, 17820, Note_on_c, 0, 71, 64
2, 17872, Note_on_c, 0, 71, 0
2, 17880, Note_on_c, 0, 77, 64
2, 17880, Note_on_c, 0, 41, 64
2, 17880, Note_on_c, 0, 51, 64
2, 17985, Note_on_c, 0, 51, 0
2, 17985, Note_on_c, 0, 41, 0
2, 17985, Note_on_c, 0, 77, 0
2, 18000, Note_on_c, 0, 74, 64
2, 18052, Note_on_c, 0, 74, 0
2, 18060, Note_on_c, 0, 72, 64
2, 18112, Note_on_c, 0, 72, 0
2, 18120, Note_on_c, 0, 77, 64
2, 18120, Note_on_c, 0, 53, 64
2, 18225, Note_on_c, 0, 53, 0
2, 18225, Note_on_c, 0, 77, 0
2, 18240, Note_on_c, 0, 72, 64
2, 18240, Note_on_c, 0, 75, 64
2, 18240, Note_on_c, 0, 55, 64
2, 18292, Note_on_c, 0, 55, 0
2, 18300, Note_on_c, 0, 57, 64
2, 18352, Note_on_c, 0, 57, 0
2, 18360, Note_on_c, 0, 65, 64
2, 18360, Note_on_c, 0, 58, 64
2, 18412, Note_on_c, 0, 58, 0
2, 18420, Note_on_c, 0, 60, 64
2, 18465, Note_on_c, 0, 72, 0
2, 18465, Note_on_c, 0, 75, 0
2, 18472, Note_on_c, 0, 60, 0
2, 18480, Note_on_c, 0, 70, 64
2, 18480, Note_on_c, 0, 74, 64
2, 18480, Note_on_c, 0, 62, 64
2, 18532, Note_on_c, 0, 62, 0
2, 18540, Note_on_c, 0, 63, 64
2, 18585, Note_on_c, 0, 65, 0
2, 18585, Note_on_c, 0, 74, 0
2, 18585, Note_on_c, 0, 70, 0
2, 18592, Note_on_c, 0, 63, 0
2, 18600, Note_on_c, 0, 69, 64
2, 18600, Note_on_c, 0, 72, 64
2, 18600, Note_on_c, 0, 65, 64
2, 18705, Note_on_c, 0, 65, 0
2, 18705, Note_on_c, 0, 72, 0
2, 18705, Note_on_c, 0, 69, 0
2, 18720, Note_on_c, 0, 84, 64
2, 18720, Note_on_c, 0, 87, 64
2, 18720, Note_on_c, 0, 67, 64
2, 18772, Note_on_c, 0, 67, 0
2, 18780, Note_on_c, 0, 69, 64
2, 18832, Note_on_c, 0, 69, 0
2, 18840, Note_on_c, 0, 77, 64
2, 18840, Note_on_c, 0, 70, 64
2, 18892, Note_on_c, 0, 70, 0
2, 18900, Note_on_c, 0, 72, 64
2, 18945, Note_on_c, 0, 84, 0
2, 18945, Note_on_c, 0, 87, 0
2, 18952, Note_on_c, 0, 72, 0
2, 18960, Note_on_c, 0, 82, 64
2, 18960, Note_on_c, 0, 86, 64
2, 18960, Note_on_c, 0, 74, 64
2, 19012, Note_on_c, 0, 74, 0
2, 19020, Note_on_c, 0, 75, 64
2, 19065, Note_on_c, 0, 77, 0
2, 19065, Note_on_c, 0, 86, 0
2, 19065, Note_on_c, 0, 82, 0
2, 19072, Note_on_c, 0, 75, 0
2, 19080, Note_on_c, 0, 81, 64
2, 19080, Note_on_c, 0, 84, 64
2, 19080, Note_on_c, 0, 77, 64
2, 19185, Note_on_c, 0, 77, 0
2, 19185, Note_on_c, 0, 84, 0
2, 19185, Note_on_c, 0, 81, 0
2, 19200, Note_on_c, 0, 81, 64
2, 19200, Note_on_c, 0, 84, 64
2, 19200, Note_on_c, 0, 91, 64
2, 19200, Note_on_c, 0, 75, 64
2, 19305, Note_on_c, 0, 75, 0
2, 19305, Note_on_c, 0, 81, 0
2, 19305, Note_on_c, 0, 84, 0
2, 19320, Note_on_c, 0, 77, 64
2, 19320, Note_on_c, 0, 82, 64
2, 19320, Note_on_c, 0, 74, 64
2, 19425, Note_on_c, 0, 74, 0
2, 19425, Note_on_c, 0, 91, 0
2, 19425, Note_on_c, 0, 77, 0
2, 19425, Note_on_c, 0, 82, 0
2, 19440, Note_on_c, 0, 77, 64
2, 19440, Note_on_c, 0, 82, 64
2, 19440, Note_on_c, 0, 89, 64
2, 19440, Note_on_c, 0, 73, 64
2, 19545, Note_on_c, 0, 73, 0
2, 19545, Note_on_c, 0, 77, 0
2, 19545, Note_on_c, 0, 82, 0
2, 19560, Note_on_c, 0, 79, 64
2, 19560, Note_on_c, 0, 82, 64
2, 19560, Note_on_c, 0, 72, 64
2, 19665, Note_on_c, 0, 72, 0
2, 19665, Note_on_c, 0, 89, 0
2, 19665, Note_on_c, 0, 79, 0
2, 19665, Note_on_c, 0, 82, 0
2, 19680, Note_on_c, 0, 81, 64
2, 19680, Note_on_c, 0, 84, 64
2, 19680, Note_on_c, 0, 87, 64
2, 19680, Note_on_c, 0, 65, 64
2, 19785, Note_on_c, 0, 65, 0
2, 19785, Note_on_c, 0, 81, 0
2, 19785, Note_on_c, 0, 84, 0
2, 19785, Note_on_c, 0, 87, 0
2, 19800, Note_on_c, 0, 86, 64
2, 19800, Note_on_c, 0, 58, 64
2, 19800, Note_on_c, 0, 58, 64
2, 19860, Note_on_c, 0, 77, 64
2, 19905, Note_on_c, 0, 58, 0
2, 19912, Note_on_c, 0, 77, 0
2, 19920, Note_on_c, 0, 79, 64
2, 19920, Note_on_c, 0, 61, 64
2, 19920, Note_on_c, 0, 64, 64
2, 19972, Note_on_c, 0, 79, 0
2, 19980, Note_on_c, 0, 77, 64
2, 20032, Note_on_c, 0, 77, 0
2, 20040, Note_on_c, 0, 79, 64
2, 20092, Note_on_c, 0, 79, 0
2, 20100, Note_on_c, 0, 77, 64
2, 20145, Note_on_c, 0, 61, 0
2, 20145, Note_on_c, 0, 64, 0
2, 20152, Note_on_c, 0, 77, 0
2, 20160, Note_on_c, 0, 79, 64
2, 20160, Note_on_c, 0, 62, 64
2, 20160, Note_on_c, 0, 65, 64
2, 20212, Note_on_c, 0, 79, 0
2, 20220, Note_on_c, 0, 77, 64
2, 20265, Note_on_c, 0, 62, 0
2, 20265, Note_on_c, 0, 65, 0
2, 20265, Note_on_c, 0, 86, 0
2, 20265, Note_on_c, 0, 58, 0
2, 20272, Note_on_c, 0, 77, 0
2, 20280, Note_on_c, 0, 84, 64
2, 20280, Note_on_c, 0, 58, 64
2, 20280, Note_on_c, 0, 58, 64
2, 20340, Note_on_c, 0, 75, 64
2, 20385, Note_on_c, 0, 58, 0
2, 20392, Note_on_c, 0, 75, 0
2, 20400, Note_on_c, 0, 77, 64
2, 20400, Note_on_c, 0, 66, 64
2, 20400, Note_on_c, 0, 69, 64
2, 20452, Note_on_c, 0, 77, 0
2, 20460, Note_on_c, 0, 75, 64
2, 20512, Note_on_c, 0, 75, 0
2, 20520, Note_on_c, 0, 77, 64
2, 20572, Note_on_c, 0, 77, 0
2, 20580, Note_on_c, 0, 75, 64
2, 20625, Note_on_c, 0, 66, 0
2, 20632, Note_on_c, 0, 75, 0
2, 20640, Note_on_c, 0, 77, 64
2, 20640, Note_on_c, 0, 65, 64
2, 20692, Note_on_c, 0, 77, 0
2, 20700, Note_on_c, 0, 75, 64
2, 20745, Note_on_c, 0, 84, 0
2, 20745, Note_on_c, 0, 65, 0
2, 20745, Note_on_c, 0, 69, 0
2, 20745, Note_on_c, 0, 58, 0
2, 20752, Note_on_c, 0, 75, 0
2, 20760, Note_on_c, 0, 82, 64
2, 20760, Note_on_c, 0, 74, 64
2, 20760, Note_on_c, 0, 58, 64
2, 20760, Note_on_c, 0, 58, 64
2, 20812, Note_on_c, 0, 74, 0
2, 20820, Note_on_c, 0, 70, 64
2, 20865, Note_on_c, 0, 58, 0
2, 20872, Note_on_c, 0, 70, 0
2, 20880, Note_on_c, 0, 72, 64
2, 20880, Note_on_c, 0, 62, 64
2, 20880, Note_on_c, 0, 65, 64
2, 20932, Note_on_c, 0, 72, 0
2, 20940, Note_on_c, 0, 70, 64
2, 20985, Note_on_c, 0, 62, 0
2, 20985, Note_on_c, 0, 65, 0
2, 20985, Note_on_c, 0, 82, 0
2, 20992, Note_on_c, 0, 70, 0
2, 21000, Note_on_c, 0, 79, 64
2, 21000, Note_on_c, 0, 79, 64
2, 21000, Note_on_c, 0, 63, 64
2, 21000, Note_on_c, 0, 67, 64
2, 21052, Note_on_c, 0, 79, 0
2, 21060, Note_on_c, 0, 70, 64
2, 21105, Note_on_c, 0, 63, 0
2, 21105, Note_on_c, 0, 67, 0
2, 21105, Note_on_c, 0, 79, 0
2, 21112, Note_on_c, 0, 70, 0
2, 21120, Note_on_c, 0, 77, 64
2, 21120, Note_on_c, 0, 77, 64
2, 21120, Note_on_c, 0, 62, 64
2, 21120, Note_on_c, 0, 65, 64
2, 21172, Note_on_c, 0, 77, 0
2, 21180, Note_on_c, 0, 70, 64
2, 21225, Note_on_c, 0, 62, 0
2, 21225, Note_on_c, 0, 65, 0
2, 21225, Note_on_c, 0, 58, 0
2, 21225, Note_on_c, 0, 77, 0
2, 21232, Note_on_c, 0, 70, 0
2, 21240, Note_on_c, 0, 77, 64
2, 21240, Note_on_c, 0, 70, 64
2, 21240, Note_on_c, 0, 62, 64
2, 21240, Note_on_c, 0, 53, 64
2, 21292, Note_on_c, 0, 70, 0
2, 21300, Note_on_c, 0, 65, 64
2, 21345, Note_on_c, 0, 77, 0
2, 21345, Note_on_c, 0, 62, 0
2, 21352, Note_on_c, 0, 65, 0
2, 21360, Note_on_c, 0, 75, 64
2, 21360, Note_on_c, 0, 69, 64
2, 21360, Note_on_c, 0, 60, 64
2, 21360, Note_on_c, 0, 63, 64
2, 21412, Note_on_c, 0, 69, 0
2, 21420, Note_on_c, 0, 65, 64
2, 21465, Note_on_c, 0, 60, 0
2, 21465, Note_on_c, 0, 63, 0
2, 21465, Note_on_c, 0, 75, 0
2, 21472, Note_on_c, 0, 65, 0
2, 21480, Note_on_c, 0, 74, 64
2, 21480, Note_on_c, 0, 70, 64
2, 21480, Note_on_c, 0, 58, 64
2, 21480, Note_on_c, 0, 62, 64
2, 21532, Note_on_c, 0, 70, 0
2, 21540, Note_on_c, 0, 65, 64
2, 21585, Note_on_c, 0, 58, 0
2, 21585, Note_on_c, 0, 62, 0
2, 21585, Note_on_c, 0, 74, 0
2, 21592, Note_on_c, 0, 65, 0
2, 21600, Note_on_c, 0, 72, 64
2, 21600, Note_on_c, 0, 72, 64
2, 21600, Note_on_c, 0, 57, 64
2, 21600, Note_on_c, 0, 60, 64
2, 21652, Note_on_c, 0, 72, 0
2, 21660, Note_on_c, 0, 65, 64
2, 21705, Note_on_c, 0, 57, 0
2, 21705, Note_on_c, 0, 60, 0
2, 21705, Note_on_c, 0, 53, 0
2, 21705, Note_on_c, 0, 72, 0
2, 21712, Note_on_c, 0, 65, 0
2, 21720, Note_on_c, 0, 74, 64
2, 21720, Note_on_c, 0, 46, 64
2, 21720, Note_on_c, 0, 46, 64
2, 21780, Note_on_c, 0, 65, 64
2, 21825, Note_on_c, 0, 46, 0
2, 21832, Note_on_c, 0, 65, 0
2, 21840, Note_on_c, 0, 67, 64
2, 21840, Note_on_c, 0, 49, 64
2, 21840, Note_on_c, 0, 52, 64
2, 21892, Note_on_c, 0, 67, 0
2, 21900, Note_on_c, 0, 65, 64
2, 21952, Note_on_c, 0, 65, 0
2, 21960, Note_on_c, 0, 67, 64
2, 22012, Note_on_c, 0, 67, 0
2, 22020, Note_on_c, 0, 65, 64
2, 22065, Note_on_c, 0, 49, 0
2, 22065, Note_on_c, 0, 52, 0
2, 22072, Note_on_c, 0, 65, 0
2, 22080, Note_on_c, 0, 67, 64
2, 22080, Note_on_c, 0, 50, 64
2, 22080, Note_on_c, 0, 53, 64
2, 22132, Note_on_c, 0, 67, 0
2, 22140, Note_on_c, 0, 65, 64
2, 22185, Note_on_c, 0, 50, 0
2, 22185, Note_on_c, 0, 53, 0
2, 22185, Note_on_c, 0, 74, 0
2, 22185, Note_on_c, 0, 46, 0
2, 22192, Note_on_c, 0, 65, 0
2, 22200, Note_on_c, 0, 72, 64
2, 22200, Note_on_c, 0, 46, 64
2, 22200, Note_on_c, 0, 46, 64
2, 22260, Note_on_c, 0, 63, 64
2, 22305, Note_on_c, 0, 46, 0
2, 22312, Note_on_c, 0, 63, 0
2, 22320, Note_on_c, 0, 65, 64
2, 22320, Note_on_c, 0, 54, 64
2, 22320, Note_on_c, 0, 57, 64
2, 22372, Note_on_c, 0, 65, 0
2, 22380, Note_on_c, 0, 63, 64
2, 22432, Note_on_c, 0, 63, 0
2, 22440, Note_on_c, 0, 65, 64
2, 22492, Note_on_c, 0, 65, 0
2, 22500, Note_on_c, 0, 63, 64
2, 22545, Note_on_c, 0, 54, 0
2, 22552, Note_on_c, 0, 63, 0
2, 22560, Note_on_c, 0, 65, 64
2, 22560, Note_on_c, 0, 53, 64
2, 22612, Note_on_c, 0, 65, 0
2, 22620, Note_on_c, 0, 63, 64
2, 22665, Note_on_c, 0, 72, 0
2, 22665, Note_on_c, 0, 53, 0
2, 22665, Note_on_c, 0, 57, 0
2, 22665, Note_on_c, 0, 46, 0
2, 22672, Note_on_c, 0, 63, 0
2, 22680, Note_on_c, 0, 70, 64
2, 22680, Note_on_c, 0, 62, 64
2, 22680, Note_on_c, 0, 46, 64
2, 22680, Note_on_c, 0, 46, 64
2, 22732, Note_on_c, 0, 62, 0
2, 22740, Note_on_c, 0, 58, 64
2, 22785, Note_on_c, 0, 46, 0
2, 22792, Note_on_c, 0, 58, 0
2, 22800, Note_on_c, 0, 60, 64
2, 22800, Note_on_c, 0, 50, 64
2, 22800, Note_on_c, 0, 53, 64
2, 22852, Note_on_c, 0, 60, 0
2, 22860, Note_on_c, 0, 58, 64
2, 22905, Note_on_c, 0, 50, 0
2, 22905, Note_on_c, 0, 53, 0
2, 22905, Note_on_c, 0, 70, 0
2, 22912, Note_on_c, 0, 58, 0
2, 22920, Note_on_c, 0, 67, 64
2, 22920, Note_on_c, 0, 67, 64
2, 22920, Note_on_c, 0, 51, 64
2, 22920, Note_on_c, 0, 55, 64
2, 22972, Note_on_c, 0, 67, 0
2, 22980, Note_on_c, 0, 58, 64
2, 23025, Note_on_c, 0, 51, 0
2, 23025, Note_on_c, 0, 55, 0
2, 23025, Note_on_c, 0, 67, 0
2, 23032, Note_on_c, 0, 58, 0
2, 23040, Note_on_c, 0, 65, 64
2, 23040, Note_on_c, 0, 65, 64
2, 23040, Note_on_c, 0, 50, 64
2, 23040, Note_on_c, 0, 53, 64
2, 23092, Note_on_c, 0, 65, 0
2, 23100, Note_on_c, 0, 58, 64
2, 23145, Note_on_c, 0, 50, 0
2, 23145, Note_on_c, 0, 53, 0
2, 23145, Note_on_c, 0, 46, 0
2, 23145, Note_on_c, 0, 65, 0
2, 23152, Note_on_c, 0, 58, 0
2, 23160, Note_on_c, 0, 58, 64
2, 23160, Note_on_c, 0, 65, 64
2, 23160, Note_on_c, 0, 50, 64
2, 23160, Note_on_c, 0, 41, 64
2, 23212, Note_on_c, 0, 58, 0
2, 23220, Note_on_c, 0, 53, 64
2, 23265, Note_on_c, 0, 65, 0
2, 23265, Note_on_c, 0, 50, 0
2, 23272, Note_on_c, 0, 53, 0
2, 23280, Note_on_c, 0, 57, 64
2, 23280, Note_on_c, 0, 63, 64
2, 23280, Note_on_c, 0, 48, 64
2, 23280, Note_on_c, 0, 51, 64
2, 23332, Note_on_c, 0, 57, 0
2, 23340, Note_on_c, 0, 53, 64
2, 23385, Note_on_c, 0, 48, 0
2, 23385, Note_on_c, 0, 51, 0
2, 23385, Note_on_c, 0, 63, 0
2, 23392, Note_on_c, 0, 53, 0
2, 23400, Note_on_c, 0, 58, 64
2, 23400, Note_on_c, 0, 62, 64
2, 23400, Note_on_c, 0, 46, 64
2, 23400, Note_on_c, 0, 50, 64
2, 23452, Note_on_c, 0, 58, 0
2, 23460, Note_on_c, 0, 53, 64
2, 23505, Note_on_c, 0, 46, 0
2, 23505, Note_on_c, 0, 50, 0
2, 23505, Note_on_c, 0, 62, 0
2, 23512, Note_on_c, 0, 53, 0
2, 23520, Note_on_c, 0, 60, 64
2, 23520, Note_on_c, 0, 60, 64
2, 23520, Note_on_c, 0, 44, 64
2, 23520, Note_on_c, 0, 48, 64
2, 23572, Note_on_c, 0, 60, 0
2, 23580, Note_on_c, 0, 51, 64
2, 23625, Note_on_c, 0, 44, 0
2, 23625, Note_on_c, 0, 48, 0
2, 23625, Note_on_c, 0, 41, 0
2, 23625, Note_on_c, 0, 60, 0
2, 23632, Note_on_c, 0, 51, 0
2, 23640, Note_on_c, 0, 58, 64
2, 23640, Note_on_c, 0, 58, 64
2, 23640, Note_on_c, 0, 34, 64
2, 23640, Note_on_c, 0, 46, 64
2, 23692, Note_on_c, 0, 58, 0
2, 23700, Note_on_c, 0, 54, 64
2, 23760, Note_on_c, 0, 50, 64
2, 23805, Note_on_c, 0, 46, 0
2, 23805, Note_on_c, 0, 34, 0
2, 23820, Note_on_c, 0, 42, 64
2, 23865, Note_on_c, 0, 58, 0
2, 23872, Note_on_c, 0, 42, 0
2, 23880, Note_on_c, 0, 58, 64
2, 23880, Note_on_c, 0, 41, 64
2, 23932, Note_on_c, 0, 58, 0
2, 23932, Note_on_c, 0, 54, 0
2, 23932, Note_on_c, 0, 50, 0
2, 23940, Note_on_c, 0, 53, 64
2, 23985, Note_on_c, 0, 41, 0
2, 23992, Note_on_c, 0, 53, 0
2, 24000, Note_on_c, 0, 50, 64
2, 24000, Note_on_c, 0, 34, 64
2, 24052, Note_on_c, 0, 50, 0
2, 24060, Note_on_c, 0, 58, 64
2, 24105, Note_on_c, 0, 34, 0
2, 24120, Note_on_c, 0, 53, 64
2, 24120, Note_on_c, 0, 29, 64
2, 24172, Note_on_c, 0, 58, 0
2, 24180, Note_on_c, 0, 58, 64
2, 24225, Note_on_c, 0, 29, 0
2, 24232, Note_on_c, 0, 58, 0
2, 24240, Note_on_c, 0, 57, 64
2, 24240, Note_on_c, 0, 51, 64
2, 24292, Note_on_c, 0, 51, 0
2, 24292, Note_on_c, 0, 57, 0
2, 24300, Note_on_c, 0, 58, 64
2, 24300, Note_on_c, 0, 50, 64
2, 24345, Note_on_c, 0, 53, 0
2, 24352, Note_on_c, 0, 50, 0
2, 24352, Note_on_c, 0, 58, 0
2, 24360, Note_on_c, 0, 60, 64
2, 24360, Note_on_c, 0, 48, 64
2, 24412, Note_on_c, 0, 48, 0
2, 24412, Note_on_c, 0, 60, 0
2, 24420, Note_on_c, 0, 62, 64
2, 24420, Note_on_c, 0, 46, 64
2, 24472, Note_on_c, 0, 46, 0
2, 24472, Note_on_c, 0, 62, 0
2, 24480, Note_on_c, 0, 63, 64
2, 24480, Note_on_c, 0, 41, 64
2, 24480, Note_on_c, 0, 45, 64
2, 24532, Note_on_c, 0, 45, 0
2, 24532, Note_on_c, 0, 41, 0
2, 24532, Note_on_c, 0, 63, 0
2, 24540, Note_on_c, 0, 60, 64
2, 24540, Note_on_c, 0, 53, 64
2, 24592, Note_on_c, 0, 53, 0
2, 24592, Note_on_c, 0, 60, 0
2, 24600, Note_on_c, 0, 70, 64
2, 24600, Note_on_c, 0, 46, 64
2, 24660, Note_on_c, 0, 66, 64
2, 24720, Note_on_c, 0, 62, 64
2, 24765, Note_on_c, 0, 46, 0
2, 24780, Note_on_c, 0, 54, 64
2, 24832, Note_on_c, 0, 54, 0
2, 24840, Note_on_c, 0, 53, 64
2, 24892, Note_on_c, 0, 62, 0
2, 24892, Note_on_c, 0, 70, 0
2, 24892, Note_on_c, 0, 66, 0
2, 24900, Note_on_c, 0, 65, 64
2, 24945, Note_on_c, 0, 53, 0
2, 24952, Note_on_c, 0, 65, 0
2, 24960, Note_on_c, 0, 62, 64
2, 24960, Note_on_c, 0, 46, 64
2, 25012, Note_on_c, 0, 62, 0
2, 25020, Note_on_c, 0, 70, 64
2, 25065, Note_on_c, 0, 46, 0
2, 25080, Note_on_c, 0, 65, 64
2, 25080, Note_on_c, 0, 41, 64
2, 25132, Note_on_c, 0, 70, 0
2, 25140, Note_on_c, 0, 70, 64
2, 25185, Note_on_c, 0, 41, 0
2, 25192, Note_on_c, 0, 70, 0
2, 25200, Note_on_c, 0, 69, 64
2, 25200, Note_on_c, 0, 63, 64
2, 25252, Note_on_c, 0, 63, 0
2, 25252, Note_on_c, 0, 69, 0
2, 25260, Note_on_c, 0, 70, 64
2, 25260, Note_on_c, 0, 62, 64
2, 25305, Note_on_c, 0, 65, 0
2, 25312, Note_on_c, 0, 62, 0
2, 25312, Note_on_c, 0, 70, 0
2, 25320, Note_on_c, 0, 72, 64
2, 25320, Note_on_c, 0, 60, 64
2, 25372, Note_on_c, 0, 60, 0
2, 25372, Note_on_c, 0, 72, 0
2, 25380, Note_on_c, 0, 74, 64
2, 25380, Note_on_c, 0, 58, 64
2, 25432, Note_on_c, 0, 58, 0
2, 25432, Note_on_c, 0, 74, 0
2, 25440, Note_on_c, 0, 75, 64
2, 25440, Note_on_c, 0, 53, 64
2, 25440, Note_on_c, 0, 57, 64
2, 25492, Note_on_c, 0, 57, 0
2, 25492, Note_on_c, 0, 53, 0
2, 25492, Note_on_c, 0, 75, 0
2, 25500, Note_on_c, 0, 72, 64
2, 25500, Note_on_c, 0, 60, 64
2, 25552, Note_on_c, 0, 60, 0
2, 25552, Note_on_c, 0, 72, 0
2, 25560, Note_on_c, 0, 74, 64
2, 25560, Note_on_c, 0, 58, 64
2, 25560, Note_on_c, 0, 62, 64
2, 25612, Note_on_c, 0, 74, 0
2, 25620, Note_on_c, 0, 72, 64
2, 25672, Note_on_c, 0, 72, 0
2, 25680, Note_on_c, 0, 70, 64
2, 25725, Note_on_c, 0, 62, 0
2, 25725, Note_on_c, 0, 58, 0
2, 25740, Note_on_c, 0, 60, 64
2, 25792, Note_on_c, 0, 60, 0
2, 25800, Note_on_c, 0, 58, 64
2, 25852, Note_on_c, 0, 70, 0
2, 25860, Note_on_c, 0, 67, 64
2, 25912, Note_on_c, 0, 67, 0
2, 25920, Note_on_c, 0, 65, 64
2, 25965, Note_on_c, 0, 58, 0
2, 25980, Note_on_c, 0, 55, 64
2, 26032, Note_on_c, 0, 55, 0
2, 26040, Note_on_c, 0, 55, 64
2, 26092, Note_on_c, 0, 65, 0
2, 26100, Note_on_c, 0, 63, 64
2, 26152, Note_on_c, 0, 63, 0
2, 26160, Note_on_c, 0, 62, 64
2, 26205, Note_on_c, 0, 55, 0
2, 26220, Note_on_c, 0, 51, 64
2, 26272, Note_on_c, 0, 51, 0
2, 26280, Note_on_c, 0, 50, 64
2, 26332, Note_on_c, 0, 62, 0
2, 26340, Note_on_c, 0, 60, 64
2, 26392, Note_on_c, 0, 60, 0
2, 26400, Note_on_c, 0, 58, 64
2, 26445, Note_on_c, 0, 50, 0
2, 26460, Note_on_c, 0, 48, 64
2, 26512, Note_on_c, 0, 48, 0
2, 26520, Note_on_c, 0, 46, 64
2, 26572, Note_on_c, 0, 58, 0
2, 26580, Note_on_c, 0, 55, 64
2, 26632, Note_on_c, 0, 55, 0
2, 26640, Note_on_c, 0, 53, 64
2, 26685, Note_on_c, 0, 46, 0
2, 26700, Note_on_c, 0, 43, 64
2, 26752, Note_on_c, 0, 43, 0
2, 26760, Note_on_c, 0, 41, 64
2, 26812, Note_on_c, 0, 53, 0
2, 26820, Note_on_c, 0, 51, 64
2, 26872, Note_on_c, 0, 51, 0
2, 26880, Note_on_c, 0, 50, 64
2, 26925, Note_on_c, 0, 41, 0
2, 26940, Note_on_c, 0, 39, 64
2, 26992, Note_on_c, 0, 39, 0
2, 27000, Note_on_c, 0, 38, 64
2, 27052, Note_on_c, 0, 50, 0
2, 27060, Note_on_c, 0, 48, 64
2, 27112, Note_on_c, 0, 48, 0
2, 27120, Note_on_c, 0, 46, 64
2, 27165, Note_on_c, 0, 38, 0
2, 27180, Note_on_c, 0, 36, 64
2, 27232, Note_on_c, 0, 36, 0
2, 27240, Note_on_c, 0, 34, 64
2, 27292, Note_on_c, 0, 46, 0
2, 27300, Note_on_c, 0, 48, 64
2, 27352, Note_on_c, 0, 48, 0
2, 27360, Note_on_c, 0, 46, 64
2, 27405, Note_on_c, 0, 34, 0
2, 27420, Note_on_c, 0, 65, 64
2, 27420, Note_on_c, 0, 68, 64
2, 27472, Note_on_c, 0, 68, 0
2, 27472, Note_on_c, 0, 65, 0
2, 27480, Note_on_c, 0, 65, 64
2, 27480, Note_on_c, 0, 68, 64
2, 27585, Note_on_c, 0, 46, 0
2, 27945, Note_on_c, 0, 68, 0
2, 27945, Note_on_c, 0, 65, 0
2, 27960, Note_on_c, 0, 63, 64
2, 27960, Note_on_c, 0, 67, 64
2, 28425, Note_on_c, 0, 67, 0
2, 28425, Note_on_c, 0, 63, 0
2, 28440, Note_on_c, 0, 70, 64
2, 28440, Note_on_c, 0, 77, 64
2, 28440, Note_on_c, 0, 62, 64
2, 28440, Note_on_c, 0, 65, 64
2, 28905, Note_on_c, 0, 65, 0
2, 28905, Note_on_c, 0, 70, 0
2, 28905, Note_on_c, 0, 77, 0
2, 28905, Note_on_c, 0, 62, 0
2, 28920, Note_on_c, 0, 70, 64
2, 28920, Note_on_c, 0, 79, 64
2, 28920, Note_on_c, 0, 61, 64
2, 28920, Note_on_c, 0, 63, 64
2, 29385, Note_on_c, 0, 63, 0
2, 29385, Note_on_c, 0, 70, 0
2, 29385, Note_on_c, 0, 79, 0
2, 29385, Note_on_c, 0, 61, 0
2, 29400, Note_on_c, 0, 68, 64
2, 29400, Note_on_c, 0, 80, 64
2, 29400, Note_on_c, 0, 68, 64
2, 29400, Note_on_c, 0, 80, 64
2, 29400, Note_on_c, 0, 60, 64
2, 29400, Note_on_c, 0, 63, 64
2, 29745, Note_on_c, 0, 63, 0
2, 29745, Note_on_c, 0, 80, 0
2, 29745, Note_on_c, 0, 68, 0
2, 29745, Note_on_c, 0, 68, 0
2, 29745, Note_on_c, 0, 60, 0
2, 29745, Note_on_c, 0, 80, 0
2, 29760, Note_on_c, 0, 74, 64
2, 29760, Note_on_c, 0, 67, 64
2, 29760, Note_on_c, 0, 59, 64
2, 29760, Note_on_c, 0, 62, 64
2, 29812, Note_on_c, 0, 62, 0
2, 29812, Note_on_c, 0, 59, 0
2, 29812, Note_on_c, 0, 74, 0
2, 29820, Note_on_c, 0, 79, 64
2, 29820, Note_on_c, 0, 58, 64
2, 29820, Note_on_c, 0, 61, 64
2, 29865, Note_on_c, 0, 67, 0
2, 29872, Note_on_c, 0, 79, 0
2, 29872, Note_on_c, 0, 58, 0
2, 29872, Note_on_c, 0, 61, 0
2, 29880, Note_on_c, 0, 79, 64
2, 29880, Note_on_c, 0, 61, 64
2, 29932, Note_on_c, 0, 61, 0
2, 29940, Note_on_c, 0, 57, 64
2, 29940, Note_on_c, 0, 60, 64
2, 29985, Note_on_c, 0, 79, 0
2, 29992, Note_on_c, 0, 60, 0
2, 29992, Note_on_c, 0, 57, 0
2, 30000, Note_on_c, 0, 72, 64
2, 30000, Note_on_c, 0, 56, 64
2, 30000, Note_on_c, 0, 59, 64
2, 30052, Note_on_c, 0, 59, 0
2, 30052, Note_on_c, 0, 56, 0
2, 30052, Note_on_c, 0, 72, 0
2, 30060, Note_on_c, 0, 77, 64
2, 30060, Note_on_c, 0, 56, 64
2, 30060, Note_on_c, 0, 59, 64
2, 30112, Note_on_c, 0, 59, 0
2, 30112, Note_on_c, 0, 56, 0
2, 30112, Note_on_c, 0, 77, 0
2, 30120, Note_on_c, 0, 77, 64
2, 30120, Note_on_c, 0, 55, 64
2, 30120, Note_on_c, 0, 58, 64
2, 30172, Note_on_c, 0, 58, 0
2, 30172, Note_on_c, 0, 55, 0
2, 30180, Note_on_c, 0, 54, 64
2, 30180, Note_on_c, 0, 57, 64
2, 30225, Note_on_c, 0, 77, 0
2, 30232, Note_on_c, 0, 57, 0
2, 30232, Note_on_c, 0, 54, 0
2, 30240, Note_on_c, 0, 70, 64
2, 30292, Note_on_c, 0, 70, 0
2, 30300, Note_on_c, 0, 75, 64
2, 30352, Note_on_c, 0, 75, 0
2, 30360, Note_on_c, 0, 63, 64
2, 30360, Note_on_c, 0, 75, 64
2, 30360, Note_on_c, 0, 68, 64
2, 30360, Note_on_c, 0, 70, 64
2, 30360, Note_on_c, 0, 53, 64
2, 30360, Note_on_c, 0, 56, 64
2, 30585, Note_on_c, 0, 75, 0
2, 30585, Note_on_c, 0, 63, 0
2, 30600, Note_on_c, 0, 62, 64
2, 30600, Note_on_c, 0, 74, 64
2, 30705, Note_on_c, 0, 74, 0
2, 30705, Note_on_c, 0, 56, 0
2, 30705, Note_on_c, 0, 68, 0
2, 30705, Note_on_c, 0, 70, 0
2, 30705, Note_on_c, 0, 62, 0
2, 30705, Note_on_c, 0, 53, 0
2, 30720, Note_on_c, 0, 63, 64
2, 30720, Note_on_c, 0, 75, 64
2, 30720, Note_on_c, 0, 70, 64
2, 30720, Note_on_c, 0, 51, 64
2, 30720, Note_on_c, 0, 55, 64
2, 30825, Note_on_c, 0, 55, 0
2, 30825, Note_on_c, 0, 70, 0
2, 30825, Note_on_c, 0, 63, 0
2, 30825, Note_on_c, 0, 75, 0
2, 30825, Note_on_c, 0, 51, 0
2, 30840, Note_on_c, 0, 65, 64
2, 30840, Note_on_c, 0, 70, 64
2, 30840, Note_on_c, 0, 77, 64
2, 30840, Note_on_c, 0, 50, 64
2, 30840, Note_on_c, 0, 53, 64
2, 30945, Note_on_c, 0, 53, 0
2, 30945, Note_on_c, 0, 77, 0
2, 30945, Note_on_c, 0, 65, 0
2, 30945, Note_on_c, 0, 70, 0
2, 30945, Note_on_c, 0, 50, 0
2, 30960, Note_on_c, 0, 67, 64
2, 30960, Note_on_c, 0, 70, 64
2, 30960, Note_on_c, 0, 79, 64
2, 30960, Note_on_c, 0, 48, 64
2, 30960, Note_on_c, 0, 51, 64
2, 31065, Note_on_c, 0, 51, 0
2, 31065, Note_on_c, 0, 79, 0
2, 31065, Note_on_c, 0, 67, 0
2, 31065, Note_on_c, 0, 70, 0
2, 31065, Note_on_c, 0, 48, 0
2, 31080, Note_on_c, 0, 68, 64
2, 31080, Note_on_c, 0, 70, 64
2, 31080, Note_on_c, 0, 80, 64
2, 31080, Note_on_c, 0, 46, 64
2, 31080, Note_on_c, 0, 50, 64
2, 31185, Note_on_c, 0, 50, 0
2, 31185, Note_on_c, 0, 80, 0
2, 31185, Note_on_c, 0, 68, 0
2, 31185, Note_on_c, 0, 70, 0
2, 31185, Note_on_c, 0, 46, 0
2, 31200, Note_on_c, 0, 70, 64
2, 31200, Note_on_c, 0, 82, 64
2, 31200, Note_on_c, 0, 46, 64
2, 31200, Note_on_c, 0, 50, 64
2, 31200, Note_on_c, 0, 53, 64
2, 31305, Note_on_c, 0, 53, 0
2, 31305, Note_on_c, 0, 46, 0
2, 31305, Note_on_c, 0, 70, 0
2, 31305, Note_on_c, 0, 82, 0
2, 31305, Note_on_c, 0, 50, 0
2, 31320, Note_on_c, 0, 67, 64
2, 31320, Note_on_c, 0, 70, 64
2, 31320, Note_on_c, 0, 79, 64
2, 31320, Note_on_c, 0, 39, 64
2, 31372, Note_on_c, 0, 39, 0
2, 31372, Note_on_c, 0, 67, 0
2, 31372, Note_on_c, 0, 70, 0
2, 31372, Note_on_c, 0, 79, 0
2, 31380, Note_on_c, 0, 46, 64
2, 31432, Note_on_c, 0, 46, 0
2, 31440, Note_on_c, 0, 55, 64
2, 31492, Note_on_c, 0, 55, 0
2, 31500, Note_on_c, 0, 46, 64
2, 31552, Note_on_c, 0, 46, 0
2, 31560, Note_on_c, 0, 70, 64
2, 31560, Note_on_c, 0, 82, 64
2, 31560, Note_on_c, 0, 39, 64
2, 31612, Note_on_c, 0, 39, 0
2, 31612, Note_on_c, 0, 82, 0
2, 31612, Note_on_c, 0, 70, 0
2, 31620, Note_on_c, 0, 46, 64
2, 31672, Note_on_c, 0, 46, 0
2, 31680, Note_on_c, 0, 55, 64
2, 31732, Note_on_c, 0, 55, 0
2, 31740, Note_on_c, 0, 46, 64
2, 31792, Note_on_c, 0, 46, 0
2, 31800, Note_on_c, 0, 82, 64
2, 31800, Note_on_c, 0, 94, 64
2, 31800, Note_on_c, 0, 41, 64
2, 31852, Note_on_c, 0, 41, 0
2, 31860, Note_on_c, 0, 46, 64
2, 31912, Note_on_c, 0, 46, 0
2, 31920, Note_on_c, 0, 56, 64
2, 31972, Note_on_c, 0, 56, 0
2, 31980, Note_on_c, 0, 46, 64
2, 32032, Note_on_c, 0, 46, 0
2, 32040, Note_on_c, 0, 41, 64
2, 32092, Note_on_c, 0, 41, 0
2, 32100, Note_on_c, 0, 46, 64
2, 32145, Note_on_c, 0, 94, 0
2, 32145, Note_on_c, 0, 82, 0
2, 32152, Note_on_c, 0, 46, 0
2, 32160, Note_on_c, 0, 70, 64
2, 32160, Note_on_c, 0, 82, 64
2, 32160, Note_on_c, 0, 56, 64
2, 32212, Note_on_c, 0, 56, 0
2, 32220, Note_on_c, 0, 46, 64
2, 32272, Note_on_c, 0, 46, 0
2, 32280, Note_on_c, 0, 43, 64
2, 32332, Note_on_c, 0, 43, 0
2, 32340, Note_on_c, 0, 46, 64
2, 32392, Note_on_c, 0, 46, 0
2, 32400, Note_on_c, 0, 58, 64
2, 32452, Note_on_c, 0, 58, 0
2, 32460, Note_on_c, 0, 46, 64
2, 32512, Note_on_c, 0, 46, 0
2, 32520, Note_on_c, 0, 43, 64
2, 32572, Note_on_c, 0, 43, 0
2, 32580, Note_on_c, 0, 46, 64
2, 32625, Note_on_c, 0, 82, 0
2, 32625, Note_on_c, 0, 70, 0
2, 32632, Note_on_c, 0, 46, 0
2, 32640, Note_on_c, 0, 67, 64
2, 32640, Note_on_c, 0, 79, 64
2, 32640, Note_on_c, 0, 58, 64
2, 32692, Note_on_c, 0, 58, 0
2, 32700, Note_on_c, 0, 46, 64
2, 32745, Note_on_c, 0, 79, 0
2, 32745, Note_on_c, 0, 67, 0
2, 32752, Note_on_c, 0, 46, 0
2, 32760, Note_on_c, 0, 65, 64
2, 32760, Note_on_c, 0, 77, 64
2, 32760, Note_on_c, 0, 44, 64
2, 32812, Note_on_c, 0, 44, 0
2, 32820, Note_on_c, 0, 46, 64
2, 32865, Note_on_c, 0, 77, 0
2, 32865, Note_on_c, 0, 65, 0
2, 32872, Note_on_c, 0, 46, 0
2, 32880, Note_on_c, 0, 62, 64
2, 32880, Note_on_c, 0, 74, 64
2, 32880, Note_on_c, 0, 56, 64
2, 32932, Note_on_c, 0, 56, 0
2, 32940, Note_on_c, 0, 46, 64
2, 32985, Note_on_c, 0, 74, 0
2, 32985, Note_on_c, 0, 62, 0
2, 32992, Note_on_c, 0, 46, 0
2, 33000, Note_on_c, 0, 59, 64
2, 33000, Note_on_c, 0, 71, 64
2, 33000, Note_on_c, 0, 34, 64
2, 33052, Note_on_c, 0, 34, 0
2, 33060, Note_on_c, 0, 46, 64
2, 33105, Note_on_c, 0, 71, 0
2, 33105, Note_on_c, 0, 59, 0
2, 33112, Note_on_c, 0, 46, 0
2, 33120, Note_on_c, 0, 58, 64
2, 33120, Note_on_c, 0, 70, 64
2, 33120, Note_on_c, 0, 53, 64
2, 33172, Note_on_c, 0, 53, 0
2, 33180, Note_on_c, 0, 46, 64
2, 33225, Note_on_c, 0, 70, 0
2, 33225, Note_on_c, 0, 58, 0
2, 33232, Note_on_c, 0, 46, 0
2, 33240, Note_on_c, 0, 58, 64
2, 33240, Note_on_c, 0, 70, 64
2, 33240, Note_on_c, 0, 39, 64
2, 33292, Note_on_c, 0, 39, 0
2, 33292, Note_on_c, 0, 70, 0
2, 33292, Note_on_c, 0, 58, 0
2, 33300, Note_on_c, 0, 46, 64
2, 33352, Note_on_c, 0, 46, 0
2, 33360, Note_on_c, 0, 55, 64
2, 33412, Note_on_c, 0, 55, 0
2, 33420, Note_on_c, 0, 46, 64
2, 33472, Note_on_c, 0, 46, 0
2, 33480, Note_on_c, 0, 70, 64
2, 33480, Note_on_c, 0, 82, 64
2, 33480, Note_on_c, 0, 39, 64
2, 33532, Note_on_c, 0, 39, 0
2, 33532, Note_on_c, 0, 82, 0
2, 33532, Note_on_c, 0, 70, 0
2, 33540, Note_on_c, 0, 46, 64
2, 33592, Note_on_c, 0, 46, 0
2, 33600, Note_on_c, 0, 55, 64
2, 33652, Note_on_c, 0, 55, 0
2, 33660, Note_on_c, 0, 46, 64
2, 33712, Note_on_c, 0, 46, 0
2, 33720, Note_on_c, 0, 82, 64
2, 33720, Note_on_c, 0, 94, 64
2, 33720, Note_on_c, 0, 41, 64
2, 33772, Note_on_c, 0, 41, 0
2, 33780, Note_on_c, 0, 46, 64
2, 33832, Note_on_c, 0, 46, 0
2, 33840, Note_on_c, 0, 56, 64
2, 33892, Note_on_c, 0, 56, 0
2, 33900, Note_on_c, 0, 46, 64
2, 33952, Note_on_c, 0, 46, 0
2, 33960, Note_on_c, 0, 41, 64
2, 34012, Note_on_c, 0, 41, 0
2, 34020, Note_on_c, 0, 46, 64
2, 34065, Note_on_c, 0, 94, 0
2, 34065, Note_on_c, 0, 82, 0
2, 34072, Note_on_c, 0, 46, 0
2, 34080, Note_on_c, 0, 70, 64
2, 34080, Note_on_c, 0, 82, 64
2, 34080, Note_on_c, 0, 56, 64
2, 34132, Note_on_c, 0, 56, 0
2, 34140, Note_on_c, 0, 46, 64
2, 34192, Note_on_c, 0, 46, 0
2, 34200, Note_on_c, 0, 43, 64
2, 34252, Note_on_c, 0, 43, 0
2, 34260, Note_on_c, 0, 51, 64
2, 34312, Note_on_c, 0, 51, 0
2, 34320, Note_on_c, 0, 58, 64
2, 34372, Note_on_c, 0, 58, 0
2, 34380, Note_on_c, 0, 51, 64
2, 34432, Note_on_c, 0, 51, 0
2, 34440, Note_on_c, 0, 43, 64
2, 34492, Note_on_c, 0, 43, 0
2, 34500, Note_on_c, 0, 51, 64
2, 34545, Note_on_c, 0, 82, 0
2, 34545, Note_on_c, 0, 70, 0
2, 34552, Note_on_c, 0, 51, 0
2, 34560, Note_on_c, 0, 67, 64
2, 34560, Note_on_c, 0, 79, 64
2, 34560, Note_on_c, 0, 58, 64
2, 34612, Note_on_c, 0, 58, 0
2, 34620, Note_on_c, 0, 51, 64
2, 34665, Note_on_c, 0, 79, 0
2, 34665, Note_on_c, 0, 67, 0
2, 34672, Note_on_c, 0, 51, 0
2, 34680, Note_on_c, 0, 64, 64
2, 34680, Note_on_c, 0, 76, 64
2, 34680, Note_on_c, 0, 44, 64
2, 34732, Note_on_c, 0, 44, 0
2, 34740, Note_on_c, 0, 51, 64
2, 34785, Note_on_c, 0, 76, 0
2, 34785, Note_on_c, 0, 64, 0
2, 34792, Note_on_c, 0, 51, 0
2, 34800, Note_on_c, 0, 65, 64
2, 34800, Note_on_c, 0, 77, 64
2, 34800, Note_on_c, 0, 60, 64
2, 34852, Note_on_c, 0, 60, 0
2, 34860, Note_on_c, 0, 51, 64
2, 34905, Note_on_c, 0, 77, 0
2, 34905, Note_on_c, 0, 65, 0
2, 34912, Note_on_c, 0, 51, 0
2, 34920, Note_on_c, 0, 60, 64
2, 34920, Note_on_c, 0, 72, 64
2, 34920, Note_on_c, 0, 45, 64
2, 34972, Note_on_c, 0, 45, 0
2, 34980, Note_on_c, 0, 51, 64
2, 35025, Note_on_c, 0, 72, 0
2, 35025, Note_on_c, 0, 60, 0
2, 35032, Note_on_c, 0, 51, 0
2, 35040, Note_on_c, 0, 63, 64
2, 35040, Note_on_c, 0, 75, 64
2, 35040, Note_on_c, 0, 60, 64
2, 35092, Note_on_c, 0, 60, 0
2, 35100, Note_on_c, 0, 51, 64
2, 35145, Note_on_c, 0, 75, 0
2, 35145, Note_on_c, 0, 63, 0
2, 35152, Note_on_c, 0, 51, 0
2, 35160, Note_on_c, 0, 62, 64
2, 35160, Note_on_c, 0, 74, 64
2, 35160, Note_on_c, 0, 46, 64
2, 35160, Note_on_c, 0, 58, 64
2, 35212, Note_on_c, 0, 74, 0
2, 35212, Note_on_c, 0, 62, 0
2, 35220, Note_on_c, 0, 70, 64
2, 35265, Note_on_c, 0, 46, 0
2, 35265, Note_on_c, 0, 58, 0
2, 35272, Note_on_c, 0, 70, 0
2, 35280, Note_on_c, 0, 69, 64
2, 35280, Note_on_c, 0, 63, 64
2, 35332, Note_on_c, 0, 63, 0
2, 35332, Note_on_c, 0, 69, 0
2, 35340, Note_on_c, 0, 70, 64
2, 35340, Note_on_c, 0, 62, 64
2, 35392, Note_on_c, 0, 62, 0
2, 35392, Note_on_c, 0, 70, 0
2, 35400, Note_on_c, 0, 69, 64
2, 35400, Note_on_c, 0, 72, 64
2, 35400, Note_on_c, 0, 60, 64
2, 35452, Note_on_c, 0, 60, 0
2, 35452, Note_on_c, 0, 72, 0
2, 35452, Note_on_c, 0, 69, 0
2, 35460, Note_on_c, 0, 70, 64
2, 35460, Note_on_c, 0, 74, 64
2, 35460, Note_on_c, 0, 58, 64
2, 35512, Note_on_c, 0, 58, 0
2, 35512, Note_on_c, 0, 74, 0
2, 35512, Note_on_c, 0, 70, 0
2, 35520, Note_on_c, 0, 72, 64
2, 35520, Note_on_c, 0, 75, 64
2, 35520, Note_on_c, 0, 57, 64
2, 35572, Note_on_c, 0, 57, 0
2, 35572, Note_on_c, 0, 75, 0
2, 35572, Note_on_c, 0, 72, 0
2, 35580, Note_on_c, 0, 74, 64
2, 35580, Note_on_c, 0, 77, 64
2, 35580, Note_on_c, 0, 56, 64
2, 35632, Note_on_c, 0, 56, 0
2, 35632, Note_on_c, 0, 77, 0
2, 35632, Note_on_c, 0, 74, 0
2, 35640, Note_on_c, 0, 75, 64
2, 35640, Note_on_c, 0, 79, 64
2, 35640, Note_on_c, 0, 55, 64
2, 35692, Note_on_c, 0, 55, 0
2, 35700, Note_on_c, 0, 53, 64
2, 35752, Note_on_c, 0, 53, 0
2, 35760, Note_on_c, 0, 51, 64
2, 35812, Note_on_c, 0, 51, 0
2, 35820, Note_on_c, 0, 50, 64
2, 35865, Note_on_c, 0, 79, 0
2, 35865, Note_on_c, 0, 75, 0
2, 35872, Note_on_c, 0, 50, 0
2, 35880, Note_on_c, 0, 80, 64
2, 35880, Note_on_c, 0, 84, 64
2, 35880, Note_on_c, 0, 51, 64
2, 35932, Note_on_c, 0, 51, 0
2, 35932, Note_on_c, 0, 84, 0
2, 35932, Note_on_c, 0, 80, 0
2, 35940, Note_on_c, 0, 79, 64
2, 35940, Note_on_c, 0, 82, 64
2, 35940, Note_on_c, 0, 53, 64
2, 35992, Note_on_c, 0, 53, 0
2, 35992, Note_on_c, 0, 82, 0
2, 35992, Note_on_c, 0, 79, 0
2, 36000, Note_on_c, 0, 77, 64
2, 36000, Note_on_c, 0, 80, 64
2, 36000, Note_on_c, 0, 55, 64
2, 36052, Note_on_c, 0, 55, 0
2, 36052, Note_on_c, 0, 80, 0
2, 36052, Note_on_c, 0, 77, 0
2, 36060, Note_on_c, 0, 75, 64
2, 36060, Note_on_c, 0, 79, 64
2, 36060, Note_on_c, 0, 56, 64
2, 36112, Note_on_c, 0, 56, 0
2, 36112, Note_on_c, 0, 79, 0
2, 36112, Note_on_c, 0, 75, 0
2, 36120, Note_on_c, 0, 74, 64
2, 36120, Note_on_c, 0, 77, 64
2, 36120, Note_on_c, 0, 58, 64
2, 36225, Note_on_c, 0, 58, 0
2, 36225, Note_on_c, 0, 77, 0
2, 36225, Note_on_c, 0, 74, 0
2, 36240, Note_on_c, 0, 60, 64
2, 36292, Note_on_c, 0, 60, 0
2, 36300, Note_on_c, 0, 62, 64
2, 36352, Note_on_c, 0, 62, 0
2, 36360, Note_on_c, 0, 92, 64
2, 36360, Note_on_c, 0, 96, 64
2, 36360, Note_on_c, 0, 63, 64
2, 36412, Note_on_c, 0, 63, 0
2, 36412, Note_on_c, 0, 96, 0
2, 36412, Note_on_c, 0, 92, 0
2, 36420, Note_on_c, 0, 91, 64
2, 36420, Note_on_c, 0, 94, 64
2, 36420, Note_on_c, 0, 65, 64
2, 36472, Note_on_c, 0, 65, 0
2, 36472, Note_on_c, 0, 94, 0
2, 36472, Note_on_c, 0, 91, 0
2, 36480, Note_on_c, 0, 89, 64
2, 36480, Note_on_c, 0, 92, 64
2, 36480, Note_on_c, 0, 67, 64
2, 36532, Note_on_c, 0, 67, 0
2, 36532, Note_on_c, 0, 92, 0
2, 36532, Note_on_c, 0, 89, 0
2, 36540, Note_on_c, 0, 87, 64
2, 36540, Note_on_c, 0, 91, 64
2, 36540, Note_on_c, 0, 68, 64
2, 36592, Note_on_c, 0, 68, 0
2, 36592, Note_on_c, 0, 91, 0
2, 36592, Note_on_c, 0, 87, 0
2, 36600, Note_on_c, 0, 86, 64
2, 36600, Note_on_c, 0, 89, 64
2, 36600, Note_on_c, 0, 70, 64
2, 36705, Note_on_c, 0, 70, 0
2, 36705, Note_on_c, 0, 89, 0
2, 36705, Note_on_c, 0, 86, 0
2, 36720, Note_on_c, 0, 74, 64
2, 36720, Note_on_c, 0, 84, 64
2, 36720, Note_on_c, 0, 68, 64
2, 36772, Note_on_c, 0, 68, 0
2, 36772, Note_on_c, 0, 84, 0
2, 36772, Note_on_c, 0, 74, 0
2, 36780, Note_on_c, 0, 75, 64
2, 36780, Note_on_c, 0, 82, 64
2, 36780, Note_on_c, 0, 67, 64
2, 36832, Note_on_c, 0, 67, 0
2, 36832, Note_on_c, 0, 82, 0
2, 36832, Note_on_c, 0, 75, 0
2, 36840, Note_on_c, 0, 71, 64
2, 36840, Note_on_c, 0, 80, 64
2, 36840, Note_on_c, 0, 65, 64
2, 36892, Note_on_c, 0, 65, 0
2, 36892, Note_on_c, 0, 80, 0
2, 36892, Note_on_c, 0, 71, 0
2, 36900, Note_on_c, 0, 72, 64
2, 36900, Note_on_c, 0, 79, 64
2, 36900, Note_on_c, 0, 63, 64
2, 36952, Note_on_c, 0, 63, 0
2, 36952, Note_on_c, 0, 79, 0
2, 36952, Note_on_c, 0, 72, 0
2, 36960, Note_on_c, 0, 67, 64
2, 36960, Note_on_c, 0, 77, 64
2, 36960, Note_on_c, 0, 62, 64
2, 36986, Note_on_c, 0, 77, 0
2, 36986, Note_on_c, 0, 67, 0
2, 37012, Note_on_c, 0, 62, 0
2, 37020, Note_on_c, 0, 75, 64
2, 37020, Note_on_c, 0, 78, 64
2, 37020, Note_on_c, 0, 60, 64
2, 37046, Note_on_c, 0, 78, 0
2, 37046, Note_on_c, 0, 75, 0
2, 37072, Note_on_c, 0, 60, 0
2, 37080, Note_on_c, 0, 74, 64
2, 37080, Note_on_c, 0, 79, 64
2, 37080, Note_on_c, 0, 59, 64
2, 37106, Note_on_c, 0, 59, 0
2, 37106, Note_on_c, 0, 79, 0
2, 37106, Note_on_c, 0, 74, 0
2, 37140, Note_on_c, 0, 74, 64
2, 37140, Note_on_c, 0, 78, 64
2, 37140, Note_on_c, 0, 81, 64
2, 37140, Note_on_c, 0, 57, 64
2, 37166, Note_on_c, 0, 57, 0
2, 37166, Note_on_c, 0, 74, 0
2, 37166, Note_on_c, 0, 78, 0
2, 37166, Note_on_c, 0, 81, 0
2, 37200, Note_on_c, 0, 74, 64
2, 37200, Note_on_c, 0, 79, 64
2, 37200, Note_on_c, 0, 83, 64
2, 37200, Note_on_c, 0, 55, 64
2, 37226, Note_on_c, 0, 55, 0
2, 37226, Note_on_c, 0, 74, 0
2, 37226, Note_on_c, 0, 79, 0
2, 37226, Note_on_c, 0, 83, 0
2, 37260, Note_on_c, 0, 74, 64
2, 37260, Note_on_c, 0, 79, 64
2, 37260, Note_on_c, 0, 83, 64
2, 37260, Note_on_c, 0, 53, 64
2, 37286, Note_on_c, 0, 53, 0
2, 37286, Note_on_c, 0, 74, 0
2, 37286, Note_on_c, 0, 79, 0
2, 37286, Note_on_c, 0, 83, 0
2, 37320, Note_on_c, 0, 75, 64
2, 37320, Note_on_c, 0, 79, 64
2, 37320, Note_on_c, 0, 84, 64
2, 37320, Note_on_c, 0, 51, 64
2, 37346, Note_on_c, 0, 51, 0
2, 37346, Note_on_c, 0, 75, 0
2, 37346, Note_on_c, 0, 79, 0
2, 37346, Note_on_c, 0, 84, 0
2, 37380, Note_on_c, 0, 77, 64
2, 37380, Note_on_c, 0, 83, 64
2, 37380, Note_on_c, 0, 86, 64
2, 37380, Note_on_c, 0, 50, 64
2, 37406, Note_on_c, 0, 50, 0
2, 37406, Note_on_c, 0, 77, 0
2, 37406, Note_on_c, 0, 83, 0
2, 37406, Note_on_c, 0, 86, 0
2, 37440, Note_on_c, 0, 79, 64
2, 37440, Note_on_c, 0, 84, 64
2, 37440, Note_on_c, 0, 87, 64
2, 37440, Note_on_c, 0, 48, 64
2, 37466, Note_on_c, 0, 48, 0
2, 37466, Note_on_c, 0, 79, 0
2, 37466, Note_on_c, 0, 84, 0
2, 37466, Note_on_c, 0, 87, 0
2, 37500, Note_on_c, 0, 79, 64
2, 37500, Note_on_c, 0, 84, 64
2, 37500, Note_on_c, 0, 88, 64
2, 37500, Note_on_c, 0, 46, 64
2, 37500, Note_on_c, 0, 48, 64
2, 37526, Note_on_c, 0, 48, 0
2, 37526, Note_on_c, 0, 88, 0
2, 37526, Note_on_c, 0, 79, 0
2, 37526, Note_on_c, 0, 84, 0
2, 37526, Note_on_c, 0, 46, 0
2, 37560, Note_on_c, 0, 79, 64
2, 37560, Note_on_c, 0, 84, 64
2, 37560, Note_on_c, 0, 88, 64
2, 37560, Note_on_c, 0, 46, 64
2, 37560, Note_on_c, 0, 48, 64
2, 37612, Note_on_c, 0, 48, 0
2, 37612, Note_on_c, 0, 88, 0
2, 37612, Note_on_c, 0, 79, 0
2, 37612, Note_on_c, 0, 84, 0
2, 37612, Note_on_c, 0, 46, 0
2, 37800, Note_on_c, 0, 77, 64
2, 37800, Note_on_c, 0, 84, 64
2, 37800, Note_on_c, 0, 89, 64
2, 37800, Note_on_c, 0, 45, 64
2, 37800, Note_on_c, 0, 48, 64
2, 37852, Note_on_c, 0, 48, 0
2, 37852, Note_on_c, 0, 89, 0
2, 37852, Note_on_c, 0, 77, 0
2, 37852, Note_on_c, 0, 84, 0
2, 37852, Note_on_c, 0, 45, 0
2, 38040, Note_on_c, 0, 75, 64
2, 38040, Note_on_c, 0, 70, 64
2, 38040, Note_on_c, 0, 48, 64
2, 38040, Note_on_c, 0, 42, 64
2, 38385, Note_on_c, 0, 42, 0
2, 38385, Note_on_c, 0, 75, 0
2, 38400, Note_on_c, 0, 77, 64
2, 38400, Note_on_c, 0, 41, 64
2, 38505, Note_on_c, 0, 41, 0
2, 38505, Note_on_c, 0, 77, 0
2, 38520, Note_on_c, 0, 78, 64
2, 38520, Note_on_c, 0, 39, 64
2, 38625, Note_on_c, 0, 70, 0
2, 38640, Note_on_c, 0, 70, 64
2, 38692, Note_on_c, 0, 70, 0
2, 38700, Note_on_c, 0, 69, 64
2, 38752, Note_on_c, 0, 69, 0
2, 38760, Note_on_c, 0, 70, 64
2, 38812, Note_on_c, 0, 70, 0
2, 38820, Note_on_c, 0, 69, 64
2, 38872, Note_on_c, 0, 69, 0
2, 38880, Note_on_c, 0, 70, 64
2, 38932, Note_on_c, 0, 70, 0
2, 38940, Note_on_c, 0, 69, 64
2, 38985, Note_on_c, 0, 39, 0
2, 38985, Note_on_c, 0, 48, 0
2, 38985, Note_on_c, 0, 78, 0
2, 38992, Note_on_c, 0, 69, 0
2, 39000, Note_on_c, 0, 75, 64
2, 39000, Note_on_c, 0, 70, 64
2, 39000, Note_on_c, 0, 48, 64
2, 39000, Note_on_c, 0, 42, 64
2, 39345, Note_on_c, 0, 42, 0
2, 39345, Note_on_c, 0, 75, 0
2, 39360, Note_on_c, 0, 77, 64
2, 39360, Note_on_c, 0, 41, 64
2, 39465, Note_on_c, 0, 41, 0
2, 39465, Note_on_c, 0, 77, 0
2, 39480, Note_on_c, 0, 79, 64
2, 39480, Note_on_c, 0, 40, 64
2, 39585, Note_on_c, 0, 70, 0
2, 39600, Note_on_c, 0, 70, 64
2, 39652, Note_on_c, 0, 70, 0
2, 39660, Note_on_c, 0, 69, 64
2, 39712, Note_on_c, 0, 69, 0
2, 39720, Note_on_c, 0, 70, 64
2, 39772, Note_on_c, 0, 70, 0
2, 39780, Note_on_c, 0, 69, 64
2, 39832, Note_on_c, 0, 69, 0
2, 39840, Note_on_c, 0, 70, 64
2, 39892, Note_on_c, 0, 70, 0
2, 39900, Note_on_c, 0, 69, 64
2, 39945, Note_on_c, 0, 40, 0
2, 39945, Note_on_c, 0, 48, 0
2, 39945, Note_on_c, 0, 79, 0
2, 39952, Note_on_c, 0, 69, 0
2, 39960, Note_on_c, 0, 78, 64
2, 39960, Note_on_c, 0, 41, 64
2, 39960, Note_on_c, 0, 48, 64
2, 40065, Note_on_c, 0, 48, 0
2, 40065, Note_on_c, 0, 41, 0
2, 40065, Note_on_c, 0, 78, 0
2, 40080, Note_on_c, 0, 70, 64
2, 40132, Note_on_c, 0, 70, 0
2, 40140, Note_on_c, 0, 69, 64
2, 40192, Note_on_c, 0, 69, 0
2, 40200, Note_on_c, 0, 70, 64
2, 40252, Note_on_c, 0, 70, 0
2, 40260, Note_on_c, 0, 69, 64
2, 40312, Note_on_c, 0, 69, 0
2, 40320, Note_on_c, 0, 70, 64
2, 40372, Note_on_c, 0, 70, 0
2, 40380, Note_on_c, 0, 69, 64
2, 40432, Note_on_c, 0, 69, 0
2, 40440, Note_on_c, 0, 77, 64
2, 40440, Note_on_c, 0, 41, 64
2, 40440, Note_on_c, 0, 50, 64
2, 40545, Note_on_c, 0, 50, 0
2, 40545, Note_on_c, 0, 41, 0
2, 40545, Note_on_c, 0, 77, 0
2, 40560, Note_on_c, 0, 72, 64
2, 40612, Note_on_c, 0, 72, 0
2, 40620, Note_on_c, 0, 71, 64
2, 40672, Note_on_c, 0, 71, 0
2, 40680, Note_on_c, 0, 72, 64
2, 40732, Note_on_c, 0, 72, 0
2, 40740, Note_on_c, 0, 71, 64
2, 40792, Note_on_c, 0, 71, 0
2, 40800, Note_on_c, 0, 72, 64
2, 40852, Note_on_c, 0, 72, 0
2, 40860, Note_on_c, 0, 71, 64
2, 40912, Note_on_c, 0, 71, 0
2, 40920, Note_on_c, 0, 77, 64
2, 40920, Note_on_c, 0, 41, 64
2, 40920, Note_on_c, 0, 51, 64
2, 41025, Note_on_c, 0, 51, 0
2, 41025, Note_on_c, 0, 41, 0
2, 41025, Note_on_c, 0, 77, 0
2, 41040, Note_on_c, 0, 74, 64
2, 41092, Note_on_c, 0, 74, 0
2, 41100, Note_on_c, 0, 72, 64
2, 41152, Note_on_c, 0, 72, 0
2, 41160, Note_on_c, 0, 77, 64
2, 41160, Note_on_c, 0, 41, 64
2, 41160, Note_on_c, 0, 50, 64
2, 41265, Note_on_c, 0, 50, 0
2, 41265, Note_on_c, 0, 41, 0
2, 41265, Note_on_c, 0, 77, 0
2, 41280, Note_on_c, 0, 72, 64
2, 41332, Note_on_c, 0, 72, 0
2, 41340, Note_on_c, 0, 70, 64
2, 41392, Note_on_c, 0, 70, 0
2, 41400, Note_on_c, 0, 77, 64
2, 41400, Note_on_c, 0, 41, 64
2, 41400, Note_on_c, 0, 48, 64
2, 41505, Note_on_c, 0, 48, 0
2, 41505, Note_on_c, 0, 41, 0
2, 41505, Note_on_c, 0, 77, 0
2, 41520, Note_on_c, 0, 70, 64
2, 41572, Note_on_c, 0, 70, 0
2, 41580, Note_on_c, 0, 69, 64
2, 41632, Note_on_c, 0, 69, 0
2, 41640, Note_on_c, 0, 77, 64
2, 41640, Note_on_c, 0, 41, 64
2, 41640, Note_on_c, 0, 50, 64
2, 41745, Note_on_c, 0, 50, 0
2, 41745, Note_on_c, 0, 41, 0
2, 41745, Note_on_c, 0, 77, 0
2, 41760, Note_on_c, 0, 72, 64
2, 41812, Note_on_c, 0, 72, 0
2, 41820, Note_on_c, 0, 70, 64
2, 41872, Note_on_c, 0, 70, 0
2, 41880, Note_on_c, 0, 78, 64
2, 41880, Note_on_c, 0, 41, 64
2, 41880, Note_on_c, 0, 48, 64
2, 41985, Note_on_c, 0, 48, 0
2, 41985, Note_on_c, 0, 41, 0
2, 41985, Note_on_c, 0, 78, 0
2, 42000, Note_on_c, 0, 70, 64
2, 42052, Note_on_c, 0, 70, 0
2, 42060, Note_on_c, 0, 69, 64
2, 42112, Note_on_c, 0, 69, 0
2, 42120, Note_on_c, 0, 70, 64
2, 42172, Note_on_c, 0, 70, 0
2, 42180, Note_on_c, 0, 69, 64
2, 42232, Note_on_c, 0, 69, 0
2, 42240, Note_on_c, 0, 70, 64
2, 42292, Note_on_c, 0, 70, 0
2, 42300, Note_on_c, 0, 69, 64
2, 42352, Note_on_c, 0, 69, 0
2, 42360, Note_on_c, 0, 77, 64
2, 42360, Note_on_c, 0, 41, 64
2, 42360, Note_on_c, 0, 50, 64
2, 42465, Note_on_c, 0, 50, 0
2, 42465, Note_on_c, 0, 41, 0
2, 42465, Note_on_c, 0, 77, 0
2, 42480, Note_on_c, 0, 72, 64
2, 42532, Note_on_c, 0, 72, 0
2, 42540, Note_on_c, 0, 71, 64
2, 42592, Note_on_c, 0, 71, 0
2, 42600, Note_on_c, 0, 72, 64
2, 42652, Note_on_c, 0, 72, 0
2, 42660, Note_on_c, 0, 71, 64
2, 42712, Note_on_c, 0, 71, 0
2, 42720, Note_on_c, 0, 72, 64
2, 42772, Note_on_c, 0, 72, 0
2, 42780, Note_on_c, 0, 71, 64
2, 42832, Note_on_c, 0, 71, 0
2, 42840, Note_on_c, 0, 77, 64
2, 42840, Note_on_c, 0, 41, 64
2, 42840, Note_on_c, 0, 51, 64
2, 42945, Note_on_c, 0, 51, 0
2, 42945, Note_on_c, 0, 41, 0
2, 42945, Note_on_c, 0, 77, 0
2, 42960, Note_on_c, 0, 74, 64
2, 43012, Note_on_c, 0, 74, 0
2, 43020, Note_on_c, 0, 72, 64
2, 43072, Note_on_c, 0, 72, 0
2, 43080, Note_on_c, 0, 77, 64
2, 43080, Note_on_c, 0, 41, 64
2, 43080, Note_on_c, 0, 50, 64
2, 43185, Note_on_c, 0, 50, 0
2, 43185, Note_on_c, 0, 41, 0
2, 43185, Note_on_c, 0, 77, 0
2, 43200, Note_on_c, 0, 72, 64
2, 43252, Note_on_c, 0, 72, 0
2, 43260, Note_on_c, 0, 71, 64
2, 43312, Note_on_c, 0, 71, 0
2, 43320, Note_on_c, 0, 77, 64
2, 43320, Note_on_c, 0, 41, 64
2, 43320, Note_on_c, 0, 51, 64
2, 43425, Note_on_c, 0, 51, 0
2, 43425, Note_on_c, 0, 41, 0
2, 43425, Note_on_c, 0, 77, 0
2, 43440, Note_on_c, 0, 74, 64
2, 43492, Note_on_c, 0, 74, 0
2, 43500, Note_on_c, 0, 72, 64
2, 43552, Note_on_c, 0, 72, 0
2, 43560, Note_on_c, 0, 77, 64
2, 43560, Note_on_c, 0, 53, 64
2, 43665, Note_on_c, 0, 53, 0
2, 43665, Note_on_c, 0, 77, 0
2, 43680, Note_on_c, 0, 72, 64
2, 43680, Note_on_c, 0, 75, 64
2, 43680, Note_on_c, 0, 55, 64
2, 43732, Note_on_c, 0, 55, 0
2, 43740, Note_on_c, 0, 57, 64
2, 43792, Note_on_c, 0, 57, 0
2, 43800, Note_on_c, 0, 65, 64
2, 43800, Note_on_c, 0, 58, 64
2, 43852, Note_on_c, 0, 58, 0
2, 43860, Note_on_c, 0, 60, 64
2, 43905, Note_on_c, 0, 72, 0
2, 43905, Note_on_c, 0, 75, 0
2, 43912, Note_on_c, 0, 60, 0
2, 43920, Note_on_c, 0, 70, 64
2, 43920, Note_on_c, 0, 74, 64
2, 43920, Note_on_c, 0, 62, 64
2, 43972, Note_on_c, 0, 62, 0
2, 43980, Note_on_c, 0, 63, 64
2, 44025, Note_on_c, 0, 65, 0
2, 44025, Note_on_c, 0, 74, 0
2, 44025, Note_on_c, 0, 70, 0
2, 44032, Note_on_c, 0, 63, 0
2, 44040, Note_on_c, 0, 69, 64
2, 44040, Note_on_c, 0, 72, 64
2, 44040, Note_on_c, 0, 65, 64
2, 44145, Note_on_c, 0, 65, 0
2, 44145, Note_on_c, 0, 72, 0
2, 44145, Note_on_c, 0, 69, 0
2, 44160, Note_on_c, 0, 84, 64
2, 44160, Note_on_c, 0, 87, 64
2, 44160, Note_on_c, 0, 67, 64
2, 44212, Note_on_c, 0, 67, 0
2, 44220, Note_on_c, 0, 69, 64
2, 44272, Note_on_c, 0, 69, 0
2, 44280, Note_on_c, 0, 77, 64
2, 44280, Note_on_c, 0, 70, 64
2, 44332, Note_on_c, 0, 70, 0
2, 44340, Note_on_c, 0, 72, 64
2, 44385, Note_on_c, 0, 84, 0
2, 44385, Note_on_c, 0, 87, 0
2, 44392, Note_on_c, 0, 72, 0
2, 44400, Note_on_c, 0, 82, 64
2, 44400, Note_on_c, 0, 86, 64
2, 44400, Note_on_c, 0, 74, 64
2, 44452, Note_on_c, 0, 74, 0
2, 44460, Note_on_c, 0, 75, 64
2, 44505, Note_on_c, 0, 77, 0
2, 44505, Note_on_c, 0, 86, 0
2, 44505, Note_on_c, 0, 82, 0
2, 44512, Note_on_c, 0, 75, 0
2, 44520, Note_on_c, 0, 81, 64
2, 44520, Note_on_c, 0, 84, 64
2, 44520, Note_on_c, 0, 77, 64
2, 44625, Note_on_c, 0, 77, 0
2, 44625, Note_on_c, 0, 84, 0
2, 44625, Note_on_c, 0, 81, 0
2, 44640, Note_on_c, 0, 81, 64
2, 44640, Note_on_c, 0, 84, 64
2, 44640, Note_on_c, 0, 91, 64
2, 44640, Note_on_c, 0, 75, 64
2, 44745, Note_on_c, 0, 75, 0
2, 44745, Note_on_c, 0, 81, 0
2, 44745, Note_on_c, 0, 84, 0
2, 44760, Note_on_c, 0, 77, 64
2, 44760, Note_on_c, 0, 82, 64
2, 44760, Note_on_c, 0, 74, 64
2, 44865, Note_on_c, 0, 74, 0
2, 44865, Note_on_c, 0, 91, 0
2, 44865, Note_on_c, 0, 77, 0
2, 44865, Note_on_c, 0, 82, 0
2, 44880, Note_on_c, 0, 77, 64
2, 44880, Note_on_c, 0, 82, 64
2, 44880, Note_on_c, 0, 89, 64
2, 44880, Note_on_c, 0, 73, 64
2, 44985, Note_on_c, 0, 73, 0
2, 44985, Note_on_c, 0, 77, 0
2, 44985, Note_on_c, 0, 82, 0
2, 45000, Note_on_c, 0, 79, 64
2, 45000, Note_on_c, 0, 82, 64
2, 45000, Note_on_c, 0, 72, 64
2, 45105, Note_on_c, 0, 72, 0
2, 45105, Note_on_c, 0, 89, 0
2, 45105, Note_on_c, 0, 79, 0
2, 45105, Note_on_c, 0, 82, 0
2, 45120, Note_on_c, 0, 81, 64
2, 45120, Note_on_c, 0, 84, 64
2, 45120, Note_on_c, 0, 87, 64
2, 45120, Note_on_c, 0, 65, 64
2, 45225, Note_on_c, 0, 65, 0
2, 45225, Note_on_c, 0, 81, 0
2, 45225, Note_on_c, 0, 84, 0
2, 45225, Note_on_c, 0, 87, 0
2, 45240, Note_on_c, 0, 86, 64
2, 45240, Note_on_c, 0, 58, 64
2, 45240, Note_on_c, 0, 58, 64
2, 45300, Note_on_c, 0, 77, 64
2, 45345, Note_on_c, 0, 58, 0
2, 45352, Note_on_c, 0, 77, 0
2, 45360, Note_on_c, 0, 79, 64
2, 45360, Note_on_c, 0, 61, 64
2, 45360, Note_on_c, 0, 64, 64
2, 45412, Note_on_c, 0, 79, 0
2, 45420, Note_on_c, 0, 77, 64
2, 45472, Note_on_c, 0, 77, 0
2, 45480, Note_on_c, 0, 79, 64
2, 45532, Note_on_c, 0, 79, 0
2, 45540, Note_on_c, 0, 77, 64
2, 45585, Note_on_c, 0, 61, 0
2, 45585, Note_on_c, 0, 64, 0
2, 45592, Note_on_c, 0, 77, 0
2, 45600, Note_on_c, 0, 79, 64
2, 45600, Note_on_c, 0, 62, 64
2, 45600, Note_on_c, 0, 65, 64
2, 45652, Note_on_c, 0, 79, 0
2, 45660, Note_on_c, 0, 77, 64
2, 45705, Note_on_c, 0, 62, 0
2, 45705, Note_on_c, 0, 65, 0
2, 45705, Note_on_c, 0, 86, 0
2, 45705, Note_on_c, 0, 58, 0
2, 45712, Note_on_c, 0, 77, 0
2, 45720, Note_on_c, 0, 84, 64
2, 45720, Note_on_c, 0, 58, 64
2, 45720, Note_on_c, 0, 58, 64
2, 45780, Note_on_c, 0, 75, 64
2, 45825, Note_on_c, 0, 58, 0
2, 45832, Note_on_c, 0, 75, 0
2, 45840, Note_on_c, 0, 77, 64
2, 45840, Note_on_c, 0, 66, 64
2, 45840, Note_on_c, 0, 69, 64
2, 45892, Note_on_c, 0, 77, 0
2, 45900, Note_on_c, 0, 75, 64
2, 45952, Note_on_c, 0, 75, 0
2, 45960, Note_on_c, 0, 77, 64
2, 46012, Note_on_c, 0, 77, 0
2, 46020, Note_on_c, 0, 75, 64
2, 46065, Note_on_c, 0, 66, 0
2, 46072, Note_on_c, 0, 75, 0
2, 46080, Note_on_c, 0, 77, 64
2, 46080, Note_on_c, 0, 65, 64
2, 46132, Note_on_c, 0, 77, 0
2, 46140, Note_on_c, 0, 75, 64
2, 46185, Note_on_c, 0, 84, 0
2, 46185, Note_on_c, 0, 65, 0
2, 46185, Note_on_c, 0, 69, 0
2, 46185, Note_on_c, 0, 58, 0
2, 46192, Note_on_c, 0, 75, 0
2, 46200, Note_on_c, 0, 82, 64
2, 46200, Note_on_c, 0, 74, 64
2, 46200, Note_on_c, 0, 58, 64
2, 46200, Note_on_c, 0, 58, 64
2, 46252, Note_on_c, 0, 74, 0
2, 46260, Note_on_c, 0, 70, 64
2, 46305, Note_on_c, 0, 58, 0
2, 46312, Note_on_c, 0, 70, 0
2, 46320, Note_on_c, 0, 72, 64
2, 46320, Note_on_c, 0, 62, 64
2, 46320, Note_on_c, 0, 65, 64
2, 46372, Note_on_c, 0, 72, 0
2, 46380, Note_on_c, 0, 70, 64
2, 46425, Note_on_c, 0, 62, 0
2, 46425, Note_on_c, 0, 65, 0
2, 46425, Note_on_c, 0, 82, 0
2, 46432, Note_on_c, 0, 70, 0
2, 46440, Note_on_c, 0, 79, 64
2, 46440, Note_on_c, 0, 79, 64
2, 46440, Note_on_c, 0, 63, 64
2, 46440, Note_on_c, 0, 67, 64
2, 46492, Note_on_c, 0, 79, 0
2, 46500, Note_on_c, 0, 70, 64
2, 46545, Note_on_c, 0, 63, 0
2, 46545, Note_on_c, 0, 67, 0
2, 46545, Note_on_c, 0, 79, 0
2, 46552, Note_on_c, 0, 70, 0
2, 46560, Note_on_c, 0, 77, 64
2, 46560, Note_on_c, 0, 77, 64
2, 46560, Note_on_c, 0, 62, 64
2, 46560, Note_on_c, 0, 65, 64
2, 46612, Note_on_c, 0, 77, 0
2, 46620, Note_on_c, 0, 70, 64
2, 46665, Note_on_c, 0, 62, 0
2, 46665, Note_on_c, 0, 65, 0
2, 46665, Note_on_c, 0, 58, 0
2, 46665, Note_on_c, 0, 77, 0
2, 46672, Note_on_c, 0, 70, 0
2, 46680, Note_on_c, 0, 77, 64
2, 46680, Note_on_c, 0, 70, 64
2, 46680, Note_on_c, 0, 62, 64
2, 46680, Note_on_c, 0, 53, 64
2, 46732, Note_on_c, 0, 70, 0
2, 46740, Note_on_c, 0, 65, 64
2, 46785, Note_on_c, 0, 77, 0
2, 46785, Note_on_c, 0, 62, 0
2, 46792, Note_on_c, 0, 65, 0
2, 46800, Note_on_c, 0, 75, 64
2, 46800, Note_on_c, 0, 69, 64
2, 46800, Note_on_c, 0, 60, 64
2, 46800, Note_on_c, 0, 63, 64
2, 46852, Note_on_c, 0, 69, 0
2, 46860, Note_on_c, 0, 65, 64
2, 46905, Note_on_c, 0, 60, 0
2, 46905, Note_on_c, 0, 63, 0
2, 46905, Note_on_c, 0, 75, 0
2, 46912, Note_on_c, 0, 65, 0
2, 46920, Note_on_c, 0, 74, 64
2, 46920, Note_on_c, 0, 70, 64
2, 46920, Note_on_c, 0, 58, 64
2, 46920, Note_on_c, 0, 62, 64
2, 46972, Note_on_c, 0, 70, 0
2, 46980, Note_on_c, 0, 65, 64
2, 47025, Note_on_c, 0, 58, 0
2, 47025, Note_on_c, 0, 62, 0
2, 47025, Note_on_c, 0, 74, 0
2, 47032, Note_on_c, 0, 65, 0
2, 47040, Note_on_c, 0, 72, 64
2, 47040, Note_on_c, 0, 72, 64
2, 47040, Note_on_c, 0, 57, 64
2, 47040, Note_on_c, 0, 60, 64
2, 47092, Note_on_c, 0, 72, 0
2, 47100, Note_on_c, 0, 65, 64
2, 47145, Note_on_c, 0, 57, 0
2, 47145, Note_on_c, 0, 60, 0
2, 47145, Note_on_c, 0, 53, 0
2, 47145, Note_on_c, 0, 72, 0
2, 47152, Note_on_c, 0, 65, 0
2, 47160, Note_on_c, 0, 74, 64
2, 47160, Note_on_c, 0, 46, 64
2, 47160, Note_on_c, 0, 46, 64
2, 47220, Note_on_c, 0, 65, 64
2, 47265, Note_on_c, 0, 46, 0
2, 47272, Note_on_c, 0, 65, 0
2, 47280, Note_on_c, 0, 67, 64
2, 47280, Note_on_c, 0, 49, 64
2, 47280, Note_on_c, 0, 52, 64
2, 47332, Note_on_c, 0, 67, 0
2, 47340, Note_on_c, 0, 65, 64
2, 47392, Note_on_c, 0, 65, 0
2, 47400, Note_on_c, 0, 67, 64
2, 47452, Note_on_c, 0, 67, 0
2, 47460, Note_on_c, 0, 65, 64
2, 47505, Note_on_c, 0, 49, 0
2, 47505, Note_on_c, 0, 52, 0
2, 47512, Note_on_c, 0, 65, 0
2, 47520, Note_on_c, 0, 67, 64
2, 47520, Note_on_c, 0, 50, 64
2, 47520, Note_on_c, 0, 53, 64
2, 47572, Note_on_c, 0, 67, 0
2, 47580, Note_on_c, 0, 65, 64
2, 47625, Note_on_c, 0, 50, 0
2, 47625, Note_on_c, 0, 53, 0
2, 47625, Note_on_c, 0, 74, 0
2, 47625, Note_on_c, 0, 46, 0
2, 47632, Note_on_c, 0, 65, 0
2, 47640, Note_on_c, 0, 72, 64
2, 47640, Note_on_c, 0, 46, 64
2, 47640, Note_on_c, 0, 46, 64
2, 47700, Note_on_c, 0, 63, 64
2, 47745, Note_on_c, 0, 46, 0
2, 47752, Note_on_c, 0, 63, 0
2, 47760, Note_on_c, 0, 65, 64
2, 47760, Note_on_c, 0, 54, 64
2, 47760, Note_on_c, 0, 57, 64
2, 47812, Note_on_c, 0, 65, 0
2, 47820, Note_on_c, 0, 63, 64
2, 47872, Note_on_c, 0, 63, 0
2, 47880, Note_on_c, 0, 65, 64
2, 47932, Note_on_c, 0, 65, 0
2, 47940, Note_on_c, 0, 63, 64
2, 47985, Note_on_c, 0, 54, 0
2, 47992, Note_on_c, 0, 63, 0
2, 48000, Note_on_c, 0, 65, 64
2, 48000, Note_on_c, 0, 53, 64
2, 48052, Note_on_c, 0, 65, 0
2, 48060, Note_on_c, 0, 63, 64
2, 48105, Note_on_c, 0, 72, 0
2, 48105, Note_on_c, 0, 53, 0
2, 48105, Note_on_c, 0, 57, 0
2, 48105, Note_on_c, 0, 46, 0
2, 48112, Note_on_c, 0, 63, 0
2, 48120, Note_on_c, 0, 70, 64
2, 48120, Note_on_c, 0, 62, 64
2, 48120, Note_on_c, 0, 46, 64
2, 48120, Note_on_c, 0, 46, 64
2, 48172, Note_on_c, 0, 62, 0
2, 48180, Note_on_c, 0, 58, 64
2, 48225, Note_on_c, 0, 46, 0
2, 48232, Note_on_c, 0, 58, 0
2, 48240, Note_on_c, 0, 60, 64
2, 48240, Note_on_c, 0, 50, 64
2, 48240, Note_on_c, 0, 53, 64
2, 48292, Note_on_c, 0, 60, 0
2, 48300, Note_on_c, 0, 58, 64
2, 48345, Note_on_c, 0, 50, 0
2, 48345, Note_on_c, 0, 53, 0
2, 48345, Note_on_c, 0, 70, 0
2, 48352, Note_on_c, 0, 58, 0
2, 48360, Note_on_c, 0, 67, 64
2, 48360, Note_on_c, 0, 67, 64
2, 48360, Note_on_c, 0, 51, 64
2, 48360, Note_on_c, 0, 55, 64
2, 48412, Note_on_c, 0, 67, 0
2, 48420, Note_on_c, 0, 58, 64
2, 48465, Note_on_c, 0, 51, 0
2, 48465, Note_on_c, 0, 55, 0
2, 48465, Note_on_c, 0, 67, 0
2, 48472, Note_on_c, 0, 58, 0
2, 48480, Note_on_c, 0, 65, 64
2, 48480, Note_on_c, 0, 65, 64
2, 48480, Note_on_c, 0, 50, 64
2, 48480, Note_on_c, 0, 53, 64
2, 48532, Note_on_c, 0, 65, 0
2, 48540, Note_on_c, 0, 58, 64
2, 48585, Note_on_c, 0, 50, 0
2, 48585, Note_on_c, 0, 53, 0
2, 48585, Note_on_c, 0, 46, 0
2, 48585, Note_on_c, 0, 65, 0
2, 48592, Note_on_c, 0, 58, 0
2, 48600, Note_on_c, 0, 58, 64
2, 48600, Note_on_c, 0, 65, 64
2, 48600, Note_on_c, 0, 50, 64
2, 48600, Note_on_c, 0, 41, 64
2, 48652, Note_on_c, 0, 58, 0
2, 48660, Note_on_c, 0, 53, 64
2, 48705, Note_on_c, 0, 65, 0
2, 48705, Note_on_c, 0, 50, 0
2, 48712, Note_on_c, 0, 53, 0
2, 48720, Note_on_c, 0, 57, 64
2, 48720, Note_on_c, 0, 63, 64
2, 48720, Note_on_c, 0, 48, 64
2, 48720, Note_on_c, 0, 51, 64
2, 48772, Note_on_c, 0, 57, 0
2, 48780, Note_on_c, 0, 53, 64
2, 48825, Note_on_c, 0, 48, 0
2, 48825, Note_on_c, 0, 51, 0
2, 48825, Note_on_c, 0, 63, 0
2, 48832, Note_on_c, 0, 53, 0
2, 48840, Note_on_c, 0, 58, 64
2, 48840, Note_on_c, 0, 62, 64
2, 48840, Note_on_c, 0, 46, 64
2, 48840, Note_on_c, 0, 50, 64
2, 48892, Note_on_c, 0, 58, 0
2, 48900, Note_on_c, 0, 53, 64
2, 48945, Note_on_c, 0, 46, 0
2, 48945, Note_on_c, 0, 50, 0
2, 48945, Note_on_c, 0, 62, 0
2, 48952, Note_on_c, 0, 53, 0
2, 48960, Note_on_c, 0, 60, 64
2, 48960, Note_on_c, 0, 60, 64
2, 48960, Note_on_c, 0, 44, 64
2, 48960, Note_on_c, 0, 48, 64
2, 49012, Note_on_c, 0, 60, 0
2, 49020, Note_on_c, 0, 51, 64
2, 49065, Note_on_c, 0, 44, 0
2, 49065, Note_on_c, 0, 48, 0
2, 49065, Note_on_c, 0, 41, 0
2, 49065, Note_on_c, 0, 60, 0
2, 49072, Note_on_c, 0, 51, 0
2, 49080, Note_on_c, 0, 58, 64
2, 49080, Note_on_c, 0, 58, 64
2, 49080, Note_on_c, 0, 34, 64
2, 49080, Note_on_c, 0, 46, 64
2, 49132, Note_on_c, 0, 58, 0
2, 49140, Note_on_c, 0, 54, 64
2, 49200, Note_on_c, 0, 50, 64
2, 49245, Note_on_c, 0, 46, 0
2, 49245, Note_on_c, 0, 34, 0
2, 49260, Note_on_c, 0, 42, 64
2, 49305, Note_on_c, 0, 58, 0
2, 49312, Note_on_c, 0, 42, 0
2, 49320, Note_on_c, 0, 58, 64
2, 49320, Note_on_c, 0, 41, 64
2, 49372, Note_on_c, 0, 58, 0
2, 49372, Note_on_c, 0, 54, 0
2, 49372, Note_on_c, 0, 50, 0
2, 49380, Note_on_c, 0, 53, 64
2, 49425, Note_on_c, 0, 41, 0
2, 49432, Note_on_c, 0, 53, 0
2, 49440, Note_on_c, 0, 50, 64
2, 49440, Note_on_c, 0, 34, 64
2, 49492, Note_on_c, 0, 50, 0
2, 49500, Note_on_c, 0, 58, 64
2, 49545, Note_on_c, 0, 34, 0
2, 49560, Note_on_c, 0, 53, 64
2, 49560, Note_on_c, 0, 29, 64
2, 49612, Note_on_c, 0, 58, 0
2, 49620, Note_on_c, 0, 58, 64
2, 49665, Note_on_c, 0, 29, 0
2, 49672, Note_on_c, 0, 58, 0
2, 49680, Note_on_c, 0, 57, 64
2, 49680, Note_on_c, 0, 51, 64
2, 49732, Note_on_c, 0, 51, 0
2, 49732, Note_on_c, 0, 57, 0
2, 49740, Note_on_c, 0, 58, 64
2, 49740, Note_on_c, 0, 50, 64
2, 49785, Note_on_c, 0, 53, 0
2, 49792, Note_on_c, 0, 50, 0
2, 49792, Note_on_c, 0, 58, 0
2, 49800, Note_on_c, 0, 60, 64
2, 49800, Note_on_c, 0, 48, 64
2, 49852, Note_on_c, 0, 48, 0
2, 49852, Note_on_c, 0, 60, 0
2, 49860, Note_on_c, 0, 62, 64
2, 49860, Note_on_c, 0, 46, 64
2, 49912, Note_on_c, 0, 46, 0
2, 49912, Note_on_c, 0, 62, 0
2, 49920, Note_on_c, 0, 63, 64
2, 49920, Note_on_c, 0, 41, 64
2, 49920, Note_on_c, 0, 45, 64
2, 49972, Note_on_c, 0, 45, 0
2, 49972, Note_on_c, 0, 41, 0
2, 49972, Note_on_c, 0, 63, 0
2, 49980, Note_on_c, 0, 60, 64
2, 49980, Note_on_c, 0, 53, 64
2, 50032, Note_on_c, 0, 53, 0
2, 50032, Note_on_c, 0, 60, 0
2, 50040, Note_on_c, 0, 70, 64
2, 50040, Note_on_c, 0, 46, 64
2, 50100, Note_on_c, 0, 66, 64
2, 50160, Note_on_c, 0, 62, 64
2, 50205, Note_on_c, 0, 46, 0
2, 50220, Note_on_c, 0, 54, 64
2, 50272, Note_on_c, 0, 54, 0
2, 50280, Note_on_c, 0, 53, 64
2, 50332, Note_on_c, 0, 62, 0
2, 50332, Note_on_c, 0, 70, 0
2, 50332, Note_on_c, 0, 66, 0
2, 50340, Note_on_c, 0, 65, 64
2, 50385, Note_on_c, 0, 53, 0
2, 50392, Note_on_c, 0, 65, 0
2, 50400, Note_on_c, 0, 62, 64
2, 50400, Note_on_c, 0, 46, 64
2, 50452, Note_on_c, 0, 62, 0
2, 50460, Note_on_c, 0, 70, 64
2, 50505, Note_on_c, 0, 46, 0
2, 50520, Note_on_c, 0, 65, 64
2, 50520, Note_on_c, 0, 41, 64
2, 50572, Note_on_c, 0, 70, 0
2, 50580, Note_on_c, 0, 70, 64
2, 50625, Note_on_c, 0, 41, 0
2, 50632, Note_on_c, 0, 70, 0
2, 50640, Note_on_c, 0, 69, 64
2, 50640, Note_on_c, 0, 63, 64
2, 50692, Note_on_c, 0, 63, 0
2, 50692, Note_on_c, 0, 69, 0
2, 50700, Note_on_c, 0, 70, 64
2, 50700, Note_on_c, 0, 62, 64
2, 50745, Note_on_c, 0, 65, 0
2, 50752, Note_on_c, 0, 62, 0
2, 50752, Note_on_c, 0, 70, 0
2, 50760, Note_on_c, 0, 72, 64
2, 50760, Note_on_c, 0, 60, 64
2, 50812, Note_on_c, 0, 60, 0
2, 50812, Note_on_c, 0, 72, 0
2, 50820, Note_on_c, 0, 74, 64
2, 50820, Note_on_c, 0, 58, 64
2, 50872, Note_on_c, 0, 58, 0
2, 50872, Note_on_c, 0, 74, 0
2, 50880, Note_on_c, 0, 75, 64
2, 50880, Note_on_c, 0, 53, 64
2, 50880, Note_on_c, 0, 57, 64
2, 50932, Note_on_c, 0, 57, 0
2, 50932, Note_on_c, 0, 53, 0
2, 50932, Note_on_c, 0, 75, 0
2, 50940, Note_on_c, 0, 72, 64
2, 50940, Note_on_c, 0, 60, 64
2, 50992, Note_on_c, 0, 60, 0
2, 50992, Note_on_c, 0, 72, 0
2, 51000, Note_on_c, 0, 74, 64
2, 51000, Note_on_c, 0, 58, 64
2, 51000, Note_on_c, 0, 62, 64
2, 51052, Note_on_c, 0, 74, 0
2, 51060, Note_on_c, 0, 72, 64
2, 51112, Note_on_c, 0, 72, 0
2, 51120, Note_on_c, 0, 70, 64
2, 51165, Note_on_c, 0, 62, 0
2, 51165, Note_on_c, 0, 58, 0
2, 51180, Note_on_c, 0, 60, 64
2, 51232, Note_on_c, 0, 60, 0
2, 51240, Note_on_c, 0, 58, 64
2, 51292, Note_on_c, 0, 70, 0
2, 51300, Note_on_c, 0, 67, 64
2, 51352, Note_on_c, 0, 67, 0
2, 51360, Note_on_c, 0, 65, 64
2, 51405, Note_on_c, 0, 58, 0
2, 51420, Note_on_c, 0, 55, 64
2, 51472, Note_on_c, 0, 55, 0
2, 51480, Note_on_c, 0, 55, 64
2, 51532, Note_on_c, 0, 65, 0
2, 51540, Note_on_c, 0, 63, 64
2, 51592, Note_on_c, 0, 63, 0
2, 51600, Note_on_c, 0, 62, 64
2, 51645, Note_on_c, 0, 55, 0
2, 51660, Note_on_c, 0, 51, 64
2, 51712, Note_on_c, 0, 51, 0
2, 51720, Note_on_c, 0, 50, 64
2, 51772, Note_on_c, 0, 62, 0
2, 51780, Note_on_c, 0, 60, 64
2, 51832, Note_on_c, 0, 60, 0
2, 51840, Note_on_c, 0, 58, 64
2, 51885, Note_on_c, 0, 50, 0
2, 51900, Note_on_c, 0, 48, 64
2, 51952, Note_on_c, 0, 48, 0
2, 51960, Note_on_c, 0, 46, 64
2, 52012, Note_on_c, 0, 58, 0
2, 52020, Note_on_c, 0, 55, 64
2, 52072, Note_on_c, 0, 55, 0
2, 52080, Note_on_c, 0, 53, 64
2, 52125, Note_on_c, 0, 46, 0
2, 52140, Note_on_c, 0, 43, 64
2, 52192, Note_on_c, 0, 43, 0
2, 52200, Note_on_c, 0, 41, 64
2, 52252, Note_on_c, 0, 53, 0
2, 52260, Note_on_c, 0, 51, 64
2, 52312, Note_on_c, 0, 51, 0
2, 52320, Note_on_c, 0, 50, 64
2, 52365, Note_on_c, 0, 41, 0
2, 52380, Note_on_c, 0, 39, 64
2, 52432, Note_on_c, 0, 39, 0
2, 52440, Note_on_c, 0, 38, 64
2, 52492, Note_on_c, 0, 50, 0
2, 52500, Note_on_c, 0, 48, 64
2, 52552, Note_on_c, 0, 48, 0
2, 52560, Note_on_c, 0, 46, 64
2, 52605, Note_on_c, 0, 38, 0
2, 52620, Note_on_c, 0, 36, 64
2, 52672, Note_on_c, 0, 36, 0
2, 52680, Note_on_c, 0, 34, 64
2, 52732, Note_on_c, 0, 46, 0
2, 52740, Note_on_c, 0, 48, 64
2, 52792, Note_on_c, 0, 48, 0
2, 52800, Note_on_c, 0, 46, 64
2, 52845, Note_on_c, 0, 34, 0
2, 52860, Note_on_c, 0, 65, 64
2, 52860, Note_on_c, 0, 68, 64
2, 52912, Note_on_c, 0, 68, 0
2, 52912, Note_on_c, 0, 65, 0
2, 52920, Note_on_c, 0, 65, 64
2, 52920, Note_on_c, 0, 68, 64
2, 53025, Note_on_c, 0, 46, 0
2, 53385, Note_on_c, 0, 68, 0
2, 53385, Note_on_c, 0, 65, 0
2, 53400, Note_on_c, 0, 63, 64
2, 53400, Note_on_c, 0, 67, 64
2, 53865, Note_on_c, 0, 67, 0
2, 53865, Note_on_c, 0, 63, 0
2, 53880, Note_on_c, 0, 70, 64
2, 53880, Note_on_c, 0, 77, 64
2, 53880, Note_on_c, 0, 62, 64
2, 53880, Note_on_c, 0, 65, 64
2, 54345, Note_on_c, 0, 65, 0
2, 54345, Note_on_c, 0, 70, 0
2, 54345, Note_on_c, 0, 77, 0
2, 54345, Note_on_c, 0, 62, 0
2, 54360, Note_on_c, 0, 68, 64
2, 54360, Note_on_c, 0, 80, 64
2, 54360, Note_on_c, 0, 60, 64
2, 54360, Note_on_c, 0, 63, 64
2, 54825, Note_on_c, 0, 63, 0
2, 54825, Note_on_c, 0, 68, 0
2, 54825, Note_on_c, 0, 80, 0
2, 54825, Note_on_c, 0, 60, 0
2, 54840, Note_on_c, 0, 67, 64
2, 54840, Note_on_c, 0, 79, 64
2, 54840, Note_on_c, 0, 59, 64
2, 54840, Note_on_c, 0, 62, 64
2, 55185, Note_on_c, 0, 62, 0
2, 55185, Note_on_c, 0, 67, 0
2, 55185, Note_on_c, 0, 79, 0
2, 55185, Note_on_c, 0, 59, 0
2, 55200, Note_on_c, 0, 74, 64
2, 55200, Note_on_c, 0, 58, 64
2, 55200, Note_on_c, 0, 62, 64
2, 55252, Note_on_c, 0, 74, 0
2, 55260, Note_on_c, 0, 79, 64
2, 55305, Note_on_c, 0, 62, 0
2, 55305, Note_on_c, 0, 58, 0
2, 55312, Note_on_c, 0, 79, 0
2, 55320, Note_on_c, 0, 67, 64
2, 55320, Note_on_c, 0, 79, 64
2, 55320, Note_on_c, 0, 57, 64
2, 55320, Note_on_c, 0, 60, 64
2, 55372, Note_on_c, 0, 79, 0
2, 55372, Note_on_c, 0, 67, 0
2, 55425, Note_on_c, 0, 57, 0
2, 55425, Note_on_c, 0, 60, 0
2, 55440, Note_on_c, 0, 72, 64
2, 55492, Note_on_c, 0, 72, 0
2, 55500, Note_on_c, 0, 77, 64
2, 55552, Note_on_c, 0, 77, 0
2, 55560, Note_on_c, 0, 65, 64
2, 55560, Note_on_c, 0, 77, 64
2, 55560, Note_on_c, 0, 56, 64
2, 55560, Note_on_c, 0, 60, 64
2, 55612, Note_on_c, 0, 77, 0
2, 55612, Note_on_c, 0, 65, 0
2, 55665, Note_on_c, 0, 56, 0
2, 55665, Note_on_c, 0, 60, 0
2, 55680, Note_on_c, 0, 72, 64
2, 55732, Note_on_c, 0, 72, 0
2, 55740, Note_on_c, 0, 75, 64
2, 55792, Note_on_c, 0, 75, 0
2, 55800, Note_on_c, 0, 63, 64
2, 55800, Note_on_c, 0, 75, 64
2, 55800, Note_on_c, 0, 55, 64
2, 55800, Note_on_c, 0, 60, 64
2, 55852, Note_on_c, 0, 75, 0
2, 55852, Note_on_c, 0, 63, 0
2, 55905, Note_on_c, 0, 55, 0
2, 55905, Note_on_c, 0, 60, 0
2, 55920, Note_on_c, 0, 69, 64
2, 55920, Note_on_c, 0, 54, 64
2, 55920, Note_on_c, 0, 60, 64
2, 55972, Note_on_c, 0, 69, 0
2, 55980, Note_on_c, 0, 74, 64
2, 56025, Note_on_c, 0, 60, 0
2, 56025, Note_on_c, 0, 54, 0
2, 56032, Note_on_c, 0, 74, 0
2, 56040, Note_on_c, 0, 62, 64
2, 56040, Note_on_c, 0, 67, 64
2, 56040, Note_on_c, 0, 74, 64
2, 56040, Note_on_c, 0, 53, 64
2, 56040, Note_on_c, 0, 55, 64
2, 56040, Note_on_c, 0, 59, 64
2, 56092, Note_on_c, 0, 74, 0
2, 56092, Note_on_c, 0, 62, 0
2, 56092, Note_on_c, 0, 67, 0
2, 56145, Note_on_c, 0, 53, 0
2, 56145, Note_on_c, 0, 55, 0
2, 56145, Note_on_c, 0, 59, 0
2, 56160, Note_on_c, 0, 72, 64
2, 56160, Note_on_c, 0, 79, 64
2, 56160, Note_on_c, 0, 51, 64
2, 56160, Note_on_c, 0, 55, 64
2, 56160, Note_on_c, 0, 60, 64
2, 56212, Note_on_c, 0, 79, 0
2, 56220, Note_on_c, 0, 84, 64
2, 56265, Note_on_c, 0, 55, 0
2, 56265, Note_on_c, 0, 60, 0
2, 56265, Note_on_c, 0, 51, 0
2, 56272, Note_on_c, 0, 72, 0
2, 56272, Note_on_c, 0, 84, 0
2, 56280, Note_on_c, 0, 65, 64
2, 56745, Note_on_c, 0, 65, 0
2, 56760, Note_on_c, 0, 63, 64
2, 57225, Note_on_c, 0, 63, 0
2, 57240, Note_on_c, 0, 66, 64
2, 57240, Note_on_c, 0, 69, 64
2, 57240, Note_on_c, 0, 75, 64
2, 57360, Note_on_c, 0, 48, 64
2, 57412, Note_on_c, 0, 48, 0
2, 57420, Note_on_c, 0, 54, 64
2, 57472, Note_on_c, 0, 54, 0
2, 57480, Note_on_c, 0, 54, 64
2, 57585, Note_on_c, 0, 54, 0
2, 57600, Note_on_c, 0, 45, 64
2, 57652, Note_on_c, 0, 45, 0
2, 57660, Note_on_c, 0, 51, 64
2, 57712, Note_on_c, 0, 51, 0
2, 57720, Note_on_c, 0, 51, 64
2, 57825, Note_on_c, 0, 51, 0
2, 57840, Note_on_c, 0, 41, 64
2, 57892, Note_on_c, 0, 41, 0
2, 57900, Note_on_c, 0, 48, 64
2, 57952, Note_on_c, 0, 48, 0
2, 57960, Note_on_c, 0, 48, 64
2, 58065, Note_on_c, 0, 48, 0
2, 58065, Note_on_c, 0, 66, 0
2, 58065, Note_on_c, 0, 69, 0
2, 58065, Note_on_c, 0, 75, 0
2, 58080, Note_on_c, 0, 65, 64
2, 58080, Note_on_c, 0, 70, 64
2, 58080, Note_on_c, 0, 73, 64
2, 58080, Note_on_c, 0, 49, 64
2, 58185, Note_on_c, 0, 49, 0
2, 58185, Note_on_c, 0, 65, 0
2, 58185, Note_on_c, 0, 70, 0
2, 58185, Note_on_c, 0, 73, 0
2, 58200, Note_on_c, 0, 73, 64
2, 58665, Note_on_c, 0, 73, 0
2, 58680, Note_on_c, 0, 72, 64
2, 59145, Note_on_c, 0, 72, 0
2, 59160, Note_on_c, 0, 72, 64
2, 59160, Note_on_c, 0, 74, 64
2, 59160, Note_on_c, 0, 78, 64
2, 59160, Note_on_c, 0, 81, 64
2, 59280, Note_on_c, 0, 62, 64
2, 59332, Note_on_c, 0, 62, 0
2, 59340, Note_on_c, 0, 69, 64
2, 59392, Note_on_c, 0, 69, 0
2, 59400, Note_on_c, 0, 69, 64
2, 59505, Note_on_c, 0, 69, 0
2, 59520, Note_on_c, 0, 54, 64
2, 59572, Note_on_c, 0, 54, 0
2, 59580, Note_on_c, 0, 60, 64
2, 59632, Note_on_c, 0, 60, 0
2, 59640, Note_on_c, 0, 60, 64
2, 59745, Note_on_c, 0, 60, 0
2, 59760, Note_on_c, 0, 50, 64
2, 59812, Note_on_c, 0, 50, 0
2, 59820, Note_on_c, 0, 57, 64
2, 59872, Note_on_c, 0, 57, 0
2, 59880, Note_on_c, 0, 57, 64
2, 59985, Note_on_c, 0, 57, 0
2, 60000, Note_on_c, 0, 38, 64
2, 60052, Note_on_c, 0, 38, 0
2, 60060, Note_on_c, 0, 50, 64
2, 60105, Note_on_c, 0, 81, 0
2, 60105, Note_on_c, 0, 78, 0
2, 60105, Note_on_c, 0, 72, 0
2, 60105, Note_on_c, 0, 74, 0
2, 60112, Note_on_c, 0, 50, 0
2, 60120, Note_on_c, 0, 72, 64
2, 60585, Note_on_c, 0, 72, 0
2, 60600, Note_on_c, 0, 71, 64
2, 61065, Note_on_c, 0, 71, 0
2, 61080, Note_on_c, 0, 71, 64
2, 61080, Note_on_c, 0, 75, 64
2, 61080, Note_on_c, 0, 78, 64
2, 61080, Note_on_c, 0, 81, 64
2, 61200, Note_on_c, 0, 54, 64
2, 61252, Note_on_c, 0, 54, 0
2, 61260, Note_on_c, 0, 63, 64
2, 61312, Note_on_c, 0, 63, 0
2, 61320, Note_on_c, 0, 63, 64
2, 61425, Note_on_c, 0, 63, 0
2, 61440, Note_on_c, 0, 51, 64
2, 61492, Note_on_c, 0, 51, 0
2, 61500, Note_on_c, 0, 59, 64
2, 61552, Note_on_c, 0, 59, 0
2, 61560, Note_on_c, 0, 59, 64
2, 61665, Note_on_c, 0, 59, 0
2, 61680, Note_on_c, 0, 47, 64
2, 61732, Note_on_c, 0, 47, 0
2, 61740, Note_on_c, 0, 54, 64
2, 61792, Note_on_c, 0, 54, 0
2, 61800, Note_on_c, 0, 54, 64
2, 61905, Note_on_c, 0, 54, 0
2, 61920, Note_on_c, 0, 42, 64
2, 61972, Note_on_c, 0, 42, 0
2, 61980, Note_on_c, 0, 51, 64
2, 62025, Note_on_c, 0, 81, 0
2, 62025, Note_on_c, 0, 78, 0
2, 62025, Note_on_c, 0, 71, 0
2, 62025, Note_on_c, 0, 75, 0
2, 62032, Note_on_c, 0, 51, 0
2, 62040, Note_on_c, 0, 71, 64
2, 62505, Note_on_c, 0, 71, 0
2, 62520, Note_on_c, 0, 70, 64
2, 62985, Note_on_c, 0, 70, 0
2, 63000, Note_on_c, 0, 70, 64
2, 63000, Note_on_c, 0, 74, 64
2, 63000, Note_on_c, 0, 77, 64
2, 63000, Note_on_c, 0, 80, 64
2, 63120, Note_on_c, 0, 56, 64
2, 63172, Note_on_c, 0, 56, 0
2, 63180, Note_on_c, 0, 65, 64
2, 63232, Note_on_c, 0, 65, 0
2, 63240, Note_on_c, 0, 65, 64
2, 63345, Note_on_c, 0, 65, 0
2, 63360, Note_on_c, 0, 53, 64
2, 63412, Note_on_c, 0, 53, 0
2, 63420, Note_on_c, 0, 62, 64
2, 63472, Note_on_c, 0, 62, 0
2, 63480, Note_on_c, 0, 62, 64
2, 63585, Note_on_c, 0, 62, 0
2, 63585, Note_on_c, 0, 80, 0
2, 63585, Note_on_c, 0, 70, 0
2, 63585, Note_on_c, 0, 74, 0
2, 63585, Note_on_c, 0, 77, 0
2, 63600, Note_on_c, 0, 82, 64
2, 63600, Note_on_c, 0, 50, 64
2, 63600, Note_on_c, 0, 53, 64
2, 63652, Note_on_c, 0, 53, 0
2, 63652, Note_on_c, 0, 50, 0
2, 63660, Note_on_c, 0, 53, 64
2, 63660, Note_on_c, 0, 56, 64
2, 63705, Note_on_c, 0, 82, 0
2, 63712, Note_on_c, 0, 56, 0
2, 63712, Note_on_c, 0, 53, 0
2, 63720, Note_on_c, 0, 83, 64
2, 63720, Note_on_c, 0, 53, 64
2, 63720, Note_on_c, 0, 56, 64
2, 63825, Note_on_c, 0, 56, 0
2, 63825, Note_on_c, 0, 53, 0
2, 63825, Note_on_c, 0, 83, 0
2, 63840, Note_on_c, 0, 82, 64
2, 63840, Note_on_c, 0, 50, 64
2, 63840, Note_on_c, 0, 53, 64
2, 63892, Note_on_c, 0, 53, 0
2, 63892, Note_on_c, 0, 50, 0
2, 63900, Note_on_c, 0, 53, 64
2, 63900, Note_on_c, 0, 56, 64
2, 63945, Note_on_c, 0, 82, 0
2, 63952, Note_on_c, 0, 56, 0
2, 63952, Note_on_c, 0, 53, 0
2, 63960, Note_on_c, 0, 70, 64
2, 63960, Note_on_c, 0, 74, 64
2, 63960, Note_on_c, 0, 77, 64
2, 63960, Note_on_c, 0, 80, 64
2, 64080, Note_on_c, 0, 56, 64
2, 64132, Note_on_c, 0, 56, 0
2, 64140, Note_on_c, 0, 65, 64
2, 64192, Note_on_c, 0, 65, 0
2, 64200, Note_on_c, 0, 65, 64
2, 64305, Note_on_c, 0, 65, 0
2, 64320, Note_on_c, 0, 53, 64
2, 64372, Note_on_c, 0, 53, 0
2, 64380, Note_on_c, 0, 62, 64
2, 64432, Note_on_c, 0, 62, 0
2, 64440, Note_on_c, 0, 62, 64
2, 64545, Note_on_c, 0, 62, 0
2, 64545, Note_on_c, 0, 80, 0
2, 64545, Note_on_c, 0, 70, 0
2, 64545, Note_on_c, 0, 74, 0
2, 64545, Note_on_c, 0, 77, 0
2, 64560, Note_on_c, 0, 77, 64
2, 64560, Note_on_c, 0, 82, 64
2, 64560, Note_on_c, 0, 74, 64
2, 64665, Note_on_c, 0, 74, 0
2, 64665, Note_on_c, 0, 82, 0
2, 64665, Note_on_c, 0, 77, 0
2, 64680, Note_on_c, 0, 78, 64
2, 64680, Note_on_c, 0, 83, 64
2, 64680, Note_on_c, 0, 75, 64
2, 64785, Note_on_c, 0, 75, 0
2, 64785, Note_on_c, 0, 83, 0
2, 64785, Note_on_c, 0, 78, 0
2, 64800, Note_on_c, 0, 77, 64
2, 64800, Note_on_c, 0, 82, 64
2, 64800, Note_on_c, 0, 74, 64
2, 64905, Note_on_c, 0, 74, 0
2, 64905, Note_on_c, 0, 82, 0
2, 64905, Note_on_c, 0, 77, 0
2, 64920, Note_on_c, 0, 75, 64
2, 64920, Note_on_c, 0, 79, 64
2, 64920, Note_on_c, 0, 82, 64
2, 64920, Note_on_c, 0, 87, 64
2, 64920, Note_on_c, 0, 61, 64
2, 64920, Note_on_c, 0, 67, 64
2, 64920, Note_on_c, 0, 70, 64
2, 65265, Note_on_c, 0, 70, 0
2, 65265, Note_on_c, 0, 61, 0
2, 65265, Note_on_c, 0, 79, 0
2, 65265, Note_on_c, 0, 82, 0
2, 65265, Note_on_c, 0, 75, 0
2, 65265, Note_on_c, 0, 67, 0
2, 65265, Note_on_c, 0, 87, 0
2, 65280, Note_on_c, 0, 77, 64
2, 65280, Note_on_c, 0, 80, 64
2, 65280, Note_on_c, 0, 59, 64
2, 65280, Note_on_c, 0, 65, 64
2, 65280, Note_on_c, 0, 68, 64
2, 65332, Note_on_c, 0, 80, 0
2, 65340, Note_on_c, 0, 85, 64
2, 65385, Note_on_c, 0, 65, 0
2, 65385, Note_on_c, 0, 68, 0
2, 65385, Note_on_c, 0, 59, 0
2, 65392, Note_on_c, 0, 77, 0
2, 65392, Note_on_c, 0, 85, 0
2, 65400, Note_on_c, 0, 85, 64
2, 65400, Note_on_c, 0, 58, 64
2, 65400, Note_on_c, 0, 61, 64
2, 65400, Note_on_c, 0, 66, 64
2, 65505, Note_on_c, 0, 66, 0
2, 65505, Note_on_c, 0, 85, 0
2, 65505, Note_on_c, 0, 58, 0
2, 65505, Note_on_c, 0, 61, 0
2, 65520, Note_on_c, 0, 77, 64
2, 65520, Note_on_c, 0, 56, 64
2, 65520, Note_on_c, 0, 61, 64
2, 65572, Note_on_c, 0, 77, 0
2, 65580, Note_on_c, 0, 83, 64
2, 65625, Note_on_c, 0, 61, 0
2, 65625, Note_on_c, 0, 56, 0
2, 65632, Note_on_c, 0, 83, 0
2, 65640, Note_on_c, 0, 80, 64
2, 65640, Note_on_c, 0, 83, 64
2, 65640, Note_on_c, 0, 53, 64
2, 65640, Note_on_c, 0, 61, 64
2, 65745, Note_on_c, 0, 61, 0
2, 65745, Note_on_c, 0, 80, 0
2, 65745, Note_on_c, 0, 83, 0
2, 65745, Note_on_c, 0, 53, 0
2, 65760, Note_on_c, 0, 79, 64
2, 65760, Note_on_c, 0, 82, 64
2, 65760, Note_on_c, 0, 54, 64
2, 65760, Note_on_c, 0, 61, 64
2, 65865, Note_on_c, 0, 61, 0
2, 65865, Note_on_c, 0, 79, 0
2, 65865, Note_on_c, 0, 82, 0
2, 65865, Note_on_c, 0, 54, 0
2, 65880, Note_on_c, 0, 68, 64
2, 65880, Note_on_c, 0, 80, 64
2, 65880, Note_on_c, 0, 59, 64
2, 65880, Note_on_c, 0, 63, 64
2, 65985, Note_on_c, 0, 63, 0
2, 65985, Note_on_c, 0, 68, 0
2, 65985, Note_on_c, 0, 80, 0
2, 65985, Note_on_c, 0, 59, 0
2, 66000, Note_on_c, 0, 66, 64
2, 66000, Note_on_c, 0, 78, 64
2, 66000, Note_on_c, 0, 58, 64
2, 66000, Note_on_c, 0, 61, 64
2, 66105, Note_on_c, 0, 61, 0
2, 66105, Note_on_c, 0, 66, 0
2, 66105, Note_on_c, 0, 78, 0
2, 66105, Note_on_c, 0, 58, 0
2, 66120, Note_on_c, 0, 65, 64
2, 66120, Note_on_c, 0, 77, 64
2, 66120, Note_on_c, 0, 56, 64
2, 66120, Note_on_c, 0, 59, 64
2, 66225, Note_on_c, 0, 59, 0
2, 66225, Note_on_c, 0, 65, 0
2, 66225, Note_on_c, 0, 77, 0
2, 66225, Note_on_c, 0, 56, 0
2, 66240, Note_on_c, 0, 66, 64
2, 66240, Note_on_c, 0, 78, 64
2, 66240, Note_on_c, 0, 54, 64
2, 66240, Note_on_c, 0, 58, 64
2, 66345, Note_on_c, 0, 58, 0
2, 66345, Note_on_c, 0, 66, 0
2, 66345, Note_on_c, 0, 78, 0
2, 66345, Note_on_c, 0, 54, 0
2, 66360, Note_on_c, 0, 68, 64
2, 66360, Note_on_c, 0, 71, 64
2, 66360, Note_on_c, 0, 80, 64
2, 66480, Note_on_c, 0, 41, 64
2, 66532, Note_on_c, 0, 41, 0
2, 66540, Note_on_c, 0, 49, 64
2, 66592, Note_on_c, 0, 49, 0
2, 66600, Note_on_c, 0, 49, 64
2, 66652, Note_on_c, 0, 49, 0
2, 66720, Note_on_c, 0, 53, 64
2, 66772, Note_on_c, 0, 53, 0
2, 66780, Note_on_c, 0, 61, 64
2, 66825, Note_on_c, 0, 80, 0
2, 66825, Note_on_c, 0, 68, 0
2, 66825, Note_on_c, 0, 71, 0
2, 66832, Note_on_c, 0, 61, 0
2, 66840, Note_on_c, 0, 68, 64
2, 66840, Note_on_c, 0, 71, 64
2, 66840, Note_on_c, 0, 80, 64
2, 66960, Note_on_c, 0, 41, 64
2, 67012, Note_on_c, 0, 41, 0
2, 67020, Note_on_c, 0, 50, 64
2, 67072, Note_on_c, 0, 50, 0
2, 67080, Note_on_c, 0, 50, 64
2, 67132, Note_on_c, 0, 50, 0
2, 67200, Note_on_c, 0, 53, 64
2, 67252, Note_on_c, 0, 53, 0
2, 67260, Note_on_c, 0, 62, 64
2, 67305, Note_on_c, 0, 80, 0
2, 67305, Note_on_c, 0, 68, 0
2, 67305, Note_on_c, 0, 71, 0
2, 67312, Note_on_c, 0, 62, 0
2, 67320, Note_on_c, 0, 67, 64
2, 67320, Note_on_c, 0, 72, 64
2, 67320, Note_on_c, 0, 79, 64
2, 67440, Note_on_c, 0, 39, 64
2, 67492, Note_on_c, 0, 39, 0
2, 67500, Note_on_c, 0, 48, 64
2, 67552, Note_on_c, 0, 48, 0
2, 67560, Note_on_c, 0, 48, 64
2, 67612, Note_on_c, 0, 48, 0
2, 67680, Note_on_c, 0, 51, 64
2, 67732, Note_on_c, 0, 51, 0
2, 67740, Note_on_c, 0, 60, 64
2, 67785, Note_on_c, 0, 79, 0
2, 67785, Note_on_c, 0, 67, 0
2, 67785, Note_on_c, 0, 72, 0
2, 67792, Note_on_c, 0, 60, 0
2, 67800, Note_on_c, 0, 65, 64
2, 67800, Note_on_c, 0, 67, 64
2, 67800, Note_on_c, 0, 71, 64
2, 67800, Note_on_c, 0, 77, 64
2, 67920, Note_on_c, 0, 38, 64
2, 67972, Note_on_c, 0, 38, 0
2, 67980, Note_on_c, 0, 47, 64
2, 68032, Note_on_c, 0, 47, 0
2, 68040, Note_on_c, 0, 47, 64
2, 68092, Note_on_c, 0, 47, 0
2, 68160, Note_on_c, 0, 50, 64
2, 68212, Note_on_c, 0, 50, 0
2, 68220, Note_on_c, 0, 59, 64
2, 68265, Note_on_c, 0, 77, 0
2, 68265, Note_on_c, 0, 71, 0
2, 68265, Note_on_c, 0, 65, 0
2, 68265, Note_on_c, 0, 67, 0
2, 68272, Note_on_c, 0, 59, 0
2, 68280, Note_on_c, 0, 63, 64
2, 68280, Note_on_c, 0, 67, 64
2, 68280, Note_on_c, 0, 72, 64
2, 68280, Note_on_c, 0, 75, 64
2, 68400, Note_on_c, 0, 36, 64
2, 68452, Note_on_c, 0, 36, 0
2, 68460, Note_on_c, 0, 48, 64
2, 68512, Note_on_c, 0, 48, 0
2, 68520, Note_on_c, 0, 48, 64
2, 68572, Note_on_c, 0, 48, 0
2, 68640, Note_on_c, 0, 48, 64
2, 68700, Note_on_c, 0, 48, 0
2, 68700, Note_on_c, 0, 60, 64
2, 68745, Note_on_c, 0, 75, 0
2, 68745, Note_on_c, 0, 72, 0
2, 68745, Note_on_c, 0, 63, 0
2, 68745, Note_on_c, 0, 67, 0
2, 68752, Note_on_c, 0, 60, 0
2, 68760, Note_on_c, 0, 65, 64
2, 68760, Note_on_c, 0, 68, 64
2, 68760, Note_on_c, 0, 71, 64
2, 68760, Note_on_c, 0, 74, 64
2, 68880, Note_on_c, 0, 36, 64
2, 68932, Note_on_c, 0, 36, 0
2, 68940, Note_on_c, 0, 48, 64
2, 68992, Note_on_c, 0, 48, 0
2, 69000, Note_on_c, 0, 48, 64
2, 69052, Note_on_c, 0, 48, 0
2, 69120, Note_on_c, 0, 48, 64
2, 69180, Note_on_c, 0, 48, 0
2, 69180, Note_on_c, 0, 60, 64
2, 69225, Note_on_c, 0, 74, 0
2, 69225, Note_on_c, 0, 71, 0
2, 69225, Note_on_c, 0, 65, 0
2, 69225, Note_on_c, 0, 68, 0
2, 69232, Note_on_c, 0, 60, 0
2, 69240, Note_on_c, 0, 63, 64
2, 69240, Note_on_c, 0, 67, 64
2, 69240, Note_on_c, 0, 72, 64
2, 69360, Note_on_c, 0, 36, 64
2, 69412, Note_on_c, 0, 36, 0
2, 69420, Note_on_c, 0, 48, 64
2, 69472, Note_on_c, 0, 48, 0
2, 69480, Note_on_c, 0, 48, 64
2, 69532, Note_on_c, 0, 48, 0
2, 69600, Note_on_c, 0, 48, 64
2, 69660, Note_on_c, 0, 48, 0
2, 69660, Note_on_c, 0, 60, 64
2, 69705, Note_on_c, 0, 72, 0
2, 69705, Note_on_c, 0, 63, 0
2, 69705, Note_on_c, 0, 67, 0
2, 69712, Note_on_c, 0, 60, 0
2, 69720, Note_on_c, 0, 59, 64
2, 69720, Note_on_c, 0, 62, 64
2, 69720, Note_on_c, 0, 65, 64
2, 69720, Note_on_c, 0, 68, 64
2, 69840, Note_on_c, 0, 36, 64
2, 69892, Note_on_c, 0, 36, 0
2, 69900, Note_on_c, 0, 48, 64
2, 69952, Note_on_c, 0, 48, 0
2, 69960, Note_on_c, 0, 48, 64
2, 70012, Note_on_c, 0, 48, 0
2, 70080, Note_on_c, 0, 48, 64
2, 70140, Note_on_c, 0, 48, 0
2, 70140, Note_on_c, 0, 60, 64
2, 70185, Note_on_c, 0, 68, 0
2, 70185, Note_on_c, 0, 65, 0
2, 70185, Note_on_c, 0, 59, 0
2, 70185, Note_on_c, 0, 62, 0
2, 70192, Note_on_c, 0, 60, 0
2, 70200, Note_on_c, 0, 60, 64
2, 70200, Note_on_c, 0, 63, 64
2, 70200, Note_on_c, 0, 67, 64
2, 70320, Note_on_c, 0, 36, 64
2, 70372, Note_on_c, 0, 36, 0
2, 70380, Note_on_c, 0, 48, 64
2, 70432, Note_on_c, 0, 48, 0
2, 70440, Note_on_c, 0, 48, 64
2, 70492, Note_on_c, 0, 48, 0
2, 70560, Note_on_c, 0, 48, 64
2, 70620, Note_on_c, 0, 48, 0
2, 70620, Note_on_c, 0, 60, 64
2, 70665, Note_on_c, 0, 60, 0
2, 70665, Note_on_c, 0, 67, 0
2, 70665, Note_on_c, 0, 63, 0
2, 70672, Note_on_c, 0, 60, 0
2, 70680, Note_on_c, 0, 60, 64
2, 70680, Note_on_c, 0, 63, 64
2, 70680, Note_on_c, 0, 68, 64
2, 70800, Note_on_c, 0, 36, 64
2, 70852, Note_on_c, 0, 36, 0
2, 70860, Note_on_c, 0, 48, 64
2, 70912, Note_on_c, 0, 48, 0
2, 70920, Note_on_c, 0, 48, 64
2, 70972, Note_on_c, 0, 48, 0
2, 71040, Note_on_c, 0, 48, 64
2, 71100, Note_on_c, 0, 48, 0
2, 71100, Note_on_c, 0, 60, 64
2, 71145, Note_on_c, 0, 60, 0
2, 71145, Note_on_c, 0, 68, 0
2, 71145, Note_on_c, 0, 63, 0
2, 71152, Note_on_c, 0, 60, 0
2, 71160, Note_on_c, 0, 63, 64
2, 71160, Note_on_c, 0, 68, 64
2, 71280, Note_on_c, 0, 48, 64
2, 71332, Note_on_c, 0, 48, 0
2, 71340, Note_on_c, 0, 60, 64
2, 71392, Note_on_c, 0, 60, 0
2, 71400, Note_on_c, 0, 48, 64
2, 71452, Note_on_c, 0, 48, 0
2, 71460, Note_on_c, 0, 60, 64
2, 71512, Note_on_c, 0, 60, 0
2, 71625, Note_on_c, 0, 68, 0
2, 71625, Note_on_c, 0, 63, 0
2, 71640, Note_on_c, 0, 62, 64
2, 71640, Note_on_c, 0, 68, 64
2, 71760, Note_on_c, 0, 47, 64
2, 71812, Note_on_c, 0, 47, 0
2, 71820, Note_on_c, 0, 59, 64
2, 71872, Note_on_c, 0, 59, 0
2, 71880, Note_on_c, 0, 47, 64
2, 71932, Note_on_c, 0, 47, 0
2, 71940, Note_on_c, 0, 59, 64
2, 71992, Note_on_c, 0, 59, 0
2, 72105, Note_on_c, 0, 68, 0
2, 72105, Note_on_c, 0, 62, 0
2, 72120, Note_on_c, 0, 63, 64
2, 72120, Note_on_c, 0, 68, 64
2, 72240, Note_on_c, 0, 48, 64
2, 72292, Note_on_c, 0, 48, 0
2, 72300, Note_on_c, 0, 60, 64
2, 72352, Note_on_c, 0, 60, 0
2, 72360, Note_on_c, 0, 48, 64
2, 72412, Note_on_c, 0, 48, 0
2, 72420, Note_on_c, 0, 60, 64
2, 72472, Note_on_c, 0, 60, 0
2, 72585, Note_on_c, 0, 68, 0
2, 72585, Note_on_c, 0, 63, 0
2, 72600, Note_on_c, 0, 63, 64
2, 72600, Note_on_c, 0, 68, 64
2, 72720, Note_on_c, 0, 48, 64
2, 72772, Note_on_c, 0, 48, 0
2, 72780, Note_on_c, 0, 60, 64
2, 72832, Note_on_c, 0, 60, 0
2, 72840, Note_on_c, 0, 48, 64
2, 72892, Note_on_c, 0, 48, 0
2, 72900, Note_on_c, 0, 60, 64
2, 72952, Note_on_c, 0, 60, 0
2, 73065, Note_on_c, 0, 68, 0
2, 73065, Note_on_c, 0, 63, 0
2, 73080, Note_on_c, 0, 63, 64
2, 73080, Note_on_c, 0, 68, 64
2, 73200, Note_on_c, 0, 48, 64
2, 73252, Note_on_c, 0, 48, 0
2, 73260, Note_on_c, 0, 60, 64
2, 73312, Note_on_c, 0, 60, 0
2, 73320, Note_on_c, 0, 48, 64
2, 73372, Note_on_c, 0, 48, 0
2, 73380, Note_on_c, 0, 60, 64
2, 73425, Note_on_c, 0, 68, 0
2, 73425, Note_on_c, 0, 63, 0
2, 73432, Note_on_c, 0, 60, 0
2, 73440, Note_on_c, 0, 56, 64
2, 73440, Note_on_c, 0, 48, 64
2, 73492, Note_on_c, 0, 48, 0
2, 73492, Note_on_c, 0, 56, 0
2, 73500, Note_on_c, 0, 68, 64
2, 73500, Note_on_c, 0, 60, 64
2, 73552, Note_on_c, 0, 60, 0
2, 73552, Note_on_c, 0, 68, 0
2, 73560, Note_on_c, 0, 56, 64
2, 73560, Note_on_c, 0, 48, 64
2, 73612, Note_on_c, 0, 48, 0
2, 73612, Note_on_c, 0, 56, 0
2, 73620, Note_on_c, 0, 68, 64
2, 73620, Note_on_c, 0, 60, 64
2, 73672, Note_on_c, 0, 60, 0
2, 73672, Note_on_c, 0, 68, 0
2, 73680, Note_on_c, 0, 68, 64
2, 73680, Note_on_c, 0, 60, 64
2, 73732, Note_on_c, 0, 60, 0
2, 73732, Note_on_c, 0, 68, 0
2, 73740, Note_on_c, 0, 80, 64
2, 73740, Note_on_c, 0, 63, 64
2, 73792, Note_on_c, 0, 63, 0
2, 73792, Note_on_c, 0, 80, 0
2, 73800, Note_on_c, 0, 68, 64
2, 73800, Note_on_c, 0, 60, 64
2, 73852, Note_on_c, 0, 60, 0
2, 73852, Note_on_c, 0, 68, 0
2, 73860, Note_on_c, 0, 80, 64
2, 73860, Note_on_c, 0, 63, 64
2, 73912, Note_on_c, 0, 63, 0
2, 73912, Note_on_c, 0, 80, 0
2, 73920, Note_on_c, 0, 68, 64
2, 73920, Note_on_c, 0, 60, 64
2, 73972, Note_on_c, 0, 60, 0
2, 73972, Note_on_c, 0, 68, 0
2, 73980, Note_on_c, 0, 80, 64
2, 73980, Note_on_c, 0, 63, 64
2, 74032, Note_on_c, 0, 63, 0
2, 74032, Note_on_c, 0, 80, 0
2, 74040, Note_on_c, 0, 68, 64
2, 74040, Note_on_c, 0, 80, 64
2, 74040, Note_on_c, 0, 60, 64
2, 74040, Note_on_c, 0, 63, 64
2, 74385, Note_on_c, 0, 63, 0
2, 74385, Note_on_c, 0, 68, 0
2, 74385, Note_on_c, 0, 80, 0
2, 74385, Note_on_c, 0, 60, 0
2, 74400, Note_on_c, 0, 67, 64
2, 74400, Note_on_c, 0, 74, 64
2, 74400, Note_on_c, 0, 59, 64
2, 74400, Note_on_c, 0, 62, 64
2, 74452, Note_on_c, 0, 62, 0
2, 74452, Note_on_c, 0, 59, 0
2, 74452, Note_on_c, 0, 74, 0
2, 74460, Note_on_c, 0, 79, 64
2, 74460, Note_on_c, 0, 58, 64
2, 74460, Note_on_c, 0, 61, 64
2, 74512, Note_on_c, 0, 61, 0
2, 74512, Note_on_c, 0, 67, 0
2, 74512, Note_on_c, 0, 79, 0
2, 74512, Note_on_c, 0, 58, 0
2, 74520, Note_on_c, 0, 79, 64
2, 74520, Note_on_c, 0, 67, 64
2, 74520, Note_on_c, 0, 58, 64
2, 74520, Note_on_c, 0, 61, 64
2, 74625, Note_on_c, 0, 61, 0
2, 74625, Note_on_c, 0, 79, 0
2, 74625, Note_on_c, 0, 67, 0
2, 74625, Note_on_c, 0, 58, 0
2, 74640, Note_on_c, 0, 72, 64
2, 74640, Note_on_c, 0, 65, 64
2, 74640, Note_on_c, 0, 57, 64
2, 74640, Note_on_c, 0, 60, 64
2, 74692, Note_on_c, 0, 60, 0
2, 74692, Note_on_c, 0, 57, 0
2, 74692, Note_on_c, 0, 72, 0
2, 74700, Note_on_c, 0, 77, 64
2, 74700, Note_on_c, 0, 56, 64
2, 74700, Note_on_c, 0, 59, 64
2, 74745, Note_on_c, 0, 65, 0
2, 74752, Note_on_c, 0, 77, 0
2, 74752, Note_on_c, 0, 56, 0
2, 74752, Note_on_c, 0, 59, 0
2, 74760, Note_on_c, 0, 77, 64
2, 74760, Note_on_c, 0, 65, 64
2, 74760, Note_on_c, 0, 56, 64
2, 74760, Note_on_c, 0, 59, 64
2, 74865, Note_on_c, 0, 59, 0
2, 74865, Note_on_c, 0, 77, 0
2, 74865, Note_on_c, 0, 65, 0
2, 74865, Note_on_c, 0, 56, 0
2, 74880, Note_on_c, 0, 70, 64
2, 74880, Note_on_c, 0, 63, 64
2, 74880, Note_on_c, 0, 55, 64
2, 74880, Note_on_c, 0, 58, 64
2, 74932, Note_on_c, 0, 58, 0
2, 74932, Note_on_c, 0, 55, 0
2, 74932, Note_on_c, 0, 70, 0
2, 74940, Note_on_c, 0, 75, 64
2, 74940, Note_on_c, 0, 54, 64
2, 74940, Note_on_c, 0, 57, 64
2, 74985, Note_on_c, 0, 63, 0
2, 74992, Note_on_c, 0, 75, 0
2, 74992, Note_on_c, 0, 54, 0
2, 74992, Note_on_c, 0, 57, 0
2, 75000, Note_on_c, 0, 63, 64
2, 75000, Note_on_c, 0, 75, 64
2, 75000, Note_on_c, 0, 68, 64
2, 75000, Note_on_c, 0, 70, 64
2, 75000, Note_on_c, 0, 53, 64
2, 75000, Note_on_c, 0, 56, 64
2, 75225, Note_on_c, 0, 75, 0
2, 75225, Note_on_c, 0, 63, 0
2, 75240, Note_on_c, 0, 62, 64
2, 75240, Note_on_c, 0, 74, 64
2, 75345, Note_on_c, 0, 74, 0
2, 75345, Note_on_c, 0, 56, 0
2, 75345, Note_on_c, 0, 68, 0
2, 75345, Note_on_c, 0, 70, 0
2, 75345, Note_on_c, 0, 62, 0
2, 75345, Note_on_c, 0, 53, 0
2, 75360, Note_on_c, 0, 63, 64
2, 75360, Note_on_c, 0, 75, 64
2, 75360, Note_on_c, 0, 70, 64
2, 75360, Note_on_c, 0, 51, 64
2, 75360, Note_on_c, 0, 55, 64
2, 75465, Note_on_c, 0, 55, 0
2, 75465, Note_on_c, 0, 70, 0
2, 75465, Note_on_c, 0, 63, 0
2, 75465, Note_on_c, 0, 75, 0
2, 75465, Note_on_c, 0, 51, 0
2, 75480, Note_on_c, 0, 65, 64
2, 75480, Note_on_c, 0, 70, 64
2, 75480, Note_on_c, 0, 77, 64
2, 75480, Note_on_c, 0, 50, 64
2, 75480, Note_on_c, 0, 53, 64
2, 75585, Note_on_c, 0, 53, 0
2, 75585, Note_on_c, 0, 77, 0
2, 75585, Note_on_c, 0, 65, 0
2, 75585, Note_on_c, 0, 70, 0
2, 75585, Note_on_c, 0, 50, 0
2, 75600, Note_on_c, 0, 67, 64
2, 75600, Note_on_c, 0, 70, 64
2, 75600, Note_on_c, 0, 79, 64
2, 75600, Note_on_c, 0, 48, 64
2, 75600, Note_on_c, 0, 51, 64
2, 75705, Note_on_c, 0, 51, 0
2, 75705, Note_on_c, 0, 79, 0
2, 75705, Note_on_c, 0, 67, 0
2, 75705, Note_on_c, 0, 70, 0
2, 75705, Note_on_c, 0, 48, 0
2, 75720, Note_on_c, 0, 68, 64
2, 75720, Note_on_c, 0, 70, 64
2, 75720, Note_on_c, 0, 80, 64
2, 75720, Note_on_c, 0, 46, 64
2, 75720, Note_on_c, 0, 50, 64
2, 75825, Note_on_c, 0, 50, 0
2, 75825, Note_on_c, 0, 80, 0
2, 75825, Note_on_c, 0, 68, 0
2, 75825, Note_on_c, 0, 70, 0
2, 75825, Note_on_c, 0, 46, 0
2, 75840, Note_on_c, 0, 70, 64
2, 75840, Note_on_c, 0, 82, 64
2, 75840, Note_on_c, 0, 46, 64
2, 75840, Note_on_c, 0, 50, 64
2, 75840, Note_on_c, 0, 53, 64
2, 75945, Note_on_c, 0, 53, 0
2, 75945, Note_on_c, 0, 46, 0
2, 75945, Note_on_c, 0, 70, 0
2, 75945, Note_on_c, 0, 82, 0
2, 75945, Note_on_c, 0, 50, 0
2, 75960, Note_on_c, 0, 67, 64
2, 75960, Note_on_c, 0, 79, 64
2, 75960, Note_on_c, 0, 39, 64
2, 76012, Note_on_c, 0, 39, 0
2, 76020, Note_on_c, 0, 46, 64
2, 76065, Note_on_c, 0, 79, 0
2, 76065, Note_on_c, 0, 67, 0
2, 76072, Note_on_c, 0, 46, 0
2, 76080, Note_on_c, 0, 55, 64
2, 76132, Note_on_c, 0, 55, 0
2, 76140, Note_on_c, 0, 46, 64
2, 76192, Note_on_c, 0, 46, 0
2, 76200, Note_on_c, 0, 70, 64
2, 76200, Note_on_c, 0, 82, 64
2, 76200, Note_on_c, 0, 39, 64
2, 76252, Note_on_c, 0, 39, 0
2, 76252, Note_on_c, 0, 82, 0
2, 76252, Note_on_c, 0, 70, 0
2, 76260, Note_on_c, 0, 46, 64
2, 76312, Note_on_c, 0, 46, 0
2, 76320, Note_on_c, 0, 55, 64
2, 76372, Note_on_c, 0, 55, 0
2, 76380, Note_on_c, 0, 46, 64
2, 76432, Note_on_c, 0, 46, 0
2, 76440, Note_on_c, 0, 82, 64
2, 76440, Note_on_c, 0, 94, 64
2, 76440, Note_on_c, 0, 41, 64
2, 76492, Note_on_c, 0, 41, 0
2, 76500, Note_on_c, 0, 46, 64
2, 76552, Note_on_c, 0, 46, 0
2, 76560, Note_on_c, 0, 56, 64
2, 76612, Note_on_c, 0, 56, 0
2, 76620, Note_on_c, 0, 46, 64
2, 76672, Note_on_c, 0, 46, 0
2, 76680, Note_on_c, 0, 41, 64
2, 76732, Note_on_c, 0, 41, 0
2, 76740, Note_on_c, 0, 46, 64
2, 76785, Note_on_c, 0, 94, 0
2, 76785, Note_on_c, 0, 82, 0
2, 76792, Note_on_c, 0, 46, 0
2, 76800, Note_on_c, 0, 70, 64
2, 76800, Note_on_c, 0, 82, 64
2, 76800, Note_on_c, 0, 56, 64
2, 76852, Note_on_c, 0, 56, 0
2, 76860, Note_on_c, 0, 46, 64
2, 76912, Note_on_c, 0, 46, 0
2, 76920, Note_on_c, 0, 43, 64
2, 76972, Note_on_c, 0, 43, 0
2, 76980, Note_on_c, 0, 46, 64
2, 77032, Note_on_c, 0, 46, 0
2, 77040, Note_on_c, 0, 58, 64
2, 77092, Note_on_c, 0, 58, 0
2, 77100, Note_on_c, 0, 46, 64
2, 77152, Note_on_c, 0, 46, 0
2, 77160, Note_on_c, 0, 43, 64
2, 77212, Note_on_c, 0, 43, 0
2, 77220, Note_on_c, 0, 46, 64
2, 77265, Note_on_c, 0, 82, 0
2, 77265, Note_on_c, 0, 70, 0
2, 77272, Note_on_c, 0, 46, 0
2, 77280, Note_on_c, 0, 67, 64
2, 77280, Note_on_c, 0, 79, 64
2, 77280, Note_on_c, 0, 58, 64
2, 77332, Note_on_c, 0, 58, 0
2, 77340, Note_on_c, 0, 46, 64
2, 77385, Note_on_c, 0, 79, 0
2, 77385, Note_on_c, 0, 67, 0
2, 77392, Note_on_c, 0, 46, 0
2, 77400, Note_on_c, 0, 65, 64
2, 77400, Note_on_c, 0, 77, 64
2, 77400, Note_on_c, 0, 44, 64
2, 77452, Note_on_c, 0, 44, 0
2, 77460, Note_on_c, 0, 46, 64
2, 77505, Note_on_c, 0, 77, 0
2, 77505, Note_on_c, 0, 65, 0
2, 77512, Note_on_c, 0, 46, 0
2, 77520, Note_on_c, 0, 62, 64
2, 77520, Note_on_c, 0, 74, 64
2, 77520, Note_on_c, 0, 56, 64
2, 77572, Note_on_c, 0, 56, 0
2, 77580, Note_on_c, 0, 46, 64
2, 77625, Note_on_c, 0, 74, 0
2, 77625, Note_on_c, 0, 62, 0
2, 77632, Note_on_c, 0, 46, 0
2, 77640, Note_on_c, 0, 60, 64
2, 77640, Note_on_c, 0, 72, 64
2, 77640, Note_on_c, 0, 34, 64
2, 77692, Note_on_c, 0, 34, 0
2, 77700, Note_on_c, 0, 46, 64
2, 77745, Note_on_c, 0, 72, 0
2, 77745, Note_on_c, 0, 60, 0
2, 77752, Note_on_c, 0, 46, 0
2, 77760, Note_on_c, 0, 58, 64
2, 77760, Note_on_c, 0, 70, 64
2, 77760, Note_on_c, 0, 53, 64
2, 77812, Note_on_c, 0, 53, 0
2, 77820, Note_on_c, 0, 46, 64
2, 77865, Note_on_c, 0, 70, 0
2, 77865, Note_on_c, 0, 58, 0
2, 77872, Note_on_c, 0, 46, 0
2, 77880, Note_on_c, 0, 58, 64
2, 77880, Note_on_c, 0, 70, 64
2, 77880, Note_on_c, 0, 39, 64
2, 77932, Note_on_c, 0, 39, 0
2, 77940, Note_on_c, 0, 46, 64
2, 77985, Note_on_c, 0, 70, 0
2, 77985, Note_on_c, 0, 58, 0
2, 77992, Note_on_c, 0, 46, 0
2, 78000, Note_on_c, 0, 55, 64
2, 78052, Note_on_c, 0, 55, 0
2, 78060, Note_on_c, 0, 46, 64
2, 78112, Note_on_c, 0, 46, 0
2, 78120, Note_on_c, 0, 70, 64
2, 78120, Note_on_c, 0, 82, 64
2, 78120, Note_on_c, 0, 41, 64
2, 78172, Note_on_c, 0, 41, 0
2, 78172, Note_on_c, 0, 82, 0
2, 78172, Note_on_c, 0, 70, 0
2, 78180, Note_on_c, 0, 46, 64
2, 78232, Note_on_c, 0, 46, 0
2, 78240, Note_on_c, 0, 56, 64
2, 78292, Note_on_c, 0, 56, 0
2, 78300, Note_on_c, 0, 46, 64
2, 78352, Note_on_c, 0, 46, 0
2, 78360, Note_on_c, 0, 82, 64
2, 78360, Note_on_c, 0, 94, 64
2, 78360, Note_on_c, 0, 43, 64
2, 78412, Note_on_c, 0, 43, 0
2, 78420, Note_on_c, 0, 51, 64
2, 78472, Note_on_c, 0, 51, 0
2, 78480, Note_on_c, 0, 58, 64
2, 78532, Note_on_c, 0, 58, 0
2, 78540, Note_on_c, 0, 51, 64
2, 78592, Note_on_c, 0, 51, 0
2, 78600, Note_on_c, 0, 43, 64
2, 78652, Note_on_c, 0, 43, 0
2, 78660, Note_on_c, 0, 51, 64
2, 78705, Note_on_c, 0, 94, 0
2, 78705, Note_on_c, 0, 82, 0
2, 78712, Note_on_c, 0, 51, 0
2, 78720, Note_on_c, 0, 70, 64
2, 78720, Note_on_c, 0, 82, 64
2, 78720, Note_on_c, 0, 58, 64
2, 78772, Note_on_c, 0, 58, 0
2, 78780, Note_on_c, 0, 51, 64
2, 78832, Note_on_c, 0, 51, 0
2, 78840, Note_on_c, 0, 43, 64
2, 78892, Note_on_c, 0, 43, 0
2, 78900, Note_on_c, 0, 51, 64
2, 78952, Note_on_c, 0, 51, 0
2, 78960, Note_on_c, 0, 58, 64
2, 79012, Note_on_c, 0, 58, 0
2, 79020, Note_on_c, 0, 51, 64
2, 79072, Note_on_c, 0, 51, 0
2, 79080, Note_on_c, 0, 43, 64
2, 79132, Note_on_c, 0, 43, 0
2, 79140, Note_on_c, 0, 51, 64
2, 79185, Note_on_c, 0, 82, 0
2, 79185, Note_on_c, 0, 70, 0
2, 79192, Note_on_c, 0, 51, 0
2, 79200, Note_on_c, 0, 67, 64
2, 79200, Note_on_c, 0, 79, 64
2, 79200, Note_on_c, 0, 58, 64
2, 79252, Note_on_c, 0, 58, 0
2, 79260, Note_on_c, 0, 51, 64
2, 79305, Note_on_c, 0, 79, 0
2, 79305, Note_on_c, 0, 67, 0
2, 79312, Note_on_c, 0, 51, 0
2, 79320, Note_on_c, 0, 64, 64
2, 79320, Note_on_c, 0, 76, 64
2, 79320, Note_on_c, 0, 44, 64
2, 79372, Note_on_c, 0, 44, 0
2, 79380, Note_on_c, 0, 51, 64
2, 79425, Note_on_c, 0, 76, 0
2, 79425, Note_on_c, 0, 64, 0
2, 79432, Note_on_c, 0, 51, 0
2, 79440, Note_on_c, 0, 65, 64
2, 79440, Note_on_c, 0, 77, 64
2, 79440, Note_on_c, 0, 60, 64
2, 79492, Note_on_c, 0, 60, 0
2, 79500, Note_on_c, 0, 51, 64
2, 79545, Note_on_c, 0, 77, 0
2, 79545, Note_on_c, 0, 65, 0
2, 79552, Note_on_c, 0, 51, 0
2, 79560, Note_on_c, 0, 60, 64
2, 79560, Note_on_c, 0, 72, 64
2, 79560, Note_on_c, 0, 45, 64
2, 79612, Note_on_c, 0, 45, 0
2, 79620, Note_on_c, 0, 53, 64
2, 79665, Note_on_c, 0, 72, 0
2, 79665, Note_on_c, 0, 60, 0
2, 79672, Note_on_c, 0, 53, 0
2, 79680, Note_on_c, 0, 63, 64
2, 79680, Note_on_c, 0, 75, 64
2, 79680, Note_on_c, 0, 60, 64
2, 79732, Note_on_c, 0, 60, 0
2, 79740, Note_on_c, 0, 53, 64
2, 79785, Note_on_c, 0, 75, 0
2, 79785, Note_on_c, 0, 63, 0
2, 79792, Note_on_c, 0, 53, 0
2, 79800, Note_on_c, 0, 62, 64
2, 79800, Note_on_c, 0, 74, 64
2, 79800, Note_on_c, 0, 46, 64
2, 79852, Note_on_c, 0, 74, 0
2, 79852, Note_on_c, 0, 62, 0
2, 79860, Note_on_c, 0, 70, 64
2, 79905, Note_on_c, 0, 46, 0
2, 79912, Note_on_c, 0, 70, 0
2, 79920, Note_on_c, 0, 69, 64
2, 79920, Note_on_c, 0, 63, 64
2, 79972, Note_on_c, 0, 63, 0
2, 79972, Note_on_c, 0, 69, 0
2, 79980, Note_on_c, 0, 70, 64
2, 79980, Note_on_c, 0, 62, 64
2, 80032, Note_on_c, 0, 62, 0
2, 80032, Note_on_c, 0, 70, 0
2, 80040, Note_on_c, 0, 69, 64
2, 80040, Note_on_c, 0, 72, 64
2, 80040, Note_on_c, 0, 60, 64
2, 80092, Note_on_c, 0, 60, 0
2, 80092, Note_on_c, 0, 72, 0
2, 80092, Note_on_c, 0, 69, 0
2, 80100, Note_on_c, 0, 70, 64
2, 80100, Note_on_c, 0, 74, 64
2, 80100, Note_on_c, 0, 58, 64
2, 80152, Note_on_c, 0, 58, 0
2, 80152, Note_on_c, 0, 74, 0
2, 80152, Note_on_c, 0, 70, 0
2, 80160, Note_on_c, 0, 72, 64
2, 80160, Note_on_c, 0, 75, 64
2, 80160, Note_on_c, 0, 57, 64
2, 80212, Note_on_c, 0, 57, 0
2, 80212, Note_on_c, 0, 75, 0
2, 80212, Note_on_c, 0, 72, 0
2, 80220, Note_on_c, 0, 74, 64
2, 80220, Note_on_c, 0, 77, 64
2, 80220, Note_on_c, 0, 56, 64
2, 80272, Note_on_c, 0, 56, 0
2, 80272, Note_on_c, 0, 77, 0
2, 80272, Note_on_c, 0, 74, 0
2, 80280, Note_on_c, 0, 75, 64
2, 80280, Note_on_c, 0, 79, 64
2, 80280, Note_on_c, 0, 55, 64
2, 80332, Note_on_c, 0, 55, 0
2, 80340, Note_on_c, 0, 53, 64
2, 80392, Note_on_c, 0, 53, 0
2, 80400, Note_on_c, 0, 51, 64
2, 80452, Note_on_c, 0, 51, 0
2, 80460, Note_on_c, 0, 50, 64
2, 80505, Note_on_c, 0, 79, 0
2, 80505, Note_on_c, 0, 75, 0
2, 80512, Note_on_c, 0, 50, 0
2, 80520, Note_on_c, 0, 81, 64
2, 80520, Note_on_c, 0, 84, 64
2, 80520, Note_on_c, 0, 51, 64
2, 80572, Note_on_c, 0, 51, 0
2, 80572, Note_on_c, 0, 84, 0
2, 80572, Note_on_c, 0, 81, 0
2, 80580, Note_on_c, 0, 79, 64
2, 80580, Note_on_c, 0, 82, 64
2, 80580, Note_on_c, 0, 53, 64
2, 80632, Note_on_c, 0, 53, 0
2, 80632, Note_on_c, 0, 82, 0
2, 80632, Note_on_c, 0, 79, 0
2, 80640, Note_on_c, 0, 77, 64
2, 80640, Note_on_c, 0, 81, 64
2, 80640, Note_on_c, 0, 55, 64
2, 80692, Note_on_c, 0, 55, 0
2, 80692, Note_on_c, 0, 81, 0
2, 80692, Note_on_c, 0, 77, 0
2, 80700, Note_on_c, 0, 75, 64
2, 80700, Note_on_c, 0, 79, 64
2, 80700, Note_on_c, 0, 56, 64
2, 80752, Note_on_c, 0, 56, 0
2, 80752, Note_on_c, 0, 79, 0
2, 80752, Note_on_c, 0, 75, 0
2, 80760, Note_on_c, 0, 74, 64
2, 80760, Note_on_c, 0, 77, 64
2, 80760, Note_on_c, 0, 58, 64
2, 80865, Note_on_c, 0, 58, 0
2, 80865, Note_on_c, 0, 77, 0
2, 80865, Note_on_c, 0, 74, 0
2, 80880, Note_on_c, 0, 71, 64
2, 80880, Note_on_c, 0, 80, 64
2, 80880, Note_on_c, 0, 65, 64
2, 80932, Note_on_c, 0, 65, 0
2, 80932, Note_on_c, 0, 80, 0
2, 80932, Note_on_c, 0, 71, 0
2, 80940, Note_on_c, 0, 72, 64
2, 80940, Note_on_c, 0, 79, 64
2, 80940, Note_on_c, 0, 63, 64
2, 80992, Note_on_c, 0, 63, 0
2, 80992, Note_on_c, 0, 79, 0
2, 80992, Note_on_c, 0, 72, 0
2, 81000, Note_on_c, 0, 67, 64
2, 81000, Note_on_c, 0, 77, 64
2, 81000, Note_on_c, 0, 62, 64
2, 81052, Note_on_c, 0, 62, 0
2, 81052, Note_on_c, 0, 77, 0
2, 81052, Note_on_c, 0, 67, 0
2, 81060, Note_on_c, 0, 75, 64
2, 81060, Note_on_c, 0, 78, 64
2, 81060, Note_on_c, 0, 60, 64
2, 81112, Note_on_c, 0, 60, 0
2, 81112, Note_on_c, 0, 78, 0
2, 81112, Note_on_c, 0, 75, 0
2, 81120, Note_on_c, 0, 74, 64
2, 81120, Note_on_c, 0, 79, 64
2, 81120, Note_on_c, 0, 59, 64
2, 81146, Note_on_c, 0, 59, 0
2, 81146, Note_on_c, 0, 79, 0
2, 81146, Note_on_c, 0, 74, 0
2, 81180, Note_on_c, 0, 74, 64
2, 81180, Note_on_c, 0, 78, 64
2, 81180, Note_on_c, 0, 81, 64
2, 81180, Note_on_c, 0, 57, 64
2, 81206, Note_on_c, 0, 57, 0
2, 81206, Note_on_c, 0, 74, 0
2, 81206, Note_on_c, 0, 78, 0
2, 81206, Note_on_c, 0, 81, 0
2, 81240, Note_on_c, 0, 74, 64
2, 81240, Note_on_c, 0, 79, 64
2, 81240, Note_on_c, 0, 82, 64
2, 81240, Note_on_c, 0, 55, 64
2, 81266, Note_on_c, 0, 55, 0
2, 81266, Note_on_c, 0, 74, 0
2, 81266, Note_on_c, 0, 79, 0
2, 81266, Note_on_c, 0, 82, 0
2, 81300, Note_on_c, 0, 74, 64
2, 81300, Note_on_c, 0, 79, 64
2, 81300, Note_on_c, 0, 82, 64
2, 81300, Note_on_c, 0, 53, 64
2, 81326, Note_on_c, 0, 53, 0
2, 81326, Note_on_c, 0, 74, 0
2, 81326, Note_on_c, 0, 79, 0
2, 81326, Note_on_c, 0, 82, 0
2, 81360, Note_on_c, 0, 75, 64
2, 81360, Note_on_c, 0, 79, 64
2, 81360, Note_on_c, 0, 84, 64
2, 81360, Note_on_c, 0, 51, 64
2, 81386, Note_on_c, 0, 51, 0
2, 81386, Note_on_c, 0, 75, 0
2, 81386, Note_on_c, 0, 79, 0
2, 81386, Note_on_c, 0, 84, 0
2, 81420, Note_on_c, 0, 77, 64
2, 81420, Note_on_c, 0, 82, 64
2, 81420, Note_on_c, 0, 86, 64
2, 81420, Note_on_c, 0, 50, 64
2, 81446, Note_on_c, 0, 50, 0
2, 81446, Note_on_c, 0, 77, 0
2, 81446, Note_on_c, 0, 82, 0
2, 81446, Note_on_c, 0, 86, 0
2, 81480, Note_on_c, 0, 79, 64
2, 81480, Note_on_c, 0, 84, 64
2, 81480, Note_on_c, 0, 87, 64
2, 81480, Note_on_c, 0, 48, 64
2, 81506, Note_on_c, 0, 48, 0
2, 81506, Note_on_c, 0, 79, 0
2, 81506, Note_on_c, 0, 84, 0
2, 81506, Note_on_c, 0, 87, 0
2, 81540, Note_on_c, 0, 79, 64
2, 81540, Note_on_c, 0, 84, 64
2, 81540, Note_on_c, 0, 88, 64
2, 81540, Note_on_c, 0, 46, 64
2, 81566, Note_on_c, 0, 46, 0
2, 81566, Note_on_c, 0, 79, 0
2, 81566, Note_on_c, 0, 84, 0
2, 81566, Note_on_c, 0, 88, 0
2, 81600, Note_on_c, 0, 77, 64
2, 81600, Note_on_c, 0, 84, 64
2, 81600, Note_on_c, 0, 89, 64
2, 81600, Note_on_c, 0, 45, 64
2, 81600, Note_on_c, 0, 48, 64
2, 81626, Note_on_c, 0, 48, 0
2, 81626, Note_on_c, 0, 89, 0
2, 81626, Note_on_c, 0, 77, 0
2, 81626, Note_on_c, 0, 84, 0
2, 81626, Note_on_c, 0, 45, 0
2, 81660, Note_on_c, 0, 77, 64
2, 81660, Note_on_c, 0, 84, 64
2, 81660, Note_on_c, 0, 89, 64
2, 81660, Note_on_c, 0, 45, 64
2, 81660, Note_on_c, 0, 48, 64
2, 81686, Note_on_c, 0, 48, 0
2, 81686, Note_on_c, 0, 89, 0
2, 81686, Note_on_c, 0, 77, 0
2, 81686, Note_on_c, 0, 84, 0
2, 81686, Note_on_c, 0, 45, 0
2, 81720, Note_on_c, 0, 77, 64
2, 81720, Note_on_c, 0, 82, 64
2, 81720, Note_on_c, 0, 86, 64
2, 81720, Note_on_c, 0, 44, 64
2, 81720, Note_on_c, 0, 46, 64
2, 81772, Note_on_c, 0, 46, 0
2, 81772, Note_on_c, 0, 86, 0
2, 81772, Note_on_c, 0, 77, 0
2, 81772, Note_on_c, 0, 82, 0
2, 81772, Note_on_c, 0, 44, 0
2, 81960, Note_on_c, 0, 75, 64
2, 81960, Note_on_c, 0, 82, 64
2, 81960, Note_on_c, 0, 87, 64
2, 81960, Note_on_c, 0, 43, 64
2, 81960, Note_on_c, 0, 46, 64
2, 82012, Note_on_c, 0, 46, 0
2, 82012, Note_on_c, 0, 87, 0
2, 82012, Note_on_c, 0, 75, 0
2, 82012, Note_on_c, 0, 82, 0
2, 82012, Note_on_c, 0, 43, 0
2, 82200, Note_on_c, 0, 68, 64
2, 82200, Note_on_c, 0, 63, 64
2, 82200, Note_on_c, 0, 53, 64
2, 82200, Note_on_c, 0, 47, 64
2, 82545, Note_on_c, 0, 47, 0
2, 82545, Note_on_c, 0, 68, 0
2, 82560, Note_on_c, 0, 70, 64
2, 82560, Note_on_c, 0, 46, 64
2, 82612, Note_on_c, 0, 46, 0
2, 82665, Note_on_c, 0, 70, 0
2, 82680, Note_on_c, 0, 71, 64
2, 82680, Note_on_c, 0, 44, 64
2, 82785, Note_on_c, 0, 63, 0
2, 82800, Note_on_c, 0, 63, 64
2, 82852, Note_on_c, 0, 63, 0
2, 82860, Note_on_c, 0, 62, 64
2, 82912, Note_on_c, 0, 62, 0
2, 82920, Note_on_c, 0, 63, 64
2, 82972, Note_on_c, 0, 63, 0
2, 82980, Note_on_c, 0, 62, 64
2, 83032, Note_on_c, 0, 62, 0
2, 83040, Note_on_c, 0, 63, 64
2, 83092, Note_on_c, 0, 63, 0
2, 83100, Note_on_c, 0, 62, 64
2, 83145, Note_on_c, 0, 44, 0
2, 83145, Note_on_c, 0, 53, 0
2, 83145, Note_on_c, 0, 71, 0
2, 83152, Note_on_c, 0, 62, 0
2, 83160, Note_on_c, 0, 68, 64
2, 83160, Note_on_c, 0, 63, 64
2, 83160, Note_on_c, 0, 53, 64
2, 83160, Note_on_c, 0, 47, 64
2, 83505, Note_on_c, 0, 47, 0
2, 83505, Note_on_c, 0, 68, 0
2, 83520, Note_on_c, 0, 70, 64
2, 83520, Note_on_c, 0, 46, 64
2, 83572, Note_on_c, 0, 46, 0
2, 83625, Note_on_c, 0, 70, 0
2, 83640, Note_on_c, 0, 72, 64
2, 83640, Note_on_c, 0, 45, 64
2, 83745, Note_on_c, 0, 63, 0
2, 83760, Note_on_c, 0, 63, 64
2, 83812, Note_on_c, 0, 63, 0
2, 83820, Note_on_c, 0, 62, 64
2, 83872, Note_on_c, 0, 62, 0
2, 83880, Note_on_c, 0, 63, 64
2, 83932, Note_on_c, 0, 63, 0
2, 83940, Note_on_c, 0, 62, 64
2, 83992, Note_on_c, 0, 62, 0
2, 84000, Note_on_c, 0, 63, 64
2, 84052, Note_on_c, 0, 63, 0
2, 84060, Note_on_c, 0, 62, 64
2, 84105, Note_on_c, 0, 45, 0
2, 84105, Note_on_c, 0, 53, 0
2, 84105, Note_on_c, 0, 72, 0
2, 84112, Note_on_c, 0, 62, 0
2, 84120, Note_on_c, 0, 71, 64
2, 84120, Note_on_c, 0, 46, 64
2, 84120, Note_on_c, 0, 53, 64
2, 84225, Note_on_c, 0, 53, 0
2, 84225, Note_on_c, 0, 46, 0
2, 84225, Note_on_c, 0, 71, 0
2, 84240, Note_on_c, 0, 63, 64
2, 84292, Note_on_c, 0, 63, 0
2, 84300, Note_on_c, 0, 62, 64
2, 84352, Note_on_c, 0, 62, 0
2, 84360, Note_on_c, 0, 63, 64
2, 84412, Note_on_c, 0, 63, 0
2, 84420, Note_on_c, 0, 62, 64
2, 84472, Note_on_c, 0, 62, 0
2, 84480, Note_on_c, 0, 63, 64
2, 84532, Note_on_c, 0, 63, 0
2, 84540, Note_on_c, 0, 62, 64
2, 84592, Note_on_c, 0, 62, 0
2, 84600, Note_on_c, 0, 70, 64
2, 84600, Note_on_c, 0, 46, 64
2, 84600, Note_on_c, 0, 55, 64
2, 84705, Note_on_c, 0, 55, 0
2, 84705, Note_on_c, 0, 46, 0
2, 84705, Note_on_c, 0, 70, 0
2, 84720, Note_on_c, 0, 65, 64
2, 84772, Note_on_c, 0, 65, 0
2, 84780, Note_on_c, 0, 64, 64
2, 84832, Note_on_c, 0, 64, 0
2, 84840, Note_on_c, 0, 65, 64
2, 84892, Note_on_c, 0, 65, 0
2, 84900, Note_on_c, 0, 64, 64
2, 84952, Note_on_c, 0, 64, 0
2, 84960, Note_on_c, 0, 65, 64
2, 85012, Note_on_c, 0, 65, 0
2, 85020, Note_on_c, 0, 64, 64
2, 85072, Note_on_c, 0, 64, 0
2, 85080, Note_on_c, 0, 70, 64
2, 85080, Note_on_c, 0, 46, 64
2, 85080, Note_on_c, 0, 56, 64
2, 85132, Note_on_c, 0, 70, 0
2, 85185, Note_on_c, 0, 56, 0
2, 85185, Note_on_c, 0, 46, 0
2, 85200, Note_on_c, 0, 67, 64
2, 85252, Note_on_c, 0, 67, 0
2, 85260, Note_on_c, 0, 65, 64
2, 85312, Note_on_c, 0, 65, 0
2, 85320, Note_on_c, 0, 70, 64
2, 85320, Note_on_c, 0, 46, 64
2, 85320, Note_on_c, 0, 55, 64
2, 85372, Note_on_c, 0, 70, 0
2, 85425, Note_on_c, 0, 55, 0
2, 85425, Note_on_c, 0, 46, 0
2, 85440, Note_on_c, 0, 65, 64
2, 85492, Note_on_c, 0, 65, 0
2, 85500, Note_on_c, 0, 63, 64
2, 85552, Note_on_c, 0, 63, 0
2, 85560, Note_on_c, 0, 70, 64
2, 85560, Note_on_c, 0, 46, 64
2, 85560, Note_on_c, 0, 53, 64
2, 85612, Note_on_c, 0, 70, 0
2, 85665, Note_on_c, 0, 53, 0
2, 85665, Note_on_c, 0, 46, 0
2, 85680, Note_on_c, 0, 63, 64
2, 85732, Note_on_c, 0, 63, 0
2, 85740, Note_on_c, 0, 62, 64
2, 85792, Note_on_c, 0, 62, 0
2, 85800, Note_on_c, 0, 70, 64
2, 85800, Note_on_c, 0, 46, 64
2, 85800, Note_on_c, 0, 55, 64
2, 85852, Note_on_c, 0, 70, 0
2, 85905, Note_on_c, 0, 55, 0
2, 85905, Note_on_c, 0, 46, 0
2, 85920, Note_on_c, 0, 65, 64
2, 85972, Note_on_c, 0, 65, 0
2, 85980, Note_on_c, 0, 63, 64
2, 86032, Note_on_c, 0, 63, 0
2, 86040, Note_on_c, 0, 83, 64
2, 86040, Note_on_c, 0, 58, 64
2, 86040, Note_on_c, 0, 65, 64
2, 86145, Note_on_c, 0, 65, 0
2, 86145, Note_on_c, 0, 58, 0
2, 86145, Note_on_c, 0, 83, 0
2, 86160, Note_on_c, 0, 75, 64
2, 86212, Note_on_c, 0, 75, 0
2, 86220, Note_on_c, 0, 74, 64
2, 86272, Note_on_c, 0, 74, 0
2, 86280, Note_on_c, 0, 75, 64
2, 86332, Note_on_c, 0, 75, 0
2, 86340, Note_on_c, 0, 74, 64
2, 86392, Note_on_c, 0, 74, 0
2, 86400, Note_on_c, 0, 75, 64
2, 86452, Note_on_c, 0, 75, 0
2, 86460, Note_on_c, 0, 74, 64
2, 86512, Note_on_c, 0, 74, 0
2, 86520, Note_on_c, 0, 82, 64
2, 86520, Note_on_c, 0, 58, 64
2, 86520, Note_on_c, 0, 67, 64
2, 86625, Note_on_c, 0, 67, 0
2, 86625, Note_on_c, 0, 58, 0
2, 86625, Note_on_c, 0, 82, 0
2, 86640, Note_on_c, 0, 77, 64
2, 86692, Note_on_c, 0, 77, 0
2, 86700, Note_on_c, 0, 76, 64
2, 86752, Note_on_c, 0, 76, 0
2, 86760, Note_on_c, 0, 77, 64
2, 86812, Note_on_c, 0, 77, 0
2, 86820, Note_on_c, 0, 76, 64
2, 86872, Note_on_c, 0, 76, 0
2, 86880, Note_on_c, 0, 77, 64
2, 86932, Note_on_c, 0, 77, 0
2, 86940, Note_on_c, 0, 76, 64
2, 86992, Note_on_c, 0, 76, 0
2, 87000, Note_on_c, 0, 82, 64
2, 87000, Note_on_c, 0, 58, 64
2, 87000, Note_on_c, 0, 68, 64
2, 87105, Note_on_c, 0, 68, 0
2, 87105, Note_on_c, 0, 58, 0
2, 87105, Note_on_c, 0, 82, 0
2, 87120, Note_on_c, 0, 79, 64
2, 87172, Note_on_c, 0, 79, 0
2, 87180, Note_on_c, 0, 77, 64
2, 87232, Note_on_c, 0, 77, 0
2, 87240, Note_on_c, 0, 82, 64
2, 87240, Note_on_c, 0, 58, 64
2, 87240, Note_on_c, 0, 67, 64
2, 87345, Note_on_c, 0, 67, 0
2, 87345, Note_on_c, 0, 58, 0
2, 87345, Note_on_c, 0, 82, 0
2, 87360, Note_on_c, 0, 77, 64
2, 87412, Note_on_c, 0, 77, 0
2, 87420, Note_on_c, 0, 75, 64
2, 87472, Note_on_c, 0, 75, 0
2, 87480, Note_on_c, 0, 82, 64
2, 87480, Note_on_c, 0, 58, 64
2, 87480, Note_on_c, 0, 68, 64
2, 87585, Note_on_c, 0, 68, 0
2, 87585, Note_on_c, 0, 58, 0
2, 87585, Note_on_c, 0, 82, 0
2, 87600, Note_on_c, 0, 79, 64
2, 87652, Note_on_c, 0, 79, 0
2, 87660, Note_on_c, 0, 77, 64
2, 87712, Note_on_c, 0, 77, 0
2, 87720, Note_on_c, 0, 82, 64
2, 87720, Note_on_c, 0, 58, 64
2, 87825, Note_on_c, 0, 58, 0
2, 87825, Note_on_c, 0, 82, 0
2, 87840, Note_on_c, 0, 77, 64
2, 87840, Note_on_c, 0, 80, 64
2, 87840, Note_on_c, 0, 60, 64
2, 87892, Note_on_c, 0, 60, 0
2, 87900, Note_on_c, 0, 62, 64
2, 87952, Note_on_c, 0, 62, 0
2, 87960, Note_on_c, 0, 70, 64
2, 87960, Note_on_c, 0, 63, 64
2, 88012, Note_on_c, 0, 63, 0
2, 88020, Note_on_c, 0, 65, 64
2, 88065, Note_on_c, 0, 77, 0
2, 88065, Note_on_c, 0, 80, 0
2, 88072, Note_on_c, 0, 65, 0
2, 88080, Note_on_c, 0, 75, 64
2, 88080, Note_on_c, 0, 79, 64
2, 88080, Note_on_c, 0, 67, 64
2, 88132, Note_on_c, 0, 67, 0
2, 88140, Note_on_c, 0, 68, 64
2, 88185, Note_on_c, 0, 70, 0
2, 88185, Note_on_c, 0, 79, 0
2, 88185, Note_on_c, 0, 75, 0
2, 88192, Note_on_c, 0, 68, 0
2, 88200, Note_on_c, 0, 74, 64
2, 88200, Note_on_c, 0, 77, 64
2, 88200, Note_on_c, 0, 70, 64
2, 88305, Note_on_c, 0, 70, 0
2, 88305, Note_on_c, 0, 77, 0
2, 88305, Note_on_c, 0, 74, 0
2, 88320, Note_on_c, 0, 89, 64
2, 88320, Note_on_c, 0, 92, 64
2, 88320, Note_on_c, 0, 72, 64
2, 88372, Note_on_c, 0, 72, 0
2, 88380, Note_on_c, 0, 74, 64
2, 88432, Note_on_c, 0, 74, 0
2, 88440, Note_on_c, 0, 70, 64
2, 88440, Note_on_c, 0, 75, 64
2, 88492, Note_on_c, 0, 75, 0
2, 88500, Note_on_c, 0, 77, 64
2, 88545, Note_on_c, 0, 89, 0
2, 88545, Note_on_c, 0, 92, 0
2, 88552, Note_on_c, 0, 77, 0
2, 88560, Note_on_c, 0, 87, 64
2, 88560, Note_on_c, 0, 91, 64
2, 88560, Note_on_c, 0, 79, 64
2, 88612, Note_on_c, 0, 79, 0
2, 88620, Note_on_c, 0, 80, 64
2, 88665, Note_on_c, 0, 70, 0
2, 88665, Note_on_c, 0, 91, 0
2, 88665, Note_on_c, 0, 87, 0
2, 88672, Note_on_c, 0, 80, 0
2, 88680, Note_on_c, 0, 86, 64
2, 88680, Note_on_c, 0, 89, 64
2, 88680, Note_on_c, 0, 82, 64
2, 88785, Note_on_c, 0, 82, 0
2, 88785, Note_on_c, 0, 89, 0
2, 88785, Note_on_c, 0, 86, 0
2, 88800, Note_on_c, 0, 86, 64
2, 88800, Note_on_c, 0, 89, 64
2, 88800, Note_on_c, 0, 96, 64
2, 88800, Note_on_c, 0, 80, 64
2, 88905, Note_on_c, 0, 80, 0
2, 88905, Note_on_c, 0, 86, 0
2, 88905, Note_on_c, 0, 89, 0
2, 88905, Note_on_c, 0, 96, 0
2, 88920, Note_on_c, 0, 82, 64
2, 88920, Note_on_c, 0, 87, 64
2, 88920, Note_on_c, 0, 96, 64
2, 88920, Note_on_c, 0, 79, 64
2, 89025, Note_on_c, 0, 79, 0
2, 89025, Note_on_c, 0, 82, 0
2, 89025, Note_on_c, 0, 87, 0
2, 89025, Note_on_c, 0, 96, 0
2, 89040, Note_on_c, 0, 82, 64
2, 89040, Note_on_c, 0, 87, 64
2, 89040, Note_on_c, 0, 94, 64
2, 89040, Note_on_c, 0, 78, 64
2, 89145, Note_on_c, 0, 78, 0
2, 89145, Note_on_c, 0, 82, 0
2, 89145, Note_on_c, 0, 87, 0
2, 89160, Note_on_c, 0, 84, 64
2, 89160, Note_on_c, 0, 87, 64
2, 89160, Note_on_c, 0, 77, 64
2, 89265, Note_on_c, 0, 77, 0
2, 89265, Note_on_c, 0, 94, 0
2, 89265, Note_on_c, 0, 84, 0
2, 89265, Note_on_c, 0, 87, 0
2, 89280, Note_on_c, 0, 86, 64
2, 89280, Note_on_c, 0, 89, 64
2, 89280, Note_on_c, 0, 92, 64
2, 89280, Note_on_c, 0, 70, 64
2, 89385, Note_on_c, 0, 70, 0
2, 89385, Note_on_c, 0, 86, 0
2, 89385, Note_on_c, 0, 89, 0
2, 89385, Note_on_c, 0, 92, 0
2, 89400, Note_on_c, 0, 79, 64
2, 89400, Note_on_c, 0, 91, 64
2, 89400, Note_on_c, 0, 63, 64
2, 89460, Note_on_c, 0, 82, 64
2, 89512, Note_on_c, 0, 82, 0
2, 89520, Note_on_c, 0, 84, 64
2, 89520, Note_on_c, 0, 66, 64
2, 89520, Note_on_c, 0, 69, 64
2, 89572, Note_on_c, 0, 84, 0
2, 89580, Note_on_c, 0, 82, 64
2, 89632, Note_on_c, 0, 82, 0
2, 89640, Note_on_c, 0, 84, 64
2, 89692, Note_on_c, 0, 84, 0
2, 89700, Note_on_c, 0, 82, 64
2, 89745, Note_on_c, 0, 66, 0
2, 89745, Note_on_c, 0, 69, 0
2, 89752, Note_on_c, 0, 82, 0
2, 89760, Note_on_c, 0, 84, 64
2, 89760, Note_on_c, 0, 67, 64
2, 89760, Note_on_c, 0, 70, 64
2, 89812, Note_on_c, 0, 84, 0
2, 89820, Note_on_c, 0, 82, 64
2, 89865, Note_on_c, 0, 79, 0
2, 89865, Note_on_c, 0, 67, 0
2, 89865, Note_on_c, 0, 63, 0
2, 89865, Note_on_c, 0, 91, 0
2, 89865, Note_on_c, 0, 70, 0
2, 89872, Note_on_c, 0, 82, 0
2, 89880, Note_on_c, 0, 77, 64
2, 89880, Note_on_c, 0, 89, 64
2, 89880, Note_on_c, 0, 63, 64
2, 89940, Note_on_c, 0, 80, 64
2, 89992, Note_on_c, 0, 80, 0
2, 90000, Note_on_c, 0, 82, 64
2, 90000, Note_on_c, 0, 71, 64
2, 90000, Note_on_c, 0, 74, 64
2, 90052, Note_on_c, 0, 82, 0
2, 90060, Note_on_c, 0, 80, 64
2, 90112, Note_on_c, 0, 80, 0
2, 90120, Note_on_c, 0, 82, 64
2, 90172, Note_on_c, 0, 82, 0
2, 90180, Note_on_c, 0, 80, 64
2, 90225, Note_on_c, 0, 71, 0
2, 90225, Note_on_c, 0, 74, 0
2, 90232, Note_on_c, 0, 80, 0
2, 90240, Note_on_c, 0, 82, 64
2, 90240, Note_on_c, 0, 70, 64
2, 90240, Note_on_c, 0, 74, 64
2, 90292, Note_on_c, 0, 82, 0
2, 90300, Note_on_c, 0, 80, 64
2, 90345, Note_on_c, 0, 77, 0
2, 90345, Note_on_c, 0, 70, 0
2, 90345, Note_on_c, 0, 63, 0
2, 90345, Note_on_c, 0, 89, 0
2, 90345, Note_on_c, 0, 74, 0
2, 90352, Note_on_c, 0, 80, 0
2, 90360, Note_on_c, 0, 79, 64
2, 90360, Note_on_c, 0, 87, 64
2, 90360, Note_on_c, 0, 63, 64
2, 90412, Note_on_c, 0, 79, 0
2, 90420, Note_on_c, 0, 75, 64
2, 90472, Note_on_c, 0, 75, 0
2, 90480, Note_on_c, 0, 77, 64
2, 90480, Note_on_c, 0, 67, 64
2, 90480, Note_on_c, 0, 70, 64
2, 90532, Note_on_c, 0, 77, 0
2, 90540, Note_on_c, 0, 75, 64
2, 90585, Note_on_c, 0, 67, 0
2, 90585, Note_on_c, 0, 70, 0
2, 90585, Note_on_c, 0, 87, 0
2, 90592, Note_on_c, 0, 75, 0
2, 90600, Note_on_c, 0, 84, 64
2, 90600, Note_on_c, 0, 68, 64
2, 90600, Note_on_c, 0, 72, 64
2, 90660, Note_on_c, 0, 75, 64
2, 90705, Note_on_c, 0, 72, 0
2, 90705, Note_on_c, 0, 68, 0
2, 90705, Note_on_c, 0, 84, 0
2, 90712, Note_on_c, 0, 75, 0
2, 90720, Note_on_c, 0, 82, 64
2, 90720, Note_on_c, 0, 67, 64
2, 90720, Note_on_c, 0, 70, 64
2, 90780, Note_on_c, 0, 75, 64
2, 90825, Note_on_c, 0, 70, 0
2, 90825, Note_on_c, 0, 67, 0
2, 90825, Note_on_c, 0, 63, 0
2, 90825, Note_on_c, 0, 82, 0
2, 90832, Note_on_c, 0, 75, 0
2, 90840, Note_on_c, 0, 82, 64
2, 90840, Note_on_c, 0, 58, 64
2, 90840, Note_on_c, 0, 67, 64
2, 90900, Note_on_c, 0, 70, 64
2, 90945, Note_on_c, 0, 67, 0
2, 90945, Note_on_c, 0, 82, 0
2, 90952, Note_on_c, 0, 70, 0
2, 90960, Note_on_c, 0, 80, 64
2, 90960, Note_on_c, 0, 74, 64
2, 90960, Note_on_c, 0, 65, 64
2, 90960, Note_on_c, 0, 68, 64
2, 91012, Note_on_c, 0, 74, 0
2, 91020, Note_on_c, 0, 70, 64
2, 91065, Note_on_c, 0, 65, 0
2, 91065, Note_on_c, 0, 68, 0
2, 91065, Note_on_c, 0, 80, 0
2, 91072, Note_on_c, 0, 70, 0
2, 91080, Note_on_c, 0, 79, 64
2, 91080, Note_on_c, 0, 75, 64
2, 91080, Note_on_c, 0, 63, 64
2, 91080, Note_on_c, 0, 67, 64
2, 91132, Note_on_c, 0, 75, 0
2, 91140, Note_on_c, 0, 70, 64
2, 91185, Note_on_c, 0, 63, 0
2, 91185, Note_on_c, 0, 67, 0
2, 91185, Note_on_c, 0, 79, 0
2, 91192, Note_on_c, 0, 70, 0
2, 91200, Note_on_c, 0, 77, 64
2, 91200, Note_on_c, 0, 68, 64
2, 91200, Note_on_c, 0, 62, 64
2, 91200, Note_on_c, 0, 65, 64
2, 91252, Note_on_c, 0, 68, 0
2, 91260, Note_on_c, 0, 70, 64
2, 91305, Note_on_c, 0, 62, 0
2, 91305, Note_on_c, 0, 65, 0
2, 91305, Note_on_c, 0, 58, 0
2, 91305, Note_on_c, 0, 77, 0
2, 91312, Note_on_c, 0, 70, 0
2, 91320, Note_on_c, 0, 67, 64
2, 91320, Note_on_c, 0, 79, 64
2, 91320, Note_on_c, 0, 51, 64
2, 91380, Note_on_c, 0, 70, 64
2, 91432, Note_on_c, 0, 70, 0
2, 91440, Note_on_c, 0, 72, 64
2, 91440, Note_on_c, 0, 54, 64
2, 91440, Note_on_c, 0, 57, 64
2, 91492, Note_on_c, 0, 72, 0
2, 91500, Note_on_c, 0, 70, 64
2, 91552, Note_on_c, 0, 70, 0
2, 91560, Note_on_c, 0, 72, 64
2, 91612, Note_on_c, 0, 72, 0
2, 91620, Note_on_c, 0, 70, 64
2, 91665, Note_on_c, 0, 54, 0
2, 91665, Note_on_c, 0, 57, 0
2, 91672, Note_on_c, 0, 70, 0
2, 91680, Note_on_c, 0, 72, 64
2, 91680, Note_on_c, 0, 55, 64
2, 91680, Note_on_c, 0, 58, 64
2, 91732, Note_on_c, 0, 72, 0
2, 91740, Note_on_c, 0, 70, 64
2, 91785, Note_on_c, 0, 67, 0
2, 91785, Note_on_c, 0, 55, 0
2, 91785, Note_on_c, 0, 51, 0
2, 91785, Note_on_c, 0, 79, 0
2, 91785, Note_on_c, 0, 58, 0
2, 91792, Note_on_c, 0, 70, 0
2, 91800, Note_on_c, 0, 65, 64
2, 91800, Note_on_c, 0, 77, 64
2, 91800, Note_on_c, 0, 51, 64
2, 91860, Note_on_c, 0, 68, 64
2, 91912, Note_on_c, 0, 68, 0
2, 91920, Note_on_c, 0, 70, 64
2, 91920, Note_on_c, 0, 59, 64
2, 91920, Note_on_c, 0, 62, 64
2, 91972, Note_on_c, 0, 70, 0
2, 91980, Note_on_c, 0, 68, 64
2, 92032, Note_on_c, 0, 68, 0
2, 92040, Note_on_c, 0, 70, 64
2, 92092, Note_on_c, 0, 70, 0
2, 92100, Note_on_c, 0, 68, 64
2, 92145, Note_on_c, 0, 59, 0
2, 92145, Note_on_c, 0, 62, 0
2, 92152, Note_on_c, 0, 68, 0
2, 92160, Note_on_c, 0, 70, 64
2, 92160, Note_on_c, 0, 58, 64
2, 92160, Note_on_c, 0, 62, 64
2, 92212, Note_on_c, 0, 70, 0
2, 92220, Note_on_c, 0, 68, 64
2, 92265, Note_on_c, 0, 65, 0
2, 92265, Note_on_c, 0, 58, 0
2, 92265, Note_on_c, 0, 51, 0
2, 92265, Note_on_c, 0, 77, 0
2, 92265, Note_on_c, 0, 62, 0
2, 92272, Note_on_c, 0, 68, 0
2, 92280, Note_on_c, 0, 75, 64
2, 92280, Note_on_c, 0, 67, 64
2, 92280, Note_on_c, 0, 51, 64
2, 92280, Note_on_c, 0, 55, 64
2, 92280, Note_on_c, 0, 58, 64
2, 92332, Note_on_c, 0, 67, 0
2, 92340, Note_on_c, 0, 63, 64
2, 92392, Note_on_c, 0, 63, 0
2, 92400, Note_on_c, 0, 65, 64
2, 92452, Note_on_c, 0, 65, 0
2, 92460, Note_on_c, 0, 63, 64
2, 92505, Note_on_c, 0, 55, 0
2, 92505, Note_on_c, 0, 58, 0
2, 92505, Note_on_c, 0, 75, 0
2, 92505, Note_on_c, 0, 51, 0
2, 92512, Note_on_c, 0, 63, 0
2, 92520, Note_on_c, 0, 68, 64
2, 92520, Note_on_c, 0, 72, 64
2, 92520, Note_on_c, 0, 60, 64
2, 92520, Note_on_c, 0, 44, 64
2, 92520, Note_on_c, 0, 51, 64
2, 92520, Note_on_c, 0, 56, 64
2, 92572, Note_on_c, 0, 60, 0
2, 92580, Note_on_c, 0, 63, 64
2, 92625, Note_on_c, 0, 72, 0
2, 92625, Note_on_c, 0, 51, 0
2, 92625, Note_on_c, 0, 44, 0
2, 92625, Note_on_c, 0, 68, 0
2, 92625, Note_on_c, 0, 56, 0
2, 92632, Note_on_c, 0, 63, 0
2, 92640, Note_on_c, 0, 67, 64
2, 92640, Note_on_c, 0, 70, 64
2, 92640, Note_on_c, 0, 58, 64
2, 92640, Note_on_c, 0, 39, 64
2, 92640, Note_on_c, 0, 51, 64
2, 92692, Note_on_c, 0, 58, 0
2, 92700, Note_on_c, 0, 63, 64
2, 92745, Note_on_c, 0, 39, 0
2, 92745, Note_on_c, 0, 51, 0
2, 92745, Note_on_c, 0, 67, 0
2, 92745, Note_on_c, 0, 70, 0
2, 92752, Note_on_c, 0, 63, 0
2, 92760, Note_on_c, 0, 70, 64
2, 92760, Note_on_c, 0, 67, 64
2, 92760, Note_on_c, 0, 34, 64
2, 92812, Note_on_c, 0, 67, 0
2, 92820, Note_on_c, 0, 58, 64
2, 92865, Note_on_c, 0, 34, 0
2, 92865, Note_on_c, 0, 70, 0
2, 92872, Note_on_c, 0, 58, 0
2, 92880, Note_on_c, 0, 68, 64
2, 92880, Note_on_c, 0, 65, 64
2, 92880, Note_on_c, 0, 46, 64
2, 92932, Note_on_c, 0, 65, 0
2, 92940, Note_on_c, 0, 56, 64
2, 92985, Note_on_c, 0, 46, 0
2, 92985, Note_on_c, 0, 68, 0
2, 92992, Note_on_c, 0, 56, 0
2, 93000, Note_on_c, 0, 67, 64
2, 93000, Note_on_c, 0, 63, 64
2, 93000, Note_on_c, 0, 34, 64
2, 93052, Note_on_c, 0, 63, 0
2, 93060, Note_on_c, 0, 55, 64
2, 93105, Note_on_c, 0, 34, 0
2, 93105, Note_on_c, 0, 67, 0
2, 93112, Note_on_c, 0, 55, 0
2, 93120, Note_on_c, 0, 65, 64
2, 93120, Note_on_c, 0, 62, 64
2, 93120, Note_on_c, 0, 46, 64
2, 93172, Note_on_c, 0, 62, 0
2, 93180, Note_on_c, 0, 53, 64
2, 93225, Note_on_c, 0, 46, 0
2, 93225, Note_on_c, 0, 65, 0
2, 93232, Note_on_c, 0, 53, 0
2, 93240, Note_on_c, 0, 63, 64
2, 93240, Note_on_c, 0, 39, 64
2, 93300, Note_on_c, 0, 59, 64
2, 93360, Note_on_c, 0, 55, 64
2, 93405, Note_on_c, 0, 39, 0
2, 93420, Note_on_c, 0, 47, 64
2, 93472, Note_on_c, 0, 47, 0
2, 93480, Note_on_c, 0, 46, 64
2, 93532, Note_on_c, 0, 55, 0
2, 93532, Note_on_c, 0, 63, 0
2, 93532, Note_on_c, 0, 59, 0
2, 93540, Note_on_c, 0, 58, 64
2, 93585, Note_on_c, 0, 46, 0
2, 93592, Note_on_c, 0, 58, 0
2, 93600, Note_on_c, 0, 55, 64
2, 93600, Note_on_c, 0, 39, 64
2, 93652, Note_on_c, 0, 55, 0
2, 93660, Note_on_c, 0, 63, 64
2, 93705, Note_on_c, 0, 39, 0
2, 93720, Note_on_c, 0, 58, 64
2, 93720, Note_on_c, 0, 34, 64
2, 93772, Note_on_c, 0, 63, 0
2, 93780, Note_on_c, 0, 63, 64
2, 93825, Note_on_c, 0, 34, 0
2, 93832, Note_on_c, 0, 63, 0
2, 93840, Note_on_c, 0, 62, 64
2, 93840, Note_on_c, 0, 56, 64
2, 93892, Note_on_c, 0, 56, 0
2, 93892, Note_on_c, 0, 62, 0
2, 93900, Note_on_c, 0, 63, 64
2, 93900, Note_on_c, 0, 55, 64
2, 93945, Note_on_c, 0, 58, 0
2, 93952, Note_on_c, 0, 55, 0
2, 93952, Note_on_c, 0, 63, 0
2, 93960, Note_on_c, 0, 65, 64
2, 93960, Note_on_c, 0, 53, 64
2, 94012, Note_on_c, 0, 53, 0
2, 94012, Note_on_c, 0, 65, 0
2, 94020, Note_on_c, 0, 67, 64
2, 94020, Note_on_c, 0, 51, 64
2, 94072, Note_on_c, 0, 51, 0
2, 94072, Note_on_c, 0, 67, 0
2, 94080, Note_on_c, 0, 68, 64
2, 94080, Note_on_c, 0, 46, 64
2, 94080, Note_on_c, 0, 50, 64
2, 94132, Note_on_c, 0, 50, 0
2, 94132, Note_on_c, 0, 68, 0
2, 94140, Note_on_c, 0, 65, 64
2, 94140, Note_on_c, 0, 58, 64
2, 94192, Note_on_c, 0, 58, 0
2, 94192, Note_on_c, 0, 65, 0
2, 94192, Note_on_c, 0, 46, 0
2, 94200, Note_on_c, 0, 75, 64
2, 94200, Note_on_c, 0, 51, 64
2, 94260, Note_on_c, 0, 71, 64
2, 94320, Note_on_c, 0, 67, 64
2, 94365, Note_on_c, 0, 51, 0
2, 94380, Note_on_c, 0, 59, 64
2, 94432, Note_on_c, 0, 59, 0
2, 94432, Note_on_c, 0, 67, 0
2, 94432, Note_on_c, 0, 71, 0
2, 94440, Note_on_c, 0, 58, 64
2, 94492, Note_on_c, 0, 75, 0
2, 94500, Note_on_c, 0, 70, 64
2, 94545, Note_on_c, 0, 58, 0
2, 94552, Note_on_c, 0, 70, 0
2, 94560, Note_on_c, 0, 67, 64
2, 94560, Note_on_c, 0, 51, 64
2, 94612, Note_on_c, 0, 67, 0
2, 94620, Note_on_c, 0, 75, 64
2, 94665, Note_on_c, 0, 51, 0
2, 94680, Note_on_c, 0, 70, 64
2, 94680, Note_on_c, 0, 46, 64
2, 94732, Note_on_c, 0, 75, 0
2, 94740, Note_on_c, 0, 75, 64
2, 94785, Note_on_c, 0, 46, 0
2, 94792, Note_on_c, 0, 75, 0
2, 94800, Note_on_c, 0, 74, 64
2, 94800, Note_on_c, 0, 68, 64
2, 94852, Note_on_c, 0, 68, 0
2, 94852, Note_on_c, 0, 74, 0
2, 94860, Note_on_c, 0, 75, 64
2, 94860, Note_on_c, 0, 67, 64
2, 94905, Note_on_c, 0, 70, 0
2, 94912, Note_on_c, 0, 67, 0
2, 94912, Note_on_c, 0, 75, 0
2, 94920, Note_on_c, 0, 77, 64
2, 94920, Note_on_c, 0, 65, 64
2, 94972, Note_on_c, 0, 65, 0
2, 94972, Note_on_c, 0, 77, 0
2, 94980, Note_on_c, 0, 79, 64
2, 94980, Note_on_c, 0, 63, 64
2, 95032, Note_on_c, 0, 63, 0
2, 95032, Note_on_c, 0, 79, 0
2, 95040, Note_on_c, 0, 80, 64
2, 95040, Note_on_c, 0, 58, 64
2, 95040, Note_on_c, 0, 62, 64
2, 95092, Note_on_c, 0, 62, 0
2, 95092, Note_on_c, 0, 80, 0
2, 95100, Note_on_c, 0, 77, 64
2, 95100, Note_on_c, 0, 65, 64
2, 95152, Note_on_c, 0, 65, 0
2, 95152, Note_on_c, 0, 77, 0
2, 95152, Note_on_c, 0, 58, 0
2, 95160, Note_on_c, 0, 79, 64
2, 95160, Note_on_c, 0, 63, 64
2, 95160, Note_on_c, 0, 67, 64
2, 95212, Note_on_c, 0, 79, 0
2, 95220, Note_on_c, 0, 77, 64
2, 95272, Note_on_c, 0, 77, 0
2, 95280, Note_on_c, 0, 75, 64
2, 95325, Note_on_c, 0, 67, 0
2, 95325, Note_on_c, 0, 63, 0
2, 95340, Note_on_c, 0, 65, 64
2, 95392, Note_on_c, 0, 65, 0
2, 95400, Note_on_c, 0, 63, 64
2, 95452, Note_on_c, 0, 75, 0
2, 95460, Note_on_c, 0, 72, 64
2, 95512, Note_on_c, 0, 72, 0
2, 95520, Note_on_c, 0, 70, 64
2, 95565, Note_on_c, 0, 63, 0
2, 95580, Note_on_c, 0, 60, 64
2, 95632, Note_on_c, 0, 60, 0
2, 95640, Note_on_c, 0, 58, 64
2, 95692, Note_on_c, 0, 70, 0
2, 95700, Note_on_c, 0, 68, 64
2, 95752, Note_on_c, 0, 68, 0
2, 95760, Note_on_c, 0, 67, 64
2, 95805, Note_on_c, 0, 58, 0
2, 95820, Note_on_c, 0, 56, 64
2, 95872, Note_on_c, 0, 56, 0
2, 95880, Note_on_c, 0, 55, 64
2, 95932, Note_on_c, 0, 67, 0
2, 95940, Note_on_c, 0, 65, 64
2, 95992, Note_on_c, 0, 65, 0
2, 96000, Note_on_c, 0, 63, 64
2, 96045, Note_on_c, 0, 55, 0
2, 96060, Note_on_c, 0, 53, 64
2, 96112, Note_on_c, 0, 53, 0
2, 96120, Note_on_c, 0, 51, 64
2, 96172, Note_on_c, 0, 63, 0
2, 96180, Note_on_c, 0, 60, 64
2, 96232, Note_on_c, 0, 60, 0
2, 96240, Note_on_c, 0, 58, 64
2, 96285, Note_on_c, 0, 51, 0
2, 96300, Note_on_c, 0, 48, 64
2, 96352, Note_on_c, 0, 48, 0
2, 96360, Note_on_c, 0, 46, 64
2, 96412, Note_on_c, 0, 58, 0
2, 96420, Note_on_c, 0, 56, 64
2, 96472, Note_on_c, 0, 56, 0
2, 96480, Note_on_c, 0, 55, 64
2, 96525, Note_on_c, 0, 46, 0
2, 96540, Note_on_c, 0, 44, 64
2, 96592, Note_on_c, 0, 44, 0
2, 96600, Note_on_c, 0, 43, 64
2, 96652, Note_on_c, 0, 55, 0
2, 96660, Note_on_c, 0, 53, 64
2, 96712, Note_on_c, 0, 53, 0
2, 96720, Note_on_c, 0, 51, 64
2, 96765, Note_on_c, 0, 43, 0
2, 96780, Note_on_c, 0, 41, 64
2, 96832, Note_on_c, 0, 41, 0
2, 96840, Note_on_c, 0, 39, 64
2, 96892, Note_on_c, 0, 51, 0
2, 96900, Note_on_c, 0, 53, 64
2, 96952, Note_on_c, 0, 53, 0
2, 96960, Note_on_c, 0, 51, 64
2, 97005, Note_on_c, 0, 39, 0
2, 97020, Note_on_c, 0, 70, 64
2, 97020, Note_on_c, 0, 73, 64
2, 97072, Note_on_c, 0, 73, 0
2, 97072, Note_on_c, 0, 70, 0
2, 97080, Note_on_c, 0, 70, 64
2, 97080, Note_on_c, 0, 73, 64
2, 97185, Note_on_c, 0, 51, 0
2, 97545, Note_on_c, 0, 73, 0
2, 97545, Note_on_c, 0, 70, 0
2, 97560, Note_on_c, 0, 68, 64
2, 97560, Note_on_c, 0, 72, 64
2, 98025, Note_on_c, 0, 72, 0
2, 98025, Note_on_c, 0, 68, 0
2, 98040, Note_on_c, 0, 75, 64
2, 98040, Note_on_c, 0, 82, 64
2, 98040, Note_on_c, 0, 67, 64
2, 98040, Note_on_c, 0, 70, 64
2, 98505, Note_on_c, 0, 70, 0
2, 98505, Note_on_c, 0, 75, 0
2, 98505, Note_on_c, 0, 82, 0
2, 98505, Note_on_c, 0, 67, 0
2, 98520, Note_on_c, 0, 73, 64
2, 98520, Note_on_c, 0, 85, 64
2, 98520, Note_on_c, 0, 65, 64
2, 98520, Note_on_c, 0, 68, 64
2, 98985, Note_on_c, 0, 68, 0
2, 98985, Note_on_c, 0, 73, 0
2, 98985, Note_on_c, 0, 85, 0
2, 98985, Note_on_c, 0, 65, 0
2, 99000, Note_on_c, 0, 72, 64
2, 99000, Note_on_c, 0, 84, 64
2, 99000, Note_on_c, 0, 64, 64
2, 99000, Note_on_c, 0, 67, 64
2, 99345, Note_on_c, 0, 67, 0
2, 99345, Note_on_c, 0, 72, 0
2, 99345, Note_on_c, 0, 84, 0
2, 99345, Note_on_c, 0, 64, 0
2, 99360, Note_on_c, 0, 72, 64
2, 99360, Note_on_c, 0, 77, 64
2, 99360, Note_on_c, 0, 63, 64
2, 99360, Note_on_c, 0, 69, 64
2, 99412, Note_on_c, 0, 69, 0
2, 99412, Note_on_c, 0, 72, 0
2, 99412, Note_on_c, 0, 77, 0
2, 99412, Note_on_c, 0, 63, 0
2, 99420, Note_on_c, 0, 73, 64
2, 99420, Note_on_c, 0, 82, 64
2, 99420, Note_on_c, 0, 61, 64
2, 99420, Note_on_c, 0, 65, 64
2, 99472, Note_on_c, 0, 65, 0
2, 99472, Note_on_c, 0, 73, 0
2, 99472, Note_on_c, 0, 82, 0
2, 99472, Note_on_c, 0, 61, 0
2, 99480, Note_on_c, 0, 73, 64
2, 99480, Note_on_c, 0, 82, 64
2, 99480, Note_on_c, 0, 61, 64
2, 99480, Note_on_c, 0, 65, 64
2, 99585, Note_on_c, 0, 65, 0
2, 99585, Note_on_c, 0, 73, 0
2, 99585, Note_on_c, 0, 82, 0
2, 99585, Note_on_c, 0, 61, 0
2, 99600, Note_on_c, 0, 70, 64
2, 99600, Note_on_c, 0, 75, 64
2, 99600, Note_on_c, 0, 61, 64
2, 99600, Note_on_c, 0, 67, 64
2, 99652, Note_on_c, 0, 67, 0
2, 99652, Note_on_c, 0, 70, 0
2, 99652, Note_on_c, 0, 75, 0
2, 99652, Note_on_c, 0, 61, 0
2, 99660, Note_on_c, 0, 72, 64
2, 99660, Note_on_c, 0, 80, 64
2, 99660, Note_on_c, 0, 60, 64
2, 99660, Note_on_c, 0, 63, 64
2, 99712, Note_on_c, 0, 63, 0
2, 99712, Note_on_c, 0, 72, 0
2, 99712, Note_on_c, 0, 80, 0
2, 99712, Note_on_c, 0, 60, 0
2, 99720, Note_on_c, 0, 72, 64
2, 99720, Note_on_c, 0, 80, 64
2, 99720, Note_on_c, 0, 60, 64
2, 99720, Note_on_c, 0, 63, 64
2, 99825, Note_on_c, 0, 63, 0
2, 99825, Note_on_c, 0, 72, 0
2, 99825, Note_on_c, 0, 80, 0
2, 99825, Note_on_c, 0, 60, 0
2, 99840, Note_on_c, 0, 68, 64
2, 99840, Note_on_c, 0, 73, 64
2, 99840, Note_on_c, 0, 60, 64
2, 99840, Note_on_c, 0, 65, 64
2, 99892, Note_on_c, 0, 65, 0
2, 99892, Note_on_c, 0, 68, 0
2, 99892, Note_on_c, 0, 73, 0
2, 99892, Note_on_c, 0, 60, 0
2, 99900, Note_on_c, 0, 70, 64
2, 99900, Note_on_c, 0, 79, 64
2, 99900, Note_on_c, 0, 58, 64
2, 99900, Note_on_c, 0, 61, 64
2, 99952, Note_on_c, 0, 61, 0
2, 99952, Note_on_c, 0, 70, 0
2, 99952, Note_on_c, 0, 79, 0
2, 99952, Note_on_c, 0, 58, 0
2, 99960, Note_on_c, 0, 70, 64
2, 99960, Note_on_c, 0, 79, 64
2, 99960, Note_on_c, 0, 58, 64
2, 99960, Note_on_c, 0, 61, 64
2, 100065, Note_on_c, 0, 61, 0
2, 100065, Note_on_c, 0, 70, 0
2, 100065, Note_on_c, 0, 79, 0
2, 100065, Note_on_c, 0, 58, 0
2, 100080, Note_on_c, 0, 67, 64
2, 100080, Note_on_c, 0, 72, 64
2, 100080, Note_on_c, 0, 58, 64
2, 100080, Note_on_c, 0, 64, 64
2, 100132, Note_on_c, 0, 64, 0
2, 100132, Note_on_c, 0, 67, 0
2, 100132, Note_on_c, 0, 72, 0
2, 100132, Note_on_c, 0, 58, 0
2, 100140, Note_on_c, 0, 68, 64
2, 100140, Note_on_c, 0, 77, 64
2, 100140, Note_on_c, 0, 56, 64
2, 100140, Note_on_c, 0, 60, 64
2, 100192, Note_on_c, 0, 60, 0
2, 100192, Note_on_c, 0, 68, 0
2, 100192, Note_on_c, 0, 77, 0
2, 100192, Note_on_c, 0, 56, 0
2, 100200, Note_on_c, 0, 68, 64
2, 100200, Note_on_c, 0, 77, 64
2, 100200, Note_on_c, 0, 56, 64
2, 100200, Note_on_c, 0, 60, 64
2, 100305, Note_on_c, 0, 60, 0
2, 100305, Note_on_c, 0, 68, 0
2, 100305, Note_on_c, 0, 77, 0
2, 100305, Note_on_c, 0, 56, 0
2, 100320, Note_on_c, 0, 65, 64
2, 100320, Note_on_c, 0, 77, 64
2, 100320, Note_on_c, 0, 56, 64
2, 100320, Note_on_c, 0, 59, 64
2, 100372, Note_on_c, 0, 59, 0
2, 100372, Note_on_c, 0, 56, 0
2, 100425, Note_on_c, 0, 77, 0
2, 100425, Note_on_c, 0, 65, 0
2, 100440, Note_on_c, 0, 65, 64
2, 100440, Note_on_c, 0, 77, 64
2, 100440, Note_on_c, 0, 55, 64
2, 100440, Note_on_c, 0, 58, 64
2, 100665, Note_on_c, 0, 77, 0
2, 100665, Note_on_c, 0, 65, 0
2, 100680, Note_on_c, 0, 64, 64
2, 100680, Note_on_c, 0, 76, 64
2, 100785, Note_on_c, 0, 76, 0
2, 100785, Note_on_c, 0, 58, 0
2, 100785, Note_on_c, 0, 55, 0
2, 100785, Note_on_c, 0, 64, 0
2, 100800, Note_on_c, 0, 65, 64
2, 100800, Note_on_c, 0, 72, 64
2, 100800, Note_on_c, 0, 77, 64
2, 100800, Note_on_c, 0, 53, 64
2, 100800, Note_on_c, 0, 56, 64
2, 100905, Note_on_c, 0, 56, 0
2, 100905, Note_on_c, 0, 77, 0
2, 100905, Note_on_c, 0, 65, 0
2, 100905, Note_on_c, 0, 72, 0
2, 100905, Note_on_c, 0, 53, 0
2, 100920, Note_on_c, 0, 67, 64
2, 100920, Note_on_c, 0, 72, 64
2, 100920, Note_on_c, 0, 79, 64
2, 100920, Note_on_c, 0, 52, 64
2, 100920, Note_on_c, 0, 55, 64
2, 101025, Note_on_c, 0, 55, 0
2, 101025, Note_on_c, 0, 79, 0
2, 101025, Note_on_c, 0, 67, 0
2, 101025, Note_on_c, 0, 72, 0
2, 101025, Note_on_c, 0, 52, 0
2, 101040, Note_on_c, 0, 68, 64
2, 101040, Note_on_c, 0, 72, 64
2, 101040, Note_on_c, 0, 80, 64
2, 101040, Note_on_c, 0, 50, 64
2, 101040, Note_on_c, 0, 53, 64
2, 101145, Note_on_c, 0, 53, 0
2, 101145, Note_on_c, 0, 80, 0
2, 101145, Note_on_c, 0, 68, 0
2, 101145, Note_on_c, 0, 72, 0
2, 101145, Note_on_c, 0, 50, 0
2, 101160, Note_on_c, 0, 70, 64
2, 101160, Note_on_c, 0, 72, 64
2, 101160, Note_on_c, 0, 82, 64
2, 101160, Note_on_c, 0, 48, 64
2, 101160, Note_on_c, 0, 52, 64
2, 101265, Note_on_c, 0, 52, 0
2, 101265, Note_on_c, 0, 82, 0
2, 101265, Note_on_c, 0, 70, 0
2, 101265, Note_on_c, 0, 72, 0
2, 101265, Note_on_c, 0, 48, 0
2, 101280, Note_on_c, 0, 67, 64
2, 101280, Note_on_c, 0, 72, 64
2, 101280, Note_on_c, 0, 76, 64
2, 101280, Note_on_c, 0, 79, 64
2, 101280, Note_on_c, 0, 48, 64
2, 101280, Note_on_c, 0, 52, 64
2, 101280, Note_on_c, 0, 55, 64
2, 101280, Note_on_c, 0, 58, 64
2, 101385, Note_on_c, 0, 58, 0
2, 101385, Note_on_c, 0, 67, 0
2, 101385, Note_on_c, 0, 48, 0
2, 101385, Note_on_c, 0, 72, 0
2, 101385, Note_on_c, 0, 76, 0
2, 101385, Note_on_c, 0, 79, 0
2, 101385, Note_on_c, 0, 52, 0
2, 101385, Note_on_c, 0, 55, 0
2, 101400, Note_on_c, 0, 68, 64
2, 101400, Note_on_c, 0, 72, 64
2, 101400, Note_on_c, 0, 77, 64
2, 101400, Note_on_c, 0, 80, 64
2, 101400, Note_on_c, 0, 41, 64
2, 101452, Note_on_c, 0, 41, 0
2, 101452, Note_on_c, 0, 77, 0
2, 101452, Note_on_c, 0, 68, 0
2, 101452, Note_on_c, 0, 72, 0
2, 101452, Note_on_c, 0, 80, 0
2, 101460, Note_on_c, 0, 48, 64
2, 101512, Note_on_c, 0, 48, 0
2, 101520, Note_on_c, 0, 56, 64
2, 101572, Note_on_c, 0, 56, 0
2, 101580, Note_on_c, 0, 48, 64
2, 101632, Note_on_c, 0, 48, 0
2, 101640, Note_on_c, 0, 72, 64
2, 101640, Note_on_c, 0, 84, 64
2, 101640, Note_on_c, 0, 41, 64
2, 101692, Note_on_c, 0, 41, 0
2, 101692, Note_on_c, 0, 84, 0
2, 101692, Note_on_c, 0, 72, 0
2, 101700, Note_on_c, 0, 48, 64
2, 101752, Note_on_c, 0, 48, 0
2, 101760, Note_on_c, 0, 56, 64
2, 101812, Note_on_c, 0, 56, 0
2, 101820, Note_on_c, 0, 48, 64
2, 101872, Note_on_c, 0, 48, 0
2, 101880, Note_on_c, 0, 84, 64
2, 101880, Note_on_c, 0, 96, 64
2, 101880, Note_on_c, 0, 43, 64
2, 101932, Note_on_c, 0, 43, 0
2, 101940, Note_on_c, 0, 48, 64
2, 101992, Note_on_c, 0, 48, 0
2, 102000, Note_on_c, 0, 58, 64
2, 102052, Note_on_c, 0, 58, 0
2, 102060, Note_on_c, 0, 48, 64
2, 102112, Note_on_c, 0, 48, 0
2, 102120, Note_on_c, 0, 43, 64
2, 102172, Note_on_c, 0, 43, 0
2, 102180, Note_on_c, 0, 48, 64
2, 102225, Note_on_c, 0, 96, 0
2, 102225, Note_on_c, 0, 84, 0
2, 102232, Note_on_c, 0, 48, 0
2, 102240, Note_on_c, 0, 72, 64
2, 102240, Note_on_c, 0, 84, 64
2, 102240, Note_on_c, 0, 58, 64
2, 102292, Note_on_c, 0, 58, 0
2, 102300, Note_on_c, 0, 48, 64
2, 102352, Note_on_c, 0, 48, 0
2, 102360, Note_on_c, 0, 44, 64
2, 102412, Note_on_c, 0, 44, 0
2, 102420, Note_on_c, 0, 48, 64
2, 102472, Note_on_c, 0, 48, 0
2, 102480, Note_on_c, 0, 60, 64
2, 102532, Note_on_c, 0, 60, 0
2, 102540, Note_on_c, 0, 48, 64
2, 102592, Note_on_c, 0, 48, 0
2, 102600, Note_on_c, 0, 44, 64
2, 102652, Note_on_c, 0, 44, 0
2, 102660, Note_on_c, 0, 48, 64
2, 102705, Note_on_c, 0, 84, 0
2, 102705, Note_on_c, 0, 72, 0
2, 102712, Note_on_c, 0, 48, 0
2, 102720, Note_on_c, 0, 68, 64
2, 102720, Note_on_c, 0, 80, 64
2, 102720, Note_on_c, 0, 60, 64
2, 102772, Note_on_c, 0, 60, 0
2, 102780, Note_on_c, 0, 48, 64
2, 102825, Note_on_c, 0, 80, 0
2, 102825, Note_on_c, 0, 68, 0
2, 102832, Note_on_c, 0, 48, 0
2, 102840, Note_on_c, 0, 67, 64
2, 102840, Note_on_c, 0, 79, 64
2, 102840, Note_on_c, 0, 46, 64
2, 102892, Note_on_c, 0, 46, 0
2, 102900, Note_on_c, 0, 48, 64
2, 102945, Note_on_c, 0, 79, 0
2, 102945, Note_on_c, 0, 67, 0
2, 102952, Note_on_c, 0, 48, 0
2, 102960, Note_on_c, 0, 64, 64
2, 102960, Note_on_c, 0, 76, 64
2, 102960, Note_on_c, 0, 58, 64
2, 103012, Note_on_c, 0, 58, 0
2, 103020, Note_on_c, 0, 48, 64
2, 103065, Note_on_c, 0, 76, 0
2, 103065, Note_on_c, 0, 64, 0
2, 103072, Note_on_c, 0, 48, 0
2, 103080, Note_on_c, 0, 61, 64
2, 103080, Note_on_c, 0, 73, 64
2, 103080, Note_on_c, 0, 36, 64
2, 103132, Note_on_c, 0, 36, 0
2, 103140, Note_on_c, 0, 48, 64
2, 103185, Note_on_c, 0, 73, 0
2, 103185, Note_on_c, 0, 61, 0
2, 103192, Note_on_c, 0, 48, 0
2, 103200, Note_on_c, 0, 60, 64
2, 103200, Note_on_c, 0, 72, 64
2, 103200, Note_on_c, 0, 55, 64
2, 103252, Note_on_c, 0, 55, 0
2, 103260, Note_on_c, 0, 48, 64
2, 103305, Note_on_c, 0, 72, 0
2, 103305, Note_on_c, 0, 60, 0
2, 103312, Note_on_c, 0, 48, 0
2, 103320, Note_on_c, 0, 60, 64
2, 103320, Note_on_c, 0, 72, 64
2, 103320, Note_on_c, 0, 41, 64
2, 103372, Note_on_c, 0, 41, 0
2, 103372, Note_on_c, 0, 72, 0
2, 103372, Note_on_c, 0, 60, 0
2, 103380, Note_on_c, 0, 48, 64
2, 103432, Note_on_c, 0, 48, 0
2, 103440, Note_on_c, 0, 56, 64
2, 103492, Note_on_c, 0, 56, 0
2, 103500, Note_on_c, 0, 48, 64
2, 103552, Note_on_c, 0, 48, 0
2, 103560, Note_on_c, 0, 72, 64
2, 103560, Note_on_c, 0, 84, 64
2, 103560, Note_on_c, 0, 41, 64
2, 103612, Note_on_c, 0, 41, 0
2, 103612, Note_on_c, 0, 84, 0
2, 103612, Note_on_c, 0, 72, 0
2, 103620, Note_on_c, 0, 48, 64
2, 103672, Note_on_c, 0, 48, 0
2, 103680, Note_on_c, 0, 56, 64
2, 103732, Note_on_c, 0, 56, 0
2, 103740, Note_on_c, 0, 48, 64
2, 103792, Note_on_c, 0, 48, 0
2, 103800, Note_on_c, 0, 84, 64
2, 103800, Note_on_c, 0, 96, 64
2, 103800, Note_on_c, 0, 43, 64
2, 103852, Note_on_c, 0, 43, 0
2, 103860, Note_on_c, 0, 48, 64
2, 103912, Note_on_c, 0, 48, 0
2, 103920, Note_on_c, 0, 58, 64
2, 103972, Note_on_c, 0, 58, 0
2, 103980, Note_on_c, 0, 48, 64
2, 104032, Note_on_c, 0, 48, 0
2, 104040, Note_on_c, 0, 43, 64
2, 104092, Note_on_c, 0, 43, 0
2, 104100, Note_on_c, 0, 48, 64
2, 104145, Note_on_c, 0, 96, 0
2, 104145, Note_on_c, 0, 84, 0
2, 104152, Note_on_c, 0, 48, 0
2, 104160, Note_on_c, 0, 72, 64
2, 104160, Note_on_c, 0, 84, 64
2, 104160, Note_on_c, 0, 58, 64
2, 104212, Note_on_c, 0, 58, 0
2, 104220, Note_on_c, 0, 48, 64
2, 104272, Note_on_c, 0, 48, 0
2, 104280, Note_on_c, 0, 44, 64
2, 104332, Note_on_c, 0, 44, 0
2, 104340, Note_on_c, 0, 48, 64
2, 104392, Note_on_c, 0, 48, 0
2, 104400, Note_on_c, 0, 60, 64
2, 104452, Note_on_c, 0, 60, 0
2, 104460, Note_on_c, 0, 48, 64
2, 104512, Note_on_c, 0, 48, 0
2, 104520, Note_on_c, 0, 41, 64
2, 104572, Note_on_c, 0, 41, 0
2, 104580, Note_on_c, 0, 48, 64
2, 104625, Note_on_c, 0, 84, 0
2, 104625, Note_on_c, 0, 72, 0
2, 104632, Note_on_c, 0, 48, 0
2, 104640, Note_on_c, 0, 68, 64
2, 104640, Note_on_c, 0, 80, 64
2, 104640, Note_on_c, 0, 56, 64
2, 104692, Note_on_c, 0, 56, 0
2, 104700, Note_on_c, 0, 48, 64
2, 104745, Note_on_c, 0, 80, 0
2, 104745, Note_on_c, 0, 68, 0
2, 104752, Note_on_c, 0, 48, 0
2, 104760, Note_on_c, 0, 65, 64
2, 104760, Note_on_c, 0, 77, 64
2, 104760, Note_on_c, 0, 38, 64
2, 104812, Note_on_c, 0, 38, 0
2, 104820, Note_on_c, 0, 46, 64
2, 104865, Note_on_c, 0, 77, 0
2, 104865, Note_on_c, 0, 65, 0
2, 104872, Note_on_c, 0, 46, 0
2, 104880, Note_on_c, 0, 62, 64
2, 104880, Note_on_c, 0, 74, 64
2, 104880, Note_on_c, 0, 53, 64
2, 104932, Note_on_c, 0, 53, 0
2, 104940, Note_on_c, 0, 46, 64
2, 104985, Note_on_c, 0, 74, 0
2, 104985, Note_on_c, 0, 62, 0
2, 104992, Note_on_c, 0, 46, 0
2, 105000, Note_on_c, 0, 59, 64
2, 105000, Note_on_c, 0, 71, 64
2, 105000, Note_on_c, 0, 38, 64
2, 105052, Note_on_c, 0, 38, 0
2, 105060, Note_on_c, 0, 46, 64
2, 105105, Note_on_c, 0, 71, 0
2, 105105, Note_on_c, 0, 59, 0
2, 105112, Note_on_c, 0, 46, 0
2, 105120, Note_on_c, 0, 58, 64
2, 105120, Note_on_c, 0, 70, 64
2, 105120, Note_on_c, 0, 53, 64
2, 105172, Note_on_c, 0, 53, 0
2, 105180, Note_on_c, 0, 46, 64
2, 105225, Note_on_c, 0, 70, 0
2, 105225, Note_on_c, 0, 58, 0
2, 105232, Note_on_c, 0, 46, 0
2, 105240, Note_on_c, 0, 58, 64
2, 105240, Note_on_c, 0, 70, 64
2, 105240, Note_on_c, 0, 39, 64
2, 105292, Note_on_c, 0, 39, 0
2, 105292, Note_on_c, 0, 70, 0
2, 105292, Note_on_c, 0, 58, 0
2, 105300, Note_on_c, 0, 46, 64
2, 105352, Note_on_c, 0, 46, 0
2, 105360, Note_on_c, 0, 54, 64
2, 105412, Note_on_c, 0, 54, 0
2, 105420, Note_on_c, 0, 46, 64
2, 105472, Note_on_c, 0, 46, 0
2, 105480, Note_on_c, 0, 70, 64
2, 105480, Note_on_c, 0, 82, 64
2, 105480, Note_on_c, 0, 39, 64
2, 105532, Note_on_c, 0, 39, 0
2, 105532, Note_on_c, 0, 82, 0
2, 105532, Note_on_c, 0, 70, 0
2, 105540, Note_on_c, 0, 46, 64
2, 105592, Note_on_c, 0, 46, 0
2, 105600, Note_on_c, 0, 54, 64
2, 105652, Note_on_c, 0, 54, 0
2, 105660, Note_on_c, 0, 46, 64
2, 105712, Note_on_c, 0, 46, 0
2, 105720, Note_on_c, 0, 82, 64
2, 105720, Note_on_c, 0, 94, 64
2, 105720, Note_on_c, 0, 41, 64
2, 105772, Note_on_c, 0, 41, 0
2, 105780, Note_on_c, 0, 46, 64
2, 105832, Note_on_c, 0, 46, 0
2, 105840, Note_on_c, 0, 56, 64
2, 105892, Note_on_c, 0, 56, 0
2, 105900, Note_on_c, 0, 46, 64
2, 105952, Note_on_c, 0, 46, 0
2, 105960, Note_on_c, 0, 41, 64
2, 106012, Note_on_c, 0, 41, 0
2, 106020, Note_on_c, 0, 46, 64
2, 106065, Note_on_c, 0, 94, 0
2, 106065, Note_on_c, 0, 82, 0
2, 106072, Note_on_c, 0, 46, 0
2, 106080, Note_on_c, 0, 70, 64
2, 106080, Note_on_c, 0, 82, 64
2, 106080, Note_on_c, 0, 56, 64
2, 106132, Note_on_c, 0, 56, 0
2, 106140, Note_on_c, 0, 46, 64
2, 106192, Note_on_c, 0, 46, 0
2, 106200, Note_on_c, 0, 42, 64
2, 106252, Note_on_c, 0, 42, 0
2, 106260, Note_on_c, 0, 46, 64
2, 106312, Note_on_c, 0, 46, 0
2, 106320, Note_on_c, 0, 58, 64
2, 106372, Note_on_c, 0, 58, 0
2, 106380, Note_on_c, 0, 46, 64
2, 106432, Note_on_c, 0, 46, 0
2, 106440, Note_on_c, 0, 42, 64
2, 106492, Note_on_c, 0, 42, 0
2, 106500, Note_on_c, 0, 46, 64
2, 106545, Note_on_c, 0, 82, 0
2, 106545, Note_on_c, 0, 70, 0
2, 106552, Note_on_c, 0, 46, 0
2, 106560, Note_on_c, 0, 66, 64
2, 106560, Note_on_c, 0, 78, 64
2, 106560, Note_on_c, 0, 58, 64
2, 106612, Note_on_c, 0, 58, 0
2, 106620, Note_on_c, 0, 46, 64
2, 106665, Note_on_c, 0, 78, 0
2, 106665, Note_on_c, 0, 66, 0
2, 106672, Note_on_c, 0, 46, 0
2, 106680, Note_on_c, 0, 65, 64
2, 106680, Note_on_c, 0, 77, 64
2, 106680, Note_on_c, 0, 44, 64
2, 106732, Note_on_c, 0, 44, 0
2, 106740, Note_on_c, 0, 46, 64
2, 106785, Note_on_c, 0, 77, 0
2, 106785, Note_on_c, 0, 65, 0
2, 106792, Note_on_c, 0, 46, 0
2, 106800, Note_on_c, 0, 62, 64
2, 106800, Note_on_c, 0, 74, 64
2, 106800, Note_on_c, 0, 56, 64
2, 106852, Note_on_c, 0, 56, 0
2, 106860, Note_on_c, 0, 46, 64
2, 106905, Note_on_c, 0, 74, 0
2, 106905, Note_on_c, 0, 62, 0
2, 106912, Note_on_c, 0, 46, 0
2, 106920, Note_on_c, 0, 59, 64
2, 106920, Note_on_c, 0, 71, 64
2, 106920, Note_on_c, 0, 34, 64
2, 106972, Note_on_c, 0, 34, 0
2, 106980, Note_on_c, 0, 46, 64
2, 107025, Note_on_c, 0, 71, 0
2, 107025, Note_on_c, 0, 59, 0
2, 107032, Note_on_c, 0, 46, 0
2, 107040, Note_on_c, 0, 58, 64
2, 107040, Note_on_c, 0, 70, 64
2, 107040, Note_on_c, 0, 53, 64
2, 107092, Note_on_c, 0, 53, 0
2, 107100, Note_on_c, 0, 46, 64
2, 107145, Note_on_c, 0, 70, 0
2, 107145, Note_on_c, 0, 58, 0
2, 107152, Note_on_c, 0, 46, 0
2, 107160, Note_on_c, 0, 58, 64
2, 107160, Note_on_c, 0, 70, 64
2, 107160, Note_on_c, 0, 39, 64
2, 107212, Note_on_c, 0, 39, 0
2, 107212, Note_on_c, 0, 70, 0
2, 107212, Note_on_c, 0, 58, 0
2, 107220, Note_on_c, 0, 46, 64
2, 107272, Note_on_c, 0, 46, 0
2, 107280, Note_on_c, 0, 54, 64
2, 107332, Note_on_c, 0, 54, 0
2, 107340, Note_on_c, 0, 46, 64
2, 107392, Note_on_c, 0, 46, 0
2, 107400, Note_on_c, 0, 70, 64
2, 107400, Note_on_c, 0, 82, 64
2, 107400, Note_on_c, 0, 41, 64
2, 107452, Note_on_c, 0, 41, 0
2, 107452, Note_on_c, 0, 82, 0
2, 107452, Note_on_c, 0, 70, 0
2, 107460, Note_on_c, 0, 46, 64
2, 107512, Note_on_c, 0, 46, 0
2, 107520, Note_on_c, 0, 56, 64
2, 107572, Note_on_c, 0, 56, 0
2, 107580, Note_on_c, 0, 46, 64
2, 107632, Note_on_c, 0, 46, 0
2, 107640, Note_on_c, 0, 82, 64
2, 107640, Note_on_c, 0, 94, 64
2, 107640, Note_on_c, 0, 43, 64
2, 107692, Note_on_c, 0, 43, 0
2, 107692, Note_on_c, 0, 94, 0
2, 107692, Note_on_c, 0, 82, 0
2, 107700, Note_on_c, 0, 51, 64
2, 107752, Note_on_c, 0, 51, 0
2, 107760, Note_on_c, 0, 58, 64
2, 107812, Note_on_c, 0, 58, 0
2, 107820, Note_on_c, 0, 51, 64
2, 107872, Note_on_c, 0, 51, 0
2, 107880, Note_on_c, 0, 83, 64
2, 107880, Note_on_c, 0, 95, 64
2, 107880, Note_on_c, 0, 44, 64
2, 107932, Note_on_c, 0, 44, 0
2, 107932, Note_on_c, 0, 95, 0
2, 107932, Note_on_c, 0, 83, 0
2, 107940, Note_on_c, 0, 51, 64
2, 107992, Note_on_c, 0, 51, 0
2, 108000, Note_on_c, 0, 59, 64
2, 108052, Note_on_c, 0, 59, 0
2, 108060, Note_on_c, 0, 51, 64
2, 108112, Note_on_c, 0, 51, 0
2, 108120, Note_on_c, 0, 71, 64
2, 108585, Note_on_c, 0, 71, 0
2, 108600, Note_on_c, 0, 70, 64
2, 109065, Note_on_c, 0, 70, 0
2, 109080, Note_on_c, 0, 68, 64
2, 109080, Note_on_c, 0, 59, 64
2, 109185, Note_on_c, 0, 68, 0
2, 109545, Note_on_c, 0, 59, 0
2, 109560, Note_on_c, 0, 58, 64
2, 110025, Note_on_c, 0, 58, 0
2, 110040, Note_on_c, 0, 72, 64
2, 110040, Note_on_c, 0, 57, 64
2, 110145, Note_on_c, 0, 57, 0
2, 110505, Note_on_c, 0, 72, 0
2, 110520, Note_on_c, 0, 70, 64
2, 110985, Note_on_c, 0, 70, 0
2, 111000, Note_on_c, 0, 69, 64
2, 111000, Note_on_c, 0, 60, 64
2, 111105, Note_on_c, 0, 69, 0
2, 111465, Note_on_c, 0, 60, 0
2, 111480, Note_on_c, 0, 58, 64
2, 111945, Note_on_c, 0, 58, 0
2, 111960, Note_on_c, 0, 77, 64
2, 111960, Note_on_c, 0, 56, 64
2, 112065, Note_on_c, 0, 56, 0
2, 112425, Note_on_c, 0, 77, 0
2, 112440, Note_on_c, 0, 75, 64
2, 112905, Note_on_c, 0, 75, 0
2, 112920, Note_on_c, 0, 74, 64
2, 112920, Note_on_c, 0, 65, 64
2, 112920, Note_on_c, 0, 68, 64
2, 113025, Note_on_c, 0, 74, 0
2, 113385, Note_on_c, 0, 68, 0
2, 113385, Note_on_c, 0, 65, 0
2, 113400, Note_on_c, 0, 63, 64
2, 113400, Note_on_c, 0, 67, 64
2, 113865, Note_on_c, 0, 67, 0
2, 113865, Note_on_c, 0, 63, 0
2, 113880, Note_on_c, 0, 70, 64
2, 113880, Note_on_c, 0, 82, 64
2, 113880, Note_on_c, 0, 62, 64
2, 113880, Note_on_c, 0, 65, 64
2, 114345, Note_on_c, 0, 65, 0
2, 114345, Note_on_c, 0, 70, 0
2, 114345, Note_on_c, 0, 82, 0
2, 114345, Note_on_c, 0, 62, 0
2, 114360, Note_on_c, 0, 68, 64
2, 114360, Note_on_c, 0, 80, 64
2, 114360, Note_on_c, 0, 60, 64
2, 114360, Note_on_c, 0, 63, 64
2, 114825, Note_on_c, 0, 63, 0
2, 114825, Note_on_c, 0, 68, 0
2, 114825, Note_on_c, 0, 80, 0
2, 114825, Note_on_c, 0, 60, 0
2, 114840, Note_on_c, 0, 67, 64
2, 114840, Note_on_c, 0, 79, 64
2, 114840, Note_on_c, 0, 59, 64
2, 114840, Note_on_c, 0, 62, 64
2, 115305, Note_on_c, 0, 62, 0
2, 115305, Note_on_c, 0, 59, 0
2, 115320, Note_on_c, 0, 63, 64
2, 115320, Note_on_c, 0, 58, 64
2, 115545, Note_on_c, 0, 63, 0
2, 115545, Note_on_c, 0, 67, 0
2, 115545, Note_on_c, 0, 79, 0
2, 115560, Note_on_c, 0, 68, 64
2, 115560, Note_on_c, 0, 80, 64
2, 115560, Note_on_c, 0, 65, 64
2, 115665, Note_on_c, 0, 65, 0
2, 115665, Note_on_c, 0, 80, 0
2, 115665, Note_on_c, 0, 68, 0
2, 115680, Note_on_c, 0, 65, 64
2, 115680, Note_on_c, 0, 77, 64
2, 115680, Note_on_c, 0, 62, 64
2, 115785, Note_on_c, 0, 62, 0
2, 115785, Note_on_c, 0, 58, 0
2, 115785, Note_on_c, 0, 65, 0
2, 115785, Note_on_c, 0, 77, 0
2, 115800, Note_on_c, 0, 75, 64
2, 115800, Note_on_c, 0, 79, 64
2, 115860, Note_on_c, 0, 58, 64
2, 115912, Note_on_c, 0, 58, 0
2, 115920, Note_on_c, 0, 60, 64
2, 115972, Note_on_c, 0, 60, 0
2, 115980, Note_on_c, 0, 58, 64
2, 116032, Note_on_c, 0, 58, 0
2, 116040, Note_on_c, 0, 57, 64
2, 116092, Note_on_c, 0, 57, 0
2, 116100, Note_on_c, 0, 58, 64
2, 116152, Note_on_c, 0, 58, 0
2, 116160, Note_on_c, 0, 55, 64
2, 116212, Note_on_c, 0, 55, 0
2, 116220, Note_on_c, 0, 51, 64
2, 116265, Note_on_c, 0, 79, 0
2, 116265, Note_on_c, 0, 75, 0
2, 116272, Note_on_c, 0, 51, 0
2, 116280, Note_on_c, 0, 70, 64
2, 116280, Note_on_c, 0, 77, 64
2, 116280, Note_on_c, 0, 56, 64
2, 116332, Note_on_c, 0, 56, 0
2, 116340, Note_on_c, 0, 53, 64
2, 116392, Note_on_c, 0, 53, 0
2, 116400, Note_on_c, 0, 50, 64
2, 116452, Note_on_c, 0, 50, 0
2, 116460, Note_on_c, 0, 46, 64
2, 116512, Note_on_c, 0, 46, 0
2, 116520, Note_on_c, 0, 44, 64
2, 116572, Note_on_c, 0, 44, 0
2, 116580, Note_on_c, 0, 41, 64
2, 116632, Note_on_c, 0, 41, 0
2, 116640, Note_on_c, 0, 38, 64
2, 116692, Note_on_c, 0, 38, 0
2, 116700, Note_on_c, 0, 34, 64
2, 116745, Note_on_c, 0, 77, 0
2, 116745, Note_on_c, 0, 70, 0
2, 116752, Note_on_c, 0, 34, 0
2, 116760, Note_on_c, 0, 67, 64
2, 116760, Note_on_c, 0, 75, 64
2, 116760, Note_on_c, 0, 39, 64
2, 116812, Note_on_c, 0, 39, 0
2, 116820, Note_on_c, 0, 41, 64
2, 116872, Note_on_c, 0, 41, 0
2, 116880, Note_on_c, 0, 43, 64
2, 116932, Note_on_c, 0, 43, 0
2, 116940, Note_on_c, 0, 44, 64
2, 116985, Note_on_c, 0, 75, 0
2, 116985, Note_on_c, 0, 67, 0
2, 116992, Note_on_c, 0, 44, 0
2, 117000, Note_on_c, 0, 68, 64
2, 117000, Note_on_c, 0, 72, 64
2, 117000, Note_on_c, 0, 46, 64
2, 117052, Note_on_c, 0, 46, 0
2, 117060, Note_on_c, 0, 48, 64
2, 117105, Note_on_c, 0, 72, 0
2, 117105, Note_on_c, 0, 68, 0
2, 117112, Note_on_c, 0, 48, 0
2, 117120, Note_on_c, 0, 67, 64
2, 117120, Note_on_c, 0, 70, 64
2, 117120, Note_on_c, 0, 50, 64
2, 117172, Note_on_c, 0, 50, 0
2, 117180, Note_on_c, 0, 51, 64
2, 117225, Note_on_c, 0, 70, 0
2, 117225, Note_on_c, 0, 67, 0
2, 117232, Note_on_c, 0, 51, 0
2, 117240, Note_on_c, 0, 67, 64
2, 117240, Note_on_c, 0, 70, 64
2, 117240, Note_on_c, 0, 53, 64
2, 117240, Note_on_c, 0, 46, 64
2, 117292, Note_on_c, 0, 53, 0
2, 117300, Note_on_c, 0, 55, 64
2, 117345, Note_on_c, 0, 67, 0
2, 117345, Note_on_c, 0, 70, 0
2, 117352, Note_on_c, 0, 55, 0
2, 117360, Note_on_c, 0, 65, 64
2, 117360, Note_on_c, 0, 68, 64
2, 117360, Note_on_c, 0, 56, 64
2, 117412, Note_on_c, 0, 56, 0
2, 117420, Note_on_c, 0, 57, 64
2, 117465, Note_on_c, 0, 68, 0
2, 117465, Note_on_c, 0, 65, 0
2, 117472, Note_on_c, 0, 57, 0
2, 117480, Note_on_c, 0, 63, 64
2, 117480, Note_on_c, 0, 67, 64
2, 117480, Note_on_c, 0, 58, 64
2, 117585, Note_on_c, 0, 58, 0
2, 117585, Note_on_c, 0, 67, 0
2, 117585, Note_on_c, 0, 63, 0
2, 117600, Note_on_c, 0, 62, 64
2, 117600, Note_on_c, 0, 65, 64
2, 117600, Note_on_c, 0, 56, 64
2, 117705, Note_on_c, 0, 56, 0
2, 117705, Note_on_c, 0, 46, 0
2, 117705, Note_on_c, 0, 62, 0
2, 117705, Note_on_c, 0, 65, 0
2, 117720, Note_on_c, 0, 63, 64
2, 117720, Note_on_c, 0, 51, 64
2, 117720, Note_on_c, 0, 55, 64
2, 117772, Note_on_c, 0, 63, 0
2, 117780, Note_on_c, 0, 58, 64
2, 117832, Note_on_c, 0, 58, 0
2, 117840, Note_on_c, 0, 60, 64
2, 117892, Note_on_c, 0, 60, 0
2, 117900, Note_on_c, 0, 58, 64
2, 117952, Note_on_c, 0, 58, 0
2, 117960, Note_on_c, 0, 57, 64
2, 118012, Note_on_c, 0, 57, 0
2, 118020, Note_on_c, 0, 58, 64
2, 118072, Note_on_c, 0, 58, 0
2, 118080, Note_on_c, 0, 67, 64
2, 118132, Note_on_c, 0, 67, 0
2, 118140, Note_on_c, 0, 63, 64
2, 118185, Note_on_c, 0, 55, 0
2, 118185, Note_on_c, 0, 51, 0
2, 118192, Note_on_c, 0, 63, 0
2, 118200, Note_on_c, 0, 62, 64
2, 118200, Note_on_c, 0, 46, 64
2, 118200, Note_on_c, 0, 53, 64
2, 118252, Note_on_c, 0, 62, 0
2, 118260, Note_on_c, 0, 63, 64
2, 118312, Note_on_c, 0, 63, 0
2, 118320, Note_on_c, 0, 65, 64
2, 118372, Note_on_c, 0, 65, 0
2, 118380, Note_on_c, 0, 67, 64
2, 118432, Note_on_c, 0, 67, 0
2, 118440, Note_on_c, 0, 68, 64
2, 118492, Note_on_c, 0, 68, 0
2, 118500, Note_on_c, 0, 69, 64
2, 118552, Note_on_c, 0, 69, 0
2, 118560, Note_on_c, 0, 72, 64
2, 118612, Note_on_c, 0, 72, 0
2, 118620, Note_on_c, 0, 70, 64
2, 118665, Note_on_c, 0, 53, 0
2, 118665, Note_on_c, 0, 46, 0
2, 118672, Note_on_c, 0, 70, 0
2, 118680, Note_on_c, 0, 69, 64
2, 118680, Note_on_c, 0, 63, 64
2, 118680, Note_on_c, 0, 67, 64
2, 118732, Note_on_c, 0, 69, 0
2, 118740, Note_on_c, 0, 70, 64
2, 118792, Note_on_c, 0, 70, 0
2, 118800, Note_on_c, 0, 72, 64
2, 118852, Note_on_c, 0, 72, 0
2, 118860, Note_on_c, 0, 70, 64
2, 118912, Note_on_c, 0, 70, 0
2, 118920, Note_on_c, 0, 69, 64
2, 118972, Note_on_c, 0, 69, 0
2, 118980, Note_on_c, 0, 70, 64
2, 119032, Note_on_c, 0, 70, 0
2, 119040, Note_on_c, 0, 79, 64
2, 119092, Note_on_c, 0, 79, 0
2, 119100, Note_on_c, 0, 75, 64
2, 119145, Note_on_c, 0, 67, 0
2, 119145, Note_on_c, 0, 63, 0
2, 119152, Note_on_c, 0, 75, 0
2, 119160, Note_on_c, 0, 74, 64
2, 119160, Note_on_c, 0, 58, 64
2, 119160, Note_on_c, 0, 65, 64
2, 119212, Note_on_c, 0, 74, 0
2, 119220, Note_on_c, 0, 75, 64
2, 119272, Note_on_c, 0, 75, 0
2, 119280, Note_on_c, 0, 77, 64
2, 119332, Note_on_c, 0, 77, 0
2, 119340, Note_on_c, 0, 79, 64
2, 119392, Note_on_c, 0, 79, 0
2, 119400, Note_on_c, 0, 80, 64
2, 119452, Note_on_c, 0, 80, 0
2, 119460, Note_on_c, 0, 81, 64
2, 119512, Note_on_c, 0, 81, 0
2, 119520, Note_on_c, 0, 84, 64
2, 119572, Note_on_c, 0, 84, 0
2, 119580, Note_on_c, 0, 82, 64
2, 119625, Note_on_c, 0, 65, 0
2, 119625, Note_on_c, 0, 58, 0
2, 119632, Note_on_c, 0, 82, 0
2, 119640, Note_on_c, 0, 81, 64
2, 119640, Note_on_c, 0, 75, 64
2, 119640, Note_on_c, 0, 79, 64
2, 119692, Note_on_c, 0, 81, 0
2, 119700, Note_on_c, 0, 82, 64
2, 119752, Note_on_c, 0, 82, 0
2, 119760, Note_on_c, 0, 84, 64
2, 119812, Note_on_c, 0, 84, 0
2, 119820, Note_on_c, 0, 82, 64
2, 119872, Note_on_c, 0, 82, 0
2, 119880, Note_on_c, 0, 81, 64
2, 119932, Note_on_c, 0, 81, 0
2, 119940, Note_on_c, 0, 82, 64
2, 119992, Note_on_c, 0, 82, 0
2, 120000, Note_on_c, 0, 91, 64
2, 120052, Note_on_c, 0, 91, 0
2, 120060, Note_on_c, 0, 87, 64
2, 120105, Note_on_c, 0, 79, 0
2, 120105, Note_on_c, 0, 75, 0
2, 120112, Note_on_c, 0, 87, 0
2, 120120, Note_on_c, 0, 86, 64
2, 120120, Note_on_c, 0, 70, 64
2, 120120, Note_on_c, 0, 77, 64
2, 120172, Note_on_c, 0, 86, 0
2, 120180, Note_on_c, 0, 87, 64
2, 120232, Note_on_c, 0, 87, 0
2, 120240, Note_on_c, 0, 89, 64
2, 120292, Note_on_c, 0, 89, 0
2, 120300, Note_on_c, 0, 91, 64
2, 120345, Note_on_c, 0, 77, 0
2, 120345, Note_on_c, 0, 70, 0
2, 120352, Note_on_c, 0, 91, 0
2, 120360, Note_on_c, 0, 92, 64
2, 120360, Note_on_c, 0, 68, 64
2, 120360, Note_on_c, 0, 70, 64
2, 120360, Note_on_c, 0, 74, 64
2, 120360, Note_on_c, 0, 77, 64
2, 120412, Note_on_c, 0, 92, 0
2, 120420, Note_on_c, 0, 93, 64
2, 120472, Note_on_c, 0, 93, 0
2, 120480, Note_on_c, 0, 96, 64
2, 120532, Note_on_c, 0, 96, 0
2, 120540, Note_on_c, 0, 94, 64
2, 120585, Note_on_c, 0, 74, 0
2, 120585, Note_on_c, 0, 77, 0
2, 120585, Note_on_c, 0, 68, 0
2, 120585, Note_on_c, 0, 70, 0
2, 120592, Note_on_c, 0, 94, 0
2, 120600, Note_on_c, 0, 93, 64
2, 120600, Note_on_c, 0, 67, 64
2, 120600, Note_on_c, 0, 70, 64
2, 120652, Note_on_c, 0, 93, 0
2, 120660, Note_on_c, 0, 94, 64
2, 120712, Note_on_c, 0, 94, 0
2, 120720, Note_on_c, 0, 92, 64
2, 120772, Note_on_c, 0, 92, 0
2, 120780, Note_on_c, 0, 91, 64
2, 120825, Note_on_c, 0, 70, 0
2, 120825, Note_on_c, 0, 67, 0
2, 120832, Note_on_c, 0, 91, 0
2, 120840, Note_on_c, 0, 89, 64
2, 120840, Note_on_c, 0, 63, 64
2, 120840, Note_on_c, 0, 67, 64
2, 120892, Note_on_c, 0, 89, 0
2, 120900, Note_on_c, 0, 87, 64
2, 120952, Note_on_c, 0, 87, 0
2, 120960, Note_on_c, 0, 86, 64
2, 121012, Note_on_c, 0, 86, 0
2, 121020, Note_on_c, 0, 84, 64
2, 121065, Note_on_c, 0, 67, 0
2, 121065, Note_on_c, 0, 63, 0
2, 121072, Note_on_c, 0, 84, 0
2, 121080, Note_on_c, 0, 82, 64
2, 121080, Note_on_c, 0, 58, 64
2, 121080, Note_on_c, 0, 65, 64
2, 121080, Note_on_c, 0, 68, 64
2, 121132, Note_on_c, 0, 82, 0
2, 121140, Note_on_c, 0, 80, 64
2, 121192, Note_on_c, 0, 80, 0
2, 121200, Note_on_c, 0, 79, 64
2, 121252, Note_on_c, 0, 79, 0
2, 121260, Note_on_c, 0, 77, 64
2, 121305, Note_on_c, 0, 58, 0
2, 121305, Note_on_c, 0, 68, 0
2, 121305, Note_on_c, 0, 65, 0
2, 121312, Note_on_c, 0, 77, 0
2, 121320, Note_on_c, 0, 75, 64
2, 121320, Note_on_c, 0, 58, 64
2, 121320, Note_on_c, 0, 65, 64
2, 121320, Note_on_c, 0, 68, 64
2, 121372, Note_on_c, 0, 75, 0
2, 121380, Note_on_c, 0, 74, 64
2, 121432, Note_on_c, 0, 74, 0
2, 121440, Note_on_c, 0, 77, 64
2, 121492, Note_on_c, 0, 77, 0
2, 121500, Note_on_c, 0, 80, 64
2, 121545, Note_on_c, 0, 58, 0
2, 121545, Note_on_c, 0, 68, 0
2, 121545, Note_on_c, 0, 65, 0
2, 121552, Note_on_c, 0, 80, 0
2, 121560, Note_on_c, 0, 75, 64
2, 121560, Note_on_c, 0, 79, 64
2, 121620, Note_on_c, 0, 58, 64
2, 121672, Note_on_c, 0, 58, 0
2, 121680, Note_on_c, 0, 60, 64
2, 121732, Note_on_c, 0, 60, 0
2, 121740, Note_on_c, 0, 58, 64
2, 121792, Note_on_c, 0, 58, 0
2, 121800, Note_on_c, 0, 57, 64
2, 121852, Note_on_c, 0, 57, 0
2, 121860, Note_on_c, 0, 58, 64
2, 121912, Note_on_c, 0, 58, 0
2, 121920, Note_on_c, 0, 55, 64
2, 121972, Note_on_c, 0, 55, 0
2, 121980, Note_on_c, 0, 51, 64
2, 122025, Note_on_c, 0, 79, 0
2, 122025, Note_on_c, 0, 75, 0
2, 122032, Note_on_c, 0, 51, 0
2, 122040, Note_on_c, 0, 70, 64
2, 122040, Note_on_c, 0, 77, 64
2, 122040, Note_on_c, 0, 56, 64
2, 122092, Note_on_c, 0, 56, 0
2, 122100, Note_on_c, 0, 53, 64
2, 122152, Note_on_c, 0, 53, 0
2, 122160, Note_on_c, 0, 50, 64
2, 122212, Note_on_c, 0, 50, 0
2, 122220, Note_on_c, 0, 46, 64
2, 122272, Note_on_c, 0, 46, 0
2, 122280, Note_on_c, 0, 44, 64
2, 122332, Note_on_c, 0, 44, 0
2, 122340, Note_on_c, 0, 41, 64
2, 122392, Note_on_c, 0, 41, 0
2, 122400, Note_on_c, 0, 38, 64
2, 122452, Note_on_c, 0, 38, 0
2, 122460, Note_on_c, 0, 34, 64
2, 122505, Note_on_c, 0, 77, 0
2, 122505, Note_on_c, 0, 70, 0
2, 122512, Note_on_c, 0, 34, 0
2, 122520, Note_on_c, 0, 67, 64
2, 122520, Note_on_c, 0, 75, 64
2, 122520, Note_on_c, 0, 39, 64
2, 122572, Note_on_c, 0, 39, 0
2, 122580, Note_on_c, 0, 41, 64
2, 122632, Note_on_c, 0, 41, 0
2, 122640, Note_on_c, 0, 43, 64
2, 122692, Note_on_c, 0, 43, 0
2, 122700, Note_on_c, 0, 44, 64
2, 122745, Note_on_c, 0, 75, 0
2, 122745, Note_on_c, 0, 67, 0
2, 122752, Note_on_c, 0, 44, 0
2, 122760, Note_on_c, 0, 68, 64
2, 122760, Note_on_c, 0, 72, 64
2, 122760, Note_on_c, 0, 46, 64
2, 122812, Note_on_c, 0, 46, 0
2, 122820, Note_on_c, 0, 48, 64
2, 122865, Note_on_c, 0, 72, 0
2, 122865, Note_on_c, 0, 68, 0
2, 122872, Note_on_c, 0, 48, 0
2, 122880, Note_on_c, 0, 67, 64
2, 122880, Note_on_c, 0, 70, 64
2, 122880, Note_on_c, 0, 50, 64
2, 122932, Note_on_c, 0, 50, 0
2, 122940, Note_on_c, 0, 51, 64
2, 122985, Note_on_c, 0, 70, 0
2, 122985, Note_on_c, 0, 67, 0
2, 122992, Note_on_c, 0, 51, 0
2, 123000, Note_on_c, 0, 67, 64
2, 123000, Note_on_c, 0, 70, 64
2, 123000, Note_on_c, 0, 53, 64
2, 123052, Note_on_c, 0, 53, 0
2, 123060, Note_on_c, 0, 55, 64
2, 123105, Note_on_c, 0, 70, 0
2, 123105, Note_on_c, 0, 67, 0
2, 123112, Note_on_c, 0, 55, 0
2, 123120, Note_on_c, 0, 65, 64
2, 123120, Note_on_c, 0, 68, 64
2, 123120, Note_on_c, 0, 56, 64
2, 123172, Note_on_c, 0, 56, 0
2, 123180, Note_on_c, 0, 57, 64
2, 123225, Note_on_c, 0, 68, 0
2, 123225, Note_on_c, 0, 65, 0
2, 123232, Note_on_c, 0, 57, 0
2, 123240, Note_on_c, 0, 63, 64
2, 123240, Note_on_c, 0, 67, 64
2, 123240, Note_on_c, 0, 58, 64
2, 123345, Note_on_c, 0, 58, 0
2, 123345, Note_on_c, 0, 67, 0
2, 123345, Note_on_c, 0, 63, 0
2, 123360, Note_on_c, 0, 58, 64
2, 123360, Note_on_c, 0, 65, 64
2, 123360, Note_on_c, 0, 56, 64
2, 123465, Note_on_c, 0, 56, 0
2, 123465, Note_on_c, 0, 65, 0
2, 123465, Note_on_c, 0, 58, 0
2, 123480, Note_on_c, 0, 63, 64
2, 123480, Note_on_c, 0, 51, 64
2, 123480, Note_on_c, 0, 55, 64
2, 123532, Note_on_c, 0, 63, 0
2, 123540, Note_on_c, 0, 58, 64
2, 123592, Note_on_c, 0, 58, 0
2, 123600, Note_on_c, 0, 60, 64
2, 123652, Note_on_c, 0, 60, 0
2, 123660, Note_on_c, 0, 58, 64
2, 123712, Note_on_c, 0, 58, 0
2, 123720, Note_on_c, 0, 57, 64
2, 123772, Note_on_c, 0, 57, 0
2, 123780, Note_on_c, 0, 58, 64
2, 123832, Note_on_c, 0, 58, 0
2, 123840, Note_on_c, 0, 67, 64
2, 123892, Note_on_c, 0, 67, 0
2, 123900, Note_on_c, 0, 63, 64
2, 123945, Note_on_c, 0, 55, 0
2, 123945, Note_on_c, 0, 51, 0
2, 123952, Note_on_c, 0, 63, 0
2, 123960, Note_on_c, 0, 62, 64
2, 123960, Note_on_c, 0, 46, 64
2, 123960, Note_on_c, 0, 53, 64
2, 124012, Note_on_c, 0, 62, 0
2, 124020, Note_on_c, 0, 63, 64
2, 124072, Note_on_c, 0, 63, 0
2, 124080, Note_on_c, 0, 65, 64
2, 124132, Note_on_c, 0, 65, 0
2, 124140, Note_on_c, 0, 67, 64
2, 124192, Note_on_c, 0, 67, 0
2, 124200, Note_on_c, 0, 68, 64
2, 124252, Note_on_c, 0, 68, 0
2, 124260, Note_on_c, 0, 69, 64
2, 124312, Note_on_c, 0, 69, 0
2, 124320, Note_on_c, 0, 72, 64
2, 124372, Note_on_c, 0, 72, 0
2, 124380, Note_on_c, 0, 70, 64
2, 124425, Note_on_c, 0, 53, 0
2, 124425, Note_on_c, 0, 46, 0
2, 124432, Note_on_c, 0, 70, 0
2, 124440, Note_on_c, 0, 69, 64
2, 124440, Note_on_c, 0, 63, 64
2, 124440, Note_on_c, 0, 67, 64
2, 124492, Note_on_c, 0, 69, 0
2, 124500, Note_on_c, 0, 70, 64
2, 124552, Note_on_c, 0, 70, 0
2, 124560, Note_on_c, 0, 72, 64
2, 124612, Note_on_c, 0, 72, 0
2, 124620, Note_on_c, 0, 70, 64
2, 124672, Note_on_c, 0, 70, 0
2, 124680, Note_on_c, 0, 69, 64
2, 124732, Note_on_c, 0, 69, 0
2, 124740, Note_on_c, 0, 70, 64
2, 124792, Note_on_c, 0, 70, 0
2, 124800, Note_on_c, 0, 79, 64
2, 124852, Note_on_c, 0, 79, 0
2, 124860, Note_on_c, 0, 75, 64
2, 124905, Note_on_c, 0, 67, 0
2, 124905, Note_on_c, 0, 63, 0
2, 124912, Note_on_c, 0, 75, 0
2, 124920, Note_on_c, 0, 74, 64
2, 124920, Note_on_c, 0, 58, 64
2, 124920, Note_on_c, 0, 65, 64
2, 124972, Note_on_c, 0, 74, 0
2, 124980, Note_on_c, 0, 75, 64
2, 125032, Note_on_c, 0, 75, 0
2, 125040, Note_on_c, 0, 77, 64
2, 125092, Note_on_c, 0, 77, 0
2, 125100, Note_on_c, 0, 79, 64
2, 125152, Note_on_c, 0, 79, 0
2, 125160, Note_on_c, 0, 80, 64
2, 125212, Note_on_c, 0, 80, 0
2, 125220, Note_on_c, 0, 81, 64
2, 125272, Note_on_c, 0, 81, 0
2, 125280, Note_on_c, 0, 84, 64
2, 125332, Note_on_c, 0, 84, 0
2, 125340, Note_on_c, 0, 82, 64
2, 125385, Note_on_c, 0, 65, 0
2, 125385, Note_on_c, 0, 58, 0
2, 125392, Note_on_c, 0, 82, 0
2, 125400, Note_on_c, 0, 81, 64
2, 125400, Note_on_c, 0, 75, 64
2, 125400, Note_on_c, 0, 79, 64
2, 125452, Note_on_c, 0, 81, 0
2, 125460, Note_on_c, 0, 82, 64
2, 125512, Note_on_c, 0, 82, 0
2, 125520, Note_on_c, 0, 84, 64
2, 125572, Note_on_c, 0, 84, 0
2, 125580, Note_on_c, 0, 82, 64
2, 125632, Note_on_c, 0, 82, 0
2, 125640, Note_on_c, 0, 81, 64
2, 125692, Note_on_c, 0, 81, 0
2, 125700, Note_on_c, 0, 82, 64
2, 125752, Note_on_c, 0, 82, 0
2, 125760, Note_on_c, 0, 91, 64
2, 125812, Note_on_c, 0, 91, 0
2, 125820, Note_on_c, 0, 87, 64
2, 125865, Note_on_c, 0, 79, 0
2, 125865, Note_on_c, 0, 75, 0
2, 125872, Note_on_c, 0, 87, 0
2, 125880, Note_on_c, 0, 86, 64
2, 125880, Note_on_c, 0, 70, 64
2, 125880, Note_on_c, 0, 77, 64
2, 125932, Note_on_c, 0, 86, 0
2, 125940, Note_on_c, 0, 87, 64
2, 125992, Note_on_c, 0, 87, 0
2, 126000, Note_on_c, 0, 89, 64
2, 126052, Note_on_c, 0, 89, 0
2, 126060, Note_on_c, 0, 91, 64
2, 126105, Note_on_c, 0, 77, 0
2, 126105, Note_on_c, 0, 70, 0
2, 126112, Note_on_c, 0, 91, 0
2, 126120, Note_on_c, 0, 92, 64
2, 126120, Note_on_c, 0, 68, 64
2, 126120, Note_on_c, 0, 70, 64
2, 126120, Note_on_c, 0, 77, 64
2, 126172, Note_on_c, 0, 92, 0
2, 126180, Note_on_c, 0, 93, 64
2, 126232, Note_on_c, 0, 93, 0
2, 126240, Note_on_c, 0, 96, 64
2, 126292, Note_on_c, 0, 96, 0
2, 126300, Note_on_c, 0, 94, 64
2, 126345, Note_on_c, 0, 68, 0
2, 126345, Note_on_c, 0, 77, 0
2, 126345, Note_on_c, 0, 70, 0
2, 126352, Note_on_c, 0, 94, 0
2, 126360, Note_on_c, 0, 94, 64
2, 126360, Note_on_c, 0, 67, 64
2, 126360, Note_on_c, 0, 70, 64
2, 126412, Note_on_c, 0, 94, 0
2, 126420, Note_on_c, 0, 70, 64
2, 126465, Note_on_c, 0, 70, 0
2, 126465, Note_on_c, 0, 67, 0
2, 126472, Note_on_c, 0, 70, 0
2, 126480, Note_on_c, 0, 72, 64
2, 126480, Note_on_c, 0, 63, 64
2, 126480, Note_on_c, 0, 67, 64
2, 126532, Note_on_c, 0, 72, 0
2, 126540, Note_on_c, 0, 70, 64
2, 126592, Note_on_c, 0, 70, 0
2, 126600, Note_on_c, 0, 68, 64
2, 126652, Note_on_c, 0, 68, 0
2, 126660, Note_on_c, 0, 70, 64
2, 126705, Note_on_c, 0, 67, 0
2, 126705, Note_on_c, 0, 63, 0
2, 126712, Note_on_c, 0, 70, 0
2, 126720, Note_on_c, 0, 79, 64
2, 126720, Note_on_c, 0, 63, 64
2, 126720, Note_on_c, 0, 67, 64
2, 126772, Note_on_c, 0, 79, 0
2, 126780, Note_on_c, 0, 75, 64
2, 126825, Note_on_c, 0, 67, 0
2, 126825, Note_on_c, 0, 63, 0
2, 126832, Note_on_c, 0, 75, 0
2, 126840, Note_on_c, 0, 74, 64
2, 126840, Note_on_c, 0, 58, 64
2, 126840, Note_on_c, 0, 65, 64
2, 126892, Note_on_c, 0, 74, 0
2, 126900, Note_on_c, 0, 75, 64
2, 126952, Note_on_c, 0, 75, 0
2, 126960, Note_on_c, 0, 77, 64
2, 127012, Note_on_c, 0, 77, 0
2, 127020, Note_on_c, 0, 79, 64
2, 127065, Note_on_c, 0, 65, 0
2, 127065, Note_on_c, 0, 58, 0
2, 127072, Note_on_c, 0, 79, 0
2, 127080, Note_on_c, 0, 80, 64
2, 127080, Note_on_c, 0, 56, 64
2, 127080, Note_on_c, 0, 58, 64
2, 127080, Note_on_c, 0, 65, 64
2, 127132, Note_on_c, 0, 80, 0
2, 127140, Note_on_c, 0, 81, 64
2, 127192, Note_on_c, 0, 81, 0
2, 127200, Note_on_c, 0, 84, 64
2, 127252, Note_on_c, 0, 84, 0
2, 127260, Note_on_c, 0, 82, 64
2, 127305, Note_on_c, 0, 56, 0
2, 127305, Note_on_c, 0, 65, 0
2, 127305, Note_on_c, 0, 58, 0
2, 127312, Note_on_c, 0, 82, 0
2, 127320, Note_on_c, 0, 82, 64
2, 127320, Note_on_c, 0, 55, 64
2, 127320, Note_on_c, 0, 58, 64
2, 127372, Note_on_c, 0, 82, 0
2, 127380, Note_on_c, 0, 58, 64
2, 127425, Note_on_c, 0, 58, 0
2, 127425, Note_on_c, 0, 55, 0
2, 127432, Note_on_c, 0, 58, 0
2, 127440, Note_on_c, 0, 60, 64
2, 127440, Note_on_c, 0, 51, 64
2, 127440, Note_on_c, 0, 55, 64
2, 127492, Note_on_c, 0, 60, 0
2, 127500, Note_on_c, 0, 58, 64
2, 127552, Note_on_c, 0, 58, 0
2, 127560, Note_on_c, 0, 57, 64
2, 127612, Note_on_c, 0, 57, 0
2, 127620, Note_on_c, 0, 58, 64
2, 127665, Note_on_c, 0, 55, 0
2, 127665, Note_on_c, 0, 51, 0
2, 127672, Note_on_c, 0, 58, 0
2, 127680, Note_on_c, 0, 67, 64
2, 127680, Note_on_c, 0, 51, 64
2, 127680, Note_on_c, 0, 55, 64
2, 127732, Note_on_c, 0, 67, 0
2, 127740, Note_on_c, 0, 63, 64
2, 127785, Note_on_c, 0, 55, 0
2, 127785, Note_on_c, 0, 51, 0
2, 127792, Note_on_c, 0, 63, 0
2, 127800, Note_on_c, 0, 57, 64
2, 127800, Note_on_c, 0, 46, 64
2, 127800, Note_on_c, 0, 53, 64
2, 127800, Note_on_c, 0, 56, 64
2, 127852, Note_on_c, 0, 57, 0
2, 127860, Note_on_c, 0, 58, 64
2, 127912, Note_on_c, 0, 58, 0
2, 127920, Note_on_c, 0, 68, 64
2, 127972, Note_on_c, 0, 68, 0
2, 127980, Note_on_c, 0, 65, 64
2, 128025, Note_on_c, 0, 46, 0
2, 128025, Note_on_c, 0, 56, 0
2, 128025, Note_on_c, 0, 53, 0
2, 128032, Note_on_c, 0, 65, 0
2, 128040, Note_on_c, 0, 62, 64
2, 128040, Note_on_c, 0, 46, 64
2, 128040, Note_on_c, 0, 53, 64
2, 128040, Note_on_c, 0, 56, 64
2, 128092, Note_on_c, 0, 62, 0
2, 128100, Note_on_c, 0, 72, 64
2, 128152, Note_on_c, 0, 72, 0
2, 128160, Note_on_c, 0, 70, 64
2, 128212, Note_on_c, 0, 70, 0
2, 128220, Note_on_c, 0, 62, 64
2, 128265, Note_on_c, 0, 46, 0
2, 128265, Note_on_c, 0, 56, 0
2, 128265, Note_on_c, 0, 53, 0
2, 128272, Note_on_c, 0, 62, 0
2, 128280, Note_on_c, 0, 63, 64
2, 128745, Note_on_c, 0, 63, 0
2, 128760, Note_on_c, 0, 58, 64
2, 129225, Note_on_c, 0, 58, 0
2, 129240, Note_on_c, 0, 55, 64
2, 129240, Note_on_c, 0, 51, 64
2, 129345, Note_on_c, 0, 55, 0
2, 129705, Note_on_c, 0, 51, 0
2, 129720, Note_on_c, 0, 46, 64
2, 130185, Note_on_c, 0, 46, 0
2, 130200, Note_on_c, 0, 63, 64
2, 130200, Note_on_c, 0, 67, 64
2, 130200, Note_on_c, 0, 43, 64
2, 130305, Note_on_c, 0, 43, 0
2, 130665, Note_on_c, 0, 67, 0
2, 130665, Note_on_c, 0, 63, 0
2, 130680, Note_on_c, 0, 58, 64
2, 130680, Note_on_c, 0, 65, 64
2, 131145, Note_on_c, 0, 65, 0
2, 131145, Note_on_c, 0, 58, 0
2, 131160, Note_on_c, 0, 55, 64
2, 131160, Note_on_c, 0, 63, 64
2, 131160, Note_on_c, 0, 51, 64
2, 131160, Note_on_c, 0, 55, 64
2, 131265, Note_on_c, 0, 55, 0
2, 131265, Note_on_c, 0, 63, 0
2, 131625, Note_on_c, 0, 51, 0
2, 131625, Note_on_c, 0, 55, 0
2, 131640, Note_on_c, 0, 46, 64
2, 131640, Note_on_c, 0, 53, 64
2, 132000, Note_on_c, 0, 63, 64
2, 132000, Note_on_c, 0, 67, 64
2, 132105, Note_on_c, 0, 67, 0
2, 132105, Note_on_c, 0, 46, 0
2, 132105, Note_on_c, 0, 53, 0
2, 132105, Note_on_c, 0, 63, 0
2, 132120, Note_on_c, 0, 58, 64
2, 132120, Note_on_c, 0, 65, 64
2, 132120, Note_on_c, 0, 43, 64
2, 132120, Note_on_c, 0, 51, 64
2, 132225, Note_on_c, 0, 51, 0
2, 132225, Note_on_c, 0, 43, 0
2, 132480, Note_on_c, 0, 51, 64
2, 132480, Note_on_c, 0, 55, 64
2, 132585, Note_on_c, 0, 55, 0
2, 132585, Note_on_c, 0, 58, 0
2, 132585, Note_on_c, 0, 65, 0
2, 132585, Note_on_c, 0, 51, 0
2, 132600, Note_on_c, 0, 55, 64
2, 132600, Note_on_c, 0, 63, 64
2, 132600, Note_on_c, 0, 46, 64
2, 132600, Note_on_c, 0, 53, 64
2, 132705, Note_on_c, 0, 63, 0
2, 132705, Note_on_c, 0, 55, 0
2, 132960, Note_on_c, 0, 75, 64
2, 132960, Note_on_c, 0, 79, 64
2, 133065, Note_on_c, 0, 79, 0
2, 133065, Note_on_c, 0, 53, 0
2, 133065, Note_on_c, 0, 46, 0
2, 133065, Note_on_c, 0, 75, 0
2, 133080, Note_on_c, 0, 70, 64
2, 133080, Note_on_c, 0, 77, 64
2, 133080, Note_on_c, 0, 43, 64
2, 133080, Note_on_c, 0, 51, 64
2, 133185, Note_on_c, 0, 51, 0
2, 133185, Note_on_c, 0, 43, 0
2, 133440, Note_on_c, 0, 63, 64
2, 133440, Note_on_c, 0, 67, 64
2, 133545, Note_on_c, 0, 67, 0
2, 133545, Note_on_c, 0, 70, 0
2, 133545, Note_on_c, 0, 77, 0
2, 133545, Note_on_c, 0, 63, 0
2, 133560, Note_on_c, 0, 67, 64
2, 133560, Note_on_c, 0, 75, 64
2, 133560, Note_on_c, 0, 58, 64
2, 133560, Note_on_c, 0, 65, 64
2, 133665, Note_on_c, 0, 75, 0
2, 133665, Note_on_c, 0, 67, 0
2, 133920, Note_on_c, 0, 87, 64
2, 133920, Note_on_c, 0, 91, 64
2, 134025, Note_on_c, 0, 91, 0
2, 134025, Note_on_c, 0, 65, 0
2, 134025, Note_on_c, 0, 58, 0
2, 134025, Note_on_c, 0, 87, 0
2, 134040, Note_on_c, 0, 55, 64
2, 134040, Note_on_c, 0, 63, 64
2, 134145, Note_on_c, 0, 63, 0
2, 134145, Note_on_c, 0, 55, 0
2, 134160, Note_on_c, 0, 87, 64
2, 134160, Note_on_c, 0, 91, 64
2, 134265, Note_on_c, 0, 91, 0
2, 134265, Note_on_c, 0, 87, 0
2, 134280, Note_on_c, 0, 82, 64
2, 134280, Note_on_c, 0, 89, 64
2, 134385, Note_on_c, 0, 89, 0
2, 134385, Note_on_c, 0, 82, 0
2, 134400, Note_on_c, 0, 79, 64
2, 134400, Note_on_c, 0, 87, 64
2, 134505, Note_on_c, 0, 87, 0
2, 134505, Note_on_c, 0, 79, 0
2, 134520, Note_on_c, 0, 79, 64
2, 134520, Note_on_c, 0, 87, 64
2, 134625, Note_on_c, 0, 87, 0
2, 134625, Note_on_c, 0, 79, 0
2, 134640, Note_on_c, 0, 75, 64
2, 134640, Note_on_c, 0, 79, 64
2, 134745, Note_on_c, 0, 79, 0
2, 134745, Note_on_c, 0, 75, 0
2, 134760, Note_on_c, 0, 70, 64
2, 134760, Note_on_c, 0, 77, 64
2, 134865, Note_on_c, 0, 77, 0
2, 134865, Note_on_c, 0, 70, 0
2, 134880, Note_on_c, 0, 67, 64
2, 134880, Note_on_c, 0, 75, 64
2, 134985, Note_on_c, 0, 75, 0
2, 134985, Note_on_c, 0, 67, 0
2, 135000, Note_on_c, 0, 67, 64
2, 135000, Note_on_c, 0, 75, 64
2, 135105, Note_on_c, 0, 75, 0
2, 135105, Note_on_c, 0, 67, 0
2, 135120, Note_on_c, 0, 63, 64
2, 135120, Note_on_c, 0, 67, 64
2, 135225, Note_on_c, 0, 67, 0
2, 135225, Note_on_c, 0, 63, 0
2, 135240, Note_on_c, 0, 58, 64
2, 135240, Note_on_c, 0, 65, 64
2, 135345, Note_on_c, 0, 65, 0
2, 135345, Note_on_c, 0, 58, 0
2, 135360, Note_on_c, 0, 55, 64
2, 135360, Note_on_c, 0, 63, 64
2, 135465, Note_on_c, 0, 63, 0
2, 135465, Note_on_c, 0, 55, 0
2, 135480, Note_on_c, 0, 55, 64
2, 135480, Note_on_c, 0, 63, 64
2, 135585, Note_on_c, 0, 63, 0
2, 135585, Note_on_c, 0, 55, 0
2, 135600, Note_on_c, 0, 51, 64
2, 135600, Note_on_c, 0, 55, 64
2, 135705, Note_on_c, 0, 55, 0
2, 135705, Note_on_c, 0, 51, 0
2, 135720, Note_on_c, 0, 46, 64
2, 135720, Note_on_c, 0, 53, 64
2, 135825, Note_on_c, 0, 53, 0
2, 135825, Note_on_c, 0, 46, 0
2, 135840, Note_on_c, 0, 43, 64
2, 135840, Note_on_c, 0, 51, 64
2, 135945, Note_on_c, 0, 51, 0
2, 135945, Note_on_c, 0, 43, 0
2, 135960, Note_on_c, 0, 53, 64
2, 135960, Note_on_c, 0, 58, 64
2, 136080, Note_on_c, 0, 46, 64
2, 136080, Note_on_c, 0, 50, 64
2, 136132, Note_on_c, 0, 50, 0
2, 136132, Note_on_c, 0, 46, 0
2, 136200, Note_on_c, 0, 39, 64
2, 136252, Note_on_c, 0, 39, 0
2, 136305, Note_on_c, 0, 58, 0
2, 136305, Note_on_c, 0, 53, 0
2, 136320, Note_on_c, 0, 51, 64
2, 136320, Note_on_c, 0, 55, 64
2, 136372, Note_on_c, 0, 55, 0
2, 136372, Note_on_c, 0, 51, 0
2, 136440, Note_on_c, 0, 53, 64
2, 136440, Note_on_c, 0, 58, 64
2, 136560, Note_on_c, 0, 46, 64
2, 136560, Note_on_c, 0, 50, 64
2, 136612, Note_on_c, 0, 50, 0
2, 136612, Note_on_c, 0, 46, 0
2, 136680, Note_on_c, 0, 39, 64
2, 136732, Note_on_c, 0, 39, 0
2, 136785, Note_on_c, 0, 58, 0
2, 136785, Note_on_c, 0, 53, 0
2, 136800, Note_on_c, 0, 51, 64
2, 136800, Note_on_c, 0, 55, 64
2, 136852, Note_on_c, 0, 55, 0
2, 136852, Note_on_c, 0, 51, 0
2, 136920, Note_on_c, 0, 53, 64
2, 136920, Note_on_c, 0, 58, 64
2, 137040, Note_on_c, 0, 46, 64
2, 137040, Note_on_c, 0, 50, 64
2, 137092, Note_on_c, 0, 50, 0
2, 137092, Note_on_c, 0, 46, 0
2, 137160, Note_on_c, 0, 39, 64
2, 137212, Note_on_c, 0, 39, 0
2, 137265, Note_on_c, 0, 58, 0
2, 137265, Note_on_c, 0, 53, 0
2, 137280, Note_on_c, 0, 51, 64
2, 137280, Note_on_c, 0, 55, 64
2, 137332, Note_on_c, 0, 55, 0
2, 137332, Note_on_c, 0, 51, 0
2, 137400, Note_on_c, 0, 50, 64
2, 137400, Note_on_c, 0, 53, 64
2, 137400, Note_on_c, 0, 58, 64
2, 137520, Note_on_c, 0, 50, 64
2, 137572, Note_on_c, 0, 50, 0
2, 137640, Note_on_c, 0, 34, 64
2, 137692, Note_on_c, 0, 34, 0
2, 137745, Note_on_c, 0, 58, 0
2, 137745, Note_on_c, 0, 53, 0
2, 137745, Note_on_c, 0, 50, 0
2, 137760, Note_on_c, 0, 53, 64
2, 137760, Note_on_c, 0, 56, 64
2, 137760, Note_on_c, 0, 62, 64
2, 137760, Note_on_c, 0, 50, 64
2, 137812, Note_on_c, 0, 50, 0
2, 137812, Note_on_c, 0, 53, 0
2, 137812, Note_on_c, 0, 56, 0
2, 137812, Note_on_c, 0, 62, 0
2, 137880, Note_on_c, 0, 55, 64
2, 137880, Note_on_c, 0, 63, 64
2, 137880, Note_on_c, 0, 39, 64
2, 137932, Note_on_c, 0, 63, 0
2, 137932, Note_on_c, 0, 55, 0
2, 138345, Note_on_c, 0, 39, 0
2, 138360, Note_on_c, 0, 38, 64
2, 138360, Note_on_c, 0, 39, 64
2, 138825, Note_on_c, 0, 39, 0
2, 138825, Note_on_c, 0, 38, 0
2, 138840, Note_on_c, 0, 63, 64
2, 138840, Note_on_c, 0, 36, 64
2, 138840, Note_on_c, 0, 39, 64
2, 138892, Note_on_c, 0, 63, 0
2, 138900, Note_on_c, 0, 65, 64
2, 138952, Note_on_c, 0, 65, 0
2, 138960, Note_on_c, 0, 63, 64
2, 139012, Note_on_c, 0, 63, 0
2, 139020, Note_on_c, 0, 62, 64
2, 139072, Note_on_c, 0, 62, 0
2, 139080, Note_on_c, 0, 63, 64
2, 139132, Note_on_c, 0, 63, 0
2, 139140, Note_on_c, 0, 65, 64
2, 139192, Note_on_c, 0, 65, 0
2, 139200, Note_on_c, 0, 67, 64
2, 139252, Note_on_c, 0, 67, 0
2, 139260, Note_on_c, 0, 68, 64
2, 139305, Note_on_c, 0, 39, 0
2, 139305, Note_on_c, 0, 36, 0
2, 139312, Note_on_c, 0, 68, 0
2, 139320, Note_on_c, 0, 70, 64
2, 139320, Note_on_c, 0, 34, 64
2, 139320, Note_on_c, 0, 39, 64
2, 139372, Note_on_c, 0, 70, 0
2, 139380, Note_on_c, 0, 72, 64
2, 139432, Note_on_c, 0, 72, 0
2, 139440, Note_on_c, 0, 74, 64
2, 139492, Note_on_c, 0, 74, 0
2, 139500, Note_on_c, 0, 75, 64
2, 139552, Note_on_c, 0, 75, 0
2, 139560, Note_on_c, 0, 77, 64
2, 139612, Note_on_c, 0, 77, 0
2, 139620, Note_on_c, 0, 79, 64
2, 139672, Note_on_c, 0, 79, 0
2, 139680, Note_on_c, 0, 80, 64
2, 139732, Note_on_c, 0, 80, 0
2, 139740, Note_on_c, 0, 82, 64
2, 139785, Note_on_c, 0, 39, 0
2, 139785, Note_on_c, 0, 34, 0
2, 139792, Note_on_c, 0, 82, 0
2, 139800, Note_on_c, 0, 84, 64
2, 139800, Note_on_c, 0, 32, 64
2, 139800, Note_on_c, 0, 39, 64
2, 139869, Note_on_c, 0, 84, 0
2, 139879, Note_on_c, 0, 86, 64
2, 139950, Note_on_c, 0, 86, 0
2, 139959, Note_on_c, 0, 87, 64
2, 140029, Note_on_c, 0, 87, 0
2, 140040, Note_on_c, 0, 89, 64
2, 140092, Note_on_c, 0, 89, 0
2, 140100, Note_on_c, 0, 91, 64
2, 140152, Note_on_c, 0, 91, 0
2, 140160, Note_on_c, 0, 92, 64
2, 140212, Note_on_c, 0, 92, 0
2, 140220, Note_on_c, 0, 94, 64
2, 140265, Note_on_c, 0, 39, 0
2, 140265, Note_on_c, 0, 32, 0
2, 140272, Note_on_c, 0, 94, 0
2, 140280, Note_on_c, 0, 96, 64
2, 140280, Note_on_c, 0, 31, 64
2, 140280, Note_on_c, 0, 39, 64
2, 140505, Note_on_c, 0, 96, 0
2, 140520, Note_on_c, 0, 94, 64
2, 140625, Note_on_c, 0, 94, 0
2, 140745, Note_on_c, 0, 39, 0
2, 140745, Note_on_c, 0, 31, 0
2, 140760, Note_on_c, 0, 87, 64
2, 140760, Note_on_c, 0, 32, 64
2, 140760, Note_on_c, 0, 39, 64
2, 140812, Note_on_c, 0, 87, 0
2, 140820, Note_on_c, 0, 89, 64
2, 140872, Note_on_c, 0, 89, 0
2, 140880, Note_on_c, 0, 87, 64
2, 140932, Note_on_c, 0, 87, 0
2, 140940, Note_on_c, 0, 86, 64
2, 140992, Note_on_c, 0, 86, 0
2, 141000, Note_on_c, 0, 87, 64
2, 141041, Note_on_c, 0, 87, 0
2, 141047, Note_on_c, 0, 89, 64
2, 141090, Note_on_c, 0, 89, 0
2, 141095, Note_on_c, 0, 91, 64
2, 141137, Note_on_c, 0, 91, 0
2, 141143, Note_on_c, 0, 92, 64
2, 141185, Note_on_c, 0, 92, 0
2, 141191, Note_on_c, 0, 94, 64
2, 141225, Note_on_c, 0, 39, 0
2, 141225, Note_on_c, 0, 32, 0
2, 141233, Note_on_c, 0, 94, 0
2, 141240, Note_on_c, 0, 96, 64
2, 141240, Note_on_c, 0, 31, 64
2, 141240, Note_on_c, 0, 39, 64
2, 141465, Note_on_c, 0, 96, 0
2, 141480, Note_on_c, 0, 94, 64
2, 141585, Note_on_c, 0, 94, 0
2, 141705, Note_on_c, 0, 39, 0
2, 141705, Note_on_c, 0, 31, 0
2, 141720, Note_on_c, 0, 87, 64
2, 141720, Note_on_c, 0, 32, 64
2, 141720, Note_on_c, 0, 39, 64
2, 141772, Note_on_c, 0, 87, 0
2, 141780, Note_on_c, 0, 89, 64
2, 141832, Note_on_c, 0, 89, 0
2, 141840, Note_on_c, 0, 87, 64
2, 141892, Note_on_c, 0, 87, 0
2, 141900, Note_on_c, 0, 86, 64
2, 141952, Note_on_c, 0, 86, 0
2, 141960, Note_on_c, 0, 87, 64
2, 142001, Note_on_c, 0, 87, 0
2, 142007, Note_on_c, 0, 89, 64
2, 142050, Note_on_c, 0, 89, 0
2, 142055, Note_on_c, 0, 91, 64
2, 142097, Note_on_c, 0, 91, 0
2, 142103, Note_on_c, 0, 92, 64
2, 142145, Note_on_c, 0, 92, 0
2, 142151, Note_on_c, 0, 94, 64
2, 142185, Note_on_c, 0, 39, 0
2, 142185, Note_on_c, 0, 32, 0
2, 142193, Note_on_c, 0, 94, 0
2, 142200, Note_on_c, 0, 84, 64
2, 142200, Note_on_c, 0, 96, 64
2, 142200, Note_on_c, 0, 31, 64
2, 142200, Note_on_c, 0, 39, 64
2, 142305, Note_on_c, 0, 39, 0
2, 142305, Note_on_c, 0, 31, 0
2, 142665, Note_on_c, 0, 96, 0
2, 142665, Note_on_c, 0, 84, 0
2, 142680, Note_on_c, 0, 82, 64
2, 142680, Note_on_c, 0, 94, 64
2, 142785, Note_on_c, 0, 94, 0
2, 142785, Note_on_c, 0, 82, 0
2, 143160, Note_on_c, 0, 53, 64
2, 143160, Note_on_c, 0, 56, 64
2, 143160, Note_on_c, 0, 58, 64
2, 143160, Note_on_c, 0, 62, 64
2, 143160, Note_on_c, 0, 34, 64
2, 143160, Note_on_c, 0, 38, 64
2, 143160, Note_on_c, 0, 41, 64
2, 143160, Note_on_c, 0, 46, 64
2, 143212, Note_on_c, 0, 46, 0
2, 143212, Note_on_c, 0, 53, 0
2, 143212, Note_on_c, 0, 34, 0
2, 143212, Note_on_c, 0, 56, 0
2, 143212, Note_on_c, 0, 58, 0
2, 143212, Note_on_c, 0, 62, 0
2, 143212, Note_on_c, 0, 38, 0
2, 143212, Note_on_c, 0, 41, 0
2, 143640, Note_on_c, 0, 55, 64
2, 143640, Note_on_c, 0, 58, 64
2, 143640, Note_on_c, 0, 63, 64
2, 143640, Note_on_c, 0, 39, 64
2, 143640, Note_on_c, 0, 43, 64
2, 143640, Note_on_c, 0, 46, 64
2, 143640, Note_on_c, 0, 51, 64
2, 143692, Note_on_c, 0, 51, 0
2, 143692, Note_on_c, 0, 43, 0
2, 143692, Note_on_c, 0, 58, 0
2, 143692, Note_on_c, 0, 63, 0
2, 143692, Note_on_c, 0, 55, 0
2, 143692, Note_on_c, 0, 46, 0
2, 143692, Note_on_c, 0, 39, 0
2, 143692, End_track
3, 0, Start_track
3, 0, MIDI_port, 0
3, 0, Title_t, "Sequenced by Tony Chavez"
3, 0, End_track
4, 0, Start_track
4, 0, MIDI_port, 0
4, 0, Title_t, "tonychu@chanchan.unitru.edu.pe"
4, 0, End_track
0, 0, End_of_file