0, 0, Header, 1, 3, 120
1, 0, Start_track
1, 0, Title_t, "2 Sonatinen Anhang 5"
1, 0, Title_t, "Nr 2"
1, 0, Copyright_t, "fiorellaearmando@panet.it"
1, 0, Sequencer_specific, 03, 00, 00, 41
1, 0, Time_signature, 2, 2, 24, 8
1, 0, Key_signature, -1, "major"
1, 0, Tempo, 535714
1, 4320, Tempo, 535714
1, 8640, Tempo, 535714
1, 21360, Tempo, 535714
1, 30000, Tempo, 535714
1, 33200, Tempo, 535714
1, 33560, Tempo, 530973
1, 33570, Tempo, 535714
1, 33580, Tempo, 540541
1, 33590, Tempo, 545455
1, 33600, Tempo, 550459
1, 33610, Tempo, 555556
1, 33620, Tempo, 560748
1, 33630, Tempo, 566038
1, 33635, Tempo, 571429
1, 33645, Tempo, 576923
1, 33655, Tempo, 582524
1, 33665, Tempo, 588235
1, 33675, Tempo, 594059
1, 33685, Tempo, 600000
1, 33695, Tempo, 606061
1, 33700, Tempo, 612245
1, 33710, Tempo, 618557
1, 33720, Tempo, 625000
1, 33730, Tempo, 631579
1, 33740, Tempo, 638298
1, 33750, Tempo, 645161
1, 33760, Tempo, 652174
1, 33765, Tempo, 659341
1, 33775, Tempo, 666667
1, 33785, Tempo, 674157
1, 33795, Tempo, 681818
1, 33805, Tempo, 689655
1, 33815, Tempo, 697674
1, 33825, Tempo, 705882
1, 33830, Tempo, 714286
1, 33840, Tempo, 722892
1, 33850, Tempo, 731707
1, 33860, Tempo, 740741
1, 33870, Tempo, 750000
1, 33880, Tempo, 759494
1, 33890, Tempo, 769231
1, 33900, Tempo, 779221
1, 33905, Tempo, 789474
1, 33915, Tempo, 800000
1, 33925, Tempo, 810811
1, 33935, Tempo, 821918
1, 33945, Tempo, 833333
1, 33955, Tempo, 845070
1, 33965, Tempo, 857143
1, 33970, Tempo, 869565
1, 33980, Tempo, 882353
1, 33990, Tempo, 895522
1, 34000, Tempo, 909091
1, 34010, Tempo, 923077
1, 34020, Tempo, 937500
1, 34030, Tempo, 952381
1, 34035, Tempo, 967742
1, 34045, Tempo, 983607
1, 34055, Tempo, 1000000
1, 34065, Tempo, 1016949
1, 34075, Tempo, 1034483
1, 34080, Tempo, 483871
1, 35175, Tempo, 480000
1, 38580, Tempo, 480000
1, 39195, Tempo, 476190
1, 54715, Tempo, 472441
1, 54720, Tempo, 476190
1, 54725, Tempo, 789474
1, 54955, Tempo, 800000
1, 54960, Tempo, 472441
1, 67310, Tempo, 472441
1, 67435, Tempo, 1500000
1, 67555, Tempo, 465116
1, 72720, Tempo, 483871
1, 72720, End_track
2, 0, Start_track
2, 0, MIDI_port, 0
2, 0, Title_t, "Piano R"
2, 0, Control_c, 0, 7, 119
2, 0, Control_c, 0, 10, 73
2, 0, Control_c, 0, 93, 21
2, 0, Control_c, 0, 91, 21
2, 0, Control_c, 0, 0, 0
2, 0, Control_c, 0, 32, 0
2, 0, Program_c, 0, 0
2, 0, Note_on_c, 0, 77, 111
2, 120, Note_on_c, 0, 77, 106
2, 125, Note_on_c, 0, 77, 0
2, 179, Note_on_c, 0, 77, 0
2, 180, Note_on_c, 0, 77, 106
2, 239, Note_on_c, 0, 77, 0
2, 240, Note_on_c, 0, 77, 99
2, 269, Note_on_c, 0, 77, 0
2, 270, Note_on_c, 0, 76, 99
2, 299, Note_on_c, 0, 76, 0
2, 300, Note_on_c, 0, 74, 99
2, 329, Note_on_c, 0, 74, 0
2, 330, Note_on_c, 0, 72, 100
2, 359, Note_on_c, 0, 72, 0
2, 360, Note_on_c, 0, 70, 100
2, 389, Note_on_c, 0, 70, 0
2, 390, Note_on_c, 0, 69, 100
2, 419, Note_on_c, 0, 69, 0
2, 420, Note_on_c, 0, 67, 100
2, 449, Note_on_c, 0, 67, 0
2, 450, Note_on_c, 0, 65, 100
2, 479, Note_on_c, 0, 65, 0
2, 480, Note_on_c, 0, 64, 98
2, 539, Note_on_c, 0, 64, 0
2, 540, Note_on_c, 0, 65, 65
2, 599, Note_on_c, 0, 65, 0
2, 600, Note_on_c, 0, 67, 65
2, 659, Note_on_c, 0, 67, 0
2, 660, Note_on_c, 0, 69, 65
2, 719, Note_on_c, 0, 69, 0
2, 720, Note_on_c, 0, 72, 65
2, 840, Note_on_c, 0, 70, 72
2, 844, Note_on_c, 0, 72, 0
2, 903, Note_on_c, 0, 70, 0
2, 960, Note_on_c, 0, 79, 111
2, 1080, Note_on_c, 0, 79, 109
2, 1083, Note_on_c, 0, 79, 0
2, 1139, Note_on_c, 0, 79, 0
2, 1140, Note_on_c, 0, 79, 108
2, 1199, Note_on_c, 0, 79, 0
2, 1200, Note_on_c, 0, 79, 107
2, 1229, Note_on_c, 0, 79, 0
2, 1230, Note_on_c, 0, 77, 107
2, 1259, Note_on_c, 0, 77, 0
2, 1260, Note_on_c, 0, 76, 107
2, 1289, Note_on_c, 0, 76, 0
2, 1290, Note_on_c, 0, 74, 106
2, 1319, Note_on_c, 0, 74, 0
2, 1320, Note_on_c, 0, 72, 106
2, 1349, Note_on_c, 0, 72, 0
2, 1350, Note_on_c, 0, 70, 106
2, 1379, Note_on_c, 0, 70, 0
2, 1380, Note_on_c, 0, 69, 106
2, 1409, Note_on_c, 0, 69, 0
2, 1410, Note_on_c, 0, 67, 106
2, 1439, Note_on_c, 0, 67, 0
2, 1440, Note_on_c, 0, 65, 106
2, 1499, Note_on_c, 0, 65, 0
2, 1500, Note_on_c, 0, 64, 64
2, 1559, Note_on_c, 0, 64, 0
2, 1560, Note_on_c, 0, 65, 65
2, 1619, Note_on_c, 0, 65, 0
2, 1620, Note_on_c, 0, 67, 66
2, 1679, Note_on_c, 0, 67, 0
2, 1680, Note_on_c, 0, 69, 66
2, 1793, Note_on_c, 0, 69, 0
2, 1800, Note_on_c, 0, 72, 67
2, 1829, Note_on_c, 0, 72, 0
2, 1830, Note_on_c, 0, 69, 67
2, 1859, Note_on_c, 0, 69, 0
2, 1860, Note_on_c, 0, 72, 67
2, 1889, Note_on_c, 0, 72, 0
2, 1890, Note_on_c, 0, 69, 67
2, 1919, Note_on_c, 0, 69, 0
2, 1920, Note_on_c, 0, 65, 67
2, 1979, Note_on_c, 0, 65, 0
2, 2025, Note_on_c, 0, 69, 67
2, 2040, Note_on_c, 0, 69, 0
2, 2040, Note_on_c, 0, 67, 67
2, 2100, Note_on_c, 0, 67, 0
2, 2100, Note_on_c, 0, 65, 67
2, 2145, Note_on_c, 0, 69, 67
2, 2159, Note_on_c, 0, 65, 0
2, 2160, Note_on_c, 0, 69, 0
2, 2160, Note_on_c, 0, 67, 67
2, 2220, Note_on_c, 0, 67, 0
2, 2220, Note_on_c, 0, 65, 67
2, 2279, Note_on_c, 0, 65, 0
2, 2280, Note_on_c, 0, 77, 68
2, 2309, Note_on_c, 0, 77, 0
2, 2310, Note_on_c, 0, 72, 68
2, 2339, Note_on_c, 0, 72, 0
2, 2340, Note_on_c, 0, 77, 68
2, 2369, Note_on_c, 0, 77, 0
2, 2370, Note_on_c, 0, 72, 68
2, 2399, Note_on_c, 0, 72, 0
2, 2400, Note_on_c, 0, 69, 68
2, 2459, Note_on_c, 0, 69, 0
2, 2505, Note_on_c, 0, 72, 69
2, 2520, Note_on_c, 0, 72, 0
2, 2520, Note_on_c, 0, 70, 69
2, 2580, Note_on_c, 0, 70, 0
2, 2580, Note_on_c, 0, 69, 69
2, 2625, Note_on_c, 0, 72, 69
2, 2639, Note_on_c, 0, 69, 0
2, 2640, Note_on_c, 0, 72, 0
2, 2640, Note_on_c, 0, 70, 69
2, 2700, Note_on_c, 0, 70, 0
2, 2700, Note_on_c, 0, 69, 70
2, 2759, Note_on_c, 0, 69, 0
2, 2760, Note_on_c, 0, 81, 110
2, 2789, Note_on_c, 0, 81, 0
2, 2790, Note_on_c, 0, 77, 110
2, 2819, Note_on_c, 0, 77, 0
2, 2820, Note_on_c, 0, 81, 110
2, 2849, Note_on_c, 0, 81, 0
2, 2850, Note_on_c, 0, 77, 110
2, 2879, Note_on_c, 0, 77, 0
2, 2880, Note_on_c, 0, 74, 110
2, 2939, Note_on_c, 0, 74, 0
2, 2940, Note_on_c, 0, 74, 110
2, 2999, Note_on_c, 0, 74, 0
2, 3000, Note_on_c, 0, 73, 110
2, 3029, Note_on_c, 0, 73, 0
2, 3030, Note_on_c, 0, 74, 110
2, 3059, Note_on_c, 0, 74, 0
2, 3060, Note_on_c, 0, 76, 110
2, 3089, Note_on_c, 0, 76, 0
2, 3090, Note_on_c, 0, 77, 110
2, 3119, Note_on_c, 0, 77, 0
2, 3120, Note_on_c, 0, 79, 110
2, 3179, Note_on_c, 0, 79, 0
2, 3180, Note_on_c, 0, 79, 110
2, 3239, Note_on_c, 0, 79, 0
2, 3240, Note_on_c, 0, 81, 69
2, 3269, Note_on_c, 0, 81, 0
2, 3270, Note_on_c, 0, 79, 69
2, 3299, Note_on_c, 0, 79, 0
2, 3300, Note_on_c, 0, 77, 69
2, 3329, Note_on_c, 0, 77, 0
2, 3330, Note_on_c, 0, 76, 69
2, 3359, Note_on_c, 0, 76, 0
2, 3360, Note_on_c, 0, 73, 69
2, 3389, Note_on_c, 0, 73, 0
2, 3390, Note_on_c, 0, 74, 69
2, 3419, Note_on_c, 0, 74, 0
2, 3420, Note_on_c, 0, 73, 69
2, 3449, Note_on_c, 0, 73, 0
2, 3450, Note_on_c, 0, 74, 69
2, 3479, Note_on_c, 0, 74, 0
2, 3480, Note_on_c, 0, 73, 70
2, 3509, Note_on_c, 0, 73, 0
2, 3510, Note_on_c, 0, 74, 70
2, 3539, Note_on_c, 0, 74, 0
2, 3540, Note_on_c, 0, 76, 71
2, 3569, Note_on_c, 0, 76, 0
2, 3570, Note_on_c, 0, 77, 71
2, 3599, Note_on_c, 0, 77, 0
2, 3600, Note_on_c, 0, 81, 71
2, 3629, Note_on_c, 0, 81, 0
2, 3630, Note_on_c, 0, 79, 72
2, 3659, Note_on_c, 0, 79, 0
2, 3660, Note_on_c, 0, 81, 72
2, 3689, Note_on_c, 0, 81, 0
2, 3690, Note_on_c, 0, 79, 72
2, 3719, Note_on_c, 0, 79, 0
2, 3720, Note_on_c, 0, 81, 73
2, 3749, Note_on_c, 0, 81, 0
2, 3750, Note_on_c, 0, 79, 73
2, 3779, Note_on_c, 0, 79, 0
2, 3780, Note_on_c, 0, 77, 74
2, 3809, Note_on_c, 0, 77, 0
2, 3810, Note_on_c, 0, 76, 75
2, 3839, Note_on_c, 0, 76, 0
2, 3840, Note_on_c, 0, 74, 76
2, 3899, Note_on_c, 0, 74, 0
2, 3900, Note_on_c, 0, 76, 78
2, 3929, Note_on_c, 0, 76, 0
2, 3930, Note_on_c, 0, 77, 79
2, 3959, Note_on_c, 0, 77, 0
2, 3960, Note_on_c, 0, 72, 80
2, 4019, Note_on_c, 0, 72, 0
2, 4020, Note_on_c, 0, 71, 83
2, 4079, Note_on_c, 0, 71, 0
2, 4080, Note_on_c, 0, 72, 85
2, 4139, Note_on_c, 0, 72, 0
2, 4140, Note_on_c, 0, 71, 86
2, 4169, Note_on_c, 0, 71, 0
2, 4170, Note_on_c, 0, 72, 87
2, 4199, Note_on_c, 0, 72, 0
2, 4200, Note_on_c, 0, 73, 89
2, 4229, Note_on_c, 0, 73, 0
2, 4230, Note_on_c, 0, 74, 90
2, 4259, Note_on_c, 0, 74, 0
2, 4260, Note_on_c, 0, 75, 93
2, 4289, Note_on_c, 0, 75, 0
2, 4290, Note_on_c, 0, 76, 95
2, 4319, Note_on_c, 0, 76, 0
2, 4320, Note_on_c, 0, 77, 111
2, 4440, Note_on_c, 0, 77, 106
2, 4445, Note_on_c, 0, 77, 0
2, 4499, Note_on_c, 0, 77, 0
2, 4500, Note_on_c, 0, 77, 106
2, 4559, Note_on_c, 0, 77, 0
2, 4560, Note_on_c, 0, 77, 99
2, 4589, Note_on_c, 0, 77, 0
2, 4590, Note_on_c, 0, 76, 99
2, 4619, Note_on_c, 0, 76, 0
2, 4620, Note_on_c, 0, 74, 99
2, 4649, Note_on_c, 0, 74, 0
2, 4650, Note_on_c, 0, 72, 100
2, 4679, Note_on_c, 0, 72, 0
2, 4680, Note_on_c, 0, 70, 100
2, 4709, Note_on_c, 0, 70, 0
2, 4710, Note_on_c, 0, 69, 100
2, 4739, Note_on_c, 0, 69, 0
2, 4740, Note_on_c, 0, 67, 100
2, 4769, Note_on_c, 0, 67, 0
2, 4770, Note_on_c, 0, 65, 100
2, 4799, Note_on_c, 0, 65, 0
2, 4800, Note_on_c, 0, 64, 98
2, 4859, Note_on_c, 0, 64, 0
2, 4860, Note_on_c, 0, 65, 65
2, 4919, Note_on_c, 0, 65, 0
2, 4920, Note_on_c, 0, 67, 65
2, 4979, Note_on_c, 0, 67, 0
2, 4980, Note_on_c, 0, 69, 65
2, 5039, Note_on_c, 0, 69, 0
2, 5040, Note_on_c, 0, 72, 65
2, 5160, Note_on_c, 0, 70, 72
2, 5164, Note_on_c, 0, 72, 0
2, 5223, Note_on_c, 0, 70, 0
2, 5280, Note_on_c, 0, 79, 111
2, 5400, Note_on_c, 0, 79, 109
2, 5403, Note_on_c, 0, 79, 0
2, 5459, Note_on_c, 0, 79, 0
2, 5460, Note_on_c, 0, 79, 108
2, 5519, Note_on_c, 0, 79, 0
2, 5520, Note_on_c, 0, 79, 107
2, 5549, Note_on_c, 0, 79, 0
2, 5550, Note_on_c, 0, 77, 107
2, 5579, Note_on_c, 0, 77, 0
2, 5580, Note_on_c, 0, 76, 107
2, 5609, Note_on_c, 0, 76, 0
2, 5610, Note_on_c, 0, 74, 106
2, 5639, Note_on_c, 0, 74, 0
2, 5640, Note_on_c, 0, 72, 106
2, 5669, Note_on_c, 0, 72, 0
2, 5670, Note_on_c, 0, 70, 106
2, 5699, Note_on_c, 0, 70, 0
2, 5700, Note_on_c, 0, 69, 106
2, 5729, Note_on_c, 0, 69, 0
2, 5730, Note_on_c, 0, 67, 106
2, 5759, Note_on_c, 0, 67, 0
2, 5760, Note_on_c, 0, 65, 106
2, 5819, Note_on_c, 0, 65, 0
2, 5820, Note_on_c, 0, 64, 64
2, 5879, Note_on_c, 0, 64, 0
2, 5880, Note_on_c, 0, 65, 65
2, 5939, Note_on_c, 0, 65, 0
2, 5940, Note_on_c, 0, 67, 66
2, 5999, Note_on_c, 0, 67, 0
2, 6000, Note_on_c, 0, 69, 66
2, 6113, Note_on_c, 0, 69, 0
2, 6120, Note_on_c, 0, 72, 67
2, 6149, Note_on_c, 0, 72, 0
2, 6150, Note_on_c, 0, 69, 67
2, 6179, Note_on_c, 0, 69, 0
2, 6180, Note_on_c, 0, 72, 67
2, 6209, Note_on_c, 0, 72, 0
2, 6210, Note_on_c, 0, 69, 67
2, 6239, Note_on_c, 0, 69, 0
2, 6240, Note_on_c, 0, 65, 67
2, 6299, Note_on_c, 0, 65, 0
2, 6345, Note_on_c, 0, 69, 67
2, 6360, Note_on_c, 0, 69, 0
2, 6360, Note_on_c, 0, 67, 67
2, 6420, Note_on_c, 0, 67, 0
2, 6420, Note_on_c, 0, 65, 67
2, 6465, Note_on_c, 0, 69, 67
2, 6479, Note_on_c, 0, 65, 0
2, 6480, Note_on_c, 0, 69, 0
2, 6480, Note_on_c, 0, 67, 67
2, 6540, Note_on_c, 0, 67, 0
2, 6540, Note_on_c, 0, 65, 67
2, 6599, Note_on_c, 0, 65, 0
2, 6600, Note_on_c, 0, 77, 68
2, 6629, Note_on_c, 0, 77, 0
2, 6630, Note_on_c, 0, 72, 68
2, 6659, Note_on_c, 0, 72, 0
2, 6660, Note_on_c, 0, 77, 68
2, 6689, Note_on_c, 0, 77, 0
2, 6690, Note_on_c, 0, 72, 68
2, 6719, Note_on_c, 0, 72, 0
2, 6720, Note_on_c, 0, 69, 68
2, 6779, Note_on_c, 0, 69, 0
2, 6825, Note_on_c, 0, 72, 69
2, 6840, Note_on_c, 0, 72, 0
2, 6840, Note_on_c, 0, 70, 69
2, 6900, Note_on_c, 0, 70, 0
2, 6900, Note_on_c, 0, 69, 69
2, 6945, Note_on_c, 0, 72, 69
2, 6959, Note_on_c, 0, 69, 0
2, 6960, Note_on_c, 0, 72, 0
2, 6960, Note_on_c, 0, 70, 69
2, 7020, Note_on_c, 0, 70, 0
2, 7020, Note_on_c, 0, 69, 70
2, 7079, Note_on_c, 0, 69, 0
2, 7080, Note_on_c, 0, 81, 110
2, 7109, Note_on_c, 0, 81, 0
2, 7110, Note_on_c, 0, 77, 110
2, 7139, Note_on_c, 0, 77, 0
2, 7140, Note_on_c, 0, 81, 110
2, 7169, Note_on_c, 0, 81, 0
2, 7170, Note_on_c, 0, 77, 110
2, 7199, Note_on_c, 0, 77, 0
2, 7200, Note_on_c, 0, 74, 110
2, 7259, Note_on_c, 0, 74, 0
2, 7260, Note_on_c, 0, 74, 110
2, 7319, Note_on_c, 0, 74, 0
2, 7320, Note_on_c, 0, 73, 110
2, 7349, Note_on_c, 0, 73, 0
2, 7350, Note_on_c, 0, 74, 110
2, 7379, Note_on_c, 0, 74, 0
2, 7380, Note_on_c, 0, 76, 110
2, 7409, Note_on_c, 0, 76, 0
2, 7410, Note_on_c, 0, 77, 110
2, 7439, Note_on_c, 0, 77, 0
2, 7440, Note_on_c, 0, 79, 110
2, 7499, Note_on_c, 0, 79, 0
2, 7500, Note_on_c, 0, 79, 110
2, 7559, Note_on_c, 0, 79, 0
2, 7560, Note_on_c, 0, 81, 69
2, 7589, Note_on_c, 0, 81, 0
2, 7590, Note_on_c, 0, 79, 69
2, 7619, Note_on_c, 0, 79, 0
2, 7620, Note_on_c, 0, 77, 69
2, 7649, Note_on_c, 0, 77, 0
2, 7650, Note_on_c, 0, 76, 69
2, 7679, Note_on_c, 0, 76, 0
2, 7680, Note_on_c, 0, 73, 69
2, 7709, Note_on_c, 0, 73, 0
2, 7710, Note_on_c, 0, 74, 69
2, 7739, Note_on_c, 0, 74, 0
2, 7740, Note_on_c, 0, 73, 69
2, 7769, Note_on_c, 0, 73, 0
2, 7770, Note_on_c, 0, 74, 69
2, 7799, Note_on_c, 0, 74, 0
2, 7800, Note_on_c, 0, 73, 70
2, 7829, Note_on_c, 0, 73, 0
2, 7830, Note_on_c, 0, 74, 70
2, 7859, Note_on_c, 0, 74, 0
2, 7860, Note_on_c, 0, 76, 71
2, 7889, Note_on_c, 0, 76, 0
2, 7890, Note_on_c, 0, 77, 71
2, 7919, Note_on_c, 0, 77, 0
2, 7920, Note_on_c, 0, 81, 71
2, 7949, Note_on_c, 0, 81, 0
2, 7950, Note_on_c, 0, 79, 72
2, 7979, Note_on_c, 0, 79, 0
2, 7980, Note_on_c, 0, 81, 72
2, 8009, Note_on_c, 0, 81, 0
2, 8010, Note_on_c, 0, 79, 72
2, 8039, Note_on_c, 0, 79, 0
2, 8040, Note_on_c, 0, 81, 73
2, 8069, Note_on_c, 0, 81, 0
2, 8070, Note_on_c, 0, 79, 73
2, 8099, Note_on_c, 0, 79, 0
2, 8100, Note_on_c, 0, 77, 74
2, 8129, Note_on_c, 0, 77, 0
2, 8130, Note_on_c, 0, 76, 75
2, 8159, Note_on_c, 0, 76, 0
2, 8160, Note_on_c, 0, 74, 76
2, 8219, Note_on_c, 0, 74, 0
2, 8220, Note_on_c, 0, 76, 78
2, 8249, Note_on_c, 0, 76, 0
2, 8250, Note_on_c, 0, 77, 79
2, 8279, Note_on_c, 0, 77, 0
2, 8280, Note_on_c, 0, 72, 80
2, 8339, Note_on_c, 0, 72, 0
2, 8340, Note_on_c, 0, 71, 83
2, 8399, Note_on_c, 0, 71, 0
2, 8400, Note_on_c, 0, 72, 85
2, 8459, Note_on_c, 0, 72, 0
2, 8460, Note_on_c, 0, 71, 86
2, 8489, Note_on_c, 0, 71, 0
2, 8490, Note_on_c, 0, 72, 87
2, 8519, Note_on_c, 0, 72, 0
2, 8520, Note_on_c, 0, 73, 89
2, 8549, Note_on_c, 0, 73, 0
2, 8550, Note_on_c, 0, 74, 90
2, 8579, Note_on_c, 0, 74, 0
2, 8580, Note_on_c, 0, 75, 93
2, 8609, Note_on_c, 0, 75, 0
2, 8610, Note_on_c, 0, 76, 95
2, 8639, Note_on_c, 0, 76, 0
2, 8640, Note_on_c, 0, 77, 110
2, 8760, Note_on_c, 0, 77, 110
2, 8764, Note_on_c, 0, 77, 0
2, 8819, Note_on_c, 0, 77, 0
2, 8820, Note_on_c, 0, 77, 110
2, 8879, Note_on_c, 0, 77, 0
2, 8880, Note_on_c, 0, 77, 110
2, 8909, Note_on_c, 0, 77, 0
2, 8910, Note_on_c, 0, 76, 110
2, 8939, Note_on_c, 0, 76, 0
2, 8940, Note_on_c, 0, 74, 110
2, 8969, Note_on_c, 0, 74, 0
2, 8970, Note_on_c, 0, 72, 110
2, 8999, Note_on_c, 0, 72, 0
2, 9000, Note_on_c, 0, 70, 110
2, 9029, Note_on_c, 0, 70, 0
2, 9030, Note_on_c, 0, 69, 110
2, 9059, Note_on_c, 0, 69, 0
2, 9060, Note_on_c, 0, 67, 110
2, 9089, Note_on_c, 0, 67, 0
2, 9090, Note_on_c, 0, 65, 110
2, 9119, Note_on_c, 0, 65, 0
2, 9120, Note_on_c, 0, 63, 110
2, 9179, Note_on_c, 0, 63, 0
2, 9180, Note_on_c, 0, 62, 73
2, 9209, Note_on_c, 0, 62, 0
2, 9210, Note_on_c, 0, 65, 73
2, 9239, Note_on_c, 0, 65, 0
2, 9240, Note_on_c, 0, 63, 73
2, 9299, Note_on_c, 0, 63, 0
2, 9300, Note_on_c, 0, 62, 73
2, 9329, Note_on_c, 0, 62, 0
2, 9330, Note_on_c, 0, 65, 72
2, 9359, Note_on_c, 0, 65, 0
2, 9360, Note_on_c, 0, 63, 72
2, 9473, Note_on_c, 0, 63, 0
2, 9600, Note_on_c, 0, 75, 110
2, 9720, Note_on_c, 0, 75, 110
2, 9723, Note_on_c, 0, 75, 0
2, 9779, Note_on_c, 0, 75, 0
2, 9780, Note_on_c, 0, 75, 110
2, 9839, Note_on_c, 0, 75, 0
2, 9840, Note_on_c, 0, 75, 110
2, 9869, Note_on_c, 0, 75, 0
2, 9870, Note_on_c, 0, 74, 110
2, 9899, Note_on_c, 0, 74, 0
2, 9900, Note_on_c, 0, 72, 110
2, 9929, Note_on_c, 0, 72, 0
2, 9930, Note_on_c, 0, 70, 110
2, 9959, Note_on_c, 0, 70, 0
2, 9960, Note_on_c, 0, 69, 110
2, 9989, Note_on_c, 0, 69, 0
2, 9990, Note_on_c, 0, 67, 110
2, 10019, Note_on_c, 0, 67, 0
2, 10020, Note_on_c, 0, 65, 110
2, 10049, Note_on_c, 0, 65, 0
2, 10050, Note_on_c, 0, 63, 110
2, 10079, Note_on_c, 0, 63, 0
2, 10080, Note_on_c, 0, 62, 110
2, 10139, Note_on_c, 0, 62, 0
2, 10140, Note_on_c, 0, 60, 67
2, 10169, Note_on_c, 0, 60, 0
2, 10170, Note_on_c, 0, 63, 67
2, 10199, Note_on_c, 0, 63, 0
2, 10200, Note_on_c, 0, 62, 67
2, 10259, Note_on_c, 0, 62, 0
2, 10260, Note_on_c, 0, 60, 67
2, 10289, Note_on_c, 0, 60, 0
2, 10290, Note_on_c, 0, 63, 67
2, 10319, Note_on_c, 0, 63, 0
2, 10320, Note_on_c, 0, 62, 67
2, 10433, Note_on_c, 0, 62, 0
2, 10560, Note_on_c, 0, 74, 69
2, 10619, Note_on_c, 0, 74, 0
2, 10620, Note_on_c, 0, 75, 69
2, 10649, Note_on_c, 0, 75, 0
2, 10650, Note_on_c, 0, 73, 69
2, 10679, Note_on_c, 0, 73, 0
2, 10680, Note_on_c, 0, 74, 69
2, 10739, Note_on_c, 0, 74, 0
2, 10740, Note_on_c, 0, 75, 69
2, 10769, Note_on_c, 0, 75, 0
2, 10770, Note_on_c, 0, 73, 68
2, 10799, Note_on_c, 0, 73, 0
2, 10800, Note_on_c, 0, 74, 68
2, 10859, Note_on_c, 0, 74, 0
2, 10860, Note_on_c, 0, 81, 68
2, 10919, Note_on_c, 0, 81, 0
2, 10920, Note_on_c, 0, 78, 68
2, 10979, Note_on_c, 0, 78, 0
2, 10980, Note_on_c, 0, 72, 67
2, 11039, Note_on_c, 0, 72, 0
2, 11040, Note_on_c, 0, 70, 66
2, 11099, Note_on_c, 0, 70, 0
2, 11100, Note_on_c, 0, 69, 66
2, 11129, Note_on_c, 0, 69, 0
2, 11130, Note_on_c, 0, 72, 66
2, 11159, Note_on_c, 0, 72, 0
2, 11160, Note_on_c, 0, 70, 66
2, 11219, Note_on_c, 0, 70, 0
2, 11220, Note_on_c, 0, 69, 66
2, 11249, Note_on_c, 0, 69, 0
2, 11250, Note_on_c, 0, 72, 67
2, 11279, Note_on_c, 0, 72, 0
2, 11280, Note_on_c, 0, 70, 67
2, 11405, Note_on_c, 0, 70, 0
2, 11520, Note_on_c, 0, 72, 69
2, 11579, Note_on_c, 0, 72, 0
2, 11580, Note_on_c, 0, 71, 69
2, 11609, Note_on_c, 0, 71, 0
2, 11610, Note_on_c, 0, 74, 69
2, 11639, Note_on_c, 0, 74, 0
2, 11640, Note_on_c, 0, 72, 69
2, 11699, Note_on_c, 0, 72, 0
2, 11700, Note_on_c, 0, 71, 69
2, 11729, Note_on_c, 0, 71, 0
2, 11730, Note_on_c, 0, 74, 69
2, 11759, Note_on_c, 0, 74, 0
2, 11760, Note_on_c, 0, 72, 69
2, 11819, Note_on_c, 0, 72, 0
2, 11820, Note_on_c, 0, 79, 69
2, 11879, Note_on_c, 0, 79, 0
2, 11880, Note_on_c, 0, 76, 69
2, 11939, Note_on_c, 0, 76, 0
2, 11940, Note_on_c, 0, 70, 69
2, 11999, Note_on_c, 0, 70, 0
2, 12000, Note_on_c, 0, 69, 69
2, 12059, Note_on_c, 0, 69, 0
2, 12060, Note_on_c, 0, 67, 69
2, 12089, Note_on_c, 0, 67, 0
2, 12090, Note_on_c, 0, 70, 69
2, 12119, Note_on_c, 0, 70, 0
2, 12120, Note_on_c, 0, 69, 69
2, 12179, Note_on_c, 0, 69, 0
2, 12180, Note_on_c, 0, 67, 69
2, 12209, Note_on_c, 0, 67, 0
2, 12210, Note_on_c, 0, 70, 69
2, 12239, Note_on_c, 0, 70, 0
2, 12240, Note_on_c, 0, 69, 69
2, 12477, Note_on_c, 0, 69, 0
2, 12480, Note_on_c, 0, 70, 73
2, 12539, Note_on_c, 0, 70, 0
2, 12540, Note_on_c, 0, 77, 73
2, 12599, Note_on_c, 0, 77, 0
2, 12600, Note_on_c, 0, 74, 73
2, 12659, Note_on_c, 0, 74, 0
2, 12660, Note_on_c, 0, 69, 73
2, 12719, Note_on_c, 0, 69, 0
2, 12720, Note_on_c, 0, 67, 73
2, 12960, Note_on_c, 0, 67, 0
2, 12960, Note_on_c, 0, 69, 78
2, 13019, Note_on_c, 0, 69, 0
2, 13020, Note_on_c, 0, 76, 80
2, 13079, Note_on_c, 0, 76, 0
2, 13080, Note_on_c, 0, 73, 81
2, 13139, Note_on_c, 0, 73, 0
2, 13140, Note_on_c, 0, 67, 82
2, 13199, Note_on_c, 0, 67, 0
2, 13200, Note_on_c, 0, 65, 82
2, 13440, Note_on_c, 0, 65, 0
2, 13500, Note_on_c, 0, 65, 86
2, 13559, Note_on_c, 0, 65, 0
2, 13560, Note_on_c, 0, 74, 87
2, 13619, Note_on_c, 0, 74, 0
2, 13620, Note_on_c, 0, 71, 88
2, 13679, Note_on_c, 0, 71, 0
2, 13680, Note_on_c, 0, 77, 89
2, 13739, Note_on_c, 0, 77, 0
2, 13740, Note_on_c, 0, 74, 90
2, 13799, Note_on_c, 0, 74, 0
2, 13800, Note_on_c, 0, 83, 91
2, 13859, Note_on_c, 0, 83, 0
2, 13860, Note_on_c, 0, 77, 93
2, 13919, Note_on_c, 0, 77, 0
2, 13920, Note_on_c, 0, 86, 95
2, 13979, Note_on_c, 0, 86, 0
2, 13980, Note_on_c, 0, 83, 97
2, 14039, Note_on_c, 0, 83, 0
2, 14040, Note_on_c, 0, 89, 99
2, 14099, Note_on_c, 0, 89, 0
2, 14100, Note_on_c, 0, 86, 100
2, 14159, Note_on_c, 0, 86, 0
2, 14160, Note_on_c, 0, 84, 102
2, 14219, Note_on_c, 0, 84, 0
2, 14220, Note_on_c, 0, 83, 103
2, 14279, Note_on_c, 0, 83, 0
2, 14280, Note_on_c, 0, 81, 106
2, 14339, Note_on_c, 0, 81, 0
2, 14340, Note_on_c, 0, 83, 107
2, 14399, Note_on_c, 0, 83, 0
2, 14400, Note_on_c, 0, 84, 108
2, 14459, Note_on_c, 0, 84, 0
2, 14520, Note_on_c, 0, 79, 105
2, 14549, Note_on_c, 0, 79, 0
2, 14550, Note_on_c, 0, 76, 105
2, 14579, Note_on_c, 0, 76, 0
2, 14580, Note_on_c, 0, 79, 105
2, 14609, Note_on_c, 0, 79, 0
2, 14610, Note_on_c, 0, 76, 105
2, 14639, Note_on_c, 0, 76, 0
2, 14640, Note_on_c, 0, 72, 105
2, 14699, Note_on_c, 0, 72, 0
2, 14760, Note_on_c, 0, 84, 105
2, 14789, Note_on_c, 0, 84, 0
2, 14790, Note_on_c, 0, 79, 105
2, 14819, Note_on_c, 0, 79, 0
2, 14820, Note_on_c, 0, 84, 105
2, 14849, Note_on_c, 0, 84, 0
2, 14850, Note_on_c, 0, 79, 105
2, 14879, Note_on_c, 0, 79, 0
2, 14880, Note_on_c, 0, 76, 105
2, 14939, Note_on_c, 0, 76, 0
2, 15000, Note_on_c, 0, 88, 105
2, 15029, Note_on_c, 0, 88, 0
2, 15030, Note_on_c, 0, 84, 105
2, 15059, Note_on_c, 0, 84, 0
2, 15060, Note_on_c, 0, 88, 105
2, 15089, Note_on_c, 0, 88, 0
2, 15090, Note_on_c, 0, 84, 105
2, 15119, Note_on_c, 0, 84, 0
2, 15120, Note_on_c, 0, 83, 105
2, 15179, Note_on_c, 0, 83, 0
2, 15180, Note_on_c, 0, 86, 105
2, 15239, Note_on_c, 0, 86, 0
2, 15240, Note_on_c, 0, 89, 105
2, 15299, Note_on_c, 0, 89, 0
2, 15300, Note_on_c, 0, 83, 105
2, 15359, Note_on_c, 0, 83, 0
2, 15360, Note_on_c, 0, 84, 105
2, 15419, Note_on_c, 0, 84, 0
2, 15480, Note_on_c, 0, 86, 105
2, 15509, Note_on_c, 0, 86, 0
2, 15510, Note_on_c, 0, 82, 105
2, 15539, Note_on_c, 0, 82, 0
2, 15540, Note_on_c, 0, 86, 105
2, 15569, Note_on_c, 0, 86, 0
2, 15570, Note_on_c, 0, 82, 105
2, 15599, Note_on_c, 0, 82, 0
2, 15600, Note_on_c, 0, 79, 105
2, 15659, Note_on_c, 0, 79, 0
2, 15720, Note_on_c, 0, 82, 104
2, 15749, Note_on_c, 0, 82, 0
2, 15750, Note_on_c, 0, 79, 104
2, 15779, Note_on_c, 0, 79, 0
2, 15780, Note_on_c, 0, 82, 104
2, 15809, Note_on_c, 0, 82, 0
2, 15810, Note_on_c, 0, 79, 104
2, 15839, Note_on_c, 0, 79, 0
2, 15840, Note_on_c, 0, 76, 104
2, 15899, Note_on_c, 0, 76, 0
2, 15960, Note_on_c, 0, 79, 101
2, 15989, Note_on_c, 0, 79, 0
2, 15990, Note_on_c, 0, 76, 100
2, 16019, Note_on_c, 0, 76, 0
2, 16020, Note_on_c, 0, 79, 99
2, 16049, Note_on_c, 0, 79, 0
2, 16050, Note_on_c, 0, 76, 98
2, 16079, Note_on_c, 0, 76, 0
2, 16080, Note_on_c, 0, 72, 97
2, 16139, Note_on_c, 0, 72, 0
2, 16200, Note_on_c, 0, 72, 90
2, 16229, Note_on_c, 0, 72, 0
2, 16230, Note_on_c, 0, 69, 86
2, 16259, Note_on_c, 0, 69, 0
2, 16260, Note_on_c, 0, 72, 85
2, 16289, Note_on_c, 0, 72, 0
2, 16290, Note_on_c, 0, 69, 83
2, 16319, Note_on_c, 0, 69, 0
2, 16320, Note_on_c, 0, 65, 81
2, 16379, Note_on_c, 0, 65, 0
2, 16425, Note_on_c, 0, 69, 76
2, 16440, Note_on_c, 0, 69, 0
2, 16440, Note_on_c, 0, 67, 76
2, 16500, Note_on_c, 0, 67, 0
2, 16500, Note_on_c, 0, 65, 75
2, 16545, Note_on_c, 0, 69, 75
2, 16559, Note_on_c, 0, 65, 0
2, 16560, Note_on_c, 0, 69, 0
2, 16560, Note_on_c, 0, 67, 75
2, 16620, Note_on_c, 0, 67, 0
2, 16620, Note_on_c, 0, 65, 75
2, 16679, Note_on_c, 0, 65, 0
2, 16680, Note_on_c, 0, 77, 75
2, 16709, Note_on_c, 0, 77, 0
2, 16710, Note_on_c, 0, 72, 75
2, 16739, Note_on_c, 0, 72, 0
2, 16740, Note_on_c, 0, 77, 75
2, 16769, Note_on_c, 0, 77, 0
2, 16770, Note_on_c, 0, 72, 75
2, 16799, Note_on_c, 0, 72, 0
2, 16800, Note_on_c, 0, 69, 75
2, 16859, Note_on_c, 0, 69, 0
2, 16905, Note_on_c, 0, 72, 75
2, 16920, Note_on_c, 0, 72, 0
2, 16920, Note_on_c, 0, 70, 75
2, 16979, Note_on_c, 0, 70, 0
2, 16980, Note_on_c, 0, 69, 75
2, 17025, Note_on_c, 0, 72, 75
2, 17039, Note_on_c, 0, 69, 0
2, 17040, Note_on_c, 0, 72, 0
2, 17040, Note_on_c, 0, 70, 74
2, 17099, Note_on_c, 0, 70, 0
2, 17100, Note_on_c, 0, 69, 74
2, 17159, Note_on_c, 0, 69, 0
2, 17160, Note_on_c, 0, 81, 73
2, 17189, Note_on_c, 0, 81, 0
2, 17190, Note_on_c, 0, 77, 73
2, 17219, Note_on_c, 0, 77, 0
2, 17220, Note_on_c, 0, 81, 73
2, 17249, Note_on_c, 0, 81, 0
2, 17250, Note_on_c, 0, 77, 72
2, 17279, Note_on_c, 0, 77, 0
2, 17280, Note_on_c, 0, 74, 72
2, 17339, Note_on_c, 0, 74, 0
2, 17340, Note_on_c, 0, 74, 72
2, 17399, Note_on_c, 0, 74, 0
2, 17400, Note_on_c, 0, 73, 71
2, 17429, Note_on_c, 0, 73, 0
2, 17430, Note_on_c, 0, 74, 71
2, 17459, Note_on_c, 0, 74, 0
2, 17460, Note_on_c, 0, 76, 71
2, 17489, Note_on_c, 0, 76, 0
2, 17490, Note_on_c, 0, 77, 71
2, 17519, Note_on_c, 0, 77, 0
2, 17520, Note_on_c, 0, 79, 71
2, 17579, Note_on_c, 0, 79, 0
2, 17580, Note_on_c, 0, 79, 71
2, 17639, Note_on_c, 0, 79, 0
2, 17640, Note_on_c, 0, 86, 71
2, 17669, Note_on_c, 0, 86, 0
2, 17670, Note_on_c, 0, 82, 71
2, 17699, Note_on_c, 0, 82, 0
2, 17700, Note_on_c, 0, 86, 71
2, 17729, Note_on_c, 0, 86, 0
2, 17730, Note_on_c, 0, 82, 71
2, 17759, Note_on_c, 0, 82, 0
2, 17760, Note_on_c, 0, 81, 71
2, 17789, Note_on_c, 0, 81, 0
2, 17790, Note_on_c, 0, 79, 71
2, 17819, Note_on_c, 0, 79, 0
2, 17820, Note_on_c, 0, 81, 71
2, 17849, Note_on_c, 0, 81, 0
2, 17850, Note_on_c, 0, 79, 71
2, 17879, Note_on_c, 0, 79, 0
2, 17880, Note_on_c, 0, 78, 71
2, 17909, Note_on_c, 0, 78, 0
2, 17910, Note_on_c, 0, 79, 71
2, 17939, Note_on_c, 0, 79, 0
2, 17940, Note_on_c, 0, 81, 71
2, 17969, Note_on_c, 0, 81, 0
2, 17970, Note_on_c, 0, 82, 71
2, 17999, Note_on_c, 0, 82, 0
2, 18000, Note_on_c, 0, 86, 71
2, 18029, Note_on_c, 0, 86, 0
2, 18030, Note_on_c, 0, 84, 71
2, 18059, Note_on_c, 0, 84, 0
2, 18060, Note_on_c, 0, 86, 71
2, 18089, Note_on_c, 0, 86, 0
2, 18090, Note_on_c, 0, 84, 71
2, 18119, Note_on_c, 0, 84, 0
2, 18120, Note_on_c, 0, 82, 71
2, 18149, Note_on_c, 0, 82, 0
2, 18150, Note_on_c, 0, 81, 71
2, 18179, Note_on_c, 0, 81, 0
2, 18180, Note_on_c, 0, 79, 71
2, 18209, Note_on_c, 0, 79, 0
2, 18210, Note_on_c, 0, 77, 72
2, 18239, Note_on_c, 0, 77, 0
2, 18240, Note_on_c, 0, 79, 72
2, 18299, Note_on_c, 0, 79, 0
2, 18300, Note_on_c, 0, 81, 73
2, 18329, Note_on_c, 0, 81, 0
2, 18330, Note_on_c, 0, 82, 73
2, 18359, Note_on_c, 0, 82, 0
2, 18360, Note_on_c, 0, 77, 73
2, 18419, Note_on_c, 0, 77, 0
2, 18420, Note_on_c, 0, 76, 73
2, 18479, Note_on_c, 0, 76, 0
2, 18480, Note_on_c, 0, 77, 75
2, 18539, Note_on_c, 0, 77, 0
2, 18540, Note_on_c, 0, 81, 79
2, 18599, Note_on_c, 0, 81, 0
2, 18600, Note_on_c, 0, 77, 83
2, 18659, Note_on_c, 0, 77, 0
2, 18660, Note_on_c, 0, 74, 87
2, 18719, Note_on_c, 0, 74, 0
2, 18720, Note_on_c, 0, 72, 91
2, 19019, Note_on_c, 0, 72, 0
2, 19020, Note_on_c, 0, 81, 71
2, 19079, Note_on_c, 0, 81, 0
2, 19080, Note_on_c, 0, 77, 71
2, 19139, Note_on_c, 0, 77, 0
2, 19140, Note_on_c, 0, 74, 71
2, 19199, Note_on_c, 0, 74, 0
2, 19200, Note_on_c, 0, 72, 71
2, 19499, Note_on_c, 0, 72, 0
2, 19500, Note_on_c, 0, 81, 74
2, 19559, Note_on_c, 0, 81, 0
2, 19560, Note_on_c, 0, 79, 75
2, 19589, Note_on_c, 0, 79, 0
2, 19590, Note_on_c, 0, 77, 76
2, 19619, Note_on_c, 0, 77, 0
2, 19620, Note_on_c, 0, 76, 77
2, 19649, Note_on_c, 0, 76, 0
2, 19650, Note_on_c, 0, 74, 78
2, 19679, Note_on_c, 0, 74, 0
2, 19680, Note_on_c, 0, 72, 79
2, 19709, Note_on_c, 0, 72, 0
2, 19710, Note_on_c, 0, 74, 79
2, 19739, Note_on_c, 0, 74, 0
2, 19740, Note_on_c, 0, 72, 80
2, 19769, Note_on_c, 0, 72, 0
2, 19770, Note_on_c, 0, 74, 81
2, 19799, Note_on_c, 0, 74, 0
2, 19800, Note_on_c, 0, 72, 82
2, 19829, Note_on_c, 0, 72, 0
2, 19830, Note_on_c, 0, 74, 82
2, 19859, Note_on_c, 0, 74, 0
2, 19860, Note_on_c, 0, 72, 83
2, 19889, Note_on_c, 0, 72, 0
2, 19890, Note_on_c, 0, 74, 83
2, 19919, Note_on_c, 0, 74, 0
2, 19920, Note_on_c, 0, 72, 84
2, 19949, Note_on_c, 0, 72, 0
2, 19950, Note_on_c, 0, 74, 84
2, 19979, Note_on_c, 0, 74, 0
2, 19980, Note_on_c, 0, 72, 84
2, 20009, Note_on_c, 0, 72, 0
2, 20010, Note_on_c, 0, 74, 84
2, 20039, Note_on_c, 0, 74, 0
2, 20040, Note_on_c, 0, 72, 85
2, 20069, Note_on_c, 0, 72, 0
2, 20070, Note_on_c, 0, 74, 85
2, 20099, Note_on_c, 0, 74, 0
2, 20100, Note_on_c, 0, 72, 86
2, 20129, Note_on_c, 0, 72, 0
2, 20130, Note_on_c, 0, 74, 87
2, 20159, Note_on_c, 0, 74, 0
2, 20160, Note_on_c, 0, 72, 88
2, 20189, Note_on_c, 0, 72, 0
2, 20190, Note_on_c, 0, 74, 89
2, 20219, Note_on_c, 0, 74, 0
2, 20220, Note_on_c, 0, 72, 89
2, 20249, Note_on_c, 0, 72, 0
2, 20250, Note_on_c, 0, 74, 90
2, 20279, Note_on_c, 0, 74, 0
2, 20280, Note_on_c, 0, 72, 91
2, 20309, Note_on_c, 0, 72, 0
2, 20310, Note_on_c, 0, 81, 92
2, 20339, Note_on_c, 0, 81, 0
2, 20340, Note_on_c, 0, 79, 93
2, 20369, Note_on_c, 0, 79, 0
2, 20370, Note_on_c, 0, 77, 95
2, 20399, Note_on_c, 0, 77, 0
2, 20400, Note_on_c, 0, 76, 96
2, 20429, Note_on_c, 0, 76, 0
2, 20430, Note_on_c, 0, 77, 97
2, 20459, Note_on_c, 0, 77, 0
2, 20460, Note_on_c, 0, 76, 97
2, 20489, Note_on_c, 0, 76, 0
2, 20490, Note_on_c, 0, 77, 98
2, 20519, Note_on_c, 0, 77, 0
2, 20520, Note_on_c, 0, 76, 99
2, 20549, Note_on_c, 0, 76, 0
2, 20550, Note_on_c, 0, 82, 100
2, 20579, Note_on_c, 0, 82, 0
2, 20580, Note_on_c, 0, 81, 101
2, 20609, Note_on_c, 0, 81, 0
2, 20610, Note_on_c, 0, 79, 102
2, 20639, Note_on_c, 0, 79, 0
2, 20640, Note_on_c, 0, 77, 103
2, 20753, Note_on_c, 0, 77, 0
2, 20880, Note_on_c, 0, 79, 110
2, 20880, Note_on_c, 0, 88, 110
2, 20880, Note_on_c, 0, 82, 110
2, 20993, Note_on_c, 0, 82, 0
2, 20993, Note_on_c, 0, 88, 0
2, 20993, Note_on_c, 0, 79, 0
2, 21120, Note_on_c, 0, 89, 120
2, 21120, Note_on_c, 0, 81, 120
2, 21233, Note_on_c, 0, 81, 0
2, 21233, Note_on_c, 0, 89, 0
2, 21360, Note_on_c, 0, 77, 110
2, 21480, Note_on_c, 0, 77, 110
2, 21484, Note_on_c, 0, 77, 0
2, 21539, Note_on_c, 0, 77, 0
2, 21540, Note_on_c, 0, 77, 110
2, 21599, Note_on_c, 0, 77, 0
2, 21600, Note_on_c, 0, 77, 110
2, 21629, Note_on_c, 0, 77, 0
2, 21630, Note_on_c, 0, 76, 110
2, 21659, Note_on_c, 0, 76, 0
2, 21660, Note_on_c, 0, 74, 110
2, 21689, Note_on_c, 0, 74, 0
2, 21690, Note_on_c, 0, 72, 110
2, 21719, Note_on_c, 0, 72, 0
2, 21720, Note_on_c, 0, 70, 110
2, 21749, Note_on_c, 0, 70, 0
2, 21750, Note_on_c, 0, 69, 110
2, 21779, Note_on_c, 0, 69, 0
2, 21780, Note_on_c, 0, 67, 110
2, 21809, Note_on_c, 0, 67, 0
2, 21810, Note_on_c, 0, 65, 110
2, 21839, Note_on_c, 0, 65, 0
2, 21840, Note_on_c, 0, 63, 110
2, 21899, Note_on_c, 0, 63, 0
2, 21900, Note_on_c, 0, 62, 73
2, 21929, Note_on_c, 0, 62, 0
2, 21930, Note_on_c, 0, 65, 73
2, 21959, Note_on_c, 0, 65, 0
2, 21960, Note_on_c, 0, 63, 73
2, 22019, Note_on_c, 0, 63, 0
2, 22020, Note_on_c, 0, 62, 73
2, 22049, Note_on_c, 0, 62, 0
2, 22050, Note_on_c, 0, 65, 72
2, 22079, Note_on_c, 0, 65, 0
2, 22080, Note_on_c, 0, 63, 72
2, 22193, Note_on_c, 0, 63, 0
2, 22320, Note_on_c, 0, 75, 110
2, 22440, Note_on_c, 0, 75, 110
2, 22443, Note_on_c, 0, 75, 0
2, 22499, Note_on_c, 0, 75, 0
2, 22500, Note_on_c, 0, 75, 110
2, 22559, Note_on_c, 0, 75, 0
2, 22560, Note_on_c, 0, 75, 110
2, 22589, Note_on_c, 0, 75, 0
2, 22590, Note_on_c, 0, 74, 110
2, 22619, Note_on_c, 0, 74, 0
2, 22620, Note_on_c, 0, 72, 110
2, 22649, Note_on_c, 0, 72, 0
2, 22650, Note_on_c, 0, 70, 110
2, 22679, Note_on_c, 0, 70, 0
2, 22680, Note_on_c, 0, 69, 110
2, 22709, Note_on_c, 0, 69, 0
2, 22710, Note_on_c, 0, 67, 110
2, 22739, Note_on_c, 0, 67, 0
2, 22740, Note_on_c, 0, 65, 110
2, 22769, Note_on_c, 0, 65, 0
2, 22770, Note_on_c, 0, 63, 110
2, 22799, Note_on_c, 0, 63, 0
2, 22800, Note_on_c, 0, 62, 110
2, 22859, Note_on_c, 0, 62, 0
2, 22860, Note_on_c, 0, 60, 67
2, 22889, Note_on_c, 0, 60, 0
2, 22890, Note_on_c, 0, 63, 67
2, 22919, Note_on_c, 0, 63, 0
2, 22920, Note_on_c, 0, 62, 67
2, 22979, Note_on_c, 0, 62, 0
2, 22980, Note_on_c, 0, 60, 67
2, 23009, Note_on_c, 0, 60, 0
2, 23010, Note_on_c, 0, 63, 67
2, 23039, Note_on_c, 0, 63, 0
2, 23040, Note_on_c, 0, 62, 67
2, 23153, Note_on_c, 0, 62, 0
2, 23280, Note_on_c, 0, 74, 69
2, 23339, Note_on_c, 0, 74, 0
2, 23340, Note_on_c, 0, 75, 69
2, 23369, Note_on_c, 0, 75, 0
2, 23370, Note_on_c, 0, 73, 69
2, 23399, Note_on_c, 0, 73, 0
2, 23400, Note_on_c, 0, 74, 69
2, 23459, Note_on_c, 0, 74, 0
2, 23460, Note_on_c, 0, 75, 69
2, 23489, Note_on_c, 0, 75, 0
2, 23490, Note_on_c, 0, 73, 68
2, 23519, Note_on_c, 0, 73, 0
2, 23520, Note_on_c, 0, 74, 68
2, 23579, Note_on_c, 0, 74, 0
2, 23580, Note_on_c, 0, 81, 68
2, 23639, Note_on_c, 0, 81, 0
2, 23640, Note_on_c, 0, 78, 68
2, 23699, Note_on_c, 0, 78, 0
2, 23700, Note_on_c, 0, 72, 67
2, 23759, Note_on_c, 0, 72, 0
2, 23760, Note_on_c, 0, 70, 66
2, 23819, Note_on_c, 0, 70, 0
2, 23820, Note_on_c, 0, 69, 66
2, 23849, Note_on_c, 0, 69, 0
2, 23850, Note_on_c, 0, 72, 66
2, 23879, Note_on_c, 0, 72, 0
2, 23880, Note_on_c, 0, 70, 66
2, 23939, Note_on_c, 0, 70, 0
2, 23940, Note_on_c, 0, 69, 66
2, 23969, Note_on_c, 0, 69, 0
2, 23970, Note_on_c, 0, 72, 67
2, 23999, Note_on_c, 0, 72, 0
2, 24000, Note_on_c, 0, 70, 67
2, 24125, Note_on_c, 0, 70, 0
2, 24240, Note_on_c, 0, 72, 69
2, 24299, Note_on_c, 0, 72, 0
2, 24300, Note_on_c, 0, 71, 69
2, 24329, Note_on_c, 0, 71, 0
2, 24330, Note_on_c, 0, 74, 69
2, 24359, Note_on_c, 0, 74, 0
2, 24360, Note_on_c, 0, 72, 69
2, 24419, Note_on_c, 0, 72, 0
2, 24420, Note_on_c, 0, 71, 69
2, 24449, Note_on_c, 0, 71, 0
2, 24450, Note_on_c, 0, 74, 69
2, 24479, Note_on_c, 0, 74, 0
2, 24480, Note_on_c, 0, 72, 69
2, 24539, Note_on_c, 0, 72, 0
2, 24540, Note_on_c, 0, 79, 69
2, 24599, Note_on_c, 0, 79, 0
2, 24600, Note_on_c, 0, 76, 69
2, 24659, Note_on_c, 0, 76, 0
2, 24660, Note_on_c, 0, 70, 69
2, 24719, Note_on_c, 0, 70, 0
2, 24720, Note_on_c, 0, 69, 69
2, 24779, Note_on_c, 0, 69, 0
2, 24780, Note_on_c, 0, 67, 69
2, 24809, Note_on_c, 0, 67, 0
2, 24810, Note_on_c, 0, 70, 69
2, 24839, Note_on_c, 0, 70, 0
2, 24840, Note_on_c, 0, 69, 69
2, 24899, Note_on_c, 0, 69, 0
2, 24900, Note_on_c, 0, 67, 69
2, 24929, Note_on_c, 0, 67, 0
2, 24930, Note_on_c, 0, 70, 69
2, 24959, Note_on_c, 0, 70, 0
2, 24960, Note_on_c, 0, 69, 69
2, 25197, Note_on_c, 0, 69, 0
2, 25200, Note_on_c, 0, 70, 73
2, 25259, Note_on_c, 0, 70, 0
2, 25260, Note_on_c, 0, 77, 73
2, 25319, Note_on_c, 0, 77, 0
2, 25320, Note_on_c, 0, 74, 73
2, 25379, Note_on_c, 0, 74, 0
2, 25380, Note_on_c, 0, 69, 73
2, 25439, Note_on_c, 0, 69, 0
2, 25440, Note_on_c, 0, 67, 73
2, 25680, Note_on_c, 0, 67, 0
2, 25680, Note_on_c, 0, 69, 78
2, 25739, Note_on_c, 0, 69, 0
2, 25740, Note_on_c, 0, 76, 80
2, 25799, Note_on_c, 0, 76, 0
2, 25800, Note_on_c, 0, 73, 81
2, 25859, Note_on_c, 0, 73, 0
2, 25860, Note_on_c, 0, 67, 82
2, 25919, Note_on_c, 0, 67, 0
2, 25920, Note_on_c, 0, 65, 82
2, 26160, Note_on_c, 0, 65, 0
2, 26220, Note_on_c, 0, 65, 86
2, 26279, Note_on_c, 0, 65, 0
2, 26280, Note_on_c, 0, 74, 87
2, 26339, Note_on_c, 0, 74, 0
2, 26340, Note_on_c, 0, 71, 88
2, 26399, Note_on_c, 0, 71, 0
2, 26400, Note_on_c, 0, 77, 89
2, 26459, Note_on_c, 0, 77, 0
2, 26460, Note_on_c, 0, 74, 90
2, 26519, Note_on_c, 0, 74, 0
2, 26520, Note_on_c, 0, 83, 91
2, 26579, Note_on_c, 0, 83, 0
2, 26580, Note_on_c, 0, 77, 93
2, 26639, Note_on_c, 0, 77, 0
2, 26640, Note_on_c, 0, 86, 95
2, 26699, Note_on_c, 0, 86, 0
2, 26700, Note_on_c, 0, 83, 97
2, 26759, Note_on_c, 0, 83, 0
2, 26760, Note_on_c, 0, 89, 99
2, 26819, Note_on_c, 0, 89, 0
2, 26820, Note_on_c, 0, 86, 100
2, 26879, Note_on_c, 0, 86, 0
2, 26880, Note_on_c, 0, 84, 102
2, 26939, Note_on_c, 0, 84, 0
2, 26940, Note_on_c, 0, 83, 103
2, 26999, Note_on_c, 0, 83, 0
2, 27000, Note_on_c, 0, 81, 106
2, 27059, Note_on_c, 0, 81, 0
2, 27060, Note_on_c, 0, 83, 107
2, 27119, Note_on_c, 0, 83, 0
2, 27120, Note_on_c, 0, 84, 108
2, 27179, Note_on_c, 0, 84, 0
2, 27240, Note_on_c, 0, 79, 105
2, 27269, Note_on_c, 0, 79, 0
2, 27270, Note_on_c, 0, 76, 105
2, 27299, Note_on_c, 0, 76, 0
2, 27300, Note_on_c, 0, 79, 105
2, 27329, Note_on_c, 0, 79, 0
2, 27330, Note_on_c, 0, 76, 105
2, 27359, Note_on_c, 0, 76, 0
2, 27360, Note_on_c, 0, 72, 105
2, 27419, Note_on_c, 0, 72, 0
2, 27480, Note_on_c, 0, 84, 105
2, 27509, Note_on_c, 0, 84, 0
2, 27510, Note_on_c, 0, 79, 105
2, 27539, Note_on_c, 0, 79, 0
2, 27540, Note_on_c, 0, 84, 105
2, 27569, Note_on_c, 0, 84, 0
2, 27570, Note_on_c, 0, 79, 105
2, 27599, Note_on_c, 0, 79, 0
2, 27600, Note_on_c, 0, 76, 105
2, 27659, Note_on_c, 0, 76, 0
2, 27720, Note_on_c, 0, 88, 105
2, 27749, Note_on_c, 0, 88, 0
2, 27750, Note_on_c, 0, 84, 105
2, 27779, Note_on_c, 0, 84, 0
2, 27780, Note_on_c, 0, 88, 105
2, 27809, Note_on_c, 0, 88, 0
2, 27810, Note_on_c, 0, 84, 105
2, 27839, Note_on_c, 0, 84, 0
2, 27840, Note_on_c, 0, 83, 105
2, 27899, Note_on_c, 0, 83, 0
2, 27900, Note_on_c, 0, 86, 105
2, 27959, Note_on_c, 0, 86, 0
2, 27960, Note_on_c, 0, 89, 105
2, 28019, Note_on_c, 0, 89, 0
2, 28020, Note_on_c, 0, 83, 105
2, 28079, Note_on_c, 0, 83, 0
2, 28080, Note_on_c, 0, 84, 105
2, 28139, Note_on_c, 0, 84, 0
2, 28200, Note_on_c, 0, 86, 105
2, 28229, Note_on_c, 0, 86, 0
2, 28230, Note_on_c, 0, 82, 105
2, 28259, Note_on_c, 0, 82, 0
2, 28260, Note_on_c, 0, 86, 105
2, 28289, Note_on_c, 0, 86, 0
2, 28290, Note_on_c, 0, 82, 105
2, 28319, Note_on_c, 0, 82, 0
2, 28320, Note_on_c, 0, 79, 105
2, 28379, Note_on_c, 0, 79, 0
2, 28440, Note_on_c, 0, 82, 104
2, 28469, Note_on_c, 0, 82, 0
2, 28470, Note_on_c, 0, 79, 104
2, 28499, Note_on_c, 0, 79, 0
2, 28500, Note_on_c, 0, 82, 104
2, 28529, Note_on_c, 0, 82, 0
2, 28530, Note_on_c, 0, 79, 104
2, 28559, Note_on_c, 0, 79, 0
2, 28560, Note_on_c, 0, 76, 104
2, 28619, Note_on_c, 0, 76, 0
2, 28680, Note_on_c, 0, 79, 101
2, 28709, Note_on_c, 0, 79, 0
2, 28710, Note_on_c, 0, 76, 100
2, 28739, Note_on_c, 0, 76, 0
2, 28740, Note_on_c, 0, 79, 99
2, 28769, Note_on_c, 0, 79, 0
2, 28770, Note_on_c, 0, 76, 98
2, 28799, Note_on_c, 0, 76, 0
2, 28800, Note_on_c, 0, 72, 97
2, 28859, Note_on_c, 0, 72, 0
2, 28920, Note_on_c, 0, 72, 90
2, 28949, Note_on_c, 0, 72, 0
2, 28950, Note_on_c, 0, 69, 86
2, 28979, Note_on_c, 0, 69, 0
2, 28980, Note_on_c, 0, 72, 85
2, 29009, Note_on_c, 0, 72, 0
2, 29010, Note_on_c, 0, 69, 83
2, 29039, Note_on_c, 0, 69, 0
2, 29040, Note_on_c, 0, 65, 81
2, 29099, Note_on_c, 0, 65, 0
2, 29145, Note_on_c, 0, 69, 76
2, 29160, Note_on_c, 0, 69, 0
2, 29160, Note_on_c, 0, 67, 76
2, 29220, Note_on_c, 0, 67, 0
2, 29220, Note_on_c, 0, 65, 75
2, 29265, Note_on_c, 0, 69, 75
2, 29279, Note_on_c, 0, 65, 0
2, 29280, Note_on_c, 0, 69, 0
2, 29280, Note_on_c, 0, 67, 75
2, 29340, Note_on_c, 0, 67, 0
2, 29340, Note_on_c, 0, 65, 75
2, 29399, Note_on_c, 0, 65, 0
2, 29400, Note_on_c, 0, 77, 75
2, 29429, Note_on_c, 0, 77, 0
2, 29430, Note_on_c, 0, 72, 75
2, 29459, Note_on_c, 0, 72, 0
2, 29460, Note_on_c, 0, 77, 75
2, 29489, Note_on_c, 0, 77, 0
2, 29490, Note_on_c, 0, 72, 75
2, 29519, Note_on_c, 0, 72, 0
2, 29520, Note_on_c, 0, 69, 75
2, 29579, Note_on_c, 0, 69, 0
2, 29625, Note_on_c, 0, 72, 75
2, 29640, Note_on_c, 0, 72, 0
2, 29640, Note_on_c, 0, 70, 75
2, 29699, Note_on_c, 0, 70, 0
2, 29700, Note_on_c, 0, 69, 75
2, 29745, Note_on_c, 0, 72, 75
2, 29759, Note_on_c, 0, 69, 0
2, 29760, Note_on_c, 0, 72, 0
2, 29760, Note_on_c, 0, 70, 74
2, 29819, Note_on_c, 0, 70, 0
2, 29820, Note_on_c, 0, 69, 74
2, 29879, Note_on_c, 0, 69, 0
2, 29880, Note_on_c, 0, 81, 73
2, 29909, Note_on_c, 0, 81, 0
2, 29910, Note_on_c, 0, 77, 73
2, 29939, Note_on_c, 0, 77, 0
2, 29940, Note_on_c, 0, 81, 73
2, 29969, Note_on_c, 0, 81, 0
2, 29970, Note_on_c, 0, 77, 72
2, 29999, Note_on_c, 0, 77, 0
2, 30000, Note_on_c, 0, 74, 72
2, 30059, Note_on_c, 0, 74, 0
2, 30060, Note_on_c, 0, 74, 72
2, 30119, Note_on_c, 0, 74, 0
2, 30120, Note_on_c, 0, 73, 71
2, 30149, Note_on_c, 0, 73, 0
2, 30150, Note_on_c, 0, 74, 71
2, 30179, Note_on_c, 0, 74, 0
2, 30180, Note_on_c, 0, 76, 71
2, 30209, Note_on_c, 0, 76, 0
2, 30210, Note_on_c, 0, 77, 71
2, 30239, Note_on_c, 0, 77, 0
2, 30240, Note_on_c, 0, 79, 71
2, 30299, Note_on_c, 0, 79, 0
2, 30300, Note_on_c, 0, 79, 71
2, 30359, Note_on_c, 0, 79, 0
2, 30360, Note_on_c, 0, 86, 71
2, 30389, Note_on_c, 0, 86, 0
2, 30390, Note_on_c, 0, 82, 71
2, 30419, Note_on_c, 0, 82, 0
2, 30420, Note_on_c, 0, 86, 71
2, 30449, Note_on_c, 0, 86, 0
2, 30450, Note_on_c, 0, 82, 71
2, 30479, Note_on_c, 0, 82, 0
2, 30480, Note_on_c, 0, 81, 71
2, 30509, Note_on_c, 0, 81, 0
2, 30510, Note_on_c, 0, 79, 71
2, 30539, Note_on_c, 0, 79, 0
2, 30540, Note_on_c, 0, 81, 71
2, 30569, Note_on_c, 0, 81, 0
2, 30570, Note_on_c, 0, 79, 71
2, 30599, Note_on_c, 0, 79, 0
2, 30600, Note_on_c, 0, 78, 71
2, 30629, Note_on_c, 0, 78, 0
2, 30630, Note_on_c, 0, 79, 71
2, 30659, Note_on_c, 0, 79, 0
2, 30660, Note_on_c, 0, 81, 71
2, 30689, Note_on_c, 0, 81, 0
2, 30690, Note_on_c, 0, 82, 71
2, 30719, Note_on_c, 0, 82, 0
2, 30720, Note_on_c, 0, 86, 71
2, 30749, Note_on_c, 0, 86, 0
2, 30750, Note_on_c, 0, 84, 71
2, 30779, Note_on_c, 0, 84, 0
2, 30780, Note_on_c, 0, 86, 71
2, 30809, Note_on_c, 0, 86, 0
2, 30810, Note_on_c, 0, 84, 71
2, 30839, Note_on_c, 0, 84, 0
2, 30840, Note_on_c, 0, 82, 71
2, 30869, Note_on_c, 0, 82, 0
2, 30870, Note_on_c, 0, 81, 71
2, 30899, Note_on_c, 0, 81, 0
2, 30900, Note_on_c, 0, 79, 71
2, 30929, Note_on_c, 0, 79, 0
2, 30930, Note_on_c, 0, 77, 72
2, 30959, Note_on_c, 0, 77, 0
2, 30960, Note_on_c, 0, 79, 72
2, 31019, Note_on_c, 0, 79, 0
2, 31020, Note_on_c, 0, 81, 73
2, 31049, Note_on_c, 0, 81, 0
2, 31050, Note_on_c, 0, 82, 73
2, 31079, Note_on_c, 0, 82, 0
2, 31080, Note_on_c, 0, 77, 73
2, 31139, Note_on_c, 0, 77, 0
2, 31140, Note_on_c, 0, 76, 73
2, 31199, Note_on_c, 0, 76, 0
2, 31200, Note_on_c, 0, 77, 75
2, 31259, Note_on_c, 0, 77, 0
2, 31260, Note_on_c, 0, 81, 79
2, 31319, Note_on_c, 0, 81, 0
2, 31320, Note_on_c, 0, 77, 83
2, 31379, Note_on_c, 0, 77, 0
2, 31380, Note_on_c, 0, 74, 87
2, 31439, Note_on_c, 0, 74, 0
2, 31440, Note_on_c, 0, 72, 91
2, 31739, Note_on_c, 0, 72, 0
2, 31740, Note_on_c, 0, 81, 71
2, 31799, Note_on_c, 0, 81, 0
2, 31800, Note_on_c, 0, 77, 71
2, 31859, Note_on_c, 0, 77, 0
2, 31860, Note_on_c, 0, 74, 71
2, 31919, Note_on_c, 0, 74, 0
2, 31920, Note_on_c, 0, 72, 71
2, 32219, Note_on_c, 0, 72, 0
2, 32220, Note_on_c, 0, 81, 74
2, 32279, Note_on_c, 0, 81, 0
2, 32280, Note_on_c, 0, 79, 75
2, 32309, Note_on_c, 0, 79, 0
2, 32310, Note_on_c, 0, 77, 76
2, 32339, Note_on_c, 0, 77, 0
2, 32340, Note_on_c, 0, 76, 77
2, 32369, Note_on_c, 0, 76, 0
2, 32370, Note_on_c, 0, 74, 78
2, 32399, Note_on_c, 0, 74, 0
2, 32400, Note_on_c, 0, 72, 79
2, 32429, Note_on_c, 0, 72, 0
2, 32430, Note_on_c, 0, 74, 79
2, 32459, Note_on_c, 0, 74, 0
2, 32460, Note_on_c, 0, 72, 80
2, 32489, Note_on_c, 0, 72, 0
2, 32490, Note_on_c, 0, 74, 81
2, 32519, Note_on_c, 0, 74, 0
2, 32520, Note_on_c, 0, 72, 82
2, 32549, Note_on_c, 0, 72, 0
2, 32550, Note_on_c, 0, 74, 82
2, 32579, Note_on_c, 0, 74, 0
2, 32580, Note_on_c, 0, 72, 83
2, 32609, Note_on_c, 0, 72, 0
2, 32610, Note_on_c, 0, 74, 83
2, 32639, Note_on_c, 0, 74, 0
2, 32640, Note_on_c, 0, 72, 84
2, 32669, Note_on_c, 0, 72, 0
2, 32670, Note_on_c, 0, 74, 84
2, 32699, Note_on_c, 0, 74, 0
2, 32700, Note_on_c, 0, 72, 84
2, 32729, Note_on_c, 0, 72, 0
2, 32730, Note_on_c, 0, 74, 84
2, 32759, Note_on_c, 0, 74, 0
2, 32760, Note_on_c, 0, 72, 85
2, 32789, Note_on_c, 0, 72, 0
2, 32790, Note_on_c, 0, 74, 85
2, 32819, Note_on_c, 0, 74, 0
2, 32820, Note_on_c, 0, 72, 86
2, 32849, Note_on_c, 0, 72, 0
2, 32850, Note_on_c, 0, 74, 87
2, 32879, Note_on_c, 0, 74, 0
2, 32880, Note_on_c, 0, 72, 88
2, 32909, Note_on_c, 0, 72, 0
2, 32910, Note_on_c, 0, 74, 89
2, 32939, Note_on_c, 0, 74, 0
2, 32940, Note_on_c, 0, 72, 89
2, 32969, Note_on_c, 0, 72, 0
2, 32970, Note_on_c, 0, 74, 90
2, 32999, Note_on_c, 0, 74, 0
2, 33000, Note_on_c, 0, 72, 91
2, 33029, Note_on_c, 0, 72, 0
2, 33030, Note_on_c, 0, 81, 92
2, 33059, Note_on_c, 0, 81, 0
2, 33060, Note_on_c, 0, 79, 93
2, 33089, Note_on_c, 0, 79, 0
2, 33090, Note_on_c, 0, 77, 95
2, 33119, Note_on_c, 0, 77, 0
2, 33120, Note_on_c, 0, 76, 96
2, 33149, Note_on_c, 0, 76, 0
2, 33150, Note_on_c, 0, 77, 97
2, 33179, Note_on_c, 0, 77, 0
2, 33180, Note_on_c, 0, 76, 97
2, 33209, Note_on_c, 0, 76, 0
2, 33210, Note_on_c, 0, 77, 98
2, 33239, Note_on_c, 0, 77, 0
2, 33240, Note_on_c, 0, 76, 99
2, 33269, Note_on_c, 0, 76, 0
2, 33270, Note_on_c, 0, 82, 100
2, 33299, Note_on_c, 0, 82, 0
2, 33300, Note_on_c, 0, 81, 101
2, 33329, Note_on_c, 0, 81, 0
2, 33330, Note_on_c, 0, 79, 102
2, 33359, Note_on_c, 0, 79, 0
2, 33360, Note_on_c, 0, 77, 103
2, 33473, Note_on_c, 0, 77, 0
2, 33600, Note_on_c, 0, 79, 110
2, 33600, Note_on_c, 0, 88, 110
2, 33600, Note_on_c, 0, 82, 110
2, 33713, Note_on_c, 0, 82, 0
2, 33713, Note_on_c, 0, 88, 0
2, 33713, Note_on_c, 0, 79, 0
2, 33840, Note_on_c, 0, 89, 120
2, 33840, Note_on_c, 0, 81, 120
2, 33953, Note_on_c, 0, 81, 0
2, 33953, Note_on_c, 0, 89, 0
2, 34800, Note_on_c, 0, 72, 72
2, 34860, Note_on_c, 0, 72, 0
2, 34860, Note_on_c, 0, 77, 71
2, 34920, Note_on_c, 0, 77, 0
2, 34920, Note_on_c, 0, 71, 71
2, 34980, Note_on_c, 0, 71, 0
2, 34980, Note_on_c, 0, 77, 71
2, 35040, Note_on_c, 0, 77, 0
2, 35040, Note_on_c, 0, 72, 77
2, 35219, Note_on_c, 0, 72, 0
2, 35220, Note_on_c, 0, 73, 94
2, 35279, Note_on_c, 0, 73, 0
2, 35280, Note_on_c, 0, 74, 66
2, 35336, Note_on_c, 0, 74, 0
2, 35340, Note_on_c, 0, 77, 66
2, 35396, Note_on_c, 0, 77, 0
2, 35400, Note_on_c, 0, 73, 66
2, 35456, Note_on_c, 0, 73, 0
2, 35460, Note_on_c, 0, 77, 67
2, 35516, Note_on_c, 0, 77, 0
2, 35520, Note_on_c, 0, 74, 68
2, 35700, Note_on_c, 0, 79, 97
2, 35701, Note_on_c, 0, 74, 0
2, 35714, Note_on_c, 0, 79, 0
2, 35715, Note_on_c, 0, 77, 97
2, 35729, Note_on_c, 0, 77, 0
2, 35730, Note_on_c, 0, 76, 97
2, 35744, Note_on_c, 0, 76, 0
2, 35745, Note_on_c, 0, 77, 97
2, 35759, Note_on_c, 0, 77, 0
2, 35760, Note_on_c, 0, 76, 98
2, 35819, Note_on_c, 0, 76, 0
2, 35820, Note_on_c, 0, 84, 100
2, 35879, Note_on_c, 0, 84, 0
2, 35880, Note_on_c, 0, 84, 101
2, 35936, Note_on_c, 0, 84, 0
2, 35940, Note_on_c, 0, 84, 103
2, 35996, Note_on_c, 0, 84, 0
2, 36000, Note_on_c, 0, 84, 107
2, 36120, Note_on_c, 0, 84, 0
2, 36120, Note_on_c, 0, 81, 104
2, 36149, Note_on_c, 0, 81, 0
2, 36150, Note_on_c, 0, 77, 103
2, 36179, Note_on_c, 0, 77, 0
2, 36180, Note_on_c, 0, 81, 103
2, 36209, Note_on_c, 0, 81, 0
2, 36210, Note_on_c, 0, 84, 103
2, 36239, Note_on_c, 0, 84, 0
2, 36240, Note_on_c, 0, 82, 103
2, 36299, Note_on_c, 0, 82, 0
2, 36300, Note_on_c, 0, 79, 103
2, 36329, Note_on_c, 0, 79, 0
2, 36330, Note_on_c, 0, 82, 103
2, 36359, Note_on_c, 0, 82, 0
2, 36360, Note_on_c, 0, 81, 103
2, 36419, Note_on_c, 0, 81, 0
2, 36420, Note_on_c, 0, 77, 103
2, 36449, Note_on_c, 0, 77, 0
2, 36450, Note_on_c, 0, 81, 103
2, 36479, Note_on_c, 0, 81, 0
2, 36480, Note_on_c, 0, 79, 101
2, 36539, Note_on_c, 0, 79, 0
2, 36540, Note_on_c, 0, 81, 99
2, 36569, Note_on_c, 0, 81, 0
2, 36570, Note_on_c, 0, 79, 99
2, 36599, Note_on_c, 0, 79, 0
2, 36600, Note_on_c, 0, 77, 97
2, 36629, Note_on_c, 0, 77, 0
2, 36630, Note_on_c, 0, 76, 97
2, 36659, Note_on_c, 0, 76, 0
2, 36660, Note_on_c, 0, 74, 96
2, 36689, Note_on_c, 0, 74, 0
2, 36690, Note_on_c, 0, 72, 94
2, 36719, Note_on_c, 0, 72, 0
2, 36720, Note_on_c, 0, 72, 93
2, 36776, Note_on_c, 0, 72, 0
2, 36780, Note_on_c, 0, 77, 88
2, 36836, Note_on_c, 0, 77, 0
2, 36840, Note_on_c, 0, 71, 84
2, 36896, Note_on_c, 0, 71, 0
2, 36900, Note_on_c, 0, 77, 80
2, 36956, Note_on_c, 0, 77, 0
2, 36960, Note_on_c, 0, 72, 73
2, 37140, Note_on_c, 0, 72, 0
2, 37140, Note_on_c, 0, 73, 65
2, 37200, Note_on_c, 0, 73, 0
2, 37200, Note_on_c, 0, 74, 65
2, 37256, Note_on_c, 0, 74, 0
2, 37260, Note_on_c, 0, 77, 67
2, 37316, Note_on_c, 0, 77, 0
2, 37320, Note_on_c, 0, 73, 70
2, 37376, Note_on_c, 0, 73, 0
2, 37380, Note_on_c, 0, 77, 80
2, 37436, Note_on_c, 0, 77, 0
2, 37440, Note_on_c, 0, 74, 95
2, 37620, Note_on_c, 0, 74, 0
2, 37620, Note_on_c, 0, 79, 106
2, 37634, Note_on_c, 0, 79, 0
2, 37635, Note_on_c, 0, 77, 107
2, 37649, Note_on_c, 0, 77, 0
2, 37650, Note_on_c, 0, 76, 107
2, 37664, Note_on_c, 0, 76, 0
2, 37665, Note_on_c, 0, 77, 107
2, 37679, Note_on_c, 0, 77, 0
2, 37680, Note_on_c, 0, 76, 108
2, 37739, Note_on_c, 0, 76, 0
2, 37740, Note_on_c, 0, 84, 109
2, 37799, Note_on_c, 0, 84, 0
2, 37800, Note_on_c, 0, 84, 110
2, 37856, Note_on_c, 0, 84, 0
2, 37860, Note_on_c, 0, 84, 110
2, 37916, Note_on_c, 0, 84, 0
2, 37920, Note_on_c, 0, 84, 110
2, 38040, Note_on_c, 0, 82, 110
2, 38043, Note_on_c, 0, 84, 0
2, 38069, Note_on_c, 0, 82, 0
2, 38070, Note_on_c, 0, 81, 110
2, 38099, Note_on_c, 0, 81, 0
2, 38100, Note_on_c, 0, 79, 110
2, 38129, Note_on_c, 0, 79, 0
2, 38130, Note_on_c, 0, 77, 110
2, 38159, Note_on_c, 0, 77, 0
2, 38160, Note_on_c, 0, 79, 110
2, 38219, Note_on_c, 0, 79, 0
2, 38220, Note_on_c, 0, 79, 110
2, 38249, Note_on_c, 0, 79, 0
2, 38250, Note_on_c, 0, 82, 110
2, 38279, Note_on_c, 0, 82, 0
2, 38280, Note_on_c, 0, 76, 109
2, 38339, Note_on_c, 0, 76, 0
2, 38340, Note_on_c, 0, 76, 108
2, 38369, Note_on_c, 0, 76, 0
2, 38370, Note_on_c, 0, 79, 107
2, 38399, Note_on_c, 0, 79, 0
2, 38400, Note_on_c, 0, 77, 107
2, 38521, Note_on_c, 0, 77, 0
2, 38640, Note_on_c, 0, 72, 72
2, 38700, Note_on_c, 0, 72, 0
2, 38700, Note_on_c, 0, 77, 71
2, 38760, Note_on_c, 0, 77, 0
2, 38760, Note_on_c, 0, 71, 71
2, 38820, Note_on_c, 0, 71, 0
2, 38820, Note_on_c, 0, 77, 71
2, 38880, Note_on_c, 0, 77, 0
2, 38880, Note_on_c, 0, 72, 77
2, 39059, Note_on_c, 0, 72, 0
2, 39060, Note_on_c, 0, 73, 94
2, 39119, Note_on_c, 0, 73, 0
2, 39120, Note_on_c, 0, 74, 66
2, 39176, Note_on_c, 0, 74, 0
2, 39180, Note_on_c, 0, 77, 66
2, 39236, Note_on_c, 0, 77, 0
2, 39240, Note_on_c, 0, 73, 66
2, 39296, Note_on_c, 0, 73, 0
2, 39300, Note_on_c, 0, 77, 67
2, 39356, Note_on_c, 0, 77, 0
2, 39360, Note_on_c, 0, 74, 68
2, 39540, Note_on_c, 0, 79, 97
2, 39541, Note_on_c, 0, 74, 0
2, 39554, Note_on_c, 0, 79, 0
2, 39555, Note_on_c, 0, 77, 97
2, 39569, Note_on_c, 0, 77, 0
2, 39570, Note_on_c, 0, 76, 97
2, 39584, Note_on_c, 0, 76, 0
2, 39585, Note_on_c, 0, 77, 97
2, 39599, Note_on_c, 0, 77, 0
2, 39600, Note_on_c, 0, 76, 98
2, 39659, Note_on_c, 0, 76, 0
2, 39660, Note_on_c, 0, 84, 100
2, 39719, Note_on_c, 0, 84, 0
2, 39720, Note_on_c, 0, 84, 101
2, 39776, Note_on_c, 0, 84, 0
2, 39780, Note_on_c, 0, 84, 103
2, 39836, Note_on_c, 0, 84, 0
2, 39840, Note_on_c, 0, 84, 107
2, 39960, Note_on_c, 0, 84, 0
2, 39960, Note_on_c, 0, 81, 104
2, 39989, Note_on_c, 0, 81, 0
2, 39990, Note_on_c, 0, 77, 103
2, 40019, Note_on_c, 0, 77, 0
2, 40020, Note_on_c, 0, 81, 103
2, 40049, Note_on_c, 0, 81, 0
2, 40050, Note_on_c, 0, 84, 103
2, 40079, Note_on_c, 0, 84, 0
2, 40080, Note_on_c, 0, 82, 103
2, 40139, Note_on_c, 0, 82, 0
2, 40140, Note_on_c, 0, 79, 103
2, 40169, Note_on_c, 0, 79, 0
2, 40170, Note_on_c, 0, 82, 103
2, 40199, Note_on_c, 0, 82, 0
2, 40200, Note_on_c, 0, 81, 103
2, 40259, Note_on_c, 0, 81, 0
2, 40260, Note_on_c, 0, 77, 103
2, 40289, Note_on_c, 0, 77, 0
2, 40290, Note_on_c, 0, 81, 103
2, 40319, Note_on_c, 0, 81, 0
2, 40320, Note_on_c, 0, 79, 101
2, 40379, Note_on_c, 0, 79, 0
2, 40380, Note_on_c, 0, 81, 99
2, 40409, Note_on_c, 0, 81, 0
2, 40410, Note_on_c, 0, 79, 99
2, 40439, Note_on_c, 0, 79, 0
2, 40440, Note_on_c, 0, 77, 97
2, 40469, Note_on_c, 0, 77, 0
2, 40470, Note_on_c, 0, 76, 97
2, 40499, Note_on_c, 0, 76, 0
2, 40500, Note_on_c, 0, 74, 96
2, 40529, Note_on_c, 0, 74, 0
2, 40530, Note_on_c, 0, 72, 94
2, 40559, Note_on_c, 0, 72, 0
2, 40560, Note_on_c, 0, 72, 93
2, 40616, Note_on_c, 0, 72, 0
2, 40620, Note_on_c, 0, 77, 88
2, 40676, Note_on_c, 0, 77, 0
2, 40680, Note_on_c, 0, 71, 84
2, 40736, Note_on_c, 0, 71, 0
2, 40740, Note_on_c, 0, 77, 80
2, 40796, Note_on_c, 0, 77, 0
2, 40800, Note_on_c, 0, 72, 73
2, 40980, Note_on_c, 0, 72, 0
2, 40980, Note_on_c, 0, 73, 65
2, 41040, Note_on_c, 0, 73, 0
2, 41040, Note_on_c, 0, 74, 65
2, 41096, Note_on_c, 0, 74, 0
2, 41100, Note_on_c, 0, 77, 67
2, 41156, Note_on_c, 0, 77, 0
2, 41160, Note_on_c, 0, 73, 70
2, 41216, Note_on_c, 0, 73, 0
2, 41220, Note_on_c, 0, 77, 80
2, 41276, Note_on_c, 0, 77, 0
2, 41280, Note_on_c, 0, 74, 95
2, 41460, Note_on_c, 0, 74, 0
2, 41460, Note_on_c, 0, 79, 106
2, 41474, Note_on_c, 0, 79, 0
2, 41475, Note_on_c, 0, 77, 107
2, 41489, Note_on_c, 0, 77, 0
2, 41490, Note_on_c, 0, 76, 107
2, 41504, Note_on_c, 0, 76, 0
2, 41505, Note_on_c, 0, 77, 107
2, 41519, Note_on_c, 0, 77, 0
2, 41520, Note_on_c, 0, 76, 108
2, 41579, Note_on_c, 0, 76, 0
2, 41580, Note_on_c, 0, 84, 109
2, 41639, Note_on_c, 0, 84, 0
2, 41640, Note_on_c, 0, 84, 110
2, 41696, Note_on_c, 0, 84, 0
2, 41700, Note_on_c, 0, 84, 110
2, 41756, Note_on_c, 0, 84, 0
2, 41760, Note_on_c, 0, 84, 110
2, 41880, Note_on_c, 0, 82, 110
2, 41883, Note_on_c, 0, 84, 0
2, 41909, Note_on_c, 0, 82, 0
2, 41910, Note_on_c, 0, 81, 110
2, 41939, Note_on_c, 0, 81, 0
2, 41940, Note_on_c, 0, 79, 110
2, 41969, Note_on_c, 0, 79, 0
2, 41970, Note_on_c, 0, 77, 110
2, 41999, Note_on_c, 0, 77, 0
2, 42000, Note_on_c, 0, 79, 110
2, 42059, Note_on_c, 0, 79, 0
2, 42060, Note_on_c, 0, 79, 110
2, 42089, Note_on_c, 0, 79, 0
2, 42090, Note_on_c, 0, 82, 110
2, 42119, Note_on_c, 0, 82, 0
2, 42120, Note_on_c, 0, 76, 109
2, 42179, Note_on_c, 0, 76, 0
2, 42180, Note_on_c, 0, 76, 108
2, 42209, Note_on_c, 0, 76, 0
2, 42210, Note_on_c, 0, 79, 107
2, 42239, Note_on_c, 0, 79, 0
2, 42240, Note_on_c, 0, 77, 107
2, 42361, Note_on_c, 0, 77, 0
2, 42480, Note_on_c, 0, 79, 70
2, 42536, Note_on_c, 0, 79, 0
2, 42540, Note_on_c, 0, 79, 70
2, 42596, Note_on_c, 0, 79, 0
2, 42600, Note_on_c, 0, 78, 70
2, 42656, Note_on_c, 0, 78, 0
2, 42660, Note_on_c, 0, 78, 70
2, 42716, Note_on_c, 0, 78, 0
2, 42720, Note_on_c, 0, 79, 70
2, 42779, Note_on_c, 0, 79, 0
2, 42780, Note_on_c, 0, 81, 70
2, 42809, Note_on_c, 0, 81, 0
2, 42810, Note_on_c, 0, 83, 70
2, 42839, Note_on_c, 0, 83, 0
2, 42840, Note_on_c, 0, 84, 70
2, 42869, Note_on_c, 0, 84, 0
2, 42870, Note_on_c, 0, 83, 70
2, 42899, Note_on_c, 0, 83, 0
2, 42900, Note_on_c, 0, 81, 70
2, 42929, Note_on_c, 0, 81, 0
2, 42930, Note_on_c, 0, 79, 70
2, 42959, Note_on_c, 0, 79, 0
2, 42960, Note_on_c, 0, 77, 70
2, 43016, Note_on_c, 0, 77, 0
2, 43020, Note_on_c, 0, 77, 70
2, 43076, Note_on_c, 0, 77, 0
2, 43080, Note_on_c, 0, 76, 70
2, 43136, Note_on_c, 0, 76, 0
2, 43140, Note_on_c, 0, 76, 70
2, 43196, Note_on_c, 0, 76, 0
2, 43200, Note_on_c, 0, 77, 70
2, 43259, Note_on_c, 0, 77, 0
2, 43260, Note_on_c, 0, 83, 70
2, 43289, Note_on_c, 0, 83, 0
2, 43290, Note_on_c, 0, 84, 70
2, 43319, Note_on_c, 0, 84, 0
2, 43320, Note_on_c, 0, 86, 70
2, 43349, Note_on_c, 0, 86, 0
2, 43350, Note_on_c, 0, 83, 70
2, 43379, Note_on_c, 0, 83, 0
2, 43380, Note_on_c, 0, 79, 70
2, 43409, Note_on_c, 0, 79, 0
2, 43410, Note_on_c, 0, 77, 70
2, 43439, Note_on_c, 0, 77, 0
2, 43440, Note_on_c, 0, 76, 70
2, 43469, Note_on_c, 0, 76, 0
2, 43470, Note_on_c, 0, 79, 70
2, 43499, Note_on_c, 0, 79, 0
2, 43500, Note_on_c, 0, 81, 70
2, 43529, Note_on_c, 0, 81, 0
2, 43530, Note_on_c, 0, 79, 70
2, 43559, Note_on_c, 0, 79, 0
2, 43560, Note_on_c, 0, 84, 70
2, 43589, Note_on_c, 0, 84, 0
2, 43590, Note_on_c, 0, 83, 70
2, 43619, Note_on_c, 0, 83, 0
2, 43620, Note_on_c, 0, 81, 70
2, 43649, Note_on_c, 0, 81, 0
2, 43650, Note_on_c, 0, 79, 70
2, 43679, Note_on_c, 0, 79, 0
2, 43680, Note_on_c, 0, 77, 70
2, 43709, Note_on_c, 0, 77, 0
2, 43710, Note_on_c, 0, 83, 70
2, 43739, Note_on_c, 0, 83, 0
2, 43740, Note_on_c, 0, 86, 70
2, 43769, Note_on_c, 0, 86, 0
2, 43770, Note_on_c, 0, 84, 70
2, 43799, Note_on_c, 0, 84, 0
2, 43800, Note_on_c, 0, 83, 70
2, 43829, Note_on_c, 0, 83, 0
2, 43830, Note_on_c, 0, 81, 70
2, 43859, Note_on_c, 0, 81, 0
2, 43860, Note_on_c, 0, 79, 70
2, 43889, Note_on_c, 0, 79, 0
2, 43890, Note_on_c, 0, 77, 70
2, 43919, Note_on_c, 0, 77, 0
2, 43920, Note_on_c, 0, 76, 70
2, 43949, Note_on_c, 0, 76, 0
2, 43950, Note_on_c, 0, 79, 70
2, 43979, Note_on_c, 0, 79, 0
2, 43980, Note_on_c, 0, 81, 70
2, 44009, Note_on_c, 0, 81, 0
2, 44010, Note_on_c, 0, 79, 70
2, 44039, Note_on_c, 0, 79, 0
2, 44040, Note_on_c, 0, 84, 70
2, 44069, Note_on_c, 0, 84, 0
2, 44070, Note_on_c, 0, 83, 70
2, 44099, Note_on_c, 0, 83, 0
2, 44100, Note_on_c, 0, 81, 70
2, 44129, Note_on_c, 0, 81, 0
2, 44130, Note_on_c, 0, 79, 70
2, 44159, Note_on_c, 0, 79, 0
2, 44160, Note_on_c, 0, 77, 70
2, 44189, Note_on_c, 0, 77, 0
2, 44190, Note_on_c, 0, 83, 70
2, 44219, Note_on_c, 0, 83, 0
2, 44220, Note_on_c, 0, 86, 70
2, 44249, Note_on_c, 0, 86, 0
2, 44250, Note_on_c, 0, 84, 70
2, 44279, Note_on_c, 0, 84, 0
2, 44280, Note_on_c, 0, 83, 70
2, 44309, Note_on_c, 0, 83, 0
2, 44310, Note_on_c, 0, 81, 70
2, 44339, Note_on_c, 0, 81, 0
2, 44340, Note_on_c, 0, 79, 70
2, 44369, Note_on_c, 0, 79, 0
2, 44370, Note_on_c, 0, 77, 70
2, 44399, Note_on_c, 0, 77, 0
2, 44400, Note_on_c, 0, 76, 70
2, 44429, Note_on_c, 0, 76, 0
2, 44430, Note_on_c, 0, 84, 70
2, 44459, Note_on_c, 0, 84, 0
2, 44460, Note_on_c, 0, 79, 70
2, 44489, Note_on_c, 0, 79, 0
2, 44490, Note_on_c, 0, 76, 70
2, 44519, Note_on_c, 0, 76, 0
2, 44520, Note_on_c, 0, 74, 70
2, 44549, Note_on_c, 0, 74, 0
2, 44550, Note_on_c, 0, 81, 70
2, 44579, Note_on_c, 0, 81, 0
2, 44580, Note_on_c, 0, 77, 70
2, 44609, Note_on_c, 0, 77, 0
2, 44610, Note_on_c, 0, 74, 70
2, 44639, Note_on_c, 0, 74, 0
2, 44640, Note_on_c, 0, 72, 70
2, 44669, Note_on_c, 0, 72, 0
2, 44670, Note_on_c, 0, 79, 70
2, 44699, Note_on_c, 0, 79, 0
2, 44700, Note_on_c, 0, 76, 70
2, 44729, Note_on_c, 0, 76, 0
2, 44730, Note_on_c, 0, 72, 70
2, 44759, Note_on_c, 0, 72, 0
2, 44760, Note_on_c, 0, 71, 70
2, 44789, Note_on_c, 0, 71, 0
2, 44790, Note_on_c, 0, 77, 70
2, 44819, Note_on_c, 0, 77, 0
2, 44820, Note_on_c, 0, 74, 70
2, 44849, Note_on_c, 0, 74, 0
2, 44850, Note_on_c, 0, 71, 70
2, 44879, Note_on_c, 0, 71, 0
2, 44880, Note_on_c, 0, 72, 70
2, 44939, Note_on_c, 0, 72, 0
2, 44940, Note_on_c, 0, 60, 70
2, 44969, Note_on_c, 0, 60, 0
2, 44970, Note_on_c, 0, 61, 70
2, 44999, Note_on_c, 0, 61, 0
2, 45000, Note_on_c, 0, 62, 70
2, 45029, Note_on_c, 0, 62, 0
2, 45030, Note_on_c, 0, 63, 70
2, 45059, Note_on_c, 0, 63, 0
2, 45060, Note_on_c, 0, 64, 70
2, 45089, Note_on_c, 0, 64, 0
2, 45090, Note_on_c, 0, 65, 70
2, 45119, Note_on_c, 0, 65, 0
2, 45120, Note_on_c, 0, 66, 70
2, 45149, Note_on_c, 0, 66, 0
2, 45150, Note_on_c, 0, 67, 70
2, 45179, Note_on_c, 0, 67, 0
2, 45180, Note_on_c, 0, 68, 70
2, 45209, Note_on_c, 0, 68, 0
2, 45210, Note_on_c, 0, 69, 70
2, 45239, Note_on_c, 0, 69, 0
2, 45240, Note_on_c, 0, 70, 70
2, 45269, Note_on_c, 0, 70, 0
2, 45270, Note_on_c, 0, 71, 71
2, 45299, Note_on_c, 0, 71, 0
2, 45300, Note_on_c, 0, 72, 72
2, 45329, Note_on_c, 0, 72, 0
2, 45330, Note_on_c, 0, 71, 73
2, 45359, Note_on_c, 0, 71, 0
2, 45360, Note_on_c, 0, 72, 74
2, 45416, Note_on_c, 0, 72, 0
2, 45420, Note_on_c, 0, 77, 76
2, 45476, Note_on_c, 0, 77, 0
2, 45480, Note_on_c, 0, 71, 77
2, 45536, Note_on_c, 0, 71, 0
2, 45540, Note_on_c, 0, 77, 77
2, 45596, Note_on_c, 0, 77, 0
2, 45600, Note_on_c, 0, 72, 77
2, 45780, Note_on_c, 0, 72, 0
2, 45780, Note_on_c, 0, 73, 76
2, 45840, Note_on_c, 0, 73, 0
2, 45840, Note_on_c, 0, 74, 76
2, 45896, Note_on_c, 0, 74, 0
2, 45900, Note_on_c, 0, 77, 76
2, 45956, Note_on_c, 0, 77, 0
2, 45960, Note_on_c, 0, 73, 76
2, 46016, Note_on_c, 0, 73, 0
2, 46020, Note_on_c, 0, 77, 76
2, 46076, Note_on_c, 0, 77, 0
2, 46080, Note_on_c, 0, 74, 76
2, 46260, Note_on_c, 0, 79, 76
2, 46263, Note_on_c, 0, 74, 0
2, 46274, Note_on_c, 0, 79, 0
2, 46275, Note_on_c, 0, 77, 76
2, 46289, Note_on_c, 0, 77, 0
2, 46290, Note_on_c, 0, 76, 76
2, 46304, Note_on_c, 0, 76, 0
2, 46305, Note_on_c, 0, 77, 76
2, 46319, Note_on_c, 0, 77, 0
2, 46320, Note_on_c, 0, 76, 76
2, 46379, Note_on_c, 0, 76, 0
2, 46380, Note_on_c, 0, 84, 75
2, 46439, Note_on_c, 0, 84, 0
2, 46440, Note_on_c, 0, 84, 75
2, 46496, Note_on_c, 0, 84, 0
2, 46500, Note_on_c, 0, 84, 75
2, 46556, Note_on_c, 0, 84, 0
2, 46560, Note_on_c, 0, 84, 75
2, 46680, Note_on_c, 0, 82, 75
2, 46685, Note_on_c, 0, 84, 0
2, 46709, Note_on_c, 0, 82, 0
2, 46710, Note_on_c, 0, 81, 75
2, 46739, Note_on_c, 0, 81, 0
2, 46740, Note_on_c, 0, 79, 75
2, 46769, Note_on_c, 0, 79, 0
2, 46770, Note_on_c, 0, 77, 75
2, 46799, Note_on_c, 0, 77, 0
2, 46800, Note_on_c, 0, 79, 75
2, 46859, Note_on_c, 0, 79, 0
2, 46860, Note_on_c, 0, 79, 75
2, 46889, Note_on_c, 0, 79, 0
2, 46890, Note_on_c, 0, 82, 75
2, 46919, Note_on_c, 0, 82, 0
2, 46920, Note_on_c, 0, 76, 75
2, 46979, Note_on_c, 0, 76, 0
2, 46980, Note_on_c, 0, 76, 75
2, 47009, Note_on_c, 0, 76, 0
2, 47010, Note_on_c, 0, 79, 75
2, 47039, Note_on_c, 0, 79, 0
2, 47040, Note_on_c, 0, 77, 75
2, 47164, Note_on_c, 0, 77, 0
2, 47280, Note_on_c, 0, 79, 76
2, 47336, Note_on_c, 0, 79, 0
2, 47340, Note_on_c, 0, 79, 76
2, 47396, Note_on_c, 0, 79, 0
2, 47400, Note_on_c, 0, 78, 76
2, 47456, Note_on_c, 0, 78, 0
2, 47460, Note_on_c, 0, 78, 76
2, 47516, Note_on_c, 0, 78, 0
2, 47520, Note_on_c, 0, 79, 76
2, 47579, Note_on_c, 0, 79, 0
2, 47580, Note_on_c, 0, 81, 76
2, 47609, Note_on_c, 0, 81, 0
2, 47610, Note_on_c, 0, 83, 76
2, 47639, Note_on_c, 0, 83, 0
2, 47640, Note_on_c, 0, 84, 76
2, 47669, Note_on_c, 0, 84, 0
2, 47670, Note_on_c, 0, 83, 76
2, 47699, Note_on_c, 0, 83, 0
2, 47700, Note_on_c, 0, 81, 76
2, 47729, Note_on_c, 0, 81, 0
2, 47730, Note_on_c, 0, 79, 76
2, 47759, Note_on_c, 0, 79, 0
2, 47760, Note_on_c, 0, 77, 76
2, 47816, Note_on_c, 0, 77, 0
2, 47820, Note_on_c, 0, 77, 77
2, 47876, Note_on_c, 0, 77, 0
2, 47880, Note_on_c, 0, 76, 78
2, 47936, Note_on_c, 0, 76, 0
2, 47940, Note_on_c, 0, 76, 78
2, 47996, Note_on_c, 0, 76, 0
2, 48000, Note_on_c, 0, 77, 78
2, 48059, Note_on_c, 0, 77, 0
2, 48060, Note_on_c, 0, 83, 78
2, 48089, Note_on_c, 0, 83, 0
2, 48090, Note_on_c, 0, 84, 78
2, 48119, Note_on_c, 0, 84, 0
2, 48120, Note_on_c, 0, 86, 78
2, 48149, Note_on_c, 0, 86, 0
2, 48150, Note_on_c, 0, 83, 78
2, 48179, Note_on_c, 0, 83, 0
2, 48180, Note_on_c, 0, 79, 78
2, 48209, Note_on_c, 0, 79, 0
2, 48210, Note_on_c, 0, 77, 78
2, 48239, Note_on_c, 0, 77, 0
2, 48240, Note_on_c, 0, 76, 78
2, 48269, Note_on_c, 0, 76, 0
2, 48270, Note_on_c, 0, 79, 78
2, 48299, Note_on_c, 0, 79, 0
2, 48300, Note_on_c, 0, 81, 78
2, 48329, Note_on_c, 0, 81, 0
2, 48330, Note_on_c, 0, 79, 78
2, 48359, Note_on_c, 0, 79, 0
2, 48360, Note_on_c, 0, 84, 78
2, 48389, Note_on_c, 0, 84, 0
2, 48390, Note_on_c, 0, 83, 78
2, 48419, Note_on_c, 0, 83, 0
2, 48420, Note_on_c, 0, 81, 78
2, 48449, Note_on_c, 0, 81, 0
2, 48450, Note_on_c, 0, 79, 78
2, 48479, Note_on_c, 0, 79, 0
2, 48480, Note_on_c, 0, 77, 78
2, 48509, Note_on_c, 0, 77, 0
2, 48510, Note_on_c, 0, 83, 78
2, 48539, Note_on_c, 0, 83, 0
2, 48540, Note_on_c, 0, 86, 78
2, 48569, Note_on_c, 0, 86, 0
2, 48570, Note_on_c, 0, 84, 78
2, 48599, Note_on_c, 0, 84, 0
2, 48600, Note_on_c, 0, 83, 78
2, 48629, Note_on_c, 0, 83, 0
2, 48630, Note_on_c, 0, 81, 78
2, 48659, Note_on_c, 0, 81, 0
2, 48660, Note_on_c, 0, 79, 78
2, 48689, Note_on_c, 0, 79, 0
2, 48690, Note_on_c, 0, 77, 78
2, 48719, Note_on_c, 0, 77, 0
2, 48720, Note_on_c, 0, 76, 78
2, 48749, Note_on_c, 0, 76, 0
2, 48750, Note_on_c, 0, 79, 78
2, 48779, Note_on_c, 0, 79, 0
2, 48780, Note_on_c, 0, 81, 78
2, 48809, Note_on_c, 0, 81, 0
2, 48810, Note_on_c, 0, 79, 78
2, 48839, Note_on_c, 0, 79, 0
2, 48840, Note_on_c, 0, 84, 78
2, 48869, Note_on_c, 0, 84, 0
2, 48870, Note_on_c, 0, 83, 78
2, 48899, Note_on_c, 0, 83, 0
2, 48900, Note_on_c, 0, 81, 78
2, 48929, Note_on_c, 0, 81, 0
2, 48930, Note_on_c, 0, 79, 78
2, 48959, Note_on_c, 0, 79, 0
2, 48960, Note_on_c, 0, 77, 78
2, 48989, Note_on_c, 0, 77, 0
2, 48990, Note_on_c, 0, 83, 78
2, 49019, Note_on_c, 0, 83, 0
2, 49020, Note_on_c, 0, 86, 78
2, 49049, Note_on_c, 0, 86, 0
2, 49050, Note_on_c, 0, 84, 78
2, 49079, Note_on_c, 0, 84, 0
2, 49080, Note_on_c, 0, 83, 78
2, 49109, Note_on_c, 0, 83, 0
2, 49110, Note_on_c, 0, 81, 78
2, 49139, Note_on_c, 0, 81, 0
2, 49140, Note_on_c, 0, 79, 78
2, 49169, Note_on_c, 0, 79, 0
2, 49170, Note_on_c, 0, 77, 78
2, 49199, Note_on_c, 0, 77, 0
2, 49200, Note_on_c, 0, 76, 78
2, 49229, Note_on_c, 0, 76, 0
2, 49230, Note_on_c, 0, 84, 78
2, 49259, Note_on_c, 0, 84, 0
2, 49260, Note_on_c, 0, 79, 78
2, 49289, Note_on_c, 0, 79, 0
2, 49290, Note_on_c, 0, 76, 78
2, 49319, Note_on_c, 0, 76, 0
2, 49320, Note_on_c, 0, 74, 78
2, 49349, Note_on_c, 0, 74, 0
2, 49350, Note_on_c, 0, 81, 78
2, 49379, Note_on_c, 0, 81, 0
2, 49380, Note_on_c, 0, 77, 78
2, 49409, Note_on_c, 0, 77, 0
2, 49410, Note_on_c, 0, 74, 78
2, 49439, Note_on_c, 0, 74, 0
2, 49440, Note_on_c, 0, 72, 78
2, 49469, Note_on_c, 0, 72, 0
2, 49470, Note_on_c, 0, 79, 78
2, 49499, Note_on_c, 0, 79, 0
2, 49500, Note_on_c, 0, 76, 78
2, 49529, Note_on_c, 0, 76, 0
2, 49530, Note_on_c, 0, 72, 79
2, 49559, Note_on_c, 0, 72, 0
2, 49560, Note_on_c, 0, 71, 79
2, 49589, Note_on_c, 0, 71, 0
2, 49590, Note_on_c, 0, 77, 79
2, 49619, Note_on_c, 0, 77, 0
2, 49620, Note_on_c, 0, 74, 79
2, 49649, Note_on_c, 0, 74, 0
2, 49650, Note_on_c, 0, 71, 79
2, 49679, Note_on_c, 0, 71, 0
2, 49680, Note_on_c, 0, 72, 79
2, 49739, Note_on_c, 0, 72, 0
2, 49740, Note_on_c, 0, 60, 80
2, 49769, Note_on_c, 0, 60, 0
2, 49770, Note_on_c, 0, 61, 81
2, 49799, Note_on_c, 0, 61, 0
2, 49800, Note_on_c, 0, 62, 81
2, 49829, Note_on_c, 0, 62, 0
2, 49830, Note_on_c, 0, 63, 81
2, 49859, Note_on_c, 0, 63, 0
2, 49860, Note_on_c, 0, 64, 82
2, 49889, Note_on_c, 0, 64, 0
2, 49890, Note_on_c, 0, 65, 82
2, 49919, Note_on_c, 0, 65, 0
2, 49920, Note_on_c, 0, 66, 83
2, 49949, Note_on_c, 0, 66, 0
2, 49950, Note_on_c, 0, 67, 83
2, 49979, Note_on_c, 0, 67, 0
2, 49980, Note_on_c, 0, 68, 84
2, 50009, Note_on_c, 0, 68, 0
2, 50010, Note_on_c, 0, 69, 84
2, 50039, Note_on_c, 0, 69, 0
2, 50040, Note_on_c, 0, 70, 84
2, 50069, Note_on_c, 0, 70, 0
2, 50070, Note_on_c, 0, 71, 84
2, 50099, Note_on_c, 0, 71, 0
2, 50100, Note_on_c, 0, 72, 84
2, 50129, Note_on_c, 0, 72, 0
2, 50130, Note_on_c, 0, 71, 84
2, 50159, Note_on_c, 0, 71, 0
2, 50160, Note_on_c, 0, 72, 83
2, 50216, Note_on_c, 0, 72, 0
2, 50220, Note_on_c, 0, 77, 83
2, 50276, Note_on_c, 0, 77, 0
2, 50280, Note_on_c, 0, 71, 82
2, 50336, Note_on_c, 0, 71, 0
2, 50340, Note_on_c, 0, 77, 81
2, 50396, Note_on_c, 0, 77, 0
2, 50400, Note_on_c, 0, 72, 80
2, 50580, Note_on_c, 0, 72, 0
2, 50580, Note_on_c, 0, 73, 75
2, 50640, Note_on_c, 0, 73, 0
2, 50640, Note_on_c, 0, 74, 78
2, 50696, Note_on_c, 0, 74, 0
2, 50700, Note_on_c, 0, 77, 78
2, 50756, Note_on_c, 0, 77, 0
2, 50760, Note_on_c, 0, 73, 78
2, 50816, Note_on_c, 0, 73, 0
2, 50820, Note_on_c, 0, 77, 78
2, 50876, Note_on_c, 0, 77, 0
2, 50880, Note_on_c, 0, 74, 78
2, 51060, Note_on_c, 0, 79, 78
2, 51063, Note_on_c, 0, 74, 0
2, 51074, Note_on_c, 0, 79, 0
2, 51075, Note_on_c, 0, 77, 78
2, 51089, Note_on_c, 0, 77, 0
2, 51090, Note_on_c, 0, 76, 78
2, 51104, Note_on_c, 0, 76, 0
2, 51105, Note_on_c, 0, 77, 78
2, 51119, Note_on_c, 0, 77, 0
2, 51120, Note_on_c, 0, 76, 78
2, 51179, Note_on_c, 0, 76, 0
2, 51180, Note_on_c, 0, 84, 78
2, 51239, Note_on_c, 0, 84, 0
2, 51240, Note_on_c, 0, 84, 78
2, 51296, Note_on_c, 0, 84, 0
2, 51300, Note_on_c, 0, 84, 78
2, 51356, Note_on_c, 0, 84, 0
2, 51360, Note_on_c, 0, 84, 78
2, 51480, Note_on_c, 0, 82, 78
2, 51485, Note_on_c, 0, 84, 0
2, 51509, Note_on_c, 0, 82, 0
2, 51510, Note_on_c, 0, 81, 78
2, 51539, Note_on_c, 0, 81, 0
2, 51540, Note_on_c, 0, 79, 78
2, 51569, Note_on_c, 0, 79, 0
2, 51570, Note_on_c, 0, 77, 77
2, 51599, Note_on_c, 0, 77, 0
2, 51600, Note_on_c, 0, 79, 77
2, 51659, Note_on_c, 0, 79, 0
2, 51660, Note_on_c, 0, 79, 76
2, 51689, Note_on_c, 0, 79, 0
2, 51690, Note_on_c, 0, 82, 76
2, 51719, Note_on_c, 0, 82, 0
2, 51720, Note_on_c, 0, 76, 75
2, 51779, Note_on_c, 0, 76, 0
2, 51780, Note_on_c, 0, 76, 75
2, 51809, Note_on_c, 0, 76, 0
2, 51810, Note_on_c, 0, 79, 74
2, 51839, Note_on_c, 0, 79, 0
2, 51840, Note_on_c, 0, 77, 74
2, 51964, Note_on_c, 0, 77, 0
2, 52080, Note_on_c, 0, 81, 87
2, 52200, Note_on_c, 0, 82, 86
2, 52204, Note_on_c, 0, 81, 0
2, 52259, Note_on_c, 0, 82, 0
2, 52260, Note_on_c, 0, 81, 85
2, 52319, Note_on_c, 0, 81, 0
2, 52320, Note_on_c, 0, 81, 84
2, 52440, Note_on_c, 0, 73, 83
2, 52441, Note_on_c, 0, 81, 0
2, 52499, Note_on_c, 0, 73, 0
2, 52500, Note_on_c, 0, 74, 82
2, 52559, Note_on_c, 0, 74, 0
2, 52560, Note_on_c, 0, 76, 81
2, 52619, Note_on_c, 0, 76, 0
2, 52620, Note_on_c, 0, 73, 81
2, 52679, Note_on_c, 0, 73, 0
2, 52680, Note_on_c, 0, 69, 80
2, 52739, Note_on_c, 0, 69, 0
2, 52740, Note_on_c, 0, 81, 79
2, 52799, Note_on_c, 0, 81, 0
2, 52800, Note_on_c, 0, 79, 78
2, 52919, Note_on_c, 0, 79, 0
2, 52920, Note_on_c, 0, 77, 77
2, 53040, Note_on_c, 0, 77, 0
2, 53040, Note_on_c, 0, 81, 76
2, 53099, Note_on_c, 0, 81, 0
2, 53100, Note_on_c, 0, 77, 75
2, 53159, Note_on_c, 0, 77, 0
2, 53160, Note_on_c, 0, 74, 74
2, 53219, Note_on_c, 0, 74, 0
2, 53220, Note_on_c, 0, 86, 74
2, 53279, Note_on_c, 0, 86, 0
2, 53280, Note_on_c, 0, 82, 114
2, 53520, Note_on_c, 0, 81, 73
2, 53523, Note_on_c, 0, 82, 0
2, 53579, Note_on_c, 0, 81, 0
2, 53580, Note_on_c, 0, 77, 73
2, 53639, Note_on_c, 0, 77, 0
2, 53640, Note_on_c, 0, 74, 73
2, 53699, Note_on_c, 0, 74, 0
2, 53700, Note_on_c, 0, 86, 73
2, 53759, Note_on_c, 0, 86, 0
2, 53760, Note_on_c, 0, 82, 123
2, 54000, Note_on_c, 0, 82, 0
2, 54000, Note_on_c, 0, 81, 73
2, 54059, Note_on_c, 0, 81, 0
2, 54060, Note_on_c, 0, 77, 73
2, 54119, Note_on_c, 0, 77, 0
2, 54120, Note_on_c, 0, 74, 73
2, 54179, Note_on_c, 0, 74, 0
2, 54180, Note_on_c, 0, 86, 73
2, 54239, Note_on_c, 0, 86, 0
2, 54240, Note_on_c, 0, 84, 73
2, 54299, Note_on_c, 0, 84, 0
2, 54300, Note_on_c, 0, 82, 73
2, 54359, Note_on_c, 0, 82, 0
2, 54360, Note_on_c, 0, 82, 73
2, 54419, Note_on_c, 0, 82, 0
2, 54420, Note_on_c, 0, 81, 73
2, 54479, Note_on_c, 0, 81, 0
2, 54480, Note_on_c, 0, 81, 73
2, 54539, Note_on_c, 0, 81, 0
2, 54540, Note_on_c, 0, 79, 73
2, 54599, Note_on_c, 0, 79, 0
2, 54600, Note_on_c, 0, 79, 73
2, 54659, Note_on_c, 0, 79, 0
2, 54660, Note_on_c, 0, 77, 73
2, 54719, Note_on_c, 0, 77, 0
2, 54720, Note_on_c, 0, 77, 73
2, 54839, Note_on_c, 0, 77, 0
2, 54840, Note_on_c, 0, 76, 73
2, 54899, Note_on_c, 0, 76, 0
2, 54960, Note_on_c, 0, 81, 87
2, 55080, Note_on_c, 0, 82, 86
2, 55084, Note_on_c, 0, 81, 0
2, 55139, Note_on_c, 0, 82, 0
2, 55140, Note_on_c, 0, 81, 85
2, 55199, Note_on_c, 0, 81, 0
2, 55200, Note_on_c, 0, 81, 84
2, 55320, Note_on_c, 0, 73, 83
2, 55321, Note_on_c, 0, 81, 0
2, 55379, Note_on_c, 0, 73, 0
2, 55380, Note_on_c, 0, 74, 82
2, 55439, Note_on_c, 0, 74, 0
2, 55440, Note_on_c, 0, 76, 81
2, 55499, Note_on_c, 0, 76, 0
2, 55500, Note_on_c, 0, 73, 81
2, 55559, Note_on_c, 0, 73, 0
2, 55560, Note_on_c, 0, 69, 80
2, 55619, Note_on_c, 0, 69, 0
2, 55620, Note_on_c, 0, 81, 79
2, 55679, Note_on_c, 0, 81, 0
2, 55680, Note_on_c, 0, 79, 78
2, 55799, Note_on_c, 0, 79, 0
2, 55800, Note_on_c, 0, 77, 77
2, 55920, Note_on_c, 0, 77, 0
2, 55920, Note_on_c, 0, 81, 76
2, 55979, Note_on_c, 0, 81, 0
2, 55980, Note_on_c, 0, 77, 75
2, 56039, Note_on_c, 0, 77, 0
2, 56040, Note_on_c, 0, 74, 74
2, 56099, Note_on_c, 0, 74, 0
2, 56100, Note_on_c, 0, 86, 74
2, 56159, Note_on_c, 0, 86, 0
2, 56160, Note_on_c, 0, 82, 114
2, 56400, Note_on_c, 0, 81, 73
2, 56403, Note_on_c, 0, 82, 0
2, 56459, Note_on_c, 0, 81, 0
2, 56460, Note_on_c, 0, 77, 73
2, 56519, Note_on_c, 0, 77, 0
2, 56520, Note_on_c, 0, 74, 73
2, 56579, Note_on_c, 0, 74, 0
2, 56580, Note_on_c, 0, 86, 73
2, 56639, Note_on_c, 0, 86, 0
2, 56640, Note_on_c, 0, 82, 123
2, 56880, Note_on_c, 0, 82, 0
2, 56880, Note_on_c, 0, 81, 73
2, 56939, Note_on_c, 0, 81, 0
2, 56940, Note_on_c, 0, 77, 73
2, 56999, Note_on_c, 0, 77, 0
2, 57000, Note_on_c, 0, 74, 73
2, 57059, Note_on_c, 0, 74, 0
2, 57060, Note_on_c, 0, 86, 73
2, 57119, Note_on_c, 0, 86, 0
2, 57120, Note_on_c, 0, 84, 73
2, 57179, Note_on_c, 0, 84, 0
2, 57180, Note_on_c, 0, 82, 73
2, 57239, Note_on_c, 0, 82, 0
2, 57240, Note_on_c, 0, 82, 73
2, 57299, Note_on_c, 0, 82, 0
2, 57300, Note_on_c, 0, 81, 73
2, 57359, Note_on_c, 0, 81, 0
2, 57360, Note_on_c, 0, 81, 73
2, 57419, Note_on_c, 0, 81, 0
2, 57420, Note_on_c, 0, 79, 73
2, 57479, Note_on_c, 0, 79, 0
2, 57480, Note_on_c, 0, 79, 73
2, 57539, Note_on_c, 0, 79, 0
2, 57540, Note_on_c, 0, 77, 73
2, 57599, Note_on_c, 0, 77, 0
2, 57600, Note_on_c, 0, 77, 73
2, 57719, Note_on_c, 0, 77, 0
2, 57720, Note_on_c, 0, 76, 73
2, 57779, Note_on_c, 0, 76, 0
2, 57840, Note_on_c, 0, 81, 77
2, 57960, Note_on_c, 0, 82, 77
2, 57963, Note_on_c, 0, 81, 0
2, 58019, Note_on_c, 0, 82, 0
2, 58020, Note_on_c, 0, 81, 76
2, 58079, Note_on_c, 0, 81, 0
2, 58080, Note_on_c, 0, 84, 126
2, 58320, Note_on_c, 0, 77, 76
2, 58324, Note_on_c, 0, 84, 0
2, 58440, Note_on_c, 0, 79, 76
2, 58444, Note_on_c, 0, 77, 0
2, 58499, Note_on_c, 0, 79, 0
2, 58500, Note_on_c, 0, 77, 76
2, 58559, Note_on_c, 0, 77, 0
2, 58560, Note_on_c, 0, 81, 126
2, 58800, Note_on_c, 0, 81, 0
2, 58800, Note_on_c, 0, 86, 76
2, 58859, Note_on_c, 0, 86, 0
2, 58860, Note_on_c, 0, 77, 76
2, 58919, Note_on_c, 0, 77, 0
2, 58920, Note_on_c, 0, 86, 77
2, 58979, Note_on_c, 0, 86, 0
2, 58980, Note_on_c, 0, 77, 78
2, 59039, Note_on_c, 0, 77, 0
2, 59040, Note_on_c, 0, 84, 78
2, 59099, Note_on_c, 0, 84, 0
2, 59100, Note_on_c, 0, 77, 79
2, 59159, Note_on_c, 0, 77, 0
2, 59160, Note_on_c, 0, 84, 80
2, 59219, Note_on_c, 0, 84, 0
2, 59220, Note_on_c, 0, 77, 80
2, 59279, Note_on_c, 0, 77, 0
2, 59280, Note_on_c, 0, 82, 82
2, 59339, Note_on_c, 0, 82, 0
2, 59340, Note_on_c, 0, 74, 82
2, 59399, Note_on_c, 0, 74, 0
2, 59400, Note_on_c, 0, 82, 83
2, 59459, Note_on_c, 0, 82, 0
2, 59460, Note_on_c, 0, 74, 84
2, 59519, Note_on_c, 0, 74, 0
2, 59520, Note_on_c, 0, 81, 84
2, 59579, Note_on_c, 0, 81, 0
2, 59580, Note_on_c, 0, 74, 84
2, 59639, Note_on_c, 0, 74, 0
2, 59640, Note_on_c, 0, 81, 84
2, 59699, Note_on_c, 0, 81, 0
2, 59700, Note_on_c, 0, 74, 84
2, 59759, Note_on_c, 0, 74, 0
2, 59760, Note_on_c, 0, 79, 84
2, 59819, Note_on_c, 0, 79, 0
2, 59820, Note_on_c, 0, 76, 84
2, 59879, Note_on_c, 0, 76, 0
2, 59880, Note_on_c, 0, 77, 84
2, 59939, Note_on_c, 0, 77, 0
2, 59940, Note_on_c, 0, 74, 84
2, 59999, Note_on_c, 0, 74, 0
2, 60000, Note_on_c, 0, 76, 84
2, 60059, Note_on_c, 0, 76, 0
2, 60060, Note_on_c, 0, 73, 84
2, 60119, Note_on_c, 0, 73, 0
2, 60120, Note_on_c, 0, 69, 84
2, 60179, Note_on_c, 0, 69, 0
2, 60180, Note_on_c, 0, 81, 84
2, 60239, Note_on_c, 0, 81, 0
2, 60240, Note_on_c, 0, 81, 84
2, 60360, Note_on_c, 0, 81, 0
2, 60360, Note_on_c, 0, 82, 84
2, 60419, Note_on_c, 0, 82, 0
2, 60420, Note_on_c, 0, 81, 85
2, 60479, Note_on_c, 0, 81, 0
2, 60480, Note_on_c, 0, 81, 85
2, 60600, Note_on_c, 0, 81, 0
2, 60600, Note_on_c, 0, 73, 85
2, 60659, Note_on_c, 0, 73, 0
2, 60660, Note_on_c, 0, 74, 85
2, 60719, Note_on_c, 0, 74, 0
2, 60720, Note_on_c, 0, 76, 85
2, 60779, Note_on_c, 0, 76, 0
2, 60780, Note_on_c, 0, 73, 84
2, 60839, Note_on_c, 0, 73, 0
2, 60840, Note_on_c, 0, 69, 84
2, 60899, Note_on_c, 0, 69, 0
2, 60900, Note_on_c, 0, 81, 83
2, 60959, Note_on_c, 0, 81, 0
2, 60960, Note_on_c, 0, 79, 83
2, 61075, Note_on_c, 0, 79, 0
2, 61080, Note_on_c, 0, 77, 83
2, 61195, Note_on_c, 0, 77, 0
2, 61200, Note_on_c, 0, 74, 82
2, 61315, Note_on_c, 0, 74, 0
2, 61320, Note_on_c, 0, 86, 83
2, 61379, Note_on_c, 0, 86, 0
2, 61380, Note_on_c, 0, 81, 84
2, 61439, Note_on_c, 0, 81, 0
2, 61440, Note_on_c, 0, 82, 84
2, 61560, Note_on_c, 0, 79, 84
2, 61562, Note_on_c, 0, 82, 0
2, 61619, Note_on_c, 0, 79, 0
2, 61620, Note_on_c, 0, 76, 84
2, 61679, Note_on_c, 0, 76, 0
2, 61680, Note_on_c, 0, 77, 84
2, 61739, Note_on_c, 0, 77, 0
2, 61740, Note_on_c, 0, 81, 84
2, 61799, Note_on_c, 0, 81, 0
2, 61800, Note_on_c, 0, 79, 84
2, 61859, Note_on_c, 0, 79, 0
2, 61860, Note_on_c, 0, 76, 84
2, 61919, Note_on_c, 0, 76, 0
2, 61920, Note_on_c, 0, 74, 94
2, 62043, Note_on_c, 0, 74, 0
2, 62160, Note_on_c, 0, 81, 77
2, 62280, Note_on_c, 0, 82, 77
2, 62283, Note_on_c, 0, 81, 0
2, 62339, Note_on_c, 0, 82, 0
2, 62340, Note_on_c, 0, 81, 76
2, 62399, Note_on_c, 0, 81, 0
2, 62400, Note_on_c, 0, 84, 126
2, 62640, Note_on_c, 0, 77, 76
2, 62644, Note_on_c, 0, 84, 0
2, 62760, Note_on_c, 0, 79, 76
2, 62764, Note_on_c, 0, 77, 0
2, 62819, Note_on_c, 0, 79, 0
2, 62820, Note_on_c, 0, 77, 76
2, 62879, Note_on_c, 0, 77, 0
2, 62880, Note_on_c, 0, 81, 126
2, 63120, Note_on_c, 0, 81, 0
2, 63120, Note_on_c, 0, 86, 76
2, 63179, Note_on_c, 0, 86, 0
2, 63180, Note_on_c, 0, 77, 76
2, 63239, Note_on_c, 0, 77, 0
2, 63240, Note_on_c, 0, 86, 77
2, 63299, Note_on_c, 0, 86, 0
2, 63300, Note_on_c, 0, 77, 78
2, 63359, Note_on_c, 0, 77, 0
2, 63360, Note_on_c, 0, 84, 78
2, 63419, Note_on_c, 0, 84, 0
2, 63420, Note_on_c, 0, 77, 79
2, 63479, Note_on_c, 0, 77, 0
2, 63480, Note_on_c, 0, 84, 80
2, 63539, Note_on_c, 0, 84, 0
2, 63540, Note_on_c, 0, 77, 80
2, 63599, Note_on_c, 0, 77, 0
2, 63600, Note_on_c, 0, 82, 82
2, 63659, Note_on_c, 0, 82, 0
2, 63660, Note_on_c, 0, 74, 82
2, 63719, Note_on_c, 0, 74, 0
2, 63720, Note_on_c, 0, 82, 83
2, 63779, Note_on_c, 0, 82, 0
2, 63780, Note_on_c, 0, 74, 84
2, 63839, Note_on_c, 0, 74, 0
2, 63840, Note_on_c, 0, 81, 84
2, 63899, Note_on_c, 0, 81, 0
2, 63900, Note_on_c, 0, 74, 84
2, 63959, Note_on_c, 0, 74, 0
2, 63960, Note_on_c, 0, 81, 84
2, 64019, Note_on_c, 0, 81, 0
2, 64020, Note_on_c, 0, 74, 84
2, 64079, Note_on_c, 0, 74, 0
2, 64080, Note_on_c, 0, 79, 84
2, 64139, Note_on_c, 0, 79, 0
2, 64140, Note_on_c, 0, 76, 84
2, 64199, Note_on_c, 0, 76, 0
2, 64200, Note_on_c, 0, 77, 84
2, 64259, Note_on_c, 0, 77, 0
2, 64260, Note_on_c, 0, 74, 84
2, 64319, Note_on_c, 0, 74, 0
2, 64320, Note_on_c, 0, 76, 84
2, 64379, Note_on_c, 0, 76, 0
2, 64380, Note_on_c, 0, 73, 84
2, 64439, Note_on_c, 0, 73, 0
2, 64440, Note_on_c, 0, 69, 84
2, 64499, Note_on_c, 0, 69, 0
2, 64500, Note_on_c, 0, 81, 84
2, 64559, Note_on_c, 0, 81, 0
2, 64560, Note_on_c, 0, 81, 84
2, 64680, Note_on_c, 0, 81, 0
2, 64680, Note_on_c, 0, 82, 84
2, 64739, Note_on_c, 0, 82, 0
2, 64740, Note_on_c, 0, 81, 85
2, 64799, Note_on_c, 0, 81, 0
2, 64800, Note_on_c, 0, 81, 85
2, 64920, Note_on_c, 0, 81, 0
2, 64920, Note_on_c, 0, 73, 85
2, 64979, Note_on_c, 0, 73, 0
2, 64980, Note_on_c, 0, 74, 85
2, 65039, Note_on_c, 0, 74, 0
2, 65040, Note_on_c, 0, 76, 85
2, 65099, Note_on_c, 0, 76, 0
2, 65100, Note_on_c, 0, 73, 84
2, 65159, Note_on_c, 0, 73, 0
2, 65160, Note_on_c, 0, 69, 84
2, 65219, Note_on_c, 0, 69, 0
2, 65220, Note_on_c, 0, 81, 83
2, 65279, Note_on_c, 0, 81, 0
2, 65280, Note_on_c, 0, 79, 83
2, 65395, Note_on_c, 0, 79, 0
2, 65400, Note_on_c, 0, 77, 83
2, 65515, Note_on_c, 0, 77, 0
2, 65520, Note_on_c, 0, 74, 82
2, 65635, Note_on_c, 0, 74, 0
2, 65640, Note_on_c, 0, 86, 83
2, 65699, Note_on_c, 0, 86, 0
2, 65700, Note_on_c, 0, 81, 84
2, 65759, Note_on_c, 0, 81, 0
2, 65760, Note_on_c, 0, 82, 84
2, 65880, Note_on_c, 0, 79, 84
2, 65882, Note_on_c, 0, 82, 0
2, 65939, Note_on_c, 0, 79, 0
2, 65940, Note_on_c, 0, 76, 84
2, 65999, Note_on_c, 0, 76, 0
2, 66000, Note_on_c, 0, 77, 84
2, 66059, Note_on_c, 0, 77, 0
2, 66060, Note_on_c, 0, 81, 84
2, 66119, Note_on_c, 0, 81, 0
2, 66120, Note_on_c, 0, 79, 84
2, 66179, Note_on_c, 0, 79, 0
2, 66180, Note_on_c, 0, 76, 84
2, 66239, Note_on_c, 0, 76, 0
2, 66240, Note_on_c, 0, 74, 94
2, 66363, Note_on_c, 0, 74, 0
2, 66480, Note_on_c, 0, 76, 77
2, 66595, Note_on_c, 0, 76, 0
2, 66720, Note_on_c, 0, 77, 76
2, 66835, Note_on_c, 0, 77, 0
2, 66960, Note_on_c, 0, 79, 74
2, 67075, Note_on_c, 0, 79, 0
2, 67200, Note_on_c, 0, 81, 72
2, 67315, Note_on_c, 0, 81, 0
2, 67440, Note_on_c, 0, 82, 120
2, 67560, Note_on_c, 0, 81, 65
2, 67562, Note_on_c, 0, 82, 0
2, 67619, Note_on_c, 0, 81, 0
2, 67620, Note_on_c, 0, 79, 65
2, 67679, Note_on_c, 0, 79, 0
2, 67680, Note_on_c, 0, 86, 64
2, 67800, Note_on_c, 0, 84, 85
2, 67803, Note_on_c, 0, 86, 0
2, 67859, Note_on_c, 0, 84, 0
2, 67860, Note_on_c, 0, 82, 79
2, 67919, Note_on_c, 0, 82, 0
2, 67920, Note_on_c, 0, 81, 74
2, 67979, Note_on_c, 0, 81, 0
2, 67980, Note_on_c, 0, 79, 71
2, 68039, Note_on_c, 0, 79, 0
2, 68040, Note_on_c, 0, 82, 64
2, 68099, Note_on_c, 0, 82, 0
2, 68100, Note_on_c, 0, 81, 64
2, 68145, Note_on_c, 0, 81, 62
2, 68159, Note_on_c, 0, 81, 0
2, 68160, Note_on_c, 0, 81, 0
2, 68160, Note_on_c, 0, 79, 62
2, 68205, Note_on_c, 0, 79, 62
2, 68220, Note_on_c, 0, 79, 0
2, 68220, Note_on_c, 0, 79, 0
2, 68220, Note_on_c, 0, 77, 62
2, 68265, Note_on_c, 0, 77, 62
2, 68280, Note_on_c, 0, 77, 0
2, 68280, Note_on_c, 0, 77, 0
2, 68280, Note_on_c, 0, 76, 62
2, 68325, Note_on_c, 0, 76, 62
2, 68340, Note_on_c, 0, 76, 0
2, 68340, Note_on_c, 0, 76, 0
2, 68340, Note_on_c, 0, 74, 62
2, 68400, Note_on_c, 0, 74, 0
2, 68400, Note_on_c, 0, 72, 64
2, 68456, Note_on_c, 0, 72, 0
2, 68460, Note_on_c, 0, 77, 64
2, 68516, Note_on_c, 0, 77, 0
2, 68520, Note_on_c, 0, 71, 64
2, 68576, Note_on_c, 0, 71, 0
2, 68580, Note_on_c, 0, 77, 64
2, 68636, Note_on_c, 0, 77, 0
2, 68640, Note_on_c, 0, 72, 62
2, 68820, Note_on_c, 0, 72, 0
2, 68820, Note_on_c, 0, 73, 82
2, 68880, Note_on_c, 0, 73, 0
2, 68880, Note_on_c, 0, 74, 65
2, 68936, Note_on_c, 0, 74, 0
2, 68940, Note_on_c, 0, 77, 65
2, 68996, Note_on_c, 0, 77, 0
2, 69000, Note_on_c, 0, 73, 65
2, 69056, Note_on_c, 0, 73, 0
2, 69060, Note_on_c, 0, 77, 65
2, 69116, Note_on_c, 0, 77, 0
2, 69120, Note_on_c, 0, 74, 62
2, 69300, Note_on_c, 0, 74, 0
2, 69300, Note_on_c, 0, 79, 65
2, 69314, Note_on_c, 0, 79, 0
2, 69315, Note_on_c, 0, 77, 65
2, 69329, Note_on_c, 0, 77, 0
2, 69330, Note_on_c, 0, 76, 65
2, 69344, Note_on_c, 0, 76, 0
2, 69345, Note_on_c, 0, 77, 65
2, 69359, Note_on_c, 0, 77, 0
2, 69360, Note_on_c, 0, 76, 65
2, 69419, Note_on_c, 0, 76, 0
2, 69420, Note_on_c, 0, 84, 65
2, 69479, Note_on_c, 0, 84, 0
2, 69480, Note_on_c, 0, 84, 65
2, 69536, Note_on_c, 0, 84, 0
2, 69540, Note_on_c, 0, 84, 65
2, 69596, Note_on_c, 0, 84, 0
2, 69600, Note_on_c, 0, 84, 65
2, 69720, Note_on_c, 0, 84, 0
2, 69720, Note_on_c, 0, 81, 65
2, 69749, Note_on_c, 0, 81, 0
2, 69750, Note_on_c, 0, 77, 64
2, 69779, Note_on_c, 0, 77, 0
2, 69780, Note_on_c, 0, 81, 64
2, 69809, Note_on_c, 0, 81, 0
2, 69810, Note_on_c, 0, 84, 64
2, 69839, Note_on_c, 0, 84, 0
2, 69840, Note_on_c, 0, 82, 64
2, 69899, Note_on_c, 0, 82, 0
2, 69900, Note_on_c, 0, 79, 64
2, 69929, Note_on_c, 0, 79, 0
2, 69930, Note_on_c, 0, 82, 64
2, 69959, Note_on_c, 0, 82, 0
2, 69960, Note_on_c, 0, 81, 64
2, 70019, Note_on_c, 0, 81, 0
2, 70020, Note_on_c, 0, 77, 64
2, 70049, Note_on_c, 0, 77, 0
2, 70050, Note_on_c, 0, 81, 64
2, 70079, Note_on_c, 0, 81, 0
2, 70080, Note_on_c, 0, 79, 64
2, 70139, Note_on_c, 0, 79, 0
2, 70140, Note_on_c, 0, 81, 64
2, 70169, Note_on_c, 0, 81, 0
2, 70170, Note_on_c, 0, 79, 64
2, 70199, Note_on_c, 0, 79, 0
2, 70200, Note_on_c, 0, 77, 64
2, 70229, Note_on_c, 0, 77, 0
2, 70230, Note_on_c, 0, 76, 64
2, 70259, Note_on_c, 0, 76, 0
2, 70260, Note_on_c, 0, 74, 64
2, 70289, Note_on_c, 0, 74, 0
2, 70290, Note_on_c, 0, 72, 64
2, 70319, Note_on_c, 0, 72, 0
2, 70320, Note_on_c, 0, 72, 64
2, 70376, Note_on_c, 0, 72, 0
2, 70380, Note_on_c, 0, 77, 64
2, 70436, Note_on_c, 0, 77, 0
2, 70440, Note_on_c, 0, 71, 64
2, 70496, Note_on_c, 0, 71, 0
2, 70500, Note_on_c, 0, 77, 64
2, 70556, Note_on_c, 0, 77, 0
2, 70560, Note_on_c, 0, 72, 65
2, 70740, Note_on_c, 0, 72, 0
2, 70740, Note_on_c, 0, 73, 67
2, 70799, Note_on_c, 0, 73, 0
2, 70800, Note_on_c, 0, 74, 67
2, 70856, Note_on_c, 0, 74, 0
2, 70860, Note_on_c, 0, 77, 68
2, 70916, Note_on_c, 0, 77, 0
2, 70920, Note_on_c, 0, 73, 68
2, 70976, Note_on_c, 0, 73, 0
2, 70980, Note_on_c, 0, 77, 68
2, 71036, Note_on_c, 0, 77, 0
2, 71040, Note_on_c, 0, 74, 68
2, 71220, Note_on_c, 0, 74, 0
2, 71220, Note_on_c, 0, 79, 69
2, 71234, Note_on_c, 0, 79, 0
2, 71235, Note_on_c, 0, 77, 69
2, 71249, Note_on_c, 0, 77, 0
2, 71250, Note_on_c, 0, 76, 69
2, 71264, Note_on_c, 0, 76, 0
2, 71265, Note_on_c, 0, 77, 69
2, 71279, Note_on_c, 0, 77, 0
2, 71280, Note_on_c, 0, 76, 69
2, 71339, Note_on_c, 0, 76, 0
2, 71340, Note_on_c, 0, 84, 69
2, 71399, Note_on_c, 0, 84, 0
2, 71400, Note_on_c, 0, 84, 69
2, 71456, Note_on_c, 0, 84, 0
2, 71460, Note_on_c, 0, 84, 69
2, 71516, Note_on_c, 0, 84, 0
2, 71520, Note_on_c, 0, 84, 69
2, 71640, Note_on_c, 0, 82, 69
2, 71643, Note_on_c, 0, 84, 0
2, 71669, Note_on_c, 0, 82, 0
2, 71670, Note_on_c, 0, 81, 69
2, 71699, Note_on_c, 0, 81, 0
2, 71700, Note_on_c, 0, 79, 69
2, 71729, Note_on_c, 0, 79, 0
2, 71730, Note_on_c, 0, 77, 69
2, 71759, Note_on_c, 0, 77, 0
2, 71760, Note_on_c, 0, 79, 69
2, 71819, Note_on_c, 0, 79, 0
2, 71820, Note_on_c, 0, 79, 69
2, 71849, Note_on_c, 0, 79, 0
2, 71850, Note_on_c, 0, 82, 69
2, 71879, Note_on_c, 0, 82, 0
2, 71880, Note_on_c, 0, 76, 69
2, 71939, Note_on_c, 0, 76, 0
2, 71940, Note_on_c, 0, 76, 70
2, 71969, Note_on_c, 0, 76, 0
2, 71970, Note_on_c, 0, 79, 70
2, 71999, Note_on_c, 0, 79, 0
2, 72000, Note_on_c, 0, 77, 70
2, 72120, Note_on_c, 0, 77, 0
2, 72240, Note_on_c, 0, 76, 48
2, 72240, Note_on_c, 0, 84, 48
2, 72360, Note_on_c, 0, 84, 0
2, 72360, Note_on_c, 0, 76, 0
2, 72480, Note_on_c, 0, 77, 50
2, 72480, Note_on_c, 0, 81, 50
2, 72600, Note_on_c, 0, 81, 0
2, 72600, Note_on_c, 0, 77, 0
2, 72720, Note_on_c, 0, 67, 119
2, 72720, Note_on_c, 0, 76, 119
2, 72720, Note_on_c, 0, 70, 119
2, 72840, Note_on_c, 0, 70, 0
2, 72840, Note_on_c, 0, 76, 0
2, 72840, Note_on_c, 0, 67, 0
2, 72840, Note_on_c, 0, 70, 119
2, 72840, Note_on_c, 0, 67, 119
2, 72840, Note_on_c, 0, 76, 119
2, 72960, Note_on_c, 0, 76, 0
2, 72960, Note_on_c, 0, 67, 0
2, 72960, Note_on_c, 0, 70, 0
2, 72960, Note_on_c, 0, 77, 119
2, 72960, Note_on_c, 0, 65, 119
2, 72960, Note_on_c, 0, 69, 119
2, 73080, Note_on_c, 0, 69, 0
2, 73080, Note_on_c, 0, 65, 0
2, 73080, Note_on_c, 0, 77, 0
2, 73080, End_track
3, 0, Start_track
3, 0, MIDI_port, 0
3, 0, Title_t, "Piano L"
3, 0, Control_c, 1, 7, 112
3, 0, Control_c, 1, 10, 43
3, 0, Control_c, 1, 93, 16
3, 0, Control_c, 1, 91, 32
3, 0, Control_c, 1, 0, 0
3, 0, Control_c, 1, 32, 0
3, 0, Program_c, 1, 0
3, 0, Note_on_c, 1, 53, 85
3, 29, Note_on_c, 1, 53, 0
3, 30, Note_on_c, 1, 57, 86
3, 59, Note_on_c, 1, 57, 0
3, 60, Note_on_c, 1, 60, 87
3, 89, Note_on_c, 1, 60, 0
3, 90, Note_on_c, 1, 57, 87
3, 119, Note_on_c, 1, 57, 0
3, 120, Note_on_c, 1, 53, 88
3, 149, Note_on_c, 1, 53, 0
3, 150, Note_on_c, 1, 57, 89
3, 179, Note_on_c, 1, 57, 0
3, 180, Note_on_c, 1, 60, 89
3, 209, Note_on_c, 1, 60, 0
3, 210, Note_on_c, 1, 57, 89
3, 239, Note_on_c, 1, 57, 0
3, 240, Note_on_c, 1, 53, 89
3, 361, Note_on_c, 1, 53, 0
3, 480, Note_on_c, 1, 58, 89
3, 509, Note_on_c, 1, 58, 0
3, 510, Note_on_c, 1, 60, 89
3, 539, Note_on_c, 1, 60, 0
3, 540, Note_on_c, 1, 57, 89
3, 569, Note_on_c, 1, 57, 0
3, 570, Note_on_c, 1, 60, 89
3, 599, Note_on_c, 1, 60, 0
3, 600, Note_on_c, 1, 55, 89
3, 629, Note_on_c, 1, 55, 0
3, 630, Note_on_c, 1, 60, 89
3, 659, Note_on_c, 1, 60, 0
3, 660, Note_on_c, 1, 53, 89
3, 689, Note_on_c, 1, 53, 0
3, 690, Note_on_c, 1, 60, 88
3, 719, Note_on_c, 1, 60, 0
3, 720, Note_on_c, 1, 52, 88
3, 900, Note_on_c, 1, 52, 0
3, 960, Note_on_c, 1, 52, 63
3, 989, Note_on_c, 1, 52, 0
3, 990, Note_on_c, 1, 58, 63
3, 1019, Note_on_c, 1, 58, 0
3, 1020, Note_on_c, 1, 60, 63
3, 1049, Note_on_c, 1, 60, 0
3, 1050, Note_on_c, 1, 57, 63
3, 1079, Note_on_c, 1, 57, 0
3, 1080, Note_on_c, 1, 52, 62
3, 1109, Note_on_c, 1, 52, 0
3, 1110, Note_on_c, 1, 58, 62
3, 1139, Note_on_c, 1, 58, 0
3, 1140, Note_on_c, 1, 60, 62
3, 1169, Note_on_c, 1, 60, 0
3, 1170, Note_on_c, 1, 58, 61
3, 1199, Note_on_c, 1, 58, 0
3, 1200, Note_on_c, 1, 52, 61
3, 1324, Note_on_c, 1, 52, 0
3, 1440, Note_on_c, 1, 57, 79
3, 1469, Note_on_c, 1, 57, 0
3, 1470, Note_on_c, 1, 60, 79
3, 1499, Note_on_c, 1, 60, 0
3, 1500, Note_on_c, 1, 55, 79
3, 1529, Note_on_c, 1, 55, 0
3, 1530, Note_on_c, 1, 60, 79
3, 1559, Note_on_c, 1, 60, 0
3, 1560, Note_on_c, 1, 57, 79
3, 1589, Note_on_c, 1, 57, 0
3, 1590, Note_on_c, 1, 60, 79
3, 1619, Note_on_c, 1, 60, 0
3, 1620, Note_on_c, 1, 52, 79
3, 1649, Note_on_c, 1, 52, 0
3, 1650, Note_on_c, 1, 60, 79
3, 1679, Note_on_c, 1, 60, 0
3, 1680, Note_on_c, 1, 53, 79
3, 1793, Note_on_c, 1, 53, 0
3, 1920, Note_on_c, 1, 57, 64
3, 1949, Note_on_c, 1, 57, 0
3, 1950, Note_on_c, 1, 60, 64
3, 1979, Note_on_c, 1, 60, 0
3, 1980, Note_on_c, 1, 57, 64
3, 2009, Note_on_c, 1, 57, 0
3, 2010, Note_on_c, 1, 60, 64
3, 2039, Note_on_c, 1, 60, 0
3, 2040, Note_on_c, 1, 58, 64
3, 2069, Note_on_c, 1, 58, 0
3, 2070, Note_on_c, 1, 60, 65
3, 2099, Note_on_c, 1, 60, 0
3, 2100, Note_on_c, 1, 57, 65
3, 2129, Note_on_c, 1, 57, 0
3, 2130, Note_on_c, 1, 60, 65
3, 2159, Note_on_c, 1, 60, 0
3, 2160, Note_on_c, 1, 58, 66
3, 2189, Note_on_c, 1, 58, 0
3, 2190, Note_on_c, 1, 60, 66
3, 2219, Note_on_c, 1, 60, 0
3, 2220, Note_on_c, 1, 57, 66
3, 2249, Note_on_c, 1, 57, 0
3, 2250, Note_on_c, 1, 60, 66
3, 2279, Note_on_c, 1, 60, 0
3, 2400, Note_on_c, 1, 53, 65
3, 2429, Note_on_c, 1, 53, 0
3, 2430, Note_on_c, 1, 60, 65
3, 2459, Note_on_c, 1, 60, 0
3, 2460, Note_on_c, 1, 53, 65
3, 2489, Note_on_c, 1, 53, 0
3, 2490, Note_on_c, 1, 60, 65
3, 2519, Note_on_c, 1, 60, 0
3, 2520, Note_on_c, 1, 55, 65
3, 2549, Note_on_c, 1, 55, 0
3, 2550, Note_on_c, 1, 60, 65
3, 2579, Note_on_c, 1, 60, 0
3, 2580, Note_on_c, 1, 53, 65
3, 2609, Note_on_c, 1, 53, 0
3, 2610, Note_on_c, 1, 60, 66
3, 2639, Note_on_c, 1, 60, 0
3, 2640, Note_on_c, 1, 55, 66
3, 2669, Note_on_c, 1, 55, 0
3, 2670, Note_on_c, 1, 60, 67
3, 2699, Note_on_c, 1, 60, 0
3, 2700, Note_on_c, 1, 53, 67
3, 2729, Note_on_c, 1, 53, 0
3, 2730, Note_on_c, 1, 60, 67
3, 2759, Note_on_c, 1, 60, 0
3, 2880, Note_on_c, 1, 53, 72
3, 2880, Note_on_c, 1, 59, 72
3, 3117, Note_on_c, 1, 59, 0
3, 3117, Note_on_c, 1, 53, 0
3, 3120, Note_on_c, 1, 52, 72
3, 3120, Note_on_c, 1, 60, 72
3, 3357, Note_on_c, 1, 60, 0
3, 3357, Note_on_c, 1, 52, 0
3, 3360, Note_on_c, 1, 53, 73
3, 3360, Note_on_c, 1, 59, 73
3, 3597, Note_on_c, 1, 59, 0
3, 3597, Note_on_c, 1, 53, 0
3, 3600, Note_on_c, 1, 52, 79
3, 3600, Note_on_c, 1, 60, 79
3, 3837, Note_on_c, 1, 60, 0
3, 3837, Note_on_c, 1, 52, 0
3, 3900, Note_on_c, 1, 53, 88
3, 3959, Note_on_c, 1, 53, 0
3, 3960, Note_on_c, 1, 55, 91
3, 4019, Note_on_c, 1, 55, 0
3, 4020, Note_on_c, 1, 43, 94
3, 4079, Note_on_c, 1, 43, 0
3, 4080, Note_on_c, 1, 48, 96
3, 4200, Note_on_c, 1, 48, 0
3, 4320, Note_on_c, 1, 53, 85
3, 4349, Note_on_c, 1, 53, 0
3, 4350, Note_on_c, 1, 57, 86
3, 4379, Note_on_c, 1, 57, 0
3, 4380, Note_on_c, 1, 60, 87
3, 4409, Note_on_c, 1, 60, 0
3, 4410, Note_on_c, 1, 57, 87
3, 4439, Note_on_c, 1, 57, 0
3, 4440, Note_on_c, 1, 53, 88
3, 4469, Note_on_c, 1, 53, 0
3, 4470, Note_on_c, 1, 57, 89
3, 4499, Note_on_c, 1, 57, 0
3, 4500, Note_on_c, 1, 60, 89
3, 4529, Note_on_c, 1, 60, 0
3, 4530, Note_on_c, 1, 57, 89
3, 4559, Note_on_c, 1, 57, 0
3, 4560, Note_on_c, 1, 53, 89
3, 4681, Note_on_c, 1, 53, 0
3, 4800, Note_on_c, 1, 58, 89
3, 4829, Note_on_c, 1, 58, 0
3, 4830, Note_on_c, 1, 60, 89
3, 4859, Note_on_c, 1, 60, 0
3, 4860, Note_on_c, 1, 57, 89
3, 4889, Note_on_c, 1, 57, 0
3, 4890, Note_on_c, 1, 60, 89
3, 4919, Note_on_c, 1, 60, 0
3, 4920, Note_on_c, 1, 55, 89
3, 4949, Note_on_c, 1, 55, 0
3, 4950, Note_on_c, 1, 60, 89
3, 4979, Note_on_c, 1, 60, 0
3, 4980, Note_on_c, 1, 53, 89
3, 5009, Note_on_c, 1, 53, 0
3, 5010, Note_on_c, 1, 60, 88
3, 5039, Note_on_c, 1, 60, 0
3, 5040, Note_on_c, 1, 52, 88
3, 5220, Note_on_c, 1, 52, 0
3, 5280, Note_on_c, 1, 52, 63
3, 5309, Note_on_c, 1, 52, 0
3, 5310, Note_on_c, 1, 58, 63
3, 5339, Note_on_c, 1, 58, 0
3, 5340, Note_on_c, 1, 60, 63
3, 5369, Note_on_c, 1, 60, 0
3, 5370, Note_on_c, 1, 57, 63
3, 5399, Note_on_c, 1, 57, 0
3, 5400, Note_on_c, 1, 52, 62
3, 5429, Note_on_c, 1, 52, 0
3, 5430, Note_on_c, 1, 58, 62
3, 5459, Note_on_c, 1, 58, 0
3, 5460, Note_on_c, 1, 60, 62
3, 5489, Note_on_c, 1, 60, 0
3, 5490, Note_on_c, 1, 58, 61
3, 5519, Note_on_c, 1, 58, 0
3, 5520, Note_on_c, 1, 52, 61
3, 5644, Note_on_c, 1, 52, 0
3, 5760, Note_on_c, 1, 57, 79
3, 5789, Note_on_c, 1, 57, 0
3, 5790, Note_on_c, 1, 60, 79
3, 5819, Note_on_c, 1, 60, 0
3, 5820, Note_on_c, 1, 55, 79
3, 5849, Note_on_c, 1, 55, 0
3, 5850, Note_on_c, 1, 60, 79
3, 5879, Note_on_c, 1, 60, 0
3, 5880, Note_on_c, 1, 57, 79
3, 5909, Note_on_c, 1, 57, 0
3, 5910, Note_on_c, 1, 60, 79
3, 5939, Note_on_c, 1, 60, 0
3, 5940, Note_on_c, 1, 52, 79
3, 5969, Note_on_c, 1, 52, 0
3, 5970, Note_on_c, 1, 60, 79
3, 5999, Note_on_c, 1, 60, 0
3, 6000, Note_on_c, 1, 53, 79
3, 6113, Note_on_c, 1, 53, 0
3, 6240, Note_on_c, 1, 57, 64
3, 6269, Note_on_c, 1, 57, 0
3, 6270, Note_on_c, 1, 60, 64
3, 6299, Note_on_c, 1, 60, 0
3, 6300, Note_on_c, 1, 57, 64
3, 6329, Note_on_c, 1, 57, 0
3, 6330, Note_on_c, 1, 60, 64
3, 6359, Note_on_c, 1, 60, 0
3, 6360, Note_on_c, 1, 58, 64
3, 6389, Note_on_c, 1, 58, 0
3, 6390, Note_on_c, 1, 60, 65
3, 6419, Note_on_c, 1, 60, 0
3, 6420, Note_on_c, 1, 57, 65
3, 6449, Note_on_c, 1, 57, 0
3, 6450, Note_on_c, 1, 60, 65
3, 6479, Note_on_c, 1, 60, 0
3, 6480, Note_on_c, 1, 58, 66
3, 6509, Note_on_c, 1, 58, 0
3, 6510, Note_on_c, 1, 60, 66
3, 6539, Note_on_c, 1, 60, 0
3, 6540, Note_on_c, 1, 57, 66
3, 6569, Note_on_c, 1, 57, 0
3, 6570, Note_on_c, 1, 60, 66
3, 6599, Note_on_c, 1, 60, 0
3, 6720, Note_on_c, 1, 53, 65
3, 6749, Note_on_c, 1, 53, 0
3, 6750, Note_on_c, 1, 60, 65
3, 6779, Note_on_c, 1, 60, 0
3, 6780, Note_on_c, 1, 53, 65
3, 6809, Note_on_c, 1, 53, 0
3, 6810, Note_on_c, 1, 60, 65
3, 6839, Note_on_c, 1, 60, 0
3, 6840, Note_on_c, 1, 55, 65
3, 6869, Note_on_c, 1, 55, 0
3, 6870, Note_on_c, 1, 60, 65
3, 6899, Note_on_c, 1, 60, 0
3, 6900, Note_on_c, 1, 53, 65
3, 6929, Note_on_c, 1, 53, 0
3, 6930, Note_on_c, 1, 60, 66
3, 6959, Note_on_c, 1, 60, 0
3, 6960, Note_on_c, 1, 55, 66
3, 6989, Note_on_c, 1, 55, 0
3, 6990, Note_on_c, 1, 60, 67
3, 7019, Note_on_c, 1, 60, 0
3, 7020, Note_on_c, 1, 53, 67
3, 7049, Note_on_c, 1, 53, 0
3, 7050, Note_on_c, 1, 60, 67
3, 7079, Note_on_c, 1, 60, 0
3, 7200, Note_on_c, 1, 59, 72
3, 7200, Note_on_c, 1, 53, 72
3, 7437, Note_on_c, 1, 53, 0
3, 7437, Note_on_c, 1, 59, 0
3, 7440, Note_on_c, 1, 52, 72
3, 7440, Note_on_c, 1, 60, 72
3, 7677, Note_on_c, 1, 60, 0
3, 7677, Note_on_c, 1, 52, 0
3, 7680, Note_on_c, 1, 53, 73
3, 7680, Note_on_c, 1, 59, 73
3, 7917, Note_on_c, 1, 59, 0
3, 7917, Note_on_c, 1, 53, 0
3, 7920, Note_on_c, 1, 60, 79
3, 7920, Note_on_c, 1, 52, 79
3, 8157, Note_on_c, 1, 52, 0
3, 8157, Note_on_c, 1, 60, 0
3, 8220, Note_on_c, 1, 53, 88
3, 8279, Note_on_c, 1, 53, 0
3, 8280, Note_on_c, 1, 55, 91
3, 8339, Note_on_c, 1, 55, 0
3, 8340, Note_on_c, 1, 43, 94
3, 8399, Note_on_c, 1, 43, 0
3, 8400, Note_on_c, 1, 48, 96
3, 8520, Note_on_c, 1, 48, 0
3, 8640, Note_on_c, 1, 53, 99
3, 8669, Note_on_c, 1, 53, 0
3, 8670, Note_on_c, 1, 57, 99
3, 8699, Note_on_c, 1, 57, 0
3, 8700, Note_on_c, 1, 60, 99
3, 8729, Note_on_c, 1, 60, 0
3, 8730, Note_on_c, 1, 57, 99
3, 8759, Note_on_c, 1, 57, 0
3, 8760, Note_on_c, 1, 53, 99
3, 8789, Note_on_c, 1, 53, 0
3, 8790, Note_on_c, 1, 57, 99
3, 8819, Note_on_c, 1, 57, 0
3, 8820, Note_on_c, 1, 60, 99
3, 8849, Note_on_c, 1, 60, 0
3, 8850, Note_on_c, 1, 57, 99
3, 8879, Note_on_c, 1, 57, 0
3, 8880, Note_on_c, 1, 53, 99
3, 9005, Note_on_c, 1, 53, 0
3, 9120, Note_on_c, 1, 48, 61
3, 9149, Note_on_c, 1, 48, 0
3, 9150, Note_on_c, 1, 53, 61
3, 9179, Note_on_c, 1, 53, 0
3, 9180, Note_on_c, 1, 47, 61
3, 9209, Note_on_c, 1, 47, 0
3, 9210, Note_on_c, 1, 53, 61
3, 9239, Note_on_c, 1, 53, 0
3, 9240, Note_on_c, 1, 48, 61
3, 9269, Note_on_c, 1, 48, 0
3, 9270, Note_on_c, 1, 53, 61
3, 9299, Note_on_c, 1, 53, 0
3, 9300, Note_on_c, 1, 47, 61
3, 9329, Note_on_c, 1, 47, 0
3, 9330, Note_on_c, 1, 53, 61
3, 9359, Note_on_c, 1, 53, 0
3, 9360, Note_on_c, 1, 48, 60
3, 9473, Note_on_c, 1, 48, 0
3, 9600, Note_on_c, 1, 53, 110
3, 9629, Note_on_c, 1, 53, 0
3, 9630, Note_on_c, 1, 57, 110
3, 9659, Note_on_c, 1, 57, 0
3, 9660, Note_on_c, 1, 60, 110
3, 9689, Note_on_c, 1, 60, 0
3, 9690, Note_on_c, 1, 57, 110
3, 9719, Note_on_c, 1, 57, 0
3, 9720, Note_on_c, 1, 53, 110
3, 9749, Note_on_c, 1, 53, 0
3, 9750, Note_on_c, 1, 57, 110
3, 9779, Note_on_c, 1, 57, 0
3, 9780, Note_on_c, 1, 60, 110
3, 9809, Note_on_c, 1, 60, 0
3, 9810, Note_on_c, 1, 57, 110
3, 9839, Note_on_c, 1, 57, 0
3, 10080, Note_on_c, 1, 46, 65
3, 10109, Note_on_c, 1, 46, 0
3, 10110, Note_on_c, 1, 53, 65
3, 10139, Note_on_c, 1, 53, 0
3, 10140, Note_on_c, 1, 45, 65
3, 10169, Note_on_c, 1, 45, 0
3, 10170, Note_on_c, 1, 53, 66
3, 10199, Note_on_c, 1, 53, 0
3, 10200, Note_on_c, 1, 46, 66
3, 10229, Note_on_c, 1, 46, 0
3, 10230, Note_on_c, 1, 53, 66
3, 10259, Note_on_c, 1, 53, 0
3, 10260, Note_on_c, 1, 45, 66
3, 10289, Note_on_c, 1, 45, 0
3, 10290, Note_on_c, 1, 53, 67
3, 10319, Note_on_c, 1, 53, 0
3, 10320, Note_on_c, 1, 46, 68
3, 10433, Note_on_c, 1, 46, 0
3, 10560, Note_on_c, 1, 54, 64
3, 11040, Note_on_c, 1, 55, 75
3, 11042, Note_on_c, 1, 54, 0
3, 11100, Note_on_c, 1, 55, 0
3, 11100, Note_on_c, 1, 54, 75
3, 11160, Note_on_c, 1, 54, 0
3, 11160, Note_on_c, 1, 55, 75
3, 11220, Note_on_c, 1, 55, 0
3, 11220, Note_on_c, 1, 54, 75
3, 11280, Note_on_c, 1, 54, 0
3, 11280, Note_on_c, 1, 55, 75
3, 11339, Note_on_c, 1, 55, 0
3, 11340, Note_on_c, 1, 62, 75
3, 11399, Note_on_c, 1, 62, 0
3, 11400, Note_on_c, 1, 58, 75
3, 11459, Note_on_c, 1, 58, 0
3, 11460, Note_on_c, 1, 53, 75
3, 11519, Note_on_c, 1, 53, 0
3, 11520, Note_on_c, 1, 52, 75
3, 12000, Note_on_c, 1, 52, 0
3, 12000, Note_on_c, 1, 53, 75
3, 12059, Note_on_c, 1, 53, 0
3, 12060, Note_on_c, 1, 52, 75
3, 12119, Note_on_c, 1, 52, 0
3, 12120, Note_on_c, 1, 53, 75
3, 12179, Note_on_c, 1, 53, 0
3, 12180, Note_on_c, 1, 52, 74
3, 12239, Note_on_c, 1, 52, 0
3, 12240, Note_on_c, 1, 53, 74
3, 12299, Note_on_c, 1, 53, 0
3, 12300, Note_on_c, 1, 60, 74
3, 12359, Note_on_c, 1, 60, 0
3, 12360, Note_on_c, 1, 57, 74
3, 12419, Note_on_c, 1, 57, 0
3, 12420, Note_on_c, 1, 52, 74
3, 12479, Note_on_c, 1, 52, 0
3, 12480, Note_on_c, 1, 50, 74
3, 12714, Note_on_c, 1, 50, 0
3, 12720, Note_on_c, 1, 52, 75
3, 12779, Note_on_c, 1, 52, 0
3, 12780, Note_on_c, 1, 58, 75
3, 12839, Note_on_c, 1, 58, 0
3, 12840, Note_on_c, 1, 55, 75
3, 12899, Note_on_c, 1, 55, 0
3, 12900, Note_on_c, 1, 50, 75
3, 12959, Note_on_c, 1, 50, 0
3, 12960, Note_on_c, 1, 49, 77
3, 13200, Note_on_c, 1, 49, 0
3, 13200, Note_on_c, 1, 50, 82
3, 13259, Note_on_c, 1, 50, 0
3, 13260, Note_on_c, 1, 57, 85
3, 13319, Note_on_c, 1, 57, 0
3, 13320, Note_on_c, 1, 53, 87
3, 13379, Note_on_c, 1, 53, 0
3, 13380, Note_on_c, 1, 48, 89
3, 13439, Note_on_c, 1, 48, 0
3, 13440, Note_on_c, 1, 47, 91
3, 13682, Note_on_c, 1, 47, 0
3, 14160, Note_on_c, 1, 55, 89
3, 14160, Note_on_c, 1, 65, 89
3, 14273, Note_on_c, 1, 65, 0
3, 14273, Note_on_c, 1, 55, 0
3, 14400, Note_on_c, 1, 60, 88
3, 14400, Note_on_c, 1, 64, 88
3, 14459, Note_on_c, 1, 64, 0
3, 14459, Note_on_c, 1, 60, 0
3, 14460, Note_on_c, 1, 67, 88
3, 14519, Note_on_c, 1, 67, 0
3, 14520, Note_on_c, 1, 60, 86
3, 14520, Note_on_c, 1, 64, 86
3, 14579, Note_on_c, 1, 64, 0
3, 14579, Note_on_c, 1, 60, 0
3, 14580, Note_on_c, 1, 67, 86
3, 14639, Note_on_c, 1, 67, 0
3, 14640, Note_on_c, 1, 60, 85
3, 14640, Note_on_c, 1, 64, 85
3, 14699, Note_on_c, 1, 64, 0
3, 14699, Note_on_c, 1, 60, 0
3, 14700, Note_on_c, 1, 67, 84
3, 14759, Note_on_c, 1, 67, 0
3, 14760, Note_on_c, 1, 60, 83
3, 14760, Note_on_c, 1, 64, 83
3, 14819, Note_on_c, 1, 64, 0
3, 14819, Note_on_c, 1, 60, 0
3, 14820, Note_on_c, 1, 67, 83
3, 14879, Note_on_c, 1, 67, 0
3, 14880, Note_on_c, 1, 60, 82
3, 14880, Note_on_c, 1, 64, 82
3, 14939, Note_on_c, 1, 64, 0
3, 14939, Note_on_c, 1, 60, 0
3, 14940, Note_on_c, 1, 67, 81
3, 14999, Note_on_c, 1, 67, 0
3, 15000, Note_on_c, 1, 60, 80
3, 15000, Note_on_c, 1, 64, 80
3, 15059, Note_on_c, 1, 64, 0
3, 15059, Note_on_c, 1, 60, 0
3, 15060, Note_on_c, 1, 67, 80
3, 15119, Note_on_c, 1, 67, 0
3, 15120, Note_on_c, 1, 62, 79
3, 15120, Note_on_c, 1, 65, 79
3, 15179, Note_on_c, 1, 65, 0
3, 15179, Note_on_c, 1, 62, 0
3, 15180, Note_on_c, 1, 67, 78
3, 15239, Note_on_c, 1, 67, 0
3, 15240, Note_on_c, 1, 62, 77
3, 15240, Note_on_c, 1, 65, 77
3, 15299, Note_on_c, 1, 65, 0
3, 15299, Note_on_c, 1, 62, 0
3, 15300, Note_on_c, 1, 67, 76
3, 15359, Note_on_c, 1, 67, 0
3, 15360, Note_on_c, 1, 60, 75
3, 15360, Note_on_c, 1, 64, 75
3, 15419, Note_on_c, 1, 64, 0
3, 15419, Note_on_c, 1, 60, 0
3, 15600, Note_on_c, 1, 60, 71
3, 15600, Note_on_c, 1, 64, 71
3, 15659, Note_on_c, 1, 64, 0
3, 15659, Note_on_c, 1, 60, 0
3, 15840, Note_on_c, 1, 67, 67
3, 15840, Note_on_c, 1, 60, 67
3, 15899, Note_on_c, 1, 60, 0
3, 15899, Note_on_c, 1, 67, 0
3, 16080, Note_on_c, 1, 64, 63
3, 16080, Note_on_c, 1, 70, 63
3, 16080, Note_on_c, 1, 67, 63
3, 16139, Note_on_c, 1, 67, 0
3, 16139, Note_on_c, 1, 70, 0
3, 16139, Note_on_c, 1, 64, 0
3, 16320, Note_on_c, 1, 57, 63
3, 16349, Note_on_c, 1, 57, 0
3, 16350, Note_on_c, 1, 60, 63
3, 16379, Note_on_c, 1, 60, 0
3, 16380, Note_on_c, 1, 57, 63
3, 16409, Note_on_c, 1, 57, 0
3, 16410, Note_on_c, 1, 60, 63
3, 16439, Note_on_c, 1, 60, 0
3, 16440, Note_on_c, 1, 58, 63
3, 16469, Note_on_c, 1, 58, 0
3, 16470, Note_on_c, 1, 60, 63
3, 16499, Note_on_c, 1, 60, 0
3, 16500, Note_on_c, 1, 57, 63
3, 16529, Note_on_c, 1, 57, 0
3, 16530, Note_on_c, 1, 60, 63
3, 16559, Note_on_c, 1, 60, 0
3, 16560, Note_on_c, 1, 58, 63
3, 16589, Note_on_c, 1, 58, 0
3, 16590, Note_on_c, 1, 60, 63
3, 16619, Note_on_c, 1, 60, 0
3, 16620, Note_on_c, 1, 57, 63
3, 16649, Note_on_c, 1, 57, 0
3, 16650, Note_on_c, 1, 60, 63
3, 16679, Note_on_c, 1, 60, 0
3, 16800, Note_on_c, 1, 53, 63
3, 16829, Note_on_c, 1, 53, 0
3, 16830, Note_on_c, 1, 60, 63
3, 16859, Note_on_c, 1, 60, 0
3, 16860, Note_on_c, 1, 53, 63
3, 16889, Note_on_c, 1, 53, 0
3, 16890, Note_on_c, 1, 60, 64
3, 16919, Note_on_c, 1, 60, 0
3, 16920, Note_on_c, 1, 55, 64
3, 16949, Note_on_c, 1, 55, 0
3, 16950, Note_on_c, 1, 60, 64
3, 16979, Note_on_c, 1, 60, 0
3, 16980, Note_on_c, 1, 53, 64
3, 17009, Note_on_c, 1, 53, 0
3, 17010, Note_on_c, 1, 60, 64
3, 17039, Note_on_c, 1, 60, 0
3, 17040, Note_on_c, 1, 55, 64
3, 17069, Note_on_c, 1, 55, 0
3, 17070, Note_on_c, 1, 60, 64
3, 17099, Note_on_c, 1, 60, 0
3, 17100, Note_on_c, 1, 53, 64
3, 17129, Note_on_c, 1, 53, 0
3, 17130, Note_on_c, 1, 60, 64
3, 17159, Note_on_c, 1, 60, 0
3, 17280, Note_on_c, 1, 53, 65
3, 17280, Note_on_c, 1, 59, 65
3, 17517, Note_on_c, 1, 59, 0
3, 17517, Note_on_c, 1, 53, 0
3, 17520, Note_on_c, 1, 52, 64
3, 17520, Note_on_c, 1, 64, 64
3, 17633, Note_on_c, 1, 64, 0
3, 17633, Note_on_c, 1, 52, 0
3, 17760, Note_on_c, 1, 58, 64
3, 17760, Note_on_c, 1, 64, 64
3, 17997, Note_on_c, 1, 64, 0
3, 17997, Note_on_c, 1, 58, 0
3, 18000, Note_on_c, 1, 57, 64
3, 18000, Note_on_c, 1, 65, 64
3, 18113, Note_on_c, 1, 65, 0
3, 18113, Note_on_c, 1, 57, 0
3, 18300, Note_on_c, 1, 58, 67
3, 18359, Note_on_c, 1, 58, 0
3, 18360, Note_on_c, 1, 60, 67
3, 18419, Note_on_c, 1, 60, 0
3, 18420, Note_on_c, 1, 48, 67
3, 18479, Note_on_c, 1, 48, 0
3, 18480, Note_on_c, 1, 53, 67
3, 18593, Note_on_c, 1, 53, 0
3, 18780, Note_on_c, 1, 64, 67
3, 18839, Note_on_c, 1, 64, 0
3, 18840, Note_on_c, 1, 67, 67
3, 18899, Note_on_c, 1, 67, 0
3, 18900, Note_on_c, 1, 70, 67
3, 18959, Note_on_c, 1, 70, 0
3, 18960, Note_on_c, 1, 69, 67
3, 18960, Note_on_c, 1, 65, 67
3, 19073, Note_on_c, 1, 65, 0
3, 19073, Note_on_c, 1, 69, 0
3, 19260, Note_on_c, 1, 64, 69
3, 19319, Note_on_c, 1, 64, 0
3, 19320, Note_on_c, 1, 67, 69
3, 19379, Note_on_c, 1, 67, 0
3, 19380, Note_on_c, 1, 70, 69
3, 19439, Note_on_c, 1, 70, 0
3, 19440, Note_on_c, 1, 65, 69
3, 19440, Note_on_c, 1, 69, 69
3, 19553, Note_on_c, 1, 69, 0
3, 19553, Note_on_c, 1, 65, 0
3, 19740, Note_on_c, 1, 64, 73
3, 19799, Note_on_c, 1, 64, 0
3, 19800, Note_on_c, 1, 67, 74
3, 19859, Note_on_c, 1, 67, 0
3, 19860, Note_on_c, 1, 70, 75
3, 19919, Note_on_c, 1, 70, 0
3, 19920, Note_on_c, 1, 67, 77
3, 19979, Note_on_c, 1, 67, 0
3, 19980, Note_on_c, 1, 64, 78
3, 20039, Note_on_c, 1, 64, 0
3, 20040, Note_on_c, 1, 67, 79
3, 20099, Note_on_c, 1, 67, 0
3, 20100, Note_on_c, 1, 70, 80
3, 20159, Note_on_c, 1, 70, 0
3, 20160, Note_on_c, 1, 65, 81
3, 20160, Note_on_c, 1, 69, 81
3, 20273, Note_on_c, 1, 69, 0
3, 20273, Note_on_c, 1, 65, 0
3, 20400, Note_on_c, 1, 60, 88
3, 20400, Note_on_c, 1, 67, 88
3, 20513, Note_on_c, 1, 67, 0
3, 20513, Note_on_c, 1, 60, 0
3, 20640, Note_on_c, 1, 65, 93
3, 20640, Note_on_c, 1, 57, 93
3, 20753, Note_on_c, 1, 57, 0
3, 20753, Note_on_c, 1, 65, 0
3, 20880, Note_on_c, 1, 48, 101
3, 20880, Note_on_c, 1, 60, 101
3, 20993, Note_on_c, 1, 60, 0
3, 20993, Note_on_c, 1, 48, 0
3, 21120, Note_on_c, 1, 41, 112
3, 21120, Note_on_c, 1, 53, 112
3, 21233, Note_on_c, 1, 53, 0
3, 21233, Note_on_c, 1, 41, 0
3, 21360, Note_on_c, 1, 53, 99
3, 21389, Note_on_c, 1, 53, 0
3, 21390, Note_on_c, 1, 57, 99
3, 21419, Note_on_c, 1, 57, 0
3, 21420, Note_on_c, 1, 60, 99
3, 21449, Note_on_c, 1, 60, 0
3, 21450, Note_on_c, 1, 57, 99
3, 21479, Note_on_c, 1, 57, 0
3, 21480, Note_on_c, 1, 53, 99
3, 21509, Note_on_c, 1, 53, 0
3, 21510, Note_on_c, 1, 57, 99
3, 21539, Note_on_c, 1, 57, 0
3, 21540, Note_on_c, 1, 60, 99
3, 21569, Note_on_c, 1, 60, 0
3, 21570, Note_on_c, 1, 57, 99
3, 21599, Note_on_c, 1, 57, 0
3, 21600, Note_on_c, 1, 53, 99
3, 21725, Note_on_c, 1, 53, 0
3, 21840, Note_on_c, 1, 48, 61
3, 21869, Note_on_c, 1, 48, 0
3, 21870, Note_on_c, 1, 53, 61
3, 21899, Note_on_c, 1, 53, 0
3, 21900, Note_on_c, 1, 47, 61
3, 21929, Note_on_c, 1, 47, 0
3, 21930, Note_on_c, 1, 53, 61
3, 21959, Note_on_c, 1, 53, 0
3, 21960, Note_on_c, 1, 48, 61
3, 21989, Note_on_c, 1, 48, 0
3, 21990, Note_on_c, 1, 53, 61
3, 22019, Note_on_c, 1, 53, 0
3, 22020, Note_on_c, 1, 47, 61
3, 22049, Note_on_c, 1, 47, 0
3, 22050, Note_on_c, 1, 53, 61
3, 22079, Note_on_c, 1, 53, 0
3, 22080, Note_on_c, 1, 48, 60
3, 22193, Note_on_c, 1, 48, 0
3, 22320, Note_on_c, 1, 53, 110
3, 22349, Note_on_c, 1, 53, 0
3, 22350, Note_on_c, 1, 57, 110
3, 22379, Note_on_c, 1, 57, 0
3, 22380, Note_on_c, 1, 60, 110
3, 22409, Note_on_c, 1, 60, 0
3, 22410, Note_on_c, 1, 57, 110
3, 22439, Note_on_c, 1, 57, 0
3, 22440, Note_on_c, 1, 53, 110
3, 22469, Note_on_c, 1, 53, 0
3, 22470, Note_on_c, 1, 57, 110
3, 22499, Note_on_c, 1, 57, 0
3, 22500, Note_on_c, 1, 60, 110
3, 22529, Note_on_c, 1, 60, 0
3, 22530, Note_on_c, 1, 57, 110
3, 22559, Note_on_c, 1, 57, 0
3, 22800, Note_on_c, 1, 46, 65
3, 22829, Note_on_c, 1, 46, 0
3, 22830, Note_on_c, 1, 53, 65
3, 22859, Note_on_c, 1, 53, 0
3, 22860, Note_on_c, 1, 45, 65
3, 22889, Note_on_c, 1, 45, 0
3, 22890, Note_on_c, 1, 53, 66
3, 22919, Note_on_c, 1, 53, 0
3, 22920, Note_on_c, 1, 46, 66
3, 22949, Note_on_c, 1, 46, 0
3, 22950, Note_on_c, 1, 53, 66
3, 22979, Note_on_c, 1, 53, 0
3, 22980, Note_on_c, 1, 45, 66
3, 23009, Note_on_c, 1, 45, 0
3, 23010, Note_on_c, 1, 53, 67
3, 23039, Note_on_c, 1, 53, 0
3, 23040, Note_on_c, 1, 46, 68
3, 23153, Note_on_c, 1, 46, 0
3, 23280, Note_on_c, 1, 54, 64
3, 23760, Note_on_c, 1, 55, 75
3, 23762, Note_on_c, 1, 54, 0
3, 23820, Note_on_c, 1, 55, 0
3, 23820, Note_on_c, 1, 54, 75
3, 23880, Note_on_c, 1, 54, 0
3, 23880, Note_on_c, 1, 55, 75
3, 23940, Note_on_c, 1, 55, 0
3, 23940, Note_on_c, 1, 54, 75
3, 24000, Note_on_c, 1, 54, 0
3, 24000, Note_on_c, 1, 55, 75
3, 24059, Note_on_c, 1, 55, 0
3, 24060, Note_on_c, 1, 62, 75
3, 24119, Note_on_c, 1, 62, 0
3, 24120, Note_on_c, 1, 58, 75
3, 24179, Note_on_c, 1, 58, 0
3, 24180, Note_on_c, 1, 53, 75
3, 24239, Note_on_c, 1, 53, 0
3, 24240, Note_on_c, 1, 52, 75
3, 24720, Note_on_c, 1, 52, 0
3, 24720, Note_on_c, 1, 53, 75
3, 24779, Note_on_c, 1, 53, 0
3, 24780, Note_on_c, 1, 52, 75
3, 24839, Note_on_c, 1, 52, 0
3, 24840, Note_on_c, 1, 53, 75
3, 24899, Note_on_c, 1, 53, 0
3, 24900, Note_on_c, 1, 52, 74
3, 24959, Note_on_c, 1, 52, 0
3, 24960, Note_on_c, 1, 53, 74
3, 25019, Note_on_c, 1, 53, 0
3, 25020, Note_on_c, 1, 60, 74
3, 25079, Note_on_c, 1, 60, 0
3, 25080, Note_on_c, 1, 57, 74
3, 25139, Note_on_c, 1, 57, 0
3, 25140, Note_on_c, 1, 52, 74
3, 25199, Note_on_c, 1, 52, 0
3, 25200, Note_on_c, 1, 50, 74
3, 25434, Note_on_c, 1, 50, 0
3, 25440, Note_on_c, 1, 52, 75
3, 25499, Note_on_c, 1, 52, 0
3, 25500, Note_on_c, 1, 58, 75
3, 25559, Note_on_c, 1, 58, 0
3, 25560, Note_on_c, 1, 55, 75
3, 25619, Note_on_c, 1, 55, 0
3, 25620, Note_on_c, 1, 50, 75
3, 25679, Note_on_c, 1, 50, 0
3, 25680, Note_on_c, 1, 49, 77
3, 25920, Note_on_c, 1, 49, 0
3, 25920, Note_on_c, 1, 50, 82
3, 25979, Note_on_c, 1, 50, 0
3, 25980, Note_on_c, 1, 57, 85
3, 26039, Note_on_c, 1, 57, 0
3, 26040, Note_on_c, 1, 53, 87
3, 26099, Note_on_c, 1, 53, 0
3, 26100, Note_on_c, 1, 48, 89
3, 26159, Note_on_c, 1, 48, 0
3, 26160, Note_on_c, 1, 47, 91
3, 26402, Note_on_c, 1, 47, 0
3, 26880, Note_on_c, 1, 55, 89
3, 26880, Note_on_c, 1, 65, 89
3, 26993, Note_on_c, 1, 65, 0
3, 26993, Note_on_c, 1, 55, 0
3, 27120, Note_on_c, 1, 60, 88
3, 27120, Note_on_c, 1, 64, 88
3, 27179, Note_on_c, 1, 64, 0
3, 27179, Note_on_c, 1, 60, 0
3, 27180, Note_on_c, 1, 67, 88
3, 27239, Note_on_c, 1, 67, 0
3, 27240, Note_on_c, 1, 60, 86
3, 27240, Note_on_c, 1, 64, 86
3, 27299, Note_on_c, 1, 64, 0
3, 27299, Note_on_c, 1, 60, 0
3, 27300, Note_on_c, 1, 67, 86
3, 27359, Note_on_c, 1, 67, 0
3, 27360, Note_on_c, 1, 60, 85
3, 27360, Note_on_c, 1, 64, 85
3, 27419, Note_on_c, 1, 64, 0
3, 27419, Note_on_c, 1, 60, 0
3, 27420, Note_on_c, 1, 67, 84
3, 27479, Note_on_c, 1, 67, 0
3, 27480, Note_on_c, 1, 60, 83
3, 27480, Note_on_c, 1, 64, 83
3, 27539, Note_on_c, 1, 64, 0
3, 27539, Note_on_c, 1, 60, 0
3, 27540, Note_on_c, 1, 67, 83
3, 27599, Note_on_c, 1, 67, 0
3, 27600, Note_on_c, 1, 60, 82
3, 27600, Note_on_c, 1, 64, 82
3, 27659, Note_on_c, 1, 64, 0
3, 27659, Note_on_c, 1, 60, 0
3, 27660, Note_on_c, 1, 67, 81
3, 27719, Note_on_c, 1, 67, 0
3, 27720, Note_on_c, 1, 60, 80
3, 27720, Note_on_c, 1, 64, 80
3, 27779, Note_on_c, 1, 64, 0
3, 27779, Note_on_c, 1, 60, 0
3, 27780, Note_on_c, 1, 67, 80
3, 27839, Note_on_c, 1, 67, 0
3, 27840, Note_on_c, 1, 62, 79
3, 27840, Note_on_c, 1, 65, 79
3, 27899, Note_on_c, 1, 65, 0
3, 27899, Note_on_c, 1, 62, 0
3, 27900, Note_on_c, 1, 67, 78
3, 27959, Note_on_c, 1, 67, 0
3, 27960, Note_on_c, 1, 62, 77
3, 27960, Note_on_c, 1, 65, 77
3, 28019, Note_on_c, 1, 65, 0
3, 28019, Note_on_c, 1, 62, 0
3, 28020, Note_on_c, 1, 67, 76
3, 28079, Note_on_c, 1, 67, 0
3, 28080, Note_on_c, 1, 60, 75
3, 28080, Note_on_c, 1, 64, 75
3, 28139, Note_on_c, 1, 64, 0
3, 28139, Note_on_c, 1, 60, 0
3, 28320, Note_on_c, 1, 60, 71
3, 28320, Note_on_c, 1, 64, 71
3, 28379, Note_on_c, 1, 64, 0
3, 28379, Note_on_c, 1, 60, 0
3, 28560, Note_on_c, 1, 67, 67
3, 28560, Note_on_c, 1, 60, 67
3, 28619, Note_on_c, 1, 60, 0
3, 28619, Note_on_c, 1, 67, 0
3, 28800, Note_on_c, 1, 64, 63
3, 28800, Note_on_c, 1, 70, 63
3, 28800, Note_on_c, 1, 67, 63
3, 28859, Note_on_c, 1, 67, 0
3, 28859, Note_on_c, 1, 70, 0
3, 28859, Note_on_c, 1, 64, 0
3, 29040, Note_on_c, 1, 57, 63
3, 29069, Note_on_c, 1, 57, 0
3, 29070, Note_on_c, 1, 60, 63
3, 29099, Note_on_c, 1, 60, 0
3, 29100, Note_on_c, 1, 57, 63
3, 29129, Note_on_c, 1, 57, 0
3, 29130, Note_on_c, 1, 60, 63
3, 29159, Note_on_c, 1, 60, 0
3, 29160, Note_on_c, 1, 58, 63
3, 29189, Note_on_c, 1, 58, 0
3, 29190, Note_on_c, 1, 60, 63
3, 29219, Note_on_c, 1, 60, 0
3, 29220, Note_on_c, 1, 57, 63
3, 29249, Note_on_c, 1, 57, 0
3, 29250, Note_on_c, 1, 60, 63
3, 29279, Note_on_c, 1, 60, 0
3, 29280, Note_on_c, 1, 58, 63
3, 29309, Note_on_c, 1, 58, 0
3, 29310, Note_on_c, 1, 60, 63
3, 29339, Note_on_c, 1, 60, 0
3, 29340, Note_on_c, 1, 57, 63
3, 29369, Note_on_c, 1, 57, 0
3, 29370, Note_on_c, 1, 60, 63
3, 29399, Note_on_c, 1, 60, 0
3, 29520, Note_on_c, 1, 53, 63
3, 29549, Note_on_c, 1, 53, 0
3, 29550, Note_on_c, 1, 60, 63
3, 29579, Note_on_c, 1, 60, 0
3, 29580, Note_on_c, 1, 53, 63
3, 29609, Note_on_c, 1, 53, 0
3, 29610, Note_on_c, 1, 60, 64
3, 29639, Note_on_c, 1, 60, 0
3, 29640, Note_on_c, 1, 55, 64
3, 29669, Note_on_c, 1, 55, 0
3, 29670, Note_on_c, 1, 60, 64
3, 29699, Note_on_c, 1, 60, 0
3, 29700, Note_on_c, 1, 53, 64
3, 29729, Note_on_c, 1, 53, 0
3, 29730, Note_on_c, 1, 60, 64
3, 29759, Note_on_c, 1, 60, 0
3, 29760, Note_on_c, 1, 55, 64
3, 29789, Note_on_c, 1, 55, 0
3, 29790, Note_on_c, 1, 60, 64
3, 29819, Note_on_c, 1, 60, 0
3, 29820, Note_on_c, 1, 53, 64
3, 29849, Note_on_c, 1, 53, 0
3, 29850, Note_on_c, 1, 60, 64
3, 29879, Note_on_c, 1, 60, 0
3, 30000, Note_on_c, 1, 53, 65
3, 30000, Note_on_c, 1, 59, 65
3, 30237, Note_on_c, 1, 59, 0
3, 30237, Note_on_c, 1, 53, 0
3, 30240, Note_on_c, 1, 52, 64
3, 30240, Note_on_c, 1, 64, 64
3, 30353, Note_on_c, 1, 64, 0
3, 30353, Note_on_c, 1, 52, 0
3, 30480, Note_on_c, 1, 58, 64
3, 30480, Note_on_c, 1, 64, 64
3, 30717, Note_on_c, 1, 64, 0
3, 30717, Note_on_c, 1, 58, 0
3, 30720, Note_on_c, 1, 57, 64
3, 30720, Note_on_c, 1, 65, 64
3, 30833, Note_on_c, 1, 65, 0
3, 30833, Note_on_c, 1, 57, 0
3, 31020, Note_on_c, 1, 58, 67
3, 31079, Note_on_c, 1, 58, 0
3, 31080, Note_on_c, 1, 60, 67
3, 31139, Note_on_c, 1, 60, 0
3, 31140, Note_on_c, 1, 48, 67
3, 31199, Note_on_c, 1, 48, 0
3, 31200, Note_on_c, 1, 53, 67
3, 31313, Note_on_c, 1, 53, 0
3, 31500, Note_on_c, 1, 64, 67
3, 31559, Note_on_c, 1, 64, 0
3, 31560, Note_on_c, 1, 67, 67
3, 31619, Note_on_c, 1, 67, 0
3, 31620, Note_on_c, 1, 70, 67
3, 31679, Note_on_c, 1, 70, 0
3, 31680, Note_on_c, 1, 69, 67
3, 31680, Note_on_c, 1, 65, 67
3, 31793, Note_on_c, 1, 65, 0
3, 31793, Note_on_c, 1, 69, 0
3, 31980, Note_on_c, 1, 64, 69
3, 32039, Note_on_c, 1, 64, 0
3, 32040, Note_on_c, 1, 67, 69
3, 32099, Note_on_c, 1, 67, 0
3, 32100, Note_on_c, 1, 70, 69
3, 32159, Note_on_c, 1, 70, 0
3, 32160, Note_on_c, 1, 65, 69
3, 32160, Note_on_c, 1, 69, 69
3, 32273, Note_on_c, 1, 69, 0
3, 32273, Note_on_c, 1, 65, 0
3, 32460, Note_on_c, 1, 64, 73
3, 32519, Note_on_c, 1, 64, 0
3, 32520, Note_on_c, 1, 67, 74
3, 32579, Note_on_c, 1, 67, 0
3, 32580, Note_on_c, 1, 70, 75
3, 32639, Note_on_c, 1, 70, 0
3, 32640, Note_on_c, 1, 67, 77
3, 32699, Note_on_c, 1, 67, 0
3, 32700, Note_on_c, 1, 64, 78
3, 32759, Note_on_c, 1, 64, 0
3, 32760, Note_on_c, 1, 67, 79
3, 32819, Note_on_c, 1, 67, 0
3, 32820, Note_on_c, 1, 70, 80
3, 32879, Note_on_c, 1, 70, 0
3, 32880, Note_on_c, 1, 65, 81
3, 32880, Note_on_c, 1, 69, 81
3, 32993, Note_on_c, 1, 69, 0
3, 32993, Note_on_c, 1, 65, 0
3, 33120, Note_on_c, 1, 60, 88
3, 33120, Note_on_c, 1, 67, 88
3, 33233, Note_on_c, 1, 67, 0
3, 33233, Note_on_c, 1, 60, 0
3, 33360, Note_on_c, 1, 65, 93
3, 33360, Note_on_c, 1, 57, 93
3, 33473, Note_on_c, 1, 57, 0
3, 33473, Note_on_c, 1, 65, 0
3, 33600, Note_on_c, 1, 48, 101
3, 33600, Note_on_c, 1, 60, 101
3, 33713, Note_on_c, 1, 60, 0
3, 33713, Note_on_c, 1, 48, 0
3, 33840, Note_on_c, 1, 41, 112
3, 33840, Note_on_c, 1, 53, 112
3, 33953, Note_on_c, 1, 53, 0
3, 33953, Note_on_c, 1, 41, 0
3, 34800, Note_on_c, 1, 57, 73
3, 34860, Note_on_c, 1, 57, 0
3, 34860, Note_on_c, 1, 53, 73
3, 34920, Note_on_c, 1, 53, 0
3, 34920, Note_on_c, 1, 56, 72
3, 34980, Note_on_c, 1, 56, 0
3, 34980, Note_on_c, 1, 53, 72
3, 35040, Note_on_c, 1, 53, 0
3, 35040, Note_on_c, 1, 57, 72
3, 35096, Note_on_c, 1, 57, 0
3, 35100, Note_on_c, 1, 53, 72
3, 35156, Note_on_c, 1, 53, 0
3, 35160, Note_on_c, 1, 57, 72
3, 35216, Note_on_c, 1, 57, 0
3, 35220, Note_on_c, 1, 53, 72
3, 35276, Note_on_c, 1, 53, 0
3, 35280, Note_on_c, 1, 58, 73
3, 35336, Note_on_c, 1, 58, 0
3, 35340, Note_on_c, 1, 53, 73
3, 35396, Note_on_c, 1, 53, 0
3, 35400, Note_on_c, 1, 57, 74
3, 35456, Note_on_c, 1, 57, 0
3, 35460, Note_on_c, 1, 53, 75
3, 35516, Note_on_c, 1, 53, 0
3, 35520, Note_on_c, 1, 58, 75
3, 35576, Note_on_c, 1, 58, 0
3, 35580, Note_on_c, 1, 53, 76
3, 35636, Note_on_c, 1, 53, 0
3, 35640, Note_on_c, 1, 58, 76
3, 35696, Note_on_c, 1, 58, 0
3, 35700, Note_on_c, 1, 53, 76
3, 35759, Note_on_c, 1, 53, 0
3, 35760, Note_on_c, 1, 55, 76
3, 35760, Note_on_c, 1, 58, 76
3, 35819, Note_on_c, 1, 58, 0
3, 35819, Note_on_c, 1, 55, 0
3, 35820, Note_on_c, 1, 48, 76
3, 35879, Note_on_c, 1, 48, 0
3, 35880, Note_on_c, 1, 58, 76
3, 35880, Note_on_c, 1, 55, 76
3, 35939, Note_on_c, 1, 55, 0
3, 35939, Note_on_c, 1, 58, 0
3, 35940, Note_on_c, 1, 48, 76
3, 35999, Note_on_c, 1, 48, 0
3, 36000, Note_on_c, 1, 53, 76
3, 36000, Note_on_c, 1, 57, 76
3, 36059, Note_on_c, 1, 57, 0
3, 36059, Note_on_c, 1, 53, 0
3, 36060, Note_on_c, 1, 48, 76
3, 36119, Note_on_c, 1, 48, 0
3, 36120, Note_on_c, 1, 53, 77
3, 36120, Note_on_c, 1, 57, 77
3, 36179, Note_on_c, 1, 57, 0
3, 36179, Note_on_c, 1, 53, 0
3, 36180, Note_on_c, 1, 48, 78
3, 36239, Note_on_c, 1, 48, 0
3, 36240, Note_on_c, 1, 52, 78
3, 36240, Note_on_c, 1, 55, 78
3, 36299, Note_on_c, 1, 55, 0
3, 36299, Note_on_c, 1, 52, 0
3, 36300, Note_on_c, 1, 48, 79
3, 36359, Note_on_c, 1, 48, 0
3, 36360, Note_on_c, 1, 53, 79
3, 36360, Note_on_c, 1, 57, 79
3, 36419, Note_on_c, 1, 57, 0
3, 36419, Note_on_c, 1, 53, 0
3, 36420, Note_on_c, 1, 48, 79
3, 36480, Note_on_c, 1, 60, 79
3, 36480, Note_on_c, 1, 55, 79
3, 36480, Note_on_c, 1, 52, 79
3, 36480, Note_on_c, 1, 48, 79
3, 36482, Note_on_c, 1, 48, 0
3, 36600, Note_on_c, 1, 52, 0
3, 36600, Note_on_c, 1, 60, 0
3, 36600, Note_on_c, 1, 55, 0
3, 36600, Note_on_c, 1, 48, 0
3, 36720, Note_on_c, 1, 57, 110
3, 36776, Note_on_c, 1, 57, 0
3, 36780, Note_on_c, 1, 53, 110
3, 36836, Note_on_c, 1, 53, 0
3, 36840, Note_on_c, 1, 56, 110
3, 36896, Note_on_c, 1, 56, 0
3, 36900, Note_on_c, 1, 53, 110
3, 36956, Note_on_c, 1, 53, 0
3, 36960, Note_on_c, 1, 57, 110
3, 37016, Note_on_c, 1, 57, 0
3, 37020, Note_on_c, 1, 53, 110
3, 37076, Note_on_c, 1, 53, 0
3, 37080, Note_on_c, 1, 57, 110
3, 37136, Note_on_c, 1, 57, 0
3, 37140, Note_on_c, 1, 53, 110
3, 37196, Note_on_c, 1, 53, 0
3, 37200, Note_on_c, 1, 58, 110
3, 37256, Note_on_c, 1, 58, 0
3, 37260, Note_on_c, 1, 53, 110
3, 37316, Note_on_c, 1, 53, 0
3, 37320, Note_on_c, 1, 57, 110
3, 37376, Note_on_c, 1, 57, 0
3, 37380, Note_on_c, 1, 53, 110
3, 37436, Note_on_c, 1, 53, 0
3, 37440, Note_on_c, 1, 58, 110
3, 37496, Note_on_c, 1, 58, 0
3, 37500, Note_on_c, 1, 53, 110
3, 37556, Note_on_c, 1, 53, 0
3, 37560, Note_on_c, 1, 58, 110
3, 37616, Note_on_c, 1, 58, 0
3, 37620, Note_on_c, 1, 53, 110
3, 37679, Note_on_c, 1, 53, 0
3, 37680, Note_on_c, 1, 55, 110
3, 37680, Note_on_c, 1, 58, 110
3, 37739, Note_on_c, 1, 58, 0
3, 37739, Note_on_c, 1, 55, 0
3, 37740, Note_on_c, 1, 48, 110
3, 37799, Note_on_c, 1, 48, 0
3, 37800, Note_on_c, 1, 55, 110
3, 37800, Note_on_c, 1, 58, 110
3, 37859, Note_on_c, 1, 58, 0
3, 37859, Note_on_c, 1, 55, 0
3, 37860, Note_on_c, 1, 48, 110
3, 37919, Note_on_c, 1, 48, 0
3, 37920, Note_on_c, 1, 53, 110
3, 37920, Note_on_c, 1, 57, 110
3, 38041, Note_on_c, 1, 57, 0
3, 38045, Note_on_c, 1, 53, 0
3, 38160, Note_on_c, 1, 58, 110
3, 38219, Note_on_c, 1, 58, 0
3, 38220, Note_on_c, 1, 62, 110
3, 38279, Note_on_c, 1, 62, 0
3, 38280, Note_on_c, 1, 55, 110
3, 38280, Note_on_c, 1, 48, 110
3, 38339, Note_on_c, 1, 48, 0
3, 38339, Note_on_c, 1, 55, 0
3, 38340, Note_on_c, 1, 58, 110
3, 38399, Note_on_c, 1, 58, 0
3, 38400, Note_on_c, 1, 57, 110
3, 38400, Note_on_c, 1, 53, 110
3, 38459, Note_on_c, 1, 53, 0
3, 38459, Note_on_c, 1, 57, 0
3, 38460, Note_on_c, 1, 60, 110
3, 38519, Note_on_c, 1, 60, 0
3, 38520, Note_on_c, 1, 57, 110
3, 38520, Note_on_c, 1, 53, 110
3, 38579, Note_on_c, 1, 53, 0
3, 38579, Note_on_c, 1, 57, 0
3, 38640, Note_on_c, 1, 57, 73
3, 38700, Note_on_c, 1, 57, 0
3, 38700, Note_on_c, 1, 53, 73
3, 38760, Note_on_c, 1, 53, 0
3, 38760, Note_on_c, 1, 56, 72
3, 38820, Note_on_c, 1, 56, 0
3, 38820, Note_on_c, 1, 53, 72
3, 38880, Note_on_c, 1, 53, 0
3, 38880, Note_on_c, 1, 57, 72
3, 38936, Note_on_c, 1, 57, 0
3, 38940, Note_on_c, 1, 53, 72
3, 38996, Note_on_c, 1, 53, 0
3, 39000, Note_on_c, 1, 57, 72
3, 39056, Note_on_c, 1, 57, 0
3, 39060, Note_on_c, 1, 53, 72
3, 39116, Note_on_c, 1, 53, 0
3, 39120, Note_on_c, 1, 58, 73
3, 39176, Note_on_c, 1, 58, 0
3, 39180, Note_on_c, 1, 53, 73
3, 39236, Note_on_c, 1, 53, 0
3, 39240, Note_on_c, 1, 57, 74
3, 39296, Note_on_c, 1, 57, 0
3, 39300, Note_on_c, 1, 53, 75
3, 39356, Note_on_c, 1, 53, 0
3, 39360, Note_on_c, 1, 58, 75
3, 39416, Note_on_c, 1, 58, 0
3, 39420, Note_on_c, 1, 53, 76
3, 39476, Note_on_c, 1, 53, 0
3, 39480, Note_on_c, 1, 58, 76
3, 39536, Note_on_c, 1, 58, 0
3, 39540, Note_on_c, 1, 53, 76
3, 39599, Note_on_c, 1, 53, 0
3, 39600, Note_on_c, 1, 55, 76
3, 39600, Note_on_c, 1, 58, 76
3, 39659, Note_on_c, 1, 58, 0
3, 39659, Note_on_c, 1, 55, 0
3, 39660, Note_on_c, 1, 48, 76
3, 39719, Note_on_c, 1, 48, 0
3, 39720, Note_on_c, 1, 58, 76
3, 39720, Note_on_c, 1, 55, 76
3, 39779, Note_on_c, 1, 55, 0
3, 39779, Note_on_c, 1, 58, 0
3, 39780, Note_on_c, 1, 48, 76
3, 39839, Note_on_c, 1, 48, 0
3, 39840, Note_on_c, 1, 53, 76
3, 39840, Note_on_c, 1, 57, 76
3, 39899, Note_on_c, 1, 57, 0
3, 39899, Note_on_c, 1, 53, 0
3, 39900, Note_on_c, 1, 48, 76
3, 39959, Note_on_c, 1, 48, 0
3, 39960, Note_on_c, 1, 53, 77
3, 39960, Note_on_c, 1, 57, 77
3, 40019, Note_on_c, 1, 57, 0
3, 40019, Note_on_c, 1, 53, 0
3, 40020, Note_on_c, 1, 48, 78
3, 40079, Note_on_c, 1, 48, 0
3, 40080, Note_on_c, 1, 52, 78
3, 40080, Note_on_c, 1, 55, 78
3, 40139, Note_on_c, 1, 55, 0
3, 40139, Note_on_c, 1, 52, 0
3, 40140, Note_on_c, 1, 48, 79
3, 40199, Note_on_c, 1, 48, 0
3, 40200, Note_on_c, 1, 53, 79
3, 40200, Note_on_c, 1, 57, 79
3, 40259, Note_on_c, 1, 57, 0
3, 40259, Note_on_c, 1, 53, 0
3, 40260, Note_on_c, 1, 48, 79
3, 40320, Note_on_c, 1, 60, 79
3, 40320, Note_on_c, 1, 55, 79
3, 40320, Note_on_c, 1, 52, 79
3, 40320, Note_on_c, 1, 48, 79
3, 40322, Note_on_c, 1, 48, 0
3, 40440, Note_on_c, 1, 52, 0
3, 40440, Note_on_c, 1, 60, 0
3, 40440, Note_on_c, 1, 55, 0
3, 40440, Note_on_c, 1, 48, 0
3, 40560, Note_on_c, 1, 57, 79
3, 40616, Note_on_c, 1, 57, 0
3, 40620, Note_on_c, 1, 53, 79
3, 40676, Note_on_c, 1, 53, 0
3, 40680, Note_on_c, 1, 56, 79
3, 40736, Note_on_c, 1, 56, 0
3, 40740, Note_on_c, 1, 53, 79
3, 40796, Note_on_c, 1, 53, 0
3, 40800, Note_on_c, 1, 57, 79
3, 40856, Note_on_c, 1, 57, 0
3, 40860, Note_on_c, 1, 53, 79
3, 40916, Note_on_c, 1, 53, 0
3, 40920, Note_on_c, 1, 57, 79
3, 40976, Note_on_c, 1, 57, 0
3, 40980, Note_on_c, 1, 53, 79
3, 41036, Note_on_c, 1, 53, 0
3, 41040, Note_on_c, 1, 58, 79
3, 41096, Note_on_c, 1, 58, 0
3, 41100, Note_on_c, 1, 53, 79
3, 41156, Note_on_c, 1, 53, 0
3, 41160, Note_on_c, 1, 57, 79
3, 41216, Note_on_c, 1, 57, 0
3, 41220, Note_on_c, 1, 53, 79
3, 41276, Note_on_c, 1, 53, 0
3, 41280, Note_on_c, 1, 58, 79
3, 41336, Note_on_c, 1, 58, 0
3, 41340, Note_on_c, 1, 53, 79
3, 41396, Note_on_c, 1, 53, 0
3, 41400, Note_on_c, 1, 58, 80
3, 41456, Note_on_c, 1, 58, 0
3, 41460, Note_on_c, 1, 53, 80
3, 41519, Note_on_c, 1, 53, 0
3, 41520, Note_on_c, 1, 55, 80
3, 41520, Note_on_c, 1, 58, 80
3, 41579, Note_on_c, 1, 58, 0
3, 41579, Note_on_c, 1, 55, 0
3, 41580, Note_on_c, 1, 48, 80
3, 41639, Note_on_c, 1, 48, 0
3, 41640, Note_on_c, 1, 55, 80
3, 41640, Note_on_c, 1, 58, 80
3, 41699, Note_on_c, 1, 58, 0
3, 41699, Note_on_c, 1, 55, 0
3, 41700, Note_on_c, 1, 48, 80
3, 41759, Note_on_c, 1, 48, 0
3, 41760, Note_on_c, 1, 53, 80
3, 41760, Note_on_c, 1, 57, 80
3, 41881, Note_on_c, 1, 57, 0
3, 41885, Note_on_c, 1, 53, 0
3, 42000, Note_on_c, 1, 58, 68
3, 42059, Note_on_c, 1, 58, 0
3, 42060, Note_on_c, 1, 62, 68
3, 42119, Note_on_c, 1, 62, 0
3, 42120, Note_on_c, 1, 55, 68
3, 42120, Note_on_c, 1, 48, 68
3, 42179, Note_on_c, 1, 48, 0
3, 42179, Note_on_c, 1, 55, 0
3, 42180, Note_on_c, 1, 58, 68
3, 42239, Note_on_c, 1, 58, 0
3, 42240, Note_on_c, 1, 57, 68
3, 42240, Note_on_c, 1, 53, 68
3, 42299, Note_on_c, 1, 53, 0
3, 42299, Note_on_c, 1, 57, 0
3, 42300, Note_on_c, 1, 60, 68
3, 42359, Note_on_c, 1, 60, 0
3, 42360, Note_on_c, 1, 57, 68
3, 42360, Note_on_c, 1, 53, 68
3, 42419, Note_on_c, 1, 53, 0
3, 42419, Note_on_c, 1, 57, 0
3, 42480, Note_on_c, 1, 60, 68
3, 42480, Note_on_c, 1, 64, 68
3, 42536, Note_on_c, 1, 64, 0
3, 42536, Note_on_c, 1, 60, 0
3, 42540, Note_on_c, 1, 60, 68
3, 42540, Note_on_c, 1, 64, 68
3, 42596, Note_on_c, 1, 64, 0
3, 42596, Note_on_c, 1, 60, 0
3, 42600, Note_on_c, 1, 60, 68
3, 42600, Note_on_c, 1, 63, 68
3, 42656, Note_on_c, 1, 63, 0
3, 42656, Note_on_c, 1, 60, 0
3, 42660, Note_on_c, 1, 60, 68
3, 42660, Note_on_c, 1, 63, 68
3, 42716, Note_on_c, 1, 63, 0
3, 42716, Note_on_c, 1, 60, 0
3, 42720, Note_on_c, 1, 60, 68
3, 42720, Note_on_c, 1, 64, 68
3, 42840, Note_on_c, 1, 64, 0
3, 42840, Note_on_c, 1, 60, 0
3, 42960, Note_on_c, 1, 62, 68
3, 42960, Note_on_c, 1, 55, 68
3, 43016, Note_on_c, 1, 55, 0
3, 43016, Note_on_c, 1, 62, 0
3, 43020, Note_on_c, 1, 55, 68
3, 43020, Note_on_c, 1, 62, 68
3, 43076, Note_on_c, 1, 62, 0
3, 43076, Note_on_c, 1, 55, 0
3, 43080, Note_on_c, 1, 55, 68
3, 43080, Note_on_c, 1, 61, 68
3, 43136, Note_on_c, 1, 61, 0
3, 43136, Note_on_c, 1, 55, 0
3, 43140, Note_on_c, 1, 61, 68
3, 43140, Note_on_c, 1, 55, 68
3, 43196, Note_on_c, 1, 55, 0
3, 43196, Note_on_c, 1, 61, 0
3, 43200, Note_on_c, 1, 55, 68
3, 43200, Note_on_c, 1, 62, 68
3, 43319, Note_on_c, 1, 62, 0
3, 43321, Note_on_c, 1, 55, 0
3, 43440, Note_on_c, 1, 60, 69
3, 43440, Note_on_c, 1, 64, 69
3, 43680, Note_on_c, 1, 60, 0
3, 43680, Note_on_c, 1, 62, 69
3, 43680, Note_on_c, 1, 55, 69
3, 43685, Note_on_c, 1, 64, 0
3, 43920, Note_on_c, 1, 60, 69
3, 43920, Note_on_c, 1, 64, 69
3, 43923, Note_on_c, 1, 55, 0
3, 43923, Note_on_c, 1, 62, 0
3, 44160, Note_on_c, 1, 62, 69
3, 44160, Note_on_c, 1, 55, 69
3, 44163, Note_on_c, 1, 60, 0
3, 44163, Note_on_c, 1, 64, 0
3, 44400, Note_on_c, 1, 60, 73
3, 44403, Note_on_c, 1, 62, 0
3, 44403, Note_on_c, 1, 55, 0
3, 44516, Note_on_c, 1, 60, 0
3, 44520, Note_on_c, 1, 65, 75
3, 44636, Note_on_c, 1, 65, 0
3, 44640, Note_on_c, 1, 67, 76
3, 44756, Note_on_c, 1, 67, 0
3, 44760, Note_on_c, 1, 55, 76
3, 44876, Note_on_c, 1, 55, 0
3, 44880, Note_on_c, 1, 60, 77
3, 44939, Note_on_c, 1, 60, 0
3, 45360, Note_on_c, 1, 57, 79
3, 45416, Note_on_c, 1, 57, 0
3, 45420, Note_on_c, 1, 53, 79
3, 45476, Note_on_c, 1, 53, 0
3, 45480, Note_on_c, 1, 56, 79
3, 45536, Note_on_c, 1, 56, 0
3, 45540, Note_on_c, 1, 53, 79
3, 45596, Note_on_c, 1, 53, 0
3, 45600, Note_on_c, 1, 57, 79
3, 45656, Note_on_c, 1, 57, 0
3, 45660, Note_on_c, 1, 53, 79
3, 45716, Note_on_c, 1, 53, 0
3, 45720, Note_on_c, 1, 57, 79
3, 45776, Note_on_c, 1, 57, 0
3, 45780, Note_on_c, 1, 53, 79
3, 45836, Note_on_c, 1, 53, 0
3, 45840, Note_on_c, 1, 58, 79
3, 45896, Note_on_c, 1, 58, 0
3, 45900, Note_on_c, 1, 53, 79
3, 45956, Note_on_c, 1, 53, 0
3, 45960, Note_on_c, 1, 57, 79
3, 46016, Note_on_c, 1, 57, 0
3, 46020, Note_on_c, 1, 53, 79
3, 46076, Note_on_c, 1, 53, 0
3, 46080, Note_on_c, 1, 58, 79
3, 46136, Note_on_c, 1, 58, 0
3, 46140, Note_on_c, 1, 53, 79
3, 46196, Note_on_c, 1, 53, 0
3, 46200, Note_on_c, 1, 58, 79
3, 46256, Note_on_c, 1, 58, 0
3, 46260, Note_on_c, 1, 53, 79
3, 46319, Note_on_c, 1, 53, 0
3, 46320, Note_on_c, 1, 58, 79
3, 46320, Note_on_c, 1, 55, 79
3, 46379, Note_on_c, 1, 55, 0
3, 46379, Note_on_c, 1, 58, 0
3, 46380, Note_on_c, 1, 48, 79
3, 46439, Note_on_c, 1, 48, 0
3, 46440, Note_on_c, 1, 58, 79
3, 46440, Note_on_c, 1, 55, 79
3, 46499, Note_on_c, 1, 55, 0
3, 46499, Note_on_c, 1, 58, 0
3, 46500, Note_on_c, 1, 48, 79
3, 46559, Note_on_c, 1, 48, 0
3, 46560, Note_on_c, 1, 57, 79
3, 46560, Note_on_c, 1, 53, 79
3, 46685, Note_on_c, 1, 53, 0
3, 46685, Note_on_c, 1, 57, 0
3, 46800, Note_on_c, 1, 58, 80
3, 46859, Note_on_c, 1, 58, 0
3, 46860, Note_on_c, 1, 62, 81
3, 46919, Note_on_c, 1, 62, 0
3, 46920, Note_on_c, 1, 48, 82
3, 46920, Note_on_c, 1, 55, 82
3, 46979, Note_on_c, 1, 55, 0
3, 46979, Note_on_c, 1, 48, 0
3, 46980, Note_on_c, 1, 58, 82
3, 47039, Note_on_c, 1, 58, 0
3, 47040, Note_on_c, 1, 53, 83
3, 47040, Note_on_c, 1, 57, 83
3, 47099, Note_on_c, 1, 57, 0
3, 47099, Note_on_c, 1, 53, 0
3, 47100, Note_on_c, 1, 60, 83
3, 47159, Note_on_c, 1, 60, 0
3, 47160, Note_on_c, 1, 53, 84
3, 47160, Note_on_c, 1, 57, 84
3, 47219, Note_on_c, 1, 57, 0
3, 47219, Note_on_c, 1, 53, 0
3, 47280, Note_on_c, 1, 60, 85
3, 47280, Note_on_c, 1, 64, 85
3, 47336, Note_on_c, 1, 64, 0
3, 47336, Note_on_c, 1, 60, 0
3, 47340, Note_on_c, 1, 60, 85
3, 47340, Note_on_c, 1, 64, 85
3, 47396, Note_on_c, 1, 64, 0
3, 47396, Note_on_c, 1, 60, 0
3, 47400, Note_on_c, 1, 60, 85
3, 47400, Note_on_c, 1, 63, 85
3, 47456, Note_on_c, 1, 63, 0
3, 47456, Note_on_c, 1, 60, 0
3, 47460, Note_on_c, 1, 60, 85
3, 47460, Note_on_c, 1, 63, 85
3, 47516, Note_on_c, 1, 63, 0
3, 47516, Note_on_c, 1, 60, 0
3, 47520, Note_on_c, 1, 60, 85
3, 47520, Note_on_c, 1, 64, 85
3, 47640, Note_on_c, 1, 64, 0
3, 47640, Note_on_c, 1, 60, 0
3, 47760, Note_on_c, 1, 62, 85
3, 47760, Note_on_c, 1, 55, 85
3, 47816, Note_on_c, 1, 55, 0
3, 47816, Note_on_c, 1, 62, 0
3, 47820, Note_on_c, 1, 55, 85
3, 47820, Note_on_c, 1, 62, 85
3, 47876, Note_on_c, 1, 62, 0
3, 47876, Note_on_c, 1, 55, 0
3, 47880, Note_on_c, 1, 55, 85
3, 47880, Note_on_c, 1, 61, 85
3, 47936, Note_on_c, 1, 61, 0
3, 47936, Note_on_c, 1, 55, 0
3, 47940, Note_on_c, 1, 61, 85
3, 47940, Note_on_c, 1, 55, 85
3, 47996, Note_on_c, 1, 55, 0
3, 47996, Note_on_c, 1, 61, 0
3, 48000, Note_on_c, 1, 55, 85
3, 48000, Note_on_c, 1, 62, 85
3, 48119, Note_on_c, 1, 62, 0
3, 48121, Note_on_c, 1, 55, 0
3, 48240, Note_on_c, 1, 60, 85
3, 48240, Note_on_c, 1, 64, 85
3, 48480, Note_on_c, 1, 60, 0
3, 48480, Note_on_c, 1, 62, 85
3, 48480, Note_on_c, 1, 55, 85
3, 48485, Note_on_c, 1, 64, 0
3, 48720, Note_on_c, 1, 60, 85
3, 48720, Note_on_c, 1, 64, 85
3, 48723, Note_on_c, 1, 55, 0
3, 48723, Note_on_c, 1, 62, 0
3, 48960, Note_on_c, 1, 62, 85
3, 48960, Note_on_c, 1, 55, 85
3, 48963, Note_on_c, 1, 60, 0
3, 48963, Note_on_c, 1, 64, 0
3, 49200, Note_on_c, 1, 60, 82
3, 49203, Note_on_c, 1, 62, 0
3, 49203, Note_on_c, 1, 55, 0
3, 49316, Note_on_c, 1, 60, 0
3, 49320, Note_on_c, 1, 65, 81
3, 49436, Note_on_c, 1, 65, 0
3, 49440, Note_on_c, 1, 67, 77
3, 49556, Note_on_c, 1, 67, 0
3, 49560, Note_on_c, 1, 55, 72
3, 49676, Note_on_c, 1, 55, 0
3, 49680, Note_on_c, 1, 60, 67
3, 49739, Note_on_c, 1, 60, 0
3, 50160, Note_on_c, 1, 57, 68
3, 50216, Note_on_c, 1, 57, 0
3, 50220, Note_on_c, 1, 53, 69
3, 50276, Note_on_c, 1, 53, 0
3, 50280, Note_on_c, 1, 56, 70
3, 50336, Note_on_c, 1, 56, 0
3, 50340, Note_on_c, 1, 53, 70
3, 50396, Note_on_c, 1, 53, 0
3, 50400, Note_on_c, 1, 57, 70
3, 50456, Note_on_c, 1, 57, 0
3, 50460, Note_on_c, 1, 53, 70
3, 50516, Note_on_c, 1, 53, 0
3, 50520, Note_on_c, 1, 57, 70
3, 50576, Note_on_c, 1, 57, 0
3, 50580, Note_on_c, 1, 53, 70
3, 50636, Note_on_c, 1, 53, 0
3, 50640, Note_on_c, 1, 58, 70
3, 50696, Note_on_c, 1, 58, 0
3, 50700, Note_on_c, 1, 53, 70
3, 50756, Note_on_c, 1, 53, 0
3, 50760, Note_on_c, 1, 57, 70
3, 50816, Note_on_c, 1, 57, 0
3, 50820, Note_on_c, 1, 53, 70
3, 50876, Note_on_c, 1, 53, 0
3, 50880, Note_on_c, 1, 58, 70
3, 50936, Note_on_c, 1, 58, 0
3, 50940, Note_on_c, 1, 53, 70
3, 50996, Note_on_c, 1, 53, 0
3, 51000, Note_on_c, 1, 58, 70
3, 51056, Note_on_c, 1, 58, 0
3, 51060, Note_on_c, 1, 53, 70
3, 51119, Note_on_c, 1, 53, 0
3, 51120, Note_on_c, 1, 58, 70
3, 51120, Note_on_c, 1, 55, 70
3, 51179, Note_on_c, 1, 55, 0
3, 51179, Note_on_c, 1, 58, 0
3, 51180, Note_on_c, 1, 48, 69
3, 51239, Note_on_c, 1, 48, 0
3, 51240, Note_on_c, 1, 58, 68
3, 51240, Note_on_c, 1, 55, 68
3, 51299, Note_on_c, 1, 55, 0
3, 51299, Note_on_c, 1, 58, 0
3, 51300, Note_on_c, 1, 48, 68
3, 51359, Note_on_c, 1, 48, 0
3, 51360, Note_on_c, 1, 57, 68
3, 51360, Note_on_c, 1, 53, 68
3, 51485, Note_on_c, 1, 53, 0
3, 51485, Note_on_c, 1, 57, 0
3, 51600, Note_on_c, 1, 58, 68
3, 51659, Note_on_c, 1, 58, 0
3, 51660, Note_on_c, 1, 62, 68
3, 51719, Note_on_c, 1, 62, 0
3, 51720, Note_on_c, 1, 48, 68
3, 51720, Note_on_c, 1, 55, 68
3, 51779, Note_on_c, 1, 55, 0
3, 51779, Note_on_c, 1, 48, 0
3, 51780, Note_on_c, 1, 58, 68
3, 51839, Note_on_c, 1, 58, 0
3, 51840, Note_on_c, 1, 53, 68
3, 51840, Note_on_c, 1, 57, 68
3, 51899, Note_on_c, 1, 57, 0
3, 51899, Note_on_c, 1, 53, 0
3, 51900, Note_on_c, 1, 60, 68
3, 51959, Note_on_c, 1, 60, 0
3, 51960, Note_on_c, 1, 53, 68
3, 51960, Note_on_c, 1, 57, 68
3, 52019, Note_on_c, 1, 57, 0
3, 52019, Note_on_c, 1, 53, 0
3, 52080, Note_on_c, 1, 62, 68
3, 52139, Note_on_c, 1, 62, 0
3, 52140, Note_on_c, 1, 65, 68
3, 52199, Note_on_c, 1, 65, 0
3, 52200, Note_on_c, 1, 62, 68
3, 52259, Note_on_c, 1, 62, 0
3, 52260, Note_on_c, 1, 65, 68
3, 52319, Note_on_c, 1, 65, 0
3, 52320, Note_on_c, 1, 64, 68
3, 52379, Note_on_c, 1, 64, 0
3, 52380, Note_on_c, 1, 67, 68
3, 52439, Note_on_c, 1, 67, 0
3, 52440, Note_on_c, 1, 64, 67
3, 52499, Note_on_c, 1, 64, 0
3, 52500, Note_on_c, 1, 67, 67
3, 52559, Note_on_c, 1, 67, 0
3, 52560, Note_on_c, 1, 61, 67
3, 52619, Note_on_c, 1, 61, 0
3, 52620, Note_on_c, 1, 64, 67
3, 52679, Note_on_c, 1, 64, 0
3, 52680, Note_on_c, 1, 61, 66
3, 52739, Note_on_c, 1, 61, 0
3, 52740, Note_on_c, 1, 64, 66
3, 52799, Note_on_c, 1, 64, 0
3, 52800, Note_on_c, 1, 62, 66
3, 52859, Note_on_c, 1, 62, 0
3, 52860, Note_on_c, 1, 65, 66
3, 52919, Note_on_c, 1, 65, 0
3, 52920, Note_on_c, 1, 62, 65
3, 52979, Note_on_c, 1, 62, 0
3, 52980, Note_on_c, 1, 65, 64
3, 53039, Note_on_c, 1, 65, 0
3, 53040, Note_on_c, 1, 53, 64
3, 53099, Note_on_c, 1, 53, 0
3, 53100, Note_on_c, 1, 62, 63
3, 53159, Note_on_c, 1, 62, 0
3, 53160, Note_on_c, 1, 57, 63
3, 53219, Note_on_c, 1, 57, 0
3, 53220, Note_on_c, 1, 62, 63
3, 53279, Note_on_c, 1, 62, 0
3, 53280, Note_on_c, 1, 55, 63
3, 53339, Note_on_c, 1, 55, 0
3, 53340, Note_on_c, 1, 62, 63
3, 53399, Note_on_c, 1, 62, 0
3, 53400, Note_on_c, 1, 58, 63
3, 53459, Note_on_c, 1, 58, 0
3, 53460, Note_on_c, 1, 62, 64
3, 53519, Note_on_c, 1, 62, 0
3, 53520, Note_on_c, 1, 53, 64
3, 53579, Note_on_c, 1, 53, 0
3, 53580, Note_on_c, 1, 62, 64
3, 53639, Note_on_c, 1, 62, 0
3, 53640, Note_on_c, 1, 57, 65
3, 53699, Note_on_c, 1, 57, 0
3, 53700, Note_on_c, 1, 62, 65
3, 53759, Note_on_c, 1, 62, 0
3, 53760, Note_on_c, 1, 55, 66
3, 53819, Note_on_c, 1, 55, 0
3, 53820, Note_on_c, 1, 62, 67
3, 53879, Note_on_c, 1, 62, 0
3, 53880, Note_on_c, 1, 58, 67
3, 53939, Note_on_c, 1, 58, 0
3, 53940, Note_on_c, 1, 62, 67
3, 53999, Note_on_c, 1, 62, 0
3, 54000, Note_on_c, 1, 53, 67
3, 54059, Note_on_c, 1, 53, 0
3, 54060, Note_on_c, 1, 62, 67
3, 54119, Note_on_c, 1, 62, 0
3, 54120, Note_on_c, 1, 57, 67
3, 54179, Note_on_c, 1, 57, 0
3, 54180, Note_on_c, 1, 62, 67
3, 54239, Note_on_c, 1, 62, 0
3, 54240, Note_on_c, 1, 55, 67
3, 54299, Note_on_c, 1, 55, 0
3, 54300, Note_on_c, 1, 62, 67
3, 54359, Note_on_c, 1, 62, 0
3, 54360, Note_on_c, 1, 53, 67
3, 54419, Note_on_c, 1, 53, 0
3, 54420, Note_on_c, 1, 62, 67
3, 54479, Note_on_c, 1, 62, 0
3, 54480, Note_on_c, 1, 52, 67
3, 54539, Note_on_c, 1, 52, 0
3, 54540, Note_on_c, 1, 61, 67
3, 54599, Note_on_c, 1, 61, 0
3, 54600, Note_on_c, 1, 50, 67
3, 54659, Note_on_c, 1, 50, 0
3, 54660, Note_on_c, 1, 62, 67
3, 54719, Note_on_c, 1, 62, 0
3, 54720, Note_on_c, 1, 57, 67
3, 54720, Note_on_c, 1, 62, 67
3, 54840, Note_on_c, 1, 61, 67
3, 54842, Note_on_c, 1, 62, 0
3, 54899, Note_on_c, 1, 61, 0
3, 54899, Note_on_c, 1, 57, 0
3, 54960, Note_on_c, 1, 62, 68
3, 55019, Note_on_c, 1, 62, 0
3, 55020, Note_on_c, 1, 65, 68
3, 55079, Note_on_c, 1, 65, 0
3, 55080, Note_on_c, 1, 62, 68
3, 55139, Note_on_c, 1, 62, 0
3, 55140, Note_on_c, 1, 65, 68
3, 55199, Note_on_c, 1, 65, 0
3, 55200, Note_on_c, 1, 64, 68
3, 55259, Note_on_c, 1, 64, 0
3, 55260, Note_on_c, 1, 67, 68
3, 55319, Note_on_c, 1, 67, 0
3, 55320, Note_on_c, 1, 64, 67
3, 55379, Note_on_c, 1, 64, 0
3, 55380, Note_on_c, 1, 67, 67
3, 55439, Note_on_c, 1, 67, 0
3, 55440, Note_on_c, 1, 61, 67
3, 55499, Note_on_c, 1, 61, 0
3, 55500, Note_on_c, 1, 64, 67
3, 55559, Note_on_c, 1, 64, 0
3, 55560, Note_on_c, 1, 61, 66
3, 55619, Note_on_c, 1, 61, 0
3, 55620, Note_on_c, 1, 64, 66
3, 55679, Note_on_c, 1, 64, 0
3, 55680, Note_on_c, 1, 62, 66
3, 55739, Note_on_c, 1, 62, 0
3, 55740, Note_on_c, 1, 65, 66
3, 55799, Note_on_c, 1, 65, 0
3, 55800, Note_on_c, 1, 62, 65
3, 55859, Note_on_c, 1, 62, 0
3, 55860, Note_on_c, 1, 65, 64
3, 55919, Note_on_c, 1, 65, 0
3, 55920, Note_on_c, 1, 53, 64
3, 55979, Note_on_c, 1, 53, 0
3, 55980, Note_on_c, 1, 62, 63
3, 56039, Note_on_c, 1, 62, 0
3, 56040, Note_on_c, 1, 57, 63
3, 56099, Note_on_c, 1, 57, 0
3, 56100, Note_on_c, 1, 62, 63
3, 56159, Note_on_c, 1, 62, 0
3, 56160, Note_on_c, 1, 55, 63
3, 56219, Note_on_c, 1, 55, 0
3, 56220, Note_on_c, 1, 62, 63
3, 56279, Note_on_c, 1, 62, 0
3, 56280, Note_on_c, 1, 58, 63
3, 56339, Note_on_c, 1, 58, 0
3, 56340, Note_on_c, 1, 62, 64
3, 56399, Note_on_c, 1, 62, 0
3, 56400, Note_on_c, 1, 53, 64
3, 56459, Note_on_c, 1, 53, 0
3, 56460, Note_on_c, 1, 62, 64
3, 56519, Note_on_c, 1, 62, 0
3, 56520, Note_on_c, 1, 57, 65
3, 56579, Note_on_c, 1, 57, 0
3, 56580, Note_on_c, 1, 62, 65
3, 56639, Note_on_c, 1, 62, 0
3, 56640, Note_on_c, 1, 55, 66
3, 56699, Note_on_c, 1, 55, 0
3, 56700, Note_on_c, 1, 62, 67
3, 56759, Note_on_c, 1, 62, 0
3, 56760, Note_on_c, 1, 58, 67
3, 56819, Note_on_c, 1, 58, 0
3, 56820, Note_on_c, 1, 62, 67
3, 56879, Note_on_c, 1, 62, 0
3, 56880, Note_on_c, 1, 53, 67
3, 56939, Note_on_c, 1, 53, 0
3, 56940, Note_on_c, 1, 62, 67
3, 56999, Note_on_c, 1, 62, 0
3, 57000, Note_on_c, 1, 57, 67
3, 57059, Note_on_c, 1, 57, 0
3, 57060, Note_on_c, 1, 62, 67
3, 57119, Note_on_c, 1, 62, 0
3, 57120, Note_on_c, 1, 55, 67
3, 57179, Note_on_c, 1, 55, 0
3, 57180, Note_on_c, 1, 62, 67
3, 57239, Note_on_c, 1, 62, 0
3, 57240, Note_on_c, 1, 53, 67
3, 57299, Note_on_c, 1, 53, 0
3, 57300, Note_on_c, 1, 62, 67
3, 57359, Note_on_c, 1, 62, 0
3, 57360, Note_on_c, 1, 52, 67
3, 57419, Note_on_c, 1, 52, 0
3, 57420, Note_on_c, 1, 61, 67
3, 57479, Note_on_c, 1, 61, 0
3, 57480, Note_on_c, 1, 50, 67
3, 57539, Note_on_c, 1, 50, 0
3, 57540, Note_on_c, 1, 62, 67
3, 57599, Note_on_c, 1, 62, 0
3, 57600, Note_on_c, 1, 62, 67
3, 57600, Note_on_c, 1, 57, 67
3, 57720, Note_on_c, 1, 61, 67
3, 57722, Note_on_c, 1, 62, 0
3, 57779, Note_on_c, 1, 61, 0
3, 57779, Note_on_c, 1, 57, 0
3, 57840, Note_on_c, 1, 62, 66
3, 57899, Note_on_c, 1, 62, 0
3, 57900, Note_on_c, 1, 65, 66
3, 57959, Note_on_c, 1, 65, 0
3, 57960, Note_on_c, 1, 62, 66
3, 58019, Note_on_c, 1, 62, 0
3, 58020, Note_on_c, 1, 65, 66
3, 58079, Note_on_c, 1, 65, 0
3, 58080, Note_on_c, 1, 57, 66
3, 58139, Note_on_c, 1, 57, 0
3, 58140, Note_on_c, 1, 64, 66
3, 58199, Note_on_c, 1, 64, 0
3, 58200, Note_on_c, 1, 57, 66
3, 58259, Note_on_c, 1, 57, 0
3, 58260, Note_on_c, 1, 64, 66
3, 58319, Note_on_c, 1, 64, 0
3, 58320, Note_on_c, 1, 58, 66
3, 58379, Note_on_c, 1, 58, 0
3, 58380, Note_on_c, 1, 62, 66
3, 58439, Note_on_c, 1, 62, 0
3, 58440, Note_on_c, 1, 58, 66
3, 58499, Note_on_c, 1, 58, 0
3, 58500, Note_on_c, 1, 62, 66
3, 58559, Note_on_c, 1, 62, 0
3, 58560, Note_on_c, 1, 53, 66
3, 58619, Note_on_c, 1, 53, 0
3, 58620, Note_on_c, 1, 60, 66
3, 58679, Note_on_c, 1, 60, 0
3, 58680, Note_on_c, 1, 53, 66
3, 58739, Note_on_c, 1, 53, 0
3, 58740, Note_on_c, 1, 60, 67
3, 58799, Note_on_c, 1, 60, 0
3, 58800, Note_on_c, 1, 58, 68
3, 58920, Note_on_c, 1, 62, 69
3, 58923, Note_on_c, 1, 58, 0
3, 58979, Note_on_c, 1, 62, 0
3, 58980, Note_on_c, 1, 65, 69
3, 59039, Note_on_c, 1, 65, 0
3, 59040, Note_on_c, 1, 57, 69
3, 59280, Note_on_c, 1, 57, 0
3, 59280, Note_on_c, 1, 55, 70
3, 59400, Note_on_c, 1, 58, 70
3, 59402, Note_on_c, 1, 55, 0
3, 59459, Note_on_c, 1, 58, 0
3, 59460, Note_on_c, 1, 62, 70
3, 59519, Note_on_c, 1, 62, 0
3, 59520, Note_on_c, 1, 53, 70
3, 59760, Note_on_c, 1, 53, 0
3, 59760, Note_on_c, 1, 49, 70
3, 59880, Note_on_c, 1, 50, 70
3, 59882, Note_on_c, 1, 49, 0
3, 60000, Note_on_c, 1, 45, 70
3, 60001, Note_on_c, 1, 50, 0
3, 60120, Note_on_c, 1, 45, 0
3, 60240, Note_on_c, 1, 62, 69
3, 60299, Note_on_c, 1, 62, 0
3, 60300, Note_on_c, 1, 65, 68
3, 60359, Note_on_c, 1, 65, 0
3, 60360, Note_on_c, 1, 62, 68
3, 60419, Note_on_c, 1, 62, 0
3, 60420, Note_on_c, 1, 65, 69
3, 60479, Note_on_c, 1, 65, 0
3, 60480, Note_on_c, 1, 64, 69
3, 60539, Note_on_c, 1, 64, 0
3, 60540, Note_on_c, 1, 67, 69
3, 60599, Note_on_c, 1, 67, 0
3, 60600, Note_on_c, 1, 64, 69
3, 60659, Note_on_c, 1, 64, 0
3, 60660, Note_on_c, 1, 67, 69
3, 60719, Note_on_c, 1, 67, 0
3, 60720, Note_on_c, 1, 61, 68
3, 60779, Note_on_c, 1, 61, 0
3, 60780, Note_on_c, 1, 64, 68
3, 60839, Note_on_c, 1, 64, 0
3, 60840, Note_on_c, 1, 61, 67
3, 60899, Note_on_c, 1, 61, 0
3, 60900, Note_on_c, 1, 64, 67
3, 60959, Note_on_c, 1, 64, 0
3, 60960, Note_on_c, 1, 62, 66
3, 61019, Note_on_c, 1, 62, 0
3, 61020, Note_on_c, 1, 65, 66
3, 61079, Note_on_c, 1, 65, 0
3, 61080, Note_on_c, 1, 62, 66
3, 61139, Note_on_c, 1, 62, 0
3, 61140, Note_on_c, 1, 65, 65
3, 61199, Note_on_c, 1, 65, 0
3, 61200, Note_on_c, 1, 53, 65
3, 61259, Note_on_c, 1, 53, 0
3, 61260, Note_on_c, 1, 62, 65
3, 61319, Note_on_c, 1, 62, 0
3, 61320, Note_on_c, 1, 57, 64
3, 61379, Note_on_c, 1, 57, 0
3, 61380, Note_on_c, 1, 62, 64
3, 61439, Note_on_c, 1, 62, 0
3, 61440, Note_on_c, 1, 55, 64
3, 61499, Note_on_c, 1, 55, 0
3, 61500, Note_on_c, 1, 62, 64
3, 61559, Note_on_c, 1, 62, 0
3, 61560, Note_on_c, 1, 58, 64
3, 61619, Note_on_c, 1, 58, 0
3, 61620, Note_on_c, 1, 64, 64
3, 61679, Note_on_c, 1, 64, 0
3, 61680, Note_on_c, 1, 62, 64
3, 61739, Note_on_c, 1, 62, 0
3, 61740, Note_on_c, 1, 57, 64
3, 61799, Note_on_c, 1, 57, 0
3, 61800, Note_on_c, 1, 61, 64
3, 61859, Note_on_c, 1, 61, 0
3, 61860, Note_on_c, 1, 57, 64
3, 61919, Note_on_c, 1, 57, 0
3, 61920, Note_on_c, 1, 62, 64
3, 61979, Note_on_c, 1, 62, 0
3, 61980, Note_on_c, 1, 57, 64
3, 62039, Note_on_c, 1, 57, 0
3, 62040, Note_on_c, 1, 50, 64
3, 62099, Note_on_c, 1, 50, 0
3, 62160, Note_on_c, 1, 62, 66
3, 62219, Note_on_c, 1, 62, 0
3, 62220, Note_on_c, 1, 65, 66
3, 62279, Note_on_c, 1, 65, 0
3, 62280, Note_on_c, 1, 62, 66
3, 62339, Note_on_c, 1, 62, 0
3, 62340, Note_on_c, 1, 65, 66
3, 62399, Note_on_c, 1, 65, 0
3, 62400, Note_on_c, 1, 57, 66
3, 62459, Note_on_c, 1, 57, 0
3, 62460, Note_on_c, 1, 64, 66
3, 62519, Note_on_c, 1, 64, 0
3, 62520, Note_on_c, 1, 57, 66
3, 62579, Note_on_c, 1, 57, 0
3, 62580, Note_on_c, 1, 64, 66
3, 62639, Note_on_c, 1, 64, 0
3, 62640, Note_on_c, 1, 58, 66
3, 62699, Note_on_c, 1, 58, 0
3, 62700, Note_on_c, 1, 62, 66
3, 62759, Note_on_c, 1, 62, 0
3, 62760, Note_on_c, 1, 58, 66
3, 62819, Note_on_c, 1, 58, 0
3, 62820, Note_on_c, 1, 62, 66
3, 62879, Note_on_c, 1, 62, 0
3, 62880, Note_on_c, 1, 53, 66
3, 62939, Note_on_c, 1, 53, 0
3, 62940, Note_on_c, 1, 60, 66
3, 62999, Note_on_c, 1, 60, 0
3, 63000, Note_on_c, 1, 53, 66
3, 63059, Note_on_c, 1, 53, 0
3, 63060, Note_on_c, 1, 60, 67
3, 63119, Note_on_c, 1, 60, 0
3, 63120, Note_on_c, 1, 58, 68
3, 63240, Note_on_c, 1, 62, 69
3, 63243, Note_on_c, 1, 58, 0
3, 63299, Note_on_c, 1, 62, 0
3, 63300, Note_on_c, 1, 65, 69
3, 63359, Note_on_c, 1, 65, 0
3, 63360, Note_on_c, 1, 57, 69
3, 63600, Note_on_c, 1, 57, 0
3, 63600, Note_on_c, 1, 55, 70
3, 63720, Note_on_c, 1, 58, 70
3, 63722, Note_on_c, 1, 55, 0
3, 63779, Note_on_c, 1, 58, 0
3, 63780, Note_on_c, 1, 62, 70
3, 63839, Note_on_c, 1, 62, 0
3, 63840, Note_on_c, 1, 53, 70
3, 64080, Note_on_c, 1, 53, 0
3, 64080, Note_on_c, 1, 49, 70
3, 64200, Note_on_c, 1, 50, 70
3, 64202, Note_on_c, 1, 49, 0
3, 64320, Note_on_c, 1, 45, 70
3, 64321, Note_on_c, 1, 50, 0
3, 64440, Note_on_c, 1, 45, 0
3, 64560, Note_on_c, 1, 62, 69
3, 64619, Note_on_c, 1, 62, 0
3, 64620, Note_on_c, 1, 65, 68
3, 64679, Note_on_c, 1, 65, 0
3, 64680, Note_on_c, 1, 62, 68
3, 64739, Note_on_c, 1, 62, 0
3, 64740, Note_on_c, 1, 65, 69
3, 64799, Note_on_c, 1, 65, 0
3, 64800, Note_on_c, 1, 64, 69
3, 64859, Note_on_c, 1, 64, 0
3, 64860, Note_on_c, 1, 67, 69
3, 64919, Note_on_c, 1, 67, 0
3, 64920, Note_on_c, 1, 64, 69
3, 64979, Note_on_c, 1, 64, 0
3, 64980, Note_on_c, 1, 67, 69
3, 65039, Note_on_c, 1, 67, 0
3, 65040, Note_on_c, 1, 61, 68
3, 65099, Note_on_c, 1, 61, 0
3, 65100, Note_on_c, 1, 64, 68
3, 65159, Note_on_c, 1, 64, 0
3, 65160, Note_on_c, 1, 61, 67
3, 65219, Note_on_c, 1, 61, 0
3, 65220, Note_on_c, 1, 64, 67
3, 65279, Note_on_c, 1, 64, 0
3, 65280, Note_on_c, 1, 62, 66
3, 65339, Note_on_c, 1, 62, 0
3, 65340, Note_on_c, 1, 65, 66
3, 65399, Note_on_c, 1, 65, 0
3, 65400, Note_on_c, 1, 62, 66
3, 65459, Note_on_c, 1, 62, 0
3, 65460, Note_on_c, 1, 65, 65
3, 65519, Note_on_c, 1, 65, 0
3, 65520, Note_on_c, 1, 53, 65
3, 65579, Note_on_c, 1, 53, 0
3, 65580, Note_on_c, 1, 62, 65
3, 65639, Note_on_c, 1, 62, 0
3, 65640, Note_on_c, 1, 57, 64
3, 65699, Note_on_c, 1, 57, 0
3, 65700, Note_on_c, 1, 62, 64
3, 65759, Note_on_c, 1, 62, 0
3, 65760, Note_on_c, 1, 55, 64
3, 65819, Note_on_c, 1, 55, 0
3, 65820, Note_on_c, 1, 62, 64
3, 65879, Note_on_c, 1, 62, 0
3, 65880, Note_on_c, 1, 58, 64
3, 65939, Note_on_c, 1, 58, 0
3, 65940, Note_on_c, 1, 64, 64
3, 65999, Note_on_c, 1, 64, 0
3, 66000, Note_on_c, 1, 62, 64
3, 66059, Note_on_c, 1, 62, 0
3, 66060, Note_on_c, 1, 57, 64
3, 66119, Note_on_c, 1, 57, 0
3, 66120, Note_on_c, 1, 61, 64
3, 66179, Note_on_c, 1, 61, 0
3, 66180, Note_on_c, 1, 57, 64
3, 66239, Note_on_c, 1, 57, 0
3, 66240, Note_on_c, 1, 62, 64
3, 66299, Note_on_c, 1, 62, 0
3, 66300, Note_on_c, 1, 57, 64
3, 66359, Note_on_c, 1, 57, 0
3, 66360, Note_on_c, 1, 50, 64
3, 66419, Note_on_c, 1, 50, 0
3, 66480, Note_on_c, 1, 58, 64
3, 66539, Note_on_c, 1, 58, 0
3, 66540, Note_on_c, 1, 55, 65
3, 66599, Note_on_c, 1, 55, 0
3, 66600, Note_on_c, 1, 48, 65
3, 66659, Note_on_c, 1, 48, 0
3, 66720, Note_on_c, 1, 57, 66
3, 66779, Note_on_c, 1, 57, 0
3, 66780, Note_on_c, 1, 53, 67
3, 66839, Note_on_c, 1, 53, 0
3, 66840, Note_on_c, 1, 48, 68
3, 66899, Note_on_c, 1, 48, 0
3, 66960, Note_on_c, 1, 55, 69
3, 67019, Note_on_c, 1, 55, 0
3, 67020, Note_on_c, 1, 52, 69
3, 67079, Note_on_c, 1, 52, 0
3, 67080, Note_on_c, 1, 48, 69
3, 67139, Note_on_c, 1, 48, 0
3, 67200, Note_on_c, 1, 53, 69
3, 67259, Note_on_c, 1, 53, 0
3, 67260, Note_on_c, 1, 48, 69
3, 67319, Note_on_c, 1, 48, 0
3, 67320, Note_on_c, 1, 41, 69
3, 67379, Note_on_c, 1, 41, 0
3, 67440, Note_on_c, 1, 36, 120
3, 67440, Note_on_c, 1, 40, 120
3, 67440, Note_on_c, 1, 43, 120
3, 67440, Note_on_c, 1, 48, 120
3, 67562, Note_on_c, 1, 48, 0
3, 67562, Note_on_c, 1, 36, 0
3, 67562, Note_on_c, 1, 40, 0
3, 67562, Note_on_c, 1, 43, 0
3, 68400, Note_on_c, 1, 57, 62
3, 68456, Note_on_c, 1, 57, 0
3, 68460, Note_on_c, 1, 53, 62
3, 68516, Note_on_c, 1, 53, 0
3, 68520, Note_on_c, 1, 56, 62
3, 68576, Note_on_c, 1, 56, 0
3, 68580, Note_on_c, 1, 53, 62
3, 68636, Note_on_c, 1, 53, 0
3, 68640, Note_on_c, 1, 57, 62
3, 68696, Note_on_c, 1, 57, 0
3, 68700, Note_on_c, 1, 53, 62
3, 68756, Note_on_c, 1, 53, 0
3, 68760, Note_on_c, 1, 57, 62
3, 68816, Note_on_c, 1, 57, 0
3, 68820, Note_on_c, 1, 53, 62
3, 68876, Note_on_c, 1, 53, 0
3, 68880, Note_on_c, 1, 58, 62
3, 68936, Note_on_c, 1, 58, 0
3, 68940, Note_on_c, 1, 53, 62
3, 68996, Note_on_c, 1, 53, 0
3, 69000, Note_on_c, 1, 57, 61
3, 69056, Note_on_c, 1, 57, 0
3, 69060, Note_on_c, 1, 53, 61
3, 69116, Note_on_c, 1, 53, 0
3, 69120, Note_on_c, 1, 58, 61
3, 69176, Note_on_c, 1, 58, 0
3, 69180, Note_on_c, 1, 53, 60
3, 69236, Note_on_c, 1, 53, 0
3, 69240, Note_on_c, 1, 58, 60
3, 69296, Note_on_c, 1, 58, 0
3, 69300, Note_on_c, 1, 53, 59
3, 69359, Note_on_c, 1, 53, 0
3, 69360, Note_on_c, 1, 55, 58
3, 69360, Note_on_c, 1, 58, 58
3, 69419, Note_on_c, 1, 58, 0
3, 69419, Note_on_c, 1, 55, 0
3, 69420, Note_on_c, 1, 48, 58
3, 69479, Note_on_c, 1, 48, 0
3, 69480, Note_on_c, 1, 55, 57
3, 69480, Note_on_c, 1, 58, 57
3, 69539, Note_on_c, 1, 58, 0
3, 69539, Note_on_c, 1, 55, 0
3, 69540, Note_on_c, 1, 48, 56
3, 69599, Note_on_c, 1, 48, 0
3, 69600, Note_on_c, 1, 53, 56
3, 69600, Note_on_c, 1, 57, 56
3, 69659, Note_on_c, 1, 57, 0
3, 69659, Note_on_c, 1, 53, 0
3, 69660, Note_on_c, 1, 48, 55
3, 69719, Note_on_c, 1, 48, 0
3, 69720, Note_on_c, 1, 57, 55
3, 69720, Note_on_c, 1, 53, 55
3, 69779, Note_on_c, 1, 53, 0
3, 69779, Note_on_c, 1, 57, 0
3, 69780, Note_on_c, 1, 48, 55
3, 69839, Note_on_c, 1, 48, 0
3, 69840, Note_on_c, 1, 55, 55
3, 69840, Note_on_c, 1, 52, 55
3, 69899, Note_on_c, 1, 52, 0
3, 69899, Note_on_c, 1, 55, 0
3, 69900, Note_on_c, 1, 48, 55
3, 69959, Note_on_c, 1, 48, 0
3, 69960, Note_on_c, 1, 57, 55
3, 69960, Note_on_c, 1, 53, 55
3, 70019, Note_on_c, 1, 53, 0
3, 70019, Note_on_c, 1, 57, 0
3, 70020, Note_on_c, 1, 48, 62
3, 70080, Note_on_c, 1, 48, 0
3, 70080, Note_on_c, 1, 48, 55
3, 70080, Note_on_c, 1, 52, 55
3, 70080, Note_on_c, 1, 55, 55
3, 70080, Note_on_c, 1, 60, 55
3, 70201, Note_on_c, 1, 52, 0
3, 70202, Note_on_c, 1, 48, 0
3, 70202, Note_on_c, 1, 60, 0
3, 70204, Note_on_c, 1, 55, 0
3, 70320, Note_on_c, 1, 57, 61
3, 70376, Note_on_c, 1, 57, 0
3, 70380, Note_on_c, 1, 53, 61
3, 70436, Note_on_c, 1, 53, 0
3, 70440, Note_on_c, 1, 56, 62
3, 70496, Note_on_c, 1, 56, 0
3, 70500, Note_on_c, 1, 53, 63
3, 70556, Note_on_c, 1, 53, 0
3, 70560, Note_on_c, 1, 57, 63
3, 70616, Note_on_c, 1, 57, 0
3, 70620, Note_on_c, 1, 53, 64
3, 70676, Note_on_c, 1, 53, 0
3, 70680, Note_on_c, 1, 57, 65
3, 70736, Note_on_c, 1, 57, 0
3, 70740, Note_on_c, 1, 53, 66
3, 70796, Note_on_c, 1, 53, 0
3, 70800, Note_on_c, 1, 58, 67
3, 70856, Note_on_c, 1, 58, 0
3, 70860, Note_on_c, 1, 53, 67
3, 70916, Note_on_c, 1, 53, 0
3, 70920, Note_on_c, 1, 57, 67
3, 70976, Note_on_c, 1, 57, 0
3, 70980, Note_on_c, 1, 53, 68
3, 71036, Note_on_c, 1, 53, 0
3, 71040, Note_on_c, 1, 58, 69
3, 71096, Note_on_c, 1, 58, 0
3, 71100, Note_on_c, 1, 53, 70
3, 71156, Note_on_c, 1, 53, 0
3, 71160, Note_on_c, 1, 58, 71
3, 71216, Note_on_c, 1, 58, 0
3, 71220, Note_on_c, 1, 53, 72
3, 71279, Note_on_c, 1, 53, 0
3, 71280, Note_on_c, 1, 55, 72
3, 71280, Note_on_c, 1, 58, 72
3, 71339, Note_on_c, 1, 58, 0
3, 71339, Note_on_c, 1, 55, 0
3, 71340, Note_on_c, 1, 48, 73
3, 71399, Note_on_c, 1, 48, 0
3, 71400, Note_on_c, 1, 55, 74
3, 71400, Note_on_c, 1, 58, 74
3, 71459, Note_on_c, 1, 58, 0
3, 71459, Note_on_c, 1, 55, 0
3, 71460, Note_on_c, 1, 48, 74
3, 71519, Note_on_c, 1, 48, 0
3, 71520, Note_on_c, 1, 57, 74
3, 71520, Note_on_c, 1, 53, 74
3, 71640, Note_on_c, 1, 53, 0
3, 71640, Note_on_c, 1, 57, 0
3, 71760, Note_on_c, 1, 58, 73
3, 71819, Note_on_c, 1, 58, 0
3, 71820, Note_on_c, 1, 62, 73
3, 71879, Note_on_c, 1, 62, 0
3, 71880, Note_on_c, 1, 55, 73
3, 71880, Note_on_c, 1, 48, 73
3, 71939, Note_on_c, 1, 48, 0
3, 71939, Note_on_c, 1, 55, 0
3, 71940, Note_on_c, 1, 58, 73
3, 71999, Note_on_c, 1, 58, 0
3, 72000, Note_on_c, 1, 57, 73
3, 72000, Note_on_c, 1, 53, 73
3, 72059, Note_on_c, 1, 53, 0
3, 72059, Note_on_c, 1, 57, 0
3, 72060, Note_on_c, 1, 60, 74
3, 72119, Note_on_c, 1, 60, 0
3, 72120, Note_on_c, 1, 57, 75
3, 72120, Note_on_c, 1, 53, 75
3, 72179, Note_on_c, 1, 53, 0
3, 72179, Note_on_c, 1, 57, 0
3, 72240, Note_on_c, 1, 67, 53
3, 72240, Note_on_c, 1, 60, 53
3, 72360, Note_on_c, 1, 60, 0
3, 72360, Note_on_c, 1, 67, 0
3, 72480, Note_on_c, 1, 69, 55
3, 72480, Note_on_c, 1, 65, 55
3, 72600, Note_on_c, 1, 65, 0
3, 72600, Note_on_c, 1, 69, 0
3, 72720, Note_on_c, 1, 60, 118
3, 72720, Note_on_c, 1, 48, 118
3, 72840, Note_on_c, 1, 48, 0
3, 72840, Note_on_c, 1, 60, 0
3, 72840, Note_on_c, 1, 48, 121
3, 72840, Note_on_c, 1, 60, 121
3, 72960, Note_on_c, 1, 60, 0
3, 72960, Note_on_c, 1, 48, 0
3, 72960, Note_on_c, 1, 53, 121
3, 72960, Note_on_c, 1, 41, 121
3, 73080, Note_on_c, 1, 41, 0
3, 73080, Note_on_c, 1, 53, 0
3, 73080, End_track
0, 0, End_of_file