0, 0, Header, 1, 6, 192
1, 0, Start_track
1, 0, Title_t, "String Quartet No.1 - II"
1, 0, Copyright_t, "Copyright \251 2000 by S.E.Edwards All Rights Reserved"
1, 0, Text_t, "By Ludwig van Beethoven\012"
1, 0, Text_t, "Generated by NoteWorthy Composer\012"
1, 0, Time_signature, 9, 3, 12, 8
1, 0, Key_signature, -1, "major"
1, 0, Tempo, 1153846
1, 0, End_track
2, 0, Start_track
2, 0, Title_t, "Violino I."
2, 0, Program_c, 1, 48
2, 0, Control_c, 1, 7, 127
2, 0, Control_c, 1, 10, 64
2, 864, Note_on_c, 1, 69, 30
2, 1440, Note_on_c, 1, 69, 0
2, 1440, Note_on_c, 1, 69, 50
2, 1728, Note_on_c, 1, 69, 0
2, 1728, Note_on_c, 1, 69, 60
2, 2016, Note_on_c, 1, 69, 0
2, 2016, Note_on_c, 1, 74, 50
2, 2272, Note_on_c, 1, 74, 0
2, 2304, Note_on_c, 1, 76, 40
2, 2560, Note_on_c, 1, 76, 0
2, 2592, Note_on_c, 1, 77, 30
2, 3072, Note_on_c, 1, 77, 0
2, 3072, Note_on_c, 1, 76, 30
2, 3118, Note_on_c, 1, 76, 0
2, 3120, Note_on_c, 1, 74, 30
2, 3166, Note_on_c, 1, 74, 0
2, 3168, Note_on_c, 1, 74, 30
2, 3214, Note_on_c, 1, 74, 0
2, 3216, Note_on_c, 1, 76, 30
2, 3238, Note_on_c, 1, 76, 0
2, 3240, Note_on_c, 1, 74, 30
2, 3262, Note_on_c, 1, 74, 0
2, 3264, Note_on_c, 1, 73, 30
2, 3310, Note_on_c, 1, 73, 0
2, 3312, Note_on_c, 1, 74, 30
2, 3358, Note_on_c, 1, 74, 0
2, 3360, Note_on_c, 1, 77, 30
2, 3406, Note_on_c, 1, 77, 0
2, 3408, Note_on_c, 1, 76, 30
2, 3454, Note_on_c, 1, 76, 0
2, 3456, Note_on_c, 1, 74, 30
2, 3744, Note_on_c, 1, 74, 0
2, 3744, Note_on_c, 1, 73, 30
2, 4126, Note_on_c, 1, 73, 0
2, 4128, Note_on_c, 1, 73, 30
2, 4176, Note_on_c, 1, 73, 0
2, 4176, Note_on_c, 1, 74, 30
2, 4224, Note_on_c, 1, 74, 0
2, 4224, Note_on_c, 1, 76, 30
2, 4272, Note_on_c, 1, 76, 0
2, 4272, Note_on_c, 1, 77, 30
2, 4318, Note_on_c, 1, 77, 0
2, 4320, Note_on_c, 1, 79, 30
2, 4702, Note_on_c, 1, 79, 0
2, 4704, Note_on_c, 1, 81, 30
2, 4716, Note_on_c, 1, 81, 0
2, 4716, Note_on_c, 1, 79, 30
2, 4752, Note_on_c, 1, 79, 0
2, 4752, Note_on_c, 1, 78, 30
2, 4800, Note_on_c, 1, 78, 0
2, 4800, Note_on_c, 1, 79, 30
2, 4848, Note_on_c, 1, 79, 0
2, 4848, Note_on_c, 1, 81, 30
2, 4894, Note_on_c, 1, 81, 0
2, 4896, Note_on_c, 1, 82, 30
2, 5088, Note_on_c, 1, 82, 0
2, 5088, Note_on_c, 1, 73, 30
2, 5182, Note_on_c, 1, 73, 0
2, 5184, Note_on_c, 1, 76, 30
2, 5472, Note_on_c, 1, 76, 0
2, 5472, Note_on_c, 1, 74, 30
2, 5856, Note_on_c, 1, 74, 0
2, 5856, Note_on_c, 1, 76, 30
2, 5952, Note_on_c, 1, 76, 0
2, 5952, Note_on_c, 1, 77, 30
2, 6046, Note_on_c, 1, 77, 0
2, 6048, Note_on_c, 1, 77, 30
2, 6336, Note_on_c, 1, 77, 0
2, 6336, Note_on_c, 1, 76, 40
2, 6720, Note_on_c, 1, 76, 0
2, 6720, Note_on_c, 1, 77, 53
2, 6816, Note_on_c, 1, 77, 0
2, 6816, Note_on_c, 1, 74, 56
2, 6910, Note_on_c, 1, 74, 0
2, 6912, Note_on_c, 1, 73, 45
2, 7072, Note_on_c, 1, 73, 0
2, 7296, Note_on_c, 1, 81, 45
2, 7392, Note_on_c, 1, 81, 0
2, 7392, Note_on_c, 1, 79, 45
2, 7488, Note_on_c, 1, 79, 0
2, 7488, Note_on_c, 1, 77, 45
2, 7584, Note_on_c, 1, 77, 0
2, 7584, Note_on_c, 1, 76, 45
2, 7680, Note_on_c, 1, 76, 0
2, 7680, Note_on_c, 1, 74, 45
2, 7774, Note_on_c, 1, 74, 0
2, 7776, Note_on_c, 1, 73, 45
2, 7936, Note_on_c, 1, 73, 0
2, 8064, Note_on_c, 1, 81, 45
2, 8256, Note_on_c, 1, 81, 0
2, 8256, Note_on_c, 1, 79, 65
2, 8352, Note_on_c, 1, 79, 0
2, 8352, Note_on_c, 1, 77, 75
2, 8448, Note_on_c, 1, 77, 0
2, 8448, Note_on_c, 1, 76, 65
2, 8544, Note_on_c, 1, 76, 0
2, 8544, Note_on_c, 1, 74, 55
2, 8638, Note_on_c, 1, 74, 0
2, 8640, Note_on_c, 1, 73, 45
2, 8800, Note_on_c, 1, 73, 0
2, 9216, Note_on_c, 1, 70, 30
2, 9504, Note_on_c, 1, 70, 0
2, 9504, Note_on_c, 1, 69, 30
2, 9664, Note_on_c, 1, 69, 0
2, 10080, Note_on_c, 1, 58, 84
2, 10336, Note_on_c, 1, 58, 0
2, 10464, Note_on_c, 1, 61, 45
2, 10560, Note_on_c, 1, 61, 0
2, 10560, Note_on_c, 1, 64, 45
2, 10656, Note_on_c, 1, 64, 0
2, 10656, Note_on_c, 1, 69, 45
2, 10750, Note_on_c, 1, 69, 0
2, 10752, Note_on_c, 1, 58, 50
2, 10800, Note_on_c, 1, 58, 0
2, 10800, Note_on_c, 1, 57, 52
2, 10848, Note_on_c, 1, 57, 0
2, 10848, Note_on_c, 1, 58, 54
2, 10896, Note_on_c, 1, 58, 0
2, 10896, Note_on_c, 1, 57, 56
2, 10944, Note_on_c, 1, 57, 0
2, 10944, Note_on_c, 1, 61, 58
2, 10992, Note_on_c, 1, 61, 0
2, 10992, Note_on_c, 1, 57, 60
2, 11040, Note_on_c, 1, 57, 0
2, 11040, Note_on_c, 1, 62, 63
2, 11088, Note_on_c, 1, 62, 0
2, 11088, Note_on_c, 1, 57, 66
2, 11136, Note_on_c, 1, 57, 0
2, 11136, Note_on_c, 1, 64, 69
2, 11184, Note_on_c, 1, 64, 0
2, 11184, Note_on_c, 1, 57, 72
2, 11230, Note_on_c, 1, 57, 0
2, 11232, Note_on_c, 1, 62, 30
2, 11326, Note_on_c, 1, 62, 0
2, 11328, Note_on_c, 1, 69, 30
2, 11396, Note_on_c, 1, 69, 0
2, 11424, Note_on_c, 1, 69, 30
2, 11456, Note_on_c, 1, 69, 0
2, 11520, Note_on_c, 1, 69, 30
2, 11588, Note_on_c, 1, 69, 0
2, 11616, Note_on_c, 1, 69, 30
2, 11684, Note_on_c, 1, 69, 0
2, 11712, Note_on_c, 1, 69, 30
2, 11744, Note_on_c, 1, 69, 0
2, 11808, Note_on_c, 1, 73, 30
2, 11876, Note_on_c, 1, 73, 0
2, 11904, Note_on_c, 1, 73, 30
2, 11972, Note_on_c, 1, 73, 0
2, 12000, Note_on_c, 1, 73, 30
2, 12032, Note_on_c, 1, 73, 0
2, 12096, Note_on_c, 1, 74, 30
2, 12190, Note_on_c, 1, 74, 0
2, 12192, Note_on_c, 1, 69, 30
2, 12286, Note_on_c, 1, 69, 0
2, 12288, Note_on_c, 1, 69, 30
2, 12382, Note_on_c, 1, 69, 0
2, 12384, Note_on_c, 1, 69, 30
2, 12478, Note_on_c, 1, 69, 0
2, 12480, Note_on_c, 1, 69, 30
2, 12574, Note_on_c, 1, 69, 0
2, 12576, Note_on_c, 1, 69, 30
2, 12670, Note_on_c, 1, 69, 0
2, 12672, Note_on_c, 1, 73, 30
2, 12766, Note_on_c, 1, 73, 0
2, 12768, Note_on_c, 1, 73, 30
2, 12862, Note_on_c, 1, 73, 0
2, 12864, Note_on_c, 1, 73, 30
2, 12958, Note_on_c, 1, 73, 0
2, 12960, Note_on_c, 1, 74, 45
2, 13120, Note_on_c, 1, 74, 0
2, 13824, Note_on_c, 1, 82, 45
2, 14496, Note_on_c, 1, 82, 0
2, 14496, Note_on_c, 1, 85, 45
2, 14592, Note_on_c, 1, 85, 0
2, 14592, Note_on_c, 1, 84, 45
2, 14686, Note_on_c, 1, 84, 0
2, 14688, Note_on_c, 1, 82, 45
2, 14976, Note_on_c, 1, 82, 0
2, 14976, Note_on_c, 1, 81, 45
2, 15072, Note_on_c, 1, 81, 0
2, 15072, Note_on_c, 1, 78, 45
2, 15168, Note_on_c, 1, 78, 0
2, 15168, Note_on_c, 1, 77, 45
2, 15264, Note_on_c, 1, 77, 0
2, 15264, Note_on_c, 1, 75, 45
2, 15360, Note_on_c, 1, 75, 0
2, 15360, Note_on_c, 1, 72, 45
2, 15456, Note_on_c, 1, 72, 0
2, 15456, Note_on_c, 1, 69, 45
2, 15550, Note_on_c, 1, 69, 0
2, 15552, Note_on_c, 1, 68, 45
2, 15808, Note_on_c, 1, 68, 0
2, 15840, Note_on_c, 1, 80, 49
2, 16176, Note_on_c, 1, 80, 0
2, 16176, Note_on_c, 1, 79, 53
2, 16224, Note_on_c, 1, 79, 0
2, 16224, Note_on_c, 1, 82, 53
2, 16272, Note_on_c, 1, 82, 0
2, 16272, Note_on_c, 1, 80, 53
2, 16320, Note_on_c, 1, 80, 0
2, 16320, Note_on_c, 1, 79, 53
2, 16368, Note_on_c, 1, 79, 0
2, 16368, Note_on_c, 1, 77, 54
2, 16414, Note_on_c, 1, 77, 0
2, 16416, Note_on_c, 1, 76, 55
2, 16576, Note_on_c, 1, 76, 0
2, 17376, Note_on_c, 1, 76, 30
2, 17472, Note_on_c, 1, 76, 0
2, 17472, Note_on_c, 1, 77, 30
2, 17566, Note_on_c, 1, 77, 0
2, 17568, Note_on_c, 1, 69, 30
2, 17664, Note_on_c, 1, 69, 0
2, 17664, Note_on_c, 1, 70, 30
2, 17950, Note_on_c, 1, 70, 0
2, 17952, Note_on_c, 1, 71, 30
2, 18020, Note_on_c, 1, 71, 0
2, 18048, Note_on_c, 1, 71, 30
2, 18080, Note_on_c, 1, 71, 0
2, 18144, Note_on_c, 1, 72, 30
2, 18304, Note_on_c, 1, 72, 0
2, 19104, Note_on_c, 1, 83, 30
2, 19200, Note_on_c, 1, 83, 0
2, 19200, Note_on_c, 1, 84, 30
2, 19296, Note_on_c, 1, 84, 0
2, 19296, Note_on_c, 1, 78, 30
2, 19392, Note_on_c, 1, 78, 0
2, 19392, Note_on_c, 1, 79, 30
2, 19488, Note_on_c, 1, 79, 0
2, 19488, Note_on_c, 1, 75, 30
2, 19584, Note_on_c, 1, 75, 0
2, 19584, Note_on_c, 1, 76, 30
2, 19680, Note_on_c, 1, 76, 0
2, 19680, Note_on_c, 1, 71, 30
2, 19776, Note_on_c, 1, 71, 0
2, 19776, Note_on_c, 1, 72, 30
2, 19870, Note_on_c, 1, 72, 0
2, 19968, Note_on_c, 1, 83, 30
2, 20064, Note_on_c, 1, 83, 0
2, 20064, Note_on_c, 1, 84, 30
2, 20160, Note_on_c, 1, 84, 0
2, 20160, Note_on_c, 1, 80, 30
2, 20256, Note_on_c, 1, 80, 0
2, 20256, Note_on_c, 1, 81, 30
2, 20352, Note_on_c, 1, 81, 0
2, 20352, Note_on_c, 1, 76, 30
2, 20448, Note_on_c, 1, 76, 0
2, 20448, Note_on_c, 1, 77, 30
2, 20544, Note_on_c, 1, 77, 0
2, 20544, Note_on_c, 1, 71, 30
2, 20640, Note_on_c, 1, 71, 0
2, 20640, Note_on_c, 1, 72, 30
2, 20734, Note_on_c, 1, 72, 0
2, 20832, Note_on_c, 1, 81, 30
2, 20928, Note_on_c, 1, 81, 0
2, 20928, Note_on_c, 1, 82, 33
2, 21024, Note_on_c, 1, 82, 0
2, 21024, Note_on_c, 1, 79, 36
2, 21120, Note_on_c, 1, 79, 0
2, 21120, Note_on_c, 1, 76, 40
2, 21216, Note_on_c, 1, 76, 0
2, 21216, Note_on_c, 1, 70, 44
2, 21312, Note_on_c, 1, 70, 0
2, 21312, Note_on_c, 1, 67, 48
2, 21408, Note_on_c, 1, 67, 0
2, 21408, Note_on_c, 1, 64, 52
2, 21504, Note_on_c, 1, 64, 0
2, 21504, Note_on_c, 1, 58, 56
2, 21598, Note_on_c, 1, 58, 0
2, 21600, Note_on_c, 1, 57, 45
2, 21760, Note_on_c, 1, 57, 0
2, 22464, Note_on_c, 1, 86, 45
2, 22752, Note_on_c, 1, 86, 0
2, 22752, Note_on_c, 1, 84, 45
2, 23040, Note_on_c, 1, 84, 0
2, 23040, Note_on_c, 1, 82, 45
2, 23136, Note_on_c, 1, 82, 0
2, 23136, Note_on_c, 1, 84, 45
2, 23148, Note_on_c, 1, 84, 0
2, 23148, Note_on_c, 1, 82, 45
2, 23184, Note_on_c, 1, 82, 0
2, 23184, Note_on_c, 1, 81, 45
2, 23232, Note_on_c, 1, 81, 0
2, 23232, Note_on_c, 1, 82, 45
2, 23280, Note_on_c, 1, 82, 0
2, 23280, Note_on_c, 1, 84, 45
2, 23326, Note_on_c, 1, 84, 0
2, 23328, Note_on_c, 1, 81, 45
2, 23488, Note_on_c, 1, 81, 0
2, 24192, Note_on_c, 1, 86, 45
2, 24288, Note_on_c, 1, 86, 0
2, 24288, Note_on_c, 1, 91, 45
2, 24336, Note_on_c, 1, 91, 0
2, 24336, Note_on_c, 1, 89, 45
2, 24384, Note_on_c, 1, 89, 0
2, 24384, Note_on_c, 1, 88, 45
2, 24432, Note_on_c, 1, 88, 0
2, 24432, Note_on_c, 1, 86, 45
2, 24478, Note_on_c, 1, 86, 0
2, 24480, Note_on_c, 1, 86, 45
2, 24528, Note_on_c, 1, 86, 0
2, 24528, Note_on_c, 1, 84, 45
2, 24576, Note_on_c, 1, 84, 0
2, 24576, Note_on_c, 1, 89, 45
2, 24624, Note_on_c, 1, 89, 0
2, 24624, Note_on_c, 1, 88, 45
2, 24672, Note_on_c, 1, 88, 0
2, 24672, Note_on_c, 1, 86, 45
2, 24720, Note_on_c, 1, 86, 0
2, 24720, Note_on_c, 1, 84, 45
2, 24766, Note_on_c, 1, 84, 0
2, 24768, Note_on_c, 1, 84, 45
2, 24816, Note_on_c, 1, 84, 0
2, 24816, Note_on_c, 1, 82, 45
2, 24864, Note_on_c, 1, 82, 0
2, 24864, Note_on_c, 1, 91, 45
2, 24912, Note_on_c, 1, 91, 0
2, 24912, Note_on_c, 1, 88, 45
2, 24960, Note_on_c, 1, 88, 0
2, 24960, Note_on_c, 1, 84, 45
2, 25008, Note_on_c, 1, 84, 0
2, 25008, Note_on_c, 1, 82, 45
2, 25054, Note_on_c, 1, 82, 0
2, 25056, Note_on_c, 1, 81, 45
2, 25104, Note_on_c, 1, 81, 0
2, 25104, Note_on_c, 1, 80, 45
2, 25152, Note_on_c, 1, 80, 0
2, 25152, Note_on_c, 1, 81, 45
2, 25200, Note_on_c, 1, 81, 0
2, 25200, Note_on_c, 1, 79, 45
2, 25248, Note_on_c, 1, 79, 0
2, 25248, Note_on_c, 1, 77, 45
2, 25296, Note_on_c, 1, 77, 0
2, 25296, Note_on_c, 1, 76, 45
2, 25344, Note_on_c, 1, 76, 0
2, 25344, Note_on_c, 1, 74, 45
2, 25392, Note_on_c, 1, 74, 0
2, 25392, Note_on_c, 1, 73, 45
2, 25440, Note_on_c, 1, 73, 0
2, 25440, Note_on_c, 1, 74, 45
2, 25488, Note_on_c, 1, 74, 0
2, 25488, Note_on_c, 1, 72, 45
2, 25536, Note_on_c, 1, 72, 0
2, 25536, Note_on_c, 1, 70, 45
2, 25584, Note_on_c, 1, 70, 0
2, 25584, Note_on_c, 1, 69, 45
2, 25632, Note_on_c, 1, 69, 0
2, 25632, Note_on_c, 1, 67, 45
2, 25680, Note_on_c, 1, 67, 0
2, 25680, Note_on_c, 1, 66, 45
2, 25728, Note_on_c, 1, 66, 0
2, 25728, Note_on_c, 1, 67, 45
2, 25776, Note_on_c, 1, 67, 0
2, 25776, Note_on_c, 1, 65, 45
2, 25824, Note_on_c, 1, 65, 0
2, 25824, Note_on_c, 1, 64, 45
2, 25872, Note_on_c, 1, 64, 0
2, 25872, Note_on_c, 1, 62, 45
2, 25918, Note_on_c, 1, 62, 0
2, 25920, Note_on_c, 1, 61, 45
2, 26112, Note_on_c, 1, 61, 0
2, 26112, Note_on_c, 1, 62, 45
2, 26160, Note_on_c, 1, 62, 0
2, 26160, Note_on_c, 1, 64, 45
2, 26206, Note_on_c, 1, 64, 0
2, 26208, Note_on_c, 1, 65, 45
2, 26400, Note_on_c, 1, 65, 0
2, 26400, Note_on_c, 1, 67, 45
2, 26448, Note_on_c, 1, 67, 0
2, 26448, Note_on_c, 1, 69, 45
2, 26494, Note_on_c, 1, 69, 0
2, 26496, Note_on_c, 1, 70, 45
2, 27360, Note_on_c, 1, 70, 0
2, 27360, Note_on_c, 1, 68, 57
2, 27616, Note_on_c, 1, 68, 0
2, 27648, Note_on_c, 1, 66, 63
2, 27936, Note_on_c, 1, 66, 0
2, 27936, Note_on_c, 1, 65, 96
2, 28320, Note_on_c, 1, 65, 0
2, 28320, Note_on_c, 1, 67, 65
2, 28416, Note_on_c, 1, 67, 0
2, 28416, Note_on_c, 1, 64, 55
2, 28510, Note_on_c, 1, 64, 0
2, 28512, Note_on_c, 1, 65, 45
2, 28672, Note_on_c, 1, 65, 0
2, 29088, Note_on_c, 1, 86, 45
2, 29136, Note_on_c, 1, 86, 0
2, 29136, Note_on_c, 1, 85, 45
2, 29184, Note_on_c, 1, 85, 0
2, 29184, Note_on_c, 1, 86, 45
2, 29232, Note_on_c, 1, 86, 0
2, 29232, Note_on_c, 1, 84, 45
2, 29280, Note_on_c, 1, 84, 0
2, 29280, Note_on_c, 1, 82, 45
2, 29328, Note_on_c, 1, 82, 0
2, 29328, Note_on_c, 1, 81, 45
2, 29374, Note_on_c, 1, 81, 0
2, 29376, Note_on_c, 1, 79, 45
2, 29664, Note_on_c, 1, 79, 0
2, 29664, Note_on_c, 1, 78, 45
2, 29952, Note_on_c, 1, 78, 0
2, 29952, Note_on_c, 1, 77, 45
2, 30336, Note_on_c, 1, 77, 0
2, 30336, Note_on_c, 1, 82, 47
2, 30430, Note_on_c, 1, 82, 0
2, 30432, Note_on_c, 1, 82, 49
2, 30526, Note_on_c, 1, 82, 0
2, 30528, Note_on_c, 1, 82, 51
2, 30816, Note_on_c, 1, 82, 0
2, 30816, Note_on_c, 1, 80, 57
2, 31072, Note_on_c, 1, 80, 0
2, 31104, Note_on_c, 1, 78, 63
2, 31392, Note_on_c, 1, 78, 0
2, 31392, Note_on_c, 1, 77, 96
2, 31776, Note_on_c, 1, 77, 0
2, 31776, Note_on_c, 1, 79, 65
2, 31872, Note_on_c, 1, 79, 0
2, 31872, Note_on_c, 1, 76, 55
2, 31966, Note_on_c, 1, 76, 0
2, 31968, Note_on_c, 1, 77, 45
2, 32062, Note_on_c, 1, 77, 0
2, 32064, Note_on_c, 1, 60, 45
2, 32158, Note_on_c, 1, 60, 0
2, 32160, Note_on_c, 1, 60, 45
2, 32254, Note_on_c, 1, 60, 0
2, 32256, Note_on_c, 1, 60, 45
2, 32416, Note_on_c, 1, 60, 0
2, 32832, Note_on_c, 1, 64, 45
2, 32926, Note_on_c, 1, 64, 0
2, 32928, Note_on_c, 1, 64, 45
2, 33022, Note_on_c, 1, 64, 0
2, 33024, Note_on_c, 1, 64, 45
2, 33118, Note_on_c, 1, 64, 0
2, 33120, Note_on_c, 1, 64, 45
2, 33280, Note_on_c, 1, 64, 0
2, 33696, Note_on_c, 1, 84, 45
2, 33952, Note_on_c, 1, 84, 0
2, 33984, Note_on_c, 1, 83, 45
2, 34032, Note_on_c, 1, 83, 0
2, 34032, Note_on_c, 1, 84, 45
2, 34078, Note_on_c, 1, 84, 0
2, 34080, Note_on_c, 1, 86, 45
2, 34128, Note_on_c, 1, 86, 0
2, 34128, Note_on_c, 1, 84, 45
2, 34174, Note_on_c, 1, 84, 0
2, 34176, Note_on_c, 1, 80, 45
2, 34224, Note_on_c, 1, 80, 0
2, 34224, Note_on_c, 1, 81, 45
2, 34270, Note_on_c, 1, 81, 0
2, 34272, Note_on_c, 1, 82, 45
2, 34320, Note_on_c, 1, 82, 0
2, 34320, Note_on_c, 1, 81, 45
2, 34366, Note_on_c, 1, 81, 0
2, 34368, Note_on_c, 1, 76, 45
2, 34416, Note_on_c, 1, 76, 0
2, 34416, Note_on_c, 1, 77, 45
2, 34462, Note_on_c, 1, 77, 0
2, 34464, Note_on_c, 1, 79, 45
2, 34512, Note_on_c, 1, 79, 0
2, 34512, Note_on_c, 1, 77, 45
2, 34558, Note_on_c, 1, 77, 0
2, 34560, Note_on_c, 1, 73, 45
2, 34608, Note_on_c, 1, 73, 0
2, 34608, Note_on_c, 1, 74, 45
2, 34654, Note_on_c, 1, 74, 0
2, 34656, Note_on_c, 1, 76, 45
2, 34704, Note_on_c, 1, 76, 0
2, 34704, Note_on_c, 1, 74, 45
2, 34750, Note_on_c, 1, 74, 0
2, 34752, Note_on_c, 1, 69, 45
2, 34800, Note_on_c, 1, 69, 0
2, 34800, Note_on_c, 1, 70, 45
2, 34846, Note_on_c, 1, 70, 0
2, 34848, Note_on_c, 1, 72, 45
2, 34896, Note_on_c, 1, 72, 0
2, 34896, Note_on_c, 1, 70, 44
2, 34942, Note_on_c, 1, 70, 0
2, 34944, Note_on_c, 1, 66, 43
2, 34992, Note_on_c, 1, 66, 0
2, 34992, Note_on_c, 1, 67, 42
2, 35038, Note_on_c, 1, 67, 0
2, 35040, Note_on_c, 1, 69, 41
2, 35088, Note_on_c, 1, 69, 0
2, 35088, Note_on_c, 1, 67, 40
2, 35134, Note_on_c, 1, 67, 0
2, 35136, Note_on_c, 1, 66, 39
2, 35184, Note_on_c, 1, 66, 0
2, 35184, Note_on_c, 1, 67, 38
2, 35230, Note_on_c, 1, 67, 0
2, 35232, Note_on_c, 1, 69, 37
2, 35280, Note_on_c, 1, 69, 0
2, 35280, Note_on_c, 1, 67, 36
2, 35326, Note_on_c, 1, 67, 0
2, 35328, Note_on_c, 1, 66, 34
2, 35376, Note_on_c, 1, 66, 0
2, 35376, Note_on_c, 1, 67, 32
2, 35422, Note_on_c, 1, 67, 0
2, 35424, Note_on_c, 1, 70, 30
2, 35616, Note_on_c, 1, 70, 0
2, 35616, Note_on_c, 1, 69, 30
2, 35710, Note_on_c, 1, 69, 0
2, 35712, Note_on_c, 1, 67, 45
2, 36096, Note_on_c, 1, 67, 0
2, 36096, Note_on_c, 1, 69, 30
2, 36192, Note_on_c, 1, 69, 0
2, 36192, Note_on_c, 1, 70, 30
2, 36286, Note_on_c, 1, 70, 0
2, 36288, Note_on_c, 1, 72, 30
2, 36480, Note_on_c, 1, 72, 0
2, 36480, Note_on_c, 1, 74, 33
2, 36528, Note_on_c, 1, 74, 0
2, 36528, Note_on_c, 1, 76, 33
2, 36574, Note_on_c, 1, 76, 0
2, 36576, Note_on_c, 1, 77, 33
2, 36960, Note_on_c, 1, 77, 0
2, 36960, Note_on_c, 1, 69, 41
2, 37054, Note_on_c, 1, 69, 0
2, 37056, Note_on_c, 1, 69, 43
2, 37150, Note_on_c, 1, 69, 0
2, 37152, Note_on_c, 1, 69, 45
2, 37344, Note_on_c, 1, 69, 0
2, 37344, Note_on_c, 1, 70, 45
2, 37356, Note_on_c, 1, 70, 0
2, 37356, Note_on_c, 1, 69, 45
2, 37368, Note_on_c, 1, 69, 0
2, 37368, Note_on_c, 1, 67, 45
2, 37380, Note_on_c, 1, 67, 0
2, 37380, Note_on_c, 1, 69, 45
2, 37392, Note_on_c, 1, 69, 0
2, 37392, Note_on_c, 1, 72, 45
2, 37416, Note_on_c, 1, 72, 0
2, 37416, Note_on_c, 1, 70, 45
2, 37438, Note_on_c, 1, 70, 0
2, 37440, Note_on_c, 1, 69, 45
2, 37870, Note_on_c, 1, 69, 0
2, 37872, Note_on_c, 1, 67, 67
2, 37920, Note_on_c, 1, 67, 0
2, 37920, Note_on_c, 1, 74, 75
2, 37992, Note_on_c, 1, 74, 0
2, 37992, Note_on_c, 1, 72, 42
2, 38014, Note_on_c, 1, 72, 0
2, 38016, Note_on_c, 1, 65, 30
2, 38176, Note_on_c, 1, 65, 0
2, 38304, Note_on_c, 1, 65, 30
2, 38464, Note_on_c, 1, 65, 0
2, 38880, Note_on_c, 1, 84, 30
2, 39136, Note_on_c, 1, 84, 0
2, 39168, Note_on_c, 1, 83, 30
2, 39216, Note_on_c, 1, 83, 0
2, 39216, Note_on_c, 1, 84, 30
2, 39262, Note_on_c, 1, 84, 0
2, 39264, Note_on_c, 1, 86, 30
2, 39312, Note_on_c, 1, 86, 0
2, 39312, Note_on_c, 1, 84, 30
2, 39358, Note_on_c, 1, 84, 0
2, 39360, Note_on_c, 1, 80, 30
2, 39408, Note_on_c, 1, 80, 0
2, 39408, Note_on_c, 1, 81, 30
2, 39454, Note_on_c, 1, 81, 0
2, 39456, Note_on_c, 1, 82, 30
2, 39504, Note_on_c, 1, 82, 0
2, 39504, Note_on_c, 1, 81, 30
2, 39550, Note_on_c, 1, 81, 0
2, 39552, Note_on_c, 1, 76, 30
2, 39600, Note_on_c, 1, 76, 0
2, 39600, Note_on_c, 1, 77, 30
2, 39646, Note_on_c, 1, 77, 0
2, 39648, Note_on_c, 1, 79, 30
2, 39696, Note_on_c, 1, 79, 0
2, 39696, Note_on_c, 1, 77, 30
2, 39742, Note_on_c, 1, 77, 0
2, 39744, Note_on_c, 1, 84, 30
2, 40000, Note_on_c, 1, 84, 0
2, 40032, Note_on_c, 1, 83, 30
2, 40080, Note_on_c, 1, 83, 0
2, 40080, Note_on_c, 1, 84, 30
2, 40126, Note_on_c, 1, 84, 0
2, 40128, Note_on_c, 1, 80, 30
2, 40176, Note_on_c, 1, 80, 0
2, 40176, Note_on_c, 1, 81, 36
2, 40222, Note_on_c, 1, 81, 0
2, 40224, Note_on_c, 1, 77, 42
2, 40272, Note_on_c, 1, 77, 0
2, 40272, Note_on_c, 1, 78, 48
2, 40318, Note_on_c, 1, 78, 0
2, 40320, Note_on_c, 1, 73, 54
2, 40368, Note_on_c, 1, 73, 0
2, 40368, Note_on_c, 1, 74, 60
2, 40414, Note_on_c, 1, 74, 0
2, 40416, Note_on_c, 1, 71, 66
2, 40464, Note_on_c, 1, 71, 0
2, 40464, Note_on_c, 1, 72, 72
2, 40510, Note_on_c, 1, 72, 0
2, 40512, Note_on_c, 1, 69, 78
2, 40560, Note_on_c, 1, 69, 0
2, 40560, Note_on_c, 1, 66, 85
2, 40606, Note_on_c, 1, 66, 0
2, 40608, Note_on_c, 1, 62, 92
2, 40608, Note_on_c, 1, 74, 92
2, 41440, Note_on_c, 1, 74, 0
2, 41440, Note_on_c, 1, 62, 0
2, 41472, Note_on_c, 1, 74, 92
2, 41496, Note_on_c, 1, 74, 0
2, 41496, Note_on_c, 1, 73, 92
2, 41520, Note_on_c, 1, 73, 0
2, 41520, Note_on_c, 1, 74, 92
2, 41544, Note_on_c, 1, 74, 0
2, 41544, Note_on_c, 1, 78, 92
2, 41568, Note_on_c, 1, 78, 0
2, 41568, Note_on_c, 1, 79, 92
2, 41592, Note_on_c, 1, 79, 0
2, 41592, Note_on_c, 1, 78, 92
2, 41616, Note_on_c, 1, 78, 0
2, 41616, Note_on_c, 1, 79, 92
2, 41640, Note_on_c, 1, 79, 0
2, 41640, Note_on_c, 1, 81, 92
2, 41664, Note_on_c, 1, 81, 0
2, 41664, Note_on_c, 1, 82, 92
2, 41696, Note_on_c, 1, 82, 0
2, 41760, Note_on_c, 1, 62, 127
2, 41760, Note_on_c, 1, 74, 127
2, 42288, Note_on_c, 1, 74, 0
2, 42288, Note_on_c, 1, 62, 0
2, 42336, Note_on_c, 1, 74, 92
2, 42360, Note_on_c, 1, 74, 0
2, 42360, Note_on_c, 1, 73, 92
2, 42384, Note_on_c, 1, 73, 0
2, 42384, Note_on_c, 1, 74, 92
2, 42408, Note_on_c, 1, 74, 0
2, 42408, Note_on_c, 1, 76, 92
2, 42432, Note_on_c, 1, 76, 0
2, 42432, Note_on_c, 1, 78, 92
2, 42456, Note_on_c, 1, 78, 0
2, 42456, Note_on_c, 1, 76, 92
2, 42480, Note_on_c, 1, 76, 0
2, 42480, Note_on_c, 1, 78, 92
2, 42504, Note_on_c, 1, 78, 0
2, 42504, Note_on_c, 1, 79, 92
2, 42528, Note_on_c, 1, 79, 0
2, 42528, Note_on_c, 1, 81, 92
2, 42560, Note_on_c, 1, 81, 0
2, 42624, Note_on_c, 1, 62, 127
2, 42624, Note_on_c, 1, 74, 127
2, 43152, Note_on_c, 1, 74, 0
2, 43152, Note_on_c, 1, 62, 0
2, 43200, Note_on_c, 1, 74, 92
2, 43224, Note_on_c, 1, 74, 0
2, 43224, Note_on_c, 1, 73, 92
2, 43248, Note_on_c, 1, 73, 0
2, 43248, Note_on_c, 1, 74, 92
2, 43272, Note_on_c, 1, 74, 0
2, 43272, Note_on_c, 1, 76, 92
2, 43296, Note_on_c, 1, 76, 0
2, 43296, Note_on_c, 1, 78, 92
2, 43320, Note_on_c, 1, 78, 0
2, 43320, Note_on_c, 1, 76, 92
2, 43344, Note_on_c, 1, 76, 0
2, 43344, Note_on_c, 1, 78, 92
2, 43368, Note_on_c, 1, 78, 0
2, 43368, Note_on_c, 1, 79, 92
2, 43392, Note_on_c, 1, 79, 0
2, 43392, Note_on_c, 1, 81, 92
2, 43424, Note_on_c, 1, 81, 0
2, 43488, Note_on_c, 1, 66, 127
2, 44016, Note_on_c, 1, 66, 0
2, 44064, Note_on_c, 1, 74, 92
2, 44088, Note_on_c, 1, 74, 0
2, 44088, Note_on_c, 1, 73, 92
2, 44112, Note_on_c, 1, 73, 0
2, 44112, Note_on_c, 1, 74, 92
2, 44136, Note_on_c, 1, 74, 0
2, 44136, Note_on_c, 1, 75, 92
2, 44160, Note_on_c, 1, 75, 0
2, 44160, Note_on_c, 1, 77, 92
2, 44184, Note_on_c, 1, 77, 0
2, 44184, Note_on_c, 1, 75, 92
2, 44208, Note_on_c, 1, 75, 0
2, 44208, Note_on_c, 1, 77, 92
2, 44232, Note_on_c, 1, 77, 0
2, 44232, Note_on_c, 1, 79, 92
2, 44256, Note_on_c, 1, 79, 0
2, 44256, Note_on_c, 1, 80, 92
2, 44288, Note_on_c, 1, 80, 0
2, 44352, Note_on_c, 1, 65, 127
2, 44880, Note_on_c, 1, 65, 0
2, 44928, Note_on_c, 1, 79, 92
2, 44952, Note_on_c, 1, 79, 0
2, 44952, Note_on_c, 1, 78, 92
2, 44976, Note_on_c, 1, 78, 0
2, 44976, Note_on_c, 1, 79, 92
2, 45000, Note_on_c, 1, 79, 0
2, 45000, Note_on_c, 1, 81, 92
2, 45024, Note_on_c, 1, 81, 0
2, 45024, Note_on_c, 1, 83, 92
2, 45048, Note_on_c, 1, 83, 0
2, 45048, Note_on_c, 1, 81, 92
2, 45072, Note_on_c, 1, 81, 0
2, 45072, Note_on_c, 1, 83, 92
2, 45096, Note_on_c, 1, 83, 0
2, 45096, Note_on_c, 1, 84, 92
2, 45120, Note_on_c, 1, 84, 0
2, 45120, Note_on_c, 1, 86, 92
2, 45152, Note_on_c, 1, 86, 0
2, 45216, Note_on_c, 1, 59, 94
2, 45598, Note_on_c, 1, 59, 0
2, 45600, Note_on_c, 1, 59, 103
2, 45696, Note_on_c, 1, 59, 0
2, 45696, Note_on_c, 1, 67, 105
2, 45790, Note_on_c, 1, 67, 0
2, 45792, Note_on_c, 1, 67, 30
2, 46080, Note_on_c, 1, 67, 0
2, 46080, Note_on_c, 1, 72, 30
2, 46368, Note_on_c, 1, 72, 0
2, 46368, Note_on_c, 1, 74, 30
2, 46624, Note_on_c, 1, 74, 0
2, 46656, Note_on_c, 1, 75, 30
2, 46816, Note_on_c, 1, 75, 0
2, 47520, Note_on_c, 1, 74, 30
2, 47808, Note_on_c, 1, 74, 0
2, 47808, Note_on_c, 1, 81, 30
2, 48096, Note_on_c, 1, 81, 0
2, 48096, Note_on_c, 1, 86, 30
2, 48352, Note_on_c, 1, 86, 0
2, 48384, Note_on_c, 1, 82, 30
2, 48544, Note_on_c, 1, 82, 0
2, 49248, Note_on_c, 1, 70, 30
2, 49536, Note_on_c, 1, 70, 0
2, 49536, Note_on_c, 1, 75, 50
2, 49824, Note_on_c, 1, 75, 0
2, 49824, Note_on_c, 1, 77, 71
2, 50080, Note_on_c, 1, 77, 0
2, 50112, Note_on_c, 1, 79, 92
2, 50272, Note_on_c, 1, 79, 0
2, 50976, Note_on_c, 1, 77, 45
2, 51136, Note_on_c, 1, 77, 0
2, 51840, Note_on_c, 1, 76, 30
2, 52000, Note_on_c, 1, 76, 0
2, 52704, Note_on_c, 1, 69, 10
2, 52864, Note_on_c, 1, 69, 0
2, 54432, Note_on_c, 1, 69, 30
2, 55008, Note_on_c, 1, 69, 0
2, 55008, Note_on_c, 1, 69, 30
2, 55296, Note_on_c, 1, 69, 0
2, 55296, Note_on_c, 1, 69, 37
2, 55584, Note_on_c, 1, 69, 0
2, 55584, Note_on_c, 1, 74, 44
2, 55872, Note_on_c, 1, 74, 0
2, 55872, Note_on_c, 1, 76, 52
2, 56128, Note_on_c, 1, 76, 0
2, 56160, Note_on_c, 1, 77, 45
2, 56640, Note_on_c, 1, 77, 0
2, 56640, Note_on_c, 1, 76, 45
2, 56688, Note_on_c, 1, 76, 0
2, 56688, Note_on_c, 1, 74, 45
2, 56734, Note_on_c, 1, 74, 0
2, 56736, Note_on_c, 1, 74, 45
2, 56784, Note_on_c, 1, 74, 0
2, 56784, Note_on_c, 1, 76, 45
2, 56808, Note_on_c, 1, 76, 0
2, 56808, Note_on_c, 1, 74, 45
2, 56832, Note_on_c, 1, 74, 0
2, 56832, Note_on_c, 1, 73, 45
2, 56880, Note_on_c, 1, 73, 0
2, 56880, Note_on_c, 1, 74, 45
2, 56928, Note_on_c, 1, 74, 0
2, 56928, Note_on_c, 1, 77, 45
2, 56976, Note_on_c, 1, 77, 0
2, 56976, Note_on_c, 1, 76, 45
2, 57022, Note_on_c, 1, 76, 0
2, 57024, Note_on_c, 1, 74, 92
2, 57312, Note_on_c, 1, 74, 0
2, 57312, Note_on_c, 1, 73, 92
2, 57694, Note_on_c, 1, 73, 0
2, 57696, Note_on_c, 1, 73, 92
2, 57742, Note_on_c, 1, 73, 0
2, 57744, Note_on_c, 1, 74, 92
2, 57792, Note_on_c, 1, 74, 0
2, 57792, Note_on_c, 1, 76, 92
2, 57840, Note_on_c, 1, 76, 0
2, 57840, Note_on_c, 1, 77, 92
2, 57886, Note_on_c, 1, 77, 0
2, 57888, Note_on_c, 1, 79, 45
2, 58270, Note_on_c, 1, 79, 0
2, 58272, Note_on_c, 1, 81, 45
2, 58284, Note_on_c, 1, 81, 0
2, 58284, Note_on_c, 1, 79, 45
2, 58320, Note_on_c, 1, 79, 0
2, 58320, Note_on_c, 1, 78, 45
2, 58368, Note_on_c, 1, 78, 0
2, 58368, Note_on_c, 1, 79, 45
2, 58416, Note_on_c, 1, 79, 0
2, 58416, Note_on_c, 1, 81, 45
2, 58462, Note_on_c, 1, 81, 0
2, 58464, Note_on_c, 1, 82, 45
2, 58656, Note_on_c, 1, 82, 0
2, 58656, Note_on_c, 1, 73, 45
2, 58750, Note_on_c, 1, 73, 0
2, 58752, Note_on_c, 1, 76, 92
2, 59040, Note_on_c, 1, 76, 0
2, 59040, Note_on_c, 1, 74, 92
2, 59424, Note_on_c, 1, 74, 0
2, 59424, Note_on_c, 1, 76, 92
2, 59520, Note_on_c, 1, 76, 0
2, 59520, Note_on_c, 1, 77, 92
2, 59614, Note_on_c, 1, 77, 0
2, 59616, Note_on_c, 1, 77, 45
2, 59904, Note_on_c, 1, 77, 0
2, 59904, Note_on_c, 1, 76, 45
2, 60288, Note_on_c, 1, 76, 0
2, 60288, Note_on_c, 1, 77, 45
2, 60384, Note_on_c, 1, 77, 0
2, 60384, Note_on_c, 1, 74, 45
2, 60478, Note_on_c, 1, 74, 0
2, 60480, Note_on_c, 1, 73, 45
2, 60640, Note_on_c, 1, 73, 0
2, 60864, Note_on_c, 1, 81, 45
2, 60960, Note_on_c, 1, 81, 0
2, 60960, Note_on_c, 1, 79, 45
2, 61056, Note_on_c, 1, 79, 0
2, 61056, Note_on_c, 1, 77, 45
2, 61152, Note_on_c, 1, 77, 0
2, 61152, Note_on_c, 1, 76, 45
2, 61248, Note_on_c, 1, 76, 0
2, 61248, Note_on_c, 1, 74, 45
2, 61342, Note_on_c, 1, 74, 0
2, 61344, Note_on_c, 1, 73, 45
2, 61504, Note_on_c, 1, 73, 0
2, 61632, Note_on_c, 1, 81, 45
2, 61824, Note_on_c, 1, 81, 0
2, 61824, Note_on_c, 1, 79, 65
2, 61920, Note_on_c, 1, 79, 0
2, 61920, Note_on_c, 1, 77, 75
2, 62016, Note_on_c, 1, 77, 0
2, 62016, Note_on_c, 1, 76, 65
2, 62112, Note_on_c, 1, 76, 0
2, 62112, Note_on_c, 1, 74, 55
2, 62206, Note_on_c, 1, 74, 0
2, 62208, Note_on_c, 1, 73, 45
2, 62368, Note_on_c, 1, 73, 0
2, 62784, Note_on_c, 1, 70, 30
2, 63072, Note_on_c, 1, 70, 0
2, 63072, Note_on_c, 1, 69, 30
2, 63232, Note_on_c, 1, 69, 0
2, 64320, Note_on_c, 1, 57, 57
2, 64416, Note_on_c, 1, 57, 0
2, 64416, Note_on_c, 1, 59, 60
2, 64512, Note_on_c, 1, 59, 0
2, 64512, Note_on_c, 1, 61, 63
2, 64608, Note_on_c, 1, 61, 0
2, 64608, Note_on_c, 1, 62, 67
2, 64704, Note_on_c, 1, 62, 0
2, 64704, Note_on_c, 1, 64, 71
2, 64798, Note_on_c, 1, 64, 0
2, 64800, Note_on_c, 1, 62, 45
2, 64960, Note_on_c, 1, 62, 0
2, 65664, Note_on_c, 1, 83, 45
2, 65952, Note_on_c, 1, 83, 0
2, 65952, Note_on_c, 1, 81, 45
2, 66240, Note_on_c, 1, 81, 0
2, 66240, Note_on_c, 1, 79, 45
2, 66336, Note_on_c, 1, 79, 0
2, 66336, Note_on_c, 1, 81, 45
2, 66348, Note_on_c, 1, 81, 0
2, 66348, Note_on_c, 1, 79, 45
2, 66384, Note_on_c, 1, 79, 0
2, 66384, Note_on_c, 1, 78, 45
2, 66432, Note_on_c, 1, 78, 0
2, 66432, Note_on_c, 1, 79, 45
2, 66480, Note_on_c, 1, 79, 0
2, 66480, Note_on_c, 1, 81, 45
2, 66526, Note_on_c, 1, 81, 0
2, 66528, Note_on_c, 1, 78, 45
2, 66688, Note_on_c, 1, 78, 0
2, 67392, Note_on_c, 1, 83, 45
2, 67488, Note_on_c, 1, 83, 0
2, 67488, Note_on_c, 1, 88, 45
2, 67536, Note_on_c, 1, 88, 0
2, 67536, Note_on_c, 1, 86, 45
2, 67584, Note_on_c, 1, 86, 0
2, 67584, Note_on_c, 1, 85, 45
2, 67632, Note_on_c, 1, 85, 0
2, 67632, Note_on_c, 1, 83, 45
2, 67678, Note_on_c, 1, 83, 0
2, 67680, Note_on_c, 1, 83, 45
2, 67728, Note_on_c, 1, 83, 0
2, 67728, Note_on_c, 1, 81, 45
2, 67776, Note_on_c, 1, 81, 0
2, 67776, Note_on_c, 1, 86, 45
2, 67824, Note_on_c, 1, 86, 0
2, 67824, Note_on_c, 1, 85, 45
2, 67872, Note_on_c, 1, 85, 0
2, 67872, Note_on_c, 1, 83, 45
2, 67920, Note_on_c, 1, 83, 0
2, 67920, Note_on_c, 1, 81, 45
2, 67966, Note_on_c, 1, 81, 0
2, 67968, Note_on_c, 1, 81, 45
2, 68016, Note_on_c, 1, 81, 0
2, 68016, Note_on_c, 1, 79, 45
2, 68064, Note_on_c, 1, 79, 0
2, 68064, Note_on_c, 1, 88, 45
2, 68112, Note_on_c, 1, 88, 0
2, 68112, Note_on_c, 1, 85, 45
2, 68160, Note_on_c, 1, 85, 0
2, 68160, Note_on_c, 1, 81, 45
2, 68208, Note_on_c, 1, 81, 0
2, 68208, Note_on_c, 1, 79, 45
2, 68254, Note_on_c, 1, 79, 0
2, 68256, Note_on_c, 1, 78, 45
2, 68304, Note_on_c, 1, 78, 0
2, 68304, Note_on_c, 1, 77, 45
2, 68352, Note_on_c, 1, 77, 0
2, 68352, Note_on_c, 1, 78, 45
2, 68400, Note_on_c, 1, 78, 0
2, 68400, Note_on_c, 1, 76, 45
2, 68448, Note_on_c, 1, 76, 0
2, 68448, Note_on_c, 1, 74, 45
2, 68496, Note_on_c, 1, 74, 0
2, 68496, Note_on_c, 1, 73, 45
2, 68544, Note_on_c, 1, 73, 0
2, 68544, Note_on_c, 1, 71, 45
2, 68592, Note_on_c, 1, 71, 0
2, 68592, Note_on_c, 1, 70, 45
2, 68640, Note_on_c, 1, 70, 0
2, 68640, Note_on_c, 1, 71, 45
2, 68688, Note_on_c, 1, 71, 0
2, 68688, Note_on_c, 1, 69, 45
2, 68736, Note_on_c, 1, 69, 0
2, 68736, Note_on_c, 1, 67, 45
2, 68784, Note_on_c, 1, 67, 0
2, 68784, Note_on_c, 1, 66, 45
2, 68832, Note_on_c, 1, 66, 0
2, 68832, Note_on_c, 1, 64, 45
2, 68880, Note_on_c, 1, 64, 0
2, 68880, Note_on_c, 1, 63, 45
2, 68928, Note_on_c, 1, 63, 0
2, 68928, Note_on_c, 1, 64, 45
2, 68976, Note_on_c, 1, 64, 0
2, 68976, Note_on_c, 1, 62, 45
2, 69024, Note_on_c, 1, 62, 0
2, 69024, Note_on_c, 1, 61, 45
2, 69072, Note_on_c, 1, 61, 0
2, 69072, Note_on_c, 1, 59, 45
2, 69118, Note_on_c, 1, 59, 0
2, 69120, Note_on_c, 1, 58, 45
2, 69312, Note_on_c, 1, 58, 0
2, 69312, Note_on_c, 1, 59, 45
2, 69360, Note_on_c, 1, 59, 0
2, 69360, Note_on_c, 1, 61, 45
2, 69408, Note_on_c, 1, 61, 0
2, 69408, Note_on_c, 1, 62, 45
2, 69600, Note_on_c, 1, 62, 0
2, 69600, Note_on_c, 1, 64, 45
2, 69648, Note_on_c, 1, 64, 0
2, 69648, Note_on_c, 1, 66, 45
2, 69694, Note_on_c, 1, 66, 0
2, 69696, Note_on_c, 1, 67, 45
2, 69764, Note_on_c, 1, 67, 0
2, 69792, Note_on_c, 1, 67, 45
2, 69860, Note_on_c, 1, 67, 0
2, 69888, Note_on_c, 1, 67, 45
2, 69920, Note_on_c, 1, 67, 0
2, 69984, Note_on_c, 1, 67, 45
2, 70560, Note_on_c, 1, 67, 0
2, 70560, Note_on_c, 1, 65, 57
2, 70816, Note_on_c, 1, 65, 0
2, 70848, Note_on_c, 1, 63, 63
2, 71136, Note_on_c, 1, 63, 0
2, 71136, Note_on_c, 1, 62, 69
2, 71520, Note_on_c, 1, 62, 0
2, 71520, Note_on_c, 1, 64, 65
2, 71616, Note_on_c, 1, 64, 0
2, 71616, Note_on_c, 1, 61, 55
2, 71710, Note_on_c, 1, 61, 0
2, 71712, Note_on_c, 1, 62, 45
2, 71872, Note_on_c, 1, 62, 0
2, 72288, Note_on_c, 1, 83, 45
2, 72336, Note_on_c, 1, 83, 0
2, 72336, Note_on_c, 1, 82, 45
2, 72384, Note_on_c, 1, 82, 0
2, 72384, Note_on_c, 1, 83, 45
2, 72432, Note_on_c, 1, 83, 0
2, 72432, Note_on_c, 1, 81, 45
2, 72480, Note_on_c, 1, 81, 0
2, 72480, Note_on_c, 1, 79, 45
2, 72528, Note_on_c, 1, 79, 0
2, 72528, Note_on_c, 1, 78, 45
2, 72574, Note_on_c, 1, 78, 0
2, 72576, Note_on_c, 1, 76, 45
2, 72864, Note_on_c, 1, 76, 0
2, 72864, Note_on_c, 1, 75, 45
2, 73120, Note_on_c, 1, 75, 0
2, 73152, Note_on_c, 1, 74, 45
2, 73536, Note_on_c, 1, 74, 0
2, 73536, Note_on_c, 1, 79, 45
2, 73630, Note_on_c, 1, 79, 0
2, 73632, Note_on_c, 1, 79, 47
2, 73726, Note_on_c, 1, 79, 0
2, 73728, Note_on_c, 1, 79, 49
2, 74016, Note_on_c, 1, 79, 0
2, 74016, Note_on_c, 1, 77, 55
2, 74272, Note_on_c, 1, 77, 0
2, 74304, Note_on_c, 1, 75, 61
2, 74592, Note_on_c, 1, 75, 0
2, 74592, Note_on_c, 1, 74, 95
2, 74976, Note_on_c, 1, 74, 0
2, 74976, Note_on_c, 1, 76, 65
2, 75072, Note_on_c, 1, 76, 0
2, 75072, Note_on_c, 1, 73, 55
2, 75166, Note_on_c, 1, 73, 0
2, 75168, Note_on_c, 1, 74, 45
2, 75262, Note_on_c, 1, 74, 0
2, 75264, Note_on_c, 1, 66, 45
2, 75358, Note_on_c, 1, 66, 0
2, 75360, Note_on_c, 1, 66, 45
2, 75454, Note_on_c, 1, 66, 0
2, 75456, Note_on_c, 1, 66, 45
2, 75616, Note_on_c, 1, 66, 0
2, 76032, Note_on_c, 1, 57, 45
2, 76032, Note_on_c, 1, 67, 45
2, 76126, Note_on_c, 1, 67, 0
2, 76126, Note_on_c, 1, 57, 0
2, 76128, Note_on_c, 1, 57, 45
2, 76128, Note_on_c, 1, 67, 45
2, 76222, Note_on_c, 1, 67, 0
2, 76222, Note_on_c, 1, 57, 0
2, 76224, Note_on_c, 1, 57, 45
2, 76224, Note_on_c, 1, 67, 45
2, 76318, Note_on_c, 1, 67, 0
2, 76318, Note_on_c, 1, 57, 0
2, 76320, Note_on_c, 1, 57, 45
2, 76320, Note_on_c, 1, 67, 45
2, 76480, Note_on_c, 1, 67, 0
2, 76480, Note_on_c, 1, 57, 0
2, 76896, Note_on_c, 1, 81, 45
2, 77152, Note_on_c, 1, 81, 0
2, 77184, Note_on_c, 1, 80, 45
2, 77232, Note_on_c, 1, 80, 0
2, 77232, Note_on_c, 1, 81, 45
2, 77278, Note_on_c, 1, 81, 0
2, 77280, Note_on_c, 1, 83, 45
2, 77328, Note_on_c, 1, 83, 0
2, 77328, Note_on_c, 1, 81, 45
2, 77374, Note_on_c, 1, 81, 0
2, 77376, Note_on_c, 1, 77, 45
2, 77424, Note_on_c, 1, 77, 0
2, 77424, Note_on_c, 1, 78, 45
2, 77470, Note_on_c, 1, 78, 0
2, 77472, Note_on_c, 1, 79, 45
2, 77520, Note_on_c, 1, 79, 0
2, 77520, Note_on_c, 1, 78, 45
2, 77566, Note_on_c, 1, 78, 0
2, 77568, Note_on_c, 1, 73, 45
2, 77616, Note_on_c, 1, 73, 0
2, 77616, Note_on_c, 1, 74, 45
2, 77662, Note_on_c, 1, 74, 0
2, 77664, Note_on_c, 1, 76, 45
2, 77712, Note_on_c, 1, 76, 0
2, 77712, Note_on_c, 1, 74, 45
2, 77758, Note_on_c, 1, 74, 0
2, 77760, Note_on_c, 1, 70, 45
2, 77808, Note_on_c, 1, 70, 0
2, 77808, Note_on_c, 1, 71, 45
2, 77854, Note_on_c, 1, 71, 0
2, 77856, Note_on_c, 1, 73, 45
2, 77904, Note_on_c, 1, 73, 0
2, 77904, Note_on_c, 1, 71, 45
2, 77950, Note_on_c, 1, 71, 0
2, 77952, Note_on_c, 1, 66, 45
2, 78000, Note_on_c, 1, 66, 0
2, 78000, Note_on_c, 1, 67, 45
2, 78046, Note_on_c, 1, 67, 0
2, 78048, Note_on_c, 1, 69, 45
2, 78096, Note_on_c, 1, 69, 0
2, 78096, Note_on_c, 1, 67, 44
2, 78142, Note_on_c, 1, 67, 0
2, 78144, Note_on_c, 1, 63, 43
2, 78192, Note_on_c, 1, 63, 0
2, 78192, Note_on_c, 1, 64, 42
2, 78238, Note_on_c, 1, 64, 0
2, 78240, Note_on_c, 1, 66, 41
2, 78288, Note_on_c, 1, 66, 0
2, 78288, Note_on_c, 1, 64, 40
2, 78334, Note_on_c, 1, 64, 0
2, 78336, Note_on_c, 1, 63, 39
2, 78384, Note_on_c, 1, 63, 0
2, 78384, Note_on_c, 1, 64, 38
2, 78430, Note_on_c, 1, 64, 0
2, 78432, Note_on_c, 1, 66, 37
2, 78480, Note_on_c, 1, 66, 0
2, 78480, Note_on_c, 1, 64, 36
2, 78526, Note_on_c, 1, 64, 0
2, 78528, Note_on_c, 1, 63, 34
2, 78576, Note_on_c, 1, 63, 0
2, 78576, Note_on_c, 1, 64, 32
2, 78622, Note_on_c, 1, 64, 0
2, 78624, Note_on_c, 1, 57, 30
2, 78624, Note_on_c, 1, 67, 30
2, 78816, Note_on_c, 1, 67, 0
2, 78816, Note_on_c, 1, 66, 30
2, 78912, Note_on_c, 1, 66, 0
2, 78912, Note_on_c, 1, 64, 45
2, 79296, Note_on_c, 1, 64, 0
2, 79296, Note_on_c, 1, 66, 30
2, 79392, Note_on_c, 1, 66, 0
2, 79392, Note_on_c, 1, 67, 30
2, 79456, Note_on_c, 1, 57, 0
2, 79486, Note_on_c, 1, 67, 0
2, 79488, Note_on_c, 1, 69, 30
2, 79680, Note_on_c, 1, 69, 0
2, 79680, Note_on_c, 1, 71, 33
2, 79728, Note_on_c, 1, 71, 0
2, 79728, Note_on_c, 1, 73, 33
2, 79774, Note_on_c, 1, 73, 0
2, 79776, Note_on_c, 1, 74, 33
2, 80160, Note_on_c, 1, 74, 0
2, 80160, Note_on_c, 1, 66, 40
2, 80256, Note_on_c, 1, 66, 0
2, 80256, Note_on_c, 1, 66, 42
2, 80288, Note_on_c, 1, 66, 0
2, 80352, Note_on_c, 1, 66, 44
2, 80544, Note_on_c, 1, 66, 0
2, 80544, Note_on_c, 1, 67, 48
2, 80556, Note_on_c, 1, 67, 0
2, 80556, Note_on_c, 1, 66, 48
2, 80568, Note_on_c, 1, 66, 0
2, 80568, Note_on_c, 1, 64, 48
2, 80580, Note_on_c, 1, 64, 0
2, 80580, Note_on_c, 1, 66, 48
2, 80592, Note_on_c, 1, 66, 0
2, 80592, Note_on_c, 1, 69, 48
2, 80616, Note_on_c, 1, 69, 0
2, 80616, Note_on_c, 1, 67, 48
2, 80638, Note_on_c, 1, 67, 0
2, 80640, Note_on_c, 1, 66, 48
2, 81070, Note_on_c, 1, 66, 0
2, 81072, Note_on_c, 1, 64, 58
2, 81120, Note_on_c, 1, 64, 0
2, 81120, Note_on_c, 1, 70, 60
2, 81192, Note_on_c, 1, 70, 0
2, 81192, Note_on_c, 1, 69, 38
2, 81214, Note_on_c, 1, 69, 0
2, 81216, Note_on_c, 1, 62, 45
2, 81376, Note_on_c, 1, 62, 0
2, 82080, Note_on_c, 1, 69, 45
2, 82656, Note_on_c, 1, 69, 0
2, 82656, Note_on_c, 1, 69, 45
2, 82894, Note_on_c, 1, 69, 0
2, 82896, Note_on_c, 1, 71, 57
2, 82904, Note_on_c, 1, 71, 0
2, 82904, Note_on_c, 1, 73, 57
2, 82912, Note_on_c, 1, 73, 0
2, 82912, Note_on_c, 1, 74, 57
2, 82920, Note_on_c, 1, 74, 0
2, 82920, Note_on_c, 1, 76, 57
2, 82928, Note_on_c, 1, 76, 0
2, 82928, Note_on_c, 1, 77, 57
2, 82936, Note_on_c, 1, 77, 0
2, 82936, Note_on_c, 1, 79, 57
2, 82942, Note_on_c, 1, 79, 0
2, 82944, Note_on_c, 1, 81, 57
2, 83758, Note_on_c, 1, 81, 0
2, 83760, Note_on_c, 1, 83, 105
2, 83768, Note_on_c, 1, 83, 0
2, 83768, Note_on_c, 1, 85, 105
2, 83776, Note_on_c, 1, 85, 0
2, 83776, Note_on_c, 1, 86, 105
2, 83784, Note_on_c, 1, 86, 0
2, 83784, Note_on_c, 1, 88, 105
2, 83792, Note_on_c, 1, 88, 0
2, 83792, Note_on_c, 1, 89, 106
2, 83800, Note_on_c, 1, 89, 0
2, 83800, Note_on_c, 1, 91, 107
2, 83806, Note_on_c, 1, 91, 0
2, 83808, Note_on_c, 1, 93, 108
2, 83968, Note_on_c, 1, 93, 0
2, 84096, Note_on_c, 1, 62, 45
2, 84256, Note_on_c, 1, 62, 0
2, 84672, Note_on_c, 1, 79, 92
2, 84696, Note_on_c, 1, 79, 0
2, 84696, Note_on_c, 1, 78, 92
2, 84720, Note_on_c, 1, 78, 0
2, 84720, Note_on_c, 1, 79, 92
2, 84744, Note_on_c, 1, 79, 0
2, 84744, Note_on_c, 1, 78, 92
2, 84768, Note_on_c, 1, 78, 0
2, 84768, Note_on_c, 1, 79, 92
2, 84792, Note_on_c, 1, 79, 0
2, 84792, Note_on_c, 1, 78, 92
2, 84816, Note_on_c, 1, 78, 0
2, 84816, Note_on_c, 1, 79, 92
2, 84840, Note_on_c, 1, 79, 0
2, 84840, Note_on_c, 1, 81, 92
2, 84864, Note_on_c, 1, 81, 0
2, 84864, Note_on_c, 1, 82, 92
2, 84896, Note_on_c, 1, 82, 0
2, 84960, Note_on_c, 1, 79, 92
2, 84984, Note_on_c, 1, 79, 0
2, 84984, Note_on_c, 1, 78, 92
2, 85008, Note_on_c, 1, 78, 0
2, 85008, Note_on_c, 1, 79, 92
2, 85032, Note_on_c, 1, 79, 0
2, 85032, Note_on_c, 1, 78, 92
2, 85056, Note_on_c, 1, 78, 0
2, 85056, Note_on_c, 1, 79, 92
2, 85080, Note_on_c, 1, 79, 0
2, 85080, Note_on_c, 1, 78, 92
2, 85104, Note_on_c, 1, 78, 0
2, 85104, Note_on_c, 1, 79, 92
2, 85128, Note_on_c, 1, 79, 0
2, 85128, Note_on_c, 1, 81, 92
2, 85152, Note_on_c, 1, 81, 0
2, 85152, Note_on_c, 1, 82, 92
2, 85184, Note_on_c, 1, 82, 0
2, 85248, Note_on_c, 1, 79, 92
2, 85272, Note_on_c, 1, 79, 0
2, 85272, Note_on_c, 1, 78, 92
2, 85296, Note_on_c, 1, 78, 0
2, 85296, Note_on_c, 1, 79, 92
2, 85320, Note_on_c, 1, 79, 0
2, 85320, Note_on_c, 1, 81, 92
2, 85344, Note_on_c, 1, 81, 0
2, 85344, Note_on_c, 1, 82, 92
2, 85368, Note_on_c, 1, 82, 0
2, 85368, Note_on_c, 1, 81, 92
2, 85392, Note_on_c, 1, 81, 0
2, 85392, Note_on_c, 1, 82, 92
2, 85416, Note_on_c, 1, 82, 0
2, 85416, Note_on_c, 1, 81, 92
2, 85440, Note_on_c, 1, 81, 0
2, 85440, Note_on_c, 1, 79, 92
2, 85464, Note_on_c, 1, 79, 0
2, 85464, Note_on_c, 1, 77, 92
2, 85488, Note_on_c, 1, 77, 0
2, 85488, Note_on_c, 1, 76, 92
2, 85512, Note_on_c, 1, 76, 0
2, 85512, Note_on_c, 1, 74, 92
2, 85534, Note_on_c, 1, 74, 0
2, 85536, Note_on_c, 1, 73, 45
2, 85696, Note_on_c, 1, 73, 0
2, 86400, Note_on_c, 1, 81, 92
2, 86424, Note_on_c, 1, 81, 0
2, 86424, Note_on_c, 1, 80, 92
2, 86448, Note_on_c, 1, 80, 0
2, 86448, Note_on_c, 1, 81, 92
2, 86472, Note_on_c, 1, 81, 0
2, 86472, Note_on_c, 1, 80, 92
2, 86496, Note_on_c, 1, 80, 0
2, 86496, Note_on_c, 1, 81, 92
2, 86520, Note_on_c, 1, 81, 0
2, 86520, Note_on_c, 1, 79, 92
2, 86544, Note_on_c, 1, 79, 0
2, 86544, Note_on_c, 1, 77, 92
2, 86568, Note_on_c, 1, 77, 0
2, 86568, Note_on_c, 1, 76, 92
2, 86592, Note_on_c, 1, 76, 0
2, 86592, Note_on_c, 1, 74, 92
2, 86624, Note_on_c, 1, 74, 0
2, 86688, Note_on_c, 1, 81, 92
2, 86712, Note_on_c, 1, 81, 0
2, 86712, Note_on_c, 1, 80, 92
2, 86736, Note_on_c, 1, 80, 0
2, 86736, Note_on_c, 1, 81, 92
2, 86760, Note_on_c, 1, 81, 0
2, 86760, Note_on_c, 1, 80, 92
2, 86784, Note_on_c, 1, 80, 0
2, 86784, Note_on_c, 1, 81, 92
2, 86808, Note_on_c, 1, 81, 0
2, 86808, Note_on_c, 1, 79, 92
2, 86832, Note_on_c, 1, 79, 0
2, 86832, Note_on_c, 1, 77, 92
2, 86856, Note_on_c, 1, 77, 0
2, 86856, Note_on_c, 1, 76, 92
2, 86880, Note_on_c, 1, 76, 0
2, 86880, Note_on_c, 1, 74, 92
2, 86912, Note_on_c, 1, 74, 0
2, 86976, Note_on_c, 1, 81, 92
2, 87000, Note_on_c, 1, 81, 0
2, 87000, Note_on_c, 1, 80, 92
2, 87024, Note_on_c, 1, 80, 0
2, 87024, Note_on_c, 1, 81, 92
2, 87048, Note_on_c, 1, 81, 0
2, 87048, Note_on_c, 1, 80, 92
2, 87072, Note_on_c, 1, 80, 0
2, 87072, Note_on_c, 1, 81, 92
2, 87096, Note_on_c, 1, 81, 0
2, 87096, Note_on_c, 1, 79, 92
2, 87120, Note_on_c, 1, 79, 0
2, 87120, Note_on_c, 1, 77, 92
2, 87144, Note_on_c, 1, 77, 0
2, 87144, Note_on_c, 1, 76, 92
2, 87168, Note_on_c, 1, 76, 0
2, 87168, Note_on_c, 1, 74, 92
2, 87192, Note_on_c, 1, 74, 0
2, 87192, Note_on_c, 1, 76, 92
2, 87216, Note_on_c, 1, 76, 0
2, 87216, Note_on_c, 1, 77, 92
2, 87240, Note_on_c, 1, 77, 0
2, 87240, Note_on_c, 1, 74, 92
2, 87262, Note_on_c, 1, 74, 0
2, 87264, Note_on_c, 1, 75, 92
2, 87288, Note_on_c, 1, 75, 0
2, 87288, Note_on_c, 1, 74, 92
2, 87312, Note_on_c, 1, 74, 0
2, 87312, Note_on_c, 1, 75, 92
2, 87336, Note_on_c, 1, 75, 0
2, 87336, Note_on_c, 1, 77, 92
2, 87360, Note_on_c, 1, 77, 0
2, 87360, Note_on_c, 1, 79, 92
2, 87384, Note_on_c, 1, 79, 0
2, 87384, Note_on_c, 1, 78, 92
2, 87408, Note_on_c, 1, 78, 0
2, 87408, Note_on_c, 1, 79, 92
2, 87432, Note_on_c, 1, 79, 0
2, 87432, Note_on_c, 1, 81, 92
2, 87456, Note_on_c, 1, 81, 0
2, 87456, Note_on_c, 1, 82, 92
2, 87488, Note_on_c, 1, 82, 0
2, 88128, Note_on_c, 1, 78, 92
2, 88152, Note_on_c, 1, 78, 0
2, 88152, Note_on_c, 1, 76, 92
2, 88176, Note_on_c, 1, 76, 0
2, 88176, Note_on_c, 1, 78, 92
2, 88200, Note_on_c, 1, 78, 0
2, 88200, Note_on_c, 1, 79, 92
2, 88224, Note_on_c, 1, 79, 0
2, 88224, Note_on_c, 1, 81, 92
2, 88248, Note_on_c, 1, 81, 0
2, 88248, Note_on_c, 1, 79, 92
2, 88272, Note_on_c, 1, 79, 0
2, 88272, Note_on_c, 1, 81, 92
2, 88296, Note_on_c, 1, 81, 0
2, 88296, Note_on_c, 1, 82, 92
2, 88320, Note_on_c, 1, 82, 0
2, 88320, Note_on_c, 1, 84, 92
2, 88352, Note_on_c, 1, 84, 0
2, 88992, Note_on_c, 1, 79, 92
2, 89016, Note_on_c, 1, 79, 0
2, 89016, Note_on_c, 1, 78, 92
2, 89040, Note_on_c, 1, 78, 0
2, 89040, Note_on_c, 1, 79, 92
2, 89064, Note_on_c, 1, 79, 0
2, 89064, Note_on_c, 1, 81, 92
2, 89088, Note_on_c, 1, 81, 0
2, 89088, Note_on_c, 1, 82, 92
2, 89112, Note_on_c, 1, 82, 0
2, 89112, Note_on_c, 1, 81, 92
2, 89136, Note_on_c, 1, 81, 0
2, 89136, Note_on_c, 1, 82, 92
2, 89160, Note_on_c, 1, 82, 0
2, 89160, Note_on_c, 1, 84, 92
2, 89184, Note_on_c, 1, 84, 0
2, 89184, Note_on_c, 1, 86, 92
2, 89216, Note_on_c, 1, 86, 0
2, 89856, Note_on_c, 1, 89, 108
2, 90384, Note_on_c, 1, 89, 0
2, 90432, Note_on_c, 1, 61, 45
2, 90688, Note_on_c, 1, 61, 0
2, 90720, Note_on_c, 1, 62, 45
2, 90880, Note_on_c, 1, 62, 0
2, 91296, Note_on_c, 1, 62, 45
2, 91344, Note_on_c, 1, 62, 0
2, 91344, Note_on_c, 1, 65, 45
2, 91392, Note_on_c, 1, 65, 0
2, 91392, Note_on_c, 1, 69, 45
2, 91440, Note_on_c, 1, 69, 0
2, 91440, Note_on_c, 1, 74, 45
2, 91488, Note_on_c, 1, 74, 0
2, 91488, Note_on_c, 1, 76, 45
2, 91536, Note_on_c, 1, 76, 0
2, 91536, Note_on_c, 1, 77, 45
2, 91582, Note_on_c, 1, 77, 0
2, 91584, Note_on_c, 1, 77, 75
2, 91776, Note_on_c, 1, 77, 0
2, 91776, Note_on_c, 1, 76, 45
2, 91870, Note_on_c, 1, 76, 0
2, 91872, Note_on_c, 1, 74, 45
2, 92032, Note_on_c, 1, 74, 0
2, 92160, Note_on_c, 1, 62, 45
2, 92192, Note_on_c, 1, 62, 0
2, 92192, Note_on_c, 1, 65, 45
2, 92224, Note_on_c, 1, 65, 0
2, 92224, Note_on_c, 1, 69, 45
2, 92256, Note_on_c, 1, 69, 0
2, 92256, Note_on_c, 1, 73, 45
2, 92288, Note_on_c, 1, 73, 0
2, 92288, Note_on_c, 1, 74, 45
2, 92320, Note_on_c, 1, 74, 0
2, 92320, Note_on_c, 1, 76, 45
2, 92352, Note_on_c, 1, 76, 0
2, 92352, Note_on_c, 1, 77, 45
2, 92376, Note_on_c, 1, 77, 0
2, 92376, Note_on_c, 1, 80, 45
2, 92400, Note_on_c, 1, 80, 0
2, 92400, Note_on_c, 1, 81, 45
2, 92416, Note_on_c, 1, 81, 0
2, 92416, Note_on_c, 1, 77, 45
2, 92432, Note_on_c, 1, 77, 0
2, 92432, Note_on_c, 1, 74, 45
2, 92446, Note_on_c, 1, 74, 0
2, 92448, Note_on_c, 1, 77, 75
2, 92640, Note_on_c, 1, 77, 0
2, 92640, Note_on_c, 1, 76, 45
2, 92736, Note_on_c, 1, 76, 0
2, 92736, Note_on_c, 1, 74, 45
2, 92896, Note_on_c, 1, 74, 0
2, 93024, Note_on_c, 1, 62, 45
2, 93056, Note_on_c, 1, 62, 0
2, 93056, Note_on_c, 1, 65, 45
2, 93088, Note_on_c, 1, 65, 0
2, 93088, Note_on_c, 1, 69, 45
2, 93120, Note_on_c, 1, 69, 0
2, 93120, Note_on_c, 1, 73, 45
2, 93152, Note_on_c, 1, 73, 0
2, 93152, Note_on_c, 1, 74, 45
2, 93184, Note_on_c, 1, 74, 0
2, 93184, Note_on_c, 1, 76, 45
2, 93216, Note_on_c, 1, 76, 0
2, 93216, Note_on_c, 1, 77, 45
2, 93248, Note_on_c, 1, 77, 0
2, 93248, Note_on_c, 1, 80, 45
2, 93280, Note_on_c, 1, 80, 0
2, 93280, Note_on_c, 1, 81, 45
2, 93310, Note_on_c, 1, 81, 0
2, 93312, Note_on_c, 1, 82, 45
2, 93360, Note_on_c, 1, 82, 0
2, 93360, Note_on_c, 1, 79, 50
2, 93408, Note_on_c, 1, 79, 0
2, 93408, Note_on_c, 1, 76, 55
2, 93456, Note_on_c, 1, 76, 0
2, 93456, Note_on_c, 1, 73, 60
2, 93504, Note_on_c, 1, 73, 0
2, 93504, Note_on_c, 1, 79, 65
2, 93552, Note_on_c, 1, 79, 0
2, 93552, Note_on_c, 1, 76, 70
2, 93598, Note_on_c, 1, 76, 0
2, 93600, Note_on_c, 1, 73, 75
2, 93648, Note_on_c, 1, 73, 0
2, 93648, Note_on_c, 1, 70, 72
2, 93696, Note_on_c, 1, 70, 0
2, 93696, Note_on_c, 1, 76, 69
2, 93816, Note_on_c, 1, 76, 0
2, 93816, Note_on_c, 1, 73, 60
2, 93840, Note_on_c, 1, 73, 0
2, 93840, Note_on_c, 1, 70, 58
2, 93864, Note_on_c, 1, 70, 0
2, 93864, Note_on_c, 1, 67, 56
2, 93888, Note_on_c, 1, 67, 0
2, 93888, Note_on_c, 1, 73, 54
2, 93912, Note_on_c, 1, 73, 0
2, 93912, Note_on_c, 1, 70, 52
2, 93936, Note_on_c, 1, 70, 0
2, 93936, Note_on_c, 1, 67, 50
2, 93960, Note_on_c, 1, 67, 0
2, 93960, Note_on_c, 1, 64, 48
2, 93984, Note_on_c, 1, 64, 0
2, 93984, Note_on_c, 1, 70, 46
2, 94104, Note_on_c, 1, 70, 0
2, 94104, Note_on_c, 1, 67, 36
2, 94128, Note_on_c, 1, 67, 0
2, 94128, Note_on_c, 1, 64, 34
2, 94152, Note_on_c, 1, 64, 0
2, 94152, Note_on_c, 1, 61, 32
2, 94174, Note_on_c, 1, 61, 0
2, 94176, Note_on_c, 1, 62, 30
2, 94336, Note_on_c, 1, 62, 0
2, 94464, Note_on_c, 1, 62, 30
2, 94624, Note_on_c, 1, 62, 0
2, 95040, Control_c, 1, 7, 0
2, 95040, Note_on_c, 1, 70, 60
2, 95760, Note_on_c, 1, 70, 0
2, 95760, End_track
3, 0, Start_track
3, 0, Title_t, "Violino II."
3, 0, Program_c, 2, 48
3, 0, Control_c, 2, 7, 127
3, 0, Control_c, 2, 10, 64
3, 0, Note_on_c, 2, 57, 30
3, 68, Note_on_c, 2, 57, 0
3, 96, Note_on_c, 2, 57, 30
3, 164, Note_on_c, 2, 57, 0
3, 192, Note_on_c, 2, 57, 30
3, 224, Note_on_c, 2, 57, 0
3, 288, Note_on_c, 2, 62, 30
3, 356, Note_on_c, 2, 62, 0
3, 384, Note_on_c, 2, 62, 30
3, 452, Note_on_c, 2, 62, 0
3, 480, Note_on_c, 2, 62, 30
3, 512, Note_on_c, 2, 62, 0
3, 576, Note_on_c, 2, 61, 30
3, 644, Note_on_c, 2, 61, 0
3, 672, Note_on_c, 2, 61, 30
3, 740, Note_on_c, 2, 61, 0
3, 768, Note_on_c, 2, 61, 30
3, 800, Note_on_c, 2, 61, 0
3, 864, Note_on_c, 2, 62, 30
3, 958, Note_on_c, 2, 62, 0
3, 960, Note_on_c, 2, 57, 33
3, 1054, Note_on_c, 2, 57, 0
3, 1056, Note_on_c, 2, 57, 36
3, 1150, Note_on_c, 2, 57, 0
3, 1152, Note_on_c, 2, 62, 39
3, 1246, Note_on_c, 2, 62, 0
3, 1248, Note_on_c, 2, 62, 42
3, 1342, Note_on_c, 2, 62, 0
3, 1344, Note_on_c, 2, 62, 45
3, 1438, Note_on_c, 2, 62, 0
3, 1440, Note_on_c, 2, 61, 48
3, 1534, Note_on_c, 2, 61, 0
3, 1536, Note_on_c, 2, 61, 52
3, 1630, Note_on_c, 2, 61, 0
3, 1632, Note_on_c, 2, 61, 56
3, 1726, Note_on_c, 2, 61, 0
3, 1728, Note_on_c, 2, 62, 60
3, 1822, Note_on_c, 2, 62, 0
3, 1824, Note_on_c, 2, 57, 57
3, 1918, Note_on_c, 2, 57, 0
3, 1920, Note_on_c, 2, 57, 54
3, 2014, Note_on_c, 2, 57, 0
3, 2016, Note_on_c, 2, 62, 51
3, 2110, Note_on_c, 2, 62, 0
3, 2112, Note_on_c, 2, 62, 48
3, 2206, Note_on_c, 2, 62, 0
3, 2208, Note_on_c, 2, 62, 45
3, 2302, Note_on_c, 2, 62, 0
3, 2304, Note_on_c, 2, 64, 42
3, 2398, Note_on_c, 2, 64, 0
3, 2400, Note_on_c, 2, 64, 38
3, 2494, Note_on_c, 2, 64, 0
3, 2496, Note_on_c, 2, 64, 34
3, 2590, Note_on_c, 2, 64, 0
3, 2592, Note_on_c, 2, 65, 30
3, 2686, Note_on_c, 2, 65, 0
3, 2688, Note_on_c, 2, 57, 30
3, 2782, Note_on_c, 2, 57, 0
3, 2784, Note_on_c, 2, 57, 30
3, 2878, Note_on_c, 2, 57, 0
3, 2880, Note_on_c, 2, 57, 30
3, 2974, Note_on_c, 2, 57, 0
3, 2976, Note_on_c, 2, 57, 30
3, 3070, Note_on_c, 2, 57, 0
3, 3072, Note_on_c, 2, 57, 30
3, 3166, Note_on_c, 2, 57, 0
3, 3168, Note_on_c, 2, 58, 30
3, 3262, Note_on_c, 2, 58, 0
3, 3264, Note_on_c, 2, 58, 30
3, 3358, Note_on_c, 2, 58, 0
3, 3360, Note_on_c, 2, 58, 30
3, 3454, Note_on_c, 2, 58, 0
3, 3456, Note_on_c, 2, 58, 30
3, 3550, Note_on_c, 2, 58, 0
3, 3552, Note_on_c, 2, 58, 30
3, 3646, Note_on_c, 2, 58, 0
3, 3648, Note_on_c, 2, 58, 30
3, 3742, Note_on_c, 2, 58, 0
3, 3744, Note_on_c, 2, 58, 30
3, 3838, Note_on_c, 2, 58, 0
3, 3840, Note_on_c, 2, 70, 30
3, 3934, Note_on_c, 2, 70, 0
3, 3936, Note_on_c, 2, 70, 30
3, 4030, Note_on_c, 2, 70, 0
3, 4032, Note_on_c, 2, 70, 30
3, 4128, Note_on_c, 2, 70, 0
3, 4128, Note_on_c, 2, 67, 30
3, 4224, Note_on_c, 2, 67, 0
3, 4224, Note_on_c, 2, 64, 30
3, 4318, Note_on_c, 2, 64, 0
3, 4320, Note_on_c, 2, 61, 30
3, 4414, Note_on_c, 2, 61, 0
3, 4416, Note_on_c, 2, 61, 30
3, 4510, Note_on_c, 2, 61, 0
3, 4512, Note_on_c, 2, 61, 30
3, 4606, Note_on_c, 2, 61, 0
3, 4608, Note_on_c, 2, 61, 30
3, 4702, Note_on_c, 2, 61, 0
3, 4704, Note_on_c, 2, 61, 30
3, 4798, Note_on_c, 2, 61, 0
3, 4800, Note_on_c, 2, 61, 30
3, 4894, Note_on_c, 2, 61, 0
3, 4896, Note_on_c, 2, 61, 30
3, 4990, Note_on_c, 2, 61, 0
3, 4992, Note_on_c, 2, 61, 30
3, 5086, Note_on_c, 2, 61, 0
3, 5088, Note_on_c, 2, 61, 30
3, 5182, Note_on_c, 2, 61, 0
3, 5184, Note_on_c, 2, 61, 30
3, 5280, Note_on_c, 2, 61, 0
3, 5280, Note_on_c, 2, 62, 30
3, 5374, Note_on_c, 2, 62, 0
3, 5376, Note_on_c, 2, 62, 30
3, 5470, Note_on_c, 2, 62, 0
3, 5472, Note_on_c, 2, 62, 30
3, 5566, Note_on_c, 2, 62, 0
3, 5568, Note_on_c, 2, 62, 30
3, 5662, Note_on_c, 2, 62, 0
3, 5664, Note_on_c, 2, 62, 30
3, 5758, Note_on_c, 2, 62, 0
3, 5760, Note_on_c, 2, 62, 30
3, 5856, Note_on_c, 2, 62, 0
3, 5856, Note_on_c, 2, 61, 30
3, 5952, Note_on_c, 2, 61, 0
3, 5952, Note_on_c, 2, 62, 30
3, 6046, Note_on_c, 2, 62, 0
3, 6048, Note_on_c, 2, 62, 30
3, 6142, Note_on_c, 2, 62, 0
3, 6144, Note_on_c, 2, 62, 33
3, 6238, Note_on_c, 2, 62, 0
3, 6240, Note_on_c, 2, 62, 36
3, 6334, Note_on_c, 2, 62, 0
3, 6336, Note_on_c, 2, 62, 39
3, 6430, Note_on_c, 2, 62, 0
3, 6432, Note_on_c, 2, 62, 42
3, 6526, Note_on_c, 2, 62, 0
3, 6528, Note_on_c, 2, 62, 45
3, 6622, Note_on_c, 2, 62, 0
3, 6624, Note_on_c, 2, 62, 48
3, 6718, Note_on_c, 2, 62, 0
3, 6720, Note_on_c, 2, 62, 52
3, 6814, Note_on_c, 2, 62, 0
3, 6816, Note_on_c, 2, 62, 56
3, 6910, Note_on_c, 2, 62, 0
3, 6912, Note_on_c, 2, 61, 45
3, 7072, Note_on_c, 2, 61, 0
3, 7296, Note_on_c, 2, 69, 45
3, 7392, Note_on_c, 2, 69, 0
3, 7392, Note_on_c, 2, 67, 45
3, 7488, Note_on_c, 2, 67, 0
3, 7488, Note_on_c, 2, 65, 45
3, 7584, Note_on_c, 2, 65, 0
3, 7584, Note_on_c, 2, 64, 45
3, 7680, Note_on_c, 2, 64, 0
3, 7680, Note_on_c, 2, 62, 45
3, 7774, Note_on_c, 2, 62, 0
3, 7776, Note_on_c, 2, 61, 45
3, 7936, Note_on_c, 2, 61, 0
3, 8064, Note_on_c, 2, 69, 45
3, 8256, Note_on_c, 2, 69, 0
3, 8256, Note_on_c, 2, 67, 65
3, 8352, Note_on_c, 2, 67, 0
3, 8352, Note_on_c, 2, 65, 75
3, 8448, Note_on_c, 2, 65, 0
3, 8448, Note_on_c, 2, 64, 65
3, 8544, Note_on_c, 2, 64, 0
3, 8544, Note_on_c, 2, 62, 55
3, 8638, Note_on_c, 2, 62, 0
3, 8640, Note_on_c, 2, 61, 45
3, 8800, Note_on_c, 2, 61, 0
3, 9216, Note_on_c, 2, 65, 30
3, 9504, Note_on_c, 2, 65, 0
3, 9504, Note_on_c, 2, 64, 30
3, 9664, Note_on_c, 2, 64, 0
3, 10752, Note_on_c, 2, 61, 45
3, 10848, Note_on_c, 2, 61, 0
3, 10848, Note_on_c, 2, 62, 51
3, 10944, Note_on_c, 2, 62, 0
3, 10944, Note_on_c, 2, 64, 57
3, 11040, Note_on_c, 2, 64, 0
3, 11040, Note_on_c, 2, 65, 63
3, 11136, Note_on_c, 2, 65, 0
3, 11136, Note_on_c, 2, 67, 69
3, 11230, Note_on_c, 2, 67, 0
3, 11232, Note_on_c, 2, 65, 30
3, 11300, Note_on_c, 2, 65, 0
3, 11328, Note_on_c, 2, 65, 30
3, 11396, Note_on_c, 2, 65, 0
3, 11424, Note_on_c, 2, 65, 30
3, 11456, Note_on_c, 2, 65, 0
3, 11520, Note_on_c, 2, 62, 30
3, 11614, Note_on_c, 2, 62, 0
3, 11616, Note_on_c, 2, 62, 30
3, 11710, Note_on_c, 2, 62, 0
3, 11712, Note_on_c, 2, 62, 30
3, 11806, Note_on_c, 2, 62, 0
3, 11808, Note_on_c, 2, 67, 30
3, 11902, Note_on_c, 2, 67, 0
3, 11904, Note_on_c, 2, 67, 30
3, 11998, Note_on_c, 2, 67, 0
3, 12000, Note_on_c, 2, 67, 30
3, 12094, Note_on_c, 2, 67, 0
3, 12096, Note_on_c, 2, 65, 30
3, 12190, Note_on_c, 2, 65, 0
3, 12192, Note_on_c, 2, 65, 30
3, 12286, Note_on_c, 2, 65, 0
3, 12288, Note_on_c, 2, 65, 30
3, 12382, Note_on_c, 2, 65, 0
3, 12384, Note_on_c, 2, 62, 30
3, 12478, Note_on_c, 2, 62, 0
3, 12480, Note_on_c, 2, 62, 30
3, 12574, Note_on_c, 2, 62, 0
3, 12576, Note_on_c, 2, 62, 30
3, 12670, Note_on_c, 2, 62, 0
3, 12672, Note_on_c, 2, 67, 30
3, 12766, Note_on_c, 2, 67, 0
3, 12768, Note_on_c, 2, 67, 30
3, 12862, Note_on_c, 2, 67, 0
3, 12864, Note_on_c, 2, 67, 30
3, 12958, Note_on_c, 2, 67, 0
3, 12960, Note_on_c, 2, 69, 45
3, 13248, Note_on_c, 2, 69, 0
3, 13248, Note_on_c, 2, 70, 45
3, 13536, Note_on_c, 2, 70, 0
3, 13536, Note_on_c, 2, 71, 45
3, 13792, Note_on_c, 2, 71, 0
3, 13824, Note_on_c, 2, 72, 45
3, 13918, Note_on_c, 2, 72, 0
3, 13920, Note_on_c, 2, 67, 45
3, 14014, Note_on_c, 2, 67, 0
3, 14016, Note_on_c, 2, 67, 45
3, 14110, Note_on_c, 2, 67, 0
3, 14112, Note_on_c, 2, 67, 45
3, 14206, Note_on_c, 2, 67, 0
3, 14208, Note_on_c, 2, 67, 45
3, 14302, Note_on_c, 2, 67, 0
3, 14304, Note_on_c, 2, 67, 45
3, 14398, Note_on_c, 2, 67, 0
3, 14400, Note_on_c, 2, 67, 45
3, 14494, Note_on_c, 2, 67, 0
3, 14496, Note_on_c, 2, 76, 45
3, 14590, Note_on_c, 2, 76, 0
3, 14592, Note_on_c, 2, 76, 45
3, 14686, Note_on_c, 2, 76, 0
3, 14688, Note_on_c, 2, 75, 45
3, 15360, Note_on_c, 2, 75, 0
3, 15360, Note_on_c, 2, 78, 45
3, 15456, Note_on_c, 2, 78, 0
3, 15456, Note_on_c, 2, 77, 45
3, 15550, Note_on_c, 2, 77, 0
3, 15552, Note_on_c, 2, 75, 45
3, 15840, Note_on_c, 2, 75, 0
3, 15840, Note_on_c, 2, 74, 54
3, 16222, Note_on_c, 2, 74, 0
3, 16224, Note_on_c, 2, 56, 66
3, 16224, Note_on_c, 2, 65, 66
3, 16318, Note_on_c, 2, 65, 0
3, 16318, Note_on_c, 2, 56, 0
3, 16320, Note_on_c, 2, 56, 69
3, 16320, Note_on_c, 2, 65, 69
3, 16414, Note_on_c, 2, 65, 0
3, 16414, Note_on_c, 2, 56, 0
3, 16416, Note_on_c, 2, 55, 72
3, 16416, Note_on_c, 2, 64, 72
3, 16510, Note_on_c, 2, 64, 0
3, 16510, Note_on_c, 2, 55, 0
3, 16512, Note_on_c, 2, 71, 30
3, 16608, Note_on_c, 2, 71, 0
3, 16608, Note_on_c, 2, 72, 30
3, 16704, Note_on_c, 2, 72, 0
3, 16704, Note_on_c, 2, 66, 30
3, 16800, Note_on_c, 2, 66, 0
3, 16800, Note_on_c, 2, 67, 30
3, 16896, Note_on_c, 2, 67, 0
3, 16896, Note_on_c, 2, 63, 30
3, 16992, Note_on_c, 2, 63, 0
3, 16992, Note_on_c, 2, 64, 30
3, 17088, Note_on_c, 2, 64, 0
3, 17088, Note_on_c, 2, 59, 30
3, 17184, Note_on_c, 2, 59, 0
3, 17184, Note_on_c, 2, 60, 30
3, 17278, Note_on_c, 2, 60, 0
3, 17280, Note_on_c, 2, 61, 30
3, 17950, Note_on_c, 2, 61, 0
3, 17952, Note_on_c, 2, 61, 30
3, 18020, Note_on_c, 2, 61, 0
3, 18048, Note_on_c, 2, 61, 30
3, 18080, Note_on_c, 2, 61, 0
3, 18144, Note_on_c, 2, 60, 30
3, 18304, Note_on_c, 2, 60, 0
3, 19632, Note_on_c, 2, 60, 30
3, 19680, Note_on_c, 2, 60, 0
3, 19680, Note_on_c, 2, 59, 30
3, 19728, Note_on_c, 2, 59, 0
3, 19728, Note_on_c, 2, 60, 30
3, 19776, Note_on_c, 2, 60, 0
3, 19776, Note_on_c, 2, 64, 30
3, 19824, Note_on_c, 2, 64, 0
3, 19824, Note_on_c, 2, 67, 30
3, 19872, Note_on_c, 2, 67, 0
3, 19872, Note_on_c, 2, 69, 30
3, 20032, Note_on_c, 2, 69, 0
3, 20496, Note_on_c, 2, 60, 30
3, 20544, Note_on_c, 2, 60, 0
3, 20544, Note_on_c, 2, 59, 30
3, 20592, Note_on_c, 2, 59, 0
3, 20592, Note_on_c, 2, 60, 30
3, 20640, Note_on_c, 2, 60, 0
3, 20640, Note_on_c, 2, 65, 30
3, 20688, Note_on_c, 2, 65, 0
3, 20688, Note_on_c, 2, 69, 30
3, 20736, Note_on_c, 2, 69, 0
3, 20736, Note_on_c, 2, 70, 30
3, 20896, Note_on_c, 2, 70, 0
3, 21360, Note_on_c, 2, 64, 30
3, 21408, Note_on_c, 2, 64, 0
3, 21408, Note_on_c, 2, 72, 36
3, 21456, Note_on_c, 2, 72, 0
3, 21456, Note_on_c, 2, 71, 42
3, 21504, Note_on_c, 2, 71, 0
3, 21504, Note_on_c, 2, 72, 48
3, 21552, Note_on_c, 2, 72, 0
3, 21552, Note_on_c, 2, 71, 54
3, 21598, Note_on_c, 2, 71, 0
3, 21600, Note_on_c, 2, 72, 45
3, 21888, Note_on_c, 2, 72, 0
3, 21888, Note_on_c, 2, 70, 45
3, 22176, Note_on_c, 2, 70, 0
3, 22176, Note_on_c, 2, 69, 45
3, 22272, Note_on_c, 2, 69, 0
3, 22272, Note_on_c, 2, 70, 45
3, 22284, Note_on_c, 2, 70, 0
3, 22284, Note_on_c, 2, 69, 45
3, 22320, Note_on_c, 2, 69, 0
3, 22320, Note_on_c, 2, 67, 45
3, 22368, Note_on_c, 2, 67, 0
3, 22368, Note_on_c, 2, 69, 45
3, 22416, Note_on_c, 2, 69, 0
3, 22416, Note_on_c, 2, 70, 45
3, 22462, Note_on_c, 2, 70, 0
3, 22464, Note_on_c, 2, 67, 45
3, 22624, Note_on_c, 2, 67, 0
3, 23328, Note_on_c, 2, 72, 45
3, 23424, Note_on_c, 2, 72, 0
3, 23424, Note_on_c, 2, 77, 45
3, 23472, Note_on_c, 2, 77, 0
3, 23472, Note_on_c, 2, 76, 45
3, 23520, Note_on_c, 2, 76, 0
3, 23520, Note_on_c, 2, 74, 45
3, 23568, Note_on_c, 2, 74, 0
3, 23568, Note_on_c, 2, 72, 45
3, 23614, Note_on_c, 2, 72, 0
3, 23616, Note_on_c, 2, 72, 45
3, 23664, Note_on_c, 2, 72, 0
3, 23664, Note_on_c, 2, 70, 45
3, 23712, Note_on_c, 2, 70, 0
3, 23712, Note_on_c, 2, 79, 45
3, 23760, Note_on_c, 2, 79, 0
3, 23760, Note_on_c, 2, 76, 45
3, 23808, Note_on_c, 2, 76, 0
3, 23808, Note_on_c, 2, 72, 45
3, 23856, Note_on_c, 2, 72, 0
3, 23856, Note_on_c, 2, 70, 45
3, 23902, Note_on_c, 2, 70, 0
3, 23904, Note_on_c, 2, 70, 45
3, 23952, Note_on_c, 2, 70, 0
3, 23952, Note_on_c, 2, 69, 45
3, 24000, Note_on_c, 2, 69, 0
3, 24000, Note_on_c, 2, 77, 45
3, 24048, Note_on_c, 2, 77, 0
3, 24048, Note_on_c, 2, 72, 45
3, 24096, Note_on_c, 2, 72, 0
3, 24096, Note_on_c, 2, 70, 45
3, 24144, Note_on_c, 2, 70, 0
3, 24144, Note_on_c, 2, 69, 45
3, 24190, Note_on_c, 2, 69, 0
3, 24192, Note_on_c, 2, 67, 45
3, 24288, Note_on_c, 2, 67, 0
3, 24288, Note_on_c, 2, 60, 45
3, 24382, Note_on_c, 2, 60, 0
3, 24384, Note_on_c, 2, 60, 45
3, 24416, Note_on_c, 2, 60, 0
3, 24480, Note_on_c, 2, 69, 45
3, 24576, Note_on_c, 2, 69, 0
3, 24576, Note_on_c, 2, 60, 45
3, 24670, Note_on_c, 2, 60, 0
3, 24672, Note_on_c, 2, 60, 45
3, 24704, Note_on_c, 2, 60, 0
3, 24768, Note_on_c, 2, 70, 45
3, 24864, Note_on_c, 2, 70, 0
3, 24864, Note_on_c, 2, 60, 45
3, 24958, Note_on_c, 2, 60, 0
3, 24960, Note_on_c, 2, 60, 45
3, 24992, Note_on_c, 2, 60, 0
3, 25056, Note_on_c, 2, 60, 45
3, 25056, Note_on_c, 2, 69, 45
3, 25216, Note_on_c, 2, 69, 0
3, 25216, Note_on_c, 2, 60, 0
3, 26208, Note_on_c, 2, 62, 45
3, 26400, Note_on_c, 2, 62, 0
3, 26400, Note_on_c, 2, 64, 45
3, 26448, Note_on_c, 2, 64, 0
3, 26448, Note_on_c, 2, 66, 45
3, 26494, Note_on_c, 2, 66, 0
3, 26496, Note_on_c, 2, 67, 45
3, 26832, Note_on_c, 2, 67, 0
3, 26832, Note_on_c, 2, 65, 46
3, 26880, Note_on_c, 2, 65, 0
3, 26880, Note_on_c, 2, 64, 47
3, 26928, Note_on_c, 2, 64, 0
3, 26928, Note_on_c, 2, 65, 48
3, 26976, Note_on_c, 2, 65, 0
3, 26976, Note_on_c, 2, 67, 49
3, 27024, Note_on_c, 2, 67, 0
3, 27024, Note_on_c, 2, 65, 50
3, 27072, Note_on_c, 2, 65, 0
3, 27072, Note_on_c, 2, 64, 51
3, 27120, Note_on_c, 2, 64, 0
3, 27120, Note_on_c, 2, 65, 52
3, 27168, Note_on_c, 2, 65, 0
3, 27168, Note_on_c, 2, 67, 53
3, 27216, Note_on_c, 2, 67, 0
3, 27216, Note_on_c, 2, 65, 54
3, 27264, Note_on_c, 2, 65, 0
3, 27264, Note_on_c, 2, 64, 55
3, 27312, Note_on_c, 2, 64, 0
3, 27312, Note_on_c, 2, 67, 56
3, 27360, Note_on_c, 2, 67, 0
3, 27360, Note_on_c, 2, 65, 57
3, 27616, Note_on_c, 2, 65, 0
3, 27648, Note_on_c, 2, 61, 66
3, 27696, Note_on_c, 2, 61, 0
3, 27696, Note_on_c, 2, 60, 67
3, 27744, Note_on_c, 2, 60, 0
3, 27744, Note_on_c, 2, 61, 68
3, 27792, Note_on_c, 2, 61, 0
3, 27792, Note_on_c, 2, 60, 69
3, 27840, Note_on_c, 2, 60, 0
3, 27840, Note_on_c, 2, 61, 71
3, 27888, Note_on_c, 2, 61, 0
3, 27888, Note_on_c, 2, 60, 73
3, 27934, Note_on_c, 2, 60, 0
3, 27936, Note_on_c, 2, 59, 105
3, 28224, Note_on_c, 2, 59, 0
3, 28224, Note_on_c, 2, 58, 60
3, 28512, Note_on_c, 2, 58, 0
3, 28512, Note_on_c, 2, 57, 45
3, 28672, Note_on_c, 2, 57, 0
3, 28800, Note_on_c, 2, 81, 45
3, 28848, Note_on_c, 2, 81, 0
3, 28848, Note_on_c, 2, 80, 45
3, 28896, Note_on_c, 2, 80, 0
3, 28896, Note_on_c, 2, 81, 45
3, 28944, Note_on_c, 2, 81, 0
3, 28944, Note_on_c, 2, 79, 45
3, 28992, Note_on_c, 2, 79, 0
3, 28992, Note_on_c, 2, 77, 45
3, 29040, Note_on_c, 2, 77, 0
3, 29040, Note_on_c, 2, 76, 45
3, 29086, Note_on_c, 2, 76, 0
3, 29088, Note_on_c, 2, 74, 45
3, 29136, Note_on_c, 2, 74, 0
3, 29136, Note_on_c, 2, 73, 45
3, 29184, Note_on_c, 2, 73, 0
3, 29184, Note_on_c, 2, 74, 45
3, 29232, Note_on_c, 2, 74, 0
3, 29232, Note_on_c, 2, 72, 45
3, 29280, Note_on_c, 2, 72, 0
3, 29280, Note_on_c, 2, 70, 45
3, 29328, Note_on_c, 2, 70, 0
3, 29328, Note_on_c, 2, 69, 45
3, 29374, Note_on_c, 2, 69, 0
3, 29376, Note_on_c, 2, 67, 45
3, 29472, Note_on_c, 2, 67, 0
3, 29472, Note_on_c, 2, 63, 45
3, 29566, Note_on_c, 2, 63, 0
3, 29568, Note_on_c, 2, 63, 45
3, 29662, Note_on_c, 2, 63, 0
3, 29664, Note_on_c, 2, 63, 45
3, 30192, Note_on_c, 2, 63, 0
3, 30240, Note_on_c, 2, 61, 45
3, 30334, Note_on_c, 2, 61, 0
3, 30336, Note_on_c, 2, 73, 47
3, 30430, Note_on_c, 2, 73, 0
3, 30432, Note_on_c, 2, 73, 49
3, 30526, Note_on_c, 2, 73, 0
3, 30528, Note_on_c, 2, 72, 51
3, 31056, Note_on_c, 2, 72, 0
3, 31104, Note_on_c, 2, 73, 67
3, 31152, Note_on_c, 2, 73, 0
3, 31152, Note_on_c, 2, 72, 68
3, 31200, Note_on_c, 2, 72, 0
3, 31200, Note_on_c, 2, 73, 69
3, 31248, Note_on_c, 2, 73, 0
3, 31248, Note_on_c, 2, 72, 70
3, 31296, Note_on_c, 2, 72, 0
3, 31296, Note_on_c, 2, 73, 71
3, 31344, Note_on_c, 2, 73, 0
3, 31344, Note_on_c, 2, 72, 73
3, 31390, Note_on_c, 2, 72, 0
3, 31392, Note_on_c, 2, 71, 105
3, 31680, Note_on_c, 2, 71, 0
3, 31680, Note_on_c, 2, 70, 60
3, 31936, Note_on_c, 2, 70, 0
3, 31968, Note_on_c, 2, 69, 45
3, 32062, Note_on_c, 2, 69, 0
3, 32064, Note_on_c, 2, 57, 45
3, 32158, Note_on_c, 2, 57, 0
3, 32160, Note_on_c, 2, 57, 45
3, 32254, Note_on_c, 2, 57, 0
3, 32256, Note_on_c, 2, 57, 45
3, 32416, Note_on_c, 2, 57, 0
3, 32832, Note_on_c, 2, 79, 45
3, 33088, Note_on_c, 2, 79, 0
3, 33120, Note_on_c, 2, 78, 45
3, 33168, Note_on_c, 2, 78, 0
3, 33168, Note_on_c, 2, 79, 45
3, 33214, Note_on_c, 2, 79, 0
3, 33216, Note_on_c, 2, 81, 45
3, 33264, Note_on_c, 2, 81, 0
3, 33264, Note_on_c, 2, 79, 45
3, 33310, Note_on_c, 2, 79, 0
3, 33312, Note_on_c, 2, 75, 45
3, 33360, Note_on_c, 2, 75, 0
3, 33360, Note_on_c, 2, 76, 45
3, 33406, Note_on_c, 2, 76, 0
3, 33408, Note_on_c, 2, 77, 45
3, 33456, Note_on_c, 2, 77, 0
3, 33456, Note_on_c, 2, 76, 45
3, 33502, Note_on_c, 2, 76, 0
3, 33504, Note_on_c, 2, 71, 45
3, 33552, Note_on_c, 2, 71, 0
3, 33552, Note_on_c, 2, 72, 45
3, 33598, Note_on_c, 2, 72, 0
3, 33600, Note_on_c, 2, 74, 45
3, 33648, Note_on_c, 2, 74, 0
3, 33648, Note_on_c, 2, 72, 45
3, 33694, Note_on_c, 2, 72, 0
3, 33696, Note_on_c, 2, 72, 45
3, 33790, Note_on_c, 2, 72, 0
3, 33792, Note_on_c, 2, 72, 45
3, 33886, Note_on_c, 2, 72, 0
3, 33888, Note_on_c, 2, 72, 45
3, 33982, Note_on_c, 2, 72, 0
3, 33984, Note_on_c, 2, 72, 45
3, 34144, Note_on_c, 2, 72, 0
3, 35904, Note_on_c, 2, 65, 30
3, 36000, Note_on_c, 2, 65, 0
3, 36000, Note_on_c, 2, 64, 30
3, 36192, Note_on_c, 2, 64, 0
3, 36192, Note_on_c, 2, 55, 30
3, 36286, Note_on_c, 2, 55, 0
3, 36288, Note_on_c, 2, 60, 30
3, 36480, Note_on_c, 2, 60, 0
3, 36480, Note_on_c, 2, 62, 33
3, 36528, Note_on_c, 2, 62, 0
3, 36528, Note_on_c, 2, 64, 33
3, 36574, Note_on_c, 2, 64, 0
3, 36576, Note_on_c, 2, 65, 33
3, 36958, Note_on_c, 2, 65, 0
3, 36960, Note_on_c, 2, 65, 41
3, 37056, Note_on_c, 2, 65, 0
3, 37056, Note_on_c, 2, 67, 43
3, 37150, Note_on_c, 2, 67, 0
3, 37152, Note_on_c, 2, 65, 45
3, 37344, Note_on_c, 2, 65, 0
3, 37344, Note_on_c, 2, 67, 45
3, 37440, Note_on_c, 2, 67, 0
3, 37440, Note_on_c, 2, 65, 45
3, 37728, Note_on_c, 2, 65, 0
3, 37728, Note_on_c, 2, 64, 75
3, 37984, Note_on_c, 2, 64, 0
3, 38016, Note_on_c, 2, 60, 30
3, 38176, Note_on_c, 2, 60, 0
3, 38304, Note_on_c, 2, 60, 30
3, 38464, Note_on_c, 2, 60, 0
3, 38880, Note_on_c, 2, 57, 30
3, 38880, Note_on_c, 2, 65, 30
3, 39040, Note_on_c, 2, 65, 0
3, 39040, Note_on_c, 2, 57, 0
3, 39168, Note_on_c, 2, 69, 30
3, 39168, Note_on_c, 2, 77, 30
3, 39328, Note_on_c, 2, 77, 0
3, 39328, Note_on_c, 2, 69, 0
3, 39744, Note_on_c, 2, 57, 30
3, 39744, Note_on_c, 2, 66, 30
3, 39904, Note_on_c, 2, 66, 0
3, 39904, Note_on_c, 2, 57, 0
3, 40032, Note_on_c, 2, 69, 30
3, 40032, Note_on_c, 2, 78, 30
3, 40192, Note_on_c, 2, 78, 0
3, 40192, Note_on_c, 2, 69, 0
3, 40896, Note_on_c, 2, 67, 92
3, 41184, Note_on_c, 2, 67, 0
3, 41184, Note_on_c, 2, 69, 92
3, 41440, Note_on_c, 2, 69, 0
3, 41472, Note_on_c, 2, 70, 127
3, 41952, Note_on_c, 2, 70, 0
3, 41952, Note_on_c, 2, 69, 92
3, 42000, Note_on_c, 2, 69, 0
3, 42000, Note_on_c, 2, 67, 92
3, 42046, Note_on_c, 2, 67, 0
3, 42048, Note_on_c, 2, 67, 92
3, 42096, Note_on_c, 2, 67, 0
3, 42096, Note_on_c, 2, 69, 92
3, 42120, Note_on_c, 2, 69, 0
3, 42120, Note_on_c, 2, 67, 92
3, 42144, Note_on_c, 2, 67, 0
3, 42144, Note_on_c, 2, 66, 92
3, 42192, Note_on_c, 2, 66, 0
3, 42192, Note_on_c, 2, 67, 92
3, 42240, Note_on_c, 2, 67, 0
3, 42240, Note_on_c, 2, 70, 92
3, 42288, Note_on_c, 2, 70, 0
3, 42288, Note_on_c, 2, 69, 92
3, 42334, Note_on_c, 2, 69, 0
3, 42336, Note_on_c, 2, 67, 127
3, 42624, Note_on_c, 2, 67, 0
3, 42624, Note_on_c, 2, 66, 92
3, 43006, Note_on_c, 2, 66, 0
3, 43008, Note_on_c, 2, 66, 92
3, 43056, Note_on_c, 2, 66, 0
3, 43056, Note_on_c, 2, 67, 92
3, 43104, Note_on_c, 2, 67, 0
3, 43104, Note_on_c, 2, 69, 92
3, 43152, Note_on_c, 2, 69, 0
3, 43152, Note_on_c, 2, 70, 92
3, 43198, Note_on_c, 2, 70, 0
3, 43200, Note_on_c, 2, 72, 127
3, 43648, Note_on_c, 2, 72, 0
3, 43680, Note_on_c, 2, 74, 92
3, 43728, Note_on_c, 2, 74, 0
3, 43728, Note_on_c, 2, 72, 92
3, 43776, Note_on_c, 2, 72, 0
3, 43776, Note_on_c, 2, 71, 92
3, 43824, Note_on_c, 2, 71, 0
3, 43824, Note_on_c, 2, 72, 92
3, 43872, Note_on_c, 2, 72, 0
3, 43872, Note_on_c, 2, 74, 92
3, 43920, Note_on_c, 2, 74, 0
3, 43920, Note_on_c, 2, 72, 92
3, 43968, Note_on_c, 2, 72, 0
3, 43968, Note_on_c, 2, 75, 92
3, 44016, Note_on_c, 2, 75, 0
3, 44016, Note_on_c, 2, 74, 92
3, 44062, Note_on_c, 2, 74, 0
3, 44064, Note_on_c, 2, 72, 127
3, 44352, Note_on_c, 2, 72, 0
3, 44352, Note_on_c, 2, 71, 92
3, 44734, Note_on_c, 2, 71, 0
3, 44736, Note_on_c, 2, 71, 92
3, 44784, Note_on_c, 2, 71, 0
3, 44784, Note_on_c, 2, 72, 92
3, 44832, Note_on_c, 2, 72, 0
3, 44832, Note_on_c, 2, 74, 92
3, 44880, Note_on_c, 2, 74, 0
3, 44880, Note_on_c, 2, 75, 92
3, 44926, Note_on_c, 2, 75, 0
3, 44928, Note_on_c, 2, 77, 92
3, 45310, Note_on_c, 2, 77, 0
3, 45312, Note_on_c, 2, 77, 98
3, 45360, Note_on_c, 2, 77, 0
3, 45360, Note_on_c, 2, 74, 99
3, 45408, Note_on_c, 2, 74, 0
3, 45408, Note_on_c, 2, 71, 100
3, 45456, Note_on_c, 2, 71, 0
3, 45456, Note_on_c, 2, 67, 101
3, 45504, Note_on_c, 2, 67, 0
3, 45504, Note_on_c, 2, 66, 102
3, 45552, Note_on_c, 2, 66, 0
3, 45552, Note_on_c, 2, 67, 103
3, 45600, Note_on_c, 2, 67, 0
3, 45600, Note_on_c, 2, 68, 104
3, 45648, Note_on_c, 2, 68, 0
3, 45648, Note_on_c, 2, 67, 105
3, 45696, Note_on_c, 2, 67, 0
3, 45696, Note_on_c, 2, 65, 106
3, 45744, Note_on_c, 2, 65, 0
3, 45744, Note_on_c, 2, 62, 107
3, 45790, Note_on_c, 2, 62, 0
3, 45792, Note_on_c, 2, 60, 30
3, 45792, Note_on_c, 2, 63, 30
3, 45886, Note_on_c, 2, 63, 0
3, 45886, Note_on_c, 2, 60, 0
3, 45888, Note_on_c, 2, 60, 30
3, 45888, Note_on_c, 2, 63, 30
3, 45982, Note_on_c, 2, 63, 0
3, 45982, Note_on_c, 2, 60, 0
3, 45984, Note_on_c, 2, 60, 30
3, 45984, Note_on_c, 2, 63, 30
3, 46078, Note_on_c, 2, 63, 0
3, 46078, Note_on_c, 2, 60, 0
3, 46080, Note_on_c, 2, 60, 30
3, 46080, Note_on_c, 2, 63, 30
3, 46174, Note_on_c, 2, 63, 0
3, 46174, Note_on_c, 2, 60, 0
3, 46176, Note_on_c, 2, 60, 30
3, 46176, Note_on_c, 2, 63, 30
3, 46270, Note_on_c, 2, 63, 0
3, 46270, Note_on_c, 2, 60, 0
3, 46272, Note_on_c, 2, 60, 30
3, 46272, Note_on_c, 2, 63, 30
3, 46366, Note_on_c, 2, 63, 0
3, 46366, Note_on_c, 2, 60, 0
3, 46368, Note_on_c, 2, 60, 30
3, 46368, Note_on_c, 2, 63, 30
3, 46462, Note_on_c, 2, 63, 0
3, 46462, Note_on_c, 2, 60, 0
3, 46464, Note_on_c, 2, 60, 30
3, 46464, Note_on_c, 2, 63, 30
3, 46558, Note_on_c, 2, 63, 0
3, 46558, Note_on_c, 2, 60, 0
3, 46560, Note_on_c, 2, 60, 30
3, 46560, Note_on_c, 2, 63, 30
3, 46654, Note_on_c, 2, 63, 0
3, 46654, Note_on_c, 2, 60, 0
3, 46656, Note_on_c, 2, 60, 30
3, 46656, Note_on_c, 2, 63, 30
3, 46750, Note_on_c, 2, 63, 0
3, 46750, Note_on_c, 2, 60, 0
3, 46752, Note_on_c, 2, 60, 30
3, 46752, Note_on_c, 2, 63, 30
3, 46846, Note_on_c, 2, 63, 0
3, 46846, Note_on_c, 2, 60, 0
3, 46848, Note_on_c, 2, 60, 30
3, 46848, Note_on_c, 2, 63, 30
3, 46942, Note_on_c, 2, 63, 0
3, 46942, Note_on_c, 2, 60, 0
3, 46944, Note_on_c, 2, 60, 30
3, 46944, Note_on_c, 2, 63, 30
3, 47038, Note_on_c, 2, 63, 0
3, 47038, Note_on_c, 2, 60, 0
3, 47040, Note_on_c, 2, 60, 30
3, 47040, Note_on_c, 2, 63, 30
3, 47134, Note_on_c, 2, 63, 0
3, 47134, Note_on_c, 2, 60, 0
3, 47136, Note_on_c, 2, 60, 30
3, 47136, Note_on_c, 2, 63, 30
3, 47230, Note_on_c, 2, 63, 0
3, 47230, Note_on_c, 2, 60, 0
3, 47232, Note_on_c, 2, 60, 30
3, 47232, Note_on_c, 2, 63, 30
3, 47326, Note_on_c, 2, 63, 0
3, 47326, Note_on_c, 2, 60, 0
3, 47328, Note_on_c, 2, 60, 30
3, 47328, Note_on_c, 2, 63, 30
3, 47422, Note_on_c, 2, 63, 0
3, 47422, Note_on_c, 2, 60, 0
3, 47424, Note_on_c, 2, 60, 30
3, 47424, Note_on_c, 2, 63, 30
3, 47518, Note_on_c, 2, 63, 0
3, 47518, Note_on_c, 2, 60, 0
3, 47520, Note_on_c, 2, 62, 30
3, 47614, Note_on_c, 2, 62, 0
3, 47616, Note_on_c, 2, 60, 30
3, 47616, Note_on_c, 2, 62, 30
3, 47710, Note_on_c, 2, 62, 0
3, 47710, Note_on_c, 2, 60, 0
3, 47712, Note_on_c, 2, 60, 30
3, 47712, Note_on_c, 2, 62, 30
3, 47806, Note_on_c, 2, 62, 0
3, 47806, Note_on_c, 2, 60, 0
3, 47808, Note_on_c, 2, 60, 30
3, 47808, Note_on_c, 2, 62, 30
3, 47902, Note_on_c, 2, 62, 0
3, 47902, Note_on_c, 2, 60, 0
3, 47904, Note_on_c, 2, 60, 30
3, 47904, Note_on_c, 2, 62, 30
3, 47998, Note_on_c, 2, 62, 0
3, 47998, Note_on_c, 2, 60, 0
3, 48000, Note_on_c, 2, 60, 30
3, 48000, Note_on_c, 2, 62, 30
3, 48094, Note_on_c, 2, 62, 0
3, 48094, Note_on_c, 2, 60, 0
3, 48096, Note_on_c, 2, 60, 30
3, 48096, Note_on_c, 2, 62, 30
3, 48190, Note_on_c, 2, 62, 0
3, 48190, Note_on_c, 2, 60, 0
3, 48192, Note_on_c, 2, 60, 30
3, 48192, Note_on_c, 2, 62, 30
3, 48286, Note_on_c, 2, 62, 0
3, 48286, Note_on_c, 2, 60, 0
3, 48288, Note_on_c, 2, 60, 30
3, 48288, Note_on_c, 2, 62, 30
3, 48382, Note_on_c, 2, 62, 0
3, 48382, Note_on_c, 2, 60, 0
3, 48384, Note_on_c, 2, 58, 30
3, 48384, Note_on_c, 2, 62, 30
3, 48478, Note_on_c, 2, 62, 0
3, 48478, Note_on_c, 2, 58, 0
3, 48480, Note_on_c, 2, 58, 30
3, 48480, Note_on_c, 2, 62, 30
3, 48574, Note_on_c, 2, 62, 0
3, 48574, Note_on_c, 2, 58, 0
3, 48576, Note_on_c, 2, 58, 30
3, 48576, Note_on_c, 2, 62, 30
3, 48670, Note_on_c, 2, 62, 0
3, 48670, Note_on_c, 2, 58, 0
3, 48672, Note_on_c, 2, 58, 30
3, 48672, Note_on_c, 2, 62, 30
3, 48766, Note_on_c, 2, 62, 0
3, 48766, Note_on_c, 2, 58, 0
3, 48768, Note_on_c, 2, 58, 30
3, 48768, Note_on_c, 2, 62, 30
3, 48862, Note_on_c, 2, 62, 0
3, 48862, Note_on_c, 2, 58, 0
3, 48864, Note_on_c, 2, 58, 30
3, 48864, Note_on_c, 2, 62, 30
3, 48958, Note_on_c, 2, 62, 0
3, 48958, Note_on_c, 2, 58, 0
3, 48960, Note_on_c, 2, 58, 30
3, 48960, Note_on_c, 2, 62, 30
3, 49054, Note_on_c, 2, 62, 0
3, 49054, Note_on_c, 2, 58, 0
3, 49056, Note_on_c, 2, 58, 30
3, 49056, Note_on_c, 2, 62, 30
3, 49150, Note_on_c, 2, 62, 0
3, 49150, Note_on_c, 2, 58, 0
3, 49152, Note_on_c, 2, 58, 30
3, 49152, Note_on_c, 2, 62, 30
3, 49246, Note_on_c, 2, 62, 0
3, 49246, Note_on_c, 2, 58, 0
3, 49248, Note_on_c, 2, 67, 30
3, 49342, Note_on_c, 2, 67, 0
3, 49344, Note_on_c, 2, 67, 36
3, 49438, Note_on_c, 2, 67, 0
3, 49440, Note_on_c, 2, 67, 43
3, 49534, Note_on_c, 2, 67, 0
3, 49536, Note_on_c, 2, 67, 50
3, 49536, Note_on_c, 2, 70, 50
3, 49630, Note_on_c, 2, 70, 0
3, 49630, Note_on_c, 2, 67, 0
3, 49632, Note_on_c, 2, 67, 57
3, 49632, Note_on_c, 2, 70, 57
3, 49726, Note_on_c, 2, 70, 0
3, 49726, Note_on_c, 2, 67, 0
3, 49728, Note_on_c, 2, 67, 64
3, 49728, Note_on_c, 2, 70, 64
3, 49822, Note_on_c, 2, 70, 0
3, 49822, Note_on_c, 2, 67, 0
3, 49824, Note_on_c, 2, 65, 71
3, 49824, Note_on_c, 2, 70, 71
3, 49918, Note_on_c, 2, 70, 0
3, 49918, Note_on_c, 2, 65, 0
3, 49920, Note_on_c, 2, 65, 78
3, 49920, Note_on_c, 2, 70, 78
3, 50014, Note_on_c, 2, 70, 0
3, 50014, Note_on_c, 2, 65, 0
3, 50016, Note_on_c, 2, 65, 85
3, 50016, Note_on_c, 2, 70, 85
3, 50110, Note_on_c, 2, 70, 0
3, 50110, Note_on_c, 2, 65, 0
3, 50112, Note_on_c, 2, 67, 92
3, 50112, Note_on_c, 2, 70, 92
3, 50272, Note_on_c, 2, 70, 0
3, 50272, Note_on_c, 2, 67, 0
3, 50976, Note_on_c, 2, 65, 45
3, 50976, Note_on_c, 2, 69, 45
3, 51136, Note_on_c, 2, 69, 0
3, 51136, Note_on_c, 2, 65, 0
3, 51840, Note_on_c, 2, 62, 30
3, 52000, Note_on_c, 2, 62, 0
3, 52704, Note_on_c, 2, 61, 10
3, 52864, Note_on_c, 2, 61, 0
3, 53616, Note_on_c, 2, 57, 30
3, 53664, Note_on_c, 2, 57, 0
3, 53664, Note_on_c, 2, 58, 30
3, 53712, Note_on_c, 2, 58, 0
3, 53712, Note_on_c, 2, 57, 30
3, 53760, Note_on_c, 2, 57, 0
3, 53760, Note_on_c, 2, 58, 30
3, 53808, Note_on_c, 2, 58, 0
3, 53808, Note_on_c, 2, 57, 30
3, 53854, Note_on_c, 2, 57, 0
3, 53904, Note_on_c, 2, 57, 30
3, 53952, Note_on_c, 2, 57, 0
3, 53952, Note_on_c, 2, 62, 30
3, 54000, Note_on_c, 2, 62, 0
3, 54000, Note_on_c, 2, 57, 30
3, 54048, Note_on_c, 2, 57, 0
3, 54048, Note_on_c, 2, 62, 30
3, 54096, Note_on_c, 2, 62, 0
3, 54096, Note_on_c, 2, 57, 30
3, 54142, Note_on_c, 2, 57, 0
3, 54192, Note_on_c, 2, 57, 30
3, 54240, Note_on_c, 2, 57, 0
3, 54240, Note_on_c, 2, 61, 30
3, 54288, Note_on_c, 2, 61, 0
3, 54288, Note_on_c, 2, 57, 30
3, 54336, Note_on_c, 2, 57, 0
3, 54336, Note_on_c, 2, 61, 30
3, 54384, Note_on_c, 2, 61, 0
3, 54384, Note_on_c, 2, 57, 30
3, 54430, Note_on_c, 2, 57, 0
3, 54480, Note_on_c, 2, 57, 30
3, 54528, Note_on_c, 2, 57, 0
3, 54528, Note_on_c, 2, 58, 30
3, 54576, Note_on_c, 2, 58, 0
3, 54576, Note_on_c, 2, 57, 30
3, 54624, Note_on_c, 2, 57, 0
3, 54624, Note_on_c, 2, 58, 30
3, 54672, Note_on_c, 2, 58, 0
3, 54672, Note_on_c, 2, 57, 30
3, 54718, Note_on_c, 2, 57, 0
3, 54768, Note_on_c, 2, 57, 31
3, 54816, Note_on_c, 2, 57, 0
3, 54816, Note_on_c, 2, 62, 31
3, 54864, Note_on_c, 2, 62, 0
3, 54864, Note_on_c, 2, 57, 32
3, 54912, Note_on_c, 2, 57, 0
3, 54912, Note_on_c, 2, 62, 33
3, 54960, Note_on_c, 2, 62, 0
3, 54960, Note_on_c, 2, 57, 34
3, 55006, Note_on_c, 2, 57, 0
3, 55056, Note_on_c, 2, 57, 36
3, 55104, Note_on_c, 2, 57, 0
3, 55104, Note_on_c, 2, 61, 37
3, 55152, Note_on_c, 2, 61, 0
3, 55152, Note_on_c, 2, 57, 38
3, 55200, Note_on_c, 2, 57, 0
3, 55200, Note_on_c, 2, 61, 39
3, 55248, Note_on_c, 2, 61, 0
3, 55248, Note_on_c, 2, 57, 40
3, 55294, Note_on_c, 2, 57, 0
3, 55344, Note_on_c, 2, 57, 42
3, 55392, Note_on_c, 2, 57, 0
3, 55392, Note_on_c, 2, 58, 43
3, 55440, Note_on_c, 2, 58, 0
3, 55440, Note_on_c, 2, 57, 44
3, 55488, Note_on_c, 2, 57, 0
3, 55488, Note_on_c, 2, 58, 45
3, 55536, Note_on_c, 2, 58, 0
3, 55536, Note_on_c, 2, 57, 46
3, 55582, Note_on_c, 2, 57, 0
3, 55632, Note_on_c, 2, 57, 48
3, 55680, Note_on_c, 2, 57, 0
3, 55680, Note_on_c, 2, 62, 49
3, 55728, Note_on_c, 2, 62, 0
3, 55728, Note_on_c, 2, 57, 50
3, 55776, Note_on_c, 2, 57, 0
3, 55776, Note_on_c, 2, 62, 51
3, 55824, Note_on_c, 2, 62, 0
3, 55824, Note_on_c, 2, 57, 52
3, 55870, Note_on_c, 2, 57, 0
3, 55920, Note_on_c, 2, 57, 54
3, 55968, Note_on_c, 2, 57, 0
3, 55968, Note_on_c, 2, 64, 55
3, 56016, Note_on_c, 2, 64, 0
3, 56016, Note_on_c, 2, 57, 56
3, 56064, Note_on_c, 2, 57, 0
3, 56064, Note_on_c, 2, 64, 57
3, 56112, Note_on_c, 2, 64, 0
3, 56112, Note_on_c, 2, 57, 58
3, 56158, Note_on_c, 2, 57, 0
3, 56208, Note_on_c, 2, 65, 45
3, 56256, Note_on_c, 2, 65, 0
3, 56256, Note_on_c, 2, 69, 45
3, 56304, Note_on_c, 2, 69, 0
3, 56304, Note_on_c, 2, 65, 45
3, 56352, Note_on_c, 2, 65, 0
3, 56352, Note_on_c, 2, 69, 45
3, 56400, Note_on_c, 2, 69, 0
3, 56400, Note_on_c, 2, 65, 45
3, 56446, Note_on_c, 2, 65, 0
3, 56496, Note_on_c, 2, 65, 45
3, 56544, Note_on_c, 2, 65, 0
3, 56544, Note_on_c, 2, 69, 45
3, 56592, Note_on_c, 2, 69, 0
3, 56592, Note_on_c, 2, 65, 45
3, 56640, Note_on_c, 2, 65, 0
3, 56640, Note_on_c, 2, 69, 45
3, 56688, Note_on_c, 2, 69, 0
3, 56688, Note_on_c, 2, 65, 45
3, 56734, Note_on_c, 2, 65, 0
3, 56784, Note_on_c, 2, 65, 45
3, 56832, Note_on_c, 2, 65, 0
3, 56832, Note_on_c, 2, 70, 45
3, 56880, Note_on_c, 2, 70, 0
3, 56880, Note_on_c, 2, 65, 45
3, 56928, Note_on_c, 2, 65, 0
3, 56928, Note_on_c, 2, 70, 45
3, 56976, Note_on_c, 2, 70, 0
3, 56976, Note_on_c, 2, 65, 45
3, 57022, Note_on_c, 2, 65, 0
3, 57024, Note_on_c, 2, 67, 92
3, 57048, Note_on_c, 2, 67, 0
3, 57048, Note_on_c, 2, 66, 92
3, 57072, Note_on_c, 2, 66, 0
3, 57072, Note_on_c, 2, 67, 92
3, 57096, Note_on_c, 2, 67, 0
3, 57096, Note_on_c, 2, 66, 92
3, 57120, Note_on_c, 2, 66, 0
3, 57120, Note_on_c, 2, 67, 92
3, 57144, Note_on_c, 2, 67, 0
3, 57144, Note_on_c, 2, 66, 92
3, 57168, Note_on_c, 2, 66, 0
3, 57168, Note_on_c, 2, 67, 92
3, 57192, Note_on_c, 2, 67, 0
3, 57192, Note_on_c, 2, 69, 92
3, 57216, Note_on_c, 2, 69, 0
3, 57216, Note_on_c, 2, 70, 92
3, 57248, Note_on_c, 2, 70, 0
3, 57312, Note_on_c, 2, 67, 92
3, 57336, Note_on_c, 2, 67, 0
3, 57336, Note_on_c, 2, 66, 92
3, 57360, Note_on_c, 2, 66, 0
3, 57360, Note_on_c, 2, 67, 92
3, 57384, Note_on_c, 2, 67, 0
3, 57384, Note_on_c, 2, 66, 92
3, 57408, Note_on_c, 2, 66, 0
3, 57408, Note_on_c, 2, 67, 92
3, 57432, Note_on_c, 2, 67, 0
3, 57432, Note_on_c, 2, 66, 92
3, 57456, Note_on_c, 2, 66, 0
3, 57456, Note_on_c, 2, 67, 92
3, 57480, Note_on_c, 2, 67, 0
3, 57480, Note_on_c, 2, 69, 92
3, 57504, Note_on_c, 2, 69, 0
3, 57504, Note_on_c, 2, 70, 92
3, 57536, Note_on_c, 2, 70, 0
3, 57600, Note_on_c, 2, 67, 92
3, 57624, Note_on_c, 2, 67, 0
3, 57624, Note_on_c, 2, 66, 92
3, 57648, Note_on_c, 2, 66, 0
3, 57648, Note_on_c, 2, 67, 92
3, 57672, Note_on_c, 2, 67, 0
3, 57672, Note_on_c, 2, 69, 92
3, 57696, Note_on_c, 2, 69, 0
3, 57696, Note_on_c, 2, 70, 92
3, 57720, Note_on_c, 2, 70, 0
3, 57720, Note_on_c, 2, 69, 92
3, 57744, Note_on_c, 2, 69, 0
3, 57744, Note_on_c, 2, 70, 92
3, 57768, Note_on_c, 2, 70, 0
3, 57768, Note_on_c, 2, 69, 92
3, 57792, Note_on_c, 2, 69, 0
3, 57792, Note_on_c, 2, 67, 92
3, 57816, Note_on_c, 2, 67, 0
3, 57816, Note_on_c, 2, 65, 92
3, 57840, Note_on_c, 2, 65, 0
3, 57840, Note_on_c, 2, 64, 92
3, 57864, Note_on_c, 2, 64, 0
3, 57864, Note_on_c, 2, 62, 92
3, 57886, Note_on_c, 2, 62, 0
3, 57888, Note_on_c, 2, 61, 45
3, 57920, Note_on_c, 2, 61, 0
3, 57936, Note_on_c, 2, 61, 45
3, 57984, Note_on_c, 2, 61, 0
3, 57984, Note_on_c, 2, 70, 45
3, 58032, Note_on_c, 2, 70, 0
3, 58032, Note_on_c, 2, 61, 45
3, 58080, Note_on_c, 2, 61, 0
3, 58080, Note_on_c, 2, 70, 45
3, 58128, Note_on_c, 2, 70, 0
3, 58128, Note_on_c, 2, 61, 45
3, 58174, Note_on_c, 2, 61, 0
3, 58224, Note_on_c, 2, 61, 45
3, 58272, Note_on_c, 2, 61, 0
3, 58272, Note_on_c, 2, 70, 45
3, 58320, Note_on_c, 2, 70, 0
3, 58320, Note_on_c, 2, 61, 45
3, 58368, Note_on_c, 2, 61, 0
3, 58368, Note_on_c, 2, 70, 45
3, 58416, Note_on_c, 2, 70, 0
3, 58416, Note_on_c, 2, 61, 45
3, 58462, Note_on_c, 2, 61, 0
3, 58512, Note_on_c, 2, 61, 45
3, 58560, Note_on_c, 2, 61, 0
3, 58560, Note_on_c, 2, 70, 45
3, 58608, Note_on_c, 2, 70, 0
3, 58608, Note_on_c, 2, 61, 45
3, 58656, Note_on_c, 2, 61, 0
3, 58656, Note_on_c, 2, 70, 45
3, 58704, Note_on_c, 2, 70, 0
3, 58704, Note_on_c, 2, 61, 45
3, 58750, Note_on_c, 2, 61, 0
3, 58752, Note_on_c, 2, 69, 92
3, 58776, Note_on_c, 2, 69, 0
3, 58776, Note_on_c, 2, 68, 92
3, 58800, Note_on_c, 2, 68, 0
3, 58800, Note_on_c, 2, 69, 92
3, 58824, Note_on_c, 2, 69, 0
3, 58824, Note_on_c, 2, 68, 92
3, 58848, Note_on_c, 2, 68, 0
3, 58848, Note_on_c, 2, 69, 92
3, 58872, Note_on_c, 2, 69, 0
3, 58872, Note_on_c, 2, 67, 92
3, 58896, Note_on_c, 2, 67, 0
3, 58896, Note_on_c, 2, 65, 92
3, 58920, Note_on_c, 2, 65, 0
3, 58920, Note_on_c, 2, 64, 92
3, 58944, Note_on_c, 2, 64, 0
3, 58944, Note_on_c, 2, 62, 92
3, 58976, Note_on_c, 2, 62, 0
3, 59040, Note_on_c, 2, 69, 92
3, 59064, Note_on_c, 2, 69, 0
3, 59064, Note_on_c, 2, 68, 92
3, 59088, Note_on_c, 2, 68, 0
3, 59088, Note_on_c, 2, 69, 92
3, 59112, Note_on_c, 2, 69, 0
3, 59112, Note_on_c, 2, 68, 92
3, 59136, Note_on_c, 2, 68, 0
3, 59136, Note_on_c, 2, 69, 92
3, 59160, Note_on_c, 2, 69, 0
3, 59160, Note_on_c, 2, 67, 92
3, 59184, Note_on_c, 2, 67, 0
3, 59184, Note_on_c, 2, 65, 92
3, 59208, Note_on_c, 2, 65, 0
3, 59208, Note_on_c, 2, 64, 92
3, 59232, Note_on_c, 2, 64, 0
3, 59232, Note_on_c, 2, 62, 92
3, 59264, Note_on_c, 2, 62, 0
3, 59328, Note_on_c, 2, 69, 92
3, 59352, Note_on_c, 2, 69, 0
3, 59352, Note_on_c, 2, 68, 92
3, 59376, Note_on_c, 2, 68, 0
3, 59376, Note_on_c, 2, 69, 92
3, 59400, Note_on_c, 2, 69, 0
3, 59400, Note_on_c, 2, 68, 92
3, 59424, Note_on_c, 2, 68, 0
3, 59424, Note_on_c, 2, 69, 92
3, 59448, Note_on_c, 2, 69, 0
3, 59448, Note_on_c, 2, 67, 92
3, 59472, Note_on_c, 2, 67, 0
3, 59472, Note_on_c, 2, 65, 92
3, 59496, Note_on_c, 2, 65, 0
3, 59496, Note_on_c, 2, 64, 92
3, 59520, Note_on_c, 2, 64, 0
3, 59520, Note_on_c, 2, 62, 92
3, 59552, Note_on_c, 2, 62, 0
3, 59664, Note_on_c, 2, 62, 45
3, 59712, Note_on_c, 2, 62, 0
3, 59712, Note_on_c, 2, 64, 45
3, 59760, Note_on_c, 2, 64, 0
3, 59760, Note_on_c, 2, 62, 45
3, 59808, Note_on_c, 2, 62, 0
3, 59808, Note_on_c, 2, 64, 45
3, 59856, Note_on_c, 2, 64, 0
3, 59856, Note_on_c, 2, 62, 45
3, 59902, Note_on_c, 2, 62, 0
3, 59952, Note_on_c, 2, 62, 45
3, 60000, Note_on_c, 2, 62, 0
3, 60000, Note_on_c, 2, 64, 45
3, 60048, Note_on_c, 2, 64, 0
3, 60048, Note_on_c, 2, 62, 45
3, 60096, Note_on_c, 2, 62, 0
3, 60096, Note_on_c, 2, 64, 45
3, 60144, Note_on_c, 2, 64, 0
3, 60144, Note_on_c, 2, 62, 45
3, 60190, Note_on_c, 2, 62, 0
3, 60240, Note_on_c, 2, 62, 45
3, 60288, Note_on_c, 2, 62, 0
3, 60288, Note_on_c, 2, 65, 45
3, 60336, Note_on_c, 2, 65, 0
3, 60336, Note_on_c, 2, 62, 45
3, 60384, Note_on_c, 2, 62, 0
3, 60384, Note_on_c, 2, 65, 45
3, 60432, Note_on_c, 2, 65, 0
3, 60432, Note_on_c, 2, 62, 45
3, 60478, Note_on_c, 2, 62, 0
3, 60480, Note_on_c, 2, 61, 45
3, 60640, Note_on_c, 2, 61, 0
3, 60864, Note_on_c, 2, 69, 45
3, 60960, Note_on_c, 2, 69, 0
3, 60960, Note_on_c, 2, 67, 45
3, 61056, Note_on_c, 2, 67, 0
3, 61056, Note_on_c, 2, 65, 45
3, 61152, Note_on_c, 2, 65, 0
3, 61152, Note_on_c, 2, 64, 45
3, 61248, Note_on_c, 2, 64, 0
3, 61248, Note_on_c, 2, 62, 45
3, 61342, Note_on_c, 2, 62, 0
3, 61344, Note_on_c, 2, 61, 45
3, 61504, Note_on_c, 2, 61, 0
3, 61632, Note_on_c, 2, 69, 45
3, 61824, Note_on_c, 2, 69, 0
3, 61824, Note_on_c, 2, 67, 65
3, 61920, Note_on_c, 2, 67, 0
3, 61920, Note_on_c, 2, 65, 75
3, 62016, Note_on_c, 2, 65, 0
3, 62016, Note_on_c, 2, 64, 65
3, 62112, Note_on_c, 2, 64, 0
3, 62112, Note_on_c, 2, 62, 55
3, 62206, Note_on_c, 2, 62, 0
3, 62208, Note_on_c, 2, 61, 45
3, 62368, Note_on_c, 2, 61, 0
3, 62784, Note_on_c, 2, 65, 30
3, 63072, Note_on_c, 2, 65, 0
3, 63072, Note_on_c, 2, 64, 30
3, 63232, Note_on_c, 2, 64, 0
3, 64320, Note_on_c, 2, 61, 45
3, 64416, Note_on_c, 2, 61, 0
3, 64416, Note_on_c, 2, 62, 51
3, 64512, Note_on_c, 2, 62, 0
3, 64512, Note_on_c, 2, 64, 57
3, 64608, Note_on_c, 2, 64, 0
3, 64608, Note_on_c, 2, 66, 63
3, 64704, Note_on_c, 2, 66, 0
3, 64704, Note_on_c, 2, 67, 69
3, 64798, Note_on_c, 2, 67, 0
3, 64800, Note_on_c, 2, 66, 45
3, 64896, Note_on_c, 2, 66, 0
3, 64896, Note_on_c, 2, 57, 45
3, 64990, Note_on_c, 2, 57, 0
3, 64992, Note_on_c, 2, 57, 45
3, 65024, Note_on_c, 2, 57, 0
3, 65088, Note_on_c, 2, 64, 45
3, 65184, Note_on_c, 2, 64, 0
3, 65184, Note_on_c, 2, 57, 45
3, 65278, Note_on_c, 2, 57, 0
3, 65280, Note_on_c, 2, 57, 45
3, 65312, Note_on_c, 2, 57, 0
3, 65376, Note_on_c, 2, 62, 45
3, 65472, Note_on_c, 2, 62, 0
3, 65472, Note_on_c, 2, 57, 45
3, 65566, Note_on_c, 2, 57, 0
3, 65568, Note_on_c, 2, 57, 45
3, 65600, Note_on_c, 2, 57, 0
3, 65664, Note_on_c, 2, 61, 45
3, 65760, Note_on_c, 2, 61, 0
3, 65760, Note_on_c, 2, 57, 45
3, 65854, Note_on_c, 2, 57, 0
3, 65856, Note_on_c, 2, 57, 45
3, 65888, Note_on_c, 2, 57, 0
3, 65952, Note_on_c, 2, 62, 45
3, 66048, Note_on_c, 2, 62, 0
3, 66048, Note_on_c, 2, 57, 45
3, 66142, Note_on_c, 2, 57, 0
3, 66144, Note_on_c, 2, 57, 45
3, 66176, Note_on_c, 2, 57, 0
3, 66240, Note_on_c, 2, 64, 45
3, 66336, Note_on_c, 2, 64, 0
3, 66336, Note_on_c, 2, 57, 45
3, 66430, Note_on_c, 2, 57, 0
3, 66432, Note_on_c, 2, 57, 45
3, 66464, Note_on_c, 2, 57, 0
3, 66528, Note_on_c, 2, 66, 45
3, 66624, Note_on_c, 2, 66, 0
3, 66624, Note_on_c, 2, 57, 45
3, 66718, Note_on_c, 2, 57, 0
3, 66720, Note_on_c, 2, 57, 45
3, 66752, Note_on_c, 2, 57, 0
3, 66816, Note_on_c, 2, 61, 45
3, 66912, Note_on_c, 2, 61, 0
3, 66912, Note_on_c, 2, 57, 45
3, 67006, Note_on_c, 2, 57, 0
3, 67008, Note_on_c, 2, 57, 45
3, 67040, Note_on_c, 2, 57, 0
3, 67104, Note_on_c, 2, 62, 45
3, 67200, Note_on_c, 2, 62, 0
3, 67200, Note_on_c, 2, 57, 45
3, 67294, Note_on_c, 2, 57, 0
3, 67296, Note_on_c, 2, 57, 45
3, 67328, Note_on_c, 2, 57, 0
3, 67392, Note_on_c, 2, 61, 45
3, 67488, Note_on_c, 2, 61, 0
3, 67488, Note_on_c, 2, 57, 45
3, 67582, Note_on_c, 2, 57, 0
3, 67584, Note_on_c, 2, 57, 45
3, 67616, Note_on_c, 2, 57, 0
3, 67680, Note_on_c, 2, 62, 45
3, 67776, Note_on_c, 2, 62, 0
3, 67776, Note_on_c, 2, 57, 45
3, 67870, Note_on_c, 2, 57, 0
3, 67872, Note_on_c, 2, 57, 45
3, 67904, Note_on_c, 2, 57, 0
3, 67968, Note_on_c, 2, 64, 45
3, 68064, Note_on_c, 2, 64, 0
3, 68064, Note_on_c, 2, 57, 45
3, 68158, Note_on_c, 2, 57, 0
3, 68160, Note_on_c, 2, 57, 45
3, 68192, Note_on_c, 2, 57, 0
3, 68256, Note_on_c, 2, 57, 45
3, 68416, Note_on_c, 2, 57, 0
3, 69408, Note_on_c, 2, 59, 45
3, 69600, Note_on_c, 2, 59, 0
3, 69600, Note_on_c, 2, 61, 45
3, 69648, Note_on_c, 2, 61, 0
3, 69648, Note_on_c, 2, 62, 45
3, 69696, Note_on_c, 2, 62, 0
3, 69696, Note_on_c, 2, 64, 45
3, 69840, Note_on_c, 2, 64, 0
3, 69840, Note_on_c, 2, 59, 45
3, 69888, Note_on_c, 2, 59, 0
3, 69888, Note_on_c, 2, 61, 45
3, 69936, Note_on_c, 2, 61, 0
3, 69936, Note_on_c, 2, 62, 45
3, 69982, Note_on_c, 2, 62, 0
3, 69984, Note_on_c, 2, 64, 45
3, 70032, Note_on_c, 2, 64, 0
3, 70032, Note_on_c, 2, 62, 46
3, 70080, Note_on_c, 2, 62, 0
3, 70080, Note_on_c, 2, 61, 46
3, 70128, Note_on_c, 2, 61, 0
3, 70128, Note_on_c, 2, 62, 47
3, 70176, Note_on_c, 2, 62, 0
3, 70176, Note_on_c, 2, 64, 48
3, 70224, Note_on_c, 2, 64, 0
3, 70224, Note_on_c, 2, 62, 49
3, 70272, Note_on_c, 2, 62, 0
3, 70272, Note_on_c, 2, 61, 50
3, 70320, Note_on_c, 2, 61, 0
3, 70320, Note_on_c, 2, 62, 51
3, 70368, Note_on_c, 2, 62, 0
3, 70368, Note_on_c, 2, 64, 52
3, 70416, Note_on_c, 2, 64, 0
3, 70416, Note_on_c, 2, 62, 53
3, 70464, Note_on_c, 2, 62, 0
3, 70464, Note_on_c, 2, 61, 54
3, 70512, Note_on_c, 2, 61, 0
3, 70512, Note_on_c, 2, 64, 55
3, 70558, Note_on_c, 2, 64, 0
3, 70560, Note_on_c, 2, 62, 56
3, 70816, Note_on_c, 2, 62, 0
3, 70848, Note_on_c, 2, 58, 62
3, 70896, Note_on_c, 2, 58, 0
3, 70896, Note_on_c, 2, 57, 63
3, 70944, Note_on_c, 2, 57, 0
3, 70944, Note_on_c, 2, 58, 64
3, 70992, Note_on_c, 2, 58, 0
3, 70992, Note_on_c, 2, 57, 65
3, 71040, Note_on_c, 2, 57, 0
3, 71040, Note_on_c, 2, 58, 66
3, 71088, Note_on_c, 2, 58, 0
3, 71088, Note_on_c, 2, 57, 67
3, 71134, Note_on_c, 2, 57, 0
3, 71136, Note_on_c, 2, 56, 95
3, 71424, Note_on_c, 2, 56, 0
3, 71424, Note_on_c, 2, 55, 75
3, 71616, Note_on_c, 2, 55, 0
3, 71616, Note_on_c, 2, 67, 55
3, 71710, Note_on_c, 2, 67, 0
3, 71712, Note_on_c, 2, 66, 45
3, 71872, Note_on_c, 2, 66, 0
3, 72000, Note_on_c, 2, 78, 45
3, 72048, Note_on_c, 2, 78, 0
3, 72048, Note_on_c, 2, 77, 45
3, 72096, Note_on_c, 2, 77, 0
3, 72096, Note_on_c, 2, 78, 45
3, 72144, Note_on_c, 2, 78, 0
3, 72144, Note_on_c, 2, 76, 45
3, 72192, Note_on_c, 2, 76, 0
3, 72192, Note_on_c, 2, 74, 45
3, 72240, Note_on_c, 2, 74, 0
3, 72240, Note_on_c, 2, 73, 45
3, 72288, Note_on_c, 2, 73, 0
3, 72288, Note_on_c, 2, 71, 45
3, 72336, Note_on_c, 2, 71, 0
3, 72336, Note_on_c, 2, 70, 45
3, 72384, Note_on_c, 2, 70, 0
3, 72384, Note_on_c, 2, 71, 45
3, 72432, Note_on_c, 2, 71, 0
3, 72432, Note_on_c, 2, 69, 45
3, 72480, Note_on_c, 2, 69, 0
3, 72480, Note_on_c, 2, 67, 45
3, 72528, Note_on_c, 2, 67, 0
3, 72528, Note_on_c, 2, 66, 45
3, 72574, Note_on_c, 2, 66, 0
3, 72576, Note_on_c, 2, 64, 45
3, 72832, Note_on_c, 2, 64, 0
3, 72864, Note_on_c, 2, 69, 45
3, 73294, Note_on_c, 2, 69, 0
3, 73296, Note_on_c, 2, 66, 45
3, 73344, Note_on_c, 2, 66, 0
3, 73344, Note_on_c, 2, 67, 45
3, 73392, Note_on_c, 2, 67, 0
3, 73392, Note_on_c, 2, 69, 45
3, 73438, Note_on_c, 2, 69, 0
3, 73440, Note_on_c, 2, 70, 45
3, 73728, Note_on_c, 2, 70, 0
3, 73728, Note_on_c, 2, 69, 45
3, 74110, Note_on_c, 2, 69, 0
3, 74112, Note_on_c, 2, 69, 54
3, 74144, Note_on_c, 2, 69, 0
3, 74208, Note_on_c, 2, 69, 56
3, 74240, Note_on_c, 2, 69, 0
3, 74304, Note_on_c, 2, 70, 58
3, 74352, Note_on_c, 2, 70, 0
3, 74352, Note_on_c, 2, 69, 59
3, 74400, Note_on_c, 2, 69, 0
3, 74400, Note_on_c, 2, 70, 60
3, 74448, Note_on_c, 2, 70, 0
3, 74448, Note_on_c, 2, 69, 61
3, 74496, Note_on_c, 2, 69, 0
3, 74496, Note_on_c, 2, 70, 62
3, 74544, Note_on_c, 2, 70, 0
3, 74544, Note_on_c, 2, 69, 63
3, 74590, Note_on_c, 2, 69, 0
3, 74592, Note_on_c, 2, 68, 89
3, 74880, Note_on_c, 2, 68, 0
3, 74880, Note_on_c, 2, 67, 75
3, 75136, Note_on_c, 2, 67, 0
3, 75168, Note_on_c, 2, 66, 45
3, 75262, Note_on_c, 2, 66, 0
3, 75264, Note_on_c, 2, 57, 45
3, 75358, Note_on_c, 2, 57, 0
3, 75360, Note_on_c, 2, 57, 45
3, 75454, Note_on_c, 2, 57, 0
3, 75456, Note_on_c, 2, 57, 45
3, 75616, Note_on_c, 2, 57, 0
3, 76032, Note_on_c, 2, 76, 45
3, 76288, Note_on_c, 2, 76, 0
3, 76320, Note_on_c, 2, 75, 45
3, 76368, Note_on_c, 2, 75, 0
3, 76368, Note_on_c, 2, 76, 45
3, 76414, Note_on_c, 2, 76, 0
3, 76416, Note_on_c, 2, 78, 45
3, 76464, Note_on_c, 2, 78, 0
3, 76464, Note_on_c, 2, 76, 45
3, 76510, Note_on_c, 2, 76, 0
3, 76512, Note_on_c, 2, 72, 45
3, 76560, Note_on_c, 2, 72, 0
3, 76560, Note_on_c, 2, 73, 45
3, 76606, Note_on_c, 2, 73, 0
3, 76608, Note_on_c, 2, 74, 45
3, 76656, Note_on_c, 2, 74, 0
3, 76656, Note_on_c, 2, 73, 45
3, 76702, Note_on_c, 2, 73, 0
3, 76704, Note_on_c, 2, 68, 45
3, 76752, Note_on_c, 2, 68, 0
3, 76752, Note_on_c, 2, 69, 45
3, 76798, Note_on_c, 2, 69, 0
3, 76800, Note_on_c, 2, 71, 45
3, 76848, Note_on_c, 2, 71, 0
3, 76848, Note_on_c, 2, 69, 45
3, 76894, Note_on_c, 2, 69, 0
3, 76896, Note_on_c, 2, 69, 45
3, 76990, Note_on_c, 2, 69, 0
3, 76992, Note_on_c, 2, 69, 45
3, 77086, Note_on_c, 2, 69, 0
3, 77088, Note_on_c, 2, 69, 45
3, 77182, Note_on_c, 2, 69, 0
3, 77184, Note_on_c, 2, 69, 45
3, 77344, Note_on_c, 2, 69, 0
3, 79104, Note_on_c, 2, 62, 30
3, 79200, Note_on_c, 2, 62, 0
3, 79200, Note_on_c, 2, 61, 30
3, 79360, Note_on_c, 2, 61, 0
3, 79392, Note_on_c, 2, 61, 30
3, 79486, Note_on_c, 2, 61, 0
3, 79488, Note_on_c, 2, 57, 30
3, 79680, Note_on_c, 2, 57, 0
3, 79680, Note_on_c, 2, 59, 34
3, 79728, Note_on_c, 2, 59, 0
3, 79728, Note_on_c, 2, 61, 35
3, 79774, Note_on_c, 2, 61, 0
3, 79776, Note_on_c, 2, 62, 35
3, 80158, Note_on_c, 2, 62, 0
3, 80160, Note_on_c, 2, 62, 43
3, 80256, Note_on_c, 2, 62, 0
3, 80256, Note_on_c, 2, 64, 45
3, 80350, Note_on_c, 2, 64, 0
3, 80352, Note_on_c, 2, 62, 47
3, 80544, Note_on_c, 2, 62, 0
3, 80544, Note_on_c, 2, 64, 51
3, 80640, Note_on_c, 2, 64, 0
3, 80640, Note_on_c, 2, 62, 53
3, 80928, Note_on_c, 2, 62, 0
3, 80928, Note_on_c, 2, 61, 60
3, 81184, Note_on_c, 2, 61, 0
3, 81264, Note_on_c, 2, 57, 30
3, 81264, Note_on_c, 2, 62, 30
3, 81310, Note_on_c, 2, 62, 0
3, 81310, Note_on_c, 2, 57, 0
3, 81312, Note_on_c, 2, 57, 30
3, 81312, Note_on_c, 2, 62, 30
3, 81358, Note_on_c, 2, 62, 0
3, 81358, Note_on_c, 2, 57, 0
3, 81360, Note_on_c, 2, 57, 30
3, 81360, Note_on_c, 2, 62, 30
3, 81406, Note_on_c, 2, 62, 0
3, 81406, Note_on_c, 2, 57, 0
3, 81408, Note_on_c, 2, 57, 30
3, 81408, Note_on_c, 2, 62, 30
3, 81454, Note_on_c, 2, 62, 0
3, 81454, Note_on_c, 2, 57, 0
3, 81456, Note_on_c, 2, 57, 30
3, 81456, Note_on_c, 2, 62, 30
3, 81502, Note_on_c, 2, 62, 0
3, 81502, Note_on_c, 2, 57, 0
3, 81504, Note_on_c, 2, 57, 30
3, 81504, Note_on_c, 2, 62, 30
3, 81550, Note_on_c, 2, 62, 0
3, 81550, Note_on_c, 2, 57, 0
3, 81552, Note_on_c, 2, 57, 30
3, 81552, Note_on_c, 2, 62, 30
3, 81598, Note_on_c, 2, 62, 0
3, 81598, Note_on_c, 2, 57, 0
3, 81600, Note_on_c, 2, 57, 30
3, 81600, Note_on_c, 2, 62, 30
3, 81646, Note_on_c, 2, 62, 0
3, 81646, Note_on_c, 2, 57, 0
3, 81648, Note_on_c, 2, 57, 30
3, 81648, Note_on_c, 2, 62, 30
3, 81694, Note_on_c, 2, 62, 0
3, 81694, Note_on_c, 2, 57, 0
3, 81696, Note_on_c, 2, 57, 30
3, 81696, Note_on_c, 2, 62, 30
3, 81742, Note_on_c, 2, 62, 0
3, 81742, Note_on_c, 2, 57, 0
3, 81744, Note_on_c, 2, 57, 30
3, 81744, Note_on_c, 2, 62, 30
3, 81790, Note_on_c, 2, 62, 0
3, 81790, Note_on_c, 2, 57, 0
3, 81792, Note_on_c, 2, 61, 30
3, 81838, Note_on_c, 2, 61, 0
3, 81840, Note_on_c, 2, 61, 30
3, 81886, Note_on_c, 2, 61, 0
3, 81888, Note_on_c, 2, 61, 30
3, 81934, Note_on_c, 2, 61, 0
3, 81936, Note_on_c, 2, 61, 30
3, 81982, Note_on_c, 2, 61, 0
3, 81984, Note_on_c, 2, 61, 30
3, 82030, Note_on_c, 2, 61, 0
3, 82032, Note_on_c, 2, 61, 30
3, 82078, Note_on_c, 2, 61, 0
3, 82080, Note_on_c, 2, 65, 45
3, 82126, Note_on_c, 2, 65, 0
3, 82128, Note_on_c, 2, 65, 45
3, 82174, Note_on_c, 2, 65, 0
3, 82176, Note_on_c, 2, 65, 45
3, 82222, Note_on_c, 2, 65, 0
3, 82224, Note_on_c, 2, 65, 45
3, 82270, Note_on_c, 2, 65, 0
3, 82272, Note_on_c, 2, 65, 45
3, 82318, Note_on_c, 2, 65, 0
3, 82320, Note_on_c, 2, 65, 45
3, 82366, Note_on_c, 2, 65, 0
3, 82368, Note_on_c, 2, 57, 45
3, 82368, Note_on_c, 2, 62, 45
3, 82414, Note_on_c, 2, 62, 0
3, 82414, Note_on_c, 2, 57, 0
3, 82416, Note_on_c, 2, 57, 45
3, 82416, Note_on_c, 2, 62, 45
3, 82462, Note_on_c, 2, 62, 0
3, 82462, Note_on_c, 2, 57, 0
3, 82464, Note_on_c, 2, 57, 45
3, 82464, Note_on_c, 2, 62, 45
3, 82510, Note_on_c, 2, 62, 0
3, 82510, Note_on_c, 2, 57, 0
3, 82512, Note_on_c, 2, 57, 45
3, 82512, Note_on_c, 2, 62, 45
3, 82558, Note_on_c, 2, 62, 0
3, 82558, Note_on_c, 2, 57, 0
3, 82560, Note_on_c, 2, 57, 45
3, 82560, Note_on_c, 2, 62, 45
3, 82606, Note_on_c, 2, 62, 0
3, 82606, Note_on_c, 2, 57, 0
3, 82608, Note_on_c, 2, 57, 45
3, 82608, Note_on_c, 2, 62, 45
3, 82654, Note_on_c, 2, 62, 0
3, 82654, Note_on_c, 2, 57, 0
3, 82656, Note_on_c, 2, 61, 45
3, 82702, Note_on_c, 2, 61, 0
3, 82704, Note_on_c, 2, 61, 47
3, 82750, Note_on_c, 2, 61, 0
3, 82752, Note_on_c, 2, 61, 49
3, 82798, Note_on_c, 2, 61, 0
3, 82800, Note_on_c, 2, 61, 51
3, 82846, Note_on_c, 2, 61, 0
3, 82848, Note_on_c, 2, 61, 53
3, 82894, Note_on_c, 2, 61, 0
3, 82896, Note_on_c, 2, 61, 55
3, 82942, Note_on_c, 2, 61, 0
3, 82944, Note_on_c, 2, 65, 57
3, 82990, Note_on_c, 2, 65, 0
3, 82992, Note_on_c, 2, 65, 59
3, 83038, Note_on_c, 2, 65, 0
3, 83040, Note_on_c, 2, 65, 61
3, 83086, Note_on_c, 2, 65, 0
3, 83088, Note_on_c, 2, 65, 63
3, 83134, Note_on_c, 2, 65, 0
3, 83136, Note_on_c, 2, 65, 66
3, 83182, Note_on_c, 2, 65, 0
3, 83184, Note_on_c, 2, 65, 69
3, 83230, Note_on_c, 2, 65, 0
3, 83232, Note_on_c, 2, 57, 72
3, 83278, Note_on_c, 2, 57, 0
3, 83280, Note_on_c, 2, 57, 75
3, 83280, Note_on_c, 2, 62, 75
3, 83326, Note_on_c, 2, 62, 0
3, 83326, Note_on_c, 2, 57, 0
3, 83328, Note_on_c, 2, 57, 78
3, 83328, Note_on_c, 2, 62, 78
3, 83374, Note_on_c, 2, 62, 0
3, 83374, Note_on_c, 2, 57, 0
3, 83376, Note_on_c, 2, 57, 81
3, 83376, Note_on_c, 2, 62, 81
3, 83422, Note_on_c, 2, 62, 0
3, 83422, Note_on_c, 2, 57, 0
3, 83424, Note_on_c, 2, 57, 84
3, 83424, Note_on_c, 2, 62, 84
3, 83470, Note_on_c, 2, 62, 0
3, 83470, Note_on_c, 2, 57, 0
3, 83472, Note_on_c, 2, 57, 87
3, 83472, Note_on_c, 2, 62, 87
3, 83518, Note_on_c, 2, 62, 0
3, 83518, Note_on_c, 2, 57, 0
3, 83520, Note_on_c, 2, 61, 90
3, 83566, Note_on_c, 2, 61, 0
3, 83568, Note_on_c, 2, 61, 93
3, 83614, Note_on_c, 2, 61, 0
3, 83616, Note_on_c, 2, 61, 96
3, 83662, Note_on_c, 2, 61, 0
3, 83664, Note_on_c, 2, 61, 99
3, 83710, Note_on_c, 2, 61, 0
3, 83712, Note_on_c, 2, 61, 102
3, 83758, Note_on_c, 2, 61, 0
3, 83760, Note_on_c, 2, 61, 105
3, 83806, Note_on_c, 2, 61, 0
3, 83808, Note_on_c, 2, 57, 108
3, 83854, Note_on_c, 2, 57, 0
3, 83856, Note_on_c, 2, 57, 45
3, 83856, Note_on_c, 2, 65, 45
3, 83902, Note_on_c, 2, 65, 0
3, 83902, Note_on_c, 2, 57, 0
3, 83904, Note_on_c, 2, 57, 45
3, 83904, Note_on_c, 2, 65, 45
3, 83950, Note_on_c, 2, 65, 0
3, 83950, Note_on_c, 2, 57, 0
3, 83952, Note_on_c, 2, 57, 45
3, 83952, Note_on_c, 2, 65, 45
3, 83998, Note_on_c, 2, 65, 0
3, 83998, Note_on_c, 2, 57, 0
3, 84000, Note_on_c, 2, 57, 45
3, 84000, Note_on_c, 2, 65, 45
3, 84046, Note_on_c, 2, 65, 0
3, 84046, Note_on_c, 2, 57, 0
3, 84048, Note_on_c, 2, 57, 45
3, 84048, Note_on_c, 2, 65, 45
3, 84094, Note_on_c, 2, 65, 0
3, 84094, Note_on_c, 2, 57, 0
3, 84096, Note_on_c, 2, 57, 45
3, 84096, Note_on_c, 2, 65, 45
3, 84142, Note_on_c, 2, 65, 0
3, 84142, Note_on_c, 2, 57, 0
3, 84144, Note_on_c, 2, 57, 45
3, 84144, Note_on_c, 2, 65, 45
3, 84190, Note_on_c, 2, 65, 0
3, 84190, Note_on_c, 2, 57, 0
3, 84192, Note_on_c, 2, 57, 45
3, 84192, Note_on_c, 2, 65, 45
3, 84238, Note_on_c, 2, 65, 0
3, 84238, Note_on_c, 2, 57, 0
3, 84240, Note_on_c, 2, 57, 45
3, 84240, Note_on_c, 2, 65, 45
3, 84286, Note_on_c, 2, 65, 0
3, 84286, Note_on_c, 2, 57, 0
3, 84288, Note_on_c, 2, 57, 45
3, 84288, Note_on_c, 2, 65, 45
3, 84334, Note_on_c, 2, 65, 0
3, 84334, Note_on_c, 2, 57, 0
3, 84336, Note_on_c, 2, 57, 45
3, 84336, Note_on_c, 2, 65, 45
3, 84382, Note_on_c, 2, 65, 0
3, 84382, Note_on_c, 2, 57, 0
3, 84384, Note_on_c, 2, 57, 45
3, 84384, Note_on_c, 2, 65, 45
3, 84430, Note_on_c, 2, 65, 0
3, 84430, Note_on_c, 2, 57, 0
3, 84432, Note_on_c, 2, 57, 45
3, 84432, Note_on_c, 2, 65, 45
3, 84478, Note_on_c, 2, 65, 0
3, 84478, Note_on_c, 2, 57, 0
3, 84480, Note_on_c, 2, 57, 45
3, 84480, Note_on_c, 2, 65, 45
3, 84526, Note_on_c, 2, 65, 0
3, 84526, Note_on_c, 2, 57, 0
3, 84528, Note_on_c, 2, 57, 45
3, 84528, Note_on_c, 2, 65, 45
3, 84574, Note_on_c, 2, 65, 0
3, 84574, Note_on_c, 2, 57, 0
3, 84576, Note_on_c, 2, 57, 45
3, 84622, Note_on_c, 2, 57, 0
3, 84624, Note_on_c, 2, 57, 45
3, 84624, Note_on_c, 2, 65, 45
3, 84670, Note_on_c, 2, 65, 0
3, 84670, Note_on_c, 2, 57, 0
3, 84672, Note_on_c, 2, 58, 92
3, 84718, Note_on_c, 2, 58, 0
3, 84720, Note_on_c, 2, 67, 92
3, 84744, Note_on_c, 2, 67, 0
3, 84744, Note_on_c, 2, 66, 92
3, 84768, Note_on_c, 2, 66, 0
3, 84768, Note_on_c, 2, 67, 92
3, 84792, Note_on_c, 2, 67, 0
3, 84792, Note_on_c, 2, 66, 92
3, 84816, Note_on_c, 2, 66, 0
3, 84816, Note_on_c, 2, 67, 92
3, 84840, Note_on_c, 2, 67, 0
3, 84840, Note_on_c, 2, 69, 92
3, 84864, Note_on_c, 2, 69, 0
3, 84864, Note_on_c, 2, 70, 92
3, 84896, Note_on_c, 2, 70, 0
3, 84960, Note_on_c, 2, 67, 92
3, 84984, Note_on_c, 2, 67, 0
3, 84984, Note_on_c, 2, 66, 92
3, 85008, Note_on_c, 2, 66, 0
3, 85008, Note_on_c, 2, 67, 92
3, 85032, Note_on_c, 2, 67, 0
3, 85032, Note_on_c, 2, 66, 92
3, 85056, Note_on_c, 2, 66, 0
3, 85056, Note_on_c, 2, 67, 92
3, 85080, Note_on_c, 2, 67, 0
3, 85080, Note_on_c, 2, 66, 92
3, 85104, Note_on_c, 2, 66, 0
3, 85104, Note_on_c, 2, 67, 92
3, 85128, Note_on_c, 2, 67, 0
3, 85128, Note_on_c, 2, 69, 92
3, 85152, Note_on_c, 2, 69, 0
3, 85152, Note_on_c, 2, 70, 92
3, 85184, Note_on_c, 2, 70, 0
3, 85248, Note_on_c, 2, 67, 92
3, 85272, Note_on_c, 2, 67, 0
3, 85272, Note_on_c, 2, 66, 92
3, 85296, Note_on_c, 2, 66, 0
3, 85296, Note_on_c, 2, 67, 92
3, 85320, Note_on_c, 2, 67, 0
3, 85320, Note_on_c, 2, 69, 92
3, 85344, Note_on_c, 2, 69, 0
3, 85344, Note_on_c, 2, 70, 92
3, 85368, Note_on_c, 2, 70, 0
3, 85368, Note_on_c, 2, 69, 92
3, 85392, Note_on_c, 2, 69, 0
3, 85392, Note_on_c, 2, 70, 92
3, 85416, Note_on_c, 2, 70, 0
3, 85416, Note_on_c, 2, 69, 92
3, 85440, Note_on_c, 2, 69, 0
3, 85440, Note_on_c, 2, 67, 92
3, 85464, Note_on_c, 2, 67, 0
3, 85464, Note_on_c, 2, 65, 92
3, 85488, Note_on_c, 2, 65, 0
3, 85488, Note_on_c, 2, 64, 92
3, 85512, Note_on_c, 2, 64, 0
3, 85512, Note_on_c, 2, 62, 92
3, 85534, Note_on_c, 2, 62, 0
3, 85536, Note_on_c, 2, 61, 45
3, 85568, Note_on_c, 2, 61, 0
3, 85632, Note_on_c, 2, 79, 45
3, 85664, Note_on_c, 2, 79, 0
3, 85728, Note_on_c, 2, 76, 45
3, 85760, Note_on_c, 2, 76, 0
3, 85824, Note_on_c, 2, 73, 45
3, 85856, Note_on_c, 2, 73, 0
3, 85920, Note_on_c, 2, 67, 52
3, 85952, Note_on_c, 2, 67, 0
3, 86016, Note_on_c, 2, 64, 60
3, 86048, Note_on_c, 2, 64, 0
3, 86112, Note_on_c, 2, 61, 68
3, 86144, Note_on_c, 2, 61, 0
3, 86208, Note_on_c, 2, 55, 76
3, 86240, Note_on_c, 2, 55, 0
3, 86304, Note_on_c, 2, 70, 84
3, 86336, Note_on_c, 2, 70, 0
3, 86400, Note_on_c, 2, 69, 92
3, 86424, Note_on_c, 2, 69, 0
3, 86424, Note_on_c, 2, 68, 92
3, 86448, Note_on_c, 2, 68, 0
3, 86448, Note_on_c, 2, 69, 92
3, 86472, Note_on_c, 2, 69, 0
3, 86472, Note_on_c, 2, 68, 92
3, 86496, Note_on_c, 2, 68, 0
3, 86496, Note_on_c, 2, 69, 92
3, 86520, Note_on_c, 2, 69, 0
3, 86520, Note_on_c, 2, 67, 92
3, 86544, Note_on_c, 2, 67, 0
3, 86544, Note_on_c, 2, 65, 92
3, 86568, Note_on_c, 2, 65, 0
3, 86568, Note_on_c, 2, 64, 92
3, 86592, Note_on_c, 2, 64, 0
3, 86592, Note_on_c, 2, 62, 92
3, 86624, Note_on_c, 2, 62, 0
3, 86688, Note_on_c, 2, 69, 92
3, 86712, Note_on_c, 2, 69, 0
3, 86712, Note_on_c, 2, 68, 92
3, 86736, Note_on_c, 2, 68, 0
3, 86736, Note_on_c, 2, 69, 92
3, 86760, Note_on_c, 2, 69, 0
3, 86760, Note_on_c, 2, 68, 92
3, 86784, Note_on_c, 2, 68, 0
3, 86784, Note_on_c, 2, 69, 92
3, 86808, Note_on_c, 2, 69, 0
3, 86808, Note_on_c, 2, 67, 92
3, 86832, Note_on_c, 2, 67, 0
3, 86832, Note_on_c, 2, 65, 92
3, 86856, Note_on_c, 2, 65, 0
3, 86856, Note_on_c, 2, 64, 92
3, 86880, Note_on_c, 2, 64, 0
3, 86880, Note_on_c, 2, 62, 92
3, 86912, Note_on_c, 2, 62, 0
3, 86976, Note_on_c, 2, 69, 92
3, 87000, Note_on_c, 2, 69, 0
3, 87000, Note_on_c, 2, 68, 92
3, 87024, Note_on_c, 2, 68, 0
3, 87024, Note_on_c, 2, 69, 92
3, 87048, Note_on_c, 2, 69, 0
3, 87048, Note_on_c, 2, 68, 92
3, 87072, Note_on_c, 2, 68, 0
3, 87072, Note_on_c, 2, 69, 92
3, 87096, Note_on_c, 2, 69, 0
3, 87096, Note_on_c, 2, 67, 92
3, 87120, Note_on_c, 2, 67, 0
3, 87120, Note_on_c, 2, 65, 92
3, 87144, Note_on_c, 2, 65, 0
3, 87144, Note_on_c, 2, 64, 92
3, 87168, Note_on_c, 2, 64, 0
3, 87168, Note_on_c, 2, 62, 92
3, 87192, Note_on_c, 2, 62, 0
3, 87192, Note_on_c, 2, 64, 92
3, 87216, Note_on_c, 2, 64, 0
3, 87216, Note_on_c, 2, 65, 92
3, 87240, Note_on_c, 2, 65, 0
3, 87240, Note_on_c, 2, 62, 92
3, 87262, Note_on_c, 2, 62, 0
3, 87264, Note_on_c, 2, 55, 92
3, 87264, Note_on_c, 2, 63, 92
3, 87424, Note_on_c, 2, 63, 0
3, 87424, Note_on_c, 2, 55, 0
3, 88128, Note_on_c, 2, 57, 92
3, 88128, Note_on_c, 2, 66, 92
3, 88288, Note_on_c, 2, 66, 0
3, 88288, Note_on_c, 2, 57, 0
3, 88992, Note_on_c, 2, 58, 108
3, 89152, Note_on_c, 2, 58, 0
3, 89856, Note_on_c, 2, 62, 108
3, 89856, Note_on_c, 2, 74, 108
3, 89902, Note_on_c, 2, 74, 0
3, 89902, Note_on_c, 2, 62, 0
3, 89904, Note_on_c, 2, 62, 103
3, 89904, Note_on_c, 2, 74, 103
3, 89950, Note_on_c, 2, 74, 0
3, 89950, Note_on_c, 2, 62, 0
3, 89952, Note_on_c, 2, 62, 98
3, 89952, Note_on_c, 2, 74, 98
3, 89998, Note_on_c, 2, 74, 0
3, 89998, Note_on_c, 2, 62, 0
3, 90000, Note_on_c, 2, 62, 93
3, 90000, Note_on_c, 2, 74, 93
3, 90046, Note_on_c, 2, 74, 0
3, 90046, Note_on_c, 2, 62, 0
3, 90048, Note_on_c, 2, 62, 88
3, 90048, Note_on_c, 2, 74, 88
3, 90094, Note_on_c, 2, 74, 0
3, 90094, Note_on_c, 2, 62, 0
3, 90096, Note_on_c, 2, 62, 83
3, 90096, Note_on_c, 2, 74, 83
3, 90142, Note_on_c, 2, 74, 0
3, 90142, Note_on_c, 2, 62, 0
3, 90144, Note_on_c, 2, 62, 78
3, 90144, Note_on_c, 2, 74, 78
3, 90190, Note_on_c, 2, 74, 0
3, 90190, Note_on_c, 2, 62, 0
3, 90192, Note_on_c, 2, 62, 73
3, 90192, Note_on_c, 2, 74, 73
3, 90238, Note_on_c, 2, 74, 0
3, 90238, Note_on_c, 2, 62, 0
3, 90240, Note_on_c, 2, 62, 68
3, 90240, Note_on_c, 2, 74, 68
3, 90286, Note_on_c, 2, 74, 0
3, 90286, Note_on_c, 2, 62, 0
3, 90288, Note_on_c, 2, 62, 63
3, 90288, Note_on_c, 2, 74, 63
3, 90334, Note_on_c, 2, 74, 0
3, 90334, Note_on_c, 2, 62, 0
3, 90336, Note_on_c, 2, 62, 57
3, 90336, Note_on_c, 2, 74, 57
3, 90382, Note_on_c, 2, 74, 0
3, 90382, Note_on_c, 2, 62, 0
3, 90384, Note_on_c, 2, 62, 51
3, 90384, Note_on_c, 2, 74, 51
3, 90430, Note_on_c, 2, 74, 0
3, 90430, Note_on_c, 2, 62, 0
3, 90432, Note_on_c, 2, 58, 45
3, 90480, Note_on_c, 2, 58, 0
3, 90480, Note_on_c, 2, 57, 45
3, 90526, Note_on_c, 2, 57, 0
3, 90528, Note_on_c, 2, 57, 45
3, 90574, Note_on_c, 2, 57, 0
3, 90576, Note_on_c, 2, 57, 45
3, 90622, Note_on_c, 2, 57, 0
3, 90624, Note_on_c, 2, 57, 45
3, 90670, Note_on_c, 2, 57, 0
3, 90672, Note_on_c, 2, 57, 45
3, 90718, Note_on_c, 2, 57, 0
3, 90720, Note_on_c, 2, 57, 45
3, 90880, Note_on_c, 2, 57, 0
3, 91584, Note_on_c, 2, 67, 45
3, 91632, Note_on_c, 2, 67, 0
3, 91632, Note_on_c, 2, 70, 55
3, 91680, Note_on_c, 2, 70, 0
3, 91680, Note_on_c, 2, 73, 65
3, 91728, Note_on_c, 2, 73, 0
3, 91728, Note_on_c, 2, 70, 75
3, 91776, Note_on_c, 2, 70, 0
3, 91776, Note_on_c, 2, 73, 65
3, 91824, Note_on_c, 2, 73, 0
3, 91824, Note_on_c, 2, 67, 55
3, 91870, Note_on_c, 2, 67, 0
3, 91872, Note_on_c, 2, 65, 45
3, 92032, Note_on_c, 2, 65, 0
3, 92448, Note_on_c, 2, 67, 45
3, 92496, Note_on_c, 2, 67, 0
3, 92496, Note_on_c, 2, 70, 55
3, 92544, Note_on_c, 2, 70, 0
3, 92544, Note_on_c, 2, 73, 65
3, 92592, Note_on_c, 2, 73, 0
3, 92592, Note_on_c, 2, 70, 75
3, 92640, Note_on_c, 2, 70, 0
3, 92640, Note_on_c, 2, 73, 65
3, 92688, Note_on_c, 2, 73, 0
3, 92688, Note_on_c, 2, 67, 55
3, 92734, Note_on_c, 2, 67, 0
3, 92736, Note_on_c, 2, 65, 45
3, 92830, Note_on_c, 2, 65, 0
3, 92832, Note_on_c, 2, 69, 45
3, 92900, Note_on_c, 2, 69, 0
3, 92928, Note_on_c, 2, 69, 45
3, 92960, Note_on_c, 2, 69, 0
3, 93024, Note_on_c, 2, 69, 45
3, 93120, Note_on_c, 2, 69, 0
3, 93120, Note_on_c, 2, 65, 45
3, 93216, Note_on_c, 2, 65, 0
3, 93216, Note_on_c, 2, 62, 45
3, 93310, Note_on_c, 2, 62, 0
3, 93312, Note_on_c, 2, 61, 45
3, 94144, Note_on_c, 2, 61, 0
3, 94176, Note_on_c, 2, 57, 30
3, 94336, Note_on_c, 2, 57, 0
3, 94464, Note_on_c, 2, 57, 30
3, 94624, Note_on_c, 2, 57, 0
3, 94624, End_track
4, 0, Start_track
4, 0, Title_t, "Viola."
4, 0, Program_c, 3, 48
4, 0, Control_c, 3, 7, 127
4, 0, Control_c, 3, 10, 64
4, 0, Note_on_c, 3, 53, 30
4, 68, Note_on_c, 3, 53, 0
4, 96, Note_on_c, 3, 53, 30
4, 164, Note_on_c, 3, 53, 0
4, 192, Note_on_c, 3, 53, 30
4, 224, Note_on_c, 3, 53, 0
4, 288, Note_on_c, 3, 57, 30
4, 356, Note_on_c, 3, 57, 0
4, 384, Note_on_c, 3, 57, 30
4, 452, Note_on_c, 3, 57, 0
4, 480, Note_on_c, 3, 57, 30
4, 512, Note_on_c, 3, 57, 0
4, 576, Note_on_c, 3, 55, 30
4, 644, Note_on_c, 3, 55, 0
4, 672, Note_on_c, 3, 55, 30
4, 740, Note_on_c, 3, 55, 0
4, 768, Note_on_c, 3, 55, 30
4, 800, Note_on_c, 3, 55, 0
4, 864, Note_on_c, 3, 53, 30
4, 958, Note_on_c, 3, 53, 0
4, 960, Note_on_c, 3, 53, 33
4, 1054, Note_on_c, 3, 53, 0
4, 1056, Note_on_c, 3, 53, 36
4, 1150, Note_on_c, 3, 53, 0
4, 1152, Note_on_c, 3, 57, 39
4, 1246, Note_on_c, 3, 57, 0
4, 1248, Note_on_c, 3, 57, 42
4, 1342, Note_on_c, 3, 57, 0
4, 1344, Note_on_c, 3, 57, 45
4, 1438, Note_on_c, 3, 57, 0
4, 1440, Note_on_c, 3, 55, 48
4, 1534, Note_on_c, 3, 55, 0
4, 1536, Note_on_c, 3, 55, 52
4, 1630, Note_on_c, 3, 55, 0
4, 1632, Note_on_c, 3, 55, 56
4, 1726, Note_on_c, 3, 55, 0
4, 1728, Note_on_c, 3, 53, 60
4, 1822, Note_on_c, 3, 53, 0
4, 1824, Note_on_c, 3, 53, 57
4, 1918, Note_on_c, 3, 53, 0
4, 1920, Note_on_c, 3, 53, 54
4, 2014, Note_on_c, 3, 53, 0
4, 2016, Note_on_c, 3, 57, 51
4, 2110, Note_on_c, 3, 57, 0
4, 2112, Note_on_c, 3, 57, 48
4, 2206, Note_on_c, 3, 57, 0
4, 2208, Note_on_c, 3, 57, 45
4, 2302, Note_on_c, 3, 57, 0
4, 2304, Note_on_c, 3, 61, 42
4, 2398, Note_on_c, 3, 61, 0
4, 2400, Note_on_c, 3, 61, 38
4, 2494, Note_on_c, 3, 61, 0
4, 2496, Note_on_c, 3, 61, 34
4, 2590, Note_on_c, 3, 61, 0
4, 2592, Note_on_c, 3, 62, 45
4, 2686, Note_on_c, 3, 62, 0
4, 2688, Note_on_c, 3, 53, 30
4, 2782, Note_on_c, 3, 53, 0
4, 2784, Note_on_c, 3, 53, 30
4, 2878, Note_on_c, 3, 53, 0
4, 2880, Note_on_c, 3, 53, 30
4, 2974, Note_on_c, 3, 53, 0
4, 2976, Note_on_c, 3, 53, 30
4, 3070, Note_on_c, 3, 53, 0
4, 3072, Note_on_c, 3, 53, 30
4, 3166, Note_on_c, 3, 53, 0
4, 3168, Note_on_c, 3, 53, 30
4, 3262, Note_on_c, 3, 53, 0
4, 3264, Note_on_c, 3, 53, 30
4, 3358, Note_on_c, 3, 53, 0
4, 3360, Note_on_c, 3, 53, 30
4, 3454, Note_on_c, 3, 53, 0
4, 3456, Note_on_c, 3, 55, 30
4, 3550, Note_on_c, 3, 55, 0
4, 3552, Note_on_c, 3, 55, 30
4, 3646, Note_on_c, 3, 55, 0
4, 3648, Note_on_c, 3, 55, 30
4, 3742, Note_on_c, 3, 55, 0
4, 3744, Note_on_c, 3, 55, 30
4, 3838, Note_on_c, 3, 55, 0
4, 3840, Note_on_c, 3, 55, 30
4, 3934, Note_on_c, 3, 55, 0
4, 3936, Note_on_c, 3, 55, 30
4, 4030, Note_on_c, 3, 55, 0
4, 4032, Note_on_c, 3, 55, 30
4, 4126, Note_on_c, 3, 55, 0
4, 4128, Note_on_c, 3, 55, 30
4, 4222, Note_on_c, 3, 55, 0
4, 4224, Note_on_c, 3, 55, 30
4, 4318, Note_on_c, 3, 55, 0
4, 4320, Note_on_c, 3, 55, 30
4, 4414, Note_on_c, 3, 55, 0
4, 4416, Note_on_c, 3, 55, 30
4, 4510, Note_on_c, 3, 55, 0
4, 4512, Note_on_c, 3, 55, 30
4, 4606, Note_on_c, 3, 55, 0
4, 4608, Note_on_c, 3, 55, 30
4, 4702, Note_on_c, 3, 55, 0
4, 4704, Note_on_c, 3, 55, 30
4, 4798, Note_on_c, 3, 55, 0
4, 4800, Note_on_c, 3, 55, 30
4, 4894, Note_on_c, 3, 55, 0
4, 4896, Note_on_c, 3, 55, 30
4, 4990, Note_on_c, 3, 55, 0
4, 4992, Note_on_c, 3, 55, 30
4, 5086, Note_on_c, 3, 55, 0
4, 5088, Note_on_c, 3, 55, 30
4, 5182, Note_on_c, 3, 55, 0
4, 5184, Note_on_c, 3, 57, 30
4, 5278, Note_on_c, 3, 57, 0
4, 5280, Note_on_c, 3, 57, 30
4, 5374, Note_on_c, 3, 57, 0
4, 5376, Note_on_c, 3, 57, 30
4, 5470, Note_on_c, 3, 57, 0
4, 5472, Note_on_c, 3, 57, 30
4, 5566, Note_on_c, 3, 57, 0
4, 5568, Note_on_c, 3, 57, 30
4, 5662, Note_on_c, 3, 57, 0
4, 5664, Note_on_c, 3, 57, 30
4, 5758, Note_on_c, 3, 57, 0
4, 5760, Note_on_c, 3, 57, 30
4, 5856, Note_on_c, 3, 57, 0
4, 5856, Note_on_c, 3, 55, 30
4, 5952, Note_on_c, 3, 55, 0
4, 5952, Note_on_c, 3, 53, 30
4, 6046, Note_on_c, 3, 53, 0
4, 6048, Note_on_c, 3, 58, 30
4, 6142, Note_on_c, 3, 58, 0
4, 6144, Note_on_c, 3, 58, 33
4, 6238, Note_on_c, 3, 58, 0
4, 6240, Note_on_c, 3, 58, 36
4, 6334, Note_on_c, 3, 58, 0
4, 6336, Note_on_c, 3, 58, 39
4, 6430, Note_on_c, 3, 58, 0
4, 6432, Note_on_c, 3, 58, 42
4, 6526, Note_on_c, 3, 58, 0
4, 6528, Note_on_c, 3, 58, 45
4, 6622, Note_on_c, 3, 58, 0
4, 6624, Note_on_c, 3, 59, 48
4, 6718, Note_on_c, 3, 59, 0
4, 6720, Note_on_c, 3, 59, 52
4, 6814, Note_on_c, 3, 59, 0
4, 6816, Note_on_c, 3, 59, 56
4, 6910, Note_on_c, 3, 59, 0
4, 6912, Note_on_c, 3, 52, 45
4, 7008, Note_on_c, 3, 52, 0
4, 7008, Note_on_c, 3, 57, 45
4, 7102, Note_on_c, 3, 57, 0
4, 7104, Note_on_c, 3, 57, 45
4, 7136, Note_on_c, 3, 57, 0
4, 7200, Note_on_c, 3, 57, 45
4, 7584, Note_on_c, 3, 57, 0
4, 7584, Note_on_c, 3, 58, 45
4, 7680, Note_on_c, 3, 58, 0
4, 7680, Note_on_c, 3, 59, 45
4, 7774, Note_on_c, 3, 59, 0
4, 7776, Note_on_c, 3, 52, 45
4, 8158, Note_on_c, 3, 52, 0
4, 8160, Note_on_c, 3, 57, 55
4, 8228, Note_on_c, 3, 57, 0
4, 8256, Note_on_c, 3, 57, 65
4, 8288, Note_on_c, 3, 57, 0
4, 8352, Note_on_c, 3, 57, 75
4, 8448, Note_on_c, 3, 57, 0
4, 8448, Note_on_c, 3, 58, 65
4, 8544, Note_on_c, 3, 58, 0
4, 8544, Note_on_c, 3, 59, 55
4, 8638, Note_on_c, 3, 59, 0
4, 8640, Note_on_c, 3, 52, 45
4, 8800, Note_on_c, 3, 52, 0
4, 9216, Note_on_c, 3, 62, 30
4, 9504, Note_on_c, 3, 62, 0
4, 9504, Note_on_c, 3, 61, 30
4, 9664, Note_on_c, 3, 61, 0
4, 10368, Note_on_c, 3, 57, 60
4, 10752, Note_on_c, 3, 57, 0
4, 10752, Note_on_c, 3, 55, 50
4, 10848, Note_on_c, 3, 55, 0
4, 10848, Note_on_c, 3, 53, 55
4, 10944, Note_on_c, 3, 53, 0
4, 10944, Note_on_c, 3, 52, 60
4, 11040, Note_on_c, 3, 52, 0
4, 11040, Note_on_c, 3, 50, 65
4, 11136, Note_on_c, 3, 50, 0
4, 11136, Note_on_c, 3, 49, 70
4, 11230, Note_on_c, 3, 49, 0
4, 11232, Note_on_c, 3, 50, 30
4, 11300, Note_on_c, 3, 50, 0
4, 11328, Note_on_c, 3, 50, 30
4, 11396, Note_on_c, 3, 50, 0
4, 11424, Note_on_c, 3, 50, 30
4, 11456, Note_on_c, 3, 50, 0
4, 11520, Note_on_c, 3, 53, 30
4, 11614, Note_on_c, 3, 53, 0
4, 11616, Note_on_c, 3, 53, 30
4, 11710, Note_on_c, 3, 53, 0
4, 11712, Note_on_c, 3, 53, 30
4, 11806, Note_on_c, 3, 53, 0
4, 11808, Note_on_c, 3, 52, 30
4, 11902, Note_on_c, 3, 52, 0
4, 11904, Note_on_c, 3, 52, 30
4, 11998, Note_on_c, 3, 52, 0
4, 12000, Note_on_c, 3, 52, 30
4, 12094, Note_on_c, 3, 52, 0
4, 12096, Note_on_c, 3, 50, 30
4, 12190, Note_on_c, 3, 50, 0
4, 12192, Note_on_c, 3, 50, 30
4, 12286, Note_on_c, 3, 50, 0
4, 12288, Note_on_c, 3, 50, 30
4, 12382, Note_on_c, 3, 50, 0
4, 12384, Note_on_c, 3, 53, 30
4, 12478, Note_on_c, 3, 53, 0
4, 12480, Note_on_c, 3, 53, 30
4, 12574, Note_on_c, 3, 53, 0
4, 12576, Note_on_c, 3, 53, 30
4, 12670, Note_on_c, 3, 53, 0
4, 12672, Note_on_c, 3, 57, 30
4, 12766, Note_on_c, 3, 57, 0
4, 12768, Note_on_c, 3, 57, 30
4, 12862, Note_on_c, 3, 57, 0
4, 12864, Note_on_c, 3, 57, 30
4, 12958, Note_on_c, 3, 57, 0
4, 12960, Note_on_c, 3, 50, 45
4, 13054, Note_on_c, 3, 50, 0
4, 13056, Note_on_c, 3, 62, 45
4, 13150, Note_on_c, 3, 62, 0
4, 13152, Note_on_c, 3, 62, 45
4, 13246, Note_on_c, 3, 62, 0
4, 13248, Note_on_c, 3, 62, 45
4, 13342, Note_on_c, 3, 62, 0
4, 13344, Note_on_c, 3, 62, 45
4, 13438, Note_on_c, 3, 62, 0
4, 13440, Note_on_c, 3, 62, 45
4, 13534, Note_on_c, 3, 62, 0
4, 13536, Note_on_c, 3, 61, 45
4, 13630, Note_on_c, 3, 61, 0
4, 13632, Note_on_c, 3, 61, 45
4, 13726, Note_on_c, 3, 61, 0
4, 13728, Note_on_c, 3, 61, 45
4, 13822, Note_on_c, 3, 61, 0
4, 13824, Note_on_c, 3, 60, 45
4, 13918, Note_on_c, 3, 60, 0
4, 13920, Note_on_c, 3, 48, 45
4, 14014, Note_on_c, 3, 48, 0
4, 14016, Note_on_c, 3, 48, 45
4, 14110, Note_on_c, 3, 48, 0
4, 14112, Note_on_c, 3, 48, 45
4, 14206, Note_on_c, 3, 48, 0
4, 14208, Note_on_c, 3, 48, 45
4, 14302, Note_on_c, 3, 48, 0
4, 14304, Note_on_c, 3, 48, 45
4, 14398, Note_on_c, 3, 48, 0
4, 14400, Note_on_c, 3, 48, 45
4, 14494, Note_on_c, 3, 48, 0
4, 14496, Note_on_c, 3, 48, 45
4, 14590, Note_on_c, 3, 48, 0
4, 14592, Note_on_c, 3, 48, 45
4, 14686, Note_on_c, 3, 48, 0
4, 14688, Note_on_c, 3, 60, 45
4, 14782, Note_on_c, 3, 60, 0
4, 14784, Note_on_c, 3, 60, 45
4, 14878, Note_on_c, 3, 60, 0
4, 14880, Note_on_c, 3, 60, 45
4, 14974, Note_on_c, 3, 60, 0
4, 14976, Note_on_c, 3, 60, 45
4, 15070, Note_on_c, 3, 60, 0
4, 15072, Note_on_c, 3, 60, 45
4, 15166, Note_on_c, 3, 60, 0
4, 15168, Note_on_c, 3, 60, 45
4, 15262, Note_on_c, 3, 60, 0
4, 15264, Note_on_c, 3, 60, 45
4, 15360, Note_on_c, 3, 60, 0
4, 15360, Note_on_c, 3, 63, 45
4, 15456, Note_on_c, 3, 63, 0
4, 15456, Note_on_c, 3, 60, 45
4, 15550, Note_on_c, 3, 60, 0
4, 15552, Note_on_c, 3, 53, 45
4, 16224, Note_on_c, 3, 53, 0
4, 16224, Note_on_c, 3, 62, 54
4, 16318, Note_on_c, 3, 62, 0
4, 16320, Note_on_c, 3, 62, 55
4, 16414, Note_on_c, 3, 62, 0
4, 16416, Note_on_c, 3, 60, 56
4, 16576, Note_on_c, 3, 60, 0
4, 17664, Note_on_c, 3, 64, 30
4, 17760, Note_on_c, 3, 64, 0
4, 17760, Note_on_c, 3, 65, 30
4, 17856, Note_on_c, 3, 65, 0
4, 17856, Note_on_c, 3, 67, 30
4, 17952, Note_on_c, 3, 67, 0
4, 17952, Note_on_c, 3, 68, 30
4, 18048, Note_on_c, 3, 68, 0
4, 18048, Note_on_c, 3, 65, 30
4, 18142, Note_on_c, 3, 65, 0
4, 18144, Note_on_c, 3, 64, 30
4, 18304, Note_on_c, 3, 64, 0
4, 19008, Note_on_c, 3, 48, 30
4, 19104, Note_on_c, 3, 48, 0
4, 19104, Note_on_c, 3, 52, 30
4, 19200, Note_on_c, 3, 52, 0
4, 19200, Note_on_c, 3, 55, 30
4, 19294, Note_on_c, 3, 55, 0
4, 19296, Note_on_c, 3, 48, 30
4, 19392, Note_on_c, 3, 48, 0
4, 19392, Note_on_c, 3, 52, 30
4, 19488, Note_on_c, 3, 52, 0
4, 19488, Note_on_c, 3, 55, 30
4, 19582, Note_on_c, 3, 55, 0
4, 19584, Note_on_c, 3, 48, 30
4, 19680, Note_on_c, 3, 48, 0
4, 19680, Note_on_c, 3, 52, 30
4, 19776, Note_on_c, 3, 52, 0
4, 19776, Note_on_c, 3, 55, 30
4, 19870, Note_on_c, 3, 55, 0
4, 19872, Note_on_c, 3, 48, 30
4, 19968, Note_on_c, 3, 48, 0
4, 19968, Note_on_c, 3, 53, 30
4, 20064, Note_on_c, 3, 53, 0
4, 20064, Note_on_c, 3, 57, 30
4, 20158, Note_on_c, 3, 57, 0
4, 20160, Note_on_c, 3, 48, 30
4, 20256, Note_on_c, 3, 48, 0
4, 20256, Note_on_c, 3, 53, 30
4, 20352, Note_on_c, 3, 53, 0
4, 20352, Note_on_c, 3, 57, 30
4, 20446, Note_on_c, 3, 57, 0
4, 20448, Note_on_c, 3, 48, 30
4, 20544, Note_on_c, 3, 48, 0
4, 20544, Note_on_c, 3, 53, 30
4, 20640, Note_on_c, 3, 53, 0
4, 20640, Note_on_c, 3, 57, 30
4, 20734, Note_on_c, 3, 57, 0
4, 20736, Note_on_c, 3, 48, 30
4, 20832, Note_on_c, 3, 48, 0
4, 20832, Note_on_c, 3, 55, 33
4, 20928, Note_on_c, 3, 55, 0
4, 20928, Note_on_c, 3, 58, 36
4, 21022, Note_on_c, 3, 58, 0
4, 21024, Note_on_c, 3, 48, 39
4, 21120, Note_on_c, 3, 48, 0
4, 21120, Note_on_c, 3, 55, 42
4, 21216, Note_on_c, 3, 55, 0
4, 21216, Note_on_c, 3, 58, 45
4, 21310, Note_on_c, 3, 58, 0
4, 21312, Note_on_c, 3, 48, 48
4, 21408, Note_on_c, 3, 48, 0
4, 21408, Note_on_c, 3, 55, 52
4, 21502, Note_on_c, 3, 55, 0
4, 21600, Note_on_c, 3, 53, 45
4, 21696, Note_on_c, 3, 53, 0
4, 21696, Note_on_c, 3, 60, 45
4, 21790, Note_on_c, 3, 60, 0
4, 21792, Note_on_c, 3, 60, 45
4, 21886, Note_on_c, 3, 60, 0
4, 21888, Note_on_c, 3, 67, 45
4, 21984, Note_on_c, 3, 67, 0
4, 21984, Note_on_c, 3, 60, 45
4, 22078, Note_on_c, 3, 60, 0
4, 22080, Note_on_c, 3, 60, 45
4, 22174, Note_on_c, 3, 60, 0
4, 22176, Note_on_c, 3, 65, 45
4, 22272, Note_on_c, 3, 65, 0
4, 22272, Note_on_c, 3, 60, 45
4, 22366, Note_on_c, 3, 60, 0
4, 22368, Note_on_c, 3, 60, 45
4, 22462, Note_on_c, 3, 60, 0
4, 22464, Note_on_c, 3, 64, 45
4, 22560, Note_on_c, 3, 64, 0
4, 22560, Note_on_c, 3, 60, 45
4, 22654, Note_on_c, 3, 60, 0
4, 22656, Note_on_c, 3, 60, 45
4, 22750, Note_on_c, 3, 60, 0
4, 22752, Note_on_c, 3, 65, 45
4, 22848, Note_on_c, 3, 65, 0
4, 22848, Note_on_c, 3, 60, 45
4, 22942, Note_on_c, 3, 60, 0
4, 22944, Note_on_c, 3, 60, 45
4, 23038, Note_on_c, 3, 60, 0
4, 23040, Note_on_c, 3, 67, 45
4, 23136, Note_on_c, 3, 67, 0
4, 23136, Note_on_c, 3, 60, 45
4, 23230, Note_on_c, 3, 60, 0
4, 23232, Note_on_c, 3, 60, 45
4, 23326, Note_on_c, 3, 60, 0
4, 23328, Note_on_c, 3, 69, 45
4, 23424, Note_on_c, 3, 69, 0
4, 23424, Note_on_c, 3, 60, 45
4, 23518, Note_on_c, 3, 60, 0
4, 23520, Note_on_c, 3, 60, 45
4, 23614, Note_on_c, 3, 60, 0
4, 23616, Note_on_c, 3, 64, 45
4, 23712, Note_on_c, 3, 64, 0
4, 23712, Note_on_c, 3, 60, 45
4, 23806, Note_on_c, 3, 60, 0
4, 23808, Note_on_c, 3, 60, 45
4, 23902, Note_on_c, 3, 60, 0
4, 23904, Note_on_c, 3, 65, 45
4, 24000, Note_on_c, 3, 65, 0
4, 24000, Note_on_c, 3, 60, 45
4, 24094, Note_on_c, 3, 60, 0
4, 24096, Note_on_c, 3, 60, 45
4, 24190, Note_on_c, 3, 60, 0
4, 24192, Note_on_c, 3, 64, 45
4, 24480, Note_on_c, 3, 64, 0
4, 24480, Note_on_c, 3, 65, 45
4, 24768, Note_on_c, 3, 65, 0
4, 24768, Note_on_c, 3, 67, 45
4, 25024, Note_on_c, 3, 67, 0
4, 25056, Note_on_c, 3, 65, 45
4, 25216, Note_on_c, 3, 65, 0
4, 25920, Note_on_c, 3, 57, 60
4, 26368, Note_on_c, 3, 57, 0
4, 26400, Note_on_c, 3, 62, 45
4, 26448, Note_on_c, 3, 62, 0
4, 26448, Note_on_c, 3, 60, 45
4, 26496, Note_on_c, 3, 60, 0
4, 26496, Note_on_c, 3, 58, 45
4, 26544, Note_on_c, 3, 58, 0
4, 26544, Note_on_c, 3, 57, 45
4, 26592, Note_on_c, 3, 57, 0
4, 26592, Note_on_c, 3, 58, 45
4, 26640, Note_on_c, 3, 58, 0
4, 26640, Note_on_c, 3, 57, 45
4, 26688, Note_on_c, 3, 57, 0
4, 26688, Note_on_c, 3, 55, 45
4, 26736, Note_on_c, 3, 55, 0
4, 26736, Note_on_c, 3, 53, 45
4, 26782, Note_on_c, 3, 53, 0
4, 26784, Note_on_c, 3, 52, 45
4, 26832, Note_on_c, 3, 52, 0
4, 26832, Note_on_c, 3, 53, 46
4, 26880, Note_on_c, 3, 53, 0
4, 26880, Note_on_c, 3, 55, 46
4, 26928, Note_on_c, 3, 55, 0
4, 26928, Note_on_c, 3, 53, 47
4, 26976, Note_on_c, 3, 53, 0
4, 26976, Note_on_c, 3, 52, 48
4, 27024, Note_on_c, 3, 52, 0
4, 27024, Note_on_c, 3, 53, 49
4, 27072, Note_on_c, 3, 53, 0
4, 27072, Note_on_c, 3, 55, 50
4, 27120, Note_on_c, 3, 55, 0
4, 27120, Note_on_c, 3, 53, 51
4, 27168, Note_on_c, 3, 53, 0
4, 27168, Note_on_c, 3, 52, 52
4, 27216, Note_on_c, 3, 52, 0
4, 27216, Note_on_c, 3, 53, 53
4, 27264, Note_on_c, 3, 53, 0
4, 27264, Note_on_c, 3, 55, 54
4, 27312, Note_on_c, 3, 55, 0
4, 27312, Note_on_c, 3, 52, 55
4, 27360, Note_on_c, 3, 52, 0
4, 27360, Note_on_c, 3, 53, 56
4, 27408, Note_on_c, 3, 53, 0
4, 27408, Note_on_c, 3, 52, 57
4, 27456, Note_on_c, 3, 52, 0
4, 27456, Note_on_c, 3, 53, 58
4, 27504, Note_on_c, 3, 53, 0
4, 27504, Note_on_c, 3, 55, 59
4, 27552, Note_on_c, 3, 55, 0
4, 27552, Note_on_c, 3, 56, 60
4, 27600, Note_on_c, 3, 56, 0
4, 27600, Note_on_c, 3, 53, 61
4, 27646, Note_on_c, 3, 53, 0
4, 27648, Note_on_c, 3, 49, 62
4, 27904, Note_on_c, 3, 49, 0
4, 27936, Note_on_c, 3, 53, 95
4, 27984, Note_on_c, 3, 53, 0
4, 27984, Note_on_c, 3, 52, 69
4, 28032, Note_on_c, 3, 52, 0
4, 28032, Note_on_c, 3, 53, 70
4, 28080, Note_on_c, 3, 53, 0
4, 28080, Note_on_c, 3, 52, 71
4, 28128, Note_on_c, 3, 52, 0
4, 28128, Note_on_c, 3, 53, 72
4, 28176, Note_on_c, 3, 53, 0
4, 28176, Note_on_c, 3, 56, 73
4, 28222, Note_on_c, 3, 56, 0
4, 28224, Note_on_c, 3, 60, 75
4, 28384, Note_on_c, 3, 60, 0
4, 28416, Note_on_c, 3, 60, 55
4, 28512, Note_on_c, 3, 60, 0
4, 28512, Note_on_c, 3, 72, 45
4, 28560, Note_on_c, 3, 72, 0
4, 28560, Note_on_c, 3, 71, 45
4, 28608, Note_on_c, 3, 71, 0
4, 28608, Note_on_c, 3, 72, 45
4, 28656, Note_on_c, 3, 72, 0
4, 28656, Note_on_c, 3, 70, 45
4, 28704, Note_on_c, 3, 70, 0
4, 28704, Note_on_c, 3, 69, 45
4, 28752, Note_on_c, 3, 69, 0
4, 28752, Note_on_c, 3, 67, 45
4, 28798, Note_on_c, 3, 67, 0
4, 28800, Note_on_c, 3, 65, 45
4, 28848, Note_on_c, 3, 65, 0
4, 28848, Note_on_c, 3, 64, 45
4, 28896, Note_on_c, 3, 64, 0
4, 28896, Note_on_c, 3, 65, 45
4, 28944, Note_on_c, 3, 65, 0
4, 28944, Note_on_c, 3, 63, 45
4, 28992, Note_on_c, 3, 63, 0
4, 28992, Note_on_c, 3, 62, 45
4, 29040, Note_on_c, 3, 62, 0
4, 29040, Note_on_c, 3, 60, 45
4, 29086, Note_on_c, 3, 60, 0
4, 29088, Note_on_c, 3, 58, 45
4, 29136, Note_on_c, 3, 58, 0
4, 29136, Note_on_c, 3, 57, 45
4, 29184, Note_on_c, 3, 57, 0
4, 29184, Note_on_c, 3, 58, 45
4, 29232, Note_on_c, 3, 58, 0
4, 29232, Note_on_c, 3, 57, 45
4, 29280, Note_on_c, 3, 57, 0
4, 29280, Note_on_c, 3, 55, 45
4, 29328, Note_on_c, 3, 55, 0
4, 29328, Note_on_c, 3, 53, 45
4, 29374, Note_on_c, 3, 53, 0
4, 29376, Note_on_c, 3, 51, 60
4, 29472, Note_on_c, 3, 51, 0
4, 29472, Note_on_c, 3, 58, 45
4, 29566, Note_on_c, 3, 58, 0
4, 29568, Note_on_c, 3, 58, 45
4, 29662, Note_on_c, 3, 58, 0
4, 29664, Note_on_c, 3, 60, 45
4, 30192, Note_on_c, 3, 60, 0
4, 30240, Note_on_c, 3, 58, 45
4, 30384, Note_on_c, 3, 58, 0
4, 30384, Note_on_c, 3, 65, 48
4, 30432, Note_on_c, 3, 65, 0
4, 30432, Note_on_c, 3, 64, 49
4, 30480, Note_on_c, 3, 64, 0
4, 30480, Note_on_c, 3, 65, 50
4, 30526, Note_on_c, 3, 65, 0
4, 30528, Note_on_c, 3, 67, 51
4, 30816, Note_on_c, 3, 67, 0
4, 30816, Note_on_c, 3, 65, 59
4, 31072, Note_on_c, 3, 65, 0
4, 31104, Note_on_c, 3, 58, 67
4, 31360, Note_on_c, 3, 58, 0
4, 31392, Note_on_c, 3, 53, 105
4, 31440, Note_on_c, 3, 53, 0
4, 31440, Note_on_c, 3, 52, 73
4, 31488, Note_on_c, 3, 52, 0
4, 31488, Note_on_c, 3, 53, 71
4, 31536, Note_on_c, 3, 53, 0
4, 31536, Note_on_c, 3, 52, 69
4, 31584, Note_on_c, 3, 52, 0
4, 31584, Note_on_c, 3, 53, 67
4, 31632, Note_on_c, 3, 53, 0
4, 31632, Note_on_c, 3, 56, 65
4, 31678, Note_on_c, 3, 56, 0
4, 31680, Note_on_c, 3, 60, 63
4, 31840, Note_on_c, 3, 60, 0
4, 31872, Note_on_c, 3, 60, 51
4, 31968, Note_on_c, 3, 60, 0
4, 31968, Note_on_c, 3, 72, 45
4, 32224, Note_on_c, 3, 72, 0
4, 32256, Note_on_c, 3, 71, 45
4, 32304, Note_on_c, 3, 71, 0
4, 32304, Note_on_c, 3, 72, 45
4, 32350, Note_on_c, 3, 72, 0
4, 32352, Note_on_c, 3, 74, 45
4, 32400, Note_on_c, 3, 74, 0
4, 32400, Note_on_c, 3, 72, 45
4, 32446, Note_on_c, 3, 72, 0
4, 32448, Note_on_c, 3, 68, 45
4, 32496, Note_on_c, 3, 68, 0
4, 32496, Note_on_c, 3, 69, 45
4, 32542, Note_on_c, 3, 69, 0
4, 32544, Note_on_c, 3, 70, 45
4, 32592, Note_on_c, 3, 70, 0
4, 32592, Note_on_c, 3, 69, 45
4, 32638, Note_on_c, 3, 69, 0
4, 32640, Note_on_c, 3, 64, 45
4, 32688, Note_on_c, 3, 64, 0
4, 32688, Note_on_c, 3, 65, 45
4, 32734, Note_on_c, 3, 65, 0
4, 32736, Note_on_c, 3, 67, 45
4, 32784, Note_on_c, 3, 67, 0
4, 32784, Note_on_c, 3, 65, 45
4, 32830, Note_on_c, 3, 65, 0
4, 32832, Note_on_c, 3, 58, 45
4, 32926, Note_on_c, 3, 58, 0
4, 32928, Note_on_c, 3, 58, 45
4, 33022, Note_on_c, 3, 58, 0
4, 33024, Note_on_c, 3, 58, 45
4, 33118, Note_on_c, 3, 58, 0
4, 33120, Note_on_c, 3, 58, 45
4, 33280, Note_on_c, 3, 58, 0
4, 33696, Note_on_c, 3, 69, 45
4, 33790, Note_on_c, 3, 69, 0
4, 33792, Note_on_c, 3, 69, 45
4, 33886, Note_on_c, 3, 69, 0
4, 33888, Note_on_c, 3, 69, 45
4, 33982, Note_on_c, 3, 69, 0
4, 33984, Note_on_c, 3, 69, 45
4, 34144, Note_on_c, 3, 69, 0
4, 35424, Note_on_c, 3, 55, 30
4, 35616, Note_on_c, 3, 55, 0
4, 35616, Note_on_c, 3, 53, 30
4, 35712, Note_on_c, 3, 53, 0
4, 35712, Note_on_c, 3, 52, 30
4, 35904, Note_on_c, 3, 52, 0
4, 35904, Note_on_c, 3, 50, 30
4, 36000, Note_on_c, 3, 50, 0
4, 36000, Note_on_c, 3, 48, 30
4, 36192, Note_on_c, 3, 48, 0
4, 36192, Note_on_c, 3, 52, 30
4, 36286, Note_on_c, 3, 52, 0
4, 36288, Note_on_c, 3, 53, 30
4, 36480, Note_on_c, 3, 53, 0
4, 36480, Note_on_c, 3, 58, 33
4, 36576, Note_on_c, 3, 58, 0
4, 36576, Note_on_c, 3, 57, 34
4, 36960, Note_on_c, 3, 57, 0
4, 36960, Note_on_c, 3, 62, 41
4, 37056, Note_on_c, 3, 62, 0
4, 37056, Note_on_c, 3, 64, 43
4, 37150, Note_on_c, 3, 64, 0
4, 37152, Note_on_c, 3, 62, 45
4, 37312, Note_on_c, 3, 62, 0
4, 37344, Note_on_c, 3, 62, 45
4, 37438, Note_on_c, 3, 62, 0
4, 37440, Note_on_c, 3, 60, 45
4, 37728, Note_on_c, 3, 60, 0
4, 37728, Note_on_c, 3, 58, 75
4, 37984, Note_on_c, 3, 58, 0
4, 38016, Note_on_c, 3, 57, 30
4, 38176, Note_on_c, 3, 57, 0
4, 38304, Note_on_c, 3, 57, 30
4, 38464, Note_on_c, 3, 57, 0
4, 38880, Note_on_c, 3, 60, 30
4, 39040, Note_on_c, 3, 60, 0
4, 39168, Note_on_c, 3, 72, 30
4, 39328, Note_on_c, 3, 72, 0
4, 39744, Note_on_c, 3, 60, 30
4, 39904, Note_on_c, 3, 60, 0
4, 40032, Note_on_c, 3, 72, 30
4, 40192, Note_on_c, 3, 72, 0
4, 40608, Note_on_c, 3, 50, 92
4, 40896, Note_on_c, 3, 50, 0
4, 40896, Note_on_c, 3, 55, 92
4, 41184, Note_on_c, 3, 55, 0
4, 41184, Note_on_c, 3, 57, 92
4, 41440, Note_on_c, 3, 57, 0
4, 41472, Note_on_c, 3, 58, 127
4, 41952, Note_on_c, 3, 58, 0
4, 41952, Note_on_c, 3, 57, 92
4, 42000, Note_on_c, 3, 57, 0
4, 42000, Note_on_c, 3, 55, 92
4, 42046, Note_on_c, 3, 55, 0
4, 42048, Note_on_c, 3, 55, 92
4, 42096, Note_on_c, 3, 55, 0
4, 42096, Note_on_c, 3, 57, 92
4, 42120, Note_on_c, 3, 57, 0
4, 42120, Note_on_c, 3, 55, 92
4, 42144, Note_on_c, 3, 55, 0
4, 42144, Note_on_c, 3, 54, 92
4, 42192, Note_on_c, 3, 54, 0
4, 42192, Note_on_c, 3, 55, 92
4, 42240, Note_on_c, 3, 55, 0
4, 42240, Note_on_c, 3, 58, 92
4, 42288, Note_on_c, 3, 58, 0
4, 42288, Note_on_c, 3, 57, 92
4, 42334, Note_on_c, 3, 57, 0
4, 42336, Note_on_c, 3, 55, 127
4, 42624, Note_on_c, 3, 55, 0
4, 42624, Note_on_c, 3, 54, 92
4, 43006, Note_on_c, 3, 54, 0
4, 43008, Note_on_c, 3, 54, 92
4, 43056, Note_on_c, 3, 54, 0
4, 43056, Note_on_c, 3, 55, 92
4, 43104, Note_on_c, 3, 55, 0
4, 43104, Note_on_c, 3, 57, 92
4, 43152, Note_on_c, 3, 57, 0
4, 43152, Note_on_c, 3, 58, 92
4, 43198, Note_on_c, 3, 58, 0
4, 43200, Note_on_c, 3, 60, 127
4, 43648, Note_on_c, 3, 60, 0
4, 43680, Note_on_c, 3, 62, 92
4, 43728, Note_on_c, 3, 62, 0
4, 43728, Note_on_c, 3, 60, 92
4, 43776, Note_on_c, 3, 60, 0
4, 43776, Note_on_c, 3, 59, 92
4, 43824, Note_on_c, 3, 59, 0
4, 43824, Note_on_c, 3, 60, 92
4, 43872, Note_on_c, 3, 60, 0
4, 43872, Note_on_c, 3, 62, 92
4, 43920, Note_on_c, 3, 62, 0
4, 43920, Note_on_c, 3, 60, 92
4, 43968, Note_on_c, 3, 60, 0
4, 43968, Note_on_c, 3, 63, 92
4, 44016, Note_on_c, 3, 63, 0
4, 44016, Note_on_c, 3, 62, 92
4, 44062, Note_on_c, 3, 62, 0
4, 44064, Note_on_c, 3, 60, 127
4, 44352, Note_on_c, 3, 60, 0
4, 44352, Note_on_c, 3, 59, 92
4, 44734, Note_on_c, 3, 59, 0
4, 44736, Note_on_c, 3, 59, 92
4, 44784, Note_on_c, 3, 59, 0
4, 44784, Note_on_c, 3, 60, 92
4, 44832, Note_on_c, 3, 60, 0
4, 44832, Note_on_c, 3, 62, 92
4, 44880, Note_on_c, 3, 62, 0
4, 44880, Note_on_c, 3, 63, 92
4, 44926, Note_on_c, 3, 63, 0
4, 44928, Note_on_c, 3, 65, 92
4, 45310, Note_on_c, 3, 65, 0
4, 45312, Note_on_c, 3, 65, 98
4, 45360, Note_on_c, 3, 65, 0
4, 45360, Note_on_c, 3, 62, 99
4, 45408, Note_on_c, 3, 62, 0
4, 45408, Note_on_c, 3, 59, 100
4, 45456, Note_on_c, 3, 59, 0
4, 45456, Note_on_c, 3, 55, 101
4, 45504, Note_on_c, 3, 55, 0
4, 45504, Note_on_c, 3, 54, 102
4, 45552, Note_on_c, 3, 54, 0
4, 45552, Note_on_c, 3, 55, 103
4, 45600, Note_on_c, 3, 55, 0
4, 45600, Note_on_c, 3, 56, 104
4, 45648, Note_on_c, 3, 56, 0
4, 45648, Note_on_c, 3, 55, 105
4, 45696, Note_on_c, 3, 55, 0
4, 45696, Note_on_c, 3, 53, 106
4, 45744, Note_on_c, 3, 53, 0
4, 45744, Note_on_c, 3, 50, 107
4, 45790, Note_on_c, 3, 50, 0
4, 45792, Note_on_c, 3, 51, 30
4, 45952, Note_on_c, 3, 51, 0
4, 46656, Note_on_c, 3, 51, 30
4, 46944, Note_on_c, 3, 51, 0
4, 46944, Note_on_c, 3, 56, 30
4, 47232, Note_on_c, 3, 56, 0
4, 47232, Note_on_c, 3, 58, 30
4, 47488, Note_on_c, 3, 58, 0
4, 47520, Note_on_c, 3, 60, 45
4, 47680, Note_on_c, 3, 60, 0
4, 48384, Note_on_c, 3, 50, 30
4, 48672, Note_on_c, 3, 50, 0
4, 48672, Note_on_c, 3, 55, 30
4, 48960, Note_on_c, 3, 55, 0
4, 48960, Note_on_c, 3, 57, 30
4, 49216, Note_on_c, 3, 57, 0
4, 49248, Note_on_c, 3, 58, 30
4, 49536, Note_on_c, 3, 58, 0
4, 49536, Note_on_c, 3, 63, 50
4, 49824, Note_on_c, 3, 63, 0
4, 49824, Note_on_c, 3, 62, 71
4, 50080, Note_on_c, 3, 62, 0
4, 50112, Note_on_c, 3, 61, 92
4, 50112, Note_on_c, 3, 64, 92
4, 50272, Note_on_c, 3, 64, 0
4, 50272, Note_on_c, 3, 61, 0
4, 50976, Note_on_c, 3, 62, 45
4, 51136, Note_on_c, 3, 62, 0
4, 51840, Note_on_c, 3, 58, 30
4, 52000, Note_on_c, 3, 58, 0
4, 52704, Note_on_c, 3, 55, 10
4, 52864, Note_on_c, 3, 55, 0
4, 53568, Note_on_c, 3, 53, 30
4, 53636, Note_on_c, 3, 53, 0
4, 53664, Note_on_c, 3, 53, 30
4, 53732, Note_on_c, 3, 53, 0
4, 53760, Note_on_c, 3, 53, 30
4, 53792, Note_on_c, 3, 53, 0
4, 53856, Note_on_c, 3, 57, 30
4, 53950, Note_on_c, 3, 57, 0
4, 53952, Note_on_c, 3, 57, 30
4, 54046, Note_on_c, 3, 57, 0
4, 54048, Note_on_c, 3, 57, 30
4, 54142, Note_on_c, 3, 57, 0
4, 54144, Note_on_c, 3, 55, 30
4, 54238, Note_on_c, 3, 55, 0
4, 54240, Note_on_c, 3, 55, 30
4, 54334, Note_on_c, 3, 55, 0
4, 54336, Note_on_c, 3, 55, 30
4, 54430, Note_on_c, 3, 55, 0
4, 54432, Note_on_c, 3, 53, 30
4, 54526, Note_on_c, 3, 53, 0
4, 54528, Note_on_c, 3, 53, 31
4, 54622, Note_on_c, 3, 53, 0
4, 54624, Note_on_c, 3, 53, 32
4, 54718, Note_on_c, 3, 53, 0
4, 54720, Note_on_c, 3, 57, 33
4, 54814, Note_on_c, 3, 57, 0
4, 54816, Note_on_c, 3, 57, 34
4, 54910, Note_on_c, 3, 57, 0
4, 54912, Note_on_c, 3, 57, 35
4, 55006, Note_on_c, 3, 57, 0
4, 55008, Note_on_c, 3, 55, 36
4, 55102, Note_on_c, 3, 55, 0
4, 55104, Note_on_c, 3, 55, 38
4, 55198, Note_on_c, 3, 55, 0
4, 55200, Note_on_c, 3, 55, 40
4, 55294, Note_on_c, 3, 55, 0
4, 55296, Note_on_c, 3, 53, 42
4, 55390, Note_on_c, 3, 53, 0
4, 55392, Note_on_c, 3, 53, 44
4, 55486, Note_on_c, 3, 53, 0
4, 55488, Note_on_c, 3, 53, 46
4, 55582, Note_on_c, 3, 53, 0
4, 55584, Note_on_c, 3, 57, 48
4, 55678, Note_on_c, 3, 57, 0
4, 55680, Note_on_c, 3, 57, 50
4, 55774, Note_on_c, 3, 57, 0
4, 55776, Note_on_c, 3, 57, 52
4, 55870, Note_on_c, 3, 57, 0
4, 55872, Note_on_c, 3, 61, 54
4, 55966, Note_on_c, 3, 61, 0
4, 55968, Note_on_c, 3, 61, 56
4, 56062, Note_on_c, 3, 61, 0
4, 56064, Note_on_c, 3, 61, 58
4, 56158, Note_on_c, 3, 61, 0
4, 56208, Note_on_c, 3, 53, 45
4, 56256, Note_on_c, 3, 53, 0
4, 56256, Note_on_c, 3, 57, 45
4, 56304, Note_on_c, 3, 57, 0
4, 56304, Note_on_c, 3, 53, 45
4, 56352, Note_on_c, 3, 53, 0
4, 56352, Note_on_c, 3, 57, 45
4, 56400, Note_on_c, 3, 57, 0
4, 56400, Note_on_c, 3, 53, 45
4, 56446, Note_on_c, 3, 53, 0
4, 56496, Note_on_c, 3, 53, 45
4, 56544, Note_on_c, 3, 53, 0
4, 56544, Note_on_c, 3, 57, 45
4, 56592, Note_on_c, 3, 57, 0
4, 56592, Note_on_c, 3, 53, 45
4, 56640, Note_on_c, 3, 53, 0
4, 56640, Note_on_c, 3, 57, 45
4, 56688, Note_on_c, 3, 57, 0
4, 56688, Note_on_c, 3, 53, 45
4, 56734, Note_on_c, 3, 53, 0
4, 56784, Note_on_c, 3, 53, 45
4, 56832, Note_on_c, 3, 53, 0
4, 56832, Note_on_c, 3, 58, 45
4, 56880, Note_on_c, 3, 58, 0
4, 56880, Note_on_c, 3, 53, 45
4, 56928, Note_on_c, 3, 53, 0
4, 56928, Note_on_c, 3, 58, 45
4, 56976, Note_on_c, 3, 58, 0
4, 56976, Note_on_c, 3, 53, 45
4, 57022, Note_on_c, 3, 53, 0
4, 57024, Note_on_c, 3, 55, 92
4, 57048, Note_on_c, 3, 55, 0
4, 57048, Note_on_c, 3, 54, 92
4, 57072, Note_on_c, 3, 54, 0
4, 57072, Note_on_c, 3, 55, 92
4, 57096, Note_on_c, 3, 55, 0
4, 57096, Note_on_c, 3, 54, 92
4, 57120, Note_on_c, 3, 54, 0
4, 57120, Note_on_c, 3, 55, 92
4, 57144, Note_on_c, 3, 55, 0
4, 57144, Note_on_c, 3, 54, 92
4, 57168, Note_on_c, 3, 54, 0
4, 57168, Note_on_c, 3, 55, 92
4, 57192, Note_on_c, 3, 55, 0
4, 57192, Note_on_c, 3, 57, 92
4, 57216, Note_on_c, 3, 57, 0
4, 57216, Note_on_c, 3, 58, 92
4, 57248, Note_on_c, 3, 58, 0
4, 57312, Note_on_c, 3, 55, 92
4, 57336, Note_on_c, 3, 55, 0
4, 57336, Note_on_c, 3, 54, 92
4, 57360, Note_on_c, 3, 54, 0
4, 57360, Note_on_c, 3, 55, 92
4, 57384, Note_on_c, 3, 55, 0
4, 57384, Note_on_c, 3, 54, 92
4, 57408, Note_on_c, 3, 54, 0
4, 57408, Note_on_c, 3, 55, 92
4, 57432, Note_on_c, 3, 55, 0
4, 57432, Note_on_c, 3, 54, 92
4, 57456, Note_on_c, 3, 54, 0
4, 57456, Note_on_c, 3, 55, 92
4, 57480, Note_on_c, 3, 55, 0
4, 57480, Note_on_c, 3, 57, 92
4, 57504, Note_on_c, 3, 57, 0
4, 57504, Note_on_c, 3, 58, 92
4, 57536, Note_on_c, 3, 58, 0
4, 57600, Note_on_c, 3, 55, 92
4, 57624, Note_on_c, 3, 55, 0
4, 57624, Note_on_c, 3, 54, 92
4, 57648, Note_on_c, 3, 54, 0
4, 57648, Note_on_c, 3, 55, 92
4, 57672, Note_on_c, 3, 55, 0
4, 57672, Note_on_c, 3, 57, 92
4, 57696, Note_on_c, 3, 57, 0
4, 57696, Note_on_c, 3, 58, 92
4, 57720, Note_on_c, 3, 58, 0
4, 57720, Note_on_c, 3, 57, 92
4, 57744, Note_on_c, 3, 57, 0
4, 57744, Note_on_c, 3, 58, 92
4, 57768, Note_on_c, 3, 58, 0
4, 57768, Note_on_c, 3, 57, 92
4, 57792, Note_on_c, 3, 57, 0
4, 57792, Note_on_c, 3, 55, 92
4, 57816, Note_on_c, 3, 55, 0
4, 57816, Note_on_c, 3, 53, 92
4, 57840, Note_on_c, 3, 53, 0
4, 57840, Note_on_c, 3, 52, 92
4, 57864, Note_on_c, 3, 52, 0
4, 57864, Note_on_c, 3, 50, 92
4, 57886, Note_on_c, 3, 50, 0
4, 57888, Note_on_c, 3, 48, 45
4, 57920, Note_on_c, 3, 48, 0
4, 57936, Note_on_c, 3, 52, 45
4, 57984, Note_on_c, 3, 52, 0
4, 57984, Note_on_c, 3, 55, 45
4, 58032, Note_on_c, 3, 55, 0
4, 58032, Note_on_c, 3, 52, 45
4, 58080, Note_on_c, 3, 52, 0
4, 58080, Note_on_c, 3, 55, 45
4, 58128, Note_on_c, 3, 55, 0
4, 58128, Note_on_c, 3, 52, 45
4, 58174, Note_on_c, 3, 52, 0
4, 58224, Note_on_c, 3, 52, 45
4, 58272, Note_on_c, 3, 52, 0
4, 58272, Note_on_c, 3, 55, 45
4, 58320, Note_on_c, 3, 55, 0
4, 58320, Note_on_c, 3, 52, 45
4, 58368, Note_on_c, 3, 52, 0
4, 58368, Note_on_c, 3, 55, 45
4, 58416, Note_on_c, 3, 55, 0
4, 58416, Note_on_c, 3, 52, 45
4, 58462, Note_on_c, 3, 52, 0
4, 58512, Note_on_c, 3, 52, 45
4, 58560, Note_on_c, 3, 52, 0
4, 58560, Note_on_c, 3, 55, 45
4, 58608, Note_on_c, 3, 55, 0
4, 58608, Note_on_c, 3, 52, 45
4, 58656, Note_on_c, 3, 52, 0
4, 58656, Note_on_c, 3, 55, 45
4, 58704, Note_on_c, 3, 55, 0
4, 58704, Note_on_c, 3, 52, 45
4, 58750, Note_on_c, 3, 52, 0
4, 58752, Note_on_c, 3, 57, 92
4, 58776, Note_on_c, 3, 57, 0
4, 58776, Note_on_c, 3, 56, 92
4, 58800, Note_on_c, 3, 56, 0
4, 58800, Note_on_c, 3, 57, 92
4, 58824, Note_on_c, 3, 57, 0
4, 58824, Note_on_c, 3, 56, 92
4, 58848, Note_on_c, 3, 56, 0
4, 58848, Note_on_c, 3, 57, 92
4, 58872, Note_on_c, 3, 57, 0
4, 58872, Note_on_c, 3, 55, 92
4, 58896, Note_on_c, 3, 55, 0
4, 58896, Note_on_c, 3, 53, 92
4, 58920, Note_on_c, 3, 53, 0
4, 58920, Note_on_c, 3, 52, 92
4, 58944, Note_on_c, 3, 52, 0
4, 58944, Note_on_c, 3, 50, 92
4, 58976, Note_on_c, 3, 50, 0
4, 59040, Note_on_c, 3, 57, 92
4, 59064, Note_on_c, 3, 57, 0
4, 59064, Note_on_c, 3, 56, 92
4, 59088, Note_on_c, 3, 56, 0
4, 59088, Note_on_c, 3, 57, 92
4, 59112, Note_on_c, 3, 57, 0
4, 59112, Note_on_c, 3, 56, 92
4, 59136, Note_on_c, 3, 56, 0
4, 59136, Note_on_c, 3, 57, 92
4, 59160, Note_on_c, 3, 57, 0
4, 59160, Note_on_c, 3, 55, 92
4, 59184, Note_on_c, 3, 55, 0
4, 59184, Note_on_c, 3, 53, 92
4, 59208, Note_on_c, 3, 53, 0
4, 59208, Note_on_c, 3, 52, 92
4, 59232, Note_on_c, 3, 52, 0
4, 59232, Note_on_c, 3, 50, 92
4, 59264, Note_on_c, 3, 50, 0
4, 59328, Note_on_c, 3, 57, 92
4, 59352, Note_on_c, 3, 57, 0
4, 59352, Note_on_c, 3, 56, 92
4, 59376, Note_on_c, 3, 56, 0
4, 59376, Note_on_c, 3, 57, 92
4, 59400, Note_on_c, 3, 57, 0
4, 59400, Note_on_c, 3, 56, 92
4, 59424, Note_on_c, 3, 56, 0
4, 59424, Note_on_c, 3, 57, 92
4, 59448, Note_on_c, 3, 57, 0
4, 59448, Note_on_c, 3, 55, 92
4, 59472, Note_on_c, 3, 55, 0
4, 59472, Note_on_c, 3, 53, 92
4, 59496, Note_on_c, 3, 53, 0
4, 59496, Note_on_c, 3, 52, 92
4, 59520, Note_on_c, 3, 52, 0
4, 59520, Note_on_c, 3, 50, 92
4, 59552, Note_on_c, 3, 50, 0
4, 59664, Note_on_c, 3, 58, 45
4, 59712, Note_on_c, 3, 58, 0
4, 59712, Note_on_c, 3, 62, 45
4, 59760, Note_on_c, 3, 62, 0
4, 59760, Note_on_c, 3, 58, 45
4, 59808, Note_on_c, 3, 58, 0
4, 59808, Note_on_c, 3, 62, 45
4, 59856, Note_on_c, 3, 62, 0
4, 59856, Note_on_c, 3, 58, 45
4, 59902, Note_on_c, 3, 58, 0
4, 59952, Note_on_c, 3, 58, 45
4, 60000, Note_on_c, 3, 58, 0
4, 60000, Note_on_c, 3, 62, 45
4, 60048, Note_on_c, 3, 62, 0
4, 60048, Note_on_c, 3, 58, 45
4, 60096, Note_on_c, 3, 58, 0
4, 60096, Note_on_c, 3, 62, 45
4, 60144, Note_on_c, 3, 62, 0
4, 60144, Note_on_c, 3, 58, 45
4, 60190, Note_on_c, 3, 58, 0
4, 60240, Note_on_c, 3, 59, 45
4, 60288, Note_on_c, 3, 59, 0
4, 60288, Note_on_c, 3, 62, 45
4, 60336, Note_on_c, 3, 62, 0
4, 60336, Note_on_c, 3, 59, 45
4, 60384, Note_on_c, 3, 59, 0
4, 60384, Note_on_c, 3, 62, 45
4, 60432, Note_on_c, 3, 62, 0
4, 60432, Note_on_c, 3, 59, 45
4, 60478, Note_on_c, 3, 59, 0
4, 60480, Note_on_c, 3, 52, 45
4, 60574, Note_on_c, 3, 52, 0
4, 60576, Note_on_c, 3, 57, 45
4, 60644, Note_on_c, 3, 57, 0
4, 60672, Note_on_c, 3, 57, 45
4, 60704, Note_on_c, 3, 57, 0
4, 60768, Note_on_c, 3, 57, 45
4, 61152, Note_on_c, 3, 57, 0
4, 61152, Note_on_c, 3, 58, 45
4, 61248, Note_on_c, 3, 58, 0
4, 61248, Note_on_c, 3, 59, 45
4, 61342, Note_on_c, 3, 59, 0
4, 61344, Note_on_c, 3, 52, 45
4, 61726, Note_on_c, 3, 52, 0
4, 61728, Note_on_c, 3, 57, 55
4, 61796, Note_on_c, 3, 57, 0
4, 61824, Note_on_c, 3, 57, 65
4, 61856, Note_on_c, 3, 57, 0
4, 61920, Note_on_c, 3, 57, 75
4, 62016, Note_on_c, 3, 57, 0
4, 62016, Note_on_c, 3, 58, 65
4, 62112, Note_on_c, 3, 58, 0
4, 62112, Note_on_c, 3, 59, 55
4, 62206, Note_on_c, 3, 59, 0
4, 62208, Note_on_c, 3, 52, 45
4, 62368, Note_on_c, 3, 52, 0
4, 62784, Note_on_c, 3, 62, 30
4, 63072, Note_on_c, 3, 62, 0
4, 63072, Note_on_c, 3, 61, 30
4, 63232, Note_on_c, 3, 61, 0
4, 63648, Note_on_c, 3, 58, 84
4, 63936, Note_on_c, 3, 58, 0
4, 63936, Note_on_c, 3, 57, 60
4, 64032, Note_on_c, 3, 57, 0
4, 64032, Note_on_c, 3, 61, 61
4, 64128, Note_on_c, 3, 61, 0
4, 64128, Note_on_c, 3, 64, 62
4, 64222, Note_on_c, 3, 64, 0
4, 64224, Note_on_c, 3, 69, 63
4, 64606, Note_on_c, 3, 69, 0
4, 64608, Note_on_c, 3, 69, 71
4, 64702, Note_on_c, 3, 69, 0
4, 64704, Note_on_c, 3, 69, 73
4, 64798, Note_on_c, 3, 69, 0
4, 64800, Note_on_c, 3, 69, 45
4, 65088, Note_on_c, 3, 69, 0
4, 65088, Note_on_c, 3, 67, 45
4, 65376, Note_on_c, 3, 67, 0
4, 65376, Note_on_c, 3, 66, 45
4, 65472, Note_on_c, 3, 66, 0
4, 65472, Note_on_c, 3, 67, 45
4, 65484, Note_on_c, 3, 67, 0
4, 65484, Note_on_c, 3, 66, 45
4, 65520, Note_on_c, 3, 66, 0
4, 65520, Note_on_c, 3, 64, 45
4, 65568, Note_on_c, 3, 64, 0
4, 65568, Note_on_c, 3, 66, 45
4, 65616, Note_on_c, 3, 66, 0
4, 65616, Note_on_c, 3, 67, 45
4, 65662, Note_on_c, 3, 67, 0
4, 65664, Note_on_c, 3, 64, 45
4, 65824, Note_on_c, 3, 64, 0
4, 66528, Note_on_c, 3, 69, 45
4, 66624, Note_on_c, 3, 69, 0
4, 66624, Note_on_c, 3, 74, 45
4, 66672, Note_on_c, 3, 74, 0
4, 66672, Note_on_c, 3, 73, 45
4, 66720, Note_on_c, 3, 73, 0
4, 66720, Note_on_c, 3, 71, 45
4, 66768, Note_on_c, 3, 71, 0
4, 66768, Note_on_c, 3, 69, 45
4, 66814, Note_on_c, 3, 69, 0
4, 66816, Note_on_c, 3, 69, 45
4, 66864, Note_on_c, 3, 69, 0
4, 66864, Note_on_c, 3, 67, 45
4, 66912, Note_on_c, 3, 67, 0
4, 66912, Note_on_c, 3, 76, 45
4, 66960, Note_on_c, 3, 76, 0
4, 66960, Note_on_c, 3, 73, 45
4, 67008, Note_on_c, 3, 73, 0
4, 67008, Note_on_c, 3, 69, 45
4, 67056, Note_on_c, 3, 69, 0
4, 67056, Note_on_c, 3, 67, 45
4, 67102, Note_on_c, 3, 67, 0
4, 67104, Note_on_c, 3, 67, 45
4, 67152, Note_on_c, 3, 67, 0
4, 67152, Note_on_c, 3, 66, 45
4, 67200, Note_on_c, 3, 66, 0
4, 67200, Note_on_c, 3, 74, 45
4, 67248, Note_on_c, 3, 74, 0
4, 67248, Note_on_c, 3, 69, 45
4, 67296, Note_on_c, 3, 69, 0
4, 67296, Note_on_c, 3, 67, 45
4, 67344, Note_on_c, 3, 67, 0
4, 67344, Note_on_c, 3, 66, 45
4, 67390, Note_on_c, 3, 66, 0
4, 67392, Note_on_c, 3, 64, 45
4, 67680, Note_on_c, 3, 64, 0
4, 67680, Note_on_c, 3, 66, 45
4, 67968, Note_on_c, 3, 66, 0
4, 67968, Note_on_c, 3, 67, 45
4, 68224, Note_on_c, 3, 67, 0
4, 68256, Note_on_c, 3, 66, 45
4, 68416, Note_on_c, 3, 66, 0
4, 69120, Note_on_c, 3, 54, 60
4, 69600, Note_on_c, 3, 54, 0
4, 69600, Note_on_c, 3, 59, 45
4, 69744, Note_on_c, 3, 59, 0
4, 69744, Note_on_c, 3, 57, 45
4, 69792, Note_on_c, 3, 57, 0
4, 69792, Note_on_c, 3, 55, 45
4, 69840, Note_on_c, 3, 55, 0
4, 69840, Note_on_c, 3, 54, 45
4, 69888, Note_on_c, 3, 54, 0
4, 69888, Note_on_c, 3, 52, 45
4, 69936, Note_on_c, 3, 52, 0
4, 69936, Note_on_c, 3, 50, 45
4, 69982, Note_on_c, 3, 50, 0
4, 69984, Note_on_c, 3, 49, 45
4, 70032, Note_on_c, 3, 49, 0
4, 70032, Note_on_c, 3, 50, 46
4, 70080, Note_on_c, 3, 50, 0
4, 70080, Note_on_c, 3, 52, 47
4, 70128, Note_on_c, 3, 52, 0
4, 70128, Note_on_c, 3, 50, 48
4, 70176, Note_on_c, 3, 50, 0
4, 70176, Note_on_c, 3, 49, 49
4, 70224, Note_on_c, 3, 49, 0
4, 70224, Note_on_c, 3, 50, 50
4, 70272, Note_on_c, 3, 50, 0
4, 70272, Note_on_c, 3, 52, 51
4, 70320, Note_on_c, 3, 52, 0
4, 70320, Note_on_c, 3, 50, 52
4, 70368, Note_on_c, 3, 50, 0
4, 70368, Note_on_c, 3, 49, 53
4, 70416, Note_on_c, 3, 49, 0
4, 70416, Note_on_c, 3, 50, 54
4, 70464, Note_on_c, 3, 50, 0
4, 70464, Note_on_c, 3, 52, 55
4, 70512, Note_on_c, 3, 52, 0
4, 70512, Note_on_c, 3, 49, 56
4, 70560, Note_on_c, 3, 49, 0
4, 70560, Note_on_c, 3, 50, 57
4, 70608, Note_on_c, 3, 50, 0
4, 70608, Note_on_c, 3, 49, 58
4, 70656, Note_on_c, 3, 49, 0
4, 70656, Note_on_c, 3, 50, 59
4, 70704, Note_on_c, 3, 50, 0
4, 70704, Note_on_c, 3, 52, 60
4, 70752, Note_on_c, 3, 52, 0
4, 70752, Note_on_c, 3, 53, 61
4, 70800, Note_on_c, 3, 53, 0
4, 70800, Note_on_c, 3, 50, 62
4, 70846, Note_on_c, 3, 50, 0
4, 70848, Note_on_c, 3, 55, 63
4, 71104, Note_on_c, 3, 55, 0
4, 71136, Note_on_c, 3, 50, 105
4, 71184, Note_on_c, 3, 50, 0
4, 71184, Note_on_c, 3, 48, 73
4, 71232, Note_on_c, 3, 48, 0
4, 71232, Note_on_c, 3, 50, 71
4, 71280, Note_on_c, 3, 50, 0
4, 71280, Note_on_c, 3, 48, 69
4, 71328, Note_on_c, 3, 48, 0
4, 71328, Note_on_c, 3, 50, 67
4, 71376, Note_on_c, 3, 50, 0
4, 71376, Note_on_c, 3, 53, 65
4, 71422, Note_on_c, 3, 53, 0
4, 71424, Note_on_c, 3, 57, 63
4, 71616, Note_on_c, 3, 57, 0
4, 71616, Note_on_c, 3, 69, 51
4, 71710, Note_on_c, 3, 69, 0
4, 71712, Note_on_c, 3, 69, 45
4, 71760, Note_on_c, 3, 69, 0
4, 71760, Note_on_c, 3, 68, 45
4, 71808, Note_on_c, 3, 68, 0
4, 71808, Note_on_c, 3, 69, 45
4, 71856, Note_on_c, 3, 69, 0
4, 71856, Note_on_c, 3, 67, 45
4, 71904, Note_on_c, 3, 67, 0
4, 71904, Note_on_c, 3, 66, 45
4, 71952, Note_on_c, 3, 66, 0
4, 71952, Note_on_c, 3, 64, 45
4, 72000, Note_on_c, 3, 64, 0
4, 72000, Note_on_c, 3, 62, 45
4, 72048, Note_on_c, 3, 62, 0
4, 72048, Note_on_c, 3, 61, 45
4, 72096, Note_on_c, 3, 61, 0
4, 72096, Note_on_c, 3, 62, 45
4, 72144, Note_on_c, 3, 62, 0
4, 72144, Note_on_c, 3, 60, 45
4, 72192, Note_on_c, 3, 60, 0
4, 72192, Note_on_c, 3, 59, 45
4, 72240, Note_on_c, 3, 59, 0
4, 72240, Note_on_c, 3, 57, 45
4, 72286, Note_on_c, 3, 57, 0
4, 72288, Note_on_c, 3, 55, 45
4, 72480, Note_on_c, 3, 55, 0
4, 72480, Note_on_c, 3, 57, 45
4, 72528, Note_on_c, 3, 57, 0
4, 72528, Note_on_c, 3, 59, 45
4, 72574, Note_on_c, 3, 59, 0
4, 72576, Note_on_c, 3, 60, 45
4, 73246, Note_on_c, 3, 60, 0
4, 73248, Note_on_c, 3, 60, 45
4, 73280, Note_on_c, 3, 60, 0
4, 73344, Note_on_c, 3, 60, 45
4, 73376, Note_on_c, 3, 60, 0
4, 73440, Note_on_c, 3, 58, 45
4, 73582, Note_on_c, 3, 58, 0
4, 73584, Note_on_c, 3, 62, 45
4, 73632, Note_on_c, 3, 62, 0
4, 73632, Note_on_c, 3, 64, 46
4, 73680, Note_on_c, 3, 64, 0
4, 73680, Note_on_c, 3, 65, 47
4, 73726, Note_on_c, 3, 65, 0
4, 73728, Note_on_c, 3, 64, 48
4, 74016, Note_on_c, 3, 64, 0
4, 74016, Note_on_c, 3, 62, 57
4, 74272, Note_on_c, 3, 62, 0
4, 74304, Note_on_c, 3, 55, 66
4, 74560, Note_on_c, 3, 55, 0
4, 74592, Note_on_c, 3, 50, 105
4, 74640, Note_on_c, 3, 50, 0
4, 74640, Note_on_c, 3, 49, 73
4, 74688, Note_on_c, 3, 49, 0
4, 74688, Note_on_c, 3, 50, 71
4, 74736, Note_on_c, 3, 50, 0
4, 74736, Note_on_c, 3, 49, 69
4, 74784, Note_on_c, 3, 49, 0
4, 74784, Note_on_c, 3, 50, 67
4, 74832, Note_on_c, 3, 50, 0
4, 74832, Note_on_c, 3, 53, 65
4, 74878, Note_on_c, 3, 53, 0
4, 74880, Note_on_c, 3, 57, 63
4, 75040, Note_on_c, 3, 57, 0
4, 75072, Note_on_c, 3, 57, 51
4, 75166, Note_on_c, 3, 57, 0
4, 75168, Note_on_c, 3, 69, 45
4, 75424, Note_on_c, 3, 69, 0
4, 75456, Note_on_c, 3, 68, 45
4, 75504, Note_on_c, 3, 68, 0
4, 75504, Note_on_c, 3, 69, 45
4, 75550, Note_on_c, 3, 69, 0
4, 75552, Note_on_c, 3, 71, 45
4, 75600, Note_on_c, 3, 71, 0
4, 75600, Note_on_c, 3, 69, 45
4, 75646, Note_on_c, 3, 69, 0
4, 75648, Note_on_c, 3, 65, 45
4, 75696, Note_on_c, 3, 65, 0
4, 75696, Note_on_c, 3, 66, 45
4, 75742, Note_on_c, 3, 66, 0
4, 75744, Note_on_c, 3, 67, 45
4, 75792, Note_on_c, 3, 67, 0
4, 75792, Note_on_c, 3, 66, 45
4, 75838, Note_on_c, 3, 66, 0
4, 75840, Note_on_c, 3, 61, 45
4, 75888, Note_on_c, 3, 61, 0
4, 75888, Note_on_c, 3, 62, 45
4, 75934, Note_on_c, 3, 62, 0
4, 75936, Note_on_c, 3, 64, 45
4, 75984, Note_on_c, 3, 64, 0
4, 75984, Note_on_c, 3, 62, 45
4, 76030, Note_on_c, 3, 62, 0
4, 76032, Note_on_c, 3, 61, 45
4, 76126, Note_on_c, 3, 61, 0
4, 76128, Note_on_c, 3, 61, 45
4, 76222, Note_on_c, 3, 61, 0
4, 76224, Note_on_c, 3, 61, 45
4, 76318, Note_on_c, 3, 61, 0
4, 76320, Note_on_c, 3, 61, 45
4, 76480, Note_on_c, 3, 61, 0
4, 76896, Note_on_c, 3, 66, 45
4, 76990, Note_on_c, 3, 66, 0
4, 76992, Note_on_c, 3, 66, 45
4, 77086, Note_on_c, 3, 66, 0
4, 77088, Note_on_c, 3, 66, 45
4, 77182, Note_on_c, 3, 66, 0
4, 77184, Note_on_c, 3, 66, 45
4, 77344, Note_on_c, 3, 66, 0
4, 78624, Note_on_c, 3, 64, 30
4, 78816, Note_on_c, 3, 64, 0
4, 78816, Note_on_c, 3, 62, 30
4, 78912, Note_on_c, 3, 62, 0
4, 78912, Note_on_c, 3, 61, 30
4, 79104, Note_on_c, 3, 61, 0
4, 79104, Note_on_c, 3, 59, 30
4, 79200, Note_on_c, 3, 59, 0
4, 79200, Note_on_c, 3, 57, 30
4, 79392, Note_on_c, 3, 57, 0
4, 79392, Note_on_c, 3, 52, 30
4, 79486, Note_on_c, 3, 52, 0
4, 79488, Note_on_c, 3, 50, 30
4, 79680, Note_on_c, 3, 50, 0
4, 79680, Note_on_c, 3, 55, 34
4, 79774, Note_on_c, 3, 55, 0
4, 79776, Note_on_c, 3, 54, 36
4, 80160, Note_on_c, 3, 54, 0
4, 80160, Note_on_c, 3, 59, 44
4, 80256, Note_on_c, 3, 59, 0
4, 80256, Note_on_c, 3, 61, 46
4, 80350, Note_on_c, 3, 61, 0
4, 80352, Note_on_c, 3, 59, 48
4, 80512, Note_on_c, 3, 59, 0
4, 80544, Note_on_c, 3, 59, 52
4, 80638, Note_on_c, 3, 59, 0
4, 80640, Note_on_c, 3, 57, 54
4, 80928, Note_on_c, 3, 57, 0
4, 80928, Note_on_c, 3, 55, 60
4, 81184, Note_on_c, 3, 55, 0
4, 81216, Note_on_c, 3, 50, 30
4, 81262, Note_on_c, 3, 50, 0
4, 81264, Note_on_c, 3, 50, 30
4, 81310, Note_on_c, 3, 50, 0
4, 81312, Note_on_c, 3, 50, 30
4, 81358, Note_on_c, 3, 50, 0
4, 81360, Note_on_c, 3, 50, 30
4, 81406, Note_on_c, 3, 50, 0
4, 81408, Note_on_c, 3, 50, 30
4, 81454, Note_on_c, 3, 50, 0
4, 81456, Note_on_c, 3, 50, 30
4, 81502, Note_on_c, 3, 50, 0
4, 81504, Note_on_c, 3, 53, 30
4, 81550, Note_on_c, 3, 53, 0
4, 81552, Note_on_c, 3, 53, 30
4, 81598, Note_on_c, 3, 53, 0
4, 81600, Note_on_c, 3, 53, 30
4, 81646, Note_on_c, 3, 53, 0
4, 81648, Note_on_c, 3, 53, 30
4, 81694, Note_on_c, 3, 53, 0
4, 81696, Note_on_c, 3, 53, 30
4, 81742, Note_on_c, 3, 53, 0
4, 81744, Note_on_c, 3, 53, 30
4, 81790, Note_on_c, 3, 53, 0
4, 81792, Note_on_c, 3, 52, 30
4, 81792, Note_on_c, 3, 55, 30
4, 81838, Note_on_c, 3, 55, 0
4, 81838, Note_on_c, 3, 52, 0
4, 81840, Note_on_c, 3, 52, 30
4, 81840, Note_on_c, 3, 55, 30
4, 81886, Note_on_c, 3, 55, 0
4, 81886, Note_on_c, 3, 52, 0
4, 81888, Note_on_c, 3, 52, 30
4, 81888, Note_on_c, 3, 55, 30
4, 81934, Note_on_c, 3, 55, 0
4, 81934, Note_on_c, 3, 52, 0
4, 81936, Note_on_c, 3, 52, 30
4, 81936, Note_on_c, 3, 55, 30
4, 81982, Note_on_c, 3, 55, 0
4, 81982, Note_on_c, 3, 52, 0
4, 81984, Note_on_c, 3, 52, 30
4, 81984, Note_on_c, 3, 55, 30
4, 82030, Note_on_c, 3, 55, 0
4, 82030, Note_on_c, 3, 52, 0
4, 82032, Note_on_c, 3, 52, 30
4, 82032, Note_on_c, 3, 55, 30
4, 82078, Note_on_c, 3, 55, 0
4, 82078, Note_on_c, 3, 52, 0
4, 82080, Note_on_c, 3, 50, 45
4, 82126, Note_on_c, 3, 50, 0
4, 82128, Note_on_c, 3, 50, 45
4, 82174, Note_on_c, 3, 50, 0
4, 82176, Note_on_c, 3, 50, 45
4, 82222, Note_on_c, 3, 50, 0
4, 82224, Note_on_c, 3, 50, 45
4, 82270, Note_on_c, 3, 50, 0
4, 82272, Note_on_c, 3, 50, 45
4, 82318, Note_on_c, 3, 50, 0
4, 82320, Note_on_c, 3, 50, 45
4, 82366, Note_on_c, 3, 50, 0
4, 82368, Note_on_c, 3, 53, 45
4, 82414, Note_on_c, 3, 53, 0
4, 82416, Note_on_c, 3, 53, 45
4, 82462, Note_on_c, 3, 53, 0
4, 82464, Note_on_c, 3, 53, 45
4, 82510, Note_on_c, 3, 53, 0
4, 82512, Note_on_c, 3, 53, 45
4, 82558, Note_on_c, 3, 53, 0
4, 82560, Note_on_c, 3, 53, 45
4, 82606, Note_on_c, 3, 53, 0
4, 82608, Note_on_c, 3, 53, 45
4, 82654, Note_on_c, 3, 53, 0
4, 82656, Note_on_c, 3, 52, 45
4, 82656, Note_on_c, 3, 55, 45
4, 82702, Note_on_c, 3, 55, 0
4, 82702, Note_on_c, 3, 52, 0
4, 82704, Note_on_c, 3, 52, 47
4, 82704, Note_on_c, 3, 55, 47
4, 82750, Note_on_c, 3, 55, 0
4, 82750, Note_on_c, 3, 52, 0
4, 82752, Note_on_c, 3, 52, 49
4, 82752, Note_on_c, 3, 55, 49
4, 82798, Note_on_c, 3, 55, 0
4, 82798, Note_on_c, 3, 52, 0
4, 82800, Note_on_c, 3, 52, 51
4, 82800, Note_on_c, 3, 55, 51
4, 82846, Note_on_c, 3, 55, 0
4, 82846, Note_on_c, 3, 52, 0
4, 82848, Note_on_c, 3, 52, 53
4, 82848, Note_on_c, 3, 55, 53
4, 82894, Note_on_c, 3, 55, 0
4, 82894, Note_on_c, 3, 52, 0
4, 82896, Note_on_c, 3, 52, 55
4, 82896, Note_on_c, 3, 55, 55
4, 82942, Note_on_c, 3, 55, 0
4, 82942, Note_on_c, 3, 52, 0
4, 82944, Note_on_c, 3, 50, 57
4, 82990, Note_on_c, 3, 50, 0
4, 82992, Note_on_c, 3, 50, 59
4, 83038, Note_on_c, 3, 50, 0
4, 83040, Note_on_c, 3, 50, 61
4, 83086, Note_on_c, 3, 50, 0
4, 83088, Note_on_c, 3, 50, 63
4, 83134, Note_on_c, 3, 50, 0
4, 83136, Note_on_c, 3, 50, 66
4, 83182, Note_on_c, 3, 50, 0
4, 83184, Note_on_c, 3, 50, 69
4, 83230, Note_on_c, 3, 50, 0
4, 83232, Note_on_c, 3, 53, 72
4, 83278, Note_on_c, 3, 53, 0
4, 83280, Note_on_c, 3, 53, 75
4, 83326, Note_on_c, 3, 53, 0
4, 83328, Note_on_c, 3, 53, 78
4, 83374, Note_on_c, 3, 53, 0
4, 83376, Note_on_c, 3, 53, 81
4, 83422, Note_on_c, 3, 53, 0
4, 83424, Note_on_c, 3, 53, 84
4, 83470, Note_on_c, 3, 53, 0
4, 83472, Note_on_c, 3, 53, 87
4, 83518, Note_on_c, 3, 53, 0
4, 83520, Note_on_c, 3, 57, 90
4, 83566, Note_on_c, 3, 57, 0
4, 83568, Note_on_c, 3, 57, 93
4, 83614, Note_on_c, 3, 57, 0
4, 83616, Note_on_c, 3, 57, 96
4, 83662, Note_on_c, 3, 57, 0
4, 83664, Note_on_c, 3, 57, 99
4, 83710, Note_on_c, 3, 57, 0
4, 83712, Note_on_c, 3, 57, 102
4, 83758, Note_on_c, 3, 57, 0
4, 83760, Note_on_c, 3, 57, 105
4, 83806, Note_on_c, 3, 57, 0
4, 83808, Note_on_c, 3, 50, 108
4, 83854, Note_on_c, 3, 50, 0
4, 83856, Note_on_c, 3, 50, 45
4, 83902, Note_on_c, 3, 50, 0
4, 83904, Note_on_c, 3, 50, 45
4, 83950, Note_on_c, 3, 50, 0
4, 83952, Note_on_c, 3, 50, 45
4, 83998, Note_on_c, 3, 50, 0
4, 84000, Note_on_c, 3, 50, 45
4, 84046, Note_on_c, 3, 50, 0
4, 84048, Note_on_c, 3, 50, 45
4, 84094, Note_on_c, 3, 50, 0
4, 84096, Note_on_c, 3, 50, 45
4, 84142, Note_on_c, 3, 50, 0
4, 84144, Note_on_c, 3, 50, 45
4, 84190, Note_on_c, 3, 50, 0
4, 84192, Note_on_c, 3, 50, 45
4, 84238, Note_on_c, 3, 50, 0
4, 84240, Note_on_c, 3, 50, 45
4, 84286, Note_on_c, 3, 50, 0
4, 84288, Note_on_c, 3, 50, 45
4, 84334, Note_on_c, 3, 50, 0
4, 84336, Note_on_c, 3, 50, 45
4, 84382, Note_on_c, 3, 50, 0
4, 84384, Note_on_c, 3, 50, 45
4, 84430, Note_on_c, 3, 50, 0
4, 84432, Note_on_c, 3, 50, 45
4, 84478, Note_on_c, 3, 50, 0
4, 84480, Note_on_c, 3, 50, 45
4, 84526, Note_on_c, 3, 50, 0
4, 84528, Note_on_c, 3, 50, 45
4, 84574, Note_on_c, 3, 50, 0
4, 84576, Note_on_c, 3, 50, 45
4, 84622, Note_on_c, 3, 50, 0
4, 84624, Note_on_c, 3, 50, 45
4, 84670, Note_on_c, 3, 50, 0
4, 84672, Note_on_c, 3, 52, 92
4, 84672, Note_on_c, 3, 55, 92
4, 84718, Note_on_c, 3, 55, 0
4, 84718, Note_on_c, 3, 52, 0
4, 84720, Note_on_c, 3, 52, 92
4, 84720, Note_on_c, 3, 55, 92
4, 84766, Note_on_c, 3, 55, 0
4, 84766, Note_on_c, 3, 52, 0
4, 84768, Note_on_c, 3, 52, 92
4, 84768, Note_on_c, 3, 55, 92
4, 84814, Note_on_c, 3, 55, 0
4, 84814, Note_on_c, 3, 52, 0
4, 84816, Note_on_c, 3, 52, 92
4, 84816, Note_on_c, 3, 55, 92
4, 84862, Note_on_c, 3, 55, 0
4, 84862, Note_on_c, 3, 52, 0
4, 84864, Note_on_c, 3, 52, 92
4, 84864, Note_on_c, 3, 55, 92
4, 84910, Note_on_c, 3, 55, 0
4, 84910, Note_on_c, 3, 52, 0
4, 84912, Note_on_c, 3, 52, 92
4, 84912, Note_on_c, 3, 55, 92
4, 84958, Note_on_c, 3, 55, 0
4, 84958, Note_on_c, 3, 52, 0
4, 84960, Note_on_c, 3, 52, 92
4, 84960, Note_on_c, 3, 55, 92
4, 85006, Note_on_c, 3, 55, 0
4, 85006, Note_on_c, 3, 52, 0
4, 85008, Note_on_c, 3, 52, 92
4, 85008, Note_on_c, 3, 55, 92
4, 85054, Note_on_c, 3, 55, 0
4, 85054, Note_on_c, 3, 52, 0
4, 85056, Note_on_c, 3, 52, 92
4, 85056, Note_on_c, 3, 55, 92
4, 85102, Note_on_c, 3, 55, 0
4, 85102, Note_on_c, 3, 52, 0
4, 85104, Note_on_c, 3, 52, 92
4, 85104, Note_on_c, 3, 55, 92
4, 85150, Note_on_c, 3, 55, 0
4, 85150, Note_on_c, 3, 52, 0
4, 85152, Note_on_c, 3, 52, 92
4, 85152, Note_on_c, 3, 55, 92
4, 85198, Note_on_c, 3, 55, 0
4, 85198, Note_on_c, 3, 52, 0
4, 85200, Note_on_c, 3, 52, 92
4, 85200, Note_on_c, 3, 55, 92
4, 85246, Note_on_c, 3, 55, 0
4, 85246, Note_on_c, 3, 52, 0
4, 85248, Note_on_c, 3, 52, 92
4, 85248, Note_on_c, 3, 55, 92
4, 85294, Note_on_c, 3, 55, 0
4, 85294, Note_on_c, 3, 52, 0
4, 85296, Note_on_c, 3, 52, 92
4, 85296, Note_on_c, 3, 55, 92
4, 85342, Note_on_c, 3, 55, 0
4, 85342, Note_on_c, 3, 52, 0
4, 85344, Note_on_c, 3, 52, 92
4, 85344, Note_on_c, 3, 55, 92
4, 85390, Note_on_c, 3, 55, 0
4, 85390, Note_on_c, 3, 52, 0
4, 85392, Note_on_c, 3, 52, 92
4, 85392, Note_on_c, 3, 55, 92
4, 85438, Note_on_c, 3, 55, 0
4, 85438, Note_on_c, 3, 52, 0
4, 85440, Note_on_c, 3, 52, 92
4, 85440, Note_on_c, 3, 55, 92
4, 85486, Note_on_c, 3, 55, 0
4, 85486, Note_on_c, 3, 52, 0
4, 85488, Note_on_c, 3, 52, 92
4, 85488, Note_on_c, 3, 55, 92
4, 85534, Note_on_c, 3, 55, 0
4, 85534, Note_on_c, 3, 52, 0
4, 85536, Note_on_c, 3, 52, 45
4, 85536, Note_on_c, 3, 55, 45
4, 85582, Note_on_c, 3, 55, 0
4, 85582, Note_on_c, 3, 52, 0
4, 85584, Note_on_c, 3, 52, 45
4, 85584, Note_on_c, 3, 55, 45
4, 85630, Note_on_c, 3, 55, 0
4, 85630, Note_on_c, 3, 52, 0
4, 85632, Note_on_c, 3, 52, 45
4, 85632, Note_on_c, 3, 55, 45
4, 85678, Note_on_c, 3, 55, 0
4, 85678, Note_on_c, 3, 52, 0
4, 85680, Note_on_c, 3, 52, 45
4, 85680, Note_on_c, 3, 55, 45
4, 85726, Note_on_c, 3, 55, 0
4, 85726, Note_on_c, 3, 52, 0
4, 85728, Note_on_c, 3, 52, 45
4, 85728, Note_on_c, 3, 55, 45
4, 85774, Note_on_c, 3, 55, 0
4, 85774, Note_on_c, 3, 52, 0
4, 85776, Note_on_c, 3, 52, 45
4, 85776, Note_on_c, 3, 55, 45
4, 85822, Note_on_c, 3, 55, 0
4, 85822, Note_on_c, 3, 52, 0
4, 85824, Note_on_c, 3, 52, 45
4, 85824, Note_on_c, 3, 55, 45
4, 85870, Note_on_c, 3, 55, 0
4, 85870, Note_on_c, 3, 52, 0
4, 85872, Note_on_c, 3, 52, 48
4, 85872, Note_on_c, 3, 55, 48
4, 85918, Note_on_c, 3, 55, 0
4, 85918, Note_on_c, 3, 52, 0
4, 85920, Note_on_c, 3, 52, 52
4, 85920, Note_on_c, 3, 55, 52
4, 85966, Note_on_c, 3, 55, 0
4, 85966, Note_on_c, 3, 52, 0
4, 85968, Note_on_c, 3, 52, 56
4, 85968, Note_on_c, 3, 55, 56
4, 86014, Note_on_c, 3, 55, 0
4, 86014, Note_on_c, 3, 52, 0
4, 86016, Note_on_c, 3, 52, 60
4, 86016, Note_on_c, 3, 55, 60
4, 86062, Note_on_c, 3, 55, 0
4, 86062, Note_on_c, 3, 52, 0
4, 86064, Note_on_c, 3, 52, 64
4, 86064, Note_on_c, 3, 55, 64
4, 86110, Note_on_c, 3, 55, 0
4, 86110, Note_on_c, 3, 52, 0
4, 86112, Note_on_c, 3, 52, 68
4, 86112, Note_on_c, 3, 55, 68
4, 86158, Note_on_c, 3, 55, 0
4, 86158, Note_on_c, 3, 52, 0
4, 86160, Note_on_c, 3, 52, 72
4, 86160, Note_on_c, 3, 55, 72
4, 86206, Note_on_c, 3, 55, 0
4, 86206, Note_on_c, 3, 52, 0
4, 86208, Note_on_c, 3, 52, 76
4, 86254, Note_on_c, 3, 52, 0
4, 86256, Note_on_c, 3, 52, 80
4, 86256, Note_on_c, 3, 55, 80
4, 86302, Note_on_c, 3, 55, 0
4, 86302, Note_on_c, 3, 52, 0
4, 86304, Note_on_c, 3, 52, 84
4, 86304, Note_on_c, 3, 55, 84
4, 86350, Note_on_c, 3, 55, 0
4, 86350, Note_on_c, 3, 52, 0
4, 86352, Note_on_c, 3, 52, 88
4, 86352, Note_on_c, 3, 55, 88
4, 86398, Note_on_c, 3, 55, 0
4, 86398, Note_on_c, 3, 52, 0
4, 86400, Note_on_c, 3, 53, 92
4, 86400, Note_on_c, 3, 57, 92
4, 86446, Note_on_c, 3, 57, 0
4, 86446, Note_on_c, 3, 53, 0
4, 86448, Note_on_c, 3, 53, 92
4, 86448, Note_on_c, 3, 57, 92
4, 86494, Note_on_c, 3, 57, 0
4, 86494, Note_on_c, 3, 53, 0
4, 86496, Note_on_c, 3, 53, 92
4, 86496, Note_on_c, 3, 57, 92
4, 86542, Note_on_c, 3, 57, 0
4, 86542, Note_on_c, 3, 53, 0
4, 86544, Note_on_c, 3, 53, 92
4, 86544, Note_on_c, 3, 57, 92
4, 86590, Note_on_c, 3, 57, 0
4, 86590, Note_on_c, 3, 53, 0
4, 86592, Note_on_c, 3, 53, 92
4, 86592, Note_on_c, 3, 57, 92
4, 86638, Note_on_c, 3, 57, 0
4, 86638, Note_on_c, 3, 53, 0
4, 86640, Note_on_c, 3, 53, 92
4, 86640, Note_on_c, 3, 57, 92
4, 86686, Note_on_c, 3, 57, 0
4, 86686, Note_on_c, 3, 53, 0
4, 86688, Note_on_c, 3, 53, 92
4, 86688, Note_on_c, 3, 57, 92
4, 86734, Note_on_c, 3, 57, 0
4, 86734, Note_on_c, 3, 53, 0
4, 86736, Note_on_c, 3, 53, 92
4, 86736, Note_on_c, 3, 57, 92
4, 86782, Note_on_c, 3, 57, 0
4, 86782, Note_on_c, 3, 53, 0
4, 86784, Note_on_c, 3, 53, 92
4, 86784, Note_on_c, 3, 57, 92
4, 86830, Note_on_c, 3, 57, 0
4, 86830, Note_on_c, 3, 53, 0
4, 86832, Note_on_c, 3, 53, 92
4, 86832, Note_on_c, 3, 57, 92
4, 86878, Note_on_c, 3, 57, 0
4, 86878, Note_on_c, 3, 53, 0
4, 86880, Note_on_c, 3, 53, 92
4, 86880, Note_on_c, 3, 57, 92
4, 86926, Note_on_c, 3, 57, 0
4, 86926, Note_on_c, 3, 53, 0
4, 86928, Note_on_c, 3, 53, 92
4, 86928, Note_on_c, 3, 57, 92
4, 86974, Note_on_c, 3, 57, 0
4, 86974, Note_on_c, 3, 53, 0
4, 86976, Note_on_c, 3, 53, 92
4, 86976, Note_on_c, 3, 57, 92
4, 87022, Note_on_c, 3, 57, 0
4, 87022, Note_on_c, 3, 53, 0
4, 87024, Note_on_c, 3, 53, 92
4, 87024, Note_on_c, 3, 57, 92
4, 87070, Note_on_c, 3, 57, 0
4, 87070, Note_on_c, 3, 53, 0
4, 87072, Note_on_c, 3, 53, 92
4, 87072, Note_on_c, 3, 57, 92
4, 87118, Note_on_c, 3, 57, 0
4, 87118, Note_on_c, 3, 53, 0
4, 87120, Note_on_c, 3, 53, 92
4, 87120, Note_on_c, 3, 57, 92
4, 87166, Note_on_c, 3, 57, 0
4, 87166, Note_on_c, 3, 53, 0
4, 87168, Note_on_c, 3, 53, 92
4, 87168, Note_on_c, 3, 57, 92
4, 87214, Note_on_c, 3, 57, 0
4, 87214, Note_on_c, 3, 53, 0
4, 87216, Note_on_c, 3, 53, 92
4, 87216, Note_on_c, 3, 57, 92
4, 87262, Note_on_c, 3, 57, 0
4, 87262, Note_on_c, 3, 53, 0
4, 87264, Note_on_c, 3, 58, 92
4, 87424, Note_on_c, 3, 58, 0
4, 88128, Note_on_c, 3, 60, 92
4, 88128, Note_on_c, 3, 63, 92
4, 88288, Note_on_c, 3, 63, 0
4, 88288, Note_on_c, 3, 60, 0
4, 88992, Note_on_c, 3, 62, 92
4, 88992, Note_on_c, 3, 67, 92
4, 89152, Note_on_c, 3, 67, 0
4, 89152, Note_on_c, 3, 62, 0
4, 89856, Note_on_c, 3, 59, 108
4, 89902, Note_on_c, 3, 59, 0
4, 89904, Note_on_c, 3, 59, 103
4, 89950, Note_on_c, 3, 59, 0
4, 89952, Note_on_c, 3, 59, 98
4, 89998, Note_on_c, 3, 59, 0
4, 90000, Note_on_c, 3, 59, 93
4, 90046, Note_on_c, 3, 59, 0
4, 90048, Note_on_c, 3, 59, 88
4, 90094, Note_on_c, 3, 59, 0
4, 90096, Note_on_c, 3, 59, 83
4, 90142, Note_on_c, 3, 59, 0
4, 90144, Note_on_c, 3, 59, 78
4, 90190, Note_on_c, 3, 59, 0
4, 90192, Note_on_c, 3, 59, 73
4, 90238, Note_on_c, 3, 59, 0
4, 90240, Note_on_c, 3, 59, 68
4, 90286, Note_on_c, 3, 59, 0
4, 90288, Note_on_c, 3, 59, 63
4, 90334, Note_on_c, 3, 59, 0
4, 90336, Note_on_c, 3, 59, 57
4, 90382, Note_on_c, 3, 59, 0
4, 90384, Note_on_c, 3, 59, 51
4, 90430, Note_on_c, 3, 59, 0
4, 90432, Note_on_c, 3, 55, 45
4, 90478, Note_on_c, 3, 55, 0
4, 90480, Note_on_c, 3, 55, 45
4, 90526, Note_on_c, 3, 55, 0
4, 90528, Note_on_c, 3, 55, 45
4, 90574, Note_on_c, 3, 55, 0
4, 90576, Note_on_c, 3, 55, 45
4, 90622, Note_on_c, 3, 55, 0
4, 90624, Note_on_c, 3, 55, 45
4, 90670, Note_on_c, 3, 55, 0
4, 90672, Note_on_c, 3, 55, 45
4, 90718, Note_on_c, 3, 55, 0
4, 90720, Note_on_c, 3, 53, 45
4, 90814, Note_on_c, 3, 53, 0
4, 90816, Note_on_c, 3, 57, 45
4, 90884, Note_on_c, 3, 57, 0
4, 90912, Note_on_c, 3, 57, 45
4, 90944, Note_on_c, 3, 57, 0
4, 91008, Note_on_c, 3, 57, 45
4, 91076, Note_on_c, 3, 57, 0
4, 91104, Note_on_c, 3, 57, 45
4, 91172, Note_on_c, 3, 57, 0
4, 91200, Note_on_c, 3, 57, 45
4, 91232, Note_on_c, 3, 57, 0
4, 91296, Note_on_c, 3, 57, 45
4, 91364, Note_on_c, 3, 57, 0
4, 91392, Note_on_c, 3, 57, 45
4, 91460, Note_on_c, 3, 57, 0
4, 91488, Note_on_c, 3, 57, 45
4, 91520, Note_on_c, 3, 57, 0
4, 91584, Note_on_c, 3, 61, 75
4, 91680, Note_on_c, 3, 61, 0
4, 91680, Note_on_c, 3, 57, 60
4, 91774, Note_on_c, 3, 57, 0
4, 91776, Note_on_c, 3, 57, 45
4, 91870, Note_on_c, 3, 57, 0
4, 91872, Note_on_c, 3, 57, 45
4, 91940, Note_on_c, 3, 57, 0
4, 91968, Note_on_c, 3, 57, 45
4, 92036, Note_on_c, 3, 57, 0
4, 92064, Note_on_c, 3, 57, 45
4, 92096, Note_on_c, 3, 57, 0
4, 92160, Note_on_c, 3, 57, 45
4, 92228, Note_on_c, 3, 57, 0
4, 92256, Note_on_c, 3, 57, 45
4, 92324, Note_on_c, 3, 57, 0
4, 92352, Note_on_c, 3, 57, 45
4, 92384, Note_on_c, 3, 57, 0
4, 92448, Note_on_c, 3, 61, 75
4, 92544, Note_on_c, 3, 61, 0
4, 92544, Note_on_c, 3, 57, 60
4, 92638, Note_on_c, 3, 57, 0
4, 92640, Note_on_c, 3, 57, 45
4, 92734, Note_on_c, 3, 57, 0
4, 92736, Note_on_c, 3, 57, 45
4, 92804, Note_on_c, 3, 57, 0
4, 92832, Note_on_c, 3, 57, 45
4, 92900, Note_on_c, 3, 57, 0
4, 92928, Note_on_c, 3, 57, 45
4, 92960, Note_on_c, 3, 57, 0
4, 93024, Note_on_c, 3, 57, 45
4, 93120, Note_on_c, 3, 57, 0
4, 93120, Note_on_c, 3, 53, 45
4, 93216, Note_on_c, 3, 53, 0
4, 93216, Note_on_c, 3, 50, 45
4, 93310, Note_on_c, 3, 50, 0
4, 93312, Note_on_c, 3, 52, 45
4, 93312, Note_on_c, 3, 55, 45
4, 94144, Note_on_c, 3, 55, 0
4, 94144, Note_on_c, 3, 52, 0
4, 94176, Note_on_c, 3, 53, 30
4, 94336, Note_on_c, 3, 53, 0
4, 94464, Note_on_c, 3, 53, 30
4, 94624, Note_on_c, 3, 53, 0
4, 94624, End_track
5, 0, Start_track
5, 0, Title_t, "Violoncello."
5, 0, Program_c, 4, 48
5, 0, Control_c, 4, 7, 127
5, 0, Control_c, 4, 10, 64
5, 0, Note_on_c, 4, 50, 30
5, 68, Note_on_c, 4, 50, 0
5, 96, Note_on_c, 4, 50, 30
5, 164, Note_on_c, 4, 50, 0
5, 192, Note_on_c, 4, 50, 30
5, 224, Note_on_c, 4, 50, 0
5, 288, Note_on_c, 4, 53, 30
5, 356, Note_on_c, 4, 53, 0
5, 384, Note_on_c, 4, 53, 30
5, 452, Note_on_c, 4, 53, 0
5, 480, Note_on_c, 4, 53, 30
5, 512, Note_on_c, 4, 53, 0
5, 576, Note_on_c, 4, 52, 30
5, 644, Note_on_c, 4, 52, 0
5, 672, Note_on_c, 4, 52, 30
5, 740, Note_on_c, 4, 52, 0
5, 768, Note_on_c, 4, 52, 30
5, 800, Note_on_c, 4, 52, 0
5, 864, Note_on_c, 4, 50, 30
5, 958, Note_on_c, 4, 50, 0
5, 960, Note_on_c, 4, 50, 33
5, 1054, Note_on_c, 4, 50, 0
5, 1056, Note_on_c, 4, 50, 36
5, 1150, Note_on_c, 4, 50, 0
5, 1152, Note_on_c, 4, 53, 39
5, 1246, Note_on_c, 4, 53, 0
5, 1248, Note_on_c, 4, 53, 42
5, 1342, Note_on_c, 4, 53, 0
5, 1344, Note_on_c, 4, 53, 45
5, 1438, Note_on_c, 4, 53, 0
5, 1440, Note_on_c, 4, 52, 48
5, 1534, Note_on_c, 4, 52, 0
5, 1536, Note_on_c, 4, 52, 52
5, 1630, Note_on_c, 4, 52, 0
5, 1632, Note_on_c, 4, 52, 56
5, 1726, Note_on_c, 4, 52, 0
5, 1728, Note_on_c, 4, 50, 60
5, 1822, Note_on_c, 4, 50, 0
5, 1824, Note_on_c, 4, 50, 57
5, 1918, Note_on_c, 4, 50, 0
5, 1920, Note_on_c, 4, 50, 54
5, 2014, Note_on_c, 4, 50, 0
5, 2016, Note_on_c, 4, 53, 51
5, 2110, Note_on_c, 4, 53, 0
5, 2112, Note_on_c, 4, 53, 48
5, 2206, Note_on_c, 4, 53, 0
5, 2208, Note_on_c, 4, 53, 45
5, 2302, Note_on_c, 4, 53, 0
5, 2304, Note_on_c, 4, 57, 42
5, 2398, Note_on_c, 4, 57, 0
5, 2400, Note_on_c, 4, 57, 38
5, 2494, Note_on_c, 4, 57, 0
5, 2496, Note_on_c, 4, 57, 34
5, 2590, Note_on_c, 4, 57, 0
5, 2688, Note_on_c, 4, 50, 30
5, 2782, Note_on_c, 4, 50, 0
5, 2784, Note_on_c, 4, 50, 30
5, 2878, Note_on_c, 4, 50, 0
5, 2880, Note_on_c, 4, 50, 30
5, 2974, Note_on_c, 4, 50, 0
5, 2976, Note_on_c, 4, 50, 30
5, 3070, Note_on_c, 4, 50, 0
5, 3072, Note_on_c, 4, 50, 30
5, 3166, Note_on_c, 4, 50, 0
5, 3168, Note_on_c, 4, 50, 30
5, 3262, Note_on_c, 4, 50, 0
5, 3264, Note_on_c, 4, 50, 30
5, 3358, Note_on_c, 4, 50, 0
5, 3360, Note_on_c, 4, 50, 30
5, 3454, Note_on_c, 4, 50, 0
5, 3456, Note_on_c, 4, 52, 30
5, 3550, Note_on_c, 4, 52, 0
5, 3552, Note_on_c, 4, 52, 30
5, 3646, Note_on_c, 4, 52, 0
5, 3648, Note_on_c, 4, 52, 30
5, 3742, Note_on_c, 4, 52, 0
5, 3744, Note_on_c, 4, 52, 30
5, 3838, Note_on_c, 4, 52, 0
5, 3840, Note_on_c, 4, 52, 30
5, 3934, Note_on_c, 4, 52, 0
5, 3936, Note_on_c, 4, 52, 30
5, 4030, Note_on_c, 4, 52, 0
5, 4032, Note_on_c, 4, 52, 30
5, 4126, Note_on_c, 4, 52, 0
5, 4128, Note_on_c, 4, 52, 30
5, 4222, Note_on_c, 4, 52, 0
5, 4224, Note_on_c, 4, 52, 30
5, 4318, Note_on_c, 4, 52, 0
5, 4320, Note_on_c, 4, 52, 30
5, 4414, Note_on_c, 4, 52, 0
5, 4416, Note_on_c, 4, 52, 30
5, 4510, Note_on_c, 4, 52, 0
5, 4512, Note_on_c, 4, 52, 30
5, 4606, Note_on_c, 4, 52, 0
5, 4608, Note_on_c, 4, 52, 30
5, 4702, Note_on_c, 4, 52, 0
5, 4704, Note_on_c, 4, 52, 30
5, 4798, Note_on_c, 4, 52, 0
5, 4800, Note_on_c, 4, 52, 30
5, 4894, Note_on_c, 4, 52, 0
5, 4896, Note_on_c, 4, 52, 30
5, 4990, Note_on_c, 4, 52, 0
5, 4992, Note_on_c, 4, 52, 30
5, 5086, Note_on_c, 4, 52, 0
5, 5088, Note_on_c, 4, 52, 30
5, 5182, Note_on_c, 4, 52, 0
5, 5184, Note_on_c, 4, 53, 30
5, 5278, Note_on_c, 4, 53, 0
5, 5280, Note_on_c, 4, 53, 30
5, 5374, Note_on_c, 4, 53, 0
5, 5376, Note_on_c, 4, 53, 30
5, 5470, Note_on_c, 4, 53, 0
5, 5472, Note_on_c, 4, 53, 30
5, 5566, Note_on_c, 4, 53, 0
5, 5568, Note_on_c, 4, 53, 30
5, 5662, Note_on_c, 4, 53, 0
5, 5664, Note_on_c, 4, 53, 30
5, 5758, Note_on_c, 4, 53, 0
5, 5760, Note_on_c, 4, 53, 30
5, 5856, Note_on_c, 4, 53, 0
5, 5856, Note_on_c, 4, 52, 30
5, 5952, Note_on_c, 4, 52, 0
5, 5952, Note_on_c, 4, 50, 30
5, 6046, Note_on_c, 4, 50, 0
5, 6048, Note_on_c, 4, 55, 30
5, 6142, Note_on_c, 4, 55, 0
5, 6144, Note_on_c, 4, 43, 33
5, 6238, Note_on_c, 4, 43, 0
5, 6240, Note_on_c, 4, 43, 36
5, 6334, Note_on_c, 4, 43, 0
5, 6336, Note_on_c, 4, 43, 39
5, 6430, Note_on_c, 4, 43, 0
5, 6432, Note_on_c, 4, 43, 42
5, 6526, Note_on_c, 4, 43, 0
5, 6528, Note_on_c, 4, 43, 45
5, 6622, Note_on_c, 4, 43, 0
5, 6624, Note_on_c, 4, 44, 48
5, 6718, Note_on_c, 4, 44, 0
5, 6720, Note_on_c, 4, 44, 52
5, 6814, Note_on_c, 4, 44, 0
5, 6816, Note_on_c, 4, 44, 56
5, 6910, Note_on_c, 4, 44, 0
5, 6912, Note_on_c, 4, 45, 45
5, 7072, Note_on_c, 4, 45, 0
5, 7296, Note_on_c, 4, 49, 45
5, 7392, Note_on_c, 4, 49, 0
5, 7392, Note_on_c, 4, 52, 45
5, 7488, Note_on_c, 4, 52, 0
5, 7488, Note_on_c, 4, 50, 45
5, 7584, Note_on_c, 4, 50, 0
5, 7584, Note_on_c, 4, 43, 45
5, 7680, Note_on_c, 4, 43, 0
5, 7680, Note_on_c, 4, 44, 45
5, 7774, Note_on_c, 4, 44, 0
5, 7776, Note_on_c, 4, 45, 45
5, 7872, Note_on_c, 4, 45, 0
5, 7872, Note_on_c, 4, 46, 45
5, 7968, Note_on_c, 4, 46, 0
5, 7968, Note_on_c, 4, 44, 45
5, 8064, Note_on_c, 4, 44, 0
5, 8064, Note_on_c, 4, 45, 45
5, 8160, Note_on_c, 4, 45, 0
5, 8160, Note_on_c, 4, 49, 55
5, 8256, Note_on_c, 4, 49, 0
5, 8256, Note_on_c, 4, 52, 65
5, 8352, Note_on_c, 4, 52, 0
5, 8352, Note_on_c, 4, 50, 75
5, 8448, Note_on_c, 4, 50, 0
5, 8448, Note_on_c, 4, 43, 65
5, 8544, Note_on_c, 4, 43, 0
5, 8544, Note_on_c, 4, 44, 55
5, 8638, Note_on_c, 4, 44, 0
5, 8640, Note_on_c, 4, 45, 45
5, 8800, Note_on_c, 4, 45, 0
5, 9216, Note_on_c, 4, 57, 30
5, 9664, Note_on_c, 4, 57, 0
5, 10080, Note_on_c, 4, 46, 42
5, 10336, Note_on_c, 4, 46, 0
5, 10368, Note_on_c, 4, 45, 45
5, 10464, Note_on_c, 4, 45, 0
5, 10464, Note_on_c, 4, 49, 45
5, 10560, Note_on_c, 4, 49, 0
5, 10560, Note_on_c, 4, 52, 45
5, 10654, Note_on_c, 4, 52, 0
5, 10656, Note_on_c, 4, 57, 45
5, 11038, Note_on_c, 4, 57, 0
5, 11040, Note_on_c, 4, 57, 65
5, 11072, Note_on_c, 4, 57, 0
5, 11136, Note_on_c, 4, 57, 70
5, 11168, Note_on_c, 4, 57, 0
5, 11232, Note_on_c, 4, 57, 30
5, 12064, Note_on_c, 4, 57, 0
5, 12096, Note_on_c, 4, 57, 45
5, 12384, Note_on_c, 4, 57, 0
5, 12384, Note_on_c, 4, 62, 50
5, 12672, Note_on_c, 4, 62, 0
5, 12672, Note_on_c, 4, 64, 55
5, 12928, Note_on_c, 4, 64, 0
5, 12960, Note_on_c, 4, 65, 45
5, 13632, Note_on_c, 4, 65, 0
5, 13632, Note_on_c, 4, 68, 45
5, 13728, Note_on_c, 4, 68, 0
5, 13728, Note_on_c, 4, 67, 45
5, 13822, Note_on_c, 4, 67, 0
5, 13824, Note_on_c, 4, 65, 45
5, 14208, Note_on_c, 4, 65, 0
5, 14208, Note_on_c, 4, 64, 45
5, 14304, Note_on_c, 4, 64, 0
5, 14304, Note_on_c, 4, 61, 45
5, 14400, Note_on_c, 4, 61, 0
5, 14400, Note_on_c, 4, 60, 45
5, 14496, Note_on_c, 4, 60, 0
5, 14496, Note_on_c, 4, 58, 45
5, 14592, Note_on_c, 4, 58, 0
5, 14592, Note_on_c, 4, 55, 45
5, 14686, Note_on_c, 4, 55, 0
5, 14688, Note_on_c, 4, 54, 45
5, 14976, Note_on_c, 4, 54, 0
5, 14976, Note_on_c, 4, 53, 45
5, 15070, Note_on_c, 4, 53, 0
5, 15072, Note_on_c, 4, 41, 45
5, 15166, Note_on_c, 4, 41, 0
5, 15168, Note_on_c, 4, 41, 45
5, 15262, Note_on_c, 4, 41, 0
5, 15264, Note_on_c, 4, 41, 45
5, 15358, Note_on_c, 4, 41, 0
5, 15360, Note_on_c, 4, 41, 45
5, 15454, Note_on_c, 4, 41, 0
5, 15456, Note_on_c, 4, 41, 45
5, 15550, Note_on_c, 4, 41, 0
5, 15552, Note_on_c, 4, 46, 45
5, 15646, Note_on_c, 4, 46, 0
5, 15648, Note_on_c, 4, 46, 46
5, 15742, Note_on_c, 4, 46, 0
5, 15744, Note_on_c, 4, 46, 47
5, 15838, Note_on_c, 4, 46, 0
5, 15840, Note_on_c, 4, 46, 48
5, 15934, Note_on_c, 4, 46, 0
5, 15936, Note_on_c, 4, 46, 49
5, 16030, Note_on_c, 4, 46, 0
5, 16032, Note_on_c, 4, 46, 50
5, 16126, Note_on_c, 4, 46, 0
5, 16128, Note_on_c, 4, 47, 51
5, 16222, Note_on_c, 4, 47, 0
5, 16224, Note_on_c, 4, 47, 52
5, 16318, Note_on_c, 4, 47, 0
5, 16320, Note_on_c, 4, 47, 53
5, 16414, Note_on_c, 4, 47, 0
5, 16416, Note_on_c, 4, 48, 54
5, 16576, Note_on_c, 4, 48, 0
5, 18144, Note_on_c, 4, 48, 30
5, 18240, Note_on_c, 4, 48, 0
5, 18240, Note_on_c, 4, 59, 30
5, 18336, Note_on_c, 4, 59, 0
5, 18336, Note_on_c, 4, 60, 30
5, 18432, Note_on_c, 4, 60, 0
5, 18432, Note_on_c, 4, 54, 30
5, 18528, Note_on_c, 4, 54, 0
5, 18528, Note_on_c, 4, 55, 30
5, 18624, Note_on_c, 4, 55, 0
5, 18624, Note_on_c, 4, 51, 30
5, 18720, Note_on_c, 4, 51, 0
5, 18720, Note_on_c, 4, 52, 30
5, 18816, Note_on_c, 4, 52, 0
5, 18816, Note_on_c, 4, 47, 30
5, 18912, Note_on_c, 4, 47, 0
5, 18912, Note_on_c, 4, 48, 30
5, 19006, Note_on_c, 4, 48, 0
5, 19008, Note_on_c, 4, 46, 30
5, 19840, Note_on_c, 4, 46, 0
5, 19872, Note_on_c, 4, 45, 30
5, 20704, Note_on_c, 4, 45, 0
5, 20736, Note_on_c, 4, 40, 30
5, 21312, Note_on_c, 4, 40, 0
5, 21312, Note_on_c, 4, 36, 50
5, 21568, Note_on_c, 4, 36, 0
5, 21600, Note_on_c, 4, 41, 45
5, 21760, Note_on_c, 4, 41, 0
5, 22464, Note_on_c, 4, 58, 45
5, 22752, Note_on_c, 4, 58, 0
5, 22752, Note_on_c, 4, 57, 45
5, 23040, Note_on_c, 4, 57, 0
5, 23040, Note_on_c, 4, 52, 45
5, 23296, Note_on_c, 4, 52, 0
5, 23328, Note_on_c, 4, 53, 45
5, 23488, Note_on_c, 4, 53, 0
5, 24192, Note_on_c, 4, 58, 45
5, 24480, Note_on_c, 4, 58, 0
5, 24480, Note_on_c, 4, 57, 45
5, 24768, Note_on_c, 4, 57, 0
5, 24768, Note_on_c, 4, 52, 45
5, 25024, Note_on_c, 4, 52, 0
5, 25056, Note_on_c, 4, 53, 45
5, 25216, Note_on_c, 4, 53, 0
5, 25968, Note_on_c, 4, 56, 45
5, 26016, Note_on_c, 4, 56, 0
5, 26016, Note_on_c, 4, 57, 45
5, 26064, Note_on_c, 4, 57, 0
5, 26064, Note_on_c, 4, 55, 45
5, 26112, Note_on_c, 4, 55, 0
5, 26112, Note_on_c, 4, 53, 45
5, 26160, Note_on_c, 4, 53, 0
5, 26160, Note_on_c, 4, 52, 45
5, 26208, Note_on_c, 4, 52, 0
5, 26208, Note_on_c, 4, 50, 45
5, 26256, Note_on_c, 4, 50, 0
5, 26256, Note_on_c, 4, 49, 45
5, 26304, Note_on_c, 4, 49, 0
5, 26304, Note_on_c, 4, 50, 45
5, 26352, Note_on_c, 4, 50, 0
5, 26352, Note_on_c, 4, 48, 45
5, 26400, Note_on_c, 4, 48, 0
5, 26400, Note_on_c, 4, 46, 45
5, 26448, Note_on_c, 4, 46, 0
5, 26448, Note_on_c, 4, 45, 45
5, 26496, Note_on_c, 4, 45, 0
5, 26496, Note_on_c, 4, 43, 45
5, 26544, Note_on_c, 4, 43, 0
5, 26544, Note_on_c, 4, 42, 45
5, 26592, Note_on_c, 4, 42, 0
5, 26592, Note_on_c, 4, 43, 45
5, 26640, Note_on_c, 4, 43, 0
5, 26640, Note_on_c, 4, 41, 45
5, 26688, Note_on_c, 4, 41, 0
5, 26688, Note_on_c, 4, 40, 45
5, 26736, Note_on_c, 4, 40, 0
5, 26736, Note_on_c, 4, 38, 45
5, 26782, Note_on_c, 4, 38, 0
5, 26784, Note_on_c, 4, 36, 45
5, 27072, Note_on_c, 4, 36, 0
5, 27072, Note_on_c, 4, 48, 52
5, 27360, Note_on_c, 4, 48, 0
5, 27360, Note_on_c, 4, 49, 59
5, 27616, Note_on_c, 4, 49, 0
5, 27648, Note_on_c, 4, 46, 67
5, 27936, Note_on_c, 4, 46, 0
5, 27936, Note_on_c, 4, 49, 105
5, 28224, Note_on_c, 4, 49, 0
5, 28224, Note_on_c, 4, 48, 60
5, 28480, Note_on_c, 4, 48, 0
5, 28512, Note_on_c, 4, 41, 45
5, 28672, Note_on_c, 4, 41, 0
5, 29088, Note_on_c, 4, 46, 45
5, 29280, Note_on_c, 4, 46, 0
5, 29280, Note_on_c, 4, 48, 45
5, 29328, Note_on_c, 4, 48, 0
5, 29328, Note_on_c, 4, 50, 45
5, 29374, Note_on_c, 4, 50, 0
5, 29424, Note_on_c, 4, 50, 45
5, 29472, Note_on_c, 4, 50, 0
5, 29472, Note_on_c, 4, 51, 45
5, 29520, Note_on_c, 4, 51, 0
5, 29520, Note_on_c, 4, 50, 45
5, 29568, Note_on_c, 4, 50, 0
5, 29568, Note_on_c, 4, 48, 45
5, 29616, Note_on_c, 4, 48, 0
5, 29616, Note_on_c, 4, 46, 45
5, 29664, Note_on_c, 4, 46, 0
5, 29664, Note_on_c, 4, 45, 45
5, 29712, Note_on_c, 4, 45, 0
5, 29712, Note_on_c, 4, 46, 45
5, 29760, Note_on_c, 4, 46, 0
5, 29760, Note_on_c, 4, 45, 45
5, 29808, Note_on_c, 4, 45, 0
5, 29808, Note_on_c, 4, 46, 45
5, 29856, Note_on_c, 4, 46, 0
5, 29856, Note_on_c, 4, 48, 45
5, 29904, Note_on_c, 4, 48, 0
5, 29904, Note_on_c, 4, 46, 45
5, 29952, Note_on_c, 4, 46, 0
5, 29952, Note_on_c, 4, 45, 45
5, 30000, Note_on_c, 4, 45, 0
5, 30000, Note_on_c, 4, 44, 45
5, 30048, Note_on_c, 4, 44, 0
5, 30048, Note_on_c, 4, 45, 45
5, 30096, Note_on_c, 4, 45, 0
5, 30096, Note_on_c, 4, 41, 45
5, 30144, Note_on_c, 4, 41, 0
5, 30144, Note_on_c, 4, 43, 45
5, 30192, Note_on_c, 4, 43, 0
5, 30192, Note_on_c, 4, 45, 45
5, 30238, Note_on_c, 4, 45, 0
5, 30240, Note_on_c, 4, 46, 45
5, 30288, Note_on_c, 4, 46, 0
5, 30288, Note_on_c, 4, 45, 46
5, 30336, Note_on_c, 4, 45, 0
5, 30336, Note_on_c, 4, 46, 47
5, 30384, Note_on_c, 4, 46, 0
5, 30384, Note_on_c, 4, 44, 48
5, 30432, Note_on_c, 4, 44, 0
5, 30432, Note_on_c, 4, 43, 49
5, 30480, Note_on_c, 4, 43, 0
5, 30480, Note_on_c, 4, 41, 50
5, 30526, Note_on_c, 4, 41, 0
5, 30528, Note_on_c, 4, 40, 51
5, 30576, Note_on_c, 4, 40, 0
5, 30576, Note_on_c, 4, 36, 52
5, 30624, Note_on_c, 4, 36, 0
5, 30624, Note_on_c, 4, 40, 53
5, 30672, Note_on_c, 4, 40, 0
5, 30672, Note_on_c, 4, 43, 54
5, 30720, Note_on_c, 4, 43, 0
5, 30720, Note_on_c, 4, 48, 55
5, 30768, Note_on_c, 4, 48, 0
5, 30768, Note_on_c, 4, 52, 56
5, 30816, Note_on_c, 4, 52, 0
5, 30816, Note_on_c, 4, 53, 57
5, 30864, Note_on_c, 4, 53, 0
5, 30864, Note_on_c, 4, 52, 58
5, 30912, Note_on_c, 4, 52, 0
5, 30912, Note_on_c, 4, 53, 59
5, 30960, Note_on_c, 4, 53, 0
5, 30960, Note_on_c, 4, 55, 60
5, 31008, Note_on_c, 4, 55, 0
5, 31008, Note_on_c, 4, 56, 61
5, 31056, Note_on_c, 4, 56, 0
5, 31056, Note_on_c, 4, 53, 62
5, 31102, Note_on_c, 4, 53, 0
5, 31104, Note_on_c, 4, 46, 63
5, 31392, Note_on_c, 4, 46, 0
5, 31392, Note_on_c, 4, 49, 105
5, 31680, Note_on_c, 4, 49, 0
5, 31680, Note_on_c, 4, 48, 60
5, 31936, Note_on_c, 4, 48, 0
5, 31968, Note_on_c, 4, 41, 45
5, 32062, Note_on_c, 4, 41, 0
5, 32064, Note_on_c, 4, 53, 45
5, 32158, Note_on_c, 4, 53, 0
5, 32160, Note_on_c, 4, 53, 45
5, 32254, Note_on_c, 4, 53, 0
5, 32256, Note_on_c, 4, 53, 45
5, 32416, Note_on_c, 4, 53, 0
5, 32832, Note_on_c, 4, 41, 45
5, 32926, Note_on_c, 4, 41, 0
5, 32928, Note_on_c, 4, 53, 45
5, 33022, Note_on_c, 4, 53, 0
5, 33024, Note_on_c, 4, 53, 45
5, 33118, Note_on_c, 4, 53, 0
5, 33120, Note_on_c, 4, 53, 45
5, 33280, Note_on_c, 4, 53, 0
5, 33696, Note_on_c, 4, 53, 45
5, 33790, Note_on_c, 4, 53, 0
5, 33792, Note_on_c, 4, 65, 45
5, 33886, Note_on_c, 4, 65, 0
5, 33888, Note_on_c, 4, 65, 45
5, 33982, Note_on_c, 4, 65, 0
5, 33984, Note_on_c, 4, 65, 45
5, 34144, Note_on_c, 4, 65, 0
5, 35424, Note_on_c, 4, 48, 30
5, 36160, Note_on_c, 4, 48, 0
5, 36192, Note_on_c, 4, 46, 30
5, 36286, Note_on_c, 4, 46, 0
5, 36288, Note_on_c, 4, 45, 30
5, 36480, Note_on_c, 4, 45, 0
5, 36480, Note_on_c, 4, 43, 33
5, 36576, Note_on_c, 4, 43, 0
5, 36576, Note_on_c, 4, 41, 34
5, 36768, Note_on_c, 4, 41, 0
5, 36768, Note_on_c, 4, 40, 37
5, 36864, Note_on_c, 4, 40, 0
5, 36864, Note_on_c, 4, 38, 39
5, 37056, Note_on_c, 4, 38, 0
5, 37056, Note_on_c, 4, 37, 43
5, 37150, Note_on_c, 4, 37, 0
5, 37152, Note_on_c, 4, 38, 45
5, 37248, Note_on_c, 4, 38, 0
5, 37248, Note_on_c, 4, 50, 45
5, 37344, Note_on_c, 4, 50, 0
5, 37344, Note_on_c, 4, 46, 45
5, 37438, Note_on_c, 4, 46, 0
5, 37440, Note_on_c, 4, 48, 45
5, 37728, Note_on_c, 4, 48, 0
5, 37728, Note_on_c, 4, 36, 75
5, 37984, Note_on_c, 4, 36, 0
5, 38016, Note_on_c, 4, 41, 30
5, 38176, Note_on_c, 4, 41, 0
5, 38304, Note_on_c, 4, 53, 30
5, 38464, Note_on_c, 4, 53, 0
5, 38880, Note_on_c, 4, 51, 30
5, 39040, Note_on_c, 4, 51, 0
5, 39168, Note_on_c, 4, 63, 30
5, 39328, Note_on_c, 4, 63, 0
5, 39744, Note_on_c, 4, 50, 30
5, 39904, Note_on_c, 4, 50, 0
5, 40032, Note_on_c, 4, 62, 30
5, 40192, Note_on_c, 4, 62, 0
5, 40608, Note_on_c, 4, 43, 92
5, 40702, Note_on_c, 4, 43, 0
5, 40704, Note_on_c, 4, 43, 92
5, 40798, Note_on_c, 4, 43, 0
5, 40800, Note_on_c, 4, 43, 92
5, 40894, Note_on_c, 4, 43, 0
5, 40896, Note_on_c, 4, 46, 92
5, 40990, Note_on_c, 4, 46, 0
5, 40992, Note_on_c, 4, 46, 92
5, 41086, Note_on_c, 4, 46, 0
5, 41088, Note_on_c, 4, 46, 92
5, 41182, Note_on_c, 4, 46, 0
5, 41184, Note_on_c, 4, 42, 92
5, 41278, Note_on_c, 4, 42, 0
5, 41280, Note_on_c, 4, 42, 92
5, 41374, Note_on_c, 4, 42, 0
5, 41376, Note_on_c, 4, 42, 92
5, 41470, Note_on_c, 4, 42, 0
5, 41472, Note_on_c, 4, 43, 127
5, 41566, Note_on_c, 4, 43, 0
5, 41568, Note_on_c, 4, 43, 92
5, 41662, Note_on_c, 4, 43, 0
5, 41664, Note_on_c, 4, 43, 92
5, 41758, Note_on_c, 4, 43, 0
5, 41760, Note_on_c, 4, 46, 92
5, 41854, Note_on_c, 4, 46, 0
5, 41856, Note_on_c, 4, 46, 92
5, 41950, Note_on_c, 4, 46, 0
5, 41952, Note_on_c, 4, 46, 92
5, 42046, Note_on_c, 4, 46, 0
5, 42048, Note_on_c, 4, 50, 92
5, 42142, Note_on_c, 4, 50, 0
5, 42144, Note_on_c, 4, 50, 92
5, 42238, Note_on_c, 4, 50, 0
5, 42240, Note_on_c, 4, 50, 92
5, 42334, Note_on_c, 4, 50, 0
5, 42336, Note_on_c, 4, 45, 127
5, 42430, Note_on_c, 4, 45, 0
5, 42432, Note_on_c, 4, 45, 92
5, 42526, Note_on_c, 4, 45, 0
5, 42528, Note_on_c, 4, 45, 92
5, 42622, Note_on_c, 4, 45, 0
5, 42624, Note_on_c, 4, 48, 92
5, 42718, Note_on_c, 4, 48, 0
5, 42720, Note_on_c, 4, 48, 92
5, 42814, Note_on_c, 4, 48, 0
5, 42816, Note_on_c, 4, 48, 92
5, 42910, Note_on_c, 4, 48, 0
5, 42912, Note_on_c, 4, 50, 92
5, 43006, Note_on_c, 4, 50, 0
5, 43008, Note_on_c, 4, 50, 92
5, 43102, Note_on_c, 4, 50, 0
5, 43104, Note_on_c, 4, 50, 92
5, 43198, Note_on_c, 4, 50, 0
5, 43200, Note_on_c, 4, 42, 127
5, 43294, Note_on_c, 4, 42, 0
5, 43296, Note_on_c, 4, 42, 92
5, 43390, Note_on_c, 4, 42, 0
5, 43392, Note_on_c, 4, 42, 92
5, 43486, Note_on_c, 4, 42, 0
5, 43488, Note_on_c, 4, 45, 92
5, 43582, Note_on_c, 4, 45, 0
5, 43584, Note_on_c, 4, 45, 92
5, 43678, Note_on_c, 4, 45, 0
5, 43680, Note_on_c, 4, 45, 92
5, 43774, Note_on_c, 4, 45, 0
5, 43776, Note_on_c, 4, 50, 92
5, 43870, Note_on_c, 4, 50, 0
5, 43872, Note_on_c, 4, 50, 92
5, 43966, Note_on_c, 4, 50, 0
5, 43968, Note_on_c, 4, 50, 92
5, 44062, Note_on_c, 4, 50, 0
5, 44064, Note_on_c, 4, 41, 127
5, 44158, Note_on_c, 4, 41, 0
5, 44160, Note_on_c, 4, 41, 92
5, 44254, Note_on_c, 4, 41, 0
5, 44256, Note_on_c, 4, 41, 92
5, 44350, Note_on_c, 4, 41, 0
5, 44352, Note_on_c, 4, 44, 92
5, 44446, Note_on_c, 4, 44, 0
5, 44448, Note_on_c, 4, 44, 92
5, 44542, Note_on_c, 4, 44, 0
5, 44544, Note_on_c, 4, 44, 92
5, 44638, Note_on_c, 4, 44, 0
5, 44640, Note_on_c, 4, 50, 92
5, 44734, Note_on_c, 4, 50, 0
5, 44736, Note_on_c, 4, 50, 92
5, 44830, Note_on_c, 4, 50, 0
5, 44832, Note_on_c, 4, 48, 92
5, 44926, Note_on_c, 4, 48, 0
5, 44928, Note_on_c, 4, 47, 92
5, 45022, Note_on_c, 4, 47, 0
5, 45024, Note_on_c, 4, 47, 93
5, 45118, Note_on_c, 4, 47, 0
5, 45120, Note_on_c, 4, 47, 94
5, 45214, Note_on_c, 4, 47, 0
5, 45216, Note_on_c, 4, 50, 96
5, 45310, Note_on_c, 4, 50, 0
5, 45312, Note_on_c, 4, 50, 98
5, 45406, Note_on_c, 4, 50, 0
5, 45408, Note_on_c, 4, 50, 100
5, 45502, Note_on_c, 4, 50, 0
5, 45504, Note_on_c, 4, 43, 102
5, 45598, Note_on_c, 4, 43, 0
5, 45600, Note_on_c, 4, 43, 104
5, 45694, Note_on_c, 4, 43, 0
5, 45696, Note_on_c, 4, 43, 106
5, 45790, Note_on_c, 4, 43, 0
5, 45792, Note_on_c, 4, 48, 30
5, 45816, Note_on_c, 4, 48, 0
5, 45816, Note_on_c, 4, 47, 30
5, 45840, Note_on_c, 4, 47, 0
5, 45840, Note_on_c, 4, 48, 30
5, 45864, Note_on_c, 4, 48, 0
5, 45864, Note_on_c, 4, 50, 30
5, 45888, Note_on_c, 4, 50, 0
5, 45888, Note_on_c, 4, 51, 30
5, 45912, Note_on_c, 4, 51, 0
5, 45912, Note_on_c, 4, 50, 30
5, 45936, Note_on_c, 4, 50, 0
5, 45936, Note_on_c, 4, 51, 30
5, 45960, Note_on_c, 4, 51, 0
5, 45960, Note_on_c, 4, 53, 30
5, 45984, Note_on_c, 4, 53, 0
5, 45984, Note_on_c, 4, 55, 30
5, 46016, Note_on_c, 4, 55, 0
5, 46656, Note_on_c, 4, 44, 30
5, 46680, Note_on_c, 4, 44, 0
5, 46680, Note_on_c, 4, 43, 30
5, 46704, Note_on_c, 4, 43, 0
5, 46704, Note_on_c, 4, 44, 30
5, 46728, Note_on_c, 4, 44, 0
5, 46728, Note_on_c, 4, 46, 30
5, 46752, Note_on_c, 4, 46, 0
5, 46752, Note_on_c, 4, 48, 30
5, 46776, Note_on_c, 4, 48, 0
5, 46776, Note_on_c, 4, 47, 30
5, 46800, Note_on_c, 4, 47, 0
5, 46800, Note_on_c, 4, 48, 30
5, 46824, Note_on_c, 4, 48, 0
5, 46824, Note_on_c, 4, 50, 30
5, 46848, Note_on_c, 4, 50, 0
5, 46848, Note_on_c, 4, 51, 30
5, 46880, Note_on_c, 4, 51, 0
5, 47520, Note_on_c, 4, 42, 30
5, 47544, Note_on_c, 4, 42, 0
5, 47544, Note_on_c, 4, 40, 30
5, 47568, Note_on_c, 4, 40, 0
5, 47568, Note_on_c, 4, 42, 30
5, 47592, Note_on_c, 4, 42, 0
5, 47592, Note_on_c, 4, 43, 30
5, 47616, Note_on_c, 4, 43, 0
5, 47616, Note_on_c, 4, 45, 30
5, 47640, Note_on_c, 4, 45, 0
5, 47640, Note_on_c, 4, 43, 30
5, 47664, Note_on_c, 4, 43, 0
5, 47664, Note_on_c, 4, 45, 30
5, 47688, Note_on_c, 4, 45, 0
5, 47688, Note_on_c, 4, 46, 30
5, 47712, Note_on_c, 4, 46, 0
5, 47712, Note_on_c, 4, 48, 30
5, 47744, Note_on_c, 4, 48, 0
5, 48384, Note_on_c, 4, 43, 30
5, 48408, Note_on_c, 4, 43, 0
5, 48408, Note_on_c, 4, 42, 30
5, 48432, Note_on_c, 4, 42, 0
5, 48432, Note_on_c, 4, 43, 30
5, 48456, Note_on_c, 4, 43, 0
5, 48456, Note_on_c, 4, 45, 30
5, 48480, Note_on_c, 4, 45, 0
5, 48480, Note_on_c, 4, 46, 30
5, 48504, Note_on_c, 4, 46, 0
5, 48504, Note_on_c, 4, 45, 30
5, 48528, Note_on_c, 4, 45, 0
5, 48528, Note_on_c, 4, 46, 30
5, 48552, Note_on_c, 4, 46, 0
5, 48552, Note_on_c, 4, 48, 30
5, 48576, Note_on_c, 4, 48, 0
5, 48576, Note_on_c, 4, 50, 30
5, 48608, Note_on_c, 4, 50, 0
5, 49248, Note_on_c, 4, 39, 30
5, 49272, Note_on_c, 4, 39, 0
5, 49272, Note_on_c, 4, 38, 31
5, 49296, Note_on_c, 4, 38, 0
5, 49296, Note_on_c, 4, 39, 32
5, 49320, Note_on_c, 4, 39, 0
5, 49320, Note_on_c, 4, 41, 33
5, 49344, Note_on_c, 4, 41, 0
5, 49344, Note_on_c, 4, 43, 34
5, 49368, Note_on_c, 4, 43, 0
5, 49368, Note_on_c, 4, 41, 35
5, 49392, Note_on_c, 4, 41, 0
5, 49392, Note_on_c, 4, 43, 36
5, 49416, Note_on_c, 4, 43, 0
5, 49416, Note_on_c, 4, 44, 37
5, 49440, Note_on_c, 4, 44, 0
5, 49440, Note_on_c, 4, 46, 38
5, 49472, Note_on_c, 4, 46, 0
5, 50112, Note_on_c, 4, 49, 92
5, 50272, Note_on_c, 4, 49, 0
5, 50976, Note_on_c, 4, 50, 45
5, 51136, Note_on_c, 4, 50, 0
5, 51840, Note_on_c, 4, 43, 30
5, 52000, Note_on_c, 4, 43, 0
5, 52704, Note_on_c, 4, 45, 10
5, 52864, Note_on_c, 4, 45, 0
5, 53568, Note_on_c, 4, 50, 30
5, 53636, Note_on_c, 4, 50, 0
5, 53664, Note_on_c, 4, 50, 30
5, 53732, Note_on_c, 4, 50, 0
5, 53760, Note_on_c, 4, 50, 30
5, 53792, Note_on_c, 4, 50, 0
5, 53856, Note_on_c, 4, 53, 30
5, 53950, Note_on_c, 4, 53, 0
5, 53952, Note_on_c, 4, 53, 30
5, 54046, Note_on_c, 4, 53, 0
5, 54048, Note_on_c, 4, 53, 30
5, 54142, Note_on_c, 4, 53, 0
5, 54144, Note_on_c, 4, 52, 30
5, 54238, Note_on_c, 4, 52, 0
5, 54240, Note_on_c, 4, 52, 30
5, 54334, Note_on_c, 4, 52, 0
5, 54336, Note_on_c, 4, 52, 30
5, 54430, Note_on_c, 4, 52, 0
5, 54432, Note_on_c, 4, 50, 30
5, 54526, Note_on_c, 4, 50, 0
5, 54528, Note_on_c, 4, 50, 31
5, 54622, Note_on_c, 4, 50, 0
5, 54624, Note_on_c, 4, 50, 32
5, 54718, Note_on_c, 4, 50, 0
5, 54720, Note_on_c, 4, 53, 33
5, 54814, Note_on_c, 4, 53, 0
5, 54816, Note_on_c, 4, 53, 34
5, 54910, Note_on_c, 4, 53, 0
5, 54912, Note_on_c, 4, 53, 35
5, 55006, Note_on_c, 4, 53, 0
5, 55008, Note_on_c, 4, 52, 36
5, 55102, Note_on_c, 4, 52, 0
5, 55104, Note_on_c, 4, 52, 38
5, 55198, Note_on_c, 4, 52, 0
5, 55200, Note_on_c, 4, 52, 40
5, 55294, Note_on_c, 4, 52, 0
5, 55296, Note_on_c, 4, 50, 42
5, 55390, Note_on_c, 4, 50, 0
5, 55392, Note_on_c, 4, 50, 44
5, 55486, Note_on_c, 4, 50, 0
5, 55488, Note_on_c, 4, 50, 46
5, 55582, Note_on_c, 4, 50, 0
5, 55584, Note_on_c, 4, 53, 48
5, 55678, Note_on_c, 4, 53, 0
5, 55680, Note_on_c, 4, 53, 50
5, 55774, Note_on_c, 4, 53, 0
5, 55776, Note_on_c, 4, 53, 52
5, 55870, Note_on_c, 4, 53, 0
5, 55872, Note_on_c, 4, 57, 54
5, 55966, Note_on_c, 4, 57, 0
5, 55968, Note_on_c, 4, 57, 56
5, 56062, Note_on_c, 4, 57, 0
5, 56064, Note_on_c, 4, 57, 58
5, 56158, Note_on_c, 4, 57, 0
5, 56160, Note_on_c, 4, 38, 45
5, 56254, Note_on_c, 4, 38, 0
5, 56256, Note_on_c, 4, 50, 45
5, 56350, Note_on_c, 4, 50, 0
5, 56352, Note_on_c, 4, 50, 45
5, 56446, Note_on_c, 4, 50, 0
5, 56448, Note_on_c, 4, 38, 45
5, 56542, Note_on_c, 4, 38, 0
5, 56544, Note_on_c, 4, 50, 45
5, 56638, Note_on_c, 4, 50, 0
5, 56640, Note_on_c, 4, 50, 45
5, 56734, Note_on_c, 4, 50, 0
5, 56736, Note_on_c, 4, 38, 45
5, 56830, Note_on_c, 4, 38, 0
5, 56832, Note_on_c, 4, 50, 45
5, 56926, Note_on_c, 4, 50, 0
5, 56928, Note_on_c, 4, 50, 45
5, 57022, Note_on_c, 4, 50, 0
5, 57024, Note_on_c, 4, 40, 92
5, 57118, Note_on_c, 4, 40, 0
5, 57120, Note_on_c, 4, 52, 92
5, 57214, Note_on_c, 4, 52, 0
5, 57216, Note_on_c, 4, 52, 92
5, 57310, Note_on_c, 4, 52, 0
5, 57312, Note_on_c, 4, 40, 92
5, 57406, Note_on_c, 4, 40, 0
5, 57408, Note_on_c, 4, 52, 92
5, 57502, Note_on_c, 4, 52, 0
5, 57504, Note_on_c, 4, 52, 92
5, 57598, Note_on_c, 4, 52, 0
5, 57600, Note_on_c, 4, 40, 92
5, 57694, Note_on_c, 4, 40, 0
5, 57696, Note_on_c, 4, 52, 92
5, 57790, Note_on_c, 4, 52, 0
5, 57792, Note_on_c, 4, 52, 92
5, 57886, Note_on_c, 4, 52, 0
5, 57888, Note_on_c, 4, 40, 45
5, 57982, Note_on_c, 4, 40, 0
5, 57984, Note_on_c, 4, 52, 45
5, 58078, Note_on_c, 4, 52, 0
5, 58080, Note_on_c, 4, 52, 45
5, 58174, Note_on_c, 4, 52, 0
5, 58176, Note_on_c, 4, 40, 45
5, 58270, Note_on_c, 4, 40, 0
5, 58272, Note_on_c, 4, 52, 45
5, 58366, Note_on_c, 4, 52, 0
5, 58368, Note_on_c, 4, 52, 45
5, 58462, Note_on_c, 4, 52, 0
5, 58464, Note_on_c, 4, 40, 45
5, 58558, Note_on_c, 4, 40, 0
5, 58560, Note_on_c, 4, 52, 45
5, 58654, Note_on_c, 4, 52, 0
5, 58656, Note_on_c, 4, 52, 45
5, 58750, Note_on_c, 4, 52, 0
5, 58752, Note_on_c, 4, 41, 92
5, 58846, Note_on_c, 4, 41, 0
5, 58848, Note_on_c, 4, 53, 92
5, 58942, Note_on_c, 4, 53, 0
5, 58944, Note_on_c, 4, 53, 92
5, 59038, Note_on_c, 4, 53, 0
5, 59040, Note_on_c, 4, 41, 92
5, 59134, Note_on_c, 4, 41, 0
5, 59136, Note_on_c, 4, 53, 92
5, 59230, Note_on_c, 4, 53, 0
5, 59232, Note_on_c, 4, 53, 92
5, 59326, Note_on_c, 4, 53, 0
5, 59328, Note_on_c, 4, 41, 92
5, 59422, Note_on_c, 4, 41, 0
5, 59424, Note_on_c, 4, 53, 92
5, 59518, Note_on_c, 4, 53, 0
5, 59520, Note_on_c, 4, 53, 92
5, 59614, Note_on_c, 4, 53, 0
5, 59616, Note_on_c, 4, 43, 45
5, 59710, Note_on_c, 4, 43, 0
5, 59712, Note_on_c, 4, 55, 45
5, 59806, Note_on_c, 4, 55, 0
5, 59808, Note_on_c, 4, 55, 45
5, 59902, Note_on_c, 4, 55, 0
5, 59904, Note_on_c, 4, 43, 45
5, 59998, Note_on_c, 4, 43, 0
5, 60000, Note_on_c, 4, 55, 45
5, 60094, Note_on_c, 4, 55, 0
5, 60096, Note_on_c, 4, 55, 45
5, 60190, Note_on_c, 4, 55, 0
5, 60192, Note_on_c, 4, 44, 45
5, 60286, Note_on_c, 4, 44, 0
5, 60288, Note_on_c, 4, 56, 45
5, 60382, Note_on_c, 4, 56, 0
5, 60384, Note_on_c, 4, 56, 45
5, 60478, Note_on_c, 4, 56, 0
5, 60480, Note_on_c, 4, 45, 45
5, 60640, Note_on_c, 4, 45, 0
5, 60864, Note_on_c, 4, 49, 45
5, 60960, Note_on_c, 4, 49, 0
5, 60960, Note_on_c, 4, 52, 45
5, 61056, Note_on_c, 4, 52, 0
5, 61056, Note_on_c, 4, 50, 45
5, 61152, Note_on_c, 4, 50, 0
5, 61152, Note_on_c, 4, 43, 45
5, 61248, Note_on_c, 4, 43, 0
5, 61248, Note_on_c, 4, 44, 45
5, 61342, Note_on_c, 4, 44, 0
5, 61344, Note_on_c, 4, 45, 45
5, 61440, Note_on_c, 4, 45, 0
5, 61440, Note_on_c, 4, 46, 45
5, 61536, Note_on_c, 4, 46, 0
5, 61536, Note_on_c, 4, 44, 51
5, 61632, Note_on_c, 4, 44, 0
5, 61632, Note_on_c, 4, 45, 57
5, 61728, Note_on_c, 4, 45, 0
5, 61728, Note_on_c, 4, 49, 63
5, 61824, Note_on_c, 4, 49, 0
5, 61824, Note_on_c, 4, 52, 69
5, 61920, Note_on_c, 4, 52, 0
5, 61920, Note_on_c, 4, 50, 75
5, 62016, Note_on_c, 4, 50, 0
5, 62016, Note_on_c, 4, 43, 65
5, 62112, Note_on_c, 4, 43, 0
5, 62112, Note_on_c, 4, 44, 55
5, 62206, Note_on_c, 4, 44, 0
5, 62208, Note_on_c, 4, 45, 45
5, 62368, Note_on_c, 4, 45, 0
5, 62784, Note_on_c, 4, 57, 30
5, 63232, Note_on_c, 4, 57, 0
5, 63648, Note_on_c, 4, 46, 42
5, 63936, Note_on_c, 4, 46, 0
5, 63936, Note_on_c, 4, 45, 45
5, 64032, Note_on_c, 4, 45, 0
5, 64032, Note_on_c, 4, 49, 48
5, 64128, Note_on_c, 4, 49, 0
5, 64128, Note_on_c, 4, 52, 51
5, 64224, Note_on_c, 4, 52, 0
5, 64224, Note_on_c, 4, 57, 54
5, 64320, Note_on_c, 4, 57, 0
5, 64320, Note_on_c, 4, 55, 57
5, 64416, Note_on_c, 4, 55, 0
5, 64416, Note_on_c, 4, 54, 60
5, 64512, Note_on_c, 4, 54, 0
5, 64512, Note_on_c, 4, 52, 63
5, 64608, Note_on_c, 4, 52, 0
5, 64608, Note_on_c, 4, 50, 67
5, 64704, Note_on_c, 4, 50, 0
5, 64704, Note_on_c, 4, 49, 71
5, 64798, Note_on_c, 4, 49, 0
5, 64800, Note_on_c, 4, 50, 45
5, 64960, Note_on_c, 4, 50, 0
5, 65664, Note_on_c, 4, 55, 45
5, 65952, Note_on_c, 4, 55, 0
5, 65952, Note_on_c, 4, 54, 45
5, 66240, Note_on_c, 4, 54, 0
5, 66240, Note_on_c, 4, 49, 45
5, 66496, Note_on_c, 4, 49, 0
5, 66528, Note_on_c, 4, 50, 45
5, 66688, Note_on_c, 4, 50, 0
5, 67392, Note_on_c, 4, 55, 45
5, 67680, Note_on_c, 4, 55, 0
5, 67680, Note_on_c, 4, 54, 45
5, 67968, Note_on_c, 4, 54, 0
5, 67968, Note_on_c, 4, 49, 45
5, 68224, Note_on_c, 4, 49, 0
5, 68256, Note_on_c, 4, 50, 45
5, 68416, Note_on_c, 4, 50, 0
5, 69168, Note_on_c, 4, 53, 45
5, 69216, Note_on_c, 4, 53, 0
5, 69216, Note_on_c, 4, 54, 45
5, 69264, Note_on_c, 4, 54, 0
5, 69264, Note_on_c, 4, 52, 45
5, 69312, Note_on_c, 4, 52, 0
5, 69312, Note_on_c, 4, 50, 45
5, 69360, Note_on_c, 4, 50, 0
5, 69360, Note_on_c, 4, 49, 45
5, 69408, Note_on_c, 4, 49, 0
5, 69408, Note_on_c, 4, 47, 45
5, 69456, Note_on_c, 4, 47, 0
5, 69456, Note_on_c, 4, 46, 45
5, 69504, Note_on_c, 4, 46, 0
5, 69504, Note_on_c, 4, 47, 45
5, 69552, Note_on_c, 4, 47, 0
5, 69552, Note_on_c, 4, 45, 45
5, 69600, Note_on_c, 4, 45, 0
5, 69600, Note_on_c, 4, 43, 45
5, 69648, Note_on_c, 4, 43, 0
5, 69648, Note_on_c, 4, 42, 45
5, 69696, Note_on_c, 4, 42, 0
5, 69696, Note_on_c, 4, 40, 45
5, 69744, Note_on_c, 4, 40, 0
5, 69744, Note_on_c, 4, 47, 45
5, 69792, Note_on_c, 4, 47, 0
5, 69792, Note_on_c, 4, 52, 45
5, 69840, Note_on_c, 4, 52, 0
5, 69840, Note_on_c, 4, 50, 45
5, 69888, Note_on_c, 4, 50, 0
5, 69888, Note_on_c, 4, 49, 45
5, 69936, Note_on_c, 4, 49, 0
5, 69936, Note_on_c, 4, 47, 45
5, 69982, Note_on_c, 4, 47, 0
5, 69984, Note_on_c, 4, 45, 45
5, 70560, Note_on_c, 4, 45, 0
5, 70560, Note_on_c, 4, 46, 60
5, 70816, Note_on_c, 4, 46, 0
5, 70848, Note_on_c, 4, 43, 67
5, 71104, Note_on_c, 4, 43, 0
5, 71136, Note_on_c, 4, 46, 105
5, 71424, Note_on_c, 4, 46, 0
5, 71424, Note_on_c, 4, 45, 60
5, 71680, Note_on_c, 4, 45, 0
5, 71712, Note_on_c, 4, 50, 45
5, 71872, Note_on_c, 4, 50, 0
5, 72288, Note_on_c, 4, 55, 45
5, 72336, Note_on_c, 4, 55, 0
5, 72336, Note_on_c, 4, 54, 45
5, 72384, Note_on_c, 4, 54, 0
5, 72384, Note_on_c, 4, 55, 45
5, 72432, Note_on_c, 4, 55, 0
5, 72432, Note_on_c, 4, 54, 45
5, 72480, Note_on_c, 4, 54, 0
5, 72480, Note_on_c, 4, 52, 45
5, 72528, Note_on_c, 4, 52, 0
5, 72528, Note_on_c, 4, 50, 45
5, 72574, Note_on_c, 4, 50, 0
5, 72576, Note_on_c, 4, 48, 45
5, 72624, Note_on_c, 4, 48, 0
5, 72624, Note_on_c, 4, 47, 45
5, 72672, Note_on_c, 4, 47, 0
5, 72672, Note_on_c, 4, 48, 45
5, 72720, Note_on_c, 4, 48, 0
5, 72720, Note_on_c, 4, 47, 45
5, 72768, Note_on_c, 4, 47, 0
5, 72768, Note_on_c, 4, 45, 45
5, 72816, Note_on_c, 4, 45, 0
5, 72816, Note_on_c, 4, 43, 45
5, 72864, Note_on_c, 4, 43, 0
5, 72864, Note_on_c, 4, 42, 45
5, 72912, Note_on_c, 4, 42, 0
5, 72912, Note_on_c, 4, 43, 45
5, 72960, Note_on_c, 4, 43, 0
5, 72960, Note_on_c, 4, 42, 45
5, 73008, Note_on_c, 4, 42, 0
5, 73008, Note_on_c, 4, 43, 45
5, 73056, Note_on_c, 4, 43, 0
5, 73056, Note_on_c, 4, 45, 45
5, 73104, Note_on_c, 4, 45, 0
5, 73104, Note_on_c, 4, 43, 45
5, 73150, Note_on_c, 4, 43, 0
5, 73152, Note_on_c, 4, 42, 45
5, 73200, Note_on_c, 4, 42, 0
5, 73200, Note_on_c, 4, 40, 45
5, 73248, Note_on_c, 4, 40, 0
5, 73248, Note_on_c, 4, 42, 45
5, 73296, Note_on_c, 4, 42, 0
5, 73296, Note_on_c, 4, 38, 45
5, 73344, Note_on_c, 4, 38, 0
5, 73344, Note_on_c, 4, 40, 45
5, 73392, Note_on_c, 4, 40, 0
5, 73392, Note_on_c, 4, 42, 45
5, 73438, Note_on_c, 4, 42, 0
5, 73440, Note_on_c, 4, 43, 45
5, 73486, Note_on_c, 4, 43, 0
5, 73488, Note_on_c, 4, 58, 45
5, 73536, Note_on_c, 4, 58, 0
5, 73536, Note_on_c, 4, 55, 45
5, 73584, Note_on_c, 4, 55, 0
5, 73584, Note_on_c, 4, 53, 46
5, 73632, Note_on_c, 4, 53, 0
5, 73632, Note_on_c, 4, 52, 47
5, 73680, Note_on_c, 4, 52, 0
5, 73680, Note_on_c, 4, 50, 48
5, 73728, Note_on_c, 4, 50, 0
5, 73728, Note_on_c, 4, 49, 49
5, 73776, Note_on_c, 4, 49, 0
5, 73776, Note_on_c, 4, 47, 50
5, 73824, Note_on_c, 4, 47, 0
5, 73824, Note_on_c, 4, 49, 51
5, 73872, Note_on_c, 4, 49, 0
5, 73872, Note_on_c, 4, 45, 52
5, 73920, Note_on_c, 4, 45, 0
5, 73920, Note_on_c, 4, 47, 53
5, 73968, Note_on_c, 4, 47, 0
5, 73968, Note_on_c, 4, 49, 54
5, 74016, Note_on_c, 4, 49, 0
5, 74016, Note_on_c, 4, 50, 55
5, 74064, Note_on_c, 4, 50, 0
5, 74064, Note_on_c, 4, 49, 56
5, 74112, Note_on_c, 4, 49, 0
5, 74112, Note_on_c, 4, 50, 57
5, 74160, Note_on_c, 4, 50, 0
5, 74160, Note_on_c, 4, 45, 58
5, 74208, Note_on_c, 4, 45, 0
5, 74208, Note_on_c, 4, 41, 59
5, 74256, Note_on_c, 4, 41, 0
5, 74256, Note_on_c, 4, 38, 61
5, 74302, Note_on_c, 4, 38, 0
5, 74304, Note_on_c, 4, 43, 63
5, 74560, Note_on_c, 4, 43, 0
5, 74592, Note_on_c, 4, 46, 105
5, 74880, Note_on_c, 4, 46, 0
5, 74880, Note_on_c, 4, 45, 60
5, 75136, Note_on_c, 4, 45, 0
5, 75168, Note_on_c, 4, 38, 45
5, 75262, Note_on_c, 4, 38, 0
5, 75264, Note_on_c, 4, 50, 45
5, 75358, Note_on_c, 4, 50, 0
5, 75360, Note_on_c, 4, 50, 45
5, 75454, Note_on_c, 4, 50, 0
5, 75456, Note_on_c, 4, 50, 45
5, 75616, Note_on_c, 4, 50, 0
5, 76032, Note_on_c, 4, 38, 45
5, 76126, Note_on_c, 4, 38, 0
5, 76128, Note_on_c, 4, 50, 45
5, 76222, Note_on_c, 4, 50, 0
5, 76224, Note_on_c, 4, 50, 45
5, 76318, Note_on_c, 4, 50, 0
5, 76320, Note_on_c, 4, 50, 45
5, 76480, Note_on_c, 4, 50, 0
5, 76896, Note_on_c, 4, 50, 45
5, 76990, Note_on_c, 4, 50, 0
5, 76992, Note_on_c, 4, 62, 45
5, 77086, Note_on_c, 4, 62, 0
5, 77088, Note_on_c, 4, 62, 45
5, 77182, Note_on_c, 4, 62, 0
5, 77184, Note_on_c, 4, 62, 45
5, 77344, Note_on_c, 4, 62, 0
5, 78624, Note_on_c, 4, 45, 30
5, 79360, Note_on_c, 4, 45, 0
5, 79392, Note_on_c, 4, 43, 30
5, 79488, Note_on_c, 4, 43, 0
5, 79488, Note_on_c, 4, 42, 30
5, 79680, Note_on_c, 4, 42, 0
5, 79680, Note_on_c, 4, 40, 34
5, 79774, Note_on_c, 4, 40, 0
5, 79776, Note_on_c, 4, 38, 36
5, 79872, Note_on_c, 4, 38, 0
5, 79872, Note_on_c, 4, 50, 38
5, 79968, Note_on_c, 4, 50, 0
5, 79968, Note_on_c, 4, 49, 40
5, 80064, Note_on_c, 4, 49, 0
5, 80064, Note_on_c, 4, 47, 42
5, 80256, Note_on_c, 4, 47, 0
5, 80256, Note_on_c, 4, 46, 46
5, 80350, Note_on_c, 4, 46, 0
5, 80352, Note_on_c, 4, 47, 48
5, 80544, Note_on_c, 4, 47, 0
5, 80544, Note_on_c, 4, 43, 52
5, 80638, Note_on_c, 4, 43, 0
5, 80640, Note_on_c, 4, 45, 54
5, 80896, Note_on_c, 4, 45, 0
5, 80928, Note_on_c, 4, 45, 60
5, 81184, Note_on_c, 4, 45, 0
5, 81216, Note_on_c, 4, 50, 30
5, 81376, Note_on_c, 4, 50, 0
5, 82080, Note_on_c, 4, 57, 45
5, 82656, Note_on_c, 4, 57, 0
5, 82656, Note_on_c, 4, 57, 45
5, 82944, Note_on_c, 4, 57, 0
5, 82944, Note_on_c, 4, 57, 60
5, 83200, Note_on_c, 4, 57, 0
5, 83232, Note_on_c, 4, 62, 76
5, 83520, Note_on_c, 4, 62, 0
5, 83520, Note_on_c, 4, 64, 92
5, 83776, Note_on_c, 4, 64, 0
5, 83808, Note_on_c, 4, 65, 108
5, 84288, Note_on_c, 4, 65, 0
5, 84288, Note_on_c, 4, 64, 45
5, 84336, Note_on_c, 4, 64, 0
5, 84336, Note_on_c, 4, 62, 45
5, 84382, Note_on_c, 4, 62, 0
5, 84384, Note_on_c, 4, 62, 45
5, 84432, Note_on_c, 4, 62, 0
5, 84432, Note_on_c, 4, 64, 45
5, 84456, Note_on_c, 4, 64, 0
5, 84456, Note_on_c, 4, 62, 45
5, 84480, Note_on_c, 4, 62, 0
5, 84480, Note_on_c, 4, 61, 45
5, 84528, Note_on_c, 4, 61, 0
5, 84528, Note_on_c, 4, 62, 45
5, 84576, Note_on_c, 4, 62, 0
5, 84576, Note_on_c, 4, 65, 60
5, 84624, Note_on_c, 4, 65, 0
5, 84624, Note_on_c, 4, 64, 45
5, 84670, Note_on_c, 4, 64, 0
5, 84672, Note_on_c, 4, 62, 92
5, 84960, Note_on_c, 4, 62, 0
5, 84960, Note_on_c, 4, 61, 92
5, 85342, Note_on_c, 4, 61, 0
5, 85344, Note_on_c, 4, 61, 92
5, 85392, Note_on_c, 4, 61, 0
5, 85392, Note_on_c, 4, 62, 92
5, 85440, Note_on_c, 4, 62, 0
5, 85440, Note_on_c, 4, 64, 92
5, 85488, Note_on_c, 4, 64, 0
5, 85488, Note_on_c, 4, 65, 92
5, 85534, Note_on_c, 4, 65, 0
5, 85536, Note_on_c, 4, 67, 45
5, 85918, Note_on_c, 4, 67, 0
5, 85920, Note_on_c, 4, 69, 52
5, 85932, Note_on_c, 4, 69, 0
5, 85932, Note_on_c, 4, 67, 53
5, 85968, Note_on_c, 4, 67, 0
5, 85968, Note_on_c, 4, 66, 56
5, 86016, Note_on_c, 4, 66, 0
5, 86016, Note_on_c, 4, 67, 60
5, 86064, Note_on_c, 4, 67, 0
5, 86064, Note_on_c, 4, 69, 64
5, 86110, Note_on_c, 4, 69, 0
5, 86112, Note_on_c, 4, 70, 68
5, 86304, Note_on_c, 4, 70, 0
5, 86304, Note_on_c, 4, 61, 84
5, 86398, Note_on_c, 4, 61, 0
5, 86400, Note_on_c, 4, 64, 92
5, 86688, Note_on_c, 4, 64, 0
5, 86688, Note_on_c, 4, 62, 92
5, 87070, Note_on_c, 4, 62, 0
5, 87072, Note_on_c, 4, 41, 92
5, 87104, Note_on_c, 4, 41, 0
5, 87168, Note_on_c, 4, 41, 92
5, 87200, Note_on_c, 4, 41, 0
5, 87264, Note_on_c, 4, 43, 92
5, 87424, Note_on_c, 4, 43, 0
5, 88128, Note_on_c, 4, 45, 92
5, 88288, Note_on_c, 4, 45, 0
5, 88992, Note_on_c, 4, 46, 92
5, 89152, Note_on_c, 4, 46, 0
5, 89856, Note_on_c, 4, 44, 108
5, 89902, Note_on_c, 4, 44, 0
5, 89904, Note_on_c, 4, 44, 103
5, 89950, Note_on_c, 4, 44, 0
5, 89952, Note_on_c, 4, 44, 98
5, 89998, Note_on_c, 4, 44, 0
5, 90000, Note_on_c, 4, 44, 93
5, 90046, Note_on_c, 4, 44, 0
5, 90048, Note_on_c, 4, 44, 88
5, 90094, Note_on_c, 4, 44, 0
5, 90096, Note_on_c, 4, 44, 83
5, 90142, Note_on_c, 4, 44, 0
5, 90144, Note_on_c, 4, 44, 78
5, 90190, Note_on_c, 4, 44, 0
5, 90192, Note_on_c, 4, 44, 73
5, 90238, Note_on_c, 4, 44, 0
5, 90240, Note_on_c, 4, 44, 68
5, 90286, Note_on_c, 4, 44, 0
5, 90288, Note_on_c, 4, 44, 63
5, 90334, Note_on_c, 4, 44, 0
5, 90336, Note_on_c, 4, 44, 57
5, 90382, Note_on_c, 4, 44, 0
5, 90384, Note_on_c, 4, 44, 51
5, 90430, Note_on_c, 4, 44, 0
5, 90432, Note_on_c, 4, 45, 45
5, 90478, Note_on_c, 4, 45, 0
5, 90480, Note_on_c, 4, 45, 45
5, 90526, Note_on_c, 4, 45, 0
5, 90528, Note_on_c, 4, 45, 45
5, 90574, Note_on_c, 4, 45, 0
5, 90576, Note_on_c, 4, 45, 45
5, 90622, Note_on_c, 4, 45, 0
5, 90624, Note_on_c, 4, 45, 45
5, 90670, Note_on_c, 4, 45, 0
5, 90672, Note_on_c, 4, 45, 45
5, 90718, Note_on_c, 4, 45, 0
5, 90720, Note_on_c, 4, 38, 45
5, 90880, Note_on_c, 4, 38, 0
5, 91584, Note_on_c, 4, 45, 75
5, 91872, Note_on_c, 4, 45, 0
5, 91872, Note_on_c, 4, 50, 45
5, 92032, Note_on_c, 4, 50, 0
5, 92448, Note_on_c, 4, 45, 75
5, 92736, Note_on_c, 4, 45, 0
5, 92736, Note_on_c, 4, 50, 45
5, 92896, Note_on_c, 4, 50, 0
5, 93312, Note_on_c, 4, 45, 45
5, 94144, Note_on_c, 4, 45, 0
5, 94176, Note_on_c, 4, 38, 30
5, 94336, Note_on_c, 4, 38, 0
5, 94464, Note_on_c, 4, 50, 30
5, 94624, Note_on_c, 4, 50, 0
5, 94624, End_track
6, 0, Start_track
6, 0, End_track
0, 0, End_of_file