0, 0, Header, 1, 2, 240
1, 0, Start_track
1, 0, Time_signature, 2, 2, 24, 8
1, 0, Tempo, 500000
1, 480, Time_signature, 4, 2, 24, 8
1, 48480, Time_signature, 2, 2, 24, 8
1, 49440, Time_signature, 4, 2, 24, 8
1, 49440, End_track
2, 0, Start_track
2, 0, Program_c, 0, 0
2, 0, Note_on_c, 0, 64, 64
2, 0, Note_on_c, 0, 60, 64
2, 0, Note_on_c, 0, 72, 64
2, 120, Note_off_c, 0, 60, 64
2, 120, Note_off_c, 0, 64, 64
2, 120, Note_on_c, 0, 67, 64
2, 235, Note_off_c, 0, 72, 64
2, 240, Note_off_c, 0, 67, 64
2, 240, Note_on_c, 0, 64, 64
2, 240, Note_on_c, 0, 60, 64
2, 240, Note_on_c, 0, 72, 64
2, 360, Note_off_c, 0, 60, 64
2, 360, Note_off_c, 0, 64, 64
2, 360, Note_on_c, 0, 67, 64
2, 475, Note_off_c, 0, 72, 64
2, 480, Note_off_c, 0, 67, 64
2, 480, Note_on_c, 0, 65, 64
2, 480, Note_on_c, 0, 62, 64
2, 480, Note_on_c, 0, 72, 64
2, 600, Note_off_c, 0, 72, 64
2, 600, Note_off_c, 0, 62, 64
2, 600, Note_off_c, 0, 65, 64
2, 600, Note_on_c, 0, 67, 64
2, 600, Note_on_c, 0, 71, 64
2, 720, Note_off_c, 0, 71, 64
2, 720, Note_off_c, 0, 67, 64
2, 720, Note_on_c, 0, 69, 64
2, 720, Note_on_c, 0, 65, 64
2, 720, Note_on_c, 0, 62, 64
2, 840, Note_off_c, 0, 62, 64
2, 840, Note_off_c, 0, 65, 64
2, 840, Note_off_c, 0, 69, 64
2, 840, Note_on_c, 0, 67, 64
2, 840, Note_on_c, 0, 71, 64
2, 948, Note_off_c, 0, 71, 64
2, 960, Note_off_c, 0, 67, 64
2, 960, Note_on_c, 0, 60, 64
2, 960, Note_on_c, 0, 72, 64
2, 960, Note_on_c, 0, 64, 64
2, 1080, Note_off_c, 0, 64, 64
2, 1080, Note_off_c, 0, 72, 64
2, 1080, Note_off_c, 0, 60, 64
2, 1080, Note_on_c, 0, 67, 64
2, 1080, Note_on_c, 0, 74, 64
2, 1110, Note_off_c, 0, 74, 64
2, 1110, Note_on_c, 0, 72, 64
2, 1140, Note_off_c, 0, 72, 64
2, 1140, Note_on_c, 0, 71, 64
2, 1170, Note_off_c, 0, 71, 64
2, 1170, Note_on_c, 0, 72, 64
2, 1197, Note_off_c, 0, 72, 64
2, 1200, Note_off_c, 0, 67, 64
2, 1200, Note_on_c, 0, 64, 64
2, 1200, Note_on_c, 0, 60, 64
2, 1200, Note_on_c, 0, 72, 64
2, 1320, Note_off_c, 0, 60, 64
2, 1320, Note_off_c, 0, 64, 64
2, 1320, Note_on_c, 0, 67, 64
2, 1380, Note_off_c, 0, 72, 64
2, 1380, Note_on_c, 0, 76, 64
2, 1434, Note_off_c, 0, 76, 64
2, 1440, Note_off_c, 0, 67, 64
2, 1440, Note_on_c, 0, 79, 64
2, 1440, Note_on_c, 0, 62, 64
2, 1440, Note_on_c, 0, 59, 64
2, 1560, Note_off_c, 0, 59, 64
2, 1560, Note_off_c, 0, 62, 64
2, 1560, Note_on_c, 0, 67, 64
2, 1680, Note_off_c, 0, 67, 64
2, 1680, Note_on_c, 0, 62, 64
2, 1680, Note_on_c, 0, 59, 64
2, 1800, Note_off_c, 0, 59, 64
2, 1800, Note_off_c, 0, 62, 64
2, 1800, Note_on_c, 0, 67, 64
2, 1872, Note_off_c, 0, 79, 64
2, 1920, Note_off_c, 0, 67, 64
2, 1920, Note_on_c, 0, 57, 64
2, 1920, Note_on_c, 0, 60, 64
2, 1920, Note_on_c, 0, 77, 64
2, 2040, Note_off_c, 0, 77, 64
2, 2040, Note_off_c, 0, 60, 64
2, 2040, Note_off_c, 0, 57, 64
2, 2040, Note_on_c, 0, 65, 64
2, 2040, Note_on_c, 0, 81, 64
2, 2160, Note_off_c, 0, 65, 64
2, 2160, Note_on_c, 0, 59, 64
2, 2160, Note_on_c, 0, 62, 64
2, 2280, Note_off_c, 0, 62, 64
2, 2280, Note_off_c, 0, 59, 64
2, 2280, Note_off_c, 0, 81, 64
2, 2280, Note_on_c, 0, 67, 64
2, 2280, Note_on_c, 0, 79, 64
2, 2340, Note_off_c, 0, 79, 64
2, 2340, Note_on_c, 0, 77, 64
2, 2394, Note_off_c, 0, 77, 64
2, 2400, Note_off_c, 0, 67, 64
2, 2400, Note_on_c, 0, 60, 64
2, 2400, Note_on_c, 0, 76, 64
2, 2520, Note_off_c, 0, 76, 64
2, 2520, Note_off_c, 0, 60, 64
2, 2520, Note_on_c, 0, 79, 64
2, 2520, Note_on_c, 0, 64, 64
2, 2628, Note_off_c, 0, 64, 64
2, 2640, Note_on_c, 0, 55, 64
2, 2640, Note_on_c, 0, 52, 64
2, 2760, Note_off_c, 0, 52, 64
2, 2760, Note_off_c, 0, 55, 64
2, 2760, Note_off_c, 0, 79, 64
2, 2760, Note_on_c, 0, 77, 64
2, 2760, Note_on_c, 0, 60, 64
2, 2820, Note_off_c, 0, 77, 64
2, 2820, Note_on_c, 0, 76, 64
2, 2874, Note_off_c, 0, 76, 64
2, 2880, Note_off_c, 0, 60, 64
2, 2880, Note_on_c, 0, 53, 64
2, 2880, Note_on_c, 0, 74, 64
2, 2880, Note_on_c, 0, 53, 64
2, 2934, Note_off_c, 0, 74, 64
2, 2940, Note_on_c, 0, 76, 64
2, 3000, Note_off_c, 0, 76, 64
2, 3000, Note_off_c, 0, 53, 64
2, 3000, Note_on_c, 0, 77, 64
2, 3000, Note_on_c, 0, 57, 64
2, 3060, Note_off_c, 0, 77, 64
2, 3060, Note_on_c, 0, 76, 64
2, 3120, Note_off_c, 0, 76, 64
2, 3120, Note_off_c, 0, 57, 64
2, 3120, Note_on_c, 0, 79, 64
2, 3120, Note_on_c, 0, 62, 64
2, 3180, Note_off_c, 0, 79, 64
2, 3180, Note_on_c, 0, 77, 64
2, 3240, Note_off_c, 0, 77, 64
2, 3240, Note_off_c, 0, 62, 64
2, 3240, Note_on_c, 0, 65, 64
2, 3240, Note_on_c, 0, 76, 64
2, 3300, Note_off_c, 0, 76, 64
2, 3300, Note_on_c, 0, 74, 64
2, 3348, Note_off_c, 0, 65, 64
2, 3354, Note_off_c, 0, 74, 64
2, 3360, Note_off_c, 0, 53, 64
2, 3360, Note_on_c, 0, 55, 64
2, 3360, Note_on_c, 0, 72, 64
2, 3480, Note_on_c, 0, 64, 64
2, 3600, Note_off_c, 0, 64, 64
2, 3600, Note_off_c, 0, 72, 64
2, 3600, Note_on_c, 0, 62, 64
2, 3600, Note_on_c, 0, 71, 64
2, 3684, Note_off_c, 0, 55, 64
2, 3708, Note_off_c, 0, 71, 64
2, 3708, Note_off_c, 0, 62, 64
2, 3720, Note_on_c, 0, 67, 64
2, 3788, Note_off_c, 0, 67, 64
2, 3810, Note_on_c, 0, 67, 64
2, 3840, Note_off_c, 0, 67, 64
2, 3840, Note_on_c, 0, 64, 64
2, 3840, Note_on_c, 0, 60, 64
2, 3840, Note_on_c, 0, 72, 64
2, 3960, Note_off_c, 0, 60, 64
2, 3960, Note_off_c, 0, 64, 64
2, 3960, Note_on_c, 0, 67, 64
2, 4075, Note_off_c, 0, 72, 64
2, 4080, Note_off_c, 0, 67, 64
2, 4080, Note_on_c, 0, 60, 64
2, 4080, Note_on_c, 0, 72, 64
2, 4080, Note_on_c, 0, 64, 64
2, 4200, Note_off_c, 0, 64, 64
2, 4200, Note_off_c, 0, 60, 64
2, 4200, Note_on_c, 0, 67, 64
2, 4315, Note_off_c, 0, 72, 64
2, 4320, Note_off_c, 0, 67, 64
2, 4320, Note_on_c, 0, 65, 64
2, 4320, Note_on_c, 0, 62, 64
2, 4320, Note_on_c, 0, 72, 64
2, 4440, Note_off_c, 0, 72, 64
2, 4440, Note_off_c, 0, 62, 64
2, 4440, Note_off_c, 0, 65, 64
2, 4440, Note_on_c, 0, 67, 64
2, 4440, Note_on_c, 0, 71, 64
2, 4560, Note_off_c, 0, 71, 64
2, 4560, Note_off_c, 0, 67, 64
2, 4560, Note_on_c, 0, 69, 64
2, 4560, Note_on_c, 0, 65, 64
2, 4560, Note_on_c, 0, 62, 64
2, 4680, Note_off_c, 0, 62, 64
2, 4680, Note_off_c, 0, 65, 64
2, 4680, Note_off_c, 0, 69, 64
2, 4680, Note_on_c, 0, 67, 64
2, 4680, Note_on_c, 0, 71, 64
2, 4788, Note_off_c, 0, 71, 64
2, 4800, Note_off_c, 0, 67, 64
2, 4800, Note_on_c, 0, 64, 64
2, 4800, Note_on_c, 0, 72, 64
2, 4800, Note_on_c, 0, 60, 64
2, 4920, Note_off_c, 0, 60, 64
2, 4920, Note_off_c, 0, 72, 64
2, 4920, Note_off_c, 0, 64, 64
2, 4920, Note_on_c, 0, 67, 64
2, 4920, Note_on_c, 0, 74, 64
2, 4950, Note_off_c, 0, 74, 64
2, 4950, Note_on_c, 0, 72, 64
2, 4980, Note_off_c, 0, 72, 64
2, 4980, Note_on_c, 0, 71, 64
2, 5010, Note_off_c, 0, 71, 64
2, 5010, Note_on_c, 0, 72, 64
2, 5037, Note_off_c, 0, 72, 64
2, 5040, Note_off_c, 0, 67, 64
2, 5040, Note_on_c, 0, 64, 64
2, 5040, Note_on_c, 0, 60, 64
2, 5040, Note_on_c, 0, 72, 64
2, 5160, Note_off_c, 0, 60, 64
2, 5160, Note_off_c, 0, 64, 64
2, 5160, Note_on_c, 0, 67, 64
2, 5220, Note_off_c, 0, 72, 64
2, 5220, Note_on_c, 0, 76, 64
2, 5274, Note_off_c, 0, 76, 64
2, 5280, Note_off_c, 0, 67, 64
2, 5280, Note_on_c, 0, 79, 64
2, 5280, Note_on_c, 0, 59, 64
2, 5280, Note_on_c, 0, 62, 64
2, 5400, Note_off_c, 0, 62, 64
2, 5400, Note_off_c, 0, 59, 64
2, 5400, Note_on_c, 0, 67, 64
2, 5520, Note_off_c, 0, 67, 64
2, 5520, Note_on_c, 0, 59, 64
2, 5520, Note_on_c, 0, 62, 64
2, 5640, Note_off_c, 0, 62, 64
2, 5640, Note_off_c, 0, 59, 64
2, 5640, Note_on_c, 0, 67, 64
2, 5712, Note_off_c, 0, 79, 64
2, 5760, Note_off_c, 0, 67, 64
2, 5760, Note_on_c, 0, 57, 64
2, 5760, Note_on_c, 0, 77, 64
2, 5760, Note_on_c, 0, 60, 64
2, 5880, Note_off_c, 0, 60, 64
2, 5880, Note_off_c, 0, 57, 64
2, 5880, Note_on_c, 0, 65, 64
2, 6000, Note_off_c, 0, 65, 64
2, 6000, Note_on_c, 0, 59, 64
2, 6000, Note_on_c, 0, 62, 64
2, 6060, Note_off_c, 0, 77, 64
2, 6060, Note_on_c, 0, 81, 64
2, 6120, Note_off_c, 0, 81, 64
2, 6120, Note_off_c, 0, 62, 64
2, 6120, Note_off_c, 0, 59, 64
2, 6120, Note_on_c, 0, 67, 64
2, 6120, Note_on_c, 0, 79, 64
2, 6180, Note_off_c, 0, 79, 64
2, 6180, Note_on_c, 0, 77, 64
2, 6234, Note_off_c, 0, 77, 64
2, 6240, Note_off_c, 0, 67, 64
2, 6240, Note_on_c, 0, 60, 64
2, 6240, Note_on_c, 0, 64, 64
2, 6240, Note_on_c, 0, 76, 64
2, 6300, Note_off_c, 0, 76, 64
2, 6300, Note_on_c, 0, 79, 64
2, 6360, Note_off_c, 0, 79, 64
2, 6360, Note_off_c, 0, 64, 64
2, 6360, Note_off_c, 0, 60, 64
2, 6360, Note_on_c, 0, 67, 64
2, 6360, Note_on_c, 0, 77, 64
2, 6420, Note_off_c, 0, 77, 64
2, 6420, Note_on_c, 0, 76, 64
2, 6468, Note_off_c, 0, 67, 64
2, 6480, Note_off_c, 0, 76, 64
2, 6480, Note_on_c, 0, 53, 64
2, 6480, Note_on_c, 0, 74, 64
2, 6540, Note_off_c, 0, 74, 64
2, 6540, Note_on_c, 0, 77, 64
2, 6600, Note_off_c, 0, 77, 64
2, 6600, Note_off_c, 0, 53, 64
2, 6600, Note_on_c, 0, 65, 64
2, 6600, Note_on_c, 0, 76, 64
2, 6660, Note_off_c, 0, 76, 64
2, 6660, Note_on_c, 0, 74, 64
2, 6714, Note_off_c, 0, 74, 64
2, 6720, Note_off_c, 0, 65, 64
2, 6720, Note_on_c, 0, 72, 65
2, 6720, Note_on_c, 0, 55, 65
2, 6840, Note_off_c, 0, 55, 64
2, 6840, Note_off_c, 0, 72, 64
2, 6840, Note_on_c, 0, 64, 70
2, 6840, Note_on_c, 0, 74, 70
2, 6870, Note_off_c, 0, 74, 64
2, 6870, Note_on_c, 0, 72, 71
2, 6900, Note_off_c, 0, 72, 64
2, 6900, Note_on_c, 0, 71, 72
2, 6930, Note_off_c, 0, 71, 64
2, 6930, Note_on_c, 0, 72, 78
2, 6960, Note_off_c, 0, 72, 64
2, 6960, Note_off_c, 0, 64, 64
2, 6960, Note_on_c, 0, 55, 76
2, 6960, Note_on_c, 0, 76, 76
2, 7080, Note_off_c, 0, 76, 64
2, 7080, Note_off_c, 0, 55, 64
2, 7080, Note_on_c, 0, 74, 70
2, 7080, Note_on_c, 0, 65, 70
2, 7188, Note_off_c, 0, 65, 64
2, 7200, Note_off_c, 0, 74, 64
2, 7200, Note_on_c, 0, 48, 64
2, 7200, Note_on_c, 0, 72, 64
2, 7200, Note_on_c, 0, 64, 64
2, 7320, Note_off_c, 0, 48, 64
2, 7320, Note_on_c, 0, 55, 64
2, 7410, Note_off_c, 0, 55, 64
2, 7416, Note_off_c, 0, 64, 64
2, 7416, Note_off_c, 0, 72, 64
2, 7440, Note_on_c, 0, 55, 64
2, 7530, Note_off_c, 0, 55, 64
2, 7560, Note_on_c, 0, 55, 64
2, 7650, Note_off_c, 0, 55, 64
2, 7680, Note_on_c, 0, 60, 84
2, 7680, Note_on_c, 0, 52, 64
2, 7800, Note_off_c, 0, 52, 64
2, 7800, Note_on_c, 0, 55, 64
2, 7800, Note_on_c, 0, 67, 64
2, 7890, Note_off_c, 0, 67, 64
2, 7890, Note_off_c, 0, 55, 64
2, 7920, Note_on_c, 0, 72, 64
2, 7920, Note_on_c, 0, 55, 64
2, 8010, Note_off_c, 0, 55, 64
2, 8010, Note_off_c, 0, 72, 64
2, 8040, Note_on_c, 0, 76, 64
2, 8040, Note_on_c, 0, 55, 64
2, 8112, Note_off_c, 0, 60, 64
2, 8130, Note_off_c, 0, 55, 64
2, 8130, Note_off_c, 0, 76, 64
2, 8160, Note_on_c, 0, 59, 84
2, 8160, Note_on_c, 0, 77, 64
2, 8160, Note_on_c, 0, 50, 64
2, 8280, Note_off_c, 0, 50, 64
2, 8280, Note_on_c, 0, 55, 64
2, 8340, Note_off_c, 0, 77, 64
2, 8340, Note_on_c, 0, 74, 64
2, 8370, Note_off_c, 0, 55, 64
2, 8400, Note_off_c, 0, 74, 64
2, 8400, Note_on_c, 0, 55, 64
2, 8400, Note_on_c, 0, 71, 64
2, 8490, Note_off_c, 0, 55, 64
2, 8520, Note_on_c, 0, 55, 64
2, 8592, Note_off_c, 0, 59, 64
2, 8610, Note_off_c, 0, 55, 64
2, 8616, Note_off_c, 0, 71, 64
2, 8640, Note_on_c, 0, 62, 84
2, 8640, Note_on_c, 0, 53, 64
2, 8760, Note_off_c, 0, 53, 64
2, 8760, Note_on_c, 0, 67, 64
2, 8760, Note_on_c, 0, 55, 64
2, 8850, Note_off_c, 0, 55, 64
2, 8850, Note_off_c, 0, 67, 64
2, 8880, Note_on_c, 0, 71, 64
2, 8880, Note_on_c, 0, 55, 64
2, 8970, Note_off_c, 0, 55, 64
2, 8970, Note_off_c, 0, 71, 64
2, 9000, Note_on_c, 0, 74, 64
2, 9000, Note_on_c, 0, 55, 64
2, 9072, Note_off_c, 0, 62, 64
2, 9090, Note_off_c, 0, 55, 64
2, 9090, Note_off_c, 0, 74, 64
2, 9120, Note_on_c, 0, 60, 84
2, 9120, Note_on_c, 0, 76, 64
2, 9120, Note_on_c, 0, 52, 64
2, 9240, Note_off_c, 0, 52, 64
2, 9240, Note_on_c, 0, 55, 64
2, 9300, Note_off_c, 0, 76, 64
2, 9300, Note_on_c, 0, 72, 64
2, 9330, Note_off_c, 0, 55, 64
2, 9360, Note_off_c, 0, 72, 64
2, 9360, Note_on_c, 0, 55, 64
2, 9360, Note_on_c, 0, 67, 64
2, 9450, Note_off_c, 0, 55, 64
2, 9480, Note_on_c, 0, 55, 64
2, 9552, Note_off_c, 0, 60, 64
2, 9570, Note_off_c, 0, 55, 64
2, 9576, Note_off_c, 0, 67, 64
2, 9600, Note_on_c, 0, 48, 65
2, 9600, Note_on_c, 0, 52, 65
2, 9720, Note_off_c, 0, 52, 64
2, 9720, Note_on_c, 0, 55, 66
2, 9720, Note_on_c, 0, 67, 66
2, 9780, Note_off_c, 0, 67, 64
2, 9780, Note_on_c, 0, 69, 67
2, 9810, Note_off_c, 0, 55, 64
2, 9840, Note_off_c, 0, 69, 64
2, 9840, Note_on_c, 0, 71, 68
2, 9840, Note_on_c, 0, 55, 68
2, 9900, Note_off_c, 0, 71, 64
2, 9900, Note_on_c, 0, 72, 69
2, 9930, Note_off_c, 0, 55, 64
2, 9960, Note_off_c, 0, 72, 64
2, 9960, Note_on_c, 0, 55, 70
2, 9960, Note_on_c, 0, 74, 70
2, 10020, Note_off_c, 0, 74, 64
2, 10020, Note_on_c, 0, 76, 70
2, 10032, Note_off_c, 0, 48, 64
2, 10050, Note_off_c, 0, 55, 64
2, 10074, Note_off_c, 0, 76, 64
2, 10080, Note_on_c, 0, 53, 71
2, 10080, Note_on_c, 0, 50, 71
2, 10080, Note_on_c, 0, 79, 71
2, 10140, Note_off_c, 0, 79, 64
2, 10140, Note_on_c, 0, 77, 72
2, 10194, Note_off_c, 0, 77, 64
2, 10200, Note_off_c, 0, 53, 64
2, 10200, Note_on_c, 0, 55, 73
2, 10200, Note_on_c, 0, 76, 73
2, 10260, Note_off_c, 0, 76, 64
2, 10260, Note_on_c, 0, 74, 74
2, 10290, Note_off_c, 0, 55, 64
2, 10314, Note_off_c, 0, 74, 64
2, 10320, Note_on_c, 0, 72, 94
2, 10320, Note_on_c, 0, 55, 74
2, 10410, Note_off_c, 0, 55, 64
2, 10440, Note_off_c, 0, 72, 64
2, 10440, Note_on_c, 0, 55, 76
2, 10440, Note_on_c, 0, 71, 76
2, 10512, Note_off_c, 0, 50, 64
2, 10530, Note_off_c, 0, 71, 64
2, 10530, Note_off_c, 0, 55, 64
2, 10560, Note_on_c, 0, 47, 78
2, 10560, Note_on_c, 0, 53, 78
2, 10680, Note_off_c, 0, 53, 64
2, 10680, Note_on_c, 0, 79, 79
2, 10680, Note_on_c, 0, 55, 79
2, 10740, Note_off_c, 0, 79, 64
2, 10740, Note_on_c, 0, 81, 80
2, 10770, Note_off_c, 0, 55, 64
2, 10800, Note_off_c, 0, 81, 64
2, 10800, Note_on_c, 0, 83, 81
2, 10800, Note_on_c, 0, 55, 81
2, 10860, Note_off_c, 0, 83, 64
2, 10860, Note_on_c, 0, 84, 82
2, 10890, Note_off_c, 0, 55, 64
2, 10920, Note_off_c, 0, 84, 64
2, 10920, Note_on_c, 0, 55, 82
2, 10920, Note_on_c, 0, 86, 82
2, 10980, Note_off_c, 0, 86, 64
2, 10980, Note_on_c, 0, 87, 83
2, 10992, Note_off_c, 0, 47, 64
2, 11010, Note_off_c, 0, 55, 64
2, 11034, Note_off_c, 0, 87, 64
2, 11040, Note_on_c, 0, 48, 84
2, 11040, Note_on_c, 0, 52, 84
2, 11040, Note_on_c, 0, 88, 84
2, 11100, Note_off_c, 0, 88, 64
2, 11100, Note_on_c, 0, 87, 84
2, 11160, Note_off_c, 0, 87, 64
2, 11160, Note_on_c, 0, 89, 84
2, 11220, Note_off_c, 0, 89, 64
2, 11220, Note_on_c, 0, 88, 84
2, 11256, Note_off_c, 0, 52, 64
2, 11256, Note_off_c, 0, 48, 64
2, 11280, Note_off_c, 0, 88, 64
2, 11280, Note_on_c, 0, 86, 84
2, 11340, Note_off_c, 0, 86, 64
2, 11340, Note_on_c, 0, 84, 84
2, 11400, Note_off_c, 0, 84, 64
2, 11400, Note_on_c, 0, 83, 84
2, 11460, Note_off_c, 0, 83, 64
2, 11460, Note_on_c, 0, 81, 84
2, 11520, Note_off_c, 0, 81, 64
2, 11520, Note_on_c, 0, 79, 85
2, 11565, Note_off_c, 0, 79, 64
2, 11580, Note_on_c, 0, 88, 83
2, 11625, Note_off_c, 0, 88, 64
2, 11640, Note_on_c, 0, 86, 82
2, 11685, Note_off_c, 0, 86, 64
2, 11700, Note_on_c, 0, 84, 81
2, 11745, Note_off_c, 0, 84, 64
2, 11760, Note_on_c, 0, 83, 80
2, 11805, Note_off_c, 0, 83, 64
2, 11820, Note_on_c, 0, 81, 79
2, 11865, Note_off_c, 0, 81, 64
2, 11880, Note_on_c, 0, 79, 78
2, 11925, Note_off_c, 0, 79, 64
2, 11940, Note_on_c, 0, 77, 77
2, 11985, Note_off_c, 0, 77, 64
2, 12000, Note_on_c, 0, 76, 75
2, 12045, Note_off_c, 0, 76, 64
2, 12060, Note_on_c, 0, 84, 74
2, 12105, Note_off_c, 0, 84, 64
2, 12120, Note_on_c, 0, 83, 73
2, 12165, Note_off_c, 0, 83, 64
2, 12180, Note_on_c, 0, 81, 72
2, 12225, Note_off_c, 0, 81, 64
2, 12240, Note_on_c, 0, 79, 71
2, 12285, Note_off_c, 0, 79, 64
2, 12300, Note_on_c, 0, 77, 70
2, 12345, Note_off_c, 0, 77, 64
2, 12360, Note_on_c, 0, 76, 69
2, 12405, Note_off_c, 0, 76, 64
2, 12420, Note_on_c, 0, 74, 67
2, 12465, Note_off_c, 0, 74, 64
2, 12480, Note_on_c, 0, 60, 64
2, 12480, Note_on_c, 0, 64, 64
2, 12480, Note_on_c, 0, 72, 64
2, 12600, Note_off_c, 0, 64, 64
2, 12600, Note_off_c, 0, 60, 64
2, 12600, Note_on_c, 0, 67, 64
2, 12715, Note_off_c, 0, 72, 64
2, 12720, Note_off_c, 0, 67, 64
2, 12720, Note_on_c, 0, 64, 64
2, 12720, Note_on_c, 0, 60, 64
2, 12720, Note_on_c, 0, 72, 64
2, 12840, Note_off_c, 0, 60, 64
2, 12840, Note_off_c, 0, 64, 64
2, 12840, Note_on_c, 0, 67, 64
2, 12955, Note_off_c, 0, 72, 64
2, 12960, Note_off_c, 0, 67, 64
2, 12960, Note_on_c, 0, 65, 64
2, 12960, Note_on_c, 0, 62, 64
2, 12960, Note_on_c, 0, 72, 64
2, 13080, Note_off_c, 0, 72, 64
2, 13080, Note_off_c, 0, 62, 64
2, 13080, Note_off_c, 0, 65, 64
2, 13080, Note_on_c, 0, 67, 64
2, 13080, Note_on_c, 0, 71, 64
2, 13200, Note_off_c, 0, 71, 64
2, 13200, Note_off_c, 0, 67, 64
2, 13200, Note_on_c, 0, 69, 64
2, 13200, Note_on_c, 0, 62, 64
2, 13200, Note_on_c, 0, 65, 64
2, 13320, Note_off_c, 0, 65, 64
2, 13320, Note_off_c, 0, 62, 64
2, 13320, Note_off_c, 0, 69, 64
2, 13320, Note_on_c, 0, 67, 64
2, 13320, Note_on_c, 0, 71, 64
2, 13428, Note_off_c, 0, 71, 64
2, 13440, Note_off_c, 0, 67, 64
2, 13440, Note_on_c, 0, 60, 64
2, 13440, Note_on_c, 0, 72, 64
2, 13440, Note_on_c, 0, 64, 64
2, 13560, Note_off_c, 0, 64, 64
2, 13560, Note_off_c, 0, 72, 64
2, 13560, Note_off_c, 0, 60, 64
2, 13560, Note_on_c, 0, 67, 64
2, 13560, Note_on_c, 0, 74, 64
2, 13590, Note_off_c, 0, 74, 64
2, 13590, Note_on_c, 0, 72, 64
2, 13620, Note_off_c, 0, 72, 64
2, 13620, Note_on_c, 0, 71, 64
2, 13650, Note_off_c, 0, 71, 64
2, 13650, Note_on_c, 0, 72, 64
2, 13677, Note_off_c, 0, 72, 64
2, 13680, Note_off_c, 0, 67, 64
2, 13680, Note_on_c, 0, 64, 64
2, 13680, Note_on_c, 0, 60, 64
2, 13680, Note_on_c, 0, 72, 64
2, 13800, Note_off_c, 0, 60, 64
2, 13800, Note_off_c, 0, 64, 64
2, 13800, Note_on_c, 0, 67, 64
2, 13860, Note_off_c, 0, 72, 64
2, 13860, Note_on_c, 0, 76, 64
2, 13914, Note_off_c, 0, 76, 64
2, 13920, Note_off_c, 0, 67, 64
2, 13920, Note_on_c, 0, 79, 64
2, 13920, Note_on_c, 0, 59, 64
2, 13920, Note_on_c, 0, 62, 64
2, 14040, Note_off_c, 0, 62, 64
2, 14040, Note_off_c, 0, 59, 64
2, 14040, Note_on_c, 0, 67, 64
2, 14160, Note_off_c, 0, 67, 64
2, 14160, Note_on_c, 0, 62, 64
2, 14160, Note_on_c, 0, 59, 64
2, 14280, Note_off_c, 0, 59, 64
2, 14280, Note_off_c, 0, 62, 64
2, 14280, Note_on_c, 0, 67, 64
2, 14352, Note_off_c, 0, 79, 64
2, 14400, Note_off_c, 0, 67, 64
2, 14400, Note_on_c, 0, 60, 64
2, 14400, Note_on_c, 0, 77, 64
2, 14400, Note_on_c, 0, 57, 64
2, 14520, Note_off_c, 0, 57, 64
2, 14520, Note_off_c, 0, 60, 64
2, 14520, Note_on_c, 0, 65, 64
2, 14640, Note_off_c, 0, 65, 64
2, 14640, Note_on_c, 0, 62, 64
2, 14640, Note_on_c, 0, 59, 64
2, 14700, Note_off_c, 0, 77, 64
2, 14700, Note_on_c, 0, 81, 64
2, 14760, Note_off_c, 0, 81, 64
2, 14760, Note_off_c, 0, 59, 64
2, 14760, Note_off_c, 0, 62, 64
2, 14760, Note_on_c, 0, 67, 64
2, 14760, Note_on_c, 0, 79, 64
2, 14820, Note_off_c, 0, 79, 64
2, 14820, Note_on_c, 0, 77, 64
2, 14874, Note_off_c, 0, 77, 64
2, 14880, Note_off_c, 0, 67, 64
2, 14880, Note_on_c, 0, 64, 64
2, 14880, Note_on_c, 0, 60, 64
2, 14880, Note_on_c, 0, 76, 64
2, 14934, Note_off_c, 0, 76, 64
2, 14940, Note_on_c, 0, 79, 64
2, 14988, Note_off_c, 0, 60, 64
2, 14988, Note_off_c, 0, 64, 64
2, 14994, Note_off_c, 0, 79, 64
2, 15000, Note_on_c, 0, 67, 64
2, 15000, Note_on_c, 0, 77, 64
2, 15054, Note_off_c, 0, 77, 64
2, 15060, Note_on_c, 0, 76, 64
2, 15108, Note_off_c, 0, 67, 64
2, 15114, Note_off_c, 0, 76, 64
2, 15120, Note_on_c, 0, 53, 64
2, 15120, Note_on_c, 0, 74, 64
2, 15174, Note_off_c, 0, 74, 64
2, 15180, Note_on_c, 0, 77, 64
2, 15228, Note_off_c, 0, 53, 64
2, 15234, Note_off_c, 0, 77, 64
2, 15240, Note_on_c, 0, 65, 64
2, 15240, Note_on_c, 0, 76, 64
2, 15294, Note_off_c, 0, 76, 64
2, 15300, Note_on_c, 0, 74, 64
2, 15348, Note_off_c, 0, 65, 64
2, 15354, Note_off_c, 0, 74, 64
2, 15360, Note_on_c, 0, 72, 66
2, 15360, Note_on_c, 0, 55, 66
2, 15468, Note_off_c, 0, 55, 64
2, 15468, Note_off_c, 0, 72, 64
2, 15480, Note_on_c, 0, 64, 70
2, 15480, Note_on_c, 0, 74, 70
2, 15507, Note_off_c, 0, 74, 64
2, 15510, Note_on_c, 0, 72, 71
2, 15537, Note_off_c, 0, 72, 64
2, 15540, Note_on_c, 0, 71, 73
2, 15567, Note_off_c, 0, 71, 64
2, 15570, Note_on_c, 0, 72, 74
2, 15588, Note_off_c, 0, 64, 64
2, 15597, Note_off_c, 0, 72, 64
2, 15600, Note_on_c, 0, 55, 78
2, 15600, Note_on_c, 0, 76, 78
2, 15708, Note_off_c, 0, 76, 64
2, 15708, Note_off_c, 0, 55, 64
2, 15720, Note_on_c, 0, 65, 71
2, 15720, Note_on_c, 0, 74, 71
2, 15828, Note_off_c, 0, 74, 64
2, 15828, Note_off_c, 0, 65, 64
2, 15840, Note_on_c, 0, 72, 64
2, 15840, Note_on_c, 0, 64, 64
2, 15900, Note_on_c, 0, 48, 64
2, 15954, Note_off_c, 0, 48, 64
2, 15960, Note_on_c, 0, 52, 64
2, 16014, Note_off_c, 0, 52, 64
2, 16020, Note_on_c, 0, 55, 64
2, 16056, Note_off_c, 0, 64, 64
2, 16056, Note_off_c, 0, 72, 64
2, 16074, Note_off_c, 0, 55, 64
2, 16080, Note_on_c, 0, 60, 64
2, 16134, Note_off_c, 0, 60, 64
2, 16140, Note_on_c, 0, 55, 64
2, 16194, Note_off_c, 0, 55, 64
2, 16200, Note_on_c, 0, 52, 64
2, 16254, Note_off_c, 0, 52, 64
2, 16260, Note_on_c, 0, 55, 64
2, 16314, Note_off_c, 0, 55, 64
2, 16320, Note_on_c, 0, 48, 64
2, 16380, Note_on_c, 0, 72, 64
2, 16434, Note_off_c, 0, 72, 64
2, 16440, Note_on_c, 0, 74, 64
2, 16494, Note_off_c, 0, 74, 64
2, 16500, Note_on_c, 0, 76, 64
2, 16536, Note_off_c, 0, 48, 64
2, 16554, Note_off_c, 0, 76, 64
2, 16560, Note_on_c, 0, 77, 64
2, 16614, Note_off_c, 0, 77, 64
2, 16620, Note_on_c, 0, 79, 64
2, 16674, Note_off_c, 0, 79, 64
2, 16680, Note_on_c, 0, 81, 64
2, 16734, Note_off_c, 0, 81, 64
2, 16740, Note_on_c, 0, 83, 64
2, 16794, Note_off_c, 0, 83, 64
2, 16800, Note_on_c, 0, 84, 64
2, 16860, Note_on_c, 0, 45, 64
2, 16914, Note_off_c, 0, 45, 64
2, 16920, Note_on_c, 0, 48, 64
2, 16974, Note_off_c, 0, 48, 64
2, 16980, Note_on_c, 0, 54, 64
2, 17034, Note_off_c, 0, 54, 64
2, 17040, Note_on_c, 0, 57, 64
2, 17094, Note_off_c, 0, 57, 64
2, 17100, Note_on_c, 0, 54, 64
2, 17124, Note_off_c, 0, 84, 64
2, 17154, Note_off_c, 0, 54, 64
2, 17160, Note_on_c, 0, 81, 64
2, 17160, Note_on_c, 0, 48, 64
2, 17214, Note_off_c, 0, 48, 64
2, 17220, Note_on_c, 0, 54, 64
2, 17268, Note_off_c, 0, 81, 64
2, 17274, Note_off_c, 0, 54, 64
2, 17280, Note_on_c, 0, 78, 64
2, 17280, Note_on_c, 0, 45, 64
2, 17388, Note_off_c, 0, 78, 64
2, 17400, Note_on_c, 0, 72, 64
2, 17427, Note_off_c, 0, 72, 64
2, 17430, Note_on_c, 0, 74, 64
2, 17457, Note_off_c, 0, 74, 64
2, 17460, Note_on_c, 0, 72, 64
2, 17487, Note_off_c, 0, 72, 64
2, 17490, Note_on_c, 0, 71, 64
2, 17496, Note_off_c, 0, 45, 64
2, 17517, Note_off_c, 0, 71, 64
2, 17520, Note_on_c, 0, 74, 64
2, 17628, Note_off_c, 0, 74, 64
2, 17640, Note_on_c, 0, 69, 64
2, 17748, Note_off_c, 0, 69, 64
2, 17760, Note_on_c, 0, 72, 127
2, 17820, Note_on_c, 0, 43, 127
2, 17874, Note_off_c, 0, 43, 64
2, 17880, Note_on_c, 0, 47, 127
2, 17934, Note_off_c, 0, 47, 64
2, 17940, Note_on_c, 0, 50, 127
2, 17976, Note_off_c, 0, 72, 64
2, 17994, Note_off_c, 0, 50, 64
2, 18000, Note_on_c, 0, 71, 127
2, 18000, Note_on_c, 0, 55, 127
2, 18054, Note_off_c, 0, 55, 64
2, 18060, Note_on_c, 0, 50, 127
2, 18114, Note_off_c, 0, 50, 64
2, 18120, Note_on_c, 0, 47, 127
2, 18174, Note_off_c, 0, 47, 64
2, 18180, Note_on_c, 0, 50, 127
2, 18216, Note_off_c, 0, 71, 64
2, 18234, Note_off_c, 0, 50, 64
2, 18240, Note_on_c, 0, 43, 127
2, 18300, Note_on_c, 0, 67, 127
2, 18354, Note_off_c, 0, 67, 64
2, 18360, Note_on_c, 0, 69, 127
2, 18414, Note_off_c, 0, 69, 64
2, 18420, Note_on_c, 0, 71, 127
2, 18456, Note_off_c, 0, 43, 64
2, 18474, Note_off_c, 0, 71, 64
2, 18480, Note_on_c, 0, 72, 127
2, 18534, Note_off_c, 0, 72, 64
2, 18540, Note_on_c, 0, 74, 127
2, 18594, Note_off_c, 0, 74, 64
2, 18600, Note_on_c, 0, 76, 127
2, 18654, Note_off_c, 0, 76, 64
2, 18660, Note_on_c, 0, 78, 127
2, 18714, Note_off_c, 0, 78, 64
2, 18720, Note_on_c, 0, 79, 127
2, 18780, Note_on_c, 0, 52, 127
2, 18834, Note_off_c, 0, 52, 64
2, 18840, Note_on_c, 0, 55, 127
2, 18894, Note_off_c, 0, 55, 64
2, 18900, Note_on_c, 0, 61, 127
2, 18954, Note_off_c, 0, 61, 64
2, 18960, Note_on_c, 0, 64, 127
2, 19014, Note_off_c, 0, 64, 64
2, 19020, Note_on_c, 0, 61, 127
2, 19044, Note_off_c, 0, 79, 64
2, 19074, Note_off_c, 0, 61, 64
2, 19080, Note_on_c, 0, 76, 127
2, 19080, Note_on_c, 0, 55, 127
2, 19134, Note_off_c, 0, 55, 64
2, 19140, Note_on_c, 0, 61, 127
2, 19188, Note_off_c, 0, 76, 64
2, 19194, Note_off_c, 0, 61, 64
2, 19200, Note_on_c, 0, 73, 127
2, 19200, Note_on_c, 0, 52, 127
2, 19308, Note_off_c, 0, 73, 64
2, 19320, Note_on_c, 0, 67, 127
2, 19347, Note_off_c, 0, 67, 64
2, 19350, Note_on_c, 0, 69, 127
2, 19377, Note_off_c, 0, 69, 64
2, 19380, Note_on_c, 0, 67, 127
2, 19407, Note_off_c, 0, 67, 64
2, 19410, Note_on_c, 0, 66, 127
2, 19416, Note_off_c, 0, 52, 64
2, 19437, Note_off_c, 0, 66, 64
2, 19440, Note_on_c, 0, 69, 127
2, 19548, Note_off_c, 0, 69, 64
2, 19560, Note_on_c, 0, 64, 127
2, 19668, Note_off_c, 0, 64, 64
2, 19680, Note_on_c, 0, 50, 127
2, 19680, Note_on_c, 0, 67, 127
2, 19788, Note_off_c, 0, 50, 64
2, 19800, Note_on_c, 0, 57, 127
2, 19842, Note_off_c, 0, 67, 64
2, 19860, Note_on_c, 0, 66, 127
2, 19908, Note_off_c, 0, 57, 64
2, 19914, Note_off_c, 0, 66, 64
2, 19920, Note_on_c, 0, 74, 127
2, 19920, Note_on_c, 0, 54, 127
2, 20028, Note_off_c, 0, 54, 64
2, 20040, Note_on_c, 0, 57, 127
2, 20148, Note_off_c, 0, 57, 64
2, 20160, Note_on_c, 0, 52, 127
2, 20214, Note_off_c, 0, 74, 64
2, 20220, Note_on_c, 0, 73, 127
2, 20268, Note_off_c, 0, 52, 64
2, 20274, Note_off_c, 0, 73, 64
2, 20280, Note_on_c, 0, 57, 127
2, 20280, Note_on_c, 0, 76, 127
2, 20334, Note_off_c, 0, 76, 64
2, 20340, Note_on_c, 0, 74, 127
2, 20388, Note_off_c, 0, 57, 64
2, 20394, Note_off_c, 0, 74, 64
2, 20400, Note_on_c, 0, 45, 127
2, 20400, Note_on_c, 0, 73, 127
2, 20454, Note_off_c, 0, 73, 64
2, 20460, Note_on_c, 0, 71, 127
2, 20508, Note_off_c, 0, 45, 64
2, 20514, Note_off_c, 0, 71, 64
2, 20520, Note_on_c, 0, 57, 127
2, 20520, Note_on_c, 0, 69, 127
2, 20574, Note_off_c, 0, 69, 64
2, 20580, Note_on_c, 0, 67, 127
2, 20628, Note_off_c, 0, 57, 64
2, 20634, Note_off_c, 0, 67, 64
2, 20640, Note_on_c, 0, 50, 127
2, 20640, Note_on_c, 0, 66, 127
2, 20694, Note_off_c, 0, 66, 64
2, 20700, Note_on_c, 0, 67, 127
2, 20748, Note_off_c, 0, 50, 64
2, 20754, Note_off_c, 0, 67, 64
2, 20760, Note_on_c, 0, 57, 127
2, 20760, Note_on_c, 0, 69, 127
2, 20814, Note_off_c, 0, 69, 64
2, 20820, Note_on_c, 0, 71, 127
2, 20868, Note_off_c, 0, 57, 64
2, 20874, Note_off_c, 0, 71, 64
2, 20880, Note_on_c, 0, 54, 127
2, 20880, Note_on_c, 0, 69, 127
2, 20934, Note_off_c, 0, 69, 64
2, 20940, Note_on_c, 0, 71, 127
2, 20988, Note_off_c, 0, 54, 64
2, 20994, Note_off_c, 0, 71, 64
2, 21000, Note_on_c, 0, 57, 127
2, 21000, Note_on_c, 0, 73, 127
2, 21054, Note_off_c, 0, 73, 64
2, 21060, Note_on_c, 0, 74, 127
2, 21108, Note_off_c, 0, 57, 64
2, 21114, Note_off_c, 0, 74, 64
2, 21120, Note_on_c, 0, 73, 127
2, 21120, Note_on_c, 0, 52, 127
2, 21174, Note_off_c, 0, 73, 64
2, 21180, Note_on_c, 0, 74, 127
2, 21228, Note_off_c, 0, 52, 64
2, 21234, Note_off_c, 0, 74, 64
2, 21240, Note_on_c, 0, 57, 127
2, 21240, Note_on_c, 0, 76, 127
2, 21294, Note_off_c, 0, 76, 64
2, 21300, Note_on_c, 0, 74, 127
2, 21348, Note_off_c, 0, 57, 64
2, 21354, Note_off_c, 0, 74, 64
2, 21360, Note_on_c, 0, 45, 127
2, 21360, Note_on_c, 0, 73, 127
2, 21414, Note_off_c, 0, 73, 64
2, 21420, Note_on_c, 0, 71, 127
2, 21468, Note_off_c, 0, 45, 64
2, 21474, Note_off_c, 0, 71, 64
2, 21480, Note_on_c, 0, 57, 127
2, 21480, Note_on_c, 0, 69, 127
2, 21534, Note_off_c, 0, 69, 64
2, 21540, Note_on_c, 0, 67, 127
2, 21588, Note_off_c, 0, 57, 64
2, 21594, Note_off_c, 0, 67, 64
2, 21600, Note_on_c, 0, 50, 127
2, 21600, Note_on_c, 0, 66, 127
2, 21654, Note_off_c, 0, 66, 64
2, 21660, Note_on_c, 0, 67, 127
2, 21708, Note_off_c, 0, 50, 64
2, 21714, Note_off_c, 0, 67, 64
2, 21720, Note_on_c, 0, 57, 127
2, 21720, Note_on_c, 0, 69, 127
2, 21774, Note_off_c, 0, 69, 64
2, 21780, Note_on_c, 0, 71, 127
2, 21828, Note_off_c, 0, 57, 64
2, 21834, Note_off_c, 0, 71, 64
2, 21840, Note_on_c, 0, 54, 127
2, 21840, Note_on_c, 0, 73, 127
2, 21894, Note_off_c, 0, 73, 64
2, 21900, Note_on_c, 0, 74, 127
2, 21948, Note_off_c, 0, 54, 64
2, 21954, Note_off_c, 0, 74, 64
2, 21960, Note_on_c, 0, 57, 127
2, 21960, Note_on_c, 0, 76, 127
2, 22014, Note_off_c, 0, 76, 64
2, 22020, Note_on_c, 0, 78, 127
2, 22068, Note_off_c, 0, 57, 64
2, 22074, Note_off_c, 0, 78, 64
2, 22080, Note_on_c, 0, 79, 127
2, 22080, Note_on_c, 0, 50, 127
2, 22107, Note_off_c, 0, 79, 64
2, 22110, Note_on_c, 0, 78, 127
2, 22124, Note_off_c, 0, 78, 64
2, 22125, Note_on_c, 0, 79, 127
2, 22139, Note_off_c, 0, 79, 64
2, 22140, Note_on_c, 0, 78, 127
2, 22154, Note_off_c, 0, 78, 64
2, 22155, Note_on_c, 0, 76, 127
2, 22169, Note_off_c, 0, 76, 64
2, 22170, Note_on_c, 0, 78, 127
2, 22188, Note_off_c, 0, 50, 64
2, 22197, Note_off_c, 0, 78, 64
2, 22200, Note_on_c, 0, 57, 127
2, 22200, Note_on_c, 0, 79, 127
2, 22254, Note_off_c, 0, 79, 64
2, 22260, Note_on_c, 0, 81, 127
2, 22308, Note_off_c, 0, 57, 64
2, 22314, Note_off_c, 0, 81, 64
2, 22320, Note_on_c, 0, 45, 127
2, 22320, Note_on_c, 0, 55, 127
2, 22320, Note_on_c, 0, 83, 127
2, 22347, Note_off_c, 0, 83, 64
2, 22350, Note_on_c, 0, 81, 127
2, 22364, Note_off_c, 0, 81, 64
2, 22365, Note_on_c, 0, 83, 127
2, 22379, Note_off_c, 0, 83, 64
2, 22380, Note_on_c, 0, 81, 127
2, 22394, Note_off_c, 0, 81, 64
2, 22395, Note_on_c, 0, 80, 127
2, 22409, Note_off_c, 0, 80, 64
2, 22410, Note_on_c, 0, 81, 127
2, 22428, Note_off_c, 0, 55, 64
2, 22428, Note_off_c, 0, 45, 64
2, 22437, Note_off_c, 0, 81, 64
2, 22440, Note_on_c, 0, 57, 127
2, 22440, Note_on_c, 0, 83, 127
2, 22494, Note_off_c, 0, 83, 64
2, 22500, Note_on_c, 0, 85, 127
2, 22548, Note_off_c, 0, 57, 64
2, 22554, Note_off_c, 0, 85, 64
2, 22560, Note_on_c, 0, 54, 127
2, 22560, Note_on_c, 0, 50, 127
2, 22560, Note_on_c, 0, 86, 127
2, 22614, Note_off_c, 0, 86, 64
2, 22620, Note_on_c, 0, 85, 127
2, 22674, Note_off_c, 0, 85, 64
2, 22680, Note_on_c, 0, 88, 127
2, 22734, Note_off_c, 0, 88, 64
2, 22740, Note_on_c, 0, 86, 127
2, 22776, Note_off_c, 0, 50, 64
2, 22776, Note_off_c, 0, 54, 64
2, 22794, Note_off_c, 0, 86, 64
2, 22800, Note_on_c, 0, 81, 127
2, 22854, Note_off_c, 0, 81, 64
2, 22860, Note_on_c, 0, 80, 127
2, 22914, Note_off_c, 0, 80, 64
2, 22920, Note_on_c, 0, 83, 127
2, 22974, Note_off_c, 0, 83, 64
2, 22980, Note_on_c, 0, 81, 127
2, 23034, Note_off_c, 0, 81, 64
2, 23040, Note_on_c, 0, 78, 127
2, 23094, Note_off_c, 0, 78, 64
2, 23100, Note_on_c, 0, 77, 127
2, 23154, Note_off_c, 0, 77, 64
2, 23160, Note_on_c, 0, 79, 127
2, 23214, Note_off_c, 0, 79, 64
2, 23220, Note_on_c, 0, 78, 127
2, 23274, Note_off_c, 0, 78, 64
2, 23280, Note_on_c, 0, 74, 127
2, 23334, Note_off_c, 0, 74, 64
2, 23340, Note_on_c, 0, 73, 127
2, 23394, Note_off_c, 0, 73, 64
2, 23400, Note_on_c, 0, 76, 127
2, 23454, Note_off_c, 0, 76, 64
2, 23460, Note_on_c, 0, 74, 127
2, 23514, Note_off_c, 0, 74, 64
2, 23520, Note_on_c, 0, 66, 127
2, 23520, Note_on_c, 0, 62, 127
2, 23580, Note_on_c, 0, 72, 127
2, 23580, Note_on_c, 0, 74, 127
2, 23628, Note_off_c, 0, 62, 64
2, 23628, Note_off_c, 0, 66, 64
2, 23634, Note_off_c, 0, 74, 64
2, 23634, Note_off_c, 0, 72, 64
2, 23640, Note_on_c, 0, 67, 127
2, 23640, Note_on_c, 0, 64, 127
2, 23700, Note_on_c, 0, 74, 127
2, 23700, Note_on_c, 0, 72, 127
2, 23748, Note_off_c, 0, 64, 64
2, 23748, Note_off_c, 0, 67, 64
2, 23754, Note_off_c, 0, 72, 64
2, 23754, Note_off_c, 0, 74, 64
2, 23760, Note_on_c, 0, 66, 127
2, 23760, Note_on_c, 0, 69, 127
2, 23820, Note_on_c, 0, 72, 127
2, 23820, Note_on_c, 0, 74, 127
2, 23868, Note_off_c, 0, 69, 64
2, 23868, Note_off_c, 0, 66, 64
2, 23874, Note_off_c, 0, 74, 64
2, 23874, Note_off_c, 0, 72, 64
2, 23880, Note_on_c, 0, 67, 127
2, 23880, Note_on_c, 0, 64, 127
2, 23940, Note_on_c, 0, 72, 127
2, 23940, Note_on_c, 0, 74, 127
2, 23988, Note_off_c, 0, 64, 64
2, 23988, Note_off_c, 0, 67, 64
2, 23994, Note_off_c, 0, 74, 64
2, 23994, Note_off_c, 0, 72, 64
2, 24000, Note_on_c, 0, 66, 127
2, 24000, Note_on_c, 0, 69, 127
2, 24060, Note_on_c, 0, 72, 127
2, 24060, Note_on_c, 0, 74, 127
2, 24108, Note_off_c, 0, 69, 64
2, 24108, Note_off_c, 0, 66, 64
2, 24114, Note_off_c, 0, 74, 64
2, 24114, Note_off_c, 0, 72, 64
2, 24120, Note_on_c, 0, 67, 127
2, 24120, Note_on_c, 0, 64, 127
2, 24180, Note_on_c, 0, 72, 127
2, 24180, Note_on_c, 0, 74, 127
2, 24228, Note_off_c, 0, 64, 64
2, 24228, Note_off_c, 0, 67, 64
2, 24234, Note_off_c, 0, 74, 64
2, 24234, Note_off_c, 0, 72, 64
2, 24240, Note_on_c, 0, 66, 127
2, 24240, Note_on_c, 0, 69, 127
2, 24300, Note_on_c, 0, 74, 127
2, 24300, Note_on_c, 0, 72, 127
2, 24348, Note_off_c, 0, 69, 64
2, 24348, Note_off_c, 0, 66, 64
2, 24354, Note_off_c, 0, 72, 64
2, 24354, Note_off_c, 0, 74, 64
2, 24360, Note_on_c, 0, 66, 127
2, 24360, Note_on_c, 0, 62, 127
2, 24420, Note_on_c, 0, 72, 127
2, 24420, Note_on_c, 0, 74, 127
2, 24468, Note_off_c, 0, 62, 64
2, 24468, Note_off_c, 0, 66, 64
2, 24474, Note_off_c, 0, 74, 64
2, 24474, Note_off_c, 0, 72, 64
2, 24480, Note_on_c, 0, 67, 127
2, 24480, Note_on_c, 0, 64, 127
2, 24540, Note_on_c, 0, 74, 127
2, 24594, Note_off_c, 0, 74, 64
2, 24600, Note_on_c, 0, 73, 127
2, 24654, Note_off_c, 0, 73, 64
2, 24660, Note_on_c, 0, 74, 127
2, 24696, Note_off_c, 0, 64, 64
2, 24696, Note_off_c, 0, 67, 64
2, 24714, Note_off_c, 0, 74, 64
2, 24720, Note_on_c, 0, 79, 127
2, 24720, Note_on_c, 0, 64, 127
2, 24720, Note_on_c, 0, 67, 127
2, 24774, Note_off_c, 0, 79, 64
2, 24780, Note_on_c, 0, 74, 127
2, 24834, Note_off_c, 0, 74, 64
2, 24840, Note_on_c, 0, 83, 127
2, 24894, Note_off_c, 0, 83, 64
2, 24900, Note_on_c, 0, 74, 127
2, 24936, Note_off_c, 0, 67, 64
2, 24936, Note_off_c, 0, 64, 64
2, 24954, Note_off_c, 0, 74, 64
2, 24960, Note_on_c, 0, 86, 127
2, 25014, Note_off_c, 0, 86, 64
2, 25020, Note_on_c, 0, 74, 127
2, 25074, Note_off_c, 0, 74, 64
2, 25080, Note_on_c, 0, 83, 127
2, 25134, Note_off_c, 0, 83, 64
2, 25140, Note_on_c, 0, 74, 127
2, 25194, Note_off_c, 0, 74, 64
2, 25200, Note_on_c, 0, 81, 127
2, 25254, Note_off_c, 0, 81, 64
2, 25260, Note_on_c, 0, 74, 127
2, 25314, Note_off_c, 0, 74, 64
2, 25320, Note_on_c, 0, 79, 127
2, 25374, Note_off_c, 0, 79, 64
2, 25380, Note_on_c, 0, 74, 127
2, 25434, Note_off_c, 0, 74, 64
2, 25440, Note_on_c, 0, 69, 127
2, 25440, Note_on_c, 0, 66, 127
2, 25500, Note_on_c, 0, 72, 127
2, 25500, Note_on_c, 0, 74, 127
2, 25548, Note_off_c, 0, 66, 64
2, 25548, Note_off_c, 0, 69, 64
2, 25554, Note_off_c, 0, 74, 64
2, 25554, Note_off_c, 0, 72, 64
2, 25560, Note_on_c, 0, 64, 127
2, 25560, Note_on_c, 0, 67, 127
2, 25620, Note_on_c, 0, 72, 127
2, 25620, Note_on_c, 0, 74, 127
2, 25668, Note_off_c, 0, 67, 64
2, 25668, Note_off_c, 0, 64, 64
2, 25674, Note_off_c, 0, 74, 64
2, 25674, Note_off_c, 0, 72, 64
2, 25680, Note_on_c, 0, 66, 127
2, 25680, Note_on_c, 0, 62, 127
2, 25740, Note_on_c, 0, 72, 127
2, 25740, Note_on_c, 0, 74, 127
2, 25788, Note_off_c, 0, 62, 64
2, 25788, Note_off_c, 0, 66, 64
2, 25794, Note_off_c, 0, 74, 64
2, 25794, Note_off_c, 0, 72, 64
2, 25800, Note_on_c, 0, 67, 127
2, 25800, Note_on_c, 0, 64, 127
2, 25860, Note_on_c, 0, 72, 127
2, 25860, Note_on_c, 0, 74, 127
2, 25908, Note_off_c, 0, 64, 64
2, 25908, Note_off_c, 0, 67, 64
2, 25914, Note_off_c, 0, 74, 64
2, 25914, Note_off_c, 0, 72, 64
2, 25920, Note_on_c, 0, 69, 127
2, 25920, Note_on_c, 0, 66, 127
2, 25980, Note_on_c, 0, 74, 127
2, 25980, Note_on_c, 0, 72, 127
2, 26028, Note_off_c, 0, 66, 64
2, 26028, Note_off_c, 0, 69, 64
2, 26034, Note_off_c, 0, 72, 64
2, 26034, Note_off_c, 0, 74, 64
2, 26040, Note_on_c, 0, 64, 127
2, 26040, Note_on_c, 0, 67, 127
2, 26100, Note_on_c, 0, 72, 127
2, 26100, Note_on_c, 0, 74, 127
2, 26148, Note_off_c, 0, 67, 64
2, 26148, Note_off_c, 0, 64, 64
2, 26154, Note_off_c, 0, 74, 64
2, 26154, Note_off_c, 0, 72, 64
2, 26160, Note_on_c, 0, 66, 127
2, 26160, Note_on_c, 0, 69, 127
2, 26220, Note_on_c, 0, 72, 127
2, 26220, Note_on_c, 0, 74, 127
2, 26268, Note_off_c, 0, 69, 64
2, 26268, Note_off_c, 0, 66, 64
2, 26274, Note_off_c, 0, 74, 64
2, 26274, Note_off_c, 0, 72, 64
2, 26280, Note_on_c, 0, 62, 127
2, 26280, Note_on_c, 0, 66, 127
2, 26340, Note_on_c, 0, 74, 127
2, 26340, Note_on_c, 0, 72, 127
2, 26388, Note_off_c, 0, 66, 64
2, 26388, Note_off_c, 0, 62, 64
2, 26394, Note_off_c, 0, 72, 64
2, 26394, Note_off_c, 0, 74, 64
2, 26400, Note_on_c, 0, 67, 127
2, 26400, Note_on_c, 0, 71, 127
2, 26460, Note_on_c, 0, 74, 127
2, 26514, Note_off_c, 0, 74, 64
2, 26520, Note_on_c, 0, 73, 127
2, 26574, Note_off_c, 0, 73, 64
2, 26580, Note_on_c, 0, 74, 127
2, 26616, Note_off_c, 0, 71, 64
2, 26616, Note_off_c, 0, 67, 64
2, 26634, Note_off_c, 0, 74, 64
2, 26640, Note_on_c, 0, 79, 127
2, 26640, Note_on_c, 0, 67, 127
2, 26640, Note_on_c, 0, 71, 127
2, 26694, Note_off_c, 0, 79, 64
2, 26700, Note_on_c, 0, 74, 127
2, 26754, Note_off_c, 0, 74, 64
2, 26760, Note_on_c, 0, 83, 127
2, 26814, Note_off_c, 0, 83, 64
2, 26820, Note_on_c, 0, 74, 127
2, 26856, Note_off_c, 0, 71, 64
2, 26856, Note_off_c, 0, 67, 64
2, 26874, Note_off_c, 0, 74, 64
2, 26880, Note_on_c, 0, 86, 127
2, 26934, Note_off_c, 0, 86, 64
2, 26940, Note_on_c, 0, 74, 127
2, 26994, Note_off_c, 0, 74, 64
2, 27000, Note_on_c, 0, 83, 127
2, 27054, Note_off_c, 0, 83, 64
2, 27060, Note_on_c, 0, 74, 127
2, 27114, Note_off_c, 0, 74, 64
2, 27120, Note_on_c, 0, 81, 127
2, 27174, Note_off_c, 0, 81, 64
2, 27180, Note_on_c, 0, 74, 127
2, 27234, Note_off_c, 0, 74, 64
2, 27240, Note_on_c, 0, 79, 127
2, 27294, Note_off_c, 0, 79, 64
2, 27300, Note_on_c, 0, 74, 127
2, 27354, Note_off_c, 0, 74, 64
2, 27360, Note_on_c, 0, 68, 127
2, 27360, Note_on_c, 0, 71, 127
2, 27420, Note_on_c, 0, 74, 127
2, 27420, Note_on_c, 0, 76, 127
2, 27468, Note_off_c, 0, 71, 64
2, 27468, Note_off_c, 0, 68, 64
2, 27474, Note_off_c, 0, 76, 64
2, 27474, Note_off_c, 0, 74, 64
2, 27480, Note_on_c, 0, 66, 127
2, 27480, Note_on_c, 0, 69, 127
2, 27540, Note_on_c, 0, 74, 127
2, 27540, Note_on_c, 0, 76, 127
2, 27588, Note_off_c, 0, 69, 64
2, 27588, Note_off_c, 0, 66, 64
2, 27594, Note_off_c, 0, 76, 64
2, 27594, Note_off_c, 0, 74, 64
2, 27600, Note_on_c, 0, 68, 127
2, 27600, Note_on_c, 0, 64, 127
2, 27660, Note_on_c, 0, 74, 127
2, 27660, Note_on_c, 0, 76, 127
2, 27708, Note_off_c, 0, 64, 64
2, 27708, Note_off_c, 0, 68, 64
2, 27714, Note_off_c, 0, 76, 64
2, 27714, Note_off_c, 0, 74, 64
2, 27720, Note_on_c, 0, 66, 127
2, 27720, Note_on_c, 0, 69, 127
2, 27780, Note_on_c, 0, 74, 127
2, 27780, Note_on_c, 0, 76, 127
2, 27828, Note_off_c, 0, 69, 64
2, 27828, Note_off_c, 0, 66, 64
2, 27834, Note_off_c, 0, 76, 64
2, 27834, Note_off_c, 0, 74, 64
2, 27840, Note_on_c, 0, 71, 127
2, 27840, Note_on_c, 0, 68, 127
2, 27900, Note_on_c, 0, 74, 127
2, 27900, Note_on_c, 0, 76, 127
2, 27948, Note_off_c, 0, 68, 64
2, 27948, Note_off_c, 0, 71, 64
2, 27954, Note_off_c, 0, 76, 64
2, 27954, Note_off_c, 0, 74, 64
2, 27960, Note_on_c, 0, 66, 127
2, 27960, Note_on_c, 0, 69, 127
2, 28020, Note_on_c, 0, 74, 127
2, 28020, Note_on_c, 0, 76, 127
2, 28068, Note_off_c, 0, 69, 64
2, 28068, Note_off_c, 0, 66, 64
2, 28074, Note_off_c, 0, 76, 64
2, 28074, Note_off_c, 0, 74, 64
2, 28080, Note_on_c, 0, 68, 127
2, 28080, Note_on_c, 0, 71, 127
2, 28140, Note_on_c, 0, 74, 127
2, 28140, Note_on_c, 0, 76, 127
2, 28188, Note_off_c, 0, 71, 64
2, 28188, Note_off_c, 0, 68, 64
2, 28194, Note_off_c, 0, 76, 64
2, 28194, Note_off_c, 0, 74, 64
2, 28200, Note_on_c, 0, 68, 127
2, 28200, Note_on_c, 0, 64, 127
2, 28260, Note_on_c, 0, 74, 127
2, 28260, Note_on_c, 0, 76, 127
2, 28308, Note_off_c, 0, 64, 64
2, 28308, Note_off_c, 0, 68, 64
2, 28314, Note_off_c, 0, 76, 64
2, 28314, Note_off_c, 0, 74, 64
2, 28320, Note_on_c, 0, 72, 127
2, 28320, Note_on_c, 0, 69, 127
2, 28380, Note_on_c, 0, 76, 127
2, 28434, Note_off_c, 0, 76, 64
2, 28440, Note_on_c, 0, 78, 127
2, 28494, Note_off_c, 0, 78, 64
2, 28500, Note_on_c, 0, 80, 127
2, 28536, Note_off_c, 0, 69, 64
2, 28536, Note_off_c, 0, 72, 64
2, 28554, Note_off_c, 0, 80, 64
2, 28560, Note_on_c, 0, 72, 127
2, 28560, Note_on_c, 0, 69, 127
2, 28560, Note_on_c, 0, 81, 127
2, 28614, Note_off_c, 0, 81, 64
2, 28620, Note_on_c, 0, 83, 127
2, 28674, Note_off_c, 0, 83, 64
2, 28680, Note_on_c, 0, 84, 127
2, 28734, Note_off_c, 0, 84, 64
2, 28740, Note_on_c, 0, 86, 127
2, 28776, Note_off_c, 0, 69, 64
2, 28776, Note_off_c, 0, 72, 64
2, 28794, Note_off_c, 0, 86, 64
2, 28800, Note_on_c, 0, 88, 127
2, 28854, Note_off_c, 0, 88, 64
2, 28860, Note_on_c, 0, 87, 127
2, 28914, Note_off_c, 0, 87, 64
2, 28920, Note_on_c, 0, 89, 127
2, 28974, Note_off_c, 0, 89, 64
2, 28980, Note_on_c, 0, 88, 127
2, 29034, Note_off_c, 0, 88, 64
2, 29040, Note_on_c, 0, 66, 127
2, 29040, Note_on_c, 0, 86, 127
2, 29094, Note_off_c, 0, 86, 64
2, 29100, Note_on_c, 0, 84, 127
2, 29154, Note_off_c, 0, 84, 64
2, 29160, Note_on_c, 0, 83, 127
2, 29214, Note_off_c, 0, 83, 64
2, 29220, Note_on_c, 0, 82, 127
2, 29256, Note_off_c, 0, 66, 64
2, 29274, Note_off_c, 0, 82, 64
2, 29280, Note_on_c, 0, 67, 127
2, 29280, Note_on_c, 0, 84, 127
2, 29334, Note_off_c, 0, 84, 64
2, 29340, Note_on_c, 0, 83, 127
2, 29394, Note_off_c, 0, 83, 64
2, 29400, Note_on_c, 0, 88, 127
2, 29454, Note_off_c, 0, 88, 64
2, 29460, Note_on_c, 0, 86, 127
2, 29496, Note_off_c, 0, 67, 64
2, 29514, Note_off_c, 0, 86, 64
2, 29520, Note_on_c, 0, 64, 127
2, 29520, Note_on_c, 0, 84, 127
2, 29574, Note_off_c, 0, 84, 64
2, 29580, Note_on_c, 0, 83, 127
2, 29634, Note_off_c, 0, 83, 64
2, 29640, Note_on_c, 0, 81, 127
2, 29694, Note_off_c, 0, 81, 64
2, 29700, Note_on_c, 0, 79, 127
2, 29736, Note_off_c, 0, 64, 64
2, 29754, Note_off_c, 0, 79, 64
2, 29760, Note_on_c, 0, 83, 127
2, 29760, Note_on_c, 0, 60, 127
2, 29814, Note_off_c, 0, 83, 64
2, 29820, Note_on_c, 0, 81, 127
2, 29874, Note_off_c, 0, 81, 64
2, 29880, Note_on_c, 0, 86, 127
2, 29934, Note_off_c, 0, 86, 64
2, 29940, Note_on_c, 0, 84, 127
2, 29976, Note_off_c, 0, 60, 64
2, 29994, Note_off_c, 0, 84, 64
2, 30000, Note_on_c, 0, 62, 127
2, 30000, Note_on_c, 0, 83, 127
2, 30054, Note_off_c, 0, 83, 64
2, 30060, Note_on_c, 0, 81, 127
2, 30114, Note_off_c, 0, 81, 64
2, 30120, Note_on_c, 0, 79, 127
2, 30174, Note_off_c, 0, 79, 64
2, 30180, Note_on_c, 0, 78, 127
2, 30216, Note_off_c, 0, 62, 64
2, 30234, Note_off_c, 0, 78, 64
2, 30240, Note_on_c, 0, 59, 127
2, 30240, Note_on_c, 0, 79, 127
2, 30294, Note_off_c, 0, 79, 64
2, 30300, Note_on_c, 0, 80, 127
2, 30354, Note_off_c, 0, 80, 64
2, 30360, Note_on_c, 0, 81, 127
2, 30414, Note_off_c, 0, 81, 64
2, 30420, Note_on_c, 0, 82, 127
2, 30456, Note_off_c, 0, 59, 64
2, 30474, Note_off_c, 0, 82, 64
2, 30480, Note_on_c, 0, 56, 127
2, 30480, Note_on_c, 0, 83, 127
2, 30534, Note_off_c, 0, 83, 64
2, 30540, Note_on_c, 0, 77, 127
2, 30594, Note_off_c, 0, 77, 64
2, 30600, Note_on_c, 0, 76, 127
2, 30654, Note_off_c, 0, 76, 64
2, 30660, Note_on_c, 0, 74, 127
2, 30696, Note_off_c, 0, 56, 64
2, 30714, Note_off_c, 0, 74, 64
2, 30720, Note_on_c, 0, 73, 127
2, 30720, Note_on_c, 0, 57, 127
2, 30774, Note_off_c, 0, 73, 64
2, 30780, Note_on_c, 0, 76, 127
2, 30834, Note_off_c, 0, 76, 64
2, 30840, Note_on_c, 0, 78, 127
2, 30894, Note_off_c, 0, 78, 64
2, 30900, Note_on_c, 0, 80, 127
2, 30936, Note_off_c, 0, 57, 64
2, 30954, Note_off_c, 0, 80, 64
2, 30960, Note_on_c, 0, 54, 127
2, 30960, Note_on_c, 0, 81, 127
2, 31014, Note_off_c, 0, 81, 64
2, 31020, Note_on_c, 0, 76, 127
2, 31074, Note_off_c, 0, 76, 64
2, 31080, Note_on_c, 0, 74, 127
2, 31134, Note_off_c, 0, 74, 64
2, 31140, Note_on_c, 0, 72, 127
2, 31176, Note_off_c, 0, 54, 64
2, 31194, Note_off_c, 0, 72, 64
2, 31200, Note_on_c, 0, 55, 127
2, 31200, Note_on_c, 0, 70, 127
2, 31254, Note_off_c, 0, 70, 64
2, 31260, Note_on_c, 0, 71, 127
2, 31314, Note_off_c, 0, 71, 64
2, 31320, Note_on_c, 0, 76, 127
2, 31374, Note_off_c, 0, 76, 64
2, 31380, Note_on_c, 0, 74, 127
2, 31416, Note_off_c, 0, 55, 64
2, 31434, Note_off_c, 0, 74, 64
2, 31440, Note_on_c, 0, 52, 127
2, 31440, Note_on_c, 0, 72, 127
2, 31494, Note_off_c, 0, 72, 64
2, 31500, Note_on_c, 0, 71, 127
2, 31554, Note_off_c, 0, 71, 64
2, 31560, Note_on_c, 0, 69, 127
2, 31614, Note_off_c, 0, 69, 64
2, 31620, Note_on_c, 0, 67, 127
2, 31656, Note_off_c, 0, 52, 64
2, 31674, Note_off_c, 0, 67, 64
2, 31680, Note_on_c, 0, 71, 127
2, 31680, Note_on_c, 0, 48, 127
2, 31734, Note_off_c, 0, 71, 64
2, 31740, Note_on_c, 0, 69, 127
2, 31794, Note_off_c, 0, 69, 64
2, 31800, Note_on_c, 0, 74, 127
2, 31854, Note_off_c, 0, 74, 64
2, 31860, Note_on_c, 0, 72, 127
2, 31896, Note_off_c, 0, 48, 64
2, 31914, Note_off_c, 0, 72, 64
2, 31920, Note_on_c, 0, 50, 127
2, 31920, Note_on_c, 0, 71, 127
2, 31974, Note_off_c, 0, 71, 64
2, 31980, Note_on_c, 0, 69, 127
2, 32034, Note_off_c, 0, 69, 64
2, 32040, Note_on_c, 0, 67, 127
2, 32094, Note_off_c, 0, 67, 64
2, 32100, Note_on_c, 0, 66, 127
2, 32136, Note_off_c, 0, 50, 64
2, 32154, Note_off_c, 0, 66, 64
2, 32160, Note_on_c, 0, 43, 127
2, 32160, Note_on_c, 0, 67, 127
2, 32268, Note_off_c, 0, 43, 64
2, 32280, Note_on_c, 0, 47, 127
2, 32376, Note_off_c, 0, 67, 64
2, 32388, Note_off_c, 0, 47, 64
2, 32400, Note_on_c, 0, 50, 127
2, 32508, Note_off_c, 0, 50, 64
2, 32520, Note_on_c, 0, 48, 127
2, 32628, Note_off_c, 0, 48, 64
2, 32640, Note_on_c, 0, 47, 127
2, 32640, Note_on_c, 0, 67, 127
2, 32640, Note_on_c, 0, 62, 127
2, 32640, Note_on_c, 0, 59, 127
2, 32748, Note_off_c, 0, 47, 64
2, 32760, Note_on_c, 0, 45, 127
2, 32856, Note_off_c, 0, 59, 64
2, 32856, Note_off_c, 0, 62, 64
2, 32856, Note_off_c, 0, 67, 64
2, 32868, Note_off_c, 0, 45, 64
2, 32880, Note_on_c, 0, 47, 127
2, 32880, Note_on_c, 0, 59, 127
2, 32880, Note_on_c, 0, 62, 127
2, 32880, Note_on_c, 0, 67, 127
2, 32988, Note_off_c, 0, 47, 64
2, 33000, Note_on_c, 0, 43, 127
2, 33096, Note_off_c, 0, 67, 64
2, 33096, Note_off_c, 0, 62, 64
2, 33096, Note_off_c, 0, 59, 64
2, 33108, Note_off_c, 0, 43, 64
2, 33120, Note_on_c, 0, 63, 127
2, 33120, Note_on_c, 0, 48, 127
2, 33120, Note_on_c, 0, 66, 127
2, 33120, Note_on_c, 0, 57, 127
2, 33228, Note_off_c, 0, 48, 64
2, 33240, Note_on_c, 0, 43, 127
2, 33348, Note_off_c, 0, 43, 64
2, 33360, Note_on_c, 0, 48, 127
2, 33444, Note_off_c, 0, 66, 64
2, 33468, Note_off_c, 0, 48, 64
2, 33480, Note_on_c, 0, 43, 127
2, 33480, Note_on_c, 0, 67, 127
2, 33552, Note_off_c, 0, 57, 64
2, 33552, Note_off_c, 0, 63, 64
2, 33588, Note_off_c, 0, 67, 64
2, 33588, Note_off_c, 0, 43, 64
2, 33600, Note_on_c, 0, 66, 127
2, 33600, Note_on_c, 0, 48, 127
2, 33600, Note_on_c, 0, 69, 127
2, 33600, Note_on_c, 0, 63, 127
2, 33708, Note_off_c, 0, 48, 64
2, 33720, Note_on_c, 0, 43, 127
2, 33816, Note_off_c, 0, 63, 64
2, 33816, Note_off_c, 0, 69, 64
2, 33816, Note_off_c, 0, 66, 64
2, 33828, Note_off_c, 0, 43, 64
2, 33840, Note_on_c, 0, 48, 127
2, 33840, Note_on_c, 0, 69, 127
2, 33840, Note_on_c, 0, 63, 127
2, 33840, Note_on_c, 0, 66, 127
2, 33948, Note_off_c, 0, 48, 64
2, 33960, Note_on_c, 0, 43, 127
2, 34002, Note_off_c, 0, 69, 64
2, 34020, Note_on_c, 0, 71, 127
2, 34056, Note_off_c, 0, 66, 64
2, 34056, Note_off_c, 0, 63, 64
2, 34068, Note_off_c, 0, 43, 64
2, 34074, Note_off_c, 0, 71, 64
2, 34080, Note_on_c, 0, 62, 127
2, 34080, Note_on_c, 0, 47, 127
2, 34080, Note_on_c, 0, 67, 127
2, 34188, Note_off_c, 0, 47, 64
2, 34200, Note_on_c, 0, 43, 127
2, 34296, Note_off_c, 0, 67, 64
2, 34296, Note_off_c, 0, 62, 64
2, 34308, Note_off_c, 0, 43, 64
2, 34320, Note_on_c, 0, 50, 127
2, 34428, Note_off_c, 0, 50, 64
2, 34440, Note_on_c, 0, 48, 127
2, 34548, Note_off_c, 0, 48, 64
2, 34560, Note_on_c, 0, 47, 127
2, 34560, Note_on_c, 0, 59, 127
2, 34560, Note_on_c, 0, 62, 127
2, 34560, Note_on_c, 0, 67, 127
2, 34668, Note_off_c, 0, 47, 64
2, 34680, Note_on_c, 0, 45, 127
2, 34776, Note_off_c, 0, 67, 64
2, 34776, Note_off_c, 0, 62, 64
2, 34776, Note_off_c, 0, 59, 64
2, 34788, Note_off_c, 0, 45, 64
2, 34800, Note_on_c, 0, 47, 127
2, 34800, Note_on_c, 0, 62, 127
2, 34800, Note_on_c, 0, 59, 127
2, 34800, Note_on_c, 0, 67, 127
2, 34908, Note_off_c, 0, 47, 64
2, 34920, Note_on_c, 0, 43, 127
2, 35016, Note_off_c, 0, 67, 64
2, 35016, Note_off_c, 0, 59, 64
2, 35016, Note_off_c, 0, 62, 64
2, 35028, Note_off_c, 0, 43, 64
2, 35040, Note_on_c, 0, 57, 127
2, 35040, Note_on_c, 0, 48, 127
2, 35040, Note_on_c, 0, 66, 127
2, 35040, Note_on_c, 0, 63, 127
2, 35148, Note_off_c, 0, 48, 64
2, 35160, Note_on_c, 0, 43, 127
2, 35268, Note_off_c, 0, 43, 64
2, 35280, Note_on_c, 0, 48, 127
2, 35364, Note_off_c, 0, 66, 64
2, 35388, Note_off_c, 0, 48, 64
2, 35400, Note_on_c, 0, 43, 127
2, 35400, Note_on_c, 0, 67, 127
2, 35472, Note_off_c, 0, 63, 64
2, 35472, Note_off_c, 0, 57, 64
2, 35508, Note_off_c, 0, 67, 64
2, 35508, Note_off_c, 0, 43, 64
2, 35520, Note_on_c, 0, 63, 127
2, 35520, Note_on_c, 0, 48, 127
2, 35520, Note_on_c, 0, 69, 127
2, 35520, Note_on_c, 0, 66, 127
2, 35628, Note_off_c, 0, 48, 64
2, 35640, Note_on_c, 0, 43, 127
2, 35736, Note_off_c, 0, 66, 64
2, 35736, Note_off_c, 0, 69, 64
2, 35736, Note_off_c, 0, 63, 64
2, 35748, Note_off_c, 0, 43, 64
2, 35760, Note_on_c, 0, 48, 127
2, 35760, Note_on_c, 0, 69, 127
2, 35760, Note_on_c, 0, 66, 127
2, 35760, Note_on_c, 0, 63, 127
2, 35868, Note_off_c, 0, 48, 64
2, 35880, Note_on_c, 0, 43, 127
2, 35922, Note_off_c, 0, 69, 64
2, 35940, Note_on_c, 0, 71, 127
2, 35976, Note_off_c, 0, 63, 64
2, 35976, Note_off_c, 0, 66, 64
2, 35988, Note_off_c, 0, 43, 64
2, 35994, Note_off_c, 0, 71, 64
2, 36000, Note_on_c, 0, 67, 127
2, 36000, Note_on_c, 0, 47, 127
2, 36000, Note_on_c, 0, 62, 127
2, 36108, Note_off_c, 0, 47, 64
2, 36120, Note_on_c, 0, 43, 127
2, 36216, Note_off_c, 0, 62, 64
2, 36216, Note_off_c, 0, 67, 64
2, 36228, Note_off_c, 0, 43, 64
2, 36240, Note_on_c, 0, 47, 127
2, 36348, Note_off_c, 0, 47, 64
2, 36360, Note_on_c, 0, 43, 127
2, 36468, Note_off_c, 0, 43, 64
2, 36480, Note_on_c, 0, 48, 127
2, 36480, Note_on_c, 0, 63, 127
2, 36480, Note_on_c, 0, 69, 127
2, 36480, Note_on_c, 0, 66, 127
2, 36588, Note_off_c, 0, 48, 64
2, 36600, Note_on_c, 0, 43, 127
2, 36696, Note_off_c, 0, 66, 64
2, 36696, Note_off_c, 0, 69, 64
2, 36696, Note_off_c, 0, 63, 64
2, 36708, Note_off_c, 0, 43, 64
2, 36720, Note_on_c, 0, 48, 127
2, 36828, Note_off_c, 0, 48, 64
2, 36840, Note_on_c, 0, 43, 127
2, 36948, Note_off_c, 0, 43, 64
2, 36960, Note_on_c, 0, 50, 127
2, 36960, Note_on_c, 0, 71, 127
2, 36960, Note_on_c, 0, 68, 127
2, 36960, Note_on_c, 0, 65, 127
2, 37068, Note_off_c, 0, 50, 64
2, 37080, Note_on_c, 0, 43, 127
2, 37176, Note_off_c, 0, 65, 64
2, 37176, Note_off_c, 0, 68, 64
2, 37176, Note_off_c, 0, 71, 64
2, 37188, Note_off_c, 0, 43, 64
2, 37200, Note_on_c, 0, 50, 127
2, 37308, Note_off_c, 0, 50, 64
2, 37320, Note_on_c, 0, 43, 127
2, 37428, Note_off_c, 0, 43, 64
2, 37440, Note_on_c, 0, 52, 127
2, 37440, Note_on_c, 0, 72, 127
2, 37440, Note_on_c, 0, 67, 127
2, 37548, Note_off_c, 0, 52, 64
2, 37560, Note_on_c, 0, 43, 127
2, 37656, Note_off_c, 0, 67, 64
2, 37656, Note_off_c, 0, 72, 64
2, 37668, Note_off_c, 0, 43, 64
2, 37680, Note_on_c, 0, 52, 127
2, 37788, Note_off_c, 0, 52, 64
2, 37800, Note_on_c, 0, 43, 127
2, 37908, Note_off_c, 0, 43, 64
2, 37920, Note_on_c, 0, 71, 127
2, 37920, Note_on_c, 0, 53, 127
2, 37920, Note_on_c, 0, 74, 127
2, 38028, Note_off_c, 0, 53, 64
2, 38040, Note_on_c, 0, 43, 127
2, 38136, Note_off_c, 0, 74, 64
2, 38136, Note_off_c, 0, 71, 64
2, 38148, Note_off_c, 0, 43, 64
2, 38160, Note_on_c, 0, 54, 127
2, 38268, Note_off_c, 0, 54, 64
2, 38280, Note_on_c, 0, 43, 127
2, 38388, Note_off_c, 0, 43, 64
2, 38400, Note_on_c, 0, 55, 127
2, 38508, Note_off_c, 0, 55, 64
2, 38520, Note_on_c, 0, 43, 127
2, 38628, Note_off_c, 0, 43, 64
2, 38640, Note_on_c, 0, 74, 127
2, 38640, Note_on_c, 0, 83, 127
2, 38640, Note_on_c, 0, 71, 127
2, 38640, Note_on_c, 0, 56, 127
2, 38748, Note_off_c, 0, 56, 64
2, 38760, Note_on_c, 0, 43, 127
2, 38868, Note_off_c, 0, 43, 64
2, 38880, Note_on_c, 0, 55, 127
2, 38988, Note_off_c, 0, 55, 64
2, 39000, Note_on_c, 0, 43, 127
2, 39096, Note_off_c, 0, 71, 64
2, 39096, Note_off_c, 0, 83, 64
2, 39096, Note_off_c, 0, 74, 64
2, 39108, Note_off_c, 0, 43, 64
2, 39120, Note_on_c, 0, 54, 127
2, 39228, Note_off_c, 0, 54, 64
2, 39240, Note_on_c, 0, 43, 127
2, 39348, Note_off_c, 0, 43, 64
2, 39360, Note_on_c, 0, 55, 127
2, 39468, Note_off_c, 0, 55, 64
2, 39480, Note_on_c, 0, 43, 127
2, 39588, Note_off_c, 0, 43, 64
2, 39600, Note_on_c, 0, 86, 127
2, 39600, Note_on_c, 0, 83, 127
2, 39600, Note_on_c, 0, 56, 127
2, 39708, Note_off_c, 0, 56, 64
2, 39720, Note_on_c, 0, 43, 127
2, 39828, Note_off_c, 0, 43, 64
2, 39840, Note_on_c, 0, 55, 127
2, 39948, Note_off_c, 0, 55, 64
2, 39960, Note_on_c, 0, 43, 127
2, 40056, Note_off_c, 0, 83, 64
2, 40056, Note_off_c, 0, 86, 64
2, 40068, Note_off_c, 0, 43, 64
2, 40080, Note_on_c, 0, 54, 127
2, 40188, Note_off_c, 0, 54, 64
2, 40200, Note_on_c, 0, 43, 127
2, 40308, Note_off_c, 0, 43, 64
2, 40320, Note_on_c, 0, 55, 127
2, 40428, Note_off_c, 0, 55, 64
2, 40440, Note_on_c, 0, 43, 127
2, 40548, Note_off_c, 0, 43, 64
2, 40560, Note_on_c, 0, 57, 127
2, 40668, Note_off_c, 0, 57, 64
2, 40680, Note_on_c, 0, 43, 127
2, 40788, Note_off_c, 0, 43, 64
2, 40800, Note_on_c, 0, 55, 127
2, 40908, Note_off_c, 0, 55, 64
2, 40920, Note_on_c, 0, 43, 127
2, 41028, Note_off_c, 0, 43, 64
2, 41040, Note_on_c, 0, 53, 127
2, 41148, Note_off_c, 0, 53, 64
2, 41160, Note_on_c, 0, 43, 127
2, 41268, Note_off_c, 0, 43, 64
2, 41280, Note_on_c, 0, 48, 127
2, 41280, Note_on_c, 0, 52, 127
2, 41280, Note_on_c, 0, 72, 127
2, 41388, Note_off_c, 0, 52, 64
2, 41388, Note_off_c, 0, 48, 64
2, 41400, Note_on_c, 0, 55, 127
2, 41496, Note_off_c, 0, 72, 64
2, 41508, Note_off_c, 0, 55, 64
2, 41520, Note_on_c, 0, 72, 127
2, 41520, Note_on_c, 0, 64, 127
2, 41628, Note_off_c, 0, 64, 64
2, 41640, Note_on_c, 0, 67, 127
2, 41736, Note_off_c, 0, 72, 64
2, 41748, Note_off_c, 0, 67, 64
2, 41760, Note_on_c, 0, 62, 127
2, 41760, Note_on_c, 0, 65, 127
2, 41760, Note_on_c, 0, 72, 127
2, 41868, Note_off_c, 0, 72, 64
2, 41868, Note_off_c, 0, 65, 64
2, 41868, Note_off_c, 0, 62, 64
2, 41880, Note_on_c, 0, 67, 127
2, 41880, Note_on_c, 0, 71, 127
2, 41988, Note_off_c, 0, 71, 64
2, 41988, Note_off_c, 0, 67, 64
2, 42000, Note_on_c, 0, 69, 127
2, 42000, Note_on_c, 0, 62, 127
2, 42000, Note_on_c, 0, 65, 127
2, 42108, Note_off_c, 0, 65, 64
2, 42108, Note_off_c, 0, 62, 64
2, 42108, Note_off_c, 0, 69, 64
2, 42120, Note_on_c, 0, 67, 127
2, 42120, Note_on_c, 0, 71, 127
2, 42228, Note_off_c, 0, 71, 64
2, 42228, Note_off_c, 0, 67, 64
2, 42240, Note_on_c, 0, 60, 127
2, 42240, Note_on_c, 0, 72, 127
2, 42240, Note_on_c, 0, 64, 127
2, 42348, Note_off_c, 0, 64, 64
2, 42348, Note_off_c, 0, 72, 64
2, 42348, Note_off_c, 0, 60, 64
2, 42360, Note_on_c, 0, 67, 127
2, 42360, Note_on_c, 0, 74, 127
2, 42387, Note_off_c, 0, 74, 64
2, 42390, Note_on_c, 0, 72, 127
2, 42417, Note_off_c, 0, 72, 64
2, 42420, Note_on_c, 0, 71, 127
2, 42447, Note_off_c, 0, 71, 64
2, 42450, Note_on_c, 0, 72, 127
2, 42468, Note_off_c, 0, 67, 64
2, 42477, Note_off_c, 0, 72, 64
2, 42480, Note_on_c, 0, 64, 127
2, 42480, Note_on_c, 0, 60, 127
2, 42480, Note_on_c, 0, 72, 127
2, 42588, Note_off_c, 0, 60, 64
2, 42588, Note_off_c, 0, 64, 64
2, 42600, Note_on_c, 0, 67, 127
2, 42642, Note_off_c, 0, 72, 64
2, 42660, Note_on_c, 0, 76, 127
2, 42708, Note_off_c, 0, 67, 64
2, 42714, Note_off_c, 0, 76, 64
2, 42720, Note_on_c, 0, 79, 127
2, 42720, Note_on_c, 0, 59, 127
2, 42720, Note_on_c, 0, 62, 127
2, 42828, Note_off_c, 0, 62, 64
2, 42828, Note_off_c, 0, 59, 64
2, 42840, Note_on_c, 0, 67, 127
2, 42948, Note_off_c, 0, 67, 64
2, 42960, Note_on_c, 0, 59, 127
2, 42960, Note_on_c, 0, 62, 127
2, 43068, Note_off_c, 0, 62, 64
2, 43068, Note_off_c, 0, 59, 64
2, 43080, Note_on_c, 0, 67, 127
2, 43152, Note_off_c, 0, 79, 64
2, 43188, Note_off_c, 0, 67, 64
2, 43200, Note_on_c, 0, 60, 127
2, 43200, Note_on_c, 0, 57, 127
2, 43200, Note_on_c, 0, 77, 127
2, 43308, Note_off_c, 0, 77, 64
2, 43308, Note_off_c, 0, 57, 64
2, 43308, Note_off_c, 0, 60, 64
2, 43320, Note_on_c, 0, 65, 127
2, 43320, Note_on_c, 0, 81, 127
2, 43428, Note_off_c, 0, 65, 64
2, 43440, Note_on_c, 0, 62, 127
2, 43440, Note_on_c, 0, 59, 127
2, 43536, Note_off_c, 0, 81, 64
2, 43548, Note_off_c, 0, 59, 64
2, 43548, Note_off_c, 0, 62, 64
2, 43560, Note_on_c, 0, 67, 127
2, 43560, Note_on_c, 0, 79, 127
2, 43614, Note_off_c, 0, 79, 64
2, 43620, Note_on_c, 0, 77, 127
2, 43668, Note_off_c, 0, 67, 64
2, 43674, Note_off_c, 0, 77, 64
2, 43680, Note_on_c, 0, 60, 127
2, 43680, Note_on_c, 0, 76, 127
2, 43788, Note_off_c, 0, 76, 64
2, 43788, Note_off_c, 0, 60, 64
2, 43800, Note_on_c, 0, 64, 127
2, 43800, Note_on_c, 0, 79, 127
2, 43908, Note_off_c, 0, 64, 64
2, 43920, Note_on_c, 0, 55, 127
2, 43920, Note_on_c, 0, 52, 127
2, 44016, Note_off_c, 0, 79, 64
2, 44028, Note_off_c, 0, 52, 64
2, 44028, Note_off_c, 0, 55, 64
2, 44040, Note_on_c, 0, 60, 127
2, 44040, Note_on_c, 0, 77, 127
2, 44094, Note_off_c, 0, 77, 64
2, 44100, Note_on_c, 0, 76, 127
2, 44148, Note_off_c, 0, 60, 64
2, 44154, Note_off_c, 0, 76, 64
2, 44160, Note_on_c, 0, 53, 127
2, 44160, Note_on_c, 0, 53, 127
2, 44160, Note_on_c, 0, 74, 127
2, 44214, Note_off_c, 0, 74, 64
2, 44220, Note_on_c, 0, 76, 127
2, 44268, Note_off_c, 0, 53, 64
2, 44274, Note_off_c, 0, 76, 64
2, 44280, Note_on_c, 0, 57, 127
2, 44280, Note_on_c, 0, 77, 127
2, 44334, Note_off_c, 0, 77, 64
2, 44340, Note_on_c, 0, 76, 127
2, 44388, Note_off_c, 0, 57, 64
2, 44394, Note_off_c, 0, 76, 64
2, 44400, Note_on_c, 0, 79, 127
2, 44400, Note_on_c, 0, 62, 127
2, 44454, Note_off_c, 0, 79, 64
2, 44460, Note_on_c, 0, 77, 127
2, 44508, Note_off_c, 0, 62, 64
2, 44514, Note_off_c, 0, 77, 64
2, 44520, Note_on_c, 0, 65, 127
2, 44520, Note_on_c, 0, 76, 127
2, 44574, Note_off_c, 0, 76, 64
2, 44580, Note_on_c, 0, 74, 127
2, 44592, Note_off_c, 0, 53, 64
2, 44628, Note_off_c, 0, 65, 64
2, 44634, Note_off_c, 0, 74, 64
2, 44640, Note_on_c, 0, 55, 127
2, 44640, Note_on_c, 0, 72, 127
2, 44760, Note_on_c, 0, 64, 127
2, 44856, Note_off_c, 0, 72, 64
2, 44868, Note_off_c, 0, 64, 64
2, 44880, Note_on_c, 0, 62, 127
2, 44880, Note_on_c, 0, 71, 127
2, 44964, Note_off_c, 0, 55, 64
2, 44988, Note_off_c, 0, 71, 64
2, 44988, Note_off_c, 0, 62, 64
2, 45000, Note_on_c, 0, 67, 127
2, 45081, Note_off_c, 0, 67, 64
2, 45090, Note_on_c, 0, 67, 127
2, 45117, Note_off_c, 0, 67, 64
2, 45120, Note_on_c, 0, 60, 127
2, 45120, Note_on_c, 0, 64, 127
2, 45120, Note_on_c, 0, 72, 127
2, 45228, Note_off_c, 0, 64, 64
2, 45228, Note_off_c, 0, 60, 64
2, 45240, Note_on_c, 0, 67, 127
2, 45336, Note_off_c, 0, 72, 64
2, 45348, Note_off_c, 0, 67, 64
2, 45360, Note_on_c, 0, 60, 127
2, 45360, Note_on_c, 0, 72, 127
2, 45360, Note_on_c, 0, 64, 127
2, 45468, Note_off_c, 0, 64, 64
2, 45468, Note_off_c, 0, 60, 64
2, 45480, Note_on_c, 0, 67, 127
2, 45576, Note_off_c, 0, 72, 64
2, 45588, Note_off_c, 0, 67, 64
2, 45600, Note_on_c, 0, 62, 127
2, 45600, Note_on_c, 0, 65, 127
2, 45600, Note_on_c, 0, 72, 127
2, 45708, Note_off_c, 0, 72, 64
2, 45708, Note_off_c, 0, 65, 64
2, 45708, Note_off_c, 0, 62, 64
2, 45720, Note_on_c, 0, 67, 127
2, 45720, Note_on_c, 0, 71, 127
2, 45828, Note_off_c, 0, 71, 64
2, 45828, Note_off_c, 0, 67, 64
2, 45840, Note_on_c, 0, 69, 127
2, 45840, Note_on_c, 0, 62, 127
2, 45840, Note_on_c, 0, 65, 127
2, 45948, Note_off_c, 0, 65, 64
2, 45948, Note_off_c, 0, 62, 64
2, 45948, Note_off_c, 0, 69, 64
2, 45960, Note_on_c, 0, 67, 127
2, 45960, Note_on_c, 0, 71, 127
2, 46068, Note_off_c, 0, 71, 64
2, 46068, Note_off_c, 0, 67, 64
2, 46080, Note_on_c, 0, 64, 127
2, 46080, Note_on_c, 0, 72, 127
2, 46080, Note_on_c, 0, 60, 127
2, 46188, Note_off_c, 0, 60, 64
2, 46188, Note_off_c, 0, 72, 64
2, 46188, Note_off_c, 0, 64, 64
2, 46200, Note_on_c, 0, 67, 127
2, 46200, Note_on_c, 0, 74, 127
2, 46227, Note_off_c, 0, 74, 64
2, 46230, Note_on_c, 0, 72, 127
2, 46257, Note_off_c, 0, 72, 64
2, 46260, Note_on_c, 0, 71, 127
2, 46287, Note_off_c, 0, 71, 64
2, 46290, Note_on_c, 0, 72, 127
2, 46308, Note_off_c, 0, 67, 64
2, 46317, Note_off_c, 0, 72, 64
2, 46320, Note_on_c, 0, 60, 127
2, 46320, Note_on_c, 0, 64, 127
2, 46320, Note_on_c, 0, 72, 127
2, 46374, Note_off_c, 0, 72, 64
2, 46380, Note_on_c, 0, 74, 127
2, 46428, Note_off_c, 0, 64, 64
2, 46428, Note_off_c, 0, 60, 64
2, 46434, Note_off_c, 0, 74, 64
2, 46440, Note_on_c, 0, 67, 127
2, 46440, Note_on_c, 0, 76, 127
2, 46494, Note_off_c, 0, 76, 64
2, 46500, Note_on_c, 0, 77, 127
2, 46548, Note_off_c, 0, 67, 64
2, 46554, Note_off_c, 0, 77, 64
2, 46560, Note_on_c, 0, 78, 127
2, 46560, Note_on_c, 0, 59, 127
2, 46560, Note_on_c, 0, 62, 127
2, 46668, Note_off_c, 0, 62, 64
2, 46668, Note_off_c, 0, 59, 64
2, 46668, Note_off_c, 0, 78, 64
2, 46680, Note_on_c, 0, 67, 127
2, 46680, Note_on_c, 0, 79, 127
2, 46788, Note_off_c, 0, 67, 64
2, 46800, Note_on_c, 0, 62, 127
2, 46800, Note_on_c, 0, 59, 127
2, 46896, Note_off_c, 0, 79, 64
2, 46908, Note_off_c, 0, 59, 64
2, 46908, Note_off_c, 0, 62, 64
2, 46920, Note_on_c, 0, 67, 127
2, 46920, Note_on_c, 0, 79, 127
2, 47028, Note_off_c, 0, 79, 64
2, 47028, Note_off_c, 0, 67, 64
2, 47040, Note_on_c, 0, 57, 127
2, 47040, Note_on_c, 0, 60, 127
2, 47040, Note_on_c, 0, 77, 127
2, 47058, Note_off_c, 0, 77, 64
2, 47060, Note_on_c, 0, 79, 127
2, 47078, Note_off_c, 0, 79, 64
2, 47080, Note_on_c, 0, 77, 127
2, 47098, Note_off_c, 0, 77, 64
2, 47100, Note_on_c, 0, 76, 127
2, 47127, Note_off_c, 0, 76, 64
2, 47130, Note_on_c, 0, 77, 127
2, 47148, Note_off_c, 0, 60, 64
2, 47148, Note_off_c, 0, 57, 64
2, 47157, Note_off_c, 0, 77, 64
2, 47160, Note_on_c, 0, 65, 127
2, 47160, Note_on_c, 0, 81, 127
2, 47268, Note_off_c, 0, 65, 64
2, 47280, Note_on_c, 0, 62, 127
2, 47280, Note_on_c, 0, 59, 127
2, 47376, Note_off_c, 0, 81, 64
2, 47388, Note_off_c, 0, 59, 64
2, 47388, Note_off_c, 0, 62, 64
2, 47400, Note_on_c, 0, 67, 127
2, 47400, Note_on_c, 0, 79, 127
2, 47454, Note_off_c, 0, 79, 64
2, 47460, Note_on_c, 0, 77, 127
2, 47508, Note_off_c, 0, 67, 64
2, 47514, Note_off_c, 0, 77, 64
2, 47520, Note_on_c, 0, 64, 127
2, 47520, Note_on_c, 0, 76, 127
2, 47520, Note_on_c, 0, 60, 127
2, 47556, Note_off_c, 0, 76, 64
2, 47560, Note_on_c, 0, 75, 127
2, 47596, Note_off_c, 0, 75, 64
2, 47600, Note_on_c, 0, 76, 127
2, 47628, Note_off_c, 0, 60, 64
2, 47628, Note_off_c, 0, 64, 64
2, 47636, Note_off_c, 0, 76, 64
2, 47640, Note_on_c, 0, 67, 127
2, 47640, Note_on_c, 0, 79, 127
2, 47676, Note_off_c, 0, 79, 64
2, 47680, Note_on_c, 0, 77, 127
2, 47716, Note_off_c, 0, 77, 64
2, 47720, Note_on_c, 0, 76, 127
2, 47748, Note_off_c, 0, 67, 64
2, 47756, Note_off_c, 0, 76, 64
2, 47760, Note_on_c, 0, 53, 127
2, 47760, Note_on_c, 0, 74, 127
2, 47796, Note_off_c, 0, 74, 64
2, 47800, Note_on_c, 0, 73, 127
2, 47836, Note_off_c, 0, 73, 64
2, 47840, Note_on_c, 0, 74, 127
2, 47868, Note_off_c, 0, 53, 64
2, 47876, Note_off_c, 0, 74, 64
2, 47880, Note_on_c, 0, 65, 127
2, 47880, Note_on_c, 0, 77, 127
2, 47916, Note_off_c, 0, 77, 64
2, 47920, Note_on_c, 0, 76, 127
2, 47956, Note_off_c, 0, 76, 64
2, 47960, Note_on_c, 0, 74, 127
2, 47988, Note_off_c, 0, 65, 64
2, 47996, Note_off_c, 0, 74, 64
2, 48000, Note_on_c, 0, 72, 127
2, 48000, Note_on_c, 0, 55, 127
2, 48108, Note_off_c, 0, 55, 64
2, 48108, Note_off_c, 0, 72, 64
2, 48120, Note_on_c, 0, 64, 127
2, 48120, Note_on_c, 0, 74, 127
2, 48147, Note_off_c, 0, 74, 64
2, 48150, Note_on_c, 0, 72, 127
2, 48177, Note_off_c, 0, 72, 64
2, 48180, Note_on_c, 0, 71, 127
2, 48207, Note_off_c, 0, 71, 64
2, 48210, Note_on_c, 0, 72, 127
2, 48228, Note_off_c, 0, 64, 64
2, 48237, Note_off_c, 0, 72, 64
2, 48240, Note_on_c, 0, 55, 127
2, 48240, Note_on_c, 0, 76, 127
2, 48348, Note_off_c, 0, 76, 64
2, 48348, Note_off_c, 0, 55, 64
2, 48360, Note_on_c, 0, 65, 127
2, 48360, Note_on_c, 0, 74, 127
2, 48468, Note_off_c, 0, 74, 64
2, 48468, Note_off_c, 0, 65, 64
2, 48480, Note_on_c, 0, 48, 127
2, 48480, Note_on_c, 0, 64, 127
2, 48480, Note_on_c, 0, 72, 127
2, 48588, Note_off_c, 0, 48, 64
2, 48600, Note_on_c, 0, 60, 127
2, 48696, Note_off_c, 0, 72, 64
2, 48696, Note_off_c, 0, 64, 64
2, 48708, Note_off_c, 0, 60, 64
2, 48720, Note_on_c, 0, 48, 127
2, 48828, Note_off_c, 0, 48, 64
2, 48840, Note_on_c, 0, 67, 127
2, 48948, Note_off_c, 0, 67, 64
2, 48960, Note_on_c, 0, 55, 127
2, 48960, Note_on_c, 0, 75, 127
2, 48960, Note_on_c, 0, 63, 127
2, 48960, Note_on_c, 0, 48, 127
2, 49068, Note_off_c, 0, 48, 64
2, 49068, Note_off_c, 0, 63, 64
2, 49068, Note_off_c, 0, 75, 64
2, 49068, Note_off_c, 0, 55, 64
2, 49080, Note_on_c, 0, 75, 127
2, 49080, Note_on_c, 0, 63, 127
2, 49080, Note_on_c, 0, 55, 127
2, 49080, Note_on_c, 0, 48, 127
2, 49296, Note_off_c, 0, 48, 64
2, 49296, Note_off_c, 0, 75, 64
2, 49320, Note_on_c, 0, 74, 127
2, 49320, Note_on_c, 0, 50, 127
2, 49374, Note_off_c, 0, 50, 64
2, 49374, Note_off_c, 0, 74, 64
2, 49380, Note_on_c, 0, 72, 127
2, 49380, Note_on_c, 0, 51, 127
2, 49404, Note_off_c, 0, 55, 64
2, 49404, Note_off_c, 0, 63, 64
2, 49434, Note_off_c, 0, 51, 64
2, 49434, Note_off_c, 0, 72, 64
2, 49440, Note_on_c, 0, 50, 127
2, 49476, Note_off_c, 0, 50, 64
2, 49480, Note_on_c, 0, 53, 127
2, 49516, Note_off_c, 0, 53, 64
2, 49520, Note_on_c, 0, 56, 127
2, 49556, Note_off_c, 0, 56, 64
2, 49560, Note_on_c, 0, 62, 127
2, 49596, Note_off_c, 0, 62, 64
2, 49600, Note_on_c, 0, 65, 127
2, 49636, Note_off_c, 0, 65, 64
2, 49640, Note_on_c, 0, 70, 127
2, 49676, Note_off_c, 0, 70, 64
2, 49680, Note_on_c, 0, 62, 127
2, 49716, Note_off_c, 0, 62, 64
2, 49720, Note_on_c, 0, 65, 127
2, 49756, Note_off_c, 0, 65, 64
2, 49760, Note_on_c, 0, 68, 127
2, 49796, Note_off_c, 0, 68, 64
2, 49800, Note_on_c, 0, 70, 127
2, 49836, Note_off_c, 0, 70, 64
2, 49840, Note_on_c, 0, 74, 127
2, 49876, Note_off_c, 0, 74, 64
2, 49880, Note_on_c, 0, 77, 127
2, 49916, Note_off_c, 0, 77, 64
2, 49920, Note_on_c, 0, 65, 127
2, 49920, Note_on_c, 0, 59, 127
2, 49920, Note_on_c, 0, 77, 127
2, 49920, Note_on_c, 0, 50, 127
2, 50028, Note_off_c, 0, 50, 64
2, 50028, Note_off_c, 0, 77, 64
2, 50028, Note_off_c, 0, 59, 64
2, 50028, Note_off_c, 0, 65, 64
2, 50040, Note_on_c, 0, 77, 127
2, 50040, Note_on_c, 0, 65, 127
2, 50040, Note_on_c, 0, 59, 127
2, 50040, Note_on_c, 0, 50, 127
2, 50256, Note_off_c, 0, 50, 64
2, 50256, Note_off_c, 0, 77, 64
2, 50280, Note_on_c, 0, 75, 127
2, 50280, Note_on_c, 0, 51, 127
2, 50334, Note_off_c, 0, 51, 64
2, 50334, Note_off_c, 0, 75, 64
2, 50340, Note_on_c, 0, 74, 127
2, 50340, Note_on_c, 0, 53, 127
2, 50364, Note_off_c, 0, 59, 64
2, 50364, Note_off_c, 0, 65, 64
2, 50394, Note_off_c, 0, 53, 64
2, 50394, Note_off_c, 0, 74, 64
2, 50400, Note_on_c, 0, 51, 127
2, 50436, Note_off_c, 0, 51, 64
2, 50440, Note_on_c, 0, 55, 127
2, 50476, Note_off_c, 0, 55, 64
2, 50480, Note_on_c, 0, 60, 127
2, 50516, Note_off_c, 0, 60, 64
2, 50520, Note_on_c, 0, 63, 127
2, 50556, Note_off_c, 0, 63, 64
2, 50560, Note_on_c, 0, 67, 127
2, 50596, Note_off_c, 0, 67, 64
2, 50600, Note_on_c, 0, 72, 127
2, 50636, Note_off_c, 0, 72, 64
2, 50640, Note_on_c, 0, 63, 127
2, 50676, Note_off_c, 0, 63, 64
2, 50680, Note_on_c, 0, 67, 127
2, 50716, Note_off_c, 0, 67, 64
2, 50720, Note_on_c, 0, 72, 127
2, 50756, Note_off_c, 0, 72, 64
2, 50760, Note_on_c, 0, 75, 127
2, 50796, Note_off_c, 0, 75, 64
2, 50800, Note_on_c, 0, 79, 127
2, 50836, Note_off_c, 0, 79, 64
2, 50840, Note_on_c, 0, 84, 127
2, 50876, Note_off_c, 0, 84, 64
2, 50880, Note_on_c, 0, 67, 127
2, 50880, Note_on_c, 0, 85, 127
2, 50880, Note_on_c, 0, 73, 127
2, 50880, Note_on_c, 0, 64, 127
2, 50988, Note_off_c, 0, 64, 64
2, 50988, Note_off_c, 0, 73, 64
2, 50988, Note_off_c, 0, 85, 64
2, 50988, Note_off_c, 0, 67, 64
2, 51000, Note_on_c, 0, 67, 127
2, 51000, Note_on_c, 0, 85, 127
2, 51000, Note_on_c, 0, 73, 127
2, 51000, Note_on_c, 0, 64, 127
2, 51216, Note_off_c, 0, 64, 64
2, 51216, Note_off_c, 0, 73, 64
2, 51216, Note_off_c, 0, 85, 64
2, 51216, Note_off_c, 0, 67, 64
2, 51240, Note_on_c, 0, 68, 127
2, 51240, Note_on_c, 0, 65, 127
2, 51240, Note_on_c, 0, 84, 127
2, 51294, Note_off_c, 0, 84, 64
2, 51294, Note_off_c, 0, 65, 64
2, 51294, Note_off_c, 0, 68, 64
2, 51300, Note_on_c, 0, 82, 127
2, 51300, Note_on_c, 0, 70, 127
2, 51300, Note_on_c, 0, 67, 127
2, 51354, Note_off_c, 0, 67, 64
2, 51354, Note_off_c, 0, 70, 64
2, 51354, Note_off_c, 0, 82, 64
2, 51360, Note_on_c, 0, 68, 127
2, 51360, Note_on_c, 0, 82, 127
2, 51360, Note_on_c, 0, 65, 127
2, 51414, Note_off_c, 0, 82, 64
2, 51420, Note_on_c, 0, 80, 127
2, 51474, Note_off_c, 0, 80, 64
2, 51480, Note_on_c, 0, 80, 127
2, 51534, Note_off_c, 0, 80, 64
2, 51540, Note_on_c, 0, 79, 127
2, 51576, Note_off_c, 0, 65, 64
2, 51576, Note_off_c, 0, 68, 64
2, 51594, Note_off_c, 0, 79, 64
2, 51600, Note_on_c, 0, 79, 127
2, 51654, Note_off_c, 0, 79, 64
2, 51660, Note_on_c, 0, 77, 127
2, 51714, Note_off_c, 0, 77, 64
2, 51720, Note_on_c, 0, 77, 127
2, 51774, Note_off_c, 0, 77, 64
2, 51780, Note_on_c, 0, 75, 127
2, 51834, Note_off_c, 0, 75, 64
2, 51840, Note_on_c, 0, 56, 127
2, 51840, Note_on_c, 0, 75, 127
2, 51840, Note_on_c, 0, 53, 127
2, 51894, Note_off_c, 0, 75, 64
2, 51900, Note_on_c, 0, 74, 127
2, 51948, Note_off_c, 0, 53, 64
2, 51948, Note_off_c, 0, 56, 64
2, 51954, Note_off_c, 0, 74, 64
2, 51960, Note_on_c, 0, 74, 127
2, 52014, Note_off_c, 0, 74, 64
2, 52020, Note_on_c, 0, 75, 127
2, 52074, Note_off_c, 0, 75, 64
2, 52080, Note_on_c, 0, 54, 127
2, 52080, Note_on_c, 0, 57, 127
2, 52080, Note_on_c, 0, 75, 127
2, 52134, Note_off_c, 0, 75, 64
2, 52140, Note_on_c, 0, 74, 127
2, 52188, Note_off_c, 0, 57, 64
2, 52188, Note_off_c, 0, 54, 64
2, 52194, Note_off_c, 0, 74, 64
2, 52200, Note_on_c, 0, 74, 127
2, 52254, Note_off_c, 0, 74, 64
2, 52260, Note_on_c, 0, 72, 127
2, 52314, Note_off_c, 0, 72, 64
2, 52320, Note_on_c, 0, 55, 127
2, 52320, Note_on_c, 0, 62, 127
2, 52320, Note_on_c, 0, 72, 127
2, 52374, Note_off_c, 0, 72, 64
2, 52380, Note_on_c, 0, 71, 127
2, 52428, Note_off_c, 0, 62, 64
2, 52428, Note_off_c, 0, 55, 64
2, 52434, Note_off_c, 0, 71, 64
2, 52440, Note_on_c, 0, 69, 127
2, 52494, Note_off_c, 0, 69, 64
2, 52500, Note_on_c, 0, 67, 127
2, 52554, Note_off_c, 0, 67, 64
2, 52560, Note_on_c, 0, 66, 127
2, 52614, Note_off_c, 0, 66, 64
2, 52620, Note_on_c, 0, 67, 127
2, 52674, Note_off_c, 0, 67, 64
2, 52680, Note_on_c, 0, 68, 127
2, 52734, Note_off_c, 0, 68, 64
2, 52740, Note_on_c, 0, 67, 127
2, 52794, Note_off_c, 0, 67, 64
2, 52800, Note_on_c, 0, 63, 127
2, 52800, Note_on_c, 0, 55, 127
2, 52800, Note_on_c, 0, 75, 127
2, 52800, Note_on_c, 0, 48, 127
2, 52908, Note_off_c, 0, 48, 64
2, 52908, Note_off_c, 0, 75, 64
2, 52908, Note_off_c, 0, 55, 64
2, 52908, Note_off_c, 0, 63, 64
2, 52920, Note_on_c, 0, 75, 127
2, 52920, Note_on_c, 0, 63, 127
2, 52920, Note_on_c, 0, 55, 127
2, 52920, Note_on_c, 0, 48, 127
2, 53136, Note_off_c, 0, 48, 64
2, 53136, Note_off_c, 0, 75, 64
2, 53160, Note_on_c, 0, 74, 127
2, 53160, Note_on_c, 0, 50, 127
2, 53214, Note_off_c, 0, 50, 64
2, 53214, Note_off_c, 0, 74, 64
2, 53220, Note_on_c, 0, 72, 127
2, 53220, Note_on_c, 0, 51, 127
2, 53244, Note_off_c, 0, 55, 64
2, 53244, Note_off_c, 0, 63, 64
2, 53274, Note_off_c, 0, 51, 64
2, 53274, Note_off_c, 0, 72, 64
2, 53280, Note_on_c, 0, 50, 127
2, 53316, Note_off_c, 0, 50, 64
2, 53320, Note_on_c, 0, 53, 127
2, 53356, Note_off_c, 0, 53, 64
2, 53360, Note_on_c, 0, 58, 127
2, 53396, Note_off_c, 0, 58, 64
2, 53400, Note_on_c, 0, 62, 127
2, 53436, Note_off_c, 0, 62, 64
2, 53440, Note_on_c, 0, 65, 127
2, 53476, Note_off_c, 0, 65, 64
2, 53480, Note_on_c, 0, 70, 127
2, 53516, Note_off_c, 0, 70, 64
2, 53520, Note_on_c, 0, 62, 127
2, 53556, Note_off_c, 0, 62, 64
2, 53560, Note_on_c, 0, 65, 127
2, 53596, Note_off_c, 0, 65, 64
2, 53600, Note_on_c, 0, 70, 127
2, 53636, Note_off_c, 0, 70, 64
2, 53640, Note_on_c, 0, 74, 127
2, 53676, Note_off_c, 0, 74, 64
2, 53680, Note_on_c, 0, 77, 127
2, 53716, Note_off_c, 0, 77, 64
2, 53720, Note_on_c, 0, 80, 127
2, 53756, Note_off_c, 0, 80, 64
2, 53760, Note_on_c, 0, 80, 127
2, 53760, Note_on_c, 0, 58, 127
2, 53760, Note_on_c, 0, 84, 127
2, 53760, Note_on_c, 0, 46, 127
2, 53868, Note_off_c, 0, 46, 64
2, 53868, Note_off_c, 0, 84, 64
2, 53868, Note_off_c, 0, 58, 64
2, 53868, Note_off_c, 0, 80, 64
2, 53880, Note_on_c, 0, 84, 127
2, 53880, Note_on_c, 0, 80, 127
2, 53880, Note_on_c, 0, 58, 127
2, 53880, Note_on_c, 0, 46, 127
2, 54096, Note_off_c, 0, 46, 64
2, 54096, Note_off_c, 0, 80, 64
2, 54096, Note_off_c, 0, 84, 64
2, 54120, Note_on_c, 0, 48, 127
2, 54120, Note_on_c, 0, 79, 127
2, 54120, Note_on_c, 0, 82, 127
2, 54174, Note_off_c, 0, 82, 64
2, 54174, Note_off_c, 0, 79, 64
2, 54174, Note_off_c, 0, 48, 64
2, 54180, Note_on_c, 0, 80, 127
2, 54180, Note_on_c, 0, 77, 127
2, 54180, Note_on_c, 0, 50, 127
2, 54204, Note_off_c, 0, 58, 64
2, 54234, Note_off_c, 0, 50, 64
2, 54234, Note_off_c, 0, 77, 64
2, 54234, Note_off_c, 0, 80, 64
2, 54240, Note_on_c, 0, 51, 127
2, 54276, Note_off_c, 0, 51, 64
2, 54280, Note_on_c, 0, 55, 127
2, 54316, Note_off_c, 0, 55, 64
2, 54320, Note_on_c, 0, 58, 127
2, 54356, Note_off_c, 0, 58, 64
2, 54360, Note_on_c, 0, 67, 127
2, 54396, Note_off_c, 0, 67, 64
2, 54400, Note_on_c, 0, 70, 127
2, 54436, Note_off_c, 0, 70, 64
2, 54440, Note_on_c, 0, 75, 127
2, 54476, Note_off_c, 0, 75, 64
2, 54480, Note_on_c, 0, 63, 127
2, 54516, Note_off_c, 0, 63, 64
2, 54520, Note_on_c, 0, 67, 127
2, 54556, Note_off_c, 0, 67, 64
2, 54560, Note_on_c, 0, 70, 127
2, 54596, Note_off_c, 0, 70, 64
2, 54600, Note_on_c, 0, 79, 127
2, 54636, Note_off_c, 0, 79, 64
2, 54640, Note_on_c, 0, 82, 127
2, 54676, Note_off_c, 0, 82, 64
2, 54680, Note_on_c, 0, 87, 127
2, 54716, Note_off_c, 0, 87, 64
2, 54720, Note_on_c, 0, 58, 127
2, 54720, Note_on_c, 0, 63, 127
2, 54720, Note_on_c, 0, 55, 127
2, 54840, Note_on_c, 0, 87, 127
2, 54876, Note_off_c, 0, 87, 64
2, 54880, Note_on_c, 0, 86, 127
2, 54916, Note_off_c, 0, 86, 64
2, 54920, Note_on_c, 0, 84, 127
2, 54936, Note_off_c, 0, 55, 64
2, 54936, Note_off_c, 0, 63, 64
2, 54936, Note_off_c, 0, 58, 64
2, 54956, Note_off_c, 0, 84, 64
2, 54960, Note_on_c, 0, 82, 127
2, 54996, Note_off_c, 0, 82, 64
2, 55000, Note_on_c, 0, 80, 127
2, 55036, Note_off_c, 0, 80, 64
2, 55040, Note_on_c, 0, 79, 127
2, 55076, Note_off_c, 0, 79, 64
2, 55080, Note_on_c, 0, 77, 127
2, 55116, Note_off_c, 0, 77, 64
2, 55120, Note_on_c, 0, 75, 127
2, 55156, Note_off_c, 0, 75, 64
2, 55160, Note_on_c, 0, 74, 127
2, 55196, Note_off_c, 0, 74, 64
2, 55200, Note_on_c, 0, 72, 127
2, 55200, Note_on_c, 0, 65, 127
2, 55200, Note_on_c, 0, 56, 127
2, 55200, Note_on_c, 0, 63, 127
2, 55200, Note_on_c, 0, 60, 127
2, 55308, Note_off_c, 0, 72, 64
2, 55320, Note_on_c, 0, 84, 127
2, 55356, Note_off_c, 0, 84, 64
2, 55360, Note_on_c, 0, 82, 127
2, 55396, Note_off_c, 0, 82, 64
2, 55400, Note_on_c, 0, 80, 127
2, 55416, Note_off_c, 0, 60, 64
2, 55416, Note_off_c, 0, 63, 64
2, 55416, Note_off_c, 0, 56, 64
2, 55416, Note_off_c, 0, 65, 64
2, 55436, Note_off_c, 0, 80, 64
2, 55440, Note_on_c, 0, 79, 127
2, 55476, Note_off_c, 0, 79, 64
2, 55480, Note_on_c, 0, 77, 127
2, 55516, Note_off_c, 0, 77, 64
2, 55520, Note_on_c, 0, 75, 127
2, 55556, Note_off_c, 0, 75, 64
2, 55560, Note_on_c, 0, 74, 127
2, 55596, Note_off_c, 0, 74, 64
2, 55600, Note_on_c, 0, 75, 127
2, 55636, Note_off_c, 0, 75, 64
2, 55640, Note_on_c, 0, 72, 127
2, 55676, Note_off_c, 0, 72, 64
2, 55680, Note_on_c, 0, 67, 127
2, 55680, Note_on_c, 0, 58, 127
2, 55680, Note_on_c, 0, 63, 127
2, 55680, Note_on_c, 0, 70, 127
2, 55788, Note_off_c, 0, 70, 64
2, 55788, Note_off_c, 0, 63, 64
2, 55788, Note_off_c, 0, 58, 64
2, 55788, Note_off_c, 0, 67, 64
2, 55800, Note_on_c, 0, 82, 127
2, 55800, Note_on_c, 0, 70, 127
2, 55800, Note_on_c, 0, 75, 127
2, 55800, Note_on_c, 0, 79, 127
2, 55908, Note_off_c, 0, 79, 64
2, 55908, Note_off_c, 0, 75, 64
2, 55908, Note_off_c, 0, 70, 64
2, 55908, Note_off_c, 0, 82, 64
2, 55920, Note_on_c, 0, 46, 127
2, 55920, Note_on_c, 0, 58, 127
2, 56028, Note_off_c, 0, 58, 64
2, 56028, Note_off_c, 0, 46, 64
2, 56040, Note_on_c, 0, 68, 127
2, 56040, Note_on_c, 0, 65, 127
2, 56040, Note_on_c, 0, 74, 127
2, 56040, Note_on_c, 0, 70, 127
2, 56148, Note_off_c, 0, 70, 64
2, 56148, Note_off_c, 0, 74, 64
2, 56148, Note_off_c, 0, 65, 64
2, 56148, Note_off_c, 0, 68, 64
2, 56160, Note_on_c, 0, 51, 127
2, 56160, Note_on_c, 0, 75, 127
2, 56160, Note_on_c, 0, 67, 127
2, 56160, Note_on_c, 0, 70, 127
2, 56214, Note_off_c, 0, 51, 64
2, 56220, Note_on_c, 0, 58, 127
2, 56274, Note_off_c, 0, 58, 64
2, 56280, Note_on_c, 0, 55, 127
2, 56334, Note_off_c, 0, 55, 64
2, 56340, Note_on_c, 0, 58, 127
2, 56376, Note_off_c, 0, 70, 64
2, 56376, Note_off_c, 0, 67, 64
2, 56376, Note_off_c, 0, 75, 64
2, 56394, Note_off_c, 0, 58, 64
2, 56400, Note_on_c, 0, 46, 127
2, 56454, Note_off_c, 0, 46, 64
2, 56460, Note_on_c, 0, 58, 127
2, 56514, Note_off_c, 0, 58, 64
2, 56520, Note_on_c, 0, 55, 127
2, 56574, Note_off_c, 0, 55, 64
2, 56580, Note_on_c, 0, 58, 127
2, 56634, Note_off_c, 0, 58, 64
2, 56640, Note_on_c, 0, 51, 127
2, 56694, Note_off_c, 0, 51, 64
2, 56700, Note_on_c, 0, 58, 127
2, 56754, Note_off_c, 0, 58, 64
2, 56760, Note_on_c, 0, 79, 127
2, 56760, Note_on_c, 0, 55, 127
2, 56814, Note_off_c, 0, 55, 64
2, 56820, Note_on_c, 0, 58, 127
2, 56868, Note_off_c, 0, 79, 64
2, 56874, Note_off_c, 0, 58, 64
2, 56880, Note_on_c, 0, 46, 127
2, 56880, Note_on_c, 0, 79, 127
2, 56934, Note_off_c, 0, 46, 64
2, 56940, Note_on_c, 0, 58, 127
2, 56988, Note_off_c, 0, 79, 64
2, 56994, Note_off_c, 0, 58, 64
2, 57000, Note_on_c, 0, 55, 127
2, 57000, Note_on_c, 0, 79, 127
2, 57054, Note_off_c, 0, 55, 64
2, 57060, Note_on_c, 0, 58, 127
2, 57108, Note_off_c, 0, 79, 64
2, 57114, Note_off_c, 0, 58, 64
2, 57120, Note_on_c, 0, 82, 127
2, 57120, Note_on_c, 0, 53, 127
2, 57174, Note_off_c, 0, 53, 64
2, 57180, Note_on_c, 0, 58, 127
2, 57234, Note_off_c, 0, 58, 64
2, 57240, Note_on_c, 0, 56, 127
2, 57282, Note_off_c, 0, 82, 64
2, 57294, Note_off_c, 0, 56, 64
2, 57300, Note_on_c, 0, 58, 127
2, 57300, Note_on_c, 0, 80, 127
2, 57354, Note_off_c, 0, 80, 64
2, 57354, Note_off_c, 0, 58, 64
2, 57360, Note_on_c, 0, 77, 127
2, 57360, Note_on_c, 0, 46, 127
2, 57414, Note_off_c, 0, 46, 64
2, 57420, Note_on_c, 0, 58, 127
2, 57474, Note_off_c, 0, 58, 64
2, 57480, Note_on_c, 0, 56, 127
2, 57534, Note_off_c, 0, 56, 64
2, 57540, Note_on_c, 0, 58, 127
2, 57576, Note_off_c, 0, 77, 64
2, 57594, Note_off_c, 0, 58, 64
2, 57600, Note_on_c, 0, 50, 127
2, 57654, Note_off_c, 0, 50, 64
2, 57660, Note_on_c, 0, 58, 127
2, 57714, Note_off_c, 0, 58, 64
2, 57720, Note_on_c, 0, 70, 127
2, 57720, Note_on_c, 0, 56, 127
2, 57774, Note_off_c, 0, 56, 64
2, 57780, Note_on_c, 0, 58, 127
2, 57828, Note_off_c, 0, 70, 64
2, 57834, Note_off_c, 0, 58, 64
2, 57840, Note_on_c, 0, 46, 127
2, 57840, Note_on_c, 0, 70, 127
2, 57894, Note_off_c, 0, 46, 64
2, 57900, Note_on_c, 0, 58, 127
2, 57948, Note_off_c, 0, 70, 64
2, 57954, Note_off_c, 0, 58, 64
2, 57960, Note_on_c, 0, 56, 127
2, 57960, Note_on_c, 0, 70, 127
2, 58014, Note_off_c, 0, 56, 64
2, 58020, Note_on_c, 0, 58, 127
2, 58041, Note_off_c, 0, 70, 64
2, 58050, Note_on_c, 0, 70, 127
2, 58074, Note_off_c, 0, 58, 64
2, 58077, Note_off_c, 0, 70, 64
2, 58080, Note_on_c, 0, 51, 127
2, 58080, Note_on_c, 0, 77, 127
2, 58134, Note_off_c, 0, 51, 64
2, 58140, Note_on_c, 0, 58, 127
2, 58194, Note_off_c, 0, 58, 64
2, 58200, Note_on_c, 0, 55, 127
2, 58254, Note_off_c, 0, 55, 64
2, 58260, Note_on_c, 0, 58, 127
2, 58296, Note_off_c, 0, 77, 64
2, 58314, Note_off_c, 0, 58, 64
2, 58320, Note_on_c, 0, 75, 127
2, 58320, Note_on_c, 0, 46, 127
2, 58374, Note_off_c, 0, 46, 64
2, 58380, Note_on_c, 0, 58, 127
2, 58428, Note_off_c, 0, 75, 64
2, 58434, Note_off_c, 0, 58, 64
2, 58440, Note_on_c, 0, 55, 127
2, 58494, Note_off_c, 0, 55, 64
2, 58500, Note_on_c, 0, 58, 127
2, 58554, Note_off_c, 0, 58, 64
2, 58560, Note_on_c, 0, 51, 127
2, 58614, Note_off_c, 0, 51, 64
2, 58620, Note_on_c, 0, 58, 127
2, 58620, Note_on_c, 0, 79, 127
2, 58674, Note_off_c, 0, 79, 64
2, 58674, Note_off_c, 0, 58, 64
2, 58680, Note_on_c, 0, 78, 127
2, 58680, Note_on_c, 0, 55, 127
2, 58734, Note_off_c, 0, 55, 64
2, 58734, Note_off_c, 0, 78, 64
2, 58740, Note_on_c, 0, 58, 127
2, 58740, Note_on_c, 0, 79, 127
2, 58794, Note_off_c, 0, 79, 64
2, 58794, Note_off_c, 0, 58, 64
2, 58800, Note_on_c, 0, 46, 127
2, 58800, Note_on_c, 0, 78, 127
2, 58854, Note_off_c, 0, 78, 64
2, 58854, Note_off_c, 0, 46, 64
2, 58860, Note_on_c, 0, 58, 127
2, 58860, Note_on_c, 0, 79, 127
2, 58914, Note_off_c, 0, 79, 64
2, 58914, Note_off_c, 0, 58, 64
2, 58920, Note_on_c, 0, 55, 127
2, 58920, Note_on_c, 0, 80, 127
2, 58974, Note_off_c, 0, 80, 64
2, 58974, Note_off_c, 0, 55, 64
2, 58980, Note_on_c, 0, 58, 127
2, 58980, Note_on_c, 0, 79, 127
2, 59034, Note_off_c, 0, 79, 64
2, 59034, Note_off_c, 0, 58, 64
2, 59040, Note_on_c, 0, 53, 127
2, 59040, Note_on_c, 0, 82, 127
2, 59094, Note_off_c, 0, 53, 64
2, 59100, Note_on_c, 0, 58, 127
2, 59154, Note_off_c, 0, 58, 64
2, 59160, Note_on_c, 0, 56, 127
2, 59202, Note_off_c, 0, 82, 64
2, 59214, Note_off_c, 0, 56, 64
2, 59220, Note_on_c, 0, 58, 127
2, 59220, Note_on_c, 0, 80, 127
2, 59274, Note_off_c, 0, 80, 64
2, 59274, Note_off_c, 0, 58, 64
2, 59280, Note_on_c, 0, 46, 127
2, 59280, Note_on_c, 0, 77, 127
2, 59334, Note_off_c, 0, 46, 64
2, 59340, Note_on_c, 0, 58, 127
2, 59394, Note_off_c, 0, 58, 64
2, 59400, Note_on_c, 0, 56, 127
2, 59454, Note_off_c, 0, 56, 64
2, 59460, Note_on_c, 0, 58, 127
2, 59496, Note_off_c, 0, 77, 64
2, 59514, Note_off_c, 0, 58, 64
2, 59520, Note_on_c, 0, 50, 127
2, 59574, Note_off_c, 0, 50, 64
2, 59580, Note_on_c, 0, 58, 127
2, 59580, Note_on_c, 0, 70, 127
2, 59634, Note_off_c, 0, 70, 64
2, 59634, Note_off_c, 0, 58, 64
2, 59640, Note_on_c, 0, 69, 127
2, 59640, Note_on_c, 0, 56, 127
2, 59694, Note_off_c, 0, 56, 64
2, 59694, Note_off_c, 0, 69, 64
2, 59700, Note_on_c, 0, 58, 127
2, 59700, Note_on_c, 0, 70, 127
2, 59754, Note_off_c, 0, 70, 64
2, 59754, Note_off_c, 0, 58, 64
2, 59760, Note_on_c, 0, 46, 127
2, 59760, Note_on_c, 0, 69, 127
2, 59814, Note_off_c, 0, 69, 64
2, 59814, Note_off_c, 0, 46, 64
2, 59820, Note_on_c, 0, 58, 127
2, 59820, Note_on_c, 0, 70, 127
2, 59874, Note_off_c, 0, 70, 64
2, 59874, Note_off_c, 0, 58, 64
2, 59880, Note_on_c, 0, 56, 127
2, 59880, Note_on_c, 0, 69, 127
2, 59934, Note_off_c, 0, 69, 64
2, 59934, Note_off_c, 0, 56, 64
2, 59940, Note_on_c, 0, 58, 127
2, 59940, Note_on_c, 0, 70, 127
2, 59967, Note_off_c, 0, 70, 64
2, 59970, Note_on_c, 0, 70, 127
2, 59994, Note_off_c, 0, 58, 64
2, 59997, Note_off_c, 0, 70, 64
2, 60000, Note_on_c, 0, 49, 127
2, 60000, Note_on_c, 0, 77, 127
2, 60054, Note_off_c, 0, 49, 64
2, 60060, Note_on_c, 0, 58, 127
2, 60114, Note_off_c, 0, 58, 64
2, 60120, Note_on_c, 0, 55, 127
2, 60174, Note_off_c, 0, 55, 64
2, 60180, Note_on_c, 0, 58, 127
2, 60216, Note_off_c, 0, 77, 64
2, 60234, Note_off_c, 0, 58, 64
2, 60240, Note_on_c, 0, 76, 127
2, 60240, Note_on_c, 0, 48, 127
2, 60294, Note_off_c, 0, 48, 64
2, 60300, Note_on_c, 0, 58, 127
2, 60348, Note_off_c, 0, 76, 64
2, 60354, Note_off_c, 0, 58, 64
2, 60360, Note_on_c, 0, 55, 127
2, 60414, Note_off_c, 0, 55, 64
2, 60420, Note_on_c, 0, 58, 127
2, 60474, Note_off_c, 0, 58, 64
2, 60480, Note_on_c, 0, 52, 127
2, 60534, Note_off_c, 0, 52, 64
2, 60540, Note_on_c, 0, 58, 127
2, 60540, Note_on_c, 0, 72, 127
2, 60594, Note_off_c, 0, 72, 64
2, 60594, Note_off_c, 0, 58, 64
2, 60600, Note_on_c, 0, 71, 127
2, 60600, Note_on_c, 0, 55, 127
2, 60654, Note_off_c, 0, 55, 64
2, 60654, Note_off_c, 0, 71, 64
2, 60660, Note_on_c, 0, 58, 127
2, 60660, Note_on_c, 0, 72, 127
2, 60714, Note_off_c, 0, 72, 64
2, 60714, Note_off_c, 0, 58, 64
2, 60720, Note_on_c, 0, 48, 127
2, 60720, Note_on_c, 0, 71, 127
2, 60774, Note_off_c, 0, 71, 64
2, 60774, Note_off_c, 0, 48, 64
2, 60780, Note_on_c, 0, 58, 127
2, 60780, Note_on_c, 0, 72, 127
2, 60834, Note_off_c, 0, 72, 64
2, 60834, Note_off_c, 0, 58, 64
2, 60840, Note_on_c, 0, 55, 127
2, 60840, Note_on_c, 0, 71, 127
2, 60894, Note_off_c, 0, 71, 64
2, 60894, Note_off_c, 0, 55, 64
2, 60900, Note_on_c, 0, 58, 127
2, 60900, Note_on_c, 0, 72, 127
2, 60927, Note_off_c, 0, 72, 64
2, 60930, Note_on_c, 0, 72, 127
2, 60954, Note_off_c, 0, 58, 64
2, 60957, Note_off_c, 0, 72, 64
2, 60960, Note_on_c, 0, 51, 127
2, 60960, Note_on_c, 0, 79, 127
2, 61014, Note_off_c, 0, 51, 64
2, 61020, Note_on_c, 0, 60, 127
2, 61074, Note_off_c, 0, 60, 64
2, 61080, Note_on_c, 0, 57, 127
2, 61134, Note_off_c, 0, 57, 64
2, 61140, Note_on_c, 0, 60, 127
2, 61176, Note_off_c, 0, 79, 64
2, 61194, Note_off_c, 0, 60, 64
2, 61200, Note_on_c, 0, 78, 127
2, 61200, Note_on_c, 0, 50, 127
2, 61254, Note_off_c, 0, 50, 64
2, 61260, Note_on_c, 0, 60, 127
2, 61308, Note_off_c, 0, 78, 64
2, 61314, Note_off_c, 0, 60, 64
2, 61320, Note_on_c, 0, 57, 127
2, 61374, Note_off_c, 0, 57, 64
2, 61380, Note_on_c, 0, 60, 127
2, 61434, Note_off_c, 0, 60, 64
2, 61440, Note_on_c, 0, 54, 127
2, 61494, Note_off_c, 0, 54, 64
2, 61500, Note_on_c, 0, 60, 127
2, 61500, Note_on_c, 0, 74, 127
2, 61554, Note_off_c, 0, 74, 64
2, 61554, Note_off_c, 0, 60, 64
2, 61560, Note_on_c, 0, 73, 127
2, 61560, Note_on_c, 0, 57, 127
2, 61614, Note_off_c, 0, 57, 64
2, 61614, Note_off_c, 0, 73, 64
2, 61620, Note_on_c, 0, 60, 127
2, 61620, Note_on_c, 0, 74, 127
2, 61674, Note_off_c, 0, 74, 64
2, 61674, Note_off_c, 0, 60, 64
2, 61680, Note_on_c, 0, 50, 127
2, 61680, Note_on_c, 0, 73, 127
2, 61734, Note_off_c, 0, 73, 64
2, 61734, Note_off_c, 0, 50, 64
2, 61740, Note_on_c, 0, 60, 127
2, 61740, Note_on_c, 0, 74, 127
2, 61794, Note_off_c, 0, 74, 64
2, 61794, Note_off_c, 0, 60, 64
2, 61800, Note_on_c, 0, 57, 127
2, 61800, Note_on_c, 0, 73, 127
2, 61854, Note_off_c, 0, 73, 64
2, 61854, Note_off_c, 0, 57, 64
2, 61860, Note_on_c, 0, 60, 127
2, 61860, Note_on_c, 0, 74, 127
2, 61914, Note_off_c, 0, 74, 64
2, 61914, Note_off_c, 0, 60, 64
2, 61920, Note_on_c, 0, 55, 127
2, 61920, Note_on_c, 0, 81, 127
2, 61974, Note_off_c, 0, 55, 64
2, 61980, Note_on_c, 0, 62, 127
2, 62028, Note_off_c, 0, 81, 64
2, 62034, Note_off_c, 0, 62, 64
2, 62040, Note_on_c, 0, 79, 127
2, 62040, Note_on_c, 0, 59, 127
2, 62094, Note_off_c, 0, 59, 64
2, 62100, Note_on_c, 0, 62, 127
2, 62154, Note_off_c, 0, 62, 64
2, 62160, Note_on_c, 0, 53, 127
2, 62214, Note_off_c, 0, 53, 64
2, 62220, Note_on_c, 0, 62, 127
2, 62256, Note_off_c, 0, 79, 64
2, 62274, Note_off_c, 0, 62, 64
2, 62280, Note_on_c, 0, 81, 127
2, 62280, Note_on_c, 0, 59, 127
2, 62334, Note_off_c, 0, 59, 64
2, 62334, Note_off_c, 0, 81, 64
2, 62340, Note_on_c, 0, 62, 127
2, 62340, Note_on_c, 0, 83, 127
2, 62394, Note_off_c, 0, 83, 64
2, 62394, Note_off_c, 0, 62, 64
2, 62400, Note_on_c, 0, 84, 127
2, 62400, Note_on_c, 0, 51, 127
2, 62454, Note_off_c, 0, 51, 64
2, 62454, Note_off_c, 0, 84, 64
2, 62460, Note_on_c, 0, 60, 127
2, 62460, Note_on_c, 0, 86, 127
2, 62514, Note_off_c, 0, 86, 64
2, 62514, Note_off_c, 0, 60, 64
2, 62520, Note_on_c, 0, 87, 127
2, 62520, Note_on_c, 0, 55, 127
2, 62574, Note_off_c, 0, 55, 64
2, 62574, Note_off_c, 0, 87, 64
2, 62580, Note_on_c, 0, 60, 127
2, 62580, Note_on_c, 0, 86, 127
2, 62634, Note_off_c, 0, 86, 64
2, 62634, Note_off_c, 0, 60, 64
2, 62640, Note_on_c, 0, 48, 127
2, 62640, Note_on_c, 0, 89, 127
2, 62694, Note_off_c, 0, 89, 64
2, 62694, Note_off_c, 0, 48, 64
2, 62700, Note_on_c, 0, 60, 127
2, 62700, Note_on_c, 0, 87, 127
2, 62754, Note_off_c, 0, 87, 64
2, 62754, Note_off_c, 0, 60, 64
2, 62760, Note_on_c, 0, 55, 127
2, 62760, Note_on_c, 0, 86, 127
2, 62814, Note_off_c, 0, 86, 64
2, 62814, Note_off_c, 0, 55, 64
2, 62820, Note_on_c, 0, 60, 127
2, 62820, Note_on_c, 0, 84, 127
2, 62874, Note_off_c, 0, 84, 64
2, 62874, Note_off_c, 0, 60, 64
2, 62880, Note_on_c, 0, 55, 127
2, 62880, Note_on_c, 0, 43, 127
2, 62880, Note_on_c, 0, 50, 127
2, 62880, Note_on_c, 0, 83, 127
2, 62880, Note_on_c, 0, 47, 127
2, 62916, Note_off_c, 0, 83, 64
2, 62920, Note_on_c, 0, 86, 127
2, 62956, Note_off_c, 0, 86, 64
2, 62960, Note_on_c, 0, 84, 127
2, 62988, Note_off_c, 0, 47, 64
2, 62988, Note_off_c, 0, 50, 64
2, 62988, Note_off_c, 0, 43, 64
2, 62988, Note_off_c, 0, 55, 64
2, 62996, Note_off_c, 0, 84, 64
2, 63000, Note_on_c, 0, 83, 127
2, 63036, Note_off_c, 0, 83, 64
2, 63040, Note_on_c, 0, 81, 127
2, 63076, Note_off_c, 0, 81, 64
2, 63080, Note_on_c, 0, 79, 127
2, 63116, Note_off_c, 0, 79, 64
2, 63120, Note_on_c, 0, 77, 127
2, 63156, Note_off_c, 0, 77, 64
2, 63160, Note_on_c, 0, 80, 127
2, 63196, Note_off_c, 0, 80, 64
2, 63200, Note_on_c, 0, 79, 127
2, 63236, Note_off_c, 0, 79, 64
2, 63240, Note_on_c, 0, 77, 127
2, 63276, Note_off_c, 0, 77, 64
2, 63280, Note_on_c, 0, 75, 127
2, 63316, Note_off_c, 0, 75, 64
2, 63320, Note_on_c, 0, 74, 127
2, 63356, Note_off_c, 0, 74, 64
2, 63360, Note_on_c, 0, 63, 127
2, 63360, Note_on_c, 0, 55, 127
2, 63360, Note_on_c, 0, 75, 127
2, 63360, Note_on_c, 0, 48, 127
2, 63468, Note_off_c, 0, 48, 64
2, 63468, Note_off_c, 0, 75, 64
2, 63468, Note_off_c, 0, 55, 64
2, 63468, Note_off_c, 0, 63, 64
2, 63480, Note_on_c, 0, 75, 127
2, 63480, Note_on_c, 0, 63, 127
2, 63480, Note_on_c, 0, 55, 127
2, 63480, Note_on_c, 0, 48, 127
2, 63696, Note_off_c, 0, 48, 64
2, 63696, Note_off_c, 0, 75, 64
2, 63720, Note_on_c, 0, 74, 127
2, 63720, Note_on_c, 0, 50, 127
2, 63774, Note_off_c, 0, 50, 64
2, 63774, Note_off_c, 0, 74, 64
2, 63780, Note_on_c, 0, 72, 127
2, 63780, Note_on_c, 0, 51, 127
2, 63804, Note_off_c, 0, 55, 64
2, 63804, Note_off_c, 0, 63, 64
2, 63834, Note_off_c, 0, 51, 64
2, 63834, Note_off_c, 0, 72, 64
2, 63840, Note_on_c, 0, 50, 127
2, 63876, Note_off_c, 0, 50, 64
2, 63880, Note_on_c, 0, 53, 127
2, 63916, Note_off_c, 0, 53, 64
2, 63920, Note_on_c, 0, 56, 127
2, 63956, Note_off_c, 0, 56, 64
2, 63960, Note_on_c, 0, 62, 127
2, 63996, Note_off_c, 0, 62, 64
2, 64000, Note_on_c, 0, 65, 127
2, 64036, Note_off_c, 0, 65, 64
2, 64040, Note_on_c, 0, 71, 127
2, 64076, Note_off_c, 0, 71, 64
2, 64080, Note_on_c, 0, 62, 127
2, 64116, Note_off_c, 0, 62, 64
2, 64120, Note_on_c, 0, 65, 127
2, 64156, Note_off_c, 0, 65, 64
2, 64160, Note_on_c, 0, 68, 127
2, 64196, Note_off_c, 0, 68, 64
2, 64200, Note_on_c, 0, 71, 127
2, 64236, Note_off_c, 0, 71, 64
2, 64240, Note_on_c, 0, 74, 127
2, 64276, Note_off_c, 0, 74, 64
2, 64280, Note_on_c, 0, 77, 127
2, 64316, Note_off_c, 0, 77, 64
2, 64320, Note_on_c, 0, 65, 127
2, 64320, Note_on_c, 0, 59, 127
2, 64320, Note_on_c, 0, 77, 127
2, 64320, Note_on_c, 0, 50, 127
2, 64428, Note_off_c, 0, 50, 64
2, 64428, Note_off_c, 0, 77, 64
2, 64428, Note_off_c, 0, 59, 64
2, 64428, Note_off_c, 0, 65, 64
2, 64440, Note_on_c, 0, 77, 127
2, 64440, Note_on_c, 0, 65, 127
2, 64440, Note_on_c, 0, 59, 127
2, 64440, Note_on_c, 0, 50, 127
2, 64656, Note_off_c, 0, 50, 64
2, 64656, Note_off_c, 0, 77, 64
2, 64680, Note_on_c, 0, 75, 127
2, 64680, Note_on_c, 0, 51, 127
2, 64734, Note_off_c, 0, 51, 64
2, 64734, Note_off_c, 0, 75, 64
2, 64740, Note_on_c, 0, 74, 127
2, 64740, Note_on_c, 0, 53, 127
2, 64764, Note_off_c, 0, 59, 64
2, 64764, Note_off_c, 0, 65, 64
2, 64794, Note_off_c, 0, 53, 64
2, 64794, Note_off_c, 0, 74, 64
2, 64800, Note_on_c, 0, 51, 127
2, 64836, Note_off_c, 0, 51, 64
2, 64840, Note_on_c, 0, 55, 127
2, 64876, Note_off_c, 0, 55, 64
2, 64880, Note_on_c, 0, 60, 127
2, 64916, Note_off_c, 0, 60, 64
2, 64920, Note_on_c, 0, 63, 127
2, 64956, Note_off_c, 0, 63, 64
2, 64960, Note_on_c, 0, 67, 127
2, 64996, Note_off_c, 0, 67, 64
2, 65000, Note_on_c, 0, 72, 127
2, 65036, Note_off_c, 0, 72, 64
2, 65040, Note_on_c, 0, 63, 127
2, 65076, Note_off_c, 0, 63, 64
2, 65080, Note_on_c, 0, 67, 127
2, 65116, Note_off_c, 0, 67, 64
2, 65120, Note_on_c, 0, 72, 127
2, 65156, Note_off_c, 0, 72, 64
2, 65160, Note_on_c, 0, 75, 127
2, 65196, Note_off_c, 0, 75, 64
2, 65200, Note_on_c, 0, 79, 127
2, 65236, Note_off_c, 0, 79, 64
2, 65240, Note_on_c, 0, 84, 127
2, 65276, Note_off_c, 0, 84, 64
2, 65280, Note_on_c, 0, 64, 127
2, 65280, Note_on_c, 0, 67, 127
2, 65280, Note_on_c, 0, 73, 127
2, 65280, Note_on_c, 0, 85, 127
2, 65388, Note_off_c, 0, 85, 64
2, 65388, Note_off_c, 0, 73, 64
2, 65388, Note_off_c, 0, 67, 64
2, 65388, Note_off_c, 0, 64, 64
2, 65400, Note_on_c, 0, 67, 127
2, 65400, Note_on_c, 0, 64, 127
2, 65400, Note_on_c, 0, 73, 127
2, 65400, Note_on_c, 0, 85, 127
2, 65616, Note_off_c, 0, 85, 64
2, 65616, Note_off_c, 0, 73, 64
2, 65616, Note_off_c, 0, 64, 64
2, 65616, Note_off_c, 0, 67, 64
2, 65640, Note_on_c, 0, 68, 127
2, 65640, Note_on_c, 0, 65, 127
2, 65640, Note_on_c, 0, 84, 127
2, 65694, Note_off_c, 0, 84, 64
2, 65694, Note_off_c, 0, 65, 64
2, 65694, Note_off_c, 0, 68, 64
2, 65700, Note_on_c, 0, 67, 127
2, 65700, Note_on_c, 0, 70, 127
2, 65700, Note_on_c, 0, 82, 127
2, 65754, Note_off_c, 0, 82, 64
2, 65754, Note_off_c, 0, 70, 64
2, 65754, Note_off_c, 0, 67, 64
2, 65760, Note_on_c, 0, 68, 127
2, 65760, Note_on_c, 0, 65, 127
2, 65880, Note_on_c, 0, 80, 127
2, 65934, Note_off_c, 0, 80, 64
2, 65940, Note_on_c, 0, 84, 127
2, 65976, Note_off_c, 0, 65, 64
2, 65976, Note_off_c, 0, 68, 64
2, 65994, Note_off_c, 0, 84, 64
2, 66000, Note_on_c, 0, 65, 127
2, 66120, Note_on_c, 0, 74, 127
2, 66174, Note_off_c, 0, 74, 64
2, 66180, Note_on_c, 0, 77, 127
2, 66216, Note_off_c, 0, 65, 64
2, 66234, Note_off_c, 0, 77, 64
2, 66240, Note_on_c, 0, 67, 127
2, 66360, Note_on_c, 0, 75, 127
2, 66414, Note_off_c, 0, 75, 64
2, 66420, Note_on_c, 0, 79, 127
2, 66456, Note_off_c, 0, 67, 64
2, 66474, Note_off_c, 0, 79, 64
2, 66480, Note_on_c, 0, 65, 127
2, 66480, Note_on_c, 0, 55, 127
2, 66600, Note_on_c, 0, 71, 127
2, 66654, Note_off_c, 0, 71, 64
2, 66660, Note_on_c, 0, 74, 127
2, 66696, Note_off_c, 0, 55, 64
2, 66696, Note_off_c, 0, 65, 64
2, 66714, Note_off_c, 0, 74, 64
2, 66720, Note_on_c, 0, 63, 127
2, 66720, Note_on_c, 0, 56, 127
2, 66780, Note_on_c, 0, 72, 127
2, 66834, Note_off_c, 0, 72, 64
2, 66840, Note_on_c, 0, 71, 127
2, 66894, Note_off_c, 0, 71, 64
2, 66900, Note_on_c, 0, 72, 127
2, 66936, Note_off_c, 0, 56, 64
2, 66936, Note_off_c, 0, 63, 64
2, 66954, Note_off_c, 0, 72, 64
2, 66960, Note_on_c, 0, 71, 127
2, 67014, Note_off_c, 0, 71, 64
2, 67020, Note_on_c, 0, 72, 127
2, 67074, Note_off_c, 0, 72, 64
2, 67080, Note_on_c, 0, 71, 127
2, 67134, Note_off_c, 0, 71, 64
2, 67140, Note_on_c, 0, 72, 127
2, 67194, Note_off_c, 0, 72, 64
2, 67200, Note_on_c, 0, 52, 127
2, 67200, Note_on_c, 0, 55, 127
2, 67200, Note_on_c, 0, 73, 127
2, 67200, Note_on_c, 0, 61, 127
2, 67308, Note_off_c, 0, 61, 64
2, 67308, Note_off_c, 0, 73, 64
2, 67308, Note_off_c, 0, 55, 64
2, 67308, Note_off_c, 0, 52, 64
2, 67320, Note_on_c, 0, 55, 127
2, 67320, Note_on_c, 0, 52, 127
2, 67320, Note_on_c, 0, 73, 127
2, 67320, Note_on_c, 0, 61, 127
2, 67536, Note_off_c, 0, 61, 64
2, 67536, Note_off_c, 0, 73, 64
2, 67536, Note_off_c, 0, 52, 64
2, 67536, Note_off_c, 0, 55, 64
2, 67560, Note_on_c, 0, 56, 127
2, 67560, Note_on_c, 0, 53, 127
2, 67560, Note_on_c, 0, 72, 127
2, 67614, Note_off_c, 0, 72, 64
2, 67614, Note_off_c, 0, 53, 64
2, 67614, Note_off_c, 0, 56, 64
2, 67620, Note_on_c, 0, 58, 127
2, 67620, Note_on_c, 0, 55, 127
2, 67620, Note_on_c, 0, 70, 127
2, 67674, Note_off_c, 0, 70, 64
2, 67674, Note_off_c, 0, 55, 64
2, 67674, Note_off_c, 0, 58, 64
2, 67680, Note_on_c, 0, 56, 127
2, 67680, Note_on_c, 0, 53, 127
2, 67740, Note_on_c, 0, 69, 127
2, 67794, Note_off_c, 0, 69, 64
2, 67800, Note_on_c, 0, 70, 127
2, 67854, Note_off_c, 0, 70, 64
2, 67860, Note_on_c, 0, 71, 127
2, 67896, Note_off_c, 0, 53, 64
2, 67896, Note_off_c, 0, 56, 64
2, 67914, Note_off_c, 0, 71, 64
2, 67920, Note_on_c, 0, 53, 127
2, 67920, Note_on_c, 0, 72, 127
2, 67974, Note_off_c, 0, 72, 64
2, 67980, Note_on_c, 0, 62, 127
2, 68034, Note_off_c, 0, 62, 64
2, 68040, Note_on_c, 0, 65, 127
2, 68094, Note_off_c, 0, 65, 64
2, 68100, Note_on_c, 0, 68, 127
2, 68136, Note_off_c, 0, 53, 64
2, 68154, Note_off_c, 0, 68, 64
2, 68160, Note_on_c, 0, 55, 127
2, 68220, Note_on_c, 0, 63, 127
2, 68274, Note_off_c, 0, 63, 64
2, 68280, Note_on_c, 0, 67, 127
2, 68334, Note_off_c, 0, 67, 64
2, 68340, Note_on_c, 0, 60, 127
2, 68376, Note_off_c, 0, 55, 64
2, 68394, Note_off_c, 0, 60, 64
2, 68400, Note_on_c, 0, 43, 127
2, 68460, Note_on_c, 0, 62, 127
2, 68514, Note_off_c, 0, 62, 64
2, 68520, Note_on_c, 0, 65, 127
2, 68574, Note_off_c, 0, 65, 64
2, 68580, Note_on_c, 0, 59, 127
2, 68616, Note_off_c, 0, 43, 64
2, 68634, Note_off_c, 0, 59, 64
2, 68640, Note_on_c, 0, 48, 127
2, 68720, Note_on_c, 0, 60, 127
2, 68792, Note_off_c, 0, 60, 64
2, 68800, Note_on_c, 0, 61, 127
2, 68856, Note_off_c, 0, 48, 64
2, 68872, Note_off_c, 0, 61, 64
2, 68880, Note_on_c, 0, 62, 127
2, 68952, Note_off_c, 0, 62, 64
2, 68960, Note_on_c, 0, 63, 127
2, 69032, Note_off_c, 0, 63, 64
2, 69040, Note_on_c, 0, 64, 127
2, 69112, Note_off_c, 0, 64, 64
2, 69120, Note_on_c, 0, 65, 127
2, 69192, Note_off_c, 0, 65, 64
2, 69200, Note_on_c, 0, 66, 127
2, 69272, Note_off_c, 0, 66, 64
2, 69280, Note_on_c, 0, 67, 127
2, 69352, Note_off_c, 0, 67, 64
2, 69360, Note_on_c, 0, 68, 127
2, 69432, Note_off_c, 0, 68, 64
2, 69440, Note_on_c, 0, 69, 127
2, 69512, Note_off_c, 0, 69, 64
2, 69520, Note_on_c, 0, 70, 127
2, 69592, Note_off_c, 0, 70, 64
2, 69600, Note_on_c, 0, 71, 127
2, 69672, Note_off_c, 0, 71, 64
2, 69680, Note_on_c, 0, 72, 127
2, 69752, Note_off_c, 0, 72, 64
2, 69760, Note_on_c, 0, 72, 127
2, 69832, Note_off_c, 0, 72, 64
2, 69840, Note_on_c, 0, 72, 127
2, 69912, Note_off_c, 0, 72, 64
2, 69920, Note_on_c, 0, 72, 127
2, 69992, Note_off_c, 0, 72, 64
2, 70000, Note_on_c, 0, 72, 127
2, 70072, Note_off_c, 0, 72, 64
2, 70080, Note_on_c, 0, 72, 127
2, 70152, Note_off_c, 0, 72, 64
2, 70160, Note_on_c, 0, 72, 127
2, 70232, Note_off_c, 0, 72, 64
2, 70240, Note_on_c, 0, 72, 127
2, 70312, Note_off_c, 0, 72, 64
2, 70320, Note_on_c, 0, 71, 127
2, 70392, Note_off_c, 0, 71, 64
2, 70400, Note_on_c, 0, 72, 127
2, 70472, Note_off_c, 0, 72, 64
2, 70480, Note_on_c, 0, 72, 127
2, 70552, Note_off_c, 0, 72, 64
2, 70560, Note_on_c, 0, 72, 127
2, 70632, Note_off_c, 0, 72, 64
2, 70640, Note_on_c, 0, 73, 127
2, 70712, Note_off_c, 0, 73, 64
2, 70720, Note_on_c, 0, 73, 127
2, 70792, Note_off_c, 0, 73, 64
2, 70800, Note_on_c, 0, 73, 127
2, 70872, Note_off_c, 0, 73, 64
2, 70880, Note_on_c, 0, 73, 127
2, 70952, Note_off_c, 0, 73, 64
2, 70960, Note_on_c, 0, 73, 127
2, 71032, Note_off_c, 0, 73, 64
2, 71040, Note_on_c, 0, 73, 127
2, 71112, Note_off_c, 0, 73, 64
2, 71120, Note_on_c, 0, 74, 127
2, 71192, Note_off_c, 0, 74, 64
2, 71200, Note_on_c, 0, 74, 127
2, 71272, Note_off_c, 0, 74, 64
2, 71280, Note_on_c, 0, 74, 127
2, 71352, Note_off_c, 0, 74, 64
2, 71360, Note_on_c, 0, 74, 127
2, 71432, Note_off_c, 0, 74, 64
2, 71440, Note_on_c, 0, 74, 127
2, 71512, Note_off_c, 0, 74, 64
2, 71520, Note_on_c, 0, 74, 127
2, 71574, Note_off_c, 0, 74, 64
2, 71580, Note_on_c, 0, 75, 127
2, 71634, Note_off_c, 0, 75, 64
2, 71640, Note_on_c, 0, 77, 127
2, 71694, Note_off_c, 0, 77, 64
2, 71700, Note_on_c, 0, 75, 127
2, 71754, Note_off_c, 0, 75, 64
2, 71760, Note_on_c, 0, 73, 127
2, 71803, Note_off_c, 0, 73, 64
2, 71808, Note_on_c, 0, 72, 127
2, 71851, Note_off_c, 0, 72, 64
2, 71856, Note_on_c, 0, 75, 127
2, 71899, Note_off_c, 0, 75, 64
2, 71904, Note_on_c, 0, 73, 127
2, 71947, Note_off_c, 0, 73, 64
2, 71952, Note_on_c, 0, 70, 127
2, 71995, Note_off_c, 0, 70, 64
2, 72000, Note_on_c, 0, 60, 127
2, 72000, Note_on_c, 0, 56, 127
2, 72000, Note_on_c, 0, 68, 127
2, 72108, Note_off_c, 0, 56, 64
2, 72108, Note_off_c, 0, 60, 64
2, 72120, Note_on_c, 0, 63, 127
2, 72216, Note_off_c, 0, 68, 64
2, 72228, Note_off_c, 0, 63, 64
2, 72240, Note_on_c, 0, 56, 127
2, 72240, Note_on_c, 0, 60, 127
2, 72240, Note_on_c, 0, 68, 127
2, 72348, Note_off_c, 0, 60, 64
2, 72348, Note_off_c, 0, 56, 64
2, 72360, Note_on_c, 0, 63, 127
2, 72456, Note_off_c, 0, 68, 64
2, 72468, Note_off_c, 0, 63, 64
2, 72480, Note_on_c, 0, 58, 127
2, 72480, Note_on_c, 0, 61, 127
2, 72480, Note_on_c, 0, 68, 127
2, 72588, Note_off_c, 0, 68, 64
2, 72588, Note_off_c, 0, 61, 64
2, 72588, Note_off_c, 0, 58, 64
2, 72600, Note_on_c, 0, 63, 127
2, 72600, Note_on_c, 0, 67, 127
2, 72708, Note_off_c, 0, 67, 64
2, 72708, Note_off_c, 0, 63, 64
2, 72720, Note_on_c, 0, 65, 127
2, 72720, Note_on_c, 0, 58, 127
2, 72720, Note_on_c, 0, 61, 127
2, 72828, Note_off_c, 0, 61, 64
2, 72828, Note_off_c, 0, 58, 64
2, 72828, Note_off_c, 0, 65, 64
2, 72840, Note_on_c, 0, 63, 127
2, 72840, Note_on_c, 0, 67, 127
2, 72948, Note_off_c, 0, 67, 64
2, 72948, Note_off_c, 0, 63, 64
2, 72960, Note_on_c, 0, 60, 127
2, 72960, Note_on_c, 0, 68, 127
2, 72960, Note_on_c, 0, 56, 127
2, 73068, Note_off_c, 0, 56, 64
2, 73068, Note_off_c, 0, 68, 64
2, 73068, Note_off_c, 0, 60, 64
2, 73080, Note_on_c, 0, 63, 127
2, 73080, Note_on_c, 0, 70, 127
2, 73107, Note_off_c, 0, 70, 64
2, 73110, Note_on_c, 0, 68, 127
2, 73137, Note_off_c, 0, 68, 64
2, 73140, Note_on_c, 0, 67, 127
2, 73167, Note_off_c, 0, 67, 64
2, 73170, Note_on_c, 0, 68, 127
2, 73188, Note_off_c, 0, 63, 64
2, 73197, Note_off_c, 0, 68, 64
2, 73200, Note_on_c, 0, 56, 127
2, 73200, Note_on_c, 0, 60, 127
2, 73200, Note_on_c, 0, 68, 127
2, 73308, Note_off_c, 0, 60, 64
2, 73308, Note_off_c, 0, 56, 64
2, 73320, Note_on_c, 0, 63, 127
2, 73362, Note_off_c, 0, 68, 64
2, 73380, Note_on_c, 0, 72, 127
2, 73428, Note_off_c, 0, 63, 64
2, 73434, Note_off_c, 0, 72, 64
2, 73440, Note_on_c, 0, 75, 127
2, 73440, Note_on_c, 0, 58, 127
2, 73440, Note_on_c, 0, 55, 127
2, 73548, Note_off_c, 0, 55, 64
2, 73548, Note_off_c, 0, 58, 64
2, 73560, Note_on_c, 0, 63, 127
2, 73668, Note_off_c, 0, 63, 64
2, 73680, Note_on_c, 0, 58, 127
2, 73680, Note_on_c, 0, 55, 127
2, 73788, Note_off_c, 0, 55, 64
2, 73788, Note_off_c, 0, 58, 64
2, 73800, Note_on_c, 0, 63, 127
2, 73872, Note_off_c, 0, 75, 64
2, 73908, Note_off_c, 0, 63, 64
2, 73920, Note_on_c, 0, 56, 127
2, 73920, Note_on_c, 0, 53, 127
2, 73920, Note_on_c, 0, 73, 127
2, 74028, Note_off_c, 0, 73, 64
2, 74028, Note_off_c, 0, 53, 64
2, 74028, Note_off_c, 0, 56, 64
2, 74040, Note_on_c, 0, 61, 127
2, 74040, Note_on_c, 0, 89, 127
2, 74148, Note_off_c, 0, 61, 64
2, 74160, Note_on_c, 0, 58, 127
2, 74160, Note_on_c, 0, 55, 127
2, 74256, Note_off_c, 0, 89, 64
2, 74268, Note_off_c, 0, 55, 64
2, 74268, Note_off_c, 0, 58, 64
2, 74280, Note_on_c, 0, 63, 127
2, 74280, Note_on_c, 0, 87, 127
2, 74334, Note_off_c, 0, 87, 64
2, 74340, Note_on_c, 0, 85, 127
2, 74388, Note_off_c, 0, 63, 64
2, 74394, Note_off_c, 0, 85, 64
2, 74400, Note_on_c, 0, 84, 127
2, 74400, Note_on_c, 0, 56, 127
2, 74508, Note_off_c, 0, 56, 64
2, 74508, Note_off_c, 0, 84, 64
2, 74520, Note_on_c, 0, 60, 127
2, 74520, Note_on_c, 0, 87, 127
2, 74628, Note_off_c, 0, 60, 64
2, 74640, Note_on_c, 0, 63, 127
2, 74736, Note_off_c, 0, 87, 64
2, 74748, Note_off_c, 0, 63, 64
2, 74760, Note_on_c, 0, 68, 127
2, 74760, Note_on_c, 0, 85, 127
2, 74814, Note_off_c, 0, 85, 64
2, 74820, Note_on_c, 0, 84, 127
2, 74868, Note_off_c, 0, 68, 64
2, 74874, Note_off_c, 0, 84, 64
2, 74880, Note_on_c, 0, 61, 127
2, 74880, Note_on_c, 0, 61, 127
2, 74880, Note_on_c, 0, 82, 127
2, 74934, Note_off_c, 0, 82, 64
2, 74940, Note_on_c, 0, 84, 127
2, 74988, Note_off_c, 0, 61, 64
2, 74994, Note_off_c, 0, 84, 64
2, 75000, Note_on_c, 0, 65, 127
2, 75000, Note_on_c, 0, 85, 127
2, 75054, Note_off_c, 0, 85, 64
2, 75060, Note_on_c, 0, 84, 127
2, 75108, Note_off_c, 0, 65, 64
2, 75114, Note_off_c, 0, 84, 64
2, 75120, Note_on_c, 0, 87, 127
2, 75120, Note_on_c, 0, 70, 127
2, 75174, Note_off_c, 0, 87, 64
2, 75180, Note_on_c, 0, 85, 127
2, 75228, Note_off_c, 0, 70, 64
2, 75234, Note_off_c, 0, 85, 64
2, 75240, Note_on_c, 0, 73, 127
2, 75240, Note_on_c, 0, 84, 127
2, 75294, Note_off_c, 0, 84, 64
2, 75300, Note_on_c, 0, 82, 127
2, 75312, Note_off_c, 0, 61, 64
2, 75348, Note_off_c, 0, 73, 64
2, 75354, Note_off_c, 0, 82, 64
2, 75360, Note_on_c, 0, 80, 127
2, 75360, Note_on_c, 0, 63, 127
2, 75480, Note_on_c, 0, 72, 127
2, 75576, Note_off_c, 0, 80, 64
2, 75588, Note_off_c, 0, 72, 64
2, 75600, Note_on_c, 0, 70, 127
2, 75600, Note_on_c, 0, 79, 127
2, 75684, Note_off_c, 0, 63, 64
2, 75708, Note_off_c, 0, 79, 64
2, 75708, Note_off_c, 0, 70, 64
2, 75720, Note_on_c, 0, 63, 127
2, 75828, Note_off_c, 0, 63, 64
2, 75840, Note_on_c, 0, 60, 127
2, 75840, Note_on_c, 0, 63, 127
2, 75840, Note_on_c, 0, 56, 127
2, 75912, Note_off_c, 0, 63, 64
2, 75920, Note_on_c, 0, 68, 127
2, 75948, Note_off_c, 0, 56, 64
2, 75948, Note_off_c, 0, 60, 64
2, 75960, Note_on_c, 0, 63, 127
2, 75992, Note_off_c, 0, 68, 64
2, 76000, Note_on_c, 0, 68, 127
2, 76068, Note_off_c, 0, 63, 64
2, 76072, Note_off_c, 0, 68, 64
2, 76080, Note_on_c, 0, 56, 127
2, 76080, Note_on_c, 0, 60, 127
2, 76080, Note_on_c, 0, 68, 127
2, 76152, Note_off_c, 0, 68, 64
2, 76160, Note_on_c, 0, 68, 127
2, 76188, Note_off_c, 0, 60, 64
2, 76188, Note_off_c, 0, 56, 64
2, 76200, Note_on_c, 0, 63, 127
2, 76232, Note_off_c, 0, 68, 64
2, 76240, Note_on_c, 0, 68, 127
2, 76308, Note_off_c, 0, 63, 64
2, 76312, Note_off_c, 0, 68, 64
2, 76320, Note_on_c, 0, 68, 127
2, 76320, Note_on_c, 0, 61, 127
2, 76320, Note_on_c, 0, 58, 127
2, 76392, Note_off_c, 0, 68, 64
2, 76400, Note_on_c, 0, 67, 127
2, 76428, Note_off_c, 0, 58, 64
2, 76428, Note_off_c, 0, 61, 64
2, 76440, Note_on_c, 0, 63, 127
2, 76472, Note_off_c, 0, 67, 64
2, 76480, Note_on_c, 0, 65, 127
2, 76548, Note_off_c, 0, 63, 64
2, 76552, Note_off_c, 0, 65, 64
2, 76560, Note_on_c, 0, 61, 127
2, 76560, Note_on_c, 0, 63, 127
2, 76560, Note_on_c, 0, 58, 127
2, 76632, Note_off_c, 0, 63, 64
2, 76640, Note_on_c, 0, 65, 127
2, 76668, Note_off_c, 0, 58, 64
2, 76668, Note_off_c, 0, 61, 64
2, 76680, Note_on_c, 0, 63, 127
2, 76712, Note_off_c, 0, 65, 64
2, 76720, Note_on_c, 0, 67, 127
2, 76788, Note_off_c, 0, 63, 64
2, 76792, Note_off_c, 0, 67, 64
2, 76800, Note_on_c, 0, 60, 127
2, 76800, Note_on_c, 0, 68, 127
2, 76800, Note_on_c, 0, 56, 127
2, 76872, Note_off_c, 0, 68, 64
2, 76880, Note_on_c, 0, 70, 127
2, 76908, Note_off_c, 0, 56, 64
2, 76908, Note_off_c, 0, 60, 64
2, 76920, Note_on_c, 0, 63, 127
2, 76952, Note_off_c, 0, 70, 64
2, 76960, Note_on_c, 0, 71, 127
2, 77028, Note_off_c, 0, 63, 64
2, 77032, Note_off_c, 0, 71, 64
2, 77040, Note_on_c, 0, 56, 127
2, 77040, Note_on_c, 0, 60, 127
2, 77040, Note_on_c, 0, 72, 127
2, 77112, Note_off_c, 0, 72, 64
2, 77120, Note_on_c, 0, 73, 127
2, 77148, Note_off_c, 0, 60, 64
2, 77148, Note_off_c, 0, 56, 64
2, 77160, Note_on_c, 0, 63, 127
2, 77192, Note_off_c, 0, 73, 64
2, 77200, Note_on_c, 0, 74, 127
2, 77268, Note_off_c, 0, 63, 64
2, 77272, Note_off_c, 0, 74, 64
2, 77280, Note_on_c, 0, 77, 127
2, 77280, Note_on_c, 0, 58, 127
2, 77280, Note_on_c, 0, 55, 127
2, 77388, Note_off_c, 0, 55, 64
2, 77388, Note_off_c, 0, 58, 64
2, 77388, Note_off_c, 0, 77, 64
2, 77400, Note_on_c, 0, 63, 127
2, 77400, Note_on_c, 0, 75, 127
2, 77508, Note_off_c, 0, 63, 64
2, 77520, Note_on_c, 0, 58, 127
2, 77520, Note_on_c, 0, 55, 127
2, 77616, Note_off_c, 0, 75, 64
2, 77628, Note_off_c, 0, 55, 64
2, 77628, Note_off_c, 0, 58, 64
2, 77640, Note_on_c, 0, 63, 127
2, 77640, Note_on_c, 0, 75, 127
2, 77748, Note_off_c, 0, 75, 64
2, 77748, Note_off_c, 0, 63, 64
2, 77760, Note_on_c, 0, 53, 127
2, 77760, Note_on_c, 0, 56, 127
2, 77760, Note_on_c, 0, 73, 127
2, 77868, Note_off_c, 0, 73, 64
2, 77868, Note_off_c, 0, 56, 64
2, 77868, Note_off_c, 0, 53, 64
2, 77880, Note_on_c, 0, 61, 127
2, 77880, Note_on_c, 0, 89, 127
2, 77988, Note_off_c, 0, 61, 64
2, 78000, Note_on_c, 0, 58, 127
2, 78000, Note_on_c, 0, 55, 127
2, 78096, Note_off_c, 0, 89, 64
2, 78108, Note_off_c, 0, 55, 64
2, 78108, Note_off_c, 0, 58, 64
2, 78120, Note_on_c, 0, 63, 127
2, 78120, Note_on_c, 0, 87, 127
2, 78174, Note_off_c, 0, 87, 64
2, 78180, Note_on_c, 0, 85, 127
2, 78228, Note_off_c, 0, 63, 64
2, 78234, Note_off_c, 0, 85, 64
2, 78240, Note_on_c, 0, 84, 127
2, 78240, Note_on_c, 0, 56, 127
2, 78348, Note_off_c, 0, 56, 64
2, 78360, Note_on_c, 0, 63, 127
2, 78468, Note_off_c, 0, 63, 64
2, 78480, Note_on_c, 0, 55, 127
2, 78564, Note_off_c, 0, 84, 64
2, 78588, Note_off_c, 0, 55, 64
2, 78600, Note_on_c, 0, 63, 127
2, 78600, Note_on_c, 0, 86, 127
2, 78627, Note_off_c, 0, 86, 64
2, 78630, Note_on_c, 0, 84, 127
2, 78657, Note_off_c, 0, 84, 64
2, 78660, Note_on_c, 0, 83, 127
2, 78687, Note_off_c, 0, 83, 64
2, 78690, Note_on_c, 0, 84, 127
2, 78708, Note_off_c, 0, 63, 64
2, 78717, Note_off_c, 0, 84, 64
2, 78720, Note_on_c, 0, 54, 127
2, 78720, Note_on_c, 0, 89, 127
2, 78828, Note_off_c, 0, 89, 64
2, 78828, Note_off_c, 0, 54, 64
2, 78840, Note_on_c, 0, 57, 127
2, 78840, Note_on_c, 0, 87, 127
2, 78948, Note_off_c, 0, 87, 64
2, 78948, Note_off_c, 0, 57, 64
2, 78960, Note_on_c, 0, 42, 127
2, 78960, Note_on_c, 0, 86, 127
2, 79068, Note_off_c, 0, 86, 64
2, 79068, Note_off_c, 0, 42, 64
2, 79080, Note_on_c, 0, 54, 127
2, 79080, Note_on_c, 0, 84, 127
2, 79188, Note_off_c, 0, 84, 64
2, 79188, Note_off_c, 0, 54, 64
2, 79200, Note_on_c, 0, 43, 127
2, 79200, Note_on_c, 0, 83, 127
2, 79254, Note_off_c, 0, 43, 64
2, 79260, Note_on_c, 0, 55, 127
2, 79314, Note_off_c, 0, 55, 64
2, 79320, Note_on_c, 0, 47, 127
2, 79374, Note_off_c, 0, 47, 64
2, 79380, Note_on_c, 0, 55, 127
2, 79416, Note_off_c, 0, 83, 64
2, 79434, Note_off_c, 0, 55, 64
2, 79440, Note_on_c, 0, 50, 127
2, 79494, Note_off_c, 0, 50, 64
2, 79500, Note_on_c, 0, 55, 127
2, 79554, Note_off_c, 0, 55, 64
2, 79560, Note_on_c, 0, 47, 127
2, 79614, Note_off_c, 0, 47, 64
2, 79620, Note_on_c, 0, 55, 127
2, 79674, Note_off_c, 0, 55, 64
2, 79680, Note_on_c, 0, 43, 127
2, 79734, Note_off_c, 0, 43, 64
2, 79740, Note_on_c, 0, 55, 127
2, 79794, Note_off_c, 0, 55, 64
2, 79800, Note_on_c, 0, 47, 127
2, 79800, Note_on_c, 0, 79, 127
2, 79854, Note_off_c, 0, 47, 64
2, 79860, Note_on_c, 0, 55, 127
2, 79908, Note_off_c, 0, 79, 64
2, 79914, Note_off_c, 0, 55, 64
2, 79920, Note_on_c, 0, 50, 127
2, 79920, Note_on_c, 0, 79, 127
2, 79974, Note_off_c, 0, 50, 64
2, 79980, Note_on_c, 0, 55, 127
2, 80028, Note_off_c, 0, 79, 64
2, 80034, Note_off_c, 0, 55, 64
2, 80040, Note_on_c, 0, 47, 127
2, 80040, Note_on_c, 0, 79, 127
2, 80094, Note_off_c, 0, 47, 64
2, 80100, Note_on_c, 0, 55, 127
2, 80148, Note_off_c, 0, 79, 64
2, 80154, Note_off_c, 0, 55, 64
2, 80160, Note_on_c, 0, 79, 127
2, 80160, Note_on_c, 0, 43, 127
2, 80214, Note_off_c, 0, 43, 64
2, 80220, Note_on_c, 0, 55, 127
2, 80274, Note_off_c, 0, 55, 64
2, 80280, Note_on_c, 0, 48, 127
2, 80322, Note_off_c, 0, 79, 64
2, 80334, Note_off_c, 0, 48, 64
2, 80340, Note_on_c, 0, 55, 127
2, 80340, Note_on_c, 0, 75, 127
2, 80394, Note_off_c, 0, 75, 64
2, 80394, Note_off_c, 0, 55, 64
2, 80400, Note_on_c, 0, 72, 127
2, 80400, Note_on_c, 0, 51, 127
2, 80454, Note_off_c, 0, 51, 64
2, 80460, Note_on_c, 0, 55, 127
2, 80514, Note_off_c, 0, 55, 64
2, 80520, Note_on_c, 0, 48, 127
2, 80574, Note_off_c, 0, 48, 64
2, 80580, Note_on_c, 0, 55, 127
2, 80616, Note_off_c, 0, 72, 64
2, 80634, Note_off_c, 0, 55, 64
2, 80640, Note_on_c, 0, 43, 127
2, 80694, Note_off_c, 0, 43, 64
2, 80700, Note_on_c, 0, 55, 127
2, 80754, Note_off_c, 0, 55, 64
2, 80760, Note_on_c, 0, 87, 127
2, 80760, Note_on_c, 0, 48, 127
2, 80814, Note_off_c, 0, 48, 64
2, 80820, Note_on_c, 0, 55, 127
2, 80868, Note_off_c, 0, 87, 64
2, 80874, Note_off_c, 0, 55, 64
2, 80880, Note_on_c, 0, 51, 127
2, 80880, Note_on_c, 0, 86, 127
2, 80934, Note_off_c, 0, 51, 64
2, 80940, Note_on_c, 0, 55, 127
2, 80988, Note_off_c, 0, 86, 64
2, 80994, Note_off_c, 0, 55, 64
2, 81000, Note_on_c, 0, 48, 127
2, 81000, Note_on_c, 0, 84, 127
2, 81054, Note_off_c, 0, 48, 64
2, 81060, Note_on_c, 0, 55, 127
2, 81108, Note_off_c, 0, 84, 64
2, 81114, Note_off_c, 0, 55, 64
2, 81120, Note_on_c, 0, 83, 127
2, 81120, Note_on_c, 0, 43, 127
2, 81174, Note_off_c, 0, 43, 64
2, 81174, Note_off_c, 0, 83, 64
2, 81180, Note_on_c, 0, 55, 127
2, 81180, Note_on_c, 0, 84, 127
2, 81207, Note_off_c, 0, 84, 64
2, 81210, Note_on_c, 0, 83, 127
2, 81234, Note_off_c, 0, 55, 64
2, 81237, Note_off_c, 0, 83, 64
2, 81240, Note_on_c, 0, 81, 127
2, 81240, Note_on_c, 0, 47, 127
2, 81267, Note_off_c, 0, 81, 64
2, 81270, Note_on_c, 0, 83, 127
2, 81294, Note_off_c, 0, 47, 64
2, 81297, Note_off_c, 0, 83, 64
2, 81300, Note_on_c, 0, 55, 127
2, 81300, Note_on_c, 0, 84, 127
2, 81354, Note_off_c, 0, 84, 64
2, 81354, Note_off_c, 0, 55, 64
2, 81360, Note_on_c, 0, 50, 127
2, 81360, Note_on_c, 0, 86, 127
2, 81414, Note_off_c, 0, 50, 64
2, 81420, Note_on_c, 0, 55, 127
2, 81474, Note_off_c, 0, 55, 64
2, 81480, Note_on_c, 0, 47, 127
2, 81534, Note_off_c, 0, 47, 64
2, 81540, Note_on_c, 0, 55, 127
2, 81576, Note_off_c, 0, 86, 64
2, 81594, Note_off_c, 0, 55, 64
2, 81600, Note_on_c, 0, 43, 127
2, 81654, Note_off_c, 0, 43, 64
2, 81660, Note_on_c, 0, 55, 127
2, 81660, Note_on_c, 0, 79, 127
2, 81714, Note_off_c, 0, 79, 64
2, 81714, Note_off_c, 0, 55, 64
2, 81720, Note_on_c, 0, 78, 127
2, 81720, Note_on_c, 0, 47, 127
2, 81774, Note_off_c, 0, 47, 64
2, 81774, Note_off_c, 0, 78, 64
2, 81780, Note_on_c, 0, 55, 127
2, 81780, Note_on_c, 0, 79, 127
2, 81834, Note_off_c, 0, 79, 64
2, 81834, Note_off_c, 0, 55, 64
2, 81840, Note_on_c, 0, 50, 127
2, 81840, Note_on_c, 0, 80, 127
2, 81894, Note_off_c, 0, 80, 64
2, 81894, Note_off_c, 0, 50, 64
2, 81900, Note_on_c, 0, 55, 127
2, 81900, Note_on_c, 0, 79, 127
2, 81954, Note_off_c, 0, 79, 64
2, 81954, Note_off_c, 0, 55, 64
2, 81960, Note_on_c, 0, 47, 127
2, 81960, Note_on_c, 0, 77, 127
2, 82014, Note_off_c, 0, 77, 64
2, 82014, Note_off_c, 0, 47, 64
2, 82020, Note_on_c, 0, 55, 127
2, 82020, Note_on_c, 0, 74, 127
2, 82074, Note_off_c, 0, 74, 64
2, 82074, Note_off_c, 0, 55, 64
2, 82080, Note_on_c, 0, 75, 127
2, 82080, Note_on_c, 0, 43, 127
2, 82134, Note_off_c, 0, 43, 64
2, 82134, Note_off_c, 0, 75, 64
2, 82140, Note_on_c, 0, 55, 127
2, 82140, Note_on_c, 0, 77, 127
2, 82194, Note_off_c, 0, 77, 64
2, 82194, Note_off_c, 0, 55, 64
2, 82200, Note_on_c, 0, 78, 127
2, 82200, Note_on_c, 0, 48, 127
2, 82254, Note_off_c, 0, 48, 64
2, 82254, Note_off_c, 0, 78, 64
2, 82260, Note_on_c, 0, 55, 127
2, 82260, Note_on_c, 0, 79, 127
2, 82314, Note_off_c, 0, 79, 64
2, 82314, Note_off_c, 0, 55, 64
2, 82320, Note_on_c, 0, 51, 127
2, 82320, Note_on_c, 0, 72, 127
2, 82374, Note_off_c, 0, 51, 64
2, 82380, Note_on_c, 0, 55, 127
2, 82434, Note_off_c, 0, 55, 64
2, 82440, Note_on_c, 0, 48, 127
2, 82494, Note_off_c, 0, 48, 64
2, 82500, Note_on_c, 0, 55, 127
2, 82536, Note_off_c, 0, 72, 64
2, 82554, Note_off_c, 0, 55, 64
2, 82560, Note_on_c, 0, 43, 127
2, 82614, Note_off_c, 0, 43, 64
2, 82620, Note_on_c, 0, 55, 127
2, 82674, Note_off_c, 0, 55, 64
2, 82680, Note_on_c, 0, 75, 127
2, 82680, Note_on_c, 0, 48, 127
2, 82734, Note_off_c, 0, 48, 64
2, 82734, Note_off_c, 0, 75, 64
2, 82740, Note_on_c, 0, 55, 127
2, 82740, Note_on_c, 0, 74, 127
2, 82794, Note_off_c, 0, 74, 64
2, 82794, Note_off_c, 0, 55, 64
2, 82800, Note_on_c, 0, 51, 127
2, 82800, Note_on_c, 0, 77, 127
2, 82854, Note_off_c, 0, 77, 64
2, 82854, Note_off_c, 0, 51, 64
2, 82860, Note_on_c, 0, 55, 127
2, 82860, Note_on_c, 0, 75, 127
2, 82914, Note_off_c, 0, 75, 64
2, 82914, Note_off_c, 0, 55, 64
2, 82920, Note_on_c, 0, 48, 127
2, 82920, Note_on_c, 0, 74, 127
2, 82974, Note_off_c, 0, 74, 64
2, 82974, Note_off_c, 0, 48, 64
2, 82980, Note_on_c, 0, 55, 127
2, 82980, Note_on_c, 0, 72, 127
2, 83034, Note_off_c, 0, 72, 64
2, 83034, Note_off_c, 0, 55, 64
2, 83040, Note_on_c, 0, 71, 127
2, 83040, Note_on_c, 0, 43, 127
2, 83094, Note_off_c, 0, 43, 64
2, 83094, Note_off_c, 0, 71, 64
2, 83100, Note_on_c, 0, 55, 127
2, 83100, Note_on_c, 0, 72, 127
2, 83127, Note_off_c, 0, 72, 64
2, 83130, Note_on_c, 0, 71, 127
2, 83154, Note_off_c, 0, 55, 64
2, 83157, Note_off_c, 0, 71, 64
2, 83160, Note_on_c, 0, 69, 127
2, 83160, Note_on_c, 0, 50, 127
2, 83187, Note_off_c, 0, 69, 64
2, 83190, Note_on_c, 0, 71, 127
2, 83214, Note_off_c, 0, 50, 64
2, 83217, Note_off_c, 0, 71, 64
2, 83220, Note_on_c, 0, 55, 127
2, 83220, Note_on_c, 0, 72, 127
2, 83274, Note_off_c, 0, 72, 64
2, 83274, Note_off_c, 0, 55, 64
2, 83280, Note_on_c, 0, 43, 127
2, 83280, Note_on_c, 0, 74, 127
2, 83334, Note_off_c, 0, 43, 64
2, 83340, Note_on_c, 0, 55, 127
2, 83394, Note_off_c, 0, 55, 64
2, 83400, Note_on_c, 0, 47, 127
2, 83454, Note_off_c, 0, 47, 64
2, 83460, Note_on_c, 0, 55, 127
2, 83496, Note_off_c, 0, 74, 64
2, 83514, Note_off_c, 0, 55, 64
2, 83520, Note_on_c, 0, 43, 127
2, 83574, Note_off_c, 0, 43, 64
2, 83580, Note_on_c, 0, 55, 127
2, 83634, Note_off_c, 0, 55, 64
2, 83640, Note_on_c, 0, 63, 127
2, 83640, Note_on_c, 0, 48, 127
2, 83694, Note_off_c, 0, 48, 64
2, 83694, Note_off_c, 0, 63, 64
2, 83700, Note_on_c, 0, 55, 127
2, 83700, Note_on_c, 0, 62, 127
2, 83754, Note_off_c, 0, 62, 64
2, 83754, Note_off_c, 0, 55, 64
2, 83760, Note_on_c, 0, 43, 127
2, 83760, Note_on_c, 0, 65, 127
2, 83814, Note_off_c, 0, 65, 64
2, 83814, Note_off_c, 0, 43, 64
2, 83820, Note_on_c, 0, 55, 127
2, 83820, Note_on_c, 0, 63, 127
2, 83874, Note_off_c, 0, 63, 64
2, 83874, Note_off_c, 0, 55, 64
2, 83880, Note_on_c, 0, 51, 127
2, 83880, Note_on_c, 0, 62, 127
2, 83934, Note_off_c, 0, 62, 64
2, 83934, Note_off_c, 0, 51, 64
2, 83940, Note_on_c, 0, 55, 127
2, 83940, Note_on_c, 0, 60, 127
2, 83994, Note_off_c, 0, 60, 64
2, 83994, Note_off_c, 0, 55, 64
2, 84000, Note_on_c, 0, 43, 127
2, 84040, Note_on_c, 0, 54, 127
2, 84076, Note_off_c, 0, 54, 64
2, 84080, Note_on_c, 0, 55, 127
2, 84116, Note_off_c, 0, 55, 64
2, 84120, Note_on_c, 0, 56, 127
2, 84156, Note_off_c, 0, 56, 64
2, 84160, Note_on_c, 0, 57, 127
2, 84196, Note_off_c, 0, 57, 64
2, 84200, Note_on_c, 0, 58, 127
2, 84216, Note_off_c, 0, 43, 64
2, 84236, Note_off_c, 0, 58, 64
2, 84240, Note_on_c, 0, 59, 127
2, 84276, Note_off_c, 0, 59, 64
2, 84280, Note_on_c, 0, 60, 127
2, 84316, Note_off_c, 0, 60, 64
2, 84320, Note_on_c, 0, 61, 127
2, 84356, Note_off_c, 0, 61, 64
2, 84360, Note_on_c, 0, 62, 127
2, 84396, Note_off_c, 0, 62, 64
2, 84400, Note_on_c, 0, 63, 127
2, 84436, Note_off_c, 0, 63, 64
2, 84440, Note_on_c, 0, 64, 127
2, 84476, Note_off_c, 0, 64, 64
2, 84480, Note_on_c, 0, 65, 127
2, 84516, Note_off_c, 0, 65, 64
2, 84520, Note_on_c, 0, 66, 127
2, 84556, Note_off_c, 0, 66, 64
2, 84560, Note_on_c, 0, 67, 127
2, 84596, Note_off_c, 0, 67, 64
2, 84600, Note_on_c, 0, 68, 127
2, 84636, Note_off_c, 0, 68, 64
2, 84640, Note_on_c, 0, 69, 127
2, 84676, Note_off_c, 0, 69, 64
2, 84680, Note_on_c, 0, 70, 127
2, 84716, Note_off_c, 0, 70, 64
2, 84720, Note_on_c, 0, 71, 127
2, 84756, Note_off_c, 0, 71, 64
2, 84760, Note_on_c, 0, 72, 127
2, 84796, Note_off_c, 0, 72, 64
2, 84800, Note_on_c, 0, 73, 127
2, 84836, Note_off_c, 0, 73, 64
2, 84840, Note_on_c, 0, 74, 127
2, 84876, Note_off_c, 0, 74, 64
2, 84880, Note_on_c, 0, 75, 127
2, 84916, Note_off_c, 0, 75, 64
2, 84920, Note_on_c, 0, 76, 127
2, 84956, Note_off_c, 0, 76, 64
2, 84960, Note_on_c, 0, 77, 127
2, 84996, Note_off_c, 0, 77, 64
2, 85000, Note_on_c, 0, 78, 127
2, 85036, Note_off_c, 0, 78, 64
2, 85040, Note_on_c, 0, 79, 127
2, 85076, Note_off_c, 0, 79, 64
2, 85080, Note_on_c, 0, 80, 127
2, 85116, Note_off_c, 0, 80, 64
2, 85120, Note_on_c, 0, 81, 127
2, 85156, Note_off_c, 0, 81, 64
2, 85160, Note_on_c, 0, 82, 127
2, 85196, Note_off_c, 0, 82, 64
2, 85200, Note_on_c, 0, 83, 127
2, 85236, Note_off_c, 0, 83, 64
2, 85240, Note_on_c, 0, 84, 127
2, 85276, Note_off_c, 0, 84, 64
2, 85280, Note_on_c, 0, 85, 127
2, 85316, Note_off_c, 0, 85, 64
2, 85320, Note_on_c, 0, 86, 127
2, 85356, Note_off_c, 0, 86, 64
2, 85360, Note_on_c, 0, 87, 127
2, 85396, Note_off_c, 0, 87, 64
2, 85400, Note_on_c, 0, 88, 127
2, 85436, Note_off_c, 0, 88, 64
2, 85440, Note_on_c, 0, 89, 127
2, 85512, Note_off_c, 0, 89, 64
2, 85520, Note_on_c, 0, 88, 127
2, 85592, Note_off_c, 0, 88, 64
2, 85600, Note_on_c, 0, 87, 127
2, 85672, Note_off_c, 0, 87, 64
2, 85680, Note_on_c, 0, 86, 127
2, 85752, Note_off_c, 0, 86, 64
2, 85760, Note_on_c, 0, 85, 127
2, 85832, Note_off_c, 0, 85, 64
2, 85840, Note_on_c, 0, 84, 127
2, 85912, Note_off_c, 0, 84, 64
2, 85920, Note_on_c, 0, 83, 127
2, 85992, Note_off_c, 0, 83, 64
2, 86000, Note_on_c, 0, 82, 127
2, 86072, Note_off_c, 0, 82, 64
2, 86080, Note_on_c, 0, 81, 127
2, 86152, Note_off_c, 0, 81, 64
2, 86160, Note_on_c, 0, 80, 127
2, 86232, Note_off_c, 0, 80, 64
2, 86240, Note_on_c, 0, 79, 127
2, 86312, Note_off_c, 0, 79, 64
2, 86320, Note_on_c, 0, 78, 127
2, 86392, Note_off_c, 0, 78, 64
2, 86400, Note_on_c, 0, 77, 127
2, 86472, Note_off_c, 0, 77, 64
2, 86480, Note_on_c, 0, 76, 127
2, 86552, Note_off_c, 0, 76, 64
2, 86560, Note_on_c, 0, 75, 127
2, 86632, Note_off_c, 0, 75, 64
2, 86640, Note_on_c, 0, 74, 127
2, 86712, Note_off_c, 0, 74, 64
2, 86720, Note_on_c, 0, 73, 127
2, 86792, Note_off_c, 0, 73, 64
2, 86800, Note_on_c, 0, 72, 127
2, 86872, Note_off_c, 0, 72, 64
2, 86880, Note_on_c, 0, 71, 127
2, 86952, Note_off_c, 0, 71, 64
2, 86960, Note_on_c, 0, 70, 127
2, 87032, Note_off_c, 0, 70, 64
2, 87040, Note_on_c, 0, 69, 127
2, 87112, Note_off_c, 0, 69, 64
2, 87120, Note_on_c, 0, 67, 127
2, 87192, Note_off_c, 0, 67, 64
2, 87200, Note_on_c, 0, 69, 127
2, 87272, Note_off_c, 0, 69, 64
2, 87280, Note_on_c, 0, 71, 127
2, 87352, Note_off_c, 0, 71, 64
2, 87360, Note_on_c, 0, 60, 127
2, 87360, Note_on_c, 0, 64, 127
2, 87360, Note_on_c, 0, 72, 127
2, 87468, Note_off_c, 0, 64, 64
2, 87468, Note_off_c, 0, 60, 64
2, 87480, Note_on_c, 0, 67, 127
2, 87576, Note_off_c, 0, 72, 64
2, 87588, Note_off_c, 0, 67, 64
2, 87600, Note_on_c, 0, 64, 127
2, 87600, Note_on_c, 0, 60, 127
2, 87600, Note_on_c, 0, 72, 127
2, 87708, Note_off_c, 0, 60, 64
2, 87708, Note_off_c, 0, 64, 64
2, 87720, Note_on_c, 0, 67, 127
2, 87816, Note_off_c, 0, 72, 64
2, 87828, Note_off_c, 0, 67, 64
2, 87840, Note_on_c, 0, 62, 127
2, 87840, Note_on_c, 0, 65, 127
2, 87840, Note_on_c, 0, 72, 127
2, 87948, Note_off_c, 0, 72, 64
2, 87948, Note_off_c, 0, 65, 64
2, 87948, Note_off_c, 0, 62, 64
2, 87960, Note_on_c, 0, 67, 127
2, 87960, Note_on_c, 0, 71, 127
2, 88068, Note_off_c, 0, 71, 64
2, 88068, Note_off_c, 0, 67, 64
2, 88080, Note_on_c, 0, 69, 127
2, 88080, Note_on_c, 0, 62, 127
2, 88080, Note_on_c, 0, 65, 127
2, 88188, Note_off_c, 0, 65, 64
2, 88188, Note_off_c, 0, 62, 64
2, 88188, Note_off_c, 0, 69, 64
2, 88200, Note_on_c, 0, 67, 127
2, 88200, Note_on_c, 0, 71, 127
2, 88308, Note_off_c, 0, 71, 64
2, 88308, Note_off_c, 0, 67, 64
2, 88320, Note_on_c, 0, 60, 127
2, 88320, Note_on_c, 0, 72, 127
2, 88320, Note_on_c, 0, 64, 127
2, 88428, Note_off_c, 0, 64, 64
2, 88428, Note_off_c, 0, 72, 64
2, 88428, Note_off_c, 0, 60, 64
2, 88440, Note_on_c, 0, 67, 127
2, 88440, Note_on_c, 0, 74, 127
2, 88467, Note_off_c, 0, 74, 64
2, 88470, Note_on_c, 0, 72, 127
2, 88497, Note_off_c, 0, 72, 64
2, 88500, Note_on_c, 0, 71, 127
2, 88527, Note_off_c, 0, 71, 64
2, 88530, Note_on_c, 0, 72, 127
2, 88548, Note_off_c, 0, 67, 64
2, 88557, Note_off_c, 0, 72, 64
2, 88560, Note_on_c, 0, 64, 127
2, 88560, Note_on_c, 0, 60, 127
2, 88560, Note_on_c, 0, 72, 127
2, 88668, Note_off_c, 0, 60, 64
2, 88668, Note_off_c, 0, 64, 64
2, 88680, Note_on_c, 0, 67, 127
2, 88722, Note_off_c, 0, 72, 64
2, 88740, Note_on_c, 0, 76, 127
2, 88788, Note_off_c, 0, 67, 64
2, 88794, Note_off_c, 0, 76, 64
2, 88800, Note_on_c, 0, 79, 127
2, 88800, Note_on_c, 0, 62, 127
2, 88800, Note_on_c, 0, 59, 127
2, 88908, Note_off_c, 0, 59, 64
2, 88908, Note_off_c, 0, 62, 64
2, 88920, Note_on_c, 0, 67, 127
2, 89028, Note_off_c, 0, 67, 64
2, 89040, Note_on_c, 0, 62, 127
2, 89040, Note_on_c, 0, 59, 127
2, 89148, Note_off_c, 0, 59, 64
2, 89148, Note_off_c, 0, 62, 64
2, 89160, Note_on_c, 0, 67, 127
2, 89232, Note_off_c, 0, 79, 64
2, 89268, Note_off_c, 0, 67, 64
2, 89280, Note_on_c, 0, 60, 127
2, 89280, Note_on_c, 0, 57, 127
2, 89280, Note_on_c, 0, 77, 127
2, 89388, Note_off_c, 0, 77, 64
2, 89388, Note_off_c, 0, 57, 64
2, 89388, Note_off_c, 0, 60, 64
2, 89400, Note_on_c, 0, 65, 127
2, 89400, Note_on_c, 0, 81, 127
2, 89508, Note_off_c, 0, 65, 64
2, 89520, Note_on_c, 0, 59, 127
2, 89520, Note_on_c, 0, 62, 127
2, 89616, Note_off_c, 0, 81, 64
2, 89628, Note_off_c, 0, 62, 64
2, 89628, Note_off_c, 0, 59, 64
2, 89640, Note_on_c, 0, 67, 127
2, 89640, Note_on_c, 0, 79, 127
2, 89694, Note_off_c, 0, 79, 64
2, 89700, Note_on_c, 0, 77, 127
2, 89748, Note_off_c, 0, 67, 64
2, 89754, Note_off_c, 0, 77, 64
2, 89760, Note_on_c, 0, 60, 127
2, 89760, Note_on_c, 0, 76, 127
2, 89868, Note_off_c, 0, 76, 64
2, 89868, Note_off_c, 0, 60, 64
2, 89880, Note_on_c, 0, 64, 127
2, 89880, Note_on_c, 0, 79, 127
2, 89988, Note_off_c, 0, 64, 64
2, 90000, Note_on_c, 0, 52, 127
2, 90000, Note_on_c, 0, 55, 127
2, 90096, Note_off_c, 0, 79, 64
2, 90108, Note_off_c, 0, 55, 64
2, 90108, Note_off_c, 0, 52, 64
2, 90120, Note_on_c, 0, 60, 127
2, 90120, Note_on_c, 0, 77, 127
2, 90174, Note_off_c, 0, 77, 64
2, 90180, Note_on_c, 0, 76, 127
2, 90228, Note_off_c, 0, 60, 64
2, 90234, Note_off_c, 0, 76, 64
2, 90240, Note_on_c, 0, 53, 127
2, 90240, Note_on_c, 0, 53, 127
2, 90240, Note_on_c, 0, 74, 127
2, 90294, Note_off_c, 0, 74, 64
2, 90300, Note_on_c, 0, 76, 127
2, 90348, Note_off_c, 0, 53, 64
2, 90354, Note_off_c, 0, 76, 64
2, 90360, Note_on_c, 0, 57, 127
2, 90360, Note_on_c, 0, 77, 127
2, 90414, Note_off_c, 0, 77, 64
2, 90420, Note_on_c, 0, 76, 127
2, 90468, Note_off_c, 0, 57, 64
2, 90474, Note_off_c, 0, 76, 64
2, 90480, Note_on_c, 0, 79, 127
2, 90480, Note_on_c, 0, 62, 127
2, 90534, Note_off_c, 0, 79, 64
2, 90540, Note_on_c, 0, 77, 127
2, 90588, Note_off_c, 0, 62, 64
2, 90594, Note_off_c, 0, 77, 64
2, 90600, Note_on_c, 0, 65, 127
2, 90600, Note_on_c, 0, 76, 127
2, 90654, Note_off_c, 0, 76, 64
2, 90660, Note_on_c, 0, 74, 127
2, 90672, Note_off_c, 0, 53, 64
2, 90708, Note_off_c, 0, 65, 64
2, 90714, Note_off_c, 0, 74, 64
2, 90720, Note_on_c, 0, 72, 127
2, 90720, Note_on_c, 0, 55, 127
2, 90840, Note_on_c, 0, 64, 127
2, 90936, Note_off_c, 0, 72, 64
2, 90948, Note_off_c, 0, 64, 64
2, 90960, Note_on_c, 0, 71, 127
2, 90960, Note_on_c, 0, 62, 127
2, 91044, Note_off_c, 0, 55, 64
2, 91068, Note_off_c, 0, 62, 64
2, 91068, Note_off_c, 0, 71, 64
2, 91080, Note_on_c, 0, 67, 127
2, 91188, Note_off_c, 0, 67, 64
2, 91200, Note_on_c, 0, 64, 127
2, 91200, Note_on_c, 0, 67, 127
2, 91200, Note_on_c, 0, 60, 127
2, 91272, Note_off_c, 0, 67, 64
2, 91280, Note_on_c, 0, 72, 127
2, 91308, Note_off_c, 0, 60, 64
2, 91308, Note_off_c, 0, 64, 64
2, 91320, Note_on_c, 0, 67, 127
2, 91352, Note_off_c, 0, 72, 64
2, 91360, Note_on_c, 0, 72, 127
2, 91428, Note_off_c, 0, 67, 64
2, 91432, Note_off_c, 0, 72, 64
2, 91440, Note_on_c, 0, 72, 127
2, 91440, Note_on_c, 0, 64, 127
2, 91440, Note_on_c, 0, 60, 127
2, 91512, Note_off_c, 0, 72, 64
2, 91520, Note_on_c, 0, 72, 127
2, 91548, Note_off_c, 0, 60, 64
2, 91548, Note_off_c, 0, 64, 64
2, 91560, Note_on_c, 0, 67, 127
2, 91592, Note_off_c, 0, 72, 64
2, 91600, Note_on_c, 0, 72, 127
2, 91668, Note_off_c, 0, 67, 64
2, 91672, Note_off_c, 0, 72, 64
2, 91680, Note_on_c, 0, 65, 127
2, 91680, Note_on_c, 0, 62, 127
2, 91680, Note_on_c, 0, 72, 127
2, 91752, Note_off_c, 0, 72, 64
2, 91760, Note_on_c, 0, 71, 127
2, 91788, Note_off_c, 0, 62, 64
2, 91788, Note_off_c, 0, 65, 64
2, 91800, Note_on_c, 0, 67, 127
2, 91832, Note_off_c, 0, 71, 64
2, 91840, Note_on_c, 0, 69, 127
2, 91908, Note_off_c, 0, 67, 64
2, 91912, Note_off_c, 0, 69, 64
2, 91920, Note_on_c, 0, 62, 127
2, 91920, Note_on_c, 0, 67, 127
2, 91920, Note_on_c, 0, 65, 127
2, 91992, Note_off_c, 0, 67, 64
2, 92000, Note_on_c, 0, 69, 127
2, 92028, Note_off_c, 0, 65, 64
2, 92028, Note_off_c, 0, 62, 64
2, 92040, Note_on_c, 0, 67, 127
2, 92072, Note_off_c, 0, 69, 64
2, 92080, Note_on_c, 0, 71, 127
2, 92148, Note_off_c, 0, 67, 64
2, 92152, Note_off_c, 0, 71, 64
2, 92160, Note_on_c, 0, 60, 127
2, 92160, Note_on_c, 0, 64, 127
2, 92220, Note_on_c, 0, 72, 127
2, 92268, Note_off_c, 0, 64, 64
2, 92268, Note_off_c, 0, 60, 64
2, 92274, Note_off_c, 0, 72, 64
2, 92280, Note_on_c, 0, 73, 127
2, 92280, Note_on_c, 0, 67, 127
2, 92334, Note_off_c, 0, 73, 64
2, 92340, Note_on_c, 0, 74, 127
2, 92388, Note_off_c, 0, 67, 64
2, 92394, Note_off_c, 0, 74, 64
2, 92400, Note_on_c, 0, 75, 127
2, 92400, Note_on_c, 0, 64, 127
2, 92400, Note_on_c, 0, 60, 127
2, 92454, Note_off_c, 0, 75, 64
2, 92460, Note_on_c, 0, 76, 127
2, 92508, Note_off_c, 0, 60, 64
2, 92508, Note_off_c, 0, 64, 64
2, 92514, Note_off_c, 0, 76, 64
2, 92520, Note_on_c, 0, 67, 127
2, 92520, Note_on_c, 0, 77, 127
2, 92574, Note_off_c, 0, 77, 64
2, 92580, Note_on_c, 0, 78, 127
2, 92628, Note_off_c, 0, 67, 64
2, 92634, Note_off_c, 0, 78, 64
2, 92640, Note_on_c, 0, 62, 127
2, 92640, Note_on_c, 0, 59, 127
2, 92640, Note_on_c, 0, 81, 127
2, 92748, Note_off_c, 0, 81, 64
2, 92748, Note_off_c, 0, 59, 64
2, 92748, Note_off_c, 0, 62, 64
2, 92760, Note_on_c, 0, 67, 127
2, 92760, Note_on_c, 0, 79, 127
2, 92868, Note_off_c, 0, 67, 64
2, 92880, Note_on_c, 0, 59, 127
2, 92880, Note_on_c, 0, 62, 127
2, 92976, Note_off_c, 0, 79, 64
2, 92988, Note_off_c, 0, 62, 64
2, 92988, Note_off_c, 0, 59, 64
2, 93000, Note_on_c, 0, 79, 127
2, 93000, Note_on_c, 0, 67, 127
2, 93108, Note_off_c, 0, 67, 64
2, 93108, Note_off_c, 0, 79, 64
2, 93120, Note_on_c, 0, 77, 127
2, 93120, Note_on_c, 0, 57, 127
2, 93120, Note_on_c, 0, 60, 127
2, 93138, Note_off_c, 0, 77, 64
2, 93140, Note_on_c, 0, 79, 127
2, 93158, Note_off_c, 0, 79, 64
2, 93160, Note_on_c, 0, 77, 127
2, 93178, Note_off_c, 0, 77, 64
2, 93180, Note_on_c, 0, 76, 127
2, 93207, Note_off_c, 0, 76, 64
2, 93210, Note_on_c, 0, 77, 127
2, 93228, Note_off_c, 0, 60, 64
2, 93228, Note_off_c, 0, 57, 64
2, 93237, Note_off_c, 0, 77, 64
2, 93240, Note_on_c, 0, 81, 127
2, 93240, Note_on_c, 0, 65, 127
2, 93348, Note_off_c, 0, 65, 64
2, 93360, Note_on_c, 0, 62, 127
2, 93360, Note_on_c, 0, 59, 127
2, 93456, Note_off_c, 0, 81, 64
2, 93468, Note_off_c, 0, 59, 64
2, 93468, Note_off_c, 0, 62, 64
2, 93480, Note_on_c, 0, 79, 127
2, 93480, Note_on_c, 0, 67, 127
2, 93534, Note_off_c, 0, 79, 64
2, 93540, Note_on_c, 0, 77, 127
2, 93588, Note_off_c, 0, 67, 64
2, 93594, Note_off_c, 0, 77, 64
2, 93600, Note_on_c, 0, 64, 127
2, 93600, Note_on_c, 0, 76, 127
2, 93600, Note_on_c, 0, 60, 127
2, 93636, Note_off_c, 0, 76, 64
2, 93640, Note_on_c, 0, 79, 127
2, 93676, Note_off_c, 0, 79, 64
2, 93680, Note_on_c, 0, 83, 127
2, 93708, Note_off_c, 0, 60, 64
2, 93708, Note_off_c, 0, 64, 64
2, 93716, Note_off_c, 0, 83, 64
2, 93720, Note_on_c, 0, 84, 127
2, 93720, Note_on_c, 0, 67, 127
2, 93756, Note_off_c, 0, 84, 64
2, 93760, Note_on_c, 0, 79, 127
2, 93796, Note_off_c, 0, 79, 64
2, 93800, Note_on_c, 0, 76, 127
2, 93828, Note_off_c, 0, 67, 64
2, 93836, Note_off_c, 0, 76, 64
2, 93840, Note_on_c, 0, 53, 127
2, 93840, Note_on_c, 0, 74, 127
2, 93876, Note_off_c, 0, 74, 64
2, 93880, Note_on_c, 0, 77, 127
2, 93916, Note_off_c, 0, 77, 64
2, 93920, Note_on_c, 0, 80, 127
2, 93948, Note_off_c, 0, 53, 64
2, 93956, Note_off_c, 0, 80, 64
2, 93960, Note_on_c, 0, 81, 127
2, 93960, Note_on_c, 0, 65, 127
2, 93996, Note_off_c, 0, 81, 64
2, 94000, Note_on_c, 0, 77, 127
2, 94036, Note_off_c, 0, 77, 64
2, 94040, Note_on_c, 0, 74, 127
2, 94068, Note_off_c, 0, 65, 64
2, 94076, Note_off_c, 0, 74, 64
2, 94080, Note_on_c, 0, 55, 127
2, 94080, Note_on_c, 0, 72, 127
2, 94188, Note_off_c, 0, 72, 64
2, 94188, Note_off_c, 0, 55, 64
2, 94200, Note_on_c, 0, 74, 127
2, 94200, Note_on_c, 0, 64, 127
2, 94227, Note_off_c, 0, 74, 64
2, 94230, Note_on_c, 0, 72, 127
2, 94257, Note_off_c, 0, 72, 64
2, 94260, Note_on_c, 0, 71, 127
2, 94287, Note_off_c, 0, 71, 64
2, 94290, Note_on_c, 0, 72, 127
2, 94308, Note_off_c, 0, 64, 64
2, 94317, Note_off_c, 0, 72, 64
2, 94320, Note_on_c, 0, 76, 127
2, 94320, Note_on_c, 0, 55, 127
2, 94428, Note_off_c, 0, 55, 64
2, 94428, Note_off_c, 0, 76, 64
2, 94440, Note_on_c, 0, 74, 127
2, 94440, Note_on_c, 0, 65, 127
2, 94548, Note_off_c, 0, 65, 64
2, 94548, Note_off_c, 0, 74, 64
2, 94560, Note_on_c, 0, 48, 127
2, 94560, Note_on_c, 0, 64, 127
2, 94560, Note_on_c, 0, 72, 127
2, 94668, Note_off_c, 0, 48, 64
2, 94680, Note_on_c, 0, 55, 127
2, 94776, Note_off_c, 0, 72, 64
2, 94776, Note_off_c, 0, 64, 64
2, 94788, Note_off_c, 0, 55, 64
2, 94800, Note_on_c, 0, 55, 127
2, 94908, Note_off_c, 0, 55, 64
2, 94920, Note_on_c, 0, 55, 127
2, 95028, Note_off_c, 0, 55, 64
2, 95040, Note_on_c, 0, 52, 127
2, 95040, Note_on_c, 0, 60, 127
2, 95148, Note_off_c, 0, 52, 64
2, 95160, Note_on_c, 0, 55, 127
2, 95160, Note_on_c, 0, 67, 127
2, 95268, Note_off_c, 0, 67, 64
2, 95268, Note_off_c, 0, 55, 64
2, 95280, Note_on_c, 0, 72, 127
2, 95280, Note_on_c, 0, 55, 127
2, 95388, Note_off_c, 0, 55, 64
2, 95388, Note_off_c, 0, 72, 64
2, 95400, Note_on_c, 0, 76, 127
2, 95400, Note_on_c, 0, 55, 127
2, 95472, Note_off_c, 0, 60, 64
2, 95508, Note_off_c, 0, 55, 64
2, 95508, Note_off_c, 0, 76, 64
2, 95520, Note_on_c, 0, 59, 127
2, 95520, Note_on_c, 0, 50, 127
2, 95520, Note_on_c, 0, 77, 127
2, 95628, Note_off_c, 0, 50, 64
2, 95640, Note_on_c, 0, 55, 127
2, 95682, Note_off_c, 0, 77, 64
2, 95700, Note_on_c, 0, 74, 127
2, 95748, Note_off_c, 0, 55, 64
2, 95754, Note_off_c, 0, 74, 64
2, 95760, Note_on_c, 0, 55, 127
2, 95760, Note_on_c, 0, 71, 127
2, 95868, Note_off_c, 0, 55, 64
2, 95880, Note_on_c, 0, 55, 127
2, 95952, Note_off_c, 0, 59, 64
2, 95976, Note_off_c, 0, 71, 64
2, 95988, Note_off_c, 0, 55, 64
2, 96000, Note_on_c, 0, 53, 127
2, 96000, Note_on_c, 0, 62, 127
2, 96108, Note_off_c, 0, 53, 64
2, 96120, Note_on_c, 0, 67, 127
2, 96120, Note_on_c, 0, 55, 127
2, 96228, Note_off_c, 0, 55, 64
2, 96228, Note_off_c, 0, 67, 64
2, 96240, Note_on_c, 0, 71, 127
2, 96240, Note_on_c, 0, 55, 127
2, 96348, Note_off_c, 0, 55, 64
2, 96348, Note_off_c, 0, 71, 64
2, 96360, Note_on_c, 0, 74, 127
2, 96360, Note_on_c, 0, 55, 127
2, 96432, Note_off_c, 0, 62, 64
2, 96468, Note_off_c, 0, 55, 64
2, 96468, Note_off_c, 0, 74, 64
2, 96480, Note_on_c, 0, 76, 127
2, 96480, Note_on_c, 0, 52, 127
2, 96480, Note_on_c, 0, 60, 127
2, 96588, Note_off_c, 0, 52, 64
2, 96600, Note_on_c, 0, 55, 127
2, 96642, Note_off_c, 0, 76, 64
2, 96660, Note_on_c, 0, 72, 127
2, 96708, Note_off_c, 0, 55, 64
2, 96714, Note_off_c, 0, 72, 64
2, 96720, Note_on_c, 0, 55, 127
2, 96720, Note_on_c, 0, 67, 127
2, 96828, Note_off_c, 0, 55, 64
2, 96840, Note_on_c, 0, 55, 127
2, 96912, Note_off_c, 0, 60, 64
2, 96936, Note_off_c, 0, 67, 64
2, 96948, Note_off_c, 0, 55, 64
2, 96960, Note_on_c, 0, 48, 127
2, 96960, Note_on_c, 0, 52, 127
2, 97068, Note_off_c, 0, 52, 64
2, 97080, Note_on_c, 0, 55, 127
2, 97080, Note_on_c, 0, 67, 127
2, 97134, Note_off_c, 0, 67, 64
2, 97140, Note_on_c, 0, 69, 127
2, 97188, Note_off_c, 0, 55, 64
2, 97194, Note_off_c, 0, 69, 64
2, 97200, Note_on_c, 0, 71, 127
2, 97200, Note_on_c, 0, 55, 127
2, 97254, Note_off_c, 0, 71, 64
2, 97260, Note_on_c, 0, 72, 127
2, 97308, Note_off_c, 0, 55, 64
2, 97314, Note_off_c, 0, 72, 64
2, 97320, Note_on_c, 0, 74, 127
2, 97320, Note_on_c, 0, 55, 127
2, 97374, Note_off_c, 0, 74, 64
2, 97380, Note_on_c, 0, 76, 127
2, 97392, Note_off_c, 0, 48, 64
2, 97428, Note_off_c, 0, 55, 64
2, 97434, Note_off_c, 0, 76, 64
2, 97440, Note_on_c, 0, 79, 127
2, 97440, Note_on_c, 0, 50, 127
2, 97440, Note_on_c, 0, 53, 127
2, 97494, Note_off_c, 0, 79, 64
2, 97500, Note_on_c, 0, 77, 127
2, 97548, Note_off_c, 0, 53, 64
2, 97554, Note_off_c, 0, 77, 64
2, 97560, Note_on_c, 0, 76, 127
2, 97560, Note_on_c, 0, 55, 127
2, 97614, Note_off_c, 0, 76, 64
2, 97620, Note_on_c, 0, 74, 127
2, 97668, Note_off_c, 0, 55, 64
2, 97674, Note_off_c, 0, 74, 64
2, 97680, Note_on_c, 0, 72, 127
2, 97680, Note_on_c, 0, 55, 127
2, 97788, Note_off_c, 0, 55, 64
2, 97788, Note_off_c, 0, 72, 64
2, 97800, Note_on_c, 0, 55, 127
2, 97800, Note_on_c, 0, 71, 127
2, 97872, Note_off_c, 0, 50, 64
2, 97908, Note_off_c, 0, 71, 64
2, 97908, Note_off_c, 0, 55, 64
2, 97920, Note_on_c, 0, 47, 127
2, 97920, Note_on_c, 0, 53, 127
2, 98028, Note_off_c, 0, 53, 64
2, 98040, Note_on_c, 0, 55, 127
2, 98040, Note_on_c, 0, 79, 127
2, 98094, Note_off_c, 0, 79, 64
2, 98100, Note_on_c, 0, 81, 127
2, 98148, Note_off_c, 0, 55, 64
2, 98154, Note_off_c, 0, 81, 64
2, 98160, Note_on_c, 0, 55, 127
2, 98160, Note_on_c, 0, 83, 127
2, 98214, Note_off_c, 0, 83, 64
2, 98220, Note_on_c, 0, 84, 127
2, 98268, Note_off_c, 0, 55, 64
2, 98274, Note_off_c, 0, 84, 64
2, 98280, Note_on_c, 0, 86, 127
2, 98280, Note_on_c, 0, 55, 127
2, 98334, Note_off_c, 0, 86, 64
2, 98340, Note_on_c, 0, 87, 127
2, 98352, Note_off_c, 0, 47, 64
2, 98388, Note_off_c, 0, 55, 64
2, 98394, Note_off_c, 0, 87, 64
2, 98400, Note_on_c, 0, 88, 127
2, 98400, Note_on_c, 0, 48, 127
2, 98400, Note_on_c, 0, 52, 127
2, 98454, Note_off_c, 0, 88, 64
2, 98460, Note_on_c, 0, 87, 127
2, 98514, Note_off_c, 0, 87, 64
2, 98520, Note_on_c, 0, 89, 127
2, 98574, Note_off_c, 0, 89, 64
2, 98580, Note_on_c, 0, 88, 127
2, 98616, Note_off_c, 0, 52, 64
2, 98616, Note_off_c, 0, 48, 64
2, 98634, Note_off_c, 0, 88, 64
2, 98640, Note_on_c, 0, 86, 127
2, 98694, Note_off_c, 0, 86, 64
2, 98700, Note_on_c, 0, 84, 127
2, 98754, Note_off_c, 0, 84, 64
2, 98760, Note_on_c, 0, 83, 127
2, 98814, Note_off_c, 0, 83, 64
2, 98820, Note_on_c, 0, 81, 127
2, 98874, Note_off_c, 0, 81, 64
2, 98880, Note_on_c, 0, 79, 127
2, 98934, Note_off_c, 0, 79, 64
2, 98940, Note_on_c, 0, 84, 127
2, 98994, Note_off_c, 0, 84, 64
2, 99000, Note_on_c, 0, 83, 127
2, 99054, Note_off_c, 0, 83, 64
2, 99060, Note_on_c, 0, 81, 127
2, 99114, Note_off_c, 0, 81, 64
2, 99120, Note_on_c, 0, 80, 127
2, 99174, Note_off_c, 0, 80, 64
2, 99180, Note_on_c, 0, 79, 127
2, 99234, Note_off_c, 0, 79, 64
2, 99240, Note_on_c, 0, 78, 127
2, 99294, Note_off_c, 0, 78, 64
2, 99300, Note_on_c, 0, 77, 127
2, 99354, Note_off_c, 0, 77, 64
2, 99360, Note_on_c, 0, 76, 127
2, 99414, Note_off_c, 0, 76, 64
2, 99420, Note_on_c, 0, 81, 127
2, 99474, Note_off_c, 0, 81, 64
2, 99480, Note_on_c, 0, 79, 127
2, 99534, Note_off_c, 0, 79, 64
2, 99540, Note_on_c, 0, 78, 127
2, 99594, Note_off_c, 0, 78, 64
2, 99600, Note_on_c, 0, 77, 127
2, 99654, Note_off_c, 0, 77, 64
2, 99660, Note_on_c, 0, 76, 127
2, 99714, Note_off_c, 0, 76, 64
2, 99720, Note_on_c, 0, 75, 127
2, 99774, Note_off_c, 0, 75, 64
2, 99780, Note_on_c, 0, 74, 127
2, 99834, Note_off_c, 0, 74, 64
2, 99840, Note_on_c, 0, 60, 127
2, 99840, Note_on_c, 0, 64, 127
2, 99840, Note_on_c, 0, 72, 127
2, 99948, Note_off_c, 0, 64, 64
2, 99948, Note_off_c, 0, 60, 64
2, 99960, Note_on_c, 0, 67, 127
2, 100056, Note_off_c, 0, 72, 64
2, 100068, Note_off_c, 0, 67, 64
2, 100080, Note_on_c, 0, 60, 127
2, 100080, Note_on_c, 0, 64, 127
2, 100080, Note_on_c, 0, 72, 127
2, 100188, Note_off_c, 0, 64, 64
2, 100188, Note_off_c, 0, 60, 64
2, 100200, Note_on_c, 0, 67, 127
2, 100296, Note_off_c, 0, 72, 64
2, 100308, Note_off_c, 0, 67, 64
2, 100320, Note_on_c, 0, 67, 127
2, 100320, Note_on_c, 0, 72, 127
2, 100320, Note_on_c, 0, 65, 127
2, 100320, Note_on_c, 0, 62, 127
2, 100428, Note_off_c, 0, 72, 64
2, 100440, Note_on_c, 0, 71, 127
2, 100548, Note_off_c, 0, 71, 64
2, 100560, Note_on_c, 0, 70, 127
2, 100668, Note_off_c, 0, 70, 64
2, 100680, Note_on_c, 0, 71, 127
2, 100752, Note_off_c, 0, 62, 64
2, 100752, Note_off_c, 0, 65, 64
2, 100752, Note_off_c, 0, 67, 64
2, 100788, Note_off_c, 0, 71, 64
2, 100800, Note_on_c, 0, 62, 127
2, 100800, Note_on_c, 0, 71, 127
2, 100800, Note_on_c, 0, 65, 127
2, 100908, Note_off_c, 0, 65, 64
2, 100908, Note_off_c, 0, 62, 64
2, 100920, Note_on_c, 0, 68, 127
2, 101016, Note_off_c, 0, 71, 64
2, 101028, Note_off_c, 0, 68, 64
2, 101040, Note_on_c, 0, 65, 127
2, 101040, Note_on_c, 0, 62, 127
2, 101040, Note_on_c, 0, 71, 127
2, 101148, Note_off_c, 0, 62, 64
2, 101148, Note_off_c, 0, 65, 64
2, 101160, Note_on_c, 0, 68, 127
2, 101229, Note_off_c, 0, 71, 64
2, 101250, Note_on_c, 0, 71, 127
2, 101268, Note_off_c, 0, 68, 64
2, 101277, Note_off_c, 0, 71, 64
2, 101280, Note_on_c, 0, 74, 127
2, 101280, Note_on_c, 0, 63, 127
2, 101280, Note_on_c, 0, 67, 127
2, 101388, Note_off_c, 0, 74, 64
2, 101400, Note_on_c, 0, 72, 127
2, 101508, Note_off_c, 0, 72, 64
2, 101520, Note_on_c, 0, 71, 127
2, 101628, Note_off_c, 0, 71, 64
2, 101640, Note_on_c, 0, 72, 127
2, 101712, Note_off_c, 0, 67, 64
2, 101712, Note_off_c, 0, 63, 64
2, 101748, Note_off_c, 0, 72, 64
2, 101760, Note_on_c, 0, 66, 127
2, 101760, Note_on_c, 0, 72, 127
2, 101868, Note_off_c, 0, 66, 64
2, 101880, Note_on_c, 0, 68, 127
2, 101976, Note_off_c, 0, 72, 64
2, 101988, Note_off_c, 0, 68, 64
2, 102000, Note_on_c, 0, 66, 127
2, 102000, Note_on_c, 0, 72, 127
2, 102108, Note_off_c, 0, 66, 64
2, 102120, Note_on_c, 0, 68, 127
2, 102216, Note_off_c, 0, 72, 64
2, 102228, Note_off_c, 0, 68, 64
2, 102240, Note_on_c, 0, 65, 127
2, 102240, Note_on_c, 0, 75, 127
2, 102348, Note_off_c, 0, 75, 64
2, 102348, Note_off_c, 0, 65, 64
2, 102360, Note_on_c, 0, 68, 127
2, 102360, Note_on_c, 0, 73, 127
2, 102468, Note_off_c, 0, 73, 64
2, 102468, Note_off_c, 0, 68, 64
2, 102480, Note_on_c, 0, 65, 127
2, 102480, Note_on_c, 0, 72, 127
2, 102588, Note_off_c, 0, 72, 64
2, 102588, Note_off_c, 0, 65, 64
2, 102600, Note_on_c, 0, 68, 127
2, 102600, Note_on_c, 0, 73, 127
2, 102708, Note_off_c, 0, 73, 64
2, 102708, Note_off_c, 0, 68, 64
2, 102720, Note_on_c, 0, 60, 127
2, 102720, Note_on_c, 0, 78, 127
2, 102828, Note_off_c, 0, 60, 64
2, 102840, Note_on_c, 0, 68, 127
2, 102936, Note_off_c, 0, 78, 64
2, 102948, Note_off_c, 0, 68, 64
2, 102960, Note_on_c, 0, 60, 127
2, 102960, Note_on_c, 0, 78, 127
2, 103068, Note_off_c, 0, 60, 64
2, 103080, Note_on_c, 0, 68, 127
2, 103176, Note_off_c, 0, 78, 64
2, 103188, Note_off_c, 0, 68, 64
2, 103200, Note_on_c, 0, 61, 127
2, 103200, Note_on_c, 0, 78, 127
2, 103308, Note_off_c, 0, 78, 64
2, 103308, Note_off_c, 0, 61, 64
2, 103320, Note_on_c, 0, 68, 127
2, 103320, Note_on_c, 0, 76, 127
2, 103428, Note_off_c, 0, 76, 64
2, 103428, Note_off_c, 0, 68, 64
2, 103440, Note_on_c, 0, 61, 127
2, 103440, Note_on_c, 0, 75, 127
2, 103548, Note_off_c, 0, 75, 64
2, 103548, Note_off_c, 0, 61, 64
2, 103560, Note_on_c, 0, 68, 127
2, 103560, Note_on_c, 0, 73, 127
2, 103668, Note_off_c, 0, 73, 64
2, 103668, Note_off_c, 0, 68, 64
2, 103680, Note_on_c, 0, 72, 127
2, 103680, Note_on_c, 0, 63, 127
2, 103680, Note_on_c, 0, 68, 127
2, 103680, Note_on_c, 0, 54, 127
2, 103788, Note_off_c, 0, 54, 64
2, 103800, Note_on_c, 0, 56, 127
2, 103896, Note_off_c, 0, 68, 64
2, 103896, Note_off_c, 0, 63, 64
2, 103896, Note_off_c, 0, 72, 64
2, 103908, Note_off_c, 0, 56, 64
2, 103920, Note_on_c, 0, 72, 127
2, 103920, Note_on_c, 0, 68, 127
2, 103920, Note_on_c, 0, 63, 127
2, 103920, Note_on_c, 0, 54, 127
2, 104028, Note_off_c, 0, 54, 64
2, 104040, Note_on_c, 0, 56, 127
2, 104136, Note_off_c, 0, 63, 64
2, 104136, Note_off_c, 0, 68, 64
2, 104136, Note_off_c, 0, 72, 64
2, 104148, Note_off_c, 0, 56, 64
2, 104160, Note_on_c, 0, 53, 127
2, 104160, Note_on_c, 0, 61, 127
2, 104160, Note_on_c, 0, 75, 127
2, 104160, Note_on_c, 0, 68, 127
2, 104268, Note_off_c, 0, 75, 64
2, 104268, Note_off_c, 0, 53, 64
2, 104280, Note_on_c, 0, 56, 127
2, 104280, Note_on_c, 0, 73, 127
2, 104388, Note_off_c, 0, 73, 64
2, 104388, Note_off_c, 0, 56, 64
2, 104400, Note_on_c, 0, 72, 127
2, 104400, Note_on_c, 0, 53, 127
2, 104508, Note_off_c, 0, 53, 64
2, 104508, Note_off_c, 0, 72, 64
2, 104520, Note_on_c, 0, 56, 127
2, 104520, Note_on_c, 0, 73, 127
2, 104592, Note_off_c, 0, 68, 64
2, 104592, Note_off_c, 0, 61, 64
2, 104628, Note_off_c, 0, 73, 64
2, 104628, Note_off_c, 0, 56, 64
2, 104640, Note_on_c, 0, 78, 127
2, 104640, Note_on_c, 0, 75, 127
2, 104640, Note_on_c, 0, 60, 127
2, 104640, Note_on_c, 0, 66, 127
2, 104640, Note_on_c, 0, 48, 127
2, 104640, Note_on_c, 0, 68, 127
2, 104748, Note_off_c, 0, 48, 64
2, 104760, Note_on_c, 0, 56, 127
2, 104856, Note_off_c, 0, 68, 64
2, 104856, Note_off_c, 0, 66, 64
2, 104856, Note_off_c, 0, 60, 64
2, 104856, Note_off_c, 0, 75, 64
2, 104856, Note_off_c, 0, 78, 64
2, 104868, Note_off_c, 0, 56, 64
2, 104880, Note_on_c, 0, 68, 127
2, 104880, Note_on_c, 0, 66, 127
2, 104880, Note_on_c, 0, 75, 127
2, 104880, Note_on_c, 0, 78, 127
2, 104880, Note_on_c, 0, 60, 127
2, 104880, Note_on_c, 0, 48, 127
2, 104988, Note_off_c, 0, 48, 64
2, 105000, Note_on_c, 0, 56, 127
2, 105096, Note_off_c, 0, 60, 64
2, 105096, Note_off_c, 0, 78, 64
2, 105096, Note_off_c, 0, 75, 64
2, 105096, Note_off_c, 0, 66, 64
2, 105096, Note_off_c, 0, 68, 64
2, 105108, Note_off_c, 0, 56, 64
2, 105120, Note_on_c, 0, 49, 127
2, 105174, Note_off_c, 0, 49, 64
2, 105180, Note_on_c, 0, 53, 127
2, 105234, Note_off_c, 0, 53, 64
2, 105240, Note_on_c, 0, 56, 127
2, 105294, Note_off_c, 0, 56, 64
2, 105300, Note_on_c, 0, 61, 127
2, 105354, Note_off_c, 0, 61, 64
2, 105360, Note_on_c, 0, 65, 127
2, 105414, Note_off_c, 0, 65, 64
2, 105420, Note_on_c, 0, 68, 127
2, 105474, Note_off_c, 0, 68, 64
2, 105480, Note_on_c, 0, 73, 127
2, 105534, Note_off_c, 0, 73, 64
2, 105540, Note_on_c, 0, 77, 127
2, 105594, Note_off_c, 0, 77, 64
2, 105600, Note_on_c, 0, 54, 127
2, 105654, Note_off_c, 0, 54, 64
2, 105660, Note_on_c, 0, 56, 127
2, 105714, Note_off_c, 0, 56, 64
2, 105720, Note_on_c, 0, 60, 127
2, 105774, Note_off_c, 0, 60, 64
2, 105780, Note_on_c, 0, 63, 127
2, 105834, Note_off_c, 0, 63, 64
2, 105840, Note_on_c, 0, 63, 127
2, 105894, Note_off_c, 0, 63, 64
2, 105900, Note_on_c, 0, 68, 127
2, 105954, Note_off_c, 0, 68, 64
2, 105960, Note_on_c, 0, 72, 127
2, 106014, Note_off_c, 0, 72, 64
2, 106020, Note_on_c, 0, 75, 127
2, 106074, Note_off_c, 0, 75, 64
2, 106080, Note_on_c, 0, 53, 127
2, 106134, Note_off_c, 0, 53, 64
2, 106140, Note_on_c, 0, 56, 127
2, 106194, Note_off_c, 0, 56, 64
2, 106200, Note_on_c, 0, 61, 127
2, 106254, Note_off_c, 0, 61, 64
2, 106260, Note_on_c, 0, 65, 127
2, 106314, Note_off_c, 0, 65, 64
2, 106320, Note_on_c, 0, 68, 127
2, 106374, Note_off_c, 0, 68, 64
2, 106380, Note_on_c, 0, 73, 127
2, 106434, Note_off_c, 0, 73, 64
2, 106440, Note_on_c, 0, 77, 127
2, 106494, Note_off_c, 0, 77, 64
2, 106500, Note_on_c, 0, 80, 127
2, 106554, Note_off_c, 0, 80, 64
2, 106560, Note_on_c, 0, 51, 127
2, 106614, Note_off_c, 0, 51, 64
2, 106620, Note_on_c, 0, 56, 127
2, 106674, Note_off_c, 0, 56, 64
2, 106680, Note_on_c, 0, 60, 127
2, 106734, Note_off_c, 0, 60, 64
2, 106740, Note_on_c, 0, 63, 127
2, 106794, Note_off_c, 0, 63, 64
2, 106800, Note_on_c, 0, 66, 127
2, 106854, Note_off_c, 0, 66, 64
2, 106860, Note_on_c, 0, 68, 127
2, 106914, Note_off_c, 0, 68, 64
2, 106920, Note_on_c, 0, 72, 127
2, 106974, Note_off_c, 0, 72, 64
2, 106980, Note_on_c, 0, 78, 127
2, 107034, Note_off_c, 0, 78, 64
2, 107040, Note_on_c, 0, 49, 127
2, 107094, Note_off_c, 0, 49, 64
2, 107100, Note_on_c, 0, 53, 127
2, 107154, Note_off_c, 0, 53, 64
2, 107160, Note_on_c, 0, 56, 127
2, 107214, Note_off_c, 0, 56, 64
2, 107220, Note_on_c, 0, 61, 127
2, 107274, Note_off_c, 0, 61, 64
2, 107280, Note_on_c, 0, 65, 127
2, 107334, Note_off_c, 0, 65, 64
2, 107340, Note_on_c, 0, 68, 127
2, 107394, Note_off_c, 0, 68, 64
2, 107400, Note_on_c, 0, 73, 127
2, 107454, Note_off_c, 0, 73, 64
2, 107460, Note_on_c, 0, 77, 127
2, 107514, Note_off_c, 0, 77, 64
2, 107520, Note_on_c, 0, 48, 127
2, 107574, Note_off_c, 0, 48, 64
2, 107580, Note_on_c, 0, 53, 127
2, 107634, Note_off_c, 0, 53, 64
2, 107640, Note_on_c, 0, 56, 127
2, 107694, Note_off_c, 0, 56, 64
2, 107700, Note_on_c, 0, 60, 127
2, 107754, Note_off_c, 0, 60, 64
2, 107760, Note_on_c, 0, 65, 127
2, 107814, Note_off_c, 0, 65, 64
2, 107820, Note_on_c, 0, 68, 127
2, 107874, Note_off_c, 0, 68, 64
2, 107880, Note_on_c, 0, 72, 127
2, 107934, Note_off_c, 0, 72, 64
2, 107940, Note_on_c, 0, 77, 127
2, 107994, Note_off_c, 0, 77, 64
2, 108000, Note_on_c, 0, 47, 127
2, 108054, Note_off_c, 0, 47, 64
2, 108060, Note_on_c, 0, 53, 127
2, 108114, Note_off_c, 0, 53, 64
2, 108120, Note_on_c, 0, 56, 127
2, 108174, Note_off_c, 0, 56, 64
2, 108180, Note_on_c, 0, 59, 127
2, 108234, Note_off_c, 0, 59, 64
2, 108240, Note_on_c, 0, 65, 127
2, 108294, Note_off_c, 0, 65, 64
2, 108300, Note_on_c, 0, 68, 127
2, 108354, Note_off_c, 0, 68, 64
2, 108360, Note_on_c, 0, 74, 127
2, 108414, Note_off_c, 0, 74, 64
2, 108420, Note_on_c, 0, 77, 127
2, 108474, Note_off_c, 0, 77, 64
2, 108480, Note_on_c, 0, 48, 127
2, 108534, Note_off_c, 0, 48, 64
2, 108540, Note_on_c, 0, 51, 127
2, 108594, Note_off_c, 0, 51, 64
2, 108600, Note_on_c, 0, 55, 127
2, 108654, Note_off_c, 0, 55, 64
2, 108660, Note_on_c, 0, 60, 127
2, 108714, Note_off_c, 0, 60, 64
2, 108720, Note_on_c, 0, 63, 127
2, 108774, Note_off_c, 0, 63, 64
2, 108780, Note_on_c, 0, 67, 127
2, 108834, Note_off_c, 0, 67, 64
2, 108840, Note_on_c, 0, 72, 127
2, 108894, Note_off_c, 0, 72, 64
2, 108900, Note_on_c, 0, 75, 127
2, 108954, Note_off_c, 0, 75, 64
2, 108960, Note_on_c, 0, 41, 127
2, 109014, Note_off_c, 0, 41, 64
2, 109020, Note_on_c, 0, 44, 127
2, 109074, Note_off_c, 0, 44, 64
2, 109080, Note_on_c, 0, 48, 127
2, 109134, Note_off_c, 0, 48, 64
2, 109140, Note_on_c, 0, 53, 127
2, 109194, Note_off_c, 0, 53, 64
2, 109200, Note_on_c, 0, 62, 127
2, 109254, Note_off_c, 0, 62, 64
2, 109260, Note_on_c, 0, 68, 127
2, 109314, Note_off_c, 0, 68, 64
2, 109320, Note_on_c, 0, 72, 127
2, 109374, Note_off_c, 0, 72, 64
2, 109380, Note_on_c, 0, 74, 127
2, 109434, Note_off_c, 0, 74, 64
2, 109440, Note_on_c, 0, 43, 127
2, 109494, Note_off_c, 0, 43, 64
2, 109500, Note_on_c, 0, 46, 127
2, 109554, Note_off_c, 0, 46, 64
2, 109560, Note_on_c, 0, 48, 127
2, 109614, Note_off_c, 0, 48, 64
2, 109620, Note_on_c, 0, 55, 127
2, 109674, Note_off_c, 0, 55, 64
2, 109680, Note_on_c, 0, 64, 127
2, 109734, Note_off_c, 0, 64, 64
2, 109740, Note_on_c, 0, 70, 127
2, 109794, Note_off_c, 0, 70, 64
2, 109800, Note_on_c, 0, 72, 127
2, 109854, Note_off_c, 0, 72, 64
2, 109860, Note_on_c, 0, 76, 127
2, 109914, Note_off_c, 0, 76, 64
2, 109920, Note_on_c, 0, 44, 127
2, 109974, Note_off_c, 0, 44, 64
2, 109980, Note_on_c, 0, 48, 127
2, 110034, Note_off_c, 0, 48, 64
2, 110040, Note_on_c, 0, 53, 127
2, 110094, Note_off_c, 0, 53, 64
2, 110100, Note_on_c, 0, 56, 127
2, 110154, Note_off_c, 0, 56, 64
2, 110160, Note_on_c, 0, 65, 127
2, 110214, Note_off_c, 0, 65, 64
2, 110220, Note_on_c, 0, 68, 127
2, 110274, Note_off_c, 0, 68, 64
2, 110280, Note_on_c, 0, 72, 127
2, 110334, Note_off_c, 0, 72, 64
2, 110340, Note_on_c, 0, 77, 127
2, 110394, Note_off_c, 0, 77, 64
2, 110400, Note_on_c, 0, 45, 127
2, 110454, Note_off_c, 0, 45, 64
2, 110460, Note_on_c, 0, 48, 127
2, 110514, Note_off_c, 0, 48, 64
2, 110520, Note_on_c, 0, 51, 127
2, 110574, Note_off_c, 0, 51, 64
2, 110580, Note_on_c, 0, 57, 127
2, 110634, Note_off_c, 0, 57, 64
2, 110640, Note_on_c, 0, 66, 127
2, 110694, Note_off_c, 0, 66, 64
2, 110700, Note_on_c, 0, 72, 127
2, 110754, Note_off_c, 0, 72, 64
2, 110760, Note_on_c, 0, 75, 127
2, 110814, Note_off_c, 0, 75, 64
2, 110820, Note_on_c, 0, 78, 127
2, 110874, Note_off_c, 0, 78, 64
2, 110880, Note_on_c, 0, 79, 127
2, 110880, Note_on_c, 0, 72, 127
2, 110880, Note_on_c, 0, 67, 127
2, 110880, Note_on_c, 0, 43, 127
2, 110880, Note_on_c, 0, 76, 127
2, 110988, Note_off_c, 0, 43, 64
2, 111000, Note_on_c, 0, 55, 127
2, 111108, Note_off_c, 0, 55, 64
2, 111120, Note_on_c, 0, 55, 127
2, 111204, Note_off_c, 0, 76, 64
2, 111204, Note_off_c, 0, 67, 64
2, 111204, Note_off_c, 0, 72, 64
2, 111204, Note_off_c, 0, 79, 64
2, 111228, Note_off_c, 0, 55, 64
2, 111240, Note_on_c, 0, 77, 127
2, 111240, Note_on_c, 0, 74, 127
2, 111240, Note_on_c, 0, 55, 127
2, 111348, Note_off_c, 0, 55, 64
2, 111348, Note_off_c, 0, 74, 64
2, 111348, Note_off_c, 0, 77, 64
2, 111360, Note_on_c, 0, 55, 127
2, 111360, Note_on_c, 0, 72, 127
2, 111360, Note_on_c, 0, 76, 127
2, 111468, Note_off_c, 0, 76, 64
2, 111468, Note_off_c, 0, 72, 64
2, 111468, Note_off_c, 0, 55, 64
2, 111480, Note_on_c, 0, 55, 127
2, 111480, Note_on_c, 0, 67, 127
2, 111480, Note_on_c, 0, 76, 127
2, 111588, Note_off_c, 0, 76, 64
2, 111588, Note_off_c, 0, 67, 64
2, 111588, Note_off_c, 0, 55, 64
2, 111600, Note_on_c, 0, 55, 127
2, 111600, Note_on_c, 0, 69, 127
2, 111600, Note_on_c, 0, 65, 127
2, 111600, Note_on_c, 0, 74, 127
2, 111708, Note_off_c, 0, 74, 64
2, 111708, Note_off_c, 0, 65, 64
2, 111708, Note_off_c, 0, 69, 64
2, 111708, Note_off_c, 0, 55, 64
2, 111720, Note_on_c, 0, 55, 127
2, 111720, Note_on_c, 0, 66, 127
2, 111720, Note_on_c, 0, 69, 127
2, 111720, Note_on_c, 0, 63, 127
2, 111720, Note_on_c, 0, 72, 127
2, 111828, Note_off_c, 0, 72, 64
2, 111828, Note_off_c, 0, 63, 64
2, 111828, Note_off_c, 0, 69, 64
2, 111828, Note_off_c, 0, 66, 64
2, 111828, Note_off_c, 0, 55, 64
2, 111840, Note_on_c, 0, 72, 127
2, 111840, Note_on_c, 0, 64, 127
2, 111840, Note_on_c, 0, 43, 127
2, 111840, Note_on_c, 0, 67, 127
2, 111948, Note_off_c, 0, 43, 64
2, 111960, Note_on_c, 0, 55, 127
2, 112068, Note_off_c, 0, 55, 64
2, 112080, Note_on_c, 0, 43, 127
2, 112164, Note_off_c, 0, 67, 64
2, 112164, Note_off_c, 0, 64, 64
2, 112164, Note_off_c, 0, 72, 64
2, 112188, Note_off_c, 0, 43, 64
2, 112200, Note_on_c, 0, 67, 127
2, 112200, Note_on_c, 0, 64, 127
2, 112200, Note_on_c, 0, 55, 127
2, 112200, Note_on_c, 0, 72, 127
2, 112308, Note_off_c, 0, 72, 64
2, 112308, Note_off_c, 0, 55, 64
2, 112308, Note_off_c, 0, 64, 64
2, 112308, Note_off_c, 0, 67, 64
2, 112320, Note_on_c, 0, 43, 127
2, 112320, Note_on_c, 0, 72, 127
2, 112320, Note_on_c, 0, 65, 127
2, 112320, Note_on_c, 0, 62, 127
2, 112428, Note_off_c, 0, 72, 64
2, 112428, Note_off_c, 0, 43, 64
2, 112440, Note_on_c, 0, 55, 127
2, 112440, Note_on_c, 0, 71, 127
2, 112536, Note_off_c, 0, 62, 64
2, 112536, Note_off_c, 0, 65, 64
2, 112548, Note_off_c, 0, 71, 64
2, 112548, Note_off_c, 0, 55, 64
2, 112560, Note_on_c, 0, 43, 127
2, 112560, Note_on_c, 0, 62, 127
2, 112560, Note_on_c, 0, 69, 127
2, 112560, Note_on_c, 0, 65, 127
2, 112668, Note_off_c, 0, 69, 64
2, 112668, Note_off_c, 0, 43, 64
2, 112680, Note_on_c, 0, 55, 127
2, 112680, Note_on_c, 0, 67, 127
2, 112776, Note_off_c, 0, 65, 64
2, 112776, Note_off_c, 0, 62, 64
2, 112788, Note_off_c, 0, 67, 64
2, 112788, Note_off_c, 0, 55, 64
2, 112800, Note_on_c, 0, 79, 127
2, 112800, Note_on_c, 0, 43, 127
2, 112800, Note_on_c, 0, 76, 127
2, 112872, Note_off_c, 0, 43, 64
2, 112880, Note_on_c, 0, 48, 127
2, 112952, Note_off_c, 0, 48, 64
2, 112960, Note_on_c, 0, 52, 127
2, 113032, Note_off_c, 0, 52, 64
2, 113040, Note_on_c, 0, 55, 127
2, 113112, Note_off_c, 0, 55, 64
2, 113120, Note_on_c, 0, 60, 127
2, 113124, Note_off_c, 0, 76, 64
2, 113124, Note_off_c, 0, 79, 64
2, 113160, Note_on_c, 0, 77, 127
2, 113160, Note_on_c, 0, 74, 127
2, 113192, Note_off_c, 0, 60, 64
2, 113200, Note_on_c, 0, 64, 127
2, 113268, Note_off_c, 0, 74, 64
2, 113268, Note_off_c, 0, 77, 64
2, 113272, Note_off_c, 0, 64, 64
2, 113280, Note_on_c, 0, 67, 127
2, 113280, Note_on_c, 0, 76, 127
2, 113280, Note_on_c, 0, 72, 127
2, 113388, Note_off_c, 0, 72, 64
2, 113388, Note_off_c, 0, 76, 64
2, 113388, Note_off_c, 0, 67, 64
2, 113400, Note_on_c, 0, 55, 127
2, 113400, Note_on_c, 0, 76, 127
2, 113400, Note_on_c, 0, 67, 127
2, 113508, Note_off_c, 0, 67, 64
2, 113508, Note_off_c, 0, 76, 64
2, 113508, Note_off_c, 0, 55, 64
2, 113520, Note_on_c, 0, 55, 127
2, 113520, Note_on_c, 0, 69, 127
2, 113520, Note_on_c, 0, 74, 127
2, 113520, Note_on_c, 0, 65, 127
2, 113628, Note_off_c, 0, 65, 64
2, 113628, Note_off_c, 0, 74, 64
2, 113628, Note_off_c, 0, 69, 64
2, 113628, Note_off_c, 0, 55, 64
2, 113640, Note_on_c, 0, 55, 127
2, 113640, Note_on_c, 0, 63, 127
2, 113640, Note_on_c, 0, 66, 127
2, 113640, Note_on_c, 0, 72, 127
2, 113640, Note_on_c, 0, 69, 127
2, 113748, Note_off_c, 0, 69, 64
2, 113748, Note_off_c, 0, 72, 64
2, 113748, Note_off_c, 0, 66, 64
2, 113748, Note_off_c, 0, 63, 64
2, 113748, Note_off_c, 0, 55, 64
2, 113760, Note_on_c, 0, 67, 127
2, 113760, Note_on_c, 0, 64, 127
2, 113760, Note_on_c, 0, 43, 127
2, 113760, Note_on_c, 0, 72, 127
2, 113868, Note_off_c, 0, 43, 64
2, 113880, Note_on_c, 0, 55, 127
2, 113988, Note_off_c, 0, 55, 64
2, 114000, Note_on_c, 0, 43, 127
2, 114084, Note_off_c, 0, 72, 64
2, 114084, Note_off_c, 0, 64, 64
2, 114084, Note_off_c, 0, 67, 64
2, 114108, Note_off_c, 0, 43, 64
2, 114120, Note_on_c, 0, 67, 127
2, 114120, Note_on_c, 0, 72, 127
2, 114120, Note_on_c, 0, 55, 127
2, 114120, Note_on_c, 0, 64, 127
2, 114228, Note_off_c, 0, 64, 64
2, 114228, Note_off_c, 0, 55, 64
2, 114228, Note_off_c, 0, 72, 64
2, 114228, Note_off_c, 0, 67, 64
2, 114240, Note_on_c, 0, 43, 127
2, 114240, Note_on_c, 0, 72, 127
2, 114240, Note_on_c, 0, 65, 127
2, 114240, Note_on_c, 0, 62, 127
2, 114348, Note_off_c, 0, 72, 64
2, 114348, Note_off_c, 0, 43, 64
2, 114360, Note_on_c, 0, 55, 127
2, 114360, Note_on_c, 0, 71, 127
2, 114456, Note_off_c, 0, 62, 64
2, 114456, Note_off_c, 0, 65, 64
2, 114468, Note_off_c, 0, 71, 64
2, 114468, Note_off_c, 0, 55, 64
2, 114480, Note_on_c, 0, 43, 127
2, 114480, Note_on_c, 0, 62, 127
2, 114480, Note_on_c, 0, 69, 127
2, 114480, Note_on_c, 0, 65, 127
2, 114588, Note_off_c, 0, 69, 64
2, 114588, Note_off_c, 0, 43, 64
2, 114600, Note_on_c, 0, 55, 127
2, 114600, Note_on_c, 0, 67, 127
2, 114696, Note_off_c, 0, 65, 64
2, 114696, Note_off_c, 0, 62, 64
2, 114708, Note_off_c, 0, 67, 64
2, 114708, Note_off_c, 0, 55, 64
2, 114720, Note_on_c, 0, 72, 127
2, 114720, Note_on_c, 0, 64, 127
2, 114720, Note_on_c, 0, 48, 127
2, 114774, Note_off_c, 0, 48, 64
2, 114780, Note_on_c, 0, 60, 127
2, 114834, Note_off_c, 0, 60, 64
2, 114840, Note_on_c, 0, 55, 127
2, 114894, Note_off_c, 0, 55, 64
2, 114900, Note_on_c, 0, 60, 127
2, 114936, Note_off_c, 0, 64, 64
2, 114936, Note_off_c, 0, 72, 64
2, 114954, Note_off_c, 0, 60, 64
2, 114960, Note_on_c, 0, 52, 127
2, 115014, Note_off_c, 0, 52, 64
2, 115020, Note_on_c, 0, 60, 127
2, 115074, Note_off_c, 0, 60, 64
2, 115080, Note_on_c, 0, 48, 127
2, 115080, Note_on_c, 0, 55, 127
2, 115134, Note_off_c, 0, 55, 64
2, 115140, Note_on_c, 0, 60, 127
2, 115188, Note_off_c, 0, 48, 64
2, 115194, Note_off_c, 0, 60, 64
2, 115200, Note_on_c, 0, 53, 127
2, 115200, Note_on_c, 0, 48, 127
2, 115254, Note_off_c, 0, 53, 64
2, 115260, Note_on_c, 0, 62, 127
2, 115308, Note_off_c, 0, 48, 64
2, 115314, Note_off_c, 0, 62, 64
2, 115320, Note_on_c, 0, 55, 127
2, 115320, Note_on_c, 0, 47, 127
2, 115374, Note_off_c, 0, 55, 64
2, 115380, Note_on_c, 0, 62, 127
2, 115428, Note_off_c, 0, 47, 64
2, 115434, Note_off_c, 0, 62, 64
2, 115440, Note_on_c, 0, 53, 127
2, 115440, Note_on_c, 0, 45, 127
2, 115494, Note_off_c, 0, 53, 64
2, 115500, Note_on_c, 0, 62, 127
2, 115548, Note_off_c, 0, 45, 64
2, 115554, Note_off_c, 0, 62, 64
2, 115560, Note_on_c, 0, 55, 127
2, 115560, Note_on_c, 0, 47, 127
2, 115614, Note_off_c, 0, 55, 64
2, 115620, Note_on_c, 0, 62, 127
2, 115668, Note_off_c, 0, 47, 64
2, 115674, Note_off_c, 0, 62, 64
2, 115680, Note_on_c, 0, 48, 127
2, 115680, Note_on_c, 0, 52, 127
2, 115734, Note_off_c, 0, 52, 64
2, 115740, Note_on_c, 0, 60, 127
2, 115794, Note_off_c, 0, 60, 64
2, 115800, Note_on_c, 0, 55, 127
2, 115854, Note_off_c, 0, 55, 64
2, 115860, Note_on_c, 0, 60, 127
2, 115896, Note_off_c, 0, 48, 64
2, 115914, Note_off_c, 0, 60, 64
2, 115920, Note_on_c, 0, 52, 127
2, 115920, Note_on_c, 0, 43, 127
2, 115974, Note_off_c, 0, 52, 64
2, 115980, Note_on_c, 0, 60, 127
2, 116028, Note_off_c, 0, 43, 64
2, 116034, Note_off_c, 0, 60, 64
2, 116040, Note_on_c, 0, 72, 127
2, 116040, Note_on_c, 0, 55, 127
2, 116094, Note_off_c, 0, 55, 64
2, 116100, Note_on_c, 0, 60, 127
2, 116148, Note_off_c, 0, 72, 64
2, 116154, Note_off_c, 0, 60, 64
2, 116160, Note_on_c, 0, 53, 127
2, 116160, Note_on_c, 0, 72, 127
2, 116214, Note_off_c, 0, 53, 64
2, 116220, Note_on_c, 0, 62, 127
2, 116268, Note_off_c, 0, 72, 64
2, 116274, Note_off_c, 0, 62, 64
2, 116280, Note_on_c, 0, 55, 127
2, 116280, Note_on_c, 0, 71, 127
2, 116334, Note_off_c, 0, 55, 64
2, 116340, Note_on_c, 0, 62, 127
2, 116388, Note_off_c, 0, 71, 64
2, 116394, Note_off_c, 0, 62, 64
2, 116400, Note_on_c, 0, 53, 127
2, 116400, Note_on_c, 0, 69, 127
2, 116454, Note_off_c, 0, 53, 64
2, 116460, Note_on_c, 0, 62, 127
2, 116508, Note_off_c, 0, 69, 64
2, 116514, Note_off_c, 0, 62, 64
2, 116520, Note_on_c, 0, 55, 127
2, 116520, Note_on_c, 0, 71, 127
2, 116574, Note_off_c, 0, 55, 64
2, 116580, Note_on_c, 0, 62, 127
2, 116628, Note_off_c, 0, 71, 64
2, 116634, Note_off_c, 0, 62, 64
2, 116640, Note_on_c, 0, 52, 127
2, 116640, Note_on_c, 0, 72, 127
2, 116694, Note_off_c, 0, 52, 64
2, 116700, Note_on_c, 0, 60, 127
2, 116754, Note_off_c, 0, 60, 64
2, 116760, Note_on_c, 0, 55, 127
2, 116814, Note_off_c, 0, 55, 64
2, 116820, Note_on_c, 0, 60, 127
2, 116856, Note_off_c, 0, 72, 64
2, 116874, Note_off_c, 0, 60, 64
2, 116880, Note_on_c, 0, 67, 127
2, 116880, Note_on_c, 0, 52, 127
2, 116934, Note_off_c, 0, 52, 64
2, 116940, Note_on_c, 0, 60, 127
2, 116988, Note_off_c, 0, 67, 64
2, 116994, Note_off_c, 0, 60, 64
2, 117000, Note_on_c, 0, 55, 127
2, 117054, Note_off_c, 0, 55, 64
2, 117060, Note_on_c, 0, 60, 127
2, 117060, Note_on_c, 0, 48, 127
2, 117114, Note_off_c, 0, 48, 64
2, 117114, Note_off_c, 0, 60, 64
2, 117120, Note_on_c, 0, 48, 127
2, 117120, Note_on_c, 0, 53, 127
2, 117174, Note_off_c, 0, 53, 64
2, 117174, Note_off_c, 0, 48, 64
2, 117180, Note_on_c, 0, 62, 127
2, 117180, Note_on_c, 0, 47, 127
2, 117234, Note_off_c, 0, 47, 64
2, 117234, Note_off_c, 0, 62, 64
2, 117240, Note_on_c, 0, 52, 127
2, 117240, Note_on_c, 0, 55, 127
2, 117294, Note_off_c, 0, 55, 64
2, 117294, Note_off_c, 0, 52, 64
2, 117300, Note_on_c, 0, 62, 127
2, 117300, Note_on_c, 0, 50, 127
2, 117354, Note_off_c, 0, 50, 64
2, 117354, Note_off_c, 0, 62, 64
2, 117360, Note_on_c, 0, 53, 127
2, 117360, Note_on_c, 0, 48, 127
2, 117414, Note_off_c, 0, 48, 64
2, 117414, Note_off_c, 0, 53, 64
2, 117420, Note_on_c, 0, 62, 127
2, 117420, Note_on_c, 0, 47, 127
2, 117474, Note_off_c, 0, 47, 64
2, 117474, Note_off_c, 0, 62, 64
2, 117480, Note_on_c, 0, 55, 127
2, 117480, Note_on_c, 0, 45, 127
2, 117534, Note_off_c, 0, 45, 64
2, 117534, Note_off_c, 0, 55, 64
2, 117540, Note_on_c, 0, 62, 127
2, 117540, Note_on_c, 0, 43, 127
2, 117567, Note_off_c, 0, 43, 64
2, 117570, Note_on_c, 0, 43, 127
2, 117594, Note_off_c, 0, 62, 64
2, 117597, Note_off_c, 0, 43, 64
2, 117600, Note_on_c, 0, 52, 127
2, 117600, Note_on_c, 0, 48, 127
2, 117654, Note_off_c, 0, 52, 64
2, 117660, Note_on_c, 0, 60, 127
2, 117714, Note_off_c, 0, 60, 64
2, 117720, Note_on_c, 0, 55, 127
2, 117774, Note_off_c, 0, 55, 64
2, 117780, Note_on_c, 0, 60, 127
2, 117816, Note_off_c, 0, 48, 64
2, 117834, Note_off_c, 0, 60, 64
2, 117840, Note_on_c, 0, 43, 127
2, 117840, Note_on_c, 0, 52, 127
2, 117894, Note_off_c, 0, 52, 64
2, 117900, Note_on_c, 0, 60, 127
2, 117948, Note_off_c, 0, 43, 64
2, 117954, Note_off_c, 0, 60, 64
2, 117960, Note_on_c, 0, 55, 127
2, 118014, Note_off_c, 0, 55, 64
2, 118020, Note_on_c, 0, 60, 127
2, 118020, Note_on_c, 0, 72, 127
2, 118074, Note_off_c, 0, 72, 64
2, 118074, Note_off_c, 0, 60, 64
2, 118080, Note_on_c, 0, 72, 127
2, 118080, Note_on_c, 0, 53, 127
2, 118134, Note_off_c, 0, 53, 64
2, 118134, Note_off_c, 0, 72, 64
2, 118140, Note_on_c, 0, 62, 127
2, 118140, Note_on_c, 0, 71, 127
2, 118194, Note_off_c, 0, 71, 64
2, 118194, Note_off_c, 0, 62, 64
2, 118200, Note_on_c, 0, 76, 127
2, 118200, Note_on_c, 0, 55, 127
2, 118254, Note_off_c, 0, 55, 64
2, 118254, Note_off_c, 0, 76, 64
2, 118260, Note_on_c, 0, 62, 127
2, 118260, Note_on_c, 0, 74, 127
2, 118314, Note_off_c, 0, 74, 64
2, 118314, Note_off_c, 0, 62, 64
2, 118320, Note_on_c, 0, 53, 127
2, 118320, Note_on_c, 0, 72, 127
2, 118374, Note_off_c, 0, 72, 64
2, 118374, Note_off_c, 0, 53, 64
2, 118380, Note_on_c, 0, 62, 127
2, 118380, Note_on_c, 0, 71, 127
2, 118434, Note_off_c, 0, 71, 64
2, 118434, Note_off_c, 0, 62, 64
2, 118440, Note_on_c, 0, 55, 127
2, 118440, Note_on_c, 0, 69, 127
2, 118494, Note_off_c, 0, 69, 64
2, 118494, Note_off_c, 0, 55, 64
2, 118500, Note_on_c, 0, 62, 127
2, 118500, Note_on_c, 0, 67, 127
2, 118527, Note_off_c, 0, 67, 64
2, 118530, Note_on_c, 0, 67, 127
2, 118554, Note_off_c, 0, 62, 64
2, 118557, Note_off_c, 0, 67, 64
2, 118560, Note_on_c, 0, 52, 127
2, 118560, Note_on_c, 0, 72, 127
2, 118614, Note_off_c, 0, 52, 64
2, 118620, Note_on_c, 0, 60, 127
2, 118674, Note_off_c, 0, 60, 64
2, 118680, Note_on_c, 0, 55, 127
2, 118734, Note_off_c, 0, 55, 64
2, 118740, Note_on_c, 0, 60, 127
2, 118776, Note_off_c, 0, 72, 64
2, 118794, Note_off_c, 0, 60, 64
2, 118800, Note_on_c, 0, 67, 127
2, 118800, Note_on_c, 0, 52, 127
2, 118854, Note_off_c, 0, 52, 64
2, 118860, Note_on_c, 0, 60, 127
2, 118908, Note_off_c, 0, 67, 64
2, 118914, Note_off_c, 0, 60, 64
2, 118920, Note_on_c, 0, 55, 127
2, 118974, Note_off_c, 0, 55, 64
2, 118980, Note_on_c, 0, 60, 127
2, 118980, Note_on_c, 0, 48, 127
2, 119034, Note_off_c, 0, 48, 64
2, 119034, Note_off_c, 0, 60, 64
2, 119040, Note_on_c, 0, 48, 127
2, 119040, Note_on_c, 0, 53, 127
2, 119094, Note_off_c, 0, 53, 64
2, 119094, Note_off_c, 0, 48, 64
2, 119100, Note_on_c, 0, 62, 127
2, 119100, Note_on_c, 0, 47, 127
2, 119154, Note_off_c, 0, 47, 64
2, 119154, Note_off_c, 0, 62, 64
2, 119160, Note_on_c, 0, 52, 127
2, 119160, Note_on_c, 0, 55, 127
2, 119214, Note_off_c, 0, 55, 64
2, 119214, Note_off_c, 0, 52, 64
2, 119220, Note_on_c, 0, 62, 127
2, 119220, Note_on_c, 0, 50, 127
2, 119274, Note_off_c, 0, 50, 64
2, 119274, Note_off_c, 0, 62, 64
2, 119280, Note_on_c, 0, 53, 127
2, 119280, Note_on_c, 0, 48, 127
2, 119334, Note_off_c, 0, 48, 64
2, 119334, Note_off_c, 0, 53, 64
2, 119340, Note_on_c, 0, 62, 127
2, 119340, Note_on_c, 0, 47, 127
2, 119394, Note_off_c, 0, 47, 64
2, 119394, Note_off_c, 0, 62, 64
2, 119400, Note_on_c, 0, 55, 127
2, 119400, Note_on_c, 0, 45, 127
2, 119454, Note_off_c, 0, 45, 64
2, 119454, Note_off_c, 0, 55, 64
2, 119460, Note_on_c, 0, 62, 127
2, 119460, Note_on_c, 0, 43, 127
2, 119514, Note_off_c, 0, 43, 64
2, 119514, Note_off_c, 0, 62, 64
2, 119520, Note_on_c, 0, 52, 127
2, 119520, Note_on_c, 0, 48, 127
2, 119574, Note_off_c, 0, 52, 64
2, 119580, Note_on_c, 0, 60, 127
2, 119634, Note_off_c, 0, 60, 64
2, 119640, Note_on_c, 0, 55, 127
2, 119694, Note_off_c, 0, 55, 64
2, 119700, Note_on_c, 0, 60, 127
2, 119736, Note_off_c, 0, 48, 64
2, 119754, Note_off_c, 0, 60, 64
2, 119760, Note_on_c, 0, 52, 127
2, 119760, Note_on_c, 0, 49, 127
2, 119814, Note_off_c, 0, 52, 64
2, 119820, Note_on_c, 0, 58, 127
2, 119874, Note_off_c, 0, 58, 64
2, 119880, Note_on_c, 0, 55, 127
2, 119934, Note_off_c, 0, 55, 64
2, 119940, Note_on_c, 0, 58, 127
2, 119976, Note_off_c, 0, 49, 64
2, 119994, Note_off_c, 0, 58, 64
2, 120000, Note_on_c, 0, 53, 127
2, 120000, Note_on_c, 0, 50, 127
2, 120054, Note_off_c, 0, 53, 64
2, 120060, Note_on_c, 0, 57, 127
2, 120114, Note_off_c, 0, 57, 64
2, 120120, Note_on_c, 0, 56, 127
2, 120174, Note_off_c, 0, 56, 64
2, 120180, Note_on_c, 0, 57, 127
2, 120216, Note_off_c, 0, 50, 64
2, 120234, Note_off_c, 0, 57, 64
2, 120240, Note_on_c, 0, 54, 127
2, 120240, Note_on_c, 0, 51, 127
2, 120294, Note_off_c, 0, 54, 64
2, 120300, Note_on_c, 0, 57, 127
2, 120354, Note_off_c, 0, 57, 64
2, 120360, Note_on_c, 0, 59, 127
2, 120414, Note_off_c, 0, 59, 64
2, 120420, Note_on_c, 0, 57, 127
2, 120456, Note_off_c, 0, 51, 64
2, 120474, Note_off_c, 0, 57, 64
2, 120480, Note_on_c, 0, 55, 127
2, 120480, Note_on_c, 0, 52, 127
2, 120534, Note_off_c, 0, 55, 64
2, 120540, Note_on_c, 0, 59, 127
2, 120594, Note_off_c, 0, 59, 64
2, 120600, Note_on_c, 0, 57, 127
2, 120654, Note_off_c, 0, 57, 64
2, 120660, Note_on_c, 0, 59, 127
2, 120696, Note_off_c, 0, 52, 64
2, 120714, Note_off_c, 0, 59, 64
2, 120720, Note_on_c, 0, 55, 127
2, 120720, Note_on_c, 0, 52, 127
2, 120774, Note_off_c, 0, 55, 64
2, 120780, Note_on_c, 0, 58, 127
2, 120834, Note_off_c, 0, 58, 64
2, 120840, Note_on_c, 0, 60, 127
2, 120894, Note_off_c, 0, 60, 64
2, 120900, Note_on_c, 0, 58, 127
2, 120936, Note_off_c, 0, 52, 64
2, 120954, Note_off_c, 0, 58, 64
2, 120960, Note_on_c, 0, 57, 127
2, 120960, Note_on_c, 0, 53, 127
2, 121014, Note_off_c, 0, 57, 64
2, 121020, Note_on_c, 0, 60, 127
2, 121074, Note_off_c, 0, 60, 64
2, 121080, Note_on_c, 0, 59, 127
2, 121134, Note_off_c, 0, 59, 64
2, 121140, Note_on_c, 0, 60, 127
2, 121176, Note_off_c, 0, 53, 64
2, 121194, Note_off_c, 0, 60, 64
2, 121200, Note_on_c, 0, 57, 127
2, 121200, Note_on_c, 0, 54, 127
2, 121254, Note_off_c, 0, 57, 64
2, 121260, Note_on_c, 0, 60, 127
2, 121314, Note_off_c, 0, 60, 64
2, 121320, Note_on_c, 0, 62, 127
2, 121374, Note_off_c, 0, 62, 64
2, 121380, Note_on_c, 0, 60, 127
2, 121416, Note_off_c, 0, 54, 64
2, 121434, Note_off_c, 0, 60, 64
2, 121440, Note_on_c, 0, 64, 127
2, 121440, Note_on_c, 0, 60, 127
2, 121440, Note_on_c, 0, 55, 127
2, 121476, Note_off_c, 0, 55, 64
2, 121480, Note_on_c, 0, 56, 127
2, 121516, Note_off_c, 0, 56, 64
2, 121520, Note_on_c, 0, 57, 127
2, 121556, Note_off_c, 0, 57, 64
2, 121560, Note_on_c, 0, 58, 127
2, 121596, Note_off_c, 0, 58, 64
2, 121600, Note_on_c, 0, 59, 127
2, 121636, Note_off_c, 0, 59, 64
2, 121640, Note_on_c, 0, 60, 127
2, 121656, Note_off_c, 0, 60, 64
2, 121656, Note_off_c, 0, 64, 64
2, 121676, Note_off_c, 0, 60, 64
2, 121680, Note_on_c, 0, 61, 127
2, 121716, Note_off_c, 0, 61, 64
2, 121720, Note_on_c, 0, 62, 127
2, 121756, Note_off_c, 0, 62, 64
2, 121760, Note_on_c, 0, 63, 127
2, 121796, Note_off_c, 0, 63, 64
2, 121800, Note_on_c, 0, 64, 127
2, 121836, Note_off_c, 0, 64, 64
2, 121840, Note_on_c, 0, 65, 127
2, 121876, Note_off_c, 0, 65, 64
2, 121880, Note_on_c, 0, 66, 127
2, 121916, Note_off_c, 0, 66, 64
2, 121920, Note_on_c, 0, 67, 127
2, 121956, Note_off_c, 0, 67, 64
2, 121960, Note_on_c, 0, 68, 127
2, 121996, Note_off_c, 0, 68, 64
2, 122000, Note_on_c, 0, 69, 127
2, 122036, Note_off_c, 0, 69, 64
2, 122040, Note_on_c, 0, 70, 127
2, 122076, Note_off_c, 0, 70, 64
2, 122080, Note_on_c, 0, 71, 127
2, 122116, Note_off_c, 0, 71, 64
2, 122120, Note_on_c, 0, 72, 127
2, 122156, Note_off_c, 0, 72, 64
2, 122160, Note_on_c, 0, 73, 127
2, 122196, Note_off_c, 0, 73, 64
2, 122200, Note_on_c, 0, 74, 127
2, 122236, Note_off_c, 0, 74, 64
2, 122240, Note_on_c, 0, 75, 127
2, 122276, Note_off_c, 0, 75, 64
2, 122280, Note_on_c, 0, 76, 127
2, 122316, Note_off_c, 0, 76, 64
2, 122320, Note_on_c, 0, 77, 127
2, 122356, Note_off_c, 0, 77, 64
2, 122360, Note_on_c, 0, 78, 127
2, 122396, Note_off_c, 0, 78, 64
2, 122400, Note_on_c, 0, 79, 127
2, 122423, Note_off_c, 0, 79, 64
2, 122426, Note_on_c, 0, 80, 127
2, 122449, Note_off_c, 0, 80, 64
2, 122452, Note_on_c, 0, 81, 127
2, 122475, Note_off_c, 0, 81, 64
2, 122478, Note_on_c, 0, 82, 127
2, 122501, Note_off_c, 0, 82, 64
2, 122504, Note_on_c, 0, 83, 127
2, 122527, Note_off_c, 0, 83, 64
2, 122530, Note_on_c, 0, 84, 127
2, 122553, Note_off_c, 0, 84, 64
2, 122556, Note_on_c, 0, 85, 127
2, 122579, Note_off_c, 0, 85, 64
2, 122582, Note_on_c, 0, 86, 127
2, 122605, Note_off_c, 0, 86, 64
2, 122608, Note_on_c, 0, 87, 127
2, 122631, Note_off_c, 0, 87, 64
2, 122634, Note_on_c, 0, 88, 127
2, 122742, Note_off_c, 0, 88, 64
2, 122754, Note_on_c, 0, 86, 127
2, 122862, Note_off_c, 0, 86, 64
2, 122874, Note_on_c, 0, 84, 127
2, 122982, Note_off_c, 0, 84, 64
2, 122994, Note_on_c, 0, 83, 127
2, 123102, Note_off_c, 0, 83, 64
2, 123114, Note_on_c, 0, 81, 127
2, 123222, Note_off_c, 0, 81, 64
2, 123234, Note_on_c, 0, 79, 127
2, 123342, Note_off_c, 0, 79, 64
2, 123360, Note_on_c, 0, 77, 127
2, 123468, Note_off_c, 0, 77, 64
2, 123480, Note_on_c, 0, 76, 127
2, 123588, Note_off_c, 0, 76, 64
2, 123600, Note_on_c, 0, 74, 127
2, 123708, Note_off_c, 0, 74, 64
2, 123720, Note_on_c, 0, 72, 127
2, 123828, Note_off_c, 0, 72, 64
2, 123840, Note_on_c, 0, 71, 127
2, 123948, Note_off_c, 0, 71, 64
2, 123960, Note_on_c, 0, 69, 127
2, 124068, Note_off_c, 0, 69, 64
2, 124080, Note_on_c, 0, 67, 127
2, 124188, Note_off_c, 0, 67, 64
2, 124200, Note_on_c, 0, 66, 127
2, 124308, Note_off_c, 0, 66, 64
2, 124320, Note_on_c, 0, 48, 127
2, 124320, Note_on_c, 0, 67, 127
2, 124320, Note_on_c, 0, 52, 127
2, 124320, Note_on_c, 0, 43, 127
2, 124428, Note_off_c, 0, 67, 64
2, 124440, Note_on_c, 0, 72, 127
2, 124548, Note_off_c, 0, 72, 64
2, 124560, Note_on_c, 0, 76, 127
2, 124668, Note_off_c, 0, 76, 64
2, 124680, Note_on_c, 0, 79, 127
2, 124752, Note_off_c, 0, 43, 64
2, 124752, Note_off_c, 0, 52, 64
2, 124752, Note_off_c, 0, 48, 64
2, 124800, Note_on_c, 0, 53, 127
2, 124800, Note_on_c, 0, 43, 127
2, 124800, Note_on_c, 0, 50, 127
2, 124908, Note_off_c, 0, 79, 64
2, 124920, Note_on_c, 0, 77, 127
2, 125028, Note_off_c, 0, 77, 64
2, 125040, Note_on_c, 0, 74, 127
2, 125148, Note_off_c, 0, 74, 64
2, 125160, Note_on_c, 0, 71, 127
2, 125232, Note_off_c, 0, 50, 64
2, 125232, Note_off_c, 0, 43, 64
2, 125232, Note_off_c, 0, 53, 64
2, 125268, Note_off_c, 0, 71, 64
2, 125280, Note_on_c, 0, 48, 127
2, 125280, Note_on_c, 0, 52, 127
2, 125280, Note_on_c, 0, 72, 127
2, 125496, Note_off_c, 0, 72, 64
2, 125496, Note_off_c, 0, 52, 64
2, 125496, Note_off_c, 0, 48, 64
2, 125700, Note_on_c, 0, 55, 127
2, 125754, Note_off_c, 0, 55, 64
2, 125760, Note_on_c, 0, 60, 127
2, 125760, Note_on_c, 0, 64, 127
2, 125976, Note_off_c, 0, 64, 64
2, 125976, Note_off_c, 0, 60, 64
2, 126000, Note_on_c, 0, 64, 127
2, 126000, Note_on_c, 0, 60, 127
2, 126180, Note_on_c, 0, 67, 127
2, 126216, Note_off_c, 0, 60, 64
2, 126216, Note_off_c, 0, 64, 64
2, 126234, Note_off_c, 0, 67, 64
2, 126240, Note_on_c, 0, 64, 127
2, 126240, Note_on_c, 0, 60, 127
2, 126240, Note_on_c, 0, 79, 127
2, 126348, Note_off_c, 0, 60, 64
2, 126348, Note_off_c, 0, 64, 64
2, 126360, Note_on_c, 0, 59, 127
2, 126360, Note_on_c, 0, 62, 127
2, 126468, Note_off_c, 0, 62, 64
2, 126468, Note_off_c, 0, 59, 64
2, 126480, Note_on_c, 0, 58, 127
2, 126480, Note_on_c, 0, 61, 127
2, 126588, Note_off_c, 0, 61, 64
2, 126588, Note_off_c, 0, 58, 64
2, 126600, Note_on_c, 0, 62, 127
2, 126600, Note_on_c, 0, 59, 127
2, 126672, Note_off_c, 0, 79, 64
2, 126681, Note_off_c, 0, 59, 64
2, 126681, Note_off_c, 0, 62, 64
2, 126690, Note_on_c, 0, 55, 127
2, 126717, Note_off_c, 0, 55, 64
2, 126720, Note_on_c, 0, 65, 127
2, 126720, Note_on_c, 0, 62, 127
2, 126936, Note_off_c, 0, 62, 64
2, 126936, Note_off_c, 0, 65, 64
2, 126960, Note_on_c, 0, 62, 127
2, 126960, Note_on_c, 0, 65, 127
2, 127140, Note_on_c, 0, 67, 127
2, 127176, Note_off_c, 0, 65, 64
2, 127176, Note_off_c, 0, 62, 64
2, 127194, Note_off_c, 0, 67, 64
2, 127200, Note_on_c, 0, 65, 127
2, 127200, Note_on_c, 0, 62, 127
2, 127200, Note_on_c, 0, 79, 127
2, 127308, Note_off_c, 0, 62, 64
2, 127308, Note_off_c, 0, 65, 64
2, 127320, Note_on_c, 0, 64, 127
2, 127320, Note_on_c, 0, 60, 127
2, 127428, Note_off_c, 0, 60, 64
2, 127428, Note_off_c, 0, 64, 64
2, 127440, Note_on_c, 0, 59, 127
2, 127440, Note_on_c, 0, 63, 127
2, 127548, Note_off_c, 0, 63, 64
2, 127548, Note_off_c, 0, 59, 64
2, 127560, Note_on_c, 0, 64, 127
2, 127560, Note_on_c, 0, 60, 127
2, 127632, Note_off_c, 0, 79, 64
2, 127668, Note_off_c, 0, 60, 64
2, 127668, Note_off_c, 0, 64, 64
2, 127680, Note_on_c, 0, 61, 127
2, 127680, Note_on_c, 0, 52, 127
2, 127680, Note_on_c, 0, 70, 127
2, 127680, Note_on_c, 0, 79, 127
2, 127896, Note_off_c, 0, 79, 64
2, 127896, Note_off_c, 0, 70, 64
2, 127896, Note_off_c, 0, 52, 64
2, 127896, Note_off_c, 0, 61, 64
2, 127920, Note_on_c, 0, 52, 127
2, 127920, Note_on_c, 0, 61, 127
2, 127920, Note_on_c, 0, 79, 127
2, 127920, Note_on_c, 0, 70, 127
2, 128136, Note_off_c, 0, 70, 64
2, 128136, Note_off_c, 0, 79, 64
2, 128136, Note_off_c, 0, 61, 64
2, 128136, Note_off_c, 0, 52, 64
2, 128160, Note_on_c, 0, 61, 127
2, 128160, Note_on_c, 0, 79, 127
2, 128160, Note_on_c, 0, 69, 127
2, 128160, Note_on_c, 0, 53, 127
2, 128268, Note_off_c, 0, 79, 64
2, 128268, Note_off_c, 0, 61, 64
2, 128280, Note_on_c, 0, 77, 127
2, 128280, Note_on_c, 0, 62, 127
2, 128388, Note_off_c, 0, 62, 64
2, 128388, Note_off_c, 0, 77, 64
2, 128400, Note_on_c, 0, 76, 127
2, 128400, Note_on_c, 0, 64, 127
2, 128508, Note_off_c, 0, 64, 64
2, 128508, Note_off_c, 0, 76, 64
2, 128520, Note_on_c, 0, 74, 127
2, 128520, Note_on_c, 0, 65, 127
2, 128592, Note_off_c, 0, 53, 64
2, 128592, Note_off_c, 0, 69, 64
2, 128628, Note_off_c, 0, 65, 64
2, 128628, Note_off_c, 0, 74, 64
2, 128640, Note_on_c, 0, 64, 127
2, 128640, Note_on_c, 0, 67, 127
2, 128640, Note_on_c, 0, 72, 127
2, 128640, Note_on_c, 0, 55, 127
2, 128748, Note_off_c, 0, 55, 64
2, 128748, Note_off_c, 0, 72, 64
2, 128748, Note_off_c, 0, 67, 64
2, 128748, Note_off_c, 0, 64, 64
2, 128880, Note_on_c, 0, 43, 127
2, 128880, Note_on_c, 0, 71, 127
2, 128880, Note_on_c, 0, 65, 127
2, 128880, Note_on_c, 0, 62, 127
2, 128880, Note_on_c, 0, 67, 127
2, 128880, Note_on_c, 0, 55, 127
2, 128988, Note_off_c, 0, 55, 64
2, 128988, Note_off_c, 0, 67, 64
2, 128988, Note_off_c, 0, 62, 64
2, 128988, Note_off_c, 0, 65, 64
2, 128988, Note_off_c, 0, 71, 64
2, 128988, Note_off_c, 0, 43, 64
2, 129120, Note_on_c, 0, 48, 127
2, 129120, Note_on_c, 0, 36, 127
2, 129120, Note_on_c, 0, 72, 127
2, 129120, Note_on_c, 0, 67, 127
2, 129120, Note_on_c, 0, 64, 127
2, 129336, Note_off_c, 0, 64, 64
2, 129336, Note_off_c, 0, 67, 64
2, 129336, Note_off_c, 0, 72, 64
2, 129336, Note_off_c, 0, 36, 64
2, 129336, Note_off_c, 0, 48, 64
2, 129336, End_track
0, 0, End_of_file