0, 0, Header, 1, 3, 192
1, 0, Start_track
1, 0, Title_t, "Piano Sonata No 17 in D minor, opus 31/2 , ""Tempest"""
1, 0, Text_t, "By Ludwig van Beethoven (1770-1827)"
1, 0, Copyright_t, "All Rights Reserved"
1, 0, Text_t, "Generated by NoteWorthy Composer"
1, 0, Tempo, 2000000
1, 0, Key_signature, -1, "major"
1, 0, Time_signature, 4, 2, 24, 8
1, 1728, Tempo, 240000
1, 4224, Tempo, 1090909
1, 4992, Tempo, 2000000
1, 6720, Tempo, 240000
1, 71424, Tempo, 2000000
1, 73152, Tempo, 240000
1, 75648, Tempo, 1090909
1, 76416, Tempo, 2000000
1, 78144, Tempo, 240000
1, 142848, Tempo, 1500000
1, 148704, Tempo, 250000
1, 182496, Tempo, 2000000
1, 186912, Tempo, 240000
1, 189408, Tempo, 1090909
1, 190176, Tempo, 2000000
1, 195168, Tempo, 240000
1, 248928, Tempo, 400000
1, 252000, Tempo, 1500000
1, 252000, Key_signature, -2, "major"
1, 252000, Time_signature, 3, 2, 24, 8
1, 311520, Tempo, 400000
1, 313824, Tempo, 555555
1, 313824, Key_signature, -1, "major"
1, 313824, Time_signature, 3, 3, 24, 8
1, 313824, End_track
2, 0, Start_track
2, 0, MIDI_port, 0
2, 0, Title_t, "Right Hand"
2, 0, Program_c, 0, 0
2, 0, Control_c, 0, 7, 127
2, 0, Control_c, 0, 10, 64
2, 768, Note_on_c, 0, 61, 30
2, 816, Note_on_c, 0, 61, 0
2, 960, Note_on_c, 0, 64, 30
2, 1008, Note_on_c, 0, 64, 0
2, 1152, Note_on_c, 0, 69, 30
2, 1824, Note_on_c, 0, 69, 0
2, 1824, Note_on_c, 0, 67, 45
2, 1918, Note_on_c, 0, 67, 0
2, 1920, Note_on_c, 0, 67, 45
2, 2016, Note_on_c, 0, 67, 0
2, 2016, Note_on_c, 0, 65, 45
2, 2110, Note_on_c, 0, 65, 0
2, 2112, Note_on_c, 0, 65, 45
2, 2208, Note_on_c, 0, 65, 0
2, 2208, Note_on_c, 0, 64, 45
2, 2302, Note_on_c, 0, 64, 0
2, 2304, Note_on_c, 0, 64, 45
2, 2400, Note_on_c, 0, 64, 0
2, 2400, Note_on_c, 0, 62, 45
2, 2494, Note_on_c, 0, 62, 0
2, 2496, Note_on_c, 0, 69, 45
2, 2592, Note_on_c, 0, 69, 0
2, 2592, Note_on_c, 0, 67, 45
2, 2686, Note_on_c, 0, 67, 0
2, 2688, Note_on_c, 0, 67, 45
2, 2784, Note_on_c, 0, 67, 0
2, 2784, Note_on_c, 0, 65, 45
2, 2878, Note_on_c, 0, 65, 0
2, 2880, Note_on_c, 0, 65, 45
2, 2976, Note_on_c, 0, 65, 0
2, 2976, Note_on_c, 0, 64, 45
2, 3070, Note_on_c, 0, 64, 0
2, 3072, Note_on_c, 0, 64, 45
2, 3168, Note_on_c, 0, 64, 0
2, 3168, Note_on_c, 0, 62, 45
2, 3262, Note_on_c, 0, 62, 0
2, 3264, Note_on_c, 0, 74, 45
2, 3360, Note_on_c, 0, 74, 0
2, 3360, Note_on_c, 0, 72, 45
2, 3454, Note_on_c, 0, 72, 0
2, 3456, Note_on_c, 0, 72, 45
2, 3552, Note_on_c, 0, 72, 0
2, 3552, Note_on_c, 0, 70, 45
2, 3646, Note_on_c, 0, 70, 0
2, 3648, Note_on_c, 0, 70, 45
2, 3744, Note_on_c, 0, 70, 0
2, 3744, Note_on_c, 0, 69, 45
2, 3838, Note_on_c, 0, 69, 0
2, 3840, Note_on_c, 0, 69, 45
2, 3936, Note_on_c, 0, 69, 0
2, 3936, Note_on_c, 0, 67, 45
2, 4030, Note_on_c, 0, 67, 0
2, 4032, Note_on_c, 0, 67, 45
2, 4128, Note_on_c, 0, 67, 0
2, 4128, Note_on_c, 0, 68, 45
2, 4222, Note_on_c, 0, 68, 0
2, 4224, Note_on_c, 0, 65, 63
2, 4224, Note_on_c, 0, 68, 63
2, 4320, Note_on_c, 0, 68, 0
2, 4320, Note_on_c, 0, 69, 45
2, 4352, Note_on_c, 0, 69, 0
2, 4352, Note_on_c, 0, 68, 45
2, 4384, Note_on_c, 0, 65, 0
2, 4384, Note_on_c, 0, 68, 0
2, 4384, Note_on_c, 0, 66, 45
2, 4416, Note_on_c, 0, 66, 0
2, 4416, Note_on_c, 0, 68, 45
2, 4510, Note_on_c, 0, 68, 0
2, 4512, Note_on_c, 0, 71, 45
2, 4560, Note_on_c, 0, 71, 0
2, 4560, Note_on_c, 0, 69, 45
2, 4606, Note_on_c, 0, 69, 0
2, 4608, Note_on_c, 0, 64, 45
2, 4608, Note_on_c, 0, 69, 45
2, 4944, Note_on_c, 0, 64, 0
2, 4944, Note_on_c, 0, 69, 0
2, 5760, Note_on_c, 0, 64, 30
2, 5808, Note_on_c, 0, 64, 0
2, 5952, Note_on_c, 0, 67, 30
2, 6000, Note_on_c, 0, 67, 0
2, 6144, Note_on_c, 0, 72, 30
2, 6672, Note_on_c, 0, 72, 0
2, 6720, Note_on_c, 0, 72, 45
2, 6814, Note_on_c, 0, 72, 0
2, 6816, Note_on_c, 0, 70, 45
2, 6910, Note_on_c, 0, 70, 0
2, 6912, Note_on_c, 0, 70, 45
2, 7008, Note_on_c, 0, 70, 0
2, 7008, Note_on_c, 0, 68, 46
2, 7102, Note_on_c, 0, 68, 0
2, 7104, Note_on_c, 0, 68, 47
2, 7200, Note_on_c, 0, 68, 0
2, 7200, Note_on_c, 0, 69, 48
2, 7294, Note_on_c, 0, 69, 0
2, 7296, Note_on_c, 0, 69, 49
2, 7392, Note_on_c, 0, 69, 0
2, 7392, Note_on_c, 0, 74, 50
2, 7486, Note_on_c, 0, 74, 0
2, 7488, Note_on_c, 0, 74, 51
2, 7584, Note_on_c, 0, 74, 0
2, 7584, Note_on_c, 0, 72, 52
2, 7678, Note_on_c, 0, 72, 0
2, 7680, Note_on_c, 0, 72, 53
2, 7776, Note_on_c, 0, 72, 0
2, 7776, Note_on_c, 0, 69, 54
2, 7870, Note_on_c, 0, 69, 0
2, 7872, Note_on_c, 0, 69, 55
2, 7968, Note_on_c, 0, 69, 0
2, 7968, Note_on_c, 0, 70, 56
2, 8062, Note_on_c, 0, 70, 0
2, 8064, Note_on_c, 0, 70, 57
2, 8160, Note_on_c, 0, 70, 0
2, 8160, Note_on_c, 0, 75, 58
2, 8254, Note_on_c, 0, 75, 0
2, 8256, Note_on_c, 0, 75, 59
2, 8352, Note_on_c, 0, 75, 0
2, 8352, Note_on_c, 0, 74, 60
2, 8446, Note_on_c, 0, 74, 0
2, 8448, Note_on_c, 0, 70, 61
2, 8544, Note_on_c, 0, 70, 0
2, 8544, Note_on_c, 0, 70, 62
2, 8638, Note_on_c, 0, 70, 0
2, 8640, Note_on_c, 0, 70, 64
2, 8736, Note_on_c, 0, 70, 0
2, 8736, Note_on_c, 0, 82, 66
2, 8830, Note_on_c, 0, 82, 0
2, 8832, Note_on_c, 0, 82, 68
2, 8928, Note_on_c, 0, 82, 0
2, 8928, Note_on_c, 0, 76, 70
2, 9022, Note_on_c, 0, 76, 0
2, 9024, Note_on_c, 0, 76, 72
2, 9120, Note_on_c, 0, 76, 0
2, 9120, Note_on_c, 0, 85, 74
2, 9214, Note_on_c, 0, 85, 0
2, 9216, Note_on_c, 0, 85, 76
2, 9312, Note_on_c, 0, 85, 0
2, 9312, Note_on_c, 0, 77, 78
2, 9406, Note_on_c, 0, 77, 0
2, 9408, Note_on_c, 0, 77, 80
2, 9504, Note_on_c, 0, 77, 0
2, 9504, Note_on_c, 0, 86, 82
2, 9598, Note_on_c, 0, 86, 0
2, 9600, Note_on_c, 0, 86, 84
2, 9696, Note_on_c, 0, 86, 0
2, 9696, Note_on_c, 0, 77, 86
2, 9790, Note_on_c, 0, 77, 0
2, 9792, Note_on_c, 0, 77, 88
2, 9888, Note_on_c, 0, 77, 0
2, 9888, Note_on_c, 0, 89, 90
2, 9982, Note_on_c, 0, 89, 0
2, 9984, Note_on_c, 0, 89, 92
2, 10080, Note_on_c, 0, 89, 0
2, 10080, Note_on_c, 0, 85, 92
2, 10174, Note_on_c, 0, 85, 0
2, 10176, Note_on_c, 0, 85, 92
2, 10272, Note_on_c, 0, 85, 0
2, 10272, Note_on_c, 0, 86, 92
2, 10366, Note_on_c, 0, 86, 0
2, 10368, Note_on_c, 0, 86, 92
2, 10464, Note_on_c, 0, 86, 0
2, 10464, Note_on_c, 0, 80, 92
2, 10558, Note_on_c, 0, 80, 0
2, 10560, Note_on_c, 0, 80, 92
2, 10656, Note_on_c, 0, 80, 0
2, 10656, Note_on_c, 0, 81, 92
2, 10750, Note_on_c, 0, 81, 0
2, 10752, Note_on_c, 0, 81, 92
2, 10848, Note_on_c, 0, 81, 0
2, 10848, Note_on_c, 0, 76, 92
2, 10942, Note_on_c, 0, 76, 0
2, 10944, Note_on_c, 0, 76, 92
2, 11040, Note_on_c, 0, 76, 0
2, 11040, Note_on_c, 0, 77, 92
2, 11134, Note_on_c, 0, 77, 0
2, 11136, Note_on_c, 0, 77, 92
2, 11232, Note_on_c, 0, 77, 0
2, 11232, Note_on_c, 0, 73, 92
2, 11326, Note_on_c, 0, 73, 0
2, 11328, Note_on_c, 0, 73, 92
2, 11424, Note_on_c, 0, 73, 0
2, 11424, Note_on_c, 0, 74, 92
2, 11518, Note_on_c, 0, 74, 0
2, 11520, Note_on_c, 0, 74, 92
2, 11616, Note_on_c, 0, 74, 0
2, 11616, Note_on_c, 0, 68, 92
2, 11710, Note_on_c, 0, 68, 0
2, 11712, Note_on_c, 0, 68, 92
2, 11808, Note_on_c, 0, 68, 0
2, 11808, Note_on_c, 0, 69, 92
2, 11902, Note_on_c, 0, 69, 0
2, 11904, Note_on_c, 0, 69, 92
2, 12000, Note_on_c, 0, 69, 0
2, 12000, Note_on_c, 0, 64, 92
2, 12094, Note_on_c, 0, 64, 0
2, 12096, Note_on_c, 0, 64, 92
2, 12192, Note_on_c, 0, 64, 0
2, 12192, Note_on_c, 0, 65, 92
2, 12286, Note_on_c, 0, 65, 0
2, 12288, Note_on_c, 0, 65, 92
2, 12384, Note_on_c, 0, 65, 0
2, 12384, Note_on_c, 0, 61, 92
2, 12478, Note_on_c, 0, 61, 0
2, 12480, Note_on_c, 0, 61, 92
2, 12576, Note_on_c, 0, 61, 0
2, 12576, Note_on_c, 0, 62, 92
2, 12670, Note_on_c, 0, 62, 0
2, 12672, Note_on_c, 0, 62, 92
2, 12768, Note_on_c, 0, 62, 0
2, 12768, Note_on_c, 0, 58, 92
2, 12862, Note_on_c, 0, 58, 0
2, 12864, Note_on_c, 0, 58, 127
2, 12960, Note_on_c, 0, 58, 0
2, 12960, Note_on_c, 0, 57, 92
2, 13054, Note_on_c, 0, 57, 0
2, 13056, Note_on_c, 0, 57, 92
2, 13152, Note_on_c, 0, 57, 0
2, 13152, Note_on_c, 0, 61, 92
2, 13246, Note_on_c, 0, 61, 0
2, 13248, Note_on_c, 0, 61, 92
2, 13344, Note_on_c, 0, 61, 0
2, 13344, Note_on_c, 0, 62, 92
2, 13438, Note_on_c, 0, 62, 0
2, 13440, Note_on_c, 0, 62, 92
2, 13536, Note_on_c, 0, 62, 0
2, 13536, Note_on_c, 0, 58, 92
2, 13630, Note_on_c, 0, 58, 0
2, 13632, Note_on_c, 0, 58, 127
2, 13728, Note_on_c, 0, 58, 0
2, 13728, Note_on_c, 0, 57, 92
2, 13822, Note_on_c, 0, 57, 0
2, 13824, Note_on_c, 0, 57, 92
2, 13920, Note_on_c, 0, 57, 0
2, 13920, Note_on_c, 0, 61, 92
2, 14014, Note_on_c, 0, 61, 0
2, 14016, Note_on_c, 0, 61, 92
2, 14112, Note_on_c, 0, 61, 0
2, 14112, Note_on_c, 0, 62, 92
2, 14206, Note_on_c, 0, 62, 0
2, 14208, Note_on_c, 0, 62, 92
2, 14304, Note_on_c, 0, 62, 0
2, 14304, Note_on_c, 0, 58, 92
2, 14398, Note_on_c, 0, 58, 0
2, 14400, Note_on_c, 0, 58, 127
2, 14496, Note_on_c, 0, 58, 0
2, 14496, Note_on_c, 0, 57, 92
2, 14590, Note_on_c, 0, 57, 0
2, 14592, Note_on_c, 0, 57, 92
2, 14686, Note_on_c, 0, 57, 0
2, 14688, Note_on_c, 0, 58, 92
2, 14782, Note_on_c, 0, 58, 0
2, 14784, Note_on_c, 0, 59, 127
2, 14878, Note_on_c, 0, 59, 0
2, 14880, Note_on_c, 0, 60, 92
2, 14974, Note_on_c, 0, 60, 0
2, 14976, Note_on_c, 0, 61, 92
2, 15070, Note_on_c, 0, 61, 0
2, 15072, Note_on_c, 0, 62, 92
2, 15166, Note_on_c, 0, 62, 0
2, 15168, Note_on_c, 0, 63, 92
2, 15262, Note_on_c, 0, 63, 0
2, 15264, Note_on_c, 0, 64, 92
2, 15358, Note_on_c, 0, 64, 0
2, 15360, Note_on_c, 0, 65, 92
2, 15454, Note_on_c, 0, 65, 0
2, 15456, Note_on_c, 0, 66, 92
2, 15550, Note_on_c, 0, 66, 0
2, 15552, Note_on_c, 0, 67, 92
2, 15646, Note_on_c, 0, 67, 0
2, 15648, Note_on_c, 0, 68, 92
2, 15742, Note_on_c, 0, 68, 0
2, 15744, Note_on_c, 0, 69, 92
2, 15838, Note_on_c, 0, 69, 0
2, 15840, Note_on_c, 0, 70, 92
2, 15934, Note_on_c, 0, 70, 0
2, 15936, Note_on_c, 0, 61, 92
2, 16030, Note_on_c, 0, 61, 0
2, 16032, Note_on_c, 0, 69, 92
2, 16126, Note_on_c, 0, 69, 0
2, 16128, Note_on_c, 0, 62, 92
2, 16190, Note_on_c, 0, 62, 0
2, 16192, Note_on_c, 0, 57, 92
2, 16254, Note_on_c, 0, 57, 0
2, 16256, Note_on_c, 0, 53, 92
2, 16318, Note_on_c, 0, 53, 0
2, 17472, Note_on_c, 0, 69, 45
2, 17664, Note_on_c, 0, 69, 0
2, 17664, Note_on_c, 0, 68, 45
2, 17856, Note_on_c, 0, 68, 0
2, 17856, Note_on_c, 0, 69, 45
2, 18048, Note_on_c, 0, 69, 0
2, 18048, Note_on_c, 0, 70, 45
2, 18240, Note_on_c, 0, 70, 0
2, 18240, Note_on_c, 0, 69, 45
2, 18432, Note_on_c, 0, 69, 0
2, 18432, Note_on_c, 0, 69, 45
2, 18816, Note_on_c, 0, 69, 0
2, 18816, Note_on_c, 0, 69, 45
2, 19200, Note_on_c, 0, 69, 0
2, 19200, Note_on_c, 0, 69, 92
2, 19262, Note_on_c, 0, 69, 0
2, 19264, Note_on_c, 0, 61, 92
2, 19326, Note_on_c, 0, 61, 0
2, 19328, Note_on_c, 0, 55, 92
2, 19390, Note_on_c, 0, 55, 0
2, 20544, Note_on_c, 0, 69, 45
2, 20736, Note_on_c, 0, 69, 0
2, 20736, Note_on_c, 0, 68, 45
2, 20928, Note_on_c, 0, 68, 0
2, 20928, Note_on_c, 0, 69, 45
2, 21120, Note_on_c, 0, 69, 0
2, 21120, Note_on_c, 0, 70, 45
2, 21312, Note_on_c, 0, 70, 0
2, 21312, Note_on_c, 0, 69, 45
2, 21504, Note_on_c, 0, 69, 0
2, 21504, Note_on_c, 0, 69, 45
2, 21888, Note_on_c, 0, 69, 0
2, 21888, Note_on_c, 0, 69, 45
2, 22272, Note_on_c, 0, 69, 0
2, 22272, Note_on_c, 0, 69, 92
2, 22334, Note_on_c, 0, 69, 0
2, 22336, Note_on_c, 0, 62, 92
2, 22398, Note_on_c, 0, 62, 0
2, 22400, Note_on_c, 0, 57, 92
2, 22462, Note_on_c, 0, 57, 0
2, 22464, Note_on_c, 0, 62, 92
2, 22526, Note_on_c, 0, 62, 0
2, 22528, Note_on_c, 0, 57, 92
2, 22590, Note_on_c, 0, 57, 0
2, 22592, Note_on_c, 0, 62, 92
2, 22654, Note_on_c, 0, 62, 0
2, 22656, Note_on_c, 0, 57, 92
2, 22718, Note_on_c, 0, 57, 0
2, 22720, Note_on_c, 0, 62, 92
2, 22782, Note_on_c, 0, 62, 0
2, 22784, Note_on_c, 0, 57, 92
2, 22846, Note_on_c, 0, 57, 0
2, 22848, Note_on_c, 0, 62, 92
2, 22910, Note_on_c, 0, 62, 0
2, 22912, Note_on_c, 0, 57, 92
2, 22974, Note_on_c, 0, 57, 0
2, 22976, Note_on_c, 0, 62, 92
2, 23038, Note_on_c, 0, 62, 0
2, 23424, Note_on_c, 0, 74, 127
2, 23584, Note_on_c, 0, 74, 0
2, 23808, Note_on_c, 0, 64, 92
2, 23870, Note_on_c, 0, 64, 0
2, 23872, Note_on_c, 0, 59, 92
2, 23934, Note_on_c, 0, 59, 0
2, 23936, Note_on_c, 0, 64, 92
2, 23998, Note_on_c, 0, 64, 0
2, 24000, Note_on_c, 0, 59, 92
2, 24062, Note_on_c, 0, 59, 0
2, 24064, Note_on_c, 0, 64, 92
2, 24126, Note_on_c, 0, 64, 0
2, 24128, Note_on_c, 0, 59, 92
2, 24190, Note_on_c, 0, 59, 0
2, 24192, Note_on_c, 0, 64, 92
2, 24254, Note_on_c, 0, 64, 0
2, 24256, Note_on_c, 0, 59, 92
2, 24318, Note_on_c, 0, 59, 0
2, 24320, Note_on_c, 0, 64, 92
2, 24382, Note_on_c, 0, 64, 0
2, 24384, Note_on_c, 0, 59, 92
2, 24446, Note_on_c, 0, 59, 0
2, 24448, Note_on_c, 0, 64, 92
2, 24510, Note_on_c, 0, 64, 0
2, 24512, Note_on_c, 0, 59, 92
2, 24574, Note_on_c, 0, 59, 0
2, 24960, Note_on_c, 0, 76, 127
2, 25120, Note_on_c, 0, 76, 0
2, 25344, Note_on_c, 0, 65, 92
2, 25406, Note_on_c, 0, 65, 0
2, 25408, Note_on_c, 0, 60, 92
2, 25470, Note_on_c, 0, 60, 0
2, 25472, Note_on_c, 0, 65, 92
2, 25534, Note_on_c, 0, 65, 0
2, 25536, Note_on_c, 0, 60, 92
2, 25598, Note_on_c, 0, 60, 0
2, 25600, Note_on_c, 0, 65, 92
2, 25662, Note_on_c, 0, 65, 0
2, 25664, Note_on_c, 0, 60, 92
2, 25726, Note_on_c, 0, 60, 0
2, 25728, Note_on_c, 0, 65, 92
2, 25790, Note_on_c, 0, 65, 0
2, 25792, Note_on_c, 0, 60, 92
2, 25854, Note_on_c, 0, 60, 0
2, 25856, Note_on_c, 0, 65, 92
2, 25918, Note_on_c, 0, 65, 0
2, 25920, Note_on_c, 0, 60, 92
2, 25982, Note_on_c, 0, 60, 0
2, 25984, Note_on_c, 0, 65, 92
2, 26046, Note_on_c, 0, 65, 0
2, 26048, Note_on_c, 0, 60, 92
2, 26110, Note_on_c, 0, 60, 0
2, 26496, Note_on_c, 0, 77, 127
2, 26656, Note_on_c, 0, 77, 0
2, 26880, Note_on_c, 0, 68, 92
2, 26942, Note_on_c, 0, 68, 0
2, 26944, Note_on_c, 0, 62, 92
2, 27006, Note_on_c, 0, 62, 0
2, 27008, Note_on_c, 0, 68, 92
2, 27070, Note_on_c, 0, 68, 0
2, 27072, Note_on_c, 0, 62, 92
2, 27134, Note_on_c, 0, 62, 0
2, 27136, Note_on_c, 0, 68, 92
2, 27198, Note_on_c, 0, 68, 0
2, 27200, Note_on_c, 0, 62, 92
2, 27262, Note_on_c, 0, 62, 0
2, 27264, Note_on_c, 0, 68, 92
2, 27326, Note_on_c, 0, 68, 0
2, 27328, Note_on_c, 0, 62, 92
2, 27390, Note_on_c, 0, 62, 0
2, 27392, Note_on_c, 0, 68, 92
2, 27454, Note_on_c, 0, 68, 0
2, 27456, Note_on_c, 0, 62, 92
2, 27518, Note_on_c, 0, 62, 0
2, 27520, Note_on_c, 0, 68, 92
2, 27582, Note_on_c, 0, 68, 0
2, 27584, Note_on_c, 0, 62, 92
2, 27646, Note_on_c, 0, 62, 0
2, 28032, Note_on_c, 0, 80, 127
2, 28192, Note_on_c, 0, 80, 0
2, 28416, Note_on_c, 0, 69, 92
2, 28478, Note_on_c, 0, 69, 0
2, 28480, Note_on_c, 0, 64, 92
2, 28542, Note_on_c, 0, 64, 0
2, 28544, Note_on_c, 0, 69, 92
2, 28606, Note_on_c, 0, 69, 0
2, 28608, Note_on_c, 0, 64, 92
2, 28670, Note_on_c, 0, 64, 0
2, 28672, Note_on_c, 0, 69, 92
2, 28734, Note_on_c, 0, 69, 0
2, 28736, Note_on_c, 0, 64, 92
2, 28798, Note_on_c, 0, 64, 0
2, 28800, Note_on_c, 0, 69, 92
2, 28862, Note_on_c, 0, 69, 0
2, 28864, Note_on_c, 0, 64, 92
2, 28926, Note_on_c, 0, 64, 0
2, 28928, Note_on_c, 0, 69, 92
2, 28990, Note_on_c, 0, 69, 0
2, 28992, Note_on_c, 0, 64, 92
2, 29054, Note_on_c, 0, 64, 0
2, 29056, Note_on_c, 0, 69, 92
2, 29118, Note_on_c, 0, 69, 0
2, 29120, Note_on_c, 0, 64, 92
2, 29182, Note_on_c, 0, 64, 0
2, 29184, Note_on_c, 0, 69, 108
2, 29246, Note_on_c, 0, 69, 0
2, 29248, Note_on_c, 0, 72, 108
2, 29310, Note_on_c, 0, 72, 0
2, 29312, Note_on_c, 0, 69, 108
2, 29374, Note_on_c, 0, 69, 0
2, 29376, Note_on_c, 0, 72, 108
2, 29438, Note_on_c, 0, 72, 0
2, 29440, Note_on_c, 0, 69, 108
2, 29502, Note_on_c, 0, 69, 0
2, 29504, Note_on_c, 0, 72, 108
2, 29566, Note_on_c, 0, 72, 0
2, 29568, Note_on_c, 0, 69, 127
2, 29568, Note_on_c, 0, 81, 127
2, 29630, Note_on_c, 0, 69, 0
2, 29632, Note_on_c, 0, 72, 108
2, 29694, Note_on_c, 0, 72, 0
2, 29696, Note_on_c, 0, 69, 108
2, 29758, Note_on_c, 0, 69, 0
2, 29760, Note_on_c, 0, 72, 108
2, 29822, Note_on_c, 0, 72, 0
2, 29824, Note_on_c, 0, 69, 108
2, 29886, Note_on_c, 0, 69, 0
2, 29888, Note_on_c, 0, 72, 108
2, 29950, Note_on_c, 0, 72, 0
2, 29950, Note_on_c, 0, 81, 0
2, 29952, Note_on_c, 0, 69, 108
2, 30014, Note_on_c, 0, 69, 0
2, 30016, Note_on_c, 0, 72, 108
2, 30078, Note_on_c, 0, 72, 0
2, 30080, Note_on_c, 0, 69, 108
2, 30142, Note_on_c, 0, 69, 0
2, 30144, Note_on_c, 0, 72, 108
2, 30206, Note_on_c, 0, 72, 0
2, 30208, Note_on_c, 0, 69, 108
2, 30270, Note_on_c, 0, 69, 0
2, 30272, Note_on_c, 0, 72, 108
2, 30334, Note_on_c, 0, 72, 0
2, 30336, Note_on_c, 0, 69, 127
2, 30336, Note_on_c, 0, 81, 127
2, 30398, Note_on_c, 0, 69, 0
2, 30400, Note_on_c, 0, 72, 108
2, 30462, Note_on_c, 0, 72, 0
2, 30464, Note_on_c, 0, 69, 108
2, 30526, Note_on_c, 0, 69, 0
2, 30528, Note_on_c, 0, 72, 108
2, 30590, Note_on_c, 0, 72, 0
2, 30592, Note_on_c, 0, 69, 108
2, 30654, Note_on_c, 0, 69, 0
2, 30656, Note_on_c, 0, 72, 108
2, 30718, Note_on_c, 0, 72, 0
2, 30718, Note_on_c, 0, 81, 0
2, 30720, Note_on_c, 0, 69, 108
2, 30782, Note_on_c, 0, 69, 0
2, 30784, Note_on_c, 0, 72, 108
2, 30846, Note_on_c, 0, 72, 0
2, 30848, Note_on_c, 0, 69, 108
2, 30910, Note_on_c, 0, 69, 0
2, 30912, Note_on_c, 0, 72, 108
2, 30974, Note_on_c, 0, 72, 0
2, 30976, Note_on_c, 0, 69, 108
2, 31038, Note_on_c, 0, 69, 0
2, 31040, Note_on_c, 0, 72, 108
2, 31102, Note_on_c, 0, 72, 0
2, 31104, Note_on_c, 0, 69, 127
2, 31104, Note_on_c, 0, 81, 127
2, 31166, Note_on_c, 0, 69, 0
2, 31168, Note_on_c, 0, 72, 108
2, 31230, Note_on_c, 0, 72, 0
2, 31232, Note_on_c, 0, 69, 108
2, 31294, Note_on_c, 0, 69, 0
2, 31296, Note_on_c, 0, 72, 108
2, 31358, Note_on_c, 0, 72, 0
2, 31360, Note_on_c, 0, 69, 108
2, 31422, Note_on_c, 0, 69, 0
2, 31424, Note_on_c, 0, 72, 108
2, 31486, Note_on_c, 0, 72, 0
2, 31486, Note_on_c, 0, 81, 0
2, 31488, Note_on_c, 0, 68, 108
2, 31488, Note_on_c, 0, 71, 108
2, 31488, Note_on_c, 0, 80, 108
2, 31648, Note_on_c, 0, 68, 0
2, 31648, Note_on_c, 0, 71, 0
2, 31648, Note_on_c, 0, 80, 0
2, 32064, Note_on_c, 0, 83, 45
2, 32160, Note_on_c, 0, 83, 0
2, 32160, Note_on_c, 0, 80, 45
2, 32254, Note_on_c, 0, 80, 0
2, 32256, Note_on_c, 0, 76, 45
2, 32352, Note_on_c, 0, 76, 0
2, 32352, Note_on_c, 0, 77, 45
2, 32446, Note_on_c, 0, 77, 0
2, 32448, Note_on_c, 0, 77, 45
2, 32544, Note_on_c, 0, 77, 0
2, 32544, Note_on_c, 0, 74, 45
2, 32638, Note_on_c, 0, 74, 0
2, 32832, Note_on_c, 0, 83, 45
2, 32928, Note_on_c, 0, 83, 0
2, 32928, Note_on_c, 0, 80, 45
2, 33022, Note_on_c, 0, 80, 0
2, 33024, Note_on_c, 0, 76, 45
2, 33120, Note_on_c, 0, 76, 0
2, 33120, Note_on_c, 0, 77, 45
2, 33214, Note_on_c, 0, 77, 0
2, 33216, Note_on_c, 0, 77, 45
2, 33312, Note_on_c, 0, 77, 0
2, 33312, Note_on_c, 0, 74, 45
2, 33406, Note_on_c, 0, 74, 0
2, 33600, Note_on_c, 0, 83, 45
2, 33696, Note_on_c, 0, 83, 0
2, 33696, Note_on_c, 0, 80, 45
2, 33790, Note_on_c, 0, 80, 0
2, 33792, Note_on_c, 0, 76, 45
2, 33888, Note_on_c, 0, 76, 0
2, 33888, Note_on_c, 0, 77, 45
2, 33982, Note_on_c, 0, 77, 0
2, 33984, Note_on_c, 0, 77, 45
2, 34080, Note_on_c, 0, 77, 0
2, 34080, Note_on_c, 0, 74, 45
2, 34174, Note_on_c, 0, 74, 0
2, 34176, Note_on_c, 0, 74, 45
2, 34272, Note_on_c, 0, 74, 0
2, 34272, Note_on_c, 0, 72, 45
2, 34366, Note_on_c, 0, 72, 0
2, 34368, Note_on_c, 0, 72, 45
2, 34464, Note_on_c, 0, 72, 0
2, 34464, Note_on_c, 0, 71, 45
2, 34558, Note_on_c, 0, 71, 0
2, 34560, Note_on_c, 0, 71, 45
2, 34656, Note_on_c, 0, 71, 0
2, 34656, Note_on_c, 0, 72, 45
2, 34750, Note_on_c, 0, 72, 0
2, 34752, Note_on_c, 0, 69, 45
2, 34800, Note_on_c, 0, 69, 0
2, 35136, Note_on_c, 0, 84, 45
2, 35232, Note_on_c, 0, 84, 0
2, 35232, Note_on_c, 0, 81, 45
2, 35326, Note_on_c, 0, 81, 0
2, 35328, Note_on_c, 0, 75, 45
2, 35424, Note_on_c, 0, 75, 0
2, 35424, Note_on_c, 0, 76, 45
2, 35518, Note_on_c, 0, 76, 0
2, 35520, Note_on_c, 0, 76, 45
2, 35616, Note_on_c, 0, 76, 0
2, 35616, Note_on_c, 0, 72, 45
2, 35710, Note_on_c, 0, 72, 0
2, 35904, Note_on_c, 0, 84, 45
2, 36000, Note_on_c, 0, 84, 0
2, 36000, Note_on_c, 0, 81, 45
2, 36094, Note_on_c, 0, 81, 0
2, 36096, Note_on_c, 0, 75, 45
2, 36192, Note_on_c, 0, 75, 0
2, 36192, Note_on_c, 0, 76, 45
2, 36286, Note_on_c, 0, 76, 0
2, 36288, Note_on_c, 0, 76, 45
2, 36384, Note_on_c, 0, 76, 0
2, 36384, Note_on_c, 0, 72, 45
2, 36478, Note_on_c, 0, 72, 0
2, 36672, Note_on_c, 0, 84, 45
2, 36768, Note_on_c, 0, 84, 0
2, 36768, Note_on_c, 0, 81, 45
2, 36862, Note_on_c, 0, 81, 0
2, 36864, Note_on_c, 0, 75, 45
2, 36960, Note_on_c, 0, 75, 0
2, 36960, Note_on_c, 0, 76, 45
2, 37054, Note_on_c, 0, 76, 0
2, 37056, Note_on_c, 0, 76, 45
2, 37152, Note_on_c, 0, 76, 0
2, 37152, Note_on_c, 0, 72, 45
2, 37246, Note_on_c, 0, 72, 0
2, 37248, Note_on_c, 0, 72, 45
2, 37344, Note_on_c, 0, 72, 0
2, 37344, Note_on_c, 0, 71, 45
2, 37438, Note_on_c, 0, 71, 0
2, 37440, Note_on_c, 0, 71, 45
2, 37536, Note_on_c, 0, 71, 0
2, 37536, Note_on_c, 0, 69, 45
2, 37630, Note_on_c, 0, 69, 0
2, 37632, Note_on_c, 0, 69, 45
2, 37728, Note_on_c, 0, 69, 0
2, 37728, Note_on_c, 0, 68, 45
2, 37822, Note_on_c, 0, 68, 0
2, 37824, Note_on_c, 0, 71, 45
2, 37872, Note_on_c, 0, 71, 0
2, 38208, Note_on_c, 0, 89, 49
2, 38304, Note_on_c, 0, 89, 0
2, 38304, Note_on_c, 0, 86, 51
2, 38398, Note_on_c, 0, 86, 0
2, 38400, Note_on_c, 0, 85, 53
2, 38496, Note_on_c, 0, 85, 0
2, 38496, Note_on_c, 0, 86, 55
2, 38590, Note_on_c, 0, 86, 0
2, 38592, Note_on_c, 0, 83, 57
2, 38640, Note_on_c, 0, 83, 0
2, 38976, Note_on_c, 0, 89, 67
2, 39072, Note_on_c, 0, 89, 0
2, 39072, Note_on_c, 0, 86, 69
2, 39166, Note_on_c, 0, 86, 0
2, 39168, Note_on_c, 0, 85, 71
2, 39264, Note_on_c, 0, 85, 0
2, 39264, Note_on_c, 0, 86, 73
2, 39358, Note_on_c, 0, 86, 0
2, 39360, Note_on_c, 0, 83, 75
2, 39408, Note_on_c, 0, 83, 0
2, 39744, Note_on_c, 0, 89, 86
2, 39840, Note_on_c, 0, 89, 0
2, 39840, Note_on_c, 0, 86, 89
2, 39934, Note_on_c, 0, 86, 0
2, 39936, Note_on_c, 0, 83, 92
2, 40032, Note_on_c, 0, 83, 0
2, 40032, Note_on_c, 0, 86, 92
2, 40126, Note_on_c, 0, 86, 0
2, 40128, Note_on_c, 0, 80, 92
2, 40224, Note_on_c, 0, 80, 0
2, 40224, Note_on_c, 0, 83, 92
2, 40318, Note_on_c, 0, 83, 0
2, 40320, Note_on_c, 0, 77, 92
2, 40416, Note_on_c, 0, 77, 0
2, 40416, Note_on_c, 0, 80, 92
2, 40510, Note_on_c, 0, 80, 0
2, 40512, Note_on_c, 0, 74, 92
2, 40608, Note_on_c, 0, 74, 0
2, 40608, Note_on_c, 0, 77, 92
2, 40702, Note_on_c, 0, 77, 0
2, 40704, Note_on_c, 0, 71, 92
2, 40800, Note_on_c, 0, 71, 0
2, 40800, Note_on_c, 0, 74, 92
2, 40894, Note_on_c, 0, 74, 0
2, 40896, Note_on_c, 0, 68, 92
2, 40992, Note_on_c, 0, 68, 0
2, 40992, Note_on_c, 0, 71, 92
2, 41086, Note_on_c, 0, 71, 0
2, 41088, Note_on_c, 0, 65, 92
2, 41184, Note_on_c, 0, 65, 0
2, 41184, Note_on_c, 0, 68, 92
2, 41278, Note_on_c, 0, 68, 0
2, 41280, Note_on_c, 0, 62, 92
2, 41376, Note_on_c, 0, 62, 0
2, 41376, Note_on_c, 0, 65, 92
2, 41470, Note_on_c, 0, 65, 0
2, 41472, Note_on_c, 0, 59, 92
2, 41568, Note_on_c, 0, 59, 0
2, 41568, Note_on_c, 0, 62, 92
2, 41662, Note_on_c, 0, 62, 0
2, 41664, Note_on_c, 0, 56, 92
2, 41760, Note_on_c, 0, 56, 0
2, 41760, Note_on_c, 0, 59, 92
2, 41856, Note_on_c, 0, 59, 0
2, 41856, Note_on_c, 0, 50, 92
2, 41952, Note_on_c, 0, 50, 0
2, 41952, Note_on_c, 0, 59, 92
2, 42048, Note_on_c, 0, 59, 0
2, 42048, Note_on_c, 0, 56, 92
2, 42144, Note_on_c, 0, 56, 0
2, 42144, Note_on_c, 0, 50, 92
2, 42240, Note_on_c, 0, 50, 0
2, 42240, Note_on_c, 0, 48, 127
2, 42400, Note_on_c, 0, 48, 0
2, 42432, Note_on_c, 0, 48, 127
2, 42432, Note_on_c, 0, 52, 127
2, 42432, Note_on_c, 0, 57, 127
2, 42624, Note_on_c, 0, 48, 0
2, 42624, Note_on_c, 0, 52, 0
2, 42624, Note_on_c, 0, 57, 0
2, 42624, Note_on_c, 0, 50, 127
2, 42624, Note_on_c, 0, 53, 127
2, 42624, Note_on_c, 0, 58, 127
2, 43392, Note_on_c, 0, 58, 0
2, 43392, Note_on_c, 0, 57, 92
2, 43584, Note_on_c, 0, 57, 0
2, 43584, Note_on_c, 0, 56, 92
2, 43776, Note_on_c, 0, 50, 0
2, 43776, Note_on_c, 0, 53, 0
2, 43776, Note_on_c, 0, 56, 0
2, 43776, Note_on_c, 0, 48, 127
2, 43776, Note_on_c, 0, 52, 127
2, 43776, Note_on_c, 0, 57, 127
2, 43936, Note_on_c, 0, 48, 0
2, 43936, Note_on_c, 0, 52, 0
2, 43936, Note_on_c, 0, 57, 0
2, 43968, Note_on_c, 0, 60, 127
2, 43968, Note_on_c, 0, 64, 127
2, 43968, Note_on_c, 0, 69, 127
2, 44160, Note_on_c, 0, 60, 0
2, 44160, Note_on_c, 0, 64, 0
2, 44160, Note_on_c, 0, 69, 0
2, 44160, Note_on_c, 0, 62, 127
2, 44160, Note_on_c, 0, 65, 127
2, 44160, Note_on_c, 0, 70, 127
2, 44928, Note_on_c, 0, 70, 0
2, 44928, Note_on_c, 0, 69, 92
2, 45120, Note_on_c, 0, 69, 0
2, 45120, Note_on_c, 0, 68, 92
2, 45312, Note_on_c, 0, 62, 0
2, 45312, Note_on_c, 0, 65, 0
2, 45312, Note_on_c, 0, 68, 0
2, 45312, Note_on_c, 0, 60, 127
2, 45312, Note_on_c, 0, 64, 127
2, 45312, Note_on_c, 0, 69, 127
2, 45472, Note_on_c, 0, 60, 0
2, 45472, Note_on_c, 0, 64, 0
2, 45472, Note_on_c, 0, 69, 0
2, 45504, Note_on_c, 0, 69, 127
2, 45504, Note_on_c, 0, 81, 127
2, 45696, Note_on_c, 0, 69, 0
2, 45696, Note_on_c, 0, 81, 0
2, 45696, Note_on_c, 0, 70, 92
2, 45696, Note_on_c, 0, 82, 92
2, 46272, Note_on_c, 0, 70, 0
2, 46272, Note_on_c, 0, 82, 0
2, 46272, Note_on_c, 0, 71, 127
2, 46272, Note_on_c, 0, 83, 127
2, 46464, Note_on_c, 0, 71, 0
2, 46464, Note_on_c, 0, 83, 0
2, 46464, Note_on_c, 0, 72, 92
2, 46464, Note_on_c, 0, 84, 92
2, 47040, Note_on_c, 0, 72, 0
2, 47040, Note_on_c, 0, 84, 0
2, 47040, Note_on_c, 0, 73, 92
2, 47040, Note_on_c, 0, 85, 92
2, 47232, Note_on_c, 0, 73, 0
2, 47232, Note_on_c, 0, 85, 0
2, 47232, Note_on_c, 0, 74, 81
2, 47232, Note_on_c, 0, 86, 81
2, 47424, Note_on_c, 0, 74, 0
2, 47424, Note_on_c, 0, 86, 0
2, 47424, Note_on_c, 0, 76, 69
2, 47424, Note_on_c, 0, 88, 69
2, 47616, Note_on_c, 0, 76, 0
2, 47616, Note_on_c, 0, 88, 0
2, 47616, Note_on_c, 0, 77, 57
2, 47616, Note_on_c, 0, 89, 57
2, 47808, Note_on_c, 0, 77, 0
2, 47808, Note_on_c, 0, 89, 0
2, 47808, Note_on_c, 0, 65, 45
2, 47808, Note_on_c, 0, 77, 45
2, 48192, Note_on_c, 0, 65, 0
2, 48192, Note_on_c, 0, 77, 0
2, 48192, Note_on_c, 0, 65, 45
2, 48192, Note_on_c, 0, 76, 45
2, 48384, Note_on_c, 0, 65, 0
2, 48384, Note_on_c, 0, 76, 0
2, 48384, Note_on_c, 0, 69, 92
2, 48432, Note_on_c, 0, 69, 0
2, 48960, Note_on_c, 0, 61, 127
2, 48960, Note_on_c, 0, 64, 127
2, 49120, Note_on_c, 0, 61, 0
2, 49120, Note_on_c, 0, 64, 0
2, 49152, Note_on_c, 0, 62, 127
2, 49152, Note_on_c, 0, 65, 127
2, 49312, Note_on_c, 0, 62, 0
2, 49312, Note_on_c, 0, 65, 0
2, 49344, Note_on_c, 0, 65, 92
2, 49344, Note_on_c, 0, 74, 92
2, 49680, Note_on_c, 0, 65, 0
2, 49680, Note_on_c, 0, 74, 0
2, 49728, Note_on_c, 0, 65, 127
2, 49728, Note_on_c, 0, 74, 127
2, 49888, Note_on_c, 0, 65, 0
2, 49888, Note_on_c, 0, 74, 0
2, 49920, Note_on_c, 0, 64, 127
2, 49920, Note_on_c, 0, 73, 127
2, 50080, Note_on_c, 0, 64, 0
2, 50080, Note_on_c, 0, 73, 0
2, 50496, Note_on_c, 0, 61, 127
2, 50496, Note_on_c, 0, 64, 127
2, 50656, Note_on_c, 0, 61, 0
2, 50656, Note_on_c, 0, 64, 0
2, 50688, Note_on_c, 0, 62, 127
2, 50688, Note_on_c, 0, 65, 127
2, 50848, Note_on_c, 0, 62, 0
2, 50848, Note_on_c, 0, 65, 0
2, 50880, Note_on_c, 0, 74, 92
2, 50880, Note_on_c, 0, 77, 92
2, 51216, Note_on_c, 0, 74, 0
2, 51216, Note_on_c, 0, 77, 0
2, 51264, Note_on_c, 0, 74, 127
2, 51264, Note_on_c, 0, 77, 127
2, 51424, Note_on_c, 0, 74, 0
2, 51424, Note_on_c, 0, 77, 0
2, 51456, Note_on_c, 0, 73, 127
2, 51456, Note_on_c, 0, 76, 127
2, 51616, Note_on_c, 0, 73, 0
2, 51616, Note_on_c, 0, 76, 0
2, 52032, Note_on_c, 0, 61, 127
2, 52032, Note_on_c, 0, 64, 127
2, 52192, Note_on_c, 0, 61, 0
2, 52192, Note_on_c, 0, 64, 0
2, 52224, Note_on_c, 0, 62, 127
2, 52224, Note_on_c, 0, 65, 127
2, 52384, Note_on_c, 0, 62, 0
2, 52384, Note_on_c, 0, 65, 0
2, 52416, Note_on_c, 0, 74, 92
2, 52416, Note_on_c, 0, 77, 92
2, 52752, Note_on_c, 0, 74, 0
2, 52752, Note_on_c, 0, 77, 0
2, 52800, Note_on_c, 0, 86, 108
2, 52800, Note_on_c, 0, 89, 108
2, 53152, Note_on_c, 0, 86, 0
2, 53152, Note_on_c, 0, 89, 0
2, 53568, Note_on_c, 0, 74, 45
2, 53568, Note_on_c, 0, 77, 45
2, 53760, Note_on_c, 0, 74, 0
2, 53760, Note_on_c, 0, 77, 0
2, 53760, Note_on_c, 0, 72, 45
2, 53760, Note_on_c, 0, 76, 45
2, 53808, Note_on_c, 0, 72, 0
2, 53808, Note_on_c, 0, 76, 0
2, 54336, Note_on_c, 0, 84, 45
2, 54336, Note_on_c, 0, 88, 45
2, 54528, Note_on_c, 0, 84, 0
2, 54528, Note_on_c, 0, 88, 0
2, 54528, Note_on_c, 0, 82, 45
2, 54528, Note_on_c, 0, 86, 45
2, 54576, Note_on_c, 0, 82, 0
2, 54576, Note_on_c, 0, 86, 0
2, 55104, Note_on_c, 0, 71, 45
2, 55104, Note_on_c, 0, 74, 45
2, 55296, Note_on_c, 0, 71, 0
2, 55296, Note_on_c, 0, 74, 0
2, 55296, Note_on_c, 0, 69, 45
2, 55296, Note_on_c, 0, 72, 45
2, 55344, Note_on_c, 0, 69, 0
2, 55344, Note_on_c, 0, 72, 0
2, 55872, Note_on_c, 0, 81, 45
2, 55872, Note_on_c, 0, 84, 45
2, 56064, Note_on_c, 0, 81, 0
2, 56064, Note_on_c, 0, 84, 0
2, 56064, Note_on_c, 0, 81, 45
2, 56064, Note_on_c, 0, 83, 45
2, 56224, Note_on_c, 0, 81, 0
2, 56224, Note_on_c, 0, 83, 0
2, 56640, Note_on_c, 0, 69, 45
2, 56640, Note_on_c, 0, 71, 45
2, 56832, Note_on_c, 0, 69, 0
2, 56832, Note_on_c, 0, 71, 0
2, 56832, Note_on_c, 0, 68, 45
2, 56832, Note_on_c, 0, 70, 45
2, 56880, Note_on_c, 0, 68, 0
2, 56880, Note_on_c, 0, 70, 0
2, 57408, Note_on_c, 0, 71, 45
2, 57408, Note_on_c, 0, 80, 45
2, 57600, Note_on_c, 0, 71, 0
2, 57600, Note_on_c, 0, 80, 0
2, 57600, Note_on_c, 0, 81, 45
2, 57696, Note_on_c, 0, 81, 0
2, 57696, Note_on_c, 0, 76, 45
2, 57792, Note_on_c, 0, 76, 0
2, 57792, Note_on_c, 0, 72, 45
2, 57888, Note_on_c, 0, 72, 0
2, 57888, Note_on_c, 0, 84, 45
2, 57984, Note_on_c, 0, 84, 0
2, 57984, Note_on_c, 0, 83, 45
2, 58080, Note_on_c, 0, 83, 0
2, 58080, Note_on_c, 0, 80, 45
2, 58176, Note_on_c, 0, 80, 0
2, 58176, Note_on_c, 0, 76, 45
2, 58272, Note_on_c, 0, 76, 0
2, 58272, Note_on_c, 0, 86, 45
2, 58368, Note_on_c, 0, 86, 0
2, 58368, Note_on_c, 0, 84, 45
2, 58464, Note_on_c, 0, 84, 0
2, 58464, Note_on_c, 0, 81, 45
2, 58560, Note_on_c, 0, 81, 0
2, 58560, Note_on_c, 0, 76, 45
2, 58656, Note_on_c, 0, 76, 0
2, 58656, Note_on_c, 0, 88, 45
2, 58752, Note_on_c, 0, 88, 0
2, 58752, Note_on_c, 0, 87, 45
2, 58848, Note_on_c, 0, 87, 0
2, 58848, Note_on_c, 0, 88, 45
2, 58944, Note_on_c, 0, 88, 0
2, 58944, Note_on_c, 0, 87, 45
2, 59040, Note_on_c, 0, 87, 0
2, 59040, Note_on_c, 0, 88, 45
2, 59136, Note_on_c, 0, 88, 0
2, 59136, Note_on_c, 0, 76, 45
2, 59136, Note_on_c, 0, 84, 45
2, 59136, Note_on_c, 0, 88, 45
2, 59520, Note_on_c, 0, 76, 0
2, 59520, Note_on_c, 0, 84, 0
2, 59520, Note_on_c, 0, 88, 0
2, 59520, Note_on_c, 0, 74, 45
2, 59520, Note_on_c, 0, 83, 45
2, 59520, Note_on_c, 0, 86, 45
2, 59904, Note_on_c, 0, 74, 0
2, 59904, Note_on_c, 0, 83, 0
2, 59904, Note_on_c, 0, 86, 0
2, 59904, Note_on_c, 0, 72, 45
2, 59904, Note_on_c, 0, 81, 45
2, 59904, Note_on_c, 0, 84, 45
2, 60288, Note_on_c, 0, 72, 0
2, 60288, Note_on_c, 0, 81, 0
2, 60288, Note_on_c, 0, 84, 0
2, 60288, Note_on_c, 0, 71, 45
2, 60288, Note_on_c, 0, 80, 45
2, 60288, Note_on_c, 0, 83, 45
2, 60672, Note_on_c, 0, 71, 0
2, 60672, Note_on_c, 0, 80, 0
2, 60672, Note_on_c, 0, 83, 0
2, 60672, Note_on_c, 0, 81, 45
2, 60766, Note_on_c, 0, 81, 0
2, 60768, Note_on_c, 0, 76, 45
2, 60862, Note_on_c, 0, 76, 0
2, 60864, Note_on_c, 0, 72, 45
2, 60958, Note_on_c, 0, 72, 0
2, 60960, Note_on_c, 0, 84, 45
2, 61054, Note_on_c, 0, 84, 0
2, 61056, Note_on_c, 0, 83, 45
2, 61150, Note_on_c, 0, 83, 0
2, 61152, Note_on_c, 0, 80, 45
2, 61246, Note_on_c, 0, 80, 0
2, 61248, Note_on_c, 0, 76, 45
2, 61342, Note_on_c, 0, 76, 0
2, 61344, Note_on_c, 0, 86, 45
2, 61438, Note_on_c, 0, 86, 0
2, 61440, Note_on_c, 0, 84, 45
2, 61534, Note_on_c, 0, 84, 0
2, 61536, Note_on_c, 0, 81, 45
2, 61630, Note_on_c, 0, 81, 0
2, 61632, Note_on_c, 0, 76, 45
2, 61726, Note_on_c, 0, 76, 0
2, 61728, Note_on_c, 0, 88, 45
2, 61822, Note_on_c, 0, 88, 0
2, 61824, Note_on_c, 0, 87, 45
2, 61918, Note_on_c, 0, 87, 0
2, 61920, Note_on_c, 0, 88, 45
2, 62014, Note_on_c, 0, 88, 0
2, 62016, Note_on_c, 0, 87, 45
2, 62110, Note_on_c, 0, 87, 0
2, 62112, Note_on_c, 0, 88, 45
2, 62206, Note_on_c, 0, 88, 0
2, 62208, Note_on_c, 0, 76, 45
2, 62400, Note_on_c, 0, 84, 45
2, 62400, Note_on_c, 0, 88, 45
2, 62736, Note_on_c, 0, 76, 0
2, 62736, Note_on_c, 0, 84, 0
2, 62736, Note_on_c, 0, 88, 0
2, 62784, Note_on_c, 0, 74, 45
2, 62784, Note_on_c, 0, 83, 45
2, 62784, Note_on_c, 0, 86, 45
2, 63136, Note_on_c, 0, 74, 0
2, 63136, Note_on_c, 0, 82, 0
2, 63136, Note_on_c, 0, 86, 0
2, 63168, Note_on_c, 0, 72, 45
2, 63168, Note_on_c, 0, 81, 45
2, 63168, Note_on_c, 0, 84, 45
2, 63504, Note_on_c, 0, 72, 0
2, 63504, Note_on_c, 0, 81, 0
2, 63504, Note_on_c, 0, 84, 0
2, 63552, Note_on_c, 0, 71, 45
2, 63552, Note_on_c, 0, 80, 45
2, 63552, Note_on_c, 0, 83, 45
2, 63712, Note_on_c, 0, 71, 0
2, 63712, Note_on_c, 0, 80, 0
2, 63712, Note_on_c, 0, 83, 0
2, 63744, Note_on_c, 0, 81, 45
2, 63838, Note_on_c, 0, 81, 0
2, 63840, Note_on_c, 0, 76, 45
2, 63934, Note_on_c, 0, 76, 0
2, 63936, Note_on_c, 0, 72, 45
2, 64030, Note_on_c, 0, 72, 0
2, 64032, Note_on_c, 0, 84, 45
2, 64126, Note_on_c, 0, 84, 0
2, 64128, Note_on_c, 0, 83, 45
2, 64222, Note_on_c, 0, 83, 0
2, 64224, Note_on_c, 0, 80, 45
2, 64318, Note_on_c, 0, 80, 0
2, 64320, Note_on_c, 0, 76, 45
2, 64414, Note_on_c, 0, 76, 0
2, 64416, Note_on_c, 0, 86, 45
2, 64510, Note_on_c, 0, 86, 0
2, 64512, Note_on_c, 0, 84, 45
2, 64606, Note_on_c, 0, 84, 0
2, 64608, Note_on_c, 0, 81, 45
2, 64702, Note_on_c, 0, 81, 0
2, 64704, Note_on_c, 0, 76, 45
2, 64798, Note_on_c, 0, 76, 0
2, 64800, Note_on_c, 0, 88, 45
2, 64894, Note_on_c, 0, 88, 0
2, 64896, Note_on_c, 0, 87, 45
2, 64990, Note_on_c, 0, 87, 0
2, 64992, Note_on_c, 0, 88, 45
2, 65086, Note_on_c, 0, 88, 0
2, 65088, Note_on_c, 0, 87, 45
2, 65182, Note_on_c, 0, 87, 0
2, 65184, Note_on_c, 0, 88, 45
2, 65278, Note_on_c, 0, 88, 0
2, 65280, Note_on_c, 0, 84, 45
2, 65374, Note_on_c, 0, 84, 0
2, 65376, Note_on_c, 0, 81, 45
2, 65470, Note_on_c, 0, 81, 0
2, 65472, Note_on_c, 0, 76, 45
2, 65566, Note_on_c, 0, 76, 0
2, 65568, Note_on_c, 0, 88, 45
2, 65662, Note_on_c, 0, 88, 0
2, 65664, Note_on_c, 0, 87, 45
2, 65758, Note_on_c, 0, 87, 0
2, 65760, Note_on_c, 0, 88, 45
2, 65854, Note_on_c, 0, 88, 0
2, 65856, Note_on_c, 0, 87, 45
2, 65950, Note_on_c, 0, 87, 0
2, 65952, Note_on_c, 0, 88, 45
2, 66046, Note_on_c, 0, 88, 0
2, 66048, Note_on_c, 0, 84, 45
2, 66142, Note_on_c, 0, 84, 0
2, 66144, Note_on_c, 0, 81, 45
2, 66238, Note_on_c, 0, 81, 0
2, 66240, Note_on_c, 0, 76, 45
2, 66334, Note_on_c, 0, 76, 0
2, 66336, Note_on_c, 0, 88, 45
2, 66430, Note_on_c, 0, 88, 0
2, 66432, Note_on_c, 0, 87, 45
2, 66526, Note_on_c, 0, 87, 0
2, 66528, Note_on_c, 0, 88, 45
2, 66622, Note_on_c, 0, 88, 0
2, 66624, Note_on_c, 0, 87, 45
2, 66718, Note_on_c, 0, 87, 0
2, 66720, Note_on_c, 0, 88, 45
2, 66814, Note_on_c, 0, 88, 0
2, 66816, Note_on_c, 0, 81, 45
2, 66976, Note_on_c, 0, 81, 0
2, 67200, Note_on_c, 0, 57, 45
2, 67536, Note_on_c, 0, 57, 0
2, 67584, Note_on_c, 0, 57, 45
2, 67920, Note_on_c, 0, 57, 0
2, 67968, Note_on_c, 0, 57, 45
2, 68304, Note_on_c, 0, 57, 0
2, 68352, Note_on_c, 0, 57, 63
2, 69840, Note_on_c, 0, 57, 0
2, 69888, Note_on_c, 0, 55, 45
2, 70224, Note_on_c, 0, 55, 0
2, 70272, Note_on_c, 0, 53, 45
2, 70608, Note_on_c, 0, 53, 0
2, 70656, Note_on_c, 0, 52, 45
2, 70992, Note_on_c, 0, 52, 0
2, 71040, Note_on_c, 0, 53, 45
2, 71200, Note_on_c, 0, 53, 0
2, 71232, Note_on_c, 0, 52, 45
2, 71392, Note_on_c, 0, 52, 0
2, 72192, Note_on_c, 0, 61, 30
2, 72240, Note_on_c, 0, 61, 0
2, 72384, Note_on_c, 0, 64, 30
2, 72432, Note_on_c, 0, 64, 0
2, 72576, Note_on_c, 0, 69, 30
2, 73248, Note_on_c, 0, 69, 0
2, 73248, Note_on_c, 0, 67, 45
2, 73342, Note_on_c, 0, 67, 0
2, 73344, Note_on_c, 0, 67, 45
2, 73440, Note_on_c, 0, 67, 0
2, 73440, Note_on_c, 0, 65, 45
2, 73534, Note_on_c, 0, 65, 0
2, 73536, Note_on_c, 0, 65, 45
2, 73632, Note_on_c, 0, 65, 0
2, 73632, Note_on_c, 0, 64, 45
2, 73726, Note_on_c, 0, 64, 0
2, 73728, Note_on_c, 0, 64, 45
2, 73824, Note_on_c, 0, 64, 0
2, 73824, Note_on_c, 0, 62, 45
2, 73918, Note_on_c, 0, 62, 0
2, 73920, Note_on_c, 0, 69, 45
2, 74016, Note_on_c, 0, 69, 0
2, 74016, Note_on_c, 0, 67, 45
2, 74110, Note_on_c, 0, 67, 0
2, 74112, Note_on_c, 0, 67, 45
2, 74208, Note_on_c, 0, 67, 0
2, 74208, Note_on_c, 0, 65, 45
2, 74302, Note_on_c, 0, 65, 0
2, 74304, Note_on_c, 0, 65, 45
2, 74400, Note_on_c, 0, 65, 0
2, 74400, Note_on_c, 0, 64, 45
2, 74494, Note_on_c, 0, 64, 0
2, 74496, Note_on_c, 0, 64, 45
2, 74592, Note_on_c, 0, 64, 0
2, 74592, Note_on_c, 0, 62, 45
2, 74686, Note_on_c, 0, 62, 0
2, 74688, Note_on_c, 0, 74, 45
2, 74784, Note_on_c, 0, 74, 0
2, 74784, Note_on_c, 0, 72, 45
2, 74878, Note_on_c, 0, 72, 0
2, 74880, Note_on_c, 0, 72, 45
2, 74976, Note_on_c, 0, 72, 0
2, 74976, Note_on_c, 0, 70, 45
2, 75070, Note_on_c, 0, 70, 0
2, 75072, Note_on_c, 0, 70, 45
2, 75168, Note_on_c, 0, 70, 0
2, 75168, Note_on_c, 0, 69, 45
2, 75262, Note_on_c, 0, 69, 0
2, 75264, Note_on_c, 0, 69, 45
2, 75360, Note_on_c, 0, 69, 0
2, 75360, Note_on_c, 0, 67, 45
2, 75454, Note_on_c, 0, 67, 0
2, 75456, Note_on_c, 0, 67, 45
2, 75552, Note_on_c, 0, 67, 0
2, 75552, Note_on_c, 0, 68, 45
2, 75646, Note_on_c, 0, 68, 0
2, 75648, Note_on_c, 0, 65, 63
2, 75648, Note_on_c, 0, 68, 63
2, 75744, Note_on_c, 0, 68, 0
2, 75744, Note_on_c, 0, 69, 45
2, 75776, Note_on_c, 0, 69, 0
2, 75776, Note_on_c, 0, 68, 45
2, 75808, Note_on_c, 0, 65, 0
2, 75808, Note_on_c, 0, 68, 0
2, 75808, Note_on_c, 0, 66, 45
2, 75840, Note_on_c, 0, 66, 0
2, 75840, Note_on_c, 0, 68, 45
2, 75934, Note_on_c, 0, 68, 0
2, 75936, Note_on_c, 0, 71, 45
2, 75984, Note_on_c, 0, 71, 0
2, 75984, Note_on_c, 0, 69, 45
2, 76030, Note_on_c, 0, 69, 0
2, 76032, Note_on_c, 0, 64, 45
2, 76032, Note_on_c, 0, 69, 45
2, 76368, Note_on_c, 0, 64, 0
2, 76368, Note_on_c, 0, 69, 0
2, 77184, Note_on_c, 0, 64, 30
2, 77232, Note_on_c, 0, 64, 0
2, 77376, Note_on_c, 0, 67, 30
2, 77424, Note_on_c, 0, 67, 0
2, 77568, Note_on_c, 0, 72, 30
2, 78096, Note_on_c, 0, 72, 0
2, 78144, Note_on_c, 0, 72, 45
2, 78238, Note_on_c, 0, 72, 0
2, 78240, Note_on_c, 0, 70, 45
2, 78334, Note_on_c, 0, 70, 0
2, 78336, Note_on_c, 0, 70, 45
2, 78432, Note_on_c, 0, 70, 0
2, 78432, Note_on_c, 0, 68, 46
2, 78526, Note_on_c, 0, 68, 0
2, 78528, Note_on_c, 0, 68, 47
2, 78624, Note_on_c, 0, 68, 0
2, 78624, Note_on_c, 0, 69, 48
2, 78718, Note_on_c, 0, 69, 0
2, 78720, Note_on_c, 0, 69, 49
2, 78816, Note_on_c, 0, 69, 0
2, 78816, Note_on_c, 0, 74, 50
2, 78910, Note_on_c, 0, 74, 0
2, 78912, Note_on_c, 0, 74, 51
2, 79008, Note_on_c, 0, 74, 0
2, 79008, Note_on_c, 0, 72, 52
2, 79102, Note_on_c, 0, 72, 0
2, 79104, Note_on_c, 0, 72, 53
2, 79200, Note_on_c, 0, 72, 0
2, 79200, Note_on_c, 0, 69, 54
2, 79294, Note_on_c, 0, 69, 0
2, 79296, Note_on_c, 0, 69, 55
2, 79392, Note_on_c, 0, 69, 0
2, 79392, Note_on_c, 0, 70, 56
2, 79486, Note_on_c, 0, 70, 0
2, 79488, Note_on_c, 0, 70, 57
2, 79584, Note_on_c, 0, 70, 0
2, 79584, Note_on_c, 0, 75, 58
2, 79678, Note_on_c, 0, 75, 0
2, 79680, Note_on_c, 0, 75, 59
2, 79776, Note_on_c, 0, 75, 0
2, 79776, Note_on_c, 0, 74, 60
2, 79870, Note_on_c, 0, 74, 0
2, 79872, Note_on_c, 0, 70, 61
2, 79968, Note_on_c, 0, 70, 0
2, 79968, Note_on_c, 0, 70, 62
2, 80062, Note_on_c, 0, 70, 0
2, 80064, Note_on_c, 0, 70, 64
2, 80160, Note_on_c, 0, 70, 0
2, 80160, Note_on_c, 0, 82, 66
2, 80254, Note_on_c, 0, 82, 0
2, 80256, Note_on_c, 0, 82, 68
2, 80352, Note_on_c, 0, 82, 0
2, 80352, Note_on_c, 0, 76, 70
2, 80446, Note_on_c, 0, 76, 0
2, 80448, Note_on_c, 0, 76, 72
2, 80544, Note_on_c, 0, 76, 0
2, 80544, Note_on_c, 0, 85, 74
2, 80638, Note_on_c, 0, 85, 0
2, 80640, Note_on_c, 0, 85, 76
2, 80736, Note_on_c, 0, 85, 0
2, 80736, Note_on_c, 0, 77, 78
2, 80830, Note_on_c, 0, 77, 0
2, 80832, Note_on_c, 0, 77, 80
2, 80928, Note_on_c, 0, 77, 0
2, 80928, Note_on_c, 0, 86, 82
2, 81022, Note_on_c, 0, 86, 0
2, 81024, Note_on_c, 0, 86, 84
2, 81120, Note_on_c, 0, 86, 0
2, 81120, Note_on_c, 0, 77, 86
2, 81214, Note_on_c, 0, 77, 0
2, 81216, Note_on_c, 0, 77, 88
2, 81312, Note_on_c, 0, 77, 0
2, 81312, Note_on_c, 0, 89, 90
2, 81406, Note_on_c, 0, 89, 0
2, 81408, Note_on_c, 0, 89, 92
2, 81504, Note_on_c, 0, 89, 0
2, 81504, Note_on_c, 0, 85, 92
2, 81598, Note_on_c, 0, 85, 0
2, 81600, Note_on_c, 0, 85, 92
2, 81696, Note_on_c, 0, 85, 0
2, 81696, Note_on_c, 0, 86, 92
2, 81790, Note_on_c, 0, 86, 0
2, 81792, Note_on_c, 0, 86, 92
2, 81888, Note_on_c, 0, 86, 0
2, 81888, Note_on_c, 0, 80, 92
2, 81982, Note_on_c, 0, 80, 0
2, 81984, Note_on_c, 0, 80, 92
2, 82080, Note_on_c, 0, 80, 0
2, 82080, Note_on_c, 0, 81, 92
2, 82174, Note_on_c, 0, 81, 0
2, 82176, Note_on_c, 0, 81, 92
2, 82272, Note_on_c, 0, 81, 0
2, 82272, Note_on_c, 0, 76, 92
2, 82366, Note_on_c, 0, 76, 0
2, 82368, Note_on_c, 0, 76, 92
2, 82464, Note_on_c, 0, 76, 0
2, 82464, Note_on_c, 0, 77, 92
2, 82558, Note_on_c, 0, 77, 0
2, 82560, Note_on_c, 0, 77, 92
2, 82656, Note_on_c, 0, 77, 0
2, 82656, Note_on_c, 0, 73, 92
2, 82750, Note_on_c, 0, 73, 0
2, 82752, Note_on_c, 0, 73, 92
2, 82848, Note_on_c, 0, 73, 0
2, 82848, Note_on_c, 0, 74, 92
2, 82942, Note_on_c, 0, 74, 0
2, 82944, Note_on_c, 0, 74, 92
2, 83040, Note_on_c, 0, 74, 0
2, 83040, Note_on_c, 0, 68, 92
2, 83134, Note_on_c, 0, 68, 0
2, 83136, Note_on_c, 0, 68, 92
2, 83232, Note_on_c, 0, 68, 0
2, 83232, Note_on_c, 0, 69, 92
2, 83326, Note_on_c, 0, 69, 0
2, 83328, Note_on_c, 0, 69, 92
2, 83424, Note_on_c, 0, 69, 0
2, 83424, Note_on_c, 0, 64, 92
2, 83518, Note_on_c, 0, 64, 0
2, 83520, Note_on_c, 0, 64, 92
2, 83616, Note_on_c, 0, 64, 0
2, 83616, Note_on_c, 0, 65, 92
2, 83710, Note_on_c, 0, 65, 0
2, 83712, Note_on_c, 0, 65, 92
2, 83808, Note_on_c, 0, 65, 0
2, 83808, Note_on_c, 0, 61, 92
2, 83902, Note_on_c, 0, 61, 0
2, 83904, Note_on_c, 0, 61, 92
2, 84000, Note_on_c, 0, 61, 0
2, 84000, Note_on_c, 0, 62, 92
2, 84094, Note_on_c, 0, 62, 0
2, 84096, Note_on_c, 0, 62, 92
2, 84192, Note_on_c, 0, 62, 0
2, 84192, Note_on_c, 0, 58, 92
2, 84286, Note_on_c, 0, 58, 0
2, 84288, Note_on_c, 0, 58, 127
2, 84384, Note_on_c, 0, 58, 0
2, 84384, Note_on_c, 0, 57, 92
2, 84478, Note_on_c, 0, 57, 0
2, 84480, Note_on_c, 0, 57, 92
2, 84576, Note_on_c, 0, 57, 0
2, 84576, Note_on_c, 0, 61, 92
2, 84670, Note_on_c, 0, 61, 0
2, 84672, Note_on_c, 0, 61, 92
2, 84768, Note_on_c, 0, 61, 0
2, 84768, Note_on_c, 0, 62, 92
2, 84862, Note_on_c, 0, 62, 0
2, 84864, Note_on_c, 0, 62, 92
2, 84960, Note_on_c, 0, 62, 0
2, 84960, Note_on_c, 0, 58, 92
2, 85054, Note_on_c, 0, 58, 0
2, 85056, Note_on_c, 0, 58, 127
2, 85152, Note_on_c, 0, 58, 0
2, 85152, Note_on_c, 0, 57, 92
2, 85246, Note_on_c, 0, 57, 0
2, 85248, Note_on_c, 0, 57, 92
2, 85344, Note_on_c, 0, 57, 0
2, 85344, Note_on_c, 0, 61, 92
2, 85438, Note_on_c, 0, 61, 0
2, 85440, Note_on_c, 0, 61, 92
2, 85536, Note_on_c, 0, 61, 0
2, 85536, Note_on_c, 0, 62, 92
2, 85630, Note_on_c, 0, 62, 0
2, 85632, Note_on_c, 0, 62, 92
2, 85728, Note_on_c, 0, 62, 0
2, 85728, Note_on_c, 0, 58, 92
2, 85822, Note_on_c, 0, 58, 0
2, 85824, Note_on_c, 0, 58, 127
2, 85920, Note_on_c, 0, 58, 0
2, 85920, Note_on_c, 0, 57, 92
2, 86014, Note_on_c, 0, 57, 0
2, 86016, Note_on_c, 0, 57, 92
2, 86110, Note_on_c, 0, 57, 0
2, 86112, Note_on_c, 0, 58, 92
2, 86206, Note_on_c, 0, 58, 0
2, 86208, Note_on_c, 0, 59, 127
2, 86302, Note_on_c, 0, 59, 0
2, 86304, Note_on_c, 0, 60, 92
2, 86398, Note_on_c, 0, 60, 0
2, 86400, Note_on_c, 0, 61, 92
2, 86494, Note_on_c, 0, 61, 0
2, 86496, Note_on_c, 0, 62, 92
2, 86590, Note_on_c, 0, 62, 0
2, 86592, Note_on_c, 0, 63, 92
2, 86686, Note_on_c, 0, 63, 0
2, 86688, Note_on_c, 0, 64, 92
2, 86782, Note_on_c, 0, 64, 0
2, 86784, Note_on_c, 0, 65, 92
2, 86878, Note_on_c, 0, 65, 0
2, 86880, Note_on_c, 0, 66, 92
2, 86974, Note_on_c, 0, 66, 0
2, 86976, Note_on_c, 0, 67, 92
2, 87070, Note_on_c, 0, 67, 0
2, 87072, Note_on_c, 0, 68, 92
2, 87166, Note_on_c, 0, 68, 0
2, 87168, Note_on_c, 0, 69, 92
2, 87262, Note_on_c, 0, 69, 0
2, 87264, Note_on_c, 0, 70, 92
2, 87358, Note_on_c, 0, 70, 0
2, 87360, Note_on_c, 0, 61, 92
2, 87454, Note_on_c, 0, 61, 0
2, 87456, Note_on_c, 0, 69, 92
2, 87550, Note_on_c, 0, 69, 0
2, 87552, Note_on_c, 0, 62, 92
2, 87614, Note_on_c, 0, 62, 0
2, 87616, Note_on_c, 0, 57, 92
2, 87678, Note_on_c, 0, 57, 0
2, 87680, Note_on_c, 0, 53, 92
2, 87742, Note_on_c, 0, 53, 0
2, 88896, Note_on_c, 0, 69, 45
2, 89088, Note_on_c, 0, 69, 0
2, 89088, Note_on_c, 0, 68, 45
2, 89280, Note_on_c, 0, 68, 0
2, 89280, Note_on_c, 0, 69, 45
2, 89472, Note_on_c, 0, 69, 0
2, 89472, Note_on_c, 0, 70, 45
2, 89664, Note_on_c, 0, 70, 0
2, 89664, Note_on_c, 0, 69, 45
2, 89856, Note_on_c, 0, 69, 0
2, 89856, Note_on_c, 0, 69, 45
2, 90240, Note_on_c, 0, 69, 0
2, 90240, Note_on_c, 0, 69, 45
2, 90624, Note_on_c, 0, 69, 0
2, 90624, Note_on_c, 0, 69, 92
2, 90686, Note_on_c, 0, 69, 0
2, 90688, Note_on_c, 0, 61, 92
2, 90750, Note_on_c, 0, 61, 0
2, 90752, Note_on_c, 0, 55, 92
2, 90814, Note_on_c, 0, 55, 0
2, 91968, Note_on_c, 0, 69, 45
2, 92160, Note_on_c, 0, 69, 0
2, 92160, Note_on_c, 0, 68, 45
2, 92352, Note_on_c, 0, 68, 0
2, 92352, Note_on_c, 0, 69, 45
2, 92544, Note_on_c, 0, 69, 0
2, 92544, Note_on_c, 0, 70, 45
2, 92736, Note_on_c, 0, 70, 0
2, 92736, Note_on_c, 0, 69, 45
2, 92928, Note_on_c, 0, 69, 0
2, 92928, Note_on_c, 0, 69, 45
2, 93312, Note_on_c, 0, 69, 0
2, 93312, Note_on_c, 0, 69, 45
2, 93696, Note_on_c, 0, 69, 0
2, 93696, Note_on_c, 0, 69, 92
2, 93758, Note_on_c, 0, 69, 0
2, 93760, Note_on_c, 0, 62, 92
2, 93822, Note_on_c, 0, 62, 0
2, 93824, Note_on_c, 0, 57, 92
2, 93886, Note_on_c, 0, 57, 0
2, 93888, Note_on_c, 0, 62, 92
2, 93950, Note_on_c, 0, 62, 0
2, 93952, Note_on_c, 0, 57, 92
2, 94014, Note_on_c, 0, 57, 0
2, 94016, Note_on_c, 0, 62, 92
2, 94078, Note_on_c, 0, 62, 0
2, 94080, Note_on_c, 0, 57, 92
2, 94142, Note_on_c, 0, 57, 0
2, 94144, Note_on_c, 0, 62, 92
2, 94206, Note_on_c, 0, 62, 0
2, 94208, Note_on_c, 0, 57, 92
2, 94270, Note_on_c, 0, 57, 0
2, 94272, Note_on_c, 0, 62, 92
2, 94334, Note_on_c, 0, 62, 0
2, 94336, Note_on_c, 0, 57, 92
2, 94398, Note_on_c, 0, 57, 0
2, 94400, Note_on_c, 0, 62, 92
2, 94462, Note_on_c, 0, 62, 0
2, 94848, Note_on_c, 0, 74, 127
2, 95008, Note_on_c, 0, 74, 0
2, 95232, Note_on_c, 0, 64, 92
2, 95294, Note_on_c, 0, 64, 0
2, 95296, Note_on_c, 0, 59, 92
2, 95358, Note_on_c, 0, 59, 0
2, 95360, Note_on_c, 0, 64, 92
2, 95422, Note_on_c, 0, 64, 0
2, 95424, Note_on_c, 0, 59, 92
2, 95486, Note_on_c, 0, 59, 0
2, 95488, Note_on_c, 0, 64, 92
2, 95550, Note_on_c, 0, 64, 0
2, 95552, Note_on_c, 0, 59, 92
2, 95614, Note_on_c, 0, 59, 0
2, 95616, Note_on_c, 0, 64, 92
2, 95678, Note_on_c, 0, 64, 0
2, 95680, Note_on_c, 0, 59, 92
2, 95742, Note_on_c, 0, 59, 0
2, 95744, Note_on_c, 0, 64, 92
2, 95806, Note_on_c, 0, 64, 0
2, 95808, Note_on_c, 0, 59, 92
2, 95870, Note_on_c, 0, 59, 0
2, 95872, Note_on_c, 0, 64, 92
2, 95934, Note_on_c, 0, 64, 0
2, 95936, Note_on_c, 0, 59, 92
2, 95998, Note_on_c, 0, 59, 0
2, 96384, Note_on_c, 0, 76, 127
2, 96544, Note_on_c, 0, 76, 0
2, 96768, Note_on_c, 0, 65, 92
2, 96830, Note_on_c, 0, 65, 0
2, 96832, Note_on_c, 0, 60, 92
2, 96894, Note_on_c, 0, 60, 0
2, 96896, Note_on_c, 0, 65, 92
2, 96958, Note_on_c, 0, 65, 0
2, 96960, Note_on_c, 0, 60, 92
2, 97022, Note_on_c, 0, 60, 0
2, 97024, Note_on_c, 0, 65, 92
2, 97086, Note_on_c, 0, 65, 0
2, 97088, Note_on_c, 0, 60, 92
2, 97150, Note_on_c, 0, 60, 0
2, 97152, Note_on_c, 0, 65, 92
2, 97214, Note_on_c, 0, 65, 0
2, 97216, Note_on_c, 0, 60, 92
2, 97278, Note_on_c, 0, 60, 0
2, 97280, Note_on_c, 0, 65, 92
2, 97342, Note_on_c, 0, 65, 0
2, 97344, Note_on_c, 0, 60, 92
2, 97406, Note_on_c, 0, 60, 0
2, 97408, Note_on_c, 0, 65, 92
2, 97470, Note_on_c, 0, 65, 0
2, 97472, Note_on_c, 0, 60, 92
2, 97534, Note_on_c, 0, 60, 0
2, 97920, Note_on_c, 0, 77, 127
2, 98080, Note_on_c, 0, 77, 0
2, 98304, Note_on_c, 0, 68, 92
2, 98366, Note_on_c, 0, 68, 0
2, 98368, Note_on_c, 0, 62, 92
2, 98430, Note_on_c, 0, 62, 0
2, 98432, Note_on_c, 0, 68, 92
2, 98494, Note_on_c, 0, 68, 0
2, 98496, Note_on_c, 0, 62, 92
2, 98558, Note_on_c, 0, 62, 0
2, 98560, Note_on_c, 0, 68, 92
2, 98622, Note_on_c, 0, 68, 0
2, 98624, Note_on_c, 0, 62, 92
2, 98686, Note_on_c, 0, 62, 0
2, 98688, Note_on_c, 0, 68, 92
2, 98750, Note_on_c, 0, 68, 0
2, 98752, Note_on_c, 0, 62, 92
2, 98814, Note_on_c, 0, 62, 0
2, 98816, Note_on_c, 0, 68, 92
2, 98878, Note_on_c, 0, 68, 0
2, 98880, Note_on_c, 0, 62, 92
2, 98942, Note_on_c, 0, 62, 0
2, 98944, Note_on_c, 0, 68, 92
2, 99006, Note_on_c, 0, 68, 0
2, 99008, Note_on_c, 0, 62, 92
2, 99070, Note_on_c, 0, 62, 0
2, 99456, Note_on_c, 0, 80, 127
2, 99616, Note_on_c, 0, 80, 0
2, 99840, Note_on_c, 0, 69, 92
2, 99902, Note_on_c, 0, 69, 0
2, 99904, Note_on_c, 0, 64, 92
2, 99966, Note_on_c, 0, 64, 0
2, 99968, Note_on_c, 0, 69, 92
2, 100030, Note_on_c, 0, 69, 0
2, 100032, Note_on_c, 0, 64, 92
2, 100094, Note_on_c, 0, 64, 0
2, 100096, Note_on_c, 0, 69, 92
2, 100158, Note_on_c, 0, 69, 0
2, 100160, Note_on_c, 0, 64, 92
2, 100222, Note_on_c, 0, 64, 0
2, 100224, Note_on_c, 0, 69, 92
2, 100286, Note_on_c, 0, 69, 0
2, 100288, Note_on_c, 0, 64, 92
2, 100350, Note_on_c, 0, 64, 0
2, 100352, Note_on_c, 0, 69, 92
2, 100414, Note_on_c, 0, 69, 0
2, 100416, Note_on_c, 0, 64, 92
2, 100478, Note_on_c, 0, 64, 0
2, 100480, Note_on_c, 0, 69, 92
2, 100542, Note_on_c, 0, 69, 0
2, 100544, Note_on_c, 0, 64, 92
2, 100606, Note_on_c, 0, 64, 0
2, 100608, Note_on_c, 0, 69, 108
2, 100670, Note_on_c, 0, 69, 0
2, 100672, Note_on_c, 0, 72, 108
2, 100734, Note_on_c, 0, 72, 0
2, 100736, Note_on_c, 0, 69, 108
2, 100798, Note_on_c, 0, 69, 0
2, 100800, Note_on_c, 0, 72, 108
2, 100862, Note_on_c, 0, 72, 0
2, 100864, Note_on_c, 0, 69, 108
2, 100926, Note_on_c, 0, 69, 0
2, 100928, Note_on_c, 0, 72, 108
2, 100990, Note_on_c, 0, 72, 0
2, 100992, Note_on_c, 0, 69, 127
2, 100992, Note_on_c, 0, 81, 127
2, 101054, Note_on_c, 0, 69, 0
2, 101056, Note_on_c, 0, 72, 108
2, 101118, Note_on_c, 0, 72, 0
2, 101120, Note_on_c, 0, 69, 108
2, 101182, Note_on_c, 0, 69, 0
2, 101184, Note_on_c, 0, 72, 108
2, 101246, Note_on_c, 0, 72, 0
2, 101248, Note_on_c, 0, 69, 108
2, 101310, Note_on_c, 0, 69, 0
2, 101312, Note_on_c, 0, 72, 108
2, 101374, Note_on_c, 0, 72, 0
2, 101374, Note_on_c, 0, 81, 0
2, 101376, Note_on_c, 0, 69, 108
2, 101438, Note_on_c, 0, 69, 0
2, 101440, Note_on_c, 0, 72, 108
2, 101502, Note_on_c, 0, 72, 0
2, 101504, Note_on_c, 0, 69, 108
2, 101566, Note_on_c, 0, 69, 0
2, 101568, Note_on_c, 0, 72, 108
2, 101630, Note_on_c, 0, 72, 0
2, 101632, Note_on_c, 0, 69, 108
2, 101694, Note_on_c, 0, 69, 0
2, 101696, Note_on_c, 0, 72, 108
2, 101758, Note_on_c, 0, 72, 0
2, 101760, Note_on_c, 0, 69, 127
2, 101760, Note_on_c, 0, 81, 127
2, 101822, Note_on_c, 0, 69, 0
2, 101824, Note_on_c, 0, 72, 108
2, 101886, Note_on_c, 0, 72, 0
2, 101888, Note_on_c, 0, 69, 108
2, 101950, Note_on_c, 0, 69, 0
2, 101952, Note_on_c, 0, 72, 108
2, 102014, Note_on_c, 0, 72, 0
2, 102016, Note_on_c, 0, 69, 108
2, 102078, Note_on_c, 0, 69, 0
2, 102080, Note_on_c, 0, 72, 108
2, 102142, Note_on_c, 0, 72, 0
2, 102142, Note_on_c, 0, 81, 0
2, 102144, Note_on_c, 0, 69, 108
2, 102206, Note_on_c, 0, 69, 0
2, 102208, Note_on_c, 0, 72, 108
2, 102270, Note_on_c, 0, 72, 0
2, 102272, Note_on_c, 0, 69, 108
2, 102334, Note_on_c, 0, 69, 0
2, 102336, Note_on_c, 0, 72, 108
2, 102398, Note_on_c, 0, 72, 0
2, 102400, Note_on_c, 0, 69, 108
2, 102462, Note_on_c, 0, 69, 0
2, 102464, Note_on_c, 0, 72, 108
2, 102526, Note_on_c, 0, 72, 0
2, 102528, Note_on_c, 0, 69, 127
2, 102528, Note_on_c, 0, 81, 127
2, 102590, Note_on_c, 0, 69, 0
2, 102592, Note_on_c, 0, 72, 108
2, 102654, Note_on_c, 0, 72, 0
2, 102656, Note_on_c, 0, 69, 108
2, 102718, Note_on_c, 0, 69, 0
2, 102720, Note_on_c, 0, 72, 108
2, 102782, Note_on_c, 0, 72, 0
2, 102784, Note_on_c, 0, 69, 108
2, 102846, Note_on_c, 0, 69, 0
2, 102848, Note_on_c, 0, 72, 108
2, 102910, Note_on_c, 0, 72, 0
2, 102910, Note_on_c, 0, 81, 0
2, 102912, Note_on_c, 0, 68, 108
2, 102912, Note_on_c, 0, 71, 108
2, 102912, Note_on_c, 0, 80, 108
2, 103072, Note_on_c, 0, 68, 0
2, 103072, Note_on_c, 0, 71, 0
2, 103072, Note_on_c, 0, 80, 0
2, 103488, Note_on_c, 0, 83, 45
2, 103584, Note_on_c, 0, 83, 0
2, 103584, Note_on_c, 0, 80, 45
2, 103678, Note_on_c, 0, 80, 0
2, 103680, Note_on_c, 0, 76, 45
2, 103776, Note_on_c, 0, 76, 0
2, 103776, Note_on_c, 0, 77, 45
2, 103870, Note_on_c, 0, 77, 0
2, 103872, Note_on_c, 0, 77, 45
2, 103968, Note_on_c, 0, 77, 0
2, 103968, Note_on_c, 0, 74, 45
2, 104062, Note_on_c, 0, 74, 0
2, 104256, Note_on_c, 0, 83, 45
2, 104352, Note_on_c, 0, 83, 0
2, 104352, Note_on_c, 0, 80, 45
2, 104446, Note_on_c, 0, 80, 0
2, 104448, Note_on_c, 0, 76, 45
2, 104544, Note_on_c, 0, 76, 0
2, 104544, Note_on_c, 0, 77, 45
2, 104638, Note_on_c, 0, 77, 0
2, 104640, Note_on_c, 0, 77, 45
2, 104736, Note_on_c, 0, 77, 0
2, 104736, Note_on_c, 0, 74, 45
2, 104830, Note_on_c, 0, 74, 0
2, 105024, Note_on_c, 0, 83, 45
2, 105120, Note_on_c, 0, 83, 0
2, 105120, Note_on_c, 0, 80, 45
2, 105214, Note_on_c, 0, 80, 0
2, 105216, Note_on_c, 0, 76, 45
2, 105312, Note_on_c, 0, 76, 0
2, 105312, Note_on_c, 0, 77, 45
2, 105406, Note_on_c, 0, 77, 0
2, 105408, Note_on_c, 0, 77, 45
2, 105504, Note_on_c, 0, 77, 0
2, 105504, Note_on_c, 0, 74, 45
2, 105598, Note_on_c, 0, 74, 0
2, 105600, Note_on_c, 0, 74, 45
2, 105696, Note_on_c, 0, 74, 0
2, 105696, Note_on_c, 0, 72, 45
2, 105790, Note_on_c, 0, 72, 0
2, 105792, Note_on_c, 0, 72, 45
2, 105888, Note_on_c, 0, 72, 0
2, 105888, Note_on_c, 0, 71, 45
2, 105982, Note_on_c, 0, 71, 0
2, 105984, Note_on_c, 0, 71, 45
2, 106080, Note_on_c, 0, 71, 0
2, 106080, Note_on_c, 0, 72, 45
2, 106174, Note_on_c, 0, 72, 0
2, 106176, Note_on_c, 0, 69, 45
2, 106224, Note_on_c, 0, 69, 0
2, 106560, Note_on_c, 0, 84, 45
2, 106656, Note_on_c, 0, 84, 0
2, 106656, Note_on_c, 0, 81, 45
2, 106750, Note_on_c, 0, 81, 0
2, 106752, Note_on_c, 0, 75, 45
2, 106848, Note_on_c, 0, 75, 0
2, 106848, Note_on_c, 0, 76, 45
2, 106942, Note_on_c, 0, 76, 0
2, 106944, Note_on_c, 0, 76, 45
2, 107040, Note_on_c, 0, 76, 0
2, 107040, Note_on_c, 0, 72, 45
2, 107134, Note_on_c, 0, 72, 0
2, 107328, Note_on_c, 0, 84, 45
2, 107424, Note_on_c, 0, 84, 0
2, 107424, Note_on_c, 0, 81, 45
2, 107518, Note_on_c, 0, 81, 0
2, 107520, Note_on_c, 0, 75, 45
2, 107616, Note_on_c, 0, 75, 0
2, 107616, Note_on_c, 0, 76, 45
2, 107710, Note_on_c, 0, 76, 0
2, 107712, Note_on_c, 0, 76, 45
2, 107808, Note_on_c, 0, 76, 0
2, 107808, Note_on_c, 0, 72, 45
2, 107902, Note_on_c, 0, 72, 0
2, 108096, Note_on_c, 0, 84, 45
2, 108192, Note_on_c, 0, 84, 0
2, 108192, Note_on_c, 0, 81, 45
2, 108286, Note_on_c, 0, 81, 0
2, 108288, Note_on_c, 0, 75, 45
2, 108384, Note_on_c, 0, 75, 0
2, 108384, Note_on_c, 0, 76, 45
2, 108478, Note_on_c, 0, 76, 0
2, 108480, Note_on_c, 0, 76, 45
2, 108576, Note_on_c, 0, 76, 0
2, 108576, Note_on_c, 0, 72, 45
2, 108670, Note_on_c, 0, 72, 0
2, 108672, Note_on_c, 0, 72, 45
2, 108768, Note_on_c, 0, 72, 0
2, 108768, Note_on_c, 0, 71, 45
2, 108862, Note_on_c, 0, 71, 0
2, 108864, Note_on_c, 0, 71, 45
2, 108960, Note_on_c, 0, 71, 0
2, 108960, Note_on_c, 0, 69, 45
2, 109054, Note_on_c, 0, 69, 0
2, 109056, Note_on_c, 0, 69, 45
2, 109152, Note_on_c, 0, 69, 0
2, 109152, Note_on_c, 0, 68, 45
2, 109246, Note_on_c, 0, 68, 0
2, 109248, Note_on_c, 0, 71, 45
2, 109296, Note_on_c, 0, 71, 0
2, 109632, Note_on_c, 0, 89, 49
2, 109728, Note_on_c, 0, 89, 0
2, 109728, Note_on_c, 0, 86, 51
2, 109822, Note_on_c, 0, 86, 0
2, 109824, Note_on_c, 0, 85, 53
2, 109920, Note_on_c, 0, 85, 0
2, 109920, Note_on_c, 0, 86, 55
2, 110014, Note_on_c, 0, 86, 0
2, 110016, Note_on_c, 0, 83, 57
2, 110064, Note_on_c, 0, 83, 0
2, 110400, Note_on_c, 0, 89, 67
2, 110496, Note_on_c, 0, 89, 0
2, 110496, Note_on_c, 0, 86, 69
2, 110590, Note_on_c, 0, 86, 0
2, 110592, Note_on_c, 0, 85, 71
2, 110688, Note_on_c, 0, 85, 0
2, 110688, Note_on_c, 0, 86, 73
2, 110782, Note_on_c, 0, 86, 0
2, 110784, Note_on_c, 0, 83, 75
2, 110832, Note_on_c, 0, 83, 0
2, 111168, Note_on_c, 0, 89, 86
2, 111264, Note_on_c, 0, 89, 0
2, 111264, Note_on_c, 0, 86, 89
2, 111358, Note_on_c, 0, 86, 0
2, 111360, Note_on_c, 0, 83, 92
2, 111456, Note_on_c, 0, 83, 0
2, 111456, Note_on_c, 0, 86, 92
2, 111550, Note_on_c, 0, 86, 0
2, 111552, Note_on_c, 0, 80, 92
2, 111648, Note_on_c, 0, 80, 0
2, 111648, Note_on_c, 0, 83, 92
2, 111742, Note_on_c, 0, 83, 0
2, 111744, Note_on_c, 0, 77, 92
2, 111840, Note_on_c, 0, 77, 0
2, 111840, Note_on_c, 0, 80, 92
2, 111934, Note_on_c, 0, 80, 0
2, 111936, Note_on_c, 0, 74, 92
2, 112032, Note_on_c, 0, 74, 0
2, 112032, Note_on_c, 0, 77, 92
2, 112126, Note_on_c, 0, 77, 0
2, 112128, Note_on_c, 0, 71, 92
2, 112224, Note_on_c, 0, 71, 0
2, 112224, Note_on_c, 0, 74, 92
2, 112318, Note_on_c, 0, 74, 0
2, 112320, Note_on_c, 0, 68, 92
2, 112416, Note_on_c, 0, 68, 0
2, 112416, Note_on_c, 0, 71, 92
2, 112510, Note_on_c, 0, 71, 0
2, 112512, Note_on_c, 0, 65, 92
2, 112608, Note_on_c, 0, 65, 0
2, 112608, Note_on_c, 0, 68, 92
2, 112702, Note_on_c, 0, 68, 0
2, 112704, Note_on_c, 0, 62, 92
2, 112800, Note_on_c, 0, 62, 0
2, 112800, Note_on_c, 0, 65, 92
2, 112894, Note_on_c, 0, 65, 0
2, 112896, Note_on_c, 0, 59, 92
2, 112992, Note_on_c, 0, 59, 0
2, 112992, Note_on_c, 0, 62, 92
2, 113086, Note_on_c, 0, 62, 0
2, 113088, Note_on_c, 0, 56, 92
2, 113184, Note_on_c, 0, 56, 0
2, 113184, Note_on_c, 0, 59, 92
2, 113280, Note_on_c, 0, 59, 0
2, 113280, Note_on_c, 0, 50, 92
2, 113376, Note_on_c, 0, 50, 0
2, 113376, Note_on_c, 0, 59, 92
2, 113472, Note_on_c, 0, 59, 0
2, 113472, Note_on_c, 0, 56, 92
2, 113568, Note_on_c, 0, 56, 0
2, 113568, Note_on_c, 0, 50, 92
2, 113664, Note_on_c, 0, 50, 0
2, 113664, Note_on_c, 0, 48, 127
2, 113824, Note_on_c, 0, 48, 0
2, 113856, Note_on_c, 0, 48, 127
2, 113856, Note_on_c, 0, 52, 127
2, 113856, Note_on_c, 0, 57, 127
2, 114048, Note_on_c, 0, 48, 0
2, 114048, Note_on_c, 0, 52, 0
2, 114048, Note_on_c, 0, 57, 0
2, 114048, Note_on_c, 0, 50, 127
2, 114048, Note_on_c, 0, 53, 127
2, 114048, Note_on_c, 0, 58, 127
2, 114816, Note_on_c, 0, 58, 0
2, 114816, Note_on_c, 0, 57, 92
2, 115008, Note_on_c, 0, 57, 0
2, 115008, Note_on_c, 0, 56, 92
2, 115200, Note_on_c, 0, 50, 0
2, 115200, Note_on_c, 0, 53, 0
2, 115200, Note_on_c, 0, 56, 0
2, 115200, Note_on_c, 0, 48, 127
2, 115200, Note_on_c, 0, 52, 127
2, 115200, Note_on_c, 0, 57, 127
2, 115360, Note_on_c, 0, 48, 0
2, 115360, Note_on_c, 0, 52, 0
2, 115360, Note_on_c, 0, 57, 0
2, 115392, Note_on_c, 0, 60, 127
2, 115392, Note_on_c, 0, 64, 127
2, 115392, Note_on_c, 0, 69, 127
2, 115584, Note_on_c, 0, 60, 0
2, 115584, Note_on_c, 0, 64, 0
2, 115584, Note_on_c, 0, 69, 0
2, 115584, Note_on_c, 0, 62, 127
2, 115584, Note_on_c, 0, 65, 127
2, 115584, Note_on_c, 0, 70, 127
2, 116352, Note_on_c, 0, 70, 0
2, 116352, Note_on_c, 0, 69, 92
2, 116544, Note_on_c, 0, 69, 0
2, 116544, Note_on_c, 0, 68, 92
2, 116736, Note_on_c, 0, 62, 0
2, 116736, Note_on_c, 0, 65, 0
2, 116736, Note_on_c, 0, 68, 0
2, 116736, Note_on_c, 0, 60, 127
2, 116736, Note_on_c, 0, 64, 127
2, 116736, Note_on_c, 0, 69, 127
2, 116896, Note_on_c, 0, 60, 0
2, 116896, Note_on_c, 0, 64, 0
2, 116896, Note_on_c, 0, 69, 0
2, 116928, Note_on_c, 0, 69, 127
2, 116928, Note_on_c, 0, 81, 127
2, 117120, Note_on_c, 0, 69, 0
2, 117120, Note_on_c, 0, 81, 0
2, 117120, Note_on_c, 0, 70, 92
2, 117120, Note_on_c, 0, 82, 92
2, 117696, Note_on_c, 0, 70, 0
2, 117696, Note_on_c, 0, 82, 0
2, 117696, Note_on_c, 0, 71, 127
2, 117696, Note_on_c, 0, 83, 127
2, 117888, Note_on_c, 0, 71, 0
2, 117888, Note_on_c, 0, 83, 0
2, 117888, Note_on_c, 0, 72, 92
2, 117888, Note_on_c, 0, 84, 92
2, 118464, Note_on_c, 0, 72, 0
2, 118464, Note_on_c, 0, 84, 0
2, 118464, Note_on_c, 0, 73, 92
2, 118464, Note_on_c, 0, 85, 92
2, 118656, Note_on_c, 0, 73, 0
2, 118656, Note_on_c, 0, 85, 0
2, 118656, Note_on_c, 0, 74, 81
2, 118656, Note_on_c, 0, 86, 81
2, 118848, Note_on_c, 0, 74, 0
2, 118848, Note_on_c, 0, 86, 0
2, 118848, Note_on_c, 0, 76, 69
2, 118848, Note_on_c, 0, 88, 69
2, 119040, Note_on_c, 0, 76, 0
2, 119040, Note_on_c, 0, 88, 0
2, 119040, Note_on_c, 0, 77, 57
2, 119040, Note_on_c, 0, 89, 57
2, 119232, Note_on_c, 0, 77, 0
2, 119232, Note_on_c, 0, 89, 0
2, 119232, Note_on_c, 0, 65, 45
2, 119232, Note_on_c, 0, 77, 45
2, 119616, Note_on_c, 0, 65, 0
2, 119616, Note_on_c, 0, 77, 0
2, 119616, Note_on_c, 0, 65, 45
2, 119616, Note_on_c, 0, 76, 45
2, 119808, Note_on_c, 0, 65, 0
2, 119808, Note_on_c, 0, 76, 0
2, 119808, Note_on_c, 0, 69, 92
2, 119856, Note_on_c, 0, 69, 0
2, 120384, Note_on_c, 0, 61, 127
2, 120384, Note_on_c, 0, 64, 127
2, 120544, Note_on_c, 0, 61, 0
2, 120544, Note_on_c, 0, 64, 0
2, 120576, Note_on_c, 0, 62, 127
2, 120576, Note_on_c, 0, 65, 127
2, 120736, Note_on_c, 0, 62, 0
2, 120736, Note_on_c, 0, 65, 0
2, 120768, Note_on_c, 0, 65, 92
2, 120768, Note_on_c, 0, 74, 92
2, 121104, Note_on_c, 0, 65, 0
2, 121104, Note_on_c, 0, 74, 0
2, 121152, Note_on_c, 0, 65, 127
2, 121152, Note_on_c, 0, 74, 127
2, 121312, Note_on_c, 0, 65, 0
2, 121312, Note_on_c, 0, 74, 0
2, 121344, Note_on_c, 0, 64, 127
2, 121344, Note_on_c, 0, 73, 127
2, 121504, Note_on_c, 0, 64, 0
2, 121504, Note_on_c, 0, 73, 0
2, 121920, Note_on_c, 0, 61, 127
2, 121920, Note_on_c, 0, 64, 127
2, 122080, Note_on_c, 0, 61, 0
2, 122080, Note_on_c, 0, 64, 0
2, 122112, Note_on_c, 0, 62, 127
2, 122112, Note_on_c, 0, 65, 127
2, 122272, Note_on_c, 0, 62, 0
2, 122272, Note_on_c, 0, 65, 0
2, 122304, Note_on_c, 0, 74, 92
2, 122304, Note_on_c, 0, 77, 92
2, 122640, Note_on_c, 0, 74, 0
2, 122640, Note_on_c, 0, 77, 0
2, 122688, Note_on_c, 0, 74, 127
2, 122688, Note_on_c, 0, 77, 127
2, 122848, Note_on_c, 0, 74, 0
2, 122848, Note_on_c, 0, 77, 0
2, 122880, Note_on_c, 0, 73, 127
2, 122880, Note_on_c, 0, 76, 127
2, 123040, Note_on_c, 0, 73, 0
2, 123040, Note_on_c, 0, 76, 0
2, 123456, Note_on_c, 0, 61, 127
2, 123456, Note_on_c, 0, 64, 127
2, 123616, Note_on_c, 0, 61, 0
2, 123616, Note_on_c, 0, 64, 0
2, 123648, Note_on_c, 0, 62, 127
2, 123648, Note_on_c, 0, 65, 127
2, 123808, Note_on_c, 0, 62, 0
2, 123808, Note_on_c, 0, 65, 0
2, 123840, Note_on_c, 0, 74, 92
2, 123840, Note_on_c, 0, 77, 92
2, 124176, Note_on_c, 0, 74, 0
2, 124176, Note_on_c, 0, 77, 0
2, 124224, Note_on_c, 0, 86, 108
2, 124224, Note_on_c, 0, 89, 108
2, 124576, Note_on_c, 0, 86, 0
2, 124576, Note_on_c, 0, 89, 0
2, 124992, Note_on_c, 0, 74, 45
2, 124992, Note_on_c, 0, 77, 45
2, 125184, Note_on_c, 0, 74, 0
2, 125184, Note_on_c, 0, 77, 0
2, 125184, Note_on_c, 0, 72, 45
2, 125184, Note_on_c, 0, 76, 45
2, 125232, Note_on_c, 0, 72, 0
2, 125232, Note_on_c, 0, 76, 0
2, 125760, Note_on_c, 0, 84, 45
2, 125760, Note_on_c, 0, 88, 45
2, 125952, Note_on_c, 0, 84, 0
2, 125952, Note_on_c, 0, 88, 0
2, 125952, Note_on_c, 0, 82, 45
2, 125952, Note_on_c, 0, 86, 45
2, 126000, Note_on_c, 0, 82, 0
2, 126000, Note_on_c, 0, 86, 0
2, 126528, Note_on_c, 0, 71, 45
2, 126528, Note_on_c, 0, 74, 45
2, 126720, Note_on_c, 0, 71, 0
2, 126720, Note_on_c, 0, 74, 0
2, 126720, Note_on_c, 0, 69, 45
2, 126720, Note_on_c, 0, 72, 45
2, 126768, Note_on_c, 0, 69, 0
2, 126768, Note_on_c, 0, 72, 0
2, 127296, Note_on_c, 0, 81, 45
2, 127296, Note_on_c, 0, 84, 45
2, 127488, Note_on_c, 0, 81, 0
2, 127488, Note_on_c, 0, 84, 0
2, 127488, Note_on_c, 0, 81, 45
2, 127488, Note_on_c, 0, 83, 45
2, 127648, Note_on_c, 0, 81, 0
2, 127648, Note_on_c, 0, 83, 0
2, 128064, Note_on_c, 0, 69, 45
2, 128064, Note_on_c, 0, 71, 45
2, 128256, Note_on_c, 0, 69, 0
2, 128256, Note_on_c, 0, 71, 0
2, 128256, Note_on_c, 0, 68, 45
2, 128256, Note_on_c, 0, 70, 45
2, 128304, Note_on_c, 0, 68, 0
2, 128304, Note_on_c, 0, 70, 0
2, 128832, Note_on_c, 0, 71, 45
2, 128832, Note_on_c, 0, 80, 45
2, 129024, Note_on_c, 0, 71, 0
2, 129024, Note_on_c, 0, 80, 0
2, 129024, Note_on_c, 0, 81, 45
2, 129120, Note_on_c, 0, 81, 0
2, 129120, Note_on_c, 0, 76, 45
2, 129216, Note_on_c, 0, 76, 0
2, 129216, Note_on_c, 0, 72, 45
2, 129312, Note_on_c, 0, 72, 0
2, 129312, Note_on_c, 0, 84, 45
2, 129408, Note_on_c, 0, 84, 0
2, 129408, Note_on_c, 0, 83, 45
2, 129504, Note_on_c, 0, 83, 0
2, 129504, Note_on_c, 0, 80, 45
2, 129600, Note_on_c, 0, 80, 0
2, 129600, Note_on_c, 0, 76, 45
2, 129696, Note_on_c, 0, 76, 0
2, 129696, Note_on_c, 0, 86, 45
2, 129792, Note_on_c, 0, 86, 0
2, 129792, Note_on_c, 0, 84, 45
2, 129888, Note_on_c, 0, 84, 0
2, 129888, Note_on_c, 0, 81, 45
2, 129984, Note_on_c, 0, 81, 0
2, 129984, Note_on_c, 0, 76, 45
2, 130080, Note_on_c, 0, 76, 0
2, 130080, Note_on_c, 0, 88, 45
2, 130176, Note_on_c, 0, 88, 0
2, 130176, Note_on_c, 0, 87, 45
2, 130272, Note_on_c, 0, 87, 0
2, 130272, Note_on_c, 0, 88, 45
2, 130368, Note_on_c, 0, 88, 0
2, 130368, Note_on_c, 0, 87, 45
2, 130464, Note_on_c, 0, 87, 0
2, 130464, Note_on_c, 0, 88, 45
2, 130560, Note_on_c, 0, 88, 0
2, 130560, Note_on_c, 0, 76, 45
2, 130560, Note_on_c, 0, 84, 45
2, 130560, Note_on_c, 0, 88, 45
2, 130944, Note_on_c, 0, 76, 0
2, 130944, Note_on_c, 0, 84, 0
2, 130944, Note_on_c, 0, 88, 0
2, 130944, Note_on_c, 0, 74, 45
2, 130944, Note_on_c, 0, 83, 45
2, 130944, Note_on_c, 0, 86, 45
2, 131328, Note_on_c, 0, 74, 0
2, 131328, Note_on_c, 0, 83, 0
2, 131328, Note_on_c, 0, 86, 0
2, 131328, Note_on_c, 0, 72, 45
2, 131328, Note_on_c, 0, 81, 45
2, 131328, Note_on_c, 0, 84, 45
2, 131712, Note_on_c, 0, 72, 0
2, 131712, Note_on_c, 0, 81, 0
2, 131712, Note_on_c, 0, 84, 0
2, 131712, Note_on_c, 0, 71, 45
2, 131712, Note_on_c, 0, 80, 45
2, 131712, Note_on_c, 0, 83, 45
2, 132096, Note_on_c, 0, 71, 0
2, 132096, Note_on_c, 0, 80, 0
2, 132096, Note_on_c, 0, 83, 0
2, 132096, Note_on_c, 0, 81, 45
2, 132190, Note_on_c, 0, 81, 0
2, 132192, Note_on_c, 0, 76, 45
2, 132286, Note_on_c, 0, 76, 0
2, 132288, Note_on_c, 0, 72, 45
2, 132382, Note_on_c, 0, 72, 0
2, 132384, Note_on_c, 0, 84, 45
2, 132478, Note_on_c, 0, 84, 0
2, 132480, Note_on_c, 0, 83, 45
2, 132574, Note_on_c, 0, 83, 0
2, 132576, Note_on_c, 0, 80, 45
2, 132670, Note_on_c, 0, 80, 0
2, 132672, Note_on_c, 0, 76, 45
2, 132766, Note_on_c, 0, 76, 0
2, 132768, Note_on_c, 0, 86, 45
2, 132862, Note_on_c, 0, 86, 0
2, 132864, Note_on_c, 0, 84, 45
2, 132958, Note_on_c, 0, 84, 0
2, 132960, Note_on_c, 0, 81, 45
2, 133054, Note_on_c, 0, 81, 0
2, 133056, Note_on_c, 0, 76, 45
2, 133150, Note_on_c, 0, 76, 0
2, 133152, Note_on_c, 0, 88, 45
2, 133246, Note_on_c, 0, 88, 0
2, 133248, Note_on_c, 0, 87, 45
2, 133342, Note_on_c, 0, 87, 0
2, 133344, Note_on_c, 0, 88, 45
2, 133438, Note_on_c, 0, 88, 0
2, 133440, Note_on_c, 0, 87, 45
2, 133534, Note_on_c, 0, 87, 0
2, 133536, Note_on_c, 0, 88, 45
2, 133630, Note_on_c, 0, 88, 0
2, 133632, Note_on_c, 0, 76, 45
2, 133824, Note_on_c, 0, 84, 45
2, 133824, Note_on_c, 0, 88, 45
2, 134160, Note_on_c, 0, 76, 0
2, 134160, Note_on_c, 0, 84, 0
2, 134160, Note_on_c, 0, 88, 0
2, 134208, Note_on_c, 0, 74, 45
2, 134208, Note_on_c, 0, 83, 45
2, 134208, Note_on_c, 0, 86, 45
2, 134560, Note_on_c, 0, 74, 0
2, 134560, Note_on_c, 0, 82, 0
2, 134560, Note_on_c, 0, 86, 0
2, 134592, Note_on_c, 0, 72, 45
2, 134592, Note_on_c, 0, 81, 45
2, 134592, Note_on_c, 0, 84, 45
2, 134928, Note_on_c, 0, 72, 0
2, 134928, Note_on_c, 0, 81, 0
2, 134928, Note_on_c, 0, 84, 0
2, 134976, Note_on_c, 0, 71, 45
2, 134976, Note_on_c, 0, 80, 45
2, 134976, Note_on_c, 0, 83, 45
2, 135136, Note_on_c, 0, 71, 0
2, 135136, Note_on_c, 0, 80, 0
2, 135136, Note_on_c, 0, 83, 0
2, 135168, Note_on_c, 0, 81, 45
2, 135262, Note_on_c, 0, 81, 0
2, 135264, Note_on_c, 0, 76, 45
2, 135358, Note_on_c, 0, 76, 0
2, 135360, Note_on_c, 0, 72, 45
2, 135454, Note_on_c, 0, 72, 0
2, 135456, Note_on_c, 0, 84, 45
2, 135550, Note_on_c, 0, 84, 0
2, 135552, Note_on_c, 0, 83, 45
2, 135646, Note_on_c, 0, 83, 0
2, 135648, Note_on_c, 0, 80, 45
2, 135742, Note_on_c, 0, 80, 0
2, 135744, Note_on_c, 0, 76, 45
2, 135838, Note_on_c, 0, 76, 0
2, 135840, Note_on_c, 0, 86, 45
2, 135934, Note_on_c, 0, 86, 0
2, 135936, Note_on_c, 0, 84, 45
2, 136030, Note_on_c, 0, 84, 0
2, 136032, Note_on_c, 0, 81, 45
2, 136126, Note_on_c, 0, 81, 0
2, 136128, Note_on_c, 0, 76, 45
2, 136222, Note_on_c, 0, 76, 0
2, 136224, Note_on_c, 0, 88, 45
2, 136318, Note_on_c, 0, 88, 0
2, 136320, Note_on_c, 0, 87, 45
2, 136414, Note_on_c, 0, 87, 0
2, 136416, Note_on_c, 0, 88, 45
2, 136510, Note_on_c, 0, 88, 0
2, 136512, Note_on_c, 0, 87, 45
2, 136606, Note_on_c, 0, 87, 0
2, 136608, Note_on_c, 0, 88, 45
2, 136702, Note_on_c, 0, 88, 0
2, 136704, Note_on_c, 0, 84, 45
2, 136798, Note_on_c, 0, 84, 0
2, 136800, Note_on_c, 0, 81, 45
2, 136894, Note_on_c, 0, 81, 0
2, 136896, Note_on_c, 0, 76, 45
2, 136990, Note_on_c, 0, 76, 0
2, 136992, Note_on_c, 0, 88, 45
2, 137086, Note_on_c, 0, 88, 0
2, 137088, Note_on_c, 0, 87, 45
2, 137182, Note_on_c, 0, 87, 0
2, 137184, Note_on_c, 0, 88, 45
2, 137278, Note_on_c, 0, 88, 0
2, 137280, Note_on_c, 0, 87, 45
2, 137374, Note_on_c, 0, 87, 0
2, 137376, Note_on_c, 0, 88, 45
2, 137470, Note_on_c, 0, 88, 0
2, 137472, Note_on_c, 0, 84, 45
2, 137566, Note_on_c, 0, 84, 0
2, 137568, Note_on_c, 0, 81, 45
2, 137662, Note_on_c, 0, 81, 0
2, 137664, Note_on_c, 0, 76, 45
2, 137758, Note_on_c, 0, 76, 0
2, 137760, Note_on_c, 0, 88, 45
2, 137854, Note_on_c, 0, 88, 0
2, 137856, Note_on_c, 0, 87, 45
2, 137950, Note_on_c, 0, 87, 0
2, 137952, Note_on_c, 0, 88, 45
2, 138046, Note_on_c, 0, 88, 0
2, 138048, Note_on_c, 0, 87, 45
2, 138142, Note_on_c, 0, 87, 0
2, 138144, Note_on_c, 0, 88, 45
2, 138238, Note_on_c, 0, 88, 0
2, 138240, Note_on_c, 0, 81, 45
2, 138400, Note_on_c, 0, 81, 0
2, 138624, Note_on_c, 0, 57, 45
2, 138960, Note_on_c, 0, 57, 0
2, 139008, Note_on_c, 0, 57, 45
2, 139344, Note_on_c, 0, 57, 0
2, 139392, Note_on_c, 0, 57, 45
2, 139728, Note_on_c, 0, 57, 0
2, 139776, Note_on_c, 0, 57, 45
2, 141264, Note_on_c, 0, 57, 0
2, 141312, Note_on_c, 0, 55, 45
2, 142800, Note_on_c, 0, 55, 0
2, 144000, Note_on_c, 0, 74, 30
2, 144528, Note_on_c, 0, 74, 0
2, 146016, Note_on_c, 0, 78, 30
2, 146544, Note_on_c, 0, 78, 0
2, 147936, Note_on_c, 0, 82, 30
2, 148128, Note_on_c, 0, 82, 0
2, 148704, Note_on_c, 0, 54, 108
2, 148704, Note_on_c, 0, 57, 108
2, 148766, Note_on_c, 0, 54, 0
2, 148766, Note_on_c, 0, 57, 0
2, 148768, Note_on_c, 0, 61, 108
2, 148830, Note_on_c, 0, 61, 0
2, 148832, Note_on_c, 0, 54, 108
2, 148832, Note_on_c, 0, 57, 108
2, 148894, Note_on_c, 0, 54, 0
2, 148894, Note_on_c, 0, 57, 0
2, 148896, Note_on_c, 0, 61, 108
2, 148958, Note_on_c, 0, 61, 0
2, 148960, Note_on_c, 0, 54, 108
2, 148960, Note_on_c, 0, 57, 108
2, 149022, Note_on_c, 0, 54, 0
2, 149022, Note_on_c, 0, 57, 0
2, 149024, Note_on_c, 0, 61, 108
2, 149086, Note_on_c, 0, 61, 0
2, 149088, Note_on_c, 0, 54, 108
2, 149088, Note_on_c, 0, 57, 108
2, 149150, Note_on_c, 0, 54, 0
2, 149150, Note_on_c, 0, 57, 0
2, 149152, Note_on_c, 0, 61, 108
2, 149214, Note_on_c, 0, 61, 0
2, 149216, Note_on_c, 0, 54, 108
2, 149216, Note_on_c, 0, 57, 108
2, 149278, Note_on_c, 0, 54, 0
2, 149278, Note_on_c, 0, 57, 0
2, 149280, Note_on_c, 0, 61, 108
2, 149342, Note_on_c, 0, 61, 0
2, 149344, Note_on_c, 0, 54, 108
2, 149344, Note_on_c, 0, 57, 108
2, 149406, Note_on_c, 0, 54, 0
2, 149406, Note_on_c, 0, 57, 0
2, 149408, Note_on_c, 0, 61, 108
2, 149470, Note_on_c, 0, 61, 0
2, 149472, Note_on_c, 0, 54, 108
2, 149472, Note_on_c, 0, 57, 108
2, 149534, Note_on_c, 0, 54, 0
2, 149534, Note_on_c, 0, 57, 0
2, 149536, Note_on_c, 0, 61, 108
2, 149598, Note_on_c, 0, 61, 0
2, 149600, Note_on_c, 0, 54, 108
2, 149600, Note_on_c, 0, 57, 108
2, 149662, Note_on_c, 0, 54, 0
2, 149662, Note_on_c, 0, 57, 0
2, 149664, Note_on_c, 0, 61, 108
2, 149726, Note_on_c, 0, 61, 0
2, 149728, Note_on_c, 0, 54, 108
2, 149728, Note_on_c, 0, 57, 108
2, 149790, Note_on_c, 0, 54, 0
2, 149790, Note_on_c, 0, 57, 0
2, 149792, Note_on_c, 0, 61, 108
2, 149854, Note_on_c, 0, 61, 0
2, 149856, Note_on_c, 0, 54, 108
2, 149856, Note_on_c, 0, 57, 108
2, 149918, Note_on_c, 0, 54, 0
2, 149918, Note_on_c, 0, 57, 0
2, 149920, Note_on_c, 0, 61, 108
2, 149982, Note_on_c, 0, 61, 0
2, 149984, Note_on_c, 0, 54, 108
2, 149984, Note_on_c, 0, 57, 108
2, 150046, Note_on_c, 0, 54, 0
2, 150046, Note_on_c, 0, 57, 0
2, 150048, Note_on_c, 0, 61, 45
2, 150110, Note_on_c, 0, 61, 0
2, 150112, Note_on_c, 0, 54, 45
2, 150112, Note_on_c, 0, 57, 45
2, 150174, Note_on_c, 0, 54, 0
2, 150174, Note_on_c, 0, 57, 0
2, 150176, Note_on_c, 0, 61, 45
2, 150238, Note_on_c, 0, 61, 0
2, 150240, Note_on_c, 0, 54, 45
2, 150240, Note_on_c, 0, 57, 45
2, 150302, Note_on_c, 0, 54, 0
2, 150302, Note_on_c, 0, 57, 0
2, 150304, Note_on_c, 0, 61, 45
2, 150366, Note_on_c, 0, 61, 0
2, 150368, Note_on_c, 0, 54, 45
2, 150368, Note_on_c, 0, 57, 45
2, 150430, Note_on_c, 0, 54, 0
2, 150430, Note_on_c, 0, 57, 0
2, 150432, Note_on_c, 0, 61, 45
2, 150494, Note_on_c, 0, 61, 0
2, 150496, Note_on_c, 0, 54, 45
2, 150496, Note_on_c, 0, 57, 45
2, 150558, Note_on_c, 0, 54, 0
2, 150558, Note_on_c, 0, 57, 0
2, 150560, Note_on_c, 0, 61, 45
2, 150622, Note_on_c, 0, 61, 0
2, 150624, Note_on_c, 0, 54, 45
2, 150624, Note_on_c, 0, 57, 45
2, 150686, Note_on_c, 0, 54, 0
2, 150686, Note_on_c, 0, 57, 0
2, 150688, Note_on_c, 0, 61, 45
2, 150750, Note_on_c, 0, 61, 0
2, 150752, Note_on_c, 0, 54, 45
2, 150752, Note_on_c, 0, 57, 45
2, 150814, Note_on_c, 0, 54, 0
2, 150814, Note_on_c, 0, 57, 0
2, 150816, Note_on_c, 0, 61, 45
2, 150878, Note_on_c, 0, 61, 0
2, 150880, Note_on_c, 0, 54, 45
2, 150880, Note_on_c, 0, 57, 45
2, 150942, Note_on_c, 0, 54, 0
2, 150942, Note_on_c, 0, 57, 0
2, 150944, Note_on_c, 0, 61, 45
2, 151006, Note_on_c, 0, 61, 0
2, 151008, Note_on_c, 0, 54, 45
2, 151008, Note_on_c, 0, 57, 45
2, 151070, Note_on_c, 0, 54, 0
2, 151070, Note_on_c, 0, 57, 0
2, 151072, Note_on_c, 0, 61, 45
2, 151134, Note_on_c, 0, 61, 0
2, 151136, Note_on_c, 0, 54, 45
2, 151136, Note_on_c, 0, 57, 45
2, 151198, Note_on_c, 0, 54, 0
2, 151198, Note_on_c, 0, 57, 0
2, 151200, Note_on_c, 0, 61, 45
2, 151262, Note_on_c, 0, 61, 0
2, 151264, Note_on_c, 0, 54, 45
2, 151264, Note_on_c, 0, 57, 45
2, 151326, Note_on_c, 0, 54, 0
2, 151326, Note_on_c, 0, 57, 0
2, 151328, Note_on_c, 0, 61, 45
2, 151390, Note_on_c, 0, 61, 0
2, 151392, Note_on_c, 0, 54, 45
2, 151392, Note_on_c, 0, 57, 45
2, 151454, Note_on_c, 0, 54, 0
2, 151454, Note_on_c, 0, 57, 0
2, 151456, Note_on_c, 0, 61, 45
2, 151518, Note_on_c, 0, 61, 0
2, 151520, Note_on_c, 0, 54, 45
2, 151520, Note_on_c, 0, 57, 45
2, 151582, Note_on_c, 0, 54, 0
2, 151582, Note_on_c, 0, 57, 0
2, 151584, Note_on_c, 0, 61, 45
2, 151646, Note_on_c, 0, 61, 0
2, 151648, Note_on_c, 0, 54, 45
2, 151648, Note_on_c, 0, 57, 45
2, 151710, Note_on_c, 0, 54, 0
2, 151710, Note_on_c, 0, 57, 0
2, 151712, Note_on_c, 0, 61, 45
2, 151774, Note_on_c, 0, 61, 0
2, 151776, Note_on_c, 0, 53, 92
2, 151776, Note_on_c, 0, 59, 92
2, 151838, Note_on_c, 0, 53, 0
2, 151838, Note_on_c, 0, 59, 0
2, 151840, Note_on_c, 0, 61, 92
2, 151902, Note_on_c, 0, 61, 0
2, 151904, Note_on_c, 0, 53, 92
2, 151904, Note_on_c, 0, 59, 92
2, 151966, Note_on_c, 0, 53, 0
2, 151966, Note_on_c, 0, 59, 0
2, 151968, Note_on_c, 0, 61, 92
2, 152030, Note_on_c, 0, 61, 0
2, 152032, Note_on_c, 0, 53, 92
2, 152032, Note_on_c, 0, 59, 92
2, 152094, Note_on_c, 0, 53, 0
2, 152094, Note_on_c, 0, 59, 0
2, 152096, Note_on_c, 0, 61, 92
2, 152158, Note_on_c, 0, 61, 0
2, 152160, Note_on_c, 0, 53, 92
2, 152160, Note_on_c, 0, 59, 92
2, 152222, Note_on_c, 0, 53, 0
2, 152222, Note_on_c, 0, 59, 0
2, 152224, Note_on_c, 0, 61, 92
2, 152286, Note_on_c, 0, 61, 0
2, 152288, Note_on_c, 0, 53, 92
2, 152288, Note_on_c, 0, 59, 92
2, 152350, Note_on_c, 0, 53, 0
2, 152350, Note_on_c, 0, 59, 0
2, 152352, Note_on_c, 0, 61, 92
2, 152414, Note_on_c, 0, 61, 0
2, 152416, Note_on_c, 0, 53, 92
2, 152416, Note_on_c, 0, 59, 92
2, 152478, Note_on_c, 0, 53, 0
2, 152478, Note_on_c, 0, 59, 0
2, 152480, Note_on_c, 0, 61, 92
2, 152542, Note_on_c, 0, 61, 0
2, 152544, Note_on_c, 0, 53, 92
2, 152544, Note_on_c, 0, 59, 92
2, 152606, Note_on_c, 0, 53, 0
2, 152606, Note_on_c, 0, 59, 0
2, 152608, Note_on_c, 0, 61, 92
2, 152670, Note_on_c, 0, 61, 0
2, 152672, Note_on_c, 0, 53, 92
2, 152672, Note_on_c, 0, 59, 92
2, 152734, Note_on_c, 0, 53, 0
2, 152734, Note_on_c, 0, 59, 0
2, 152736, Note_on_c, 0, 61, 92
2, 152798, Note_on_c, 0, 61, 0
2, 152800, Note_on_c, 0, 53, 92
2, 152800, Note_on_c, 0, 59, 92
2, 152862, Note_on_c, 0, 53, 0
2, 152862, Note_on_c, 0, 59, 0
2, 152864, Note_on_c, 0, 61, 92
2, 152926, Note_on_c, 0, 61, 0
2, 152928, Note_on_c, 0, 53, 92
2, 152928, Note_on_c, 0, 59, 92
2, 152990, Note_on_c, 0, 53, 0
2, 152990, Note_on_c, 0, 59, 0
2, 152992, Note_on_c, 0, 61, 92
2, 153054, Note_on_c, 0, 61, 0
2, 153056, Note_on_c, 0, 53, 92
2, 153056, Note_on_c, 0, 59, 92
2, 153118, Note_on_c, 0, 53, 0
2, 153118, Note_on_c, 0, 59, 0
2, 153120, Note_on_c, 0, 61, 45
2, 153182, Note_on_c, 0, 61, 0
2, 153184, Note_on_c, 0, 53, 45
2, 153184, Note_on_c, 0, 59, 45
2, 153246, Note_on_c, 0, 53, 0
2, 153246, Note_on_c, 0, 59, 0
2, 153248, Note_on_c, 0, 61, 45
2, 153310, Note_on_c, 0, 61, 0
2, 153312, Note_on_c, 0, 53, 45
2, 153312, Note_on_c, 0, 59, 45
2, 153374, Note_on_c, 0, 53, 0
2, 153374, Note_on_c, 0, 59, 0
2, 153376, Note_on_c, 0, 61, 45
2, 153438, Note_on_c, 0, 61, 0
2, 153440, Note_on_c, 0, 53, 45
2, 153440, Note_on_c, 0, 59, 45
2, 153502, Note_on_c, 0, 53, 0
2, 153502, Note_on_c, 0, 59, 0
2, 153504, Note_on_c, 0, 61, 45
2, 153566, Note_on_c, 0, 61, 0
2, 153568, Note_on_c, 0, 53, 45
2, 153568, Note_on_c, 0, 59, 45
2, 153630, Note_on_c, 0, 53, 0
2, 153630, Note_on_c, 0, 59, 0
2, 153632, Note_on_c, 0, 61, 45
2, 153694, Note_on_c, 0, 61, 0
2, 153696, Note_on_c, 0, 53, 45
2, 153696, Note_on_c, 0, 59, 45
2, 153758, Note_on_c, 0, 53, 0
2, 153758, Note_on_c, 0, 59, 0
2, 153760, Note_on_c, 0, 61, 45
2, 153822, Note_on_c, 0, 61, 0
2, 153824, Note_on_c, 0, 53, 45
2, 153824, Note_on_c, 0, 59, 45
2, 153886, Note_on_c, 0, 53, 0
2, 153886, Note_on_c, 0, 59, 0
2, 153888, Note_on_c, 0, 61, 45
2, 153950, Note_on_c, 0, 61, 0
2, 153952, Note_on_c, 0, 53, 45
2, 153952, Note_on_c, 0, 59, 45
2, 154014, Note_on_c, 0, 53, 0
2, 154014, Note_on_c, 0, 59, 0
2, 154016, Note_on_c, 0, 61, 45
2, 154078, Note_on_c, 0, 61, 0
2, 154080, Note_on_c, 0, 53, 45
2, 154080, Note_on_c, 0, 59, 45
2, 154142, Note_on_c, 0, 53, 0
2, 154142, Note_on_c, 0, 59, 0
2, 154144, Note_on_c, 0, 61, 45
2, 154206, Note_on_c, 0, 61, 0
2, 154208, Note_on_c, 0, 53, 45
2, 154208, Note_on_c, 0, 59, 45
2, 154270, Note_on_c, 0, 53, 0
2, 154270, Note_on_c, 0, 59, 0
2, 154272, Note_on_c, 0, 61, 45
2, 154334, Note_on_c, 0, 61, 0
2, 154336, Note_on_c, 0, 53, 45
2, 154336, Note_on_c, 0, 59, 45
2, 154398, Note_on_c, 0, 53, 0
2, 154398, Note_on_c, 0, 59, 0
2, 154400, Note_on_c, 0, 61, 45
2, 154462, Note_on_c, 0, 61, 0
2, 154464, Note_on_c, 0, 53, 45
2, 154464, Note_on_c, 0, 59, 45
2, 154526, Note_on_c, 0, 53, 0
2, 154526, Note_on_c, 0, 59, 0
2, 154528, Note_on_c, 0, 61, 45
2, 154590, Note_on_c, 0, 61, 0
2, 154592, Note_on_c, 0, 53, 45
2, 154592, Note_on_c, 0, 59, 45
2, 154654, Note_on_c, 0, 53, 0
2, 154654, Note_on_c, 0, 59, 0
2, 154656, Note_on_c, 0, 61, 45
2, 154718, Note_on_c, 0, 61, 0
2, 154720, Note_on_c, 0, 53, 45
2, 154720, Note_on_c, 0, 59, 45
2, 154782, Note_on_c, 0, 53, 0
2, 154782, Note_on_c, 0, 59, 0
2, 154784, Note_on_c, 0, 61, 45
2, 154846, Note_on_c, 0, 61, 0
2, 154848, Note_on_c, 0, 54, 92
2, 154910, Note_on_c, 0, 54, 0
2, 154912, Note_on_c, 0, 57, 92
2, 154912, Note_on_c, 0, 61, 92
2, 154974, Note_on_c, 0, 57, 0
2, 154974, Note_on_c, 0, 61, 0
2, 154976, Note_on_c, 0, 54, 92
2, 155038, Note_on_c, 0, 54, 0
2, 155040, Note_on_c, 0, 57, 92
2, 155040, Note_on_c, 0, 61, 92
2, 155102, Note_on_c, 0, 57, 0
2, 155102, Note_on_c, 0, 61, 0
2, 155104, Note_on_c, 0, 54, 92
2, 155166, Note_on_c, 0, 54, 0
2, 155168, Note_on_c, 0, 57, 92
2, 155168, Note_on_c, 0, 61, 92
2, 155230, Note_on_c, 0, 57, 0
2, 155230, Note_on_c, 0, 61, 0
2, 155232, Note_on_c, 0, 54, 92
2, 155294, Note_on_c, 0, 54, 0
2, 155296, Note_on_c, 0, 57, 92
2, 155296, Note_on_c, 0, 61, 92
2, 155358, Note_on_c, 0, 57, 0
2, 155358, Note_on_c, 0, 61, 0
2, 155360, Note_on_c, 0, 54, 92
2, 155422, Note_on_c, 0, 54, 0
2, 155424, Note_on_c, 0, 57, 92
2, 155424, Note_on_c, 0, 61, 92
2, 155486, Note_on_c, 0, 57, 0
2, 155486, Note_on_c, 0, 61, 0
2, 155488, Note_on_c, 0, 54, 92
2, 155550, Note_on_c, 0, 54, 0
2, 155552, Note_on_c, 0, 57, 92
2, 155552, Note_on_c, 0, 61, 92
2, 155614, Note_on_c, 0, 57, 0
2, 155614, Note_on_c, 0, 61, 0
2, 155616, Note_on_c, 0, 54, 92
2, 155678, Note_on_c, 0, 54, 0
2, 155680, Note_on_c, 0, 57, 92
2, 155680, Note_on_c, 0, 61, 92
2, 155742, Note_on_c, 0, 57, 0
2, 155742, Note_on_c, 0, 61, 0
2, 155744, Note_on_c, 0, 54, 92
2, 155806, Note_on_c, 0, 54, 0
2, 155808, Note_on_c, 0, 57, 92
2, 155808, Note_on_c, 0, 61, 92
2, 155870, Note_on_c, 0, 57, 0
2, 155870, Note_on_c, 0, 61, 0
2, 155872, Note_on_c, 0, 54, 92
2, 155934, Note_on_c, 0, 54, 0
2, 155936, Note_on_c, 0, 57, 92
2, 155936, Note_on_c, 0, 61, 92
2, 155998, Note_on_c, 0, 57, 0
2, 155998, Note_on_c, 0, 61, 0
2, 156000, Note_on_c, 0, 54, 92
2, 156062, Note_on_c, 0, 54, 0
2, 156064, Note_on_c, 0, 57, 92
2, 156064, Note_on_c, 0, 61, 92
2, 156126, Note_on_c, 0, 57, 0
2, 156126, Note_on_c, 0, 61, 0
2, 156128, Note_on_c, 0, 54, 92
2, 156190, Note_on_c, 0, 54, 0
2, 156192, Note_on_c, 0, 57, 92
2, 156192, Note_on_c, 0, 61, 92
2, 156254, Note_on_c, 0, 57, 0
2, 156254, Note_on_c, 0, 61, 0
2, 156256, Note_on_c, 0, 54, 92
2, 156318, Note_on_c, 0, 54, 0
2, 156320, Note_on_c, 0, 57, 92
2, 156320, Note_on_c, 0, 61, 92
2, 156382, Note_on_c, 0, 57, 0
2, 156382, Note_on_c, 0, 61, 0
2, 156384, Note_on_c, 0, 54, 92
2, 156446, Note_on_c, 0, 54, 0
2, 156448, Note_on_c, 0, 59, 92
2, 156448, Note_on_c, 0, 62, 92
2, 156510, Note_on_c, 0, 59, 0
2, 156510, Note_on_c, 0, 62, 0
2, 156512, Note_on_c, 0, 54, 92
2, 156574, Note_on_c, 0, 54, 0
2, 156576, Note_on_c, 0, 59, 92
2, 156576, Note_on_c, 0, 62, 92
2, 156638, Note_on_c, 0, 59, 0
2, 156638, Note_on_c, 0, 62, 0
2, 156640, Note_on_c, 0, 54, 92
2, 156702, Note_on_c, 0, 54, 0
2, 156704, Note_on_c, 0, 59, 92
2, 156704, Note_on_c, 0, 62, 92
2, 156766, Note_on_c, 0, 59, 0
2, 156766, Note_on_c, 0, 62, 0
2, 156768, Note_on_c, 0, 54, 92
2, 156830, Note_on_c, 0, 54, 0
2, 156832, Note_on_c, 0, 59, 92
2, 156832, Note_on_c, 0, 62, 92
2, 156894, Note_on_c, 0, 59, 0
2, 156894, Note_on_c, 0, 62, 0
2, 156896, Note_on_c, 0, 54, 92
2, 156958, Note_on_c, 0, 54, 0
2, 156960, Note_on_c, 0, 59, 92
2, 156960, Note_on_c, 0, 62, 92
2, 157022, Note_on_c, 0, 59, 0
2, 157022, Note_on_c, 0, 62, 0
2, 157024, Note_on_c, 0, 54, 92
2, 157086, Note_on_c, 0, 54, 0
2, 157088, Note_on_c, 0, 59, 92
2, 157088, Note_on_c, 0, 62, 92
2, 157150, Note_on_c, 0, 59, 0
2, 157150, Note_on_c, 0, 62, 0
2, 157152, Note_on_c, 0, 54, 92
2, 157214, Note_on_c, 0, 54, 0
2, 157216, Note_on_c, 0, 59, 92
2, 157216, Note_on_c, 0, 62, 92
2, 157278, Note_on_c, 0, 59, 0
2, 157278, Note_on_c, 0, 62, 0
2, 157280, Note_on_c, 0, 54, 92
2, 157342, Note_on_c, 0, 54, 0
2, 157344, Note_on_c, 0, 59, 92
2, 157344, Note_on_c, 0, 62, 92
2, 157406, Note_on_c, 0, 59, 0
2, 157406, Note_on_c, 0, 62, 0
2, 157408, Note_on_c, 0, 54, 92
2, 157470, Note_on_c, 0, 54, 0
2, 157472, Note_on_c, 0, 59, 92
2, 157472, Note_on_c, 0, 62, 92
2, 157534, Note_on_c, 0, 59, 0
2, 157534, Note_on_c, 0, 62, 0
2, 157536, Note_on_c, 0, 54, 92
2, 157598, Note_on_c, 0, 54, 0
2, 157600, Note_on_c, 0, 59, 92
2, 157600, Note_on_c, 0, 62, 92
2, 157662, Note_on_c, 0, 59, 0
2, 157662, Note_on_c, 0, 62, 0
2, 157664, Note_on_c, 0, 54, 92
2, 157726, Note_on_c, 0, 54, 0
2, 157728, Note_on_c, 0, 59, 92
2, 157728, Note_on_c, 0, 62, 92
2, 157790, Note_on_c, 0, 59, 0
2, 157790, Note_on_c, 0, 62, 0
2, 157792, Note_on_c, 0, 54, 92
2, 157854, Note_on_c, 0, 54, 0
2, 157856, Note_on_c, 0, 59, 92
2, 157856, Note_on_c, 0, 62, 92
2, 157918, Note_on_c, 0, 59, 0
2, 157918, Note_on_c, 0, 62, 0
2, 157920, Note_on_c, 0, 55, 92
2, 157982, Note_on_c, 0, 55, 0
2, 157984, Note_on_c, 0, 59, 92
2, 157984, Note_on_c, 0, 62, 92
2, 158046, Note_on_c, 0, 59, 0
2, 158046, Note_on_c, 0, 62, 0
2, 158048, Note_on_c, 0, 55, 92
2, 158110, Note_on_c, 0, 55, 0
2, 158112, Note_on_c, 0, 59, 92
2, 158112, Note_on_c, 0, 62, 92
2, 158174, Note_on_c, 0, 59, 0
2, 158174, Note_on_c, 0, 62, 0
2, 158176, Note_on_c, 0, 55, 92
2, 158238, Note_on_c, 0, 55, 0
2, 158240, Note_on_c, 0, 59, 92
2, 158240, Note_on_c, 0, 62, 92
2, 158302, Note_on_c, 0, 59, 0
2, 158302, Note_on_c, 0, 62, 0
2, 158304, Note_on_c, 0, 55, 92
2, 158366, Note_on_c, 0, 55, 0
2, 158368, Note_on_c, 0, 59, 92
2, 158368, Note_on_c, 0, 62, 92
2, 158430, Note_on_c, 0, 59, 0
2, 158430, Note_on_c, 0, 62, 0
2, 158432, Note_on_c, 0, 55, 92
2, 158494, Note_on_c, 0, 55, 0
2, 158496, Note_on_c, 0, 59, 92
2, 158496, Note_on_c, 0, 62, 92
2, 158558, Note_on_c, 0, 59, 0
2, 158558, Note_on_c, 0, 62, 0
2, 158560, Note_on_c, 0, 55, 92
2, 158622, Note_on_c, 0, 55, 0
2, 158624, Note_on_c, 0, 59, 92
2, 158624, Note_on_c, 0, 62, 92
2, 158686, Note_on_c, 0, 59, 0
2, 158686, Note_on_c, 0, 62, 0
2, 158688, Note_on_c, 0, 55, 92
2, 158750, Note_on_c, 0, 55, 0
2, 158752, Note_on_c, 0, 59, 92
2, 158752, Note_on_c, 0, 62, 92
2, 158814, Note_on_c, 0, 59, 0
2, 158814, Note_on_c, 0, 62, 0
2, 158816, Note_on_c, 0, 55, 92
2, 158878, Note_on_c, 0, 55, 0
2, 158880, Note_on_c, 0, 59, 92
2, 158880, Note_on_c, 0, 62, 92
2, 158942, Note_on_c, 0, 59, 0
2, 158942, Note_on_c, 0, 62, 0
2, 158944, Note_on_c, 0, 55, 92
2, 159006, Note_on_c, 0, 55, 0
2, 159008, Note_on_c, 0, 59, 92
2, 159008, Note_on_c, 0, 62, 92
2, 159070, Note_on_c, 0, 59, 0
2, 159070, Note_on_c, 0, 62, 0
2, 159072, Note_on_c, 0, 55, 92
2, 159134, Note_on_c, 0, 55, 0
2, 159136, Note_on_c, 0, 59, 92
2, 159136, Note_on_c, 0, 62, 92
2, 159198, Note_on_c, 0, 59, 0
2, 159198, Note_on_c, 0, 62, 0
2, 159200, Note_on_c, 0, 55, 92
2, 159262, Note_on_c, 0, 55, 0
2, 159264, Note_on_c, 0, 59, 92
2, 159264, Note_on_c, 0, 62, 92
2, 159326, Note_on_c, 0, 59, 0
2, 159326, Note_on_c, 0, 62, 0
2, 159328, Note_on_c, 0, 55, 92
2, 159390, Note_on_c, 0, 55, 0
2, 159392, Note_on_c, 0, 59, 92
2, 159392, Note_on_c, 0, 62, 92
2, 159454, Note_on_c, 0, 59, 0
2, 159454, Note_on_c, 0, 62, 0
2, 159456, Note_on_c, 0, 55, 92
2, 159518, Note_on_c, 0, 55, 0
2, 159520, Note_on_c, 0, 60, 92
2, 159520, Note_on_c, 0, 64, 92
2, 159582, Note_on_c, 0, 60, 0
2, 159582, Note_on_c, 0, 64, 0
2, 159584, Note_on_c, 0, 55, 92
2, 159646, Note_on_c, 0, 55, 0
2, 159648, Note_on_c, 0, 60, 92
2, 159648, Note_on_c, 0, 64, 92
2, 159710, Note_on_c, 0, 60, 0
2, 159710, Note_on_c, 0, 64, 0
2, 159712, Note_on_c, 0, 55, 92
2, 159774, Note_on_c, 0, 55, 0
2, 159776, Note_on_c, 0, 60, 92
2, 159776, Note_on_c, 0, 64, 92
2, 159838, Note_on_c, 0, 60, 0
2, 159838, Note_on_c, 0, 64, 0
2, 159840, Note_on_c, 0, 55, 92
2, 159902, Note_on_c, 0, 55, 0
2, 159904, Note_on_c, 0, 60, 92
2, 159904, Note_on_c, 0, 64, 92
2, 159966, Note_on_c, 0, 60, 0
2, 159966, Note_on_c, 0, 64, 0
2, 159968, Note_on_c, 0, 55, 92
2, 160030, Note_on_c, 0, 55, 0
2, 160032, Note_on_c, 0, 60, 92
2, 160032, Note_on_c, 0, 64, 92
2, 160094, Note_on_c, 0, 60, 0
2, 160094, Note_on_c, 0, 64, 0
2, 160096, Note_on_c, 0, 55, 92
2, 160158, Note_on_c, 0, 55, 0
2, 160160, Note_on_c, 0, 60, 92
2, 160160, Note_on_c, 0, 64, 92
2, 160222, Note_on_c, 0, 60, 0
2, 160222, Note_on_c, 0, 64, 0
2, 160224, Note_on_c, 0, 55, 92
2, 160286, Note_on_c, 0, 55, 0
2, 160288, Note_on_c, 0, 60, 92
2, 160288, Note_on_c, 0, 64, 92
2, 160350, Note_on_c, 0, 60, 0
2, 160350, Note_on_c, 0, 64, 0
2, 160352, Note_on_c, 0, 55, 92
2, 160414, Note_on_c, 0, 55, 0
2, 160416, Note_on_c, 0, 60, 92
2, 160416, Note_on_c, 0, 64, 92
2, 160478, Note_on_c, 0, 60, 0
2, 160478, Note_on_c, 0, 64, 0
2, 160480, Note_on_c, 0, 55, 92
2, 160542, Note_on_c, 0, 55, 0
2, 160544, Note_on_c, 0, 60, 92
2, 160544, Note_on_c, 0, 64, 92
2, 160606, Note_on_c, 0, 60, 0
2, 160606, Note_on_c, 0, 64, 0
2, 160608, Note_on_c, 0, 55, 92
2, 160670, Note_on_c, 0, 55, 0
2, 160672, Note_on_c, 0, 60, 92
2, 160672, Note_on_c, 0, 64, 92
2, 160734, Note_on_c, 0, 60, 0
2, 160734, Note_on_c, 0, 64, 0
2, 160736, Note_on_c, 0, 55, 92
2, 160798, Note_on_c, 0, 55, 0
2, 160800, Note_on_c, 0, 60, 92
2, 160800, Note_on_c, 0, 64, 92
2, 160862, Note_on_c, 0, 60, 0
2, 160862, Note_on_c, 0, 64, 0
2, 160864, Note_on_c, 0, 55, 92
2, 160926, Note_on_c, 0, 55, 0
2, 160928, Note_on_c, 0, 60, 92
2, 160928, Note_on_c, 0, 64, 92
2, 160990, Note_on_c, 0, 60, 0
2, 160990, Note_on_c, 0, 64, 0
2, 160992, Note_on_c, 0, 57, 92
2, 161054, Note_on_c, 0, 57, 0
2, 161056, Note_on_c, 0, 61, 92
2, 161056, Note_on_c, 0, 64, 92
2, 161118, Note_on_c, 0, 61, 0
2, 161118, Note_on_c, 0, 64, 0
2, 161120, Note_on_c, 0, 57, 92
2, 161182, Note_on_c, 0, 57, 0
2, 161184, Note_on_c, 0, 61, 92
2, 161184, Note_on_c, 0, 64, 92
2, 161246, Note_on_c, 0, 61, 0
2, 161246, Note_on_c, 0, 64, 0
2, 161248, Note_on_c, 0, 57, 92
2, 161310, Note_on_c, 0, 57, 0
2, 161312, Note_on_c, 0, 61, 92
2, 161312, Note_on_c, 0, 64, 92
2, 161374, Note_on_c, 0, 61, 0
2, 161374, Note_on_c, 0, 64, 0
2, 161376, Note_on_c, 0, 57, 92
2, 161438, Note_on_c, 0, 57, 0
2, 161440, Note_on_c, 0, 61, 92
2, 161440, Note_on_c, 0, 64, 92
2, 161502, Note_on_c, 0, 61, 0
2, 161502, Note_on_c, 0, 64, 0
2, 161504, Note_on_c, 0, 57, 92
2, 161566, Note_on_c, 0, 57, 0
2, 161568, Note_on_c, 0, 61, 92
2, 161568, Note_on_c, 0, 64, 92
2, 161630, Note_on_c, 0, 61, 0
2, 161630, Note_on_c, 0, 64, 0
2, 161632, Note_on_c, 0, 57, 92
2, 161694, Note_on_c, 0, 57, 0
2, 161696, Note_on_c, 0, 61, 92
2, 161696, Note_on_c, 0, 64, 92
2, 161758, Note_on_c, 0, 61, 0
2, 161758, Note_on_c, 0, 64, 0
2, 161760, Note_on_c, 0, 57, 92
2, 161822, Note_on_c, 0, 57, 0
2, 161824, Note_on_c, 0, 61, 92
2, 161824, Note_on_c, 0, 64, 92
2, 161886, Note_on_c, 0, 61, 0
2, 161886, Note_on_c, 0, 64, 0
2, 161888, Note_on_c, 0, 57, 92
2, 161950, Note_on_c, 0, 57, 0
2, 161952, Note_on_c, 0, 61, 92
2, 161952, Note_on_c, 0, 64, 92
2, 162014, Note_on_c, 0, 61, 0
2, 162014, Note_on_c, 0, 64, 0
2, 162016, Note_on_c, 0, 57, 92
2, 162078, Note_on_c, 0, 57, 0
2, 162080, Note_on_c, 0, 61, 92
2, 162080, Note_on_c, 0, 64, 92
2, 162142, Note_on_c, 0, 61, 0
2, 162142, Note_on_c, 0, 64, 0
2, 162144, Note_on_c, 0, 57, 92
2, 162206, Note_on_c, 0, 57, 0
2, 162208, Note_on_c, 0, 61, 92
2, 162208, Note_on_c, 0, 64, 92
2, 162270, Note_on_c, 0, 61, 0
2, 162270, Note_on_c, 0, 64, 0
2, 162272, Note_on_c, 0, 57, 92
2, 162334, Note_on_c, 0, 57, 0
2, 162336, Note_on_c, 0, 61, 92
2, 162336, Note_on_c, 0, 64, 92
2, 162398, Note_on_c, 0, 61, 0
2, 162398, Note_on_c, 0, 64, 0
2, 162400, Note_on_c, 0, 57, 92
2, 162462, Note_on_c, 0, 57, 0
2, 162464, Note_on_c, 0, 61, 92
2, 162464, Note_on_c, 0, 64, 92
2, 162526, Note_on_c, 0, 61, 0
2, 162526, Note_on_c, 0, 64, 0
2, 162528, Note_on_c, 0, 57, 92
2, 162590, Note_on_c, 0, 57, 0
2, 162592, Note_on_c, 0, 62, 92
2, 162592, Note_on_c, 0, 65, 92
2, 162654, Note_on_c, 0, 62, 0
2, 162654, Note_on_c, 0, 65, 0
2, 162656, Note_on_c, 0, 57, 92
2, 162718, Note_on_c, 0, 57, 0
2, 162720, Note_on_c, 0, 62, 92
2, 162720, Note_on_c, 0, 65, 92
2, 162782, Note_on_c, 0, 62, 0
2, 162782, Note_on_c, 0, 65, 0
2, 162784, Note_on_c, 0, 57, 92
2, 162846, Note_on_c, 0, 57, 0
2, 162848, Note_on_c, 0, 62, 92
2, 162848, Note_on_c, 0, 65, 92
2, 162910, Note_on_c, 0, 62, 0
2, 162910, Note_on_c, 0, 65, 0
2, 162912, Note_on_c, 0, 57, 92
2, 162974, Note_on_c, 0, 57, 0
2, 162976, Note_on_c, 0, 62, 92
2, 162976, Note_on_c, 0, 65, 92
2, 163038, Note_on_c, 0, 62, 0
2, 163038, Note_on_c, 0, 65, 0
2, 163040, Note_on_c, 0, 57, 92
2, 163102, Note_on_c, 0, 57, 0
2, 163104, Note_on_c, 0, 62, 92
2, 163104, Note_on_c, 0, 65, 92
2, 163166, Note_on_c, 0, 62, 0
2, 163166, Note_on_c, 0, 65, 0
2, 163168, Note_on_c, 0, 57, 92
2, 163230, Note_on_c, 0, 57, 0
2, 163232, Note_on_c, 0, 62, 92
2, 163232, Note_on_c, 0, 65, 92
2, 163294, Note_on_c, 0, 62, 0
2, 163294, Note_on_c, 0, 65, 0
2, 163296, Note_on_c, 0, 57, 92
2, 163358, Note_on_c, 0, 57, 0
2, 163360, Note_on_c, 0, 62, 92
2, 163360, Note_on_c, 0, 65, 92
2, 163422, Note_on_c, 0, 62, 0
2, 163422, Note_on_c, 0, 65, 0
2, 163424, Note_on_c, 0, 57, 92
2, 163486, Note_on_c, 0, 57, 0
2, 163488, Note_on_c, 0, 62, 92
2, 163488, Note_on_c, 0, 65, 92
2, 163550, Note_on_c, 0, 62, 0
2, 163550, Note_on_c, 0, 65, 0
2, 163552, Note_on_c, 0, 57, 92
2, 163614, Note_on_c, 0, 57, 0
2, 163616, Note_on_c, 0, 62, 92
2, 163616, Note_on_c, 0, 65, 92
2, 163678, Note_on_c, 0, 62, 0
2, 163678, Note_on_c, 0, 65, 0
2, 163680, Note_on_c, 0, 57, 92
2, 163742, Note_on_c, 0, 57, 0
2, 163744, Note_on_c, 0, 62, 92
2, 163744, Note_on_c, 0, 65, 92
2, 163806, Note_on_c, 0, 62, 0
2, 163806, Note_on_c, 0, 65, 0
2, 163808, Note_on_c, 0, 57, 92
2, 163870, Note_on_c, 0, 57, 0
2, 163872, Note_on_c, 0, 62, 92
2, 163872, Note_on_c, 0, 65, 92
2, 163934, Note_on_c, 0, 62, 0
2, 163934, Note_on_c, 0, 65, 0
2, 163936, Note_on_c, 0, 57, 92
2, 163998, Note_on_c, 0, 57, 0
2, 164000, Note_on_c, 0, 62, 92
2, 164000, Note_on_c, 0, 65, 92
2, 164062, Note_on_c, 0, 62, 0
2, 164062, Note_on_c, 0, 65, 0
2, 164448, Note_on_c, 0, 68, 127
2, 164448, Note_on_c, 0, 80, 127
2, 164608, Note_on_c, 0, 68, 0
2, 164608, Note_on_c, 0, 80, 0
2, 165216, Note_on_c, 0, 74, 127
2, 165216, Note_on_c, 0, 86, 127
2, 165376, Note_on_c, 0, 74, 0
2, 165376, Note_on_c, 0, 86, 0
2, 165600, Note_on_c, 0, 73, 127
2, 165600, Note_on_c, 0, 85, 127
2, 165694, Note_on_c, 0, 73, 0
2, 165694, Note_on_c, 0, 85, 0
2, 165696, Note_on_c, 0, 69, 108
2, 165792, Note_on_c, 0, 69, 0
2, 165792, Note_on_c, 0, 68, 108
2, 165888, Note_on_c, 0, 68, 0
2, 165888, Note_on_c, 0, 69, 108
2, 165984, Note_on_c, 0, 69, 0
2, 165984, Note_on_c, 0, 68, 108
2, 166080, Note_on_c, 0, 68, 0
2, 166080, Note_on_c, 0, 69, 108
2, 166176, Note_on_c, 0, 69, 0
2, 166176, Note_on_c, 0, 68, 108
2, 166272, Note_on_c, 0, 68, 0
2, 166272, Note_on_c, 0, 69, 108
2, 166368, Note_on_c, 0, 69, 0
2, 166368, Note_on_c, 0, 68, 108
2, 166464, Note_on_c, 0, 68, 0
2, 166464, Note_on_c, 0, 69, 108
2, 166560, Note_on_c, 0, 69, 0
2, 166560, Note_on_c, 0, 73, 108
2, 166560, Note_on_c, 0, 76, 108
2, 166656, Note_on_c, 0, 73, 0
2, 166656, Note_on_c, 0, 76, 0
2, 166656, Note_on_c, 0, 69, 108
2, 166752, Note_on_c, 0, 69, 0
2, 166752, Note_on_c, 0, 74, 127
2, 166752, Note_on_c, 0, 77, 127
2, 166848, Note_on_c, 0, 74, 0
2, 166848, Note_on_c, 0, 77, 0
2, 166848, Note_on_c, 0, 69, 108
2, 166944, Note_on_c, 0, 69, 0
2, 166944, Note_on_c, 0, 71, 108
2, 166944, Note_on_c, 0, 74, 108
2, 167040, Note_on_c, 0, 71, 0
2, 167040, Note_on_c, 0, 74, 0
2, 167040, Note_on_c, 0, 69, 108
2, 167134, Note_on_c, 0, 69, 0
2, 167136, Note_on_c, 0, 73, 108
2, 167136, Note_on_c, 0, 76, 108
2, 167232, Note_on_c, 0, 73, 0
2, 167232, Note_on_c, 0, 76, 0
2, 167232, Note_on_c, 0, 69, 108
2, 167328, Note_on_c, 0, 69, 0
2, 167328, Note_on_c, 0, 73, 108
2, 167328, Note_on_c, 0, 76, 108
2, 167424, Note_on_c, 0, 73, 0
2, 167424, Note_on_c, 0, 76, 0
2, 167424, Note_on_c, 0, 69, 108
2, 167520, Note_on_c, 0, 69, 0
2, 167520, Note_on_c, 0, 74, 127
2, 167520, Note_on_c, 0, 77, 127
2, 167616, Note_on_c, 0, 74, 0
2, 167616, Note_on_c, 0, 77, 0
2, 167616, Note_on_c, 0, 69, 108
2, 167712, Note_on_c, 0, 69, 0
2, 167712, Note_on_c, 0, 71, 108
2, 167712, Note_on_c, 0, 74, 108
2, 167808, Note_on_c, 0, 71, 0
2, 167808, Note_on_c, 0, 74, 0
2, 167808, Note_on_c, 0, 69, 108
2, 167902, Note_on_c, 0, 69, 0
2, 167904, Note_on_c, 0, 73, 108
2, 167904, Note_on_c, 0, 76, 108
2, 168000, Note_on_c, 0, 73, 0
2, 168000, Note_on_c, 0, 76, 0
2, 168000, Note_on_c, 0, 69, 108
2, 168096, Note_on_c, 0, 69, 0
2, 168096, Note_on_c, 0, 73, 108
2, 168096, Note_on_c, 0, 76, 108
2, 168192, Note_on_c, 0, 73, 0
2, 168192, Note_on_c, 0, 76, 0
2, 168192, Note_on_c, 0, 69, 108
2, 168288, Note_on_c, 0, 69, 0
2, 168288, Note_on_c, 0, 74, 127
2, 168288, Note_on_c, 0, 77, 127
2, 168384, Note_on_c, 0, 74, 0
2, 168384, Note_on_c, 0, 77, 0
2, 168384, Note_on_c, 0, 69, 108
2, 168480, Note_on_c, 0, 69, 0
2, 168480, Note_on_c, 0, 71, 108
2, 168480, Note_on_c, 0, 74, 108
2, 168576, Note_on_c, 0, 71, 0
2, 168576, Note_on_c, 0, 74, 0
2, 168576, Note_on_c, 0, 69, 108
2, 168672, Note_on_c, 0, 69, 0
2, 168672, Note_on_c, 0, 73, 108
2, 168672, Note_on_c, 0, 76, 108
2, 168768, Note_on_c, 0, 73, 0
2, 168768, Note_on_c, 0, 76, 0
2, 168768, Note_on_c, 0, 69, 108
2, 168864, Note_on_c, 0, 69, 0
2, 168864, Note_on_c, 0, 68, 108
2, 168960, Note_on_c, 0, 68, 0
2, 168960, Note_on_c, 0, 69, 108
2, 169056, Note_on_c, 0, 69, 0
2, 169056, Note_on_c, 0, 68, 108
2, 169152, Note_on_c, 0, 68, 0
2, 169152, Note_on_c, 0, 69, 108
2, 169248, Note_on_c, 0, 69, 0
2, 169248, Note_on_c, 0, 68, 108
2, 169344, Note_on_c, 0, 68, 0
2, 169344, Note_on_c, 0, 69, 108
2, 169440, Note_on_c, 0, 69, 0
2, 169440, Note_on_c, 0, 68, 108
2, 169536, Note_on_c, 0, 68, 0
2, 169536, Note_on_c, 0, 69, 108
2, 169632, Note_on_c, 0, 69, 0
2, 169632, Note_on_c, 0, 61, 108
2, 169632, Note_on_c, 0, 64, 108
2, 169728, Note_on_c, 0, 61, 0
2, 169728, Note_on_c, 0, 64, 0
2, 169728, Note_on_c, 0, 69, 108
2, 169824, Note_on_c, 0, 69, 0
2, 169824, Note_on_c, 0, 62, 127
2, 169824, Note_on_c, 0, 65, 127
2, 169920, Note_on_c, 0, 62, 0
2, 169920, Note_on_c, 0, 65, 0
2, 169920, Note_on_c, 0, 69, 108
2, 170016, Note_on_c, 0, 69, 0
2, 170016, Note_on_c, 0, 59, 108
2, 170016, Note_on_c, 0, 62, 108
2, 170112, Note_on_c, 0, 59, 0
2, 170112, Note_on_c, 0, 62, 0
2, 170112, Note_on_c, 0, 69, 108
2, 170206, Note_on_c, 0, 69, 0
2, 170208, Note_on_c, 0, 61, 108
2, 170208, Note_on_c, 0, 64, 108
2, 170304, Note_on_c, 0, 61, 0
2, 170304, Note_on_c, 0, 64, 0
2, 170304, Note_on_c, 0, 69, 108
2, 170400, Note_on_c, 0, 69, 0
2, 170400, Note_on_c, 0, 61, 108
2, 170400, Note_on_c, 0, 64, 108
2, 170496, Note_on_c, 0, 61, 0
2, 170496, Note_on_c, 0, 64, 0
2, 170496, Note_on_c, 0, 69, 108
2, 170592, Note_on_c, 0, 69, 0
2, 170592, Note_on_c, 0, 62, 127
2, 170592, Note_on_c, 0, 65, 127
2, 170688, Note_on_c, 0, 62, 0
2, 170688, Note_on_c, 0, 65, 0
2, 170688, Note_on_c, 0, 69, 108
2, 170784, Note_on_c, 0, 69, 0
2, 170784, Note_on_c, 0, 59, 108
2, 170784, Note_on_c, 0, 62, 108
2, 170880, Note_on_c, 0, 59, 0
2, 170880, Note_on_c, 0, 62, 0
2, 170880, Note_on_c, 0, 69, 108
2, 170974, Note_on_c, 0, 69, 0
2, 170976, Note_on_c, 0, 61, 108
2, 170976, Note_on_c, 0, 64, 108
2, 171072, Note_on_c, 0, 61, 0
2, 171072, Note_on_c, 0, 64, 0
2, 171072, Note_on_c, 0, 69, 108
2, 171168, Note_on_c, 0, 69, 0
2, 171168, Note_on_c, 0, 61, 108
2, 171168, Note_on_c, 0, 64, 108
2, 171264, Note_on_c, 0, 61, 0
2, 171264, Note_on_c, 0, 64, 0
2, 171264, Note_on_c, 0, 69, 108
2, 171360, Note_on_c, 0, 69, 0
2, 171360, Note_on_c, 0, 62, 127
2, 171360, Note_on_c, 0, 65, 127
2, 171456, Note_on_c, 0, 62, 0
2, 171456, Note_on_c, 0, 65, 0
2, 171456, Note_on_c, 0, 69, 108
2, 171552, Note_on_c, 0, 69, 0
2, 171552, Note_on_c, 0, 59, 108
2, 171552, Note_on_c, 0, 62, 108
2, 171648, Note_on_c, 0, 59, 0
2, 171648, Note_on_c, 0, 62, 0
2, 171648, Note_on_c, 0, 69, 108
2, 171742, Note_on_c, 0, 69, 0
2, 171744, Note_on_c, 0, 61, 108
2, 171744, Note_on_c, 0, 64, 108
2, 171840, Note_on_c, 0, 61, 0
2, 171840, Note_on_c, 0, 64, 0
2, 171840, Note_on_c, 0, 57, 108
2, 171936, Note_on_c, 0, 57, 0
2, 171936, Note_on_c, 0, 56, 108
2, 172032, Note_on_c, 0, 56, 0
2, 172032, Note_on_c, 0, 57, 108
2, 172128, Note_on_c, 0, 57, 0
2, 172128, Note_on_c, 0, 56, 108
2, 172224, Note_on_c, 0, 56, 0
2, 172224, Note_on_c, 0, 57, 108
2, 172320, Note_on_c, 0, 57, 0
2, 172320, Note_on_c, 0, 56, 108
2, 172416, Note_on_c, 0, 56, 0
2, 172416, Note_on_c, 0, 57, 108
2, 172512, Note_on_c, 0, 57, 0
2, 172512, Note_on_c, 0, 56, 108
2, 172608, Note_on_c, 0, 56, 0
2, 172608, Note_on_c, 0, 57, 108
2, 172704, Note_on_c, 0, 57, 0
2, 172704, Note_on_c, 0, 61, 108
2, 172704, Note_on_c, 0, 64, 108
2, 172800, Note_on_c, 0, 61, 0
2, 172800, Note_on_c, 0, 64, 0
2, 172800, Note_on_c, 0, 57, 108
2, 172896, Note_on_c, 0, 57, 0
2, 172896, Note_on_c, 0, 62, 127
2, 172896, Note_on_c, 0, 65, 127
2, 172992, Note_on_c, 0, 62, 0
2, 172992, Note_on_c, 0, 65, 0
2, 172992, Note_on_c, 0, 57, 108
2, 173088, Note_on_c, 0, 57, 0
2, 173088, Note_on_c, 0, 59, 108
2, 173088, Note_on_c, 0, 62, 108
2, 173184, Note_on_c, 0, 59, 0
2, 173184, Note_on_c, 0, 62, 0
2, 173184, Note_on_c, 0, 57, 108
2, 173280, Note_on_c, 0, 57, 0
2, 173280, Note_on_c, 0, 61, 108
2, 173280, Note_on_c, 0, 64, 108
2, 173376, Note_on_c, 0, 61, 0
2, 173376, Note_on_c, 0, 64, 0
2, 173376, Note_on_c, 0, 57, 108
2, 173472, Note_on_c, 0, 57, 0
2, 173472, Note_on_c, 0, 61, 108
2, 173472, Note_on_c, 0, 64, 108
2, 173568, Note_on_c, 0, 61, 0
2, 173568, Note_on_c, 0, 64, 0
2, 173568, Note_on_c, 0, 57, 108
2, 173664, Note_on_c, 0, 57, 0
2, 173664, Note_on_c, 0, 62, 127
2, 173664, Note_on_c, 0, 65, 127
2, 173760, Note_on_c, 0, 62, 0
2, 173760, Note_on_c, 0, 65, 0
2, 173760, Note_on_c, 0, 57, 108
2, 173856, Note_on_c, 0, 57, 0
2, 173856, Note_on_c, 0, 59, 108
2, 173856, Note_on_c, 0, 62, 108
2, 173952, Note_on_c, 0, 59, 0
2, 173952, Note_on_c, 0, 62, 0
2, 173952, Note_on_c, 0, 57, 108
2, 174048, Note_on_c, 0, 57, 0
2, 174048, Note_on_c, 0, 61, 108
2, 174048, Note_on_c, 0, 64, 108
2, 174144, Note_on_c, 0, 61, 0
2, 174144, Note_on_c, 0, 64, 0
2, 174144, Note_on_c, 0, 57, 108
2, 174240, Note_on_c, 0, 57, 0
2, 174240, Note_on_c, 0, 61, 108
2, 174240, Note_on_c, 0, 64, 108
2, 174336, Note_on_c, 0, 61, 0
2, 174336, Note_on_c, 0, 64, 0
2, 174336, Note_on_c, 0, 57, 108
2, 174432, Note_on_c, 0, 57, 0
2, 174432, Note_on_c, 0, 62, 127
2, 174432, Note_on_c, 0, 65, 127
2, 174528, Note_on_c, 0, 62, 0
2, 174528, Note_on_c, 0, 65, 0
2, 174528, Note_on_c, 0, 57, 108
2, 174624, Note_on_c, 0, 57, 0
2, 174624, Note_on_c, 0, 59, 108
2, 174624, Note_on_c, 0, 62, 108
2, 174720, Note_on_c, 0, 59, 0
2, 174720, Note_on_c, 0, 62, 0
2, 174720, Note_on_c, 0, 57, 108
2, 174814, Note_on_c, 0, 57, 0
2, 174816, Note_on_c, 0, 57, 108
2, 174816, Note_on_c, 0, 61, 108
2, 174816, Note_on_c, 0, 64, 108
2, 175584, Note_on_c, 0, 57, 0
2, 175584, Note_on_c, 0, 61, 0
2, 175584, Note_on_c, 0, 64, 0
2, 175584, Note_on_c, 0, 53, 108
2, 175584, Note_on_c, 0, 57, 108
2, 175584, Note_on_c, 0, 62, 108
2, 176352, Note_on_c, 0, 53, 0
2, 176352, Note_on_c, 0, 57, 0
2, 176352, Note_on_c, 0, 62, 0
2, 176352, Note_on_c, 0, 52, 87
2, 176352, Note_on_c, 0, 57, 87
2, 176352, Note_on_c, 0, 61, 87
2, 177120, Note_on_c, 0, 52, 0
2, 177120, Note_on_c, 0, 57, 0
2, 177120, Note_on_c, 0, 61, 0
2, 177120, Note_on_c, 0, 50, 66
2, 177120, Note_on_c, 0, 53, 66
2, 177120, Note_on_c, 0, 58, 66
2, 177888, Note_on_c, 0, 50, 0
2, 177888, Note_on_c, 0, 53, 0
2, 177888, Note_on_c, 0, 58, 0
2, 177888, Note_on_c, 0, 49, 45
2, 177984, Note_on_c, 0, 49, 0
2, 177984, Note_on_c, 0, 52, 45
2, 178080, Note_on_c, 0, 52, 0
2, 178080, Note_on_c, 0, 57, 45
2, 179424, Note_on_c, 0, 57, 0
2, 179424, Note_on_c, 0, 58, 63
2, 179952, Note_on_c, 0, 58, 0
2, 180000, Note_on_c, 0, 57, 45
2, 180160, Note_on_c, 0, 57, 0
2, 180192, Note_on_c, 0, 55, 45
2, 180352, Note_on_c, 0, 55, 0
2, 180384, Note_on_c, 0, 53, 45
2, 180544, Note_on_c, 0, 53, 0
2, 180576, Note_on_c, 0, 51, 45
2, 180736, Note_on_c, 0, 51, 0
2, 180768, Note_on_c, 0, 50, 45
2, 180928, Note_on_c, 0, 50, 0
2, 180960, Note_on_c, 0, 49, 45
2, 181120, Note_on_c, 0, 49, 0
2, 181152, Note_on_c, 0, 55, 45
2, 181312, Note_on_c, 0, 55, 0
2, 181344, Note_on_c, 0, 58, 45
2, 181504, Note_on_c, 0, 58, 0
2, 181536, Note_on_c, 0, 57, 45
2, 181696, Note_on_c, 0, 57, 0
2, 181728, Note_on_c, 0, 55, 45
2, 181888, Note_on_c, 0, 55, 0
2, 181920, Note_on_c, 0, 53, 45
2, 182080, Note_on_c, 0, 53, 0
2, 182112, Note_on_c, 0, 51, 45
2, 182272, Note_on_c, 0, 51, 0
2, 182304, Note_on_c, 0, 50, 45
2, 182464, Note_on_c, 0, 50, 0
2, 182496, Note_on_c, 0, 49, 30
2, 182520, Note_on_c, 0, 52, 30
2, 182544, Note_on_c, 0, 57, 30
2, 182880, Note_on_c, 0, 49, 0
2, 182880, Note_on_c, 0, 52, 0
2, 182880, Note_on_c, 0, 57, 0
2, 182880, Note_on_c, 0, 61, 30
2, 183000, Note_on_c, 0, 61, 0
2, 183072, Note_on_c, 0, 64, 30
2, 183192, Note_on_c, 0, 64, 0
2, 183264, Note_on_c, 0, 69, 30
2, 183744, Note_on_c, 0, 69, 0
2, 183744, Note_on_c, 0, 69, 30
2, 183840, Note_on_c, 0, 69, 0
2, 183840, Note_on_c, 0, 69, 30
2, 183936, Note_on_c, 0, 69, 0
2, 183936, Note_on_c, 0, 70, 30
2, 184032, Note_on_c, 0, 70, 0
2, 184032, Note_on_c, 0, 69, 30
2, 184224, Note_on_c, 0, 69, 0
2, 184224, Note_on_c, 0, 67, 30
2, 184584, Note_on_c, 0, 67, 0
2, 184584, Note_on_c, 0, 67, 30
2, 184608, Note_on_c, 0, 67, 0
2, 184608, Note_on_c, 0, 76, 30
2, 184776, Note_on_c, 0, 76, 0
2, 184776, Note_on_c, 0, 74, 30
2, 184800, Note_on_c, 0, 74, 0
2, 184800, Note_on_c, 0, 74, 30
2, 184992, Note_on_c, 0, 74, 0
2, 184992, Note_on_c, 0, 73, 30
2, 185376, Note_on_c, 0, 73, 0
2, 185376, Note_on_c, 0, 76, 30
2, 185568, Note_on_c, 0, 76, 0
2, 185568, Note_on_c, 0, 76, 30
2, 185856, Note_on_c, 0, 76, 0
2, 185856, Note_on_c, 0, 67, 30
2, 185952, Note_on_c, 0, 67, 0
2, 185952, Note_on_c, 0, 70, 30
2, 186240, Note_on_c, 0, 70, 0
2, 186240, Note_on_c, 0, 69, 30
2, 186336, Note_on_c, 0, 69, 0
2, 186336, Note_on_c, 0, 67, 30
2, 186528, Note_on_c, 0, 67, 0
2, 186528, Note_on_c, 0, 65, 30
2, 186688, Note_on_c, 0, 65, 0
2, 186912, Note_on_c, 0, 69, 45
2, 187008, Note_on_c, 0, 69, 0
2, 187008, Note_on_c, 0, 67, 45
2, 187102, Note_on_c, 0, 67, 0
2, 187104, Note_on_c, 0, 67, 45
2, 187200, Note_on_c, 0, 67, 0
2, 187200, Note_on_c, 0, 65, 45
2, 187294, Note_on_c, 0, 65, 0
2, 187296, Note_on_c, 0, 65, 45
2, 187392, Note_on_c, 0, 65, 0
2, 187392, Note_on_c, 0, 64, 45
2, 187486, Note_on_c, 0, 64, 0
2, 187488, Note_on_c, 0, 64, 45
2, 187584, Note_on_c, 0, 64, 0
2, 187584, Note_on_c, 0, 62, 45
2, 187678, Note_on_c, 0, 62, 0
2, 187680, Note_on_c, 0, 69, 45
2, 187776, Note_on_c, 0, 69, 0
2, 187776, Note_on_c, 0, 67, 45
2, 187870, Note_on_c, 0, 67, 0
2, 187872, Note_on_c, 0, 67, 45
2, 187968, Note_on_c, 0, 67, 0
2, 187968, Note_on_c, 0, 65, 45
2, 188062, Note_on_c, 0, 65, 0
2, 188064, Note_on_c, 0, 65, 45
2, 188160, Note_on_c, 0, 65, 0
2, 188160, Note_on_c, 0, 64, 45
2, 188254, Note_on_c, 0, 64, 0
2, 188256, Note_on_c, 0, 64, 45
2, 188352, Note_on_c, 0, 64, 0
2, 188352, Note_on_c, 0, 62, 45
2, 188446, Note_on_c, 0, 62, 0
2, 188448, Note_on_c, 0, 74, 45
2, 188544, Note_on_c, 0, 74, 0
2, 188544, Note_on_c, 0, 72, 60
2, 188638, Note_on_c, 0, 72, 0
2, 188640, Note_on_c, 0, 72, 75
2, 188734, Note_on_c, 0, 72, 0
2, 188736, Note_on_c, 0, 70, 75
2, 188830, Note_on_c, 0, 70, 0
2, 188832, Note_on_c, 0, 70, 75
2, 188926, Note_on_c, 0, 70, 0
2, 188928, Note_on_c, 0, 69, 75
2, 189022, Note_on_c, 0, 69, 0
2, 189024, Note_on_c, 0, 69, 75
2, 189118, Note_on_c, 0, 69, 0
2, 189120, Note_on_c, 0, 67, 75
2, 189214, Note_on_c, 0, 67, 0
2, 189216, Note_on_c, 0, 67, 75
2, 189310, Note_on_c, 0, 67, 0
2, 189312, Note_on_c, 0, 68, 75
2, 189406, Note_on_c, 0, 68, 0
2, 189408, Note_on_c, 0, 65, 105
2, 189408, Note_on_c, 0, 68, 105
2, 189504, Note_on_c, 0, 68, 0
2, 189504, Note_on_c, 0, 69, 75
2, 189536, Note_on_c, 0, 69, 0
2, 189536, Note_on_c, 0, 68, 75
2, 189568, Note_on_c, 0, 65, 0
2, 189568, Note_on_c, 0, 68, 0
2, 189568, Note_on_c, 0, 66, 75
2, 189600, Note_on_c, 0, 66, 0
2, 189600, Note_on_c, 0, 68, 75
2, 189694, Note_on_c, 0, 68, 0
2, 189696, Note_on_c, 0, 71, 75
2, 189744, Note_on_c, 0, 71, 0
2, 189744, Note_on_c, 0, 69, 75
2, 189790, Note_on_c, 0, 69, 0
2, 189792, Note_on_c, 0, 64, 45
2, 189792, Note_on_c, 0, 69, 45
2, 190128, Note_on_c, 0, 64, 0
2, 190128, Note_on_c, 0, 69, 0
2, 190944, Note_on_c, 0, 64, 30
2, 190992, Note_on_c, 0, 64, 0
2, 191136, Note_on_c, 0, 67, 30
2, 191184, Note_on_c, 0, 67, 0
2, 191328, Note_on_c, 0, 72, 30
2, 192048, Note_on_c, 0, 72, 0
2, 192096, Note_on_c, 0, 73, 30
2, 192432, Note_on_c, 0, 73, 0
2, 192480, Note_on_c, 0, 61, 30
2, 192784, Note_on_c, 0, 61, 0
2, 192816, Note_on_c, 0, 61, 30
2, 192862, Note_on_c, 0, 61, 0
2, 192864, Note_on_c, 0, 60, 30
2, 193024, Note_on_c, 0, 60, 0
2, 193056, Note_on_c, 0, 58, 30
2, 193248, Note_on_c, 0, 58, 0
2, 193248, Note_on_c, 0, 58, 30
2, 193342, Note_on_c, 0, 58, 0
2, 193344, Note_on_c, 0, 67, 30
2, 193438, Note_on_c, 0, 67, 0
2, 193440, Note_on_c, 0, 67, 30
2, 193534, Note_on_c, 0, 67, 0
2, 193536, Note_on_c, 0, 68, 30
2, 193630, Note_on_c, 0, 68, 0
2, 193632, Note_on_c, 0, 70, 30
2, 193888, Note_on_c, 0, 70, 0
2, 193920, Note_on_c, 0, 70, 30
2, 194014, Note_on_c, 0, 70, 0
2, 194016, Note_on_c, 0, 73, 30
2, 194176, Note_on_c, 0, 73, 0
2, 194208, Note_on_c, 0, 72, 30
2, 194302, Note_on_c, 0, 72, 0
2, 194304, Note_on_c, 0, 67, 30
2, 194398, Note_on_c, 0, 67, 0
2, 194400, Note_on_c, 0, 68, 30
2, 195120, Note_on_c, 0, 68, 0
2, 195168, Note_on_c, 0, 56, 30
2, 195168, Note_on_c, 0, 61, 30
2, 195168, Note_on_c, 0, 68, 30
2, 195216, Note_on_c, 0, 56, 0
2, 195216, Note_on_c, 0, 61, 0
2, 195216, Note_on_c, 0, 68, 0
2, 195552, Note_on_c, 0, 56, 30
2, 195552, Note_on_c, 0, 61, 30
2, 195552, Note_on_c, 0, 68, 30
2, 195600, Note_on_c, 0, 56, 0
2, 195600, Note_on_c, 0, 61, 0
2, 195600, Note_on_c, 0, 68, 0
2, 195936, Note_on_c, 0, 56, 30
2, 195936, Note_on_c, 0, 61, 30
2, 195936, Note_on_c, 0, 68, 30
2, 195984, Note_on_c, 0, 56, 0
2, 195984, Note_on_c, 0, 61, 0
2, 195984, Note_on_c, 0, 68, 0
2, 196320, Note_on_c, 0, 56, 30
2, 196320, Note_on_c, 0, 61, 30
2, 196320, Note_on_c, 0, 68, 30
2, 196368, Note_on_c, 0, 56, 0
2, 196368, Note_on_c, 0, 61, 0
2, 196368, Note_on_c, 0, 68, 0
2, 196704, Note_on_c, 0, 69, 30
2, 196766, Note_on_c, 0, 69, 0
2, 196768, Note_on_c, 0, 66, 31
2, 196830, Note_on_c, 0, 66, 0
2, 196832, Note_on_c, 0, 61, 32
2, 196894, Note_on_c, 0, 61, 0
2, 196896, Note_on_c, 0, 57, 33
2, 196958, Note_on_c, 0, 57, 0
2, 196960, Note_on_c, 0, 54, 35
2, 197022, Note_on_c, 0, 54, 0
2, 197024, Note_on_c, 0, 49, 37
2, 197086, Note_on_c, 0, 49, 0
2, 197088, Note_on_c, 0, 57, 39
2, 197150, Note_on_c, 0, 57, 0
2, 197152, Note_on_c, 0, 54, 41
2, 197214, Note_on_c, 0, 54, 0
2, 197216, Note_on_c, 0, 49, 43
2, 197278, Note_on_c, 0, 49, 0
2, 197280, Note_on_c, 0, 45, 45
2, 197310, Note_on_c, 0, 45, 0
2, 197312, Note_on_c, 0, 49, 46
2, 197342, Note_on_c, 0, 49, 0
2, 197344, Note_on_c, 0, 54, 46
2, 197374, Note_on_c, 0, 54, 0
2, 197376, Note_on_c, 0, 57, 47
2, 197406, Note_on_c, 0, 57, 0
2, 197408, Note_on_c, 0, 61, 48
2, 197438, Note_on_c, 0, 61, 0
2, 197440, Note_on_c, 0, 66, 49
2, 197470, Note_on_c, 0, 66, 0
2, 197472, Note_on_c, 0, 69, 50
2, 197534, Note_on_c, 0, 69, 0
2, 197536, Note_on_c, 0, 66, 52
2, 197598, Note_on_c, 0, 66, 0
2, 197600, Note_on_c, 0, 61, 54
2, 197662, Note_on_c, 0, 61, 0
2, 197664, Note_on_c, 0, 57, 56
2, 197726, Note_on_c, 0, 57, 0
2, 197728, Note_on_c, 0, 61, 58
2, 197790, Note_on_c, 0, 61, 0
2, 197792, Note_on_c, 0, 66, 60
2, 197854, Note_on_c, 0, 66, 0
2, 197856, Note_on_c, 0, 69, 62
2, 197918, Note_on_c, 0, 69, 0
2, 197920, Note_on_c, 0, 73, 64
2, 197982, Note_on_c, 0, 73, 0
2, 197984, Note_on_c, 0, 78, 66
2, 198046, Note_on_c, 0, 78, 0
2, 198048, Note_on_c, 0, 81, 95
2, 198094, Note_on_c, 0, 81, 0
2, 198096, Note_on_c, 0, 78, 96
2, 198142, Note_on_c, 0, 78, 0
2, 198144, Note_on_c, 0, 73, 99
2, 198190, Note_on_c, 0, 73, 0
2, 198192, Note_on_c, 0, 69, 102
2, 198238, Note_on_c, 0, 69, 0
2, 198240, Note_on_c, 0, 57, 75
2, 198240, Note_on_c, 0, 62, 75
2, 198240, Note_on_c, 0, 69, 75
2, 198288, Note_on_c, 0, 57, 0
2, 198288, Note_on_c, 0, 62, 0
2, 198288, Note_on_c, 0, 69, 0
2, 198624, Note_on_c, 0, 57, 75
2, 198624, Note_on_c, 0, 62, 75
2, 198624, Note_on_c, 0, 69, 75
2, 198672, Note_on_c, 0, 57, 0
2, 198672, Note_on_c, 0, 62, 0
2, 198672, Note_on_c, 0, 69, 0
2, 199008, Note_on_c, 0, 57, 75
2, 199008, Note_on_c, 0, 62, 75
2, 199008, Note_on_c, 0, 69, 75
2, 199056, Note_on_c, 0, 57, 0
2, 199056, Note_on_c, 0, 62, 0
2, 199056, Note_on_c, 0, 69, 0
2, 199392, Note_on_c, 0, 57, 75
2, 199392, Note_on_c, 0, 62, 75
2, 199392, Note_on_c, 0, 69, 75
2, 199440, Note_on_c, 0, 57, 0
2, 199440, Note_on_c, 0, 62, 0
2, 199440, Note_on_c, 0, 69, 0
2, 199776, Note_on_c, 0, 70, 75
2, 199838, Note_on_c, 0, 70, 0
2, 199840, Note_on_c, 0, 67, 75
2, 199902, Note_on_c, 0, 67, 0
2, 199904, Note_on_c, 0, 62, 75
2, 199966, Note_on_c, 0, 62, 0
2, 199968, Note_on_c, 0, 58, 75
2, 200030, Note_on_c, 0, 58, 0
2, 200032, Note_on_c, 0, 55, 75
2, 200094, Note_on_c, 0, 55, 0
2, 200096, Note_on_c, 0, 50, 75
2, 200158, Note_on_c, 0, 50, 0
2, 200160, Note_on_c, 0, 58, 75
2, 200222, Note_on_c, 0, 58, 0
2, 200224, Note_on_c, 0, 55, 76
2, 200286, Note_on_c, 0, 55, 0
2, 200288, Note_on_c, 0, 50, 77
2, 200350, Note_on_c, 0, 50, 0
2, 200352, Note_on_c, 0, 46, 78
2, 200382, Note_on_c, 0, 46, 0
2, 200384, Note_on_c, 0, 50, 79
2, 200414, Note_on_c, 0, 50, 0
2, 200416, Note_on_c, 0, 55, 79
2, 200446, Note_on_c, 0, 55, 0
2, 200448, Note_on_c, 0, 58, 80
2, 200478, Note_on_c, 0, 58, 0
2, 200480, Note_on_c, 0, 62, 81
2, 200510, Note_on_c, 0, 62, 0
2, 200512, Note_on_c, 0, 67, 82
2, 200542, Note_on_c, 0, 67, 0
2, 200544, Note_on_c, 0, 70, 83
2, 200606, Note_on_c, 0, 70, 0
2, 200608, Note_on_c, 0, 67, 85
2, 200670, Note_on_c, 0, 67, 0
2, 200672, Note_on_c, 0, 62, 87
2, 200734, Note_on_c, 0, 62, 0
2, 200736, Note_on_c, 0, 58, 89
2, 200798, Note_on_c, 0, 58, 0
2, 200800, Note_on_c, 0, 62, 91
2, 200862, Note_on_c, 0, 62, 0
2, 200864, Note_on_c, 0, 67, 93
2, 200926, Note_on_c, 0, 67, 0
2, 200928, Note_on_c, 0, 70, 95
2, 200990, Note_on_c, 0, 70, 0
2, 200992, Note_on_c, 0, 74, 97
2, 201054, Note_on_c, 0, 74, 0
2, 201056, Note_on_c, 0, 79, 99
2, 201118, Note_on_c, 0, 79, 0
2, 201120, Note_on_c, 0, 82, 101
2, 201166, Note_on_c, 0, 82, 0
2, 201168, Note_on_c, 0, 79, 102
2, 201214, Note_on_c, 0, 79, 0
2, 201216, Note_on_c, 0, 74, 104
2, 201262, Note_on_c, 0, 74, 0
2, 201264, Note_on_c, 0, 70, 106
2, 201310, Note_on_c, 0, 70, 0
2, 201312, Note_on_c, 0, 67, 108
2, 201312, Note_on_c, 0, 70, 108
2, 201312, Note_on_c, 0, 73, 108
2, 201312, Note_on_c, 0, 76, 108
2, 201472, Note_on_c, 0, 67, 0
2, 201472, Note_on_c, 0, 70, 0
2, 201472, Note_on_c, 0, 73, 0
2, 201472, Note_on_c, 0, 76, 0
2, 201696, Note_on_c, 0, 67, 108
2, 201696, Note_on_c, 0, 70, 108
2, 201696, Note_on_c, 0, 73, 108
2, 201696, Note_on_c, 0, 76, 108
2, 201856, Note_on_c, 0, 67, 0
2, 201856, Note_on_c, 0, 70, 0
2, 201856, Note_on_c, 0, 73, 0
2, 201856, Note_on_c, 0, 76, 0
2, 202080, Note_on_c, 0, 67, 108
2, 202080, Note_on_c, 0, 70, 108
2, 202080, Note_on_c, 0, 73, 108
2, 202080, Note_on_c, 0, 76, 108
2, 202240, Note_on_c, 0, 67, 0
2, 202240, Note_on_c, 0, 70, 0
2, 202240, Note_on_c, 0, 73, 0
2, 202240, Note_on_c, 0, 76, 0
2, 202464, Note_on_c, 0, 67, 108
2, 202464, Note_on_c, 0, 70, 108
2, 202464, Note_on_c, 0, 73, 108
2, 202464, Note_on_c, 0, 76, 108
2, 202624, Note_on_c, 0, 67, 0
2, 202624, Note_on_c, 0, 70, 0
2, 202624, Note_on_c, 0, 73, 0
2, 202624, Note_on_c, 0, 76, 0
2, 202848, Note_on_c, 0, 77, 108
2, 202910, Note_on_c, 0, 77, 0
2, 202912, Note_on_c, 0, 74, 108
2, 202974, Note_on_c, 0, 74, 0
2, 202976, Note_on_c, 0, 71, 108
2, 203038, Note_on_c, 0, 71, 0
2, 203040, Note_on_c, 0, 68, 108
2, 203102, Note_on_c, 0, 68, 0
2, 203104, Note_on_c, 0, 65, 108
2, 203166, Note_on_c, 0, 65, 0
2, 203168, Note_on_c, 0, 74, 108
2, 203230, Note_on_c, 0, 74, 0
2, 203232, Note_on_c, 0, 71, 108
2, 203294, Note_on_c, 0, 71, 0
2, 203296, Note_on_c, 0, 68, 108
2, 203358, Note_on_c, 0, 68, 0
2, 203360, Note_on_c, 0, 65, 108
2, 203422, Note_on_c, 0, 65, 0
2, 203424, Note_on_c, 0, 62, 108
2, 203486, Note_on_c, 0, 62, 0
2, 203488, Note_on_c, 0, 65, 108
2, 203550, Note_on_c, 0, 65, 0
2, 203552, Note_on_c, 0, 68, 108
2, 203614, Note_on_c, 0, 68, 0
2, 203616, Note_on_c, 0, 71, 108
2, 203678, Note_on_c, 0, 71, 0
2, 203680, Note_on_c, 0, 74, 108
2, 203742, Note_on_c, 0, 74, 0
2, 203744, Note_on_c, 0, 77, 108
2, 203806, Note_on_c, 0, 77, 0
2, 203808, Note_on_c, 0, 80, 108
2, 203870, Note_on_c, 0, 80, 0
2, 203872, Note_on_c, 0, 83, 108
2, 203934, Note_on_c, 0, 83, 0
2, 203936, Note_on_c, 0, 86, 108
2, 203998, Note_on_c, 0, 86, 0
2, 204000, Note_on_c, 0, 89, 108
2, 204192, Note_on_c, 0, 89, 0
2, 204192, Note_on_c, 0, 86, 108
2, 204384, Note_on_c, 0, 86, 0
2, 204384, Note_on_c, 0, 85, 60
2, 204544, Note_on_c, 0, 85, 0
2, 204960, Note_on_c, 0, 88, 60
2, 205056, Note_on_c, 0, 88, 0
2, 205056, Note_on_c, 0, 85, 60
2, 205150, Note_on_c, 0, 85, 0
2, 205152, Note_on_c, 0, 81, 60
2, 205248, Note_on_c, 0, 81, 0
2, 205248, Note_on_c, 0, 82, 60
2, 205342, Note_on_c, 0, 82, 0
2, 205344, Note_on_c, 0, 82, 60
2, 205440, Note_on_c, 0, 82, 0
2, 205440, Note_on_c, 0, 79, 60
2, 205534, Note_on_c, 0, 79, 0
2, 205728, Note_on_c, 0, 88, 60
2, 205824, Note_on_c, 0, 88, 0
2, 205824, Note_on_c, 0, 85, 60
2, 205918, Note_on_c, 0, 85, 0
2, 205920, Note_on_c, 0, 81, 60
2, 206016, Note_on_c, 0, 81, 0
2, 206016, Note_on_c, 0, 82, 60
2, 206110, Note_on_c, 0, 82, 0
2, 206112, Note_on_c, 0, 82, 60
2, 206208, Note_on_c, 0, 82, 0
2, 206208, Note_on_c, 0, 79, 60
2, 206302, Note_on_c, 0, 79, 0
2, 206496, Note_on_c, 0, 88, 60
2, 206592, Note_on_c, 0, 88, 0
2, 206592, Note_on_c, 0, 85, 60
2, 206686, Note_on_c, 0, 85, 0
2, 206688, Note_on_c, 0, 81, 60
2, 206784, Note_on_c, 0, 81, 0
2, 206784, Note_on_c, 0, 82, 60
2, 206878, Note_on_c, 0, 82, 0
2, 206880, Note_on_c, 0, 82, 60
2, 206976, Note_on_c, 0, 82, 0
2, 206976, Note_on_c, 0, 79, 60
2, 207070, Note_on_c, 0, 79, 0
2, 207072, Note_on_c, 0, 79, 60
2, 207168, Note_on_c, 0, 79, 0
2, 207168, Note_on_c, 0, 77, 60
2, 207262, Note_on_c, 0, 77, 0
2, 207264, Note_on_c, 0, 77, 60
2, 207360, Note_on_c, 0, 77, 0
2, 207360, Note_on_c, 0, 76, 60
2, 207454, Note_on_c, 0, 76, 0
2, 207456, Note_on_c, 0, 76, 60
2, 207552, Note_on_c, 0, 76, 0
2, 207552, Note_on_c, 0, 77, 60
2, 207646, Note_on_c, 0, 77, 0
2, 207648, Note_on_c, 0, 74, 60
2, 207696, Note_on_c, 0, 74, 0
2, 208032, Note_on_c, 0, 89, 60
2, 208128, Note_on_c, 0, 89, 0
2, 208128, Note_on_c, 0, 86, 60
2, 208222, Note_on_c, 0, 86, 0
2, 208224, Note_on_c, 0, 80, 60
2, 208320, Note_on_c, 0, 80, 0
2, 208320, Note_on_c, 0, 81, 60
2, 208414, Note_on_c, 0, 81, 0
2, 208416, Note_on_c, 0, 81, 60
2, 208512, Note_on_c, 0, 81, 0
2, 208512, Note_on_c, 0, 77, 60
2, 208606, Note_on_c, 0, 77, 0
2, 208800, Note_on_c, 0, 89, 60
2, 208896, Note_on_c, 0, 89, 0
2, 208896, Note_on_c, 0, 86, 60
2, 208990, Note_on_c, 0, 86, 0
2, 208992, Note_on_c, 0, 80, 60
2, 209088, Note_on_c, 0, 80, 0
2, 209088, Note_on_c, 0, 81, 60
2, 209182, Note_on_c, 0, 81, 0
2, 209184, Note_on_c, 0, 81, 60
2, 209280, Note_on_c, 0, 81, 0
2, 209280, Note_on_c, 0, 77, 60
2, 209374, Note_on_c, 0, 77, 0
2, 209568, Note_on_c, 0, 89, 60
2, 209664, Note_on_c, 0, 89, 0
2, 209664, Note_on_c, 0, 86, 60
2, 209758, Note_on_c, 0, 86, 0
2, 209760, Note_on_c, 0, 80, 60
2, 209856, Note_on_c, 0, 80, 0
2, 209856, Note_on_c, 0, 81, 60
2, 209950, Note_on_c, 0, 81, 0
2, 209952, Note_on_c, 0, 81, 60
2, 210048, Note_on_c, 0, 81, 0
2, 210048, Note_on_c, 0, 77, 60
2, 210142, Note_on_c, 0, 77, 0
2, 210144, Note_on_c, 0, 77, 60
2, 210240, Note_on_c, 0, 77, 0
2, 210240, Note_on_c, 0, 76, 60
2, 210334, Note_on_c, 0, 76, 0
2, 210336, Note_on_c, 0, 76, 60
2, 210432, Note_on_c, 0, 76, 0
2, 210432, Note_on_c, 0, 74, 60
2, 210526, Note_on_c, 0, 74, 0
2, 210528, Note_on_c, 0, 74, 60
2, 210624, Note_on_c, 0, 74, 0
2, 210624, Note_on_c, 0, 73, 60
2, 210718, Note_on_c, 0, 73, 0
2, 210720, Note_on_c, 0, 76, 60
2, 210768, Note_on_c, 0, 76, 0
2, 211104, Note_on_c, 0, 82, 60
2, 211200, Note_on_c, 0, 82, 0
2, 211200, Note_on_c, 0, 79, 60
2, 211294, Note_on_c, 0, 79, 0
2, 211296, Note_on_c, 0, 75, 60
2, 211392, Note_on_c, 0, 75, 0
2, 211392, Note_on_c, 0, 76, 60
2, 211486, Note_on_c, 0, 76, 0
2, 211488, Note_on_c, 0, 73, 60
2, 211536, Note_on_c, 0, 73, 0
2, 211872, Note_on_c, 0, 82, 60
2, 211968, Note_on_c, 0, 82, 0
2, 211968, Note_on_c, 0, 79, 60
2, 212062, Note_on_c, 0, 79, 0
2, 212064, Note_on_c, 0, 75, 60
2, 212160, Note_on_c, 0, 75, 0
2, 212160, Note_on_c, 0, 76, 60
2, 212254, Note_on_c, 0, 76, 0
2, 212256, Note_on_c, 0, 73, 60
2, 212304, Note_on_c, 0, 73, 0
2, 212640, Note_on_c, 0, 82, 60
2, 212736, Note_on_c, 0, 82, 0
2, 212736, Note_on_c, 0, 79, 60
2, 212830, Note_on_c, 0, 79, 0
2, 212832, Note_on_c, 0, 76, 92
2, 212928, Note_on_c, 0, 76, 0
2, 212928, Note_on_c, 0, 79, 92
2, 213022, Note_on_c, 0, 79, 0
2, 213024, Note_on_c, 0, 73, 92
2, 213120, Note_on_c, 0, 73, 0
2, 213120, Note_on_c, 0, 76, 92
2, 213214, Note_on_c, 0, 76, 0
2, 213216, Note_on_c, 0, 70, 92
2, 213312, Note_on_c, 0, 70, 0
2, 213312, Note_on_c, 0, 73, 92
2, 213406, Note_on_c, 0, 73, 0
2, 213408, Note_on_c, 0, 67, 92
2, 213504, Note_on_c, 0, 67, 0
2, 213504, Note_on_c, 0, 70, 92
2, 213598, Note_on_c, 0, 70, 0
2, 213600, Note_on_c, 0, 64, 92
2, 213696, Note_on_c, 0, 64, 0
2, 213696, Note_on_c, 0, 67, 92
2, 213790, Note_on_c, 0, 67, 0
2, 213792, Note_on_c, 0, 61, 92
2, 213888, Note_on_c, 0, 61, 0
2, 213888, Note_on_c, 0, 64, 92
2, 213982, Note_on_c, 0, 64, 0
2, 213984, Note_on_c, 0, 58, 92
2, 214080, Note_on_c, 0, 58, 0
2, 214080, Note_on_c, 0, 61, 92
2, 214174, Note_on_c, 0, 61, 0
2, 214176, Note_on_c, 0, 55, 92
2, 214272, Note_on_c, 0, 55, 0
2, 214272, Note_on_c, 0, 58, 92
2, 214366, Note_on_c, 0, 58, 0
2, 214368, Note_on_c, 0, 52, 92
2, 214464, Note_on_c, 0, 52, 0
2, 214464, Note_on_c, 0, 55, 92
2, 214558, Note_on_c, 0, 55, 0
2, 214560, Note_on_c, 0, 49, 92
2, 214656, Note_on_c, 0, 49, 0
2, 214656, Note_on_c, 0, 52, 92
2, 214752, Note_on_c, 0, 52, 0
2, 214752, Note_on_c, 0, 43, 92
2, 214848, Note_on_c, 0, 43, 0
2, 214848, Note_on_c, 0, 52, 92
2, 214944, Note_on_c, 0, 52, 0
2, 214944, Note_on_c, 0, 49, 92
2, 215040, Note_on_c, 0, 49, 0
2, 215040, Note_on_c, 0, 43, 92
2, 215136, Note_on_c, 0, 43, 0
2, 215136, Note_on_c, 0, 41, 127
2, 215296, Note_on_c, 0, 41, 0
2, 215328, Note_on_c, 0, 53, 127
2, 215328, Note_on_c, 0, 57, 127
2, 215328, Note_on_c, 0, 62, 127
2, 215488, Note_on_c, 0, 53, 0
2, 215488, Note_on_c, 0, 57, 0
2, 215488, Note_on_c, 0, 62, 0
2, 215520, Note_on_c, 0, 55, 127
2, 215520, Note_on_c, 0, 58, 127
2, 215520, Note_on_c, 0, 63, 127
2, 216240, Note_on_c, 0, 63, 0
2, 216288, Note_on_c, 0, 62, 92
2, 216448, Note_on_c, 0, 62, 0
2, 216480, Note_on_c, 0, 61, 92
2, 216640, Note_on_c, 0, 55, 0
2, 216640, Note_on_c, 0, 58, 0
2, 216640, Note_on_c, 0, 61, 0
2, 216672, Note_on_c, 0, 53, 127
2, 216672, Note_on_c, 0, 57, 127
2, 216672, Note_on_c, 0, 62, 127
2, 216832, Note_on_c, 0, 53, 0
2, 216832, Note_on_c, 0, 57, 0
2, 216832, Note_on_c, 0, 62, 0
2, 216864, Note_on_c, 0, 65, 127
2, 216864, Note_on_c, 0, 69, 127
2, 216864, Note_on_c, 0, 74, 127
2, 217056, Note_on_c, 0, 65, 0
2, 217056, Note_on_c, 0, 69, 0
2, 217056, Note_on_c, 0, 74, 0
2, 217056, Note_on_c, 0, 67, 127
2, 217056, Note_on_c, 0, 70, 127
2, 217056, Note_on_c, 0, 75, 127
2, 217824, Note_on_c, 0, 76, 0
2, 217824, Note_on_c, 0, 74, 92
2, 218016, Note_on_c, 0, 74, 0
2, 218016, Note_on_c, 0, 73, 92
2, 218208, Note_on_c, 0, 67, 0
2, 218208, Note_on_c, 0, 70, 0
2, 218208, Note_on_c, 0, 73, 0
2, 218208, Note_on_c, 0, 65, 127
2, 218208, Note_on_c, 0, 69, 127
2, 218208, Note_on_c, 0, 74, 127
2, 218368, Note_on_c, 0, 65, 0
2, 218368, Note_on_c, 0, 69, 0
2, 218368, Note_on_c, 0, 74, 0
2, 218400, Note_on_c, 0, 74, 127
2, 218400, Note_on_c, 0, 86, 127
2, 218592, Note_on_c, 0, 74, 0
2, 218592, Note_on_c, 0, 86, 0
2, 218592, Note_on_c, 0, 75, 127
2, 218592, Note_on_c, 0, 86, 127
2, 219168, Note_on_c, 0, 76, 0
2, 219168, Note_on_c, 0, 86, 0
2, 219168, Note_on_c, 0, 76, 92
2, 219168, Note_on_c, 0, 86, 92
2, 219360, Note_on_c, 0, 76, 0
2, 219360, Note_on_c, 0, 86, 0
2, 219360, Note_on_c, 0, 77, 127
2, 219360, Note_on_c, 0, 86, 127
2, 219936, Note_on_c, 0, 77, 0
2, 219936, Note_on_c, 0, 86, 0
2, 219936, Note_on_c, 0, 78, 92
2, 219936, Note_on_c, 0, 86, 92
2, 220128, Note_on_c, 0, 78, 0
2, 220128, Note_on_c, 0, 79, 92
2, 220320, Note_on_c, 0, 79, 0
2, 220320, Note_on_c, 0, 86, 0
2, 220320, Note_on_c, 0, 81, 92
2, 220320, Note_on_c, 0, 86, 92
2, 220512, Note_on_c, 0, 81, 0
2, 220512, Note_on_c, 0, 86, 0
2, 220512, Note_on_c, 0, 82, 92
2, 220512, Note_on_c, 0, 86, 92
2, 220704, Note_on_c, 0, 82, 0
2, 220704, Note_on_c, 0, 86, 0
2, 220704, Note_on_c, 0, 70, 45
2, 220704, Note_on_c, 0, 82, 45
2, 221088, Note_on_c, 0, 70, 0
2, 221088, Note_on_c, 0, 82, 0
2, 221088, Note_on_c, 0, 69, 45
2, 221088, Note_on_c, 0, 81, 45
2, 221280, Note_on_c, 0, 69, 0
2, 221280, Note_on_c, 0, 81, 0
2, 221280, Note_on_c, 0, 74, 92
2, 221440, Note_on_c, 0, 74, 0
2, 221856, Note_on_c, 0, 54, 127
2, 221856, Note_on_c, 0, 57, 127
2, 222016, Note_on_c, 0, 54, 0
2, 222016, Note_on_c, 0, 57, 0
2, 222048, Note_on_c, 0, 55, 127
2, 222048, Note_on_c, 0, 58, 127
2, 222208, Note_on_c, 0, 55, 0
2, 222208, Note_on_c, 0, 58, 0
2, 222240, Note_on_c, 0, 58, 127
2, 222240, Note_on_c, 0, 67, 127
2, 222576, Note_on_c, 0, 58, 0
2, 222576, Note_on_c, 0, 67, 0
2, 222624, Note_on_c, 0, 58, 127
2, 222624, Note_on_c, 0, 67, 127
2, 222784, Note_on_c, 0, 58, 0
2, 222784, Note_on_c, 0, 67, 0
2, 222816, Note_on_c, 0, 57, 127
2, 222816, Note_on_c, 0, 66, 127
2, 222976, Note_on_c, 0, 57, 0
2, 222976, Note_on_c, 0, 66, 0
2, 223392, Note_on_c, 0, 54, 127
2, 223392, Note_on_c, 0, 57, 127
2, 223552, Note_on_c, 0, 54, 0
2, 223552, Note_on_c, 0, 57, 0
2, 223584, Note_on_c, 0, 55, 127
2, 223584, Note_on_c, 0, 58, 127
2, 223744, Note_on_c, 0, 55, 0
2, 223744, Note_on_c, 0, 58, 0
2, 223776, Note_on_c, 0, 67, 127
2, 223776, Note_on_c, 0, 70, 127
2, 224112, Note_on_c, 0, 67, 0
2, 224112, Note_on_c, 0, 70, 0
2, 224160, Note_on_c, 0, 67, 127
2, 224160, Note_on_c, 0, 70, 127
2, 224320, Note_on_c, 0, 67, 0
2, 224320, Note_on_c, 0, 70, 0
2, 224352, Note_on_c, 0, 66, 92
2, 224352, Note_on_c, 0, 69, 92
2, 224512, Note_on_c, 0, 66, 0
2, 224512, Note_on_c, 0, 69, 0
2, 224928, Note_on_c, 0, 54, 92
2, 224928, Note_on_c, 0, 57, 92
2, 225088, Note_on_c, 0, 54, 0
2, 225088, Note_on_c, 0, 57, 0
2, 225120, Note_on_c, 0, 55, 92
2, 225120, Note_on_c, 0, 58, 92
2, 225280, Note_on_c, 0, 55, 0
2, 225280, Note_on_c, 0, 58, 0
2, 225312, Note_on_c, 0, 67, 127
2, 225312, Note_on_c, 0, 70, 127
2, 225648, Note_on_c, 0, 67, 0
2, 225648, Note_on_c, 0, 70, 0
2, 225696, Note_on_c, 0, 79, 92
2, 225696, Note_on_c, 0, 82, 92
2, 226048, Note_on_c, 0, 79, 0
2, 226048, Note_on_c, 0, 82, 0
2, 226464, Note_on_c, 0, 67, 92
2, 226464, Note_on_c, 0, 70, 92
2, 226656, Note_on_c, 0, 67, 0
2, 226656, Note_on_c, 0, 70, 0
2, 226656, Note_on_c, 0, 65, 92
2, 226656, Note_on_c, 0, 69, 92
2, 226704, Note_on_c, 0, 65, 0
2, 226704, Note_on_c, 0, 69, 0
2, 227232, Note_on_c, 0, 77, 92
2, 227232, Note_on_c, 0, 81, 92
2, 227424, Note_on_c, 0, 77, 0
2, 227424, Note_on_c, 0, 81, 0
2, 227424, Note_on_c, 0, 76, 92
2, 227424, Note_on_c, 0, 79, 92
2, 227472, Note_on_c, 0, 76, 0
2, 227472, Note_on_c, 0, 79, 0
2, 228000, Note_on_c, 0, 64, 92
2, 228000, Note_on_c, 0, 67, 92
2, 228192, Note_on_c, 0, 64, 0
2, 228192, Note_on_c, 0, 67, 0
2, 228192, Note_on_c, 0, 62, 92
2, 228192, Note_on_c, 0, 65, 92
2, 228240, Note_on_c, 0, 62, 0
2, 228240, Note_on_c, 0, 65, 0
2, 228768, Note_on_c, 0, 74, 92
2, 228768, Note_on_c, 0, 77, 92
2, 228960, Note_on_c, 0, 77, 0
2, 228960, Note_on_c, 0, 76, 92
2, 229008, Note_on_c, 0, 74, 0
2, 229008, Note_on_c, 0, 76, 0
2, 229536, Note_on_c, 0, 76, 92
2, 229536, Note_on_c, 0, 86, 92
2, 229728, Note_on_c, 0, 86, 0
2, 229728, Note_on_c, 0, 85, 92
2, 229776, Note_on_c, 0, 76, 0
2, 229776, Note_on_c, 0, 85, 0
2, 230304, Note_on_c, 0, 64, 92
2, 230304, Note_on_c, 0, 73, 92
2, 230496, Note_on_c, 0, 64, 0
2, 230496, Note_on_c, 0, 73, 0
2, 230496, Note_on_c, 0, 74, 45
2, 230590, Note_on_c, 0, 74, 0
2, 230592, Note_on_c, 0, 69, 45
2, 230686, Note_on_c, 0, 69, 0
2, 230688, Note_on_c, 0, 65, 45
2, 230782, Note_on_c, 0, 65, 0
2, 230784, Note_on_c, 0, 77, 45
2, 230878, Note_on_c, 0, 77, 0
2, 230880, Note_on_c, 0, 76, 45
2, 230974, Note_on_c, 0, 76, 0
2, 230976, Note_on_c, 0, 73, 45
2, 231070, Note_on_c, 0, 73, 0
2, 231072, Note_on_c, 0, 69, 45
2, 231166, Note_on_c, 0, 69, 0
2, 231168, Note_on_c, 0, 79, 45
2, 231262, Note_on_c, 0, 79, 0
2, 231264, Note_on_c, 0, 77, 45
2, 231358, Note_on_c, 0, 77, 0
2, 231360, Note_on_c, 0, 74, 45
2, 231454, Note_on_c, 0, 74, 0
2, 231456, Note_on_c, 0, 69, 45
2, 231550, Note_on_c, 0, 69, 0
2, 231552, Note_on_c, 0, 81, 45
2, 231646, Note_on_c, 0, 81, 0
2, 231648, Note_on_c, 0, 80, 45
2, 231742, Note_on_c, 0, 80, 0
2, 231744, Note_on_c, 0, 81, 45
2, 231838, Note_on_c, 0, 81, 0
2, 231840, Note_on_c, 0, 80, 45
2, 231934, Note_on_c, 0, 80, 0
2, 231936, Note_on_c, 0, 81, 45
2, 232030, Note_on_c, 0, 81, 0
2, 232032, Note_on_c, 0, 69, 45
2, 232032, Note_on_c, 0, 77, 45
2, 232032, Note_on_c, 0, 81, 45
2, 232368, Note_on_c, 0, 69, 0
2, 232368, Note_on_c, 0, 77, 0
2, 232368, Note_on_c, 0, 81, 0
2, 232416, Note_on_c, 0, 67, 45
2, 232416, Note_on_c, 0, 76, 45
2, 232416, Note_on_c, 0, 79, 45
2, 232752, Note_on_c, 0, 67, 0
2, 232752, Note_on_c, 0, 76, 0
2, 232752, Note_on_c, 0, 79, 0
2, 232800, Note_on_c, 0, 65, 45
2, 232800, Note_on_c, 0, 74, 45
2, 232800, Note_on_c, 0, 77, 45
2, 233136, Note_on_c, 0, 65, 0
2, 233136, Note_on_c, 0, 74, 0
2, 233136, Note_on_c, 0, 77, 0
2, 233184, Note_on_c, 0, 64, 45
2, 233184, Note_on_c, 0, 73, 45
2, 233184, Note_on_c, 0, 76, 45
2, 233520, Note_on_c, 0, 64, 0
2, 233520, Note_on_c, 0, 73, 0
2, 233520, Note_on_c, 0, 76, 0
2, 233568, Note_on_c, 0, 74, 45
2, 233662, Note_on_c, 0, 74, 0
2, 233664, Note_on_c, 0, 69, 45
2, 233758, Note_on_c, 0, 69, 0
2, 233760, Note_on_c, 0, 65, 45
2, 233854, Note_on_c, 0, 65, 0
2, 233856, Note_on_c, 0, 77, 45
2, 233950, Note_on_c, 0, 77, 0
2, 233952, Note_on_c, 0, 76, 45
2, 234046, Note_on_c, 0, 76, 0
2, 234048, Note_on_c, 0, 73, 45
2, 234142, Note_on_c, 0, 73, 0
2, 234144, Note_on_c, 0, 69, 45
2, 234238, Note_on_c, 0, 69, 0
2, 234240, Note_on_c, 0, 79, 45
2, 234334, Note_on_c, 0, 79, 0
2, 234336, Note_on_c, 0, 77, 45
2, 234430, Note_on_c, 0, 77, 0
2, 234432, Note_on_c, 0, 74, 45
2, 234526, Note_on_c, 0, 74, 0
2, 234528, Note_on_c, 0, 69, 45
2, 234622, Note_on_c, 0, 69, 0
2, 234624, Note_on_c, 0, 81, 45
2, 234718, Note_on_c, 0, 81, 0
2, 234720, Note_on_c, 0, 80, 45
2, 234814, Note_on_c, 0, 80, 0
2, 234816, Note_on_c, 0, 81, 45
2, 234910, Note_on_c, 0, 81, 0
2, 234912, Note_on_c, 0, 80, 45
2, 235006, Note_on_c, 0, 80, 0
2, 235008, Note_on_c, 0, 81, 45
2, 235102, Note_on_c, 0, 81, 0
2, 235104, Note_on_c, 0, 69, 45
2, 235296, Note_on_c, 0, 77, 45
2, 235296, Note_on_c, 0, 81, 45
2, 235632, Note_on_c, 0, 69, 0
2, 235632, Note_on_c, 0, 77, 0
2, 235632, Note_on_c, 0, 81, 0
2, 235680, Note_on_c, 0, 67, 45
2, 235680, Note_on_c, 0, 76, 45
2, 235680, Note_on_c, 0, 79, 45
2, 236032, Note_on_c, 0, 67, 0
2, 236032, Note_on_c, 0, 76, 0
2, 236032, Note_on_c, 0, 79, 0
2, 236064, Note_on_c, 0, 65, 45
2, 236064, Note_on_c, 0, 74, 45
2, 236064, Note_on_c, 0, 77, 45
2, 236400, Note_on_c, 0, 65, 0
2, 236400, Note_on_c, 0, 74, 0
2, 236400, Note_on_c, 0, 77, 0
2, 236448, Note_on_c, 0, 64, 45
2, 236448, Note_on_c, 0, 73, 45
2, 236448, Note_on_c, 0, 76, 45
2, 236608, Note_on_c, 0, 64, 0
2, 236608, Note_on_c, 0, 73, 0
2, 236608, Note_on_c, 0, 76, 0
2, 236640, Note_on_c, 0, 74, 45
2, 236734, Note_on_c, 0, 74, 0
2, 236736, Note_on_c, 0, 69, 45
2, 236830, Note_on_c, 0, 69, 0
2, 236832, Note_on_c, 0, 65, 45
2, 236926, Note_on_c, 0, 65, 0
2, 236928, Note_on_c, 0, 77, 45
2, 237022, Note_on_c, 0, 77, 0
2, 237024, Note_on_c, 0, 76, 45
2, 237118, Note_on_c, 0, 76, 0
2, 237120, Note_on_c, 0, 73, 45
2, 237214, Note_on_c, 0, 73, 0
2, 237216, Note_on_c, 0, 69, 45
2, 237310, Note_on_c, 0, 69, 0
2, 237312, Note_on_c, 0, 79, 45
2, 237406, Note_on_c, 0, 79, 0
2, 237408, Note_on_c, 0, 77, 45
2, 237502, Note_on_c, 0, 77, 0
2, 237504, Note_on_c, 0, 74, 45
2, 237598, Note_on_c, 0, 74, 0
2, 237600, Note_on_c, 0, 69, 45
2, 237694, Note_on_c, 0, 69, 0
2, 237696, Note_on_c, 0, 81, 45
2, 237790, Note_on_c, 0, 81, 0
2, 237792, Note_on_c, 0, 80, 45
2, 237886, Note_on_c, 0, 80, 0
2, 237888, Note_on_c, 0, 81, 45
2, 237982, Note_on_c, 0, 81, 0
2, 237984, Note_on_c, 0, 80, 45
2, 238078, Note_on_c, 0, 80, 0
2, 238080, Note_on_c, 0, 81, 45
2, 238174, Note_on_c, 0, 81, 0
2, 238176, Note_on_c, 0, 77, 45
2, 238270, Note_on_c, 0, 77, 0
2, 238272, Note_on_c, 0, 74, 45
2, 238366, Note_on_c, 0, 74, 0
2, 238368, Note_on_c, 0, 69, 45
2, 238462, Note_on_c, 0, 69, 0
2, 238464, Note_on_c, 0, 81, 45
2, 238558, Note_on_c, 0, 81, 0
2, 238560, Note_on_c, 0, 80, 45
2, 238654, Note_on_c, 0, 80, 0
2, 238656, Note_on_c, 0, 81, 45
2, 238750, Note_on_c, 0, 81, 0
2, 238752, Note_on_c, 0, 80, 45
2, 238846, Note_on_c, 0, 80, 0
2, 238848, Note_on_c, 0, 81, 45
2, 238942, Note_on_c, 0, 81, 0
2, 238944, Note_on_c, 0, 77, 75
2, 239038, Note_on_c, 0, 77, 0
2, 239040, Note_on_c, 0, 74, 75
2, 239134, Note_on_c, 0, 74, 0
2, 239136, Note_on_c, 0, 69, 75
2, 239230, Note_on_c, 0, 69, 0
2, 239232, Note_on_c, 0, 81, 75
2, 239326, Note_on_c, 0, 81, 0
2, 239328, Note_on_c, 0, 80, 75
2, 239422, Note_on_c, 0, 80, 0
2, 239424, Note_on_c, 0, 81, 75
2, 239518, Note_on_c, 0, 81, 0
2, 239520, Note_on_c, 0, 80, 75
2, 239614, Note_on_c, 0, 80, 0
2, 239616, Note_on_c, 0, 81, 75
2, 239710, Note_on_c, 0, 81, 0
2, 239712, Note_on_c, 0, 74, 45
2, 239872, Note_on_c, 0, 74, 0
2, 240096, Note_on_c, 0, 62, 45
2, 240432, Note_on_c, 0, 62, 0
2, 240480, Note_on_c, 0, 62, 30
2, 240816, Note_on_c, 0, 62, 0
2, 240864, Note_on_c, 0, 62, 30
2, 241200, Note_on_c, 0, 62, 0
2, 241248, Note_on_c, 0, 53, 30
2, 241248, Note_on_c, 0, 57, 30
2, 241248, Note_on_c, 0, 62, 30
2, 246576, Note_on_c, 0, 53, 0
2, 246576, Note_on_c, 0, 57, 0
2, 246576, Note_on_c, 0, 62, 0
2, 246624, Note_on_c, 0, 65, 30
2, 246624, Note_on_c, 0, 69, 30
2, 246624, Note_on_c, 0, 74, 30
2, 246624, Note_on_c, 0, 77, 30
2, 247344, Note_on_c, 0, 65, 0
2, 247344, Note_on_c, 0, 69, 0
2, 247344, Note_on_c, 0, 74, 0
2, 247344, Note_on_c, 0, 77, 0
2, 247392, Note_on_c, 0, 62, 30
2, 247392, Note_on_c, 0, 65, 30
2, 247392, Note_on_c, 0, 69, 30
2, 247392, Note_on_c, 0, 74, 30
2, 248880, Note_on_c, 0, 62, 0
2, 248880, Note_on_c, 0, 65, 0
2, 248880, Note_on_c, 0, 69, 0
2, 248880, Note_on_c, 0, 74, 0
2, 252768, Note_on_c, 0, 74, 45
2, 252936, Note_on_c, 0, 74, 0
2, 252936, Note_on_c, 0, 75, 45
2, 252960, Note_on_c, 0, 75, 0
2, 252960, Note_on_c, 0, 77, 45
2, 253120, Note_on_c, 0, 77, 0
2, 253152, Note_on_c, 0, 50, 45
2, 253152, Note_on_c, 0, 53, 45
2, 253152, Note_on_c, 0, 58, 45
2, 253312, Note_on_c, 0, 50, 0
2, 253312, Note_on_c, 0, 53, 0
2, 253312, Note_on_c, 0, 58, 0
2, 253344, Note_on_c, 0, 51, 45
2, 253344, Note_on_c, 0, 53, 45
2, 253344, Note_on_c, 0, 57, 45
2, 253872, Note_on_c, 0, 51, 0
2, 253872, Note_on_c, 0, 53, 0
2, 253872, Note_on_c, 0, 57, 0
2, 253920, Note_on_c, 0, 81, 45
2, 254088, Note_on_c, 0, 81, 0
2, 254088, Note_on_c, 0, 82, 45
2, 254112, Note_on_c, 0, 82, 0
2, 254112, Note_on_c, 0, 84, 45
2, 254272, Note_on_c, 0, 84, 0
2, 254304, Note_on_c, 0, 60, 45
2, 254304, Note_on_c, 0, 63, 45
2, 254464, Note_on_c, 0, 60, 0
2, 254464, Note_on_c, 0, 63, 0
2, 254496, Note_on_c, 0, 58, 45
2, 254496, Note_on_c, 0, 62, 45
2, 254950, Note_on_c, 0, 58, 0
2, 254950, Note_on_c, 0, 62, 0
2, 254952, Note_on_c, 0, 62, 45
2, 254964, Note_on_c, 0, 62, 0
2, 254964, Note_on_c, 0, 65, 45
2, 254976, Note_on_c, 0, 65, 0
2, 254976, Note_on_c, 0, 63, 45
2, 254988, Note_on_c, 0, 63, 0
2, 254988, Note_on_c, 0, 62, 45
2, 255000, Note_on_c, 0, 62, 0
2, 255000, Note_on_c, 0, 63, 45
2, 255012, Note_on_c, 0, 63, 0
2, 255012, Note_on_c, 0, 65, 45
2, 255024, Note_on_c, 0, 65, 0
2, 255024, Note_on_c, 0, 67, 45
2, 255036, Note_on_c, 0, 67, 0
2, 255036, Note_on_c, 0, 69, 45
2, 255048, Note_on_c, 0, 69, 0
2, 255048, Note_on_c, 0, 70, 45
2, 255060, Note_on_c, 0, 70, 0
2, 255060, Note_on_c, 0, 72, 45
2, 255072, Note_on_c, 0, 72, 0
2, 255072, Note_on_c, 0, 74, 45
2, 255240, Note_on_c, 0, 74, 0
2, 255240, Note_on_c, 0, 75, 45
2, 255264, Note_on_c, 0, 75, 0
2, 255264, Note_on_c, 0, 77, 45
2, 255456, Note_on_c, 0, 77, 0
2, 255456, Note_on_c, 0, 68, 63
2, 255456, Note_on_c, 0, 77, 63
2, 255648, Note_on_c, 0, 68, 0
2, 255648, Note_on_c, 0, 77, 0
2, 255648, Note_on_c, 0, 67, 45
2, 255648, Note_on_c, 0, 77, 45
2, 255840, Note_on_c, 0, 77, 0
2, 255840, Note_on_c, 0, 75, 45
2, 255936, Note_on_c, 0, 67, 0
2, 255936, Note_on_c, 0, 75, 0
2, 255936, Note_on_c, 0, 70, 45
2, 255936, Note_on_c, 0, 74, 45
2, 256032, Note_on_c, 0, 70, 0
2, 256032, Note_on_c, 0, 74, 0
2, 256032, Note_on_c, 0, 70, 45
2, 256032, Note_on_c, 0, 72, 45
2, 256100, Note_on_c, 0, 70, 0
2, 256100, Note_on_c, 0, 72, 0
2, 256128, Note_on_c, 0, 70, 45
2, 256128, Note_on_c, 0, 72, 45
2, 256196, Note_on_c, 0, 70, 0
2, 256196, Note_on_c, 0, 72, 0
2, 256224, Note_on_c, 0, 70, 45
2, 256224, Note_on_c, 0, 72, 45
2, 256320, Note_on_c, 0, 70, 0
2, 256320, Note_on_c, 0, 72, 0
2, 256320, Note_on_c, 0, 71, 45
2, 256332, Note_on_c, 0, 72, 45
2, 256344, Note_on_c, 0, 72, 0
2, 256344, Note_on_c, 0, 74, 45
2, 256368, Note_on_c, 0, 74, 0
2, 256368, Note_on_c, 0, 72, 45
2, 256416, Note_on_c, 0, 71, 0
2, 256416, Note_on_c, 0, 72, 0
2, 256416, Note_on_c, 0, 69, 45
2, 256416, Note_on_c, 0, 72, 45
2, 256510, Note_on_c, 0, 69, 0
2, 256510, Note_on_c, 0, 72, 0
2, 256656, Note_on_c, 0, 53, 45
2, 256702, Note_on_c, 0, 53, 0
2, 256704, Note_on_c, 0, 51, 45
2, 256704, Note_on_c, 0, 55, 45
2, 256750, Note_on_c, 0, 51, 0
2, 256750, Note_on_c, 0, 55, 0
2, 256752, Note_on_c, 0, 48, 45
2, 256752, Note_on_c, 0, 57, 45
2, 256798, Note_on_c, 0, 48, 0
2, 256798, Note_on_c, 0, 57, 0
2, 256800, Note_on_c, 0, 46, 45
2, 256800, Note_on_c, 0, 50, 45
2, 256800, Note_on_c, 0, 58, 45
2, 256966, Note_on_c, 0, 46, 0
2, 256966, Note_on_c, 0, 50, 0
2, 256968, Note_on_c, 0, 48, 45
2, 256968, Note_on_c, 0, 51, 45
2, 256990, Note_on_c, 0, 48, 0
2, 256990, Note_on_c, 0, 51, 0
2, 256992, Note_on_c, 0, 50, 45
2, 256992, Note_on_c, 0, 53, 45
2, 257152, Note_on_c, 0, 50, 0
2, 257152, Note_on_c, 0, 53, 0
2, 257184, Note_on_c, 0, 50, 45
2, 257184, Note_on_c, 0, 53, 45
2, 257344, Note_on_c, 0, 50, 0
2, 257344, Note_on_c, 0, 53, 0
2, 257344, Note_on_c, 0, 58, 0
2, 257376, Note_on_c, 0, 74, 45
2, 257470, Note_on_c, 0, 74, 0
2, 257472, Note_on_c, 0, 75, 45
2, 257482, Note_on_c, 0, 75, 0
2, 257484, Note_on_c, 0, 74, 45
2, 257494, Note_on_c, 0, 74, 0
2, 257496, Note_on_c, 0, 72, 45
2, 257506, Note_on_c, 0, 72, 0
2, 257508, Note_on_c, 0, 74, 45
2, 257542, Note_on_c, 0, 74, 0
2, 257544, Note_on_c, 0, 75, 45
2, 257566, Note_on_c, 0, 75, 0
2, 257568, Note_on_c, 0, 77, 45
2, 257728, Note_on_c, 0, 77, 0
2, 257760, Note_on_c, 0, 50, 45
2, 257760, Note_on_c, 0, 53, 45
2, 257760, Note_on_c, 0, 58, 45
2, 257920, Note_on_c, 0, 50, 0
2, 257920, Note_on_c, 0, 53, 0
2, 257920, Note_on_c, 0, 58, 0
2, 257952, Note_on_c, 0, 48, 45
2, 257952, Note_on_c, 0, 51, 45
2, 257952, Note_on_c, 0, 57, 45
2, 258118, Note_on_c, 0, 48, 0
2, 258118, Note_on_c, 0, 51, 0
2, 258120, Note_on_c, 0, 50, 45
2, 258120, Note_on_c, 0, 53, 45
2, 258142, Note_on_c, 0, 50, 0
2, 258142, Note_on_c, 0, 53, 0
2, 258144, Note_on_c, 0, 51, 45
2, 258144, Note_on_c, 0, 54, 45
2, 258304, Note_on_c, 0, 51, 0
2, 258304, Note_on_c, 0, 54, 0
2, 258336, Note_on_c, 0, 51, 45
2, 258336, Note_on_c, 0, 54, 45
2, 258496, Note_on_c, 0, 51, 0
2, 258496, Note_on_c, 0, 54, 0
2, 258496, Note_on_c, 0, 57, 0
2, 258528, Note_on_c, 0, 84, 45
2, 258622, Note_on_c, 0, 84, 0
2, 258624, Note_on_c, 0, 86, 45
2, 258634, Note_on_c, 0, 86, 0
2, 258636, Note_on_c, 0, 84, 45
2, 258646, Note_on_c, 0, 84, 0
2, 258648, Note_on_c, 0, 83, 45
2, 258658, Note_on_c, 0, 83, 0
2, 258660, Note_on_c, 0, 84, 45
2, 258694, Note_on_c, 0, 84, 0
2, 258696, Note_on_c, 0, 86, 45
2, 258718, Note_on_c, 0, 86, 0
2, 258720, Note_on_c, 0, 87, 45
2, 258880, Note_on_c, 0, 87, 0
2, 258912, Note_on_c, 0, 63, 45
2, 258912, Note_on_c, 0, 66, 45
2, 259072, Note_on_c, 0, 63, 0
2, 259072, Note_on_c, 0, 66, 0
2, 259104, Note_on_c, 0, 63, 45
2, 259104, Note_on_c, 0, 65, 45
2, 259198, Note_on_c, 0, 63, 0
2, 259648, Note_on_c, 0, 65, 0
2, 259680, Note_on_c, 0, 84, 45
2, 259774, Note_on_c, 0, 84, 0
2, 259776, Note_on_c, 0, 86, 45
2, 259786, Note_on_c, 0, 86, 0
2, 259788, Note_on_c, 0, 84, 45
2, 259798, Note_on_c, 0, 84, 0
2, 259800, Note_on_c, 0, 83, 45
2, 259810, Note_on_c, 0, 83, 0
2, 259812, Note_on_c, 0, 84, 45
2, 259846, Note_on_c, 0, 84, 0
2, 259848, Note_on_c, 0, 86, 45
2, 259870, Note_on_c, 0, 86, 0
2, 259872, Note_on_c, 0, 87, 45
2, 260032, Note_on_c, 0, 87, 0
2, 260064, Note_on_c, 0, 69, 63
2, 260064, Note_on_c, 0, 75, 63
2, 260256, Note_on_c, 0, 69, 0
2, 260256, Note_on_c, 0, 75, 0
2, 260256, Note_on_c, 0, 70, 45
2, 260256, Note_on_c, 0, 74, 45
2, 260350, Note_on_c, 0, 70, 0
2, 260350, Note_on_c, 0, 74, 0
2, 260448, Note_on_c, 0, 79, 92
2, 260640, Note_on_c, 0, 67, 92
2, 260640, Note_on_c, 0, 70, 92
2, 260640, Note_on_c, 0, 74, 92
2, 260672, Note_on_c, 0, 67, 0
2, 260672, Note_on_c, 0, 70, 0
2, 260672, Note_on_c, 0, 74, 0
2, 260830, Note_on_c, 0, 79, 0
2, 260832, Note_on_c, 0, 77, 45
2, 261024, Note_on_c, 0, 65, 45
2, 261024, Note_on_c, 0, 70, 45
2, 261024, Note_on_c, 0, 74, 45
2, 261056, Note_on_c, 0, 65, 0
2, 261056, Note_on_c, 0, 70, 0
2, 261056, Note_on_c, 0, 74, 0
2, 261216, Note_on_c, 0, 60, 45
2, 261216, Note_on_c, 0, 63, 45
2, 261216, Note_on_c, 0, 69, 45
2, 261248, Note_on_c, 0, 60, 0
2, 261248, Note_on_c, 0, 63, 0
2, 261248, Note_on_c, 0, 69, 0
2, 261406, Note_on_c, 0, 77, 0
2, 261408, Note_on_c, 0, 58, 45
2, 261408, Note_on_c, 0, 62, 45
2, 261408, Note_on_c, 0, 70, 45
2, 261440, Note_on_c, 0, 58, 0
2, 261440, Note_on_c, 0, 62, 0
2, 261440, Note_on_c, 0, 70, 0
2, 261984, Note_on_c, 0, 55, 45
2, 261984, Note_on_c, 0, 58, 45
2, 261984, Note_on_c, 0, 63, 45
2, 262176, Note_on_c, 0, 55, 0
2, 262176, Note_on_c, 0, 58, 0
2, 262176, Note_on_c, 0, 63, 0
2, 262176, Note_on_c, 0, 53, 45
2, 262176, Note_on_c, 0, 58, 45
2, 262176, Note_on_c, 0, 62, 45
2, 262368, Note_on_c, 0, 53, 0
2, 262368, Note_on_c, 0, 58, 0
2, 262368, Note_on_c, 0, 62, 0
2, 262368, Note_on_c, 0, 52, 45
2, 262368, Note_on_c, 0, 60, 45
2, 262368, Note_on_c, 0, 60, 45
2, 262560, Note_on_c, 0, 52, 0
2, 262560, Note_on_c, 0, 60, 0
2, 262560, Note_on_c, 0, 60, 0
2, 262560, Note_on_c, 0, 52, 45
2, 262560, Note_on_c, 0, 60, 45
2, 262560, Note_on_c, 0, 60, 45
2, 262752, Note_on_c, 0, 52, 0
2, 262752, Note_on_c, 0, 60, 0
2, 262752, Note_on_c, 0, 60, 0
2, 262752, Note_on_c, 0, 53, 45
2, 262752, Note_on_c, 0, 60, 45
2, 262752, Note_on_c, 0, 62, 45
2, 262846, Note_on_c, 0, 53, 0
2, 262846, Note_on_c, 0, 60, 0
2, 262846, Note_on_c, 0, 62, 0
2, 263136, Note_on_c, 0, 51, 45
2, 263136, Note_on_c, 0, 55, 45
2, 263136, Note_on_c, 0, 60, 45
2, 263328, Note_on_c, 0, 60, 0
2, 263328, Note_on_c, 0, 62, 45
2, 263352, Note_on_c, 0, 62, 0
2, 263352, Note_on_c, 0, 60, 45
2, 263376, Note_on_c, 0, 60, 0
2, 263376, Note_on_c, 0, 59, 45
2, 263400, Note_on_c, 0, 59, 0
2, 263400, Note_on_c, 0, 60, 45
2, 263424, Note_on_c, 0, 60, 0
2, 263424, Note_on_c, 0, 63, 45
2, 263520, Note_on_c, 0, 51, 0
2, 263520, Note_on_c, 0, 55, 0
2, 263520, Note_on_c, 0, 63, 0
2, 263520, Note_on_c, 0, 51, 45
2, 263520, Note_on_c, 0, 54, 45
2, 263520, Note_on_c, 0, 60, 45
2, 263616, Note_on_c, 0, 60, 0
2, 263616, Note_on_c, 0, 57, 45
2, 263712, Note_on_c, 0, 51, 0
2, 263712, Note_on_c, 0, 54, 0
2, 263712, Note_on_c, 0, 57, 0
2, 263712, Note_on_c, 0, 51, 45
2, 263712, Note_on_c, 0, 54, 45
2, 263712, Note_on_c, 0, 57, 45
2, 263712, Note_on_c, 0, 60, 45
2, 263904, Note_on_c, 0, 51, 0
2, 263904, Note_on_c, 0, 54, 0
2, 263904, Note_on_c, 0, 57, 0
2, 263904, Note_on_c, 0, 60, 0
2, 263904, Note_on_c, 0, 50, 45
2, 263904, Note_on_c, 0, 53, 45
2, 263904, Note_on_c, 0, 58, 45
2, 263998, Note_on_c, 0, 50, 0
2, 263998, Note_on_c, 0, 53, 0
2, 263998, Note_on_c, 0, 58, 0
2, 264288, Note_on_c, 0, 62, 45
2, 264288, Note_on_c, 0, 70, 45
2, 264480, Note_on_c, 0, 62, 0
2, 264480, Note_on_c, 0, 70, 0
2, 264480, Note_on_c, 0, 58, 45
2, 264480, Note_on_c, 0, 62, 45
2, 264480, Note_on_c, 0, 67, 45
2, 264672, Note_on_c, 0, 58, 0
2, 264672, Note_on_c, 0, 62, 0
2, 264672, Note_on_c, 0, 67, 0
2, 264672, Note_on_c, 0, 57, 45
2, 264672, Note_on_c, 0, 62, 45
2, 264672, Note_on_c, 0, 65, 45
2, 264864, Note_on_c, 0, 57, 0
2, 264864, Note_on_c, 0, 62, 0
2, 264864, Note_on_c, 0, 65, 0
2, 264864, Note_on_c, 0, 55, 45
2, 264864, Note_on_c, 0, 60, 45
2, 264864, Note_on_c, 0, 64, 45
2, 265120, Note_on_c, 0, 55, 0
2, 265120, Note_on_c, 0, 60, 0
2, 265120, Note_on_c, 0, 64, 0
2, 265152, Note_on_c, 0, 55, 45
2, 265152, Note_on_c, 0, 60, 45
2, 265152, Note_on_c, 0, 64, 45
2, 265248, Note_on_c, 0, 55, 0
2, 265248, Note_on_c, 0, 60, 0
2, 265248, Note_on_c, 0, 64, 0
2, 265248, Note_on_c, 0, 57, 45
2, 265248, Note_on_c, 0, 60, 45
2, 265248, Note_on_c, 0, 65, 45
2, 265344, Note_on_c, 0, 57, 0
2, 265344, Note_on_c, 0, 60, 0
2, 265344, Note_on_c, 0, 65, 0
2, 265344, Note_on_c, 0, 58, 45
2, 265344, Note_on_c, 0, 60, 45
2, 265344, Note_on_c, 0, 67, 45
2, 265440, Note_on_c, 0, 58, 0
2, 265440, Note_on_c, 0, 60, 0
2, 265440, Note_on_c, 0, 67, 0
2, 265440, Note_on_c, 0, 58, 45
2, 265440, Note_on_c, 0, 60, 45
2, 265440, Note_on_c, 0, 67, 45
2, 265582, Note_on_c, 0, 58, 0
2, 265582, Note_on_c, 0, 60, 0
2, 265582, Note_on_c, 0, 67, 0
2, 265584, Note_on_c, 0, 56, 45
2, 265584, Note_on_c, 0, 60, 45
2, 265584, Note_on_c, 0, 64, 45
2, 265632, Note_on_c, 0, 56, 0
2, 265632, Note_on_c, 0, 60, 0
2, 265632, Note_on_c, 0, 64, 0
2, 265632, Note_on_c, 0, 57, 45
2, 265632, Note_on_c, 0, 60, 45
2, 265632, Note_on_c, 0, 65, 45
2, 265664, Note_on_c, 0, 57, 0
2, 265664, Note_on_c, 0, 60, 0
2, 265664, Note_on_c, 0, 65, 0
2, 265728, Note_on_c, 0, 57, 45
2, 265728, Note_on_c, 0, 60, 45
2, 265728, Note_on_c, 0, 65, 45
2, 265824, Note_on_c, 0, 57, 0
2, 265824, Note_on_c, 0, 60, 0
2, 265824, Note_on_c, 0, 65, 0
2, 265824, Note_on_c, 0, 60, 45
2, 265824, Note_on_c, 0, 64, 45
2, 265824, Note_on_c, 0, 67, 45
2, 265920, Note_on_c, 0, 60, 0
2, 265920, Note_on_c, 0, 64, 0
2, 265920, Note_on_c, 0, 67, 0
2, 265920, Note_on_c, 0, 60, 48
2, 265920, Note_on_c, 0, 65, 48
2, 265920, Note_on_c, 0, 69, 48
2, 266016, Note_on_c, 0, 60, 0
2, 266016, Note_on_c, 0, 65, 0
2, 266016, Note_on_c, 0, 69, 0
2, 266016, Note_on_c, 0, 60, 52
2, 266016, Note_on_c, 0, 65, 52
2, 266016, Note_on_c, 0, 69, 52
2, 266158, Note_on_c, 0, 65, 0
2, 266158, Note_on_c, 0, 69, 0
2, 266160, Note_on_c, 0, 63, 58
2, 266160, Note_on_c, 0, 66, 58
2, 266208, Note_on_c, 0, 63, 0
2, 266208, Note_on_c, 0, 66, 0
2, 266208, Note_on_c, 0, 64, 60
2, 266208, Note_on_c, 0, 67, 60
2, 266302, Note_on_c, 0, 60, 0
2, 266302, Note_on_c, 0, 64, 0
2, 266302, Note_on_c, 0, 67, 0
2, 266304, Note_on_c, 0, 60, 64
2, 266304, Note_on_c, 0, 64, 64
2, 266304, Note_on_c, 0, 67, 64
2, 266398, Note_on_c, 0, 60, 0
2, 266398, Note_on_c, 0, 64, 0
2, 266398, Note_on_c, 0, 67, 0
2, 266400, Note_on_c, 0, 60, 68
2, 266400, Note_on_c, 0, 65, 68
2, 266400, Note_on_c, 0, 69, 68
2, 266494, Note_on_c, 0, 60, 0
2, 266494, Note_on_c, 0, 65, 0
2, 266494, Note_on_c, 0, 69, 0
2, 266496, Note_on_c, 0, 60, 72
2, 266496, Note_on_c, 0, 67, 72
2, 266496, Note_on_c, 0, 70, 72
2, 266590, Note_on_c, 0, 60, 0
2, 266590, Note_on_c, 0, 67, 0
2, 266590, Note_on_c, 0, 70, 0
2, 266592, Note_on_c, 0, 60, 76
2, 266592, Note_on_c, 0, 67, 76
2, 266592, Note_on_c, 0, 70, 76
2, 266734, Note_on_c, 0, 67, 0
2, 266734, Note_on_c, 0, 70, 0
2, 266736, Note_on_c, 0, 64, 82
2, 266736, Note_on_c, 0, 68, 82
2, 266784, Note_on_c, 0, 64, 0
2, 266784, Note_on_c, 0, 68, 0
2, 266784, Note_on_c, 0, 65, 84
2, 266784, Note_on_c, 0, 69, 84
2, 266878, Note_on_c, 0, 60, 0
2, 266878, Note_on_c, 0, 65, 0
2, 266878, Note_on_c, 0, 69, 0
2, 266880, Note_on_c, 0, 60, 88
2, 266880, Note_on_c, 0, 65, 88
2, 266880, Note_on_c, 0, 69, 88
2, 266976, Note_on_c, 0, 60, 0
2, 266976, Note_on_c, 0, 65, 0
2, 266976, Note_on_c, 0, 69, 0
2, 266976, Note_on_c, 0, 62, 92
2, 266976, Note_on_c, 0, 65, 92
2, 266976, Note_on_c, 0, 68, 92
2, 266976, Note_on_c, 0, 71, 92
2, 267072, Note_on_c, 0, 62, 0
2, 267072, Note_on_c, 0, 65, 0
2, 267072, Note_on_c, 0, 68, 0
2, 267072, Note_on_c, 0, 71, 0
2, 267072, Note_on_c, 0, 62, 92
2, 267072, Note_on_c, 0, 65, 92
2, 267072, Note_on_c, 0, 68, 92
2, 267072, Note_on_c, 0, 71, 92
2, 267168, Note_on_c, 0, 62, 0
2, 267168, Note_on_c, 0, 65, 0
2, 267168, Note_on_c, 0, 68, 0
2, 267168, Note_on_c, 0, 71, 0
2, 267168, Note_on_c, 0, 64, 45
2, 267168, Note_on_c, 0, 67, 45
2, 267168, Note_on_c, 0, 72, 45
2, 267264, Note_on_c, 0, 64, 0
2, 267264, Note_on_c, 0, 67, 0
2, 267264, Note_on_c, 0, 72, 0
2, 267264, Note_on_c, 0, 60, 45
2, 267264, Note_on_c, 0, 64, 45
2, 267264, Note_on_c, 0, 67, 45
2, 267424, Note_on_c, 0, 60, 0
2, 267424, Note_on_c, 0, 64, 0
2, 267424, Note_on_c, 0, 67, 0
2, 267456, Note_on_c, 0, 60, 75
2, 267456, Note_on_c, 0, 64, 75
2, 267456, Note_on_c, 0, 67, 75
2, 267552, Note_on_c, 0, 60, 0
2, 267552, Note_on_c, 0, 64, 0
2, 267552, Note_on_c, 0, 67, 0
2, 267552, Note_on_c, 0, 62, 75
2, 267552, Note_on_c, 0, 65, 75
2, 267552, Note_on_c, 0, 71, 75
2, 267648, Note_on_c, 0, 62, 0
2, 267648, Note_on_c, 0, 65, 0
2, 267648, Note_on_c, 0, 71, 0
2, 267648, Note_on_c, 0, 62, 75
2, 267648, Note_on_c, 0, 65, 75
2, 267648, Note_on_c, 0, 67, 75
2, 267744, Note_on_c, 0, 62, 0
2, 267744, Note_on_c, 0, 65, 0
2, 267744, Note_on_c, 0, 67, 0
2, 267744, Note_on_c, 0, 60, 75
2, 267744, Note_on_c, 0, 64, 75
2, 267744, Note_on_c, 0, 72, 75
2, 267840, Note_on_c, 0, 60, 0
2, 267840, Note_on_c, 0, 64, 0
2, 267840, Note_on_c, 0, 72, 0
2, 267840, Note_on_c, 0, 60, 75
2, 267840, Note_on_c, 0, 64, 75
2, 267840, Note_on_c, 0, 67, 75
2, 268000, Note_on_c, 0, 60, 0
2, 268000, Note_on_c, 0, 64, 0
2, 268000, Note_on_c, 0, 67, 0
2, 268032, Note_on_c, 0, 60, 75
2, 268032, Note_on_c, 0, 64, 75
2, 268032, Note_on_c, 0, 67, 75
2, 268128, Note_on_c, 0, 60, 0
2, 268128, Note_on_c, 0, 64, 0
2, 268128, Note_on_c, 0, 67, 0
2, 268128, Note_on_c, 0, 62, 75
2, 268128, Note_on_c, 0, 65, 75
2, 268128, Note_on_c, 0, 71, 75
2, 268224, Note_on_c, 0, 62, 0
2, 268224, Note_on_c, 0, 65, 0
2, 268224, Note_on_c, 0, 71, 0
2, 268224, Note_on_c, 0, 62, 75
2, 268224, Note_on_c, 0, 65, 75
2, 268224, Note_on_c, 0, 67, 75
2, 268320, Note_on_c, 0, 62, 0
2, 268320, Note_on_c, 0, 65, 0
2, 268320, Note_on_c, 0, 67, 0
2, 268320, Note_on_c, 0, 60, 75
2, 268320, Note_on_c, 0, 64, 75
2, 268320, Note_on_c, 0, 72, 75
2, 268414, Note_on_c, 0, 60, 0
2, 268414, Note_on_c, 0, 64, 0
2, 268414, Note_on_c, 0, 72, 0
2, 268416, Note_on_c, 0, 60, 75
2, 268416, Note_on_c, 0, 64, 75
2, 268416, Note_on_c, 0, 67, 75
2, 268608, Note_on_c, 0, 60, 0
2, 268608, Note_on_c, 0, 64, 0
2, 268608, Note_on_c, 0, 67, 0
2, 268608, Note_on_c, 0, 55, 70
2, 268608, Note_on_c, 0, 60, 70
2, 268608, Note_on_c, 0, 64, 70
2, 268800, Note_on_c, 0, 55, 0
2, 268800, Note_on_c, 0, 60, 0
2, 268800, Note_on_c, 0, 64, 0
2, 268800, Note_on_c, 0, 52, 65
2, 268800, Note_on_c, 0, 55, 65
2, 268800, Note_on_c, 0, 60, 65
2, 268990, Note_on_c, 0, 52, 0
2, 268990, Note_on_c, 0, 55, 0
2, 268990, Note_on_c, 0, 60, 0
2, 269328, Note_on_c, 0, 41, 40
2, 269345, Note_on_c, 0, 41, 0
2, 269352, Note_on_c, 0, 43, 40
2, 269369, Note_on_c, 0, 43, 0
2, 269376, Note_on_c, 0, 45, 41
2, 269393, Note_on_c, 0, 45, 0
2, 269400, Note_on_c, 0, 46, 42
2, 269417, Note_on_c, 0, 46, 0
2, 269424, Note_on_c, 0, 48, 43
2, 269441, Note_on_c, 0, 48, 0
2, 269448, Note_on_c, 0, 50, 44
2, 269465, Note_on_c, 0, 50, 0
2, 269472, Note_on_c, 0, 72, 45
2, 269664, Note_on_c, 0, 65, 45
2, 269832, Note_on_c, 0, 72, 0
2, 269832, Note_on_c, 0, 69, 45
2, 269856, Note_on_c, 0, 65, 0
2, 269856, Note_on_c, 0, 69, 0
2, 269856, Note_on_c, 0, 65, 45
2, 269856, Note_on_c, 0, 77, 45
2, 270024, Note_on_c, 0, 77, 0
2, 270024, Note_on_c, 0, 74, 45
2, 270048, Note_on_c, 0, 65, 0
2, 270048, Note_on_c, 0, 74, 0
2, 270048, Note_on_c, 0, 72, 45
2, 270240, Note_on_c, 0, 65, 45
2, 270408, Note_on_c, 0, 72, 0
2, 270408, Note_on_c, 0, 69, 45
2, 270430, Note_on_c, 0, 65, 0
2, 270430, Note_on_c, 0, 69, 0
2, 270432, Note_on_c, 0, 65, 45
2, 270432, Note_on_c, 0, 70, 45
2, 270528, Note_on_c, 0, 65, 0
2, 270528, Note_on_c, 0, 62, 45
2, 270598, Note_on_c, 0, 70, 0
2, 270600, Note_on_c, 0, 67, 45
2, 270624, Note_on_c, 0, 62, 0
2, 270624, Note_on_c, 0, 67, 0
2, 270624, Note_on_c, 0, 65, 45
2, 270720, Note_on_c, 0, 57, 45
2, 270814, Note_on_c, 0, 57, 0
2, 270816, Note_on_c, 0, 60, 45
2, 270976, Note_on_c, 0, 60, 0
2, 270976, Note_on_c, 0, 65, 0
2, 271008, Note_on_c, 0, 60, 45
2, 271008, Note_on_c, 0, 69, 45
2, 271056, Note_on_c, 0, 69, 0
2, 271056, Note_on_c, 0, 67, 45
2, 271104, Note_on_c, 0, 67, 0
2, 271104, Note_on_c, 0, 65, 45
2, 271152, Note_on_c, 0, 65, 0
2, 271152, Note_on_c, 0, 67, 45
2, 271200, Note_on_c, 0, 60, 0
2, 271200, Note_on_c, 0, 67, 0
2, 271200, Note_on_c, 0, 60, 45
2, 271200, Note_on_c, 0, 67, 45
2, 271368, Note_on_c, 0, 67, 0
2, 271368, Note_on_c, 0, 68, 45
2, 271392, Note_on_c, 0, 60, 0
2, 271392, Note_on_c, 0, 68, 0
2, 271392, Note_on_c, 0, 60, 45
2, 271392, Note_on_c, 0, 69, 45
2, 271486, Note_on_c, 0, 60, 0
2, 271486, Note_on_c, 0, 69, 0
2, 271608, Note_on_c, 0, 60, 45
2, 271624, Note_on_c, 0, 60, 0
2, 271632, Note_on_c, 0, 62, 45
2, 271648, Note_on_c, 0, 62, 0
2, 271656, Note_on_c, 0, 64, 45
2, 271672, Note_on_c, 0, 64, 0
2, 271680, Note_on_c, 0, 65, 45
2, 271696, Note_on_c, 0, 65, 0
2, 271704, Note_on_c, 0, 67, 45
2, 271720, Note_on_c, 0, 67, 0
2, 271728, Note_on_c, 0, 69, 45
2, 271744, Note_on_c, 0, 69, 0
2, 271752, Note_on_c, 0, 70, 45
2, 271768, Note_on_c, 0, 70, 0
2, 271776, Note_on_c, 0, 72, 45
2, 271920, Note_on_c, 0, 64, 45
2, 271966, Note_on_c, 0, 64, 0
2, 271966, Note_on_c, 0, 72, 0
2, 271968, Note_on_c, 0, 65, 45
2, 271968, Note_on_c, 0, 72, 45
2, 272134, Note_on_c, 0, 72, 0
2, 272136, Note_on_c, 0, 69, 45
2, 272158, Note_on_c, 0, 69, 0
2, 272160, Note_on_c, 0, 77, 45
2, 272326, Note_on_c, 0, 77, 0
2, 272328, Note_on_c, 0, 74, 45
2, 272350, Note_on_c, 0, 65, 0
2, 272350, Note_on_c, 0, 74, 0
2, 272352, Note_on_c, 0, 72, 45
2, 272496, Note_on_c, 0, 64, 45
2, 272542, Note_on_c, 0, 64, 0
2, 272542, Note_on_c, 0, 72, 0
2, 272544, Note_on_c, 0, 65, 45
2, 272544, Note_on_c, 0, 72, 45
2, 272710, Note_on_c, 0, 72, 0
2, 272712, Note_on_c, 0, 69, 45
2, 272734, Note_on_c, 0, 69, 0
2, 272736, Note_on_c, 0, 72, 45
2, 272782, Note_on_c, 0, 72, 0
2, 272784, Note_on_c, 0, 70, 45
2, 272878, Note_on_c, 0, 70, 0
2, 272880, Note_on_c, 0, 67, 45
2, 272926, Note_on_c, 0, 65, 0
2, 272926, Note_on_c, 0, 67, 0
2, 272928, Note_on_c, 0, 57, 45
2, 272928, Note_on_c, 0, 65, 45
2, 273024, Note_on_c, 0, 53, 45
2, 273120, Note_on_c, 0, 53, 0
2, 273120, Note_on_c, 0, 60, 45
2, 273216, Note_on_c, 0, 60, 0
2, 273216, Note_on_c, 0, 53, 45
2, 273312, Note_on_c, 0, 53, 0
2, 273312, Note_on_c, 0, 57, 0
2, 273312, Note_on_c, 0, 65, 0
2, 273312, Note_on_c, 0, 52, 45
2, 273312, Note_on_c, 0, 55, 45
2, 273312, Note_on_c, 0, 60, 45
2, 273408, Note_on_c, 0, 55, 0
2, 273408, Note_on_c, 0, 48, 45
2, 273502, Note_on_c, 0, 48, 0
2, 273502, Note_on_c, 0, 52, 0
2, 273502, Note_on_c, 0, 60, 0
2, 273504, Note_on_c, 0, 48, 45
2, 273504, Note_on_c, 0, 53, 45
2, 273504, Note_on_c, 0, 57, 45
2, 273598, Note_on_c, 0, 48, 0
2, 273598, Note_on_c, 0, 53, 0
2, 273598, Note_on_c, 0, 57, 0
2, 273984, Note_on_c, 0, 65, 45
2, 274078, Note_on_c, 0, 65, 0
2, 274080, Note_on_c, 0, 65, 45
2, 274272, Note_on_c, 0, 65, 0
2, 274272, Note_on_c, 0, 57, 45
2, 274272, Note_on_c, 0, 60, 45
2, 274272, Note_on_c, 0, 63, 45
2, 274272, Note_on_c, 0, 66, 45
2, 274528, Note_on_c, 0, 66, 0
2, 274560, Note_on_c, 0, 66, 45
2, 274654, Note_on_c, 0, 57, 0
2, 274654, Note_on_c, 0, 60, 0
2, 274654, Note_on_c, 0, 63, 0
2, 274654, Note_on_c, 0, 66, 0
2, 274656, Note_on_c, 0, 66, 45
2, 274848, Note_on_c, 0, 66, 0
2, 274848, Note_on_c, 0, 60, 45
2, 274848, Note_on_c, 0, 63, 45
2, 274848, Note_on_c, 0, 66, 45
2, 274848, Note_on_c, 0, 69, 45
2, 275104, Note_on_c, 0, 69, 0
2, 275136, Note_on_c, 0, 69, 45
2, 275230, Note_on_c, 0, 60, 0
2, 275230, Note_on_c, 0, 63, 0
2, 275230, Note_on_c, 0, 66, 0
2, 275230, Note_on_c, 0, 69, 0
2, 275232, Note_on_c, 0, 69, 45
2, 275392, Note_on_c, 0, 69, 0
2, 275424, Note_on_c, 0, 63, 45
2, 275424, Note_on_c, 0, 66, 45
2, 275424, Note_on_c, 0, 69, 45
2, 275424, Note_on_c, 0, 72, 45
2, 275680, Note_on_c, 0, 72, 0
2, 275712, Note_on_c, 0, 72, 45
2, 275806, Note_on_c, 0, 63, 0
2, 275806, Note_on_c, 0, 66, 0
2, 275806, Note_on_c, 0, 69, 0
2, 275806, Note_on_c, 0, 72, 0
2, 275808, Note_on_c, 0, 72, 45
2, 275904, Note_on_c, 0, 72, 0
2, 275904, Note_on_c, 0, 75, 45
2, 276046, Note_on_c, 0, 75, 0
2, 276048, Note_on_c, 0, 74, 45
2, 276070, Note_on_c, 0, 74, 0
2, 276072, Note_on_c, 0, 72, 45
2, 276094, Note_on_c, 0, 72, 0
2, 276096, Note_on_c, 0, 70, 45
2, 276118, Note_on_c, 0, 70, 0
2, 276120, Note_on_c, 0, 69, 45
2, 276142, Note_on_c, 0, 69, 0
2, 276144, Note_on_c, 0, 67, 45
2, 276166, Note_on_c, 0, 67, 0
2, 276168, Note_on_c, 0, 65, 45
2, 276190, Note_on_c, 0, 65, 0
2, 276192, Note_on_c, 0, 64, 45
2, 276214, Note_on_c, 0, 64, 0
2, 276216, Note_on_c, 0, 63, 45
2, 276238, Note_on_c, 0, 63, 0
2, 276240, Note_on_c, 0, 62, 45
2, 276262, Note_on_c, 0, 62, 0
2, 276264, Note_on_c, 0, 60, 45
2, 276286, Note_on_c, 0, 60, 0
2, 276288, Note_on_c, 0, 58, 45
2, 276310, Note_on_c, 0, 58, 0
2, 276312, Note_on_c, 0, 57, 45
2, 276334, Note_on_c, 0, 57, 0
2, 276336, Note_on_c, 0, 63, 45
2, 276358, Note_on_c, 0, 63, 0
2, 276360, Note_on_c, 0, 57, 45
2, 276382, Note_on_c, 0, 57, 0
2, 276384, Note_on_c, 0, 50, 45
2, 276384, Note_on_c, 0, 58, 45
2, 276552, Note_on_c, 0, 51, 45
2, 276574, Note_on_c, 0, 51, 0
2, 276576, Note_on_c, 0, 53, 45
2, 276736, Note_on_c, 0, 53, 0
2, 276768, Note_on_c, 0, 53, 45
2, 276928, Note_on_c, 0, 50, 0
2, 276928, Note_on_c, 0, 53, 0
2, 276928, Note_on_c, 0, 58, 0
2, 276960, Note_on_c, 0, 74, 45
2, 277056, Note_on_c, 0, 74, 0
2, 277056, Note_on_c, 0, 75, 45
2, 277068, Note_on_c, 0, 75, 0
2, 277068, Note_on_c, 0, 74, 45
2, 277080, Note_on_c, 0, 74, 0
2, 277080, Note_on_c, 0, 72, 45
2, 277092, Note_on_c, 0, 72, 0
2, 277092, Note_on_c, 0, 74, 45
2, 277128, Note_on_c, 0, 74, 0
2, 277128, Note_on_c, 0, 75, 45
2, 277152, Note_on_c, 0, 75, 0
2, 277152, Note_on_c, 0, 77, 45
2, 277312, Note_on_c, 0, 77, 0
2, 277344, Note_on_c, 0, 50, 45
2, 277344, Note_on_c, 0, 58, 45
2, 277504, Note_on_c, 0, 50, 0
2, 277504, Note_on_c, 0, 58, 0
2, 277536, Note_on_c, 0, 51, 45
2, 277536, Note_on_c, 0, 57, 45
2, 277704, Note_on_c, 0, 53, 45
2, 277726, Note_on_c, 0, 53, 0
2, 277728, Note_on_c, 0, 54, 45
2, 277888, Note_on_c, 0, 54, 0
2, 277920, Note_on_c, 0, 54, 45
2, 278080, Note_on_c, 0, 51, 0
2, 278080, Note_on_c, 0, 54, 0
2, 278080, Note_on_c, 0, 57, 0
2, 278112, Note_on_c, 0, 81, 45
2, 278208, Note_on_c, 0, 81, 0
2, 278208, Note_on_c, 0, 82, 45
2, 278220, Note_on_c, 0, 82, 0
2, 278220, Note_on_c, 0, 81, 45
2, 278232, Note_on_c, 0, 81, 0
2, 278232, Note_on_c, 0, 79, 45
2, 278244, Note_on_c, 0, 79, 0
2, 278244, Note_on_c, 0, 81, 45
2, 278280, Note_on_c, 0, 81, 0
2, 278280, Note_on_c, 0, 82, 45
2, 278304, Note_on_c, 0, 82, 0
2, 278304, Note_on_c, 0, 84, 45
2, 278464, Note_on_c, 0, 84, 0
2, 278496, Note_on_c, 0, 53, 45
2, 278496, Note_on_c, 0, 60, 45
2, 278496, Note_on_c, 0, 63, 45
2, 278656, Note_on_c, 0, 53, 0
2, 278656, Note_on_c, 0, 60, 0
2, 278656, Note_on_c, 0, 63, 0
2, 278688, Note_on_c, 0, 53, 45
2, 278688, Note_on_c, 0, 62, 45
2, 279216, Note_on_c, 0, 53, 0
2, 279216, Note_on_c, 0, 62, 0
2, 279264, Note_on_c, 0, 74, 45
2, 279360, Note_on_c, 0, 74, 0
2, 279360, Note_on_c, 0, 75, 45
2, 279372, Note_on_c, 0, 75, 0
2, 279372, Note_on_c, 0, 74, 45
2, 279384, Note_on_c, 0, 74, 0
2, 279384, Note_on_c, 0, 72, 45
2, 279396, Note_on_c, 0, 72, 0
2, 279396, Note_on_c, 0, 74, 45
2, 279432, Note_on_c, 0, 74, 0
2, 279432, Note_on_c, 0, 75, 45
2, 279456, Note_on_c, 0, 75, 0
2, 279456, Note_on_c, 0, 77, 45
2, 279616, Note_on_c, 0, 77, 0
2, 279648, Note_on_c, 0, 69, 45
2, 279648, Note_on_c, 0, 77, 45
2, 279808, Note_on_c, 0, 69, 0
2, 279808, Note_on_c, 0, 77, 0
2, 279840, Note_on_c, 0, 67, 45
2, 279840, Note_on_c, 0, 77, 45
2, 280032, Note_on_c, 0, 67, 0
2, 280032, Note_on_c, 0, 77, 0
2, 280032, Note_on_c, 0, 67, 45
2, 280032, Note_on_c, 0, 75, 45
2, 280126, Note_on_c, 0, 67, 0
2, 280126, Note_on_c, 0, 75, 0
2, 280128, Note_on_c, 0, 70, 45
2, 280128, Note_on_c, 0, 74, 45
2, 280222, Note_on_c, 0, 70, 0
2, 280222, Note_on_c, 0, 74, 0
2, 280224, Note_on_c, 0, 70, 45
2, 280224, Note_on_c, 0, 72, 45
2, 280352, Note_on_c, 0, 70, 0
2, 280352, Note_on_c, 0, 72, 0
2, 280416, Note_on_c, 0, 70, 45
2, 280416, Note_on_c, 0, 72, 45
2, 280512, Note_on_c, 0, 70, 0
2, 280512, Note_on_c, 0, 72, 0
2, 280512, Note_on_c, 0, 71, 45
2, 280524, Note_on_c, 0, 72, 45
2, 280536, Note_on_c, 0, 72, 0
2, 280536, Note_on_c, 0, 74, 45
2, 280560, Note_on_c, 0, 74, 0
2, 280560, Note_on_c, 0, 72, 45
2, 280608, Note_on_c, 0, 71, 0
2, 280608, Note_on_c, 0, 72, 0
2, 280608, Note_on_c, 0, 69, 45
2, 280608, Note_on_c, 0, 72, 45
2, 280702, Note_on_c, 0, 69, 0
2, 280702, Note_on_c, 0, 72, 0
2, 280824, Note_on_c, 0, 53, 45
2, 280846, Note_on_c, 0, 53, 0
2, 280848, Note_on_c, 0, 55, 45
2, 280870, Note_on_c, 0, 55, 0
2, 280872, Note_on_c, 0, 53, 45
2, 280894, Note_on_c, 0, 53, 0
2, 280896, Note_on_c, 0, 52, 45
2, 280918, Note_on_c, 0, 52, 0
2, 280920, Note_on_c, 0, 53, 45
2, 280942, Note_on_c, 0, 53, 0
2, 280944, Note_on_c, 0, 51, 45
2, 280944, Note_on_c, 0, 55, 45
2, 280966, Note_on_c, 0, 51, 0
2, 280966, Note_on_c, 0, 55, 0
2, 280968, Note_on_c, 0, 48, 45
2, 280968, Note_on_c, 0, 57, 45
2, 280990, Note_on_c, 0, 48, 0
2, 280990, Note_on_c, 0, 57, 0
2, 280992, Note_on_c, 0, 46, 45
2, 280992, Note_on_c, 0, 50, 45
2, 280992, Note_on_c, 0, 58, 45
2, 281160, Note_on_c, 0, 46, 0
2, 281160, Note_on_c, 0, 50, 0
2, 281160, Note_on_c, 0, 48, 45
2, 281160, Note_on_c, 0, 51, 45
2, 281184, Note_on_c, 0, 48, 0
2, 281184, Note_on_c, 0, 51, 0
2, 281184, Note_on_c, 0, 50, 45
2, 281184, Note_on_c, 0, 53, 45
2, 281344, Note_on_c, 0, 50, 0
2, 281344, Note_on_c, 0, 53, 0
2, 281376, Note_on_c, 0, 50, 45
2, 281376, Note_on_c, 0, 53, 45
2, 281536, Note_on_c, 0, 50, 0
2, 281536, Note_on_c, 0, 53, 0
2, 281536, Note_on_c, 0, 58, 0
2, 281568, Note_on_c, 0, 74, 45
2, 281664, Note_on_c, 0, 74, 0
2, 281664, Note_on_c, 0, 75, 45
2, 281676, Note_on_c, 0, 75, 0
2, 281676, Note_on_c, 0, 74, 45
2, 281688, Note_on_c, 0, 74, 0
2, 281688, Note_on_c, 0, 72, 45
2, 281700, Note_on_c, 0, 72, 0
2, 281700, Note_on_c, 0, 74, 45
2, 281736, Note_on_c, 0, 74, 0
2, 281736, Note_on_c, 0, 75, 45
2, 281760, Note_on_c, 0, 75, 0
2, 281760, Note_on_c, 0, 77, 45
2, 281920, Note_on_c, 0, 77, 0
2, 281952, Note_on_c, 0, 58, 45
2, 282112, Note_on_c, 0, 58, 0
2, 282144, Note_on_c, 0, 48, 45
2, 282144, Note_on_c, 0, 51, 45
2, 282144, Note_on_c, 0, 57, 45
2, 282312, Note_on_c, 0, 48, 0
2, 282312, Note_on_c, 0, 51, 0
2, 282312, Note_on_c, 0, 50, 45
2, 282312, Note_on_c, 0, 53, 45
2, 282336, Note_on_c, 0, 50, 0
2, 282336, Note_on_c, 0, 53, 0
2, 282336, Note_on_c, 0, 51, 45
2, 282336, Note_on_c, 0, 54, 45
2, 282496, Note_on_c, 0, 51, 0
2, 282496, Note_on_c, 0, 54, 0
2, 282528, Note_on_c, 0, 51, 45
2, 282528, Note_on_c, 0, 54, 45
2, 282688, Note_on_c, 0, 51, 0
2, 282688, Note_on_c, 0, 54, 0
2, 282688, Note_on_c, 0, 57, 0
2, 282720, Note_on_c, 0, 84, 45
2, 282816, Note_on_c, 0, 84, 0
2, 282816, Note_on_c, 0, 86, 45
2, 282828, Note_on_c, 0, 86, 0
2, 282828, Note_on_c, 0, 84, 45
2, 282840, Note_on_c, 0, 84, 0
2, 282840, Note_on_c, 0, 83, 45
2, 282852, Note_on_c, 0, 83, 0
2, 282852, Note_on_c, 0, 84, 45
2, 282888, Note_on_c, 0, 84, 0
2, 282888, Note_on_c, 0, 86, 45
2, 282912, Note_on_c, 0, 86, 0
2, 282912, Note_on_c, 0, 87, 45
2, 283072, Note_on_c, 0, 87, 0
2, 283104, Note_on_c, 0, 60, 45
2, 283104, Note_on_c, 0, 63, 45
2, 283104, Note_on_c, 0, 66, 45
2, 283264, Note_on_c, 0, 60, 0
2, 283264, Note_on_c, 0, 63, 0
2, 283264, Note_on_c, 0, 66, 0
2, 283296, Note_on_c, 0, 60, 45
2, 283296, Note_on_c, 0, 63, 45
2, 283296, Note_on_c, 0, 65, 45
2, 283392, Note_on_c, 0, 60, 0
2, 283392, Note_on_c, 0, 63, 0
2, 283392, Note_on_c, 0, 57, 45
2, 283392, Note_on_c, 0, 60, 45
2, 283464, Note_on_c, 0, 57, 0
2, 283464, Note_on_c, 0, 60, 0
2, 283464, Note_on_c, 0, 59, 45
2, 283464, Note_on_c, 0, 62, 45
2, 283488, Note_on_c, 0, 59, 0
2, 283488, Note_on_c, 0, 62, 0
2, 283488, Note_on_c, 0, 65, 0
2, 283488, Note_on_c, 0, 60, 45
2, 283488, Note_on_c, 0, 63, 45
2, 283680, Note_on_c, 0, 60, 0
2, 283680, Note_on_c, 0, 63, 0
2, 283680, Note_on_c, 0, 60, 45
2, 283680, Note_on_c, 0, 63, 45
2, 283680, Note_on_c, 0, 65, 45
2, 283774, Note_on_c, 0, 60, 0
2, 283774, Note_on_c, 0, 63, 0
2, 283774, Note_on_c, 0, 65, 0
2, 283824, Note_on_c, 0, 84, 45
2, 283870, Note_on_c, 0, 84, 0
2, 283872, Note_on_c, 0, 84, 45
2, 283968, Note_on_c, 0, 84, 0
2, 283968, Note_on_c, 0, 86, 45
2, 283980, Note_on_c, 0, 86, 0
2, 283980, Note_on_c, 0, 84, 45
2, 283992, Note_on_c, 0, 84, 0
2, 283992, Note_on_c, 0, 82, 45
2, 284004, Note_on_c, 0, 82, 0
2, 284004, Note_on_c, 0, 84, 45
2, 284040, Note_on_c, 0, 84, 0
2, 284040, Note_on_c, 0, 86, 45
2, 284064, Note_on_c, 0, 86, 0
2, 284064, Note_on_c, 0, 87, 45
2, 284224, Note_on_c, 0, 87, 0
2, 284256, Note_on_c, 0, 69, 45
2, 284256, Note_on_c, 0, 72, 45
2, 284256, Note_on_c, 0, 75, 45
2, 284416, Note_on_c, 0, 69, 0
2, 284416, Note_on_c, 0, 72, 0
2, 284416, Note_on_c, 0, 75, 0
2, 284448, Note_on_c, 0, 70, 45
2, 284448, Note_on_c, 0, 74, 45
2, 284542, Note_on_c, 0, 70, 0
2, 284542, Note_on_c, 0, 74, 0
2, 284640, Note_on_c, 0, 79, 92
2, 284832, Note_on_c, 0, 67, 92
2, 284832, Note_on_c, 0, 70, 92
2, 284832, Note_on_c, 0, 73, 92
2, 284864, Note_on_c, 0, 67, 0
2, 284864, Note_on_c, 0, 70, 0
2, 284864, Note_on_c, 0, 73, 0
2, 285022, Note_on_c, 0, 79, 0
2, 285024, Note_on_c, 0, 77, 45
2, 285216, Note_on_c, 0, 65, 45
2, 285216, Note_on_c, 0, 70, 45
2, 285216, Note_on_c, 0, 74, 45
2, 285248, Note_on_c, 0, 65, 0
2, 285248, Note_on_c, 0, 70, 0
2, 285248, Note_on_c, 0, 74, 0
2, 285406, Note_on_c, 0, 77, 0
2, 285408, Note_on_c, 0, 60, 45
2, 285408, Note_on_c, 0, 63, 45
2, 285408, Note_on_c, 0, 65, 45
2, 285408, Note_on_c, 0, 69, 45
2, 285440, Note_on_c, 0, 60, 0
2, 285440, Note_on_c, 0, 63, 0
2, 285440, Note_on_c, 0, 65, 0
2, 285440, Note_on_c, 0, 69, 0
2, 285600, Note_on_c, 0, 58, 45
2, 285600, Note_on_c, 0, 62, 45
2, 285600, Note_on_c, 0, 65, 45
2, 285600, Note_on_c, 0, 70, 45
2, 285632, Note_on_c, 0, 58, 0
2, 285632, Note_on_c, 0, 62, 0
2, 285632, Note_on_c, 0, 65, 0
2, 285632, Note_on_c, 0, 70, 0
2, 286176, Note_on_c, 0, 56, 45
2, 286176, Note_on_c, 0, 58, 45
2, 286176, Note_on_c, 0, 65, 45
2, 286368, Note_on_c, 0, 56, 0
2, 286368, Note_on_c, 0, 58, 0
2, 286368, Note_on_c, 0, 65, 0
2, 286368, Note_on_c, 0, 55, 45
2, 286368, Note_on_c, 0, 58, 45
2, 286368, Note_on_c, 0, 63, 45
2, 286560, Note_on_c, 0, 55, 0
2, 286560, Note_on_c, 0, 58, 0
2, 286560, Note_on_c, 0, 63, 0
2, 286560, Note_on_c, 0, 54, 45
2, 286560, Note_on_c, 0, 58, 45
2, 286560, Note_on_c, 0, 62, 45
2, 286752, Note_on_c, 0, 54, 0
2, 286752, Note_on_c, 0, 58, 0
2, 286752, Note_on_c, 0, 62, 0
2, 286752, Note_on_c, 0, 54, 45
2, 286752, Note_on_c, 0, 58, 45
2, 286752, Note_on_c, 0, 62, 45
2, 286944, Note_on_c, 0, 54, 0
2, 286944, Note_on_c, 0, 58, 0
2, 286944, Note_on_c, 0, 62, 0
2, 286944, Note_on_c, 0, 55, 45
2, 286944, Note_on_c, 0, 58, 45
2, 286944, Note_on_c, 0, 63, 45
2, 287038, Note_on_c, 0, 55, 0
2, 287038, Note_on_c, 0, 58, 0
2, 287038, Note_on_c, 0, 63, 0
2, 287328, Note_on_c, 0, 58, 45
2, 287328, Note_on_c, 0, 65, 45
2, 287328, Note_on_c, 0, 68, 45
2, 287520, Note_on_c, 0, 58, 0
2, 287520, Note_on_c, 0, 65, 0
2, 287520, Note_on_c, 0, 68, 0
2, 287520, Note_on_c, 0, 58, 45
2, 287520, Note_on_c, 0, 63, 45
2, 287520, Note_on_c, 0, 67, 45
2, 287712, Note_on_c, 0, 58, 0
2, 287712, Note_on_c, 0, 63, 0
2, 287712, Note_on_c, 0, 67, 0
2, 287712, Note_on_c, 0, 58, 45
2, 287712, Note_on_c, 0, 62, 45
2, 287712, Note_on_c, 0, 66, 45
2, 287904, Note_on_c, 0, 58, 0
2, 287904, Note_on_c, 0, 62, 0
2, 287904, Note_on_c, 0, 66, 0
2, 287904, Note_on_c, 0, 58, 45
2, 287904, Note_on_c, 0, 62, 45
2, 287904, Note_on_c, 0, 66, 45
2, 288096, Note_on_c, 0, 62, 0
2, 288096, Note_on_c, 0, 66, 0
2, 288096, Note_on_c, 0, 63, 45
2, 288096, Note_on_c, 0, 67, 45
2, 288382, Note_on_c, 0, 63, 0
2, 288382, Note_on_c, 0, 67, 0
2, 288384, Note_on_c, 0, 67, 45
2, 288480, Note_on_c, 0, 58, 0
2, 288480, Note_on_c, 0, 67, 0
2, 288480, Note_on_c, 0, 67, 45
2, 288480, Note_on_c, 0, 75, 45
2, 288672, Note_on_c, 0, 67, 0
2, 288672, Note_on_c, 0, 75, 0
2, 288672, Note_on_c, 0, 63, 45
2, 288672, Note_on_c, 0, 67, 45
2, 288672, Note_on_c, 0, 72, 45
2, 288864, Note_on_c, 0, 63, 0
2, 288864, Note_on_c, 0, 67, 0
2, 288864, Note_on_c, 0, 72, 0
2, 288864, Note_on_c, 0, 62, 45
2, 288864, Note_on_c, 0, 67, 45
2, 288864, Note_on_c, 0, 70, 45
2, 289056, Note_on_c, 0, 62, 0
2, 289056, Note_on_c, 0, 67, 0
2, 289056, Note_on_c, 0, 70, 0
2, 289056, Note_on_c, 0, 60, 45
2, 289056, Note_on_c, 0, 65, 45
2, 289056, Note_on_c, 0, 69, 45
2, 289312, Note_on_c, 0, 60, 0
2, 289312, Note_on_c, 0, 65, 0
2, 289312, Note_on_c, 0, 69, 0
2, 289344, Note_on_c, 0, 60, 45
2, 289344, Note_on_c, 0, 65, 45
2, 289344, Note_on_c, 0, 69, 45
2, 289440, Note_on_c, 0, 60, 0
2, 289440, Note_on_c, 0, 65, 0
2, 289440, Note_on_c, 0, 69, 0
2, 289440, Note_on_c, 0, 62, 45
2, 289440, Note_on_c, 0, 65, 45
2, 289440, Note_on_c, 0, 70, 45
2, 289536, Note_on_c, 0, 62, 0
2, 289536, Note_on_c, 0, 65, 0
2, 289536, Note_on_c, 0, 70, 0
2, 289536, Note_on_c, 0, 63, 45
2, 289536, Note_on_c, 0, 65, 45
2, 289536, Note_on_c, 0, 72, 45
2, 289632, Note_on_c, 0, 63, 0
2, 289632, Note_on_c, 0, 65, 0
2, 289632, Note_on_c, 0, 72, 0
2, 289632, Note_on_c, 0, 63, 45
2, 289632, Note_on_c, 0, 72, 45
2, 289776, Note_on_c, 0, 63, 0
2, 289776, Note_on_c, 0, 72, 0
2, 289776, Note_on_c, 0, 61, 45
2, 289776, Note_on_c, 0, 69, 45
2, 289824, Note_on_c, 0, 61, 0
2, 289824, Note_on_c, 0, 69, 0
2, 289824, Note_on_c, 0, 62, 45
2, 289824, Note_on_c, 0, 70, 45
2, 289918, Note_on_c, 0, 62, 0
2, 289918, Note_on_c, 0, 70, 0
2, 289920, Note_on_c, 0, 62, 45
2, 289920, Note_on_c, 0, 65, 45
2, 289920, Note_on_c, 0, 70, 45
2, 290016, Note_on_c, 0, 62, 0
2, 290016, Note_on_c, 0, 65, 0
2, 290016, Note_on_c, 0, 70, 0
2, 290016, Note_on_c, 0, 65, 45
2, 290016, Note_on_c, 0, 69, 45
2, 290016, Note_on_c, 0, 72, 45
2, 290112, Note_on_c, 0, 65, 0
2, 290112, Note_on_c, 0, 69, 0
2, 290112, Note_on_c, 0, 72, 0
2, 290112, Note_on_c, 0, 65, 45
2, 290112, Note_on_c, 0, 70, 45
2, 290112, Note_on_c, 0, 74, 45
2, 290208, Note_on_c, 0, 65, 0
2, 290208, Note_on_c, 0, 70, 0
2, 290208, Note_on_c, 0, 74, 0
2, 290208, Note_on_c, 0, 65, 45
2, 290208, Note_on_c, 0, 70, 45
2, 290208, Note_on_c, 0, 74, 45
2, 290352, Note_on_c, 0, 70, 0
2, 290352, Note_on_c, 0, 74, 0
2, 290352, Note_on_c, 0, 68, 45
2, 290352, Note_on_c, 0, 71, 45
2, 290400, Note_on_c, 0, 68, 0
2, 290400, Note_on_c, 0, 71, 0
2, 290400, Note_on_c, 0, 69, 45
2, 290400, Note_on_c, 0, 72, 45
2, 290432, Note_on_c, 0, 65, 0
2, 290432, Note_on_c, 0, 69, 0
2, 290432, Note_on_c, 0, 72, 0
2, 290496, Note_on_c, 0, 65, 45
2, 290496, Note_on_c, 0, 69, 45
2, 290496, Note_on_c, 0, 72, 45
2, 290592, Note_on_c, 0, 65, 0
2, 290592, Note_on_c, 0, 69, 0
2, 290592, Note_on_c, 0, 72, 0
2, 290592, Note_on_c, 0, 65, 45
2, 290592, Note_on_c, 0, 70, 45
2, 290592, Note_on_c, 0, 74, 45
2, 290688, Note_on_c, 0, 65, 0
2, 290688, Note_on_c, 0, 70, 0
2, 290688, Note_on_c, 0, 74, 0
2, 290688, Note_on_c, 0, 65, 45
2, 290688, Note_on_c, 0, 72, 45
2, 290688, Note_on_c, 0, 75, 45
2, 290784, Note_on_c, 0, 65, 0
2, 290784, Note_on_c, 0, 72, 0
2, 290784, Note_on_c, 0, 75, 0
2, 290784, Note_on_c, 0, 65, 45
2, 290784, Note_on_c, 0, 72, 45
2, 290784, Note_on_c, 0, 75, 45
2, 290928, Note_on_c, 0, 72, 0
2, 290928, Note_on_c, 0, 75, 0
2, 290928, Note_on_c, 0, 69, 45
2, 290928, Note_on_c, 0, 73, 45
2, 290976, Note_on_c, 0, 69, 0
2, 290976, Note_on_c, 0, 73, 0
2, 290976, Note_on_c, 0, 70, 45
2, 290976, Note_on_c, 0, 74, 45
2, 291008, Note_on_c, 0, 65, 0
2, 291008, Note_on_c, 0, 70, 0
2, 291008, Note_on_c, 0, 74, 0
2, 291072, Note_on_c, 0, 65, 45
2, 291072, Note_on_c, 0, 70, 45
2, 291072, Note_on_c, 0, 74, 45
2, 291168, Note_on_c, 0, 65, 0
2, 291168, Note_on_c, 0, 70, 0
2, 291168, Note_on_c, 0, 74, 0
2, 291168, Note_on_c, 0, 67, 45
2, 291168, Note_on_c, 0, 70, 45
2, 291168, Note_on_c, 0, 73, 45
2, 291168, Note_on_c, 0, 76, 45
2, 291264, Note_on_c, 0, 67, 0
2, 291264, Note_on_c, 0, 70, 0
2, 291264, Note_on_c, 0, 73, 0
2, 291264, Note_on_c, 0, 76, 0
2, 291264, Note_on_c, 0, 67, 45
2, 291264, Note_on_c, 0, 70, 45
2, 291264, Note_on_c, 0, 73, 45
2, 291264, Note_on_c, 0, 76, 45
2, 291360, Note_on_c, 0, 67, 0
2, 291360, Note_on_c, 0, 70, 0
2, 291360, Note_on_c, 0, 73, 0
2, 291360, Note_on_c, 0, 76, 0
2, 291360, Note_on_c, 0, 69, 45
2, 291360, Note_on_c, 0, 72, 45
2, 291360, Note_on_c, 0, 77, 45
2, 291456, Note_on_c, 0, 69, 0
2, 291456, Note_on_c, 0, 72, 0
2, 291456, Note_on_c, 0, 77, 0
2, 291456, Note_on_c, 0, 65, 45
2, 291456, Note_on_c, 0, 69, 45
2, 291456, Note_on_c, 0, 72, 45
2, 291616, Note_on_c, 0, 65, 0
2, 291616, Note_on_c, 0, 69, 0
2, 291616, Note_on_c, 0, 72, 0
2, 291648, Note_on_c, 0, 65, 45
2, 291648, Note_on_c, 0, 69, 45
2, 291648, Note_on_c, 0, 72, 45
2, 291744, Note_on_c, 0, 65, 0
2, 291744, Note_on_c, 0, 69, 0
2, 291744, Note_on_c, 0, 72, 0
2, 291744, Note_on_c, 0, 67, 45
2, 291744, Note_on_c, 0, 70, 45
2, 291744, Note_on_c, 0, 76, 45
2, 291840, Note_on_c, 0, 67, 0
2, 291840, Note_on_c, 0, 70, 0
2, 291840, Note_on_c, 0, 76, 0
2, 291840, Note_on_c, 0, 67, 45
2, 291840, Note_on_c, 0, 70, 45
2, 291840, Note_on_c, 0, 72, 45
2, 291936, Note_on_c, 0, 67, 0
2, 291936, Note_on_c, 0, 70, 0
2, 291936, Note_on_c, 0, 72, 0
2, 291936, Note_on_c, 0, 65, 45
2, 291936, Note_on_c, 0, 69, 45
2, 291936, Note_on_c, 0, 77, 45
2, 292032, Note_on_c, 0, 65, 0
2, 292032, Note_on_c, 0, 69, 0
2, 292032, Note_on_c, 0, 77, 0
2, 292032, Note_on_c, 0, 65, 45
2, 292032, Note_on_c, 0, 69, 45
2, 292032, Note_on_c, 0, 72, 45
2, 292192, Note_on_c, 0, 65, 0
2, 292192, Note_on_c, 0, 69, 0
2, 292192, Note_on_c, 0, 72, 0
2, 292224, Note_on_c, 0, 65, 45
2, 292224, Note_on_c, 0, 69, 45
2, 292224, Note_on_c, 0, 72, 45
2, 292320, Note_on_c, 0, 65, 0
2, 292320, Note_on_c, 0, 69, 0
2, 292320, Note_on_c, 0, 72, 0
2, 292320, Note_on_c, 0, 67, 45
2, 292320, Note_on_c, 0, 70, 45
2, 292320, Note_on_c, 0, 76, 45
2, 292416, Note_on_c, 0, 67, 0
2, 292416, Note_on_c, 0, 70, 0
2, 292416, Note_on_c, 0, 76, 0
2, 292416, Note_on_c, 0, 67, 45
2, 292416, Note_on_c, 0, 70, 45
2, 292416, Note_on_c, 0, 72, 45
2, 292512, Note_on_c, 0, 67, 0
2, 292512, Note_on_c, 0, 70, 0
2, 292512, Note_on_c, 0, 72, 0
2, 292512, Note_on_c, 0, 65, 45
2, 292512, Note_on_c, 0, 69, 45
2, 292512, Note_on_c, 0, 77, 45
2, 292608, Note_on_c, 0, 65, 0
2, 292608, Note_on_c, 0, 69, 0
2, 292608, Note_on_c, 0, 77, 0
2, 292608, Note_on_c, 0, 65, 45
2, 292608, Note_on_c, 0, 69, 45
2, 292608, Note_on_c, 0, 72, 45
2, 292800, Note_on_c, 0, 65, 0
2, 292800, Note_on_c, 0, 69, 0
2, 292800, Note_on_c, 0, 72, 0
2, 292800, Note_on_c, 0, 60, 45
2, 292800, Note_on_c, 0, 65, 45
2, 292800, Note_on_c, 0, 69, 45
2, 292992, Note_on_c, 0, 60, 0
2, 292992, Note_on_c, 0, 65, 0
2, 292992, Note_on_c, 0, 69, 0
2, 292992, Note_on_c, 0, 57, 45
2, 292992, Note_on_c, 0, 60, 45
2, 292992, Note_on_c, 0, 65, 45
2, 293182, Note_on_c, 0, 57, 0
2, 293182, Note_on_c, 0, 60, 0
2, 293182, Note_on_c, 0, 65, 0
2, 293520, Note_on_c, 0, 67, 63
2, 293537, Note_on_c, 0, 67, 0
2, 293544, Note_on_c, 0, 69, 45
2, 293561, Note_on_c, 0, 69, 0
2, 293568, Note_on_c, 0, 70, 45
2, 293585, Note_on_c, 0, 70, 0
2, 293592, Note_on_c, 0, 72, 63
2, 293609, Note_on_c, 0, 72, 0
2, 293616, Note_on_c, 0, 74, 45
2, 293633, Note_on_c, 0, 74, 0
2, 293640, Note_on_c, 0, 75, 45
2, 293657, Note_on_c, 0, 75, 0
2, 293664, Note_on_c, 0, 77, 45
2, 293856, Note_on_c, 0, 70, 45
2, 294024, Note_on_c, 0, 77, 0
2, 294024, Note_on_c, 0, 74, 45
2, 294048, Note_on_c, 0, 70, 0
2, 294048, Note_on_c, 0, 74, 0
2, 294048, Note_on_c, 0, 70, 45
2, 294048, Note_on_c, 0, 82, 45
2, 294216, Note_on_c, 0, 82, 0
2, 294216, Note_on_c, 0, 79, 45
2, 294240, Note_on_c, 0, 70, 0
2, 294240, Note_on_c, 0, 79, 0
2, 294240, Note_on_c, 0, 77, 45
2, 294432, Note_on_c, 0, 70, 45
2, 294600, Note_on_c, 0, 77, 0
2, 294600, Note_on_c, 0, 74, 45
2, 294624, Note_on_c, 0, 74, 0
2, 294624, Note_on_c, 0, 75, 45
2, 294718, Note_on_c, 0, 70, 0
2, 294718, Note_on_c, 0, 75, 0
2, 294720, Note_on_c, 0, 67, 45
2, 294720, Note_on_c, 0, 75, 45
2, 294790, Note_on_c, 0, 75, 0
2, 294792, Note_on_c, 0, 72, 45
2, 294816, Note_on_c, 0, 67, 0
2, 294816, Note_on_c, 0, 72, 0
2, 294816, Note_on_c, 0, 70, 45
2, 294912, Note_on_c, 0, 62, 45
2, 295008, Note_on_c, 0, 62, 0
2, 295008, Note_on_c, 0, 65, 45
2, 295200, Note_on_c, 0, 65, 0
2, 295200, Note_on_c, 0, 70, 0
2, 295200, Note_on_c, 0, 65, 45
2, 295200, Note_on_c, 0, 74, 45
2, 295248, Note_on_c, 0, 74, 0
2, 295248, Note_on_c, 0, 72, 45
2, 295296, Note_on_c, 0, 72, 0
2, 295296, Note_on_c, 0, 70, 45
2, 295344, Note_on_c, 0, 70, 0
2, 295344, Note_on_c, 0, 72, 45
2, 295392, Note_on_c, 0, 65, 0
2, 295392, Note_on_c, 0, 72, 0
2, 295392, Note_on_c, 0, 65, 45
2, 295392, Note_on_c, 0, 72, 45
2, 295560, Note_on_c, 0, 72, 0
2, 295560, Note_on_c, 0, 73, 45
2, 295584, Note_on_c, 0, 65, 0
2, 295584, Note_on_c, 0, 73, 0
2, 295584, Note_on_c, 0, 65, 45
2, 295584, Note_on_c, 0, 74, 45
2, 295678, Note_on_c, 0, 65, 0
2, 295678, Note_on_c, 0, 74, 0
2, 295800, Note_on_c, 0, 65, 45
2, 295816, Note_on_c, 0, 65, 0
2, 295824, Note_on_c, 0, 67, 45
2, 295840, Note_on_c, 0, 67, 0
2, 295848, Note_on_c, 0, 69, 45
2, 295864, Note_on_c, 0, 69, 0
2, 295872, Note_on_c, 0, 70, 45
2, 295888, Note_on_c, 0, 70, 0
2, 295896, Note_on_c, 0, 72, 45
2, 295912, Note_on_c, 0, 72, 0
2, 295920, Note_on_c, 0, 74, 45
2, 295936, Note_on_c, 0, 74, 0
2, 295944, Note_on_c, 0, 75, 45
2, 295960, Note_on_c, 0, 75, 0
2, 295968, Note_on_c, 0, 77, 45
2, 296112, Note_on_c, 0, 69, 45
2, 296158, Note_on_c, 0, 69, 0
2, 296160, Note_on_c, 0, 70, 45
2, 296326, Note_on_c, 0, 77, 0
2, 296328, Note_on_c, 0, 74, 45
2, 296350, Note_on_c, 0, 70, 0
2, 296350, Note_on_c, 0, 74, 0
2, 296352, Note_on_c, 0, 70, 45
2, 296352, Note_on_c, 0, 82, 45
2, 296518, Note_on_c, 0, 82, 0
2, 296520, Note_on_c, 0, 79, 45
2, 296542, Note_on_c, 0, 70, 0
2, 296542, Note_on_c, 0, 79, 0
2, 296544, Note_on_c, 0, 77, 45
2, 296688, Note_on_c, 0, 69, 45
2, 296734, Note_on_c, 0, 69, 0
2, 296736, Note_on_c, 0, 70, 45
2, 296902, Note_on_c, 0, 77, 0
2, 296904, Note_on_c, 0, 74, 45
2, 296926, Note_on_c, 0, 70, 0
2, 296926, Note_on_c, 0, 74, 0
2, 296928, Note_on_c, 0, 70, 45
2, 296928, Note_on_c, 0, 77, 45
2, 296976, Note_on_c, 0, 77, 0
2, 296976, Note_on_c, 0, 75, 45
2, 297024, Note_on_c, 0, 70, 0
2, 297024, Note_on_c, 0, 67, 45
2, 297072, Note_on_c, 0, 75, 0
2, 297072, Note_on_c, 0, 72, 45
2, 297118, Note_on_c, 0, 67, 0
2, 297118, Note_on_c, 0, 72, 0
2, 297120, Note_on_c, 0, 62, 45
2, 297120, Note_on_c, 0, 70, 45
2, 297214, Note_on_c, 0, 62, 0
2, 297216, Note_on_c, 0, 58, 45
2, 297216, Note_on_c, 0, 62, 45
2, 297310, Note_on_c, 0, 58, 0
2, 297310, Note_on_c, 0, 62, 0
2, 297312, Note_on_c, 0, 62, 45
2, 297312, Note_on_c, 0, 65, 45
2, 297406, Note_on_c, 0, 62, 0
2, 297406, Note_on_c, 0, 65, 0
2, 297408, Note_on_c, 0, 58, 45
2, 297408, Note_on_c, 0, 62, 45
2, 297502, Note_on_c, 0, 58, 0
2, 297502, Note_on_c, 0, 62, 0
2, 297502, Note_on_c, 0, 70, 0
2, 297504, Note_on_c, 0, 57, 45
2, 297504, Note_on_c, 0, 60, 45
2, 297504, Note_on_c, 0, 65, 45
2, 297598, Note_on_c, 0, 57, 0
2, 297598, Note_on_c, 0, 60, 0
2, 297600, Note_on_c, 0, 53, 45
2, 297600, Note_on_c, 0, 57, 45
2, 297694, Note_on_c, 0, 53, 0
2, 297694, Note_on_c, 0, 57, 0
2, 297694, Note_on_c, 0, 65, 0
2, 297696, Note_on_c, 0, 53, 45
2, 297696, Note_on_c, 0, 58, 45
2, 297696, Note_on_c, 0, 62, 45
2, 297790, Note_on_c, 0, 53, 0
2, 297790, Note_on_c, 0, 58, 0
2, 297790, Note_on_c, 0, 62, 0
2, 298176, Note_on_c, 0, 58, 45
2, 298270, Note_on_c, 0, 58, 0
2, 298272, Note_on_c, 0, 58, 45
2, 298464, Note_on_c, 0, 58, 0
2, 298464, Note_on_c, 0, 50, 45
2, 298464, Note_on_c, 0, 53, 45
2, 298464, Note_on_c, 0, 56, 45
2, 298464, Note_on_c, 0, 59, 45
2, 298720, Note_on_c, 0, 59, 0
2, 298752, Note_on_c, 0, 59, 45
2, 298846, Note_on_c, 0, 50, 0
2, 298846, Note_on_c, 0, 53, 0
2, 298846, Note_on_c, 0, 56, 0
2, 298846, Note_on_c, 0, 59, 0
2, 298848, Note_on_c, 0, 59, 45
2, 299008, Note_on_c, 0, 59, 0
2, 299040, Note_on_c, 0, 53, 45
2, 299040, Note_on_c, 0, 56, 45
2, 299040, Note_on_c, 0, 59, 45
2, 299040, Note_on_c, 0, 62, 45
2, 299296, Note_on_c, 0, 62, 0
2, 299328, Note_on_c, 0, 62, 45
2, 299422, Note_on_c, 0, 53, 0
2, 299422, Note_on_c, 0, 56, 0
2, 299422, Note_on_c, 0, 59, 0
2, 299422, Note_on_c, 0, 62, 0
2, 299424, Note_on_c, 0, 62, 45
2, 299616, Note_on_c, 0, 62, 0
2, 299616, Note_on_c, 0, 56, 45
2, 299616, Note_on_c, 0, 59, 45
2, 299616, Note_on_c, 0, 62, 45
2, 299616, Note_on_c, 0, 65, 45
2, 299776, Note_on_c, 0, 56, 0
2, 299776, Note_on_c, 0, 59, 0
2, 299776, Note_on_c, 0, 62, 0
2, 299776, Note_on_c, 0, 65, 0
2, 299808, Note_on_c, 0, 59, 45
2, 299808, Note_on_c, 0, 62, 45
2, 299808, Note_on_c, 0, 65, 45
2, 299808, Note_on_c, 0, 68, 45
2, 299968, Note_on_c, 0, 59, 0
2, 299968, Note_on_c, 0, 62, 0
2, 299968, Note_on_c, 0, 65, 0
2, 299968, Note_on_c, 0, 68, 0
2, 300000, Note_on_c, 0, 71, 63
2, 300192, Note_on_c, 0, 62, 45
2, 300192, Note_on_c, 0, 65, 45
2, 300192, Note_on_c, 0, 68, 45
2, 300352, Note_on_c, 0, 62, 0
2, 300352, Note_on_c, 0, 65, 0
2, 300352, Note_on_c, 0, 68, 0
2, 300352, Note_on_c, 0, 71, 0
2, 300384, Note_on_c, 0, 62, 45
2, 300384, Note_on_c, 0, 65, 45
2, 300384, Note_on_c, 0, 70, 45
2, 300478, Note_on_c, 0, 70, 0
2, 300480, Note_on_c, 0, 68, 45
2, 300574, Note_on_c, 0, 62, 0
2, 300574, Note_on_c, 0, 65, 0
2, 300574, Note_on_c, 0, 68, 0
2, 300576, Note_on_c, 0, 66, 45
2, 300736, Note_on_c, 0, 66, 0
2, 300768, Note_on_c, 0, 58, 45
2, 300768, Note_on_c, 0, 63, 45
2, 300768, Note_on_c, 0, 67, 45
2, 301024, Note_on_c, 0, 67, 0
2, 301056, Note_on_c, 0, 70, 45
2, 301150, Note_on_c, 0, 58, 0
2, 301150, Note_on_c, 0, 63, 0
2, 301150, Note_on_c, 0, 70, 0
2, 301152, Note_on_c, 0, 75, 45
2, 301344, Note_on_c, 0, 63, 45
2, 301344, Note_on_c, 0, 66, 45
2, 301344, Note_on_c, 0, 69, 45
2, 301504, Note_on_c, 0, 75, 0
2, 301536, Note_on_c, 0, 72, 45
2, 301630, Note_on_c, 0, 69, 0
2, 301630, Note_on_c, 0, 72, 0
2, 301632, Note_on_c, 0, 69, 45
2, 301726, Note_on_c, 0, 63, 0
2, 301726, Note_on_c, 0, 66, 0
2, 301726, Note_on_c, 0, 69, 0
2, 301728, Note_on_c, 0, 72, 45
2, 301888, Note_on_c, 0, 72, 0
2, 301920, Note_on_c, 0, 62, 45
2, 301920, Note_on_c, 0, 65, 45
2, 301920, Note_on_c, 0, 70, 45
2, 302080, Note_on_c, 0, 62, 0
2, 302080, Note_on_c, 0, 65, 0
2, 302112, Note_on_c, 0, 65, 45
2, 302112, Note_on_c, 0, 68, 45
2, 302206, Note_on_c, 0, 70, 0
2, 302208, Note_on_c, 0, 74, 45
2, 302302, Note_on_c, 0, 65, 0
2, 302302, Note_on_c, 0, 68, 0
2, 302302, Note_on_c, 0, 74, 0
2, 302304, Note_on_c, 0, 77, 45
2, 302398, Note_on_c, 0, 77, 0
2, 302400, Note_on_c, 0, 75, 45
2, 302496, Note_on_c, 0, 67, 45
2, 302496, Note_on_c, 0, 70, 45
2, 302590, Note_on_c, 0, 67, 0
2, 302590, Note_on_c, 0, 70, 0
2, 302592, Note_on_c, 0, 66, 45
2, 302592, Note_on_c, 0, 69, 45
2, 302686, Note_on_c, 0, 75, 0
2, 302688, Note_on_c, 0, 63, 45
2, 302688, Note_on_c, 0, 72, 45
2, 302782, Note_on_c, 0, 63, 0
2, 302782, Note_on_c, 0, 66, 0
2, 302782, Note_on_c, 0, 69, 0
2, 302782, Note_on_c, 0, 72, 0
2, 302784, Note_on_c, 0, 60, 45
2, 302784, Note_on_c, 0, 63, 45
2, 302784, Note_on_c, 0, 66, 45
2, 302784, Note_on_c, 0, 69, 45
2, 302878, Note_on_c, 0, 60, 0
2, 302878, Note_on_c, 0, 63, 0
2, 302878, Note_on_c, 0, 66, 0
2, 302878, Note_on_c, 0, 69, 0
2, 302880, Note_on_c, 0, 62, 45
2, 302880, Note_on_c, 0, 65, 45
2, 302880, Note_on_c, 0, 70, 45
2, 302974, Note_on_c, 0, 62, 0
2, 302974, Note_on_c, 0, 65, 0
2, 302974, Note_on_c, 0, 70, 0
2, 303288, Note_on_c, 0, 65, 45
2, 303304, Note_on_c, 0, 65, 0
2, 303312, Note_on_c, 0, 64, 45
2, 303328, Note_on_c, 0, 64, 0
2, 303336, Note_on_c, 0, 65, 45
2, 303352, Note_on_c, 0, 65, 0
2, 303360, Note_on_c, 0, 67, 45
2, 303376, Note_on_c, 0, 67, 0
2, 303384, Note_on_c, 0, 69, 45
2, 303400, Note_on_c, 0, 69, 0
2, 303408, Note_on_c, 0, 70, 45
2, 303424, Note_on_c, 0, 70, 0
2, 303432, Note_on_c, 0, 72, 45
2, 303448, Note_on_c, 0, 72, 0
2, 303456, Note_on_c, 0, 65, 45
2, 303456, Note_on_c, 0, 70, 45
2, 303456, Note_on_c, 0, 74, 45
2, 303622, Note_on_c, 0, 70, 0
2, 303622, Note_on_c, 0, 74, 0
2, 303624, Note_on_c, 0, 72, 45
2, 303624, Note_on_c, 0, 75, 45
2, 303646, Note_on_c, 0, 72, 0
2, 303646, Note_on_c, 0, 75, 0
2, 303648, Note_on_c, 0, 74, 45
2, 303648, Note_on_c, 0, 77, 45
2, 303808, Note_on_c, 0, 65, 0
2, 303808, Note_on_c, 0, 74, 0
2, 303808, Note_on_c, 0, 77, 0
2, 303840, Note_on_c, 0, 65, 45
2, 303840, Note_on_c, 0, 72, 45
2, 303840, Note_on_c, 0, 75, 45
2, 304000, Note_on_c, 0, 65, 0
2, 304000, Note_on_c, 0, 72, 0
2, 304000, Note_on_c, 0, 75, 0
2, 304032, Note_on_c, 0, 65, 45
2, 304032, Note_on_c, 0, 70, 45
2, 304032, Note_on_c, 0, 74, 45
2, 304126, Note_on_c, 0, 65, 0
2, 304126, Note_on_c, 0, 70, 0
2, 304126, Note_on_c, 0, 74, 0
2, 305184, Note_on_c, 0, 84, 45
2, 305280, Note_on_c, 0, 84, 0
2, 305280, Note_on_c, 0, 86, 45
2, 305292, Note_on_c, 0, 86, 0
2, 305292, Note_on_c, 0, 84, 45
2, 305304, Note_on_c, 0, 84, 0
2, 305304, Note_on_c, 0, 83, 45
2, 305316, Note_on_c, 0, 83, 0
2, 305316, Note_on_c, 0, 84, 45
2, 305352, Note_on_c, 0, 84, 0
2, 305352, Note_on_c, 0, 86, 45
2, 305376, Note_on_c, 0, 86, 0
2, 305376, Note_on_c, 0, 87, 45
2, 305536, Note_on_c, 0, 87, 0
2, 305568, Note_on_c, 0, 66, 45
2, 305728, Note_on_c, 0, 66, 0
2, 305760, Note_on_c, 0, 65, 45
2, 306166, Note_on_c, 0, 65, 0
2, 306168, Note_on_c, 0, 67, 45
2, 306180, Note_on_c, 0, 67, 0
2, 306180, Note_on_c, 0, 65, 45
2, 306192, Note_on_c, 0, 65, 0
2, 306192, Note_on_c, 0, 64, 45
2, 306204, Note_on_c, 0, 64, 0
2, 306204, Note_on_c, 0, 65, 45
2, 306216, Note_on_c, 0, 65, 0
2, 306216, Note_on_c, 0, 67, 45
2, 306228, Note_on_c, 0, 67, 0
2, 306228, Note_on_c, 0, 69, 45
2, 306240, Note_on_c, 0, 69, 0
2, 306240, Note_on_c, 0, 70, 45
2, 306252, Note_on_c, 0, 70, 0
2, 306252, Note_on_c, 0, 72, 45
2, 306264, Note_on_c, 0, 72, 0
2, 306264, Note_on_c, 0, 74, 45
2, 306276, Note_on_c, 0, 74, 0
2, 306276, Note_on_c, 0, 75, 45
2, 306288, Note_on_c, 0, 75, 0
2, 306288, Note_on_c, 0, 77, 45
2, 306300, Note_on_c, 0, 77, 0
2, 306300, Note_on_c, 0, 79, 45
2, 306312, Note_on_c, 0, 79, 0
2, 306312, Note_on_c, 0, 81, 45
2, 306324, Note_on_c, 0, 81, 0
2, 306324, Note_on_c, 0, 82, 45
2, 306336, Note_on_c, 0, 82, 0
2, 306336, Note_on_c, 0, 84, 45
2, 306432, Note_on_c, 0, 84, 0
2, 306432, Note_on_c, 0, 86, 45
2, 306444, Note_on_c, 0, 86, 0
2, 306444, Note_on_c, 0, 84, 45
2, 306456, Note_on_c, 0, 84, 0
2, 306456, Note_on_c, 0, 83, 45
2, 306468, Note_on_c, 0, 83, 0
2, 306468, Note_on_c, 0, 84, 45
2, 306504, Note_on_c, 0, 84, 0
2, 306504, Note_on_c, 0, 86, 45
2, 306528, Note_on_c, 0, 86, 0
2, 306528, Note_on_c, 0, 87, 45
2, 306720, Note_on_c, 0, 87, 0
2, 306720, Note_on_c, 0, 69, 45
2, 306720, Note_on_c, 0, 72, 45
2, 306720, Note_on_c, 0, 75, 45
2, 306912, Note_on_c, 0, 69, 0
2, 306912, Note_on_c, 0, 72, 0
2, 306912, Note_on_c, 0, 75, 0
2, 306912, Note_on_c, 0, 70, 45
2, 306912, Note_on_c, 0, 74, 45
2, 307006, Note_on_c, 0, 70, 0
2, 307006, Note_on_c, 0, 74, 0
2, 307104, Note_on_c, 0, 79, 45
2, 307296, Note_on_c, 0, 67, 45
2, 307296, Note_on_c, 0, 70, 45
2, 307296, Note_on_c, 0, 73, 45
2, 307364, Note_on_c, 0, 67, 0
2, 307364, Note_on_c, 0, 70, 0
2, 307364, Note_on_c, 0, 73, 0
2, 307488, Note_on_c, 0, 79, 0
2, 307488, Note_on_c, 0, 77, 45
2, 307680, Note_on_c, 0, 65, 45
2, 307680, Note_on_c, 0, 70, 45
2, 307680, Note_on_c, 0, 74, 45
2, 307748, Note_on_c, 0, 65, 0
2, 307748, Note_on_c, 0, 70, 0
2, 307748, Note_on_c, 0, 74, 0
2, 307872, Note_on_c, 0, 60, 45
2, 307872, Note_on_c, 0, 63, 45
2, 307872, Note_on_c, 0, 69, 45
2, 307940, Note_on_c, 0, 60, 0
2, 307940, Note_on_c, 0, 63, 0
2, 307940, Note_on_c, 0, 69, 0
2, 308064, Note_on_c, 0, 77, 0
2, 308064, Note_on_c, 0, 58, 45
2, 308064, Note_on_c, 0, 62, 45
2, 308064, Note_on_c, 0, 70, 45
2, 308096, Note_on_c, 0, 58, 0
2, 308096, Note_on_c, 0, 62, 0
2, 308096, Note_on_c, 0, 70, 0
2, 308160, Note_on_c, 0, 65, 45
2, 308160, Note_on_c, 0, 77, 45
2, 308256, Note_on_c, 0, 65, 0
2, 308256, Note_on_c, 0, 77, 0
2, 308256, Note_on_c, 0, 62, 45
2, 308256, Note_on_c, 0, 74, 45
2, 308352, Note_on_c, 0, 62, 0
2, 308352, Note_on_c, 0, 74, 0
2, 308352, Note_on_c, 0, 59, 45
2, 308352, Note_on_c, 0, 71, 45
2, 308448, Note_on_c, 0, 59, 0
2, 308448, Note_on_c, 0, 71, 0
2, 308448, Note_on_c, 0, 58, 45
2, 308448, Note_on_c, 0, 70, 45
2, 308544, Note_on_c, 0, 58, 0
2, 308544, Note_on_c, 0, 70, 0
2, 308544, Note_on_c, 0, 56, 45
2, 308544, Note_on_c, 0, 68, 45
2, 308640, Note_on_c, 0, 56, 0
2, 308640, Note_on_c, 0, 68, 0
2, 308640, Note_on_c, 0, 55, 45
2, 308640, Note_on_c, 0, 67, 45
2, 308736, Note_on_c, 0, 55, 0
2, 308736, Note_on_c, 0, 67, 0
2, 308736, Note_on_c, 0, 58, 45
2, 308736, Note_on_c, 0, 70, 45
2, 308832, Note_on_c, 0, 58, 0
2, 308832, Note_on_c, 0, 70, 0
2, 308832, Note_on_c, 0, 51, 45
2, 308832, Note_on_c, 0, 63, 45
2, 308928, Note_on_c, 0, 51, 0
2, 308928, Note_on_c, 0, 63, 0
2, 308928, Note_on_c, 0, 55, 45
2, 308928, Note_on_c, 0, 67, 45
2, 309024, Note_on_c, 0, 55, 0
2, 309024, Note_on_c, 0, 67, 0
2, 309024, Note_on_c, 0, 48, 45
2, 309024, Note_on_c, 0, 60, 45
2, 309120, Note_on_c, 0, 48, 0
2, 309120, Note_on_c, 0, 60, 0
2, 309120, Note_on_c, 0, 53, 45
2, 309120, Note_on_c, 0, 65, 45
2, 309168, Note_on_c, 0, 53, 0
2, 309168, Note_on_c, 0, 65, 0
2, 309168, Note_on_c, 0, 51, 45
2, 309168, Note_on_c, 0, 63, 45
2, 309216, Note_on_c, 0, 51, 0
2, 309216, Note_on_c, 0, 63, 0
2, 309216, Note_on_c, 0, 50, 45
2, 309216, Note_on_c, 0, 62, 45
2, 309310, Note_on_c, 0, 50, 0
2, 309310, Note_on_c, 0, 62, 0
2, 309312, Note_on_c, 0, 65, 45
2, 309406, Note_on_c, 0, 65, 0
2, 309408, Note_on_c, 0, 62, 45
2, 309502, Note_on_c, 0, 62, 0
2, 309504, Note_on_c, 0, 74, 45
2, 309696, Note_on_c, 0, 74, 0
2, 309696, Note_on_c, 0, 75, 45
2, 309708, Note_on_c, 0, 75, 0
2, 309708, Note_on_c, 0, 74, 45
2, 309720, Note_on_c, 0, 74, 0
2, 309720, Note_on_c, 0, 75, 45
2, 309732, Note_on_c, 0, 75, 0
2, 309732, Note_on_c, 0, 74, 45
2, 309744, Note_on_c, 0, 74, 0
2, 309744, Note_on_c, 0, 75, 45
2, 309756, Note_on_c, 0, 75, 0
2, 309756, Note_on_c, 0, 74, 45
2, 309768, Note_on_c, 0, 74, 0
2, 309768, Note_on_c, 0, 75, 45
2, 309780, Note_on_c, 0, 75, 0
2, 309780, Note_on_c, 0, 74, 45
2, 309792, Note_on_c, 0, 74, 0
2, 309792, Note_on_c, 0, 77, 45
2, 309886, Note_on_c, 0, 77, 0
2, 309888, Note_on_c, 0, 75, 45
2, 309982, Note_on_c, 0, 75, 0
2, 310080, Note_on_c, 0, 75, 45
2, 310272, Note_on_c, 0, 75, 0
2, 310272, Note_on_c, 0, 70, 45
2, 310284, Note_on_c, 0, 70, 0
2, 310284, Note_on_c, 0, 69, 45
2, 310296, Note_on_c, 0, 69, 0
2, 310296, Note_on_c, 0, 70, 45
2, 310308, Note_on_c, 0, 70, 0
2, 310308, Note_on_c, 0, 69, 45
2, 310320, Note_on_c, 0, 69, 0
2, 310320, Note_on_c, 0, 70, 45
2, 310332, Note_on_c, 0, 70, 0
2, 310332, Note_on_c, 0, 69, 45
2, 310344, Note_on_c, 0, 69, 0
2, 310344, Note_on_c, 0, 70, 45
2, 310356, Note_on_c, 0, 70, 0
2, 310356, Note_on_c, 0, 69, 45
2, 310368, Note_on_c, 0, 69, 0
2, 310368, Note_on_c, 0, 70, 45
2, 310462, Note_on_c, 0, 70, 0
2, 310512, Note_on_c, 0, 69, 45
2, 310558, Note_on_c, 0, 69, 0
2, 310560, Note_on_c, 0, 70, 45
2, 310592, Note_on_c, 0, 70, 0
2, 310704, Note_on_c, 0, 69, 45
2, 310704, Note_on_c, 0, 72, 45
2, 310752, Note_on_c, 0, 69, 0
2, 310752, Note_on_c, 0, 72, 0
2, 310752, Note_on_c, 0, 70, 45
2, 310752, Note_on_c, 0, 74, 45
2, 310846, Note_on_c, 0, 70, 0
2, 310846, Note_on_c, 0, 74, 0
2, 310896, Note_on_c, 0, 72, 45
2, 310896, Note_on_c, 0, 81, 45
2, 310944, Note_on_c, 0, 72, 0
2, 310944, Note_on_c, 0, 81, 0
2, 310944, Note_on_c, 0, 74, 45
2, 310944, Note_on_c, 0, 82, 45
2, 311038, Note_on_c, 0, 74, 0
2, 311038, Note_on_c, 0, 82, 0
2, 311040, Note_on_c, 0, 86, 45
2, 311110, Note_on_c, 0, 86, 0
2, 311112, Note_on_c, 0, 84, 45
2, 311134, Note_on_c, 0, 84, 0
2, 311136, Note_on_c, 0, 84, 45
2, 311328, Note_on_c, 0, 84, 0
2, 311328, Note_on_c, 0, 82, 45
2, 311422, Note_on_c, 0, 82, 0
2, 313824, Note_on_c, 0, 69, 45
2, 313872, Note_on_c, 0, 69, 0
2, 313872, Note_on_c, 0, 77, 45
2, 313920, Note_on_c, 0, 77, 0
2, 313920, Note_on_c, 0, 76, 45
2, 313968, Note_on_c, 0, 76, 0
2, 313968, Note_on_c, 0, 74, 45
2, 314000, Note_on_c, 0, 74, 0
2, 314112, Note_on_c, 0, 69, 45
2, 314160, Note_on_c, 0, 69, 0
2, 314160, Note_on_c, 0, 77, 45
2, 314208, Note_on_c, 0, 77, 0
2, 314208, Note_on_c, 0, 76, 45
2, 314256, Note_on_c, 0, 76, 0
2, 314256, Note_on_c, 0, 74, 45
2, 314288, Note_on_c, 0, 74, 0
2, 314400, Note_on_c, 0, 69, 45
2, 314448, Note_on_c, 0, 69, 0
2, 314448, Note_on_c, 0, 77, 45
2, 314496, Note_on_c, 0, 77, 0
2, 314496, Note_on_c, 0, 76, 45
2, 314544, Note_on_c, 0, 76, 0
2, 314544, Note_on_c, 0, 74, 45
2, 314576, Note_on_c, 0, 74, 0
2, 314688, Note_on_c, 0, 69, 45
2, 314736, Note_on_c, 0, 69, 0
2, 314736, Note_on_c, 0, 77, 45
2, 314784, Note_on_c, 0, 77, 0
2, 314784, Note_on_c, 0, 74, 45
2, 314832, Note_on_c, 0, 74, 0
2, 314832, Note_on_c, 0, 76, 45
2, 314864, Note_on_c, 0, 76, 0
2, 314976, Note_on_c, 0, 69, 45
2, 315024, Note_on_c, 0, 69, 0
2, 315024, Note_on_c, 0, 79, 45
2, 315072, Note_on_c, 0, 79, 0
2, 315072, Note_on_c, 0, 77, 45
2, 315120, Note_on_c, 0, 77, 0
2, 315120, Note_on_c, 0, 76, 45
2, 315152, Note_on_c, 0, 76, 0
2, 315264, Note_on_c, 0, 69, 45
2, 315312, Note_on_c, 0, 69, 0
2, 315312, Note_on_c, 0, 79, 45
2, 315360, Note_on_c, 0, 79, 0
2, 315360, Note_on_c, 0, 77, 45
2, 315408, Note_on_c, 0, 77, 0
2, 315408, Note_on_c, 0, 76, 45
2, 315440, Note_on_c, 0, 76, 0
2, 315552, Note_on_c, 0, 69, 45
2, 315600, Note_on_c, 0, 69, 0
2, 315600, Note_on_c, 0, 79, 45
2, 315648, Note_on_c, 0, 79, 0
2, 315648, Note_on_c, 0, 77, 45
2, 315696, Note_on_c, 0, 77, 0
2, 315696, Note_on_c, 0, 76, 45
2, 315728, Note_on_c, 0, 76, 0
2, 315840, Note_on_c, 0, 69, 45
2, 315888, Note_on_c, 0, 69, 0
2, 315888, Note_on_c, 0, 79, 45
2, 315936, Note_on_c, 0, 79, 0
2, 315936, Note_on_c, 0, 76, 45
2, 315984, Note_on_c, 0, 76, 0
2, 315984, Note_on_c, 0, 77, 45
2, 316016, Note_on_c, 0, 77, 0
2, 316128, Note_on_c, 0, 74, 45
2, 316176, Note_on_c, 0, 74, 0
2, 316176, Note_on_c, 0, 81, 45
2, 316224, Note_on_c, 0, 81, 0
2, 316224, Note_on_c, 0, 86, 45
2, 316272, Note_on_c, 0, 86, 0
2, 316272, Note_on_c, 0, 82, 45
2, 316304, Note_on_c, 0, 82, 0
2, 316416, Note_on_c, 0, 70, 50
2, 316464, Note_on_c, 0, 70, 0
2, 316464, Note_on_c, 0, 74, 55
2, 316512, Note_on_c, 0, 74, 0
2, 316512, Note_on_c, 0, 82, 60
2, 316560, Note_on_c, 0, 82, 0
2, 316560, Note_on_c, 0, 79, 65
2, 316592, Note_on_c, 0, 79, 0
2, 316704, Note_on_c, 0, 67, 75
2, 316752, Note_on_c, 0, 67, 0
2, 316752, Note_on_c, 0, 70, 75
2, 316800, Note_on_c, 0, 70, 0
2, 316800, Note_on_c, 0, 79, 75
2, 316848, Note_on_c, 0, 79, 0
2, 316848, Note_on_c, 0, 76, 75
2, 316880, Note_on_c, 0, 76, 0
2, 316992, Note_on_c, 0, 64, 72
2, 317040, Note_on_c, 0, 64, 0
2, 317040, Note_on_c, 0, 69, 69
2, 317088, Note_on_c, 0, 69, 0
2, 317088, Note_on_c, 0, 76, 66
2, 317136, Note_on_c, 0, 76, 0
2, 317136, Note_on_c, 0, 77, 63
2, 317168, Note_on_c, 0, 77, 0
2, 317280, Note_on_c, 0, 65, 54
2, 317328, Note_on_c, 0, 65, 0
2, 317328, Note_on_c, 0, 69, 51
2, 317376, Note_on_c, 0, 69, 0
2, 317376, Note_on_c, 0, 77, 48
2, 317424, Note_on_c, 0, 77, 0
2, 317424, Note_on_c, 0, 74, 45
2, 317456, Note_on_c, 0, 74, 0
2, 317568, Note_on_c, 0, 62, 45
2, 317616, Note_on_c, 0, 62, 0
2, 317616, Note_on_c, 0, 69, 50
2, 317664, Note_on_c, 0, 69, 0
2, 317664, Note_on_c, 0, 74, 55
2, 317712, Note_on_c, 0, 74, 0
2, 317712, Note_on_c, 0, 73, 60
2, 317806, Note_on_c, 0, 73, 0
2, 317856, Note_on_c, 0, 61, 75
2, 317904, Note_on_c, 0, 61, 0
2, 317904, Note_on_c, 0, 69, 80
2, 317952, Note_on_c, 0, 69, 0
2, 317952, Note_on_c, 0, 73, 86
2, 318000, Note_on_c, 0, 73, 0
2, 318000, Note_on_c, 0, 74, 92
2, 318032, Note_on_c, 0, 74, 0
2, 318192, Note_on_c, 0, 65, 92
2, 318238, Note_on_c, 0, 65, 0
2, 318240, Note_on_c, 0, 69, 92
2, 318286, Note_on_c, 0, 69, 0
2, 318288, Note_on_c, 0, 74, 92
2, 318334, Note_on_c, 0, 74, 0
2, 318336, Note_on_c, 0, 77, 92
2, 318382, Note_on_c, 0, 77, 0
2, 318384, Note_on_c, 0, 81, 92
2, 318430, Note_on_c, 0, 81, 0
2, 318432, Note_on_c, 0, 77, 92
2, 318478, Note_on_c, 0, 77, 0
2, 318480, Note_on_c, 0, 86, 92
2, 318526, Note_on_c, 0, 86, 0
2, 318528, Note_on_c, 0, 81, 92
2, 318574, Note_on_c, 0, 81, 0
2, 318576, Note_on_c, 0, 82, 45
2, 318608, Note_on_c, 0, 82, 0
2, 318720, Note_on_c, 0, 70, 45
2, 318768, Note_on_c, 0, 70, 0
2, 318768, Note_on_c, 0, 74, 55
2, 318816, Note_on_c, 0, 74, 0
2, 318816, Note_on_c, 0, 82, 65
2, 318864, Note_on_c, 0, 82, 0
2, 318864, Note_on_c, 0, 79, 75
2, 318896, Note_on_c, 0, 79, 0
2, 319008, Note_on_c, 0, 67, 75
2, 319056, Note_on_c, 0, 67, 0
2, 319056, Note_on_c, 0, 70, 73
2, 319104, Note_on_c, 0, 70, 0
2, 319104, Note_on_c, 0, 79, 71
2, 319152, Note_on_c, 0, 79, 0
2, 319152, Note_on_c, 0, 76, 69
2, 319184, Note_on_c, 0, 76, 0
2, 319296, Note_on_c, 0, 64, 63
2, 319344, Note_on_c, 0, 64, 0
2, 319344, Note_on_c, 0, 69, 61
2, 319392, Note_on_c, 0, 69, 0
2, 319392, Note_on_c, 0, 76, 59
2, 319440, Note_on_c, 0, 76, 0
2, 319440, Note_on_c, 0, 77, 57
2, 319472, Note_on_c, 0, 77, 0
2, 319584, Note_on_c, 0, 65, 51
2, 319632, Note_on_c, 0, 65, 0
2, 319632, Note_on_c, 0, 69, 49
2, 319680, Note_on_c, 0, 69, 0
2, 319680, Note_on_c, 0, 77, 47
2, 319728, Note_on_c, 0, 77, 0
2, 319728, Note_on_c, 0, 74, 45
2, 319760, Note_on_c, 0, 74, 0
2, 319872, Note_on_c, 0, 62, 45
2, 319920, Note_on_c, 0, 62, 0
2, 319920, Note_on_c, 0, 69, 50
2, 319968, Note_on_c, 0, 69, 0
2, 319968, Note_on_c, 0, 74, 55
2, 320016, Note_on_c, 0, 74, 0
2, 320016, Note_on_c, 0, 73, 60
2, 320048, Note_on_c, 0, 73, 0
2, 320160, Note_on_c, 0, 61, 75
2, 320206, Note_on_c, 0, 61, 0
2, 320208, Note_on_c, 0, 69, 80
2, 320254, Note_on_c, 0, 69, 0
2, 320256, Note_on_c, 0, 73, 86
2, 320302, Note_on_c, 0, 73, 0
2, 320304, Note_on_c, 0, 74, 92
2, 320336, Note_on_c, 0, 74, 0
2, 320376, Note_on_c, 0, 69, 92
2, 320398, Note_on_c, 0, 69, 0
2, 320400, Note_on_c, 0, 81, 127
2, 320592, Note_on_c, 0, 81, 0
2, 320592, Note_on_c, 0, 80, 92
2, 320640, Note_on_c, 0, 80, 0
2, 320640, Note_on_c, 0, 79, 92
2, 320688, Note_on_c, 0, 79, 0
2, 320688, Note_on_c, 0, 78, 92
2, 320736, Note_on_c, 0, 78, 0
2, 320736, Note_on_c, 0, 77, 92
2, 320784, Note_on_c, 0, 77, 0
2, 320784, Note_on_c, 0, 76, 92
2, 320832, Note_on_c, 0, 76, 0
2, 320832, Note_on_c, 0, 75, 92
2, 320880, Note_on_c, 0, 75, 0
2, 320880, Note_on_c, 0, 74, 45
2, 320912, Note_on_c, 0, 74, 0
2, 321024, Note_on_c, 0, 62, 45
2, 321072, Note_on_c, 0, 62, 0
2, 321072, Note_on_c, 0, 69, 50
2, 321120, Note_on_c, 0, 69, 0
2, 321120, Note_on_c, 0, 74, 55
2, 321168, Note_on_c, 0, 74, 0
2, 321168, Note_on_c, 0, 73, 60
2, 321200, Note_on_c, 0, 73, 0
2, 321312, Note_on_c, 0, 61, 75
2, 321358, Note_on_c, 0, 61, 0
2, 321360, Note_on_c, 0, 69, 80
2, 321406, Note_on_c, 0, 69, 0
2, 321408, Note_on_c, 0, 73, 86
2, 321454, Note_on_c, 0, 73, 0
2, 321456, Note_on_c, 0, 74, 92
2, 321488, Note_on_c, 0, 74, 0
2, 321528, Note_on_c, 0, 74, 92
2, 321550, Note_on_c, 0, 74, 0
2, 321552, Note_on_c, 0, 86, 127
2, 321744, Note_on_c, 0, 86, 0
2, 321744, Note_on_c, 0, 85, 92
2, 321792, Note_on_c, 0, 85, 0
2, 321792, Note_on_c, 0, 84, 92
2, 321840, Note_on_c, 0, 84, 0
2, 321840, Note_on_c, 0, 83, 92
2, 321888, Note_on_c, 0, 83, 0
2, 321888, Note_on_c, 0, 82, 92
2, 321936, Note_on_c, 0, 82, 0
2, 321936, Note_on_c, 0, 81, 92
2, 321984, Note_on_c, 0, 81, 0
2, 321984, Note_on_c, 0, 80, 92
2, 322032, Note_on_c, 0, 80, 0
2, 322032, Note_on_c, 0, 81, 45
2, 322064, Note_on_c, 0, 81, 0
2, 322176, Note_on_c, 0, 62, 45
2, 322222, Note_on_c, 0, 62, 0
2, 322224, Note_on_c, 0, 69, 52
2, 322270, Note_on_c, 0, 69, 0
2, 322272, Note_on_c, 0, 74, 60
2, 322318, Note_on_c, 0, 74, 0
2, 322320, Note_on_c, 0, 73, 68
2, 322352, Note_on_c, 0, 73, 0
2, 322464, Note_on_c, 0, 73, 92
2, 322512, Note_on_c, 0, 73, 0
2, 322512, Note_on_c, 0, 81, 92
2, 322560, Note_on_c, 0, 81, 0
2, 322560, Note_on_c, 0, 85, 92
2, 322608, Note_on_c, 0, 85, 0
2, 322608, Note_on_c, 0, 86, 92
2, 322640, Note_on_c, 0, 86, 0
2, 322656, Note_on_c, 0, 50, 92
2, 322704, Note_on_c, 0, 50, 0
2, 322704, Note_on_c, 0, 53, 92
2, 322752, Note_on_c, 0, 53, 0
2, 322752, Note_on_c, 0, 57, 92
2, 322800, Note_on_c, 0, 57, 0
2, 322800, Note_on_c, 0, 62, 92
2, 322832, Note_on_c, 0, 62, 0
2, 322944, Note_on_c, 0, 50, 92
2, 322992, Note_on_c, 0, 50, 0
2, 322992, Note_on_c, 0, 53, 92
2, 323040, Note_on_c, 0, 53, 0
2, 323040, Note_on_c, 0, 57, 92
2, 323088, Note_on_c, 0, 57, 0
2, 323088, Note_on_c, 0, 62, 92
2, 323120, Note_on_c, 0, 62, 0
2, 323232, Note_on_c, 0, 50, 92
2, 323280, Note_on_c, 0, 50, 0
2, 323280, Note_on_c, 0, 53, 92
2, 323328, Note_on_c, 0, 53, 0
2, 323328, Note_on_c, 0, 57, 92
2, 323376, Note_on_c, 0, 57, 0
2, 323376, Note_on_c, 0, 62, 92
2, 323408, Note_on_c, 0, 62, 0
2, 323472, Note_on_c, 0, 50, 127
2, 323518, Note_on_c, 0, 50, 0
2, 323520, Note_on_c, 0, 53, 92
2, 323566, Note_on_c, 0, 53, 0
2, 323568, Note_on_c, 0, 59, 92
2, 323614, Note_on_c, 0, 59, 0
2, 323616, Note_on_c, 0, 62, 92
2, 323662, Note_on_c, 0, 62, 0
2, 323664, Note_on_c, 0, 65, 92
2, 323710, Note_on_c, 0, 65, 0
2, 323712, Note_on_c, 0, 71, 92
2, 323758, Note_on_c, 0, 71, 0
2, 323760, Note_on_c, 0, 60, 92
2, 323806, Note_on_c, 0, 60, 0
2, 323808, Note_on_c, 0, 72, 92
2, 323854, Note_on_c, 0, 72, 0
2, 323856, Note_on_c, 0, 64, 92
2, 323902, Note_on_c, 0, 64, 0
2, 323904, Note_on_c, 0, 76, 92
2, 323950, Note_on_c, 0, 76, 0
2, 323952, Note_on_c, 0, 67, 92
2, 323998, Note_on_c, 0, 67, 0
2, 324000, Note_on_c, 0, 79, 92
2, 324046, Note_on_c, 0, 79, 0
2, 324048, Note_on_c, 0, 72, 92
2, 324094, Note_on_c, 0, 72, 0
2, 324096, Note_on_c, 0, 84, 92
2, 324142, Note_on_c, 0, 84, 0
2, 324144, Note_on_c, 0, 76, 92
2, 324190, Note_on_c, 0, 76, 0
2, 324192, Note_on_c, 0, 88, 92
2, 324238, Note_on_c, 0, 88, 0
2, 324240, Note_on_c, 0, 72, 92
2, 324286, Note_on_c, 0, 72, 0
2, 324288, Note_on_c, 0, 84, 92
2, 324334, Note_on_c, 0, 84, 0
2, 324336, Note_on_c, 0, 67, 92
2, 324382, Note_on_c, 0, 67, 0
2, 324384, Note_on_c, 0, 79, 92
2, 324430, Note_on_c, 0, 79, 0
2, 324432, Note_on_c, 0, 64, 92
2, 324478, Note_on_c, 0, 64, 0
2, 324480, Note_on_c, 0, 76, 92
2, 324526, Note_on_c, 0, 76, 0
2, 324528, Note_on_c, 0, 67, 92
2, 324574, Note_on_c, 0, 67, 0
2, 324576, Note_on_c, 0, 79, 92
2, 324622, Note_on_c, 0, 79, 0
2, 324624, Note_on_c, 0, 64, 92
2, 324670, Note_on_c, 0, 64, 0
2, 324672, Note_on_c, 0, 76, 92
2, 324718, Note_on_c, 0, 76, 0
2, 324720, Note_on_c, 0, 60, 92
2, 324766, Note_on_c, 0, 60, 0
2, 324768, Note_on_c, 0, 72, 92
2, 324814, Note_on_c, 0, 72, 0
2, 324960, Note_on_c, 0, 48, 92
2, 325008, Note_on_c, 0, 48, 0
2, 325008, Note_on_c, 0, 52, 92
2, 325056, Note_on_c, 0, 52, 0
2, 325056, Note_on_c, 0, 55, 92
2, 325104, Note_on_c, 0, 55, 0
2, 325104, Note_on_c, 0, 60, 92
2, 325136, Note_on_c, 0, 60, 0
2, 325248, Note_on_c, 0, 48, 92
2, 325296, Note_on_c, 0, 48, 0
2, 325296, Note_on_c, 0, 52, 92
2, 325344, Note_on_c, 0, 52, 0
2, 325344, Note_on_c, 0, 55, 92
2, 325392, Note_on_c, 0, 55, 0
2, 325392, Note_on_c, 0, 60, 92
2, 325424, Note_on_c, 0, 60, 0
2, 325536, Note_on_c, 0, 48, 92
2, 325584, Note_on_c, 0, 48, 0
2, 325584, Note_on_c, 0, 52, 92
2, 325632, Note_on_c, 0, 52, 0
2, 325632, Note_on_c, 0, 55, 92
2, 325680, Note_on_c, 0, 55, 0
2, 325680, Note_on_c, 0, 60, 92
2, 325712, Note_on_c, 0, 60, 0
2, 325776, Note_on_c, 0, 50, 127
2, 325776, Note_on_c, 0, 57, 127
2, 325822, Note_on_c, 0, 50, 0
2, 325822, Note_on_c, 0, 57, 0
2, 325824, Note_on_c, 0, 62, 92
2, 325870, Note_on_c, 0, 62, 0
2, 325872, Note_on_c, 0, 50, 92
2, 325872, Note_on_c, 0, 57, 92
2, 325918, Note_on_c, 0, 50, 0
2, 325918, Note_on_c, 0, 57, 0
2, 325920, Note_on_c, 0, 62, 92
2, 325966, Note_on_c, 0, 62, 0
2, 325968, Note_on_c, 0, 51, 92
2, 325968, Note_on_c, 0, 57, 92
2, 326014, Note_on_c, 0, 51, 0
2, 326014, Note_on_c, 0, 57, 0
2, 326016, Note_on_c, 0, 63, 92
2, 326062, Note_on_c, 0, 63, 0
2, 326064, Note_on_c, 0, 56, 92
2, 326064, Note_on_c, 0, 64, 92
2, 326158, Note_on_c, 0, 56, 0
2, 326158, Note_on_c, 0, 64, 0
2, 326160, Note_on_c, 0, 77, 92
2, 326184, Note_on_c, 0, 77, 0
2, 326184, Note_on_c, 0, 80, 92
2, 326208, Note_on_c, 0, 80, 0
2, 326208, Note_on_c, 0, 77, 92
2, 326256, Note_on_c, 0, 77, 0
2, 326256, Note_on_c, 0, 76, 92
2, 326350, Note_on_c, 0, 76, 0
2, 326352, Note_on_c, 0, 77, 92
2, 326376, Note_on_c, 0, 77, 0
2, 326376, Note_on_c, 0, 79, 92
2, 326400, Note_on_c, 0, 79, 0
2, 326400, Note_on_c, 0, 77, 92
2, 326448, Note_on_c, 0, 77, 0
2, 326448, Note_on_c, 0, 76, 92
2, 326542, Note_on_c, 0, 76, 0
2, 326544, Note_on_c, 0, 77, 92
2, 326568, Note_on_c, 0, 77, 0
2, 326568, Note_on_c, 0, 79, 92
2, 326592, Note_on_c, 0, 79, 0
2, 326592, Note_on_c, 0, 77, 92
2, 326640, Note_on_c, 0, 77, 0
2, 326640, Note_on_c, 0, 76, 92
2, 326734, Note_on_c, 0, 76, 0
2, 326736, Note_on_c, 0, 77, 92
2, 326760, Note_on_c, 0, 77, 0
2, 326760, Note_on_c, 0, 79, 92
2, 326784, Note_on_c, 0, 79, 0
2, 326784, Note_on_c, 0, 77, 92
2, 326832, Note_on_c, 0, 77, 0
2, 326832, Note_on_c, 0, 76, 92
2, 326926, Note_on_c, 0, 76, 0
2, 326928, Note_on_c, 0, 77, 92
2, 326952, Note_on_c, 0, 77, 0
2, 326952, Note_on_c, 0, 79, 92
2, 326976, Note_on_c, 0, 79, 0
2, 326976, Note_on_c, 0, 77, 92
2, 327024, Note_on_c, 0, 77, 0
2, 327024, Note_on_c, 0, 76, 92
2, 327118, Note_on_c, 0, 76, 0
2, 327120, Note_on_c, 0, 77, 92
2, 327144, Note_on_c, 0, 77, 0
2, 327144, Note_on_c, 0, 79, 92
2, 327168, Note_on_c, 0, 79, 0
2, 327168, Note_on_c, 0, 77, 92
2, 327216, Note_on_c, 0, 77, 0
2, 327216, Note_on_c, 0, 76, 92
2, 327310, Note_on_c, 0, 76, 0
2, 327312, Note_on_c, 0, 77, 127
2, 327598, Note_on_c, 0, 77, 0
2, 327600, Note_on_c, 0, 76, 92
2, 327632, Note_on_c, 0, 76, 0
2, 327696, Note_on_c, 0, 74, 89
2, 327728, Note_on_c, 0, 74, 0
2, 327792, Note_on_c, 0, 72, 86
2, 327816, Note_on_c, 0, 72, 0
2, 327816, Note_on_c, 0, 74, 86
2, 327840, Note_on_c, 0, 74, 0
2, 327840, Note_on_c, 0, 72, 85
2, 327888, Note_on_c, 0, 72, 0
2, 327888, Note_on_c, 0, 71, 83
2, 327982, Note_on_c, 0, 71, 0
2, 327984, Note_on_c, 0, 69, 79
2, 328016, Note_on_c, 0, 69, 0
2, 328080, Note_on_c, 0, 68, 75
2, 328112, Note_on_c, 0, 68, 0
2, 328176, Note_on_c, 0, 69, 75
2, 328208, Note_on_c, 0, 69, 0
2, 328272, Note_on_c, 0, 71, 75
2, 328304, Note_on_c, 0, 71, 0
2, 328368, Note_on_c, 0, 69, 75
2, 328400, Note_on_c, 0, 69, 0
2, 328464, Note_on_c, 0, 77, 92
2, 328510, Note_on_c, 0, 77, 0
2, 328512, Note_on_c, 0, 89, 92
2, 328558, Note_on_c, 0, 89, 0
2, 328560, Note_on_c, 0, 76, 92
2, 328606, Note_on_c, 0, 76, 0
2, 328608, Note_on_c, 0, 88, 92
2, 328654, Note_on_c, 0, 88, 0
2, 328656, Note_on_c, 0, 77, 92
2, 328702, Note_on_c, 0, 77, 0
2, 328704, Note_on_c, 0, 89, 92
2, 328750, Note_on_c, 0, 89, 0
2, 328752, Note_on_c, 0, 76, 92
2, 328798, Note_on_c, 0, 76, 0
2, 328800, Note_on_c, 0, 88, 92
2, 328846, Note_on_c, 0, 88, 0
2, 328848, Note_on_c, 0, 77, 92
2, 328894, Note_on_c, 0, 77, 0
2, 328896, Note_on_c, 0, 89, 92
2, 328942, Note_on_c, 0, 89, 0
2, 328944, Note_on_c, 0, 76, 92
2, 328990, Note_on_c, 0, 76, 0
2, 328992, Note_on_c, 0, 88, 92
2, 329038, Note_on_c, 0, 88, 0
2, 329040, Note_on_c, 0, 77, 92
2, 329086, Note_on_c, 0, 77, 0
2, 329088, Note_on_c, 0, 89, 92
2, 329134, Note_on_c, 0, 89, 0
2, 329136, Note_on_c, 0, 76, 92
2, 329182, Note_on_c, 0, 76, 0
2, 329184, Note_on_c, 0, 88, 92
2, 329230, Note_on_c, 0, 88, 0
2, 329232, Note_on_c, 0, 77, 92
2, 329278, Note_on_c, 0, 77, 0
2, 329280, Note_on_c, 0, 89, 92
2, 329326, Note_on_c, 0, 89, 0
2, 329328, Note_on_c, 0, 76, 92
2, 329374, Note_on_c, 0, 76, 0
2, 329376, Note_on_c, 0, 88, 92
2, 329408, Note_on_c, 0, 88, 0
2, 329424, Note_on_c, 0, 77, 92
2, 329470, Note_on_c, 0, 77, 0
2, 329472, Note_on_c, 0, 89, 92
2, 329518, Note_on_c, 0, 89, 0
2, 329520, Note_on_c, 0, 76, 92
2, 329520, Note_on_c, 0, 88, 92
2, 329552, Note_on_c, 0, 76, 0
2, 329552, Note_on_c, 0, 88, 0
2, 329616, Note_on_c, 0, 77, 127
2, 329616, Note_on_c, 0, 89, 127
2, 329902, Note_on_c, 0, 77, 0
2, 329902, Note_on_c, 0, 89, 0
2, 329904, Note_on_c, 0, 76, 77
2, 329904, Note_on_c, 0, 88, 77
2, 329936, Note_on_c, 0, 76, 0
2, 329936, Note_on_c, 0, 88, 0
2, 330000, Note_on_c, 0, 74, 61
2, 330000, Note_on_c, 0, 86, 61
2, 330032, Note_on_c, 0, 74, 0
2, 330032, Note_on_c, 0, 86, 0
2, 330096, Note_on_c, 0, 72, 45
2, 330096, Note_on_c, 0, 84, 45
2, 330128, Note_on_c, 0, 72, 0
2, 330128, Note_on_c, 0, 84, 0
2, 330192, Note_on_c, 0, 71, 45
2, 330192, Note_on_c, 0, 83, 45
2, 330224, Note_on_c, 0, 71, 0
2, 330224, Note_on_c, 0, 83, 0
2, 330288, Note_on_c, 0, 69, 45
2, 330288, Note_on_c, 0, 81, 45
2, 330320, Note_on_c, 0, 69, 0
2, 330320, Note_on_c, 0, 81, 0
2, 330384, Note_on_c, 0, 68, 45
2, 330384, Note_on_c, 0, 80, 45
2, 330416, Note_on_c, 0, 68, 0
2, 330416, Note_on_c, 0, 80, 0
2, 330480, Note_on_c, 0, 69, 45
2, 330480, Note_on_c, 0, 81, 45
2, 330512, Note_on_c, 0, 69, 0
2, 330512, Note_on_c, 0, 81, 0
2, 330576, Note_on_c, 0, 71, 45
2, 330576, Note_on_c, 0, 83, 45
2, 330608, Note_on_c, 0, 71, 0
2, 330608, Note_on_c, 0, 83, 0
2, 330672, Note_on_c, 0, 69, 45
2, 330672, Note_on_c, 0, 81, 45
2, 330768, Note_on_c, 0, 69, 0
2, 330768, Note_on_c, 0, 81, 0
2, 330768, Note_on_c, 0, 77, 45
2, 330768, Note_on_c, 0, 89, 45
2, 330862, Note_on_c, 0, 77, 0
2, 330862, Note_on_c, 0, 89, 0
2, 330864, Note_on_c, 0, 77, 48
2, 330864, Note_on_c, 0, 89, 48
2, 330896, Note_on_c, 0, 77, 0
2, 330896, Note_on_c, 0, 89, 0
2, 330960, Note_on_c, 0, 77, 52
2, 330960, Note_on_c, 0, 89, 52
2, 330992, Note_on_c, 0, 77, 0
2, 330992, Note_on_c, 0, 89, 0
2, 331056, Note_on_c, 0, 76, 56
2, 331056, Note_on_c, 0, 88, 56
2, 331088, Note_on_c, 0, 76, 0
2, 331088, Note_on_c, 0, 88, 0
2, 331152, Note_on_c, 0, 74, 60
2, 331152, Note_on_c, 0, 86, 60
2, 331184, Note_on_c, 0, 74, 0
2, 331184, Note_on_c, 0, 86, 0
2, 331248, Note_on_c, 0, 72, 64
2, 331248, Note_on_c, 0, 84, 64
2, 331280, Note_on_c, 0, 72, 0
2, 331280, Note_on_c, 0, 84, 0
2, 331344, Note_on_c, 0, 71, 68
2, 331344, Note_on_c, 0, 83, 68
2, 331376, Note_on_c, 0, 71, 0
2, 331376, Note_on_c, 0, 83, 0
2, 331440, Note_on_c, 0, 69, 72
2, 331440, Note_on_c, 0, 81, 72
2, 331472, Note_on_c, 0, 69, 0
2, 331472, Note_on_c, 0, 81, 0
2, 331536, Note_on_c, 0, 68, 76
2, 331536, Note_on_c, 0, 80, 76
2, 331568, Note_on_c, 0, 68, 0
2, 331568, Note_on_c, 0, 80, 0
2, 331632, Note_on_c, 0, 69, 80
2, 331632, Note_on_c, 0, 81, 80
2, 331664, Note_on_c, 0, 69, 0
2, 331664, Note_on_c, 0, 81, 0
2, 331728, Note_on_c, 0, 71, 84
2, 331728, Note_on_c, 0, 83, 84
2, 331760, Note_on_c, 0, 71, 0
2, 331760, Note_on_c, 0, 83, 0
2, 331824, Note_on_c, 0, 69, 88
2, 331824, Note_on_c, 0, 81, 88
2, 331920, Note_on_c, 0, 69, 0
2, 331920, Note_on_c, 0, 81, 0
2, 331920, Note_on_c, 0, 77, 92
2, 331920, Note_on_c, 0, 89, 92
2, 332014, Note_on_c, 0, 77, 0
2, 332014, Note_on_c, 0, 89, 0
2, 332016, Note_on_c, 0, 77, 92
2, 332016, Note_on_c, 0, 89, 92
2, 332048, Note_on_c, 0, 77, 0
2, 332048, Note_on_c, 0, 89, 0
2, 332112, Note_on_c, 0, 77, 92
2, 332112, Note_on_c, 0, 89, 92
2, 332144, Note_on_c, 0, 77, 0
2, 332144, Note_on_c, 0, 89, 0
2, 332208, Note_on_c, 0, 76, 92
2, 332208, Note_on_c, 0, 88, 92
2, 332240, Note_on_c, 0, 76, 0
2, 332240, Note_on_c, 0, 88, 0
2, 332304, Note_on_c, 0, 74, 92
2, 332304, Note_on_c, 0, 86, 92
2, 332336, Note_on_c, 0, 74, 0
2, 332336, Note_on_c, 0, 86, 0
2, 332400, Note_on_c, 0, 72, 92
2, 332400, Note_on_c, 0, 84, 92
2, 332432, Note_on_c, 0, 72, 0
2, 332432, Note_on_c, 0, 84, 0
2, 332496, Note_on_c, 0, 71, 92
2, 332496, Note_on_c, 0, 83, 92
2, 332528, Note_on_c, 0, 71, 0
2, 332528, Note_on_c, 0, 83, 0
2, 332592, Note_on_c, 0, 69, 92
2, 332592, Note_on_c, 0, 81, 92
2, 332624, Note_on_c, 0, 69, 0
2, 332624, Note_on_c, 0, 81, 0
2, 332688, Note_on_c, 0, 68, 92
2, 332688, Note_on_c, 0, 80, 92
2, 332720, Note_on_c, 0, 68, 0
2, 332720, Note_on_c, 0, 80, 0
2, 332784, Note_on_c, 0, 69, 92
2, 332784, Note_on_c, 0, 81, 92
2, 332816, Note_on_c, 0, 69, 0
2, 332816, Note_on_c, 0, 81, 0
2, 332880, Note_on_c, 0, 71, 92
2, 332880, Note_on_c, 0, 83, 92
2, 332912, Note_on_c, 0, 71, 0
2, 332912, Note_on_c, 0, 83, 0
2, 332976, Note_on_c, 0, 69, 45
2, 332976, Note_on_c, 0, 81, 45
2, 333070, Note_on_c, 0, 69, 0
2, 333070, Note_on_c, 0, 81, 0
2, 333168, Note_on_c, 0, 69, 45
2, 333216, Note_on_c, 0, 69, 0
2, 333216, Note_on_c, 0, 81, 45
2, 333264, Note_on_c, 0, 81, 0
2, 333264, Note_on_c, 0, 72, 45
2, 333296, Note_on_c, 0, 72, 0
2, 333456, Note_on_c, 0, 72, 45
2, 333504, Note_on_c, 0, 72, 0
2, 333504, Note_on_c, 0, 84, 45
2, 333552, Note_on_c, 0, 84, 0
2, 333552, Note_on_c, 0, 76, 45
2, 333584, Note_on_c, 0, 76, 0
2, 333744, Note_on_c, 0, 76, 45
2, 333792, Note_on_c, 0, 76, 0
2, 333792, Note_on_c, 0, 88, 45
2, 333840, Note_on_c, 0, 88, 0
2, 333840, Note_on_c, 0, 72, 45
2, 333888, Note_on_c, 0, 72, 0
2, 334032, Note_on_c, 0, 72, 45
2, 334080, Note_on_c, 0, 72, 0
2, 334080, Note_on_c, 0, 84, 45
2, 334128, Note_on_c, 0, 84, 0
2, 334128, Note_on_c, 0, 69, 45
2, 334224, Note_on_c, 0, 81, 45
2, 334512, Note_on_c, 0, 69, 0
2, 334512, Note_on_c, 0, 81, 0
2, 334512, Note_on_c, 0, 71, 45
2, 334512, Note_on_c, 0, 83, 45
2, 334606, Note_on_c, 0, 71, 0
2, 334606, Note_on_c, 0, 83, 0
2, 334608, Note_on_c, 0, 68, 45
2, 334608, Note_on_c, 0, 80, 45
2, 334640, Note_on_c, 0, 68, 0
2, 334640, Note_on_c, 0, 80, 0
2, 334704, Note_on_c, 0, 69, 45
2, 334704, Note_on_c, 0, 81, 45
2, 334798, Note_on_c, 0, 69, 0
2, 334798, Note_on_c, 0, 81, 0
2, 334848, Note_on_c, 0, 69, 45
2, 334896, Note_on_c, 0, 69, 0
2, 334896, Note_on_c, 0, 81, 45
2, 334944, Note_on_c, 0, 81, 0
2, 334944, Note_on_c, 0, 69, 45
2, 334992, Note_on_c, 0, 69, 0
2, 334992, Note_on_c, 0, 72, 45
2, 335024, Note_on_c, 0, 72, 0
2, 335136, Note_on_c, 0, 72, 45
2, 335184, Note_on_c, 0, 72, 0
2, 335184, Note_on_c, 0, 84, 45
2, 335232, Note_on_c, 0, 84, 0
2, 335232, Note_on_c, 0, 72, 45
2, 335280, Note_on_c, 0, 72, 0
2, 335280, Note_on_c, 0, 76, 45
2, 335312, Note_on_c, 0, 76, 0
2, 335424, Note_on_c, 0, 76, 45
2, 335472, Note_on_c, 0, 76, 0
2, 335472, Note_on_c, 0, 88, 45
2, 335520, Note_on_c, 0, 88, 0
2, 335520, Note_on_c, 0, 76, 45
2, 335568, Note_on_c, 0, 76, 0
2, 335568, Note_on_c, 0, 72, 45
2, 335600, Note_on_c, 0, 72, 0
2, 335712, Note_on_c, 0, 72, 45
2, 335760, Note_on_c, 0, 72, 0
2, 335760, Note_on_c, 0, 84, 45
2, 335808, Note_on_c, 0, 84, 0
2, 335808, Note_on_c, 0, 72, 45
2, 335856, Note_on_c, 0, 72, 0
2, 335856, Note_on_c, 0, 69, 45
2, 335952, Note_on_c, 0, 81, 45
2, 336240, Note_on_c, 0, 69, 0
2, 336240, Note_on_c, 0, 81, 0
2, 336240, Note_on_c, 0, 71, 45
2, 336240, Note_on_c, 0, 83, 45
2, 336334, Note_on_c, 0, 71, 0
2, 336334, Note_on_c, 0, 83, 0
2, 336336, Note_on_c, 0, 68, 45
2, 336336, Note_on_c, 0, 80, 45
2, 336368, Note_on_c, 0, 68, 0
2, 336368, Note_on_c, 0, 80, 0
2, 336432, Note_on_c, 0, 69, 45
2, 336432, Note_on_c, 0, 81, 45
2, 336528, Note_on_c, 0, 69, 0
2, 336528, Note_on_c, 0, 81, 0
2, 336528, Note_on_c, 0, 71, 55
2, 336528, Note_on_c, 0, 83, 55
2, 336624, Note_on_c, 0, 71, 0
2, 336624, Note_on_c, 0, 83, 0
2, 336624, Note_on_c, 0, 73, 65
2, 336624, Note_on_c, 0, 85, 65
2, 336720, Note_on_c, 0, 73, 0
2, 336720, Note_on_c, 0, 85, 0
2, 336720, Note_on_c, 0, 74, 75
2, 336720, Note_on_c, 0, 86, 75
2, 336816, Note_on_c, 0, 74, 0
2, 336816, Note_on_c, 0, 86, 0
2, 336816, Note_on_c, 0, 72, 70
2, 336816, Note_on_c, 0, 84, 70
2, 336912, Note_on_c, 0, 72, 0
2, 336912, Note_on_c, 0, 84, 0
2, 336912, Note_on_c, 0, 71, 65
2, 336912, Note_on_c, 0, 83, 65
2, 337008, Note_on_c, 0, 71, 0
2, 337008, Note_on_c, 0, 83, 0
2, 337008, Note_on_c, 0, 72, 60
2, 337008, Note_on_c, 0, 84, 60
2, 337104, Note_on_c, 0, 72, 0
2, 337104, Note_on_c, 0, 84, 0
2, 337104, Note_on_c, 0, 68, 55
2, 337104, Note_on_c, 0, 80, 55
2, 337200, Note_on_c, 0, 68, 0
2, 337200, Note_on_c, 0, 80, 0
2, 337200, Note_on_c, 0, 69, 50
2, 337200, Note_on_c, 0, 81, 50
2, 337294, Note_on_c, 0, 69, 0
2, 337294, Note_on_c, 0, 81, 0
2, 337296, Note_on_c, 0, 71, 45
2, 337296, Note_on_c, 0, 83, 45
2, 337392, Note_on_c, 0, 71, 0
2, 337392, Note_on_c, 0, 83, 0
2, 337392, Note_on_c, 0, 66, 45
2, 337392, Note_on_c, 0, 78, 45
2, 337488, Note_on_c, 0, 66, 0
2, 337488, Note_on_c, 0, 78, 0
2, 337488, Note_on_c, 0, 68, 45
2, 337488, Note_on_c, 0, 80, 45
2, 337582, Note_on_c, 0, 68, 0
2, 337582, Note_on_c, 0, 80, 0
2, 337584, Note_on_c, 0, 69, 45
2, 337630, Note_on_c, 0, 69, 0
2, 337632, Note_on_c, 0, 81, 50
2, 337678, Note_on_c, 0, 81, 0
2, 337680, Note_on_c, 0, 71, 55
2, 337726, Note_on_c, 0, 71, 0
2, 337728, Note_on_c, 0, 83, 60
2, 337774, Note_on_c, 0, 83, 0
2, 337776, Note_on_c, 0, 73, 65
2, 337822, Note_on_c, 0, 73, 0
2, 337824, Note_on_c, 0, 85, 70
2, 337870, Note_on_c, 0, 85, 0
2, 337872, Note_on_c, 0, 74, 75
2, 337918, Note_on_c, 0, 74, 0
2, 337920, Note_on_c, 0, 86, 70
2, 337966, Note_on_c, 0, 86, 0
2, 337968, Note_on_c, 0, 72, 65
2, 338014, Note_on_c, 0, 72, 0
2, 338016, Note_on_c, 0, 84, 60
2, 338062, Note_on_c, 0, 84, 0
2, 338064, Note_on_c, 0, 71, 55
2, 338110, Note_on_c, 0, 71, 0
2, 338112, Note_on_c, 0, 83, 50
2, 338158, Note_on_c, 0, 83, 0
2, 338160, Note_on_c, 0, 72, 45
2, 338206, Note_on_c, 0, 72, 0
2, 338208, Note_on_c, 0, 84, 45
2, 338254, Note_on_c, 0, 84, 0
2, 338256, Note_on_c, 0, 68, 45
2, 338302, Note_on_c, 0, 68, 0
2, 338304, Note_on_c, 0, 80, 45
2, 338350, Note_on_c, 0, 80, 0
2, 338352, Note_on_c, 0, 69, 45
2, 338398, Note_on_c, 0, 69, 0
2, 338400, Note_on_c, 0, 81, 45
2, 338446, Note_on_c, 0, 81, 0
2, 338448, Note_on_c, 0, 71, 45
2, 338494, Note_on_c, 0, 71, 0
2, 338496, Note_on_c, 0, 83, 45
2, 338542, Note_on_c, 0, 83, 0
2, 338544, Note_on_c, 0, 66, 45
2, 338590, Note_on_c, 0, 66, 0
2, 338592, Note_on_c, 0, 78, 45
2, 338638, Note_on_c, 0, 78, 0
2, 338640, Note_on_c, 0, 68, 45
2, 338686, Note_on_c, 0, 68, 0
2, 338688, Note_on_c, 0, 80, 45
2, 338734, Note_on_c, 0, 80, 0
2, 338736, Note_on_c, 0, 69, 63
2, 338782, Note_on_c, 0, 69, 0
2, 338784, Note_on_c, 0, 81, 45
2, 338830, Note_on_c, 0, 81, 0
2, 338832, Note_on_c, 0, 68, 45
2, 338878, Note_on_c, 0, 68, 0
2, 338880, Note_on_c, 0, 69, 45
2, 338926, Note_on_c, 0, 69, 0
2, 338928, Note_on_c, 0, 81, 45
2, 338974, Note_on_c, 0, 81, 0
2, 338976, Note_on_c, 0, 69, 45
2, 339022, Note_on_c, 0, 69, 0
2, 339024, Note_on_c, 0, 68, 63
2, 339070, Note_on_c, 0, 68, 0
2, 339072, Note_on_c, 0, 69, 45
2, 339118, Note_on_c, 0, 69, 0
2, 339120, Note_on_c, 0, 81, 45
2, 339166, Note_on_c, 0, 81, 0
2, 339168, Note_on_c, 0, 69, 45
2, 339214, Note_on_c, 0, 69, 0
2, 339216, Note_on_c, 0, 68, 45
2, 339262, Note_on_c, 0, 68, 0
2, 339264, Note_on_c, 0, 69, 45
2, 339310, Note_on_c, 0, 69, 0
2, 339312, Note_on_c, 0, 81, 63
2, 339358, Note_on_c, 0, 81, 0
2, 339360, Note_on_c, 0, 69, 45
2, 339406, Note_on_c, 0, 69, 0
2, 339408, Note_on_c, 0, 68, 45
2, 339454, Note_on_c, 0, 68, 0
2, 339456, Note_on_c, 0, 69, 45
2, 339502, Note_on_c, 0, 69, 0
2, 339504, Note_on_c, 0, 81, 45
2, 339550, Note_on_c, 0, 81, 0
2, 339552, Note_on_c, 0, 69, 45
2, 339598, Note_on_c, 0, 69, 0
2, 339600, Note_on_c, 0, 68, 63
2, 339646, Note_on_c, 0, 68, 0
2, 339648, Note_on_c, 0, 69, 45
2, 339694, Note_on_c, 0, 69, 0
2, 339696, Note_on_c, 0, 81, 45
2, 339742, Note_on_c, 0, 81, 0
2, 339744, Note_on_c, 0, 69, 45
2, 339790, Note_on_c, 0, 69, 0
2, 339792, Note_on_c, 0, 68, 45
2, 339838, Note_on_c, 0, 68, 0
2, 339840, Note_on_c, 0, 69, 45
2, 339886, Note_on_c, 0, 69, 0
2, 339888, Note_on_c, 0, 70, 45
2, 339934, Note_on_c, 0, 70, 0
2, 339936, Note_on_c, 0, 69, 45
2, 339982, Note_on_c, 0, 69, 0
2, 339984, Note_on_c, 0, 70, 45
2, 340030, Note_on_c, 0, 70, 0
2, 340032, Note_on_c, 0, 69, 45
2, 340078, Note_on_c, 0, 69, 0
2, 340080, Note_on_c, 0, 70, 45
2, 340126, Note_on_c, 0, 70, 0
2, 340128, Note_on_c, 0, 69, 45
2, 340174, Note_on_c, 0, 69, 0
2, 340176, Note_on_c, 0, 70, 45
2, 340222, Note_on_c, 0, 70, 0
2, 340224, Note_on_c, 0, 69, 45
2, 340270, Note_on_c, 0, 69, 0
2, 340272, Note_on_c, 0, 70, 45
2, 340318, Note_on_c, 0, 70, 0
2, 340320, Note_on_c, 0, 69, 45
2, 340366, Note_on_c, 0, 69, 0
2, 340368, Note_on_c, 0, 70, 45
2, 340414, Note_on_c, 0, 70, 0
2, 340416, Note_on_c, 0, 69, 45
2, 340462, Note_on_c, 0, 69, 0
2, 340464, Note_on_c, 0, 70, 45
2, 340512, Note_on_c, 0, 70, 0
2, 340512, Note_on_c, 0, 69, 45
2, 340560, Note_on_c, 0, 69, 0
2, 340560, Note_on_c, 0, 70, 45
2, 340608, Note_on_c, 0, 70, 0
2, 340608, Note_on_c, 0, 69, 45
2, 340656, Note_on_c, 0, 69, 0
2, 340656, Note_on_c, 0, 73, 46
2, 340704, Note_on_c, 0, 73, 0
2, 340704, Note_on_c, 0, 69, 47
2, 340752, Note_on_c, 0, 69, 0
2, 340752, Note_on_c, 0, 74, 48
2, 340800, Note_on_c, 0, 74, 0
2, 340800, Note_on_c, 0, 69, 49
2, 340848, Note_on_c, 0, 69, 0
2, 340848, Note_on_c, 0, 76, 50
2, 340896, Note_on_c, 0, 76, 0
2, 340896, Note_on_c, 0, 69, 51
2, 340944, Note_on_c, 0, 69, 0
2, 340944, Note_on_c, 0, 77, 52
2, 340992, Note_on_c, 0, 77, 0
2, 340992, Note_on_c, 0, 76, 53
2, 341040, Note_on_c, 0, 76, 0
2, 341040, Note_on_c, 0, 74, 54
2, 341072, Note_on_c, 0, 74, 0
2, 341184, Note_on_c, 0, 69, 58
2, 341232, Note_on_c, 0, 69, 0
2, 341232, Note_on_c, 0, 77, 59
2, 341280, Note_on_c, 0, 77, 0
2, 341280, Note_on_c, 0, 76, 60
2, 341328, Note_on_c, 0, 76, 0
2, 341328, Note_on_c, 0, 74, 61
2, 341360, Note_on_c, 0, 74, 0
2, 341472, Note_on_c, 0, 69, 65
2, 341520, Note_on_c, 0, 69, 0
2, 341520, Note_on_c, 0, 77, 66
2, 341568, Note_on_c, 0, 77, 0
2, 341568, Note_on_c, 0, 76, 67
2, 341616, Note_on_c, 0, 76, 0
2, 341616, Note_on_c, 0, 74, 68
2, 341648, Note_on_c, 0, 74, 0
2, 341760, Note_on_c, 0, 69, 74
2, 341808, Note_on_c, 0, 69, 0
2, 341808, Note_on_c, 0, 77, 76
2, 341856, Note_on_c, 0, 77, 0
2, 341856, Note_on_c, 0, 74, 78
2, 341904, Note_on_c, 0, 74, 0
2, 341904, Note_on_c, 0, 76, 80
2, 341936, Note_on_c, 0, 76, 0
2, 342048, Note_on_c, 0, 69, 86
2, 342096, Note_on_c, 0, 69, 0
2, 342096, Note_on_c, 0, 79, 88
2, 342144, Note_on_c, 0, 79, 0
2, 342144, Note_on_c, 0, 77, 90
2, 342192, Note_on_c, 0, 77, 0
2, 342192, Note_on_c, 0, 76, 92
2, 342224, Note_on_c, 0, 76, 0
2, 342336, Note_on_c, 0, 69, 92
2, 342384, Note_on_c, 0, 69, 0
2, 342384, Note_on_c, 0, 79, 92
2, 342432, Note_on_c, 0, 79, 0
2, 342432, Note_on_c, 0, 77, 92
2, 342480, Note_on_c, 0, 77, 0
2, 342480, Note_on_c, 0, 76, 92
2, 342512, Note_on_c, 0, 76, 0
2, 342624, Note_on_c, 0, 69, 92
2, 342672, Note_on_c, 0, 69, 0
2, 342672, Note_on_c, 0, 79, 92
2, 342720, Note_on_c, 0, 79, 0
2, 342720, Note_on_c, 0, 77, 92
2, 342768, Note_on_c, 0, 77, 0
2, 342768, Note_on_c, 0, 76, 92
2, 342800, Note_on_c, 0, 76, 0
2, 342912, Note_on_c, 0, 69, 92
2, 342960, Note_on_c, 0, 69, 0
2, 342960, Note_on_c, 0, 79, 92
2, 343008, Note_on_c, 0, 79, 0
2, 343008, Note_on_c, 0, 76, 92
2, 343056, Note_on_c, 0, 76, 0
2, 343056, Note_on_c, 0, 77, 92
2, 343088, Note_on_c, 0, 77, 0
2, 343200, Note_on_c, 0, 74, 92
2, 343248, Note_on_c, 0, 74, 0
2, 343248, Note_on_c, 0, 81, 92
2, 343296, Note_on_c, 0, 81, 0
2, 343296, Note_on_c, 0, 86, 92
2, 343344, Note_on_c, 0, 86, 0
2, 343344, Note_on_c, 0, 82, 92
2, 343376, Note_on_c, 0, 82, 0
2, 343488, Note_on_c, 0, 70, 90
2, 343536, Note_on_c, 0, 70, 0
2, 343536, Note_on_c, 0, 74, 87
2, 343584, Note_on_c, 0, 74, 0
2, 343584, Note_on_c, 0, 82, 84
2, 343632, Note_on_c, 0, 82, 0
2, 343632, Note_on_c, 0, 79, 81
2, 343664, Note_on_c, 0, 79, 0
2, 343776, Note_on_c, 0, 67, 75
2, 343824, Note_on_c, 0, 67, 0
2, 343824, Note_on_c, 0, 70, 75
2, 343872, Note_on_c, 0, 70, 0
2, 343872, Note_on_c, 0, 79, 75
2, 343920, Note_on_c, 0, 79, 0
2, 343920, Note_on_c, 0, 76, 75
2, 343952, Note_on_c, 0, 76, 0
2, 344064, Note_on_c, 0, 64, 72
2, 344112, Note_on_c, 0, 64, 0
2, 344112, Note_on_c, 0, 69, 69
2, 344160, Note_on_c, 0, 69, 0
2, 344160, Note_on_c, 0, 76, 66
2, 344208, Note_on_c, 0, 76, 0
2, 344208, Note_on_c, 0, 77, 63
2, 344240, Note_on_c, 0, 77, 0
2, 344352, Note_on_c, 0, 65, 54
2, 344400, Note_on_c, 0, 65, 0
2, 344400, Note_on_c, 0, 69, 51
2, 344448, Note_on_c, 0, 69, 0
2, 344448, Note_on_c, 0, 77, 48
2, 344496, Note_on_c, 0, 77, 0
2, 344496, Note_on_c, 0, 74, 45
2, 344528, Note_on_c, 0, 74, 0
2, 344640, Note_on_c, 0, 62, 45
2, 344688, Note_on_c, 0, 62, 0
2, 344688, Note_on_c, 0, 69, 50
2, 344736, Note_on_c, 0, 69, 0
2, 344736, Note_on_c, 0, 74, 55
2, 344784, Note_on_c, 0, 74, 0
2, 344784, Note_on_c, 0, 73, 60
2, 344878, Note_on_c, 0, 73, 0
2, 344928, Note_on_c, 0, 61, 75
2, 344976, Note_on_c, 0, 61, 0
2, 344976, Note_on_c, 0, 69, 80
2, 345024, Note_on_c, 0, 69, 0
2, 345024, Note_on_c, 0, 73, 86
2, 345072, Note_on_c, 0, 73, 0
2, 345072, Note_on_c, 0, 74, 92
2, 345104, Note_on_c, 0, 74, 0
2, 345264, Note_on_c, 0, 65, 92
2, 345310, Note_on_c, 0, 65, 0
2, 345312, Note_on_c, 0, 69, 92
2, 345358, Note_on_c, 0, 69, 0
2, 345360, Note_on_c, 0, 74, 92
2, 345406, Note_on_c, 0, 74, 0
2, 345408, Note_on_c, 0, 77, 92
2, 345454, Note_on_c, 0, 77, 0
2, 345456, Note_on_c, 0, 81, 92
2, 345502, Note_on_c, 0, 81, 0
2, 345504, Note_on_c, 0, 77, 92
2, 345550, Note_on_c, 0, 77, 0
2, 345552, Note_on_c, 0, 86, 92
2, 345598, Note_on_c, 0, 86, 0
2, 345600, Note_on_c, 0, 81, 92
2, 345646, Note_on_c, 0, 81, 0
2, 345648, Note_on_c, 0, 82, 45
2, 345680, Note_on_c, 0, 82, 0
2, 345792, Note_on_c, 0, 70, 45
2, 345840, Note_on_c, 0, 70, 0
2, 345840, Note_on_c, 0, 74, 55
2, 345888, Note_on_c, 0, 74, 0
2, 345888, Note_on_c, 0, 82, 65
2, 345936, Note_on_c, 0, 82, 0
2, 345936, Note_on_c, 0, 79, 75
2, 345968, Note_on_c, 0, 79, 0
2, 346080, Note_on_c, 0, 67, 75
2, 346128, Note_on_c, 0, 67, 0
2, 346128, Note_on_c, 0, 70, 73
2, 346176, Note_on_c, 0, 70, 0
2, 346176, Note_on_c, 0, 79, 71
2, 346224, Note_on_c, 0, 79, 0
2, 346224, Note_on_c, 0, 76, 69
2, 346256, Note_on_c, 0, 76, 0
2, 346368, Note_on_c, 0, 64, 63
2, 346416, Note_on_c, 0, 64, 0
2, 346416, Note_on_c, 0, 69, 61
2, 346464, Note_on_c, 0, 69, 0
2, 346464, Note_on_c, 0, 76, 59
2, 346512, Note_on_c, 0, 76, 0
2, 346512, Note_on_c, 0, 77, 57
2, 346544, Note_on_c, 0, 77, 0
2, 346656, Note_on_c, 0, 65, 51
2, 346704, Note_on_c, 0, 65, 0
2, 346704, Note_on_c, 0, 69, 49
2, 346752, Note_on_c, 0, 69, 0
2, 346752, Note_on_c, 0, 77, 47
2, 346800, Note_on_c, 0, 77, 0
2, 346800, Note_on_c, 0, 74, 45
2, 346832, Note_on_c, 0, 74, 0
2, 346944, Note_on_c, 0, 62, 45
2, 346992, Note_on_c, 0, 62, 0
2, 346992, Note_on_c, 0, 69, 50
2, 347040, Note_on_c, 0, 69, 0
2, 347040, Note_on_c, 0, 74, 55
2, 347088, Note_on_c, 0, 74, 0
2, 347088, Note_on_c, 0, 73, 60
2, 347120, Note_on_c, 0, 73, 0
2, 347232, Note_on_c, 0, 61, 75
2, 347278, Note_on_c, 0, 61, 0
2, 347280, Note_on_c, 0, 69, 80
2, 347326, Note_on_c, 0, 69, 0
2, 347328, Note_on_c, 0, 73, 86
2, 347374, Note_on_c, 0, 73, 0
2, 347376, Note_on_c, 0, 74, 92
2, 347408, Note_on_c, 0, 74, 0
2, 347448, Note_on_c, 0, 69, 92
2, 347470, Note_on_c, 0, 69, 0
2, 347472, Note_on_c, 0, 81, 127
2, 347664, Note_on_c, 0, 81, 0
2, 347664, Note_on_c, 0, 80, 92
2, 347712, Note_on_c, 0, 80, 0
2, 347712, Note_on_c, 0, 79, 92
2, 347760, Note_on_c, 0, 79, 0
2, 347760, Note_on_c, 0, 78, 92
2, 347808, Note_on_c, 0, 78, 0
2, 347808, Note_on_c, 0, 77, 92
2, 347856, Note_on_c, 0, 77, 0
2, 347856, Note_on_c, 0, 76, 92
2, 347904, Note_on_c, 0, 76, 0
2, 347904, Note_on_c, 0, 75, 92
2, 347952, Note_on_c, 0, 75, 0
2, 347952, Note_on_c, 0, 74, 45
2, 347984, Note_on_c, 0, 74, 0
2, 348096, Note_on_c, 0, 62, 45
2, 348144, Note_on_c, 0, 62, 0
2, 348144, Note_on_c, 0, 69, 50
2, 348192, Note_on_c, 0, 69, 0
2, 348192, Note_on_c, 0, 74, 55
2, 348240, Note_on_c, 0, 74, 0
2, 348240, Note_on_c, 0, 73, 60
2, 348272, Note_on_c, 0, 73, 0
2, 348384, Note_on_c, 0, 61, 75
2, 348430, Note_on_c, 0, 61, 0
2, 348432, Note_on_c, 0, 69, 80
2, 348478, Note_on_c, 0, 69, 0
2, 348480, Note_on_c, 0, 73, 86
2, 348526, Note_on_c, 0, 73, 0
2, 348528, Note_on_c, 0, 74, 92
2, 348560, Note_on_c, 0, 74, 0
2, 348600, Note_on_c, 0, 74, 92
2, 348622, Note_on_c, 0, 74, 0
2, 348624, Note_on_c, 0, 86, 127
2, 348816, Note_on_c, 0, 86, 0
2, 348816, Note_on_c, 0, 85, 92
2, 348864, Note_on_c, 0, 85, 0
2, 348864, Note_on_c, 0, 84, 92
2, 348912, Note_on_c, 0, 84, 0
2, 348912, Note_on_c, 0, 83, 92
2, 348960, Note_on_c, 0, 83, 0
2, 348960, Note_on_c, 0, 82, 92
2, 349008, Note_on_c, 0, 82, 0
2, 349008, Note_on_c, 0, 81, 92
2, 349056, Note_on_c, 0, 81, 0
2, 349056, Note_on_c, 0, 80, 92
2, 349104, Note_on_c, 0, 80, 0
2, 349104, Note_on_c, 0, 81, 45
2, 349136, Note_on_c, 0, 81, 0
2, 349248, Note_on_c, 0, 62, 45
2, 349294, Note_on_c, 0, 62, 0
2, 349296, Note_on_c, 0, 69, 52
2, 349342, Note_on_c, 0, 69, 0
2, 349344, Note_on_c, 0, 74, 60
2, 349390, Note_on_c, 0, 74, 0
2, 349392, Note_on_c, 0, 73, 68
2, 349424, Note_on_c, 0, 73, 0
2, 349536, Note_on_c, 0, 73, 92
2, 349584, Note_on_c, 0, 73, 0
2, 349584, Note_on_c, 0, 81, 92
2, 349632, Note_on_c, 0, 81, 0
2, 349632, Note_on_c, 0, 85, 92
2, 349680, Note_on_c, 0, 85, 0
2, 349680, Note_on_c, 0, 86, 92
2, 349712, Note_on_c, 0, 86, 0
2, 349728, Note_on_c, 0, 50, 92
2, 349776, Note_on_c, 0, 50, 0
2, 349776, Note_on_c, 0, 53, 92
2, 349824, Note_on_c, 0, 53, 0
2, 349824, Note_on_c, 0, 57, 92
2, 349872, Note_on_c, 0, 57, 0
2, 349872, Note_on_c, 0, 62, 92
2, 349904, Note_on_c, 0, 62, 0
2, 350016, Note_on_c, 0, 50, 92
2, 350064, Note_on_c, 0, 50, 0
2, 350064, Note_on_c, 0, 53, 92
2, 350112, Note_on_c, 0, 53, 0
2, 350112, Note_on_c, 0, 57, 92
2, 350160, Note_on_c, 0, 57, 0
2, 350160, Note_on_c, 0, 62, 92
2, 350192, Note_on_c, 0, 62, 0
2, 350304, Note_on_c, 0, 50, 92
2, 350352, Note_on_c, 0, 50, 0
2, 350352, Note_on_c, 0, 53, 92
2, 350400, Note_on_c, 0, 53, 0
2, 350400, Note_on_c, 0, 57, 92
2, 350448, Note_on_c, 0, 57, 0
2, 350448, Note_on_c, 0, 62, 92
2, 350480, Note_on_c, 0, 62, 0
2, 350544, Note_on_c, 0, 50, 127
2, 350590, Note_on_c, 0, 50, 0
2, 350592, Note_on_c, 0, 53, 92
2, 350638, Note_on_c, 0, 53, 0
2, 350640, Note_on_c, 0, 59, 92
2, 350686, Note_on_c, 0, 59, 0
2, 350688, Note_on_c, 0, 62, 92
2, 350734, Note_on_c, 0, 62, 0
2, 350736, Note_on_c, 0, 65, 92
2, 350782, Note_on_c, 0, 65, 0
2, 350784, Note_on_c, 0, 71, 92
2, 350830, Note_on_c, 0, 71, 0
2, 350832, Note_on_c, 0, 60, 92
2, 350878, Note_on_c, 0, 60, 0
2, 350880, Note_on_c, 0, 72, 92
2, 350926, Note_on_c, 0, 72, 0
2, 350928, Note_on_c, 0, 64, 92
2, 350974, Note_on_c, 0, 64, 0
2, 350976, Note_on_c, 0, 76, 92
2, 351022, Note_on_c, 0, 76, 0
2, 351024, Note_on_c, 0, 67, 92
2, 351070, Note_on_c, 0, 67, 0
2, 351072, Note_on_c, 0, 79, 92
2, 351118, Note_on_c, 0, 79, 0
2, 351120, Note_on_c, 0, 72, 92
2, 351166, Note_on_c, 0, 72, 0
2, 351168, Note_on_c, 0, 84, 92
2, 351214, Note_on_c, 0, 84, 0
2, 351216, Note_on_c, 0, 76, 92
2, 351262, Note_on_c, 0, 76, 0
2, 351264, Note_on_c, 0, 88, 92
2, 351310, Note_on_c, 0, 88, 0
2, 351312, Note_on_c, 0, 72, 92
2, 351358, Note_on_c, 0, 72, 0
2, 351360, Note_on_c, 0, 84, 92
2, 351406, Note_on_c, 0, 84, 0
2, 351408, Note_on_c, 0, 67, 92
2, 351454, Note_on_c, 0, 67, 0
2, 351456, Note_on_c, 0, 79, 92
2, 351502, Note_on_c, 0, 79, 0
2, 351504, Note_on_c, 0, 64, 92
2, 351550, Note_on_c, 0, 64, 0
2, 351552, Note_on_c, 0, 76, 92
2, 351598, Note_on_c, 0, 76, 0
2, 351600, Note_on_c, 0, 67, 92
2, 351646, Note_on_c, 0, 67, 0
2, 351648, Note_on_c, 0, 79, 92
2, 351694, Note_on_c, 0, 79, 0
2, 351696, Note_on_c, 0, 64, 92
2, 351742, Note_on_c, 0, 64, 0
2, 351744, Note_on_c, 0, 76, 92
2, 351790, Note_on_c, 0, 76, 0
2, 351792, Note_on_c, 0, 60, 92
2, 351838, Note_on_c, 0, 60, 0
2, 351840, Note_on_c, 0, 72, 92
2, 351886, Note_on_c, 0, 72, 0
2, 352032, Note_on_c, 0, 48, 92
2, 352080, Note_on_c, 0, 48, 0
2, 352080, Note_on_c, 0, 52, 92
2, 352128, Note_on_c, 0, 52, 0
2, 352128, Note_on_c, 0, 55, 92
2, 352176, Note_on_c, 0, 55, 0
2, 352176, Note_on_c, 0, 60, 92
2, 352208, Note_on_c, 0, 60, 0
2, 352320, Note_on_c, 0, 48, 92
2, 352368, Note_on_c, 0, 48, 0
2, 352368, Note_on_c, 0, 52, 92
2, 352416, Note_on_c, 0, 52, 0
2, 352416, Note_on_c, 0, 55, 92
2, 352464, Note_on_c, 0, 55, 0
2, 352464, Note_on_c, 0, 60, 92
2, 352496, Note_on_c, 0, 60, 0
2, 352608, Note_on_c, 0, 48, 92
2, 352656, Note_on_c, 0, 48, 0
2, 352656, Note_on_c, 0, 52, 92
2, 352704, Note_on_c, 0, 52, 0
2, 352704, Note_on_c, 0, 55, 92
2, 352752, Note_on_c, 0, 55, 0
2, 352752, Note_on_c, 0, 60, 92
2, 352784, Note_on_c, 0, 60, 0
2, 352848, Note_on_c, 0, 50, 127
2, 352848, Note_on_c, 0, 57, 127
2, 352894, Note_on_c, 0, 50, 0
2, 352894, Note_on_c, 0, 57, 0
2, 352896, Note_on_c, 0, 62, 92
2, 352942, Note_on_c, 0, 62, 0
2, 352944, Note_on_c, 0, 50, 92
2, 352944, Note_on_c, 0, 57, 92
2, 352990, Note_on_c, 0, 50, 0
2, 352990, Note_on_c, 0, 57, 0
2, 352992, Note_on_c, 0, 62, 92
2, 353038, Note_on_c, 0, 62, 0
2, 353040, Note_on_c, 0, 51, 92
2, 353040, Note_on_c, 0, 57, 92
2, 353086, Note_on_c, 0, 51, 0
2, 353086, Note_on_c, 0, 57, 0
2, 353088, Note_on_c, 0, 63, 92
2, 353134, Note_on_c, 0, 63, 0
2, 353136, Note_on_c, 0, 56, 92
2, 353136, Note_on_c, 0, 64, 92
2, 353230, Note_on_c, 0, 56, 0
2, 353230, Note_on_c, 0, 64, 0
2, 353232, Note_on_c, 0, 77, 92
2, 353256, Note_on_c, 0, 77, 0
2, 353256, Note_on_c, 0, 80, 92
2, 353280, Note_on_c, 0, 80, 0
2, 353280, Note_on_c, 0, 77, 92
2, 353328, Note_on_c, 0, 77, 0
2, 353328, Note_on_c, 0, 76, 92
2, 353422, Note_on_c, 0, 76, 0
2, 353424, Note_on_c, 0, 77, 92
2, 353448, Note_on_c, 0, 77, 0
2, 353448, Note_on_c, 0, 79, 92
2, 353472, Note_on_c, 0, 79, 0
2, 353472, Note_on_c, 0, 77, 92
2, 353520, Note_on_c, 0, 77, 0
2, 353520, Note_on_c, 0, 76, 92
2, 353614, Note_on_c, 0, 76, 0
2, 353616, Note_on_c, 0, 77, 92
2, 353640, Note_on_c, 0, 77, 0
2, 353640, Note_on_c, 0, 79, 92
2, 353664, Note_on_c, 0, 79, 0
2, 353664, Note_on_c, 0, 77, 92
2, 353712, Note_on_c, 0, 77, 0
2, 353712, Note_on_c, 0, 76, 92
2, 353806, Note_on_c, 0, 76, 0
2, 353808, Note_on_c, 0, 77, 92
2, 353832, Note_on_c, 0, 77, 0
2, 353832, Note_on_c, 0, 79, 92
2, 353856, Note_on_c, 0, 79, 0
2, 353856, Note_on_c, 0, 77, 92
2, 353904, Note_on_c, 0, 77, 0
2, 353904, Note_on_c, 0, 76, 92
2, 353998, Note_on_c, 0, 76, 0
2, 354000, Note_on_c, 0, 77, 92
2, 354024, Note_on_c, 0, 77, 0
2, 354024, Note_on_c, 0, 79, 92
2, 354048, Note_on_c, 0, 79, 0
2, 354048, Note_on_c, 0, 77, 92
2, 354096, Note_on_c, 0, 77, 0
2, 354096, Note_on_c, 0, 76, 92
2, 354190, Note_on_c, 0, 76, 0
2, 354192, Note_on_c, 0, 77, 92
2, 354216, Note_on_c, 0, 77, 0
2, 354216, Note_on_c, 0, 79, 92
2, 354240, Note_on_c, 0, 79, 0
2, 354240, Note_on_c, 0, 77, 92
2, 354288, Note_on_c, 0, 77, 0
2, 354288, Note_on_c, 0, 76, 92
2, 354382, Note_on_c, 0, 76, 0
2, 354384, Note_on_c, 0, 77, 127
2, 354670, Note_on_c, 0, 77, 0
2, 354672, Note_on_c, 0, 76, 92
2, 354704, Note_on_c, 0, 76, 0
2, 354768, Note_on_c, 0, 74, 89
2, 354800, Note_on_c, 0, 74, 0
2, 354864, Note_on_c, 0, 72, 86
2, 354888, Note_on_c, 0, 72, 0
2, 354888, Note_on_c, 0, 74, 86
2, 354912, Note_on_c, 0, 74, 0
2, 354912, Note_on_c, 0, 72, 85
2, 354960, Note_on_c, 0, 72, 0
2, 354960, Note_on_c, 0, 71, 83
2, 355054, Note_on_c, 0, 71, 0
2, 355056, Note_on_c, 0, 69, 79
2, 355088, Note_on_c, 0, 69, 0
2, 355152, Note_on_c, 0, 68, 75
2, 355184, Note_on_c, 0, 68, 0
2, 355248, Note_on_c, 0, 69, 75
2, 355280, Note_on_c, 0, 69, 0
2, 355344, Note_on_c, 0, 71, 75
2, 355376, Note_on_c, 0, 71, 0
2, 355440, Note_on_c, 0, 69, 75
2, 355472, Note_on_c, 0, 69, 0
2, 355536, Note_on_c, 0, 77, 92
2, 355582, Note_on_c, 0, 77, 0
2, 355584, Note_on_c, 0, 89, 92
2, 355630, Note_on_c, 0, 89, 0
2, 355632, Note_on_c, 0, 76, 92
2, 355678, Note_on_c, 0, 76, 0
2, 355680, Note_on_c, 0, 88, 92
2, 355726, Note_on_c, 0, 88, 0
2, 355728, Note_on_c, 0, 77, 92
2, 355774, Note_on_c, 0, 77, 0
2, 355776, Note_on_c, 0, 89, 92
2, 355822, Note_on_c, 0, 89, 0
2, 355824, Note_on_c, 0, 76, 92
2, 355870, Note_on_c, 0, 76, 0
2, 355872, Note_on_c, 0, 88, 92
2, 355918, Note_on_c, 0, 88, 0
2, 355920, Note_on_c, 0, 77, 92
2, 355966, Note_on_c, 0, 77, 0
2, 355968, Note_on_c, 0, 89, 92
2, 356014, Note_on_c, 0, 89, 0
2, 356016, Note_on_c, 0, 76, 92
2, 356062, Note_on_c, 0, 76, 0
2, 356064, Note_on_c, 0, 88, 92
2, 356110, Note_on_c, 0, 88, 0
2, 356112, Note_on_c, 0, 77, 92
2, 356158, Note_on_c, 0, 77, 0
2, 356160, Note_on_c, 0, 89, 92
2, 356206, Note_on_c, 0, 89, 0
2, 356208, Note_on_c, 0, 76, 92
2, 356254, Note_on_c, 0, 76, 0
2, 356256, Note_on_c, 0, 88, 92
2, 356302, Note_on_c, 0, 88, 0
2, 356304, Note_on_c, 0, 77, 92
2, 356350, Note_on_c, 0, 77, 0
2, 356352, Note_on_c, 0, 89, 92
2, 356398, Note_on_c, 0, 89, 0
2, 356400, Note_on_c, 0, 76, 92
2, 356446, Note_on_c, 0, 76, 0
2, 356448, Note_on_c, 0, 88, 92
2, 356480, Note_on_c, 0, 88, 0
2, 356496, Note_on_c, 0, 77, 92
2, 356542, Note_on_c, 0, 77, 0
2, 356544, Note_on_c, 0, 89, 92
2, 356590, Note_on_c, 0, 89, 0
2, 356592, Note_on_c, 0, 76, 92
2, 356592, Note_on_c, 0, 88, 92
2, 356624, Note_on_c, 0, 76, 0
2, 356624, Note_on_c, 0, 88, 0
2, 356688, Note_on_c, 0, 77, 127
2, 356688, Note_on_c, 0, 89, 127
2, 356974, Note_on_c, 0, 77, 0
2, 356974, Note_on_c, 0, 89, 0
2, 356976, Note_on_c, 0, 76, 77
2, 356976, Note_on_c, 0, 88, 77
2, 357008, Note_on_c, 0, 76, 0
2, 357008, Note_on_c, 0, 88, 0
2, 357072, Note_on_c, 0, 74, 61
2, 357072, Note_on_c, 0, 86, 61
2, 357104, Note_on_c, 0, 74, 0
2, 357104, Note_on_c, 0, 86, 0
2, 357168, Note_on_c, 0, 72, 45
2, 357168, Note_on_c, 0, 84, 45
2, 357200, Note_on_c, 0, 72, 0
2, 357200, Note_on_c, 0, 84, 0
2, 357264, Note_on_c, 0, 71, 45
2, 357264, Note_on_c, 0, 83, 45
2, 357296, Note_on_c, 0, 71, 0
2, 357296, Note_on_c, 0, 83, 0
2, 357360, Note_on_c, 0, 69, 45
2, 357360, Note_on_c, 0, 81, 45
2, 357392, Note_on_c, 0, 69, 0
2, 357392, Note_on_c, 0, 81, 0
2, 357456, Note_on_c, 0, 68, 45
2, 357456, Note_on_c, 0, 80, 45
2, 357488, Note_on_c, 0, 68, 0
2, 357488, Note_on_c, 0, 80, 0
2, 357552, Note_on_c, 0, 69, 45
2, 357552, Note_on_c, 0, 81, 45
2, 357584, Note_on_c, 0, 69, 0
2, 357584, Note_on_c, 0, 81, 0
2, 357648, Note_on_c, 0, 71, 45
2, 357648, Note_on_c, 0, 83, 45
2, 357680, Note_on_c, 0, 71, 0
2, 357680, Note_on_c, 0, 83, 0
2, 357744, Note_on_c, 0, 69, 45
2, 357744, Note_on_c, 0, 81, 45
2, 357840, Note_on_c, 0, 69, 0
2, 357840, Note_on_c, 0, 81, 0
2, 357840, Note_on_c, 0, 77, 45
2, 357840, Note_on_c, 0, 89, 45
2, 357934, Note_on_c, 0, 77, 0
2, 357934, Note_on_c, 0, 89, 0
2, 357936, Note_on_c, 0, 77, 48
2, 357936, Note_on_c, 0, 89, 48
2, 357968, Note_on_c, 0, 77, 0
2, 357968, Note_on_c, 0, 89, 0
2, 358032, Note_on_c, 0, 77, 52
2, 358032, Note_on_c, 0, 89, 52
2, 358064, Note_on_c, 0, 77, 0
2, 358064, Note_on_c, 0, 89, 0
2, 358128, Note_on_c, 0, 76, 56
2, 358128, Note_on_c, 0, 88, 56
2, 358160, Note_on_c, 0, 76, 0
2, 358160, Note_on_c, 0, 88, 0
2, 358224, Note_on_c, 0, 74, 60
2, 358224, Note_on_c, 0, 86, 60
2, 358256, Note_on_c, 0, 74, 0
2, 358256, Note_on_c, 0, 86, 0
2, 358320, Note_on_c, 0, 72, 64
2, 358320, Note_on_c, 0, 84, 64
2, 358352, Note_on_c, 0, 72, 0
2, 358352, Note_on_c, 0, 84, 0
2, 358416, Note_on_c, 0, 71, 68
2, 358416, Note_on_c, 0, 83, 68
2, 358448, Note_on_c, 0, 71, 0
2, 358448, Note_on_c, 0, 83, 0
2, 358512, Note_on_c, 0, 69, 72
2, 358512, Note_on_c, 0, 81, 72
2, 358544, Note_on_c, 0, 69, 0
2, 358544, Note_on_c, 0, 81, 0
2, 358608, Note_on_c, 0, 68, 76
2, 358608, Note_on_c, 0, 80, 76
2, 358640, Note_on_c, 0, 68, 0
2, 358640, Note_on_c, 0, 80, 0
2, 358704, Note_on_c, 0, 69, 80
2, 358704, Note_on_c, 0, 81, 80
2, 358736, Note_on_c, 0, 69, 0
2, 358736, Note_on_c, 0, 81, 0
2, 358800, Note_on_c, 0, 71, 84
2, 358800, Note_on_c, 0, 83, 84
2, 358832, Note_on_c, 0, 71, 0
2, 358832, Note_on_c, 0, 83, 0
2, 358896, Note_on_c, 0, 69, 88
2, 358896, Note_on_c, 0, 81, 88
2, 358992, Note_on_c, 0, 69, 0
2, 358992, Note_on_c, 0, 81, 0
2, 358992, Note_on_c, 0, 77, 92
2, 358992, Note_on_c, 0, 89, 92
2, 359086, Note_on_c, 0, 77, 0
2, 359086, Note_on_c, 0, 89, 0
2, 359088, Note_on_c, 0, 77, 92
2, 359088, Note_on_c, 0, 89, 92
2, 359120, Note_on_c, 0, 77, 0
2, 359120, Note_on_c, 0, 89, 0
2, 359184, Note_on_c, 0, 77, 92
2, 359184, Note_on_c, 0, 89, 92
2, 359216, Note_on_c, 0, 77, 0
2, 359216, Note_on_c, 0, 89, 0
2, 359280, Note_on_c, 0, 76, 92
2, 359280, Note_on_c, 0, 88, 92
2, 359312, Note_on_c, 0, 76, 0
2, 359312, Note_on_c, 0, 88, 0
2, 359376, Note_on_c, 0, 74, 92
2, 359376, Note_on_c, 0, 86, 92
2, 359408, Note_on_c, 0, 74, 0
2, 359408, Note_on_c, 0, 86, 0
2, 359472, Note_on_c, 0, 72, 92
2, 359472, Note_on_c, 0, 84, 92
2, 359504, Note_on_c, 0, 72, 0
2, 359504, Note_on_c, 0, 84, 0
2, 359568, Note_on_c, 0, 71, 92
2, 359568, Note_on_c, 0, 83, 92
2, 359600, Note_on_c, 0, 71, 0
2, 359600, Note_on_c, 0, 83, 0
2, 359664, Note_on_c, 0, 69, 92
2, 359664, Note_on_c, 0, 81, 92
2, 359696, Note_on_c, 0, 69, 0
2, 359696, Note_on_c, 0, 81, 0
2, 359760, Note_on_c, 0, 68, 92
2, 359760, Note_on_c, 0, 80, 92
2, 359792, Note_on_c, 0, 68, 0
2, 359792, Note_on_c, 0, 80, 0
2, 359856, Note_on_c, 0, 69, 92
2, 359856, Note_on_c, 0, 81, 92
2, 359888, Note_on_c, 0, 69, 0
2, 359888, Note_on_c, 0, 81, 0
2, 359952, Note_on_c, 0, 71, 92
2, 359952, Note_on_c, 0, 83, 92
2, 359984, Note_on_c, 0, 71, 0
2, 359984, Note_on_c, 0, 83, 0
2, 360048, Note_on_c, 0, 69, 45
2, 360048, Note_on_c, 0, 81, 45
2, 360142, Note_on_c, 0, 69, 0
2, 360142, Note_on_c, 0, 81, 0
2, 360240, Note_on_c, 0, 69, 45
2, 360288, Note_on_c, 0, 69, 0
2, 360288, Note_on_c, 0, 81, 45
2, 360336, Note_on_c, 0, 81, 0
2, 360336, Note_on_c, 0, 72, 45
2, 360368, Note_on_c, 0, 72, 0
2, 360528, Note_on_c, 0, 72, 45
2, 360576, Note_on_c, 0, 72, 0
2, 360576, Note_on_c, 0, 84, 45
2, 360624, Note_on_c, 0, 84, 0
2, 360624, Note_on_c, 0, 76, 45
2, 360656, Note_on_c, 0, 76, 0
2, 360816, Note_on_c, 0, 76, 45
2, 360864, Note_on_c, 0, 76, 0
2, 360864, Note_on_c, 0, 88, 45
2, 360912, Note_on_c, 0, 88, 0
2, 360912, Note_on_c, 0, 72, 45
2, 360960, Note_on_c, 0, 72, 0
2, 361104, Note_on_c, 0, 72, 45
2, 361152, Note_on_c, 0, 72, 0
2, 361152, Note_on_c, 0, 84, 45
2, 361200, Note_on_c, 0, 84, 0
2, 361200, Note_on_c, 0, 69, 45
2, 361296, Note_on_c, 0, 81, 45
2, 361584, Note_on_c, 0, 69, 0
2, 361584, Note_on_c, 0, 81, 0
2, 361584, Note_on_c, 0, 71, 45
2, 361584, Note_on_c, 0, 83, 45
2, 361678, Note_on_c, 0, 71, 0
2, 361678, Note_on_c, 0, 83, 0
2, 361680, Note_on_c, 0, 68, 45
2, 361680, Note_on_c, 0, 80, 45
2, 361712, Note_on_c, 0, 68, 0
2, 361712, Note_on_c, 0, 80, 0
2, 361776, Note_on_c, 0, 69, 45
2, 361776, Note_on_c, 0, 81, 45
2, 361870, Note_on_c, 0, 69, 0
2, 361870, Note_on_c, 0, 81, 0
2, 361920, Note_on_c, 0, 69, 45
2, 361968, Note_on_c, 0, 69, 0
2, 361968, Note_on_c, 0, 81, 45
2, 362016, Note_on_c, 0, 81, 0
2, 362016, Note_on_c, 0, 69, 45
2, 362064, Note_on_c, 0, 69, 0
2, 362064, Note_on_c, 0, 72, 45
2, 362096, Note_on_c, 0, 72, 0
2, 362208, Note_on_c, 0, 72, 45
2, 362256, Note_on_c, 0, 72, 0
2, 362256, Note_on_c, 0, 84, 45
2, 362304, Note_on_c, 0, 84, 0
2, 362304, Note_on_c, 0, 72, 45
2, 362352, Note_on_c, 0, 72, 0
2, 362352, Note_on_c, 0, 76, 45
2, 362384, Note_on_c, 0, 76, 0
2, 362496, Note_on_c, 0, 76, 45
2, 362544, Note_on_c, 0, 76, 0
2, 362544, Note_on_c, 0, 88, 45
2, 362592, Note_on_c, 0, 88, 0
2, 362592, Note_on_c, 0, 76, 45
2, 362640, Note_on_c, 0, 76, 0
2, 362640, Note_on_c, 0, 72, 45
2, 362672, Note_on_c, 0, 72, 0
2, 362784, Note_on_c, 0, 72, 45
2, 362832, Note_on_c, 0, 72, 0
2, 362832, Note_on_c, 0, 84, 45
2, 362880, Note_on_c, 0, 84, 0
2, 362880, Note_on_c, 0, 72, 45
2, 362928, Note_on_c, 0, 72, 0
2, 362928, Note_on_c, 0, 69, 45
2, 363024, Note_on_c, 0, 81, 45
2, 363312, Note_on_c, 0, 69, 0
2, 363312, Note_on_c, 0, 81, 0
2, 363312, Note_on_c, 0, 71, 45
2, 363312, Note_on_c, 0, 83, 45
2, 363406, Note_on_c, 0, 71, 0
2, 363406, Note_on_c, 0, 83, 0
2, 363408, Note_on_c, 0, 68, 45
2, 363408, Note_on_c, 0, 80, 45
2, 363440, Note_on_c, 0, 68, 0
2, 363440, Note_on_c, 0, 80, 0
2, 363504, Note_on_c, 0, 69, 45
2, 363504, Note_on_c, 0, 81, 45
2, 363600, Note_on_c, 0, 69, 0
2, 363600, Note_on_c, 0, 81, 0
2, 363600, Note_on_c, 0, 71, 55
2, 363600, Note_on_c, 0, 83, 55
2, 363696, Note_on_c, 0, 71, 0
2, 363696, Note_on_c, 0, 83, 0
2, 363696, Note_on_c, 0, 73, 65
2, 363696, Note_on_c, 0, 85, 65
2, 363792, Note_on_c, 0, 73, 0
2, 363792, Note_on_c, 0, 85, 0
2, 363792, Note_on_c, 0, 74, 75
2, 363792, Note_on_c, 0, 86, 75
2, 363888, Note_on_c, 0, 74, 0
2, 363888, Note_on_c, 0, 86, 0
2, 363888, Note_on_c, 0, 72, 70
2, 363888, Note_on_c, 0, 84, 70
2, 363984, Note_on_c, 0, 72, 0
2, 363984, Note_on_c, 0, 84, 0
2, 363984, Note_on_c, 0, 71, 65
2, 363984, Note_on_c, 0, 83, 65
2, 364080, Note_on_c, 0, 71, 0
2, 364080, Note_on_c, 0, 83, 0
2, 364080, Note_on_c, 0, 72, 60
2, 364080, Note_on_c, 0, 84, 60
2, 364176, Note_on_c, 0, 72, 0
2, 364176, Note_on_c, 0, 84, 0
2, 364176, Note_on_c, 0, 68, 55
2, 364176, Note_on_c, 0, 80, 55
2, 364272, Note_on_c, 0, 68, 0
2, 364272, Note_on_c, 0, 80, 0
2, 364272, Note_on_c, 0, 69, 50
2, 364272, Note_on_c, 0, 81, 50
2, 364366, Note_on_c, 0, 69, 0
2, 364366, Note_on_c, 0, 81, 0
2, 364368, Note_on_c, 0, 71, 45
2, 364368, Note_on_c, 0, 83, 45
2, 364464, Note_on_c, 0, 71, 0
2, 364464, Note_on_c, 0, 83, 0
2, 364464, Note_on_c, 0, 66, 45
2, 364464, Note_on_c, 0, 78, 45
2, 364560, Note_on_c, 0, 66, 0
2, 364560, Note_on_c, 0, 78, 0
2, 364560, Note_on_c, 0, 68, 45
2, 364560, Note_on_c, 0, 80, 45
2, 364654, Note_on_c, 0, 68, 0
2, 364654, Note_on_c, 0, 80, 0
2, 364656, Note_on_c, 0, 69, 45
2, 364702, Note_on_c, 0, 69, 0
2, 364704, Note_on_c, 0, 81, 50
2, 364750, Note_on_c, 0, 81, 0
2, 364752, Note_on_c, 0, 71, 55
2, 364798, Note_on_c, 0, 71, 0
2, 364800, Note_on_c, 0, 83, 60
2, 364846, Note_on_c, 0, 83, 0
2, 364848, Note_on_c, 0, 73, 65
2, 364894, Note_on_c, 0, 73, 0
2, 364896, Note_on_c, 0, 85, 70
2, 364942, Note_on_c, 0, 85, 0
2, 364944, Note_on_c, 0, 74, 75
2, 364990, Note_on_c, 0, 74, 0
2, 364992, Note_on_c, 0, 86, 70
2, 365038, Note_on_c, 0, 86, 0
2, 365040, Note_on_c, 0, 72, 65
2, 365086, Note_on_c, 0, 72, 0
2, 365088, Note_on_c, 0, 84, 60
2, 365134, Note_on_c, 0, 84, 0
2, 365136, Note_on_c, 0, 71, 55
2, 365182, Note_on_c, 0, 71, 0
2, 365184, Note_on_c, 0, 83, 50
2, 365230, Note_on_c, 0, 83, 0
2, 365232, Note_on_c, 0, 72, 45
2, 365278, Note_on_c, 0, 72, 0
2, 365280, Note_on_c, 0, 84, 45
2, 365326, Note_on_c, 0, 84, 0
2, 365328, Note_on_c, 0, 68, 45
2, 365374, Note_on_c, 0, 68, 0
2, 365376, Note_on_c, 0, 80, 45
2, 365422, Note_on_c, 0, 80, 0
2, 365424, Note_on_c, 0, 69, 45
2, 365470, Note_on_c, 0, 69, 0
2, 365472, Note_on_c, 0, 81, 45
2, 365518, Note_on_c, 0, 81, 0
2, 365520, Note_on_c, 0, 71, 45
2, 365566, Note_on_c, 0, 71, 0
2, 365568, Note_on_c, 0, 83, 45
2, 365614, Note_on_c, 0, 83, 0
2, 365616, Note_on_c, 0, 66, 45
2, 365662, Note_on_c, 0, 66, 0
2, 365664, Note_on_c, 0, 78, 45
2, 365710, Note_on_c, 0, 78, 0
2, 365712, Note_on_c, 0, 68, 45
2, 365758, Note_on_c, 0, 68, 0
2, 365760, Note_on_c, 0, 80, 45
2, 365806, Note_on_c, 0, 80, 0
2, 365808, Note_on_c, 0, 69, 63
2, 365854, Note_on_c, 0, 69, 0
2, 365856, Note_on_c, 0, 81, 45
2, 365902, Note_on_c, 0, 81, 0
2, 365904, Note_on_c, 0, 68, 45
2, 365950, Note_on_c, 0, 68, 0
2, 365952, Note_on_c, 0, 69, 45
2, 365998, Note_on_c, 0, 69, 0
2, 366000, Note_on_c, 0, 81, 45
2, 366046, Note_on_c, 0, 81, 0
2, 366048, Note_on_c, 0, 69, 45
2, 366094, Note_on_c, 0, 69, 0
2, 366096, Note_on_c, 0, 68, 63
2, 366142, Note_on_c, 0, 68, 0
2, 366144, Note_on_c, 0, 69, 45
2, 366190, Note_on_c, 0, 69, 0
2, 366192, Note_on_c, 0, 81, 45
2, 366238, Note_on_c, 0, 81, 0
2, 366240, Note_on_c, 0, 69, 45
2, 366286, Note_on_c, 0, 69, 0
2, 366288, Note_on_c, 0, 68, 45
2, 366334, Note_on_c, 0, 68, 0
2, 366336, Note_on_c, 0, 69, 45
2, 366382, Note_on_c, 0, 69, 0
2, 366384, Note_on_c, 0, 81, 63
2, 366430, Note_on_c, 0, 81, 0
2, 366432, Note_on_c, 0, 69, 45
2, 366478, Note_on_c, 0, 69, 0
2, 366480, Note_on_c, 0, 68, 45
2, 366526, Note_on_c, 0, 68, 0
2, 366528, Note_on_c, 0, 69, 45
2, 366574, Note_on_c, 0, 69, 0
2, 366576, Note_on_c, 0, 81, 45
2, 366622, Note_on_c, 0, 81, 0
2, 366624, Note_on_c, 0, 69, 45
2, 366670, Note_on_c, 0, 69, 0
2, 366672, Note_on_c, 0, 68, 63
2, 366718, Note_on_c, 0, 68, 0
2, 366720, Note_on_c, 0, 69, 45
2, 366766, Note_on_c, 0, 69, 0
2, 366768, Note_on_c, 0, 81, 45
2, 366814, Note_on_c, 0, 81, 0
2, 366816, Note_on_c, 0, 69, 45
2, 366862, Note_on_c, 0, 69, 0
2, 366864, Note_on_c, 0, 68, 45
2, 366910, Note_on_c, 0, 68, 0
2, 366912, Note_on_c, 0, 69, 45
2, 366958, Note_on_c, 0, 69, 0
2, 366960, Note_on_c, 0, 70, 45
2, 367006, Note_on_c, 0, 70, 0
2, 367008, Note_on_c, 0, 69, 45
2, 367054, Note_on_c, 0, 69, 0
2, 367056, Note_on_c, 0, 70, 45
2, 367102, Note_on_c, 0, 70, 0
2, 367104, Note_on_c, 0, 69, 45
2, 367150, Note_on_c, 0, 69, 0
2, 367152, Note_on_c, 0, 70, 45
2, 367198, Note_on_c, 0, 70, 0
2, 367200, Note_on_c, 0, 69, 45
2, 367246, Note_on_c, 0, 69, 0
2, 367248, Note_on_c, 0, 70, 45
2, 367294, Note_on_c, 0, 70, 0
2, 367296, Note_on_c, 0, 69, 45
2, 367342, Note_on_c, 0, 69, 0
2, 367344, Note_on_c, 0, 70, 45
2, 367390, Note_on_c, 0, 70, 0
2, 367392, Note_on_c, 0, 69, 45
2, 367438, Note_on_c, 0, 69, 0
2, 367440, Note_on_c, 0, 70, 45
2, 367486, Note_on_c, 0, 70, 0
2, 367488, Note_on_c, 0, 69, 45
2, 367534, Note_on_c, 0, 69, 0
2, 367536, Note_on_c, 0, 70, 45
2, 367584, Note_on_c, 0, 70, 0
2, 367584, Note_on_c, 0, 69, 45
2, 367632, Note_on_c, 0, 69, 0
2, 367632, Note_on_c, 0, 70, 45
2, 367680, Note_on_c, 0, 70, 0
2, 367680, Note_on_c, 0, 69, 45
2, 367728, Note_on_c, 0, 69, 0
2, 367728, Note_on_c, 0, 73, 46
2, 367776, Note_on_c, 0, 73, 0
2, 367776, Note_on_c, 0, 69, 47
2, 367824, Note_on_c, 0, 69, 0
2, 367824, Note_on_c, 0, 74, 48
2, 367872, Note_on_c, 0, 74, 0
2, 367872, Note_on_c, 0, 69, 49
2, 367920, Note_on_c, 0, 69, 0
2, 367920, Note_on_c, 0, 76, 50
2, 367968, Note_on_c, 0, 76, 0
2, 367968, Note_on_c, 0, 69, 51
2, 368016, Note_on_c, 0, 69, 0
2, 368016, Note_on_c, 0, 77, 52
2, 368064, Note_on_c, 0, 77, 0
2, 368064, Note_on_c, 0, 76, 53
2, 368112, Note_on_c, 0, 76, 0
2, 368112, Note_on_c, 0, 75, 54
2, 368144, Note_on_c, 0, 75, 0
2, 368256, Note_on_c, 0, 75, 58
2, 368304, Note_on_c, 0, 75, 0
2, 368304, Note_on_c, 0, 81, 59
2, 368352, Note_on_c, 0, 81, 0
2, 368352, Note_on_c, 0, 82, 60
2, 368400, Note_on_c, 0, 82, 0
2, 368400, Note_on_c, 0, 84, 61
2, 368432, Note_on_c, 0, 84, 0
2, 368544, Note_on_c, 0, 75, 65
2, 368592, Note_on_c, 0, 75, 0
2, 368592, Note_on_c, 0, 81, 66
2, 368640, Note_on_c, 0, 81, 0
2, 368640, Note_on_c, 0, 82, 67
2, 368688, Note_on_c, 0, 82, 0
2, 368688, Note_on_c, 0, 84, 68
2, 368720, Note_on_c, 0, 84, 0
2, 368832, Note_on_c, 0, 75, 74
2, 368880, Note_on_c, 0, 75, 0
2, 368880, Note_on_c, 0, 81, 76
2, 368928, Note_on_c, 0, 81, 0
2, 368928, Note_on_c, 0, 82, 78
2, 368976, Note_on_c, 0, 82, 0
2, 368976, Note_on_c, 0, 84, 80
2, 369008, Note_on_c, 0, 84, 0
2, 369120, Note_on_c, 0, 74, 86
2, 369168, Note_on_c, 0, 74, 0
2, 369168, Note_on_c, 0, 84, 88
2, 369216, Note_on_c, 0, 84, 0
2, 369216, Note_on_c, 0, 81, 90
2, 369264, Note_on_c, 0, 81, 0
2, 369264, Note_on_c, 0, 82, 92
2, 369296, Note_on_c, 0, 82, 0
2, 369408, Note_on_c, 0, 46, 92
2, 369456, Note_on_c, 0, 46, 0
2, 369456, Note_on_c, 0, 50, 92
2, 369504, Note_on_c, 0, 50, 0
2, 369504, Note_on_c, 0, 55, 92
2, 369552, Note_on_c, 0, 55, 0
2, 369552, Note_on_c, 0, 58, 92
2, 369584, Note_on_c, 0, 58, 0
2, 369696, Note_on_c, 0, 58, 92
2, 369744, Note_on_c, 0, 58, 0
2, 369744, Note_on_c, 0, 62, 92
2, 369792, Note_on_c, 0, 62, 0
2, 369792, Note_on_c, 0, 67, 92
2, 369840, Note_on_c, 0, 67, 0
2, 369840, Note_on_c, 0, 70, 92
2, 369872, Note_on_c, 0, 70, 0
2, 369984, Note_on_c, 0, 70, 92
2, 370032, Note_on_c, 0, 70, 0
2, 370032, Note_on_c, 0, 74, 92
2, 370080, Note_on_c, 0, 74, 0
2, 370080, Note_on_c, 0, 79, 92
2, 370128, Note_on_c, 0, 79, 0
2, 370128, Note_on_c, 0, 82, 92
2, 370160, Note_on_c, 0, 82, 0
2, 370272, Note_on_c, 0, 77, 92
2, 370320, Note_on_c, 0, 77, 0
2, 370320, Note_on_c, 0, 83, 92
2, 370368, Note_on_c, 0, 83, 0
2, 370368, Note_on_c, 0, 84, 92
2, 370416, Note_on_c, 0, 84, 0
2, 370416, Note_on_c, 0, 86, 45
2, 370448, Note_on_c, 0, 86, 0
2, 370560, Note_on_c, 0, 77, 45
2, 370608, Note_on_c, 0, 77, 0
2, 370608, Note_on_c, 0, 83, 45
2, 370656, Note_on_c, 0, 83, 0
2, 370656, Note_on_c, 0, 84, 45
2, 370704, Note_on_c, 0, 84, 0
2, 370704, Note_on_c, 0, 86, 45
2, 370736, Note_on_c, 0, 86, 0
2, 370848, Note_on_c, 0, 77, 45
2, 370896, Note_on_c, 0, 77, 0
2, 370896, Note_on_c, 0, 83, 45
2, 370944, Note_on_c, 0, 83, 0
2, 370944, Note_on_c, 0, 84, 45
2, 370992, Note_on_c, 0, 84, 0
2, 370992, Note_on_c, 0, 86, 45
2, 371024, Note_on_c, 0, 86, 0
2, 371136, Note_on_c, 0, 77, 45
2, 371184, Note_on_c, 0, 77, 0
2, 371184, Note_on_c, 0, 83, 45
2, 371232, Note_on_c, 0, 83, 0
2, 371232, Note_on_c, 0, 84, 45
2, 371280, Note_on_c, 0, 84, 0
2, 371280, Note_on_c, 0, 86, 45
2, 371312, Note_on_c, 0, 86, 0
2, 371424, Note_on_c, 0, 76, 45
2, 371472, Note_on_c, 0, 76, 0
2, 371472, Note_on_c, 0, 86, 45
2, 371520, Note_on_c, 0, 86, 0
2, 371520, Note_on_c, 0, 83, 45
2, 371568, Note_on_c, 0, 83, 0
2, 371568, Note_on_c, 0, 84, 92
2, 371600, Note_on_c, 0, 84, 0
2, 371712, Note_on_c, 0, 48, 92
2, 371760, Note_on_c, 0, 48, 0
2, 371760, Note_on_c, 0, 52, 92
2, 371808, Note_on_c, 0, 52, 0
2, 371808, Note_on_c, 0, 57, 92
2, 371856, Note_on_c, 0, 57, 0
2, 371856, Note_on_c, 0, 60, 92
2, 371888, Note_on_c, 0, 60, 0
2, 372000, Note_on_c, 0, 60, 92
2, 372048, Note_on_c, 0, 60, 0
2, 372048, Note_on_c, 0, 64, 92
2, 372096, Note_on_c, 0, 64, 0
2, 372096, Note_on_c, 0, 69, 92
2, 372144, Note_on_c, 0, 69, 0
2, 372144, Note_on_c, 0, 72, 92
2, 372176, Note_on_c, 0, 72, 0
2, 372288, Note_on_c, 0, 72, 92
2, 372336, Note_on_c, 0, 72, 0
2, 372336, Note_on_c, 0, 76, 92
2, 372384, Note_on_c, 0, 76, 0
2, 372384, Note_on_c, 0, 81, 92
2, 372432, Note_on_c, 0, 81, 0
2, 372432, Note_on_c, 0, 84, 92
2, 372464, Note_on_c, 0, 84, 0
2, 372768, Note_on_c, 0, 58, 92
2, 372816, Note_on_c, 0, 58, 0
2, 372816, Note_on_c, 0, 64, 92
2, 372864, Note_on_c, 0, 64, 0
2, 372864, Note_on_c, 0, 67, 92
2, 372912, Note_on_c, 0, 67, 0
2, 372912, Note_on_c, 0, 70, 92
2, 372944, Note_on_c, 0, 70, 0
2, 373056, Note_on_c, 0, 61, 92
2, 373104, Note_on_c, 0, 61, 0
2, 373104, Note_on_c, 0, 67, 92
2, 373152, Note_on_c, 0, 67, 0
2, 373152, Note_on_c, 0, 70, 92
2, 373200, Note_on_c, 0, 70, 0
2, 373200, Note_on_c, 0, 73, 92
2, 373232, Note_on_c, 0, 73, 0
2, 373344, Note_on_c, 0, 70, 92
2, 373392, Note_on_c, 0, 70, 0
2, 373392, Note_on_c, 0, 73, 92
2, 373440, Note_on_c, 0, 73, 0
2, 373440, Note_on_c, 0, 76, 92
2, 373488, Note_on_c, 0, 76, 0
2, 373488, Note_on_c, 0, 79, 92
2, 373520, Note_on_c, 0, 79, 0
2, 373632, Note_on_c, 0, 76, 92
2, 373680, Note_on_c, 0, 76, 0
2, 373680, Note_on_c, 0, 82, 92
2, 373728, Note_on_c, 0, 82, 0
2, 373728, Note_on_c, 0, 81, 92
2, 373774, Note_on_c, 0, 81, 0
2, 373920, Note_on_c, 0, 62, 92
2, 373968, Note_on_c, 0, 62, 0
2, 373968, Note_on_c, 0, 65, 92
2, 374016, Note_on_c, 0, 65, 0
2, 374016, Note_on_c, 0, 69, 92
2, 374064, Note_on_c, 0, 69, 0
2, 374064, Note_on_c, 0, 74, 92
2, 374096, Note_on_c, 0, 74, 0
2, 374208, Note_on_c, 0, 65, 92
2, 374256, Note_on_c, 0, 65, 0
2, 374256, Note_on_c, 0, 69, 92
2, 374304, Note_on_c, 0, 69, 0
2, 374304, Note_on_c, 0, 74, 92
2, 374352, Note_on_c, 0, 74, 0
2, 374352, Note_on_c, 0, 77, 92
2, 374384, Note_on_c, 0, 77, 0
2, 374496, Note_on_c, 0, 69, 92
2, 374544, Note_on_c, 0, 69, 0
2, 374544, Note_on_c, 0, 74, 92
2, 374592, Note_on_c, 0, 74, 0
2, 374592, Note_on_c, 0, 77, 92
2, 374640, Note_on_c, 0, 77, 0
2, 374640, Note_on_c, 0, 81, 92
2, 374672, Note_on_c, 0, 81, 0
2, 374880, Note_on_c, 0, 80, 92
2, 374928, Note_on_c, 0, 80, 0
2, 374928, Note_on_c, 0, 74, 92
2, 374976, Note_on_c, 0, 74, 0
2, 374976, Note_on_c, 0, 75, 92
2, 375024, Note_on_c, 0, 75, 0
2, 375024, Note_on_c, 0, 77, 92
2, 375056, Note_on_c, 0, 77, 0
2, 375168, Note_on_c, 0, 77, 92
2, 375216, Note_on_c, 0, 77, 0
2, 375216, Note_on_c, 0, 71, 92
2, 375264, Note_on_c, 0, 71, 0
2, 375264, Note_on_c, 0, 72, 92
2, 375312, Note_on_c, 0, 72, 0
2, 375312, Note_on_c, 0, 74, 92
2, 375344, Note_on_c, 0, 74, 0
2, 375456, Note_on_c, 0, 74, 92
2, 375504, Note_on_c, 0, 74, 0
2, 375504, Note_on_c, 0, 65, 92
2, 375552, Note_on_c, 0, 65, 0
2, 375552, Note_on_c, 0, 67, 92
2, 375600, Note_on_c, 0, 67, 0
2, 375600, Note_on_c, 0, 68, 92
2, 375632, Note_on_c, 0, 68, 0
2, 375744, Note_on_c, 0, 68, 92
2, 375792, Note_on_c, 0, 68, 0
2, 375792, Note_on_c, 0, 62, 92
2, 375840, Note_on_c, 0, 62, 0
2, 375840, Note_on_c, 0, 63, 92
2, 375888, Note_on_c, 0, 63, 0
2, 375888, Note_on_c, 0, 65, 92
2, 375920, Note_on_c, 0, 65, 0
2, 376032, Note_on_c, 0, 79, 92
2, 376080, Note_on_c, 0, 79, 0
2, 376080, Note_on_c, 0, 72, 92
2, 376128, Note_on_c, 0, 72, 0
2, 376128, Note_on_c, 0, 74, 92
2, 376176, Note_on_c, 0, 74, 0
2, 376176, Note_on_c, 0, 75, 92
2, 376208, Note_on_c, 0, 75, 0
2, 376320, Note_on_c, 0, 75, 92
2, 376368, Note_on_c, 0, 75, 0
2, 376368, Note_on_c, 0, 67, 92
2, 376416, Note_on_c, 0, 67, 0
2, 376416, Note_on_c, 0, 71, 92
2, 376464, Note_on_c, 0, 71, 0
2, 376464, Note_on_c, 0, 72, 92
2, 376496, Note_on_c, 0, 72, 0
2, 376608, Note_on_c, 0, 72, 92
2, 376656, Note_on_c, 0, 72, 0
2, 376656, Note_on_c, 0, 63, 92
2, 376704, Note_on_c, 0, 63, 0
2, 376704, Note_on_c, 0, 65, 92
2, 376752, Note_on_c, 0, 65, 0
2, 376752, Note_on_c, 0, 67, 92
2, 376784, Note_on_c, 0, 67, 0
2, 376896, Note_on_c, 0, 67, 92
2, 376944, Note_on_c, 0, 67, 0
2, 376944, Note_on_c, 0, 60, 92
2, 376992, Note_on_c, 0, 60, 0
2, 376992, Note_on_c, 0, 62, 92
2, 377040, Note_on_c, 0, 62, 0
2, 377040, Note_on_c, 0, 63, 92
2, 377088, Note_on_c, 0, 63, 0
2, 377088, Note_on_c, 0, 60, 92
2, 377136, Note_on_c, 0, 60, 0
2, 377136, Note_on_c, 0, 55, 92
2, 377182, Note_on_c, 0, 55, 0
2, 377376, Note_on_c, 0, 54, 92
2, 377424, Note_on_c, 0, 54, 0
2, 377424, Note_on_c, 0, 60, 92
2, 377472, Note_on_c, 0, 60, 0
2, 377472, Note_on_c, 0, 63, 92
2, 377520, Note_on_c, 0, 63, 0
2, 377520, Note_on_c, 0, 66, 92
2, 377552, Note_on_c, 0, 66, 0
2, 377664, Note_on_c, 0, 57, 92
2, 377712, Note_on_c, 0, 57, 0
2, 377712, Note_on_c, 0, 63, 92
2, 377760, Note_on_c, 0, 63, 0
2, 377760, Note_on_c, 0, 66, 92
2, 377808, Note_on_c, 0, 66, 0
2, 377808, Note_on_c, 0, 69, 92
2, 377840, Note_on_c, 0, 69, 0
2, 377952, Note_on_c, 0, 66, 92
2, 378000, Note_on_c, 0, 66, 0
2, 378000, Note_on_c, 0, 69, 92
2, 378048, Note_on_c, 0, 69, 0
2, 378048, Note_on_c, 0, 72, 92
2, 378096, Note_on_c, 0, 72, 0
2, 378096, Note_on_c, 0, 75, 92
2, 378128, Note_on_c, 0, 75, 0
2, 378240, Note_on_c, 0, 72, 92
2, 378288, Note_on_c, 0, 72, 0
2, 378288, Note_on_c, 0, 78, 92
2, 378336, Note_on_c, 0, 78, 0
2, 378336, Note_on_c, 0, 77, 92
2, 378382, Note_on_c, 0, 77, 0
2, 378528, Note_on_c, 0, 61, 92
2, 378576, Note_on_c, 0, 61, 0
2, 378576, Note_on_c, 0, 65, 92
2, 378624, Note_on_c, 0, 65, 0
2, 378624, Note_on_c, 0, 70, 92
2, 378672, Note_on_c, 0, 70, 0
2, 378672, Note_on_c, 0, 73, 92
2, 378704, Note_on_c, 0, 73, 0
2, 378816, Note_on_c, 0, 65, 92
2, 378864, Note_on_c, 0, 65, 0
2, 378864, Note_on_c, 0, 70, 92
2, 378912, Note_on_c, 0, 70, 0
2, 378912, Note_on_c, 0, 73, 92
2, 378960, Note_on_c, 0, 73, 0
2, 378960, Note_on_c, 0, 77, 92
2, 378992, Note_on_c, 0, 77, 0
2, 379104, Note_on_c, 0, 70, 92
2, 379152, Note_on_c, 0, 70, 0
2, 379152, Note_on_c, 0, 73, 92
2, 379200, Note_on_c, 0, 73, 0
2, 379200, Note_on_c, 0, 77, 92
2, 379248, Note_on_c, 0, 77, 0
2, 379248, Note_on_c, 0, 82, 92
2, 379280, Note_on_c, 0, 82, 0
2, 379488, Note_on_c, 0, 89, 92
2, 379536, Note_on_c, 0, 89, 0
2, 379536, Note_on_c, 0, 82, 92
2, 379584, Note_on_c, 0, 82, 0
2, 379584, Note_on_c, 0, 84, 92
2, 379632, Note_on_c, 0, 84, 0
2, 379632, Note_on_c, 0, 85, 92
2, 379664, Note_on_c, 0, 85, 0
2, 379776, Note_on_c, 0, 85, 92
2, 379824, Note_on_c, 0, 85, 0
2, 379824, Note_on_c, 0, 78, 92
2, 379872, Note_on_c, 0, 78, 0
2, 379872, Note_on_c, 0, 80, 92
2, 379920, Note_on_c, 0, 80, 0
2, 379920, Note_on_c, 0, 82, 92
2, 379952, Note_on_c, 0, 82, 0
2, 380064, Note_on_c, 0, 82, 92
2, 380112, Note_on_c, 0, 82, 0
2, 380112, Note_on_c, 0, 73, 92
2, 380160, Note_on_c, 0, 73, 0
2, 380160, Note_on_c, 0, 77, 92
2, 380208, Note_on_c, 0, 77, 0
2, 380208, Note_on_c, 0, 78, 92
2, 380240, Note_on_c, 0, 78, 0
2, 380352, Note_on_c, 0, 78, 92
2, 380400, Note_on_c, 0, 78, 0
2, 380400, Note_on_c, 0, 70, 92
2, 380448, Note_on_c, 0, 70, 0
2, 380448, Note_on_c, 0, 72, 92
2, 380496, Note_on_c, 0, 72, 0
2, 380496, Note_on_c, 0, 73, 92
2, 380528, Note_on_c, 0, 73, 0
2, 380640, Note_on_c, 0, 89, 92
2, 380688, Note_on_c, 0, 89, 0
2, 380688, Note_on_c, 0, 82, 92
2, 380736, Note_on_c, 0, 82, 0
2, 380736, Note_on_c, 0, 84, 92
2, 380784, Note_on_c, 0, 84, 0
2, 380784, Note_on_c, 0, 85, 92
2, 380816, Note_on_c, 0, 85, 0
2, 380928, Note_on_c, 0, 85, 92
2, 380976, Note_on_c, 0, 85, 0
2, 380976, Note_on_c, 0, 77, 92
2, 381024, Note_on_c, 0, 77, 0
2, 381024, Note_on_c, 0, 81, 92
2, 381072, Note_on_c, 0, 81, 0
2, 381072, Note_on_c, 0, 82, 92
2, 381104, Note_on_c, 0, 82, 0
2, 381216, Note_on_c, 0, 82, 92
2, 381264, Note_on_c, 0, 82, 0
2, 381264, Note_on_c, 0, 73, 92
2, 381312, Note_on_c, 0, 73, 0
2, 381312, Note_on_c, 0, 75, 92
2, 381360, Note_on_c, 0, 75, 0
2, 381360, Note_on_c, 0, 77, 92
2, 381392, Note_on_c, 0, 77, 0
2, 381504, Note_on_c, 0, 77, 92
2, 381552, Note_on_c, 0, 77, 0
2, 381552, Note_on_c, 0, 70, 92
2, 381600, Note_on_c, 0, 70, 0
2, 381600, Note_on_c, 0, 72, 92
2, 381648, Note_on_c, 0, 72, 0
2, 381648, Note_on_c, 0, 73, 92
2, 381680, Note_on_c, 0, 73, 0
2, 381792, Note_on_c, 0, 85, 92
2, 381840, Note_on_c, 0, 85, 0
2, 381840, Note_on_c, 0, 82, 92
2, 381888, Note_on_c, 0, 82, 0
2, 381888, Note_on_c, 0, 84, 92
2, 381936, Note_on_c, 0, 84, 0
2, 381936, Note_on_c, 0, 85, 92
2, 381968, Note_on_c, 0, 85, 0
2, 382080, Note_on_c, 0, 73, 92
2, 382128, Note_on_c, 0, 73, 0
2, 382128, Note_on_c, 0, 70, 92
2, 382176, Note_on_c, 0, 70, 0
2, 382176, Note_on_c, 0, 72, 92
2, 382224, Note_on_c, 0, 72, 0
2, 382224, Note_on_c, 0, 73, 92
2, 382256, Note_on_c, 0, 73, 0
2, 382368, Note_on_c, 0, 85, 92
2, 382416, Note_on_c, 0, 85, 0
2, 382416, Note_on_c, 0, 82, 92
2, 382464, Note_on_c, 0, 82, 0
2, 382464, Note_on_c, 0, 84, 92
2, 382512, Note_on_c, 0, 84, 0
2, 382512, Note_on_c, 0, 85, 92
2, 382544, Note_on_c, 0, 85, 0
2, 382656, Note_on_c, 0, 73, 92
2, 382704, Note_on_c, 0, 73, 0
2, 382704, Note_on_c, 0, 70, 92
2, 382752, Note_on_c, 0, 70, 0
2, 382752, Note_on_c, 0, 72, 92
2, 382800, Note_on_c, 0, 72, 0
2, 382800, Note_on_c, 0, 73, 92
2, 382832, Note_on_c, 0, 73, 0
2, 382944, Note_on_c, 0, 84, 92
2, 382992, Note_on_c, 0, 84, 0
2, 382992, Note_on_c, 0, 80, 92
2, 383040, Note_on_c, 0, 80, 0
2, 383040, Note_on_c, 0, 82, 92
2, 383088, Note_on_c, 0, 82, 0
2, 383088, Note_on_c, 0, 84, 92
2, 383120, Note_on_c, 0, 84, 0
2, 383232, Note_on_c, 0, 72, 92
2, 383280, Note_on_c, 0, 72, 0
2, 383280, Note_on_c, 0, 68, 92
2, 383328, Note_on_c, 0, 68, 0
2, 383328, Note_on_c, 0, 70, 92
2, 383376, Note_on_c, 0, 70, 0
2, 383376, Note_on_c, 0, 72, 92
2, 383408, Note_on_c, 0, 72, 0
2, 383520, Note_on_c, 0, 87, 108
2, 383568, Note_on_c, 0, 87, 0
2, 383568, Note_on_c, 0, 84, 108
2, 383616, Note_on_c, 0, 84, 0
2, 383616, Note_on_c, 0, 85, 108
2, 383664, Note_on_c, 0, 85, 0
2, 383664, Note_on_c, 0, 87, 108
2, 383696, Note_on_c, 0, 87, 0
2, 383808, Note_on_c, 0, 75, 108
2, 383856, Note_on_c, 0, 75, 0
2, 383856, Note_on_c, 0, 72, 108
2, 383904, Note_on_c, 0, 72, 0
2, 383904, Note_on_c, 0, 73, 108
2, 383952, Note_on_c, 0, 73, 0
2, 383952, Note_on_c, 0, 75, 108
2, 383984, Note_on_c, 0, 75, 0
2, 384096, Note_on_c, 0, 65, 45
2, 384144, Note_on_c, 0, 65, 0
2, 384144, Note_on_c, 0, 73, 45
2, 384192, Note_on_c, 0, 73, 0
2, 384192, Note_on_c, 0, 72, 45
2, 384240, Note_on_c, 0, 72, 0
2, 384240, Note_on_c, 0, 70, 45
2, 384272, Note_on_c, 0, 70, 0
2, 384384, Note_on_c, 0, 65, 45
2, 384432, Note_on_c, 0, 65, 0
2, 384432, Note_on_c, 0, 73, 45
2, 384480, Note_on_c, 0, 73, 0
2, 384480, Note_on_c, 0, 72, 45
2, 384528, Note_on_c, 0, 72, 0
2, 384528, Note_on_c, 0, 70, 45
2, 384560, Note_on_c, 0, 70, 0
2, 384672, Note_on_c, 0, 65, 45
2, 384720, Note_on_c, 0, 65, 0
2, 384720, Note_on_c, 0, 73, 45
2, 384768, Note_on_c, 0, 73, 0
2, 384768, Note_on_c, 0, 72, 45
2, 384816, Note_on_c, 0, 72, 0
2, 384816, Note_on_c, 0, 70, 45
2, 384848, Note_on_c, 0, 70, 0
2, 384960, Note_on_c, 0, 65, 45
2, 385008, Note_on_c, 0, 65, 0
2, 385008, Note_on_c, 0, 73, 45
2, 385056, Note_on_c, 0, 73, 0
2, 385056, Note_on_c, 0, 70, 45
2, 385104, Note_on_c, 0, 70, 0
2, 385104, Note_on_c, 0, 72, 45
2, 385136, Note_on_c, 0, 72, 0
2, 385248, Note_on_c, 0, 65, 45
2, 385296, Note_on_c, 0, 65, 0
2, 385296, Note_on_c, 0, 75, 45
2, 385344, Note_on_c, 0, 75, 0
2, 385344, Note_on_c, 0, 73, 45
2, 385392, Note_on_c, 0, 73, 0
2, 385392, Note_on_c, 0, 72, 45
2, 385424, Note_on_c, 0, 72, 0
2, 385536, Note_on_c, 0, 65, 45
2, 385584, Note_on_c, 0, 65, 0
2, 385584, Note_on_c, 0, 75, 45
2, 385632, Note_on_c, 0, 75, 0
2, 385632, Note_on_c, 0, 73, 45
2, 385680, Note_on_c, 0, 73, 0
2, 385680, Note_on_c, 0, 72, 45
2, 385712, Note_on_c, 0, 72, 0
2, 385824, Note_on_c, 0, 65, 45
2, 385872, Note_on_c, 0, 65, 0
2, 385872, Note_on_c, 0, 75, 45
2, 385920, Note_on_c, 0, 75, 0
2, 385920, Note_on_c, 0, 73, 45
2, 385968, Note_on_c, 0, 73, 0
2, 385968, Note_on_c, 0, 72, 45
2, 386000, Note_on_c, 0, 72, 0
2, 386112, Note_on_c, 0, 65, 45
2, 386160, Note_on_c, 0, 65, 0
2, 386160, Note_on_c, 0, 75, 45
2, 386208, Note_on_c, 0, 75, 0
2, 386208, Note_on_c, 0, 72, 45
2, 386256, Note_on_c, 0, 72, 0
2, 386256, Note_on_c, 0, 73, 45
2, 386288, Note_on_c, 0, 73, 0
2, 386400, Note_on_c, 0, 65, 45
2, 386448, Note_on_c, 0, 65, 0
2, 386448, Note_on_c, 0, 73, 45
2, 386496, Note_on_c, 0, 73, 0
2, 386496, Note_on_c, 0, 77, 45
2, 386542, Note_on_c, 0, 77, 0
2, 386688, Note_on_c, 0, 65, 45
2, 386736, Note_on_c, 0, 65, 0
2, 386736, Note_on_c, 0, 73, 45
2, 386784, Note_on_c, 0, 73, 0
2, 386784, Note_on_c, 0, 77, 45
2, 386830, Note_on_c, 0, 77, 0
2, 386976, Note_on_c, 0, 65, 46
2, 387024, Note_on_c, 0, 65, 0
2, 387024, Note_on_c, 0, 73, 46
2, 387072, Note_on_c, 0, 73, 0
2, 387072, Note_on_c, 0, 77, 46
2, 387118, Note_on_c, 0, 77, 0
2, 387264, Note_on_c, 0, 66, 47
2, 387312, Note_on_c, 0, 66, 0
2, 387312, Note_on_c, 0, 73, 48
2, 387360, Note_on_c, 0, 73, 0
2, 387360, Note_on_c, 0, 78, 49
2, 387406, Note_on_c, 0, 78, 0
2, 387552, Note_on_c, 0, 66, 52
2, 387600, Note_on_c, 0, 66, 0
2, 387600, Note_on_c, 0, 73, 53
2, 387648, Note_on_c, 0, 73, 0
2, 387648, Note_on_c, 0, 78, 54
2, 387694, Note_on_c, 0, 78, 0
2, 387840, Note_on_c, 0, 67, 58
2, 387888, Note_on_c, 0, 67, 0
2, 387888, Note_on_c, 0, 73, 59
2, 387936, Note_on_c, 0, 73, 0
2, 387936, Note_on_c, 0, 79, 60
2, 387982, Note_on_c, 0, 79, 0
2, 388128, Note_on_c, 0, 67, 64
2, 388176, Note_on_c, 0, 67, 0
2, 388176, Note_on_c, 0, 73, 65
2, 388224, Note_on_c, 0, 73, 0
2, 388224, Note_on_c, 0, 79, 66
2, 388270, Note_on_c, 0, 79, 0
2, 388416, Note_on_c, 0, 68, 70
2, 388464, Note_on_c, 0, 68, 0
2, 388464, Note_on_c, 0, 74, 71
2, 388512, Note_on_c, 0, 74, 0
2, 388512, Note_on_c, 0, 80, 72
2, 388558, Note_on_c, 0, 80, 0
2, 388704, Note_on_c, 0, 68, 76
2, 388752, Note_on_c, 0, 68, 0
2, 388752, Note_on_c, 0, 74, 77
2, 388800, Note_on_c, 0, 74, 0
2, 388800, Note_on_c, 0, 80, 78
2, 388846, Note_on_c, 0, 80, 0
2, 388992, Note_on_c, 0, 68, 82
2, 389040, Note_on_c, 0, 68, 0
2, 389040, Note_on_c, 0, 74, 83
2, 389088, Note_on_c, 0, 74, 0
2, 389088, Note_on_c, 0, 80, 84
2, 389134, Note_on_c, 0, 80, 0
2, 389280, Note_on_c, 0, 68, 88
2, 389328, Note_on_c, 0, 68, 0
2, 389328, Note_on_c, 0, 74, 89
2, 389376, Note_on_c, 0, 74, 0
2, 389376, Note_on_c, 0, 80, 90
2, 389424, Note_on_c, 0, 80, 0
2, 389424, Note_on_c, 0, 81, 92
2, 389456, Note_on_c, 0, 81, 0
2, 389568, Note_on_c, 0, 69, 92
2, 389616, Note_on_c, 0, 69, 0
2, 389616, Note_on_c, 0, 76, 127
2, 389616, Note_on_c, 0, 81, 127
2, 389664, Note_on_c, 0, 76, 0
2, 389664, Note_on_c, 0, 73, 92
2, 389712, Note_on_c, 0, 73, 0
2, 389712, Note_on_c, 0, 81, 0
2, 389712, Note_on_c, 0, 77, 92
2, 389712, Note_on_c, 0, 80, 92
2, 389806, Note_on_c, 0, 77, 0
2, 389806, Note_on_c, 0, 80, 0
2, 389856, Note_on_c, 0, 69, 92
2, 389904, Note_on_c, 0, 69, 0
2, 389904, Note_on_c, 0, 77, 127
2, 389904, Note_on_c, 0, 80, 127
2, 389952, Note_on_c, 0, 77, 0
2, 389952, Note_on_c, 0, 74, 92
2, 390000, Note_on_c, 0, 74, 0
2, 390000, Note_on_c, 0, 80, 0
2, 390000, Note_on_c, 0, 76, 92
2, 390000, Note_on_c, 0, 81, 92
2, 390094, Note_on_c, 0, 76, 0
2, 390094, Note_on_c, 0, 81, 0
2, 390144, Note_on_c, 0, 69, 92
2, 390192, Note_on_c, 0, 69, 0
2, 390192, Note_on_c, 0, 76, 127
2, 390192, Note_on_c, 0, 81, 127
2, 390240, Note_on_c, 0, 76, 0
2, 390240, Note_on_c, 0, 73, 92
2, 390288, Note_on_c, 0, 73, 0
2, 390288, Note_on_c, 0, 81, 0
2, 390288, Note_on_c, 0, 77, 92
2, 390288, Note_on_c, 0, 80, 92
2, 390382, Note_on_c, 0, 77, 0
2, 390382, Note_on_c, 0, 80, 0
2, 390432, Note_on_c, 0, 69, 92
2, 390480, Note_on_c, 0, 69, 0
2, 390480, Note_on_c, 0, 77, 127
2, 390480, Note_on_c, 0, 80, 127
2, 390528, Note_on_c, 0, 77, 0
2, 390528, Note_on_c, 0, 74, 92
2, 390576, Note_on_c, 0, 74, 0
2, 390576, Note_on_c, 0, 80, 0
2, 390576, Note_on_c, 0, 73, 45
2, 390576, Note_on_c, 0, 76, 45
2, 390576, Note_on_c, 0, 81, 45
2, 390670, Note_on_c, 0, 73, 0
2, 390670, Note_on_c, 0, 76, 0
2, 390670, Note_on_c, 0, 81, 0
2, 390720, Note_on_c, 0, 73, 45
2, 390768, Note_on_c, 0, 73, 0
2, 390768, Note_on_c, 0, 76, 45
2, 390816, Note_on_c, 0, 76, 0
2, 390816, Note_on_c, 0, 79, 45
2, 390864, Note_on_c, 0, 79, 0
2, 390864, Note_on_c, 0, 70, 45
2, 390896, Note_on_c, 0, 70, 0
2, 391008, Note_on_c, 0, 70, 45
2, 391056, Note_on_c, 0, 70, 0
2, 391056, Note_on_c, 0, 73, 45
2, 391104, Note_on_c, 0, 73, 0
2, 391104, Note_on_c, 0, 76, 45
2, 391152, Note_on_c, 0, 76, 0
2, 391152, Note_on_c, 0, 67, 45
2, 391184, Note_on_c, 0, 67, 0
2, 391296, Note_on_c, 0, 70, 45
2, 391344, Note_on_c, 0, 70, 0
2, 391344, Note_on_c, 0, 69, 45
2, 391392, Note_on_c, 0, 69, 0
2, 391392, Note_on_c, 0, 67, 45
2, 391440, Note_on_c, 0, 67, 0
2, 391440, Note_on_c, 0, 65, 45
2, 391472, Note_on_c, 0, 65, 0
2, 391584, Note_on_c, 0, 65, 45
2, 391632, Note_on_c, 0, 65, 0
2, 391632, Note_on_c, 0, 64, 45
2, 391680, Note_on_c, 0, 64, 0
2, 391680, Note_on_c, 0, 62, 45
2, 391728, Note_on_c, 0, 62, 0
2, 391728, Note_on_c, 0, 61, 45
2, 391760, Note_on_c, 0, 61, 0
2, 391872, Note_on_c, 0, 73, 45
2, 391920, Note_on_c, 0, 73, 0
2, 391920, Note_on_c, 0, 76, 45
2, 391968, Note_on_c, 0, 76, 0
2, 391968, Note_on_c, 0, 79, 45
2, 392016, Note_on_c, 0, 79, 0
2, 392016, Note_on_c, 0, 70, 45
2, 392048, Note_on_c, 0, 70, 0
2, 392160, Note_on_c, 0, 70, 45
2, 392208, Note_on_c, 0, 70, 0
2, 392208, Note_on_c, 0, 73, 45
2, 392256, Note_on_c, 0, 73, 0
2, 392256, Note_on_c, 0, 76, 45
2, 392304, Note_on_c, 0, 76, 0
2, 392304, Note_on_c, 0, 67, 63
2, 392336, Note_on_c, 0, 67, 0
2, 392448, Note_on_c, 0, 70, 45
2, 392496, Note_on_c, 0, 70, 0
2, 392496, Note_on_c, 0, 69, 45
2, 392544, Note_on_c, 0, 69, 0
2, 392544, Note_on_c, 0, 67, 45
2, 392592, Note_on_c, 0, 67, 0
2, 392592, Note_on_c, 0, 65, 45
2, 392624, Note_on_c, 0, 65, 0
2, 392736, Note_on_c, 0, 65, 45
2, 392784, Note_on_c, 0, 65, 0
2, 392784, Note_on_c, 0, 64, 45
2, 392832, Note_on_c, 0, 64, 0
2, 392832, Note_on_c, 0, 62, 45
2, 392880, Note_on_c, 0, 62, 0
2, 392880, Note_on_c, 0, 78, 45
2, 392912, Note_on_c, 0, 78, 0
2, 393024, Note_on_c, 0, 78, 45
2, 393072, Note_on_c, 0, 78, 0
2, 393072, Note_on_c, 0, 81, 45
2, 393120, Note_on_c, 0, 81, 0
2, 393120, Note_on_c, 0, 84, 45
2, 393168, Note_on_c, 0, 84, 0
2, 393168, Note_on_c, 0, 75, 45
2, 393200, Note_on_c, 0, 75, 0
2, 393312, Note_on_c, 0, 75, 45
2, 393360, Note_on_c, 0, 75, 0
2, 393360, Note_on_c, 0, 78, 45
2, 393408, Note_on_c, 0, 78, 0
2, 393408, Note_on_c, 0, 81, 45
2, 393456, Note_on_c, 0, 81, 0
2, 393456, Note_on_c, 0, 72, 63
2, 393488, Note_on_c, 0, 72, 0
2, 393600, Note_on_c, 0, 75, 45
2, 393648, Note_on_c, 0, 75, 0
2, 393648, Note_on_c, 0, 74, 45
2, 393696, Note_on_c, 0, 74, 0
2, 393696, Note_on_c, 0, 72, 45
2, 393744, Note_on_c, 0, 72, 0
2, 393744, Note_on_c, 0, 70, 45
2, 393776, Note_on_c, 0, 70, 0
2, 393888, Note_on_c, 0, 70, 45
2, 393936, Note_on_c, 0, 70, 0
2, 393936, Note_on_c, 0, 69, 45
2, 393984, Note_on_c, 0, 69, 0
2, 393984, Note_on_c, 0, 67, 45
2, 394032, Note_on_c, 0, 67, 0
2, 394032, Note_on_c, 0, 66, 45
2, 394064, Note_on_c, 0, 66, 0
2, 394176, Note_on_c, 0, 78, 45
2, 394224, Note_on_c, 0, 78, 0
2, 394224, Note_on_c, 0, 81, 45
2, 394272, Note_on_c, 0, 81, 0
2, 394272, Note_on_c, 0, 84, 45
2, 394320, Note_on_c, 0, 84, 0
2, 394320, Note_on_c, 0, 75, 45
2, 394352, Note_on_c, 0, 75, 0
2, 394464, Note_on_c, 0, 75, 45
2, 394512, Note_on_c, 0, 75, 0
2, 394512, Note_on_c, 0, 78, 45
2, 394560, Note_on_c, 0, 78, 0
2, 394560, Note_on_c, 0, 81, 45
2, 394608, Note_on_c, 0, 81, 0
2, 394608, Note_on_c, 0, 72, 63
2, 394640, Note_on_c, 0, 72, 0
2, 394752, Note_on_c, 0, 75, 45
2, 394800, Note_on_c, 0, 75, 0
2, 394800, Note_on_c, 0, 74, 45
2, 394848, Note_on_c, 0, 74, 0
2, 394848, Note_on_c, 0, 72, 45
2, 394896, Note_on_c, 0, 72, 0
2, 394896, Note_on_c, 0, 70, 45
2, 394928, Note_on_c, 0, 70, 0
2, 395040, Note_on_c, 0, 70, 45
2, 395086, Note_on_c, 0, 70, 0
2, 395088, Note_on_c, 0, 69, 45
2, 395134, Note_on_c, 0, 69, 0
2, 395136, Note_on_c, 0, 67, 45
2, 395182, Note_on_c, 0, 67, 0
2, 395184, Note_on_c, 0, 82, 45
2, 395216, Note_on_c, 0, 82, 0
2, 395328, Note_on_c, 0, 82, 45
2, 395376, Note_on_c, 0, 82, 0
2, 395376, Note_on_c, 0, 81, 45
2, 395424, Note_on_c, 0, 81, 0
2, 395424, Note_on_c, 0, 79, 45
2, 395472, Note_on_c, 0, 79, 0
2, 395472, Note_on_c, 0, 77, 45
2, 395504, Note_on_c, 0, 77, 0
2, 395616, Note_on_c, 0, 77, 45
2, 395664, Note_on_c, 0, 77, 0
2, 395664, Note_on_c, 0, 76, 45
2, 395712, Note_on_c, 0, 76, 0
2, 395712, Note_on_c, 0, 74, 45
2, 395760, Note_on_c, 0, 74, 0
2, 395760, Note_on_c, 0, 75, 63
2, 395792, Note_on_c, 0, 75, 0
2, 395904, Note_on_c, 0, 75, 45
2, 395952, Note_on_c, 0, 75, 0
2, 395952, Note_on_c, 0, 74, 45
2, 396000, Note_on_c, 0, 74, 0
2, 396000, Note_on_c, 0, 72, 45
2, 396048, Note_on_c, 0, 72, 0
2, 396048, Note_on_c, 0, 70, 45
2, 396080, Note_on_c, 0, 70, 0
2, 396192, Note_on_c, 0, 70, 45
2, 396240, Note_on_c, 0, 70, 0
2, 396240, Note_on_c, 0, 69, 45
2, 396288, Note_on_c, 0, 69, 0
2, 396288, Note_on_c, 0, 67, 45
2, 396336, Note_on_c, 0, 67, 0
2, 396336, Note_on_c, 0, 82, 45
2, 396368, Note_on_c, 0, 82, 0
2, 396480, Note_on_c, 0, 82, 45
2, 396528, Note_on_c, 0, 82, 0
2, 396528, Note_on_c, 0, 81, 45
2, 396576, Note_on_c, 0, 81, 0
2, 396576, Note_on_c, 0, 79, 45
2, 396624, Note_on_c, 0, 79, 0
2, 396624, Note_on_c, 0, 77, 45
2, 396656, Note_on_c, 0, 77, 0
2, 396768, Note_on_c, 0, 77, 45
2, 396816, Note_on_c, 0, 77, 0
2, 396816, Note_on_c, 0, 76, 45
2, 396864, Note_on_c, 0, 76, 0
2, 396864, Note_on_c, 0, 74, 45
2, 396912, Note_on_c, 0, 74, 0
2, 396912, Note_on_c, 0, 82, 63
2, 396944, Note_on_c, 0, 82, 0
2, 397056, Note_on_c, 0, 82, 45
2, 397104, Note_on_c, 0, 82, 0
2, 397104, Note_on_c, 0, 81, 45
2, 397152, Note_on_c, 0, 81, 0
2, 397152, Note_on_c, 0, 79, 45
2, 397200, Note_on_c, 0, 79, 0
2, 397200, Note_on_c, 0, 77, 45
2, 397232, Note_on_c, 0, 77, 0
2, 397344, Note_on_c, 0, 77, 45
2, 397392, Note_on_c, 0, 77, 0
2, 397392, Note_on_c, 0, 76, 45
2, 397440, Note_on_c, 0, 76, 0
2, 397440, Note_on_c, 0, 74, 45
2, 397488, Note_on_c, 0, 74, 0
2, 397488, Note_on_c, 0, 82, 63
2, 397520, Note_on_c, 0, 82, 0
2, 397632, Note_on_c, 0, 82, 45
2, 397680, Note_on_c, 0, 82, 0
2, 397680, Note_on_c, 0, 81, 45
2, 397728, Note_on_c, 0, 81, 0
2, 397728, Note_on_c, 0, 79, 45
2, 397776, Note_on_c, 0, 79, 0
2, 397776, Note_on_c, 0, 77, 45
2, 397808, Note_on_c, 0, 77, 0
2, 397920, Note_on_c, 0, 77, 45
2, 397968, Note_on_c, 0, 77, 0
2, 397968, Note_on_c, 0, 76, 45
2, 398016, Note_on_c, 0, 76, 0
2, 398016, Note_on_c, 0, 74, 45
2, 398064, Note_on_c, 0, 74, 0
2, 398064, Note_on_c, 0, 82, 92
2, 398112, Note_on_c, 0, 82, 0
2, 398112, Note_on_c, 0, 79, 92
2, 398160, Note_on_c, 0, 79, 0
2, 398160, Note_on_c, 0, 78, 92
2, 398208, Note_on_c, 0, 78, 0
2, 398208, Note_on_c, 0, 79, 92
2, 398256, Note_on_c, 0, 79, 0
2, 398256, Note_on_c, 0, 82, 92
2, 398304, Note_on_c, 0, 82, 0
2, 398304, Note_on_c, 0, 79, 92
2, 398352, Note_on_c, 0, 79, 0
2, 398352, Note_on_c, 0, 78, 92
2, 398400, Note_on_c, 0, 78, 0
2, 398400, Note_on_c, 0, 79, 92
2, 398448, Note_on_c, 0, 79, 0
2, 398448, Note_on_c, 0, 82, 92
2, 398496, Note_on_c, 0, 82, 0
2, 398496, Note_on_c, 0, 79, 92
2, 398544, Note_on_c, 0, 79, 0
2, 398544, Note_on_c, 0, 78, 92
2, 398592, Note_on_c, 0, 78, 0
2, 398592, Note_on_c, 0, 79, 92
2, 398638, Note_on_c, 0, 79, 0
2, 398640, Note_on_c, 0, 75, 127
2, 398688, Note_on_c, 0, 75, 0
2, 398688, Note_on_c, 0, 76, 92
2, 398736, Note_on_c, 0, 76, 0
2, 398736, Note_on_c, 0, 79, 92
2, 398784, Note_on_c, 0, 79, 0
2, 398784, Note_on_c, 0, 76, 92
2, 398832, Note_on_c, 0, 76, 0
2, 398832, Note_on_c, 0, 75, 92
2, 398880, Note_on_c, 0, 75, 0
2, 398880, Note_on_c, 0, 76, 92
2, 398928, Note_on_c, 0, 76, 0
2, 398928, Note_on_c, 0, 79, 92
2, 398976, Note_on_c, 0, 79, 0
2, 398976, Note_on_c, 0, 76, 92
2, 399024, Note_on_c, 0, 76, 0
2, 399024, Note_on_c, 0, 75, 92
2, 399072, Note_on_c, 0, 75, 0
2, 399072, Note_on_c, 0, 76, 92
2, 399120, Note_on_c, 0, 76, 0
2, 399120, Note_on_c, 0, 79, 92
2, 399168, Note_on_c, 0, 79, 0
2, 399168, Note_on_c, 0, 76, 92
2, 399214, Note_on_c, 0, 76, 0
2, 399216, Note_on_c, 0, 72, 127
2, 399264, Note_on_c, 0, 72, 0
2, 399264, Note_on_c, 0, 73, 92
2, 399312, Note_on_c, 0, 73, 0
2, 399312, Note_on_c, 0, 76, 92
2, 399360, Note_on_c, 0, 76, 0
2, 399360, Note_on_c, 0, 73, 92
2, 399408, Note_on_c, 0, 73, 0
2, 399408, Note_on_c, 0, 72, 92
2, 399456, Note_on_c, 0, 72, 0
2, 399456, Note_on_c, 0, 73, 92
2, 399504, Note_on_c, 0, 73, 0
2, 399504, Note_on_c, 0, 76, 92
2, 399552, Note_on_c, 0, 76, 0
2, 399552, Note_on_c, 0, 73, 92
2, 399600, Note_on_c, 0, 73, 0
2, 399600, Note_on_c, 0, 72, 92
2, 399648, Note_on_c, 0, 72, 0
2, 399648, Note_on_c, 0, 73, 92
2, 399696, Note_on_c, 0, 73, 0
2, 399696, Note_on_c, 0, 76, 92
2, 399744, Note_on_c, 0, 76, 0
2, 399744, Note_on_c, 0, 73, 92
2, 399790, Note_on_c, 0, 73, 0
2, 399792, Note_on_c, 0, 69, 127
2, 399840, Note_on_c, 0, 69, 0
2, 399840, Note_on_c, 0, 70, 92
2, 399888, Note_on_c, 0, 70, 0
2, 399888, Note_on_c, 0, 73, 92
2, 399936, Note_on_c, 0, 73, 0
2, 399936, Note_on_c, 0, 70, 92
2, 399984, Note_on_c, 0, 70, 0
2, 399984, Note_on_c, 0, 69, 92
2, 400032, Note_on_c, 0, 69, 0
2, 400032, Note_on_c, 0, 70, 92
2, 400080, Note_on_c, 0, 70, 0
2, 400080, Note_on_c, 0, 73, 92
2, 400128, Note_on_c, 0, 73, 0
2, 400128, Note_on_c, 0, 70, 92
2, 400176, Note_on_c, 0, 70, 0
2, 400176, Note_on_c, 0, 69, 92
2, 400224, Note_on_c, 0, 69, 0
2, 400224, Note_on_c, 0, 70, 92
2, 400272, Note_on_c, 0, 70, 0
2, 400272, Note_on_c, 0, 73, 92
2, 400320, Note_on_c, 0, 73, 0
2, 400320, Note_on_c, 0, 70, 92
2, 400366, Note_on_c, 0, 70, 0
2, 400368, Note_on_c, 0, 66, 127
2, 400416, Note_on_c, 0, 66, 0
2, 400416, Note_on_c, 0, 67, 92
2, 400464, Note_on_c, 0, 67, 0
2, 400464, Note_on_c, 0, 70, 92
2, 400512, Note_on_c, 0, 70, 0
2, 400512, Note_on_c, 0, 67, 92
2, 400560, Note_on_c, 0, 67, 0
2, 400560, Note_on_c, 0, 66, 92
2, 400608, Note_on_c, 0, 66, 0
2, 400608, Note_on_c, 0, 67, 92
2, 400656, Note_on_c, 0, 67, 0
2, 400656, Note_on_c, 0, 70, 92
2, 400704, Note_on_c, 0, 70, 0
2, 400704, Note_on_c, 0, 67, 92
2, 400752, Note_on_c, 0, 67, 0
2, 400752, Note_on_c, 0, 66, 92
2, 400800, Note_on_c, 0, 66, 0
2, 400800, Note_on_c, 0, 67, 92
2, 400848, Note_on_c, 0, 67, 0
2, 400848, Note_on_c, 0, 70, 92
2, 400896, Note_on_c, 0, 70, 0
2, 400896, Note_on_c, 0, 67, 92
2, 400942, Note_on_c, 0, 67, 0
2, 400944, Note_on_c, 0, 66, 92
2, 400992, Note_on_c, 0, 66, 0
2, 400992, Note_on_c, 0, 67, 92
2, 401040, Note_on_c, 0, 67, 0
2, 401040, Note_on_c, 0, 70, 92
2, 401088, Note_on_c, 0, 70, 0
2, 401088, Note_on_c, 0, 67, 92
2, 401136, Note_on_c, 0, 67, 0
2, 401136, Note_on_c, 0, 66, 92
2, 401184, Note_on_c, 0, 66, 0
2, 401184, Note_on_c, 0, 67, 92
2, 401232, Note_on_c, 0, 67, 0
2, 401232, Note_on_c, 0, 70, 92
2, 401280, Note_on_c, 0, 70, 0
2, 401280, Note_on_c, 0, 67, 92
2, 401328, Note_on_c, 0, 67, 0
2, 401328, Note_on_c, 0, 66, 92
2, 401376, Note_on_c, 0, 66, 0
2, 401376, Note_on_c, 0, 67, 92
2, 401424, Note_on_c, 0, 67, 0
2, 401424, Note_on_c, 0, 70, 92
2, 401472, Note_on_c, 0, 70, 0
2, 401472, Note_on_c, 0, 67, 92
2, 401518, Note_on_c, 0, 67, 0
2, 401520, Note_on_c, 0, 66, 45
2, 401568, Note_on_c, 0, 66, 0
2, 401568, Note_on_c, 0, 67, 45
2, 401616, Note_on_c, 0, 67, 0
2, 401616, Note_on_c, 0, 70, 45
2, 401664, Note_on_c, 0, 70, 0
2, 401664, Note_on_c, 0, 67, 45
2, 401712, Note_on_c, 0, 67, 0
2, 401712, Note_on_c, 0, 66, 45
2, 401760, Note_on_c, 0, 66, 0
2, 401760, Note_on_c, 0, 67, 45
2, 401808, Note_on_c, 0, 67, 0
2, 401808, Note_on_c, 0, 70, 45
2, 401856, Note_on_c, 0, 70, 0
2, 401856, Note_on_c, 0, 73, 45
2, 401904, Note_on_c, 0, 73, 0
2, 401904, Note_on_c, 0, 70, 45
2, 401952, Note_on_c, 0, 70, 0
2, 401952, Note_on_c, 0, 67, 45
2, 402000, Note_on_c, 0, 67, 0
2, 402000, Note_on_c, 0, 66, 45
2, 402048, Note_on_c, 0, 66, 0
2, 402048, Note_on_c, 0, 67, 45
2, 402096, Note_on_c, 0, 67, 0
2, 402096, Note_on_c, 0, 70, 30
2, 402144, Note_on_c, 0, 70, 0
2, 402144, Note_on_c, 0, 73, 30
2, 402192, Note_on_c, 0, 73, 0
2, 402192, Note_on_c, 0, 76, 30
2, 402240, Note_on_c, 0, 76, 0
2, 402240, Note_on_c, 0, 67, 30
2, 402288, Note_on_c, 0, 67, 0
2, 402288, Note_on_c, 0, 66, 30
2, 402336, Note_on_c, 0, 66, 0
2, 402336, Note_on_c, 0, 67, 30
2, 402384, Note_on_c, 0, 67, 0
2, 402384, Note_on_c, 0, 70, 30
2, 402432, Note_on_c, 0, 70, 0
2, 402432, Note_on_c, 0, 73, 30
2, 402480, Note_on_c, 0, 73, 0
2, 402480, Note_on_c, 0, 76, 30
2, 402528, Note_on_c, 0, 76, 0
2, 402528, Note_on_c, 0, 69, 30
2, 402576, Note_on_c, 0, 69, 0
2, 402576, Note_on_c, 0, 77, 30
2, 402624, Note_on_c, 0, 77, 0
2, 402624, Note_on_c, 0, 76, 30
2, 402672, Note_on_c, 0, 76, 0
2, 402672, Note_on_c, 0, 74, 45
2, 402704, Note_on_c, 0, 74, 0
2, 402816, Note_on_c, 0, 69, 45
2, 402864, Note_on_c, 0, 69, 0
2, 402864, Note_on_c, 0, 77, 45
2, 402912, Note_on_c, 0, 77, 0
2, 402912, Note_on_c, 0, 76, 45
2, 402960, Note_on_c, 0, 76, 0
2, 402960, Note_on_c, 0, 74, 45
2, 402992, Note_on_c, 0, 74, 0
2, 403104, Note_on_c, 0, 69, 45
2, 403152, Note_on_c, 0, 69, 0
2, 403152, Note_on_c, 0, 77, 45
2, 403200, Note_on_c, 0, 77, 0
2, 403200, Note_on_c, 0, 76, 45
2, 403248, Note_on_c, 0, 76, 0
2, 403248, Note_on_c, 0, 74, 45
2, 403280, Note_on_c, 0, 74, 0
2, 403392, Note_on_c, 0, 69, 45
2, 403440, Note_on_c, 0, 69, 0
2, 403440, Note_on_c, 0, 77, 45
2, 403488, Note_on_c, 0, 77, 0
2, 403488, Note_on_c, 0, 74, 45
2, 403536, Note_on_c, 0, 74, 0
2, 403536, Note_on_c, 0, 76, 45
2, 403568, Note_on_c, 0, 76, 0
2, 403680, Note_on_c, 0, 69, 45
2, 403728, Note_on_c, 0, 69, 0
2, 403728, Note_on_c, 0, 79, 45
2, 403776, Note_on_c, 0, 79, 0
2, 403776, Note_on_c, 0, 77, 45
2, 403824, Note_on_c, 0, 77, 0
2, 403824, Note_on_c, 0, 76, 45
2, 403856, Note_on_c, 0, 76, 0
2, 403968, Note_on_c, 0, 69, 45
2, 404016, Note_on_c, 0, 69, 0
2, 404016, Note_on_c, 0, 79, 45
2, 404064, Note_on_c, 0, 79, 0
2, 404064, Note_on_c, 0, 77, 45
2, 404112, Note_on_c, 0, 77, 0
2, 404112, Note_on_c, 0, 76, 45
2, 404144, Note_on_c, 0, 76, 0
2, 404256, Note_on_c, 0, 69, 45
2, 404304, Note_on_c, 0, 69, 0
2, 404304, Note_on_c, 0, 79, 45
2, 404352, Note_on_c, 0, 79, 0
2, 404352, Note_on_c, 0, 77, 45
2, 404400, Note_on_c, 0, 77, 0
2, 404400, Note_on_c, 0, 76, 45
2, 404432, Note_on_c, 0, 76, 0
2, 404544, Note_on_c, 0, 69, 45
2, 404592, Note_on_c, 0, 69, 0
2, 404592, Note_on_c, 0, 79, 45
2, 404640, Note_on_c, 0, 79, 0
2, 404640, Note_on_c, 0, 76, 45
2, 404688, Note_on_c, 0, 76, 0
2, 404688, Note_on_c, 0, 77, 45
2, 404720, Note_on_c, 0, 77, 0
2, 404832, Note_on_c, 0, 74, 54
2, 404880, Note_on_c, 0, 74, 0
2, 404880, Note_on_c, 0, 81, 57
2, 404928, Note_on_c, 0, 81, 0
2, 404928, Note_on_c, 0, 86, 60
2, 404976, Note_on_c, 0, 86, 0
2, 404976, Note_on_c, 0, 82, 63
2, 405008, Note_on_c, 0, 82, 0
2, 405120, Note_on_c, 0, 70, 75
2, 405168, Note_on_c, 0, 70, 0
2, 405168, Note_on_c, 0, 74, 75
2, 405216, Note_on_c, 0, 74, 0
2, 405216, Note_on_c, 0, 82, 75
2, 405264, Note_on_c, 0, 82, 0
2, 405264, Note_on_c, 0, 79, 75
2, 405296, Note_on_c, 0, 79, 0
2, 405408, Note_on_c, 0, 67, 75
2, 405456, Note_on_c, 0, 67, 0
2, 405456, Note_on_c, 0, 70, 75
2, 405504, Note_on_c, 0, 70, 0
2, 405504, Note_on_c, 0, 79, 75
2, 405552, Note_on_c, 0, 79, 0
2, 405552, Note_on_c, 0, 76, 75
2, 405584, Note_on_c, 0, 76, 0
2, 405696, Note_on_c, 0, 64, 68
2, 405742, Note_on_c, 0, 64, 0
2, 405744, Note_on_c, 0, 69, 66
2, 405790, Note_on_c, 0, 69, 0
2, 405792, Note_on_c, 0, 76, 64
2, 405838, Note_on_c, 0, 76, 0
2, 405840, Note_on_c, 0, 77, 62
2, 405872, Note_on_c, 0, 77, 0
2, 405984, Note_on_c, 0, 65, 54
2, 406032, Note_on_c, 0, 65, 0
2, 406032, Note_on_c, 0, 69, 51
2, 406080, Note_on_c, 0, 69, 0
2, 406080, Note_on_c, 0, 77, 48
2, 406128, Note_on_c, 0, 77, 0
2, 406128, Note_on_c, 0, 74, 45
2, 406160, Note_on_c, 0, 74, 0
2, 406272, Note_on_c, 0, 62, 45
2, 406320, Note_on_c, 0, 62, 0
2, 406320, Note_on_c, 0, 69, 50
2, 406368, Note_on_c, 0, 69, 0
2, 406368, Note_on_c, 0, 74, 55
2, 406416, Note_on_c, 0, 74, 0
2, 406416, Note_on_c, 0, 73, 60
2, 406448, Note_on_c, 0, 73, 0
2, 406560, Note_on_c, 0, 61, 75
2, 406608, Note_on_c, 0, 61, 0
2, 406608, Note_on_c, 0, 69, 80
2, 406656, Note_on_c, 0, 69, 0
2, 406656, Note_on_c, 0, 73, 86
2, 406704, Note_on_c, 0, 73, 0
2, 406704, Note_on_c, 0, 74, 92
2, 406736, Note_on_c, 0, 74, 0
2, 406896, Note_on_c, 0, 65, 92
2, 406942, Note_on_c, 0, 65, 0
2, 406944, Note_on_c, 0, 69, 92
2, 406990, Note_on_c, 0, 69, 0
2, 406992, Note_on_c, 0, 74, 92
2, 407038, Note_on_c, 0, 74, 0
2, 407040, Note_on_c, 0, 77, 92
2, 407086, Note_on_c, 0, 77, 0
2, 407088, Note_on_c, 0, 81, 92
2, 407134, Note_on_c, 0, 81, 0
2, 407136, Note_on_c, 0, 77, 92
2, 407182, Note_on_c, 0, 77, 0
2, 407184, Note_on_c, 0, 86, 92
2, 407230, Note_on_c, 0, 86, 0
2, 407232, Note_on_c, 0, 81, 92
2, 407278, Note_on_c, 0, 81, 0
2, 407280, Note_on_c, 0, 82, 45
2, 407374, Note_on_c, 0, 82, 0
2, 407424, Note_on_c, 0, 70, 45
2, 407472, Note_on_c, 0, 70, 0
2, 407472, Note_on_c, 0, 74, 48
2, 407520, Note_on_c, 0, 74, 0
2, 407520, Note_on_c, 0, 82, 51
2, 407568, Note_on_c, 0, 82, 0
2, 407568, Note_on_c, 0, 79, 54
2, 407600, Note_on_c, 0, 79, 0
2, 407712, Note_on_c, 0, 67, 64
2, 407760, Note_on_c, 0, 67, 0
2, 407760, Note_on_c, 0, 70, 67
2, 407808, Note_on_c, 0, 70, 0
2, 407808, Note_on_c, 0, 79, 71
2, 407856, Note_on_c, 0, 79, 0
2, 407856, Note_on_c, 0, 75, 75
2, 407888, Note_on_c, 0, 75, 0
2, 408000, Note_on_c, 0, 63, 75
2, 408048, Note_on_c, 0, 63, 0
2, 408048, Note_on_c, 0, 67, 75
2, 408096, Note_on_c, 0, 67, 0
2, 408096, Note_on_c, 0, 75, 75
2, 408144, Note_on_c, 0, 75, 0
2, 408144, Note_on_c, 0, 72, 75
2, 408176, Note_on_c, 0, 72, 0
2, 408288, Note_on_c, 0, 60, 75
2, 408336, Note_on_c, 0, 60, 0
2, 408336, Note_on_c, 0, 65, 75
2, 408384, Note_on_c, 0, 65, 0
2, 408384, Note_on_c, 0, 72, 75
2, 408432, Note_on_c, 0, 72, 0
2, 408432, Note_on_c, 0, 74, 45
2, 408464, Note_on_c, 0, 74, 0
2, 408576, Note_on_c, 0, 62, 45
2, 408624, Note_on_c, 0, 62, 0
2, 408624, Note_on_c, 0, 65, 48
2, 408672, Note_on_c, 0, 65, 0
2, 408672, Note_on_c, 0, 74, 51
2, 408720, Note_on_c, 0, 74, 0
2, 408720, Note_on_c, 0, 75, 54
2, 408752, Note_on_c, 0, 75, 0
2, 408864, Note_on_c, 0, 63, 64
2, 408912, Note_on_c, 0, 63, 0
2, 408912, Note_on_c, 0, 67, 67
2, 408960, Note_on_c, 0, 67, 0
2, 408960, Note_on_c, 0, 75, 71
2, 409008, Note_on_c, 0, 75, 0
2, 409008, Note_on_c, 0, 72, 75
2, 409040, Note_on_c, 0, 72, 0
2, 409152, Note_on_c, 0, 60, 75
2, 409200, Note_on_c, 0, 60, 0
2, 409200, Note_on_c, 0, 69, 75
2, 409248, Note_on_c, 0, 69, 0
2, 409248, Note_on_c, 0, 72, 75
2, 409296, Note_on_c, 0, 72, 0
2, 409296, Note_on_c, 0, 77, 75
2, 409328, Note_on_c, 0, 77, 0
2, 409440, Note_on_c, 0, 65, 75
2, 409488, Note_on_c, 0, 65, 0
2, 409488, Note_on_c, 0, 70, 70
2, 409536, Note_on_c, 0, 70, 0
2, 409536, Note_on_c, 0, 77, 65
2, 409584, Note_on_c, 0, 77, 0
2, 409584, Note_on_c, 0, 74, 60
2, 409616, Note_on_c, 0, 74, 0
2, 409728, Note_on_c, 0, 62, 60
2, 409776, Note_on_c, 0, 62, 0
2, 409776, Note_on_c, 0, 70, 61
2, 409824, Note_on_c, 0, 70, 0
2, 409824, Note_on_c, 0, 74, 62
2, 409872, Note_on_c, 0, 74, 0
2, 409872, Note_on_c, 0, 75, 63
2, 409904, Note_on_c, 0, 75, 0
2, 410016, Note_on_c, 0, 63, 67
2, 410064, Note_on_c, 0, 63, 0
2, 410064, Note_on_c, 0, 67, 68
2, 410112, Note_on_c, 0, 67, 0
2, 410112, Note_on_c, 0, 75, 69
2, 410160, Note_on_c, 0, 75, 0
2, 410160, Note_on_c, 0, 72, 70
2, 410192, Note_on_c, 0, 72, 0
2, 410304, Note_on_c, 0, 60, 74
2, 410352, Note_on_c, 0, 60, 0
2, 410352, Note_on_c, 0, 69, 76
2, 410400, Note_on_c, 0, 69, 0
2, 410400, Note_on_c, 0, 72, 78
2, 410448, Note_on_c, 0, 72, 0
2, 410448, Note_on_c, 0, 70, 80
2, 410480, Note_on_c, 0, 70, 0
2, 410784, Note_on_c, 0, 46, 92
2, 410832, Note_on_c, 0, 46, 0
2, 410832, Note_on_c, 0, 49, 92
2, 410880, Note_on_c, 0, 49, 0
2, 410880, Note_on_c, 0, 53, 92
2, 410928, Note_on_c, 0, 53, 0
2, 410928, Note_on_c, 0, 58, 92
2, 410960, Note_on_c, 0, 58, 0
2, 411072, Note_on_c, 0, 46, 92
2, 411120, Note_on_c, 0, 46, 0
2, 411120, Note_on_c, 0, 49, 92
2, 411168, Note_on_c, 0, 49, 0
2, 411168, Note_on_c, 0, 53, 92
2, 411216, Note_on_c, 0, 53, 0
2, 411216, Note_on_c, 0, 58, 92
2, 411248, Note_on_c, 0, 58, 0
2, 411360, Note_on_c, 0, 46, 92
2, 411408, Note_on_c, 0, 46, 0
2, 411408, Note_on_c, 0, 49, 92
2, 411456, Note_on_c, 0, 49, 0
2, 411456, Note_on_c, 0, 53, 92
2, 411504, Note_on_c, 0, 53, 0
2, 411504, Note_on_c, 0, 58, 92
2, 411536, Note_on_c, 0, 58, 0
2, 411600, Note_on_c, 0, 43, 127
2, 411646, Note_on_c, 0, 43, 0
2, 411648, Note_on_c, 0, 46, 92
2, 411694, Note_on_c, 0, 46, 0
2, 411696, Note_on_c, 0, 52, 92
2, 411742, Note_on_c, 0, 52, 0
2, 411744, Note_on_c, 0, 55, 92
2, 411790, Note_on_c, 0, 55, 0
2, 411792, Note_on_c, 0, 58, 92
2, 411838, Note_on_c, 0, 58, 0
2, 411840, Note_on_c, 0, 64, 92
2, 411886, Note_on_c, 0, 64, 0
2, 411888, Note_on_c, 0, 53, 92
2, 411934, Note_on_c, 0, 53, 0
2, 411936, Note_on_c, 0, 65, 92
2, 411982, Note_on_c, 0, 65, 0
2, 411984, Note_on_c, 0, 56, 92
2, 412030, Note_on_c, 0, 56, 0
2, 412032, Note_on_c, 0, 68, 92
2, 412078, Note_on_c, 0, 68, 0
2, 412080, Note_on_c, 0, 60, 92
2, 412126, Note_on_c, 0, 60, 0
2, 412128, Note_on_c, 0, 72, 92
2, 412174, Note_on_c, 0, 72, 0
2, 412176, Note_on_c, 0, 65, 92
2, 412222, Note_on_c, 0, 65, 0
2, 412224, Note_on_c, 0, 77, 92
2, 412270, Note_on_c, 0, 77, 0
2, 412272, Note_on_c, 0, 68, 92
2, 412318, Note_on_c, 0, 68, 0
2, 412320, Note_on_c, 0, 80, 92
2, 412366, Note_on_c, 0, 80, 0
2, 412368, Note_on_c, 0, 65, 92
2, 412414, Note_on_c, 0, 65, 0
2, 412416, Note_on_c, 0, 77, 92
2, 412462, Note_on_c, 0, 77, 0
2, 412464, Note_on_c, 0, 60, 92
2, 412510, Note_on_c, 0, 60, 0
2, 412512, Note_on_c, 0, 72, 92
2, 412558, Note_on_c, 0, 72, 0
2, 412560, Note_on_c, 0, 56, 92
2, 412606, Note_on_c, 0, 56, 0
2, 412608, Note_on_c, 0, 68, 92
2, 412654, Note_on_c, 0, 68, 0
2, 412656, Note_on_c, 0, 60, 92
2, 412702, Note_on_c, 0, 60, 0
2, 412704, Note_on_c, 0, 72, 92
2, 412750, Note_on_c, 0, 72, 0
2, 412752, Note_on_c, 0, 56, 92
2, 412798, Note_on_c, 0, 56, 0
2, 412800, Note_on_c, 0, 68, 92
2, 412846, Note_on_c, 0, 68, 0
2, 412848, Note_on_c, 0, 53, 92
2, 412894, Note_on_c, 0, 53, 0
2, 412896, Note_on_c, 0, 65, 92
2, 412942, Note_on_c, 0, 65, 0
2, 413088, Note_on_c, 0, 53, 92
2, 413136, Note_on_c, 0, 53, 0
2, 413136, Note_on_c, 0, 56, 92
2, 413184, Note_on_c, 0, 56, 0
2, 413184, Note_on_c, 0, 60, 92
2, 413232, Note_on_c, 0, 60, 0
2, 413232, Note_on_c, 0, 65, 92
2, 413264, Note_on_c, 0, 65, 0
2, 413376, Note_on_c, 0, 53, 92
2, 413424, Note_on_c, 0, 53, 0
2, 413424, Note_on_c, 0, 56, 92
2, 413472, Note_on_c, 0, 56, 0
2, 413472, Note_on_c, 0, 60, 92
2, 413520, Note_on_c, 0, 60, 0
2, 413520, Note_on_c, 0, 65, 92
2, 413552, Note_on_c, 0, 65, 0
2, 413664, Note_on_c, 0, 53, 92
2, 413712, Note_on_c, 0, 53, 0
2, 413712, Note_on_c, 0, 56, 92
2, 413760, Note_on_c, 0, 56, 0
2, 413760, Note_on_c, 0, 60, 92
2, 413808, Note_on_c, 0, 60, 0
2, 413808, Note_on_c, 0, 65, 92
2, 413840, Note_on_c, 0, 65, 0
2, 413904, Note_on_c, 0, 50, 127
2, 413950, Note_on_c, 0, 50, 0
2, 413952, Note_on_c, 0, 53, 92
2, 413998, Note_on_c, 0, 53, 0
2, 414000, Note_on_c, 0, 59, 92
2, 414046, Note_on_c, 0, 59, 0
2, 414048, Note_on_c, 0, 62, 92
2, 414094, Note_on_c, 0, 62, 0
2, 414096, Note_on_c, 0, 65, 92
2, 414142, Note_on_c, 0, 65, 0
2, 414144, Note_on_c, 0, 71, 92
2, 414190, Note_on_c, 0, 71, 0
2, 414192, Note_on_c, 0, 60, 92
2, 414238, Note_on_c, 0, 60, 0
2, 414240, Note_on_c, 0, 72, 92
2, 414286, Note_on_c, 0, 72, 0
2, 414288, Note_on_c, 0, 63, 92
2, 414334, Note_on_c, 0, 63, 0
2, 414336, Note_on_c, 0, 75, 92
2, 414382, Note_on_c, 0, 75, 0
2, 414384, Note_on_c, 0, 67, 92
2, 414430, Note_on_c, 0, 67, 0
2, 414432, Note_on_c, 0, 79, 92
2, 414478, Note_on_c, 0, 79, 0
2, 414480, Note_on_c, 0, 72, 92
2, 414526, Note_on_c, 0, 72, 0
2, 414528, Note_on_c, 0, 84, 92
2, 414574, Note_on_c, 0, 84, 0
2, 414576, Note_on_c, 0, 75, 92
2, 414622, Note_on_c, 0, 75, 0
2, 414624, Note_on_c, 0, 87, 92
2, 414670, Note_on_c, 0, 87, 0
2, 414672, Note_on_c, 0, 72, 92
2, 414718, Note_on_c, 0, 72, 0
2, 414720, Note_on_c, 0, 84, 92
2, 414766, Note_on_c, 0, 84, 0
2, 414768, Note_on_c, 0, 67, 92
2, 414814, Note_on_c, 0, 67, 0
2, 414816, Note_on_c, 0, 79, 92
2, 414862, Note_on_c, 0, 79, 0
2, 414864, Note_on_c, 0, 63, 92
2, 414910, Note_on_c, 0, 63, 0
2, 414912, Note_on_c, 0, 75, 92
2, 414958, Note_on_c, 0, 75, 0
2, 414960, Note_on_c, 0, 67, 92
2, 415006, Note_on_c, 0, 67, 0
2, 415008, Note_on_c, 0, 79, 92
2, 415054, Note_on_c, 0, 79, 0
2, 415056, Note_on_c, 0, 63, 92
2, 415102, Note_on_c, 0, 63, 0
2, 415104, Note_on_c, 0, 75, 92
2, 415150, Note_on_c, 0, 75, 0
2, 415152, Note_on_c, 0, 60, 92
2, 415198, Note_on_c, 0, 60, 0
2, 415200, Note_on_c, 0, 72, 92
2, 415246, Note_on_c, 0, 72, 0
2, 415392, Note_on_c, 0, 48, 92
2, 415440, Note_on_c, 0, 48, 0
2, 415440, Note_on_c, 0, 51, 92
2, 415488, Note_on_c, 0, 51, 0
2, 415488, Note_on_c, 0, 55, 92
2, 415536, Note_on_c, 0, 55, 0
2, 415536, Note_on_c, 0, 60, 92
2, 415568, Note_on_c, 0, 60, 0
2, 415680, Note_on_c, 0, 48, 92
2, 415728, Note_on_c, 0, 48, 0
2, 415728, Note_on_c, 0, 51, 92
2, 415776, Note_on_c, 0, 51, 0
2, 415776, Note_on_c, 0, 55, 92
2, 415824, Note_on_c, 0, 55, 0
2, 415824, Note_on_c, 0, 60, 92
2, 415856, Note_on_c, 0, 60, 0
2, 415968, Note_on_c, 0, 48, 92
2, 416016, Note_on_c, 0, 48, 0
2, 416016, Note_on_c, 0, 51, 92
2, 416064, Note_on_c, 0, 51, 0
2, 416064, Note_on_c, 0, 55, 92
2, 416112, Note_on_c, 0, 55, 0
2, 416112, Note_on_c, 0, 60, 92
2, 416144, Note_on_c, 0, 60, 0
2, 416208, Note_on_c, 0, 45, 127
2, 416254, Note_on_c, 0, 45, 0
2, 416256, Note_on_c, 0, 48, 92
2, 416302, Note_on_c, 0, 48, 0
2, 416304, Note_on_c, 0, 54, 92
2, 416350, Note_on_c, 0, 54, 0
2, 416352, Note_on_c, 0, 57, 92
2, 416398, Note_on_c, 0, 57, 0
2, 416400, Note_on_c, 0, 60, 92
2, 416446, Note_on_c, 0, 60, 0
2, 416448, Note_on_c, 0, 66, 92
2, 416494, Note_on_c, 0, 66, 0
2, 416496, Note_on_c, 0, 55, 92
2, 416542, Note_on_c, 0, 55, 0
2, 416544, Note_on_c, 0, 67, 92
2, 416590, Note_on_c, 0, 67, 0
2, 416592, Note_on_c, 0, 58, 92
2, 416638, Note_on_c, 0, 58, 0
2, 416640, Note_on_c, 0, 70, 92
2, 416686, Note_on_c, 0, 70, 0
2, 416688, Note_on_c, 0, 62, 92
2, 416734, Note_on_c, 0, 62, 0
2, 416736, Note_on_c, 0, 74, 92
2, 416782, Note_on_c, 0, 74, 0
2, 416784, Note_on_c, 0, 67, 92
2, 416830, Note_on_c, 0, 67, 0
2, 416832, Note_on_c, 0, 79, 92
2, 416878, Note_on_c, 0, 79, 0
2, 416880, Note_on_c, 0, 70, 92
2, 416926, Note_on_c, 0, 70, 0
2, 416928, Note_on_c, 0, 82, 92
2, 416974, Note_on_c, 0, 82, 0
2, 416976, Note_on_c, 0, 67, 92
2, 417022, Note_on_c, 0, 67, 0
2, 417024, Note_on_c, 0, 79, 92
2, 417070, Note_on_c, 0, 79, 0
2, 417072, Note_on_c, 0, 62, 92
2, 417118, Note_on_c, 0, 62, 0
2, 417120, Note_on_c, 0, 74, 92
2, 417166, Note_on_c, 0, 74, 0
2, 417168, Note_on_c, 0, 58, 92
2, 417214, Note_on_c, 0, 58, 0
2, 417216, Note_on_c, 0, 70, 92
2, 417262, Note_on_c, 0, 70, 0
2, 417264, Note_on_c, 0, 62, 92
2, 417310, Note_on_c, 0, 62, 0
2, 417312, Note_on_c, 0, 74, 92
2, 417358, Note_on_c, 0, 74, 0
2, 417360, Note_on_c, 0, 58, 92
2, 417406, Note_on_c, 0, 58, 0
2, 417408, Note_on_c, 0, 70, 92
2, 417454, Note_on_c, 0, 70, 0
2, 417456, Note_on_c, 0, 55, 92
2, 417502, Note_on_c, 0, 55, 0
2, 417504, Note_on_c, 0, 67, 92
2, 417550, Note_on_c, 0, 67, 0
2, 417696, Note_on_c, 0, 50, 92
2, 417744, Note_on_c, 0, 50, 0
2, 417744, Note_on_c, 0, 55, 92
2, 417792, Note_on_c, 0, 55, 0
2, 417792, Note_on_c, 0, 58, 92
2, 417840, Note_on_c, 0, 58, 0
2, 417840, Note_on_c, 0, 62, 92
2, 417872, Note_on_c, 0, 62, 0
2, 417984, Note_on_c, 0, 50, 92
2, 418032, Note_on_c, 0, 50, 0
2, 418032, Note_on_c, 0, 55, 92
2, 418080, Note_on_c, 0, 55, 0
2, 418080, Note_on_c, 0, 58, 92
2, 418128, Note_on_c, 0, 58, 0
2, 418128, Note_on_c, 0, 62, 92
2, 418160, Note_on_c, 0, 62, 0
2, 418272, Note_on_c, 0, 50, 92
2, 418320, Note_on_c, 0, 50, 0
2, 418320, Note_on_c, 0, 55, 92
2, 418368, Note_on_c, 0, 55, 0
2, 418368, Note_on_c, 0, 58, 92
2, 418416, Note_on_c, 0, 58, 0
2, 418416, Note_on_c, 0, 62, 92
2, 418448, Note_on_c, 0, 62, 0
2, 418512, Note_on_c, 0, 50, 127
2, 418512, Note_on_c, 0, 56, 127
2, 418558, Note_on_c, 0, 50, 0
2, 418558, Note_on_c, 0, 56, 0
2, 418560, Note_on_c, 0, 62, 92
2, 418606, Note_on_c, 0, 62, 0
2, 418608, Note_on_c, 0, 50, 92
2, 418608, Note_on_c, 0, 56, 92
2, 418654, Note_on_c, 0, 50, 0
2, 418654, Note_on_c, 0, 56, 0
2, 418656, Note_on_c, 0, 62, 92
2, 418702, Note_on_c, 0, 62, 0
2, 418704, Note_on_c, 0, 50, 92
2, 418704, Note_on_c, 0, 56, 92
2, 418750, Note_on_c, 0, 50, 0
2, 418750, Note_on_c, 0, 56, 0
2, 418752, Note_on_c, 0, 62, 92
2, 418798, Note_on_c, 0, 62, 0
2, 418800, Note_on_c, 0, 52, 92
2, 418800, Note_on_c, 0, 57, 92
2, 418800, Note_on_c, 0, 61, 92
2, 418894, Note_on_c, 0, 52, 0
2, 418894, Note_on_c, 0, 57, 0
2, 418894, Note_on_c, 0, 61, 0
2, 418896, Note_on_c, 0, 70, 92
2, 418920, Note_on_c, 0, 70, 0
2, 418920, Note_on_c, 0, 73, 92
2, 418944, Note_on_c, 0, 73, 0
2, 418944, Note_on_c, 0, 70, 92
2, 418992, Note_on_c, 0, 70, 0
2, 418992, Note_on_c, 0, 69, 92
2, 419086, Note_on_c, 0, 69, 0
2, 419088, Note_on_c, 0, 70, 92
2, 419112, Note_on_c, 0, 70, 0
2, 419112, Note_on_c, 0, 72, 92
2, 419136, Note_on_c, 0, 72, 0
2, 419136, Note_on_c, 0, 70, 92
2, 419184, Note_on_c, 0, 70, 0
2, 419184, Note_on_c, 0, 69, 92
2, 419278, Note_on_c, 0, 69, 0
2, 419280, Note_on_c, 0, 70, 92
2, 419304, Note_on_c, 0, 70, 0
2, 419304, Note_on_c, 0, 72, 92
2, 419328, Note_on_c, 0, 72, 0
2, 419328, Note_on_c, 0, 70, 92
2, 419376, Note_on_c, 0, 70, 0
2, 419376, Note_on_c, 0, 69, 92
2, 419470, Note_on_c, 0, 69, 0
2, 419472, Note_on_c, 0, 70, 92
2, 419496, Note_on_c, 0, 70, 0
2, 419496, Note_on_c, 0, 72, 92
2, 419520, Note_on_c, 0, 72, 0
2, 419520, Note_on_c, 0, 70, 92
2, 419568, Note_on_c, 0, 70, 0
2, 419568, Note_on_c, 0, 69, 92
2, 419662, Note_on_c, 0, 69, 0
2, 419664, Note_on_c, 0, 70, 92
2, 419688, Note_on_c, 0, 70, 0
2, 419688, Note_on_c, 0, 72, 92
2, 419712, Note_on_c, 0, 72, 0
2, 419712, Note_on_c, 0, 70, 92
2, 419760, Note_on_c, 0, 70, 0
2, 419760, Note_on_c, 0, 69, 92
2, 419854, Note_on_c, 0, 69, 0
2, 419856, Note_on_c, 0, 70, 92
2, 419880, Note_on_c, 0, 70, 0
2, 419880, Note_on_c, 0, 72, 92
2, 419904, Note_on_c, 0, 72, 0
2, 419904, Note_on_c, 0, 70, 92
2, 419952, Note_on_c, 0, 70, 0
2, 419952, Note_on_c, 0, 69, 92
2, 420046, Note_on_c, 0, 69, 0
2, 420048, Note_on_c, 0, 70, 127
2, 420240, Note_on_c, 0, 70, 0
2, 420240, Note_on_c, 0, 70, 92
2, 420334, Note_on_c, 0, 70, 0
2, 420336, Note_on_c, 0, 69, 92
2, 420368, Note_on_c, 0, 69, 0
2, 420432, Note_on_c, 0, 67, 92
2, 420464, Note_on_c, 0, 67, 0
2, 420528, Note_on_c, 0, 65, 45
2, 420550, Note_on_c, 0, 65, 0
2, 420552, Note_on_c, 0, 67, 45
2, 420574, Note_on_c, 0, 67, 0
2, 420576, Note_on_c, 0, 65, 45
2, 420622, Note_on_c, 0, 65, 0
2, 420624, Note_on_c, 0, 64, 45
2, 420656, Note_on_c, 0, 64, 0
2, 420720, Note_on_c, 0, 62, 45
2, 420752, Note_on_c, 0, 62, 0
2, 420816, Note_on_c, 0, 61, 45
2, 420848, Note_on_c, 0, 61, 0
2, 420912, Note_on_c, 0, 62, 45
2, 420944, Note_on_c, 0, 62, 0
2, 421008, Note_on_c, 0, 64, 45
2, 421040, Note_on_c, 0, 64, 0
2, 421104, Note_on_c, 0, 62, 45
2, 421136, Note_on_c, 0, 62, 0
2, 421200, Note_on_c, 0, 70, 92
2, 421246, Note_on_c, 0, 70, 0
2, 421248, Note_on_c, 0, 82, 92
2, 421294, Note_on_c, 0, 82, 0
2, 421296, Note_on_c, 0, 69, 92
2, 421342, Note_on_c, 0, 69, 0
2, 421344, Note_on_c, 0, 81, 92
2, 421390, Note_on_c, 0, 81, 0
2, 421392, Note_on_c, 0, 70, 92
2, 421438, Note_on_c, 0, 70, 0
2, 421440, Note_on_c, 0, 82, 92
2, 421486, Note_on_c, 0, 82, 0
2, 421488, Note_on_c, 0, 69, 92
2, 421534, Note_on_c, 0, 69, 0
2, 421536, Note_on_c, 0, 81, 92
2, 421582, Note_on_c, 0, 81, 0
2, 421584, Note_on_c, 0, 70, 92
2, 421630, Note_on_c, 0, 70, 0
2, 421632, Note_on_c, 0, 82, 92
2, 421678, Note_on_c, 0, 82, 0
2, 421680, Note_on_c, 0, 69, 92
2, 421726, Note_on_c, 0, 69, 0
2, 421728, Note_on_c, 0, 81, 92
2, 421774, Note_on_c, 0, 81, 0
2, 421776, Note_on_c, 0, 70, 92
2, 421822, Note_on_c, 0, 70, 0
2, 421824, Note_on_c, 0, 82, 92
2, 421870, Note_on_c, 0, 82, 0
2, 421872, Note_on_c, 0, 69, 92
2, 421918, Note_on_c, 0, 69, 0
2, 421920, Note_on_c, 0, 81, 92
2, 421966, Note_on_c, 0, 81, 0
2, 421968, Note_on_c, 0, 70, 92
2, 422014, Note_on_c, 0, 70, 0
2, 422016, Note_on_c, 0, 82, 92
2, 422062, Note_on_c, 0, 82, 0
2, 422064, Note_on_c, 0, 69, 92
2, 422110, Note_on_c, 0, 69, 0
2, 422112, Note_on_c, 0, 81, 92
2, 422158, Note_on_c, 0, 81, 0
2, 422160, Note_on_c, 0, 70, 92
2, 422206, Note_on_c, 0, 70, 0
2, 422208, Note_on_c, 0, 82, 92
2, 422254, Note_on_c, 0, 82, 0
2, 422256, Note_on_c, 0, 69, 92
2, 422256, Note_on_c, 0, 81, 92
2, 422288, Note_on_c, 0, 69, 0
2, 422288, Note_on_c, 0, 81, 0
2, 422352, Note_on_c, 0, 70, 127
2, 422352, Note_on_c, 0, 82, 127
2, 422638, Note_on_c, 0, 70, 0
2, 422638, Note_on_c, 0, 82, 0
2, 422640, Note_on_c, 0, 69, 92
2, 422640, Note_on_c, 0, 81, 92
2, 422672, Note_on_c, 0, 69, 0
2, 422672, Note_on_c, 0, 81, 0
2, 422736, Note_on_c, 0, 67, 92
2, 422736, Note_on_c, 0, 79, 92
2, 422768, Note_on_c, 0, 67, 0
2, 422768, Note_on_c, 0, 79, 0
2, 422832, Note_on_c, 0, 65, 45
2, 422832, Note_on_c, 0, 77, 45
2, 422864, Note_on_c, 0, 65, 0
2, 422864, Note_on_c, 0, 77, 0
2, 422928, Note_on_c, 0, 64, 45
2, 422928, Note_on_c, 0, 76, 45
2, 422960, Note_on_c, 0, 64, 0
2, 422960, Note_on_c, 0, 76, 0
2, 423024, Note_on_c, 0, 62, 45
2, 423024, Note_on_c, 0, 74, 45
2, 423056, Note_on_c, 0, 62, 0
2, 423056, Note_on_c, 0, 74, 0
2, 423120, Note_on_c, 0, 61, 45
2, 423120, Note_on_c, 0, 73, 45
2, 423152, Note_on_c, 0, 61, 0
2, 423152, Note_on_c, 0, 73, 0
2, 423216, Note_on_c, 0, 62, 45
2, 423216, Note_on_c, 0, 74, 45
2, 423248, Note_on_c, 0, 62, 0
2, 423248, Note_on_c, 0, 74, 0
2, 423312, Note_on_c, 0, 64, 45
2, 423312, Note_on_c, 0, 76, 45
2, 423344, Note_on_c, 0, 64, 0
2, 423344, Note_on_c, 0, 76, 0
2, 423408, Note_on_c, 0, 62, 45
2, 423408, Note_on_c, 0, 74, 45
2, 423504, Note_on_c, 0, 62, 0
2, 423504, Note_on_c, 0, 74, 0
2, 423504, Note_on_c, 0, 70, 45
2, 423504, Note_on_c, 0, 82, 45
2, 423598, Note_on_c, 0, 70, 0
2, 423598, Note_on_c, 0, 82, 0
2, 423600, Note_on_c, 0, 70, 48
2, 423600, Note_on_c, 0, 82, 48
2, 423632, Note_on_c, 0, 70, 0
2, 423632, Note_on_c, 0, 82, 0
2, 423696, Note_on_c, 0, 70, 52
2, 423696, Note_on_c, 0, 82, 52
2, 423728, Note_on_c, 0, 70, 0
2, 423728, Note_on_c, 0, 82, 0
2, 423792, Note_on_c, 0, 69, 56
2, 423792, Note_on_c, 0, 81, 56
2, 423824, Note_on_c, 0, 69, 0
2, 423824, Note_on_c, 0, 81, 0
2, 423888, Note_on_c, 0, 67, 60
2, 423888, Note_on_c, 0, 79, 60
2, 423920, Note_on_c, 0, 67, 0
2, 423920, Note_on_c, 0, 79, 0
2, 423984, Note_on_c, 0, 65, 64
2, 423984, Note_on_c, 0, 77, 64
2, 424016, Note_on_c, 0, 65, 0
2, 424016, Note_on_c, 0, 77, 0
2, 424080, Note_on_c, 0, 64, 68
2, 424080, Note_on_c, 0, 76, 68
2, 424112, Note_on_c, 0, 64, 0
2, 424112, Note_on_c, 0, 76, 0
2, 424176, Note_on_c, 0, 62, 72
2, 424176, Note_on_c, 0, 74, 72
2, 424208, Note_on_c, 0, 62, 0
2, 424208, Note_on_c, 0, 74, 0
2, 424272, Note_on_c, 0, 61, 76
2, 424272, Note_on_c, 0, 73, 76
2, 424304, Note_on_c, 0, 61, 0
2, 424304, Note_on_c, 0, 73, 0
2, 424368, Note_on_c, 0, 62, 80
2, 424368, Note_on_c, 0, 74, 80
2, 424400, Note_on_c, 0, 62, 0
2, 424400, Note_on_c, 0, 74, 0
2, 424464, Note_on_c, 0, 64, 84
2, 424464, Note_on_c, 0, 76, 84
2, 424496, Note_on_c, 0, 64, 0
2, 424496, Note_on_c, 0, 76, 0
2, 424560, Note_on_c, 0, 62, 88
2, 424560, Note_on_c, 0, 74, 88
2, 424656, Note_on_c, 0, 62, 0
2, 424656, Note_on_c, 0, 74, 0
2, 424656, Note_on_c, 0, 70, 92
2, 424656, Note_on_c, 0, 82, 92
2, 424750, Note_on_c, 0, 70, 0
2, 424750, Note_on_c, 0, 82, 0
2, 424752, Note_on_c, 0, 70, 92
2, 424752, Note_on_c, 0, 82, 92
2, 424784, Note_on_c, 0, 70, 0
2, 424784, Note_on_c, 0, 82, 0
2, 424848, Note_on_c, 0, 70, 92
2, 424848, Note_on_c, 0, 82, 92
2, 424880, Note_on_c, 0, 70, 0
2, 424880, Note_on_c, 0, 82, 0
2, 424944, Note_on_c, 0, 69, 92
2, 424944, Note_on_c, 0, 81, 92
2, 424976, Note_on_c, 0, 69, 0
2, 424976, Note_on_c, 0, 81, 0
2, 425040, Note_on_c, 0, 67, 92
2, 425040, Note_on_c, 0, 79, 92
2, 425072, Note_on_c, 0, 67, 0
2, 425072, Note_on_c, 0, 79, 0
2, 425136, Note_on_c, 0, 65, 92
2, 425136, Note_on_c, 0, 77, 92
2, 425168, Note_on_c, 0, 65, 0
2, 425168, Note_on_c, 0, 77, 0
2, 425232, Note_on_c, 0, 64, 92
2, 425232, Note_on_c, 0, 76, 92
2, 425264, Note_on_c, 0, 64, 0
2, 425264, Note_on_c, 0, 76, 0
2, 425328, Note_on_c, 0, 62, 92
2, 425328, Note_on_c, 0, 74, 92
2, 425360, Note_on_c, 0, 62, 0
2, 425360, Note_on_c, 0, 74, 0
2, 425424, Note_on_c, 0, 61, 92
2, 425424, Note_on_c, 0, 73, 92
2, 425456, Note_on_c, 0, 61, 0
2, 425456, Note_on_c, 0, 73, 0
2, 425520, Note_on_c, 0, 62, 92
2, 425520, Note_on_c, 0, 74, 92
2, 425552, Note_on_c, 0, 62, 0
2, 425552, Note_on_c, 0, 74, 0
2, 425616, Note_on_c, 0, 64, 92
2, 425616, Note_on_c, 0, 76, 92
2, 425648, Note_on_c, 0, 64, 0
2, 425648, Note_on_c, 0, 76, 0
2, 425712, Note_on_c, 0, 62, 45
2, 425712, Note_on_c, 0, 74, 45
2, 425806, Note_on_c, 0, 62, 0
2, 425806, Note_on_c, 0, 74, 0
2, 425904, Note_on_c, 0, 62, 45
2, 425952, Note_on_c, 0, 62, 0
2, 425952, Note_on_c, 0, 74, 45
2, 426000, Note_on_c, 0, 74, 0
2, 426000, Note_on_c, 0, 65, 45
2, 426032, Note_on_c, 0, 65, 0
2, 426192, Note_on_c, 0, 65, 45
2, 426240, Note_on_c, 0, 65, 0
2, 426240, Note_on_c, 0, 77, 45
2, 426288, Note_on_c, 0, 77, 0
2, 426288, Note_on_c, 0, 69, 45
2, 426320, Note_on_c, 0, 69, 0
2, 426480, Note_on_c, 0, 69, 45
2, 426528, Note_on_c, 0, 69, 0
2, 426528, Note_on_c, 0, 81, 45
2, 426576, Note_on_c, 0, 81, 0
2, 426576, Note_on_c, 0, 65, 45
2, 426608, Note_on_c, 0, 65, 0
2, 426768, Note_on_c, 0, 65, 45
2, 426816, Note_on_c, 0, 65, 0
2, 426816, Note_on_c, 0, 77, 45
2, 426862, Note_on_c, 0, 77, 0
2, 426864, Note_on_c, 0, 62, 63
2, 426960, Note_on_c, 0, 74, 45
2, 427248, Note_on_c, 0, 62, 0
2, 427248, Note_on_c, 0, 74, 0
2, 427248, Note_on_c, 0, 64, 45
2, 427248, Note_on_c, 0, 76, 45
2, 427342, Note_on_c, 0, 64, 0
2, 427342, Note_on_c, 0, 76, 0
2, 427344, Note_on_c, 0, 61, 45
2, 427344, Note_on_c, 0, 73, 45
2, 427376, Note_on_c, 0, 61, 0
2, 427376, Note_on_c, 0, 73, 0
2, 427440, Note_on_c, 0, 62, 45
2, 427440, Note_on_c, 0, 74, 45
2, 427534, Note_on_c, 0, 62, 0
2, 427534, Note_on_c, 0, 74, 0
2, 427584, Note_on_c, 0, 62, 45
2, 427632, Note_on_c, 0, 62, 0
2, 427632, Note_on_c, 0, 74, 45
2, 427680, Note_on_c, 0, 74, 0
2, 427680, Note_on_c, 0, 62, 45
2, 427728, Note_on_c, 0, 62, 0
2, 427728, Note_on_c, 0, 65, 45
2, 427760, Note_on_c, 0, 65, 0
2, 427872, Note_on_c, 0, 65, 45
2, 427920, Note_on_c, 0, 65, 0
2, 427920, Note_on_c, 0, 77, 45
2, 427968, Note_on_c, 0, 77, 0
2, 427968, Note_on_c, 0, 65, 45
2, 428016, Note_on_c, 0, 65, 0
2, 428016, Note_on_c, 0, 69, 45
2, 428048, Note_on_c, 0, 69, 0
2, 428160, Note_on_c, 0, 69, 45
2, 428208, Note_on_c, 0, 69, 0
2, 428208, Note_on_c, 0, 81, 45
2, 428256, Note_on_c, 0, 81, 0
2, 428256, Note_on_c, 0, 69, 45
2, 428304, Note_on_c, 0, 69, 0
2, 428304, Note_on_c, 0, 65, 45
2, 428336, Note_on_c, 0, 65, 0
2, 428448, Note_on_c, 0, 65, 45
2, 428494, Note_on_c, 0, 65, 0
2, 428496, Note_on_c, 0, 77, 45
2, 428542, Note_on_c, 0, 77, 0
2, 428544, Note_on_c, 0, 65, 45
2, 428590, Note_on_c, 0, 65, 0
2, 428592, Note_on_c, 0, 62, 45
2, 428688, Note_on_c, 0, 74, 45
2, 428976, Note_on_c, 0, 62, 0
2, 428976, Note_on_c, 0, 74, 0
2, 428976, Note_on_c, 0, 64, 45
2, 428976, Note_on_c, 0, 76, 45
2, 429070, Note_on_c, 0, 64, 0
2, 429070, Note_on_c, 0, 76, 0
2, 429072, Note_on_c, 0, 61, 45
2, 429072, Note_on_c, 0, 73, 45
2, 429104, Note_on_c, 0, 61, 0
2, 429104, Note_on_c, 0, 73, 0
2, 429168, Note_on_c, 0, 62, 45
2, 429168, Note_on_c, 0, 74, 45
2, 429262, Note_on_c, 0, 62, 0
2, 429262, Note_on_c, 0, 74, 0
2, 429264, Note_on_c, 0, 76, 45
2, 429358, Note_on_c, 0, 76, 0
2, 429360, Note_on_c, 0, 78, 60
2, 429454, Note_on_c, 0, 78, 0
2, 429456, Note_on_c, 0, 79, 75
2, 429550, Note_on_c, 0, 79, 0
2, 429552, Note_on_c, 0, 77, 65
2, 429552, Note_on_c, 0, 86, 65
2, 429646, Note_on_c, 0, 77, 0
2, 429646, Note_on_c, 0, 86, 0
2, 429648, Note_on_c, 0, 76, 55
2, 429648, Note_on_c, 0, 86, 55
2, 429742, Note_on_c, 0, 76, 0
2, 429742, Note_on_c, 0, 86, 0
2, 429744, Note_on_c, 0, 77, 45
2, 429744, Note_on_c, 0, 86, 45
2, 429838, Note_on_c, 0, 77, 0
2, 429838, Note_on_c, 0, 86, 0
2, 429840, Note_on_c, 0, 73, 45
2, 429840, Note_on_c, 0, 85, 45
2, 429934, Note_on_c, 0, 73, 0
2, 429934, Note_on_c, 0, 85, 0
2, 429936, Note_on_c, 0, 74, 45
2, 429936, Note_on_c, 0, 86, 45
2, 430030, Note_on_c, 0, 74, 0
2, 430030, Note_on_c, 0, 86, 0
2, 430032, Note_on_c, 0, 76, 45
2, 430032, Note_on_c, 0, 88, 45
2, 430126, Note_on_c, 0, 76, 0
2, 430126, Note_on_c, 0, 88, 0
2, 430128, Note_on_c, 0, 71, 45
2, 430128, Note_on_c, 0, 83, 45
2, 430222, Note_on_c, 0, 71, 0
2, 430222, Note_on_c, 0, 83, 0
2, 430224, Note_on_c, 0, 73, 45
2, 430224, Note_on_c, 0, 85, 45
2, 430318, Note_on_c, 0, 73, 0
2, 430318, Note_on_c, 0, 85, 0
2, 430320, Note_on_c, 0, 74, 45
2, 430366, Note_on_c, 0, 74, 0
2, 430368, Note_on_c, 0, 86, 50
2, 430414, Note_on_c, 0, 86, 0
2, 430416, Note_on_c, 0, 76, 55
2, 430462, Note_on_c, 0, 76, 0
2, 430464, Note_on_c, 0, 86, 60
2, 430510, Note_on_c, 0, 86, 0
2, 430512, Note_on_c, 0, 78, 65
2, 430558, Note_on_c, 0, 78, 0
2, 430560, Note_on_c, 0, 86, 70
2, 430606, Note_on_c, 0, 86, 0
2, 430608, Note_on_c, 0, 79, 75
2, 430654, Note_on_c, 0, 79, 0
2, 430656, Note_on_c, 0, 86, 73
2, 430702, Note_on_c, 0, 86, 0
2, 430704, Note_on_c, 0, 77, 71
2, 430750, Note_on_c, 0, 77, 0
2, 430752, Note_on_c, 0, 86, 69
2, 430798, Note_on_c, 0, 86, 0
2, 430800, Note_on_c, 0, 76, 66
2, 430846, Note_on_c, 0, 76, 0
2, 430848, Note_on_c, 0, 86, 63
2, 430894, Note_on_c, 0, 86, 0
2, 430896, Note_on_c, 0, 77, 60
2, 430942, Note_on_c, 0, 77, 0
2, 430944, Note_on_c, 0, 86, 60
2, 430990, Note_on_c, 0, 86, 0
2, 430992, Note_on_c, 0, 73, 60
2, 431038, Note_on_c, 0, 73, 0
2, 431040, Note_on_c, 0, 85, 60
2, 431086, Note_on_c, 0, 85, 0
2, 431088, Note_on_c, 0, 74, 60
2, 431134, Note_on_c, 0, 74, 0
2, 431136, Note_on_c, 0, 86, 60
2, 431182, Note_on_c, 0, 86, 0
2, 431184, Note_on_c, 0, 76, 60
2, 431230, Note_on_c, 0, 76, 0
2, 431232, Note_on_c, 0, 88, 60
2, 431278, Note_on_c, 0, 88, 0
2, 431280, Note_on_c, 0, 71, 60
2, 431326, Note_on_c, 0, 71, 0
2, 431328, Note_on_c, 0, 83, 60
2, 431374, Note_on_c, 0, 83, 0
2, 431376, Note_on_c, 0, 73, 60
2, 431422, Note_on_c, 0, 73, 0
2, 431424, Note_on_c, 0, 85, 60
2, 431470, Note_on_c, 0, 85, 0
2, 431472, Note_on_c, 0, 74, 84
2, 431518, Note_on_c, 0, 74, 0
2, 431520, Note_on_c, 0, 86, 60
2, 431566, Note_on_c, 0, 86, 0
2, 431568, Note_on_c, 0, 73, 60
2, 431614, Note_on_c, 0, 73, 0
2, 431616, Note_on_c, 0, 74, 60
2, 431662, Note_on_c, 0, 74, 0
2, 431664, Note_on_c, 0, 86, 60
2, 431710, Note_on_c, 0, 86, 0
2, 431712, Note_on_c, 0, 74, 60
2, 431758, Note_on_c, 0, 74, 0
2, 431760, Note_on_c, 0, 73, 84
2, 431806, Note_on_c, 0, 73, 0
2, 431808, Note_on_c, 0, 74, 60
2, 431854, Note_on_c, 0, 74, 0
2, 431856, Note_on_c, 0, 86, 60
2, 431902, Note_on_c, 0, 86, 0
2, 431904, Note_on_c, 0, 74, 60
2, 431950, Note_on_c, 0, 74, 0
2, 431952, Note_on_c, 0, 73, 60
2, 431998, Note_on_c, 0, 73, 0
2, 432000, Note_on_c, 0, 74, 60
2, 432046, Note_on_c, 0, 74, 0
2, 432048, Note_on_c, 0, 86, 84
2, 432094, Note_on_c, 0, 86, 0
2, 432096, Note_on_c, 0, 74, 60
2, 432142, Note_on_c, 0, 74, 0
2, 432144, Note_on_c, 0, 73, 60
2, 432190, Note_on_c, 0, 73, 0
2, 432192, Note_on_c, 0, 74, 60
2, 432238, Note_on_c, 0, 74, 0
2, 432240, Note_on_c, 0, 86, 60
2, 432286, Note_on_c, 0, 86, 0
2, 432288, Note_on_c, 0, 74, 60
2, 432334, Note_on_c, 0, 74, 0
2, 432336, Note_on_c, 0, 73, 84
2, 432382, Note_on_c, 0, 73, 0
2, 432384, Note_on_c, 0, 74, 60
2, 432430, Note_on_c, 0, 74, 0
2, 432432, Note_on_c, 0, 86, 60
2, 432478, Note_on_c, 0, 86, 0
2, 432480, Note_on_c, 0, 74, 60
2, 432526, Note_on_c, 0, 74, 0
2, 432528, Note_on_c, 0, 73, 60
2, 432574, Note_on_c, 0, 73, 0
2, 432576, Note_on_c, 0, 74, 60
2, 432622, Note_on_c, 0, 74, 0
2, 432624, Note_on_c, 0, 75, 60
2, 432670, Note_on_c, 0, 75, 0
2, 432672, Note_on_c, 0, 74, 60
2, 432718, Note_on_c, 0, 74, 0
2, 432720, Note_on_c, 0, 75, 60
2, 432766, Note_on_c, 0, 75, 0
2, 432768, Note_on_c, 0, 74, 60
2, 432814, Note_on_c, 0, 74, 0
2, 432816, Note_on_c, 0, 75, 60
2, 432862, Note_on_c, 0, 75, 0
2, 432864, Note_on_c, 0, 74, 60
2, 432910, Note_on_c, 0, 74, 0
2, 432912, Note_on_c, 0, 75, 60
2, 432958, Note_on_c, 0, 75, 0
2, 432960, Note_on_c, 0, 74, 60
2, 433006, Note_on_c, 0, 74, 0
2, 433008, Note_on_c, 0, 75, 60
2, 433054, Note_on_c, 0, 75, 0
2, 433056, Note_on_c, 0, 74, 60
2, 433102, Note_on_c, 0, 74, 0
2, 433104, Note_on_c, 0, 75, 60
2, 433150, Note_on_c, 0, 75, 0
2, 433152, Note_on_c, 0, 74, 60
2, 433198, Note_on_c, 0, 74, 0
2, 433200, Note_on_c, 0, 75, 60
2, 433246, Note_on_c, 0, 75, 0
2, 433248, Note_on_c, 0, 74, 60
2, 433294, Note_on_c, 0, 74, 0
2, 433296, Note_on_c, 0, 75, 60
2, 433342, Note_on_c, 0, 75, 0
2, 433344, Note_on_c, 0, 74, 60
2, 433390, Note_on_c, 0, 74, 0
2, 433392, Note_on_c, 0, 75, 60
2, 433438, Note_on_c, 0, 75, 0
2, 433440, Note_on_c, 0, 74, 60
2, 433486, Note_on_c, 0, 74, 0
2, 433488, Note_on_c, 0, 75, 60
2, 433534, Note_on_c, 0, 75, 0
2, 433536, Note_on_c, 0, 74, 60
2, 433582, Note_on_c, 0, 74, 0
2, 433584, Note_on_c, 0, 75, 60
2, 433630, Note_on_c, 0, 75, 0
2, 433632, Note_on_c, 0, 77, 60
2, 433680, Note_on_c, 0, 77, 0
2, 433680, Note_on_c, 0, 82, 60
2, 433728, Note_on_c, 0, 82, 0
2, 433728, Note_on_c, 0, 83, 60
2, 433776, Note_on_c, 0, 83, 0
2, 433776, Note_on_c, 0, 84, 60
2, 433808, Note_on_c, 0, 84, 0
2, 433920, Note_on_c, 0, 75, 60
2, 433968, Note_on_c, 0, 75, 0
2, 433968, Note_on_c, 0, 81, 60
2, 434016, Note_on_c, 0, 81, 0
2, 434016, Note_on_c, 0, 82, 60
2, 434064, Note_on_c, 0, 82, 0
2, 434064, Note_on_c, 0, 84, 60
2, 434096, Note_on_c, 0, 84, 0
2, 434208, Note_on_c, 0, 75, 60
2, 434256, Note_on_c, 0, 75, 0
2, 434256, Note_on_c, 0, 81, 60
2, 434304, Note_on_c, 0, 81, 0
2, 434304, Note_on_c, 0, 82, 60
2, 434352, Note_on_c, 0, 82, 0
2, 434352, Note_on_c, 0, 84, 60
2, 434384, Note_on_c, 0, 84, 0
2, 434496, Note_on_c, 0, 75, 60
2, 434544, Note_on_c, 0, 75, 0
2, 434544, Note_on_c, 0, 81, 60
2, 434592, Note_on_c, 0, 81, 0
2, 434592, Note_on_c, 0, 82, 60
2, 434640, Note_on_c, 0, 82, 0
2, 434640, Note_on_c, 0, 84, 60
2, 434672, Note_on_c, 0, 84, 0
2, 434784, Note_on_c, 0, 74, 60
2, 434832, Note_on_c, 0, 74, 0
2, 434832, Note_on_c, 0, 84, 60
2, 434880, Note_on_c, 0, 84, 0
2, 434880, Note_on_c, 0, 81, 60
2, 434928, Note_on_c, 0, 81, 0
2, 434928, Note_on_c, 0, 82, 60
2, 434960, Note_on_c, 0, 82, 0
2, 435072, Note_on_c, 0, 67, 60
2, 435120, Note_on_c, 0, 67, 0
2, 435120, Note_on_c, 0, 70, 62
2, 435168, Note_on_c, 0, 70, 0
2, 435168, Note_on_c, 0, 74, 64
2, 435214, Note_on_c, 0, 74, 0
2, 435360, Note_on_c, 0, 67, 75
2, 435408, Note_on_c, 0, 67, 0
2, 435408, Note_on_c, 0, 70, 75
2, 435456, Note_on_c, 0, 70, 0
2, 435456, Note_on_c, 0, 73, 75
2, 435502, Note_on_c, 0, 73, 0
2, 435648, Note_on_c, 0, 67, 75
2, 435696, Note_on_c, 0, 67, 0
2, 435696, Note_on_c, 0, 70, 75
2, 435744, Note_on_c, 0, 70, 0
2, 435744, Note_on_c, 0, 74, 75
2, 435790, Note_on_c, 0, 74, 0
2, 435936, Note_on_c, 0, 67, 75
2, 435984, Note_on_c, 0, 67, 0
2, 435984, Note_on_c, 0, 70, 75
2, 436032, Note_on_c, 0, 70, 0
2, 436032, Note_on_c, 0, 76, 75
2, 436078, Note_on_c, 0, 76, 0
2, 436224, Note_on_c, 0, 77, 45
2, 436272, Note_on_c, 0, 77, 0
2, 436272, Note_on_c, 0, 83, 45
2, 436320, Note_on_c, 0, 83, 0
2, 436320, Note_on_c, 0, 85, 45
2, 436368, Note_on_c, 0, 85, 0
2, 436368, Note_on_c, 0, 86, 45
2, 436400, Note_on_c, 0, 86, 0
2, 436512, Note_on_c, 0, 77, 45
2, 436560, Note_on_c, 0, 77, 0
2, 436560, Note_on_c, 0, 83, 45
2, 436608, Note_on_c, 0, 83, 0
2, 436608, Note_on_c, 0, 85, 45
2, 436656, Note_on_c, 0, 85, 0
2, 436656, Note_on_c, 0, 86, 45
2, 436688, Note_on_c, 0, 86, 0
2, 436800, Note_on_c, 0, 77, 45
2, 436848, Note_on_c, 0, 77, 0
2, 436848, Note_on_c, 0, 83, 45
2, 436896, Note_on_c, 0, 83, 0
2, 436896, Note_on_c, 0, 85, 45
2, 436944, Note_on_c, 0, 85, 0
2, 436944, Note_on_c, 0, 86, 45
2, 436976, Note_on_c, 0, 86, 0
2, 437088, Note_on_c, 0, 76, 45
2, 437134, Note_on_c, 0, 76, 0
2, 437136, Note_on_c, 0, 86, 45
2, 437182, Note_on_c, 0, 86, 0
2, 437184, Note_on_c, 0, 83, 45
2, 437230, Note_on_c, 0, 83, 0
2, 437232, Note_on_c, 0, 85, 45
2, 437264, Note_on_c, 0, 85, 0
2, 437376, Note_on_c, 0, 69, 45
2, 437424, Note_on_c, 0, 69, 0
2, 437424, Note_on_c, 0, 73, 47
2, 437472, Note_on_c, 0, 73, 0
2, 437472, Note_on_c, 0, 76, 49
2, 437518, Note_on_c, 0, 76, 0
2, 437664, Note_on_c, 0, 69, 58
2, 437712, Note_on_c, 0, 69, 0
2, 437712, Note_on_c, 0, 73, 60
2, 437760, Note_on_c, 0, 73, 0
2, 437760, Note_on_c, 0, 75, 63
2, 437806, Note_on_c, 0, 75, 0
2, 437952, Note_on_c, 0, 69, 75
2, 438000, Note_on_c, 0, 69, 0
2, 438000, Note_on_c, 0, 73, 75
2, 438048, Note_on_c, 0, 73, 0
2, 438048, Note_on_c, 0, 76, 75
2, 438094, Note_on_c, 0, 76, 0
2, 438240, Note_on_c, 0, 69, 75
2, 438288, Note_on_c, 0, 69, 0
2, 438288, Note_on_c, 0, 73, 75
2, 438336, Note_on_c, 0, 73, 0
2, 438336, Note_on_c, 0, 78, 75
2, 438382, Note_on_c, 0, 78, 0
2, 438528, Note_on_c, 0, 69, 75
2, 438576, Note_on_c, 0, 69, 0
2, 438576, Note_on_c, 0, 73, 74
2, 438624, Note_on_c, 0, 73, 0
2, 438624, Note_on_c, 0, 79, 73
2, 438670, Note_on_c, 0, 79, 0
2, 438816, Note_on_c, 0, 69, 69
2, 438864, Note_on_c, 0, 69, 0
2, 438864, Note_on_c, 0, 73, 68
2, 438912, Note_on_c, 0, 73, 0
2, 438912, Note_on_c, 0, 78, 67
2, 438958, Note_on_c, 0, 78, 0
2, 439104, Note_on_c, 0, 69, 60
2, 439152, Note_on_c, 0, 69, 0
2, 439152, Note_on_c, 0, 73, 60
2, 439200, Note_on_c, 0, 73, 0
2, 439200, Note_on_c, 0, 79, 60
2, 439246, Note_on_c, 0, 79, 0
2, 439392, Note_on_c, 0, 69, 60
2, 439440, Note_on_c, 0, 69, 0
2, 439440, Note_on_c, 0, 73, 60
2, 439488, Note_on_c, 0, 73, 0
2, 439488, Note_on_c, 0, 77, 60
2, 439534, Note_on_c, 0, 77, 0
2, 439680, Note_on_c, 0, 69, 60
2, 439728, Note_on_c, 0, 69, 0
2, 439728, Note_on_c, 0, 73, 61
2, 439776, Note_on_c, 0, 73, 0
2, 439776, Note_on_c, 0, 76, 62
2, 439822, Note_on_c, 0, 76, 0
2, 439968, Note_on_c, 0, 69, 66
2, 440016, Note_on_c, 0, 69, 0
2, 440016, Note_on_c, 0, 73, 67
2, 440064, Note_on_c, 0, 73, 0
2, 440064, Note_on_c, 0, 75, 68
2, 440110, Note_on_c, 0, 75, 0
2, 440256, Note_on_c, 0, 69, 75
2, 440304, Note_on_c, 0, 69, 0
2, 440304, Note_on_c, 0, 73, 75
2, 440352, Note_on_c, 0, 73, 0
2, 440352, Note_on_c, 0, 76, 75
2, 440398, Note_on_c, 0, 76, 0
2, 440544, Note_on_c, 0, 69, 75
2, 440592, Note_on_c, 0, 69, 0
2, 440592, Note_on_c, 0, 73, 75
2, 440640, Note_on_c, 0, 73, 0
2, 440640, Note_on_c, 0, 78, 75
2, 440686, Note_on_c, 0, 78, 0
2, 440832, Note_on_c, 0, 69, 75
2, 440880, Note_on_c, 0, 69, 0
2, 440880, Note_on_c, 0, 73, 72
2, 440928, Note_on_c, 0, 73, 0
2, 440928, Note_on_c, 0, 79, 69
2, 440974, Note_on_c, 0, 79, 0
2, 441120, Note_on_c, 0, 69, 54
2, 441168, Note_on_c, 0, 69, 0
2, 441168, Note_on_c, 0, 73, 50
2, 441216, Note_on_c, 0, 73, 0
2, 441216, Note_on_c, 0, 79, 46
2, 441262, Note_on_c, 0, 79, 0
2, 441408, Note_on_c, 0, 69, 30
2, 441456, Note_on_c, 0, 69, 0
2, 441456, Note_on_c, 0, 73, 30
2, 441504, Note_on_c, 0, 73, 0
2, 441504, Note_on_c, 0, 79, 30
2, 441550, Note_on_c, 0, 79, 0
2, 441696, Note_on_c, 0, 69, 108
2, 441744, Note_on_c, 0, 69, 0
2, 441744, Note_on_c, 0, 77, 108
2, 441744, Note_on_c, 0, 81, 108
2, 441792, Note_on_c, 0, 77, 0
2, 441792, Note_on_c, 0, 76, 108
2, 441840, Note_on_c, 0, 76, 0
2, 441840, Note_on_c, 0, 74, 108
2, 441934, Note_on_c, 0, 74, 0
2, 441934, Note_on_c, 0, 81, 0
2, 441984, Note_on_c, 0, 69, 108
2, 442030, Note_on_c, 0, 69, 0
2, 442032, Note_on_c, 0, 77, 127
2, 442032, Note_on_c, 0, 81, 127
2, 442080, Note_on_c, 0, 77, 0
2, 442080, Note_on_c, 0, 76, 108
2, 442128, Note_on_c, 0, 76, 0
2, 442128, Note_on_c, 0, 74, 108
2, 442222, Note_on_c, 0, 74, 0
2, 442222, Note_on_c, 0, 81, 0
2, 442272, Note_on_c, 0, 69, 108
2, 442318, Note_on_c, 0, 69, 0
2, 442320, Note_on_c, 0, 77, 127
2, 442320, Note_on_c, 0, 81, 127
2, 442368, Note_on_c, 0, 77, 0
2, 442368, Note_on_c, 0, 76, 108
2, 442416, Note_on_c, 0, 76, 0
2, 442416, Note_on_c, 0, 74, 108
2, 442510, Note_on_c, 0, 74, 0
2, 442510, Note_on_c, 0, 81, 0
2, 442560, Note_on_c, 0, 69, 108
2, 442606, Note_on_c, 0, 69, 0
2, 442608, Note_on_c, 0, 77, 127
2, 442608, Note_on_c, 0, 81, 127
2, 442656, Note_on_c, 0, 77, 0
2, 442656, Note_on_c, 0, 81, 0
2, 442656, Note_on_c, 0, 74, 108
2, 442656, Note_on_c, 0, 81, 108
2, 442704, Note_on_c, 0, 74, 0
2, 442704, Note_on_c, 0, 76, 108
2, 442798, Note_on_c, 0, 76, 0
2, 442798, Note_on_c, 0, 81, 0
2, 442848, Note_on_c, 0, 69, 108
2, 442894, Note_on_c, 0, 69, 0
2, 442896, Note_on_c, 0, 79, 127
2, 442896, Note_on_c, 0, 81, 127
2, 442944, Note_on_c, 0, 79, 0
2, 442944, Note_on_c, 0, 77, 108
2, 442992, Note_on_c, 0, 77, 0
2, 442992, Note_on_c, 0, 76, 108
2, 443086, Note_on_c, 0, 76, 0
2, 443086, Note_on_c, 0, 81, 0
2, 443136, Note_on_c, 0, 69, 108
2, 443182, Note_on_c, 0, 69, 0
2, 443184, Note_on_c, 0, 79, 127
2, 443184, Note_on_c, 0, 81, 127
2, 443232, Note_on_c, 0, 79, 0
2, 443232, Note_on_c, 0, 77, 108
2, 443280, Note_on_c, 0, 77, 0
2, 443280, Note_on_c, 0, 76, 108
2, 443374, Note_on_c, 0, 76, 0
2, 443374, Note_on_c, 0, 81, 0
2, 443424, Note_on_c, 0, 69, 108
2, 443470, Note_on_c, 0, 69, 0
2, 443472, Note_on_c, 0, 79, 127
2, 443472, Note_on_c, 0, 81, 127
2, 443520, Note_on_c, 0, 79, 0
2, 443520, Note_on_c, 0, 77, 108
2, 443568, Note_on_c, 0, 77, 0
2, 443568, Note_on_c, 0, 76, 108
2, 443662, Note_on_c, 0, 76, 0
2, 443662, Note_on_c, 0, 81, 0
2, 443712, Note_on_c, 0, 69, 108
2, 443758, Note_on_c, 0, 69, 0
2, 443760, Note_on_c, 0, 79, 127
2, 443760, Note_on_c, 0, 81, 127
2, 443808, Note_on_c, 0, 79, 0
2, 443808, Note_on_c, 0, 76, 108
2, 443856, Note_on_c, 0, 76, 0
2, 443856, Note_on_c, 0, 77, 108
2, 443950, Note_on_c, 0, 77, 0
2, 443950, Note_on_c, 0, 81, 0
2, 444000, Note_on_c, 0, 74, 45
2, 444048, Note_on_c, 0, 74, 0
2, 444048, Note_on_c, 0, 81, 45
2, 444096, Note_on_c, 0, 81, 0
2, 444096, Note_on_c, 0, 86, 45
2, 444144, Note_on_c, 0, 86, 0
2, 444144, Note_on_c, 0, 82, 45
2, 444176, Note_on_c, 0, 82, 0
2, 444288, Note_on_c, 0, 70, 45
2, 444336, Note_on_c, 0, 70, 0
2, 444336, Note_on_c, 0, 74, 48
2, 444384, Note_on_c, 0, 74, 0
2, 444384, Note_on_c, 0, 82, 51
2, 444432, Note_on_c, 0, 82, 0
2, 444432, Note_on_c, 0, 79, 54
2, 444464, Note_on_c, 0, 79, 0
2, 444576, Note_on_c, 0, 67, 64
2, 444624, Note_on_c, 0, 67, 0
2, 444624, Note_on_c, 0, 70, 67
2, 444672, Note_on_c, 0, 70, 0
2, 444672, Note_on_c, 0, 79, 71
2, 444720, Note_on_c, 0, 79, 0
2, 444720, Note_on_c, 0, 76, 75
2, 444752, Note_on_c, 0, 76, 0
2, 444864, Note_on_c, 0, 64, 68
2, 444912, Note_on_c, 0, 64, 0
2, 444912, Note_on_c, 0, 69, 66
2, 444960, Note_on_c, 0, 69, 0
2, 444960, Note_on_c, 0, 76, 64
2, 445008, Note_on_c, 0, 76, 0
2, 445008, Note_on_c, 0, 77, 62
2, 445040, Note_on_c, 0, 77, 0
2, 445152, Note_on_c, 0, 65, 54
2, 445200, Note_on_c, 0, 65, 0
2, 445200, Note_on_c, 0, 69, 51
2, 445248, Note_on_c, 0, 69, 0
2, 445248, Note_on_c, 0, 77, 48
2, 445296, Note_on_c, 0, 77, 0
2, 445296, Note_on_c, 0, 74, 45
2, 445328, Note_on_c, 0, 74, 0
2, 445440, Note_on_c, 0, 62, 45
2, 445486, Note_on_c, 0, 62, 0
2, 445488, Note_on_c, 0, 69, 45
2, 445534, Note_on_c, 0, 69, 0
2, 445536, Note_on_c, 0, 74, 45
2, 445582, Note_on_c, 0, 74, 0
2, 445584, Note_on_c, 0, 73, 45
2, 445616, Note_on_c, 0, 73, 0
2, 445728, Note_on_c, 0, 61, 45
2, 445774, Note_on_c, 0, 61, 0
2, 445776, Note_on_c, 0, 69, 45
2, 445822, Note_on_c, 0, 69, 0
2, 445824, Note_on_c, 0, 73, 45
2, 445870, Note_on_c, 0, 73, 0
2, 445872, Note_on_c, 0, 74, 92
2, 445904, Note_on_c, 0, 74, 0
2, 446064, Note_on_c, 0, 65, 92
2, 446110, Note_on_c, 0, 65, 0
2, 446112, Note_on_c, 0, 69, 92
2, 446158, Note_on_c, 0, 69, 0
2, 446160, Note_on_c, 0, 74, 92
2, 446206, Note_on_c, 0, 74, 0
2, 446208, Note_on_c, 0, 77, 92
2, 446254, Note_on_c, 0, 77, 0
2, 446256, Note_on_c, 0, 81, 92
2, 446302, Note_on_c, 0, 81, 0
2, 446304, Note_on_c, 0, 77, 92
2, 446350, Note_on_c, 0, 77, 0
2, 446352, Note_on_c, 0, 86, 92
2, 446398, Note_on_c, 0, 86, 0
2, 446400, Note_on_c, 0, 81, 92
2, 446446, Note_on_c, 0, 81, 0
2, 446448, Note_on_c, 0, 82, 92
2, 446480, Note_on_c, 0, 82, 0
2, 446592, Note_on_c, 0, 70, 92
2, 446640, Note_on_c, 0, 70, 0
2, 446640, Note_on_c, 0, 74, 92
2, 446688, Note_on_c, 0, 74, 0
2, 446688, Note_on_c, 0, 82, 92
2, 446736, Note_on_c, 0, 82, 0
2, 446736, Note_on_c, 0, 79, 92
2, 446768, Note_on_c, 0, 79, 0
2, 446880, Note_on_c, 0, 67, 92
2, 446928, Note_on_c, 0, 67, 0
2, 446928, Note_on_c, 0, 70, 92
2, 446976, Note_on_c, 0, 70, 0
2, 446976, Note_on_c, 0, 79, 92
2, 447024, Note_on_c, 0, 79, 0
2, 447024, Note_on_c, 0, 76, 92
2, 447056, Note_on_c, 0, 76, 0
2, 447168, Note_on_c, 0, 64, 92
2, 447216, Note_on_c, 0, 64, 0
2, 447216, Note_on_c, 0, 69, 87
2, 447264, Note_on_c, 0, 69, 0
2, 447264, Note_on_c, 0, 76, 82
2, 447312, Note_on_c, 0, 76, 0
2, 447312, Note_on_c, 0, 77, 77
2, 447344, Note_on_c, 0, 77, 0
2, 447456, Note_on_c, 0, 65, 62
2, 447504, Note_on_c, 0, 65, 0
2, 447504, Note_on_c, 0, 69, 57
2, 447552, Note_on_c, 0, 69, 0
2, 447552, Note_on_c, 0, 77, 51
2, 447600, Note_on_c, 0, 77, 0
2, 447600, Note_on_c, 0, 74, 45
2, 447632, Note_on_c, 0, 74, 0
2, 447744, Note_on_c, 0, 62, 45
2, 447792, Note_on_c, 0, 62, 0
2, 447792, Note_on_c, 0, 69, 45
2, 447840, Note_on_c, 0, 69, 0
2, 447840, Note_on_c, 0, 74, 45
2, 447888, Note_on_c, 0, 74, 0
2, 447888, Note_on_c, 0, 73, 45
2, 447920, Note_on_c, 0, 73, 0
2, 448032, Note_on_c, 0, 61, 45
2, 448080, Note_on_c, 0, 61, 0
2, 448080, Note_on_c, 0, 69, 45
2, 448128, Note_on_c, 0, 69, 0
2, 448128, Note_on_c, 0, 73, 45
2, 448176, Note_on_c, 0, 73, 0
2, 448176, Note_on_c, 0, 74, 45
2, 448208, Note_on_c, 0, 74, 0
2, 448248, Note_on_c, 0, 69, 45
2, 448270, Note_on_c, 0, 69, 0
2, 448272, Note_on_c, 0, 81, 63
2, 448464, Note_on_c, 0, 81, 0
2, 448464, Note_on_c, 0, 80, 45
2, 448512, Note_on_c, 0, 80, 0
2, 448512, Note_on_c, 0, 79, 45
2, 448560, Note_on_c, 0, 79, 0
2, 448560, Note_on_c, 0, 78, 45
2, 448608, Note_on_c, 0, 78, 0
2, 448608, Note_on_c, 0, 77, 45
2, 448656, Note_on_c, 0, 77, 0
2, 448656, Note_on_c, 0, 76, 45
2, 448704, Note_on_c, 0, 76, 0
2, 448704, Note_on_c, 0, 75, 45
2, 448752, Note_on_c, 0, 75, 0
2, 448752, Note_on_c, 0, 74, 45
2, 448784, Note_on_c, 0, 74, 0
2, 448896, Note_on_c, 0, 62, 45
2, 448944, Note_on_c, 0, 62, 0
2, 448944, Note_on_c, 0, 69, 50
2, 448992, Note_on_c, 0, 69, 0
2, 448992, Note_on_c, 0, 74, 55
2, 449040, Note_on_c, 0, 74, 0
2, 449040, Note_on_c, 0, 73, 60
2, 449072, Note_on_c, 0, 73, 0
2, 449184, Note_on_c, 0, 61, 75
2, 449230, Note_on_c, 0, 61, 0
2, 449232, Note_on_c, 0, 69, 80
2, 449278, Note_on_c, 0, 69, 0
2, 449280, Note_on_c, 0, 73, 86
2, 449326, Note_on_c, 0, 73, 0
2, 449328, Note_on_c, 0, 74, 92
2, 449360, Note_on_c, 0, 74, 0
2, 449400, Note_on_c, 0, 74, 92
2, 449422, Note_on_c, 0, 74, 0
2, 449424, Note_on_c, 0, 86, 127
2, 449616, Note_on_c, 0, 86, 0
2, 449616, Note_on_c, 0, 85, 92
2, 449664, Note_on_c, 0, 85, 0
2, 449664, Note_on_c, 0, 84, 92
2, 449712, Note_on_c, 0, 84, 0
2, 449712, Note_on_c, 0, 83, 92
2, 449760, Note_on_c, 0, 83, 0
2, 449760, Note_on_c, 0, 82, 92
2, 449808, Note_on_c, 0, 82, 0
2, 449808, Note_on_c, 0, 81, 92
2, 449856, Note_on_c, 0, 81, 0
2, 449856, Note_on_c, 0, 80, 92
2, 449904, Note_on_c, 0, 80, 0
2, 449904, Note_on_c, 0, 81, 45
2, 449936, Note_on_c, 0, 81, 0
2, 450048, Note_on_c, 0, 62, 45
2, 450096, Note_on_c, 0, 62, 0
2, 450096, Note_on_c, 0, 69, 50
2, 450144, Note_on_c, 0, 69, 0
2, 450144, Note_on_c, 0, 74, 55
2, 450192, Note_on_c, 0, 74, 0
2, 450192, Note_on_c, 0, 73, 60
2, 450224, Note_on_c, 0, 73, 0
2, 450336, Note_on_c, 0, 61, 78
2, 450384, Note_on_c, 0, 61, 0
2, 450384, Note_on_c, 0, 69, 84
2, 450432, Note_on_c, 0, 69, 0
2, 450432, Note_on_c, 0, 73, 90
2, 450480, Note_on_c, 0, 73, 0
2, 450480, Note_on_c, 0, 74, 96
2, 450512, Note_on_c, 0, 74, 0
2, 450552, Note_on_c, 0, 74, 105
2, 450574, Note_on_c, 0, 74, 0
2, 450576, Note_on_c, 0, 89, 108
2, 450816, Note_on_c, 0, 89, 0
2, 450816, Note_on_c, 0, 88, 108
2, 450864, Note_on_c, 0, 88, 0
2, 450864, Note_on_c, 0, 87, 108
2, 450912, Note_on_c, 0, 87, 0
2, 450912, Note_on_c, 0, 86, 108
2, 450960, Note_on_c, 0, 86, 0
2, 450960, Note_on_c, 0, 85, 108
2, 451008, Note_on_c, 0, 85, 0
2, 451008, Note_on_c, 0, 84, 108
2, 451056, Note_on_c, 0, 84, 0
2, 451056, Note_on_c, 0, 83, 108
2, 451104, Note_on_c, 0, 83, 0
2, 451104, Note_on_c, 0, 82, 108
2, 451152, Note_on_c, 0, 82, 0
2, 451152, Note_on_c, 0, 81, 108
2, 451200, Note_on_c, 0, 81, 0
2, 451200, Note_on_c, 0, 80, 108
2, 451248, Note_on_c, 0, 80, 0
2, 451248, Note_on_c, 0, 79, 108
2, 451296, Note_on_c, 0, 79, 0
2, 451296, Note_on_c, 0, 78, 108
2, 451344, Note_on_c, 0, 78, 0
2, 451344, Note_on_c, 0, 77, 108
2, 451368, Note_on_c, 0, 77, 0
2, 451368, Note_on_c, 0, 76, 108
2, 451392, Note_on_c, 0, 76, 0
2, 451392, Note_on_c, 0, 75, 108
2, 451416, Note_on_c, 0, 75, 0
2, 451416, Note_on_c, 0, 74, 108
2, 451440, Note_on_c, 0, 74, 0
2, 451440, Note_on_c, 0, 81, 127
2, 451534, Note_on_c, 0, 81, 0
2, 451632, Note_on_c, 0, 69, 108
2, 451726, Note_on_c, 0, 69, 0
2, 451728, Note_on_c, 0, 74, 45
2, 451760, Note_on_c, 0, 74, 0
2, 451872, Note_on_c, 0, 69, 45
2, 451920, Note_on_c, 0, 69, 0
2, 451920, Note_on_c, 0, 77, 45
2, 451968, Note_on_c, 0, 77, 0
2, 451968, Note_on_c, 0, 74, 45
2, 452016, Note_on_c, 0, 74, 0
2, 452016, Note_on_c, 0, 73, 45
2, 452048, Note_on_c, 0, 73, 0
2, 452160, Note_on_c, 0, 69, 45
2, 452208, Note_on_c, 0, 69, 0
2, 452208, Note_on_c, 0, 76, 45
2, 452256, Note_on_c, 0, 76, 0
2, 452256, Note_on_c, 0, 73, 45
2, 452304, Note_on_c, 0, 73, 0
2, 452304, Note_on_c, 0, 74, 45
2, 452336, Note_on_c, 0, 74, 0
2, 452448, Note_on_c, 0, 81, 45
2, 452496, Note_on_c, 0, 81, 0
2, 452496, Note_on_c, 0, 89, 45
2, 452544, Note_on_c, 0, 89, 0
2, 452544, Note_on_c, 0, 86, 45
2, 452592, Note_on_c, 0, 86, 0
2, 452592, Note_on_c, 0, 85, 45
2, 452624, Note_on_c, 0, 85, 0
2, 452736, Note_on_c, 0, 81, 45
2, 452784, Note_on_c, 0, 81, 0
2, 452784, Note_on_c, 0, 88, 45
2, 452832, Note_on_c, 0, 88, 0
2, 452832, Note_on_c, 0, 85, 45
2, 452880, Note_on_c, 0, 85, 0
2, 452880, Note_on_c, 0, 86, 45
2, 452912, Note_on_c, 0, 86, 0
2, 453024, Note_on_c, 0, 69, 45
2, 453072, Note_on_c, 0, 69, 0
2, 453072, Note_on_c, 0, 77, 45
2, 453120, Note_on_c, 0, 77, 0
2, 453120, Note_on_c, 0, 74, 45
2, 453168, Note_on_c, 0, 74, 0
2, 453168, Note_on_c, 0, 73, 45
2, 453200, Note_on_c, 0, 73, 0
2, 453312, Note_on_c, 0, 69, 45
2, 453360, Note_on_c, 0, 69, 0
2, 453360, Note_on_c, 0, 76, 45
2, 453408, Note_on_c, 0, 76, 0
2, 453408, Note_on_c, 0, 73, 45
2, 453456, Note_on_c, 0, 73, 0
2, 453456, Note_on_c, 0, 74, 45
2, 453488, Note_on_c, 0, 74, 0
2, 453600, Note_on_c, 0, 81, 45
2, 453648, Note_on_c, 0, 81, 0
2, 453648, Note_on_c, 0, 89, 45
2, 453696, Note_on_c, 0, 89, 0
2, 453696, Note_on_c, 0, 86, 45
2, 453744, Note_on_c, 0, 86, 0
2, 453744, Note_on_c, 0, 85, 45
2, 453776, Note_on_c, 0, 85, 0
2, 453888, Note_on_c, 0, 81, 45
2, 453936, Note_on_c, 0, 81, 0
2, 453936, Note_on_c, 0, 88, 45
2, 453984, Note_on_c, 0, 88, 0
2, 453984, Note_on_c, 0, 85, 45
2, 454032, Note_on_c, 0, 85, 0
2, 454032, Note_on_c, 0, 86, 45
2, 454064, Note_on_c, 0, 86, 0
2, 454176, Note_on_c, 0, 89, 45
2, 454224, Note_on_c, 0, 89, 0
2, 454224, Note_on_c, 0, 81, 47
2, 454272, Note_on_c, 0, 81, 0
2, 454272, Note_on_c, 0, 86, 49
2, 454320, Note_on_c, 0, 86, 0
2, 454320, Note_on_c, 0, 77, 51
2, 454352, Note_on_c, 0, 77, 0
2, 454464, Note_on_c, 0, 86, 57
2, 454512, Note_on_c, 0, 86, 0
2, 454512, Note_on_c, 0, 77, 59
2, 454560, Note_on_c, 0, 77, 0
2, 454560, Note_on_c, 0, 81, 61
2, 454608, Note_on_c, 0, 81, 0
2, 454608, Note_on_c, 0, 74, 63
2, 454640, Note_on_c, 0, 74, 0
2, 454752, Note_on_c, 0, 81, 69
2, 454800, Note_on_c, 0, 81, 0
2, 454800, Note_on_c, 0, 74, 71
2, 454848, Note_on_c, 0, 74, 0
2, 454848, Note_on_c, 0, 77, 73
2, 454896, Note_on_c, 0, 77, 0
2, 454896, Note_on_c, 0, 69, 75
2, 454928, Note_on_c, 0, 69, 0
2, 455040, Note_on_c, 0, 77, 75
2, 455086, Note_on_c, 0, 77, 0
2, 455088, Note_on_c, 0, 69, 75
2, 455134, Note_on_c, 0, 69, 0
2, 455136, Note_on_c, 0, 74, 75
2, 455182, Note_on_c, 0, 74, 0
2, 455184, Note_on_c, 0, 65, 45
2, 455230, Note_on_c, 0, 65, 0
2, 455232, Note_on_c, 0, 74, 45
2, 455278, Note_on_c, 0, 74, 0
2, 455280, Note_on_c, 0, 69, 45
2, 455326, Note_on_c, 0, 69, 0
2, 455328, Note_on_c, 0, 65, 45
2, 455374, Note_on_c, 0, 65, 0
2, 455376, Note_on_c, 0, 62, 45
2, 455422, Note_on_c, 0, 62, 0
2, 455424, Note_on_c, 0, 57, 45
2, 455470, Note_on_c, 0, 57, 0
2, 455470, End_track
3, 0, Start_track
3, 0, MIDI_port, 0
3, 0, Title_t, "Left Hand"
3, 0, Program_c, 1, 0
3, 0, Control_c, 1, 7, 127
3, 0, Control_c, 1, 10, 64
3, 0, Control_c, 1, 64, 127
3, 0, Note_on_c, 1, 37, 30
3, 48, Note_on_c, 1, 40, 30
3, 96, Note_on_c, 1, 45, 30
3, 384, Note_on_c, 1, 49, 30
3, 408, Note_on_c, 1, 52, 30
3, 432, Note_on_c, 1, 57, 30
3, 736, Note_on_c, 1, 49, 0
3, 736, Note_on_c, 1, 52, 0
3, 736, Note_on_c, 1, 57, 0
3, 1680, Note_on_c, 1, 36, 0
3, 1680, Note_on_c, 1, 40, 0
3, 1680, Note_on_c, 1, 45, 0
3, 1728, Control_c, 1, 64, 0
3, 1728, Note_on_c, 1, 49, 45
3, 1728, Note_on_c, 1, 57, 45
3, 1776, Note_on_c, 1, 49, 0
3, 1776, Note_on_c, 1, 57, 0
3, 1920, Note_on_c, 1, 50, 45
3, 1920, Note_on_c, 1, 57, 45
3, 1968, Note_on_c, 1, 50, 0
3, 1968, Note_on_c, 1, 57, 0
3, 2112, Note_on_c, 1, 52, 45
3, 2112, Note_on_c, 1, 57, 45
3, 2160, Note_on_c, 1, 52, 0
3, 2160, Note_on_c, 1, 57, 0
3, 2304, Note_on_c, 1, 53, 45
3, 2304, Note_on_c, 1, 57, 45
3, 2352, Note_on_c, 1, 53, 0
3, 2352, Note_on_c, 1, 57, 0
3, 2496, Note_on_c, 1, 49, 45
3, 2496, Note_on_c, 1, 57, 45
3, 2544, Note_on_c, 1, 49, 0
3, 2544, Note_on_c, 1, 57, 0
3, 2688, Note_on_c, 1, 50, 45
3, 2688, Note_on_c, 1, 57, 45
3, 2736, Note_on_c, 1, 50, 0
3, 2736, Note_on_c, 1, 57, 0
3, 2880, Note_on_c, 1, 52, 45
3, 2880, Note_on_c, 1, 57, 45
3, 2928, Note_on_c, 1, 52, 0
3, 2928, Note_on_c, 1, 57, 0
3, 3072, Note_on_c, 1, 53, 45
3, 3072, Note_on_c, 1, 57, 45
3, 3120, Note_on_c, 1, 53, 0
3, 3120, Note_on_c, 1, 57, 0
3, 3264, Note_on_c, 1, 54, 45
3, 3264, Note_on_c, 1, 62, 45
3, 3312, Note_on_c, 1, 54, 0
3, 3312, Note_on_c, 1, 62, 0
3, 3456, Note_on_c, 1, 55, 45
3, 3456, Note_on_c, 1, 62, 45
3, 3504, Note_on_c, 1, 55, 0
3, 3504, Note_on_c, 1, 62, 0
3, 3648, Note_on_c, 1, 57, 45
3, 3648, Note_on_c, 1, 62, 45
3, 3696, Note_on_c, 1, 57, 0
3, 3696, Note_on_c, 1, 62, 0
3, 3840, Note_on_c, 1, 58, 45
3, 3840, Note_on_c, 1, 62, 45
3, 3888, Note_on_c, 1, 58, 0
3, 3888, Note_on_c, 1, 62, 0
3, 4032, Note_on_c, 1, 58, 45
3, 4032, Note_on_c, 1, 62, 45
3, 4080, Note_on_c, 1, 58, 0
3, 4080, Note_on_c, 1, 62, 0
3, 4224, Note_on_c, 1, 57, 63
3, 4224, Note_on_c, 1, 62, 63
3, 4560, Note_on_c, 1, 57, 0
3, 4560, Note_on_c, 1, 62, 0
3, 4608, Note_on_c, 1, 57, 45
3, 4608, Note_on_c, 1, 61, 45
3, 4944, Note_on_c, 1, 57, 0
3, 4944, Note_on_c, 1, 61, 0
3, 4992, Control_c, 1, 64, 127
3, 4992, Note_on_c, 1, 40, 30
3, 5040, Note_on_c, 1, 43, 30
3, 5088, Note_on_c, 1, 48, 30
3, 5376, Note_on_c, 1, 52, 30
3, 5400, Note_on_c, 1, 55, 30
3, 5424, Note_on_c, 1, 60, 30
3, 5728, Note_on_c, 1, 52, 0
3, 5728, Note_on_c, 1, 55, 0
3, 5728, Note_on_c, 1, 60, 0
3, 6672, Note_on_c, 1, 40, 0
3, 6672, Note_on_c, 1, 43, 0
3, 6672, Note_on_c, 1, 48, 0
3, 6720, Control_c, 1, 64, 0
3, 6720, Note_on_c, 1, 52, 45
3, 6720, Note_on_c, 1, 60, 45
3, 6880, Note_on_c, 1, 52, 0
3, 6880, Note_on_c, 1, 60, 0
3, 6912, Note_on_c, 1, 53, 45
3, 6912, Note_on_c, 1, 60, 45
3, 7072, Note_on_c, 1, 53, 0
3, 7072, Note_on_c, 1, 60, 0
3, 7488, Note_on_c, 1, 54, 53
3, 7488, Note_on_c, 1, 62, 53
3, 7648, Note_on_c, 1, 54, 0
3, 7648, Note_on_c, 1, 62, 0
3, 7680, Note_on_c, 1, 55, 56
3, 7680, Note_on_c, 1, 62, 56
3, 7840, Note_on_c, 1, 55, 0
3, 7840, Note_on_c, 1, 62, 0
3, 8256, Note_on_c, 1, 55, 65
3, 8256, Note_on_c, 1, 58, 65
3, 8256, Note_on_c, 1, 63, 65
3, 8304, Note_on_c, 1, 55, 0
3, 8304, Note_on_c, 1, 58, 0
3, 8304, Note_on_c, 1, 63, 0
3, 8640, Note_on_c, 1, 55, 71
3, 8640, Note_on_c, 1, 58, 71
3, 8640, Note_on_c, 1, 61, 71
3, 8640, Note_on_c, 1, 64, 71
3, 8688, Note_on_c, 1, 55, 0
3, 8688, Note_on_c, 1, 58, 0
3, 8688, Note_on_c, 1, 61, 0
3, 8688, Note_on_c, 1, 64, 0
3, 9024, Note_on_c, 1, 55, 77
3, 9024, Note_on_c, 1, 58, 77
3, 9024, Note_on_c, 1, 61, 77
3, 9024, Note_on_c, 1, 64, 77
3, 9072, Note_on_c, 1, 55, 0
3, 9072, Note_on_c, 1, 58, 0
3, 9072, Note_on_c, 1, 61, 0
3, 9072, Note_on_c, 1, 64, 0
3, 9408, Note_on_c, 1, 56, 83
3, 9408, Note_on_c, 1, 59, 83
3, 9408, Note_on_c, 1, 62, 83
3, 9408, Note_on_c, 1, 65, 83
3, 9456, Note_on_c, 1, 56, 0
3, 9456, Note_on_c, 1, 59, 0
3, 9456, Note_on_c, 1, 62, 0
3, 9456, Note_on_c, 1, 65, 0
3, 9792, Note_on_c, 1, 56, 89
3, 9792, Note_on_c, 1, 59, 89
3, 9792, Note_on_c, 1, 62, 89
3, 9792, Note_on_c, 1, 65, 89
3, 9840, Note_on_c, 1, 56, 0
3, 9840, Note_on_c, 1, 59, 0
3, 9840, Note_on_c, 1, 62, 0
3, 9840, Note_on_c, 1, 65, 0
3, 9984, Note_on_c, 1, 57, 92
3, 9984, Note_on_c, 1, 62, 92
3, 9984, Note_on_c, 1, 65, 92
3, 10032, Note_on_c, 1, 57, 0
3, 10032, Note_on_c, 1, 62, 0
3, 10032, Note_on_c, 1, 65, 0
3, 12864, Note_on_c, 1, 46, 127
3, 12960, Note_on_c, 1, 46, 0
3, 12960, Note_on_c, 1, 45, 92
3, 13054, Note_on_c, 1, 45, 0
3, 13056, Note_on_c, 1, 45, 92
3, 13152, Note_on_c, 1, 45, 0
3, 13152, Note_on_c, 1, 49, 92
3, 13246, Note_on_c, 1, 49, 0
3, 13248, Note_on_c, 1, 49, 92
3, 13344, Note_on_c, 1, 49, 0
3, 13344, Note_on_c, 1, 50, 92
3, 13438, Note_on_c, 1, 50, 0
3, 13440, Note_on_c, 1, 50, 92
3, 13536, Note_on_c, 1, 50, 0
3, 13536, Note_on_c, 1, 46, 92
3, 13630, Note_on_c, 1, 46, 0
3, 13632, Note_on_c, 1, 46, 127
3, 13728, Note_on_c, 1, 46, 0
3, 13728, Note_on_c, 1, 45, 92
3, 13822, Note_on_c, 1, 45, 0
3, 13824, Note_on_c, 1, 45, 92
3, 13920, Note_on_c, 1, 45, 0
3, 13920, Note_on_c, 1, 49, 92
3, 14014, Note_on_c, 1, 49, 0
3, 14016, Note_on_c, 1, 49, 92
3, 14112, Note_on_c, 1, 49, 0
3, 14112, Note_on_c, 1, 50, 92
3, 14206, Note_on_c, 1, 50, 0
3, 14208, Note_on_c, 1, 50, 92
3, 14304, Note_on_c, 1, 50, 0
3, 14304, Note_on_c, 1, 46, 92
3, 14398, Note_on_c, 1, 46, 0
3, 14400, Note_on_c, 1, 46, 127
3, 14496, Note_on_c, 1, 46, 0
3, 14496, Note_on_c, 1, 45, 92
3, 14590, Note_on_c, 1, 45, 0
3, 14592, Note_on_c, 1, 45, 92
3, 14784, Note_on_c, 1, 45, 0
3, 14784, Note_on_c, 1, 50, 127
3, 14784, Note_on_c, 1, 53, 127
3, 15360, Note_on_c, 1, 45, 92
3, 15520, Note_on_c, 1, 45, 0
3, 15520, Note_on_c, 1, 50, 0
3, 15520, Note_on_c, 1, 53, 0
3, 15552, Note_on_c, 1, 45, 92
3, 15552, Note_on_c, 1, 50, 92
3, 15552, Note_on_c, 1, 53, 92
3, 15712, Note_on_c, 1, 45, 0
3, 15712, Note_on_c, 1, 50, 0
3, 15712, Note_on_c, 1, 53, 0
3, 15744, Note_on_c, 1, 45, 92
3, 15744, Note_on_c, 1, 52, 92
3, 15744, Note_on_c, 1, 55, 92
3, 15904, Note_on_c, 1, 45, 0
3, 15904, Note_on_c, 1, 52, 0
3, 15904, Note_on_c, 1, 55, 0
3, 15936, Note_on_c, 1, 45, 92
3, 15936, Note_on_c, 1, 52, 92
3, 15936, Note_on_c, 1, 55, 92
3, 16096, Note_on_c, 1, 45, 0
3, 16096, Note_on_c, 1, 52, 0
3, 16096, Note_on_c, 1, 55, 0
3, 16128, Note_on_c, 1, 38, 92
3, 16320, Note_on_c, 1, 57, 92
3, 16382, Note_on_c, 1, 57, 0
3, 16384, Note_on_c, 1, 53, 92
3, 16446, Note_on_c, 1, 53, 0
3, 16448, Note_on_c, 1, 57, 92
3, 16510, Note_on_c, 1, 38, 0
3, 16510, Note_on_c, 1, 57, 0
3, 16512, Note_on_c, 1, 41, 92
3, 16512, Note_on_c, 1, 53, 92
3, 16574, Note_on_c, 1, 53, 0
3, 16576, Note_on_c, 1, 57, 92
3, 16638, Note_on_c, 1, 57, 0
3, 16640, Note_on_c, 1, 53, 92
3, 16702, Note_on_c, 1, 41, 0
3, 16702, Note_on_c, 1, 53, 0
3, 16704, Note_on_c, 1, 45, 92
3, 16704, Note_on_c, 1, 57, 92
3, 16766, Note_on_c, 1, 57, 0
3, 16768, Note_on_c, 1, 53, 92
3, 16830, Note_on_c, 1, 53, 0
3, 16832, Note_on_c, 1, 57, 92
3, 16894, Note_on_c, 1, 45, 0
3, 16894, Note_on_c, 1, 57, 0
3, 16896, Note_on_c, 1, 50, 92
3, 16896, Note_on_c, 1, 53, 92
3, 16958, Note_on_c, 1, 53, 0
3, 16960, Note_on_c, 1, 57, 92
3, 17022, Note_on_c, 1, 57, 0
3, 17024, Note_on_c, 1, 53, 92
3, 17086, Note_on_c, 1, 53, 0
3, 17088, Note_on_c, 1, 57, 92
3, 17150, Note_on_c, 1, 57, 0
3, 17152, Note_on_c, 1, 53, 92
3, 17214, Note_on_c, 1, 53, 0
3, 17216, Note_on_c, 1, 57, 92
3, 17278, Note_on_c, 1, 57, 0
3, 17280, Note_on_c, 1, 53, 92
3, 17342, Note_on_c, 1, 53, 0
3, 17344, Note_on_c, 1, 57, 92
3, 17406, Note_on_c, 1, 57, 0
3, 17408, Note_on_c, 1, 53, 92
3, 17470, Note_on_c, 1, 53, 0
3, 17472, Note_on_c, 1, 57, 45
3, 17534, Note_on_c, 1, 57, 0
3, 17536, Note_on_c, 1, 53, 45
3, 17598, Note_on_c, 1, 53, 0
3, 17600, Note_on_c, 1, 57, 45
3, 17662, Note_on_c, 1, 57, 0
3, 17664, Note_on_c, 1, 53, 45
3, 17726, Note_on_c, 1, 53, 0
3, 17728, Note_on_c, 1, 57, 45
3, 17790, Note_on_c, 1, 57, 0
3, 17792, Note_on_c, 1, 53, 45
3, 17854, Note_on_c, 1, 53, 0
3, 17856, Note_on_c, 1, 57, 45
3, 17918, Note_on_c, 1, 57, 0
3, 17920, Note_on_c, 1, 53, 45
3, 17982, Note_on_c, 1, 53, 0
3, 17984, Note_on_c, 1, 57, 45
3, 18046, Note_on_c, 1, 57, 0
3, 18048, Note_on_c, 1, 53, 45
3, 18110, Note_on_c, 1, 53, 0
3, 18112, Note_on_c, 1, 57, 45
3, 18174, Note_on_c, 1, 57, 0
3, 18176, Note_on_c, 1, 53, 45
3, 18238, Note_on_c, 1, 53, 0
3, 18240, Note_on_c, 1, 57, 45
3, 18302, Note_on_c, 1, 57, 0
3, 18304, Note_on_c, 1, 53, 45
3, 18366, Note_on_c, 1, 53, 0
3, 18368, Note_on_c, 1, 57, 45
3, 18430, Note_on_c, 1, 57, 0
3, 18432, Note_on_c, 1, 53, 45
3, 18494, Note_on_c, 1, 53, 0
3, 18496, Note_on_c, 1, 57, 45
3, 18558, Note_on_c, 1, 57, 0
3, 18560, Note_on_c, 1, 53, 45
3, 18622, Note_on_c, 1, 53, 0
3, 18624, Note_on_c, 1, 57, 45
3, 18686, Note_on_c, 1, 57, 0
3, 18688, Note_on_c, 1, 53, 45
3, 18750, Note_on_c, 1, 53, 0
3, 18752, Note_on_c, 1, 57, 45
3, 18814, Note_on_c, 1, 57, 0
3, 18816, Note_on_c, 1, 53, 45
3, 18878, Note_on_c, 1, 53, 0
3, 18880, Note_on_c, 1, 57, 45
3, 18942, Note_on_c, 1, 57, 0
3, 18944, Note_on_c, 1, 53, 45
3, 19006, Note_on_c, 1, 53, 0
3, 19008, Note_on_c, 1, 57, 45
3, 19070, Note_on_c, 1, 57, 0
3, 19072, Note_on_c, 1, 53, 45
3, 19134, Note_on_c, 1, 53, 0
3, 19136, Note_on_c, 1, 57, 45
3, 19198, Note_on_c, 1, 50, 0
3, 19198, Note_on_c, 1, 57, 0
3, 19200, Note_on_c, 1, 40, 92
3, 19392, Note_on_c, 1, 61, 92
3, 19454, Note_on_c, 1, 61, 0
3, 19456, Note_on_c, 1, 55, 92
3, 19518, Note_on_c, 1, 55, 0
3, 19520, Note_on_c, 1, 61, 92
3, 19582, Note_on_c, 1, 40, 0
3, 19582, Note_on_c, 1, 61, 0
3, 19584, Note_on_c, 1, 43, 127
3, 19584, Note_on_c, 1, 55, 127
3, 19646, Note_on_c, 1, 55, 0
3, 19648, Note_on_c, 1, 61, 92
3, 19710, Note_on_c, 1, 61, 0
3, 19712, Note_on_c, 1, 55, 92
3, 19774, Note_on_c, 1, 43, 0
3, 19774, Note_on_c, 1, 55, 0
3, 19776, Note_on_c, 1, 49, 127
3, 19776, Note_on_c, 1, 61, 127
3, 19838, Note_on_c, 1, 61, 0
3, 19840, Note_on_c, 1, 55, 92
3, 19902, Note_on_c, 1, 55, 0
3, 19904, Note_on_c, 1, 61, 92
3, 19966, Note_on_c, 1, 49, 0
3, 19966, Note_on_c, 1, 61, 0
3, 19968, Note_on_c, 1, 52, 92
3, 19968, Note_on_c, 1, 55, 92
3, 20030, Note_on_c, 1, 55, 0
3, 20032, Note_on_c, 1, 61, 92
3, 20094, Note_on_c, 1, 61, 0
3, 20096, Note_on_c, 1, 55, 92
3, 20158, Note_on_c, 1, 55, 0
3, 20160, Note_on_c, 1, 61, 92
3, 20222, Note_on_c, 1, 61, 0
3, 20224, Note_on_c, 1, 55, 92
3, 20286, Note_on_c, 1, 55, 0
3, 20288, Note_on_c, 1, 61, 92
3, 20350, Note_on_c, 1, 61, 0
3, 20352, Note_on_c, 1, 55, 92
3, 20414, Note_on_c, 1, 55, 0
3, 20416, Note_on_c, 1, 61, 92
3, 20478, Note_on_c, 1, 61, 0
3, 20480, Note_on_c, 1, 55, 92
3, 20542, Note_on_c, 1, 55, 0
3, 20544, Note_on_c, 1, 61, 45
3, 20606, Note_on_c, 1, 61, 0
3, 20608, Note_on_c, 1, 55, 45
3, 20670, Note_on_c, 1, 55, 0
3, 20672, Note_on_c, 1, 61, 45
3, 20734, Note_on_c, 1, 61, 0
3, 20736, Note_on_c, 1, 55, 45
3, 20798, Note_on_c, 1, 55, 0
3, 20800, Note_on_c, 1, 61, 45
3, 20862, Note_on_c, 1, 61, 0
3, 20864, Note_on_c, 1, 55, 45
3, 20926, Note_on_c, 1, 55, 0
3, 20928, Note_on_c, 1, 61, 45
3, 20990, Note_on_c, 1, 61, 0
3, 20992, Note_on_c, 1, 55, 45
3, 21054, Note_on_c, 1, 55, 0
3, 21056, Note_on_c, 1, 61, 45
3, 21118, Note_on_c, 1, 61, 0
3, 21120, Note_on_c, 1, 55, 45
3, 21182, Note_on_c, 1, 55, 0
3, 21184, Note_on_c, 1, 61, 45
3, 21246, Note_on_c, 1, 61, 0
3, 21248, Note_on_c, 1, 55, 45
3, 21310, Note_on_c, 1, 55, 0
3, 21312, Note_on_c, 1, 61, 45
3, 21374, Note_on_c, 1, 61, 0
3, 21376, Note_on_c, 1, 55, 45
3, 21438, Note_on_c, 1, 55, 0
3, 21440, Note_on_c, 1, 61, 45
3, 21502, Note_on_c, 1, 61, 0
3, 21504, Note_on_c, 1, 55, 45
3, 21566, Note_on_c, 1, 55, 0
3, 21568, Note_on_c, 1, 61, 45
3, 21630, Note_on_c, 1, 61, 0
3, 21632, Note_on_c, 1, 55, 45
3, 21694, Note_on_c, 1, 55, 0
3, 21696, Note_on_c, 1, 61, 45
3, 21758, Note_on_c, 1, 61, 0
3, 21760, Note_on_c, 1, 55, 45
3, 21822, Note_on_c, 1, 55, 0
3, 21824, Note_on_c, 1, 61, 45
3, 21886, Note_on_c, 1, 61, 0
3, 21888, Note_on_c, 1, 55, 45
3, 21950, Note_on_c, 1, 55, 0
3, 21952, Note_on_c, 1, 61, 45
3, 22014, Note_on_c, 1, 61, 0
3, 22016, Note_on_c, 1, 55, 45
3, 22078, Note_on_c, 1, 55, 0
3, 22080, Note_on_c, 1, 61, 45
3, 22142, Note_on_c, 1, 61, 0
3, 22144, Note_on_c, 1, 55, 45
3, 22206, Note_on_c, 1, 52, 0
3, 22206, Note_on_c, 1, 55, 0
3, 22208, Note_on_c, 1, 52, 45
3, 22208, Note_on_c, 1, 61, 45
3, 22270, Note_on_c, 1, 52, 0
3, 22270, Note_on_c, 1, 61, 0
3, 22272, Note_on_c, 1, 41, 92
3, 22608, Note_on_c, 1, 41, 0
3, 22656, Note_on_c, 1, 45, 127
3, 22816, Note_on_c, 1, 45, 0
3, 22848, Note_on_c, 1, 50, 127
3, 23008, Note_on_c, 1, 50, 0
3, 23040, Note_on_c, 1, 53, 92
3, 23040, Note_on_c, 1, 57, 92
3, 23102, Note_on_c, 1, 57, 0
3, 23104, Note_on_c, 1, 62, 92
3, 23166, Note_on_c, 1, 62, 0
3, 23168, Note_on_c, 1, 57, 92
3, 23230, Note_on_c, 1, 57, 0
3, 23232, Note_on_c, 1, 62, 92
3, 23294, Note_on_c, 1, 62, 0
3, 23296, Note_on_c, 1, 57, 92
3, 23358, Note_on_c, 1, 57, 0
3, 23360, Note_on_c, 1, 62, 92
3, 23422, Note_on_c, 1, 62, 0
3, 23424, Note_on_c, 1, 57, 92
3, 23486, Note_on_c, 1, 57, 0
3, 23488, Note_on_c, 1, 62, 92
3, 23550, Note_on_c, 1, 62, 0
3, 23552, Note_on_c, 1, 57, 92
3, 23614, Note_on_c, 1, 57, 0
3, 23616, Note_on_c, 1, 62, 92
3, 23678, Note_on_c, 1, 62, 0
3, 23680, Note_on_c, 1, 57, 92
3, 23742, Note_on_c, 1, 57, 0
3, 23744, Note_on_c, 1, 62, 92
3, 23806, Note_on_c, 1, 53, 0
3, 23806, Note_on_c, 1, 62, 0
3, 23808, Note_on_c, 1, 44, 92
3, 24144, Note_on_c, 1, 44, 0
3, 24192, Note_on_c, 1, 47, 127
3, 24352, Note_on_c, 1, 47, 0
3, 24384, Note_on_c, 1, 52, 127
3, 24544, Note_on_c, 1, 52, 0
3, 24576, Note_on_c, 1, 56, 92
3, 24576, Note_on_c, 1, 59, 92
3, 24638, Note_on_c, 1, 59, 0
3, 24640, Note_on_c, 1, 64, 92
3, 24702, Note_on_c, 1, 64, 0
3, 24704, Note_on_c, 1, 59, 92
3, 24766, Note_on_c, 1, 59, 0
3, 24768, Note_on_c, 1, 64, 92
3, 24830, Note_on_c, 1, 64, 0
3, 24832, Note_on_c, 1, 59, 92
3, 24894, Note_on_c, 1, 59, 0
3, 24896, Note_on_c, 1, 64, 92
3, 24958, Note_on_c, 1, 64, 0
3, 24960, Note_on_c, 1, 59, 92
3, 25022, Note_on_c, 1, 59, 0
3, 25024, Note_on_c, 1, 64, 92
3, 25086, Note_on_c, 1, 64, 0
3, 25088, Note_on_c, 1, 59, 92
3, 25150, Note_on_c, 1, 59, 0
3, 25152, Note_on_c, 1, 64, 92
3, 25214, Note_on_c, 1, 64, 0
3, 25216, Note_on_c, 1, 59, 92
3, 25278, Note_on_c, 1, 59, 0
3, 25280, Note_on_c, 1, 64, 92
3, 25342, Note_on_c, 1, 56, 0
3, 25342, Note_on_c, 1, 64, 0
3, 25344, Note_on_c, 1, 45, 92
3, 25680, Note_on_c, 1, 45, 0
3, 25728, Note_on_c, 1, 48, 127
3, 25888, Note_on_c, 1, 48, 0
3, 25920, Note_on_c, 1, 53, 127
3, 26080, Note_on_c, 1, 53, 0
3, 26112, Note_on_c, 1, 57, 92
3, 26112, Note_on_c, 1, 60, 92
3, 26174, Note_on_c, 1, 60, 0
3, 26176, Note_on_c, 1, 65, 92
3, 26238, Note_on_c, 1, 65, 0
3, 26240, Note_on_c, 1, 60, 92
3, 26302, Note_on_c, 1, 60, 0
3, 26304, Note_on_c, 1, 65, 92
3, 26366, Note_on_c, 1, 65, 0
3, 26368, Note_on_c, 1, 60, 92
3, 26430, Note_on_c, 1, 60, 0
3, 26432, Note_on_c, 1, 65, 92
3, 26494, Note_on_c, 1, 65, 0
3, 26496, Note_on_c, 1, 60, 92
3, 26558, Note_on_c, 1, 60, 0
3, 26560, Note_on_c, 1, 65, 92
3, 26622, Note_on_c, 1, 65, 0
3, 26624, Note_on_c, 1, 60, 92
3, 26686, Note_on_c, 1, 60, 0
3, 26688, Note_on_c, 1, 65, 92
3, 26750, Note_on_c, 1, 65, 0
3, 26752, Note_on_c, 1, 60, 92
3, 26814, Note_on_c, 1, 60, 0
3, 26816, Note_on_c, 1, 65, 92
3, 26878, Note_on_c, 1, 57, 0
3, 26878, Note_on_c, 1, 65, 0
3, 26880, Note_on_c, 1, 47, 92
3, 27216, Note_on_c, 1, 47, 0
3, 27264, Note_on_c, 1, 50, 127
3, 27424, Note_on_c, 1, 50, 0
3, 27456, Note_on_c, 1, 56, 127
3, 27616, Note_on_c, 1, 56, 0
3, 27648, Note_on_c, 1, 59, 92
3, 27648, Note_on_c, 1, 62, 92
3, 27710, Note_on_c, 1, 62, 0
3, 27712, Note_on_c, 1, 68, 92
3, 27774, Note_on_c, 1, 68, 0
3, 27776, Note_on_c, 1, 62, 92
3, 27838, Note_on_c, 1, 62, 0
3, 27840, Note_on_c, 1, 68, 92
3, 27902, Note_on_c, 1, 68, 0
3, 27904, Note_on_c, 1, 62, 92
3, 27966, Note_on_c, 1, 62, 0
3, 27968, Note_on_c, 1, 68, 92
3, 28030, Note_on_c, 1, 68, 0
3, 28032, Note_on_c, 1, 62, 92
3, 28094, Note_on_c, 1, 62, 0
3, 28096, Note_on_c, 1, 68, 92
3, 28158, Note_on_c, 1, 68, 0
3, 28160, Note_on_c, 1, 62, 92
3, 28222, Note_on_c, 1, 62, 0
3, 28224, Note_on_c, 1, 68, 92
3, 28286, Note_on_c, 1, 68, 0
3, 28288, Note_on_c, 1, 62, 92
3, 28350, Note_on_c, 1, 62, 0
3, 28352, Note_on_c, 1, 68, 92
3, 28414, Note_on_c, 1, 59, 0
3, 28414, Note_on_c, 1, 68, 0
3, 28416, Note_on_c, 1, 48, 92
3, 28752, Note_on_c, 1, 48, 0
3, 28800, Note_on_c, 1, 57, 127
3, 28960, Note_on_c, 1, 57, 0
3, 28992, Note_on_c, 1, 60, 127
3, 29152, Note_on_c, 1, 60, 0
3, 29184, Note_on_c, 1, 63, 108
3, 29184, Note_on_c, 1, 66, 108
3, 29904, Note_on_c, 1, 63, 0
3, 29904, Note_on_c, 1, 66, 0
3, 29952, Note_on_c, 1, 63, 127
3, 29952, Note_on_c, 1, 66, 127
3, 30672, Note_on_c, 1, 63, 0
3, 30672, Note_on_c, 1, 66, 0
3, 30720, Note_on_c, 1, 63, 127
3, 30720, Note_on_c, 1, 66, 127
3, 31440, Note_on_c, 1, 63, 0
3, 31440, Note_on_c, 1, 66, 0
3, 31488, Note_on_c, 1, 52, 108
3, 31582, Note_on_c, 1, 52, 0
3, 31584, Note_on_c, 1, 64, 45
3, 31678, Note_on_c, 1, 64, 0
3, 31680, Note_on_c, 1, 59, 45
3, 31680, Note_on_c, 1, 62, 45
3, 31774, Note_on_c, 1, 59, 0
3, 31774, Note_on_c, 1, 62, 0
3, 31776, Note_on_c, 1, 64, 45
3, 31870, Note_on_c, 1, 64, 0
3, 31872, Note_on_c, 1, 65, 45
3, 31966, Note_on_c, 1, 65, 0
3, 31968, Note_on_c, 1, 64, 45
3, 32062, Note_on_c, 1, 64, 0
3, 32064, Note_on_c, 1, 59, 45
3, 32064, Note_on_c, 1, 62, 45
3, 32158, Note_on_c, 1, 59, 0
3, 32158, Note_on_c, 1, 62, 0
3, 32160, Note_on_c, 1, 64, 45
3, 32254, Note_on_c, 1, 64, 0
3, 32256, Note_on_c, 1, 52, 45
3, 32350, Note_on_c, 1, 52, 0
3, 32352, Note_on_c, 1, 64, 45
3, 32446, Note_on_c, 1, 64, 0
3, 32448, Note_on_c, 1, 59, 45
3, 32448, Note_on_c, 1, 62, 45
3, 32542, Note_on_c, 1, 59, 0
3, 32542, Note_on_c, 1, 62, 0
3, 32544, Note_on_c, 1, 64, 45
3, 32638, Note_on_c, 1, 64, 0
3, 32640, Note_on_c, 1, 65, 45
3, 32734, Note_on_c, 1, 65, 0
3, 32736, Note_on_c, 1, 64, 45
3, 32830, Note_on_c, 1, 64, 0
3, 32832, Note_on_c, 1, 59, 45
3, 32832, Note_on_c, 1, 62, 45
3, 32926, Note_on_c, 1, 59, 0
3, 32926, Note_on_c, 1, 62, 0
3, 32928, Note_on_c, 1, 64, 45
3, 33022, Note_on_c, 1, 64, 0
3, 33024, Note_on_c, 1, 52, 45
3, 33118, Note_on_c, 1, 52, 0
3, 33120, Note_on_c, 1, 64, 45
3, 33214, Note_on_c, 1, 64, 0
3, 33216, Note_on_c, 1, 59, 45
3, 33216, Note_on_c, 1, 62, 45
3, 33310, Note_on_c, 1, 59, 0
3, 33310, Note_on_c, 1, 62, 0
3, 33312, Note_on_c, 1, 64, 45
3, 33406, Note_on_c, 1, 64, 0
3, 33408, Note_on_c, 1, 65, 45
3, 33502, Note_on_c, 1, 65, 0
3, 33504, Note_on_c, 1, 64, 45
3, 33598, Note_on_c, 1, 64, 0
3, 33600, Note_on_c, 1, 59, 45
3, 33600, Note_on_c, 1, 62, 45
3, 33694, Note_on_c, 1, 59, 0
3, 33694, Note_on_c, 1, 62, 0
3, 33696, Note_on_c, 1, 64, 45
3, 33790, Note_on_c, 1, 64, 0
3, 33792, Note_on_c, 1, 52, 45
3, 33886, Note_on_c, 1, 52, 0
3, 33888, Note_on_c, 1, 64, 45
3, 33982, Note_on_c, 1, 64, 0
3, 33984, Note_on_c, 1, 59, 45
3, 33984, Note_on_c, 1, 62, 45
3, 34078, Note_on_c, 1, 59, 0
3, 34078, Note_on_c, 1, 62, 0
3, 34080, Note_on_c, 1, 64, 45
3, 34174, Note_on_c, 1, 64, 0
3, 34176, Note_on_c, 1, 52, 45
3, 34270, Note_on_c, 1, 52, 0
3, 34272, Note_on_c, 1, 64, 45
3, 34366, Note_on_c, 1, 64, 0
3, 34368, Note_on_c, 1, 56, 45
3, 34368, Note_on_c, 1, 59, 45
3, 34462, Note_on_c, 1, 56, 0
3, 34462, Note_on_c, 1, 59, 0
3, 34464, Note_on_c, 1, 64, 45
3, 34558, Note_on_c, 1, 64, 0
3, 34560, Note_on_c, 1, 52, 45
3, 34654, Note_on_c, 1, 52, 0
3, 34656, Note_on_c, 1, 64, 45
3, 34750, Note_on_c, 1, 64, 0
3, 34752, Note_on_c, 1, 57, 45
3, 34752, Note_on_c, 1, 60, 45
3, 34846, Note_on_c, 1, 57, 0
3, 34846, Note_on_c, 1, 60, 0
3, 34848, Note_on_c, 1, 64, 45
3, 34942, Note_on_c, 1, 64, 0
3, 34944, Note_on_c, 1, 65, 45
3, 35038, Note_on_c, 1, 65, 0
3, 35040, Note_on_c, 1, 64, 45
3, 35134, Note_on_c, 1, 64, 0
3, 35136, Note_on_c, 1, 57, 45
3, 35136, Note_on_c, 1, 60, 45
3, 35230, Note_on_c, 1, 57, 0
3, 35230, Note_on_c, 1, 60, 0
3, 35232, Note_on_c, 1, 64, 45
3, 35326, Note_on_c, 1, 64, 0
3, 35328, Note_on_c, 1, 52, 45
3, 35422, Note_on_c, 1, 52, 0
3, 35424, Note_on_c, 1, 64, 45
3, 35518, Note_on_c, 1, 64, 0
3, 35520, Note_on_c, 1, 57, 45
3, 35520, Note_on_c, 1, 60, 45
3, 35614, Note_on_c, 1, 57, 0
3, 35614, Note_on_c, 1, 60, 0
3, 35616, Note_on_c, 1, 64, 45
3, 35710, Note_on_c, 1, 64, 0
3, 35712, Note_on_c, 1, 65, 45
3, 35806, Note_on_c, 1, 65, 0
3, 35808, Note_on_c, 1, 64, 45
3, 35902, Note_on_c, 1, 64, 0
3, 35904, Note_on_c, 1, 57, 45
3, 35904, Note_on_c, 1, 60, 45
3, 35998, Note_on_c, 1, 57, 0
3, 35998, Note_on_c, 1, 60, 0
3, 36000, Note_on_c, 1, 64, 45
3, 36094, Note_on_c, 1, 64, 0
3, 36096, Note_on_c, 1, 52, 45
3, 36190, Note_on_c, 1, 52, 0
3, 36192, Note_on_c, 1, 64, 45
3, 36286, Note_on_c, 1, 64, 0
3, 36288, Note_on_c, 1, 57, 45
3, 36288, Note_on_c, 1, 60, 45
3, 36382, Note_on_c, 1, 57, 0
3, 36382, Note_on_c, 1, 60, 0
3, 36384, Note_on_c, 1, 64, 45
3, 36478, Note_on_c, 1, 64, 0
3, 36480, Note_on_c, 1, 65, 45
3, 36574, Note_on_c, 1, 65, 0
3, 36576, Note_on_c, 1, 64, 45
3, 36670, Note_on_c, 1, 64, 0
3, 36672, Note_on_c, 1, 57, 45
3, 36672, Note_on_c, 1, 60, 45
3, 36766, Note_on_c, 1, 57, 0
3, 36766, Note_on_c, 1, 60, 0
3, 36768, Note_on_c, 1, 64, 45
3, 36862, Note_on_c, 1, 64, 0
3, 36864, Note_on_c, 1, 52, 45
3, 36958, Note_on_c, 1, 52, 0
3, 36960, Note_on_c, 1, 64, 45
3, 37054, Note_on_c, 1, 64, 0
3, 37056, Note_on_c, 1, 57, 45
3, 37056, Note_on_c, 1, 60, 45
3, 37150, Note_on_c, 1, 57, 0
3, 37150, Note_on_c, 1, 60, 0
3, 37152, Note_on_c, 1, 64, 45
3, 37246, Note_on_c, 1, 64, 0
3, 37248, Note_on_c, 1, 52, 45
3, 37342, Note_on_c, 1, 52, 0
3, 37344, Note_on_c, 1, 64, 45
3, 37438, Note_on_c, 1, 64, 0
3, 37440, Note_on_c, 1, 57, 45
3, 37440, Note_on_c, 1, 60, 45
3, 37534, Note_on_c, 1, 57, 0
3, 37534, Note_on_c, 1, 60, 0
3, 37536, Note_on_c, 1, 64, 45
3, 37630, Note_on_c, 1, 64, 0
3, 37632, Note_on_c, 1, 52, 45
3, 37726, Note_on_c, 1, 52, 0
3, 37728, Note_on_c, 1, 64, 45
3, 37822, Note_on_c, 1, 64, 0
3, 37824, Note_on_c, 1, 59, 45
3, 37824, Note_on_c, 1, 62, 45
3, 37918, Note_on_c, 1, 59, 0
3, 37918, Note_on_c, 1, 62, 0
3, 37920, Note_on_c, 1, 64, 45
3, 38014, Note_on_c, 1, 64, 0
3, 38016, Note_on_c, 1, 65, 45
3, 38110, Note_on_c, 1, 65, 0
3, 38112, Note_on_c, 1, 64, 45
3, 38206, Note_on_c, 1, 64, 0
3, 38208, Note_on_c, 1, 59, 45
3, 38208, Note_on_c, 1, 62, 45
3, 38302, Note_on_c, 1, 59, 0
3, 38302, Note_on_c, 1, 62, 0
3, 38304, Note_on_c, 1, 64, 45
3, 38398, Note_on_c, 1, 64, 0
3, 38400, Note_on_c, 1, 52, 45
3, 38494, Note_on_c, 1, 52, 0
3, 38496, Note_on_c, 1, 64, 45
3, 38590, Note_on_c, 1, 64, 0
3, 38592, Note_on_c, 1, 59, 45
3, 38592, Note_on_c, 1, 62, 45
3, 38686, Note_on_c, 1, 59, 0
3, 38686, Note_on_c, 1, 62, 0
3, 38688, Note_on_c, 1, 64, 45
3, 38782, Note_on_c, 1, 64, 0
3, 38784, Note_on_c, 1, 65, 45
3, 38878, Note_on_c, 1, 65, 0
3, 38880, Note_on_c, 1, 64, 45
3, 38974, Note_on_c, 1, 64, 0
3, 38976, Note_on_c, 1, 59, 45
3, 38976, Note_on_c, 1, 62, 45
3, 39070, Note_on_c, 1, 59, 0
3, 39070, Note_on_c, 1, 62, 0
3, 39072, Note_on_c, 1, 64, 45
3, 39166, Note_on_c, 1, 64, 0
3, 39168, Note_on_c, 1, 52, 45
3, 39262, Note_on_c, 1, 52, 0
3, 39264, Note_on_c, 1, 64, 45
3, 39358, Note_on_c, 1, 64, 0
3, 39360, Note_on_c, 1, 59, 45
3, 39360, Note_on_c, 1, 62, 45
3, 39454, Note_on_c, 1, 59, 0
3, 39454, Note_on_c, 1, 62, 0
3, 39456, Note_on_c, 1, 64, 45
3, 39550, Note_on_c, 1, 64, 0
3, 39552, Note_on_c, 1, 65, 45
3, 39646, Note_on_c, 1, 65, 0
3, 39648, Note_on_c, 1, 64, 45
3, 39742, Note_on_c, 1, 64, 0
3, 39744, Note_on_c, 1, 59, 45
3, 39744, Note_on_c, 1, 62, 45
3, 39838, Note_on_c, 1, 59, 0
3, 39838, Note_on_c, 1, 62, 0
3, 39840, Note_on_c, 1, 64, 45
3, 39934, Note_on_c, 1, 64, 0
3, 39936, Note_on_c, 1, 52, 63
3, 39936, Note_on_c, 1, 59, 63
3, 39936, Note_on_c, 1, 62, 63
3, 40096, Note_on_c, 1, 52, 0
3, 40096, Note_on_c, 1, 59, 0
3, 40096, Note_on_c, 1, 62, 0
3, 41664, Note_on_c, 1, 44, 45
3, 41760, Note_on_c, 1, 44, 0
3, 41760, Note_on_c, 1, 47, 45
3, 41856, Note_on_c, 1, 47, 0
3, 41856, Note_on_c, 1, 38, 45
3, 41952, Note_on_c, 1, 38, 0
3, 41952, Note_on_c, 1, 47, 45
3, 42048, Note_on_c, 1, 47, 0
3, 42048, Note_on_c, 1, 44, 45
3, 42144, Note_on_c, 1, 44, 0
3, 42144, Note_on_c, 1, 38, 45
3, 42240, Note_on_c, 1, 38, 0
3, 42240, Note_on_c, 1, 36, 63
3, 42400, Note_on_c, 1, 36, 0
3, 42432, Note_on_c, 1, 36, 63
3, 42432, Note_on_c, 1, 40, 63
3, 42432, Note_on_c, 1, 45, 63
3, 42592, Note_on_c, 1, 36, 0
3, 42592, Note_on_c, 1, 40, 0
3, 42592, Note_on_c, 1, 45, 0
3, 42624, Note_on_c, 1, 38, 63
3, 42624, Note_on_c, 1, 41, 63
3, 42624, Note_on_c, 1, 46, 63
3, 43344, Note_on_c, 1, 46, 0
3, 43392, Note_on_c, 1, 45, 45
3, 43552, Note_on_c, 1, 45, 0
3, 43584, Note_on_c, 1, 44, 45
3, 43744, Note_on_c, 1, 38, 0
3, 43744, Note_on_c, 1, 41, 0
3, 43744, Note_on_c, 1, 44, 0
3, 43776, Note_on_c, 1, 36, 63
3, 43776, Note_on_c, 1, 40, 63
3, 43776, Note_on_c, 1, 45, 63
3, 43936, Note_on_c, 1, 36, 0
3, 43936, Note_on_c, 1, 40, 0
3, 43936, Note_on_c, 1, 45, 0
3, 43968, Note_on_c, 1, 48, 63
3, 43968, Note_on_c, 1, 52, 63
3, 43968, Note_on_c, 1, 57, 63
3, 44128, Note_on_c, 1, 48, 0
3, 44128, Note_on_c, 1, 52, 0
3, 44128, Note_on_c, 1, 57, 0
3, 44160, Note_on_c, 1, 50, 63
3, 44160, Note_on_c, 1, 53, 63
3, 44160, Note_on_c, 1, 58, 63
3, 44880, Note_on_c, 1, 58, 0
3, 44928, Note_on_c, 1, 57, 45
3, 45088, Note_on_c, 1, 57, 0
3, 45120, Note_on_c, 1, 56, 45
3, 45280, Note_on_c, 1, 50, 0
3, 45280, Note_on_c, 1, 53, 0
3, 45280, Note_on_c, 1, 56, 0
3, 45312, Note_on_c, 1, 48, 63
3, 45312, Note_on_c, 1, 52, 63
3, 45312, Note_on_c, 1, 57, 63
3, 45472, Note_on_c, 1, 48, 0
3, 45472, Note_on_c, 1, 52, 0
3, 45472, Note_on_c, 1, 57, 0
3, 45504, Note_on_c, 1, 60, 63
3, 45504, Note_on_c, 1, 64, 63
3, 45664, Note_on_c, 1, 60, 0
3, 45664, Note_on_c, 1, 64, 0
3, 45696, Note_on_c, 1, 62, 45
3, 45696, Note_on_c, 1, 65, 45
3, 46240, Note_on_c, 1, 62, 0
3, 46240, Note_on_c, 1, 65, 0
3, 46272, Note_on_c, 1, 63, 63
3, 46272, Note_on_c, 1, 66, 63
3, 46432, Note_on_c, 1, 63, 0
3, 46432, Note_on_c, 1, 66, 0
3, 46464, Note_on_c, 1, 64, 45
3, 46464, Note_on_c, 1, 69, 45
3, 47008, Note_on_c, 1, 64, 0
3, 47008, Note_on_c, 1, 69, 0
3, 47040, Note_on_c, 1, 64, 45
3, 47040, Note_on_c, 1, 69, 45
3, 47200, Note_on_c, 1, 64, 0
3, 47232, Note_on_c, 1, 65, 45
3, 47392, Note_on_c, 1, 65, 0
3, 47424, Note_on_c, 1, 61, 45
3, 47584, Note_on_c, 1, 61, 0
3, 47616, Note_on_c, 1, 62, 45
3, 47776, Note_on_c, 1, 62, 0
3, 47776, Note_on_c, 1, 69, 0
3, 47808, Note_on_c, 1, 50, 45
3, 47808, Note_on_c, 1, 58, 45
3, 47808, Note_on_c, 1, 62, 45
3, 47968, Note_on_c, 1, 50, 0
3, 47968, Note_on_c, 1, 58, 0
3, 47968, Note_on_c, 1, 62, 0
3, 48000, Note_on_c, 1, 52, 45
3, 48000, Note_on_c, 1, 57, 45
3, 48000, Note_on_c, 1, 60, 45
3, 48160, Note_on_c, 1, 57, 0
3, 48160, Note_on_c, 1, 60, 0
3, 48192, Note_on_c, 1, 56, 45
3, 48192, Note_on_c, 1, 59, 45
3, 48352, Note_on_c, 1, 52, 0
3, 48352, Note_on_c, 1, 56, 0
3, 48352, Note_on_c, 1, 59, 0
3, 48384, Note_on_c, 1, 45, 92
3, 48384, Note_on_c, 1, 57, 92
3, 48432, Note_on_c, 1, 45, 0
3, 48432, Note_on_c, 1, 57, 0
3, 48576, Note_on_c, 1, 33, 92
3, 48696, Note_on_c, 1, 33, 0
3, 48768, Note_on_c, 1, 34, 127
3, 49536, Note_on_c, 1, 34, 0
3, 49536, Note_on_c, 1, 33, 92
3, 49728, Note_on_c, 1, 33, 0
3, 49728, Note_on_c, 1, 32, 92
3, 49920, Note_on_c, 1, 32, 0
3, 49920, Note_on_c, 1, 33, 127
3, 50080, Note_on_c, 1, 33, 0
3, 50112, Note_on_c, 1, 33, 127
3, 50304, Note_on_c, 1, 33, 0
3, 50304, Note_on_c, 1, 34, 92
3, 51072, Note_on_c, 1, 34, 0
3, 51072, Note_on_c, 1, 33, 92
3, 51264, Note_on_c, 1, 33, 0
3, 51264, Note_on_c, 1, 32, 92
3, 51456, Note_on_c, 1, 32, 0
3, 51456, Note_on_c, 1, 33, 127
3, 51616, Note_on_c, 1, 33, 0
3, 51648, Note_on_c, 1, 33, 127
3, 51840, Note_on_c, 1, 33, 0
3, 51840, Note_on_c, 1, 34, 92
3, 52608, Note_on_c, 1, 34, 0
3, 52608, Note_on_c, 1, 33, 92
3, 52800, Note_on_c, 1, 33, 0
3, 52800, Note_on_c, 1, 32, 92
3, 52992, Note_on_c, 1, 32, 0
3, 52992, Note_on_c, 1, 31, 45
3, 53086, Note_on_c, 1, 31, 0
3, 53088, Note_on_c, 1, 30, 45
3, 53182, Note_on_c, 1, 30, 0
3, 53184, Note_on_c, 1, 31, 45
3, 53278, Note_on_c, 1, 31, 0
3, 53280, Note_on_c, 1, 33, 45
3, 53374, Note_on_c, 1, 33, 0
3, 53376, Note_on_c, 1, 35, 45
3, 53470, Note_on_c, 1, 35, 0
3, 53472, Note_on_c, 1, 31, 45
3, 53566, Note_on_c, 1, 31, 0
3, 53568, Note_on_c, 1, 33, 45
3, 53662, Note_on_c, 1, 33, 0
3, 53664, Note_on_c, 1, 35, 45
3, 53758, Note_on_c, 1, 35, 0
3, 53760, Note_on_c, 1, 36, 45
3, 53854, Note_on_c, 1, 36, 0
3, 53856, Note_on_c, 1, 35, 45
3, 53950, Note_on_c, 1, 35, 0
3, 53952, Note_on_c, 1, 36, 45
3, 54046, Note_on_c, 1, 36, 0
3, 54048, Note_on_c, 1, 38, 45
3, 54142, Note_on_c, 1, 38, 0
3, 54144, Note_on_c, 1, 40, 45
3, 54238, Note_on_c, 1, 40, 0
3, 54240, Note_on_c, 1, 39, 45
3, 54334, Note_on_c, 1, 39, 0
3, 54336, Note_on_c, 1, 40, 45
3, 54430, Note_on_c, 1, 40, 0
3, 54432, Note_on_c, 1, 39, 45
3, 54526, Note_on_c, 1, 39, 0
3, 54528, Note_on_c, 1, 40, 45
3, 54622, Note_on_c, 1, 40, 0
3, 54624, Note_on_c, 1, 39, 45
3, 54718, Note_on_c, 1, 39, 0
3, 54720, Note_on_c, 1, 40, 45
3, 54814, Note_on_c, 1, 40, 0
3, 54816, Note_on_c, 1, 42, 45
3, 54910, Note_on_c, 1, 42, 0
3, 54912, Note_on_c, 1, 44, 45
3, 55006, Note_on_c, 1, 44, 0
3, 55008, Note_on_c, 1, 40, 45
3, 55102, Note_on_c, 1, 40, 0
3, 55104, Note_on_c, 1, 42, 45
3, 55198, Note_on_c, 1, 42, 0
3, 55200, Note_on_c, 1, 44, 45
3, 55294, Note_on_c, 1, 44, 0
3, 55296, Note_on_c, 1, 45, 45
3, 55390, Note_on_c, 1, 45, 0
3, 55392, Note_on_c, 1, 44, 45
3, 55486, Note_on_c, 1, 44, 0
3, 55488, Note_on_c, 1, 45, 45
3, 55582, Note_on_c, 1, 45, 0
3, 55584, Note_on_c, 1, 47, 45
3, 55678, Note_on_c, 1, 47, 0
3, 55680, Note_on_c, 1, 48, 45
3, 55774, Note_on_c, 1, 48, 0
3, 55776, Note_on_c, 1, 45, 45
3, 55870, Note_on_c, 1, 45, 0
3, 55872, Note_on_c, 1, 47, 45
3, 55966, Note_on_c, 1, 47, 0
3, 55968, Note_on_c, 1, 48, 45
3, 56062, Note_on_c, 1, 48, 0
3, 56064, Note_on_c, 1, 50, 45
3, 56158, Note_on_c, 1, 50, 0
3, 56160, Note_on_c, 1, 49, 45
3, 56254, Note_on_c, 1, 49, 0
3, 56256, Note_on_c, 1, 50, 45
3, 56350, Note_on_c, 1, 50, 0
3, 56352, Note_on_c, 1, 52, 45
3, 56446, Note_on_c, 1, 52, 0
3, 56448, Note_on_c, 1, 53, 45
3, 56542, Note_on_c, 1, 53, 0
3, 56544, Note_on_c, 1, 50, 45
3, 56638, Note_on_c, 1, 50, 0
3, 56640, Note_on_c, 1, 52, 45
3, 56734, Note_on_c, 1, 52, 0
3, 56736, Note_on_c, 1, 53, 45
3, 56830, Note_on_c, 1, 53, 0
3, 56832, Note_on_c, 1, 52, 45
3, 56926, Note_on_c, 1, 52, 0
3, 56928, Note_on_c, 1, 63, 45
3, 57022, Note_on_c, 1, 63, 0
3, 57024, Note_on_c, 1, 64, 45
3, 57118, Note_on_c, 1, 64, 0
3, 57120, Note_on_c, 1, 63, 45
3, 57214, Note_on_c, 1, 63, 0
3, 57216, Note_on_c, 1, 64, 45
3, 57310, Note_on_c, 1, 64, 0
3, 57312, Note_on_c, 1, 63, 45
3, 57406, Note_on_c, 1, 63, 0
3, 57408, Note_on_c, 1, 64, 45
3, 57502, Note_on_c, 1, 64, 0
3, 57504, Note_on_c, 1, 52, 45
3, 57598, Note_on_c, 1, 52, 0
3, 57600, Note_on_c, 1, 48, 45
3, 57600, Note_on_c, 1, 60, 45
3, 57600, Note_on_c, 1, 64, 45
3, 57984, Note_on_c, 1, 60, 0
3, 57984, Note_on_c, 1, 64, 0
3, 57984, Note_on_c, 1, 59, 45
3, 57984, Note_on_c, 1, 62, 45
3, 58368, Note_on_c, 1, 59, 0
3, 58368, Note_on_c, 1, 62, 0
3, 58368, Note_on_c, 1, 57, 45
3, 58368, Note_on_c, 1, 60, 45
3, 58752, Note_on_c, 1, 57, 0
3, 58752, Note_on_c, 1, 60, 0
3, 58752, Note_on_c, 1, 56, 45
3, 58752, Note_on_c, 1, 59, 45
3, 59136, Note_on_c, 1, 48, 0
3, 59136, Note_on_c, 1, 56, 0
3, 59136, Note_on_c, 1, 59, 0
3, 59136, Note_on_c, 1, 57, 45
3, 59232, Note_on_c, 1, 57, 0
3, 59232, Note_on_c, 1, 52, 45
3, 59328, Note_on_c, 1, 52, 0
3, 59328, Note_on_c, 1, 48, 45
3, 59424, Note_on_c, 1, 48, 0
3, 59424, Note_on_c, 1, 57, 45
3, 59520, Note_on_c, 1, 57, 0
3, 59520, Note_on_c, 1, 59, 45
3, 59616, Note_on_c, 1, 59, 0
3, 59616, Note_on_c, 1, 56, 45
3, 59712, Note_on_c, 1, 56, 0
3, 59712, Note_on_c, 1, 52, 45
3, 59808, Note_on_c, 1, 52, 0
3, 59808, Note_on_c, 1, 59, 45
3, 59904, Note_on_c, 1, 59, 0
3, 59904, Note_on_c, 1, 60, 45
3, 60000, Note_on_c, 1, 60, 0
3, 60000, Note_on_c, 1, 57, 45
3, 60096, Note_on_c, 1, 57, 0
3, 60096, Note_on_c, 1, 52, 45
3, 60192, Note_on_c, 1, 52, 0
3, 60192, Note_on_c, 1, 64, 45
3, 60288, Note_on_c, 1, 64, 0
3, 60288, Note_on_c, 1, 63, 45
3, 60384, Note_on_c, 1, 63, 0
3, 60384, Note_on_c, 1, 64, 45
3, 60480, Note_on_c, 1, 64, 0
3, 60480, Note_on_c, 1, 63, 45
3, 60576, Note_on_c, 1, 63, 0
3, 60576, Note_on_c, 1, 64, 45
3, 60672, Note_on_c, 1, 64, 0
3, 60672, Note_on_c, 1, 52, 45
3, 60864, Note_on_c, 1, 60, 45
3, 60864, Note_on_c, 1, 64, 45
3, 61056, Note_on_c, 1, 52, 0
3, 61056, Note_on_c, 1, 52, 45
3, 61248, Note_on_c, 1, 60, 0
3, 61248, Note_on_c, 1, 64, 0
3, 61248, Note_on_c, 1, 59, 45
3, 61248, Note_on_c, 1, 62, 45
3, 61440, Note_on_c, 1, 52, 0
3, 61440, Note_on_c, 1, 52, 45
3, 61632, Note_on_c, 1, 58, 0
3, 61632, Note_on_c, 1, 62, 0
3, 61632, Note_on_c, 1, 57, 45
3, 61632, Note_on_c, 1, 60, 45
3, 61824, Note_on_c, 1, 52, 0
3, 61824, Note_on_c, 1, 52, 45
3, 62016, Note_on_c, 1, 57, 0
3, 62016, Note_on_c, 1, 60, 0
3, 62016, Note_on_c, 1, 56, 45
3, 62016, Note_on_c, 1, 59, 45
3, 62208, Note_on_c, 1, 52, 0
3, 62208, Note_on_c, 1, 56, 0
3, 62208, Note_on_c, 1, 59, 0
3, 62208, Note_on_c, 1, 57, 45
3, 62304, Note_on_c, 1, 57, 0
3, 62304, Note_on_c, 1, 52, 45
3, 62400, Note_on_c, 1, 52, 0
3, 62400, Note_on_c, 1, 48, 45
3, 62496, Note_on_c, 1, 48, 0
3, 62496, Note_on_c, 1, 57, 45
3, 62592, Note_on_c, 1, 57, 0
3, 62592, Note_on_c, 1, 59, 45
3, 62688, Note_on_c, 1, 59, 0
3, 62688, Note_on_c, 1, 56, 45
3, 62784, Note_on_c, 1, 56, 0
3, 62784, Note_on_c, 1, 52, 45
3, 62880, Note_on_c, 1, 52, 0
3, 62880, Note_on_c, 1, 59, 45
3, 62976, Note_on_c, 1, 59, 0
3, 62976, Note_on_c, 1, 60, 45
3, 63072, Note_on_c, 1, 60, 0
3, 63072, Note_on_c, 1, 57, 45
3, 63168, Note_on_c, 1, 57, 0
3, 63168, Note_on_c, 1, 52, 45
3, 63264, Note_on_c, 1, 52, 0
3, 63264, Note_on_c, 1, 64, 45
3, 63360, Note_on_c, 1, 64, 0
3, 63360, Note_on_c, 1, 63, 45
3, 63456, Note_on_c, 1, 63, 0
3, 63456, Note_on_c, 1, 64, 45
3, 63552, Note_on_c, 1, 64, 0
3, 63552, Note_on_c, 1, 63, 45
3, 63648, Note_on_c, 1, 63, 0
3, 63648, Note_on_c, 1, 64, 45
3, 63744, Note_on_c, 1, 64, 0
3, 63744, Note_on_c, 1, 52, 45
3, 63936, Note_on_c, 1, 60, 45
3, 63936, Note_on_c, 1, 64, 45
3, 64128, Note_on_c, 1, 52, 0
3, 64128, Note_on_c, 1, 50, 45
3, 64320, Note_on_c, 1, 60, 0
3, 64320, Note_on_c, 1, 64, 0
3, 64320, Note_on_c, 1, 59, 45
3, 64320, Note_on_c, 1, 62, 45
3, 64512, Note_on_c, 1, 50, 0
3, 64512, Note_on_c, 1, 52, 45
3, 64704, Note_on_c, 1, 59, 0
3, 64704, Note_on_c, 1, 62, 0
3, 64704, Note_on_c, 1, 57, 45
3, 64704, Note_on_c, 1, 60, 45
3, 64896, Note_on_c, 1, 52, 0
3, 64896, Note_on_c, 1, 52, 45
3, 65088, Note_on_c, 1, 57, 0
3, 65088, Note_on_c, 1, 60, 0
3, 65088, Note_on_c, 1, 56, 45
3, 65088, Note_on_c, 1, 59, 45
3, 65280, Note_on_c, 1, 52, 0
3, 65280, Note_on_c, 1, 56, 0
3, 65280, Note_on_c, 1, 59, 0
3, 65280, Note_on_c, 1, 45, 45
3, 65472, Note_on_c, 1, 57, 45
3, 65664, Note_on_c, 1, 45, 0
3, 65664, Note_on_c, 1, 57, 0
3, 65664, Note_on_c, 1, 52, 45
3, 65856, Note_on_c, 1, 56, 45
3, 65856, Note_on_c, 1, 59, 45
3, 66048, Note_on_c, 1, 52, 0
3, 66048, Note_on_c, 1, 56, 0
3, 66048, Note_on_c, 1, 59, 0
3, 66048, Note_on_c, 1, 57, 45
3, 66240, Note_on_c, 1, 60, 45
3, 66432, Note_on_c, 1, 57, 0
3, 66432, Note_on_c, 1, 60, 0
3, 66432, Note_on_c, 1, 52, 45
3, 66624, Note_on_c, 1, 56, 45
3, 66624, Note_on_c, 1, 59, 45
3, 66816, Note_on_c, 1, 52, 0
3, 66816, Note_on_c, 1, 56, 0
3, 66816, Note_on_c, 1, 59, 0
3, 66816, Note_on_c, 1, 45, 45
3, 66816, Note_on_c, 1, 57, 45
3, 66976, Note_on_c, 1, 45, 0
3, 66976, Note_on_c, 1, 57, 0
3, 67200, Note_on_c, 1, 33, 45
3, 67200, Note_on_c, 1, 45, 45
3, 67584, Note_on_c, 1, 33, 0
3, 67584, Note_on_c, 1, 45, 0
3, 67584, Note_on_c, 1, 33, 45
3, 67584, Note_on_c, 1, 45, 45
3, 67968, Note_on_c, 1, 33, 0
3, 67968, Note_on_c, 1, 45, 0
3, 67968, Note_on_c, 1, 33, 45
3, 67968, Note_on_c, 1, 45, 45
3, 68352, Note_on_c, 1, 33, 0
3, 68352, Note_on_c, 1, 45, 0
3, 68352, Note_on_c, 1, 33, 63
3, 68352, Note_on_c, 1, 45, 63
3, 69888, Note_on_c, 1, 33, 0
3, 69888, Note_on_c, 1, 45, 0
3, 69888, Note_on_c, 1, 31, 45
3, 69888, Note_on_c, 1, 43, 45
3, 70272, Note_on_c, 1, 31, 0
3, 70272, Note_on_c, 1, 43, 0
3, 70272, Note_on_c, 1, 29, 45
3, 70272, Note_on_c, 1, 41, 45
3, 70656, Note_on_c, 1, 29, 0
3, 70656, Note_on_c, 1, 41, 0
3, 70656, Note_on_c, 1, 40, 45
3, 71040, Note_on_c, 1, 40, 0
3, 71040, Note_on_c, 1, 41, 45
3, 71232, Note_on_c, 1, 41, 0
3, 71232, Note_on_c, 1, 38, 45
3, 71392, Note_on_c, 1, 38, 0
3, 71424, Control_c, 1, 64, 127
3, 71424, Note_on_c, 1, 37, 30
3, 71472, Note_on_c, 1, 40, 30
3, 71520, Note_on_c, 1, 45, 30
3, 71808, Note_on_c, 1, 49, 30
3, 71832, Note_on_c, 1, 52, 30
3, 71856, Note_on_c, 1, 57, 30
3, 72160, Note_on_c, 1, 49, 0
3, 72160, Note_on_c, 1, 52, 0
3, 72160, Note_on_c, 1, 57, 0
3, 73104, Note_on_c, 1, 36, 0
3, 73104, Note_on_c, 1, 40, 0
3, 73104, Note_on_c, 1, 45, 0
3, 73152, Control_c, 1, 64, 0
3, 73152, Note_on_c, 1, 49, 45
3, 73152, Note_on_c, 1, 57, 45
3, 73200, Note_on_c, 1, 49, 0
3, 73200, Note_on_c, 1, 57, 0
3, 73344, Note_on_c, 1, 50, 45
3, 73344, Note_on_c, 1, 57, 45
3, 73392, Note_on_c, 1, 50, 0
3, 73392, Note_on_c, 1, 57, 0
3, 73536, Note_on_c, 1, 52, 45
3, 73536, Note_on_c, 1, 57, 45
3, 73584, Note_on_c, 1, 52, 0
3, 73584, Note_on_c, 1, 57, 0
3, 73728, Note_on_c, 1, 53, 45
3, 73728, Note_on_c, 1, 57, 45
3, 73776, Note_on_c, 1, 53, 0
3, 73776, Note_on_c, 1, 57, 0
3, 73920, Note_on_c, 1, 49, 45
3, 73920, Note_on_c, 1, 57, 45
3, 73968, Note_on_c, 1, 49, 0
3, 73968, Note_on_c, 1, 57, 0
3, 74112, Note_on_c, 1, 50, 45
3, 74112, Note_on_c, 1, 57, 45
3, 74160, Note_on_c, 1, 50, 0
3, 74160, Note_on_c, 1, 57, 0
3, 74304, Note_on_c, 1, 52, 45
3, 74304, Note_on_c, 1, 57, 45
3, 74352, Note_on_c, 1, 52, 0
3, 74352, Note_on_c, 1, 57, 0
3, 74496, Note_on_c, 1, 53, 45
3, 74496, Note_on_c, 1, 57, 45
3, 74544, Note_on_c, 1, 53, 0
3, 74544, Note_on_c, 1, 57, 0
3, 74688, Note_on_c, 1, 54, 45
3, 74688, Note_on_c, 1, 62, 45
3, 74736, Note_on_c, 1, 54, 0
3, 74736, Note_on_c, 1, 62, 0
3, 74880, Note_on_c, 1, 55, 45
3, 74880, Note_on_c, 1, 62, 45
3, 74928, Note_on_c, 1, 55, 0
3, 74928, Note_on_c, 1, 62, 0
3, 75072, Note_on_c, 1, 57, 45
3, 75072, Note_on_c, 1, 62, 45
3, 75120, Note_on_c, 1, 57, 0
3, 75120, Note_on_c, 1, 62, 0
3, 75264, Note_on_c, 1, 58, 45
3, 75264, Note_on_c, 1, 62, 45
3, 75312, Note_on_c, 1, 58, 0
3, 75312, Note_on_c, 1, 62, 0
3, 75456, Note_on_c, 1, 58, 45
3, 75456, Note_on_c, 1, 62, 45
3, 75504, Note_on_c, 1, 58, 0
3, 75504, Note_on_c, 1, 62, 0
3, 75648, Note_on_c, 1, 57, 63
3, 75648, Note_on_c, 1, 62, 63
3, 75984, Note_on_c, 1, 57, 0
3, 75984, Note_on_c, 1, 62, 0
3, 76032, Note_on_c, 1, 57, 45
3, 76032, Note_on_c, 1, 61, 45
3, 76368, Note_on_c, 1, 57, 0
3, 76368, Note_on_c, 1, 61, 0
3, 76416, Control_c, 1, 64, 127
3, 76416, Note_on_c, 1, 40, 30
3, 76464, Note_on_c, 1, 43, 30
3, 76512, Note_on_c, 1, 48, 30
3, 76800, Note_on_c, 1, 52, 30
3, 76824, Note_on_c, 1, 55, 30
3, 76848, Note_on_c, 1, 60, 30
3, 77152, Note_on_c, 1, 52, 0
3, 77152, Note_on_c, 1, 55, 0
3, 77152, Note_on_c, 1, 60, 0
3, 78096, Note_on_c, 1, 40, 0
3, 78096, Note_on_c, 1, 43, 0
3, 78096, Note_on_c, 1, 48, 0
3, 78144, Control_c, 1, 64, 0
3, 78144, Note_on_c, 1, 52, 45
3, 78144, Note_on_c, 1, 60, 45
3, 78304, Note_on_c, 1, 52, 0
3, 78304, Note_on_c, 1, 60, 0
3, 78336, Note_on_c, 1, 53, 45
3, 78336, Note_on_c, 1, 60, 45
3, 78496, Note_on_c, 1, 53, 0
3, 78496, Note_on_c, 1, 60, 0
3, 78912, Note_on_c, 1, 54, 53
3, 78912, Note_on_c, 1, 62, 53
3, 79072, Note_on_c, 1, 54, 0
3, 79072, Note_on_c, 1, 62, 0
3, 79104, Note_on_c, 1, 55, 56
3, 79104, Note_on_c, 1, 62, 56
3, 79264, Note_on_c, 1, 55, 0
3, 79264, Note_on_c, 1, 62, 0
3, 79680, Note_on_c, 1, 55, 65
3, 79680, Note_on_c, 1, 58, 65
3, 79680, Note_on_c, 1, 63, 65
3, 79728, Note_on_c, 1, 55, 0
3, 79728, Note_on_c, 1, 58, 0
3, 79728, Note_on_c, 1, 63, 0
3, 80064, Note_on_c, 1, 55, 71
3, 80064, Note_on_c, 1, 58, 71
3, 80064, Note_on_c, 1, 61, 71
3, 80064, Note_on_c, 1, 64, 71
3, 80112, Note_on_c, 1, 55, 0
3, 80112, Note_on_c, 1, 58, 0
3, 80112, Note_on_c, 1, 61, 0
3, 80112, Note_on_c, 1, 64, 0
3, 80448, Note_on_c, 1, 55, 77
3, 80448, Note_on_c, 1, 58, 77
3, 80448, Note_on_c, 1, 61, 77
3, 80448, Note_on_c, 1, 64, 77
3, 80496, Note_on_c, 1, 55, 0
3, 80496, Note_on_c, 1, 58, 0
3, 80496, Note_on_c, 1, 61, 0
3, 80496, Note_on_c, 1, 64, 0
3, 80832, Note_on_c, 1, 56, 83
3, 80832, Note_on_c, 1, 59, 83
3, 80832, Note_on_c, 1, 62, 83
3, 80832, Note_on_c, 1, 65, 83
3, 80880, Note_on_c, 1, 56, 0
3, 80880, Note_on_c, 1, 59, 0
3, 80880, Note_on_c, 1, 62, 0
3, 80880, Note_on_c, 1, 65, 0
3, 81216, Note_on_c, 1, 56, 89
3, 81216, Note_on_c, 1, 59, 89
3, 81216, Note_on_c, 1, 62, 89
3, 81216, Note_on_c, 1, 65, 89
3, 81264, Note_on_c, 1, 56, 0
3, 81264, Note_on_c, 1, 59, 0
3, 81264, Note_on_c, 1, 62, 0
3, 81264, Note_on_c, 1, 65, 0
3, 81408, Note_on_c, 1, 57, 92
3, 81408, Note_on_c, 1, 62, 92
3, 81408, Note_on_c, 1, 65, 92
3, 81456, Note_on_c, 1, 57, 0
3, 81456, Note_on_c, 1, 62, 0
3, 81456, Note_on_c, 1, 65, 0
3, 84288, Note_on_c, 1, 46, 127
3, 84384, Note_on_c, 1, 46, 0
3, 84384, Note_on_c, 1, 45, 92
3, 84478, Note_on_c, 1, 45, 0
3, 84480, Note_on_c, 1, 45, 92
3, 84576, Note_on_c, 1, 45, 0
3, 84576, Note_on_c, 1, 49, 92
3, 84670, Note_on_c, 1, 49, 0
3, 84672, Note_on_c, 1, 49, 92
3, 84768, Note_on_c, 1, 49, 0
3, 84768, Note_on_c, 1, 50, 92
3, 84862, Note_on_c, 1, 50, 0
3, 84864, Note_on_c, 1, 50, 92
3, 84960, Note_on_c, 1, 50, 0
3, 84960, Note_on_c, 1, 46, 92
3, 85054, Note_on_c, 1, 46, 0
3, 85056, Note_on_c, 1, 46, 127
3, 85152, Note_on_c, 1, 46, 0
3, 85152, Note_on_c, 1, 45, 92
3, 85246, Note_on_c, 1, 45, 0
3, 85248, Note_on_c, 1, 45, 92
3, 85344, Note_on_c, 1, 45, 0
3, 85344, Note_on_c, 1, 49, 92
3, 85438, Note_on_c, 1, 49, 0
3, 85440, Note_on_c, 1, 49, 92
3, 85536, Note_on_c, 1, 49, 0
3, 85536, Note_on_c, 1, 50, 92
3, 85630, Note_on_c, 1, 50, 0
3, 85632, Note_on_c, 1, 50, 92
3, 85728, Note_on_c, 1, 50, 0
3, 85728, Note_on_c, 1, 46, 92
3, 85822, Note_on_c, 1, 46, 0
3, 85824, Note_on_c, 1, 46, 127
3, 85920, Note_on_c, 1, 46, 0
3, 85920, Note_on_c, 1, 45, 92
3, 86014, Note_on_c, 1, 45, 0
3, 86016, Note_on_c, 1, 45, 92
3, 86208, Note_on_c, 1, 45, 0
3, 86208, Note_on_c, 1, 50, 127
3, 86208, Note_on_c, 1, 53, 127
3, 86784, Note_on_c, 1, 45, 92
3, 86944, Note_on_c, 1, 45, 0
3, 86944, Note_on_c, 1, 50, 0
3, 86944, Note_on_c, 1, 53, 0
3, 86976, Note_on_c, 1, 45, 92
3, 86976, Note_on_c, 1, 50, 92
3, 86976, Note_on_c, 1, 53, 92
3, 87136, Note_on_c, 1, 45, 0
3, 87136, Note_on_c, 1, 50, 0
3, 87136, Note_on_c, 1, 53, 0
3, 87168, Note_on_c, 1, 45, 92
3, 87168, Note_on_c, 1, 52, 92
3, 87168, Note_on_c, 1, 55, 92
3, 87328, Note_on_c, 1, 45, 0
3, 87328, Note_on_c, 1, 52, 0
3, 87328, Note_on_c, 1, 55, 0
3, 87360, Note_on_c, 1, 45, 92
3, 87360, Note_on_c, 1, 52, 92
3, 87360, Note_on_c, 1, 55, 92
3, 87520, Note_on_c, 1, 45, 0
3, 87520, Note_on_c, 1, 52, 0
3, 87520, Note_on_c, 1, 55, 0
3, 87552, Note_on_c, 1, 38, 92
3, 87744, Note_on_c, 1, 57, 92
3, 87806, Note_on_c, 1, 57, 0
3, 87808, Note_on_c, 1, 53, 92
3, 87870, Note_on_c, 1, 53, 0
3, 87872, Note_on_c, 1, 57, 92
3, 87934, Note_on_c, 1, 38, 0
3, 87934, Note_on_c, 1, 57, 0
3, 87936, Note_on_c, 1, 41, 92
3, 87936, Note_on_c, 1, 53, 92
3, 87998, Note_on_c, 1, 53, 0
3, 88000, Note_on_c, 1, 57, 92
3, 88062, Note_on_c, 1, 57, 0
3, 88064, Note_on_c, 1, 53, 92
3, 88126, Note_on_c, 1, 41, 0
3, 88126, Note_on_c, 1, 53, 0
3, 88128, Note_on_c, 1, 45, 92
3, 88128, Note_on_c, 1, 57, 92
3, 88190, Note_on_c, 1, 57, 0
3, 88192, Note_on_c, 1, 53, 92
3, 88254, Note_on_c, 1, 53, 0
3, 88256, Note_on_c, 1, 57, 92
3, 88318, Note_on_c, 1, 45, 0
3, 88318, Note_on_c, 1, 57, 0
3, 88320, Note_on_c, 1, 50, 92
3, 88320, Note_on_c, 1, 53, 92
3, 88382, Note_on_c, 1, 53, 0
3, 88384, Note_on_c, 1, 57, 92
3, 88446, Note_on_c, 1, 57, 0
3, 88448, Note_on_c, 1, 53, 92
3, 88510, Note_on_c, 1, 53, 0
3, 88512, Note_on_c, 1, 57, 92
3, 88574, Note_on_c, 1, 57, 0
3, 88576, Note_on_c, 1, 53, 92
3, 88638, Note_on_c, 1, 53, 0
3, 88640, Note_on_c, 1, 57, 92
3, 88702, Note_on_c, 1, 57, 0
3, 88704, Note_on_c, 1, 53, 92
3, 88766, Note_on_c, 1, 53, 0
3, 88768, Note_on_c, 1, 57, 92
3, 88830, Note_on_c, 1, 57, 0
3, 88832, Note_on_c, 1, 53, 92
3, 88894, Note_on_c, 1, 53, 0
3, 88896, Note_on_c, 1, 57, 45
3, 88958, Note_on_c, 1, 57, 0
3, 88960, Note_on_c, 1, 53, 45
3, 89022, Note_on_c, 1, 53, 0
3, 89024, Note_on_c, 1, 57, 45
3, 89086, Note_on_c, 1, 57, 0
3, 89088, Note_on_c, 1, 53, 45
3, 89150, Note_on_c, 1, 53, 0
3, 89152, Note_on_c, 1, 57, 45
3, 89214, Note_on_c, 1, 57, 0
3, 89216, Note_on_c, 1, 53, 45
3, 89278, Note_on_c, 1, 53, 0
3, 89280, Note_on_c, 1, 57, 45
3, 89342, Note_on_c, 1, 57, 0
3, 89344, Note_on_c, 1, 53, 45
3, 89406, Note_on_c, 1, 53, 0
3, 89408, Note_on_c, 1, 57, 45
3, 89470, Note_on_c, 1, 57, 0
3, 89472, Note_on_c, 1, 53, 45
3, 89534, Note_on_c, 1, 53, 0
3, 89536, Note_on_c, 1, 57, 45
3, 89598, Note_on_c, 1, 57, 0
3, 89600, Note_on_c, 1, 53, 45
3, 89662, Note_on_c, 1, 53, 0
3, 89664, Note_on_c, 1, 57, 45
3, 89726, Note_on_c, 1, 57, 0
3, 89728, Note_on_c, 1, 53, 45
3, 89790, Note_on_c, 1, 53, 0
3, 89792, Note_on_c, 1, 57, 45
3, 89854, Note_on_c, 1, 57, 0
3, 89856, Note_on_c, 1, 53, 45
3, 89918, Note_on_c, 1, 53, 0
3, 89920, Note_on_c, 1, 57, 45
3, 89982, Note_on_c, 1, 57, 0
3, 89984, Note_on_c, 1, 53, 45
3, 90046, Note_on_c, 1, 53, 0
3, 90048, Note_on_c, 1, 57, 45
3, 90110, Note_on_c, 1, 57, 0
3, 90112, Note_on_c, 1, 53, 45
3, 90174, Note_on_c, 1, 53, 0
3, 90176, Note_on_c, 1, 57, 45
3, 90238, Note_on_c, 1, 57, 0
3, 90240, Note_on_c, 1, 53, 45
3, 90302, Note_on_c, 1, 53, 0
3, 90304, Note_on_c, 1, 57, 45
3, 90366, Note_on_c, 1, 57, 0
3, 90368, Note_on_c, 1, 53, 45
3, 90430, Note_on_c, 1, 53, 0
3, 90432, Note_on_c, 1, 57, 45
3, 90494, Note_on_c, 1, 57, 0
3, 90496, Note_on_c, 1, 53, 45
3, 90558, Note_on_c, 1, 53, 0
3, 90560, Note_on_c, 1, 57, 45
3, 90622, Note_on_c, 1, 50, 0
3, 90622, Note_on_c, 1, 57, 0
3, 90624, Note_on_c, 1, 40, 92
3, 90816, Note_on_c, 1, 61, 92
3, 90878, Note_on_c, 1, 61, 0
3, 90880, Note_on_c, 1, 55, 92
3, 90942, Note_on_c, 1, 55, 0
3, 90944, Note_on_c, 1, 61, 92
3, 91006, Note_on_c, 1, 40, 0
3, 91006, Note_on_c, 1, 61, 0
3, 91008, Note_on_c, 1, 43, 127
3, 91008, Note_on_c, 1, 55, 127
3, 91070, Note_on_c, 1, 55, 0
3, 91072, Note_on_c, 1, 61, 92
3, 91134, Note_on_c, 1, 61, 0
3, 91136, Note_on_c, 1, 55, 92
3, 91198, Note_on_c, 1, 43, 0
3, 91198, Note_on_c, 1, 55, 0
3, 91200, Note_on_c, 1, 49, 127
3, 91200, Note_on_c, 1, 61, 127
3, 91262, Note_on_c, 1, 61, 0
3, 91264, Note_on_c, 1, 55, 92
3, 91326, Note_on_c, 1, 55, 0
3, 91328, Note_on_c, 1, 61, 92
3, 91390, Note_on_c, 1, 49, 0
3, 91390, Note_on_c, 1, 61, 0
3, 91392, Note_on_c, 1, 52, 92
3, 91392, Note_on_c, 1, 55, 92
3, 91454, Note_on_c, 1, 55, 0
3, 91456, Note_on_c, 1, 61, 92
3, 91518, Note_on_c, 1, 61, 0
3, 91520, Note_on_c, 1, 55, 92
3, 91582, Note_on_c, 1, 55, 0
3, 91584, Note_on_c, 1, 61, 92
3, 91646, Note_on_c, 1, 61, 0
3, 91648, Note_on_c, 1, 55, 92
3, 91710, Note_on_c, 1, 55, 0
3, 91712, Note_on_c, 1, 61, 92
3, 91774, Note_on_c, 1, 61, 0
3, 91776, Note_on_c, 1, 55, 92
3, 91838, Note_on_c, 1, 55, 0
3, 91840, Note_on_c, 1, 61, 92
3, 91902, Note_on_c, 1, 61, 0
3, 91904, Note_on_c, 1, 55, 92
3, 91966, Note_on_c, 1, 55, 0
3, 91968, Note_on_c, 1, 61, 45
3, 92030, Note_on_c, 1, 61, 0
3, 92032, Note_on_c, 1, 55, 45
3, 92094, Note_on_c, 1, 55, 0
3, 92096, Note_on_c, 1, 61, 45
3, 92158, Note_on_c, 1, 61, 0
3, 92160, Note_on_c, 1, 55, 45
3, 92222, Note_on_c, 1, 55, 0
3, 92224, Note_on_c, 1, 61, 45
3, 92286, Note_on_c, 1, 61, 0
3, 92288, Note_on_c, 1, 55, 45
3, 92350, Note_on_c, 1, 55, 0
3, 92352, Note_on_c, 1, 61, 45
3, 92414, Note_on_c, 1, 61, 0
3, 92416, Note_on_c, 1, 55, 45
3, 92478, Note_on_c, 1, 55, 0
3, 92480, Note_on_c, 1, 61, 45
3, 92542, Note_on_c, 1, 61, 0
3, 92544, Note_on_c, 1, 55, 45
3, 92606, Note_on_c, 1, 55, 0
3, 92608, Note_on_c, 1, 61, 45
3, 92670, Note_on_c, 1, 61, 0
3, 92672, Note_on_c, 1, 55, 45
3, 92734, Note_on_c, 1, 55, 0
3, 92736, Note_on_c, 1, 61, 45
3, 92798, Note_on_c, 1, 61, 0
3, 92800, Note_on_c, 1, 55, 45
3, 92862, Note_on_c, 1, 55, 0
3, 92864, Note_on_c, 1, 61, 45
3, 92926, Note_on_c, 1, 61, 0
3, 92928, Note_on_c, 1, 55, 45
3, 92990, Note_on_c, 1, 55, 0
3, 92992, Note_on_c, 1, 61, 45
3, 93054, Note_on_c, 1, 61, 0
3, 93056, Note_on_c, 1, 55, 45
3, 93118, Note_on_c, 1, 55, 0
3, 93120, Note_on_c, 1, 61, 45
3, 93182, Note_on_c, 1, 61, 0
3, 93184, Note_on_c, 1, 55, 45
3, 93246, Note_on_c, 1, 55, 0
3, 93248, Note_on_c, 1, 61, 45
3, 93310, Note_on_c, 1, 61, 0
3, 93312, Note_on_c, 1, 55, 45
3, 93374, Note_on_c, 1, 55, 0
3, 93376, Note_on_c, 1, 61, 45
3, 93438, Note_on_c, 1, 61, 0
3, 93440, Note_on_c, 1, 55, 45
3, 93502, Note_on_c, 1, 55, 0
3, 93504, Note_on_c, 1, 61, 45
3, 93566, Note_on_c, 1, 61, 0
3, 93568, Note_on_c, 1, 55, 45
3, 93630, Note_on_c, 1, 52, 0
3, 93630, Note_on_c, 1, 55, 0
3, 93632, Note_on_c, 1, 52, 45
3, 93632, Note_on_c, 1, 61, 45
3, 93694, Note_on_c, 1, 52, 0
3, 93694, Note_on_c, 1, 61, 0
3, 93696, Note_on_c, 1, 41, 92
3, 94032, Note_on_c, 1, 41, 0
3, 94080, Note_on_c, 1, 45, 127
3, 94240, Note_on_c, 1, 45, 0
3, 94272, Note_on_c, 1, 50, 127
3, 94432, Note_on_c, 1, 50, 0
3, 94464, Note_on_c, 1, 53, 92
3, 94464, Note_on_c, 1, 57, 92
3, 94526, Note_on_c, 1, 57, 0
3, 94528, Note_on_c, 1, 62, 92
3, 94590, Note_on_c, 1, 62, 0
3, 94592, Note_on_c, 1, 57, 92
3, 94654, Note_on_c, 1, 57, 0
3, 94656, Note_on_c, 1, 62, 92
3, 94718, Note_on_c, 1, 62, 0
3, 94720, Note_on_c, 1, 57, 92
3, 94782, Note_on_c, 1, 57, 0
3, 94784, Note_on_c, 1, 62, 92
3, 94846, Note_on_c, 1, 62, 0
3, 94848, Note_on_c, 1, 57, 92
3, 94910, Note_on_c, 1, 57, 0
3, 94912, Note_on_c, 1, 62, 92
3, 94974, Note_on_c, 1, 62, 0
3, 94976, Note_on_c, 1, 57, 92
3, 95038, Note_on_c, 1, 57, 0
3, 95040, Note_on_c, 1, 62, 92
3, 95102, Note_on_c, 1, 62, 0
3, 95104, Note_on_c, 1, 57, 92
3, 95166, Note_on_c, 1, 57, 0
3, 95168, Note_on_c, 1, 62, 92
3, 95230, Note_on_c, 1, 53, 0
3, 95230, Note_on_c, 1, 62, 0
3, 95232, Note_on_c, 1, 44, 92
3, 95568, Note_on_c, 1, 44, 0
3, 95616, Note_on_c, 1, 47, 127
3, 95776, Note_on_c, 1, 47, 0
3, 95808, Note_on_c, 1, 52, 127
3, 95968, Note_on_c, 1, 52, 0
3, 96000, Note_on_c, 1, 56, 92
3, 96000, Note_on_c, 1, 59, 92
3, 96062, Note_on_c, 1, 59, 0
3, 96064, Note_on_c, 1, 64, 92
3, 96126, Note_on_c, 1, 64, 0
3, 96128, Note_on_c, 1, 59, 92
3, 96190, Note_on_c, 1, 59, 0
3, 96192, Note_on_c, 1, 64, 92
3, 96254, Note_on_c, 1, 64, 0
3, 96256, Note_on_c, 1, 59, 92
3, 96318, Note_on_c, 1, 59, 0
3, 96320, Note_on_c, 1, 64, 92
3, 96382, Note_on_c, 1, 64, 0
3, 96384, Note_on_c, 1, 59, 92
3, 96446, Note_on_c, 1, 59, 0
3, 96448, Note_on_c, 1, 64, 92
3, 96510, Note_on_c, 1, 64, 0
3, 96512, Note_on_c, 1, 59, 92
3, 96574, Note_on_c, 1, 59, 0
3, 96576, Note_on_c, 1, 64, 92
3, 96638, Note_on_c, 1, 64, 0
3, 96640, Note_on_c, 1, 59, 92
3, 96702, Note_on_c, 1, 59, 0
3, 96704, Note_on_c, 1, 64, 92
3, 96766, Note_on_c, 1, 56, 0
3, 96766, Note_on_c, 1, 64, 0
3, 96768, Note_on_c, 1, 45, 92
3, 97104, Note_on_c, 1, 45, 0
3, 97152, Note_on_c, 1, 48, 127
3, 97312, Note_on_c, 1, 48, 0
3, 97344, Note_on_c, 1, 53, 127
3, 97504, Note_on_c, 1, 53, 0
3, 97536, Note_on_c, 1, 57, 92
3, 97536, Note_on_c, 1, 60, 92
3, 97598, Note_on_c, 1, 60, 0
3, 97600, Note_on_c, 1, 65, 92
3, 97662, Note_on_c, 1, 65, 0
3, 97664, Note_on_c, 1, 60, 92
3, 97726, Note_on_c, 1, 60, 0
3, 97728, Note_on_c, 1, 65, 92
3, 97790, Note_on_c, 1, 65, 0
3, 97792, Note_on_c, 1, 60, 92
3, 97854, Note_on_c, 1, 60, 0
3, 97856, Note_on_c, 1, 65, 92
3, 97918, Note_on_c, 1, 65, 0
3, 97920, Note_on_c, 1, 60, 92
3, 97982, Note_on_c, 1, 60, 0
3, 97984, Note_on_c, 1, 65, 92
3, 98046, Note_on_c, 1, 65, 0
3, 98048, Note_on_c, 1, 60, 92
3, 98110, Note_on_c, 1, 60, 0
3, 98112, Note_on_c, 1, 65, 92
3, 98174, Note_on_c, 1, 65, 0
3, 98176, Note_on_c, 1, 60, 92
3, 98238, Note_on_c, 1, 60, 0
3, 98240, Note_on_c, 1, 65, 92
3, 98302, Note_on_c, 1, 57, 0
3, 98302, Note_on_c, 1, 65, 0
3, 98304, Note_on_c, 1, 47, 92
3, 98640, Note_on_c, 1, 47, 0
3, 98688, Note_on_c, 1, 50, 127
3, 98848, Note_on_c, 1, 50, 0
3, 98880, Note_on_c, 1, 56, 127
3, 99040, Note_on_c, 1, 56, 0
3, 99072, Note_on_c, 1, 59, 92
3, 99072, Note_on_c, 1, 62, 92
3, 99134, Note_on_c, 1, 62, 0
3, 99136, Note_on_c, 1, 68, 92
3, 99198, Note_on_c, 1, 68, 0
3, 99200, Note_on_c, 1, 62, 92
3, 99262, Note_on_c, 1, 62, 0
3, 99264, Note_on_c, 1, 68, 92
3, 99326, Note_on_c, 1, 68, 0
3, 99328, Note_on_c, 1, 62, 92
3, 99390, Note_on_c, 1, 62, 0
3, 99392, Note_on_c, 1, 68, 92
3, 99454, Note_on_c, 1, 68, 0
3, 99456, Note_on_c, 1, 62, 92
3, 99518, Note_on_c, 1, 62, 0
3, 99520, Note_on_c, 1, 68, 92
3, 99582, Note_on_c, 1, 68, 0
3, 99584, Note_on_c, 1, 62, 92
3, 99646, Note_on_c, 1, 62, 0
3, 99648, Note_on_c, 1, 68, 92
3, 99710, Note_on_c, 1, 68, 0
3, 99712, Note_on_c, 1, 62, 92
3, 99774, Note_on_c, 1, 62, 0
3, 99776, Note_on_c, 1, 68, 92
3, 99838, Note_on_c, 1, 59, 0
3, 99838, Note_on_c, 1, 68, 0
3, 99840, Note_on_c, 1, 48, 92
3, 100176, Note_on_c, 1, 48, 0
3, 100224, Note_on_c, 1, 57, 127
3, 100384, Note_on_c, 1, 57, 0
3, 100416, Note_on_c, 1, 60, 127
3, 100576, Note_on_c, 1, 60, 0
3, 100608, Note_on_c, 1, 63, 108
3, 100608, Note_on_c, 1, 66, 108
3, 101328, Note_on_c, 1, 63, 0
3, 101328, Note_on_c, 1, 66, 0
3, 101376, Note_on_c, 1, 63, 127
3, 101376, Note_on_c, 1, 66, 127
3, 102096, Note_on_c, 1, 63, 0
3, 102096, Note_on_c, 1, 66, 0
3, 102144, Note_on_c, 1, 63, 127
3, 102144, Note_on_c, 1, 66, 127
3, 102864, Note_on_c, 1, 63, 0
3, 102864, Note_on_c, 1, 66, 0
3, 102912, Note_on_c, 1, 52, 108
3, 103006, Note_on_c, 1, 52, 0
3, 103008, Note_on_c, 1, 64, 45
3, 103102, Note_on_c, 1, 64, 0
3, 103104, Note_on_c, 1, 59, 45
3, 103104, Note_on_c, 1, 62, 45
3, 103198, Note_on_c, 1, 59, 0
3, 103198, Note_on_c, 1, 62, 0
3, 103200, Note_on_c, 1, 64, 45
3, 103294, Note_on_c, 1, 64, 0
3, 103296, Note_on_c, 1, 65, 45
3, 103390, Note_on_c, 1, 65, 0
3, 103392, Note_on_c, 1, 64, 45
3, 103486, Note_on_c, 1, 64, 0
3, 103488, Note_on_c, 1, 59, 45
3, 103488, Note_on_c, 1, 62, 45
3, 103582, Note_on_c, 1, 59, 0
3, 103582, Note_on_c, 1, 62, 0
3, 103584, Note_on_c, 1, 64, 45
3, 103678, Note_on_c, 1, 64, 0
3, 103680, Note_on_c, 1, 52, 45
3, 103774, Note_on_c, 1, 52, 0
3, 103776, Note_on_c, 1, 64, 45
3, 103870, Note_on_c, 1, 64, 0
3, 103872, Note_on_c, 1, 59, 45
3, 103872, Note_on_c, 1, 62, 45
3, 103966, Note_on_c, 1, 59, 0
3, 103966, Note_on_c, 1, 62, 0
3, 103968, Note_on_c, 1, 64, 45
3, 104062, Note_on_c, 1, 64, 0
3, 104064, Note_on_c, 1, 65, 45
3, 104158, Note_on_c, 1, 65, 0
3, 104160, Note_on_c, 1, 64, 45
3, 104254, Note_on_c, 1, 64, 0
3, 104256, Note_on_c, 1, 59, 45
3, 104256, Note_on_c, 1, 62, 45
3, 104350, Note_on_c, 1, 59, 0
3, 104350, Note_on_c, 1, 62, 0
3, 104352, Note_on_c, 1, 64, 45
3, 104446, Note_on_c, 1, 64, 0
3, 104448, Note_on_c, 1, 52, 45
3, 104542, Note_on_c, 1, 52, 0
3, 104544, Note_on_c, 1, 64, 45
3, 104638, Note_on_c, 1, 64, 0
3, 104640, Note_on_c, 1, 59, 45
3, 104640, Note_on_c, 1, 62, 45
3, 104734, Note_on_c, 1, 59, 0
3, 104734, Note_on_c, 1, 62, 0
3, 104736, Note_on_c, 1, 64, 45
3, 104830, Note_on_c, 1, 64, 0
3, 104832, Note_on_c, 1, 65, 45
3, 104926, Note_on_c, 1, 65, 0
3, 104928, Note_on_c, 1, 64, 45
3, 105022, Note_on_c, 1, 64, 0
3, 105024, Note_on_c, 1, 59, 45
3, 105024, Note_on_c, 1, 62, 45
3, 105118, Note_on_c, 1, 59, 0
3, 105118, Note_on_c, 1, 62, 0
3, 105120, Note_on_c, 1, 64, 45
3, 105214, Note_on_c, 1, 64, 0
3, 105216, Note_on_c, 1, 52, 45
3, 105310, Note_on_c, 1, 52, 0
3, 105312, Note_on_c, 1, 64, 45
3, 105406, Note_on_c, 1, 64, 0
3, 105408, Note_on_c, 1, 59, 45
3, 105408, Note_on_c, 1, 62, 45
3, 105502, Note_on_c, 1, 59, 0
3, 105502, Note_on_c, 1, 62, 0
3, 105504, Note_on_c, 1, 64, 45
3, 105598, Note_on_c, 1, 64, 0
3, 105600, Note_on_c, 1, 52, 45
3, 105694, Note_on_c, 1, 52, 0
3, 105696, Note_on_c, 1, 64, 45
3, 105790, Note_on_c, 1, 64, 0
3, 105792, Note_on_c, 1, 56, 45
3, 105792, Note_on_c, 1, 59, 45
3, 105886, Note_on_c, 1, 56, 0
3, 105886, Note_on_c, 1, 59, 0
3, 105888, Note_on_c, 1, 64, 45
3, 105982, Note_on_c, 1, 64, 0
3, 105984, Note_on_c, 1, 52, 45
3, 106078, Note_on_c, 1, 52, 0
3, 106080, Note_on_c, 1, 64, 45
3, 106174, Note_on_c, 1, 64, 0
3, 106176, Note_on_c, 1, 57, 45
3, 106176, Note_on_c, 1, 60, 45
3, 106270, Note_on_c, 1, 57, 0
3, 106270, Note_on_c, 1, 60, 0
3, 106272, Note_on_c, 1, 64, 45
3, 106366, Note_on_c, 1, 64, 0
3, 106368, Note_on_c, 1, 65, 45
3, 106462, Note_on_c, 1, 65, 0
3, 106464, Note_on_c, 1, 64, 45
3, 106558, Note_on_c, 1, 64, 0
3, 106560, Note_on_c, 1, 57, 45
3, 106560, Note_on_c, 1, 60, 45
3, 106654, Note_on_c, 1, 57, 0
3, 106654, Note_on_c, 1, 60, 0
3, 106656, Note_on_c, 1, 64, 45
3, 106750, Note_on_c, 1, 64, 0
3, 106752, Note_on_c, 1, 52, 45
3, 106846, Note_on_c, 1, 52, 0
3, 106848, Note_on_c, 1, 64, 45
3, 106942, Note_on_c, 1, 64, 0
3, 106944, Note_on_c, 1, 57, 45
3, 106944, Note_on_c, 1, 60, 45
3, 107038, Note_on_c, 1, 57, 0
3, 107038, Note_on_c, 1, 60, 0
3, 107040, Note_on_c, 1, 64, 45
3, 107134, Note_on_c, 1, 64, 0
3, 107136, Note_on_c, 1, 65, 45
3, 107230, Note_on_c, 1, 65, 0
3, 107232, Note_on_c, 1, 64, 45
3, 107326, Note_on_c, 1, 64, 0
3, 107328, Note_on_c, 1, 57, 45
3, 107328, Note_on_c, 1, 60, 45
3, 107422, Note_on_c, 1, 57, 0
3, 107422, Note_on_c, 1, 60, 0
3, 107424, Note_on_c, 1, 64, 45
3, 107518, Note_on_c, 1, 64, 0
3, 107520, Note_on_c, 1, 52, 45
3, 107614, Note_on_c, 1, 52, 0
3, 107616, Note_on_c, 1, 64, 45
3, 107710, Note_on_c, 1, 64, 0
3, 107712, Note_on_c, 1, 57, 45
3, 107712, Note_on_c, 1, 60, 45
3, 107806, Note_on_c, 1, 57, 0
3, 107806, Note_on_c, 1, 60, 0
3, 107808, Note_on_c, 1, 64, 45
3, 107902, Note_on_c, 1, 64, 0
3, 107904, Note_on_c, 1, 65, 45
3, 107998, Note_on_c, 1, 65, 0
3, 108000, Note_on_c, 1, 64, 45
3, 108094, Note_on_c, 1, 64, 0
3, 108096, Note_on_c, 1, 57, 45
3, 108096, Note_on_c, 1, 60, 45
3, 108190, Note_on_c, 1, 57, 0
3, 108190, Note_on_c, 1, 60, 0
3, 108192, Note_on_c, 1, 64, 45
3, 108286, Note_on_c, 1, 64, 0
3, 108288, Note_on_c, 1, 52, 45
3, 108382, Note_on_c, 1, 52, 0
3, 108384, Note_on_c, 1, 64, 45
3, 108478, Note_on_c, 1, 64, 0
3, 108480, Note_on_c, 1, 57, 45
3, 108480, Note_on_c, 1, 60, 45
3, 108574, Note_on_c, 1, 57, 0
3, 108574, Note_on_c, 1, 60, 0
3, 108576, Note_on_c, 1, 64, 45
3, 108670, Note_on_c, 1, 64, 0
3, 108672, Note_on_c, 1, 52, 45
3, 108766, Note_on_c, 1, 52, 0
3, 108768, Note_on_c, 1, 64, 45
3, 108862, Note_on_c, 1, 64, 0
3, 108864, Note_on_c, 1, 57, 45
3, 108864, Note_on_c, 1, 60, 45
3, 108958, Note_on_c, 1, 57, 0
3, 108958, Note_on_c, 1, 60, 0
3, 108960, Note_on_c, 1, 64, 45
3, 109054, Note_on_c, 1, 64, 0
3, 109056, Note_on_c, 1, 52, 45
3, 109150, Note_on_c, 1, 52, 0
3, 109152, Note_on_c, 1, 64, 45
3, 109246, Note_on_c, 1, 64, 0
3, 109248, Note_on_c, 1, 59, 45
3, 109248, Note_on_c, 1, 62, 45
3, 109342, Note_on_c, 1, 59, 0
3, 109342, Note_on_c, 1, 62, 0
3, 109344, Note_on_c, 1, 64, 45
3, 109438, Note_on_c, 1, 64, 0
3, 109440, Note_on_c, 1, 65, 45
3, 109534, Note_on_c, 1, 65, 0
3, 109536, Note_on_c, 1, 64, 45
3, 109630, Note_on_c, 1, 64, 0
3, 109632, Note_on_c, 1, 59, 45
3, 109632, Note_on_c, 1, 62, 45
3, 109726, Note_on_c, 1, 59, 0
3, 109726, Note_on_c, 1, 62, 0
3, 109728, Note_on_c, 1, 64, 45
3, 109822, Note_on_c, 1, 64, 0
3, 109824, Note_on_c, 1, 52, 45
3, 109918, Note_on_c, 1, 52, 0
3, 109920, Note_on_c, 1, 64, 45
3, 110014, Note_on_c, 1, 64, 0
3, 110016, Note_on_c, 1, 59, 45
3, 110016, Note_on_c, 1, 62, 45
3, 110110, Note_on_c, 1, 59, 0
3, 110110, Note_on_c, 1, 62, 0
3, 110112, Note_on_c, 1, 64, 45
3, 110206, Note_on_c, 1, 64, 0
3, 110208, Note_on_c, 1, 65, 45
3, 110302, Note_on_c, 1, 65, 0
3, 110304, Note_on_c, 1, 64, 45
3, 110398, Note_on_c, 1, 64, 0
3, 110400, Note_on_c, 1, 59, 45
3, 110400, Note_on_c, 1, 62, 45
3, 110494, Note_on_c, 1, 59, 0
3, 110494, Note_on_c, 1, 62, 0
3, 110496, Note_on_c, 1, 64, 45
3, 110590, Note_on_c, 1, 64, 0
3, 110592, Note_on_c, 1, 52, 45
3, 110686, Note_on_c, 1, 52, 0
3, 110688, Note_on_c, 1, 64, 45
3, 110782, Note_on_c, 1, 64, 0
3, 110784, Note_on_c, 1, 59, 45
3, 110784, Note_on_c, 1, 62, 45
3, 110878, Note_on_c, 1, 59, 0
3, 110878, Note_on_c, 1, 62, 0
3, 110880, Note_on_c, 1, 64, 45
3, 110974, Note_on_c, 1, 64, 0
3, 110976, Note_on_c, 1, 65, 45
3, 111070, Note_on_c, 1, 65, 0
3, 111072, Note_on_c, 1, 64, 45
3, 111166, Note_on_c, 1, 64, 0
3, 111168, Note_on_c, 1, 59, 45
3, 111168, Note_on_c, 1, 62, 45
3, 111262, Note_on_c, 1, 59, 0
3, 111262, Note_on_c, 1, 62, 0
3, 111264, Note_on_c, 1, 64, 45
3, 111358, Note_on_c, 1, 64, 0
3, 111360, Note_on_c, 1, 52, 63
3, 111360, Note_on_c, 1, 59, 63
3, 111360, Note_on_c, 1, 62, 63
3, 111520, Note_on_c, 1, 52, 0
3, 111520, Note_on_c, 1, 59, 0
3, 111520, Note_on_c, 1, 62, 0
3, 113088, Note_on_c, 1, 44, 45
3, 113184, Note_on_c, 1, 44, 0
3, 113184, Note_on_c, 1, 47, 45
3, 113280, Note_on_c, 1, 47, 0
3, 113280, Note_on_c, 1, 38, 45
3, 113376, Note_on_c, 1, 38, 0
3, 113376, Note_on_c, 1, 47, 45
3, 113472, Note_on_c, 1, 47, 0
3, 113472, Note_on_c, 1, 44, 45
3, 113568, Note_on_c, 1, 44, 0
3, 113568, Note_on_c, 1, 38, 45
3, 113664, Note_on_c, 1, 38, 0
3, 113664, Note_on_c, 1, 36, 63
3, 113824, Note_on_c, 1, 36, 0
3, 113856, Note_on_c, 1, 36, 63
3, 113856, Note_on_c, 1, 40, 63
3, 113856, Note_on_c, 1, 45, 63
3, 114016, Note_on_c, 1, 36, 0
3, 114016, Note_on_c, 1, 40, 0
3, 114016, Note_on_c, 1, 45, 0
3, 114048, Note_on_c, 1, 38, 63
3, 114048, Note_on_c, 1, 41, 63
3, 114048, Note_on_c, 1, 46, 63
3, 114768, Note_on_c, 1, 46, 0
3, 114816, Note_on_c, 1, 45, 45
3, 114976, Note_on_c, 1, 45, 0
3, 115008, Note_on_c, 1, 44, 45
3, 115168, Note_on_c, 1, 38, 0
3, 115168, Note_on_c, 1, 41, 0
3, 115168, Note_on_c, 1, 44, 0
3, 115200, Note_on_c, 1, 36, 63
3, 115200, Note_on_c, 1, 40, 63
3, 115200, Note_on_c, 1, 45, 63
3, 115360, Note_on_c, 1, 36, 0
3, 115360, Note_on_c, 1, 40, 0
3, 115360, Note_on_c, 1, 45, 0
3, 115392, Note_on_c, 1, 48, 63
3, 115392, Note_on_c, 1, 52, 63
3, 115392, Note_on_c, 1, 57, 63
3, 115552, Note_on_c, 1, 48, 0
3, 115552, Note_on_c, 1, 52, 0
3, 115552, Note_on_c, 1, 57, 0
3, 115584, Note_on_c, 1, 50, 63
3, 115584, Note_on_c, 1, 53, 63
3, 115584, Note_on_c, 1, 58, 63
3, 116304, Note_on_c, 1, 58, 0
3, 116352, Note_on_c, 1, 57, 45
3, 116512, Note_on_c, 1, 57, 0
3, 116544, Note_on_c, 1, 56, 45
3, 116704, Note_on_c, 1, 50, 0
3, 116704, Note_on_c, 1, 53, 0
3, 116704, Note_on_c, 1, 56, 0
3, 116736, Note_on_c, 1, 48, 63
3, 116736, Note_on_c, 1, 52, 63
3, 116736, Note_on_c, 1, 57, 63
3, 116896, Note_on_c, 1, 48, 0
3, 116896, Note_on_c, 1, 52, 0
3, 116896, Note_on_c, 1, 57, 0
3, 116928, Note_on_c, 1, 60, 63
3, 116928, Note_on_c, 1, 64, 63
3, 117088, Note_on_c, 1, 60, 0
3, 117088, Note_on_c, 1, 64, 0
3, 117120, Note_on_c, 1, 62, 45
3, 117120, Note_on_c, 1, 65, 45
3, 117664, Note_on_c, 1, 62, 0
3, 117664, Note_on_c, 1, 65, 0
3, 117696, Note_on_c, 1, 63, 63
3, 117696, Note_on_c, 1, 66, 63
3, 117856, Note_on_c, 1, 63, 0
3, 117856, Note_on_c, 1, 66, 0
3, 117888, Note_on_c, 1, 64, 45
3, 117888, Note_on_c, 1, 69, 45
3, 118432, Note_on_c, 1, 64, 0
3, 118432, Note_on_c, 1, 69, 0
3, 118464, Note_on_c, 1, 64, 45
3, 118464, Note_on_c, 1, 69, 45
3, 118624, Note_on_c, 1, 64, 0
3, 118656, Note_on_c, 1, 65, 45
3, 118816, Note_on_c, 1, 65, 0
3, 118848, Note_on_c, 1, 61, 45
3, 119008, Note_on_c, 1, 61, 0
3, 119040, Note_on_c, 1, 62, 45
3, 119200, Note_on_c, 1, 62, 0
3, 119200, Note_on_c, 1, 69, 0
3, 119232, Note_on_c, 1, 50, 45
3, 119232, Note_on_c, 1, 58, 45
3, 119232, Note_on_c, 1, 62, 45
3, 119392, Note_on_c, 1, 50, 0
3, 119392, Note_on_c, 1, 58, 0
3, 119392, Note_on_c, 1, 62, 0
3, 119424, Note_on_c, 1, 52, 45
3, 119424, Note_on_c, 1, 57, 45
3, 119424, Note_on_c, 1, 60, 45
3, 119584, Note_on_c, 1, 57, 0
3, 119584, Note_on_c, 1, 60, 0
3, 119616, Note_on_c, 1, 56, 45
3, 119616, Note_on_c, 1, 59, 45
3, 119776, Note_on_c, 1, 52, 0
3, 119776, Note_on_c, 1, 56, 0
3, 119776, Note_on_c, 1, 59, 0
3, 119808, Note_on_c, 1, 45, 92
3, 119808, Note_on_c, 1, 57, 92
3, 119856, Note_on_c, 1, 45, 0
3, 119856, Note_on_c, 1, 57, 0
3, 120000, Note_on_c, 1, 33, 92
3, 120120, Note_on_c, 1, 33, 0
3, 120192, Note_on_c, 1, 34, 127
3, 120960, Note_on_c, 1, 34, 0
3, 120960, Note_on_c, 1, 33, 92
3, 121152, Note_on_c, 1, 33, 0
3, 121152, Note_on_c, 1, 32, 92
3, 121344, Note_on_c, 1, 32, 0
3, 121344, Note_on_c, 1, 33, 127
3, 121504, Note_on_c, 1, 33, 0
3, 121536, Note_on_c, 1, 33, 127
3, 121728, Note_on_c, 1, 33, 0
3, 121728, Note_on_c, 1, 34, 92
3, 122496, Note_on_c, 1, 34, 0
3, 122496, Note_on_c, 1, 33, 92
3, 122688, Note_on_c, 1, 33, 0
3, 122688, Note_on_c, 1, 32, 92
3, 122880, Note_on_c, 1, 32, 0
3, 122880, Note_on_c, 1, 33, 127
3, 123040, Note_on_c, 1, 33, 0
3, 123072, Note_on_c, 1, 33, 127
3, 123264, Note_on_c, 1, 33, 0
3, 123264, Note_on_c, 1, 34, 92
3, 124032, Note_on_c, 1, 34, 0
3, 124032, Note_on_c, 1, 33, 92
3, 124224, Note_on_c, 1, 33, 0
3, 124224, Note_on_c, 1, 32, 92
3, 124416, Note_on_c, 1, 32, 0
3, 124416, Note_on_c, 1, 31, 45
3, 124510, Note_on_c, 1, 31, 0
3, 124512, Note_on_c, 1, 30, 45
3, 124606, Note_on_c, 1, 30, 0
3, 124608, Note_on_c, 1, 31, 45
3, 124702, Note_on_c, 1, 31, 0
3, 124704, Note_on_c, 1, 33, 45
3, 124798, Note_on_c, 1, 33, 0
3, 124800, Note_on_c, 1, 35, 45
3, 124894, Note_on_c, 1, 35, 0
3, 124896, Note_on_c, 1, 31, 45
3, 124990, Note_on_c, 1, 31, 0
3, 124992, Note_on_c, 1, 33, 45
3, 125086, Note_on_c, 1, 33, 0
3, 125088, Note_on_c, 1, 35, 45
3, 125182, Note_on_c, 1, 35, 0
3, 125184, Note_on_c, 1, 36, 45
3, 125278, Note_on_c, 1, 36, 0
3, 125280, Note_on_c, 1, 35, 45
3, 125374, Note_on_c, 1, 35, 0
3, 125376, Note_on_c, 1, 36, 45
3, 125470, Note_on_c, 1, 36, 0
3, 125472, Note_on_c, 1, 38, 45
3, 125566, Note_on_c, 1, 38, 0
3, 125568, Note_on_c, 1, 40, 45
3, 125662, Note_on_c, 1, 40, 0
3, 125664, Note_on_c, 1, 39, 45
3, 125758, Note_on_c, 1, 39, 0
3, 125760, Note_on_c, 1, 40, 45
3, 125854, Note_on_c, 1, 40, 0
3, 125856, Note_on_c, 1, 39, 45
3, 125950, Note_on_c, 1, 39, 0
3, 125952, Note_on_c, 1, 40, 45
3, 126046, Note_on_c, 1, 40, 0
3, 126048, Note_on_c, 1, 39, 45
3, 126142, Note_on_c, 1, 39, 0
3, 126144, Note_on_c, 1, 40, 45
3, 126238, Note_on_c, 1, 40, 0
3, 126240, Note_on_c, 1, 42, 45
3, 126334, Note_on_c, 1, 42, 0
3, 126336, Note_on_c, 1, 44, 45
3, 126430, Note_on_c, 1, 44, 0
3, 126432, Note_on_c, 1, 40, 45
3, 126526, Note_on_c, 1, 40, 0
3, 126528, Note_on_c, 1, 42, 45
3, 126622, Note_on_c, 1, 42, 0
3, 126624, Note_on_c, 1, 44, 45
3, 126718, Note_on_c, 1, 44, 0
3, 126720, Note_on_c, 1, 45, 45
3, 126814, Note_on_c, 1, 45, 0
3, 126816, Note_on_c, 1, 44, 45
3, 126910, Note_on_c, 1, 44, 0
3, 126912, Note_on_c, 1, 45, 45
3, 127006, Note_on_c, 1, 45, 0
3, 127008, Note_on_c, 1, 47, 45
3, 127102, Note_on_c, 1, 47, 0
3, 127104, Note_on_c, 1, 48, 45
3, 127198, Note_on_c, 1, 48, 0
3, 127200, Note_on_c, 1, 45, 45
3, 127294, Note_on_c, 1, 45, 0
3, 127296, Note_on_c, 1, 47, 45
3, 127390, Note_on_c, 1, 47, 0
3, 127392, Note_on_c, 1, 48, 45
3, 127486, Note_on_c, 1, 48, 0
3, 127488, Note_on_c, 1, 50, 45
3, 127582, Note_on_c, 1, 50, 0
3, 127584, Note_on_c, 1, 49, 45
3, 127678, Note_on_c, 1, 49, 0
3, 127680, Note_on_c, 1, 50, 45
3, 127774, Note_on_c, 1, 50, 0
3, 127776, Note_on_c, 1, 52, 45
3, 127870, Note_on_c, 1, 52, 0
3, 127872, Note_on_c, 1, 53, 45
3, 127966, Note_on_c, 1, 53, 0
3, 127968, Note_on_c, 1, 50, 45
3, 128062, Note_on_c, 1, 50, 0
3, 128064, Note_on_c, 1, 52, 45
3, 128158, Note_on_c, 1, 52, 0
3, 128160, Note_on_c, 1, 53, 45
3, 128254, Note_on_c, 1, 53, 0
3, 128256, Note_on_c, 1, 52, 45
3, 128350, Note_on_c, 1, 52, 0
3, 128352, Note_on_c, 1, 63, 45
3, 128446, Note_on_c, 1, 63, 0
3, 128448, Note_on_c, 1, 64, 45
3, 128542, Note_on_c, 1, 64, 0
3, 128544, Note_on_c, 1, 63, 45
3, 128638, Note_on_c, 1, 63, 0
3, 128640, Note_on_c, 1, 64, 45
3, 128734, Note_on_c, 1, 64, 0
3, 128736, Note_on_c, 1, 63, 45
3, 128830, Note_on_c, 1, 63, 0
3, 128832, Note_on_c, 1, 64, 45
3, 128926, Note_on_c, 1, 64, 0
3, 128928, Note_on_c, 1, 52, 45
3, 129022, Note_on_c, 1, 52, 0
3, 129024, Note_on_c, 1, 48, 45
3, 129024, Note_on_c, 1, 60, 45
3, 129024, Note_on_c, 1, 64, 45
3, 129408, Note_on_c, 1, 60, 0
3, 129408, Note_on_c, 1, 64, 0
3, 129408, Note_on_c, 1, 59, 45
3, 129408, Note_on_c, 1, 62, 45
3, 129792, Note_on_c, 1, 59, 0
3, 129792, Note_on_c, 1, 62, 0
3, 129792, Note_on_c, 1, 57, 45
3, 129792, Note_on_c, 1, 60, 45
3, 130176, Note_on_c, 1, 57, 0
3, 130176, Note_on_c, 1, 60, 0
3, 130176, Note_on_c, 1, 56, 45
3, 130176, Note_on_c, 1, 59, 45
3, 130560, Note_on_c, 1, 48, 0
3, 130560, Note_on_c, 1, 56, 0
3, 130560, Note_on_c, 1, 59, 0
3, 130560, Note_on_c, 1, 57, 45
3, 130656, Note_on_c, 1, 57, 0
3, 130656, Note_on_c, 1, 52, 45
3, 130752, Note_on_c, 1, 52, 0
3, 130752, Note_on_c, 1, 48, 45
3, 130848, Note_on_c, 1, 48, 0
3, 130848, Note_on_c, 1, 57, 45
3, 130944, Note_on_c, 1, 57, 0
3, 130944, Note_on_c, 1, 59, 45
3, 131040, Note_on_c, 1, 59, 0
3, 131040, Note_on_c, 1, 56, 45
3, 131136, Note_on_c, 1, 56, 0
3, 131136, Note_on_c, 1, 52, 45
3, 131232, Note_on_c, 1, 52, 0
3, 131232, Note_on_c, 1, 59, 45
3, 131328, Note_on_c, 1, 59, 0
3, 131328, Note_on_c, 1, 60, 45
3, 131424, Note_on_c, 1, 60, 0
3, 131424, Note_on_c, 1, 57, 45
3, 131520, Note_on_c, 1, 57, 0
3, 131520, Note_on_c, 1, 52, 45
3, 131616, Note_on_c, 1, 52, 0
3, 131616, Note_on_c, 1, 64, 45
3, 131712, Note_on_c, 1, 64, 0
3, 131712, Note_on_c, 1, 63, 45
3, 131808, Note_on_c, 1, 63, 0
3, 131808, Note_on_c, 1, 64, 45
3, 131904, Note_on_c, 1, 64, 0
3, 131904, Note_on_c, 1, 63, 45
3, 132000, Note_on_c, 1, 63, 0
3, 132000, Note_on_c, 1, 64, 45
3, 132096, Note_on_c, 1, 64, 0
3, 132096, Note_on_c, 1, 52, 45
3, 132288, Note_on_c, 1, 60, 45
3, 132288, Note_on_c, 1, 64, 45
3, 132480, Note_on_c, 1, 52, 0
3, 132480, Note_on_c, 1, 52, 45
3, 132672, Note_on_c, 1, 60, 0
3, 132672, Note_on_c, 1, 64, 0
3, 132672, Note_on_c, 1, 59, 45
3, 132672, Note_on_c, 1, 62, 45
3, 132864, Note_on_c, 1, 52, 0
3, 132864, Note_on_c, 1, 52, 45
3, 133056, Note_on_c, 1, 58, 0
3, 133056, Note_on_c, 1, 62, 0
3, 133056, Note_on_c, 1, 57, 45
3, 133056, Note_on_c, 1, 60, 45
3, 133248, Note_on_c, 1, 52, 0
3, 133248, Note_on_c, 1, 52, 45
3, 133440, Note_on_c, 1, 57, 0
3, 133440, Note_on_c, 1, 60, 0
3, 133440, Note_on_c, 1, 56, 45
3, 133440, Note_on_c, 1, 59, 45
3, 133632, Note_on_c, 1, 52, 0
3, 133632, Note_on_c, 1, 56, 0
3, 133632, Note_on_c, 1, 59, 0
3, 133632, Note_on_c, 1, 57, 45
3, 133728, Note_on_c, 1, 57, 0
3, 133728, Note_on_c, 1, 52, 45
3, 133824, Note_on_c, 1, 52, 0
3, 133824, Note_on_c, 1, 48, 45
3, 133920, Note_on_c, 1, 48, 0
3, 133920, Note_on_c, 1, 57, 45
3, 134016, Note_on_c, 1, 57, 0
3, 134016, Note_on_c, 1, 59, 45
3, 134112, Note_on_c, 1, 59, 0
3, 134112, Note_on_c, 1, 56, 45
3, 134208, Note_on_c, 1, 56, 0
3, 134208, Note_on_c, 1, 52, 45
3, 134304, Note_on_c, 1, 52, 0
3, 134304, Note_on_c, 1, 59, 45
3, 134400, Note_on_c, 1, 59, 0
3, 134400, Note_on_c, 1, 60, 45
3, 134496, Note_on_c, 1, 60, 0
3, 134496, Note_on_c, 1, 57, 45
3, 134592, Note_on_c, 1, 57, 0
3, 134592, Note_on_c, 1, 52, 45
3, 134688, Note_on_c, 1, 52, 0
3, 134688, Note_on_c, 1, 64, 45
3, 134784, Note_on_c, 1, 64, 0
3, 134784, Note_on_c, 1, 63, 45
3, 134880, Note_on_c, 1, 63, 0
3, 134880, Note_on_c, 1, 64, 45
3, 134976, Note_on_c, 1, 64, 0
3, 134976, Note_on_c, 1, 63, 45
3, 135072, Note_on_c, 1, 63, 0
3, 135072, Note_on_c, 1, 64, 45
3, 135168, Note_on_c, 1, 64, 0
3, 135168, Note_on_c, 1, 52, 45
3, 135360, Note_on_c, 1, 60, 45
3, 135360, Note_on_c, 1, 64, 45
3, 135552, Note_on_c, 1, 52, 0
3, 135552, Note_on_c, 1, 50, 45
3, 135744, Note_on_c, 1, 60, 0
3, 135744, Note_on_c, 1, 64, 0
3, 135744, Note_on_c, 1, 59, 45
3, 135744, Note_on_c, 1, 62, 45
3, 135936, Note_on_c, 1, 50, 0
3, 135936, Note_on_c, 1, 52, 45
3, 136128, Note_on_c, 1, 59, 0
3, 136128, Note_on_c, 1, 62, 0
3, 136128, Note_on_c, 1, 57, 45
3, 136128, Note_on_c, 1, 60, 45
3, 136320, Note_on_c, 1, 52, 0
3, 136320, Note_on_c, 1, 52, 45
3, 136512, Note_on_c, 1, 57, 0
3, 136512, Note_on_c, 1, 60, 0
3, 136512, Note_on_c, 1, 56, 45
3, 136512, Note_on_c, 1, 59, 45
3, 136704, Note_on_c, 1, 52, 0
3, 136704, Note_on_c, 1, 56, 0
3, 136704, Note_on_c, 1, 59, 0
3, 136704, Note_on_c, 1, 45, 45
3, 136896, Note_on_c, 1, 57, 45
3, 137088, Note_on_c, 1, 45, 0
3, 137088, Note_on_c, 1, 57, 0
3, 137088, Note_on_c, 1, 52, 45
3, 137280, Note_on_c, 1, 56, 45
3, 137280, Note_on_c, 1, 59, 45
3, 137472, Note_on_c, 1, 52, 0
3, 137472, Note_on_c, 1, 56, 0
3, 137472, Note_on_c, 1, 59, 0
3, 137472, Note_on_c, 1, 57, 45
3, 137664, Note_on_c, 1, 60, 45
3, 137856, Note_on_c, 1, 57, 0
3, 137856, Note_on_c, 1, 60, 0
3, 137856, Note_on_c, 1, 52, 45
3, 138048, Note_on_c, 1, 56, 45
3, 138048, Note_on_c, 1, 59, 45
3, 138240, Note_on_c, 1, 52, 0
3, 138240, Note_on_c, 1, 56, 0
3, 138240, Note_on_c, 1, 59, 0
3, 138240, Note_on_c, 1, 45, 45
3, 138240, Note_on_c, 1, 57, 45
3, 138400, Note_on_c, 1, 45, 0
3, 138400, Note_on_c, 1, 57, 0
3, 138624, Note_on_c, 1, 33, 45
3, 138624, Note_on_c, 1, 45, 45
3, 139008, Note_on_c, 1, 33, 0
3, 139008, Note_on_c, 1, 45, 0
3, 139008, Note_on_c, 1, 33, 45
3, 139008, Note_on_c, 1, 45, 45
3, 139392, Note_on_c, 1, 33, 0
3, 139392, Note_on_c, 1, 45, 0
3, 139392, Note_on_c, 1, 33, 45
3, 139392, Note_on_c, 1, 45, 45
3, 139776, Note_on_c, 1, 33, 0
3, 139776, Note_on_c, 1, 45, 0
3, 139776, Note_on_c, 1, 33, 45
3, 139776, Note_on_c, 1, 45, 45
3, 141264, Note_on_c, 1, 33, 0
3, 141264, Note_on_c, 1, 45, 0
3, 141312, Note_on_c, 1, 31, 45
3, 141312, Note_on_c, 1, 43, 45
3, 142800, Note_on_c, 1, 31, 0
3, 142800, Note_on_c, 1, 43, 0
3, 142848, Control_c, 1, 64, 127
3, 142848, Note_on_c, 1, 30, 30
3, 142894, Note_on_c, 1, 30, 0
3, 142896, Note_on_c, 1, 33, 30
3, 142942, Note_on_c, 1, 33, 0
3, 142944, Note_on_c, 1, 38, 30
3, 142990, Note_on_c, 1, 38, 0
3, 142992, Note_on_c, 1, 42, 30
3, 143038, Note_on_c, 1, 42, 0
3, 143040, Note_on_c, 1, 45, 30
3, 143086, Note_on_c, 1, 45, 0
3, 143088, Note_on_c, 1, 50, 30
3, 143134, Note_on_c, 1, 50, 0
3, 143136, Note_on_c, 1, 54, 30
3, 143182, Note_on_c, 1, 54, 0
3, 143184, Note_on_c, 1, 57, 30
3, 143230, Note_on_c, 1, 57, 0
3, 143232, Note_on_c, 1, 62, 30
3, 143568, Note_on_c, 1, 62, 0
3, 143616, Note_on_c, 1, 66, 30
3, 143664, Note_on_c, 1, 66, 0
3, 143808, Note_on_c, 1, 69, 30
3, 143856, Note_on_c, 1, 69, 0
3, 144000, Control_c, 1, 64, 0
3, 144768, Control_c, 1, 64, 127
3, 144768, Note_on_c, 1, 36, 30
3, 144814, Note_on_c, 1, 36, 0
3, 144816, Note_on_c, 1, 39, 30
3, 144862, Note_on_c, 1, 39, 0
3, 144864, Note_on_c, 1, 42, 30
3, 144910, Note_on_c, 1, 42, 0
3, 144912, Note_on_c, 1, 45, 30
3, 144958, Note_on_c, 1, 45, 0
3, 144960, Note_on_c, 1, 48, 30
3, 145006, Note_on_c, 1, 48, 0
3, 145008, Note_on_c, 1, 51, 30
3, 145054, Note_on_c, 1, 51, 0
3, 145056, Note_on_c, 1, 54, 30
3, 145102, Note_on_c, 1, 54, 0
3, 145104, Note_on_c, 1, 57, 30
3, 145150, Note_on_c, 1, 57, 0
3, 145152, Note_on_c, 1, 60, 30
3, 145198, Note_on_c, 1, 60, 0
3, 145200, Note_on_c, 1, 63, 30
3, 145246, Note_on_c, 1, 63, 0
3, 145248, Note_on_c, 1, 66, 30
3, 145584, Note_on_c, 1, 66, 0
3, 145632, Note_on_c, 1, 69, 30
3, 145680, Note_on_c, 1, 69, 0
3, 145824, Note_on_c, 1, 75, 30
3, 145872, Note_on_c, 1, 75, 0
3, 146016, Control_c, 1, 64, 0
3, 146784, Control_c, 1, 64, 127
3, 146784, Note_on_c, 1, 37, 30
3, 146830, Note_on_c, 1, 37, 0
3, 146832, Note_on_c, 1, 42, 30
3, 146878, Note_on_c, 1, 42, 0
3, 146880, Note_on_c, 1, 46, 30
3, 146926, Note_on_c, 1, 46, 0
3, 146928, Note_on_c, 1, 49, 30
3, 146974, Note_on_c, 1, 49, 0
3, 146976, Note_on_c, 1, 54, 30
3, 147022, Note_on_c, 1, 54, 0
3, 147024, Note_on_c, 1, 58, 30
3, 147070, Note_on_c, 1, 58, 0
3, 147072, Note_on_c, 1, 61, 30
3, 147118, Note_on_c, 1, 61, 0
3, 147120, Note_on_c, 1, 66, 30
3, 147166, Note_on_c, 1, 66, 0
3, 147168, Note_on_c, 1, 70, 30
3, 147504, Note_on_c, 1, 70, 0
3, 147552, Note_on_c, 1, 73, 30
3, 147600, Note_on_c, 1, 73, 0
3, 147744, Note_on_c, 1, 78, 30
3, 147792, Note_on_c, 1, 78, 0
3, 148704, Control_c, 1, 64, 0
3, 148704, Note_on_c, 1, 30, 108
3, 149040, Note_on_c, 1, 30, 0
3, 149088, Note_on_c, 1, 33, 127
3, 149248, Note_on_c, 1, 33, 0
3, 149280, Note_on_c, 1, 37, 127
3, 149440, Note_on_c, 1, 37, 0
3, 149472, Note_on_c, 1, 42, 127
3, 149632, Note_on_c, 1, 42, 0
3, 150048, Note_on_c, 1, 73, 45
3, 150240, Note_on_c, 1, 73, 0
3, 150240, Note_on_c, 1, 72, 45
3, 150432, Note_on_c, 1, 72, 0
3, 150432, Note_on_c, 1, 73, 45
3, 150624, Note_on_c, 1, 73, 0
3, 150624, Note_on_c, 1, 74, 45
3, 150816, Note_on_c, 1, 74, 0
3, 150816, Note_on_c, 1, 73, 45
3, 151008, Note_on_c, 1, 73, 0
3, 151008, Note_on_c, 1, 73, 45
3, 151392, Note_on_c, 1, 73, 0
3, 151392, Note_on_c, 1, 73, 45
3, 151776, Note_on_c, 1, 73, 0
3, 151776, Note_on_c, 1, 32, 92
3, 152112, Note_on_c, 1, 32, 0
3, 152160, Note_on_c, 1, 35, 127
3, 152320, Note_on_c, 1, 35, 0
3, 152352, Note_on_c, 1, 41, 127
3, 152512, Note_on_c, 1, 41, 0
3, 152544, Note_on_c, 1, 44, 127
3, 152704, Note_on_c, 1, 44, 0
3, 153120, Note_on_c, 1, 73, 45
3, 153312, Note_on_c, 1, 73, 0
3, 153312, Note_on_c, 1, 72, 45
3, 153504, Note_on_c, 1, 72, 0
3, 153504, Note_on_c, 1, 73, 45
3, 153696, Note_on_c, 1, 73, 0
3, 153696, Note_on_c, 1, 74, 45
3, 153888, Note_on_c, 1, 74, 0
3, 153888, Note_on_c, 1, 73, 45
3, 154080, Note_on_c, 1, 73, 0
3, 154080, Note_on_c, 1, 73, 45
3, 154464, Note_on_c, 1, 73, 0
3, 154464, Note_on_c, 1, 73, 45
3, 154848, Note_on_c, 1, 73, 0
3, 154848, Note_on_c, 1, 33, 92
3, 155184, Note_on_c, 1, 33, 0
3, 155232, Note_on_c, 1, 37, 127
3, 155392, Note_on_c, 1, 37, 0
3, 155424, Note_on_c, 1, 42, 127
3, 155584, Note_on_c, 1, 42, 0
3, 155616, Note_on_c, 1, 45, 127
3, 155776, Note_on_c, 1, 45, 0
3, 156000, Note_on_c, 1, 78, 127
3, 156160, Note_on_c, 1, 78, 0
3, 156384, Note_on_c, 1, 35, 92
3, 156720, Note_on_c, 1, 35, 0
3, 156768, Note_on_c, 1, 38, 127
3, 156928, Note_on_c, 1, 38, 0
3, 156960, Note_on_c, 1, 42, 127
3, 157120, Note_on_c, 1, 42, 0
3, 157152, Note_on_c, 1, 47, 127
3, 157312, Note_on_c, 1, 47, 0
3, 157536, Note_on_c, 1, 78, 127
3, 157696, Note_on_c, 1, 78, 0
3, 157920, Note_on_c, 1, 35, 92
3, 158256, Note_on_c, 1, 35, 0
3, 158304, Note_on_c, 1, 38, 127
3, 158464, Note_on_c, 1, 38, 0
3, 158496, Note_on_c, 1, 43, 127
3, 158656, Note_on_c, 1, 43, 0
3, 158688, Note_on_c, 1, 47, 127
3, 158848, Note_on_c, 1, 47, 0
3, 159072, Note_on_c, 1, 79, 127
3, 159232, Note_on_c, 1, 79, 0
3, 159456, Note_on_c, 1, 36, 92
3, 159792, Note_on_c, 1, 36, 0
3, 159840, Note_on_c, 1, 40, 127
3, 160000, Note_on_c, 1, 40, 0
3, 160032, Note_on_c, 1, 43, 127
3, 160192, Note_on_c, 1, 43, 0
3, 160224, Note_on_c, 1, 48, 127
3, 160384, Note_on_c, 1, 48, 0
3, 160608, Note_on_c, 1, 79, 127
3, 160768, Note_on_c, 1, 79, 0
3, 160992, Note_on_c, 1, 37, 92
3, 161328, Note_on_c, 1, 37, 0
3, 161376, Note_on_c, 1, 40, 127
3, 161536, Note_on_c, 1, 40, 0
3, 161568, Note_on_c, 1, 45, 127
3, 161728, Note_on_c, 1, 45, 0
3, 161760, Note_on_c, 1, 49, 127
3, 161920, Note_on_c, 1, 49, 0
3, 162144, Note_on_c, 1, 81, 127
3, 162304, Note_on_c, 1, 81, 0
3, 162528, Note_on_c, 1, 38, 92
3, 162864, Note_on_c, 1, 38, 0
3, 162912, Note_on_c, 1, 41, 127
3, 163072, Note_on_c, 1, 41, 0
3, 163104, Note_on_c, 1, 45, 127
3, 163264, Note_on_c, 1, 45, 0
3, 163296, Note_on_c, 1, 50, 127
3, 163456, Note_on_c, 1, 50, 0
3, 163680, Note_on_c, 1, 81, 127
3, 163840, Note_on_c, 1, 81, 0
3, 164064, Note_on_c, 1, 47, 92
3, 164126, Note_on_c, 1, 47, 0
3, 164128, Note_on_c, 1, 62, 92
3, 164190, Note_on_c, 1, 62, 0
3, 164192, Note_on_c, 1, 59, 92
3, 164254, Note_on_c, 1, 59, 0
3, 164256, Note_on_c, 1, 62, 92
3, 164318, Note_on_c, 1, 62, 0
3, 164320, Note_on_c, 1, 59, 92
3, 164382, Note_on_c, 1, 59, 0
3, 164384, Note_on_c, 1, 62, 92
3, 164446, Note_on_c, 1, 62, 0
3, 164448, Note_on_c, 1, 59, 92
3, 164510, Note_on_c, 1, 59, 0
3, 164512, Note_on_c, 1, 62, 92
3, 164574, Note_on_c, 1, 62, 0
3, 164576, Note_on_c, 1, 59, 92
3, 164638, Note_on_c, 1, 59, 0
3, 164640, Note_on_c, 1, 62, 92
3, 164702, Note_on_c, 1, 62, 0
3, 164704, Note_on_c, 1, 59, 92
3, 164766, Note_on_c, 1, 59, 0
3, 164768, Note_on_c, 1, 62, 92
3, 164830, Note_on_c, 1, 62, 0
3, 164832, Note_on_c, 1, 46, 92
3, 164894, Note_on_c, 1, 46, 0
3, 164896, Note_on_c, 1, 62, 92
3, 164958, Note_on_c, 1, 62, 0
3, 164960, Note_on_c, 1, 58, 92
3, 165022, Note_on_c, 1, 58, 0
3, 165024, Note_on_c, 1, 62, 92
3, 165086, Note_on_c, 1, 62, 0
3, 165088, Note_on_c, 1, 58, 92
3, 165150, Note_on_c, 1, 58, 0
3, 165152, Note_on_c, 1, 62, 92
3, 165214, Note_on_c, 1, 62, 0
3, 165216, Note_on_c, 1, 58, 92
3, 165278, Note_on_c, 1, 58, 0
3, 165280, Note_on_c, 1, 62, 92
3, 165342, Note_on_c, 1, 62, 0
3, 165344, Note_on_c, 1, 58, 92
3, 165406, Note_on_c, 1, 58, 0
3, 165408, Note_on_c, 1, 62, 92
3, 165470, Note_on_c, 1, 62, 0
3, 165472, Note_on_c, 1, 58, 92
3, 165534, Note_on_c, 1, 58, 0
3, 165536, Note_on_c, 1, 62, 92
3, 165598, Note_on_c, 1, 62, 0
3, 165600, Note_on_c, 1, 45, 127
3, 165694, Note_on_c, 1, 45, 0
3, 165696, Note_on_c, 1, 57, 108
3, 165790, Note_on_c, 1, 57, 0
3, 165792, Note_on_c, 1, 56, 108
3, 165886, Note_on_c, 1, 56, 0
3, 165888, Note_on_c, 1, 57, 108
3, 165982, Note_on_c, 1, 57, 0
3, 165984, Note_on_c, 1, 56, 108
3, 166078, Note_on_c, 1, 56, 0
3, 166080, Note_on_c, 1, 57, 108
3, 166174, Note_on_c, 1, 57, 0
3, 166176, Note_on_c, 1, 56, 108
3, 166270, Note_on_c, 1, 56, 0
3, 166272, Note_on_c, 1, 57, 108
3, 166366, Note_on_c, 1, 57, 0
3, 166368, Note_on_c, 1, 56, 108
3, 166462, Note_on_c, 1, 56, 0
3, 166464, Note_on_c, 1, 57, 108
3, 166558, Note_on_c, 1, 57, 0
3, 166560, Note_on_c, 1, 61, 108
3, 166560, Note_on_c, 1, 64, 108
3, 166654, Note_on_c, 1, 61, 0
3, 166654, Note_on_c, 1, 64, 0
3, 166656, Note_on_c, 1, 57, 108
3, 166750, Note_on_c, 1, 57, 0
3, 166752, Note_on_c, 1, 62, 127
3, 166752, Note_on_c, 1, 65, 127
3, 166846, Note_on_c, 1, 62, 0
3, 166846, Note_on_c, 1, 65, 0
3, 166848, Note_on_c, 1, 57, 108
3, 166942, Note_on_c, 1, 57, 0
3, 166944, Note_on_c, 1, 59, 108
3, 166944, Note_on_c, 1, 62, 108
3, 167038, Note_on_c, 1, 59, 0
3, 167038, Note_on_c, 1, 62, 0
3, 167040, Note_on_c, 1, 57, 108
3, 167134, Note_on_c, 1, 57, 0
3, 167136, Note_on_c, 1, 61, 108
3, 167136, Note_on_c, 1, 64, 108
3, 167232, Note_on_c, 1, 61, 0
3, 167232, Note_on_c, 1, 64, 0
3, 167232, Note_on_c, 1, 57, 108
3, 167328, Note_on_c, 1, 57, 0
3, 167328, Note_on_c, 1, 61, 108
3, 167328, Note_on_c, 1, 64, 108
3, 167424, Note_on_c, 1, 61, 0
3, 167424, Note_on_c, 1, 64, 0
3, 167424, Note_on_c, 1, 57, 108
3, 167520, Note_on_c, 1, 57, 0
3, 167520, Note_on_c, 1, 62, 127
3, 167520, Note_on_c, 1, 65, 127
3, 167616, Note_on_c, 1, 62, 0
3, 167616, Note_on_c, 1, 65, 0
3, 167616, Note_on_c, 1, 57, 108
3, 167712, Note_on_c, 1, 57, 0
3, 167712, Note_on_c, 1, 59, 108
3, 167712, Note_on_c, 1, 62, 108
3, 167808, Note_on_c, 1, 59, 0
3, 167808, Note_on_c, 1, 62, 0
3, 167808, Note_on_c, 1, 57, 108
3, 167902, Note_on_c, 1, 57, 0
3, 167904, Note_on_c, 1, 61, 108
3, 167904, Note_on_c, 1, 64, 108
3, 168000, Note_on_c, 1, 61, 0
3, 168000, Note_on_c, 1, 64, 0
3, 168000, Note_on_c, 1, 57, 108
3, 168096, Note_on_c, 1, 57, 0
3, 168096, Note_on_c, 1, 61, 108
3, 168096, Note_on_c, 1, 64, 108
3, 168192, Note_on_c, 1, 61, 0
3, 168192, Note_on_c, 1, 64, 0
3, 168192, Note_on_c, 1, 57, 108
3, 168288, Note_on_c, 1, 57, 0
3, 168288, Note_on_c, 1, 62, 127
3, 168288, Note_on_c, 1, 65, 127
3, 168384, Note_on_c, 1, 62, 0
3, 168384, Note_on_c, 1, 65, 0
3, 168384, Note_on_c, 1, 57, 108
3, 168480, Note_on_c, 1, 57, 0
3, 168480, Note_on_c, 1, 59, 108
3, 168480, Note_on_c, 1, 62, 108
3, 168576, Note_on_c, 1, 59, 0
3, 168576, Note_on_c, 1, 62, 0
3, 168576, Note_on_c, 1, 57, 108
3, 168672, Note_on_c, 1, 57, 0
3, 168672, Note_on_c, 1, 61, 108
3, 168672, Note_on_c, 1, 64, 108
3, 168766, Note_on_c, 1, 61, 0
3, 168766, Note_on_c, 1, 64, 0
3, 168768, Note_on_c, 1, 57, 108
3, 168862, Note_on_c, 1, 57, 0
3, 168864, Note_on_c, 1, 56, 108
3, 168958, Note_on_c, 1, 56, 0
3, 168960, Note_on_c, 1, 57, 108
3, 169054, Note_on_c, 1, 57, 0
3, 169056, Note_on_c, 1, 56, 108
3, 169150, Note_on_c, 1, 56, 0
3, 169152, Note_on_c, 1, 57, 108
3, 169246, Note_on_c, 1, 57, 0
3, 169248, Note_on_c, 1, 56, 108
3, 169342, Note_on_c, 1, 56, 0
3, 169344, Note_on_c, 1, 57, 108
3, 169438, Note_on_c, 1, 57, 0
3, 169440, Note_on_c, 1, 56, 108
3, 169534, Note_on_c, 1, 56, 0
3, 169536, Note_on_c, 1, 57, 108
3, 169630, Note_on_c, 1, 57, 0
3, 169632, Note_on_c, 1, 49, 108
3, 169632, Note_on_c, 1, 52, 108
3, 169726, Note_on_c, 1, 49, 0
3, 169726, Note_on_c, 1, 52, 0
3, 169728, Note_on_c, 1, 57, 108
3, 169822, Note_on_c, 1, 57, 0
3, 169824, Note_on_c, 1, 50, 127
3, 169824, Note_on_c, 1, 53, 127
3, 169918, Note_on_c, 1, 50, 0
3, 169918, Note_on_c, 1, 53, 0
3, 169920, Note_on_c, 1, 57, 108
3, 170014, Note_on_c, 1, 57, 0
3, 170016, Note_on_c, 1, 47, 108
3, 170016, Note_on_c, 1, 50, 108
3, 170110, Note_on_c, 1, 47, 0
3, 170110, Note_on_c, 1, 50, 0
3, 170112, Note_on_c, 1, 57, 108
3, 170206, Note_on_c, 1, 57, 0
3, 170208, Note_on_c, 1, 49, 108
3, 170208, Note_on_c, 1, 52, 108
3, 170304, Note_on_c, 1, 49, 0
3, 170304, Note_on_c, 1, 52, 0
3, 170304, Note_on_c, 1, 57, 108
3, 170400, Note_on_c, 1, 57, 0
3, 170400, Note_on_c, 1, 49, 108
3, 170400, Note_on_c, 1, 52, 108
3, 170496, Note_on_c, 1, 49, 0
3, 170496, Note_on_c, 1, 52, 0
3, 170496, Note_on_c, 1, 57, 108
3, 170592, Note_on_c, 1, 57, 0
3, 170592, Note_on_c, 1, 50, 127
3, 170592, Note_on_c, 1, 53, 127
3, 170688, Note_on_c, 1, 50, 0
3, 170688, Note_on_c, 1, 53, 0
3, 170688, Note_on_c, 1, 57, 108
3, 170784, Note_on_c, 1, 57, 0
3, 170784, Note_on_c, 1, 47, 108
3, 170784, Note_on_c, 1, 50, 108
3, 170880, Note_on_c, 1, 47, 0
3, 170880, Note_on_c, 1, 50, 0
3, 170880, Note_on_c, 1, 57, 108
3, 170974, Note_on_c, 1, 57, 0
3, 170976, Note_on_c, 1, 49, 108
3, 170976, Note_on_c, 1, 52, 108
3, 171072, Note_on_c, 1, 49, 0
3, 171072, Note_on_c, 1, 52, 0
3, 171072, Note_on_c, 1, 57, 108
3, 171168, Note_on_c, 1, 57, 0
3, 171168, Note_on_c, 1, 49, 108
3, 171168, Note_on_c, 1, 52, 108
3, 171264, Note_on_c, 1, 49, 0
3, 171264, Note_on_c, 1, 52, 0
3, 171264, Note_on_c, 1, 57, 108
3, 171360, Note_on_c, 1, 57, 0
3, 171360, Note_on_c, 1, 50, 127
3, 171360, Note_on_c, 1, 53, 127
3, 171456, Note_on_c, 1, 50, 0
3, 171456, Note_on_c, 1, 53, 0
3, 171456, Note_on_c, 1, 57, 108
3, 171552, Note_on_c, 1, 57, 0
3, 171552, Note_on_c, 1, 47, 108
3, 171552, Note_on_c, 1, 50, 108
3, 171648, Note_on_c, 1, 47, 0
3, 171648, Note_on_c, 1, 50, 0
3, 171648, Note_on_c, 1, 57, 108
3, 171744, Note_on_c, 1, 57, 0
3, 171744, Note_on_c, 1, 49, 108
3, 171744, Note_on_c, 1, 52, 108
3, 171838, Note_on_c, 1, 49, 0
3, 171838, Note_on_c, 1, 52, 0
3, 171840, Note_on_c, 1, 45, 108
3, 171934, Note_on_c, 1, 45, 0
3, 171936, Note_on_c, 1, 44, 108
3, 172030, Note_on_c, 1, 44, 0
3, 172032, Note_on_c, 1, 45, 108
3, 172126, Note_on_c, 1, 45, 0
3, 172128, Note_on_c, 1, 44, 108
3, 172222, Note_on_c, 1, 44, 0
3, 172224, Note_on_c, 1, 45, 108
3, 172318, Note_on_c, 1, 45, 0
3, 172320, Note_on_c, 1, 44, 108
3, 172414, Note_on_c, 1, 44, 0
3, 172416, Note_on_c, 1, 45, 108
3, 172510, Note_on_c, 1, 45, 0
3, 172512, Note_on_c, 1, 44, 108
3, 172606, Note_on_c, 1, 44, 0
3, 172608, Note_on_c, 1, 45, 108
3, 172702, Note_on_c, 1, 45, 0
3, 172704, Note_on_c, 1, 49, 108
3, 172704, Note_on_c, 1, 52, 108
3, 172798, Note_on_c, 1, 49, 0
3, 172798, Note_on_c, 1, 52, 0
3, 172800, Note_on_c, 1, 45, 108
3, 172894, Note_on_c, 1, 45, 0
3, 172896, Note_on_c, 1, 47, 127
3, 172896, Note_on_c, 1, 50, 127
3, 172990, Note_on_c, 1, 47, 0
3, 172990, Note_on_c, 1, 50, 0
3, 172992, Note_on_c, 1, 45, 108
3, 173086, Note_on_c, 1, 45, 0
3, 173088, Note_on_c, 1, 50, 108
3, 173088, Note_on_c, 1, 53, 108
3, 173182, Note_on_c, 1, 50, 0
3, 173182, Note_on_c, 1, 53, 0
3, 173184, Note_on_c, 1, 45, 108
3, 173278, Note_on_c, 1, 45, 0
3, 173280, Note_on_c, 1, 49, 108
3, 173280, Note_on_c, 1, 52, 108
3, 173374, Note_on_c, 1, 49, 0
3, 173374, Note_on_c, 1, 52, 0
3, 173376, Note_on_c, 1, 45, 108
3, 173470, Note_on_c, 1, 45, 0
3, 173472, Note_on_c, 1, 49, 108
3, 173472, Note_on_c, 1, 52, 108
3, 173566, Note_on_c, 1, 49, 0
3, 173566, Note_on_c, 1, 52, 0
3, 173568, Note_on_c, 1, 45, 108
3, 173662, Note_on_c, 1, 45, 0
3, 173664, Note_on_c, 1, 47, 127
3, 173664, Note_on_c, 1, 50, 127
3, 173758, Note_on_c, 1, 47, 0
3, 173758, Note_on_c, 1, 50, 0
3, 173760, Note_on_c, 1, 45, 108
3, 173854, Note_on_c, 1, 45, 0
3, 173856, Note_on_c, 1, 50, 108
3, 173856, Note_on_c, 1, 53, 108
3, 173950, Note_on_c, 1, 50, 0
3, 173950, Note_on_c, 1, 53, 0
3, 173952, Note_on_c, 1, 45, 108
3, 174046, Note_on_c, 1, 45, 0
3, 174048, Note_on_c, 1, 49, 108
3, 174048, Note_on_c, 1, 52, 108
3, 174142, Note_on_c, 1, 49, 0
3, 174142, Note_on_c, 1, 52, 0
3, 174144, Note_on_c, 1, 45, 108
3, 174238, Note_on_c, 1, 45, 0
3, 174240, Note_on_c, 1, 49, 108
3, 174240, Note_on_c, 1, 52, 108
3, 174334, Note_on_c, 1, 49, 0
3, 174334, Note_on_c, 1, 52, 0
3, 174336, Note_on_c, 1, 45, 108
3, 174430, Note_on_c, 1, 45, 0
3, 174432, Note_on_c, 1, 47, 127
3, 174432, Note_on_c, 1, 50, 127
3, 174526, Note_on_c, 1, 47, 0
3, 174526, Note_on_c, 1, 50, 0
3, 174528, Note_on_c, 1, 45, 108
3, 174622, Note_on_c, 1, 45, 0
3, 174624, Note_on_c, 1, 50, 108
3, 174624, Note_on_c, 1, 53, 108
3, 174718, Note_on_c, 1, 50, 0
3, 174718, Note_on_c, 1, 53, 0
3, 174720, Note_on_c, 1, 45, 108
3, 174814, Note_on_c, 1, 45, 0
3, 174816, Note_on_c, 1, 45, 108
3, 174816, Note_on_c, 1, 49, 108
3, 174816, Note_on_c, 1, 52, 108
3, 175536, Note_on_c, 1, 45, 0
3, 175536, Note_on_c, 1, 49, 0
3, 175536, Note_on_c, 1, 52, 0
3, 175584, Note_on_c, 1, 33, 108
3, 175584, Note_on_c, 1, 45, 108
3, 176304, Note_on_c, 1, 33, 0
3, 176304, Note_on_c, 1, 45, 0
3, 176352, Note_on_c, 1, 33, 87
3, 176352, Note_on_c, 1, 45, 87
3, 177072, Note_on_c, 1, 33, 0
3, 177072, Note_on_c, 1, 45, 0
3, 177120, Note_on_c, 1, 33, 66
3, 177120, Note_on_c, 1, 45, 66
3, 177840, Note_on_c, 1, 33, 0
3, 177840, Note_on_c, 1, 45, 0
3, 177888, Note_on_c, 1, 33, 45
3, 177888, Note_on_c, 1, 45, 45
3, 179376, Note_on_c, 1, 33, 0
3, 179376, Note_on_c, 1, 45, 0
3, 179424, Note_on_c, 1, 46, 63
3, 179952, Note_on_c, 1, 46, 0
3, 180000, Note_on_c, 1, 45, 45
3, 180160, Note_on_c, 1, 45, 0
3, 180192, Note_on_c, 1, 43, 45
3, 180352, Note_on_c, 1, 43, 0
3, 180384, Note_on_c, 1, 41, 45
3, 180544, Note_on_c, 1, 41, 0
3, 180576, Note_on_c, 1, 39, 45
3, 180736, Note_on_c, 1, 39, 0
3, 180768, Note_on_c, 1, 38, 45
3, 180928, Note_on_c, 1, 38, 0
3, 180960, Note_on_c, 1, 37, 45
3, 181120, Note_on_c, 1, 37, 0
3, 181152, Note_on_c, 1, 43, 45
3, 181312, Note_on_c, 1, 43, 0
3, 181344, Note_on_c, 1, 46, 45
3, 181504, Note_on_c, 1, 46, 0
3, 181536, Note_on_c, 1, 45, 45
3, 181696, Note_on_c, 1, 45, 0
3, 181728, Note_on_c, 1, 43, 45
3, 181888, Note_on_c, 1, 43, 0
3, 181920, Note_on_c, 1, 41, 45
3, 182080, Note_on_c, 1, 41, 0
3, 182112, Note_on_c, 1, 39, 45
3, 182272, Note_on_c, 1, 39, 0
3, 182304, Note_on_c, 1, 38, 45
3, 182464, Note_on_c, 1, 38, 0
3, 182496, Control_c, 1, 64, 127
3, 182496, Note_on_c, 1, 37, 30
3, 182544, Note_on_c, 1, 40, 30
3, 182592, Note_on_c, 1, 45, 30
3, 183216, Note_on_c, 1, 37, 0
3, 183216, Note_on_c, 1, 40, 0
3, 183216, Note_on_c, 1, 45, 0
3, 186912, Control_c, 1, 64, 0
3, 186912, Note_on_c, 1, 49, 45
3, 186912, Note_on_c, 1, 57, 45
3, 186960, Note_on_c, 1, 49, 0
3, 186960, Note_on_c, 1, 57, 0
3, 187104, Note_on_c, 1, 50, 45
3, 187104, Note_on_c, 1, 57, 45
3, 187152, Note_on_c, 1, 50, 0
3, 187152, Note_on_c, 1, 57, 0
3, 187296, Note_on_c, 1, 52, 45
3, 187296, Note_on_c, 1, 57, 45
3, 187344, Note_on_c, 1, 52, 0
3, 187344, Note_on_c, 1, 57, 0
3, 187488, Note_on_c, 1, 53, 45
3, 187488, Note_on_c, 1, 57, 45
3, 187536, Note_on_c, 1, 53, 0
3, 187536, Note_on_c, 1, 57, 0
3, 187680, Note_on_c, 1, 49, 45
3, 187680, Note_on_c, 1, 57, 45
3, 187728, Note_on_c, 1, 49, 0
3, 187728, Note_on_c, 1, 57, 0
3, 187872, Note_on_c, 1, 50, 45
3, 187872, Note_on_c, 1, 57, 45
3, 187920, Note_on_c, 1, 50, 0
3, 187920, Note_on_c, 1, 57, 0
3, 188064, Note_on_c, 1, 52, 45
3, 188064, Note_on_c, 1, 57, 45
3, 188112, Note_on_c, 1, 52, 0
3, 188112, Note_on_c, 1, 57, 0
3, 188256, Note_on_c, 1, 53, 45
3, 188256, Note_on_c, 1, 57, 45
3, 188304, Note_on_c, 1, 53, 0
3, 188304, Note_on_c, 1, 57, 0
3, 188448, Note_on_c, 1, 54, 45
3, 188448, Note_on_c, 1, 62, 45
3, 188496, Note_on_c, 1, 54, 0
3, 188496, Note_on_c, 1, 62, 0
3, 188640, Note_on_c, 1, 55, 45
3, 188640, Note_on_c, 1, 62, 45
3, 188688, Note_on_c, 1, 55, 0
3, 188688, Note_on_c, 1, 62, 0
3, 188832, Note_on_c, 1, 57, 45
3, 188832, Note_on_c, 1, 62, 45
3, 188880, Note_on_c, 1, 57, 0
3, 188880, Note_on_c, 1, 62, 0
3, 189024, Note_on_c, 1, 58, 45
3, 189024, Note_on_c, 1, 62, 45
3, 189072, Note_on_c, 1, 58, 0
3, 189072, Note_on_c, 1, 62, 0
3, 189216, Note_on_c, 1, 58, 45
3, 189216, Note_on_c, 1, 62, 45
3, 189264, Note_on_c, 1, 58, 0
3, 189264, Note_on_c, 1, 62, 0
3, 189408, Note_on_c, 1, 57, 63
3, 189408, Note_on_c, 1, 62, 63
3, 189744, Note_on_c, 1, 57, 0
3, 189744, Note_on_c, 1, 62, 0
3, 189792, Note_on_c, 1, 57, 45
3, 189792, Note_on_c, 1, 61, 45
3, 190128, Note_on_c, 1, 57, 0
3, 190128, Note_on_c, 1, 61, 0
3, 190176, Control_c, 1, 64, 127
3, 190176, Note_on_c, 1, 40, 30
3, 190224, Note_on_c, 1, 43, 30
3, 190272, Note_on_c, 1, 48, 30
3, 190560, Note_on_c, 1, 52, 30
3, 190584, Note_on_c, 1, 55, 30
3, 190608, Note_on_c, 1, 60, 30
3, 190912, Note_on_c, 1, 52, 0
3, 190912, Note_on_c, 1, 55, 0
3, 190912, Note_on_c, 1, 60, 0
3, 192048, Note_on_c, 1, 40, 0
3, 192048, Note_on_c, 1, 43, 0
3, 192048, Note_on_c, 1, 48, 0
3, 195168, Control_c, 1, 64, 0
3, 195168, Note_on_c, 1, 29, 30
3, 195168, Note_on_c, 1, 37, 30
3, 195168, Note_on_c, 1, 41, 30
3, 195328, Note_on_c, 1, 29, 0
3, 195328, Note_on_c, 1, 37, 0
3, 195328, Note_on_c, 1, 41, 0
3, 195552, Note_on_c, 1, 29, 30
3, 195552, Note_on_c, 1, 37, 30
3, 195552, Note_on_c, 1, 41, 30
3, 195712, Note_on_c, 1, 29, 0
3, 195712, Note_on_c, 1, 37, 0
3, 195712, Note_on_c, 1, 41, 0
3, 195936, Note_on_c, 1, 29, 30
3, 195936, Note_on_c, 1, 37, 30
3, 195936, Note_on_c, 1, 41, 30
3, 196096, Note_on_c, 1, 29, 0
3, 196096, Note_on_c, 1, 37, 0
3, 196096, Note_on_c, 1, 41, 0
3, 196320, Note_on_c, 1, 29, 30
3, 196320, Note_on_c, 1, 37, 30
3, 196320, Note_on_c, 1, 41, 30
3, 196480, Note_on_c, 1, 29, 0
3, 196480, Note_on_c, 1, 37, 0
3, 196480, Note_on_c, 1, 41, 0
3, 196704, Note_on_c, 1, 30, 30
3, 196704, Note_on_c, 1, 37, 30
3, 196704, Note_on_c, 1, 42, 30
3, 196864, Note_on_c, 1, 30, 0
3, 196864, Note_on_c, 1, 37, 0
3, 196864, Note_on_c, 1, 42, 0
3, 198240, Note_on_c, 1, 42, 75
3, 198240, Note_on_c, 1, 50, 75
3, 198240, Note_on_c, 1, 54, 75
3, 198288, Note_on_c, 1, 42, 0
3, 198288, Note_on_c, 1, 50, 0
3, 198288, Note_on_c, 1, 54, 0
3, 198624, Note_on_c, 1, 42, 75
3, 198624, Note_on_c, 1, 50, 75
3, 198624, Note_on_c, 1, 54, 75
3, 198672, Note_on_c, 1, 42, 0
3, 198672, Note_on_c, 1, 50, 0
3, 198672, Note_on_c, 1, 54, 0
3, 199008, Note_on_c, 1, 42, 75
3, 199008, Note_on_c, 1, 50, 75
3, 199008, Note_on_c, 1, 54, 75
3, 199056, Note_on_c, 1, 42, 0
3, 199056, Note_on_c, 1, 50, 0
3, 199056, Note_on_c, 1, 54, 0
3, 199392, Note_on_c, 1, 42, 75
3, 199392, Note_on_c, 1, 50, 75
3, 199392, Note_on_c, 1, 54, 75
3, 199440, Note_on_c, 1, 42, 0
3, 199440, Note_on_c, 1, 50, 0
3, 199440, Note_on_c, 1, 54, 0
3, 199776, Note_on_c, 1, 43, 75
3, 199776, Note_on_c, 1, 50, 75
3, 199776, Note_on_c, 1, 55, 75
3, 199936, Note_on_c, 1, 43, 0
3, 199936, Note_on_c, 1, 50, 0
3, 199936, Note_on_c, 1, 55, 0
3, 201312, Note_on_c, 1, 55, 108
3, 201312, Note_on_c, 1, 58, 108
3, 201312, Note_on_c, 1, 61, 108
3, 201312, Note_on_c, 1, 64, 108
3, 201472, Note_on_c, 1, 55, 0
3, 201472, Note_on_c, 1, 58, 0
3, 201472, Note_on_c, 1, 61, 0
3, 201472, Note_on_c, 1, 64, 0
3, 201696, Note_on_c, 1, 55, 108
3, 201696, Note_on_c, 1, 58, 108
3, 201696, Note_on_c, 1, 61, 108
3, 201696, Note_on_c, 1, 64, 108
3, 201856, Note_on_c, 1, 55, 0
3, 201856, Note_on_c, 1, 61, 0
3, 201856, Note_on_c, 1, 58, 0
3, 201856, Note_on_c, 1, 64, 0
3, 202080, Note_on_c, 1, 55, 108
3, 202080, Note_on_c, 1, 58, 108
3, 202080, Note_on_c, 1, 61, 108
3, 202080, Note_on_c, 1, 64, 108
3, 202240, Note_on_c, 1, 55, 0
3, 202240, Note_on_c, 1, 58, 0
3, 202240, Note_on_c, 1, 61, 0
3, 202240, Note_on_c, 1, 64, 0
3, 202464, Note_on_c, 1, 55, 108
3, 202464, Note_on_c, 1, 58, 108
3, 202464, Note_on_c, 1, 61, 108
3, 202464, Note_on_c, 1, 64, 108
3, 202624, Note_on_c, 1, 55, 0
3, 202624, Note_on_c, 1, 58, 0
3, 202624, Note_on_c, 1, 61, 0
3, 202624, Note_on_c, 1, 64, 0
3, 202848, Note_on_c, 1, 56, 108
3, 202848, Note_on_c, 1, 59, 108
3, 202848, Note_on_c, 1, 62, 108
3, 202848, Note_on_c, 1, 65, 108
3, 203008, Note_on_c, 1, 56, 0
3, 203008, Note_on_c, 1, 59, 0
3, 203008, Note_on_c, 1, 62, 0
3, 203008, Note_on_c, 1, 65, 0
3, 204384, Note_on_c, 1, 57, 60
3, 204478, Note_on_c, 1, 57, 0
3, 204480, Note_on_c, 1, 69, 60
3, 204574, Note_on_c, 1, 69, 0
3, 204576, Note_on_c, 1, 64, 60
3, 204576, Note_on_c, 1, 67, 60
3, 204670, Note_on_c, 1, 64, 0
3, 204670, Note_on_c, 1, 67, 0
3, 204672, Note_on_c, 1, 69, 60
3, 204766, Note_on_c, 1, 69, 0
3, 204768, Note_on_c, 1, 70, 60
3, 204862, Note_on_c, 1, 70, 0
3, 204864, Note_on_c, 1, 69, 60
3, 204958, Note_on_c, 1, 69, 0
3, 204960, Note_on_c, 1, 64, 60
3, 204960, Note_on_c, 1, 67, 60
3, 205054, Note_on_c, 1, 64, 0
3, 205054, Note_on_c, 1, 67, 0
3, 205056, Note_on_c, 1, 69, 60
3, 205150, Note_on_c, 1, 69, 0
3, 205152, Note_on_c, 1, 57, 60
3, 205246, Note_on_c, 1, 57, 0
3, 205248, Note_on_c, 1, 69, 60
3, 205342, Note_on_c, 1, 69, 0
3, 205344, Note_on_c, 1, 64, 60
3, 205344, Note_on_c, 1, 67, 60
3, 205438, Note_on_c, 1, 64, 0
3, 205438, Note_on_c, 1, 67, 0
3, 205440, Note_on_c, 1, 69, 60
3, 205534, Note_on_c, 1, 69, 0
3, 205536, Note_on_c, 1, 70, 60
3, 205630, Note_on_c, 1, 70, 0
3, 205632, Note_on_c, 1, 69, 60
3, 205726, Note_on_c, 1, 69, 0
3, 205728, Note_on_c, 1, 64, 60
3, 205728, Note_on_c, 1, 67, 60
3, 205822, Note_on_c, 1, 64, 0
3, 205822, Note_on_c, 1, 67, 0
3, 205824, Note_on_c, 1, 69, 60
3, 205918, Note_on_c, 1, 69, 0
3, 205920, Note_on_c, 1, 57, 60
3, 206014, Note_on_c, 1, 57, 0
3, 206016, Note_on_c, 1, 69, 60
3, 206110, Note_on_c, 1, 69, 0
3, 206112, Note_on_c, 1, 64, 60
3, 206112, Note_on_c, 1, 67, 60
3, 206206, Note_on_c, 1, 64, 0
3, 206206, Note_on_c, 1, 67, 0
3, 206208, Note_on_c, 1, 69, 60
3, 206302, Note_on_c, 1, 69, 0
3, 206304, Note_on_c, 1, 70, 60
3, 206398, Note_on_c, 1, 70, 0
3, 206400, Note_on_c, 1, 69, 60
3, 206494, Note_on_c, 1, 69, 0
3, 206496, Note_on_c, 1, 64, 60
3, 206496, Note_on_c, 1, 69, 60
3, 206590, Note_on_c, 1, 64, 0
3, 206590, Note_on_c, 1, 69, 0
3, 206592, Note_on_c, 1, 69, 60
3, 206686, Note_on_c, 1, 69, 0
3, 206688, Note_on_c, 1, 57, 60
3, 206782, Note_on_c, 1, 57, 0
3, 206784, Note_on_c, 1, 69, 60
3, 206878, Note_on_c, 1, 69, 0
3, 206880, Note_on_c, 1, 64, 60
3, 206880, Note_on_c, 1, 67, 60
3, 206974, Note_on_c, 1, 64, 0
3, 206974, Note_on_c, 1, 67, 0
3, 206976, Note_on_c, 1, 69, 60
3, 207070, Note_on_c, 1, 69, 0
3, 207072, Note_on_c, 1, 57, 60
3, 207166, Note_on_c, 1, 57, 0
3, 207168, Note_on_c, 1, 69, 60
3, 207262, Note_on_c, 1, 69, 0
3, 207264, Note_on_c, 1, 61, 60
3, 207264, Note_on_c, 1, 64, 60
3, 207358, Note_on_c, 1, 61, 0
3, 207358, Note_on_c, 1, 64, 0
3, 207360, Note_on_c, 1, 69, 60
3, 207454, Note_on_c, 1, 69, 0
3, 207456, Note_on_c, 1, 57, 60
3, 207550, Note_on_c, 1, 57, 0
3, 207552, Note_on_c, 1, 69, 60
3, 207646, Note_on_c, 1, 69, 0
3, 207648, Note_on_c, 1, 62, 60
3, 207648, Note_on_c, 1, 65, 60
3, 207742, Note_on_c, 1, 62, 0
3, 207742, Note_on_c, 1, 65, 0
3, 207744, Note_on_c, 1, 69, 60
3, 207838, Note_on_c, 1, 69, 0
3, 207840, Note_on_c, 1, 70, 60
3, 207934, Note_on_c, 1, 70, 0
3, 207936, Note_on_c, 1, 69, 60
3, 208030, Note_on_c, 1, 69, 0
3, 208032, Note_on_c, 1, 62, 60
3, 208032, Note_on_c, 1, 65, 60
3, 208126, Note_on_c, 1, 62, 0
3, 208126, Note_on_c, 1, 65, 0
3, 208128, Note_on_c, 1, 69, 60
3, 208222, Note_on_c, 1, 69, 0
3, 208224, Note_on_c, 1, 57, 60
3, 208318, Note_on_c, 1, 57, 0
3, 208320, Note_on_c, 1, 69, 60
3, 208414, Note_on_c, 1, 69, 0
3, 208416, Note_on_c, 1, 62, 60
3, 208416, Note_on_c, 1, 65, 60
3, 208510, Note_on_c, 1, 62, 0
3, 208510, Note_on_c, 1, 65, 0
3, 208512, Note_on_c, 1, 69, 60
3, 208606, Note_on_c, 1, 69, 0
3, 208608, Note_on_c, 1, 70, 60
3, 208702, Note_on_c, 1, 70, 0
3, 208704, Note_on_c, 1, 69, 60
3, 208798, Note_on_c, 1, 69, 0
3, 208800, Note_on_c, 1, 62, 60
3, 208800, Note_on_c, 1, 65, 60
3, 208894, Note_on_c, 1, 62, 0
3, 208894, Note_on_c, 1, 65, 0
3, 208896, Note_on_c, 1, 69, 60
3, 208990, Note_on_c, 1, 69, 0
3, 208992, Note_on_c, 1, 57, 60
3, 209086, Note_on_c, 1, 57, 0
3, 209088, Note_on_c, 1, 69, 60
3, 209182, Note_on_c, 1, 69, 0
3, 209184, Note_on_c, 1, 62, 60
3, 209184, Note_on_c, 1, 65, 60
3, 209278, Note_on_c, 1, 62, 0
3, 209278, Note_on_c, 1, 65, 0
3, 209280, Note_on_c, 1, 69, 60
3, 209374, Note_on_c, 1, 69, 0
3, 209376, Note_on_c, 1, 70, 60
3, 209470, Note_on_c, 1, 70, 0
3, 209472, Note_on_c, 1, 69, 60
3, 209566, Note_on_c, 1, 69, 0
3, 209568, Note_on_c, 1, 62, 60
3, 209568, Note_on_c, 1, 65, 60
3, 209662, Note_on_c, 1, 62, 0
3, 209662, Note_on_c, 1, 65, 0
3, 209664, Note_on_c, 1, 69, 60
3, 209758, Note_on_c, 1, 69, 0
3, 209760, Note_on_c, 1, 57, 60
3, 209854, Note_on_c, 1, 57, 0
3, 209856, Note_on_c, 1, 69, 60
3, 209950, Note_on_c, 1, 69, 0
3, 209952, Note_on_c, 1, 62, 60
3, 209952, Note_on_c, 1, 65, 60
3, 210046, Note_on_c, 1, 62, 0
3, 210046, Note_on_c, 1, 65, 0
3, 210048, Note_on_c, 1, 69, 60
3, 210142, Note_on_c, 1, 69, 0
3, 210144, Note_on_c, 1, 57, 60
3, 210238, Note_on_c, 1, 57, 0
3, 210240, Note_on_c, 1, 69, 60
3, 210334, Note_on_c, 1, 69, 0
3, 210336, Note_on_c, 1, 62, 60
3, 210336, Note_on_c, 1, 65, 60
3, 210430, Note_on_c, 1, 62, 0
3, 210430, Note_on_c, 1, 65, 0
3, 210432, Note_on_c, 1, 69, 60
3, 210526, Note_on_c, 1, 69, 0
3, 210528, Note_on_c, 1, 57, 60
3, 210622, Note_on_c, 1, 57, 0
3, 210624, Note_on_c, 1, 69, 60
3, 210718, Note_on_c, 1, 69, 0
3, 210720, Note_on_c, 1, 64, 60
3, 210720, Note_on_c, 1, 67, 60
3, 210814, Note_on_c, 1, 64, 0
3, 210814, Note_on_c, 1, 67, 0
3, 210816, Note_on_c, 1, 69, 60
3, 210910, Note_on_c, 1, 69, 0
3, 210912, Note_on_c, 1, 70, 60
3, 211006, Note_on_c, 1, 70, 0
3, 211008, Note_on_c, 1, 69, 60
3, 211102, Note_on_c, 1, 69, 0
3, 211104, Note_on_c, 1, 64, 60
3, 211104, Note_on_c, 1, 67, 60
3, 211198, Note_on_c, 1, 64, 0
3, 211198, Note_on_c, 1, 67, 0
3, 211200, Note_on_c, 1, 69, 60
3, 211294, Note_on_c, 1, 69, 0
3, 211296, Note_on_c, 1, 57, 60
3, 211390, Note_on_c, 1, 57, 0
3, 211392, Note_on_c, 1, 69, 60
3, 211486, Note_on_c, 1, 69, 0
3, 211488, Note_on_c, 1, 64, 60
3, 211488, Note_on_c, 1, 67, 60
3, 211582, Note_on_c, 1, 64, 0
3, 211582, Note_on_c, 1, 67, 0
3, 211584, Note_on_c, 1, 69, 60
3, 211678, Note_on_c, 1, 69, 0
3, 211680, Note_on_c, 1, 70, 60
3, 211774, Note_on_c, 1, 70, 0
3, 211776, Note_on_c, 1, 69, 60
3, 211870, Note_on_c, 1, 69, 0
3, 211872, Note_on_c, 1, 64, 60
3, 211872, Note_on_c, 1, 67, 60
3, 211966, Note_on_c, 1, 64, 0
3, 211966, Note_on_c, 1, 67, 0
3, 211968, Note_on_c, 1, 69, 60
3, 212062, Note_on_c, 1, 69, 0
3, 212064, Note_on_c, 1, 57, 60
3, 212158, Note_on_c, 1, 57, 0
3, 212160, Note_on_c, 1, 69, 60
3, 212254, Note_on_c, 1, 69, 0
3, 212256, Note_on_c, 1, 64, 60
3, 212256, Note_on_c, 1, 67, 60
3, 212350, Note_on_c, 1, 64, 0
3, 212350, Note_on_c, 1, 67, 0
3, 212352, Note_on_c, 1, 69, 60
3, 212446, Note_on_c, 1, 69, 0
3, 212448, Note_on_c, 1, 70, 60
3, 212542, Note_on_c, 1, 70, 0
3, 212544, Note_on_c, 1, 69, 60
3, 212638, Note_on_c, 1, 69, 0
3, 212640, Note_on_c, 1, 64, 60
3, 212640, Note_on_c, 1, 67, 60
3, 212734, Note_on_c, 1, 64, 0
3, 212734, Note_on_c, 1, 67, 0
3, 212736, Note_on_c, 1, 69, 60
3, 212830, Note_on_c, 1, 69, 0
3, 212832, Note_on_c, 1, 57, 92
3, 212832, Note_on_c, 1, 64, 92
3, 212832, Note_on_c, 1, 67, 92
3, 212992, Note_on_c, 1, 57, 0
3, 212992, Note_on_c, 1, 64, 0
3, 212992, Note_on_c, 1, 67, 0
3, 214560, Note_on_c, 1, 37, 92
3, 214656, Note_on_c, 1, 37, 0
3, 214656, Note_on_c, 1, 40, 92
3, 214752, Note_on_c, 1, 40, 0
3, 214752, Note_on_c, 1, 31, 92
3, 214848, Note_on_c, 1, 31, 0
3, 214848, Note_on_c, 1, 40, 92
3, 214944, Note_on_c, 1, 40, 0
3, 214944, Note_on_c, 1, 37, 92
3, 215040, Note_on_c, 1, 37, 0
3, 215040, Note_on_c, 1, 31, 92
3, 215136, Note_on_c, 1, 31, 0
3, 215136, Note_on_c, 1, 29, 127
3, 215296, Note_on_c, 1, 29, 0
3, 215328, Note_on_c, 1, 41, 127
3, 215328, Note_on_c, 1, 45, 127
3, 215328, Note_on_c, 1, 50, 127
3, 215488, Note_on_c, 1, 41, 0
3, 215488, Note_on_c, 1, 45, 0
3, 215488, Note_on_c, 1, 50, 0
3, 215520, Note_on_c, 1, 43, 127
3, 215520, Note_on_c, 1, 46, 127
3, 215520, Note_on_c, 1, 51, 127
3, 216240, Note_on_c, 1, 51, 0
3, 216288, Note_on_c, 1, 50, 92
3, 216448, Note_on_c, 1, 50, 0
3, 216480, Note_on_c, 1, 49, 92
3, 216640, Note_on_c, 1, 43, 0
3, 216640, Note_on_c, 1, 46, 0
3, 216640, Note_on_c, 1, 49, 0
3, 216672, Note_on_c, 1, 41, 127
3, 216672, Note_on_c, 1, 45, 127
3, 216672, Note_on_c, 1, 50, 127
3, 216832, Note_on_c, 1, 41, 0
3, 216832, Note_on_c, 1, 45, 0
3, 216832, Note_on_c, 1, 50, 0
3, 216864, Note_on_c, 1, 53, 127
3, 216864, Note_on_c, 1, 57, 127
3, 216864, Note_on_c, 1, 62, 127
3, 217024, Note_on_c, 1, 53, 0
3, 217024, Note_on_c, 1, 57, 0
3, 217024, Note_on_c, 1, 62, 0
3, 217056, Note_on_c, 1, 55, 127
3, 217056, Note_on_c, 1, 58, 127
3, 217056, Note_on_c, 1, 63, 127
3, 217776, Note_on_c, 1, 64, 0
3, 217824, Note_on_c, 1, 62, 92
3, 217984, Note_on_c, 1, 62, 0
3, 218016, Note_on_c, 1, 61, 92
3, 218176, Note_on_c, 1, 55, 0
3, 218176, Note_on_c, 1, 58, 0
3, 218176, Note_on_c, 1, 61, 0
3, 218208, Note_on_c, 1, 53, 127
3, 218208, Note_on_c, 1, 57, 127
3, 218208, Note_on_c, 1, 62, 127
3, 218368, Note_on_c, 1, 53, 0
3, 218368, Note_on_c, 1, 57, 0
3, 218368, Note_on_c, 1, 62, 0
3, 218400, Note_on_c, 1, 65, 127
3, 218400, Note_on_c, 1, 69, 127
3, 218560, Note_on_c, 1, 65, 0
3, 218560, Note_on_c, 1, 69, 0
3, 218592, Note_on_c, 1, 67, 127
3, 218592, Note_on_c, 1, 70, 127
3, 219136, Note_on_c, 1, 67, 0
3, 219136, Note_on_c, 1, 70, 0
3, 219168, Note_on_c, 1, 68, 92
3, 219168, Note_on_c, 1, 71, 92
3, 219328, Note_on_c, 1, 68, 0
3, 219328, Note_on_c, 1, 71, 0
3, 219360, Note_on_c, 1, 69, 127
3, 219360, Note_on_c, 1, 72, 127
3, 219904, Note_on_c, 1, 69, 0
3, 219904, Note_on_c, 1, 72, 0
3, 219936, Note_on_c, 1, 69, 92
3, 219936, Note_on_c, 1, 72, 92
3, 220096, Note_on_c, 1, 69, 0
3, 220096, Note_on_c, 1, 72, 0
3, 220128, Note_on_c, 1, 70, 92
3, 220128, Note_on_c, 1, 74, 92
3, 220288, Note_on_c, 1, 70, 0
3, 220288, Note_on_c, 1, 74, 0
3, 220320, Note_on_c, 1, 66, 92
3, 220320, Note_on_c, 1, 72, 92
3, 220480, Note_on_c, 1, 66, 0
3, 220480, Note_on_c, 1, 72, 0
3, 220512, Note_on_c, 1, 67, 92
3, 220512, Note_on_c, 1, 70, 92
3, 220672, Note_on_c, 1, 67, 0
3, 220672, Note_on_c, 1, 70, 0
3, 220704, Note_on_c, 1, 55, 45
3, 220704, Note_on_c, 1, 63, 45
3, 220704, Note_on_c, 1, 67, 45
3, 220864, Note_on_c, 1, 55, 0
3, 220864, Note_on_c, 1, 63, 0
3, 220864, Note_on_c, 1, 67, 0
3, 220896, Note_on_c, 1, 57, 45
3, 220896, Note_on_c, 1, 62, 45
3, 220896, Note_on_c, 1, 65, 45
3, 221056, Note_on_c, 1, 62, 0
3, 221056, Note_on_c, 1, 65, 0
3, 221088, Note_on_c, 1, 61, 45
3, 221088, Note_on_c, 1, 64, 45
3, 221248, Note_on_c, 1, 57, 0
3, 221248, Note_on_c, 1, 61, 0
3, 221248, Note_on_c, 1, 64, 0
3, 221280, Note_on_c, 1, 50, 92
3, 221280, Note_on_c, 1, 62, 92
3, 221440, Note_on_c, 1, 50, 0
3, 221440, Note_on_c, 1, 62, 0
3, 221472, Note_on_c, 1, 38, 92
3, 221664, Note_on_c, 1, 38, 0
3, 221664, Note_on_c, 1, 39, 127
3, 222432, Note_on_c, 1, 39, 0
3, 222432, Note_on_c, 1, 38, 92
3, 222624, Note_on_c, 1, 38, 0
3, 222624, Note_on_c, 1, 37, 92
3, 222816, Note_on_c, 1, 37, 0
3, 222816, Note_on_c, 1, 38, 127
3, 222976, Note_on_c, 1, 38, 0
3, 223008, Note_on_c, 1, 38, 127
3, 223200, Note_on_c, 1, 38, 0
3, 223200, Note_on_c, 1, 39, 127
3, 223968, Note_on_c, 1, 40, 0
3, 223968, Note_on_c, 1, 38, 92
3, 224160, Note_on_c, 1, 38, 0
3, 224160, Note_on_c, 1, 37, 92
3, 224352, Note_on_c, 1, 37, 0
3, 224352, Note_on_c, 1, 38, 92
3, 224512, Note_on_c, 1, 38, 0
3, 224544, Note_on_c, 1, 38, 92
3, 224736, Note_on_c, 1, 38, 0
3, 224736, Note_on_c, 1, 39, 127
3, 225504, Note_on_c, 1, 40, 0
3, 225504, Note_on_c, 1, 38, 92
3, 225696, Note_on_c, 1, 38, 0
3, 225696, Note_on_c, 1, 37, 92
3, 225888, Note_on_c, 1, 37, 0
3, 225888, Note_on_c, 1, 36, 92
3, 225982, Note_on_c, 1, 36, 0
3, 225984, Note_on_c, 1, 35, 92
3, 226078, Note_on_c, 1, 35, 0
3, 226080, Note_on_c, 1, 36, 92
3, 226174, Note_on_c, 1, 36, 0
3, 226176, Note_on_c, 1, 38, 92
3, 226270, Note_on_c, 1, 38, 0
3, 226272, Note_on_c, 1, 40, 92
3, 226366, Note_on_c, 1, 40, 0
3, 226368, Note_on_c, 1, 36, 92
3, 226462, Note_on_c, 1, 36, 0
3, 226464, Note_on_c, 1, 38, 92
3, 226558, Note_on_c, 1, 38, 0
3, 226560, Note_on_c, 1, 40, 92
3, 226654, Note_on_c, 1, 40, 0
3, 226656, Note_on_c, 1, 41, 92
3, 226750, Note_on_c, 1, 41, 0
3, 226752, Note_on_c, 1, 40, 92
3, 226846, Note_on_c, 1, 40, 0
3, 226848, Note_on_c, 1, 41, 92
3, 226942, Note_on_c, 1, 41, 0
3, 226944, Note_on_c, 1, 43, 92
3, 227038, Note_on_c, 1, 43, 0
3, 227040, Note_on_c, 1, 45, 92
3, 227134, Note_on_c, 1, 45, 0
3, 227136, Note_on_c, 1, 44, 92
3, 227230, Note_on_c, 1, 44, 0
3, 227232, Note_on_c, 1, 45, 92
3, 227326, Note_on_c, 1, 45, 0
3, 227328, Note_on_c, 1, 44, 92
3, 227422, Note_on_c, 1, 44, 0
3, 227424, Note_on_c, 1, 45, 92
3, 227518, Note_on_c, 1, 45, 0
3, 227520, Note_on_c, 1, 44, 92
3, 227614, Note_on_c, 1, 44, 0
3, 227616, Note_on_c, 1, 45, 92
3, 227710, Note_on_c, 1, 45, 0
3, 227712, Note_on_c, 1, 47, 92
3, 227806, Note_on_c, 1, 47, 0
3, 227808, Note_on_c, 1, 49, 92
3, 227902, Note_on_c, 1, 49, 0
3, 227904, Note_on_c, 1, 45, 92
3, 227998, Note_on_c, 1, 45, 0
3, 228000, Note_on_c, 1, 47, 92
3, 228094, Note_on_c, 1, 47, 0
3, 228096, Note_on_c, 1, 49, 92
3, 228190, Note_on_c, 1, 49, 0
3, 228192, Note_on_c, 1, 50, 92
3, 228286, Note_on_c, 1, 50, 0
3, 228288, Note_on_c, 1, 49, 92
3, 228382, Note_on_c, 1, 49, 0
3, 228384, Note_on_c, 1, 50, 92
3, 228478, Note_on_c, 1, 50, 0
3, 228480, Note_on_c, 1, 52, 92
3, 228574, Note_on_c, 1, 52, 0
3, 228576, Note_on_c, 1, 53, 92
3, 228670, Note_on_c, 1, 53, 0
3, 228672, Note_on_c, 1, 50, 92
3, 228766, Note_on_c, 1, 50, 0
3, 228768, Note_on_c, 1, 52, 92
3, 228862, Note_on_c, 1, 52, 0
3, 228864, Note_on_c, 1, 53, 92
3, 228958, Note_on_c, 1, 53, 0
3, 228960, Note_on_c, 1, 55, 92
3, 229054, Note_on_c, 1, 55, 0
3, 229056, Note_on_c, 1, 54, 92
3, 229150, Note_on_c, 1, 54, 0
3, 229152, Note_on_c, 1, 55, 92
3, 229246, Note_on_c, 1, 55, 0
3, 229248, Note_on_c, 1, 57, 92
3, 229342, Note_on_c, 1, 57, 0
3, 229344, Note_on_c, 1, 58, 92
3, 229438, Note_on_c, 1, 58, 0
3, 229440, Note_on_c, 1, 55, 92
3, 229534, Note_on_c, 1, 55, 0
3, 229536, Note_on_c, 1, 57, 92
3, 229630, Note_on_c, 1, 57, 0
3, 229632, Note_on_c, 1, 58, 92
3, 229726, Note_on_c, 1, 58, 0
3, 229728, Note_on_c, 1, 57, 92
3, 229822, Note_on_c, 1, 57, 0
3, 229824, Note_on_c, 1, 56, 92
3, 229918, Note_on_c, 1, 56, 0
3, 229920, Note_on_c, 1, 57, 92
3, 230014, Note_on_c, 1, 57, 0
3, 230016, Note_on_c, 1, 56, 92
3, 230110, Note_on_c, 1, 56, 0
3, 230112, Note_on_c, 1, 57, 92
3, 230206, Note_on_c, 1, 57, 0
3, 230208, Note_on_c, 1, 56, 92
3, 230302, Note_on_c, 1, 56, 0
3, 230304, Note_on_c, 1, 57, 92
3, 230398, Note_on_c, 1, 57, 0
3, 230400, Note_on_c, 1, 45, 92
3, 230494, Note_on_c, 1, 45, 0
3, 230496, Note_on_c, 1, 45, 45
3, 230496, Note_on_c, 1, 53, 45
3, 230496, Note_on_c, 1, 57, 45
3, 230880, Note_on_c, 1, 53, 0
3, 230880, Note_on_c, 1, 57, 0
3, 230880, Note_on_c, 1, 52, 45
3, 230880, Note_on_c, 1, 55, 45
3, 231264, Note_on_c, 1, 52, 0
3, 231264, Note_on_c, 1, 55, 0
3, 231264, Note_on_c, 1, 50, 45
3, 231264, Note_on_c, 1, 53, 45
3, 231648, Note_on_c, 1, 50, 0
3, 231648, Note_on_c, 1, 53, 0
3, 231648, Note_on_c, 1, 49, 45
3, 231648, Note_on_c, 1, 52, 45
3, 232032, Note_on_c, 1, 45, 0
3, 232032, Note_on_c, 1, 49, 0
3, 232032, Note_on_c, 1, 52, 0
3, 232032, Note_on_c, 1, 50, 45
3, 232126, Note_on_c, 1, 50, 0
3, 232128, Note_on_c, 1, 45, 45
3, 232224, Note_on_c, 1, 45, 0
3, 232224, Note_on_c, 1, 41, 45
3, 232320, Note_on_c, 1, 41, 0
3, 232320, Note_on_c, 1, 50, 45
3, 232416, Note_on_c, 1, 50, 0
3, 232416, Note_on_c, 1, 52, 45
3, 232512, Note_on_c, 1, 52, 0
3, 232512, Note_on_c, 1, 49, 45
3, 232608, Note_on_c, 1, 49, 0
3, 232608, Note_on_c, 1, 45, 45
3, 232704, Note_on_c, 1, 45, 0
3, 232704, Note_on_c, 1, 52, 45
3, 232800, Note_on_c, 1, 52, 0
3, 232800, Note_on_c, 1, 53, 45
3, 232896, Note_on_c, 1, 53, 0
3, 232896, Note_on_c, 1, 50, 45
3, 232992, Note_on_c, 1, 50, 0
3, 232992, Note_on_c, 1, 45, 45
3, 233088, Note_on_c, 1, 45, 0
3, 233088, Note_on_c, 1, 57, 45
3, 233184, Note_on_c, 1, 57, 0
3, 233184, Note_on_c, 1, 56, 45
3, 233280, Note_on_c, 1, 56, 0
3, 233280, Note_on_c, 1, 57, 45
3, 233376, Note_on_c, 1, 57, 0
3, 233376, Note_on_c, 1, 56, 45
3, 233472, Note_on_c, 1, 56, 0
3, 233472, Note_on_c, 1, 57, 45
3, 233568, Note_on_c, 1, 57, 0
3, 233568, Note_on_c, 1, 45, 45
3, 233760, Note_on_c, 1, 53, 45
3, 233760, Note_on_c, 1, 57, 45
3, 233952, Note_on_c, 1, 45, 0
3, 233952, Note_on_c, 1, 45, 45
3, 234144, Note_on_c, 1, 53, 0
3, 234144, Note_on_c, 1, 57, 0
3, 234144, Note_on_c, 1, 52, 45
3, 234144, Note_on_c, 1, 55, 45
3, 234336, Note_on_c, 1, 45, 0
3, 234336, Note_on_c, 1, 45, 45
3, 234528, Note_on_c, 1, 52, 0
3, 234528, Note_on_c, 1, 55, 0
3, 234528, Note_on_c, 1, 50, 45
3, 234528, Note_on_c, 1, 53, 45
3, 234720, Note_on_c, 1, 45, 0
3, 234720, Note_on_c, 1, 45, 45
3, 234912, Note_on_c, 1, 50, 0
3, 234912, Note_on_c, 1, 53, 0
3, 234912, Note_on_c, 1, 49, 45
3, 234912, Note_on_c, 1, 52, 45
3, 235104, Note_on_c, 1, 45, 0
3, 235104, Note_on_c, 1, 49, 0
3, 235104, Note_on_c, 1, 52, 0
3, 235104, Note_on_c, 1, 50, 45
3, 235200, Note_on_c, 1, 50, 0
3, 235200, Note_on_c, 1, 45, 45
3, 235296, Note_on_c, 1, 45, 0
3, 235296, Note_on_c, 1, 41, 45
3, 235392, Note_on_c, 1, 41, 0
3, 235392, Note_on_c, 1, 50, 45
3, 235488, Note_on_c, 1, 50, 0
3, 235488, Note_on_c, 1, 52, 45
3, 235584, Note_on_c, 1, 52, 0
3, 235584, Note_on_c, 1, 49, 45
3, 235680, Note_on_c, 1, 49, 0
3, 235680, Note_on_c, 1, 45, 45
3, 235776, Note_on_c, 1, 45, 0
3, 235776, Note_on_c, 1, 52, 45
3, 235872, Note_on_c, 1, 52, 0
3, 235872, Note_on_c, 1, 53, 45
3, 235968, Note_on_c, 1, 53, 0
3, 235968, Note_on_c, 1, 50, 45
3, 236064, Note_on_c, 1, 50, 0
3, 236064, Note_on_c, 1, 45, 45
3, 236160, Note_on_c, 1, 45, 0
3, 236160, Note_on_c, 1, 57, 45
3, 236256, Note_on_c, 1, 57, 0
3, 236256, Note_on_c, 1, 56, 45
3, 236352, Note_on_c, 1, 56, 0
3, 236352, Note_on_c, 1, 57, 45
3, 236448, Note_on_c, 1, 57, 0
3, 236448, Note_on_c, 1, 56, 45
3, 236544, Note_on_c, 1, 56, 0
3, 236544, Note_on_c, 1, 57, 45
3, 236640, Note_on_c, 1, 57, 0
3, 236640, Note_on_c, 1, 45, 45
3, 236832, Note_on_c, 1, 53, 45
3, 236832, Note_on_c, 1, 57, 45
3, 237024, Note_on_c, 1, 45, 0
3, 237024, Note_on_c, 1, 45, 45
3, 237216, Note_on_c, 1, 53, 0
3, 237216, Note_on_c, 1, 57, 0
3, 237216, Note_on_c, 1, 52, 45
3, 237216, Note_on_c, 1, 55, 45
3, 237408, Note_on_c, 1, 45, 0
3, 237408, Note_on_c, 1, 45, 45
3, 237600, Note_on_c, 1, 52, 0
3, 237600, Note_on_c, 1, 55, 0
3, 237600, Note_on_c, 1, 50, 45
3, 237600, Note_on_c, 1, 53, 45
3, 237792, Note_on_c, 1, 45, 0
3, 237792, Note_on_c, 1, 45, 45
3, 237984, Note_on_c, 1, 50, 0
3, 237984, Note_on_c, 1, 53, 0
3, 237984, Note_on_c, 1, 49, 45
3, 237984, Note_on_c, 1, 52, 45
3, 238176, Note_on_c, 1, 45, 0
3, 238176, Note_on_c, 1, 49, 0
3, 238176, Note_on_c, 1, 52, 0
3, 238176, Note_on_c, 1, 38, 45
3, 238368, Note_on_c, 1, 50, 45
3, 238560, Note_on_c, 1, 38, 0
3, 238560, Note_on_c, 1, 50, 0
3, 238560, Note_on_c, 1, 45, 45
3, 238752, Note_on_c, 1, 49, 45
3, 238752, Note_on_c, 1, 52, 45
3, 238944, Note_on_c, 1, 45, 0
3, 238944, Note_on_c, 1, 49, 0
3, 238944, Note_on_c, 1, 52, 0
3, 238944, Note_on_c, 1, 50, 75
3, 239136, Note_on_c, 1, 53, 75
3, 239328, Note_on_c, 1, 50, 0
3, 239328, Note_on_c, 1, 53, 0
3, 239328, Note_on_c, 1, 45, 75
3, 239520, Note_on_c, 1, 49, 75
3, 239520, Note_on_c, 1, 52, 75
3, 239712, Note_on_c, 1, 45, 0
3, 239712, Note_on_c, 1, 49, 0
3, 239712, Note_on_c, 1, 52, 0
3, 239712, Note_on_c, 1, 38, 45
3, 239712, Note_on_c, 1, 50, 45
3, 239872, Note_on_c, 1, 38, 0
3, 239872, Note_on_c, 1, 50, 0
3, 240096, Note_on_c, 1, 38, 45
3, 240096, Note_on_c, 1, 50, 45
3, 240432, Note_on_c, 1, 38, 0
3, 240432, Note_on_c, 1, 50, 0
3, 240480, Note_on_c, 1, 38, 30
3, 240480, Note_on_c, 1, 50, 30
3, 240816, Note_on_c, 1, 38, 0
3, 240816, Note_on_c, 1, 50, 0
3, 240864, Note_on_c, 1, 38, 30
3, 240864, Note_on_c, 1, 50, 30
3, 241200, Note_on_c, 1, 38, 0
3, 241200, Note_on_c, 1, 50, 0
3, 241248, Control_c, 1, 64, 127
3, 241248, Note_on_c, 1, 38, 30
3, 241342, Note_on_c, 1, 38, 0
3, 241344, Note_on_c, 1, 33, 30
3, 241438, Note_on_c, 1, 33, 0
3, 241440, Note_on_c, 1, 29, 30
3, 241534, Note_on_c, 1, 29, 0
3, 241536, Note_on_c, 1, 41, 30
3, 241630, Note_on_c, 1, 41, 0
3, 241632, Note_on_c, 1, 38, 30
3, 241726, Note_on_c, 1, 38, 0
3, 241728, Note_on_c, 1, 33, 30
3, 241822, Note_on_c, 1, 33, 0
3, 241824, Note_on_c, 1, 45, 30
3, 241918, Note_on_c, 1, 45, 0
3, 241920, Note_on_c, 1, 41, 30
3, 242014, Note_on_c, 1, 41, 0
3, 242016, Note_on_c, 1, 38, 30
3, 242110, Note_on_c, 1, 38, 0
3, 242112, Note_on_c, 1, 33, 30
3, 242206, Note_on_c, 1, 33, 0
3, 242208, Note_on_c, 1, 29, 30
3, 242302, Note_on_c, 1, 29, 0
3, 242304, Note_on_c, 1, 41, 30
3, 242398, Note_on_c, 1, 41, 0
3, 242400, Note_on_c, 1, 38, 30
3, 242494, Note_on_c, 1, 38, 0
3, 242496, Note_on_c, 1, 33, 30
3, 242590, Note_on_c, 1, 33, 0
3, 242592, Note_on_c, 1, 45, 30
3, 242686, Note_on_c, 1, 45, 0
3, 242688, Note_on_c, 1, 41, 30
3, 242782, Note_on_c, 1, 41, 0
3, 242784, Note_on_c, 1, 38, 30
3, 242878, Note_on_c, 1, 38, 0
3, 242880, Note_on_c, 1, 33, 30
3, 242974, Note_on_c, 1, 33, 0
3, 242976, Note_on_c, 1, 29, 30
3, 243070, Note_on_c, 1, 29, 0
3, 243072, Note_on_c, 1, 41, 30
3, 243166, Note_on_c, 1, 41, 0
3, 243168, Note_on_c, 1, 38, 30
3, 243262, Note_on_c, 1, 38, 0
3, 243264, Note_on_c, 1, 33, 30
3, 243358, Note_on_c, 1, 33, 0
3, 243360, Note_on_c, 1, 45, 30
3, 243454, Note_on_c, 1, 45, 0
3, 243456, Note_on_c, 1, 41, 30
3, 243550, Note_on_c, 1, 41, 0
3, 243552, Note_on_c, 1, 38, 30
3, 243646, Note_on_c, 1, 38, 0
3, 243648, Note_on_c, 1, 33, 30
3, 243742, Note_on_c, 1, 33, 0
3, 243744, Note_on_c, 1, 29, 30
3, 243838, Note_on_c, 1, 29, 0
3, 243840, Note_on_c, 1, 41, 30
3, 243934, Note_on_c, 1, 41, 0
3, 243936, Note_on_c, 1, 38, 30
3, 244030, Note_on_c, 1, 38, 0
3, 244032, Note_on_c, 1, 33, 30
3, 244126, Note_on_c, 1, 33, 0
3, 244128, Note_on_c, 1, 45, 30
3, 244222, Note_on_c, 1, 45, 0
3, 244224, Note_on_c, 1, 41, 30
3, 244318, Note_on_c, 1, 41, 0
3, 244320, Note_on_c, 1, 38, 30
3, 244414, Note_on_c, 1, 38, 0
3, 244416, Note_on_c, 1, 33, 30
3, 244510, Note_on_c, 1, 33, 0
3, 244512, Note_on_c, 1, 45, 30
3, 244606, Note_on_c, 1, 45, 0
3, 244608, Note_on_c, 1, 41, 30
3, 244702, Note_on_c, 1, 41, 0
3, 244704, Note_on_c, 1, 38, 30
3, 244798, Note_on_c, 1, 38, 0
3, 244800, Note_on_c, 1, 33, 30
3, 244894, Note_on_c, 1, 33, 0
3, 244896, Note_on_c, 1, 45, 30
3, 244990, Note_on_c, 1, 45, 0
3, 244992, Note_on_c, 1, 41, 30
3, 245086, Note_on_c, 1, 41, 0
3, 245088, Note_on_c, 1, 38, 30
3, 245182, Note_on_c, 1, 38, 0
3, 245184, Note_on_c, 1, 33, 30
3, 245278, Note_on_c, 1, 33, 0
3, 245280, Note_on_c, 1, 45, 30
3, 245374, Note_on_c, 1, 45, 0
3, 245376, Note_on_c, 1, 41, 30
3, 245470, Note_on_c, 1, 41, 0
3, 245472, Note_on_c, 1, 38, 30
3, 245566, Note_on_c, 1, 38, 0
3, 245568, Note_on_c, 1, 33, 30
3, 245662, Note_on_c, 1, 33, 0
3, 245664, Note_on_c, 1, 45, 30
3, 245758, Note_on_c, 1, 45, 0
3, 245760, Note_on_c, 1, 41, 30
3, 245854, Note_on_c, 1, 41, 0
3, 245856, Note_on_c, 1, 38, 30
3, 246576, Note_on_c, 1, 38, 0
3, 246624, Control_c, 1, 64, 0
3, 246624, Control_c, 1, 64, 127
3, 246624, Note_on_c, 1, 38, 30
3, 246624, Note_on_c, 1, 45, 30
3, 246624, Note_on_c, 1, 53, 30
3, 247344, Note_on_c, 1, 38, 0
3, 247344, Note_on_c, 1, 45, 0
3, 247344, Note_on_c, 1, 53, 0
3, 247392, Note_on_c, 1, 38, 30
3, 247392, Note_on_c, 1, 45, 30
3, 247392, Note_on_c, 1, 50, 30
3, 248880, Note_on_c, 1, 38, 0
3, 248880, Note_on_c, 1, 45, 0
3, 248880, Note_on_c, 1, 50, 0
3, 248928, Control_c, 1, 64, 0
3, 252000, Note_on_c, 1, 34, 45
3, 252036, Note_on_c, 1, 41, 45
3, 252072, Note_on_c, 1, 46, 45
3, 252240, Note_on_c, 1, 50, 45
3, 252276, Note_on_c, 1, 53, 45
3, 252312, Note_on_c, 1, 58, 45
3, 252736, Note_on_c, 1, 34, 0
3, 252736, Note_on_c, 1, 41, 0
3, 252736, Note_on_c, 1, 46, 0
3, 252736, Note_on_c, 1, 50, 0
3, 252736, Note_on_c, 1, 53, 0
3, 252736, Note_on_c, 1, 58, 0
3, 253152, Note_on_c, 1, 34, 45
3, 253152, Note_on_c, 1, 41, 45
3, 253152, Note_on_c, 1, 46, 45
3, 253312, Note_on_c, 1, 34, 0
3, 253312, Note_on_c, 1, 41, 0
3, 253312, Note_on_c, 1, 46, 0
3, 253344, Note_on_c, 1, 36, 45
3, 253344, Note_on_c, 1, 41, 45
3, 253344, Note_on_c, 1, 48, 45
3, 253872, Note_on_c, 1, 36, 0
3, 253872, Note_on_c, 1, 41, 0
3, 253872, Note_on_c, 1, 48, 0
3, 254304, Note_on_c, 1, 45, 45
3, 254304, Note_on_c, 1, 53, 45
3, 254464, Note_on_c, 1, 45, 0
3, 254464, Note_on_c, 1, 53, 0
3, 254496, Note_on_c, 1, 46, 45
3, 254496, Note_on_c, 1, 53, 45
3, 255024, Note_on_c, 1, 46, 0
3, 255024, Note_on_c, 1, 53, 0
3, 255456, Note_on_c, 1, 50, 63
3, 255456, Note_on_c, 1, 59, 63
3, 255616, Note_on_c, 1, 50, 0
3, 255616, Note_on_c, 1, 59, 0
3, 255648, Note_on_c, 1, 51, 45
3, 255648, Note_on_c, 1, 59, 45
3, 255840, Note_on_c, 1, 51, 0
3, 255840, Note_on_c, 1, 59, 0
3, 255840, Note_on_c, 1, 51, 45
3, 255840, Note_on_c, 1, 60, 45
3, 255934, Note_on_c, 1, 51, 0
3, 255934, Note_on_c, 1, 60, 0
3, 255936, Note_on_c, 1, 53, 45
3, 255936, Note_on_c, 1, 62, 45
3, 256030, Note_on_c, 1, 53, 0
3, 256030, Note_on_c, 1, 62, 0
3, 256032, Note_on_c, 1, 55, 45
3, 256032, Note_on_c, 1, 63, 45
3, 256100, Note_on_c, 1, 55, 0
3, 256100, Note_on_c, 1, 63, 0
3, 256128, Note_on_c, 1, 55, 45
3, 256128, Note_on_c, 1, 64, 45
3, 256160, Note_on_c, 1, 55, 0
3, 256160, Note_on_c, 1, 64, 0
3, 256224, Note_on_c, 1, 53, 45
3, 256224, Note_on_c, 1, 64, 45
3, 256384, Note_on_c, 1, 64, 0
3, 256416, Note_on_c, 1, 65, 45
3, 256510, Note_on_c, 1, 53, 0
3, 256510, Note_on_c, 1, 65, 0
3, 256800, Note_on_c, 1, 34, 45
3, 257328, Note_on_c, 1, 34, 0
3, 257376, Note_on_c, 1, 46, 45
3, 257376, Note_on_c, 1, 50, 45
3, 257376, Note_on_c, 1, 53, 45
3, 257712, Note_on_c, 1, 46, 0
3, 257712, Note_on_c, 1, 50, 0
3, 257712, Note_on_c, 1, 53, 0
3, 257760, Note_on_c, 1, 34, 45
3, 257760, Note_on_c, 1, 46, 45
3, 257920, Note_on_c, 1, 34, 0
3, 257920, Note_on_c, 1, 46, 0
3, 257952, Note_on_c, 1, 29, 45
3, 257952, Note_on_c, 1, 41, 45
3, 258480, Note_on_c, 1, 29, 0
3, 258480, Note_on_c, 1, 41, 0
3, 258528, Note_on_c, 1, 41, 45
3, 258528, Note_on_c, 1, 51, 45
3, 258528, Note_on_c, 1, 54, 45
3, 258688, Note_on_c, 1, 41, 0
3, 258688, Note_on_c, 1, 51, 0
3, 258688, Note_on_c, 1, 54, 0
3, 258912, Note_on_c, 1, 58, 45
3, 258912, Note_on_c, 1, 60, 45
3, 259072, Note_on_c, 1, 58, 0
3, 259072, Note_on_c, 1, 60, 0
3, 259104, Note_on_c, 1, 57, 45
3, 259104, Note_on_c, 1, 60, 45
3, 259270, Note_on_c, 1, 57, 0
3, 259270, Note_on_c, 1, 60, 0
3, 259272, Note_on_c, 1, 59, 45
3, 259272, Note_on_c, 1, 62, 45
3, 259294, Note_on_c, 1, 59, 0
3, 259294, Note_on_c, 1, 62, 0
3, 259296, Note_on_c, 1, 60, 45
3, 259296, Note_on_c, 1, 63, 45
3, 259456, Note_on_c, 1, 60, 0
3, 259456, Note_on_c, 1, 63, 0
3, 259488, Note_on_c, 1, 60, 45
3, 259488, Note_on_c, 1, 63, 45
3, 259648, Note_on_c, 1, 60, 0
3, 259648, Note_on_c, 1, 63, 0
3, 259680, Note_on_c, 1, 53, 45
3, 259680, Note_on_c, 1, 60, 45
3, 259680, Note_on_c, 1, 63, 45
3, 259840, Note_on_c, 1, 60, 0
3, 259872, Note_on_c, 1, 57, 45
3, 260032, Note_on_c, 1, 53, 0
3, 260032, Note_on_c, 1, 57, 0
3, 260032, Note_on_c, 1, 63, 0
3, 260064, Note_on_c, 1, 54, 63
3, 260064, Note_on_c, 1, 60, 63
3, 260064, Note_on_c, 1, 63, 63
3, 260224, Note_on_c, 1, 54, 0
3, 260224, Note_on_c, 1, 60, 0
3, 260224, Note_on_c, 1, 63, 0
3, 260256, Note_on_c, 1, 55, 45
3, 260256, Note_on_c, 1, 58, 45
3, 260256, Note_on_c, 1, 62, 45
3, 260350, Note_on_c, 1, 55, 0
3, 260350, Note_on_c, 1, 58, 0
3, 260350, Note_on_c, 1, 62, 0
3, 260640, Note_on_c, 1, 52, 92
3, 260640, Note_on_c, 1, 58, 92
3, 260640, Note_on_c, 1, 61, 92
3, 260672, Note_on_c, 1, 52, 0
3, 260672, Note_on_c, 1, 58, 0
3, 260672, Note_on_c, 1, 61, 0
3, 261024, Note_on_c, 1, 53, 45
3, 261024, Note_on_c, 1, 58, 45
3, 261024, Note_on_c, 1, 62, 45
3, 261056, Note_on_c, 1, 53, 0
3, 261056, Note_on_c, 1, 58, 0
3, 261056, Note_on_c, 1, 62, 0
3, 261216, Note_on_c, 1, 41, 45
3, 261216, Note_on_c, 1, 53, 45
3, 261248, Note_on_c, 1, 41, 0
3, 261248, Note_on_c, 1, 53, 0
3, 261408, Note_on_c, 1, 34, 45
3, 261408, Note_on_c, 1, 46, 45
3, 261440, Note_on_c, 1, 34, 0
3, 261440, Note_on_c, 1, 46, 0
3, 261552, Note_on_c, 1, 46, 45
3, 261568, Note_on_c, 1, 46, 0
3, 261568, Note_on_c, 1, 34, 45
3, 261584, Note_on_c, 1, 34, 0
3, 261584, Note_on_c, 1, 46, 45
3, 261598, Note_on_c, 1, 46, 0
3, 261600, Note_on_c, 1, 34, 63
3, 261694, Note_on_c, 1, 34, 0
3, 261744, Note_on_c, 1, 46, 45
3, 261760, Note_on_c, 1, 46, 0
3, 261760, Note_on_c, 1, 34, 45
3, 261776, Note_on_c, 1, 34, 0
3, 261776, Note_on_c, 1, 46, 45
3, 261790, Note_on_c, 1, 46, 0
3, 261792, Note_on_c, 1, 34, 63
3, 261886, Note_on_c, 1, 34, 0
3, 261936, Note_on_c, 1, 46, 45
3, 261952, Note_on_c, 1, 46, 0
3, 261952, Note_on_c, 1, 34, 45
3, 261968, Note_on_c, 1, 34, 0
3, 261968, Note_on_c, 1, 46, 45
3, 261982, Note_on_c, 1, 46, 0
3, 261984, Note_on_c, 1, 34, 63
3, 262078, Note_on_c, 1, 34, 0
3, 262704, Note_on_c, 1, 46, 45
3, 262720, Note_on_c, 1, 46, 0
3, 262720, Note_on_c, 1, 34, 45
3, 262736, Note_on_c, 1, 34, 0
3, 262736, Note_on_c, 1, 46, 45
3, 262750, Note_on_c, 1, 46, 0
3, 262752, Note_on_c, 1, 34, 63
3, 262846, Note_on_c, 1, 34, 0
3, 262896, Note_on_c, 1, 46, 45
3, 262912, Note_on_c, 1, 46, 0
3, 262912, Note_on_c, 1, 34, 45
3, 262928, Note_on_c, 1, 34, 0
3, 262928, Note_on_c, 1, 46, 45
3, 262942, Note_on_c, 1, 46, 0
3, 262944, Note_on_c, 1, 34, 63
3, 263038, Note_on_c, 1, 34, 0
3, 263088, Note_on_c, 1, 46, 45
3, 263104, Note_on_c, 1, 46, 0
3, 263104, Note_on_c, 1, 34, 45
3, 263120, Note_on_c, 1, 34, 0
3, 263120, Note_on_c, 1, 46, 45
3, 263134, Note_on_c, 1, 46, 0
3, 263136, Note_on_c, 1, 34, 63
3, 263230, Note_on_c, 1, 34, 0
3, 263856, Note_on_c, 1, 46, 45
3, 263872, Note_on_c, 1, 46, 0
3, 263872, Note_on_c, 1, 34, 45
3, 263888, Note_on_c, 1, 34, 0
3, 263888, Note_on_c, 1, 46, 45
3, 263902, Note_on_c, 1, 46, 0
3, 263904, Note_on_c, 1, 34, 63
3, 263998, Note_on_c, 1, 34, 0
3, 264048, Note_on_c, 1, 46, 45
3, 264064, Note_on_c, 1, 46, 0
3, 264064, Note_on_c, 1, 34, 45
3, 264080, Note_on_c, 1, 34, 0
3, 264080, Note_on_c, 1, 46, 45
3, 264094, Note_on_c, 1, 46, 0
3, 264096, Note_on_c, 1, 34, 63
3, 264190, Note_on_c, 1, 34, 0
3, 264240, Note_on_c, 1, 46, 45
3, 264256, Note_on_c, 1, 46, 0
3, 264256, Note_on_c, 1, 34, 45
3, 264272, Note_on_c, 1, 34, 0
3, 264272, Note_on_c, 1, 46, 45
3, 264286, Note_on_c, 1, 46, 0
3, 264288, Note_on_c, 1, 34, 63
3, 264382, Note_on_c, 1, 34, 0
3, 265008, Note_on_c, 1, 48, 45
3, 265024, Note_on_c, 1, 48, 0
3, 265024, Note_on_c, 1, 36, 45
3, 265040, Note_on_c, 1, 36, 0
3, 265040, Note_on_c, 1, 48, 45
3, 265054, Note_on_c, 1, 48, 0
3, 265056, Note_on_c, 1, 36, 63
3, 265150, Note_on_c, 1, 36, 0
3, 265200, Note_on_c, 1, 84, 45
3, 265216, Note_on_c, 1, 84, 0
3, 265216, Note_on_c, 1, 72, 45
3, 265232, Note_on_c, 1, 72, 0
3, 265232, Note_on_c, 1, 84, 45
3, 265246, Note_on_c, 1, 84, 0
3, 265248, Note_on_c, 1, 72, 63
3, 265342, Note_on_c, 1, 72, 0
3, 265584, Note_on_c, 1, 48, 45
3, 265600, Note_on_c, 1, 48, 0
3, 265600, Note_on_c, 1, 36, 45
3, 265616, Note_on_c, 1, 36, 0
3, 265616, Note_on_c, 1, 48, 45
3, 265630, Note_on_c, 1, 48, 0
3, 265632, Note_on_c, 1, 36, 63
3, 265726, Note_on_c, 1, 36, 0
3, 265776, Note_on_c, 1, 84, 45
3, 265792, Note_on_c, 1, 84, 0
3, 265792, Note_on_c, 1, 72, 45
3, 265808, Note_on_c, 1, 72, 0
3, 265808, Note_on_c, 1, 84, 45
3, 265822, Note_on_c, 1, 84, 0
3, 265824, Note_on_c, 1, 72, 63
3, 265918, Note_on_c, 1, 72, 0
3, 266160, Note_on_c, 1, 48, 58
3, 266176, Note_on_c, 1, 48, 0
3, 266176, Note_on_c, 1, 36, 58
3, 266192, Note_on_c, 1, 36, 0
3, 266192, Note_on_c, 1, 48, 58
3, 266206, Note_on_c, 1, 48, 0
3, 266208, Note_on_c, 1, 36, 81
3, 266302, Note_on_c, 1, 36, 0
3, 266352, Note_on_c, 1, 84, 64
3, 266368, Note_on_c, 1, 84, 0
3, 266368, Note_on_c, 1, 72, 64
3, 266384, Note_on_c, 1, 72, 0
3, 266384, Note_on_c, 1, 84, 64
3, 266398, Note_on_c, 1, 84, 0
3, 266400, Note_on_c, 1, 72, 89
3, 266494, Note_on_c, 1, 72, 0
3, 266736, Note_on_c, 1, 48, 79
3, 266752, Note_on_c, 1, 48, 0
3, 266752, Note_on_c, 1, 36, 79
3, 266768, Note_on_c, 1, 36, 0
3, 266768, Note_on_c, 1, 48, 79
3, 266782, Note_on_c, 1, 48, 0
3, 266784, Note_on_c, 1, 36, 112
3, 266878, Note_on_c, 1, 36, 0
3, 266928, Note_on_c, 1, 84, 89
3, 266944, Note_on_c, 1, 84, 0
3, 266944, Note_on_c, 1, 72, 90
3, 266960, Note_on_c, 1, 72, 0
3, 266960, Note_on_c, 1, 84, 91
3, 266974, Note_on_c, 1, 84, 0
3, 266976, Note_on_c, 1, 72, 127
3, 267070, Note_on_c, 1, 72, 0
3, 267120, Note_on_c, 1, 84, 92
3, 267136, Note_on_c, 1, 84, 0
3, 267136, Note_on_c, 1, 72, 92
3, 267152, Note_on_c, 1, 72, 0
3, 267152, Note_on_c, 1, 84, 92
3, 267166, Note_on_c, 1, 84, 0
3, 267312, Note_on_c, 1, 48, 45
3, 267336, Note_on_c, 1, 48, 0
3, 267336, Note_on_c, 1, 36, 45
3, 267358, Note_on_c, 1, 36, 0
3, 267360, Note_on_c, 1, 48, 63
3, 267454, Note_on_c, 1, 48, 0
3, 267504, Note_on_c, 1, 84, 75
3, 267528, Note_on_c, 1, 84, 0
3, 267528, Note_on_c, 1, 72, 75
3, 267550, Note_on_c, 1, 72, 0
3, 267552, Note_on_c, 1, 84, 105
3, 267646, Note_on_c, 1, 84, 0
3, 267888, Note_on_c, 1, 48, 75
3, 267912, Note_on_c, 1, 48, 0
3, 267912, Note_on_c, 1, 36, 75
3, 267934, Note_on_c, 1, 36, 0
3, 267936, Note_on_c, 1, 48, 105
3, 268030, Note_on_c, 1, 48, 0
3, 268080, Note_on_c, 1, 84, 75
3, 268104, Note_on_c, 1, 84, 0
3, 268104, Note_on_c, 1, 72, 75
3, 268126, Note_on_c, 1, 72, 0
3, 268128, Note_on_c, 1, 84, 105
3, 268222, Note_on_c, 1, 84, 0
3, 268464, Note_on_c, 1, 48, 72
3, 268488, Note_on_c, 1, 48, 0
3, 268488, Note_on_c, 1, 36, 71
3, 268510, Note_on_c, 1, 36, 0
3, 268512, Note_on_c, 1, 48, 98
3, 268606, Note_on_c, 1, 48, 0
3, 268656, Note_on_c, 1, 48, 58
3, 268680, Note_on_c, 1, 48, 0
3, 268680, Note_on_c, 1, 36, 56
3, 268702, Note_on_c, 1, 36, 0
3, 268704, Note_on_c, 1, 48, 75
3, 268798, Note_on_c, 1, 48, 0
3, 268848, Note_on_c, 1, 48, 42
3, 268872, Note_on_c, 1, 48, 0
3, 268872, Note_on_c, 1, 36, 40
3, 268894, Note_on_c, 1, 36, 0
3, 268896, Note_on_c, 1, 48, 53
3, 268990, Note_on_c, 1, 48, 0
3, 268992, Note_on_c, 1, 60, 60
3, 269086, Note_on_c, 1, 60, 0
3, 269088, Note_on_c, 1, 59, 57
3, 269182, Note_on_c, 1, 59, 0
3, 269184, Note_on_c, 1, 58, 54
3, 269184, Note_on_c, 1, 60, 54
3, 269278, Note_on_c, 1, 58, 0
3, 269280, Note_on_c, 1, 57, 51
3, 269344, Note_on_c, 1, 60, 0
3, 269374, Note_on_c, 1, 57, 0
3, 269376, Note_on_c, 1, 55, 48
3, 269376, Note_on_c, 1, 58, 48
3, 269470, Note_on_c, 1, 55, 0
3, 269470, Note_on_c, 1, 58, 0
3, 269472, Note_on_c, 1, 41, 45
3, 269504, Note_on_c, 1, 41, 0
3, 269568, Note_on_c, 1, 53, 45
3, 269664, Note_on_c, 1, 53, 0
3, 269664, Note_on_c, 1, 57, 45
3, 269664, Note_on_c, 1, 60, 45
3, 269760, Note_on_c, 1, 57, 0
3, 269760, Note_on_c, 1, 60, 0
3, 269760, Note_on_c, 1, 53, 45
3, 269856, Note_on_c, 1, 53, 0
3, 269856, Note_on_c, 1, 58, 45
3, 269856, Note_on_c, 1, 62, 45
3, 269952, Note_on_c, 1, 58, 0
3, 269952, Note_on_c, 1, 62, 0
3, 269952, Note_on_c, 1, 53, 45
3, 270048, Note_on_c, 1, 53, 0
3, 270048, Note_on_c, 1, 57, 45
3, 270048, Note_on_c, 1, 60, 45
3, 270144, Note_on_c, 1, 57, 0
3, 270144, Note_on_c, 1, 60, 0
3, 270144, Note_on_c, 1, 53, 45
3, 270240, Note_on_c, 1, 53, 0
3, 270240, Note_on_c, 1, 57, 45
3, 270240, Note_on_c, 1, 60, 45
3, 270336, Note_on_c, 1, 57, 0
3, 270336, Note_on_c, 1, 60, 0
3, 270336, Note_on_c, 1, 53, 45
3, 270432, Note_on_c, 1, 53, 0
3, 270432, Note_on_c, 1, 50, 45
3, 270528, Note_on_c, 1, 50, 0
3, 270528, Note_on_c, 1, 46, 45
3, 270624, Note_on_c, 1, 46, 0
3, 270624, Note_on_c, 1, 36, 45
3, 270656, Note_on_c, 1, 36, 0
3, 270720, Note_on_c, 1, 48, 45
3, 270816, Note_on_c, 1, 48, 0
3, 270816, Note_on_c, 1, 53, 45
3, 270816, Note_on_c, 1, 57, 45
3, 270912, Note_on_c, 1, 53, 0
3, 270912, Note_on_c, 1, 57, 0
3, 270912, Note_on_c, 1, 48, 45
3, 271008, Note_on_c, 1, 48, 0
3, 271008, Note_on_c, 1, 52, 45
3, 271008, Note_on_c, 1, 55, 45
3, 271104, Note_on_c, 1, 52, 0
3, 271104, Note_on_c, 1, 55, 0
3, 271104, Note_on_c, 1, 48, 45
3, 271200, Note_on_c, 1, 48, 0
3, 271200, Note_on_c, 1, 41, 45
3, 271200, Note_on_c, 1, 52, 45
3, 271296, Note_on_c, 1, 52, 0
3, 271296, Note_on_c, 1, 48, 45
3, 271392, Note_on_c, 1, 48, 0
3, 271392, Note_on_c, 1, 53, 45
3, 271486, Note_on_c, 1, 41, 0
3, 271486, Note_on_c, 1, 53, 0
3, 271488, Note_on_c, 1, 45, 45
3, 271584, Note_on_c, 1, 45, 0
3, 271584, Note_on_c, 1, 46, 45
3, 271680, Note_on_c, 1, 46, 0
3, 271680, Note_on_c, 1, 43, 45
3, 271776, Note_on_c, 1, 43, 0
3, 271776, Note_on_c, 1, 41, 45
3, 271808, Note_on_c, 1, 41, 0
3, 271872, Note_on_c, 1, 53, 45
3, 271968, Note_on_c, 1, 53, 0
3, 271968, Note_on_c, 1, 57, 45
3, 271968, Note_on_c, 1, 60, 45
3, 272064, Note_on_c, 1, 57, 0
3, 272064, Note_on_c, 1, 60, 0
3, 272064, Note_on_c, 1, 53, 45
3, 272160, Note_on_c, 1, 53, 0
3, 272160, Note_on_c, 1, 58, 45
3, 272160, Note_on_c, 1, 62, 45
3, 272256, Note_on_c, 1, 58, 0
3, 272256, Note_on_c, 1, 62, 0
3, 272256, Note_on_c, 1, 53, 45
3, 272352, Note_on_c, 1, 53, 0
3, 272352, Note_on_c, 1, 57, 45
3, 272352, Note_on_c, 1, 60, 45
3, 272448, Note_on_c, 1, 57, 0
3, 272448, Note_on_c, 1, 60, 0
3, 272448, Note_on_c, 1, 53, 45
3, 272544, Note_on_c, 1, 53, 0
3, 272544, Note_on_c, 1, 57, 45
3, 272544, Note_on_c, 1, 60, 45
3, 272640, Note_on_c, 1, 57, 0
3, 272640, Note_on_c, 1, 60, 0
3, 272640, Note_on_c, 1, 53, 45
3, 272736, Note_on_c, 1, 53, 0
3, 272736, Note_on_c, 1, 50, 45
3, 272736, Note_on_c, 1, 65, 45
3, 272832, Note_on_c, 1, 50, 0
3, 272832, Note_on_c, 1, 65, 0
3, 272832, Note_on_c, 1, 46, 45
3, 272832, Note_on_c, 1, 62, 45
3, 272928, Note_on_c, 1, 46, 0
3, 272928, Note_on_c, 1, 62, 0
3, 272928, Note_on_c, 1, 48, 45
3, 273312, Note_on_c, 1, 48, 0
3, 273312, Note_on_c, 1, 36, 45
3, 273504, Note_on_c, 1, 36, 0
3, 273504, Note_on_c, 1, 29, 45
3, 273504, Note_on_c, 1, 41, 45
3, 273598, Note_on_c, 1, 29, 0
3, 273598, Note_on_c, 1, 41, 0
3, 273648, Note_on_c, 1, 41, 45
3, 273664, Note_on_c, 1, 41, 0
3, 273664, Note_on_c, 1, 29, 45
3, 273680, Note_on_c, 1, 29, 0
3, 273680, Note_on_c, 1, 41, 45
3, 273694, Note_on_c, 1, 41, 0
3, 273696, Note_on_c, 1, 29, 63
3, 273790, Note_on_c, 1, 29, 0
3, 273840, Note_on_c, 1, 41, 45
3, 273856, Note_on_c, 1, 41, 0
3, 273856, Note_on_c, 1, 29, 45
3, 273872, Note_on_c, 1, 29, 0
3, 273872, Note_on_c, 1, 41, 45
3, 273886, Note_on_c, 1, 41, 0
3, 273888, Note_on_c, 1, 29, 63
3, 273982, Note_on_c, 1, 29, 0
3, 274224, Note_on_c, 1, 41, 45
3, 274240, Note_on_c, 1, 41, 0
3, 274240, Note_on_c, 1, 29, 45
3, 274256, Note_on_c, 1, 29, 0
3, 274256, Note_on_c, 1, 41, 45
3, 274270, Note_on_c, 1, 41, 0
3, 274272, Note_on_c, 1, 29, 63
3, 274366, Note_on_c, 1, 29, 0
3, 274416, Note_on_c, 1, 41, 45
3, 274432, Note_on_c, 1, 41, 0
3, 274432, Note_on_c, 1, 29, 45
3, 274448, Note_on_c, 1, 29, 0
3, 274448, Note_on_c, 1, 41, 45
3, 274462, Note_on_c, 1, 41, 0
3, 274464, Note_on_c, 1, 29, 63
3, 274558, Note_on_c, 1, 29, 0
3, 274800, Note_on_c, 1, 41, 45
3, 274816, Note_on_c, 1, 41, 0
3, 274816, Note_on_c, 1, 29, 45
3, 274832, Note_on_c, 1, 29, 0
3, 274832, Note_on_c, 1, 41, 45
3, 274846, Note_on_c, 1, 41, 0
3, 274848, Note_on_c, 1, 29, 63
3, 274942, Note_on_c, 1, 29, 0
3, 274992, Note_on_c, 1, 41, 45
3, 275008, Note_on_c, 1, 41, 0
3, 275008, Note_on_c, 1, 29, 45
3, 275024, Note_on_c, 1, 29, 0
3, 275024, Note_on_c, 1, 41, 45
3, 275038, Note_on_c, 1, 41, 0
3, 275040, Note_on_c, 1, 29, 63
3, 275134, Note_on_c, 1, 29, 0
3, 275376, Note_on_c, 1, 41, 45
3, 275392, Note_on_c, 1, 41, 0
3, 275392, Note_on_c, 1, 29, 45
3, 275408, Note_on_c, 1, 29, 0
3, 275408, Note_on_c, 1, 41, 45
3, 275422, Note_on_c, 1, 41, 0
3, 275424, Note_on_c, 1, 29, 63
3, 275518, Note_on_c, 1, 29, 0
3, 275568, Note_on_c, 1, 41, 45
3, 275584, Note_on_c, 1, 41, 0
3, 275584, Note_on_c, 1, 29, 45
3, 275600, Note_on_c, 1, 29, 0
3, 275600, Note_on_c, 1, 41, 45
3, 275614, Note_on_c, 1, 41, 0
3, 275616, Note_on_c, 1, 29, 63
3, 275710, Note_on_c, 1, 29, 0
3, 275952, Note_on_c, 1, 57, 45
3, 275952, Note_on_c, 1, 60, 45
3, 275968, Note_on_c, 1, 57, 0
3, 275968, Note_on_c, 1, 60, 0
3, 275968, Note_on_c, 1, 53, 45
3, 275984, Note_on_c, 1, 53, 0
3, 275984, Note_on_c, 1, 57, 45
3, 275984, Note_on_c, 1, 60, 45
3, 275998, Note_on_c, 1, 57, 0
3, 275998, Note_on_c, 1, 60, 0
3, 276000, Note_on_c, 1, 53, 63
3, 276094, Note_on_c, 1, 53, 0
3, 276384, Note_on_c, 1, 34, 45
3, 276384, Note_on_c, 1, 46, 45
3, 276912, Note_on_c, 1, 34, 0
3, 276912, Note_on_c, 1, 46, 0
3, 276960, Note_on_c, 1, 46, 45
3, 276960, Note_on_c, 1, 50, 45
3, 276960, Note_on_c, 1, 53, 45
3, 277344, Note_on_c, 1, 34, 45
3, 277344, Note_on_c, 1, 41, 45
3, 277504, Note_on_c, 1, 34, 0
3, 277504, Note_on_c, 1, 41, 0
3, 277504, Note_on_c, 1, 46, 0
3, 277504, Note_on_c, 1, 50, 0
3, 277504, Note_on_c, 1, 53, 0
3, 277536, Note_on_c, 1, 36, 45
3, 277536, Note_on_c, 1, 41, 45
3, 277536, Note_on_c, 1, 48, 45
3, 278064, Note_on_c, 1, 36, 0
3, 278064, Note_on_c, 1, 41, 0
3, 278064, Note_on_c, 1, 48, 0
3, 278112, Note_on_c, 1, 54, 45
3, 278112, Note_on_c, 1, 60, 45
3, 278112, Note_on_c, 1, 63, 45
3, 278304, Note_on_c, 1, 54, 0
3, 278304, Note_on_c, 1, 53, 45
3, 278464, Note_on_c, 1, 53, 0
3, 278464, Note_on_c, 1, 60, 0
3, 278464, Note_on_c, 1, 63, 0
3, 278496, Note_on_c, 1, 45, 45
3, 278656, Note_on_c, 1, 45, 0
3, 278688, Note_on_c, 1, 34, 45
3, 278688, Note_on_c, 1, 46, 45
3, 279216, Note_on_c, 1, 34, 0
3, 279216, Note_on_c, 1, 46, 0
3, 279264, Note_on_c, 1, 59, 45
3, 279264, Note_on_c, 1, 65, 45
3, 279264, Note_on_c, 1, 68, 45
3, 279456, Note_on_c, 1, 59, 0
3, 279456, Note_on_c, 1, 58, 45
3, 279616, Note_on_c, 1, 58, 0
3, 279616, Note_on_c, 1, 65, 0
3, 279616, Note_on_c, 1, 68, 0
3, 279648, Note_on_c, 1, 50, 45
3, 279648, Note_on_c, 1, 58, 45
3, 279808, Note_on_c, 1, 50, 0
3, 279808, Note_on_c, 1, 58, 0
3, 279840, Note_on_c, 1, 51, 45
3, 279840, Note_on_c, 1, 58, 45
3, 279936, Note_on_c, 1, 58, 0
3, 279936, Note_on_c, 1, 59, 45
3, 280032, Note_on_c, 1, 59, 0
3, 280032, Note_on_c, 1, 60, 45
3, 280126, Note_on_c, 1, 51, 0
3, 280126, Note_on_c, 1, 60, 0
3, 280128, Note_on_c, 1, 53, 45
3, 280128, Note_on_c, 1, 62, 45
3, 280222, Note_on_c, 1, 53, 0
3, 280222, Note_on_c, 1, 62, 0
3, 280224, Note_on_c, 1, 55, 45
3, 280224, Note_on_c, 1, 63, 45
3, 280352, Note_on_c, 1, 55, 0
3, 280352, Note_on_c, 1, 64, 0
3, 280416, Note_on_c, 1, 53, 45
3, 280416, Note_on_c, 1, 64, 45
3, 280576, Note_on_c, 1, 64, 0
3, 280608, Note_on_c, 1, 65, 45
3, 280702, Note_on_c, 1, 53, 0
3, 280702, Note_on_c, 1, 65, 0
3, 280992, Note_on_c, 1, 34, 45
3, 281024, Note_on_c, 1, 34, 0
3, 281208, Note_on_c, 1, 82, 45
3, 281230, Note_on_c, 1, 82, 0
3, 281232, Note_on_c, 1, 86, 45
3, 281254, Note_on_c, 1, 86, 0
3, 281256, Note_on_c, 1, 82, 45
3, 281278, Note_on_c, 1, 82, 0
3, 281280, Note_on_c, 1, 77, 45
3, 281302, Note_on_c, 1, 77, 0
3, 281304, Note_on_c, 1, 82, 45
3, 281326, Note_on_c, 1, 82, 0
3, 281328, Note_on_c, 1, 74, 45
3, 281350, Note_on_c, 1, 74, 0
3, 281352, Note_on_c, 1, 77, 45
3, 281374, Note_on_c, 1, 77, 0
3, 281376, Note_on_c, 1, 70, 45
3, 281398, Note_on_c, 1, 70, 0
3, 281400, Note_on_c, 1, 74, 45
3, 281422, Note_on_c, 1, 74, 0
3, 281424, Note_on_c, 1, 65, 45
3, 281446, Note_on_c, 1, 65, 0
3, 281448, Note_on_c, 1, 70, 45
3, 281470, Note_on_c, 1, 70, 0
3, 281472, Note_on_c, 1, 62, 45
3, 281494, Note_on_c, 1, 62, 0
3, 281496, Note_on_c, 1, 65, 45
3, 281518, Note_on_c, 1, 65, 0
3, 281520, Note_on_c, 1, 58, 45
3, 281542, Note_on_c, 1, 58, 0
3, 281544, Note_on_c, 1, 62, 45
3, 281566, Note_on_c, 1, 62, 0
3, 281568, Note_on_c, 1, 53, 45
3, 281590, Note_on_c, 1, 53, 0
3, 281592, Note_on_c, 1, 58, 45
3, 281614, Note_on_c, 1, 58, 0
3, 281616, Note_on_c, 1, 50, 45
3, 281638, Note_on_c, 1, 50, 0
3, 281640, Note_on_c, 1, 53, 45
3, 281662, Note_on_c, 1, 53, 0
3, 281664, Note_on_c, 1, 46, 45
3, 281686, Note_on_c, 1, 46, 0
3, 281688, Note_on_c, 1, 50, 45
3, 281710, Note_on_c, 1, 50, 0
3, 281712, Note_on_c, 1, 41, 45
3, 281734, Note_on_c, 1, 41, 0
3, 281736, Note_on_c, 1, 46, 45
3, 281758, Note_on_c, 1, 46, 0
3, 281760, Note_on_c, 1, 38, 45
3, 281782, Note_on_c, 1, 38, 0
3, 281784, Note_on_c, 1, 34, 45
3, 281806, Note_on_c, 1, 34, 0
3, 281808, Note_on_c, 1, 38, 45
3, 281830, Note_on_c, 1, 38, 0
3, 281832, Note_on_c, 1, 41, 45
3, 281854, Note_on_c, 1, 41, 0
3, 281856, Note_on_c, 1, 46, 45
3, 281878, Note_on_c, 1, 46, 0
3, 281880, Note_on_c, 1, 38, 45
3, 281902, Note_on_c, 1, 38, 0
3, 281904, Note_on_c, 1, 41, 45
3, 281926, Note_on_c, 1, 41, 0
3, 281928, Note_on_c, 1, 46, 45
3, 281950, Note_on_c, 1, 46, 0
3, 281952, Note_on_c, 1, 50, 45
3, 281974, Note_on_c, 1, 50, 0
3, 281976, Note_on_c, 1, 46, 45
3, 281998, Note_on_c, 1, 46, 0
3, 282000, Note_on_c, 1, 41, 45
3, 282022, Note_on_c, 1, 41, 0
3, 282024, Note_on_c, 1, 38, 45
3, 282046, Note_on_c, 1, 38, 0
3, 282048, Note_on_c, 1, 46, 45
3, 282070, Note_on_c, 1, 46, 0
3, 282072, Note_on_c, 1, 41, 45
3, 282094, Note_on_c, 1, 41, 0
3, 282096, Note_on_c, 1, 38, 45
3, 282118, Note_on_c, 1, 38, 0
3, 282120, Note_on_c, 1, 34, 45
3, 282142, Note_on_c, 1, 34, 0
3, 282144, Note_on_c, 1, 29, 45
3, 282176, Note_on_c, 1, 29, 0
3, 282360, Note_on_c, 1, 84, 45
3, 282382, Note_on_c, 1, 84, 0
3, 282384, Note_on_c, 1, 87, 45
3, 282406, Note_on_c, 1, 87, 0
3, 282408, Note_on_c, 1, 84, 45
3, 282430, Note_on_c, 1, 84, 0
3, 282432, Note_on_c, 1, 81, 45
3, 282454, Note_on_c, 1, 81, 0
3, 282456, Note_on_c, 1, 84, 45
3, 282478, Note_on_c, 1, 84, 0
3, 282480, Note_on_c, 1, 78, 45
3, 282502, Note_on_c, 1, 78, 0
3, 282504, Note_on_c, 1, 81, 45
3, 282526, Note_on_c, 1, 81, 0
3, 282528, Note_on_c, 1, 75, 45
3, 282550, Note_on_c, 1, 75, 0
3, 282552, Note_on_c, 1, 78, 45
3, 282574, Note_on_c, 1, 78, 0
3, 282576, Note_on_c, 1, 72, 45
3, 282598, Note_on_c, 1, 72, 0
3, 282600, Note_on_c, 1, 75, 45
3, 282622, Note_on_c, 1, 75, 0
3, 282624, Note_on_c, 1, 69, 45
3, 282646, Note_on_c, 1, 69, 0
3, 282648, Note_on_c, 1, 72, 45
3, 282670, Note_on_c, 1, 72, 0
3, 282672, Note_on_c, 1, 66, 45
3, 282694, Note_on_c, 1, 66, 0
3, 282696, Note_on_c, 1, 69, 45
3, 282718, Note_on_c, 1, 69, 0
3, 282720, Note_on_c, 1, 63, 45
3, 282742, Note_on_c, 1, 63, 0
3, 282744, Note_on_c, 1, 66, 45
3, 282766, Note_on_c, 1, 66, 0
3, 282768, Note_on_c, 1, 60, 45
3, 282790, Note_on_c, 1, 60, 0
3, 282792, Note_on_c, 1, 63, 45
3, 282814, Note_on_c, 1, 63, 0
3, 282816, Note_on_c, 1, 57, 45
3, 282838, Note_on_c, 1, 57, 0
3, 282840, Note_on_c, 1, 60, 45
3, 282862, Note_on_c, 1, 60, 0
3, 282864, Note_on_c, 1, 54, 45
3, 282886, Note_on_c, 1, 54, 0
3, 282888, Note_on_c, 1, 57, 45
3, 282910, Note_on_c, 1, 57, 0
3, 282912, Note_on_c, 1, 48, 45
3, 282934, Note_on_c, 1, 48, 0
3, 282936, Note_on_c, 1, 54, 45
3, 282958, Note_on_c, 1, 54, 0
3, 282960, Note_on_c, 1, 51, 45
3, 282982, Note_on_c, 1, 51, 0
3, 282984, Note_on_c, 1, 57, 45
3, 283006, Note_on_c, 1, 57, 0
3, 283008, Note_on_c, 1, 54, 45
3, 283030, Note_on_c, 1, 54, 0
3, 283032, Note_on_c, 1, 60, 45
3, 283054, Note_on_c, 1, 60, 0
3, 283056, Note_on_c, 1, 57, 45
3, 283078, Note_on_c, 1, 57, 0
3, 283080, Note_on_c, 1, 54, 45
3, 283102, Note_on_c, 1, 54, 0
3, 283128, Note_on_c, 1, 51, 45
3, 283150, Note_on_c, 1, 51, 0
3, 283152, Note_on_c, 1, 46, 45
3, 283174, Note_on_c, 1, 46, 0
3, 283176, Note_on_c, 1, 54, 45
3, 283198, Note_on_c, 1, 54, 0
3, 283200, Note_on_c, 1, 51, 45
3, 283222, Note_on_c, 1, 51, 0
3, 283224, Note_on_c, 1, 58, 45
3, 283246, Note_on_c, 1, 58, 0
3, 283248, Note_on_c, 1, 54, 45
3, 283270, Note_on_c, 1, 54, 0
3, 283272, Note_on_c, 1, 51, 45
3, 283294, Note_on_c, 1, 51, 0
3, 283296, Note_on_c, 1, 45, 45
3, 283390, Note_on_c, 1, 45, 0
3, 283512, Note_on_c, 1, 84, 45
3, 283534, Note_on_c, 1, 84, 0
3, 283536, Note_on_c, 1, 87, 45
3, 283558, Note_on_c, 1, 87, 0
3, 283560, Note_on_c, 1, 84, 45
3, 283582, Note_on_c, 1, 84, 0
3, 283584, Note_on_c, 1, 81, 45
3, 283606, Note_on_c, 1, 81, 0
3, 283608, Note_on_c, 1, 84, 45
3, 283630, Note_on_c, 1, 84, 0
3, 283632, Note_on_c, 1, 75, 45
3, 283654, Note_on_c, 1, 75, 0
3, 283656, Note_on_c, 1, 81, 45
3, 283678, Note_on_c, 1, 81, 0
3, 283680, Note_on_c, 1, 72, 45
3, 283702, Note_on_c, 1, 72, 0
3, 283704, Note_on_c, 1, 75, 45
3, 283726, Note_on_c, 1, 75, 0
3, 283728, Note_on_c, 1, 69, 45
3, 283750, Note_on_c, 1, 69, 0
3, 283752, Note_on_c, 1, 72, 45
3, 283774, Note_on_c, 1, 72, 0
3, 283776, Note_on_c, 1, 63, 45
3, 283798, Note_on_c, 1, 63, 0
3, 283800, Note_on_c, 1, 69, 45
3, 283822, Note_on_c, 1, 69, 0
3, 283824, Note_on_c, 1, 60, 45
3, 283846, Note_on_c, 1, 60, 0
3, 283848, Note_on_c, 1, 63, 45
3, 283870, Note_on_c, 1, 63, 0
3, 283872, Note_on_c, 1, 57, 45
3, 283894, Note_on_c, 1, 57, 0
3, 283896, Note_on_c, 1, 60, 45
3, 283918, Note_on_c, 1, 60, 0
3, 283920, Note_on_c, 1, 53, 45
3, 283942, Note_on_c, 1, 53, 0
3, 283944, Note_on_c, 1, 57, 45
3, 283966, Note_on_c, 1, 57, 0
3, 283968, Note_on_c, 1, 48, 45
3, 283990, Note_on_c, 1, 48, 0
3, 283992, Note_on_c, 1, 53, 45
3, 284014, Note_on_c, 1, 53, 0
3, 284016, Note_on_c, 1, 45, 45
3, 284038, Note_on_c, 1, 45, 0
3, 284040, Note_on_c, 1, 48, 45
3, 284062, Note_on_c, 1, 48, 0
3, 284064, Note_on_c, 1, 41, 45
3, 284086, Note_on_c, 1, 41, 0
3, 284088, Note_on_c, 1, 45, 45
3, 284110, Note_on_c, 1, 45, 0
3, 284112, Note_on_c, 1, 36, 45
3, 284134, Note_on_c, 1, 36, 0
3, 284136, Note_on_c, 1, 41, 45
3, 284158, Note_on_c, 1, 41, 0
3, 284160, Note_on_c, 1, 33, 45
3, 284182, Note_on_c, 1, 33, 0
3, 284184, Note_on_c, 1, 36, 45
3, 284206, Note_on_c, 1, 36, 0
3, 284208, Note_on_c, 1, 29, 45
3, 284230, Note_on_c, 1, 29, 0
3, 284232, Note_on_c, 1, 33, 45
3, 284254, Note_on_c, 1, 33, 0
3, 284280, Note_on_c, 1, 30, 45
3, 284302, Note_on_c, 1, 30, 0
3, 284304, Note_on_c, 1, 33, 45
3, 284326, Note_on_c, 1, 33, 0
3, 284328, Note_on_c, 1, 36, 45
3, 284350, Note_on_c, 1, 36, 0
3, 284352, Note_on_c, 1, 42, 45
3, 284374, Note_on_c, 1, 42, 0
3, 284376, Note_on_c, 1, 45, 45
3, 284398, Note_on_c, 1, 45, 0
3, 284400, Note_on_c, 1, 48, 45
3, 284422, Note_on_c, 1, 48, 0
3, 284424, Note_on_c, 1, 54, 45
3, 284446, Note_on_c, 1, 54, 0
3, 284472, Note_on_c, 1, 31, 45
3, 284494, Note_on_c, 1, 31, 0
3, 284496, Note_on_c, 1, 34, 45
3, 284518, Note_on_c, 1, 34, 0
3, 284520, Note_on_c, 1, 38, 45
3, 284542, Note_on_c, 1, 38, 0
3, 284544, Note_on_c, 1, 43, 45
3, 284566, Note_on_c, 1, 43, 0
3, 284568, Note_on_c, 1, 46, 45
3, 284590, Note_on_c, 1, 46, 0
3, 284592, Note_on_c, 1, 50, 45
3, 284614, Note_on_c, 1, 50, 0
3, 284616, Note_on_c, 1, 55, 45
3, 284638, Note_on_c, 1, 55, 0
3, 284664, Note_on_c, 1, 40, 45
3, 284686, Note_on_c, 1, 40, 0
3, 284688, Note_on_c, 1, 43, 45
3, 284710, Note_on_c, 1, 43, 0
3, 284712, Note_on_c, 1, 46, 45
3, 284734, Note_on_c, 1, 46, 0
3, 284736, Note_on_c, 1, 52, 45
3, 284758, Note_on_c, 1, 52, 0
3, 284760, Note_on_c, 1, 55, 45
3, 284782, Note_on_c, 1, 55, 0
3, 284784, Note_on_c, 1, 58, 45
3, 284806, Note_on_c, 1, 58, 0
3, 284808, Note_on_c, 1, 55, 45
3, 284830, Note_on_c, 1, 55, 0
3, 284832, Note_on_c, 1, 61, 92
3, 284854, Note_on_c, 1, 61, 0
3, 284856, Note_on_c, 1, 58, 92
3, 284878, Note_on_c, 1, 58, 0
3, 284880, Note_on_c, 1, 55, 92
3, 284902, Note_on_c, 1, 55, 0
3, 284904, Note_on_c, 1, 52, 92
3, 284926, Note_on_c, 1, 52, 0
3, 284928, Note_on_c, 1, 49, 92
3, 284950, Note_on_c, 1, 49, 0
3, 284952, Note_on_c, 1, 46, 92
3, 284974, Note_on_c, 1, 46, 0
3, 284976, Note_on_c, 1, 43, 92
3, 284998, Note_on_c, 1, 43, 0
3, 285000, Note_on_c, 1, 40, 92
3, 285022, Note_on_c, 1, 40, 0
3, 285048, Note_on_c, 1, 41, 45
3, 285070, Note_on_c, 1, 41, 0
3, 285072, Note_on_c, 1, 46, 45
3, 285094, Note_on_c, 1, 46, 0
3, 285096, Note_on_c, 1, 50, 45
3, 285118, Note_on_c, 1, 50, 0
3, 285120, Note_on_c, 1, 53, 45
3, 285142, Note_on_c, 1, 53, 0
3, 285144, Note_on_c, 1, 50, 45
3, 285166, Note_on_c, 1, 50, 0
3, 285168, Note_on_c, 1, 46, 45
3, 285190, Note_on_c, 1, 46, 0
3, 285192, Note_on_c, 1, 41, 45
3, 285214, Note_on_c, 1, 41, 0
3, 285240, Note_on_c, 1, 41, 45
3, 285262, Note_on_c, 1, 41, 0
3, 285264, Note_on_c, 1, 46, 45
3, 285286, Note_on_c, 1, 46, 0
3, 285288, Note_on_c, 1, 50, 45
3, 285310, Note_on_c, 1, 50, 0
3, 285312, Note_on_c, 1, 53, 45
3, 285334, Note_on_c, 1, 53, 0
3, 285336, Note_on_c, 1, 50, 45
3, 285358, Note_on_c, 1, 50, 0
3, 285360, Note_on_c, 1, 46, 45
3, 285382, Note_on_c, 1, 46, 0
3, 285384, Note_on_c, 1, 41, 45
3, 285406, Note_on_c, 1, 41, 0
3, 285408, Note_on_c, 1, 51, 45
3, 285430, Note_on_c, 1, 51, 0
3, 285432, Note_on_c, 1, 48, 45
3, 285454, Note_on_c, 1, 48, 0
3, 285456, Note_on_c, 1, 45, 45
3, 285478, Note_on_c, 1, 45, 0
3, 285480, Note_on_c, 1, 41, 45
3, 285502, Note_on_c, 1, 41, 0
3, 285504, Note_on_c, 1, 39, 45
3, 285526, Note_on_c, 1, 39, 0
3, 285528, Note_on_c, 1, 36, 45
3, 285550, Note_on_c, 1, 36, 0
3, 285552, Note_on_c, 1, 33, 45
3, 285574, Note_on_c, 1, 33, 0
3, 285576, Note_on_c, 1, 29, 45
3, 285598, Note_on_c, 1, 29, 0
3, 285600, Note_on_c, 1, 34, 45
3, 285632, Note_on_c, 1, 34, 0
3, 285744, Note_on_c, 1, 46, 45
3, 285760, Note_on_c, 1, 46, 0
3, 285760, Note_on_c, 1, 34, 45
3, 285776, Note_on_c, 1, 34, 0
3, 285776, Note_on_c, 1, 46, 45
3, 285790, Note_on_c, 1, 46, 0
3, 285792, Note_on_c, 1, 34, 63
3, 285886, Note_on_c, 1, 34, 0
3, 285936, Note_on_c, 1, 46, 45
3, 285952, Note_on_c, 1, 46, 0
3, 285952, Note_on_c, 1, 34, 45
3, 285968, Note_on_c, 1, 34, 0
3, 285968, Note_on_c, 1, 46, 45
3, 285982, Note_on_c, 1, 46, 0
3, 285984, Note_on_c, 1, 34, 63
3, 286078, Note_on_c, 1, 34, 0
3, 286128, Note_on_c, 1, 46, 45
3, 286144, Note_on_c, 1, 46, 0
3, 286144, Note_on_c, 1, 34, 45
3, 286160, Note_on_c, 1, 34, 0
3, 286160, Note_on_c, 1, 46, 45
3, 286174, Note_on_c, 1, 46, 0
3, 286176, Note_on_c, 1, 34, 63
3, 286270, Note_on_c, 1, 34, 0
3, 286896, Note_on_c, 1, 46, 45
3, 286912, Note_on_c, 1, 46, 0
3, 286912, Note_on_c, 1, 34, 45
3, 286928, Note_on_c, 1, 34, 0
3, 286928, Note_on_c, 1, 46, 45
3, 286942, Note_on_c, 1, 46, 0
3, 286944, Note_on_c, 1, 34, 63
3, 287038, Note_on_c, 1, 34, 0
3, 287088, Note_on_c, 1, 46, 45
3, 287104, Note_on_c, 1, 46, 0
3, 287104, Note_on_c, 1, 34, 45
3, 287120, Note_on_c, 1, 34, 0
3, 287120, Note_on_c, 1, 46, 45
3, 287134, Note_on_c, 1, 46, 0
3, 287136, Note_on_c, 1, 34, 63
3, 287230, Note_on_c, 1, 34, 0
3, 287280, Note_on_c, 1, 46, 45
3, 287296, Note_on_c, 1, 46, 0
3, 287296, Note_on_c, 1, 34, 45
3, 287312, Note_on_c, 1, 34, 0
3, 287312, Note_on_c, 1, 46, 45
3, 287326, Note_on_c, 1, 46, 0
3, 287328, Note_on_c, 1, 34, 63
3, 287422, Note_on_c, 1, 34, 0
3, 288048, Note_on_c, 1, 51, 45
3, 288064, Note_on_c, 1, 51, 0
3, 288064, Note_on_c, 1, 39, 45
3, 288080, Note_on_c, 1, 39, 0
3, 288080, Note_on_c, 1, 51, 45
3, 288094, Note_on_c, 1, 51, 0
3, 288096, Note_on_c, 1, 39, 63
3, 288190, Note_on_c, 1, 39, 0
3, 288240, Note_on_c, 1, 51, 45
3, 288256, Note_on_c, 1, 51, 0
3, 288256, Note_on_c, 1, 39, 45
3, 288272, Note_on_c, 1, 39, 0
3, 288272, Note_on_c, 1, 51, 45
3, 288286, Note_on_c, 1, 51, 0
3, 288288, Note_on_c, 1, 39, 63
3, 288382, Note_on_c, 1, 39, 0
3, 288432, Note_on_c, 1, 51, 45
3, 288448, Note_on_c, 1, 51, 0
3, 288448, Note_on_c, 1, 39, 45
3, 288464, Note_on_c, 1, 39, 0
3, 288464, Note_on_c, 1, 51, 45
3, 288478, Note_on_c, 1, 51, 0
3, 288480, Note_on_c, 1, 39, 63
3, 288574, Note_on_c, 1, 39, 0
3, 289200, Note_on_c, 1, 53, 45
3, 289216, Note_on_c, 1, 53, 0
3, 289216, Note_on_c, 1, 41, 45
3, 289232, Note_on_c, 1, 41, 0
3, 289232, Note_on_c, 1, 53, 45
3, 289246, Note_on_c, 1, 53, 0
3, 289248, Note_on_c, 1, 41, 63
3, 289342, Note_on_c, 1, 41, 0
3, 289392, Note_on_c, 1, 89, 45
3, 289408, Note_on_c, 1, 89, 0
3, 289408, Note_on_c, 1, 77, 45
3, 289424, Note_on_c, 1, 77, 0
3, 289424, Note_on_c, 1, 89, 45
3, 289438, Note_on_c, 1, 89, 0
3, 289440, Note_on_c, 1, 77, 63
3, 289534, Note_on_c, 1, 77, 0
3, 289632, Note_on_c, 1, 65, 45
3, 289776, Note_on_c, 1, 53, 45
3, 289792, Note_on_c, 1, 53, 0
3, 289792, Note_on_c, 1, 41, 45
3, 289808, Note_on_c, 1, 41, 0
3, 289808, Note_on_c, 1, 53, 45
3, 289822, Note_on_c, 1, 53, 0
3, 289824, Note_on_c, 1, 41, 63
3, 289888, Note_on_c, 1, 65, 0
3, 289918, Note_on_c, 1, 41, 0
3, 289968, Note_on_c, 1, 89, 45
3, 289984, Note_on_c, 1, 89, 0
3, 289984, Note_on_c, 1, 77, 45
3, 290000, Note_on_c, 1, 77, 0
3, 290000, Note_on_c, 1, 89, 45
3, 290014, Note_on_c, 1, 89, 0
3, 290016, Note_on_c, 1, 77, 63
3, 290110, Note_on_c, 1, 77, 0
3, 290352, Note_on_c, 1, 53, 45
3, 290368, Note_on_c, 1, 53, 0
3, 290368, Note_on_c, 1, 41, 45
3, 290384, Note_on_c, 1, 41, 0
3, 290384, Note_on_c, 1, 53, 45
3, 290398, Note_on_c, 1, 53, 0
3, 290400, Note_on_c, 1, 41, 63
3, 290494, Note_on_c, 1, 41, 0
3, 290544, Note_on_c, 1, 89, 45
3, 290560, Note_on_c, 1, 89, 0
3, 290560, Note_on_c, 1, 77, 45
3, 290576, Note_on_c, 1, 77, 0
3, 290576, Note_on_c, 1, 89, 45
3, 290590, Note_on_c, 1, 89, 0
3, 290592, Note_on_c, 1, 77, 63
3, 290686, Note_on_c, 1, 77, 0
3, 290928, Note_on_c, 1, 53, 45
3, 290944, Note_on_c, 1, 53, 0
3, 290944, Note_on_c, 1, 41, 45
3, 290960, Note_on_c, 1, 41, 0
3, 290960, Note_on_c, 1, 53, 45
3, 290974, Note_on_c, 1, 53, 0
3, 290976, Note_on_c, 1, 41, 63
3, 291070, Note_on_c, 1, 41, 0
3, 291120, Note_on_c, 1, 89, 45
3, 291134, Note_on_c, 1, 89, 0
3, 291136, Note_on_c, 1, 77, 45
3, 291150, Note_on_c, 1, 77, 0
3, 291152, Note_on_c, 1, 89, 45
3, 291166, Note_on_c, 1, 89, 0
3, 291168, Note_on_c, 1, 77, 63
3, 291262, Note_on_c, 1, 77, 0
3, 291312, Note_on_c, 1, 89, 45
3, 291326, Note_on_c, 1, 89, 0
3, 291328, Note_on_c, 1, 77, 45
3, 291342, Note_on_c, 1, 77, 0
3, 291344, Note_on_c, 1, 89, 45
3, 291358, Note_on_c, 1, 89, 0
3, 291504, Note_on_c, 1, 53, 45
3, 291528, Note_on_c, 1, 53, 0
3, 291528, Note_on_c, 1, 41, 45
3, 291550, Note_on_c, 1, 41, 0
3, 291552, Note_on_c, 1, 53, 63
3, 291646, Note_on_c, 1, 53, 0
3, 291696, Note_on_c, 1, 89, 45
3, 291720, Note_on_c, 1, 89, 0
3, 291720, Note_on_c, 1, 77, 45
3, 291742, Note_on_c, 1, 77, 0
3, 291744, Note_on_c, 1, 89, 63
3, 291838, Note_on_c, 1, 89, 0
3, 292080, Note_on_c, 1, 53, 45
3, 292104, Note_on_c, 1, 53, 0
3, 292104, Note_on_c, 1, 41, 45
3, 292126, Note_on_c, 1, 41, 0
3, 292128, Note_on_c, 1, 53, 63
3, 292222, Note_on_c, 1, 53, 0
3, 292272, Note_on_c, 1, 89, 45
3, 292296, Note_on_c, 1, 89, 0
3, 292296, Note_on_c, 1, 77, 45
3, 292318, Note_on_c, 1, 77, 0
3, 292320, Note_on_c, 1, 89, 63
3, 292414, Note_on_c, 1, 89, 0
3, 292656, Note_on_c, 1, 53, 45
3, 292680, Note_on_c, 1, 53, 0
3, 292680, Note_on_c, 1, 41, 45
3, 292702, Note_on_c, 1, 41, 0
3, 292704, Note_on_c, 1, 53, 63
3, 292798, Note_on_c, 1, 53, 0
3, 292848, Note_on_c, 1, 53, 45
3, 292872, Note_on_c, 1, 53, 0
3, 292872, Note_on_c, 1, 41, 45
3, 292894, Note_on_c, 1, 41, 0
3, 292896, Note_on_c, 1, 53, 63
3, 292990, Note_on_c, 1, 53, 0
3, 293040, Note_on_c, 1, 53, 45
3, 293064, Note_on_c, 1, 53, 0
3, 293064, Note_on_c, 1, 41, 45
3, 293086, Note_on_c, 1, 41, 0
3, 293088, Note_on_c, 1, 53, 63
3, 293182, Note_on_c, 1, 53, 0
3, 293184, Note_on_c, 1, 65, 45
3, 293280, Note_on_c, 1, 65, 0
3, 293280, Note_on_c, 1, 64, 45
3, 293376, Note_on_c, 1, 64, 0
3, 293376, Note_on_c, 1, 63, 45
3, 293376, Note_on_c, 1, 65, 45
3, 293472, Note_on_c, 1, 63, 0
3, 293472, Note_on_c, 1, 62, 45
3, 293536, Note_on_c, 1, 65, 0
3, 293568, Note_on_c, 1, 62, 0
3, 293568, Note_on_c, 1, 60, 45
3, 293568, Note_on_c, 1, 63, 45
3, 293664, Note_on_c, 1, 60, 0
3, 293664, Note_on_c, 1, 63, 0
3, 293664, Note_on_c, 1, 46, 45
3, 293696, Note_on_c, 1, 46, 0
3, 293760, Note_on_c, 1, 58, 45
3, 293856, Note_on_c, 1, 58, 0
3, 293856, Note_on_c, 1, 62, 45
3, 293856, Note_on_c, 1, 65, 45
3, 293952, Note_on_c, 1, 62, 0
3, 293952, Note_on_c, 1, 65, 0
3, 293952, Note_on_c, 1, 58, 45
3, 294048, Note_on_c, 1, 58, 0
3, 294048, Note_on_c, 1, 63, 45
3, 294048, Note_on_c, 1, 67, 45
3, 294144, Note_on_c, 1, 63, 0
3, 294144, Note_on_c, 1, 67, 0
3, 294144, Note_on_c, 1, 58, 45
3, 294240, Note_on_c, 1, 58, 0
3, 294240, Note_on_c, 1, 62, 45
3, 294240, Note_on_c, 1, 65, 45
3, 294336, Note_on_c, 1, 62, 0
3, 294336, Note_on_c, 1, 65, 0
3, 294336, Note_on_c, 1, 58, 45
3, 294432, Note_on_c, 1, 58, 0
3, 294432, Note_on_c, 1, 62, 45
3, 294432, Note_on_c, 1, 65, 45
3, 294528, Note_on_c, 1, 62, 0
3, 294528, Note_on_c, 1, 65, 0
3, 294528, Note_on_c, 1, 58, 45
3, 294624, Note_on_c, 1, 58, 0
3, 294624, Note_on_c, 1, 55, 45
3, 294720, Note_on_c, 1, 55, 0
3, 294720, Note_on_c, 1, 51, 45
3, 294816, Note_on_c, 1, 51, 0
3, 294816, Note_on_c, 1, 41, 45
3, 294848, Note_on_c, 1, 41, 0
3, 294912, Note_on_c, 1, 53, 45
3, 295006, Note_on_c, 1, 53, 0
3, 295008, Note_on_c, 1, 58, 45
3, 295008, Note_on_c, 1, 62, 45
3, 295102, Note_on_c, 1, 58, 0
3, 295102, Note_on_c, 1, 62, 0
3, 295104, Note_on_c, 1, 53, 45
3, 295198, Note_on_c, 1, 53, 0
3, 295200, Note_on_c, 1, 57, 45
3, 295200, Note_on_c, 1, 60, 45
3, 295294, Note_on_c, 1, 57, 0
3, 295294, Note_on_c, 1, 60, 0
3, 295296, Note_on_c, 1, 53, 45
3, 295390, Note_on_c, 1, 53, 0
3, 295392, Note_on_c, 1, 46, 45
3, 295392, Note_on_c, 1, 57, 45
3, 295486, Note_on_c, 1, 57, 0
3, 295488, Note_on_c, 1, 53, 45
3, 295582, Note_on_c, 1, 53, 0
3, 295584, Note_on_c, 1, 58, 45
3, 295678, Note_on_c, 1, 46, 0
3, 295678, Note_on_c, 1, 58, 0
3, 295680, Note_on_c, 1, 50, 45
3, 295774, Note_on_c, 1, 50, 0
3, 295776, Note_on_c, 1, 51, 45
3, 295870, Note_on_c, 1, 51, 0
3, 295872, Note_on_c, 1, 48, 45
3, 295966, Note_on_c, 1, 48, 0
3, 295968, Note_on_c, 1, 46, 45
3, 296000, Note_on_c, 1, 46, 0
3, 296064, Note_on_c, 1, 58, 45
3, 296160, Note_on_c, 1, 58, 0
3, 296160, Note_on_c, 1, 62, 45
3, 296160, Note_on_c, 1, 65, 45
3, 296256, Note_on_c, 1, 62, 0
3, 296256, Note_on_c, 1, 65, 0
3, 296256, Note_on_c, 1, 58, 45
3, 296352, Note_on_c, 1, 58, 0
3, 296352, Note_on_c, 1, 63, 45
3, 296352, Note_on_c, 1, 67, 45
3, 296448, Note_on_c, 1, 63, 0
3, 296448, Note_on_c, 1, 67, 0
3, 296448, Note_on_c, 1, 58, 45
3, 296544, Note_on_c, 1, 58, 0
3, 296544, Note_on_c, 1, 62, 45
3, 296544, Note_on_c, 1, 65, 45
3, 296640, Note_on_c, 1, 62, 0
3, 296640, Note_on_c, 1, 65, 0
3, 296640, Note_on_c, 1, 58, 45
3, 296736, Note_on_c, 1, 58, 0
3, 296736, Note_on_c, 1, 62, 45
3, 296736, Note_on_c, 1, 65, 45
3, 296832, Note_on_c, 1, 62, 0
3, 296832, Note_on_c, 1, 65, 0
3, 296832, Note_on_c, 1, 58, 45
3, 296928, Note_on_c, 1, 58, 0
3, 296928, Note_on_c, 1, 55, 45
3, 297024, Note_on_c, 1, 55, 0
3, 297024, Note_on_c, 1, 51, 45
3, 297120, Note_on_c, 1, 51, 0
3, 297120, Note_on_c, 1, 53, 45
3, 297504, Note_on_c, 1, 53, 0
3, 297504, Note_on_c, 1, 29, 45
3, 297504, Note_on_c, 1, 41, 45
3, 297696, Note_on_c, 1, 29, 0
3, 297696, Note_on_c, 1, 41, 0
3, 297696, Note_on_c, 1, 34, 45
3, 297790, Note_on_c, 1, 34, 0
3, 297840, Note_on_c, 1, 46, 45
3, 297856, Note_on_c, 1, 46, 0
3, 297856, Note_on_c, 1, 34, 45
3, 297872, Note_on_c, 1, 34, 0
3, 297872, Note_on_c, 1, 46, 45
3, 297886, Note_on_c, 1, 46, 0
3, 297888, Note_on_c, 1, 34, 63
3, 297982, Note_on_c, 1, 34, 0
3, 298032, Note_on_c, 1, 46, 45
3, 298048, Note_on_c, 1, 46, 0
3, 298048, Note_on_c, 1, 34, 45
3, 298064, Note_on_c, 1, 34, 0
3, 298064, Note_on_c, 1, 46, 45
3, 298078, Note_on_c, 1, 46, 0
3, 298080, Note_on_c, 1, 34, 63
3, 298174, Note_on_c, 1, 34, 0
3, 298416, Note_on_c, 1, 46, 45
3, 298432, Note_on_c, 1, 46, 0
3, 298432, Note_on_c, 1, 34, 45
3, 298448, Note_on_c, 1, 34, 0
3, 298448, Note_on_c, 1, 46, 45
3, 298462, Note_on_c, 1, 46, 0
3, 298464, Note_on_c, 1, 34, 63
3, 298558, Note_on_c, 1, 34, 0
3, 298608, Note_on_c, 1, 46, 45
3, 298624, Note_on_c, 1, 46, 0
3, 298624, Note_on_c, 1, 34, 45
3, 298640, Note_on_c, 1, 34, 0
3, 298640, Note_on_c, 1, 46, 45
3, 298654, Note_on_c, 1, 46, 0
3, 298656, Note_on_c, 1, 34, 63
3, 298750, Note_on_c, 1, 34, 0
3, 298992, Note_on_c, 1, 46, 45
3, 299008, Note_on_c, 1, 46, 0
3, 299008, Note_on_c, 1, 34, 45
3, 299024, Note_on_c, 1, 34, 0
3, 299024, Note_on_c, 1, 46, 45
3, 299038, Note_on_c, 1, 46, 0
3, 299040, Note_on_c, 1, 34, 63
3, 299134, Note_on_c, 1, 34, 0
3, 299184, Note_on_c, 1, 46, 45
3, 299200, Note_on_c, 1, 46, 0
3, 299200, Note_on_c, 1, 34, 45
3, 299216, Note_on_c, 1, 34, 0
3, 299216, Note_on_c, 1, 46, 45
3, 299230, Note_on_c, 1, 46, 0
3, 299232, Note_on_c, 1, 34, 63
3, 299326, Note_on_c, 1, 34, 0
3, 299568, Note_on_c, 1, 46, 45
3, 299584, Note_on_c, 1, 46, 0
3, 299584, Note_on_c, 1, 34, 45
3, 299600, Note_on_c, 1, 34, 0
3, 299600, Note_on_c, 1, 46, 45
3, 299614, Note_on_c, 1, 46, 0
3, 299616, Note_on_c, 1, 34, 63
3, 299710, Note_on_c, 1, 34, 0
3, 299760, Note_on_c, 1, 46, 45
3, 299776, Note_on_c, 1, 46, 0
3, 299776, Note_on_c, 1, 34, 45
3, 299792, Note_on_c, 1, 34, 0
3, 299792, Note_on_c, 1, 46, 45
3, 299806, Note_on_c, 1, 46, 0
3, 299808, Note_on_c, 1, 34, 63
3, 299902, Note_on_c, 1, 34, 0
3, 299952, Note_on_c, 1, 46, 45
3, 299968, Note_on_c, 1, 46, 0
3, 299968, Note_on_c, 1, 34, 45
3, 299984, Note_on_c, 1, 34, 0
3, 299984, Note_on_c, 1, 46, 45
3, 299998, Note_on_c, 1, 46, 0
3, 300000, Note_on_c, 1, 34, 63
3, 300094, Note_on_c, 1, 34, 0
3, 300144, Note_on_c, 1, 56, 45
3, 300160, Note_on_c, 1, 56, 0
3, 300160, Note_on_c, 1, 46, 45
3, 300176, Note_on_c, 1, 46, 0
3, 300176, Note_on_c, 1, 56, 45
3, 300190, Note_on_c, 1, 56, 0
3, 300192, Note_on_c, 1, 46, 63
3, 300286, Note_on_c, 1, 46, 0
3, 300336, Note_on_c, 1, 56, 45
3, 300352, Note_on_c, 1, 56, 0
3, 300352, Note_on_c, 1, 46, 45
3, 300368, Note_on_c, 1, 46, 0
3, 300368, Note_on_c, 1, 56, 45
3, 300382, Note_on_c, 1, 56, 0
3, 300384, Note_on_c, 1, 46, 63
3, 300478, Note_on_c, 1, 46, 0
3, 300720, Note_on_c, 1, 46, 45
3, 300736, Note_on_c, 1, 46, 0
3, 300736, Note_on_c, 1, 34, 45
3, 300752, Note_on_c, 1, 34, 0
3, 300752, Note_on_c, 1, 46, 45
3, 300766, Note_on_c, 1, 46, 0
3, 300768, Note_on_c, 1, 34, 63
3, 300862, Note_on_c, 1, 34, 0
3, 300912, Note_on_c, 1, 46, 45
3, 300928, Note_on_c, 1, 46, 0
3, 300928, Note_on_c, 1, 34, 45
3, 300944, Note_on_c, 1, 34, 0
3, 300944, Note_on_c, 1, 46, 45
3, 300958, Note_on_c, 1, 46, 0
3, 300960, Note_on_c, 1, 34, 63
3, 301054, Note_on_c, 1, 34, 0
3, 301296, Note_on_c, 1, 58, 45
3, 301312, Note_on_c, 1, 58, 0
3, 301312, Note_on_c, 1, 46, 45
3, 301328, Note_on_c, 1, 46, 0
3, 301328, Note_on_c, 1, 58, 45
3, 301342, Note_on_c, 1, 58, 0
3, 301344, Note_on_c, 1, 46, 63
3, 301438, Note_on_c, 1, 46, 0
3, 301488, Note_on_c, 1, 58, 45
3, 301504, Note_on_c, 1, 58, 0
3, 301504, Note_on_c, 1, 46, 45
3, 301520, Note_on_c, 1, 46, 0
3, 301520, Note_on_c, 1, 58, 45
3, 301534, Note_on_c, 1, 58, 0
3, 301536, Note_on_c, 1, 46, 63
3, 301630, Note_on_c, 1, 46, 0
3, 301872, Note_on_c, 1, 46, 45
3, 301888, Note_on_c, 1, 46, 0
3, 301888, Note_on_c, 1, 34, 45
3, 301904, Note_on_c, 1, 34, 0
3, 301904, Note_on_c, 1, 46, 45
3, 301918, Note_on_c, 1, 46, 0
3, 301920, Note_on_c, 1, 34, 63
3, 302014, Note_on_c, 1, 34, 0
3, 302064, Note_on_c, 1, 46, 45
3, 302080, Note_on_c, 1, 46, 0
3, 302080, Note_on_c, 1, 34, 45
3, 302096, Note_on_c, 1, 34, 0
3, 302096, Note_on_c, 1, 46, 45
3, 302110, Note_on_c, 1, 46, 0
3, 302112, Note_on_c, 1, 34, 63
3, 302206, Note_on_c, 1, 34, 0
3, 302448, Note_on_c, 1, 58, 45
3, 302464, Note_on_c, 1, 58, 0
3, 302464, Note_on_c, 1, 46, 45
3, 302480, Note_on_c, 1, 46, 0
3, 302480, Note_on_c, 1, 58, 45
3, 302494, Note_on_c, 1, 58, 0
3, 302496, Note_on_c, 1, 46, 63
3, 302590, Note_on_c, 1, 46, 0
3, 302640, Note_on_c, 1, 58, 45
3, 302656, Note_on_c, 1, 58, 0
3, 302656, Note_on_c, 1, 46, 45
3, 302672, Note_on_c, 1, 46, 0
3, 302672, Note_on_c, 1, 58, 45
3, 302686, Note_on_c, 1, 58, 0
3, 302688, Note_on_c, 1, 46, 63
3, 302782, Note_on_c, 1, 46, 0
3, 302832, Note_on_c, 1, 58, 45
3, 302848, Note_on_c, 1, 58, 0
3, 302848, Note_on_c, 1, 46, 45
3, 302864, Note_on_c, 1, 46, 0
3, 302864, Note_on_c, 1, 58, 45
3, 302878, Note_on_c, 1, 58, 0
3, 302880, Note_on_c, 1, 46, 45
3, 302880, Note_on_c, 1, 50, 45
3, 303046, Note_on_c, 1, 50, 0
3, 303048, Note_on_c, 1, 48, 45
3, 303048, Note_on_c, 1, 51, 45
3, 303070, Note_on_c, 1, 48, 0
3, 303070, Note_on_c, 1, 51, 0
3, 303072, Note_on_c, 1, 50, 45
3, 303072, Note_on_c, 1, 53, 45
3, 303232, Note_on_c, 1, 46, 0
3, 303232, Note_on_c, 1, 50, 0
3, 303232, Note_on_c, 1, 53, 0
3, 303264, Note_on_c, 1, 48, 45
3, 303264, Note_on_c, 1, 51, 45
3, 303424, Note_on_c, 1, 48, 0
3, 303424, Note_on_c, 1, 51, 0
3, 303456, Note_on_c, 1, 46, 45
3, 303456, Note_on_c, 1, 50, 45
3, 303550, Note_on_c, 1, 46, 0
3, 303550, Note_on_c, 1, 50, 0
3, 303864, Note_on_c, 1, 53, 45
3, 303880, Note_on_c, 1, 53, 0
3, 303888, Note_on_c, 1, 52, 45
3, 303904, Note_on_c, 1, 52, 0
3, 303912, Note_on_c, 1, 53, 45
3, 303928, Note_on_c, 1, 53, 0
3, 303936, Note_on_c, 1, 55, 45
3, 303952, Note_on_c, 1, 55, 0
3, 303960, Note_on_c, 1, 57, 45
3, 303976, Note_on_c, 1, 57, 0
3, 303984, Note_on_c, 1, 58, 45
3, 304000, Note_on_c, 1, 58, 0
3, 304008, Note_on_c, 1, 60, 45
3, 304024, Note_on_c, 1, 60, 0
3, 304032, Note_on_c, 1, 58, 45
3, 304032, Note_on_c, 1, 62, 45
3, 304198, Note_on_c, 1, 58, 0
3, 304198, Note_on_c, 1, 62, 0
3, 304200, Note_on_c, 1, 60, 45
3, 304200, Note_on_c, 1, 63, 45
3, 304222, Note_on_c, 1, 60, 0
3, 304222, Note_on_c, 1, 63, 0
3, 304224, Note_on_c, 1, 62, 45
3, 304224, Note_on_c, 1, 65, 45
3, 304384, Note_on_c, 1, 62, 0
3, 304384, Note_on_c, 1, 65, 0
3, 304416, Note_on_c, 1, 34, 45
3, 304576, Note_on_c, 1, 34, 0
3, 304608, Note_on_c, 1, 33, 45
3, 305136, Note_on_c, 1, 33, 0
3, 305568, Note_on_c, 1, 58, 45
3, 305568, Note_on_c, 1, 60, 45
3, 305568, Note_on_c, 1, 63, 45
3, 305728, Note_on_c, 1, 58, 0
3, 305728, Note_on_c, 1, 60, 0
3, 305728, Note_on_c, 1, 63, 0
3, 305760, Note_on_c, 1, 57, 45
3, 305760, Note_on_c, 1, 60, 45
3, 305760, Note_on_c, 1, 63, 45
3, 306288, Note_on_c, 1, 57, 0
3, 306288, Note_on_c, 1, 60, 0
3, 306288, Note_on_c, 1, 63, 0
3, 306720, Note_on_c, 1, 54, 45
3, 306720, Note_on_c, 1, 60, 45
3, 306720, Note_on_c, 1, 63, 45
3, 306912, Note_on_c, 1, 54, 0
3, 306912, Note_on_c, 1, 60, 0
3, 306912, Note_on_c, 1, 63, 0
3, 306912, Note_on_c, 1, 55, 45
3, 306912, Note_on_c, 1, 58, 45
3, 306912, Note_on_c, 1, 62, 45
3, 307006, Note_on_c, 1, 55, 0
3, 307006, Note_on_c, 1, 58, 0
3, 307006, Note_on_c, 1, 62, 0
3, 307200, Note_on_c, 1, 52, 45
3, 307200, Note_on_c, 1, 58, 45
3, 307200, Note_on_c, 1, 61, 45
3, 307232, Note_on_c, 1, 52, 0
3, 307232, Note_on_c, 1, 58, 0
3, 307232, Note_on_c, 1, 61, 0
3, 307584, Note_on_c, 1, 53, 45
3, 307584, Note_on_c, 1, 58, 45
3, 307584, Note_on_c, 1, 62, 45
3, 307678, Note_on_c, 1, 53, 0
3, 307678, Note_on_c, 1, 58, 0
3, 307678, Note_on_c, 1, 62, 0
3, 307776, Note_on_c, 1, 29, 45
3, 307776, Note_on_c, 1, 41, 45
3, 307808, Note_on_c, 1, 29, 0
3, 307808, Note_on_c, 1, 41, 0
3, 307968, Note_on_c, 1, 41, 45
3, 307968, Note_on_c, 1, 53, 45
3, 308000, Note_on_c, 1, 41, 0
3, 308000, Note_on_c, 1, 53, 0
3, 308064, Note_on_c, 1, 34, 45
3, 308064, Note_on_c, 1, 46, 45
3, 308592, Note_on_c, 1, 34, 0
3, 308592, Note_on_c, 1, 46, 0
3, 308640, Note_on_c, 1, 34, 45
3, 308640, Note_on_c, 1, 46, 45
3, 309168, Note_on_c, 1, 34, 0
3, 309168, Note_on_c, 1, 46, 0
3, 309216, Note_on_c, 1, 46, 45
3, 309504, Note_on_c, 1, 60, 45
3, 309598, Note_on_c, 1, 60, 0
3, 309600, Note_on_c, 1, 58, 45
3, 309694, Note_on_c, 1, 58, 0
3, 309696, Note_on_c, 1, 57, 45
3, 309790, Note_on_c, 1, 46, 0
3, 309790, Note_on_c, 1, 57, 0
3, 309792, Note_on_c, 1, 46, 45
3, 309792, Note_on_c, 1, 55, 45
3, 309886, Note_on_c, 1, 55, 0
3, 309888, Note_on_c, 1, 58, 45
3, 309982, Note_on_c, 1, 58, 0
3, 309984, Note_on_c, 1, 51, 45
3, 310078, Note_on_c, 1, 51, 0
3, 310080, Note_on_c, 1, 55, 45
3, 310174, Note_on_c, 1, 55, 0
3, 310176, Note_on_c, 1, 48, 45
3, 310270, Note_on_c, 1, 48, 0
3, 310272, Note_on_c, 1, 53, 45
3, 310318, Note_on_c, 1, 53, 0
3, 310320, Note_on_c, 1, 46, 0
3, 310320, Note_on_c, 1, 51, 45
3, 310366, Note_on_c, 1, 51, 0
3, 310368, Note_on_c, 1, 46, 45
3, 310368, Note_on_c, 1, 50, 45
3, 310462, Note_on_c, 1, 50, 0
3, 310464, Note_on_c, 1, 53, 45
3, 310512, Note_on_c, 1, 53, 0
3, 310512, Note_on_c, 1, 51, 45
3, 310528, Note_on_c, 1, 46, 0
3, 310560, Note_on_c, 1, 51, 0
3, 310560, Note_on_c, 1, 46, 45
3, 310560, Note_on_c, 1, 50, 45
3, 310654, Note_on_c, 1, 50, 0
3, 310656, Note_on_c, 1, 53, 45
3, 310704, Note_on_c, 1, 53, 0
3, 310704, Note_on_c, 1, 51, 45
3, 310720, Note_on_c, 1, 46, 0
3, 310752, Note_on_c, 1, 51, 0
3, 310752, Note_on_c, 1, 46, 45
3, 310752, Note_on_c, 1, 50, 45
3, 310846, Note_on_c, 1, 50, 0
3, 310848, Note_on_c, 1, 53, 45
3, 310896, Note_on_c, 1, 53, 0
3, 310896, Note_on_c, 1, 51, 45
3, 310912, Note_on_c, 1, 46, 0
3, 310944, Note_on_c, 1, 51, 0
3, 310944, Note_on_c, 1, 46, 45
3, 310944, Note_on_c, 1, 50, 45
3, 311038, Note_on_c, 1, 46, 0
3, 311038, Note_on_c, 1, 50, 0
3, 311424, Note_on_c, 1, 34, 45
3, 311518, Note_on_c, 1, 34, 0
3, 313968, Note_on_c, 1, 50, 45
3, 314014, Note_on_c, 1, 50, 0
3, 314016, Note_on_c, 1, 57, 45
3, 314064, Note_on_c, 1, 62, 45
3, 314112, Note_on_c, 1, 62, 0
3, 314112, Note_on_c, 1, 65, 45
3, 314160, Note_on_c, 1, 57, 0
3, 314160, Note_on_c, 1, 65, 0
3, 314160, Note_on_c, 1, 57, 45
3, 314254, Note_on_c, 1, 57, 0
3, 314256, Note_on_c, 1, 50, 45
3, 314302, Note_on_c, 1, 50, 0
3, 314304, Note_on_c, 1, 57, 45
3, 314352, Note_on_c, 1, 62, 45
3, 314400, Note_on_c, 1, 62, 0
3, 314400, Note_on_c, 1, 65, 45
3, 314448, Note_on_c, 1, 57, 0
3, 314448, Note_on_c, 1, 65, 0
3, 314448, Note_on_c, 1, 57, 45
3, 314542, Note_on_c, 1, 57, 0
3, 314544, Note_on_c, 1, 50, 45
3, 314590, Note_on_c, 1, 50, 0
3, 314592, Note_on_c, 1, 57, 45
3, 314640, Note_on_c, 1, 62, 45
3, 314688, Note_on_c, 1, 62, 0
3, 314688, Note_on_c, 1, 65, 45
3, 314736, Note_on_c, 1, 57, 0
3, 314736, Note_on_c, 1, 65, 0
3, 314736, Note_on_c, 1, 57, 45
3, 314830, Note_on_c, 1, 57, 0
3, 314832, Note_on_c, 1, 45, 45
3, 314878, Note_on_c, 1, 45, 0
3, 314880, Note_on_c, 1, 57, 45
3, 314928, Note_on_c, 1, 61, 45
3, 314976, Note_on_c, 1, 61, 0
3, 314976, Note_on_c, 1, 64, 45
3, 315024, Note_on_c, 1, 57, 0
3, 315024, Note_on_c, 1, 64, 0
3, 315024, Note_on_c, 1, 57, 45
3, 315118, Note_on_c, 1, 57, 0
3, 315120, Note_on_c, 1, 45, 45
3, 315166, Note_on_c, 1, 45, 0
3, 315168, Note_on_c, 1, 57, 45
3, 315216, Note_on_c, 1, 61, 45
3, 315264, Note_on_c, 1, 61, 0
3, 315264, Note_on_c, 1, 64, 45
3, 315312, Note_on_c, 1, 57, 0
3, 315312, Note_on_c, 1, 64, 0
3, 315312, Note_on_c, 1, 57, 45
3, 315406, Note_on_c, 1, 57, 0
3, 315408, Note_on_c, 1, 45, 45
3, 315454, Note_on_c, 1, 45, 0
3, 315456, Note_on_c, 1, 57, 45
3, 315504, Note_on_c, 1, 61, 45
3, 315552, Note_on_c, 1, 61, 0
3, 315552, Note_on_c, 1, 64, 45
3, 315600, Note_on_c, 1, 57, 0
3, 315600, Note_on_c, 1, 64, 0
3, 315600, Note_on_c, 1, 57, 45
3, 315694, Note_on_c, 1, 57, 0
3, 315696, Note_on_c, 1, 45, 45
3, 315742, Note_on_c, 1, 45, 0
3, 315744, Note_on_c, 1, 57, 45
3, 315792, Note_on_c, 1, 61, 45
3, 315840, Note_on_c, 1, 61, 0
3, 315840, Note_on_c, 1, 64, 45
3, 315888, Note_on_c, 1, 57, 0
3, 315888, Note_on_c, 1, 64, 0
3, 315888, Note_on_c, 1, 57, 45
3, 315982, Note_on_c, 1, 57, 0
3, 315984, Note_on_c, 1, 50, 45
3, 316030, Note_on_c, 1, 50, 0
3, 316032, Note_on_c, 1, 57, 45
3, 316080, Note_on_c, 1, 62, 45
3, 316128, Note_on_c, 1, 62, 0
3, 316128, Note_on_c, 1, 65, 45
3, 316176, Note_on_c, 1, 57, 0
3, 316176, Note_on_c, 1, 65, 0
3, 316176, Note_on_c, 1, 57, 45
3, 316270, Note_on_c, 1, 57, 0
3, 316272, Note_on_c, 1, 55, 45
3, 316320, Note_on_c, 1, 62, 45
3, 316368, Note_on_c, 1, 67, 45
3, 316528, Note_on_c, 1, 55, 0
3, 316528, Note_on_c, 1, 62, 0
3, 316528, Note_on_c, 1, 67, 0
3, 316560, Note_on_c, 1, 51, 65
3, 316608, Note_on_c, 1, 58, 70
3, 316656, Note_on_c, 1, 63, 75
3, 316816, Note_on_c, 1, 51, 0
3, 316816, Note_on_c, 1, 58, 0
3, 316816, Note_on_c, 1, 63, 0
3, 316848, Note_on_c, 1, 49, 75
3, 316896, Note_on_c, 1, 57, 75
3, 316944, Note_on_c, 1, 61, 75
3, 317104, Note_on_c, 1, 49, 0
3, 317104, Note_on_c, 1, 57, 0
3, 317104, Note_on_c, 1, 61, 0
3, 317136, Note_on_c, 1, 50, 75
3, 317184, Note_on_c, 1, 57, 75
3, 317232, Note_on_c, 1, 62, 75
3, 317392, Note_on_c, 1, 50, 0
3, 317392, Note_on_c, 1, 57, 0
3, 317392, Note_on_c, 1, 62, 0
3, 317424, Note_on_c, 1, 45, 45
3, 317472, Note_on_c, 1, 53, 45
3, 317520, Note_on_c, 1, 57, 45
3, 317680, Note_on_c, 1, 45, 0
3, 317680, Note_on_c, 1, 53, 0
3, 317680, Note_on_c, 1, 57, 0
3, 317712, Note_on_c, 1, 45, 45
3, 317760, Note_on_c, 1, 52, 45
3, 317808, Note_on_c, 1, 55, 45
3, 317856, Note_on_c, 1, 57, 45
3, 317998, Note_on_c, 1, 45, 0
3, 317998, Note_on_c, 1, 52, 0
3, 317998, Note_on_c, 1, 55, 0
3, 317998, Note_on_c, 1, 57, 0
3, 318000, Note_on_c, 1, 38, 92
3, 318046, Note_on_c, 1, 38, 0
3, 318048, Note_on_c, 1, 50, 92
3, 318094, Note_on_c, 1, 50, 0
3, 318096, Note_on_c, 1, 53, 92
3, 318142, Note_on_c, 1, 53, 0
3, 318144, Note_on_c, 1, 57, 92
3, 318190, Note_on_c, 1, 57, 0
3, 318192, Note_on_c, 1, 62, 92
3, 318286, Note_on_c, 1, 62, 0
3, 318576, Note_on_c, 1, 55, 45
3, 318624, Note_on_c, 1, 62, 45
3, 318672, Note_on_c, 1, 67, 45
3, 318832, Note_on_c, 1, 55, 0
3, 318832, Note_on_c, 1, 62, 0
3, 318832, Note_on_c, 1, 67, 0
3, 318864, Note_on_c, 1, 51, 75
3, 318912, Note_on_c, 1, 58, 75
3, 318960, Note_on_c, 1, 63, 75
3, 319120, Note_on_c, 1, 51, 0
3, 319120, Note_on_c, 1, 58, 0
3, 319120, Note_on_c, 1, 63, 0
3, 319152, Note_on_c, 1, 49, 75
3, 319200, Note_on_c, 1, 57, 75
3, 319248, Note_on_c, 1, 61, 75
3, 319408, Note_on_c, 1, 49, 0
3, 319408, Note_on_c, 1, 57, 0
3, 319408, Note_on_c, 1, 61, 0
3, 319440, Note_on_c, 1, 50, 75
3, 319488, Note_on_c, 1, 57, 75
3, 319536, Note_on_c, 1, 62, 75
3, 319696, Note_on_c, 1, 50, 0
3, 319696, Note_on_c, 1, 57, 0
3, 319696, Note_on_c, 1, 62, 0
3, 319728, Note_on_c, 1, 45, 45
3, 319776, Note_on_c, 1, 53, 45
3, 319824, Note_on_c, 1, 57, 45
3, 319984, Note_on_c, 1, 45, 0
3, 319984, Note_on_c, 1, 53, 0
3, 319984, Note_on_c, 1, 57, 0
3, 320016, Note_on_c, 1, 45, 45
3, 320064, Note_on_c, 1, 52, 45
3, 320112, Note_on_c, 1, 55, 45
3, 320160, Note_on_c, 1, 57, 45
3, 320302, Note_on_c, 1, 45, 0
3, 320302, Note_on_c, 1, 52, 0
3, 320302, Note_on_c, 1, 55, 0
3, 320302, Note_on_c, 1, 57, 0
3, 320304, Note_on_c, 1, 50, 92
3, 320350, Note_on_c, 1, 50, 0
3, 320352, Note_on_c, 1, 53, 92
3, 320398, Note_on_c, 1, 53, 0
3, 320400, Note_on_c, 1, 57, 92
3, 320446, Note_on_c, 1, 57, 0
3, 320448, Note_on_c, 1, 62, 92
3, 320494, Note_on_c, 1, 62, 0
3, 320880, Note_on_c, 1, 45, 45
3, 320928, Note_on_c, 1, 53, 45
3, 320976, Note_on_c, 1, 57, 45
3, 321136, Note_on_c, 1, 45, 0
3, 321136, Note_on_c, 1, 53, 0
3, 321136, Note_on_c, 1, 57, 0
3, 321168, Note_on_c, 1, 45, 45
3, 321214, Note_on_c, 1, 45, 0
3, 321216, Note_on_c, 1, 45, 45
3, 321216, Note_on_c, 1, 52, 45
3, 321264, Note_on_c, 1, 55, 45
3, 321312, Note_on_c, 1, 57, 45
3, 321454, Note_on_c, 1, 45, 0
3, 321454, Note_on_c, 1, 52, 0
3, 321454, Note_on_c, 1, 55, 0
3, 321454, Note_on_c, 1, 57, 0
3, 321456, Note_on_c, 1, 50, 92
3, 321502, Note_on_c, 1, 50, 0
3, 321504, Note_on_c, 1, 53, 92
3, 321550, Note_on_c, 1, 53, 0
3, 321552, Note_on_c, 1, 57, 92
3, 321598, Note_on_c, 1, 57, 0
3, 321600, Note_on_c, 1, 62, 92
3, 321646, Note_on_c, 1, 62, 0
3, 322032, Note_on_c, 1, 45, 45
3, 322080, Note_on_c, 1, 53, 45
3, 322128, Note_on_c, 1, 57, 45
3, 322288, Note_on_c, 1, 45, 0
3, 322288, Note_on_c, 1, 53, 0
3, 322288, Note_on_c, 1, 57, 0
3, 322320, Note_on_c, 1, 45, 45
3, 322368, Note_on_c, 1, 45, 0
3, 322368, Note_on_c, 1, 52, 45
3, 322416, Note_on_c, 1, 52, 0
3, 322416, Note_on_c, 1, 55, 45
3, 322462, Note_on_c, 1, 55, 0
3, 322464, Note_on_c, 1, 33, 92
3, 322512, Note_on_c, 1, 33, 0
3, 322512, Note_on_c, 1, 41, 92
3, 322560, Note_on_c, 1, 41, 0
3, 322560, Note_on_c, 1, 40, 92
3, 322608, Note_on_c, 1, 40, 0
3, 322608, Note_on_c, 1, 38, 92
3, 322640, Note_on_c, 1, 38, 0
3, 322752, Note_on_c, 1, 33, 92
3, 322800, Note_on_c, 1, 33, 0
3, 322800, Note_on_c, 1, 41, 92
3, 322848, Note_on_c, 1, 41, 0
3, 322848, Note_on_c, 1, 40, 92
3, 322896, Note_on_c, 1, 40, 0
3, 322896, Note_on_c, 1, 38, 92
3, 322928, Note_on_c, 1, 38, 0
3, 323040, Note_on_c, 1, 33, 92
3, 323088, Note_on_c, 1, 33, 0
3, 323088, Note_on_c, 1, 41, 92
3, 323136, Note_on_c, 1, 41, 0
3, 323136, Note_on_c, 1, 40, 92
3, 323184, Note_on_c, 1, 40, 0
3, 323184, Note_on_c, 1, 38, 92
3, 323216, Note_on_c, 1, 38, 0
3, 323328, Note_on_c, 1, 33, 92
3, 323374, Note_on_c, 1, 33, 0
3, 323376, Note_on_c, 1, 41, 92
3, 323422, Note_on_c, 1, 41, 0
3, 323424, Note_on_c, 1, 38, 92
3, 323470, Note_on_c, 1, 38, 0
3, 323472, Note_on_c, 1, 31, 127
3, 323472, Note_on_c, 1, 43, 127
3, 323728, Note_on_c, 1, 31, 0
3, 323728, Note_on_c, 1, 43, 0
3, 323760, Note_on_c, 1, 36, 127
3, 323760, Note_on_c, 1, 48, 127
3, 323854, Note_on_c, 1, 36, 0
3, 323854, Note_on_c, 1, 48, 0
3, 323856, Note_on_c, 1, 52, 127
3, 323950, Note_on_c, 1, 52, 0
3, 323952, Note_on_c, 1, 55, 127
3, 324046, Note_on_c, 1, 55, 0
3, 324048, Note_on_c, 1, 60, 127
3, 324142, Note_on_c, 1, 60, 0
3, 324144, Note_on_c, 1, 64, 127
3, 324238, Note_on_c, 1, 64, 0
3, 324240, Note_on_c, 1, 60, 127
3, 324334, Note_on_c, 1, 60, 0
3, 324336, Note_on_c, 1, 55, 127
3, 324430, Note_on_c, 1, 55, 0
3, 324432, Note_on_c, 1, 52, 127
3, 324526, Note_on_c, 1, 52, 0
3, 324528, Note_on_c, 1, 55, 127
3, 324622, Note_on_c, 1, 55, 0
3, 324624, Note_on_c, 1, 52, 127
3, 324718, Note_on_c, 1, 52, 0
3, 324720, Note_on_c, 1, 48, 92
3, 324766, Note_on_c, 1, 48, 0
3, 324768, Note_on_c, 1, 31, 92
3, 324816, Note_on_c, 1, 31, 0
3, 324816, Note_on_c, 1, 40, 92
3, 324864, Note_on_c, 1, 40, 0
3, 324864, Note_on_c, 1, 38, 92
3, 324912, Note_on_c, 1, 38, 0
3, 324912, Note_on_c, 1, 36, 92
3, 324944, Note_on_c, 1, 36, 0
3, 325056, Note_on_c, 1, 31, 92
3, 325104, Note_on_c, 1, 31, 0
3, 325104, Note_on_c, 1, 40, 92
3, 325152, Note_on_c, 1, 40, 0
3, 325152, Note_on_c, 1, 38, 92
3, 325200, Note_on_c, 1, 38, 0
3, 325200, Note_on_c, 1, 36, 92
3, 325232, Note_on_c, 1, 36, 0
3, 325344, Note_on_c, 1, 31, 92
3, 325392, Note_on_c, 1, 31, 0
3, 325392, Note_on_c, 1, 40, 92
3, 325440, Note_on_c, 1, 40, 0
3, 325440, Note_on_c, 1, 38, 92
3, 325488, Note_on_c, 1, 38, 0
3, 325488, Note_on_c, 1, 36, 92
3, 325520, Note_on_c, 1, 36, 0
3, 325632, Note_on_c, 1, 31, 92
3, 325680, Note_on_c, 1, 31, 0
3, 325680, Note_on_c, 1, 40, 92
3, 325728, Note_on_c, 1, 40, 0
3, 325728, Note_on_c, 1, 36, 92
3, 325774, Note_on_c, 1, 36, 0
3, 325776, Note_on_c, 1, 29, 127
3, 325776, Note_on_c, 1, 41, 127
3, 326032, Note_on_c, 1, 29, 0
3, 326032, Note_on_c, 1, 41, 0
3, 326064, Note_on_c, 1, 28, 92
3, 326064, Note_on_c, 1, 40, 92
3, 326158, Note_on_c, 1, 28, 0
3, 326158, Note_on_c, 1, 40, 0
3, 326160, Note_on_c, 1, 59, 92
3, 326160, Note_on_c, 1, 62, 92
3, 326206, Note_on_c, 1, 59, 0
3, 326206, Note_on_c, 1, 62, 0
3, 326208, Note_on_c, 1, 64, 92
3, 326254, Note_on_c, 1, 64, 0
3, 326256, Note_on_c, 1, 56, 92
3, 326302, Note_on_c, 1, 56, 0
3, 326304, Note_on_c, 1, 64, 92
3, 326350, Note_on_c, 1, 64, 0
3, 326352, Note_on_c, 1, 59, 92
3, 326352, Note_on_c, 1, 62, 92
3, 326398, Note_on_c, 1, 59, 0
3, 326398, Note_on_c, 1, 62, 0
3, 326400, Note_on_c, 1, 64, 92
3, 326446, Note_on_c, 1, 64, 0
3, 326448, Note_on_c, 1, 56, 92
3, 326494, Note_on_c, 1, 56, 0
3, 326496, Note_on_c, 1, 64, 92
3, 326542, Note_on_c, 1, 64, 0
3, 326544, Note_on_c, 1, 59, 92
3, 326544, Note_on_c, 1, 62, 92
3, 326590, Note_on_c, 1, 59, 0
3, 326590, Note_on_c, 1, 62, 0
3, 326592, Note_on_c, 1, 64, 92
3, 326638, Note_on_c, 1, 64, 0
3, 326640, Note_on_c, 1, 56, 92
3, 326686, Note_on_c, 1, 56, 0
3, 326688, Note_on_c, 1, 64, 92
3, 326734, Note_on_c, 1, 64, 0
3, 326736, Note_on_c, 1, 59, 92
3, 326736, Note_on_c, 1, 62, 92
3, 326782, Note_on_c, 1, 59, 0
3, 326782, Note_on_c, 1, 62, 0
3, 326784, Note_on_c, 1, 64, 92
3, 326830, Note_on_c, 1, 64, 0
3, 326832, Note_on_c, 1, 56, 92
3, 326878, Note_on_c, 1, 56, 0
3, 326880, Note_on_c, 1, 64, 92
3, 326926, Note_on_c, 1, 64, 0
3, 326928, Note_on_c, 1, 59, 92
3, 326928, Note_on_c, 1, 62, 92
3, 326974, Note_on_c, 1, 59, 0
3, 326974, Note_on_c, 1, 62, 0
3, 326976, Note_on_c, 1, 64, 92
3, 327022, Note_on_c, 1, 64, 0
3, 327024, Note_on_c, 1, 56, 92
3, 327070, Note_on_c, 1, 56, 0
3, 327072, Note_on_c, 1, 64, 92
3, 327118, Note_on_c, 1, 64, 0
3, 327120, Note_on_c, 1, 59, 92
3, 327120, Note_on_c, 1, 62, 92
3, 327166, Note_on_c, 1, 59, 0
3, 327166, Note_on_c, 1, 62, 0
3, 327168, Note_on_c, 1, 64, 92
3, 327214, Note_on_c, 1, 64, 0
3, 327216, Note_on_c, 1, 56, 92
3, 327262, Note_on_c, 1, 56, 0
3, 327264, Note_on_c, 1, 64, 92
3, 327310, Note_on_c, 1, 64, 0
3, 327312, Note_on_c, 1, 59, 127
3, 327312, Note_on_c, 1, 62, 127
3, 327358, Note_on_c, 1, 59, 0
3, 327358, Note_on_c, 1, 62, 0
3, 327360, Note_on_c, 1, 64, 92
3, 327406, Note_on_c, 1, 64, 0
3, 327408, Note_on_c, 1, 56, 92
3, 327454, Note_on_c, 1, 56, 0
3, 327456, Note_on_c, 1, 64, 92
3, 327502, Note_on_c, 1, 64, 0
3, 327504, Note_on_c, 1, 59, 92
3, 327504, Note_on_c, 1, 62, 92
3, 327550, Note_on_c, 1, 59, 0
3, 327550, Note_on_c, 1, 62, 0
3, 327552, Note_on_c, 1, 64, 92
3, 327598, Note_on_c, 1, 64, 0
3, 327600, Note_on_c, 1, 56, 92
3, 327646, Note_on_c, 1, 56, 0
3, 327648, Note_on_c, 1, 64, 91
3, 327694, Note_on_c, 1, 64, 0
3, 327696, Note_on_c, 1, 59, 90
3, 327696, Note_on_c, 1, 62, 90
3, 327742, Note_on_c, 1, 59, 0
3, 327742, Note_on_c, 1, 62, 0
3, 327744, Note_on_c, 1, 64, 89
3, 327790, Note_on_c, 1, 64, 0
3, 327792, Note_on_c, 1, 57, 87
3, 327838, Note_on_c, 1, 57, 0
3, 327840, Note_on_c, 1, 64, 85
3, 327886, Note_on_c, 1, 64, 0
3, 327888, Note_on_c, 1, 60, 83
3, 327934, Note_on_c, 1, 60, 0
3, 327936, Note_on_c, 1, 64, 81
3, 327982, Note_on_c, 1, 64, 0
3, 327984, Note_on_c, 1, 57, 79
3, 328030, Note_on_c, 1, 57, 0
3, 328032, Note_on_c, 1, 64, 77
3, 328078, Note_on_c, 1, 64, 0
3, 328080, Note_on_c, 1, 52, 75
3, 328126, Note_on_c, 1, 52, 0
3, 328128, Note_on_c, 1, 62, 75
3, 328174, Note_on_c, 1, 62, 0
3, 328176, Note_on_c, 1, 59, 75
3, 328222, Note_on_c, 1, 59, 0
3, 328224, Note_on_c, 1, 62, 75
3, 328270, Note_on_c, 1, 62, 0
3, 328272, Note_on_c, 1, 52, 75
3, 328318, Note_on_c, 1, 52, 0
3, 328320, Note_on_c, 1, 62, 75
3, 328366, Note_on_c, 1, 62, 0
3, 328368, Note_on_c, 1, 57, 75
3, 328368, Note_on_c, 1, 60, 75
3, 328414, Note_on_c, 1, 57, 0
3, 328414, Note_on_c, 1, 60, 0
3, 328416, Note_on_c, 1, 64, 75
3, 328462, Note_on_c, 1, 64, 0
3, 328464, Note_on_c, 1, 59, 92
3, 328464, Note_on_c, 1, 62, 92
3, 328510, Note_on_c, 1, 59, 0
3, 328510, Note_on_c, 1, 62, 0
3, 328512, Note_on_c, 1, 64, 92
3, 328558, Note_on_c, 1, 64, 0
3, 328560, Note_on_c, 1, 56, 92
3, 328606, Note_on_c, 1, 56, 0
3, 328608, Note_on_c, 1, 64, 92
3, 328654, Note_on_c, 1, 64, 0
3, 328656, Note_on_c, 1, 59, 92
3, 328656, Note_on_c, 1, 62, 92
3, 328702, Note_on_c, 1, 59, 0
3, 328702, Note_on_c, 1, 62, 0
3, 328704, Note_on_c, 1, 64, 92
3, 328750, Note_on_c, 1, 64, 0
3, 328752, Note_on_c, 1, 56, 92
3, 328798, Note_on_c, 1, 56, 0
3, 328800, Note_on_c, 1, 64, 92
3, 328846, Note_on_c, 1, 64, 0
3, 328848, Note_on_c, 1, 59, 92
3, 328848, Note_on_c, 1, 62, 92
3, 328894, Note_on_c, 1, 59, 0
3, 328894, Note_on_c, 1, 62, 0
3, 328896, Note_on_c, 1, 64, 92
3, 328942, Note_on_c, 1, 64, 0
3, 328944, Note_on_c, 1, 56, 92
3, 328990, Note_on_c, 1, 56, 0
3, 328992, Note_on_c, 1, 64, 92
3, 329038, Note_on_c, 1, 64, 0
3, 329040, Note_on_c, 1, 59, 92
3, 329040, Note_on_c, 1, 62, 92
3, 329086, Note_on_c, 1, 59, 0
3, 329086, Note_on_c, 1, 62, 0
3, 329088, Note_on_c, 1, 64, 92
3, 329134, Note_on_c, 1, 64, 0
3, 329136, Note_on_c, 1, 56, 92
3, 329182, Note_on_c, 1, 56, 0
3, 329184, Note_on_c, 1, 64, 92
3, 329230, Note_on_c, 1, 64, 0
3, 329232, Note_on_c, 1, 59, 92
3, 329232, Note_on_c, 1, 62, 92
3, 329278, Note_on_c, 1, 59, 0
3, 329278, Note_on_c, 1, 62, 0
3, 329280, Note_on_c, 1, 64, 92
3, 329326, Note_on_c, 1, 64, 0
3, 329328, Note_on_c, 1, 56, 92
3, 329374, Note_on_c, 1, 56, 0
3, 329376, Note_on_c, 1, 64, 92
3, 329422, Note_on_c, 1, 64, 0
3, 329424, Note_on_c, 1, 59, 92
3, 329424, Note_on_c, 1, 62, 92
3, 329470, Note_on_c, 1, 59, 0
3, 329470, Note_on_c, 1, 62, 0
3, 329472, Note_on_c, 1, 64, 92
3, 329518, Note_on_c, 1, 64, 0
3, 329520, Note_on_c, 1, 56, 92
3, 329566, Note_on_c, 1, 56, 0
3, 329568, Note_on_c, 1, 64, 92
3, 329614, Note_on_c, 1, 64, 0
3, 329616, Note_on_c, 1, 59, 127
3, 329616, Note_on_c, 1, 62, 127
3, 329662, Note_on_c, 1, 59, 0
3, 329662, Note_on_c, 1, 62, 0
3, 329664, Note_on_c, 1, 64, 92
3, 329710, Note_on_c, 1, 64, 0
3, 329712, Note_on_c, 1, 56, 87
3, 329758, Note_on_c, 1, 56, 0
3, 329760, Note_on_c, 1, 64, 82
3, 329806, Note_on_c, 1, 64, 0
3, 329808, Note_on_c, 1, 59, 77
3, 329808, Note_on_c, 1, 62, 77
3, 329854, Note_on_c, 1, 59, 0
3, 329854, Note_on_c, 1, 62, 0
3, 329856, Note_on_c, 1, 64, 72
3, 329902, Note_on_c, 1, 64, 0
3, 329904, Note_on_c, 1, 56, 67
3, 329950, Note_on_c, 1, 56, 0
3, 329952, Note_on_c, 1, 64, 62
3, 329998, Note_on_c, 1, 64, 0
3, 330000, Note_on_c, 1, 59, 57
3, 330000, Note_on_c, 1, 62, 57
3, 330046, Note_on_c, 1, 59, 0
3, 330046, Note_on_c, 1, 62, 0
3, 330048, Note_on_c, 1, 64, 51
3, 330094, Note_on_c, 1, 64, 0
3, 330096, Note_on_c, 1, 57, 45
3, 330142, Note_on_c, 1, 57, 0
3, 330144, Note_on_c, 1, 64, 45
3, 330190, Note_on_c, 1, 64, 0
3, 330192, Note_on_c, 1, 60, 45
3, 330238, Note_on_c, 1, 60, 0
3, 330240, Note_on_c, 1, 64, 45
3, 330286, Note_on_c, 1, 64, 0
3, 330288, Note_on_c, 1, 57, 45
3, 330334, Note_on_c, 1, 57, 0
3, 330336, Note_on_c, 1, 64, 45
3, 330382, Note_on_c, 1, 64, 0
3, 330384, Note_on_c, 1, 52, 45
3, 330430, Note_on_c, 1, 52, 0
3, 330432, Note_on_c, 1, 62, 45
3, 330478, Note_on_c, 1, 62, 0
3, 330480, Note_on_c, 1, 59, 45
3, 330526, Note_on_c, 1, 59, 0
3, 330528, Note_on_c, 1, 62, 45
3, 330574, Note_on_c, 1, 62, 0
3, 330576, Note_on_c, 1, 52, 45
3, 330622, Note_on_c, 1, 52, 0
3, 330624, Note_on_c, 1, 62, 45
3, 330670, Note_on_c, 1, 62, 0
3, 330672, Note_on_c, 1, 53, 45
3, 330718, Note_on_c, 1, 53, 0
3, 330720, Note_on_c, 1, 60, 45
3, 330766, Note_on_c, 1, 60, 0
3, 330768, Note_on_c, 1, 57, 45
3, 330814, Note_on_c, 1, 57, 0
3, 330816, Note_on_c, 1, 60, 46
3, 330862, Note_on_c, 1, 60, 0
3, 330864, Note_on_c, 1, 53, 48
3, 330910, Note_on_c, 1, 53, 0
3, 330912, Note_on_c, 1, 60, 50
3, 330958, Note_on_c, 1, 60, 0
3, 330960, Note_on_c, 1, 50, 52
3, 331006, Note_on_c, 1, 50, 0
3, 331008, Note_on_c, 1, 58, 54
3, 331054, Note_on_c, 1, 58, 0
3, 331056, Note_on_c, 1, 53, 56
3, 331102, Note_on_c, 1, 53, 0
3, 331104, Note_on_c, 1, 58, 58
3, 331150, Note_on_c, 1, 58, 0
3, 331152, Note_on_c, 1, 50, 60
3, 331198, Note_on_c, 1, 50, 0
3, 331200, Note_on_c, 1, 58, 62
3, 331246, Note_on_c, 1, 58, 0
3, 331248, Note_on_c, 1, 52, 64
3, 331294, Note_on_c, 1, 52, 0
3, 331296, Note_on_c, 1, 60, 66
3, 331342, Note_on_c, 1, 60, 0
3, 331344, Note_on_c, 1, 57, 68
3, 331390, Note_on_c, 1, 57, 0
3, 331392, Note_on_c, 1, 60, 70
3, 331438, Note_on_c, 1, 60, 0
3, 331440, Note_on_c, 1, 52, 72
3, 331486, Note_on_c, 1, 52, 0
3, 331488, Note_on_c, 1, 60, 74
3, 331534, Note_on_c, 1, 60, 0
3, 331536, Note_on_c, 1, 50, 76
3, 331582, Note_on_c, 1, 50, 0
3, 331584, Note_on_c, 1, 59, 78
3, 331630, Note_on_c, 1, 59, 0
3, 331632, Note_on_c, 1, 52, 80
3, 331678, Note_on_c, 1, 52, 0
3, 331680, Note_on_c, 1, 59, 82
3, 331726, Note_on_c, 1, 59, 0
3, 331728, Note_on_c, 1, 50, 84
3, 331774, Note_on_c, 1, 50, 0
3, 331776, Note_on_c, 1, 59, 86
3, 331822, Note_on_c, 1, 59, 0
3, 331824, Note_on_c, 1, 48, 88
3, 331870, Note_on_c, 1, 48, 0
3, 331872, Note_on_c, 1, 57, 90
3, 331918, Note_on_c, 1, 57, 0
3, 331920, Note_on_c, 1, 47, 92
3, 331966, Note_on_c, 1, 47, 0
3, 331968, Note_on_c, 1, 57, 92
3, 332014, Note_on_c, 1, 57, 0
3, 332016, Note_on_c, 1, 48, 92
3, 332062, Note_on_c, 1, 48, 0
3, 332064, Note_on_c, 1, 57, 92
3, 332110, Note_on_c, 1, 57, 0
3, 332112, Note_on_c, 1, 50, 92
3, 332158, Note_on_c, 1, 50, 0
3, 332160, Note_on_c, 1, 57, 92
3, 332160, Note_on_c, 1, 59, 92
3, 332206, Note_on_c, 1, 57, 0
3, 332206, Note_on_c, 1, 59, 0
3, 332208, Note_on_c, 1, 48, 92
3, 332254, Note_on_c, 1, 48, 0
3, 332256, Note_on_c, 1, 57, 92
3, 332256, Note_on_c, 1, 59, 92
3, 332302, Note_on_c, 1, 57, 0
3, 332302, Note_on_c, 1, 59, 0
3, 332304, Note_on_c, 1, 50, 92
3, 332350, Note_on_c, 1, 50, 0
3, 332352, Note_on_c, 1, 57, 92
3, 332352, Note_on_c, 1, 59, 92
3, 332398, Note_on_c, 1, 57, 0
3, 332398, Note_on_c, 1, 59, 0
3, 332400, Note_on_c, 1, 52, 92
3, 332446, Note_on_c, 1, 52, 0
3, 332448, Note_on_c, 1, 57, 92
3, 332448, Note_on_c, 1, 60, 92
3, 332494, Note_on_c, 1, 57, 0
3, 332494, Note_on_c, 1, 60, 0
3, 332496, Note_on_c, 1, 51, 92
3, 332542, Note_on_c, 1, 51, 0
3, 332544, Note_on_c, 1, 57, 92
3, 332544, Note_on_c, 1, 60, 92
3, 332590, Note_on_c, 1, 57, 0
3, 332590, Note_on_c, 1, 60, 0
3, 332592, Note_on_c, 1, 52, 92
3, 332638, Note_on_c, 1, 52, 0
3, 332640, Note_on_c, 1, 57, 92
3, 332640, Note_on_c, 1, 60, 92
3, 332686, Note_on_c, 1, 57, 0
3, 332686, Note_on_c, 1, 60, 0
3, 332688, Note_on_c, 1, 52, 92
3, 332734, Note_on_c, 1, 52, 0
3, 332736, Note_on_c, 1, 59, 92
3, 332736, Note_on_c, 1, 62, 92
3, 332782, Note_on_c, 1, 59, 0
3, 332782, Note_on_c, 1, 62, 0
3, 332784, Note_on_c, 1, 52, 92
3, 332830, Note_on_c, 1, 52, 0
3, 332832, Note_on_c, 1, 57, 92
3, 332832, Note_on_c, 1, 60, 92
3, 332878, Note_on_c, 1, 57, 0
3, 332878, Note_on_c, 1, 60, 0
3, 332880, Note_on_c, 1, 52, 92
3, 332926, Note_on_c, 1, 52, 0
3, 332928, Note_on_c, 1, 56, 92
3, 332928, Note_on_c, 1, 59, 92
3, 332974, Note_on_c, 1, 56, 0
3, 332974, Note_on_c, 1, 59, 0
3, 332976, Note_on_c, 1, 45, 45
3, 333022, Note_on_c, 1, 45, 0
3, 333024, Note_on_c, 1, 60, 45
3, 333070, Note_on_c, 1, 60, 0
3, 333072, Note_on_c, 1, 57, 45
3, 333118, Note_on_c, 1, 57, 0
3, 333120, Note_on_c, 1, 60, 45
3, 333166, Note_on_c, 1, 60, 0
3, 333168, Note_on_c, 1, 52, 45
3, 333214, Note_on_c, 1, 52, 0
3, 333216, Note_on_c, 1, 60, 45
3, 333262, Note_on_c, 1, 60, 0
3, 333264, Note_on_c, 1, 45, 45
3, 333310, Note_on_c, 1, 45, 0
3, 333312, Note_on_c, 1, 60, 45
3, 333358, Note_on_c, 1, 60, 0
3, 333360, Note_on_c, 1, 57, 45
3, 333406, Note_on_c, 1, 57, 0
3, 333408, Note_on_c, 1, 60, 45
3, 333454, Note_on_c, 1, 60, 0
3, 333456, Note_on_c, 1, 52, 45
3, 333502, Note_on_c, 1, 52, 0
3, 333504, Note_on_c, 1, 60, 45
3, 333550, Note_on_c, 1, 60, 0
3, 333552, Note_on_c, 1, 45, 45
3, 333598, Note_on_c, 1, 45, 0
3, 333600, Note_on_c, 1, 60, 45
3, 333646, Note_on_c, 1, 60, 0
3, 333648, Note_on_c, 1, 57, 45
3, 333694, Note_on_c, 1, 57, 0
3, 333696, Note_on_c, 1, 60, 45
3, 333742, Note_on_c, 1, 60, 0
3, 333744, Note_on_c, 1, 52, 45
3, 333790, Note_on_c, 1, 52, 0
3, 333792, Note_on_c, 1, 60, 45
3, 333838, Note_on_c, 1, 60, 0
3, 333840, Note_on_c, 1, 45, 45
3, 333886, Note_on_c, 1, 45, 0
3, 333888, Note_on_c, 1, 60, 45
3, 333934, Note_on_c, 1, 60, 0
3, 333936, Note_on_c, 1, 57, 45
3, 333982, Note_on_c, 1, 57, 0
3, 333984, Note_on_c, 1, 60, 45
3, 334030, Note_on_c, 1, 60, 0
3, 334032, Note_on_c, 1, 52, 45
3, 334078, Note_on_c, 1, 52, 0
3, 334080, Note_on_c, 1, 60, 45
3, 334126, Note_on_c, 1, 60, 0
3, 334128, Note_on_c, 1, 40, 45
3, 334174, Note_on_c, 1, 40, 0
3, 334176, Note_on_c, 1, 60, 45
3, 334222, Note_on_c, 1, 60, 0
3, 334224, Note_on_c, 1, 57, 51
3, 334270, Note_on_c, 1, 57, 0
3, 334272, Note_on_c, 1, 60, 57
3, 334318, Note_on_c, 1, 60, 0
3, 334320, Note_on_c, 1, 52, 63
3, 334366, Note_on_c, 1, 52, 0
3, 334368, Note_on_c, 1, 60, 69
3, 334414, Note_on_c, 1, 60, 0
3, 334416, Note_on_c, 1, 40, 75
3, 334462, Note_on_c, 1, 40, 0
3, 334464, Note_on_c, 1, 62, 75
3, 334510, Note_on_c, 1, 62, 0
3, 334512, Note_on_c, 1, 59, 75
3, 334558, Note_on_c, 1, 59, 0
3, 334560, Note_on_c, 1, 62, 75
3, 334606, Note_on_c, 1, 62, 0
3, 334608, Note_on_c, 1, 52, 75
3, 334654, Note_on_c, 1, 52, 0
3, 334656, Note_on_c, 1, 62, 75
3, 334702, Note_on_c, 1, 62, 0
3, 334704, Note_on_c, 1, 45, 75
3, 334750, Note_on_c, 1, 45, 0
3, 334752, Note_on_c, 1, 60, 75
3, 334798, Note_on_c, 1, 60, 0
3, 334800, Note_on_c, 1, 57, 75
3, 334846, Note_on_c, 1, 57, 0
3, 334848, Note_on_c, 1, 60, 45
3, 334894, Note_on_c, 1, 60, 0
3, 334896, Note_on_c, 1, 52, 45
3, 334942, Note_on_c, 1, 52, 0
3, 334944, Note_on_c, 1, 60, 45
3, 334990, Note_on_c, 1, 60, 0
3, 334992, Note_on_c, 1, 45, 45
3, 335038, Note_on_c, 1, 45, 0
3, 335040, Note_on_c, 1, 60, 45
3, 335086, Note_on_c, 1, 60, 0
3, 335088, Note_on_c, 1, 57, 45
3, 335134, Note_on_c, 1, 57, 0
3, 335136, Note_on_c, 1, 60, 45
3, 335182, Note_on_c, 1, 60, 0
3, 335184, Note_on_c, 1, 52, 45
3, 335230, Note_on_c, 1, 52, 0
3, 335232, Note_on_c, 1, 60, 45
3, 335278, Note_on_c, 1, 60, 0
3, 335280, Note_on_c, 1, 45, 45
3, 335326, Note_on_c, 1, 45, 0
3, 335328, Note_on_c, 1, 60, 45
3, 335374, Note_on_c, 1, 60, 0
3, 335376, Note_on_c, 1, 57, 45
3, 335422, Note_on_c, 1, 57, 0
3, 335424, Note_on_c, 1, 60, 45
3, 335470, Note_on_c, 1, 60, 0
3, 335472, Note_on_c, 1, 52, 45
3, 335518, Note_on_c, 1, 52, 0
3, 335520, Note_on_c, 1, 60, 45
3, 335566, Note_on_c, 1, 60, 0
3, 335568, Note_on_c, 1, 45, 45
3, 335614, Note_on_c, 1, 45, 0
3, 335616, Note_on_c, 1, 60, 45
3, 335662, Note_on_c, 1, 60, 0
3, 335664, Note_on_c, 1, 57, 45
3, 335710, Note_on_c, 1, 57, 0
3, 335712, Note_on_c, 1, 60, 45
3, 335758, Note_on_c, 1, 60, 0
3, 335760, Note_on_c, 1, 52, 45
3, 335806, Note_on_c, 1, 52, 0
3, 335808, Note_on_c, 1, 60, 45
3, 335854, Note_on_c, 1, 60, 0
3, 335856, Note_on_c, 1, 40, 45
3, 335902, Note_on_c, 1, 40, 0
3, 335904, Note_on_c, 1, 60, 45
3, 335950, Note_on_c, 1, 60, 0
3, 335952, Note_on_c, 1, 57, 45
3, 335998, Note_on_c, 1, 57, 0
3, 336000, Note_on_c, 1, 60, 45
3, 336046, Note_on_c, 1, 60, 0
3, 336048, Note_on_c, 1, 52, 45
3, 336094, Note_on_c, 1, 52, 0
3, 336096, Note_on_c, 1, 60, 45
3, 336142, Note_on_c, 1, 60, 0
3, 336144, Note_on_c, 1, 40, 45
3, 336190, Note_on_c, 1, 40, 0
3, 336192, Note_on_c, 1, 62, 45
3, 336238, Note_on_c, 1, 62, 0
3, 336240, Note_on_c, 1, 59, 45
3, 336286, Note_on_c, 1, 59, 0
3, 336288, Note_on_c, 1, 62, 45
3, 336334, Note_on_c, 1, 62, 0
3, 336336, Note_on_c, 1, 52, 45
3, 336382, Note_on_c, 1, 52, 0
3, 336384, Note_on_c, 1, 62, 45
3, 336430, Note_on_c, 1, 62, 0
3, 336432, Note_on_c, 1, 45, 45
3, 336478, Note_on_c, 1, 45, 0
3, 336480, Note_on_c, 1, 57, 50
3, 336526, Note_on_c, 1, 57, 0
3, 336528, Note_on_c, 1, 56, 55
3, 336574, Note_on_c, 1, 56, 0
3, 336576, Note_on_c, 1, 57, 60
3, 336622, Note_on_c, 1, 57, 0
3, 336624, Note_on_c, 1, 55, 65
3, 336670, Note_on_c, 1, 55, 0
3, 336672, Note_on_c, 1, 57, 70
3, 336718, Note_on_c, 1, 57, 0
3, 336720, Note_on_c, 1, 53, 75
3, 336766, Note_on_c, 1, 53, 0
3, 336768, Note_on_c, 1, 57, 73
3, 336814, Note_on_c, 1, 57, 0
3, 336816, Note_on_c, 1, 52, 71
3, 336862, Note_on_c, 1, 52, 0
3, 336864, Note_on_c, 1, 57, 69
3, 336910, Note_on_c, 1, 57, 0
3, 336912, Note_on_c, 1, 51, 67
3, 336958, Note_on_c, 1, 51, 0
3, 336960, Note_on_c, 1, 57, 65
3, 337006, Note_on_c, 1, 57, 0
3, 337008, Note_on_c, 1, 52, 63
3, 337054, Note_on_c, 1, 52, 0
3, 337056, Note_on_c, 1, 57, 60
3, 337102, Note_on_c, 1, 57, 0
3, 337104, Note_on_c, 1, 59, 57
3, 337150, Note_on_c, 1, 59, 0
3, 337152, Note_on_c, 1, 52, 54
3, 337198, Note_on_c, 1, 52, 0
3, 337200, Note_on_c, 1, 60, 51
3, 337246, Note_on_c, 1, 60, 0
3, 337248, Note_on_c, 1, 52, 48
3, 337294, Note_on_c, 1, 52, 0
3, 337296, Note_on_c, 1, 62, 45
3, 337342, Note_on_c, 1, 62, 0
3, 337344, Note_on_c, 1, 52, 45
3, 337390, Note_on_c, 1, 52, 0
3, 337392, Note_on_c, 1, 60, 45
3, 337438, Note_on_c, 1, 60, 0
3, 337440, Note_on_c, 1, 52, 45
3, 337486, Note_on_c, 1, 52, 0
3, 337488, Note_on_c, 1, 59, 45
3, 337534, Note_on_c, 1, 59, 0
3, 337536, Note_on_c, 1, 52, 45
3, 337582, Note_on_c, 1, 52, 0
3, 337584, Note_on_c, 1, 45, 45
3, 337630, Note_on_c, 1, 45, 0
3, 337632, Note_on_c, 1, 57, 50
3, 337678, Note_on_c, 1, 57, 0
3, 337680, Note_on_c, 1, 56, 55
3, 337726, Note_on_c, 1, 56, 0
3, 337728, Note_on_c, 1, 57, 60
3, 337774, Note_on_c, 1, 57, 0
3, 337776, Note_on_c, 1, 55, 65
3, 337822, Note_on_c, 1, 55, 0
3, 337824, Note_on_c, 1, 57, 70
3, 337870, Note_on_c, 1, 57, 0
3, 337872, Note_on_c, 1, 53, 75
3, 337918, Note_on_c, 1, 53, 0
3, 337920, Note_on_c, 1, 57, 70
3, 337966, Note_on_c, 1, 57, 0
3, 337968, Note_on_c, 1, 52, 65
3, 338014, Note_on_c, 1, 52, 0
3, 338016, Note_on_c, 1, 57, 60
3, 338062, Note_on_c, 1, 57, 0
3, 338064, Note_on_c, 1, 51, 55
3, 338110, Note_on_c, 1, 51, 0
3, 338112, Note_on_c, 1, 57, 50
3, 338158, Note_on_c, 1, 57, 0
3, 338160, Note_on_c, 1, 52, 45
3, 338206, Note_on_c, 1, 52, 0
3, 338208, Note_on_c, 1, 57, 45
3, 338254, Note_on_c, 1, 57, 0
3, 338256, Note_on_c, 1, 65, 45
3, 338302, Note_on_c, 1, 65, 0
3, 338304, Note_on_c, 1, 52, 45
3, 338350, Note_on_c, 1, 52, 0
3, 338352, Note_on_c, 1, 64, 45
3, 338398, Note_on_c, 1, 64, 0
3, 338400, Note_on_c, 1, 52, 45
3, 338446, Note_on_c, 1, 52, 0
3, 338448, Note_on_c, 1, 62, 45
3, 338494, Note_on_c, 1, 62, 0
3, 338496, Note_on_c, 1, 52, 45
3, 338542, Note_on_c, 1, 52, 0
3, 338544, Note_on_c, 1, 60, 45
3, 338590, Note_on_c, 1, 60, 0
3, 338592, Note_on_c, 1, 52, 45
3, 338638, Note_on_c, 1, 52, 0
3, 338640, Note_on_c, 1, 59, 45
3, 338686, Note_on_c, 1, 59, 0
3, 338688, Note_on_c, 1, 52, 45
3, 338734, Note_on_c, 1, 52, 0
3, 338736, Note_on_c, 1, 45, 63
3, 338782, Note_on_c, 1, 45, 0
3, 338784, Note_on_c, 1, 57, 45
3, 338830, Note_on_c, 1, 57, 0
3, 338832, Note_on_c, 1, 56, 45
3, 338878, Note_on_c, 1, 56, 0
3, 338880, Note_on_c, 1, 57, 45
3, 338926, Note_on_c, 1, 57, 0
3, 338928, Note_on_c, 1, 45, 45
3, 338974, Note_on_c, 1, 45, 0
3, 338976, Note_on_c, 1, 57, 45
3, 339022, Note_on_c, 1, 57, 0
3, 339024, Note_on_c, 1, 56, 63
3, 339070, Note_on_c, 1, 56, 0
3, 339072, Note_on_c, 1, 57, 45
3, 339118, Note_on_c, 1, 57, 0
3, 339120, Note_on_c, 1, 45, 45
3, 339166, Note_on_c, 1, 45, 0
3, 339168, Note_on_c, 1, 57, 45
3, 339214, Note_on_c, 1, 57, 0
3, 339216, Note_on_c, 1, 56, 45
3, 339262, Note_on_c, 1, 56, 0
3, 339264, Note_on_c, 1, 57, 45
3, 339310, Note_on_c, 1, 57, 0
3, 339312, Note_on_c, 1, 45, 63
3, 339358, Note_on_c, 1, 45, 0
3, 339360, Note_on_c, 1, 57, 45
3, 339406, Note_on_c, 1, 57, 0
3, 339408, Note_on_c, 1, 56, 45
3, 339454, Note_on_c, 1, 56, 0
3, 339456, Note_on_c, 1, 57, 45
3, 339502, Note_on_c, 1, 57, 0
3, 339504, Note_on_c, 1, 45, 45
3, 339550, Note_on_c, 1, 45, 0
3, 339552, Note_on_c, 1, 57, 45
3, 339598, Note_on_c, 1, 57, 0
3, 339600, Note_on_c, 1, 56, 63
3, 339646, Note_on_c, 1, 56, 0
3, 339648, Note_on_c, 1, 57, 45
3, 339694, Note_on_c, 1, 57, 0
3, 339696, Note_on_c, 1, 45, 45
3, 339742, Note_on_c, 1, 45, 0
3, 339744, Note_on_c, 1, 57, 45
3, 339790, Note_on_c, 1, 57, 0
3, 339792, Note_on_c, 1, 56, 45
3, 339838, Note_on_c, 1, 56, 0
3, 339840, Note_on_c, 1, 57, 45
3, 339886, Note_on_c, 1, 57, 0
3, 339888, Note_on_c, 1, 61, 45
3, 339888, Note_on_c, 1, 64, 45
3, 339888, Note_on_c, 1, 67, 45
3, 339982, Note_on_c, 1, 61, 0
3, 339982, Note_on_c, 1, 64, 0
3, 339982, Note_on_c, 1, 67, 0
3, 341040, Note_on_c, 1, 50, 45
3, 341086, Note_on_c, 1, 50, 0
3, 341088, Note_on_c, 1, 57, 45
3, 341136, Note_on_c, 1, 62, 45
3, 341184, Note_on_c, 1, 62, 0
3, 341184, Note_on_c, 1, 65, 45
3, 341232, Note_on_c, 1, 57, 0
3, 341232, Note_on_c, 1, 65, 0
3, 341232, Note_on_c, 1, 57, 45
3, 341326, Note_on_c, 1, 57, 0
3, 341328, Note_on_c, 1, 50, 45
3, 341374, Note_on_c, 1, 50, 0
3, 341376, Note_on_c, 1, 57, 45
3, 341424, Note_on_c, 1, 62, 45
3, 341472, Note_on_c, 1, 62, 0
3, 341472, Note_on_c, 1, 65, 45
3, 341520, Note_on_c, 1, 57, 0
3, 341520, Note_on_c, 1, 65, 0
3, 341520, Note_on_c, 1, 57, 45
3, 341614, Note_on_c, 1, 57, 0
3, 341616, Note_on_c, 1, 50, 45
3, 341662, Note_on_c, 1, 50, 0
3, 341664, Note_on_c, 1, 57, 45
3, 341712, Note_on_c, 1, 62, 45
3, 341760, Note_on_c, 1, 62, 0
3, 341760, Note_on_c, 1, 65, 45
3, 341808, Note_on_c, 1, 57, 0
3, 341808, Note_on_c, 1, 65, 0
3, 341808, Note_on_c, 1, 57, 45
3, 341902, Note_on_c, 1, 57, 0
3, 341904, Note_on_c, 1, 45, 45
3, 341950, Note_on_c, 1, 45, 0
3, 341952, Note_on_c, 1, 57, 45
3, 342000, Note_on_c, 1, 61, 45
3, 342048, Note_on_c, 1, 61, 0
3, 342048, Note_on_c, 1, 64, 45
3, 342096, Note_on_c, 1, 57, 0
3, 342096, Note_on_c, 1, 64, 0
3, 342096, Note_on_c, 1, 57, 45
3, 342190, Note_on_c, 1, 57, 0
3, 342192, Note_on_c, 1, 45, 45
3, 342238, Note_on_c, 1, 45, 0
3, 342240, Note_on_c, 1, 57, 45
3, 342288, Note_on_c, 1, 61, 45
3, 342336, Note_on_c, 1, 61, 0
3, 342336, Note_on_c, 1, 64, 45
3, 342384, Note_on_c, 1, 57, 0
3, 342384, Note_on_c, 1, 64, 0
3, 342384, Note_on_c, 1, 57, 45
3, 342478, Note_on_c, 1, 57, 0
3, 342480, Note_on_c, 1, 45, 45
3, 342526, Note_on_c, 1, 45, 0
3, 342528, Note_on_c, 1, 57, 45
3, 342576, Note_on_c, 1, 61, 45
3, 342624, Note_on_c, 1, 61, 0
3, 342624, Note_on_c, 1, 64, 45
3, 342672, Note_on_c, 1, 57, 0
3, 342672, Note_on_c, 1, 64, 0
3, 342672, Note_on_c, 1, 57, 45
3, 342766, Note_on_c, 1, 57, 0
3, 342768, Note_on_c, 1, 45, 45
3, 342814, Note_on_c, 1, 45, 0
3, 342816, Note_on_c, 1, 57, 45
3, 342864, Note_on_c, 1, 61, 45
3, 342912, Note_on_c, 1, 61, 0
3, 342912, Note_on_c, 1, 64, 45
3, 342960, Note_on_c, 1, 57, 0
3, 342960, Note_on_c, 1, 64, 0
3, 342960, Note_on_c, 1, 57, 45
3, 343054, Note_on_c, 1, 57, 0
3, 343056, Note_on_c, 1, 50, 45
3, 343102, Note_on_c, 1, 50, 0
3, 343104, Note_on_c, 1, 57, 45
3, 343152, Note_on_c, 1, 62, 45
3, 343200, Note_on_c, 1, 62, 0
3, 343200, Note_on_c, 1, 65, 45
3, 343248, Note_on_c, 1, 57, 0
3, 343248, Note_on_c, 1, 65, 0
3, 343248, Note_on_c, 1, 57, 45
3, 343342, Note_on_c, 1, 57, 0
3, 343344, Note_on_c, 1, 55, 45
3, 343392, Note_on_c, 1, 62, 45
3, 343440, Note_on_c, 1, 67, 45
3, 343600, Note_on_c, 1, 55, 0
3, 343600, Note_on_c, 1, 62, 0
3, 343600, Note_on_c, 1, 67, 0
3, 343632, Note_on_c, 1, 51, 65
3, 343680, Note_on_c, 1, 58, 70
3, 343728, Note_on_c, 1, 63, 75
3, 343888, Note_on_c, 1, 51, 0
3, 343888, Note_on_c, 1, 58, 0
3, 343888, Note_on_c, 1, 63, 0
3, 343920, Note_on_c, 1, 49, 75
3, 343968, Note_on_c, 1, 57, 75
3, 344016, Note_on_c, 1, 61, 75
3, 344176, Note_on_c, 1, 49, 0
3, 344176, Note_on_c, 1, 57, 0
3, 344176, Note_on_c, 1, 61, 0
3, 344208, Note_on_c, 1, 50, 75
3, 344256, Note_on_c, 1, 57, 75
3, 344304, Note_on_c, 1, 62, 75
3, 344464, Note_on_c, 1, 50, 0
3, 344464, Note_on_c, 1, 57, 0
3, 344464, Note_on_c, 1, 62, 0
3, 344496, Note_on_c, 1, 45, 45
3, 344544, Note_on_c, 1, 53, 45
3, 344592, Note_on_c, 1, 57, 45
3, 344752, Note_on_c, 1, 45, 0
3, 344752, Note_on_c, 1, 53, 0
3, 344752, Note_on_c, 1, 57, 0
3, 344784, Note_on_c, 1, 45, 45
3, 344832, Note_on_c, 1, 52, 45
3, 344880, Note_on_c, 1, 55, 45
3, 344928, Note_on_c, 1, 57, 45
3, 345070, Note_on_c, 1, 45, 0
3, 345070, Note_on_c, 1, 52, 0
3, 345070, Note_on_c, 1, 55, 0
3, 345070, Note_on_c, 1, 57, 0
3, 345072, Note_on_c, 1, 38, 92
3, 345118, Note_on_c, 1, 38, 0
3, 345120, Note_on_c, 1, 50, 92
3, 345166, Note_on_c, 1, 50, 0
3, 345168, Note_on_c, 1, 53, 92
3, 345214, Note_on_c, 1, 53, 0
3, 345216, Note_on_c, 1, 57, 92
3, 345262, Note_on_c, 1, 57, 0
3, 345264, Note_on_c, 1, 62, 92
3, 345358, Note_on_c, 1, 62, 0
3, 345648, Note_on_c, 1, 55, 45
3, 345696, Note_on_c, 1, 62, 45
3, 345744, Note_on_c, 1, 67, 45
3, 345904, Note_on_c, 1, 55, 0
3, 345904, Note_on_c, 1, 62, 0
3, 345904, Note_on_c, 1, 67, 0
3, 345936, Note_on_c, 1, 51, 75
3, 345984, Note_on_c, 1, 58, 75
3, 346032, Note_on_c, 1, 63, 75
3, 346192, Note_on_c, 1, 51, 0
3, 346192, Note_on_c, 1, 58, 0
3, 346192, Note_on_c, 1, 63, 0
3, 346224, Note_on_c, 1, 49, 75
3, 346272, Note_on_c, 1, 57, 75
3, 346320, Note_on_c, 1, 61, 75
3, 346480, Note_on_c, 1, 49, 0
3, 346480, Note_on_c, 1, 57, 0
3, 346480, Note_on_c, 1, 61, 0
3, 346512, Note_on_c, 1, 50, 75
3, 346560, Note_on_c, 1, 57, 75
3, 346608, Note_on_c, 1, 62, 75
3, 346768, Note_on_c, 1, 50, 0
3, 346768, Note_on_c, 1, 57, 0
3, 346768, Note_on_c, 1, 62, 0
3, 346800, Note_on_c, 1, 45, 45
3, 346848, Note_on_c, 1, 53, 45
3, 346896, Note_on_c, 1, 57, 45
3, 347056, Note_on_c, 1, 45, 0
3, 347056, Note_on_c, 1, 53, 0
3, 347056, Note_on_c, 1, 57, 0
3, 347088, Note_on_c, 1, 45, 45
3, 347136, Note_on_c, 1, 52, 45
3, 347184, Note_on_c, 1, 55, 45
3, 347232, Note_on_c, 1, 57, 45
3, 347374, Note_on_c, 1, 45, 0
3, 347374, Note_on_c, 1, 52, 0
3, 347374, Note_on_c, 1, 55, 0
3, 347374, Note_on_c, 1, 57, 0
3, 347376, Note_on_c, 1, 50, 92
3, 347422, Note_on_c, 1, 50, 0
3, 347424, Note_on_c, 1, 53, 92
3, 347470, Note_on_c, 1, 53, 0
3, 347472, Note_on_c, 1, 57, 92
3, 347518, Note_on_c, 1, 57, 0
3, 347520, Note_on_c, 1, 62, 92
3, 347566, Note_on_c, 1, 62, 0
3, 347952, Note_on_c, 1, 45, 45
3, 348000, Note_on_c, 1, 53, 45
3, 348048, Note_on_c, 1, 57, 45
3, 348208, Note_on_c, 1, 45, 0
3, 348208, Note_on_c, 1, 53, 0
3, 348208, Note_on_c, 1, 57, 0
3, 348240, Note_on_c, 1, 45, 45
3, 348286, Note_on_c, 1, 45, 0
3, 348288, Note_on_c, 1, 45, 45
3, 348288, Note_on_c, 1, 52, 45
3, 348336, Note_on_c, 1, 55, 45
3, 348384, Note_on_c, 1, 57, 45
3, 348526, Note_on_c, 1, 45, 0
3, 348526, Note_on_c, 1, 52, 0
3, 348526, Note_on_c, 1, 55, 0
3, 348526, Note_on_c, 1, 57, 0
3, 348528, Note_on_c, 1, 50, 92
3, 348574, Note_on_c, 1, 50, 0
3, 348576, Note_on_c, 1, 53, 92
3, 348622, Note_on_c, 1, 53, 0
3, 348624, Note_on_c, 1, 57, 92
3, 348670, Note_on_c, 1, 57, 0
3, 348672, Note_on_c, 1, 62, 92
3, 348718, Note_on_c, 1, 62, 0
3, 349104, Note_on_c, 1, 45, 45
3, 349152, Note_on_c, 1, 53, 45
3, 349200, Note_on_c, 1, 57, 45
3, 349360, Note_on_c, 1, 45, 0
3, 349360, Note_on_c, 1, 53, 0
3, 349360, Note_on_c, 1, 57, 0
3, 349392, Note_on_c, 1, 45, 45
3, 349440, Note_on_c, 1, 45, 0
3, 349440, Note_on_c, 1, 52, 45
3, 349488, Note_on_c, 1, 52, 0
3, 349488, Note_on_c, 1, 55, 45
3, 349534, Note_on_c, 1, 55, 0
3, 349536, Note_on_c, 1, 33, 92
3, 349584, Note_on_c, 1, 33, 0
3, 349584, Note_on_c, 1, 41, 92
3, 349632, Note_on_c, 1, 41, 0
3, 349632, Note_on_c, 1, 40, 92
3, 349680, Note_on_c, 1, 40, 0
3, 349680, Note_on_c, 1, 38, 92
3, 349712, Note_on_c, 1, 38, 0
3, 349824, Note_on_c, 1, 33, 92
3, 349872, Note_on_c, 1, 33, 0
3, 349872, Note_on_c, 1, 41, 92
3, 349920, Note_on_c, 1, 41, 0
3, 349920, Note_on_c, 1, 40, 92
3, 349968, Note_on_c, 1, 40, 0
3, 349968, Note_on_c, 1, 38, 92
3, 350000, Note_on_c, 1, 38, 0
3, 350112, Note_on_c, 1, 33, 92
3, 350160, Note_on_c, 1, 33, 0
3, 350160, Note_on_c, 1, 41, 92
3, 350208, Note_on_c, 1, 41, 0
3, 350208, Note_on_c, 1, 40, 92
3, 350256, Note_on_c, 1, 40, 0
3, 350256, Note_on_c, 1, 38, 92
3, 350288, Note_on_c, 1, 38, 0
3, 350400, Note_on_c, 1, 33, 92
3, 350446, Note_on_c, 1, 33, 0
3, 350448, Note_on_c, 1, 41, 92
3, 350494, Note_on_c, 1, 41, 0
3, 350496, Note_on_c, 1, 38, 92
3, 350542, Note_on_c, 1, 38, 0
3, 350544, Note_on_c, 1, 31, 127
3, 350544, Note_on_c, 1, 43, 127
3, 350800, Note_on_c, 1, 31, 0
3, 350800, Note_on_c, 1, 43, 0
3, 350832, Note_on_c, 1, 36, 127
3, 350832, Note_on_c, 1, 48, 127
3, 350926, Note_on_c, 1, 36, 0
3, 350926, Note_on_c, 1, 48, 0
3, 350928, Note_on_c, 1, 52, 127
3, 351022, Note_on_c, 1, 52, 0
3, 351024, Note_on_c, 1, 55, 127
3, 351118, Note_on_c, 1, 55, 0
3, 351120, Note_on_c, 1, 60, 127
3, 351214, Note_on_c, 1, 60, 0
3, 351216, Note_on_c, 1, 64, 127
3, 351310, Note_on_c, 1, 64, 0
3, 351312, Note_on_c, 1, 60, 127
3, 351406, Note_on_c, 1, 60, 0
3, 351408, Note_on_c, 1, 55, 127
3, 351502, Note_on_c, 1, 55, 0
3, 351504, Note_on_c, 1, 52, 127
3, 351598, Note_on_c, 1, 52, 0
3, 351600, Note_on_c, 1, 55, 127
3, 351694, Note_on_c, 1, 55, 0
3, 351696, Note_on_c, 1, 52, 127
3, 351790, Note_on_c, 1, 52, 0
3, 351792, Note_on_c, 1, 48, 92
3, 351838, Note_on_c, 1, 48, 0
3, 351840, Note_on_c, 1, 31, 92
3, 351888, Note_on_c, 1, 31, 0
3, 351888, Note_on_c, 1, 40, 92
3, 351936, Note_on_c, 1, 40, 0
3, 351936, Note_on_c, 1, 38, 92
3, 351984, Note_on_c, 1, 38, 0
3, 351984, Note_on_c, 1, 36, 92
3, 352016, Note_on_c, 1, 36, 0
3, 352128, Note_on_c, 1, 31, 92
3, 352176, Note_on_c, 1, 31, 0
3, 352176, Note_on_c, 1, 40, 92
3, 352224, Note_on_c, 1, 40, 0
3, 352224, Note_on_c, 1, 38, 92
3, 352272, Note_on_c, 1, 38, 0
3, 352272, Note_on_c, 1, 36, 92
3, 352304, Note_on_c, 1, 36, 0
3, 352416, Note_on_c, 1, 31, 92
3, 352464, Note_on_c, 1, 31, 0
3, 352464, Note_on_c, 1, 40, 92
3, 352512, Note_on_c, 1, 40, 0
3, 352512, Note_on_c, 1, 38, 92
3, 352560, Note_on_c, 1, 38, 0
3, 352560, Note_on_c, 1, 36, 92
3, 352592, Note_on_c, 1, 36, 0
3, 352704, Note_on_c, 1, 31, 92
3, 352752, Note_on_c, 1, 31, 0
3, 352752, Note_on_c, 1, 40, 92
3, 352800, Note_on_c, 1, 40, 0
3, 352800, Note_on_c, 1, 36, 92
3, 352846, Note_on_c, 1, 36, 0
3, 352848, Note_on_c, 1, 29, 127
3, 352848, Note_on_c, 1, 41, 127
3, 353104, Note_on_c, 1, 29, 0
3, 353104, Note_on_c, 1, 41, 0
3, 353136, Note_on_c, 1, 28, 92
3, 353136, Note_on_c, 1, 40, 92
3, 353230, Note_on_c, 1, 28, 0
3, 353230, Note_on_c, 1, 40, 0
3, 353232, Note_on_c, 1, 59, 92
3, 353232, Note_on_c, 1, 62, 92
3, 353278, Note_on_c, 1, 59, 0
3, 353278, Note_on_c, 1, 62, 0
3, 353280, Note_on_c, 1, 64, 92
3, 353326, Note_on_c, 1, 64, 0
3, 353328, Note_on_c, 1, 56, 92
3, 353374, Note_on_c, 1, 56, 0
3, 353376, Note_on_c, 1, 64, 92
3, 353422, Note_on_c, 1, 64, 0
3, 353424, Note_on_c, 1, 59, 92
3, 353424, Note_on_c, 1, 62, 92
3, 353470, Note_on_c, 1, 59, 0
3, 353470, Note_on_c, 1, 62, 0
3, 353472, Note_on_c, 1, 64, 92
3, 353518, Note_on_c, 1, 64, 0
3, 353520, Note_on_c, 1, 56, 92
3, 353566, Note_on_c, 1, 56, 0
3, 353568, Note_on_c, 1, 64, 92
3, 353614, Note_on_c, 1, 64, 0
3, 353616, Note_on_c, 1, 59, 92
3, 353616, Note_on_c, 1, 62, 92
3, 353662, Note_on_c, 1, 59, 0
3, 353662, Note_on_c, 1, 62, 0
3, 353664, Note_on_c, 1, 64, 92
3, 353710, Note_on_c, 1, 64, 0
3, 353712, Note_on_c, 1, 56, 92
3, 353758, Note_on_c, 1, 56, 0
3, 353760, Note_on_c, 1, 64, 92
3, 353806, Note_on_c, 1, 64, 0
3, 353808, Note_on_c, 1, 59, 92
3, 353808, Note_on_c, 1, 62, 92
3, 353854, Note_on_c, 1, 59, 0
3, 353854, Note_on_c, 1, 62, 0
3, 353856, Note_on_c, 1, 64, 92
3, 353902, Note_on_c, 1, 64, 0
3, 353904, Note_on_c, 1, 56, 92
3, 353950, Note_on_c, 1, 56, 0
3, 353952, Note_on_c, 1, 64, 92
3, 353998, Note_on_c, 1, 64, 0
3, 354000, Note_on_c, 1, 59, 92
3, 354000, Note_on_c, 1, 62, 92
3, 354046, Note_on_c, 1, 59, 0
3, 354046, Note_on_c, 1, 62, 0
3, 354048, Note_on_c, 1, 64, 92
3, 354094, Note_on_c, 1, 64, 0
3, 354096, Note_on_c, 1, 56, 92
3, 354142, Note_on_c, 1, 56, 0
3, 354144, Note_on_c, 1, 64, 92
3, 354190, Note_on_c, 1, 64, 0
3, 354192, Note_on_c, 1, 59, 92
3, 354192, Note_on_c, 1, 62, 92
3, 354238, Note_on_c, 1, 59, 0
3, 354238, Note_on_c, 1, 62, 0
3, 354240, Note_on_c, 1, 64, 92
3, 354286, Note_on_c, 1, 64, 0
3, 354288, Note_on_c, 1, 56, 92
3, 354334, Note_on_c, 1, 56, 0
3, 354336, Note_on_c, 1, 64, 92
3, 354382, Note_on_c, 1, 64, 0
3, 354384, Note_on_c, 1, 59, 127
3, 354384, Note_on_c, 1, 62, 127
3, 354430, Note_on_c, 1, 59, 0
3, 354430, Note_on_c, 1, 62, 0
3, 354432, Note_on_c, 1, 64, 92
3, 354478, Note_on_c, 1, 64, 0
3, 354480, Note_on_c, 1, 56, 92
3, 354526, Note_on_c, 1, 56, 0
3, 354528, Note_on_c, 1, 64, 92
3, 354574, Note_on_c, 1, 64, 0
3, 354576, Note_on_c, 1, 59, 92
3, 354576, Note_on_c, 1, 62, 92
3, 354622, Note_on_c, 1, 59, 0
3, 354622, Note_on_c, 1, 62, 0
3, 354624, Note_on_c, 1, 64, 92
3, 354670, Note_on_c, 1, 64, 0
3, 354672, Note_on_c, 1, 56, 92
3, 354718, Note_on_c, 1, 56, 0
3, 354720, Note_on_c, 1, 64, 91
3, 354766, Note_on_c, 1, 64, 0
3, 354768, Note_on_c, 1, 59, 90
3, 354768, Note_on_c, 1, 62, 90
3, 354814, Note_on_c, 1, 59, 0
3, 354814, Note_on_c, 1, 62, 0
3, 354816, Note_on_c, 1, 64, 89
3, 354862, Note_on_c, 1, 64, 0
3, 354864, Note_on_c, 1, 57, 87
3, 354910, Note_on_c, 1, 57, 0
3, 354912, Note_on_c, 1, 64, 85
3, 354958, Note_on_c, 1, 64, 0
3, 354960, Note_on_c, 1, 60, 83
3, 355006, Note_on_c, 1, 60, 0
3, 355008, Note_on_c, 1, 64, 81
3, 355054, Note_on_c, 1, 64, 0
3, 355056, Note_on_c, 1, 57, 79
3, 355102, Note_on_c, 1, 57, 0
3, 355104, Note_on_c, 1, 64, 77
3, 355150, Note_on_c, 1, 64, 0
3, 355152, Note_on_c, 1, 52, 75
3, 355198, Note_on_c, 1, 52, 0
3, 355200, Note_on_c, 1, 62, 75
3, 355246, Note_on_c, 1, 62, 0
3, 355248, Note_on_c, 1, 59, 75
3, 355294, Note_on_c, 1, 59, 0
3, 355296, Note_on_c, 1, 62, 75
3, 355342, Note_on_c, 1, 62, 0
3, 355344, Note_on_c, 1, 52, 75
3, 355390, Note_on_c, 1, 52, 0
3, 355392, Note_on_c, 1, 62, 75
3, 355438, Note_on_c, 1, 62, 0
3, 355440, Note_on_c, 1, 57, 75
3, 355440, Note_on_c, 1, 60, 75
3, 355486, Note_on_c, 1, 57, 0
3, 355486, Note_on_c, 1, 60, 0
3, 355488, Note_on_c, 1, 64, 75
3, 355534, Note_on_c, 1, 64, 0
3, 355536, Note_on_c, 1, 59, 92
3, 355536, Note_on_c, 1, 62, 92
3, 355582, Note_on_c, 1, 59, 0
3, 355582, Note_on_c, 1, 62, 0
3, 355584, Note_on_c, 1, 64, 92
3, 355630, Note_on_c, 1, 64, 0
3, 355632, Note_on_c, 1, 56, 92
3, 355678, Note_on_c, 1, 56, 0
3, 355680, Note_on_c, 1, 64, 92
3, 355726, Note_on_c, 1, 64, 0
3, 355728, Note_on_c, 1, 59, 92
3, 355728, Note_on_c, 1, 62, 92
3, 355774, Note_on_c, 1, 59, 0
3, 355774, Note_on_c, 1, 62, 0
3, 355776, Note_on_c, 1, 64, 92
3, 355822, Note_on_c, 1, 64, 0
3, 355824, Note_on_c, 1, 56, 92
3, 355870, Note_on_c, 1, 56, 0
3, 355872, Note_on_c, 1, 64, 92
3, 355918, Note_on_c, 1, 64, 0
3, 355920, Note_on_c, 1, 59, 92
3, 355920, Note_on_c, 1, 62, 92
3, 355966, Note_on_c, 1, 59, 0
3, 355966, Note_on_c, 1, 62, 0
3, 355968, Note_on_c, 1, 64, 92
3, 356014, Note_on_c, 1, 64, 0
3, 356016, Note_on_c, 1, 56, 92
3, 356062, Note_on_c, 1, 56, 0
3, 356064, Note_on_c, 1, 64, 92
3, 356110, Note_on_c, 1, 64, 0
3, 356112, Note_on_c, 1, 59, 92
3, 356112, Note_on_c, 1, 62, 92
3, 356158, Note_on_c, 1, 59, 0
3, 356158, Note_on_c, 1, 62, 0
3, 356160, Note_on_c, 1, 64, 92
3, 356206, Note_on_c, 1, 64, 0
3, 356208, Note_on_c, 1, 56, 92
3, 356254, Note_on_c, 1, 56, 0
3, 356256, Note_on_c, 1, 64, 92
3, 356302, Note_on_c, 1, 64, 0
3, 356304, Note_on_c, 1, 59, 92
3, 356304, Note_on_c, 1, 62, 92
3, 356350, Note_on_c, 1, 59, 0
3, 356350, Note_on_c, 1, 62, 0
3, 356352, Note_on_c, 1, 64, 92
3, 356398, Note_on_c, 1, 64, 0
3, 356400, Note_on_c, 1, 56, 92
3, 356446, Note_on_c, 1, 56, 0
3, 356448, Note_on_c, 1, 64, 92
3, 356494, Note_on_c, 1, 64, 0
3, 356496, Note_on_c, 1, 59, 92
3, 356496, Note_on_c, 1, 62, 92
3, 356542, Note_on_c, 1, 59, 0
3, 356542, Note_on_c, 1, 62, 0
3, 356544, Note_on_c, 1, 64, 92
3, 356590, Note_on_c, 1, 64, 0
3, 356592, Note_on_c, 1, 56, 92
3, 356638, Note_on_c, 1, 56, 0
3, 356640, Note_on_c, 1, 64, 92
3, 356686, Note_on_c, 1, 64, 0
3, 356688, Note_on_c, 1, 59, 127
3, 356688, Note_on_c, 1, 62, 127
3, 356734, Note_on_c, 1, 59, 0
3, 356734, Note_on_c, 1, 62, 0
3, 356736, Note_on_c, 1, 64, 92
3, 356782, Note_on_c, 1, 64, 0
3, 356784, Note_on_c, 1, 56, 87
3, 356830, Note_on_c, 1, 56, 0
3, 356832, Note_on_c, 1, 64, 82
3, 356878, Note_on_c, 1, 64, 0
3, 356880, Note_on_c, 1, 59, 77
3, 356880, Note_on_c, 1, 62, 77
3, 356926, Note_on_c, 1, 59, 0
3, 356926, Note_on_c, 1, 62, 0
3, 356928, Note_on_c, 1, 64, 72
3, 356974, Note_on_c, 1, 64, 0
3, 356976, Note_on_c, 1, 56, 67
3, 357022, Note_on_c, 1, 56, 0
3, 357024, Note_on_c, 1, 64, 62
3, 357070, Note_on_c, 1, 64, 0
3, 357072, Note_on_c, 1, 59, 57
3, 357072, Note_on_c, 1, 62, 57
3, 357118, Note_on_c, 1, 59, 0
3, 357118, Note_on_c, 1, 62, 0
3, 357120, Note_on_c, 1, 64, 51
3, 357166, Note_on_c, 1, 64, 0
3, 357168, Note_on_c, 1, 57, 45
3, 357214, Note_on_c, 1, 57, 0
3, 357216, Note_on_c, 1, 64, 45
3, 357262, Note_on_c, 1, 64, 0
3, 357264, Note_on_c, 1, 60, 45
3, 357310, Note_on_c, 1, 60, 0
3, 357312, Note_on_c, 1, 64, 45
3, 357358, Note_on_c, 1, 64, 0
3, 357360, Note_on_c, 1, 57, 45
3, 357406, Note_on_c, 1, 57, 0
3, 357408, Note_on_c, 1, 64, 45
3, 357454, Note_on_c, 1, 64, 0
3, 357456, Note_on_c, 1, 52, 45
3, 357502, Note_on_c, 1, 52, 0
3, 357504, Note_on_c, 1, 62, 45
3, 357550, Note_on_c, 1, 62, 0
3, 357552, Note_on_c, 1, 59, 45
3, 357598, Note_on_c, 1, 59, 0
3, 357600, Note_on_c, 1, 62, 45
3, 357646, Note_on_c, 1, 62, 0
3, 357648, Note_on_c, 1, 52, 45
3, 357694, Note_on_c, 1, 52, 0
3, 357696, Note_on_c, 1, 62, 45
3, 357742, Note_on_c, 1, 62, 0
3, 357744, Note_on_c, 1, 53, 45
3, 357790, Note_on_c, 1, 53, 0
3, 357792, Note_on_c, 1, 60, 45
3, 357838, Note_on_c, 1, 60, 0
3, 357840, Note_on_c, 1, 57, 45
3, 357886, Note_on_c, 1, 57, 0
3, 357888, Note_on_c, 1, 60, 46
3, 357934, Note_on_c, 1, 60, 0
3, 357936, Note_on_c, 1, 53, 48
3, 357982, Note_on_c, 1, 53, 0
3, 357984, Note_on_c, 1, 60, 50
3, 358030, Note_on_c, 1, 60, 0
3, 358032, Note_on_c, 1, 50, 52
3, 358078, Note_on_c, 1, 50, 0
3, 358080, Note_on_c, 1, 58, 54
3, 358126, Note_on_c, 1, 58, 0
3, 358128, Note_on_c, 1, 53, 56
3, 358174, Note_on_c, 1, 53, 0
3, 358176, Note_on_c, 1, 58, 58
3, 358222, Note_on_c, 1, 58, 0
3, 358224, Note_on_c, 1, 50, 60
3, 358270, Note_on_c, 1, 50, 0
3, 358272, Note_on_c, 1, 58, 62
3, 358318, Note_on_c, 1, 58, 0
3, 358320, Note_on_c, 1, 52, 64
3, 358366, Note_on_c, 1, 52, 0
3, 358368, Note_on_c, 1, 60, 66
3, 358414, Note_on_c, 1, 60, 0
3, 358416, Note_on_c, 1, 57, 68
3, 358462, Note_on_c, 1, 57, 0
3, 358464, Note_on_c, 1, 60, 70
3, 358510, Note_on_c, 1, 60, 0
3, 358512, Note_on_c, 1, 52, 72
3, 358558, Note_on_c, 1, 52, 0
3, 358560, Note_on_c, 1, 60, 74
3, 358606, Note_on_c, 1, 60, 0
3, 358608, Note_on_c, 1, 50, 76
3, 358654, Note_on_c, 1, 50, 0
3, 358656, Note_on_c, 1, 59, 78
3, 358702, Note_on_c, 1, 59, 0
3, 358704, Note_on_c, 1, 52, 80
3, 358750, Note_on_c, 1, 52, 0
3, 358752, Note_on_c, 1, 59, 82
3, 358798, Note_on_c, 1, 59, 0
3, 358800, Note_on_c, 1, 50, 84
3, 358846, Note_on_c, 1, 50, 0
3, 358848, Note_on_c, 1, 59, 86
3, 358894, Note_on_c, 1, 59, 0
3, 358896, Note_on_c, 1, 48, 88
3, 358942, Note_on_c, 1, 48, 0
3, 358944, Note_on_c, 1, 57, 90
3, 358990, Note_on_c, 1, 57, 0
3, 358992, Note_on_c, 1, 47, 92
3, 359038, Note_on_c, 1, 47, 0
3, 359040, Note_on_c, 1, 57, 92
3, 359086, Note_on_c, 1, 57, 0
3, 359088, Note_on_c, 1, 48, 92
3, 359134, Note_on_c, 1, 48, 0
3, 359136, Note_on_c, 1, 57, 92
3, 359182, Note_on_c, 1, 57, 0
3, 359184, Note_on_c, 1, 50, 92
3, 359230, Note_on_c, 1, 50, 0
3, 359232, Note_on_c, 1, 57, 92
3, 359232, Note_on_c, 1, 59, 92
3, 359278, Note_on_c, 1, 57, 0
3, 359278, Note_on_c, 1, 59, 0
3, 359280, Note_on_c, 1, 48, 92
3, 359326, Note_on_c, 1, 48, 0
3, 359328, Note_on_c, 1, 57, 92
3, 359328, Note_on_c, 1, 59, 92
3, 359374, Note_on_c, 1, 57, 0
3, 359374, Note_on_c, 1, 59, 0
3, 359376, Note_on_c, 1, 50, 92
3, 359422, Note_on_c, 1, 50, 0
3, 359424, Note_on_c, 1, 57, 92
3, 359424, Note_on_c, 1, 59, 92
3, 359470, Note_on_c, 1, 57, 0
3, 359470, Note_on_c, 1, 59, 0
3, 359472, Note_on_c, 1, 52, 92
3, 359518, Note_on_c, 1, 52, 0
3, 359520, Note_on_c, 1, 57, 92
3, 359520, Note_on_c, 1, 60, 92
3, 359566, Note_on_c, 1, 57, 0
3, 359566, Note_on_c, 1, 60, 0
3, 359568, Note_on_c, 1, 51, 92
3, 359614, Note_on_c, 1, 51, 0
3, 359616, Note_on_c, 1, 57, 92
3, 359616, Note_on_c, 1, 60, 92
3, 359662, Note_on_c, 1, 57, 0
3, 359662, Note_on_c, 1, 60, 0
3, 359664, Note_on_c, 1, 52, 92
3, 359710, Note_on_c, 1, 52, 0
3, 359712, Note_on_c, 1, 57, 92
3, 359712, Note_on_c, 1, 60, 92
3, 359758, Note_on_c, 1, 57, 0
3, 359758, Note_on_c, 1, 60, 0
3, 359760, Note_on_c, 1, 52, 92
3, 359806, Note_on_c, 1, 52, 0
3, 359808, Note_on_c, 1, 59, 92
3, 359808, Note_on_c, 1, 62, 92
3, 359854, Note_on_c, 1, 59, 0
3, 359854, Note_on_c, 1, 62, 0
3, 359856, Note_on_c, 1, 52, 92
3, 359902, Note_on_c, 1, 52, 0
3, 359904, Note_on_c, 1, 57, 92
3, 359904, Note_on_c, 1, 60, 92
3, 359950, Note_on_c, 1, 57, 0
3, 359950, Note_on_c, 1, 60, 0
3, 359952, Note_on_c, 1, 52, 92
3, 359998, Note_on_c, 1, 52, 0
3, 360000, Note_on_c, 1, 56, 92
3, 360000, Note_on_c, 1, 59, 92
3, 360046, Note_on_c, 1, 56, 0
3, 360046, Note_on_c, 1, 59, 0
3, 360048, Note_on_c, 1, 45, 45
3, 360094, Note_on_c, 1, 45, 0
3, 360096, Note_on_c, 1, 60, 45
3, 360142, Note_on_c, 1, 60, 0
3, 360144, Note_on_c, 1, 57, 45
3, 360190, Note_on_c, 1, 57, 0
3, 360192, Note_on_c, 1, 60, 45
3, 360238, Note_on_c, 1, 60, 0
3, 360240, Note_on_c, 1, 52, 45
3, 360286, Note_on_c, 1, 52, 0
3, 360288, Note_on_c, 1, 60, 45
3, 360334, Note_on_c, 1, 60, 0
3, 360336, Note_on_c, 1, 45, 45
3, 360382, Note_on_c, 1, 45, 0
3, 360384, Note_on_c, 1, 60, 45
3, 360430, Note_on_c, 1, 60, 0
3, 360432, Note_on_c, 1, 57, 45
3, 360478, Note_on_c, 1, 57, 0
3, 360480, Note_on_c, 1, 60, 45
3, 360526, Note_on_c, 1, 60, 0
3, 360528, Note_on_c, 1, 52, 45
3, 360574, Note_on_c, 1, 52, 0
3, 360576, Note_on_c, 1, 60, 45
3, 360622, Note_on_c, 1, 60, 0
3, 360624, Note_on_c, 1, 45, 45
3, 360670, Note_on_c, 1, 45, 0
3, 360672, Note_on_c, 1, 60, 45
3, 360718, Note_on_c, 1, 60, 0
3, 360720, Note_on_c, 1, 57, 45
3, 360766, Note_on_c, 1, 57, 0
3, 360768, Note_on_c, 1, 60, 45
3, 360814, Note_on_c, 1, 60, 0
3, 360816, Note_on_c, 1, 52, 45
3, 360862, Note_on_c, 1, 52, 0
3, 360864, Note_on_c, 1, 60, 45
3, 360910, Note_on_c, 1, 60, 0
3, 360912, Note_on_c, 1, 45, 45
3, 360958, Note_on_c, 1, 45, 0
3, 360960, Note_on_c, 1, 60, 45
3, 361006, Note_on_c, 1, 60, 0
3, 361008, Note_on_c, 1, 57, 45
3, 361054, Note_on_c, 1, 57, 0
3, 361056, Note_on_c, 1, 60, 45
3, 361102, Note_on_c, 1, 60, 0
3, 361104, Note_on_c, 1, 52, 45
3, 361150, Note_on_c, 1, 52, 0
3, 361152, Note_on_c, 1, 60, 45
3, 361198, Note_on_c, 1, 60, 0
3, 361200, Note_on_c, 1, 40, 45
3, 361246, Note_on_c, 1, 40, 0
3, 361248, Note_on_c, 1, 60, 45
3, 361294, Note_on_c, 1, 60, 0
3, 361296, Note_on_c, 1, 57, 51
3, 361342, Note_on_c, 1, 57, 0
3, 361344, Note_on_c, 1, 60, 57
3, 361390, Note_on_c, 1, 60, 0
3, 361392, Note_on_c, 1, 52, 63
3, 361438, Note_on_c, 1, 52, 0
3, 361440, Note_on_c, 1, 60, 69
3, 361486, Note_on_c, 1, 60, 0
3, 361488, Note_on_c, 1, 40, 75
3, 361534, Note_on_c, 1, 40, 0
3, 361536, Note_on_c, 1, 62, 75
3, 361582, Note_on_c, 1, 62, 0
3, 361584, Note_on_c, 1, 59, 75
3, 361630, Note_on_c, 1, 59, 0
3, 361632, Note_on_c, 1, 62, 75
3, 361678, Note_on_c, 1, 62, 0
3, 361680, Note_on_c, 1, 52, 75
3, 361726, Note_on_c, 1, 52, 0
3, 361728, Note_on_c, 1, 62, 75
3, 361774, Note_on_c, 1, 62, 0
3, 361776, Note_on_c, 1, 45, 75
3, 361822, Note_on_c, 1, 45, 0
3, 361824, Note_on_c, 1, 60, 75
3, 361870, Note_on_c, 1, 60, 0
3, 361872, Note_on_c, 1, 57, 75
3, 361918, Note_on_c, 1, 57, 0
3, 361920, Note_on_c, 1, 60, 45
3, 361966, Note_on_c, 1, 60, 0
3, 361968, Note_on_c, 1, 52, 45
3, 362014, Note_on_c, 1, 52, 0
3, 362016, Note_on_c, 1, 60, 45
3, 362062, Note_on_c, 1, 60, 0
3, 362064, Note_on_c, 1, 45, 45
3, 362110, Note_on_c, 1, 45, 0
3, 362112, Note_on_c, 1, 60, 45
3, 362158, Note_on_c, 1, 60, 0
3, 362160, Note_on_c, 1, 57, 45
3, 362206, Note_on_c, 1, 57, 0
3, 362208, Note_on_c, 1, 60, 45
3, 362254, Note_on_c, 1, 60, 0
3, 362256, Note_on_c, 1, 52, 45
3, 362302, Note_on_c, 1, 52, 0
3, 362304, Note_on_c, 1, 60, 45
3, 362350, Note_on_c, 1, 60, 0
3, 362352, Note_on_c, 1, 45, 45
3, 362398, Note_on_c, 1, 45, 0
3, 362400, Note_on_c, 1, 60, 45
3, 362446, Note_on_c, 1, 60, 0
3, 362448, Note_on_c, 1, 57, 45
3, 362494, Note_on_c, 1, 57, 0
3, 362496, Note_on_c, 1, 60, 45
3, 362542, Note_on_c, 1, 60, 0
3, 362544, Note_on_c, 1, 52, 45
3, 362590, Note_on_c, 1, 52, 0
3, 362592, Note_on_c, 1, 60, 45
3, 362638, Note_on_c, 1, 60, 0
3, 362640, Note_on_c, 1, 45, 45
3, 362686, Note_on_c, 1, 45, 0
3, 362688, Note_on_c, 1, 60, 45
3, 362734, Note_on_c, 1, 60, 0
3, 362736, Note_on_c, 1, 57, 45
3, 362782, Note_on_c, 1, 57, 0
3, 362784, Note_on_c, 1, 60, 45
3, 362830, Note_on_c, 1, 60, 0
3, 362832, Note_on_c, 1, 52, 45
3, 362878, Note_on_c, 1, 52, 0
3, 362880, Note_on_c, 1, 60, 45
3, 362926, Note_on_c, 1, 60, 0
3, 362928, Note_on_c, 1, 40, 45
3, 362974, Note_on_c, 1, 40, 0
3, 362976, Note_on_c, 1, 60, 45
3, 363022, Note_on_c, 1, 60, 0
3, 363024, Note_on_c, 1, 57, 45
3, 363070, Note_on_c, 1, 57, 0
3, 363072, Note_on_c, 1, 60, 45
3, 363118, Note_on_c, 1, 60, 0
3, 363120, Note_on_c, 1, 52, 45
3, 363166, Note_on_c, 1, 52, 0
3, 363168, Note_on_c, 1, 60, 45
3, 363214, Note_on_c, 1, 60, 0
3, 363216, Note_on_c, 1, 40, 45
3, 363262, Note_on_c, 1, 40, 0
3, 363264, Note_on_c, 1, 62, 45
3, 363310, Note_on_c, 1, 62, 0
3, 363312, Note_on_c, 1, 59, 45
3, 363358, Note_on_c, 1, 59, 0
3, 363360, Note_on_c, 1, 62, 45
3, 363406, Note_on_c, 1, 62, 0
3, 363408, Note_on_c, 1, 52, 45
3, 363454, Note_on_c, 1, 52, 0
3, 363456, Note_on_c, 1, 62, 45
3, 363502, Note_on_c, 1, 62, 0
3, 363504, Note_on_c, 1, 45, 45
3, 363550, Note_on_c, 1, 45, 0
3, 363552, Note_on_c, 1, 57, 50
3, 363598, Note_on_c, 1, 57, 0
3, 363600, Note_on_c, 1, 56, 55
3, 363646, Note_on_c, 1, 56, 0
3, 363648, Note_on_c, 1, 57, 60
3, 363694, Note_on_c, 1, 57, 0
3, 363696, Note_on_c, 1, 55, 65
3, 363742, Note_on_c, 1, 55, 0
3, 363744, Note_on_c, 1, 57, 70
3, 363790, Note_on_c, 1, 57, 0
3, 363792, Note_on_c, 1, 53, 75
3, 363838, Note_on_c, 1, 53, 0
3, 363840, Note_on_c, 1, 57, 73
3, 363886, Note_on_c, 1, 57, 0
3, 363888, Note_on_c, 1, 52, 71
3, 363934, Note_on_c, 1, 52, 0
3, 363936, Note_on_c, 1, 57, 69
3, 363982, Note_on_c, 1, 57, 0
3, 363984, Note_on_c, 1, 51, 67
3, 364030, Note_on_c, 1, 51, 0
3, 364032, Note_on_c, 1, 57, 65
3, 364078, Note_on_c, 1, 57, 0
3, 364080, Note_on_c, 1, 52, 63
3, 364126, Note_on_c, 1, 52, 0
3, 364128, Note_on_c, 1, 57, 60
3, 364174, Note_on_c, 1, 57, 0
3, 364176, Note_on_c, 1, 59, 57
3, 364222, Note_on_c, 1, 59, 0
3, 364224, Note_on_c, 1, 52, 54
3, 364270, Note_on_c, 1, 52, 0
3, 364272, Note_on_c, 1, 60, 51
3, 364318, Note_on_c, 1, 60, 0
3, 364320, Note_on_c, 1, 52, 48
3, 364366, Note_on_c, 1, 52, 0
3, 364368, Note_on_c, 1, 62, 45
3, 364414, Note_on_c, 1, 62, 0
3, 364416, Note_on_c, 1, 52, 45
3, 364462, Note_on_c, 1, 52, 0
3, 364464, Note_on_c, 1, 60, 45
3, 364510, Note_on_c, 1, 60, 0
3, 364512, Note_on_c, 1, 52, 45
3, 364558, Note_on_c, 1, 52, 0
3, 364560, Note_on_c, 1, 59, 45
3, 364606, Note_on_c, 1, 59, 0
3, 364608, Note_on_c, 1, 52, 45
3, 364654, Note_on_c, 1, 52, 0
3, 364656, Note_on_c, 1, 45, 45
3, 364702, Note_on_c, 1, 45, 0
3, 364704, Note_on_c, 1, 57, 50
3, 364750, Note_on_c, 1, 57, 0
3, 364752, Note_on_c, 1, 56, 55
3, 364798, Note_on_c, 1, 56, 0
3, 364800, Note_on_c, 1, 57, 60
3, 364846, Note_on_c, 1, 57, 0
3, 364848, Note_on_c, 1, 55, 65
3, 364894, Note_on_c, 1, 55, 0
3, 364896, Note_on_c, 1, 57, 70
3, 364942, Note_on_c, 1, 57, 0
3, 364944, Note_on_c, 1, 53, 75
3, 364990, Note_on_c, 1, 53, 0
3, 364992, Note_on_c, 1, 57, 70
3, 365038, Note_on_c, 1, 57, 0
3, 365040, Note_on_c, 1, 52, 65
3, 365086, Note_on_c, 1, 52, 0
3, 365088, Note_on_c, 1, 57, 60
3, 365134, Note_on_c, 1, 57, 0
3, 365136, Note_on_c, 1, 51, 55
3, 365182, Note_on_c, 1, 51, 0
3, 365184, Note_on_c, 1, 57, 50
3, 365230, Note_on_c, 1, 57, 0
3, 365232, Note_on_c, 1, 52, 45
3, 365278, Note_on_c, 1, 52, 0
3, 365280, Note_on_c, 1, 57, 45
3, 365326, Note_on_c, 1, 57, 0
3, 365328, Note_on_c, 1, 65, 45
3, 365374, Note_on_c, 1, 65, 0
3, 365376, Note_on_c, 1, 52, 45
3, 365422, Note_on_c, 1, 52, 0
3, 365424, Note_on_c, 1, 64, 45
3, 365470, Note_on_c, 1, 64, 0
3, 365472, Note_on_c, 1, 52, 45
3, 365518, Note_on_c, 1, 52, 0
3, 365520, Note_on_c, 1, 62, 45
3, 365566, Note_on_c, 1, 62, 0
3, 365568, Note_on_c, 1, 52, 45
3, 365614, Note_on_c, 1, 52, 0
3, 365616, Note_on_c, 1, 60, 45
3, 365662, Note_on_c, 1, 60, 0
3, 365664, Note_on_c, 1, 52, 45
3, 365710, Note_on_c, 1, 52, 0
3, 365712, Note_on_c, 1, 59, 45
3, 365758, Note_on_c, 1, 59, 0
3, 365760, Note_on_c, 1, 52, 45
3, 365806, Note_on_c, 1, 52, 0
3, 365808, Note_on_c, 1, 45, 63
3, 365854, Note_on_c, 1, 45, 0
3, 365856, Note_on_c, 1, 57, 45
3, 365902, Note_on_c, 1, 57, 0
3, 365904, Note_on_c, 1, 56, 45
3, 365950, Note_on_c, 1, 56, 0
3, 365952, Note_on_c, 1, 57, 45
3, 365998, Note_on_c, 1, 57, 0
3, 366000, Note_on_c, 1, 45, 45
3, 366046, Note_on_c, 1, 45, 0
3, 366048, Note_on_c, 1, 57, 45
3, 366094, Note_on_c, 1, 57, 0
3, 366096, Note_on_c, 1, 56, 63
3, 366142, Note_on_c, 1, 56, 0
3, 366144, Note_on_c, 1, 57, 45
3, 366190, Note_on_c, 1, 57, 0
3, 366192, Note_on_c, 1, 45, 45
3, 366238, Note_on_c, 1, 45, 0
3, 366240, Note_on_c, 1, 57, 45
3, 366286, Note_on_c, 1, 57, 0
3, 366288, Note_on_c, 1, 56, 45
3, 366334, Note_on_c, 1, 56, 0
3, 366336, Note_on_c, 1, 57, 45
3, 366382, Note_on_c, 1, 57, 0
3, 366384, Note_on_c, 1, 45, 63
3, 366430, Note_on_c, 1, 45, 0
3, 366432, Note_on_c, 1, 57, 45
3, 366478, Note_on_c, 1, 57, 0
3, 366480, Note_on_c, 1, 56, 45
3, 366526, Note_on_c, 1, 56, 0
3, 366528, Note_on_c, 1, 57, 45
3, 366574, Note_on_c, 1, 57, 0
3, 366576, Note_on_c, 1, 45, 45
3, 366622, Note_on_c, 1, 45, 0
3, 366624, Note_on_c, 1, 57, 45
3, 366670, Note_on_c, 1, 57, 0
3, 366672, Note_on_c, 1, 56, 63
3, 366718, Note_on_c, 1, 56, 0
3, 366720, Note_on_c, 1, 57, 45
3, 366766, Note_on_c, 1, 57, 0
3, 366768, Note_on_c, 1, 45, 45
3, 366814, Note_on_c, 1, 45, 0
3, 366816, Note_on_c, 1, 57, 45
3, 366862, Note_on_c, 1, 57, 0
3, 366864, Note_on_c, 1, 56, 45
3, 366910, Note_on_c, 1, 56, 0
3, 366912, Note_on_c, 1, 57, 45
3, 366958, Note_on_c, 1, 57, 0
3, 366960, Note_on_c, 1, 61, 45
3, 366960, Note_on_c, 1, 64, 45
3, 366960, Note_on_c, 1, 67, 45
3, 367054, Note_on_c, 1, 61, 0
3, 367054, Note_on_c, 1, 64, 0
3, 367054, Note_on_c, 1, 67, 0
3, 368112, Note_on_c, 1, 45, 45
3, 368160, Note_on_c, 1, 48, 45
3, 368206, Note_on_c, 1, 48, 0
3, 368208, Note_on_c, 1, 52, 45
3, 368254, Note_on_c, 1, 45, 0
3, 368254, Note_on_c, 1, 52, 0
3, 368400, Note_on_c, 1, 46, 45
3, 368448, Note_on_c, 1, 48, 45
3, 368494, Note_on_c, 1, 48, 0
3, 368496, Note_on_c, 1, 52, 45
3, 368542, Note_on_c, 1, 46, 0
3, 368542, Note_on_c, 1, 52, 0
3, 368688, Note_on_c, 1, 46, 45
3, 368736, Note_on_c, 1, 48, 45
3, 368782, Note_on_c, 1, 48, 0
3, 368784, Note_on_c, 1, 52, 45
3, 368830, Note_on_c, 1, 46, 0
3, 368830, Note_on_c, 1, 52, 0
3, 368976, Note_on_c, 1, 46, 45
3, 369024, Note_on_c, 1, 48, 45
3, 369070, Note_on_c, 1, 48, 0
3, 369072, Note_on_c, 1, 52, 45
3, 369118, Note_on_c, 1, 46, 0
3, 369118, Note_on_c, 1, 52, 0
3, 369264, Note_on_c, 1, 31, 92
3, 369312, Note_on_c, 1, 34, 92
3, 369360, Note_on_c, 1, 38, 92
3, 369408, Note_on_c, 1, 43, 92
3, 369550, Note_on_c, 1, 31, 0
3, 369550, Note_on_c, 1, 34, 0
3, 369550, Note_on_c, 1, 38, 0
3, 369550, Note_on_c, 1, 43, 0
3, 369552, Note_on_c, 1, 43, 92
3, 369600, Note_on_c, 1, 46, 92
3, 369648, Note_on_c, 1, 50, 92
3, 369696, Note_on_c, 1, 55, 92
3, 369838, Note_on_c, 1, 43, 0
3, 369838, Note_on_c, 1, 46, 0
3, 369838, Note_on_c, 1, 50, 0
3, 369838, Note_on_c, 1, 55, 0
3, 369840, Note_on_c, 1, 55, 92
3, 369888, Note_on_c, 1, 58, 92
3, 369936, Note_on_c, 1, 62, 92
3, 369984, Note_on_c, 1, 67, 92
3, 370126, Note_on_c, 1, 55, 0
3, 370126, Note_on_c, 1, 58, 0
3, 370126, Note_on_c, 1, 62, 0
3, 370126, Note_on_c, 1, 67, 0
3, 370128, Note_on_c, 1, 67, 92
3, 370176, Note_on_c, 1, 67, 0
3, 370176, Note_on_c, 1, 70, 92
3, 370224, Note_on_c, 1, 70, 0
3, 370224, Note_on_c, 1, 74, 92
3, 370272, Note_on_c, 1, 74, 0
3, 370272, Note_on_c, 1, 72, 92
3, 370320, Note_on_c, 1, 72, 0
3, 370320, Note_on_c, 1, 71, 92
3, 370368, Note_on_c, 1, 71, 0
3, 370368, Note_on_c, 1, 69, 92
3, 370414, Note_on_c, 1, 69, 0
3, 370416, Note_on_c, 1, 68, 45
3, 370464, Note_on_c, 1, 71, 45
3, 370510, Note_on_c, 1, 71, 0
3, 370512, Note_on_c, 1, 74, 45
3, 370558, Note_on_c, 1, 68, 0
3, 370558, Note_on_c, 1, 74, 0
3, 370704, Note_on_c, 1, 68, 45
3, 370752, Note_on_c, 1, 71, 45
3, 370798, Note_on_c, 1, 71, 0
3, 370800, Note_on_c, 1, 74, 45
3, 370846, Note_on_c, 1, 68, 0
3, 370846, Note_on_c, 1, 74, 0
3, 370992, Note_on_c, 1, 68, 45
3, 371040, Note_on_c, 1, 71, 45
3, 371086, Note_on_c, 1, 71, 0
3, 371088, Note_on_c, 1, 74, 45
3, 371134, Note_on_c, 1, 68, 0
3, 371134, Note_on_c, 1, 74, 0
3, 371280, Note_on_c, 1, 68, 45
3, 371328, Note_on_c, 1, 71, 45
3, 371374, Note_on_c, 1, 71, 0
3, 371376, Note_on_c, 1, 74, 45
3, 371422, Note_on_c, 1, 68, 0
3, 371422, Note_on_c, 1, 74, 0
3, 371568, Note_on_c, 1, 33, 92
3, 371616, Note_on_c, 1, 36, 92
3, 371664, Note_on_c, 1, 40, 92
3, 371712, Note_on_c, 1, 45, 92
3, 371854, Note_on_c, 1, 33, 0
3, 371854, Note_on_c, 1, 36, 0
3, 371854, Note_on_c, 1, 40, 0
3, 371854, Note_on_c, 1, 45, 0
3, 371856, Note_on_c, 1, 45, 92
3, 371904, Note_on_c, 1, 48, 92
3, 371952, Note_on_c, 1, 52, 92
3, 372000, Note_on_c, 1, 57, 92
3, 372046, Note_on_c, 1, 45, 0
3, 372142, Note_on_c, 1, 48, 0
3, 372142, Note_on_c, 1, 52, 0
3, 372142, Note_on_c, 1, 57, 0
3, 372144, Note_on_c, 1, 57, 92
3, 372192, Note_on_c, 1, 60, 92
3, 372240, Note_on_c, 1, 64, 92
3, 372288, Note_on_c, 1, 69, 92
3, 372478, Note_on_c, 1, 57, 0
3, 372478, Note_on_c, 1, 60, 0
3, 372478, Note_on_c, 1, 64, 0
3, 372478, Note_on_c, 1, 69, 0
3, 372480, Note_on_c, 1, 45, 92
3, 372528, Note_on_c, 1, 45, 0
3, 372528, Note_on_c, 1, 46, 92
3, 372576, Note_on_c, 1, 46, 0
3, 372576, Note_on_c, 1, 43, 92
3, 372624, Note_on_c, 1, 43, 0
3, 372624, Note_on_c, 1, 52, 92
3, 372672, Note_on_c, 1, 52, 0
3, 372672, Note_on_c, 1, 50, 92
3, 372720, Note_on_c, 1, 50, 0
3, 372720, Note_on_c, 1, 49, 92
3, 372752, Note_on_c, 1, 49, 0
3, 372864, Note_on_c, 1, 49, 92
3, 372912, Note_on_c, 1, 49, 0
3, 372912, Note_on_c, 1, 55, 92
3, 372960, Note_on_c, 1, 55, 0
3, 372960, Note_on_c, 1, 53, 92
3, 373008, Note_on_c, 1, 53, 0
3, 373008, Note_on_c, 1, 52, 92
3, 373040, Note_on_c, 1, 52, 0
3, 373152, Note_on_c, 1, 52, 92
3, 373200, Note_on_c, 1, 52, 0
3, 373200, Note_on_c, 1, 58, 92
3, 373248, Note_on_c, 1, 58, 0
3, 373248, Note_on_c, 1, 57, 92
3, 373296, Note_on_c, 1, 57, 0
3, 373296, Note_on_c, 1, 55, 92
3, 373328, Note_on_c, 1, 55, 0
3, 373440, Note_on_c, 1, 55, 92
3, 373488, Note_on_c, 1, 55, 0
3, 373488, Note_on_c, 1, 64, 92
3, 373536, Note_on_c, 1, 64, 0
3, 373536, Note_on_c, 1, 62, 92
3, 373584, Note_on_c, 1, 62, 0
3, 373584, Note_on_c, 1, 61, 92
3, 373616, Note_on_c, 1, 61, 0
3, 373728, Note_on_c, 1, 41, 92
3, 373776, Note_on_c, 1, 41, 0
3, 373776, Note_on_c, 1, 45, 92
3, 373824, Note_on_c, 1, 45, 0
3, 373824, Note_on_c, 1, 43, 92
3, 373872, Note_on_c, 1, 43, 0
3, 373872, Note_on_c, 1, 41, 92
3, 373904, Note_on_c, 1, 41, 0
3, 374016, Note_on_c, 1, 41, 92
3, 374064, Note_on_c, 1, 41, 0
3, 374064, Note_on_c, 1, 53, 92
3, 374112, Note_on_c, 1, 53, 0
3, 374112, Note_on_c, 1, 52, 92
3, 374160, Note_on_c, 1, 52, 0
3, 374160, Note_on_c, 1, 50, 92
3, 374192, Note_on_c, 1, 50, 0
3, 374304, Note_on_c, 1, 50, 92
3, 374352, Note_on_c, 1, 50, 0
3, 374352, Note_on_c, 1, 57, 92
3, 374400, Note_on_c, 1, 57, 0
3, 374400, Note_on_c, 1, 55, 92
3, 374448, Note_on_c, 1, 55, 0
3, 374448, Note_on_c, 1, 53, 92
3, 374480, Note_on_c, 1, 53, 0
3, 374592, Note_on_c, 1, 53, 92
3, 374640, Note_on_c, 1, 53, 0
3, 374640, Note_on_c, 1, 65, 92
3, 374688, Note_on_c, 1, 65, 0
3, 374688, Note_on_c, 1, 64, 92
3, 374736, Note_on_c, 1, 64, 0
3, 374736, Note_on_c, 1, 62, 92
3, 374784, Note_on_c, 1, 62, 0
3, 374784, Note_on_c, 1, 65, 92
3, 374832, Note_on_c, 1, 65, 0
3, 374832, Note_on_c, 1, 68, 92
3, 374878, Note_on_c, 1, 68, 0
3, 375072, Note_on_c, 1, 38, 92
3, 375120, Note_on_c, 1, 38, 0
3, 375120, Note_on_c, 1, 41, 92
3, 375168, Note_on_c, 1, 41, 0
3, 375168, Note_on_c, 1, 44, 92
3, 375216, Note_on_c, 1, 44, 0
3, 375216, Note_on_c, 1, 47, 92
3, 375248, Note_on_c, 1, 47, 0
3, 375360, Note_on_c, 1, 41, 92
3, 375408, Note_on_c, 1, 41, 0
3, 375408, Note_on_c, 1, 44, 92
3, 375456, Note_on_c, 1, 44, 0
3, 375456, Note_on_c, 1, 47, 92
3, 375504, Note_on_c, 1, 47, 0
3, 375504, Note_on_c, 1, 50, 92
3, 375536, Note_on_c, 1, 50, 0
3, 375648, Note_on_c, 1, 47, 92
3, 375696, Note_on_c, 1, 47, 0
3, 375696, Note_on_c, 1, 50, 92
3, 375744, Note_on_c, 1, 50, 0
3, 375744, Note_on_c, 1, 53, 92
3, 375792, Note_on_c, 1, 53, 0
3, 375792, Note_on_c, 1, 56, 92
3, 375824, Note_on_c, 1, 56, 0
3, 375936, Note_on_c, 1, 56, 92
3, 375984, Note_on_c, 1, 56, 0
3, 375984, Note_on_c, 1, 55, 92
3, 376032, Note_on_c, 1, 55, 0
3, 376032, Note_on_c, 1, 53, 92
3, 376080, Note_on_c, 1, 53, 0
3, 376080, Note_on_c, 1, 51, 92
3, 376128, Note_on_c, 1, 51, 0
3, 376128, Note_on_c, 1, 50, 92
3, 376176, Note_on_c, 1, 50, 0
3, 376176, Note_on_c, 1, 48, 92
3, 376222, Note_on_c, 1, 48, 0
3, 376224, Note_on_c, 1, 39, 92
3, 376272, Note_on_c, 1, 39, 0
3, 376272, Note_on_c, 1, 43, 92
3, 376320, Note_on_c, 1, 43, 0
3, 376320, Note_on_c, 1, 48, 92
3, 376366, Note_on_c, 1, 48, 0
3, 376512, Note_on_c, 1, 43, 92
3, 376560, Note_on_c, 1, 43, 0
3, 376560, Note_on_c, 1, 48, 92
3, 376608, Note_on_c, 1, 48, 0
3, 376608, Note_on_c, 1, 51, 92
3, 376654, Note_on_c, 1, 51, 0
3, 376800, Note_on_c, 1, 48, 92
3, 376848, Note_on_c, 1, 48, 0
3, 376848, Note_on_c, 1, 51, 92
3, 376896, Note_on_c, 1, 51, 0
3, 376896, Note_on_c, 1, 55, 92
3, 376942, Note_on_c, 1, 55, 0
3, 377184, Note_on_c, 1, 36, 92
3, 377232, Note_on_c, 1, 36, 0
3, 377232, Note_on_c, 1, 48, 92
3, 377280, Note_on_c, 1, 48, 0
3, 377280, Note_on_c, 1, 46, 92
3, 377328, Note_on_c, 1, 46, 0
3, 377328, Note_on_c, 1, 45, 92
3, 377360, Note_on_c, 1, 45, 0
3, 377472, Note_on_c, 1, 45, 92
3, 377520, Note_on_c, 1, 45, 0
3, 377520, Note_on_c, 1, 51, 92
3, 377568, Note_on_c, 1, 51, 0
3, 377568, Note_on_c, 1, 49, 92
3, 377616, Note_on_c, 1, 49, 0
3, 377616, Note_on_c, 1, 48, 92
3, 377648, Note_on_c, 1, 48, 0
3, 377760, Note_on_c, 1, 48, 92
3, 377808, Note_on_c, 1, 48, 0
3, 377808, Note_on_c, 1, 54, 92
3, 377856, Note_on_c, 1, 54, 0
3, 377856, Note_on_c, 1, 53, 92
3, 377904, Note_on_c, 1, 53, 0
3, 377904, Note_on_c, 1, 51, 92
3, 377936, Note_on_c, 1, 51, 0
3, 378048, Note_on_c, 1, 51, 92
3, 378096, Note_on_c, 1, 51, 0
3, 378096, Note_on_c, 1, 60, 92
3, 378144, Note_on_c, 1, 60, 0
3, 378144, Note_on_c, 1, 58, 92
3, 378192, Note_on_c, 1, 58, 0
3, 378192, Note_on_c, 1, 57, 92
3, 378224, Note_on_c, 1, 57, 0
3, 378336, Note_on_c, 1, 37, 92
3, 378384, Note_on_c, 1, 37, 0
3, 378384, Note_on_c, 1, 49, 92
3, 378432, Note_on_c, 1, 49, 0
3, 378432, Note_on_c, 1, 48, 92
3, 378480, Note_on_c, 1, 48, 0
3, 378480, Note_on_c, 1, 46, 92
3, 378512, Note_on_c, 1, 46, 0
3, 378624, Note_on_c, 1, 46, 92
3, 378672, Note_on_c, 1, 46, 0
3, 378672, Note_on_c, 1, 53, 92
3, 378720, Note_on_c, 1, 53, 0
3, 378720, Note_on_c, 1, 51, 92
3, 378768, Note_on_c, 1, 51, 0
3, 378768, Note_on_c, 1, 49, 92
3, 378800, Note_on_c, 1, 49, 0
3, 378912, Note_on_c, 1, 49, 92
3, 378958, Note_on_c, 1, 49, 0
3, 378960, Note_on_c, 1, 61, 92
3, 379006, Note_on_c, 1, 61, 0
3, 379008, Note_on_c, 1, 60, 92
3, 379054, Note_on_c, 1, 60, 0
3, 379056, Note_on_c, 1, 58, 92
3, 379088, Note_on_c, 1, 58, 0
3, 379200, Note_on_c, 1, 58, 92
3, 379248, Note_on_c, 1, 58, 0
3, 379248, Note_on_c, 1, 65, 92
3, 379296, Note_on_c, 1, 65, 0
3, 379296, Note_on_c, 1, 63, 92
3, 379344, Note_on_c, 1, 63, 0
3, 379344, Note_on_c, 1, 61, 92
3, 379392, Note_on_c, 1, 61, 0
3, 379392, Note_on_c, 1, 65, 92
3, 379440, Note_on_c, 1, 65, 0
3, 379440, Note_on_c, 1, 70, 92
3, 379486, Note_on_c, 1, 70, 0
3, 379680, Note_on_c, 1, 39, 92
3, 379728, Note_on_c, 1, 39, 0
3, 379728, Note_on_c, 1, 42, 92
3, 379776, Note_on_c, 1, 42, 0
3, 379776, Note_on_c, 1, 46, 92
3, 379822, Note_on_c, 1, 46, 0
3, 379968, Note_on_c, 1, 42, 92
3, 380016, Note_on_c, 1, 42, 0
3, 380016, Note_on_c, 1, 46, 92
3, 380064, Note_on_c, 1, 46, 0
3, 380064, Note_on_c, 1, 51, 92
3, 380110, Note_on_c, 1, 51, 0
3, 380256, Note_on_c, 1, 46, 92
3, 380304, Note_on_c, 1, 46, 0
3, 380304, Note_on_c, 1, 51, 92
3, 380352, Note_on_c, 1, 51, 0
3, 380352, Note_on_c, 1, 54, 92
3, 380398, Note_on_c, 1, 54, 0
3, 380544, Note_on_c, 1, 51, 92
3, 380592, Note_on_c, 1, 51, 0
3, 380592, Note_on_c, 1, 54, 92
3, 380640, Note_on_c, 1, 54, 0
3, 380640, Note_on_c, 1, 58, 92
3, 380686, Note_on_c, 1, 58, 0
3, 380832, Note_on_c, 1, 41, 92
3, 380880, Note_on_c, 1, 41, 0
3, 380880, Note_on_c, 1, 46, 92
3, 380928, Note_on_c, 1, 46, 0
3, 380928, Note_on_c, 1, 49, 92
3, 380974, Note_on_c, 1, 49, 0
3, 381120, Note_on_c, 1, 46, 92
3, 381168, Note_on_c, 1, 46, 0
3, 381168, Note_on_c, 1, 49, 92
3, 381216, Note_on_c, 1, 49, 0
3, 381216, Note_on_c, 1, 53, 92
3, 381262, Note_on_c, 1, 53, 0
3, 381408, Note_on_c, 1, 49, 92
3, 381456, Note_on_c, 1, 49, 0
3, 381456, Note_on_c, 1, 53, 92
3, 381504, Note_on_c, 1, 53, 0
3, 381504, Note_on_c, 1, 58, 92
3, 381550, Note_on_c, 1, 58, 0
3, 381696, Note_on_c, 1, 53, 92
3, 381744, Note_on_c, 1, 53, 0
3, 381744, Note_on_c, 1, 58, 92
3, 381792, Note_on_c, 1, 58, 0
3, 381792, Note_on_c, 1, 61, 92
3, 381838, Note_on_c, 1, 61, 0
3, 381984, Note_on_c, 1, 42, 92
3, 382032, Note_on_c, 1, 42, 0
3, 382032, Note_on_c, 1, 46, 92
3, 382080, Note_on_c, 1, 46, 0
3, 382080, Note_on_c, 1, 49, 92
3, 382126, Note_on_c, 1, 49, 0
3, 382272, Note_on_c, 1, 54, 92
3, 382320, Note_on_c, 1, 54, 0
3, 382320, Note_on_c, 1, 58, 92
3, 382368, Note_on_c, 1, 58, 0
3, 382368, Note_on_c, 1, 61, 92
3, 382414, Note_on_c, 1, 61, 0
3, 382560, Note_on_c, 1, 43, 92
3, 382608, Note_on_c, 1, 43, 0
3, 382608, Note_on_c, 1, 46, 92
3, 382656, Note_on_c, 1, 46, 0
3, 382656, Note_on_c, 1, 51, 92
3, 382702, Note_on_c, 1, 51, 0
3, 382848, Note_on_c, 1, 55, 92
3, 382896, Note_on_c, 1, 55, 0
3, 382896, Note_on_c, 1, 58, 92
3, 382944, Note_on_c, 1, 58, 0
3, 382944, Note_on_c, 1, 63, 92
3, 382990, Note_on_c, 1, 63, 0
3, 383136, Note_on_c, 1, 44, 92
3, 383184, Note_on_c, 1, 44, 0
3, 383184, Note_on_c, 1, 48, 92
3, 383232, Note_on_c, 1, 48, 0
3, 383232, Note_on_c, 1, 51, 92
3, 383278, Note_on_c, 1, 51, 0
3, 383424, Note_on_c, 1, 56, 92
3, 383472, Note_on_c, 1, 56, 0
3, 383472, Note_on_c, 1, 60, 92
3, 383520, Note_on_c, 1, 60, 0
3, 383520, Note_on_c, 1, 63, 108
3, 383566, Note_on_c, 1, 63, 0
3, 383712, Note_on_c, 1, 45, 108
3, 383760, Note_on_c, 1, 45, 0
3, 383760, Note_on_c, 1, 48, 108
3, 383808, Note_on_c, 1, 48, 0
3, 383808, Note_on_c, 1, 53, 108
3, 383854, Note_on_c, 1, 53, 0
3, 384000, Note_on_c, 1, 57, 108
3, 384048, Note_on_c, 1, 57, 0
3, 384048, Note_on_c, 1, 60, 108
3, 384094, Note_on_c, 1, 60, 0
3, 384240, Note_on_c, 1, 46, 45
3, 384286, Note_on_c, 1, 46, 0
3, 384288, Note_on_c, 1, 53, 45
3, 384336, Note_on_c, 1, 58, 45
3, 384382, Note_on_c, 1, 58, 0
3, 384384, Note_on_c, 1, 61, 45
3, 384430, Note_on_c, 1, 61, 0
3, 384526, Note_on_c, 1, 53, 0
3, 384528, Note_on_c, 1, 46, 45
3, 384574, Note_on_c, 1, 46, 0
3, 384576, Note_on_c, 1, 53, 45
3, 384624, Note_on_c, 1, 58, 45
3, 384670, Note_on_c, 1, 58, 0
3, 384672, Note_on_c, 1, 61, 45
3, 384718, Note_on_c, 1, 61, 0
3, 384814, Note_on_c, 1, 53, 0
3, 384816, Note_on_c, 1, 46, 45
3, 384862, Note_on_c, 1, 46, 0
3, 384864, Note_on_c, 1, 53, 45
3, 384912, Note_on_c, 1, 58, 45
3, 384958, Note_on_c, 1, 58, 0
3, 384960, Note_on_c, 1, 61, 45
3, 385006, Note_on_c, 1, 61, 0
3, 385102, Note_on_c, 1, 53, 0
3, 385104, Note_on_c, 1, 41, 45
3, 385150, Note_on_c, 1, 41, 0
3, 385152, Note_on_c, 1, 53, 45
3, 385200, Note_on_c, 1, 57, 45
3, 385246, Note_on_c, 1, 57, 0
3, 385248, Note_on_c, 1, 60, 45
3, 385294, Note_on_c, 1, 60, 0
3, 385390, Note_on_c, 1, 53, 0
3, 385392, Note_on_c, 1, 41, 45
3, 385438, Note_on_c, 1, 41, 0
3, 385440, Note_on_c, 1, 53, 45
3, 385488, Note_on_c, 1, 57, 45
3, 385534, Note_on_c, 1, 57, 0
3, 385536, Note_on_c, 1, 60, 45
3, 385582, Note_on_c, 1, 60, 0
3, 385678, Note_on_c, 1, 53, 0
3, 385680, Note_on_c, 1, 41, 45
3, 385726, Note_on_c, 1, 41, 0
3, 385728, Note_on_c, 1, 53, 45
3, 385776, Note_on_c, 1, 57, 45
3, 385822, Note_on_c, 1, 57, 0
3, 385824, Note_on_c, 1, 60, 45
3, 385870, Note_on_c, 1, 60, 0
3, 385966, Note_on_c, 1, 53, 0
3, 385968, Note_on_c, 1, 41, 45
3, 386014, Note_on_c, 1, 41, 0
3, 386016, Note_on_c, 1, 53, 45
3, 386064, Note_on_c, 1, 57, 45
3, 386110, Note_on_c, 1, 57, 0
3, 386112, Note_on_c, 1, 60, 45
3, 386158, Note_on_c, 1, 60, 0
3, 386254, Note_on_c, 1, 53, 0
3, 386256, Note_on_c, 1, 46, 45
3, 386302, Note_on_c, 1, 46, 0
3, 386304, Note_on_c, 1, 53, 45
3, 386352, Note_on_c, 1, 58, 45
3, 386398, Note_on_c, 1, 58, 0
3, 386400, Note_on_c, 1, 61, 45
3, 386446, Note_on_c, 1, 61, 0
3, 386542, Note_on_c, 1, 53, 0
3, 386544, Note_on_c, 1, 46, 45
3, 386590, Note_on_c, 1, 46, 0
3, 386592, Note_on_c, 1, 53, 45
3, 386640, Note_on_c, 1, 58, 45
3, 386686, Note_on_c, 1, 58, 0
3, 386688, Note_on_c, 1, 61, 45
3, 386734, Note_on_c, 1, 61, 0
3, 386830, Note_on_c, 1, 53, 0
3, 386832, Note_on_c, 1, 46, 46
3, 386878, Note_on_c, 1, 46, 0
3, 386880, Note_on_c, 1, 53, 46
3, 386928, Note_on_c, 1, 58, 46
3, 386974, Note_on_c, 1, 58, 0
3, 386976, Note_on_c, 1, 61, 46
3, 387022, Note_on_c, 1, 61, 0
3, 387118, Note_on_c, 1, 53, 0
3, 387120, Note_on_c, 1, 46, 47
3, 387166, Note_on_c, 1, 46, 0
3, 387168, Note_on_c, 1, 54, 47
3, 387216, Note_on_c, 1, 58, 47
3, 387262, Note_on_c, 1, 58, 0
3, 387264, Note_on_c, 1, 61, 47
3, 387310, Note_on_c, 1, 61, 0
3, 387406, Note_on_c, 1, 54, 0
3, 387408, Note_on_c, 1, 46, 50
3, 387454, Note_on_c, 1, 46, 0
3, 387456, Note_on_c, 1, 54, 51
3, 387504, Note_on_c, 1, 58, 51
3, 387550, Note_on_c, 1, 58, 0
3, 387552, Note_on_c, 1, 61, 52
3, 387598, Note_on_c, 1, 61, 0
3, 387694, Note_on_c, 1, 54, 0
3, 387696, Note_on_c, 1, 46, 55
3, 387742, Note_on_c, 1, 46, 0
3, 387744, Note_on_c, 1, 55, 56
3, 387792, Note_on_c, 1, 61, 57
3, 387838, Note_on_c, 1, 61, 0
3, 387840, Note_on_c, 1, 64, 58
3, 387886, Note_on_c, 1, 64, 0
3, 387982, Note_on_c, 1, 55, 0
3, 387984, Note_on_c, 1, 46, 61
3, 388030, Note_on_c, 1, 46, 0
3, 388032, Note_on_c, 1, 55, 62
3, 388080, Note_on_c, 1, 61, 63
3, 388126, Note_on_c, 1, 61, 0
3, 388128, Note_on_c, 1, 64, 64
3, 388174, Note_on_c, 1, 64, 0
3, 388270, Note_on_c, 1, 55, 0
3, 388272, Note_on_c, 1, 46, 67
3, 388318, Note_on_c, 1, 46, 0
3, 388320, Note_on_c, 1, 56, 68
3, 388368, Note_on_c, 1, 62, 69
3, 388414, Note_on_c, 1, 62, 0
3, 388416, Note_on_c, 1, 65, 70
3, 388462, Note_on_c, 1, 65, 0
3, 388558, Note_on_c, 1, 56, 0
3, 388560, Note_on_c, 1, 46, 73
3, 388606, Note_on_c, 1, 46, 0
3, 388608, Note_on_c, 1, 56, 74
3, 388656, Note_on_c, 1, 62, 75
3, 388702, Note_on_c, 1, 62, 0
3, 388704, Note_on_c, 1, 65, 76
3, 388750, Note_on_c, 1, 65, 0
3, 388846, Note_on_c, 1, 56, 0
3, 388848, Note_on_c, 1, 46, 79
3, 388894, Note_on_c, 1, 46, 0
3, 388896, Note_on_c, 1, 56, 80
3, 388944, Note_on_c, 1, 62, 81
3, 388990, Note_on_c, 1, 62, 0
3, 388992, Note_on_c, 1, 65, 82
3, 389038, Note_on_c, 1, 65, 0
3, 389134, Note_on_c, 1, 56, 0
3, 389136, Note_on_c, 1, 46, 85
3, 389182, Note_on_c, 1, 46, 0
3, 389184, Note_on_c, 1, 56, 86
3, 389232, Note_on_c, 1, 62, 87
3, 389278, Note_on_c, 1, 62, 0
3, 389280, Note_on_c, 1, 65, 88
3, 389326, Note_on_c, 1, 65, 0
3, 389422, Note_on_c, 1, 56, 0
3, 389424, Note_on_c, 1, 45, 92
3, 389470, Note_on_c, 1, 45, 0
3, 389472, Note_on_c, 1, 57, 92
3, 389520, Note_on_c, 1, 61, 92
3, 389566, Note_on_c, 1, 61, 0
3, 389568, Note_on_c, 1, 64, 92
3, 389614, Note_on_c, 1, 64, 0
3, 389710, Note_on_c, 1, 57, 0
3, 389712, Note_on_c, 1, 50, 92
3, 389758, Note_on_c, 1, 50, 0
3, 389760, Note_on_c, 1, 57, 92
3, 389808, Note_on_c, 1, 62, 92
3, 389854, Note_on_c, 1, 62, 0
3, 389856, Note_on_c, 1, 65, 92
3, 389902, Note_on_c, 1, 65, 0
3, 389998, Note_on_c, 1, 57, 0
3, 390000, Note_on_c, 1, 45, 92
3, 390046, Note_on_c, 1, 45, 0
3, 390048, Note_on_c, 1, 57, 92
3, 390096, Note_on_c, 1, 61, 92
3, 390142, Note_on_c, 1, 61, 0
3, 390144, Note_on_c, 1, 64, 92
3, 390190, Note_on_c, 1, 64, 0
3, 390286, Note_on_c, 1, 57, 0
3, 390288, Note_on_c, 1, 50, 92
3, 390334, Note_on_c, 1, 50, 0
3, 390336, Note_on_c, 1, 57, 92
3, 390384, Note_on_c, 1, 62, 92
3, 390430, Note_on_c, 1, 62, 0
3, 390432, Note_on_c, 1, 65, 92
3, 390478, Note_on_c, 1, 65, 0
3, 390574, Note_on_c, 1, 57, 0
3, 390576, Note_on_c, 1, 45, 45
3, 390622, Note_on_c, 1, 45, 0
3, 390624, Note_on_c, 1, 57, 45
3, 390672, Note_on_c, 1, 61, 45
3, 390718, Note_on_c, 1, 61, 0
3, 390720, Note_on_c, 1, 61, 45
3, 390720, Note_on_c, 1, 64, 45
3, 390862, Note_on_c, 1, 57, 0
3, 390862, Note_on_c, 1, 61, 0
3, 390862, Note_on_c, 1, 64, 0
3, 390864, Note_on_c, 1, 55, 45
3, 390912, Note_on_c, 1, 57, 45
3, 390960, Note_on_c, 1, 64, 45
3, 391120, Note_on_c, 1, 55, 0
3, 391120, Note_on_c, 1, 57, 0
3, 391120, Note_on_c, 1, 64, 0
3, 391152, Note_on_c, 1, 48, 45
3, 391200, Note_on_c, 1, 52, 45
3, 391248, Note_on_c, 1, 57, 45
3, 391440, Note_on_c, 1, 48, 0
3, 391440, Note_on_c, 1, 52, 0
3, 391440, Note_on_c, 1, 57, 0
3, 391440, Note_on_c, 1, 50, 45
3, 391488, Note_on_c, 1, 53, 45
3, 391536, Note_on_c, 1, 57, 45
3, 391696, Note_on_c, 1, 50, 0
3, 391696, Note_on_c, 1, 53, 0
3, 391696, Note_on_c, 1, 57, 0
3, 391728, Note_on_c, 1, 45, 45
3, 391774, Note_on_c, 1, 45, 0
3, 391776, Note_on_c, 1, 57, 45
3, 391824, Note_on_c, 1, 61, 45
3, 391872, Note_on_c, 1, 64, 45
3, 392014, Note_on_c, 1, 57, 0
3, 392014, Note_on_c, 1, 61, 0
3, 392014, Note_on_c, 1, 64, 0
3, 392016, Note_on_c, 1, 55, 45
3, 392064, Note_on_c, 1, 57, 45
3, 392112, Note_on_c, 1, 64, 45
3, 392272, Note_on_c, 1, 55, 0
3, 392272, Note_on_c, 1, 57, 0
3, 392272, Note_on_c, 1, 64, 0
3, 392304, Note_on_c, 1, 49, 63
3, 392352, Note_on_c, 1, 52, 45
3, 392400, Note_on_c, 1, 57, 45
3, 392592, Note_on_c, 1, 49, 0
3, 392592, Note_on_c, 1, 52, 0
3, 392592, Note_on_c, 1, 57, 0
3, 392592, Note_on_c, 1, 50, 45
3, 392640, Note_on_c, 1, 53, 45
3, 392688, Note_on_c, 1, 57, 45
3, 392848, Note_on_c, 1, 50, 0
3, 392848, Note_on_c, 1, 53, 0
3, 392848, Note_on_c, 1, 57, 0
3, 392880, Note_on_c, 1, 50, 45
3, 392926, Note_on_c, 1, 50, 0
3, 392928, Note_on_c, 1, 62, 45
3, 392976, Note_on_c, 1, 66, 45
3, 393024, Note_on_c, 1, 69, 45
3, 393166, Note_on_c, 1, 62, 0
3, 393166, Note_on_c, 1, 66, 0
3, 393166, Note_on_c, 1, 69, 0
3, 393168, Note_on_c, 1, 60, 45
3, 393216, Note_on_c, 1, 62, 45
3, 393264, Note_on_c, 1, 69, 45
3, 393424, Note_on_c, 1, 60, 0
3, 393424, Note_on_c, 1, 62, 0
3, 393424, Note_on_c, 1, 69, 0
3, 393456, Note_on_c, 1, 54, 45
3, 393504, Note_on_c, 1, 57, 45
3, 393552, Note_on_c, 1, 62, 45
3, 393744, Note_on_c, 1, 54, 0
3, 393744, Note_on_c, 1, 57, 0
3, 393744, Note_on_c, 1, 62, 0
3, 393744, Note_on_c, 1, 55, 45
3, 393792, Note_on_c, 1, 58, 45
3, 393840, Note_on_c, 1, 62, 45
3, 394000, Note_on_c, 1, 55, 0
3, 394000, Note_on_c, 1, 58, 0
3, 394000, Note_on_c, 1, 62, 0
3, 394032, Note_on_c, 1, 50, 45
3, 394064, Note_on_c, 1, 50, 0
3, 394080, Note_on_c, 1, 62, 45
3, 394128, Note_on_c, 1, 66, 45
3, 394176, Note_on_c, 1, 69, 45
3, 394318, Note_on_c, 1, 62, 0
3, 394318, Note_on_c, 1, 66, 0
3, 394318, Note_on_c, 1, 69, 0
3, 394320, Note_on_c, 1, 60, 45
3, 394368, Note_on_c, 1, 62, 45
3, 394416, Note_on_c, 1, 69, 45
3, 394576, Note_on_c, 1, 60, 0
3, 394576, Note_on_c, 1, 62, 0
3, 394576, Note_on_c, 1, 69, 0
3, 394608, Note_on_c, 1, 54, 63
3, 394656, Note_on_c, 1, 57, 45
3, 394704, Note_on_c, 1, 62, 45
3, 394896, Note_on_c, 1, 54, 0
3, 394896, Note_on_c, 1, 57, 0
3, 394896, Note_on_c, 1, 62, 0
3, 394896, Note_on_c, 1, 55, 45
3, 394944, Note_on_c, 1, 58, 45
3, 394992, Note_on_c, 1, 62, 45
3, 395152, Note_on_c, 1, 55, 0
3, 395152, Note_on_c, 1, 58, 0
3, 395152, Note_on_c, 1, 62, 0
3, 395184, Note_on_c, 1, 49, 45
3, 395232, Note_on_c, 1, 52, 45
3, 395280, Note_on_c, 1, 57, 45
3, 395472, Note_on_c, 1, 49, 0
3, 395472, Note_on_c, 1, 52, 0
3, 395472, Note_on_c, 1, 57, 0
3, 395472, Note_on_c, 1, 50, 45
3, 395520, Note_on_c, 1, 53, 45
3, 395568, Note_on_c, 1, 57, 45
3, 395728, Note_on_c, 1, 50, 0
3, 395728, Note_on_c, 1, 53, 0
3, 395728, Note_on_c, 1, 57, 0
3, 395760, Note_on_c, 1, 54, 63
3, 395808, Note_on_c, 1, 57, 45
3, 395856, Note_on_c, 1, 62, 45
3, 396048, Note_on_c, 1, 54, 0
3, 396048, Note_on_c, 1, 57, 0
3, 396048, Note_on_c, 1, 62, 0
3, 396048, Note_on_c, 1, 55, 45
3, 396096, Note_on_c, 1, 58, 45
3, 396144, Note_on_c, 1, 62, 45
3, 396304, Note_on_c, 1, 55, 0
3, 396304, Note_on_c, 1, 58, 0
3, 396304, Note_on_c, 1, 62, 0
3, 396336, Note_on_c, 1, 49, 45
3, 396384, Note_on_c, 1, 52, 45
3, 396432, Note_on_c, 1, 55, 45
3, 396592, Note_on_c, 1, 49, 0
3, 396592, Note_on_c, 1, 52, 0
3, 396592, Note_on_c, 1, 55, 0
3, 396624, Note_on_c, 1, 50, 45
3, 396672, Note_on_c, 1, 53, 45
3, 396720, Note_on_c, 1, 57, 45
3, 396880, Note_on_c, 1, 50, 0
3, 396880, Note_on_c, 1, 53, 0
3, 396880, Note_on_c, 1, 57, 0
3, 396912, Note_on_c, 1, 48, 63
3, 396960, Note_on_c, 1, 52, 45
3, 397008, Note_on_c, 1, 57, 45
3, 397168, Note_on_c, 1, 48, 0
3, 397168, Note_on_c, 1, 52, 0
3, 397168, Note_on_c, 1, 57, 0
3, 397200, Note_on_c, 1, 50, 45
3, 397248, Note_on_c, 1, 53, 45
3, 397296, Note_on_c, 1, 57, 45
3, 397456, Note_on_c, 1, 50, 0
3, 397456, Note_on_c, 1, 53, 0
3, 397456, Note_on_c, 1, 57, 0
3, 397488, Note_on_c, 1, 48, 63
3, 397536, Note_on_c, 1, 52, 45
3, 397584, Note_on_c, 1, 57, 45
3, 397744, Note_on_c, 1, 48, 0
3, 397744, Note_on_c, 1, 52, 0
3, 397744, Note_on_c, 1, 57, 0
3, 397776, Note_on_c, 1, 50, 45
3, 397824, Note_on_c, 1, 53, 45
3, 397872, Note_on_c, 1, 57, 45
3, 398032, Note_on_c, 1, 50, 0
3, 398032, Note_on_c, 1, 53, 0
3, 398032, Note_on_c, 1, 57, 0
3, 398064, Note_on_c, 1, 45, 92
3, 398064, Note_on_c, 1, 49, 92
3, 398064, Note_on_c, 1, 52, 92
3, 398064, Note_on_c, 1, 55, 92
3, 398158, Note_on_c, 1, 45, 0
3, 398158, Note_on_c, 1, 49, 0
3, 398158, Note_on_c, 1, 52, 0
3, 398158, Note_on_c, 1, 55, 0
3, 402672, Note_on_c, 1, 50, 45
3, 402718, Note_on_c, 1, 50, 0
3, 402720, Note_on_c, 1, 57, 45
3, 402768, Note_on_c, 1, 62, 45
3, 402814, Note_on_c, 1, 62, 0
3, 402816, Note_on_c, 1, 65, 45
3, 402862, Note_on_c, 1, 65, 0
3, 402958, Note_on_c, 1, 57, 0
3, 402960, Note_on_c, 1, 50, 45
3, 403006, Note_on_c, 1, 50, 0
3, 403008, Note_on_c, 1, 57, 45
3, 403056, Note_on_c, 1, 62, 45
3, 403102, Note_on_c, 1, 62, 0
3, 403104, Note_on_c, 1, 65, 45
3, 403150, Note_on_c, 1, 65, 0
3, 403246, Note_on_c, 1, 57, 0
3, 403248, Note_on_c, 1, 50, 45
3, 403294, Note_on_c, 1, 50, 0
3, 403296, Note_on_c, 1, 57, 45
3, 403344, Note_on_c, 1, 62, 45
3, 403390, Note_on_c, 1, 62, 0
3, 403392, Note_on_c, 1, 65, 45
3, 403438, Note_on_c, 1, 65, 0
3, 403534, Note_on_c, 1, 57, 0
3, 403536, Note_on_c, 1, 45, 45
3, 403582, Note_on_c, 1, 45, 0
3, 403584, Note_on_c, 1, 57, 45
3, 403632, Note_on_c, 1, 61, 45
3, 403678, Note_on_c, 1, 61, 0
3, 403680, Note_on_c, 1, 64, 45
3, 403726, Note_on_c, 1, 64, 0
3, 403822, Note_on_c, 1, 57, 0
3, 403824, Note_on_c, 1, 45, 45
3, 403870, Note_on_c, 1, 45, 0
3, 403872, Note_on_c, 1, 57, 45
3, 403920, Note_on_c, 1, 61, 45
3, 403966, Note_on_c, 1, 61, 0
3, 403968, Note_on_c, 1, 64, 45
3, 404014, Note_on_c, 1, 64, 0
3, 404110, Note_on_c, 1, 57, 0
3, 404112, Note_on_c, 1, 45, 45
3, 404158, Note_on_c, 1, 45, 0
3, 404160, Note_on_c, 1, 57, 45
3, 404208, Note_on_c, 1, 61, 45
3, 404254, Note_on_c, 1, 61, 0
3, 404256, Note_on_c, 1, 64, 45
3, 404302, Note_on_c, 1, 64, 0
3, 404398, Note_on_c, 1, 57, 0
3, 404400, Note_on_c, 1, 45, 45
3, 404446, Note_on_c, 1, 45, 0
3, 404448, Note_on_c, 1, 57, 45
3, 404496, Note_on_c, 1, 61, 45
3, 404542, Note_on_c, 1, 61, 0
3, 404544, Note_on_c, 1, 64, 45
3, 404590, Note_on_c, 1, 64, 0
3, 404686, Note_on_c, 1, 57, 0
3, 404688, Note_on_c, 1, 50, 45
3, 404734, Note_on_c, 1, 50, 0
3, 404736, Note_on_c, 1, 57, 47
3, 404784, Note_on_c, 1, 62, 49
3, 404830, Note_on_c, 1, 62, 0
3, 404832, Note_on_c, 1, 65, 51
3, 404878, Note_on_c, 1, 65, 0
3, 404974, Note_on_c, 1, 57, 0
3, 404976, Note_on_c, 1, 55, 58
3, 405024, Note_on_c, 1, 62, 60
3, 405072, Note_on_c, 1, 67, 63
3, 405232, Note_on_c, 1, 55, 0
3, 405232, Note_on_c, 1, 62, 0
3, 405232, Note_on_c, 1, 67, 0
3, 405264, Note_on_c, 1, 51, 75
3, 405312, Note_on_c, 1, 58, 75
3, 405360, Note_on_c, 1, 63, 75
3, 405520, Note_on_c, 1, 51, 0
3, 405520, Note_on_c, 1, 58, 0
3, 405520, Note_on_c, 1, 63, 0
3, 405552, Note_on_c, 1, 49, 75
3, 405600, Note_on_c, 1, 57, 73
3, 405648, Note_on_c, 1, 61, 71
3, 405808, Note_on_c, 1, 49, 0
3, 405808, Note_on_c, 1, 57, 0
3, 405808, Note_on_c, 1, 61, 0
3, 405840, Note_on_c, 1, 50, 61
3, 405888, Note_on_c, 1, 57, 59
3, 405936, Note_on_c, 1, 62, 57
3, 406096, Note_on_c, 1, 50, 0
3, 406096, Note_on_c, 1, 57, 0
3, 406096, Note_on_c, 1, 62, 0
3, 406128, Note_on_c, 1, 45, 45
3, 406176, Note_on_c, 1, 53, 45
3, 406224, Note_on_c, 1, 57, 45
3, 406384, Note_on_c, 1, 45, 0
3, 406384, Note_on_c, 1, 53, 0
3, 406384, Note_on_c, 1, 57, 0
3, 406416, Note_on_c, 1, 45, 45
3, 406464, Note_on_c, 1, 52, 52
3, 406512, Note_on_c, 1, 55, 60
3, 406560, Note_on_c, 1, 57, 68
3, 406702, Note_on_c, 1, 45, 0
3, 406702, Note_on_c, 1, 52, 0
3, 406702, Note_on_c, 1, 55, 0
3, 406702, Note_on_c, 1, 57, 0
3, 406704, Note_on_c, 1, 38, 92
3, 406750, Note_on_c, 1, 38, 0
3, 406752, Note_on_c, 1, 50, 92
3, 406798, Note_on_c, 1, 50, 0
3, 406800, Note_on_c, 1, 53, 92
3, 406846, Note_on_c, 1, 53, 0
3, 406848, Note_on_c, 1, 57, 92
3, 406894, Note_on_c, 1, 57, 0
3, 406896, Note_on_c, 1, 62, 92
3, 406990, Note_on_c, 1, 62, 0
3, 407280, Note_on_c, 1, 55, 45
3, 407328, Note_on_c, 1, 62, 45
3, 407376, Note_on_c, 1, 67, 45
3, 407536, Note_on_c, 1, 55, 0
3, 407536, Note_on_c, 1, 62, 0
3, 407536, Note_on_c, 1, 67, 0
3, 407568, Note_on_c, 1, 51, 45
3, 407616, Note_on_c, 1, 58, 45
3, 407664, Note_on_c, 1, 63, 45
3, 407824, Note_on_c, 1, 51, 0
3, 407824, Note_on_c, 1, 58, 0
3, 407824, Note_on_c, 1, 63, 0
3, 407856, Note_on_c, 1, 48, 75
3, 407904, Note_on_c, 1, 55, 75
3, 407952, Note_on_c, 1, 60, 75
3, 408112, Note_on_c, 1, 48, 0
3, 408112, Note_on_c, 1, 55, 0
3, 408112, Note_on_c, 1, 60, 0
3, 408144, Note_on_c, 1, 45, 75
3, 408192, Note_on_c, 1, 53, 75
3, 408240, Note_on_c, 1, 57, 75
3, 408400, Note_on_c, 1, 45, 0
3, 408400, Note_on_c, 1, 53, 0
3, 408400, Note_on_c, 1, 57, 0
3, 408432, Note_on_c, 1, 46, 45
3, 408480, Note_on_c, 1, 53, 45
3, 408528, Note_on_c, 1, 58, 45
3, 408688, Note_on_c, 1, 46, 0
3, 408688, Note_on_c, 1, 53, 0
3, 408688, Note_on_c, 1, 58, 0
3, 408720, Note_on_c, 1, 39, 45
3, 408768, Note_on_c, 1, 48, 45
3, 408816, Note_on_c, 1, 51, 45
3, 408976, Note_on_c, 1, 39, 0
3, 408976, Note_on_c, 1, 48, 0
3, 408976, Note_on_c, 1, 51, 0
3, 409008, Note_on_c, 1, 41, 75
3, 409056, Note_on_c, 1, 48, 75
3, 409104, Note_on_c, 1, 53, 75
3, 409264, Note_on_c, 1, 41, 0
3, 409264, Note_on_c, 1, 48, 0
3, 409264, Note_on_c, 1, 53, 0
3, 409296, Note_on_c, 1, 38, 75
3, 409344, Note_on_c, 1, 46, 75
3, 409392, Note_on_c, 1, 50, 75
3, 409552, Note_on_c, 1, 38, 0
3, 409552, Note_on_c, 1, 46, 0
3, 409552, Note_on_c, 1, 50, 0
3, 409584, Note_on_c, 1, 43, 75
3, 409632, Note_on_c, 1, 46, 73
3, 409680, Note_on_c, 1, 55, 71
3, 409840, Note_on_c, 1, 43, 0
3, 409840, Note_on_c, 1, 46, 0
3, 409840, Note_on_c, 1, 55, 0
3, 409872, Note_on_c, 1, 39, 60
3, 409920, Note_on_c, 1, 48, 61
3, 409968, Note_on_c, 1, 51, 62
3, 410128, Note_on_c, 1, 39, 0
3, 410128, Note_on_c, 1, 48, 0
3, 410128, Note_on_c, 1, 51, 0
3, 410160, Note_on_c, 1, 41, 69
3, 410208, Note_on_c, 1, 48, 70
3, 410256, Note_on_c, 1, 53, 72
3, 410416, Note_on_c, 1, 41, 0
3, 410416, Note_on_c, 1, 48, 0
3, 410416, Note_on_c, 1, 53, 0
3, 410448, Note_on_c, 1, 34, 80
3, 410496, Note_on_c, 1, 34, 0
3, 410496, Note_on_c, 1, 41, 82
3, 410544, Note_on_c, 1, 41, 0
3, 410544, Note_on_c, 1, 46, 84
3, 410590, Note_on_c, 1, 46, 0
3, 410592, Note_on_c, 1, 29, 86
3, 410640, Note_on_c, 1, 29, 0
3, 410640, Note_on_c, 1, 37, 88
3, 410688, Note_on_c, 1, 37, 0
3, 410688, Note_on_c, 1, 36, 90
3, 410736, Note_on_c, 1, 36, 0
3, 410736, Note_on_c, 1, 34, 92
3, 410768, Note_on_c, 1, 34, 0
3, 410880, Note_on_c, 1, 29, 92
3, 410928, Note_on_c, 1, 29, 0
3, 410928, Note_on_c, 1, 37, 92
3, 410976, Note_on_c, 1, 37, 0
3, 410976, Note_on_c, 1, 36, 92
3, 411024, Note_on_c, 1, 36, 0
3, 411024, Note_on_c, 1, 34, 92
3, 411056, Note_on_c, 1, 34, 0
3, 411168, Note_on_c, 1, 29, 92
3, 411216, Note_on_c, 1, 29, 0
3, 411216, Note_on_c, 1, 37, 92
3, 411264, Note_on_c, 1, 37, 0
3, 411264, Note_on_c, 1, 36, 92
3, 411312, Note_on_c, 1, 36, 0
3, 411312, Note_on_c, 1, 34, 92
3, 411344, Note_on_c, 1, 34, 0
3, 411456, Note_on_c, 1, 29, 92
3, 411502, Note_on_c, 1, 29, 0
3, 411504, Note_on_c, 1, 37, 92
3, 411550, Note_on_c, 1, 37, 0
3, 411552, Note_on_c, 1, 34, 92
3, 411598, Note_on_c, 1, 34, 0
3, 411600, Note_on_c, 1, 36, 127
3, 411856, Note_on_c, 1, 36, 0
3, 411888, Note_on_c, 1, 29, 127
3, 411888, Note_on_c, 1, 41, 127
3, 411982, Note_on_c, 1, 29, 0
3, 411982, Note_on_c, 1, 41, 0
3, 411984, Note_on_c, 1, 44, 127
3, 412078, Note_on_c, 1, 44, 0
3, 412080, Note_on_c, 1, 48, 127
3, 412174, Note_on_c, 1, 48, 0
3, 412176, Note_on_c, 1, 53, 127
3, 412270, Note_on_c, 1, 53, 0
3, 412272, Note_on_c, 1, 56, 127
3, 412366, Note_on_c, 1, 56, 0
3, 412368, Note_on_c, 1, 53, 127
3, 412462, Note_on_c, 1, 53, 0
3, 412464, Note_on_c, 1, 48, 127
3, 412558, Note_on_c, 1, 48, 0
3, 412560, Note_on_c, 1, 44, 127
3, 412654, Note_on_c, 1, 44, 0
3, 412656, Note_on_c, 1, 48, 127
3, 412750, Note_on_c, 1, 48, 0
3, 412752, Note_on_c, 1, 44, 127
3, 412846, Note_on_c, 1, 44, 0
3, 412848, Note_on_c, 1, 41, 127
3, 412896, Note_on_c, 1, 41, 0
3, 412896, Note_on_c, 1, 36, 92
3, 412944, Note_on_c, 1, 36, 0
3, 412944, Note_on_c, 1, 44, 92
3, 412992, Note_on_c, 1, 44, 0
3, 412992, Note_on_c, 1, 43, 92
3, 413040, Note_on_c, 1, 43, 0
3, 413040, Note_on_c, 1, 41, 92
3, 413072, Note_on_c, 1, 41, 0
3, 413184, Note_on_c, 1, 36, 92
3, 413232, Note_on_c, 1, 36, 0
3, 413232, Note_on_c, 1, 44, 92
3, 413280, Note_on_c, 1, 44, 0
3, 413280, Note_on_c, 1, 43, 92
3, 413328, Note_on_c, 1, 43, 0
3, 413328, Note_on_c, 1, 41, 92
3, 413360, Note_on_c, 1, 41, 0
3, 413472, Note_on_c, 1, 36, 92
3, 413520, Note_on_c, 1, 36, 0
3, 413520, Note_on_c, 1, 44, 92
3, 413568, Note_on_c, 1, 44, 0
3, 413568, Note_on_c, 1, 43, 92
3, 413616, Note_on_c, 1, 43, 0
3, 413616, Note_on_c, 1, 41, 92
3, 413648, Note_on_c, 1, 41, 0
3, 413760, Note_on_c, 1, 36, 92
3, 413808, Note_on_c, 1, 36, 0
3, 413808, Note_on_c, 1, 44, 92
3, 413856, Note_on_c, 1, 44, 0
3, 413856, Note_on_c, 1, 41, 92
3, 413902, Note_on_c, 1, 41, 0
3, 413904, Note_on_c, 1, 31, 127
3, 413904, Note_on_c, 1, 43, 127
3, 414160, Note_on_c, 1, 31, 0
3, 414160, Note_on_c, 1, 43, 0
3, 414192, Note_on_c, 1, 36, 127
3, 414192, Note_on_c, 1, 48, 127
3, 414286, Note_on_c, 1, 36, 0
3, 414286, Note_on_c, 1, 48, 0
3, 414288, Note_on_c, 1, 51, 127
3, 414382, Note_on_c, 1, 51, 0
3, 414384, Note_on_c, 1, 55, 127
3, 414478, Note_on_c, 1, 55, 0
3, 414480, Note_on_c, 1, 60, 127
3, 414574, Note_on_c, 1, 60, 0
3, 414576, Note_on_c, 1, 63, 127
3, 414670, Note_on_c, 1, 63, 0
3, 414672, Note_on_c, 1, 60, 127
3, 414766, Note_on_c, 1, 60, 0
3, 414768, Note_on_c, 1, 55, 127
3, 414862, Note_on_c, 1, 55, 0
3, 414864, Note_on_c, 1, 51, 127
3, 414958, Note_on_c, 1, 51, 0
3, 414960, Note_on_c, 1, 55, 127
3, 415054, Note_on_c, 1, 55, 0
3, 415056, Note_on_c, 1, 51, 127
3, 415150, Note_on_c, 1, 51, 0
3, 415152, Note_on_c, 1, 48, 127
3, 415198, Note_on_c, 1, 48, 0
3, 415200, Note_on_c, 1, 31, 92
3, 415248, Note_on_c, 1, 31, 0
3, 415248, Note_on_c, 1, 39, 92
3, 415296, Note_on_c, 1, 39, 0
3, 415296, Note_on_c, 1, 38, 92
3, 415344, Note_on_c, 1, 38, 0
3, 415344, Note_on_c, 1, 36, 92
3, 415376, Note_on_c, 1, 36, 0
3, 415488, Note_on_c, 1, 31, 92
3, 415536, Note_on_c, 1, 31, 0
3, 415536, Note_on_c, 1, 39, 92
3, 415584, Note_on_c, 1, 39, 0
3, 415584, Note_on_c, 1, 38, 92
3, 415632, Note_on_c, 1, 38, 0
3, 415632, Note_on_c, 1, 36, 92
3, 415664, Note_on_c, 1, 36, 0
3, 415776, Note_on_c, 1, 31, 92
3, 415824, Note_on_c, 1, 31, 0
3, 415824, Note_on_c, 1, 39, 92
3, 415872, Note_on_c, 1, 39, 0
3, 415872, Note_on_c, 1, 38, 92
3, 415920, Note_on_c, 1, 38, 0
3, 415920, Note_on_c, 1, 36, 92
3, 415952, Note_on_c, 1, 36, 0
3, 416064, Note_on_c, 1, 31, 92
3, 416110, Note_on_c, 1, 31, 0
3, 416112, Note_on_c, 1, 39, 92
3, 416158, Note_on_c, 1, 39, 0
3, 416160, Note_on_c, 1, 36, 92
3, 416206, Note_on_c, 1, 36, 0
3, 416208, Note_on_c, 1, 38, 127
3, 416464, Note_on_c, 1, 38, 0
3, 416496, Note_on_c, 1, 31, 127
3, 416496, Note_on_c, 1, 43, 127
3, 416590, Note_on_c, 1, 31, 0
3, 416590, Note_on_c, 1, 43, 0
3, 416592, Note_on_c, 1, 46, 127
3, 416686, Note_on_c, 1, 46, 0
3, 416688, Note_on_c, 1, 50, 127
3, 416782, Note_on_c, 1, 50, 0
3, 416784, Note_on_c, 1, 55, 127
3, 416878, Note_on_c, 1, 55, 0
3, 416880, Note_on_c, 1, 58, 127
3, 416974, Note_on_c, 1, 58, 0
3, 416976, Note_on_c, 1, 55, 127
3, 417070, Note_on_c, 1, 55, 0
3, 417072, Note_on_c, 1, 50, 127
3, 417166, Note_on_c, 1, 50, 0
3, 417168, Note_on_c, 1, 46, 127
3, 417262, Note_on_c, 1, 46, 0
3, 417264, Note_on_c, 1, 50, 127
3, 417358, Note_on_c, 1, 50, 0
3, 417360, Note_on_c, 1, 46, 127
3, 417454, Note_on_c, 1, 46, 0
3, 417456, Note_on_c, 1, 43, 127
3, 417502, Note_on_c, 1, 43, 0
3, 417504, Note_on_c, 1, 38, 92
3, 417552, Note_on_c, 1, 38, 0
3, 417552, Note_on_c, 1, 46, 92
3, 417600, Note_on_c, 1, 46, 0
3, 417600, Note_on_c, 1, 45, 92
3, 417648, Note_on_c, 1, 45, 0
3, 417648, Note_on_c, 1, 43, 92
3, 417680, Note_on_c, 1, 43, 0
3, 417792, Note_on_c, 1, 38, 92
3, 417840, Note_on_c, 1, 38, 0
3, 417840, Note_on_c, 1, 46, 92
3, 417888, Note_on_c, 1, 46, 0
3, 417888, Note_on_c, 1, 45, 92
3, 417936, Note_on_c, 1, 45, 0
3, 417936, Note_on_c, 1, 43, 92
3, 417968, Note_on_c, 1, 43, 0
3, 418080, Note_on_c, 1, 38, 92
3, 418128, Note_on_c, 1, 38, 0
3, 418128, Note_on_c, 1, 46, 92
3, 418176, Note_on_c, 1, 46, 0
3, 418176, Note_on_c, 1, 45, 92
3, 418224, Note_on_c, 1, 45, 0
3, 418224, Note_on_c, 1, 43, 92
3, 418256, Note_on_c, 1, 43, 0
3, 418368, Note_on_c, 1, 38, 92
3, 418416, Note_on_c, 1, 38, 0
3, 418416, Note_on_c, 1, 46, 92
3, 418464, Note_on_c, 1, 46, 0
3, 418464, Note_on_c, 1, 43, 92
3, 418510, Note_on_c, 1, 43, 0
3, 418512, Note_on_c, 1, 34, 127
3, 418512, Note_on_c, 1, 46, 127
3, 418768, Note_on_c, 1, 34, 0
3, 418768, Note_on_c, 1, 46, 0
3, 418800, Note_on_c, 1, 33, 92
3, 418800, Note_on_c, 1, 45, 92
3, 418894, Note_on_c, 1, 33, 0
3, 418894, Note_on_c, 1, 45, 0
3, 418896, Note_on_c, 1, 52, 92
3, 418896, Note_on_c, 1, 55, 92
3, 418942, Note_on_c, 1, 52, 0
3, 418942, Note_on_c, 1, 55, 0
3, 418944, Note_on_c, 1, 57, 92
3, 418990, Note_on_c, 1, 57, 0
3, 418992, Note_on_c, 1, 49, 92
3, 419038, Note_on_c, 1, 49, 0
3, 419040, Note_on_c, 1, 57, 92
3, 419086, Note_on_c, 1, 57, 0
3, 419088, Note_on_c, 1, 52, 92
3, 419088, Note_on_c, 1, 55, 92
3, 419134, Note_on_c, 1, 52, 0
3, 419134, Note_on_c, 1, 55, 0
3, 419136, Note_on_c, 1, 57, 92
3, 419182, Note_on_c, 1, 57, 0
3, 419184, Note_on_c, 1, 49, 92
3, 419230, Note_on_c, 1, 49, 0
3, 419232, Note_on_c, 1, 57, 92
3, 419278, Note_on_c, 1, 57, 0
3, 419280, Note_on_c, 1, 52, 92
3, 419280, Note_on_c, 1, 55, 92
3, 419326, Note_on_c, 1, 52, 0
3, 419326, Note_on_c, 1, 55, 0
3, 419328, Note_on_c, 1, 57, 92
3, 419374, Note_on_c, 1, 57, 0
3, 419376, Note_on_c, 1, 49, 92
3, 419422, Note_on_c, 1, 49, 0
3, 419424, Note_on_c, 1, 57, 92
3, 419470, Note_on_c, 1, 57, 0
3, 419472, Note_on_c, 1, 52, 92
3, 419472, Note_on_c, 1, 55, 92
3, 419518, Note_on_c, 1, 52, 0
3, 419518, Note_on_c, 1, 55, 0
3, 419520, Note_on_c, 1, 57, 92
3, 419566, Note_on_c, 1, 57, 0
3, 419568, Note_on_c, 1, 49, 92
3, 419614, Note_on_c, 1, 49, 0
3, 419616, Note_on_c, 1, 57, 92
3, 419662, Note_on_c, 1, 57, 0
3, 419664, Note_on_c, 1, 52, 92
3, 419664, Note_on_c, 1, 55, 92
3, 419710, Note_on_c, 1, 52, 0
3, 419710, Note_on_c, 1, 55, 0
3, 419712, Note_on_c, 1, 57, 92
3, 419758, Note_on_c, 1, 57, 0
3, 419760, Note_on_c, 1, 49, 92
3, 419806, Note_on_c, 1, 49, 0
3, 419808, Note_on_c, 1, 57, 92
3, 419854, Note_on_c, 1, 57, 0
3, 419856, Note_on_c, 1, 52, 92
3, 419856, Note_on_c, 1, 55, 92
3, 419902, Note_on_c, 1, 52, 0
3, 419902, Note_on_c, 1, 55, 0
3, 419904, Note_on_c, 1, 57, 92
3, 419950, Note_on_c, 1, 57, 0
3, 419952, Note_on_c, 1, 49, 92
3, 419998, Note_on_c, 1, 49, 0
3, 420000, Note_on_c, 1, 57, 92
3, 420046, Note_on_c, 1, 57, 0
3, 420048, Note_on_c, 1, 52, 127
3, 420048, Note_on_c, 1, 55, 127
3, 420094, Note_on_c, 1, 52, 0
3, 420094, Note_on_c, 1, 55, 0
3, 420096, Note_on_c, 1, 57, 92
3, 420142, Note_on_c, 1, 57, 0
3, 420144, Note_on_c, 1, 49, 92
3, 420190, Note_on_c, 1, 49, 0
3, 420192, Note_on_c, 1, 57, 92
3, 420238, Note_on_c, 1, 57, 0
3, 420240, Note_on_c, 1, 52, 92
3, 420240, Note_on_c, 1, 55, 92
3, 420286, Note_on_c, 1, 52, 0
3, 420286, Note_on_c, 1, 55, 0
3, 420288, Note_on_c, 1, 57, 92
3, 420334, Note_on_c, 1, 57, 0
3, 420336, Note_on_c, 1, 49, 92
3, 420382, Note_on_c, 1, 49, 0
3, 420384, Note_on_c, 1, 57, 92
3, 420430, Note_on_c, 1, 57, 0
3, 420432, Note_on_c, 1, 52, 92
3, 420432, Note_on_c, 1, 55, 92
3, 420478, Note_on_c, 1, 52, 0
3, 420478, Note_on_c, 1, 55, 0
3, 420480, Note_on_c, 1, 57, 92
3, 420526, Note_on_c, 1, 57, 0
3, 420528, Note_on_c, 1, 50, 45
3, 420574, Note_on_c, 1, 50, 0
3, 420576, Note_on_c, 1, 57, 45
3, 420622, Note_on_c, 1, 57, 0
3, 420624, Note_on_c, 1, 53, 45
3, 420670, Note_on_c, 1, 53, 0
3, 420672, Note_on_c, 1, 57, 45
3, 420718, Note_on_c, 1, 57, 0
3, 420720, Note_on_c, 1, 50, 45
3, 420766, Note_on_c, 1, 50, 0
3, 420768, Note_on_c, 1, 57, 45
3, 420814, Note_on_c, 1, 57, 0
3, 420816, Note_on_c, 1, 45, 45
3, 420862, Note_on_c, 1, 45, 0
3, 420864, Note_on_c, 1, 55, 45
3, 420910, Note_on_c, 1, 55, 0
3, 420912, Note_on_c, 1, 52, 45
3, 420958, Note_on_c, 1, 52, 0
3, 420960, Note_on_c, 1, 55, 45
3, 421006, Note_on_c, 1, 55, 0
3, 421008, Note_on_c, 1, 45, 45
3, 421054, Note_on_c, 1, 45, 0
3, 421056, Note_on_c, 1, 55, 45
3, 421102, Note_on_c, 1, 55, 0
3, 421104, Note_on_c, 1, 50, 45
3, 421104, Note_on_c, 1, 53, 45
3, 421150, Note_on_c, 1, 50, 0
3, 421150, Note_on_c, 1, 53, 0
3, 421152, Note_on_c, 1, 57, 45
3, 421198, Note_on_c, 1, 57, 0
3, 421200, Note_on_c, 1, 52, 92
3, 421200, Note_on_c, 1, 55, 92
3, 421246, Note_on_c, 1, 52, 0
3, 421246, Note_on_c, 1, 55, 0
3, 421248, Note_on_c, 1, 57, 92
3, 421294, Note_on_c, 1, 57, 0
3, 421296, Note_on_c, 1, 49, 92
3, 421342, Note_on_c, 1, 49, 0
3, 421344, Note_on_c, 1, 57, 92
3, 421390, Note_on_c, 1, 57, 0
3, 421392, Note_on_c, 1, 52, 92
3, 421392, Note_on_c, 1, 55, 92
3, 421438, Note_on_c, 1, 52, 0
3, 421438, Note_on_c, 1, 55, 0
3, 421440, Note_on_c, 1, 57, 92
3, 421486, Note_on_c, 1, 57, 0
3, 421488, Note_on_c, 1, 49, 92
3, 421534, Note_on_c, 1, 49, 0
3, 421536, Note_on_c, 1, 57, 92
3, 421582, Note_on_c, 1, 57, 0
3, 421584, Note_on_c, 1, 52, 92
3, 421584, Note_on_c, 1, 55, 92
3, 421630, Note_on_c, 1, 52, 0
3, 421630, Note_on_c, 1, 55, 0
3, 421632, Note_on_c, 1, 57, 92
3, 421678, Note_on_c, 1, 57, 0
3, 421680, Note_on_c, 1, 49, 92
3, 421726, Note_on_c, 1, 49, 0
3, 421728, Note_on_c, 1, 57, 92
3, 421774, Note_on_c, 1, 57, 0
3, 421776, Note_on_c, 1, 52, 92
3, 421776, Note_on_c, 1, 55, 92
3, 421822, Note_on_c, 1, 52, 0
3, 421822, Note_on_c, 1, 55, 0
3, 421824, Note_on_c, 1, 57, 92
3, 421870, Note_on_c, 1, 57, 0
3, 421872, Note_on_c, 1, 49, 92
3, 421918, Note_on_c, 1, 49, 0
3, 421920, Note_on_c, 1, 57, 92
3, 421966, Note_on_c, 1, 57, 0
3, 421968, Note_on_c, 1, 52, 92
3, 421968, Note_on_c, 1, 55, 92
3, 422014, Note_on_c, 1, 52, 0
3, 422014, Note_on_c, 1, 55, 0
3, 422016, Note_on_c, 1, 57, 92
3, 422062, Note_on_c, 1, 57, 0
3, 422064, Note_on_c, 1, 49, 92
3, 422110, Note_on_c, 1, 49, 0
3, 422112, Note_on_c, 1, 57, 92
3, 422158, Note_on_c, 1, 57, 0
3, 422160, Note_on_c, 1, 52, 92
3, 422160, Note_on_c, 1, 55, 92
3, 422206, Note_on_c, 1, 52, 0
3, 422206, Note_on_c, 1, 55, 0
3, 422208, Note_on_c, 1, 57, 92
3, 422254, Note_on_c, 1, 57, 0
3, 422256, Note_on_c, 1, 49, 92
3, 422302, Note_on_c, 1, 49, 0
3, 422304, Note_on_c, 1, 57, 92
3, 422350, Note_on_c, 1, 57, 0
3, 422352, Note_on_c, 1, 52, 127
3, 422352, Note_on_c, 1, 55, 127
3, 422398, Note_on_c, 1, 52, 0
3, 422398, Note_on_c, 1, 55, 0
3, 422400, Note_on_c, 1, 57, 92
3, 422446, Note_on_c, 1, 57, 0
3, 422448, Note_on_c, 1, 49, 92
3, 422494, Note_on_c, 1, 49, 0
3, 422496, Note_on_c, 1, 57, 92
3, 422542, Note_on_c, 1, 57, 0
3, 422544, Note_on_c, 1, 52, 92
3, 422544, Note_on_c, 1, 55, 92
3, 422590, Note_on_c, 1, 52, 0
3, 422590, Note_on_c, 1, 55, 0
3, 422592, Note_on_c, 1, 57, 92
3, 422638, Note_on_c, 1, 57, 0
3, 422640, Note_on_c, 1, 49, 92
3, 422686, Note_on_c, 1, 49, 0
3, 422688, Note_on_c, 1, 57, 92
3, 422734, Note_on_c, 1, 57, 0
3, 422736, Note_on_c, 1, 52, 92
3, 422736, Note_on_c, 1, 55, 92
3, 422782, Note_on_c, 1, 52, 0
3, 422782, Note_on_c, 1, 55, 0
3, 422784, Note_on_c, 1, 57, 92
3, 422830, Note_on_c, 1, 57, 0
3, 422832, Note_on_c, 1, 50, 45
3, 422878, Note_on_c, 1, 50, 0
3, 422880, Note_on_c, 1, 57, 45
3, 422926, Note_on_c, 1, 57, 0
3, 422928, Note_on_c, 1, 53, 45
3, 422974, Note_on_c, 1, 53, 0
3, 422976, Note_on_c, 1, 57, 45
3, 423022, Note_on_c, 1, 57, 0
3, 423024, Note_on_c, 1, 50, 45
3, 423070, Note_on_c, 1, 50, 0
3, 423072, Note_on_c, 1, 57, 45
3, 423118, Note_on_c, 1, 57, 0
3, 423120, Note_on_c, 1, 45, 45
3, 423166, Note_on_c, 1, 45, 0
3, 423168, Note_on_c, 1, 55, 45
3, 423214, Note_on_c, 1, 55, 0
3, 423216, Note_on_c, 1, 52, 45
3, 423262, Note_on_c, 1, 52, 0
3, 423264, Note_on_c, 1, 55, 45
3, 423310, Note_on_c, 1, 55, 0
3, 423312, Note_on_c, 1, 45, 45
3, 423358, Note_on_c, 1, 45, 0
3, 423360, Note_on_c, 1, 55, 45
3, 423406, Note_on_c, 1, 55, 0
3, 423408, Note_on_c, 1, 46, 45
3, 423454, Note_on_c, 1, 46, 0
3, 423456, Note_on_c, 1, 53, 45
3, 423502, Note_on_c, 1, 53, 0
3, 423504, Note_on_c, 1, 50, 45
3, 423550, Note_on_c, 1, 50, 0
3, 423552, Note_on_c, 1, 53, 46
3, 423598, Note_on_c, 1, 53, 0
3, 423600, Note_on_c, 1, 46, 48
3, 423646, Note_on_c, 1, 46, 0
3, 423648, Note_on_c, 1, 53, 50
3, 423694, Note_on_c, 1, 53, 0
3, 423696, Note_on_c, 1, 43, 52
3, 423742, Note_on_c, 1, 43, 0
3, 423744, Note_on_c, 1, 51, 54
3, 423790, Note_on_c, 1, 51, 0
3, 423792, Note_on_c, 1, 46, 56
3, 423838, Note_on_c, 1, 46, 0
3, 423840, Note_on_c, 1, 51, 58
3, 423886, Note_on_c, 1, 51, 0
3, 423888, Note_on_c, 1, 43, 60
3, 423934, Note_on_c, 1, 43, 0
3, 423936, Note_on_c, 1, 51, 62
3, 423982, Note_on_c, 1, 51, 0
3, 423984, Note_on_c, 1, 45, 64
3, 424030, Note_on_c, 1, 45, 0
3, 424032, Note_on_c, 1, 53, 66
3, 424078, Note_on_c, 1, 53, 0
3, 424080, Note_on_c, 1, 50, 68
3, 424126, Note_on_c, 1, 50, 0
3, 424128, Note_on_c, 1, 53, 70
3, 424174, Note_on_c, 1, 53, 0
3, 424176, Note_on_c, 1, 45, 72
3, 424222, Note_on_c, 1, 45, 0
3, 424224, Note_on_c, 1, 53, 74
3, 424270, Note_on_c, 1, 53, 0
3, 424272, Note_on_c, 1, 43, 76
3, 424318, Note_on_c, 1, 43, 0
3, 424320, Note_on_c, 1, 52, 78
3, 424366, Note_on_c, 1, 52, 0
3, 424368, Note_on_c, 1, 45, 80
3, 424414, Note_on_c, 1, 45, 0
3, 424416, Note_on_c, 1, 52, 82
3, 424462, Note_on_c, 1, 52, 0
3, 424464, Note_on_c, 1, 43, 84
3, 424510, Note_on_c, 1, 43, 0
3, 424512, Note_on_c, 1, 52, 86
3, 424558, Note_on_c, 1, 52, 0
3, 424560, Note_on_c, 1, 41, 88
3, 424606, Note_on_c, 1, 41, 0
3, 424608, Note_on_c, 1, 50, 90
3, 424654, Note_on_c, 1, 50, 0
3, 424656, Note_on_c, 1, 40, 92
3, 424702, Note_on_c, 1, 40, 0
3, 424704, Note_on_c, 1, 50, 92
3, 424750, Note_on_c, 1, 50, 0
3, 424752, Note_on_c, 1, 41, 92
3, 424798, Note_on_c, 1, 41, 0
3, 424800, Note_on_c, 1, 50, 92
3, 424846, Note_on_c, 1, 50, 0
3, 424848, Note_on_c, 1, 43, 92
3, 424894, Note_on_c, 1, 43, 0
3, 424896, Note_on_c, 1, 50, 92
3, 424896, Note_on_c, 1, 52, 92
3, 424942, Note_on_c, 1, 50, 0
3, 424942, Note_on_c, 1, 52, 0
3, 424944, Note_on_c, 1, 43, 92
3, 424990, Note_on_c, 1, 43, 0
3, 424992, Note_on_c, 1, 50, 92
3, 424992, Note_on_c, 1, 52, 92
3, 425038, Note_on_c, 1, 50, 0
3, 425038, Note_on_c, 1, 52, 0
3, 425040, Note_on_c, 1, 43, 92
3, 425086, Note_on_c, 1, 43, 0
3, 425088, Note_on_c, 1, 50, 92
3, 425088, Note_on_c, 1, 52, 92
3, 425134, Note_on_c, 1, 50, 0
3, 425134, Note_on_c, 1, 52, 0
3, 425136, Note_on_c, 1, 45, 92
3, 425182, Note_on_c, 1, 45, 0
3, 425184, Note_on_c, 1, 50, 92
3, 425184, Note_on_c, 1, 53, 92
3, 425230, Note_on_c, 1, 50, 0
3, 425230, Note_on_c, 1, 53, 0
3, 425232, Note_on_c, 1, 44, 92
3, 425278, Note_on_c, 1, 44, 0
3, 425280, Note_on_c, 1, 50, 92
3, 425280, Note_on_c, 1, 53, 92
3, 425326, Note_on_c, 1, 50, 0
3, 425326, Note_on_c, 1, 53, 0
3, 425328, Note_on_c, 1, 45, 92
3, 425374, Note_on_c, 1, 45, 0
3, 425376, Note_on_c, 1, 50, 92
3, 425376, Note_on_c, 1, 53, 92
3, 425422, Note_on_c, 1, 50, 0
3, 425422, Note_on_c, 1, 53, 0
3, 425424, Note_on_c, 1, 45, 92
3, 425470, Note_on_c, 1, 45, 0
3, 425472, Note_on_c, 1, 52, 92
3, 425472, Note_on_c, 1, 55, 92
3, 425518, Note_on_c, 1, 52, 0
3, 425518, Note_on_c, 1, 55, 0
3, 425520, Note_on_c, 1, 45, 92
3, 425566, Note_on_c, 1, 45, 0
3, 425568, Note_on_c, 1, 50, 92
3, 425568, Note_on_c, 1, 53, 92
3, 425614, Note_on_c, 1, 50, 0
3, 425614, Note_on_c, 1, 53, 0
3, 425616, Note_on_c, 1, 45, 92
3, 425662, Note_on_c, 1, 45, 0
3, 425664, Note_on_c, 1, 49, 92
3, 425664, Note_on_c, 1, 52, 92
3, 425710, Note_on_c, 1, 49, 0
3, 425710, Note_on_c, 1, 52, 0
3, 425712, Note_on_c, 1, 38, 45
3, 425758, Note_on_c, 1, 38, 0
3, 425760, Note_on_c, 1, 53, 45
3, 425806, Note_on_c, 1, 53, 0
3, 425808, Note_on_c, 1, 50, 45
3, 425854, Note_on_c, 1, 50, 0
3, 425856, Note_on_c, 1, 53, 45
3, 425902, Note_on_c, 1, 53, 0
3, 425904, Note_on_c, 1, 45, 45
3, 425950, Note_on_c, 1, 45, 0
3, 425952, Note_on_c, 1, 53, 45
3, 425998, Note_on_c, 1, 53, 0
3, 426000, Note_on_c, 1, 38, 45
3, 426046, Note_on_c, 1, 38, 0
3, 426048, Note_on_c, 1, 53, 45
3, 426094, Note_on_c, 1, 53, 0
3, 426096, Note_on_c, 1, 50, 45
3, 426142, Note_on_c, 1, 50, 0
3, 426144, Note_on_c, 1, 53, 45
3, 426190, Note_on_c, 1, 53, 0
3, 426192, Note_on_c, 1, 45, 45
3, 426238, Note_on_c, 1, 45, 0
3, 426240, Note_on_c, 1, 53, 45
3, 426286, Note_on_c, 1, 53, 0
3, 426288, Note_on_c, 1, 38, 45
3, 426334, Note_on_c, 1, 38, 0
3, 426336, Note_on_c, 1, 53, 45
3, 426382, Note_on_c, 1, 53, 0
3, 426384, Note_on_c, 1, 50, 45
3, 426430, Note_on_c, 1, 50, 0
3, 426432, Note_on_c, 1, 53, 45
3, 426478, Note_on_c, 1, 53, 0
3, 426480, Note_on_c, 1, 45, 45
3, 426526, Note_on_c, 1, 45, 0
3, 426528, Note_on_c, 1, 53, 45
3, 426574, Note_on_c, 1, 53, 0
3, 426576, Note_on_c, 1, 38, 45
3, 426622, Note_on_c, 1, 38, 0
3, 426624, Note_on_c, 1, 53, 45
3, 426670, Note_on_c, 1, 53, 0
3, 426672, Note_on_c, 1, 50, 45
3, 426718, Note_on_c, 1, 50, 0
3, 426720, Note_on_c, 1, 53, 45
3, 426766, Note_on_c, 1, 53, 0
3, 426768, Note_on_c, 1, 45, 45
3, 426814, Note_on_c, 1, 45, 0
3, 426816, Note_on_c, 1, 53, 45
3, 426862, Note_on_c, 1, 53, 0
3, 426864, Note_on_c, 1, 33, 63
3, 426910, Note_on_c, 1, 33, 0
3, 426912, Note_on_c, 1, 53, 45
3, 426958, Note_on_c, 1, 53, 0
3, 426960, Note_on_c, 1, 50, 45
3, 427006, Note_on_c, 1, 50, 0
3, 427008, Note_on_c, 1, 53, 45
3, 427054, Note_on_c, 1, 53, 0
3, 427056, Note_on_c, 1, 45, 45
3, 427102, Note_on_c, 1, 45, 0
3, 427104, Note_on_c, 1, 53, 45
3, 427150, Note_on_c, 1, 53, 0
3, 427152, Note_on_c, 1, 33, 45
3, 427198, Note_on_c, 1, 33, 0
3, 427200, Note_on_c, 1, 55, 45
3, 427246, Note_on_c, 1, 55, 0
3, 427248, Note_on_c, 1, 52, 45
3, 427294, Note_on_c, 1, 52, 0
3, 427296, Note_on_c, 1, 55, 45
3, 427342, Note_on_c, 1, 55, 0
3, 427344, Note_on_c, 1, 45, 45
3, 427390, Note_on_c, 1, 45, 0
3, 427392, Note_on_c, 1, 55, 45
3, 427438, Note_on_c, 1, 55, 0
3, 427440, Note_on_c, 1, 38, 45
3, 427486, Note_on_c, 1, 38, 0
3, 427488, Note_on_c, 1, 53, 45
3, 427534, Note_on_c, 1, 53, 0
3, 427536, Note_on_c, 1, 50, 45
3, 427582, Note_on_c, 1, 50, 0
3, 427584, Note_on_c, 1, 53, 45
3, 427630, Note_on_c, 1, 53, 0
3, 427632, Note_on_c, 1, 45, 45
3, 427678, Note_on_c, 1, 45, 0
3, 427680, Note_on_c, 1, 53, 45
3, 427726, Note_on_c, 1, 53, 0
3, 427728, Note_on_c, 1, 38, 45
3, 427774, Note_on_c, 1, 38, 0
3, 427776, Note_on_c, 1, 53, 45
3, 427822, Note_on_c, 1, 53, 0
3, 427824, Note_on_c, 1, 50, 45
3, 427870, Note_on_c, 1, 50, 0
3, 427872, Note_on_c, 1, 53, 45
3, 427918, Note_on_c, 1, 53, 0
3, 427920, Note_on_c, 1, 45, 45
3, 427966, Note_on_c, 1, 45, 0
3, 427968, Note_on_c, 1, 53, 45
3, 428014, Note_on_c, 1, 53, 0
3, 428016, Note_on_c, 1, 38, 45
3, 428062, Note_on_c, 1, 38, 0
3, 428064, Note_on_c, 1, 53, 45
3, 428110, Note_on_c, 1, 53, 0
3, 428112, Note_on_c, 1, 50, 45
3, 428158, Note_on_c, 1, 50, 0
3, 428160, Note_on_c, 1, 53, 45
3, 428206, Note_on_c, 1, 53, 0
3, 428208, Note_on_c, 1, 45, 45
3, 428254, Note_on_c, 1, 45, 0
3, 428256, Note_on_c, 1, 53, 45
3, 428302, Note_on_c, 1, 53, 0
3, 428304, Note_on_c, 1, 38, 45
3, 428350, Note_on_c, 1, 38, 0
3, 428352, Note_on_c, 1, 53, 45
3, 428398, Note_on_c, 1, 53, 0
3, 428400, Note_on_c, 1, 50, 45
3, 428446, Note_on_c, 1, 50, 0
3, 428448, Note_on_c, 1, 53, 45
3, 428494, Note_on_c, 1, 53, 0
3, 428496, Note_on_c, 1, 45, 45
3, 428542, Note_on_c, 1, 45, 0
3, 428544, Note_on_c, 1, 53, 45
3, 428590, Note_on_c, 1, 53, 0
3, 428592, Note_on_c, 1, 33, 45
3, 428638, Note_on_c, 1, 33, 0
3, 428640, Note_on_c, 1, 53, 45
3, 428686, Note_on_c, 1, 53, 0
3, 428688, Note_on_c, 1, 50, 45
3, 428734, Note_on_c, 1, 50, 0
3, 428736, Note_on_c, 1, 53, 45
3, 428782, Note_on_c, 1, 53, 0
3, 428784, Note_on_c, 1, 45, 45
3, 428830, Note_on_c, 1, 45, 0
3, 428832, Note_on_c, 1, 53, 45
3, 428878, Note_on_c, 1, 53, 0
3, 428880, Note_on_c, 1, 33, 45
3, 428926, Note_on_c, 1, 33, 0
3, 428928, Note_on_c, 1, 55, 45
3, 428974, Note_on_c, 1, 55, 0
3, 428976, Note_on_c, 1, 52, 45
3, 429022, Note_on_c, 1, 52, 0
3, 429024, Note_on_c, 1, 55, 45
3, 429070, Note_on_c, 1, 55, 0
3, 429072, Note_on_c, 1, 45, 45
3, 429118, Note_on_c, 1, 45, 0
3, 429120, Note_on_c, 1, 55, 45
3, 429166, Note_on_c, 1, 55, 0
3, 429168, Note_on_c, 1, 50, 45
3, 429214, Note_on_c, 1, 50, 0
3, 429216, Note_on_c, 1, 62, 45
3, 429262, Note_on_c, 1, 62, 0
3, 429264, Note_on_c, 1, 61, 45
3, 429310, Note_on_c, 1, 61, 0
3, 429312, Note_on_c, 1, 62, 52
3, 429358, Note_on_c, 1, 62, 0
3, 429360, Note_on_c, 1, 60, 59
3, 429406, Note_on_c, 1, 60, 0
3, 429408, Note_on_c, 1, 62, 67
3, 429454, Note_on_c, 1, 62, 0
3, 429456, Note_on_c, 1, 58, 75
3, 429502, Note_on_c, 1, 58, 0
3, 429504, Note_on_c, 1, 62, 70
3, 429550, Note_on_c, 1, 62, 0
3, 429552, Note_on_c, 1, 57, 65
3, 429598, Note_on_c, 1, 57, 0
3, 429600, Note_on_c, 1, 62, 60
3, 429646, Note_on_c, 1, 62, 0
3, 429648, Note_on_c, 1, 56, 55
3, 429694, Note_on_c, 1, 56, 0
3, 429696, Note_on_c, 1, 62, 50
3, 429742, Note_on_c, 1, 62, 0
3, 429744, Note_on_c, 1, 57, 45
3, 429790, Note_on_c, 1, 57, 0
3, 429792, Note_on_c, 1, 62, 45
3, 429838, Note_on_c, 1, 62, 0
3, 429840, Note_on_c, 1, 64, 45
3, 429886, Note_on_c, 1, 64, 0
3, 429888, Note_on_c, 1, 57, 45
3, 429934, Note_on_c, 1, 57, 0
3, 429936, Note_on_c, 1, 65, 45
3, 429982, Note_on_c, 1, 65, 0
3, 429984, Note_on_c, 1, 57, 45
3, 430030, Note_on_c, 1, 57, 0
3, 430032, Note_on_c, 1, 67, 45
3, 430078, Note_on_c, 1, 67, 0
3, 430080, Note_on_c, 1, 57, 45
3, 430126, Note_on_c, 1, 57, 0
3, 430128, Note_on_c, 1, 65, 45
3, 430174, Note_on_c, 1, 65, 0
3, 430176, Note_on_c, 1, 57, 45
3, 430222, Note_on_c, 1, 57, 0
3, 430224, Note_on_c, 1, 64, 45
3, 430270, Note_on_c, 1, 64, 0
3, 430272, Note_on_c, 1, 57, 45
3, 430318, Note_on_c, 1, 57, 0
3, 430320, Note_on_c, 1, 50, 45
3, 430366, Note_on_c, 1, 50, 0
3, 430368, Note_on_c, 1, 62, 50
3, 430414, Note_on_c, 1, 62, 0
3, 430416, Note_on_c, 1, 61, 55
3, 430462, Note_on_c, 1, 61, 0
3, 430464, Note_on_c, 1, 62, 60
3, 430510, Note_on_c, 1, 62, 0
3, 430512, Note_on_c, 1, 60, 65
3, 430558, Note_on_c, 1, 60, 0
3, 430560, Note_on_c, 1, 62, 70
3, 430606, Note_on_c, 1, 62, 0
3, 430608, Note_on_c, 1, 58, 75
3, 430654, Note_on_c, 1, 58, 0
3, 430656, Note_on_c, 1, 62, 73
3, 430702, Note_on_c, 1, 62, 0
3, 430704, Note_on_c, 1, 57, 71
3, 430750, Note_on_c, 1, 57, 0
3, 430752, Note_on_c, 1, 62, 69
3, 430798, Note_on_c, 1, 62, 0
3, 430800, Note_on_c, 1, 56, 66
3, 430846, Note_on_c, 1, 56, 0
3, 430848, Note_on_c, 1, 62, 63
3, 430894, Note_on_c, 1, 62, 0
3, 430896, Note_on_c, 1, 57, 60
3, 430942, Note_on_c, 1, 57, 0
3, 430944, Note_on_c, 1, 62, 60
3, 430990, Note_on_c, 1, 62, 0
3, 430992, Note_on_c, 1, 64, 60
3, 431038, Note_on_c, 1, 64, 0
3, 431040, Note_on_c, 1, 57, 60
3, 431086, Note_on_c, 1, 57, 0
3, 431088, Note_on_c, 1, 65, 60
3, 431134, Note_on_c, 1, 65, 0
3, 431136, Note_on_c, 1, 57, 60
3, 431182, Note_on_c, 1, 57, 0
3, 431184, Note_on_c, 1, 67, 60
3, 431230, Note_on_c, 1, 67, 0
3, 431232, Note_on_c, 1, 57, 60
3, 431278, Note_on_c, 1, 57, 0
3, 431280, Note_on_c, 1, 65, 60
3, 431326, Note_on_c, 1, 65, 0
3, 431328, Note_on_c, 1, 57, 60
3, 431374, Note_on_c, 1, 57, 0
3, 431376, Note_on_c, 1, 64, 60
3, 431422, Note_on_c, 1, 64, 0
3, 431424, Note_on_c, 1, 57, 60
3, 431470, Note_on_c, 1, 57, 0
3, 431472, Note_on_c, 1, 50, 84
3, 431518, Note_on_c, 1, 50, 0
3, 431520, Note_on_c, 1, 62, 60
3, 431566, Note_on_c, 1, 62, 0
3, 431568, Note_on_c, 1, 61, 60
3, 431614, Note_on_c, 1, 61, 0
3, 431616, Note_on_c, 1, 62, 60
3, 431662, Note_on_c, 1, 62, 0
3, 431664, Note_on_c, 1, 50, 60
3, 431710, Note_on_c, 1, 50, 0
3, 431712, Note_on_c, 1, 62, 60
3, 431758, Note_on_c, 1, 62, 0
3, 431760, Note_on_c, 1, 61, 84
3, 431806, Note_on_c, 1, 61, 0
3, 431808, Note_on_c, 1, 62, 60
3, 431854, Note_on_c, 1, 62, 0
3, 431856, Note_on_c, 1, 50, 60
3, 431902, Note_on_c, 1, 50, 0
3, 431904, Note_on_c, 1, 62, 60
3, 431950, Note_on_c, 1, 62, 0
3, 431952, Note_on_c, 1, 61, 60
3, 431998, Note_on_c, 1, 61, 0
3, 432000, Note_on_c, 1, 62, 60
3, 432046, Note_on_c, 1, 62, 0
3, 432048, Note_on_c, 1, 50, 84
3, 432094, Note_on_c, 1, 50, 0
3, 432096, Note_on_c, 1, 62, 60
3, 432142, Note_on_c, 1, 62, 0
3, 432144, Note_on_c, 1, 61, 60
3, 432190, Note_on_c, 1, 61, 0
3, 432192, Note_on_c, 1, 62, 60
3, 432238, Note_on_c, 1, 62, 0
3, 432240, Note_on_c, 1, 50, 60
3, 432286, Note_on_c, 1, 50, 0
3, 432288, Note_on_c, 1, 62, 60
3, 432334, Note_on_c, 1, 62, 0
3, 432336, Note_on_c, 1, 61, 84
3, 432382, Note_on_c, 1, 61, 0
3, 432384, Note_on_c, 1, 62, 60
3, 432430, Note_on_c, 1, 62, 0
3, 432432, Note_on_c, 1, 50, 60
3, 432478, Note_on_c, 1, 50, 0
3, 432480, Note_on_c, 1, 62, 60
3, 432526, Note_on_c, 1, 62, 0
3, 432528, Note_on_c, 1, 61, 60
3, 432574, Note_on_c, 1, 61, 0
3, 432576, Note_on_c, 1, 62, 60
3, 432622, Note_on_c, 1, 62, 0
3, 432624, Note_on_c, 1, 46, 60
3, 432624, Note_on_c, 1, 48, 60
3, 432624, Note_on_c, 1, 52, 60
3, 432718, Note_on_c, 1, 46, 0
3, 432718, Note_on_c, 1, 48, 0
3, 432718, Note_on_c, 1, 52, 0
3, 433776, Note_on_c, 1, 46, 60
3, 433824, Note_on_c, 1, 48, 60
3, 433870, Note_on_c, 1, 48, 0
3, 433872, Note_on_c, 1, 52, 60
3, 433918, Note_on_c, 1, 52, 0
3, 434062, Note_on_c, 1, 46, 0
3, 434064, Note_on_c, 1, 46, 60
3, 434112, Note_on_c, 1, 48, 60
3, 434158, Note_on_c, 1, 48, 0
3, 434160, Note_on_c, 1, 52, 60
3, 434206, Note_on_c, 1, 52, 0
3, 434350, Note_on_c, 1, 46, 0
3, 434352, Note_on_c, 1, 46, 60
3, 434400, Note_on_c, 1, 48, 60
3, 434446, Note_on_c, 1, 48, 0
3, 434448, Note_on_c, 1, 52, 60
3, 434494, Note_on_c, 1, 52, 0
3, 434638, Note_on_c, 1, 46, 0
3, 434640, Note_on_c, 1, 46, 60
3, 434688, Note_on_c, 1, 48, 60
3, 434734, Note_on_c, 1, 48, 0
3, 434736, Note_on_c, 1, 52, 60
3, 434782, Note_on_c, 1, 52, 0
3, 434926, Note_on_c, 1, 46, 0
3, 434928, Note_on_c, 1, 55, 60
3, 434976, Note_on_c, 1, 58, 60
3, 435024, Note_on_c, 1, 62, 60
3, 435184, Note_on_c, 1, 55, 0
3, 435184, Note_on_c, 1, 58, 0
3, 435184, Note_on_c, 1, 62, 0
3, 435216, Note_on_c, 1, 55, 60
3, 435264, Note_on_c, 1, 58, 62
3, 435312, Note_on_c, 1, 61, 64
3, 435472, Note_on_c, 1, 55, 0
3, 435472, Note_on_c, 1, 58, 0
3, 435472, Note_on_c, 1, 61, 0
3, 435504, Note_on_c, 1, 55, 75
3, 435552, Note_on_c, 1, 58, 75
3, 435600, Note_on_c, 1, 62, 75
3, 435760, Note_on_c, 1, 55, 0
3, 435760, Note_on_c, 1, 58, 0
3, 435760, Note_on_c, 1, 62, 0
3, 435792, Note_on_c, 1, 55, 75
3, 435840, Note_on_c, 1, 61, 75
3, 435888, Note_on_c, 1, 64, 75
3, 436048, Note_on_c, 1, 55, 0
3, 436048, Note_on_c, 1, 61, 0
3, 436048, Note_on_c, 1, 64, 0
3, 436080, Note_on_c, 1, 68, 75
3, 436128, Note_on_c, 1, 71, 75
3, 436174, Note_on_c, 1, 71, 0
3, 436176, Note_on_c, 1, 74, 75
3, 436222, Note_on_c, 1, 74, 0
3, 436366, Note_on_c, 1, 68, 0
3, 436368, Note_on_c, 1, 68, 45
3, 436416, Note_on_c, 1, 71, 45
3, 436462, Note_on_c, 1, 71, 0
3, 436464, Note_on_c, 1, 74, 45
3, 436510, Note_on_c, 1, 74, 0
3, 436654, Note_on_c, 1, 68, 0
3, 436656, Note_on_c, 1, 68, 45
3, 436704, Note_on_c, 1, 71, 45
3, 436750, Note_on_c, 1, 71, 0
3, 436752, Note_on_c, 1, 74, 45
3, 436798, Note_on_c, 1, 74, 0
3, 436942, Note_on_c, 1, 68, 0
3, 436944, Note_on_c, 1, 68, 45
3, 436992, Note_on_c, 1, 71, 45
3, 437038, Note_on_c, 1, 71, 0
3, 437040, Note_on_c, 1, 74, 45
3, 437086, Note_on_c, 1, 74, 0
3, 437230, Note_on_c, 1, 68, 0
3, 437232, Note_on_c, 1, 57, 45
3, 437280, Note_on_c, 1, 61, 45
3, 437328, Note_on_c, 1, 64, 45
3, 437488, Note_on_c, 1, 57, 0
3, 437488, Note_on_c, 1, 61, 0
3, 437488, Note_on_c, 1, 64, 0
3, 437520, Note_on_c, 1, 57, 45
3, 437568, Note_on_c, 1, 61, 47
3, 437616, Note_on_c, 1, 63, 49
3, 437776, Note_on_c, 1, 57, 0
3, 437776, Note_on_c, 1, 61, 0
3, 437776, Note_on_c, 1, 63, 0
3, 437808, Note_on_c, 1, 57, 59
3, 437856, Note_on_c, 1, 61, 61
3, 437904, Note_on_c, 1, 64, 63
3, 438064, Note_on_c, 1, 57, 0
3, 438064, Note_on_c, 1, 61, 0
3, 438064, Note_on_c, 1, 64, 0
3, 438096, Note_on_c, 1, 57, 75
3, 438144, Note_on_c, 1, 61, 75
3, 438192, Note_on_c, 1, 66, 75
3, 438352, Note_on_c, 1, 57, 0
3, 438352, Note_on_c, 1, 61, 0
3, 438352, Note_on_c, 1, 66, 0
3, 438384, Note_on_c, 1, 57, 75
3, 438432, Note_on_c, 1, 61, 75
3, 438480, Note_on_c, 1, 67, 75
3, 438640, Note_on_c, 1, 57, 0
3, 438640, Note_on_c, 1, 61, 0
3, 438640, Note_on_c, 1, 67, 0
3, 438672, Note_on_c, 1, 57, 75
3, 438720, Note_on_c, 1, 61, 74
3, 438768, Note_on_c, 1, 66, 73
3, 438928, Note_on_c, 1, 57, 0
3, 438928, Note_on_c, 1, 61, 0
3, 438928, Note_on_c, 1, 66, 0
3, 438960, Note_on_c, 1, 57, 69
3, 439008, Note_on_c, 1, 61, 68
3, 439056, Note_on_c, 1, 67, 67
3, 439216, Note_on_c, 1, 57, 0
3, 439216, Note_on_c, 1, 61, 0
3, 439216, Note_on_c, 1, 67, 0
3, 439248, Note_on_c, 1, 57, 62
3, 439296, Note_on_c, 1, 61, 60
3, 439344, Note_on_c, 1, 65, 60
3, 439504, Note_on_c, 1, 57, 0
3, 439504, Note_on_c, 1, 61, 0
3, 439504, Note_on_c, 1, 65, 0
3, 439536, Note_on_c, 1, 57, 60
3, 439584, Note_on_c, 1, 61, 60
3, 439632, Note_on_c, 1, 64, 60
3, 439792, Note_on_c, 1, 57, 0
3, 439792, Note_on_c, 1, 61, 0
3, 439792, Note_on_c, 1, 64, 0
3, 439824, Note_on_c, 1, 57, 60
3, 439872, Note_on_c, 1, 61, 61
3, 439920, Note_on_c, 1, 63, 62
3, 440080, Note_on_c, 1, 57, 0
3, 440080, Note_on_c, 1, 61, 0
3, 440080, Note_on_c, 1, 63, 0
3, 440112, Note_on_c, 1, 57, 67
3, 440160, Note_on_c, 1, 61, 68
3, 440208, Note_on_c, 1, 64, 69
3, 440368, Note_on_c, 1, 57, 0
3, 440368, Note_on_c, 1, 61, 0
3, 440368, Note_on_c, 1, 64, 0
3, 440400, Note_on_c, 1, 57, 75
3, 440448, Note_on_c, 1, 61, 75
3, 440496, Note_on_c, 1, 66, 75
3, 440656, Note_on_c, 1, 57, 0
3, 440656, Note_on_c, 1, 61, 0
3, 440656, Note_on_c, 1, 66, 0
3, 440688, Note_on_c, 1, 57, 75
3, 440736, Note_on_c, 1, 61, 75
3, 440784, Note_on_c, 1, 67, 75
3, 440944, Note_on_c, 1, 57, 0
3, 440944, Note_on_c, 1, 61, 0
3, 440944, Note_on_c, 1, 67, 0
3, 440976, Note_on_c, 1, 57, 75
3, 441024, Note_on_c, 1, 61, 72
3, 441072, Note_on_c, 1, 67, 69
3, 441232, Note_on_c, 1, 57, 0
3, 441232, Note_on_c, 1, 61, 0
3, 441232, Note_on_c, 1, 67, 0
3, 441264, Note_on_c, 1, 57, 54
3, 441312, Note_on_c, 1, 61, 50
3, 441360, Note_on_c, 1, 67, 46
3, 441520, Note_on_c, 1, 57, 0
3, 441520, Note_on_c, 1, 61, 0
3, 441520, Note_on_c, 1, 67, 0
3, 441552, Note_on_c, 1, 57, 30
3, 441600, Note_on_c, 1, 61, 30
3, 441646, Note_on_c, 1, 61, 0
3, 441648, Note_on_c, 1, 64, 30
3, 441694, Note_on_c, 1, 64, 0
3, 441838, Note_on_c, 1, 57, 0
3, 441840, Note_on_c, 1, 50, 30
3, 441886, Note_on_c, 1, 50, 0
3, 441888, Note_on_c, 1, 57, 30
3, 441936, Note_on_c, 1, 62, 30
3, 441982, Note_on_c, 1, 62, 0
3, 441984, Note_on_c, 1, 65, 30
3, 442030, Note_on_c, 1, 65, 0
3, 442126, Note_on_c, 1, 57, 0
3, 442128, Note_on_c, 1, 50, 30
3, 442174, Note_on_c, 1, 50, 0
3, 442176, Note_on_c, 1, 57, 30
3, 442224, Note_on_c, 1, 62, 30
3, 442270, Note_on_c, 1, 62, 0
3, 442272, Note_on_c, 1, 65, 30
3, 442318, Note_on_c, 1, 65, 0
3, 442414, Note_on_c, 1, 57, 0
3, 442416, Note_on_c, 1, 50, 30
3, 442462, Note_on_c, 1, 50, 0
3, 442464, Note_on_c, 1, 57, 30
3, 442512, Note_on_c, 1, 62, 30
3, 442558, Note_on_c, 1, 62, 0
3, 442560, Note_on_c, 1, 65, 30
3, 442606, Note_on_c, 1, 65, 0
3, 442702, Note_on_c, 1, 57, 0
3, 442704, Note_on_c, 1, 45, 30
3, 442750, Note_on_c, 1, 45, 0
3, 442752, Note_on_c, 1, 57, 30
3, 442800, Note_on_c, 1, 61, 30
3, 442846, Note_on_c, 1, 61, 0
3, 442848, Note_on_c, 1, 64, 30
3, 442894, Note_on_c, 1, 64, 0
3, 442990, Note_on_c, 1, 57, 0
3, 442992, Note_on_c, 1, 45, 30
3, 443038, Note_on_c, 1, 45, 0
3, 443040, Note_on_c, 1, 57, 30
3, 443088, Note_on_c, 1, 61, 30
3, 443134, Note_on_c, 1, 61, 0
3, 443136, Note_on_c, 1, 64, 30
3, 443182, Note_on_c, 1, 64, 0
3, 443278, Note_on_c, 1, 57, 0
3, 443280, Note_on_c, 1, 45, 30
3, 443326, Note_on_c, 1, 45, 0
3, 443328, Note_on_c, 1, 57, 30
3, 443376, Note_on_c, 1, 61, 30
3, 443422, Note_on_c, 1, 61, 0
3, 443424, Note_on_c, 1, 64, 30
3, 443470, Note_on_c, 1, 64, 0
3, 443566, Note_on_c, 1, 57, 0
3, 443568, Note_on_c, 1, 45, 30
3, 443614, Note_on_c, 1, 45, 0
3, 443616, Note_on_c, 1, 57, 30
3, 443664, Note_on_c, 1, 61, 30
3, 443710, Note_on_c, 1, 61, 0
3, 443712, Note_on_c, 1, 64, 30
3, 443758, Note_on_c, 1, 64, 0
3, 443854, Note_on_c, 1, 57, 0
3, 443856, Note_on_c, 1, 50, 30
3, 443902, Note_on_c, 1, 50, 0
3, 443904, Note_on_c, 1, 57, 30
3, 443952, Note_on_c, 1, 62, 30
3, 443998, Note_on_c, 1, 62, 0
3, 444000, Note_on_c, 1, 65, 30
3, 444046, Note_on_c, 1, 65, 0
3, 444142, Note_on_c, 1, 57, 0
3, 444144, Note_on_c, 1, 55, 45
3, 444192, Note_on_c, 1, 62, 45
3, 444240, Note_on_c, 1, 67, 45
3, 444400, Note_on_c, 1, 55, 0
3, 444400, Note_on_c, 1, 62, 0
3, 444400, Note_on_c, 1, 67, 0
3, 444432, Note_on_c, 1, 51, 45
3, 444480, Note_on_c, 1, 58, 50
3, 444528, Note_on_c, 1, 63, 55
3, 444688, Note_on_c, 1, 51, 0
3, 444688, Note_on_c, 1, 58, 0
3, 444688, Note_on_c, 1, 63, 0
3, 444720, Note_on_c, 1, 49, 75
3, 444768, Note_on_c, 1, 57, 73
3, 444816, Note_on_c, 1, 57, 0
3, 444816, Note_on_c, 1, 57, 71
3, 444816, Note_on_c, 1, 61, 71
3, 444976, Note_on_c, 1, 49, 0
3, 444976, Note_on_c, 1, 57, 0
3, 444976, Note_on_c, 1, 61, 0
3, 445008, Note_on_c, 1, 50, 61
3, 445056, Note_on_c, 1, 57, 59
3, 445104, Note_on_c, 1, 62, 57
3, 445264, Note_on_c, 1, 50, 0
3, 445264, Note_on_c, 1, 57, 0
3, 445264, Note_on_c, 1, 62, 0
3, 445296, Note_on_c, 1, 45, 45
3, 445344, Note_on_c, 1, 53, 45
3, 445392, Note_on_c, 1, 57, 45
3, 445552, Note_on_c, 1, 45, 0
3, 445552, Note_on_c, 1, 53, 0
3, 445552, Note_on_c, 1, 57, 0
3, 445584, Note_on_c, 1, 45, 45
3, 445632, Note_on_c, 1, 52, 45
3, 445680, Note_on_c, 1, 55, 45
3, 445728, Note_on_c, 1, 57, 45
3, 445870, Note_on_c, 1, 45, 0
3, 445870, Note_on_c, 1, 52, 0
3, 445870, Note_on_c, 1, 55, 0
3, 445870, Note_on_c, 1, 57, 0
3, 445872, Note_on_c, 1, 38, 92
3, 445918, Note_on_c, 1, 38, 0
3, 445920, Note_on_c, 1, 50, 92
3, 445966, Note_on_c, 1, 50, 0
3, 445968, Note_on_c, 1, 53, 92
3, 446014, Note_on_c, 1, 53, 0
3, 446016, Note_on_c, 1, 57, 92
3, 446062, Note_on_c, 1, 57, 0
3, 446064, Note_on_c, 1, 62, 92
3, 446158, Note_on_c, 1, 62, 0
3, 446448, Note_on_c, 1, 55, 92
3, 446496, Note_on_c, 1, 62, 92
3, 446544, Note_on_c, 1, 67, 92
3, 446704, Note_on_c, 1, 55, 0
3, 446704, Note_on_c, 1, 62, 0
3, 446704, Note_on_c, 1, 67, 0
3, 446736, Note_on_c, 1, 51, 92
3, 446784, Note_on_c, 1, 58, 92
3, 446832, Note_on_c, 1, 63, 92
3, 446992, Note_on_c, 1, 51, 0
3, 446992, Note_on_c, 1, 58, 0
3, 446992, Note_on_c, 1, 63, 0
3, 447024, Note_on_c, 1, 49, 92
3, 447072, Note_on_c, 1, 49, 0
3, 447072, Note_on_c, 1, 49, 92
3, 447072, Note_on_c, 1, 57, 92
3, 447120, Note_on_c, 1, 61, 92
3, 447280, Note_on_c, 1, 49, 0
3, 447280, Note_on_c, 1, 57, 0
3, 447280, Note_on_c, 1, 61, 0
3, 447312, Note_on_c, 1, 50, 92
3, 447360, Note_on_c, 1, 57, 85
3, 447408, Note_on_c, 1, 62, 77
3, 447568, Note_on_c, 1, 50, 0
3, 447568, Note_on_c, 1, 57, 0
3, 447568, Note_on_c, 1, 62, 0
3, 447600, Note_on_c, 1, 45, 45
3, 447648, Note_on_c, 1, 53, 45
3, 447696, Note_on_c, 1, 57, 45
3, 447856, Note_on_c, 1, 45, 0
3, 447856, Note_on_c, 1, 53, 0
3, 447856, Note_on_c, 1, 57, 0
3, 447888, Note_on_c, 1, 45, 45
3, 447936, Note_on_c, 1, 52, 45
3, 447984, Note_on_c, 1, 55, 45
3, 448032, Note_on_c, 1, 57, 45
3, 448174, Note_on_c, 1, 45, 0
3, 448174, Note_on_c, 1, 52, 0
3, 448174, Note_on_c, 1, 55, 0
3, 448174, Note_on_c, 1, 57, 0
3, 448176, Note_on_c, 1, 50, 45
3, 448222, Note_on_c, 1, 50, 0
3, 448224, Note_on_c, 1, 53, 45
3, 448270, Note_on_c, 1, 53, 0
3, 448272, Note_on_c, 1, 57, 45
3, 448318, Note_on_c, 1, 57, 0
3, 448320, Note_on_c, 1, 62, 45
3, 448366, Note_on_c, 1, 62, 0
3, 448752, Note_on_c, 1, 45, 45
3, 448800, Note_on_c, 1, 53, 45
3, 448848, Note_on_c, 1, 57, 45
3, 449008, Note_on_c, 1, 45, 0
3, 449008, Note_on_c, 1, 53, 0
3, 449008, Note_on_c, 1, 57, 0
3, 449040, Note_on_c, 1, 45, 45
3, 449088, Note_on_c, 1, 52, 52
3, 449136, Note_on_c, 1, 55, 60
3, 449184, Note_on_c, 1, 57, 68
3, 449326, Note_on_c, 1, 45, 0
3, 449326, Note_on_c, 1, 52, 0
3, 449326, Note_on_c, 1, 55, 0
3, 449326, Note_on_c, 1, 57, 0
3, 449328, Note_on_c, 1, 50, 92
3, 449374, Note_on_c, 1, 50, 0
3, 449376, Note_on_c, 1, 53, 92
3, 449422, Note_on_c, 1, 53, 0
3, 449424, Note_on_c, 1, 57, 92
3, 449470, Note_on_c, 1, 57, 0
3, 449472, Note_on_c, 1, 62, 92
3, 449518, Note_on_c, 1, 62, 0
3, 449904, Note_on_c, 1, 45, 45
3, 449952, Note_on_c, 1, 53, 45
3, 450000, Note_on_c, 1, 57, 45
3, 450160, Note_on_c, 1, 45, 0
3, 450160, Note_on_c, 1, 53, 0
3, 450160, Note_on_c, 1, 57, 0
3, 450192, Note_on_c, 1, 45, 45
3, 450240, Note_on_c, 1, 52, 52
3, 450288, Note_on_c, 1, 55, 60
3, 450336, Note_on_c, 1, 57, 68
3, 450478, Note_on_c, 1, 45, 0
3, 450478, Note_on_c, 1, 52, 0
3, 450478, Note_on_c, 1, 55, 0
3, 450478, Note_on_c, 1, 57, 0
3, 450480, Note_on_c, 1, 50, 92
3, 450574, Note_on_c, 1, 50, 0
3, 450576, Note_on_c, 1, 77, 108
3, 450816, Note_on_c, 1, 77, 0
3, 450816, Note_on_c, 1, 76, 108
3, 450864, Note_on_c, 1, 76, 0
3, 450864, Note_on_c, 1, 75, 108
3, 450912, Note_on_c, 1, 75, 0
3, 450912, Note_on_c, 1, 74, 108
3, 450960, Note_on_c, 1, 74, 0
3, 450960, Note_on_c, 1, 73, 108
3, 451008, Note_on_c, 1, 73, 0
3, 451008, Note_on_c, 1, 72, 108
3, 451056, Note_on_c, 1, 72, 0
3, 451056, Note_on_c, 1, 71, 108
3, 451104, Note_on_c, 1, 71, 0
3, 451104, Note_on_c, 1, 70, 108
3, 451152, Note_on_c, 1, 70, 0
3, 451152, Note_on_c, 1, 69, 108
3, 451200, Note_on_c, 1, 69, 0
3, 451200, Note_on_c, 1, 68, 108
3, 451248, Note_on_c, 1, 68, 0
3, 451248, Note_on_c, 1, 67, 108
3, 451296, Note_on_c, 1, 67, 0
3, 451296, Note_on_c, 1, 66, 108
3, 451344, Note_on_c, 1, 66, 0
3, 451344, Note_on_c, 1, 65, 108
3, 451368, Note_on_c, 1, 65, 0
3, 451368, Note_on_c, 1, 64, 108
3, 451392, Note_on_c, 1, 64, 0
3, 451392, Note_on_c, 1, 63, 108
3, 451416, Note_on_c, 1, 63, 0
3, 451416, Note_on_c, 1, 62, 108
3, 451440, Note_on_c, 1, 62, 0
3, 451440, Note_on_c, 1, 69, 127
3, 451534, Note_on_c, 1, 69, 0
3, 451632, Note_on_c, 1, 57, 108
3, 451726, Note_on_c, 1, 57, 0
3, 451728, Note_on_c, 1, 50, 45
3, 451774, Note_on_c, 1, 50, 0
3, 451776, Note_on_c, 1, 57, 45
3, 451824, Note_on_c, 1, 62, 45
3, 451870, Note_on_c, 1, 62, 0
3, 451872, Note_on_c, 1, 65, 45
3, 451918, Note_on_c, 1, 65, 0
3, 452014, Note_on_c, 1, 57, 0
3, 452016, Note_on_c, 1, 45, 45
3, 452062, Note_on_c, 1, 45, 0
3, 452064, Note_on_c, 1, 57, 45
3, 452112, Note_on_c, 1, 61, 45
3, 452158, Note_on_c, 1, 61, 0
3, 452160, Note_on_c, 1, 64, 45
3, 452206, Note_on_c, 1, 64, 0
3, 452302, Note_on_c, 1, 57, 0
3, 452304, Note_on_c, 1, 50, 45
3, 452350, Note_on_c, 1, 50, 0
3, 452352, Note_on_c, 1, 57, 45
3, 452400, Note_on_c, 1, 62, 45
3, 452446, Note_on_c, 1, 62, 0
3, 452448, Note_on_c, 1, 65, 45
3, 452494, Note_on_c, 1, 65, 0
3, 452590, Note_on_c, 1, 57, 0
3, 452592, Note_on_c, 1, 45, 45
3, 452638, Note_on_c, 1, 45, 0
3, 452640, Note_on_c, 1, 57, 45
3, 452688, Note_on_c, 1, 61, 45
3, 452734, Note_on_c, 1, 61, 0
3, 452736, Note_on_c, 1, 64, 45
3, 452782, Note_on_c, 1, 64, 0
3, 452878, Note_on_c, 1, 57, 0
3, 452880, Note_on_c, 1, 50, 45
3, 452926, Note_on_c, 1, 50, 0
3, 452928, Note_on_c, 1, 57, 45
3, 452976, Note_on_c, 1, 62, 45
3, 453022, Note_on_c, 1, 62, 0
3, 453024, Note_on_c, 1, 65, 45
3, 453070, Note_on_c, 1, 65, 0
3, 453166, Note_on_c, 1, 57, 0
3, 453168, Note_on_c, 1, 45, 45
3, 453214, Note_on_c, 1, 45, 0
3, 453216, Note_on_c, 1, 57, 45
3, 453264, Note_on_c, 1, 61, 45
3, 453310, Note_on_c, 1, 61, 0
3, 453312, Note_on_c, 1, 64, 45
3, 453358, Note_on_c, 1, 64, 0
3, 453454, Note_on_c, 1, 57, 0
3, 453456, Note_on_c, 1, 50, 45
3, 453502, Note_on_c, 1, 50, 0
3, 453504, Note_on_c, 1, 57, 45
3, 453552, Note_on_c, 1, 62, 45
3, 453598, Note_on_c, 1, 62, 0
3, 453600, Note_on_c, 1, 65, 45
3, 453646, Note_on_c, 1, 65, 0
3, 453742, Note_on_c, 1, 57, 0
3, 453744, Note_on_c, 1, 45, 45
3, 453790, Note_on_c, 1, 45, 0
3, 453792, Note_on_c, 1, 57, 45
3, 453840, Note_on_c, 1, 61, 45
3, 453886, Note_on_c, 1, 61, 0
3, 453888, Note_on_c, 1, 64, 45
3, 453934, Note_on_c, 1, 64, 0
3, 454030, Note_on_c, 1, 57, 0
3, 454032, Note_on_c, 1, 50, 45
3, 454078, Note_on_c, 1, 50, 0
3, 454080, Note_on_c, 1, 57, 45
3, 454128, Note_on_c, 1, 62, 45
3, 454174, Note_on_c, 1, 62, 0
3, 454176, Note_on_c, 1, 65, 45
3, 454222, Note_on_c, 1, 65, 0
3, 454318, Note_on_c, 1, 57, 0
3, 454320, Note_on_c, 1, 50, 45
3, 454366, Note_on_c, 1, 50, 0
3, 454368, Note_on_c, 1, 57, 47
3, 454416, Note_on_c, 1, 62, 49
3, 454462, Note_on_c, 1, 62, 0
3, 454464, Note_on_c, 1, 65, 51
3, 454510, Note_on_c, 1, 65, 0
3, 454606, Note_on_c, 1, 57, 0
3, 454608, Note_on_c, 1, 50, 58
3, 454654, Note_on_c, 1, 50, 0
3, 454656, Note_on_c, 1, 57, 60
3, 454704, Note_on_c, 1, 62, 63
3, 454750, Note_on_c, 1, 62, 0
3, 454752, Note_on_c, 1, 65, 66
3, 454798, Note_on_c, 1, 65, 0
3, 454894, Note_on_c, 1, 57, 0
3, 454896, Note_on_c, 1, 50, 75
3, 454942, Note_on_c, 1, 50, 0
3, 454944, Note_on_c, 1, 57, 75
3, 454992, Note_on_c, 1, 62, 75
3, 455038, Note_on_c, 1, 62, 0
3, 455040, Note_on_c, 1, 65, 75
3, 455086, Note_on_c, 1, 65, 0
3, 455182, Note_on_c, 1, 57, 0
3, 455184, Note_on_c, 1, 50, 45
3, 455278, Note_on_c, 1, 50, 0
3, 455472, Note_on_c, 1, 53, 45
3, 455518, Note_on_c, 1, 53, 0
3, 455520, Note_on_c, 1, 62, 45
3, 455566, Note_on_c, 1, 62, 0
3, 455568, Note_on_c, 1, 57, 45
3, 455614, Note_on_c, 1, 57, 0
3, 455616, Note_on_c, 1, 53, 45
3, 455662, Note_on_c, 1, 53, 0
3, 455664, Note_on_c, 1, 50, 45
3, 455694, Note_on_c, 1, 50, 0
3, 455696, Note_on_c, 1, 45, 45
3, 455726, Note_on_c, 1, 45, 0
3, 455728, Note_on_c, 1, 41, 45
3, 455758, Note_on_c, 1, 41, 0
3, 455760, Note_on_c, 1, 38, 45
3, 455902, Note_on_c, 1, 38, 0
3, 456048, Control_c, 1, 7, 0
3, 456048, Note_on_c, 1, 38, 45
3, 456768, Note_on_c, 1, 38, 0
3, 456768, End_track
0, 0, End_of_file