0, 0, Header, 1, 3, 192
1, 0, Start_track
1, 0, Title_t, "Andante Grazioso con Moto"
1, 0, Text_t, "By Ludwig V Beethoven"
1, 0, Copyright_t, "Copyright \251October 2001 by Reginald Steven Ritchie"
1, 0, Copyright_t, "Reginald Steven Ritchie"
1, 0, Text_t, "Generated by NoteWorthy Composer"
1, 0, Tempo, 750000
1, 0, Tempo, 750000
1, 0, Key_signature, -1, "major"
1, 0, Time_signature, 3, 3, 24, 8
1, 23424, Key_signature, -2, "major"
1, 34368, Key_signature, -1, "major"
1, 34368, End_track
2, 0, Start_track
2, 0, MIDI_port, 0
2, 0, Title_t, "Copyright Reg 2001"
2, 0, Program_c, 0, 0
2, 0, Control_c, 0, 7, 127
2, 0, Control_c, 0, 10, 107
2, 0, Program_c, 0, 0
2, 0, Control_c, 0, 7, 127
2, 0, Control_c, 0, 10, 107
2, 0, Control_c, 0, 91, 89
2, 0, Control_c, 0, 93, 90
2, 0, Note_on_c, 0, 65, 60
2, 0, Note_on_c, 0, 72, 60
2, 70, Note_on_c, 0, 72, 0
2, 72, Note_on_c, 0, 74, 60
2, 94, Note_on_c, 0, 65, 0
2, 94, Note_on_c, 0, 74, 0
2, 96, Note_on_c, 0, 67, 60
2, 96, Note_on_c, 0, 72, 60
2, 190, Note_on_c, 0, 72, 0
2, 192, Note_on_c, 0, 70, 60
2, 256, Note_on_c, 0, 67, 0
2, 286, Note_on_c, 0, 70, 0
2, 288, Note_on_c, 0, 60, 60
2, 288, Note_on_c, 0, 69, 60
2, 358, Note_on_c, 0, 69, 0
2, 360, Note_on_c, 0, 70, 60
2, 382, Note_on_c, 0, 60, 0
2, 382, Note_on_c, 0, 70, 0
2, 384, Note_on_c, 0, 64, 60
2, 384, Note_on_c, 0, 69, 60
2, 478, Note_on_c, 0, 69, 0
2, 480, Note_on_c, 0, 67, 60
2, 544, Note_on_c, 0, 64, 0
2, 574, Note_on_c, 0, 67, 0
2, 576, Note_on_c, 0, 62, 60
2, 576, Note_on_c, 0, 65, 60
2, 648, Note_on_c, 0, 62, 0
2, 648, Note_on_c, 0, 65, 0
2, 648, Note_on_c, 0, 62, 60
2, 648, Note_on_c, 0, 66, 60
2, 672, Note_on_c, 0, 62, 0
2, 672, Note_on_c, 0, 66, 0
2, 672, Note_on_c, 0, 62, 60
2, 672, Note_on_c, 0, 67, 60
2, 768, Note_on_c, 0, 62, 0
2, 768, Note_on_c, 0, 67, 0
2, 768, Note_on_c, 0, 62, 60
2, 768, Note_on_c, 0, 67, 60
2, 840, Note_on_c, 0, 62, 0
2, 840, Note_on_c, 0, 67, 0
2, 840, Note_on_c, 0, 60, 60
2, 840, Note_on_c, 0, 66, 60
2, 840, Note_on_c, 0, 69, 60
2, 864, Note_on_c, 0, 60, 0
2, 864, Note_on_c, 0, 66, 0
2, 864, Note_on_c, 0, 69, 0
2, 864, Note_on_c, 0, 72, 60
2, 888, Note_on_c, 0, 72, 0
2, 888, Note_on_c, 0, 62, 60
2, 888, Note_on_c, 0, 67, 60
2, 888, Note_on_c, 0, 70, 60
2, 936, Note_on_c, 0, 62, 0
2, 936, Note_on_c, 0, 67, 0
2, 936, Note_on_c, 0, 70, 0
2, 936, Note_on_c, 0, 62, 60
2, 936, Note_on_c, 0, 67, 60
2, 960, Note_on_c, 0, 62, 0
2, 960, Note_on_c, 0, 67, 0
2, 960, Note_on_c, 0, 57, 60
2, 960, Note_on_c, 0, 60, 60
2, 960, Note_on_c, 0, 65, 60
2, 1056, Note_on_c, 0, 57, 0
2, 1056, Note_on_c, 0, 60, 0
2, 1056, Note_on_c, 0, 65, 0
2, 1056, Note_on_c, 0, 55, 60
2, 1056, Note_on_c, 0, 60, 60
2, 1056, Note_on_c, 0, 64, 60
2, 1102, Note_on_c, 0, 55, 0
2, 1102, Note_on_c, 0, 60, 0
2, 1102, Note_on_c, 0, 64, 0
2, 1152, Note_on_c, 0, 65, 60
2, 1152, Note_on_c, 0, 72, 60
2, 1222, Note_on_c, 0, 72, 0
2, 1224, Note_on_c, 0, 74, 60
2, 1246, Note_on_c, 0, 65, 0
2, 1246, Note_on_c, 0, 74, 0
2, 1248, Note_on_c, 0, 67, 60
2, 1248, Note_on_c, 0, 72, 60
2, 1342, Note_on_c, 0, 72, 0
2, 1344, Note_on_c, 0, 70, 60
2, 1408, Note_on_c, 0, 67, 0
2, 1438, Note_on_c, 0, 70, 0
2, 1440, Note_on_c, 0, 60, 60
2, 1440, Note_on_c, 0, 69, 60
2, 1510, Note_on_c, 0, 69, 0
2, 1512, Note_on_c, 0, 70, 60
2, 1534, Note_on_c, 0, 60, 0
2, 1534, Note_on_c, 0, 70, 0
2, 1536, Note_on_c, 0, 64, 60
2, 1536, Note_on_c, 0, 69, 60
2, 1630, Note_on_c, 0, 69, 0
2, 1632, Note_on_c, 0, 67, 60
2, 1678, Note_on_c, 0, 67, 0
2, 1680, Note_on_c, 0, 67, 60
2, 1696, Note_on_c, 0, 64, 0
2, 1726, Note_on_c, 0, 67, 0
2, 1728, Note_on_c, 0, 57, 60
2, 1728, Note_on_c, 0, 62, 60
2, 1728, Note_on_c, 0, 65, 60
2, 1798, Note_on_c, 0, 57, 0
2, 1798, Note_on_c, 0, 62, 0
2, 1798, Note_on_c, 0, 65, 0
2, 1800, Note_on_c, 0, 58, 60
2, 1800, Note_on_c, 0, 62, 60
2, 1800, Note_on_c, 0, 67, 60
2, 1822, Note_on_c, 0, 58, 0
2, 1822, Note_on_c, 0, 62, 0
2, 1822, Note_on_c, 0, 67, 0
2, 1824, Note_on_c, 0, 60, 84
2, 1824, Note_on_c, 0, 65, 84
2, 1824, Note_on_c, 0, 69, 84
2, 1984, Note_on_c, 0, 60, 0
2, 1984, Note_on_c, 0, 65, 0
2, 1984, Note_on_c, 0, 69, 0
2, 2016, Note_on_c, 0, 58, 60
2, 2016, Note_on_c, 0, 64, 60
2, 2016, Note_on_c, 0, 70, 60
2, 2086, Note_on_c, 0, 70, 0
2, 2088, Note_on_c, 0, 67, 60
2, 2110, Note_on_c, 0, 58, 0
2, 2110, Note_on_c, 0, 64, 0
2, 2110, Note_on_c, 0, 67, 0
2, 2112, Note_on_c, 0, 57, 60
2, 2112, Note_on_c, 0, 65, 60
2, 2206, Note_on_c, 0, 57, 0
2, 2206, Note_on_c, 0, 65, 0
2, 2304, Note_on_c, 0, 72, 60
2, 2374, Note_on_c, 0, 72, 0
2, 2376, Note_on_c, 0, 69, 60
2, 2398, Note_on_c, 0, 69, 0
2, 2400, Note_on_c, 0, 70, 60
2, 2494, Note_on_c, 0, 70, 0
2, 2496, Note_on_c, 0, 67, 60
2, 2528, Note_on_c, 0, 67, 0
2, 2592, Note_on_c, 0, 79, 60
2, 2662, Note_on_c, 0, 79, 0
2, 2664, Note_on_c, 0, 76, 60
2, 2686, Note_on_c, 0, 76, 0
2, 2688, Note_on_c, 0, 77, 60
2, 2782, Note_on_c, 0, 77, 0
2, 2784, Note_on_c, 0, 72, 60
2, 2816, Note_on_c, 0, 72, 0
2, 2880, Note_on_c, 0, 72, 60
2, 2902, Note_on_c, 0, 72, 0
2, 2904, Note_on_c, 0, 69, 60
2, 2926, Note_on_c, 0, 69, 0
2, 2928, Note_on_c, 0, 72, 60
2, 2950, Note_on_c, 0, 72, 0
2, 2952, Note_on_c, 0, 69, 60
2, 2974, Note_on_c, 0, 69, 0
2, 2976, Note_on_c, 0, 70, 60
2, 3070, Note_on_c, 0, 70, 0
2, 3072, Note_on_c, 0, 67, 60
2, 3104, Note_on_c, 0, 67, 0
2, 3168, Note_on_c, 0, 79, 60
2, 3190, Note_on_c, 0, 79, 0
2, 3192, Note_on_c, 0, 76, 60
2, 3214, Note_on_c, 0, 76, 0
2, 3216, Note_on_c, 0, 79, 60
2, 3238, Note_on_c, 0, 79, 0
2, 3240, Note_on_c, 0, 76, 60
2, 3262, Note_on_c, 0, 76, 0
2, 3264, Note_on_c, 0, 77, 60
2, 3358, Note_on_c, 0, 77, 0
2, 3360, Note_on_c, 0, 72, 60
2, 3392, Note_on_c, 0, 72, 0
2, 3408, Note_on_c, 0, 79, 60
2, 3430, Note_on_c, 0, 79, 0
2, 3432, Note_on_c, 0, 76, 60
2, 3454, Note_on_c, 0, 76, 0
2, 3456, Note_on_c, 0, 77, 60
2, 3502, Note_on_c, 0, 77, 0
2, 3504, Note_on_c, 0, 79, 60
2, 3526, Note_on_c, 0, 79, 0
2, 3528, Note_on_c, 0, 76, 60
2, 3550, Note_on_c, 0, 76, 0
2, 3552, Note_on_c, 0, 77, 60
2, 3646, Note_on_c, 0, 77, 0
2, 3648, Note_on_c, 0, 72, 60
2, 3680, Note_on_c, 0, 72, 0
2, 3696, Note_on_c, 0, 79, 60
2, 3718, Note_on_c, 0, 79, 0
2, 3720, Note_on_c, 0, 76, 60
2, 3742, Note_on_c, 0, 76, 0
2, 3744, Note_on_c, 0, 77, 60
2, 3790, Note_on_c, 0, 77, 0
2, 3792, Note_on_c, 0, 79, 60
2, 3814, Note_on_c, 0, 79, 0
2, 3816, Note_on_c, 0, 76, 60
2, 3838, Note_on_c, 0, 76, 0
2, 3840, Note_on_c, 0, 77, 60
2, 3886, Note_on_c, 0, 77, 0
2, 3888, Note_on_c, 0, 79, 60
2, 3910, Note_on_c, 0, 79, 0
2, 3912, Note_on_c, 0, 76, 60
2, 3934, Note_on_c, 0, 76, 0
2, 3936, Note_on_c, 0, 77, 60
2, 3982, Note_on_c, 0, 77, 0
2, 3984, Note_on_c, 0, 79, 60
2, 4006, Note_on_c, 0, 79, 0
2, 4008, Note_on_c, 0, 76, 60
2, 4030, Note_on_c, 0, 76, 0
2, 4032, Note_on_c, 0, 77, 60
2, 4078, Note_on_c, 0, 77, 0
2, 4080, Note_on_c, 0, 79, 60
2, 4102, Note_on_c, 0, 79, 0
2, 4104, Note_on_c, 0, 76, 60
2, 4126, Note_on_c, 0, 76, 0
2, 4128, Note_on_c, 0, 77, 60
2, 4174, Note_on_c, 0, 77, 0
2, 4176, Note_on_c, 0, 79, 60
2, 4198, Note_on_c, 0, 79, 0
2, 4200, Note_on_c, 0, 76, 60
2, 4222, Note_on_c, 0, 76, 0
2, 4224, Note_on_c, 0, 77, 60
2, 4270, Note_on_c, 0, 77, 0
2, 4272, Note_on_c, 0, 79, 60
2, 4294, Note_on_c, 0, 79, 0
2, 4296, Note_on_c, 0, 76, 60
2, 4318, Note_on_c, 0, 76, 0
2, 4320, Note_on_c, 0, 77, 60
2, 4366, Note_on_c, 0, 77, 0
2, 4368, Note_on_c, 0, 79, 60
2, 4390, Note_on_c, 0, 79, 0
2, 4392, Note_on_c, 0, 76, 60
2, 4414, Note_on_c, 0, 76, 0
2, 4416, Note_on_c, 0, 77, 60
2, 4448, Note_on_c, 0, 77, 0
2, 4512, Note_on_c, 0, 77, 60
2, 4544, Note_on_c, 0, 77, 0
2, 4608, Note_on_c, 0, 77, 60
2, 4640, Note_on_c, 0, 77, 0
2, 4704, Note_on_c, 0, 73, 45
2, 4704, Note_on_c, 0, 77, 45
2, 4864, Note_on_c, 0, 73, 0
2, 4864, Note_on_c, 0, 77, 0
2, 4896, Note_on_c, 0, 68, 45
2, 4896, Note_on_c, 0, 75, 45
2, 4990, Note_on_c, 0, 68, 0
2, 4990, Note_on_c, 0, 75, 0
2, 4992, Note_on_c, 0, 65, 45
2, 4992, Note_on_c, 0, 73, 45
2, 5088, Note_on_c, 0, 65, 0
2, 5088, Note_on_c, 0, 73, 0
2, 5088, Note_on_c, 0, 65, 45
2, 5088, Note_on_c, 0, 73, 45
2, 5158, Note_on_c, 0, 65, 0
2, 5158, Note_on_c, 0, 73, 0
2, 5160, Note_on_c, 0, 68, 45
2, 5160, Note_on_c, 0, 75, 45
2, 5182, Note_on_c, 0, 68, 0
2, 5182, Note_on_c, 0, 75, 0
2, 5184, Note_on_c, 0, 65, 45
2, 5184, Note_on_c, 0, 73, 45
2, 5254, Note_on_c, 0, 65, 0
2, 5254, Note_on_c, 0, 73, 0
2, 5256, Note_on_c, 0, 68, 45
2, 5256, Note_on_c, 0, 75, 45
2, 5278, Note_on_c, 0, 68, 0
2, 5278, Note_on_c, 0, 75, 0
2, 5280, Note_on_c, 0, 73, 45
2, 5280, Note_on_c, 0, 77, 45
2, 5312, Note_on_c, 0, 73, 0
2, 5312, Note_on_c, 0, 77, 0
2, 5376, Note_on_c, 0, 73, 45
2, 5376, Note_on_c, 0, 77, 45
2, 5408, Note_on_c, 0, 73, 0
2, 5408, Note_on_c, 0, 77, 0
2, 5472, Note_on_c, 0, 68, 45
2, 5472, Note_on_c, 0, 75, 45
2, 5504, Note_on_c, 0, 68, 0
2, 5504, Note_on_c, 0, 75, 0
2, 5568, Note_on_c, 0, 65, 45
2, 5568, Note_on_c, 0, 73, 45
2, 5728, Note_on_c, 0, 65, 0
2, 5728, Note_on_c, 0, 73, 0
2, 5760, Note_on_c, 0, 61, 45
2, 5830, Note_on_c, 0, 61, 0
2, 5832, Note_on_c, 0, 60, 45
2, 5854, Note_on_c, 0, 60, 0
2, 5856, Note_on_c, 0, 60, 45
2, 5880, Note_on_c, 0, 60, 0
2, 5880, Note_on_c, 0, 53, 45
2, 5880, Note_on_c, 0, 59, 45
2, 5928, Note_on_c, 0, 53, 0
2, 5928, Note_on_c, 0, 59, 0
2, 5952, Note_on_c, 0, 53, 60
2, 5952, Note_on_c, 0, 59, 60
2, 5984, Note_on_c, 0, 53, 0
2, 5984, Note_on_c, 0, 59, 0
2, 6048, Note_on_c, 0, 53, 76
2, 6048, Note_on_c, 0, 59, 76
2, 6080, Note_on_c, 0, 53, 0
2, 6080, Note_on_c, 0, 59, 0
2, 6144, Note_on_c, 0, 53, 92
2, 6144, Note_on_c, 0, 60, 92
2, 6238, Note_on_c, 0, 53, 0
2, 6238, Note_on_c, 0, 60, 0
2, 6336, Note_on_c, 0, 65, 45
2, 6336, Note_on_c, 0, 72, 45
2, 6406, Note_on_c, 0, 72, 0
2, 6408, Note_on_c, 0, 74, 45
2, 6430, Note_on_c, 0, 65, 0
2, 6430, Note_on_c, 0, 74, 0
2, 6432, Note_on_c, 0, 67, 45
2, 6432, Note_on_c, 0, 72, 45
2, 6526, Note_on_c, 0, 72, 0
2, 6528, Note_on_c, 0, 70, 45
2, 6592, Note_on_c, 0, 67, 0
2, 6622, Note_on_c, 0, 70, 0
2, 6624, Note_on_c, 0, 65, 45
2, 6624, Note_on_c, 0, 69, 45
2, 6694, Note_on_c, 0, 69, 0
2, 6696, Note_on_c, 0, 70, 45
2, 6718, Note_on_c, 0, 65, 0
2, 6718, Note_on_c, 0, 70, 0
2, 6720, Note_on_c, 0, 65, 45
2, 6720, Note_on_c, 0, 69, 45
2, 6814, Note_on_c, 0, 65, 0
2, 6814, Note_on_c, 0, 69, 0
2, 6816, Note_on_c, 0, 58, 45
2, 6816, Note_on_c, 0, 64, 45
2, 6816, Note_on_c, 0, 67, 45
2, 6910, Note_on_c, 0, 58, 0
2, 6910, Note_on_c, 0, 64, 0
2, 6910, Note_on_c, 0, 67, 0
2, 6912, Note_on_c, 0, 57, 45
2, 6912, Note_on_c, 0, 62, 45
2, 6912, Note_on_c, 0, 65, 45
2, 6982, Note_on_c, 0, 57, 0
2, 6982, Note_on_c, 0, 62, 0
2, 6982, Note_on_c, 0, 65, 0
2, 6984, Note_on_c, 0, 57, 45
2, 6984, Note_on_c, 0, 62, 45
2, 6984, Note_on_c, 0, 66, 45
2, 7006, Note_on_c, 0, 57, 0
2, 7006, Note_on_c, 0, 62, 0
2, 7006, Note_on_c, 0, 66, 0
2, 7008, Note_on_c, 0, 62, 45
2, 7008, Note_on_c, 0, 67, 45
2, 7102, Note_on_c, 0, 62, 0
2, 7102, Note_on_c, 0, 67, 0
2, 7104, Note_on_c, 0, 62, 45
2, 7104, Note_on_c, 0, 67, 45
2, 7174, Note_on_c, 0, 62, 0
2, 7174, Note_on_c, 0, 67, 0
2, 7176, Note_on_c, 0, 60, 45
2, 7176, Note_on_c, 0, 66, 45
2, 7176, Note_on_c, 0, 69, 45
2, 7198, Note_on_c, 0, 60, 0
2, 7198, Note_on_c, 0, 66, 0
2, 7198, Note_on_c, 0, 69, 0
2, 7200, Note_on_c, 0, 72, 45
2, 7222, Note_on_c, 0, 72, 0
2, 7224, Note_on_c, 0, 62, 45
2, 7224, Note_on_c, 0, 67, 45
2, 7224, Note_on_c, 0, 70, 45
2, 7270, Note_on_c, 0, 62, 0
2, 7270, Note_on_c, 0, 67, 0
2, 7270, Note_on_c, 0, 70, 0
2, 7272, Note_on_c, 0, 58, 45
2, 7272, Note_on_c, 0, 62, 45
2, 7272, Note_on_c, 0, 67, 45
2, 7294, Note_on_c, 0, 58, 0
2, 7294, Note_on_c, 0, 62, 0
2, 7294, Note_on_c, 0, 67, 0
2, 7296, Note_on_c, 0, 57, 45
2, 7296, Note_on_c, 0, 60, 45
2, 7296, Note_on_c, 0, 65, 45
2, 7390, Note_on_c, 0, 57, 0
2, 7390, Note_on_c, 0, 60, 0
2, 7390, Note_on_c, 0, 65, 0
2, 7392, Note_on_c, 0, 55, 45
2, 7392, Note_on_c, 0, 60, 45
2, 7392, Note_on_c, 0, 64, 45
2, 7438, Note_on_c, 0, 55, 0
2, 7438, Note_on_c, 0, 60, 0
2, 7438, Note_on_c, 0, 64, 0
2, 7488, Note_on_c, 0, 74, 45
2, 7488, Note_on_c, 0, 72, 45
2, 7510, Note_on_c, 0, 72, 0
2, 7512, Note_on_c, 0, 74, 0
2, 7512, Note_on_c, 0, 65, 45
2, 7512, Note_on_c, 0, 71, 45
2, 7534, Note_on_c, 0, 71, 0
2, 7536, Note_on_c, 0, 72, 45
2, 7558, Note_on_c, 0, 72, 0
2, 7560, Note_on_c, 0, 74, 45
2, 7582, Note_on_c, 0, 65, 0
2, 7582, Note_on_c, 0, 74, 0
2, 7584, Note_on_c, 0, 67, 45
2, 7584, Note_on_c, 0, 72, 45
2, 7678, Note_on_c, 0, 72, 0
2, 7680, Note_on_c, 0, 70, 45
2, 7744, Note_on_c, 0, 67, 0
2, 7774, Note_on_c, 0, 70, 0
2, 7776, Note_on_c, 0, 70, 45
2, 7776, Note_on_c, 0, 69, 45
2, 7798, Note_on_c, 0, 69, 0
2, 7800, Note_on_c, 0, 70, 0
2, 7800, Note_on_c, 0, 60, 45
2, 7800, Note_on_c, 0, 68, 45
2, 7822, Note_on_c, 0, 68, 0
2, 7824, Note_on_c, 0, 69, 45
2, 7846, Note_on_c, 0, 69, 0
2, 7848, Note_on_c, 0, 70, 45
2, 7870, Note_on_c, 0, 60, 0
2, 7870, Note_on_c, 0, 70, 0
2, 7872, Note_on_c, 0, 64, 45
2, 7872, Note_on_c, 0, 69, 45
2, 7966, Note_on_c, 0, 69, 0
2, 7968, Note_on_c, 0, 67, 47
2, 8032, Note_on_c, 0, 64, 0
2, 8062, Note_on_c, 0, 67, 0
2, 8064, Note_on_c, 0, 57, 49
2, 8064, Note_on_c, 0, 62, 49
2, 8064, Note_on_c, 0, 65, 49
2, 8134, Note_on_c, 0, 57, 0
2, 8134, Note_on_c, 0, 62, 0
2, 8134, Note_on_c, 0, 65, 0
2, 8136, Note_on_c, 0, 58, 51
2, 8136, Note_on_c, 0, 62, 51
2, 8136, Note_on_c, 0, 67, 51
2, 8158, Note_on_c, 0, 58, 0
2, 8158, Note_on_c, 0, 62, 0
2, 8158, Note_on_c, 0, 67, 0
2, 8160, Note_on_c, 0, 60, 71
2, 8160, Note_on_c, 0, 65, 71
2, 8160, Note_on_c, 0, 69, 71
2, 8320, Note_on_c, 0, 60, 0
2, 8320, Note_on_c, 0, 65, 0
2, 8320, Note_on_c, 0, 69, 0
2, 8352, Note_on_c, 0, 58, 57
2, 8352, Note_on_c, 0, 64, 57
2, 8352, Note_on_c, 0, 70, 57
2, 8422, Note_on_c, 0, 70, 0
2, 8424, Note_on_c, 0, 67, 59
2, 8446, Note_on_c, 0, 58, 0
2, 8446, Note_on_c, 0, 64, 0
2, 8446, Note_on_c, 0, 67, 0
2, 8448, Note_on_c, 0, 57, 60
2, 8448, Note_on_c, 0, 65, 60
2, 8542, Note_on_c, 0, 57, 0
2, 8542, Note_on_c, 0, 65, 0
2, 8760, Note_on_c, 0, 57, 60
2, 8776, Note_on_c, 0, 57, 0
2, 8784, Note_on_c, 0, 60, 60
2, 8800, Note_on_c, 0, 60, 0
2, 8808, Note_on_c, 0, 65, 60
2, 8824, Note_on_c, 0, 65, 0
2, 8832, Note_on_c, 0, 69, 60
2, 8848, Note_on_c, 0, 69, 0
2, 8856, Note_on_c, 0, 72, 60
2, 8872, Note_on_c, 0, 72, 0
2, 8880, Note_on_c, 0, 77, 60
2, 8896, Note_on_c, 0, 77, 0
2, 8904, Note_on_c, 0, 79, 60
2, 8920, Note_on_c, 0, 79, 0
2, 8928, Note_on_c, 0, 81, 60
2, 8960, Note_on_c, 0, 81, 0
2, 9000, Note_on_c, 0, 57, 60
2, 9022, Note_on_c, 0, 57, 0
2, 9024, Note_on_c, 0, 52, 60
2, 9024, Note_on_c, 0, 60, 60
2, 9118, Note_on_c, 0, 52, 0
2, 9118, Note_on_c, 0, 60, 0
2, 9120, Note_on_c, 0, 52, 60
2, 9120, Note_on_c, 0, 58, 60
2, 9166, Note_on_c, 0, 52, 0
2, 9166, Note_on_c, 0, 58, 0
2, 9336, Note_on_c, 0, 58, 60
2, 9352, Note_on_c, 0, 58, 0
2, 9360, Note_on_c, 0, 64, 60
2, 9376, Note_on_c, 0, 64, 0
2, 9384, Note_on_c, 0, 67, 60
2, 9400, Note_on_c, 0, 67, 0
2, 9408, Note_on_c, 0, 70, 60
2, 9424, Note_on_c, 0, 70, 0
2, 9432, Note_on_c, 0, 76, 60
2, 9448, Note_on_c, 0, 76, 0
2, 9456, Note_on_c, 0, 79, 60
2, 9472, Note_on_c, 0, 79, 0
2, 9480, Note_on_c, 0, 81, 60
2, 9496, Note_on_c, 0, 81, 0
2, 9504, Note_on_c, 0, 82, 60
2, 9550, Note_on_c, 0, 82, 0
2, 9576, Note_on_c, 0, 58, 60
2, 9598, Note_on_c, 0, 58, 0
2, 9600, Note_on_c, 0, 53, 60
2, 9600, Note_on_c, 0, 62, 60
2, 9694, Note_on_c, 0, 53, 0
2, 9694, Note_on_c, 0, 62, 0
2, 9696, Note_on_c, 0, 53, 60
2, 9696, Note_on_c, 0, 60, 60
2, 9742, Note_on_c, 0, 53, 0
2, 9742, Note_on_c, 0, 60, 0
2, 9912, Note_on_c, 0, 65, 60
2, 9928, Note_on_c, 0, 65, 0
2, 9936, Note_on_c, 0, 69, 60
2, 9952, Note_on_c, 0, 69, 0
2, 9960, Note_on_c, 0, 72, 60
2, 9976, Note_on_c, 0, 72, 0
2, 9984, Note_on_c, 0, 77, 60
2, 10000, Note_on_c, 0, 77, 0
2, 10008, Note_on_c, 0, 81, 60
2, 10024, Note_on_c, 0, 81, 0
2, 10032, Note_on_c, 0, 84, 60
2, 10048, Note_on_c, 0, 84, 0
2, 10056, Note_on_c, 0, 89, 60
2, 10078, Note_on_c, 0, 89, 0
2, 10080, Note_on_c, 0, 89, 60
2, 10126, Note_on_c, 0, 89, 0
2, 10128, Note_on_c, 0, 88, 60
2, 10174, Note_on_c, 0, 88, 0
2, 10200, Note_on_c, 0, 62, 60
2, 10216, Note_on_c, 0, 62, 0
2, 10224, Note_on_c, 0, 65, 60
2, 10240, Note_on_c, 0, 65, 0
2, 10248, Note_on_c, 0, 69, 60
2, 10264, Note_on_c, 0, 69, 0
2, 10272, Note_on_c, 0, 74, 60
2, 10288, Note_on_c, 0, 74, 0
2, 10296, Note_on_c, 0, 77, 60
2, 10312, Note_on_c, 0, 77, 0
2, 10320, Note_on_c, 0, 81, 60
2, 10336, Note_on_c, 0, 81, 0
2, 10344, Note_on_c, 0, 86, 60
2, 10366, Note_on_c, 0, 86, 0
2, 10368, Note_on_c, 0, 86, 60
2, 10414, Note_on_c, 0, 86, 0
2, 10416, Note_on_c, 0, 84, 60
2, 10462, Note_on_c, 0, 84, 0
2, 10464, Note_on_c, 0, 84, 60
2, 10480, Note_on_c, 0, 84, 0
2, 10488, Note_on_c, 0, 83, 60
2, 10520, Note_on_c, 0, 83, 0
2, 10536, Note_on_c, 0, 81, 60
2, 10568, Note_on_c, 0, 81, 0
2, 10584, Note_on_c, 0, 79, 60
2, 10616, Note_on_c, 0, 79, 0
2, 10632, Note_on_c, 0, 77, 60
2, 10664, Note_on_c, 0, 77, 0
2, 10680, Note_on_c, 0, 76, 60
2, 10712, Note_on_c, 0, 76, 0
2, 10728, Note_on_c, 0, 74, 60
2, 10744, Note_on_c, 0, 74, 0
2, 10752, Note_on_c, 0, 64, 84
2, 10752, Note_on_c, 0, 72, 84
2, 10846, Note_on_c, 0, 64, 0
2, 10846, Note_on_c, 0, 72, 0
2, 10848, Note_on_c, 0, 62, 60
2, 10848, Note_on_c, 0, 71, 60
2, 10894, Note_on_c, 0, 62, 0
2, 10894, Note_on_c, 0, 71, 0
2, 10944, Note_on_c, 0, 69, 60
2, 10944, Note_on_c, 0, 67, 60
2, 10966, Note_on_c, 0, 67, 0
2, 10968, Note_on_c, 0, 69, 0
2, 10968, Note_on_c, 0, 66, 60
2, 10990, Note_on_c, 0, 66, 0
2, 10992, Note_on_c, 0, 67, 60
2, 11014, Note_on_c, 0, 67, 0
2, 11016, Note_on_c, 0, 69, 60
2, 11038, Note_on_c, 0, 69, 0
2, 11040, Note_on_c, 0, 67, 60
2, 11064, Note_on_c, 0, 71, 60
2, 11086, Note_on_c, 0, 71, 0
2, 11088, Note_on_c, 0, 74, 60
2, 11110, Note_on_c, 0, 74, 0
2, 11112, Note_on_c, 0, 72, 60
2, 11134, Note_on_c, 0, 72, 0
2, 11136, Note_on_c, 0, 76, 60
2, 11158, Note_on_c, 0, 76, 0
2, 11160, Note_on_c, 0, 74, 60
2, 11182, Note_on_c, 0, 74, 0
2, 11184, Note_on_c, 0, 77, 60
2, 11200, Note_on_c, 0, 67, 0
2, 11206, Note_on_c, 0, 77, 0
2, 11208, Note_on_c, 0, 76, 60
2, 11230, Note_on_c, 0, 76, 0
2, 11232, Note_on_c, 0, 67, 60
2, 11232, Note_on_c, 0, 79, 60
2, 11254, Note_on_c, 0, 79, 0
2, 11256, Note_on_c, 0, 78, 60
2, 11278, Note_on_c, 0, 78, 0
2, 11280, Note_on_c, 0, 79, 60
2, 11302, Note_on_c, 0, 79, 0
2, 11304, Note_on_c, 0, 76, 60
2, 11326, Note_on_c, 0, 67, 0
2, 11326, Note_on_c, 0, 76, 0
2, 11328, Note_on_c, 0, 67, 60
2, 11328, Note_on_c, 0, 73, 60
2, 11422, Note_on_c, 0, 73, 0
2, 11424, Note_on_c, 0, 74, 60
2, 11470, Note_on_c, 0, 67, 0
2, 11470, Note_on_c, 0, 74, 0
2, 11520, Note_on_c, 0, 69, 60
2, 11520, Note_on_c, 0, 67, 60
2, 11542, Note_on_c, 0, 67, 0
2, 11544, Note_on_c, 0, 69, 0
2, 11544, Note_on_c, 0, 66, 60
2, 11566, Note_on_c, 0, 66, 0
2, 11568, Note_on_c, 0, 67, 60
2, 11590, Note_on_c, 0, 67, 0
2, 11592, Note_on_c, 0, 69, 60
2, 11614, Note_on_c, 0, 69, 0
2, 11616, Note_on_c, 0, 67, 60
2, 11640, Note_on_c, 0, 73, 60
2, 11662, Note_on_c, 0, 73, 0
2, 11664, Note_on_c, 0, 76, 60
2, 11686, Note_on_c, 0, 76, 0
2, 11688, Note_on_c, 0, 74, 60
2, 11710, Note_on_c, 0, 67, 0
2, 11710, Note_on_c, 0, 74, 0
2, 11712, Note_on_c, 0, 77, 60
2, 11734, Note_on_c, 0, 77, 0
2, 11736, Note_on_c, 0, 76, 60
2, 11758, Note_on_c, 0, 76, 0
2, 11760, Note_on_c, 0, 79, 60
2, 11782, Note_on_c, 0, 79, 0
2, 11784, Note_on_c, 0, 77, 60
2, 11806, Note_on_c, 0, 77, 0
2, 11808, Note_on_c, 0, 81, 60
2, 11830, Note_on_c, 0, 81, 0
2, 11832, Note_on_c, 0, 80, 60
2, 11854, Note_on_c, 0, 80, 0
2, 11856, Note_on_c, 0, 81, 60
2, 11878, Note_on_c, 0, 81, 0
2, 11880, Note_on_c, 0, 77, 60
2, 11902, Note_on_c, 0, 77, 0
2, 11904, Note_on_c, 0, 75, 60
2, 11998, Note_on_c, 0, 75, 0
2, 12000, Note_on_c, 0, 75, 60
2, 12046, Note_on_c, 0, 75, 0
2, 12096, Note_on_c, 0, 77, 60
2, 12096, Note_on_c, 0, 76, 60
2, 12118, Note_on_c, 0, 76, 0
2, 12120, Note_on_c, 0, 77, 0
2, 12120, Note_on_c, 0, 74, 60
2, 12142, Note_on_c, 0, 74, 0
2, 12144, Note_on_c, 0, 76, 60
2, 12166, Note_on_c, 0, 76, 0
2, 12168, Note_on_c, 0, 77, 60
2, 12190, Note_on_c, 0, 77, 0
2, 12192, Note_on_c, 0, 79, 60
2, 12208, Note_on_c, 0, 79, 0
2, 12216, Note_on_c, 0, 60, 60
2, 12216, Note_on_c, 0, 64, 60
2, 12232, Note_on_c, 0, 60, 0
2, 12232, Note_on_c, 0, 64, 0
2, 12240, Note_on_c, 0, 62, 60
2, 12240, Note_on_c, 0, 65, 60
2, 12256, Note_on_c, 0, 62, 0
2, 12256, Note_on_c, 0, 65, 0
2, 12264, Note_on_c, 0, 64, 60
2, 12264, Note_on_c, 0, 67, 60
2, 12280, Note_on_c, 0, 64, 0
2, 12280, Note_on_c, 0, 67, 0
2, 12288, Note_on_c, 0, 65, 60
2, 12288, Note_on_c, 0, 69, 60
2, 12304, Note_on_c, 0, 65, 0
2, 12304, Note_on_c, 0, 69, 0
2, 12312, Note_on_c, 0, 67, 60
2, 12312, Note_on_c, 0, 71, 60
2, 12328, Note_on_c, 0, 67, 0
2, 12328, Note_on_c, 0, 71, 0
2, 12336, Note_on_c, 0, 69, 60
2, 12336, Note_on_c, 0, 72, 60
2, 12352, Note_on_c, 0, 69, 0
2, 12352, Note_on_c, 0, 72, 0
2, 12360, Note_on_c, 0, 71, 60
2, 12360, Note_on_c, 0, 74, 60
2, 12376, Note_on_c, 0, 71, 0
2, 12376, Note_on_c, 0, 74, 0
2, 12384, Note_on_c, 0, 72, 60
2, 12384, Note_on_c, 0, 76, 60
2, 12400, Note_on_c, 0, 72, 0
2, 12400, Note_on_c, 0, 76, 0
2, 12408, Note_on_c, 0, 72, 60
2, 12408, Note_on_c, 0, 76, 60
2, 12424, Note_on_c, 0, 72, 0
2, 12424, Note_on_c, 0, 76, 0
2, 12432, Note_on_c, 0, 74, 60
2, 12432, Note_on_c, 0, 77, 60
2, 12448, Note_on_c, 0, 74, 0
2, 12448, Note_on_c, 0, 77, 0
2, 12456, Note_on_c, 0, 76, 60
2, 12456, Note_on_c, 0, 79, 60
2, 12472, Note_on_c, 0, 76, 0
2, 12472, Note_on_c, 0, 79, 0
2, 12480, Note_on_c, 0, 77, 60
2, 12480, Note_on_c, 0, 81, 60
2, 12496, Note_on_c, 0, 77, 0
2, 12496, Note_on_c, 0, 81, 0
2, 12504, Note_on_c, 0, 79, 60
2, 12504, Note_on_c, 0, 83, 60
2, 12520, Note_on_c, 0, 79, 0
2, 12520, Note_on_c, 0, 83, 0
2, 12528, Note_on_c, 0, 81, 60
2, 12528, Note_on_c, 0, 84, 60
2, 12544, Note_on_c, 0, 81, 0
2, 12544, Note_on_c, 0, 84, 0
2, 12552, Note_on_c, 0, 83, 60
2, 12552, Note_on_c, 0, 86, 60
2, 12568, Note_on_c, 0, 83, 0
2, 12568, Note_on_c, 0, 86, 0
2, 12576, Note_on_c, 0, 84, 60
2, 12576, Note_on_c, 0, 88, 60
2, 12592, Note_on_c, 0, 84, 0
2, 12592, Note_on_c, 0, 88, 0
2, 12600, Note_on_c, 0, 83, 60
2, 12600, Note_on_c, 0, 86, 60
2, 12616, Note_on_c, 0, 83, 0
2, 12616, Note_on_c, 0, 86, 0
2, 12624, Note_on_c, 0, 81, 60
2, 12624, Note_on_c, 0, 84, 60
2, 12640, Note_on_c, 0, 81, 0
2, 12640, Note_on_c, 0, 84, 0
2, 12648, Note_on_c, 0, 79, 60
2, 12648, Note_on_c, 0, 83, 60
2, 12664, Note_on_c, 0, 79, 0
2, 12664, Note_on_c, 0, 83, 0
2, 12672, Note_on_c, 0, 77, 60
2, 12672, Note_on_c, 0, 81, 60
2, 12688, Note_on_c, 0, 77, 0
2, 12688, Note_on_c, 0, 81, 0
2, 12696, Note_on_c, 0, 76, 60
2, 12696, Note_on_c, 0, 79, 60
2, 12712, Note_on_c, 0, 76, 0
2, 12712, Note_on_c, 0, 79, 0
2, 12720, Note_on_c, 0, 74, 60
2, 12720, Note_on_c, 0, 77, 60
2, 12736, Note_on_c, 0, 74, 0
2, 12736, Note_on_c, 0, 77, 0
2, 12744, Note_on_c, 0, 72, 60
2, 12744, Note_on_c, 0, 76, 60
2, 12760, Note_on_c, 0, 72, 0
2, 12760, Note_on_c, 0, 76, 0
2, 12768, Note_on_c, 0, 70, 60
2, 12768, Note_on_c, 0, 79, 60
2, 12790, Note_on_c, 0, 70, 0
2, 12790, Note_on_c, 0, 79, 0
2, 12792, Note_on_c, 0, 69, 62
2, 12792, Note_on_c, 0, 77, 62
2, 12808, Note_on_c, 0, 69, 0
2, 12808, Note_on_c, 0, 77, 0
2, 12816, Note_on_c, 0, 67, 64
2, 12816, Note_on_c, 0, 76, 64
2, 12832, Note_on_c, 0, 67, 0
2, 12832, Note_on_c, 0, 76, 0
2, 12840, Note_on_c, 0, 65, 66
2, 12840, Note_on_c, 0, 74, 66
2, 12856, Note_on_c, 0, 65, 0
2, 12856, Note_on_c, 0, 74, 0
2, 12864, Note_on_c, 0, 64, 68
2, 12864, Note_on_c, 0, 72, 68
2, 12896, Note_on_c, 0, 64, 0
2, 12896, Note_on_c, 0, 72, 0
2, 12960, Note_on_c, 0, 62, 80
2, 12960, Note_on_c, 0, 65, 80
2, 12960, Note_on_c, 0, 71, 80
2, 12992, Note_on_c, 0, 62, 0
2, 12992, Note_on_c, 0, 65, 0
2, 12992, Note_on_c, 0, 71, 0
2, 13056, Note_on_c, 0, 74, 92
2, 13078, Note_on_c, 0, 74, 0
2, 13080, Note_on_c, 0, 72, 92
2, 13102, Note_on_c, 0, 72, 0
2, 13104, Note_on_c, 0, 71, 92
2, 13126, Note_on_c, 0, 71, 0
2, 13128, Note_on_c, 0, 69, 92
2, 13150, Note_on_c, 0, 69, 0
2, 13152, Note_on_c, 0, 67, 92
2, 13198, Note_on_c, 0, 67, 0
2, 13200, Note_on_c, 0, 65, 92
2, 13294, Note_on_c, 0, 65, 0
2, 13296, Note_on_c, 0, 64, 92
2, 13342, Note_on_c, 0, 64, 0
2, 13344, Note_on_c, 0, 64, 60
2, 13358, Note_on_c, 0, 64, 0
2, 13360, Note_on_c, 0, 62, 60
2, 13374, Note_on_c, 0, 62, 0
2, 13392, Note_on_c, 0, 61, 60
2, 13406, Note_on_c, 0, 61, 0
2, 13408, Note_on_c, 0, 62, 60
2, 13422, Note_on_c, 0, 62, 0
2, 13440, Note_on_c, 0, 64, 60
2, 13454, Note_on_c, 0, 64, 0
2, 13456, Note_on_c, 0, 65, 60
2, 13470, Note_on_c, 0, 65, 0
2, 13488, Note_on_c, 0, 68, 60
2, 13502, Note_on_c, 0, 68, 0
2, 13504, Note_on_c, 0, 69, 60
2, 13518, Note_on_c, 0, 69, 0
2, 13536, Note_on_c, 0, 67, 60
2, 13550, Note_on_c, 0, 67, 0
2, 13552, Note_on_c, 0, 65, 60
2, 13566, Note_on_c, 0, 65, 0
2, 13584, Note_on_c, 0, 64, 60
2, 13598, Note_on_c, 0, 64, 0
2, 13600, Note_on_c, 0, 62, 60
2, 13614, Note_on_c, 0, 62, 0
2, 13632, Note_on_c, 0, 60, 60
2, 13792, Note_on_c, 0, 60, 0
2, 13824, Note_on_c, 0, 62, 60
2, 13894, Note_on_c, 0, 62, 0
2, 13896, Note_on_c, 0, 59, 60
2, 13918, Note_on_c, 0, 59, 0
2, 13920, Note_on_c, 0, 60, 60
2, 14014, Note_on_c, 0, 60, 0
2, 14112, Note_on_c, 0, 65, 60
2, 14112, Note_on_c, 0, 68, 60
2, 14112, Note_on_c, 0, 72, 84
2, 14182, Note_on_c, 0, 72, 0
2, 14184, Note_on_c, 0, 73, 60
2, 14206, Note_on_c, 0, 65, 0
2, 14206, Note_on_c, 0, 68, 0
2, 14206, Note_on_c, 0, 73, 0
2, 14208, Note_on_c, 0, 64, 60
2, 14208, Note_on_c, 0, 67, 60
2, 14208, Note_on_c, 0, 72, 60
2, 14302, Note_on_c, 0, 72, 0
2, 14304, Note_on_c, 0, 70, 60
2, 14368, Note_on_c, 0, 64, 0
2, 14368, Note_on_c, 0, 67, 0
2, 14398, Note_on_c, 0, 70, 0
2, 14400, Note_on_c, 0, 60, 60
2, 14400, Note_on_c, 0, 65, 60
2, 14400, Note_on_c, 0, 68, 84
2, 14470, Note_on_c, 0, 68, 0
2, 14472, Note_on_c, 0, 70, 60
2, 14494, Note_on_c, 0, 60, 0
2, 14494, Note_on_c, 0, 65, 0
2, 14494, Note_on_c, 0, 70, 0
2, 14496, Note_on_c, 0, 60, 60
2, 14496, Note_on_c, 0, 64, 60
2, 14496, Note_on_c, 0, 68, 60
2, 14542, Note_on_c, 0, 60, 0
2, 14590, Note_on_c, 0, 64, 0
2, 14590, Note_on_c, 0, 68, 0
2, 14592, Note_on_c, 0, 64, 60
2, 14592, Note_on_c, 0, 67, 60
2, 14638, Note_on_c, 0, 64, 0
2, 14638, Note_on_c, 0, 67, 0
2, 14688, Note_on_c, 0, 72, 60
2, 14758, Note_on_c, 0, 72, 0
2, 14760, Note_on_c, 0, 74, 60
2, 14782, Note_on_c, 0, 74, 0
2, 14784, Note_on_c, 0, 72, 60
2, 14878, Note_on_c, 0, 72, 0
2, 14880, Note_on_c, 0, 70, 60
2, 14974, Note_on_c, 0, 70, 0
2, 14976, Note_on_c, 0, 69, 60
2, 15046, Note_on_c, 0, 69, 0
2, 15048, Note_on_c, 0, 70, 60
2, 15070, Note_on_c, 0, 70, 0
2, 15072, Note_on_c, 0, 69, 60
2, 15166, Note_on_c, 0, 69, 0
2, 15168, Note_on_c, 0, 67, 60
2, 15262, Note_on_c, 0, 67, 0
2, 15264, Note_on_c, 0, 65, 60
2, 15334, Note_on_c, 0, 65, 0
2, 15336, Note_on_c, 0, 66, 60
2, 15358, Note_on_c, 0, 66, 0
2, 15360, Note_on_c, 0, 67, 60
2, 15406, Note_on_c, 0, 67, 0
2, 15408, Note_on_c, 0, 67, 60
2, 15454, Note_on_c, 0, 67, 0
2, 15456, Note_on_c, 0, 67, 60
2, 15526, Note_on_c, 0, 67, 0
2, 15528, Note_on_c, 0, 69, 60
2, 15550, Note_on_c, 0, 69, 0
2, 15552, Note_on_c, 0, 72, 60
2, 15576, Note_on_c, 0, 72, 0
2, 15576, Note_on_c, 0, 70, 60
2, 15622, Note_on_c, 0, 70, 0
2, 15624, Note_on_c, 0, 67, 60
2, 15646, Note_on_c, 0, 67, 0
2, 15648, Note_on_c, 0, 65, 60
2, 15742, Note_on_c, 0, 65, 0
2, 15744, Note_on_c, 0, 64, 60
2, 15790, Note_on_c, 0, 64, 0
2, 15840, Note_on_c, 0, 60, 60
2, 15840, Note_on_c, 0, 72, 60
2, 15910, Note_on_c, 0, 60, 0
2, 15910, Note_on_c, 0, 72, 0
2, 15912, Note_on_c, 0, 62, 60
2, 15912, Note_on_c, 0, 74, 60
2, 15934, Note_on_c, 0, 62, 0
2, 15934, Note_on_c, 0, 74, 0
2, 15936, Note_on_c, 0, 60, 60
2, 15936, Note_on_c, 0, 72, 60
2, 16030, Note_on_c, 0, 60, 0
2, 16030, Note_on_c, 0, 72, 0
2, 16032, Note_on_c, 0, 58, 60
2, 16032, Note_on_c, 0, 70, 60
2, 16126, Note_on_c, 0, 58, 0
2, 16126, Note_on_c, 0, 70, 0
2, 16128, Note_on_c, 0, 57, 60
2, 16128, Note_on_c, 0, 69, 60
2, 16198, Note_on_c, 0, 57, 0
2, 16198, Note_on_c, 0, 69, 0
2, 16200, Note_on_c, 0, 58, 60
2, 16200, Note_on_c, 0, 70, 60
2, 16222, Note_on_c, 0, 58, 0
2, 16222, Note_on_c, 0, 70, 0
2, 16224, Note_on_c, 0, 57, 60
2, 16224, Note_on_c, 0, 69, 60
2, 16318, Note_on_c, 0, 57, 0
2, 16318, Note_on_c, 0, 69, 0
2, 16320, Note_on_c, 0, 55, 58
2, 16320, Note_on_c, 0, 67, 58
2, 16414, Note_on_c, 0, 55, 0
2, 16414, Note_on_c, 0, 67, 0
2, 16416, Note_on_c, 0, 53, 56
2, 16416, Note_on_c, 0, 65, 56
2, 16486, Note_on_c, 0, 53, 0
2, 16486, Note_on_c, 0, 65, 0
2, 16488, Note_on_c, 0, 55, 54
2, 16488, Note_on_c, 0, 67, 54
2, 16510, Note_on_c, 0, 55, 0
2, 16510, Note_on_c, 0, 67, 0
2, 16512, Note_on_c, 0, 57, 75
2, 16512, Note_on_c, 0, 60, 75
2, 16512, Note_on_c, 0, 65, 75
2, 16512, Note_on_c, 0, 69, 75
2, 16672, Note_on_c, 0, 57, 0
2, 16672, Note_on_c, 0, 60, 0
2, 16672, Note_on_c, 0, 65, 0
2, 16672, Note_on_c, 0, 69, 0
2, 16704, Note_on_c, 0, 58, 48
2, 16704, Note_on_c, 0, 64, 48
2, 16704, Note_on_c, 0, 70, 48
2, 16774, Note_on_c, 0, 70, 0
2, 16776, Note_on_c, 0, 67, 46
2, 16798, Note_on_c, 0, 58, 0
2, 16798, Note_on_c, 0, 64, 0
2, 16798, Note_on_c, 0, 67, 0
2, 16800, Note_on_c, 0, 57, 45
2, 16800, Note_on_c, 0, 65, 45
2, 16894, Note_on_c, 0, 57, 0
2, 16894, Note_on_c, 0, 65, 0
2, 16992, Note_on_c, 0, 72, 45
2, 17062, Note_on_c, 0, 72, 0
2, 17064, Note_on_c, 0, 69, 45
2, 17086, Note_on_c, 0, 69, 0
2, 17088, Note_on_c, 0, 70, 45
2, 17182, Note_on_c, 0, 70, 0
2, 17184, Note_on_c, 0, 67, 45
2, 17216, Note_on_c, 0, 67, 0
2, 17280, Note_on_c, 0, 79, 45
2, 17350, Note_on_c, 0, 79, 0
2, 17352, Note_on_c, 0, 76, 45
2, 17374, Note_on_c, 0, 76, 0
2, 17376, Note_on_c, 0, 77, 45
2, 17470, Note_on_c, 0, 77, 0
2, 17472, Note_on_c, 0, 72, 45
2, 17504, Note_on_c, 0, 72, 0
2, 17568, Note_on_c, 0, 72, 45
2, 17590, Note_on_c, 0, 72, 0
2, 17592, Note_on_c, 0, 69, 45
2, 17614, Note_on_c, 0, 69, 0
2, 17616, Note_on_c, 0, 72, 45
2, 17638, Note_on_c, 0, 72, 0
2, 17640, Note_on_c, 0, 69, 45
2, 17662, Note_on_c, 0, 69, 0
2, 17664, Note_on_c, 0, 70, 45
2, 17758, Note_on_c, 0, 70, 0
2, 17760, Note_on_c, 0, 67, 45
2, 17792, Note_on_c, 0, 67, 0
2, 17856, Note_on_c, 0, 79, 45
2, 17878, Note_on_c, 0, 79, 0
2, 17880, Note_on_c, 0, 76, 45
2, 17902, Note_on_c, 0, 76, 0
2, 17904, Note_on_c, 0, 79, 45
2, 17926, Note_on_c, 0, 79, 0
2, 17928, Note_on_c, 0, 76, 45
2, 17950, Note_on_c, 0, 76, 0
2, 17952, Note_on_c, 0, 77, 45
2, 18046, Note_on_c, 0, 77, 0
2, 18048, Note_on_c, 0, 72, 45
2, 18080, Note_on_c, 0, 72, 0
2, 18096, Note_on_c, 0, 79, 45
2, 18118, Note_on_c, 0, 79, 0
2, 18120, Note_on_c, 0, 76, 45
2, 18142, Note_on_c, 0, 76, 0
2, 18144, Note_on_c, 0, 77, 45
2, 18190, Note_on_c, 0, 77, 0
2, 18192, Note_on_c, 0, 79, 45
2, 18214, Note_on_c, 0, 79, 0
2, 18216, Note_on_c, 0, 76, 45
2, 18238, Note_on_c, 0, 76, 0
2, 18240, Note_on_c, 0, 77, 45
2, 18334, Note_on_c, 0, 77, 0
2, 18336, Note_on_c, 0, 72, 45
2, 18382, Note_on_c, 0, 72, 0
2, 18384, Note_on_c, 0, 79, 45
2, 18406, Note_on_c, 0, 79, 0
2, 18408, Note_on_c, 0, 76, 45
2, 18430, Note_on_c, 0, 76, 0
2, 18432, Note_on_c, 0, 77, 45
2, 18478, Note_on_c, 0, 77, 0
2, 18480, Note_on_c, 0, 79, 45
2, 18502, Note_on_c, 0, 79, 0
2, 18504, Note_on_c, 0, 76, 45
2, 18526, Note_on_c, 0, 76, 0
2, 18528, Note_on_c, 0, 77, 45
2, 18574, Note_on_c, 0, 77, 0
2, 18576, Note_on_c, 0, 79, 45
2, 18598, Note_on_c, 0, 79, 0
2, 18600, Note_on_c, 0, 76, 45
2, 18622, Note_on_c, 0, 76, 0
2, 18624, Note_on_c, 0, 77, 45
2, 18670, Note_on_c, 0, 77, 0
2, 18672, Note_on_c, 0, 79, 45
2, 18694, Note_on_c, 0, 79, 0
2, 18696, Note_on_c, 0, 76, 45
2, 18718, Note_on_c, 0, 76, 0
2, 18720, Note_on_c, 0, 77, 45
2, 18766, Note_on_c, 0, 77, 0
2, 18768, Note_on_c, 0, 79, 45
2, 18790, Note_on_c, 0, 79, 0
2, 18792, Note_on_c, 0, 76, 45
2, 18814, Note_on_c, 0, 76, 0
2, 18816, Note_on_c, 0, 77, 45
2, 18862, Note_on_c, 0, 77, 0
2, 18864, Note_on_c, 0, 79, 45
2, 18886, Note_on_c, 0, 79, 0
2, 18888, Note_on_c, 0, 76, 45
2, 18910, Note_on_c, 0, 76, 0
2, 18912, Note_on_c, 0, 77, 45
2, 18958, Note_on_c, 0, 77, 0
2, 18960, Note_on_c, 0, 79, 45
2, 18982, Note_on_c, 0, 79, 0
2, 18984, Note_on_c, 0, 76, 45
2, 19006, Note_on_c, 0, 76, 0
2, 19008, Note_on_c, 0, 77, 45
2, 19054, Note_on_c, 0, 77, 0
2, 19056, Note_on_c, 0, 79, 45
2, 19078, Note_on_c, 0, 79, 0
2, 19080, Note_on_c, 0, 76, 45
2, 19102, Note_on_c, 0, 76, 0
2, 19104, Note_on_c, 0, 77, 45
2, 19136, Note_on_c, 0, 77, 0
2, 19200, Note_on_c, 0, 77, 45
2, 19232, Note_on_c, 0, 77, 0
2, 19296, Note_on_c, 0, 77, 45
2, 19328, Note_on_c, 0, 77, 0
2, 19392, Note_on_c, 0, 73, 45
2, 19392, Note_on_c, 0, 77, 45
2, 19552, Note_on_c, 0, 73, 0
2, 19552, Note_on_c, 0, 77, 0
2, 19584, Note_on_c, 0, 68, 45
2, 19584, Note_on_c, 0, 75, 45
2, 19678, Note_on_c, 0, 68, 0
2, 19678, Note_on_c, 0, 75, 0
2, 19680, Note_on_c, 0, 65, 45
2, 19680, Note_on_c, 0, 73, 45
2, 19776, Note_on_c, 0, 65, 0
2, 19776, Note_on_c, 0, 73, 0
2, 19776, Note_on_c, 0, 65, 45
2, 19776, Note_on_c, 0, 73, 45
2, 19846, Note_on_c, 0, 65, 0
2, 19846, Note_on_c, 0, 73, 0
2, 19848, Note_on_c, 0, 68, 45
2, 19848, Note_on_c, 0, 75, 45
2, 19870, Note_on_c, 0, 68, 0
2, 19870, Note_on_c, 0, 75, 0
2, 19872, Note_on_c, 0, 65, 45
2, 19872, Note_on_c, 0, 73, 45
2, 19942, Note_on_c, 0, 65, 0
2, 19942, Note_on_c, 0, 73, 0
2, 19944, Note_on_c, 0, 68, 45
2, 19944, Note_on_c, 0, 75, 45
2, 19966, Note_on_c, 0, 68, 0
2, 19966, Note_on_c, 0, 75, 0
2, 19968, Note_on_c, 0, 73, 45
2, 19968, Note_on_c, 0, 77, 45
2, 20000, Note_on_c, 0, 73, 0
2, 20000, Note_on_c, 0, 77, 0
2, 20064, Note_on_c, 0, 73, 45
2, 20064, Note_on_c, 0, 77, 45
2, 20096, Note_on_c, 0, 73, 0
2, 20096, Note_on_c, 0, 77, 0
2, 20160, Note_on_c, 0, 68, 45
2, 20160, Note_on_c, 0, 75, 45
2, 20192, Note_on_c, 0, 68, 0
2, 20192, Note_on_c, 0, 75, 0
2, 20256, Note_on_c, 0, 65, 45
2, 20256, Note_on_c, 0, 73, 45
2, 20416, Note_on_c, 0, 65, 0
2, 20416, Note_on_c, 0, 73, 0
2, 20448, Note_on_c, 0, 61, 50
2, 20518, Note_on_c, 0, 61, 0
2, 20520, Note_on_c, 0, 60, 51
2, 20542, Note_on_c, 0, 60, 0
2, 20544, Note_on_c, 0, 60, 51
2, 20568, Note_on_c, 0, 60, 0
2, 20568, Note_on_c, 0, 53, 51
2, 20568, Note_on_c, 0, 59, 51
2, 20616, Note_on_c, 0, 53, 0
2, 20616, Note_on_c, 0, 59, 0
2, 20640, Note_on_c, 0, 53, 54
2, 20640, Note_on_c, 0, 59, 54
2, 20672, Note_on_c, 0, 53, 0
2, 20672, Note_on_c, 0, 59, 0
2, 20736, Note_on_c, 0, 53, 57
2, 20736, Note_on_c, 0, 59, 57
2, 20768, Note_on_c, 0, 53, 0
2, 20768, Note_on_c, 0, 59, 0
2, 20832, Note_on_c, 0, 52, 60
2, 20832, Note_on_c, 0, 60, 60
2, 20926, Note_on_c, 0, 52, 0
2, 20926, Note_on_c, 0, 60, 0
2, 21024, Note_on_c, 0, 72, 60
2, 21072, Note_on_c, 0, 62, 60
2, 21094, Note_on_c, 0, 72, 0
2, 21096, Note_on_c, 0, 74, 60
2, 21118, Note_on_c, 0, 62, 0
2, 21118, Note_on_c, 0, 74, 0
2, 21120, Note_on_c, 0, 62, 60
2, 21120, Note_on_c, 0, 72, 60
2, 21166, Note_on_c, 0, 62, 0
2, 21168, Note_on_c, 0, 69, 60
2, 21214, Note_on_c, 0, 72, 0
2, 21214, Note_on_c, 0, 69, 0
2, 21216, Note_on_c, 0, 67, 60
2, 21216, Note_on_c, 0, 70, 60
2, 21264, Note_on_c, 0, 60, 60
2, 21310, Note_on_c, 0, 67, 0
2, 21310, Note_on_c, 0, 70, 0
2, 21310, Note_on_c, 0, 60, 0
2, 21312, Note_on_c, 0, 60, 60
2, 21312, Note_on_c, 0, 65, 60
2, 21312, Note_on_c, 0, 69, 60
2, 21358, Note_on_c, 0, 60, 0
2, 21358, Note_on_c, 0, 65, 0
2, 21360, Note_on_c, 0, 58, 60
2, 21384, Note_on_c, 0, 70, 60
2, 21406, Note_on_c, 0, 69, 0
2, 21406, Note_on_c, 0, 58, 0
2, 21406, Note_on_c, 0, 70, 0
2, 21408, Note_on_c, 0, 58, 60
2, 21408, Note_on_c, 0, 69, 60
2, 21454, Note_on_c, 0, 58, 0
2, 21456, Note_on_c, 0, 65, 60
2, 21502, Note_on_c, 0, 69, 0
2, 21502, Note_on_c, 0, 65, 0
2, 21504, Note_on_c, 0, 64, 60
2, 21504, Note_on_c, 0, 67, 60
2, 21552, Note_on_c, 0, 57, 60
2, 21598, Note_on_c, 0, 64, 0
2, 21598, Note_on_c, 0, 67, 0
2, 21598, Note_on_c, 0, 57, 0
2, 21600, Note_on_c, 0, 57, 60
2, 21600, Note_on_c, 0, 65, 60
2, 21646, Note_on_c, 0, 57, 0
2, 21648, Note_on_c, 0, 62, 60
2, 21670, Note_on_c, 0, 65, 0
2, 21672, Note_on_c, 0, 66, 60
2, 21694, Note_on_c, 0, 62, 0
2, 21694, Note_on_c, 0, 66, 0
2, 21696, Note_on_c, 0, 62, 60
2, 21696, Note_on_c, 0, 67, 60
2, 21790, Note_on_c, 0, 67, 0
2, 21792, Note_on_c, 0, 67, 60
2, 21838, Note_on_c, 0, 62, 0
2, 21840, Note_on_c, 0, 62, 60
2, 21862, Note_on_c, 0, 67, 0
2, 21864, Note_on_c, 0, 69, 60
2, 21886, Note_on_c, 0, 62, 0
2, 21886, Note_on_c, 0, 69, 0
2, 21888, Note_on_c, 0, 72, 60
2, 21910, Note_on_c, 0, 72, 0
2, 21912, Note_on_c, 0, 62, 60
2, 21912, Note_on_c, 0, 70, 60
2, 21934, Note_on_c, 0, 62, 0
2, 21936, Note_on_c, 0, 62, 60
2, 21958, Note_on_c, 0, 70, 0
2, 21960, Note_on_c, 0, 67, 60
2, 21982, Note_on_c, 0, 62, 0
2, 21982, Note_on_c, 0, 67, 0
2, 21984, Note_on_c, 0, 57, 60
2, 21984, Note_on_c, 0, 60, 60
2, 21984, Note_on_c, 0, 65, 60
2, 22078, Note_on_c, 0, 57, 0
2, 22078, Note_on_c, 0, 60, 0
2, 22078, Note_on_c, 0, 65, 0
2, 22080, Note_on_c, 0, 55, 60
2, 22080, Note_on_c, 0, 60, 60
2, 22080, Note_on_c, 0, 64, 60
2, 22126, Note_on_c, 0, 55, 0
2, 22126, Note_on_c, 0, 60, 0
2, 22126, Note_on_c, 0, 64, 0
2, 22176, Note_on_c, 0, 74, 60
2, 22176, Note_on_c, 0, 72, 60
2, 22198, Note_on_c, 0, 72, 0
2, 22200, Note_on_c, 0, 74, 0
2, 22200, Note_on_c, 0, 71, 60
2, 22222, Note_on_c, 0, 71, 0
2, 22224, Note_on_c, 0, 72, 60
2, 22246, Note_on_c, 0, 72, 0
2, 22248, Note_on_c, 0, 74, 60
2, 22270, Note_on_c, 0, 74, 0
2, 22272, Note_on_c, 0, 72, 60
2, 22294, Note_on_c, 0, 72, 0
2, 22296, Note_on_c, 0, 69, 60
2, 22318, Note_on_c, 0, 69, 0
2, 22320, Note_on_c, 0, 70, 60
2, 22342, Note_on_c, 0, 70, 0
2, 22344, Note_on_c, 0, 72, 60
2, 22366, Note_on_c, 0, 72, 0
2, 22368, Note_on_c, 0, 76, 60
2, 22390, Note_on_c, 0, 76, 0
2, 22392, Note_on_c, 0, 79, 60
2, 22414, Note_on_c, 0, 79, 0
2, 22416, Note_on_c, 0, 82, 60
2, 22438, Note_on_c, 0, 82, 0
2, 22440, Note_on_c, 0, 70, 60
2, 22462, Note_on_c, 0, 70, 0
2, 22464, Note_on_c, 0, 70, 60
2, 22464, Note_on_c, 0, 69, 60
2, 22486, Note_on_c, 0, 69, 0
2, 22488, Note_on_c, 0, 70, 0
2, 22488, Note_on_c, 0, 68, 60
2, 22510, Note_on_c, 0, 68, 0
2, 22512, Note_on_c, 0, 69, 60
2, 22534, Note_on_c, 0, 69, 0
2, 22536, Note_on_c, 0, 70, 60
2, 22558, Note_on_c, 0, 70, 0
2, 22560, Note_on_c, 0, 69, 60
2, 22582, Note_on_c, 0, 69, 0
2, 22584, Note_on_c, 0, 66, 60
2, 22606, Note_on_c, 0, 66, 0
2, 22608, Note_on_c, 0, 67, 60
2, 22630, Note_on_c, 0, 67, 0
2, 22632, Note_on_c, 0, 69, 60
2, 22654, Note_on_c, 0, 69, 0
2, 22656, Note_on_c, 0, 73, 60
2, 22678, Note_on_c, 0, 73, 0
2, 22680, Note_on_c, 0, 76, 60
2, 22702, Note_on_c, 0, 76, 0
2, 22704, Note_on_c, 0, 79, 60
2, 22726, Note_on_c, 0, 79, 0
2, 22728, Note_on_c, 0, 67, 60
2, 22750, Note_on_c, 0, 67, 0
2, 22752, Note_on_c, 0, 67, 60
2, 22752, Note_on_c, 0, 65, 60
2, 22774, Note_on_c, 0, 65, 0
2, 22776, Note_on_c, 0, 67, 0
2, 22776, Note_on_c, 0, 64, 60
2, 22798, Note_on_c, 0, 64, 0
2, 22800, Note_on_c, 0, 65, 60
2, 22822, Note_on_c, 0, 65, 0
2, 22824, Note_on_c, 0, 67, 60
2, 22846, Note_on_c, 0, 67, 0
2, 22848, Note_on_c, 0, 69, 92
2, 22872, Note_on_c, 0, 65, 91
2, 22894, Note_on_c, 0, 65, 0
2, 22896, Note_on_c, 0, 60, 90
2, 22918, Note_on_c, 0, 60, 0
2, 22920, Note_on_c, 0, 57, 89
2, 22942, Note_on_c, 0, 57, 0
2, 22968, Note_on_c, 0, 65, 87
2, 22990, Note_on_c, 0, 65, 0
2, 22992, Note_on_c, 0, 60, 86
2, 23008, Note_on_c, 0, 69, 0
2, 23014, Note_on_c, 0, 60, 0
2, 23016, Note_on_c, 0, 57, 85
2, 23038, Note_on_c, 0, 57, 0
2, 23040, Note_on_c, 0, 70, 84
2, 23064, Note_on_c, 0, 64, 83
2, 23086, Note_on_c, 0, 64, 0
2, 23088, Note_on_c, 0, 60, 82
2, 23110, Note_on_c, 0, 60, 0
2, 23112, Note_on_c, 0, 58, 81
2, 23112, Note_on_c, 0, 67, 81
2, 23134, Note_on_c, 0, 58, 0
2, 23134, Note_on_c, 0, 67, 0
2, 23136, Note_on_c, 0, 57, 80
2, 23136, Note_on_c, 0, 65, 80
2, 23182, Note_on_c, 0, 70, 0
2, 23230, Note_on_c, 0, 57, 0
2, 23230, Note_on_c, 0, 65, 0
2, 23304, Note_on_c, 0, 77, 69
2, 23328, Note_on_c, 0, 77, 0
2, 23328, Note_on_c, 0, 89, 68
2, 23360, Note_on_c, 0, 89, 0
2, 23400, Note_on_c, 0, 89, 62
2, 23422, Note_on_c, 0, 89, 0
2, 23424, Note_on_c, 0, 89, 60
2, 23456, Note_on_c, 0, 89, 0
2, 23496, Note_on_c, 0, 87, 60
2, 23512, Note_on_c, 0, 87, 0
2, 23520, Note_on_c, 0, 86, 60
2, 23552, Note_on_c, 0, 86, 0
2, 23592, Note_on_c, 0, 84, 60
2, 23608, Note_on_c, 0, 84, 0
2, 23616, Note_on_c, 0, 82, 60
2, 23648, Note_on_c, 0, 82, 0
2, 23688, Note_on_c, 0, 81, 60
2, 23704, Note_on_c, 0, 81, 0
2, 23712, Note_on_c, 0, 79, 60
2, 23744, Note_on_c, 0, 79, 0
2, 23784, Note_on_c, 0, 77, 60
2, 23800, Note_on_c, 0, 77, 0
2, 23808, Note_on_c, 0, 75, 60
2, 23840, Note_on_c, 0, 75, 0
2, 23880, Note_on_c, 0, 74, 60
2, 23896, Note_on_c, 0, 74, 0
2, 23904, Note_on_c, 0, 72, 60
2, 23936, Note_on_c, 0, 72, 0
2, 23976, Note_on_c, 0, 70, 60
2, 23992, Note_on_c, 0, 70, 0
2, 24000, Note_on_c, 0, 69, 60
2, 24032, Note_on_c, 0, 69, 0
2, 24072, Note_on_c, 0, 84, 60
2, 24088, Note_on_c, 0, 84, 0
2, 24096, Note_on_c, 0, 81, 60
2, 24128, Note_on_c, 0, 81, 0
2, 24168, Note_on_c, 0, 79, 60
2, 24184, Note_on_c, 0, 79, 0
2, 24192, Note_on_c, 0, 77, 60
2, 24224, Note_on_c, 0, 77, 0
2, 24264, Note_on_c, 0, 75, 60
2, 24280, Note_on_c, 0, 75, 0
2, 24288, Note_on_c, 0, 74, 60
2, 24320, Note_on_c, 0, 74, 0
2, 24360, Note_on_c, 0, 69, 60
2, 24360, Note_on_c, 0, 81, 60
2, 24376, Note_on_c, 0, 69, 0
2, 24376, Note_on_c, 0, 81, 0
2, 24408, Note_on_c, 0, 70, 60
2, 24408, Note_on_c, 0, 82, 60
2, 24424, Note_on_c, 0, 70, 0
2, 24424, Note_on_c, 0, 82, 0
2, 24456, Note_on_c, 0, 72, 60
2, 24456, Note_on_c, 0, 84, 60
2, 24472, Note_on_c, 0, 72, 0
2, 24472, Note_on_c, 0, 84, 0
2, 24504, Note_on_c, 0, 74, 60
2, 24504, Note_on_c, 0, 86, 60
2, 24520, Note_on_c, 0, 74, 0
2, 24520, Note_on_c, 0, 86, 0
2, 24552, Note_on_c, 0, 75, 60
2, 24552, Note_on_c, 0, 87, 60
2, 24568, Note_on_c, 0, 75, 0
2, 24568, Note_on_c, 0, 87, 0
2, 24576, Note_on_c, 0, 77, 60
2, 24576, Note_on_c, 0, 89, 60
2, 24592, Note_on_c, 0, 77, 0
2, 24592, Note_on_c, 0, 89, 0
2, 24600, Note_on_c, 0, 77, 60
2, 24600, Note_on_c, 0, 89, 60
2, 24616, Note_on_c, 0, 77, 0
2, 24616, Note_on_c, 0, 89, 0
2, 24648, Note_on_c, 0, 75, 60
2, 24648, Note_on_c, 0, 87, 60
2, 24664, Note_on_c, 0, 75, 0
2, 24664, Note_on_c, 0, 87, 0
2, 24672, Note_on_c, 0, 74, 60
2, 24672, Note_on_c, 0, 86, 60
2, 24688, Note_on_c, 0, 74, 0
2, 24688, Note_on_c, 0, 86, 0
2, 24696, Note_on_c, 0, 74, 60
2, 24696, Note_on_c, 0, 86, 60
2, 24712, Note_on_c, 0, 74, 0
2, 24712, Note_on_c, 0, 86, 0
2, 24744, Note_on_c, 0, 72, 60
2, 24744, Note_on_c, 0, 84, 60
2, 24760, Note_on_c, 0, 72, 0
2, 24760, Note_on_c, 0, 84, 0
2, 24768, Note_on_c, 0, 70, 60
2, 24768, Note_on_c, 0, 82, 60
2, 24784, Note_on_c, 0, 70, 0
2, 24784, Note_on_c, 0, 82, 0
2, 24792, Note_on_c, 0, 70, 60
2, 24792, Note_on_c, 0, 82, 60
2, 24808, Note_on_c, 0, 70, 0
2, 24808, Note_on_c, 0, 82, 0
2, 24840, Note_on_c, 0, 69, 60
2, 24840, Note_on_c, 0, 81, 60
2, 24856, Note_on_c, 0, 69, 0
2, 24856, Note_on_c, 0, 81, 0
2, 24864, Note_on_c, 0, 67, 60
2, 24864, Note_on_c, 0, 79, 60
2, 24880, Note_on_c, 0, 67, 0
2, 24880, Note_on_c, 0, 79, 0
2, 24888, Note_on_c, 0, 67, 60
2, 24888, Note_on_c, 0, 79, 60
2, 24904, Note_on_c, 0, 67, 0
2, 24904, Note_on_c, 0, 79, 0
2, 24936, Note_on_c, 0, 65, 60
2, 24936, Note_on_c, 0, 77, 60
2, 24952, Note_on_c, 0, 65, 0
2, 24952, Note_on_c, 0, 77, 0
2, 24960, Note_on_c, 0, 63, 60
2, 24960, Note_on_c, 0, 75, 60
2, 24976, Note_on_c, 0, 63, 0
2, 24976, Note_on_c, 0, 75, 0
2, 24984, Note_on_c, 0, 63, 60
2, 24984, Note_on_c, 0, 75, 60
2, 25000, Note_on_c, 0, 63, 0
2, 25000, Note_on_c, 0, 75, 0
2, 25032, Note_on_c, 0, 62, 60
2, 25032, Note_on_c, 0, 74, 60
2, 25048, Note_on_c, 0, 62, 0
2, 25048, Note_on_c, 0, 74, 0
2, 25056, Note_on_c, 0, 60, 60
2, 25056, Note_on_c, 0, 72, 60
2, 25072, Note_on_c, 0, 60, 0
2, 25072, Note_on_c, 0, 72, 0
2, 25080, Note_on_c, 0, 60, 60
2, 25080, Note_on_c, 0, 72, 60
2, 25096, Note_on_c, 0, 60, 0
2, 25096, Note_on_c, 0, 72, 0
2, 25128, Note_on_c, 0, 60, 60
2, 25128, Note_on_c, 0, 70, 60
2, 25144, Note_on_c, 0, 60, 0
2, 25144, Note_on_c, 0, 70, 0
2, 25176, Note_on_c, 0, 60, 60
2, 25176, Note_on_c, 0, 63, 60
2, 25176, Note_on_c, 0, 69, 60
2, 25192, Note_on_c, 0, 60, 0
2, 25192, Note_on_c, 0, 63, 0
2, 25192, Note_on_c, 0, 69, 0
2, 25224, Note_on_c, 0, 58, 60
2, 25224, Note_on_c, 0, 62, 60
2, 25224, Note_on_c, 0, 67, 60
2, 25240, Note_on_c, 0, 58, 0
2, 25240, Note_on_c, 0, 62, 0
2, 25240, Note_on_c, 0, 67, 0
2, 25272, Note_on_c, 0, 57, 60
2, 25272, Note_on_c, 0, 60, 60
2, 25272, Note_on_c, 0, 65, 60
2, 25288, Note_on_c, 0, 57, 0
2, 25288, Note_on_c, 0, 60, 0
2, 25288, Note_on_c, 0, 65, 0
2, 25320, Note_on_c, 0, 55, 60
2, 25320, Note_on_c, 0, 58, 60
2, 25320, Note_on_c, 0, 63, 60
2, 25336, Note_on_c, 0, 55, 0
2, 25336, Note_on_c, 0, 58, 0
2, 25336, Note_on_c, 0, 63, 0
2, 25368, Note_on_c, 0, 53, 60
2, 25368, Note_on_c, 0, 57, 60
2, 25368, Note_on_c, 0, 62, 60
2, 25384, Note_on_c, 0, 53, 0
2, 25384, Note_on_c, 0, 57, 0
2, 25384, Note_on_c, 0, 62, 0
2, 25416, Note_on_c, 0, 51, 84
2, 25416, Note_on_c, 0, 53, 84
2, 25416, Note_on_c, 0, 57, 84
2, 25416, Note_on_c, 0, 60, 84
2, 25438, Note_on_c, 0, 51, 0
2, 25438, Note_on_c, 0, 53, 0
2, 25438, Note_on_c, 0, 57, 0
2, 25438, Note_on_c, 0, 60, 0
2, 25440, Note_on_c, 0, 51, 60
2, 25440, Note_on_c, 0, 53, 60
2, 25440, Note_on_c, 0, 57, 60
2, 25440, Note_on_c, 0, 60, 60
2, 25534, Note_on_c, 0, 51, 0
2, 25534, Note_on_c, 0, 53, 0
2, 25534, Note_on_c, 0, 57, 0
2, 25534, Note_on_c, 0, 60, 0
2, 25536, Note_on_c, 0, 53, 61
2, 25536, Note_on_c, 0, 58, 61
2, 25582, Note_on_c, 0, 53, 0
2, 25582, Note_on_c, 0, 58, 0
2, 25608, Note_on_c, 0, 77, 61
2, 25630, Note_on_c, 0, 77, 0
2, 25632, Note_on_c, 0, 89, 61
2, 25664, Note_on_c, 0, 89, 0
2, 25704, Note_on_c, 0, 89, 61
2, 25720, Note_on_c, 0, 89, 0
2, 25728, Note_on_c, 0, 89, 60
2, 25760, Note_on_c, 0, 89, 0
2, 25800, Note_on_c, 0, 87, 60
2, 25816, Note_on_c, 0, 87, 0
2, 25824, Note_on_c, 0, 86, 60
2, 25856, Note_on_c, 0, 86, 0
2, 25896, Note_on_c, 0, 84, 60
2, 25912, Note_on_c, 0, 84, 0
2, 25920, Note_on_c, 0, 82, 60
2, 25952, Note_on_c, 0, 82, 0
2, 25992, Note_on_c, 0, 81, 60
2, 26008, Note_on_c, 0, 81, 0
2, 26016, Note_on_c, 0, 79, 60
2, 26048, Note_on_c, 0, 79, 0
2, 26088, Note_on_c, 0, 77, 60
2, 26104, Note_on_c, 0, 77, 0
2, 26112, Note_on_c, 0, 75, 60
2, 26144, Note_on_c, 0, 75, 0
2, 26184, Note_on_c, 0, 74, 60
2, 26200, Note_on_c, 0, 74, 0
2, 26208, Note_on_c, 0, 72, 60
2, 26240, Note_on_c, 0, 72, 0
2, 26280, Note_on_c, 0, 70, 60
2, 26296, Note_on_c, 0, 70, 0
2, 26304, Note_on_c, 0, 69, 60
2, 26336, Note_on_c, 0, 69, 0
2, 26376, Note_on_c, 0, 84, 60
2, 26392, Note_on_c, 0, 84, 0
2, 26400, Note_on_c, 0, 81, 60
2, 26432, Note_on_c, 0, 81, 0
2, 26472, Note_on_c, 0, 79, 60
2, 26488, Note_on_c, 0, 79, 0
2, 26496, Note_on_c, 0, 77, 60
2, 26528, Note_on_c, 0, 77, 0
2, 26568, Note_on_c, 0, 75, 60
2, 26584, Note_on_c, 0, 75, 0
2, 26592, Note_on_c, 0, 74, 60
2, 26624, Note_on_c, 0, 74, 0
2, 26664, Note_on_c, 0, 69, 60
2, 26664, Note_on_c, 0, 81, 60
2, 26680, Note_on_c, 0, 69, 0
2, 26680, Note_on_c, 0, 81, 0
2, 26712, Note_on_c, 0, 70, 60
2, 26712, Note_on_c, 0, 82, 60
2, 26728, Note_on_c, 0, 70, 0
2, 26728, Note_on_c, 0, 82, 0
2, 26760, Note_on_c, 0, 72, 60
2, 26760, Note_on_c, 0, 84, 60
2, 26776, Note_on_c, 0, 72, 0
2, 26776, Note_on_c, 0, 84, 0
2, 26808, Note_on_c, 0, 74, 60
2, 26808, Note_on_c, 0, 86, 60
2, 26824, Note_on_c, 0, 74, 0
2, 26824, Note_on_c, 0, 86, 0
2, 26856, Note_on_c, 0, 75, 60
2, 26856, Note_on_c, 0, 87, 60
2, 26872, Note_on_c, 0, 75, 0
2, 26872, Note_on_c, 0, 87, 0
2, 26880, Note_on_c, 0, 77, 60
2, 26880, Note_on_c, 0, 89, 60
2, 26896, Note_on_c, 0, 77, 0
2, 26896, Note_on_c, 0, 89, 0
2, 26904, Note_on_c, 0, 77, 60
2, 26904, Note_on_c, 0, 89, 60
2, 26920, Note_on_c, 0, 77, 0
2, 26920, Note_on_c, 0, 89, 0
2, 26952, Note_on_c, 0, 75, 60
2, 26952, Note_on_c, 0, 87, 60
2, 26968, Note_on_c, 0, 75, 0
2, 26968, Note_on_c, 0, 87, 0
2, 26976, Note_on_c, 0, 74, 60
2, 26976, Note_on_c, 0, 86, 60
2, 26992, Note_on_c, 0, 74, 0
2, 26992, Note_on_c, 0, 86, 0
2, 27000, Note_on_c, 0, 74, 60
2, 27000, Note_on_c, 0, 86, 60
2, 27016, Note_on_c, 0, 74, 0
2, 27016, Note_on_c, 0, 86, 0
2, 27048, Note_on_c, 0, 72, 60
2, 27048, Note_on_c, 0, 84, 60
2, 27064, Note_on_c, 0, 72, 0
2, 27064, Note_on_c, 0, 84, 0
2, 27072, Note_on_c, 0, 70, 60
2, 27072, Note_on_c, 0, 82, 60
2, 27088, Note_on_c, 0, 70, 0
2, 27088, Note_on_c, 0, 82, 0
2, 27096, Note_on_c, 0, 70, 60
2, 27096, Note_on_c, 0, 82, 60
2, 27112, Note_on_c, 0, 70, 0
2, 27112, Note_on_c, 0, 82, 0
2, 27144, Note_on_c, 0, 69, 60
2, 27144, Note_on_c, 0, 81, 60
2, 27160, Note_on_c, 0, 69, 0
2, 27160, Note_on_c, 0, 81, 0
2, 27168, Note_on_c, 0, 67, 60
2, 27168, Note_on_c, 0, 79, 60
2, 27184, Note_on_c, 0, 67, 0
2, 27184, Note_on_c, 0, 79, 0
2, 27192, Note_on_c, 0, 67, 60
2, 27192, Note_on_c, 0, 79, 60
2, 27208, Note_on_c, 0, 67, 0
2, 27208, Note_on_c, 0, 79, 0
2, 27240, Note_on_c, 0, 65, 60
2, 27240, Note_on_c, 0, 77, 60
2, 27256, Note_on_c, 0, 65, 0
2, 27256, Note_on_c, 0, 77, 0
2, 27264, Note_on_c, 0, 63, 60
2, 27264, Note_on_c, 0, 75, 60
2, 27280, Note_on_c, 0, 63, 0
2, 27280, Note_on_c, 0, 75, 0
2, 27288, Note_on_c, 0, 63, 60
2, 27288, Note_on_c, 0, 75, 60
2, 27304, Note_on_c, 0, 63, 0
2, 27304, Note_on_c, 0, 75, 0
2, 27336, Note_on_c, 0, 62, 60
2, 27336, Note_on_c, 0, 74, 60
2, 27352, Note_on_c, 0, 62, 0
2, 27352, Note_on_c, 0, 74, 0
2, 27360, Note_on_c, 0, 60, 60
2, 27360, Note_on_c, 0, 72, 60
2, 27376, Note_on_c, 0, 60, 0
2, 27376, Note_on_c, 0, 72, 0
2, 27384, Note_on_c, 0, 60, 60
2, 27384, Note_on_c, 0, 72, 60
2, 27400, Note_on_c, 0, 60, 0
2, 27400, Note_on_c, 0, 72, 0
2, 27432, Note_on_c, 0, 60, 60
2, 27432, Note_on_c, 0, 70, 60
2, 27448, Note_on_c, 0, 60, 0
2, 27448, Note_on_c, 0, 70, 0
2, 27480, Note_on_c, 0, 60, 60
2, 27480, Note_on_c, 0, 63, 60
2, 27480, Note_on_c, 0, 69, 60
2, 27496, Note_on_c, 0, 60, 0
2, 27496, Note_on_c, 0, 63, 0
2, 27496, Note_on_c, 0, 69, 0
2, 27528, Note_on_c, 0, 58, 60
2, 27528, Note_on_c, 0, 62, 60
2, 27528, Note_on_c, 0, 67, 60
2, 27544, Note_on_c, 0, 58, 0
2, 27544, Note_on_c, 0, 62, 0
2, 27544, Note_on_c, 0, 67, 0
2, 27576, Note_on_c, 0, 57, 60
2, 27576, Note_on_c, 0, 60, 60
2, 27576, Note_on_c, 0, 65, 60
2, 27592, Note_on_c, 0, 57, 0
2, 27592, Note_on_c, 0, 60, 0
2, 27592, Note_on_c, 0, 65, 0
2, 27624, Note_on_c, 0, 55, 60
2, 27624, Note_on_c, 0, 58, 60
2, 27624, Note_on_c, 0, 63, 60
2, 27640, Note_on_c, 0, 55, 0
2, 27640, Note_on_c, 0, 58, 0
2, 27640, Note_on_c, 0, 63, 0
2, 27672, Note_on_c, 0, 53, 60
2, 27672, Note_on_c, 0, 57, 60
2, 27672, Note_on_c, 0, 62, 60
2, 27688, Note_on_c, 0, 53, 0
2, 27688, Note_on_c, 0, 57, 0
2, 27688, Note_on_c, 0, 62, 0
2, 27720, Note_on_c, 0, 51, 84
2, 27720, Note_on_c, 0, 53, 84
2, 27720, Note_on_c, 0, 57, 84
2, 27720, Note_on_c, 0, 60, 84
2, 27742, Note_on_c, 0, 51, 0
2, 27742, Note_on_c, 0, 53, 0
2, 27742, Note_on_c, 0, 57, 0
2, 27742, Note_on_c, 0, 60, 0
2, 27744, Note_on_c, 0, 51, 60
2, 27744, Note_on_c, 0, 53, 60
2, 27744, Note_on_c, 0, 57, 60
2, 27744, Note_on_c, 0, 60, 60
2, 27838, Note_on_c, 0, 51, 0
2, 27838, Note_on_c, 0, 53, 0
2, 27838, Note_on_c, 0, 57, 0
2, 27838, Note_on_c, 0, 60, 0
2, 27840, Note_on_c, 0, 53, 61
2, 27840, Note_on_c, 0, 58, 61
2, 27886, Note_on_c, 0, 53, 0
2, 27886, Note_on_c, 0, 58, 0
2, 27912, Note_on_c, 0, 77, 61
2, 27934, Note_on_c, 0, 77, 0
2, 27936, Note_on_c, 0, 89, 61
2, 27968, Note_on_c, 0, 89, 0
2, 28008, Note_on_c, 0, 89, 61
2, 28024, Note_on_c, 0, 89, 0
2, 28032, Note_on_c, 0, 51, 61
2, 28032, Note_on_c, 0, 53, 61
2, 28032, Note_on_c, 0, 57, 61
2, 28032, Note_on_c, 0, 60, 61
2, 28126, Note_on_c, 0, 51, 0
2, 28126, Note_on_c, 0, 53, 0
2, 28126, Note_on_c, 0, 57, 0
2, 28126, Note_on_c, 0, 60, 0
2, 28128, Note_on_c, 0, 53, 63
2, 28128, Note_on_c, 0, 58, 63
2, 28174, Note_on_c, 0, 53, 0
2, 28174, Note_on_c, 0, 58, 0
2, 28224, Note_on_c, 0, 76, 65
2, 28246, Note_on_c, 0, 76, 0
2, 28248, Note_on_c, 0, 77, 65
2, 28270, Note_on_c, 0, 77, 0
2, 28272, Note_on_c, 0, 74, 65
2, 28294, Note_on_c, 0, 74, 0
2, 28296, Note_on_c, 0, 70, 65
2, 28318, Note_on_c, 0, 70, 0
2, 28320, Note_on_c, 0, 69, 65
2, 28320, Note_on_c, 0, 69, 65
2, 28342, Note_on_c, 0, 69, 0
2, 28344, Note_on_c, 0, 72, 65
2, 28366, Note_on_c, 0, 72, 0
2, 28368, Note_on_c, 0, 78, 65
2, 28390, Note_on_c, 0, 78, 0
2, 28392, Note_on_c, 0, 76, 65
2, 28414, Note_on_c, 0, 69, 0
2, 28414, Note_on_c, 0, 76, 0
2, 28416, Note_on_c, 0, 69, 65
2, 28416, Note_on_c, 0, 77, 65
2, 28438, Note_on_c, 0, 69, 0
2, 28440, Note_on_c, 0, 69, 65
2, 28462, Note_on_c, 0, 69, 0
2, 28464, Note_on_c, 0, 72, 65
2, 28486, Note_on_c, 0, 72, 0
2, 28488, Note_on_c, 0, 69, 65
2, 28510, Note_on_c, 0, 69, 0
2, 28512, Note_on_c, 0, 70, 65
2, 28534, Note_on_c, 0, 70, 0
2, 28536, Note_on_c, 0, 74, 65
2, 28558, Note_on_c, 0, 74, 0
2, 28560, Note_on_c, 0, 70, 65
2, 28576, Note_on_c, 0, 77, 0
2, 28582, Note_on_c, 0, 70, 0
2, 28584, Note_on_c, 0, 74, 65
2, 28606, Note_on_c, 0, 74, 0
2, 28608, Note_on_c, 0, 72, 65
2, 28608, Note_on_c, 0, 77, 65
2, 28630, Note_on_c, 0, 77, 0
2, 28632, Note_on_c, 0, 75, 65
2, 28654, Note_on_c, 0, 75, 0
2, 28656, Note_on_c, 0, 79, 65
2, 28678, Note_on_c, 0, 79, 0
2, 28680, Note_on_c, 0, 76, 65
2, 28702, Note_on_c, 0, 72, 0
2, 28702, Note_on_c, 0, 76, 0
2, 28704, Note_on_c, 0, 72, 65
2, 28704, Note_on_c, 0, 77, 65
2, 28726, Note_on_c, 0, 72, 0
2, 28728, Note_on_c, 0, 72, 65
2, 28750, Note_on_c, 0, 72, 0
2, 28752, Note_on_c, 0, 75, 65
2, 28774, Note_on_c, 0, 75, 0
2, 28776, Note_on_c, 0, 72, 65
2, 28798, Note_on_c, 0, 72, 0
2, 28800, Note_on_c, 0, 74, 65
2, 28822, Note_on_c, 0, 74, 0
2, 28824, Note_on_c, 0, 70, 65
2, 28846, Note_on_c, 0, 70, 0
2, 28848, Note_on_c, 0, 74, 66
2, 28864, Note_on_c, 0, 77, 0
2, 28870, Note_on_c, 0, 74, 0
2, 28872, Note_on_c, 0, 70, 67
2, 28894, Note_on_c, 0, 70, 0
2, 28896, Note_on_c, 0, 69, 67
2, 28896, Note_on_c, 0, 69, 67
2, 28918, Note_on_c, 0, 69, 0
2, 28920, Note_on_c, 0, 72, 68
2, 28942, Note_on_c, 0, 72, 0
2, 28944, Note_on_c, 0, 78, 69
2, 28966, Note_on_c, 0, 78, 0
2, 28968, Note_on_c, 0, 76, 70
2, 28990, Note_on_c, 0, 69, 0
2, 28990, Note_on_c, 0, 76, 0
2, 28992, Note_on_c, 0, 69, 71
2, 28992, Note_on_c, 0, 77, 71
2, 29014, Note_on_c, 0, 69, 0
2, 29016, Note_on_c, 0, 69, 72
2, 29038, Note_on_c, 0, 69, 0
2, 29040, Note_on_c, 0, 72, 73
2, 29062, Note_on_c, 0, 72, 0
2, 29064, Note_on_c, 0, 69, 74
2, 29086, Note_on_c, 0, 69, 0
2, 29088, Note_on_c, 0, 70, 75
2, 29110, Note_on_c, 0, 70, 0
2, 29112, Note_on_c, 0, 74, 76
2, 29134, Note_on_c, 0, 74, 0
2, 29136, Note_on_c, 0, 70, 77
2, 29152, Note_on_c, 0, 77, 0
2, 29158, Note_on_c, 0, 70, 0
2, 29160, Note_on_c, 0, 74, 78
2, 29182, Note_on_c, 0, 74, 0
2, 29184, Note_on_c, 0, 71, 79
2, 29184, Note_on_c, 0, 77, 79
2, 29206, Note_on_c, 0, 71, 0
2, 29208, Note_on_c, 0, 74, 80
2, 29230, Note_on_c, 0, 74, 0
2, 29232, Note_on_c, 0, 71, 81
2, 29254, Note_on_c, 0, 71, 0
2, 29256, Note_on_c, 0, 74, 82
2, 29278, Note_on_c, 0, 74, 0
2, 29280, Note_on_c, 0, 72, 83
2, 29302, Note_on_c, 0, 72, 0
2, 29304, Note_on_c, 0, 75, 84
2, 29326, Note_on_c, 0, 75, 0
2, 29328, Note_on_c, 0, 72, 85
2, 29344, Note_on_c, 0, 77, 0
2, 29350, Note_on_c, 0, 72, 0
2, 29352, Note_on_c, 0, 75, 86
2, 29374, Note_on_c, 0, 75, 0
2, 29376, Note_on_c, 0, 69, 87
2, 29376, Note_on_c, 0, 77, 87
2, 29398, Note_on_c, 0, 77, 0
2, 29400, Note_on_c, 0, 77, 88
2, 29422, Note_on_c, 0, 77, 0
2, 29424, Note_on_c, 0, 89, 89
2, 29440, Note_on_c, 0, 89, 0
2, 29448, Note_on_c, 0, 89, 90
2, 29464, Note_on_c, 0, 89, 0
2, 29470, Note_on_c, 0, 69, 0
2, 29472, Note_on_c, 0, 77, 92
2, 29472, Note_on_c, 0, 89, 92
2, 29488, Note_on_c, 0, 77, 0
2, 29488, Note_on_c, 0, 89, 0
2, 29496, Note_on_c, 0, 77, 92
2, 29496, Note_on_c, 0, 89, 92
2, 29512, Note_on_c, 0, 77, 0
2, 29512, Note_on_c, 0, 89, 0
2, 29544, Note_on_c, 0, 75, 60
2, 29544, Note_on_c, 0, 87, 60
2, 29560, Note_on_c, 0, 75, 0
2, 29560, Note_on_c, 0, 87, 0
2, 29568, Note_on_c, 0, 74, 60
2, 29568, Note_on_c, 0, 86, 60
2, 29584, Note_on_c, 0, 74, 0
2, 29584, Note_on_c, 0, 86, 0
2, 29592, Note_on_c, 0, 74, 60
2, 29592, Note_on_c, 0, 86, 60
2, 29608, Note_on_c, 0, 74, 0
2, 29608, Note_on_c, 0, 86, 0
2, 29640, Note_on_c, 0, 72, 60
2, 29640, Note_on_c, 0, 84, 60
2, 29656, Note_on_c, 0, 72, 0
2, 29656, Note_on_c, 0, 84, 0
2, 29664, Note_on_c, 0, 70, 60
2, 29664, Note_on_c, 0, 82, 60
2, 29680, Note_on_c, 0, 70, 0
2, 29680, Note_on_c, 0, 82, 0
2, 29688, Note_on_c, 0, 70, 60
2, 29688, Note_on_c, 0, 82, 60
2, 29704, Note_on_c, 0, 70, 0
2, 29704, Note_on_c, 0, 82, 0
2, 29736, Note_on_c, 0, 69, 60
2, 29736, Note_on_c, 0, 81, 60
2, 29752, Note_on_c, 0, 69, 0
2, 29752, Note_on_c, 0, 81, 0
2, 29760, Note_on_c, 0, 67, 60
2, 29760, Note_on_c, 0, 79, 60
2, 29776, Note_on_c, 0, 67, 0
2, 29776, Note_on_c, 0, 79, 0
2, 29784, Note_on_c, 0, 67, 60
2, 29784, Note_on_c, 0, 79, 60
2, 29800, Note_on_c, 0, 67, 0
2, 29800, Note_on_c, 0, 79, 0
2, 29832, Note_on_c, 0, 65, 60
2, 29832, Note_on_c, 0, 77, 60
2, 29848, Note_on_c, 0, 65, 0
2, 29848, Note_on_c, 0, 77, 0
2, 29856, Note_on_c, 0, 63, 60
2, 29856, Note_on_c, 0, 75, 60
2, 29872, Note_on_c, 0, 63, 0
2, 29872, Note_on_c, 0, 75, 0
2, 29880, Note_on_c, 0, 63, 60
2, 29880, Note_on_c, 0, 75, 60
2, 29896, Note_on_c, 0, 63, 0
2, 29896, Note_on_c, 0, 75, 0
2, 29928, Note_on_c, 0, 62, 60
2, 29928, Note_on_c, 0, 74, 60
2, 29944, Note_on_c, 0, 62, 0
2, 29944, Note_on_c, 0, 74, 0
2, 29952, Note_on_c, 0, 60, 60
2, 29952, Note_on_c, 0, 72, 60
2, 29968, Note_on_c, 0, 60, 0
2, 29968, Note_on_c, 0, 72, 0
2, 29976, Note_on_c, 0, 60, 60
2, 29976, Note_on_c, 0, 72, 60
2, 29992, Note_on_c, 0, 60, 0
2, 29992, Note_on_c, 0, 72, 0
2, 30024, Note_on_c, 0, 60, 60
2, 30024, Note_on_c, 0, 70, 60
2, 30040, Note_on_c, 0, 60, 0
2, 30040, Note_on_c, 0, 70, 0
2, 30072, Note_on_c, 0, 60, 60
2, 30072, Note_on_c, 0, 63, 60
2, 30072, Note_on_c, 0, 69, 60
2, 30088, Note_on_c, 0, 60, 0
2, 30088, Note_on_c, 0, 63, 0
2, 30088, Note_on_c, 0, 69, 0
2, 30120, Note_on_c, 0, 58, 60
2, 30120, Note_on_c, 0, 62, 60
2, 30120, Note_on_c, 0, 65, 60
2, 30136, Note_on_c, 0, 58, 0
2, 30136, Note_on_c, 0, 62, 0
2, 30136, Note_on_c, 0, 65, 0
2, 30168, Note_on_c, 0, 57, 60
2, 30168, Note_on_c, 0, 60, 60
2, 30168, Note_on_c, 0, 65, 60
2, 30184, Note_on_c, 0, 57, 0
2, 30184, Note_on_c, 0, 60, 0
2, 30184, Note_on_c, 0, 65, 0
2, 30216, Note_on_c, 0, 55, 60
2, 30216, Note_on_c, 0, 58, 60
2, 30216, Note_on_c, 0, 63, 60
2, 30232, Note_on_c, 0, 55, 0
2, 30232, Note_on_c, 0, 58, 0
2, 30232, Note_on_c, 0, 63, 0
2, 30264, Note_on_c, 0, 53, 60
2, 30264, Note_on_c, 0, 57, 60
2, 30264, Note_on_c, 0, 62, 60
2, 30280, Note_on_c, 0, 53, 0
2, 30280, Note_on_c, 0, 57, 0
2, 30280, Note_on_c, 0, 62, 0
2, 30312, Note_on_c, 0, 51, 84
2, 30312, Note_on_c, 0, 53, 84
2, 30312, Note_on_c, 0, 57, 84
2, 30312, Note_on_c, 0, 60, 84
2, 30334, Note_on_c, 0, 51, 0
2, 30334, Note_on_c, 0, 53, 0
2, 30334, Note_on_c, 0, 57, 0
2, 30334, Note_on_c, 0, 60, 0
2, 30336, Note_on_c, 0, 51, 60
2, 30336, Note_on_c, 0, 53, 60
2, 30336, Note_on_c, 0, 57, 60
2, 30336, Note_on_c, 0, 60, 60
2, 30430, Note_on_c, 0, 51, 0
2, 30430, Note_on_c, 0, 53, 0
2, 30430, Note_on_c, 0, 57, 0
2, 30430, Note_on_c, 0, 60, 0
2, 30432, Note_on_c, 0, 50, 57
2, 30432, Note_on_c, 0, 53, 57
2, 30432, Note_on_c, 0, 58, 57
2, 30478, Note_on_c, 0, 50, 0
2, 30478, Note_on_c, 0, 53, 0
2, 30478, Note_on_c, 0, 58, 0
2, 30528, Note_on_c, 0, 76, 55
2, 30550, Note_on_c, 0, 76, 0
2, 30552, Note_on_c, 0, 77, 55
2, 30574, Note_on_c, 0, 77, 0
2, 30576, Note_on_c, 0, 74, 55
2, 30598, Note_on_c, 0, 74, 0
2, 30600, Note_on_c, 0, 70, 54
2, 30622, Note_on_c, 0, 70, 0
2, 30624, Note_on_c, 0, 69, 53
2, 30624, Note_on_c, 0, 69, 53
2, 30646, Note_on_c, 0, 69, 0
2, 30648, Note_on_c, 0, 72, 52
2, 30670, Note_on_c, 0, 72, 0
2, 30672, Note_on_c, 0, 78, 51
2, 30694, Note_on_c, 0, 78, 0
2, 30696, Note_on_c, 0, 76, 50
2, 30718, Note_on_c, 0, 69, 0
2, 30718, Note_on_c, 0, 76, 0
2, 30720, Note_on_c, 0, 69, 49
2, 30720, Note_on_c, 0, 77, 49
2, 30742, Note_on_c, 0, 69, 0
2, 30744, Note_on_c, 0, 69, 48
2, 30766, Note_on_c, 0, 69, 0
2, 30768, Note_on_c, 0, 72, 47
2, 30790, Note_on_c, 0, 72, 0
2, 30792, Note_on_c, 0, 69, 46
2, 30814, Note_on_c, 0, 69, 0
2, 30816, Note_on_c, 0, 70, 45
2, 30838, Note_on_c, 0, 70, 0
2, 30840, Note_on_c, 0, 74, 45
2, 30862, Note_on_c, 0, 74, 0
2, 30864, Note_on_c, 0, 70, 45
2, 30880, Note_on_c, 0, 77, 0
2, 30886, Note_on_c, 0, 70, 0
2, 30888, Note_on_c, 0, 74, 45
2, 30910, Note_on_c, 0, 74, 0
2, 30912, Note_on_c, 0, 72, 45
2, 30912, Note_on_c, 0, 77, 45
2, 30934, Note_on_c, 0, 77, 0
2, 30936, Note_on_c, 0, 75, 45
2, 30958, Note_on_c, 0, 75, 0
2, 30960, Note_on_c, 0, 79, 45
2, 30982, Note_on_c, 0, 79, 0
2, 30984, Note_on_c, 0, 76, 45
2, 31006, Note_on_c, 0, 72, 0
2, 31006, Note_on_c, 0, 76, 0
2, 31008, Note_on_c, 0, 72, 45
2, 31008, Note_on_c, 0, 77, 45
2, 31030, Note_on_c, 0, 72, 0
2, 31032, Note_on_c, 0, 72, 45
2, 31054, Note_on_c, 0, 72, 0
2, 31056, Note_on_c, 0, 75, 45
2, 31078, Note_on_c, 0, 75, 0
2, 31080, Note_on_c, 0, 72, 45
2, 31102, Note_on_c, 0, 72, 0
2, 31104, Note_on_c, 0, 74, 45
2, 31126, Note_on_c, 0, 74, 0
2, 31128, Note_on_c, 0, 70, 45
2, 31150, Note_on_c, 0, 70, 0
2, 31152, Note_on_c, 0, 74, 45
2, 31168, Note_on_c, 0, 77, 0
2, 31174, Note_on_c, 0, 74, 0
2, 31176, Note_on_c, 0, 70, 45
2, 31198, Note_on_c, 0, 70, 0
2, 31200, Note_on_c, 0, 69, 45
2, 31200, Note_on_c, 0, 69, 45
2, 31222, Note_on_c, 0, 69, 0
2, 31224, Note_on_c, 0, 72, 45
2, 31246, Note_on_c, 0, 72, 0
2, 31248, Note_on_c, 0, 78, 45
2, 31270, Note_on_c, 0, 78, 0
2, 31272, Note_on_c, 0, 76, 45
2, 31294, Note_on_c, 0, 69, 0
2, 31294, Note_on_c, 0, 76, 0
2, 31296, Note_on_c, 0, 69, 45
2, 31296, Note_on_c, 0, 77, 45
2, 31318, Note_on_c, 0, 69, 0
2, 31320, Note_on_c, 0, 69, 45
2, 31342, Note_on_c, 0, 69, 0
2, 31344, Note_on_c, 0, 72, 45
2, 31366, Note_on_c, 0, 72, 0
2, 31368, Note_on_c, 0, 69, 45
2, 31390, Note_on_c, 0, 69, 0
2, 31392, Note_on_c, 0, 70, 45
2, 31414, Note_on_c, 0, 70, 0
2, 31416, Note_on_c, 0, 74, 45
2, 31438, Note_on_c, 0, 74, 0
2, 31440, Note_on_c, 0, 70, 45
2, 31456, Note_on_c, 0, 77, 0
2, 31462, Note_on_c, 0, 70, 0
2, 31464, Note_on_c, 0, 74, 45
2, 31486, Note_on_c, 0, 74, 0
2, 31488, Note_on_c, 0, 71, 45
2, 31488, Note_on_c, 0, 77, 45
2, 31510, Note_on_c, 0, 71, 0
2, 31512, Note_on_c, 0, 74, 45
2, 31534, Note_on_c, 0, 74, 0
2, 31536, Note_on_c, 0, 71, 45
2, 31558, Note_on_c, 0, 71, 0
2, 31560, Note_on_c, 0, 74, 45
2, 31582, Note_on_c, 0, 74, 0
2, 31584, Note_on_c, 0, 72, 45
2, 31606, Note_on_c, 0, 72, 0
2, 31608, Note_on_c, 0, 75, 45
2, 31630, Note_on_c, 0, 75, 0
2, 31632, Note_on_c, 0, 72, 45
2, 31648, Note_on_c, 0, 77, 0
2, 31654, Note_on_c, 0, 72, 0
2, 31656, Note_on_c, 0, 75, 45
2, 31678, Note_on_c, 0, 75, 0
2, 31680, Note_on_c, 0, 69, 45
2, 31680, Note_on_c, 0, 77, 45
2, 31702, Note_on_c, 0, 77, 0
2, 31704, Note_on_c, 0, 77, 45
2, 31726, Note_on_c, 0, 77, 0
2, 31728, Note_on_c, 0, 89, 45
2, 31744, Note_on_c, 0, 89, 0
2, 31752, Note_on_c, 0, 89, 45
2, 31768, Note_on_c, 0, 89, 0
2, 31774, Note_on_c, 0, 69, 0
2, 31776, Note_on_c, 0, 77, 92
2, 31776, Note_on_c, 0, 89, 92
2, 31792, Note_on_c, 0, 77, 0
2, 31792, Note_on_c, 0, 89, 0
2, 31800, Note_on_c, 0, 77, 92
2, 31800, Note_on_c, 0, 89, 92
2, 31816, Note_on_c, 0, 77, 0
2, 31816, Note_on_c, 0, 89, 0
2, 31848, Note_on_c, 0, 75, 60
2, 31848, Note_on_c, 0, 87, 60
2, 31864, Note_on_c, 0, 75, 0
2, 31864, Note_on_c, 0, 87, 0
2, 31872, Note_on_c, 0, 74, 60
2, 31872, Note_on_c, 0, 86, 60
2, 31888, Note_on_c, 0, 74, 0
2, 31888, Note_on_c, 0, 86, 0
2, 31896, Note_on_c, 0, 74, 60
2, 31896, Note_on_c, 0, 86, 60
2, 31912, Note_on_c, 0, 74, 0
2, 31912, Note_on_c, 0, 86, 0
2, 31944, Note_on_c, 0, 72, 60
2, 31944, Note_on_c, 0, 84, 60
2, 31960, Note_on_c, 0, 72, 0
2, 31960, Note_on_c, 0, 84, 0
2, 31968, Note_on_c, 0, 70, 60
2, 31968, Note_on_c, 0, 82, 60
2, 31984, Note_on_c, 0, 70, 0
2, 31984, Note_on_c, 0, 82, 0
2, 31992, Note_on_c, 0, 70, 60
2, 31992, Note_on_c, 0, 82, 60
2, 32008, Note_on_c, 0, 70, 0
2, 32008, Note_on_c, 0, 82, 0
2, 32040, Note_on_c, 0, 69, 60
2, 32040, Note_on_c, 0, 81, 60
2, 32056, Note_on_c, 0, 69, 0
2, 32056, Note_on_c, 0, 81, 0
2, 32064, Note_on_c, 0, 67, 60
2, 32064, Note_on_c, 0, 79, 60
2, 32080, Note_on_c, 0, 67, 0
2, 32080, Note_on_c, 0, 79, 0
2, 32088, Note_on_c, 0, 67, 60
2, 32088, Note_on_c, 0, 79, 60
2, 32104, Note_on_c, 0, 67, 0
2, 32104, Note_on_c, 0, 79, 0
2, 32136, Note_on_c, 0, 65, 60
2, 32136, Note_on_c, 0, 77, 60
2, 32152, Note_on_c, 0, 65, 0
2, 32152, Note_on_c, 0, 77, 0
2, 32160, Note_on_c, 0, 63, 60
2, 32160, Note_on_c, 0, 75, 60
2, 32176, Note_on_c, 0, 63, 0
2, 32176, Note_on_c, 0, 75, 0
2, 32184, Note_on_c, 0, 63, 60
2, 32184, Note_on_c, 0, 75, 60
2, 32200, Note_on_c, 0, 63, 0
2, 32200, Note_on_c, 0, 75, 0
2, 32232, Note_on_c, 0, 62, 60
2, 32232, Note_on_c, 0, 74, 60
2, 32248, Note_on_c, 0, 62, 0
2, 32248, Note_on_c, 0, 74, 0
2, 32256, Note_on_c, 0, 60, 60
2, 32256, Note_on_c, 0, 72, 60
2, 32272, Note_on_c, 0, 60, 0
2, 32272, Note_on_c, 0, 72, 0
2, 32280, Note_on_c, 0, 60, 60
2, 32280, Note_on_c, 0, 72, 60
2, 32296, Note_on_c, 0, 60, 0
2, 32296, Note_on_c, 0, 72, 0
2, 32328, Note_on_c, 0, 60, 60
2, 32328, Note_on_c, 0, 70, 60
2, 32344, Note_on_c, 0, 60, 0
2, 32344, Note_on_c, 0, 70, 0
2, 32376, Note_on_c, 0, 60, 60
2, 32376, Note_on_c, 0, 63, 60
2, 32376, Note_on_c, 0, 69, 60
2, 32392, Note_on_c, 0, 60, 0
2, 32392, Note_on_c, 0, 63, 0
2, 32392, Note_on_c, 0, 69, 0
2, 32424, Note_on_c, 0, 58, 60
2, 32424, Note_on_c, 0, 62, 60
2, 32424, Note_on_c, 0, 65, 60
2, 32440, Note_on_c, 0, 58, 0
2, 32440, Note_on_c, 0, 62, 0
2, 32440, Note_on_c, 0, 65, 0
2, 32472, Note_on_c, 0, 57, 60
2, 32472, Note_on_c, 0, 60, 60
2, 32472, Note_on_c, 0, 65, 60
2, 32488, Note_on_c, 0, 57, 0
2, 32488, Note_on_c, 0, 60, 0
2, 32488, Note_on_c, 0, 65, 0
2, 32520, Note_on_c, 0, 55, 60
2, 32520, Note_on_c, 0, 58, 60
2, 32520, Note_on_c, 0, 63, 60
2, 32536, Note_on_c, 0, 55, 0
2, 32536, Note_on_c, 0, 58, 0
2, 32536, Note_on_c, 0, 63, 0
2, 32568, Note_on_c, 0, 53, 60
2, 32568, Note_on_c, 0, 57, 60
2, 32568, Note_on_c, 0, 62, 60
2, 32584, Note_on_c, 0, 53, 0
2, 32584, Note_on_c, 0, 57, 0
2, 32584, Note_on_c, 0, 62, 0
2, 32616, Note_on_c, 0, 51, 84
2, 32616, Note_on_c, 0, 53, 84
2, 32616, Note_on_c, 0, 57, 84
2, 32616, Note_on_c, 0, 60, 84
2, 32638, Note_on_c, 0, 51, 0
2, 32638, Note_on_c, 0, 53, 0
2, 32638, Note_on_c, 0, 57, 0
2, 32638, Note_on_c, 0, 60, 0
2, 32640, Note_on_c, 0, 51, 60
2, 32640, Note_on_c, 0, 53, 60
2, 32640, Note_on_c, 0, 57, 60
2, 32640, Note_on_c, 0, 60, 60
2, 32734, Note_on_c, 0, 51, 0
2, 32734, Note_on_c, 0, 53, 0
2, 32734, Note_on_c, 0, 57, 0
2, 32734, Note_on_c, 0, 60, 0
2, 32736, Note_on_c, 0, 50, 57
2, 32736, Note_on_c, 0, 53, 57
2, 32736, Note_on_c, 0, 58, 57
2, 32782, Note_on_c, 0, 50, 0
2, 32782, Note_on_c, 0, 53, 0
2, 32782, Note_on_c, 0, 58, 0
2, 32832, Note_on_c, 0, 76, 55
2, 32854, Note_on_c, 0, 76, 0
2, 32856, Note_on_c, 0, 77, 55
2, 32878, Note_on_c, 0, 77, 0
2, 32880, Note_on_c, 0, 74, 55
2, 32902, Note_on_c, 0, 74, 0
2, 32904, Note_on_c, 0, 70, 54
2, 32926, Note_on_c, 0, 70, 0
2, 32928, Note_on_c, 0, 51, 53
2, 32928, Note_on_c, 0, 53, 53
2, 32928, Note_on_c, 0, 57, 53
2, 32928, Note_on_c, 0, 60, 53
2, 33022, Note_on_c, 0, 51, 0
2, 33022, Note_on_c, 0, 53, 0
2, 33022, Note_on_c, 0, 57, 0
2, 33022, Note_on_c, 0, 60, 0
2, 33024, Note_on_c, 0, 50, 49
2, 33024, Note_on_c, 0, 53, 49
2, 33024, Note_on_c, 0, 58, 49
2, 33070, Note_on_c, 0, 50, 0
2, 33070, Note_on_c, 0, 53, 0
2, 33070, Note_on_c, 0, 58, 0
2, 33120, Note_on_c, 0, 67, 45
2, 33120, Note_on_c, 0, 74, 45
2, 33190, Note_on_c, 0, 74, 0
2, 33192, Note_on_c, 0, 75, 45
2, 33214, Note_on_c, 0, 67, 0
2, 33214, Note_on_c, 0, 75, 0
2, 33216, Note_on_c, 0, 69, 45
2, 33216, Note_on_c, 0, 74, 45
2, 33310, Note_on_c, 0, 74, 0
2, 33312, Note_on_c, 0, 72, 45
2, 33376, Note_on_c, 0, 69, 0
2, 33406, Note_on_c, 0, 72, 0
2, 33696, Note_on_c, 0, 67, 60
2, 33696, Note_on_c, 0, 74, 60
2, 33766, Note_on_c, 0, 74, 0
2, 33768, Note_on_c, 0, 75, 66
2, 33790, Note_on_c, 0, 67, 0
2, 33790, Note_on_c, 0, 75, 0
2, 33792, Note_on_c, 0, 69, 68
2, 33792, Note_on_c, 0, 74, 68
2, 33886, Note_on_c, 0, 74, 0
2, 33888, Note_on_c, 0, 72, 76
2, 33934, Note_on_c, 0, 72, 0
2, 33936, Note_on_c, 0, 72, 80
2, 33952, Note_on_c, 0, 69, 0
2, 33982, Note_on_c, 0, 72, 0
2, 33984, Note_on_c, 0, 67, 84
2, 33984, Note_on_c, 0, 70, 84
2, 34078, Note_on_c, 0, 67, 0
2, 34078, Note_on_c, 0, 70, 0
2, 34080, Note_on_c, 0, 68, 92
2, 34080, Note_on_c, 0, 71, 92
2, 34174, Note_on_c, 0, 68, 0
2, 34174, Note_on_c, 0, 71, 0
2, 34176, Note_on_c, 0, 67, 60
2, 34176, Note_on_c, 0, 72, 60
2, 34270, Note_on_c, 0, 67, 0
2, 34270, Note_on_c, 0, 72, 0
2, 34272, Note_on_c, 0, 72, 60
2, 34342, Note_on_c, 0, 72, 0
2, 34344, Note_on_c, 0, 74, 60
2, 34366, Note_on_c, 0, 74, 0
2, 34368, Note_on_c, 0, 72, 60
2, 34462, Note_on_c, 0, 72, 0
2, 34464, Note_on_c, 0, 70, 60
2, 34558, Note_on_c, 0, 70, 0
2, 34560, Note_on_c, 0, 69, 60
2, 34630, Note_on_c, 0, 69, 0
2, 34632, Note_on_c, 0, 70, 60
2, 34654, Note_on_c, 0, 70, 0
2, 34656, Note_on_c, 0, 69, 60
2, 34750, Note_on_c, 0, 69, 0
2, 34752, Note_on_c, 0, 67, 60
2, 34846, Note_on_c, 0, 67, 0
2, 34848, Note_on_c, 0, 65, 60
2, 34918, Note_on_c, 0, 65, 0
2, 34920, Note_on_c, 0, 66, 60
2, 34942, Note_on_c, 0, 66, 0
2, 34944, Note_on_c, 0, 67, 60
2, 35038, Note_on_c, 0, 67, 0
2, 35040, Note_on_c, 0, 67, 55
2, 35110, Note_on_c, 0, 67, 0
2, 35112, Note_on_c, 0, 69, 52
2, 35134, Note_on_c, 0, 69, 0
2, 35136, Note_on_c, 0, 72, 51
2, 35160, Note_on_c, 0, 72, 0
2, 35160, Note_on_c, 0, 70, 51
2, 35206, Note_on_c, 0, 70, 0
2, 35208, Note_on_c, 0, 67, 47
2, 35230, Note_on_c, 0, 67, 0
2, 35232, Note_on_c, 0, 65, 45
2, 35326, Note_on_c, 0, 65, 0
2, 35328, Note_on_c, 0, 64, 45
2, 35374, Note_on_c, 0, 64, 0
2, 35424, Note_on_c, 0, 60, 45
2, 35424, Note_on_c, 0, 72, 45
2, 35494, Note_on_c, 0, 60, 0
2, 35494, Note_on_c, 0, 72, 0
2, 35496, Note_on_c, 0, 62, 45
2, 35496, Note_on_c, 0, 74, 45
2, 35518, Note_on_c, 0, 62, 0
2, 35518, Note_on_c, 0, 74, 0
2, 35520, Note_on_c, 0, 60, 45
2, 35520, Note_on_c, 0, 72, 45
2, 35566, Note_on_c, 0, 72, 0
2, 35568, Note_on_c, 0, 72, 45
2, 35614, Note_on_c, 0, 60, 0
2, 35614, Note_on_c, 0, 72, 0
2, 35616, Note_on_c, 0, 58, 45
2, 35616, Note_on_c, 0, 70, 45
2, 35710, Note_on_c, 0, 58, 0
2, 35710, Note_on_c, 0, 70, 0
2, 35712, Note_on_c, 0, 57, 45
2, 35712, Note_on_c, 0, 69, 45
2, 35782, Note_on_c, 0, 57, 0
2, 35782, Note_on_c, 0, 69, 0
2, 35784, Note_on_c, 0, 58, 45
2, 35784, Note_on_c, 0, 70, 45
2, 35806, Note_on_c, 0, 58, 0
2, 35806, Note_on_c, 0, 70, 0
2, 35808, Note_on_c, 0, 57, 45
2, 35808, Note_on_c, 0, 69, 45
2, 35902, Note_on_c, 0, 57, 0
2, 35902, Note_on_c, 0, 69, 0
2, 35904, Note_on_c, 0, 55, 47
2, 35904, Note_on_c, 0, 67, 47
2, 35998, Note_on_c, 0, 55, 0
2, 35998, Note_on_c, 0, 67, 0
2, 36000, Note_on_c, 0, 53, 49
2, 36000, Note_on_c, 0, 65, 49
2, 36070, Note_on_c, 0, 53, 0
2, 36070, Note_on_c, 0, 65, 0
2, 36072, Note_on_c, 0, 55, 51
2, 36072, Note_on_c, 0, 67, 51
2, 36094, Note_on_c, 0, 55, 0
2, 36094, Note_on_c, 0, 67, 0
2, 36096, Note_on_c, 0, 57, 71
2, 36096, Note_on_c, 0, 60, 71
2, 36096, Note_on_c, 0, 65, 71
2, 36096, Note_on_c, 0, 69, 71
2, 36256, Note_on_c, 0, 57, 0
2, 36256, Note_on_c, 0, 60, 0
2, 36256, Note_on_c, 0, 65, 0
2, 36256, Note_on_c, 0, 69, 0
2, 36288, Note_on_c, 0, 58, 57
2, 36288, Note_on_c, 0, 64, 57
2, 36288, Note_on_c, 0, 70, 57
2, 36358, Note_on_c, 0, 70, 0
2, 36360, Note_on_c, 0, 67, 59
2, 36382, Note_on_c, 0, 58, 0
2, 36382, Note_on_c, 0, 64, 0
2, 36382, Note_on_c, 0, 67, 0
2, 36384, Note_on_c, 0, 57, 60
2, 36384, Note_on_c, 0, 65, 60
2, 36478, Note_on_c, 0, 57, 0
2, 36478, Note_on_c, 0, 65, 0
2, 36576, Note_on_c, 0, 72, 60
2, 36646, Note_on_c, 0, 72, 0
2, 36648, Note_on_c, 0, 69, 60
2, 36670, Note_on_c, 0, 69, 0
2, 36672, Note_on_c, 0, 70, 60
2, 36766, Note_on_c, 0, 70, 0
2, 36768, Note_on_c, 0, 67, 60
2, 36800, Note_on_c, 0, 67, 0
2, 36864, Note_on_c, 0, 79, 60
2, 36934, Note_on_c, 0, 79, 0
2, 36936, Note_on_c, 0, 76, 60
2, 36958, Note_on_c, 0, 76, 0
2, 36960, Note_on_c, 0, 77, 60
2, 37054, Note_on_c, 0, 77, 0
2, 37056, Note_on_c, 0, 72, 60
2, 37088, Note_on_c, 0, 72, 0
2, 37152, Note_on_c, 0, 72, 60
2, 37174, Note_on_c, 0, 72, 0
2, 37176, Note_on_c, 0, 69, 60
2, 37198, Note_on_c, 0, 69, 0
2, 37200, Note_on_c, 0, 72, 60
2, 37222, Note_on_c, 0, 72, 0
2, 37224, Note_on_c, 0, 69, 60
2, 37246, Note_on_c, 0, 69, 0
2, 37248, Note_on_c, 0, 70, 60
2, 37342, Note_on_c, 0, 70, 0
2, 37344, Note_on_c, 0, 67, 60
2, 37376, Note_on_c, 0, 67, 0
2, 37440, Note_on_c, 0, 79, 60
2, 37462, Note_on_c, 0, 79, 0
2, 37464, Note_on_c, 0, 76, 60
2, 37486, Note_on_c, 0, 76, 0
2, 37488, Note_on_c, 0, 79, 60
2, 37510, Note_on_c, 0, 79, 0
2, 37512, Note_on_c, 0, 76, 60
2, 37534, Note_on_c, 0, 76, 0
2, 37536, Note_on_c, 0, 77, 60
2, 37630, Note_on_c, 0, 77, 0
2, 37632, Note_on_c, 0, 72, 60
2, 37664, Note_on_c, 0, 72, 0
2, 37680, Note_on_c, 0, 79, 60
2, 37702, Note_on_c, 0, 79, 0
2, 37704, Note_on_c, 0, 76, 60
2, 37726, Note_on_c, 0, 76, 0
2, 37728, Note_on_c, 0, 77, 60
2, 37774, Note_on_c, 0, 77, 0
2, 37776, Note_on_c, 0, 79, 60
2, 37798, Note_on_c, 0, 79, 0
2, 37800, Note_on_c, 0, 76, 60
2, 37822, Note_on_c, 0, 76, 0
2, 37824, Note_on_c, 0, 77, 60
2, 37918, Note_on_c, 0, 77, 0
2, 37920, Note_on_c, 0, 72, 60
2, 37966, Note_on_c, 0, 72, 0
2, 37968, Note_on_c, 0, 79, 60
2, 37990, Note_on_c, 0, 79, 0
2, 37992, Note_on_c, 0, 76, 60
2, 38014, Note_on_c, 0, 76, 0
2, 38016, Note_on_c, 0, 77, 60
2, 38062, Note_on_c, 0, 77, 0
2, 38064, Note_on_c, 0, 79, 60
2, 38086, Note_on_c, 0, 79, 0
2, 38088, Note_on_c, 0, 76, 60
2, 38110, Note_on_c, 0, 76, 0
2, 38112, Note_on_c, 0, 77, 60
2, 38158, Note_on_c, 0, 77, 0
2, 38160, Note_on_c, 0, 79, 60
2, 38182, Note_on_c, 0, 79, 0
2, 38184, Note_on_c, 0, 76, 60
2, 38206, Note_on_c, 0, 76, 0
2, 38208, Note_on_c, 0, 77, 60
2, 38254, Note_on_c, 0, 77, 0
2, 38256, Note_on_c, 0, 79, 60
2, 38278, Note_on_c, 0, 79, 0
2, 38280, Note_on_c, 0, 76, 60
2, 38302, Note_on_c, 0, 76, 0
2, 38304, Note_on_c, 0, 77, 60
2, 38350, Note_on_c, 0, 77, 0
2, 38352, Note_on_c, 0, 79, 60
2, 38374, Note_on_c, 0, 79, 0
2, 38376, Note_on_c, 0, 76, 60
2, 38398, Note_on_c, 0, 76, 0
2, 38400, Note_on_c, 0, 77, 60
2, 38446, Note_on_c, 0, 77, 0
2, 38448, Note_on_c, 0, 79, 58
2, 38470, Note_on_c, 0, 79, 0
2, 38472, Note_on_c, 0, 76, 57
2, 38494, Note_on_c, 0, 76, 0
2, 38496, Note_on_c, 0, 77, 56
2, 38542, Note_on_c, 0, 77, 0
2, 38544, Note_on_c, 0, 79, 54
2, 38566, Note_on_c, 0, 79, 0
2, 38568, Note_on_c, 0, 76, 53
2, 38590, Note_on_c, 0, 76, 0
2, 38592, Note_on_c, 0, 77, 52
2, 38638, Note_on_c, 0, 77, 0
2, 38640, Note_on_c, 0, 79, 49
2, 38662, Note_on_c, 0, 79, 0
2, 38664, Note_on_c, 0, 76, 47
2, 38686, Note_on_c, 0, 76, 0
2, 38688, Note_on_c, 0, 77, 45
2, 38736, Note_on_c, 0, 77, 0
2, 38784, Note_on_c, 0, 77, 45
2, 38832, Note_on_c, 0, 77, 0
2, 38880, Note_on_c, 0, 77, 45
2, 38928, Note_on_c, 0, 77, 0
2, 38976, Note_on_c, 0, 73, 45
2, 38976, Note_on_c, 0, 77, 45
2, 39168, Note_on_c, 0, 73, 0
2, 39168, Note_on_c, 0, 77, 0
2, 39168, Note_on_c, 0, 68, 45
2, 39168, Note_on_c, 0, 75, 45
2, 39264, Note_on_c, 0, 68, 0
2, 39264, Note_on_c, 0, 75, 0
2, 39264, Note_on_c, 0, 65, 45
2, 39264, Note_on_c, 0, 73, 45
2, 39360, Note_on_c, 0, 65, 0
2, 39360, Note_on_c, 0, 73, 0
2, 39360, Note_on_c, 0, 65, 45
2, 39360, Note_on_c, 0, 73, 45
2, 39432, Note_on_c, 0, 65, 0
2, 39432, Note_on_c, 0, 73, 0
2, 39432, Note_on_c, 0, 68, 45
2, 39432, Note_on_c, 0, 75, 45
2, 39456, Note_on_c, 0, 68, 0
2, 39456, Note_on_c, 0, 75, 0
2, 39456, Note_on_c, 0, 65, 45
2, 39456, Note_on_c, 0, 73, 45
2, 39528, Note_on_c, 0, 65, 0
2, 39528, Note_on_c, 0, 73, 0
2, 39528, Note_on_c, 0, 68, 45
2, 39528, Note_on_c, 0, 75, 45
2, 39550, Note_on_c, 0, 68, 0
2, 39550, Note_on_c, 0, 75, 0
2, 39552, Note_on_c, 0, 73, 45
2, 39552, Note_on_c, 0, 77, 45
2, 39584, Note_on_c, 0, 73, 0
2, 39584, Note_on_c, 0, 77, 0
2, 39648, Note_on_c, 0, 73, 45
2, 39648, Note_on_c, 0, 77, 45
2, 39680, Note_on_c, 0, 73, 0
2, 39680, Note_on_c, 0, 77, 0
2, 39744, Note_on_c, 0, 68, 45
2, 39744, Note_on_c, 0, 75, 45
2, 39776, Note_on_c, 0, 68, 0
2, 39776, Note_on_c, 0, 75, 0
2, 39840, Note_on_c, 0, 65, 45
2, 39840, Note_on_c, 0, 73, 45
2, 40000, Note_on_c, 0, 65, 0
2, 40000, Note_on_c, 0, 73, 0
2, 40032, Note_on_c, 0, 61, 45
2, 40102, Note_on_c, 0, 61, 0
2, 40104, Note_on_c, 0, 60, 45
2, 40126, Note_on_c, 0, 60, 0
2, 40128, Note_on_c, 0, 60, 45
2, 40152, Note_on_c, 0, 60, 0
2, 40152, Note_on_c, 0, 53, 45
2, 40152, Note_on_c, 0, 59, 45
2, 40200, Note_on_c, 0, 53, 0
2, 40200, Note_on_c, 0, 59, 0
2, 40224, Note_on_c, 0, 53, 50
2, 40224, Note_on_c, 0, 59, 50
2, 40256, Note_on_c, 0, 53, 0
2, 40256, Note_on_c, 0, 59, 0
2, 40320, Note_on_c, 0, 53, 55
2, 40320, Note_on_c, 0, 59, 55
2, 40352, Note_on_c, 0, 53, 0
2, 40352, Note_on_c, 0, 59, 0
2, 40416, Note_on_c, 0, 52, 60
2, 40416, Note_on_c, 0, 60, 60
2, 40510, Note_on_c, 0, 52, 0
2, 40510, Note_on_c, 0, 60, 0
2, 40608, Note_on_c, 0, 72, 60
2, 40656, Note_on_c, 0, 62, 60
2, 40678, Note_on_c, 0, 72, 0
2, 40680, Note_on_c, 0, 74, 60
2, 40702, Note_on_c, 0, 62, 0
2, 40702, Note_on_c, 0, 74, 0
2, 40704, Note_on_c, 0, 62, 60
2, 40704, Note_on_c, 0, 72, 60
2, 40750, Note_on_c, 0, 62, 0
2, 40752, Note_on_c, 0, 67, 60
2, 40798, Note_on_c, 0, 72, 0
2, 40800, Note_on_c, 0, 70, 60
2, 40846, Note_on_c, 0, 67, 0
2, 40848, Note_on_c, 0, 60, 60
2, 40894, Note_on_c, 0, 70, 0
2, 40894, Note_on_c, 0, 60, 0
2, 40896, Note_on_c, 0, 60, 60
2, 40896, Note_on_c, 0, 69, 60
2, 40942, Note_on_c, 0, 60, 0
2, 40944, Note_on_c, 0, 58, 60
2, 40966, Note_on_c, 0, 69, 0
2, 40968, Note_on_c, 0, 70, 60
2, 40990, Note_on_c, 0, 58, 0
2, 40990, Note_on_c, 0, 70, 0
2, 40992, Note_on_c, 0, 58, 60
2, 40992, Note_on_c, 0, 69, 60
2, 41038, Note_on_c, 0, 58, 0
2, 41040, Note_on_c, 0, 64, 60
2, 41086, Note_on_c, 0, 69, 0
2, 41088, Note_on_c, 0, 67, 60
2, 41134, Note_on_c, 0, 64, 0
2, 41136, Note_on_c, 0, 57, 60
2, 41182, Note_on_c, 0, 67, 0
2, 41182, Note_on_c, 0, 57, 0
2, 41184, Note_on_c, 0, 57, 60
2, 41184, Note_on_c, 0, 65, 60
2, 41230, Note_on_c, 0, 57, 0
2, 41232, Note_on_c, 0, 62, 60
2, 41254, Note_on_c, 0, 65, 0
2, 41256, Note_on_c, 0, 66, 60
2, 41278, Note_on_c, 0, 62, 0
2, 41278, Note_on_c, 0, 66, 0
2, 41280, Note_on_c, 0, 62, 60
2, 41280, Note_on_c, 0, 67, 60
2, 41374, Note_on_c, 0, 67, 0
2, 41376, Note_on_c, 0, 67, 55
2, 41422, Note_on_c, 0, 62, 0
2, 41424, Note_on_c, 0, 62, 53
2, 41446, Note_on_c, 0, 67, 0
2, 41448, Note_on_c, 0, 69, 52
2, 41470, Note_on_c, 0, 62, 0
2, 41470, Note_on_c, 0, 69, 0
2, 41472, Note_on_c, 0, 72, 51
2, 41496, Note_on_c, 0, 72, 0
2, 41496, Note_on_c, 0, 62, 51
2, 41496, Note_on_c, 0, 70, 51
2, 41518, Note_on_c, 0, 62, 0
2, 41520, Note_on_c, 0, 62, 48
2, 41542, Note_on_c, 0, 70, 0
2, 41544, Note_on_c, 0, 67, 47
2, 41566, Note_on_c, 0, 62, 0
2, 41566, Note_on_c, 0, 67, 0
2, 41568, Note_on_c, 0, 57, 45
2, 41568, Note_on_c, 0, 60, 45
2, 41568, Note_on_c, 0, 65, 45
2, 41662, Note_on_c, 0, 57, 0
2, 41662, Note_on_c, 0, 60, 0
2, 41662, Note_on_c, 0, 65, 0
2, 41664, Note_on_c, 0, 55, 45
2, 41664, Note_on_c, 0, 60, 45
2, 41664, Note_on_c, 0, 64, 45
2, 41710, Note_on_c, 0, 55, 0
2, 41710, Note_on_c, 0, 60, 0
2, 41710, Note_on_c, 0, 64, 0
2, 41760, Note_on_c, 0, 72, 45
2, 41760, Note_on_c, 0, 84, 45
2, 41782, Note_on_c, 0, 72, 0
2, 41782, Note_on_c, 0, 84, 0
2, 41784, Note_on_c, 0, 71, 45
2, 41784, Note_on_c, 0, 83, 45
2, 41806, Note_on_c, 0, 71, 0
2, 41806, Note_on_c, 0, 83, 0
2, 41808, Note_on_c, 0, 72, 45
2, 41808, Note_on_c, 0, 84, 45
2, 41830, Note_on_c, 0, 72, 0
2, 41830, Note_on_c, 0, 84, 0
2, 41832, Note_on_c, 0, 74, 45
2, 41832, Note_on_c, 0, 86, 45
2, 41848, Note_on_c, 0, 74, 0
2, 41848, Note_on_c, 0, 86, 0
2, 41856, Note_on_c, 0, 72, 45
2, 41856, Note_on_c, 0, 84, 45
2, 41878, Note_on_c, 0, 72, 0
2, 41878, Note_on_c, 0, 84, 0
2, 41880, Note_on_c, 0, 70, 45
2, 41880, Note_on_c, 0, 82, 45
2, 41896, Note_on_c, 0, 70, 0
2, 41896, Note_on_c, 0, 82, 0
2, 41904, Note_on_c, 0, 70, 45
2, 41904, Note_on_c, 0, 82, 45
2, 41920, Note_on_c, 0, 70, 0
2, 41920, Note_on_c, 0, 82, 0
2, 41928, Note_on_c, 0, 70, 45
2, 41928, Note_on_c, 0, 82, 45
2, 41944, Note_on_c, 0, 70, 0
2, 41944, Note_on_c, 0, 82, 0
2, 41952, Note_on_c, 0, 70, 45
2, 41952, Note_on_c, 0, 82, 45
2, 41974, Note_on_c, 0, 70, 0
2, 41974, Note_on_c, 0, 82, 0
2, 41976, Note_on_c, 0, 70, 45
2, 41976, Note_on_c, 0, 82, 45
2, 41998, Note_on_c, 0, 70, 0
2, 41998, Note_on_c, 0, 82, 0
2, 42000, Note_on_c, 0, 70, 45
2, 42000, Note_on_c, 0, 82, 45
2, 42022, Note_on_c, 0, 70, 0
2, 42022, Note_on_c, 0, 82, 0
2, 42024, Note_on_c, 0, 70, 45
2, 42024, Note_on_c, 0, 82, 45
2, 42046, Note_on_c, 0, 70, 0
2, 42046, Note_on_c, 0, 82, 0
2, 42048, Note_on_c, 0, 69, 45
2, 42048, Note_on_c, 0, 81, 45
2, 42070, Note_on_c, 0, 69, 0
2, 42070, Note_on_c, 0, 81, 0
2, 42072, Note_on_c, 0, 68, 45
2, 42072, Note_on_c, 0, 80, 45
2, 42094, Note_on_c, 0, 68, 0
2, 42094, Note_on_c, 0, 80, 0
2, 42096, Note_on_c, 0, 69, 45
2, 42096, Note_on_c, 0, 81, 45
2, 42118, Note_on_c, 0, 69, 0
2, 42118, Note_on_c, 0, 81, 0
2, 42120, Note_on_c, 0, 70, 45
2, 42120, Note_on_c, 0, 82, 45
2, 42136, Note_on_c, 0, 70, 0
2, 42136, Note_on_c, 0, 82, 0
2, 42144, Note_on_c, 0, 69, 45
2, 42144, Note_on_c, 0, 81, 45
2, 42166, Note_on_c, 0, 69, 0
2, 42166, Note_on_c, 0, 81, 0
2, 42168, Note_on_c, 0, 67, 45
2, 42168, Note_on_c, 0, 79, 45
2, 42190, Note_on_c, 0, 67, 0
2, 42190, Note_on_c, 0, 79, 0
2, 42192, Note_on_c, 0, 67, 45
2, 42192, Note_on_c, 0, 79, 45
2, 42208, Note_on_c, 0, 67, 0
2, 42208, Note_on_c, 0, 79, 0
2, 42216, Note_on_c, 0, 67, 45
2, 42216, Note_on_c, 0, 79, 45
2, 42232, Note_on_c, 0, 67, 0
2, 42232, Note_on_c, 0, 79, 0
2, 42240, Note_on_c, 0, 67, 45
2, 42240, Note_on_c, 0, 79, 45
2, 42256, Note_on_c, 0, 67, 0
2, 42256, Note_on_c, 0, 79, 0
2, 42264, Note_on_c, 0, 67, 45
2, 42264, Note_on_c, 0, 79, 45
2, 42280, Note_on_c, 0, 67, 0
2, 42280, Note_on_c, 0, 79, 0
2, 42288, Note_on_c, 0, 67, 45
2, 42288, Note_on_c, 0, 79, 45
2, 42304, Note_on_c, 0, 67, 0
2, 42304, Note_on_c, 0, 79, 0
2, 42312, Note_on_c, 0, 67, 45
2, 42312, Note_on_c, 0, 79, 45
2, 42328, Note_on_c, 0, 67, 0
2, 42328, Note_on_c, 0, 79, 0
2, 42336, Note_on_c, 0, 67, 45
2, 42336, Note_on_c, 0, 79, 45
2, 42336, Note_on_c, 0, 65, 45
2, 42336, Note_on_c, 0, 77, 45
2, 42358, Note_on_c, 0, 67, 0
2, 42358, Note_on_c, 0, 79, 0
2, 42358, Note_on_c, 0, 65, 0
2, 42358, Note_on_c, 0, 77, 0
2, 42360, Note_on_c, 0, 64, 45
2, 42360, Note_on_c, 0, 76, 45
2, 42382, Note_on_c, 0, 64, 0
2, 42382, Note_on_c, 0, 76, 0
2, 42384, Note_on_c, 0, 65, 45
2, 42384, Note_on_c, 0, 77, 45
2, 42406, Note_on_c, 0, 65, 0
2, 42406, Note_on_c, 0, 77, 0
2, 42408, Note_on_c, 0, 67, 45
2, 42408, Note_on_c, 0, 79, 45
2, 42430, Note_on_c, 0, 67, 0
2, 42430, Note_on_c, 0, 79, 0
2, 42432, Note_on_c, 0, 68, 45
2, 42432, Note_on_c, 0, 80, 45
2, 42448, Note_on_c, 0, 68, 0
2, 42448, Note_on_c, 0, 80, 0
2, 42456, Note_on_c, 0, 69, 46
2, 42456, Note_on_c, 0, 81, 46
2, 42472, Note_on_c, 0, 69, 0
2, 42472, Note_on_c, 0, 81, 0
2, 42480, Note_on_c, 0, 69, 47
2, 42480, Note_on_c, 0, 81, 47
2, 42502, Note_on_c, 0, 69, 0
2, 42502, Note_on_c, 0, 81, 0
2, 42504, Note_on_c, 0, 69, 48
2, 42504, Note_on_c, 0, 81, 48
2, 42526, Note_on_c, 0, 69, 0
2, 42526, Note_on_c, 0, 81, 0
2, 42528, Note_on_c, 0, 68, 49
2, 42528, Note_on_c, 0, 80, 49
2, 42550, Note_on_c, 0, 68, 0
2, 42550, Note_on_c, 0, 80, 0
2, 42552, Note_on_c, 0, 69, 50
2, 42552, Note_on_c, 0, 81, 50
2, 42568, Note_on_c, 0, 69, 0
2, 42568, Note_on_c, 0, 81, 0
2, 42576, Note_on_c, 0, 69, 51
2, 42576, Note_on_c, 0, 81, 51
2, 42598, Note_on_c, 0, 69, 0
2, 42598, Note_on_c, 0, 81, 0
2, 42600, Note_on_c, 0, 69, 52
2, 42600, Note_on_c, 0, 81, 52
2, 42622, Note_on_c, 0, 69, 0
2, 42622, Note_on_c, 0, 81, 0
2, 42624, Note_on_c, 0, 69, 53
2, 42624, Note_on_c, 0, 81, 53
2, 42646, Note_on_c, 0, 69, 0
2, 42646, Note_on_c, 0, 81, 0
2, 42648, Note_on_c, 0, 70, 54
2, 42648, Note_on_c, 0, 82, 54
2, 42664, Note_on_c, 0, 70, 0
2, 42664, Note_on_c, 0, 82, 0
2, 42672, Note_on_c, 0, 70, 56
2, 42672, Note_on_c, 0, 82, 56
2, 42694, Note_on_c, 0, 70, 0
2, 42694, Note_on_c, 0, 82, 0
2, 42696, Note_on_c, 0, 67, 58
2, 42696, Note_on_c, 0, 79, 58
2, 42712, Note_on_c, 0, 67, 0
2, 42712, Note_on_c, 0, 79, 0
2, 42720, Note_on_c, 0, 65, 60
2, 42720, Note_on_c, 0, 77, 60
2, 42752, Note_on_c, 0, 65, 0
2, 42752, Note_on_c, 0, 77, 0
2, 43056, Note_on_c, 0, 77, 60
2, 43056, Note_on_c, 0, 89, 60
2, 43078, Note_on_c, 0, 77, 0
2, 43078, Note_on_c, 0, 89, 0
2, 43080, Note_on_c, 0, 76, 60
2, 43080, Note_on_c, 0, 88, 60
2, 43102, Note_on_c, 0, 76, 0
2, 43102, Note_on_c, 0, 88, 0
2, 43104, Note_on_c, 0, 77, 60
2, 43104, Note_on_c, 0, 89, 60
2, 43120, Note_on_c, 0, 77, 0
2, 43120, Note_on_c, 0, 89, 0
2, 43128, Note_on_c, 0, 76, 60
2, 43128, Note_on_c, 0, 88, 60
2, 43144, Note_on_c, 0, 76, 0
2, 43144, Note_on_c, 0, 88, 0
2, 43152, Note_on_c, 0, 74, 60
2, 43152, Note_on_c, 0, 86, 60
2, 43168, Note_on_c, 0, 74, 0
2, 43168, Note_on_c, 0, 86, 0
2, 43176, Note_on_c, 0, 72, 60
2, 43176, Note_on_c, 0, 84, 60
2, 43192, Note_on_c, 0, 72, 0
2, 43192, Note_on_c, 0, 84, 0
2, 43200, Note_on_c, 0, 70, 60
2, 43200, Note_on_c, 0, 82, 60
2, 43216, Note_on_c, 0, 70, 0
2, 43216, Note_on_c, 0, 82, 0
2, 43224, Note_on_c, 0, 69, 60
2, 43224, Note_on_c, 0, 81, 60
2, 43240, Note_on_c, 0, 69, 0
2, 43240, Note_on_c, 0, 81, 0
2, 43248, Note_on_c, 0, 67, 60
2, 43248, Note_on_c, 0, 79, 60
2, 43264, Note_on_c, 0, 67, 0
2, 43264, Note_on_c, 0, 79, 0
2, 43272, Note_on_c, 0, 65, 60
2, 43272, Note_on_c, 0, 77, 60
2, 43288, Note_on_c, 0, 65, 0
2, 43288, Note_on_c, 0, 77, 0
2, 43296, Note_on_c, 0, 64, 60
2, 43296, Note_on_c, 0, 76, 60
2, 43312, Note_on_c, 0, 64, 0
2, 43312, Note_on_c, 0, 76, 0
2, 43320, Note_on_c, 0, 65, 60
2, 43320, Note_on_c, 0, 77, 60
2, 43336, Note_on_c, 0, 65, 0
2, 43336, Note_on_c, 0, 77, 0
2, 43344, Note_on_c, 0, 67, 60
2, 43344, Note_on_c, 0, 79, 60
2, 43360, Note_on_c, 0, 67, 0
2, 43360, Note_on_c, 0, 79, 0
2, 43368, Note_on_c, 0, 69, 60
2, 43368, Note_on_c, 0, 81, 60
2, 43384, Note_on_c, 0, 69, 0
2, 43384, Note_on_c, 0, 81, 0
2, 43392, Note_on_c, 0, 70, 60
2, 43392, Note_on_c, 0, 82, 60
2, 43552, Note_on_c, 0, 70, 0
2, 43552, Note_on_c, 0, 82, 0
2, 43632, Note_on_c, 0, 70, 60
2, 43632, Note_on_c, 0, 82, 60
2, 43654, Note_on_c, 0, 70, 0
2, 43654, Note_on_c, 0, 82, 0
2, 43656, Note_on_c, 0, 69, 60
2, 43656, Note_on_c, 0, 81, 60
2, 43678, Note_on_c, 0, 69, 0
2, 43678, Note_on_c, 0, 81, 0
2, 43680, Note_on_c, 0, 70, 60
2, 43680, Note_on_c, 0, 82, 60
2, 43696, Note_on_c, 0, 70, 0
2, 43696, Note_on_c, 0, 82, 0
2, 43704, Note_on_c, 0, 69, 60
2, 43704, Note_on_c, 0, 81, 60
2, 43720, Note_on_c, 0, 69, 0
2, 43720, Note_on_c, 0, 81, 0
2, 43728, Note_on_c, 0, 67, 60
2, 43728, Note_on_c, 0, 79, 60
2, 43744, Note_on_c, 0, 67, 0
2, 43744, Note_on_c, 0, 79, 0
2, 43752, Note_on_c, 0, 65, 60
2, 43752, Note_on_c, 0, 77, 60
2, 43768, Note_on_c, 0, 65, 0
2, 43768, Note_on_c, 0, 77, 0
2, 43776, Note_on_c, 0, 64, 60
2, 43776, Note_on_c, 0, 76, 60
2, 43792, Note_on_c, 0, 64, 0
2, 43792, Note_on_c, 0, 76, 0
2, 43800, Note_on_c, 0, 62, 60
2, 43800, Note_on_c, 0, 74, 60
2, 43816, Note_on_c, 0, 62, 0
2, 43816, Note_on_c, 0, 74, 0
2, 43824, Note_on_c, 0, 60, 60
2, 43824, Note_on_c, 0, 72, 60
2, 43840, Note_on_c, 0, 60, 0
2, 43840, Note_on_c, 0, 72, 0
2, 43848, Note_on_c, 0, 58, 60
2, 43848, Note_on_c, 0, 70, 60
2, 43864, Note_on_c, 0, 58, 0
2, 43864, Note_on_c, 0, 70, 0
2, 43872, Note_on_c, 0, 57, 60
2, 43872, Note_on_c, 0, 69, 60
2, 43888, Note_on_c, 0, 57, 0
2, 43888, Note_on_c, 0, 69, 0
2, 43896, Note_on_c, 0, 58, 60
2, 43896, Note_on_c, 0, 70, 60
2, 43912, Note_on_c, 0, 58, 0
2, 43912, Note_on_c, 0, 70, 0
2, 43920, Note_on_c, 0, 60, 60
2, 43920, Note_on_c, 0, 72, 60
2, 43936, Note_on_c, 0, 60, 0
2, 43936, Note_on_c, 0, 72, 0
2, 43944, Note_on_c, 0, 62, 60
2, 43944, Note_on_c, 0, 74, 60
2, 43960, Note_on_c, 0, 62, 0
2, 43960, Note_on_c, 0, 74, 0
2, 43968, Note_on_c, 0, 63, 60
2, 43968, Note_on_c, 0, 75, 60
2, 44128, Note_on_c, 0, 63, 0
2, 44128, Note_on_c, 0, 75, 0
2, 44208, Note_on_c, 0, 75, 60
2, 44208, Note_on_c, 0, 87, 60
2, 44230, Note_on_c, 0, 75, 0
2, 44230, Note_on_c, 0, 87, 0
2, 44232, Note_on_c, 0, 74, 60
2, 44232, Note_on_c, 0, 86, 60
2, 44254, Note_on_c, 0, 74, 0
2, 44254, Note_on_c, 0, 86, 0
2, 44256, Note_on_c, 0, 75, 60
2, 44256, Note_on_c, 0, 87, 60
2, 44272, Note_on_c, 0, 75, 0
2, 44272, Note_on_c, 0, 87, 0
2, 44280, Note_on_c, 0, 74, 60
2, 44280, Note_on_c, 0, 86, 60
2, 44296, Note_on_c, 0, 74, 0
2, 44296, Note_on_c, 0, 86, 0
2, 44304, Note_on_c, 0, 72, 60
2, 44304, Note_on_c, 0, 84, 60
2, 44320, Note_on_c, 0, 72, 0
2, 44320, Note_on_c, 0, 84, 0
2, 44328, Note_on_c, 0, 70, 60
2, 44328, Note_on_c, 0, 82, 60
2, 44344, Note_on_c, 0, 70, 0
2, 44344, Note_on_c, 0, 82, 0
2, 44352, Note_on_c, 0, 69, 60
2, 44352, Note_on_c, 0, 81, 60
2, 44368, Note_on_c, 0, 69, 0
2, 44368, Note_on_c, 0, 81, 0
2, 44376, Note_on_c, 0, 67, 60
2, 44376, Note_on_c, 0, 79, 60
2, 44392, Note_on_c, 0, 67, 0
2, 44392, Note_on_c, 0, 79, 0
2, 44400, Note_on_c, 0, 65, 60
2, 44400, Note_on_c, 0, 77, 60
2, 44416, Note_on_c, 0, 65, 0
2, 44416, Note_on_c, 0, 77, 0
2, 44424, Note_on_c, 0, 63, 60
2, 44424, Note_on_c, 0, 75, 60
2, 44440, Note_on_c, 0, 63, 0
2, 44440, Note_on_c, 0, 75, 0
2, 44448, Note_on_c, 0, 62, 60
2, 44448, Note_on_c, 0, 74, 60
2, 44480, Note_on_c, 0, 62, 0
2, 44480, Note_on_c, 0, 74, 0
2, 44496, Note_on_c, 0, 62, 60
2, 44496, Note_on_c, 0, 66, 60
2, 44496, Note_on_c, 0, 69, 60
2, 44496, Note_on_c, 0, 74, 60
2, 44528, Note_on_c, 0, 62, 0
2, 44528, Note_on_c, 0, 66, 0
2, 44528, Note_on_c, 0, 69, 0
2, 44528, Note_on_c, 0, 74, 0
2, 44544, Note_on_c, 0, 62, 60
2, 44544, Note_on_c, 0, 66, 60
2, 44544, Note_on_c, 0, 69, 60
2, 44544, Note_on_c, 0, 74, 60
2, 44576, Note_on_c, 0, 62, 0
2, 44576, Note_on_c, 0, 66, 0
2, 44576, Note_on_c, 0, 69, 0
2, 44576, Note_on_c, 0, 74, 0
2, 44592, Note_on_c, 0, 62, 60
2, 44592, Note_on_c, 0, 66, 60
2, 44592, Note_on_c, 0, 69, 60
2, 44592, Note_on_c, 0, 74, 60
2, 44624, Note_on_c, 0, 62, 0
2, 44624, Note_on_c, 0, 66, 0
2, 44624, Note_on_c, 0, 69, 0
2, 44624, Note_on_c, 0, 74, 0
2, 44640, Note_on_c, 0, 62, 60
2, 44640, Note_on_c, 0, 66, 60
2, 44640, Note_on_c, 0, 69, 60
2, 44640, Note_on_c, 0, 74, 60
2, 44672, Note_on_c, 0, 62, 0
2, 44672, Note_on_c, 0, 66, 0
2, 44672, Note_on_c, 0, 69, 0
2, 44672, Note_on_c, 0, 74, 0
2, 44688, Note_on_c, 0, 62, 60
2, 44688, Note_on_c, 0, 66, 60
2, 44688, Note_on_c, 0, 69, 60
2, 44688, Note_on_c, 0, 74, 60
2, 44720, Note_on_c, 0, 62, 0
2, 44720, Note_on_c, 0, 66, 0
2, 44720, Note_on_c, 0, 69, 0
2, 44720, Note_on_c, 0, 74, 0
2, 44784, Note_on_c, 0, 67, 60
2, 44784, Note_on_c, 0, 71, 60
2, 44784, Note_on_c, 0, 74, 60
2, 44784, Note_on_c, 0, 79, 60
2, 44816, Note_on_c, 0, 67, 0
2, 44816, Note_on_c, 0, 71, 0
2, 44816, Note_on_c, 0, 74, 0
2, 44816, Note_on_c, 0, 79, 0
2, 44832, Note_on_c, 0, 67, 60
2, 44832, Note_on_c, 0, 71, 60
2, 44832, Note_on_c, 0, 74, 60
2, 44832, Note_on_c, 0, 79, 60
2, 44864, Note_on_c, 0, 67, 0
2, 44864, Note_on_c, 0, 71, 0
2, 44864, Note_on_c, 0, 74, 0
2, 44864, Note_on_c, 0, 79, 0
2, 44880, Note_on_c, 0, 67, 60
2, 44880, Note_on_c, 0, 71, 60
2, 44880, Note_on_c, 0, 74, 60
2, 44880, Note_on_c, 0, 79, 60
2, 44912, Note_on_c, 0, 67, 0
2, 44912, Note_on_c, 0, 71, 0
2, 44912, Note_on_c, 0, 74, 0
2, 44912, Note_on_c, 0, 79, 0
2, 44928, Note_on_c, 0, 67, 60
2, 44928, Note_on_c, 0, 71, 60
2, 44928, Note_on_c, 0, 74, 60
2, 44928, Note_on_c, 0, 79, 60
2, 44960, Note_on_c, 0, 67, 0
2, 44960, Note_on_c, 0, 71, 0
2, 44960, Note_on_c, 0, 74, 0
2, 44960, Note_on_c, 0, 79, 0
2, 44976, Note_on_c, 0, 67, 60
2, 44976, Note_on_c, 0, 71, 60
2, 44976, Note_on_c, 0, 74, 60
2, 44976, Note_on_c, 0, 79, 60
2, 45008, Note_on_c, 0, 67, 0
2, 45008, Note_on_c, 0, 71, 0
2, 45008, Note_on_c, 0, 74, 0
2, 45008, Note_on_c, 0, 79, 0
2, 45072, Note_on_c, 0, 60, 60
2, 45072, Note_on_c, 0, 64, 60
2, 45072, Note_on_c, 0, 67, 60
2, 45072, Note_on_c, 0, 72, 60
2, 45104, Note_on_c, 0, 60, 0
2, 45104, Note_on_c, 0, 64, 0
2, 45104, Note_on_c, 0, 67, 0
2, 45104, Note_on_c, 0, 72, 0
2, 45120, Note_on_c, 0, 60, 60
2, 45120, Note_on_c, 0, 64, 60
2, 45120, Note_on_c, 0, 67, 60
2, 45120, Note_on_c, 0, 72, 60
2, 45152, Note_on_c, 0, 60, 0
2, 45152, Note_on_c, 0, 64, 0
2, 45152, Note_on_c, 0, 67, 0
2, 45152, Note_on_c, 0, 72, 0
2, 45168, Note_on_c, 0, 60, 60
2, 45168, Note_on_c, 0, 64, 60
2, 45168, Note_on_c, 0, 67, 60
2, 45168, Note_on_c, 0, 72, 60
2, 45200, Note_on_c, 0, 60, 0
2, 45200, Note_on_c, 0, 64, 0
2, 45200, Note_on_c, 0, 67, 0
2, 45200, Note_on_c, 0, 72, 0
2, 45216, Note_on_c, 0, 60, 60
2, 45216, Note_on_c, 0, 64, 60
2, 45216, Note_on_c, 0, 67, 60
2, 45216, Note_on_c, 0, 72, 60
2, 45248, Note_on_c, 0, 60, 0
2, 45248, Note_on_c, 0, 64, 0
2, 45248, Note_on_c, 0, 67, 0
2, 45248, Note_on_c, 0, 72, 0
2, 45264, Note_on_c, 0, 60, 60
2, 45264, Note_on_c, 0, 64, 60
2, 45264, Note_on_c, 0, 67, 60
2, 45264, Note_on_c, 0, 72, 60
2, 45296, Note_on_c, 0, 60, 0
2, 45296, Note_on_c, 0, 64, 0
2, 45296, Note_on_c, 0, 67, 0
2, 45296, Note_on_c, 0, 72, 0
2, 45360, Note_on_c, 0, 65, 60
2, 45360, Note_on_c, 0, 69, 60
2, 45360, Note_on_c, 0, 72, 60
2, 45360, Note_on_c, 0, 77, 60
2, 45392, Note_on_c, 0, 65, 0
2, 45392, Note_on_c, 0, 69, 0
2, 45392, Note_on_c, 0, 72, 0
2, 45392, Note_on_c, 0, 77, 0
2, 45408, Note_on_c, 0, 65, 60
2, 45408, Note_on_c, 0, 69, 60
2, 45408, Note_on_c, 0, 72, 60
2, 45408, Note_on_c, 0, 77, 60
2, 45440, Note_on_c, 0, 65, 0
2, 45440, Note_on_c, 0, 69, 0
2, 45440, Note_on_c, 0, 72, 0
2, 45440, Note_on_c, 0, 77, 0
2, 45456, Note_on_c, 0, 65, 60
2, 45456, Note_on_c, 0, 69, 60
2, 45456, Note_on_c, 0, 72, 60
2, 45456, Note_on_c, 0, 77, 60
2, 45488, Note_on_c, 0, 65, 0
2, 45488, Note_on_c, 0, 69, 0
2, 45488, Note_on_c, 0, 72, 0
2, 45488, Note_on_c, 0, 77, 0
2, 45504, Note_on_c, 0, 65, 60
2, 45504, Note_on_c, 0, 69, 60
2, 45504, Note_on_c, 0, 72, 60
2, 45504, Note_on_c, 0, 77, 60
2, 45536, Note_on_c, 0, 65, 0
2, 45536, Note_on_c, 0, 69, 0
2, 45536, Note_on_c, 0, 72, 0
2, 45536, Note_on_c, 0, 77, 0
2, 45552, Note_on_c, 0, 65, 60
2, 45552, Note_on_c, 0, 69, 60
2, 45552, Note_on_c, 0, 72, 60
2, 45552, Note_on_c, 0, 77, 60
2, 45584, Note_on_c, 0, 65, 0
2, 45584, Note_on_c, 0, 69, 0
2, 45584, Note_on_c, 0, 72, 0
2, 45584, Note_on_c, 0, 77, 0
2, 45600, Note_on_c, 0, 65, 60
2, 45600, Note_on_c, 0, 70, 60
2, 45600, Note_on_c, 0, 74, 60
2, 45600, Note_on_c, 0, 77, 60
2, 45616, Note_on_c, 0, 65, 0
2, 45616, Note_on_c, 0, 70, 0
2, 45616, Note_on_c, 0, 74, 0
2, 45616, Note_on_c, 0, 77, 0
2, 45624, Note_on_c, 0, 77, 60
2, 45624, Note_on_c, 0, 89, 60
2, 45640, Note_on_c, 0, 77, 0
2, 45640, Note_on_c, 0, 89, 0
2, 45648, Note_on_c, 0, 75, 60
2, 45648, Note_on_c, 0, 87, 60
2, 45664, Note_on_c, 0, 75, 0
2, 45664, Note_on_c, 0, 87, 0
2, 45672, Note_on_c, 0, 74, 60
2, 45672, Note_on_c, 0, 86, 60
2, 45688, Note_on_c, 0, 74, 0
2, 45688, Note_on_c, 0, 86, 0
2, 45696, Note_on_c, 0, 72, 60
2, 45696, Note_on_c, 0, 84, 60
2, 45712, Note_on_c, 0, 72, 0
2, 45712, Note_on_c, 0, 84, 0
2, 45720, Note_on_c, 0, 70, 60
2, 45720, Note_on_c, 0, 82, 60
2, 45736, Note_on_c, 0, 70, 0
2, 45736, Note_on_c, 0, 82, 0
2, 45744, Note_on_c, 0, 69, 60
2, 45744, Note_on_c, 0, 81, 60
2, 45760, Note_on_c, 0, 69, 0
2, 45760, Note_on_c, 0, 81, 0
2, 45768, Note_on_c, 0, 70, 60
2, 45768, Note_on_c, 0, 82, 60
2, 45784, Note_on_c, 0, 70, 0
2, 45784, Note_on_c, 0, 82, 0
2, 45792, Note_on_c, 0, 72, 84
2, 45792, Note_on_c, 0, 84, 84
2, 45808, Note_on_c, 0, 72, 0
2, 45808, Note_on_c, 0, 84, 0
2, 45816, Note_on_c, 0, 65, 84
2, 45816, Note_on_c, 0, 77, 84
2, 45832, Note_on_c, 0, 65, 0
2, 45832, Note_on_c, 0, 77, 0
2, 45840, Note_on_c, 0, 67, 60
2, 45840, Note_on_c, 0, 79, 60
2, 45856, Note_on_c, 0, 67, 0
2, 45856, Note_on_c, 0, 79, 0
2, 45864, Note_on_c, 0, 69, 60
2, 45864, Note_on_c, 0, 81, 60
2, 45880, Note_on_c, 0, 69, 0
2, 45880, Note_on_c, 0, 81, 0
2, 45888, Note_on_c, 0, 70, 60
2, 45888, Note_on_c, 0, 82, 60
2, 45904, Note_on_c, 0, 70, 0
2, 45904, Note_on_c, 0, 82, 0
2, 45912, Note_on_c, 0, 77, 60
2, 45912, Note_on_c, 0, 89, 60
2, 45928, Note_on_c, 0, 77, 0
2, 45928, Note_on_c, 0, 89, 0
2, 45936, Note_on_c, 0, 75, 60
2, 45936, Note_on_c, 0, 87, 60
2, 45952, Note_on_c, 0, 75, 0
2, 45952, Note_on_c, 0, 87, 0
2, 45960, Note_on_c, 0, 74, 60
2, 45960, Note_on_c, 0, 86, 60
2, 45976, Note_on_c, 0, 74, 0
2, 45976, Note_on_c, 0, 86, 0
2, 45984, Note_on_c, 0, 72, 60
2, 45984, Note_on_c, 0, 84, 60
2, 46000, Note_on_c, 0, 72, 0
2, 46000, Note_on_c, 0, 84, 0
2, 46008, Note_on_c, 0, 70, 60
2, 46008, Note_on_c, 0, 82, 60
2, 46024, Note_on_c, 0, 70, 0
2, 46024, Note_on_c, 0, 82, 0
2, 46032, Note_on_c, 0, 69, 60
2, 46032, Note_on_c, 0, 81, 60
2, 46048, Note_on_c, 0, 69, 0
2, 46048, Note_on_c, 0, 81, 0
2, 46056, Note_on_c, 0, 70, 60
2, 46056, Note_on_c, 0, 82, 60
2, 46072, Note_on_c, 0, 70, 0
2, 46072, Note_on_c, 0, 82, 0
2, 46080, Note_on_c, 0, 72, 84
2, 46080, Note_on_c, 0, 84, 84
2, 46096, Note_on_c, 0, 72, 0
2, 46096, Note_on_c, 0, 84, 0
2, 46104, Note_on_c, 0, 65, 84
2, 46104, Note_on_c, 0, 77, 84
2, 46120, Note_on_c, 0, 65, 0
2, 46120, Note_on_c, 0, 77, 0
2, 46128, Note_on_c, 0, 67, 60
2, 46128, Note_on_c, 0, 79, 60
2, 46144, Note_on_c, 0, 67, 0
2, 46144, Note_on_c, 0, 79, 0
2, 46152, Note_on_c, 0, 69, 60
2, 46152, Note_on_c, 0, 81, 60
2, 46168, Note_on_c, 0, 69, 0
2, 46168, Note_on_c, 0, 81, 0
2, 46176, Note_on_c, 0, 70, 60
2, 46176, Note_on_c, 0, 82, 60
2, 46192, Note_on_c, 0, 70, 0
2, 46192, Note_on_c, 0, 82, 0
2, 46200, Note_on_c, 0, 69, 60
2, 46200, Note_on_c, 0, 81, 60
2, 46216, Note_on_c, 0, 69, 0
2, 46216, Note_on_c, 0, 81, 0
2, 46224, Note_on_c, 0, 70, 60
2, 46224, Note_on_c, 0, 82, 60
2, 46240, Note_on_c, 0, 70, 0
2, 46240, Note_on_c, 0, 82, 0
2, 46248, Note_on_c, 0, 72, 60
2, 46248, Note_on_c, 0, 84, 60
2, 46264, Note_on_c, 0, 72, 0
2, 46264, Note_on_c, 0, 84, 0
2, 46272, Note_on_c, 0, 74, 60
2, 46272, Note_on_c, 0, 86, 60
2, 46288, Note_on_c, 0, 74, 0
2, 46288, Note_on_c, 0, 86, 0
2, 46296, Note_on_c, 0, 62, 60
2, 46296, Note_on_c, 0, 74, 60
2, 46312, Note_on_c, 0, 62, 0
2, 46312, Note_on_c, 0, 74, 0
2, 46320, Note_on_c, 0, 64, 60
2, 46320, Note_on_c, 0, 76, 60
2, 46336, Note_on_c, 0, 64, 0
2, 46336, Note_on_c, 0, 76, 0
2, 46344, Note_on_c, 0, 66, 60
2, 46344, Note_on_c, 0, 78, 60
2, 46360, Note_on_c, 0, 66, 0
2, 46360, Note_on_c, 0, 78, 0
2, 46368, Note_on_c, 0, 67, 60
2, 46368, Note_on_c, 0, 79, 60
2, 46384, Note_on_c, 0, 67, 0
2, 46384, Note_on_c, 0, 79, 0
2, 46392, Note_on_c, 0, 66, 60
2, 46392, Note_on_c, 0, 78, 60
2, 46408, Note_on_c, 0, 66, 0
2, 46408, Note_on_c, 0, 78, 0
2, 46416, Note_on_c, 0, 67, 60
2, 46416, Note_on_c, 0, 79, 60
2, 46432, Note_on_c, 0, 67, 0
2, 46432, Note_on_c, 0, 79, 0
2, 46440, Note_on_c, 0, 69, 60
2, 46440, Note_on_c, 0, 81, 60
2, 46456, Note_on_c, 0, 69, 0
2, 46456, Note_on_c, 0, 81, 0
2, 46464, Note_on_c, 0, 65, 60
2, 46464, Note_on_c, 0, 77, 60
2, 46480, Note_on_c, 0, 65, 0
2, 46480, Note_on_c, 0, 77, 0
2, 46488, Note_on_c, 0, 64, 60
2, 46488, Note_on_c, 0, 76, 60
2, 46504, Note_on_c, 0, 64, 0
2, 46504, Note_on_c, 0, 76, 0
2, 46512, Note_on_c, 0, 65, 60
2, 46512, Note_on_c, 0, 77, 60
2, 46528, Note_on_c, 0, 65, 0
2, 46528, Note_on_c, 0, 77, 0
2, 46536, Note_on_c, 0, 67, 60
2, 46536, Note_on_c, 0, 79, 60
2, 46552, Note_on_c, 0, 67, 0
2, 46552, Note_on_c, 0, 79, 0
2, 46560, Note_on_c, 0, 64, 60
2, 46560, Note_on_c, 0, 76, 60
2, 46576, Note_on_c, 0, 64, 0
2, 46576, Note_on_c, 0, 76, 0
2, 46584, Note_on_c, 0, 63, 60
2, 46584, Note_on_c, 0, 75, 60
2, 46600, Note_on_c, 0, 63, 0
2, 46600, Note_on_c, 0, 75, 0
2, 46608, Note_on_c, 0, 64, 60
2, 46608, Note_on_c, 0, 76, 60
2, 46624, Note_on_c, 0, 64, 0
2, 46624, Note_on_c, 0, 76, 0
2, 46632, Note_on_c, 0, 65, 60
2, 46632, Note_on_c, 0, 77, 60
2, 46648, Note_on_c, 0, 65, 0
2, 46648, Note_on_c, 0, 77, 0
2, 46656, Note_on_c, 0, 62, 60
2, 46656, Note_on_c, 0, 74, 60
2, 46672, Note_on_c, 0, 62, 0
2, 46672, Note_on_c, 0, 74, 0
2, 46680, Note_on_c, 0, 61, 60
2, 46680, Note_on_c, 0, 73, 60
2, 46696, Note_on_c, 0, 61, 0
2, 46696, Note_on_c, 0, 73, 0
2, 46704, Note_on_c, 0, 62, 60
2, 46704, Note_on_c, 0, 74, 60
2, 46720, Note_on_c, 0, 62, 0
2, 46720, Note_on_c, 0, 74, 0
2, 46728, Note_on_c, 0, 64, 60
2, 46728, Note_on_c, 0, 76, 60
2, 46744, Note_on_c, 0, 64, 0
2, 46744, Note_on_c, 0, 76, 0
2, 46752, Note_on_c, 0, 60, 60
2, 46752, Note_on_c, 0, 72, 60
2, 46768, Note_on_c, 0, 60, 0
2, 46768, Note_on_c, 0, 72, 0
2, 46776, Note_on_c, 0, 67, 60
2, 46776, Note_on_c, 0, 79, 60
2, 46792, Note_on_c, 0, 67, 0
2, 46792, Note_on_c, 0, 79, 0
2, 46800, Note_on_c, 0, 65, 60
2, 46800, Note_on_c, 0, 77, 60
2, 46816, Note_on_c, 0, 65, 0
2, 46816, Note_on_c, 0, 77, 0
2, 46824, Note_on_c, 0, 64, 60
2, 46824, Note_on_c, 0, 76, 60
2, 46840, Note_on_c, 0, 64, 0
2, 46840, Note_on_c, 0, 76, 0
2, 46848, Note_on_c, 0, 62, 60
2, 46848, Note_on_c, 0, 74, 60
2, 46864, Note_on_c, 0, 62, 0
2, 46864, Note_on_c, 0, 74, 0
2, 46872, Note_on_c, 0, 60, 60
2, 46872, Note_on_c, 0, 72, 60
2, 46888, Note_on_c, 0, 60, 0
2, 46888, Note_on_c, 0, 72, 0
2, 46896, Note_on_c, 0, 59, 60
2, 46896, Note_on_c, 0, 71, 60
2, 46912, Note_on_c, 0, 59, 0
2, 46912, Note_on_c, 0, 71, 0
2, 46920, Note_on_c, 0, 60, 60
2, 46920, Note_on_c, 0, 72, 60
2, 46936, Note_on_c, 0, 60, 0
2, 46936, Note_on_c, 0, 72, 0
2, 46944, Note_on_c, 0, 62, 84
2, 46944, Note_on_c, 0, 74, 84
2, 46960, Note_on_c, 0, 62, 0
2, 46960, Note_on_c, 0, 74, 0
2, 46968, Note_on_c, 0, 55, 84
2, 46968, Note_on_c, 0, 67, 84
2, 46984, Note_on_c, 0, 55, 0
2, 46984, Note_on_c, 0, 67, 0
2, 46992, Note_on_c, 0, 57, 60
2, 46992, Note_on_c, 0, 69, 60
2, 47008, Note_on_c, 0, 57, 0
2, 47008, Note_on_c, 0, 69, 0
2, 47016, Note_on_c, 0, 59, 60
2, 47016, Note_on_c, 0, 71, 60
2, 47032, Note_on_c, 0, 59, 0
2, 47032, Note_on_c, 0, 71, 0
2, 47040, Note_on_c, 0, 60, 60
2, 47040, Note_on_c, 0, 72, 60
2, 47056, Note_on_c, 0, 60, 0
2, 47056, Note_on_c, 0, 72, 0
2, 47064, Note_on_c, 0, 67, 60
2, 47064, Note_on_c, 0, 79, 60
2, 47080, Note_on_c, 0, 67, 0
2, 47080, Note_on_c, 0, 79, 0
2, 47088, Note_on_c, 0, 65, 60
2, 47088, Note_on_c, 0, 77, 60
2, 47104, Note_on_c, 0, 65, 0
2, 47104, Note_on_c, 0, 77, 0
2, 47112, Note_on_c, 0, 64, 60
2, 47112, Note_on_c, 0, 76, 60
2, 47128, Note_on_c, 0, 64, 0
2, 47128, Note_on_c, 0, 76, 0
2, 47136, Note_on_c, 0, 62, 60
2, 47136, Note_on_c, 0, 74, 60
2, 47152, Note_on_c, 0, 62, 0
2, 47152, Note_on_c, 0, 74, 0
2, 47160, Note_on_c, 0, 60, 60
2, 47160, Note_on_c, 0, 72, 60
2, 47176, Note_on_c, 0, 60, 0
2, 47176, Note_on_c, 0, 72, 0
2, 47184, Note_on_c, 0, 59, 60
2, 47184, Note_on_c, 0, 71, 60
2, 47200, Note_on_c, 0, 59, 0
2, 47200, Note_on_c, 0, 71, 0
2, 47208, Note_on_c, 0, 60, 60
2, 47208, Note_on_c, 0, 72, 60
2, 47224, Note_on_c, 0, 60, 0
2, 47224, Note_on_c, 0, 72, 0
2, 47232, Note_on_c, 0, 62, 84
2, 47232, Note_on_c, 0, 74, 84
2, 47248, Note_on_c, 0, 62, 0
2, 47248, Note_on_c, 0, 74, 0
2, 47256, Note_on_c, 0, 55, 84
2, 47256, Note_on_c, 0, 67, 84
2, 47272, Note_on_c, 0, 55, 0
2, 47272, Note_on_c, 0, 67, 0
2, 47280, Note_on_c, 0, 57, 60
2, 47280, Note_on_c, 0, 69, 60
2, 47296, Note_on_c, 0, 57, 0
2, 47296, Note_on_c, 0, 69, 0
2, 47304, Note_on_c, 0, 59, 60
2, 47304, Note_on_c, 0, 71, 60
2, 47320, Note_on_c, 0, 59, 0
2, 47320, Note_on_c, 0, 71, 0
2, 47328, Note_on_c, 0, 60, 60
2, 47328, Note_on_c, 0, 72, 60
2, 47344, Note_on_c, 0, 60, 0
2, 47344, Note_on_c, 0, 72, 0
2, 47352, Note_on_c, 0, 59, 60
2, 47352, Note_on_c, 0, 71, 60
2, 47368, Note_on_c, 0, 59, 0
2, 47368, Note_on_c, 0, 71, 0
2, 47376, Note_on_c, 0, 60, 60
2, 47376, Note_on_c, 0, 72, 60
2, 47392, Note_on_c, 0, 60, 0
2, 47392, Note_on_c, 0, 72, 0
2, 47400, Note_on_c, 0, 64, 60
2, 47400, Note_on_c, 0, 76, 60
2, 47416, Note_on_c, 0, 64, 0
2, 47416, Note_on_c, 0, 76, 0
2, 47424, Note_on_c, 0, 62, 60
2, 47424, Note_on_c, 0, 74, 60
2, 47440, Note_on_c, 0, 62, 0
2, 47440, Note_on_c, 0, 74, 0
2, 47448, Note_on_c, 0, 61, 60
2, 47448, Note_on_c, 0, 73, 60
2, 47464, Note_on_c, 0, 61, 0
2, 47464, Note_on_c, 0, 73, 0
2, 47472, Note_on_c, 0, 62, 60
2, 47472, Note_on_c, 0, 74, 60
2, 47488, Note_on_c, 0, 62, 0
2, 47488, Note_on_c, 0, 74, 0
2, 47496, Note_on_c, 0, 65, 60
2, 47496, Note_on_c, 0, 77, 60
2, 47512, Note_on_c, 0, 65, 0
2, 47512, Note_on_c, 0, 77, 0
2, 47520, Note_on_c, 0, 64, 60
2, 47520, Note_on_c, 0, 76, 60
2, 47536, Note_on_c, 0, 64, 0
2, 47536, Note_on_c, 0, 76, 0
2, 47544, Note_on_c, 0, 63, 60
2, 47544, Note_on_c, 0, 75, 60
2, 47560, Note_on_c, 0, 63, 0
2, 47560, Note_on_c, 0, 75, 0
2, 47568, Note_on_c, 0, 64, 60
2, 47568, Note_on_c, 0, 76, 60
2, 47584, Note_on_c, 0, 64, 0
2, 47584, Note_on_c, 0, 76, 0
2, 47592, Note_on_c, 0, 72, 60
2, 47592, Note_on_c, 0, 84, 60
2, 47608, Note_on_c, 0, 72, 0
2, 47608, Note_on_c, 0, 84, 0
2, 47616, Note_on_c, 0, 65, 60
2, 47616, Note_on_c, 0, 77, 60
2, 47632, Note_on_c, 0, 65, 0
2, 47632, Note_on_c, 0, 77, 0
2, 47640, Note_on_c, 0, 64, 60
2, 47640, Note_on_c, 0, 76, 60
2, 47656, Note_on_c, 0, 64, 0
2, 47656, Note_on_c, 0, 76, 0
2, 47664, Note_on_c, 0, 65, 60
2, 47664, Note_on_c, 0, 77, 60
2, 47680, Note_on_c, 0, 65, 0
2, 47680, Note_on_c, 0, 77, 0
2, 47688, Note_on_c, 0, 72, 60
2, 47688, Note_on_c, 0, 84, 60
2, 47704, Note_on_c, 0, 72, 0
2, 47704, Note_on_c, 0, 84, 0
2, 47712, Note_on_c, 0, 67, 60
2, 47712, Note_on_c, 0, 79, 60
2, 47728, Note_on_c, 0, 67, 0
2, 47728, Note_on_c, 0, 79, 0
2, 47736, Note_on_c, 0, 66, 60
2, 47736, Note_on_c, 0, 78, 60
2, 47752, Note_on_c, 0, 66, 0
2, 47752, Note_on_c, 0, 78, 0
2, 47760, Note_on_c, 0, 67, 60
2, 47760, Note_on_c, 0, 79, 60
2, 47776, Note_on_c, 0, 67, 0
2, 47776, Note_on_c, 0, 79, 0
2, 47784, Note_on_c, 0, 72, 60
2, 47784, Note_on_c, 0, 84, 60
2, 47800, Note_on_c, 0, 72, 0
2, 47800, Note_on_c, 0, 84, 0
2, 47808, Note_on_c, 0, 69, 60
2, 47808, Note_on_c, 0, 81, 60
2, 47824, Note_on_c, 0, 69, 0
2, 47824, Note_on_c, 0, 81, 0
2, 47832, Note_on_c, 0, 68, 60
2, 47832, Note_on_c, 0, 80, 60
2, 47848, Note_on_c, 0, 68, 0
2, 47848, Note_on_c, 0, 80, 0
2, 47856, Note_on_c, 0, 69, 60
2, 47856, Note_on_c, 0, 81, 60
2, 47872, Note_on_c, 0, 69, 0
2, 47872, Note_on_c, 0, 81, 0
2, 47880, Note_on_c, 0, 72, 60
2, 47880, Note_on_c, 0, 84, 60
2, 47896, Note_on_c, 0, 72, 0
2, 47896, Note_on_c, 0, 84, 0
2, 47904, Note_on_c, 0, 70, 60
2, 47904, Note_on_c, 0, 82, 60
2, 47920, Note_on_c, 0, 70, 0
2, 47920, Note_on_c, 0, 82, 0
2, 47928, Note_on_c, 0, 69, 60
2, 47928, Note_on_c, 0, 81, 60
2, 47944, Note_on_c, 0, 69, 0
2, 47944, Note_on_c, 0, 81, 0
2, 47952, Note_on_c, 0, 70, 60
2, 47952, Note_on_c, 0, 82, 60
2, 47968, Note_on_c, 0, 70, 0
2, 47968, Note_on_c, 0, 82, 0
2, 47976, Note_on_c, 0, 74, 60
2, 47976, Note_on_c, 0, 86, 60
2, 47992, Note_on_c, 0, 74, 0
2, 47992, Note_on_c, 0, 86, 0
2, 48000, Note_on_c, 0, 70, 60
2, 48000, Note_on_c, 0, 82, 60
2, 48016, Note_on_c, 0, 70, 0
2, 48016, Note_on_c, 0, 82, 0
2, 48024, Note_on_c, 0, 74, 60
2, 48024, Note_on_c, 0, 86, 60
2, 48040, Note_on_c, 0, 74, 0
2, 48040, Note_on_c, 0, 86, 0
2, 48048, Note_on_c, 0, 67, 60
2, 48048, Note_on_c, 0, 79, 60
2, 48064, Note_on_c, 0, 67, 0
2, 48064, Note_on_c, 0, 79, 0
2, 48072, Note_on_c, 0, 70, 60
2, 48072, Note_on_c, 0, 82, 60
2, 48088, Note_on_c, 0, 70, 0
2, 48088, Note_on_c, 0, 82, 0
2, 48096, Note_on_c, 0, 67, 60
2, 48096, Note_on_c, 0, 79, 60
2, 48112, Note_on_c, 0, 67, 0
2, 48112, Note_on_c, 0, 79, 0
2, 48120, Note_on_c, 0, 70, 60
2, 48120, Note_on_c, 0, 82, 60
2, 48136, Note_on_c, 0, 70, 0
2, 48136, Note_on_c, 0, 82, 0
2, 48144, Note_on_c, 0, 69, 60
2, 48144, Note_on_c, 0, 81, 60
2, 48160, Note_on_c, 0, 69, 0
2, 48160, Note_on_c, 0, 81, 0
2, 48168, Note_on_c, 0, 72, 60
2, 48168, Note_on_c, 0, 84, 60
2, 48184, Note_on_c, 0, 72, 0
2, 48184, Note_on_c, 0, 84, 0
2, 48192, Note_on_c, 0, 70, 60
2, 48192, Note_on_c, 0, 82, 60
2, 48208, Note_on_c, 0, 70, 0
2, 48208, Note_on_c, 0, 82, 0
2, 48216, Note_on_c, 0, 69, 60
2, 48216, Note_on_c, 0, 81, 60
2, 48232, Note_on_c, 0, 69, 0
2, 48232, Note_on_c, 0, 81, 0
2, 48240, Note_on_c, 0, 70, 60
2, 48240, Note_on_c, 0, 82, 60
2, 48256, Note_on_c, 0, 70, 0
2, 48256, Note_on_c, 0, 82, 0
2, 48264, Note_on_c, 0, 74, 60
2, 48264, Note_on_c, 0, 86, 60
2, 48280, Note_on_c, 0, 74, 0
2, 48280, Note_on_c, 0, 86, 0
2, 48288, Note_on_c, 0, 70, 60
2, 48288, Note_on_c, 0, 82, 60
2, 48304, Note_on_c, 0, 70, 0
2, 48304, Note_on_c, 0, 82, 0
2, 48312, Note_on_c, 0, 74, 60
2, 48312, Note_on_c, 0, 86, 60
2, 48328, Note_on_c, 0, 74, 0
2, 48328, Note_on_c, 0, 86, 0
2, 48336, Note_on_c, 0, 67, 60
2, 48336, Note_on_c, 0, 79, 60
2, 48352, Note_on_c, 0, 67, 0
2, 48352, Note_on_c, 0, 79, 0
2, 48360, Note_on_c, 0, 70, 60
2, 48360, Note_on_c, 0, 82, 60
2, 48376, Note_on_c, 0, 70, 0
2, 48376, Note_on_c, 0, 82, 0
2, 48384, Note_on_c, 0, 67, 60
2, 48384, Note_on_c, 0, 79, 60
2, 48400, Note_on_c, 0, 67, 0
2, 48400, Note_on_c, 0, 79, 0
2, 48408, Note_on_c, 0, 70, 60
2, 48408, Note_on_c, 0, 82, 60
2, 48424, Note_on_c, 0, 70, 0
2, 48424, Note_on_c, 0, 82, 0
2, 48432, Note_on_c, 0, 69, 60
2, 48432, Note_on_c, 0, 81, 60
2, 48448, Note_on_c, 0, 69, 0
2, 48448, Note_on_c, 0, 81, 0
2, 48456, Note_on_c, 0, 72, 60
2, 48456, Note_on_c, 0, 84, 60
2, 48472, Note_on_c, 0, 72, 0
2, 48472, Note_on_c, 0, 84, 0
2, 48480, Note_on_c, 0, 70, 60
2, 48480, Note_on_c, 0, 82, 60
2, 48496, Note_on_c, 0, 70, 0
2, 48496, Note_on_c, 0, 82, 0
2, 48504, Note_on_c, 0, 69, 60
2, 48504, Note_on_c, 0, 81, 60
2, 48520, Note_on_c, 0, 69, 0
2, 48520, Note_on_c, 0, 81, 0
2, 48528, Note_on_c, 0, 70, 60
2, 48528, Note_on_c, 0, 82, 60
2, 48544, Note_on_c, 0, 70, 0
2, 48544, Note_on_c, 0, 82, 0
2, 48552, Note_on_c, 0, 74, 60
2, 48552, Note_on_c, 0, 86, 60
2, 48568, Note_on_c, 0, 74, 0
2, 48568, Note_on_c, 0, 86, 0
2, 48576, Note_on_c, 0, 69, 60
2, 48576, Note_on_c, 0, 81, 60
2, 48592, Note_on_c, 0, 69, 0
2, 48592, Note_on_c, 0, 81, 0
2, 48600, Note_on_c, 0, 68, 60
2, 48600, Note_on_c, 0, 80, 60
2, 48616, Note_on_c, 0, 68, 0
2, 48616, Note_on_c, 0, 80, 0
2, 48624, Note_on_c, 0, 69, 60
2, 48624, Note_on_c, 0, 81, 60
2, 48640, Note_on_c, 0, 69, 0
2, 48640, Note_on_c, 0, 81, 0
2, 48648, Note_on_c, 0, 72, 60
2, 48648, Note_on_c, 0, 84, 60
2, 48664, Note_on_c, 0, 72, 0
2, 48664, Note_on_c, 0, 84, 0
2, 48672, Note_on_c, 0, 67, 60
2, 48672, Note_on_c, 0, 79, 60
2, 48688, Note_on_c, 0, 67, 0
2, 48688, Note_on_c, 0, 79, 0
2, 48696, Note_on_c, 0, 66, 60
2, 48696, Note_on_c, 0, 78, 60
2, 48712, Note_on_c, 0, 66, 0
2, 48712, Note_on_c, 0, 78, 0
2, 48720, Note_on_c, 0, 67, 60
2, 48720, Note_on_c, 0, 79, 60
2, 48736, Note_on_c, 0, 67, 0
2, 48736, Note_on_c, 0, 79, 0
2, 48744, Note_on_c, 0, 70, 60
2, 48744, Note_on_c, 0, 82, 60
2, 48760, Note_on_c, 0, 70, 0
2, 48760, Note_on_c, 0, 82, 0
2, 48768, Note_on_c, 0, 65, 60
2, 48768, Note_on_c, 0, 77, 60
2, 48784, Note_on_c, 0, 65, 0
2, 48784, Note_on_c, 0, 77, 0
2, 48792, Note_on_c, 0, 64, 60
2, 48792, Note_on_c, 0, 76, 60
2, 48808, Note_on_c, 0, 64, 0
2, 48808, Note_on_c, 0, 76, 0
2, 48816, Note_on_c, 0, 65, 60
2, 48816, Note_on_c, 0, 77, 60
2, 48832, Note_on_c, 0, 65, 0
2, 48832, Note_on_c, 0, 77, 0
2, 48840, Note_on_c, 0, 69, 60
2, 48840, Note_on_c, 0, 81, 60
2, 48856, Note_on_c, 0, 69, 0
2, 48856, Note_on_c, 0, 81, 0
2, 48864, Note_on_c, 0, 64, 60
2, 48864, Note_on_c, 0, 76, 60
2, 48880, Note_on_c, 0, 64, 0
2, 48880, Note_on_c, 0, 76, 0
2, 48888, Note_on_c, 0, 63, 60
2, 48888, Note_on_c, 0, 75, 60
2, 48904, Note_on_c, 0, 63, 0
2, 48904, Note_on_c, 0, 75, 0
2, 48912, Note_on_c, 0, 64, 60
2, 48912, Note_on_c, 0, 76, 60
2, 48928, Note_on_c, 0, 64, 0
2, 48928, Note_on_c, 0, 76, 0
2, 48936, Note_on_c, 0, 67, 60
2, 48936, Note_on_c, 0, 79, 60
2, 48958, Note_on_c, 0, 67, 0
2, 48958, Note_on_c, 0, 79, 0
2, 48960, Note_on_c, 0, 74, 60
2, 48982, Note_on_c, 0, 74, 0
2, 48984, Note_on_c, 0, 73, 60
2, 49006, Note_on_c, 0, 73, 0
2, 49008, Note_on_c, 0, 74, 60
2, 49030, Note_on_c, 0, 74, 0
2, 49032, Note_on_c, 0, 77, 60
2, 49054, Note_on_c, 0, 77, 0
2, 49056, Note_on_c, 0, 72, 60
2, 49078, Note_on_c, 0, 72, 0
2, 49080, Note_on_c, 0, 71, 60
2, 49102, Note_on_c, 0, 71, 0
2, 49104, Note_on_c, 0, 72, 60
2, 49126, Note_on_c, 0, 72, 0
2, 49128, Note_on_c, 0, 76, 60
2, 49150, Note_on_c, 0, 76, 0
2, 49152, Note_on_c, 0, 72, 60
2, 49174, Note_on_c, 0, 72, 0
2, 49176, Note_on_c, 0, 71, 59
2, 49198, Note_on_c, 0, 71, 0
2, 49200, Note_on_c, 0, 72, 58
2, 49222, Note_on_c, 0, 72, 0
2, 49224, Note_on_c, 0, 74, 57
2, 49246, Note_on_c, 0, 74, 0
2, 49248, Note_on_c, 0, 72, 56
2, 49270, Note_on_c, 0, 72, 0
2, 49272, Note_on_c, 0, 71, 55
2, 49294, Note_on_c, 0, 71, 0
2, 49296, Note_on_c, 0, 72, 54
2, 49318, Note_on_c, 0, 72, 0
2, 49320, Note_on_c, 0, 74, 53
2, 49342, Note_on_c, 0, 74, 0
2, 49344, Note_on_c, 0, 72, 52
2, 49366, Note_on_c, 0, 72, 0
2, 49368, Note_on_c, 0, 71, 51
2, 49390, Note_on_c, 0, 71, 0
2, 49392, Note_on_c, 0, 72, 49
2, 49414, Note_on_c, 0, 72, 0
2, 49416, Note_on_c, 0, 74, 47
2, 49438, Note_on_c, 0, 74, 0
2, 49440, Note_on_c, 0, 72, 45
2, 49462, Note_on_c, 0, 72, 0
2, 49464, Note_on_c, 0, 71, 45
2, 49486, Note_on_c, 0, 71, 0
2, 49488, Note_on_c, 0, 72, 45
2, 49510, Note_on_c, 0, 72, 0
2, 49512, Note_on_c, 0, 74, 45
2, 49534, Note_on_c, 0, 74, 0
2, 49536, Note_on_c, 0, 72, 45
2, 49558, Note_on_c, 0, 72, 0
2, 49560, Note_on_c, 0, 71, 45
2, 49582, Note_on_c, 0, 71, 0
2, 49584, Note_on_c, 0, 72, 45
2, 49606, Note_on_c, 0, 72, 0
2, 49608, Note_on_c, 0, 74, 45
2, 49630, Note_on_c, 0, 74, 0
2, 49632, Note_on_c, 0, 72, 45
2, 49654, Note_on_c, 0, 72, 0
2, 49656, Note_on_c, 0, 71, 45
2, 49678, Note_on_c, 0, 71, 0
2, 49680, Note_on_c, 0, 72, 45
2, 49702, Note_on_c, 0, 72, 0
2, 49704, Note_on_c, 0, 74, 45
2, 49726, Note_on_c, 0, 74, 0
2, 49728, Note_on_c, 0, 72, 45
2, 49750, Note_on_c, 0, 72, 0
2, 49752, Note_on_c, 0, 71, 45
2, 49774, Note_on_c, 0, 71, 0
2, 49776, Note_on_c, 0, 72, 45
2, 49798, Note_on_c, 0, 72, 0
2, 49800, Note_on_c, 0, 74, 45
2, 49822, Note_on_c, 0, 74, 0
2, 49824, Note_on_c, 0, 72, 45
2, 49846, Note_on_c, 0, 72, 0
2, 49848, Note_on_c, 0, 71, 45
2, 49870, Note_on_c, 0, 71, 0
2, 49872, Note_on_c, 0, 72, 45
2, 49894, Note_on_c, 0, 72, 0
2, 49896, Note_on_c, 0, 74, 45
2, 49918, Note_on_c, 0, 74, 0
2, 49920, Note_on_c, 0, 76, 45
2, 49942, Note_on_c, 0, 76, 0
2, 49944, Note_on_c, 0, 77, 45
2, 49966, Note_on_c, 0, 77, 0
2, 49968, Note_on_c, 0, 78, 45
2, 49990, Note_on_c, 0, 78, 0
2, 49992, Note_on_c, 0, 79, 45
2, 50014, Note_on_c, 0, 79, 0
2, 50016, Note_on_c, 0, 80, 45
2, 50038, Note_on_c, 0, 80, 0
2, 50040, Note_on_c, 0, 81, 45
2, 50062, Note_on_c, 0, 81, 0
2, 50064, Note_on_c, 0, 82, 45
2, 50086, Note_on_c, 0, 82, 0
2, 50088, Note_on_c, 0, 83, 45
2, 50110, Note_on_c, 0, 83, 0
2, 50112, Note_on_c, 0, 77, 45
2, 50112, Note_on_c, 0, 84, 45
2, 50182, Note_on_c, 0, 84, 0
2, 50184, Note_on_c, 0, 86, 45
2, 50206, Note_on_c, 0, 77, 0
2, 50206, Note_on_c, 0, 86, 0
2, 50208, Note_on_c, 0, 79, 45
2, 50208, Note_on_c, 0, 84, 45
2, 50302, Note_on_c, 0, 84, 0
2, 50304, Note_on_c, 0, 82, 45
2, 50368, Note_on_c, 0, 79, 0
2, 50398, Note_on_c, 0, 82, 0
2, 50400, Note_on_c, 0, 60, 45
2, 50400, Note_on_c, 0, 65, 45
2, 50400, Note_on_c, 0, 69, 45
2, 50470, Note_on_c, 0, 69, 0
2, 50472, Note_on_c, 0, 70, 45
2, 50494, Note_on_c, 0, 60, 0
2, 50494, Note_on_c, 0, 65, 0
2, 50494, Note_on_c, 0, 70, 0
2, 50496, Note_on_c, 0, 57, 45
2, 50496, Note_on_c, 0, 64, 45
2, 50496, Note_on_c, 0, 69, 45
2, 50590, Note_on_c, 0, 69, 0
2, 50592, Note_on_c, 0, 67, 45
2, 50656, Note_on_c, 0, 57, 0
2, 50656, Note_on_c, 0, 64, 0
2, 50686, Note_on_c, 0, 67, 0
2, 50688, Note_on_c, 0, 69, 45
2, 50688, Note_on_c, 0, 77, 45
2, 50758, Note_on_c, 0, 77, 0
2, 50760, Note_on_c, 0, 78, 45
2, 50782, Note_on_c, 0, 69, 0
2, 50782, Note_on_c, 0, 78, 0
2, 50784, Note_on_c, 0, 74, 45
2, 50784, Note_on_c, 0, 79, 45
2, 50830, Note_on_c, 0, 79, 0
2, 50832, Note_on_c, 0, 79, 46
2, 50878, Note_on_c, 0, 79, 0
2, 50880, Note_on_c, 0, 79, 47
2, 50944, Note_on_c, 0, 74, 0
2, 50950, Note_on_c, 0, 79, 0
2, 50952, Note_on_c, 0, 81, 48
2, 50974, Note_on_c, 0, 81, 0
2, 50976, Note_on_c, 0, 84, 48
2, 51000, Note_on_c, 0, 84, 0
2, 51000, Note_on_c, 0, 74, 48
2, 51000, Note_on_c, 0, 82, 48
2, 51046, Note_on_c, 0, 74, 0
2, 51046, Note_on_c, 0, 82, 0
2, 51048, Note_on_c, 0, 70, 50
2, 51048, Note_on_c, 0, 79, 50
2, 51070, Note_on_c, 0, 70, 0
2, 51070, Note_on_c, 0, 79, 0
2, 51072, Note_on_c, 0, 69, 50
2, 51072, Note_on_c, 0, 77, 50
2, 51166, Note_on_c, 0, 69, 0
2, 51166, Note_on_c, 0, 77, 0
2, 51168, Note_on_c, 0, 67, 53
2, 51168, Note_on_c, 0, 76, 53
2, 51214, Note_on_c, 0, 67, 0
2, 51214, Note_on_c, 0, 76, 0
2, 51264, Note_on_c, 0, 65, 56
2, 51264, Note_on_c, 0, 72, 56
2, 51334, Note_on_c, 0, 72, 0
2, 51336, Note_on_c, 0, 74, 59
2, 51358, Note_on_c, 0, 65, 0
2, 51358, Note_on_c, 0, 74, 0
2, 51360, Control_c, 0, 64, 127
2, 51360, Note_on_c, 0, 60, 60
2, 51360, Note_on_c, 0, 67, 60
2, 51360, Note_on_c, 0, 72, 60
2, 51456, Note_on_c, 0, 72, 0
2, 51456, Note_on_c, 0, 70, 60
2, 51616, Note_on_c, 0, 60, 0
2, 51616, Note_on_c, 0, 67, 0
2, 51616, Note_on_c, 0, 70, 0
2, 51648, Note_on_c, 0, 60, 60
2, 51648, Note_on_c, 0, 67, 60
2, 51648, Note_on_c, 0, 70, 60
2, 51808, Note_on_c, 0, 60, 0
2, 51808, Note_on_c, 0, 67, 0
2, 51808, Note_on_c, 0, 70, 0
2, 51840, Control_c, 0, 64, 0
2, 51840, Note_on_c, 0, 60, 60
2, 51840, Note_on_c, 0, 65, 60
2, 51840, Note_on_c, 0, 69, 60
2, 51910, Note_on_c, 0, 69, 0
2, 51912, Note_on_c, 0, 70, 60
2, 51934, Note_on_c, 0, 60, 0
2, 51934, Note_on_c, 0, 65, 0
2, 51934, Note_on_c, 0, 70, 0
2, 51936, Control_c, 0, 64, 127
2, 51936, Note_on_c, 0, 57, 60
2, 51936, Note_on_c, 0, 64, 60
2, 51936, Note_on_c, 0, 69, 60
2, 52030, Note_on_c, 0, 69, 0
2, 52032, Note_on_c, 0, 67, 60
2, 52192, Note_on_c, 0, 57, 0
2, 52192, Note_on_c, 0, 64, 0
2, 52192, Note_on_c, 0, 67, 0
2, 52224, Note_on_c, 0, 57, 60
2, 52224, Note_on_c, 0, 64, 60
2, 52224, Note_on_c, 0, 67, 60
2, 52384, Note_on_c, 0, 57, 0
2, 52384, Note_on_c, 0, 64, 0
2, 52384, Note_on_c, 0, 67, 0
2, 52416, Control_c, 0, 64, 0
2, 52416, Note_on_c, 0, 57, 57
2, 52416, Note_on_c, 0, 62, 57
2, 52416, Note_on_c, 0, 65, 57
2, 52486, Note_on_c, 0, 57, 0
2, 52486, Note_on_c, 0, 62, 0
2, 52486, Note_on_c, 0, 65, 0
2, 52488, Note_on_c, 0, 58, 56
2, 52488, Note_on_c, 0, 62, 56
2, 52488, Note_on_c, 0, 67, 56
2, 52510, Note_on_c, 0, 58, 0
2, 52510, Note_on_c, 0, 62, 0
2, 52510, Note_on_c, 0, 67, 0
2, 52512, Note_on_c, 0, 60, 78
2, 52512, Note_on_c, 0, 65, 78
2, 52512, Note_on_c, 0, 69, 78
2, 52768, Note_on_c, 0, 60, 0
2, 52768, Note_on_c, 0, 65, 0
2, 52768, Note_on_c, 0, 69, 0
2, 52800, Note_on_c, 0, 60, 71
2, 52800, Note_on_c, 0, 64, 71
2, 52800, Note_on_c, 0, 67, 71
2, 52800, Note_on_c, 0, 70, 71
2, 53056, Note_on_c, 0, 60, 0
2, 53056, Note_on_c, 0, 64, 0
2, 53056, Note_on_c, 0, 67, 0
2, 53056, Note_on_c, 0, 70, 0
2, 53088, Note_on_c, 0, 69, 45
2, 53182, Note_on_c, 0, 69, 0
2, 53184, Note_on_c, 0, 69, 45
2, 53230, Note_on_c, 0, 69, 0
2, 53232, Note_on_c, 0, 81, 45
2, 53254, Note_on_c, 0, 81, 0
2, 53256, Note_on_c, 0, 79, 45
2, 53278, Note_on_c, 0, 79, 0
2, 53280, Note_on_c, 0, 79, 45
2, 53302, Note_on_c, 0, 79, 0
2, 53304, Note_on_c, 0, 77, 45
2, 53326, Note_on_c, 0, 77, 0
2, 53328, Note_on_c, 0, 81, 45
2, 53350, Note_on_c, 0, 81, 0
2, 53352, Note_on_c, 0, 79, 45
2, 53374, Note_on_c, 0, 79, 0
2, 53376, Note_on_c, 0, 79, 45
2, 53398, Note_on_c, 0, 79, 0
2, 53400, Note_on_c, 0, 77, 45
2, 53422, Note_on_c, 0, 77, 0
2, 53424, Note_on_c, 0, 81, 45
2, 53446, Note_on_c, 0, 81, 0
2, 53448, Note_on_c, 0, 79, 45
2, 53470, Note_on_c, 0, 79, 0
2, 53472, Note_on_c, 0, 79, 45
2, 53494, Note_on_c, 0, 79, 0
2, 53496, Note_on_c, 0, 77, 45
2, 53518, Note_on_c, 0, 77, 0
2, 53520, Note_on_c, 0, 77, 45
2, 53542, Note_on_c, 0, 77, 0
2, 53544, Note_on_c, 0, 75, 45
2, 53566, Note_on_c, 0, 75, 0
2, 53568, Note_on_c, 0, 75, 45
2, 53590, Note_on_c, 0, 75, 0
2, 53592, Note_on_c, 0, 74, 45
2, 53614, Note_on_c, 0, 74, 0
2, 53616, Note_on_c, 0, 74, 45
2, 53638, Note_on_c, 0, 74, 0
2, 53640, Note_on_c, 0, 72, 45
2, 53662, Note_on_c, 0, 72, 0
2, 53664, Note_on_c, 0, 72, 45
2, 53686, Note_on_c, 0, 72, 0
2, 53688, Note_on_c, 0, 70, 45
2, 53710, Note_on_c, 0, 70, 0
2, 53712, Note_on_c, 0, 62, 45
2, 53712, Note_on_c, 0, 72, 45
2, 53734, Note_on_c, 0, 62, 0
2, 53734, Note_on_c, 0, 72, 0
2, 53736, Note_on_c, 0, 67, 45
2, 53736, Note_on_c, 0, 71, 45
2, 53758, Note_on_c, 0, 67, 0
2, 53758, Note_on_c, 0, 71, 0
2, 53760, Note_on_c, 0, 64, 45
2, 53760, Note_on_c, 0, 74, 45
2, 53782, Note_on_c, 0, 64, 0
2, 53782, Note_on_c, 0, 74, 0
2, 53784, Note_on_c, 0, 67, 45
2, 53784, Note_on_c, 0, 72, 45
2, 53806, Note_on_c, 0, 67, 0
2, 53806, Note_on_c, 0, 72, 0
2, 53808, Note_on_c, 0, 65, 45
2, 53808, Note_on_c, 0, 76, 45
2, 53830, Note_on_c, 0, 65, 0
2, 53830, Note_on_c, 0, 76, 0
2, 53832, Note_on_c, 0, 71, 45
2, 53832, Note_on_c, 0, 74, 45
2, 53854, Note_on_c, 0, 71, 0
2, 53854, Note_on_c, 0, 74, 0
2, 53856, Note_on_c, 0, 67, 45
2, 53856, Note_on_c, 0, 77, 45
2, 53878, Note_on_c, 0, 67, 0
2, 53878, Note_on_c, 0, 77, 0
2, 53880, Note_on_c, 0, 72, 45
2, 53880, Note_on_c, 0, 75, 45
2, 53902, Note_on_c, 0, 72, 0
2, 53902, Note_on_c, 0, 75, 0
2, 53904, Note_on_c, 0, 67, 45
2, 53904, Note_on_c, 0, 77, 45
2, 53926, Note_on_c, 0, 67, 0
2, 53926, Note_on_c, 0, 77, 0
2, 53928, Note_on_c, 0, 72, 45
2, 53928, Note_on_c, 0, 76, 45
2, 53950, Note_on_c, 0, 72, 0
2, 53950, Note_on_c, 0, 76, 0
2, 53952, Note_on_c, 0, 69, 45
2, 53952, Note_on_c, 0, 79, 45
2, 53974, Note_on_c, 0, 69, 0
2, 53974, Note_on_c, 0, 79, 0
2, 53976, Note_on_c, 0, 72, 45
2, 53976, Note_on_c, 0, 77, 45
2, 53998, Note_on_c, 0, 72, 0
2, 53998, Note_on_c, 0, 77, 0
2, 54000, Note_on_c, 0, 65, 45
2, 54000, Note_on_c, 0, 76, 45
2, 54022, Note_on_c, 0, 65, 0
2, 54022, Note_on_c, 0, 76, 0
2, 54024, Note_on_c, 0, 70, 45
2, 54024, Note_on_c, 0, 74, 45
2, 54046, Note_on_c, 0, 70, 0
2, 54046, Note_on_c, 0, 74, 0
2, 54048, Note_on_c, 0, 65, 45
2, 54048, Note_on_c, 0, 74, 45
2, 54070, Note_on_c, 0, 65, 0
2, 54070, Note_on_c, 0, 74, 0
2, 54072, Note_on_c, 0, 69, 45
2, 54072, Note_on_c, 0, 72, 45
2, 54094, Note_on_c, 0, 69, 0
2, 54094, Note_on_c, 0, 72, 0
2, 54096, Note_on_c, 0, 65, 45
2, 54096, Note_on_c, 0, 74, 45
2, 54118, Note_on_c, 0, 65, 0
2, 54118, Note_on_c, 0, 74, 0
2, 54120, Note_on_c, 0, 69, 45
2, 54120, Note_on_c, 0, 72, 45
2, 54142, Note_on_c, 0, 69, 0
2, 54142, Note_on_c, 0, 72, 0
2, 54144, Note_on_c, 0, 64, 45
2, 54144, Note_on_c, 0, 72, 45
2, 54166, Note_on_c, 0, 64, 0
2, 54166, Note_on_c, 0, 72, 0
2, 54168, Note_on_c, 0, 67, 45
2, 54168, Note_on_c, 0, 70, 45
2, 54190, Note_on_c, 0, 67, 0
2, 54190, Note_on_c, 0, 70, 0
2, 54192, Note_on_c, 0, 64, 45
2, 54192, Note_on_c, 0, 72, 45
2, 54214, Note_on_c, 0, 64, 0
2, 54214, Note_on_c, 0, 72, 0
2, 54216, Note_on_c, 0, 67, 45
2, 54216, Note_on_c, 0, 70, 45
2, 54238, Note_on_c, 0, 67, 0
2, 54238, Note_on_c, 0, 70, 0
2, 54240, Note_on_c, 0, 64, 45
2, 54240, Note_on_c, 0, 67, 45
2, 54240, Note_on_c, 0, 69, 45
2, 54334, Note_on_c, 0, 64, 0
2, 54334, Note_on_c, 0, 67, 0
2, 54334, Note_on_c, 0, 69, 0
2, 54336, Note_on_c, 0, 64, 45
2, 54336, Note_on_c, 0, 67, 45
2, 54336, Note_on_c, 0, 69, 45
2, 54382, Note_on_c, 0, 64, 0
2, 54382, Note_on_c, 0, 67, 0
2, 54382, Note_on_c, 0, 69, 0
2, 54384, Note_on_c, 0, 69, 45
2, 54384, Note_on_c, 0, 81, 45
2, 54406, Note_on_c, 0, 69, 0
2, 54406, Note_on_c, 0, 81, 0
2, 54408, Note_on_c, 0, 76, 45
2, 54408, Note_on_c, 0, 79, 45
2, 54430, Note_on_c, 0, 76, 0
2, 54430, Note_on_c, 0, 79, 0
2, 54432, Note_on_c, 0, 69, 45
2, 54432, Note_on_c, 0, 79, 45
2, 54454, Note_on_c, 0, 69, 0
2, 54454, Note_on_c, 0, 79, 0
2, 54456, Note_on_c, 0, 74, 45
2, 54456, Note_on_c, 0, 77, 45
2, 54478, Note_on_c, 0, 74, 0
2, 54478, Note_on_c, 0, 77, 0
2, 54480, Note_on_c, 0, 69, 45
2, 54480, Note_on_c, 0, 81, 45
2, 54502, Note_on_c, 0, 69, 0
2, 54502, Note_on_c, 0, 81, 0
2, 54504, Note_on_c, 0, 76, 45
2, 54504, Note_on_c, 0, 79, 45
2, 54526, Note_on_c, 0, 76, 0
2, 54526, Note_on_c, 0, 79, 0
2, 54528, Note_on_c, 0, 69, 45
2, 54528, Note_on_c, 0, 79, 45
2, 54550, Note_on_c, 0, 69, 0
2, 54550, Note_on_c, 0, 79, 0
2, 54552, Note_on_c, 0, 74, 45
2, 54552, Note_on_c, 0, 77, 45
2, 54574, Note_on_c, 0, 74, 0
2, 54574, Note_on_c, 0, 77, 0
2, 54576, Note_on_c, 0, 69, 45
2, 54576, Note_on_c, 0, 81, 45
2, 54598, Note_on_c, 0, 69, 0
2, 54598, Note_on_c, 0, 81, 0
2, 54600, Note_on_c, 0, 76, 45
2, 54600, Note_on_c, 0, 79, 45
2, 54622, Note_on_c, 0, 76, 0
2, 54622, Note_on_c, 0, 79, 0
2, 54624, Note_on_c, 0, 69, 45
2, 54624, Note_on_c, 0, 79, 45
2, 54646, Note_on_c, 0, 69, 0
2, 54646, Note_on_c, 0, 79, 0
2, 54648, Note_on_c, 0, 74, 45
2, 54648, Note_on_c, 0, 77, 45
2, 54670, Note_on_c, 0, 74, 0
2, 54670, Note_on_c, 0, 77, 0
2, 54672, Note_on_c, 0, 65, 45
2, 54672, Note_on_c, 0, 77, 45
2, 54694, Note_on_c, 0, 65, 0
2, 54694, Note_on_c, 0, 77, 0
2, 54696, Note_on_c, 0, 72, 45
2, 54696, Note_on_c, 0, 75, 45
2, 54718, Note_on_c, 0, 72, 0
2, 54718, Note_on_c, 0, 75, 0
2, 54720, Note_on_c, 0, 65, 45
2, 54720, Note_on_c, 0, 75, 45
2, 54742, Note_on_c, 0, 65, 0
2, 54742, Note_on_c, 0, 75, 0
2, 54744, Note_on_c, 0, 70, 45
2, 54744, Note_on_c, 0, 74, 45
2, 54766, Note_on_c, 0, 70, 0
2, 54766, Note_on_c, 0, 74, 0
2, 54768, Note_on_c, 0, 62, 45
2, 54768, Note_on_c, 0, 74, 45
2, 54790, Note_on_c, 0, 62, 0
2, 54790, Note_on_c, 0, 74, 0
2, 54792, Note_on_c, 0, 69, 45
2, 54792, Note_on_c, 0, 72, 45
2, 54814, Note_on_c, 0, 69, 0
2, 54814, Note_on_c, 0, 72, 0
2, 54816, Note_on_c, 0, 62, 45
2, 54816, Note_on_c, 0, 72, 45
2, 54838, Note_on_c, 0, 62, 0
2, 54838, Note_on_c, 0, 72, 0
2, 54840, Note_on_c, 0, 67, 45
2, 54840, Note_on_c, 0, 70, 45
2, 54862, Note_on_c, 0, 67, 0
2, 54862, Note_on_c, 0, 70, 0
2, 54864, Note_on_c, 0, 62, 45
2, 54864, Note_on_c, 0, 72, 45
2, 54886, Note_on_c, 0, 62, 0
2, 54886, Note_on_c, 0, 72, 0
2, 54888, Note_on_c, 0, 67, 45
2, 54888, Note_on_c, 0, 71, 45
2, 54910, Note_on_c, 0, 67, 0
2, 54910, Note_on_c, 0, 71, 0
2, 54912, Note_on_c, 0, 64, 45
2, 54912, Note_on_c, 0, 74, 45
2, 54934, Note_on_c, 0, 64, 0
2, 54934, Note_on_c, 0, 74, 0
2, 54936, Note_on_c, 0, 67, 45
2, 54936, Note_on_c, 0, 72, 45
2, 54958, Note_on_c, 0, 67, 0
2, 54958, Note_on_c, 0, 72, 0
2, 54960, Note_on_c, 0, 65, 45
2, 54960, Note_on_c, 0, 76, 45
2, 54982, Note_on_c, 0, 65, 0
2, 54982, Note_on_c, 0, 76, 0
2, 54984, Note_on_c, 0, 71, 45
2, 54984, Note_on_c, 0, 74, 45
2, 55006, Note_on_c, 0, 71, 0
2, 55006, Note_on_c, 0, 74, 0
2, 55008, Note_on_c, 0, 67, 45
2, 55008, Note_on_c, 0, 77, 45
2, 55030, Note_on_c, 0, 67, 0
2, 55030, Note_on_c, 0, 77, 0
2, 55032, Note_on_c, 0, 72, 45
2, 55032, Note_on_c, 0, 75, 45
2, 55054, Note_on_c, 0, 72, 0
2, 55054, Note_on_c, 0, 75, 0
2, 55056, Note_on_c, 0, 67, 45
2, 55056, Note_on_c, 0, 77, 45
2, 55078, Note_on_c, 0, 67, 0
2, 55078, Note_on_c, 0, 77, 0
2, 55080, Note_on_c, 0, 72, 45
2, 55080, Note_on_c, 0, 76, 45
2, 55102, Note_on_c, 0, 72, 0
2, 55102, Note_on_c, 0, 76, 0
2, 55104, Note_on_c, 0, 69, 45
2, 55104, Note_on_c, 0, 79, 45
2, 55126, Note_on_c, 0, 69, 0
2, 55126, Note_on_c, 0, 79, 0
2, 55128, Note_on_c, 0, 72, 45
2, 55128, Note_on_c, 0, 77, 45
2, 55150, Note_on_c, 0, 72, 0
2, 55150, Note_on_c, 0, 77, 0
2, 55152, Note_on_c, 0, 70, 45
2, 55152, Note_on_c, 0, 81, 45
2, 55174, Note_on_c, 0, 70, 0
2, 55174, Note_on_c, 0, 81, 0
2, 55176, Note_on_c, 0, 76, 45
2, 55176, Note_on_c, 0, 79, 45
2, 55198, Note_on_c, 0, 76, 0
2, 55198, Note_on_c, 0, 79, 0
2, 55200, Note_on_c, 0, 72, 45
2, 55200, Note_on_c, 0, 82, 45
2, 55222, Note_on_c, 0, 72, 0
2, 55222, Note_on_c, 0, 82, 0
2, 55224, Note_on_c, 0, 77, 45
2, 55224, Note_on_c, 0, 81, 45
2, 55246, Note_on_c, 0, 77, 0
2, 55246, Note_on_c, 0, 81, 0
2, 55248, Note_on_c, 0, 72, 45
2, 55248, Note_on_c, 0, 82, 45
2, 55270, Note_on_c, 0, 72, 0
2, 55270, Note_on_c, 0, 82, 0
2, 55272, Note_on_c, 0, 77, 45
2, 55272, Note_on_c, 0, 81, 45
2, 55294, Note_on_c, 0, 77, 0
2, 55294, Note_on_c, 0, 81, 0
2, 55296, Note_on_c, 0, 74, 45
2, 55296, Note_on_c, 0, 84, 45
2, 55318, Note_on_c, 0, 74, 0
2, 55318, Note_on_c, 0, 84, 0
2, 55320, Note_on_c, 0, 77, 45
2, 55320, Note_on_c, 0, 82, 45
2, 55342, Note_on_c, 0, 77, 0
2, 55342, Note_on_c, 0, 82, 0
2, 55344, Note_on_c, 0, 75, 45
2, 55344, Note_on_c, 0, 86, 45
2, 55366, Note_on_c, 0, 75, 0
2, 55366, Note_on_c, 0, 86, 0
2, 55368, Note_on_c, 0, 81, 45
2, 55368, Note_on_c, 0, 84, 45
2, 55390, Note_on_c, 0, 81, 0
2, 55390, Note_on_c, 0, 84, 0
2, 55392, Note_on_c, 0, 77, 63
2, 55392, Note_on_c, 0, 87, 63
2, 55414, Note_on_c, 0, 77, 0
2, 55414, Note_on_c, 0, 87, 0
2, 55416, Note_on_c, 0, 82, 63
2, 55416, Note_on_c, 0, 86, 63
2, 55438, Note_on_c, 0, 82, 0
2, 55438, Note_on_c, 0, 86, 0
2, 55440, Note_on_c, 0, 77, 45
2, 55440, Note_on_c, 0, 87, 45
2, 55462, Note_on_c, 0, 77, 0
2, 55462, Note_on_c, 0, 87, 0
2, 55464, Note_on_c, 0, 82, 45
2, 55464, Note_on_c, 0, 86, 45
2, 55486, Note_on_c, 0, 82, 0
2, 55486, Note_on_c, 0, 86, 0
2, 55488, Note_on_c, 0, 77, 45
2, 55488, Note_on_c, 0, 87, 45
2, 55510, Note_on_c, 0, 77, 0
2, 55510, Note_on_c, 0, 87, 0
2, 55512, Note_on_c, 0, 82, 45
2, 55512, Note_on_c, 0, 86, 45
2, 55534, Note_on_c, 0, 82, 0
2, 55534, Note_on_c, 0, 86, 0
2, 55536, Note_on_c, 0, 77, 45
2, 55536, Note_on_c, 0, 87, 45
2, 55558, Note_on_c, 0, 77, 0
2, 55558, Note_on_c, 0, 87, 0
2, 55560, Note_on_c, 0, 82, 45
2, 55560, Note_on_c, 0, 86, 45
2, 55582, Note_on_c, 0, 82, 0
2, 55582, Note_on_c, 0, 86, 0
2, 55584, Note_on_c, 0, 77, 45
2, 55584, Note_on_c, 0, 87, 45
2, 55606, Note_on_c, 0, 77, 0
2, 55606, Note_on_c, 0, 87, 0
2, 55608, Note_on_c, 0, 82, 45
2, 55608, Note_on_c, 0, 86, 45
2, 55630, Note_on_c, 0, 82, 0
2, 55630, Note_on_c, 0, 86, 0
2, 55632, Note_on_c, 0, 77, 45
2, 55632, Note_on_c, 0, 87, 45
2, 55654, Note_on_c, 0, 77, 0
2, 55654, Note_on_c, 0, 87, 0
2, 55656, Note_on_c, 0, 82, 45
2, 55656, Note_on_c, 0, 86, 45
2, 55678, Note_on_c, 0, 82, 0
2, 55678, Note_on_c, 0, 86, 0
2, 55680, Note_on_c, 0, 77, 63
2, 55680, Note_on_c, 0, 88, 63
2, 55702, Note_on_c, 0, 77, 0
2, 55702, Note_on_c, 0, 88, 0
2, 55704, Note_on_c, 0, 80, 63
2, 55704, Note_on_c, 0, 86, 63
2, 55726, Note_on_c, 0, 80, 0
2, 55726, Note_on_c, 0, 86, 0
2, 55728, Note_on_c, 0, 77, 45
2, 55728, Note_on_c, 0, 88, 45
2, 55750, Note_on_c, 0, 77, 0
2, 55750, Note_on_c, 0, 88, 0
2, 55752, Note_on_c, 0, 80, 45
2, 55752, Note_on_c, 0, 86, 45
2, 55774, Note_on_c, 0, 80, 0
2, 55774, Note_on_c, 0, 86, 0
2, 55776, Note_on_c, 0, 77, 45
2, 55776, Note_on_c, 0, 88, 45
2, 55798, Note_on_c, 0, 77, 0
2, 55798, Note_on_c, 0, 88, 0
2, 55800, Note_on_c, 0, 80, 46
2, 55800, Note_on_c, 0, 86, 46
2, 55822, Note_on_c, 0, 80, 0
2, 55822, Note_on_c, 0, 86, 0
2, 55824, Note_on_c, 0, 77, 48
2, 55824, Note_on_c, 0, 88, 48
2, 55846, Note_on_c, 0, 77, 0
2, 55846, Note_on_c, 0, 88, 0
2, 55848, Note_on_c, 0, 80, 50
2, 55848, Note_on_c, 0, 86, 50
2, 55870, Note_on_c, 0, 80, 0
2, 55870, Note_on_c, 0, 86, 0
2, 55872, Note_on_c, 0, 77, 52
2, 55872, Note_on_c, 0, 88, 52
2, 55894, Note_on_c, 0, 77, 0
2, 55894, Note_on_c, 0, 88, 0
2, 55896, Note_on_c, 0, 80, 54
2, 55896, Note_on_c, 0, 86, 54
2, 55918, Note_on_c, 0, 80, 0
2, 55918, Note_on_c, 0, 86, 0
2, 55920, Note_on_c, 0, 77, 56
2, 55920, Note_on_c, 0, 88, 56
2, 55942, Note_on_c, 0, 77, 0
2, 55942, Note_on_c, 0, 88, 0
2, 55944, Note_on_c, 0, 80, 58
2, 55944, Note_on_c, 0, 86, 58
2, 55966, Note_on_c, 0, 80, 0
2, 55966, Note_on_c, 0, 86, 0
2, 55968, Note_on_c, 0, 77, 60
2, 55968, Note_on_c, 0, 86, 60
2, 55990, Note_on_c, 0, 77, 0
2, 55990, Note_on_c, 0, 86, 0
2, 55992, Note_on_c, 0, 81, 60
2, 55992, Note_on_c, 0, 84, 60
2, 56014, Note_on_c, 0, 81, 0
2, 56014, Note_on_c, 0, 84, 0
2, 56016, Note_on_c, 0, 77, 60
2, 56016, Note_on_c, 0, 86, 60
2, 56038, Note_on_c, 0, 77, 0
2, 56038, Note_on_c, 0, 86, 0
2, 56040, Note_on_c, 0, 81, 60
2, 56040, Note_on_c, 0, 84, 60
2, 56062, Note_on_c, 0, 81, 0
2, 56062, Note_on_c, 0, 84, 0
2, 56064, Note_on_c, 0, 72, 60
2, 56064, Note_on_c, 0, 82, 60
2, 56086, Note_on_c, 0, 72, 0
2, 56086, Note_on_c, 0, 82, 0
2, 56088, Note_on_c, 0, 77, 60
2, 56088, Note_on_c, 0, 81, 60
2, 56110, Note_on_c, 0, 77, 0
2, 56110, Note_on_c, 0, 81, 0
2, 56112, Note_on_c, 0, 72, 60
2, 56112, Note_on_c, 0, 82, 60
2, 56134, Note_on_c, 0, 72, 0
2, 56134, Note_on_c, 0, 82, 0
2, 56136, Note_on_c, 0, 77, 60
2, 56136, Note_on_c, 0, 81, 60
2, 56158, Note_on_c, 0, 77, 0
2, 56158, Note_on_c, 0, 81, 0
2, 56160, Note_on_c, 0, 69, 60
2, 56160, Note_on_c, 0, 79, 60
2, 56182, Note_on_c, 0, 69, 0
2, 56182, Note_on_c, 0, 79, 0
2, 56184, Note_on_c, 0, 72, 60
2, 56184, Note_on_c, 0, 77, 60
2, 56206, Note_on_c, 0, 72, 0
2, 56206, Note_on_c, 0, 77, 0
2, 56208, Note_on_c, 0, 69, 60
2, 56208, Note_on_c, 0, 79, 60
2, 56230, Note_on_c, 0, 69, 0
2, 56230, Note_on_c, 0, 79, 0
2, 56232, Note_on_c, 0, 72, 60
2, 56232, Note_on_c, 0, 77, 60
2, 56254, Note_on_c, 0, 72, 0
2, 56254, Note_on_c, 0, 77, 0
2, 56256, Note_on_c, 0, 76, 60
2, 56256, Note_on_c, 0, 84, 60
2, 56278, Note_on_c, 0, 76, 0
2, 56278, Note_on_c, 0, 84, 0
2, 56280, Note_on_c, 0, 79, 60
2, 56280, Note_on_c, 0, 82, 60
2, 56302, Note_on_c, 0, 79, 0
2, 56302, Note_on_c, 0, 82, 0
2, 56304, Note_on_c, 0, 76, 60
2, 56304, Note_on_c, 0, 84, 60
2, 56326, Note_on_c, 0, 76, 0
2, 56326, Note_on_c, 0, 84, 0
2, 56328, Note_on_c, 0, 79, 60
2, 56328, Note_on_c, 0, 82, 60
2, 56350, Note_on_c, 0, 79, 0
2, 56350, Note_on_c, 0, 82, 0
2, 56352, Note_on_c, 0, 70, 60
2, 56352, Note_on_c, 0, 81, 60
2, 56374, Note_on_c, 0, 70, 0
2, 56374, Note_on_c, 0, 81, 0
2, 56376, Note_on_c, 0, 76, 60
2, 56376, Note_on_c, 0, 79, 60
2, 56398, Note_on_c, 0, 76, 0
2, 56398, Note_on_c, 0, 79, 0
2, 56400, Note_on_c, 0, 70, 60
2, 56400, Note_on_c, 0, 81, 60
2, 56422, Note_on_c, 0, 70, 0
2, 56422, Note_on_c, 0, 81, 0
2, 56424, Note_on_c, 0, 76, 60
2, 56424, Note_on_c, 0, 79, 60
2, 56446, Note_on_c, 0, 76, 0
2, 56446, Note_on_c, 0, 79, 0
2, 56448, Note_on_c, 0, 67, 60
2, 56448, Note_on_c, 0, 77, 60
2, 56470, Note_on_c, 0, 67, 0
2, 56470, Note_on_c, 0, 77, 0
2, 56472, Note_on_c, 0, 72, 60
2, 56472, Note_on_c, 0, 76, 60
2, 56494, Note_on_c, 0, 72, 0
2, 56494, Note_on_c, 0, 76, 0
2, 56496, Note_on_c, 0, 67, 60
2, 56496, Note_on_c, 0, 77, 60
2, 56518, Note_on_c, 0, 67, 0
2, 56518, Note_on_c, 0, 77, 0
2, 56520, Note_on_c, 0, 72, 60
2, 56520, Note_on_c, 0, 76, 60
2, 56542, Note_on_c, 0, 72, 0
2, 56542, Note_on_c, 0, 76, 0
2, 56544, Note_on_c, 0, 69, 60
2, 56544, Note_on_c, 0, 77, 60
2, 56638, Note_on_c, 0, 69, 0
2, 56638, Note_on_c, 0, 77, 0
2, 56736, Note_on_c, 0, 72, 60
2, 56806, Note_on_c, 0, 72, 0
2, 56808, Note_on_c, 0, 69, 60
2, 56830, Note_on_c, 0, 69, 0
2, 56832, Note_on_c, 0, 70, 60
2, 56926, Note_on_c, 0, 70, 0
2, 56928, Note_on_c, 0, 67, 60
2, 56960, Note_on_c, 0, 67, 0
2, 57024, Note_on_c, 0, 79, 60
2, 57094, Note_on_c, 0, 79, 0
2, 57096, Note_on_c, 0, 76, 60
2, 57118, Note_on_c, 0, 76, 0
2, 57120, Note_on_c, 0, 77, 60
2, 57214, Note_on_c, 0, 77, 0
2, 57216, Note_on_c, 0, 72, 60
2, 57248, Note_on_c, 0, 72, 0
2, 57312, Note_on_c, 0, 72, 60
2, 57334, Note_on_c, 0, 72, 0
2, 57336, Note_on_c, 0, 69, 60
2, 57358, Note_on_c, 0, 69, 0
2, 57360, Note_on_c, 0, 72, 60
2, 57382, Note_on_c, 0, 72, 0
2, 57384, Note_on_c, 0, 69, 60
2, 57406, Note_on_c, 0, 69, 0
2, 57408, Note_on_c, 0, 70, 60
2, 57502, Note_on_c, 0, 70, 0
2, 57504, Note_on_c, 0, 67, 60
2, 57536, Note_on_c, 0, 67, 0
2, 57600, Note_on_c, 0, 79, 60
2, 57622, Note_on_c, 0, 79, 0
2, 57624, Note_on_c, 0, 76, 60
2, 57646, Note_on_c, 0, 76, 0
2, 57648, Note_on_c, 0, 79, 60
2, 57670, Note_on_c, 0, 79, 0
2, 57672, Note_on_c, 0, 76, 60
2, 57694, Note_on_c, 0, 76, 0
2, 57696, Note_on_c, 0, 77, 60
2, 57790, Note_on_c, 0, 77, 0
2, 57792, Note_on_c, 0, 72, 60
2, 57824, Note_on_c, 0, 72, 0
2, 57888, Note_on_c, 0, 79, 60
2, 57910, Note_on_c, 0, 79, 0
2, 57912, Note_on_c, 0, 76, 60
2, 57934, Note_on_c, 0, 76, 0
2, 57936, Note_on_c, 0, 79, 60
2, 57958, Note_on_c, 0, 79, 0
2, 57960, Note_on_c, 0, 76, 60
2, 57982, Note_on_c, 0, 76, 0
2, 57984, Note_on_c, 0, 77, 60
2, 58078, Note_on_c, 0, 77, 0
2, 58080, Note_on_c, 0, 72, 60
2, 58112, Note_on_c, 0, 72, 0
2, 58176, Note_on_c, 0, 79, 60
2, 58198, Note_on_c, 0, 79, 0
2, 58200, Note_on_c, 0, 76, 60
2, 58222, Note_on_c, 0, 76, 0
2, 58224, Note_on_c, 0, 79, 60
2, 58246, Note_on_c, 0, 79, 0
2, 58248, Note_on_c, 0, 76, 60
2, 58270, Note_on_c, 0, 76, 0
2, 58272, Control_c, 0, 64, 127
2, 58272, Note_on_c, 0, 77, 60
2, 58366, Note_on_c, 0, 77, 0
2, 58368, Note_on_c, 0, 72, 60
2, 58400, Note_on_c, 0, 72, 0
2, 58464, Note_on_c, 0, 81, 60
2, 58486, Note_on_c, 0, 81, 0
2, 58488, Note_on_c, 0, 77, 60
2, 58510, Note_on_c, 0, 77, 0
2, 58512, Note_on_c, 0, 81, 60
2, 58534, Note_on_c, 0, 81, 0
2, 58536, Note_on_c, 0, 77, 60
2, 58558, Note_on_c, 0, 77, 0
2, 58560, Note_on_c, 0, 81, 60
2, 58654, Note_on_c, 0, 81, 0
2, 58656, Note_on_c, 0, 77, 60
2, 58688, Note_on_c, 0, 77, 0
2, 58752, Control_c, 0, 64, 0
2, 58752, Note_on_c, 0, 84, 60
2, 58774, Note_on_c, 0, 84, 0
2, 58776, Note_on_c, 0, 81, 60
2, 58798, Note_on_c, 0, 81, 0
2, 58800, Note_on_c, 0, 84, 60
2, 58822, Note_on_c, 0, 84, 0
2, 58824, Note_on_c, 0, 81, 60
2, 58846, Note_on_c, 0, 81, 0
2, 58848, Control_c, 0, 64, 127
2, 58848, Note_on_c, 0, 89, 60
2, 58942, Note_on_c, 0, 89, 0
2, 58944, Note_on_c, 0, 84, 58
2, 58976, Note_on_c, 0, 84, 0
2, 59040, Note_on_c, 0, 89, 56
2, 59062, Note_on_c, 0, 89, 0
2, 59064, Note_on_c, 0, 84, 56
2, 59086, Note_on_c, 0, 84, 0
2, 59088, Note_on_c, 0, 89, 56
2, 59110, Note_on_c, 0, 89, 0
2, 59112, Note_on_c, 0, 84, 56
2, 59134, Note_on_c, 0, 84, 0
2, 59136, Note_on_c, 0, 89, 56
2, 59230, Note_on_c, 0, 89, 0
2, 59232, Note_on_c, 0, 84, 53
2, 59264, Note_on_c, 0, 84, 0
2, 59328, Note_on_c, 0, 89, 49
2, 59350, Note_on_c, 0, 89, 0
2, 59352, Note_on_c, 0, 84, 48
2, 59374, Note_on_c, 0, 84, 0
2, 59376, Note_on_c, 0, 89, 47
2, 59398, Note_on_c, 0, 89, 0
2, 59400, Note_on_c, 0, 84, 46
2, 59422, Note_on_c, 0, 84, 0
2, 59424, Note_on_c, 0, 89, 45
2, 59456, Note_on_c, 0, 89, 0
2, 59520, Note_on_c, 0, 89, 45
2, 59552, Note_on_c, 0, 89, 0
2, 59616, Note_on_c, 0, 89, 45
2, 59648, Note_on_c, 0, 89, 0
2, 59712, Note_on_c, 0, 89, 30
2, 59806, Note_on_c, 0, 89, 0
2, 60000, Control_c, 0, 64, 0
2, 60096, Note_on_c, 0, 53, 35
2, 60128, Note_on_c, 0, 53, 0
2, 60192, Note_on_c, 0, 53, 40
2, 60224, Note_on_c, 0, 53, 0
2, 60288, Note_on_c, 0, 53, 45
2, 60320, Note_on_c, 0, 53, 0
2, 60384, Note_on_c, 0, 53, 50
2, 60416, Note_on_c, 0, 53, 0
2, 60480, Note_on_c, 0, 53, 55
2, 60574, Note_on_c, 0, 53, 0
2, 60576, Note_on_c, 0, 54, 60
2, 60736, Note_on_c, 0, 54, 0
2, 60768, Note_on_c, 0, 66, 60
2, 60768, Note_on_c, 0, 70, 60
2, 60768, Note_on_c, 0, 73, 60
2, 60838, Note_on_c, 0, 73, 0
2, 60840, Note_on_c, 0, 75, 60
2, 60862, Note_on_c, 0, 66, 0
2, 60862, Note_on_c, 0, 70, 0
2, 60862, Note_on_c, 0, 75, 0
2, 60864, Note_on_c, 0, 65, 60
2, 60864, Note_on_c, 0, 68, 60
2, 60864, Note_on_c, 0, 73, 60
2, 60958, Note_on_c, 0, 73, 0
2, 60960, Note_on_c, 0, 71, 60
2, 61024, Note_on_c, 0, 65, 0
2, 61024, Note_on_c, 0, 68, 0
2, 61054, Note_on_c, 0, 71, 0
2, 61056, Note_on_c, 0, 65, 60
2, 61056, Note_on_c, 0, 68, 60
2, 61056, Note_on_c, 0, 71, 60
2, 61126, Note_on_c, 0, 71, 0
2, 61128, Note_on_c, 0, 73, 60
2, 61150, Note_on_c, 0, 65, 0
2, 61150, Note_on_c, 0, 68, 0
2, 61150, Note_on_c, 0, 73, 0
2, 61152, Note_on_c, 0, 61, 60
2, 61152, Note_on_c, 0, 66, 60
2, 61152, Note_on_c, 0, 71, 60
2, 61246, Note_on_c, 0, 71, 0
2, 61248, Note_on_c, 0, 70, 60
2, 61312, Note_on_c, 0, 61, 0
2, 61312, Note_on_c, 0, 66, 0
2, 61342, Note_on_c, 0, 70, 0
2, 61344, Note_on_c, 0, 60, 60
2, 61344, Note_on_c, 0, 67, 60
2, 61344, Note_on_c, 0, 70, 60
2, 61414, Note_on_c, 0, 70, 0
2, 61416, Note_on_c, 0, 72, 62
2, 61438, Note_on_c, 0, 60, 0
2, 61438, Note_on_c, 0, 67, 0
2, 61438, Note_on_c, 0, 72, 0
2, 61440, Note_on_c, 0, 60, 62
2, 61440, Note_on_c, 0, 65, 62
2, 61440, Note_on_c, 0, 70, 62
2, 61534, Note_on_c, 0, 70, 0
2, 61536, Note_on_c, 0, 69, 65
2, 61600, Note_on_c, 0, 60, 0
2, 61600, Note_on_c, 0, 65, 0
2, 61630, Note_on_c, 0, 69, 0
2, 61632, Note_on_c, 0, 62, 68
2, 61632, Note_on_c, 0, 65, 68
2, 61632, Note_on_c, 0, 69, 68
2, 61702, Note_on_c, 0, 69, 0
2, 61704, Note_on_c, 0, 70, 71
2, 61726, Note_on_c, 0, 62, 0
2, 61726, Note_on_c, 0, 65, 0
2, 61726, Note_on_c, 0, 70, 0
2, 61728, Note_on_c, 0, 62, 72
2, 61728, Note_on_c, 0, 65, 72
2, 61728, Note_on_c, 0, 69, 72
2, 61822, Note_on_c, 0, 69, 0
2, 61824, Note_on_c, 0, 67, 76
2, 61888, Note_on_c, 0, 62, 0
2, 61888, Note_on_c, 0, 65, 0
2, 61918, Note_on_c, 0, 67, 0
2, 61920, Note_on_c, 0, 58, 80
2, 61920, Note_on_c, 0, 64, 80
2, 61920, Note_on_c, 0, 67, 80
2, 61990, Note_on_c, 0, 67, 0
2, 61992, Note_on_c, 0, 69, 83
2, 62014, Note_on_c, 0, 58, 0
2, 62014, Note_on_c, 0, 64, 0
2, 62014, Note_on_c, 0, 69, 0
2, 62016, Note_on_c, 0, 57, 84
2, 62016, Note_on_c, 0, 65, 84
2, 62176, Note_on_c, 0, 57, 0
2, 62176, Note_on_c, 0, 65, 0
2, 62208, Note_on_c, 0, 67, 92
2, 62208, Note_on_c, 0, 70, 92
2, 62208, Note_on_c, 0, 76, 92
2, 62278, Note_on_c, 0, 67, 0
2, 62280, Note_on_c, 0, 72, 92
2, 62302, Note_on_c, 0, 70, 0
2, 62302, Note_on_c, 0, 76, 0
2, 62302, Note_on_c, 0, 72, 0
2, 62304, Note_on_c, 0, 65, 92
2, 62304, Note_on_c, 0, 69, 92
2, 62304, Note_on_c, 0, 77, 92
2, 62446, Note_on_c, 0, 65, 0
2, 62448, Note_on_c, 0, 72, 92
2, 62464, Note_on_c, 0, 69, 0
2, 62464, Note_on_c, 0, 77, 0
2, 62494, Note_on_c, 0, 72, 0
2, 62496, Note_on_c, 0, 76, 45
2, 62496, Note_on_c, 0, 79, 45
2, 62496, Note_on_c, 0, 82, 45
2, 62566, Note_on_c, 0, 82, 0
2, 62568, Note_on_c, 0, 84, 45
2, 62590, Note_on_c, 0, 76, 0
2, 62590, Note_on_c, 0, 79, 0
2, 62590, Note_on_c, 0, 84, 0
2, 62592, Note_on_c, 0, 72, 45
2, 62592, Note_on_c, 0, 77, 45
2, 62592, Note_on_c, 0, 81, 45
2, 62752, Note_on_c, 0, 72, 0
2, 62752, Note_on_c, 0, 77, 0
2, 62752, Note_on_c, 0, 81, 0
2, 62784, Note_on_c, 0, 79, 92
2, 62784, Note_on_c, 0, 82, 92
2, 62784, Note_on_c, 0, 88, 92
2, 62854, Note_on_c, 0, 79, 0
2, 62856, Note_on_c, 0, 84, 92
2, 62878, Note_on_c, 0, 82, 0
2, 62878, Note_on_c, 0, 88, 0
2, 62878, Note_on_c, 0, 84, 0
2, 62880, Note_on_c, 0, 77, 92
2, 62880, Note_on_c, 0, 81, 92
2, 62880, Note_on_c, 0, 89, 92
2, 63022, Note_on_c, 0, 77, 0
2, 63024, Note_on_c, 0, 84, 92
2, 63040, Note_on_c, 0, 81, 0
2, 63040, Note_on_c, 0, 89, 0
2, 63070, Note_on_c, 0, 84, 0
2, 63072, Note_on_c, 0, 79, 45
2, 63072, Note_on_c, 0, 82, 45
2, 63072, Note_on_c, 0, 88, 45
2, 63142, Note_on_c, 0, 79, 0
2, 63144, Note_on_c, 0, 84, 45
2, 63166, Note_on_c, 0, 82, 0
2, 63166, Note_on_c, 0, 88, 0
2, 63166, Note_on_c, 0, 84, 0
2, 63168, Note_on_c, 0, 77, 45
2, 63168, Note_on_c, 0, 81, 45
2, 63168, Note_on_c, 0, 89, 45
2, 63238, Note_on_c, 0, 77, 0
2, 63240, Note_on_c, 0, 84, 46
2, 63262, Note_on_c, 0, 81, 0
2, 63262, Note_on_c, 0, 89, 0
2, 63262, Note_on_c, 0, 84, 0
2, 63264, Note_on_c, 0, 79, 46
2, 63264, Note_on_c, 0, 82, 46
2, 63264, Note_on_c, 0, 88, 46
2, 63334, Note_on_c, 0, 79, 0
2, 63336, Note_on_c, 0, 84, 48
2, 63358, Note_on_c, 0, 82, 0
2, 63358, Note_on_c, 0, 88, 0
2, 63358, Note_on_c, 0, 84, 0
2, 63360, Note_on_c, 0, 77, 48
2, 63360, Note_on_c, 0, 81, 48
2, 63360, Note_on_c, 0, 89, 48
2, 63430, Note_on_c, 0, 77, 0
2, 63432, Note_on_c, 0, 84, 50
2, 63454, Note_on_c, 0, 81, 0
2, 63454, Note_on_c, 0, 89, 0
2, 63454, Note_on_c, 0, 84, 0
2, 63456, Note_on_c, 0, 79, 50
2, 63456, Note_on_c, 0, 82, 50
2, 63456, Note_on_c, 0, 88, 50
2, 63526, Note_on_c, 0, 79, 0
2, 63528, Note_on_c, 0, 84, 52
2, 63550, Note_on_c, 0, 82, 0
2, 63550, Note_on_c, 0, 88, 0
2, 63550, Note_on_c, 0, 84, 0
2, 63552, Note_on_c, 0, 77, 52
2, 63552, Note_on_c, 0, 81, 52
2, 63552, Note_on_c, 0, 89, 52
2, 63622, Note_on_c, 0, 77, 0
2, 63624, Note_on_c, 0, 84, 55
2, 63646, Note_on_c, 0, 81, 0
2, 63646, Note_on_c, 0, 89, 0
2, 63646, Note_on_c, 0, 84, 0
2, 63648, Note_on_c, 0, 79, 56
2, 63648, Note_on_c, 0, 82, 56
2, 63648, Note_on_c, 0, 88, 56
2, 63718, Note_on_c, 0, 79, 0
2, 63720, Note_on_c, 0, 84, 59
2, 63742, Note_on_c, 0, 82, 0
2, 63742, Note_on_c, 0, 88, 0
2, 63742, Note_on_c, 0, 84, 0
2, 63744, Control_c, 0, 64, 127
2, 63744, Note_on_c, 0, 77, 60
2, 63744, Note_on_c, 0, 81, 60
2, 63744, Note_on_c, 0, 89, 60
2, 63838, Note_on_c, 0, 77, 0
2, 63838, Note_on_c, 0, 81, 0
2, 63838, Note_on_c, 0, 89, 0
2, 63936, Note_on_c, 0, 69, 60
2, 63936, Note_on_c, 0, 72, 60
2, 63968, Note_on_c, 0, 69, 0
2, 63968, Note_on_c, 0, 72, 0
2, 64032, Note_on_c, 0, 65, 60
2, 64032, Note_on_c, 0, 69, 60
2, 64064, Note_on_c, 0, 65, 0
2, 64064, Note_on_c, 0, 69, 0
2, 64128, Control_c, 0, 64, 0
2, 64128, End_track
3, 0, Start_track
3, 0, MIDI_port, 0
3, 0, Title_t, "Reginald Steven Ritchie"
3, 0, Program_c, 1, 0
3, 0, Control_c, 1, 7, 127
3, 0, Control_c, 1, 10, 8
3, 0, Program_c, 1, 0
3, 0, Control_c, 1, 7, 127
3, 0, Control_c, 1, 10, 8
3, 0, Control_c, 1, 91, 89
3, 0, Control_c, 1, 93, 90
3, 0, Note_on_c, 1, 57, 60
3, 0, Note_on_c, 1, 60, 60
3, 94, Note_on_c, 1, 57, 0
3, 94, Note_on_c, 1, 60, 0
3, 96, Note_on_c, 1, 52, 60
3, 96, Note_on_c, 1, 60, 60
3, 256, Note_on_c, 1, 52, 0
3, 256, Note_on_c, 1, 60, 0
3, 288, Note_on_c, 1, 53, 60
3, 288, Note_on_c, 1, 57, 60
3, 382, Note_on_c, 1, 53, 0
3, 382, Note_on_c, 1, 57, 0
3, 384, Note_on_c, 1, 49, 60
3, 384, Note_on_c, 1, 57, 60
3, 544, Note_on_c, 1, 49, 0
3, 544, Note_on_c, 1, 57, 0
3, 576, Note_on_c, 1, 50, 60
3, 576, Note_on_c, 1, 57, 60
3, 646, Note_on_c, 1, 50, 0
3, 646, Note_on_c, 1, 57, 0
3, 648, Note_on_c, 1, 48, 60
3, 648, Note_on_c, 1, 57, 60
3, 670, Note_on_c, 1, 48, 0
3, 670, Note_on_c, 1, 57, 0
3, 672, Note_on_c, 1, 46, 60
3, 672, Note_on_c, 1, 58, 60
3, 768, Note_on_c, 1, 46, 0
3, 768, Note_on_c, 1, 58, 0
3, 768, Note_on_c, 1, 46, 55
3, 768, Note_on_c, 1, 58, 55
3, 838, Note_on_c, 1, 46, 0
3, 838, Note_on_c, 1, 58, 0
3, 840, Note_on_c, 1, 45, 52
3, 840, Note_on_c, 1, 57, 52
3, 862, Note_on_c, 1, 45, 0
3, 862, Note_on_c, 1, 57, 0
3, 864, Note_on_c, 1, 43, 51
3, 864, Note_on_c, 1, 55, 51
3, 934, Note_on_c, 1, 43, 0
3, 934, Note_on_c, 1, 55, 0
3, 936, Note_on_c, 1, 46, 47
3, 936, Note_on_c, 1, 58, 47
3, 958, Note_on_c, 1, 46, 0
3, 958, Note_on_c, 1, 58, 0
3, 960, Note_on_c, 1, 48, 45
3, 1054, Note_on_c, 1, 48, 0
3, 1056, Note_on_c, 1, 36, 45
3, 1102, Note_on_c, 1, 36, 0
3, 1152, Note_on_c, 1, 57, 45
3, 1152, Note_on_c, 1, 60, 45
3, 1246, Note_on_c, 1, 57, 0
3, 1246, Note_on_c, 1, 60, 0
3, 1248, Note_on_c, 1, 52, 45
3, 1248, Note_on_c, 1, 60, 45
3, 1408, Note_on_c, 1, 52, 0
3, 1408, Note_on_c, 1, 60, 0
3, 1440, Note_on_c, 1, 53, 45
3, 1440, Note_on_c, 1, 57, 45
3, 1534, Note_on_c, 1, 53, 0
3, 1534, Note_on_c, 1, 57, 0
3, 1536, Note_on_c, 1, 49, 45
3, 1536, Note_on_c, 1, 57, 45
3, 1696, Note_on_c, 1, 49, 0
3, 1696, Note_on_c, 1, 57, 0
3, 1728, Note_on_c, 1, 50, 50
3, 1798, Note_on_c, 1, 50, 0
3, 1800, Note_on_c, 1, 46, 51
3, 1822, Note_on_c, 1, 46, 0
3, 1824, Note_on_c, 1, 48, 51
3, 1824, Note_on_c, 1, 48, 51
3, 1918, Note_on_c, 1, 48, 0
3, 1920, Note_on_c, 1, 36, 54
3, 1952, Note_on_c, 1, 36, 0
3, 2016, Note_on_c, 1, 36, 57
3, 2048, Note_on_c, 1, 36, 0
3, 2080, Note_on_c, 1, 48, 0
3, 2112, Note_on_c, 1, 41, 60
3, 2144, Note_on_c, 1, 41, 0
3, 2208, Note_on_c, 1, 29, 60
3, 2240, Note_on_c, 1, 29, 0
3, 2304, Note_on_c, 1, 53, 60
3, 2304, Note_on_c, 1, 57, 60
3, 2350, Note_on_c, 1, 53, 0
3, 2350, Note_on_c, 1, 57, 0
3, 2352, Note_on_c, 1, 60, 60
3, 2398, Note_on_c, 1, 60, 0
3, 2400, Note_on_c, 1, 55, 60
3, 2400, Note_on_c, 1, 58, 60
3, 2446, Note_on_c, 1, 55, 0
3, 2446, Note_on_c, 1, 58, 0
3, 2448, Note_on_c, 1, 60, 60
3, 2494, Note_on_c, 1, 60, 0
3, 2496, Note_on_c, 1, 48, 60
3, 2542, Note_on_c, 1, 48, 0
3, 2544, Note_on_c, 1, 60, 60
3, 2576, Note_on_c, 1, 60, 0
3, 2592, Note_on_c, 1, 58, 60
3, 2592, Note_on_c, 1, 64, 60
3, 2638, Note_on_c, 1, 58, 0
3, 2638, Note_on_c, 1, 64, 0
3, 2640, Note_on_c, 1, 60, 60
3, 2686, Note_on_c, 1, 60, 0
3, 2688, Note_on_c, 1, 57, 60
3, 2688, Note_on_c, 1, 65, 60
3, 2734, Note_on_c, 1, 57, 0
3, 2734, Note_on_c, 1, 65, 0
3, 2736, Note_on_c, 1, 60, 60
3, 2768, Note_on_c, 1, 60, 0
3, 2784, Note_on_c, 1, 60, 60
3, 2816, Note_on_c, 1, 60, 0
3, 2832, Note_on_c, 1, 60, 60
3, 2864, Note_on_c, 1, 60, 0
3, 2880, Note_on_c, 1, 53, 60
3, 2880, Note_on_c, 1, 57, 60
3, 2926, Note_on_c, 1, 53, 0
3, 2926, Note_on_c, 1, 57, 0
3, 2928, Note_on_c, 1, 60, 60
3, 2974, Note_on_c, 1, 60, 0
3, 2976, Note_on_c, 1, 55, 60
3, 2976, Note_on_c, 1, 58, 60
3, 3022, Note_on_c, 1, 55, 0
3, 3022, Note_on_c, 1, 58, 0
3, 3024, Note_on_c, 1, 60, 60
3, 3070, Note_on_c, 1, 60, 0
3, 3072, Note_on_c, 1, 48, 60
3, 3118, Note_on_c, 1, 48, 0
3, 3120, Note_on_c, 1, 60, 60
3, 3166, Note_on_c, 1, 60, 0
3, 3168, Note_on_c, 1, 58, 60
3, 3168, Note_on_c, 1, 64, 60
3, 3214, Note_on_c, 1, 58, 0
3, 3214, Note_on_c, 1, 64, 0
3, 3216, Note_on_c, 1, 60, 60
3, 3262, Note_on_c, 1, 60, 0
3, 3264, Note_on_c, 1, 57, 60
3, 3264, Note_on_c, 1, 65, 60
3, 3310, Note_on_c, 1, 57, 0
3, 3312, Note_on_c, 1, 60, 60
3, 3358, Note_on_c, 1, 60, 0
3, 3360, Note_on_c, 1, 60, 60
3, 3406, Note_on_c, 1, 65, 0
3, 3406, Note_on_c, 1, 60, 0
3, 3408, Note_on_c, 1, 58, 60
3, 3408, Note_on_c, 1, 60, 60
3, 3408, Note_on_c, 1, 67, 60
3, 3454, Note_on_c, 1, 58, 0
3, 3454, Note_on_c, 1, 60, 0
3, 3454, Note_on_c, 1, 67, 0
3, 3456, Note_on_c, 1, 57, 60
3, 3456, Note_on_c, 1, 60, 60
3, 3456, Note_on_c, 1, 65, 60
3, 3502, Note_on_c, 1, 57, 0
3, 3502, Note_on_c, 1, 60, 0
3, 3502, Note_on_c, 1, 65, 0
3, 3504, Note_on_c, 1, 58, 60
3, 3504, Note_on_c, 1, 60, 60
3, 3504, Note_on_c, 1, 67, 60
3, 3550, Note_on_c, 1, 58, 0
3, 3550, Note_on_c, 1, 60, 0
3, 3550, Note_on_c, 1, 67, 0
3, 3552, Note_on_c, 1, 57, 60
3, 3552, Note_on_c, 1, 65, 60
3, 3598, Note_on_c, 1, 57, 0
3, 3600, Note_on_c, 1, 60, 60
3, 3646, Note_on_c, 1, 60, 0
3, 3648, Note_on_c, 1, 60, 60
3, 3694, Note_on_c, 1, 65, 0
3, 3694, Note_on_c, 1, 60, 0
3, 3696, Note_on_c, 1, 58, 60
3, 3696, Note_on_c, 1, 60, 60
3, 3696, Note_on_c, 1, 67, 60
3, 3742, Note_on_c, 1, 58, 0
3, 3742, Note_on_c, 1, 60, 0
3, 3742, Note_on_c, 1, 67, 0
3, 3744, Note_on_c, 1, 57, 60
3, 3744, Note_on_c, 1, 60, 60
3, 3744, Note_on_c, 1, 65, 60
3, 3790, Note_on_c, 1, 57, 0
3, 3790, Note_on_c, 1, 60, 0
3, 3790, Note_on_c, 1, 65, 0
3, 3792, Note_on_c, 1, 58, 60
3, 3792, Note_on_c, 1, 60, 60
3, 3792, Note_on_c, 1, 67, 60
3, 3838, Note_on_c, 1, 58, 0
3, 3838, Note_on_c, 1, 60, 0
3, 3838, Note_on_c, 1, 67, 0
3, 3840, Note_on_c, 1, 57, 60
3, 3840, Note_on_c, 1, 60, 60
3, 3840, Note_on_c, 1, 65, 60
3, 3886, Note_on_c, 1, 57, 0
3, 3886, Note_on_c, 1, 60, 0
3, 3886, Note_on_c, 1, 65, 0
3, 3888, Note_on_c, 1, 58, 60
3, 3888, Note_on_c, 1, 60, 60
3, 3888, Note_on_c, 1, 67, 60
3, 3934, Note_on_c, 1, 58, 0
3, 3934, Note_on_c, 1, 60, 0
3, 3934, Note_on_c, 1, 67, 0
3, 3936, Note_on_c, 1, 57, 60
3, 3936, Note_on_c, 1, 60, 60
3, 3936, Note_on_c, 1, 65, 60
3, 3982, Note_on_c, 1, 57, 0
3, 3982, Note_on_c, 1, 60, 0
3, 3982, Note_on_c, 1, 65, 0
3, 3984, Note_on_c, 1, 58, 60
3, 3984, Note_on_c, 1, 60, 60
3, 3984, Note_on_c, 1, 67, 60
3, 4030, Note_on_c, 1, 58, 0
3, 4030, Note_on_c, 1, 60, 0
3, 4030, Note_on_c, 1, 67, 0
3, 4032, Note_on_c, 1, 57, 60
3, 4032, Note_on_c, 1, 60, 60
3, 4032, Note_on_c, 1, 65, 60
3, 4078, Note_on_c, 1, 57, 0
3, 4078, Note_on_c, 1, 60, 0
3, 4078, Note_on_c, 1, 65, 0
3, 4080, Note_on_c, 1, 58, 60
3, 4080, Note_on_c, 1, 60, 60
3, 4080, Note_on_c, 1, 67, 60
3, 4126, Note_on_c, 1, 58, 0
3, 4126, Note_on_c, 1, 60, 0
3, 4126, Note_on_c, 1, 67, 0
3, 4128, Note_on_c, 1, 57, 60
3, 4128, Note_on_c, 1, 60, 60
3, 4128, Note_on_c, 1, 65, 60
3, 4222, Note_on_c, 1, 57, 0
3, 4222, Note_on_c, 1, 60, 0
3, 4222, Note_on_c, 1, 65, 0
3, 4704, Note_on_c, 1, 37, 30
3, 4736, Note_on_c, 1, 37, 0
3, 4800, Note_on_c, 1, 37, 30
3, 4832, Note_on_c, 1, 37, 0
3, 4896, Note_on_c, 1, 37, 30
3, 4928, Note_on_c, 1, 37, 0
3, 4992, Note_on_c, 1, 37, 30
3, 5024, Note_on_c, 1, 37, 0
3, 5088, Note_on_c, 1, 37, 30
3, 5120, Note_on_c, 1, 37, 0
3, 5184, Note_on_c, 1, 37, 30
3, 5216, Note_on_c, 1, 37, 0
3, 5280, Note_on_c, 1, 37, 30
3, 5312, Note_on_c, 1, 37, 0
3, 5376, Note_on_c, 1, 37, 30
3, 5408, Note_on_c, 1, 37, 0
3, 5472, Note_on_c, 1, 37, 30
3, 5504, Note_on_c, 1, 37, 0
3, 5568, Note_on_c, 1, 37, 30
3, 5662, Note_on_c, 1, 37, 0
3, 5664, Note_on_c, 1, 37, 30
3, 5758, Note_on_c, 1, 37, 0
3, 5760, Note_on_c, 1, 37, 30
3, 5760, Note_on_c, 1, 49, 30
3, 5830, Note_on_c, 1, 49, 0
3, 5832, Note_on_c, 1, 48, 30
3, 5854, Note_on_c, 1, 37, 0
3, 5854, Note_on_c, 1, 48, 0
3, 5856, Note_on_c, 1, 37, 30
3, 5856, Note_on_c, 1, 47, 30
3, 5888, Note_on_c, 1, 37, 0
3, 5888, Note_on_c, 1, 47, 0
3, 5952, Note_on_c, 1, 37, 50
3, 5952, Note_on_c, 1, 47, 50
3, 5984, Note_on_c, 1, 37, 0
3, 5984, Note_on_c, 1, 47, 0
3, 6048, Note_on_c, 1, 37, 71
3, 6048, Note_on_c, 1, 47, 71
3, 6080, Note_on_c, 1, 37, 0
3, 6080, Note_on_c, 1, 47, 0
3, 6144, Note_on_c, 1, 36, 92
3, 6238, Note_on_c, 1, 36, 0
3, 6240, Note_on_c, 1, 48, 92
3, 6336, Note_on_c, 1, 45, 45
3, 6400, Note_on_c, 1, 48, 0
3, 6430, Note_on_c, 1, 45, 0
3, 6432, Note_on_c, 1, 40, 45
3, 6432, Note_on_c, 1, 48, 45
3, 6592, Note_on_c, 1, 40, 0
3, 6592, Note_on_c, 1, 48, 0
3, 6624, Note_on_c, 1, 41, 45
3, 6624, Note_on_c, 1, 48, 45
3, 6718, Note_on_c, 1, 41, 0
3, 6718, Note_on_c, 1, 48, 0
3, 6720, Note_on_c, 1, 36, 45
3, 6720, Note_on_c, 1, 48, 45
3, 6814, Note_on_c, 1, 36, 0
3, 6814, Note_on_c, 1, 48, 0
3, 6816, Note_on_c, 1, 37, 45
3, 6816, Note_on_c, 1, 49, 45
3, 6910, Note_on_c, 1, 37, 0
3, 6910, Note_on_c, 1, 49, 0
3, 6912, Note_on_c, 1, 38, 45
3, 6912, Note_on_c, 1, 50, 45
3, 6982, Note_on_c, 1, 38, 0
3, 6982, Note_on_c, 1, 50, 0
3, 6984, Note_on_c, 1, 36, 45
3, 6984, Note_on_c, 1, 48, 45
3, 7006, Note_on_c, 1, 36, 0
3, 7006, Note_on_c, 1, 48, 0
3, 7008, Note_on_c, 1, 34, 45
3, 7008, Note_on_c, 1, 46, 45
3, 7104, Note_on_c, 1, 34, 0
3, 7104, Note_on_c, 1, 46, 0
3, 7104, Note_on_c, 1, 34, 45
3, 7104, Note_on_c, 1, 46, 45
3, 7174, Note_on_c, 1, 34, 0
3, 7174, Note_on_c, 1, 46, 0
3, 7176, Note_on_c, 1, 33, 45
3, 7176, Note_on_c, 1, 45, 45
3, 7198, Note_on_c, 1, 33, 0
3, 7198, Note_on_c, 1, 45, 0
3, 7200, Note_on_c, 1, 31, 45
3, 7200, Note_on_c, 1, 43, 45
3, 7270, Note_on_c, 1, 31, 0
3, 7270, Note_on_c, 1, 43, 0
3, 7272, Note_on_c, 1, 34, 45
3, 7272, Note_on_c, 1, 46, 45
3, 7294, Note_on_c, 1, 34, 0
3, 7294, Note_on_c, 1, 46, 0
3, 7296, Note_on_c, 1, 36, 45
3, 7296, Note_on_c, 1, 48, 45
3, 7328, Note_on_c, 1, 36, 0
3, 7328, Note_on_c, 1, 48, 0
3, 7392, Note_on_c, 1, 36, 45
3, 7424, Note_on_c, 1, 36, 0
3, 7488, Note_on_c, 1, 45, 45
3, 7488, Note_on_c, 1, 48, 45
3, 7488, Note_on_c, 1, 57, 45
3, 7582, Note_on_c, 1, 45, 0
3, 7582, Note_on_c, 1, 48, 0
3, 7582, Note_on_c, 1, 57, 0
3, 7584, Note_on_c, 1, 40, 45
3, 7584, Note_on_c, 1, 48, 45
3, 7584, Note_on_c, 1, 52, 45
3, 7744, Note_on_c, 1, 40, 0
3, 7744, Note_on_c, 1, 48, 0
3, 7744, Note_on_c, 1, 52, 0
3, 7776, Note_on_c, 1, 41, 45
3, 7776, Note_on_c, 1, 48, 45
3, 7776, Note_on_c, 1, 53, 45
3, 7870, Note_on_c, 1, 41, 0
3, 7870, Note_on_c, 1, 48, 0
3, 7870, Note_on_c, 1, 53, 0
3, 7872, Note_on_c, 1, 37, 45
3, 7872, Note_on_c, 1, 45, 45
3, 7872, Note_on_c, 1, 49, 45
3, 8032, Note_on_c, 1, 37, 0
3, 8032, Note_on_c, 1, 45, 0
3, 8032, Note_on_c, 1, 49, 0
3, 8064, Note_on_c, 1, 38, 50
3, 8064, Note_on_c, 1, 50, 50
3, 8134, Note_on_c, 1, 38, 0
3, 8134, Note_on_c, 1, 50, 0
3, 8136, Note_on_c, 1, 34, 51
3, 8136, Note_on_c, 1, 46, 51
3, 8158, Note_on_c, 1, 34, 0
3, 8158, Note_on_c, 1, 46, 0
3, 8160, Note_on_c, 1, 36, 71
3, 8160, Note_on_c, 1, 48, 51
3, 8192, Note_on_c, 1, 36, 0
3, 8256, Note_on_c, 1, 36, 54
3, 8288, Note_on_c, 1, 36, 0
3, 8320, Note_on_c, 1, 48, 0
3, 8352, Note_on_c, 1, 36, 57
3, 8352, Note_on_c, 1, 48, 57
3, 8384, Note_on_c, 1, 36, 0
3, 8384, Note_on_c, 1, 48, 0
3, 8448, Note_on_c, 1, 41, 60
3, 8480, Note_on_c, 1, 41, 0
3, 8544, Note_on_c, 1, 29, 60
3, 8576, Note_on_c, 1, 29, 0
3, 8640, Note_on_c, 1, 50, 60
3, 8640, Note_on_c, 1, 48, 60
3, 8662, Note_on_c, 1, 48, 0
3, 8664, Note_on_c, 1, 50, 0
3, 8664, Note_on_c, 1, 47, 60
3, 8686, Note_on_c, 1, 47, 0
3, 8688, Note_on_c, 1, 48, 60
3, 8710, Note_on_c, 1, 48, 0
3, 8712, Note_on_c, 1, 50, 60
3, 8734, Note_on_c, 1, 50, 0
3, 8736, Note_on_c, 1, 48, 60
3, 8928, Note_on_c, 1, 41, 60
3, 8992, Note_on_c, 1, 48, 0
3, 9022, Note_on_c, 1, 41, 0
3, 9024, Note_on_c, 1, 43, 60
3, 9024, Note_on_c, 1, 48, 60
3, 9118, Note_on_c, 1, 43, 0
3, 9120, Note_on_c, 1, 36, 60
3, 9152, Note_on_c, 1, 36, 0
3, 9184, Note_on_c, 1, 48, 0
3, 9216, Note_on_c, 1, 50, 60
3, 9216, Note_on_c, 1, 48, 60
3, 9238, Note_on_c, 1, 48, 0
3, 9240, Note_on_c, 1, 50, 0
3, 9240, Note_on_c, 1, 47, 60
3, 9262, Note_on_c, 1, 47, 0
3, 9264, Note_on_c, 1, 48, 60
3, 9286, Note_on_c, 1, 48, 0
3, 9288, Note_on_c, 1, 50, 60
3, 9310, Note_on_c, 1, 50, 0
3, 9312, Note_on_c, 1, 48, 60
3, 9504, Note_on_c, 1, 43, 60
3, 9568, Note_on_c, 1, 48, 0
3, 9598, Note_on_c, 1, 43, 0
3, 9600, Note_on_c, 1, 45, 60
3, 9600, Note_on_c, 1, 48, 60
3, 9632, Note_on_c, 1, 45, 0
3, 9696, Note_on_c, 1, 36, 60
3, 9728, Note_on_c, 1, 36, 0
3, 9760, Note_on_c, 1, 48, 0
3, 9792, Note_on_c, 1, 50, 60
3, 9792, Note_on_c, 1, 48, 60
3, 9814, Note_on_c, 1, 48, 0
3, 9816, Note_on_c, 1, 50, 0
3, 9816, Note_on_c, 1, 47, 60
3, 9838, Note_on_c, 1, 47, 0
3, 9840, Note_on_c, 1, 48, 60
3, 9862, Note_on_c, 1, 48, 0
3, 9864, Note_on_c, 1, 50, 60
3, 9886, Note_on_c, 1, 50, 0
3, 9888, Note_on_c, 1, 48, 60
3, 9984, Note_on_c, 1, 45, 60
3, 10078, Note_on_c, 1, 45, 0
3, 10080, Note_on_c, 1, 43, 60
3, 10144, Note_on_c, 1, 48, 0
3, 10174, Note_on_c, 1, 43, 0
3, 10176, Note_on_c, 1, 48, 60
3, 10272, Note_on_c, 1, 41, 60
3, 10366, Note_on_c, 1, 41, 0
3, 10368, Note_on_c, 1, 40, 60
3, 10432, Note_on_c, 1, 48, 0
3, 10462, Note_on_c, 1, 40, 0
3, 10464, Note_on_c, 1, 41, 60
3, 10464, Note_on_c, 1, 48, 60
3, 10496, Note_on_c, 1, 48, 0
3, 10512, Note_on_c, 1, 49, 60
3, 10544, Note_on_c, 1, 49, 0
3, 10560, Note_on_c, 1, 50, 60
3, 10592, Note_on_c, 1, 50, 0
3, 10608, Note_on_c, 1, 52, 60
3, 10624, Note_on_c, 1, 41, 0
3, 10640, Note_on_c, 1, 52, 0
3, 10656, Note_on_c, 1, 41, 60
3, 10656, Note_on_c, 1, 53, 60
3, 10688, Note_on_c, 1, 41, 0
3, 10688, Note_on_c, 1, 53, 0
3, 10704, Note_on_c, 1, 42, 60
3, 10704, Note_on_c, 1, 54, 60
3, 10736, Note_on_c, 1, 42, 0
3, 10736, Note_on_c, 1, 54, 0
3, 10752, Note_on_c, 1, 43, 84
3, 10752, Note_on_c, 1, 55, 84
3, 10912, Note_on_c, 1, 43, 0
3, 10912, Note_on_c, 1, 55, 0
3, 11064, Note_on_c, 1, 63, 60
3, 11086, Note_on_c, 1, 63, 0
3, 11088, Note_on_c, 1, 65, 60
3, 11110, Note_on_c, 1, 65, 0
3, 11112, Note_on_c, 1, 64, 60
3, 11134, Note_on_c, 1, 64, 0
3, 11136, Note_on_c, 1, 60, 60
3, 11158, Note_on_c, 1, 60, 0
3, 11160, Note_on_c, 1, 59, 60
3, 11182, Note_on_c, 1, 59, 0
3, 11184, Note_on_c, 1, 62, 60
3, 11206, Note_on_c, 1, 62, 0
3, 11208, Note_on_c, 1, 60, 60
3, 11230, Note_on_c, 1, 60, 0
3, 11232, Note_on_c, 1, 64, 60
3, 11254, Note_on_c, 1, 64, 0
3, 11256, Note_on_c, 1, 63, 60
3, 11278, Note_on_c, 1, 63, 0
3, 11280, Note_on_c, 1, 64, 60
3, 11302, Note_on_c, 1, 64, 0
3, 11304, Note_on_c, 1, 60, 60
3, 11326, Note_on_c, 1, 60, 0
3, 11328, Note_on_c, 1, 58, 60
3, 11422, Note_on_c, 1, 58, 0
3, 11424, Note_on_c, 1, 59, 60
3, 11470, Note_on_c, 1, 59, 0
3, 11640, Note_on_c, 1, 64, 60
3, 11662, Note_on_c, 1, 64, 0
3, 11664, Note_on_c, 1, 67, 60
3, 11686, Note_on_c, 1, 67, 0
3, 11688, Note_on_c, 1, 65, 60
3, 11710, Note_on_c, 1, 65, 0
3, 11712, Note_on_c, 1, 62, 60
3, 11734, Note_on_c, 1, 62, 0
3, 11736, Note_on_c, 1, 61, 60
3, 11758, Note_on_c, 1, 61, 0
3, 11760, Note_on_c, 1, 64, 60
3, 11782, Note_on_c, 1, 64, 0
3, 11784, Note_on_c, 1, 62, 60
3, 11806, Note_on_c, 1, 62, 0
3, 11808, Note_on_c, 1, 65, 60
3, 11808, Note_on_c, 1, 67, 60
3, 11830, Note_on_c, 1, 65, 0
3, 11832, Note_on_c, 1, 64, 60
3, 11854, Note_on_c, 1, 64, 0
3, 11856, Note_on_c, 1, 65, 60
3, 11878, Note_on_c, 1, 65, 0
3, 11880, Note_on_c, 1, 62, 60
3, 11902, Note_on_c, 1, 67, 0
3, 11902, Note_on_c, 1, 62, 0
3, 11904, Note_on_c, 1, 59, 60
3, 11904, Note_on_c, 1, 67, 60
3, 11998, Note_on_c, 1, 59, 0
3, 12000, Note_on_c, 1, 60, 60
3, 12046, Note_on_c, 1, 67, 0
3, 12046, Note_on_c, 1, 60, 0
3, 12192, Note_on_c, 1, 36, 60
3, 12352, Note_on_c, 1, 36, 0
3, 12384, Note_on_c, 1, 36, 60
3, 12406, Note_on_c, 1, 36, 0
3, 12408, Note_on_c, 1, 48, 60
3, 12424, Note_on_c, 1, 48, 0
3, 12432, Note_on_c, 1, 47, 60
3, 12448, Note_on_c, 1, 47, 0
3, 12456, Note_on_c, 1, 45, 60
3, 12472, Note_on_c, 1, 45, 0
3, 12480, Note_on_c, 1, 43, 60
3, 12496, Note_on_c, 1, 43, 0
3, 12504, Note_on_c, 1, 41, 60
3, 12520, Note_on_c, 1, 41, 0
3, 12528, Note_on_c, 1, 40, 60
3, 12544, Note_on_c, 1, 40, 0
3, 12552, Note_on_c, 1, 38, 60
3, 12568, Note_on_c, 1, 38, 0
3, 12576, Note_on_c, 1, 36, 60
3, 12592, Note_on_c, 1, 36, 0
3, 12600, Note_on_c, 1, 38, 60
3, 12616, Note_on_c, 1, 38, 0
3, 12624, Note_on_c, 1, 40, 60
3, 12640, Note_on_c, 1, 40, 0
3, 12648, Note_on_c, 1, 41, 60
3, 12664, Note_on_c, 1, 41, 0
3, 12672, Note_on_c, 1, 43, 60
3, 12688, Note_on_c, 1, 43, 0
3, 12696, Note_on_c, 1, 45, 60
3, 12712, Note_on_c, 1, 45, 0
3, 12720, Note_on_c, 1, 47, 60
3, 12736, Note_on_c, 1, 47, 0
3, 12744, Note_on_c, 1, 48, 60
3, 12760, Note_on_c, 1, 48, 0
3, 12768, Note_on_c, 1, 41, 60
3, 12768, Note_on_c, 1, 49, 60
3, 12790, Note_on_c, 1, 49, 0
3, 12792, Note_on_c, 1, 50, 62
3, 12808, Note_on_c, 1, 50, 0
3, 12816, Note_on_c, 1, 52, 64
3, 12832, Note_on_c, 1, 52, 0
3, 12840, Note_on_c, 1, 53, 66
3, 12856, Note_on_c, 1, 53, 0
3, 12862, Note_on_c, 1, 41, 0
3, 12864, Note_on_c, 1, 43, 68
3, 12864, Note_on_c, 1, 55, 68
3, 12958, Note_on_c, 1, 43, 0
3, 12958, Note_on_c, 1, 55, 0
3, 12960, Note_on_c, 1, 44, 80
3, 12960, Note_on_c, 1, 56, 80
3, 13054, Note_on_c, 1, 44, 0
3, 13054, Note_on_c, 1, 56, 0
3, 13056, Note_on_c, 1, 45, 92
3, 13056, Note_on_c, 1, 57, 92
3, 13102, Note_on_c, 1, 45, 0
3, 13102, Note_on_c, 1, 57, 0
3, 13104, Note_on_c, 1, 57, 92
3, 13104, Note_on_c, 1, 60, 92
3, 13150, Note_on_c, 1, 57, 0
3, 13150, Note_on_c, 1, 60, 0
3, 13152, Note_on_c, 1, 59, 92
3, 13152, Note_on_c, 1, 62, 92
3, 13198, Note_on_c, 1, 59, 0
3, 13198, Note_on_c, 1, 62, 0
3, 13200, Note_on_c, 1, 55, 92
3, 13246, Note_on_c, 1, 55, 0
3, 13248, Note_on_c, 1, 60, 92
3, 13294, Note_on_c, 1, 60, 0
3, 13296, Note_on_c, 1, 48, 92
3, 13342, Note_on_c, 1, 48, 0
3, 13344, Note_on_c, 1, 53, 60
3, 13344, Note_on_c, 1, 57, 60
3, 13376, Note_on_c, 1, 53, 0
3, 13376, Note_on_c, 1, 57, 0
3, 13536, Note_on_c, 1, 41, 60
3, 13536, Note_on_c, 1, 45, 60
3, 13536, Note_on_c, 1, 50, 60
3, 13568, Note_on_c, 1, 41, 0
3, 13568, Note_on_c, 1, 45, 0
3, 13568, Note_on_c, 1, 50, 0
3, 13632, Note_on_c, 1, 52, 60
3, 13632, Note_on_c, 1, 55, 60
3, 13728, Note_on_c, 1, 43, 60
3, 13792, Note_on_c, 1, 52, 0
3, 13792, Note_on_c, 1, 55, 0
3, 13822, Note_on_c, 1, 43, 0
3, 13824, Note_on_c, 1, 31, 60
3, 13824, Note_on_c, 1, 43, 60
3, 13824, Note_on_c, 1, 53, 60
3, 13824, Note_on_c, 1, 55, 60
3, 13918, Note_on_c, 1, 31, 0
3, 13918, Note_on_c, 1, 43, 0
3, 13918, Note_on_c, 1, 53, 0
3, 13918, Note_on_c, 1, 55, 0
3, 13920, Note_on_c, 1, 36, 60
3, 13920, Note_on_c, 1, 52, 60
3, 13920, Note_on_c, 1, 55, 60
3, 14014, Note_on_c, 1, 36, 0
3, 14016, Note_on_c, 1, 48, 84
3, 14080, Note_on_c, 1, 52, 0
3, 14080, Note_on_c, 1, 55, 0
3, 14176, Note_on_c, 1, 48, 0
3, 14208, Note_on_c, 1, 36, 60
3, 14208, Note_on_c, 1, 48, 60
3, 14302, Note_on_c, 1, 48, 0
3, 14304, Note_on_c, 1, 48, 84
3, 14464, Note_on_c, 1, 36, 0
3, 14464, Note_on_c, 1, 48, 0
3, 14496, Note_on_c, 1, 36, 60
3, 14496, Note_on_c, 1, 48, 60
3, 14542, Note_on_c, 1, 36, 0
3, 14542, Note_on_c, 1, 48, 0
3, 14544, Note_on_c, 1, 60, 60
3, 14590, Note_on_c, 1, 60, 0
3, 14592, Note_on_c, 1, 59, 60
3, 14638, Note_on_c, 1, 59, 0
3, 14640, Note_on_c, 1, 58, 60
3, 14686, Note_on_c, 1, 58, 0
3, 14688, Note_on_c, 1, 57, 60
3, 14734, Note_on_c, 1, 57, 0
3, 14736, Note_on_c, 1, 54, 60
3, 14782, Note_on_c, 1, 54, 0
3, 14784, Note_on_c, 1, 55, 60
3, 14830, Note_on_c, 1, 55, 0
3, 14832, Note_on_c, 1, 54, 60
3, 14878, Note_on_c, 1, 54, 0
3, 14880, Note_on_c, 1, 55, 60
3, 14926, Note_on_c, 1, 55, 0
3, 14928, Note_on_c, 1, 52, 60
3, 14974, Note_on_c, 1, 52, 0
3, 14976, Note_on_c, 1, 53, 60
3, 15022, Note_on_c, 1, 53, 0
3, 15024, Note_on_c, 1, 50, 60
3, 15070, Note_on_c, 1, 50, 0
3, 15072, Note_on_c, 1, 52, 60
3, 15118, Note_on_c, 1, 52, 0
3, 15120, Note_on_c, 1, 50, 60
3, 15166, Note_on_c, 1, 50, 0
3, 15168, Note_on_c, 1, 52, 60
3, 15214, Note_on_c, 1, 52, 0
3, 15216, Note_on_c, 1, 49, 60
3, 15262, Note_on_c, 1, 49, 0
3, 15264, Note_on_c, 1, 50, 60
3, 15310, Note_on_c, 1, 50, 0
3, 15312, Note_on_c, 1, 48, 60
3, 15358, Note_on_c, 1, 48, 0
3, 15360, Note_on_c, 1, 46, 60
3, 15406, Note_on_c, 1, 46, 0
3, 15408, Note_on_c, 1, 50, 60
3, 15454, Note_on_c, 1, 50, 0
3, 15456, Note_on_c, 1, 46, 60
3, 15502, Note_on_c, 1, 46, 0
3, 15504, Note_on_c, 1, 42, 60
3, 15550, Note_on_c, 1, 42, 0
3, 15552, Note_on_c, 1, 43, 60
3, 15598, Note_on_c, 1, 43, 0
3, 15600, Note_on_c, 1, 46, 60
3, 15646, Note_on_c, 1, 46, 0
3, 15648, Note_on_c, 1, 48, 60
3, 15694, Note_on_c, 1, 48, 0
3, 15696, Note_on_c, 1, 36, 60
3, 15742, Note_on_c, 1, 36, 0
3, 15744, Note_on_c, 1, 48, 60
3, 15790, Note_on_c, 1, 48, 0
3, 15792, Note_on_c, 1, 46, 60
3, 15838, Note_on_c, 1, 46, 0
3, 15840, Note_on_c, 1, 45, 60
3, 15886, Note_on_c, 1, 45, 0
3, 15888, Note_on_c, 1, 42, 60
3, 15934, Note_on_c, 1, 42, 0
3, 15936, Note_on_c, 1, 43, 60
3, 15982, Note_on_c, 1, 43, 0
3, 15984, Note_on_c, 1, 42, 60
3, 16030, Note_on_c, 1, 42, 0
3, 16032, Note_on_c, 1, 43, 60
3, 16078, Note_on_c, 1, 43, 0
3, 16080, Note_on_c, 1, 40, 60
3, 16126, Note_on_c, 1, 40, 0
3, 16128, Note_on_c, 1, 41, 60
3, 16174, Note_on_c, 1, 41, 0
3, 16176, Note_on_c, 1, 38, 60
3, 16222, Note_on_c, 1, 38, 0
3, 16224, Note_on_c, 1, 40, 60
3, 16270, Note_on_c, 1, 40, 0
3, 16272, Note_on_c, 1, 38, 59
3, 16318, Note_on_c, 1, 38, 0
3, 16320, Note_on_c, 1, 40, 58
3, 16366, Note_on_c, 1, 40, 0
3, 16368, Note_on_c, 1, 37, 57
3, 16414, Note_on_c, 1, 37, 0
3, 16416, Note_on_c, 1, 38, 56
3, 16462, Note_on_c, 1, 38, 0
3, 16464, Note_on_c, 1, 34, 55
3, 16510, Note_on_c, 1, 34, 0
3, 16512, Note_on_c, 1, 36, 54
3, 16512, Note_on_c, 1, 36, 54
3, 16558, Note_on_c, 1, 36, 0
3, 16560, Note_on_c, 1, 41, 53
3, 16606, Note_on_c, 1, 41, 0
3, 16608, Note_on_c, 1, 45, 52
3, 16654, Note_on_c, 1, 45, 0
3, 16656, Note_on_c, 1, 48, 51
3, 16672, Note_on_c, 1, 36, 0
3, 16702, Note_on_c, 1, 48, 0
3, 16704, Note_on_c, 1, 36, 49
3, 16704, Note_on_c, 1, 36, 49
3, 16750, Note_on_c, 1, 36, 0
3, 16752, Note_on_c, 1, 48, 47
3, 16798, Note_on_c, 1, 36, 0
3, 16798, Note_on_c, 1, 48, 0
3, 16800, Note_on_c, 1, 41, 45
3, 16846, Note_on_c, 1, 41, 0
3, 16848, Note_on_c, 1, 60, 45
3, 16894, Note_on_c, 1, 60, 0
3, 16896, Note_on_c, 1, 57, 45
3, 16942, Note_on_c, 1, 57, 0
3, 16944, Note_on_c, 1, 53, 45
3, 16990, Note_on_c, 1, 53, 0
3, 16992, Note_on_c, 1, 48, 45
3, 17038, Note_on_c, 1, 48, 0
3, 17040, Note_on_c, 1, 60, 45
3, 17086, Note_on_c, 1, 60, 0
3, 17088, Note_on_c, 1, 48, 45
3, 17088, Note_on_c, 1, 48, 45
3, 17134, Note_on_c, 1, 48, 0
3, 17136, Note_on_c, 1, 60, 45
3, 17182, Note_on_c, 1, 60, 0
3, 17184, Note_on_c, 1, 57, 45
3, 17230, Note_on_c, 1, 57, 0
3, 17232, Note_on_c, 1, 53, 45
3, 17248, Note_on_c, 1, 48, 0
3, 17278, Note_on_c, 1, 53, 0
3, 17280, Note_on_c, 1, 48, 45
3, 17280, Note_on_c, 1, 48, 45
3, 17326, Note_on_c, 1, 48, 0
3, 17328, Note_on_c, 1, 60, 45
3, 17374, Note_on_c, 1, 48, 0
3, 17374, Note_on_c, 1, 60, 0
3, 17376, Note_on_c, 1, 48, 45
3, 17376, Note_on_c, 1, 48, 45
3, 17422, Note_on_c, 1, 48, 0
3, 17424, Note_on_c, 1, 60, 45
3, 17470, Note_on_c, 1, 60, 0
3, 17472, Note_on_c, 1, 57, 45
3, 17518, Note_on_c, 1, 57, 0
3, 17520, Note_on_c, 1, 53, 45
3, 17536, Note_on_c, 1, 48, 0
3, 17566, Note_on_c, 1, 53, 0
3, 17568, Note_on_c, 1, 48, 45
3, 17568, Note_on_c, 1, 48, 45
3, 17614, Note_on_c, 1, 48, 0
3, 17616, Note_on_c, 1, 60, 45
3, 17662, Note_on_c, 1, 48, 0
3, 17662, Note_on_c, 1, 60, 0
3, 17664, Note_on_c, 1, 48, 45
3, 17664, Note_on_c, 1, 48, 45
3, 17710, Note_on_c, 1, 48, 0
3, 17712, Note_on_c, 1, 60, 45
3, 17758, Note_on_c, 1, 60, 0
3, 17760, Note_on_c, 1, 58, 45
3, 17806, Note_on_c, 1, 58, 0
3, 17808, Note_on_c, 1, 55, 45
3, 17824, Note_on_c, 1, 48, 0
3, 17854, Note_on_c, 1, 55, 0
3, 17856, Note_on_c, 1, 48, 45
3, 17902, Note_on_c, 1, 48, 0
3, 17904, Note_on_c, 1, 58, 45
3, 17904, Note_on_c, 1, 60, 45
3, 17950, Note_on_c, 1, 58, 0
3, 17950, Note_on_c, 1, 60, 0
3, 17952, Note_on_c, 1, 57, 45
3, 17952, Note_on_c, 1, 60, 45
3, 17998, Note_on_c, 1, 60, 0
3, 18000, Note_on_c, 1, 65, 45
3, 18046, Note_on_c, 1, 65, 0
3, 18048, Note_on_c, 1, 60, 45
3, 18094, Note_on_c, 1, 57, 0
3, 18094, Note_on_c, 1, 60, 0
3, 18096, Note_on_c, 1, 58, 45
3, 18096, Note_on_c, 1, 60, 45
3, 18096, Note_on_c, 1, 67, 45
3, 18142, Note_on_c, 1, 58, 0
3, 18142, Note_on_c, 1, 60, 0
3, 18142, Note_on_c, 1, 67, 0
3, 18144, Note_on_c, 1, 57, 45
3, 18144, Note_on_c, 1, 60, 45
3, 18144, Note_on_c, 1, 65, 45
3, 18190, Note_on_c, 1, 57, 0
3, 18190, Note_on_c, 1, 60, 0
3, 18190, Note_on_c, 1, 65, 0
3, 18192, Note_on_c, 1, 58, 45
3, 18192, Note_on_c, 1, 60, 45
3, 18192, Note_on_c, 1, 67, 45
3, 18238, Note_on_c, 1, 58, 0
3, 18238, Note_on_c, 1, 60, 0
3, 18238, Note_on_c, 1, 67, 0
3, 18240, Note_on_c, 1, 57, 45
3, 18240, Note_on_c, 1, 60, 45
3, 18286, Note_on_c, 1, 60, 0
3, 18288, Note_on_c, 1, 65, 45
3, 18334, Note_on_c, 1, 65, 0
3, 18336, Note_on_c, 1, 60, 45
3, 18382, Note_on_c, 1, 57, 0
3, 18382, Note_on_c, 1, 60, 0
3, 18384, Note_on_c, 1, 58, 45
3, 18384, Note_on_c, 1, 60, 45
3, 18384, Note_on_c, 1, 67, 45
3, 18430, Note_on_c, 1, 58, 0
3, 18430, Note_on_c, 1, 60, 0
3, 18430, Note_on_c, 1, 67, 0
3, 18432, Note_on_c, 1, 57, 45
3, 18432, Note_on_c, 1, 60, 45
3, 18432, Note_on_c, 1, 65, 45
3, 18478, Note_on_c, 1, 57, 0
3, 18478, Note_on_c, 1, 60, 0
3, 18478, Note_on_c, 1, 65, 0
3, 18480, Note_on_c, 1, 58, 45
3, 18480, Note_on_c, 1, 60, 45
3, 18480, Note_on_c, 1, 67, 45
3, 18526, Note_on_c, 1, 58, 0
3, 18526, Note_on_c, 1, 60, 0
3, 18526, Note_on_c, 1, 67, 0
3, 18528, Note_on_c, 1, 57, 45
3, 18528, Note_on_c, 1, 60, 45
3, 18528, Note_on_c, 1, 65, 45
3, 18574, Note_on_c, 1, 57, 0
3, 18574, Note_on_c, 1, 60, 0
3, 18574, Note_on_c, 1, 65, 0
3, 18576, Note_on_c, 1, 58, 45
3, 18576, Note_on_c, 1, 60, 45
3, 18576, Note_on_c, 1, 67, 45
3, 18622, Note_on_c, 1, 58, 0
3, 18622, Note_on_c, 1, 60, 0
3, 18622, Note_on_c, 1, 67, 0
3, 18624, Note_on_c, 1, 57, 45
3, 18624, Note_on_c, 1, 60, 45
3, 18624, Note_on_c, 1, 65, 45
3, 18670, Note_on_c, 1, 57, 0
3, 18670, Note_on_c, 1, 60, 0
3, 18670, Note_on_c, 1, 65, 0
3, 18672, Note_on_c, 1, 58, 45
3, 18672, Note_on_c, 1, 60, 45
3, 18672, Note_on_c, 1, 67, 45
3, 18718, Note_on_c, 1, 58, 0
3, 18718, Note_on_c, 1, 60, 0
3, 18718, Note_on_c, 1, 67, 0
3, 18720, Note_on_c, 1, 57, 45
3, 18720, Note_on_c, 1, 60, 45
3, 18720, Note_on_c, 1, 65, 45
3, 18766, Note_on_c, 1, 57, 0
3, 18766, Note_on_c, 1, 60, 0
3, 18766, Note_on_c, 1, 65, 0
3, 18768, Note_on_c, 1, 58, 45
3, 18768, Note_on_c, 1, 60, 45
3, 18768, Note_on_c, 1, 67, 45
3, 18814, Note_on_c, 1, 58, 0
3, 18814, Note_on_c, 1, 60, 0
3, 18814, Note_on_c, 1, 67, 0
3, 18816, Note_on_c, 1, 57, 45
3, 18816, Note_on_c, 1, 60, 45
3, 18816, Note_on_c, 1, 65, 45
3, 18910, Note_on_c, 1, 57, 0
3, 18910, Note_on_c, 1, 60, 0
3, 18910, Note_on_c, 1, 65, 0
3, 19392, Note_on_c, 1, 37, 30
3, 19392, Note_on_c, 1, 37, 30
3, 19438, Note_on_c, 1, 37, 0
3, 19440, Note_on_c, 1, 44, 30
3, 19486, Note_on_c, 1, 44, 0
3, 19488, Note_on_c, 1, 49, 30
3, 19534, Note_on_c, 1, 49, 0
3, 19536, Note_on_c, 1, 44, 30
3, 19582, Note_on_c, 1, 44, 0
3, 19584, Note_on_c, 1, 48, 30
3, 19630, Note_on_c, 1, 48, 0
3, 19632, Note_on_c, 1, 44, 30
3, 19648, Note_on_c, 1, 37, 0
3, 19678, Note_on_c, 1, 44, 0
3, 19680, Note_on_c, 1, 37, 30
3, 19680, Note_on_c, 1, 37, 30
3, 19726, Note_on_c, 1, 37, 0
3, 19728, Note_on_c, 1, 44, 30
3, 19774, Note_on_c, 1, 44, 0
3, 19776, Note_on_c, 1, 49, 30
3, 19822, Note_on_c, 1, 49, 0
3, 19824, Note_on_c, 1, 44, 30
3, 19870, Note_on_c, 1, 44, 0
3, 19872, Note_on_c, 1, 48, 30
3, 19918, Note_on_c, 1, 48, 0
3, 19920, Note_on_c, 1, 44, 30
3, 19936, Note_on_c, 1, 37, 0
3, 19966, Note_on_c, 1, 44, 0
3, 19968, Note_on_c, 1, 37, 30
3, 19968, Note_on_c, 1, 37, 30
3, 20014, Note_on_c, 1, 37, 0
3, 20016, Note_on_c, 1, 44, 30
3, 20062, Note_on_c, 1, 44, 0
3, 20064, Note_on_c, 1, 49, 30
3, 20110, Note_on_c, 1, 49, 0
3, 20112, Note_on_c, 1, 44, 30
3, 20158, Note_on_c, 1, 44, 0
3, 20160, Note_on_c, 1, 48, 30
3, 20206, Note_on_c, 1, 48, 0
3, 20208, Note_on_c, 1, 44, 30
3, 20224, Note_on_c, 1, 37, 0
3, 20254, Note_on_c, 1, 44, 0
3, 20256, Note_on_c, 1, 37, 30
3, 20256, Note_on_c, 1, 37, 30
3, 20302, Note_on_c, 1, 37, 0
3, 20304, Note_on_c, 1, 44, 31
3, 20350, Note_on_c, 1, 44, 0
3, 20352, Note_on_c, 1, 49, 32
3, 20398, Note_on_c, 1, 49, 0
3, 20400, Note_on_c, 1, 44, 33
3, 20446, Note_on_c, 1, 44, 0
3, 20448, Note_on_c, 1, 41, 34
3, 20494, Note_on_c, 1, 41, 0
3, 20496, Note_on_c, 1, 44, 35
3, 20512, Note_on_c, 1, 37, 0
3, 20542, Note_on_c, 1, 44, 0
3, 20544, Note_on_c, 1, 37, 36
3, 20544, Note_on_c, 1, 41, 36
3, 20590, Note_on_c, 1, 41, 0
3, 20592, Note_on_c, 1, 44, 37
3, 20638, Note_on_c, 1, 37, 0
3, 20638, Note_on_c, 1, 44, 0
3, 20640, Note_on_c, 1, 37, 38
3, 20640, Note_on_c, 1, 41, 38
3, 20686, Note_on_c, 1, 41, 0
3, 20688, Note_on_c, 1, 44, 39
3, 20734, Note_on_c, 1, 37, 0
3, 20734, Note_on_c, 1, 44, 0
3, 20736, Note_on_c, 1, 37, 41
3, 20736, Note_on_c, 1, 41, 41
3, 20782, Note_on_c, 1, 41, 0
3, 20784, Note_on_c, 1, 44, 43
3, 20830, Note_on_c, 1, 37, 0
3, 20830, Note_on_c, 1, 44, 0
3, 20832, Note_on_c, 1, 36, 45
3, 20878, Note_on_c, 1, 36, 0
3, 20880, Note_on_c, 1, 48, 45
3, 20926, Note_on_c, 1, 48, 0
3, 20928, Note_on_c, 1, 47, 45
3, 20974, Note_on_c, 1, 47, 0
3, 20976, Note_on_c, 1, 46, 45
3, 21022, Note_on_c, 1, 46, 0
3, 21024, Note_on_c, 1, 45, 45
3, 21070, Note_on_c, 1, 45, 0
3, 21072, Note_on_c, 1, 42, 45
3, 21118, Note_on_c, 1, 42, 0
3, 21120, Note_on_c, 1, 43, 45
3, 21166, Note_on_c, 1, 43, 0
3, 21168, Note_on_c, 1, 42, 45
3, 21214, Note_on_c, 1, 42, 0
3, 21216, Note_on_c, 1, 43, 45
3, 21262, Note_on_c, 1, 43, 0
3, 21264, Note_on_c, 1, 40, 45
3, 21310, Note_on_c, 1, 40, 0
3, 21312, Note_on_c, 1, 41, 45
3, 21358, Note_on_c, 1, 41, 0
3, 21360, Note_on_c, 1, 38, 45
3, 21406, Note_on_c, 1, 38, 0
3, 21408, Note_on_c, 1, 40, 45
3, 21454, Note_on_c, 1, 40, 0
3, 21456, Note_on_c, 1, 38, 45
3, 21502, Note_on_c, 1, 38, 0
3, 21504, Note_on_c, 1, 40, 45
3, 21550, Note_on_c, 1, 40, 0
3, 21552, Note_on_c, 1, 37, 45
3, 21598, Note_on_c, 1, 37, 0
3, 21600, Note_on_c, 1, 38, 45
3, 21646, Note_on_c, 1, 38, 0
3, 21648, Note_on_c, 1, 36, 45
3, 21694, Note_on_c, 1, 36, 0
3, 21696, Note_on_c, 1, 34, 45
3, 21742, Note_on_c, 1, 34, 0
3, 21744, Note_on_c, 1, 38, 47
3, 21790, Note_on_c, 1, 38, 0
3, 21792, Note_on_c, 1, 34, 49
3, 21838, Note_on_c, 1, 34, 0
3, 21840, Note_on_c, 1, 30, 51
3, 21886, Note_on_c, 1, 30, 0
3, 21888, Note_on_c, 1, 31, 54
3, 21934, Note_on_c, 1, 31, 0
3, 21936, Note_on_c, 1, 34, 57
3, 21982, Note_on_c, 1, 34, 0
3, 21984, Note_on_c, 1, 36, 60
3, 22030, Note_on_c, 1, 36, 0
3, 22032, Note_on_c, 1, 48, 60
3, 22032, Note_on_c, 1, 48, 60
3, 22078, Note_on_c, 1, 48, 0
3, 22080, Note_on_c, 1, 47, 60
3, 22126, Note_on_c, 1, 47, 0
3, 22128, Note_on_c, 1, 46, 60
3, 22174, Note_on_c, 1, 48, 0
3, 22174, Note_on_c, 1, 46, 0
3, 22176, Note_on_c, 1, 45, 60
3, 22176, Note_on_c, 1, 48, 60
3, 22222, Note_on_c, 1, 45, 0
3, 22224, Note_on_c, 1, 42, 60
3, 22270, Note_on_c, 1, 48, 0
3, 22270, Note_on_c, 1, 42, 0
3, 22272, Note_on_c, 1, 43, 60
3, 22272, Note_on_c, 1, 48, 60
3, 22318, Note_on_c, 1, 43, 0
3, 22320, Note_on_c, 1, 42, 60
3, 22366, Note_on_c, 1, 42, 0
3, 22368, Note_on_c, 1, 43, 60
3, 22414, Note_on_c, 1, 43, 0
3, 22416, Note_on_c, 1, 40, 60
3, 22432, Note_on_c, 1, 48, 0
3, 22462, Note_on_c, 1, 40, 0
3, 22464, Note_on_c, 1, 41, 60
3, 22464, Note_on_c, 1, 45, 60
3, 22510, Note_on_c, 1, 41, 0
3, 22512, Note_on_c, 1, 38, 60
3, 22558, Note_on_c, 1, 45, 0
3, 22558, Note_on_c, 1, 38, 0
3, 22560, Note_on_c, 1, 40, 60
3, 22560, Note_on_c, 1, 45, 60
3, 22606, Note_on_c, 1, 40, 0
3, 22608, Note_on_c, 1, 38, 60
3, 22654, Note_on_c, 1, 38, 0
3, 22656, Note_on_c, 1, 40, 60
3, 22702, Note_on_c, 1, 40, 0
3, 22704, Note_on_c, 1, 37, 60
3, 22720, Note_on_c, 1, 45, 0
3, 22750, Note_on_c, 1, 37, 0
3, 22752, Note_on_c, 1, 38, 60
3, 22752, Note_on_c, 1, 45, 60
3, 22798, Note_on_c, 1, 38, 0
3, 22798, Note_on_c, 1, 45, 0
3, 22800, Note_on_c, 1, 34, 60
3, 22800, Note_on_c, 1, 46, 60
3, 22846, Note_on_c, 1, 34, 0
3, 22846, Note_on_c, 1, 46, 0
3, 22848, Note_on_c, 1, 36, 92
3, 22848, Note_on_c, 1, 36, 92
3, 22894, Note_on_c, 1, 36, 0
3, 22896, Note_on_c, 1, 41, 89
3, 22942, Note_on_c, 1, 41, 0
3, 22944, Note_on_c, 1, 45, 85
3, 22990, Note_on_c, 1, 45, 0
3, 22992, Note_on_c, 1, 48, 81
3, 23008, Note_on_c, 1, 36, 0
3, 23038, Note_on_c, 1, 48, 0
3, 23040, Note_on_c, 1, 36, 77
3, 23040, Note_on_c, 1, 36, 77
3, 23086, Note_on_c, 1, 36, 0
3, 23088, Note_on_c, 1, 48, 73
3, 23134, Note_on_c, 1, 36, 0
3, 23134, Note_on_c, 1, 48, 0
3, 23136, Note_on_c, 1, 41, 69
3, 23168, Note_on_c, 1, 41, 0
3, 23232, Note_on_c, 1, 29, 61
3, 23264, Note_on_c, 1, 29, 0
3, 23424, Note_on_c, 1, 46, 45
3, 23456, Note_on_c, 1, 46, 0
3, 23472, Note_on_c, 1, 58, 45
3, 23472, Note_on_c, 1, 62, 45
3, 23472, Note_on_c, 1, 65, 45
3, 23504, Note_on_c, 1, 58, 0
3, 23504, Note_on_c, 1, 62, 0
3, 23504, Note_on_c, 1, 65, 0
3, 23520, Note_on_c, 1, 58, 45
3, 23520, Note_on_c, 1, 62, 45
3, 23520, Note_on_c, 1, 65, 45
3, 23552, Note_on_c, 1, 58, 0
3, 23552, Note_on_c, 1, 62, 0
3, 23552, Note_on_c, 1, 65, 0
3, 23568, Note_on_c, 1, 58, 45
3, 23568, Note_on_c, 1, 62, 45
3, 23568, Note_on_c, 1, 65, 45
3, 23600, Note_on_c, 1, 58, 0
3, 23600, Note_on_c, 1, 62, 0
3, 23600, Note_on_c, 1, 65, 0
3, 23616, Note_on_c, 1, 58, 45
3, 23616, Note_on_c, 1, 62, 45
3, 23616, Note_on_c, 1, 65, 45
3, 23648, Note_on_c, 1, 58, 0
3, 23648, Note_on_c, 1, 62, 0
3, 23648, Note_on_c, 1, 65, 0
3, 23664, Note_on_c, 1, 58, 45
3, 23664, Note_on_c, 1, 62, 45
3, 23664, Note_on_c, 1, 65, 45
3, 23696, Note_on_c, 1, 58, 0
3, 23696, Note_on_c, 1, 62, 0
3, 23696, Note_on_c, 1, 65, 0
3, 23712, Note_on_c, 1, 46, 45
3, 23744, Note_on_c, 1, 46, 0
3, 23760, Note_on_c, 1, 58, 45
3, 23760, Note_on_c, 1, 63, 45
3, 23760, Note_on_c, 1, 67, 45
3, 23792, Note_on_c, 1, 58, 0
3, 23792, Note_on_c, 1, 63, 0
3, 23792, Note_on_c, 1, 67, 0
3, 23808, Note_on_c, 1, 58, 45
3, 23808, Note_on_c, 1, 63, 45
3, 23808, Note_on_c, 1, 67, 45
3, 23840, Note_on_c, 1, 58, 0
3, 23840, Note_on_c, 1, 63, 0
3, 23840, Note_on_c, 1, 67, 0
3, 23856, Note_on_c, 1, 58, 45
3, 23856, Note_on_c, 1, 63, 45
3, 23856, Note_on_c, 1, 67, 45
3, 23888, Note_on_c, 1, 58, 0
3, 23888, Note_on_c, 1, 63, 0
3, 23888, Note_on_c, 1, 67, 0
3, 23904, Note_on_c, 1, 58, 45
3, 23904, Note_on_c, 1, 63, 45
3, 23904, Note_on_c, 1, 67, 45
3, 23936, Note_on_c, 1, 58, 0
3, 23936, Note_on_c, 1, 63, 0
3, 23936, Note_on_c, 1, 67, 0
3, 23952, Note_on_c, 1, 58, 45
3, 23952, Note_on_c, 1, 63, 45
3, 23952, Note_on_c, 1, 67, 45
3, 23984, Note_on_c, 1, 58, 0
3, 23984, Note_on_c, 1, 63, 0
3, 23984, Note_on_c, 1, 67, 0
3, 24000, Note_on_c, 1, 50, 45
3, 24032, Note_on_c, 1, 50, 0
3, 24048, Note_on_c, 1, 58, 45
3, 24048, Note_on_c, 1, 60, 45
3, 24048, Note_on_c, 1, 63, 45
3, 24048, Note_on_c, 1, 65, 45
3, 24080, Note_on_c, 1, 58, 0
3, 24080, Note_on_c, 1, 60, 0
3, 24080, Note_on_c, 1, 63, 0
3, 24080, Note_on_c, 1, 65, 0
3, 24096, Note_on_c, 1, 58, 45
3, 24096, Note_on_c, 1, 60, 45
3, 24096, Note_on_c, 1, 63, 45
3, 24096, Note_on_c, 1, 65, 45
3, 24128, Note_on_c, 1, 58, 0
3, 24128, Note_on_c, 1, 60, 0
3, 24128, Note_on_c, 1, 63, 0
3, 24128, Note_on_c, 1, 65, 0
3, 24144, Note_on_c, 1, 58, 45
3, 24144, Note_on_c, 1, 60, 45
3, 24144, Note_on_c, 1, 63, 45
3, 24144, Note_on_c, 1, 65, 45
3, 24176, Note_on_c, 1, 58, 0
3, 24176, Note_on_c, 1, 60, 0
3, 24176, Note_on_c, 1, 63, 0
3, 24176, Note_on_c, 1, 65, 0
3, 24192, Note_on_c, 1, 58, 45
3, 24192, Note_on_c, 1, 60, 45
3, 24192, Note_on_c, 1, 63, 45
3, 24192, Note_on_c, 1, 65, 45
3, 24224, Note_on_c, 1, 58, 0
3, 24224, Note_on_c, 1, 60, 0
3, 24224, Note_on_c, 1, 63, 0
3, 24224, Note_on_c, 1, 65, 0
3, 24240, Note_on_c, 1, 58, 45
3, 24240, Note_on_c, 1, 60, 45
3, 24240, Note_on_c, 1, 63, 45
3, 24240, Note_on_c, 1, 65, 45
3, 24272, Note_on_c, 1, 58, 0
3, 24272, Note_on_c, 1, 60, 0
3, 24272, Note_on_c, 1, 63, 0
3, 24272, Note_on_c, 1, 65, 0
3, 24288, Note_on_c, 1, 46, 45
3, 24288, Note_on_c, 1, 58, 45
3, 24320, Note_on_c, 1, 46, 0
3, 24320, Note_on_c, 1, 58, 0
3, 24336, Note_on_c, 1, 55, 45
3, 24336, Note_on_c, 1, 67, 45
3, 24368, Note_on_c, 1, 55, 0
3, 24368, Note_on_c, 1, 67, 0
3, 24384, Note_on_c, 1, 53, 45
3, 24384, Note_on_c, 1, 65, 45
3, 24416, Note_on_c, 1, 53, 0
3, 24416, Note_on_c, 1, 65, 0
3, 24432, Note_on_c, 1, 51, 45
3, 24432, Note_on_c, 1, 63, 45
3, 24464, Note_on_c, 1, 51, 0
3, 24464, Note_on_c, 1, 63, 0
3, 24480, Note_on_c, 1, 50, 45
3, 24480, Note_on_c, 1, 62, 45
3, 24512, Note_on_c, 1, 50, 0
3, 24512, Note_on_c, 1, 62, 0
3, 24528, Note_on_c, 1, 48, 45
3, 24528, Note_on_c, 1, 60, 45
3, 24560, Note_on_c, 1, 48, 0
3, 24560, Note_on_c, 1, 60, 0
3, 24576, Note_on_c, 1, 46, 45
3, 24576, Note_on_c, 1, 58, 45
3, 24608, Note_on_c, 1, 46, 0
3, 24608, Note_on_c, 1, 58, 0
3, 24624, Note_on_c, 1, 58, 45
3, 24624, Note_on_c, 1, 62, 45
3, 24624, Note_on_c, 1, 65, 45
3, 24656, Note_on_c, 1, 58, 0
3, 24656, Note_on_c, 1, 62, 0
3, 24656, Note_on_c, 1, 65, 0
3, 24672, Note_on_c, 1, 58, 45
3, 24672, Note_on_c, 1, 62, 45
3, 24672, Note_on_c, 1, 65, 45
3, 24704, Note_on_c, 1, 58, 0
3, 24704, Note_on_c, 1, 62, 0
3, 24704, Note_on_c, 1, 65, 0
3, 24720, Note_on_c, 1, 58, 45
3, 24720, Note_on_c, 1, 62, 45
3, 24720, Note_on_c, 1, 65, 45
3, 24752, Note_on_c, 1, 58, 0
3, 24752, Note_on_c, 1, 62, 0
3, 24752, Note_on_c, 1, 65, 0
3, 24768, Note_on_c, 1, 58, 45
3, 24768, Note_on_c, 1, 62, 45
3, 24768, Note_on_c, 1, 65, 45
3, 24800, Note_on_c, 1, 58, 0
3, 24800, Note_on_c, 1, 62, 0
3, 24800, Note_on_c, 1, 65, 0
3, 24816, Note_on_c, 1, 38, 45
3, 24816, Note_on_c, 1, 50, 45
3, 24848, Note_on_c, 1, 38, 0
3, 24848, Note_on_c, 1, 50, 0
3, 24864, Note_on_c, 1, 39, 45
3, 24864, Note_on_c, 1, 51, 45
3, 24896, Note_on_c, 1, 39, 0
3, 24896, Note_on_c, 1, 51, 0
3, 24912, Note_on_c, 1, 35, 45
3, 24912, Note_on_c, 1, 47, 45
3, 24944, Note_on_c, 1, 35, 0
3, 24944, Note_on_c, 1, 47, 0
3, 24960, Note_on_c, 1, 36, 45
3, 24960, Note_on_c, 1, 48, 45
3, 24992, Note_on_c, 1, 36, 0
3, 24992, Note_on_c, 1, 48, 0
3, 25008, Note_on_c, 1, 38, 45
3, 25008, Note_on_c, 1, 50, 45
3, 25040, Note_on_c, 1, 38, 0
3, 25040, Note_on_c, 1, 50, 0
3, 25056, Note_on_c, 1, 39, 45
3, 25056, Note_on_c, 1, 51, 45
3, 25088, Note_on_c, 1, 39, 0
3, 25088, Note_on_c, 1, 51, 0
3, 25104, Note_on_c, 1, 40, 45
3, 25104, Note_on_c, 1, 52, 45
3, 25136, Note_on_c, 1, 40, 0
3, 25136, Note_on_c, 1, 52, 0
3, 25152, Note_on_c, 1, 41, 45
3, 25152, Note_on_c, 1, 53, 45
3, 25198, Note_on_c, 1, 41, 0
3, 25198, Note_on_c, 1, 53, 0
3, 25200, Note_on_c, 1, 41, 46
3, 25246, Note_on_c, 1, 41, 0
3, 25248, Note_on_c, 1, 41, 47
3, 25294, Note_on_c, 1, 41, 0
3, 25296, Note_on_c, 1, 29, 48
3, 25296, Note_on_c, 1, 41, 48
3, 25342, Note_on_c, 1, 29, 0
3, 25342, Note_on_c, 1, 41, 0
3, 25344, Note_on_c, 1, 29, 49
3, 25344, Note_on_c, 1, 41, 49
3, 25390, Note_on_c, 1, 29, 0
3, 25390, Note_on_c, 1, 41, 0
3, 25392, Note_on_c, 1, 29, 50
3, 25392, Note_on_c, 1, 41, 50
3, 25438, Note_on_c, 1, 29, 0
3, 25438, Note_on_c, 1, 41, 0
3, 25440, Note_on_c, 1, 34, 51
3, 25440, Note_on_c, 1, 41, 51
3, 25534, Note_on_c, 1, 34, 0
3, 25536, Note_on_c, 1, 46, 53
3, 25536, Note_on_c, 1, 50, 53
3, 25582, Note_on_c, 1, 41, 0
3, 25582, Note_on_c, 1, 46, 0
3, 25582, Note_on_c, 1, 50, 0
3, 25728, Note_on_c, 1, 46, 45
3, 25760, Note_on_c, 1, 46, 0
3, 25776, Note_on_c, 1, 58, 45
3, 25776, Note_on_c, 1, 62, 45
3, 25776, Note_on_c, 1, 65, 45
3, 25808, Note_on_c, 1, 58, 0
3, 25808, Note_on_c, 1, 62, 0
3, 25808, Note_on_c, 1, 65, 0
3, 25824, Note_on_c, 1, 58, 45
3, 25824, Note_on_c, 1, 62, 45
3, 25824, Note_on_c, 1, 65, 45
3, 25856, Note_on_c, 1, 58, 0
3, 25856, Note_on_c, 1, 62, 0
3, 25856, Note_on_c, 1, 65, 0
3, 25872, Note_on_c, 1, 58, 45
3, 25872, Note_on_c, 1, 62, 45
3, 25872, Note_on_c, 1, 65, 45
3, 25904, Note_on_c, 1, 58, 0
3, 25904, Note_on_c, 1, 62, 0
3, 25904, Note_on_c, 1, 65, 0
3, 25920, Note_on_c, 1, 58, 45
3, 25920, Note_on_c, 1, 62, 45
3, 25920, Note_on_c, 1, 65, 45
3, 25952, Note_on_c, 1, 58, 0
3, 25952, Note_on_c, 1, 62, 0
3, 25952, Note_on_c, 1, 65, 0
3, 25968, Note_on_c, 1, 58, 45
3, 25968, Note_on_c, 1, 62, 45
3, 25968, Note_on_c, 1, 65, 45
3, 26000, Note_on_c, 1, 58, 0
3, 26000, Note_on_c, 1, 62, 0
3, 26000, Note_on_c, 1, 65, 0
3, 26016, Note_on_c, 1, 46, 45
3, 26048, Note_on_c, 1, 46, 0
3, 26064, Note_on_c, 1, 58, 45
3, 26064, Note_on_c, 1, 63, 45
3, 26064, Note_on_c, 1, 67, 45
3, 26096, Note_on_c, 1, 58, 0
3, 26096, Note_on_c, 1, 63, 0
3, 26096, Note_on_c, 1, 67, 0
3, 26112, Note_on_c, 1, 58, 45
3, 26112, Note_on_c, 1, 63, 45
3, 26112, Note_on_c, 1, 67, 45
3, 26144, Note_on_c, 1, 58, 0
3, 26144, Note_on_c, 1, 63, 0
3, 26144, Note_on_c, 1, 67, 0
3, 26160, Note_on_c, 1, 58, 45
3, 26160, Note_on_c, 1, 63, 45
3, 26160, Note_on_c, 1, 67, 45
3, 26192, Note_on_c, 1, 58, 0
3, 26192, Note_on_c, 1, 63, 0
3, 26192, Note_on_c, 1, 67, 0
3, 26208, Note_on_c, 1, 58, 45
3, 26208, Note_on_c, 1, 63, 45
3, 26208, Note_on_c, 1, 67, 45
3, 26240, Note_on_c, 1, 58, 0
3, 26240, Note_on_c, 1, 63, 0
3, 26240, Note_on_c, 1, 67, 0
3, 26256, Note_on_c, 1, 58, 45
3, 26256, Note_on_c, 1, 63, 45
3, 26256, Note_on_c, 1, 67, 45
3, 26288, Note_on_c, 1, 58, 0
3, 26288, Note_on_c, 1, 63, 0
3, 26288, Note_on_c, 1, 67, 0
3, 26304, Note_on_c, 1, 50, 45
3, 26336, Note_on_c, 1, 50, 0
3, 26352, Note_on_c, 1, 58, 45
3, 26352, Note_on_c, 1, 60, 45
3, 26352, Note_on_c, 1, 63, 45
3, 26352, Note_on_c, 1, 65, 45
3, 26384, Note_on_c, 1, 58, 0
3, 26384, Note_on_c, 1, 60, 0
3, 26384, Note_on_c, 1, 63, 0
3, 26384, Note_on_c, 1, 65, 0
3, 26400, Note_on_c, 1, 58, 45
3, 26400, Note_on_c, 1, 60, 45
3, 26400, Note_on_c, 1, 63, 45
3, 26400, Note_on_c, 1, 65, 45
3, 26432, Note_on_c, 1, 58, 0
3, 26432, Note_on_c, 1, 60, 0
3, 26432, Note_on_c, 1, 63, 0
3, 26432, Note_on_c, 1, 65, 0
3, 26448, Note_on_c, 1, 58, 45
3, 26448, Note_on_c, 1, 60, 45
3, 26448, Note_on_c, 1, 63, 45
3, 26448, Note_on_c, 1, 65, 45
3, 26480, Note_on_c, 1, 58, 0
3, 26480, Note_on_c, 1, 60, 0
3, 26480, Note_on_c, 1, 63, 0
3, 26480, Note_on_c, 1, 65, 0
3, 26496, Note_on_c, 1, 58, 45
3, 26496, Note_on_c, 1, 60, 45
3, 26496, Note_on_c, 1, 63, 45
3, 26496, Note_on_c, 1, 65, 45
3, 26528, Note_on_c, 1, 58, 0
3, 26528, Note_on_c, 1, 60, 0
3, 26528, Note_on_c, 1, 63, 0
3, 26528, Note_on_c, 1, 65, 0
3, 26544, Note_on_c, 1, 58, 45
3, 26544, Note_on_c, 1, 60, 45
3, 26544, Note_on_c, 1, 63, 45
3, 26544, Note_on_c, 1, 65, 45
3, 26576, Note_on_c, 1, 58, 0
3, 26576, Note_on_c, 1, 60, 0
3, 26576, Note_on_c, 1, 63, 0
3, 26576, Note_on_c, 1, 65, 0
3, 26592, Note_on_c, 1, 46, 45
3, 26592, Note_on_c, 1, 58, 45
3, 26624, Note_on_c, 1, 46, 0
3, 26624, Note_on_c, 1, 58, 0
3, 26640, Note_on_c, 1, 55, 45
3, 26640, Note_on_c, 1, 67, 45
3, 26672, Note_on_c, 1, 55, 0
3, 26672, Note_on_c, 1, 67, 0
3, 26688, Note_on_c, 1, 53, 45
3, 26688, Note_on_c, 1, 65, 45
3, 26720, Note_on_c, 1, 53, 0
3, 26720, Note_on_c, 1, 65, 0
3, 26736, Note_on_c, 1, 51, 45
3, 26736, Note_on_c, 1, 63, 45
3, 26768, Note_on_c, 1, 51, 0
3, 26768, Note_on_c, 1, 63, 0
3, 26784, Note_on_c, 1, 50, 45
3, 26784, Note_on_c, 1, 62, 45
3, 26816, Note_on_c, 1, 50, 0
3, 26816, Note_on_c, 1, 62, 0
3, 26832, Note_on_c, 1, 48, 45
3, 26832, Note_on_c, 1, 60, 45
3, 26864, Note_on_c, 1, 48, 0
3, 26864, Note_on_c, 1, 60, 0
3, 26880, Note_on_c, 1, 46, 45
3, 26880, Note_on_c, 1, 58, 45
3, 26912, Note_on_c, 1, 46, 0
3, 26912, Note_on_c, 1, 58, 0
3, 26928, Note_on_c, 1, 58, 45
3, 26928, Note_on_c, 1, 62, 45
3, 26928, Note_on_c, 1, 65, 45
3, 26960, Note_on_c, 1, 58, 0
3, 26960, Note_on_c, 1, 62, 0
3, 26960, Note_on_c, 1, 65, 0
3, 26976, Note_on_c, 1, 58, 45
3, 26976, Note_on_c, 1, 62, 45
3, 26976, Note_on_c, 1, 65, 45
3, 27008, Note_on_c, 1, 58, 0
3, 27008, Note_on_c, 1, 62, 0
3, 27008, Note_on_c, 1, 65, 0
3, 27024, Note_on_c, 1, 58, 45
3, 27024, Note_on_c, 1, 62, 45
3, 27024, Note_on_c, 1, 65, 45
3, 27056, Note_on_c, 1, 58, 0
3, 27056, Note_on_c, 1, 62, 0
3, 27056, Note_on_c, 1, 65, 0
3, 27072, Note_on_c, 1, 58, 45
3, 27072, Note_on_c, 1, 62, 45
3, 27072, Note_on_c, 1, 65, 45
3, 27104, Note_on_c, 1, 58, 0
3, 27104, Note_on_c, 1, 62, 0
3, 27104, Note_on_c, 1, 65, 0
3, 27120, Note_on_c, 1, 38, 45
3, 27120, Note_on_c, 1, 50, 45
3, 27152, Note_on_c, 1, 38, 0
3, 27152, Note_on_c, 1, 50, 0
3, 27168, Note_on_c, 1, 39, 45
3, 27168, Note_on_c, 1, 51, 45
3, 27200, Note_on_c, 1, 39, 0
3, 27200, Note_on_c, 1, 51, 0
3, 27216, Note_on_c, 1, 35, 45
3, 27216, Note_on_c, 1, 47, 45
3, 27248, Note_on_c, 1, 35, 0
3, 27248, Note_on_c, 1, 47, 0
3, 27264, Note_on_c, 1, 36, 45
3, 27264, Note_on_c, 1, 48, 45
3, 27296, Note_on_c, 1, 36, 0
3, 27296, Note_on_c, 1, 48, 0
3, 27312, Note_on_c, 1, 38, 45
3, 27312, Note_on_c, 1, 50, 45
3, 27344, Note_on_c, 1, 38, 0
3, 27344, Note_on_c, 1, 50, 0
3, 27360, Note_on_c, 1, 39, 45
3, 27360, Note_on_c, 1, 51, 45
3, 27392, Note_on_c, 1, 39, 0
3, 27392, Note_on_c, 1, 51, 0
3, 27408, Note_on_c, 1, 40, 45
3, 27408, Note_on_c, 1, 52, 45
3, 27440, Note_on_c, 1, 40, 0
3, 27440, Note_on_c, 1, 52, 0
3, 27456, Note_on_c, 1, 41, 45
3, 27456, Note_on_c, 1, 53, 45
3, 27502, Note_on_c, 1, 41, 0
3, 27502, Note_on_c, 1, 53, 0
3, 27504, Note_on_c, 1, 41, 46
3, 27550, Note_on_c, 1, 41, 0
3, 27552, Note_on_c, 1, 41, 47
3, 27598, Note_on_c, 1, 41, 0
3, 27600, Note_on_c, 1, 29, 48
3, 27600, Note_on_c, 1, 41, 48
3, 27646, Note_on_c, 1, 29, 0
3, 27646, Note_on_c, 1, 41, 0
3, 27648, Note_on_c, 1, 29, 49
3, 27648, Note_on_c, 1, 41, 49
3, 27694, Note_on_c, 1, 29, 0
3, 27694, Note_on_c, 1, 41, 0
3, 27696, Note_on_c, 1, 29, 50
3, 27696, Note_on_c, 1, 41, 50
3, 27742, Note_on_c, 1, 29, 0
3, 27742, Note_on_c, 1, 41, 0
3, 27744, Note_on_c, 1, 34, 51
3, 27744, Note_on_c, 1, 41, 51
3, 27838, Note_on_c, 1, 34, 0
3, 27840, Note_on_c, 1, 46, 53
3, 27840, Note_on_c, 1, 50, 53
3, 27886, Note_on_c, 1, 41, 0
3, 27886, Note_on_c, 1, 46, 0
3, 27886, Note_on_c, 1, 50, 0
3, 28032, Note_on_c, 1, 34, 57
3, 28032, Note_on_c, 1, 41, 57
3, 28126, Note_on_c, 1, 34, 0
3, 28128, Note_on_c, 1, 46, 59
3, 28128, Note_on_c, 1, 50, 59
3, 28174, Note_on_c, 1, 41, 0
3, 28174, Note_on_c, 1, 46, 0
3, 28174, Note_on_c, 1, 50, 0
3, 28320, Note_on_c, 1, 53, 63
3, 28320, Note_on_c, 1, 60, 63
3, 28414, Note_on_c, 1, 60, 0
3, 28416, Note_on_c, 1, 60, 65
3, 28438, Note_on_c, 1, 60, 0
3, 28440, Note_on_c, 1, 60, 65
3, 28462, Note_on_c, 1, 60, 0
3, 28464, Note_on_c, 1, 63, 65
3, 28486, Note_on_c, 1, 63, 0
3, 28488, Note_on_c, 1, 60, 65
3, 28510, Note_on_c, 1, 60, 0
3, 28512, Note_on_c, 1, 62, 65
3, 28534, Note_on_c, 1, 62, 0
3, 28536, Note_on_c, 1, 65, 65
3, 28558, Note_on_c, 1, 65, 0
3, 28560, Note_on_c, 1, 62, 65
3, 28576, Note_on_c, 1, 53, 0
3, 28582, Note_on_c, 1, 62, 0
3, 28584, Note_on_c, 1, 65, 65
3, 28606, Note_on_c, 1, 65, 0
3, 28608, Note_on_c, 1, 53, 65
3, 28608, Note_on_c, 1, 57, 65
3, 28702, Note_on_c, 1, 57, 0
3, 28704, Note_on_c, 1, 57, 68
3, 28726, Note_on_c, 1, 57, 0
3, 28728, Note_on_c, 1, 57, 68
3, 28750, Note_on_c, 1, 57, 0
3, 28752, Note_on_c, 1, 60, 68
3, 28774, Note_on_c, 1, 60, 0
3, 28776, Note_on_c, 1, 57, 68
3, 28798, Note_on_c, 1, 57, 0
3, 28800, Note_on_c, 1, 58, 68
3, 28822, Note_on_c, 1, 58, 0
3, 28824, Note_on_c, 1, 62, 68
3, 28846, Note_on_c, 1, 62, 0
3, 28848, Note_on_c, 1, 58, 68
3, 28864, Note_on_c, 1, 53, 0
3, 28870, Note_on_c, 1, 58, 0
3, 28872, Note_on_c, 1, 62, 68
3, 28894, Note_on_c, 1, 62, 0
3, 28896, Note_on_c, 1, 53, 68
3, 28896, Note_on_c, 1, 60, 68
3, 28990, Note_on_c, 1, 60, 0
3, 28992, Note_on_c, 1, 60, 72
3, 29014, Note_on_c, 1, 60, 0
3, 29016, Note_on_c, 1, 60, 73
3, 29038, Note_on_c, 1, 60, 0
3, 29040, Note_on_c, 1, 63, 74
3, 29062, Note_on_c, 1, 63, 0
3, 29064, Note_on_c, 1, 60, 75
3, 29086, Note_on_c, 1, 60, 0
3, 29088, Note_on_c, 1, 62, 76
3, 29110, Note_on_c, 1, 62, 0
3, 29112, Note_on_c, 1, 65, 77
3, 29134, Note_on_c, 1, 65, 0
3, 29136, Note_on_c, 1, 62, 78
3, 29152, Note_on_c, 1, 53, 0
3, 29158, Note_on_c, 1, 62, 0
3, 29160, Note_on_c, 1, 65, 79
3, 29182, Note_on_c, 1, 65, 0
3, 29184, Note_on_c, 1, 53, 80
3, 29184, Note_on_c, 1, 62, 80
3, 29206, Note_on_c, 1, 62, 0
3, 29208, Note_on_c, 1, 65, 81
3, 29230, Note_on_c, 1, 65, 0
3, 29232, Note_on_c, 1, 62, 82
3, 29254, Note_on_c, 1, 62, 0
3, 29256, Note_on_c, 1, 65, 83
3, 29278, Note_on_c, 1, 65, 0
3, 29280, Note_on_c, 1, 63, 84
3, 29302, Note_on_c, 1, 63, 0
3, 29304, Note_on_c, 1, 65, 85
3, 29326, Note_on_c, 1, 65, 0
3, 29328, Note_on_c, 1, 63, 86
3, 29344, Note_on_c, 1, 53, 0
3, 29350, Note_on_c, 1, 63, 0
3, 29352, Note_on_c, 1, 65, 87
3, 29374, Note_on_c, 1, 65, 0
3, 29376, Note_on_c, 1, 53, 88
3, 29376, Note_on_c, 1, 60, 88
3, 29398, Note_on_c, 1, 60, 0
3, 29400, Note_on_c, 1, 63, 89
3, 29422, Note_on_c, 1, 53, 0
3, 29422, Note_on_c, 1, 63, 0
3, 29424, Note_on_c, 1, 53, 90
3, 29424, Note_on_c, 1, 60, 90
3, 29446, Note_on_c, 1, 60, 0
3, 29448, Note_on_c, 1, 63, 91
3, 29470, Note_on_c, 1, 53, 0
3, 29470, Note_on_c, 1, 63, 0
3, 29472, Note_on_c, 1, 46, 92
3, 29504, Note_on_c, 1, 46, 0
3, 29520, Note_on_c, 1, 58, 60
3, 29520, Note_on_c, 1, 62, 60
3, 29520, Note_on_c, 1, 65, 60
3, 29552, Note_on_c, 1, 58, 0
3, 29552, Note_on_c, 1, 62, 0
3, 29552, Note_on_c, 1, 65, 0
3, 29568, Note_on_c, 1, 58, 60
3, 29568, Note_on_c, 1, 62, 60
3, 29568, Note_on_c, 1, 65, 60
3, 29600, Note_on_c, 1, 58, 0
3, 29600, Note_on_c, 1, 62, 0
3, 29600, Note_on_c, 1, 65, 0
3, 29616, Note_on_c, 1, 58, 60
3, 29616, Note_on_c, 1, 62, 60
3, 29616, Note_on_c, 1, 65, 60
3, 29648, Note_on_c, 1, 58, 0
3, 29648, Note_on_c, 1, 62, 0
3, 29648, Note_on_c, 1, 65, 0
3, 29664, Note_on_c, 1, 58, 60
3, 29664, Note_on_c, 1, 62, 60
3, 29664, Note_on_c, 1, 65, 60
3, 29696, Note_on_c, 1, 58, 0
3, 29696, Note_on_c, 1, 62, 0
3, 29696, Note_on_c, 1, 65, 0
3, 29712, Note_on_c, 1, 38, 60
3, 29712, Note_on_c, 1, 50, 60
3, 29744, Note_on_c, 1, 38, 0
3, 29744, Note_on_c, 1, 50, 0
3, 29760, Note_on_c, 1, 39, 60
3, 29760, Note_on_c, 1, 51, 60
3, 29792, Note_on_c, 1, 39, 0
3, 29792, Note_on_c, 1, 51, 0
3, 29808, Note_on_c, 1, 35, 60
3, 29808, Note_on_c, 1, 47, 60
3, 29840, Note_on_c, 1, 35, 0
3, 29840, Note_on_c, 1, 47, 0
3, 29856, Note_on_c, 1, 36, 60
3, 29856, Note_on_c, 1, 48, 60
3, 29888, Note_on_c, 1, 36, 0
3, 29888, Note_on_c, 1, 48, 0
3, 29904, Note_on_c, 1, 38, 60
3, 29904, Note_on_c, 1, 50, 60
3, 29936, Note_on_c, 1, 38, 0
3, 29936, Note_on_c, 1, 50, 0
3, 29952, Note_on_c, 1, 39, 60
3, 29952, Note_on_c, 1, 51, 60
3, 29984, Note_on_c, 1, 39, 0
3, 29984, Note_on_c, 1, 51, 0
3, 30000, Note_on_c, 1, 40, 60
3, 30000, Note_on_c, 1, 52, 60
3, 30032, Note_on_c, 1, 40, 0
3, 30032, Note_on_c, 1, 52, 0
3, 30048, Note_on_c, 1, 41, 60
3, 30048, Note_on_c, 1, 53, 60
3, 30080, Note_on_c, 1, 41, 0
3, 30080, Note_on_c, 1, 53, 0
3, 30096, Note_on_c, 1, 41, 60
3, 30128, Note_on_c, 1, 41, 0
3, 30144, Note_on_c, 1, 41, 59
3, 30176, Note_on_c, 1, 41, 0
3, 30192, Note_on_c, 1, 29, 58
3, 30192, Note_on_c, 1, 41, 58
3, 30238, Note_on_c, 1, 29, 0
3, 30238, Note_on_c, 1, 41, 0
3, 30240, Note_on_c, 1, 29, 57
3, 30240, Note_on_c, 1, 41, 57
3, 30286, Note_on_c, 1, 29, 0
3, 30286, Note_on_c, 1, 41, 0
3, 30288, Note_on_c, 1, 29, 56
3, 30288, Note_on_c, 1, 41, 56
3, 30334, Note_on_c, 1, 29, 0
3, 30334, Note_on_c, 1, 41, 0
3, 30336, Note_on_c, 1, 34, 55
3, 30336, Note_on_c, 1, 41, 55
3, 30430, Note_on_c, 1, 41, 0
3, 30432, Note_on_c, 1, 46, 53
3, 30478, Note_on_c, 1, 34, 0
3, 30478, Note_on_c, 1, 46, 0
3, 30624, Note_on_c, 1, 53, 49
3, 30624, Note_on_c, 1, 60, 49
3, 30718, Note_on_c, 1, 60, 0
3, 30720, Note_on_c, 1, 60, 47
3, 30742, Note_on_c, 1, 60, 0
3, 30744, Note_on_c, 1, 60, 47
3, 30766, Note_on_c, 1, 60, 0
3, 30768, Note_on_c, 1, 63, 47
3, 30790, Note_on_c, 1, 63, 0
3, 30792, Note_on_c, 1, 60, 46
3, 30814, Note_on_c, 1, 60, 0
3, 30816, Note_on_c, 1, 62, 45
3, 30838, Note_on_c, 1, 62, 0
3, 30840, Note_on_c, 1, 65, 45
3, 30862, Note_on_c, 1, 65, 0
3, 30864, Note_on_c, 1, 62, 45
3, 30880, Note_on_c, 1, 53, 0
3, 30886, Note_on_c, 1, 62, 0
3, 30888, Note_on_c, 1, 65, 45
3, 30910, Note_on_c, 1, 65, 0
3, 30912, Note_on_c, 1, 53, 45
3, 30912, Note_on_c, 1, 57, 45
3, 31006, Note_on_c, 1, 57, 0
3, 31008, Note_on_c, 1, 57, 45
3, 31030, Note_on_c, 1, 57, 0
3, 31032, Note_on_c, 1, 57, 45
3, 31054, Note_on_c, 1, 57, 0
3, 31056, Note_on_c, 1, 60, 45
3, 31078, Note_on_c, 1, 60, 0
3, 31080, Note_on_c, 1, 57, 45
3, 31102, Note_on_c, 1, 57, 0
3, 31104, Note_on_c, 1, 58, 45
3, 31126, Note_on_c, 1, 58, 0
3, 31128, Note_on_c, 1, 62, 45
3, 31150, Note_on_c, 1, 62, 0
3, 31152, Note_on_c, 1, 58, 45
3, 31168, Note_on_c, 1, 53, 0
3, 31174, Note_on_c, 1, 58, 0
3, 31176, Note_on_c, 1, 62, 45
3, 31198, Note_on_c, 1, 62, 0
3, 31200, Note_on_c, 1, 53, 45
3, 31200, Note_on_c, 1, 60, 45
3, 31294, Note_on_c, 1, 60, 0
3, 31296, Note_on_c, 1, 60, 45
3, 31318, Note_on_c, 1, 60, 0
3, 31320, Note_on_c, 1, 60, 45
3, 31342, Note_on_c, 1, 60, 0
3, 31344, Note_on_c, 1, 63, 45
3, 31366, Note_on_c, 1, 63, 0
3, 31368, Note_on_c, 1, 60, 45
3, 31390, Note_on_c, 1, 60, 0
3, 31392, Note_on_c, 1, 62, 45
3, 31414, Note_on_c, 1, 62, 0
3, 31416, Note_on_c, 1, 65, 45
3, 31438, Note_on_c, 1, 65, 0
3, 31440, Note_on_c, 1, 62, 45
3, 31456, Note_on_c, 1, 53, 0
3, 31462, Note_on_c, 1, 62, 0
3, 31464, Note_on_c, 1, 65, 45
3, 31486, Note_on_c, 1, 65, 0
3, 31488, Note_on_c, 1, 53, 45
3, 31488, Note_on_c, 1, 62, 45
3, 31510, Note_on_c, 1, 62, 0
3, 31512, Note_on_c, 1, 65, 45
3, 31534, Note_on_c, 1, 65, 0
3, 31536, Note_on_c, 1, 62, 45
3, 31558, Note_on_c, 1, 62, 0
3, 31560, Note_on_c, 1, 65, 45
3, 31582, Note_on_c, 1, 65, 0
3, 31584, Note_on_c, 1, 63, 45
3, 31606, Note_on_c, 1, 63, 0
3, 31608, Note_on_c, 1, 65, 45
3, 31630, Note_on_c, 1, 65, 0
3, 31632, Note_on_c, 1, 63, 45
3, 31648, Note_on_c, 1, 53, 0
3, 31654, Note_on_c, 1, 63, 0
3, 31656, Note_on_c, 1, 65, 45
3, 31678, Note_on_c, 1, 65, 0
3, 31680, Note_on_c, 1, 53, 45
3, 31680, Note_on_c, 1, 60, 45
3, 31702, Note_on_c, 1, 60, 0
3, 31704, Note_on_c, 1, 63, 45
3, 31726, Note_on_c, 1, 53, 0
3, 31726, Note_on_c, 1, 63, 0
3, 31728, Note_on_c, 1, 53, 45
3, 31728, Note_on_c, 1, 60, 45
3, 31750, Note_on_c, 1, 60, 0
3, 31752, Note_on_c, 1, 63, 45
3, 31774, Note_on_c, 1, 53, 0
3, 31774, Note_on_c, 1, 63, 0
3, 31776, Note_on_c, 1, 46, 92
3, 31808, Note_on_c, 1, 46, 0
3, 31824, Note_on_c, 1, 58, 60
3, 31824, Note_on_c, 1, 62, 60
3, 31824, Note_on_c, 1, 65, 60
3, 31856, Note_on_c, 1, 58, 0
3, 31856, Note_on_c, 1, 62, 0
3, 31856, Note_on_c, 1, 65, 0
3, 31872, Note_on_c, 1, 58, 60
3, 31872, Note_on_c, 1, 62, 60
3, 31872, Note_on_c, 1, 65, 60
3, 31904, Note_on_c, 1, 58, 0
3, 31904, Note_on_c, 1, 62, 0
3, 31904, Note_on_c, 1, 65, 0
3, 31920, Note_on_c, 1, 58, 60
3, 31920, Note_on_c, 1, 62, 60
3, 31920, Note_on_c, 1, 65, 60
3, 31952, Note_on_c, 1, 58, 0
3, 31952, Note_on_c, 1, 62, 0
3, 31952, Note_on_c, 1, 65, 0
3, 31968, Note_on_c, 1, 58, 60
3, 31968, Note_on_c, 1, 62, 60
3, 31968, Note_on_c, 1, 65, 60
3, 32000, Note_on_c, 1, 58, 0
3, 32000, Note_on_c, 1, 62, 0
3, 32000, Note_on_c, 1, 65, 0
3, 32016, Note_on_c, 1, 38, 60
3, 32016, Note_on_c, 1, 50, 60
3, 32048, Note_on_c, 1, 38, 0
3, 32048, Note_on_c, 1, 50, 0
3, 32064, Note_on_c, 1, 39, 60
3, 32064, Note_on_c, 1, 51, 60
3, 32096, Note_on_c, 1, 39, 0
3, 32096, Note_on_c, 1, 51, 0
3, 32112, Note_on_c, 1, 35, 60
3, 32112, Note_on_c, 1, 47, 60
3, 32144, Note_on_c, 1, 35, 0
3, 32144, Note_on_c, 1, 47, 0
3, 32160, Note_on_c, 1, 36, 60
3, 32160, Note_on_c, 1, 48, 60
3, 32192, Note_on_c, 1, 36, 0
3, 32192, Note_on_c, 1, 48, 0
3, 32208, Note_on_c, 1, 38, 60
3, 32208, Note_on_c, 1, 50, 60
3, 32240, Note_on_c, 1, 38, 0
3, 32240, Note_on_c, 1, 50, 0
3, 32256, Note_on_c, 1, 39, 60
3, 32256, Note_on_c, 1, 51, 60
3, 32288, Note_on_c, 1, 39, 0
3, 32288, Note_on_c, 1, 51, 0
3, 32304, Note_on_c, 1, 40, 60
3, 32304, Note_on_c, 1, 52, 60
3, 32336, Note_on_c, 1, 40, 0
3, 32336, Note_on_c, 1, 52, 0
3, 32352, Note_on_c, 1, 41, 60
3, 32352, Note_on_c, 1, 53, 60
3, 32384, Note_on_c, 1, 41, 0
3, 32384, Note_on_c, 1, 53, 0
3, 32400, Note_on_c, 1, 41, 60
3, 32432, Note_on_c, 1, 41, 0
3, 32448, Note_on_c, 1, 41, 59
3, 32480, Note_on_c, 1, 41, 0
3, 32496, Note_on_c, 1, 29, 58
3, 32496, Note_on_c, 1, 41, 58
3, 32542, Note_on_c, 1, 29, 0
3, 32542, Note_on_c, 1, 41, 0
3, 32544, Note_on_c, 1, 29, 57
3, 32544, Note_on_c, 1, 41, 57
3, 32590, Note_on_c, 1, 29, 0
3, 32590, Note_on_c, 1, 41, 0
3, 32592, Note_on_c, 1, 29, 56
3, 32592, Note_on_c, 1, 41, 56
3, 32638, Note_on_c, 1, 29, 0
3, 32638, Note_on_c, 1, 41, 0
3, 32640, Note_on_c, 1, 34, 55
3, 32640, Note_on_c, 1, 41, 55
3, 32734, Note_on_c, 1, 41, 0
3, 32736, Note_on_c, 1, 46, 53
3, 32782, Note_on_c, 1, 34, 0
3, 32782, Note_on_c, 1, 46, 0
3, 32928, Note_on_c, 1, 34, 49
3, 32928, Note_on_c, 1, 41, 49
3, 33022, Note_on_c, 1, 41, 0
3, 33024, Note_on_c, 1, 46, 47
3, 33070, Note_on_c, 1, 34, 0
3, 33070, Note_on_c, 1, 46, 0
3, 33120, Note_on_c, 1, 58, 45
3, 33120, Note_on_c, 1, 62, 45
3, 33214, Note_on_c, 1, 58, 0
3, 33214, Note_on_c, 1, 62, 0
3, 33216, Note_on_c, 1, 54, 45
3, 33216, Note_on_c, 1, 62, 45
3, 33376, Note_on_c, 1, 54, 0
3, 33376, Note_on_c, 1, 62, 0
3, 33408, Note_on_c, 1, 43, 45
3, 33408, Note_on_c, 1, 50, 45
3, 33408, Note_on_c, 1, 55, 45
3, 33408, Note_on_c, 1, 58, 45
3, 33478, Note_on_c, 1, 58, 0
3, 33480, Note_on_c, 1, 60, 45
3, 33502, Note_on_c, 1, 43, 0
3, 33502, Note_on_c, 1, 50, 0
3, 33502, Note_on_c, 1, 55, 0
3, 33502, Note_on_c, 1, 60, 0
3, 33504, Note_on_c, 1, 38, 45
3, 33504, Note_on_c, 1, 50, 45
3, 33504, Note_on_c, 1, 54, 45
3, 33504, Note_on_c, 1, 58, 45
3, 33598, Note_on_c, 1, 58, 0
3, 33600, Note_on_c, 1, 57, 50
3, 33664, Note_on_c, 1, 38, 0
3, 33664, Note_on_c, 1, 50, 0
3, 33664, Note_on_c, 1, 54, 0
3, 33694, Note_on_c, 1, 57, 0
3, 33696, Note_on_c, 1, 58, 55
3, 33696, Note_on_c, 1, 62, 55
3, 33790, Note_on_c, 1, 58, 0
3, 33790, Note_on_c, 1, 62, 0
3, 33792, Note_on_c, 1, 54, 60
3, 33792, Note_on_c, 1, 62, 60
3, 33952, Note_on_c, 1, 54, 0
3, 33952, Note_on_c, 1, 62, 0
3, 33984, Note_on_c, 1, 55, 70
3, 33984, Note_on_c, 1, 62, 70
3, 34078, Note_on_c, 1, 55, 0
3, 34078, Note_on_c, 1, 62, 0
3, 34080, Note_on_c, 1, 53, 75
3, 34080, Note_on_c, 1, 62, 75
3, 34174, Note_on_c, 1, 53, 0
3, 34174, Note_on_c, 1, 62, 0
3, 34176, Note_on_c, 1, 52, 60
3, 34176, Note_on_c, 1, 64, 60
3, 34198, Note_on_c, 1, 52, 0
3, 34198, Note_on_c, 1, 64, 0
3, 34200, Note_on_c, 1, 48, 60
3, 34222, Note_on_c, 1, 48, 0
3, 34224, Note_on_c, 1, 60, 60
3, 34246, Note_on_c, 1, 60, 0
3, 34248, Note_on_c, 1, 58, 60
3, 34270, Note_on_c, 1, 58, 0
3, 34272, Note_on_c, 1, 57, 60
3, 34294, Note_on_c, 1, 57, 0
3, 34296, Note_on_c, 1, 55, 60
3, 34318, Note_on_c, 1, 55, 0
3, 34320, Note_on_c, 1, 57, 60
3, 34342, Note_on_c, 1, 57, 0
3, 34344, Note_on_c, 1, 54, 60
3, 34366, Note_on_c, 1, 54, 0
3, 34368, Note_on_c, 1, 55, 60
3, 34390, Note_on_c, 1, 55, 0
3, 34392, Note_on_c, 1, 53, 60
3, 34414, Note_on_c, 1, 53, 0
3, 34416, Note_on_c, 1, 52, 60
3, 34438, Note_on_c, 1, 52, 0
3, 34440, Note_on_c, 1, 50, 60
3, 34462, Note_on_c, 1, 50, 0
3, 34464, Note_on_c, 1, 52, 60
3, 34486, Note_on_c, 1, 52, 0
3, 34488, Note_on_c, 1, 48, 60
3, 34510, Note_on_c, 1, 48, 0
3, 34512, Note_on_c, 1, 50, 60
3, 34534, Note_on_c, 1, 50, 0
3, 34536, Note_on_c, 1, 52, 60
3, 34558, Note_on_c, 1, 52, 0
3, 34560, Note_on_c, 1, 53, 60
3, 34582, Note_on_c, 1, 53, 0
3, 34584, Note_on_c, 1, 52, 60
3, 34606, Note_on_c, 1, 52, 0
3, 34608, Note_on_c, 1, 53, 60
3, 34630, Note_on_c, 1, 53, 0
3, 34632, Note_on_c, 1, 50, 60
3, 34654, Note_on_c, 1, 50, 0
3, 34656, Note_on_c, 1, 52, 60
3, 34678, Note_on_c, 1, 52, 0
3, 34680, Note_on_c, 1, 50, 60
3, 34702, Note_on_c, 1, 50, 0
3, 34704, Note_on_c, 1, 49, 60
3, 34726, Note_on_c, 1, 49, 0
3, 34728, Note_on_c, 1, 47, 60
3, 34750, Note_on_c, 1, 47, 0
3, 34752, Note_on_c, 1, 49, 60
3, 34774, Note_on_c, 1, 49, 0
3, 34776, Note_on_c, 1, 45, 60
3, 34798, Note_on_c, 1, 45, 0
3, 34800, Note_on_c, 1, 47, 60
3, 34822, Note_on_c, 1, 47, 0
3, 34824, Note_on_c, 1, 49, 60
3, 34846, Note_on_c, 1, 49, 0
3, 34848, Note_on_c, 1, 50, 60
3, 34870, Note_on_c, 1, 50, 0
3, 34872, Note_on_c, 1, 49, 60
3, 34894, Note_on_c, 1, 49, 0
3, 34896, Note_on_c, 1, 50, 60
3, 34918, Note_on_c, 1, 50, 0
3, 34920, Note_on_c, 1, 48, 60
3, 34942, Note_on_c, 1, 48, 0
3, 34944, Note_on_c, 1, 46, 60
3, 34966, Note_on_c, 1, 46, 0
3, 34968, Note_on_c, 1, 48, 58
3, 34990, Note_on_c, 1, 48, 0
3, 34992, Note_on_c, 1, 50, 56
3, 35014, Note_on_c, 1, 50, 0
3, 35016, Note_on_c, 1, 48, 54
3, 35038, Note_on_c, 1, 48, 0
3, 35040, Note_on_c, 1, 46, 52
3, 35062, Note_on_c, 1, 46, 0
3, 35064, Note_on_c, 1, 45, 50
3, 35086, Note_on_c, 1, 45, 0
3, 35088, Note_on_c, 1, 43, 48
3, 35110, Note_on_c, 1, 43, 0
3, 35112, Note_on_c, 1, 42, 45
3, 35134, Note_on_c, 1, 42, 0
3, 35136, Note_on_c, 1, 43, 42
3, 35158, Note_on_c, 1, 43, 0
3, 35160, Note_on_c, 1, 45, 39
3, 35182, Note_on_c, 1, 45, 0
3, 35184, Note_on_c, 1, 46, 36
3, 35206, Note_on_c, 1, 46, 0
3, 35208, Note_on_c, 1, 47, 33
3, 35230, Note_on_c, 1, 47, 0
3, 35232, Note_on_c, 1, 36, 30
3, 35254, Note_on_c, 1, 36, 0
3, 35256, Note_on_c, 1, 48, 30
3, 35278, Note_on_c, 1, 48, 0
3, 35280, Note_on_c, 1, 47, 30
3, 35302, Note_on_c, 1, 47, 0
3, 35304, Note_on_c, 1, 48, 30
3, 35326, Note_on_c, 1, 48, 0
3, 35328, Note_on_c, 1, 50, 30
3, 35350, Note_on_c, 1, 50, 0
3, 35352, Note_on_c, 1, 48, 30
3, 35374, Note_on_c, 1, 48, 0
3, 35376, Note_on_c, 1, 47, 30
3, 35398, Note_on_c, 1, 47, 0
3, 35400, Note_on_c, 1, 46, 30
3, 35422, Note_on_c, 1, 46, 0
3, 35424, Note_on_c, 1, 45, 30
3, 35446, Note_on_c, 1, 45, 0
3, 35448, Note_on_c, 1, 44, 30
3, 35470, Note_on_c, 1, 44, 0
3, 35472, Note_on_c, 1, 45, 30
3, 35494, Note_on_c, 1, 45, 0
3, 35496, Note_on_c, 1, 42, 30
3, 35518, Note_on_c, 1, 42, 0
3, 35520, Note_on_c, 1, 43, 30
3, 35542, Note_on_c, 1, 43, 0
3, 35544, Note_on_c, 1, 41, 30
3, 35566, Note_on_c, 1, 41, 0
3, 35568, Note_on_c, 1, 40, 30
3, 35590, Note_on_c, 1, 40, 0
3, 35592, Note_on_c, 1, 38, 30
3, 35614, Note_on_c, 1, 38, 0
3, 35616, Note_on_c, 1, 40, 30
3, 35638, Note_on_c, 1, 40, 0
3, 35640, Note_on_c, 1, 36, 30
3, 35662, Note_on_c, 1, 36, 0
3, 35664, Note_on_c, 1, 38, 30
3, 35686, Note_on_c, 1, 38, 0
3, 35688, Note_on_c, 1, 40, 30
3, 35710, Note_on_c, 1, 40, 0
3, 35712, Note_on_c, 1, 41, 30
3, 35734, Note_on_c, 1, 41, 0
3, 35736, Note_on_c, 1, 40, 30
3, 35758, Note_on_c, 1, 40, 0
3, 35760, Note_on_c, 1, 41, 30
3, 35782, Note_on_c, 1, 41, 0
3, 35784, Note_on_c, 1, 38, 30
3, 35806, Note_on_c, 1, 38, 0
3, 35808, Note_on_c, 1, 40, 30
3, 35830, Note_on_c, 1, 40, 0
3, 35832, Note_on_c, 1, 38, 30
3, 35854, Note_on_c, 1, 38, 0
3, 35856, Note_on_c, 1, 37, 30
3, 35878, Note_on_c, 1, 37, 0
3, 35880, Note_on_c, 1, 35, 30
3, 35902, Note_on_c, 1, 35, 0
3, 35904, Note_on_c, 1, 37, 30
3, 35926, Note_on_c, 1, 37, 0
3, 35928, Note_on_c, 1, 33, 30
3, 35950, Note_on_c, 1, 33, 0
3, 35952, Note_on_c, 1, 35, 30
3, 35974, Note_on_c, 1, 35, 0
3, 35976, Note_on_c, 1, 37, 30
3, 35998, Note_on_c, 1, 37, 0
3, 36000, Note_on_c, 1, 38, 30
3, 36022, Note_on_c, 1, 38, 0
3, 36024, Note_on_c, 1, 37, 30
3, 36046, Note_on_c, 1, 37, 0
3, 36048, Note_on_c, 1, 38, 31
3, 36070, Note_on_c, 1, 38, 0
3, 36072, Note_on_c, 1, 34, 32
3, 36094, Note_on_c, 1, 34, 0
3, 36096, Note_on_c, 1, 36, 33
3, 36118, Note_on_c, 1, 36, 0
3, 36120, Note_on_c, 1, 41, 34
3, 36142, Note_on_c, 1, 41, 0
3, 36144, Note_on_c, 1, 45, 35
3, 36166, Note_on_c, 1, 45, 0
3, 36168, Note_on_c, 1, 48, 36
3, 36190, Note_on_c, 1, 48, 0
3, 36192, Note_on_c, 1, 36, 37
3, 36214, Note_on_c, 1, 36, 0
3, 36216, Note_on_c, 1, 41, 38
3, 36238, Note_on_c, 1, 41, 0
3, 36240, Note_on_c, 1, 45, 39
3, 36262, Note_on_c, 1, 45, 0
3, 36264, Note_on_c, 1, 48, 40
3, 36286, Note_on_c, 1, 48, 0
3, 36288, Note_on_c, 1, 36, 41
3, 36310, Note_on_c, 1, 36, 0
3, 36312, Note_on_c, 1, 43, 42
3, 36334, Note_on_c, 1, 43, 0
3, 36336, Note_on_c, 1, 46, 43
3, 36358, Note_on_c, 1, 46, 0
3, 36360, Note_on_c, 1, 48, 44
3, 36382, Note_on_c, 1, 48, 0
3, 36384, Note_on_c, 1, 41, 45
3, 36406, Note_on_c, 1, 41, 0
3, 36408, Note_on_c, 1, 60, 45
3, 36430, Note_on_c, 1, 60, 0
3, 36432, Note_on_c, 1, 57, 45
3, 36454, Note_on_c, 1, 57, 0
3, 36456, Note_on_c, 1, 53, 45
3, 36478, Note_on_c, 1, 53, 0
3, 36480, Note_on_c, 1, 48, 45
3, 36480, Note_on_c, 1, 48, 45
3, 36502, Note_on_c, 1, 48, 0
3, 36504, Note_on_c, 1, 53, 45
3, 36526, Note_on_c, 1, 53, 0
3, 36528, Note_on_c, 1, 57, 45
3, 36550, Note_on_c, 1, 57, 0
3, 36552, Note_on_c, 1, 60, 45
3, 36574, Note_on_c, 1, 48, 0
3, 36574, Note_on_c, 1, 60, 0
3, 36576, Note_on_c, 1, 48, 45
3, 36576, Note_on_c, 1, 48, 45
3, 36598, Note_on_c, 1, 48, 0
3, 36600, Note_on_c, 1, 53, 45
3, 36622, Note_on_c, 1, 53, 0
3, 36624, Note_on_c, 1, 57, 45
3, 36646, Note_on_c, 1, 57, 0
3, 36648, Note_on_c, 1, 60, 45
3, 36670, Note_on_c, 1, 48, 0
3, 36670, Note_on_c, 1, 60, 0
3, 36672, Note_on_c, 1, 48, 45
3, 36672, Note_on_c, 1, 48, 45
3, 36694, Note_on_c, 1, 48, 0
3, 36696, Note_on_c, 1, 60, 45
3, 36718, Note_on_c, 1, 60, 0
3, 36720, Note_on_c, 1, 58, 45
3, 36742, Note_on_c, 1, 58, 0
3, 36744, Note_on_c, 1, 55, 45
3, 36766, Note_on_c, 1, 48, 0
3, 36766, Note_on_c, 1, 55, 0
3, 36768, Note_on_c, 1, 48, 45
3, 36768, Note_on_c, 1, 48, 45
3, 36790, Note_on_c, 1, 48, 0
3, 36792, Note_on_c, 1, 55, 45
3, 36814, Note_on_c, 1, 55, 0
3, 36816, Note_on_c, 1, 58, 45
3, 36838, Note_on_c, 1, 58, 0
3, 36840, Note_on_c, 1, 60, 45
3, 36862, Note_on_c, 1, 48, 0
3, 36862, Note_on_c, 1, 60, 0
3, 36864, Note_on_c, 1, 48, 45
3, 36864, Note_on_c, 1, 48, 45
3, 36886, Note_on_c, 1, 48, 0
3, 36888, Note_on_c, 1, 55, 45
3, 36910, Note_on_c, 1, 55, 0
3, 36912, Note_on_c, 1, 58, 45
3, 36934, Note_on_c, 1, 58, 0
3, 36936, Note_on_c, 1, 60, 45
3, 36958, Note_on_c, 1, 48, 0
3, 36958, Note_on_c, 1, 60, 0
3, 36960, Note_on_c, 1, 48, 45
3, 36960, Note_on_c, 1, 48, 45
3, 36982, Note_on_c, 1, 48, 0
3, 36984, Note_on_c, 1, 60, 45
3, 37006, Note_on_c, 1, 60, 0
3, 37008, Note_on_c, 1, 57, 45
3, 37030, Note_on_c, 1, 57, 0
3, 37032, Note_on_c, 1, 53, 45
3, 37054, Note_on_c, 1, 48, 0
3, 37054, Note_on_c, 1, 53, 0
3, 37056, Note_on_c, 1, 48, 45
3, 37056, Note_on_c, 1, 48, 45
3, 37078, Note_on_c, 1, 48, 0
3, 37080, Note_on_c, 1, 53, 45
3, 37102, Note_on_c, 1, 53, 0
3, 37104, Note_on_c, 1, 57, 45
3, 37126, Note_on_c, 1, 57, 0
3, 37128, Note_on_c, 1, 60, 45
3, 37150, Note_on_c, 1, 48, 0
3, 37150, Note_on_c, 1, 60, 0
3, 37152, Note_on_c, 1, 48, 45
3, 37152, Note_on_c, 1, 48, 45
3, 37174, Note_on_c, 1, 48, 0
3, 37176, Note_on_c, 1, 53, 45
3, 37198, Note_on_c, 1, 53, 0
3, 37200, Note_on_c, 1, 57, 45
3, 37222, Note_on_c, 1, 57, 0
3, 37224, Note_on_c, 1, 60, 45
3, 37246, Note_on_c, 1, 48, 0
3, 37246, Note_on_c, 1, 60, 0
3, 37248, Note_on_c, 1, 48, 45
3, 37248, Note_on_c, 1, 48, 45
3, 37270, Note_on_c, 1, 48, 0
3, 37272, Note_on_c, 1, 60, 45
3, 37294, Note_on_c, 1, 60, 0
3, 37296, Note_on_c, 1, 58, 45
3, 37318, Note_on_c, 1, 58, 0
3, 37320, Note_on_c, 1, 55, 45
3, 37342, Note_on_c, 1, 48, 0
3, 37342, Note_on_c, 1, 55, 0
3, 37344, Note_on_c, 1, 48, 45
3, 37344, Note_on_c, 1, 48, 45
3, 37366, Note_on_c, 1, 48, 0
3, 37368, Note_on_c, 1, 55, 45
3, 37390, Note_on_c, 1, 55, 0
3, 37392, Note_on_c, 1, 58, 45
3, 37414, Note_on_c, 1, 58, 0
3, 37416, Note_on_c, 1, 60, 45
3, 37438, Note_on_c, 1, 48, 0
3, 37438, Note_on_c, 1, 60, 0
3, 37440, Note_on_c, 1, 58, 45
3, 37462, Note_on_c, 1, 58, 0
3, 37464, Note_on_c, 1, 60, 45
3, 37486, Note_on_c, 1, 60, 0
3, 37488, Note_on_c, 1, 64, 45
3, 37510, Note_on_c, 1, 64, 0
3, 37512, Note_on_c, 1, 67, 45
3, 37534, Note_on_c, 1, 67, 0
3, 37536, Note_on_c, 1, 57, 45
3, 37536, Note_on_c, 1, 57, 45
3, 37558, Note_on_c, 1, 57, 0
3, 37560, Note_on_c, 1, 69, 45
3, 37582, Note_on_c, 1, 69, 0
3, 37584, Note_on_c, 1, 65, 45
3, 37606, Note_on_c, 1, 65, 0
3, 37608, Note_on_c, 1, 60, 45
3, 37630, Note_on_c, 1, 57, 0
3, 37630, Note_on_c, 1, 60, 0
3, 37632, Note_on_c, 1, 57, 45
3, 37654, Note_on_c, 1, 57, 0
3, 37656, Note_on_c, 1, 65, 45
3, 37678, Note_on_c, 1, 65, 0
3, 37680, Note_on_c, 1, 58, 45
3, 37680, Note_on_c, 1, 60, 45
3, 37702, Note_on_c, 1, 58, 0
3, 37702, Note_on_c, 1, 60, 0
3, 37704, Note_on_c, 1, 67, 45
3, 37726, Note_on_c, 1, 67, 0
3, 37728, Note_on_c, 1, 57, 45
3, 37728, Note_on_c, 1, 60, 45
3, 37750, Note_on_c, 1, 57, 0
3, 37750, Note_on_c, 1, 60, 0
3, 37752, Note_on_c, 1, 65, 45
3, 37774, Note_on_c, 1, 65, 0
3, 37776, Note_on_c, 1, 58, 45
3, 37776, Note_on_c, 1, 60, 45
3, 37798, Note_on_c, 1, 58, 0
3, 37798, Note_on_c, 1, 60, 0
3, 37800, Note_on_c, 1, 67, 45
3, 37822, Note_on_c, 1, 67, 0
3, 37824, Note_on_c, 1, 57, 45
3, 37824, Note_on_c, 1, 57, 45
3, 37846, Note_on_c, 1, 57, 0
3, 37848, Note_on_c, 1, 69, 45
3, 37870, Note_on_c, 1, 69, 0
3, 37872, Note_on_c, 1, 65, 45
3, 37894, Note_on_c, 1, 65, 0
3, 37896, Note_on_c, 1, 60, 45
3, 37918, Note_on_c, 1, 57, 0
3, 37918, Note_on_c, 1, 60, 0
3, 37920, Note_on_c, 1, 57, 45
3, 37920, Note_on_c, 1, 57, 45
3, 37942, Note_on_c, 1, 57, 0
3, 37944, Note_on_c, 1, 65, 45
3, 37966, Note_on_c, 1, 57, 0
3, 37966, Note_on_c, 1, 65, 0
3, 37968, Note_on_c, 1, 58, 45
3, 37968, Note_on_c, 1, 60, 45
3, 37990, Note_on_c, 1, 60, 0
3, 37992, Note_on_c, 1, 67, 45
3, 38014, Note_on_c, 1, 58, 0
3, 38014, Note_on_c, 1, 67, 0
3, 38016, Note_on_c, 1, 57, 45
3, 38016, Note_on_c, 1, 60, 45
3, 38038, Note_on_c, 1, 60, 0
3, 38040, Note_on_c, 1, 65, 45
3, 38062, Note_on_c, 1, 57, 0
3, 38062, Note_on_c, 1, 65, 0
3, 38064, Note_on_c, 1, 58, 45
3, 38064, Note_on_c, 1, 60, 45
3, 38086, Note_on_c, 1, 60, 0
3, 38088, Note_on_c, 1, 67, 45
3, 38110, Note_on_c, 1, 58, 0
3, 38110, Note_on_c, 1, 67, 0
3, 38112, Note_on_c, 1, 57, 45
3, 38112, Note_on_c, 1, 60, 45
3, 38134, Note_on_c, 1, 60, 0
3, 38136, Note_on_c, 1, 65, 45
3, 38158, Note_on_c, 1, 57, 0
3, 38158, Note_on_c, 1, 65, 0
3, 38160, Note_on_c, 1, 58, 45
3, 38160, Note_on_c, 1, 60, 45
3, 38182, Note_on_c, 1, 60, 0
3, 38184, Note_on_c, 1, 67, 45
3, 38206, Note_on_c, 1, 58, 0
3, 38206, Note_on_c, 1, 67, 0
3, 38208, Note_on_c, 1, 57, 45
3, 38208, Note_on_c, 1, 60, 45
3, 38230, Note_on_c, 1, 60, 0
3, 38232, Note_on_c, 1, 65, 45
3, 38254, Note_on_c, 1, 57, 0
3, 38254, Note_on_c, 1, 65, 0
3, 38256, Note_on_c, 1, 58, 45
3, 38256, Note_on_c, 1, 60, 45
3, 38278, Note_on_c, 1, 60, 0
3, 38280, Note_on_c, 1, 67, 45
3, 38302, Note_on_c, 1, 58, 0
3, 38302, Note_on_c, 1, 67, 0
3, 38304, Note_on_c, 1, 57, 45
3, 38304, Note_on_c, 1, 60, 45
3, 38326, Note_on_c, 1, 60, 0
3, 38328, Note_on_c, 1, 65, 45
3, 38350, Note_on_c, 1, 57, 0
3, 38350, Note_on_c, 1, 65, 0
3, 38352, Note_on_c, 1, 58, 45
3, 38352, Note_on_c, 1, 60, 45
3, 38374, Note_on_c, 1, 60, 0
3, 38376, Note_on_c, 1, 67, 45
3, 38398, Note_on_c, 1, 58, 0
3, 38398, Note_on_c, 1, 67, 0
3, 38400, Note_on_c, 1, 57, 45
3, 38400, Note_on_c, 1, 60, 45
3, 38400, Note_on_c, 1, 65, 45
3, 38494, Note_on_c, 1, 57, 0
3, 38494, Note_on_c, 1, 60, 0
3, 38494, Note_on_c, 1, 65, 0
3, 38976, Note_on_c, 1, 37, 30
3, 38976, Note_on_c, 1, 37, 30
3, 38998, Note_on_c, 1, 37, 0
3, 39000, Note_on_c, 1, 44, 30
3, 39022, Note_on_c, 1, 44, 0
3, 39024, Note_on_c, 1, 49, 30
3, 39046, Note_on_c, 1, 49, 0
3, 39048, Note_on_c, 1, 44, 30
3, 39070, Note_on_c, 1, 44, 0
3, 39072, Note_on_c, 1, 49, 30
3, 39094, Note_on_c, 1, 49, 0
3, 39096, Note_on_c, 1, 44, 30
3, 39118, Note_on_c, 1, 44, 0
3, 39120, Note_on_c, 1, 49, 30
3, 39142, Note_on_c, 1, 49, 0
3, 39144, Note_on_c, 1, 44, 30
3, 39166, Note_on_c, 1, 44, 0
3, 39168, Note_on_c, 1, 48, 30
3, 39190, Note_on_c, 1, 48, 0
3, 39192, Note_on_c, 1, 44, 30
3, 39214, Note_on_c, 1, 44, 0
3, 39216, Note_on_c, 1, 48, 30
3, 39232, Note_on_c, 1, 37, 0
3, 39238, Note_on_c, 1, 48, 0
3, 39240, Note_on_c, 1, 44, 30
3, 39262, Note_on_c, 1, 44, 0
3, 39264, Note_on_c, 1, 37, 30
3, 39264, Note_on_c, 1, 37, 30
3, 39286, Note_on_c, 1, 37, 0
3, 39288, Note_on_c, 1, 44, 30
3, 39310, Note_on_c, 1, 44, 0
3, 39312, Note_on_c, 1, 49, 30
3, 39334, Note_on_c, 1, 49, 0
3, 39336, Note_on_c, 1, 44, 30
3, 39358, Note_on_c, 1, 44, 0
3, 39360, Note_on_c, 1, 49, 30
3, 39382, Note_on_c, 1, 49, 0
3, 39384, Note_on_c, 1, 44, 30
3, 39406, Note_on_c, 1, 44, 0
3, 39408, Note_on_c, 1, 49, 30
3, 39430, Note_on_c, 1, 49, 0
3, 39432, Note_on_c, 1, 44, 30
3, 39454, Note_on_c, 1, 44, 0
3, 39456, Note_on_c, 1, 48, 30
3, 39478, Note_on_c, 1, 48, 0
3, 39480, Note_on_c, 1, 44, 30
3, 39502, Note_on_c, 1, 44, 0
3, 39504, Note_on_c, 1, 48, 30
3, 39520, Note_on_c, 1, 37, 0
3, 39526, Note_on_c, 1, 48, 0
3, 39528, Note_on_c, 1, 44, 30
3, 39550, Note_on_c, 1, 44, 0
3, 39552, Note_on_c, 1, 37, 30
3, 39552, Note_on_c, 1, 37, 30
3, 39574, Note_on_c, 1, 37, 0
3, 39576, Note_on_c, 1, 44, 30
3, 39598, Note_on_c, 1, 44, 0
3, 39600, Note_on_c, 1, 49, 30
3, 39622, Note_on_c, 1, 49, 0
3, 39624, Note_on_c, 1, 44, 30
3, 39646, Note_on_c, 1, 44, 0
3, 39648, Note_on_c, 1, 49, 30
3, 39670, Note_on_c, 1, 49, 0
3, 39672, Note_on_c, 1, 44, 30
3, 39694, Note_on_c, 1, 44, 0
3, 39696, Note_on_c, 1, 49, 30
3, 39718, Note_on_c, 1, 49, 0
3, 39720, Note_on_c, 1, 44, 30
3, 39742, Note_on_c, 1, 44, 0
3, 39744, Note_on_c, 1, 37, 30
3, 39744, Note_on_c, 1, 48, 30
3, 39766, Note_on_c, 1, 48, 0
3, 39768, Note_on_c, 1, 44, 30
3, 39790, Note_on_c, 1, 44, 0
3, 39792, Note_on_c, 1, 48, 30
3, 39808, Note_on_c, 1, 37, 0
3, 39814, Note_on_c, 1, 48, 0
3, 39816, Note_on_c, 1, 44, 30
3, 39838, Note_on_c, 1, 37, 0
3, 39838, Note_on_c, 1, 44, 0
3, 39840, Note_on_c, 1, 37, 30
3, 39840, Note_on_c, 1, 37, 30
3, 39862, Note_on_c, 1, 37, 0
3, 39864, Note_on_c, 1, 44, 30
3, 39886, Note_on_c, 1, 44, 0
3, 39888, Note_on_c, 1, 49, 30
3, 39910, Note_on_c, 1, 49, 0
3, 39912, Note_on_c, 1, 44, 30
3, 39934, Note_on_c, 1, 44, 0
3, 39936, Note_on_c, 1, 49, 30
3, 39958, Note_on_c, 1, 49, 0
3, 39960, Note_on_c, 1, 44, 30
3, 39982, Note_on_c, 1, 44, 0
3, 39984, Note_on_c, 1, 49, 30
3, 40006, Note_on_c, 1, 49, 0
3, 40008, Note_on_c, 1, 44, 30
3, 40030, Note_on_c, 1, 44, 0
3, 40032, Note_on_c, 1, 41, 30
3, 40054, Note_on_c, 1, 41, 0
3, 40056, Note_on_c, 1, 44, 30
3, 40078, Note_on_c, 1, 44, 0
3, 40080, Note_on_c, 1, 41, 30
3, 40096, Note_on_c, 1, 37, 0
3, 40102, Note_on_c, 1, 41, 0
3, 40104, Note_on_c, 1, 44, 30
3, 40126, Note_on_c, 1, 44, 0
3, 40128, Note_on_c, 1, 37, 30
3, 40150, Note_on_c, 1, 37, 0
3, 40152, Note_on_c, 1, 44, 31
3, 40174, Note_on_c, 1, 44, 0
3, 40176, Note_on_c, 1, 41, 32
3, 40198, Note_on_c, 1, 41, 0
3, 40200, Note_on_c, 1, 44, 33
3, 40222, Note_on_c, 1, 44, 0
3, 40224, Note_on_c, 1, 37, 34
3, 40246, Note_on_c, 1, 37, 0
3, 40248, Note_on_c, 1, 44, 35
3, 40270, Note_on_c, 1, 44, 0
3, 40272, Note_on_c, 1, 41, 36
3, 40294, Note_on_c, 1, 41, 0
3, 40296, Note_on_c, 1, 44, 37
3, 40318, Note_on_c, 1, 44, 0
3, 40320, Note_on_c, 1, 37, 38
3, 40342, Note_on_c, 1, 37, 0
3, 40344, Note_on_c, 1, 44, 39
3, 40366, Note_on_c, 1, 44, 0
3, 40368, Note_on_c, 1, 41, 41
3, 40390, Note_on_c, 1, 41, 0
3, 40392, Note_on_c, 1, 44, 43
3, 40414, Note_on_c, 1, 44, 0
3, 40416, Note_on_c, 1, 36, 45
3, 40438, Note_on_c, 1, 36, 0
3, 40440, Note_on_c, 1, 48, 45
3, 40462, Note_on_c, 1, 48, 0
3, 40464, Note_on_c, 1, 47, 45
3, 40486, Note_on_c, 1, 47, 0
3, 40488, Note_on_c, 1, 48, 45
3, 40510, Note_on_c, 1, 48, 0
3, 40512, Note_on_c, 1, 50, 45
3, 40534, Note_on_c, 1, 50, 0
3, 40536, Note_on_c, 1, 48, 45
3, 40558, Note_on_c, 1, 48, 0
3, 40560, Note_on_c, 1, 47, 45
3, 40582, Note_on_c, 1, 47, 0
3, 40584, Note_on_c, 1, 46, 45
3, 40606, Note_on_c, 1, 46, 0
3, 40608, Note_on_c, 1, 45, 45
3, 40630, Note_on_c, 1, 45, 0
3, 40632, Note_on_c, 1, 44, 45
3, 40654, Note_on_c, 1, 44, 0
3, 40656, Note_on_c, 1, 45, 45
3, 40678, Note_on_c, 1, 45, 0
3, 40680, Note_on_c, 1, 42, 45
3, 40702, Note_on_c, 1, 42, 0
3, 40704, Note_on_c, 1, 43, 45
3, 40726, Note_on_c, 1, 43, 0
3, 40728, Note_on_c, 1, 41, 45
3, 40750, Note_on_c, 1, 41, 0
3, 40752, Note_on_c, 1, 40, 45
3, 40774, Note_on_c, 1, 40, 0
3, 40776, Note_on_c, 1, 38, 45
3, 40798, Note_on_c, 1, 38, 0
3, 40800, Note_on_c, 1, 40, 45
3, 40822, Note_on_c, 1, 40, 0
3, 40824, Note_on_c, 1, 36, 45
3, 40846, Note_on_c, 1, 36, 0
3, 40848, Note_on_c, 1, 38, 45
3, 40870, Note_on_c, 1, 38, 0
3, 40872, Note_on_c, 1, 40, 45
3, 40894, Note_on_c, 1, 40, 0
3, 40896, Note_on_c, 1, 41, 45
3, 40918, Note_on_c, 1, 41, 0
3, 40920, Note_on_c, 1, 40, 45
3, 40942, Note_on_c, 1, 40, 0
3, 40944, Note_on_c, 1, 41, 45
3, 40966, Note_on_c, 1, 41, 0
3, 40968, Note_on_c, 1, 38, 45
3, 40990, Note_on_c, 1, 38, 0
3, 40992, Note_on_c, 1, 40, 45
3, 41014, Note_on_c, 1, 40, 0
3, 41016, Note_on_c, 1, 38, 45
3, 41038, Note_on_c, 1, 38, 0
3, 41040, Note_on_c, 1, 37, 45
3, 41062, Note_on_c, 1, 37, 0
3, 41064, Note_on_c, 1, 35, 45
3, 41086, Note_on_c, 1, 35, 0
3, 41088, Note_on_c, 1, 37, 45
3, 41110, Note_on_c, 1, 37, 0
3, 41112, Note_on_c, 1, 33, 45
3, 41134, Note_on_c, 1, 33, 0
3, 41136, Note_on_c, 1, 35, 45
3, 41158, Note_on_c, 1, 35, 0
3, 41160, Note_on_c, 1, 37, 45
3, 41182, Note_on_c, 1, 37, 0
3, 41184, Note_on_c, 1, 38, 45
3, 41206, Note_on_c, 1, 38, 0
3, 41208, Note_on_c, 1, 37, 45
3, 41230, Note_on_c, 1, 37, 0
3, 41232, Note_on_c, 1, 38, 45
3, 41254, Note_on_c, 1, 38, 0
3, 41256, Note_on_c, 1, 36, 45
3, 41278, Note_on_c, 1, 36, 0
3, 41280, Note_on_c, 1, 34, 45
3, 41302, Note_on_c, 1, 34, 0
3, 41304, Note_on_c, 1, 36, 44
3, 41326, Note_on_c, 1, 36, 0
3, 41328, Note_on_c, 1, 38, 43
3, 41350, Note_on_c, 1, 38, 0
3, 41352, Note_on_c, 1, 36, 42
3, 41374, Note_on_c, 1, 36, 0
3, 41376, Note_on_c, 1, 34, 41
3, 41398, Note_on_c, 1, 34, 0
3, 41400, Note_on_c, 1, 33, 40
3, 41422, Note_on_c, 1, 33, 0
3, 41424, Note_on_c, 1, 31, 39
3, 41446, Note_on_c, 1, 31, 0
3, 41448, Note_on_c, 1, 30, 38
3, 41470, Note_on_c, 1, 30, 0
3, 41472, Note_on_c, 1, 31, 37
3, 41494, Note_on_c, 1, 31, 0
3, 41496, Note_on_c, 1, 33, 36
3, 41518, Note_on_c, 1, 33, 0
3, 41520, Note_on_c, 1, 34, 34
3, 41542, Note_on_c, 1, 34, 0
3, 41544, Note_on_c, 1, 35, 32
3, 41566, Note_on_c, 1, 35, 0
3, 41568, Note_on_c, 1, 36, 30
3, 41584, Note_on_c, 1, 36, 0
3, 41592, Note_on_c, 1, 48, 30
3, 41614, Note_on_c, 1, 48, 0
3, 41616, Note_on_c, 1, 47, 30
3, 41638, Note_on_c, 1, 47, 0
3, 41640, Note_on_c, 1, 48, 30
3, 41662, Note_on_c, 1, 48, 0
3, 41664, Note_on_c, 1, 50, 30
3, 41686, Note_on_c, 1, 50, 0
3, 41688, Note_on_c, 1, 48, 30
3, 41688, Note_on_c, 1, 48, 30
3, 41710, Note_on_c, 1, 48, 0
3, 41712, Note_on_c, 1, 47, 30
3, 41734, Note_on_c, 1, 48, 0
3, 41734, Note_on_c, 1, 47, 0
3, 41736, Note_on_c, 1, 46, 30
3, 41758, Note_on_c, 1, 46, 0
3, 41760, Note_on_c, 1, 45, 30
3, 41760, Note_on_c, 1, 48, 30
3, 41782, Note_on_c, 1, 45, 0
3, 41784, Note_on_c, 1, 44, 30
3, 41806, Note_on_c, 1, 44, 0
3, 41808, Note_on_c, 1, 45, 30
3, 41830, Note_on_c, 1, 45, 0
3, 41832, Note_on_c, 1, 42, 30
3, 41854, Note_on_c, 1, 48, 0
3, 41854, Note_on_c, 1, 42, 0
3, 41856, Note_on_c, 1, 43, 30
3, 41856, Note_on_c, 1, 48, 30
3, 41878, Note_on_c, 1, 43, 0
3, 41880, Note_on_c, 1, 41, 30
3, 41902, Note_on_c, 1, 41, 0
3, 41904, Note_on_c, 1, 40, 30
3, 41926, Note_on_c, 1, 40, 0
3, 41928, Note_on_c, 1, 38, 30
3, 41950, Note_on_c, 1, 38, 0
3, 41952, Note_on_c, 1, 40, 30
3, 41974, Note_on_c, 1, 40, 0
3, 41976, Note_on_c, 1, 36, 30
3, 41998, Note_on_c, 1, 36, 0
3, 42000, Note_on_c, 1, 38, 30
3, 42016, Note_on_c, 1, 48, 0
3, 42022, Note_on_c, 1, 38, 0
3, 42024, Note_on_c, 1, 40, 30
3, 42046, Note_on_c, 1, 40, 0
3, 42048, Note_on_c, 1, 41, 30
3, 42048, Note_on_c, 1, 45, 30
3, 42070, Note_on_c, 1, 41, 0
3, 42072, Note_on_c, 1, 40, 30
3, 42094, Note_on_c, 1, 40, 0
3, 42096, Note_on_c, 1, 41, 30
3, 42118, Note_on_c, 1, 41, 0
3, 42120, Note_on_c, 1, 38, 30
3, 42142, Note_on_c, 1, 45, 0
3, 42142, Note_on_c, 1, 38, 0
3, 42144, Note_on_c, 1, 40, 30
3, 42144, Note_on_c, 1, 45, 30
3, 42166, Note_on_c, 1, 40, 0
3, 42168, Note_on_c, 1, 38, 30
3, 42190, Note_on_c, 1, 38, 0
3, 42192, Note_on_c, 1, 37, 30
3, 42214, Note_on_c, 1, 37, 0
3, 42216, Note_on_c, 1, 35, 30
3, 42238, Note_on_c, 1, 35, 0
3, 42240, Note_on_c, 1, 37, 30
3, 42262, Note_on_c, 1, 37, 0
3, 42264, Note_on_c, 1, 33, 30
3, 42286, Note_on_c, 1, 33, 0
3, 42288, Note_on_c, 1, 35, 30
3, 42304, Note_on_c, 1, 45, 0
3, 42310, Note_on_c, 1, 35, 0
3, 42312, Note_on_c, 1, 37, 30
3, 42334, Note_on_c, 1, 37, 0
3, 42336, Note_on_c, 1, 38, 30
3, 42358, Note_on_c, 1, 38, 0
3, 42360, Note_on_c, 1, 37, 30
3, 42382, Note_on_c, 1, 37, 0
3, 42384, Note_on_c, 1, 38, 30
3, 42406, Note_on_c, 1, 38, 0
3, 42408, Note_on_c, 1, 34, 30
3, 42430, Note_on_c, 1, 34, 0
3, 42432, Note_on_c, 1, 36, 30
3, 42432, Note_on_c, 1, 36, 30
3, 42454, Note_on_c, 1, 36, 0
3, 42456, Note_on_c, 1, 41, 31
3, 42478, Note_on_c, 1, 41, 0
3, 42480, Note_on_c, 1, 45, 32
3, 42502, Note_on_c, 1, 45, 0
3, 42504, Note_on_c, 1, 48, 33
3, 42526, Note_on_c, 1, 36, 0
3, 42526, Note_on_c, 1, 48, 0
3, 42528, Note_on_c, 1, 36, 34
3, 42528, Note_on_c, 1, 36, 34
3, 42550, Note_on_c, 1, 36, 0
3, 42552, Note_on_c, 1, 41, 35
3, 42574, Note_on_c, 1, 41, 0
3, 42576, Note_on_c, 1, 45, 36
3, 42598, Note_on_c, 1, 45, 0
3, 42600, Note_on_c, 1, 48, 37
3, 42622, Note_on_c, 1, 36, 0
3, 42622, Note_on_c, 1, 48, 0
3, 42624, Note_on_c, 1, 36, 38
3, 42646, Note_on_c, 1, 36, 0
3, 42648, Note_on_c, 1, 48, 39
3, 42670, Note_on_c, 1, 48, 0
3, 42672, Note_on_c, 1, 50, 41
3, 42694, Note_on_c, 1, 50, 0
3, 42696, Note_on_c, 1, 52, 43
3, 42718, Note_on_c, 1, 52, 0
3, 42720, Note_on_c, 1, 41, 45
3, 42752, Note_on_c, 1, 41, 0
3, 42768, Note_on_c, 1, 45, 45
3, 42768, Note_on_c, 1, 48, 45
3, 42768, Note_on_c, 1, 53, 45
3, 42800, Note_on_c, 1, 45, 0
3, 42800, Note_on_c, 1, 48, 0
3, 42800, Note_on_c, 1, 53, 0
3, 42816, Note_on_c, 1, 45, 45
3, 42816, Note_on_c, 1, 48, 45
3, 42816, Note_on_c, 1, 53, 45
3, 42848, Note_on_c, 1, 45, 0
3, 42848, Note_on_c, 1, 48, 0
3, 42848, Note_on_c, 1, 53, 0
3, 42864, Note_on_c, 1, 45, 45
3, 42864, Note_on_c, 1, 48, 45
3, 42864, Note_on_c, 1, 53, 45
3, 42896, Note_on_c, 1, 45, 0
3, 42896, Note_on_c, 1, 48, 0
3, 42896, Note_on_c, 1, 53, 0
3, 42912, Note_on_c, 1, 45, 45
3, 42912, Note_on_c, 1, 48, 45
3, 42912, Note_on_c, 1, 53, 45
3, 42944, Note_on_c, 1, 45, 0
3, 42944, Note_on_c, 1, 48, 0
3, 42944, Note_on_c, 1, 53, 0
3, 42960, Note_on_c, 1, 45, 45
3, 42960, Note_on_c, 1, 48, 45
3, 42960, Note_on_c, 1, 53, 45
3, 42992, Note_on_c, 1, 45, 0
3, 42992, Note_on_c, 1, 48, 0
3, 42992, Note_on_c, 1, 53, 0
3, 43008, Note_on_c, 1, 41, 45
3, 43040, Note_on_c, 1, 41, 0
3, 43056, Note_on_c, 1, 45, 45
3, 43056, Note_on_c, 1, 48, 45
3, 43056, Note_on_c, 1, 53, 45
3, 43088, Note_on_c, 1, 45, 0
3, 43088, Note_on_c, 1, 48, 0
3, 43088, Note_on_c, 1, 53, 0
3, 43104, Note_on_c, 1, 45, 45
3, 43104, Note_on_c, 1, 48, 45
3, 43104, Note_on_c, 1, 53, 45
3, 43136, Note_on_c, 1, 45, 0
3, 43136, Note_on_c, 1, 48, 0
3, 43136, Note_on_c, 1, 53, 0
3, 43152, Note_on_c, 1, 45, 45
3, 43152, Note_on_c, 1, 48, 45
3, 43152, Note_on_c, 1, 53, 45
3, 43184, Note_on_c, 1, 45, 0
3, 43184, Note_on_c, 1, 48, 0
3, 43184, Note_on_c, 1, 53, 0
3, 43200, Note_on_c, 1, 45, 45
3, 43200, Note_on_c, 1, 48, 45
3, 43200, Note_on_c, 1, 53, 45
3, 43232, Note_on_c, 1, 45, 0
3, 43232, Note_on_c, 1, 48, 0
3, 43232, Note_on_c, 1, 53, 0
3, 43248, Note_on_c, 1, 45, 45
3, 43248, Note_on_c, 1, 48, 45
3, 43248, Note_on_c, 1, 53, 45
3, 43280, Note_on_c, 1, 45, 0
3, 43280, Note_on_c, 1, 48, 0
3, 43280, Note_on_c, 1, 53, 0
3, 43296, Note_on_c, 1, 41, 45
3, 43328, Note_on_c, 1, 41, 0
3, 43344, Note_on_c, 1, 48, 45
3, 43344, Note_on_c, 1, 52, 45
3, 43344, Note_on_c, 1, 55, 45
3, 43376, Note_on_c, 1, 48, 0
3, 43376, Note_on_c, 1, 52, 0
3, 43376, Note_on_c, 1, 55, 0
3, 43392, Note_on_c, 1, 48, 45
3, 43392, Note_on_c, 1, 52, 45
3, 43392, Note_on_c, 1, 55, 45
3, 43424, Note_on_c, 1, 48, 0
3, 43424, Note_on_c, 1, 52, 0
3, 43424, Note_on_c, 1, 55, 0
3, 43440, Note_on_c, 1, 48, 45
3, 43440, Note_on_c, 1, 52, 45
3, 43440, Note_on_c, 1, 55, 45
3, 43472, Note_on_c, 1, 48, 0
3, 43472, Note_on_c, 1, 52, 0
3, 43472, Note_on_c, 1, 55, 0
3, 43488, Note_on_c, 1, 48, 45
3, 43488, Note_on_c, 1, 52, 45
3, 43488, Note_on_c, 1, 55, 45
3, 43520, Note_on_c, 1, 48, 0
3, 43520, Note_on_c, 1, 52, 0
3, 43520, Note_on_c, 1, 55, 0
3, 43536, Note_on_c, 1, 48, 45
3, 43536, Note_on_c, 1, 52, 45
3, 43536, Note_on_c, 1, 55, 45
3, 43568, Note_on_c, 1, 48, 0
3, 43568, Note_on_c, 1, 52, 0
3, 43568, Note_on_c, 1, 55, 0
3, 43584, Note_on_c, 1, 41, 45
3, 43616, Note_on_c, 1, 41, 0
3, 43632, Note_on_c, 1, 48, 45
3, 43632, Note_on_c, 1, 52, 45
3, 43632, Note_on_c, 1, 55, 45
3, 43664, Note_on_c, 1, 48, 0
3, 43664, Note_on_c, 1, 52, 0
3, 43664, Note_on_c, 1, 55, 0
3, 43680, Note_on_c, 1, 48, 45
3, 43680, Note_on_c, 1, 52, 45
3, 43680, Note_on_c, 1, 55, 45
3, 43712, Note_on_c, 1, 48, 0
3, 43712, Note_on_c, 1, 52, 0
3, 43712, Note_on_c, 1, 55, 0
3, 43728, Note_on_c, 1, 48, 45
3, 43728, Note_on_c, 1, 52, 45
3, 43728, Note_on_c, 1, 55, 45
3, 43760, Note_on_c, 1, 48, 0
3, 43760, Note_on_c, 1, 52, 0
3, 43760, Note_on_c, 1, 55, 0
3, 43776, Note_on_c, 1, 48, 45
3, 43776, Note_on_c, 1, 52, 45
3, 43776, Note_on_c, 1, 55, 45
3, 43808, Note_on_c, 1, 48, 0
3, 43808, Note_on_c, 1, 52, 0
3, 43808, Note_on_c, 1, 55, 0
3, 43824, Note_on_c, 1, 48, 45
3, 43824, Note_on_c, 1, 52, 45
3, 43824, Note_on_c, 1, 55, 45
3, 43856, Note_on_c, 1, 48, 0
3, 43856, Note_on_c, 1, 52, 0
3, 43856, Note_on_c, 1, 55, 0
3, 43872, Note_on_c, 1, 41, 45
3, 43904, Note_on_c, 1, 41, 0
3, 43920, Note_on_c, 1, 53, 45
3, 43920, Note_on_c, 1, 57, 45
3, 43952, Note_on_c, 1, 53, 0
3, 43952, Note_on_c, 1, 57, 0
3, 43968, Note_on_c, 1, 53, 45
3, 43968, Note_on_c, 1, 57, 45
3, 43968, Note_on_c, 1, 60, 45
3, 44000, Note_on_c, 1, 53, 0
3, 44000, Note_on_c, 1, 57, 0
3, 44000, Note_on_c, 1, 60, 0
3, 44016, Note_on_c, 1, 53, 45
3, 44016, Note_on_c, 1, 57, 45
3, 44016, Note_on_c, 1, 60, 45
3, 44048, Note_on_c, 1, 53, 0
3, 44048, Note_on_c, 1, 57, 0
3, 44048, Note_on_c, 1, 60, 0
3, 44064, Note_on_c, 1, 53, 45
3, 44064, Note_on_c, 1, 57, 45
3, 44064, Note_on_c, 1, 60, 45
3, 44096, Note_on_c, 1, 53, 0
3, 44096, Note_on_c, 1, 57, 0
3, 44096, Note_on_c, 1, 60, 0
3, 44112, Note_on_c, 1, 53, 45
3, 44112, Note_on_c, 1, 57, 45
3, 44112, Note_on_c, 1, 60, 45
3, 44144, Note_on_c, 1, 53, 0
3, 44144, Note_on_c, 1, 57, 0
3, 44144, Note_on_c, 1, 60, 0
3, 44160, Note_on_c, 1, 41, 45
3, 44192, Note_on_c, 1, 41, 0
3, 44208, Note_on_c, 1, 53, 45
3, 44208, Note_on_c, 1, 57, 45
3, 44208, Note_on_c, 1, 60, 45
3, 44208, Note_on_c, 1, 63, 45
3, 44240, Note_on_c, 1, 53, 0
3, 44240, Note_on_c, 1, 57, 0
3, 44240, Note_on_c, 1, 60, 0
3, 44240, Note_on_c, 1, 63, 0
3, 44256, Note_on_c, 1, 53, 45
3, 44256, Note_on_c, 1, 57, 45
3, 44256, Note_on_c, 1, 60, 45
3, 44256, Note_on_c, 1, 63, 45
3, 44288, Note_on_c, 1, 53, 0
3, 44288, Note_on_c, 1, 57, 0
3, 44288, Note_on_c, 1, 60, 0
3, 44288, Note_on_c, 1, 63, 0
3, 44304, Note_on_c, 1, 53, 45
3, 44304, Note_on_c, 1, 57, 45
3, 44304, Note_on_c, 1, 60, 45
3, 44304, Note_on_c, 1, 63, 45
3, 44336, Note_on_c, 1, 53, 0
3, 44336, Note_on_c, 1, 57, 0
3, 44336, Note_on_c, 1, 60, 0
3, 44336, Note_on_c, 1, 63, 0
3, 44352, Note_on_c, 1, 53, 45
3, 44352, Note_on_c, 1, 57, 45
3, 44352, Note_on_c, 1, 60, 45
3, 44352, Note_on_c, 1, 63, 45
3, 44384, Note_on_c, 1, 53, 0
3, 44384, Note_on_c, 1, 57, 0
3, 44384, Note_on_c, 1, 60, 0
3, 44384, Note_on_c, 1, 63, 0
3, 44400, Note_on_c, 1, 53, 45
3, 44400, Note_on_c, 1, 57, 45
3, 44400, Note_on_c, 1, 60, 45
3, 44432, Note_on_c, 1, 53, 0
3, 44432, Note_on_c, 1, 57, 0
3, 44432, Note_on_c, 1, 60, 0
3, 44448, Note_on_c, 1, 54, 45
3, 44448, Note_on_c, 1, 57, 45
3, 44448, Note_on_c, 1, 60, 45
3, 44480, Note_on_c, 1, 54, 0
3, 44480, Note_on_c, 1, 57, 0
3, 44480, Note_on_c, 1, 60, 0
3, 44496, Note_on_c, 1, 48, 45
3, 44496, Note_on_c, 1, 60, 45
3, 44512, Note_on_c, 1, 48, 0
3, 44512, Note_on_c, 1, 60, 0
3, 44520, Note_on_c, 1, 47, 45
3, 44520, Note_on_c, 1, 59, 45
3, 44536, Note_on_c, 1, 47, 0
3, 44536, Note_on_c, 1, 59, 0
3, 44544, Note_on_c, 1, 48, 45
3, 44544, Note_on_c, 1, 60, 45
3, 44560, Note_on_c, 1, 48, 0
3, 44560, Note_on_c, 1, 60, 0
3, 44568, Note_on_c, 1, 47, 45
3, 44568, Note_on_c, 1, 59, 45
3, 44584, Note_on_c, 1, 47, 0
3, 44584, Note_on_c, 1, 59, 0
3, 44592, Note_on_c, 1, 45, 45
3, 44592, Note_on_c, 1, 57, 45
3, 44608, Note_on_c, 1, 45, 0
3, 44608, Note_on_c, 1, 57, 0
3, 44616, Note_on_c, 1, 43, 45
3, 44616, Note_on_c, 1, 55, 45
3, 44632, Note_on_c, 1, 43, 0
3, 44632, Note_on_c, 1, 55, 0
3, 44640, Note_on_c, 1, 42, 45
3, 44640, Note_on_c, 1, 54, 45
3, 44656, Note_on_c, 1, 42, 0
3, 44656, Note_on_c, 1, 54, 0
3, 44664, Note_on_c, 1, 40, 45
3, 44664, Note_on_c, 1, 52, 45
3, 44680, Note_on_c, 1, 40, 0
3, 44680, Note_on_c, 1, 52, 0
3, 44688, Note_on_c, 1, 38, 45
3, 44688, Note_on_c, 1, 50, 45
3, 44704, Note_on_c, 1, 38, 0
3, 44704, Note_on_c, 1, 50, 0
3, 44712, Note_on_c, 1, 36, 45
3, 44712, Note_on_c, 1, 48, 45
3, 44728, Note_on_c, 1, 36, 0
3, 44728, Note_on_c, 1, 48, 0
3, 44736, Note_on_c, 1, 35, 45
3, 44736, Note_on_c, 1, 47, 45
3, 44768, Note_on_c, 1, 35, 0
3, 44768, Note_on_c, 1, 47, 0
3, 44784, Note_on_c, 1, 53, 45
3, 44784, Note_on_c, 1, 65, 45
3, 44800, Note_on_c, 1, 53, 0
3, 44800, Note_on_c, 1, 65, 0
3, 44808, Note_on_c, 1, 52, 45
3, 44808, Note_on_c, 1, 64, 45
3, 44824, Note_on_c, 1, 52, 0
3, 44824, Note_on_c, 1, 64, 0
3, 44832, Note_on_c, 1, 53, 45
3, 44832, Note_on_c, 1, 65, 45
3, 44848, Note_on_c, 1, 53, 0
3, 44848, Note_on_c, 1, 65, 0
3, 44856, Note_on_c, 1, 52, 45
3, 44856, Note_on_c, 1, 64, 45
3, 44872, Note_on_c, 1, 52, 0
3, 44872, Note_on_c, 1, 64, 0
3, 44880, Note_on_c, 1, 50, 45
3, 44880, Note_on_c, 1, 62, 45
3, 44896, Note_on_c, 1, 50, 0
3, 44896, Note_on_c, 1, 62, 0
3, 44904, Note_on_c, 1, 48, 45
3, 44904, Note_on_c, 1, 60, 45
3, 44920, Note_on_c, 1, 48, 0
3, 44920, Note_on_c, 1, 60, 0
3, 44928, Note_on_c, 1, 47, 45
3, 44928, Note_on_c, 1, 59, 45
3, 44944, Note_on_c, 1, 47, 0
3, 44944, Note_on_c, 1, 59, 0
3, 44952, Note_on_c, 1, 45, 45
3, 44952, Note_on_c, 1, 57, 45
3, 44968, Note_on_c, 1, 45, 0
3, 44968, Note_on_c, 1, 57, 0
3, 44976, Note_on_c, 1, 43, 45
3, 44976, Note_on_c, 1, 55, 45
3, 44992, Note_on_c, 1, 43, 0
3, 44992, Note_on_c, 1, 55, 0
3, 45000, Note_on_c, 1, 41, 45
3, 45000, Note_on_c, 1, 53, 45
3, 45016, Note_on_c, 1, 41, 0
3, 45016, Note_on_c, 1, 53, 0
3, 45024, Note_on_c, 1, 40, 45
3, 45024, Note_on_c, 1, 52, 45
3, 45070, Note_on_c, 1, 40, 0
3, 45070, Note_on_c, 1, 52, 0
3, 45072, Note_on_c, 1, 46, 45
3, 45072, Note_on_c, 1, 58, 45
3, 45088, Note_on_c, 1, 46, 0
3, 45088, Note_on_c, 1, 58, 0
3, 45096, Note_on_c, 1, 45, 45
3, 45096, Note_on_c, 1, 57, 45
3, 45112, Note_on_c, 1, 45, 0
3, 45112, Note_on_c, 1, 57, 0
3, 45120, Note_on_c, 1, 46, 45
3, 45120, Note_on_c, 1, 58, 45
3, 45136, Note_on_c, 1, 46, 0
3, 45136, Note_on_c, 1, 58, 0
3, 45144, Note_on_c, 1, 45, 45
3, 45144, Note_on_c, 1, 57, 45
3, 45160, Note_on_c, 1, 45, 0
3, 45160, Note_on_c, 1, 57, 0
3, 45168, Note_on_c, 1, 43, 45
3, 45168, Note_on_c, 1, 55, 45
3, 45184, Note_on_c, 1, 43, 0
3, 45184, Note_on_c, 1, 55, 0
3, 45192, Note_on_c, 1, 41, 45
3, 45192, Note_on_c, 1, 53, 45
3, 45208, Note_on_c, 1, 41, 0
3, 45208, Note_on_c, 1, 53, 0
3, 45216, Note_on_c, 1, 40, 45
3, 45216, Note_on_c, 1, 52, 45
3, 45232, Note_on_c, 1, 40, 0
3, 45232, Note_on_c, 1, 52, 0
3, 45240, Note_on_c, 1, 38, 45
3, 45240, Note_on_c, 1, 50, 45
3, 45256, Note_on_c, 1, 38, 0
3, 45256, Note_on_c, 1, 50, 0
3, 45264, Note_on_c, 1, 36, 45
3, 45264, Note_on_c, 1, 48, 45
3, 45280, Note_on_c, 1, 36, 0
3, 45280, Note_on_c, 1, 48, 0
3, 45288, Note_on_c, 1, 34, 45
3, 45288, Note_on_c, 1, 46, 45
3, 45304, Note_on_c, 1, 34, 0
3, 45304, Note_on_c, 1, 46, 0
3, 45312, Note_on_c, 1, 33, 45
3, 45312, Note_on_c, 1, 45, 45
3, 45358, Note_on_c, 1, 33, 0
3, 45358, Note_on_c, 1, 45, 0
3, 45360, Note_on_c, 1, 51, 45
3, 45360, Note_on_c, 1, 63, 45
3, 45376, Note_on_c, 1, 51, 0
3, 45376, Note_on_c, 1, 63, 0
3, 45384, Note_on_c, 1, 50, 45
3, 45384, Note_on_c, 1, 62, 45
3, 45400, Note_on_c, 1, 50, 0
3, 45400, Note_on_c, 1, 62, 0
3, 45408, Note_on_c, 1, 51, 45
3, 45408, Note_on_c, 1, 63, 45
3, 45424, Note_on_c, 1, 51, 0
3, 45424, Note_on_c, 1, 63, 0
3, 45432, Note_on_c, 1, 50, 45
3, 45432, Note_on_c, 1, 62, 45
3, 45448, Note_on_c, 1, 50, 0
3, 45448, Note_on_c, 1, 62, 0
3, 45456, Note_on_c, 1, 48, 45
3, 45456, Note_on_c, 1, 60, 45
3, 45472, Note_on_c, 1, 48, 0
3, 45472, Note_on_c, 1, 60, 0
3, 45480, Note_on_c, 1, 46, 45
3, 45480, Note_on_c, 1, 58, 45
3, 45496, Note_on_c, 1, 46, 0
3, 45496, Note_on_c, 1, 58, 0
3, 45504, Note_on_c, 1, 45, 45
3, 45504, Note_on_c, 1, 57, 45
3, 45520, Note_on_c, 1, 45, 0
3, 45520, Note_on_c, 1, 57, 0
3, 45528, Note_on_c, 1, 43, 45
3, 45528, Note_on_c, 1, 55, 45
3, 45544, Note_on_c, 1, 43, 0
3, 45544, Note_on_c, 1, 55, 0
3, 45552, Note_on_c, 1, 41, 45
3, 45552, Note_on_c, 1, 53, 45
3, 45568, Note_on_c, 1, 41, 0
3, 45568, Note_on_c, 1, 53, 0
3, 45576, Note_on_c, 1, 39, 45
3, 45576, Note_on_c, 1, 51, 45
3, 45592, Note_on_c, 1, 39, 0
3, 45592, Note_on_c, 1, 51, 0
3, 45600, Note_on_c, 1, 38, 45
3, 45600, Note_on_c, 1, 41, 45
3, 45600, Note_on_c, 1, 50, 45
3, 45760, Note_on_c, 1, 38, 0
3, 45760, Note_on_c, 1, 41, 0
3, 45760, Note_on_c, 1, 50, 0
3, 45792, Note_on_c, 1, 39, 63
3, 45792, Note_on_c, 1, 41, 63
3, 45792, Note_on_c, 1, 51, 63
3, 45824, Note_on_c, 1, 39, 0
3, 45824, Note_on_c, 1, 41, 0
3, 45824, Note_on_c, 1, 51, 0
3, 45888, Note_on_c, 1, 38, 45
3, 45888, Note_on_c, 1, 41, 45
3, 45888, Note_on_c, 1, 50, 45
3, 46048, Note_on_c, 1, 38, 0
3, 46048, Note_on_c, 1, 41, 0
3, 46048, Note_on_c, 1, 50, 0
3, 46080, Note_on_c, 1, 39, 63
3, 46080, Note_on_c, 1, 41, 63
3, 46080, Note_on_c, 1, 51, 63
3, 46112, Note_on_c, 1, 39, 0
3, 46112, Note_on_c, 1, 41, 0
3, 46112, Note_on_c, 1, 51, 0
3, 46176, Note_on_c, 1, 38, 45
3, 46176, Note_on_c, 1, 41, 45
3, 46176, Note_on_c, 1, 50, 45
3, 46208, Note_on_c, 1, 38, 0
3, 46208, Note_on_c, 1, 41, 0
3, 46208, Note_on_c, 1, 50, 0
3, 46272, Note_on_c, 1, 48, 45
3, 46272, Note_on_c, 1, 50, 45
3, 46304, Note_on_c, 1, 48, 0
3, 46304, Note_on_c, 1, 50, 0
3, 46368, Note_on_c, 1, 46, 45
3, 46368, Note_on_c, 1, 50, 45
3, 46400, Note_on_c, 1, 46, 0
3, 46400, Note_on_c, 1, 50, 0
3, 46464, Note_on_c, 1, 47, 45
3, 46464, Note_on_c, 1, 50, 45
3, 46496, Note_on_c, 1, 47, 0
3, 46496, Note_on_c, 1, 50, 0
3, 46560, Note_on_c, 1, 48, 45
3, 46560, Note_on_c, 1, 55, 45
3, 46592, Note_on_c, 1, 48, 0
3, 46592, Note_on_c, 1, 55, 0
3, 46656, Note_on_c, 1, 48, 45
3, 46656, Note_on_c, 1, 53, 45
3, 46656, Note_on_c, 1, 55, 45
3, 46688, Note_on_c, 1, 48, 0
3, 46688, Note_on_c, 1, 53, 0
3, 46688, Note_on_c, 1, 55, 0
3, 46752, Note_on_c, 1, 48, 45
3, 46752, Note_on_c, 1, 52, 45
3, 46752, Note_on_c, 1, 55, 45
3, 46912, Note_on_c, 1, 48, 0
3, 46912, Note_on_c, 1, 52, 0
3, 46912, Note_on_c, 1, 55, 0
3, 46944, Note_on_c, 1, 48, 63
3, 46944, Note_on_c, 1, 53, 63
3, 46976, Note_on_c, 1, 48, 0
3, 46976, Note_on_c, 1, 53, 0
3, 47040, Note_on_c, 1, 48, 45
3, 47040, Note_on_c, 1, 52, 45
3, 47200, Note_on_c, 1, 48, 0
3, 47200, Note_on_c, 1, 52, 0
3, 47232, Note_on_c, 1, 48, 63
3, 47232, Note_on_c, 1, 53, 63
3, 47264, Note_on_c, 1, 48, 0
3, 47264, Note_on_c, 1, 53, 0
3, 47328, Note_on_c, 1, 48, 45
3, 47328, Note_on_c, 1, 52, 45
3, 47422, Note_on_c, 1, 52, 0
3, 47424, Note_on_c, 1, 59, 45
3, 47518, Note_on_c, 1, 59, 0
3, 47520, Note_on_c, 1, 58, 45
3, 47584, Note_on_c, 1, 48, 0
3, 47614, Note_on_c, 1, 58, 0
3, 47616, Note_on_c, 1, 48, 45
3, 47616, Note_on_c, 1, 57, 45
3, 47710, Note_on_c, 1, 57, 0
3, 47712, Note_on_c, 1, 55, 45
3, 47806, Note_on_c, 1, 55, 0
3, 47808, Note_on_c, 1, 53, 45
3, 47872, Note_on_c, 1, 48, 0
3, 47902, Note_on_c, 1, 53, 0
3, 47904, Note_on_c, 1, 48, 45
3, 47904, Note_on_c, 1, 52, 45
3, 48046, Note_on_c, 1, 52, 0
3, 48048, Note_on_c, 1, 58, 45
3, 48080, Note_on_c, 1, 58, 0
3, 48096, Note_on_c, 1, 58, 45
3, 48142, Note_on_c, 1, 58, 0
3, 48144, Note_on_c, 1, 54, 45
3, 48160, Note_on_c, 1, 48, 0
3, 48190, Note_on_c, 1, 54, 0
3, 48192, Note_on_c, 1, 48, 45
3, 48192, Note_on_c, 1, 55, 45
3, 48334, Note_on_c, 1, 55, 0
3, 48336, Note_on_c, 1, 58, 45
3, 48368, Note_on_c, 1, 58, 0
3, 48384, Note_on_c, 1, 58, 45
3, 48430, Note_on_c, 1, 58, 0
3, 48432, Note_on_c, 1, 54, 45
3, 48448, Note_on_c, 1, 48, 0
3, 48478, Note_on_c, 1, 54, 0
3, 48480, Note_on_c, 1, 48, 45
3, 48480, Note_on_c, 1, 55, 45
3, 48574, Note_on_c, 1, 55, 0
3, 48576, Note_on_c, 1, 57, 45
3, 48670, Note_on_c, 1, 57, 0
3, 48672, Note_on_c, 1, 58, 45
3, 48736, Note_on_c, 1, 48, 0
3, 48766, Note_on_c, 1, 58, 0
3, 48768, Note_on_c, 1, 48, 45
3, 48768, Note_on_c, 1, 59, 45
3, 48862, Note_on_c, 1, 59, 0
3, 48864, Note_on_c, 1, 60, 45
3, 48958, Note_on_c, 1, 60, 0
3, 48960, Note_on_c, 1, 62, 45
3, 49024, Note_on_c, 1, 48, 0
3, 49054, Note_on_c, 1, 62, 0
3, 49056, Note_on_c, 1, 60, 45
3, 49056, Note_on_c, 1, 64, 45
3, 49150, Note_on_c, 1, 64, 0
3, 49152, Note_on_c, 1, 65, 45
3, 49246, Note_on_c, 1, 65, 0
3, 49248, Note_on_c, 1, 66, 40
3, 49312, Note_on_c, 1, 60, 0
3, 49342, Note_on_c, 1, 66, 0
3, 49344, Note_on_c, 1, 60, 35
3, 49344, Note_on_c, 1, 67, 35
3, 49438, Note_on_c, 1, 67, 0
3, 49440, Note_on_c, 1, 68, 30
3, 49534, Note_on_c, 1, 68, 0
3, 49536, Note_on_c, 1, 69, 30
3, 49600, Note_on_c, 1, 60, 0
3, 49630, Note_on_c, 1, 69, 0
3, 49632, Note_on_c, 1, 60, 30
3, 49632, Note_on_c, 1, 70, 30
3, 49888, Note_on_c, 1, 60, 0
3, 49888, Note_on_c, 1, 70, 0
3, 49920, Note_on_c, 1, 60, 30
3, 49920, Note_on_c, 1, 70, 30
3, 50062, Note_on_c, 1, 60, 0
3, 50062, Note_on_c, 1, 70, 0
3, 50064, Note_on_c, 1, 58, 30
3, 50110, Note_on_c, 1, 58, 0
3, 50112, Note_on_c, 1, 57, 30
3, 50112, Note_on_c, 1, 60, 30
3, 50206, Note_on_c, 1, 57, 0
3, 50206, Note_on_c, 1, 60, 0
3, 50208, Note_on_c, 1, 52, 30
3, 50208, Note_on_c, 1, 60, 30
3, 50368, Note_on_c, 1, 52, 0
3, 50368, Note_on_c, 1, 60, 0
3, 50400, Note_on_c, 1, 41, 30
3, 50400, Note_on_c, 1, 53, 30
3, 50494, Note_on_c, 1, 41, 0
3, 50494, Note_on_c, 1, 53, 0
3, 50496, Note_on_c, 1, 37, 30
3, 50496, Note_on_c, 1, 49, 30
3, 50656, Note_on_c, 1, 37, 0
3, 50656, Note_on_c, 1, 49, 0
3, 50688, Note_on_c, 1, 62, 30
3, 50688, Note_on_c, 1, 62, 30
3, 50758, Note_on_c, 1, 62, 0
3, 50760, Note_on_c, 1, 60, 30
3, 50782, Note_on_c, 1, 62, 0
3, 50782, Note_on_c, 1, 60, 0
3, 50784, Note_on_c, 1, 58, 30
3, 50784, Note_on_c, 1, 62, 30
3, 50878, Note_on_c, 1, 58, 0
3, 50878, Note_on_c, 1, 62, 0
3, 50880, Note_on_c, 1, 58, 35
3, 50880, Note_on_c, 1, 62, 35
3, 50950, Note_on_c, 1, 58, 0
3, 50950, Note_on_c, 1, 62, 0
3, 50952, Note_on_c, 1, 57, 38
3, 50952, Note_on_c, 1, 66, 38
3, 50974, Note_on_c, 1, 57, 0
3, 50974, Note_on_c, 1, 66, 0
3, 50976, Note_on_c, 1, 55, 39
3, 50976, Note_on_c, 1, 67, 39
3, 51046, Note_on_c, 1, 55, 0
3, 51046, Note_on_c, 1, 67, 0
3, 51048, Note_on_c, 1, 58, 42
3, 51048, Note_on_c, 1, 62, 42
3, 51070, Note_on_c, 1, 58, 0
3, 51070, Note_on_c, 1, 62, 0
3, 51072, Note_on_c, 1, 60, 43
3, 51166, Note_on_c, 1, 60, 0
3, 51168, Note_on_c, 1, 48, 48
3, 51214, Note_on_c, 1, 48, 0
3, 51264, Note_on_c, 1, 45, 54
3, 51264, Note_on_c, 1, 48, 54
3, 51264, Note_on_c, 1, 57, 54
3, 51358, Note_on_c, 1, 45, 0
3, 51358, Note_on_c, 1, 48, 0
3, 51358, Note_on_c, 1, 57, 0
3, 51360, Control_c, 1, 64, 127
3, 51360, Note_on_c, 1, 40, 60
3, 51360, Note_on_c, 1, 48, 60
3, 51360, Note_on_c, 1, 52, 60
3, 51648, Note_on_c, 1, 40, 0
3, 51648, Note_on_c, 1, 48, 0
3, 51648, Note_on_c, 1, 52, 0
3, 51648, Note_on_c, 1, 40, 60
3, 51648, Note_on_c, 1, 48, 60
3, 51648, Note_on_c, 1, 52, 60
3, 51808, Note_on_c, 1, 40, 0
3, 51808, Note_on_c, 1, 48, 0
3, 51808, Note_on_c, 1, 52, 0
3, 51840, Control_c, 1, 64, 0
3, 51840, Note_on_c, 1, 41, 60
3, 51840, Note_on_c, 1, 48, 60
3, 51840, Note_on_c, 1, 53, 60
3, 51934, Note_on_c, 1, 41, 0
3, 51934, Note_on_c, 1, 48, 0
3, 51934, Note_on_c, 1, 53, 0
3, 51936, Control_c, 1, 64, 127
3, 51936, Note_on_c, 1, 37, 60
3, 51936, Note_on_c, 1, 45, 60
3, 51936, Note_on_c, 1, 49, 60
3, 52224, Note_on_c, 1, 37, 0
3, 52224, Note_on_c, 1, 45, 0
3, 52224, Note_on_c, 1, 49, 0
3, 52224, Note_on_c, 1, 36, 60
3, 52224, Note_on_c, 1, 45, 60
3, 52224, Note_on_c, 1, 48, 60
3, 52384, Note_on_c, 1, 36, 0
3, 52384, Note_on_c, 1, 45, 0
3, 52384, Note_on_c, 1, 48, 0
3, 52416, Control_c, 1, 64, 0
3, 52416, Note_on_c, 1, 50, 54
3, 52416, Note_on_c, 1, 53, 54
3, 52486, Note_on_c, 1, 50, 0
3, 52486, Note_on_c, 1, 53, 0
3, 52488, Note_on_c, 1, 46, 52
3, 52488, Note_on_c, 1, 50, 52
3, 52488, Note_on_c, 1, 55, 52
3, 52510, Note_on_c, 1, 46, 0
3, 52510, Note_on_c, 1, 50, 0
3, 52510, Note_on_c, 1, 55, 0
3, 52512, Note_on_c, 1, 48, 72
3, 52512, Note_on_c, 1, 53, 72
3, 52512, Note_on_c, 1, 57, 72
3, 52768, Note_on_c, 1, 48, 0
3, 52768, Note_on_c, 1, 53, 0
3, 52768, Note_on_c, 1, 57, 0
3, 52800, Note_on_c, 1, 48, 57
3, 52800, Note_on_c, 1, 52, 57
3, 52800, Note_on_c, 1, 55, 57
3, 52800, Note_on_c, 1, 58, 57
3, 53056, Note_on_c, 1, 48, 0
3, 53056, Note_on_c, 1, 52, 0
3, 53056, Note_on_c, 1, 55, 0
3, 53056, Note_on_c, 1, 58, 0
3, 53088, Note_on_c, 1, 49, 30
3, 53088, Note_on_c, 1, 52, 30
3, 53110, Note_on_c, 1, 52, 0
3, 53112, Note_on_c, 1, 57, 30
3, 53134, Note_on_c, 1, 57, 0
3, 53136, Note_on_c, 1, 52, 30
3, 53158, Note_on_c, 1, 52, 0
3, 53160, Note_on_c, 1, 57, 30
3, 53182, Note_on_c, 1, 49, 0
3, 53182, Note_on_c, 1, 57, 0
3, 53184, Note_on_c, 1, 49, 30
3, 53184, Note_on_c, 1, 52, 30
3, 53206, Note_on_c, 1, 52, 0
3, 53208, Note_on_c, 1, 57, 30
3, 53230, Note_on_c, 1, 49, 0
3, 53230, Note_on_c, 1, 57, 0
3, 53232, Note_on_c, 1, 49, 30
3, 53232, Note_on_c, 1, 52, 30
3, 53254, Note_on_c, 1, 52, 0
3, 53256, Note_on_c, 1, 57, 30
3, 53278, Note_on_c, 1, 49, 0
3, 53278, Note_on_c, 1, 57, 0
3, 53280, Note_on_c, 1, 50, 30
3, 53280, Note_on_c, 1, 53, 30
3, 53302, Note_on_c, 1, 53, 0
3, 53304, Note_on_c, 1, 57, 30
3, 53326, Note_on_c, 1, 50, 0
3, 53326, Note_on_c, 1, 57, 0
3, 53328, Note_on_c, 1, 49, 30
3, 53328, Note_on_c, 1, 52, 30
3, 53350, Note_on_c, 1, 52, 0
3, 53352, Note_on_c, 1, 57, 30
3, 53374, Note_on_c, 1, 49, 0
3, 53374, Note_on_c, 1, 57, 0
3, 53376, Note_on_c, 1, 50, 30
3, 53376, Note_on_c, 1, 53, 30
3, 53398, Note_on_c, 1, 53, 0
3, 53400, Note_on_c, 1, 57, 30
3, 53422, Note_on_c, 1, 50, 0
3, 53422, Note_on_c, 1, 57, 0
3, 53424, Note_on_c, 1, 49, 30
3, 53424, Note_on_c, 1, 52, 30
3, 53446, Note_on_c, 1, 52, 0
3, 53448, Note_on_c, 1, 57, 30
3, 53470, Note_on_c, 1, 49, 0
3, 53470, Note_on_c, 1, 57, 0
3, 53472, Note_on_c, 1, 50, 30
3, 53472, Note_on_c, 1, 53, 30
3, 53494, Note_on_c, 1, 53, 0
3, 53496, Note_on_c, 1, 57, 30
3, 53518, Note_on_c, 1, 50, 0
3, 53518, Note_on_c, 1, 57, 0
3, 53520, Note_on_c, 1, 45, 30
3, 53520, Note_on_c, 1, 48, 30
3, 53542, Note_on_c, 1, 48, 0
3, 53544, Note_on_c, 1, 53, 30
3, 53566, Note_on_c, 1, 45, 0
3, 53566, Note_on_c, 1, 53, 0
3, 53568, Note_on_c, 1, 46, 30
3, 53568, Note_on_c, 1, 50, 30
3, 53590, Note_on_c, 1, 50, 0
3, 53592, Note_on_c, 1, 53, 30
3, 53614, Note_on_c, 1, 46, 0
3, 53614, Note_on_c, 1, 53, 0
3, 53616, Note_on_c, 1, 42, 30
3, 53616, Note_on_c, 1, 50, 30
3, 53638, Note_on_c, 1, 50, 0
3, 53640, Note_on_c, 1, 54, 30
3, 53662, Note_on_c, 1, 42, 0
3, 53662, Note_on_c, 1, 54, 0
3, 53664, Note_on_c, 1, 43, 30
3, 53664, Note_on_c, 1, 50, 30
3, 53686, Note_on_c, 1, 50, 0
3, 53688, Note_on_c, 1, 55, 30
3, 53710, Note_on_c, 1, 43, 0
3, 53710, Note_on_c, 1, 55, 0
3, 53712, Note_on_c, 1, 41, 30
3, 53712, Note_on_c, 1, 50, 30
3, 53734, Note_on_c, 1, 50, 0
3, 53736, Note_on_c, 1, 53, 30
3, 53758, Note_on_c, 1, 41, 0
3, 53758, Note_on_c, 1, 53, 0
3, 53760, Note_on_c, 1, 40, 30
3, 53760, Note_on_c, 1, 40, 30
3, 53782, Note_on_c, 1, 40, 0
3, 53784, Note_on_c, 1, 52, 30
3, 53806, Note_on_c, 1, 40, 0
3, 53806, Note_on_c, 1, 52, 0
3, 53808, Note_on_c, 1, 38, 30
3, 53808, Note_on_c, 1, 38, 30
3, 53830, Note_on_c, 1, 38, 0
3, 53832, Note_on_c, 1, 50, 30
3, 53854, Note_on_c, 1, 38, 0
3, 53854, Note_on_c, 1, 50, 0
3, 53856, Note_on_c, 1, 36, 30
3, 53856, Note_on_c, 1, 36, 30
3, 53878, Note_on_c, 1, 36, 0
3, 53880, Note_on_c, 1, 48, 30
3, 53902, Note_on_c, 1, 36, 0
3, 53902, Note_on_c, 1, 48, 0
3, 53904, Note_on_c, 1, 34, 31
3, 53904, Note_on_c, 1, 34, 31
3, 53926, Note_on_c, 1, 34, 0
3, 53928, Note_on_c, 1, 46, 32
3, 53950, Note_on_c, 1, 34, 0
3, 53950, Note_on_c, 1, 46, 0
3, 53952, Note_on_c, 1, 33, 33
3, 53974, Note_on_c, 1, 33, 0
3, 53976, Note_on_c, 1, 45, 34
3, 53998, Note_on_c, 1, 45, 0
3, 54000, Note_on_c, 1, 34, 35
3, 54022, Note_on_c, 1, 34, 0
3, 54024, Note_on_c, 1, 46, 36
3, 54046, Note_on_c, 1, 46, 0
3, 54048, Note_on_c, 1, 36, 37
3, 54070, Note_on_c, 1, 36, 0
3, 54072, Note_on_c, 1, 48, 38
3, 54094, Note_on_c, 1, 48, 0
3, 54096, Note_on_c, 1, 36, 39
3, 54118, Note_on_c, 1, 36, 0
3, 54120, Note_on_c, 1, 48, 40
3, 54142, Note_on_c, 1, 48, 0
3, 54144, Note_on_c, 1, 36, 41
3, 54166, Note_on_c, 1, 36, 0
3, 54168, Note_on_c, 1, 48, 42
3, 54190, Note_on_c, 1, 48, 0
3, 54192, Note_on_c, 1, 36, 43
3, 54214, Note_on_c, 1, 36, 0
3, 54216, Note_on_c, 1, 48, 44
3, 54238, Note_on_c, 1, 48, 0
3, 54240, Note_on_c, 1, 37, 45
3, 54240, Note_on_c, 1, 37, 45
3, 54262, Note_on_c, 1, 37, 0
3, 54264, Note_on_c, 1, 45, 45
3, 54286, Note_on_c, 1, 45, 0
3, 54288, Note_on_c, 1, 49, 45
3, 54310, Note_on_c, 1, 49, 0
3, 54312, Note_on_c, 1, 45, 45
3, 54334, Note_on_c, 1, 45, 0
3, 54336, Note_on_c, 1, 49, 45
3, 54358, Note_on_c, 1, 49, 0
3, 54360, Note_on_c, 1, 45, 45
3, 54382, Note_on_c, 1, 37, 0
3, 54382, Note_on_c, 1, 45, 0
3, 54384, Note_on_c, 1, 37, 45
3, 54384, Note_on_c, 1, 49, 45
3, 54406, Note_on_c, 1, 49, 0
3, 54408, Note_on_c, 1, 45, 45
3, 54430, Note_on_c, 1, 37, 0
3, 54430, Note_on_c, 1, 45, 0
3, 54432, Note_on_c, 1, 38, 45
3, 54432, Note_on_c, 1, 50, 45
3, 54454, Note_on_c, 1, 50, 0
3, 54456, Note_on_c, 1, 45, 45
3, 54478, Note_on_c, 1, 38, 0
3, 54478, Note_on_c, 1, 45, 0
3, 54480, Note_on_c, 1, 37, 45
3, 54480, Note_on_c, 1, 49, 45
3, 54502, Note_on_c, 1, 49, 0
3, 54504, Note_on_c, 1, 45, 45
3, 54526, Note_on_c, 1, 37, 0
3, 54526, Note_on_c, 1, 45, 0
3, 54528, Note_on_c, 1, 38, 45
3, 54528, Note_on_c, 1, 50, 45
3, 54550, Note_on_c, 1, 50, 0
3, 54552, Note_on_c, 1, 45, 45
3, 54574, Note_on_c, 1, 38, 0
3, 54574, Note_on_c, 1, 45, 0
3, 54576, Note_on_c, 1, 37, 45
3, 54576, Note_on_c, 1, 49, 45
3, 54598, Note_on_c, 1, 49, 0
3, 54600, Note_on_c, 1, 45, 45
3, 54622, Note_on_c, 1, 37, 0
3, 54622, Note_on_c, 1, 45, 0
3, 54624, Note_on_c, 1, 38, 45
3, 54624, Note_on_c, 1, 50, 45
3, 54646, Note_on_c, 1, 50, 0
3, 54648, Note_on_c, 1, 45, 45
3, 54670, Note_on_c, 1, 38, 0
3, 54670, Note_on_c, 1, 45, 0
3, 54672, Note_on_c, 1, 33, 45
3, 54672, Note_on_c, 1, 45, 45
3, 54694, Note_on_c, 1, 45, 0
3, 54696, Note_on_c, 1, 41, 45
3, 54718, Note_on_c, 1, 33, 0
3, 54718, Note_on_c, 1, 41, 0
3, 54720, Note_on_c, 1, 34, 45
3, 54720, Note_on_c, 1, 46, 45
3, 54742, Note_on_c, 1, 46, 0
3, 54744, Note_on_c, 1, 41, 45
3, 54766, Note_on_c, 1, 34, 0
3, 54766, Note_on_c, 1, 41, 0
3, 54768, Note_on_c, 1, 30, 45
3, 54768, Note_on_c, 1, 42, 45
3, 54790, Note_on_c, 1, 42, 0
3, 54792, Note_on_c, 1, 38, 45
3, 54814, Note_on_c, 1, 30, 0
3, 54814, Note_on_c, 1, 38, 0
3, 54816, Note_on_c, 1, 31, 45
3, 54838, Note_on_c, 1, 31, 0
3, 54840, Note_on_c, 1, 43, 45
3, 54862, Note_on_c, 1, 43, 0
3, 54864, Note_on_c, 1, 29, 45
3, 54886, Note_on_c, 1, 29, 0
3, 54888, Note_on_c, 1, 41, 45
3, 54910, Note_on_c, 1, 41, 0
3, 54912, Note_on_c, 1, 40, 45
3, 54934, Note_on_c, 1, 40, 0
3, 54936, Note_on_c, 1, 52, 45
3, 54958, Note_on_c, 1, 52, 0
3, 54960, Note_on_c, 1, 38, 45
3, 54982, Note_on_c, 1, 38, 0
3, 54984, Note_on_c, 1, 50, 45
3, 55006, Note_on_c, 1, 50, 0
3, 55008, Note_on_c, 1, 36, 45
3, 55030, Note_on_c, 1, 36, 0
3, 55032, Note_on_c, 1, 48, 45
3, 55054, Note_on_c, 1, 48, 0
3, 55056, Note_on_c, 1, 34, 45
3, 55078, Note_on_c, 1, 34, 0
3, 55080, Note_on_c, 1, 46, 45
3, 55102, Note_on_c, 1, 46, 0
3, 55104, Note_on_c, 1, 33, 45
3, 55126, Note_on_c, 1, 33, 0
3, 55128, Note_on_c, 1, 45, 45
3, 55150, Note_on_c, 1, 45, 0
3, 55152, Note_on_c, 1, 31, 45
3, 55174, Note_on_c, 1, 31, 0
3, 55176, Note_on_c, 1, 43, 45
3, 55198, Note_on_c, 1, 43, 0
3, 55200, Note_on_c, 1, 29, 45
3, 55222, Note_on_c, 1, 29, 0
3, 55224, Note_on_c, 1, 41, 45
3, 55246, Note_on_c, 1, 41, 0
3, 55248, Note_on_c, 1, 39, 45
3, 55270, Note_on_c, 1, 39, 0
3, 55272, Note_on_c, 1, 51, 45
3, 55294, Note_on_c, 1, 51, 0
3, 55296, Note_on_c, 1, 38, 45
3, 55318, Note_on_c, 1, 38, 0
3, 55320, Note_on_c, 1, 50, 45
3, 55342, Note_on_c, 1, 50, 0
3, 55344, Note_on_c, 1, 36, 45
3, 55366, Note_on_c, 1, 36, 0
3, 55368, Note_on_c, 1, 48, 45
3, 55390, Note_on_c, 1, 48, 0
3, 55392, Note_on_c, 1, 34, 63
3, 55392, Note_on_c, 1, 46, 63
3, 55648, Note_on_c, 1, 34, 0
3, 55648, Note_on_c, 1, 46, 0
3, 55680, Note_on_c, 1, 35, 63
3, 55680, Note_on_c, 1, 47, 63
3, 55840, Note_on_c, 1, 35, 0
3, 55840, Note_on_c, 1, 47, 0
3, 55872, Note_on_c, 1, 35, 45
3, 55904, Note_on_c, 1, 35, 0
3, 55968, Note_on_c, 1, 36, 60
3, 56062, Note_on_c, 1, 36, 0
3, 56064, Note_on_c, 1, 36, 60
3, 56110, Note_on_c, 1, 36, 0
3, 56112, Note_on_c, 1, 38, 60
3, 56134, Note_on_c, 1, 38, 0
3, 56136, Note_on_c, 1, 40, 60
3, 56158, Note_on_c, 1, 40, 0
3, 56160, Note_on_c, 1, 41, 60
3, 56182, Note_on_c, 1, 41, 0
3, 56184, Note_on_c, 1, 43, 60
3, 56206, Note_on_c, 1, 43, 0
3, 56208, Note_on_c, 1, 45, 60
3, 56230, Note_on_c, 1, 45, 0
3, 56232, Note_on_c, 1, 47, 60
3, 56254, Note_on_c, 1, 47, 0
3, 56256, Note_on_c, 1, 48, 60
3, 56350, Note_on_c, 1, 48, 0
3, 56352, Note_on_c, 1, 48, 60
3, 56374, Note_on_c, 1, 48, 0
3, 56376, Note_on_c, 1, 50, 60
3, 56398, Note_on_c, 1, 50, 0
3, 56400, Note_on_c, 1, 52, 60
3, 56422, Note_on_c, 1, 52, 0
3, 56424, Note_on_c, 1, 53, 60
3, 56446, Note_on_c, 1, 53, 0
3, 56448, Note_on_c, 1, 48, 60
3, 56448, Note_on_c, 1, 55, 60
3, 56470, Note_on_c, 1, 55, 0
3, 56472, Note_on_c, 1, 57, 60
3, 56494, Note_on_c, 1, 57, 0
3, 56496, Note_on_c, 1, 58, 60
3, 56518, Note_on_c, 1, 58, 0
3, 56520, Note_on_c, 1, 55, 60
3, 56542, Note_on_c, 1, 48, 0
3, 56542, Note_on_c, 1, 55, 0
3, 56544, Note_on_c, 1, 41, 45
3, 56566, Note_on_c, 1, 41, 0
3, 56568, Note_on_c, 1, 48, 45
3, 56590, Note_on_c, 1, 48, 0
3, 56592, Note_on_c, 1, 53, 45
3, 56614, Note_on_c, 1, 53, 0
3, 56616, Note_on_c, 1, 48, 45
3, 56638, Note_on_c, 1, 48, 0
3, 56640, Note_on_c, 1, 41, 45
3, 56662, Note_on_c, 1, 41, 0
3, 56664, Note_on_c, 1, 48, 45
3, 56686, Note_on_c, 1, 48, 0
3, 56688, Note_on_c, 1, 57, 45
3, 56710, Note_on_c, 1, 57, 0
3, 56712, Note_on_c, 1, 48, 45
3, 56734, Note_on_c, 1, 48, 0
3, 56736, Note_on_c, 1, 41, 45
3, 56758, Note_on_c, 1, 41, 0
3, 56760, Note_on_c, 1, 48, 45
3, 56782, Note_on_c, 1, 48, 0
3, 56784, Note_on_c, 1, 53, 45
3, 56806, Note_on_c, 1, 53, 0
3, 56808, Note_on_c, 1, 48, 45
3, 56830, Note_on_c, 1, 48, 0
3, 56832, Note_on_c, 1, 41, 45
3, 56854, Note_on_c, 1, 41, 0
3, 56856, Note_on_c, 1, 48, 45
3, 56878, Note_on_c, 1, 48, 0
3, 56880, Note_on_c, 1, 55, 45
3, 56902, Note_on_c, 1, 55, 0
3, 56904, Note_on_c, 1, 48, 45
3, 56926, Note_on_c, 1, 48, 0
3, 56928, Note_on_c, 1, 41, 45
3, 56950, Note_on_c, 1, 41, 0
3, 56952, Note_on_c, 1, 48, 45
3, 56974, Note_on_c, 1, 48, 0
3, 56976, Note_on_c, 1, 52, 45
3, 56998, Note_on_c, 1, 52, 0
3, 57000, Note_on_c, 1, 48, 45
3, 57022, Note_on_c, 1, 48, 0
3, 57024, Note_on_c, 1, 41, 45
3, 57046, Note_on_c, 1, 41, 0
3, 57048, Note_on_c, 1, 48, 45
3, 57070, Note_on_c, 1, 48, 0
3, 57072, Note_on_c, 1, 58, 45
3, 57094, Note_on_c, 1, 58, 0
3, 57096, Note_on_c, 1, 48, 45
3, 57118, Note_on_c, 1, 48, 0
3, 57120, Note_on_c, 1, 41, 45
3, 57142, Note_on_c, 1, 41, 0
3, 57144, Note_on_c, 1, 48, 45
3, 57166, Note_on_c, 1, 48, 0
3, 57168, Note_on_c, 1, 57, 45
3, 57190, Note_on_c, 1, 57, 0
3, 57192, Note_on_c, 1, 48, 45
3, 57214, Note_on_c, 1, 48, 0
3, 57216, Note_on_c, 1, 41, 45
3, 57238, Note_on_c, 1, 41, 0
3, 57240, Note_on_c, 1, 48, 45
3, 57262, Note_on_c, 1, 48, 0
3, 57264, Note_on_c, 1, 53, 45
3, 57286, Note_on_c, 1, 53, 0
3, 57288, Note_on_c, 1, 48, 45
3, 57310, Note_on_c, 1, 48, 0
3, 57312, Note_on_c, 1, 41, 45
3, 57334, Note_on_c, 1, 41, 0
3, 57336, Note_on_c, 1, 48, 45
3, 57358, Note_on_c, 1, 48, 0
3, 57360, Note_on_c, 1, 53, 45
3, 57382, Note_on_c, 1, 53, 0
3, 57384, Note_on_c, 1, 48, 45
3, 57406, Note_on_c, 1, 48, 0
3, 57408, Note_on_c, 1, 41, 45
3, 57430, Note_on_c, 1, 41, 0
3, 57432, Note_on_c, 1, 48, 45
3, 57454, Note_on_c, 1, 48, 0
3, 57456, Note_on_c, 1, 52, 45
3, 57478, Note_on_c, 1, 52, 0
3, 57480, Note_on_c, 1, 48, 45
3, 57502, Note_on_c, 1, 48, 0
3, 57504, Note_on_c, 1, 41, 45
3, 57526, Note_on_c, 1, 41, 0
3, 57528, Note_on_c, 1, 48, 45
3, 57550, Note_on_c, 1, 48, 0
3, 57552, Note_on_c, 1, 52, 45
3, 57574, Note_on_c, 1, 52, 0
3, 57576, Note_on_c, 1, 48, 45
3, 57598, Note_on_c, 1, 48, 0
3, 57600, Note_on_c, 1, 41, 45
3, 57622, Note_on_c, 1, 41, 0
3, 57624, Note_on_c, 1, 48, 45
3, 57646, Note_on_c, 1, 48, 0
3, 57648, Note_on_c, 1, 58, 45
3, 57670, Note_on_c, 1, 58, 0
3, 57672, Note_on_c, 1, 48, 45
3, 57694, Note_on_c, 1, 48, 0
3, 57696, Note_on_c, 1, 41, 45
3, 57718, Note_on_c, 1, 41, 0
3, 57720, Note_on_c, 1, 48, 45
3, 57742, Note_on_c, 1, 48, 0
3, 57744, Note_on_c, 1, 57, 45
3, 57766, Note_on_c, 1, 57, 0
3, 57768, Note_on_c, 1, 48, 45
3, 57790, Note_on_c, 1, 48, 0
3, 57792, Note_on_c, 1, 41, 45
3, 57814, Note_on_c, 1, 41, 0
3, 57816, Note_on_c, 1, 48, 45
3, 57838, Note_on_c, 1, 48, 0
3, 57840, Note_on_c, 1, 57, 45
3, 57862, Note_on_c, 1, 57, 0
3, 57864, Note_on_c, 1, 48, 45
3, 57886, Note_on_c, 1, 48, 0
3, 57888, Note_on_c, 1, 41, 45
3, 57910, Note_on_c, 1, 41, 0
3, 57912, Note_on_c, 1, 48, 45
3, 57934, Note_on_c, 1, 48, 0
3, 57936, Note_on_c, 1, 58, 45
3, 57958, Note_on_c, 1, 58, 0
3, 57960, Note_on_c, 1, 48, 45
3, 57982, Note_on_c, 1, 48, 0
3, 57984, Note_on_c, 1, 41, 45
3, 58006, Note_on_c, 1, 41, 0
3, 58008, Note_on_c, 1, 48, 45
3, 58030, Note_on_c, 1, 48, 0
3, 58032, Note_on_c, 1, 57, 45
3, 58054, Note_on_c, 1, 57, 0
3, 58056, Note_on_c, 1, 48, 45
3, 58078, Note_on_c, 1, 48, 0
3, 58080, Note_on_c, 1, 41, 45
3, 58102, Note_on_c, 1, 41, 0
3, 58104, Note_on_c, 1, 48, 45
3, 58126, Note_on_c, 1, 48, 0
3, 58128, Note_on_c, 1, 57, 45
3, 58150, Note_on_c, 1, 57, 0
3, 58152, Note_on_c, 1, 48, 45
3, 58174, Note_on_c, 1, 48, 0
3, 58176, Note_on_c, 1, 41, 45
3, 58198, Note_on_c, 1, 41, 0
3, 58200, Note_on_c, 1, 48, 45
3, 58222, Note_on_c, 1, 48, 0
3, 58224, Note_on_c, 1, 58, 45
3, 58246, Note_on_c, 1, 58, 0
3, 58248, Note_on_c, 1, 48, 45
3, 58270, Note_on_c, 1, 48, 0
3, 58272, Control_c, 1, 64, 127
3, 58272, Note_on_c, 1, 41, 45
3, 58294, Note_on_c, 1, 41, 0
3, 58296, Note_on_c, 1, 48, 45
3, 58318, Note_on_c, 1, 48, 0
3, 58320, Note_on_c, 1, 57, 45
3, 58342, Note_on_c, 1, 57, 0
3, 58344, Note_on_c, 1, 48, 45
3, 58366, Note_on_c, 1, 48, 0
3, 58368, Note_on_c, 1, 41, 45
3, 58390, Note_on_c, 1, 41, 0
3, 58392, Note_on_c, 1, 48, 45
3, 58414, Note_on_c, 1, 48, 0
3, 58416, Note_on_c, 1, 53, 45
3, 58438, Note_on_c, 1, 53, 0
3, 58440, Note_on_c, 1, 48, 45
3, 58462, Note_on_c, 1, 48, 0
3, 58464, Note_on_c, 1, 41, 45
3, 58486, Note_on_c, 1, 41, 0
3, 58488, Note_on_c, 1, 45, 45
3, 58510, Note_on_c, 1, 45, 0
3, 58512, Note_on_c, 1, 48, 45
3, 58534, Note_on_c, 1, 48, 0
3, 58536, Note_on_c, 1, 45, 45
3, 58558, Note_on_c, 1, 45, 0
3, 58560, Note_on_c, 1, 41, 45
3, 58582, Note_on_c, 1, 41, 0
3, 58584, Note_on_c, 1, 45, 45
3, 58606, Note_on_c, 1, 45, 0
3, 58608, Note_on_c, 1, 48, 45
3, 58630, Note_on_c, 1, 48, 0
3, 58632, Note_on_c, 1, 45, 45
3, 58654, Note_on_c, 1, 45, 0
3, 58656, Note_on_c, 1, 36, 45
3, 58678, Note_on_c, 1, 36, 0
3, 58680, Note_on_c, 1, 41, 45
3, 58702, Note_on_c, 1, 41, 0
3, 58704, Note_on_c, 1, 45, 45
3, 58726, Note_on_c, 1, 45, 0
3, 58728, Note_on_c, 1, 41, 45
3, 58750, Note_on_c, 1, 41, 0
3, 58752, Control_c, 1, 64, 0
3, 58752, Note_on_c, 1, 33, 45
3, 58774, Note_on_c, 1, 33, 0
3, 58776, Note_on_c, 1, 36, 45
3, 58798, Note_on_c, 1, 36, 0
3, 58800, Note_on_c, 1, 41, 45
3, 58822, Note_on_c, 1, 41, 0
3, 58824, Note_on_c, 1, 36, 45
3, 58846, Note_on_c, 1, 36, 0
3, 58848, Control_c, 1, 64, 127
3, 58848, Note_on_c, 1, 29, 45
3, 58870, Note_on_c, 1, 29, 0
3, 58872, Note_on_c, 1, 33, 45
3, 58894, Note_on_c, 1, 33, 0
3, 58896, Note_on_c, 1, 36, 45
3, 58918, Note_on_c, 1, 36, 0
3, 58920, Note_on_c, 1, 33, 45
3, 58942, Note_on_c, 1, 33, 0
3, 58944, Note_on_c, 1, 29, 45
3, 58966, Note_on_c, 1, 29, 0
3, 58968, Note_on_c, 1, 33, 45
3, 58990, Note_on_c, 1, 33, 0
3, 58992, Note_on_c, 1, 36, 45
3, 59014, Note_on_c, 1, 36, 0
3, 59016, Note_on_c, 1, 33, 45
3, 59038, Note_on_c, 1, 33, 0
3, 59040, Note_on_c, 1, 29, 45
3, 59062, Note_on_c, 1, 29, 0
3, 59064, Note_on_c, 1, 33, 45
3, 59086, Note_on_c, 1, 33, 0
3, 59088, Note_on_c, 1, 36, 44
3, 59110, Note_on_c, 1, 36, 0
3, 59112, Note_on_c, 1, 33, 43
3, 59134, Note_on_c, 1, 33, 0
3, 59136, Note_on_c, 1, 29, 42
3, 59158, Note_on_c, 1, 29, 0
3, 59160, Note_on_c, 1, 33, 41
3, 59182, Note_on_c, 1, 33, 0
3, 59184, Note_on_c, 1, 36, 40
3, 59206, Note_on_c, 1, 36, 0
3, 59208, Note_on_c, 1, 33, 39
3, 59230, Note_on_c, 1, 33, 0
3, 59232, Note_on_c, 1, 29, 38
3, 59254, Note_on_c, 1, 29, 0
3, 59256, Note_on_c, 1, 33, 37
3, 59278, Note_on_c, 1, 33, 0
3, 59280, Note_on_c, 1, 36, 36
3, 59302, Note_on_c, 1, 36, 0
3, 59304, Note_on_c, 1, 33, 35
3, 59326, Note_on_c, 1, 33, 0
3, 59328, Note_on_c, 1, 29, 34
3, 59350, Note_on_c, 1, 29, 0
3, 59352, Note_on_c, 1, 33, 33
3, 59374, Note_on_c, 1, 33, 0
3, 59376, Note_on_c, 1, 36, 32
3, 59398, Note_on_c, 1, 36, 0
3, 59400, Note_on_c, 1, 33, 31
3, 59422, Note_on_c, 1, 33, 0
3, 59424, Note_on_c, 1, 29, 30
3, 59446, Note_on_c, 1, 29, 0
3, 59448, Note_on_c, 1, 33, 30
3, 59470, Note_on_c, 1, 33, 0
3, 59472, Note_on_c, 1, 36, 30
3, 59494, Note_on_c, 1, 36, 0
3, 59496, Note_on_c, 1, 33, 30
3, 59518, Note_on_c, 1, 33, 0
3, 59520, Note_on_c, 1, 29, 30
3, 59542, Note_on_c, 1, 29, 0
3, 59544, Note_on_c, 1, 33, 30
3, 59566, Note_on_c, 1, 33, 0
3, 59568, Note_on_c, 1, 36, 30
3, 59590, Note_on_c, 1, 36, 0
3, 59592, Note_on_c, 1, 33, 30
3, 59614, Note_on_c, 1, 33, 0
3, 59616, Note_on_c, 1, 29, 30
3, 59638, Note_on_c, 1, 29, 0
3, 59640, Note_on_c, 1, 33, 30
3, 59662, Note_on_c, 1, 33, 0
3, 59664, Note_on_c, 1, 36, 30
3, 59686, Note_on_c, 1, 36, 0
3, 59688, Note_on_c, 1, 33, 30
3, 59710, Note_on_c, 1, 33, 0
3, 59712, Note_on_c, 1, 29, 10
3, 59734, Note_on_c, 1, 29, 0
3, 59736, Note_on_c, 1, 33, 10
3, 59758, Note_on_c, 1, 33, 0
3, 59760, Note_on_c, 1, 36, 10
3, 59782, Note_on_c, 1, 36, 0
3, 59784, Note_on_c, 1, 33, 10
3, 59806, Note_on_c, 1, 33, 0
3, 59808, Note_on_c, 1, 29, 10
3, 59830, Note_on_c, 1, 29, 0
3, 59832, Note_on_c, 1, 33, 10
3, 59854, Note_on_c, 1, 33, 0
3, 59856, Note_on_c, 1, 36, 10
3, 59878, Note_on_c, 1, 36, 0
3, 59880, Note_on_c, 1, 33, 10
3, 59902, Note_on_c, 1, 33, 0
3, 59904, Note_on_c, 1, 29, 10
3, 59926, Note_on_c, 1, 29, 0
3, 59928, Note_on_c, 1, 33, 10
3, 59950, Note_on_c, 1, 33, 0
3, 59952, Note_on_c, 1, 36, 10
3, 59974, Note_on_c, 1, 36, 0
3, 59976, Note_on_c, 1, 33, 10
3, 59998, Note_on_c, 1, 33, 0
3, 60000, Control_c, 1, 64, 0
3, 60000, Note_on_c, 1, 29, 10
3, 60032, Note_on_c, 1, 29, 0
3, 60096, Note_on_c, 1, 29, 18
3, 60096, Note_on_c, 1, 41, 18
3, 60128, Note_on_c, 1, 29, 0
3, 60128, Note_on_c, 1, 41, 0
3, 60192, Note_on_c, 1, 29, 26
3, 60192, Note_on_c, 1, 41, 26
3, 60224, Note_on_c, 1, 29, 0
3, 60224, Note_on_c, 1, 41, 0
3, 60288, Note_on_c, 1, 29, 34
3, 60288, Note_on_c, 1, 41, 34
3, 60320, Note_on_c, 1, 29, 0
3, 60320, Note_on_c, 1, 41, 0
3, 60384, Note_on_c, 1, 29, 42
3, 60384, Note_on_c, 1, 41, 42
3, 60416, Note_on_c, 1, 29, 0
3, 60416, Note_on_c, 1, 41, 0
3, 60480, Note_on_c, 1, 29, 51
3, 60480, Note_on_c, 1, 41, 51
3, 60574, Note_on_c, 1, 29, 0
3, 60574, Note_on_c, 1, 41, 0
3, 60576, Note_on_c, 1, 30, 60
3, 60576, Note_on_c, 1, 42, 60
3, 60832, Note_on_c, 1, 30, 0
3, 60832, Note_on_c, 1, 42, 0
3, 60864, Note_on_c, 1, 30, 60
3, 60864, Note_on_c, 1, 42, 60
3, 61120, Note_on_c, 1, 30, 0
3, 61120, Note_on_c, 1, 42, 0
3, 61152, Note_on_c, 1, 30, 60
3, 61152, Note_on_c, 1, 42, 60
3, 61312, Note_on_c, 1, 30, 0
3, 61312, Note_on_c, 1, 42, 0
3, 61344, Note_on_c, 1, 40, 60
3, 61344, Note_on_c, 1, 52, 60
3, 61438, Note_on_c, 1, 40, 0
3, 61438, Note_on_c, 1, 52, 0
3, 61440, Note_on_c, 1, 41, 63
3, 61440, Note_on_c, 1, 53, 63
3, 61600, Note_on_c, 1, 41, 0
3, 61600, Note_on_c, 1, 53, 0
3, 61632, Note_on_c, 1, 38, 70
3, 61632, Note_on_c, 1, 50, 70
3, 61726, Note_on_c, 1, 38, 0
3, 61726, Note_on_c, 1, 50, 0
3, 61728, Note_on_c, 1, 34, 73
3, 61728, Note_on_c, 1, 46, 73
3, 61888, Note_on_c, 1, 34, 0
3, 61888, Note_on_c, 1, 46, 0
3, 61920, Note_on_c, 1, 36, 80
3, 61920, Note_on_c, 1, 48, 80
3, 62014, Note_on_c, 1, 36, 0
3, 62014, Note_on_c, 1, 48, 0
3, 62016, Note_on_c, 1, 29, 84
3, 62016, Note_on_c, 1, 41, 84
3, 62176, Note_on_c, 1, 29, 0
3, 62176, Note_on_c, 1, 41, 0
3, 62208, Note_on_c, 1, 29, 92
3, 62208, Note_on_c, 1, 41, 92
3, 62302, Note_on_c, 1, 29, 0
3, 62302, Note_on_c, 1, 41, 0
3, 62304, Note_on_c, 1, 29, 92
3, 62304, Note_on_c, 1, 41, 92
3, 62464, Note_on_c, 1, 29, 0
3, 62464, Note_on_c, 1, 41, 0
3, 62496, Note_on_c, 1, 29, 45
3, 62496, Note_on_c, 1, 41, 45
3, 62590, Note_on_c, 1, 29, 0
3, 62590, Note_on_c, 1, 41, 0
3, 62592, Note_on_c, 1, 29, 45
3, 62592, Note_on_c, 1, 41, 45
3, 62752, Note_on_c, 1, 29, 0
3, 62752, Note_on_c, 1, 41, 0
3, 62784, Note_on_c, 1, 29, 92
3, 62784, Note_on_c, 1, 41, 92
3, 62878, Note_on_c, 1, 29, 0
3, 62878, Note_on_c, 1, 41, 0
3, 62880, Note_on_c, 1, 29, 92
3, 62880, Note_on_c, 1, 41, 92
3, 63040, Note_on_c, 1, 29, 0
3, 63040, Note_on_c, 1, 41, 0
3, 63072, Note_on_c, 1, 29, 45
3, 63072, Note_on_c, 1, 41, 45
3, 63166, Note_on_c, 1, 29, 0
3, 63166, Note_on_c, 1, 41, 0
3, 63168, Note_on_c, 1, 29, 30
3, 63168, Note_on_c, 1, 41, 30
3, 63262, Note_on_c, 1, 29, 0
3, 63262, Note_on_c, 1, 41, 0
3, 63264, Note_on_c, 1, 29, 32
3, 63264, Note_on_c, 1, 41, 32
3, 63358, Note_on_c, 1, 29, 0
3, 63358, Note_on_c, 1, 41, 0
3, 63360, Note_on_c, 1, 29, 34
3, 63360, Note_on_c, 1, 41, 34
3, 63454, Note_on_c, 1, 29, 0
3, 63454, Note_on_c, 1, 41, 0
3, 63456, Note_on_c, 1, 29, 36
3, 63456, Note_on_c, 1, 41, 36
3, 63550, Note_on_c, 1, 29, 0
3, 63550, Note_on_c, 1, 41, 0
3, 63552, Note_on_c, 1, 29, 39
3, 63552, Note_on_c, 1, 41, 39
3, 63646, Note_on_c, 1, 29, 0
3, 63646, Note_on_c, 1, 41, 0
3, 63648, Note_on_c, 1, 29, 42
3, 63648, Note_on_c, 1, 41, 42
3, 63742, Note_on_c, 1, 29, 0
3, 63742, Note_on_c, 1, 41, 0
3, 63744, Control_c, 1, 64, 127
3, 63744, Note_on_c, 1, 29, 45
3, 63744, Note_on_c, 1, 41, 45
3, 63838, Note_on_c, 1, 29, 0
3, 63838, Note_on_c, 1, 41, 0
3, 63936, Note_on_c, 1, 57, 45
3, 63936, Note_on_c, 1, 60, 45
3, 63968, Note_on_c, 1, 57, 0
3, 63968, Note_on_c, 1, 60, 0
3, 64032, Note_on_c, 1, 53, 45
3, 64032, Note_on_c, 1, 57, 45
3, 64064, Note_on_c, 1, 53, 0
3, 64064, Note_on_c, 1, 57, 0
3, 64128, Control_c, 1, 64, 0
3, 64128, End_track
0, 0, End_of_file