0, 0, Header, 1, 8, 384
1, 0, Start_track
1, 0, Time_signature, 4, 2, 96, 8
1, 0, Sequencer_specific, 03, 00, 00, 41
1, 0, Sequencer_specific, 05, 00, 00, 77, 0E, 00
1, 0, Tempo, 789473
1, 67584, Time_signature, 3, 2, 96, 8
1, 67584, Tempo, 263157
1, 178176, Tempo, 263157
1, 178212, Tempo, 264317
1, 178248, Tempo, 265369
1, 178284, Tempo, 266548
1, 178320, Tempo, 267618
1, 178356, Tempo, 268817
1, 178392, Tempo, 269905
1, 178428, Tempo, 271125
1, 178464, Tempo, 272232
1, 178500, Tempo, 273473
1, 178536, Tempo, 274599
1, 178572, Tempo, 275862
1, 178608, Tempo, 277008
1, 178644, Tempo, 278293
1, 178680, Tempo, 279459
1, 178716, Tempo, 280767
1, 178752, Tempo, 281954
1, 178788, Tempo, 283286
1, 178824, Tempo, 284495
1, 178860, Tempo, 285850
1, 178896, Tempo, 287081
1, 178932, Tempo, 288461
1, 178968, Tempo, 289715
1, 179004, Tempo, 291120
1, 179040, Tempo, 292397
1, 179076, Tempo, 293829
1, 179112, Tempo, 295130
1, 179148, Tempo, 296589
1, 179184, Tempo, 297914
1, 179220, Tempo, 299401
1, 179256, Tempo, 300751
1, 179292, Tempo, 302267
1, 179328, Tempo, 303643
1, 179364, Tempo, 305188
1, 179400, Tempo, 306591
1, 179436, Tempo, 308166
1, 179472, Tempo, 309597
1, 179508, Tempo, 311203
1, 179544, Tempo, 312662
1, 179580, Tempo, 314300
1, 179616, Tempo, 315789
1, 179652, Tempo, 317460
1, 179688, Tempo, 318979
1, 179724, Tempo, 320684
1, 179760, Tempo, 322234
1, 179796, Tempo, 323974
1, 179832, Tempo, 325556
1, 179868, Tempo, 327332
1, 179904, Tempo, 328947
1, 179940, Tempo, 330760
1, 179976, Tempo, 332409
1, 180012, Tempo, 334261
1, 180048, Tempo, 335946
1, 180084, Tempo, 337837
1, 180120, Tempo, 339558
1, 180156, Tempo, 341491
1, 180192, Tempo, 343249
1, 180228, Tempo, 345224
1, 180264, Tempo, 347021
1, 180300, Tempo, 349040
1, 180336, Tempo, 350877
1, 181632, Tempo, 263157
1, 211584, Tempo, 263157
1, 213888, Tempo, 263157
1, 378624, Tempo, 274599
1, 378624, End_track
2, 0, Start_track
2, 0, Title_t, "Cello"
2, 0, Control_c, 0, 0, 0
2, 0, Program_c, 0, 42
2, 0, Control_c, 0, 10, 84
2, 0, Control_c, 0, 91, 73
2, 0, Control_c, 0, 93, 20
2, 0, Key_signature, -2, "major"
2, 0, Note_on_c, 0, 43, 126
2, 384, Note_off_c, 0, 43, 73
2, 2304, Note_on_c, 0, 45, 92
2, 2780, Note_off_c, 0, 45, 86
2, 2784, Note_on_c, 0, 48, 92
2, 2880, Note_on_c, 0, 51, 92
2, 2972, Note_off_c, 0, 51, 86
2, 2976, Note_on_c, 0, 48, 92
2, 3068, Note_off_c, 0, 48, 86
2, 3068, Note_off_c, 0, 48, 86
2, 3072, Note_on_c, 0, 45, 127
2, 3644, Note_off_c, 0, 45, 86
2, 5376, Note_on_c, 0, 47, 92
2, 5760, Note_off_c, 0, 47, 86
2, 5856, Note_on_c, 0, 50, 92
2, 5948, Note_off_c, 0, 50, 86
2, 5952, Note_on_c, 0, 53, 92
2, 6044, Note_off_c, 0, 53, 86
2, 6048, Note_on_c, 0, 47, 92
2, 6140, Note_off_c, 0, 47, 86
2, 6144, Note_on_c, 0, 48, 92
2, 6524, Note_off_c, 0, 48, 86
2, 6528, Note_on_c, 0, 50, 92
2, 6908, Note_off_c, 0, 50, 86
2, 6912, Note_on_c, 0, 52, 92
2, 7488, Note_on_c, 0, 49, 92
2, 7492, Note_off_c, 0, 52, 86
2, 7680, Note_on_c, 0, 50, 92
2, 7684, Note_off_c, 0, 49, 86
2, 8060, Note_off_c, 0, 50, 86
2, 9216, Note_on_c, 0, 62, 92
2, 9980, Note_off_c, 0, 62, 86
2, 9984, Note_on_c, 0, 60, 92
2, 10268, Note_off_c, 0, 60, 86
2, 10320, Note_on_c, 0, 57, 92
2, 10364, Note_off_c, 0, 57, 86
2, 10368, Note_on_c, 0, 58, 92
2, 10652, Note_off_c, 0, 58, 86
2, 10700, Note_on_c, 0, 55, 92
2, 10744, Note_off_c, 0, 55, 86
2, 10752, Note_on_c, 0, 57, 92
2, 11324, Note_off_c, 0, 57, 86
2, 11328, Note_on_c, 0, 60, 92
2, 11424, Note_on_c, 0, 57, 92
2, 11468, Note_off_c, 0, 60, 86
2, 11520, Note_on_c, 0, 55, 92
2, 11564, Note_off_c, 0, 57, 86
2, 11904, Note_on_c, 0, 57, 92
2, 12092, Note_off_c, 0, 55, 86
2, 12188, Note_off_c, 0, 57, 86
2, 12192, Note_on_c, 0, 54, 92
2, 12288, Note_on_c, 0, 55, 92
2, 12316, Note_off_c, 0, 55, 86
2, 12332, Note_off_c, 0, 54, 86
2, 12384, Note_on_c, 0, 58, 92
2, 12476, Note_off_c, 0, 58, 86
2, 12480, Note_on_c, 0, 62, 92
2, 12572, Note_off_c, 0, 62, 86
2, 12576, Note_on_c, 0, 62, 92
2, 12604, Note_off_c, 0, 62, 86
2, 12768, Note_on_c, 0, 58, 92
2, 12860, Note_off_c, 0, 58, 86
2, 12864, Note_on_c, 0, 63, 92
2, 12956, Note_off_c, 0, 63, 86
2, 12960, Note_on_c, 0, 63, 92
2, 12988, Note_off_c, 0, 63, 86
2, 13152, Note_on_c, 0, 65, 92
2, 13244, Note_off_c, 0, 65, 86
2, 13248, Note_on_c, 0, 58, 92
2, 13340, Note_off_c, 0, 58, 86
2, 13344, Note_on_c, 0, 58, 92
2, 13372, Note_off_c, 0, 58, 86
2, 13536, Note_on_c, 0, 63, 92
2, 13628, Note_off_c, 0, 63, 86
2, 13632, Note_on_c, 0, 58, 92
2, 13724, Note_off_c, 0, 58, 86
2, 13728, Note_on_c, 0, 55, 92
2, 13756, Note_off_c, 0, 55, 86
2, 13920, Note_on_c, 0, 56, 92
2, 13984, Note_off_c, 0, 56, 86
2, 14016, Note_on_c, 0, 60, 92
2, 14080, Note_off_c, 0, 60, 86
2, 14112, Note_on_c, 0, 60, 92
2, 14176, Note_off_c, 0, 60, 86
2, 14304, Note_on_c, 0, 56, 92
2, 14368, Note_off_c, 0, 56, 86
2, 14400, Note_on_c, 0, 60, 92
2, 14464, Note_off_c, 0, 60, 86
2, 14496, Note_on_c, 0, 60, 92
2, 14560, Note_off_c, 0, 60, 86
2, 14688, Note_on_c, 0, 55, 92
2, 14752, Note_off_c, 0, 55, 86
2, 14784, Note_on_c, 0, 58, 92
2, 14848, Note_off_c, 0, 58, 86
2, 14880, Note_on_c, 0, 58, 92
2, 14944, Note_off_c, 0, 58, 86
2, 15072, Note_on_c, 0, 56, 92
2, 15136, Note_off_c, 0, 56, 86
2, 15168, Note_on_c, 0, 58, 92
2, 15232, Note_off_c, 0, 58, 86
2, 15264, Note_on_c, 0, 58, 92
2, 15328, Note_off_c, 0, 58, 86
2, 15360, Note_on_c, 0, 58, 92
2, 15932, Note_off_c, 0, 58, 86
2, 15936, Note_on_c, 0, 63, 92
2, 16128, Note_off_c, 0, 63, 86
2, 16128, Note_on_c, 0, 62, 92
2, 16316, Note_off_c, 0, 62, 86
2, 16320, Note_on_c, 0, 65, 92
2, 16700, Note_off_c, 0, 65, 86
2, 16704, Note_on_c, 0, 62, 92
2, 16796, Note_off_c, 0, 62, 86
2, 16800, Note_on_c, 0, 58, 92
2, 16892, Note_off_c, 0, 58, 86
2, 16896, Note_on_c, 0, 63, 92
2, 16992, Note_on_c, 0, 65, 92
2, 17084, Note_off_c, 0, 65, 86
2, 17180, Note_off_c, 0, 63, 86
2, 17184, Note_on_c, 0, 65, 92
2, 17276, Note_off_c, 0, 65, 86
2, 17280, Note_on_c, 0, 66, 92
2, 17372, Note_off_c, 0, 66, 86
2, 17376, Note_on_c, 0, 67, 92
2, 17468, Note_off_c, 0, 67, 86
2, 17472, Note_on_c, 0, 67, 92
2, 17536, Note_off_c, 0, 67, 86
2, 17568, Note_on_c, 0, 67, 92
2, 17632, Note_off_c, 0, 67, 86
2, 17664, Note_on_c, 0, 68, 92
2, 17724, Note_off_c, 0, 68, 86
2, 17856, Note_on_c, 0, 68, 92
2, 17916, Note_off_c, 0, 68, 86
2, 18048, Note_on_c, 0, 68, 92
2, 18108, Note_off_c, 0, 68, 86
2, 18240, Note_on_c, 0, 68, 92
2, 18300, Note_off_c, 0, 68, 86
2, 18432, Note_on_c, 0, 67, 92
2, 18620, Note_off_c, 0, 67, 86
2, 18624, Note_on_c, 0, 70, 92
2, 19004, Note_off_c, 0, 70, 86
2, 19008, Note_on_c, 0, 67, 92
2, 19100, Note_off_c, 0, 67, 86
2, 19104, Note_on_c, 0, 63, 92
2, 19196, Note_off_c, 0, 63, 86
2, 19200, Note_on_c, 0, 62, 92
2, 19292, Note_off_c, 0, 62, 86
2, 19296, Note_on_c, 0, 63, 92
2, 19388, Note_off_c, 0, 63, 86
2, 19392, Note_on_c, 0, 64, 92
2, 19484, Note_off_c, 0, 64, 86
2, 19488, Note_on_c, 0, 65, 92
2, 19580, Note_off_c, 0, 65, 86
2, 19584, Note_on_c, 0, 58, 92
2, 19676, Note_off_c, 0, 58, 86
2, 19680, Note_on_c, 0, 60, 92
2, 19772, Note_off_c, 0, 60, 86
2, 19776, Note_on_c, 0, 61, 92
2, 19868, Note_off_c, 0, 61, 86
2, 19872, Note_on_c, 0, 62, 92
2, 19964, Note_off_c, 0, 62, 86
2, 19968, Note_on_c, 0, 61, 92
2, 20060, Note_off_c, 0, 61, 86
2, 20064, Note_on_c, 0, 58, 92
2, 20156, Note_off_c, 0, 58, 86
2, 20160, Note_on_c, 0, 58, 92
2, 20188, Note_off_c, 0, 58, 86
2, 20256, Note_on_c, 0, 58, 92
2, 20284, Note_off_c, 0, 58, 86
2, 20448, Note_on_c, 0, 51, 92
2, 20540, Note_off_c, 0, 51, 86
2, 20544, Note_on_c, 0, 58, 92
2, 20608, Note_off_c, 0, 58, 86
2, 20640, Note_on_c, 0, 58, 92
2, 20668, Note_off_c, 0, 58, 86
2, 20736, Note_on_c, 0, 65, 92
2, 20828, Note_off_c, 0, 65, 86
2, 20832, Note_on_c, 0, 53, 92
2, 20924, Note_off_c, 0, 53, 86
2, 20928, Note_on_c, 0, 58, 92
2, 20992, Note_off_c, 0, 58, 86
2, 21024, Note_on_c, 0, 58, 92
2, 21052, Note_off_c, 0, 58, 86
2, 21216, Note_on_c, 0, 53, 92
2, 21308, Note_off_c, 0, 53, 86
2, 21312, Note_on_c, 0, 58, 92
2, 21376, Note_off_c, 0, 58, 86
2, 21408, Note_on_c, 0, 58, 92
2, 21436, Note_off_c, 0, 58, 86
2, 21504, Note_on_c, 0, 58, 127
2, 21692, Note_off_c, 0, 58, 86
2, 22968, Note_on_c, 0, 43, 92
2, 23040, Note_off_c, 0, 43, 86
2, 23040, Note_on_c, 0, 44, 112
2, 23612, Note_off_c, 0, 44, 86
2, 24512, Note_on_c, 0, 45, 92
2, 24572, Note_off_c, 0, 45, 86
2, 24576, Note_on_c, 0, 46, 80
2, 25340, Note_off_c, 0, 46, 73
2, 25536, Note_on_c, 0, 50, 80
2, 25600, Note_off_c, 0, 50, 73
2, 25632, Note_on_c, 0, 53, 80
2, 25696, Note_off_c, 0, 53, 73
2, 25728, Note_on_c, 0, 58, 80
2, 25792, Note_off_c, 0, 58, 73
2, 25824, Note_on_c, 0, 60, 80
2, 25888, Note_off_c, 0, 60, 73
2, 25920, Note_on_c, 0, 61, 80
2, 25984, Note_off_c, 0, 61, 73
2, 26016, Note_on_c, 0, 62, 80
2, 26080, Note_off_c, 0, 62, 73
2, 26112, Note_on_c, 0, 63, 92
2, 26496, Note_off_c, 0, 63, 73
2, 26688, Note_on_c, 0, 67, 92
2, 26784, Note_off_c, 0, 67, 73
2, 26820, Note_on_c, 0, 65, 92
2, 26852, Note_off_c, 0, 65, 73
2, 26880, Note_on_c, 0, 63, 92
2, 26940, Note_off_c, 0, 63, 73
2, 27016, Note_on_c, 0, 62, 92
2, 27052, Note_off_c, 0, 62, 73
2, 27072, Note_on_c, 0, 60, 92
2, 27136, Note_off_c, 0, 60, 73
2, 27208, Note_on_c, 0, 58, 92
2, 27240, Note_off_c, 0, 58, 73
2, 27264, Note_on_c, 0, 56, 92
2, 27328, Note_off_c, 0, 56, 73
2, 27400, Note_on_c, 0, 55, 92
2, 27432, Note_off_c, 0, 55, 73
2, 27456, Note_on_c, 0, 53, 92
2, 27520, Note_off_c, 0, 53, 73
2, 27592, Note_on_c, 0, 51, 92
2, 27624, Note_off_c, 0, 51, 73
2, 27648, Note_on_c, 0, 50, 126
2, 28028, Note_off_c, 0, 50, 73
2, 28032, Note_on_c, 0, 48, 126
2, 28412, Note_off_c, 0, 48, 73
2, 28416, Note_on_c, 0, 47, 126
2, 28672, Note_off_c, 0, 47, 73
2, 28992, Note_on_c, 0, 68, 80
2, 29056, Note_off_c, 0, 68, 73
2, 29124, Note_on_c, 0, 67, 80
2, 29156, Note_off_c, 0, 67, 73
2, 29184, Note_on_c, 0, 65, 80
2, 29276, Note_off_c, 0, 65, 73
2, 29312, Note_on_c, 0, 63, 80
2, 29372, Note_off_c, 0, 63, 73
2, 29376, Note_on_c, 0, 62, 80
2, 29468, Note_off_c, 0, 62, 73
2, 29504, Note_on_c, 0, 60, 80
2, 29564, Note_off_c, 0, 60, 73
2, 29568, Note_on_c, 0, 59, 80
2, 29660, Note_off_c, 0, 59, 73
2, 29696, Note_on_c, 0, 56, 80
2, 29756, Note_off_c, 0, 56, 73
2, 29760, Note_on_c, 0, 55, 80
2, 29852, Note_off_c, 0, 55, 73
2, 29888, Note_on_c, 0, 53, 80
2, 29948, Note_off_c, 0, 53, 73
2, 29952, Note_on_c, 0, 52, 126
2, 30332, Note_off_c, 0, 52, 73
2, 30336, Note_on_c, 0, 50, 126
2, 30716, Note_off_c, 0, 50, 73
2, 30720, Note_on_c, 0, 49, 126
2, 30976, Note_off_c, 0, 49, 73
2, 31488, Note_on_c, 0, 40, 127
2, 31744, Note_off_c, 0, 40, 73
2, 31872, Note_on_c, 0, 37, 127
2, 32128, Note_off_c, 0, 37, 73
2, 32256, Note_on_c, 0, 36, 127
2, 32636, Note_off_c, 0, 36, 73
2, 32832, Note_on_c, 0, 67, 127
2, 32924, Note_off_c, 0, 67, 73
2, 32960, Note_on_c, 0, 66, 127
2, 33020, Note_off_c, 0, 66, 73
2, 33024, Note_on_c, 0, 67, 127
2, 33116, Note_off_c, 0, 67, 73
2, 33152, Note_on_c, 0, 65, 127
2, 33212, Note_off_c, 0, 65, 73
2, 33216, Note_on_c, 0, 64, 127
2, 33308, Note_off_c, 0, 64, 73
2, 33344, Note_on_c, 0, 62, 127
2, 33404, Note_off_c, 0, 62, 73
2, 33408, Note_on_c, 0, 60, 127
2, 33500, Note_off_c, 0, 60, 73
2, 33536, Note_on_c, 0, 58, 127
2, 33600, Note_on_c, 0, 56, 127
2, 33608, Note_off_c, 0, 58, 73
2, 33692, Note_off_c, 0, 56, 73
2, 33728, Note_on_c, 0, 55, 127
2, 33792, Note_on_c, 0, 53, 127
2, 33800, Note_off_c, 0, 55, 73
2, 34172, Note_off_c, 0, 53, 73
2, 34560, Note_on_c, 0, 65, 127
2, 34652, Note_off_c, 0, 65, 73
2, 34688, Note_on_c, 0, 63, 127
2, 34748, Note_off_c, 0, 63, 73
2, 34752, Note_on_c, 0, 62, 127
2, 34844, Note_off_c, 0, 62, 73
2, 34880, Note_on_c, 0, 60, 127
2, 34940, Note_off_c, 0, 60, 73
2, 34944, Note_on_c, 0, 58, 127
2, 35036, Note_off_c, 0, 58, 73
2, 35072, Note_on_c, 0, 56, 127
2, 35136, Note_on_c, 0, 55, 127
2, 35144, Note_off_c, 0, 56, 73
2, 35228, Note_off_c, 0, 55, 73
2, 35264, Note_on_c, 0, 53, 127
2, 35328, Note_on_c, 0, 51, 127
2, 35336, Note_off_c, 0, 53, 73
2, 35708, Note_off_c, 0, 51, 73
2, 36096, Note_on_c, 0, 63, 127
2, 36188, Note_off_c, 0, 63, 73
2, 36224, Note_on_c, 0, 61, 127
2, 36284, Note_off_c, 0, 61, 73
2, 36288, Note_on_c, 0, 59, 127
2, 36380, Note_off_c, 0, 59, 73
2, 36416, Note_on_c, 0, 58, 127
2, 36476, Note_off_c, 0, 58, 73
2, 36480, Note_on_c, 0, 56, 127
2, 36572, Note_off_c, 0, 56, 73
2, 36608, Note_on_c, 0, 54, 127
2, 36672, Note_on_c, 0, 53, 127
2, 36688, Note_off_c, 0, 54, 73
2, 36764, Note_off_c, 0, 53, 73
2, 36800, Note_on_c, 0, 51, 127
2, 36864, Note_on_c, 0, 46, 127
2, 36872, Note_off_c, 0, 51, 73
2, 37632, Note_on_c, 0, 58, 127
2, 37724, Note_off_c, 0, 58, 73
2, 37760, Note_on_c, 0, 56, 127
2, 37820, Note_off_c, 0, 56, 73
2, 37824, Note_on_c, 0, 54, 127
2, 37916, Note_off_c, 0, 54, 73
2, 37952, Note_on_c, 0, 53, 120
2, 38012, Note_off_c, 0, 46, 73
2, 38012, Note_off_c, 0, 53, 73
2, 38016, Note_on_c, 0, 51, 115
2, 38108, Note_off_c, 0, 51, 73
2, 38144, Note_on_c, 0, 49, 103
2, 38208, Note_on_c, 0, 48, 97
2, 38216, Note_off_c, 0, 49, 73
2, 38300, Note_off_c, 0, 48, 73
2, 38336, Note_on_c, 0, 46, 86
2, 38404, Note_off_c, 0, 46, 73
2, 38404, Note_on_c, 0, 46, 80
2, 39360, Note_on_c, 0, 58, 109
2, 39548, Note_off_c, 0, 58, 73
2, 39552, Note_off_c, 0, 46, 85
2, 39552, Note_on_c, 0, 55, 115
2, 39740, Note_off_c, 0, 55, 73
2, 39744, Note_on_c, 0, 51, 97
2, 39932, Note_off_c, 0, 51, 73
2, 39936, Note_on_c, 0, 51, 80
2, 40028, Note_off_c, 0, 51, 73
2, 40064, Note_on_c, 0, 53, 80
2, 40124, Note_off_c, 0, 53, 73
2, 40128, Note_on_c, 0, 55, 80
2, 40220, Note_off_c, 0, 55, 73
2, 40256, Note_on_c, 0, 56, 80
2, 40316, Note_off_c, 0, 56, 73
2, 40320, Note_on_c, 0, 58, 80
2, 40412, Note_off_c, 0, 58, 73
2, 40448, Note_on_c, 0, 60, 80
2, 40508, Note_off_c, 0, 60, 73
2, 40512, Note_on_c, 0, 61, 80
2, 40604, Note_off_c, 0, 61, 73
2, 40704, Note_on_c, 0, 63, 69
2, 42236, Note_off_c, 0, 63, 73
2, 42240, Note_on_c, 0, 61, 103
2, 42428, Note_off_c, 0, 61, 73
2, 42560, Note_on_c, 0, 58, 103
2, 42620, Note_off_c, 0, 58, 73
2, 42624, Note_on_c, 0, 60, 103
2, 42812, Note_off_c, 0, 60, 73
2, 42944, Note_on_c, 0, 56, 103
2, 43004, Note_off_c, 0, 56, 73
2, 43008, Note_on_c, 0, 58, 97
2, 43580, Note_off_c, 0, 58, 73
2, 43584, Note_on_c, 0, 61, 97
2, 43676, Note_off_c, 0, 61, 73
2, 43680, Note_on_c, 0, 58, 97
2, 43772, Note_off_c, 0, 58, 73
2, 43776, Note_on_c, 0, 56, 97
2, 44156, Note_off_c, 0, 56, 73
2, 44160, Note_on_c, 0, 58, 97
2, 44444, Note_off_c, 0, 58, 73
2, 44448, Note_on_c, 0, 55, 97
2, 44540, Note_off_c, 0, 55, 73
2, 44544, Note_on_c, 0, 56, 127
2, 44672, Note_off_c, 0, 56, 73
2, 44928, Note_on_c, 0, 65, 127
2, 45408, Note_on_c, 0, 53, 127
2, 45500, Note_off_c, 0, 65, 73
2, 45500, Note_off_c, 0, 53, 73
2, 45504, Note_on_c, 0, 58, 127
2, 45596, Note_off_c, 0, 58, 73
2, 45600, Note_on_c, 0, 62, 127
2, 45692, Note_off_c, 0, 62, 73
2, 45696, Note_on_c, 0, 57, 127
2, 45788, Note_off_c, 0, 57, 73
2, 45792, Note_on_c, 0, 53, 127
2, 45884, Note_off_c, 0, 53, 73
2, 45888, Note_on_c, 0, 57, 127
2, 45980, Note_off_c, 0, 57, 73
2, 45984, Note_on_c, 0, 60, 127
2, 46076, Note_off_c, 0, 60, 73
2, 46464, Note_on_c, 0, 67, 127
2, 46944, Note_on_c, 0, 55, 127
2, 47036, Note_off_c, 0, 67, 73
2, 47036, Note_off_c, 0, 55, 73
2, 47040, Note_on_c, 0, 60, 127
2, 47132, Note_off_c, 0, 60, 73
2, 47136, Note_on_c, 0, 63, 127
2, 47228, Note_off_c, 0, 63, 73
2, 47232, Note_on_c, 0, 59, 127
2, 47324, Note_off_c, 0, 59, 73
2, 47328, Note_on_c, 0, 55, 127
2, 47420, Note_off_c, 0, 55, 73
2, 47424, Note_on_c, 0, 59, 127
2, 47516, Note_off_c, 0, 59, 73
2, 47520, Note_on_c, 0, 62, 127
2, 47612, Note_off_c, 0, 62, 73
2, 48000, Note_on_c, 0, 69, 127
2, 48480, Note_on_c, 0, 57, 127
2, 48572, Note_off_c, 0, 69, 73
2, 48572, Note_off_c, 0, 57, 73
2, 48576, Note_on_c, 0, 62, 127
2, 48668, Note_off_c, 0, 62, 73
2, 48672, Note_on_c, 0, 65, 127
2, 48764, Note_off_c, 0, 65, 73
2, 48768, Note_on_c, 0, 61, 127
2, 48860, Note_off_c, 0, 61, 73
2, 48864, Note_on_c, 0, 57, 127
2, 48956, Note_off_c, 0, 57, 73
2, 48960, Note_on_c, 0, 61, 127
2, 49052, Note_off_c, 0, 61, 73
2, 49056, Note_on_c, 0, 64, 127
2, 49148, Note_off_c, 0, 64, 73
2, 49152, Note_on_c, 0, 67, 127
2, 49340, Note_off_c, 0, 67, 73
2, 50880, Note_on_c, 0, 62, 80
2, 51068, Note_off_c, 0, 62, 73
2, 51072, Note_on_c, 0, 61, 80
2, 51260, Note_off_c, 0, 61, 73
2, 51264, Note_on_c, 0, 62, 80
2, 51452, Note_off_c, 0, 62, 73
2, 51456, Note_on_c, 0, 50, 80
2, 51712, Note_off_c, 0, 50, 73
2, 52416, Note_on_c, 0, 67, 80
2, 52604, Note_off_c, 0, 67, 73
2, 52608, Note_on_c, 0, 66, 80
2, 52796, Note_off_c, 0, 66, 73
2, 52800, Note_on_c, 0, 67, 80
2, 52988, Note_off_c, 0, 67, 73
2, 52992, Note_on_c, 0, 55, 80
2, 54524, Note_off_c, 0, 55, 73
2, 54528, Note_on_c, 0, 48, 80
2, 55100, Note_off_c, 0, 48, 73
2, 55104, Note_on_c, 0, 49, 80
2, 55292, Note_off_c, 0, 49, 73
2, 55296, Note_on_c, 0, 50, 80
2, 55424, Note_off_c, 0, 50, 73
2, 56064, Note_on_c, 0, 63, 127
2, 56128, Note_off_c, 0, 63, 73
2, 56192, Note_on_c, 0, 62, 126
2, 56224, Note_off_c, 0, 62, 73
2, 56256, Note_on_c, 0, 60, 126
2, 56320, Note_off_c, 0, 60, 73
2, 56384, Note_on_c, 0, 58, 126
2, 56416, Note_off_c, 0, 58, 73
2, 56448, Note_on_c, 0, 57, 126
2, 56576, Note_off_c, 0, 57, 73
2, 56640, Note_on_c, 0, 55, 126
2, 56768, Note_off_c, 0, 55, 73
2, 56832, Note_on_c, 0, 54, 126
2, 57088, Note_off_c, 0, 54, 73
2, 57216, Note_on_c, 0, 63, 127
2, 57408, Note_off_c, 0, 63, 73
2, 57504, Note_on_c, 0, 62, 126
2, 57568, Note_off_c, 0, 62, 73
2, 57600, Note_on_c, 0, 60, 126
2, 57664, Note_off_c, 0, 60, 73
2, 57728, Note_on_c, 0, 58, 126
2, 57760, Note_off_c, 0, 58, 73
2, 57792, Note_on_c, 0, 57, 126
2, 57856, Note_off_c, 0, 57, 73
2, 57920, Note_on_c, 0, 55, 126
2, 57952, Note_off_c, 0, 55, 73
2, 57984, Note_on_c, 0, 54, 126
2, 58112, Note_off_c, 0, 54, 73
2, 58176, Note_on_c, 0, 55, 126
2, 58304, Note_off_c, 0, 55, 73
2, 58368, Note_on_c, 0, 57, 127
2, 58624, Note_off_c, 0, 57, 57
2, 64416, Note_on_c, 0, 60, 101
2, 64508, Note_off_c, 0, 60, 73
2, 64512, Note_on_c, 0, 60, 69
2, 65276, Note_off_c, 0, 60, 73
2, 65280, Note_on_c, 0, 62, 69
2, 65408, Note_off_c, 0, 62, 73
2, 65664, Note_on_c, 0, 54, 69
2, 65792, Note_off_c, 0, 54, 73
2, 67200, Note_on_c, 0, 55, 90
2, 67456, Note_off_c, 0, 55, 73
2, 67580, Note_on_c, 0, 55, 80
2, 68344, Note_off_c, 0, 55, 73
2, 68352, Note_on_c, 0, 57, 80
2, 68540, Note_off_c, 0, 57, 73
2, 68544, Note_on_c, 0, 59, 80
2, 68732, Note_off_c, 0, 59, 73
2, 68736, Note_on_c, 0, 60, 80
2, 69116, Note_off_c, 0, 60, 73
2, 69120, Note_on_c, 0, 62, 80
2, 69500, Note_off_c, 0, 62, 73
2, 69504, Note_on_c, 0, 63, 80
2, 69884, Note_off_c, 0, 63, 73
2, 69888, Note_on_c, 0, 63, 80
2, 70268, Note_off_c, 0, 63, 73
2, 70272, Note_on_c, 0, 62, 80
2, 70652, Note_off_c, 0, 62, 73
2, 70656, Note_on_c, 0, 60, 80
2, 70780, Note_off_c, 0, 60, 73
2, 71040, Note_on_c, 0, 58, 80
2, 71424, Note_off_c, 0, 58, 73
2, 71424, Note_on_c, 0, 55, 80
2, 71808, Note_off_c, 0, 55, 73
2, 76416, Note_on_c, 0, 62, 80
2, 76796, Note_off_c, 0, 62, 73
2, 76800, Note_on_c, 0, 62, 80
2, 77180, Note_off_c, 0, 62, 73
2, 77184, Note_on_c, 0, 63, 80
2, 77564, Note_off_c, 0, 63, 73
2, 77568, Note_on_c, 0, 60, 80
2, 77948, Note_off_c, 0, 60, 73
2, 77952, Note_on_c, 0, 58, 80
2, 78332, Note_off_c, 0, 58, 73
2, 81024, Note_on_c, 0, 67, 80
2, 81404, Note_off_c, 0, 67, 73
2, 81408, Note_on_c, 0, 67, 80
2, 81788, Note_off_c, 0, 67, 73
2, 81792, Note_on_c, 0, 68, 80
2, 82172, Note_off_c, 0, 68, 73
2, 82176, Note_on_c, 0, 65, 80
2, 82556, Note_off_c, 0, 65, 73
2, 82560, Note_on_c, 0, 63, 80
2, 82940, Note_off_c, 0, 63, 73
2, 93312, Note_on_c, 0, 57, 80
2, 93500, Note_off_c, 0, 57, 73
2, 93696, Note_on_c, 0, 57, 80
2, 93884, Note_off_c, 0, 57, 73
2, 94080, Note_on_c, 0, 58, 80
2, 94844, Note_off_c, 0, 58, 73
2, 94848, Note_on_c, 0, 62, 80
2, 95228, Note_off_c, 0, 62, 73
2, 95616, Note_on_c, 0, 50, 80
2, 95804, Note_off_c, 0, 50, 73
2, 96000, Note_on_c, 0, 54, 80
2, 96188, Note_off_c, 0, 54, 73
2, 96384, Note_on_c, 0, 55, 127
2, 96572, Note_off_c, 0, 55, 73
2, 96768, Note_on_c, 0, 50, 127
2, 97148, Note_off_c, 0, 50, 73
2, 97152, Note_on_c, 0, 58, 127
2, 97376, Note_off_c, 0, 58, 73
2, 97536, Note_on_c, 0, 58, 127
2, 98300, Note_off_c, 0, 58, 73
2, 98304, Note_on_c, 0, 57, 127
2, 98492, Note_off_c, 0, 57, 73
2, 98496, Note_on_c, 0, 55, 127
2, 98684, Note_off_c, 0, 55, 73
2, 98688, Note_on_c, 0, 55, 127
2, 99000, Note_off_c, 0, 55, 73
2, 99072, Note_on_c, 0, 54, 127
2, 99452, Note_off_c, 0, 54, 73
2, 99456, Note_on_c, 0, 60, 127
2, 99836, Note_off_c, 0, 60, 73
2, 99840, Note_on_c, 0, 60, 127
2, 100604, Note_off_c, 0, 60, 73
2, 100608, Note_on_c, 0, 58, 127
2, 100796, Note_off_c, 0, 58, 73
2, 100800, Note_on_c, 0, 57, 127
2, 100988, Note_off_c, 0, 57, 73
2, 100992, Note_on_c, 0, 57, 127
2, 101372, Note_off_c, 0, 57, 73
2, 101376, Note_on_c, 0, 55, 127
2, 101756, Note_off_c, 0, 55, 73
2, 101760, Note_on_c, 0, 62, 127
2, 101988, Note_off_c, 0, 62, 73
2, 102144, Note_on_c, 0, 62, 126
2, 102908, Note_off_c, 0, 62, 73
2, 102912, Note_on_c, 0, 60, 126
2, 103100, Note_off_c, 0, 60, 73
2, 103104, Note_on_c, 0, 58, 126
2, 103292, Note_off_c, 0, 58, 73
2, 103296, Note_on_c, 0, 58, 126
2, 103676, Note_off_c, 0, 58, 73
2, 103680, Note_on_c, 0, 57, 126
2, 104060, Note_off_c, 0, 57, 73
2, 104064, Note_on_c, 0, 63, 126
2, 104188, Note_off_c, 0, 63, 73
2, 104448, Note_on_c, 0, 63, 126
2, 104828, Note_off_c, 0, 63, 73
2, 104832, Note_on_c, 0, 62, 126
2, 105212, Note_off_c, 0, 62, 73
2, 105216, Note_on_c, 0, 54, 126
2, 105340, Note_off_c, 0, 54, 73
2, 105600, Note_on_c, 0, 55, 126
2, 105724, Note_off_c, 0, 55, 73
2, 106368, Note_on_c, 0, 43, 126
2, 106492, Note_off_c, 0, 43, 73
2, 106752, Note_on_c, 0, 43, 126
2, 107516, Note_off_c, 0, 43, 73
2, 107520, Note_on_c, 0, 45, 126
2, 107708, Note_off_c, 0, 45, 73
2, 107712, Note_on_c, 0, 46, 126
2, 107900, Note_off_c, 0, 46, 73
2, 107904, Note_on_c, 0, 46, 126
2, 108284, Note_off_c, 0, 46, 73
2, 108288, Note_on_c, 0, 45, 126
2, 108668, Note_off_c, 0, 45, 73
2, 108672, Note_on_c, 0, 45, 126
2, 108796, Note_off_c, 0, 45, 73
2, 109056, Note_on_c, 0, 45, 126
2, 109820, Note_off_c, 0, 45, 73
2, 109824, Note_on_c, 0, 46, 126
2, 110012, Note_off_c, 0, 46, 73
2, 110016, Note_on_c, 0, 48, 126
2, 110204, Note_off_c, 0, 48, 73
2, 110208, Note_on_c, 0, 48, 126
2, 110588, Note_off_c, 0, 48, 73
2, 110592, Note_on_c, 0, 46, 126
2, 110972, Note_off_c, 0, 46, 73
2, 110976, Note_on_c, 0, 46, 126
2, 111100, Note_off_c, 0, 46, 73
2, 111360, Note_on_c, 0, 46, 126
2, 112124, Note_off_c, 0, 46, 73
2, 112128, Note_on_c, 0, 43, 126
2, 112384, Note_off_c, 0, 43, 73
2, 112512, Note_on_c, 0, 44, 127
2, 114432, Note_off_c, 0, 44, 73
2, 114816, Note_on_c, 0, 56, 127
2, 117116, Note_off_c, 0, 56, 73
2, 117120, Note_on_c, 0, 55, 127
2, 117500, Note_off_c, 0, 55, 73
2, 117504, Note_on_c, 0, 58, 127
2, 117628, Note_off_c, 0, 58, 73
2, 117888, Note_on_c, 0, 58, 127
2, 118012, Note_off_c, 0, 58, 73
2, 118272, Note_on_c, 0, 58, 127
2, 119036, Note_off_c, 0, 58, 73
2, 119040, Note_on_c, 0, 50, 127
2, 119420, Note_off_c, 0, 50, 73
2, 119424, Note_on_c, 0, 51, 127
2, 119548, Note_off_c, 0, 51, 73
2, 119808, Note_on_c, 0, 58, 127
2, 119932, Note_off_c, 0, 58, 73
2, 120192, Note_on_c, 0, 58, 127
2, 120316, Note_off_c, 0, 58, 73
2, 120576, Note_on_c, 0, 58, 127
2, 121340, Note_off_c, 0, 58, 73
2, 121344, Note_on_c, 0, 56, 127
2, 121724, Note_off_c, 0, 56, 73
2, 121728, Note_on_c, 0, 55, 127
2, 121852, Note_off_c, 0, 55, 73
2, 122112, Note_on_c, 0, 58, 127
2, 122236, Note_off_c, 0, 58, 73
2, 122496, Note_on_c, 0, 58, 127
2, 122620, Note_off_c, 0, 58, 73
2, 122880, Note_on_c, 0, 58, 127
2, 123644, Note_off_c, 0, 58, 73
2, 123648, Note_on_c, 0, 52, 127
2, 124028, Note_off_c, 0, 52, 73
2, 124032, Note_on_c, 0, 53, 127
2, 124160, Note_off_c, 0, 53, 73
2, 124224, Note_on_c, 0, 65, 127
2, 124352, Note_off_c, 0, 65, 73
2, 124416, Note_on_c, 0, 65, 127
2, 124544, Note_off_c, 0, 65, 73
2, 124608, Note_on_c, 0, 65, 127
2, 124736, Note_off_c, 0, 65, 73
2, 124800, Note_on_c, 0, 65, 127
2, 124928, Note_off_c, 0, 65, 73
2, 124992, Note_on_c, 0, 65, 127
2, 125120, Note_off_c, 0, 65, 73
2, 125184, Note_on_c, 0, 65, 127
2, 125312, Note_off_c, 0, 65, 73
2, 125376, Note_on_c, 0, 65, 127
2, 125504, Note_off_c, 0, 65, 73
2, 125568, Note_on_c, 0, 65, 127
2, 125696, Note_off_c, 0, 65, 73
2, 125760, Note_on_c, 0, 65, 127
2, 125888, Note_off_c, 0, 65, 73
2, 125952, Note_on_c, 0, 65, 127
2, 126080, Note_off_c, 0, 65, 73
2, 126144, Note_on_c, 0, 65, 127
2, 126272, Note_off_c, 0, 65, 73
2, 126336, Note_on_c, 0, 65, 127
2, 126592, Note_off_c, 0, 65, 73
2, 126720, Note_on_c, 0, 61, 127
2, 126844, Note_off_c, 0, 61, 73
2, 127104, Note_on_c, 0, 61, 127
2, 127228, Note_off_c, 0, 61, 73
2, 127488, Note_on_c, 0, 61, 127
2, 127868, Note_off_c, 0, 61, 73
2, 127872, Note_on_c, 0, 60, 127
2, 128252, Note_off_c, 0, 60, 73
2, 128256, Note_on_c, 0, 58, 127
2, 128380, Note_off_c, 0, 58, 73
2, 128640, Note_on_c, 0, 57, 127
2, 128768, Note_off_c, 0, 57, 73
2, 128832, Note_on_c, 0, 65, 127
2, 128960, Note_off_c, 0, 65, 73
2, 129024, Note_on_c, 0, 65, 127
2, 129152, Note_off_c, 0, 65, 73
2, 129216, Note_on_c, 0, 65, 127
2, 129344, Note_off_c, 0, 65, 73
2, 129408, Note_on_c, 0, 65, 127
2, 129536, Note_off_c, 0, 65, 73
2, 129600, Note_on_c, 0, 65, 127
2, 129728, Note_off_c, 0, 65, 73
2, 129792, Note_on_c, 0, 65, 127
2, 129920, Note_off_c, 0, 65, 73
2, 129984, Note_on_c, 0, 65, 127
2, 130112, Note_off_c, 0, 65, 73
2, 130176, Note_on_c, 0, 65, 127
2, 130304, Note_off_c, 0, 65, 73
2, 130368, Note_on_c, 0, 65, 127
2, 130496, Note_off_c, 0, 65, 73
2, 130560, Note_on_c, 0, 65, 127
2, 130688, Note_off_c, 0, 65, 73
2, 130752, Note_on_c, 0, 65, 127
2, 130880, Note_off_c, 0, 65, 73
2, 130944, Note_on_c, 0, 65, 127
2, 131200, Note_off_c, 0, 65, 73
2, 131328, Note_on_c, 0, 61, 127
2, 131452, Note_off_c, 0, 61, 73
2, 131712, Note_on_c, 0, 61, 127
2, 131836, Note_off_c, 0, 61, 73
2, 132096, Note_on_c, 0, 61, 127
2, 132476, Note_off_c, 0, 61, 73
2, 132480, Note_on_c, 0, 60, 127
2, 132860, Note_off_c, 0, 60, 73
2, 132864, Note_on_c, 0, 58, 127
2, 132988, Note_off_c, 0, 58, 73
2, 133248, Note_on_c, 0, 57, 127
2, 134012, Note_off_c, 0, 57, 73
2, 134016, Note_on_c, 0, 58, 127
2, 134396, Note_off_c, 0, 58, 73
2, 134400, Note_on_c, 0, 57, 127
2, 135164, Note_off_c, 0, 57, 73
2, 135168, Note_on_c, 0, 58, 127
2, 135548, Note_off_c, 0, 58, 73
2, 137856, Note_on_c, 0, 65, 80
2, 141696, Note_on_c, 0, 64, 80
2, 141884, Note_off_c, 0, 65, 73
2, 141884, Note_off_c, 0, 64, 73
2, 141888, Note_on_c, 0, 65, 80
2, 142076, Note_off_c, 0, 65, 73
2, 142080, Note_on_c, 0, 64, 80
2, 142268, Note_off_c, 0, 64, 73
2, 142272, Note_on_c, 0, 65, 80
2, 142460, Note_off_c, 0, 65, 73
2, 142464, Note_on_c, 0, 65, 80
2, 145148, Note_off_c, 0, 65, 73
2, 145152, Note_on_c, 0, 65, 80
2, 145408, Note_off_c, 0, 65, 73
2, 145536, Note_on_c, 0, 65, 80
2, 145792, Note_off_c, 0, 65, 73
2, 145920, Note_on_c, 0, 65, 80
2, 146176, Note_off_c, 0, 65, 73
2, 156288, Note_on_c, 0, 50, 80
2, 157052, Note_off_c, 0, 50, 73
2, 157056, Note_on_c, 0, 51, 80
2, 157436, Note_off_c, 0, 51, 73
2, 157440, Note_on_c, 0, 53, 80
2, 158012, Note_off_c, 0, 53, 73
2, 158016, Note_on_c, 0, 55, 80
2, 158204, Note_off_c, 0, 55, 73
2, 158208, Note_on_c, 0, 57, 80
2, 158396, Note_off_c, 0, 57, 73
2, 158400, Note_on_c, 0, 58, 80
2, 158588, Note_off_c, 0, 58, 73
2, 158592, Note_on_c, 0, 60, 80
2, 158780, Note_off_c, 0, 60, 73
2, 158976, Note_on_c, 0, 60, 80
2, 159356, Note_off_c, 0, 60, 73
2, 159360, Note_on_c, 0, 62, 80
2, 159740, Note_off_c, 0, 62, 73
2, 159744, Note_on_c, 0, 65, 80
2, 160124, Note_off_c, 0, 65, 73
2, 160128, Note_on_c, 0, 63, 80
2, 160508, Note_off_c, 0, 63, 73
2, 160896, Note_on_c, 0, 48, 80
2, 161660, Note_off_c, 0, 48, 73
2, 161664, Note_on_c, 0, 50, 80
2, 162044, Note_off_c, 0, 50, 73
2, 162048, Note_on_c, 0, 51, 80
2, 162620, Note_off_c, 0, 51, 73
2, 162624, Note_on_c, 0, 53, 80
2, 162812, Note_off_c, 0, 53, 73
2, 162816, Note_on_c, 0, 55, 80
2, 163004, Note_off_c, 0, 55, 73
2, 163008, Note_on_c, 0, 57, 80
2, 163196, Note_off_c, 0, 57, 73
2, 163200, Note_on_c, 0, 58, 80
2, 163388, Note_off_c, 0, 58, 73
2, 163584, Note_on_c, 0, 58, 80
2, 163772, Note_off_c, 0, 58, 73
2, 163968, Note_on_c, 0, 60, 80
2, 164156, Note_off_c, 0, 60, 73
2, 164352, Note_on_c, 0, 63, 80
2, 164732, Note_off_c, 0, 63, 73
2, 164736, Note_on_c, 0, 62, 80
2, 165116, Note_off_c, 0, 62, 73
2, 165504, Note_on_c, 0, 65, 80
2, 166076, Note_off_c, 0, 65, 73
2, 166080, Note_on_c, 0, 63, 80
2, 166268, Note_off_c, 0, 63, 73
2, 166272, Note_on_c, 0, 62, 80
2, 166652, Note_off_c, 0, 62, 73
2, 166656, Note_on_c, 0, 62, 80
2, 167036, Note_off_c, 0, 62, 73
2, 167040, Note_on_c, 0, 60, 80
2, 167420, Note_off_c, 0, 60, 73
2, 167424, Note_on_c, 0, 60, 80
2, 167612, Note_off_c, 0, 60, 73
2, 167808, Note_on_c, 0, 60, 80
2, 168188, Note_off_c, 0, 60, 73
2, 168192, Note_on_c, 0, 62, 80
2, 168572, Note_off_c, 0, 62, 73
2, 168576, Note_on_c, 0, 63, 80
2, 168956, Note_off_c, 0, 63, 73
2, 168960, Note_on_c, 0, 62, 80
2, 169340, Note_off_c, 0, 62, 73
2, 169344, Note_on_c, 0, 60, 80
2, 169724, Note_off_c, 0, 60, 73
2, 171264, Note_on_c, 0, 66, 127
2, 171836, Note_off_c, 0, 66, 73
2, 171840, Note_on_c, 0, 65, 127
2, 172028, Note_off_c, 0, 65, 73
2, 172032, Note_on_c, 0, 63, 127
2, 172412, Note_off_c, 0, 63, 73
2, 172416, Note_on_c, 0, 63, 127
2, 172796, Note_off_c, 0, 63, 73
2, 172800, Note_on_c, 0, 62, 127
2, 173180, Note_off_c, 0, 62, 73
2, 173184, Note_on_c, 0, 62, 127
2, 173372, Note_off_c, 0, 62, 73
2, 173568, Note_on_c, 0, 70, 127
2, 174140, Note_off_c, 0, 70, 73
2, 174144, Note_on_c, 0, 68, 127
2, 174336, Note_on_c, 0, 66, 127
2, 174428, Note_off_c, 0, 68, 73
2, 174716, Note_off_c, 0, 66, 73
2, 174720, Note_on_c, 0, 66, 127
2, 175100, Note_off_c, 0, 66, 73
2, 175104, Note_on_c, 0, 65, 127
2, 175484, Note_off_c, 0, 65, 73
2, 175488, Note_on_c, 0, 65, 127
2, 175676, Note_off_c, 0, 65, 73
2, 175872, Note_on_c, 0, 65, 127
2, 178560, Note_on_c, 0, 66, 86
2, 178748, Note_off_c, 0, 65, 73
2, 178940, Note_off_c, 0, 66, 73
2, 178944, Note_on_c, 0, 66, 86
2, 179132, Note_off_c, 0, 66, 73
2, 179328, Note_on_c, 0, 66, 74
2, 179708, Note_off_c, 0, 66, 73
2, 179712, Note_on_c, 0, 65, 74
2, 180092, Note_off_c, 0, 65, 73
2, 180096, Note_on_c, 0, 65, 74
2, 180284, Note_off_c, 0, 65, 73
2, 180480, Note_on_c, 0, 65, 74
2, 181628, Note_off_c, 0, 65, 73
2, 181632, Note_on_c, 0, 50, 86
2, 183932, Note_off_c, 0, 50, 73
2, 183936, Note_on_c, 0, 51, 98
2, 185084, Note_off_c, 0, 51, 73
2, 185088, Note_on_c, 0, 52, 105
2, 186236, Note_off_c, 0, 52, 73
2, 186240, Note_on_c, 0, 53, 111
2, 187004, Note_off_c, 0, 53, 73
2, 187392, Note_on_c, 0, 54, 118
2, 188540, Note_off_c, 0, 54, 73
2, 188544, Note_on_c, 0, 55, 125
2, 188924, Note_off_c, 0, 55, 73
2, 189312, Note_on_c, 0, 57, 127
2, 189500, Note_off_c, 0, 57, 73
2, 189696, Note_on_c, 0, 58, 127
2, 189884, Note_off_c, 0, 58, 73
2, 190464, Note_on_c, 0, 61, 127
2, 190652, Note_off_c, 0, 61, 73
2, 190848, Note_on_c, 0, 62, 127
2, 191996, Note_off_c, 0, 62, 73
2, 192000, Note_on_c, 0, 50, 127
2, 193148, Note_off_c, 0, 50, 73
2, 193152, Note_on_c, 0, 51, 127
2, 194300, Note_off_c, 0, 51, 73
2, 194304, Note_on_c, 0, 39, 127
2, 195452, Note_off_c, 0, 39, 73
2, 195456, Note_on_c, 0, 41, 127
2, 195836, Note_off_c, 0, 41, 73
2, 196224, Note_on_c, 0, 53, 127
2, 196604, Note_off_c, 0, 53, 73
2, 196608, Note_on_c, 0, 53, 127
2, 196988, Note_off_c, 0, 53, 73
2, 197376, Note_on_c, 0, 65, 127
2, 197756, Note_off_c, 0, 65, 73
2, 197760, Note_on_c, 0, 62, 127
2, 198140, Note_off_c, 0, 62, 73
2, 198144, Note_on_c, 0, 65, 127
2, 198524, Note_off_c, 0, 65, 73
2, 198528, Note_on_c, 0, 58, 127
2, 198716, Note_off_c, 0, 58, 73
2, 198912, Note_on_c, 0, 58, 127
2, 199292, Note_off_c, 0, 58, 73
2, 199296, Note_on_c, 0, 62, 127
2, 199676, Note_off_c, 0, 62, 73
2, 199680, Note_on_c, 0, 53, 127
2, 199868, Note_off_c, 0, 53, 73
2, 200064, Note_on_c, 0, 55, 127
2, 200444, Note_off_c, 0, 55, 73
2, 200448, Note_on_c, 0, 58, 127
2, 200828, Note_off_c, 0, 58, 73
2, 200832, Note_on_c, 0, 53, 127
2, 201020, Note_off_c, 0, 53, 73
2, 201216, Note_on_c, 0, 51, 127
2, 201596, Note_off_c, 0, 51, 73
2, 201600, Note_on_c, 0, 55, 127
2, 201980, Note_off_c, 0, 55, 73
2, 201984, Note_on_c, 0, 48, 127
2, 202172, Note_off_c, 0, 48, 73
2, 202368, Note_on_c, 0, 45, 127
2, 202748, Note_off_c, 0, 45, 73
2, 202752, Note_on_c, 0, 58, 127
2, 202940, Note_off_c, 0, 58, 73
2, 203136, Note_on_c, 0, 58, 127
2, 203324, Note_off_c, 0, 58, 73
2, 203520, Note_on_c, 0, 57, 127
2, 204284, Note_off_c, 0, 57, 73
2, 204288, Note_on_c, 0, 60, 127
2, 204668, Note_off_c, 0, 60, 73
2, 204672, Note_on_c, 0, 58, 127
2, 205052, Note_off_c, 0, 58, 73
2, 215808, Note_on_c, 0, 63, 86
2, 215996, Note_off_c, 0, 63, 73
2, 216000, Note_on_c, 0, 62, 86
2, 216188, Note_off_c, 0, 62, 73
2, 216192, Note_on_c, 0, 60, 86
2, 216572, Note_off_c, 0, 60, 73
2, 216576, Note_on_c, 0, 65, 86
2, 216956, Note_off_c, 0, 65, 73
2, 216960, Note_on_c, 0, 65, 86
2, 217148, Note_off_c, 0, 65, 73
2, 217344, Note_on_c, 0, 65, 86
2, 217724, Note_off_c, 0, 65, 73
2, 217728, Note_on_c, 0, 58, 86
2, 218108, Note_off_c, 0, 58, 73
2, 218112, Note_on_c, 0, 63, 86
2, 218300, Note_off_c, 0, 63, 73
2, 218304, Note_on_c, 0, 62, 86
2, 218492, Note_off_c, 0, 62, 73
2, 218496, Note_on_c, 0, 60, 86
2, 218876, Note_off_c, 0, 60, 73
2, 218880, Note_on_c, 0, 65, 86
2, 219260, Note_off_c, 0, 65, 73
2, 219264, Note_on_c, 0, 65, 86
2, 219452, Note_off_c, 0, 65, 73
2, 219648, Note_on_c, 0, 65, 86
2, 220028, Note_off_c, 0, 65, 73
2, 220032, Note_on_c, 0, 58, 86
2, 220412, Note_off_c, 0, 58, 73
2, 220416, Note_on_c, 0, 63, 86
2, 220604, Note_off_c, 0, 63, 73
2, 220608, Note_on_c, 0, 62, 86
2, 220796, Note_off_c, 0, 62, 73
2, 220800, Note_on_c, 0, 60, 86
2, 221180, Note_off_c, 0, 60, 73
2, 221184, Note_on_c, 0, 65, 86
2, 221564, Note_off_c, 0, 65, 73
2, 221568, Note_on_c, 0, 65, 86
2, 221756, Note_off_c, 0, 65, 73
2, 221952, Note_on_c, 0, 65, 86
2, 225788, Note_off_c, 0, 65, 73
2, 228864, Note_on_c, 0, 53, 127
2, 229052, Note_off_c, 0, 53, 73
2, 229632, Note_on_c, 0, 47, 127
2, 229820, Note_off_c, 0, 47, 73
2, 230016, Note_on_c, 0, 48, 127
2, 230204, Note_off_c, 0, 48, 73
2, 231168, Note_on_c, 0, 51, 127
2, 231356, Note_off_c, 0, 51, 73
2, 231936, Note_on_c, 0, 45, 127
2, 232124, Note_off_c, 0, 45, 73
2, 232320, Note_on_c, 0, 46, 127
2, 232508, Note_off_c, 0, 46, 73
2, 233856, Note_on_c, 0, 65, 127
2, 234236, Note_off_c, 0, 65, 73
2, 234240, Note_on_c, 0, 65, 127
2, 234620, Note_off_c, 0, 65, 73
2, 234624, Note_on_c, 0, 68, 86
2, 235772, Note_off_c, 0, 68, 73
2, 235776, Note_on_c, 0, 67, 86
2, 236924, Note_off_c, 0, 67, 73
2, 236928, Note_on_c, 0, 66, 94
2, 243452, Note_off_c, 0, 66, 73
2, 243456, Note_on_c, 0, 65, 127
2, 243836, Note_off_c, 0, 65, 73
2, 243840, Note_on_c, 0, 63, 127
2, 244220, Note_off_c, 0, 63, 73
2, 244224, Note_on_c, 0, 65, 119
2, 244604, Note_off_c, 0, 65, 73
2, 244608, Note_on_c, 0, 67, 105
2, 244988, Note_off_c, 0, 67, 73
2, 244992, Note_on_c, 0, 58, 86
2, 245756, Note_off_c, 0, 58, 73
2, 245760, Note_on_c, 0, 60, 86
2, 245948, Note_off_c, 0, 60, 73
2, 245952, Note_on_c, 0, 57, 86
2, 246140, Note_off_c, 0, 57, 73
2, 246144, Note_on_c, 0, 58, 86
2, 246524, Note_off_c, 0, 58, 73
2, 248064, Note_on_c, 0, 46, 92
2, 248320, Note_off_c, 0, 46, 73
2, 248448, Note_on_c, 0, 46, 92
2, 248576, Note_off_c, 0, 46, 73
2, 248832, Note_on_c, 0, 46, 92
2, 248960, Note_off_c, 0, 46, 73
2, 249216, Note_on_c, 0, 46, 92
2, 249344, Note_off_c, 0, 46, 73
2, 249600, Note_on_c, 0, 46, 92
2, 249728, Note_off_c, 0, 46, 73
2, 249984, Note_on_c, 0, 46, 92
2, 250112, Note_off_c, 0, 46, 73
2, 250368, Note_on_c, 0, 46, 92
2, 250496, Note_off_c, 0, 46, 73
2, 250752, Note_on_c, 0, 46, 92
2, 251264, Note_off_c, 0, 46, 73
2, 251520, Note_on_c, 0, 46, 86
2, 251648, Note_off_c, 0, 46, 73
2, 251712, Note_on_c, 0, 48, 88
2, 251840, Note_off_c, 0, 48, 73
2, 251904, Note_on_c, 0, 50, 92
2, 252032, Note_off_c, 0, 50, 73
2, 252288, Note_on_c, 0, 51, 98
2, 252416, Note_off_c, 0, 51, 73
2, 252672, Note_on_c, 0, 53, 104
2, 252800, Note_off_c, 0, 53, 73
2, 253056, Note_on_c, 0, 55, 111
2, 253184, Note_off_c, 0, 55, 73
2, 253440, Note_on_c, 0, 57, 117
2, 253568, Note_off_c, 0, 57, 73
2, 253824, Note_on_c, 0, 58, 124
2, 253952, Note_off_c, 0, 58, 73
2, 254208, Note_on_c, 0, 60, 127
2, 254336, Note_off_c, 0, 60, 73
2, 254592, Note_on_c, 0, 62, 127
2, 254720, Note_off_c, 0, 62, 73
2, 254976, Note_on_c, 0, 63, 127
2, 255104, Note_off_c, 0, 63, 73
2, 255360, Note_on_c, 0, 62, 127
2, 255488, Note_off_c, 0, 62, 73
2, 256896, Note_on_c, 0, 64, 127
2, 257024, Note_off_c, 0, 64, 73
2, 257088, Note_on_c, 0, 65, 127
2, 257216, Note_off_c, 0, 65, 73
2, 257280, Note_on_c, 0, 64, 127
2, 257408, Note_off_c, 0, 64, 73
2, 257472, Note_on_c, 0, 65, 127
2, 257600, Note_off_c, 0, 65, 73
2, 257664, Note_on_c, 0, 65, 127
2, 259200, Note_on_c, 0, 63, 127
2, 259388, Note_off_c, 0, 63, 73
2, 259392, Note_on_c, 0, 65, 127
2, 259580, Note_off_c, 0, 65, 73
2, 259580, Note_off_c, 0, 65, 73
2, 259584, Note_on_c, 0, 67, 127
2, 259772, Note_off_c, 0, 67, 73
2, 259776, Note_on_c, 0, 65, 127
2, 259964, Note_off_c, 0, 65, 73
2, 259968, Note_on_c, 0, 65, 127
2, 261312, Note_on_c, 0, 65, 127
2, 261404, Note_off_c, 0, 65, 73
2, 261504, Note_on_c, 0, 64, 127
2, 261596, Note_off_c, 0, 65, 73
2, 261696, Note_on_c, 0, 65, 127
2, 261788, Note_off_c, 0, 64, 73
2, 261888, Note_on_c, 0, 67, 127
2, 261980, Note_off_c, 0, 65, 73
2, 262080, Note_on_c, 0, 69, 127
2, 262172, Note_off_c, 0, 67, 73
2, 262268, Note_off_c, 0, 69, 73
2, 262272, Note_on_c, 0, 70, 127
2, 262528, Note_off_c, 0, 70, 73
2, 262656, Note_on_c, 0, 70, 127
2, 262912, Note_off_c, 0, 70, 73
2, 263040, Note_on_c, 0, 70, 127
2, 263296, Note_off_c, 0, 70, 73
2, 263424, Note_on_c, 0, 70, 127
2, 263680, Note_off_c, 0, 70, 73
2, 266112, Note_on_c, 0, 67, 126
2, 266368, Note_off_c, 0, 67, 73
2, 266496, Note_on_c, 0, 67, 126
2, 266752, Note_off_c, 0, 67, 73
2, 266880, Note_on_c, 0, 67, 126
2, 268416, Note_on_c, 0, 65, 126
2, 268544, Note_off_c, 0, 65, 73
2, 268608, Note_on_c, 0, 67, 126
2, 268736, Note_off_c, 0, 67, 73
2, 268736, Note_off_c, 0, 67, 73
2, 268800, Note_on_c, 0, 68, 126
2, 268928, Note_off_c, 0, 68, 73
2, 268992, Note_on_c, 0, 67, 126
2, 269120, Note_off_c, 0, 67, 73
2, 269184, Note_on_c, 0, 67, 126
2, 270716, Note_off_c, 0, 67, 73
2, 271104, Note_on_c, 0, 57, 126
2, 271292, Note_off_c, 0, 57, 73
2, 271296, Note_on_c, 0, 59, 126
2, 271484, Note_off_c, 0, 59, 73
2, 271488, Note_on_c, 0, 60, 126
2, 271676, Note_off_c, 0, 60, 73
2, 271872, Note_on_c, 0, 55, 126
2, 272060, Note_off_c, 0, 55, 73
2, 272256, Note_on_c, 0, 63, 126
2, 272444, Note_off_c, 0, 63, 73
2, 272640, Note_on_c, 0, 63, 126
2, 273404, Note_off_c, 0, 63, 73
2, 273408, Note_on_c, 0, 62, 126
2, 273596, Note_off_c, 0, 62, 73
2, 273600, Note_on_c, 0, 60, 126
2, 273788, Note_off_c, 0, 60, 73
2, 273792, Note_on_c, 0, 60, 126
2, 274172, Note_off_c, 0, 60, 73
2, 274176, Note_on_c, 0, 59, 126
2, 274556, Note_off_c, 0, 59, 73
2, 274560, Note_on_c, 0, 65, 126
2, 274748, Note_off_c, 0, 65, 73
2, 274944, Note_on_c, 0, 65, 126
2, 275708, Note_off_c, 0, 65, 73
2, 275712, Note_on_c, 0, 63, 126
2, 275900, Note_off_c, 0, 63, 73
2, 275904, Note_on_c, 0, 62, 126
2, 276092, Note_off_c, 0, 62, 73
2, 276096, Note_on_c, 0, 60, 126
2, 276476, Note_off_c, 0, 60, 73
2, 277632, Note_on_c, 0, 43, 127
2, 277820, Note_off_c, 0, 43, 73
2, 278016, Note_on_c, 0, 48, 127
2, 278204, Note_off_c, 0, 48, 73
2, 278400, Note_on_c, 0, 50, 127
2, 279164, Note_off_c, 0, 50, 73
2, 279936, Note_on_c, 0, 43, 127
2, 280124, Note_off_c, 0, 43, 73
2, 280320, Note_on_c, 0, 55, 127
2, 280508, Note_off_c, 0, 55, 73
2, 280704, Note_on_c, 0, 48, 127
2, 280892, Note_off_c, 0, 48, 73
2, 281856, Note_on_c, 0, 58, 127
2, 282236, Note_off_c, 0, 58, 73
2, 283008, Note_on_c, 0, 56, 127
2, 283388, Note_off_c, 0, 56, 73
2, 284160, Note_on_c, 0, 51, 127
2, 284540, Note_off_c, 0, 51, 73
2, 285312, Note_on_c, 0, 56, 127
2, 285500, Note_off_c, 0, 56, 73
2, 285696, Note_on_c, 0, 51, 127
2, 286076, Note_off_c, 0, 51, 73
2, 286080, Note_on_c, 0, 60, 127
2, 286460, Note_off_c, 0, 60, 73
2, 286464, Note_on_c, 0, 60, 127
2, 287228, Note_off_c, 0, 60, 73
2, 287232, Note_on_c, 0, 58, 127
2, 287420, Note_off_c, 0, 58, 73
2, 287424, Note_on_c, 0, 56, 127
2, 287612, Note_off_c, 0, 56, 73
2, 287616, Note_on_c, 0, 56, 127
2, 287996, Note_off_c, 0, 56, 73
2, 288000, Note_on_c, 0, 55, 127
2, 288380, Note_off_c, 0, 55, 73
2, 288384, Note_on_c, 0, 61, 127
2, 288764, Note_off_c, 0, 61, 73
2, 288768, Note_on_c, 0, 61, 127
2, 289532, Note_off_c, 0, 61, 73
2, 289536, Note_on_c, 0, 60, 127
2, 289724, Note_off_c, 0, 60, 73
2, 289728, Note_on_c, 0, 58, 127
2, 289916, Note_off_c, 0, 58, 73
2, 289920, Note_on_c, 0, 56, 127
2, 290300, Note_off_c, 0, 56, 73
2, 291456, Note_on_c, 0, 44, 127
2, 291836, Note_off_c, 0, 44, 73
2, 291840, Note_on_c, 0, 48, 127
2, 292220, Note_off_c, 0, 48, 73
2, 292224, Note_on_c, 0, 51, 127
2, 292412, Note_off_c, 0, 51, 73
2, 293760, Note_on_c, 0, 39, 127
2, 293948, Note_off_c, 0, 39, 73
2, 294144, Note_on_c, 0, 39, 127
2, 294332, Note_off_c, 0, 39, 73
2, 294528, Note_on_c, 0, 44, 127
2, 294716, Note_off_c, 0, 44, 73
2, 295680, Note_on_c, 0, 60, 127
2, 296828, Note_off_c, 0, 60, 73
2, 296832, Note_on_c, 0, 63, 127
2, 298364, Note_off_c, 0, 63, 73
2, 298368, Note_on_c, 0, 53, 127
2, 298556, Note_off_c, 0, 53, 73
2, 298752, Note_on_c, 0, 65, 127
2, 298940, Note_off_c, 0, 65, 73
2, 299136, Note_on_c, 0, 58, 127
2, 299324, Note_off_c, 0, 58, 73
2, 300288, Note_on_c, 0, 62, 127
2, 301052, Note_off_c, 0, 62, 73
2, 301440, Note_on_c, 0, 65, 127
2, 302972, Note_off_c, 0, 65, 73
2, 302976, Note_on_c, 0, 55, 127
2, 303164, Note_off_c, 0, 55, 73
2, 303360, Note_on_c, 0, 67, 127
2, 303548, Note_off_c, 0, 67, 73
2, 303744, Note_on_c, 0, 60, 127
2, 303932, Note_off_c, 0, 60, 73
2, 304896, Note_on_c, 0, 64, 127
2, 306428, Note_off_c, 0, 64, 73
2, 307584, Note_on_c, 0, 49, 127
2, 307772, Note_off_c, 0, 49, 73
2, 307968, Note_on_c, 0, 57, 127
2, 308156, Note_off_c, 0, 57, 73
2, 308352, Note_on_c, 0, 57, 127
2, 309884, Note_off_c, 0, 57, 73
2, 309888, Note_on_c, 0, 50, 127
2, 310076, Note_off_c, 0, 50, 73
2, 310272, Note_on_c, 0, 57, 127
2, 310460, Note_off_c, 0, 57, 73
2, 310656, Note_on_c, 0, 57, 127
2, 312188, Note_off_c, 0, 57, 73
2, 312192, Note_on_c, 0, 52, 127
2, 312380, Note_off_c, 0, 52, 73
2, 312576, Note_on_c, 0, 61, 127
2, 312764, Note_off_c, 0, 61, 73
2, 312960, Note_on_c, 0, 53, 127
2, 313148, Note_off_c, 0, 53, 73
2, 313344, Note_on_c, 0, 62, 127
2, 313532, Note_off_c, 0, 62, 73
2, 314496, Note_on_c, 0, 53, 127
2, 314684, Note_off_c, 0, 53, 73
2, 314880, Note_on_c, 0, 62, 127
2, 315260, Note_off_c, 0, 62, 73
2, 315264, Note_on_c, 0, 55, 127
2, 315452, Note_off_c, 0, 55, 73
2, 315648, Note_on_c, 0, 62, 127
2, 316796, Note_off_c, 0, 62, 73
2, 316800, Note_on_c, 0, 61, 92
2, 317180, Note_off_c, 0, 61, 73
2, 317184, Note_on_c, 0, 62, 92
2, 317564, Note_off_c, 0, 62, 73
2, 317568, Note_on_c, 0, 62, 92
2, 317948, Note_off_c, 0, 62, 73
2, 318720, Note_on_c, 0, 57, 92
2, 319100, Note_off_c, 0, 57, 73
2, 319872, Note_on_c, 0, 62, 80
2, 320060, Note_off_c, 0, 62, 73
2, 320640, Note_on_c, 0, 62, 80
2, 320828, Note_off_c, 0, 62, 73
2, 321024, Note_on_c, 0, 65, 80
2, 321212, Note_off_c, 0, 65, 73
2, 321792, Note_on_c, 0, 62, 80
2, 321980, Note_off_c, 0, 62, 73
2, 322176, Note_on_c, 0, 67, 80
2, 322460, Note_off_c, 0, 67, 73
2, 322752, Note_on_c, 0, 65, 80
2, 322940, Note_off_c, 0, 65, 73
2, 322944, Note_on_c, 0, 64, 80
2, 323132, Note_off_c, 0, 64, 73
2, 323136, Note_on_c, 0, 62, 80
2, 323324, Note_off_c, 0, 62, 73
2, 323328, Note_on_c, 0, 61, 80
2, 323708, Note_off_c, 0, 61, 73
2, 324096, Note_on_c, 0, 64, 80
2, 324476, Note_off_c, 0, 64, 73
2, 324480, Note_on_c, 0, 69, 80
2, 324860, Note_off_c, 0, 69, 73
2, 325248, Note_on_c, 0, 69, 80
2, 325628, Note_off_c, 0, 69, 73
2, 325632, Note_on_c, 0, 69, 80
2, 326012, Note_off_c, 0, 69, 73
2, 326016, Note_on_c, 0, 69, 80
2, 326396, Note_off_c, 0, 69, 73
2, 326400, Note_on_c, 0, 69, 80
2, 326780, Note_off_c, 0, 69, 73
2, 326784, Note_on_c, 0, 69, 80
2, 327548, Note_off_c, 0, 69, 73
2, 327552, Note_on_c, 0, 71, 80
2, 327740, Note_off_c, 0, 71, 73
2, 327744, Note_on_c, 0, 73, 80
2, 327932, Note_off_c, 0, 73, 73
2, 327936, Note_on_c, 0, 74, 80
2, 328316, Note_off_c, 0, 74, 73
2, 329088, Note_on_c, 0, 55, 109
2, 329276, Note_off_c, 0, 55, 73
2, 329280, Note_on_c, 0, 62, 109
2, 329468, Note_off_c, 0, 62, 73
2, 329472, Note_on_c, 0, 58, 109
2, 329660, Note_off_c, 0, 58, 73
2, 329664, Note_on_c, 0, 62, 109
2, 329852, Note_off_c, 0, 62, 73
2, 329856, Note_on_c, 0, 55, 109
2, 330044, Note_off_c, 0, 55, 73
2, 330048, Note_on_c, 0, 62, 109
2, 330236, Note_off_c, 0, 62, 73
2, 330240, Note_on_c, 0, 55, 109
2, 330428, Note_off_c, 0, 55, 73
2, 330432, Note_on_c, 0, 62, 109
2, 330620, Note_off_c, 0, 62, 73
2, 330624, Note_on_c, 0, 58, 109
2, 330812, Note_off_c, 0, 58, 73
2, 330816, Note_on_c, 0, 62, 109
2, 331004, Note_off_c, 0, 62, 73
2, 331008, Note_on_c, 0, 55, 109
2, 331196, Note_off_c, 0, 55, 73
2, 331200, Note_on_c, 0, 62, 109
2, 331388, Note_off_c, 0, 62, 73
2, 331392, Note_on_c, 0, 57, 109
2, 331580, Note_off_c, 0, 57, 73
2, 331584, Note_on_c, 0, 62, 109
2, 331772, Note_off_c, 0, 62, 73
2, 331776, Note_on_c, 0, 60, 109
2, 331964, Note_off_c, 0, 60, 73
2, 331968, Note_on_c, 0, 62, 109
2, 332156, Note_off_c, 0, 62, 73
2, 332160, Note_on_c, 0, 57, 109
2, 332348, Note_off_c, 0, 57, 73
2, 332352, Note_on_c, 0, 62, 109
2, 332540, Note_off_c, 0, 62, 73
2, 332544, Note_on_c, 0, 57, 109
2, 332732, Note_off_c, 0, 57, 73
2, 332736, Note_on_c, 0, 62, 109
2, 332924, Note_off_c, 0, 62, 73
2, 332928, Note_on_c, 0, 60, 109
2, 333116, Note_off_c, 0, 60, 73
2, 333120, Note_on_c, 0, 62, 109
2, 333308, Note_off_c, 0, 62, 73
2, 333312, Note_on_c, 0, 57, 109
2, 333500, Note_off_c, 0, 57, 73
2, 333504, Note_on_c, 0, 62, 109
2, 333692, Note_off_c, 0, 62, 73
2, 333696, Note_on_c, 0, 54, 109
2, 333884, Note_off_c, 0, 54, 73
2, 333888, Note_on_c, 0, 62, 109
2, 334076, Note_off_c, 0, 62, 73
2, 334080, Note_on_c, 0, 60, 109
2, 334268, Note_off_c, 0, 60, 73
2, 334272, Note_on_c, 0, 62, 109
2, 334460, Note_off_c, 0, 62, 73
2, 334464, Note_on_c, 0, 58, 109
2, 334652, Note_off_c, 0, 58, 73
2, 334656, Note_on_c, 0, 62, 109
2, 334844, Note_off_c, 0, 62, 73
2, 334848, Note_on_c, 0, 57, 109
2, 335036, Note_off_c, 0, 57, 73
2, 335040, Note_on_c, 0, 62, 109
2, 335228, Note_off_c, 0, 62, 73
2, 335232, Note_on_c, 0, 55, 109
2, 335420, Note_off_c, 0, 55, 73
2, 335424, Note_on_c, 0, 62, 109
2, 335612, Note_off_c, 0, 62, 73
2, 335616, Note_on_c, 0, 54, 109
2, 335804, Note_off_c, 0, 54, 73
2, 335808, Note_on_c, 0, 62, 109
2, 335996, Note_off_c, 0, 62, 73
2, 336000, Note_on_c, 0, 55, 109
2, 336188, Note_off_c, 0, 55, 73
2, 336192, Note_on_c, 0, 62, 109
2, 336380, Note_off_c, 0, 62, 73
2, 336384, Note_on_c, 0, 58, 109
2, 336572, Note_off_c, 0, 58, 73
2, 336576, Note_on_c, 0, 62, 109
2, 336764, Note_off_c, 0, 62, 73
2, 336768, Note_on_c, 0, 58, 109
2, 336956, Note_off_c, 0, 58, 73
2, 336960, Note_on_c, 0, 62, 109
2, 337148, Note_off_c, 0, 62, 73
2, 337152, Note_on_c, 0, 55, 126
2, 337408, Note_off_c, 0, 55, 73
2, 338304, Note_on_c, 0, 58, 92
2, 338492, Note_off_c, 0, 58, 73
2, 339072, Note_on_c, 0, 63, 92
2, 339260, Note_off_c, 0, 63, 73
2, 339456, Note_on_c, 0, 67, 92
2, 339644, Note_off_c, 0, 67, 73
2, 340224, Note_on_c, 0, 63, 92
2, 340412, Note_off_c, 0, 63, 73
2, 340608, Note_on_c, 0, 68, 115
2, 341180, Note_off_c, 0, 68, 73
2, 341184, Note_on_c, 0, 67, 115
2, 341372, Note_off_c, 0, 67, 73
2, 341376, Note_on_c, 0, 65, 115
2, 341564, Note_off_c, 0, 65, 73
2, 341568, Note_on_c, 0, 63, 115
2, 341756, Note_off_c, 0, 63, 73
2, 341760, Note_on_c, 0, 62, 115
2, 342140, Note_off_c, 0, 62, 73
2, 342528, Note_on_c, 0, 65, 115
2, 342908, Note_off_c, 0, 65, 73
2, 342912, Note_on_c, 0, 70, 115
2, 343100, Note_off_c, 0, 70, 73
2, 343680, Note_on_c, 0, 70, 115
2, 343868, Note_off_c, 0, 70, 73
2, 344064, Note_on_c, 0, 70, 115
2, 344252, Note_off_c, 0, 70, 73
2, 344448, Note_on_c, 0, 70, 115
2, 344636, Note_off_c, 0, 70, 73
2, 344832, Note_on_c, 0, 70, 115
2, 345020, Note_off_c, 0, 70, 73
2, 345216, Note_on_c, 0, 68, 115
2, 345596, Note_off_c, 0, 68, 73
2, 345600, Note_on_c, 0, 67, 115
2, 345980, Note_off_c, 0, 67, 73
2, 345984, Note_on_c, 0, 67, 115
2, 346172, Note_off_c, 0, 67, 73
2, 346752, Note_on_c, 0, 65, 115
2, 346940, Note_off_c, 0, 65, 73
2, 347136, Note_on_c, 0, 65, 115
2, 347324, Note_off_c, 0, 65, 73
2, 347520, Note_on_c, 0, 65, 115
2, 347900, Note_off_c, 0, 65, 73
2, 347904, Note_on_c, 0, 63, 115
2, 348284, Note_off_c, 0, 63, 73
2, 348288, Note_on_c, 0, 63, 115
2, 348476, Note_off_c, 0, 63, 73
2, 349056, Note_on_c, 0, 62, 115
2, 349244, Note_off_c, 0, 62, 73
2, 349440, Note_on_c, 0, 62, 115
2, 349628, Note_off_c, 0, 62, 73
2, 349824, Note_on_c, 0, 62, 115
2, 350204, Note_off_c, 0, 62, 73
2, 350208, Note_on_c, 0, 60, 115
2, 350588, Note_off_c, 0, 60, 73
2, 350592, Note_on_c, 0, 60, 115
2, 350780, Note_off_c, 0, 60, 73
2, 351360, Note_on_c, 0, 58, 115
2, 351548, Note_off_c, 0, 58, 73
2, 351744, Note_on_c, 0, 58, 115
2, 351932, Note_off_c, 0, 58, 73
2, 352128, Note_on_c, 0, 58, 115
2, 352508, Note_off_c, 0, 58, 73
2, 352512, Note_on_c, 0, 57, 115
2, 352892, Note_off_c, 0, 57, 73
2, 352896, Note_on_c, 0, 57, 115
2, 353084, Note_off_c, 0, 57, 73
2, 353280, Note_on_c, 0, 57, 115
2, 353660, Note_off_c, 0, 57, 73
2, 353664, Note_on_c, 0, 58, 115
2, 354044, Note_off_c, 0, 58, 73
2, 354048, Note_on_c, 0, 55, 115
2, 354428, Note_off_c, 0, 55, 73
2, 354432, Note_on_c, 0, 54, 115
2, 354812, Note_off_c, 0, 54, 73
2, 355200, Note_on_c, 0, 54, 115
2, 355388, Note_off_c, 0, 54, 73
2, 355584, Note_on_c, 0, 54, 127
2, 355964, Note_off_c, 0, 54, 73
2, 355968, Note_on_c, 0, 55, 127
2, 356348, Note_off_c, 0, 55, 73
2, 356352, Note_on_c, 0, 57, 127
2, 356540, Note_off_c, 0, 57, 73
2, 356736, Note_on_c, 0, 54, 127
2, 357116, Note_off_c, 0, 54, 73
2, 357120, Note_on_c, 0, 55, 127
2, 357500, Note_off_c, 0, 55, 73
2, 357504, Note_on_c, 0, 57, 127
2, 357692, Note_off_c, 0, 57, 73
2, 357888, Note_on_c, 0, 55, 127
2, 358652, Note_off_c, 0, 55, 73
2, 358656, Note_on_c, 0, 52, 127
2, 359036, Note_off_c, 0, 52, 73
2, 359040, Note_on_c, 0, 57, 127
2, 359420, Note_off_c, 0, 57, 73
2, 359808, Note_on_c, 0, 54, 127
2, 360188, Note_off_c, 0, 54, 73
2, 360192, Note_on_c, 0, 54, 127
2, 360572, Note_off_c, 0, 54, 73
2, 360576, Note_on_c, 0, 55, 127
2, 360956, Note_off_c, 0, 55, 73
2, 360960, Note_on_c, 0, 57, 127
2, 361148, Note_off_c, 0, 57, 73
2, 361344, Note_on_c, 0, 54, 127
2, 361724, Note_off_c, 0, 54, 73
2, 361728, Note_on_c, 0, 55, 127
2, 362108, Note_off_c, 0, 55, 73
2, 362112, Note_on_c, 0, 57, 127
2, 362300, Note_off_c, 0, 57, 73
2, 362496, Note_on_c, 0, 55, 127
2, 363260, Note_off_c, 0, 55, 73
2, 363264, Note_on_c, 0, 52, 127
2, 363644, Note_off_c, 0, 52, 73
2, 363648, Note_on_c, 0, 57, 127
2, 364028, Note_off_c, 0, 57, 73
2, 364416, Note_on_c, 0, 54, 127
2, 364796, Note_off_c, 0, 54, 73
2, 364800, Note_on_c, 0, 54, 127
2, 365180, Note_off_c, 0, 54, 73
2, 365184, Note_on_c, 0, 55, 127
2, 365564, Note_off_c, 0, 55, 73
2, 365568, Note_on_c, 0, 57, 127
2, 365756, Note_off_c, 0, 57, 73
2, 365952, Note_on_c, 0, 63, 127
2, 366332, Note_off_c, 0, 63, 73
2, 366336, Note_on_c, 0, 62, 127
2, 366716, Note_off_c, 0, 62, 73
2, 366720, Note_on_c, 0, 60, 127
2, 366908, Note_off_c, 0, 60, 73
2, 367104, Note_on_c, 0, 60, 127
2, 367484, Note_off_c, 0, 60, 73
2, 367488, Note_on_c, 0, 58, 127
2, 367868, Note_off_c, 0, 58, 73
2, 367872, Note_on_c, 0, 57, 127
2, 368060, Note_off_c, 0, 57, 73
2, 368256, Note_on_c, 0, 57, 127
2, 368636, Note_off_c, 0, 57, 73
2, 368640, Note_on_c, 0, 55, 126
2, 369020, Note_off_c, 0, 55, 73
2, 369024, Note_on_c, 0, 54, 115
2, 369212, Note_off_c, 0, 54, 73
2, 369408, Note_on_c, 0, 54, 127
2, 369788, Note_off_c, 0, 54, 73
2, 378240, Note_on_c, 0, 55, 127
2, 378620, Note_off_c, 0, 55, 73
2, 378624, Note_on_c, 0, 55, 127
2, 379388, Note_off_c, 0, 55, 73
2, 379392, Note_on_c, 0, 57, 127
2, 379580, Note_off_c, 0, 57, 73
2, 379584, Note_on_c, 0, 58, 127
2, 379772, Note_off_c, 0, 58, 73
2, 379776, Note_on_c, 0, 60, 127
2, 380156, Note_off_c, 0, 60, 73
2, 380160, Note_on_c, 0, 62, 127
2, 380540, Note_off_c, 0, 62, 73
2, 380544, Note_on_c, 0, 63, 127
2, 380924, Note_off_c, 0, 63, 73
2, 380928, Note_on_c, 0, 63, 92
2, 381308, Note_off_c, 0, 63, 73
2, 381312, Note_on_c, 0, 62, 92
2, 381692, Note_off_c, 0, 62, 73
2, 381696, Note_on_c, 0, 60, 92
2, 381884, Note_off_c, 0, 60, 73
2, 382080, Note_on_c, 0, 58, 92
2, 382460, Note_off_c, 0, 58, 73
2, 382464, Note_on_c, 0, 55, 92
2, 382844, Note_off_c, 0, 55, 73
2, 387456, Note_on_c, 0, 62, 80
2, 387836, Note_off_c, 0, 62, 73
2, 387840, Note_on_c, 0, 62, 80
2, 388220, Note_off_c, 0, 62, 73
2, 388224, Note_on_c, 0, 63, 80
2, 388604, Note_off_c, 0, 63, 73
2, 388608, Note_on_c, 0, 60, 80
2, 388988, Note_off_c, 0, 60, 73
2, 388992, Note_on_c, 0, 58, 80
2, 389372, Note_off_c, 0, 58, 73
2, 392064, Note_on_c, 0, 67, 80
2, 392444, Note_off_c, 0, 67, 73
2, 392448, Note_on_c, 0, 67, 80
2, 392828, Note_off_c, 0, 67, 73
2, 392832, Note_on_c, 0, 68, 80
2, 393212, Note_off_c, 0, 68, 73
2, 393216, Note_on_c, 0, 65, 80
2, 393596, Note_off_c, 0, 65, 73
2, 393600, Note_on_c, 0, 63, 80
2, 393980, Note_off_c, 0, 63, 73
2, 404352, Note_on_c, 0, 53, 96
2, 404732, Note_off_c, 0, 53, 73
2, 404736, Note_on_c, 0, 53, 101
2, 405116, Note_off_c, 0, 53, 73
2, 405120, Note_on_c, 0, 55, 106
2, 405884, Note_off_c, 0, 55, 73
2, 405888, Note_on_c, 0, 58, 117
2, 406268, Note_off_c, 0, 58, 73
2, 406656, Note_on_c, 0, 46, 127
2, 406844, Note_off_c, 0, 46, 73
2, 407040, Note_on_c, 0, 50, 127
2, 407228, Note_off_c, 0, 50, 73
2, 407424, Note_on_c, 0, 51, 127
2, 407612, Note_off_c, 0, 51, 73
2, 407808, Note_on_c, 0, 46, 127
2, 408188, Note_off_c, 0, 46, 73
2, 408192, Note_on_c, 0, 55, 127
2, 408572, Note_off_c, 0, 55, 73
2, 408576, Note_on_c, 0, 55, 127
2, 409148, Note_off_c, 0, 55, 73
2, 409152, Note_on_c, 0, 53, 127
2, 409344, Note_on_c, 0, 51, 127
2, 409436, Note_off_c, 0, 53, 73
2, 409724, Note_off_c, 0, 51, 73
2, 409728, Note_on_c, 0, 58, 127
2, 410300, Note_off_c, 0, 58, 73
2, 410304, Note_on_c, 0, 56, 127
2, 410492, Note_off_c, 0, 56, 73
2, 410496, Note_on_c, 0, 55, 127
2, 410876, Note_off_c, 0, 55, 73
2, 410880, Note_on_c, 0, 67, 127
2, 411452, Note_off_c, 0, 67, 73
2, 411456, Note_on_c, 0, 65, 127
2, 411648, Note_on_c, 0, 63, 127
2, 411740, Note_off_c, 0, 65, 73
2, 411836, Note_off_c, 0, 63, 73
2, 411840, Note_on_c, 0, 62, 127
2, 412028, Note_off_c, 0, 62, 73
2, 412032, Note_on_c, 0, 61, 127
2, 412796, Note_off_c, 0, 61, 73
2, 412800, Note_on_c, 0, 61, 127
2, 413180, Note_off_c, 0, 61, 73
2, 413184, Note_on_c, 0, 61, 127
2, 413564, Note_off_c, 0, 61, 73
2, 413568, Note_on_c, 0, 61, 127
2, 413948, Note_off_c, 0, 61, 73
2, 413952, Note_on_c, 0, 61, 127
2, 414332, Note_off_c, 0, 61, 73
2, 414336, Note_on_c, 0, 62, 127
2, 414524, Note_off_c, 0, 62, 73
2, 414528, Note_on_c, 0, 62, 127
2, 414716, Note_off_c, 0, 62, 73
2, 414720, Note_on_c, 0, 62, 127
2, 414908, Note_off_c, 0, 62, 73
2, 414912, Note_on_c, 0, 62, 127
2, 415100, Note_off_c, 0, 62, 73
2, 415104, Note_on_c, 0, 62, 127
2, 415292, Note_off_c, 0, 62, 73
2, 415296, Note_on_c, 0, 62, 127
2, 415484, Note_off_c, 0, 62, 73
2, 415488, Note_on_c, 0, 62, 127
2, 415676, Note_off_c, 0, 62, 73
2, 415680, Note_on_c, 0, 62, 127
2, 415868, Note_off_c, 0, 62, 73
2, 415872, Note_on_c, 0, 62, 127
2, 416060, Note_off_c, 0, 62, 73
2, 416064, Note_on_c, 0, 62, 127
2, 416252, Note_off_c, 0, 62, 73
2, 416256, Note_on_c, 0, 62, 127
2, 416444, Note_off_c, 0, 62, 73
2, 416448, Note_on_c, 0, 62, 127
2, 416636, Note_off_c, 0, 62, 73
2, 416640, Note_on_c, 0, 62, 127
2, 416828, Note_off_c, 0, 62, 73
2, 417024, Note_on_c, 0, 58, 127
2, 417212, Note_off_c, 0, 58, 73
2, 417408, Note_on_c, 0, 58, 127
2, 417596, Note_off_c, 0, 58, 73
2, 417792, Note_on_c, 0, 58, 127
2, 417980, Note_off_c, 0, 58, 73
2, 418176, Note_on_c, 0, 57, 127
2, 418364, Note_off_c, 0, 57, 73
2, 418560, Note_on_c, 0, 55, 127
2, 418748, Note_off_c, 0, 55, 73
2, 418944, Note_on_c, 0, 54, 127
2, 419132, Note_off_c, 0, 54, 73
2, 419328, Note_on_c, 0, 63, 127
2, 419900, Note_off_c, 0, 63, 73
2, 419904, Note_on_c, 0, 62, 127
2, 420092, Note_off_c, 0, 62, 73
2, 420096, Note_on_c, 0, 60, 127
2, 420284, Note_off_c, 0, 60, 73
2, 420480, Note_on_c, 0, 62, 127
2, 421052, Note_off_c, 0, 62, 73
2, 421056, Note_on_c, 0, 60, 127
2, 421244, Note_off_c, 0, 60, 73
2, 421248, Note_on_c, 0, 58, 127
2, 421436, Note_off_c, 0, 58, 73
2, 421632, Note_on_c, 0, 62, 127
2, 421820, Note_off_c, 0, 62, 73
2, 422016, Note_on_c, 0, 62, 127
2, 422204, Note_off_c, 0, 62, 73
2, 422400, Note_on_c, 0, 62, 127
2, 422780, Note_off_c, 0, 62, 73
2, 422784, Note_on_c, 0, 63, 127
2, 423164, Note_off_c, 0, 63, 73
2, 423168, Note_on_c, 0, 64, 127
2, 423548, Note_off_c, 0, 64, 73
2, 423552, Note_on_c, 0, 57, 127
2, 423740, Note_off_c, 0, 57, 73
2, 423936, Note_on_c, 0, 50, 127
2, 424124, Note_off_c, 0, 50, 73
2, 424320, Note_on_c, 0, 50, 127
2, 424508, Note_off_c, 0, 50, 73
2, 424704, Note_on_c, 0, 50, 127
2, 424892, Note_off_c, 0, 50, 73
2, 425088, Note_on_c, 0, 50, 127
2, 425276, Note_off_c, 0, 50, 73
2, 425472, Note_on_c, 0, 50, 127
2, 425660, Note_off_c, 0, 50, 73
2, 425856, Note_on_c, 0, 50, 86
2, 426236, Note_off_c, 0, 50, 73
2, 430464, Note_on_c, 0, 62, 86
2, 431996, Note_off_c, 0, 62, 73
2, 432000, Note_on_c, 0, 61, 86
2, 432188, Note_off_c, 0, 61, 73
2, 432192, Note_on_c, 0, 62, 86
2, 432380, Note_off_c, 0, 62, 73
2, 432384, Note_on_c, 0, 61, 86
2, 432572, Note_off_c, 0, 61, 73
2, 432576, Note_on_c, 0, 62, 86
2, 432764, Note_off_c, 0, 62, 73
2, 432768, Note_on_c, 0, 62, 86
2, 435452, Note_off_c, 0, 62, 73
2, 435456, Note_on_c, 0, 62, 86
2, 435712, Note_off_c, 0, 62, 73
2, 435840, Note_on_c, 0, 62, 86
2, 436096, Note_off_c, 0, 62, 73
2, 436224, Note_on_c, 0, 62, 86
2, 436480, Note_off_c, 0, 62, 73
2, 446592, Note_on_c, 0, 62, 86
2, 448124, Note_off_c, 0, 62, 73
2, 448320, Note_on_c, 0, 64, 86
2, 448508, Note_off_c, 0, 64, 73
2, 448512, Note_on_c, 0, 66, 86
2, 448700, Note_off_c, 0, 66, 73
2, 448704, Note_on_c, 0, 67, 86
2, 448892, Note_off_c, 0, 67, 73
2, 448896, Note_on_c, 0, 69, 86
2, 449084, Note_off_c, 0, 69, 73
2, 449280, Note_on_c, 0, 69, 86
2, 449660, Note_off_c, 0, 69, 73
2, 449664, Note_on_c, 0, 71, 86
2, 450044, Note_off_c, 0, 71, 73
2, 450048, Note_on_c, 0, 74, 86
2, 450428, Note_off_c, 0, 74, 73
2, 450432, Note_on_c, 0, 72, 86
2, 450812, Note_off_c, 0, 72, 73
2, 451200, Note_on_c, 0, 62, 86
2, 453116, Note_off_c, 0, 62, 73
2, 453120, Note_on_c, 0, 64, 86
2, 453308, Note_off_c, 0, 64, 73
2, 453312, Note_on_c, 0, 66, 86
2, 453500, Note_off_c, 0, 66, 73
2, 453504, Note_on_c, 0, 67, 86
2, 453692, Note_off_c, 0, 67, 73
2, 453888, Note_on_c, 0, 67, 86
2, 454076, Note_off_c, 0, 67, 73
2, 454272, Note_on_c, 0, 69, 86
2, 454460, Note_off_c, 0, 69, 73
2, 454656, Note_on_c, 0, 72, 86
2, 455036, Note_off_c, 0, 72, 73
2, 455040, Note_on_c, 0, 71, 86
2, 455420, Note_off_c, 0, 71, 73
2, 455808, Note_on_c, 0, 74, 86
2, 456380, Note_off_c, 0, 74, 73
2, 456384, Note_on_c, 0, 72, 86
2, 456572, Note_off_c, 0, 72, 73
2, 456576, Note_on_c, 0, 71, 86
2, 456956, Note_off_c, 0, 71, 73
2, 456960, Note_on_c, 0, 71, 86
2, 457340, Note_off_c, 0, 71, 73
2, 457344, Note_on_c, 0, 69, 86
2, 457724, Note_off_c, 0, 69, 73
2, 457728, Note_on_c, 0, 69, 86
2, 457916, Note_off_c, 0, 69, 73
2, 458112, Note_on_c, 0, 69, 86
2, 458492, Note_off_c, 0, 69, 73
2, 458496, Note_on_c, 0, 71, 86
2, 458876, Note_off_c, 0, 71, 73
2, 458880, Note_on_c, 0, 72, 86
2, 459260, Note_off_c, 0, 72, 73
2, 459264, Note_on_c, 0, 71, 86
2, 459644, Note_off_c, 0, 71, 73
2, 459648, Note_on_c, 0, 69, 86
2, 460028, Note_off_c, 0, 69, 73
2, 461568, Note_on_c, 0, 63, 127
2, 462140, Note_off_c, 0, 63, 73
2, 462144, Note_on_c, 0, 62, 127
2, 462332, Note_off_c, 0, 62, 73
2, 462336, Note_on_c, 0, 60, 127
2, 462716, Note_off_c, 0, 60, 73
2, 462720, Note_on_c, 0, 60, 127
2, 463100, Note_off_c, 0, 60, 73
2, 463104, Note_on_c, 0, 59, 127
2, 463484, Note_off_c, 0, 59, 73
2, 463488, Note_on_c, 0, 59, 127
2, 463676, Note_off_c, 0, 59, 73
2, 463872, Note_on_c, 0, 67, 127
2, 464444, Note_off_c, 0, 67, 73
2, 464448, Note_on_c, 0, 65, 127
2, 464640, Note_on_c, 0, 63, 127
2, 464732, Note_off_c, 0, 65, 73
2, 465020, Note_off_c, 0, 63, 73
2, 465024, Note_on_c, 0, 63, 127
2, 465404, Note_off_c, 0, 63, 73
2, 465408, Note_on_c, 0, 62, 127
2, 465788, Note_off_c, 0, 62, 73
2, 465792, Note_on_c, 0, 62, 127
2, 465980, Note_off_c, 0, 62, 73
2, 466176, Note_on_c, 0, 62, 86
2, 468864, Note_on_c, 0, 63, 127
2, 469052, Note_off_c, 0, 62, 73
2, 469244, Note_off_c, 0, 63, 73
2, 469248, Note_on_c, 0, 63, 127
2, 469436, Note_off_c, 0, 63, 73
2, 469632, Note_on_c, 0, 63, 127
2, 470012, Note_off_c, 0, 63, 73
2, 470016, Note_on_c, 0, 62, 127
2, 470396, Note_off_c, 0, 62, 73
2, 470400, Note_on_c, 0, 62, 127
2, 470588, Note_off_c, 0, 62, 73
2, 470784, Note_on_c, 0, 62, 127
2, 471932, Note_off_c, 0, 62, 73
2, 471936, Note_on_c, 0, 47, 127
2, 474236, Note_off_c, 0, 47, 73
2, 474240, Note_on_c, 0, 48, 98
2, 475388, Note_off_c, 0, 48, 73
2, 475392, Note_on_c, 0, 49, 105
2, 476540, Note_off_c, 0, 49, 73
2, 476544, Note_on_c, 0, 50, 111
2, 477308, Note_off_c, 0, 50, 73
2, 477696, Note_on_c, 0, 51, 69
2, 478844, Note_off_c, 0, 51, 73
2, 478848, Note_on_c, 0, 52, 125
2, 479228, Note_off_c, 0, 52, 73
2, 479616, Note_on_c, 0, 54, 127
2, 479804, Note_off_c, 0, 54, 73
2, 480000, Note_on_c, 0, 55, 127
2, 480188, Note_off_c, 0, 55, 73
2, 480768, Note_on_c, 0, 58, 127
2, 480956, Note_off_c, 0, 58, 73
2, 481152, Note_on_c, 0, 58, 127
2, 482300, Note_off_c, 0, 58, 73
2, 482304, Note_on_c, 0, 46, 127
2, 483072, Note_on_c, 0, 47, 69
2, 483452, Note_off_c, 0, 46, 73
2, 483452, Note_off_c, 0, 47, 73
2, 483456, Note_on_c, 0, 48, 127
2, 484604, Note_off_c, 0, 48, 73
2, 484608, Note_on_c, 0, 36, 127
2, 485756, Note_off_c, 0, 36, 73
2, 485760, Note_on_c, 0, 38, 127
2, 486140, Note_off_c, 0, 38, 73
2, 486528, Note_on_c, 0, 50, 127
2, 486908, Note_off_c, 0, 50, 73
2, 486912, Note_on_c, 0, 50, 127
2, 487292, Note_off_c, 0, 50, 73
2, 487680, Note_on_c, 0, 62, 127
2, 488060, Note_off_c, 0, 62, 73
2, 488064, Note_on_c, 0, 58, 127
2, 488444, Note_off_c, 0, 58, 73
2, 488448, Note_on_c, 0, 62, 127
2, 488828, Note_off_c, 0, 62, 73
2, 488832, Note_on_c, 0, 55, 127
2, 489020, Note_off_c, 0, 55, 73
2, 489216, Note_on_c, 0, 55, 127
2, 489596, Note_off_c, 0, 55, 73
2, 489600, Note_on_c, 0, 58, 127
2, 489980, Note_off_c, 0, 58, 73
2, 489984, Note_on_c, 0, 50, 127
2, 490172, Note_off_c, 0, 50, 73
2, 490368, Note_on_c, 0, 51, 127
2, 490748, Note_off_c, 0, 51, 73
2, 490752, Note_on_c, 0, 55, 127
2, 491132, Note_off_c, 0, 55, 73
2, 491136, Note_on_c, 0, 50, 127
2, 491324, Note_off_c, 0, 50, 73
2, 491520, Note_on_c, 0, 48, 127
2, 491900, Note_off_c, 0, 48, 73
2, 491904, Note_on_c, 0, 51, 127
2, 492284, Note_off_c, 0, 51, 73
2, 492288, Note_on_c, 0, 45, 127
2, 492476, Note_off_c, 0, 45, 73
2, 492672, Note_on_c, 0, 42, 127
2, 493052, Note_off_c, 0, 42, 73
2, 493056, Note_on_c, 0, 55, 127
2, 493244, Note_off_c, 0, 55, 73
2, 493440, Note_on_c, 0, 55, 127
2, 493628, Note_off_c, 0, 55, 73
2, 493824, Note_on_c, 0, 54, 69
2, 494588, Note_off_c, 0, 54, 73
2, 494592, Note_on_c, 0, 57, 127
2, 494972, Note_off_c, 0, 57, 73
2, 494976, Note_on_c, 0, 67, 127
2, 495356, Note_off_c, 0, 67, 73
2, 506112, Note_on_c, 0, 60, 69
2, 506300, Note_off_c, 0, 60, 73
2, 506304, Note_on_c, 0, 58, 69
2, 506492, Note_off_c, 0, 58, 73
2, 506496, Note_on_c, 0, 57, 69
2, 506876, Note_off_c, 0, 57, 73
2, 506880, Note_on_c, 0, 62, 69
2, 507260, Note_off_c, 0, 62, 73
2, 507264, Note_on_c, 0, 62, 69
2, 507356, Note_off_c, 0, 62, 73
2, 507648, Note_on_c, 0, 62, 69
2, 508028, Note_off_c, 0, 62, 73
2, 508032, Note_on_c, 0, 55, 69
2, 508412, Note_off_c, 0, 55, 73
2, 508416, Note_on_c, 0, 60, 69
2, 508604, Note_off_c, 0, 60, 73
2, 508608, Note_on_c, 0, 58, 69
2, 508796, Note_off_c, 0, 58, 73
2, 508800, Note_on_c, 0, 57, 69
2, 509180, Note_off_c, 0, 57, 73
2, 509184, Note_on_c, 0, 62, 69
2, 509564, Note_off_c, 0, 62, 73
2, 509568, Note_on_c, 0, 62, 69
2, 509660, Note_off_c, 0, 62, 73
2, 509952, Note_on_c, 0, 62, 69
2, 510332, Note_off_c, 0, 62, 73
2, 510336, Note_on_c, 0, 55, 69
2, 510716, Note_off_c, 0, 55, 73
2, 510720, Note_on_c, 0, 61, 69
2, 510908, Note_off_c, 0, 61, 73
2, 510912, Note_on_c, 0, 60, 69
2, 511100, Note_off_c, 0, 60, 73
2, 511104, Note_on_c, 0, 58, 69
2, 511484, Note_off_c, 0, 58, 73
2, 511488, Note_on_c, 0, 63, 69
2, 511868, Note_off_c, 0, 63, 73
2, 511872, Note_on_c, 0, 63, 69
2, 511964, Note_off_c, 0, 63, 73
2, 512256, Note_on_c, 0, 63, 69
2, 512636, Note_off_c, 0, 63, 73
2, 512640, Note_on_c, 0, 56, 69
2, 513020, Note_off_c, 0, 56, 73
2, 513024, Note_on_c, 0, 61, 69
2, 513212, Note_off_c, 0, 61, 73
2, 513216, Note_on_c, 0, 60, 69
2, 513404, Note_off_c, 0, 60, 73
2, 513408, Note_on_c, 0, 58, 69
2, 513788, Note_off_c, 0, 58, 73
2, 513792, Note_on_c, 0, 63, 69
2, 514172, Note_off_c, 0, 63, 73
2, 514176, Note_on_c, 0, 63, 69
2, 514268, Note_off_c, 0, 63, 73
2, 514560, Note_on_c, 0, 63, 69
2, 518396, Note_off_c, 0, 63, 73
2, 524928, Note_on_c, 0, 60, 104
2, 526336, Note_off_c, 0, 60, 73
2, 526464, Note_on_c, 0, 63, 112
2, 526720, Note_off_c, 0, 63, 73
2, 526848, Note_on_c, 0, 63, 115
2, 526976, Note_off_c, 0, 63, 73
2, 527232, Note_on_c, 0, 57, 117
2, 527996, Note_off_c, 0, 57, 73
2, 528000, Note_on_c, 0, 58, 120
2, 528256, Note_off_c, 0, 58, 73
2, 528384, Note_on_c, 0, 60, 123
2, 528508, Note_off_c, 0, 60, 73
2, 528768, Note_on_c, 0, 63, 125
2, 528892, Note_off_c, 0, 63, 73
2, 529536, Note_on_c, 0, 57, 127
2, 529660, Note_off_c, 0, 57, 73
2, 529920, Note_on_c, 0, 60, 127
2, 530044, Note_off_c, 0, 60, 73
2, 530688, Note_on_c, 0, 58, 126
2, 531068, Note_off_c, 0, 58, 73
2, 532992, Note_on_c, 0, 42, 126
2, 534908, Note_off_c, 0, 42, 73
2, 534912, Note_on_c, 0, 43, 126
2, 535292, Note_off_c, 0, 43, 73
2, 535296, Note_on_c, 0, 44, 126
2, 536060, Note_off_c, 0, 44, 73
2, 536064, Note_on_c, 0, 43, 126
2, 536444, Note_off_c, 0, 43, 73
2, 537216, Note_on_c, 0, 43, 126
2, 537596, Note_off_c, 0, 43, 73
2, 537600, Note_on_c, 0, 44, 126
2, 538364, Note_off_c, 0, 44, 73
2, 538368, Note_on_c, 0, 43, 126
2, 538748, Note_off_c, 0, 43, 73
2, 538752, Note_on_c, 0, 42, 126
2, 539516, Note_off_c, 0, 42, 73
2, 539520, Note_on_c, 0, 43, 126
2, 539900, Note_off_c, 0, 43, 73
2, 539904, Note_on_c, 0, 48, 126
2, 540284, Note_off_c, 0, 48, 73
2, 541056, Note_on_c, 0, 50, 126
2, 541436, Note_off_c, 0, 50, 73
2, 542208, Note_on_c, 0, 43, 126
2, 542464, Note_off_c, 0, 43, 73
2, 544128, Note_on_c, 0, 62, 92
2, 544320, Note_off_c, 0, 62, 73
2, 544512, Note_on_c, 0, 62, 92
2, 544704, Note_off_c, 0, 62, 73
2, 544896, Note_on_c, 0, 62, 92
2, 545088, Note_off_c, 0, 62, 73
2, 545280, Note_on_c, 0, 62, 92
2, 545472, Note_off_c, 0, 62, 73
2, 545664, Note_on_c, 0, 62, 92
2, 545856, Note_off_c, 0, 62, 73
2, 546048, Note_on_c, 0, 62, 92
2, 546240, Note_off_c, 0, 62, 73
2, 546432, Note_on_c, 0, 62, 92
2, 546624, Note_off_c, 0, 62, 73
2, 546816, Note_on_c, 0, 62, 92
2, 547008, Note_off_c, 0, 62, 73
2, 547584, Note_on_c, 0, 43, 98
2, 547772, Note_off_c, 0, 43, 73
2, 547776, Note_on_c, 0, 45, 101
2, 547964, Note_off_c, 0, 45, 73
2, 547968, Note_on_c, 0, 47, 103
2, 548092, Note_off_c, 0, 47, 73
2, 548352, Note_on_c, 0, 48, 106
2, 548476, Note_off_c, 0, 48, 73
2, 548736, Note_on_c, 0, 50, 110
2, 548860, Note_off_c, 0, 50, 73
2, 549120, Note_on_c, 0, 52, 115
2, 549244, Note_off_c, 0, 52, 73
2, 549504, Note_on_c, 0, 54, 118
2, 549628, Note_off_c, 0, 54, 73
2, 549888, Note_on_c, 0, 55, 121
2, 550012, Note_off_c, 0, 55, 73
2, 550272, Note_on_c, 0, 57, 126
2, 550396, Note_off_c, 0, 57, 73
2, 550656, Note_on_c, 0, 58, 127
2, 550780, Note_off_c, 0, 58, 73
2, 551040, Note_on_c, 0, 60, 127
2, 551164, Note_off_c, 0, 60, 73
2, 551424, Note_on_c, 0, 58, 127
2, 551548, Note_off_c, 0, 58, 73
2, 552192, Note_on_c, 0, 43, 127
2, 552380, Note_off_c, 0, 43, 73
2, 552384, Note_on_c, 0, 45, 127
2, 552572, Note_off_c, 0, 45, 73
2, 552576, Note_on_c, 0, 46, 127
2, 552704, Note_off_c, 0, 46, 73
2, 552768, Note_on_c, 0, 46, 127
2, 552896, Note_off_c, 0, 46, 73
2, 552960, Note_on_c, 0, 48, 127
2, 553088, Note_off_c, 0, 48, 73
2, 553152, Note_on_c, 0, 48, 127
2, 553280, Note_off_c, 0, 48, 73
2, 553344, Note_on_c, 0, 50, 127
2, 553472, Note_off_c, 0, 50, 73
2, 553536, Note_on_c, 0, 50, 127
2, 553664, Note_off_c, 0, 50, 73
2, 553728, Note_on_c, 0, 52, 127
2, 553856, Note_off_c, 0, 52, 73
2, 553920, Note_on_c, 0, 52, 127
2, 554048, Note_off_c, 0, 52, 73
2, 554112, Note_on_c, 0, 54, 127
2, 554240, Note_off_c, 0, 54, 73
2, 554304, Note_on_c, 0, 54, 127
2, 554432, Note_off_c, 0, 54, 73
2, 554496, Note_on_c, 0, 55, 127
2, 554624, Note_off_c, 0, 55, 73
2, 554688, Note_on_c, 0, 55, 127
2, 554816, Note_off_c, 0, 55, 73
2, 554880, Note_on_c, 0, 57, 127
2, 555008, Note_off_c, 0, 57, 73
2, 555072, Note_on_c, 0, 57, 127
2, 555200, Note_off_c, 0, 57, 73
2, 555264, Note_on_c, 0, 58, 127
2, 555392, Note_off_c, 0, 58, 73
2, 555456, Note_on_c, 0, 58, 127
2, 555584, Note_off_c, 0, 58, 73
2, 555648, Note_on_c, 0, 60, 127
2, 555776, Note_off_c, 0, 60, 73
2, 555840, Note_on_c, 0, 60, 127
2, 555968, Note_off_c, 0, 60, 73
2, 556032, Note_on_c, 0, 62, 127
2, 556160, Note_off_c, 0, 62, 73
2, 556224, Note_on_c, 0, 62, 127
2, 556352, Note_off_c, 0, 62, 73
2, 556416, Note_on_c, 0, 63, 127
2, 556544, Note_off_c, 0, 63, 73
2, 556608, Note_on_c, 0, 63, 127
2, 556736, Note_off_c, 0, 63, 73
2, 556800, Note_on_c, 0, 61, 127
2, 556928, Note_off_c, 0, 61, 73
2, 556992, Note_on_c, 0, 61, 127
2, 557120, Note_off_c, 0, 61, 73
2, 557184, Note_on_c, 0, 62, 127
2, 557312, Note_off_c, 0, 62, 73
2, 557376, Note_on_c, 0, 62, 127
2, 557504, Note_off_c, 0, 62, 73
2, 557568, Note_on_c, 0, 59, 127
2, 557696, Note_off_c, 0, 59, 73
2, 557760, Note_on_c, 0, 59, 127
2, 557888, Note_off_c, 0, 59, 73
2, 557952, Note_on_c, 0, 60, 127
2, 558080, Note_off_c, 0, 60, 73
2, 558144, Note_on_c, 0, 60, 127
2, 558272, Note_off_c, 0, 60, 73
2, 558336, Note_on_c, 0, 57, 127
2, 558464, Note_off_c, 0, 57, 73
2, 558528, Note_on_c, 0, 57, 127
2, 558656, Note_off_c, 0, 57, 73
2, 558720, Note_on_c, 0, 58, 127
2, 558848, Note_off_c, 0, 58, 73
2, 558912, Note_on_c, 0, 58, 127
2, 559040, Note_off_c, 0, 58, 73
2, 559104, Note_on_c, 0, 55, 127
2, 559232, Note_off_c, 0, 55, 73
2, 559296, Note_on_c, 0, 55, 127
2, 559424, Note_off_c, 0, 55, 73
2, 559488, Note_on_c, 0, 62, 127
2, 559744, Note_off_c, 0, 62, 73
2, 560256, Note_on_c, 0, 50, 127
2, 560512, Note_off_c, 0, 50, 73
2, 560640, Note_on_c, 0, 55, 127
2, 560896, Note_off_c, 0, 55, 73
2, 562176, Note_on_c, 0, 61, 127
2, 562364, Note_off_c, 0, 61, 73
2, 562368, Note_on_c, 0, 62, 127
2, 562556, Note_off_c, 0, 62, 73
2, 562560, Note_on_c, 0, 61, 127
2, 562748, Note_off_c, 0, 61, 73
2, 562752, Note_on_c, 0, 62, 127
2, 562940, Note_off_c, 0, 62, 73
2, 562944, Note_on_c, 0, 62, 127
2, 564476, Note_off_c, 0, 62, 73
2, 564480, Note_on_c, 0, 61, 127
2, 564668, Note_off_c, 0, 61, 73
2, 564672, Note_on_c, 0, 62, 127
2, 564860, Note_off_c, 0, 62, 73
2, 564864, Note_on_c, 0, 61, 127
2, 565052, Note_off_c, 0, 61, 73
2, 565056, Note_on_c, 0, 62, 127
2, 565244, Note_off_c, 0, 62, 73
2, 565248, Note_on_c, 0, 62, 127
2, 566592, Note_on_c, 0, 62, 127
2, 566780, Note_off_c, 0, 62, 73
2, 566780, Note_off_c, 0, 62, 73
2, 566784, Note_on_c, 0, 61, 127
2, 566972, Note_off_c, 0, 61, 73
2, 566976, Note_on_c, 0, 62, 127
2, 567164, Note_off_c, 0, 62, 73
2, 567168, Note_on_c, 0, 64, 127
2, 567356, Note_off_c, 0, 64, 73
2, 567360, Note_on_c, 0, 66, 127
2, 567548, Note_off_c, 0, 66, 73
2, 567552, Note_on_c, 0, 67, 127
2, 567740, Note_off_c, 0, 67, 73
2, 567936, Note_on_c, 0, 67, 127
2, 568124, Note_off_c, 0, 67, 73
2, 568320, Note_on_c, 0, 67, 127
2, 568508, Note_off_c, 0, 67, 73
2, 568704, Note_on_c, 0, 67, 127
2, 568892, Note_off_c, 0, 67, 73
2, 569472, Note_on_c, 0, 46, 127
2, 569852, Note_off_c, 0, 46, 73
2, 569856, Note_on_c, 0, 51, 126
2, 570236, Note_off_c, 0, 51, 73
2, 571392, Note_on_c, 0, 57, 126
2, 571580, Note_off_c, 0, 57, 73
2, 571584, Note_on_c, 0, 58, 126
2, 571772, Note_off_c, 0, 58, 73
2, 571776, Note_on_c, 0, 57, 126
2, 571964, Note_off_c, 0, 57, 73
2, 571968, Note_on_c, 0, 58, 126
2, 572156, Note_off_c, 0, 58, 73
2, 572160, Note_on_c, 0, 58, 126
2, 573692, Note_off_c, 0, 58, 73
2, 573696, Note_on_c, 0, 57, 126
2, 573884, Note_off_c, 0, 57, 73
2, 573888, Note_on_c, 0, 58, 126
2, 574076, Note_off_c, 0, 58, 73
2, 574080, Note_on_c, 0, 60, 126
2, 574268, Note_off_c, 0, 60, 73
2, 574272, Note_on_c, 0, 58, 126
2, 574460, Note_off_c, 0, 58, 73
2, 574464, Note_on_c, 0, 58, 126
2, 575996, Note_off_c, 0, 58, 73
2, 576000, Note_on_c, 0, 62, 126
2, 576380, Note_off_c, 0, 62, 73
2, 576384, Note_on_c, 0, 65, 126
2, 576764, Note_off_c, 0, 65, 73
2, 576768, Note_on_c, 0, 68, 80
2, 577916, Note_off_c, 0, 68, 73
2, 577920, Note_on_c, 0, 67, 80
2, 578684, Note_off_c, 0, 67, 73
2, 578688, Note_on_c, 0, 67, 80
2, 579068, Note_off_c, 0, 67, 73
2, 579072, Note_on_c, 0, 67, 69
2, 579452, Note_off_c, 0, 67, 73
2, 579456, Note_on_c, 0, 68, 69
2, 579836, Note_off_c, 0, 68, 73
2, 579840, Note_on_c, 0, 65, 69
2, 580220, Note_off_c, 0, 65, 73
2, 580224, Note_on_c, 0, 63, 69
2, 580604, Note_off_c, 0, 63, 73
2, 583296, Note_on_c, 0, 63, 69
2, 583676, Note_off_c, 0, 63, 73
2, 583680, Note_on_c, 0, 63, 69
2, 584060, Note_off_c, 0, 63, 73
2, 584064, Note_on_c, 0, 65, 69
2, 584444, Note_off_c, 0, 65, 73
2, 584448, Note_on_c, 0, 61, 69
2, 584828, Note_off_c, 0, 61, 73
2, 584832, Note_on_c, 0, 60, 69
2, 585212, Note_off_c, 0, 60, 73
2, 587904, Note_on_c, 0, 61, 115
2, 588284, Note_off_c, 0, 61, 73
2, 588288, Note_on_c, 0, 62, 120
2, 588668, Note_off_c, 0, 62, 73
2, 588672, Note_on_c, 0, 63, 120
2, 589052, Note_off_c, 0, 63, 73
2, 589056, Note_on_c, 0, 60, 120
2, 589436, Note_off_c, 0, 60, 73
2, 589440, Note_on_c, 0, 58, 120
2, 589820, Note_off_c, 0, 58, 73
2, 596352, Note_on_c, 0, 48, 120
2, 596732, Note_off_c, 0, 48, 73
2, 597504, Note_on_c, 0, 49, 109
2, 597884, Note_off_c, 0, 49, 73
2, 598656, Note_on_c, 0, 50, 97
2, 599036, Note_off_c, 0, 50, 73
2, 599808, Note_on_c, 0, 62, 86
2, 600188, Note_off_c, 0, 62, 73
2, 600960, Note_on_c, 0, 67, 74
2, 606332, Note_off_c, 0, 67, 73
2, 606336, Note_on_c, 0, 66, 80
2, 606716, Note_off_c, 0, 66, 73
2, 606720, Note_on_c, 0, 67, 80
2, 610940, Note_off_c, 0, 67, 73
2, 610944, Note_on_c, 0, 68, 80
2, 611324, Note_off_c, 0, 68, 73
2, 611328, Note_on_c, 0, 67, 80
2, 615548, Note_off_c, 0, 67, 73
2, 615552, Note_on_c, 0, 66, 80
2, 615932, Note_off_c, 0, 66, 73
2, 615936, Note_on_c, 0, 67, 80
2, 617852, Note_off_c, 0, 67, 73
2, 617856, Note_on_c, 0, 66, 80
2, 618236, Note_off_c, 0, 66, 73
2, 618240, Note_on_c, 0, 67, 80
2, 621308, Note_off_c, 0, 67, 73
2, 621696, Note_on_c, 0, 63, 80
2, 622844, Note_off_c, 0, 63, 73
2, 622848, Note_on_c, 0, 65, 74
2, 623996, Note_off_c, 0, 65, 73
2, 624000, Note_on_c, 0, 62, 80
2, 625148, Note_off_c, 0, 62, 73
2, 625152, Note_on_c, 0, 63, 80
2, 626300, Note_off_c, 0, 63, 73
2, 626304, Note_on_c, 0, 61, 80
2, 627452, Note_off_c, 0, 61, 73
2, 627456, Note_on_c, 0, 62, 80
2, 629372, Note_off_c, 0, 62, 73
2, 629760, Note_on_c, 0, 63, 80
2, 630908, Note_off_c, 0, 63, 73
2, 630912, Note_on_c, 0, 62, 80
2, 631292, Note_off_c, 0, 62, 73
2, 633216, Note_on_c, 0, 50, 69
2, 633600, Note_off_c, 0, 50, 73
2, 635520, Note_on_c, 0, 67, 127
2, 635520, Note_on_c, 0, 58, 127
2, 635520, Note_on_c, 0, 50, 127
2, 635520, Note_on_c, 0, 43, 127
2, 635900, Note_off_c, 0, 67, 73
2, 635900, Note_off_c, 0, 58, 73
2, 635900, Note_off_c, 0, 50, 73
2, 635900, Note_off_c, 0, 43, 73
2, 635904, Note_on_c, 0, 55, 127
2, 636092, Note_off_c, 0, 55, 73
2, 636288, Note_on_c, 0, 55, 127
2, 636476, Note_off_c, 0, 55, 73
2, 636672, Note_on_c, 0, 43, 127
2, 636860, Note_off_c, 0, 43, 73
2, 637056, Note_on_c, 0, 55, 127
2, 637244, Note_off_c, 0, 55, 73
2, 637440, Note_on_c, 0, 55, 127
2, 637628, Note_off_c, 0, 55, 73
2, 637824, Note_on_c, 0, 43, 127
2, 638012, Note_off_c, 0, 43, 73
2, 638208, Note_on_c, 0, 55, 127
2, 638396, Note_off_c, 0, 55, 73
2, 638592, Note_on_c, 0, 55, 127
2, 638780, Note_off_c, 0, 55, 73
2, 638976, Note_on_c, 0, 57, 127
2, 639740, Note_off_c, 0, 57, 73
2, 639744, Note_on_c, 0, 59, 127
2, 639932, Note_off_c, 0, 59, 73
2, 639936, Note_on_c, 0, 60, 127
2, 640124, Note_off_c, 0, 60, 73
2, 640128, Note_on_c, 0, 62, 127
2, 640508, Note_off_c, 0, 62, 73
2, 640512, Note_on_c, 0, 55, 127
2, 640892, Note_off_c, 0, 55, 73
2, 640896, Note_on_c, 0, 55, 127
2, 641276, Note_off_c, 0, 55, 73
2, 641280, Note_on_c, 0, 43, 127
2, 641660, Note_off_c, 0, 43, 73
2, 641664, Note_on_c, 0, 55, 127
2, 641852, Note_off_c, 0, 55, 73
2, 642048, Note_on_c, 0, 55, 127
2, 642236, Note_off_c, 0, 55, 73
2, 642432, Note_on_c, 0, 43, 127
2, 642620, Note_off_c, 0, 43, 73
2, 642816, Note_on_c, 0, 55, 127
2, 643004, Note_off_c, 0, 55, 73
2, 643200, Note_on_c, 0, 55, 127
2, 643388, Note_off_c, 0, 55, 73
2, 643584, Note_on_c, 0, 57, 127
2, 644348, Note_off_c, 0, 57, 73
2, 644352, Note_on_c, 0, 59, 127
2, 644540, Note_off_c, 0, 59, 73
2, 644544, Note_on_c, 0, 60, 127
2, 644732, Note_off_c, 0, 60, 73
2, 644736, Note_on_c, 0, 62, 127
2, 645116, Note_off_c, 0, 62, 73
2, 645888, Note_on_c, 0, 60, 127
2, 646652, Note_off_c, 0, 60, 73
2, 646656, Note_on_c, 0, 62, 127
2, 646844, Note_off_c, 0, 62, 73
2, 646848, Note_on_c, 0, 63, 127
2, 647036, Note_off_c, 0, 63, 73
2, 647040, Note_on_c, 0, 62, 127
2, 647420, Note_off_c, 0, 62, 73
2, 648192, Note_on_c, 0, 66, 127
2, 649340, Note_off_c, 0, 66, 73
2, 649344, Note_on_c, 0, 67, 127
2, 649532, Note_off_c, 0, 67, 73
2, 649728, Note_on_c, 0, 62, 127
2, 649916, Note_off_c, 0, 62, 73
2, 650112, Note_on_c, 0, 59, 127
2, 650300, Note_off_c, 0, 59, 73
2, 650496, Note_on_c, 0, 55, 127
2, 650684, Note_off_c, 0, 55, 73
2, 650880, Note_on_c, 0, 50, 127
2, 651068, Note_off_c, 0, 50, 73
2, 651264, Note_on_c, 0, 47, 127
2, 651452, Note_off_c, 0, 47, 73
2, 651648, Note_on_c, 0, 43, 127
2, 651836, Note_off_c, 0, 43, 73
2, 651836, End_track
3, 0, Start_track
3, 0, Title_t, "Piano Right"
3, 0, Control_c, 1, 0, 0
3, 0, Program_c, 1, 0
3, 0, Control_c, 1, 10, 51
3, 0, Control_c, 1, 91, 50
3, 0, Control_c, 1, 93, 102
3, 0, Key_signature, -2, "minor"
3, 0, Note_on_c, 1, 58, 115
3, 0, Note_on_c, 1, 62, 115
3, 0, Note_on_c, 1, 67, 115
3, 384, Note_off_c, 1, 58, 73
3, 384, Note_off_c, 1, 62, 73
3, 384, Note_off_c, 1, 67, 73
3, 576, Note_on_c, 1, 86, 69
3, 712, Note_off_c, 1, 86, 73
3, 716, Note_on_c, 1, 84, 69
3, 760, Note_off_c, 1, 84, 73
3, 768, Note_on_c, 1, 82, 69
3, 904, Note_off_c, 1, 82, 73
3, 908, Note_on_c, 1, 81, 69
3, 952, Note_off_c, 1, 81, 73
3, 960, Note_on_c, 1, 79, 69
3, 1096, Note_off_c, 1, 79, 73
3, 1100, Note_on_c, 1, 77, 69
3, 1144, Note_off_c, 1, 77, 73
3, 1152, Note_on_c, 1, 75, 69
3, 1288, Note_off_c, 1, 75, 73
3, 1292, Note_on_c, 1, 74, 69
3, 1336, Note_off_c, 1, 74, 73
3, 1344, Note_on_c, 1, 72, 69
3, 1480, Note_off_c, 1, 72, 73
3, 1484, Note_on_c, 1, 70, 69
3, 1528, Note_off_c, 1, 70, 73
3, 1536, Note_on_c, 1, 75, 69
3, 1536, Note_on_c, 1, 69, 69
3, 1916, Note_off_c, 1, 75, 73
3, 1916, Note_off_c, 1, 69, 73
3, 1920, Note_on_c, 1, 75, 69
3, 1920, Note_on_c, 1, 67, 69
3, 2300, Note_off_c, 1, 75, 73
3, 2300, Note_off_c, 1, 67, 73
3, 2304, Note_on_c, 1, 75, 69
3, 2304, Note_on_c, 1, 66, 69
3, 2684, Note_off_c, 1, 75, 73
3, 2684, Note_off_c, 1, 66, 73
3, 3072, Note_on_c, 1, 65, 115
3, 3072, Note_on_c, 1, 63, 115
3, 3072, Note_on_c, 1, 60, 115
3, 3072, Note_on_c, 1, 57, 115
3, 3072, Note_on_c, 1, 57, 115
3, 3644, Note_off_c, 1, 65, 73
3, 3644, Note_off_c, 1, 63, 73
3, 3644, Note_off_c, 1, 60, 73
3, 3644, Note_off_c, 1, 57, 73
3, 3644, Note_off_c, 1, 57, 73
3, 3648, Note_on_c, 1, 87, 69
3, 3784, Note_off_c, 1, 87, 73
3, 3788, Note_on_c, 1, 86, 69
3, 3832, Note_off_c, 1, 86, 73
3, 3840, Note_on_c, 1, 84, 69
3, 3976, Note_off_c, 1, 84, 73
3, 3980, Note_on_c, 1, 82, 69
3, 4024, Note_off_c, 1, 82, 73
3, 4032, Note_on_c, 1, 81, 69
3, 4168, Note_off_c, 1, 81, 73
3, 4172, Note_on_c, 1, 79, 69
3, 4216, Note_off_c, 1, 79, 73
3, 4224, Note_on_c, 1, 78, 69
3, 4360, Note_off_c, 1, 78, 73
3, 4364, Note_on_c, 1, 75, 69
3, 4408, Note_off_c, 1, 75, 73
3, 4416, Note_on_c, 1, 74, 69
3, 4552, Note_off_c, 1, 74, 73
3, 4556, Note_on_c, 1, 72, 69
3, 4600, Note_off_c, 1, 72, 73
3, 4608, Note_on_c, 1, 77, 69
3, 4608, Note_on_c, 1, 71, 69
3, 4864, Note_off_c, 1, 77, 73
3, 4864, Note_off_c, 1, 71, 73
3, 4992, Note_on_c, 1, 77, 69
3, 4992, Note_on_c, 1, 68, 69
3, 5248, Note_off_c, 1, 77, 73
3, 5248, Note_off_c, 1, 68, 73
3, 5376, Note_on_c, 1, 77, 69
3, 5376, Note_on_c, 1, 67, 69
3, 5760, Note_off_c, 1, 77, 73
3, 5760, Note_off_c, 1, 67, 73
3, 6144, Note_on_c, 1, 67, 69
3, 6144, Note_on_c, 1, 63, 69
3, 6144, Note_on_c, 1, 55, 69
3, 6400, Note_off_c, 1, 67, 73
3, 6400, Note_off_c, 1, 63, 73
3, 6400, Note_off_c, 1, 55, 73
3, 6528, Note_on_c, 1, 67, 69
3, 6528, Note_on_c, 1, 62, 69
3, 6528, Note_on_c, 1, 55, 69
3, 6784, Note_off_c, 1, 67, 73
3, 6784, Note_off_c, 1, 62, 73
3, 6784, Note_off_c, 1, 55, 73
3, 6912, Note_on_c, 1, 61, 69
3, 6912, Note_on_c, 1, 67, 69
3, 6972, Note_off_c, 1, 67, 73
3, 7008, Note_on_c, 1, 69, 69
3, 7068, Note_off_c, 1, 69, 73
3, 7068, Note_on_c, 1, 67, 69
3, 7108, Note_on_c, 1, 66, 69
3, 7128, Note_off_c, 1, 67, 73
3, 7168, Note_off_c, 1, 66, 73
3, 7168, Note_on_c, 1, 67, 69
3, 7228, Note_off_c, 1, 67, 73
3, 7296, Note_on_c, 1, 70, 69
3, 7424, Note_off_c, 1, 61, 73
3, 7488, Note_off_c, 1, 70, 73
3, 7584, Note_on_c, 1, 66, 69
3, 7680, Note_off_c, 1, 66, 73
3, 7680, Note_on_c, 1, 67, 69
3, 7936, Note_off_c, 1, 67, 73
3, 8064, Note_on_c, 1, 66, 69
3, 8192, Note_off_c, 1, 66, 73
3, 8256, Note_on_c, 1, 67, 69
3, 8384, Note_off_c, 1, 67, 73
3, 8448, Note_on_c, 1, 69, 69
3, 8564, Note_off_c, 1, 69, 73
3, 8564, Note_on_c, 1, 70, 69
3, 8604, Note_on_c, 1, 69, 69
3, 8608, Note_off_c, 1, 70, 73
3, 8636, Note_off_c, 1, 69, 73
3, 8640, Note_on_c, 1, 72, 69
3, 8896, Note_off_c, 1, 72, 73
3, 9024, Note_on_c, 1, 69, 69
3, 9088, Note_off_c, 1, 69, 73
3, 9120, Note_on_c, 1, 66, 69
3, 9184, Note_off_c, 1, 66, 73
3, 9216, Note_on_c, 1, 67, 69
3, 9280, Note_off_c, 1, 67, 73
3, 10944, Note_on_c, 1, 63, 69
3, 11008, Note_off_c, 1, 63, 73
3, 11040, Note_on_c, 1, 63, 69
3, 11104, Note_off_c, 1, 63, 73
3, 11328, Note_on_c, 1, 67, 69
3, 11392, Note_off_c, 1, 67, 73
3, 11424, Note_on_c, 1, 67, 69
3, 11488, Note_off_c, 1, 67, 73
3, 11616, Note_on_c, 1, 58, 69
3, 11616, Note_on_c, 1, 62, 69
3, 11680, Note_off_c, 1, 58, 73
3, 11680, Note_off_c, 1, 62, 73
3, 11712, Note_on_c, 1, 70, 69
3, 11776, Note_off_c, 1, 70, 73
3, 11808, Note_on_c, 1, 70, 69
3, 11872, Note_off_c, 1, 70, 73
3, 12000, Note_on_c, 1, 60, 69
3, 12000, Note_on_c, 1, 62, 69
3, 12064, Note_off_c, 1, 60, 73
3, 12064, Note_off_c, 1, 62, 73
3, 12096, Note_on_c, 1, 66, 69
3, 12160, Note_off_c, 1, 66, 73
3, 12192, Note_on_c, 1, 69, 69
3, 12256, Note_off_c, 1, 69, 73
3, 12288, Key_signature, 0, "major"
3, 12288, Note_on_c, 1, 70, 75
3, 12288, Note_on_c, 1, 53, 69
3, 12320, Note_off_c, 1, 70, 73
3, 12320, Note_on_c, 1, 82, 73
3, 12544, Note_off_c, 1, 53, 73
3, 12644, Note_off_c, 1, 82, 73
3, 12964, Note_on_c, 1, 82, 69
3, 13008, Note_off_c, 1, 82, 73
3, 13008, Note_on_c, 1, 84, 67
3, 13048, Note_off_c, 1, 84, 73
3, 13052, Note_on_c, 1, 80, 75
3, 13336, Note_off_c, 1, 80, 73
3, 13392, Note_on_c, 1, 77, 75
3, 13436, Note_off_c, 1, 77, 73
3, 13440, Note_on_c, 1, 79, 75
3, 13724, Note_off_c, 1, 79, 73
3, 13776, Note_on_c, 1, 75, 73
3, 13820, Note_off_c, 1, 75, 73
3, 13824, Note_on_c, 1, 77, 69
3, 14204, Note_off_c, 1, 77, 73
3, 14208, Note_on_c, 1, 79, 69
3, 14248, Note_on_c, 1, 77, 69
3, 14256, Note_off_c, 1, 79, 73
3, 14296, Note_off_c, 1, 77, 73
3, 14296, Note_on_c, 1, 76, 69
3, 14344, Note_off_c, 1, 76, 73
3, 14344, Note_on_c, 1, 77, 69
3, 14392, Note_off_c, 1, 77, 73
3, 14396, Note_on_c, 1, 80, 69
3, 14488, Note_off_c, 1, 80, 73
3, 14500, Note_on_c, 1, 77, 69
3, 14592, Note_off_c, 1, 77, 73
3, 14592, Note_on_c, 1, 75, 69
3, 14972, Note_off_c, 1, 75, 73
3, 14976, Note_on_c, 1, 77, 69
3, 15260, Note_off_c, 1, 77, 73
3, 15264, Note_on_c, 1, 74, 69
3, 15360, Key_signature, -2, "minor"
3, 15360, Note_on_c, 1, 75, 69
3, 15404, Note_off_c, 1, 74, 73
3, 15424, Note_off_c, 1, 75, 73
3, 15456, Note_on_c, 1, 58, 69
3, 15520, Note_off_c, 1, 58, 73
3, 15552, Note_on_c, 1, 67, 69
3, 15552, Note_on_c, 1, 70, 69
3, 15616, Note_off_c, 1, 67, 73
3, 15616, Note_off_c, 1, 70, 73
3, 15648, Note_on_c, 1, 67, 69
3, 15648, Note_on_c, 1, 70, 69
3, 15712, Note_off_c, 1, 67, 73
3, 15712, Note_off_c, 1, 70, 73
3, 15840, Note_on_c, 1, 58, 69
3, 15904, Note_off_c, 1, 58, 73
3, 15936, Note_on_c, 1, 63, 69
3, 15936, Note_on_c, 1, 70, 69
3, 16000, Note_off_c, 1, 63, 73
3, 16000, Note_off_c, 1, 70, 73
3, 16032, Note_on_c, 1, 63, 69
3, 16032, Note_on_c, 1, 70, 69
3, 16096, Note_off_c, 1, 63, 73
3, 16096, Note_off_c, 1, 70, 73
3, 16224, Note_on_c, 1, 58, 69
3, 16288, Note_off_c, 1, 58, 73
3, 16320, Note_on_c, 1, 62, 69
3, 16320, Note_on_c, 1, 70, 69
3, 16384, Note_off_c, 1, 62, 73
3, 16384, Note_off_c, 1, 70, 73
3, 16416, Note_on_c, 1, 62, 69
3, 16416, Note_on_c, 1, 70, 69
3, 16480, Note_off_c, 1, 62, 73
3, 16480, Note_off_c, 1, 70, 73
3, 16608, Note_on_c, 1, 58, 69
3, 16672, Note_off_c, 1, 58, 73
3, 16704, Note_on_c, 1, 62, 69
3, 16704, Note_on_c, 1, 70, 69
3, 16768, Note_off_c, 1, 62, 73
3, 16768, Note_off_c, 1, 70, 73
3, 16800, Note_on_c, 1, 62, 69
3, 16800, Note_on_c, 1, 70, 69
3, 16864, Note_off_c, 1, 62, 73
3, 16864, Note_off_c, 1, 70, 73
3, 17088, Note_on_c, 1, 70, 69
3, 17468, Note_off_c, 1, 70, 73
3, 17472, Note_on_c, 1, 75, 69
3, 17660, Note_off_c, 1, 75, 73
3, 17664, Note_on_c, 1, 74, 69
3, 17852, Note_off_c, 1, 74, 73
3, 17856, Note_on_c, 1, 77, 69
3, 18236, Note_off_c, 1, 77, 73
3, 18240, Note_on_c, 1, 74, 69
3, 18332, Note_off_c, 1, 74, 73
3, 18336, Note_on_c, 1, 70, 69
3, 18428, Note_off_c, 1, 70, 73
3, 18432, Note_on_c, 1, 75, 69
3, 18556, Note_on_c, 1, 77, 69
3, 18584, Note_off_c, 1, 77, 73
3, 18588, Note_on_c, 1, 75, 69
3, 18616, Note_off_c, 1, 75, 73
3, 18620, Note_off_c, 1, 75, 73
3, 18660, Note_on_c, 1, 75, 69
3, 18688, Note_off_c, 1, 75, 73
3, 18688, Note_on_c, 1, 74, 69
3, 18716, Note_off_c, 1, 74, 73
3, 18720, Note_on_c, 1, 77, 69
3, 18812, Note_off_c, 1, 77, 73
3, 18816, Note_on_c, 1, 78, 69
3, 18908, Note_off_c, 1, 78, 73
3, 18912, Note_on_c, 1, 79, 69
3, 18940, Note_off_c, 1, 79, 73
3, 19008, Note_on_c, 1, 79, 69
3, 19036, Note_off_c, 1, 79, 73
3, 19104, Note_on_c, 1, 79, 69
3, 19132, Note_off_c, 1, 79, 73
3, 19200, Note_on_c, 1, 80, 69
3, 19260, Note_off_c, 1, 80, 73
3, 19392, Note_on_c, 1, 80, 69
3, 19452, Note_off_c, 1, 80, 73
3, 19584, Note_on_c, 1, 80, 69
3, 19644, Note_off_c, 1, 80, 73
3, 19776, Note_on_c, 1, 80, 69
3, 19836, Note_off_c, 1, 80, 73
3, 19968, Note_on_c, 1, 79, 87
3, 20076, Note_off_c, 1, 79, 73
3, 20160, Note_on_c, 1, 82, 83
3, 20396, Note_on_c, 1, 84, 78
3, 20420, Note_off_c, 1, 84, 73
3, 20420, Note_on_c, 1, 82, 75
3, 20444, Note_off_c, 1, 82, 73
3, 20444, Note_off_c, 1, 82, 73
3, 20444, Note_on_c, 1, 81, 69
3, 20492, Note_off_c, 1, 81, 73
3, 20492, Note_on_c, 1, 82, 69
3, 20540, Note_off_c, 1, 82, 73
3, 20540, Note_on_c, 1, 87, 69
3, 20588, Note_off_c, 1, 87, 73
3, 20588, Note_on_c, 1, 82, 69
3, 20636, Note_off_c, 1, 82, 73
3, 20640, Note_on_c, 1, 79, 69
3, 20680, Note_on_c, 1, 75, 69
3, 20688, Note_off_c, 1, 79, 73
3, 20728, Note_off_c, 1, 75, 73
3, 20736, Note_on_c, 1, 74, 69
3, 20828, Note_off_c, 1, 74, 73
3, 20832, Note_on_c, 1, 75, 69
3, 20924, Note_off_c, 1, 75, 73
3, 20928, Note_on_c, 1, 76, 69
3, 21020, Note_off_c, 1, 76, 73
3, 21024, Note_on_c, 1, 77, 69
3, 21116, Note_off_c, 1, 77, 73
3, 21120, Note_on_c, 1, 70, 69
3, 21212, Note_off_c, 1, 70, 73
3, 21216, Note_on_c, 1, 72, 69
3, 21308, Note_off_c, 1, 72, 73
3, 21312, Note_on_c, 1, 73, 69
3, 21404, Note_off_c, 1, 73, 73
3, 21408, Note_on_c, 1, 74, 69
3, 21500, Note_off_c, 1, 74, 73
3, 21504, Note_on_c, 1, 75, 69
3, 21504, Note_on_c, 1, 70, 69
3, 21504, Note_on_c, 1, 67, 69
3, 21504, Note_on_c, 1, 63, 69
3, 22076, Note_off_c, 1, 75, 73
3, 22076, Note_off_c, 1, 70, 73
3, 22076, Note_off_c, 1, 67, 73
3, 22076, Note_off_c, 1, 63, 73
3, 22080, Note_on_c, 1, 79, 69
3, 22208, Note_on_c, 1, 77, 69
3, 22220, Note_off_c, 1, 79, 73
3, 22272, Note_on_c, 1, 75, 69
3, 22316, Note_off_c, 1, 77, 73
3, 22400, Note_on_c, 1, 74, 69
3, 22412, Note_off_c, 1, 75, 73
3, 22464, Note_on_c, 1, 72, 69
3, 22508, Note_off_c, 1, 74, 73
3, 22592, Note_on_c, 1, 70, 69
3, 22604, Note_off_c, 1, 72, 73
3, 22656, Note_on_c, 1, 68, 69
3, 22700, Note_off_c, 1, 70, 73
3, 22784, Note_on_c, 1, 67, 69
3, 22796, Note_off_c, 1, 68, 73
3, 22848, Note_on_c, 1, 65, 69
3, 22888, Note_off_c, 1, 67, 73
3, 22976, Note_on_c, 1, 63, 69
3, 22988, Note_off_c, 1, 65, 73
3, 23040, Note_on_c, 1, 56, 69
3, 23040, Note_on_c, 1, 60, 69
3, 23040, Note_on_c, 1, 63, 69
3, 23080, Note_off_c, 1, 63, 73
3, 23612, Note_off_c, 1, 56, 73
3, 23612, Note_off_c, 1, 60, 73
3, 23616, Note_off_c, 1, 63, 73
3, 23616, Note_on_c, 1, 87, 69
3, 23744, Note_on_c, 1, 85, 69
3, 23756, Note_off_c, 1, 87, 73
3, 23808, Note_on_c, 1, 84, 69
3, 23852, Note_off_c, 1, 85, 73
3, 23936, Note_on_c, 1, 82, 69
3, 23944, Note_off_c, 1, 84, 73
3, 24000, Note_on_c, 1, 80, 69
3, 24044, Note_off_c, 1, 82, 73
3, 24128, Note_on_c, 1, 79, 69
3, 24140, Note_off_c, 1, 80, 73
3, 24192, Note_on_c, 1, 77, 69
3, 24236, Note_off_c, 1, 79, 73
3, 24320, Note_on_c, 1, 75, 69
3, 24332, Note_off_c, 1, 77, 73
3, 24384, Note_on_c, 1, 74, 69
3, 24424, Note_off_c, 1, 75, 73
3, 24512, Note_on_c, 1, 72, 69
3, 24524, Note_off_c, 1, 74, 73
3, 24576, Note_on_c, 1, 70, 61
3, 24616, Note_off_c, 1, 72, 73
3, 24640, Note_off_c, 1, 70, 65
3, 24712, Note_on_c, 1, 69, 61
3, 24744, Note_off_c, 1, 69, 65
3, 24768, Note_on_c, 1, 68, 61
3, 24836, Note_off_c, 1, 68, 65
3, 24904, Note_on_c, 1, 67, 61
3, 24936, Note_off_c, 1, 67, 65
3, 24960, Note_on_c, 1, 65, 61
3, 25024, Note_off_c, 1, 65, 65
3, 25100, Note_on_c, 1, 63, 61
3, 25132, Note_off_c, 1, 63, 65
3, 25152, Note_on_c, 1, 62, 61
3, 25216, Note_off_c, 1, 62, 65
3, 25280, Note_on_c, 1, 60, 61
3, 25312, Note_off_c, 1, 60, 65
3, 25344, Note_on_c, 1, 58, 61
3, 25472, Note_off_c, 1, 58, 65
3, 25536, Note_on_c, 1, 57, 61
3, 25632, Note_off_c, 1, 57, 65
3, 25728, Note_on_c, 1, 56, 61
3, 25856, Note_off_c, 1, 56, 65
3, 26112, Note_on_c, 1, 63, 61
3, 26112, Note_on_c, 1, 58, 61
3, 26112, Note_on_c, 1, 55, 61
3, 26176, Note_off_c, 1, 63, 65
3, 26176, Note_off_c, 1, 58, 65
3, 26176, Note_off_c, 1, 55, 65
3, 26248, Note_on_c, 1, 63, 61
3, 26280, Note_off_c, 1, 63, 65
3, 26304, Note_on_c, 1, 67, 61
3, 26368, Note_off_c, 1, 67, 65
3, 26436, Note_on_c, 1, 63, 61
3, 26468, Note_off_c, 1, 63, 65
3, 26496, Note_on_c, 1, 70, 61
3, 26560, Note_off_c, 1, 70, 65
3, 26624, Note_on_c, 1, 67, 61
3, 26656, Note_off_c, 1, 67, 65
3, 26688, Note_on_c, 1, 75, 61
3, 26752, Note_off_c, 1, 75, 65
3, 26816, Note_on_c, 1, 70, 61
3, 26848, Note_off_c, 1, 70, 65
3, 26880, Note_on_c, 1, 79, 61
3, 27008, Note_off_c, 1, 79, 65
3, 27456, Note_on_c, 1, 62, 61
3, 27520, Note_off_c, 1, 62, 65
3, 27580, Note_on_c, 1, 63, 61
3, 27612, Note_off_c, 1, 63, 65
3, 27648, Note_on_c, 1, 65, 61
3, 27712, Note_off_c, 1, 65, 65
3, 27776, Note_on_c, 1, 67, 61
3, 27808, Note_off_c, 1, 67, 65
3, 27840, Note_on_c, 1, 69, 61
3, 27840, Note_on_c, 1, 74, 61
3, 27904, Note_off_c, 1, 74, 65
3, 27968, Note_off_c, 1, 69, 65
3, 27968, Note_on_c, 1, 75, 61
3, 28000, Note_off_c, 1, 75, 65
3, 28032, Note_on_c, 1, 77, 61
3, 28096, Note_off_c, 1, 77, 65
3, 28160, Note_on_c, 1, 79, 61
3, 28192, Note_off_c, 1, 79, 65
3, 28224, Note_on_c, 1, 81, 61
3, 28224, Note_on_c, 1, 74, 61
3, 28288, Note_off_c, 1, 74, 65
3, 28352, Note_off_c, 1, 81, 65
3, 28352, Note_on_c, 1, 75, 61
3, 28384, Note_off_c, 1, 75, 65
3, 28416, Note_on_c, 1, 77, 61
3, 28480, Note_off_c, 1, 77, 65
3, 28544, Note_on_c, 1, 75, 61
3, 28576, Note_off_c, 1, 75, 65
3, 28608, Note_on_c, 1, 74, 61
3, 28672, Note_off_c, 1, 74, 64
3, 28736, Note_on_c, 1, 72, 61
3, 28768, Note_off_c, 1, 72, 65
3, 28800, Note_on_c, 1, 82, 61
3, 28928, Note_off_c, 1, 82, 65
3, 29760, Note_on_c, 1, 61, 61
3, 29824, Note_off_c, 1, 61, 65
3, 29896, Note_on_c, 1, 62, 61
3, 29940, Note_off_c, 1, 62, 65
3, 29952, Note_on_c, 1, 64, 103
3, 29952, Note_on_c, 1, 73, 103
3, 30020, Note_off_c, 1, 64, 65
3, 30020, Note_off_c, 1, 73, 65
3, 30072, Note_on_c, 1, 74, 103
3, 30072, Note_on_c, 1, 65, 103
3, 30108, Note_off_c, 1, 74, 65
3, 30108, Note_off_c, 1, 65, 65
3, 30144, Note_on_c, 1, 67, 103
3, 30144, Note_on_c, 1, 76, 103
3, 30212, Note_off_c, 1, 67, 65
3, 30212, Note_off_c, 1, 76, 65
3, 30260, Note_on_c, 1, 69, 103
3, 30260, Note_on_c, 1, 77, 103
3, 30300, Note_off_c, 1, 69, 65
3, 30300, Note_off_c, 1, 77, 65
3, 30336, Note_on_c, 1, 70, 103
3, 30336, Note_on_c, 1, 79, 103
3, 30400, Note_off_c, 1, 79, 65
3, 30464, Note_off_c, 1, 70, 65
3, 30464, Note_on_c, 1, 81, 103
3, 30504, Note_off_c, 1, 81, 65
3, 30528, Note_on_c, 1, 82, 103
3, 30592, Note_off_c, 1, 82, 65
3, 30656, Note_on_c, 1, 81, 103
3, 30696, Note_off_c, 1, 81, 65
3, 30720, Note_on_c, 1, 82, 103
3, 30784, Note_off_c, 1, 82, 65
3, 30848, Note_on_c, 1, 81, 103
3, 30900, Note_off_c, 1, 81, 65
3, 30912, Note_on_c, 1, 82, 103
3, 30976, Note_off_c, 1, 82, 65
3, 31040, Note_on_c, 1, 81, 103
3, 31092, Note_off_c, 1, 81, 65
3, 31104, Note_on_c, 1, 82, 103
3, 31168, Note_off_c, 1, 82, 65
3, 31232, Note_on_c, 1, 81, 103
3, 31284, Note_off_c, 1, 81, 65
3, 31296, Note_on_c, 1, 82, 103
3, 31360, Note_off_c, 1, 82, 65
3, 31424, Note_on_c, 1, 81, 103
3, 31476, Note_off_c, 1, 81, 65
3, 31488, Note_on_c, 1, 82, 123
3, 31552, Note_off_c, 1, 82, 65
3, 31616, Note_on_c, 1, 81, 123
3, 31668, Note_off_c, 1, 81, 65
3, 31680, Note_on_c, 1, 82, 123
3, 31744, Note_off_c, 1, 82, 65
3, 31808, Note_on_c, 1, 81, 123
3, 31860, Note_off_c, 1, 81, 65
3, 31872, Note_on_c, 1, 82, 123
3, 31936, Note_off_c, 1, 82, 65
3, 32000, Note_on_c, 1, 81, 123
3, 32052, Note_off_c, 1, 81, 65
3, 32064, Note_on_c, 1, 82, 123
3, 32128, Note_off_c, 1, 82, 65
3, 32192, Note_on_c, 1, 81, 123
3, 32244, Note_off_c, 1, 81, 65
3, 32256, Note_on_c, 1, 82, 103
3, 32288, Note_on_c, 1, 79, 103
3, 32292, Note_off_c, 1, 82, 65
3, 32320, Note_on_c, 1, 76, 103
3, 32324, Note_off_c, 1, 79, 65
3, 32348, Note_on_c, 1, 70, 103
3, 32356, Note_off_c, 1, 76, 65
3, 32376, Note_on_c, 1, 76, 103
3, 32388, Note_off_c, 1, 70, 65
3, 32412, Note_off_c, 1, 76, 65
3, 32412, Note_on_c, 1, 79, 103
3, 32448, Note_off_c, 1, 79, 65
3, 32448, Note_on_c, 1, 82, 103
3, 32480, Note_on_c, 1, 79, 103
3, 32484, Note_off_c, 1, 82, 64
3, 32516, Note_off_c, 1, 79, 65
3, 32516, Note_on_c, 1, 76, 103
3, 32536, Note_on_c, 1, 70, 103
3, 32552, Note_off_c, 1, 76, 65
3, 32556, Note_on_c, 1, 76, 103
3, 32572, Note_off_c, 1, 70, 65
3, 32592, Note_off_c, 1, 76, 65
3, 32604, Note_on_c, 1, 79, 103
3, 32640, Note_off_c, 1, 79, 65
3, 32640, Note_on_c, 1, 82, 103
3, 32672, Note_on_c, 1, 79, 103
3, 32676, Note_off_c, 1, 82, 65
3, 32708, Note_off_c, 1, 79, 65
3, 32708, Note_on_c, 1, 76, 103
3, 32728, Note_on_c, 1, 70, 103
3, 32744, Note_off_c, 1, 76, 65
3, 32748, Note_on_c, 1, 76, 103
3, 32764, Note_off_c, 1, 70, 65
3, 32784, Note_off_c, 1, 76, 65
3, 32796, Note_on_c, 1, 79, 103
3, 32832, Note_off_c, 1, 79, 65
3, 32832, Note_on_c, 1, 82, 103
3, 32864, Note_on_c, 1, 79, 103
3, 32868, Note_off_c, 1, 82, 65
3, 32900, Note_off_c, 1, 79, 65
3, 32900, Note_on_c, 1, 76, 103
3, 32920, Note_on_c, 1, 70, 103
3, 32924, Note_off_c, 1, 76, 65
3, 32940, Note_on_c, 1, 76, 103
3, 32944, Note_off_c, 1, 70, 65
3, 32964, Note_off_c, 1, 76, 65
3, 32972, Note_on_c, 1, 79, 103
3, 32996, Note_off_c, 1, 79, 65
3, 33024, Note_on_c, 1, 82, 103
3, 33048, Note_off_c, 1, 82, 65
3, 33056, Note_on_c, 1, 79, 103
3, 33080, Note_off_c, 1, 79, 65
3, 33092, Note_on_c, 1, 76, 103
3, 33112, Note_on_c, 1, 70, 103
3, 33116, Note_off_c, 1, 76, 65
3, 33132, Note_on_c, 1, 76, 103
3, 33136, Note_off_c, 1, 70, 65
3, 33156, Note_off_c, 1, 76, 65
3, 33164, Note_on_c, 1, 79, 103
3, 33188, Note_off_c, 1, 79, 65
3, 33216, Note_on_c, 1, 82, 103
3, 33240, Note_off_c, 1, 82, 65
3, 33248, Note_on_c, 1, 79, 103
3, 33276, Note_off_c, 1, 79, 65
3, 33284, Note_on_c, 1, 76, 103
3, 33304, Note_on_c, 1, 70, 103
3, 33308, Note_off_c, 1, 76, 65
3, 33324, Note_on_c, 1, 76, 103
3, 33328, Note_off_c, 1, 70, 65
3, 33348, Note_off_c, 1, 76, 65
3, 33356, Note_on_c, 1, 79, 103
3, 33380, Note_off_c, 1, 79, 65
3, 33408, Note_on_c, 1, 82, 103
3, 33432, Note_off_c, 1, 82, 65
3, 33440, Note_on_c, 1, 79, 103
3, 33464, Note_off_c, 1, 79, 65
3, 33476, Note_on_c, 1, 76, 103
3, 33496, Note_on_c, 1, 70, 103
3, 33500, Note_off_c, 1, 76, 65
3, 33516, Note_on_c, 1, 76, 103
3, 33520, Note_off_c, 1, 70, 65
3, 33540, Note_off_c, 1, 76, 65
3, 33548, Note_on_c, 1, 79, 103
3, 33572, Note_off_c, 1, 79, 65
3, 33600, Note_on_c, 1, 82, 103
3, 33624, Note_off_c, 1, 82, 65
3, 33632, Note_on_c, 1, 79, 103
3, 33656, Note_off_c, 1, 79, 65
3, 33668, Note_on_c, 1, 76, 103
3, 33688, Note_on_c, 1, 70, 103
3, 33692, Note_off_c, 1, 76, 65
3, 33708, Note_on_c, 1, 76, 103
3, 33712, Note_off_c, 1, 70, 65
3, 33732, Note_off_c, 1, 76, 65
3, 33740, Note_on_c, 1, 79, 103
3, 33764, Note_off_c, 1, 79, 65
3, 33792, Note_on_c, 1, 81, 103
3, 33820, Note_off_c, 1, 81, 65
3, 33824, Note_on_c, 1, 75, 103
3, 33852, Note_off_c, 1, 75, 65
3, 33860, Note_on_c, 1, 72, 103
3, 33880, Note_on_c, 1, 69, 103
3, 33888, Note_off_c, 1, 72, 65
3, 33900, Note_on_c, 1, 72, 103
3, 33908, Note_off_c, 1, 69, 65
3, 33928, Note_off_c, 1, 72, 65
3, 33932, Note_on_c, 1, 75, 103
3, 33960, Note_off_c, 1, 75, 65
3, 33984, Note_on_c, 1, 81, 103
3, 34012, Note_off_c, 1, 81, 65
3, 34016, Note_on_c, 1, 75, 103
3, 34044, Note_off_c, 1, 75, 65
3, 34052, Note_on_c, 1, 72, 103
3, 34072, Note_on_c, 1, 69, 103
3, 34080, Note_off_c, 1, 72, 65
3, 34092, Note_on_c, 1, 72, 103
3, 34100, Note_off_c, 1, 69, 65
3, 34120, Note_off_c, 1, 72, 65
3, 34124, Note_on_c, 1, 75, 103
3, 34152, Note_off_c, 1, 75, 65
3, 34176, Note_on_c, 1, 81, 103
3, 34204, Note_off_c, 1, 81, 65
3, 34208, Note_on_c, 1, 75, 103
3, 34236, Note_off_c, 1, 75, 65
3, 34244, Note_on_c, 1, 72, 103
3, 34264, Note_on_c, 1, 69, 103
3, 34272, Note_off_c, 1, 72, 65
3, 34284, Note_on_c, 1, 72, 103
3, 34292, Note_off_c, 1, 69, 65
3, 34312, Note_off_c, 1, 72, 65
3, 34316, Note_on_c, 1, 75, 103
3, 34344, Note_off_c, 1, 75, 65
3, 34368, Note_on_c, 1, 81, 103
3, 34396, Note_off_c, 1, 81, 65
3, 34400, Note_on_c, 1, 75, 103
3, 34428, Note_off_c, 1, 75, 65
3, 34436, Note_on_c, 1, 72, 103
3, 34456, Note_on_c, 1, 69, 103
3, 34464, Note_off_c, 1, 72, 65
3, 34476, Note_on_c, 1, 72, 103
3, 34484, Note_off_c, 1, 69, 65
3, 34504, Note_off_c, 1, 72, 65
3, 34508, Note_on_c, 1, 75, 103
3, 34536, Note_off_c, 1, 75, 65
3, 34560, Note_on_c, 1, 80, 103
3, 34588, Note_off_c, 1, 80, 65
3, 34592, Note_on_c, 1, 75, 103
3, 34620, Note_off_c, 1, 75, 65
3, 34628, Note_on_c, 1, 72, 103
3, 34648, Note_on_c, 1, 68, 103
3, 34656, Note_off_c, 1, 72, 65
3, 34668, Note_on_c, 1, 72, 103
3, 34676, Note_off_c, 1, 68, 65
3, 34696, Note_off_c, 1, 72, 65
3, 34700, Note_on_c, 1, 75, 103
3, 34728, Note_off_c, 1, 75, 65
3, 34752, Note_on_c, 1, 80, 103
3, 34780, Note_off_c, 1, 80, 65
3, 34784, Note_on_c, 1, 75, 103
3, 34812, Note_off_c, 1, 75, 65
3, 34820, Note_on_c, 1, 72, 103
3, 34840, Note_on_c, 1, 68, 103
3, 34848, Note_off_c, 1, 72, 65
3, 34860, Note_on_c, 1, 72, 103
3, 34868, Note_off_c, 1, 68, 65
3, 34888, Note_off_c, 1, 72, 65
3, 34892, Note_on_c, 1, 75, 103
3, 34920, Note_off_c, 1, 75, 65
3, 34944, Note_on_c, 1, 80, 103
3, 34972, Note_off_c, 1, 80, 65
3, 34976, Note_on_c, 1, 75, 103
3, 35004, Note_off_c, 1, 75, 65
3, 35012, Note_on_c, 1, 72, 103
3, 35032, Note_on_c, 1, 68, 103
3, 35040, Note_off_c, 1, 72, 65
3, 35052, Note_on_c, 1, 72, 103
3, 35060, Note_off_c, 1, 68, 65
3, 35080, Note_off_c, 1, 72, 65
3, 35084, Note_on_c, 1, 75, 103
3, 35112, Note_off_c, 1, 75, 65
3, 35136, Note_on_c, 1, 80, 103
3, 35164, Note_off_c, 1, 80, 65
3, 35168, Note_on_c, 1, 75, 103
3, 35196, Note_off_c, 1, 75, 65
3, 35204, Note_on_c, 1, 72, 103
3, 35224, Note_on_c, 1, 68, 103
3, 35232, Note_off_c, 1, 72, 65
3, 35244, Note_on_c, 1, 72, 103
3, 35252, Note_off_c, 1, 68, 65
3, 35272, Note_off_c, 1, 72, 65
3, 35276, Note_on_c, 1, 75, 103
3, 35304, Note_off_c, 1, 75, 65
3, 35328, Note_on_c, 1, 79, 103
3, 35356, Note_off_c, 1, 79, 65
3, 35360, Note_on_c, 1, 75, 103
3, 35388, Note_off_c, 1, 75, 65
3, 35396, Note_on_c, 1, 70, 103
3, 35416, Note_on_c, 1, 67, 103
3, 35424, Note_off_c, 1, 70, 65
3, 35436, Note_on_c, 1, 70, 103
3, 35444, Note_off_c, 1, 67, 65
3, 35464, Note_off_c, 1, 70, 65
3, 35468, Note_on_c, 1, 75, 103
3, 35496, Note_off_c, 1, 75, 65
3, 35520, Note_on_c, 1, 79, 103
3, 35548, Note_off_c, 1, 79, 65
3, 35552, Note_on_c, 1, 75, 103
3, 35580, Note_off_c, 1, 75, 65
3, 35588, Note_on_c, 1, 70, 103
3, 35608, Note_on_c, 1, 67, 103
3, 35616, Note_off_c, 1, 70, 65
3, 35628, Note_on_c, 1, 70, 103
3, 35636, Note_off_c, 1, 67, 65
3, 35656, Note_off_c, 1, 70, 65
3, 35660, Note_on_c, 1, 75, 103
3, 35688, Note_off_c, 1, 75, 65
3, 35712, Note_on_c, 1, 79, 103
3, 35740, Note_off_c, 1, 79, 65
3, 35744, Note_on_c, 1, 75, 103
3, 35772, Note_off_c, 1, 75, 65
3, 35780, Note_on_c, 1, 70, 103
3, 35800, Note_on_c, 1, 67, 103
3, 35808, Note_off_c, 1, 70, 65
3, 35820, Note_on_c, 1, 70, 103
3, 35828, Note_off_c, 1, 67, 65
3, 35848, Note_off_c, 1, 70, 65
3, 35852, Note_on_c, 1, 75, 103
3, 35880, Note_off_c, 1, 75, 65
3, 35904, Note_on_c, 1, 79, 103
3, 35932, Note_off_c, 1, 79, 65
3, 35936, Note_on_c, 1, 75, 103
3, 35964, Note_off_c, 1, 75, 65
3, 35972, Note_on_c, 1, 70, 103
3, 35992, Note_on_c, 1, 67, 103
3, 36000, Note_off_c, 1, 70, 65
3, 36000, Note_on_c, 1, 70, 103
3, 36020, Note_off_c, 1, 67, 65
3, 36028, Note_off_c, 1, 70, 65
3, 36032, Note_on_c, 1, 75, 103
3, 36060, Note_off_c, 1, 75, 65
3, 36096, Note_on_c, 1, 78, 103
3, 36124, Note_off_c, 1, 78, 65
3, 36128, Note_on_c, 1, 75, 103
3, 36156, Note_off_c, 1, 75, 65
3, 36164, Note_on_c, 1, 70, 103
3, 36184, Note_on_c, 1, 66, 103
3, 36192, Note_off_c, 1, 70, 65
3, 36204, Note_on_c, 1, 70, 103
3, 36212, Note_off_c, 1, 66, 65
3, 36232, Note_off_c, 1, 70, 65
3, 36236, Note_on_c, 1, 75, 103
3, 36264, Note_off_c, 1, 75, 65
3, 36288, Note_on_c, 1, 78, 103
3, 36316, Note_off_c, 1, 78, 65
3, 36320, Note_on_c, 1, 75, 103
3, 36348, Note_off_c, 1, 75, 65
3, 36356, Note_on_c, 1, 70, 103
3, 36376, Note_on_c, 1, 66, 103
3, 36384, Note_off_c, 1, 70, 65
3, 36396, Note_on_c, 1, 70, 103
3, 36404, Note_off_c, 1, 66, 65
3, 36424, Note_off_c, 1, 70, 65
3, 36428, Note_on_c, 1, 75, 103
3, 36456, Note_off_c, 1, 75, 65
3, 36480, Note_on_c, 1, 78, 103
3, 36508, Note_off_c, 1, 78, 65
3, 36512, Note_on_c, 1, 75, 103
3, 36540, Note_off_c, 1, 75, 65
3, 36548, Note_on_c, 1, 70, 103
3, 36568, Note_on_c, 1, 66, 103
3, 36576, Note_off_c, 1, 70, 65
3, 36588, Note_on_c, 1, 70, 103
3, 36596, Note_off_c, 1, 66, 65
3, 36616, Note_off_c, 1, 70, 65
3, 36620, Note_on_c, 1, 75, 103
3, 36648, Note_off_c, 1, 75, 65
3, 36672, Note_on_c, 1, 78, 103
3, 36700, Note_off_c, 1, 78, 65
3, 36704, Note_on_c, 1, 75, 103
3, 36732, Note_off_c, 1, 75, 65
3, 36740, Note_on_c, 1, 70, 103
3, 36760, Note_on_c, 1, 66, 103
3, 36768, Note_off_c, 1, 70, 65
3, 36768, Note_on_c, 1, 70, 103
3, 36788, Note_off_c, 1, 66, 65
3, 36796, Note_off_c, 1, 70, 65
3, 36800, Note_on_c, 1, 75, 103
3, 36828, Note_off_c, 1, 75, 65
3, 36864, Note_on_c, 1, 77, 103
3, 36892, Note_off_c, 1, 77, 65
3, 36896, Note_on_c, 1, 73, 103
3, 36924, Note_off_c, 1, 73, 65
3, 36932, Note_on_c, 1, 70, 103
3, 36952, Note_on_c, 1, 65, 103
3, 36960, Note_off_c, 1, 70, 65
3, 36972, Note_on_c, 1, 70, 103
3, 36980, Note_off_c, 1, 65, 65
3, 37000, Note_off_c, 1, 70, 65
3, 37004, Note_on_c, 1, 73, 103
3, 37032, Note_off_c, 1, 73, 65
3, 37056, Note_on_c, 1, 77, 103
3, 37084, Note_off_c, 1, 77, 65
3, 37088, Note_on_c, 1, 73, 103
3, 37116, Note_off_c, 1, 73, 65
3, 37124, Note_on_c, 1, 70, 103
3, 37144, Note_on_c, 1, 65, 103
3, 37152, Note_off_c, 1, 70, 65
3, 37164, Note_on_c, 1, 70, 103
3, 37172, Note_off_c, 1, 65, 65
3, 37192, Note_off_c, 1, 70, 65
3, 37196, Note_on_c, 1, 73, 103
3, 37224, Note_off_c, 1, 73, 65
3, 37248, Note_on_c, 1, 77, 103
3, 37276, Note_off_c, 1, 77, 65
3, 37280, Note_on_c, 1, 73, 103
3, 37308, Note_off_c, 1, 73, 65
3, 37316, Note_on_c, 1, 70, 103
3, 37336, Note_on_c, 1, 65, 103
3, 37344, Note_off_c, 1, 70, 65
3, 37356, Note_on_c, 1, 70, 103
3, 37364, Note_off_c, 1, 65, 65
3, 37384, Note_off_c, 1, 70, 65
3, 37388, Note_on_c, 1, 73, 103
3, 37416, Note_off_c, 1, 73, 65
3, 37440, Note_on_c, 1, 77, 103
3, 37468, Note_off_c, 1, 77, 65
3, 37472, Note_on_c, 1, 73, 103
3, 37500, Note_off_c, 1, 73, 65
3, 37508, Note_on_c, 1, 70, 103
3, 37528, Note_on_c, 1, 65, 103
3, 37536, Note_off_c, 1, 70, 65
3, 37548, Note_on_c, 1, 70, 103
3, 37556, Note_off_c, 1, 65, 65
3, 37576, Note_off_c, 1, 70, 65
3, 37580, Note_on_c, 1, 73, 103
3, 37608, Note_off_c, 1, 73, 65
3, 37632, Note_on_c, 1, 77, 103
3, 37660, Note_off_c, 1, 77, 65
3, 37664, Note_on_c, 1, 73, 101
3, 37692, Note_off_c, 1, 73, 65
3, 37700, Note_on_c, 1, 70, 99
3, 37720, Note_on_c, 1, 65, 98
3, 37728, Note_off_c, 1, 70, 65
3, 37740, Note_on_c, 1, 70, 97
3, 37748, Note_off_c, 1, 65, 65
3, 37768, Note_off_c, 1, 70, 65
3, 37772, Note_on_c, 1, 73, 95
3, 37800, Note_off_c, 1, 73, 65
3, 37824, Note_on_c, 1, 77, 92
3, 37852, Note_off_c, 1, 77, 65
3, 37856, Note_on_c, 1, 73, 91
3, 37884, Note_off_c, 1, 73, 65
3, 37892, Note_on_c, 1, 70, 89
3, 37912, Note_on_c, 1, 65, 88
3, 37920, Note_off_c, 1, 70, 65
3, 37932, Note_on_c, 1, 70, 87
3, 37940, Note_off_c, 1, 65, 65
3, 37960, Note_off_c, 1, 70, 65
3, 37964, Note_on_c, 1, 73, 85
3, 37992, Note_off_c, 1, 73, 65
3, 38016, Note_on_c, 1, 77, 82
3, 38044, Note_off_c, 1, 77, 65
3, 38048, Note_on_c, 1, 73, 81
3, 38076, Note_off_c, 1, 73, 65
3, 38084, Note_on_c, 1, 70, 79
3, 38104, Note_on_c, 1, 65, 78
3, 38112, Note_off_c, 1, 70, 65
3, 38124, Note_on_c, 1, 70, 77
3, 38132, Note_off_c, 1, 65, 65
3, 38152, Note_off_c, 1, 70, 65
3, 38156, Note_on_c, 1, 73, 75
3, 38184, Note_off_c, 1, 73, 65
3, 38208, Note_on_c, 1, 77, 72
3, 38236, Note_off_c, 1, 77, 65
3, 38240, Note_on_c, 1, 73, 71
3, 38268, Note_off_c, 1, 73, 65
3, 38276, Note_on_c, 1, 70, 69
3, 38296, Note_on_c, 1, 65, 67
3, 38304, Note_off_c, 1, 70, 65
3, 38316, Note_on_c, 1, 70, 66
3, 38324, Note_off_c, 1, 65, 65
3, 38344, Note_off_c, 1, 70, 65
3, 38348, Note_on_c, 1, 73, 64
3, 38376, Note_off_c, 1, 73, 65
3, 38400, Note_on_c, 1, 76, 61
3, 38428, Note_off_c, 1, 76, 65
3, 38432, Note_on_c, 1, 73, 61
3, 38460, Note_off_c, 1, 73, 65
3, 38468, Note_on_c, 1, 70, 62
3, 38488, Note_on_c, 1, 64, 62
3, 38496, Note_off_c, 1, 70, 65
3, 38508, Note_on_c, 1, 70, 62
3, 38516, Note_off_c, 1, 64, 65
3, 38536, Note_off_c, 1, 70, 65
3, 38540, Note_on_c, 1, 73, 63
3, 38568, Note_off_c, 1, 73, 65
3, 38592, Note_on_c, 1, 76, 64
3, 38620, Note_off_c, 1, 76, 65
3, 38624, Note_on_c, 1, 73, 64
3, 38652, Note_off_c, 1, 73, 65
3, 38660, Note_on_c, 1, 70, 65
3, 38680, Note_on_c, 1, 64, 65
3, 38688, Note_off_c, 1, 70, 65
3, 38700, Note_on_c, 1, 70, 66
3, 38708, Note_off_c, 1, 64, 65
3, 38728, Note_off_c, 1, 70, 65
3, 38732, Note_on_c, 1, 73, 66
3, 38760, Note_off_c, 1, 73, 65
3, 38784, Note_on_c, 1, 76, 67
3, 38812, Note_off_c, 1, 76, 65
3, 38816, Note_on_c, 1, 73, 69
3, 38844, Note_off_c, 1, 73, 65
3, 38852, Note_on_c, 1, 70, 69
3, 38872, Note_on_c, 1, 64, 70
3, 38880, Note_off_c, 1, 70, 65
3, 38892, Note_on_c, 1, 70, 70
3, 38900, Note_off_c, 1, 64, 65
3, 38920, Note_off_c, 1, 70, 65
3, 38924, Note_on_c, 1, 73, 71
3, 38952, Note_off_c, 1, 73, 65
3, 38976, Note_on_c, 1, 76, 72
3, 39004, Note_off_c, 1, 76, 65
3, 39008, Note_on_c, 1, 73, 72
3, 39036, Note_off_c, 1, 73, 65
3, 39044, Note_on_c, 1, 70, 73
3, 39064, Note_on_c, 1, 64, 73
3, 39072, Note_off_c, 1, 70, 65
3, 39084, Note_on_c, 1, 70, 73
3, 39092, Note_off_c, 1, 64, 65
3, 39112, Note_off_c, 1, 70, 65
3, 39116, Note_on_c, 1, 73, 74
3, 39144, Note_off_c, 1, 73, 65
3, 39168, Note_on_c, 1, 75, 75
3, 39196, Note_off_c, 1, 75, 65
3, 39200, Note_on_c, 1, 73, 75
3, 39228, Note_off_c, 1, 73, 65
3, 39236, Note_on_c, 1, 70, 76
3, 39256, Note_on_c, 1, 63, 76
3, 39264, Note_off_c, 1, 70, 65
3, 39276, Note_on_c, 1, 70, 77
3, 39284, Note_off_c, 1, 63, 65
3, 39304, Note_off_c, 1, 70, 65
3, 39308, Note_on_c, 1, 73, 77
3, 39336, Note_off_c, 1, 73, 65
3, 39360, Note_on_c, 1, 75, 78
3, 39388, Note_off_c, 1, 75, 65
3, 39392, Note_on_c, 1, 73, 79
3, 39420, Note_off_c, 1, 73, 65
3, 39428, Note_on_c, 1, 70, 79
3, 39448, Note_on_c, 1, 63, 80
3, 39456, Note_off_c, 1, 70, 65
3, 39468, Note_on_c, 1, 70, 80
3, 39476, Note_off_c, 1, 63, 65
3, 39496, Note_off_c, 1, 70, 65
3, 39500, Note_on_c, 1, 73, 81
3, 39528, Note_off_c, 1, 73, 65
3, 39552, Note_on_c, 1, 75, 82
3, 39580, Note_off_c, 1, 75, 65
3, 39584, Note_on_c, 1, 73, 81
3, 39612, Note_off_c, 1, 73, 65
3, 39620, Note_on_c, 1, 70, 79
3, 39640, Note_on_c, 1, 63, 78
3, 39648, Note_off_c, 1, 70, 65
3, 39660, Note_on_c, 1, 70, 77
3, 39668, Note_off_c, 1, 63, 65
3, 39688, Note_off_c, 1, 70, 65
3, 39692, Note_on_c, 1, 73, 75
3, 39720, Note_off_c, 1, 73, 65
3, 39744, Note_on_c, 1, 75, 72
3, 39772, Note_off_c, 1, 75, 65
3, 39776, Note_on_c, 1, 73, 71
3, 39804, Note_off_c, 1, 73, 65
3, 39812, Note_on_c, 1, 70, 69
3, 39832, Note_on_c, 1, 63, 67
3, 39840, Note_off_c, 1, 70, 65
3, 39852, Note_on_c, 1, 70, 66
3, 39860, Note_off_c, 1, 63, 65
3, 39880, Note_off_c, 1, 70, 65
3, 39884, Note_on_c, 1, 73, 64
3, 39912, Note_off_c, 1, 73, 65
3, 39936, Note_on_c, 1, 75, 61
3, 39964, Note_off_c, 1, 75, 65
3, 39968, Note_on_c, 1, 72, 61
3, 39996, Note_off_c, 1, 72, 65
3, 40004, Note_on_c, 1, 70, 61
3, 40024, Note_on_c, 1, 63, 61
3, 40032, Note_off_c, 1, 70, 65
3, 40044, Note_on_c, 1, 70, 61
3, 40052, Note_off_c, 1, 63, 65
3, 40072, Note_off_c, 1, 70, 65
3, 40076, Note_on_c, 1, 72, 61
3, 40104, Note_off_c, 1, 72, 65
3, 40128, Note_on_c, 1, 75, 61
3, 40156, Note_off_c, 1, 75, 65
3, 40160, Note_on_c, 1, 72, 61
3, 40188, Note_off_c, 1, 72, 65
3, 40196, Note_on_c, 1, 70, 61
3, 40216, Note_on_c, 1, 63, 61
3, 40224, Note_off_c, 1, 70, 65
3, 40236, Note_on_c, 1, 70, 61
3, 40244, Note_off_c, 1, 63, 65
3, 40264, Note_off_c, 1, 70, 65
3, 40268, Note_on_c, 1, 72, 61
3, 40296, Note_off_c, 1, 72, 65
3, 40320, Note_on_c, 1, 75, 61
3, 40348, Note_off_c, 1, 75, 65
3, 40352, Note_on_c, 1, 72, 61
3, 40380, Note_off_c, 1, 72, 65
3, 40388, Note_on_c, 1, 68, 61
3, 40408, Note_on_c, 1, 63, 61
3, 40416, Note_off_c, 1, 68, 65
3, 40428, Note_on_c, 1, 68, 61
3, 40436, Note_off_c, 1, 63, 65
3, 40456, Note_off_c, 1, 68, 65
3, 40460, Note_on_c, 1, 72, 61
3, 40488, Note_off_c, 1, 72, 65
3, 40512, Note_on_c, 1, 75, 61
3, 40540, Note_off_c, 1, 75, 65
3, 40544, Note_on_c, 1, 72, 61
3, 40572, Note_off_c, 1, 72, 65
3, 40580, Note_on_c, 1, 68, 61
3, 40600, Note_on_c, 1, 63, 61
3, 40608, Note_off_c, 1, 68, 65
3, 40620, Note_on_c, 1, 68, 61
3, 40628, Note_off_c, 1, 63, 65
3, 40648, Note_off_c, 1, 68, 65
3, 40652, Note_on_c, 1, 72, 61
3, 40680, Note_off_c, 1, 72, 65
3, 40704, Note_on_c, 1, 75, 51
3, 40732, Note_off_c, 1, 75, 65
3, 40736, Note_on_c, 1, 72, 51
3, 40764, Note_off_c, 1, 72, 65
3, 40772, Note_on_c, 1, 68, 51
3, 40792, Note_on_c, 1, 63, 51
3, 40800, Note_off_c, 1, 68, 65
3, 40812, Note_on_c, 1, 68, 51
3, 40820, Note_off_c, 1, 63, 65
3, 40840, Note_off_c, 1, 68, 65
3, 40844, Note_on_c, 1, 72, 51
3, 40872, Note_off_c, 1, 72, 65
3, 40896, Note_on_c, 1, 75, 51
3, 40924, Note_off_c, 1, 75, 65
3, 40928, Note_on_c, 1, 72, 51
3, 40956, Note_off_c, 1, 72, 65
3, 40964, Note_on_c, 1, 68, 51
3, 40984, Note_on_c, 1, 63, 51
3, 40992, Note_off_c, 1, 68, 65
3, 41004, Note_on_c, 1, 68, 51
3, 41012, Note_off_c, 1, 63, 65
3, 41032, Note_off_c, 1, 68, 65
3, 41036, Note_on_c, 1, 72, 51
3, 41064, Note_off_c, 1, 72, 65
3, 41088, Note_on_c, 1, 75, 51
3, 41116, Note_off_c, 1, 75, 65
3, 41120, Note_on_c, 1, 72, 51
3, 41148, Note_off_c, 1, 72, 65
3, 41156, Note_on_c, 1, 67, 51
3, 41176, Note_on_c, 1, 61, 51
3, 41184, Note_off_c, 1, 67, 65
3, 41196, Note_on_c, 1, 67, 51
3, 41204, Note_off_c, 1, 61, 65
3, 41224, Note_off_c, 1, 67, 65
3, 41228, Note_on_c, 1, 72, 51
3, 41256, Note_off_c, 1, 72, 65
3, 41280, Note_on_c, 1, 75, 51
3, 41308, Note_off_c, 1, 75, 65
3, 41312, Note_on_c, 1, 72, 51
3, 41340, Note_off_c, 1, 72, 65
3, 41348, Note_on_c, 1, 67, 51
3, 41368, Note_on_c, 1, 61, 51
3, 41376, Note_off_c, 1, 67, 65
3, 41388, Note_on_c, 1, 67, 51
3, 41396, Note_off_c, 1, 61, 65
3, 41416, Note_off_c, 1, 67, 65
3, 41420, Note_on_c, 1, 72, 51
3, 41448, Note_off_c, 1, 72, 65
3, 41472, Note_on_c, 1, 60, 61
3, 41564, Note_off_c, 1, 60, 65
3, 41568, Note_on_c, 1, 60, 61
3, 41568, Note_on_c, 1, 56, 61
3, 41660, Note_off_c, 1, 60, 65
3, 41660, Note_off_c, 1, 56, 65
3, 41664, Note_on_c, 1, 63, 61
3, 41756, Note_off_c, 1, 63, 65
3, 41760, Note_on_c, 1, 63, 61
3, 41852, Note_off_c, 1, 63, 65
3, 41952, Note_on_c, 1, 57, 61
3, 41952, Note_on_c, 1, 51, 61
3, 42044, Note_off_c, 1, 57, 65
3, 42044, Note_off_c, 1, 51, 65
3, 42048, Note_on_c, 1, 63, 61
3, 42140, Note_off_c, 1, 63, 65
3, 42144, Note_on_c, 1, 63, 61
3, 42236, Note_off_c, 1, 63, 65
3, 42336, Note_on_c, 1, 61, 61
3, 42336, Note_on_c, 1, 58, 61
3, 42336, Note_on_c, 1, 51, 61
3, 42428, Note_off_c, 1, 61, 65
3, 42428, Note_off_c, 1, 58, 65
3, 42428, Note_off_c, 1, 51, 65
3, 42432, Note_on_c, 1, 63, 61
3, 42524, Note_off_c, 1, 63, 65
3, 42528, Note_on_c, 1, 63, 61
3, 42620, Note_off_c, 1, 63, 65
3, 42720, Note_on_c, 1, 60, 61
3, 42720, Note_on_c, 1, 57, 61
3, 42720, Note_on_c, 1, 51, 61
3, 42812, Note_off_c, 1, 60, 65
3, 42812, Note_off_c, 1, 57, 65
3, 42812, Note_off_c, 1, 51, 65
3, 42816, Note_on_c, 1, 63, 61
3, 42908, Note_off_c, 1, 63, 65
3, 42912, Note_on_c, 1, 63, 61
3, 43004, Note_off_c, 1, 63, 65
3, 43104, Note_on_c, 1, 53, 61
3, 43104, Note_on_c, 1, 58, 61
3, 43196, Note_off_c, 1, 53, 65
3, 43196, Note_off_c, 1, 58, 65
3, 43200, Note_on_c, 1, 61, 61
3, 43292, Note_off_c, 1, 61, 65
3, 43296, Note_on_c, 1, 61, 61
3, 43388, Note_off_c, 1, 61, 65
3, 43488, Note_on_c, 1, 61, 61
3, 43488, Note_on_c, 1, 58, 61
3, 43580, Note_off_c, 1, 61, 65
3, 43580, Note_off_c, 1, 58, 65
3, 43584, Note_on_c, 1, 65, 61
3, 43676, Note_off_c, 1, 65, 65
3, 43680, Note_on_c, 1, 65, 61
3, 43772, Note_off_c, 1, 65, 65
3, 43872, Note_on_c, 1, 63, 61
3, 43872, Note_on_c, 1, 60, 61
3, 43964, Note_off_c, 1, 63, 65
3, 43964, Note_off_c, 1, 60, 65
3, 43968, Note_on_c, 1, 68, 61
3, 44060, Note_off_c, 1, 68, 65
3, 44064, Note_on_c, 1, 72, 61
3, 44156, Note_off_c, 1, 72, 65
3, 44256, Note_on_c, 1, 61, 61
3, 44256, Note_on_c, 1, 63, 61
3, 44348, Note_off_c, 1, 61, 65
3, 44348, Note_off_c, 1, 63, 65
3, 44352, Note_on_c, 1, 67, 61
3, 44444, Note_off_c, 1, 67, 65
3, 44448, Note_on_c, 1, 70, 61
3, 44540, Note_off_c, 1, 70, 65
3, 44544, Note_on_c, 1, 63, 113
3, 44636, Note_off_c, 1, 63, 65
3, 44640, Note_on_c, 1, 75, 113
3, 45312, Note_on_c, 1, 73, 113
3, 45404, Note_off_c, 1, 75, 65
3, 45500, Note_off_c, 1, 73, 65
3, 45632, Note_on_c, 1, 70, 113
3, 45692, Note_off_c, 1, 70, 65
3, 45696, Note_on_c, 1, 72, 113
3, 45884, Note_off_c, 1, 72, 65
3, 46016, Note_on_c, 1, 69, 113
3, 46076, Note_off_c, 1, 69, 65
3, 46080, Note_on_c, 1, 65, 113
3, 46080, Note_on_c, 1, 77, 113
3, 46844, Note_off_c, 1, 65, 65
3, 46844, Note_off_c, 1, 77, 65
3, 46848, Note_on_c, 1, 63, 113
3, 46848, Note_on_c, 1, 75, 113
3, 47036, Note_off_c, 1, 75, 65
3, 47168, Note_on_c, 1, 72, 113
3, 47228, Note_off_c, 1, 63, 65
3, 47228, Note_off_c, 1, 72, 65
3, 47232, Note_on_c, 1, 67, 113
3, 47232, Note_on_c, 1, 74, 113
3, 47420, Note_off_c, 1, 74, 65
3, 47552, Note_on_c, 1, 71, 113
3, 47612, Note_off_c, 1, 67, 65
3, 47612, Note_off_c, 1, 71, 65
3, 47616, Note_on_c, 1, 79, 113
3, 47616, Note_on_c, 1, 67, 113
3, 48380, Note_off_c, 1, 79, 65
3, 48380, Note_off_c, 1, 67, 65
3, 48384, Note_on_c, 1, 77, 113
3, 48384, Note_on_c, 1, 65, 113
3, 48668, Note_off_c, 1, 77, 65
3, 48668, Note_off_c, 1, 65, 65
3, 48704, Note_on_c, 1, 74, 113
3, 48764, Note_off_c, 1, 74, 65
3, 48768, Note_on_c, 1, 76, 113
3, 49052, Note_off_c, 1, 76, 65
3, 49088, Note_on_c, 1, 73, 113
3, 49148, Note_off_c, 1, 73, 65
3, 49220, Note_on_c, 1, 73, 113
3, 49244, Note_on_c, 1, 70, 113
3, 49268, Note_on_c, 1, 76, 113
3, 49292, Note_on_c, 1, 82, 113
3, 49408, Note_off_c, 1, 73, 65
3, 49432, Note_off_c, 1, 70, 65
3, 49456, Note_off_c, 1, 76, 65
3, 49480, Note_off_c, 1, 82, 65
3, 50112, Note_on_c, 1, 82, 61
3, 50112, Note_on_c, 1, 72, 61
3, 50112, Note_on_c, 1, 70, 61
3, 50112, Note_on_c, 1, 67, 61
3, 50300, Note_off_c, 1, 82, 65
3, 50300, Note_off_c, 1, 72, 65
3, 50300, Note_off_c, 1, 70, 65
3, 50300, Note_off_c, 1, 67, 65
3, 50304, Note_on_c, 1, 74, 61
3, 50304, Note_on_c, 1, 81, 61
3, 50304, Note_on_c, 1, 69, 61
3, 50304, Note_on_c, 1, 65, 61
3, 50492, Note_off_c, 1, 74, 65
3, 50492, Note_off_c, 1, 81, 65
3, 50492, Note_off_c, 1, 69, 65
3, 50492, Note_off_c, 1, 65, 65
3, 50496, Note_on_c, 1, 79, 61
3, 50496, Note_on_c, 1, 72, 61
3, 50496, Note_on_c, 1, 67, 61
3, 50496, Note_on_c, 1, 64, 61
3, 50684, Note_off_c, 1, 79, 65
3, 50684, Note_off_c, 1, 72, 65
3, 50684, Note_off_c, 1, 67, 65
3, 50684, Note_off_c, 1, 64, 65
3, 50688, Note_on_c, 1, 77, 61
3, 50688, Note_on_c, 1, 74, 61
3, 50688, Note_on_c, 1, 69, 61
3, 50688, Note_on_c, 1, 62, 61
3, 51068, Note_off_c, 1, 77, 65
3, 51068, Note_off_c, 1, 74, 65
3, 51068, Note_off_c, 1, 69, 65
3, 51068, Note_off_c, 1, 62, 65
3, 51648, Note_on_c, 1, 78, 61
3, 51648, Note_on_c, 1, 74, 61
3, 51648, Note_on_c, 1, 72, 61
3, 51648, Note_on_c, 1, 69, 61
3, 51776, Note_off_c, 1, 78, 65
3, 51776, Note_off_c, 1, 74, 65
3, 51776, Note_off_c, 1, 72, 65
3, 51776, Note_off_c, 1, 69, 65
3, 51840, Note_on_c, 1, 79, 61
3, 51840, Note_on_c, 1, 74, 61
3, 51840, Note_on_c, 1, 70, 61
3, 51968, Note_off_c, 1, 79, 65
3, 51968, Note_off_c, 1, 74, 65
3, 51968, Note_off_c, 1, 70, 65
3, 52032, Note_on_c, 1, 81, 61
3, 52032, Note_on_c, 1, 74, 61
3, 52032, Note_on_c, 1, 72, 61
3, 52032, Note_on_c, 1, 69, 61
3, 52032, Note_on_c, 1, 66, 61
3, 52160, Note_off_c, 1, 81, 65
3, 52160, Note_off_c, 1, 74, 65
3, 52160, Note_off_c, 1, 72, 65
3, 52160, Note_off_c, 1, 69, 65
3, 52160, Note_off_c, 1, 66, 65
3, 52224, Note_on_c, 1, 82, 61
3, 52224, Note_on_c, 1, 74, 61
3, 52224, Note_on_c, 1, 70, 61
3, 52224, Note_on_c, 1, 67, 61
3, 52480, Note_off_c, 1, 74, 65
3, 52480, Note_off_c, 1, 70, 65
3, 52480, Note_off_c, 1, 67, 65
3, 53184, Note_on_c, 1, 86, 61
3, 53184, Note_on_c, 1, 74, 61
3, 53184, Note_on_c, 1, 68, 61
3, 53184, Note_on_c, 1, 65, 61
3, 53372, Note_off_c, 1, 86, 65
3, 53372, Note_off_c, 1, 74, 65
3, 53372, Note_off_c, 1, 68, 65
3, 53372, Note_off_c, 1, 65, 65
3, 53376, Note_on_c, 1, 84, 61
3, 53376, Note_on_c, 1, 72, 61
3, 53376, Note_on_c, 1, 67, 61
3, 53376, Note_on_c, 1, 63, 61
3, 53564, Note_off_c, 1, 84, 65
3, 53564, Note_off_c, 1, 72, 65
3, 53564, Note_off_c, 1, 67, 65
3, 53564, Note_off_c, 1, 63, 65
3, 53568, Note_on_c, 1, 83, 61
3, 53568, Note_on_c, 1, 71, 61
3, 53568, Note_on_c, 1, 65, 61
3, 53568, Note_on_c, 1, 62, 61
3, 53756, Note_off_c, 1, 82, 65
3, 53756, Note_off_c, 1, 83, 65
3, 53756, Note_off_c, 1, 71, 65
3, 53756, Note_off_c, 1, 65, 65
3, 53756, Note_off_c, 1, 62, 65
3, 53760, Note_on_c, 1, 84, 61
3, 53760, Note_on_c, 1, 72, 61
3, 53760, Note_on_c, 1, 67, 61
3, 53760, Note_on_c, 1, 63, 61
3, 53948, Note_off_c, 1, 84, 65
3, 53948, Note_off_c, 1, 72, 65
3, 53948, Note_off_c, 1, 67, 65
3, 53948, Note_off_c, 1, 63, 65
3, 53952, Note_on_c, 1, 86, 61
3, 53952, Note_on_c, 1, 74, 61
3, 53952, Note_on_c, 1, 68, 61
3, 53952, Note_on_c, 1, 65, 61
3, 54140, Note_off_c, 1, 86, 65
3, 54140, Note_off_c, 1, 74, 65
3, 54140, Note_off_c, 1, 68, 65
3, 54140, Note_off_c, 1, 65, 65
3, 54144, Note_on_c, 1, 84, 61
3, 54144, Note_on_c, 1, 72, 61
3, 54144, Note_on_c, 1, 67, 61
3, 54144, Note_on_c, 1, 63, 61
3, 54332, Note_off_c, 1, 84, 65
3, 54332, Note_off_c, 1, 72, 65
3, 54332, Note_off_c, 1, 67, 65
3, 54332, Note_off_c, 1, 63, 65
3, 54336, Note_on_c, 1, 83, 61
3, 54336, Note_on_c, 1, 71, 61
3, 54336, Note_on_c, 1, 65, 61
3, 54336, Note_on_c, 1, 62, 61
3, 54524, Note_off_c, 1, 83, 65
3, 54524, Note_off_c, 1, 71, 65
3, 54524, Note_off_c, 1, 65, 65
3, 54524, Note_off_c, 1, 62, 65
3, 54528, Note_on_c, 1, 84, 61
3, 54528, Note_on_c, 1, 72, 61
3, 54528, Note_on_c, 1, 67, 61
3, 54528, Note_on_c, 1, 63, 61
3, 54716, Note_off_c, 1, 84, 65
3, 54716, Note_off_c, 1, 72, 65
3, 54716, Note_off_c, 1, 67, 65
3, 54716, Note_off_c, 1, 63, 65
3, 54720, Note_on_c, 1, 82, 61
3, 54720, Note_on_c, 1, 70, 61
3, 54720, Note_on_c, 1, 65, 61
3, 54720, Note_on_c, 1, 62, 61
3, 54908, Note_off_c, 1, 82, 65
3, 54908, Note_off_c, 1, 70, 65
3, 54908, Note_off_c, 1, 65, 65
3, 54908, Note_off_c, 1, 62, 65
3, 54912, Note_on_c, 1, 81, 61
3, 54912, Note_on_c, 1, 69, 61
3, 54912, Note_on_c, 1, 63, 61
3, 54912, Note_on_c, 1, 60, 61
3, 55100, Note_off_c, 1, 81, 65
3, 55100, Note_off_c, 1, 69, 65
3, 55100, Note_off_c, 1, 63, 65
3, 55100, Note_off_c, 1, 60, 65
3, 55104, Note_on_c, 1, 79, 61
3, 55104, Note_on_c, 1, 67, 61
3, 55104, Note_on_c, 1, 64, 61
3, 55104, Note_on_c, 1, 61, 61
3, 55292, Note_off_c, 1, 79, 65
3, 55292, Note_off_c, 1, 67, 65
3, 55292, Note_off_c, 1, 64, 65
3, 55292, Note_off_c, 1, 61, 65
3, 55296, Note_on_c, 1, 78, 103
3, 55296, Note_on_c, 1, 66, 103
3, 55424, Note_off_c, 1, 78, 65
3, 55424, Note_off_c, 1, 66, 65
3, 55680, Note_on_c, 1, 75, 103
3, 55680, Note_on_c, 1, 75, 103
3, 55872, Note_off_c, 1, 75, 65
3, 55936, Note_off_c, 1, 75, 65
3, 55968, Note_on_c, 1, 74, 103
3, 55968, Note_on_c, 1, 75, 103
3, 56032, Note_off_c, 1, 74, 65
3, 56064, Note_on_c, 1, 72, 103
3, 56096, Note_off_c, 1, 75, 65
3, 56128, Note_off_c, 1, 72, 65
3, 56192, Note_on_c, 1, 70, 103
3, 56224, Note_off_c, 1, 70, 65
3, 56256, Note_on_c, 1, 69, 103
3, 56256, Note_on_c, 1, 75, 103
3, 56256, Note_on_c, 1, 72, 103
3, 56320, Note_off_c, 1, 69, 65
3, 56384, Note_off_c, 1, 75, 65
3, 56384, Note_off_c, 1, 72, 65
3, 56384, Note_on_c, 1, 67, 103
3, 56416, Note_off_c, 1, 67, 65
3, 56448, Note_on_c, 1, 66, 103
3, 56448, Note_on_c, 1, 75, 103
3, 56448, Note_on_c, 1, 72, 103
3, 56576, Note_off_c, 1, 66, 65
3, 56576, Note_off_c, 1, 75, 65
3, 56576, Note_off_c, 1, 72, 65
3, 56640, Note_on_c, 1, 67, 103
3, 56640, Note_on_c, 1, 75, 103
3, 56640, Note_on_c, 1, 72, 103
3, 56768, Note_off_c, 1, 67, 65
3, 56768, Note_off_c, 1, 75, 65
3, 56768, Note_off_c, 1, 72, 65
3, 56832, Note_on_c, 1, 75, 103
3, 56832, Note_on_c, 1, 72, 103
3, 56832, Note_on_c, 1, 69, 103
3, 56960, Note_off_c, 1, 75, 65
3, 57024, Note_on_c, 1, 74, 103
3, 57088, Note_off_c, 1, 72, 65
3, 57088, Note_off_c, 1, 69, 65
3, 57152, Note_off_c, 1, 74, 65
3, 57600, Note_on_c, 1, 75, 103
3, 57664, Note_off_c, 1, 75, 65
3, 57728, Note_on_c, 1, 74, 103
3, 57760, Note_off_c, 1, 74, 65
3, 57792, Note_on_c, 1, 72, 103
3, 57792, Note_on_c, 1, 75, 103
3, 57856, Note_off_c, 1, 72, 65
3, 57920, Note_off_c, 1, 75, 65
3, 57920, Note_on_c, 1, 70, 103
3, 57952, Note_off_c, 1, 70, 65
3, 57984, Note_on_c, 1, 69, 103
3, 57984, Note_on_c, 1, 75, 103
3, 57984, Note_on_c, 1, 72, 103
3, 58112, Note_off_c, 1, 69, 65
3, 58112, Note_off_c, 1, 75, 65
3, 58112, Note_off_c, 1, 72, 65
3, 58176, Note_on_c, 1, 67, 103
3, 58176, Note_on_c, 1, 75, 103
3, 58176, Note_on_c, 1, 72, 103
3, 58304, Note_off_c, 1, 67, 65
3, 58304, Note_off_c, 1, 75, 65
3, 58304, Note_off_c, 1, 72, 65
3, 58368, Note_on_c, 1, 75, 103
3, 58560, Note_off_c, 1, 75, 65
3, 58688, Note_on_c, 1, 74, 103
3, 58720, Note_off_c, 1, 74, 65
3, 58752, Note_on_c, 1, 74, 103
3, 58880, Note_off_c, 1, 74, 65
3, 59840, Note_on_c, 1, 62, 103
3, 59840, Note_on_c, 1, 69, 103
3, 59840, Note_on_c, 1, 72, 103
3, 59844, Note_on_c, 1, 78, 103
3, 59872, Note_off_c, 1, 62, 65
3, 59872, Note_off_c, 1, 69, 65
3, 59872, Note_off_c, 1, 72, 65
3, 59876, Note_off_c, 1, 78, 65
3, 59904, Note_on_c, 1, 78, 103
3, 59904, Note_on_c, 1, 72, 103
3, 59904, Note_on_c, 1, 69, 103
3, 59904, Note_on_c, 1, 62, 103
3, 60096, Note_off_c, 1, 78, 65
3, 60096, Note_off_c, 1, 72, 65
3, 60096, Note_off_c, 1, 69, 65
3, 60096, Note_off_c, 1, 62, 65
3, 60224, Note_on_c, 1, 79, 103
3, 60224, Note_on_c, 1, 70, 103
3, 60224, Note_on_c, 1, 67, 103
3, 60224, Note_on_c, 1, 63, 103
3, 60256, Note_off_c, 1, 79, 65
3, 60256, Note_off_c, 1, 70, 65
3, 60256, Note_off_c, 1, 67, 65
3, 60256, Note_off_c, 1, 63, 65
3, 60288, Note_on_c, 1, 79, 103
3, 60288, Note_on_c, 1, 70, 103
3, 60288, Note_on_c, 1, 67, 103
3, 60288, Note_on_c, 1, 63, 103
3, 60416, Note_off_c, 1, 79, 65
3, 60416, Note_off_c, 1, 70, 65
3, 60416, Note_off_c, 1, 67, 65
3, 60416, Note_off_c, 1, 63, 65
3, 61376, Note_on_c, 1, 73, 103
3, 61376, Note_on_c, 1, 70, 103
3, 61376, Note_on_c, 1, 67, 103
3, 61408, Note_off_c, 1, 73, 65
3, 61408, Note_off_c, 1, 70, 65
3, 61408, Note_off_c, 1, 67, 65
3, 61440, Note_on_c, 1, 73, 103
3, 61440, Note_on_c, 1, 70, 103
3, 61440, Note_on_c, 1, 67, 103
3, 61952, Note_off_c, 1, 73, 65
3, 61952, Note_off_c, 1, 70, 65
3, 61952, Note_off_c, 1, 67, 65
3, 62208, Note_on_c, 1, 74, 77
3, 62208, Note_on_c, 1, 70, 77
3, 62208, Note_on_c, 1, 67, 77
3, 62336, Note_off_c, 1, 74, 65
3, 62336, Note_off_c, 1, 70, 65
3, 62336, Note_off_c, 1, 67, 65
3, 62592, Note_on_c, 1, 66, 64
3, 62592, Note_on_c, 1, 60, 64
3, 62592, Note_on_c, 1, 57, 64
3, 62720, Note_off_c, 1, 66, 65
3, 62720, Note_off_c, 1, 60, 65
3, 62720, Note_off_c, 1, 57, 65
3, 62976, Note_on_c, 1, 67, 51
3, 62976, Note_on_c, 1, 58, 51
3, 63232, Note_off_c, 1, 67, 65
3, 63232, Note_off_c, 1, 58, 65
3, 64832, Note_on_c, 1, 67, 51
3, 64832, Note_on_c, 1, 58, 51
3, 64832, Note_on_c, 1, 55, 51
3, 64864, Note_off_c, 1, 67, 65
3, 64864, Note_off_c, 1, 58, 65
3, 64864, Note_off_c, 1, 55, 65
3, 64896, Note_on_c, 1, 67, 51
3, 64896, Note_on_c, 1, 58, 51
3, 64896, Note_on_c, 1, 55, 51
3, 65364, Note_off_c, 1, 67, 65
3, 65364, Note_off_c, 1, 58, 65
3, 65364, Note_off_c, 1, 55, 65
3, 65664, Note_on_c, 1, 66, 51
3, 65664, Note_on_c, 1, 60, 51
3, 65664, Note_on_c, 1, 57, 51
3, 65792, Note_off_c, 1, 66, 65
3, 65792, Note_off_c, 1, 60, 65
3, 65792, Note_off_c, 1, 57, 65
3, 67584, Note_on_c, 1, 67, 61
3, 67584, Note_on_c, 1, 65, 61
3, 67584, Note_on_c, 1, 62, 61
3, 67584, Note_on_c, 1, 59, 61
3, 68348, Note_off_c, 1, 67, 65
3, 68348, Note_off_c, 1, 65, 65
3, 68348, Note_off_c, 1, 62, 65
3, 68348, Note_off_c, 1, 59, 65
3, 68736, Note_on_c, 1, 67, 61
3, 68736, Note_on_c, 1, 63, 61
3, 68736, Note_on_c, 1, 60, 61
3, 69884, Note_off_c, 1, 67, 65
3, 69884, Note_off_c, 1, 63, 65
3, 69884, Note_off_c, 1, 60, 65
3, 69888, Note_on_c, 1, 66, 61
3, 69888, Note_on_c, 1, 60, 61
3, 69888, Note_on_c, 1, 57, 61
3, 71036, Note_off_c, 1, 66, 65
3, 71036, Note_off_c, 1, 60, 65
3, 71036, Note_off_c, 1, 57, 65
3, 71040, Note_on_c, 1, 67, 61
3, 71040, Note_on_c, 1, 62, 61
3, 71040, Note_on_c, 1, 58, 61
3, 71420, Note_off_c, 1, 67, 65
3, 71420, Note_off_c, 1, 62, 65
3, 71420, Note_off_c, 1, 58, 65
3, 71808, Note_on_c, 1, 74, 61
3, 72188, Note_off_c, 1, 74, 65
3, 72192, Note_on_c, 1, 74, 61
3, 72192, Note_on_c, 1, 72, 61
3, 72192, Note_on_c, 1, 69, 61
3, 72956, Note_off_c, 1, 74, 65
3, 72956, Note_off_c, 1, 72, 65
3, 72956, Note_off_c, 1, 69, 65
3, 72960, Note_on_c, 1, 76, 61
3, 73148, Note_off_c, 1, 76, 65
3, 73152, Note_on_c, 1, 78, 61
3, 73340, Note_off_c, 1, 78, 65
3, 73344, Note_on_c, 1, 79, 61
3, 73344, Note_on_c, 1, 70, 61
3, 73344, Note_on_c, 1, 67, 61
3, 73724, Note_off_c, 1, 79, 65
3, 73728, Note_on_c, 1, 81, 61
3, 74108, Note_off_c, 1, 81, 65
3, 74112, Note_on_c, 1, 82, 61
3, 74492, Note_off_c, 1, 70, 65
3, 74492, Note_off_c, 1, 67, 65
3, 74492, Note_off_c, 1, 82, 65
3, 74496, Note_on_c, 1, 67, 61
3, 74496, Note_on_c, 1, 63, 61
3, 74496, Note_on_c, 1, 73, 61
3, 74496, Note_on_c, 1, 82, 61
3, 74876, Note_off_c, 1, 82, 65
3, 74880, Note_on_c, 1, 81, 61
3, 75260, Note_off_c, 1, 81, 65
3, 75264, Note_on_c, 1, 79, 61
3, 75552, Note_off_c, 1, 79, 65
3, 75644, Note_off_c, 1, 67, 65
3, 75644, Note_off_c, 1, 63, 65
3, 75644, Note_off_c, 1, 73, 65
3, 75648, Note_on_c, 1, 78, 61
3, 75648, Note_on_c, 1, 74, 61
3, 75648, Note_on_c, 1, 69, 61
3, 75648, Note_on_c, 1, 62, 61
3, 75772, Note_off_c, 1, 78, 65
3, 75772, Note_off_c, 1, 74, 65
3, 75772, Note_off_c, 1, 69, 65
3, 75772, Note_off_c, 1, 62, 65
3, 76800, Note_on_c, 1, 62, 61
3, 76800, Note_on_c, 1, 57, 61
3, 77948, Note_off_c, 1, 62, 65
3, 77948, Note_off_c, 1, 57, 65
3, 77952, Note_on_c, 1, 62, 61
3, 77952, Note_on_c, 1, 58, 61
3, 78332, Note_off_c, 1, 62, 65
3, 78332, Note_off_c, 1, 58, 65
3, 78720, Note_on_c, 1, 74, 61
3, 79100, Note_off_c, 1, 74, 65
3, 79104, Note_on_c, 1, 74, 61
3, 79484, Note_off_c, 1, 74, 65
3, 79488, Note_on_c, 1, 75, 61
3, 79868, Note_off_c, 1, 75, 65
3, 79872, Note_on_c, 1, 72, 61
3, 80252, Note_off_c, 1, 72, 65
3, 80256, Note_on_c, 1, 70, 61
3, 80636, Note_off_c, 1, 70, 65
3, 81408, Note_on_c, 1, 67, 61
3, 81408, Note_on_c, 1, 62, 61
3, 82556, Note_off_c, 1, 67, 65
3, 82556, Note_off_c, 1, 62, 65
3, 82560, Note_on_c, 1, 67, 61
3, 82560, Note_on_c, 1, 63, 61
3, 83132, Note_off_c, 1, 67, 65
3, 83132, Note_off_c, 1, 63, 65
3, 83328, Note_on_c, 1, 79, 61
3, 83708, Note_off_c, 1, 79, 65
3, 83712, Note_on_c, 1, 79, 61
3, 83712, Note_on_c, 1, 67, 61
3, 83712, Note_on_c, 1, 59, 61
3, 84092, Note_off_c, 1, 79, 65
3, 84096, Note_on_c, 1, 80, 61
3, 84476, Note_off_c, 1, 80, 65
3, 84480, Note_on_c, 1, 77, 61
3, 84860, Note_off_c, 1, 67, 65
3, 84860, Note_off_c, 1, 59, 65
3, 84860, Note_off_c, 1, 77, 65
3, 84864, Note_on_c, 1, 67, 61
3, 84864, Note_on_c, 1, 60, 61
3, 84864, Note_on_c, 1, 77, 61
3, 85244, Note_off_c, 1, 77, 65
3, 85248, Note_on_c, 1, 75, 61
3, 85628, Note_off_c, 1, 67, 65
3, 85628, Note_off_c, 1, 60, 65
3, 85628, Note_off_c, 1, 75, 65
3, 85632, Note_on_c, 1, 74, 61
3, 85632, Note_on_c, 1, 67, 61
3, 85632, Note_on_c, 1, 62, 61
3, 86012, Note_off_c, 1, 74, 65
3, 86012, Note_off_c, 1, 67, 65
3, 86012, Note_off_c, 1, 62, 65
3, 86016, Note_on_c, 1, 74, 61
3, 86016, Note_on_c, 1, 67, 61
3, 86016, Note_on_c, 1, 63, 61
3, 86268, Note_off_c, 1, 67, 65
3, 86268, Note_off_c, 1, 63, 65
3, 86396, Note_off_c, 1, 74, 65
3, 86400, Note_on_c, 1, 72, 61
3, 86656, Note_off_c, 1, 72, 65
3, 86784, Note_on_c, 1, 70, 61
3, 86784, Note_on_c, 1, 67, 61
3, 86784, Note_on_c, 1, 62, 61
3, 86908, Note_off_c, 1, 70, 65
3, 86908, Note_off_c, 1, 67, 65
3, 86908, Note_off_c, 1, 62, 65
3, 87072, Note_on_c, 1, 70, 61
3, 87116, Note_off_c, 1, 70, 65
3, 87168, Note_on_c, 1, 69, 61
3, 87168, Note_on_c, 1, 67, 61
3, 87168, Note_on_c, 1, 61, 61
3, 87548, Note_off_c, 1, 69, 65
3, 87548, Note_off_c, 1, 67, 65
3, 87548, Note_off_c, 1, 61, 65
3, 88704, Note_on_c, 1, 69, 61
3, 88704, Note_on_c, 1, 67, 61
3, 88704, Note_on_c, 1, 63, 61
3, 88704, Note_on_c, 1, 61, 61
3, 88828, Note_off_c, 1, 69, 65
3, 88828, Note_off_c, 1, 67, 65
3, 88828, Note_off_c, 1, 63, 65
3, 88828, Note_off_c, 1, 61, 65
3, 89088, Note_on_c, 1, 69, 61
3, 89088, Note_on_c, 1, 67, 61
3, 89088, Note_on_c, 1, 63, 61
3, 89088, Note_on_c, 1, 61, 61
3, 89212, Note_off_c, 1, 69, 65
3, 89212, Note_off_c, 1, 67, 65
3, 89212, Note_off_c, 1, 63, 65
3, 89212, Note_off_c, 1, 61, 65
3, 89472, Note_on_c, 1, 70, 61
3, 89472, Note_on_c, 1, 67, 61
3, 89472, Note_on_c, 1, 62, 61
3, 90236, Note_off_c, 1, 70, 65
3, 90240, Note_on_c, 1, 74, 61
3, 90620, Note_off_c, 1, 67, 65
3, 90620, Note_off_c, 1, 62, 65
3, 90620, Note_off_c, 1, 74, 65
3, 91008, Note_on_c, 1, 62, 61
3, 91132, Note_off_c, 1, 62, 65
3, 91392, Note_on_c, 1, 66, 61
3, 91516, Note_off_c, 1, 66, 65
3, 91776, Note_on_c, 1, 67, 61
3, 92032, Note_off_c, 1, 67, 65
3, 92928, Note_on_c, 1, 67, 61
3, 92928, Note_on_c, 1, 64, 61
3, 92928, Note_on_c, 1, 57, 61
3, 93696, Note_off_c, 1, 67, 65
3, 93696, Note_off_c, 1, 64, 65
3, 93696, Note_off_c, 1, 57, 65
3, 94080, Note_on_c, 1, 70, 61
3, 94080, Note_on_c, 1, 62, 61
3, 94080, Note_on_c, 1, 58, 61
3, 94336, Note_off_c, 1, 70, 65
3, 94336, Note_off_c, 1, 62, 65
3, 94336, Note_off_c, 1, 58, 65
3, 95232, Note_on_c, 1, 66, 61
3, 95232, Note_on_c, 1, 60, 61
3, 95232, Note_on_c, 1, 57, 61
3, 95488, Note_off_c, 1, 66, 65
3, 95488, Note_off_c, 1, 60, 65
3, 95488, Note_off_c, 1, 57, 65
3, 96384, Note_on_c, 1, 58, 103
3, 96512, Note_on_c, 1, 62, 103
3, 96516, Note_off_c, 1, 58, 65
3, 96644, Note_off_c, 1, 62, 65
3, 96644, Note_on_c, 1, 67, 103
3, 96768, Note_on_c, 1, 58, 103
3, 96776, Note_off_c, 1, 67, 65
3, 96896, Note_on_c, 1, 62, 103
3, 96900, Note_off_c, 1, 58, 65
3, 97024, Note_on_c, 1, 67, 103
3, 97028, Note_off_c, 1, 62, 65
3, 97152, Note_on_c, 1, 58, 103
3, 97156, Note_off_c, 1, 67, 65
3, 97280, Note_on_c, 1, 62, 103
3, 97284, Note_off_c, 1, 58, 65
3, 97412, Note_off_c, 1, 62, 65
3, 97412, Note_on_c, 1, 67, 103
3, 97536, Note_on_c, 1, 58, 103
3, 97544, Note_off_c, 1, 67, 65
3, 97664, Note_on_c, 1, 62, 103
3, 97668, Note_off_c, 1, 58, 65
3, 97796, Note_off_c, 1, 62, 65
3, 97796, Note_on_c, 1, 67, 103
3, 97920, Note_on_c, 1, 58, 103
3, 97928, Note_off_c, 1, 67, 65
3, 98048, Note_on_c, 1, 62, 103
3, 98052, Note_off_c, 1, 58, 65
3, 98176, Note_on_c, 1, 67, 103
3, 98180, Note_off_c, 1, 62, 65
3, 98304, Note_on_c, 1, 58, 103
3, 98308, Note_off_c, 1, 67, 65
3, 98432, Note_on_c, 1, 62, 103
3, 98436, Note_off_c, 1, 58, 65
3, 98564, Note_off_c, 1, 62, 65
3, 98564, Note_on_c, 1, 67, 103
3, 98688, Note_on_c, 1, 60, 103
3, 98696, Note_off_c, 1, 67, 65
3, 98816, Note_on_c, 1, 62, 103
3, 98820, Note_off_c, 1, 60, 65
3, 98948, Note_off_c, 1, 62, 65
3, 98948, Note_on_c, 1, 67, 103
3, 99072, Note_on_c, 1, 60, 103
3, 99080, Note_off_c, 1, 67, 65
3, 99200, Note_on_c, 1, 62, 103
3, 99204, Note_off_c, 1, 60, 65
3, 99328, Note_on_c, 1, 66, 103
3, 99332, Note_off_c, 1, 62, 65
3, 99456, Note_on_c, 1, 60, 103
3, 99460, Note_off_c, 1, 66, 65
3, 99584, Note_on_c, 1, 62, 103
3, 99588, Note_off_c, 1, 60, 65
3, 99716, Note_off_c, 1, 62, 65
3, 99716, Note_on_c, 1, 66, 103
3, 99840, Note_on_c, 1, 60, 103
3, 99848, Note_off_c, 1, 66, 65
3, 99968, Note_on_c, 1, 62, 103
3, 99972, Note_off_c, 1, 60, 65
3, 100100, Note_off_c, 1, 62, 65
3, 100100, Note_on_c, 1, 66, 103
3, 100224, Note_on_c, 1, 60, 103
3, 100232, Note_off_c, 1, 66, 65
3, 100352, Note_on_c, 1, 62, 103
3, 100356, Note_off_c, 1, 60, 65
3, 100480, Note_on_c, 1, 66, 103
3, 100484, Note_off_c, 1, 62, 65
3, 100608, Note_on_c, 1, 60, 103
3, 100612, Note_off_c, 1, 66, 65
3, 100736, Note_on_c, 1, 62, 103
3, 100740, Note_off_c, 1, 60, 65
3, 100868, Note_off_c, 1, 62, 65
3, 100868, Note_on_c, 1, 66, 103
3, 100992, Note_on_c, 1, 58, 103
3, 101000, Note_off_c, 1, 66, 65
3, 101120, Note_on_c, 1, 62, 103
3, 101124, Note_off_c, 1, 58, 65
3, 101252, Note_off_c, 1, 62, 65
3, 101252, Note_on_c, 1, 67, 103
3, 101376, Note_on_c, 1, 58, 103
3, 101380, Note_off_c, 1, 67, 65
3, 101504, Note_on_c, 1, 62, 103
3, 101508, Note_off_c, 1, 58, 65
3, 101632, Note_on_c, 1, 67, 103
3, 101636, Note_off_c, 1, 62, 65
3, 101760, Note_off_c, 1, 67, 65
3, 101760, Note_on_c, 1, 58, 103
3, 101888, Note_on_c, 1, 62, 103
3, 101892, Note_off_c, 1, 58, 65
3, 102020, Note_off_c, 1, 62, 65
3, 102020, Note_on_c, 1, 67, 103
3, 102144, Note_off_c, 1, 67, 65
3, 102144, Note_on_c, 1, 58, 103
3, 102272, Note_on_c, 1, 62, 103
3, 102276, Note_off_c, 1, 58, 65
3, 102404, Note_off_c, 1, 62, 65
3, 102404, Note_on_c, 1, 67, 103
3, 102528, Note_on_c, 1, 58, 103
3, 102532, Note_off_c, 1, 67, 65
3, 102656, Note_on_c, 1, 62, 103
3, 102660, Note_off_c, 1, 58, 65
3, 102784, Note_on_c, 1, 67, 103
3, 102788, Note_off_c, 1, 62, 65
3, 102912, Note_off_c, 1, 67, 65
3, 102912, Note_on_c, 1, 58, 103
3, 103040, Note_on_c, 1, 62, 103
3, 103044, Note_off_c, 1, 58, 65
3, 103172, Note_off_c, 1, 62, 65
3, 103172, Note_on_c, 1, 67, 103
3, 103296, Note_off_c, 1, 67, 65
3, 103296, Note_on_c, 1, 57, 103
3, 103424, Note_on_c, 1, 63, 103
3, 103428, Note_off_c, 1, 57, 65
3, 103556, Note_off_c, 1, 63, 65
3, 103556, Note_on_c, 1, 67, 103
3, 103680, Note_on_c, 1, 57, 103
3, 103684, Note_off_c, 1, 67, 65
3, 103808, Note_on_c, 1, 63, 103
3, 103812, Note_off_c, 1, 57, 65
3, 103936, Note_on_c, 1, 67, 103
3, 103940, Note_off_c, 1, 63, 65
3, 104064, Note_off_c, 1, 67, 65
3, 104064, Note_on_c, 1, 57, 103
3, 104192, Note_on_c, 1, 63, 103
3, 104196, Note_off_c, 1, 57, 65
3, 104324, Note_off_c, 1, 63, 65
3, 104324, Note_on_c, 1, 67, 103
3, 104448, Note_off_c, 1, 67, 65
3, 104448, Note_on_c, 1, 57, 103
3, 104576, Note_on_c, 1, 60, 103
3, 104580, Note_off_c, 1, 57, 65
3, 104708, Note_off_c, 1, 60, 65
3, 104708, Note_on_c, 1, 66, 103
3, 104832, Note_on_c, 1, 57, 103
3, 104836, Note_off_c, 1, 66, 65
3, 104960, Note_on_c, 1, 60, 103
3, 104964, Note_off_c, 1, 57, 65
3, 105088, Note_on_c, 1, 66, 103
3, 105092, Note_off_c, 1, 60, 65
3, 105216, Note_off_c, 1, 66, 65
3, 105216, Note_on_c, 1, 57, 103
3, 105344, Note_on_c, 1, 60, 103
3, 105348, Note_off_c, 1, 57, 65
3, 105476, Note_off_c, 1, 60, 65
3, 105476, Note_on_c, 1, 66, 103
3, 105600, Note_off_c, 1, 66, 65
3, 105600, Note_on_c, 1, 67, 103
3, 105980, Note_off_c, 1, 67, 65
3, 105984, Note_on_c, 1, 74, 103
3, 106108, Note_off_c, 1, 74, 65
3, 106368, Note_on_c, 1, 82, 103
3, 106492, Note_off_c, 1, 82, 65
3, 106752, Note_on_c, 1, 82, 103
3, 107516, Note_off_c, 1, 82, 65
3, 107520, Note_on_c, 1, 81, 103
3, 107708, Note_off_c, 1, 81, 65
3, 107712, Note_on_c, 1, 79, 103
3, 107900, Note_off_c, 1, 79, 65
3, 107904, Note_on_c, 1, 79, 103
3, 107996, Note_off_c, 1, 79, 65
3, 108000, Note_on_c, 1, 81, 103
3, 108092, Note_off_c, 1, 81, 65
3, 108096, Note_on_c, 1, 79, 103
3, 108188, Note_off_c, 1, 79, 65
3, 108192, Note_on_c, 1, 81, 103
3, 108284, Note_off_c, 1, 81, 65
3, 108288, Note_on_c, 1, 78, 103
3, 108668, Note_off_c, 1, 78, 65
3, 108672, Note_on_c, 1, 84, 103
3, 108796, Note_off_c, 1, 84, 65
3, 109056, Note_on_c, 1, 84, 103
3, 109820, Note_off_c, 1, 84, 65
3, 109824, Note_on_c, 1, 82, 103
3, 110012, Note_off_c, 1, 82, 65
3, 110016, Note_on_c, 1, 81, 103
3, 110204, Note_off_c, 1, 81, 65
3, 110208, Note_on_c, 1, 81, 103
3, 110300, Note_off_c, 1, 81, 65
3, 110304, Note_on_c, 1, 82, 103
3, 110396, Note_off_c, 1, 82, 65
3, 110400, Note_on_c, 1, 81, 103
3, 110492, Note_off_c, 1, 81, 65
3, 110496, Note_on_c, 1, 82, 103
3, 110588, Note_off_c, 1, 82, 65
3, 110592, Note_on_c, 1, 79, 103
3, 110972, Note_off_c, 1, 79, 65
3, 110976, Note_on_c, 1, 86, 103
3, 111100, Note_off_c, 1, 86, 65
3, 111360, Note_on_c, 1, 86, 103
3, 112124, Note_off_c, 1, 86, 65
3, 112128, Note_on_c, 1, 84, 103
3, 112316, Note_off_c, 1, 84, 65
3, 112320, Note_on_c, 1, 82, 103
3, 112508, Note_off_c, 1, 82, 65
3, 112512, Note_on_c, 1, 89, 118
3, 112640, Note_on_c, 1, 86, 118
3, 112644, Note_off_c, 1, 89, 65
3, 112772, Note_off_c, 1, 86, 65
3, 112772, Note_on_c, 1, 82, 118
3, 112896, Note_on_c, 1, 86, 118
3, 112900, Note_off_c, 1, 82, 65
3, 113024, Note_on_c, 1, 82, 118
3, 113028, Note_off_c, 1, 86, 65
3, 113156, Note_off_c, 1, 82, 65
3, 113156, Note_on_c, 1, 77, 118
3, 113280, Note_on_c, 1, 82, 118
3, 113284, Note_off_c, 1, 77, 65
3, 113408, Note_on_c, 1, 77, 118
3, 113412, Note_off_c, 1, 82, 65
3, 113540, Note_off_c, 1, 77, 65
3, 113540, Note_on_c, 1, 74, 103
3, 113664, Note_off_c, 1, 74, 65
3, 113664, Note_on_c, 1, 77, 118
3, 113792, Note_on_c, 1, 74, 118
3, 113796, Note_off_c, 1, 77, 65
3, 113924, Note_off_c, 1, 74, 65
3, 113924, Note_on_c, 1, 70, 118
3, 114048, Note_on_c, 1, 74, 118
3, 114052, Note_off_c, 1, 70, 65
3, 114176, Note_on_c, 1, 70, 118
3, 114180, Note_off_c, 1, 74, 65
3, 114308, Note_off_c, 1, 70, 65
3, 114308, Note_on_c, 1, 65, 118
3, 114432, Note_on_c, 1, 70, 118
3, 114436, Note_off_c, 1, 65, 65
3, 114560, Note_on_c, 1, 65, 118
3, 114564, Note_off_c, 1, 70, 65
3, 114692, Note_off_c, 1, 65, 65
3, 114692, Note_on_c, 1, 62, 103
3, 114816, Note_off_c, 1, 62, 65
3, 114816, Note_on_c, 1, 70, 118
3, 114944, Note_on_c, 1, 65, 118
3, 114948, Note_off_c, 1, 70, 65
3, 115076, Note_off_c, 1, 65, 65
3, 115076, Note_on_c, 1, 62, 118
3, 115200, Note_on_c, 1, 65, 118
3, 115204, Note_off_c, 1, 62, 65
3, 115328, Note_on_c, 1, 62, 118
3, 115332, Note_off_c, 1, 65, 65
3, 115460, Note_off_c, 1, 62, 65
3, 115460, Note_on_c, 1, 58, 118
3, 115584, Note_on_c, 1, 62, 118
3, 115588, Note_off_c, 1, 58, 65
3, 115712, Note_on_c, 1, 58, 118
3, 115716, Note_off_c, 1, 62, 65
3, 115844, Note_off_c, 1, 58, 65
3, 115844, Note_on_c, 1, 53, 118
3, 115968, Note_off_c, 1, 53, 65
3, 119424, Note_on_c, 1, 63, 118
3, 119552, Note_on_c, 1, 58, 118
3, 119556, Note_off_c, 1, 63, 65
3, 119684, Note_off_c, 1, 58, 65
3, 119684, Note_on_c, 1, 62, 118
3, 119808, Note_on_c, 1, 67, 118
3, 119812, Note_off_c, 1, 62, 65
3, 119936, Note_on_c, 1, 63, 118
3, 119940, Note_off_c, 1, 67, 65
3, 120068, Note_off_c, 1, 63, 65
3, 120068, Note_on_c, 1, 67, 118
3, 120192, Note_on_c, 1, 70, 118
3, 120196, Note_off_c, 1, 67, 65
3, 120320, Note_on_c, 1, 67, 118
3, 120324, Note_off_c, 1, 70, 65
3, 120452, Note_off_c, 1, 67, 65
3, 120452, Note_on_c, 1, 63, 118
3, 120576, Note_off_c, 1, 63, 65
3, 120576, Note_on_c, 1, 62, 118
3, 120704, Note_on_c, 1, 65, 118
3, 120708, Note_off_c, 1, 62, 65
3, 120836, Note_off_c, 1, 65, 65
3, 120836, Note_on_c, 1, 70, 118
3, 120960, Note_on_c, 1, 65, 118
3, 120964, Note_off_c, 1, 70, 65
3, 121088, Note_on_c, 1, 70, 118
3, 121092, Note_off_c, 1, 65, 65
3, 121220, Note_off_c, 1, 70, 65
3, 121220, Note_on_c, 1, 74, 118
3, 121344, Note_on_c, 1, 77, 118
3, 121348, Note_off_c, 1, 74, 65
3, 121472, Note_on_c, 1, 74, 118
3, 121476, Note_off_c, 1, 77, 65
3, 121604, Note_off_c, 1, 74, 65
3, 121604, Note_on_c, 1, 70, 118
3, 121728, Note_off_c, 1, 70, 65
3, 121728, Note_on_c, 1, 75, 118
3, 121856, Note_on_c, 1, 70, 118
3, 121860, Note_off_c, 1, 75, 65
3, 121988, Note_off_c, 1, 70, 65
3, 121988, Note_on_c, 1, 75, 118
3, 122112, Note_on_c, 1, 79, 118
3, 122116, Note_off_c, 1, 75, 65
3, 122240, Note_on_c, 1, 75, 118
3, 122244, Note_off_c, 1, 79, 65
3, 122372, Note_off_c, 1, 75, 65
3, 122372, Note_on_c, 1, 79, 118
3, 122496, Note_on_c, 1, 82, 118
3, 122500, Note_off_c, 1, 79, 65
3, 122624, Note_on_c, 1, 79, 118
3, 122628, Note_off_c, 1, 82, 65
3, 122756, Note_off_c, 1, 79, 65
3, 122756, Note_on_c, 1, 77, 118
3, 122880, Note_off_c, 1, 77, 65
3, 122880, Note_on_c, 1, 76, 118
3, 123008, Note_on_c, 1, 82, 118
3, 123012, Note_off_c, 1, 76, 65
3, 123140, Note_off_c, 1, 82, 65
3, 123140, Note_on_c, 1, 84, 118
3, 123264, Note_on_c, 1, 85, 118
3, 123268, Note_off_c, 1, 84, 65
3, 123392, Note_on_c, 1, 84, 118
3, 123396, Note_off_c, 1, 85, 65
3, 123524, Note_off_c, 1, 84, 65
3, 123524, Note_on_c, 1, 82, 118
3, 123648, Note_on_c, 1, 85, 118
3, 123652, Note_off_c, 1, 82, 65
3, 123776, Note_on_c, 1, 84, 118
3, 123780, Note_off_c, 1, 85, 65
3, 123908, Note_off_c, 1, 84, 65
3, 123908, Note_on_c, 1, 82, 118
3, 124032, Note_off_c, 1, 82, 65
3, 124032, Note_on_c, 1, 81, 123
3, 124412, Note_off_c, 1, 81, 65
3, 124416, Note_on_c, 1, 78, 123
3, 124988, Note_off_c, 1, 78, 65
3, 124992, Note_on_c, 1, 77, 123
3, 125180, Note_off_c, 1, 77, 65
3, 125184, Note_on_c, 1, 75, 118
3, 125308, Note_off_c, 1, 75, 65
3, 125568, Note_on_c, 1, 77, 118
3, 126140, Note_off_c, 1, 77, 65
3, 126144, Note_on_c, 1, 75, 118
3, 126332, Note_off_c, 1, 75, 65
3, 126336, Note_on_c, 1, 73, 118
3, 126524, Note_off_c, 1, 73, 65
3, 126528, Note_on_c, 1, 65, 118
3, 126716, Note_off_c, 1, 65, 65
3, 126720, Note_on_c, 1, 77, 118
3, 126908, Note_off_c, 1, 77, 65
3, 126912, Note_on_c, 1, 65, 118
3, 127100, Note_off_c, 1, 65, 65
3, 127104, Note_on_c, 1, 77, 118
3, 127292, Note_off_c, 1, 77, 65
3, 127296, Note_on_c, 1, 65, 118
3, 127484, Note_off_c, 1, 65, 65
3, 127488, Note_on_c, 1, 77, 118
3, 127676, Note_off_c, 1, 77, 65
3, 127680, Note_on_c, 1, 65, 118
3, 127868, Note_off_c, 1, 65, 65
3, 127872, Note_on_c, 1, 75, 118
3, 128060, Note_off_c, 1, 75, 65
3, 128064, Note_on_c, 1, 65, 118
3, 128252, Note_off_c, 1, 65, 65
3, 128256, Note_on_c, 1, 73, 118
3, 128444, Note_off_c, 1, 73, 65
3, 128448, Note_on_c, 1, 65, 118
3, 128636, Note_off_c, 1, 65, 65
3, 128640, Note_on_c, 1, 72, 118
3, 128896, Note_off_c, 1, 72, 65
3, 129024, Note_on_c, 1, 78, 118
3, 129596, Note_off_c, 1, 78, 65
3, 129600, Note_on_c, 1, 77, 118
3, 129788, Note_off_c, 1, 77, 65
3, 129792, Note_on_c, 1, 75, 118
3, 129916, Note_off_c, 1, 75, 65
3, 130176, Note_on_c, 1, 77, 118
3, 130748, Note_off_c, 1, 77, 65
3, 130752, Note_on_c, 1, 75, 118
3, 130940, Note_off_c, 1, 75, 65
3, 130944, Note_on_c, 1, 73, 118
3, 131132, Note_off_c, 1, 73, 65
3, 131136, Note_on_c, 1, 65, 118
3, 131324, Note_off_c, 1, 65, 65
3, 131328, Note_on_c, 1, 77, 118
3, 131516, Note_off_c, 1, 77, 65
3, 131520, Note_on_c, 1, 65, 118
3, 131708, Note_off_c, 1, 65, 65
3, 131712, Note_on_c, 1, 77, 118
3, 131900, Note_off_c, 1, 77, 65
3, 131904, Note_on_c, 1, 65, 118
3, 132092, Note_off_c, 1, 65, 65
3, 132096, Note_on_c, 1, 77, 118
3, 132284, Note_off_c, 1, 77, 65
3, 132288, Note_on_c, 1, 65, 118
3, 132476, Note_off_c, 1, 65, 65
3, 132480, Note_on_c, 1, 75, 118
3, 132668, Note_off_c, 1, 75, 65
3, 132672, Note_on_c, 1, 65, 118
3, 132860, Note_off_c, 1, 65, 65
3, 132864, Note_on_c, 1, 73, 118
3, 133052, Note_off_c, 1, 73, 65
3, 133056, Note_on_c, 1, 65, 118
3, 133244, Note_off_c, 1, 65, 65
3, 133248, Note_on_c, 1, 72, 118
3, 133440, Note_on_c, 1, 65, 118
3, 133696, Note_off_c, 1, 65, 65
3, 133824, Note_on_c, 1, 65, 118
3, 134012, Note_off_c, 1, 72, 65
3, 134016, Note_on_c, 1, 73, 118
3, 134080, Note_off_c, 1, 65, 65
3, 134208, Note_on_c, 1, 65, 118
3, 134336, Note_off_c, 1, 65, 65
3, 134396, Note_off_c, 1, 73, 65
3, 134400, Note_on_c, 1, 72, 118
3, 134592, Note_on_c, 1, 65, 118
3, 134848, Note_off_c, 1, 65, 65
3, 134976, Note_on_c, 1, 65, 118
3, 135164, Note_off_c, 1, 72, 65
3, 135168, Note_on_c, 1, 73, 118
3, 135232, Note_off_c, 1, 65, 65
3, 135360, Note_on_c, 1, 65, 118
3, 135488, Note_off_c, 1, 65, 65
3, 135548, Note_off_c, 1, 73, 65
3, 135552, Note_on_c, 1, 72, 61
3, 136700, Note_off_c, 1, 72, 65
3, 136704, Note_on_c, 1, 73, 61
3, 137852, Note_off_c, 1, 73, 65
3, 137856, Note_on_c, 1, 74, 61
3, 138624, Note_off_c, 1, 74, 65
3, 138624, Note_on_c, 1, 75, 61
3, 138880, Note_off_c, 1, 75, 65
3, 139008, Note_on_c, 1, 77, 61
3, 139580, Note_off_c, 1, 77, 65
3, 139584, Note_on_c, 1, 79, 61
3, 139776, Note_on_c, 1, 81, 61
3, 139868, Note_off_c, 1, 79, 65
3, 139968, Note_on_c, 1, 82, 61
3, 140060, Note_off_c, 1, 81, 65
3, 140156, Note_off_c, 1, 82, 65
3, 140160, Note_on_c, 1, 84, 61
3, 140284, Note_off_c, 1, 84, 65
3, 140544, Note_on_c, 1, 84, 61
3, 140668, Note_off_c, 1, 84, 65
3, 140928, Note_on_c, 1, 86, 61
3, 141052, Note_off_c, 1, 86, 65
3, 141312, Note_on_c, 1, 89, 61
3, 141692, Note_off_c, 1, 89, 65
3, 141696, Note_on_c, 1, 87, 61
3, 142076, Note_off_c, 1, 87, 65
3, 142464, Note_on_c, 1, 72, 61
3, 142464, Note_on_c, 1, 69, 61
3, 143228, Note_off_c, 1, 72, 65
3, 143228, Note_off_c, 1, 69, 65
3, 143232, Note_on_c, 1, 74, 61
3, 143232, Note_on_c, 1, 70, 61
3, 143520, Note_on_c, 1, 77, 61
3, 143612, Note_off_c, 1, 74, 65
3, 143612, Note_off_c, 1, 70, 65
3, 143612, Note_off_c, 1, 77, 65
3, 143616, Note_on_c, 1, 75, 61
3, 143804, Note_off_c, 1, 75, 65
3, 143808, Note_on_c, 1, 74, 61
3, 143996, Note_off_c, 1, 74, 65
3, 144000, Note_on_c, 1, 75, 61
3, 144188, Note_off_c, 1, 75, 65
3, 144192, Note_on_c, 1, 77, 61
3, 144380, Note_off_c, 1, 77, 65
3, 144384, Note_on_c, 1, 79, 61
3, 144572, Note_off_c, 1, 79, 65
3, 144576, Note_on_c, 1, 81, 61
3, 144764, Note_off_c, 1, 81, 65
3, 144768, Note_on_c, 1, 82, 61
3, 144892, Note_off_c, 1, 82, 65
3, 145152, Note_on_c, 1, 82, 61
3, 145276, Note_off_c, 1, 82, 65
3, 145536, Note_on_c, 1, 84, 61
3, 145660, Note_off_c, 1, 84, 65
3, 145920, Note_on_c, 1, 87, 61
3, 146300, Note_off_c, 1, 87, 65
3, 146304, Note_on_c, 1, 86, 61
3, 146684, Note_off_c, 1, 86, 65
3, 147072, Note_on_c, 1, 89, 61
3, 147072, Note_on_c, 1, 70, 61
3, 147072, Note_on_c, 1, 65, 61
3, 147072, Note_on_c, 1, 62, 61
3, 147648, Note_off_c, 1, 89, 65
3, 147648, Note_on_c, 1, 87, 61
3, 147836, Note_off_c, 1, 87, 65
3, 147840, Note_on_c, 1, 86, 61
3, 148220, Note_off_c, 1, 70, 65
3, 148220, Note_off_c, 1, 65, 65
3, 148220, Note_off_c, 1, 62, 65
3, 148220, Note_off_c, 1, 86, 65
3, 148224, Note_on_c, 1, 86, 61
3, 148224, Note_on_c, 1, 72, 61
3, 148224, Note_on_c, 1, 70, 61
3, 148224, Note_on_c, 1, 67, 61
3, 148224, Note_on_c, 1, 63, 61
3, 148604, Note_off_c, 1, 86, 65
3, 148608, Note_on_c, 1, 84, 61
3, 148988, Note_off_c, 1, 84, 65
3, 148992, Note_on_c, 1, 84, 61
3, 149116, Note_off_c, 1, 84, 65
3, 149372, Note_off_c, 1, 72, 65
3, 149372, Note_off_c, 1, 70, 65
3, 149372, Note_off_c, 1, 67, 65
3, 149372, Note_off_c, 1, 63, 65
3, 149376, Note_on_c, 1, 84, 61
3, 149376, Note_on_c, 1, 65, 61
3, 149376, Note_on_c, 1, 69, 61
3, 149376, Note_on_c, 1, 75, 61
3, 149452, Note_on_c, 1, 86, 61
3, 149468, Note_off_c, 1, 84, 65
3, 149532, Note_on_c, 1, 84, 61
3, 149544, Note_off_c, 1, 86, 65
3, 149612, Note_on_c, 1, 83, 61
3, 149624, Note_off_c, 1, 84, 65
3, 149692, Note_on_c, 1, 84, 61
3, 149704, Note_off_c, 1, 83, 65
3, 149760, Note_on_c, 1, 86, 61
3, 149784, Note_off_c, 1, 84, 65
3, 150140, Note_off_c, 1, 86, 65
3, 150144, Note_on_c, 1, 87, 61
3, 150524, Note_off_c, 1, 65, 65
3, 150524, Note_off_c, 1, 69, 65
3, 150524, Note_off_c, 1, 75, 65
3, 150524, Note_off_c, 1, 87, 65
3, 150528, Note_on_c, 1, 86, 61
3, 150528, Note_on_c, 1, 74, 61
3, 150528, Note_on_c, 1, 70, 61
3, 150652, Note_off_c, 1, 86, 65
3, 150908, Note_off_c, 1, 74, 65
3, 150908, Note_off_c, 1, 70, 65
3, 150912, Note_on_c, 1, 82, 61
3, 151100, Note_off_c, 1, 82, 65
3, 151104, Note_on_c, 1, 84, 61
3, 151292, Note_off_c, 1, 84, 65
3, 151296, Note_on_c, 1, 86, 61
3, 151484, Note_off_c, 1, 86, 65
3, 151488, Note_on_c, 1, 87, 61
3, 151616, Note_on_c, 1, 77, 61
3, 151676, Note_off_c, 1, 87, 65
3, 151680, Note_on_c, 1, 89, 61
3, 151680, Note_on_c, 1, 70, 61
3, 151680, Note_on_c, 1, 65, 61
3, 151680, Note_on_c, 1, 62, 61
3, 151692, Note_off_c, 1, 77, 65
3, 152252, Note_off_c, 1, 89, 65
3, 152256, Note_on_c, 1, 87, 66
3, 152444, Note_off_c, 1, 87, 65
3, 152448, Note_on_c, 1, 86, 67
3, 152828, Note_off_c, 1, 70, 65
3, 152828, Note_off_c, 1, 65, 65
3, 152828, Note_off_c, 1, 62, 65
3, 152828, Note_off_c, 1, 86, 65
3, 152832, Note_on_c, 1, 86, 72
3, 152832, Note_on_c, 1, 72, 72
3, 152832, Note_on_c, 1, 70, 72
3, 152832, Note_on_c, 1, 67, 72
3, 152832, Note_on_c, 1, 63, 72
3, 153212, Note_off_c, 1, 86, 65
3, 153216, Note_on_c, 1, 84, 75
3, 153596, Note_off_c, 1, 84, 65
3, 153600, Note_on_c, 1, 84, 78
3, 153788, Note_off_c, 1, 84, 65
3, 153980, Note_off_c, 1, 72, 65
3, 153980, Note_off_c, 1, 70, 65
3, 153980, Note_off_c, 1, 67, 65
3, 153980, Note_off_c, 1, 63, 65
3, 153984, Note_on_c, 1, 84, 82
3, 153984, Note_on_c, 1, 73, 82
3, 153984, Note_on_c, 1, 70, 82
3, 153984, Note_on_c, 1, 67, 82
3, 153984, Note_on_c, 1, 64, 82
3, 154364, Note_off_c, 1, 84, 65
3, 154368, Note_on_c, 1, 85, 85
3, 154748, Note_off_c, 1, 85, 65
3, 154752, Note_on_c, 1, 82, 88
3, 155132, Note_off_c, 1, 73, 65
3, 155132, Note_off_c, 1, 70, 65
3, 155132, Note_off_c, 1, 67, 65
3, 155132, Note_off_c, 1, 64, 65
3, 155132, Note_off_c, 1, 82, 65
3, 155136, Note_on_c, 1, 77, 92
3, 155136, Note_on_c, 1, 65, 92
3, 155136, Note_on_c, 1, 69, 92
3, 155136, Note_on_c, 1, 72, 92
3, 155324, Note_off_c, 1, 77, 65
3, 155328, Note_on_c, 1, 76, 87
3, 155516, Note_off_c, 1, 65, 65
3, 155516, Note_off_c, 1, 69, 65
3, 155516, Note_off_c, 1, 72, 65
3, 155516, Note_off_c, 1, 76, 65
3, 155520, Note_on_c, 1, 77, 82
3, 155708, Note_off_c, 1, 77, 65
3, 155712, Note_on_c, 1, 79, 77
3, 155900, Note_off_c, 1, 79, 65
3, 155904, Note_on_c, 1, 77, 72
3, 156092, Note_off_c, 1, 77, 65
3, 156096, Note_on_c, 1, 76, 66
3, 156284, Note_off_c, 1, 76, 65
3, 156288, Note_on_c, 1, 77, 61
3, 156416, Note_on_c, 1, 88, 61
3, 156420, Note_off_c, 1, 77, 65
3, 156548, Note_off_c, 1, 88, 65
3, 156548, Note_on_c, 1, 89, 61
3, 156672, Note_on_c, 1, 77, 61
3, 156676, Note_off_c, 1, 89, 65
3, 156800, Note_on_c, 1, 88, 61
3, 156804, Note_off_c, 1, 77, 65
3, 156932, Note_off_c, 1, 88, 65
3, 156932, Note_on_c, 1, 89, 61
3, 157056, Note_on_c, 1, 77, 61
3, 157060, Note_off_c, 1, 89, 65
3, 157184, Note_on_c, 1, 88, 61
3, 157188, Note_off_c, 1, 77, 65
3, 157316, Note_off_c, 1, 88, 65
3, 157316, Note_on_c, 1, 89, 61
3, 157440, Note_on_c, 1, 77, 61
3, 157444, Note_off_c, 1, 89, 65
3, 157568, Note_on_c, 1, 88, 61
3, 157572, Note_off_c, 1, 77, 65
3, 157700, Note_off_c, 1, 88, 65
3, 157700, Note_on_c, 1, 89, 61
3, 157824, Note_on_c, 1, 77, 61
3, 157828, Note_off_c, 1, 89, 65
3, 157952, Note_on_c, 1, 87, 61
3, 157956, Note_off_c, 1, 77, 65
3, 158084, Note_off_c, 1, 87, 65
3, 158084, Note_on_c, 1, 89, 61
3, 158208, Note_on_c, 1, 77, 61
3, 158212, Note_off_c, 1, 89, 65
3, 158336, Note_on_c, 1, 88, 61
3, 158340, Note_off_c, 1, 77, 65
3, 158468, Note_off_c, 1, 88, 65
3, 158468, Note_on_c, 1, 89, 61
3, 158592, Note_on_c, 1, 77, 61
3, 158596, Note_off_c, 1, 89, 65
3, 158720, Note_on_c, 1, 88, 61
3, 158724, Note_off_c, 1, 77, 65
3, 158852, Note_off_c, 1, 88, 65
3, 158852, Note_on_c, 1, 89, 61
3, 158976, Note_on_c, 1, 77, 61
3, 158980, Note_off_c, 1, 89, 65
3, 159104, Note_on_c, 1, 87, 61
3, 159108, Note_off_c, 1, 77, 65
3, 159236, Note_off_c, 1, 87, 65
3, 159236, Note_on_c, 1, 89, 61
3, 159360, Note_on_c, 1, 77, 61
3, 159364, Note_off_c, 1, 89, 65
3, 159488, Note_off_c, 1, 77, 65
3, 159488, Note_on_c, 1, 87, 61
3, 159616, Note_off_c, 1, 87, 65
3, 159620, Note_on_c, 1, 89, 61
3, 159744, Note_off_c, 1, 89, 65
3, 159744, Note_on_c, 1, 77, 61
3, 159872, Note_on_c, 1, 88, 61
3, 159876, Note_off_c, 1, 77, 65
3, 160004, Note_off_c, 1, 88, 65
3, 160004, Note_on_c, 1, 89, 61
3, 160128, Note_on_c, 1, 77, 61
3, 160132, Note_off_c, 1, 89, 65
3, 160256, Note_on_c, 1, 87, 61
3, 160260, Note_off_c, 1, 77, 65
3, 160388, Note_off_c, 1, 87, 65
3, 160388, Note_on_c, 1, 89, 61
3, 160512, Note_on_c, 1, 77, 61
3, 160516, Note_off_c, 1, 89, 65
3, 160640, Note_off_c, 1, 77, 65
3, 160640, Note_on_c, 1, 87, 61
3, 160768, Note_off_c, 1, 87, 65
3, 160772, Note_on_c, 1, 89, 61
3, 160896, Note_off_c, 1, 89, 65
3, 160896, Note_on_c, 1, 77, 61
3, 161024, Note_on_c, 1, 88, 61
3, 161028, Note_off_c, 1, 77, 65
3, 161156, Note_off_c, 1, 88, 65
3, 161156, Note_on_c, 1, 89, 61
3, 161280, Note_on_c, 1, 77, 61
3, 161284, Note_off_c, 1, 89, 65
3, 161408, Note_on_c, 1, 87, 61
3, 161412, Note_off_c, 1, 77, 65
3, 161540, Note_off_c, 1, 87, 65
3, 161540, Note_on_c, 1, 89, 61
3, 161664, Note_on_c, 1, 77, 61
3, 161668, Note_off_c, 1, 89, 65
3, 161792, Note_off_c, 1, 77, 65
3, 161792, Note_on_c, 1, 87, 61
3, 161920, Note_off_c, 1, 87, 65
3, 161924, Note_on_c, 1, 89, 61
3, 162048, Note_off_c, 1, 89, 65
3, 162048, Note_on_c, 1, 77, 61
3, 162176, Note_on_c, 1, 88, 61
3, 162180, Note_off_c, 1, 77, 65
3, 162308, Note_off_c, 1, 88, 65
3, 162308, Note_on_c, 1, 89, 61
3, 162432, Note_on_c, 1, 77, 61
3, 162436, Note_off_c, 1, 89, 65
3, 162560, Note_on_c, 1, 87, 61
3, 162564, Note_off_c, 1, 77, 65
3, 162692, Note_off_c, 1, 87, 65
3, 162692, Note_on_c, 1, 89, 61
3, 162816, Note_on_c, 1, 77, 61
3, 162820, Note_off_c, 1, 89, 65
3, 162944, Note_off_c, 1, 77, 65
3, 162944, Note_on_c, 1, 87, 61
3, 163072, Note_off_c, 1, 87, 65
3, 163076, Note_on_c, 1, 89, 61
3, 163200, Note_off_c, 1, 89, 65
3, 163200, Note_on_c, 1, 77, 61
3, 163328, Note_on_c, 1, 88, 61
3, 163332, Note_off_c, 1, 77, 65
3, 163460, Note_off_c, 1, 88, 65
3, 163460, Note_on_c, 1, 89, 61
3, 163584, Note_on_c, 1, 77, 61
3, 163588, Note_off_c, 1, 89, 65
3, 163712, Note_on_c, 1, 87, 61
3, 163716, Note_off_c, 1, 77, 65
3, 163844, Note_off_c, 1, 87, 65
3, 163844, Note_on_c, 1, 89, 61
3, 163968, Note_on_c, 1, 77, 61
3, 163972, Note_off_c, 1, 89, 65
3, 164096, Note_off_c, 1, 77, 65
3, 164096, Note_on_c, 1, 87, 61
3, 164224, Note_off_c, 1, 87, 65
3, 164228, Note_on_c, 1, 89, 61
3, 164352, Note_off_c, 1, 89, 65
3, 164352, Note_on_c, 1, 77, 61
3, 164480, Note_on_c, 1, 88, 61
3, 164484, Note_off_c, 1, 77, 65
3, 164612, Note_off_c, 1, 88, 65
3, 164612, Note_on_c, 1, 89, 61
3, 164736, Note_on_c, 1, 77, 61
3, 164740, Note_off_c, 1, 89, 65
3, 164864, Note_on_c, 1, 87, 61
3, 164868, Note_off_c, 1, 77, 65
3, 164996, Note_off_c, 1, 87, 65
3, 164996, Note_on_c, 1, 89, 61
3, 165120, Note_on_c, 1, 77, 61
3, 165124, Note_off_c, 1, 89, 65
3, 165248, Note_off_c, 1, 77, 65
3, 165248, Note_on_c, 1, 87, 61
3, 165376, Note_off_c, 1, 87, 65
3, 165380, Note_on_c, 1, 89, 61
3, 165504, Note_off_c, 1, 89, 65
3, 165696, Note_on_c, 1, 81, 61
3, 165884, Note_off_c, 1, 81, 65
3, 165888, Note_on_c, 1, 82, 61
3, 166076, Note_off_c, 1, 82, 65
3, 166080, Note_on_c, 1, 77, 61
3, 166268, Note_off_c, 1, 77, 65
3, 166272, Note_on_c, 1, 74, 61
3, 166652, Note_off_c, 1, 74, 65
3, 166848, Note_on_c, 1, 78, 61
3, 167036, Note_off_c, 1, 78, 65
3, 167040, Note_on_c, 1, 79, 61
3, 167228, Note_off_c, 1, 79, 65
3, 167232, Note_on_c, 1, 75, 61
3, 167420, Note_off_c, 1, 75, 65
3, 167424, Note_on_c, 1, 72, 61
3, 167804, Note_off_c, 1, 72, 65
3, 168000, Note_on_c, 1, 75, 61
3, 168188, Note_off_c, 1, 75, 65
3, 168192, Note_on_c, 1, 72, 61
3, 168380, Note_off_c, 1, 72, 65
3, 168384, Note_on_c, 1, 70, 61
3, 168572, Note_off_c, 1, 70, 65
3, 168576, Note_on_c, 1, 69, 61
3, 168764, Note_off_c, 1, 69, 65
3, 168768, Note_on_c, 1, 72, 61
3, 168956, Note_off_c, 1, 72, 65
3, 168960, Note_on_c, 1, 70, 61
3, 169148, Note_off_c, 1, 70, 65
3, 169152, Note_on_c, 1, 69, 61
3, 169340, Note_off_c, 1, 69, 65
3, 169344, Note_on_c, 1, 70, 61
3, 169532, Note_off_c, 1, 70, 65
3, 169536, Note_on_c, 1, 65, 61
3, 169724, Note_off_c, 1, 65, 65
3, 169728, Note_on_c, 1, 70, 61
3, 169916, Note_off_c, 1, 70, 65
3, 169920, Note_on_c, 1, 73, 61
3, 170108, Note_off_c, 1, 73, 65
3, 170112, Note_on_c, 1, 77, 108
3, 170112, Note_on_c, 1, 65, 108
3, 170684, Note_off_c, 1, 77, 65
3, 170688, Note_on_c, 1, 75, 108
3, 170876, Note_off_c, 1, 65, 65
3, 170876, Note_off_c, 1, 75, 65
3, 170880, Note_on_c, 1, 73, 108
3, 171260, Note_off_c, 1, 73, 65
3, 171264, Note_on_c, 1, 73, 108
3, 171264, Note_on_c, 1, 66, 108
3, 171644, Note_off_c, 1, 73, 65
3, 171648, Note_on_c, 1, 72, 108
3, 172028, Note_off_c, 1, 66, 65
3, 172028, Note_off_c, 1, 72, 65
3, 172032, Note_on_c, 1, 72, 108
3, 172220, Note_off_c, 1, 72, 65
3, 172416, Note_on_c, 1, 80, 108
3, 172416, Note_on_c, 1, 68, 108
3, 172988, Note_off_c, 1, 80, 65
3, 172992, Note_on_c, 1, 78, 108
3, 173180, Note_off_c, 1, 68, 65
3, 173180, Note_off_c, 1, 78, 65
3, 173184, Note_on_c, 1, 77, 108
3, 173564, Note_off_c, 1, 77, 65
3, 173568, Note_on_c, 1, 77, 108
3, 173568, Note_on_c, 1, 70, 108
3, 173948, Note_off_c, 1, 77, 65
3, 173952, Note_on_c, 1, 75, 108
3, 174332, Note_off_c, 1, 75, 65
3, 174336, Note_on_c, 1, 75, 108
3, 174524, Note_off_c, 1, 75, 65
3, 174716, Note_off_c, 1, 70, 65
3, 174720, Note_on_c, 1, 75, 108
3, 174720, Note_on_c, 1, 87, 108
3, 175292, Note_off_c, 1, 87, 65
3, 175296, Note_on_c, 1, 85, 108
3, 175488, Note_on_c, 1, 84, 108
3, 175580, Note_off_c, 1, 85, 65
3, 175868, Note_off_c, 1, 75, 65
3, 175868, Note_off_c, 1, 84, 65
3, 175872, Note_on_c, 1, 73, 108
3, 175872, Note_on_c, 1, 84, 108
3, 176256, Note_on_c, 1, 82, 108
3, 176320, Note_off_c, 1, 84, 65
3, 176640, Note_on_c, 1, 82, 108
3, 176700, Note_off_c, 1, 82, 65
3, 176828, Note_off_c, 1, 82, 65
3, 177020, Note_off_c, 1, 73, 65
3, 177024, Note_on_c, 1, 75, 108
3, 177024, Note_on_c, 1, 82, 108
3, 177408, Note_on_c, 1, 81, 108
3, 177596, Note_off_c, 1, 82, 65
3, 177792, Note_on_c, 1, 81, 108
3, 177980, Note_off_c, 1, 81, 65
3, 177980, Note_off_c, 1, 81, 65
3, 178172, Note_off_c, 1, 75, 65
3, 178176, Note_on_c, 1, 81, 66
3, 178176, Note_on_c, 1, 75, 66
3, 179708, Note_off_c, 1, 81, 65
3, 179708, Note_off_c, 1, 75, 65
3, 179712, Note_on_c, 1, 81, 56
3, 179712, Note_on_c, 1, 75, 56
3, 179712, Note_on_c, 1, 69, 56
3, 180092, Note_off_c, 1, 81, 65
3, 180092, Note_off_c, 1, 75, 65
3, 180092, Note_off_c, 1, 69, 65
3, 180096, Note_on_c, 1, 69, 56
3, 180096, Note_on_c, 1, 75, 56
3, 180096, Note_on_c, 1, 81, 56
3, 180476, Note_off_c, 1, 69, 65
3, 180476, Note_off_c, 1, 75, 65
3, 180476, Note_off_c, 1, 81, 65
3, 180480, Note_on_c, 1, 81, 56
3, 180480, Note_on_c, 1, 75, 56
3, 180480, Note_on_c, 1, 69, 56
3, 181628, Note_off_c, 1, 81, 65
3, 181628, Note_off_c, 1, 75, 65
3, 181628, Note_off_c, 1, 69, 65
3, 182688, Note_on_c, 1, 77, 82
3, 182780, Note_off_c, 1, 77, 65
3, 182784, Note_on_c, 1, 89, 82
3, 183164, Note_off_c, 1, 89, 65
3, 183936, Note_on_c, 1, 67, 88
3, 184124, Note_off_c, 1, 67, 65
3, 184992, Note_on_c, 1, 67, 93
3, 185084, Note_off_c, 1, 67, 65
3, 185088, Note_on_c, 1, 79, 94
3, 185276, Note_off_c, 1, 79, 65
3, 186240, Note_on_c, 1, 57, 99
3, 186428, Note_off_c, 1, 57, 65
3, 187296, Note_on_c, 1, 69, 106
3, 187388, Note_off_c, 1, 69, 65
3, 187392, Note_on_c, 1, 81, 106
3, 187580, Note_off_c, 1, 81, 65
3, 188544, Note_on_c, 1, 58, 112
3, 188924, Note_off_c, 1, 58, 65
3, 189216, Note_on_c, 1, 73, 115
3, 189308, Note_off_c, 1, 73, 65
3, 189312, Note_on_c, 1, 85, 116
3, 189500, Note_off_c, 1, 85, 65
3, 189600, Note_on_c, 1, 74, 113
3, 189692, Note_off_c, 1, 74, 65
3, 189696, Note_on_c, 1, 86, 113
3, 190076, Note_off_c, 1, 86, 65
3, 190368, Note_on_c, 1, 76, 113
3, 190460, Note_off_c, 1, 76, 65
3, 190464, Note_on_c, 1, 88, 113
3, 190844, Note_off_c, 1, 88, 65
3, 190848, Note_on_c, 1, 89, 113
3, 190848, Note_on_c, 1, 77, 113
3, 191612, Note_off_c, 1, 89, 65
3, 191612, Note_off_c, 1, 77, 65
3, 191616, Note_on_c, 1, 87, 113
3, 191804, Note_off_c, 1, 87, 65
3, 191808, Note_on_c, 1, 86, 113
3, 191996, Note_off_c, 1, 86, 65
3, 192000, Note_on_c, 1, 86, 113
3, 192764, Note_off_c, 1, 86, 65
3, 192768, Note_on_c, 1, 84, 113
3, 192956, Note_off_c, 1, 84, 65
3, 192960, Note_on_c, 1, 82, 113
3, 193148, Note_off_c, 1, 82, 65
3, 193152, Note_on_c, 1, 82, 113
3, 193916, Note_off_c, 1, 82, 65
3, 193920, Note_on_c, 1, 81, 113
3, 194108, Note_off_c, 1, 81, 65
3, 194112, Note_on_c, 1, 79, 113
3, 194300, Note_off_c, 1, 79, 65
3, 194304, Note_on_c, 1, 79, 113
3, 195068, Note_off_c, 1, 79, 65
3, 195072, Note_on_c, 1, 77, 113
3, 195260, Note_off_c, 1, 77, 65
3, 195264, Note_on_c, 1, 75, 113
3, 195452, Note_off_c, 1, 75, 65
3, 195456, Note_on_c, 1, 65, 113
3, 195456, Note_on_c, 1, 70, 113
3, 195456, Note_on_c, 1, 74, 113
3, 195644, Note_off_c, 1, 65, 65
3, 195644, Note_off_c, 1, 70, 65
3, 195644, Note_off_c, 1, 74, 65
3, 195840, Note_on_c, 1, 65, 113
3, 195840, Note_on_c, 1, 70, 113
3, 195840, Note_on_c, 1, 77, 113
3, 196028, Note_off_c, 1, 65, 65
3, 196028, Note_off_c, 1, 70, 65
3, 196028, Note_off_c, 1, 77, 65
3, 196608, Note_on_c, 1, 72, 113
3, 196608, Note_on_c, 1, 69, 113
3, 196608, Note_on_c, 1, 65, 113
3, 196796, Note_off_c, 1, 72, 65
3, 196796, Note_off_c, 1, 69, 65
3, 196796, Note_off_c, 1, 65, 65
3, 196992, Note_on_c, 1, 65, 113
3, 196992, Note_on_c, 1, 69, 113
3, 196992, Note_on_c, 1, 74, 113
3, 197180, Note_off_c, 1, 65, 65
3, 197180, Note_off_c, 1, 69, 65
3, 197180, Note_off_c, 1, 74, 65
3, 198144, Note_on_c, 1, 77, 113
3, 198144, Note_on_c, 1, 89, 113
3, 198332, Note_off_c, 1, 77, 65
3, 198332, Note_off_c, 1, 89, 65
3, 198528, Note_on_c, 1, 75, 113
3, 198528, Note_on_c, 1, 87, 113
3, 198716, Note_off_c, 1, 75, 65
3, 198716, Note_off_c, 1, 87, 65
3, 198720, Note_on_c, 1, 74, 113
3, 198720, Note_on_c, 1, 86, 113
3, 198908, Note_off_c, 1, 74, 65
3, 198908, Note_off_c, 1, 86, 65
3, 199296, Note_on_c, 1, 86, 113
3, 199296, Note_on_c, 1, 74, 113
3, 199484, Note_off_c, 1, 86, 65
3, 199484, Note_off_c, 1, 74, 65
3, 199680, Note_on_c, 1, 72, 113
3, 199680, Note_on_c, 1, 84, 113
3, 199868, Note_off_c, 1, 72, 65
3, 199868, Note_off_c, 1, 84, 65
3, 199872, Note_on_c, 1, 70, 113
3, 199872, Note_on_c, 1, 82, 113
3, 200060, Note_off_c, 1, 70, 65
3, 200060, Note_off_c, 1, 82, 65
3, 200448, Note_on_c, 1, 70, 113
3, 200448, Note_on_c, 1, 82, 113
3, 200636, Note_off_c, 1, 70, 65
3, 200636, Note_off_c, 1, 82, 65
3, 200832, Note_on_c, 1, 81, 113
3, 200832, Note_on_c, 1, 69, 113
3, 201020, Note_off_c, 1, 81, 65
3, 201020, Note_off_c, 1, 69, 65
3, 201024, Note_on_c, 1, 67, 113
3, 201024, Note_on_c, 1, 79, 113
3, 201212, Note_off_c, 1, 67, 65
3, 201212, Note_off_c, 1, 79, 65
3, 201600, Note_on_c, 1, 67, 113
3, 201600, Note_on_c, 1, 79, 113
3, 201788, Note_off_c, 1, 67, 65
3, 201788, Note_off_c, 1, 79, 65
3, 201984, Note_on_c, 1, 77, 113
3, 201984, Note_on_c, 1, 65, 113
3, 202172, Note_off_c, 1, 77, 65
3, 202172, Note_off_c, 1, 65, 65
3, 202176, Note_on_c, 1, 75, 113
3, 202176, Note_on_c, 1, 63, 113
3, 202364, Note_off_c, 1, 75, 65
3, 202364, Note_off_c, 1, 63, 65
3, 202752, Note_on_c, 1, 62, 113
3, 202752, Note_on_c, 1, 74, 113
3, 202940, Note_off_c, 1, 62, 65
3, 202940, Note_off_c, 1, 74, 65
3, 203136, Note_on_c, 1, 63, 113
3, 203136, Note_on_c, 1, 75, 113
3, 203324, Note_off_c, 1, 63, 65
3, 203324, Note_off_c, 1, 75, 65
3, 203520, Note_on_c, 1, 63, 113
3, 203520, Note_on_c, 1, 75, 113
3, 203900, Note_off_c, 1, 63, 65
3, 203900, Note_off_c, 1, 75, 65
3, 203904, Note_on_c, 1, 77, 113
3, 203904, Note_on_c, 1, 65, 113
3, 204284, Note_off_c, 1, 77, 65
3, 204284, Note_off_c, 1, 65, 65
3, 204288, Note_on_c, 1, 69, 113
3, 204288, Note_on_c, 1, 57, 113
3, 204476, Note_off_c, 1, 69, 65
3, 204476, Note_off_c, 1, 57, 65
3, 204672, Note_on_c, 1, 70, 113
3, 204672, Note_on_c, 1, 58, 113
3, 204860, Note_off_c, 1, 70, 65
3, 204860, Note_off_c, 1, 58, 65
3, 205440, Note_on_c, 1, 75, 66
3, 205440, Note_on_c, 1, 70, 66
3, 205440, Note_on_c, 1, 65, 66
3, 205440, Note_on_c, 1, 58, 66
3, 205628, Note_off_c, 1, 75, 65
3, 205632, Note_on_c, 1, 74, 66
3, 205820, Note_off_c, 1, 70, 65
3, 205820, Note_off_c, 1, 65, 65
3, 205820, Note_off_c, 1, 58, 65
3, 205820, Note_off_c, 1, 74, 65
3, 205824, Note_on_c, 1, 72, 66
3, 205824, Note_on_c, 1, 69, 66
3, 205824, Note_on_c, 1, 65, 66
3, 205824, Note_on_c, 1, 63, 66
3, 206204, Note_off_c, 1, 72, 65
3, 206208, Note_on_c, 1, 77, 66
3, 206588, Note_off_c, 1, 69, 65
3, 206588, Note_off_c, 1, 65, 65
3, 206588, Note_off_c, 1, 63, 65
3, 206588, Note_off_c, 1, 77, 65
3, 206592, Note_on_c, 1, 77, 66
3, 206780, Note_off_c, 1, 77, 65
3, 206976, Note_on_c, 1, 77, 66
3, 206976, Note_on_c, 1, 65, 66
3, 206976, Note_on_c, 1, 62, 66
3, 207356, Note_off_c, 1, 77, 65
3, 207356, Note_off_c, 1, 65, 65
3, 207356, Note_off_c, 1, 62, 65
3, 207360, Note_on_c, 1, 70, 66
3, 207740, Note_off_c, 1, 70, 65
3, 207744, Note_on_c, 1, 75, 66
3, 207744, Note_on_c, 1, 65, 66
3, 207744, Note_on_c, 1, 58, 66
3, 207932, Note_off_c, 1, 75, 65
3, 207936, Note_on_c, 1, 74, 66
3, 208124, Note_off_c, 1, 65, 65
3, 208124, Note_off_c, 1, 58, 65
3, 208124, Note_off_c, 1, 74, 65
3, 208128, Note_on_c, 1, 72, 66
3, 208128, Note_on_c, 1, 69, 66
3, 208128, Note_on_c, 1, 65, 66
3, 208128, Note_on_c, 1, 63, 66
3, 208508, Note_off_c, 1, 72, 65
3, 208512, Note_on_c, 1, 77, 66
3, 208892, Note_off_c, 1, 69, 65
3, 208892, Note_off_c, 1, 65, 65
3, 208892, Note_off_c, 1, 63, 65
3, 208892, Note_off_c, 1, 77, 65
3, 208896, Note_on_c, 1, 77, 66
3, 209084, Note_off_c, 1, 77, 65
3, 209280, Note_on_c, 1, 77, 66
3, 209280, Note_on_c, 1, 65, 66
3, 209280, Note_on_c, 1, 62, 66
3, 209660, Note_off_c, 1, 77, 65
3, 209660, Note_off_c, 1, 65, 65
3, 209660, Note_off_c, 1, 62, 65
3, 209664, Note_on_c, 1, 70, 66
3, 210044, Note_off_c, 1, 70, 65
3, 210048, Note_on_c, 1, 75, 66
3, 210048, Note_on_c, 1, 65, 66
3, 210048, Note_on_c, 1, 58, 66
3, 210236, Note_off_c, 1, 75, 65
3, 210240, Note_on_c, 1, 74, 66
3, 210428, Note_off_c, 1, 65, 65
3, 210428, Note_off_c, 1, 58, 65
3, 210428, Note_off_c, 1, 74, 65
3, 210432, Note_on_c, 1, 71, 108
3, 210432, Note_on_c, 1, 74, 108
3, 210432, Note_on_c, 1, 65, 108
3, 210432, Note_on_c, 1, 67, 108
3, 210812, Note_off_c, 1, 74, 65
3, 210816, Note_on_c, 1, 80, 109
3, 211196, Note_off_c, 1, 71, 65
3, 211196, Note_off_c, 1, 65, 65
3, 211196, Note_off_c, 1, 67, 65
3, 211196, Note_off_c, 1, 80, 65
3, 211200, Note_on_c, 1, 80, 108
3, 211388, Note_off_c, 1, 80, 65
3, 211488, Note_on_c, 1, 81, 108
3, 211580, Note_off_c, 1, 81, 65
3, 211584, Note_on_c, 1, 79, 72
3, 211584, Note_on_c, 1, 72, 66
3, 211584, Note_on_c, 1, 67, 66
3, 211584, Note_on_c, 1, 63, 66
3, 212732, Note_off_c, 1, 79, 65
3, 212732, Note_off_c, 1, 72, 65
3, 212732, Note_off_c, 1, 67, 65
3, 212732, Note_off_c, 1, 63, 65
3, 213120, Note_on_c, 1, 72, 66
3, 213120, Note_on_c, 1, 70, 66
3, 213120, Note_on_c, 1, 67, 66
3, 213120, Note_on_c, 1, 64, 66
3, 213404, Note_off_c, 1, 72, 65
3, 213404, Note_off_c, 1, 70, 65
3, 213404, Note_off_c, 1, 67, 65
3, 213404, Note_off_c, 1, 64, 65
3, 213504, Note_on_c, 1, 72, 66
3, 213504, Note_on_c, 1, 70, 66
3, 213504, Note_on_c, 1, 67, 66
3, 213504, Note_on_c, 1, 64, 66
3, 213788, Note_off_c, 1, 72, 65
3, 213788, Note_off_c, 1, 70, 65
3, 213788, Note_off_c, 1, 67, 65
3, 213788, Note_off_c, 1, 64, 65
3, 213888, Note_on_c, 1, 74, 66
3, 213888, Note_on_c, 1, 70, 66
3, 213888, Note_on_c, 1, 65, 66
3, 214268, Note_off_c, 1, 74, 65
3, 214272, Note_on_c, 1, 75, 66
3, 214652, Note_off_c, 1, 70, 65
3, 214652, Note_off_c, 1, 65, 65
3, 214652, Note_off_c, 1, 75, 65
3, 214656, Note_on_c, 1, 72, 66
3, 214656, Note_on_c, 1, 69, 66
3, 214656, Note_on_c, 1, 63, 66
3, 214844, Note_off_c, 1, 72, 65
3, 214844, Note_off_c, 1, 69, 65
3, 215036, Note_off_c, 1, 63, 65
3, 215040, Note_on_c, 1, 70, 66
3, 215040, Note_on_c, 1, 62, 66
3, 215420, Note_off_c, 1, 70, 65
3, 215420, Note_off_c, 1, 62, 65
3, 216576, Note_on_c, 1, 81, 66
3, 216956, Note_off_c, 1, 81, 65
3, 216960, Note_on_c, 1, 81, 66
3, 217052, Note_off_c, 1, 81, 65
3, 217056, Note_on_c, 1, 82, 66
3, 217148, Note_off_c, 1, 82, 65
3, 217152, Note_on_c, 1, 79, 66
3, 217244, Note_off_c, 1, 79, 65
3, 217248, Note_on_c, 1, 81, 66
3, 217340, Note_off_c, 1, 81, 65
3, 217344, Note_on_c, 1, 82, 66
3, 217532, Note_off_c, 1, 82, 65
3, 217536, Note_on_c, 1, 77, 66
3, 217724, Note_off_c, 1, 77, 65
3, 217728, Note_on_c, 1, 82, 66
3, 217916, Note_off_c, 1, 82, 65
3, 217920, Note_on_c, 1, 86, 66
3, 218108, Note_off_c, 1, 86, 65
3, 218112, Note_on_c, 1, 89, 66
3, 218496, Note_off_c, 1, 89, 65
3, 218880, Note_on_c, 1, 81, 66
3, 219260, Note_off_c, 1, 81, 65
3, 219264, Note_on_c, 1, 81, 66
3, 219356, Note_off_c, 1, 81, 65
3, 219360, Note_on_c, 1, 82, 66
3, 219452, Note_off_c, 1, 82, 65
3, 219456, Note_on_c, 1, 79, 66
3, 219548, Note_off_c, 1, 79, 65
3, 219552, Note_on_c, 1, 81, 66
3, 219644, Note_off_c, 1, 81, 65
3, 219648, Note_on_c, 1, 82, 66
3, 219836, Note_off_c, 1, 82, 65
3, 219840, Note_on_c, 1, 77, 66
3, 220028, Note_off_c, 1, 77, 65
3, 220032, Note_on_c, 1, 82, 66
3, 220220, Note_off_c, 1, 82, 65
3, 220224, Note_on_c, 1, 86, 66
3, 220412, Note_off_c, 1, 86, 65
3, 220416, Note_on_c, 1, 89, 66
3, 220800, Note_off_c, 1, 89, 65
3, 221184, Note_on_c, 1, 81, 66
3, 221564, Note_off_c, 1, 81, 65
3, 221568, Note_on_c, 1, 81, 66
3, 221660, Note_off_c, 1, 81, 65
3, 221664, Note_on_c, 1, 82, 66
3, 221756, Note_off_c, 1, 82, 65
3, 221760, Note_on_c, 1, 79, 66
3, 221852, Note_off_c, 1, 79, 65
3, 221856, Note_on_c, 1, 81, 66
3, 221948, Note_off_c, 1, 81, 65
3, 221952, Note_on_c, 1, 82, 66
3, 222332, Note_off_c, 1, 82, 65
3, 222336, Note_on_c, 1, 75, 72
3, 222464, Note_on_c, 1, 74, 73
3, 222468, Note_off_c, 1, 75, 65
3, 222596, Note_off_c, 1, 74, 65
3, 222596, Note_on_c, 1, 72, 75
3, 222720, Note_on_c, 1, 77, 77
3, 222724, Note_off_c, 1, 72, 65
3, 222848, Note_on_c, 1, 75, 78
3, 222852, Note_off_c, 1, 77, 65
3, 222980, Note_off_c, 1, 75, 65
3, 222980, Note_on_c, 1, 74, 80
3, 223104, Note_on_c, 1, 79, 82
3, 223104, Note_on_c, 1, 63, 82
3, 223104, Note_on_c, 1, 67, 82
3, 223108, Note_off_c, 1, 74, 65
3, 223232, Note_on_c, 1, 77, 83
3, 223236, Note_off_c, 1, 79, 65
3, 223364, Note_off_c, 1, 77, 65
3, 223364, Note_on_c, 1, 75, 85
3, 223484, Note_off_c, 1, 63, 65
3, 223484, Note_off_c, 1, 67, 65
3, 223488, Note_on_c, 1, 81, 87
3, 223488, Note_on_c, 1, 69, 87
3, 223488, Note_on_c, 1, 65, 87
3, 223492, Note_off_c, 1, 75, 65
3, 223616, Note_on_c, 1, 79, 88
3, 223620, Note_off_c, 1, 81, 65
3, 223748, Note_off_c, 1, 79, 65
3, 223748, Note_on_c, 1, 77, 90
3, 223868, Note_off_c, 1, 69, 65
3, 223868, Note_off_c, 1, 65, 65
3, 223872, Note_on_c, 1, 82, 92
3, 223872, Note_on_c, 1, 70, 92
3, 223872, Note_on_c, 1, 67, 92
3, 223876, Note_off_c, 1, 77, 65
3, 224000, Note_on_c, 1, 81, 93
3, 224004, Note_off_c, 1, 82, 65
3, 224132, Note_off_c, 1, 81, 65
3, 224132, Note_on_c, 1, 79, 95
3, 224252, Note_off_c, 1, 70, 65
3, 224252, Note_off_c, 1, 67, 65
3, 224256, Note_on_c, 1, 84, 97
3, 224256, Note_on_c, 1, 69, 97
3, 224256, Note_on_c, 1, 72, 97
3, 224260, Note_off_c, 1, 84, 65
3, 224384, Note_on_c, 1, 82, 98
3, 224388, Note_off_c, 1, 84, 65
3, 224516, Note_off_c, 1, 82, 65
3, 224516, Note_on_c, 1, 80, 100
3, 224636, Note_off_c, 1, 69, 65
3, 224636, Note_off_c, 1, 72, 65
3, 224640, Note_on_c, 1, 86, 103
3, 224640, Note_on_c, 1, 74, 103
3, 224640, Note_on_c, 1, 70, 103
3, 224644, Note_off_c, 1, 80, 65
3, 224768, Note_on_c, 1, 84, 104
3, 224772, Note_off_c, 1, 86, 65
3, 224900, Note_off_c, 1, 84, 65
3, 224900, Note_on_c, 1, 82, 106
3, 225020, Note_off_c, 1, 74, 65
3, 225020, Note_off_c, 1, 70, 65
3, 225024, Note_on_c, 1, 87, 108
3, 225024, Note_on_c, 1, 72, 108
3, 225024, Note_on_c, 1, 75, 108
3, 225028, Note_off_c, 1, 82, 65
3, 225152, Note_on_c, 1, 86, 109
3, 225156, Note_off_c, 1, 87, 65
3, 225284, Note_off_c, 1, 86, 65
3, 225284, Note_on_c, 1, 84, 111
3, 225404, Note_off_c, 1, 72, 65
3, 225404, Note_off_c, 1, 75, 65
3, 225408, Note_on_c, 1, 89, 118
3, 225412, Note_off_c, 1, 84, 65
3, 225536, Note_on_c, 1, 87, 118
3, 225540, Note_off_c, 1, 89, 65
3, 225668, Note_off_c, 1, 87, 65
3, 225668, Note_on_c, 1, 86, 118
3, 225792, Note_on_c, 1, 87, 118
3, 225796, Note_off_c, 1, 86, 65
3, 225920, Note_on_c, 1, 86, 118
3, 225924, Note_off_c, 1, 87, 65
3, 226052, Note_off_c, 1, 86, 65
3, 226052, Note_on_c, 1, 84, 118
3, 226176, Note_on_c, 1, 86, 118
3, 226180, Note_off_c, 1, 84, 65
3, 226304, Note_on_c, 1, 84, 118
3, 226308, Note_off_c, 1, 86, 65
3, 226432, Note_on_c, 1, 82, 118
3, 226436, Note_off_c, 1, 84, 65
3, 226556, Note_off_c, 1, 82, 65
3, 226560, Note_on_c, 1, 84, 118
3, 226688, Note_on_c, 1, 82, 118
3, 226692, Note_off_c, 1, 84, 65
3, 226820, Note_off_c, 1, 82, 65
3, 226820, Note_on_c, 1, 81, 118
3, 226944, Note_on_c, 1, 82, 118
3, 226948, Note_off_c, 1, 81, 65
3, 227072, Note_on_c, 1, 81, 118
3, 227076, Note_off_c, 1, 82, 65
3, 227204, Note_off_c, 1, 81, 65
3, 227204, Note_on_c, 1, 79, 118
3, 227328, Note_on_c, 1, 81, 118
3, 227332, Note_off_c, 1, 79, 65
3, 227456, Note_on_c, 1, 79, 118
3, 227460, Note_off_c, 1, 81, 65
3, 227584, Note_on_c, 1, 77, 118
3, 227588, Note_off_c, 1, 79, 65
3, 227708, Note_off_c, 1, 77, 65
3, 227712, Note_on_c, 1, 79, 118
3, 227840, Note_on_c, 1, 77, 118
3, 227844, Note_off_c, 1, 79, 65
3, 227972, Note_off_c, 1, 77, 65
3, 227972, Note_on_c, 1, 76, 118
3, 228096, Note_on_c, 1, 77, 118
3, 228100, Note_off_c, 1, 76, 65
3, 228224, Note_on_c, 1, 76, 118
3, 228228, Note_off_c, 1, 77, 65
3, 228356, Note_off_c, 1, 76, 65
3, 228356, Note_on_c, 1, 74, 118
3, 228480, Note_on_c, 1, 76, 118
3, 228484, Note_off_c, 1, 74, 65
3, 228608, Note_on_c, 1, 74, 118
3, 228612, Note_off_c, 1, 76, 65
3, 228736, Note_on_c, 1, 72, 118
3, 228740, Note_off_c, 1, 74, 65
3, 228860, Note_off_c, 1, 72, 65
3, 228864, Note_on_c, 1, 74, 118
3, 228992, Note_on_c, 1, 72, 118
3, 228996, Note_off_c, 1, 74, 65
3, 229120, Note_on_c, 1, 71, 118
3, 229124, Note_off_c, 1, 72, 65
3, 229244, Note_off_c, 1, 71, 65
3, 229248, Note_on_c, 1, 80, 118
3, 229376, Note_on_c, 1, 79, 118
3, 229380, Note_off_c, 1, 80, 65
3, 229504, Note_on_c, 1, 77, 118
3, 229508, Note_off_c, 1, 79, 65
3, 229628, Note_off_c, 1, 77, 65
3, 229632, Note_on_c, 1, 77, 118
3, 229760, Note_on_c, 1, 75, 118
3, 229764, Note_off_c, 1, 77, 65
3, 229888, Note_on_c, 1, 74, 118
3, 229892, Note_off_c, 1, 75, 65
3, 230012, Note_off_c, 1, 74, 65
3, 230016, Note_on_c, 1, 75, 118
3, 230144, Note_on_c, 1, 74, 118
3, 230148, Note_off_c, 1, 75, 65
3, 230272, Note_on_c, 1, 72, 118
3, 230276, Note_off_c, 1, 74, 65
3, 230396, Note_off_c, 1, 72, 65
3, 230400, Note_on_c, 1, 79, 118
3, 230528, Note_on_c, 1, 77, 118
3, 230532, Note_off_c, 1, 79, 65
3, 230656, Note_on_c, 1, 75, 118
3, 230660, Note_off_c, 1, 77, 65
3, 230780, Note_off_c, 1, 75, 65
3, 230784, Note_on_c, 1, 75, 118
3, 230912, Note_on_c, 1, 74, 118
3, 230916, Note_off_c, 1, 75, 65
3, 231040, Note_on_c, 1, 72, 118
3, 231044, Note_off_c, 1, 74, 65
3, 231164, Note_off_c, 1, 72, 65
3, 231168, Note_on_c, 1, 72, 118
3, 231296, Note_on_c, 1, 70, 118
3, 231300, Note_off_c, 1, 72, 65
3, 231424, Note_on_c, 1, 69, 118
3, 231428, Note_off_c, 1, 70, 65
3, 231548, Note_off_c, 1, 69, 65
3, 231552, Note_on_c, 1, 78, 118
3, 231680, Note_on_c, 1, 77, 118
3, 231684, Note_off_c, 1, 78, 65
3, 231808, Note_on_c, 1, 75, 118
3, 231812, Note_off_c, 1, 77, 65
3, 231932, Note_off_c, 1, 75, 65
3, 231936, Note_on_c, 1, 75, 118
3, 232064, Note_on_c, 1, 74, 118
3, 232068, Note_off_c, 1, 75, 65
3, 232192, Note_on_c, 1, 72, 118
3, 232196, Note_off_c, 1, 74, 65
3, 232316, Note_off_c, 1, 72, 65
3, 232320, Note_on_c, 1, 74, 118
3, 232448, Note_on_c, 1, 72, 118
3, 232452, Note_off_c, 1, 74, 65
3, 232576, Note_on_c, 1, 71, 118
3, 232580, Note_off_c, 1, 72, 65
3, 232700, Note_off_c, 1, 71, 65
3, 232704, Note_on_c, 1, 77, 118
3, 232832, Note_on_c, 1, 75, 118
3, 232836, Note_off_c, 1, 77, 65
3, 232960, Note_on_c, 1, 74, 118
3, 232964, Note_off_c, 1, 75, 65
3, 233084, Note_off_c, 1, 74, 65
3, 233088, Note_on_c, 1, 74, 118
3, 233216, Note_on_c, 1, 72, 118
3, 233220, Note_off_c, 1, 74, 65
3, 233344, Note_on_c, 1, 71, 118
3, 233348, Note_off_c, 1, 72, 65
3, 233468, Note_off_c, 1, 71, 65
3, 233472, Note_on_c, 1, 75, 118
3, 233600, Note_on_c, 1, 72, 118
3, 233604, Note_off_c, 1, 75, 65
3, 233728, Note_on_c, 1, 67, 118
3, 233732, Note_off_c, 1, 72, 65
3, 233852, Note_off_c, 1, 67, 65
3, 233856, Note_on_c, 1, 74, 118
3, 233984, Note_on_c, 1, 70, 118
3, 233988, Note_off_c, 1, 74, 65
3, 234112, Note_on_c, 1, 65, 118
3, 234116, Note_off_c, 1, 70, 65
3, 234236, Note_off_c, 1, 65, 65
3, 234240, Note_on_c, 1, 72, 118
3, 234368, Note_on_c, 1, 69, 118
3, 234372, Note_off_c, 1, 72, 65
3, 234496, Note_on_c, 1, 63, 118
3, 234500, Note_off_c, 1, 69, 65
3, 234620, Note_off_c, 1, 63, 65
3, 235008, Note_on_c, 1, 68, 118
3, 235136, Note_on_c, 1, 67, 118
3, 235140, Note_off_c, 1, 68, 65
3, 235264, Note_on_c, 1, 65, 118
3, 235268, Note_off_c, 1, 67, 65
3, 235388, Note_off_c, 1, 65, 65
3, 235392, Note_on_c, 1, 65, 118
3, 235520, Note_on_c, 1, 63, 118
3, 235524, Note_off_c, 1, 65, 65
3, 235648, Note_on_c, 1, 62, 118
3, 235652, Note_off_c, 1, 63, 65
3, 235772, Note_off_c, 1, 62, 65
3, 236160, Note_on_c, 1, 67, 69
3, 236288, Note_on_c, 1, 65, 70
3, 236292, Note_off_c, 1, 67, 65
3, 236416, Note_on_c, 1, 63, 71
3, 236420, Note_off_c, 1, 65, 65
3, 236540, Note_off_c, 1, 63, 65
3, 236544, Note_on_c, 1, 63, 72
3, 236672, Note_on_c, 1, 62, 72
3, 236676, Note_off_c, 1, 63, 65
3, 236800, Note_on_c, 1, 60, 73
3, 236804, Note_off_c, 1, 62, 65
3, 236924, Note_off_c, 1, 60, 65
3, 237312, Note_on_c, 1, 66, 77
3, 237440, Note_on_c, 1, 65, 77
3, 237444, Note_off_c, 1, 66, 65
3, 237568, Note_on_c, 1, 63, 78
3, 237572, Note_off_c, 1, 65, 65
3, 237692, Note_off_c, 1, 63, 65
3, 237696, Note_on_c, 1, 66, 79
3, 237824, Note_on_c, 1, 65, 80
3, 237828, Note_off_c, 1, 66, 65
3, 237952, Note_on_c, 1, 63, 81
3, 237956, Note_off_c, 1, 65, 65
3, 238076, Note_off_c, 1, 63, 65
3, 238080, Note_on_c, 1, 66, 82
3, 238208, Note_on_c, 1, 65, 82
3, 238212, Note_off_c, 1, 66, 65
3, 238336, Note_on_c, 1, 63, 82
3, 238340, Note_off_c, 1, 65, 65
3, 238460, Note_off_c, 1, 63, 65
3, 238464, Note_on_c, 1, 66, 82
3, 238592, Note_on_c, 1, 65, 82
3, 238596, Note_off_c, 1, 66, 65
3, 238720, Note_on_c, 1, 63, 82
3, 238724, Note_off_c, 1, 65, 65
3, 238844, Note_off_c, 1, 63, 65
3, 238848, Note_on_c, 1, 66, 82
3, 238976, Note_on_c, 1, 65, 82
3, 238980, Note_off_c, 1, 66, 65
3, 239104, Note_on_c, 1, 63, 82
3, 239108, Note_off_c, 1, 65, 65
3, 239228, Note_off_c, 1, 63, 65
3, 239232, Note_on_c, 1, 66, 82
3, 239360, Note_on_c, 1, 65, 82
3, 239364, Note_off_c, 1, 66, 65
3, 239488, Note_on_c, 1, 63, 82
3, 239492, Note_off_c, 1, 65, 65
3, 239612, Note_off_c, 1, 63, 65
3, 239616, Note_on_c, 1, 75, 82
3, 239744, Note_on_c, 1, 67, 82
3, 239748, Note_off_c, 1, 75, 65
3, 239872, Note_on_c, 1, 63, 82
3, 239876, Note_off_c, 1, 67, 65
3, 239996, Note_off_c, 1, 63, 65
3, 240000, Note_on_c, 1, 75, 82
3, 240128, Note_on_c, 1, 67, 82
3, 240132, Note_off_c, 1, 75, 65
3, 240256, Note_on_c, 1, 63, 82
3, 240260, Note_off_c, 1, 67, 65
3, 240380, Note_off_c, 1, 63, 65
3, 240768, Note_on_c, 1, 75, 84
3, 240896, Note_on_c, 1, 66, 85
3, 240900, Note_off_c, 1, 75, 65
3, 241024, Note_on_c, 1, 63, 86
3, 241028, Note_off_c, 1, 66, 65
3, 241148, Note_off_c, 1, 63, 65
3, 241152, Note_on_c, 1, 75, 87
3, 241280, Note_on_c, 1, 66, 88
3, 241284, Note_off_c, 1, 75, 65
3, 241408, Note_on_c, 1, 63, 89
3, 241412, Note_off_c, 1, 66, 65
3, 241532, Note_off_c, 1, 63, 65
3, 241920, Note_on_c, 1, 87, 93
3, 242048, Note_on_c, 1, 78, 94
3, 242052, Note_off_c, 1, 87, 65
3, 242176, Note_on_c, 1, 75, 94
3, 242180, Note_off_c, 1, 78, 65
3, 242300, Note_off_c, 1, 75, 65
3, 242304, Note_on_c, 1, 87, 95
3, 242432, Note_on_c, 1, 78, 96
3, 242436, Note_off_c, 1, 87, 65
3, 242560, Note_on_c, 1, 75, 97
3, 242564, Note_off_c, 1, 78, 65
3, 242684, Note_off_c, 1, 75, 65
3, 243072, Note_on_c, 1, 87, 101
3, 243200, Note_on_c, 1, 78, 103
3, 243204, Note_off_c, 1, 87, 65
3, 243328, Note_on_c, 1, 75, 104
3, 243332, Note_off_c, 1, 78, 65
3, 243452, Note_off_c, 1, 75, 65
3, 243456, Note_on_c, 1, 86, 105
3, 243584, Note_on_c, 1, 77, 106
3, 243588, Note_off_c, 1, 86, 65
3, 243712, Note_on_c, 1, 74, 107
3, 243716, Note_off_c, 1, 77, 65
3, 243836, Note_off_c, 1, 74, 65
3, 244224, Note_on_c, 1, 84, 96
3, 244352, Note_on_c, 1, 75, 92
3, 244356, Note_off_c, 1, 84, 65
3, 244480, Note_on_c, 1, 72, 88
3, 244484, Note_off_c, 1, 75, 65
3, 244604, Note_off_c, 1, 72, 65
3, 244608, Note_on_c, 1, 84, 84
3, 244736, Note_on_c, 1, 75, 80
3, 244740, Note_off_c, 1, 84, 65
3, 244864, Note_on_c, 1, 72, 76
3, 244868, Note_off_c, 1, 75, 65
3, 244988, Note_off_c, 1, 72, 65
3, 245376, Note_on_c, 1, 82, 66
3, 245504, Note_on_c, 1, 74, 66
3, 245508, Note_off_c, 1, 82, 65
3, 245632, Note_on_c, 1, 70, 66
3, 245636, Note_off_c, 1, 74, 65
3, 245756, Note_off_c, 1, 70, 65
3, 245760, Note_on_c, 1, 75, 66
3, 245888, Note_on_c, 1, 72, 66
3, 245892, Note_off_c, 1, 75, 65
3, 246016, Note_on_c, 1, 77, 66
3, 246020, Note_off_c, 1, 72, 65
3, 246140, Note_off_c, 1, 77, 65
3, 246144, Note_on_c, 1, 70, 66
3, 246524, Note_off_c, 1, 70, 65
3, 246912, Note_on_c, 1, 70, 66
3, 247100, Note_off_c, 1, 70, 65
3, 247104, Note_on_c, 1, 72, 66
3, 247292, Note_off_c, 1, 72, 65
3, 247296, Note_on_c, 1, 74, 72
3, 247424, Note_off_c, 1, 74, 65
3, 247680, Note_on_c, 1, 75, 72
3, 247808, Note_off_c, 1, 75, 65
3, 248064, Note_on_c, 1, 77, 72
3, 248192, Note_off_c, 1, 77, 65
3, 248448, Note_on_c, 1, 79, 72
3, 248576, Note_off_c, 1, 79, 65
3, 248832, Note_on_c, 1, 81, 72
3, 248960, Note_off_c, 1, 81, 65
3, 249216, Note_on_c, 1, 82, 72
3, 249344, Note_off_c, 1, 82, 65
3, 249600, Note_on_c, 1, 84, 72
3, 249728, Note_off_c, 1, 84, 65
3, 249984, Note_on_c, 1, 86, 72
3, 250112, Note_off_c, 1, 86, 65
3, 250368, Note_on_c, 1, 87, 72
3, 250496, Note_off_c, 1, 87, 65
3, 250752, Note_on_c, 1, 89, 72
3, 251520, Note_off_c, 1, 89, 65
3, 251904, Note_on_c, 1, 77, 72
3, 251904, Note_on_c, 1, 80, 72
3, 251904, Note_on_c, 1, 86, 72
3, 252672, Note_off_c, 1, 77, 65
3, 252672, Note_off_c, 1, 80, 65
3, 252672, Note_off_c, 1, 86, 65
3, 253056, Note_on_c, 1, 75, 89
3, 253056, Note_on_c, 1, 79, 89
3, 253056, Note_on_c, 1, 87, 89
3, 253824, Note_off_c, 1, 75, 65
3, 253824, Note_off_c, 1, 79, 65
3, 253824, Note_off_c, 1, 87, 65
3, 254208, Note_on_c, 1, 69, 106
3, 254208, Note_on_c, 1, 75, 106
3, 254208, Note_on_c, 1, 81, 106
3, 254976, Note_off_c, 1, 69, 65
3, 254976, Note_off_c, 1, 75, 65
3, 254976, Note_off_c, 1, 81, 65
3, 255360, Note_on_c, 1, 70, 123
3, 255360, Note_on_c, 1, 74, 123
3, 255360, Note_on_c, 1, 82, 123
3, 255616, Note_off_c, 1, 70, 65
3, 255616, Note_off_c, 1, 74, 65
3, 255616, Note_off_c, 1, 82, 65
3, 255744, Note_on_c, 1, 89, 123
3, 255872, Note_on_c, 1, 86, 123
3, 255876, Note_off_c, 1, 89, 65
3, 256004, Note_off_c, 1, 86, 65
3, 256004, Note_on_c, 1, 82, 123
3, 256128, Note_off_c, 1, 82, 65
3, 256128, Note_on_c, 1, 86, 123
3, 256256, Note_on_c, 1, 82, 123
3, 256260, Note_off_c, 1, 86, 65
3, 256388, Note_off_c, 1, 82, 65
3, 256388, Note_on_c, 1, 77, 123
3, 256512, Note_off_c, 1, 77, 65
3, 256512, Note_on_c, 1, 87, 108
3, 256640, Note_on_c, 1, 84, 108
3, 256644, Note_off_c, 1, 87, 65
3, 256772, Note_off_c, 1, 84, 65
3, 256772, Note_on_c, 1, 81, 108
3, 256896, Note_off_c, 1, 81, 65
3, 256896, Note_on_c, 1, 84, 108
3, 257024, Note_on_c, 1, 81, 108
3, 257028, Note_off_c, 1, 84, 65
3, 257156, Note_off_c, 1, 81, 65
3, 257156, Note_on_c, 1, 77, 108
3, 257280, Note_off_c, 1, 77, 65
3, 257280, Note_on_c, 1, 81, 108
3, 257408, Note_on_c, 1, 77, 108
3, 257412, Note_off_c, 1, 81, 65
3, 257540, Note_off_c, 1, 77, 65
3, 257540, Note_on_c, 1, 75, 108
3, 257664, Note_off_c, 1, 75, 65
3, 257664, Note_on_c, 1, 82, 108
3, 257792, Note_on_c, 1, 77, 108
3, 257796, Note_off_c, 1, 82, 65
3, 257924, Note_off_c, 1, 77, 65
3, 257924, Note_on_c, 1, 74, 108
3, 258048, Note_off_c, 1, 74, 65
3, 258048, Note_on_c, 1, 77, 108
3, 258176, Note_on_c, 1, 74, 108
3, 258180, Note_off_c, 1, 77, 65
3, 258308, Note_off_c, 1, 74, 65
3, 258308, Note_on_c, 1, 70, 108
3, 258432, Note_off_c, 1, 70, 65
3, 258432, Note_on_c, 1, 74, 108
3, 258560, Note_on_c, 1, 70, 108
3, 258564, Note_off_c, 1, 74, 65
3, 258692, Note_off_c, 1, 70, 65
3, 258692, Note_on_c, 1, 65, 108
3, 258816, Note_off_c, 1, 65, 65
3, 258816, Note_on_c, 1, 75, 108
3, 258944, Note_on_c, 1, 72, 108
3, 258948, Note_off_c, 1, 75, 65
3, 259076, Note_off_c, 1, 72, 65
3, 259076, Note_on_c, 1, 69, 108
3, 259200, Note_off_c, 1, 69, 65
3, 259200, Note_on_c, 1, 72, 108
3, 259328, Note_on_c, 1, 69, 108
3, 259332, Note_off_c, 1, 72, 65
3, 259460, Note_off_c, 1, 69, 65
3, 259460, Note_on_c, 1, 65, 108
3, 259584, Note_off_c, 1, 65, 65
3, 259584, Note_on_c, 1, 69, 108
3, 259712, Note_on_c, 1, 65, 108
3, 259716, Note_off_c, 1, 69, 65
3, 259844, Note_off_c, 1, 65, 65
3, 259844, Note_on_c, 1, 63, 108
3, 259968, Note_off_c, 1, 63, 65
3, 259968, Note_on_c, 1, 70, 108
3, 260096, Note_on_c, 1, 65, 108
3, 260100, Note_off_c, 1, 70, 65
3, 260228, Note_off_c, 1, 65, 65
3, 260228, Note_on_c, 1, 62, 108
3, 260352, Note_off_c, 1, 62, 65
3, 260352, Note_on_c, 1, 65, 108
3, 260480, Note_on_c, 1, 62, 108
3, 260484, Note_off_c, 1, 65, 65
3, 260612, Note_off_c, 1, 62, 65
3, 260612, Note_on_c, 1, 58, 108
3, 260736, Note_off_c, 1, 58, 65
3, 260736, Note_on_c, 1, 62, 108
3, 260864, Note_on_c, 1, 58, 108
3, 260868, Note_off_c, 1, 62, 65
3, 260996, Note_off_c, 1, 58, 65
3, 260996, Note_on_c, 1, 53, 108
3, 261120, Note_off_c, 1, 53, 65
3, 261120, Note_on_c, 1, 63, 108
3, 261248, Note_on_c, 1, 60, 108
3, 261252, Note_off_c, 1, 63, 65
3, 261380, Note_off_c, 1, 60, 65
3, 261380, Note_on_c, 1, 57, 108
3, 261504, Note_off_c, 1, 57, 65
3, 261504, Note_on_c, 1, 60, 108
3, 261632, Note_on_c, 1, 57, 108
3, 261636, Note_off_c, 1, 60, 65
3, 261764, Note_off_c, 1, 57, 65
3, 261764, Note_on_c, 1, 53, 108
3, 261888, Note_off_c, 1, 53, 65
3, 261888, Note_on_c, 1, 57, 108
3, 262016, Note_on_c, 1, 53, 108
3, 262020, Note_off_c, 1, 57, 65
3, 262148, Note_off_c, 1, 53, 65
3, 262148, Note_on_c, 1, 51, 108
3, 262272, Note_off_c, 1, 51, 65
3, 264192, Note_on_c, 1, 77, 103
3, 264448, Note_off_c, 1, 77, 65
3, 264576, Note_on_c, 1, 89, 103
3, 264704, Note_on_c, 1, 86, 103
3, 264708, Note_off_c, 1, 89, 65
3, 264836, Note_off_c, 1, 86, 65
3, 264836, Note_on_c, 1, 83, 103
3, 264960, Note_off_c, 1, 83, 65
3, 264960, Note_on_c, 1, 86, 103
3, 265088, Note_on_c, 1, 83, 103
3, 265092, Note_off_c, 1, 86, 65
3, 265220, Note_off_c, 1, 83, 65
3, 265220, Note_on_c, 1, 79, 103
3, 265344, Note_off_c, 1, 79, 65
3, 265344, Note_on_c, 1, 83, 103
3, 265472, Note_on_c, 1, 79, 103
3, 265476, Note_off_c, 1, 83, 65
3, 265604, Note_off_c, 1, 79, 65
3, 265604, Note_on_c, 1, 77, 103
3, 265728, Note_off_c, 1, 77, 65
3, 265728, Note_on_c, 1, 84, 103
3, 265856, Note_on_c, 1, 79, 103
3, 265860, Note_off_c, 1, 84, 65
3, 265988, Note_off_c, 1, 79, 65
3, 265988, Note_on_c, 1, 75, 103
3, 266112, Note_off_c, 1, 75, 65
3, 266112, Note_on_c, 1, 79, 103
3, 266240, Note_on_c, 1, 75, 103
3, 266244, Note_off_c, 1, 79, 65
3, 266372, Note_off_c, 1, 75, 65
3, 266372, Note_on_c, 1, 72, 103
3, 266496, Note_off_c, 1, 72, 65
3, 266496, Note_on_c, 1, 75, 103
3, 266624, Note_on_c, 1, 72, 103
3, 266628, Note_off_c, 1, 75, 65
3, 266756, Note_off_c, 1, 72, 65
3, 266756, Note_on_c, 1, 67, 103
3, 266880, Note_off_c, 1, 67, 65
3, 266880, Note_on_c, 1, 77, 103
3, 267008, Note_on_c, 1, 74, 103
3, 267012, Note_off_c, 1, 77, 65
3, 267140, Note_off_c, 1, 74, 65
3, 267140, Note_on_c, 1, 71, 103
3, 267264, Note_off_c, 1, 71, 65
3, 267264, Note_on_c, 1, 74, 103
3, 267392, Note_on_c, 1, 71, 103
3, 267396, Note_off_c, 1, 74, 65
3, 267524, Note_off_c, 1, 71, 65
3, 267524, Note_on_c, 1, 67, 103
3, 267648, Note_off_c, 1, 67, 65
3, 267648, Note_on_c, 1, 71, 103
3, 267776, Note_on_c, 1, 67, 103
3, 267780, Note_off_c, 1, 71, 65
3, 267908, Note_off_c, 1, 67, 65
3, 267908, Note_on_c, 1, 65, 103
3, 268032, Note_off_c, 1, 65, 65
3, 268032, Note_on_c, 1, 72, 103
3, 268160, Note_on_c, 1, 67, 103
3, 268164, Note_off_c, 1, 72, 65
3, 268292, Note_off_c, 1, 67, 65
3, 268292, Note_on_c, 1, 63, 103
3, 268416, Note_off_c, 1, 63, 65
3, 268416, Note_on_c, 1, 67, 103
3, 268544, Note_on_c, 1, 63, 103
3, 268548, Note_off_c, 1, 67, 65
3, 268676, Note_off_c, 1, 63, 65
3, 268676, Note_on_c, 1, 60, 103
3, 268800, Note_off_c, 1, 60, 65
3, 268800, Note_on_c, 1, 63, 103
3, 268928, Note_on_c, 1, 60, 103
3, 268932, Note_off_c, 1, 63, 65
3, 269060, Note_off_c, 1, 60, 65
3, 269060, Note_on_c, 1, 55, 103
3, 269184, Note_off_c, 1, 55, 65
3, 269184, Note_on_c, 1, 65, 103
3, 269312, Note_on_c, 1, 62, 103
3, 269316, Note_off_c, 1, 65, 65
3, 269444, Note_off_c, 1, 62, 65
3, 269444, Note_on_c, 1, 59, 103
3, 269568, Note_off_c, 1, 59, 65
3, 269568, Note_on_c, 1, 62, 103
3, 269696, Note_on_c, 1, 59, 103
3, 269700, Note_off_c, 1, 62, 65
3, 269828, Note_off_c, 1, 59, 65
3, 269828, Note_on_c, 1, 55, 103
3, 269952, Note_off_c, 1, 55, 65
3, 269952, Note_on_c, 1, 59, 103
3, 270080, Note_on_c, 1, 55, 103
3, 270084, Note_off_c, 1, 59, 65
3, 270212, Note_off_c, 1, 55, 65
3, 270212, Note_on_c, 1, 53, 103
3, 270336, Note_off_c, 1, 53, 65
3, 270336, Note_on_c, 1, 55, 103
3, 270464, Note_on_c, 1, 53, 103
3, 270468, Note_off_c, 1, 55, 65
3, 270596, Note_off_c, 1, 53, 65
3, 270596, Note_on_c, 1, 50, 103
3, 270720, Note_off_c, 1, 50, 65
3, 270720, Note_on_c, 1, 55, 103
3, 270848, Note_on_c, 1, 53, 103
3, 270852, Note_off_c, 1, 55, 65
3, 270980, Note_off_c, 1, 53, 65
3, 270980, Note_on_c, 1, 50, 103
3, 271104, Note_off_c, 1, 50, 65
3, 271104, Note_on_c, 1, 55, 103
3, 271232, Note_on_c, 1, 53, 103
3, 271236, Note_off_c, 1, 55, 65
3, 271364, Note_off_c, 1, 53, 65
3, 271364, Note_on_c, 1, 50, 103
3, 271488, Note_off_c, 1, 50, 65
3, 271488, Note_on_c, 1, 48, 103
3, 271616, Note_on_c, 1, 51, 103
3, 271620, Note_off_c, 1, 48, 65
3, 271748, Note_off_c, 1, 51, 65
3, 271748, Note_on_c, 1, 55, 103
3, 271872, Note_off_c, 1, 55, 65
3, 271872, Note_on_c, 1, 60, 103
3, 272000, Note_on_c, 1, 55, 103
3, 272004, Note_off_c, 1, 60, 65
3, 272132, Note_off_c, 1, 55, 65
3, 272132, Note_on_c, 1, 51, 103
3, 272256, Note_off_c, 1, 51, 65
3, 272256, Note_on_c, 1, 60, 103
3, 272384, Note_on_c, 1, 55, 103
3, 272388, Note_off_c, 1, 60, 65
3, 272516, Note_off_c, 1, 55, 65
3, 272516, Note_on_c, 1, 51, 103
3, 272640, Note_off_c, 1, 51, 65
3, 272640, Note_on_c, 1, 60, 103
3, 272768, Note_on_c, 1, 55, 103
3, 272772, Note_off_c, 1, 60, 65
3, 272900, Note_off_c, 1, 55, 65
3, 272900, Note_on_c, 1, 51, 103
3, 273024, Note_off_c, 1, 51, 65
3, 273024, Note_on_c, 1, 60, 103
3, 273152, Note_on_c, 1, 55, 103
3, 273156, Note_off_c, 1, 60, 65
3, 273284, Note_off_c, 1, 55, 65
3, 273284, Note_on_c, 1, 51, 103
3, 273408, Note_off_c, 1, 51, 65
3, 273408, Note_on_c, 1, 60, 103
3, 273536, Note_on_c, 1, 55, 103
3, 273540, Note_off_c, 1, 60, 65
3, 273668, Note_off_c, 1, 55, 65
3, 273668, Note_on_c, 1, 51, 103
3, 273792, Note_off_c, 1, 51, 65
3, 273792, Note_on_c, 1, 60, 103
3, 273920, Note_on_c, 1, 55, 103
3, 273924, Note_off_c, 1, 60, 65
3, 274052, Note_off_c, 1, 55, 65
3, 274052, Note_on_c, 1, 53, 103
3, 274176, Note_off_c, 1, 53, 65
3, 274176, Note_on_c, 1, 59, 103
3, 274304, Note_on_c, 1, 55, 103
3, 274308, Note_off_c, 1, 59, 65
3, 274436, Note_off_c, 1, 55, 65
3, 274436, Note_on_c, 1, 53, 103
3, 274560, Note_off_c, 1, 53, 65
3, 274560, Note_on_c, 1, 59, 103
3, 274688, Note_on_c, 1, 55, 103
3, 274692, Note_off_c, 1, 59, 65
3, 274820, Note_off_c, 1, 55, 65
3, 274820, Note_on_c, 1, 53, 103
3, 274944, Note_off_c, 1, 53, 65
3, 274944, Note_on_c, 1, 59, 103
3, 275072, Note_on_c, 1, 55, 103
3, 275076, Note_off_c, 1, 59, 65
3, 275204, Note_off_c, 1, 55, 65
3, 275204, Note_on_c, 1, 53, 103
3, 275328, Note_off_c, 1, 53, 65
3, 275328, Note_on_c, 1, 59, 103
3, 275456, Note_on_c, 1, 55, 103
3, 275460, Note_off_c, 1, 59, 65
3, 275588, Note_off_c, 1, 55, 65
3, 275588, Note_on_c, 1, 53, 103
3, 275712, Note_off_c, 1, 53, 65
3, 275712, Note_on_c, 1, 59, 103
3, 275840, Note_on_c, 1, 55, 103
3, 275844, Note_off_c, 1, 59, 65
3, 275972, Note_off_c, 1, 55, 65
3, 275972, Note_on_c, 1, 53, 103
3, 276096, Note_off_c, 1, 53, 65
3, 276480, Note_on_c, 1, 67, 123
3, 276668, Note_off_c, 1, 67, 65
3, 276864, Note_on_c, 1, 75, 123
3, 277052, Note_off_c, 1, 75, 65
3, 277248, Note_on_c, 1, 75, 123
3, 278012, Note_off_c, 1, 75, 65
3, 278016, Note_on_c, 1, 74, 123
3, 278204, Note_off_c, 1, 74, 65
3, 278208, Note_on_c, 1, 72, 123
3, 278396, Note_off_c, 1, 72, 65
3, 278400, Note_on_c, 1, 72, 123
3, 278492, Note_off_c, 1, 72, 65
3, 278496, Note_on_c, 1, 74, 123
3, 278588, Note_off_c, 1, 74, 65
3, 278592, Note_on_c, 1, 72, 123
3, 278684, Note_off_c, 1, 72, 65
3, 278688, Note_on_c, 1, 74, 123
3, 278780, Note_off_c, 1, 74, 65
3, 278784, Note_on_c, 1, 71, 123
3, 279164, Note_off_c, 1, 71, 65
3, 279168, Note_on_c, 1, 77, 123
3, 279356, Note_off_c, 1, 77, 65
3, 279552, Note_on_c, 1, 77, 123
3, 280316, Note_off_c, 1, 77, 65
3, 280320, Note_on_c, 1, 75, 123
3, 280508, Note_off_c, 1, 75, 65
3, 280512, Note_on_c, 1, 74, 123
3, 280700, Note_off_c, 1, 74, 65
3, 280704, Note_on_c, 1, 75, 123
3, 281084, Note_off_c, 1, 75, 65
3, 281088, Note_on_c, 1, 87, 123
3, 281216, Note_on_c, 1, 84, 123
3, 281220, Note_off_c, 1, 87, 65
3, 281348, Note_off_c, 1, 84, 65
3, 281348, Note_on_c, 1, 79, 123
3, 281472, Note_off_c, 1, 79, 65
3, 281472, Note_on_c, 1, 84, 123
3, 281600, Note_on_c, 1, 79, 123
3, 281604, Note_off_c, 1, 84, 65
3, 281732, Note_off_c, 1, 79, 65
3, 281732, Note_on_c, 1, 75, 123
3, 281856, Note_off_c, 1, 75, 65
3, 281856, Note_on_c, 1, 85, 123
3, 281984, Note_on_c, 1, 82, 123
3, 281988, Note_off_c, 1, 85, 65
3, 282116, Note_off_c, 1, 82, 65
3, 282116, Note_on_c, 1, 79, 123
3, 282240, Note_off_c, 1, 79, 65
3, 282240, Note_on_c, 1, 82, 123
3, 282368, Note_on_c, 1, 79, 123
3, 282372, Note_off_c, 1, 82, 65
3, 282500, Note_off_c, 1, 79, 65
3, 282500, Note_on_c, 1, 75, 123
3, 282624, Note_off_c, 1, 75, 65
3, 282624, Note_on_c, 1, 79, 123
3, 282752, Note_on_c, 1, 75, 123
3, 282756, Note_off_c, 1, 79, 65
3, 282884, Note_off_c, 1, 75, 65
3, 282884, Note_on_c, 1, 73, 123
3, 283008, Note_off_c, 1, 73, 65
3, 283008, Note_on_c, 1, 80, 123
3, 283136, Note_on_c, 1, 75, 123
3, 283140, Note_off_c, 1, 80, 65
3, 283268, Note_off_c, 1, 75, 65
3, 283268, Note_on_c, 1, 72, 123
3, 283392, Note_off_c, 1, 72, 65
3, 283392, Note_on_c, 1, 75, 123
3, 283520, Note_on_c, 1, 72, 123
3, 283524, Note_off_c, 1, 75, 65
3, 283652, Note_off_c, 1, 72, 65
3, 283652, Note_on_c, 1, 68, 123
3, 283776, Note_off_c, 1, 68, 65
3, 283776, Note_on_c, 1, 72, 123
3, 283904, Note_on_c, 1, 68, 123
3, 283908, Note_off_c, 1, 72, 65
3, 284036, Note_off_c, 1, 68, 65
3, 284036, Note_on_c, 1, 63, 123
3, 284160, Note_off_c, 1, 63, 65
3, 284160, Note_on_c, 1, 73, 123
3, 284288, Note_on_c, 1, 70, 123
3, 284292, Note_off_c, 1, 73, 65
3, 284420, Note_off_c, 1, 70, 65
3, 284420, Note_on_c, 1, 67, 123
3, 284544, Note_off_c, 1, 67, 65
3, 284544, Note_on_c, 1, 70, 123
3, 284672, Note_on_c, 1, 67, 123
3, 284676, Note_off_c, 1, 70, 65
3, 284804, Note_off_c, 1, 67, 65
3, 284804, Note_on_c, 1, 63, 123
3, 284928, Note_off_c, 1, 63, 65
3, 284928, Note_on_c, 1, 67, 123
3, 285056, Note_on_c, 1, 63, 123
3, 285060, Note_off_c, 1, 67, 65
3, 285188, Note_off_c, 1, 63, 65
3, 285188, Note_on_c, 1, 61, 123
3, 285312, Note_off_c, 1, 61, 65
3, 285312, Note_on_c, 1, 68, 123
3, 285440, Note_on_c, 1, 63, 123
3, 285444, Note_off_c, 1, 68, 65
3, 285572, Note_off_c, 1, 63, 65
3, 285572, Note_on_c, 1, 60, 123
3, 285696, Note_off_c, 1, 60, 65
3, 285696, Note_on_c, 1, 68, 123
3, 285824, Note_on_c, 1, 63, 123
3, 285828, Note_off_c, 1, 68, 65
3, 285956, Note_off_c, 1, 63, 65
3, 285956, Note_on_c, 1, 60, 123
3, 286080, Note_off_c, 1, 60, 65
3, 286080, Note_on_c, 1, 68, 123
3, 286208, Note_on_c, 1, 63, 123
3, 286212, Note_off_c, 1, 68, 65
3, 286340, Note_off_c, 1, 63, 65
3, 286340, Note_on_c, 1, 60, 123
3, 286464, Note_off_c, 1, 60, 65
3, 286464, Note_on_c, 1, 68, 123
3, 286592, Note_on_c, 1, 63, 123
3, 286596, Note_off_c, 1, 68, 65
3, 286724, Note_off_c, 1, 63, 65
3, 286724, Note_on_c, 1, 60, 123
3, 286848, Note_off_c, 1, 60, 65
3, 286848, Note_on_c, 1, 68, 123
3, 286976, Note_on_c, 1, 63, 123
3, 286980, Note_off_c, 1, 68, 65
3, 287108, Note_off_c, 1, 63, 65
3, 287108, Note_on_c, 1, 60, 123
3, 287232, Note_off_c, 1, 60, 65
3, 287232, Note_on_c, 1, 68, 123
3, 287360, Note_on_c, 1, 63, 123
3, 287364, Note_off_c, 1, 68, 65
3, 287492, Note_off_c, 1, 63, 65
3, 287492, Note_on_c, 1, 60, 123
3, 287616, Note_off_c, 1, 60, 65
3, 287616, Note_on_c, 1, 68, 123
3, 287744, Note_on_c, 1, 63, 123
3, 287748, Note_off_c, 1, 68, 65
3, 287876, Note_off_c, 1, 63, 65
3, 287876, Note_on_c, 1, 61, 123
3, 288000, Note_off_c, 1, 61, 65
3, 288000, Note_on_c, 1, 67, 123
3, 288128, Note_on_c, 1, 63, 123
3, 288132, Note_off_c, 1, 67, 65
3, 288260, Note_off_c, 1, 63, 65
3, 288260, Note_on_c, 1, 61, 123
3, 288384, Note_off_c, 1, 61, 65
3, 288384, Note_on_c, 1, 67, 123
3, 288512, Note_on_c, 1, 63, 123
3, 288516, Note_off_c, 1, 67, 65
3, 288644, Note_off_c, 1, 63, 65
3, 288644, Note_on_c, 1, 61, 123
3, 288768, Note_off_c, 1, 61, 65
3, 288768, Note_on_c, 1, 67, 123
3, 288896, Note_on_c, 1, 63, 123
3, 288900, Note_off_c, 1, 67, 65
3, 289028, Note_off_c, 1, 63, 65
3, 289028, Note_on_c, 1, 61, 123
3, 289152, Note_off_c, 1, 61, 65
3, 289152, Note_on_c, 1, 67, 123
3, 289280, Note_on_c, 1, 63, 123
3, 289284, Note_off_c, 1, 67, 65
3, 289412, Note_off_c, 1, 63, 65
3, 289412, Note_on_c, 1, 61, 123
3, 289536, Note_off_c, 1, 61, 65
3, 289536, Note_on_c, 1, 67, 123
3, 289664, Note_on_c, 1, 63, 123
3, 289668, Note_off_c, 1, 67, 65
3, 289796, Note_off_c, 1, 63, 65
3, 289796, Note_on_c, 1, 61, 123
3, 289920, Note_off_c, 1, 61, 65
3, 289920, Note_on_c, 1, 68, 123
3, 289920, Note_on_c, 1, 63, 123
3, 289920, Note_on_c, 1, 60, 123
3, 290300, Note_off_c, 1, 68, 65
3, 290300, Note_off_c, 1, 63, 65
3, 290300, Note_off_c, 1, 60, 65
3, 290304, Note_on_c, 1, 75, 123
3, 290492, Note_off_c, 1, 75, 65
3, 290688, Note_on_c, 1, 84, 123
3, 290876, Note_off_c, 1, 84, 65
3, 291072, Note_on_c, 1, 84, 123
3, 291836, Note_off_c, 1, 84, 65
3, 291840, Note_on_c, 1, 82, 123
3, 292028, Note_off_c, 1, 82, 65
3, 292032, Note_on_c, 1, 80, 123
3, 292220, Note_off_c, 1, 80, 65
3, 292224, Note_on_c, 1, 80, 123
3, 292316, Note_off_c, 1, 80, 65
3, 292320, Note_on_c, 1, 82, 123
3, 292412, Note_off_c, 1, 82, 65
3, 292416, Note_on_c, 1, 80, 123
3, 292508, Note_off_c, 1, 80, 65
3, 292512, Note_on_c, 1, 82, 123
3, 292604, Note_off_c, 1, 82, 65
3, 292608, Note_on_c, 1, 79, 123
3, 292988, Note_off_c, 1, 79, 65
3, 292992, Note_on_c, 1, 85, 123
3, 293180, Note_off_c, 1, 85, 65
3, 293376, Note_on_c, 1, 85, 123
3, 294140, Note_off_c, 1, 85, 65
3, 294144, Note_on_c, 1, 84, 123
3, 294332, Note_off_c, 1, 84, 65
3, 294336, Note_on_c, 1, 82, 123
3, 294524, Note_off_c, 1, 82, 65
3, 294912, Note_on_c, 1, 84, 123
3, 295040, Note_on_c, 1, 80, 123
3, 295044, Note_off_c, 1, 84, 65
3, 295172, Note_off_c, 1, 80, 65
3, 295172, Note_on_c, 1, 75, 123
3, 295296, Note_off_c, 1, 75, 65
3, 295296, Note_on_c, 1, 72, 123
3, 295424, Note_on_c, 1, 68, 123
3, 295428, Note_off_c, 1, 72, 65
3, 295556, Note_off_c, 1, 68, 69
3, 295556, Note_on_c, 1, 63, 123
3, 295680, Note_off_c, 1, 63, 65
3, 295680, Note_on_c, 1, 60, 123
3, 295808, Note_on_c, 1, 63, 123
3, 295812, Note_off_c, 1, 60, 65
3, 295940, Note_off_c, 1, 63, 65
3, 295940, Note_on_c, 1, 65, 123
3, 296064, Note_off_c, 1, 65, 65
3, 296064, Note_on_c, 1, 66, 123
3, 296192, Note_on_c, 1, 63, 123
3, 296196, Note_off_c, 1, 66, 65
3, 296324, Note_off_c, 1, 63, 65
3, 296324, Note_on_c, 1, 60, 123
3, 296448, Note_off_c, 1, 60, 65
3, 296448, Note_on_c, 1, 66, 123
3, 296576, Note_on_c, 1, 63, 123
3, 296580, Note_off_c, 1, 66, 65
3, 296708, Note_off_c, 1, 63, 65
3, 296708, Note_on_c, 1, 60, 123
3, 296832, Note_off_c, 1, 60, 65
3, 296832, Note_on_c, 1, 66, 123
3, 296960, Note_on_c, 1, 63, 123
3, 296964, Note_off_c, 1, 66, 65
3, 297092, Note_off_c, 1, 63, 65
3, 297092, Note_on_c, 1, 60, 123
3, 297216, Note_off_c, 1, 60, 65
3, 297216, Note_on_c, 1, 66, 123
3, 297344, Note_on_c, 1, 63, 123
3, 297348, Note_off_c, 1, 66, 65
3, 297476, Note_off_c, 1, 63, 65
3, 297476, Note_on_c, 1, 60, 123
3, 297600, Note_off_c, 1, 60, 65
3, 297600, Note_on_c, 1, 66, 123
3, 297728, Note_on_c, 1, 63, 123
3, 297732, Note_off_c, 1, 66, 65
3, 297860, Note_off_c, 1, 63, 65
3, 297860, Note_on_c, 1, 60, 123
3, 297984, Note_off_c, 1, 60, 65
3, 297984, Note_on_c, 1, 65, 123
3, 298112, Note_on_c, 1, 63, 123
3, 298116, Note_off_c, 1, 65, 65
3, 298244, Note_off_c, 1, 63, 65
3, 298244, Note_on_c, 1, 60, 123
3, 298368, Note_off_c, 1, 60, 65
3, 298368, Note_on_c, 1, 68, 123
3, 298496, Note_on_c, 1, 63, 123
3, 298500, Note_off_c, 1, 68, 65
3, 298628, Note_off_c, 1, 63, 65
3, 298628, Note_on_c, 1, 60, 123
3, 298752, Note_off_c, 1, 60, 65
3, 298752, Note_on_c, 1, 69, 123
3, 298880, Note_on_c, 1, 63, 123
3, 298884, Note_off_c, 1, 69, 65
3, 299012, Note_off_c, 1, 63, 65
3, 299012, Note_on_c, 1, 60, 123
3, 299136, Note_off_c, 1, 60, 65
3, 299520, Note_on_c, 1, 85, 123
3, 299648, Note_on_c, 1, 82, 123
3, 299652, Note_off_c, 1, 85, 65
3, 299780, Note_off_c, 1, 82, 65
3, 299780, Note_on_c, 1, 77, 123
3, 299904, Note_off_c, 1, 77, 65
3, 299904, Note_on_c, 1, 73, 123
3, 300032, Note_on_c, 1, 70, 123
3, 300036, Note_off_c, 1, 73, 65
3, 300164, Note_off_c, 1, 70, 65
3, 300164, Note_on_c, 1, 65, 123
3, 300288, Note_off_c, 1, 65, 65
3, 300288, Note_on_c, 1, 70, 123
3, 300416, Note_on_c, 1, 65, 123
3, 300420, Note_off_c, 1, 70, 65
3, 300548, Note_off_c, 1, 65, 65
3, 300548, Note_on_c, 1, 67, 123
3, 300672, Note_off_c, 1, 67, 65
3, 300672, Note_on_c, 1, 68, 123
3, 300800, Note_on_c, 1, 65, 123
3, 300804, Note_off_c, 1, 68, 65
3, 300932, Note_off_c, 1, 65, 65
3, 300932, Note_on_c, 1, 62, 123
3, 301056, Note_off_c, 1, 62, 65
3, 301056, Note_on_c, 1, 68, 123
3, 301184, Note_on_c, 1, 65, 123
3, 301188, Note_off_c, 1, 68, 65
3, 301316, Note_off_c, 1, 65, 65
3, 301316, Note_on_c, 1, 62, 123
3, 301440, Note_off_c, 1, 62, 65
3, 301440, Note_on_c, 1, 68, 123
3, 301568, Note_on_c, 1, 65, 123
3, 301572, Note_off_c, 1, 68, 65
3, 301700, Note_off_c, 1, 65, 65
3, 301700, Note_on_c, 1, 62, 123
3, 301824, Note_off_c, 1, 62, 65
3, 301824, Note_on_c, 1, 67, 123
3, 301952, Note_on_c, 1, 65, 123
3, 301956, Note_off_c, 1, 67, 65
3, 302084, Note_off_c, 1, 65, 65
3, 302084, Note_on_c, 1, 62, 123
3, 302208, Note_off_c, 1, 62, 65
3, 302208, Note_on_c, 1, 67, 123
3, 302336, Note_on_c, 1, 65, 123
3, 302340, Note_off_c, 1, 67, 65
3, 302468, Note_off_c, 1, 65, 65
3, 302468, Note_on_c, 1, 62, 123
3, 302592, Note_off_c, 1, 62, 65
3, 302592, Note_on_c, 1, 67, 123
3, 302720, Note_on_c, 1, 65, 123
3, 302724, Note_off_c, 1, 67, 65
3, 302852, Note_off_c, 1, 65, 65
3, 302852, Note_on_c, 1, 62, 123
3, 302976, Note_off_c, 1, 62, 65
3, 302976, Note_on_c, 1, 69, 123
3, 303104, Note_on_c, 1, 65, 123
3, 303108, Note_off_c, 1, 69, 65
3, 303236, Note_off_c, 1, 65, 65
3, 303236, Note_on_c, 1, 62, 123
3, 303360, Note_off_c, 1, 62, 65
3, 303360, Note_on_c, 1, 71, 123
3, 303488, Note_on_c, 1, 65, 123
3, 303492, Note_off_c, 1, 71, 65
3, 303620, Note_off_c, 1, 65, 65
3, 303620, Note_on_c, 1, 62, 123
3, 303744, Note_off_c, 1, 62, 65
3, 304128, Note_on_c, 1, 86, 123
3, 304252, Note_on_c, 1, 84, 123
3, 304260, Note_off_c, 1, 86, 65
3, 304320, Note_on_c, 1, 79, 123
3, 304384, Note_off_c, 1, 84, 65
3, 304444, Note_off_c, 1, 79, 65
3, 304512, Note_on_c, 1, 75, 123
3, 304604, Note_off_c, 1, 75, 65
3, 304608, Note_on_c, 1, 72, 123
3, 304700, Note_off_c, 1, 72, 65
3, 304704, Note_on_c, 1, 67, 123
3, 304796, Note_off_c, 1, 67, 65
3, 304896, Note_on_c, 1, 72, 123
3, 305024, Note_on_c, 1, 67, 123
3, 305028, Note_off_c, 1, 72, 65
3, 305156, Note_off_c, 1, 67, 65
3, 305156, Note_on_c, 1, 69, 123
3, 305280, Note_off_c, 1, 69, 65
3, 305280, Note_on_c, 1, 70, 123
3, 305408, Note_on_c, 1, 67, 123
3, 305412, Note_off_c, 1, 70, 65
3, 305540, Note_off_c, 1, 67, 65
3, 305540, Note_on_c, 1, 64, 123
3, 305664, Note_off_c, 1, 64, 65
3, 305664, Note_on_c, 1, 70, 123
3, 305792, Note_on_c, 1, 67, 123
3, 305796, Note_off_c, 1, 70, 65
3, 305924, Note_off_c, 1, 67, 65
3, 305924, Note_on_c, 1, 64, 123
3, 306048, Note_off_c, 1, 64, 65
3, 306048, Note_on_c, 1, 70, 123
3, 306176, Note_on_c, 1, 67, 123
3, 306180, Note_off_c, 1, 70, 65
3, 306308, Note_off_c, 1, 67, 65
3, 306308, Note_on_c, 1, 64, 123
3, 306432, Note_off_c, 1, 64, 65
3, 306432, Note_on_c, 1, 69, 123
3, 306560, Note_on_c, 1, 67, 123
3, 306564, Note_off_c, 1, 69, 65
3, 306692, Note_off_c, 1, 67, 65
3, 306692, Note_on_c, 1, 64, 123
3, 306816, Note_off_c, 1, 64, 65
3, 306816, Note_on_c, 1, 69, 123
3, 306944, Note_on_c, 1, 67, 123
3, 306948, Note_off_c, 1, 69, 65
3, 307076, Note_off_c, 1, 67, 65
3, 307076, Note_on_c, 1, 64, 123
3, 307200, Note_off_c, 1, 64, 65
3, 307200, Note_on_c, 1, 69, 123
3, 307328, Note_on_c, 1, 67, 123
3, 307332, Note_off_c, 1, 69, 65
3, 307460, Note_off_c, 1, 67, 65
3, 307460, Note_on_c, 1, 64, 123
3, 307584, Note_off_c, 1, 64, 65
3, 307584, Note_on_c, 1, 70, 123
3, 307712, Note_on_c, 1, 67, 123
3, 307716, Note_off_c, 1, 70, 65
3, 307844, Note_off_c, 1, 67, 65
3, 307844, Note_on_c, 1, 64, 123
3, 307968, Note_off_c, 1, 64, 65
3, 307968, Note_on_c, 1, 69, 123
3, 308096, Note_on_c, 1, 67, 123
3, 308100, Note_off_c, 1, 69, 65
3, 308228, Note_off_c, 1, 67, 65
3, 308228, Note_on_c, 1, 64, 123
3, 308352, Note_off_c, 1, 64, 65
3, 308352, Note_on_c, 1, 70, 123
3, 308480, Note_on_c, 1, 65, 123
3, 308484, Note_off_c, 1, 70, 65
3, 308612, Note_off_c, 1, 65, 65
3, 308612, Note_on_c, 1, 62, 123
3, 308736, Note_off_c, 1, 62, 65
3, 308736, Note_on_c, 1, 69, 123
3, 308864, Note_on_c, 1, 65, 123
3, 308868, Note_off_c, 1, 69, 65
3, 308996, Note_off_c, 1, 65, 65
3, 308996, Note_on_c, 1, 62, 123
3, 309120, Note_off_c, 1, 62, 65
3, 309120, Note_on_c, 1, 69, 123
3, 309248, Note_on_c, 1, 65, 123
3, 309252, Note_off_c, 1, 69, 65
3, 309380, Note_off_c, 1, 65, 65
3, 309380, Note_on_c, 1, 62, 123
3, 309504, Note_off_c, 1, 62, 65
3, 309504, Note_on_c, 1, 69, 123
3, 309632, Note_on_c, 1, 65, 123
3, 309636, Note_off_c, 1, 69, 65
3, 309764, Note_off_c, 1, 65, 65
3, 309764, Note_on_c, 1, 62, 123
3, 309888, Note_off_c, 1, 62, 65
3, 309888, Note_on_c, 1, 70, 123
3, 310016, Note_on_c, 1, 65, 123
3, 310020, Note_off_c, 1, 70, 65
3, 310148, Note_off_c, 1, 65, 65
3, 310148, Note_on_c, 1, 62, 123
3, 310272, Note_off_c, 1, 62, 65
3, 310272, Note_on_c, 1, 69, 123
3, 310400, Note_on_c, 1, 65, 123
3, 310404, Note_off_c, 1, 69, 65
3, 310532, Note_off_c, 1, 65, 65
3, 310532, Note_on_c, 1, 62, 123
3, 310656, Note_off_c, 1, 62, 65
3, 310656, Note_on_c, 1, 70, 123
3, 310784, Note_on_c, 1, 67, 123
3, 310788, Note_off_c, 1, 70, 65
3, 310916, Note_off_c, 1, 67, 65
3, 310916, Note_on_c, 1, 61, 123
3, 311040, Note_off_c, 1, 61, 65
3, 311040, Note_on_c, 1, 69, 123
3, 311168, Note_on_c, 1, 67, 123
3, 311172, Note_off_c, 1, 69, 65
3, 311300, Note_off_c, 1, 67, 65
3, 311300, Note_on_c, 1, 61, 123
3, 311424, Note_off_c, 1, 61, 65
3, 311424, Note_on_c, 1, 69, 123
3, 311552, Note_on_c, 1, 67, 123
3, 311556, Note_off_c, 1, 69, 65
3, 311684, Note_off_c, 1, 67, 65
3, 311684, Note_on_c, 1, 61, 123
3, 311808, Note_off_c, 1, 61, 65
3, 311808, Note_on_c, 1, 69, 123
3, 311936, Note_on_c, 1, 67, 123
3, 311940, Note_off_c, 1, 69, 65
3, 312068, Note_off_c, 1, 67, 65
3, 312068, Note_on_c, 1, 61, 123
3, 312192, Note_off_c, 1, 61, 65
3, 312192, Note_on_c, 1, 70, 123
3, 312320, Note_on_c, 1, 67, 123
3, 312324, Note_off_c, 1, 70, 65
3, 312452, Note_off_c, 1, 67, 65
3, 312452, Note_on_c, 1, 61, 123
3, 312576, Note_off_c, 1, 61, 65
3, 312576, Note_on_c, 1, 69, 123
3, 312704, Note_on_c, 1, 67, 123
3, 312708, Note_off_c, 1, 69, 65
3, 312836, Note_off_c, 1, 67, 65
3, 312836, Note_on_c, 1, 61, 123
3, 312960, Note_off_c, 1, 61, 65
3, 312960, Note_on_c, 1, 70, 123
3, 313088, Note_on_c, 1, 65, 123
3, 313092, Note_off_c, 1, 70, 65
3, 313220, Note_off_c, 1, 65, 65
3, 313220, Note_on_c, 1, 62, 123
3, 313344, Note_off_c, 1, 62, 65
3, 313344, Note_on_c, 1, 69, 123
3, 313472, Note_on_c, 1, 65, 123
3, 313476, Note_off_c, 1, 69, 65
3, 313604, Note_off_c, 1, 65, 65
3, 313604, Note_on_c, 1, 62, 123
3, 313728, Note_off_c, 1, 62, 65
3, 313728, Note_on_c, 1, 69, 123
3, 313856, Note_on_c, 1, 65, 123
3, 313860, Note_off_c, 1, 69, 65
3, 313988, Note_off_c, 1, 65, 65
3, 313988, Note_on_c, 1, 62, 123
3, 314112, Note_off_c, 1, 62, 65
3, 314112, Note_on_c, 1, 69, 123
3, 314240, Note_on_c, 1, 65, 123
3, 314244, Note_off_c, 1, 69, 65
3, 314372, Note_off_c, 1, 65, 65
3, 314372, Note_on_c, 1, 62, 123
3, 314496, Note_off_c, 1, 62, 65
3, 314496, Note_on_c, 1, 70, 123
3, 314624, Note_on_c, 1, 65, 123
3, 314628, Note_off_c, 1, 70, 65
3, 314756, Note_off_c, 1, 65, 65
3, 314756, Note_on_c, 1, 62, 123
3, 314880, Note_off_c, 1, 62, 65
3, 314880, Note_on_c, 1, 69, 123
3, 315008, Note_on_c, 1, 65, 123
3, 315012, Note_off_c, 1, 69, 65
3, 315140, Note_off_c, 1, 65, 65
3, 315140, Note_on_c, 1, 62, 123
3, 315264, Note_off_c, 1, 62, 65
3, 315264, Note_on_c, 1, 70, 72
3, 315392, Note_on_c, 1, 64, 72
3, 315396, Note_off_c, 1, 70, 65
3, 315524, Note_off_c, 1, 64, 65
3, 315524, Note_on_c, 1, 62, 72
3, 315648, Note_off_c, 1, 62, 65
3, 315648, Note_on_c, 1, 70, 72
3, 315776, Note_on_c, 1, 64, 72
3, 315780, Note_off_c, 1, 70, 65
3, 315908, Note_off_c, 1, 64, 65
3, 315908, Note_on_c, 1, 62, 72
3, 316032, Note_off_c, 1, 62, 65
3, 316032, Note_on_c, 1, 70, 72
3, 316160, Note_on_c, 1, 64, 72
3, 316164, Note_off_c, 1, 70, 65
3, 316292, Note_off_c, 1, 64, 65
3, 316292, Note_on_c, 1, 62, 72
3, 316416, Note_off_c, 1, 62, 65
3, 316416, Note_on_c, 1, 68, 72
3, 316544, Note_on_c, 1, 64, 72
3, 316548, Note_off_c, 1, 68, 65
3, 316676, Note_off_c, 1, 64, 65
3, 316676, Note_on_c, 1, 62, 72
3, 316800, Note_off_c, 1, 62, 65
3, 316800, Note_on_c, 1, 68, 72
3, 316928, Note_on_c, 1, 64, 72
3, 316932, Note_off_c, 1, 68, 65
3, 317060, Note_off_c, 1, 64, 65
3, 317060, Note_on_c, 1, 62, 72
3, 317184, Note_off_c, 1, 62, 65
3, 317184, Note_on_c, 1, 68, 72
3, 317312, Note_on_c, 1, 64, 72
3, 317316, Note_off_c, 1, 68, 65
3, 317444, Note_off_c, 1, 64, 65
3, 317444, Note_on_c, 1, 62, 72
3, 317568, Note_off_c, 1, 62, 65
3, 317568, Note_on_c, 1, 69, 56
3, 317696, Note_on_c, 1, 65, 56
3, 317700, Note_off_c, 1, 69, 65
3, 317828, Note_off_c, 1, 65, 65
3, 317828, Note_on_c, 1, 62, 56
3, 317952, Note_off_c, 1, 62, 65
3, 317952, Note_on_c, 1, 69, 56
3, 318080, Note_on_c, 1, 65, 56
3, 318084, Note_off_c, 1, 69, 65
3, 318212, Note_off_c, 1, 65, 65
3, 318212, Note_on_c, 1, 62, 56
3, 318336, Note_off_c, 1, 62, 65
3, 318336, Note_on_c, 1, 69, 56
3, 318464, Note_on_c, 1, 65, 56
3, 318468, Note_off_c, 1, 69, 65
3, 318596, Note_off_c, 1, 65, 65
3, 318596, Note_on_c, 1, 62, 56
3, 318720, Note_off_c, 1, 62, 65
3, 318720, Note_on_c, 1, 69, 56
3, 318848, Note_on_c, 1, 64, 56
3, 318852, Note_off_c, 1, 69, 65
3, 318980, Note_off_c, 1, 64, 65
3, 318980, Note_on_c, 1, 61, 56
3, 319104, Note_off_c, 1, 61, 65
3, 319104, Note_on_c, 1, 69, 56
3, 319232, Note_on_c, 1, 64, 56
3, 319236, Note_off_c, 1, 69, 65
3, 319364, Note_off_c, 1, 64, 65
3, 319364, Note_on_c, 1, 61, 56
3, 319488, Note_off_c, 1, 61, 65
3, 319488, Note_on_c, 1, 69, 56
3, 319616, Note_on_c, 1, 64, 56
3, 319620, Note_off_c, 1, 69, 65
3, 319748, Note_off_c, 1, 64, 65
3, 319748, Note_on_c, 1, 61, 56
3, 319872, Note_off_c, 1, 61, 65
3, 319872, Note_on_c, 1, 62, 61
3, 320252, Note_off_c, 1, 62, 65
3, 320640, Note_on_c, 1, 81, 61
3, 320640, Note_on_c, 1, 69, 61
3, 320828, Note_off_c, 1, 81, 65
3, 320828, Note_off_c, 1, 69, 65
3, 321024, Note_on_c, 1, 81, 61
3, 321024, Note_on_c, 1, 69, 61
3, 321212, Note_off_c, 1, 81, 65
3, 321212, Note_off_c, 1, 69, 65
3, 321792, Note_on_c, 1, 81, 61
3, 321792, Note_on_c, 1, 69, 61
3, 321980, Note_off_c, 1, 81, 65
3, 321980, Note_off_c, 1, 69, 65
3, 322176, Note_on_c, 1, 81, 61
3, 322176, Note_on_c, 1, 69, 61
3, 322364, Note_off_c, 1, 81, 65
3, 322364, Note_off_c, 1, 69, 65
3, 322944, Note_on_c, 1, 81, 61
3, 322944, Note_on_c, 1, 69, 61
3, 323132, Note_off_c, 1, 81, 65
3, 323132, Note_off_c, 1, 69, 65
3, 323328, Note_on_c, 1, 81, 61
3, 323328, Note_on_c, 1, 69, 61
3, 323516, Note_off_c, 1, 81, 65
3, 323516, Note_off_c, 1, 69, 65
3, 324096, Note_on_c, 1, 81, 61
3, 324096, Note_on_c, 1, 69, 61
3, 324284, Note_off_c, 1, 81, 65
3, 324284, Note_off_c, 1, 69, 65
3, 324864, Note_on_c, 1, 73, 61
3, 324864, Note_on_c, 1, 69, 61
3, 325052, Note_off_c, 1, 73, 65
3, 325052, Note_off_c, 1, 69, 65
3, 325248, Note_on_c, 1, 69, 61
3, 325248, Note_on_c, 1, 74, 61
3, 325436, Note_off_c, 1, 69, 65
3, 325436, Note_off_c, 1, 74, 65
3, 325632, Note_on_c, 1, 69, 61
3, 325632, Note_on_c, 1, 76, 61
3, 325820, Note_off_c, 1, 69, 65
3, 325820, Note_off_c, 1, 76, 65
3, 326016, Note_on_c, 1, 69, 61
3, 326016, Note_on_c, 1, 77, 61
3, 326204, Note_off_c, 1, 69, 65
3, 326204, Note_off_c, 1, 77, 65
3, 326400, Note_on_c, 1, 69, 61
3, 326400, Note_on_c, 1, 79, 61
3, 326588, Note_off_c, 1, 69, 65
3, 326588, Note_off_c, 1, 79, 65
3, 326784, Note_on_c, 1, 69, 61
3, 326784, Note_on_c, 1, 77, 61
3, 327164, Note_off_c, 1, 69, 65
3, 327164, Note_off_c, 1, 77, 65
3, 327936, Note_on_c, 1, 74, 115
3, 328508, Note_off_c, 1, 74, 65
3, 328512, Note_on_c, 1, 72, 106
3, 328704, Note_on_c, 1, 70, 108
3, 328796, Note_off_c, 1, 72, 65
3, 328896, Note_on_c, 1, 69, 108
3, 328988, Note_off_c, 1, 70, 65
3, 329084, Note_off_c, 1, 69, 65
3, 329088, Note_on_c, 1, 70, 108
3, 329276, Note_off_c, 1, 70, 65
3, 329856, Note_on_c, 1, 74, 108
3, 330044, Note_off_c, 1, 74, 65
3, 330240, Note_on_c, 1, 79, 108
3, 330428, Note_off_c, 1, 79, 65
3, 331008, Note_on_c, 1, 82, 108
3, 331196, Note_off_c, 1, 82, 65
3, 331392, Note_on_c, 1, 84, 108
3, 331964, Note_off_c, 1, 84, 65
3, 331968, Note_on_c, 1, 82, 108
3, 332156, Note_off_c, 1, 82, 65
3, 332160, Note_on_c, 1, 81, 108
3, 332348, Note_off_c, 1, 81, 65
3, 332352, Note_on_c, 1, 79, 108
3, 332540, Note_off_c, 1, 79, 65
3, 332544, Note_on_c, 1, 78, 108
3, 332924, Note_off_c, 1, 78, 65
3, 333312, Note_on_c, 1, 81, 108
3, 333692, Note_off_c, 1, 81, 65
3, 333696, Note_on_c, 1, 86, 108
3, 333696, Note_on_c, 1, 74, 108
3, 333884, Note_off_c, 1, 86, 65
3, 333884, Note_off_c, 1, 74, 65
3, 334080, Note_on_c, 1, 66, 103
3, 334080, Note_on_c, 1, 62, 72
3, 334208, Note_off_c, 1, 66, 65
3, 334268, Note_off_c, 1, 62, 65
3, 334464, Note_on_c, 1, 86, 108
3, 334464, Note_on_c, 1, 74, 108
3, 334464, Note_on_c, 1, 62, 108
3, 334464, Note_on_c, 1, 67, 108
3, 334652, Note_off_c, 1, 86, 65
3, 334652, Note_off_c, 1, 74, 65
3, 334652, Note_off_c, 1, 62, 65
3, 334652, Note_off_c, 1, 67, 65
3, 334848, Note_on_c, 1, 74, 108
3, 334848, Note_on_c, 1, 86, 108
3, 334848, Note_on_c, 1, 62, 108
3, 334848, Note_on_c, 1, 69, 108
3, 335036, Note_off_c, 1, 74, 65
3, 335036, Note_off_c, 1, 86, 65
3, 335036, Note_off_c, 1, 62, 65
3, 335036, Note_off_c, 1, 69, 65
3, 335232, Note_on_c, 1, 74, 108
3, 335232, Note_on_c, 1, 86, 108
3, 335232, Note_on_c, 1, 62, 108
3, 335232, Note_on_c, 1, 70, 108
3, 335420, Note_off_c, 1, 74, 65
3, 335420, Note_off_c, 1, 86, 65
3, 335420, Note_off_c, 1, 62, 65
3, 335420, Note_off_c, 1, 70, 65
3, 335616, Note_on_c, 1, 74, 108
3, 335616, Note_on_c, 1, 86, 108
3, 335616, Note_on_c, 1, 62, 108
3, 335616, Note_on_c, 1, 72, 108
3, 335804, Note_off_c, 1, 74, 65
3, 335804, Note_off_c, 1, 86, 65
3, 335804, Note_off_c, 1, 62, 65
3, 335804, Note_off_c, 1, 72, 65
3, 336000, Note_on_c, 1, 74, 108
3, 336000, Note_on_c, 1, 86, 108
3, 336000, Note_on_c, 1, 67, 108
3, 336000, Note_on_c, 1, 70, 108
3, 336380, Note_off_c, 1, 67, 65
3, 336380, Note_off_c, 1, 70, 65
3, 336572, Note_off_c, 1, 74, 65
3, 336572, Note_off_c, 1, 86, 65
3, 336576, Note_on_c, 1, 84, 108
3, 336764, Note_off_c, 1, 84, 65
3, 336768, Note_on_c, 1, 82, 108
3, 336956, Note_off_c, 1, 82, 65
3, 336960, Note_on_c, 1, 81, 108
3, 337148, Note_off_c, 1, 81, 65
3, 337152, Note_on_c, 1, 79, 103
3, 337280, Note_off_c, 1, 79, 65
3, 337344, Note_on_c, 1, 70, 103
3, 337532, Note_off_c, 1, 70, 65
3, 337536, Note_on_c, 1, 69, 103
3, 337724, Note_off_c, 1, 69, 65
3, 337728, Note_on_c, 1, 70, 103
3, 337916, Note_off_c, 1, 70, 65
3, 337920, Note_on_c, 1, 68, 103
3, 338108, Note_off_c, 1, 68, 65
3, 338112, Note_on_c, 1, 65, 103
3, 338300, Note_off_c, 1, 65, 65
3, 338304, Note_on_c, 1, 63, 72
3, 338492, Note_off_c, 1, 63, 65
3, 338496, Note_on_c, 1, 70, 72
3, 338684, Note_off_c, 1, 70, 65
3, 338688, Note_on_c, 1, 67, 72
3, 338876, Note_off_c, 1, 67, 65
3, 338880, Note_on_c, 1, 70, 72
3, 339068, Note_off_c, 1, 70, 65
3, 339072, Note_on_c, 1, 63, 72
3, 339260, Note_off_c, 1, 63, 65
3, 339264, Note_on_c, 1, 70, 72
3, 339452, Note_off_c, 1, 70, 65
3, 339456, Note_on_c, 1, 63, 72
3, 339644, Note_off_c, 1, 63, 65
3, 339648, Note_on_c, 1, 70, 72
3, 339836, Note_off_c, 1, 70, 65
3, 339840, Note_on_c, 1, 67, 72
3, 340028, Note_off_c, 1, 67, 65
3, 340032, Note_on_c, 1, 70, 72
3, 340220, Note_off_c, 1, 70, 65
3, 340224, Note_on_c, 1, 63, 72
3, 340412, Note_off_c, 1, 63, 65
3, 340416, Note_on_c, 1, 70, 72
3, 340604, Note_off_c, 1, 70, 65
3, 340608, Note_on_c, 1, 65, 72
3, 340796, Note_off_c, 1, 65, 65
3, 340800, Note_on_c, 1, 70, 72
3, 340988, Note_off_c, 1, 70, 65
3, 340992, Note_on_c, 1, 68, 72
3, 341180, Note_off_c, 1, 68, 65
3, 341184, Note_on_c, 1, 70, 72
3, 341372, Note_off_c, 1, 70, 65
3, 341376, Note_on_c, 1, 65, 72
3, 341564, Note_off_c, 1, 65, 65
3, 341568, Note_on_c, 1, 70, 72
3, 341756, Note_off_c, 1, 70, 65
3, 341760, Note_on_c, 1, 65, 72
3, 341948, Note_off_c, 1, 65, 65
3, 341952, Note_on_c, 1, 70, 72
3, 342140, Note_off_c, 1, 70, 65
3, 342144, Note_on_c, 1, 68, 72
3, 342332, Note_off_c, 1, 68, 65
3, 342336, Note_on_c, 1, 70, 72
3, 342524, Note_off_c, 1, 70, 65
3, 342528, Note_on_c, 1, 65, 72
3, 342716, Note_off_c, 1, 65, 65
3, 342720, Note_on_c, 1, 70, 72
3, 342908, Note_off_c, 1, 70, 65
3, 342912, Note_on_c, 1, 62, 72
3, 343100, Note_off_c, 1, 62, 65
3, 343104, Note_on_c, 1, 70, 72
3, 343292, Note_off_c, 1, 70, 65
3, 343296, Note_on_c, 1, 62, 72
3, 343484, Note_off_c, 1, 62, 65
3, 343488, Note_on_c, 1, 70, 72
3, 343676, Note_off_c, 1, 70, 65
3, 343680, Note_on_c, 1, 62, 72
3, 343868, Note_off_c, 1, 62, 65
3, 343872, Note_on_c, 1, 70, 72
3, 344060, Note_off_c, 1, 70, 65
3, 344064, Note_on_c, 1, 65, 72
3, 344252, Note_off_c, 1, 65, 65
3, 344256, Note_on_c, 1, 70, 72
3, 344444, Note_off_c, 1, 70, 65
3, 344448, Note_on_c, 1, 67, 72
3, 344636, Note_off_c, 1, 67, 65
3, 344640, Note_on_c, 1, 70, 72
3, 344828, Note_off_c, 1, 70, 65
3, 344832, Note_on_c, 1, 68, 72
3, 345020, Note_off_c, 1, 68, 65
3, 345024, Note_on_c, 1, 70, 72
3, 345212, Note_off_c, 1, 70, 65
3, 345216, Note_on_c, 1, 63, 72
3, 345404, Note_off_c, 1, 63, 65
3, 345408, Note_on_c, 1, 70, 72
3, 345596, Note_off_c, 1, 70, 65
3, 345600, Note_on_c, 1, 67, 72
3, 345788, Note_off_c, 1, 67, 65
3, 345792, Note_on_c, 1, 70, 72
3, 345980, Note_off_c, 1, 70, 65
3, 345984, Note_on_c, 1, 63, 72
3, 346172, Note_off_c, 1, 63, 65
3, 346176, Note_on_c, 1, 70, 72
3, 346364, Note_off_c, 1, 70, 65
3, 346368, Note_on_c, 1, 62, 72
3, 346556, Note_off_c, 1, 62, 65
3, 346560, Note_on_c, 1, 71, 72
3, 346748, Note_off_c, 1, 71, 65
3, 346752, Note_on_c, 1, 65, 72
3, 346940, Note_off_c, 1, 65, 65
3, 346944, Note_on_c, 1, 71, 72
3, 347132, Note_off_c, 1, 71, 65
3, 347136, Note_on_c, 1, 62, 72
3, 347324, Note_off_c, 1, 62, 65
3, 347328, Note_on_c, 1, 71, 72
3, 347516, Note_off_c, 1, 71, 65
3, 347520, Note_on_c, 1, 60, 72
3, 347708, Note_off_c, 1, 60, 65
3, 347712, Note_on_c, 1, 72, 72
3, 347900, Note_off_c, 1, 72, 65
3, 347904, Note_on_c, 1, 63, 72
3, 348092, Note_off_c, 1, 63, 65
3, 348096, Note_on_c, 1, 72, 72
3, 348284, Note_off_c, 1, 72, 65
3, 348288, Note_on_c, 1, 60, 72
3, 348476, Note_off_c, 1, 60, 65
3, 348480, Note_on_c, 1, 72, 72
3, 348668, Note_off_c, 1, 72, 65
3, 348672, Note_on_c, 1, 58, 72
3, 348860, Note_off_c, 1, 58, 65
3, 348864, Note_on_c, 1, 67, 72
3, 349052, Note_off_c, 1, 67, 65
3, 349056, Note_on_c, 1, 62, 72
3, 349244, Note_off_c, 1, 62, 65
3, 349248, Note_on_c, 1, 67, 72
3, 349436, Note_off_c, 1, 67, 65
3, 349440, Note_on_c, 1, 58, 72
3, 349628, Note_off_c, 1, 58, 65
3, 349632, Note_on_c, 1, 67, 72
3, 349820, Note_off_c, 1, 67, 65
3, 349824, Note_on_c, 1, 57, 72
3, 350012, Note_off_c, 1, 57, 65
3, 350016, Note_on_c, 1, 66, 72
3, 350204, Note_off_c, 1, 66, 65
3, 350208, Note_on_c, 1, 60, 72
3, 350396, Note_off_c, 1, 60, 65
3, 350400, Note_on_c, 1, 66, 72
3, 350588, Note_off_c, 1, 66, 65
3, 350592, Note_on_c, 1, 57, 72
3, 350780, Note_off_c, 1, 57, 65
3, 350784, Note_on_c, 1, 66, 72
3, 350972, Note_off_c, 1, 66, 65
3, 350976, Note_on_c, 1, 55, 72
3, 351164, Note_off_c, 1, 55, 65
3, 351168, Note_on_c, 1, 67, 72
3, 351356, Note_off_c, 1, 67, 65
3, 351360, Note_on_c, 1, 58, 72
3, 351548, Note_off_c, 1, 58, 65
3, 351552, Note_on_c, 1, 67, 72
3, 351740, Note_off_c, 1, 67, 65
3, 351744, Note_on_c, 1, 55, 72
3, 351932, Note_off_c, 1, 55, 65
3, 351936, Note_on_c, 1, 67, 72
3, 352124, Note_off_c, 1, 67, 65
3, 352128, Note_on_c, 1, 54, 72
3, 352316, Note_off_c, 1, 54, 65
3, 352320, Note_on_c, 1, 62, 72
3, 352508, Note_off_c, 1, 62, 65
3, 352512, Note_on_c, 1, 57, 72
3, 352700, Note_off_c, 1, 57, 65
3, 352704, Note_on_c, 1, 62, 72
3, 352892, Note_off_c, 1, 62, 65
3, 352896, Note_on_c, 1, 54, 72
3, 353084, Note_off_c, 1, 54, 65
3, 353088, Note_on_c, 1, 62, 72
3, 353276, Note_off_c, 1, 62, 65
3, 353280, Note_on_c, 1, 55, 72
3, 353468, Note_off_c, 1, 55, 65
3, 353472, Note_on_c, 1, 62, 72
3, 353660, Note_off_c, 1, 62, 65
3, 353664, Note_on_c, 1, 55, 72
3, 353852, Note_off_c, 1, 55, 65
3, 353856, Note_on_c, 1, 62, 72
3, 354044, Note_off_c, 1, 62, 65
3, 354048, Note_on_c, 1, 51, 72
3, 354236, Note_off_c, 1, 51, 65
3, 354240, Note_on_c, 1, 61, 72
3, 354428, Note_off_c, 1, 61, 65
3, 354432, Note_on_c, 1, 50, 72
3, 354620, Note_off_c, 1, 50, 65
3, 355200, Note_on_c, 1, 75, 72
3, 355200, Note_on_c, 1, 72, 72
3, 355388, Note_off_c, 1, 75, 65
3, 355388, Note_off_c, 1, 72, 65
3, 355584, Note_on_c, 1, 75, 113
3, 355584, Note_on_c, 1, 72, 113
3, 355964, Note_off_c, 1, 75, 65
3, 355964, Note_off_c, 1, 72, 65
3, 355968, Note_on_c, 1, 74, 113
3, 355968, Note_on_c, 1, 70, 113
3, 356348, Note_off_c, 1, 74, 65
3, 356348, Note_off_c, 1, 70, 65
3, 356352, Note_on_c, 1, 72, 113
3, 356352, Note_on_c, 1, 69, 113
3, 356540, Note_off_c, 1, 72, 65
3, 356540, Note_off_c, 1, 69, 65
3, 356736, Note_on_c, 1, 75, 113
3, 356736, Note_on_c, 1, 72, 113
3, 357116, Note_off_c, 1, 75, 65
3, 357116, Note_off_c, 1, 72, 65
3, 357120, Note_on_c, 1, 74, 113
3, 357120, Note_on_c, 1, 70, 113
3, 357500, Note_off_c, 1, 74, 65
3, 357500, Note_off_c, 1, 70, 65
3, 357504, Note_on_c, 1, 72, 113
3, 357504, Note_on_c, 1, 69, 113
3, 357692, Note_off_c, 1, 72, 65
3, 357692, Note_off_c, 1, 69, 65
3, 357888, Note_on_c, 1, 70, 113
3, 357888, Note_on_c, 1, 62, 113
3, 358652, Note_off_c, 1, 70, 65
3, 358652, Note_off_c, 1, 62, 65
3, 358656, Note_on_c, 1, 73, 113
3, 358656, Note_on_c, 1, 67, 113
3, 359036, Note_off_c, 1, 73, 65
3, 359036, Note_off_c, 1, 67, 65
3, 359040, Note_on_c, 1, 66, 113
3, 359040, Note_on_c, 1, 74, 113
3, 359420, Note_off_c, 1, 66, 65
3, 359420, Note_off_c, 1, 74, 65
3, 359808, Note_on_c, 1, 75, 113
3, 359808, Note_on_c, 1, 72, 113
3, 359996, Note_off_c, 1, 75, 65
3, 359996, Note_off_c, 1, 72, 65
3, 360192, Note_on_c, 1, 75, 113
3, 360192, Note_on_c, 1, 72, 113
3, 360572, Note_off_c, 1, 75, 65
3, 360572, Note_off_c, 1, 72, 65
3, 360576, Note_on_c, 1, 74, 113
3, 360576, Note_on_c, 1, 70, 113
3, 360956, Note_off_c, 1, 74, 65
3, 360956, Note_off_c, 1, 70, 65
3, 360960, Note_on_c, 1, 72, 113
3, 360960, Note_on_c, 1, 69, 113
3, 361148, Note_off_c, 1, 72, 65
3, 361148, Note_off_c, 1, 69, 65
3, 361344, Note_on_c, 1, 75, 113
3, 361344, Note_on_c, 1, 72, 113
3, 361724, Note_off_c, 1, 75, 65
3, 361724, Note_off_c, 1, 72, 65
3, 361728, Note_on_c, 1, 74, 113
3, 361728, Note_on_c, 1, 70, 113
3, 362108, Note_off_c, 1, 74, 65
3, 362108, Note_off_c, 1, 70, 65
3, 362112, Note_on_c, 1, 72, 113
3, 362112, Note_on_c, 1, 69, 113
3, 362300, Note_off_c, 1, 72, 65
3, 362300, Note_off_c, 1, 69, 65
3, 362496, Note_on_c, 1, 70, 113
3, 362496, Note_on_c, 1, 62, 113
3, 363260, Note_off_c, 1, 70, 65
3, 363260, Note_off_c, 1, 62, 65
3, 363264, Note_on_c, 1, 73, 113
3, 363264, Note_on_c, 1, 67, 113
3, 363644, Note_off_c, 1, 73, 65
3, 363644, Note_off_c, 1, 67, 65
3, 363648, Note_on_c, 1, 66, 113
3, 363648, Note_on_c, 1, 74, 113
3, 364028, Note_off_c, 1, 66, 65
3, 364028, Note_off_c, 1, 74, 65
3, 364416, Note_on_c, 1, 75, 113
3, 364416, Note_on_c, 1, 72, 113
3, 364604, Note_off_c, 1, 75, 65
3, 364604, Note_off_c, 1, 72, 65
3, 364800, Note_on_c, 1, 75, 113
3, 364800, Note_on_c, 1, 72, 113
3, 365180, Note_off_c, 1, 75, 65
3, 365180, Note_off_c, 1, 72, 65
3, 365184, Note_on_c, 1, 74, 113
3, 365184, Note_on_c, 1, 70, 113
3, 365564, Note_off_c, 1, 74, 65
3, 365564, Note_off_c, 1, 70, 65
3, 365568, Note_on_c, 1, 72, 113
3, 365568, Note_on_c, 1, 69, 113
3, 365756, Note_off_c, 1, 72, 65
3, 365756, Note_off_c, 1, 69, 65
3, 365952, Note_on_c, 1, 78, 113
3, 365952, Note_on_c, 1, 69, 113
3, 366332, Note_off_c, 1, 78, 65
3, 366332, Note_off_c, 1, 69, 65
3, 366336, Note_on_c, 1, 70, 113
3, 366336, Note_on_c, 1, 79, 113
3, 366716, Note_off_c, 1, 70, 65
3, 366716, Note_off_c, 1, 79, 65
3, 366720, Note_on_c, 1, 81, 113
3, 366720, Note_on_c, 1, 72, 113
3, 366908, Note_off_c, 1, 81, 65
3, 366908, Note_off_c, 1, 72, 65
3, 367104, Note_on_c, 1, 78, 113
3, 367104, Note_on_c, 1, 81, 113
3, 367484, Note_off_c, 1, 78, 65
3, 367484, Note_off_c, 1, 81, 65
3, 367488, Note_on_c, 1, 79, 113
3, 367488, Note_on_c, 1, 82, 113
3, 367868, Note_off_c, 1, 79, 65
3, 367868, Note_off_c, 1, 82, 65
3, 367872, Note_on_c, 1, 84, 113
3, 367872, Note_on_c, 1, 81, 113
3, 368060, Note_off_c, 1, 84, 65
3, 368060, Note_off_c, 1, 81, 65
3, 368256, Note_on_c, 1, 81, 113
3, 368256, Note_on_c, 1, 84, 113
3, 368636, Note_off_c, 1, 81, 65
3, 368636, Note_off_c, 1, 84, 65
3, 368640, Note_on_c, 1, 82, 103
3, 368640, Note_on_c, 1, 86, 103
3, 369020, Note_off_c, 1, 82, 65
3, 369020, Note_off_c, 1, 86, 65
3, 369024, Note_on_c, 1, 87, 92
3, 369024, Note_on_c, 1, 84, 92
3, 369212, Note_off_c, 1, 87, 65
3, 369212, Note_off_c, 1, 84, 65
3, 369408, Note_on_c, 1, 84, 82
3, 369408, Note_on_c, 1, 87, 82
3, 369788, Note_off_c, 1, 84, 65
3, 369788, Note_off_c, 1, 87, 65
3, 369792, Note_on_c, 1, 82, 82
3, 369792, Note_on_c, 1, 86, 82
3, 370172, Note_off_c, 1, 82, 65
3, 370172, Note_off_c, 1, 86, 65
3, 370176, Note_on_c, 1, 84, 81
3, 370176, Note_on_c, 1, 81, 81
3, 370556, Note_off_c, 1, 84, 65
3, 370556, Note_off_c, 1, 81, 65
3, 370560, Note_on_c, 1, 84, 80
3, 370560, Note_on_c, 1, 87, 80
3, 370940, Note_off_c, 1, 84, 65
3, 370940, Note_off_c, 1, 87, 65
3, 370944, Note_on_c, 1, 82, 79
3, 370944, Note_on_c, 1, 86, 79
3, 371324, Note_off_c, 1, 82, 65
3, 371324, Note_off_c, 1, 86, 65
3, 371328, Note_on_c, 1, 84, 78
3, 371328, Note_on_c, 1, 81, 78
3, 371708, Note_off_c, 1, 84, 65
3, 371708, Note_off_c, 1, 81, 65
3, 371712, Note_on_c, 1, 84, 77
3, 371712, Note_on_c, 1, 87, 77
3, 372092, Note_off_c, 1, 84, 65
3, 372092, Note_off_c, 1, 87, 65
3, 372096, Note_on_c, 1, 82, 77
3, 372096, Note_on_c, 1, 86, 77
3, 372476, Note_off_c, 1, 82, 65
3, 372476, Note_off_c, 1, 86, 65
3, 372480, Note_on_c, 1, 84, 76
3, 372480, Note_on_c, 1, 81, 76
3, 372860, Note_off_c, 1, 84, 65
3, 372860, Note_off_c, 1, 81, 65
3, 372864, Note_on_c, 1, 84, 75
3, 372864, Note_on_c, 1, 87, 75
3, 373244, Note_off_c, 1, 84, 65
3, 373244, Note_off_c, 1, 87, 65
3, 373248, Note_on_c, 1, 82, 74
3, 373248, Note_on_c, 1, 86, 74
3, 373628, Note_off_c, 1, 82, 65
3, 373628, Note_off_c, 1, 86, 65
3, 373632, Note_on_c, 1, 84, 73
3, 373632, Note_on_c, 1, 81, 73
3, 374012, Note_off_c, 1, 84, 65
3, 374012, Note_off_c, 1, 81, 65
3, 374016, Note_on_c, 1, 84, 61
3, 374016, Note_on_c, 1, 87, 61
3, 374396, Note_off_c, 1, 84, 65
3, 374396, Note_off_c, 1, 87, 65
3, 374400, Note_on_c, 1, 82, 61
3, 374400, Note_on_c, 1, 86, 61
3, 374780, Note_off_c, 1, 82, 65
3, 374780, Note_off_c, 1, 86, 65
3, 374784, Note_on_c, 1, 84, 61
3, 374784, Note_on_c, 1, 81, 61
3, 375164, Note_off_c, 1, 84, 65
3, 375164, Note_off_c, 1, 81, 65
3, 375168, Note_on_c, 1, 84, 61
3, 375168, Note_on_c, 1, 87, 61
3, 375548, Note_off_c, 1, 84, 65
3, 375548, Note_off_c, 1, 87, 65
3, 375552, Note_on_c, 1, 82, 61
3, 375552, Note_on_c, 1, 86, 61
3, 375932, Note_off_c, 1, 82, 65
3, 375932, Note_off_c, 1, 86, 65
3, 375936, Note_on_c, 1, 84, 61
3, 375936, Note_on_c, 1, 81, 61
3, 376316, Note_off_c, 1, 84, 65
3, 376316, Note_off_c, 1, 81, 65
3, 376320, Note_on_c, 1, 84, 61
3, 376320, Note_on_c, 1, 87, 61
3, 376700, Note_off_c, 1, 84, 65
3, 376700, Note_off_c, 1, 87, 65
3, 376704, Note_on_c, 1, 82, 61
3, 376704, Note_on_c, 1, 86, 61
3, 377084, Note_off_c, 1, 82, 65
3, 377084, Note_off_c, 1, 86, 65
3, 377088, Note_on_c, 1, 84, 61
3, 377088, Note_on_c, 1, 81, 61
3, 377468, Note_off_c, 1, 84, 65
3, 377468, Note_off_c, 1, 81, 65
3, 377472, Note_on_c, 1, 84, 61
3, 377472, Note_on_c, 1, 87, 61
3, 377852, Note_off_c, 1, 84, 65
3, 377852, Note_off_c, 1, 87, 65
3, 377856, Note_on_c, 1, 82, 61
3, 377856, Note_on_c, 1, 86, 61
3, 378236, Note_off_c, 1, 82, 65
3, 378236, Note_off_c, 1, 86, 65
3, 378240, Note_on_c, 1, 84, 61
3, 378240, Note_on_c, 1, 81, 61
3, 378620, Note_off_c, 1, 84, 65
3, 378620, Note_off_c, 1, 81, 65
3, 378624, Note_on_c, 1, 79, 72
3, 378624, Note_on_c, 1, 82, 72
3, 379004, Note_off_c, 1, 82, 65
3, 379008, Note_on_c, 1, 84, 72
3, 379388, Note_off_c, 1, 79, 65
3, 379388, Note_off_c, 1, 84, 65
3, 379392, Note_on_c, 1, 77, 72
3, 379392, Note_on_c, 1, 86, 72
3, 379772, Note_off_c, 1, 86, 65
3, 379776, Note_on_c, 1, 79, 72
3, 380156, Note_off_c, 1, 77, 65
3, 380160, Note_on_c, 1, 75, 72
3, 380352, Note_on_c, 1, 74, 72
3, 380444, Note_off_c, 1, 75, 65
3, 380544, Note_on_c, 1, 72, 72
3, 380636, Note_off_c, 1, 74, 65
3, 380924, Note_off_c, 1, 79, 65
3, 380924, Note_off_c, 1, 72, 65
3, 380928, Note_on_c, 1, 78, 72
3, 380928, Note_on_c, 1, 69, 72
3, 380928, Note_on_c, 1, 72, 72
3, 381308, Note_off_c, 1, 72, 65
3, 381312, Note_on_c, 1, 74, 72
3, 381692, Note_off_c, 1, 78, 65
3, 381692, Note_off_c, 1, 69, 65
3, 381692, Note_off_c, 1, 74, 65
3, 381696, Note_on_c, 1, 78, 72
3, 381696, Note_on_c, 1, 75, 72
3, 381696, Note_on_c, 1, 69, 72
3, 382076, Note_off_c, 1, 78, 65
3, 382076, Note_off_c, 1, 75, 65
3, 382076, Note_off_c, 1, 69, 65
3, 382080, Note_on_c, 1, 79, 72
3, 382080, Note_on_c, 1, 74, 72
3, 382460, Note_off_c, 1, 74, 65
3, 382464, Note_on_c, 1, 70, 72
3, 382844, Note_off_c, 1, 70, 65
3, 382848, Note_on_c, 1, 74, 72
3, 383228, Note_off_c, 1, 79, 65
3, 383228, Note_off_c, 1, 74, 65
3, 383232, Note_on_c, 1, 74, 61
3, 383232, Note_on_c, 1, 72, 61
3, 383232, Note_on_c, 1, 69, 61
3, 383996, Note_off_c, 1, 74, 65
3, 383996, Note_off_c, 1, 72, 65
3, 383996, Note_off_c, 1, 69, 65
3, 384000, Note_on_c, 1, 76, 61
3, 384188, Note_off_c, 1, 76, 65
3, 384192, Note_on_c, 1, 78, 61
3, 384380, Note_off_c, 1, 78, 65
3, 384384, Note_on_c, 1, 79, 61
3, 384384, Note_on_c, 1, 70, 61
3, 384384, Note_on_c, 1, 67, 61
3, 384764, Note_off_c, 1, 79, 65
3, 384768, Note_on_c, 1, 81, 61
3, 385148, Note_off_c, 1, 81, 65
3, 385152, Note_on_c, 1, 82, 61
3, 385532, Note_off_c, 1, 70, 65
3, 385532, Note_off_c, 1, 67, 65
3, 385532, Note_off_c, 1, 82, 65
3, 385536, Note_on_c, 1, 67, 61
3, 385536, Note_on_c, 1, 63, 61
3, 385536, Note_on_c, 1, 73, 61
3, 385536, Note_on_c, 1, 82, 61
3, 385916, Note_off_c, 1, 82, 65
3, 385920, Note_on_c, 1, 81, 61
3, 386300, Note_off_c, 1, 81, 65
3, 386304, Note_on_c, 1, 79, 61
3, 386592, Note_off_c, 1, 79, 65
3, 386684, Note_off_c, 1, 67, 65
3, 386684, Note_off_c, 1, 63, 65
3, 386684, Note_off_c, 1, 73, 65
3, 386688, Note_on_c, 1, 78, 61
3, 386688, Note_on_c, 1, 74, 61
3, 386688, Note_on_c, 1, 69, 61
3, 386688, Note_on_c, 1, 62, 61
3, 386812, Note_off_c, 1, 78, 65
3, 386812, Note_off_c, 1, 74, 65
3, 386812, Note_off_c, 1, 69, 65
3, 386812, Note_off_c, 1, 62, 65
3, 387840, Note_on_c, 1, 62, 61
3, 387840, Note_on_c, 1, 57, 61
3, 388988, Note_off_c, 1, 62, 65
3, 388988, Note_off_c, 1, 57, 65
3, 388992, Note_on_c, 1, 62, 61
3, 388992, Note_on_c, 1, 58, 61
3, 389372, Note_off_c, 1, 62, 65
3, 389372, Note_off_c, 1, 58, 65
3, 389760, Note_on_c, 1, 74, 61
3, 390140, Note_off_c, 1, 74, 65
3, 390144, Note_on_c, 1, 74, 61
3, 390524, Note_off_c, 1, 74, 65
3, 390528, Note_on_c, 1, 75, 61
3, 390908, Note_off_c, 1, 75, 65
3, 390912, Note_on_c, 1, 72, 61
3, 391292, Note_off_c, 1, 72, 65
3, 391296, Note_on_c, 1, 70, 61
3, 391676, Note_off_c, 1, 70, 65
3, 392448, Note_on_c, 1, 67, 61
3, 392448, Note_on_c, 1, 62, 61
3, 393596, Note_off_c, 1, 67, 65
3, 393596, Note_off_c, 1, 62, 65
3, 393600, Note_on_c, 1, 67, 61
3, 393600, Note_on_c, 1, 63, 61
3, 394172, Note_off_c, 1, 67, 65
3, 394172, Note_off_c, 1, 63, 65
3, 394368, Note_on_c, 1, 79, 61
3, 394748, Note_off_c, 1, 79, 65
3, 394752, Note_on_c, 1, 79, 61
3, 394752, Note_on_c, 1, 67, 61
3, 394752, Note_on_c, 1, 59, 61
3, 395132, Note_off_c, 1, 79, 65
3, 395136, Note_on_c, 1, 80, 61
3, 395516, Note_off_c, 1, 80, 65
3, 395520, Note_on_c, 1, 77, 61
3, 395900, Note_off_c, 1, 67, 65
3, 395900, Note_off_c, 1, 59, 65
3, 395900, Note_off_c, 1, 77, 65
3, 395904, Note_on_c, 1, 67, 61
3, 395904, Note_on_c, 1, 60, 61
3, 395904, Note_on_c, 1, 77, 61
3, 396284, Note_off_c, 1, 77, 65
3, 396288, Note_on_c, 1, 75, 61
3, 396668, Note_off_c, 1, 67, 65
3, 396668, Note_off_c, 1, 60, 65
3, 396668, Note_off_c, 1, 75, 65
3, 396672, Note_on_c, 1, 74, 61
3, 396672, Note_on_c, 1, 67, 61
3, 396672, Note_on_c, 1, 62, 61
3, 397052, Note_off_c, 1, 74, 65
3, 397052, Note_off_c, 1, 67, 65
3, 397052, Note_off_c, 1, 62, 65
3, 397056, Note_on_c, 1, 74, 61
3, 397056, Note_on_c, 1, 67, 61
3, 397056, Note_on_c, 1, 63, 61
3, 397308, Note_off_c, 1, 67, 65
3, 397308, Note_off_c, 1, 63, 65
3, 397436, Note_off_c, 1, 74, 65
3, 397440, Note_on_c, 1, 72, 61
3, 397696, Note_off_c, 1, 72, 65
3, 397824, Note_on_c, 1, 70, 61
3, 397824, Note_on_c, 1, 67, 61
3, 397824, Note_on_c, 1, 62, 61
3, 397948, Note_off_c, 1, 70, 65
3, 397948, Note_off_c, 1, 67, 65
3, 397948, Note_off_c, 1, 62, 65
3, 398112, Note_on_c, 1, 70, 61
3, 398156, Note_off_c, 1, 70, 65
3, 398208, Note_on_c, 1, 69, 61
3, 398208, Note_on_c, 1, 67, 61
3, 398208, Note_on_c, 1, 61, 61
3, 398588, Note_off_c, 1, 69, 65
3, 398588, Note_off_c, 1, 67, 65
3, 398588, Note_off_c, 1, 61, 65
3, 399744, Note_on_c, 1, 69, 61
3, 399744, Note_on_c, 1, 67, 61
3, 399744, Note_on_c, 1, 63, 61
3, 399744, Note_on_c, 1, 61, 61
3, 399868, Note_off_c, 1, 69, 65
3, 399868, Note_off_c, 1, 67, 65
3, 399868, Note_off_c, 1, 63, 65
3, 399868, Note_off_c, 1, 61, 65
3, 400128, Note_on_c, 1, 69, 61
3, 400128, Note_on_c, 1, 67, 61
3, 400128, Note_on_c, 1, 63, 61
3, 400128, Note_on_c, 1, 61, 61
3, 400252, Note_off_c, 1, 69, 65
3, 400252, Note_off_c, 1, 67, 65
3, 400252, Note_off_c, 1, 63, 65
3, 400252, Note_off_c, 1, 61, 65
3, 400512, Note_on_c, 1, 70, 61
3, 400512, Note_on_c, 1, 67, 61
3, 400512, Note_on_c, 1, 62, 61
3, 401276, Note_off_c, 1, 70, 65
3, 401280, Note_on_c, 1, 74, 61
3, 401660, Note_off_c, 1, 67, 65
3, 401660, Note_off_c, 1, 62, 65
3, 401660, Note_off_c, 1, 74, 65
3, 402048, Note_on_c, 1, 62, 61
3, 402172, Note_off_c, 1, 62, 65
3, 402432, Note_on_c, 1, 66, 61
3, 402556, Note_off_c, 1, 66, 65
3, 402816, Note_on_c, 1, 67, 61
3, 403072, Note_off_c, 1, 67, 65
3, 403968, Note_on_c, 1, 65, 72
3, 403968, Note_on_c, 1, 63, 72
3, 403968, Note_on_c, 1, 60, 72
3, 405116, Note_off_c, 1, 65, 65
3, 405116, Note_off_c, 1, 63, 65
3, 405116, Note_off_c, 1, 60, 65
3, 405120, Note_on_c, 1, 67, 85
3, 405120, Note_on_c, 1, 63, 85
3, 405120, Note_on_c, 1, 58, 85
3, 406268, Note_off_c, 1, 67, 65
3, 406268, Note_off_c, 1, 63, 65
3, 406268, Note_off_c, 1, 58, 65
3, 406272, Note_on_c, 1, 62, 98
3, 406272, Note_on_c, 1, 58, 98
3, 406272, Note_on_c, 1, 56, 98
3, 407420, Note_off_c, 1, 62, 65
3, 407420, Note_off_c, 1, 58, 65
3, 407420, Note_off_c, 1, 56, 65
3, 407424, Note_on_c, 1, 55, 97
3, 407552, Note_on_c, 1, 58, 97
3, 407556, Note_off_c, 1, 55, 65
3, 407684, Note_off_c, 1, 58, 65
3, 407684, Note_on_c, 1, 63, 97
3, 407808, Note_off_c, 1, 63, 65
3, 407808, Note_on_c, 1, 55, 97
3, 407936, Note_on_c, 1, 58, 97
3, 407940, Note_off_c, 1, 55, 65
3, 408068, Note_off_c, 1, 58, 65
3, 408068, Note_on_c, 1, 63, 97
3, 408192, Note_off_c, 1, 63, 65
3, 408192, Note_on_c, 1, 55, 97
3, 408320, Note_on_c, 1, 58, 97
3, 408324, Note_off_c, 1, 55, 65
3, 408452, Note_off_c, 1, 58, 65
3, 408452, Note_on_c, 1, 63, 97
3, 408576, Note_off_c, 1, 63, 65
3, 408576, Note_on_c, 1, 63, 123
3, 408764, Note_off_c, 1, 63, 65
3, 408960, Note_on_c, 1, 58, 123
3, 409148, Note_off_c, 1, 58, 65
3, 409344, Note_on_c, 1, 67, 123
3, 409532, Note_off_c, 1, 67, 65
3, 409728, Note_on_c, 1, 67, 123
3, 410300, Note_off_c, 1, 67, 65
3, 410304, Note_on_c, 1, 65, 123
3, 410492, Note_off_c, 1, 65, 65
3, 410496, Note_on_c, 1, 63, 123
3, 410876, Note_off_c, 1, 63, 65
3, 410880, Note_on_c, 1, 70, 123
3, 411452, Note_off_c, 1, 70, 65
3, 411456, Note_on_c, 1, 68, 123
3, 411648, Note_on_c, 1, 67, 123
3, 411740, Note_off_c, 1, 68, 65
3, 412028, Note_off_c, 1, 67, 65
3, 412032, Note_on_c, 1, 82, 123
3, 412604, Note_off_c, 1, 82, 65
3, 412608, Note_on_c, 1, 81, 123
3, 412800, Note_on_c, 1, 79, 123
3, 412892, Note_off_c, 1, 81, 65
3, 413180, Note_off_c, 1, 79, 65
3, 413184, Note_on_c, 1, 82, 123
3, 413756, Note_off_c, 1, 82, 65
3, 413760, Note_on_c, 1, 81, 123
3, 413948, Note_off_c, 1, 81, 65
3, 413952, Note_on_c, 1, 79, 123
3, 414332, Note_off_c, 1, 79, 65
3, 414336, Note_on_c, 1, 78, 123
3, 414716, Note_off_c, 1, 78, 65
3, 414720, Note_on_c, 1, 75, 123
3, 414720, Note_on_c, 1, 87, 123
3, 415292, Note_off_c, 1, 75, 65
3, 415292, Note_off_c, 1, 87, 65
3, 415296, Note_on_c, 1, 74, 123
3, 415296, Note_on_c, 1, 86, 123
3, 415484, Note_off_c, 1, 74, 65
3, 415484, Note_off_c, 1, 86, 65
3, 415488, Note_on_c, 1, 72, 123
3, 415488, Note_on_c, 1, 84, 123
3, 415868, Note_off_c, 1, 72, 65
3, 415868, Note_off_c, 1, 84, 65
3, 415872, Note_on_c, 1, 86, 123
3, 415872, Note_on_c, 1, 74, 123
3, 416444, Note_off_c, 1, 86, 65
3, 416444, Note_off_c, 1, 74, 65
3, 416448, Note_on_c, 1, 72, 123
3, 416448, Note_on_c, 1, 84, 123
3, 416636, Note_off_c, 1, 72, 65
3, 416636, Note_off_c, 1, 84, 65
3, 416640, Note_on_c, 1, 70, 123
3, 416640, Note_on_c, 1, 82, 123
3, 417020, Note_off_c, 1, 70, 65
3, 417020, Note_off_c, 1, 82, 65
3, 417024, Note_on_c, 1, 74, 123
3, 417024, Note_on_c, 1, 86, 123
3, 417212, Note_off_c, 1, 74, 65
3, 417212, Note_off_c, 1, 86, 65
3, 417408, Note_on_c, 1, 74, 123
3, 417408, Note_on_c, 1, 86, 123
3, 417596, Note_off_c, 1, 74, 65
3, 417596, Note_off_c, 1, 86, 65
3, 417792, Note_on_c, 1, 74, 123
3, 417792, Note_on_c, 1, 86, 123
3, 418172, Note_off_c, 1, 74, 65
3, 418172, Note_off_c, 1, 86, 65
3, 418176, Note_on_c, 1, 72, 123
3, 418176, Note_on_c, 1, 84, 123
3, 418556, Note_off_c, 1, 72, 65
3, 418556, Note_off_c, 1, 84, 65
3, 418560, Note_on_c, 1, 70, 123
3, 418560, Note_on_c, 1, 82, 123
3, 418748, Note_off_c, 1, 70, 65
3, 418748, Note_off_c, 1, 82, 65
3, 418944, Note_on_c, 1, 81, 123
3, 418944, Note_on_c, 1, 69, 123
3, 419324, Note_off_c, 1, 81, 65
3, 419324, Note_off_c, 1, 69, 65
3, 419328, Note_on_c, 1, 81, 123
3, 419328, Note_on_c, 1, 72, 123
3, 419900, Note_off_c, 1, 81, 65
3, 419900, Note_off_c, 1, 72, 65
3, 419904, Note_on_c, 1, 82, 123
3, 419904, Note_on_c, 1, 74, 123
3, 420092, Note_off_c, 1, 82, 65
3, 420092, Note_off_c, 1, 74, 65
3, 420096, Note_on_c, 1, 84, 123
3, 420096, Note_on_c, 1, 75, 123
3, 420284, Note_off_c, 1, 84, 65
3, 420284, Note_off_c, 1, 75, 65
3, 420480, Note_on_c, 1, 79, 123
3, 420480, Note_on_c, 1, 70, 123
3, 421052, Note_off_c, 1, 79, 65
3, 421052, Note_off_c, 1, 70, 65
3, 421056, Note_on_c, 1, 81, 123
3, 421056, Note_on_c, 1, 72, 123
3, 421244, Note_off_c, 1, 81, 65
3, 421244, Note_off_c, 1, 72, 65
3, 421248, Note_on_c, 1, 82, 123
3, 421248, Note_on_c, 1, 74, 123
3, 421436, Note_off_c, 1, 82, 65
3, 421436, Note_off_c, 1, 74, 65
3, 421632, Note_on_c, 1, 82, 123
3, 421632, Note_on_c, 1, 74, 123
3, 421820, Note_off_c, 1, 82, 65
3, 421820, Note_off_c, 1, 74, 65
3, 422016, Note_on_c, 1, 82, 123
3, 422016, Note_on_c, 1, 74, 123
3, 422204, Note_off_c, 1, 82, 65
3, 422204, Note_off_c, 1, 74, 65
3, 422400, Note_on_c, 1, 82, 123
3, 422400, Note_on_c, 1, 74, 123
3, 422780, Note_off_c, 1, 82, 65
3, 422780, Note_off_c, 1, 74, 65
3, 422784, Note_on_c, 1, 81, 123
3, 422784, Note_on_c, 1, 72, 123
3, 423164, Note_off_c, 1, 81, 65
3, 423164, Note_off_c, 1, 72, 65
3, 423168, Note_on_c, 1, 79, 123
3, 423168, Note_on_c, 1, 70, 123
3, 423356, Note_off_c, 1, 79, 65
3, 423356, Note_off_c, 1, 70, 65
3, 423552, Note_on_c, 1, 78, 123
3, 423552, Note_on_c, 1, 69, 123
3, 424316, Note_off_c, 1, 78, 65
3, 424316, Note_off_c, 1, 69, 65
3, 424320, Note_on_c, 1, 79, 123
3, 424320, Note_on_c, 1, 70, 123
3, 424700, Note_off_c, 1, 79, 65
3, 424700, Note_off_c, 1, 70, 65
3, 424704, Note_on_c, 1, 78, 123
3, 424704, Note_on_c, 1, 69, 123
3, 425468, Note_off_c, 1, 78, 65
3, 425468, Note_off_c, 1, 69, 65
3, 425472, Note_on_c, 1, 79, 123
3, 425472, Note_on_c, 1, 70, 123
3, 425852, Note_off_c, 1, 79, 65
3, 425852, Note_off_c, 1, 70, 65
3, 425856, Note_on_c, 1, 78, 66
3, 425856, Note_on_c, 1, 69, 66
3, 426620, Note_off_c, 1, 78, 65
3, 426620, Note_off_c, 1, 69, 65
3, 427008, Note_on_c, 1, 70, 66
3, 427772, Note_off_c, 1, 70, 65
3, 428160, Note_on_c, 1, 71, 66
3, 428924, Note_off_c, 1, 71, 65
3, 428928, Note_on_c, 1, 72, 66
3, 429308, Note_off_c, 1, 72, 65
3, 429312, Note_on_c, 1, 74, 66
3, 429884, Note_off_c, 1, 74, 65
3, 429888, Note_on_c, 1, 76, 66
3, 430080, Note_on_c, 1, 78, 66
3, 430172, Note_off_c, 1, 76, 65
3, 430268, Note_off_c, 1, 78, 65
3, 430272, Note_on_c, 1, 79, 66
3, 430460, Note_off_c, 1, 79, 65
3, 430464, Note_on_c, 1, 81, 66
3, 430652, Note_off_c, 1, 81, 65
3, 430848, Note_on_c, 1, 81, 66
3, 430848, Note_on_c, 1, 78, 66
3, 431036, Note_off_c, 1, 81, 65
3, 431036, Note_off_c, 1, 78, 65
3, 431232, Note_on_c, 1, 79, 66
3, 431232, Note_on_c, 1, 83, 66
3, 431420, Note_off_c, 1, 79, 65
3, 431420, Note_off_c, 1, 83, 65
3, 431616, Note_on_c, 1, 86, 66
3, 431996, Note_off_c, 1, 86, 65
3, 432000, Note_on_c, 1, 84, 66
3, 432380, Note_off_c, 1, 84, 65
3, 432768, Note_on_c, 1, 69, 66
3, 432768, Note_on_c, 1, 66, 66
3, 433532, Note_off_c, 1, 69, 65
3, 433532, Note_off_c, 1, 66, 65
3, 433536, Note_on_c, 1, 71, 66
3, 433536, Note_on_c, 1, 67, 66
3, 433824, Note_on_c, 1, 74, 66
3, 433916, Note_off_c, 1, 71, 65
3, 433916, Note_off_c, 1, 67, 65
3, 433916, Note_off_c, 1, 74, 65
3, 433920, Note_on_c, 1, 72, 66
3, 434108, Note_off_c, 1, 72, 65
3, 434112, Note_on_c, 1, 71, 66
3, 434300, Note_off_c, 1, 71, 65
3, 434304, Note_on_c, 1, 72, 66
3, 434492, Note_off_c, 1, 72, 65
3, 434496, Note_on_c, 1, 74, 66
3, 434684, Note_off_c, 1, 74, 65
3, 434688, Note_on_c, 1, 76, 66
3, 434876, Note_off_c, 1, 76, 65
3, 434880, Note_on_c, 1, 78, 66
3, 435068, Note_off_c, 1, 78, 65
3, 435072, Note_on_c, 1, 79, 66
3, 435196, Note_off_c, 1, 79, 65
3, 435456, Note_on_c, 1, 79, 66
3, 435580, Note_off_c, 1, 79, 65
3, 435840, Note_on_c, 1, 81, 66
3, 435964, Note_off_c, 1, 81, 65
3, 436224, Note_on_c, 1, 84, 66
3, 436604, Note_off_c, 1, 84, 65
3, 436608, Note_on_c, 1, 83, 66
3, 436988, Note_off_c, 1, 83, 65
3, 437376, Note_on_c, 1, 86, 66
3, 437376, Note_on_c, 1, 67, 66
3, 437376, Note_on_c, 1, 62, 66
3, 437376, Note_on_c, 1, 59, 66
3, 437952, Note_off_c, 1, 86, 65
3, 437952, Note_on_c, 1, 84, 66
3, 438140, Note_off_c, 1, 84, 65
3, 438144, Note_on_c, 1, 83, 66
3, 438524, Note_off_c, 1, 67, 65
3, 438524, Note_off_c, 1, 62, 65
3, 438524, Note_off_c, 1, 59, 65
3, 438524, Note_off_c, 1, 83, 65
3, 438528, Note_on_c, 1, 83, 66
3, 438528, Note_on_c, 1, 69, 66
3, 438528, Note_on_c, 1, 67, 66
3, 438528, Note_on_c, 1, 64, 66
3, 438528, Note_on_c, 1, 60, 66
3, 438908, Note_off_c, 1, 83, 65
3, 438912, Note_on_c, 1, 81, 66
3, 439292, Note_off_c, 1, 81, 65
3, 439296, Note_on_c, 1, 81, 66
3, 439420, Note_off_c, 1, 81, 65
3, 439676, Note_off_c, 1, 69, 65
3, 439676, Note_off_c, 1, 67, 65
3, 439676, Note_off_c, 1, 64, 65
3, 439676, Note_off_c, 1, 60, 65
3, 439680, Note_on_c, 1, 81, 66
3, 439680, Note_on_c, 1, 62, 66
3, 439680, Note_on_c, 1, 66, 66
3, 439680, Note_on_c, 1, 72, 66
3, 439756, Note_on_c, 1, 83, 66
3, 439772, Note_off_c, 1, 81, 65
3, 439836, Note_on_c, 1, 81, 66
3, 439848, Note_off_c, 1, 83, 65
3, 439916, Note_on_c, 1, 80, 66
3, 439928, Note_off_c, 1, 81, 65
3, 439996, Note_on_c, 1, 81, 66
3, 440008, Note_off_c, 1, 80, 65
3, 440064, Note_on_c, 1, 83, 66
3, 440088, Note_off_c, 1, 81, 65
3, 440444, Note_off_c, 1, 83, 65
3, 440448, Note_on_c, 1, 84, 66
3, 440828, Note_off_c, 1, 62, 65
3, 440828, Note_off_c, 1, 66, 65
3, 440828, Note_off_c, 1, 72, 65
3, 440828, Note_off_c, 1, 84, 65
3, 440832, Note_on_c, 1, 83, 66
3, 440832, Note_on_c, 1, 71, 66
3, 440832, Note_on_c, 1, 67, 66
3, 440956, Note_off_c, 1, 83, 65
3, 441212, Note_off_c, 1, 71, 65
3, 441212, Note_off_c, 1, 67, 65
3, 441216, Note_on_c, 1, 79, 66
3, 441404, Note_off_c, 1, 79, 65
3, 441408, Note_on_c, 1, 81, 66
3, 441596, Note_off_c, 1, 81, 65
3, 441600, Note_on_c, 1, 83, 66
3, 441788, Note_off_c, 1, 83, 65
3, 441792, Note_on_c, 1, 84, 66
3, 441920, Note_on_c, 1, 74, 66
3, 441980, Note_off_c, 1, 84, 65
3, 441984, Note_on_c, 1, 86, 72
3, 441984, Note_on_c, 1, 67, 72
3, 441984, Note_on_c, 1, 62, 72
3, 441984, Note_on_c, 1, 59, 72
3, 441996, Note_off_c, 1, 74, 65
3, 442556, Note_off_c, 1, 86, 65
3, 442560, Note_on_c, 1, 84, 77
3, 442748, Note_off_c, 1, 84, 65
3, 442752, Note_on_c, 1, 83, 78
3, 443132, Note_off_c, 1, 67, 65
3, 443132, Note_off_c, 1, 62, 65
3, 443132, Note_off_c, 1, 59, 65
3, 443132, Note_off_c, 1, 83, 65
3, 443136, Note_on_c, 1, 83, 82
3, 443136, Note_on_c, 1, 69, 82
3, 443136, Note_on_c, 1, 67, 82
3, 443136, Note_on_c, 1, 64, 82
3, 443136, Note_on_c, 1, 60, 82
3, 443516, Note_off_c, 1, 83, 65
3, 443520, Note_on_c, 1, 81, 85
3, 443900, Note_off_c, 1, 81, 65
3, 443904, Note_on_c, 1, 81, 88
3, 444092, Note_off_c, 1, 81, 65
3, 444284, Note_off_c, 1, 69, 65
3, 444284, Note_off_c, 1, 67, 65
3, 444284, Note_off_c, 1, 64, 65
3, 444284, Note_off_c, 1, 60, 65
3, 444288, Note_on_c, 1, 81, 92
3, 444288, Note_on_c, 1, 70, 92
3, 444288, Note_on_c, 1, 67, 92
3, 444288, Note_on_c, 1, 64, 92
3, 444288, Note_on_c, 1, 61, 92
3, 444668, Note_off_c, 1, 81, 65
3, 444672, Note_on_c, 1, 82, 95
3, 445052, Note_off_c, 1, 82, 65
3, 445056, Note_on_c, 1, 79, 98
3, 445436, Note_off_c, 1, 70, 65
3, 445436, Note_off_c, 1, 67, 65
3, 445436, Note_off_c, 1, 64, 65
3, 445436, Note_off_c, 1, 61, 65
3, 445436, Note_off_c, 1, 79, 65
3, 445440, Note_on_c, 1, 74, 103
3, 445440, Note_on_c, 1, 62, 103
3, 445440, Note_on_c, 1, 66, 103
3, 445440, Note_on_c, 1, 69, 103
3, 445628, Note_off_c, 1, 74, 65
3, 445632, Note_on_c, 1, 73, 97
3, 445820, Note_off_c, 1, 62, 65
3, 445820, Note_off_c, 1, 66, 65
3, 445820, Note_off_c, 1, 69, 65
3, 445820, Note_off_c, 1, 73, 65
3, 445824, Note_on_c, 1, 74, 92
3, 446012, Note_off_c, 1, 74, 65
3, 446016, Note_on_c, 1, 76, 87
3, 446204, Note_off_c, 1, 76, 65
3, 446208, Note_on_c, 1, 74, 82
3, 446396, Note_off_c, 1, 74, 65
3, 446400, Note_on_c, 1, 72, 77
3, 446588, Note_off_c, 1, 72, 65
3, 446592, Note_on_c, 1, 74, 66
3, 446972, Note_off_c, 1, 74, 65
3, 446976, Note_on_c, 1, 88, 66
3, 447104, Note_on_c, 1, 86, 66
3, 447108, Note_off_c, 1, 88, 65
3, 447236, Note_off_c, 1, 86, 65
3, 447236, Note_on_c, 1, 85, 66
3, 447360, Note_on_c, 1, 88, 66
3, 447364, Note_off_c, 1, 85, 65
3, 447488, Note_on_c, 1, 86, 66
3, 447492, Note_off_c, 1, 88, 65
3, 447620, Note_off_c, 1, 86, 65
3, 447620, Note_on_c, 1, 85, 66
3, 447744, Note_on_c, 1, 88, 66
3, 447748, Note_off_c, 1, 85, 65
3, 447872, Note_on_c, 1, 86, 66
3, 447876, Note_off_c, 1, 88, 65
3, 448004, Note_off_c, 1, 86, 65
3, 448004, Note_on_c, 1, 85, 66
3, 448128, Note_off_c, 1, 85, 65
3, 448128, Note_on_c, 1, 88, 66
3, 448256, Note_on_c, 1, 86, 66
3, 448260, Note_off_c, 1, 88, 65
3, 448388, Note_off_c, 1, 86, 65
3, 448388, Note_on_c, 1, 85, 66
3, 448512, Note_off_c, 1, 85, 65
3, 448512, Note_on_c, 1, 88, 66
3, 448640, Note_on_c, 1, 86, 66
3, 448644, Note_off_c, 1, 88, 65
3, 448772, Note_off_c, 1, 86, 65
3, 448772, Note_on_c, 1, 85, 66
3, 448896, Note_off_c, 1, 85, 65
3, 448896, Note_on_c, 1, 88, 66
3, 449024, Note_on_c, 1, 86, 66
3, 449028, Note_off_c, 1, 88, 65
3, 449156, Note_off_c, 1, 86, 65
3, 449156, Note_on_c, 1, 85, 66
3, 449280, Note_off_c, 1, 85, 65
3, 449280, Note_on_c, 1, 88, 66
3, 449408, Note_on_c, 1, 86, 66
3, 449412, Note_off_c, 1, 88, 65
3, 449540, Note_off_c, 1, 86, 65
3, 449540, Note_on_c, 1, 85, 66
3, 449664, Note_off_c, 1, 85, 65
3, 449664, Note_on_c, 1, 88, 66
3, 449792, Note_on_c, 1, 86, 66
3, 449796, Note_off_c, 1, 88, 65
3, 449924, Note_off_c, 1, 86, 65
3, 449924, Note_on_c, 1, 85, 66
3, 450048, Note_off_c, 1, 85, 65
3, 450048, Note_on_c, 1, 88, 66
3, 450176, Note_on_c, 1, 86, 66
3, 450180, Note_off_c, 1, 88, 65
3, 450308, Note_off_c, 1, 86, 65
3, 450308, Note_on_c, 1, 85, 66
3, 450432, Note_off_c, 1, 85, 65
3, 450432, Note_on_c, 1, 88, 66
3, 450560, Note_on_c, 1, 86, 66
3, 450564, Note_off_c, 1, 88, 65
3, 450692, Note_off_c, 1, 86, 65
3, 450692, Note_on_c, 1, 85, 66
3, 450816, Note_off_c, 1, 85, 65
3, 450816, Note_on_c, 1, 88, 66
3, 450944, Note_on_c, 1, 86, 66
3, 450948, Note_off_c, 1, 88, 65
3, 451076, Note_off_c, 1, 86, 65
3, 451076, Note_on_c, 1, 85, 66
3, 451200, Note_off_c, 1, 85, 65
3, 451200, Note_on_c, 1, 88, 66
3, 451328, Note_on_c, 1, 86, 66
3, 451332, Note_off_c, 1, 88, 65
3, 451460, Note_off_c, 1, 86, 65
3, 451460, Note_on_c, 1, 85, 66
3, 451584, Note_off_c, 1, 85, 65
3, 451584, Note_on_c, 1, 88, 66
3, 451712, Note_on_c, 1, 86, 66
3, 451716, Note_off_c, 1, 88, 65
3, 451844, Note_off_c, 1, 86, 65
3, 451844, Note_on_c, 1, 85, 66
3, 451968, Note_off_c, 1, 85, 65
3, 451968, Note_on_c, 1, 88, 66
3, 452096, Note_on_c, 1, 86, 66
3, 452100, Note_off_c, 1, 88, 65
3, 452228, Note_off_c, 1, 86, 65
3, 452228, Note_on_c, 1, 85, 66
3, 452352, Note_off_c, 1, 85, 65
3, 452352, Note_on_c, 1, 88, 66
3, 452480, Note_on_c, 1, 86, 66
3, 452484, Note_off_c, 1, 88, 65
3, 452612, Note_off_c, 1, 86, 65
3, 452612, Note_on_c, 1, 85, 66
3, 452736, Note_off_c, 1, 85, 65
3, 452736, Note_on_c, 1, 88, 66
3, 452864, Note_on_c, 1, 86, 66
3, 452868, Note_off_c, 1, 88, 65
3, 452996, Note_off_c, 1, 86, 65
3, 452996, Note_on_c, 1, 85, 66
3, 453120, Note_off_c, 1, 85, 65
3, 453120, Note_on_c, 1, 88, 66
3, 453248, Note_on_c, 1, 86, 66
3, 453252, Note_off_c, 1, 88, 65
3, 453380, Note_off_c, 1, 86, 65
3, 453380, Note_on_c, 1, 85, 66
3, 453504, Note_off_c, 1, 85, 65
3, 453504, Note_on_c, 1, 88, 66
3, 453632, Note_on_c, 1, 86, 66
3, 453636, Note_off_c, 1, 88, 65
3, 453764, Note_off_c, 1, 86, 65
3, 453764, Note_on_c, 1, 85, 66
3, 453888, Note_off_c, 1, 85, 65
3, 453888, Note_on_c, 1, 88, 66
3, 454016, Note_on_c, 1, 86, 66
3, 454020, Note_off_c, 1, 88, 65
3, 454148, Note_off_c, 1, 86, 65
3, 454148, Note_on_c, 1, 85, 66
3, 454272, Note_off_c, 1, 85, 65
3, 454272, Note_on_c, 1, 88, 66
3, 454400, Note_on_c, 1, 86, 66
3, 454404, Note_off_c, 1, 88, 65
3, 454532, Note_off_c, 1, 86, 65
3, 454532, Note_on_c, 1, 85, 66
3, 454656, Note_off_c, 1, 85, 65
3, 454656, Note_on_c, 1, 88, 66
3, 454784, Note_on_c, 1, 86, 66
3, 454788, Note_off_c, 1, 88, 65
3, 454916, Note_off_c, 1, 86, 65
3, 454916, Note_on_c, 1, 85, 66
3, 455040, Note_off_c, 1, 85, 65
3, 455040, Note_on_c, 1, 88, 66
3, 455168, Note_on_c, 1, 86, 66
3, 455172, Note_off_c, 1, 88, 65
3, 455300, Note_off_c, 1, 86, 65
3, 455300, Note_on_c, 1, 85, 66
3, 455424, Note_off_c, 1, 85, 65
3, 455424, Note_on_c, 1, 88, 66
3, 455552, Note_on_c, 1, 86, 66
3, 455556, Note_off_c, 1, 88, 65
3, 455684, Note_off_c, 1, 86, 65
3, 455684, Note_on_c, 1, 85, 66
3, 455808, Note_off_c, 1, 85, 65
3, 456000, Note_on_c, 1, 85, 66
3, 456188, Note_off_c, 1, 85, 65
3, 456192, Note_on_c, 1, 86, 66
3, 456380, Note_off_c, 1, 86, 65
3, 456384, Note_on_c, 1, 83, 66
3, 456572, Note_off_c, 1, 83, 65
3, 456576, Note_on_c, 1, 79, 66
3, 456956, Note_off_c, 1, 79, 65
3, 457152, Note_on_c, 1, 87, 66
3, 457340, Note_off_c, 1, 87, 65
3, 457344, Note_on_c, 1, 88, 66
3, 457532, Note_off_c, 1, 88, 65
3, 457536, Note_on_c, 1, 84, 66
3, 457724, Note_off_c, 1, 84, 65
3, 457728, Note_on_c, 1, 81, 66
3, 458108, Note_off_c, 1, 81, 65
3, 458304, Note_on_c, 1, 80, 66
3, 458492, Note_off_c, 1, 80, 65
3, 458496, Note_on_c, 1, 81, 66
3, 458684, Note_off_c, 1, 81, 65
3, 458688, Note_on_c, 1, 78, 66
3, 458876, Note_off_c, 1, 78, 65
3, 458880, Note_on_c, 1, 74, 66
3, 459068, Note_off_c, 1, 74, 65
3, 459072, Note_on_c, 1, 72, 66
3, 459260, Note_off_c, 1, 72, 65
3, 459264, Note_on_c, 1, 79, 66
3, 459264, Note_on_c, 1, 71, 66
3, 459644, Note_off_c, 1, 79, 65
3, 459644, Note_off_c, 1, 71, 65
3, 459648, Note_on_c, 1, 67, 66
3, 459836, Note_off_c, 1, 67, 65
3, 459840, Note_on_c, 1, 69, 66
3, 460028, Note_off_c, 1, 69, 65
3, 460032, Note_on_c, 1, 70, 66
3, 460220, Note_off_c, 1, 70, 65
3, 460224, Note_on_c, 1, 72, 66
3, 460412, Note_off_c, 1, 72, 65
3, 460416, Note_on_c, 1, 74, 66
3, 460416, Note_on_c, 1, 67, 66
3, 460416, Note_on_c, 1, 62, 66
3, 460988, Note_off_c, 1, 74, 65
3, 460992, Note_on_c, 1, 72, 66
3, 461180, Note_off_c, 1, 72, 65
3, 461184, Note_on_c, 1, 70, 66
3, 461564, Note_off_c, 1, 67, 65
3, 461564, Note_off_c, 1, 62, 65
3, 461564, Note_off_c, 1, 70, 65
3, 461568, Note_on_c, 1, 70, 113
3, 461568, Note_on_c, 1, 63, 113
3, 461948, Note_off_c, 1, 70, 65
3, 461952, Note_on_c, 1, 69, 113
3, 462332, Note_off_c, 1, 69, 65
3, 462336, Note_on_c, 1, 69, 113
3, 462524, Note_off_c, 1, 69, 65
3, 462716, Note_off_c, 1, 63, 65
3, 462720, Note_on_c, 1, 77, 113
3, 462720, Note_on_c, 1, 65, 113
3, 463292, Note_off_c, 1, 77, 65
3, 463296, Note_on_c, 1, 75, 113
3, 463484, Note_off_c, 1, 65, 65
3, 463484, Note_off_c, 1, 75, 65
3, 463488, Note_on_c, 1, 74, 113
3, 463868, Note_off_c, 1, 74, 65
3, 463872, Note_on_c, 1, 74, 113
3, 463872, Note_on_c, 1, 67, 113
3, 464252, Note_off_c, 1, 74, 65
3, 464256, Note_on_c, 1, 72, 113
3, 464636, Note_off_c, 1, 72, 65
3, 464640, Note_on_c, 1, 72, 113
3, 464828, Note_off_c, 1, 72, 65
3, 465020, Note_off_c, 1, 67, 65
3, 465024, Note_on_c, 1, 72, 113
3, 465024, Note_on_c, 1, 84, 113
3, 465596, Note_off_c, 1, 84, 65
3, 465600, Note_on_c, 1, 82, 113
3, 465792, Note_on_c, 1, 81, 113
3, 465884, Note_off_c, 1, 82, 65
3, 466172, Note_off_c, 1, 72, 65
3, 466172, Note_off_c, 1, 81, 65
3, 466176, Note_on_c, 1, 70, 66
3, 466176, Note_on_c, 1, 81, 66
3, 466560, Note_on_c, 1, 79, 66
3, 466624, Note_off_c, 1, 81, 65
3, 466944, Note_on_c, 1, 79, 66
3, 467004, Note_off_c, 1, 79, 65
3, 467132, Note_off_c, 1, 79, 65
3, 467324, Note_off_c, 1, 70, 65
3, 467328, Note_on_c, 1, 72, 113
3, 467328, Note_on_c, 1, 79, 113
3, 467712, Note_on_c, 1, 78, 113
3, 467900, Note_off_c, 1, 79, 65
3, 468096, Note_on_c, 1, 78, 113
3, 468284, Note_off_c, 1, 78, 65
3, 468284, Note_off_c, 1, 78, 65
3, 468476, Note_off_c, 1, 72, 65
3, 468480, Note_on_c, 1, 78, 113
3, 468480, Note_on_c, 1, 72, 113
3, 470012, Note_off_c, 1, 78, 65
3, 470012, Note_off_c, 1, 72, 65
3, 470016, Note_on_c, 1, 78, 113
3, 470016, Note_on_c, 1, 72, 113
3, 470016, Note_on_c, 1, 66, 113
3, 470396, Note_off_c, 1, 78, 65
3, 470396, Note_off_c, 1, 72, 65
3, 470396, Note_off_c, 1, 66, 65
3, 470400, Note_on_c, 1, 66, 113
3, 470400, Note_on_c, 1, 72, 113
3, 470400, Note_on_c, 1, 78, 113
3, 470780, Note_off_c, 1, 66, 65
3, 470780, Note_off_c, 1, 72, 65
3, 470780, Note_off_c, 1, 78, 65
3, 470784, Note_on_c, 1, 78, 113
3, 470784, Note_on_c, 1, 72, 113
3, 470784, Note_on_c, 1, 66, 113
3, 471932, Note_off_c, 1, 78, 65
3, 471932, Note_off_c, 1, 72, 65
3, 471932, Note_off_c, 1, 66, 65
3, 471936, Note_on_c, 1, 67, 51
3, 471936, Note_on_c, 1, 62, 51
3, 471936, Note_on_c, 1, 58, 51
3, 471936, Note_on_c, 1, 55, 51
3, 472508, Note_off_c, 1, 67, 65
3, 472508, Note_off_c, 1, 62, 65
3, 472508, Note_off_c, 1, 58, 65
3, 472508, Note_off_c, 1, 55, 65
3, 472992, Note_on_c, 1, 74, 113
3, 473084, Note_off_c, 1, 74, 65
3, 473088, Note_on_c, 1, 86, 82
3, 473468, Note_off_c, 1, 86, 65
3, 474240, Note_on_c, 1, 64, 88
3, 474428, Note_off_c, 1, 64, 65
3, 475296, Note_on_c, 1, 76, 93
3, 475388, Note_off_c, 1, 76, 65
3, 475392, Note_on_c, 1, 88, 94
3, 475580, Note_off_c, 1, 88, 65
3, 476544, Note_on_c, 1, 66, 99
3, 476732, Note_off_c, 1, 66, 65
3, 477600, Note_on_c, 1, 67, 106
3, 477692, Note_off_c, 1, 67, 65
3, 477696, Note_on_c, 1, 79, 106
3, 477884, Note_off_c, 1, 79, 65
3, 478848, Note_on_c, 1, 55, 112
3, 479228, Note_off_c, 1, 55, 65
3, 479520, Note_on_c, 1, 70, 115
3, 479612, Note_off_c, 1, 70, 65
3, 479616, Note_on_c, 1, 82, 116
3, 479804, Note_off_c, 1, 82, 65
3, 479904, Note_on_c, 1, 71, 113
3, 479996, Note_off_c, 1, 71, 65
3, 480000, Note_on_c, 1, 83, 113
3, 480380, Note_off_c, 1, 83, 65
3, 480672, Note_on_c, 1, 73, 113
3, 480764, Note_off_c, 1, 73, 65
3, 480768, Note_on_c, 1, 85, 113
3, 481148, Note_off_c, 1, 85, 65
3, 481152, Note_on_c, 1, 86, 113
3, 481152, Note_on_c, 1, 74, 113
3, 481916, Note_off_c, 1, 86, 65
3, 481916, Note_off_c, 1, 74, 65
3, 481920, Note_on_c, 1, 84, 113
3, 482108, Note_off_c, 1, 84, 65
3, 482112, Note_on_c, 1, 82, 113
3, 482300, Note_off_c, 1, 82, 65
3, 482304, Note_on_c, 1, 82, 113
3, 483068, Note_off_c, 1, 82, 65
3, 483072, Note_on_c, 1, 81, 113
3, 483260, Note_off_c, 1, 81, 65
3, 483264, Note_on_c, 1, 79, 113
3, 483452, Note_off_c, 1, 79, 65
3, 483456, Note_on_c, 1, 79, 113
3, 484220, Note_off_c, 1, 79, 65
3, 484224, Note_on_c, 1, 77, 113
3, 484412, Note_off_c, 1, 77, 65
3, 484416, Note_on_c, 1, 75, 113
3, 484604, Note_off_c, 1, 75, 65
3, 484608, Note_on_c, 1, 75, 113
3, 485372, Note_off_c, 1, 75, 65
3, 485376, Note_on_c, 1, 74, 113
3, 485564, Note_off_c, 1, 74, 65
3, 485568, Note_on_c, 1, 72, 113
3, 485756, Note_off_c, 1, 72, 65
3, 485760, Note_on_c, 1, 62, 113
3, 485760, Note_on_c, 1, 67, 113
3, 485760, Note_on_c, 1, 70, 113
3, 485948, Note_off_c, 1, 62, 65
3, 485948, Note_off_c, 1, 67, 65
3, 485948, Note_off_c, 1, 70, 65
3, 486144, Note_on_c, 1, 62, 113
3, 486144, Note_on_c, 1, 67, 113
3, 486144, Note_on_c, 1, 74, 113
3, 486332, Note_off_c, 1, 62, 65
3, 486332, Note_off_c, 1, 67, 65
3, 486332, Note_off_c, 1, 74, 65
3, 486912, Note_on_c, 1, 69, 113
3, 486912, Note_on_c, 1, 66, 113
3, 486912, Note_on_c, 1, 62, 113
3, 487100, Note_off_c, 1, 69, 65
3, 487100, Note_off_c, 1, 66, 65
3, 487100, Note_off_c, 1, 62, 65
3, 487296, Note_on_c, 1, 62, 113
3, 487296, Note_on_c, 1, 66, 113
3, 487296, Note_on_c, 1, 74, 51
3, 487484, Note_off_c, 1, 62, 65
3, 487484, Note_off_c, 1, 66, 65
3, 487484, Note_off_c, 1, 74, 65
3, 488448, Note_on_c, 1, 74, 113
3, 488448, Note_on_c, 1, 86, 113
3, 488636, Note_off_c, 1, 74, 65
3, 488636, Note_off_c, 1, 86, 65
3, 488832, Note_on_c, 1, 72, 113
3, 488832, Note_on_c, 1, 84, 113
3, 489020, Note_off_c, 1, 72, 65
3, 489020, Note_off_c, 1, 84, 65
3, 489024, Note_on_c, 1, 70, 113
3, 489024, Note_on_c, 1, 82, 113
3, 489212, Note_off_c, 1, 70, 65
3, 489212, Note_off_c, 1, 82, 65
3, 489600, Note_on_c, 1, 82, 113
3, 489600, Note_on_c, 1, 70, 113
3, 489788, Note_off_c, 1, 82, 65
3, 489788, Note_off_c, 1, 70, 65
3, 489984, Note_on_c, 1, 69, 113
3, 489984, Note_on_c, 1, 81, 113
3, 490172, Note_off_c, 1, 69, 65
3, 490172, Note_off_c, 1, 81, 65
3, 490176, Note_on_c, 1, 67, 113
3, 490176, Note_on_c, 1, 79, 113
3, 490364, Note_off_c, 1, 67, 65
3, 490364, Note_off_c, 1, 79, 65
3, 490752, Note_on_c, 1, 67, 113
3, 490752, Note_on_c, 1, 79, 113
3, 490940, Note_off_c, 1, 67, 65
3, 490940, Note_off_c, 1, 79, 65
3, 491136, Note_on_c, 1, 77, 113
3, 491136, Note_on_c, 1, 65, 113
3, 491324, Note_off_c, 1, 77, 65
3, 491324, Note_off_c, 1, 65, 65
3, 491328, Note_on_c, 1, 63, 113
3, 491328, Note_on_c, 1, 75, 113
3, 491516, Note_off_c, 1, 63, 65
3, 491516, Note_off_c, 1, 75, 65
3, 491904, Note_on_c, 1, 63, 113
3, 491904, Note_on_c, 1, 75, 113
3, 492092, Note_off_c, 1, 63, 65
3, 492092, Note_off_c, 1, 75, 65
3, 492288, Note_on_c, 1, 74, 113
3, 492288, Note_on_c, 1, 62, 113
3, 492476, Note_off_c, 1, 74, 65
3, 492476, Note_off_c, 1, 62, 65
3, 492480, Note_on_c, 1, 72, 113
3, 492480, Note_on_c, 1, 60, 113
3, 492668, Note_off_c, 1, 72, 65
3, 492668, Note_off_c, 1, 60, 65
3, 493056, Note_on_c, 1, 58, 113
3, 493056, Note_on_c, 1, 70, 113
3, 493244, Note_off_c, 1, 58, 65
3, 493244, Note_off_c, 1, 70, 65
3, 493440, Note_on_c, 1, 60, 113
3, 493440, Note_on_c, 1, 72, 113
3, 493628, Note_off_c, 1, 60, 65
3, 493628, Note_off_c, 1, 72, 65
3, 493824, Note_on_c, 1, 61, 113
3, 493824, Note_on_c, 1, 73, 113
3, 494204, Note_off_c, 1, 61, 65
3, 494204, Note_off_c, 1, 73, 65
3, 494208, Note_on_c, 1, 74, 113
3, 494208, Note_on_c, 1, 62, 113
3, 494588, Note_off_c, 1, 74, 65
3, 494588, Note_off_c, 1, 62, 65
3, 494592, Note_on_c, 1, 66, 113
3, 494592, Note_on_c, 1, 54, 113
3, 494780, Note_off_c, 1, 66, 65
3, 494780, Note_off_c, 1, 54, 65
3, 494976, Note_on_c, 1, 67, 113
3, 494976, Note_on_c, 1, 55, 113
3, 495164, Note_off_c, 1, 67, 65
3, 495164, Note_off_c, 1, 55, 65
3, 495744, Note_on_c, 1, 72, 66
3, 495744, Note_on_c, 1, 67, 66
3, 495744, Note_on_c, 1, 62, 66
3, 495744, Note_on_c, 1, 55, 66
3, 495932, Note_off_c, 1, 72, 65
3, 495936, Note_on_c, 1, 70, 66
3, 496124, Note_off_c, 1, 67, 65
3, 496124, Note_off_c, 1, 62, 65
3, 496124, Note_off_c, 1, 55, 65
3, 496124, Note_off_c, 1, 70, 65
3, 496128, Note_on_c, 1, 69, 66
3, 496128, Note_on_c, 1, 66, 66
3, 496128, Note_on_c, 1, 62, 66
3, 496128, Note_on_c, 1, 60, 66
3, 496508, Note_off_c, 1, 69, 65
3, 496512, Note_on_c, 1, 74, 66
3, 496892, Note_off_c, 1, 66, 65
3, 496892, Note_off_c, 1, 62, 65
3, 496892, Note_off_c, 1, 60, 65
3, 496892, Note_off_c, 1, 74, 65
3, 496896, Note_on_c, 1, 74, 66
3, 497084, Note_off_c, 1, 74, 65
3, 497280, Note_on_c, 1, 74, 66
3, 497280, Note_on_c, 1, 62, 66
3, 497280, Note_on_c, 1, 58, 66
3, 497660, Note_off_c, 1, 74, 65
3, 497660, Note_off_c, 1, 62, 65
3, 497660, Note_off_c, 1, 58, 65
3, 497664, Note_on_c, 1, 67, 66
3, 498044, Note_off_c, 1, 67, 65
3, 498048, Note_on_c, 1, 72, 66
3, 498048, Note_on_c, 1, 62, 66
3, 498048, Note_on_c, 1, 55, 66
3, 498236, Note_off_c, 1, 72, 65
3, 498240, Note_on_c, 1, 70, 66
3, 498428, Note_off_c, 1, 62, 65
3, 498428, Note_off_c, 1, 55, 65
3, 498428, Note_off_c, 1, 70, 65
3, 498432, Note_on_c, 1, 69, 66
3, 498432, Note_on_c, 1, 66, 66
3, 498432, Note_on_c, 1, 62, 66
3, 498432, Note_on_c, 1, 60, 66
3, 498812, Note_off_c, 1, 69, 65
3, 498816, Note_on_c, 1, 74, 66
3, 499196, Note_off_c, 1, 66, 65
3, 499196, Note_off_c, 1, 62, 65
3, 499196, Note_off_c, 1, 60, 65
3, 499196, Note_off_c, 1, 74, 65
3, 499200, Note_on_c, 1, 74, 66
3, 499388, Note_off_c, 1, 74, 65
3, 499584, Note_on_c, 1, 74, 66
3, 499584, Note_on_c, 1, 62, 66
3, 499584, Note_on_c, 1, 58, 66
3, 499964, Note_off_c, 1, 74, 65
3, 499964, Note_off_c, 1, 62, 65
3, 499964, Note_off_c, 1, 58, 65
3, 499968, Note_on_c, 1, 67, 66
3, 500348, Note_off_c, 1, 67, 65
3, 500352, Note_on_c, 1, 72, 66
3, 500352, Note_on_c, 1, 62, 66
3, 500352, Note_on_c, 1, 55, 66
3, 500540, Note_off_c, 1, 72, 65
3, 500544, Note_on_c, 1, 70, 66
3, 500732, Note_off_c, 1, 62, 65
3, 500732, Note_off_c, 1, 55, 65
3, 500732, Note_off_c, 1, 70, 65
3, 500736, Note_on_c, 1, 66, 51
3, 500736, Note_on_c, 1, 69, 51
3, 501120, Note_on_c, 1, 75, 51
3, 501308, Note_off_c, 1, 69, 65
3, 501500, Note_off_c, 1, 75, 65
3, 501504, Note_on_c, 1, 75, 51
3, 501884, Note_off_c, 1, 66, 65
3, 501884, Note_off_c, 1, 75, 65
3, 501888, Note_on_c, 1, 76, 72
3, 501888, Note_on_c, 1, 69, 66
3, 501888, Note_on_c, 1, 67, 51
3, 502656, Note_on_c, 1, 69, 51
3, 503036, Note_off_c, 1, 76, 65
3, 503036, Note_off_c, 1, 69, 65
3, 503036, Note_off_c, 1, 67, 65
3, 503036, Note_off_c, 1, 69, 65
3, 503424, Note_on_c, 1, 69, 66
3, 503424, Note_on_c, 1, 67, 66
3, 503424, Note_on_c, 1, 64, 66
3, 503424, Note_on_c, 1, 61, 66
3, 503708, Note_off_c, 1, 69, 65
3, 503708, Note_off_c, 1, 67, 65
3, 503708, Note_off_c, 1, 64, 65
3, 503708, Note_off_c, 1, 61, 65
3, 503808, Note_on_c, 1, 69, 66
3, 503808, Note_on_c, 1, 67, 66
3, 503808, Note_on_c, 1, 64, 66
3, 503808, Note_on_c, 1, 61, 66
3, 504092, Note_off_c, 1, 69, 65
3, 504092, Note_off_c, 1, 67, 65
3, 504092, Note_off_c, 1, 64, 65
3, 504092, Note_off_c, 1, 61, 65
3, 504192, Note_on_c, 1, 71, 66
3, 504192, Note_on_c, 1, 67, 66
3, 504192, Note_on_c, 1, 62, 66
3, 504572, Note_off_c, 1, 71, 65
3, 504576, Note_on_c, 1, 72, 66
3, 504956, Note_off_c, 1, 67, 65
3, 504956, Note_off_c, 1, 62, 65
3, 504956, Note_off_c, 1, 72, 65
3, 504960, Note_on_c, 1, 69, 66
3, 504960, Note_on_c, 1, 66, 66
3, 504960, Note_on_c, 1, 60, 66
3, 505148, Note_off_c, 1, 69, 65
3, 505148, Note_off_c, 1, 66, 65
3, 505340, Note_off_c, 1, 60, 65
3, 505344, Note_on_c, 1, 67, 66
3, 505344, Note_on_c, 1, 59, 66
3, 505724, Note_off_c, 1, 67, 65
3, 505724, Note_off_c, 1, 59, 65
3, 506496, Note_on_c, 1, 62, 51
3, 506684, Note_off_c, 1, 62, 65
3, 506688, Note_on_c, 1, 66, 51
3, 506876, Note_off_c, 1, 66, 65
3, 506880, Note_on_c, 1, 69, 51
3, 507068, Note_off_c, 1, 69, 65
3, 507072, Note_on_c, 1, 74, 51
3, 507260, Note_off_c, 1, 74, 65
3, 507264, Note_on_c, 1, 78, 51
3, 507452, Note_off_c, 1, 78, 65
3, 507456, Note_on_c, 1, 74, 51
3, 507644, Note_off_c, 1, 74, 65
3, 507648, Note_on_c, 1, 79, 51
3, 507836, Note_off_c, 1, 79, 65
3, 507840, Note_on_c, 1, 74, 51
3, 508028, Note_off_c, 1, 74, 65
3, 508032, Note_on_c, 1, 70, 51
3, 508220, Note_off_c, 1, 70, 65
3, 508224, Note_on_c, 1, 67, 51
3, 508412, Note_off_c, 1, 67, 65
3, 508416, Note_on_c, 1, 70, 51
3, 508604, Note_off_c, 1, 70, 65
3, 508608, Note_on_c, 1, 67, 51
3, 508796, Note_off_c, 1, 67, 65
3, 508800, Note_on_c, 1, 62, 51
3, 508988, Note_off_c, 1, 62, 65
3, 508992, Note_on_c, 1, 66, 51
3, 509180, Note_off_c, 1, 66, 65
3, 509184, Note_on_c, 1, 69, 51
3, 509372, Note_off_c, 1, 69, 65
3, 509376, Note_on_c, 1, 74, 51
3, 509564, Note_off_c, 1, 74, 65
3, 509568, Note_on_c, 1, 78, 51
3, 509756, Note_off_c, 1, 78, 65
3, 509760, Note_on_c, 1, 74, 51
3, 509948, Note_off_c, 1, 74, 65
3, 509952, Note_on_c, 1, 79, 51
3, 510140, Note_off_c, 1, 79, 65
3, 510144, Note_on_c, 1, 74, 51
3, 510332, Note_off_c, 1, 74, 65
3, 510336, Note_on_c, 1, 70, 51
3, 510524, Note_off_c, 1, 70, 65
3, 510528, Note_on_c, 1, 67, 51
3, 510716, Note_off_c, 1, 67, 65
3, 510720, Note_on_c, 1, 70, 51
3, 510908, Note_off_c, 1, 70, 65
3, 510912, Note_on_c, 1, 67, 51
3, 511100, Note_off_c, 1, 67, 65
3, 511104, Note_on_c, 1, 63, 51
3, 511292, Note_off_c, 1, 63, 65
3, 511296, Note_on_c, 1, 67, 51
3, 511484, Note_off_c, 1, 67, 65
3, 511488, Note_on_c, 1, 70, 51
3, 511676, Note_off_c, 1, 70, 65
3, 511680, Note_on_c, 1, 75, 51
3, 511868, Note_off_c, 1, 75, 65
3, 511872, Note_on_c, 1, 79, 51
3, 512060, Note_off_c, 1, 79, 65
3, 512064, Note_on_c, 1, 75, 51
3, 512252, Note_off_c, 1, 75, 65
3, 512256, Note_on_c, 1, 80, 51
3, 512444, Note_off_c, 1, 80, 65
3, 512448, Note_on_c, 1, 75, 51
3, 512636, Note_off_c, 1, 75, 65
3, 512640, Note_on_c, 1, 72, 51
3, 512828, Note_off_c, 1, 72, 65
3, 512832, Note_on_c, 1, 68, 51
3, 513020, Note_off_c, 1, 68, 65
3, 513024, Note_on_c, 1, 72, 51
3, 513212, Note_off_c, 1, 72, 65
3, 513216, Note_on_c, 1, 68, 51
3, 513404, Note_off_c, 1, 68, 65
3, 513408, Note_on_c, 1, 63, 51
3, 513596, Note_off_c, 1, 63, 65
3, 513600, Note_on_c, 1, 67, 51
3, 513788, Note_off_c, 1, 67, 65
3, 513792, Note_on_c, 1, 70, 51
3, 513980, Note_off_c, 1, 70, 65
3, 513984, Note_on_c, 1, 75, 51
3, 514172, Note_off_c, 1, 75, 65
3, 514176, Note_on_c, 1, 79, 51
3, 514364, Note_off_c, 1, 79, 65
3, 514368, Note_on_c, 1, 75, 51
3, 514556, Note_off_c, 1, 75, 65
3, 514560, Note_on_c, 1, 80, 66
3, 514940, Note_off_c, 1, 80, 65
3, 514944, Note_on_c, 1, 73, 72
3, 515072, Note_on_c, 1, 72, 73
3, 515076, Note_off_c, 1, 73, 65
3, 515204, Note_off_c, 1, 72, 65
3, 515204, Note_on_c, 1, 70, 75
3, 515328, Note_on_c, 1, 75, 77
3, 515332, Note_off_c, 1, 70, 65
3, 515456, Note_on_c, 1, 73, 78
3, 515460, Note_off_c, 1, 75, 65
3, 515588, Note_off_c, 1, 73, 65
3, 515588, Note_on_c, 1, 72, 80
3, 515712, Note_on_c, 1, 77, 82
3, 515712, Note_on_c, 1, 61, 82
3, 515712, Note_on_c, 1, 65, 82
3, 515716, Note_off_c, 1, 72, 65
3, 515840, Note_on_c, 1, 75, 83
3, 515844, Note_off_c, 1, 77, 65
3, 515972, Note_off_c, 1, 75, 65
3, 515972, Note_on_c, 1, 73, 85
3, 516092, Note_off_c, 1, 61, 65
3, 516092, Note_off_c, 1, 65, 65
3, 516096, Note_on_c, 1, 79, 87
3, 516096, Note_on_c, 1, 67, 87
3, 516096, Note_on_c, 1, 63, 87
3, 516100, Note_off_c, 1, 73, 65
3, 516224, Note_on_c, 1, 77, 88
3, 516228, Note_off_c, 1, 79, 65
3, 516356, Note_off_c, 1, 77, 65
3, 516356, Note_on_c, 1, 75, 90
3, 516476, Note_off_c, 1, 67, 65
3, 516476, Note_off_c, 1, 63, 65
3, 516480, Note_on_c, 1, 80, 92
3, 516480, Note_on_c, 1, 68, 92
3, 516480, Note_on_c, 1, 65, 92
3, 516484, Note_off_c, 1, 75, 65
3, 516608, Note_on_c, 1, 79, 93
3, 516612, Note_off_c, 1, 80, 65
3, 516740, Note_off_c, 1, 79, 65
3, 516740, Note_on_c, 1, 77, 95
3, 516860, Note_off_c, 1, 68, 65
3, 516860, Note_off_c, 1, 65, 65
3, 516864, Note_on_c, 1, 82, 97
3, 516864, Note_on_c, 1, 67, 97
3, 516864, Note_on_c, 1, 70, 97
3, 516868, Note_off_c, 1, 77, 65
3, 516992, Note_on_c, 1, 80, 98
3, 516996, Note_off_c, 1, 82, 65
3, 517124, Note_off_c, 1, 80, 65
3, 517124, Note_on_c, 1, 79, 100
3, 517244, Note_off_c, 1, 67, 65
3, 517244, Note_off_c, 1, 70, 65
3, 517248, Note_on_c, 1, 84, 103
3, 517248, Note_on_c, 1, 72, 103
3, 517248, Note_on_c, 1, 68, 103
3, 517252, Note_off_c, 1, 79, 65
3, 517376, Note_on_c, 1, 82, 104
3, 517380, Note_off_c, 1, 84, 65
3, 517508, Note_off_c, 1, 82, 65
3, 517508, Note_on_c, 1, 80, 106
3, 517628, Note_off_c, 1, 72, 65
3, 517628, Note_off_c, 1, 68, 65
3, 517632, Note_on_c, 1, 85, 108
3, 517632, Note_on_c, 1, 70, 108
3, 517632, Note_on_c, 1, 73, 108
3, 517636, Note_off_c, 1, 80, 65
3, 517760, Note_on_c, 1, 84, 109
3, 517764, Note_off_c, 1, 85, 65
3, 517892, Note_off_c, 1, 84, 65
3, 517892, Note_on_c, 1, 82, 111
3, 518012, Note_off_c, 1, 70, 65
3, 518012, Note_off_c, 1, 73, 65
3, 518016, Note_on_c, 1, 87, 118
3, 518020, Note_off_c, 1, 82, 65
3, 518144, Note_on_c, 1, 85, 118
3, 518148, Note_off_c, 1, 87, 65
3, 518276, Note_off_c, 1, 85, 65
3, 518276, Note_on_c, 1, 84, 118
3, 518400, Note_on_c, 1, 85, 118
3, 518404, Note_off_c, 1, 84, 65
3, 518528, Note_on_c, 1, 84, 118
3, 518532, Note_off_c, 1, 85, 65
3, 518660, Note_off_c, 1, 84, 65
3, 518660, Note_on_c, 1, 82, 118
3, 518784, Note_on_c, 1, 84, 118
3, 518788, Note_off_c, 1, 82, 65
3, 518912, Note_on_c, 1, 82, 118
3, 518916, Note_off_c, 1, 84, 65
3, 519040, Note_on_c, 1, 80, 118
3, 519044, Note_off_c, 1, 82, 65
3, 519164, Note_off_c, 1, 80, 65
3, 519168, Note_on_c, 1, 82, 118
3, 519296, Note_on_c, 1, 80, 118
3, 519300, Note_off_c, 1, 82, 65
3, 519428, Note_off_c, 1, 80, 65
3, 519428, Note_on_c, 1, 79, 118
3, 519552, Note_on_c, 1, 80, 118
3, 519556, Note_off_c, 1, 79, 65
3, 519680, Note_on_c, 1, 79, 118
3, 519684, Note_off_c, 1, 80, 65
3, 519812, Note_off_c, 1, 79, 65
3, 519812, Note_on_c, 1, 77, 118
3, 519936, Note_on_c, 1, 79, 118
3, 519940, Note_off_c, 1, 77, 65
3, 520064, Note_on_c, 1, 77, 118
3, 520068, Note_off_c, 1, 79, 65
3, 520192, Note_on_c, 1, 75, 118
3, 520196, Note_off_c, 1, 77, 65
3, 520316, Note_off_c, 1, 75, 65
3, 520320, Note_on_c, 1, 77, 118
3, 520448, Note_on_c, 1, 75, 118
3, 520452, Note_off_c, 1, 77, 65
3, 520580, Note_off_c, 1, 75, 65
3, 520580, Note_on_c, 1, 74, 118
3, 520704, Note_on_c, 1, 75, 118
3, 520708, Note_off_c, 1, 74, 65
3, 520832, Note_on_c, 1, 74, 118
3, 520836, Note_off_c, 1, 75, 65
3, 520964, Note_off_c, 1, 74, 65
3, 520964, Note_on_c, 1, 72, 118
3, 521088, Note_on_c, 1, 74, 118
3, 521092, Note_off_c, 1, 72, 65
3, 521216, Note_on_c, 1, 72, 118
3, 521220, Note_off_c, 1, 74, 65
3, 521344, Note_on_c, 1, 70, 118
3, 521348, Note_off_c, 1, 72, 65
3, 521468, Note_off_c, 1, 70, 65
3, 521472, Note_on_c, 1, 72, 103
3, 521600, Note_on_c, 1, 70, 99
3, 521604, Note_off_c, 1, 72, 65
3, 521728, Note_on_c, 1, 68, 96
3, 521732, Note_off_c, 1, 70, 65
3, 521852, Note_off_c, 1, 68, 65
3, 521856, Note_on_c, 1, 75, 92
3, 521984, Note_on_c, 1, 73, 89
3, 521988, Note_off_c, 1, 75, 65
3, 522112, Note_on_c, 1, 72, 86
3, 522116, Note_off_c, 1, 73, 65
3, 522236, Note_off_c, 1, 72, 65
3, 522240, Note_on_c, 1, 75, 82
3, 522368, Note_on_c, 1, 73, 79
3, 522372, Note_off_c, 1, 75, 65
3, 522496, Note_on_c, 1, 72, 76
3, 522500, Note_off_c, 1, 73, 65
3, 522620, Note_off_c, 1, 72, 65
3, 522624, Note_on_c, 1, 75, 72
3, 522752, Note_on_c, 1, 73, 72
3, 522756, Note_off_c, 1, 75, 65
3, 522880, Note_on_c, 1, 72, 73
3, 522884, Note_off_c, 1, 73, 65
3, 523004, Note_off_c, 1, 72, 65
3, 523008, Note_on_c, 1, 75, 73
3, 523136, Note_on_c, 1, 73, 74
3, 523140, Note_off_c, 1, 75, 65
3, 523264, Note_on_c, 1, 72, 75
3, 523268, Note_off_c, 1, 73, 65
3, 523388, Note_off_c, 1, 72, 65
3, 523392, Note_on_c, 1, 75, 75
3, 523520, Note_on_c, 1, 73, 76
3, 523524, Note_off_c, 1, 75, 65
3, 523648, Note_on_c, 1, 72, 76
3, 523652, Note_off_c, 1, 73, 65
3, 523772, Note_off_c, 1, 72, 65
3, 523776, Note_on_c, 1, 75, 77
3, 523904, Note_on_c, 1, 74, 78
3, 523908, Note_off_c, 1, 75, 65
3, 524032, Note_on_c, 1, 72, 78
3, 524036, Note_off_c, 1, 74, 65
3, 524156, Note_off_c, 1, 72, 65
3, 524160, Note_on_c, 1, 75, 79
3, 524288, Note_on_c, 1, 74, 80
3, 524292, Note_off_c, 1, 75, 65
3, 524416, Note_on_c, 1, 72, 80
3, 524420, Note_off_c, 1, 74, 65
3, 524540, Note_off_c, 1, 72, 65
3, 524544, Note_on_c, 1, 75, 81
3, 524672, Note_on_c, 1, 74, 81
3, 524676, Note_off_c, 1, 75, 65
3, 524800, Note_on_c, 1, 72, 82
3, 524804, Note_off_c, 1, 74, 65
3, 524924, Note_off_c, 1, 72, 65
3, 524928, Note_on_c, 1, 75, 83
3, 525056, Note_on_c, 1, 74, 83
3, 525060, Note_off_c, 1, 75, 65
3, 525184, Note_on_c, 1, 72, 84
3, 525188, Note_off_c, 1, 74, 65
3, 525308, Note_off_c, 1, 72, 65
3, 525312, Note_on_c, 1, 75, 84
3, 525440, Note_on_c, 1, 74, 85
3, 525444, Note_off_c, 1, 75, 65
3, 525568, Note_on_c, 1, 72, 86
3, 525572, Note_off_c, 1, 74, 65
3, 525692, Note_off_c, 1, 72, 65
3, 525696, Note_on_c, 1, 75, 86
3, 525824, Note_on_c, 1, 74, 87
3, 525828, Note_off_c, 1, 75, 65
3, 525952, Note_on_c, 1, 72, 88
3, 525956, Note_off_c, 1, 74, 65
3, 526076, Note_off_c, 1, 72, 65
3, 526080, Note_on_c, 1, 75, 88
3, 526208, Note_on_c, 1, 74, 89
3, 526212, Note_off_c, 1, 75, 65
3, 526336, Note_on_c, 1, 72, 89
3, 526340, Note_off_c, 1, 74, 65
3, 526460, Note_off_c, 1, 72, 65
3, 526464, Note_on_c, 1, 75, 90
3, 526592, Note_on_c, 1, 74, 91
3, 526596, Note_off_c, 1, 75, 65
3, 526720, Note_on_c, 1, 72, 91
3, 526724, Note_off_c, 1, 74, 65
3, 526844, Note_off_c, 1, 72, 65
3, 526848, Note_on_c, 1, 75, 92
3, 526976, Note_on_c, 1, 74, 92
3, 526980, Note_off_c, 1, 75, 65
3, 527104, Note_on_c, 1, 72, 93
3, 527108, Note_off_c, 1, 74, 65
3, 527228, Note_off_c, 1, 72, 65
3, 527232, Note_on_c, 1, 75, 94
3, 527360, Note_on_c, 1, 74, 94
3, 527364, Note_off_c, 1, 75, 65
3, 527488, Note_on_c, 1, 72, 95
3, 527492, Note_off_c, 1, 74, 65
3, 527612, Note_off_c, 1, 72, 65
3, 527616, Note_on_c, 1, 75, 96
3, 527744, Note_on_c, 1, 74, 96
3, 527748, Note_off_c, 1, 75, 65
3, 527872, Note_on_c, 1, 72, 97
3, 527876, Note_off_c, 1, 74, 65
3, 527996, Note_off_c, 1, 72, 65
3, 528000, Note_on_c, 1, 74, 97
3, 528128, Note_on_c, 1, 72, 98
3, 528132, Note_off_c, 1, 74, 65
3, 528256, Note_on_c, 1, 70, 99
3, 528260, Note_off_c, 1, 72, 65
3, 528380, Note_off_c, 1, 70, 65
3, 528768, Note_on_c, 1, 72, 101
3, 528896, Note_on_c, 1, 70, 103
3, 528900, Note_off_c, 1, 72, 65
3, 529024, Note_on_c, 1, 69, 103
3, 529028, Note_off_c, 1, 70, 65
3, 529148, Note_off_c, 1, 69, 65
3, 529152, Note_on_c, 1, 72, 104
3, 529280, Note_on_c, 1, 70, 105
3, 529284, Note_off_c, 1, 72, 65
3, 529408, Note_on_c, 1, 69, 105
3, 529412, Note_off_c, 1, 70, 65
3, 529532, Note_off_c, 1, 69, 65
3, 529920, Note_on_c, 1, 69, 108
3, 530048, Note_on_c, 1, 67, 108
3, 530052, Note_off_c, 1, 69, 65
3, 530176, Note_on_c, 1, 66, 109
3, 530180, Note_off_c, 1, 67, 65
3, 530300, Note_off_c, 1, 66, 65
3, 530304, Note_on_c, 1, 69, 110
3, 530432, Note_on_c, 1, 67, 110
3, 530436, Note_off_c, 1, 69, 65
3, 530560, Note_on_c, 1, 66, 111
3, 530564, Note_off_c, 1, 67, 65
3, 530684, Note_off_c, 1, 66, 65
3, 530816, Note_on_c, 1, 67, 110
3, 530944, Note_on_c, 1, 66, 111
3, 530948, Note_off_c, 1, 67, 65
3, 531068, Note_off_c, 1, 66, 65
3, 531072, Note_on_c, 1, 67, 110
3, 531200, Note_on_c, 1, 69, 110
3, 531204, Note_off_c, 1, 67, 65
3, 531328, Note_on_c, 1, 70, 111
3, 531332, Note_off_c, 1, 69, 65
3, 531452, Note_off_c, 1, 70, 65
3, 531456, Note_on_c, 1, 72, 110
3, 531584, Note_on_c, 1, 74, 110
3, 531588, Note_off_c, 1, 72, 65
3, 531712, Note_on_c, 1, 76, 111
3, 531716, Note_off_c, 1, 74, 65
3, 531836, Note_off_c, 1, 76, 65
3, 531840, Note_on_c, 1, 78, 110
3, 531968, Note_on_c, 1, 79, 110
3, 531972, Note_off_c, 1, 78, 65
3, 532096, Note_on_c, 1, 81, 111
3, 532100, Note_off_c, 1, 79, 65
3, 532220, Note_off_c, 1, 81, 65
3, 532224, Note_on_c, 1, 82, 110
3, 532352, Note_on_c, 1, 81, 110
3, 532356, Note_off_c, 1, 82, 65
3, 532480, Note_on_c, 1, 79, 111
3, 532480, Note_on_c, 1, 79, 111
3, 532484, Note_off_c, 1, 81, 65
3, 532604, Note_off_c, 1, 79, 65
3, 532604, Note_off_c, 1, 79, 65
3, 532608, Note_on_c, 1, 86, 110
3, 532608, Note_on_c, 1, 86, 110
3, 532736, Note_on_c, 1, 84, 110
3, 532736, Note_on_c, 1, 84, 110
3, 532740, Note_off_c, 1, 86, 65
3, 532740, Note_off_c, 1, 86, 65
3, 532864, Note_on_c, 1, 82, 111
3, 532864, Note_on_c, 1, 82, 111
3, 532868, Note_off_c, 1, 84, 65
3, 532868, Note_off_c, 1, 84, 65
3, 532988, Note_off_c, 1, 82, 65
3, 532988, Note_off_c, 1, 82, 65
3, 532992, Note_on_c, 1, 87, 110
3, 533120, Note_on_c, 1, 86, 110
3, 533124, Note_off_c, 1, 87, 65
3, 533248, Note_on_c, 1, 84, 111
3, 533252, Note_off_c, 1, 86, 65
3, 533372, Note_off_c, 1, 84, 65
3, 533376, Note_on_c, 1, 87, 110
3, 533504, Note_on_c, 1, 86, 110
3, 533508, Note_off_c, 1, 87, 65
3, 533632, Note_on_c, 1, 84, 111
3, 533636, Note_off_c, 1, 86, 65
3, 533756, Note_off_c, 1, 84, 65
3, 533760, Note_on_c, 1, 87, 110
3, 533888, Note_on_c, 1, 86, 110
3, 533892, Note_off_c, 1, 87, 65
3, 534016, Note_on_c, 1, 84, 111
3, 534020, Note_off_c, 1, 86, 65
3, 534140, Note_off_c, 1, 84, 65
3, 534144, Note_on_c, 1, 87, 110
3, 534272, Note_on_c, 1, 86, 110
3, 534276, Note_off_c, 1, 87, 65
3, 534400, Note_on_c, 1, 84, 111
3, 534404, Note_off_c, 1, 86, 65
3, 534524, Note_off_c, 1, 84, 65
3, 534528, Note_on_c, 1, 87, 110
3, 534656, Note_on_c, 1, 86, 110
3, 534660, Note_off_c, 1, 87, 65
3, 534784, Note_on_c, 1, 84, 111
3, 534788, Note_off_c, 1, 86, 65
3, 534908, Note_off_c, 1, 84, 65
3, 534912, Note_on_c, 1, 87, 110
3, 535040, Note_on_c, 1, 86, 110
3, 535044, Note_off_c, 1, 87, 65
3, 535168, Note_on_c, 1, 84, 111
3, 535172, Note_off_c, 1, 86, 65
3, 535292, Note_off_c, 1, 84, 65
3, 535296, Note_on_c, 1, 87, 110
3, 535424, Note_on_c, 1, 86, 110
3, 535428, Note_off_c, 1, 87, 65
3, 535552, Note_on_c, 1, 84, 111
3, 535556, Note_off_c, 1, 86, 65
3, 535676, Note_off_c, 1, 84, 65
3, 535680, Note_on_c, 1, 87, 110
3, 535808, Note_on_c, 1, 86, 110
3, 535812, Note_off_c, 1, 87, 65
3, 535936, Note_on_c, 1, 84, 111
3, 535940, Note_off_c, 1, 86, 65
3, 536060, Note_off_c, 1, 84, 65
3, 536064, Note_on_c, 1, 87, 110
3, 536192, Note_on_c, 1, 86, 110
3, 536196, Note_off_c, 1, 87, 65
3, 536320, Note_on_c, 1, 84, 111
3, 536324, Note_off_c, 1, 86, 65
3, 536444, Note_off_c, 1, 84, 65
3, 536448, Note_on_c, 1, 87, 110
3, 536576, Note_on_c, 1, 86, 110
3, 536580, Note_off_c, 1, 87, 65
3, 536704, Note_on_c, 1, 84, 111
3, 536708, Note_off_c, 1, 86, 65
3, 536828, Note_off_c, 1, 84, 65
3, 536832, Note_on_c, 1, 87, 110
3, 536960, Note_on_c, 1, 86, 110
3, 536964, Note_off_c, 1, 87, 65
3, 537088, Note_on_c, 1, 84, 111
3, 537092, Note_off_c, 1, 86, 65
3, 537212, Note_off_c, 1, 84, 65
3, 537216, Note_on_c, 1, 87, 110
3, 537344, Note_on_c, 1, 86, 110
3, 537348, Note_off_c, 1, 87, 65
3, 537472, Note_on_c, 1, 84, 111
3, 537476, Note_off_c, 1, 86, 65
3, 537596, Note_off_c, 1, 84, 65
3, 537600, Note_on_c, 1, 87, 110
3, 537728, Note_on_c, 1, 86, 110
3, 537732, Note_off_c, 1, 87, 65
3, 537856, Note_on_c, 1, 84, 111
3, 537860, Note_off_c, 1, 86, 65
3, 537980, Note_off_c, 1, 84, 65
3, 537984, Note_on_c, 1, 87, 110
3, 538112, Note_on_c, 1, 86, 110
3, 538116, Note_off_c, 1, 87, 65
3, 538240, Note_on_c, 1, 84, 111
3, 538244, Note_off_c, 1, 86, 65
3, 538364, Note_off_c, 1, 84, 65
3, 538368, Note_on_c, 1, 87, 110
3, 538496, Note_on_c, 1, 86, 110
3, 538500, Note_off_c, 1, 87, 65
3, 538624, Note_on_c, 1, 84, 111
3, 538628, Note_off_c, 1, 86, 65
3, 538748, Note_off_c, 1, 84, 65
3, 538752, Note_on_c, 1, 87, 110
3, 538880, Note_on_c, 1, 86, 110
3, 538884, Note_off_c, 1, 87, 65
3, 539008, Note_on_c, 1, 84, 111
3, 539012, Note_off_c, 1, 86, 65
3, 539132, Note_off_c, 1, 84, 65
3, 539136, Note_on_c, 1, 87, 110
3, 539264, Note_on_c, 1, 86, 110
3, 539268, Note_off_c, 1, 87, 65
3, 539392, Note_on_c, 1, 84, 111
3, 539396, Note_off_c, 1, 86, 65
3, 539516, Note_off_c, 1, 84, 65
3, 539520, Note_on_c, 1, 87, 110
3, 539648, Note_on_c, 1, 86, 110
3, 539652, Note_off_c, 1, 87, 65
3, 539776, Note_on_c, 1, 84, 111
3, 539780, Note_off_c, 1, 86, 65
3, 539900, Note_off_c, 1, 84, 65
3, 540288, Note_on_c, 1, 84, 110
3, 540416, Note_on_c, 1, 82, 110
3, 540420, Note_off_c, 1, 84, 65
3, 540544, Note_on_c, 1, 81, 111
3, 540548, Note_off_c, 1, 82, 65
3, 540668, Note_off_c, 1, 81, 65
3, 540672, Note_on_c, 1, 84, 110
3, 540800, Note_on_c, 1, 82, 110
3, 540804, Note_off_c, 1, 84, 65
3, 540928, Note_on_c, 1, 81, 111
3, 540932, Note_off_c, 1, 82, 65
3, 541052, Note_off_c, 1, 81, 65
3, 541440, Note_on_c, 1, 81, 110
3, 541568, Note_on_c, 1, 79, 110
3, 541572, Note_off_c, 1, 81, 65
3, 541696, Note_on_c, 1, 78, 111
3, 541700, Note_off_c, 1, 79, 65
3, 541820, Note_off_c, 1, 78, 65
3, 541824, Note_on_c, 1, 81, 110
3, 541952, Note_on_c, 1, 79, 110
3, 541956, Note_off_c, 1, 81, 65
3, 542080, Note_on_c, 1, 78, 111
3, 542084, Note_off_c, 1, 79, 65
3, 542204, Note_off_c, 1, 78, 65
3, 542208, Note_on_c, 1, 79, 103
3, 542208, Note_on_c, 1, 67, 103
3, 542464, Note_off_c, 1, 79, 65
3, 542464, Note_off_c, 1, 67, 65
3, 542976, Note_on_c, 1, 67, 72
3, 543164, Note_off_c, 1, 67, 65
3, 543168, Note_on_c, 1, 69, 72
3, 543356, Note_off_c, 1, 69, 65
3, 543360, Note_on_c, 1, 70, 72
3, 543548, Note_off_c, 1, 70, 65
3, 543744, Note_on_c, 1, 72, 72
3, 543932, Note_off_c, 1, 72, 65
3, 544128, Note_on_c, 1, 74, 72
3, 544316, Note_off_c, 1, 74, 65
3, 544512, Note_on_c, 1, 76, 72
3, 544640, Note_off_c, 1, 76, 65
3, 544896, Note_on_c, 1, 78, 72
3, 545024, Note_off_c, 1, 78, 65
3, 545280, Note_on_c, 1, 79, 72
3, 545408, Note_off_c, 1, 79, 65
3, 545664, Note_on_c, 1, 81, 72
3, 545792, Note_off_c, 1, 81, 65
3, 546048, Note_on_c, 1, 82, 72
3, 546176, Note_off_c, 1, 82, 65
3, 546432, Note_on_c, 1, 84, 72
3, 546560, Note_off_c, 1, 84, 65
3, 546816, Note_on_c, 1, 86, 72
3, 546816, Note_on_c, 1, 74, 72
3, 547584, Note_off_c, 1, 86, 65
3, 547584, Note_off_c, 1, 74, 65
3, 547968, Note_on_c, 1, 77, 82
3, 547968, Note_on_c, 1, 89, 82
3, 548736, Note_off_c, 1, 77, 65
3, 548736, Note_off_c, 1, 89, 65
3, 549120, Note_on_c, 1, 76, 92
3, 549120, Note_on_c, 1, 88, 92
3, 549888, Note_off_c, 1, 76, 65
3, 549888, Note_off_c, 1, 88, 65
3, 550272, Note_on_c, 1, 75, 103
3, 550272, Note_on_c, 1, 87, 103
3, 551040, Note_off_c, 1, 75, 65
3, 551040, Note_off_c, 1, 87, 65
3, 551424, Note_on_c, 1, 74, 113
3, 551424, Note_on_c, 1, 86, 113
3, 551808, Note_off_c, 1, 74, 65
3, 551808, Note_off_c, 1, 86, 65
3, 552192, Note_on_c, 1, 67, 119
3, 552380, Note_off_c, 1, 67, 65
3, 552384, Note_on_c, 1, 69, 121
3, 552572, Note_off_c, 1, 69, 65
3, 552768, Note_on_c, 1, 70, 127
3, 552768, Note_on_c, 1, 58, 127
3, 552896, Note_off_c, 1, 70, 65
3, 552896, Note_off_c, 1, 58, 65
3, 553152, Note_on_c, 1, 60, 127
3, 553152, Note_on_c, 1, 72, 127
3, 553280, Note_off_c, 1, 60, 65
3, 553280, Note_off_c, 1, 72, 65
3, 553536, Note_on_c, 1, 62, 127
3, 553536, Note_on_c, 1, 74, 127
3, 553664, Note_off_c, 1, 62, 65
3, 553664, Note_off_c, 1, 74, 65
3, 553920, Note_on_c, 1, 64, 127
3, 553920, Note_on_c, 1, 76, 127
3, 554048, Note_off_c, 1, 64, 65
3, 554048, Note_off_c, 1, 76, 65
3, 554304, Note_on_c, 1, 66, 127
3, 554304, Note_on_c, 1, 78, 127
3, 554432, Note_off_c, 1, 66, 65
3, 554432, Note_off_c, 1, 78, 65
3, 554688, Note_on_c, 1, 67, 127
3, 554688, Note_on_c, 1, 79, 127
3, 554816, Note_off_c, 1, 67, 65
3, 554816, Note_off_c, 1, 79, 65
3, 555072, Note_on_c, 1, 69, 127
3, 555072, Note_on_c, 1, 81, 127
3, 555200, Note_off_c, 1, 69, 65
3, 555200, Note_off_c, 1, 81, 65
3, 555456, Note_on_c, 1, 70, 127
3, 555456, Note_on_c, 1, 82, 127
3, 555584, Note_off_c, 1, 70, 65
3, 555584, Note_off_c, 1, 82, 65
3, 555840, Note_on_c, 1, 84, 127
3, 555840, Note_on_c, 1, 72, 127
3, 555968, Note_off_c, 1, 84, 65
3, 555968, Note_off_c, 1, 72, 65
3, 556224, Note_on_c, 1, 74, 127
3, 556224, Note_on_c, 1, 86, 127
3, 556352, Note_off_c, 1, 74, 65
3, 556352, Note_off_c, 1, 86, 65
3, 556608, Note_on_c, 1, 75, 127
3, 556608, Note_on_c, 1, 87, 127
3, 556736, Note_off_c, 1, 75, 65
3, 556736, Note_off_c, 1, 87, 65
3, 556992, Note_on_c, 1, 73, 127
3, 556992, Note_on_c, 1, 85, 127
3, 557120, Note_off_c, 1, 73, 65
3, 557120, Note_off_c, 1, 85, 65
3, 557376, Note_on_c, 1, 74, 127
3, 557376, Note_on_c, 1, 86, 127
3, 557504, Note_off_c, 1, 74, 65
3, 557504, Note_off_c, 1, 86, 65
3, 557760, Note_on_c, 1, 71, 127
3, 557760, Note_on_c, 1, 83, 127
3, 557888, Note_off_c, 1, 71, 65
3, 557888, Note_off_c, 1, 83, 65
3, 558144, Note_on_c, 1, 72, 127
3, 558144, Note_on_c, 1, 84, 127
3, 558272, Note_off_c, 1, 72, 65
3, 558272, Note_off_c, 1, 84, 65
3, 558528, Note_on_c, 1, 69, 127
3, 558528, Note_on_c, 1, 81, 127
3, 558656, Note_off_c, 1, 69, 65
3, 558656, Note_off_c, 1, 81, 65
3, 558912, Note_on_c, 1, 82, 127
3, 558912, Note_on_c, 1, 70, 127
3, 559040, Note_off_c, 1, 82, 65
3, 559040, Note_off_c, 1, 70, 65
3, 559296, Note_on_c, 1, 67, 127
3, 559296, Note_on_c, 1, 79, 127
3, 559424, Note_off_c, 1, 67, 65
3, 559424, Note_off_c, 1, 79, 65
3, 559488, Note_on_c, 1, 86, 127
3, 559488, Note_on_c, 1, 74, 127
3, 559744, Note_off_c, 1, 86, 65
3, 559744, Note_off_c, 1, 74, 65
3, 560256, Note_on_c, 1, 74, 127
3, 560256, Note_on_c, 1, 62, 127
3, 560512, Note_off_c, 1, 74, 65
3, 560512, Note_off_c, 1, 62, 65
3, 560640, Note_on_c, 1, 79, 127
3, 560640, Note_on_c, 1, 67, 127
3, 560896, Note_off_c, 1, 79, 65
3, 560896, Note_off_c, 1, 67, 65
3, 561024, Note_on_c, 1, 86, 127
3, 561152, Note_on_c, 1, 82, 127
3, 561156, Note_off_c, 1, 86, 65
3, 561284, Note_off_c, 1, 82, 65
3, 561284, Note_on_c, 1, 79, 127
3, 561408, Note_off_c, 1, 79, 65
3, 561408, Note_on_c, 1, 82, 127
3, 561536, Note_on_c, 1, 79, 127
3, 561540, Note_off_c, 1, 82, 65
3, 561668, Note_off_c, 1, 79, 65
3, 561668, Note_on_c, 1, 74, 127
3, 561792, Note_off_c, 1, 74, 65
3, 561792, Note_on_c, 1, 84, 113
3, 561920, Note_on_c, 1, 81, 113
3, 561924, Note_off_c, 1, 84, 65
3, 562052, Note_off_c, 1, 81, 65
3, 562052, Note_on_c, 1, 78, 113
3, 562176, Note_off_c, 1, 78, 65
3, 562176, Note_on_c, 1, 81, 113
3, 562304, Note_on_c, 1, 78, 113
3, 562308, Note_off_c, 1, 81, 65
3, 562436, Note_off_c, 1, 78, 65
3, 562436, Note_on_c, 1, 74, 113
3, 562560, Note_off_c, 1, 74, 65
3, 562560, Note_on_c, 1, 78, 113
3, 562688, Note_on_c, 1, 74, 113
3, 562692, Note_off_c, 1, 78, 65
3, 562820, Note_off_c, 1, 74, 65
3, 562820, Note_on_c, 1, 72, 113
3, 562944, Note_off_c, 1, 72, 65
3, 562944, Note_on_c, 1, 79, 113
3, 563072, Note_on_c, 1, 74, 113
3, 563076, Note_off_c, 1, 79, 65
3, 563204, Note_off_c, 1, 74, 65
3, 563204, Note_on_c, 1, 70, 113
3, 563328, Note_off_c, 1, 70, 65
3, 563328, Note_on_c, 1, 74, 113
3, 563456, Note_on_c, 1, 70, 113
3, 563460, Note_off_c, 1, 74, 65
3, 563588, Note_off_c, 1, 70, 65
3, 563588, Note_on_c, 1, 67, 113
3, 563712, Note_off_c, 1, 67, 65
3, 563712, Note_on_c, 1, 70, 113
3, 563840, Note_on_c, 1, 67, 113
3, 563844, Note_off_c, 1, 70, 65
3, 563972, Note_off_c, 1, 67, 65
3, 563972, Note_on_c, 1, 62, 113
3, 564096, Note_off_c, 1, 62, 65
3, 564096, Note_on_c, 1, 72, 113
3, 564224, Note_on_c, 1, 69, 113
3, 564228, Note_off_c, 1, 72, 65
3, 564356, Note_off_c, 1, 69, 65
3, 564356, Note_on_c, 1, 66, 113
3, 564480, Note_off_c, 1, 66, 65
3, 564480, Note_on_c, 1, 69, 113
3, 564608, Note_on_c, 1, 66, 113
3, 564612, Note_off_c, 1, 69, 65
3, 564740, Note_off_c, 1, 66, 65
3, 564740, Note_on_c, 1, 62, 113
3, 564864, Note_off_c, 1, 62, 65
3, 564864, Note_on_c, 1, 66, 113
3, 564992, Note_on_c, 1, 62, 113
3, 564996, Note_off_c, 1, 66, 65
3, 565124, Note_off_c, 1, 62, 65
3, 565124, Note_on_c, 1, 60, 113
3, 565248, Note_off_c, 1, 60, 65
3, 565248, Note_on_c, 1, 67, 113
3, 565376, Note_on_c, 1, 62, 113
3, 565380, Note_off_c, 1, 67, 65
3, 565508, Note_off_c, 1, 62, 65
3, 565508, Note_on_c, 1, 58, 113
3, 565632, Note_off_c, 1, 58, 65
3, 565632, Note_on_c, 1, 62, 113
3, 565760, Note_on_c, 1, 58, 113
3, 565764, Note_off_c, 1, 62, 65
3, 565892, Note_off_c, 1, 58, 65
3, 565892, Note_on_c, 1, 55, 113
3, 566016, Note_off_c, 1, 55, 65
3, 566016, Note_on_c, 1, 58, 113
3, 566144, Note_on_c, 1, 55, 113
3, 566148, Note_off_c, 1, 58, 65
3, 566276, Note_off_c, 1, 55, 65
3, 566276, Note_on_c, 1, 50, 113
3, 566400, Note_off_c, 1, 50, 65
3, 566400, Note_on_c, 1, 60, 113
3, 566528, Note_on_c, 1, 57, 113
3, 566532, Note_off_c, 1, 60, 65
3, 566660, Note_off_c, 1, 57, 65
3, 566660, Note_on_c, 1, 54, 113
3, 566784, Note_off_c, 1, 54, 65
3, 566784, Note_on_c, 1, 57, 113
3, 566912, Note_on_c, 1, 54, 113
3, 566916, Note_off_c, 1, 57, 65
3, 567044, Note_off_c, 1, 54, 65
3, 567044, Note_on_c, 1, 50, 113
3, 567168, Note_off_c, 1, 50, 65
3, 567168, Note_on_c, 1, 54, 113
3, 567296, Note_on_c, 1, 50, 113
3, 567300, Note_off_c, 1, 54, 65
3, 567428, Note_off_c, 1, 50, 65
3, 567428, Note_on_c, 1, 48, 113
3, 567552, Note_off_c, 1, 48, 65
3, 569472, Note_on_c, 1, 70, 113
3, 569472, Note_on_c, 1, 82, 113
3, 569852, Note_off_c, 1, 70, 65
3, 569852, Note_off_c, 1, 82, 65
3, 569856, Note_on_c, 1, 63, 113
3, 570044, Note_off_c, 1, 63, 65
3, 570240, Note_on_c, 1, 87, 113
3, 570240, Note_on_c, 1, 67, 113
3, 570368, Note_on_c, 1, 82, 113
3, 570372, Note_off_c, 1, 87, 65
3, 570428, Note_off_c, 1, 67, 65
3, 570500, Note_off_c, 1, 82, 65
3, 570500, Note_on_c, 1, 79, 113
3, 570624, Note_off_c, 1, 79, 65
3, 570624, Note_on_c, 1, 82, 113
3, 570624, Note_on_c, 1, 70, 113
3, 570752, Note_on_c, 1, 79, 113
3, 570756, Note_off_c, 1, 82, 65
3, 570812, Note_off_c, 1, 70, 65
3, 570884, Note_off_c, 1, 79, 65
3, 570884, Note_on_c, 1, 75, 113
3, 571008, Note_off_c, 1, 75, 65
3, 571008, Note_on_c, 1, 80, 113
3, 571136, Note_on_c, 1, 77, 113
3, 571140, Note_off_c, 1, 80, 65
3, 571268, Note_off_c, 1, 77, 65
3, 571268, Note_on_c, 1, 74, 113
3, 571392, Note_off_c, 1, 74, 65
3, 571392, Note_on_c, 1, 77, 113
3, 571520, Note_on_c, 1, 74, 113
3, 571524, Note_off_c, 1, 77, 65
3, 571652, Note_off_c, 1, 74, 65
3, 571652, Note_on_c, 1, 70, 113
3, 571776, Note_off_c, 1, 70, 65
3, 571776, Note_on_c, 1, 74, 113
3, 571904, Note_on_c, 1, 70, 113
3, 571908, Note_off_c, 1, 74, 65
3, 572036, Note_off_c, 1, 70, 65
3, 572036, Note_on_c, 1, 68, 113
3, 572160, Note_off_c, 1, 68, 65
3, 572160, Note_on_c, 1, 75, 113
3, 572288, Note_on_c, 1, 70, 113
3, 572292, Note_off_c, 1, 75, 65
3, 572420, Note_off_c, 1, 70, 65
3, 572420, Note_on_c, 1, 67, 113
3, 572544, Note_off_c, 1, 67, 65
3, 572544, Note_on_c, 1, 70, 113
3, 572672, Note_on_c, 1, 67, 113
3, 572676, Note_off_c, 1, 70, 65
3, 572804, Note_off_c, 1, 67, 65
3, 572804, Note_on_c, 1, 63, 113
3, 572928, Note_off_c, 1, 63, 65
3, 572928, Note_on_c, 1, 67, 113
3, 573056, Note_on_c, 1, 63, 113
3, 573060, Note_off_c, 1, 67, 65
3, 573188, Note_off_c, 1, 63, 65
3, 573188, Note_on_c, 1, 58, 113
3, 573312, Note_off_c, 1, 58, 65
3, 573312, Note_on_c, 1, 68, 113
3, 573440, Note_on_c, 1, 65, 113
3, 573444, Note_off_c, 1, 68, 65
3, 573572, Note_off_c, 1, 65, 65
3, 573572, Note_on_c, 1, 62, 113
3, 573696, Note_off_c, 1, 62, 65
3, 573696, Note_on_c, 1, 65, 113
3, 573824, Note_on_c, 1, 62, 113
3, 573828, Note_off_c, 1, 65, 65
3, 573956, Note_off_c, 1, 62, 65
3, 573956, Note_on_c, 1, 58, 113
3, 574080, Note_off_c, 1, 58, 65
3, 574080, Note_on_c, 1, 62, 113
3, 574208, Note_on_c, 1, 58, 113
3, 574212, Note_off_c, 1, 62, 65
3, 574340, Note_off_c, 1, 58, 65
3, 574340, Note_on_c, 1, 56, 113
3, 574464, Note_off_c, 1, 56, 65
3, 574464, Note_on_c, 1, 63, 113
3, 574592, Note_on_c, 1, 58, 113
3, 574596, Note_off_c, 1, 63, 65
3, 574724, Note_off_c, 1, 58, 65
3, 574724, Note_on_c, 1, 55, 113
3, 574848, Note_off_c, 1, 55, 65
3, 574848, Note_on_c, 1, 58, 113
3, 574976, Note_on_c, 1, 55, 113
3, 574980, Note_off_c, 1, 58, 65
3, 575108, Note_off_c, 1, 55, 65
3, 575108, Note_on_c, 1, 51, 113
3, 575232, Note_off_c, 1, 51, 65
3, 575232, Note_on_c, 1, 58, 113
3, 575360, Note_on_c, 1, 55, 113
3, 575364, Note_off_c, 1, 58, 65
3, 575492, Note_off_c, 1, 55, 65
3, 575492, Note_on_c, 1, 51, 113
3, 575616, Note_off_c, 1, 51, 65
3, 575616, Note_on_c, 1, 57, 113
3, 575744, Note_on_c, 1, 53, 113
3, 575748, Note_off_c, 1, 57, 65
3, 575876, Note_off_c, 1, 53, 65
3, 575876, Note_on_c, 1, 50, 113
3, 576000, Note_off_c, 1, 50, 65
3, 576000, Note_on_c, 1, 57, 113
3, 576128, Note_on_c, 1, 53, 113
3, 576132, Note_off_c, 1, 57, 65
3, 576260, Note_off_c, 1, 53, 65
3, 576260, Note_on_c, 1, 50, 113
3, 576384, Note_off_c, 1, 50, 65
3, 576384, Note_on_c, 1, 57, 113
3, 576512, Note_on_c, 1, 53, 113
3, 576516, Note_off_c, 1, 57, 65
3, 576644, Note_off_c, 1, 53, 65
3, 576644, Note_on_c, 1, 50, 113
3, 576768, Note_off_c, 1, 50, 65
3, 579072, Note_on_c, 1, 67, 61
3, 579072, Note_on_c, 1, 74, 61
3, 580220, Note_off_c, 1, 67, 65
3, 580220, Note_off_c, 1, 74, 65
3, 580224, Note_on_c, 1, 67, 61
3, 580224, Note_on_c, 1, 74, 61
3, 580604, Note_off_c, 1, 67, 65
3, 580604, Note_off_c, 1, 74, 65
3, 580992, Note_on_c, 1, 79, 61
3, 581372, Note_off_c, 1, 79, 65
3, 581376, Note_on_c, 1, 79, 61
3, 581756, Note_off_c, 1, 79, 65
3, 581760, Note_on_c, 1, 80, 61
3, 582140, Note_off_c, 1, 80, 65
3, 582144, Note_on_c, 1, 77, 61
3, 582524, Note_off_c, 1, 77, 65
3, 582528, Note_on_c, 1, 75, 61
3, 582908, Note_off_c, 1, 75, 65
3, 585600, Note_on_c, 1, 75, 61
3, 585980, Note_off_c, 1, 75, 65
3, 585984, Note_on_c, 1, 75, 61
3, 586364, Note_off_c, 1, 75, 65
3, 586368, Note_on_c, 1, 77, 61
3, 586748, Note_off_c, 1, 77, 65
3, 586752, Note_on_c, 1, 73, 61
3, 587132, Note_off_c, 1, 73, 65
3, 587136, Note_on_c, 1, 72, 61
3, 587708, Note_off_c, 1, 72, 65
3, 590208, Note_on_c, 1, 85, 108
3, 590208, Note_on_c, 1, 73, 108
3, 590208, Note_on_c, 1, 67, 108
3, 590208, Note_on_c, 1, 70, 108
3, 590588, Note_off_c, 1, 85, 65
3, 590588, Note_off_c, 1, 73, 65
3, 590588, Note_off_c, 1, 67, 65
3, 590588, Note_off_c, 1, 70, 65
3, 590592, Note_on_c, 1, 66, 108
3, 590592, Note_on_c, 1, 69, 108
3, 590592, Note_on_c, 1, 86, 108
3, 590592, Note_on_c, 1, 74, 108
3, 590972, Note_off_c, 1, 86, 65
3, 590972, Note_off_c, 1, 74, 65
3, 590976, Note_on_c, 1, 75, 108
3, 590976, Note_on_c, 1, 87, 108
3, 591356, Note_off_c, 1, 75, 65
3, 591356, Note_off_c, 1, 87, 65
3, 591360, Note_on_c, 1, 72, 108
3, 591360, Note_on_c, 1, 84, 108
3, 591740, Note_off_c, 1, 66, 65
3, 591740, Note_off_c, 1, 69, 65
3, 591740, Note_off_c, 1, 72, 65
3, 591740, Note_off_c, 1, 84, 65
3, 591744, Note_on_c, 1, 81, 108
3, 591744, Note_on_c, 1, 67, 108
3, 591744, Note_on_c, 1, 70, 108
3, 592124, Note_off_c, 1, 81, 65
3, 592124, Note_off_c, 1, 67, 65
3, 592124, Note_off_c, 1, 70, 65
3, 592128, Note_on_c, 1, 82, 108
3, 592508, Note_off_c, 1, 82, 65
3, 592512, Note_on_c, 1, 80, 108
3, 592512, Note_on_c, 1, 70, 108
3, 592512, Note_on_c, 1, 62, 108
3, 592892, Note_off_c, 1, 80, 65
3, 592892, Note_off_c, 1, 70, 65
3, 592892, Note_off_c, 1, 62, 65
3, 592896, Note_on_c, 1, 70, 108
3, 592896, Note_on_c, 1, 63, 108
3, 592896, Note_on_c, 1, 78, 108
3, 593276, Note_off_c, 1, 70, 65
3, 593276, Note_off_c, 1, 63, 65
3, 593276, Note_off_c, 1, 78, 65
3, 593280, Note_on_c, 1, 79, 108
3, 593660, Note_off_c, 1, 79, 65
3, 593664, Note_on_c, 1, 67, 108
3, 593664, Note_on_c, 1, 59, 108
3, 593664, Note_on_c, 1, 77, 108
3, 593852, Note_off_c, 1, 77, 65
3, 594044, Note_off_c, 1, 67, 65
3, 594044, Note_off_c, 1, 59, 65
3, 594048, Note_on_c, 1, 67, 108
3, 594048, Note_on_c, 1, 60, 108
3, 594048, Note_on_c, 1, 74, 108
3, 594428, Note_off_c, 1, 67, 65
3, 594428, Note_off_c, 1, 60, 65
3, 594428, Note_off_c, 1, 74, 65
3, 594432, Note_on_c, 1, 75, 108
3, 594812, Note_off_c, 1, 75, 65
3, 594816, Note_on_c, 1, 67, 108
3, 594816, Note_on_c, 1, 62, 108
3, 594816, Note_on_c, 1, 74, 108
3, 595004, Note_off_c, 1, 74, 65
3, 595196, Note_off_c, 1, 67, 65
3, 595196, Note_off_c, 1, 62, 65
3, 595200, Note_on_c, 1, 71, 108
3, 595200, Note_on_c, 1, 67, 108
3, 595200, Note_on_c, 1, 63, 108
3, 595580, Note_off_c, 1, 71, 65
3, 595580, Note_off_c, 1, 67, 65
3, 595580, Note_off_c, 1, 63, 65
3, 595584, Note_on_c, 1, 72, 108
3, 595964, Note_off_c, 1, 72, 65
3, 595968, Note_on_c, 1, 70, 108
3, 595968, Note_on_c, 1, 67, 108
3, 595968, Note_on_c, 1, 62, 108
3, 596156, Note_off_c, 1, 70, 65
3, 596348, Note_off_c, 1, 67, 65
3, 596348, Note_off_c, 1, 62, 65
3, 596352, Note_on_c, 1, 69, 108
3, 596352, Note_on_c, 1, 67, 108
3, 596352, Note_on_c, 1, 60, 108
3, 596732, Note_off_c, 1, 69, 65
3, 596732, Note_off_c, 1, 67, 65
3, 596732, Note_off_c, 1, 60, 65
3, 596736, Note_on_c, 1, 70, 105
3, 597116, Note_off_c, 1, 70, 65
3, 597120, Note_on_c, 1, 70, 101
3, 597308, Note_off_c, 1, 70, 65
3, 597504, Note_on_c, 1, 67, 97
3, 597504, Note_on_c, 1, 60, 97
3, 597504, Note_on_c, 1, 69, 97
3, 597884, Note_off_c, 1, 67, 65
3, 597884, Note_off_c, 1, 60, 65
3, 597884, Note_off_c, 1, 69, 65
3, 597888, Note_on_c, 1, 70, 94
3, 598268, Note_off_c, 1, 70, 65
3, 598272, Note_on_c, 1, 70, 91
3, 598460, Note_off_c, 1, 70, 65
3, 598560, Note_on_c, 1, 72, 88
3, 598652, Note_off_c, 1, 72, 65
3, 598656, Note_on_c, 1, 62, 87
3, 598656, Note_on_c, 1, 70, 87
3, 599036, Note_off_c, 1, 62, 65
3, 599036, Note_off_c, 1, 70, 65
3, 599040, Note_on_c, 1, 69, 84
3, 599420, Note_off_c, 1, 69, 65
3, 599424, Note_on_c, 1, 67, 81
3, 599612, Note_off_c, 1, 67, 65
3, 599808, Note_on_c, 1, 70, 77
3, 600188, Note_off_c, 1, 70, 65
3, 600192, Note_on_c, 1, 62, 74
3, 600572, Note_off_c, 1, 62, 65
3, 600576, Note_on_c, 1, 66, 71
3, 600956, Note_off_c, 1, 66, 65
3, 600960, Note_on_c, 1, 67, 61
3, 601088, Note_on_c, 1, 62, 61
3, 601092, Note_off_c, 1, 67, 65
3, 601220, Note_off_c, 1, 62, 65
3, 601220, Note_on_c, 1, 59, 61
3, 601344, Note_off_c, 1, 59, 65
3, 601344, Note_on_c, 1, 67, 61
3, 601472, Note_on_c, 1, 62, 61
3, 601476, Note_off_c, 1, 67, 65
3, 601604, Note_off_c, 1, 62, 65
3, 601604, Note_on_c, 1, 59, 61
3, 601728, Note_off_c, 1, 59, 65
3, 601728, Note_on_c, 1, 67, 61
3, 601856, Note_on_c, 1, 62, 61
3, 601860, Note_off_c, 1, 67, 65
3, 601988, Note_off_c, 1, 62, 65
3, 601988, Note_on_c, 1, 59, 61
3, 602112, Note_off_c, 1, 59, 65
3, 602112, Note_on_c, 1, 67, 61
3, 602240, Note_on_c, 1, 65, 61
3, 602244, Note_off_c, 1, 67, 65
3, 602372, Note_off_c, 1, 65, 65
3, 602372, Note_on_c, 1, 62, 61
3, 602496, Note_off_c, 1, 62, 65
3, 602496, Note_on_c, 1, 67, 61
3, 602624, Note_on_c, 1, 65, 61
3, 602628, Note_off_c, 1, 67, 65
3, 602756, Note_off_c, 1, 65, 65
3, 602756, Note_on_c, 1, 62, 61
3, 602880, Note_off_c, 1, 62, 65
3, 602880, Note_on_c, 1, 67, 82
3, 603008, Note_on_c, 1, 65, 83
3, 603012, Note_off_c, 1, 67, 65
3, 603140, Note_off_c, 1, 65, 65
3, 603140, Note_on_c, 1, 62, 85
3, 603264, Note_off_c, 1, 62, 65
3, 603264, Note_on_c, 1, 67, 87
3, 603392, Note_on_c, 1, 63, 89
3, 603396, Note_off_c, 1, 67, 65
3, 603524, Note_off_c, 1, 63, 65
3, 603524, Note_on_c, 1, 60, 91
3, 603648, Note_off_c, 1, 60, 65
3, 603648, Note_on_c, 1, 67, 93
3, 603776, Note_on_c, 1, 63, 95
3, 603780, Note_off_c, 1, 67, 65
3, 603908, Note_off_c, 1, 63, 65
3, 603908, Note_on_c, 1, 60, 97
3, 604032, Note_off_c, 1, 60, 65
3, 604032, Note_on_c, 1, 67, 99
3, 604160, Note_on_c, 1, 63, 101
3, 604164, Note_off_c, 1, 67, 65
3, 604292, Note_off_c, 1, 63, 65
3, 604292, Note_on_c, 1, 60, 104
3, 604416, Note_off_c, 1, 60, 65
3, 604416, Note_on_c, 1, 67, 105
3, 604544, Note_on_c, 1, 63, 107
3, 604548, Note_off_c, 1, 67, 65
3, 604676, Note_off_c, 1, 63, 65
3, 604676, Note_on_c, 1, 60, 109
3, 604800, Note_off_c, 1, 60, 65
3, 604800, Note_on_c, 1, 67, 111
3, 604928, Note_on_c, 1, 63, 113
3, 604932, Note_off_c, 1, 67, 65
3, 605060, Note_off_c, 1, 63, 65
3, 605060, Note_on_c, 1, 60, 115
3, 605184, Note_off_c, 1, 60, 65
3, 605184, Note_on_c, 1, 67, 117
3, 605312, Note_on_c, 1, 63, 119
3, 605316, Note_off_c, 1, 67, 65
3, 605444, Note_off_c, 1, 63, 65
3, 605444, Note_on_c, 1, 60, 121
3, 605568, Note_off_c, 1, 60, 65
3, 605568, Note_on_c, 1, 67, 111
3, 605696, Note_on_c, 1, 63, 112
3, 605700, Note_off_c, 1, 67, 65
3, 605828, Note_off_c, 1, 63, 65
3, 605828, Note_on_c, 1, 60, 113
3, 605952, Note_off_c, 1, 60, 65
3, 605952, Note_on_c, 1, 67, 115
3, 606080, Note_on_c, 1, 63, 116
3, 606084, Note_off_c, 1, 67, 65
3, 606212, Note_off_c, 1, 63, 65
3, 606212, Note_on_c, 1, 60, 117
3, 606336, Note_off_c, 1, 60, 65
3, 606336, Note_on_c, 1, 67, 61
3, 606464, Note_on_c, 1, 63, 61
3, 606468, Note_off_c, 1, 67, 65
3, 606596, Note_off_c, 1, 63, 65
3, 606596, Note_on_c, 1, 60, 61
3, 606720, Note_off_c, 1, 60, 65
3, 606720, Note_on_c, 1, 67, 111
3, 606848, Note_on_c, 1, 65, 112
3, 606852, Note_off_c, 1, 67, 65
3, 606980, Note_off_c, 1, 65, 65
3, 606980, Note_on_c, 1, 62, 113
3, 607104, Note_off_c, 1, 62, 65
3, 607104, Note_on_c, 1, 67, 115
3, 607232, Note_on_c, 1, 65, 116
3, 607236, Note_off_c, 1, 67, 65
3, 607364, Note_off_c, 1, 65, 65
3, 607364, Note_on_c, 1, 62, 117
3, 607488, Note_off_c, 1, 62, 65
3, 607488, Note_on_c, 1, 67, 61
3, 607616, Note_on_c, 1, 65, 61
3, 607620, Note_off_c, 1, 67, 65
3, 607748, Note_off_c, 1, 65, 65
3, 607748, Note_on_c, 1, 62, 61
3, 607872, Note_off_c, 1, 62, 65
3, 607872, Note_on_c, 1, 67, 111
3, 608000, Note_on_c, 1, 63, 112
3, 608004, Note_off_c, 1, 67, 65
3, 608132, Note_off_c, 1, 63, 65
3, 608132, Note_on_c, 1, 60, 113
3, 608256, Note_off_c, 1, 60, 65
3, 608256, Note_on_c, 1, 67, 115
3, 608384, Note_on_c, 1, 63, 116
3, 608388, Note_off_c, 1, 67, 65
3, 608516, Note_off_c, 1, 63, 65
3, 608516, Note_on_c, 1, 60, 117
3, 608640, Note_off_c, 1, 60, 65
3, 608640, Note_on_c, 1, 67, 61
3, 608768, Note_on_c, 1, 63, 61
3, 608772, Note_off_c, 1, 67, 65
3, 608900, Note_off_c, 1, 63, 65
3, 608900, Note_on_c, 1, 60, 61
3, 609024, Note_off_c, 1, 60, 65
3, 609024, Note_on_c, 1, 67, 111
3, 609152, Note_on_c, 1, 63, 112
3, 609156, Note_off_c, 1, 67, 65
3, 609284, Note_off_c, 1, 63, 65
3, 609284, Note_on_c, 1, 60, 113
3, 609408, Note_off_c, 1, 60, 65
3, 609408, Note_on_c, 1, 67, 115
3, 609536, Note_on_c, 1, 63, 116
3, 609540, Note_off_c, 1, 67, 65
3, 609668, Note_off_c, 1, 63, 65
3, 609668, Note_on_c, 1, 60, 117
3, 609792, Note_off_c, 1, 60, 65
3, 609792, Note_on_c, 1, 67, 61
3, 609920, Note_on_c, 1, 63, 61
3, 609924, Note_off_c, 1, 67, 65
3, 610052, Note_off_c, 1, 63, 65
3, 610052, Note_on_c, 1, 60, 61
3, 610176, Note_off_c, 1, 60, 65
3, 610176, Note_on_c, 1, 67, 111
3, 610304, Note_on_c, 1, 62, 112
3, 610308, Note_off_c, 1, 67, 65
3, 610436, Note_off_c, 1, 62, 65
3, 610436, Note_on_c, 1, 59, 113
3, 610560, Note_off_c, 1, 59, 65
3, 610560, Note_on_c, 1, 67, 115
3, 610688, Note_on_c, 1, 62, 116
3, 610692, Note_off_c, 1, 67, 65
3, 610820, Note_off_c, 1, 62, 65
3, 610820, Note_on_c, 1, 59, 117
3, 610944, Note_off_c, 1, 59, 65
3, 610944, Note_on_c, 1, 67, 61
3, 611072, Note_on_c, 1, 62, 61
3, 611076, Note_off_c, 1, 67, 65
3, 611204, Note_off_c, 1, 62, 65
3, 611204, Note_on_c, 1, 59, 61
3, 611328, Note_off_c, 1, 59, 65
3, 611328, Note_on_c, 1, 67, 61
3, 611456, Note_on_c, 1, 65, 61
3, 611460, Note_off_c, 1, 67, 65
3, 611588, Note_off_c, 1, 65, 65
3, 611588, Note_on_c, 1, 62, 61
3, 611712, Note_off_c, 1, 62, 65
3, 611712, Note_on_c, 1, 67, 61
3, 611840, Note_on_c, 1, 65, 61
3, 611844, Note_off_c, 1, 67, 65
3, 611972, Note_off_c, 1, 65, 65
3, 611972, Note_on_c, 1, 62, 61
3, 612096, Note_off_c, 1, 62, 65
3, 612096, Note_on_c, 1, 67, 82
3, 612224, Note_on_c, 1, 65, 83
3, 612228, Note_off_c, 1, 67, 65
3, 612356, Note_off_c, 1, 65, 65
3, 612356, Note_on_c, 1, 62, 85
3, 612480, Note_off_c, 1, 62, 65
3, 612480, Note_on_c, 1, 67, 87
3, 612608, Note_on_c, 1, 63, 89
3, 612612, Note_off_c, 1, 67, 65
3, 612740, Note_off_c, 1, 63, 65
3, 612740, Note_on_c, 1, 60, 91
3, 612864, Note_off_c, 1, 60, 65
3, 612864, Note_on_c, 1, 67, 93
3, 612992, Note_on_c, 1, 63, 95
3, 612996, Note_off_c, 1, 67, 65
3, 613124, Note_off_c, 1, 63, 65
3, 613124, Note_on_c, 1, 60, 97
3, 613248, Note_off_c, 1, 60, 65
3, 613248, Note_on_c, 1, 67, 99
3, 613376, Note_on_c, 1, 63, 101
3, 613380, Note_off_c, 1, 67, 65
3, 613508, Note_off_c, 1, 63, 65
3, 613508, Note_on_c, 1, 60, 104
3, 613632, Note_off_c, 1, 60, 65
3, 613632, Note_on_c, 1, 67, 105
3, 613760, Note_on_c, 1, 63, 107
3, 613764, Note_off_c, 1, 67, 65
3, 613892, Note_off_c, 1, 63, 65
3, 613892, Note_on_c, 1, 60, 109
3, 614016, Note_off_c, 1, 60, 65
3, 614016, Note_on_c, 1, 67, 111
3, 614144, Note_on_c, 1, 63, 113
3, 614148, Note_off_c, 1, 67, 65
3, 614276, Note_off_c, 1, 63, 65
3, 614276, Note_on_c, 1, 60, 115
3, 614400, Note_off_c, 1, 60, 65
3, 614400, Note_on_c, 1, 67, 117
3, 614528, Note_on_c, 1, 63, 119
3, 614532, Note_off_c, 1, 67, 65
3, 614660, Note_off_c, 1, 63, 65
3, 614660, Note_on_c, 1, 60, 121
3, 614784, Note_off_c, 1, 60, 65
3, 614784, Note_on_c, 1, 67, 111
3, 614912, Note_on_c, 1, 62, 112
3, 614916, Note_off_c, 1, 67, 65
3, 615044, Note_off_c, 1, 62, 65
3, 615044, Note_on_c, 1, 59, 113
3, 615168, Note_off_c, 1, 59, 65
3, 615168, Note_on_c, 1, 67, 115
3, 615296, Note_on_c, 1, 62, 116
3, 615300, Note_off_c, 1, 67, 65
3, 615428, Note_off_c, 1, 62, 65
3, 615428, Note_on_c, 1, 59, 117
3, 615552, Note_off_c, 1, 59, 65
3, 615552, Note_on_c, 1, 67, 72
3, 615680, Note_on_c, 1, 62, 72
3, 615684, Note_off_c, 1, 67, 65
3, 615812, Note_off_c, 1, 62, 65
3, 615812, Note_on_c, 1, 59, 72
3, 615936, Note_off_c, 1, 59, 65
3, 615936, Note_on_c, 1, 67, 111
3, 616064, Note_on_c, 1, 62, 112
3, 616068, Note_off_c, 1, 67, 65
3, 616196, Note_off_c, 1, 62, 65
3, 616196, Note_on_c, 1, 59, 113
3, 616320, Note_off_c, 1, 59, 65
3, 616320, Note_on_c, 1, 67, 115
3, 616448, Note_on_c, 1, 62, 116
3, 616452, Note_off_c, 1, 67, 65
3, 616580, Note_off_c, 1, 62, 65
3, 616580, Note_on_c, 1, 59, 117
3, 616704, Note_off_c, 1, 59, 65
3, 616704, Note_on_c, 1, 67, 123
3, 616832, Note_on_c, 1, 62, 115
3, 616836, Note_off_c, 1, 67, 65
3, 616964, Note_off_c, 1, 62, 65
3, 616964, Note_on_c, 1, 59, 106
3, 617088, Note_off_c, 1, 59, 65
3, 617088, Note_on_c, 1, 67, 97
3, 617216, Note_on_c, 1, 62, 89
3, 617220, Note_off_c, 1, 67, 65
3, 617348, Note_off_c, 1, 62, 65
3, 617348, Note_on_c, 1, 59, 80
3, 617472, Note_off_c, 1, 59, 65
3, 617472, Note_on_c, 1, 67, 72
3, 617600, Note_on_c, 1, 62, 72
3, 617604, Note_off_c, 1, 67, 65
3, 617732, Note_off_c, 1, 62, 65
3, 617732, Note_on_c, 1, 59, 72
3, 617856, Note_off_c, 1, 59, 65
3, 617856, Note_on_c, 1, 67, 72
3, 617984, Note_on_c, 1, 62, 72
3, 617988, Note_off_c, 1, 67, 65
3, 618116, Note_off_c, 1, 62, 65
3, 618116, Note_on_c, 1, 59, 72
3, 618240, Note_off_c, 1, 59, 65
3, 618240, Note_on_c, 1, 67, 72
3, 618368, Note_on_c, 1, 62, 72
3, 618372, Note_off_c, 1, 67, 65
3, 618500, Note_off_c, 1, 62, 65
3, 618500, Note_on_c, 1, 59, 72
3, 618624, Note_off_c, 1, 59, 65
3, 618624, Note_on_c, 1, 67, 72
3, 618752, Note_on_c, 1, 62, 72
3, 618756, Note_off_c, 1, 67, 65
3, 618884, Note_off_c, 1, 62, 65
3, 618884, Note_on_c, 1, 59, 72
3, 619008, Note_off_c, 1, 59, 65
3, 619008, Note_on_c, 1, 67, 113
3, 619136, Note_on_c, 1, 62, 113
3, 619140, Note_off_c, 1, 67, 65
3, 619268, Note_off_c, 1, 62, 65
3, 619268, Note_on_c, 1, 59, 113
3, 619392, Note_off_c, 1, 59, 65
3, 619392, Note_on_c, 1, 55, 113
3, 619392, Note_on_c, 1, 59, 113
3, 619392, Note_on_c, 1, 62, 113
3, 621312, Note_off_c, 1, 62, 65
3, 621312, Note_off_c, 1, 55, 65
3, 621312, Note_off_c, 1, 59, 65
3, 621696, Note_on_c, 1, 55, 61
3, 621696, Note_on_c, 1, 58, 61
3, 621696, Note_on_c, 1, 60, 61
3, 622464, Note_off_c, 1, 55, 65
3, 622464, Note_off_c, 1, 58, 65
3, 622464, Note_off_c, 1, 60, 65
3, 622848, Note_on_c, 1, 60, 66
3, 622848, Note_on_c, 1, 57, 66
3, 622848, Note_on_c, 1, 53, 66
3, 623616, Note_off_c, 1, 60, 65
3, 623616, Note_off_c, 1, 57, 65
3, 623616, Note_off_c, 1, 53, 65
3, 624000, Note_on_c, 1, 58, 61
3, 624000, Note_on_c, 1, 56, 61
3, 624000, Note_on_c, 1, 53, 61
3, 624768, Note_off_c, 1, 58, 65
3, 624768, Note_off_c, 1, 56, 65
3, 624768, Note_off_c, 1, 53, 65
3, 625152, Note_on_c, 1, 51, 61
3, 625152, Note_on_c, 1, 55, 61
3, 625152, Note_on_c, 1, 58, 61
3, 625920, Note_off_c, 1, 51, 65
3, 625920, Note_off_c, 1, 55, 65
3, 625920, Note_off_c, 1, 58, 65
3, 626304, Note_on_c, 1, 55, 61
3, 626304, Note_on_c, 1, 57, 61
3, 627072, Note_off_c, 1, 55, 65
3, 627072, Note_off_c, 1, 57, 65
3, 627456, Note_on_c, 1, 57, 61
3, 627456, Note_on_c, 1, 54, 61
3, 628224, Note_off_c, 1, 57, 65
3, 628224, Note_off_c, 1, 54, 65
3, 628608, Note_on_c, 1, 58, 61
3, 628608, Note_on_c, 1, 55, 61
3, 629376, Note_off_c, 1, 58, 65
3, 629376, Note_off_c, 1, 55, 65
3, 629760, Note_on_c, 1, 60, 61
3, 629760, Note_on_c, 1, 55, 61
3, 629760, Note_on_c, 1, 51, 61
3, 630528, Note_off_c, 1, 60, 65
3, 630528, Note_off_c, 1, 55, 65
3, 630528, Note_off_c, 1, 51, 65
3, 630912, Note_on_c, 1, 58, 61
3, 630912, Note_on_c, 1, 55, 61
3, 631296, Note_off_c, 1, 58, 65
3, 631296, Note_off_c, 1, 55, 65
3, 631296, Note_on_c, 1, 67, 61
3, 631488, Note_off_c, 1, 67, 65
3, 631680, Note_on_c, 1, 70, 61
3, 631872, Note_off_c, 1, 70, 65
3, 632064, Note_on_c, 1, 74, 61
3, 632256, Note_off_c, 1, 74, 65
3, 633600, Note_on_c, 1, 77, 61
3, 633792, Note_off_c, 1, 77, 65
3, 633984, Note_on_c, 1, 81, 61
3, 634176, Note_off_c, 1, 81, 65
3, 634368, Note_on_c, 1, 86, 61
3, 634560, Note_off_c, 1, 86, 65
3, 636288, Note_on_c, 1, 79, 123
3, 636668, Note_off_c, 1, 79, 65
3, 636672, Note_on_c, 1, 79, 123
3, 637436, Note_off_c, 1, 79, 65
3, 637440, Note_on_c, 1, 81, 123
3, 637628, Note_off_c, 1, 81, 65
3, 637632, Note_on_c, 1, 83, 123
3, 637820, Note_off_c, 1, 83, 65
3, 637824, Note_on_c, 1, 84, 123
3, 638012, Note_off_c, 1, 84, 65
3, 638208, Note_on_c, 1, 86, 123
3, 638396, Note_off_c, 1, 86, 65
3, 638592, Note_on_c, 1, 75, 123
3, 638592, Note_on_c, 1, 87, 123
3, 638780, Note_off_c, 1, 75, 65
3, 638780, Note_off_c, 1, 87, 65
3, 638976, Note_on_c, 1, 75, 123
3, 638976, Note_on_c, 1, 87, 123
3, 639356, Note_off_c, 1, 75, 65
3, 639356, Note_off_c, 1, 87, 65
3, 639360, Note_on_c, 1, 74, 123
3, 639360, Note_on_c, 1, 86, 123
3, 639740, Note_off_c, 1, 74, 65
3, 639740, Note_off_c, 1, 86, 65
3, 639744, Note_on_c, 1, 72, 123
3, 639744, Note_on_c, 1, 84, 123
3, 640124, Note_off_c, 1, 72, 65
3, 640124, Note_off_c, 1, 84, 65
3, 640128, Note_on_c, 1, 71, 123
3, 640128, Note_on_c, 1, 83, 123
3, 640316, Note_off_c, 1, 71, 65
3, 640316, Note_off_c, 1, 83, 65
3, 640896, Note_on_c, 1, 79, 123
3, 641276, Note_off_c, 1, 79, 65
3, 641280, Note_on_c, 1, 79, 123
3, 642044, Note_off_c, 1, 79, 65
3, 642048, Note_on_c, 1, 81, 123
3, 642236, Note_off_c, 1, 81, 65
3, 642240, Note_on_c, 1, 83, 123
3, 642428, Note_off_c, 1, 83, 65
3, 642432, Note_on_c, 1, 84, 123
3, 642620, Note_off_c, 1, 84, 65
3, 642816, Note_on_c, 1, 86, 123
3, 643004, Note_off_c, 1, 86, 65
3, 643200, Note_on_c, 1, 75, 123
3, 643200, Note_on_c, 1, 87, 123
3, 643388, Note_off_c, 1, 75, 65
3, 643388, Note_off_c, 1, 87, 65
3, 643584, Note_on_c, 1, 75, 123
3, 643584, Note_on_c, 1, 87, 123
3, 643964, Note_off_c, 1, 75, 65
3, 643964, Note_off_c, 1, 87, 65
3, 643968, Note_on_c, 1, 74, 123
3, 643968, Note_on_c, 1, 86, 123
3, 644348, Note_off_c, 1, 74, 65
3, 644348, Note_off_c, 1, 86, 65
3, 644352, Note_on_c, 1, 72, 123
3, 644352, Note_on_c, 1, 84, 123
3, 644540, Note_off_c, 1, 72, 65
3, 644540, Note_off_c, 1, 84, 65
3, 644736, Note_on_c, 1, 71, 123
3, 644736, Note_on_c, 1, 83, 123
3, 644924, Note_off_c, 1, 71, 65
3, 644924, Note_off_c, 1, 83, 65
3, 645504, Note_on_c, 1, 75, 123
3, 645504, Note_on_c, 1, 87, 123
3, 645692, Note_off_c, 1, 75, 65
3, 645692, Note_off_c, 1, 87, 65
3, 645888, Note_on_c, 1, 75, 123
3, 645888, Note_on_c, 1, 87, 123
3, 646268, Note_off_c, 1, 75, 65
3, 646268, Note_off_c, 1, 87, 65
3, 646272, Note_on_c, 1, 74, 123
3, 646272, Note_on_c, 1, 86, 123
3, 646652, Note_off_c, 1, 74, 65
3, 646652, Note_off_c, 1, 86, 65
3, 646656, Note_on_c, 1, 72, 123
3, 646656, Note_on_c, 1, 84, 123
3, 646844, Note_off_c, 1, 72, 65
3, 646844, Note_off_c, 1, 84, 65
3, 647040, Note_on_c, 1, 71, 123
3, 647040, Note_on_c, 1, 83, 123
3, 647228, Note_off_c, 1, 71, 65
3, 647228, Note_off_c, 1, 83, 65
3, 647808, Note_on_c, 1, 75, 123
3, 647808, Note_on_c, 1, 87, 123
3, 647996, Note_off_c, 1, 75, 65
3, 647996, Note_off_c, 1, 87, 65
3, 648192, Note_on_c, 1, 75, 123
3, 648192, Note_on_c, 1, 87, 123
3, 648572, Note_off_c, 1, 75, 65
3, 648572, Note_off_c, 1, 87, 65
3, 648576, Note_on_c, 1, 74, 123
3, 648576, Note_on_c, 1, 86, 123
3, 648956, Note_off_c, 1, 74, 65
3, 648956, Note_off_c, 1, 86, 65
3, 648960, Note_on_c, 1, 72, 123
3, 648960, Note_on_c, 1, 84, 123
3, 649148, Note_off_c, 1, 72, 65
3, 649148, Note_off_c, 1, 84, 65
3, 649344, Note_on_c, 1, 83, 127
3, 649344, Note_on_c, 1, 71, 127
3, 649532, Note_off_c, 1, 83, 65
3, 649532, Note_off_c, 1, 71, 65
3, 650496, Note_on_c, 1, 67, 127
3, 650496, Note_on_c, 1, 62, 127
3, 650496, Note_on_c, 1, 59, 127
3, 650876, Note_off_c, 1, 67, 65
3, 650876, Note_off_c, 1, 62, 65
3, 650876, Note_off_c, 1, 59, 65
3, 650876, End_track
4, 0, Start_track
4, 0, Title_t, "Piano Left"
4, 0, Control_c, 2, 0, 0
4, 0, Program_c, 2, 0
4, 0, Control_c, 2, 10, 46
4, 0, Control_c, 2, 91, 32
4, 0, Control_c, 2, 93, 61
4, 0, Key_signature, -2, "minor"
4, 0, Note_on_c, 2, 43, 95
4, 0, Note_on_c, 2, 46, 95
4, 0, Note_on_c, 2, 50, 95
4, 0, Note_on_c, 2, 55, 95
4, 384, Note_off_c, 2, 43, 60
4, 384, Note_off_c, 2, 46, 60
4, 384, Note_off_c, 2, 50, 60
4, 384, Note_off_c, 2, 55, 60
4, 1536, Note_on_c, 2, 63, 56
4, 1536, Note_on_c, 2, 60, 56
4, 1916, Note_off_c, 2, 63, 60
4, 1916, Note_off_c, 2, 60, 60
4, 1920, Note_on_c, 2, 62, 56
4, 1920, Note_on_c, 2, 58, 56
4, 2300, Note_off_c, 2, 62, 60
4, 2300, Note_off_c, 2, 58, 60
4, 2304, Note_on_c, 2, 60, 56
4, 2304, Note_on_c, 2, 57, 56
4, 2684, Note_off_c, 2, 60, 60
4, 2684, Note_off_c, 2, 57, 60
4, 3072, Note_on_c, 2, 33, 95
4, 3072, Note_on_c, 2, 45, 95
4, 3644, Note_off_c, 2, 33, 60
4, 3644, Note_off_c, 2, 45, 60
4, 4608, Note_on_c, 2, 62, 56
4, 4608, Note_on_c, 2, 65, 56
4, 4864, Note_off_c, 2, 62, 60
4, 4864, Note_off_c, 2, 65, 60
4, 4992, Note_on_c, 2, 63, 56
4, 4992, Note_on_c, 2, 60, 56
4, 5248, Note_off_c, 2, 63, 60
4, 5248, Note_off_c, 2, 60, 60
4, 5376, Note_on_c, 2, 62, 56
4, 5376, Note_on_c, 2, 59, 56
4, 5760, Note_off_c, 2, 62, 60
4, 5760, Note_off_c, 2, 59, 60
4, 6144, Note_on_c, 2, 48, 56
4, 6144, Note_on_c, 2, 36, 56
4, 6400, Note_off_c, 2, 48, 60
4, 6400, Note_off_c, 2, 36, 60
4, 6528, Note_on_c, 2, 46, 56
4, 6528, Note_on_c, 2, 34, 56
4, 6784, Note_off_c, 2, 46, 60
4, 6784, Note_off_c, 2, 34, 60
4, 6912, Note_on_c, 2, 45, 56
4, 6912, Note_on_c, 2, 33, 56
4, 7424, Note_off_c, 2, 45, 60
4, 7424, Note_off_c, 2, 33, 60
4, 7680, Note_on_c, 2, 57, 56
4, 7680, Note_on_c, 2, 50, 56
4, 8064, Note_off_c, 2, 57, 60
4, 8064, Note_off_c, 2, 50, 60
4, 8256, Note_on_c, 2, 55, 56
4, 8256, Note_on_c, 2, 51, 56
4, 8384, Note_off_c, 2, 55, 60
4, 8384, Note_off_c, 2, 51, 60
4, 8448, Note_on_c, 2, 57, 56
4, 8448, Note_on_c, 2, 51, 56
4, 8448, Note_on_c, 2, 48, 56
4, 8704, Note_off_c, 2, 57, 60
4, 8704, Note_off_c, 2, 51, 60
4, 8704, Note_off_c, 2, 48, 60
4, 9024, Note_on_c, 2, 60, 56
4, 9024, Note_on_c, 2, 57, 56
4, 9024, Note_on_c, 2, 50, 56
4, 9152, Note_off_c, 2, 60, 60
4, 9152, Note_off_c, 2, 57, 60
4, 9152, Note_off_c, 2, 50, 60
4, 9216, Note_on_c, 2, 43, 56
4, 9216, Note_on_c, 2, 31, 56
4, 9312, Note_on_c, 2, 55, 56
4, 9312, Note_on_c, 2, 58, 56
4, 9376, Note_off_c, 2, 55, 60
4, 9376, Note_off_c, 2, 58, 60
4, 9408, Note_on_c, 2, 62, 56
4, 9472, Note_off_c, 2, 43, 60
4, 9472, Note_off_c, 2, 31, 60
4, 9472, Note_off_c, 2, 62, 60
4, 9504, Note_on_c, 2, 62, 56
4, 9568, Note_off_c, 2, 62, 60
4, 9600, Note_on_c, 2, 46, 56
4, 9600, Note_on_c, 2, 34, 56
4, 9696, Note_on_c, 2, 55, 56
4, 9696, Note_on_c, 2, 50, 56
4, 9760, Note_off_c, 2, 55, 60
4, 9760, Note_off_c, 2, 50, 60
4, 9792, Note_on_c, 2, 62, 56
4, 9856, Note_off_c, 2, 46, 60
4, 9856, Note_off_c, 2, 34, 60
4, 9856, Note_off_c, 2, 62, 60
4, 9888, Note_on_c, 2, 62, 56
4, 9952, Note_off_c, 2, 62, 60
4, 9984, Note_on_c, 2, 42, 56
4, 9984, Note_on_c, 2, 30, 56
4, 10080, Note_on_c, 2, 50, 56
4, 10080, Note_on_c, 2, 57, 56
4, 10080, Note_on_c, 2, 60, 56
4, 10144, Note_off_c, 2, 50, 60
4, 10144, Note_off_c, 2, 57, 60
4, 10144, Note_off_c, 2, 60, 60
4, 10176, Note_on_c, 2, 62, 56
4, 10240, Note_off_c, 2, 42, 60
4, 10240, Note_off_c, 2, 30, 60
4, 10240, Note_off_c, 2, 62, 60
4, 10272, Note_on_c, 2, 62, 56
4, 10336, Note_off_c, 2, 62, 60
4, 10368, Note_on_c, 2, 43, 56
4, 10368, Note_on_c, 2, 31, 56
4, 10464, Note_on_c, 2, 50, 56
4, 10464, Note_on_c, 2, 55, 56
4, 10464, Note_on_c, 2, 58, 56
4, 10528, Note_off_c, 2, 50, 60
4, 10528, Note_off_c, 2, 55, 60
4, 10528, Note_off_c, 2, 58, 60
4, 10560, Note_on_c, 2, 62, 56
4, 10624, Note_off_c, 2, 43, 60
4, 10624, Note_off_c, 2, 31, 60
4, 10624, Note_off_c, 2, 62, 60
4, 10656, Note_on_c, 2, 62, 56
4, 10720, Note_off_c, 2, 62, 60
4, 10752, Note_on_c, 2, 48, 56
4, 10752, Note_on_c, 2, 36, 56
4, 10848, Note_on_c, 2, 51, 56
4, 10912, Note_off_c, 2, 51, 60
4, 11008, Note_off_c, 2, 48, 60
4, 11008, Note_off_c, 2, 36, 60
4, 11136, Note_on_c, 2, 51, 56
4, 11136, Note_on_c, 2, 39, 56
4, 11232, Note_on_c, 2, 55, 56
4, 11232, Note_on_c, 2, 57, 56
4, 11232, Note_on_c, 2, 60, 56
4, 11296, Note_off_c, 2, 55, 60
4, 11296, Note_off_c, 2, 57, 60
4, 11296, Note_off_c, 2, 60, 60
4, 11392, Note_off_c, 2, 51, 60
4, 11392, Note_off_c, 2, 39, 60
4, 11520, Note_on_c, 2, 50, 56
4, 11520, Note_on_c, 2, 38, 56
4, 11776, Note_off_c, 2, 50, 60
4, 11776, Note_off_c, 2, 38, 60
4, 11904, Note_on_c, 2, 38, 56
4, 12160, Note_off_c, 2, 38, 60
4, 12288, Note_on_c, 2, 43, 56
4, 12288, Note_on_c, 2, 31, 56
4, 12544, Note_off_c, 2, 43, 60
4, 12544, Note_off_c, 2, 31, 60
4, 12672, Note_on_c, 2, 55, 56
4, 12672, Note_on_c, 2, 43, 56
4, 12928, Note_off_c, 2, 55, 60
4, 12928, Note_off_c, 2, 43, 60
4, 13056, Note_on_c, 2, 50, 56
4, 13056, Note_on_c, 2, 38, 56
4, 13312, Note_off_c, 2, 50, 60
4, 13312, Note_off_c, 2, 38, 60
4, 13440, Note_on_c, 2, 51, 56
4, 13440, Note_on_c, 2, 39, 56
4, 13696, Note_off_c, 2, 51, 60
4, 13696, Note_off_c, 2, 39, 60
4, 13824, Note_on_c, 2, 44, 56
4, 13824, Note_on_c, 2, 32, 56
4, 14196, Note_off_c, 2, 32, 60
4, 14204, Note_off_c, 2, 44, 60
4, 14208, Note_on_c, 2, 41, 56
4, 14208, Note_on_c, 2, 29, 56
4, 14588, Note_off_c, 2, 41, 60
4, 14588, Note_off_c, 2, 29, 60
4, 14592, Note_on_c, 2, 46, 56
4, 14592, Note_on_c, 2, 34, 56
4, 14972, Note_off_c, 2, 46, 60
4, 14972, Note_off_c, 2, 34, 60
4, 14976, Note_on_c, 2, 46, 56
4, 14976, Note_on_c, 2, 34, 56
4, 15356, Note_off_c, 2, 46, 60
4, 15356, Note_off_c, 2, 34, 60
4, 15360, Note_on_c, 2, 51, 56
4, 15360, Note_on_c, 2, 39, 56
4, 15740, Note_off_c, 2, 51, 60
4, 15740, Note_off_c, 2, 39, 60
4, 15744, Note_on_c, 2, 55, 56
4, 16124, Note_off_c, 2, 55, 60
4, 16128, Note_on_c, 2, 56, 56
4, 16508, Note_off_c, 2, 56, 60
4, 16512, Note_on_c, 2, 44, 56
4, 16892, Note_off_c, 2, 44, 60
4, 16896, Note_on_c, 2, 43, 56
4, 16988, Note_off_c, 2, 43, 60
4, 16992, Note_on_c, 2, 58, 56
4, 17084, Note_off_c, 2, 58, 60
4, 17088, Note_on_c, 2, 58, 56
4, 17180, Note_off_c, 2, 58, 60
4, 17184, Note_on_c, 2, 58, 56
4, 17276, Note_off_c, 2, 58, 60
4, 17280, Note_on_c, 2, 51, 56
4, 17372, Note_off_c, 2, 51, 60
4, 17376, Note_on_c, 2, 58, 56
4, 17468, Note_off_c, 2, 58, 60
4, 17472, Note_on_c, 2, 58, 56
4, 17564, Note_off_c, 2, 58, 60
4, 17568, Note_on_c, 2, 58, 56
4, 17660, Note_off_c, 2, 58, 60
4, 17664, Note_on_c, 2, 46, 56
4, 17756, Note_off_c, 2, 46, 60
4, 17760, Note_on_c, 2, 58, 56
4, 17852, Note_off_c, 2, 58, 60
4, 17856, Note_on_c, 2, 58, 56
4, 17948, Note_off_c, 2, 58, 60
4, 17952, Note_on_c, 2, 58, 56
4, 18044, Note_off_c, 2, 58, 60
4, 18048, Note_on_c, 2, 46, 56
4, 18140, Note_off_c, 2, 46, 60
4, 18144, Note_on_c, 2, 58, 56
4, 18236, Note_off_c, 2, 58, 60
4, 18240, Note_on_c, 2, 58, 56
4, 18332, Note_off_c, 2, 58, 60
4, 18336, Note_on_c, 2, 58, 56
4, 18428, Note_off_c, 2, 58, 60
4, 18432, Note_on_c, 2, 51, 56
4, 18524, Note_off_c, 2, 51, 60
4, 18528, Note_on_c, 2, 58, 56
4, 18620, Note_off_c, 2, 58, 60
4, 18624, Note_on_c, 2, 58, 56
4, 18716, Note_off_c, 2, 58, 60
4, 18720, Note_on_c, 2, 58, 56
4, 18812, Note_off_c, 2, 58, 60
4, 18816, Note_on_c, 2, 46, 56
4, 18908, Note_off_c, 2, 46, 60
4, 18912, Note_on_c, 2, 58, 56
4, 19004, Note_off_c, 2, 58, 60
4, 19008, Note_on_c, 2, 58, 56
4, 19100, Note_off_c, 2, 58, 60
4, 19104, Note_on_c, 2, 58, 56
4, 19196, Note_off_c, 2, 58, 60
4, 19200, Note_on_c, 2, 53, 56
4, 19292, Note_off_c, 2, 53, 60
4, 19296, Note_on_c, 2, 58, 56
4, 19388, Note_off_c, 2, 58, 60
4, 19392, Note_on_c, 2, 58, 56
4, 19484, Note_off_c, 2, 58, 60
4, 19488, Note_on_c, 2, 58, 56
4, 19580, Note_off_c, 2, 58, 60
4, 19584, Note_on_c, 2, 46, 56
4, 19676, Note_off_c, 2, 46, 60
4, 19680, Note_on_c, 2, 58, 56
4, 19772, Note_off_c, 2, 58, 60
4, 19776, Note_on_c, 2, 58, 56
4, 19868, Note_off_c, 2, 58, 60
4, 19872, Note_on_c, 2, 58, 56
4, 19964, Note_off_c, 2, 58, 60
4, 19968, Note_on_c, 2, 51, 56
4, 20348, Note_off_c, 2, 51, 60
4, 20352, Note_on_c, 2, 55, 56
4, 20352, Note_on_c, 2, 43, 56
4, 20732, Note_off_c, 2, 55, 60
4, 20732, Note_off_c, 2, 43, 60
4, 20736, Note_on_c, 2, 56, 56
4, 20736, Note_on_c, 2, 44, 56
4, 21116, Note_off_c, 2, 56, 60
4, 21116, Note_off_c, 2, 44, 60
4, 21120, Note_on_c, 2, 32, 56
4, 21120, Note_on_c, 2, 44, 56
4, 21476, Note_off_c, 2, 32, 60
4, 21500, Note_off_c, 2, 44, 60
4, 21504, Note_on_c, 2, 43, 56
4, 21504, Note_on_c, 2, 31, 56
4, 22076, Note_off_c, 2, 43, 60
4, 22076, Note_off_c, 2, 31, 60
4, 22968, Note_on_c, 2, 43, 56
4, 23036, Note_off_c, 2, 43, 60
4, 23040, Note_on_c, 2, 51, 56
4, 23040, Note_on_c, 2, 48, 56
4, 23040, Note_on_c, 2, 44, 56
4, 23040, Note_on_c, 2, 39, 56
4, 23040, Note_on_c, 2, 36, 56
4, 23040, Note_on_c, 2, 32, 56
4, 23608, Note_off_c, 2, 32, 60
4, 23612, Note_off_c, 2, 51, 60
4, 23612, Note_off_c, 2, 48, 60
4, 23612, Note_off_c, 2, 44, 60
4, 23612, Note_off_c, 2, 39, 60
4, 23612, Note_off_c, 2, 36, 60
4, 24576, Note_on_c, 2, 55, 54
4, 24576, Note_on_c, 2, 51, 54
4, 24576, Note_on_c, 2, 46, 54
4, 25088, Note_off_c, 2, 55, 57
4, 25088, Note_off_c, 2, 51, 57
4, 25088, Note_off_c, 2, 46, 57
4, 25728, Note_on_c, 2, 46, 54
4, 25728, Note_on_c, 2, 34, 54
4, 25920, Note_on_c, 2, 53, 54
4, 25984, Note_off_c, 2, 46, 57
4, 25984, Note_off_c, 2, 34, 57
4, 26048, Note_off_c, 2, 53, 57
4, 26112, Note_on_c, 2, 51, 54
4, 26112, Note_on_c, 2, 39, 54
4, 26176, Note_off_c, 2, 51, 57
4, 26176, Note_off_c, 2, 39, 57
4, 26240, Note_on_c, 2, 51, 54
4, 26272, Note_off_c, 2, 51, 57
4, 26304, Note_on_c, 2, 55, 54
4, 26368, Note_off_c, 2, 55, 57
4, 26432, Note_on_c, 2, 51, 54
4, 26464, Note_off_c, 2, 51, 57
4, 26496, Note_on_c, 2, 58, 54
4, 26560, Note_off_c, 2, 58, 57
4, 26624, Note_on_c, 2, 55, 54
4, 26656, Note_off_c, 2, 55, 57
4, 26688, Note_on_c, 2, 63, 54
4, 26752, Note_off_c, 2, 63, 57
4, 26816, Note_on_c, 2, 58, 54
4, 26848, Note_off_c, 2, 58, 57
4, 26880, Note_on_c, 2, 67, 54
4, 26944, Note_off_c, 2, 67, 57
4, 27008, Note_on_c, 2, 65, 54
4, 27040, Note_off_c, 2, 65, 57
4, 27072, Note_on_c, 2, 63, 54
4, 27136, Note_off_c, 2, 63, 57
4, 27200, Note_on_c, 2, 62, 54
4, 27232, Note_off_c, 2, 62, 57
4, 27264, Note_on_c, 2, 60, 54
4, 27328, Note_off_c, 2, 60, 57
4, 27376, Note_on_c, 2, 58, 54
4, 27376, Note_on_c, 2, 58, 54
4, 27408, Note_off_c, 2, 58, 57
4, 27440, Note_off_c, 2, 58, 57
4, 27488, Note_on_c, 2, 57, 54
4, 27520, Note_off_c, 2, 57, 57
4, 27552, Note_on_c, 2, 55, 54
4, 27616, Note_off_c, 2, 55, 57
4, 27648, Note_on_c, 2, 53, 54
4, 27648, Note_on_c, 2, 62, 54
4, 27904, Note_off_c, 2, 53, 57
4, 27904, Note_off_c, 2, 62, 57
4, 28032, Note_on_c, 2, 60, 54
4, 28032, Note_on_c, 2, 51, 54
4, 28288, Note_off_c, 2, 60, 57
4, 28288, Note_off_c, 2, 51, 57
4, 28416, Note_on_c, 2, 50, 54
4, 28416, Note_on_c, 2, 59, 54
4, 28672, Note_off_c, 2, 50, 57
4, 28672, Note_off_c, 2, 59, 57
4, 29184, Note_on_c, 2, 68, 54
4, 29248, Note_off_c, 2, 68, 57
4, 29344, Note_on_c, 2, 67, 54
4, 29356, Note_off_c, 2, 67, 57
4, 29376, Note_on_c, 2, 65, 54
4, 29440, Note_off_c, 2, 65, 57
4, 29504, Note_on_c, 2, 63, 54
4, 29536, Note_off_c, 2, 63, 57
4, 29568, Note_on_c, 2, 62, 54
4, 29632, Note_off_c, 2, 62, 57
4, 29696, Note_on_c, 2, 60, 54
4, 29728, Note_off_c, 2, 60, 57
4, 29760, Note_on_c, 2, 58, 54
4, 29824, Note_off_c, 2, 58, 57
4, 29888, Note_on_c, 2, 57, 54
4, 29920, Note_off_c, 2, 57, 57
4, 29952, Note_on_c, 2, 55, 90
4, 30332, Note_off_c, 2, 55, 57
4, 30336, Note_on_c, 2, 53, 90
4, 30336, Note_on_c, 2, 62, 90
4, 30716, Note_off_c, 2, 53, 57
4, 30716, Note_off_c, 2, 62, 57
4, 30720, Note_on_c, 2, 52, 90
4, 30720, Note_on_c, 2, 61, 90
4, 31100, Note_off_c, 2, 52, 57
4, 31100, Note_off_c, 2, 61, 57
4, 31488, Note_on_c, 2, 58, 108
4, 31488, Note_on_c, 2, 52, 108
4, 31488, Note_on_c, 2, 55, 108
4, 31868, Note_off_c, 2, 58, 57
4, 31868, Note_off_c, 2, 52, 57
4, 31868, Note_off_c, 2, 55, 57
4, 31872, Note_on_c, 2, 58, 108
4, 31872, Note_on_c, 2, 53, 108
4, 31872, Note_on_c, 2, 49, 108
4, 32252, Note_off_c, 2, 58, 57
4, 32252, Note_off_c, 2, 53, 57
4, 32252, Note_off_c, 2, 49, 57
4, 32256, Note_on_c, 2, 58, 108
4, 32256, Note_on_c, 2, 55, 108
4, 32256, Note_on_c, 2, 52, 108
4, 32256, Note_on_c, 2, 48, 108
4, 32636, Note_off_c, 2, 58, 57
4, 32636, Note_off_c, 2, 55, 57
4, 32636, Note_off_c, 2, 52, 57
4, 32636, Note_off_c, 2, 48, 57
4, 33024, Note_on_c, 2, 48, 108
4, 33024, Note_on_c, 2, 36, 108
4, 33404, Note_off_c, 2, 48, 57
4, 33404, Note_off_c, 2, 36, 57
4, 33792, Note_on_c, 2, 41, 108
4, 33884, Note_off_c, 2, 41, 57
4, 33916, Note_on_c, 2, 43, 108
4, 33976, Note_off_c, 2, 43, 57
4, 33984, Note_on_c, 2, 45, 108
4, 34076, Note_off_c, 2, 45, 57
4, 34112, Note_on_c, 2, 46, 108
4, 34172, Note_off_c, 2, 46, 57
4, 34176, Note_on_c, 2, 48, 108
4, 34268, Note_off_c, 2, 48, 57
4, 34304, Note_on_c, 2, 50, 108
4, 34364, Note_off_c, 2, 50, 57
4, 34368, Note_on_c, 2, 51, 108
4, 34460, Note_off_c, 2, 51, 57
4, 34496, Note_on_c, 2, 53, 108
4, 34556, Note_off_c, 2, 53, 57
4, 34560, Note_on_c, 2, 46, 108
4, 34940, Note_off_c, 2, 46, 57
4, 35328, Note_on_c, 2, 39, 108
4, 35416, Note_off_c, 2, 39, 57
4, 35452, Note_on_c, 2, 41, 108
4, 35512, Note_off_c, 2, 41, 57
4, 35520, Note_on_c, 2, 43, 108
4, 35612, Note_off_c, 2, 43, 57
4, 35648, Note_on_c, 2, 44, 108
4, 35708, Note_off_c, 2, 44, 57
4, 35712, Note_on_c, 2, 46, 108
4, 35804, Note_off_c, 2, 46, 57
4, 35840, Note_on_c, 2, 48, 108
4, 35900, Note_off_c, 2, 48, 57
4, 35904, Note_on_c, 2, 50, 108
4, 35996, Note_off_c, 2, 50, 57
4, 36032, Note_on_c, 2, 51, 108
4, 36092, Note_off_c, 2, 51, 57
4, 36096, Note_on_c, 2, 39, 108
4, 36476, Note_off_c, 2, 39, 57
4, 36864, Note_on_c, 2, 29, 108
4, 36956, Note_off_c, 2, 29, 57
4, 36988, Note_on_c, 2, 31, 108
4, 37048, Note_off_c, 2, 31, 57
4, 37056, Note_on_c, 2, 33, 108
4, 37148, Note_off_c, 2, 33, 57
4, 37184, Note_on_c, 2, 34, 108
4, 37244, Note_off_c, 2, 34, 57
4, 37248, Note_on_c, 2, 36, 108
4, 37340, Note_off_c, 2, 36, 57
4, 37376, Note_on_c, 2, 37, 108
4, 37436, Note_off_c, 2, 37, 57
4, 37440, Note_on_c, 2, 40, 108
4, 37532, Note_off_c, 2, 40, 57
4, 37568, Note_on_c, 2, 41, 108
4, 37628, Note_off_c, 2, 41, 57
4, 37632, Note_on_c, 2, 29, 108
4, 38012, Note_off_c, 2, 29, 57
4, 38400, Note_on_c, 2, 31, 54
4, 38492, Note_off_c, 2, 31, 57
4, 38528, Note_on_c, 2, 32, 56
4, 38588, Note_off_c, 2, 32, 57
4, 38592, Note_on_c, 2, 34, 58
4, 38684, Note_off_c, 2, 34, 57
4, 38720, Note_on_c, 2, 36, 61
4, 38780, Note_off_c, 2, 36, 57
4, 38784, Note_on_c, 2, 37, 63
4, 38876, Note_off_c, 2, 37, 57
4, 38912, Note_on_c, 2, 39, 65
4, 38972, Note_off_c, 2, 39, 57
4, 38976, Note_on_c, 2, 41, 67
4, 39068, Note_off_c, 2, 41, 57
4, 39104, Note_on_c, 2, 42, 70
4, 39164, Note_off_c, 2, 42, 57
4, 39168, Note_on_c, 2, 43, 72
4, 39260, Note_off_c, 2, 43, 57
4, 39292, Note_on_c, 2, 45, 74
4, 39352, Note_off_c, 2, 45, 57
4, 39360, Note_on_c, 2, 46, 76
4, 39452, Note_off_c, 2, 46, 57
4, 39488, Note_on_c, 2, 48, 79
4, 39548, Note_off_c, 2, 48, 57
4, 39552, Note_on_c, 2, 50, 81
4, 39644, Note_off_c, 2, 50, 57
4, 39680, Note_on_c, 2, 51, 72
4, 39740, Note_off_c, 2, 51, 57
4, 39744, Note_on_c, 2, 53, 67
4, 39836, Note_off_c, 2, 53, 57
4, 39872, Note_on_c, 2, 55, 58
4, 39932, Note_off_c, 2, 55, 57
4, 39936, Note_on_c, 2, 56, 54
4, 39936, Note_on_c, 2, 44, 54
4, 40700, Note_off_c, 2, 56, 57
4, 40700, Note_off_c, 2, 44, 57
4, 40704, Note_on_c, 2, 51, 45
4, 40704, Note_on_c, 2, 39, 45
4, 41468, Note_off_c, 2, 51, 57
4, 41468, Note_off_c, 2, 39, 57
4, 41472, Note_on_c, 2, 44, 54
4, 41472, Note_on_c, 2, 32, 54
4, 41852, Note_off_c, 2, 44, 57
4, 41852, Note_off_c, 2, 32, 57
4, 41856, Note_on_c, 2, 48, 54
4, 41856, Note_on_c, 2, 36, 54
4, 42236, Note_off_c, 2, 48, 57
4, 42236, Note_off_c, 2, 36, 57
4, 42240, Note_on_c, 2, 43, 54
4, 42240, Note_on_c, 2, 31, 54
4, 42620, Note_off_c, 2, 43, 57
4, 42620, Note_off_c, 2, 31, 57
4, 42624, Note_on_c, 2, 44, 54
4, 42624, Note_on_c, 2, 32, 54
4, 43004, Note_off_c, 2, 44, 57
4, 43004, Note_off_c, 2, 32, 57
4, 43008, Note_on_c, 2, 49, 54
4, 43008, Note_on_c, 2, 37, 54
4, 43388, Note_off_c, 2, 49, 57
4, 43388, Note_off_c, 2, 37, 57
4, 43392, Note_on_c, 2, 46, 54
4, 43392, Note_on_c, 2, 34, 54
4, 43772, Note_off_c, 2, 46, 57
4, 43772, Note_off_c, 2, 34, 57
4, 43776, Note_on_c, 2, 48, 54
4, 43776, Note_on_c, 2, 36, 54
4, 43776, Note_on_c, 2, 48, 54
4, 44156, Note_off_c, 2, 48, 57
4, 44156, Note_off_c, 2, 36, 57
4, 44156, Note_off_c, 2, 48, 57
4, 44160, Note_on_c, 2, 39, 54
4, 44540, Note_off_c, 2, 39, 57
4, 44544, Note_on_c, 2, 44, 99
4, 44636, Note_off_c, 2, 44, 57
4, 44640, Note_on_c, 2, 56, 99
4, 44640, Note_on_c, 2, 60, 99
4, 44640, Note_on_c, 2, 63, 99
4, 44732, Note_off_c, 2, 56, 57
4, 44732, Note_off_c, 2, 60, 57
4, 44732, Note_off_c, 2, 63, 57
4, 44736, Note_on_c, 2, 56, 99
4, 44736, Note_on_c, 2, 60, 99
4, 44736, Note_on_c, 2, 63, 99
4, 44828, Note_off_c, 2, 56, 57
4, 44828, Note_off_c, 2, 60, 57
4, 44828, Note_off_c, 2, 63, 57
4, 44832, Note_on_c, 2, 56, 99
4, 44832, Note_on_c, 2, 60, 99
4, 44832, Note_on_c, 2, 63, 99
4, 44924, Note_off_c, 2, 56, 57
4, 44924, Note_off_c, 2, 60, 57
4, 44924, Note_off_c, 2, 63, 57
4, 44928, Note_on_c, 2, 57, 99
4, 44928, Note_on_c, 2, 60, 99
4, 44928, Note_on_c, 2, 63, 99
4, 45020, Note_off_c, 2, 57, 57
4, 45020, Note_off_c, 2, 60, 57
4, 45020, Note_off_c, 2, 63, 57
4, 45024, Note_on_c, 2, 63, 99
4, 45024, Note_on_c, 2, 60, 99
4, 45024, Note_on_c, 2, 57, 99
4, 45116, Note_off_c, 2, 63, 57
4, 45116, Note_off_c, 2, 60, 57
4, 45116, Note_off_c, 2, 57, 57
4, 45120, Note_on_c, 2, 63, 99
4, 45120, Note_on_c, 2, 60, 99
4, 45120, Note_on_c, 2, 57, 99
4, 45212, Note_off_c, 2, 63, 57
4, 45212, Note_off_c, 2, 60, 57
4, 45212, Note_off_c, 2, 57, 57
4, 45216, Note_on_c, 2, 63, 99
4, 45216, Note_on_c, 2, 60, 99
4, 45216, Note_on_c, 2, 57, 99
4, 45308, Note_off_c, 2, 63, 57
4, 45308, Note_off_c, 2, 60, 57
4, 45308, Note_off_c, 2, 57, 57
4, 45312, Note_on_c, 2, 58, 99
4, 45312, Note_on_c, 2, 61, 99
4, 45404, Note_off_c, 2, 58, 57
4, 45404, Note_off_c, 2, 61, 57
4, 45408, Note_on_c, 2, 58, 99
4, 45408, Note_on_c, 2, 61, 99
4, 45500, Note_off_c, 2, 58, 57
4, 45500, Note_off_c, 2, 61, 57
4, 45504, Note_on_c, 2, 58, 99
4, 45504, Note_on_c, 2, 61, 99
4, 45596, Note_off_c, 2, 58, 57
4, 45596, Note_off_c, 2, 61, 57
4, 45600, Note_on_c, 2, 58, 99
4, 45600, Note_on_c, 2, 61, 99
4, 45692, Note_off_c, 2, 58, 57
4, 45692, Note_off_c, 2, 61, 57
4, 45696, Note_on_c, 2, 51, 99
4, 45696, Note_on_c, 2, 53, 99
4, 45696, Note_on_c, 2, 57, 99
4, 45696, Note_on_c, 2, 60, 99
4, 45788, Note_off_c, 2, 51, 57
4, 45788, Note_off_c, 2, 53, 57
4, 45788, Note_off_c, 2, 57, 57
4, 45788, Note_off_c, 2, 60, 57
4, 45792, Note_on_c, 2, 51, 99
4, 45792, Note_on_c, 2, 53, 99
4, 45792, Note_on_c, 2, 57, 99
4, 45792, Note_on_c, 2, 60, 99
4, 45884, Note_off_c, 2, 51, 57
4, 45884, Note_off_c, 2, 53, 57
4, 45884, Note_off_c, 2, 57, 57
4, 45884, Note_off_c, 2, 60, 57
4, 45888, Note_on_c, 2, 51, 99
4, 45888, Note_on_c, 2, 53, 99
4, 45888, Note_on_c, 2, 57, 99
4, 45888, Note_on_c, 2, 60, 99
4, 45980, Note_off_c, 2, 51, 57
4, 45980, Note_off_c, 2, 53, 57
4, 45980, Note_off_c, 2, 57, 57
4, 45980, Note_off_c, 2, 60, 57
4, 45984, Note_on_c, 2, 51, 99
4, 45984, Note_on_c, 2, 53, 99
4, 45984, Note_on_c, 2, 57, 99
4, 45984, Note_on_c, 2, 60, 99
4, 46076, Note_off_c, 2, 51, 57
4, 46076, Note_off_c, 2, 53, 57
4, 46076, Note_off_c, 2, 57, 57
4, 46076, Note_off_c, 2, 60, 57
4, 46080, Note_on_c, 2, 49, 99
4, 46080, Note_on_c, 2, 53, 99
4, 46080, Note_on_c, 2, 58, 99
4, 46172, Note_off_c, 2, 49, 57
4, 46172, Note_off_c, 2, 53, 57
4, 46172, Note_off_c, 2, 58, 57
4, 46176, Note_on_c, 2, 58, 99
4, 46176, Note_on_c, 2, 53, 99
4, 46176, Note_on_c, 2, 49, 99
4, 46268, Note_off_c, 2, 58, 57
4, 46268, Note_off_c, 2, 53, 57
4, 46268, Note_off_c, 2, 49, 57
4, 46272, Note_on_c, 2, 49, 99
4, 46272, Note_on_c, 2, 53, 99
4, 46272, Note_on_c, 2, 58, 99
4, 46364, Note_off_c, 2, 49, 57
4, 46364, Note_off_c, 2, 53, 57
4, 46364, Note_off_c, 2, 58, 57
4, 46368, Note_on_c, 2, 58, 99
4, 46368, Note_on_c, 2, 53, 99
4, 46368, Note_on_c, 2, 49, 99
4, 46460, Note_off_c, 2, 58, 57
4, 46460, Note_off_c, 2, 53, 57
4, 46460, Note_off_c, 2, 49, 57
4, 46464, Note_on_c, 2, 50, 99
4, 46464, Note_on_c, 2, 53, 99
4, 46464, Note_on_c, 2, 59, 99
4, 46556, Note_off_c, 2, 50, 57
4, 46556, Note_off_c, 2, 53, 57
4, 46556, Note_off_c, 2, 59, 57
4, 46560, Note_on_c, 2, 59, 99
4, 46560, Note_on_c, 2, 53, 99
4, 46560, Note_on_c, 2, 50, 99
4, 46652, Note_off_c, 2, 59, 57
4, 46652, Note_off_c, 2, 53, 57
4, 46652, Note_off_c, 2, 50, 57
4, 46656, Note_on_c, 2, 50, 99
4, 46656, Note_on_c, 2, 53, 99
4, 46656, Note_on_c, 2, 59, 99
4, 46748, Note_off_c, 2, 50, 57
4, 46748, Note_off_c, 2, 53, 57
4, 46748, Note_off_c, 2, 59, 57
4, 46752, Note_on_c, 2, 59, 99
4, 46752, Note_on_c, 2, 53, 99
4, 46752, Note_on_c, 2, 50, 99
4, 46844, Note_off_c, 2, 59, 57
4, 46844, Note_off_c, 2, 53, 57
4, 46844, Note_off_c, 2, 50, 57
4, 46848, Note_on_c, 2, 60, 99
4, 46848, Note_on_c, 2, 55, 99
4, 46848, Note_on_c, 2, 48, 99
4, 46940, Note_off_c, 2, 60, 57
4, 46940, Note_off_c, 2, 55, 57
4, 46940, Note_off_c, 2, 48, 57
4, 46944, Note_on_c, 2, 60, 99
4, 46944, Note_on_c, 2, 55, 99
4, 46944, Note_on_c, 2, 48, 99
4, 47036, Note_off_c, 2, 60, 57
4, 47036, Note_off_c, 2, 55, 57
4, 47036, Note_off_c, 2, 48, 57
4, 47040, Note_on_c, 2, 60, 99
4, 47040, Note_on_c, 2, 55, 99
4, 47040, Note_on_c, 2, 48, 99
4, 47132, Note_off_c, 2, 60, 57
4, 47132, Note_off_c, 2, 55, 57
4, 47132, Note_off_c, 2, 48, 57
4, 47136, Note_on_c, 2, 60, 99
4, 47136, Note_on_c, 2, 55, 99
4, 47136, Note_on_c, 2, 48, 99
4, 47228, Note_off_c, 2, 60, 57
4, 47228, Note_off_c, 2, 55, 57
4, 47228, Note_off_c, 2, 48, 57
4, 47232, Note_on_c, 2, 53, 99
4, 47232, Note_on_c, 2, 55, 99
4, 47232, Note_on_c, 2, 62, 99
4, 47232, Note_on_c, 2, 59, 99
4, 47324, Note_off_c, 2, 53, 57
4, 47324, Note_off_c, 2, 55, 57
4, 47324, Note_off_c, 2, 62, 57
4, 47324, Note_off_c, 2, 59, 57
4, 47328, Note_on_c, 2, 53, 99
4, 47328, Note_on_c, 2, 55, 99
4, 47328, Note_on_c, 2, 59, 99
4, 47328, Note_on_c, 2, 62, 99
4, 47420, Note_off_c, 2, 53, 57
4, 47420, Note_off_c, 2, 55, 57
4, 47420, Note_off_c, 2, 59, 57
4, 47420, Note_off_c, 2, 62, 57
4, 47424, Note_on_c, 2, 53, 99
4, 47424, Note_on_c, 2, 55, 99
4, 47424, Note_on_c, 2, 59, 99
4, 47424, Note_on_c, 2, 62, 99
4, 47516, Note_off_c, 2, 53, 57
4, 47516, Note_off_c, 2, 55, 57
4, 47516, Note_off_c, 2, 59, 57
4, 47516, Note_off_c, 2, 62, 57
4, 47520, Note_on_c, 2, 53, 99
4, 47520, Note_on_c, 2, 55, 99
4, 47520, Note_on_c, 2, 59, 99
4, 47520, Note_on_c, 2, 62, 99
4, 47612, Note_off_c, 2, 53, 57
4, 47612, Note_off_c, 2, 55, 57
4, 47612, Note_off_c, 2, 59, 57
4, 47612, Note_off_c, 2, 62, 57
4, 47616, Note_on_c, 2, 51, 99
4, 47616, Note_on_c, 2, 55, 99
4, 47616, Note_on_c, 2, 60, 99
4, 47708, Note_off_c, 2, 51, 57
4, 47708, Note_off_c, 2, 55, 57
4, 47708, Note_off_c, 2, 60, 57
4, 47712, Note_on_c, 2, 60, 99
4, 47712, Note_on_c, 2, 55, 99
4, 47712, Note_on_c, 2, 51, 99
4, 47804, Note_off_c, 2, 60, 57
4, 47804, Note_off_c, 2, 55, 57
4, 47804, Note_off_c, 2, 51, 57
4, 47808, Note_on_c, 2, 51, 99
4, 47808, Note_on_c, 2, 55, 99
4, 47808, Note_on_c, 2, 60, 99
4, 47900, Note_off_c, 2, 51, 57
4, 47900, Note_off_c, 2, 55, 57
4, 47900, Note_off_c, 2, 60, 57
4, 47904, Note_on_c, 2, 60, 99
4, 47904, Note_on_c, 2, 55, 99
4, 47904, Note_on_c, 2, 51, 99
4, 47996, Note_off_c, 2, 60, 57
4, 47996, Note_off_c, 2, 55, 57
4, 47996, Note_off_c, 2, 51, 57
4, 48000, Note_on_c, 2, 52, 99
4, 48000, Note_on_c, 2, 55, 99
4, 48000, Note_on_c, 2, 61, 99
4, 48092, Note_off_c, 2, 52, 57
4, 48092, Note_off_c, 2, 55, 57
4, 48092, Note_off_c, 2, 61, 57
4, 48096, Note_on_c, 2, 61, 99
4, 48096, Note_on_c, 2, 55, 99
4, 48096, Note_on_c, 2, 52, 99
4, 48188, Note_off_c, 2, 61, 57
4, 48188, Note_off_c, 2, 55, 57
4, 48188, Note_off_c, 2, 52, 57
4, 48192, Note_on_c, 2, 52, 99
4, 48192, Note_on_c, 2, 55, 99
4, 48192, Note_on_c, 2, 61, 99
4, 48284, Note_off_c, 2, 52, 57
4, 48284, Note_off_c, 2, 55, 57
4, 48284, Note_off_c, 2, 61, 57
4, 48288, Note_on_c, 2, 61, 99
4, 48288, Note_on_c, 2, 55, 99
4, 48288, Note_on_c, 2, 52, 99
4, 48380, Note_off_c, 2, 61, 57
4, 48380, Note_off_c, 2, 55, 57
4, 48380, Note_off_c, 2, 52, 57
4, 48384, Note_on_c, 2, 62, 99
4, 48384, Note_on_c, 2, 57, 99
4, 48384, Note_on_c, 2, 50, 99
4, 48476, Note_off_c, 2, 62, 57
4, 48476, Note_off_c, 2, 57, 57
4, 48476, Note_off_c, 2, 50, 57
4, 48480, Note_on_c, 2, 62, 99
4, 48480, Note_on_c, 2, 57, 99
4, 48480, Note_on_c, 2, 50, 99
4, 48572, Note_off_c, 2, 62, 57
4, 48572, Note_off_c, 2, 57, 57
4, 48572, Note_off_c, 2, 50, 57
4, 48576, Note_on_c, 2, 62, 99
4, 48576, Note_on_c, 2, 57, 99
4, 48576, Note_on_c, 2, 50, 99
4, 48668, Note_off_c, 2, 62, 57
4, 48668, Note_off_c, 2, 57, 57
4, 48668, Note_off_c, 2, 50, 57
4, 48672, Note_on_c, 2, 62, 99
4, 48672, Note_on_c, 2, 57, 99
4, 48672, Note_on_c, 2, 50, 99
4, 48764, Note_off_c, 2, 62, 57
4, 48764, Note_off_c, 2, 57, 57
4, 48764, Note_off_c, 2, 50, 57
4, 48768, Note_on_c, 2, 55, 99
4, 48768, Note_on_c, 2, 57, 99
4, 48768, Note_on_c, 2, 61, 99
4, 48768, Note_on_c, 2, 64, 99
4, 48860, Note_off_c, 2, 55, 57
4, 48860, Note_off_c, 2, 57, 57
4, 48860, Note_off_c, 2, 61, 57
4, 48860, Note_off_c, 2, 64, 57
4, 48864, Note_on_c, 2, 55, 99
4, 48864, Note_on_c, 2, 57, 99
4, 48864, Note_on_c, 2, 61, 99
4, 48864, Note_on_c, 2, 64, 99
4, 48956, Note_off_c, 2, 55, 57
4, 48956, Note_off_c, 2, 57, 57
4, 48956, Note_off_c, 2, 61, 57
4, 48956, Note_off_c, 2, 64, 57
4, 48960, Note_on_c, 2, 55, 99
4, 48960, Note_on_c, 2, 57, 99
4, 48960, Note_on_c, 2, 61, 99
4, 48960, Note_on_c, 2, 64, 99
4, 49052, Note_off_c, 2, 55, 57
4, 49052, Note_off_c, 2, 57, 57
4, 49052, Note_off_c, 2, 61, 57
4, 49052, Note_off_c, 2, 64, 57
4, 49056, Note_on_c, 2, 55, 99
4, 49056, Note_on_c, 2, 57, 99
4, 49056, Note_on_c, 2, 61, 99
4, 49056, Note_on_c, 2, 64, 99
4, 49148, Note_off_c, 2, 55, 57
4, 49148, Note_off_c, 2, 57, 57
4, 49148, Note_off_c, 2, 61, 57
4, 49148, Note_off_c, 2, 64, 57
4, 49152, Note_on_c, 2, 55, 99
4, 49164, Note_on_c, 2, 58, 99
4, 49180, Note_on_c, 2, 64, 99
4, 49196, Note_on_c, 2, 61, 99
4, 49340, Note_off_c, 2, 55, 57
4, 49352, Note_off_c, 2, 58, 57
4, 49368, Note_off_c, 2, 64, 57
4, 49384, Note_off_c, 2, 61, 57
4, 55296, Note_on_c, 2, 50, 72
4, 55296, Note_on_c, 2, 62, 72
4, 55424, Note_off_c, 2, 50, 57
4, 55424, Note_off_c, 2, 62, 57
4, 55488, Note_on_c, 2, 50, 72
4, 55488, Note_on_c, 2, 62, 72
4, 55616, Note_off_c, 2, 50, 57
4, 55616, Note_off_c, 2, 62, 57
4, 55680, Note_on_c, 2, 50, 72
4, 55680, Note_on_c, 2, 62, 72
4, 55808, Note_off_c, 2, 50, 57
4, 55808, Note_off_c, 2, 62, 57
4, 55872, Note_on_c, 2, 50, 72
4, 55872, Note_on_c, 2, 62, 72
4, 56000, Note_off_c, 2, 50, 57
4, 56000, Note_off_c, 2, 62, 57
4, 56064, Note_on_c, 2, 50, 72
4, 56064, Note_on_c, 2, 62, 72
4, 56192, Note_off_c, 2, 50, 57
4, 56192, Note_off_c, 2, 62, 57
4, 56256, Note_on_c, 2, 50, 72
4, 56256, Note_on_c, 2, 62, 72
4, 56384, Note_off_c, 2, 50, 57
4, 56384, Note_off_c, 2, 62, 57
4, 56448, Note_on_c, 2, 50, 72
4, 56448, Note_on_c, 2, 62, 72
4, 56576, Note_off_c, 2, 50, 57
4, 56576, Note_off_c, 2, 62, 57
4, 56640, Note_on_c, 2, 50, 72
4, 56640, Note_on_c, 2, 62, 72
4, 56768, Note_off_c, 2, 50, 57
4, 56768, Note_off_c, 2, 62, 57
4, 56832, Note_on_c, 2, 50, 72
4, 56832, Note_on_c, 2, 62, 72
4, 56960, Note_off_c, 2, 50, 57
4, 56960, Note_off_c, 2, 62, 57
4, 57024, Note_on_c, 2, 50, 72
4, 57024, Note_on_c, 2, 62, 72
4, 57152, Note_off_c, 2, 50, 57
4, 57152, Note_off_c, 2, 62, 57
4, 57216, Note_on_c, 2, 50, 72
4, 57216, Note_on_c, 2, 62, 72
4, 57344, Note_off_c, 2, 50, 57
4, 57344, Note_off_c, 2, 62, 57
4, 57408, Note_on_c, 2, 50, 72
4, 57408, Note_on_c, 2, 62, 72
4, 57536, Note_off_c, 2, 50, 57
4, 57536, Note_off_c, 2, 62, 57
4, 57600, Note_on_c, 2, 50, 72
4, 57600, Note_on_c, 2, 62, 72
4, 57728, Note_off_c, 2, 50, 57
4, 57728, Note_off_c, 2, 62, 57
4, 57792, Note_on_c, 2, 50, 72
4, 57792, Note_on_c, 2, 62, 72
4, 57920, Note_off_c, 2, 50, 57
4, 57920, Note_off_c, 2, 62, 57
4, 57984, Note_on_c, 2, 50, 72
4, 57984, Note_on_c, 2, 62, 72
4, 58112, Note_off_c, 2, 50, 57
4, 58112, Note_off_c, 2, 62, 57
4, 58176, Note_on_c, 2, 50, 72
4, 58176, Note_on_c, 2, 62, 72
4, 58304, Note_off_c, 2, 50, 57
4, 58304, Note_off_c, 2, 62, 57
4, 58368, Note_on_c, 2, 62, 90
4, 58368, Note_on_c, 2, 50, 90
4, 58752, Note_off_c, 2, 62, 57
4, 58752, Note_off_c, 2, 50, 57
4, 61376, Note_on_c, 2, 61, 90
4, 61376, Note_on_c, 2, 58, 90
4, 61376, Note_on_c, 2, 55, 90
4, 61376, Note_on_c, 2, 51, 90
4, 61408, Note_off_c, 2, 61, 57
4, 61408, Note_off_c, 2, 58, 57
4, 61408, Note_off_c, 2, 55, 57
4, 61408, Note_off_c, 2, 51, 57
4, 61440, Note_on_c, 2, 61, 90
4, 61440, Note_on_c, 2, 58, 90
4, 61440, Note_on_c, 2, 55, 90
4, 61440, Note_on_c, 2, 51, 90
4, 61952, Note_off_c, 2, 61, 57
4, 61952, Note_off_c, 2, 58, 57
4, 61952, Note_off_c, 2, 55, 57
4, 61952, Note_off_c, 2, 51, 57
4, 62208, Note_on_c, 2, 58, 67
4, 62208, Note_on_c, 2, 62, 67
4, 62208, Note_on_c, 2, 55, 67
4, 62208, Note_on_c, 2, 50, 67
4, 62336, Note_off_c, 2, 58, 57
4, 62336, Note_off_c, 2, 62, 57
4, 62336, Note_off_c, 2, 55, 57
4, 62336, Note_off_c, 2, 50, 57
4, 62592, Note_on_c, 2, 50, 56
4, 62592, Note_on_c, 2, 38, 56
4, 62720, Note_off_c, 2, 50, 57
4, 62720, Note_off_c, 2, 38, 57
4, 62976, Note_on_c, 2, 55, 45
4, 62976, Note_on_c, 2, 43, 45
4, 63232, Note_off_c, 2, 55, 57
4, 63232, Note_off_c, 2, 43, 57
4, 64832, Note_on_c, 2, 51, 45
4, 64832, Note_on_c, 2, 39, 45
4, 64864, Note_off_c, 2, 51, 57
4, 64864, Note_off_c, 2, 39, 57
4, 64896, Note_on_c, 2, 51, 45
4, 64896, Note_on_c, 2, 39, 45
4, 65152, Note_off_c, 2, 51, 57
4, 65152, Note_off_c, 2, 39, 57
4, 65280, Note_on_c, 2, 50, 45
4, 65280, Note_on_c, 2, 38, 45
4, 65408, Note_off_c, 2, 50, 57
4, 65408, Note_off_c, 2, 38, 57
4, 65664, Note_on_c, 2, 50, 45
4, 65664, Note_on_c, 2, 38, 45
4, 65792, Note_off_c, 2, 50, 57
4, 65792, Note_off_c, 2, 38, 57
4, 67584, Note_on_c, 2, 55, 54
4, 67584, Note_on_c, 2, 43, 54
4, 69884, Note_off_c, 2, 55, 57
4, 69884, Note_off_c, 2, 43, 57
4, 69888, Note_on_c, 2, 55, 54
4, 69888, Note_on_c, 2, 43, 54
4, 71420, Note_off_c, 2, 55, 57
4, 71420, Note_off_c, 2, 43, 57
4, 76800, Note_on_c, 2, 50, 54
4, 76800, Note_on_c, 2, 42, 54
4, 77948, Note_off_c, 2, 50, 57
4, 77948, Note_off_c, 2, 42, 57
4, 77952, Note_on_c, 2, 50, 54
4, 77952, Note_on_c, 2, 43, 54
4, 78332, Note_off_c, 2, 50, 57
4, 78332, Note_off_c, 2, 43, 57
4, 79104, Note_on_c, 2, 62, 54
4, 79104, Note_on_c, 2, 54, 54
4, 80252, Note_off_c, 2, 62, 57
4, 80252, Note_off_c, 2, 54, 57
4, 80256, Note_on_c, 2, 62, 54
4, 80256, Note_on_c, 2, 55, 54
4, 80636, Note_off_c, 2, 62, 57
4, 80636, Note_off_c, 2, 55, 57
4, 81408, Note_on_c, 2, 59, 54
4, 81408, Note_on_c, 2, 55, 54
4, 81408, Note_on_c, 2, 47, 54
4, 82556, Note_off_c, 2, 59, 57
4, 82556, Note_off_c, 2, 55, 57
4, 82556, Note_off_c, 2, 47, 57
4, 82560, Note_on_c, 2, 60, 54
4, 82560, Note_on_c, 2, 55, 54
4, 82560, Note_on_c, 2, 48, 54
4, 83132, Note_off_c, 2, 60, 57
4, 83132, Note_off_c, 2, 55, 57
4, 83132, Note_off_c, 2, 48, 57
4, 90624, Note_on_c, 2, 60, 54
4, 90624, Note_on_c, 2, 57, 54
4, 90624, Note_on_c, 2, 50, 54
4, 91772, Note_off_c, 2, 60, 57
4, 91772, Note_off_c, 2, 57, 57
4, 91772, Note_off_c, 2, 50, 57
4, 91776, Note_on_c, 2, 58, 54
4, 91776, Note_on_c, 2, 55, 54
4, 92032, Note_off_c, 2, 58, 57
4, 92032, Note_off_c, 2, 55, 57
4, 92928, Note_on_c, 2, 49, 54
4, 93696, Note_off_c, 2, 49, 57
4, 94080, Note_on_c, 2, 50, 54
4, 94336, Note_off_c, 2, 50, 57
4, 95232, Note_on_c, 2, 50, 54
4, 95232, Note_on_c, 2, 38, 54
4, 95488, Note_off_c, 2, 50, 57
4, 95488, Note_off_c, 2, 38, 57
4, 96384, Note_on_c, 2, 55, 90
4, 96384, Note_on_c, 2, 43, 90
4, 96764, Note_off_c, 2, 55, 57
4, 96764, Note_off_c, 2, 43, 57
4, 97920, Note_on_c, 2, 43, 90
4, 97920, Note_on_c, 2, 31, 90
4, 98300, Note_off_c, 2, 43, 57
4, 98300, Note_off_c, 2, 31, 57
4, 98304, Note_on_c, 2, 46, 90
4, 98304, Note_on_c, 2, 34, 90
4, 98684, Note_off_c, 2, 46, 57
4, 98684, Note_off_c, 2, 34, 57
4, 98688, Note_on_c, 2, 45, 90
4, 98688, Note_on_c, 2, 33, 90
4, 99068, Note_off_c, 2, 45, 57
4, 99068, Note_off_c, 2, 33, 57
4, 100224, Note_on_c, 2, 45, 90
4, 100224, Note_on_c, 2, 33, 90
4, 100604, Note_off_c, 2, 45, 57
4, 100604, Note_off_c, 2, 33, 57
4, 100608, Note_on_c, 2, 48, 90
4, 100608, Note_on_c, 2, 36, 90
4, 100988, Note_off_c, 2, 48, 57
4, 100988, Note_off_c, 2, 36, 57
4, 100992, Note_on_c, 2, 46, 90
4, 100992, Note_on_c, 2, 34, 90
4, 101372, Note_off_c, 2, 46, 57
4, 101372, Note_off_c, 2, 34, 57
4, 102528, Note_on_c, 2, 46, 90
4, 102528, Note_on_c, 2, 34, 90
4, 102908, Note_off_c, 2, 46, 57
4, 102908, Note_off_c, 2, 34, 57
4, 102912, Note_on_c, 2, 43, 90
4, 102912, Note_on_c, 2, 31, 90
4, 103288, Note_off_c, 2, 31, 57
4, 103292, Note_off_c, 2, 43, 57
4, 103296, Note_on_c, 2, 48, 90
4, 103296, Note_on_c, 2, 36, 90
4, 103664, Note_off_c, 2, 36, 57
4, 103676, Note_off_c, 2, 48, 57
4, 104448, Note_on_c, 2, 50, 90
4, 104448, Note_on_c, 2, 38, 90
4, 104828, Note_off_c, 2, 50, 57
4, 104828, Note_off_c, 2, 38, 57
4, 105600, Note_on_c, 2, 58, 90
4, 105728, Note_on_c, 2, 62, 90
4, 105732, Note_off_c, 2, 58, 57
4, 105860, Note_off_c, 2, 62, 57
4, 105860, Note_on_c, 2, 67, 90
4, 105984, Note_on_c, 2, 58, 90
4, 105988, Note_off_c, 2, 67, 57
4, 106112, Note_on_c, 2, 62, 90
4, 106116, Note_off_c, 2, 58, 57
4, 106240, Note_on_c, 2, 67, 90
4, 106244, Note_off_c, 2, 62, 57
4, 106368, Note_off_c, 2, 67, 57
4, 106368, Note_on_c, 2, 58, 90
4, 106496, Note_on_c, 2, 62, 90
4, 106500, Note_off_c, 2, 58, 57
4, 106628, Note_off_c, 2, 62, 57
4, 106628, Note_on_c, 2, 67, 90
4, 106752, Note_off_c, 2, 67, 57
4, 106752, Note_on_c, 2, 58, 90
4, 106880, Note_on_c, 2, 62, 90
4, 106884, Note_off_c, 2, 58, 57
4, 107012, Note_off_c, 2, 62, 57
4, 107012, Note_on_c, 2, 67, 90
4, 107136, Note_on_c, 2, 58, 90
4, 107140, Note_off_c, 2, 67, 57
4, 107264, Note_on_c, 2, 62, 90
4, 107268, Note_off_c, 2, 58, 57
4, 107392, Note_on_c, 2, 67, 90
4, 107396, Note_off_c, 2, 62, 57
4, 107520, Note_off_c, 2, 67, 57
4, 107520, Note_on_c, 2, 58, 90
4, 107648, Note_on_c, 2, 62, 90
4, 107652, Note_off_c, 2, 58, 57
4, 107780, Note_off_c, 2, 62, 57
4, 107780, Note_on_c, 2, 67, 90
4, 107904, Note_off_c, 2, 67, 57
4, 107904, Note_on_c, 2, 60, 90
4, 108032, Note_on_c, 2, 62, 90
4, 108036, Note_off_c, 2, 60, 57
4, 108164, Note_off_c, 2, 62, 57
4, 108164, Note_on_c, 2, 67, 90
4, 108288, Note_on_c, 2, 60, 90
4, 108292, Note_off_c, 2, 67, 57
4, 108416, Note_on_c, 2, 62, 90
4, 108420, Note_off_c, 2, 60, 57
4, 108544, Note_on_c, 2, 66, 90
4, 108548, Note_off_c, 2, 62, 57
4, 108672, Note_off_c, 2, 66, 57
4, 108672, Note_on_c, 2, 60, 90
4, 108800, Note_on_c, 2, 62, 90
4, 108804, Note_off_c, 2, 60, 57
4, 108932, Note_off_c, 2, 62, 57
4, 108932, Note_on_c, 2, 66, 90
4, 109056, Note_off_c, 2, 66, 57
4, 109056, Note_on_c, 2, 60, 90
4, 109184, Note_on_c, 2, 62, 90
4, 109188, Note_off_c, 2, 60, 57
4, 109312, Note_on_c, 2, 66, 90
4, 109316, Note_off_c, 2, 62, 57
4, 109440, Note_off_c, 2, 66, 57
4, 109440, Note_on_c, 2, 60, 90
4, 109568, Note_on_c, 2, 62, 90
4, 109572, Note_off_c, 2, 60, 57
4, 109696, Note_on_c, 2, 66, 90
4, 109700, Note_off_c, 2, 62, 57
4, 109824, Note_off_c, 2, 66, 57
4, 109824, Note_on_c, 2, 60, 90
4, 109952, Note_on_c, 2, 62, 90
4, 109956, Note_off_c, 2, 60, 57
4, 110080, Note_on_c, 2, 66, 90
4, 110084, Note_off_c, 2, 62, 57
4, 110208, Note_off_c, 2, 66, 57
4, 110208, Note_on_c, 2, 58, 90
4, 110336, Note_on_c, 2, 62, 90
4, 110340, Note_off_c, 2, 58, 57
4, 110464, Note_on_c, 2, 67, 90
4, 110468, Note_off_c, 2, 62, 57
4, 110592, Note_off_c, 2, 67, 57
4, 110592, Note_on_c, 2, 58, 90
4, 110720, Note_on_c, 2, 62, 90
4, 110724, Note_off_c, 2, 58, 57
4, 110848, Note_on_c, 2, 67, 90
4, 110852, Note_off_c, 2, 62, 57
4, 110976, Note_off_c, 2, 67, 57
4, 110976, Note_on_c, 2, 58, 90
4, 111104, Note_on_c, 2, 62, 90
4, 111108, Note_off_c, 2, 58, 57
4, 111232, Note_on_c, 2, 67, 90
4, 111236, Note_off_c, 2, 62, 57
4, 111360, Note_off_c, 2, 67, 57
4, 111360, Note_on_c, 2, 58, 90
4, 111488, Note_on_c, 2, 62, 90
4, 111492, Note_off_c, 2, 58, 57
4, 111616, Note_on_c, 2, 67, 90
4, 111620, Note_off_c, 2, 62, 57
4, 111744, Note_off_c, 2, 67, 57
4, 111744, Note_on_c, 2, 58, 90
4, 111872, Note_on_c, 2, 62, 90
4, 111876, Note_off_c, 2, 58, 57
4, 112000, Note_on_c, 2, 67, 90
4, 112004, Note_off_c, 2, 62, 57
4, 112128, Note_off_c, 2, 67, 57
4, 112128, Note_on_c, 2, 58, 90
4, 112256, Note_on_c, 2, 62, 90
4, 112260, Note_off_c, 2, 58, 57
4, 112384, Note_on_c, 2, 67, 90
4, 112388, Note_off_c, 2, 62, 57
4, 112512, Note_off_c, 2, 67, 57
4, 112512, Note_on_c, 2, 45, 103
4, 112512, Note_on_c, 2, 41, 103
4, 112512, Note_on_c, 2, 38, 103
4, 112512, Note_on_c, 2, 35, 103
4, 114812, Note_off_c, 2, 45, 57
4, 114812, Note_off_c, 2, 41, 57
4, 114812, Note_off_c, 2, 38, 57
4, 114812, Note_off_c, 2, 35, 57
4, 114816, Note_on_c, 2, 32, 103
4, 114816, Note_on_c, 2, 43, 103
4, 115964, Note_off_c, 2, 32, 57
4, 115968, Note_on_c, 2, 58, 103
4, 115968, Note_on_c, 2, 32, 103
4, 116096, Note_on_c, 2, 53, 103
4, 116100, Note_off_c, 2, 58, 57
4, 116228, Note_off_c, 2, 53, 57
4, 116228, Note_on_c, 2, 50, 103
4, 116352, Note_on_c, 2, 53, 103
4, 116356, Note_off_c, 2, 50, 57
4, 116480, Note_on_c, 2, 50, 103
4, 116484, Note_off_c, 2, 53, 57
4, 116612, Note_off_c, 2, 50, 57
4, 116612, Note_on_c, 2, 46, 103
4, 116736, Note_on_c, 2, 53, 103
4, 116740, Note_off_c, 2, 46, 57
4, 116864, Note_on_c, 2, 50, 103
4, 116868, Note_off_c, 2, 53, 57
4, 116996, Note_off_c, 2, 50, 57
4, 116996, Note_on_c, 2, 46, 103
4, 117116, Note_off_c, 2, 32, 57
4, 117116, Note_off_c, 2, 43, 57
4, 117120, Note_on_c, 2, 51, 103
4, 117120, Note_on_c, 2, 43, 103
4, 117120, Note_on_c, 2, 31, 103
4, 117124, Note_off_c, 2, 46, 57
4, 117248, Note_on_c, 2, 46, 103
4, 117252, Note_off_c, 2, 51, 57
4, 117380, Note_off_c, 2, 46, 57
4, 117380, Note_on_c, 2, 51, 103
4, 117504, Note_on_c, 2, 55, 103
4, 117508, Note_off_c, 2, 51, 57
4, 117632, Note_on_c, 2, 51, 103
4, 117636, Note_off_c, 2, 55, 57
4, 117764, Note_off_c, 2, 51, 57
4, 117764, Note_on_c, 2, 55, 103
4, 117888, Note_on_c, 2, 58, 103
4, 117892, Note_off_c, 2, 55, 57
4, 118016, Note_on_c, 2, 55, 103
4, 118020, Note_off_c, 2, 58, 57
4, 118148, Note_off_c, 2, 55, 57
4, 118148, Note_on_c, 2, 51, 103
4, 118268, Note_off_c, 2, 43, 57
4, 118268, Note_off_c, 2, 31, 57
4, 118272, Note_off_c, 2, 51, 57
4, 118272, Note_on_c, 2, 50, 103
4, 118272, Note_on_c, 2, 44, 103
4, 118272, Note_on_c, 2, 32, 103
4, 118400, Note_on_c, 2, 53, 103
4, 118404, Note_off_c, 2, 50, 57
4, 118532, Note_off_c, 2, 53, 57
4, 118532, Note_on_c, 2, 58, 103
4, 118656, Note_on_c, 2, 53, 103
4, 118660, Note_off_c, 2, 58, 57
4, 118784, Note_on_c, 2, 58, 103
4, 118788, Note_off_c, 2, 53, 57
4, 118916, Note_off_c, 2, 58, 57
4, 118916, Note_on_c, 2, 62, 103
4, 119040, Note_on_c, 2, 65, 103
4, 119044, Note_off_c, 2, 62, 57
4, 119168, Note_on_c, 2, 62, 103
4, 119172, Note_off_c, 2, 65, 57
4, 119300, Note_off_c, 2, 62, 57
4, 119300, Note_on_c, 2, 58, 103
4, 119420, Note_off_c, 2, 44, 57
4, 119420, Note_off_c, 2, 32, 57
4, 119424, Note_off_c, 2, 58, 57
4, 119424, Note_on_c, 2, 43, 103
4, 119424, Note_on_c, 2, 31, 103
4, 120572, Note_off_c, 2, 43, 57
4, 120572, Note_off_c, 2, 31, 57
4, 120576, Note_on_c, 2, 44, 103
4, 120576, Note_on_c, 2, 32, 103
4, 121724, Note_off_c, 2, 44, 57
4, 121724, Note_off_c, 2, 32, 57
4, 121728, Note_on_c, 2, 43, 103
4, 121728, Note_on_c, 2, 31, 103
4, 122876, Note_off_c, 2, 43, 57
4, 122876, Note_off_c, 2, 31, 57
4, 122880, Note_on_c, 2, 42, 103
4, 122880, Note_on_c, 2, 30, 103
4, 124024, Note_off_c, 2, 30, 57
4, 124028, Note_off_c, 2, 42, 57
4, 124032, Note_on_c, 2, 41, 103
4, 124032, Note_on_c, 2, 29, 103
4, 124412, Note_off_c, 2, 41, 57
4, 124412, Note_off_c, 2, 29, 57
4, 124416, Note_on_c, 2, 63, 103
4, 124988, Note_off_c, 2, 63, 57
4, 124992, Note_on_c, 2, 61, 103
4, 125180, Note_off_c, 2, 61, 57
4, 125184, Note_on_c, 2, 60, 103
4, 125308, Note_off_c, 2, 60, 57
4, 125568, Note_on_c, 2, 61, 103
4, 126140, Note_off_c, 2, 61, 57
4, 126144, Note_on_c, 2, 60, 103
4, 126332, Note_off_c, 2, 60, 57
4, 126336, Note_on_c, 2, 58, 103
4, 126460, Note_off_c, 2, 58, 57
4, 126720, Note_on_c, 2, 46, 103
4, 127100, Note_off_c, 2, 46, 57
4, 127104, Note_on_c, 2, 45, 103
4, 127484, Note_off_c, 2, 45, 57
4, 127488, Note_on_c, 2, 46, 103
4, 127868, Note_off_c, 2, 46, 57
4, 127872, Note_on_c, 2, 45, 103
4, 128252, Note_off_c, 2, 45, 57
4, 128256, Note_on_c, 2, 46, 103
4, 128636, Note_off_c, 2, 46, 57
4, 128640, Note_on_c, 2, 53, 103
4, 128640, Note_on_c, 2, 41, 103
4, 128896, Note_off_c, 2, 53, 57
4, 128896, Note_off_c, 2, 41, 57
4, 129024, Note_on_c, 2, 63, 103
4, 129596, Note_off_c, 2, 63, 57
4, 129600, Note_on_c, 2, 61, 103
4, 129788, Note_off_c, 2, 61, 57
4, 129792, Note_on_c, 2, 60, 103
4, 129916, Note_off_c, 2, 60, 57
4, 130176, Note_on_c, 2, 61, 103
4, 130748, Note_off_c, 2, 61, 57
4, 130752, Note_on_c, 2, 60, 103
4, 130940, Note_off_c, 2, 60, 57
4, 130944, Note_on_c, 2, 58, 103
4, 131068, Note_off_c, 2, 58, 57
4, 131328, Note_on_c, 2, 46, 103
4, 131708, Note_off_c, 2, 46, 57
4, 131712, Note_on_c, 2, 45, 103
4, 132092, Note_off_c, 2, 45, 57
4, 132096, Note_on_c, 2, 46, 103
4, 132476, Note_off_c, 2, 46, 57
4, 132480, Note_on_c, 2, 45, 103
4, 132860, Note_off_c, 2, 45, 57
4, 132864, Note_on_c, 2, 46, 103
4, 133244, Note_off_c, 2, 46, 57
4, 133248, Note_on_c, 2, 41, 103
4, 133628, Note_off_c, 2, 41, 57
4, 133632, Note_on_c, 2, 53, 103
4, 134012, Note_off_c, 2, 53, 57
4, 134016, Note_on_c, 2, 52, 103
4, 134396, Note_off_c, 2, 52, 57
4, 134400, Note_on_c, 2, 53, 103
4, 134780, Note_off_c, 2, 53, 57
4, 134784, Note_on_c, 2, 41, 103
4, 135164, Note_off_c, 2, 41, 57
4, 135168, Note_on_c, 2, 52, 103
4, 135548, Note_off_c, 2, 52, 57
4, 135552, Note_on_c, 2, 53, 54
4, 135808, Note_off_c, 2, 53, 57
4, 135936, Note_on_c, 2, 53, 54
4, 136192, Note_off_c, 2, 53, 57
4, 136320, Note_on_c, 2, 53, 54
4, 136576, Note_off_c, 2, 53, 57
4, 136704, Note_on_c, 2, 53, 54
4, 136960, Note_off_c, 2, 53, 57
4, 137088, Note_on_c, 2, 53, 54
4, 137344, Note_off_c, 2, 53, 57
4, 137472, Note_on_c, 2, 53, 54
4, 137728, Note_off_c, 2, 53, 57
4, 137856, Note_on_c, 2, 46, 54
4, 137984, Note_off_c, 2, 46, 57
4, 138048, Note_on_c, 2, 53, 54
4, 138176, Note_off_c, 2, 53, 57
4, 138240, Note_on_c, 2, 52, 54
4, 138368, Note_off_c, 2, 52, 57
4, 138432, Note_on_c, 2, 53, 54
4, 138560, Note_off_c, 2, 53, 57
4, 138624, Note_on_c, 2, 48, 54
4, 138752, Note_off_c, 2, 48, 57
4, 138816, Note_on_c, 2, 53, 54
4, 138944, Note_off_c, 2, 53, 57
4, 139008, Note_on_c, 2, 50, 54
4, 139136, Note_off_c, 2, 50, 57
4, 139200, Note_on_c, 2, 53, 54
4, 139328, Note_off_c, 2, 53, 57
4, 139392, Note_on_c, 2, 50, 54
4, 139520, Note_off_c, 2, 50, 57
4, 139584, Note_on_c, 2, 53, 54
4, 139712, Note_off_c, 2, 53, 57
4, 139776, Note_on_c, 2, 50, 54
4, 139904, Note_off_c, 2, 50, 57
4, 139968, Note_on_c, 2, 53, 54
4, 140096, Note_off_c, 2, 53, 57
4, 140160, Note_on_c, 2, 51, 54
4, 140348, Note_off_c, 2, 51, 57
4, 140352, Note_on_c, 2, 53, 54
4, 140540, Note_off_c, 2, 53, 57
4, 140544, Note_on_c, 2, 51, 54
4, 140544, Note_on_c, 2, 48, 54
4, 140732, Note_off_c, 2, 51, 57
4, 140732, Note_off_c, 2, 48, 57
4, 140736, Note_on_c, 2, 53, 54
4, 140924, Note_off_c, 2, 53, 57
4, 140928, Note_on_c, 2, 50, 54
4, 140928, Note_on_c, 2, 46, 54
4, 141116, Note_off_c, 2, 50, 57
4, 141116, Note_off_c, 2, 46, 57
4, 141120, Note_on_c, 2, 53, 54
4, 141308, Note_off_c, 2, 53, 57
4, 141312, Note_on_c, 2, 48, 54
4, 141312, Note_on_c, 2, 45, 54
4, 141500, Note_off_c, 2, 48, 57
4, 141500, Note_off_c, 2, 45, 57
4, 141504, Note_on_c, 2, 53, 54
4, 141692, Note_off_c, 2, 53, 57
4, 141696, Note_on_c, 2, 52, 54
4, 141884, Note_off_c, 2, 52, 57
4, 141888, Note_on_c, 2, 53, 54
4, 142076, Note_off_c, 2, 53, 57
4, 142080, Note_on_c, 2, 52, 54
4, 142268, Note_off_c, 2, 52, 57
4, 142272, Note_on_c, 2, 53, 54
4, 142460, Note_off_c, 2, 53, 57
4, 142464, Note_on_c, 2, 41, 54
4, 142652, Note_off_c, 2, 41, 57
4, 142656, Note_on_c, 2, 53, 54
4, 142844, Note_off_c, 2, 53, 57
4, 142848, Note_on_c, 2, 51, 54
4, 143036, Note_off_c, 2, 51, 57
4, 143040, Note_on_c, 2, 53, 54
4, 143228, Note_off_c, 2, 53, 57
4, 143232, Note_on_c, 2, 50, 54
4, 143420, Note_off_c, 2, 50, 57
4, 143424, Note_on_c, 2, 55, 54
4, 143612, Note_off_c, 2, 55, 57
4, 143616, Note_on_c, 2, 48, 54
4, 143804, Note_off_c, 2, 48, 57
4, 143808, Note_on_c, 2, 53, 54
4, 143996, Note_off_c, 2, 53, 57
4, 144000, Note_on_c, 2, 41, 54
4, 144188, Note_off_c, 2, 41, 57
4, 144192, Note_on_c, 2, 53, 54
4, 144380, Note_off_c, 2, 53, 57
4, 144384, Note_on_c, 2, 51, 54
4, 144572, Note_off_c, 2, 51, 57
4, 144576, Note_on_c, 2, 53, 54
4, 144764, Note_off_c, 2, 53, 57
4, 144768, Note_on_c, 2, 50, 54
4, 144956, Note_off_c, 2, 50, 57
4, 144960, Note_on_c, 2, 53, 54
4, 145148, Note_off_c, 2, 53, 57
4, 145152, Note_on_c, 2, 46, 54
4, 145340, Note_off_c, 2, 46, 57
4, 145344, Note_on_c, 2, 53, 54
4, 145532, Note_off_c, 2, 53, 57
4, 145536, Note_on_c, 2, 45, 54
4, 145724, Note_off_c, 2, 45, 57
4, 145728, Note_on_c, 2, 53, 54
4, 145916, Note_off_c, 2, 53, 57
4, 145920, Note_on_c, 2, 46, 54
4, 146108, Note_off_c, 2, 46, 57
4, 146112, Note_on_c, 2, 50, 54
4, 146300, Note_off_c, 2, 50, 57
4, 146304, Note_on_c, 2, 53, 54
4, 146492, Note_off_c, 2, 53, 57
4, 146496, Note_on_c, 2, 58, 54
4, 146684, Note_off_c, 2, 58, 57
4, 146688, Note_on_c, 2, 62, 54
4, 146876, Note_off_c, 2, 62, 57
4, 146880, Note_on_c, 2, 65, 54
4, 147068, Note_off_c, 2, 65, 57
4, 156288, Note_on_c, 2, 46, 54
4, 157052, Note_off_c, 2, 46, 57
4, 157056, Note_on_c, 2, 48, 54
4, 157436, Note_off_c, 2, 48, 57
4, 157440, Note_on_c, 2, 50, 54
4, 158012, Note_off_c, 2, 50, 57
4, 158016, Note_on_c, 2, 51, 54
4, 158208, Note_on_c, 2, 48, 54
4, 158300, Note_off_c, 2, 51, 57
4, 158396, Note_off_c, 2, 48, 57
4, 158400, Note_on_c, 2, 50, 54
4, 158588, Note_off_c, 2, 50, 57
4, 158592, Note_on_c, 2, 45, 54
4, 158780, Note_off_c, 2, 45, 57
4, 158976, Note_on_c, 2, 57, 54
4, 159164, Note_off_c, 2, 57, 57
4, 159360, Note_on_c, 2, 58, 54
4, 159548, Note_off_c, 2, 58, 57
4, 159744, Note_on_c, 2, 59, 54
4, 160124, Note_off_c, 2, 59, 57
4, 160128, Note_on_c, 2, 60, 54
4, 160508, Note_off_c, 2, 60, 57
4, 160896, Note_on_c, 2, 41, 54
4, 161660, Note_off_c, 2, 41, 57
4, 161664, Note_on_c, 2, 46, 54
4, 162044, Note_off_c, 2, 46, 57
4, 162048, Note_on_c, 2, 48, 54
4, 162620, Note_off_c, 2, 48, 57
4, 162624, Note_on_c, 2, 50, 54
4, 162812, Note_off_c, 2, 50, 57
4, 162816, Note_on_c, 2, 51, 54
4, 163004, Note_off_c, 2, 51, 57
4, 163008, Note_on_c, 2, 48, 54
4, 163196, Note_off_c, 2, 48, 57
4, 163200, Note_on_c, 2, 50, 54
4, 163388, Note_off_c, 2, 50, 57
4, 163584, Note_on_c, 2, 50, 54
4, 163584, Note_on_c, 2, 53, 54
4, 163772, Note_off_c, 2, 50, 57
4, 163772, Note_off_c, 2, 53, 57
4, 163968, Note_on_c, 2, 53, 54
4, 163968, Note_on_c, 2, 45, 54
4, 164156, Note_off_c, 2, 53, 57
4, 164156, Note_off_c, 2, 45, 57
4, 164352, Note_on_c, 2, 53, 54
4, 164352, Note_on_c, 2, 46, 54
4, 164732, Note_off_c, 2, 53, 57
4, 164732, Note_off_c, 2, 46, 57
4, 165504, Note_on_c, 2, 50, 54
4, 165504, Note_on_c, 2, 53, 54
4, 165504, Note_on_c, 2, 58, 54
4, 165884, Note_off_c, 2, 50, 57
4, 165884, Note_off_c, 2, 53, 57
4, 165884, Note_off_c, 2, 58, 57
4, 166656, Note_on_c, 2, 51, 54
4, 166656, Note_on_c, 2, 55, 54
4, 166656, Note_on_c, 2, 60, 54
4, 167036, Note_off_c, 2, 51, 57
4, 167036, Note_off_c, 2, 55, 57
4, 167036, Note_off_c, 2, 60, 57
4, 167808, Note_on_c, 2, 53, 54
4, 167808, Note_on_c, 2, 63, 54
4, 167808, Note_on_c, 2, 60, 54
4, 168188, Note_off_c, 2, 53, 57
4, 168188, Note_off_c, 2, 63, 57
4, 168188, Note_off_c, 2, 60, 57
4, 168960, Note_on_c, 2, 58, 54
4, 168960, Note_on_c, 2, 46, 54
4, 169340, Note_off_c, 2, 58, 57
4, 169340, Note_off_c, 2, 46, 57
4, 170112, Note_on_c, 2, 58, 94
4, 170112, Note_on_c, 2, 53, 94
4, 170112, Note_on_c, 2, 49, 94
4, 171260, Note_off_c, 2, 58, 57
4, 171260, Note_off_c, 2, 53, 57
4, 171260, Note_off_c, 2, 49, 57
4, 171264, Note_on_c, 2, 51, 94
4, 171264, Note_on_c, 2, 54, 94
4, 171264, Note_on_c, 2, 60, 94
4, 171264, Note_on_c, 2, 58, 94
4, 172412, Note_off_c, 2, 51, 57
4, 172412, Note_off_c, 2, 54, 57
4, 172412, Note_off_c, 2, 60, 57
4, 172412, Note_off_c, 2, 58, 57
4, 172416, Note_on_c, 2, 53, 94
4, 172416, Note_on_c, 2, 56, 94
4, 172416, Note_on_c, 2, 58, 94
4, 172416, Note_on_c, 2, 62, 94
4, 173564, Note_off_c, 2, 53, 57
4, 173564, Note_off_c, 2, 56, 57
4, 173564, Note_off_c, 2, 58, 57
4, 173564, Note_off_c, 2, 62, 57
4, 173568, Note_on_c, 2, 54, 94
4, 173568, Note_on_c, 2, 58, 94
4, 173568, Note_on_c, 2, 63, 94
4, 174716, Note_off_c, 2, 54, 57
4, 174716, Note_off_c, 2, 58, 57
4, 174716, Note_off_c, 2, 63, 57
4, 174720, Note_on_c, 2, 57, 94
4, 174720, Note_on_c, 2, 60, 94
4, 174720, Note_on_c, 2, 63, 94
4, 174720, Note_on_c, 2, 65, 94
4, 175868, Note_off_c, 2, 57, 57
4, 175868, Note_off_c, 2, 60, 57
4, 175868, Note_off_c, 2, 63, 57
4, 175868, Note_off_c, 2, 65, 57
4, 175872, Note_on_c, 2, 58, 94
4, 175872, Note_on_c, 2, 61, 94
4, 175872, Note_on_c, 2, 65, 94
4, 177020, Note_off_c, 2, 58, 57
4, 177020, Note_off_c, 2, 61, 57
4, 177020, Note_off_c, 2, 65, 57
4, 177024, Note_on_c, 2, 60, 94
4, 177024, Note_on_c, 2, 65, 94
4, 178556, Note_off_c, 2, 60, 57
4, 178556, Note_off_c, 2, 65, 57
4, 178560, Note_on_c, 2, 63, 58
4, 178560, Note_on_c, 2, 60, 58
4, 178940, Note_off_c, 2, 63, 57
4, 178940, Note_off_c, 2, 60, 57
4, 178944, Note_on_c, 2, 63, 58
4, 178944, Note_on_c, 2, 60, 58
4, 179324, Note_off_c, 2, 63, 57
4, 179324, Note_off_c, 2, 60, 57
4, 179328, Note_on_c, 2, 60, 49
4, 179328, Note_on_c, 2, 63, 49
4, 179708, Note_off_c, 2, 60, 57
4, 179708, Note_off_c, 2, 63, 57
4, 179712, Note_on_c, 2, 63, 49
4, 179712, Note_on_c, 2, 60, 49
4, 180092, Note_off_c, 2, 63, 57
4, 180092, Note_off_c, 2, 60, 57
4, 180096, Note_on_c, 2, 60, 49
4, 180096, Note_on_c, 2, 65, 49
4, 180476, Note_off_c, 2, 60, 57
4, 180476, Note_off_c, 2, 65, 57
4, 180480, Note_on_c, 2, 65, 49
4, 180480, Note_on_c, 2, 60, 49
4, 181628, Note_off_c, 2, 65, 57
4, 181628, Note_off_c, 2, 60, 57
4, 181632, Note_on_c, 2, 38, 58
4, 181632, Note_on_c, 2, 58, 58
4, 181632, Note_on_c, 2, 53, 58
4, 181632, Note_on_c, 2, 50, 58
4, 181760, Note_on_c, 2, 46, 58
4, 181764, Note_off_c, 2, 38, 57
4, 181892, Note_off_c, 2, 46, 57
4, 181892, Note_on_c, 2, 50, 59
4, 182012, Note_off_c, 2, 58, 57
4, 182012, Note_off_c, 2, 53, 57
4, 182012, Note_off_c, 2, 50, 57
4, 182016, Note_on_c, 2, 38, 59
4, 182020, Note_off_c, 2, 50, 57
4, 182144, Note_on_c, 2, 46, 60
4, 182148, Note_off_c, 2, 38, 57
4, 182276, Note_off_c, 2, 46, 57
4, 182276, Note_on_c, 2, 50, 61
4, 182400, Note_on_c, 2, 38, 61
4, 182404, Note_off_c, 2, 50, 57
4, 182528, Note_on_c, 2, 46, 62
4, 182532, Note_off_c, 2, 38, 57
4, 182660, Note_off_c, 2, 46, 57
4, 182660, Note_on_c, 2, 50, 63
4, 182784, Note_on_c, 2, 38, 63
4, 182788, Note_off_c, 2, 50, 57
4, 182912, Note_on_c, 2, 46, 63
4, 182916, Note_off_c, 2, 38, 57
4, 183044, Note_off_c, 2, 46, 57
4, 183044, Note_on_c, 2, 50, 64
4, 183168, Note_on_c, 2, 38, 64
4, 183172, Note_off_c, 2, 50, 57
4, 183296, Note_on_c, 2, 46, 65
4, 183300, Note_off_c, 2, 38, 57
4, 183428, Note_off_c, 2, 46, 57
4, 183428, Note_on_c, 2, 50, 65
4, 183552, Note_on_c, 2, 38, 66
4, 183556, Note_off_c, 2, 50, 57
4, 183680, Note_on_c, 2, 46, 67
4, 183684, Note_off_c, 2, 38, 57
4, 183812, Note_off_c, 2, 46, 57
4, 183812, Note_on_c, 2, 50, 67
4, 183936, Note_on_c, 2, 39, 68
4, 183940, Note_off_c, 2, 50, 57
4, 184064, Note_on_c, 2, 46, 69
4, 184068, Note_off_c, 2, 39, 57
4, 184196, Note_off_c, 2, 46, 57
4, 184196, Note_on_c, 2, 51, 69
4, 184320, Note_on_c, 2, 39, 70
4, 184324, Note_off_c, 2, 51, 57
4, 184448, Note_on_c, 2, 46, 70
4, 184452, Note_off_c, 2, 39, 57
4, 184580, Note_off_c, 2, 46, 57
4, 184580, Note_on_c, 2, 51, 71
4, 184704, Note_on_c, 2, 39, 72
4, 184708, Note_off_c, 2, 51, 57
4, 184832, Note_on_c, 2, 46, 72
4, 184836, Note_off_c, 2, 39, 57
4, 184964, Note_off_c, 2, 46, 57
4, 184964, Note_on_c, 2, 51, 72
4, 185088, Note_on_c, 2, 40, 73
4, 185092, Note_off_c, 2, 51, 57
4, 185216, Note_on_c, 2, 46, 73
4, 185220, Note_off_c, 2, 40, 57
4, 185348, Note_off_c, 2, 46, 57
4, 185348, Note_on_c, 2, 52, 74
4, 185472, Note_on_c, 2, 40, 75
4, 185476, Note_off_c, 2, 52, 57
4, 185600, Note_on_c, 2, 46, 75
4, 185604, Note_off_c, 2, 40, 57
4, 185732, Note_off_c, 2, 46, 57
4, 185732, Note_on_c, 2, 52, 76
4, 185856, Note_on_c, 2, 40, 76
4, 185860, Note_off_c, 2, 52, 57
4, 185984, Note_on_c, 2, 46, 77
4, 185988, Note_off_c, 2, 40, 57
4, 186116, Note_off_c, 2, 46, 57
4, 186116, Note_on_c, 2, 52, 78
4, 186240, Note_on_c, 2, 41, 78
4, 186244, Note_off_c, 2, 52, 57
4, 186368, Note_on_c, 2, 46, 79
4, 186372, Note_off_c, 2, 41, 57
4, 186500, Note_off_c, 2, 46, 57
4, 186500, Note_on_c, 2, 53, 80
4, 186624, Note_on_c, 2, 41, 80
4, 186628, Note_off_c, 2, 53, 57
4, 186752, Note_on_c, 2, 46, 81
4, 186756, Note_off_c, 2, 41, 57
4, 186884, Note_off_c, 2, 46, 57
4, 186884, Note_on_c, 2, 53, 81
4, 187008, Note_on_c, 2, 41, 81
4, 187012, Note_off_c, 2, 53, 57
4, 187136, Note_on_c, 2, 46, 82
4, 187140, Note_off_c, 2, 41, 57
4, 187268, Note_off_c, 2, 46, 57
4, 187268, Note_on_c, 2, 53, 82
4, 187392, Note_on_c, 2, 42, 83
4, 187396, Note_off_c, 2, 53, 57
4, 187520, Note_on_c, 2, 46, 84
4, 187524, Note_off_c, 2, 42, 57
4, 187652, Note_off_c, 2, 46, 57
4, 187652, Note_on_c, 2, 54, 84
4, 187776, Note_on_c, 2, 42, 85
4, 187780, Note_off_c, 2, 54, 57
4, 187904, Note_on_c, 2, 46, 86
4, 187908, Note_off_c, 2, 42, 57
4, 188036, Note_off_c, 2, 46, 57
4, 188036, Note_on_c, 2, 54, 86
4, 188160, Note_on_c, 2, 42, 87
4, 188164, Note_off_c, 2, 54, 57
4, 188288, Note_on_c, 2, 46, 88
4, 188292, Note_off_c, 2, 42, 57
4, 188420, Note_off_c, 2, 46, 57
4, 188420, Note_on_c, 2, 54, 88
4, 188544, Note_on_c, 2, 43, 89
4, 188548, Note_off_c, 2, 54, 57
4, 188672, Note_on_c, 2, 46, 89
4, 188676, Note_off_c, 2, 43, 57
4, 188804, Note_off_c, 2, 46, 57
4, 188804, Note_on_c, 2, 55, 90
4, 188928, Note_on_c, 2, 43, 90
4, 188932, Note_off_c, 2, 55, 57
4, 189056, Note_on_c, 2, 46, 90
4, 189060, Note_off_c, 2, 43, 57
4, 189188, Note_off_c, 2, 46, 57
4, 189188, Note_on_c, 2, 55, 91
4, 189312, Note_on_c, 2, 45, 92
4, 189316, Note_off_c, 2, 55, 57
4, 189440, Note_on_c, 2, 53, 92
4, 189444, Note_off_c, 2, 45, 57
4, 189572, Note_off_c, 2, 53, 57
4, 189572, Note_on_c, 2, 57, 93
4, 189696, Note_on_c, 2, 46, 58
4, 189700, Note_off_c, 2, 57, 57
4, 189824, Note_on_c, 2, 53, 58
4, 189828, Note_off_c, 2, 46, 57
4, 189956, Note_off_c, 2, 53, 57
4, 189956, Note_on_c, 2, 58, 58
4, 190080, Note_on_c, 2, 46, 58
4, 190084, Note_off_c, 2, 58, 57
4, 190208, Note_on_c, 2, 53, 58
4, 190212, Note_off_c, 2, 46, 57
4, 190340, Note_off_c, 2, 53, 57
4, 190340, Note_on_c, 2, 58, 58
4, 190464, Note_on_c, 2, 49, 58
4, 190468, Note_off_c, 2, 58, 57
4, 190592, Note_on_c, 2, 53, 58
4, 190596, Note_off_c, 2, 49, 57
4, 190720, Note_on_c, 2, 61, 58
4, 190724, Note_off_c, 2, 53, 57
4, 190848, Note_on_c, 2, 50, 58
4, 190852, Note_off_c, 2, 61, 57
4, 190976, Note_on_c, 2, 58, 58
4, 190980, Note_off_c, 2, 50, 57
4, 191108, Note_off_c, 2, 58, 57
4, 191108, Note_on_c, 2, 62, 58
4, 191232, Note_on_c, 2, 50, 58
4, 191236, Note_off_c, 2, 62, 57
4, 191360, Note_on_c, 2, 58, 58
4, 191364, Note_off_c, 2, 50, 57
4, 191492, Note_off_c, 2, 58, 57
4, 191492, Note_on_c, 2, 62, 58
4, 191616, Note_on_c, 2, 50, 58
4, 191620, Note_off_c, 2, 62, 57
4, 191744, Note_on_c, 2, 58, 58
4, 191748, Note_off_c, 2, 50, 57
4, 191872, Note_on_c, 2, 62, 58
4, 191876, Note_off_c, 2, 58, 57
4, 192000, Note_on_c, 2, 50, 58
4, 192004, Note_off_c, 2, 62, 57
4, 192128, Note_on_c, 2, 53, 58
4, 192132, Note_off_c, 2, 50, 57
4, 192260, Note_off_c, 2, 53, 57
4, 192260, Note_on_c, 2, 58, 58
4, 192384, Note_on_c, 2, 50, 58
4, 192388, Note_off_c, 2, 58, 57
4, 192512, Note_on_c, 2, 53, 58
4, 192516, Note_off_c, 2, 50, 57
4, 192644, Note_off_c, 2, 53, 57
4, 192644, Note_on_c, 2, 58, 58
4, 192768, Note_on_c, 2, 50, 58
4, 192772, Note_off_c, 2, 58, 57
4, 192896, Note_on_c, 2, 53, 58
4, 192900, Note_off_c, 2, 50, 57
4, 193024, Note_on_c, 2, 58, 58
4, 193028, Note_off_c, 2, 53, 57
4, 193152, Note_on_c, 2, 50, 58
4, 193156, Note_off_c, 2, 58, 57
4, 193280, Note_on_c, 2, 53, 58
4, 193284, Note_off_c, 2, 50, 57
4, 193412, Note_off_c, 2, 53, 57
4, 193412, Note_on_c, 2, 58, 58
4, 193536, Note_on_c, 2, 50, 58
4, 193540, Note_off_c, 2, 58, 57
4, 193664, Note_on_c, 2, 53, 58
4, 193668, Note_off_c, 2, 50, 57
4, 193796, Note_off_c, 2, 53, 57
4, 193796, Note_on_c, 2, 58, 58
4, 193920, Note_on_c, 2, 50, 58
4, 193924, Note_off_c, 2, 58, 57
4, 194048, Note_on_c, 2, 53, 58
4, 194052, Note_off_c, 2, 50, 57
4, 194176, Note_on_c, 2, 59, 58
4, 194180, Note_off_c, 2, 53, 57
4, 194304, Note_on_c, 2, 50, 58
4, 194308, Note_off_c, 2, 59, 57
4, 194432, Note_on_c, 2, 53, 58
4, 194436, Note_off_c, 2, 50, 57
4, 194564, Note_off_c, 2, 53, 57
4, 194564, Note_on_c, 2, 60, 58
4, 194688, Note_on_c, 2, 50, 58
4, 194692, Note_off_c, 2, 60, 57
4, 194816, Note_on_c, 2, 53, 58
4, 194820, Note_off_c, 2, 50, 57
4, 194948, Note_off_c, 2, 53, 57
4, 194948, Note_on_c, 2, 60, 58
4, 195072, Note_on_c, 2, 50, 58
4, 195076, Note_off_c, 2, 60, 57
4, 195200, Note_on_c, 2, 53, 58
4, 195204, Note_off_c, 2, 50, 57
4, 195324, Note_on_c, 2, 60, 58
4, 195332, Note_off_c, 2, 53, 57
4, 195448, Note_off_c, 2, 60, 57
4, 195456, Note_on_c, 2, 53, 58
4, 195584, Note_on_c, 2, 58, 58
4, 195588, Note_off_c, 2, 53, 57
4, 195716, Note_off_c, 2, 58, 57
4, 195716, Note_on_c, 2, 62, 58
4, 195840, Note_on_c, 2, 53, 58
4, 195844, Note_off_c, 2, 62, 57
4, 195968, Note_on_c, 2, 58, 58
4, 195972, Note_off_c, 2, 53, 57
4, 196100, Note_off_c, 2, 58, 57
4, 196100, Note_on_c, 2, 62, 58
4, 196224, Note_on_c, 2, 53, 58
4, 196228, Note_off_c, 2, 62, 57
4, 196352, Note_on_c, 2, 58, 58
4, 196356, Note_off_c, 2, 53, 57
4, 196476, Note_on_c, 2, 62, 58
4, 196484, Note_off_c, 2, 58, 57
4, 196600, Note_off_c, 2, 62, 57
4, 196608, Note_on_c, 2, 53, 58
4, 196736, Note_on_c, 2, 57, 58
4, 196740, Note_off_c, 2, 53, 57
4, 196868, Note_off_c, 2, 57, 57
4, 196868, Note_on_c, 2, 60, 58
4, 196992, Note_on_c, 2, 53, 58
4, 196996, Note_off_c, 2, 60, 57
4, 197120, Note_on_c, 2, 57, 58
4, 197124, Note_off_c, 2, 53, 57
4, 197252, Note_off_c, 2, 57, 57
4, 197252, Note_on_c, 2, 60, 58
4, 197376, Note_on_c, 2, 53, 58
4, 197380, Note_off_c, 2, 60, 57
4, 197504, Note_on_c, 2, 57, 58
4, 197508, Note_off_c, 2, 53, 57
4, 197628, Note_on_c, 2, 60, 58
4, 197636, Note_off_c, 2, 57, 57
4, 197752, Note_off_c, 2, 60, 57
4, 197760, Note_on_c, 2, 38, 58
4, 197888, Note_on_c, 2, 46, 58
4, 197892, Note_off_c, 2, 38, 57
4, 198020, Note_off_c, 2, 46, 57
4, 198020, Note_on_c, 2, 50, 58
4, 198144, Note_on_c, 2, 38, 58
4, 198148, Note_off_c, 2, 50, 57
4, 198272, Note_on_c, 2, 46, 58
4, 198276, Note_off_c, 2, 38, 57
4, 198404, Note_off_c, 2, 46, 57
4, 198404, Note_on_c, 2, 50, 58
4, 198528, Note_on_c, 2, 38, 58
4, 198532, Note_off_c, 2, 50, 57
4, 198656, Note_on_c, 2, 46, 58
4, 198660, Note_off_c, 2, 38, 57
4, 198788, Note_off_c, 2, 46, 57
4, 198788, Note_on_c, 2, 50, 58
4, 198912, Note_off_c, 2, 50, 57
4, 198912, Note_on_c, 2, 38, 58
4, 199040, Note_on_c, 2, 46, 58
4, 199044, Note_off_c, 2, 38, 57
4, 199172, Note_off_c, 2, 46, 57
4, 199172, Note_on_c, 2, 50, 58
4, 199296, Note_on_c, 2, 38, 58
4, 199300, Note_off_c, 2, 50, 57
4, 199424, Note_on_c, 2, 46, 58
4, 199428, Note_off_c, 2, 38, 57
4, 199556, Note_off_c, 2, 46, 57
4, 199556, Note_on_c, 2, 50, 58
4, 199680, Note_on_c, 2, 38, 58
4, 199684, Note_off_c, 2, 50, 57
4, 199808, Note_on_c, 2, 46, 58
4, 199812, Note_off_c, 2, 38, 57
4, 199940, Note_off_c, 2, 46, 57
4, 199940, Note_on_c, 2, 50, 58
4, 200064, Note_on_c, 2, 39, 58
4, 200068, Note_off_c, 2, 50, 57
4, 200192, Note_on_c, 2, 46, 58
4, 200196, Note_off_c, 2, 39, 57
4, 200324, Note_off_c, 2, 46, 57
4, 200324, Note_on_c, 2, 51, 58
4, 200448, Note_on_c, 2, 39, 58
4, 200452, Note_off_c, 2, 51, 57
4, 200576, Note_on_c, 2, 46, 58
4, 200580, Note_off_c, 2, 39, 57
4, 200708, Note_off_c, 2, 46, 57
4, 200708, Note_on_c, 2, 51, 58
4, 200832, Note_on_c, 2, 39, 58
4, 200836, Note_off_c, 2, 51, 57
4, 200960, Note_on_c, 2, 46, 58
4, 200964, Note_off_c, 2, 39, 57
4, 201092, Note_off_c, 2, 46, 57
4, 201092, Note_on_c, 2, 51, 58
4, 201216, Note_on_c, 2, 39, 58
4, 201220, Note_off_c, 2, 51, 57
4, 201344, Note_on_c, 2, 43, 58
4, 201348, Note_off_c, 2, 39, 57
4, 201476, Note_off_c, 2, 43, 57
4, 201476, Note_on_c, 2, 48, 58
4, 201600, Note_on_c, 2, 39, 58
4, 201604, Note_off_c, 2, 48, 57
4, 201728, Note_on_c, 2, 43, 58
4, 201732, Note_off_c, 2, 39, 57
4, 201860, Note_off_c, 2, 43, 57
4, 201860, Note_on_c, 2, 48, 58
4, 201984, Note_on_c, 2, 39, 58
4, 201988, Note_off_c, 2, 48, 57
4, 202112, Note_on_c, 2, 43, 58
4, 202116, Note_off_c, 2, 39, 57
4, 202244, Note_off_c, 2, 43, 57
4, 202244, Note_on_c, 2, 48, 58
4, 202368, Note_on_c, 2, 41, 58
4, 202372, Note_off_c, 2, 48, 57
4, 202496, Note_on_c, 2, 46, 58
4, 202500, Note_off_c, 2, 41, 57
4, 202628, Note_off_c, 2, 46, 57
4, 202628, Note_on_c, 2, 50, 58
4, 202752, Note_on_c, 2, 41, 58
4, 202756, Note_off_c, 2, 50, 57
4, 202880, Note_on_c, 2, 46, 58
4, 202884, Note_off_c, 2, 41, 57
4, 203012, Note_off_c, 2, 46, 57
4, 203012, Note_on_c, 2, 50, 58
4, 203136, Note_on_c, 2, 41, 58
4, 203140, Note_off_c, 2, 50, 57
4, 203264, Note_on_c, 2, 46, 58
4, 203268, Note_off_c, 2, 41, 57
4, 203396, Note_off_c, 2, 46, 57
4, 203396, Note_on_c, 2, 50, 58
4, 203520, Note_on_c, 2, 41, 58
4, 203524, Note_off_c, 2, 50, 57
4, 203648, Note_on_c, 2, 48, 58
4, 203652, Note_off_c, 2, 41, 57
4, 203780, Note_off_c, 2, 48, 57
4, 203780, Note_on_c, 2, 51, 58
4, 203904, Note_on_c, 2, 41, 58
4, 203908, Note_off_c, 2, 51, 57
4, 204032, Note_on_c, 2, 48, 58
4, 204036, Note_off_c, 2, 41, 57
4, 204164, Note_off_c, 2, 48, 57
4, 204164, Note_on_c, 2, 51, 58
4, 204288, Note_on_c, 2, 41, 58
4, 204292, Note_off_c, 2, 51, 57
4, 204416, Note_on_c, 2, 48, 58
4, 204420, Note_off_c, 2, 41, 57
4, 204548, Note_off_c, 2, 48, 57
4, 204548, Note_on_c, 2, 51, 58
4, 204672, Note_on_c, 2, 46, 99
4, 204672, Note_on_c, 2, 34, 99
4, 204676, Note_off_c, 2, 51, 57
4, 205052, Note_off_c, 2, 46, 57
4, 205052, Note_off_c, 2, 34, 57
4, 214656, Note_on_c, 2, 53, 58
4, 215036, Note_off_c, 2, 53, 57
4, 215040, Note_on_c, 2, 58, 58
4, 215420, Note_off_c, 2, 58, 57
4, 216192, Note_on_c, 2, 39, 58
4, 216572, Note_off_c, 2, 39, 57
4, 216576, Note_on_c, 2, 51, 58
4, 216956, Note_off_c, 2, 51, 57
4, 216960, Note_on_c, 2, 51, 58
4, 217340, Note_off_c, 2, 51, 57
4, 217344, Note_on_c, 2, 50, 58
4, 217724, Note_off_c, 2, 50, 57
4, 218496, Note_on_c, 2, 39, 58
4, 218876, Note_off_c, 2, 39, 57
4, 218880, Note_on_c, 2, 51, 58
4, 219260, Note_off_c, 2, 51, 57
4, 219264, Note_on_c, 2, 51, 58
4, 219644, Note_off_c, 2, 51, 57
4, 219648, Note_on_c, 2, 50, 58
4, 220028, Note_off_c, 2, 50, 57
4, 220800, Note_on_c, 2, 39, 58
4, 221180, Note_off_c, 2, 39, 57
4, 221184, Note_on_c, 2, 51, 58
4, 221564, Note_off_c, 2, 51, 57
4, 221568, Note_on_c, 2, 51, 58
4, 221948, Note_off_c, 2, 51, 57
4, 221952, Note_on_c, 2, 50, 58
4, 222332, Note_off_c, 2, 50, 57
4, 222336, Note_on_c, 2, 60, 63
4, 222336, Note_on_c, 2, 63, 63
4, 222716, Note_off_c, 2, 60, 57
4, 222716, Note_off_c, 2, 63, 57
4, 222720, Note_on_c, 2, 65, 67
4, 222720, Note_on_c, 2, 62, 67
4, 223100, Note_off_c, 2, 65, 57
4, 223100, Note_off_c, 2, 62, 57
4, 225408, Note_on_c, 2, 74, 103
4, 225536, Note_on_c, 2, 75, 103
4, 225540, Note_off_c, 2, 74, 57
4, 225664, Note_on_c, 2, 77, 103
4, 225668, Note_off_c, 2, 75, 57
4, 225788, Note_off_c, 2, 77, 57
4, 225792, Note_on_c, 2, 72, 103
4, 225920, Note_on_c, 2, 74, 103
4, 225924, Note_off_c, 2, 72, 57
4, 226048, Note_on_c, 2, 75, 103
4, 226052, Note_off_c, 2, 74, 57
4, 226172, Note_off_c, 2, 75, 57
4, 226176, Note_on_c, 2, 70, 103
4, 226304, Note_on_c, 2, 72, 103
4, 226308, Note_off_c, 2, 70, 57
4, 226432, Note_on_c, 2, 74, 103
4, 226436, Note_off_c, 2, 72, 57
4, 226556, Note_off_c, 2, 74, 57
4, 226560, Note_on_c, 2, 69, 103
4, 226688, Note_on_c, 2, 70, 103
4, 226692, Note_off_c, 2, 69, 57
4, 226816, Note_on_c, 2, 72, 103
4, 226820, Note_off_c, 2, 70, 57
4, 226940, Note_off_c, 2, 72, 57
4, 226944, Note_on_c, 2, 67, 103
4, 227072, Note_on_c, 2, 69, 103
4, 227076, Note_off_c, 2, 67, 57
4, 227200, Note_on_c, 2, 70, 103
4, 227204, Note_off_c, 2, 69, 57
4, 227324, Note_off_c, 2, 70, 57
4, 227328, Note_on_c, 2, 65, 103
4, 227456, Note_on_c, 2, 67, 103
4, 227460, Note_off_c, 2, 65, 57
4, 227584, Note_on_c, 2, 69, 103
4, 227588, Note_off_c, 2, 67, 57
4, 227708, Note_off_c, 2, 69, 57
4, 227712, Note_on_c, 2, 64, 103
4, 227840, Note_on_c, 2, 65, 103
4, 227844, Note_off_c, 2, 64, 57
4, 227968, Note_on_c, 2, 67, 103
4, 227972, Note_off_c, 2, 65, 57
4, 228092, Note_off_c, 2, 67, 57
4, 228096, Note_on_c, 2, 62, 103
4, 228224, Note_on_c, 2, 64, 103
4, 228228, Note_off_c, 2, 62, 57
4, 228352, Note_on_c, 2, 65, 103
4, 228356, Note_off_c, 2, 64, 57
4, 228476, Note_off_c, 2, 65, 57
4, 228480, Note_on_c, 2, 60, 103
4, 228608, Note_on_c, 2, 62, 103
4, 228612, Note_off_c, 2, 60, 57
4, 228736, Note_on_c, 2, 64, 103
4, 228740, Note_off_c, 2, 62, 57
4, 228860, Note_off_c, 2, 64, 57
4, 228864, Note_on_c, 2, 59, 103
4, 228992, Note_on_c, 2, 60, 103
4, 228996, Note_off_c, 2, 59, 57
4, 229120, Note_on_c, 2, 62, 103
4, 229124, Note_off_c, 2, 60, 57
4, 229244, Note_off_c, 2, 62, 57
4, 230016, Note_on_c, 2, 60, 103
4, 230144, Note_on_c, 2, 62, 103
4, 230148, Note_off_c, 2, 60, 57
4, 230272, Note_on_c, 2, 63, 103
4, 230276, Note_off_c, 2, 62, 57
4, 230396, Note_off_c, 2, 63, 57
4, 231168, Note_on_c, 2, 57, 103
4, 231296, Note_on_c, 2, 58, 103
4, 231300, Note_off_c, 2, 57, 57
4, 231424, Note_on_c, 2, 60, 103
4, 231428, Note_off_c, 2, 58, 57
4, 231548, Note_off_c, 2, 60, 57
4, 232320, Note_on_c, 2, 58, 103
4, 232448, Note_on_c, 2, 60, 103
4, 232452, Note_off_c, 2, 58, 57
4, 232576, Note_on_c, 2, 62, 103
4, 232580, Note_off_c, 2, 60, 57
4, 232700, Note_off_c, 2, 62, 57
4, 233472, Note_on_c, 2, 51, 103
4, 233852, Note_off_c, 2, 51, 57
4, 233856, Note_on_c, 2, 53, 103
4, 234236, Note_off_c, 2, 53, 57
4, 234240, Note_on_c, 2, 41, 103
4, 234620, Note_off_c, 2, 41, 57
4, 234624, Note_on_c, 2, 47, 103
4, 234752, Note_on_c, 2, 48, 103
4, 234756, Note_off_c, 2, 47, 57
4, 234880, Note_on_c, 2, 50, 103
4, 234884, Note_off_c, 2, 48, 57
4, 235004, Note_off_c, 2, 50, 57
4, 235776, Note_on_c, 2, 48, 58
4, 235904, Note_on_c, 2, 50, 58
4, 235908, Note_off_c, 2, 48, 57
4, 236032, Note_on_c, 2, 51, 59
4, 236036, Note_off_c, 2, 50, 57
4, 236156, Note_off_c, 2, 51, 57
4, 236928, Note_on_c, 2, 45, 64
4, 236928, Note_on_c, 2, 33, 64
4, 237308, Note_off_c, 2, 45, 57
4, 237308, Note_off_c, 2, 33, 57
4, 238848, Note_on_c, 2, 34, 72
4, 238848, Note_on_c, 2, 46, 72
4, 239228, Note_off_c, 2, 34, 57
4, 239228, Note_off_c, 2, 46, 57
4, 239232, Note_on_c, 2, 47, 72
4, 239232, Note_on_c, 2, 35, 72
4, 239996, Note_off_c, 2, 47, 57
4, 239996, Note_off_c, 2, 35, 57
4, 240000, Note_on_c, 2, 46, 72
4, 240000, Note_on_c, 2, 34, 72
4, 240380, Note_off_c, 2, 46, 57
4, 240380, Note_off_c, 2, 34, 57
4, 240384, Note_on_c, 2, 45, 72
4, 240384, Note_on_c, 2, 33, 72
4, 241148, Note_off_c, 2, 45, 57
4, 241148, Note_off_c, 2, 33, 57
4, 241152, Note_on_c, 2, 46, 76
4, 241152, Note_on_c, 2, 34, 76
4, 241532, Note_off_c, 2, 46, 57
4, 241532, Note_off_c, 2, 34, 57
4, 241536, Note_on_c, 2, 47, 79
4, 241536, Note_on_c, 2, 35, 79
4, 242300, Note_off_c, 2, 47, 57
4, 242300, Note_off_c, 2, 35, 57
4, 242304, Note_on_c, 2, 46, 83
4, 242304, Note_on_c, 2, 34, 83
4, 242684, Note_off_c, 2, 46, 57
4, 242684, Note_off_c, 2, 34, 57
4, 242688, Note_on_c, 2, 45, 86
4, 242688, Note_on_c, 2, 33, 86
4, 243452, Note_off_c, 2, 45, 57
4, 243452, Note_off_c, 2, 33, 57
4, 243456, Note_on_c, 2, 46, 91
4, 243456, Note_on_c, 2, 34, 91
4, 243836, Note_off_c, 2, 46, 57
4, 243836, Note_off_c, 2, 34, 57
4, 243840, Note_on_c, 2, 51, 94
4, 243840, Note_on_c, 2, 39, 94
4, 244220, Note_off_c, 2, 51, 57
4, 244220, Note_off_c, 2, 39, 57
4, 244992, Note_on_c, 2, 53, 58
4, 244992, Note_on_c, 2, 41, 58
4, 245372, Note_off_c, 2, 53, 57
4, 245372, Note_off_c, 2, 41, 57
4, 246144, Note_on_c, 2, 58, 58
4, 246144, Note_on_c, 2, 46, 58
4, 246236, Note_off_c, 2, 46, 57
4, 246272, Note_on_c, 2, 62, 58
4, 246276, Note_off_c, 2, 58, 57
4, 246400, Note_on_c, 2, 65, 58
4, 246404, Note_off_c, 2, 62, 57
4, 246524, Note_off_c, 2, 65, 57
4, 246528, Note_on_c, 2, 58, 58
4, 246656, Note_on_c, 2, 62, 58
4, 246660, Note_off_c, 2, 58, 57
4, 246784, Note_on_c, 2, 65, 58
4, 246788, Note_off_c, 2, 62, 57
4, 246908, Note_off_c, 2, 65, 57
4, 246912, Note_on_c, 2, 58, 58
4, 247040, Note_on_c, 2, 62, 58
4, 247044, Note_off_c, 2, 58, 57
4, 247168, Note_on_c, 2, 65, 58
4, 247172, Note_off_c, 2, 62, 57
4, 247292, Note_off_c, 2, 65, 57
4, 247296, Note_on_c, 2, 58, 63
4, 247424, Note_on_c, 2, 62, 63
4, 247428, Note_off_c, 2, 58, 57
4, 247556, Note_off_c, 2, 62, 57
4, 247556, Note_on_c, 2, 65, 63
4, 247680, Note_off_c, 2, 65, 57
4, 247680, Note_on_c, 2, 58, 63
4, 247808, Note_on_c, 2, 62, 63
4, 247812, Note_off_c, 2, 58, 57
4, 247940, Note_off_c, 2, 62, 57
4, 247940, Note_on_c, 2, 65, 63
4, 248064, Note_off_c, 2, 65, 57
4, 248064, Note_on_c, 2, 58, 63
4, 248192, Note_on_c, 2, 62, 63
4, 248196, Note_off_c, 2, 58, 57
4, 248324, Note_off_c, 2, 62, 57
4, 248324, Note_on_c, 2, 65, 63
4, 248448, Note_off_c, 2, 65, 57
4, 248448, Note_on_c, 2, 58, 63
4, 248576, Note_on_c, 2, 63, 63
4, 248580, Note_off_c, 2, 58, 57
4, 248708, Note_off_c, 2, 63, 57
4, 248708, Note_on_c, 2, 65, 63
4, 248832, Note_off_c, 2, 65, 57
4, 248832, Note_on_c, 2, 58, 63
4, 248960, Note_on_c, 2, 63, 63
4, 248964, Note_off_c, 2, 58, 57
4, 249092, Note_off_c, 2, 63, 57
4, 249092, Note_on_c, 2, 65, 63
4, 249216, Note_off_c, 2, 65, 57
4, 249216, Note_on_c, 2, 58, 63
4, 249344, Note_on_c, 2, 63, 63
4, 249348, Note_off_c, 2, 58, 57
4, 249476, Note_off_c, 2, 63, 57
4, 249476, Note_on_c, 2, 65, 63
4, 249600, Note_off_c, 2, 65, 57
4, 249600, Note_on_c, 2, 58, 63
4, 249728, Note_on_c, 2, 63, 63
4, 249732, Note_off_c, 2, 58, 57
4, 249860, Note_off_c, 2, 63, 57
4, 249860, Note_on_c, 2, 65, 63
4, 249984, Note_off_c, 2, 65, 57
4, 249984, Note_on_c, 2, 58, 63
4, 250112, Note_on_c, 2, 63, 63
4, 250116, Note_off_c, 2, 58, 57
4, 250244, Note_off_c, 2, 63, 57
4, 250244, Note_on_c, 2, 65, 63
4, 250368, Note_off_c, 2, 65, 57
4, 250368, Note_on_c, 2, 58, 63
4, 250496, Note_on_c, 2, 63, 63
4, 250500, Note_off_c, 2, 58, 57
4, 250628, Note_off_c, 2, 63, 57
4, 250628, Note_on_c, 2, 65, 63
4, 250752, Note_off_c, 2, 65, 57
4, 250752, Note_on_c, 2, 58, 63
4, 250880, Note_on_c, 2, 62, 63
4, 250884, Note_off_c, 2, 58, 57
4, 251012, Note_off_c, 2, 62, 57
4, 251012, Note_on_c, 2, 65, 63
4, 251136, Note_off_c, 2, 65, 57
4, 251136, Note_on_c, 2, 58, 63
4, 251264, Note_on_c, 2, 62, 63
4, 251268, Note_off_c, 2, 58, 57
4, 251396, Note_off_c, 2, 62, 57
4, 251396, Note_on_c, 2, 65, 63
4, 251520, Note_off_c, 2, 65, 57
4, 251520, Note_on_c, 2, 58, 58
4, 251648, Note_on_c, 2, 62, 59
4, 251652, Note_off_c, 2, 58, 57
4, 251780, Note_off_c, 2, 62, 57
4, 251780, Note_on_c, 2, 65, 61
4, 251904, Note_off_c, 2, 65, 57
4, 251904, Note_on_c, 2, 58, 63
4, 252032, Note_on_c, 2, 65, 64
4, 252036, Note_off_c, 2, 58, 57
4, 252164, Note_off_c, 2, 65, 57
4, 252164, Note_on_c, 2, 68, 66
4, 252288, Note_off_c, 2, 68, 57
4, 252288, Note_on_c, 2, 58, 68
4, 252416, Note_on_c, 2, 65, 69
4, 252420, Note_off_c, 2, 58, 57
4, 252548, Note_off_c, 2, 65, 57
4, 252548, Note_on_c, 2, 68, 71
4, 252672, Note_off_c, 2, 68, 57
4, 252672, Note_on_c, 2, 58, 72
4, 252800, Note_on_c, 2, 65, 74
4, 252804, Note_off_c, 2, 58, 57
4, 252932, Note_off_c, 2, 65, 57
4, 252932, Note_on_c, 2, 68, 76
4, 253056, Note_off_c, 2, 68, 57
4, 253056, Note_on_c, 2, 58, 78
4, 253184, Note_on_c, 2, 63, 79
4, 253188, Note_off_c, 2, 58, 57
4, 253316, Note_off_c, 2, 63, 57
4, 253316, Note_on_c, 2, 67, 81
4, 253440, Note_off_c, 2, 67, 57
4, 253440, Note_on_c, 2, 58, 82
4, 253568, Note_on_c, 2, 63, 84
4, 253572, Note_off_c, 2, 58, 57
4, 253700, Note_off_c, 2, 63, 57
4, 253700, Note_on_c, 2, 67, 86
4, 253824, Note_off_c, 2, 67, 57
4, 253824, Note_on_c, 2, 58, 88
4, 253952, Note_on_c, 2, 63, 89
4, 253956, Note_off_c, 2, 58, 57
4, 254084, Note_off_c, 2, 63, 57
4, 254084, Note_on_c, 2, 67, 90
4, 254208, Note_off_c, 2, 67, 57
4, 254208, Note_on_c, 2, 58, 92
4, 254336, Note_on_c, 2, 60, 94
4, 254340, Note_off_c, 2, 58, 57
4, 254468, Note_off_c, 2, 60, 57
4, 254468, Note_on_c, 2, 63, 96
4, 254592, Note_off_c, 2, 63, 57
4, 254592, Note_on_c, 2, 58, 98
4, 254720, Note_on_c, 2, 60, 99
4, 254724, Note_off_c, 2, 58, 57
4, 254852, Note_off_c, 2, 60, 57
4, 254852, Note_on_c, 2, 63, 100
4, 254976, Note_off_c, 2, 63, 57
4, 254976, Note_on_c, 2, 58, 102
4, 255104, Note_on_c, 2, 60, 104
4, 255108, Note_off_c, 2, 58, 57
4, 255236, Note_off_c, 2, 60, 57
4, 255236, Note_on_c, 2, 63, 106
4, 255360, Note_off_c, 2, 63, 57
4, 255360, Note_on_c, 2, 58, 108
4, 255548, Note_off_c, 2, 58, 57
4, 255744, Note_on_c, 2, 62, 108
4, 255932, Note_off_c, 2, 62, 57
4, 256128, Note_on_c, 2, 65, 108
4, 256316, Note_off_c, 2, 65, 57
4, 256512, Note_on_c, 2, 53, 94
4, 257660, Note_off_c, 2, 53, 57
4, 257664, Note_on_c, 2, 46, 94
4, 257852, Note_off_c, 2, 46, 57
4, 258048, Note_on_c, 2, 50, 94
4, 258236, Note_off_c, 2, 50, 57
4, 258432, Note_on_c, 2, 53, 94
4, 258620, Note_off_c, 2, 53, 57
4, 258816, Note_on_c, 2, 41, 94
4, 259964, Note_off_c, 2, 41, 57
4, 259968, Note_on_c, 2, 34, 94
4, 260156, Note_off_c, 2, 34, 57
4, 260352, Note_on_c, 2, 38, 94
4, 260540, Note_off_c, 2, 38, 57
4, 260736, Note_on_c, 2, 41, 94
4, 260924, Note_off_c, 2, 41, 57
4, 261120, Note_on_c, 2, 41, 94
4, 262268, Note_off_c, 2, 41, 57
4, 262272, Note_on_c, 2, 58, 94
4, 262272, Note_on_c, 2, 46, 94
4, 262272, Note_on_c, 2, 50, 94
4, 262272, Note_on_c, 2, 34, 94
4, 262528, Note_off_c, 2, 58, 57
4, 262528, Note_off_c, 2, 46, 57
4, 262528, Note_off_c, 2, 50, 57
4, 262528, Note_off_c, 2, 34, 57
4, 262656, Note_on_c, 2, 34, 94
4, 262656, Note_on_c, 2, 46, 94
4, 262656, Note_on_c, 2, 50, 94
4, 262656, Note_on_c, 2, 58, 94
4, 262912, Note_off_c, 2, 34, 57
4, 262912, Note_off_c, 2, 46, 57
4, 262912, Note_off_c, 2, 50, 57
4, 262912, Note_off_c, 2, 58, 57
4, 263040, Note_on_c, 2, 34, 94
4, 263040, Note_on_c, 2, 46, 94
4, 263040, Note_on_c, 2, 50, 94
4, 263040, Note_on_c, 2, 58, 94
4, 263296, Note_off_c, 2, 34, 57
4, 263296, Note_off_c, 2, 46, 57
4, 263296, Note_off_c, 2, 50, 57
4, 263296, Note_off_c, 2, 58, 57
4, 263424, Note_on_c, 2, 58, 94
4, 263424, Note_on_c, 2, 50, 94
4, 263424, Note_on_c, 2, 46, 94
4, 263424, Note_on_c, 2, 34, 94
4, 263680, Note_off_c, 2, 58, 57
4, 263680, Note_off_c, 2, 50, 57
4, 263680, Note_off_c, 2, 46, 57
4, 263680, Note_off_c, 2, 34, 57
4, 264576, Note_on_c, 2, 55, 90
4, 264704, Note_off_c, 2, 55, 57
4, 264960, Note_on_c, 2, 59, 90
4, 265088, Note_off_c, 2, 59, 57
4, 265344, Note_on_c, 2, 62, 90
4, 265472, Note_off_c, 2, 62, 57
4, 265728, Note_on_c, 2, 60, 102
4, 266496, Note_off_c, 2, 60, 57
4, 266880, Note_on_c, 2, 43, 90
4, 267008, Note_off_c, 2, 43, 57
4, 267264, Note_on_c, 2, 47, 90
4, 267392, Note_off_c, 2, 47, 57
4, 267648, Note_on_c, 2, 50, 90
4, 267776, Note_off_c, 2, 50, 57
4, 268032, Note_on_c, 2, 48, 90
4, 268544, Note_off_c, 2, 48, 57
4, 269184, Note_on_c, 2, 31, 90
4, 269184, Note_on_c, 2, 43, 90
4, 270716, Note_off_c, 2, 31, 57
4, 270716, Note_off_c, 2, 43, 57
4, 270720, Note_on_c, 2, 43, 90
4, 270720, Note_on_c, 2, 31, 90
4, 271100, Note_off_c, 2, 43, 57
4, 271100, Note_off_c, 2, 31, 57
4, 271104, Note_on_c, 2, 43, 90
4, 271104, Note_on_c, 2, 31, 90
4, 271484, Note_off_c, 2, 43, 57
4, 271484, Note_off_c, 2, 31, 57
4, 271488, Note_on_c, 2, 36, 90
4, 271868, Note_off_c, 2, 36, 57
4, 273024, Note_on_c, 2, 43, 110
4, 273024, Note_on_c, 2, 31, 110
4, 273404, Note_off_c, 2, 43, 57
4, 273404, Note_off_c, 2, 31, 57
4, 273408, Note_on_c, 2, 48, 110
4, 273408, Note_on_c, 2, 36, 110
4, 273788, Note_off_c, 2, 48, 57
4, 273788, Note_off_c, 2, 36, 57
4, 273792, Note_on_c, 2, 50, 110
4, 273792, Note_on_c, 2, 38, 110
4, 274172, Note_off_c, 2, 50, 57
4, 274172, Note_off_c, 2, 38, 57
4, 275328, Note_on_c, 2, 43, 90
4, 275328, Note_on_c, 2, 31, 90
4, 275708, Note_off_c, 2, 43, 57
4, 275708, Note_off_c, 2, 31, 57
4, 275712, Note_on_c, 2, 50, 90
4, 275712, Note_on_c, 2, 38, 90
4, 276092, Note_off_c, 2, 50, 57
4, 276092, Note_off_c, 2, 38, 57
4, 276096, Note_on_c, 2, 51, 90
4, 276224, Note_on_c, 2, 55, 90
4, 276228, Note_off_c, 2, 51, 57
4, 276356, Note_off_c, 2, 55, 57
4, 276356, Note_on_c, 2, 60, 90
4, 276480, Note_off_c, 2, 60, 57
4, 276480, Note_on_c, 2, 51, 90
4, 276608, Note_on_c, 2, 55, 90
4, 276612, Note_off_c, 2, 51, 57
4, 276740, Note_off_c, 2, 55, 57
4, 276740, Note_on_c, 2, 60, 90
4, 276864, Note_off_c, 2, 60, 57
4, 276864, Note_on_c, 2, 51, 90
4, 276992, Note_on_c, 2, 55, 90
4, 276996, Note_off_c, 2, 51, 57
4, 277124, Note_off_c, 2, 55, 57
4, 277124, Note_on_c, 2, 60, 90
4, 277248, Note_off_c, 2, 60, 57
4, 277248, Note_on_c, 2, 51, 90
4, 277376, Note_on_c, 2, 55, 90
4, 277380, Note_off_c, 2, 51, 57
4, 277508, Note_off_c, 2, 55, 57
4, 277508, Note_on_c, 2, 60, 90
4, 277632, Note_off_c, 2, 60, 57
4, 277632, Note_on_c, 2, 51, 90
4, 277760, Note_on_c, 2, 55, 90
4, 277764, Note_off_c, 2, 51, 57
4, 277892, Note_off_c, 2, 55, 57
4, 277892, Note_on_c, 2, 60, 90
4, 278016, Note_off_c, 2, 60, 57
4, 278016, Note_on_c, 2, 51, 90
4, 278144, Note_on_c, 2, 55, 90
4, 278148, Note_off_c, 2, 51, 57
4, 278276, Note_off_c, 2, 55, 57
4, 278276, Note_on_c, 2, 60, 90
4, 278400, Note_off_c, 2, 60, 57
4, 278400, Note_on_c, 2, 53, 90
4, 278528, Note_on_c, 2, 55, 90
4, 278532, Note_off_c, 2, 53, 57
4, 278660, Note_off_c, 2, 55, 57
4, 278660, Note_on_c, 2, 59, 90
4, 278784, Note_off_c, 2, 59, 57
4, 278784, Note_on_c, 2, 53, 90
4, 278912, Note_on_c, 2, 55, 90
4, 278916, Note_off_c, 2, 53, 57
4, 279044, Note_off_c, 2, 55, 57
4, 279044, Note_on_c, 2, 59, 90
4, 279168, Note_off_c, 2, 59, 57
4, 279168, Note_on_c, 2, 53, 90
4, 279296, Note_on_c, 2, 55, 90
4, 279300, Note_off_c, 2, 53, 57
4, 279428, Note_off_c, 2, 55, 57
4, 279428, Note_on_c, 2, 59, 90
4, 279552, Note_off_c, 2, 59, 57
4, 279552, Note_on_c, 2, 53, 90
4, 279680, Note_on_c, 2, 55, 90
4, 279684, Note_off_c, 2, 53, 57
4, 279812, Note_off_c, 2, 55, 57
4, 279812, Note_on_c, 2, 59, 90
4, 279936, Note_off_c, 2, 59, 57
4, 279936, Note_on_c, 2, 53, 90
4, 280064, Note_on_c, 2, 55, 90
4, 280068, Note_off_c, 2, 53, 57
4, 280196, Note_off_c, 2, 55, 57
4, 280196, Note_on_c, 2, 59, 90
4, 280320, Note_off_c, 2, 59, 57
4, 280320, Note_on_c, 2, 53, 90
4, 280448, Note_on_c, 2, 55, 90
4, 280452, Note_off_c, 2, 53, 57
4, 280580, Note_off_c, 2, 55, 57
4, 280580, Note_on_c, 2, 59, 90
4, 280704, Note_off_c, 2, 59, 57
4, 280704, Note_on_c, 2, 60, 108
4, 280704, Note_on_c, 2, 48, 108
4, 281084, Note_off_c, 2, 60, 57
4, 281084, Note_off_c, 2, 48, 57
4, 281856, Note_on_c, 2, 58, 108
4, 281856, Note_on_c, 2, 51, 108
4, 281856, Note_on_c, 2, 46, 108
4, 282236, Note_off_c, 2, 58, 57
4, 282236, Note_off_c, 2, 51, 57
4, 282236, Note_off_c, 2, 46, 57
4, 283008, Note_on_c, 2, 56, 108
4, 283008, Note_on_c, 2, 51, 108
4, 283008, Note_on_c, 2, 44, 108
4, 283388, Note_off_c, 2, 56, 57
4, 283388, Note_off_c, 2, 51, 57
4, 283388, Note_off_c, 2, 44, 57
4, 284160, Note_on_c, 2, 51, 108
4, 284160, Note_on_c, 2, 39, 108
4, 284540, Note_off_c, 2, 51, 57
4, 284540, Note_off_c, 2, 39, 57
4, 285312, Note_on_c, 2, 44, 108
4, 285312, Note_on_c, 2, 32, 108
4, 285692, Note_off_c, 2, 44, 57
4, 285692, Note_off_c, 2, 32, 57
4, 286848, Note_on_c, 2, 39, 108
4, 287036, Note_off_c, 2, 39, 57
4, 287232, Note_on_c, 2, 44, 108
4, 287420, Note_off_c, 2, 44, 57
4, 287616, Note_on_c, 2, 46, 108
4, 287804, Note_off_c, 2, 46, 57
4, 289152, Note_on_c, 2, 39, 108
4, 289340, Note_off_c, 2, 39, 57
4, 289536, Note_on_c, 2, 46, 108
4, 289724, Note_off_c, 2, 46, 57
4, 289920, Note_on_c, 2, 48, 108
4, 290108, Note_off_c, 2, 48, 57
4, 290304, Note_on_c, 2, 56, 108
4, 290432, Note_on_c, 2, 60, 108
4, 290436, Note_off_c, 2, 56, 57
4, 290564, Note_off_c, 2, 60, 57
4, 290564, Note_on_c, 2, 63, 108
4, 290688, Note_off_c, 2, 63, 57
4, 290688, Note_on_c, 2, 56, 108
4, 290816, Note_on_c, 2, 60, 108
4, 290820, Note_off_c, 2, 56, 57
4, 290948, Note_off_c, 2, 60, 57
4, 290948, Note_on_c, 2, 63, 108
4, 291072, Note_off_c, 2, 63, 57
4, 291072, Note_on_c, 2, 56, 108
4, 291200, Note_on_c, 2, 60, 108
4, 291204, Note_off_c, 2, 56, 57
4, 291332, Note_off_c, 2, 60, 57
4, 291332, Note_on_c, 2, 63, 108
4, 291456, Note_off_c, 2, 63, 57
4, 291456, Note_on_c, 2, 56, 108
4, 291584, Note_on_c, 2, 60, 108
4, 291588, Note_off_c, 2, 56, 57
4, 291716, Note_off_c, 2, 60, 57
4, 291716, Note_on_c, 2, 63, 108
4, 291840, Note_off_c, 2, 63, 57
4, 291840, Note_on_c, 2, 56, 108
4, 291968, Note_on_c, 2, 60, 108
4, 291972, Note_off_c, 2, 56, 57
4, 292100, Note_off_c, 2, 60, 57
4, 292100, Note_on_c, 2, 63, 108
4, 292224, Note_off_c, 2, 63, 57
4, 292224, Note_on_c, 2, 58, 108
4, 292352, Note_on_c, 2, 61, 108
4, 292356, Note_off_c, 2, 58, 57
4, 292484, Note_off_c, 2, 61, 57
4, 292484, Note_on_c, 2, 63, 108
4, 292608, Note_off_c, 2, 63, 57
4, 292608, Note_on_c, 2, 58, 108
4, 292736, Note_on_c, 2, 61, 108
4, 292740, Note_off_c, 2, 58, 57
4, 292868, Note_off_c, 2, 61, 57
4, 292868, Note_on_c, 2, 63, 108
4, 292992, Note_off_c, 2, 63, 57
4, 292992, Note_on_c, 2, 58, 108
4, 293120, Note_on_c, 2, 61, 108
4, 293124, Note_off_c, 2, 58, 57
4, 293252, Note_off_c, 2, 61, 57
4, 293252, Note_on_c, 2, 63, 108
4, 293376, Note_off_c, 2, 63, 57
4, 293376, Note_on_c, 2, 55, 108
4, 293504, Note_on_c, 2, 58, 108
4, 293508, Note_off_c, 2, 55, 57
4, 293636, Note_off_c, 2, 58, 57
4, 293636, Note_on_c, 2, 63, 108
4, 293760, Note_off_c, 2, 63, 57
4, 293760, Note_on_c, 2, 55, 108
4, 293888, Note_on_c, 2, 58, 108
4, 293892, Note_off_c, 2, 55, 57
4, 294020, Note_off_c, 2, 58, 57
4, 294020, Note_on_c, 2, 63, 108
4, 294144, Note_off_c, 2, 63, 57
4, 294144, Note_on_c, 2, 55, 108
4, 294272, Note_on_c, 2, 58, 108
4, 294276, Note_off_c, 2, 55, 57
4, 294404, Note_off_c, 2, 58, 57
4, 294404, Note_on_c, 2, 63, 108
4, 294528, Note_off_c, 2, 63, 57
4, 294528, Note_on_c, 2, 44, 108
4, 294528, Note_on_c, 2, 32, 108
4, 297216, Note_on_c, 2, 45, 108
4, 297216, Note_on_c, 2, 33, 108
4, 297404, Note_off_c, 2, 44, 57
4, 297404, Note_off_c, 2, 32, 57
4, 297596, Note_off_c, 2, 45, 57
4, 297596, Note_off_c, 2, 33, 57
4, 297600, Note_on_c, 2, 53, 108
4, 297600, Note_on_c, 2, 41, 108
4, 297980, Note_off_c, 2, 53, 57
4, 297980, Note_off_c, 2, 41, 57
4, 297984, Note_on_c, 2, 53, 108
4, 297984, Note_on_c, 2, 41, 108
4, 299132, Note_off_c, 2, 53, 57
4, 299132, Note_off_c, 2, 41, 57
4, 299136, Note_on_c, 2, 46, 108
4, 299136, Note_on_c, 2, 34, 108
4, 301824, Note_on_c, 2, 47, 108
4, 301824, Note_on_c, 2, 35, 108
4, 302012, Note_off_c, 2, 46, 57
4, 302012, Note_off_c, 2, 47, 57
4, 302012, Note_off_c, 2, 35, 57
4, 302204, Note_off_c, 2, 34, 57
4, 302208, Note_on_c, 2, 55, 108
4, 302208, Note_on_c, 2, 43, 108
4, 302396, Note_off_c, 2, 55, 57
4, 302396, Note_off_c, 2, 43, 57
4, 302592, Note_on_c, 2, 55, 108
4, 302592, Note_on_c, 2, 43, 108
4, 303740, Note_off_c, 2, 55, 57
4, 303740, Note_off_c, 2, 43, 57
4, 303744, Note_on_c, 2, 48, 108
4, 303744, Note_on_c, 2, 36, 108
4, 306428, Note_off_c, 2, 48, 57
4, 306428, Note_off_c, 2, 36, 57
4, 306432, Note_on_c, 2, 49, 108
4, 306432, Note_on_c, 2, 37, 108
4, 306620, Note_off_c, 2, 49, 57
4, 306620, Note_off_c, 2, 37, 57
4, 306816, Note_on_c, 2, 57, 108
4, 306816, Note_on_c, 2, 45, 108
4, 307004, Note_off_c, 2, 57, 57
4, 307004, Note_off_c, 2, 45, 57
4, 307200, Note_on_c, 2, 57, 108
4, 307200, Note_on_c, 2, 45, 108
4, 308732, Note_off_c, 2, 57, 57
4, 308736, Note_on_c, 2, 50, 108
4, 308736, Note_on_c, 2, 38, 108
4, 308924, Note_off_c, 2, 50, 57
4, 308924, Note_off_c, 2, 38, 57
4, 309120, Note_on_c, 2, 45, 108
4, 309120, Note_on_c, 2, 57, 108
4, 309308, Note_off_c, 2, 45, 57
4, 309308, Note_off_c, 2, 45, 57
4, 309308, Note_off_c, 2, 57, 57
4, 309504, Note_on_c, 2, 57, 108
4, 309504, Note_on_c, 2, 45, 108
4, 311036, Note_off_c, 2, 57, 57
4, 311036, Note_off_c, 2, 45, 57
4, 311040, Note_on_c, 2, 40, 108
4, 311228, Note_off_c, 2, 40, 57
4, 311424, Note_on_c, 2, 49, 108
4, 311612, Note_off_c, 2, 49, 57
4, 311808, Note_on_c, 2, 49, 108
4, 313340, Note_off_c, 2, 49, 57
4, 313344, Note_on_c, 2, 41, 108
4, 313532, Note_off_c, 2, 41, 57
4, 313728, Note_on_c, 2, 50, 108
4, 313916, Note_off_c, 2, 50, 57
4, 314112, Note_on_c, 2, 50, 108
4, 315260, Note_off_c, 2, 50, 57
4, 315264, Note_on_c, 2, 55, 108
4, 315264, Note_on_c, 2, 43, 108
4, 316412, Note_off_c, 2, 55, 57
4, 316412, Note_off_c, 2, 43, 57
4, 316416, Note_on_c, 2, 58, 63
4, 316416, Note_on_c, 2, 46, 63
4, 317564, Note_off_c, 2, 58, 57
4, 317564, Note_off_c, 2, 46, 57
4, 317568, Note_on_c, 2, 57, 63
4, 317568, Note_on_c, 2, 45, 63
4, 318140, Note_off_c, 2, 57, 57
4, 318140, Note_off_c, 2, 45, 57
4, 318720, Note_on_c, 2, 45, 49
4, 319100, Note_off_c, 2, 45, 57
4, 319872, Note_on_c, 2, 50, 54
4, 320060, Note_off_c, 2, 50, 57
4, 320064, Note_on_c, 2, 57, 54
4, 320252, Note_off_c, 2, 57, 57
4, 320256, Note_on_c, 2, 53, 54
4, 320444, Note_off_c, 2, 53, 57
4, 320448, Note_on_c, 2, 57, 54
4, 320636, Note_off_c, 2, 57, 57
4, 320640, Note_on_c, 2, 50, 54
4, 320828, Note_off_c, 2, 50, 57
4, 320832, Note_on_c, 2, 57, 54
4, 321020, Note_off_c, 2, 57, 57
4, 321024, Note_on_c, 2, 50, 54
4, 321212, Note_off_c, 2, 50, 57
4, 321216, Note_on_c, 2, 57, 54
4, 321404, Note_off_c, 2, 57, 57
4, 321408, Note_on_c, 2, 53, 54
4, 321596, Note_off_c, 2, 53, 57
4, 321600, Note_on_c, 2, 57, 54
4, 321788, Note_off_c, 2, 57, 57
4, 321792, Note_on_c, 2, 50, 54
4, 321980, Note_off_c, 2, 50, 57
4, 321984, Note_on_c, 2, 57, 54
4, 322172, Note_off_c, 2, 57, 57
4, 322176, Note_on_c, 2, 52, 54
4, 322364, Note_off_c, 2, 52, 57
4, 322368, Note_on_c, 2, 57, 54
4, 322556, Note_off_c, 2, 57, 57
4, 322560, Note_on_c, 2, 55, 54
4, 322748, Note_off_c, 2, 55, 57
4, 322752, Note_on_c, 2, 57, 54
4, 322940, Note_off_c, 2, 57, 57
4, 322944, Note_on_c, 2, 52, 54
4, 323132, Note_off_c, 2, 52, 57
4, 323136, Note_on_c, 2, 57, 54
4, 323324, Note_off_c, 2, 57, 57
4, 323328, Note_on_c, 2, 52, 54
4, 323516, Note_off_c, 2, 52, 57
4, 323520, Note_on_c, 2, 57, 54
4, 323708, Note_off_c, 2, 57, 57
4, 323712, Note_on_c, 2, 55, 54
4, 323900, Note_off_c, 2, 55, 57
4, 323904, Note_on_c, 2, 57, 54
4, 324092, Note_off_c, 2, 57, 57
4, 324096, Note_on_c, 2, 52, 54
4, 324284, Note_off_c, 2, 52, 57
4, 324288, Note_on_c, 2, 57, 54
4, 324476, Note_off_c, 2, 57, 57
4, 324480, Note_on_c, 2, 49, 54
4, 324668, Note_off_c, 2, 49, 57
4, 324672, Note_on_c, 2, 57, 54
4, 324860, Note_off_c, 2, 57, 57
4, 324864, Note_on_c, 2, 55, 54
4, 325052, Note_off_c, 2, 55, 57
4, 325056, Note_on_c, 2, 57, 54
4, 325244, Note_off_c, 2, 57, 57
4, 325248, Note_on_c, 2, 53, 54
4, 325436, Note_off_c, 2, 53, 57
4, 325440, Note_on_c, 2, 57, 54
4, 325628, Note_off_c, 2, 57, 57
4, 325632, Note_on_c, 2, 52, 54
4, 325820, Note_off_c, 2, 52, 57
4, 325824, Note_on_c, 2, 57, 54
4, 326012, Note_off_c, 2, 57, 57
4, 326016, Note_on_c, 2, 50, 54
4, 326204, Note_off_c, 2, 50, 57
4, 326208, Note_on_c, 2, 57, 54
4, 326396, Note_off_c, 2, 57, 57
4, 326400, Note_on_c, 2, 49, 54
4, 326588, Note_off_c, 2, 49, 57
4, 326592, Note_on_c, 2, 57, 54
4, 326780, Note_off_c, 2, 57, 57
4, 326784, Note_on_c, 2, 50, 54
4, 326972, Note_off_c, 2, 50, 57
4, 326976, Note_on_c, 2, 57, 54
4, 327164, Note_off_c, 2, 57, 57
4, 327168, Note_on_c, 2, 53, 54
4, 327356, Note_off_c, 2, 53, 57
4, 327360, Note_on_c, 2, 57, 54
4, 327548, Note_off_c, 2, 57, 57
4, 327552, Note_on_c, 2, 50, 54
4, 327740, Note_off_c, 2, 50, 57
4, 327744, Note_on_c, 2, 57, 54
4, 327932, Note_off_c, 2, 57, 57
4, 327936, Note_on_c, 2, 50, 99
4, 328124, Note_off_c, 2, 50, 57
4, 328128, Note_on_c, 2, 57, 99
4, 328316, Note_off_c, 2, 57, 57
4, 328320, Note_on_c, 2, 54, 99
4, 328508, Note_off_c, 2, 54, 57
4, 328512, Note_on_c, 2, 57, 99
4, 328700, Note_off_c, 2, 57, 57
4, 328704, Note_on_c, 2, 50, 99
4, 328892, Note_off_c, 2, 50, 57
4, 328896, Note_on_c, 2, 57, 99
4, 329084, Note_off_c, 2, 57, 57
4, 329088, Note_on_c, 2, 55, 94
4, 329468, Note_off_c, 2, 55, 57
4, 330240, Note_on_c, 2, 55, 94
4, 330240, Note_on_c, 2, 43, 94
4, 330620, Note_off_c, 2, 55, 57
4, 330620, Note_off_c, 2, 43, 57
4, 331392, Note_on_c, 2, 50, 94
4, 331392, Note_on_c, 2, 38, 94
4, 331772, Note_off_c, 2, 50, 57
4, 331772, Note_off_c, 2, 38, 57
4, 332544, Note_on_c, 2, 50, 94
4, 332544, Note_on_c, 2, 38, 94
4, 332924, Note_off_c, 2, 50, 57
4, 332924, Note_off_c, 2, 38, 57
4, 337344, Note_on_c, 2, 58, 90
4, 337536, Note_on_c, 2, 57, 90
4, 337724, Note_off_c, 2, 58, 57
4, 337728, Note_on_c, 2, 58, 90
4, 337916, Note_off_c, 2, 57, 57
4, 337916, Note_off_c, 2, 58, 57
4, 337920, Note_on_c, 2, 56, 90
4, 338108, Note_off_c, 2, 56, 57
4, 338112, Note_on_c, 2, 53, 90
4, 338300, Note_off_c, 2, 53, 57
4, 338304, Note_on_c, 2, 51, 63
4, 338492, Note_off_c, 2, 51, 57
4, 338496, Note_on_c, 2, 58, 63
4, 338684, Note_off_c, 2, 58, 57
4, 338688, Note_on_c, 2, 55, 63
4, 338876, Note_off_c, 2, 55, 57
4, 338880, Note_on_c, 2, 58, 63
4, 339068, Note_off_c, 2, 58, 57
4, 339072, Note_on_c, 2, 51, 63
4, 339260, Note_off_c, 2, 51, 57
4, 339264, Note_on_c, 2, 58, 63
4, 339452, Note_off_c, 2, 58, 57
4, 339456, Note_on_c, 2, 51, 63
4, 339644, Note_off_c, 2, 51, 57
4, 339648, Note_on_c, 2, 58, 63
4, 339836, Note_off_c, 2, 58, 57
4, 339840, Note_on_c, 2, 55, 63
4, 340028, Note_off_c, 2, 55, 57
4, 340032, Note_on_c, 2, 58, 63
4, 340220, Note_off_c, 2, 58, 57
4, 340224, Note_on_c, 2, 51, 63
4, 340412, Note_off_c, 2, 51, 57
4, 340416, Note_on_c, 2, 58, 63
4, 340604, Note_off_c, 2, 58, 57
4, 340608, Note_on_c, 2, 53, 63
4, 340796, Note_off_c, 2, 53, 57
4, 340800, Note_on_c, 2, 58, 63
4, 340988, Note_off_c, 2, 58, 57
4, 340992, Note_on_c, 2, 56, 63
4, 341180, Note_off_c, 2, 56, 57
4, 341184, Note_on_c, 2, 58, 63
4, 341372, Note_off_c, 2, 58, 57
4, 341376, Note_on_c, 2, 53, 63
4, 341564, Note_off_c, 2, 53, 57
4, 341568, Note_on_c, 2, 58, 63
4, 341756, Note_off_c, 2, 58, 57
4, 341760, Note_on_c, 2, 53, 63
4, 341948, Note_off_c, 2, 53, 57
4, 341952, Note_on_c, 2, 58, 63
4, 342140, Note_off_c, 2, 58, 57
4, 342144, Note_on_c, 2, 56, 63
4, 342332, Note_off_c, 2, 56, 57
4, 342336, Note_on_c, 2, 58, 63
4, 342524, Note_off_c, 2, 58, 57
4, 342528, Note_on_c, 2, 53, 63
4, 342716, Note_off_c, 2, 53, 57
4, 342720, Note_on_c, 2, 58, 63
4, 342908, Note_off_c, 2, 58, 57
4, 342912, Note_on_c, 2, 46, 63
4, 343100, Note_off_c, 2, 46, 57
4, 343104, Note_on_c, 2, 58, 63
4, 343292, Note_off_c, 2, 58, 57
4, 343296, Note_on_c, 2, 56, 63
4, 343484, Note_off_c, 2, 56, 57
4, 343488, Note_on_c, 2, 58, 63
4, 343676, Note_off_c, 2, 58, 57
4, 343680, Note_on_c, 2, 55, 63
4, 343868, Note_off_c, 2, 55, 57
4, 343872, Note_on_c, 2, 58, 63
4, 344060, Note_off_c, 2, 58, 57
4, 344064, Note_on_c, 2, 53, 63
4, 344256, Note_on_c, 2, 58, 63
4, 344444, Note_off_c, 2, 53, 57
4, 344448, Note_on_c, 2, 51, 63
4, 344636, Note_off_c, 2, 58, 57
4, 344640, Note_on_c, 2, 58, 63
4, 344828, Note_off_c, 2, 51, 57
4, 344832, Note_on_c, 2, 50, 63
4, 345020, Note_off_c, 2, 58, 57
4, 345024, Note_on_c, 2, 58, 63
4, 345212, Note_off_c, 2, 50, 57
4, 345212, Note_off_c, 2, 58, 57
4, 345216, Note_on_c, 2, 51, 63
4, 345404, Note_off_c, 2, 51, 57
4, 345408, Note_on_c, 2, 58, 63
4, 345596, Note_off_c, 2, 58, 57
4, 345600, Note_on_c, 2, 55, 63
4, 345788, Note_off_c, 2, 55, 57
4, 345792, Note_on_c, 2, 58, 63
4, 345980, Note_off_c, 2, 58, 57
4, 345984, Note_on_c, 2, 51, 63
4, 346172, Note_off_c, 2, 51, 57
4, 346176, Note_on_c, 2, 58, 63
4, 346364, Note_off_c, 2, 58, 57
4, 346368, Note_on_c, 2, 50, 63
4, 346556, Note_off_c, 2, 50, 57
4, 346560, Note_on_c, 2, 59, 63
4, 346748, Note_off_c, 2, 59, 57
4, 346752, Note_on_c, 2, 53, 63
4, 346940, Note_off_c, 2, 53, 57
4, 346944, Note_on_c, 2, 59, 63
4, 347132, Note_off_c, 2, 59, 57
4, 347136, Note_on_c, 2, 50, 63
4, 347324, Note_off_c, 2, 50, 57
4, 347328, Note_on_c, 2, 59, 63
4, 347516, Note_off_c, 2, 59, 57
4, 347520, Note_on_c, 2, 48, 63
4, 347708, Note_off_c, 2, 48, 57
4, 347712, Note_on_c, 2, 55, 63
4, 347900, Note_off_c, 2, 55, 57
4, 347904, Note_on_c, 2, 51, 63
4, 348092, Note_off_c, 2, 51, 57
4, 348096, Note_on_c, 2, 55, 63
4, 348284, Note_off_c, 2, 55, 57
4, 348288, Note_on_c, 2, 48, 63
4, 348476, Note_off_c, 2, 48, 57
4, 348480, Note_on_c, 2, 55, 63
4, 348668, Note_off_c, 2, 55, 57
4, 348672, Note_on_c, 2, 46, 63
4, 348860, Note_off_c, 2, 46, 57
4, 348864, Note_on_c, 2, 55, 63
4, 349052, Note_off_c, 2, 55, 57
4, 349056, Note_on_c, 2, 50, 63
4, 349244, Note_off_c, 2, 50, 57
4, 349248, Note_on_c, 2, 55, 63
4, 349436, Note_off_c, 2, 55, 57
4, 349440, Note_on_c, 2, 46, 63
4, 349628, Note_off_c, 2, 46, 57
4, 349632, Note_on_c, 2, 55, 63
4, 349820, Note_off_c, 2, 55, 57
4, 349824, Note_on_c, 2, 45, 63
4, 350012, Note_off_c, 2, 45, 57
4, 350016, Note_on_c, 2, 54, 63
4, 350204, Note_off_c, 2, 54, 57
4, 350208, Note_on_c, 2, 48, 63
4, 350396, Note_off_c, 2, 48, 57
4, 350400, Note_on_c, 2, 54, 63
4, 350588, Note_off_c, 2, 54, 57
4, 350592, Note_on_c, 2, 45, 63
4, 350780, Note_off_c, 2, 45, 57
4, 350784, Note_on_c, 2, 54, 63
4, 350972, Note_off_c, 2, 54, 57
4, 350976, Note_on_c, 2, 43, 63
4, 351164, Note_off_c, 2, 43, 57
4, 351168, Note_on_c, 2, 50, 63
4, 351356, Note_off_c, 2, 50, 57
4, 351360, Note_on_c, 2, 46, 63
4, 351548, Note_off_c, 2, 46, 57
4, 351552, Note_on_c, 2, 50, 63
4, 351740, Note_off_c, 2, 50, 57
4, 351744, Note_on_c, 2, 43, 63
4, 351932, Note_off_c, 2, 43, 57
4, 351936, Note_on_c, 2, 50, 63
4, 352124, Note_off_c, 2, 50, 57
4, 352128, Note_on_c, 2, 42, 63
4, 352316, Note_off_c, 2, 42, 57
4, 352320, Note_on_c, 2, 50, 63
4, 352508, Note_off_c, 2, 50, 57
4, 352512, Note_on_c, 2, 45, 63
4, 352700, Note_off_c, 2, 45, 57
4, 352704, Note_on_c, 2, 50, 63
4, 352892, Note_off_c, 2, 50, 57
4, 352896, Note_on_c, 2, 42, 63
4, 353084, Note_off_c, 2, 42, 57
4, 353088, Note_on_c, 2, 50, 63
4, 353276, Note_off_c, 2, 50, 57
4, 353280, Note_on_c, 2, 43, 63
4, 353468, Note_off_c, 2, 43, 57
4, 353472, Note_on_c, 2, 50, 63
4, 353660, Note_off_c, 2, 50, 57
4, 353664, Note_on_c, 2, 43, 63
4, 353852, Note_off_c, 2, 43, 57
4, 353856, Note_on_c, 2, 50, 63
4, 354044, Note_off_c, 2, 50, 57
4, 354048, Note_on_c, 2, 39, 63
4, 354236, Note_off_c, 2, 39, 57
4, 354240, Note_on_c, 2, 49, 63
4, 354428, Note_off_c, 2, 49, 57
4, 354432, Note_on_c, 2, 38, 63
4, 354620, Note_off_c, 2, 38, 57
4, 354624, Note_on_c, 2, 50, 63
4, 354812, Note_off_c, 2, 50, 57
4, 354816, Note_on_c, 2, 49, 63
4, 355004, Note_off_c, 2, 49, 57
4, 355008, Note_on_c, 2, 50, 63
4, 355196, Note_off_c, 2, 50, 57
4, 355200, Note_on_c, 2, 38, 63
4, 355388, Note_off_c, 2, 38, 57
4, 355392, Note_on_c, 2, 50, 63
4, 355580, Note_off_c, 2, 50, 57
4, 355584, Note_on_c, 2, 38, 99
4, 355772, Note_off_c, 2, 38, 57
4, 355776, Note_on_c, 2, 50, 99
4, 355964, Note_off_c, 2, 50, 57
4, 355968, Note_on_c, 2, 49, 99
4, 356156, Note_off_c, 2, 49, 57
4, 356160, Note_on_c, 2, 50, 99
4, 356348, Note_off_c, 2, 50, 57
4, 356352, Note_on_c, 2, 38, 99
4, 356540, Note_off_c, 2, 38, 57
4, 356544, Note_on_c, 2, 50, 99
4, 356732, Note_off_c, 2, 50, 57
4, 356736, Note_on_c, 2, 38, 99
4, 356924, Note_off_c, 2, 38, 57
4, 356928, Note_on_c, 2, 50, 99
4, 357116, Note_off_c, 2, 50, 57
4, 357120, Note_on_c, 2, 49, 99
4, 357308, Note_off_c, 2, 49, 57
4, 357312, Note_on_c, 2, 50, 99
4, 357500, Note_off_c, 2, 50, 57
4, 357504, Note_on_c, 2, 38, 99
4, 357692, Note_off_c, 2, 38, 57
4, 357696, Note_on_c, 2, 50, 99
4, 357884, Note_off_c, 2, 50, 57
4, 357888, Note_on_c, 2, 38, 99
4, 358076, Note_off_c, 2, 38, 57
4, 358080, Note_on_c, 2, 50, 99
4, 358268, Note_off_c, 2, 50, 57
4, 358272, Note_on_c, 2, 38, 99
4, 358460, Note_off_c, 2, 38, 57
4, 358464, Note_on_c, 2, 50, 99
4, 358652, Note_off_c, 2, 50, 57
4, 358656, Note_on_c, 2, 38, 99
4, 358844, Note_off_c, 2, 38, 57
4, 358848, Note_on_c, 2, 50, 99
4, 359036, Note_off_c, 2, 50, 57
4, 359040, Note_on_c, 2, 38, 63
4, 359228, Note_off_c, 2, 38, 57
4, 359232, Note_on_c, 2, 50, 63
4, 359420, Note_off_c, 2, 50, 57
4, 359424, Note_on_c, 2, 49, 63
4, 359612, Note_off_c, 2, 49, 57
4, 359616, Note_on_c, 2, 50, 63
4, 359804, Note_off_c, 2, 50, 57
4, 359808, Note_on_c, 2, 38, 63
4, 359996, Note_off_c, 2, 38, 57
4, 360000, Note_on_c, 2, 50, 63
4, 360188, Note_off_c, 2, 50, 57
4, 360192, Note_on_c, 2, 38, 63
4, 360380, Note_off_c, 2, 38, 57
4, 360384, Note_on_c, 2, 50, 63
4, 360572, Note_off_c, 2, 50, 57
4, 360576, Note_on_c, 2, 49, 63
4, 360764, Note_off_c, 2, 49, 57
4, 360768, Note_on_c, 2, 50, 63
4, 360956, Note_off_c, 2, 50, 57
4, 360960, Note_on_c, 2, 38, 63
4, 361148, Note_off_c, 2, 38, 57
4, 361152, Note_on_c, 2, 50, 63
4, 361340, Note_off_c, 2, 50, 57
4, 361344, Note_on_c, 2, 38, 99
4, 361532, Note_off_c, 2, 38, 57
4, 361536, Note_on_c, 2, 50, 99
4, 361724, Note_off_c, 2, 50, 57
4, 361728, Note_on_c, 2, 49, 99
4, 361916, Note_off_c, 2, 49, 57
4, 361920, Note_on_c, 2, 50, 99
4, 362108, Note_off_c, 2, 50, 57
4, 362112, Note_on_c, 2, 38, 99
4, 362300, Note_off_c, 2, 38, 57
4, 362304, Note_on_c, 2, 50, 99
4, 362492, Note_off_c, 2, 50, 57
4, 362496, Note_on_c, 2, 38, 99
4, 362684, Note_off_c, 2, 38, 57
4, 362688, Note_on_c, 2, 50, 99
4, 362876, Note_off_c, 2, 50, 57
4, 362880, Note_on_c, 2, 38, 99
4, 363068, Note_off_c, 2, 38, 57
4, 363072, Note_on_c, 2, 50, 99
4, 363260, Note_off_c, 2, 50, 57
4, 363264, Note_on_c, 2, 38, 99
4, 363452, Note_off_c, 2, 38, 57
4, 363456, Note_on_c, 2, 50, 99
4, 363644, Note_off_c, 2, 50, 57
4, 363648, Note_on_c, 2, 38, 63
4, 363836, Note_off_c, 2, 38, 57
4, 363840, Note_on_c, 2, 50, 63
4, 364028, Note_off_c, 2, 50, 57
4, 364032, Note_on_c, 2, 49, 63
4, 364220, Note_off_c, 2, 49, 57
4, 364224, Note_on_c, 2, 50, 63
4, 364412, Note_off_c, 2, 50, 57
4, 364416, Note_on_c, 2, 38, 63
4, 364604, Note_off_c, 2, 38, 57
4, 364608, Note_on_c, 2, 50, 63
4, 364796, Note_off_c, 2, 50, 57
4, 364800, Note_on_c, 2, 38, 99
4, 364988, Note_off_c, 2, 38, 57
4, 364992, Note_on_c, 2, 50, 99
4, 365180, Note_off_c, 2, 50, 57
4, 365184, Note_on_c, 2, 49, 99
4, 365372, Note_off_c, 2, 49, 57
4, 365376, Note_on_c, 2, 50, 99
4, 365564, Note_off_c, 2, 50, 57
4, 365568, Note_on_c, 2, 38, 99
4, 365756, Note_off_c, 2, 38, 57
4, 365760, Note_on_c, 2, 50, 99
4, 365948, Note_off_c, 2, 50, 57
4, 365952, Note_on_c, 2, 38, 99
4, 366140, Note_off_c, 2, 38, 57
4, 366144, Note_on_c, 2, 50, 99
4, 366332, Note_off_c, 2, 50, 57
4, 366336, Note_on_c, 2, 49, 99
4, 366524, Note_off_c, 2, 49, 57
4, 366528, Note_on_c, 2, 50, 99
4, 366716, Note_off_c, 2, 50, 57
4, 366720, Note_on_c, 2, 38, 99
4, 366908, Note_off_c, 2, 38, 57
4, 366912, Note_on_c, 2, 50, 99
4, 367100, Note_off_c, 2, 50, 57
4, 367104, Note_on_c, 2, 38, 99
4, 367292, Note_off_c, 2, 38, 57
4, 367296, Note_on_c, 2, 50, 99
4, 367484, Note_off_c, 2, 50, 57
4, 367488, Note_on_c, 2, 49, 99
4, 367676, Note_off_c, 2, 49, 57
4, 367680, Note_on_c, 2, 50, 99
4, 367868, Note_off_c, 2, 50, 57
4, 367872, Note_on_c, 2, 38, 99
4, 368060, Note_off_c, 2, 38, 57
4, 368064, Note_on_c, 2, 50, 99
4, 368252, Note_off_c, 2, 50, 57
4, 368256, Note_on_c, 2, 38, 99
4, 368444, Note_off_c, 2, 38, 57
4, 368448, Note_on_c, 2, 50, 94
4, 368636, Note_off_c, 2, 50, 57
4, 368640, Note_on_c, 2, 49, 90
4, 368828, Note_off_c, 2, 49, 57
4, 368832, Note_on_c, 2, 50, 85
4, 369020, Note_off_c, 2, 50, 57
4, 369024, Note_on_c, 2, 38, 81
4, 369212, Note_off_c, 2, 38, 57
4, 369216, Note_on_c, 2, 50, 76
4, 369404, Note_off_c, 2, 50, 57
4, 369408, Note_on_c, 2, 50, 72
4, 369408, Note_on_c, 2, 38, 72
4, 369788, Note_off_c, 2, 50, 57
4, 369788, Note_off_c, 2, 38, 57
4, 375168, Note_on_c, 2, 66, 54
4, 375168, Note_on_c, 2, 69, 54
4, 375548, Note_off_c, 2, 66, 57
4, 375548, Note_off_c, 2, 69, 57
4, 375552, Note_on_c, 2, 67, 54
4, 375552, Note_on_c, 2, 70, 54
4, 375932, Note_off_c, 2, 67, 57
4, 375932, Note_off_c, 2, 70, 57
4, 375936, Note_on_c, 2, 69, 54
4, 375936, Note_on_c, 2, 72, 54
4, 376316, Note_off_c, 2, 69, 57
4, 376316, Note_off_c, 2, 72, 57
4, 376320, Note_on_c, 2, 69, 54
4, 376320, Note_on_c, 2, 72, 54
4, 376700, Note_off_c, 2, 69, 57
4, 376700, Note_off_c, 2, 72, 57
4, 378624, Note_on_c, 2, 43, 63
4, 378624, Note_on_c, 2, 31, 63
4, 379776, Note_on_c, 2, 31, 63
4, 379776, Note_on_c, 2, 43, 63
4, 380540, Note_off_c, 2, 43, 57
4, 380540, Note_off_c, 2, 31, 57
4, 380540, Note_off_c, 2, 31, 57
4, 380540, Note_off_c, 2, 43, 57
4, 380928, Note_on_c, 2, 43, 63
4, 380928, Note_on_c, 2, 31, 63
4, 382080, Note_on_c, 2, 31, 63
4, 382080, Note_on_c, 2, 43, 63
4, 382844, Note_off_c, 2, 43, 57
4, 382844, Note_off_c, 2, 31, 57
4, 382844, Note_off_c, 2, 31, 57
4, 382844, Note_off_c, 2, 43, 57
4, 387840, Note_on_c, 2, 50, 54
4, 387840, Note_on_c, 2, 42, 54
4, 388988, Note_off_c, 2, 50, 57
4, 388988, Note_off_c, 2, 42, 57
4, 388992, Note_on_c, 2, 50, 54
4, 388992, Note_on_c, 2, 43, 54
4, 389372, Note_off_c, 2, 50, 57
4, 389372, Note_off_c, 2, 43, 57
4, 390144, Note_on_c, 2, 62, 54
4, 390144, Note_on_c, 2, 54, 54
4, 391292, Note_off_c, 2, 62, 57
4, 391292, Note_off_c, 2, 54, 57
4, 391296, Note_on_c, 2, 62, 54
4, 391296, Note_on_c, 2, 55, 54
4, 391676, Note_off_c, 2, 62, 57
4, 391676, Note_off_c, 2, 55, 57
4, 392448, Note_on_c, 2, 59, 54
4, 392448, Note_on_c, 2, 55, 54
4, 392448, Note_on_c, 2, 47, 54
4, 393596, Note_off_c, 2, 59, 57
4, 393596, Note_off_c, 2, 55, 57
4, 393596, Note_off_c, 2, 47, 57
4, 393600, Note_on_c, 2, 60, 54
4, 393600, Note_on_c, 2, 55, 54
4, 393600, Note_on_c, 2, 48, 54
4, 394172, Note_off_c, 2, 60, 57
4, 394172, Note_off_c, 2, 55, 57
4, 394172, Note_off_c, 2, 48, 57
4, 401664, Note_on_c, 2, 60, 27
4, 401664, Note_on_c, 2, 57, 27
4, 401664, Note_on_c, 2, 50, 27
4, 402812, Note_off_c, 2, 60, 57
4, 402812, Note_off_c, 2, 57, 57
4, 402812, Note_off_c, 2, 50, 57
4, 402816, Note_on_c, 2, 58, 27
4, 402816, Note_on_c, 2, 55, 27
4, 403072, Note_off_c, 2, 58, 57
4, 403072, Note_off_c, 2, 55, 57
4, 403968, Note_on_c, 2, 44, 36
4, 403968, Note_on_c, 2, 32, 36
4, 405116, Note_off_c, 2, 44, 57
4, 405116, Note_off_c, 2, 32, 57
4, 405120, Note_on_c, 2, 46, 47
4, 405120, Note_on_c, 2, 34, 47
4, 406268, Note_off_c, 2, 46, 57
4, 406268, Note_off_c, 2, 34, 57
4, 406272, Note_on_c, 2, 46, 59
4, 406272, Note_on_c, 2, 34, 59
4, 406272, Note_on_c, 2, 53, 59
4, 407036, Note_off_c, 2, 53, 57
4, 407420, Note_off_c, 2, 46, 57
4, 407420, Note_off_c, 2, 34, 57
4, 407424, Note_on_c, 2, 51, 81
4, 407424, Note_on_c, 2, 39, 81
4, 407804, Note_off_c, 2, 51, 57
4, 407804, Note_off_c, 2, 39, 57
4, 407808, Note_on_c, 2, 51, 81
4, 407808, Note_on_c, 2, 39, 81
4, 408188, Note_off_c, 2, 51, 57
4, 408188, Note_off_c, 2, 39, 57
4, 408192, Note_on_c, 2, 51, 81
4, 408192, Note_on_c, 2, 39, 81
4, 408572, Note_off_c, 2, 51, 57
4, 408572, Note_off_c, 2, 39, 57
4, 408576, Note_on_c, 2, 39, 81
4, 408704, Note_on_c, 2, 46, 81
4, 408708, Note_off_c, 2, 39, 57
4, 408836, Note_off_c, 2, 46, 57
4, 408836, Note_on_c, 2, 51, 81
4, 408960, Note_off_c, 2, 51, 57
4, 408960, Note_on_c, 2, 39, 81
4, 409088, Note_on_c, 2, 46, 81
4, 409092, Note_off_c, 2, 39, 57
4, 409220, Note_off_c, 2, 46, 57
4, 409220, Note_on_c, 2, 51, 81
4, 409344, Note_off_c, 2, 51, 57
4, 409344, Note_on_c, 2, 39, 81
4, 409472, Note_on_c, 2, 46, 81
4, 409476, Note_off_c, 2, 39, 57
4, 409604, Note_off_c, 2, 46, 57
4, 409604, Note_on_c, 2, 51, 81
4, 409728, Note_off_c, 2, 51, 57
4, 409728, Note_on_c, 2, 51, 81
4, 409856, Note_on_c, 2, 55, 81
4, 409860, Note_off_c, 2, 51, 57
4, 409988, Note_off_c, 2, 55, 57
4, 409988, Note_on_c, 2, 58, 81
4, 410112, Note_off_c, 2, 58, 57
4, 410112, Note_on_c, 2, 51, 81
4, 410240, Note_on_c, 2, 55, 81
4, 410244, Note_off_c, 2, 51, 57
4, 410372, Note_off_c, 2, 55, 57
4, 410372, Note_on_c, 2, 58, 81
4, 410496, Note_off_c, 2, 58, 57
4, 410496, Note_on_c, 2, 51, 81
4, 410624, Note_on_c, 2, 55, 81
4, 410628, Note_off_c, 2, 51, 57
4, 410756, Note_off_c, 2, 55, 57
4, 410756, Note_on_c, 2, 58, 81
4, 410880, Note_off_c, 2, 58, 57
4, 410880, Note_on_c, 2, 51, 81
4, 411008, Note_on_c, 2, 55, 81
4, 411012, Note_off_c, 2, 51, 57
4, 411140, Note_off_c, 2, 55, 57
4, 411140, Note_on_c, 2, 58, 81
4, 411264, Note_off_c, 2, 58, 57
4, 411264, Note_on_c, 2, 51, 81
4, 411392, Note_on_c, 2, 55, 81
4, 411396, Note_off_c, 2, 51, 57
4, 411524, Note_off_c, 2, 55, 57
4, 411524, Note_on_c, 2, 58, 81
4, 411648, Note_off_c, 2, 58, 57
4, 411648, Note_on_c, 2, 51, 81
4, 411776, Note_on_c, 2, 55, 81
4, 411780, Note_off_c, 2, 51, 57
4, 411908, Note_off_c, 2, 55, 57
4, 411908, Note_on_c, 2, 58, 81
4, 412032, Note_off_c, 2, 58, 57
4, 412032, Note_on_c, 2, 52, 81
4, 412160, Note_on_c, 2, 55, 81
4, 412164, Note_off_c, 2, 52, 57
4, 412292, Note_off_c, 2, 55, 57
4, 412292, Note_on_c, 2, 61, 81
4, 412416, Note_off_c, 2, 61, 57
4, 412416, Note_on_c, 2, 52, 81
4, 412544, Note_on_c, 2, 55, 81
4, 412548, Note_off_c, 2, 52, 57
4, 412676, Note_off_c, 2, 55, 57
4, 412676, Note_on_c, 2, 61, 81
4, 412800, Note_off_c, 2, 61, 57
4, 412800, Note_on_c, 2, 52, 81
4, 412928, Note_on_c, 2, 55, 81
4, 412932, Note_off_c, 2, 52, 57
4, 413060, Note_off_c, 2, 55, 57
4, 413060, Note_on_c, 2, 61, 81
4, 413184, Note_off_c, 2, 61, 57
4, 413184, Note_on_c, 2, 52, 81
4, 413312, Note_on_c, 2, 55, 81
4, 413316, Note_off_c, 2, 52, 57
4, 413444, Note_off_c, 2, 55, 57
4, 413444, Note_on_c, 2, 61, 81
4, 413568, Note_off_c, 2, 61, 57
4, 413568, Note_on_c, 2, 52, 81
4, 413696, Note_on_c, 2, 55, 81
4, 413700, Note_off_c, 2, 52, 57
4, 413828, Note_off_c, 2, 55, 57
4, 413828, Note_on_c, 2, 61, 81
4, 413952, Note_off_c, 2, 61, 57
4, 413952, Note_on_c, 2, 52, 81
4, 414080, Note_on_c, 2, 55, 81
4, 414084, Note_off_c, 2, 52, 57
4, 414212, Note_off_c, 2, 55, 57
4, 414212, Note_on_c, 2, 61, 81
4, 414336, Note_off_c, 2, 61, 57
4, 414336, Note_on_c, 2, 50, 108
4, 414716, Note_off_c, 2, 50, 57
4, 414720, Note_on_c, 2, 60, 108
4, 415292, Note_off_c, 2, 60, 57
4, 415296, Note_on_c, 2, 58, 108
4, 415484, Note_off_c, 2, 58, 57
4, 415488, Note_on_c, 2, 57, 108
4, 415868, Note_off_c, 2, 57, 57
4, 415872, Note_on_c, 2, 58, 108
4, 416444, Note_off_c, 2, 58, 57
4, 416448, Note_on_c, 2, 57, 108
4, 416636, Note_off_c, 2, 57, 57
4, 416640, Note_on_c, 2, 55, 108
4, 416828, Note_off_c, 2, 55, 57
4, 416832, Note_on_c, 2, 62, 108
4, 417020, Note_off_c, 2, 62, 57
4, 417024, Note_on_c, 2, 55, 108
4, 417212, Note_off_c, 2, 55, 57
4, 417216, Note_on_c, 2, 62, 108
4, 417404, Note_off_c, 2, 62, 57
4, 417408, Note_on_c, 2, 54, 108
4, 417596, Note_off_c, 2, 54, 57
4, 417600, Note_on_c, 2, 62, 108
4, 417788, Note_off_c, 2, 62, 57
4, 417792, Note_on_c, 2, 55, 108
4, 417980, Note_off_c, 2, 55, 57
4, 417984, Note_on_c, 2, 62, 108
4, 418172, Note_off_c, 2, 62, 57
4, 418176, Note_on_c, 2, 54, 108
4, 418364, Note_off_c, 2, 54, 57
4, 418368, Note_on_c, 2, 62, 108
4, 418556, Note_off_c, 2, 62, 57
4, 418560, Note_on_c, 2, 55, 108
4, 418748, Note_off_c, 2, 55, 57
4, 418752, Note_on_c, 2, 62, 108
4, 418940, Note_off_c, 2, 62, 57
4, 418944, Note_on_c, 2, 50, 108
4, 419132, Note_off_c, 2, 50, 57
4, 419136, Note_on_c, 2, 62, 108
4, 419324, Note_off_c, 2, 62, 57
4, 419328, Note_on_c, 2, 50, 108
4, 419516, Note_off_c, 2, 50, 57
4, 419520, Note_on_c, 2, 62, 108
4, 419708, Note_off_c, 2, 62, 57
4, 419712, Note_on_c, 2, 50, 108
4, 419900, Note_off_c, 2, 50, 57
4, 419904, Note_on_c, 2, 62, 108
4, 420092, Note_off_c, 2, 62, 57
4, 420096, Note_on_c, 2, 50, 108
4, 420284, Note_off_c, 2, 50, 57
4, 420288, Note_on_c, 2, 62, 108
4, 420476, Note_off_c, 2, 62, 57
4, 420480, Note_on_c, 2, 50, 108
4, 420668, Note_off_c, 2, 50, 57
4, 420672, Note_on_c, 2, 62, 108
4, 420860, Note_off_c, 2, 62, 57
4, 420864, Note_on_c, 2, 50, 108
4, 421052, Note_off_c, 2, 50, 57
4, 421056, Note_on_c, 2, 62, 108
4, 421244, Note_off_c, 2, 62, 57
4, 421248, Note_on_c, 2, 50, 108
4, 421436, Note_off_c, 2, 50, 57
4, 421440, Note_on_c, 2, 62, 108
4, 421628, Note_off_c, 2, 62, 57
4, 421632, Note_on_c, 2, 43, 108
4, 421820, Note_off_c, 2, 43, 57
4, 421824, Note_on_c, 2, 55, 108
4, 422012, Note_off_c, 2, 55, 57
4, 422016, Note_on_c, 2, 45, 108
4, 422204, Note_off_c, 2, 45, 57
4, 422208, Note_on_c, 2, 57, 108
4, 422396, Note_off_c, 2, 57, 57
4, 422400, Note_on_c, 2, 46, 108
4, 422588, Note_off_c, 2, 46, 57
4, 422592, Note_on_c, 2, 58, 108
4, 422780, Note_off_c, 2, 58, 57
4, 422784, Note_on_c, 2, 48, 108
4, 422972, Note_off_c, 2, 48, 57
4, 422976, Note_on_c, 2, 60, 108
4, 423164, Note_off_c, 2, 60, 57
4, 423168, Note_on_c, 2, 49, 108
4, 423356, Note_off_c, 2, 49, 57
4, 423360, Note_on_c, 2, 61, 108
4, 423548, Note_off_c, 2, 61, 57
4, 423552, Note_on_c, 2, 50, 108
4, 423740, Note_off_c, 2, 50, 57
4, 423744, Note_on_c, 2, 62, 108
4, 423932, Note_off_c, 2, 62, 57
4, 423936, Note_on_c, 2, 61, 108
4, 424124, Note_off_c, 2, 61, 57
4, 424128, Note_on_c, 2, 62, 108
4, 424316, Note_off_c, 2, 62, 57
4, 424320, Note_on_c, 2, 61, 108
4, 424508, Note_off_c, 2, 61, 57
4, 424512, Note_on_c, 2, 62, 108
4, 424700, Note_off_c, 2, 62, 57
4, 424704, Note_on_c, 2, 50, 108
4, 424892, Note_off_c, 2, 50, 57
4, 424896, Note_on_c, 2, 62, 108
4, 425084, Note_off_c, 2, 62, 57
4, 425088, Note_on_c, 2, 61, 108
4, 425276, Note_off_c, 2, 61, 57
4, 425280, Note_on_c, 2, 62, 108
4, 425468, Note_off_c, 2, 62, 57
4, 425472, Note_on_c, 2, 61, 108
4, 425660, Note_off_c, 2, 61, 57
4, 425664, Note_on_c, 2, 62, 108
4, 425852, Note_off_c, 2, 62, 57
4, 425856, Note_on_c, 2, 50, 58
4, 426044, Note_off_c, 2, 50, 57
4, 426048, Note_on_c, 2, 62, 58
4, 426236, Note_off_c, 2, 62, 57
4, 426240, Note_on_c, 2, 61, 58
4, 426428, Note_off_c, 2, 61, 57
4, 426432, Note_on_c, 2, 62, 58
4, 426620, Note_off_c, 2, 62, 57
4, 426624, Note_on_c, 2, 61, 58
4, 426812, Note_off_c, 2, 61, 57
4, 426816, Note_on_c, 2, 62, 58
4, 427004, Note_off_c, 2, 62, 57
4, 427008, Note_on_c, 2, 61, 58
4, 427196, Note_off_c, 2, 61, 57
4, 427200, Note_on_c, 2, 62, 58
4, 427388, Note_off_c, 2, 62, 57
4, 427392, Note_on_c, 2, 61, 58
4, 427580, Note_off_c, 2, 61, 57
4, 427584, Note_on_c, 2, 62, 58
4, 427772, Note_off_c, 2, 62, 57
4, 427776, Note_on_c, 2, 61, 58
4, 427964, Note_off_c, 2, 61, 57
4, 427968, Note_on_c, 2, 62, 58
4, 428156, Note_off_c, 2, 62, 57
4, 428160, Note_on_c, 2, 55, 58
4, 428348, Note_off_c, 2, 55, 57
4, 428352, Note_on_c, 2, 62, 58
4, 428540, Note_off_c, 2, 62, 57
4, 428544, Note_on_c, 2, 61, 58
4, 428732, Note_off_c, 2, 61, 57
4, 428736, Note_on_c, 2, 62, 58
4, 428924, Note_off_c, 2, 62, 57
4, 428928, Note_on_c, 2, 57, 58
4, 429116, Note_off_c, 2, 57, 57
4, 429120, Note_on_c, 2, 62, 58
4, 429308, Note_off_c, 2, 62, 57
4, 429312, Note_on_c, 2, 59, 58
4, 429500, Note_off_c, 2, 59, 57
4, 429504, Note_on_c, 2, 62, 58
4, 429692, Note_off_c, 2, 62, 57
4, 429696, Note_on_c, 2, 59, 58
4, 429884, Note_off_c, 2, 59, 57
4, 429888, Note_on_c, 2, 62, 58
4, 430076, Note_off_c, 2, 62, 57
4, 430080, Note_on_c, 2, 59, 58
4, 430268, Note_off_c, 2, 59, 57
4, 430272, Note_on_c, 2, 62, 58
4, 430460, Note_off_c, 2, 62, 57
4, 430464, Note_on_c, 2, 60, 58
4, 430652, Note_off_c, 2, 60, 57
4, 430656, Note_on_c, 2, 62, 58
4, 430844, Note_off_c, 2, 62, 57
4, 430848, Note_on_c, 2, 60, 58
4, 430848, Note_on_c, 2, 57, 58
4, 431036, Note_off_c, 2, 60, 57
4, 431036, Note_off_c, 2, 57, 57
4, 431040, Note_on_c, 2, 62, 58
4, 431228, Note_off_c, 2, 62, 57
4, 431232, Note_on_c, 2, 59, 58
4, 431232, Note_on_c, 2, 55, 58
4, 431420, Note_off_c, 2, 59, 57
4, 431420, Note_off_c, 2, 55, 57
4, 431424, Note_on_c, 2, 62, 58
4, 431612, Note_off_c, 2, 62, 57
4, 431616, Note_on_c, 2, 57, 58
4, 431616, Note_on_c, 2, 54, 58
4, 431804, Note_off_c, 2, 57, 57
4, 431804, Note_off_c, 2, 54, 57
4, 431808, Note_on_c, 2, 62, 58
4, 431996, Note_off_c, 2, 62, 57
4, 432000, Note_on_c, 2, 61, 58
4, 432188, Note_off_c, 2, 61, 57
4, 432192, Note_on_c, 2, 62, 58
4, 432380, Note_off_c, 2, 62, 57
4, 432384, Note_on_c, 2, 61, 58
4, 432572, Note_off_c, 2, 61, 57
4, 432576, Note_on_c, 2, 62, 58
4, 432764, Note_off_c, 2, 62, 57
4, 432768, Note_on_c, 2, 38, 58
4, 432956, Note_off_c, 2, 38, 57
4, 432960, Note_on_c, 2, 50, 58
4, 433148, Note_off_c, 2, 50, 57
4, 433152, Note_on_c, 2, 48, 58
4, 433340, Note_off_c, 2, 48, 57
4, 433344, Note_on_c, 2, 50, 58
4, 433532, Note_off_c, 2, 50, 57
4, 433536, Note_on_c, 2, 47, 58
4, 433724, Note_off_c, 2, 47, 57
4, 433728, Note_on_c, 2, 52, 58
4, 433916, Note_off_c, 2, 52, 57
4, 433920, Note_on_c, 2, 45, 58
4, 434108, Note_off_c, 2, 45, 57
4, 434112, Note_on_c, 2, 50, 58
4, 434300, Note_off_c, 2, 50, 57
4, 434304, Note_on_c, 2, 38, 58
4, 434492, Note_off_c, 2, 38, 57
4, 434496, Note_on_c, 2, 50, 58
4, 434684, Note_off_c, 2, 50, 57
4, 434688, Note_on_c, 2, 48, 58
4, 434876, Note_off_c, 2, 48, 57
4, 434880, Note_on_c, 2, 50, 58
4, 435068, Note_off_c, 2, 50, 57
4, 435072, Note_on_c, 2, 47, 58
4, 435260, Note_off_c, 2, 47, 57
4, 435264, Note_on_c, 2, 50, 58
4, 435452, Note_off_c, 2, 50, 57
4, 435456, Note_on_c, 2, 43, 58
4, 435644, Note_off_c, 2, 43, 57
4, 435648, Note_on_c, 2, 50, 58
4, 435836, Note_off_c, 2, 50, 57
4, 435840, Note_on_c, 2, 42, 58
4, 436028, Note_off_c, 2, 42, 57
4, 436032, Note_on_c, 2, 50, 58
4, 436220, Note_off_c, 2, 50, 57
4, 436224, Note_on_c, 2, 43, 58
4, 436412, Note_off_c, 2, 43, 57
4, 436416, Note_on_c, 2, 47, 58
4, 436604, Note_off_c, 2, 47, 57
4, 436608, Note_on_c, 2, 50, 58
4, 436796, Note_off_c, 2, 50, 57
4, 436800, Note_on_c, 2, 55, 58
4, 436988, Note_off_c, 2, 55, 57
4, 436992, Note_on_c, 2, 59, 58
4, 437180, Note_off_c, 2, 59, 57
4, 437184, Note_on_c, 2, 62, 58
4, 437372, Note_off_c, 2, 62, 57
4, 446592, Note_on_c, 2, 59, 58
4, 446592, Note_on_c, 2, 55, 58
4, 447356, Note_off_c, 2, 59, 57
4, 447356, Note_off_c, 2, 55, 57
4, 447360, Note_on_c, 2, 60, 58
4, 447360, Note_on_c, 2, 57, 58
4, 447740, Note_off_c, 2, 60, 57
4, 447740, Note_off_c, 2, 57, 57
4, 447744, Note_on_c, 2, 59, 58
4, 447744, Note_on_c, 2, 62, 58
4, 448124, Note_off_c, 2, 59, 57
4, 448124, Note_off_c, 2, 62, 57
4, 448320, Note_on_c, 2, 60, 58
4, 448320, Note_on_c, 2, 64, 58
4, 448508, Note_off_c, 2, 60, 57
4, 448508, Note_off_c, 2, 64, 57
4, 448512, Note_on_c, 2, 60, 58
4, 448512, Note_on_c, 2, 57, 58
4, 448700, Note_off_c, 2, 60, 57
4, 448700, Note_off_c, 2, 57, 57
4, 448704, Note_on_c, 2, 59, 58
4, 448704, Note_on_c, 2, 55, 58
4, 448892, Note_off_c, 2, 59, 57
4, 448892, Note_off_c, 2, 55, 57
4, 448896, Note_on_c, 2, 57, 58
4, 448896, Note_on_c, 2, 54, 58
4, 449084, Note_off_c, 2, 57, 57
4, 449084, Note_off_c, 2, 54, 57
4, 449088, Note_on_c, 2, 50, 58
4, 449276, Note_off_c, 2, 50, 57
4, 449280, Note_on_c, 2, 57, 58
4, 449280, Note_on_c, 2, 54, 58
4, 449468, Note_off_c, 2, 57, 57
4, 449468, Note_off_c, 2, 54, 57
4, 449472, Note_on_c, 2, 50, 58
4, 449660, Note_off_c, 2, 50, 57
4, 449664, Note_on_c, 2, 55, 58
4, 449664, Note_on_c, 2, 59, 58
4, 449852, Note_off_c, 2, 55, 57
4, 449852, Note_off_c, 2, 59, 57
4, 450048, Note_on_c, 2, 56, 58
4, 450048, Note_on_c, 2, 58, 58
4, 450428, Note_off_c, 2, 56, 57
4, 450428, Note_off_c, 2, 58, 57
4, 450432, Note_on_c, 2, 57, 58
4, 450432, Note_on_c, 2, 60, 58
4, 450812, Note_off_c, 2, 57, 57
4, 450812, Note_off_c, 2, 60, 57
4, 451200, Note_on_c, 2, 54, 58
4, 451200, Note_on_c, 2, 57, 58
4, 451964, Note_off_c, 2, 54, 57
4, 451964, Note_off_c, 2, 57, 57
4, 451968, Note_on_c, 2, 58, 58
4, 451968, Note_on_c, 2, 55, 58
4, 452348, Note_off_c, 2, 58, 57
4, 452348, Note_off_c, 2, 55, 57
4, 452352, Note_on_c, 2, 57, 58
4, 452352, Note_on_c, 2, 60, 58
4, 452540, Note_off_c, 2, 57, 57
4, 452540, Note_off_c, 2, 60, 57
4, 452544, Note_on_c, 2, 59, 58
4, 452732, Note_off_c, 2, 59, 57
4, 452736, Note_on_c, 2, 57, 58
4, 452924, Note_off_c, 2, 57, 57
4, 452928, Note_on_c, 2, 59, 58
4, 453116, Note_off_c, 2, 59, 57
4, 453120, Note_on_c, 2, 60, 58
4, 453308, Note_off_c, 2, 60, 57
4, 453312, Note_on_c, 2, 57, 58
4, 453500, Note_off_c, 2, 57, 57
4, 453504, Note_on_c, 2, 59, 58
4, 453692, Note_off_c, 2, 59, 57
4, 453888, Note_on_c, 2, 59, 58
4, 453888, Note_on_c, 2, 62, 58
4, 454076, Note_off_c, 2, 59, 57
4, 454076, Note_off_c, 2, 62, 57
4, 454272, Note_on_c, 2, 62, 58
4, 454272, Note_on_c, 2, 54, 58
4, 454460, Note_off_c, 2, 62, 57
4, 454460, Note_off_c, 2, 54, 57
4, 454656, Note_on_c, 2, 62, 58
4, 454656, Note_on_c, 2, 55, 58
4, 455036, Note_off_c, 2, 62, 57
4, 455036, Note_off_c, 2, 55, 57
4, 455808, Note_on_c, 2, 67, 58
4, 455808, Note_on_c, 2, 62, 58
4, 455808, Note_on_c, 2, 59, 58
4, 456188, Note_off_c, 2, 67, 57
4, 456188, Note_off_c, 2, 62, 57
4, 456188, Note_off_c, 2, 59, 57
4, 456960, Note_on_c, 2, 69, 58
4, 456960, Note_on_c, 2, 64, 58
4, 456960, Note_on_c, 2, 60, 58
4, 457340, Note_off_c, 2, 69, 57
4, 457340, Note_off_c, 2, 64, 57
4, 457340, Note_off_c, 2, 60, 57
4, 458112, Note_on_c, 2, 50, 58
4, 458112, Note_on_c, 2, 60, 58
4, 458112, Note_on_c, 2, 57, 58
4, 458112, Note_on_c, 2, 54, 58
4, 458492, Note_off_c, 2, 50, 57
4, 458492, Note_off_c, 2, 60, 57
4, 458492, Note_off_c, 2, 57, 57
4, 458492, Note_off_c, 2, 54, 57
4, 459264, Note_on_c, 2, 55, 58
4, 459264, Note_on_c, 2, 59, 58
4, 459644, Note_off_c, 2, 55, 57
4, 459644, Note_off_c, 2, 59, 57
4, 460416, Note_on_c, 2, 55, 58
4, 460416, Note_on_c, 2, 50, 58
4, 460416, Note_on_c, 2, 46, 58
4, 460416, Note_on_c, 2, 58, 58
4, 461564, Note_off_c, 2, 55, 57
4, 461564, Note_off_c, 2, 50, 57
4, 461564, Note_off_c, 2, 46, 57
4, 461564, Note_off_c, 2, 58, 57
4, 461568, Note_on_c, 2, 48, 99
4, 461568, Note_on_c, 2, 51, 99
4, 461568, Note_on_c, 2, 57, 99
4, 461568, Note_on_c, 2, 55, 99
4, 462716, Note_off_c, 2, 48, 57
4, 462716, Note_off_c, 2, 51, 57
4, 462716, Note_off_c, 2, 57, 57
4, 462716, Note_off_c, 2, 55, 57
4, 462720, Note_on_c, 2, 59, 99
4, 462720, Note_on_c, 2, 56, 99
4, 462720, Note_on_c, 2, 53, 99
4, 462720, Note_on_c, 2, 50, 99
4, 463484, Note_off_c, 2, 59, 57
4, 463484, Note_off_c, 2, 56, 57
4, 463484, Note_off_c, 2, 53, 57
4, 463484, Note_off_c, 2, 50, 57
4, 463872, Note_on_c, 2, 51, 99
4, 463872, Note_on_c, 2, 55, 99
4, 463872, Note_on_c, 2, 60, 99
4, 465020, Note_off_c, 2, 51, 57
4, 465020, Note_off_c, 2, 55, 57
4, 465020, Note_off_c, 2, 60, 57
4, 465024, Note_on_c, 2, 54, 99
4, 465024, Note_on_c, 2, 57, 99
4, 465024, Note_on_c, 2, 60, 99
4, 465024, Note_on_c, 2, 62, 99
4, 466172, Note_off_c, 2, 54, 57
4, 466172, Note_off_c, 2, 57, 57
4, 466172, Note_off_c, 2, 60, 57
4, 466172, Note_off_c, 2, 62, 57
4, 466176, Note_on_c, 2, 55, 58
4, 466176, Note_on_c, 2, 58, 58
4, 466176, Note_on_c, 2, 62, 58
4, 467324, Note_off_c, 2, 55, 57
4, 467324, Note_off_c, 2, 58, 57
4, 467324, Note_off_c, 2, 62, 57
4, 467328, Note_on_c, 2, 57, 99
4, 467328, Note_on_c, 2, 62, 99
4, 467328, Note_on_c, 2, 60, 45
4, 468476, Note_off_c, 2, 60, 57
4, 468860, Note_off_c, 2, 57, 57
4, 468860, Note_off_c, 2, 62, 57
4, 468864, Note_on_c, 2, 60, 99
4, 468864, Note_on_c, 2, 57, 99
4, 469244, Note_off_c, 2, 60, 57
4, 469244, Note_off_c, 2, 57, 57
4, 469248, Note_on_c, 2, 60, 99
4, 469248, Note_on_c, 2, 57, 99
4, 469628, Note_off_c, 2, 60, 57
4, 469628, Note_off_c, 2, 57, 57
4, 469632, Note_on_c, 2, 57, 99
4, 469632, Note_on_c, 2, 60, 99
4, 470012, Note_off_c, 2, 57, 57
4, 470012, Note_off_c, 2, 60, 57
4, 470016, Note_on_c, 2, 60, 99
4, 470016, Note_on_c, 2, 57, 99
4, 470396, Note_off_c, 2, 60, 57
4, 470396, Note_off_c, 2, 57, 57
4, 470400, Note_on_c, 2, 57, 99
4, 470400, Note_on_c, 2, 62, 99
4, 470780, Note_off_c, 2, 57, 57
4, 470780, Note_off_c, 2, 62, 57
4, 470784, Note_on_c, 2, 62, 99
4, 470784, Note_on_c, 2, 57, 99
4, 471932, Note_off_c, 2, 62, 57
4, 471932, Note_off_c, 2, 57, 57
4, 471936, Note_on_c, 2, 35, 99
4, 472064, Note_on_c, 2, 43, 99
4, 472068, Note_off_c, 2, 35, 57
4, 472196, Note_off_c, 2, 43, 57
4, 472196, Note_on_c, 2, 47, 99
4, 472320, Note_on_c, 2, 35, 99
4, 472324, Note_off_c, 2, 47, 57
4, 472448, Note_on_c, 2, 43, 99
4, 472452, Note_off_c, 2, 35, 57
4, 472580, Note_off_c, 2, 43, 57
4, 472580, Note_on_c, 2, 47, 99
4, 472704, Note_on_c, 2, 35, 99
4, 472708, Note_off_c, 2, 47, 57
4, 472832, Note_on_c, 2, 43, 99
4, 472836, Note_off_c, 2, 35, 57
4, 472964, Note_off_c, 2, 43, 57
4, 472964, Note_on_c, 2, 47, 99
4, 473088, Note_on_c, 2, 35, 63
4, 473092, Note_off_c, 2, 47, 57
4, 473216, Note_on_c, 2, 43, 63
4, 473220, Note_off_c, 2, 35, 57
4, 473348, Note_off_c, 2, 43, 57
4, 473348, Note_on_c, 2, 47, 64
4, 473472, Note_on_c, 2, 35, 64
4, 473476, Note_off_c, 2, 47, 57
4, 473600, Note_on_c, 2, 43, 65
4, 473604, Note_off_c, 2, 35, 57
4, 473732, Note_off_c, 2, 43, 57
4, 473732, Note_on_c, 2, 47, 65
4, 473856, Note_on_c, 2, 35, 66
4, 473860, Note_off_c, 2, 47, 57
4, 473984, Note_on_c, 2, 43, 67
4, 473988, Note_off_c, 2, 35, 57
4, 474116, Note_off_c, 2, 43, 57
4, 474116, Note_on_c, 2, 47, 67
4, 474240, Note_on_c, 2, 36, 68
4, 474244, Note_off_c, 2, 47, 57
4, 474368, Note_on_c, 2, 43, 69
4, 474372, Note_off_c, 2, 36, 57
4, 474500, Note_off_c, 2, 43, 57
4, 474500, Note_on_c, 2, 48, 69
4, 474624, Note_on_c, 2, 36, 70
4, 474628, Note_off_c, 2, 48, 57
4, 474752, Note_on_c, 2, 43, 70
4, 474756, Note_off_c, 2, 36, 57
4, 474884, Note_off_c, 2, 43, 57
4, 474884, Note_on_c, 2, 48, 71
4, 475008, Note_on_c, 2, 36, 72
4, 475012, Note_off_c, 2, 48, 57
4, 475136, Note_on_c, 2, 43, 72
4, 475140, Note_off_c, 2, 36, 57
4, 475268, Note_off_c, 2, 43, 57
4, 475268, Note_on_c, 2, 48, 72
4, 475388, Note_on_c, 2, 37, 73
4, 475392, Note_off_c, 2, 48, 57
4, 475516, Note_on_c, 2, 43, 73
4, 475520, Note_off_c, 2, 37, 57
4, 475648, Note_off_c, 2, 43, 57
4, 475648, Note_on_c, 2, 49, 74
4, 475772, Note_on_c, 2, 37, 75
4, 475776, Note_off_c, 2, 49, 57
4, 475900, Note_on_c, 2, 43, 75
4, 475904, Note_off_c, 2, 37, 57
4, 476032, Note_off_c, 2, 43, 57
4, 476032, Note_on_c, 2, 49, 76
4, 476156, Note_on_c, 2, 37, 76
4, 476160, Note_off_c, 2, 49, 57
4, 476284, Note_on_c, 2, 43, 77
4, 476288, Note_off_c, 2, 37, 57
4, 476416, Note_off_c, 2, 43, 57
4, 476416, Note_on_c, 2, 49, 78
4, 476540, Note_on_c, 2, 38, 78
4, 476544, Note_off_c, 2, 49, 57
4, 476668, Note_on_c, 2, 43, 79
4, 476672, Note_off_c, 2, 38, 57
4, 476800, Note_off_c, 2, 43, 57
4, 476800, Note_on_c, 2, 50, 80
4, 476924, Note_on_c, 2, 38, 80
4, 476928, Note_off_c, 2, 50, 57
4, 477052, Note_on_c, 2, 43, 81
4, 477056, Note_off_c, 2, 38, 57
4, 477184, Note_off_c, 2, 43, 57
4, 477184, Note_on_c, 2, 50, 81
4, 477308, Note_on_c, 2, 38, 81
4, 477312, Note_off_c, 2, 50, 57
4, 477436, Note_on_c, 2, 43, 82
4, 477440, Note_off_c, 2, 38, 57
4, 477568, Note_off_c, 2, 43, 57
4, 477568, Note_on_c, 2, 50, 82
4, 477692, Note_on_c, 2, 39, 83
4, 477696, Note_off_c, 2, 50, 57
4, 477820, Note_on_c, 2, 43, 84
4, 477824, Note_off_c, 2, 39, 57
4, 477952, Note_off_c, 2, 43, 57
4, 477952, Note_on_c, 2, 51, 84
4, 478076, Note_on_c, 2, 39, 85
4, 478080, Note_off_c, 2, 51, 57
4, 478204, Note_on_c, 2, 43, 86
4, 478208, Note_off_c, 2, 39, 57
4, 478336, Note_off_c, 2, 43, 57
4, 478336, Note_on_c, 2, 51, 86
4, 478460, Note_on_c, 2, 39, 87
4, 478464, Note_off_c, 2, 51, 57
4, 478588, Note_on_c, 2, 43, 88
4, 478592, Note_off_c, 2, 39, 57
4, 478720, Note_off_c, 2, 43, 57
4, 478720, Note_on_c, 2, 51, 88
4, 478844, Note_on_c, 2, 40, 89
4, 478848, Note_off_c, 2, 51, 57
4, 478972, Note_on_c, 2, 43, 89
4, 478976, Note_off_c, 2, 40, 57
4, 479104, Note_off_c, 2, 43, 57
4, 479104, Note_on_c, 2, 52, 90
4, 479228, Note_on_c, 2, 40, 90
4, 479232, Note_off_c, 2, 52, 57
4, 479356, Note_on_c, 2, 43, 90
4, 479360, Note_off_c, 2, 40, 57
4, 479488, Note_off_c, 2, 43, 57
4, 479488, Note_on_c, 2, 52, 91
4, 479612, Note_on_c, 2, 42, 92
4, 479616, Note_off_c, 2, 52, 57
4, 479740, Note_on_c, 2, 50, 92
4, 479744, Note_off_c, 2, 42, 57
4, 479872, Note_off_c, 2, 50, 57
4, 479872, Note_on_c, 2, 54, 93
4, 479996, Note_on_c, 2, 43, 99
4, 480000, Note_off_c, 2, 54, 57
4, 480124, Note_on_c, 2, 50, 99
4, 480128, Note_off_c, 2, 43, 57
4, 480256, Note_off_c, 2, 50, 57
4, 480256, Note_on_c, 2, 55, 99
4, 480380, Note_on_c, 2, 43, 99
4, 480384, Note_off_c, 2, 55, 57
4, 480508, Note_on_c, 2, 50, 99
4, 480512, Note_off_c, 2, 43, 57
4, 480640, Note_off_c, 2, 50, 57
4, 480640, Note_on_c, 2, 55, 99
4, 480764, Note_on_c, 2, 46, 99
4, 480768, Note_off_c, 2, 55, 57
4, 480892, Note_on_c, 2, 50, 99
4, 480896, Note_off_c, 2, 46, 57
4, 481020, Note_on_c, 2, 58, 99
4, 481024, Note_off_c, 2, 50, 57
4, 481148, Note_on_c, 2, 46, 99
4, 481152, Note_off_c, 2, 58, 57
4, 481276, Note_on_c, 2, 55, 99
4, 481280, Note_off_c, 2, 46, 57
4, 481408, Note_off_c, 2, 55, 57
4, 481408, Note_on_c, 2, 58, 99
4, 481532, Note_on_c, 2, 46, 99
4, 481536, Note_off_c, 2, 58, 57
4, 481660, Note_on_c, 2, 55, 99
4, 481664, Note_off_c, 2, 46, 57
4, 481792, Note_off_c, 2, 55, 57
4, 481792, Note_on_c, 2, 58, 99
4, 481916, Note_on_c, 2, 46, 99
4, 481920, Note_off_c, 2, 58, 57
4, 482044, Note_on_c, 2, 55, 99
4, 482048, Note_off_c, 2, 46, 57
4, 482172, Note_on_c, 2, 58, 99
4, 482176, Note_off_c, 2, 55, 57
4, 482300, Note_on_c, 2, 46, 99
4, 482304, Note_off_c, 2, 58, 57
4, 482428, Note_on_c, 2, 50, 99
4, 482432, Note_off_c, 2, 46, 57
4, 482560, Note_off_c, 2, 50, 57
4, 482560, Note_on_c, 2, 55, 99
4, 482684, Note_on_c, 2, 46, 99
4, 482688, Note_off_c, 2, 55, 57
4, 482812, Note_on_c, 2, 50, 99
4, 482816, Note_off_c, 2, 46, 57
4, 482944, Note_off_c, 2, 50, 57
4, 482944, Note_on_c, 2, 55, 99
4, 483068, Note_on_c, 2, 46, 99
4, 483072, Note_off_c, 2, 55, 57
4, 483196, Note_on_c, 2, 50, 99
4, 483200, Note_off_c, 2, 46, 57
4, 483324, Note_on_c, 2, 55, 99
4, 483328, Note_off_c, 2, 50, 57
4, 483452, Note_on_c, 2, 48, 99
4, 483456, Note_off_c, 2, 55, 57
4, 483580, Note_on_c, 2, 51, 99
4, 483584, Note_off_c, 2, 48, 57
4, 483712, Note_off_c, 2, 51, 57
4, 483712, Note_on_c, 2, 55, 99
4, 483836, Note_on_c, 2, 48, 99
4, 483840, Note_off_c, 2, 55, 57
4, 483964, Note_on_c, 2, 51, 99
4, 483968, Note_off_c, 2, 48, 57
4, 484096, Note_off_c, 2, 51, 57
4, 484096, Note_on_c, 2, 55, 99
4, 484220, Note_on_c, 2, 48, 99
4, 484224, Note_off_c, 2, 55, 57
4, 484348, Note_on_c, 2, 51, 99
4, 484352, Note_off_c, 2, 48, 57
4, 484476, Note_on_c, 2, 55, 99
4, 484480, Note_off_c, 2, 51, 57
4, 484604, Note_on_c, 2, 48, 99
4, 484608, Note_off_c, 2, 55, 57
4, 484732, Note_on_c, 2, 51, 99
4, 484736, Note_off_c, 2, 48, 57
4, 484864, Note_off_c, 2, 51, 57
4, 484864, Note_on_c, 2, 57, 99
4, 484988, Note_on_c, 2, 48, 99
4, 484992, Note_off_c, 2, 57, 57
4, 485116, Note_on_c, 2, 51, 99
4, 485120, Note_off_c, 2, 48, 57
4, 485248, Note_off_c, 2, 51, 57
4, 485248, Note_on_c, 2, 57, 99
4, 485372, Note_on_c, 2, 48, 99
4, 485376, Note_off_c, 2, 57, 57
4, 485500, Note_on_c, 2, 51, 99
4, 485504, Note_off_c, 2, 48, 57
4, 485624, Note_on_c, 2, 57, 99
4, 485632, Note_off_c, 2, 51, 57
4, 485748, Note_off_c, 2, 57, 57
4, 485756, Note_on_c, 2, 50, 99
4, 485884, Note_on_c, 2, 55, 99
4, 485888, Note_off_c, 2, 50, 57
4, 486016, Note_off_c, 2, 55, 57
4, 486016, Note_on_c, 2, 58, 99
4, 486140, Note_on_c, 2, 50, 99
4, 486144, Note_off_c, 2, 58, 57
4, 486268, Note_on_c, 2, 55, 99
4, 486272, Note_off_c, 2, 50, 57
4, 486400, Note_off_c, 2, 55, 57
4, 486400, Note_on_c, 2, 58, 99
4, 486524, Note_on_c, 2, 50, 99
4, 486528, Note_off_c, 2, 58, 57
4, 486652, Note_on_c, 2, 55, 99
4, 486656, Note_off_c, 2, 50, 57
4, 486776, Note_on_c, 2, 58, 99
4, 486784, Note_off_c, 2, 55, 57
4, 486900, Note_off_c, 2, 58, 57
4, 486908, Note_on_c, 2, 50, 99
4, 487036, Note_on_c, 2, 54, 99
4, 487040, Note_off_c, 2, 50, 57
4, 487168, Note_off_c, 2, 54, 57
4, 487168, Note_on_c, 2, 57, 99
4, 487292, Note_on_c, 2, 50, 99
4, 487296, Note_off_c, 2, 57, 57
4, 487420, Note_on_c, 2, 54, 99
4, 487424, Note_off_c, 2, 50, 57
4, 487552, Note_off_c, 2, 54, 57
4, 487552, Note_on_c, 2, 57, 99
4, 487676, Note_on_c, 2, 50, 99
4, 487680, Note_off_c, 2, 57, 57
4, 487804, Note_on_c, 2, 54, 99
4, 487808, Note_off_c, 2, 50, 57
4, 487928, Note_on_c, 2, 57, 99
4, 487936, Note_off_c, 2, 54, 57
4, 488052, Note_off_c, 2, 57, 57
4, 488060, Note_on_c, 2, 46, 99
4, 488188, Note_on_c, 2, 50, 99
4, 488192, Note_off_c, 2, 46, 57
4, 488320, Note_off_c, 2, 50, 57
4, 488320, Note_on_c, 2, 55, 99
4, 488444, Note_on_c, 2, 46, 99
4, 488448, Note_off_c, 2, 55, 57
4, 488572, Note_on_c, 2, 50, 99
4, 488576, Note_off_c, 2, 46, 57
4, 488704, Note_off_c, 2, 50, 57
4, 488704, Note_on_c, 2, 55, 99
4, 488828, Note_on_c, 2, 46, 99
4, 488832, Note_off_c, 2, 55, 57
4, 488956, Note_on_c, 2, 50, 99
4, 488960, Note_off_c, 2, 46, 57
4, 489088, Note_off_c, 2, 50, 57
4, 489088, Note_on_c, 2, 55, 99
4, 489212, Note_off_c, 2, 55, 57
4, 489212, Note_on_c, 2, 34, 99
4, 489340, Note_on_c, 2, 43, 99
4, 489344, Note_off_c, 2, 34, 57
4, 489472, Note_off_c, 2, 43, 57
4, 489472, Note_on_c, 2, 46, 99
4, 489596, Note_on_c, 2, 34, 99
4, 489600, Note_off_c, 2, 46, 57
4, 489724, Note_on_c, 2, 43, 99
4, 489728, Note_off_c, 2, 34, 57
4, 489856, Note_off_c, 2, 43, 57
4, 489856, Note_on_c, 2, 46, 99
4, 489980, Note_on_c, 2, 35, 99
4, 489984, Note_off_c, 2, 46, 57
4, 490108, Note_on_c, 2, 43, 99
4, 490112, Note_off_c, 2, 35, 57
4, 490240, Note_off_c, 2, 43, 57
4, 490240, Note_on_c, 2, 47, 99
4, 490364, Note_on_c, 2, 36, 99
4, 490368, Note_off_c, 2, 47, 57
4, 490492, Note_on_c, 2, 43, 99
4, 490496, Note_off_c, 2, 36, 57
4, 490624, Note_off_c, 2, 43, 57
4, 490624, Note_on_c, 2, 48, 99
4, 490748, Note_on_c, 2, 36, 99
4, 490752, Note_off_c, 2, 48, 57
4, 490876, Note_on_c, 2, 43, 99
4, 490880, Note_off_c, 2, 36, 57
4, 491008, Note_off_c, 2, 43, 57
4, 491008, Note_on_c, 2, 48, 99
4, 491132, Note_on_c, 2, 36, 99
4, 491136, Note_off_c, 2, 48, 57
4, 491260, Note_on_c, 2, 43, 99
4, 491264, Note_off_c, 2, 36, 57
4, 491392, Note_off_c, 2, 43, 57
4, 491392, Note_on_c, 2, 48, 99
4, 491516, Note_on_c, 2, 36, 99
4, 491520, Note_off_c, 2, 48, 57
4, 491644, Note_on_c, 2, 40, 99
4, 491648, Note_off_c, 2, 36, 57
4, 491776, Note_off_c, 2, 40, 57
4, 491776, Note_on_c, 2, 45, 99
4, 491900, Note_on_c, 2, 36, 99
4, 491904, Note_off_c, 2, 45, 57
4, 492028, Note_on_c, 2, 40, 99
4, 492032, Note_off_c, 2, 36, 57
4, 492160, Note_off_c, 2, 40, 57
4, 492160, Note_on_c, 2, 45, 99
4, 492284, Note_on_c, 2, 36, 99
4, 492288, Note_off_c, 2, 45, 57
4, 492412, Note_on_c, 2, 40, 99
4, 492416, Note_off_c, 2, 36, 57
4, 492544, Note_off_c, 2, 40, 57
4, 492544, Note_on_c, 2, 45, 99
4, 492668, Note_on_c, 2, 38, 99
4, 492672, Note_off_c, 2, 45, 57
4, 492856, Note_off_c, 2, 38, 57
4, 492860, Note_on_c, 2, 50, 99
4, 493048, Note_off_c, 2, 50, 57
4, 493052, Note_on_c, 2, 38, 99
4, 493240, Note_off_c, 2, 38, 57
4, 493244, Note_on_c, 2, 50, 99
4, 493432, Note_off_c, 2, 50, 57
4, 493436, Note_on_c, 2, 38, 99
4, 493624, Note_off_c, 2, 38, 57
4, 493628, Note_on_c, 2, 50, 99
4, 493816, Note_off_c, 2, 50, 57
4, 493820, Note_on_c, 2, 38, 99
4, 494008, Note_off_c, 2, 38, 57
4, 494012, Note_on_c, 2, 50, 99
4, 494200, Note_off_c, 2, 50, 57
4, 494204, Note_on_c, 2, 38, 99
4, 494392, Note_off_c, 2, 38, 57
4, 494396, Note_on_c, 2, 50, 99
4, 494584, Note_off_c, 2, 50, 57
4, 494588, Note_on_c, 2, 38, 99
4, 494776, Note_off_c, 2, 38, 57
4, 494780, Note_on_c, 2, 50, 99
4, 494968, Note_off_c, 2, 50, 57
4, 494972, Note_on_c, 2, 43, 99
4, 494972, Note_on_c, 2, 31, 99
4, 495352, Note_off_c, 2, 43, 57
4, 495352, Note_off_c, 2, 31, 57
4, 500732, Note_on_c, 2, 60, 45
4, 500732, Note_on_c, 2, 63, 45
4, 501880, Note_off_c, 2, 60, 57
4, 501880, Note_off_c, 2, 63, 57
4, 501884, Note_on_c, 2, 61, 45
4, 501884, Note_on_c, 2, 64, 45
4, 503032, Note_off_c, 2, 61, 57
4, 503032, Note_off_c, 2, 64, 57
4, 504956, Note_on_c, 2, 50, 58
4, 505336, Note_off_c, 2, 50, 57
4, 505340, Note_on_c, 2, 55, 58
4, 505720, Note_off_c, 2, 55, 57
4, 506492, Note_on_c, 2, 36, 45
4, 506872, Note_off_c, 2, 36, 57
4, 506876, Note_on_c, 2, 48, 45
4, 507256, Note_off_c, 2, 48, 57
4, 507260, Note_on_c, 2, 48, 45
4, 507640, Note_off_c, 2, 48, 57
4, 507644, Note_on_c, 2, 46, 45
4, 508024, Note_off_c, 2, 46, 57
4, 508796, Note_on_c, 2, 36, 45
4, 509176, Note_off_c, 2, 36, 57
4, 509180, Note_on_c, 2, 48, 45
4, 509560, Note_off_c, 2, 48, 57
4, 509564, Note_on_c, 2, 48, 45
4, 509944, Note_off_c, 2, 48, 57
4, 509948, Note_on_c, 2, 46, 45
4, 510328, Note_off_c, 2, 46, 57
4, 511100, Note_on_c, 2, 37, 45
4, 511480, Note_off_c, 2, 37, 57
4, 511484, Note_on_c, 2, 49, 45
4, 511864, Note_off_c, 2, 49, 57
4, 511868, Note_on_c, 2, 49, 45
4, 512248, Note_off_c, 2, 49, 57
4, 512252, Note_on_c, 2, 48, 45
4, 512632, Note_off_c, 2, 48, 57
4, 513404, Note_on_c, 2, 37, 45
4, 513784, Note_off_c, 2, 37, 57
4, 513788, Note_on_c, 2, 49, 45
4, 514168, Note_off_c, 2, 49, 57
4, 514172, Note_on_c, 2, 49, 45
4, 514552, Note_off_c, 2, 49, 57
4, 514556, Note_on_c, 2, 48, 45
4, 514936, Note_off_c, 2, 48, 57
4, 514940, Note_on_c, 2, 58, 45
4, 514940, Note_on_c, 2, 61, 45
4, 515320, Note_off_c, 2, 58, 57
4, 515320, Note_off_c, 2, 61, 57
4, 515324, Note_on_c, 2, 60, 45
4, 515324, Note_on_c, 2, 63, 45
4, 515704, Note_off_c, 2, 60, 57
4, 515704, Note_off_c, 2, 63, 57
4, 518012, Note_on_c, 2, 72, 103
4, 518140, Note_on_c, 2, 73, 103
4, 518144, Note_off_c, 2, 72, 57
4, 518268, Note_on_c, 2, 75, 103
4, 518272, Note_off_c, 2, 73, 57
4, 518392, Note_off_c, 2, 75, 57
4, 518396, Note_on_c, 2, 70, 103
4, 518524, Note_on_c, 2, 72, 103
4, 518528, Note_off_c, 2, 70, 57
4, 518652, Note_on_c, 2, 73, 103
4, 518656, Note_off_c, 2, 72, 57
4, 518776, Note_off_c, 2, 73, 57
4, 518780, Note_on_c, 2, 68, 103
4, 518908, Note_on_c, 2, 70, 103
4, 518912, Note_off_c, 2, 68, 57
4, 519036, Note_on_c, 2, 72, 103
4, 519040, Note_off_c, 2, 70, 57
4, 519160, Note_off_c, 2, 72, 57
4, 519164, Note_on_c, 2, 67, 103
4, 519292, Note_on_c, 2, 68, 103
4, 519296, Note_off_c, 2, 67, 57
4, 519420, Note_on_c, 2, 70, 103
4, 519424, Note_off_c, 2, 68, 57
4, 519544, Note_off_c, 2, 70, 57
4, 519548, Note_on_c, 2, 65, 103
4, 519676, Note_on_c, 2, 67, 103
4, 519680, Note_off_c, 2, 65, 57
4, 519804, Note_on_c, 2, 68, 103
4, 519808, Note_off_c, 2, 67, 57
4, 519928, Note_off_c, 2, 68, 57
4, 519932, Note_on_c, 2, 63, 103
4, 520060, Note_on_c, 2, 65, 103
4, 520064, Note_off_c, 2, 63, 57
4, 520188, Note_on_c, 2, 67, 103
4, 520192, Note_off_c, 2, 65, 57
4, 520312, Note_off_c, 2, 67, 57
4, 520316, Note_on_c, 2, 62, 103
4, 520444, Note_on_c, 2, 63, 103
4, 520448, Note_off_c, 2, 62, 57
4, 520572, Note_on_c, 2, 65, 103
4, 520576, Note_off_c, 2, 63, 57
4, 520696, Note_off_c, 2, 65, 57
4, 520700, Note_on_c, 2, 60, 103
4, 520828, Note_on_c, 2, 62, 103
4, 520832, Note_off_c, 2, 60, 57
4, 520956, Note_on_c, 2, 63, 103
4, 520960, Note_off_c, 2, 62, 57
4, 521080, Note_off_c, 2, 63, 57
4, 521084, Note_on_c, 2, 58, 103
4, 521212, Note_on_c, 2, 60, 103
4, 521216, Note_off_c, 2, 58, 57
4, 521340, Note_on_c, 2, 62, 103
4, 521344, Note_off_c, 2, 60, 57
4, 521464, Note_off_c, 2, 62, 57
4, 521468, Note_on_c, 2, 56, 90
4, 521848, Note_off_c, 2, 56, 57
4, 523388, Note_on_c, 2, 55, 65
4, 523388, Note_on_c, 2, 43, 65
4, 523768, Note_off_c, 2, 55, 57
4, 523768, Note_off_c, 2, 43, 57
4, 523772, Note_on_c, 2, 56, 67
4, 523772, Note_on_c, 2, 44, 67
4, 524536, Note_off_c, 2, 56, 57
4, 524536, Note_off_c, 2, 44, 57
4, 524540, Note_on_c, 2, 55, 71
4, 524540, Note_on_c, 2, 43, 71
4, 524920, Note_off_c, 2, 55, 57
4, 524920, Note_off_c, 2, 43, 57
4, 524924, Note_on_c, 2, 54, 72
4, 524924, Note_on_c, 2, 42, 72
4, 525688, Note_off_c, 2, 54, 57
4, 525688, Note_off_c, 2, 42, 57
4, 525692, Note_on_c, 2, 55, 75
4, 525692, Note_on_c, 2, 43, 75
4, 526072, Note_off_c, 2, 55, 57
4, 526072, Note_off_c, 2, 43, 57
4, 526076, Note_on_c, 2, 56, 77
4, 526076, Note_on_c, 2, 44, 77
4, 526840, Note_off_c, 2, 56, 57
4, 526840, Note_off_c, 2, 44, 57
4, 526844, Note_on_c, 2, 55, 81
4, 526844, Note_on_c, 2, 43, 81
4, 527224, Note_off_c, 2, 55, 57
4, 527224, Note_off_c, 2, 43, 57
4, 527228, Note_on_c, 2, 54, 82
4, 527228, Note_on_c, 2, 42, 82
4, 527992, Note_off_c, 2, 54, 57
4, 527992, Note_off_c, 2, 42, 57
4, 527996, Note_on_c, 2, 55, 85
4, 527996, Note_on_c, 2, 43, 85
4, 528376, Note_off_c, 2, 55, 57
4, 528376, Note_off_c, 2, 43, 57
4, 528380, Note_on_c, 2, 48, 87
4, 528380, Note_on_c, 2, 36, 87
4, 528760, Note_off_c, 2, 48, 57
4, 528760, Note_off_c, 2, 36, 57
4, 529532, Note_on_c, 2, 50, 92
4, 529532, Note_on_c, 2, 38, 92
4, 529912, Note_off_c, 2, 50, 57
4, 529912, Note_off_c, 2, 38, 57
4, 530684, Note_on_c, 2, 43, 90
4, 530684, Note_on_c, 2, 31, 90
4, 531064, Note_off_c, 2, 43, 57
4, 531064, Note_off_c, 2, 31, 57
4, 532988, Note_on_c, 2, 66, 90
4, 532988, Note_on_c, 2, 54, 90
4, 534136, Note_off_c, 2, 66, 57
4, 534136, Note_off_c, 2, 54, 57
4, 534140, Note_on_c, 2, 68, 90
4, 534140, Note_on_c, 2, 56, 90
4, 534904, Note_off_c, 2, 68, 57
4, 534904, Note_off_c, 2, 56, 57
4, 534908, Note_on_c, 2, 67, 90
4, 534908, Note_on_c, 2, 55, 90
4, 535288, Note_off_c, 2, 67, 57
4, 535288, Note_off_c, 2, 55, 57
4, 535292, Note_on_c, 2, 66, 90
4, 535292, Note_on_c, 2, 54, 90
4, 536056, Note_off_c, 2, 66, 57
4, 536056, Note_off_c, 2, 54, 57
4, 536060, Note_on_c, 2, 67, 90
4, 536060, Note_on_c, 2, 55, 90
4, 536440, Note_off_c, 2, 67, 57
4, 536440, Note_off_c, 2, 55, 57
4, 536444, Note_on_c, 2, 68, 90
4, 536444, Note_on_c, 2, 56, 90
4, 537208, Note_off_c, 2, 68, 57
4, 537208, Note_off_c, 2, 56, 57
4, 537212, Note_on_c, 2, 67, 90
4, 537212, Note_on_c, 2, 55, 90
4, 537592, Note_off_c, 2, 67, 57
4, 537592, Note_off_c, 2, 55, 57
4, 537596, Note_on_c, 2, 66, 90
4, 537596, Note_on_c, 2, 54, 90
4, 538360, Note_off_c, 2, 66, 57
4, 538360, Note_off_c, 2, 54, 57
4, 538364, Note_on_c, 2, 67, 90
4, 538364, Note_on_c, 2, 55, 90
4, 538744, Note_off_c, 2, 67, 57
4, 538744, Note_off_c, 2, 55, 57
4, 538748, Note_on_c, 2, 69, 90
4, 538748, Note_on_c, 2, 57, 90
4, 539512, Note_off_c, 2, 69, 57
4, 539512, Note_off_c, 2, 57, 57
4, 539516, Note_on_c, 2, 70, 90
4, 539516, Note_on_c, 2, 58, 90
4, 539896, Note_off_c, 2, 70, 57
4, 539896, Note_off_c, 2, 58, 57
4, 539900, Note_on_c, 2, 72, 90
4, 539900, Note_on_c, 2, 60, 90
4, 540280, Note_off_c, 2, 72, 57
4, 540280, Note_off_c, 2, 60, 57
4, 541052, Note_on_c, 2, 74, 90
4, 541052, Note_on_c, 2, 62, 90
4, 541432, Note_off_c, 2, 74, 57
4, 541432, Note_off_c, 2, 62, 57
4, 542204, Note_on_c, 2, 55, 90
4, 542332, Note_on_c, 2, 58, 90
4, 542336, Note_off_c, 2, 55, 57
4, 542464, Note_off_c, 2, 58, 57
4, 542464, Note_on_c, 2, 62, 90
4, 542588, Note_off_c, 2, 62, 57
4, 542588, Note_on_c, 2, 55, 63
4, 542716, Note_on_c, 2, 58, 63
4, 542720, Note_off_c, 2, 55, 57
4, 542848, Note_off_c, 2, 58, 57
4, 542848, Note_on_c, 2, 62, 63
4, 542972, Note_off_c, 2, 62, 57
4, 542972, Note_on_c, 2, 55, 63
4, 543100, Note_on_c, 2, 58, 63
4, 543104, Note_off_c, 2, 55, 57
4, 543232, Note_off_c, 2, 58, 57
4, 543232, Note_on_c, 2, 62, 63
4, 543356, Note_off_c, 2, 62, 57
4, 543356, Note_on_c, 2, 55, 63
4, 543484, Note_on_c, 2, 58, 63
4, 543488, Note_off_c, 2, 55, 57
4, 543616, Note_off_c, 2, 58, 57
4, 543616, Note_on_c, 2, 62, 63
4, 543740, Note_off_c, 2, 62, 57
4, 543740, Note_on_c, 2, 55, 63
4, 543868, Note_on_c, 2, 58, 63
4, 543872, Note_off_c, 2, 55, 57
4, 544000, Note_off_c, 2, 58, 57
4, 544000, Note_on_c, 2, 62, 63
4, 544124, Note_off_c, 2, 62, 57
4, 544124, Note_on_c, 2, 55, 63
4, 544252, Note_on_c, 2, 58, 63
4, 544256, Note_off_c, 2, 55, 57
4, 544384, Note_off_c, 2, 58, 57
4, 544384, Note_on_c, 2, 62, 63
4, 544508, Note_off_c, 2, 62, 57
4, 544508, Note_on_c, 2, 55, 63
4, 544636, Note_on_c, 2, 60, 63
4, 544640, Note_off_c, 2, 55, 57
4, 544768, Note_off_c, 2, 60, 57
4, 544768, Note_on_c, 2, 62, 63
4, 544892, Note_off_c, 2, 62, 57
4, 544892, Note_on_c, 2, 55, 63
4, 545020, Note_on_c, 2, 60, 63
4, 545024, Note_off_c, 2, 55, 57
4, 545152, Note_off_c, 2, 60, 57
4, 545152, Note_on_c, 2, 62, 63
4, 545276, Note_off_c, 2, 62, 57
4, 545276, Note_on_c, 2, 55, 63
4, 545404, Note_on_c, 2, 60, 63
4, 545408, Note_off_c, 2, 55, 57
4, 545536, Note_off_c, 2, 60, 57
4, 545536, Note_on_c, 2, 62, 63
4, 545660, Note_off_c, 2, 62, 57
4, 545660, Note_on_c, 2, 55, 63
4, 545788, Note_on_c, 2, 60, 63
4, 545792, Note_off_c, 2, 55, 57
4, 545920, Note_off_c, 2, 60, 57
4, 545920, Note_on_c, 2, 62, 63
4, 546044, Note_off_c, 2, 62, 57
4, 546044, Note_on_c, 2, 55, 63
4, 546172, Note_on_c, 2, 60, 63
4, 546176, Note_off_c, 2, 55, 57
4, 546304, Note_off_c, 2, 60, 57
4, 546304, Note_on_c, 2, 62, 63
4, 546428, Note_off_c, 2, 62, 57
4, 546428, Note_on_c, 2, 55, 63
4, 546556, Note_on_c, 2, 60, 63
4, 546560, Note_off_c, 2, 55, 57
4, 546688, Note_off_c, 2, 60, 57
4, 546688, Note_on_c, 2, 62, 63
4, 546812, Note_off_c, 2, 62, 57
4, 546812, Note_on_c, 2, 55, 63
4, 546940, Note_on_c, 2, 58, 63
4, 546944, Note_off_c, 2, 55, 57
4, 547072, Note_off_c, 2, 58, 57
4, 547072, Note_on_c, 2, 62, 64
4, 547196, Note_off_c, 2, 62, 57
4, 547196, Note_on_c, 2, 55, 65
4, 547324, Note_on_c, 2, 58, 66
4, 547328, Note_off_c, 2, 55, 57
4, 547456, Note_off_c, 2, 58, 57
4, 547456, Note_on_c, 2, 62, 67
4, 547580, Note_off_c, 2, 62, 57
4, 547580, Note_on_c, 2, 55, 68
4, 547708, Note_on_c, 2, 58, 69
4, 547712, Note_off_c, 2, 55, 57
4, 547840, Note_off_c, 2, 58, 57
4, 547840, Note_on_c, 2, 62, 70
4, 547964, Note_off_c, 2, 62, 57
4, 547964, Note_on_c, 2, 55, 72
4, 548092, Note_on_c, 2, 59, 72
4, 548096, Note_off_c, 2, 55, 57
4, 548224, Note_off_c, 2, 59, 57
4, 548224, Note_on_c, 2, 62, 73
4, 548348, Note_off_c, 2, 62, 57
4, 548348, Note_on_c, 2, 55, 74
4, 548476, Note_on_c, 2, 59, 75
4, 548480, Note_off_c, 2, 55, 57
4, 548608, Note_off_c, 2, 59, 57
4, 548608, Note_on_c, 2, 62, 76
4, 548732, Note_off_c, 2, 62, 57
4, 548732, Note_on_c, 2, 55, 77
4, 548860, Note_on_c, 2, 59, 78
4, 548864, Note_off_c, 2, 55, 57
4, 548992, Note_off_c, 2, 59, 57
4, 548992, Note_on_c, 2, 62, 79
4, 549116, Note_off_c, 2, 62, 57
4, 549116, Note_on_c, 2, 55, 81
4, 549244, Note_on_c, 2, 60, 81
4, 549248, Note_off_c, 2, 55, 57
4, 549376, Note_off_c, 2, 60, 57
4, 549376, Note_on_c, 2, 64, 82
4, 549500, Note_off_c, 2, 64, 57
4, 549500, Note_on_c, 2, 55, 83
4, 549628, Note_on_c, 2, 60, 84
4, 549632, Note_off_c, 2, 55, 57
4, 549760, Note_off_c, 2, 60, 57
4, 549760, Note_on_c, 2, 64, 85
4, 549884, Note_off_c, 2, 64, 57
4, 549884, Note_on_c, 2, 55, 86
4, 550012, Note_on_c, 2, 60, 87
4, 550016, Note_off_c, 2, 55, 57
4, 550144, Note_off_c, 2, 60, 57
4, 550144, Note_on_c, 2, 64, 88
4, 550268, Note_off_c, 2, 64, 57
4, 550268, Note_on_c, 2, 55, 90
4, 550396, Note_on_c, 2, 60, 90
4, 550400, Note_off_c, 2, 55, 57
4, 550528, Note_off_c, 2, 60, 57
4, 550528, Note_on_c, 2, 66, 91
4, 550652, Note_off_c, 2, 66, 57
4, 550652, Note_on_c, 2, 55, 92
4, 550780, Note_on_c, 2, 60, 93
4, 550784, Note_off_c, 2, 55, 57
4, 550912, Note_off_c, 2, 60, 57
4, 550912, Note_on_c, 2, 66, 94
4, 551036, Note_off_c, 2, 66, 57
4, 551036, Note_on_c, 2, 55, 95
4, 551164, Note_on_c, 2, 60, 96
4, 551168, Note_off_c, 2, 55, 57
4, 551296, Note_off_c, 2, 60, 57
4, 551296, Note_on_c, 2, 66, 97
4, 551420, Note_off_c, 2, 66, 57
4, 551420, Note_on_c, 2, 67, 99
4, 551420, Note_on_c, 2, 58, 99
4, 551420, Note_on_c, 2, 55, 99
4, 551676, Note_off_c, 2, 67, 57
4, 551676, Note_off_c, 2, 58, 57
4, 551676, Note_off_c, 2, 55, 57
4, 552188, Note_on_c, 2, 43, 104
4, 552376, Note_off_c, 2, 43, 57
4, 552380, Note_on_c, 2, 45, 106
4, 552568, Note_off_c, 2, 45, 57
4, 552572, Note_on_c, 2, 46, 112
4, 552572, Note_on_c, 2, 34, 112
4, 552700, Note_off_c, 2, 46, 57
4, 552700, Note_off_c, 2, 34, 57
4, 552956, Note_on_c, 2, 48, 112
4, 552956, Note_on_c, 2, 36, 112
4, 553084, Note_off_c, 2, 48, 57
4, 553084, Note_off_c, 2, 36, 57
4, 553340, Note_on_c, 2, 50, 112
4, 553340, Note_on_c, 2, 38, 112
4, 553468, Note_off_c, 2, 50, 57
4, 553468, Note_off_c, 2, 38, 57
4, 553724, Note_on_c, 2, 52, 112
4, 553724, Note_on_c, 2, 40, 112
4, 553852, Note_off_c, 2, 52, 57
4, 553852, Note_off_c, 2, 40, 57
4, 554108, Note_on_c, 2, 54, 112
4, 554108, Note_on_c, 2, 42, 112
4, 554236, Note_off_c, 2, 54, 57
4, 554236, Note_off_c, 2, 42, 57
4, 554492, Note_on_c, 2, 55, 112
4, 554492, Note_on_c, 2, 43, 112
4, 554620, Note_off_c, 2, 55, 57
4, 554620, Note_off_c, 2, 43, 57
4, 554876, Note_on_c, 2, 57, 112
4, 554876, Note_on_c, 2, 45, 112
4, 555004, Note_off_c, 2, 57, 57
4, 555004, Note_off_c, 2, 45, 57
4, 555260, Note_on_c, 2, 46, 112
4, 555260, Note_on_c, 2, 58, 112
4, 555388, Note_off_c, 2, 46, 57
4, 555388, Note_off_c, 2, 58, 57
4, 555644, Note_on_c, 2, 48, 112
4, 555644, Note_on_c, 2, 60, 112
4, 555772, Note_off_c, 2, 48, 57
4, 555772, Note_off_c, 2, 60, 57
4, 556028, Note_on_c, 2, 62, 112
4, 556028, Note_on_c, 2, 50, 112
4, 556156, Note_off_c, 2, 62, 57
4, 556156, Note_off_c, 2, 50, 57
4, 556412, Note_on_c, 2, 63, 112
4, 556412, Note_on_c, 2, 51, 112
4, 556540, Note_off_c, 2, 63, 57
4, 556540, Note_off_c, 2, 51, 57
4, 556796, Note_on_c, 2, 61, 112
4, 556796, Note_on_c, 2, 49, 112
4, 556924, Note_off_c, 2, 61, 57
4, 556924, Note_off_c, 2, 49, 57
4, 557180, Note_on_c, 2, 50, 112
4, 557180, Note_on_c, 2, 62, 112
4, 557308, Note_off_c, 2, 50, 57
4, 557308, Note_off_c, 2, 62, 57
4, 557564, Note_on_c, 2, 47, 112
4, 557564, Note_on_c, 2, 59, 112
4, 557692, Note_off_c, 2, 47, 57
4, 557692, Note_off_c, 2, 59, 57
4, 557948, Note_on_c, 2, 60, 112
4, 557948, Note_on_c, 2, 48, 112
4, 558076, Note_off_c, 2, 60, 57
4, 558076, Note_off_c, 2, 48, 57
4, 558332, Note_on_c, 2, 45, 112
4, 558332, Note_on_c, 2, 57, 112
4, 558460, Note_off_c, 2, 45, 57
4, 558460, Note_off_c, 2, 57, 57
4, 558716, Note_on_c, 2, 46, 112
4, 558716, Note_on_c, 2, 58, 112
4, 558844, Note_off_c, 2, 46, 57
4, 558844, Note_off_c, 2, 58, 57
4, 559100, Note_on_c, 2, 55, 112
4, 559100, Note_on_c, 2, 43, 112
4, 559228, Note_off_c, 2, 55, 57
4, 559228, Note_off_c, 2, 43, 57
4, 559484, Note_on_c, 2, 62, 112
4, 559484, Note_on_c, 2, 50, 112
4, 559740, Note_off_c, 2, 62, 57
4, 559740, Note_off_c, 2, 50, 57
4, 560252, Note_on_c, 2, 50, 112
4, 560252, Note_on_c, 2, 38, 112
4, 560508, Note_off_c, 2, 50, 57
4, 560508, Note_off_c, 2, 38, 57
4, 560636, Note_on_c, 2, 55, 112
4, 560636, Note_on_c, 2, 43, 112
4, 560764, Note_off_c, 2, 55, 57
4, 560764, Note_off_c, 2, 43, 57
4, 561020, Note_on_c, 2, 58, 112
4, 561148, Note_off_c, 2, 58, 57
4, 561404, Note_on_c, 2, 62, 112
4, 561532, Note_off_c, 2, 62, 57
4, 561788, Note_on_c, 2, 50, 99
4, 562556, Note_off_c, 2, 50, 57
4, 562940, Note_on_c, 2, 43, 99
4, 563068, Note_off_c, 2, 43, 57
4, 563324, Note_on_c, 2, 46, 99
4, 563452, Note_off_c, 2, 46, 57
4, 563708, Note_on_c, 2, 50, 99
4, 563836, Note_off_c, 2, 50, 57
4, 564092, Note_on_c, 2, 38, 99
4, 564860, Note_off_c, 2, 38, 57
4, 565244, Note_on_c, 2, 31, 99
4, 565372, Note_off_c, 2, 31, 57
4, 565628, Note_on_c, 2, 34, 99
4, 565756, Note_off_c, 2, 34, 57
4, 566012, Note_on_c, 2, 38, 99
4, 566140, Note_off_c, 2, 38, 57
4, 566396, Note_on_c, 2, 26, 99
4, 567164, Note_off_c, 2, 26, 57
4, 567548, Note_on_c, 2, 55, 99
4, 567548, Note_on_c, 2, 50, 99
4, 567548, Note_on_c, 2, 46, 99
4, 567548, Note_on_c, 2, 43, 99
4, 567548, Note_on_c, 2, 31, 99
4, 567804, Note_off_c, 2, 55, 57
4, 567804, Note_off_c, 2, 50, 57
4, 567804, Note_off_c, 2, 46, 57
4, 567804, Note_off_c, 2, 43, 57
4, 567804, Note_off_c, 2, 31, 57
4, 567932, Note_on_c, 2, 55, 99
4, 567932, Note_on_c, 2, 50, 99
4, 567932, Note_on_c, 2, 46, 99
4, 567932, Note_on_c, 2, 43, 99
4, 567932, Note_on_c, 2, 31, 99
4, 568188, Note_off_c, 2, 55, 57
4, 568188, Note_off_c, 2, 50, 57
4, 568188, Note_off_c, 2, 46, 57
4, 568188, Note_off_c, 2, 43, 57
4, 568188, Note_off_c, 2, 31, 57
4, 568316, Note_on_c, 2, 55, 99
4, 568316, Note_on_c, 2, 50, 99
4, 568316, Note_on_c, 2, 46, 99
4, 568316, Note_on_c, 2, 43, 99
4, 568316, Note_on_c, 2, 31, 99
4, 568572, Note_off_c, 2, 55, 57
4, 568572, Note_off_c, 2, 50, 57
4, 568572, Note_off_c, 2, 46, 57
4, 568572, Note_off_c, 2, 43, 57
4, 568572, Note_off_c, 2, 31, 57
4, 568700, Note_on_c, 2, 55, 99
4, 568700, Note_on_c, 2, 50, 99
4, 568700, Note_on_c, 2, 46, 99
4, 568700, Note_on_c, 2, 43, 99
4, 568700, Note_on_c, 2, 31, 99
4, 568956, Note_off_c, 2, 55, 57
4, 568956, Note_off_c, 2, 50, 57
4, 568956, Note_off_c, 2, 46, 57
4, 568956, Note_off_c, 2, 43, 57
4, 568956, Note_off_c, 2, 31, 57
4, 569468, Note_on_c, 2, 58, 99
4, 569468, Note_on_c, 2, 46, 99
4, 569724, Note_off_c, 2, 58, 57
4, 569724, Note_off_c, 2, 46, 57
4, 571004, Note_on_c, 2, 58, 99
4, 572152, Note_off_c, 2, 58, 57
4, 572156, Note_on_c, 2, 51, 99
4, 572344, Note_off_c, 2, 51, 57
4, 572540, Note_on_c, 2, 55, 99
4, 572728, Note_off_c, 2, 55, 57
4, 572924, Note_on_c, 2, 58, 99
4, 573112, Note_off_c, 2, 58, 57
4, 573308, Note_on_c, 2, 46, 99
4, 574456, Note_off_c, 2, 46, 57
4, 574460, Note_on_c, 2, 39, 99
4, 574648, Note_off_c, 2, 39, 57
4, 574844, Note_on_c, 2, 43, 99
4, 575032, Note_off_c, 2, 43, 57
4, 575228, Note_on_c, 2, 46, 99
4, 575416, Note_off_c, 2, 46, 57
4, 575612, Note_on_c, 2, 46, 99
4, 575612, Note_on_c, 2, 34, 99
4, 576760, Note_off_c, 2, 46, 57
4, 576760, Note_off_c, 2, 34, 57
4, 576764, Note_on_c, 2, 56, 63
4, 576764, Note_on_c, 2, 53, 63
4, 576764, Note_on_c, 2, 50, 63
4, 576764, Note_on_c, 2, 47, 63
4, 576764, Note_on_c, 2, 35, 63
4, 577912, Note_off_c, 2, 56, 57
4, 577916, Note_on_c, 2, 55, 63
4, 579064, Note_off_c, 2, 55, 57
4, 579064, Note_off_c, 2, 53, 57
4, 579064, Note_off_c, 2, 50, 57
4, 579064, Note_off_c, 2, 35, 57
4, 579064, Note_off_c, 2, 47, 57
4, 579068, Note_on_c, 2, 59, 54
4, 580216, Note_off_c, 2, 59, 57
4, 580220, Note_on_c, 2, 60, 54
4, 580600, Note_off_c, 2, 60, 57
4, 581372, Note_on_c, 2, 55, 54
4, 581372, Note_on_c, 2, 47, 54
4, 582520, Note_off_c, 2, 55, 57
4, 582520, Note_off_c, 2, 47, 57
4, 582524, Note_on_c, 2, 55, 54
4, 582524, Note_on_c, 2, 48, 54
4, 582904, Note_off_c, 2, 55, 57
4, 582904, Note_off_c, 2, 48, 57
4, 583676, Note_on_c, 2, 55, 54
4, 583676, Note_on_c, 2, 51, 54
4, 583676, Note_on_c, 2, 43, 54
4, 584824, Note_off_c, 2, 55, 57
4, 584824, Note_off_c, 2, 51, 57
4, 584824, Note_off_c, 2, 43, 57
4, 584828, Note_on_c, 2, 44, 54
4, 584828, Note_on_c, 2, 51, 54
4, 584828, Note_on_c, 2, 56, 54
4, 585208, Note_off_c, 2, 44, 57
4, 585208, Note_off_c, 2, 51, 57
4, 585208, Note_off_c, 2, 56, 57
4, 585980, Note_on_c, 2, 58, 54
4, 585980, Note_on_c, 2, 55, 54
4, 587128, Note_off_c, 2, 58, 57
4, 587128, Note_off_c, 2, 55, 57
4, 587132, Note_on_c, 2, 60, 54
4, 587132, Note_on_c, 2, 56, 54
4, 587704, Note_off_c, 2, 60, 57
4, 587704, Note_off_c, 2, 56, 57
4, 587900, Note_on_c, 2, 58, 90
4, 587900, Note_on_c, 2, 55, 90
4, 588280, Note_off_c, 2, 58, 57
4, 588280, Note_off_c, 2, 55, 57
4, 588284, Note_on_c, 2, 54, 94
4, 588284, Note_on_c, 2, 57, 94
4, 589432, Note_off_c, 2, 54, 57
4, 589432, Note_off_c, 2, 57, 57
4, 589436, Note_on_c, 2, 58, 94
4, 589436, Note_on_c, 2, 55, 94
4, 589816, Note_off_c, 2, 58, 57
4, 589816, Note_off_c, 2, 55, 57
4, 599804, Note_on_c, 2, 50, 67
4, 600184, Note_off_c, 2, 50, 57
4, 600956, Note_on_c, 2, 43, 54
4, 601212, Note_off_c, 2, 43, 57
4, 602876, Note_on_c, 2, 31, 72
4, 603004, Note_on_c, 2, 33, 72
4, 603008, Note_off_c, 2, 31, 57
4, 603136, Note_off_c, 2, 33, 57
4, 603136, Note_on_c, 2, 35, 74
4, 603260, Note_on_c, 2, 35, 76
4, 603260, Note_on_c, 2, 36, 76
4, 603264, Note_off_c, 2, 35, 57
4, 603264, Note_off_c, 2, 35, 57
4, 603388, Note_off_c, 2, 36, 57
4, 604028, Note_on_c, 2, 38, 87
4, 604156, Note_off_c, 2, 38, 57
4, 604412, Note_on_c, 2, 39, 91
4, 604540, Note_off_c, 2, 39, 57
4, 605180, Note_on_c, 2, 42, 102
4, 605308, Note_off_c, 2, 42, 57
4, 605564, Note_on_c, 2, 43, 97
4, 605692, Note_off_c, 2, 43, 57
4, 607484, Note_on_c, 2, 43, 72
4, 607612, Note_on_c, 2, 45, 72
4, 607616, Note_off_c, 2, 43, 57
4, 607744, Note_off_c, 2, 45, 57
4, 607744, Note_on_c, 2, 47, 74
4, 607868, Note_on_c, 2, 48, 76
4, 607872, Note_off_c, 2, 47, 57
4, 607996, Note_off_c, 2, 48, 57
4, 608636, Note_on_c, 2, 50, 87
4, 608764, Note_off_c, 2, 50, 57
4, 609020, Note_on_c, 2, 51, 91
4, 609148, Note_off_c, 2, 51, 57
4, 609788, Note_on_c, 2, 54, 102
4, 609916, Note_off_c, 2, 54, 57
4, 610172, Note_on_c, 2, 55, 91
4, 610300, Note_off_c, 2, 55, 57
4, 612092, Note_on_c, 2, 31, 72
4, 612220, Note_on_c, 2, 33, 72
4, 612224, Note_off_c, 2, 31, 57
4, 612352, Note_off_c, 2, 33, 57
4, 612352, Note_on_c, 2, 35, 74
4, 612476, Note_on_c, 2, 35, 76
4, 612476, Note_on_c, 2, 36, 76
4, 612480, Note_off_c, 2, 35, 57
4, 612480, Note_off_c, 2, 35, 57
4, 612604, Note_off_c, 2, 36, 57
4, 613244, Note_on_c, 2, 38, 87
4, 613372, Note_off_c, 2, 38, 57
4, 613628, Note_on_c, 2, 39, 91
4, 613756, Note_off_c, 2, 39, 57
4, 614396, Note_on_c, 2, 42, 102
4, 614524, Note_off_c, 2, 42, 57
4, 614780, Note_on_c, 2, 43, 97
4, 614908, Note_off_c, 2, 43, 57
4, 616700, Note_on_c, 2, 42, 108
4, 616700, Note_on_c, 2, 30, 108
4, 616956, Note_off_c, 2, 42, 57
4, 616956, Note_off_c, 2, 30, 57
4, 617084, Note_on_c, 2, 43, 85
4, 617084, Note_on_c, 2, 31, 85
4, 617340, Note_off_c, 2, 43, 57
4, 617340, Note_off_c, 2, 31, 57
4, 619004, Note_on_c, 2, 42, 99
4, 619004, Note_on_c, 2, 30, 99
4, 619260, Note_off_c, 2, 42, 57
4, 619260, Note_off_c, 2, 30, 57
4, 619388, Note_on_c, 2, 43, 99
4, 619388, Note_on_c, 2, 31, 99
4, 621308, Note_off_c, 2, 31, 57
4, 621308, Note_off_c, 2, 43, 57
4, 621692, Note_on_c, 2, 48, 54
4, 621692, Note_on_c, 2, 36, 54
4, 622460, Note_off_c, 2, 48, 57
4, 622460, Note_off_c, 2, 36, 57
4, 622844, Note_on_c, 2, 41, 58
4, 623612, Note_off_c, 2, 41, 57
4, 623996, Note_on_c, 2, 46, 54
4, 623996, Note_on_c, 2, 34, 54
4, 624764, Note_off_c, 2, 46, 57
4, 624764, Note_off_c, 2, 34, 57
4, 625148, Note_on_c, 2, 39, 54
4, 625916, Note_off_c, 2, 39, 57
4, 626300, Note_on_c, 2, 39, 54
4, 626300, Note_on_c, 2, 49, 54
4, 627068, Note_off_c, 2, 39, 57
4, 627068, Note_off_c, 2, 49, 57
4, 627452, Note_on_c, 2, 50, 54
4, 627452, Note_on_c, 2, 42, 54
4, 628220, Note_off_c, 2, 50, 57
4, 628220, Note_off_c, 2, 42, 57
4, 628604, Note_on_c, 2, 50, 54
4, 628604, Note_on_c, 2, 43, 54
4, 629372, Note_off_c, 2, 50, 57
4, 629372, Note_off_c, 2, 43, 57
4, 629756, Note_on_c, 2, 48, 54
4, 629756, Note_on_c, 2, 36, 54
4, 630524, Note_off_c, 2, 48, 57
4, 630524, Note_off_c, 2, 36, 57
4, 630908, Note_on_c, 2, 50, 54
4, 630908, Note_on_c, 2, 38, 54
4, 631292, Note_off_c, 2, 50, 57
4, 631292, Note_off_c, 2, 38, 57
4, 633212, Note_on_c, 2, 60, 54
4, 633212, Note_on_c, 2, 57, 54
4, 633212, Note_on_c, 2, 50, 54
4, 633596, Note_off_c, 2, 60, 57
4, 633596, Note_off_c, 2, 57, 57
4, 633596, Note_off_c, 2, 50, 57
4, 635516, Note_on_c, 2, 55, 108
4, 635516, Note_on_c, 2, 50, 108
4, 635516, Note_on_c, 2, 46, 108
4, 635516, Note_on_c, 2, 43, 108
4, 635708, Note_on_c, 2, 55, 108
4, 635896, Note_off_c, 2, 55, 57
4, 635900, Note_on_c, 2, 59, 108
4, 635900, Note_on_c, 2, 62, 108
4, 636088, Note_off_c, 2, 55, 57
4, 636088, Note_off_c, 2, 50, 57
4, 636088, Note_off_c, 2, 46, 57
4, 636088, Note_off_c, 2, 43, 57
4, 636088, Note_off_c, 2, 59, 57
4, 636088, Note_off_c, 2, 62, 57
4, 636092, Note_on_c, 2, 55, 108
4, 636280, Note_off_c, 2, 55, 57
4, 636284, Note_on_c, 2, 59, 108
4, 636284, Note_on_c, 2, 62, 108
4, 636472, Note_off_c, 2, 59, 57
4, 636472, Note_off_c, 2, 62, 57
4, 636476, Note_on_c, 2, 55, 108
4, 636664, Note_off_c, 2, 55, 57
4, 636668, Note_on_c, 2, 59, 108
4, 636668, Note_on_c, 2, 62, 108
4, 636668, Note_on_c, 2, 65, 108
4, 636856, Note_off_c, 2, 59, 57
4, 636856, Note_off_c, 2, 62, 57
4, 636856, Note_off_c, 2, 65, 57
4, 636860, Note_on_c, 2, 55, 108
4, 637048, Note_off_c, 2, 55, 57
4, 637052, Note_on_c, 2, 65, 108
4, 637052, Note_on_c, 2, 62, 108
4, 637052, Note_on_c, 2, 59, 108
4, 637240, Note_off_c, 2, 65, 57
4, 637240, Note_off_c, 2, 62, 57
4, 637240, Note_off_c, 2, 59, 57
4, 637244, Note_on_c, 2, 55, 108
4, 637432, Note_off_c, 2, 55, 57
4, 637436, Note_on_c, 2, 59, 108
4, 637436, Note_on_c, 2, 62, 108
4, 637436, Note_on_c, 2, 65, 108
4, 637624, Note_off_c, 2, 59, 57
4, 637624, Note_off_c, 2, 62, 57
4, 637624, Note_off_c, 2, 65, 57
4, 637628, Note_on_c, 2, 55, 108
4, 637816, Note_off_c, 2, 55, 57
4, 637820, Note_on_c, 2, 60, 108
4, 637820, Note_on_c, 2, 63, 108
4, 638008, Note_off_c, 2, 60, 57
4, 638008, Note_off_c, 2, 63, 57
4, 638012, Note_on_c, 2, 55, 108
4, 638200, Note_off_c, 2, 55, 57
4, 638204, Note_on_c, 2, 63, 108
4, 638204, Note_on_c, 2, 60, 108
4, 638392, Note_off_c, 2, 63, 57
4, 638392, Note_off_c, 2, 60, 57
4, 638396, Note_on_c, 2, 55, 108
4, 638584, Note_off_c, 2, 55, 57
4, 638588, Note_on_c, 2, 63, 108
4, 638588, Note_on_c, 2, 60, 108
4, 638776, Note_off_c, 2, 63, 57
4, 638776, Note_off_c, 2, 60, 57
4, 638780, Note_on_c, 2, 55, 108
4, 638968, Note_off_c, 2, 55, 57
4, 638972, Note_on_c, 2, 60, 108
4, 638972, Note_on_c, 2, 63, 108
4, 638972, Note_on_c, 2, 66, 108
4, 639160, Note_off_c, 2, 60, 57
4, 639160, Note_off_c, 2, 63, 57
4, 639160, Note_off_c, 2, 66, 57
4, 639164, Note_on_c, 2, 55, 108
4, 639352, Note_off_c, 2, 55, 57
4, 639356, Note_on_c, 2, 60, 108
4, 639356, Note_on_c, 2, 63, 108
4, 639356, Note_on_c, 2, 66, 108
4, 639544, Note_off_c, 2, 60, 57
4, 639544, Note_off_c, 2, 63, 57
4, 639544, Note_off_c, 2, 66, 57
4, 639548, Note_on_c, 2, 55, 108
4, 639736, Note_off_c, 2, 55, 57
4, 639740, Note_on_c, 2, 60, 108
4, 639740, Note_on_c, 2, 63, 108
4, 639740, Note_on_c, 2, 66, 108
4, 639928, Note_off_c, 2, 60, 57
4, 639928, Note_off_c, 2, 63, 57
4, 639928, Note_off_c, 2, 66, 57
4, 639932, Note_on_c, 2, 55, 108
4, 640120, Note_off_c, 2, 55, 57
4, 640124, Note_on_c, 2, 59, 108
4, 640124, Note_on_c, 2, 62, 108
4, 640124, Note_on_c, 2, 67, 108
4, 640312, Note_off_c, 2, 59, 57
4, 640312, Note_off_c, 2, 62, 57
4, 640312, Note_off_c, 2, 67, 57
4, 640316, Note_on_c, 2, 55, 108
4, 640504, Note_off_c, 2, 55, 57
4, 640508, Note_on_c, 2, 67, 108
4, 640508, Note_on_c, 2, 62, 108
4, 640508, Note_on_c, 2, 59, 108
4, 640696, Note_off_c, 2, 67, 57
4, 640696, Note_off_c, 2, 62, 57
4, 640696, Note_off_c, 2, 59, 57
4, 640700, Note_on_c, 2, 55, 108
4, 640888, Note_off_c, 2, 55, 57
4, 640892, Note_on_c, 2, 67, 108
4, 640892, Note_on_c, 2, 62, 108
4, 640892, Note_on_c, 2, 59, 108
4, 641080, Note_off_c, 2, 67, 57
4, 641080, Note_off_c, 2, 62, 57
4, 641080, Note_off_c, 2, 59, 57
4, 641084, Note_on_c, 2, 55, 108
4, 641272, Note_off_c, 2, 55, 57
4, 641276, Note_on_c, 2, 59, 108
4, 641276, Note_on_c, 2, 62, 108
4, 641276, Note_on_c, 2, 65, 108
4, 641464, Note_off_c, 2, 59, 57
4, 641464, Note_off_c, 2, 62, 57
4, 641464, Note_off_c, 2, 65, 57
4, 641468, Note_on_c, 2, 55, 108
4, 641656, Note_off_c, 2, 55, 57
4, 641660, Note_on_c, 2, 59, 108
4, 641660, Note_on_c, 2, 62, 108
4, 641660, Note_on_c, 2, 65, 108
4, 641848, Note_off_c, 2, 59, 57
4, 641848, Note_off_c, 2, 62, 57
4, 641848, Note_off_c, 2, 65, 57
4, 641852, Note_on_c, 2, 55, 108
4, 642040, Note_off_c, 2, 55, 57
4, 642044, Note_on_c, 2, 59, 108
4, 642044, Note_on_c, 2, 62, 108
4, 642044, Note_on_c, 2, 65, 108
4, 642232, Note_off_c, 2, 59, 57
4, 642232, Note_off_c, 2, 62, 57
4, 642232, Note_off_c, 2, 65, 57
4, 642236, Note_on_c, 2, 55, 108
4, 642424, Note_off_c, 2, 55, 57
4, 642428, Note_on_c, 2, 60, 108
4, 642428, Note_on_c, 2, 63, 108
4, 642616, Note_off_c, 2, 60, 57
4, 642616, Note_off_c, 2, 63, 57
4, 642620, Note_on_c, 2, 55, 108
4, 642808, Note_off_c, 2, 55, 57
4, 642812, Note_on_c, 2, 63, 108
4, 642812, Note_on_c, 2, 60, 108
4, 643000, Note_off_c, 2, 63, 57
4, 643000, Note_off_c, 2, 60, 57
4, 643004, Note_on_c, 2, 55, 108
4, 643192, Note_off_c, 2, 55, 57
4, 643196, Note_on_c, 2, 63, 108
4, 643196, Note_on_c, 2, 60, 108
4, 643384, Note_off_c, 2, 63, 57
4, 643384, Note_off_c, 2, 60, 57
4, 643388, Note_on_c, 2, 55, 108
4, 643576, Note_off_c, 2, 55, 57
4, 643580, Note_on_c, 2, 60, 108
4, 643580, Note_on_c, 2, 63, 108
4, 643580, Note_on_c, 2, 66, 108
4, 643768, Note_off_c, 2, 60, 57
4, 643768, Note_off_c, 2, 63, 57
4, 643768, Note_off_c, 2, 66, 57
4, 643772, Note_on_c, 2, 55, 108
4, 643960, Note_off_c, 2, 55, 57
4, 643964, Note_on_c, 2, 63, 108
4, 643964, Note_on_c, 2, 66, 108
4, 643964, Note_on_c, 2, 60, 108
4, 644152, Note_off_c, 2, 63, 57
4, 644152, Note_off_c, 2, 66, 57
4, 644152, Note_off_c, 2, 60, 57
4, 644156, Note_on_c, 2, 55, 108
4, 644344, Note_off_c, 2, 55, 57
4, 644348, Note_on_c, 2, 63, 108
4, 644348, Note_on_c, 2, 66, 108
4, 644348, Note_on_c, 2, 60, 108
4, 644536, Note_off_c, 2, 63, 57
4, 644536, Note_off_c, 2, 66, 57
4, 644536, Note_off_c, 2, 60, 57
4, 644540, Note_on_c, 2, 55, 108
4, 644728, Note_off_c, 2, 55, 57
4, 644732, Note_on_c, 2, 59, 108
4, 644732, Note_on_c, 2, 62, 108
4, 644732, Note_on_c, 2, 67, 108
4, 644920, Note_off_c, 2, 59, 57
4, 644920, Note_off_c, 2, 62, 57
4, 644920, Note_off_c, 2, 67, 57
4, 644924, Note_on_c, 2, 55, 108
4, 645112, Note_off_c, 2, 55, 57
4, 645116, Note_on_c, 2, 59, 108
4, 645116, Note_on_c, 2, 62, 108
4, 645116, Note_on_c, 2, 67, 108
4, 645304, Note_off_c, 2, 59, 57
4, 645304, Note_off_c, 2, 62, 57
4, 645304, Note_off_c, 2, 67, 57
4, 645308, Note_on_c, 2, 55, 108
4, 645496, Note_off_c, 2, 55, 57
4, 645500, Note_on_c, 2, 59, 108
4, 645500, Note_on_c, 2, 62, 108
4, 645500, Note_on_c, 2, 67, 108
4, 645688, Note_off_c, 2, 59, 57
4, 645688, Note_off_c, 2, 62, 57
4, 645688, Note_off_c, 2, 67, 57
4, 645692, Note_on_c, 2, 55, 108
4, 645880, Note_off_c, 2, 55, 57
4, 645884, Note_on_c, 2, 66, 108
4, 645884, Note_on_c, 2, 63, 108
4, 645884, Note_on_c, 2, 60, 108
4, 646072, Note_off_c, 2, 66, 57
4, 646072, Note_off_c, 2, 63, 57
4, 646072, Note_off_c, 2, 60, 57
4, 646076, Note_on_c, 2, 55, 108
4, 646264, Note_off_c, 2, 55, 57
4, 646268, Note_on_c, 2, 63, 108
4, 646268, Note_on_c, 2, 66, 108
4, 646268, Note_on_c, 2, 60, 108
4, 646456, Note_off_c, 2, 63, 57
4, 646456, Note_off_c, 2, 66, 57
4, 646456, Note_off_c, 2, 60, 57
4, 646460, Note_on_c, 2, 55, 108
4, 646648, Note_off_c, 2, 55, 57
4, 646652, Note_on_c, 2, 63, 108
4, 646652, Note_on_c, 2, 66, 108
4, 646652, Note_on_c, 2, 60, 108
4, 646840, Note_off_c, 2, 63, 57
4, 646840, Note_off_c, 2, 66, 57
4, 646840, Note_off_c, 2, 60, 57
4, 646844, Note_on_c, 2, 55, 108
4, 647032, Note_off_c, 2, 55, 57
4, 647036, Note_on_c, 2, 59, 108
4, 647036, Note_on_c, 2, 62, 108
4, 647036, Note_on_c, 2, 67, 108
4, 647224, Note_off_c, 2, 59, 57
4, 647224, Note_off_c, 2, 62, 57
4, 647224, Note_off_c, 2, 67, 57
4, 647228, Note_on_c, 2, 55, 108
4, 647416, Note_off_c, 2, 55, 57
4, 647420, Note_on_c, 2, 59, 108
4, 647420, Note_on_c, 2, 62, 108
4, 647420, Note_on_c, 2, 67, 108
4, 647608, Note_off_c, 2, 59, 57
4, 647608, Note_off_c, 2, 62, 57
4, 647608, Note_off_c, 2, 67, 57
4, 647612, Note_on_c, 2, 55, 108
4, 647800, Note_off_c, 2, 55, 57
4, 647804, Note_on_c, 2, 59, 108
4, 647804, Note_on_c, 2, 62, 108
4, 647804, Note_on_c, 2, 67, 108
4, 647992, Note_off_c, 2, 59, 57
4, 647992, Note_off_c, 2, 62, 57
4, 647992, Note_off_c, 2, 67, 57
4, 647996, Note_on_c, 2, 55, 108
4, 648184, Note_off_c, 2, 55, 57
4, 648188, Note_on_c, 2, 66, 108
4, 648188, Note_on_c, 2, 63, 108
4, 648188, Note_on_c, 2, 60, 108
4, 648376, Note_off_c, 2, 66, 57
4, 648376, Note_off_c, 2, 63, 57
4, 648376, Note_off_c, 2, 60, 57
4, 648380, Note_on_c, 2, 55, 108
4, 648568, Note_off_c, 2, 55, 57
4, 648572, Note_on_c, 2, 63, 108
4, 648572, Note_on_c, 2, 66, 108
4, 648572, Note_on_c, 2, 60, 108
4, 648760, Note_off_c, 2, 63, 57
4, 648760, Note_off_c, 2, 66, 57
4, 648760, Note_off_c, 2, 60, 57
4, 648764, Note_on_c, 2, 55, 108
4, 648952, Note_off_c, 2, 55, 57
4, 648956, Note_on_c, 2, 63, 108
4, 648956, Note_on_c, 2, 66, 108
4, 648956, Note_on_c, 2, 60, 108
4, 649144, Note_off_c, 2, 63, 57
4, 649144, Note_off_c, 2, 66, 57
4, 649144, Note_off_c, 2, 60, 57
4, 649148, Note_on_c, 2, 55, 108
4, 649336, Note_off_c, 2, 55, 57
4, 649340, Note_on_c, 2, 55, 114
4, 649340, Note_on_c, 2, 59, 114
4, 649340, Note_on_c, 2, 62, 114
4, 649340, Note_on_c, 2, 67, 114
4, 649528, Note_off_c, 2, 55, 57
4, 649528, Note_off_c, 2, 59, 57
4, 649528, Note_off_c, 2, 62, 57
4, 649528, Note_off_c, 2, 67, 57
4, 650492, Note_on_c, 2, 55, 114
4, 650492, Note_on_c, 2, 43, 114
4, 650872, Note_off_c, 2, 55, 57
4, 650872, Note_off_c, 2, 43, 57
4, 651644, Note_on_c, 2, 43, 114
4, 651644, Note_on_c, 2, 31, 114
4, 651644, Note_on_c, 2, 47, 114
4, 651644, Note_on_c, 2, 50, 114
4, 651644, Note_on_c, 2, 50, 114
4, 651644, Note_on_c, 2, 55, 114
4, 652024, Note_off_c, 2, 43, 57
4, 652024, Note_off_c, 2, 31, 57
4, 652024, Note_off_c, 2, 47, 57
4, 652024, Note_off_c, 2, 50, 57
4, 652024, Note_off_c, 2, 50, 57
4, 652024, Note_off_c, 2, 55, 57
4, 652024, End_track
5, 0, Start_track
5, 0, Title_t, "Sonata for Cello & Piano"
5, 0, Control_c, 3, 0, 0
5, 0, Program_c, 3, 0
5, 0, Control_c, 3, 10, 70
5, 0, Key_signature, 0, "major"
5, 6912, Note_on_c, 3, 53, 60
5, 7424, Note_off_c, 3, 53, 64
5, 7424, End_track
6, 0, Start_track
6, 0, Title_t, "Opus 5, No. 2 by Ludwig"
6, 0, Key_signature, 0, "major"
6, 0, End_track
7, 0, Start_track
7, 0, Title_t, "van Beethoven"
7, 0, Key_signature, 0, "major"
7, 0, End_track
8, 0, Start_track
8, 0, Key_signature, 0, "major"
8, 0, End_track
0, 0, End_of_file