0, 0, Header, 1, 6, 192
1, 0, Start_track
1, 0, Title_t, "String Quartet No.1 - IV"
1, 0, Copyright_t, "Copyright \251 2000 by S.E.Edwards All Rights Reserved"
1, 0, Text_t, "By Ludwig van Beethoven\012"
1, 0, Text_t, "Generated by NoteWorthy Composer\012"
1, 0, Time_signature, 2, 2, 24, 8
1, 0, Key_signature, -1, "major"
1, 0, Tempo, 508475
1, 0, End_track
2, 0, Start_track
2, 0, Title_t, "Violino I."
2, 0, Program_c, 1, 48
2, 0, Control_c, 1, 7, 127
2, 0, Control_c, 1, 10, 64
2, 0, Note_on_c, 1, 77, 45
2, 32, Note_on_c, 1, 77, 0
2, 32, Note_on_c, 1, 76, 45
2, 64, Note_on_c, 1, 76, 0
2, 64, Note_on_c, 1, 77, 45
2, 96, Note_on_c, 1, 77, 0
2, 96, Note_on_c, 1, 79, 45
2, 128, Note_on_c, 1, 79, 0
2, 128, Note_on_c, 1, 77, 45
2, 160, Note_on_c, 1, 77, 0
2, 160, Note_on_c, 1, 76, 45
2, 192, Note_on_c, 1, 76, 0
2, 192, Note_on_c, 1, 74, 45
2, 224, Note_on_c, 1, 74, 0
2, 224, Note_on_c, 1, 72, 45
2, 256, Note_on_c, 1, 72, 0
2, 256, Note_on_c, 1, 70, 45
2, 288, Note_on_c, 1, 70, 0
2, 288, Note_on_c, 1, 69, 45
2, 320, Note_on_c, 1, 69, 0
2, 320, Note_on_c, 1, 67, 45
2, 352, Note_on_c, 1, 67, 0
2, 352, Note_on_c, 1, 65, 45
2, 382, Note_on_c, 1, 65, 0
2, 384, Note_on_c, 1, 64, 45
2, 416, Note_on_c, 1, 64, 0
2, 480, Note_on_c, 1, 64, 45
2, 512, Note_on_c, 1, 64, 0
2, 576, Note_on_c, 1, 67, 45
2, 608, Note_on_c, 1, 67, 0
2, 768, Note_on_c, 1, 79, 45
2, 800, Note_on_c, 1, 79, 0
2, 800, Note_on_c, 1, 78, 45
2, 832, Note_on_c, 1, 78, 0
2, 832, Note_on_c, 1, 79, 45
2, 864, Note_on_c, 1, 79, 0
2, 864, Note_on_c, 1, 81, 45
2, 896, Note_on_c, 1, 81, 0
2, 896, Note_on_c, 1, 79, 45
2, 928, Note_on_c, 1, 79, 0
2, 928, Note_on_c, 1, 77, 45
2, 960, Note_on_c, 1, 77, 0
2, 960, Note_on_c, 1, 76, 45
2, 992, Note_on_c, 1, 76, 0
2, 992, Note_on_c, 1, 74, 45
2, 1024, Note_on_c, 1, 74, 0
2, 1024, Note_on_c, 1, 72, 45
2, 1056, Note_on_c, 1, 72, 0
2, 1056, Note_on_c, 1, 70, 45
2, 1088, Note_on_c, 1, 70, 0
2, 1088, Note_on_c, 1, 69, 45
2, 1120, Note_on_c, 1, 69, 0
2, 1120, Note_on_c, 1, 67, 45
2, 1150, Note_on_c, 1, 67, 0
2, 1152, Note_on_c, 1, 65, 45
2, 1184, Note_on_c, 1, 65, 0
2, 1248, Note_on_c, 1, 65, 45
2, 1280, Note_on_c, 1, 65, 0
2, 1344, Note_on_c, 1, 69, 45
2, 1376, Note_on_c, 1, 69, 0
2, 1536, Note_on_c, 1, 72, 45
2, 1568, Note_on_c, 1, 72, 0
2, 1568, Note_on_c, 1, 71, 45
2, 1600, Note_on_c, 1, 71, 0
2, 1600, Note_on_c, 1, 72, 45
2, 1632, Note_on_c, 1, 72, 0
2, 1632, Note_on_c, 1, 74, 45
2, 1664, Note_on_c, 1, 74, 0
2, 1664, Note_on_c, 1, 72, 45
2, 1696, Note_on_c, 1, 72, 0
2, 1696, Note_on_c, 1, 70, 45
2, 1726, Note_on_c, 1, 70, 0
2, 1728, Note_on_c, 1, 69, 45
2, 1824, Note_on_c, 1, 69, 0
2, 1824, Note_on_c, 1, 77, 45
2, 1870, Note_on_c, 1, 77, 0
2, 1920, Note_on_c, 1, 72, 45
2, 1952, Note_on_c, 1, 72, 0
2, 1952, Note_on_c, 1, 71, 45
2, 1984, Note_on_c, 1, 71, 0
2, 1984, Note_on_c, 1, 72, 45
2, 2016, Note_on_c, 1, 72, 0
2, 2016, Note_on_c, 1, 74, 45
2, 2048, Note_on_c, 1, 74, 0
2, 2048, Note_on_c, 1, 72, 45
2, 2080, Note_on_c, 1, 72, 0
2, 2080, Note_on_c, 1, 70, 45
2, 2110, Note_on_c, 1, 70, 0
2, 2112, Note_on_c, 1, 69, 45
2, 2208, Note_on_c, 1, 69, 0
2, 2208, Note_on_c, 1, 81, 45
2, 2254, Note_on_c, 1, 81, 0
2, 2304, Note_on_c, 1, 72, 45
2, 2336, Note_on_c, 1, 72, 0
2, 2336, Note_on_c, 1, 71, 45
2, 2368, Note_on_c, 1, 71, 0
2, 2368, Note_on_c, 1, 72, 45
2, 2400, Note_on_c, 1, 72, 0
2, 2400, Note_on_c, 1, 74, 45
2, 2432, Note_on_c, 1, 74, 0
2, 2432, Note_on_c, 1, 72, 45
2, 2464, Note_on_c, 1, 72, 0
2, 2464, Note_on_c, 1, 70, 45
2, 2494, Note_on_c, 1, 70, 0
2, 2496, Note_on_c, 1, 69, 45
2, 2592, Note_on_c, 1, 69, 0
2, 2592, Note_on_c, 1, 84, 45
2, 2638, Note_on_c, 1, 84, 0
2, 2688, Note_on_c, 1, 72, 45
2, 2784, Note_on_c, 1, 72, 0
2, 2784, Note_on_c, 1, 76, 45
2, 2832, Note_on_c, 1, 76, 0
2, 2832, Note_on_c, 1, 74, 45
2, 2880, Note_on_c, 1, 74, 0
2, 2880, Note_on_c, 1, 72, 45
2, 2974, Note_on_c, 1, 72, 0
2, 3648, Note_on_c, 1, 82, 45
2, 3680, Note_on_c, 1, 82, 0
2, 3744, Note_on_c, 1, 82, 45
2, 3776, Note_on_c, 1, 82, 0
2, 3840, Note_on_c, 1, 76, 45
2, 3934, Note_on_c, 1, 76, 0
2, 4416, Note_on_c, 1, 84, 45
2, 4448, Note_on_c, 1, 84, 0
2, 4512, Note_on_c, 1, 84, 45
2, 4544, Note_on_c, 1, 84, 0
2, 4608, Note_on_c, 1, 72, 45
2, 4640, Note_on_c, 1, 72, 0
2, 4640, Note_on_c, 1, 71, 45
2, 4672, Note_on_c, 1, 71, 0
2, 4672, Note_on_c, 1, 72, 45
2, 4704, Note_on_c, 1, 72, 0
2, 4704, Note_on_c, 1, 74, 45
2, 4736, Note_on_c, 1, 74, 0
2, 4736, Note_on_c, 1, 72, 45
2, 4768, Note_on_c, 1, 72, 0
2, 4768, Note_on_c, 1, 70, 45
2, 4798, Note_on_c, 1, 70, 0
2, 4800, Note_on_c, 1, 69, 45
2, 4896, Note_on_c, 1, 69, 0
2, 4896, Note_on_c, 1, 77, 45
2, 4942, Note_on_c, 1, 77, 0
2, 4992, Note_on_c, 1, 72, 45
2, 5024, Note_on_c, 1, 72, 0
2, 5024, Note_on_c, 1, 71, 45
2, 5056, Note_on_c, 1, 71, 0
2, 5056, Note_on_c, 1, 72, 45
2, 5088, Note_on_c, 1, 72, 0
2, 5088, Note_on_c, 1, 74, 45
2, 5120, Note_on_c, 1, 74, 0
2, 5120, Note_on_c, 1, 72, 45
2, 5152, Note_on_c, 1, 72, 0
2, 5152, Note_on_c, 1, 70, 45
2, 5182, Note_on_c, 1, 70, 0
2, 5184, Note_on_c, 1, 69, 45
2, 5280, Note_on_c, 1, 69, 0
2, 5280, Note_on_c, 1, 81, 45
2, 5326, Note_on_c, 1, 81, 0
2, 5376, Note_on_c, 1, 72, 45
2, 5408, Note_on_c, 1, 72, 0
2, 5408, Note_on_c, 1, 71, 46
2, 5440, Note_on_c, 1, 71, 0
2, 5440, Note_on_c, 1, 72, 48
2, 5472, Note_on_c, 1, 72, 0
2, 5472, Note_on_c, 1, 74, 50
2, 5504, Note_on_c, 1, 74, 0
2, 5504, Note_on_c, 1, 72, 52
2, 5536, Note_on_c, 1, 72, 0
2, 5536, Note_on_c, 1, 70, 54
2, 5566, Note_on_c, 1, 70, 0
2, 5568, Note_on_c, 1, 69, 56
2, 5600, Note_on_c, 1, 69, 0
2, 5664, Note_on_c, 1, 87, 62
2, 5696, Note_on_c, 1, 87, 0
2, 5760, Note_on_c, 1, 86, 68
2, 5792, Note_on_c, 1, 86, 0
2, 5856, Note_on_c, 1, 88, 74
2, 5888, Note_on_c, 1, 88, 0
2, 5952, Note_on_c, 1, 89, 80
2, 5984, Note_on_c, 1, 89, 0
2, 6048, Note_on_c, 1, 67, 86
2, 6080, Note_on_c, 1, 67, 0
2, 6144, Note_on_c, 1, 69, 92
2, 6304, Note_on_c, 1, 69, 0
2, 6336, Note_on_c, 1, 55, 92
2, 6336, Note_on_c, 1, 64, 92
2, 6496, Note_on_c, 1, 64, 0
2, 6496, Note_on_c, 1, 55, 0
2, 6528, Note_on_c, 1, 65, 92
2, 6688, Note_on_c, 1, 65, 0
2, 6912, Note_on_c, 1, 57, 45
2, 6960, Note_on_c, 1, 57, 0
2, 6960, Note_on_c, 1, 60, 45
2, 7008, Note_on_c, 1, 60, 0
2, 7008, Note_on_c, 1, 67, 45
2, 7056, Note_on_c, 1, 67, 0
2, 7056, Note_on_c, 1, 65, 45
2, 7104, Note_on_c, 1, 65, 0
2, 7104, Note_on_c, 1, 60, 45
2, 7152, Note_on_c, 1, 60, 0
2, 7152, Note_on_c, 1, 65, 45
2, 7200, Note_on_c, 1, 65, 0
2, 7200, Note_on_c, 1, 70, 45
2, 7248, Note_on_c, 1, 70, 0
2, 7248, Note_on_c, 1, 69, 45
2, 7294, Note_on_c, 1, 69, 0
2, 7296, Note_on_c, 1, 67, 45
2, 7456, Note_on_c, 1, 67, 0
2, 7680, Note_on_c, 1, 60, 45
2, 7728, Note_on_c, 1, 60, 0
2, 7728, Note_on_c, 1, 64, 45
2, 7776, Note_on_c, 1, 64, 0
2, 7776, Note_on_c, 1, 69, 45
2, 7824, Note_on_c, 1, 69, 0
2, 7824, Note_on_c, 1, 67, 45
2, 7872, Note_on_c, 1, 67, 0
2, 7872, Note_on_c, 1, 64, 45
2, 7920, Note_on_c, 1, 64, 0
2, 7920, Note_on_c, 1, 67, 45
2, 7968, Note_on_c, 1, 67, 0
2, 7968, Note_on_c, 1, 72, 45
2, 8016, Note_on_c, 1, 72, 0
2, 8016, Note_on_c, 1, 70, 45
2, 8062, Note_on_c, 1, 70, 0
2, 8064, Note_on_c, 1, 69, 45
2, 8224, Note_on_c, 1, 69, 0
2, 8448, Note_on_c, 1, 60, 45
2, 8496, Note_on_c, 1, 60, 0
2, 8496, Note_on_c, 1, 65, 45
2, 8544, Note_on_c, 1, 65, 0
2, 8544, Note_on_c, 1, 70, 45
2, 8592, Note_on_c, 1, 70, 0
2, 8592, Note_on_c, 1, 69, 45
2, 8640, Note_on_c, 1, 69, 0
2, 8640, Note_on_c, 1, 65, 45
2, 8688, Note_on_c, 1, 65, 0
2, 8688, Note_on_c, 1, 69, 45
2, 8736, Note_on_c, 1, 69, 0
2, 8736, Note_on_c, 1, 74, 45
2, 8784, Note_on_c, 1, 74, 0
2, 8784, Note_on_c, 1, 72, 45
2, 8830, Note_on_c, 1, 72, 0
2, 8832, Note_on_c, 1, 69, 45
2, 8880, Note_on_c, 1, 69, 0
2, 8880, Note_on_c, 1, 72, 45
2, 8928, Note_on_c, 1, 72, 0
2, 8928, Note_on_c, 1, 79, 45
2, 8976, Note_on_c, 1, 79, 0
2, 8976, Note_on_c, 1, 77, 45
2, 9024, Note_on_c, 1, 77, 0
2, 9024, Note_on_c, 1, 72, 45
2, 9072, Note_on_c, 1, 72, 0
2, 9072, Note_on_c, 1, 77, 45
2, 9120, Note_on_c, 1, 77, 0
2, 9120, Note_on_c, 1, 82, 45
2, 9168, Note_on_c, 1, 82, 0
2, 9168, Note_on_c, 1, 81, 45
2, 9214, Note_on_c, 1, 81, 0
2, 9216, Note_on_c, 1, 79, 45
2, 9264, Note_on_c, 1, 79, 0
2, 9264, Note_on_c, 1, 77, 45
2, 9312, Note_on_c, 1, 77, 0
2, 9312, Note_on_c, 1, 76, 45
2, 9360, Note_on_c, 1, 76, 0
2, 9360, Note_on_c, 1, 74, 45
2, 9408, Note_on_c, 1, 74, 0
2, 9408, Note_on_c, 1, 72, 45
2, 9456, Note_on_c, 1, 72, 0
2, 9456, Note_on_c, 1, 73, 45
2, 9504, Note_on_c, 1, 73, 0
2, 9504, Note_on_c, 1, 74, 45
2, 9552, Note_on_c, 1, 74, 0
2, 9552, Note_on_c, 1, 67, 45
2, 9598, Note_on_c, 1, 67, 0
2, 9600, Note_on_c, 1, 70, 45
2, 9792, Note_on_c, 1, 70, 0
2, 9792, Note_on_c, 1, 69, 45
2, 9886, Note_on_c, 1, 69, 0
2, 9888, Note_on_c, 1, 69, 127
2, 9920, Note_on_c, 1, 69, 0
2, 9984, Note_on_c, 1, 57, 127
2, 10240, Note_on_c, 1, 57, 0
2, 10272, Note_on_c, 1, 57, 127
2, 10304, Note_on_c, 1, 57, 0
2, 10304, Note_on_c, 1, 59, 127
2, 10336, Note_on_c, 1, 59, 0
2, 10336, Note_on_c, 1, 61, 127
2, 10366, Note_on_c, 1, 61, 0
2, 10368, Note_on_c, 1, 62, 127
2, 10400, Note_on_c, 1, 62, 0
2, 10464, Note_on_c, 1, 64, 108
2, 10496, Note_on_c, 1, 64, 0
2, 10560, Note_on_c, 1, 65, 108
2, 10592, Note_on_c, 1, 65, 0
2, 10656, Note_on_c, 1, 67, 108
2, 10688, Note_on_c, 1, 67, 0
2, 10752, Note_on_c, 1, 69, 108
2, 10784, Note_on_c, 1, 69, 0
2, 10848, Note_on_c, 1, 71, 108
2, 10880, Note_on_c, 1, 71, 0
2, 10944, Note_on_c, 1, 72, 108
2, 10976, Note_on_c, 1, 72, 0
2, 11040, Note_on_c, 1, 73, 108
2, 11072, Note_on_c, 1, 73, 0
2, 11136, Note_on_c, 1, 74, 108
2, 11168, Note_on_c, 1, 74, 0
2, 11232, Note_on_c, 1, 76, 108
2, 11264, Note_on_c, 1, 76, 0
2, 11328, Note_on_c, 1, 74, 108
2, 11352, Note_on_c, 1, 74, 0
2, 11352, Note_on_c, 1, 76, 108
2, 11376, Note_on_c, 1, 76, 0
2, 11376, Note_on_c, 1, 77, 108
2, 11616, Note_on_c, 1, 77, 0
2, 11616, Note_on_c, 1, 76, 108
2, 11710, Note_on_c, 1, 76, 0
2, 11712, Note_on_c, 1, 74, 108
2, 11736, Note_on_c, 1, 74, 0
2, 11736, Note_on_c, 1, 76, 108
2, 11760, Note_on_c, 1, 76, 0
2, 11760, Note_on_c, 1, 74, 108
2, 11808, Note_on_c, 1, 74, 0
2, 11808, Note_on_c, 1, 72, 108
2, 11902, Note_on_c, 1, 72, 0
2, 11904, Note_on_c, 1, 70, 108
2, 11928, Note_on_c, 1, 70, 0
2, 11928, Note_on_c, 1, 72, 108
2, 11952, Note_on_c, 1, 72, 0
2, 11952, Note_on_c, 1, 70, 108
2, 12000, Note_on_c, 1, 70, 0
2, 12000, Note_on_c, 1, 69, 108
2, 12094, Note_on_c, 1, 69, 0
2, 12096, Note_on_c, 1, 67, 108
2, 12120, Note_on_c, 1, 67, 0
2, 12120, Note_on_c, 1, 69, 108
2, 12144, Note_on_c, 1, 69, 0
2, 12144, Note_on_c, 1, 67, 108
2, 12192, Note_on_c, 1, 67, 0
2, 12192, Note_on_c, 1, 65, 108
2, 12286, Note_on_c, 1, 65, 0
2, 12288, Note_on_c, 1, 64, 108
2, 12312, Note_on_c, 1, 64, 0
2, 12312, Note_on_c, 1, 65, 108
2, 12336, Note_on_c, 1, 65, 0
2, 12336, Note_on_c, 1, 64, 108
2, 12384, Note_on_c, 1, 64, 0
2, 12384, Note_on_c, 1, 62, 108
2, 12478, Note_on_c, 1, 62, 0
2, 12480, Note_on_c, 1, 69, 108
2, 12512, Note_on_c, 1, 69, 0
2, 12576, Note_on_c, 1, 57, 127
2, 12608, Note_on_c, 1, 57, 0
2, 12672, Note_on_c, 1, 62, 45
2, 12720, Note_on_c, 1, 62, 0
2, 12720, Note_on_c, 1, 65, 45
2, 12768, Note_on_c, 1, 65, 0
2, 12768, Note_on_c, 1, 69, 45
2, 12816, Note_on_c, 1, 69, 0
2, 12816, Note_on_c, 1, 67, 45
2, 12864, Note_on_c, 1, 67, 0
2, 12864, Note_on_c, 1, 65, 45
2, 12912, Note_on_c, 1, 65, 0
2, 12912, Note_on_c, 1, 69, 45
2, 12960, Note_on_c, 1, 69, 0
2, 12960, Note_on_c, 1, 77, 45
2, 13008, Note_on_c, 1, 77, 0
2, 13008, Note_on_c, 1, 74, 45
2, 13054, Note_on_c, 1, 74, 0
2, 13056, Note_on_c, 1, 73, 45
2, 13150, Note_on_c, 1, 73, 0
2, 13440, Note_on_c, 1, 69, 45
2, 13488, Note_on_c, 1, 69, 0
2, 13488, Note_on_c, 1, 73, 45
2, 13536, Note_on_c, 1, 73, 0
2, 13536, Note_on_c, 1, 76, 45
2, 13584, Note_on_c, 1, 76, 0
2, 13584, Note_on_c, 1, 74, 45
2, 13632, Note_on_c, 1, 74, 0
2, 13632, Note_on_c, 1, 73, 45
2, 13680, Note_on_c, 1, 73, 0
2, 13680, Note_on_c, 1, 76, 45
2, 13728, Note_on_c, 1, 76, 0
2, 13728, Note_on_c, 1, 81, 45
2, 13776, Note_on_c, 1, 81, 0
2, 13776, Note_on_c, 1, 79, 45
2, 13822, Note_on_c, 1, 79, 0
2, 13824, Note_on_c, 1, 77, 45
2, 13918, Note_on_c, 1, 77, 0
2, 14592, Note_on_c, 1, 87, 45
2, 14640, Note_on_c, 1, 87, 0
2, 14640, Note_on_c, 1, 88, 45
2, 14688, Note_on_c, 1, 88, 0
2, 14688, Note_on_c, 1, 87, 45
2, 14736, Note_on_c, 1, 87, 0
2, 14736, Note_on_c, 1, 88, 45
2, 14784, Note_on_c, 1, 88, 0
2, 14784, Note_on_c, 1, 87, 45
2, 14832, Note_on_c, 1, 87, 0
2, 14832, Note_on_c, 1, 88, 45
2, 14880, Note_on_c, 1, 88, 0
2, 14880, Note_on_c, 1, 83, 45
2, 14928, Note_on_c, 1, 83, 0
2, 14928, Note_on_c, 1, 80, 45
2, 14974, Note_on_c, 1, 80, 0
2, 14976, Note_on_c, 1, 76, 45
2, 15070, Note_on_c, 1, 76, 0
2, 15552, Note_on_c, 1, 81, 45
2, 15936, Note_on_c, 1, 81, 0
2, 15936, Note_on_c, 1, 78, 65
2, 16096, Note_on_c, 1, 78, 0
2, 16128, Note_on_c, 1, 79, 45
2, 16416, Note_on_c, 1, 79, 0
2, 16416, Note_on_c, 1, 81, 45
2, 16440, Note_on_c, 1, 81, 0
2, 16440, Note_on_c, 1, 79, 45
2, 16464, Note_on_c, 1, 79, 0
2, 16464, Note_on_c, 1, 78, 45
2, 16488, Note_on_c, 1, 78, 0
2, 16488, Note_on_c, 1, 76, 45
2, 16510, Note_on_c, 1, 76, 0
2, 16512, Note_on_c, 1, 74, 45
2, 16544, Note_on_c, 1, 74, 0
2, 16608, Note_on_c, 1, 74, 45
2, 16640, Note_on_c, 1, 74, 0
2, 16704, Note_on_c, 1, 74, 45
2, 16736, Note_on_c, 1, 74, 0
2, 16800, Note_on_c, 1, 74, 45
2, 16832, Note_on_c, 1, 74, 0
2, 16896, Note_on_c, 1, 74, 45
2, 17056, Note_on_c, 1, 74, 0
2, 17376, Note_on_c, 1, 74, 45
2, 17408, Note_on_c, 1, 74, 0
2, 17472, Note_on_c, 1, 74, 45
2, 17504, Note_on_c, 1, 74, 0
2, 17568, Note_on_c, 1, 74, 45
2, 17600, Note_on_c, 1, 74, 0
2, 17664, Note_on_c, 1, 81, 45
2, 17712, Note_on_c, 1, 81, 0
2, 17712, Note_on_c, 1, 79, 45
2, 17760, Note_on_c, 1, 79, 0
2, 17760, Note_on_c, 1, 78, 45
2, 17808, Note_on_c, 1, 78, 0
2, 17808, Note_on_c, 1, 79, 45
2, 17856, Note_on_c, 1, 79, 0
2, 17856, Note_on_c, 1, 81, 45
2, 17904, Note_on_c, 1, 81, 0
2, 17904, Note_on_c, 1, 79, 45
2, 17952, Note_on_c, 1, 79, 0
2, 17952, Note_on_c, 1, 78, 45
2, 18000, Note_on_c, 1, 78, 0
2, 18000, Note_on_c, 1, 76, 45
2, 18046, Note_on_c, 1, 76, 0
2, 18048, Note_on_c, 1, 74, 45
2, 18080, Note_on_c, 1, 74, 0
2, 18144, Note_on_c, 1, 74, 45
2, 18176, Note_on_c, 1, 74, 0
2, 18240, Note_on_c, 1, 74, 45
2, 18272, Note_on_c, 1, 74, 0
2, 18336, Note_on_c, 1, 74, 45
2, 18368, Note_on_c, 1, 74, 0
2, 18432, Note_on_c, 1, 74, 45
2, 18526, Note_on_c, 1, 74, 0
2, 18912, Note_on_c, 1, 79, 45
2, 18944, Note_on_c, 1, 79, 0
2, 19008, Note_on_c, 1, 79, 55
2, 19040, Note_on_c, 1, 79, 0
2, 19104, Note_on_c, 1, 79, 65
2, 19136, Note_on_c, 1, 79, 0
2, 19200, Note_on_c, 1, 84, 45
2, 19488, Note_on_c, 1, 84, 0
2, 19488, Note_on_c, 1, 86, 45
2, 19512, Note_on_c, 1, 86, 0
2, 19512, Note_on_c, 1, 84, 45
2, 19536, Note_on_c, 1, 84, 0
2, 19536, Note_on_c, 1, 83, 45
2, 19560, Note_on_c, 1, 83, 0
2, 19560, Note_on_c, 1, 81, 45
2, 19582, Note_on_c, 1, 81, 0
2, 19584, Note_on_c, 1, 79, 45
2, 19616, Note_on_c, 1, 79, 0
2, 19680, Note_on_c, 1, 79, 45
2, 19712, Note_on_c, 1, 79, 0
2, 19776, Note_on_c, 1, 79, 45
2, 19808, Note_on_c, 1, 79, 0
2, 19872, Note_on_c, 1, 79, 45
2, 19904, Note_on_c, 1, 79, 0
2, 19968, Note_on_c, 1, 79, 45
2, 20128, Note_on_c, 1, 79, 0
2, 20448, Note_on_c, 1, 79, 45
2, 20480, Note_on_c, 1, 79, 0
2, 20544, Note_on_c, 1, 79, 45
2, 20576, Note_on_c, 1, 79, 0
2, 20640, Note_on_c, 1, 79, 45
2, 20672, Note_on_c, 1, 79, 0
2, 20736, Note_on_c, 1, 86, 45
2, 20784, Note_on_c, 1, 86, 0
2, 20784, Note_on_c, 1, 84, 45
2, 20832, Note_on_c, 1, 84, 0
2, 20832, Note_on_c, 1, 83, 45
2, 20880, Note_on_c, 1, 83, 0
2, 20880, Note_on_c, 1, 84, 45
2, 20928, Note_on_c, 1, 84, 0
2, 20928, Note_on_c, 1, 86, 45
2, 20976, Note_on_c, 1, 86, 0
2, 20976, Note_on_c, 1, 84, 45
2, 21024, Note_on_c, 1, 84, 0
2, 21024, Note_on_c, 1, 83, 45
2, 21072, Note_on_c, 1, 83, 0
2, 21072, Note_on_c, 1, 81, 45
2, 21118, Note_on_c, 1, 81, 0
2, 21120, Note_on_c, 1, 79, 45
2, 21152, Note_on_c, 1, 79, 0
2, 21216, Note_on_c, 1, 79, 45
2, 21248, Note_on_c, 1, 79, 0
2, 21312, Note_on_c, 1, 79, 45
2, 21344, Note_on_c, 1, 79, 0
2, 21408, Note_on_c, 1, 79, 45
2, 21440, Note_on_c, 1, 79, 0
2, 21504, Note_on_c, 1, 79, 45
2, 21664, Note_on_c, 1, 79, 0
2, 21984, Note_on_c, 1, 79, 45
2, 22016, Note_on_c, 1, 79, 0
2, 22080, Note_on_c, 1, 79, 55
2, 22112, Note_on_c, 1, 79, 0
2, 22176, Note_on_c, 1, 79, 65
2, 22208, Note_on_c, 1, 79, 0
2, 22272, Note_on_c, 1, 81, 45
2, 22320, Note_on_c, 1, 81, 0
2, 22320, Note_on_c, 1, 79, 45
2, 22368, Note_on_c, 1, 79, 0
2, 22368, Note_on_c, 1, 78, 45
2, 22416, Note_on_c, 1, 78, 0
2, 22416, Note_on_c, 1, 79, 45
2, 22464, Note_on_c, 1, 79, 0
2, 22464, Note_on_c, 1, 81, 45
2, 22512, Note_on_c, 1, 81, 0
2, 22512, Note_on_c, 1, 79, 45
2, 22560, Note_on_c, 1, 79, 0
2, 22560, Note_on_c, 1, 77, 45
2, 22608, Note_on_c, 1, 77, 0
2, 22608, Note_on_c, 1, 74, 45
2, 22654, Note_on_c, 1, 74, 0
2, 22656, Note_on_c, 1, 77, 45
2, 22704, Note_on_c, 1, 77, 0
2, 22704, Note_on_c, 1, 76, 45
2, 22752, Note_on_c, 1, 76, 0
2, 22752, Note_on_c, 1, 75, 45
2, 22800, Note_on_c, 1, 75, 0
2, 22800, Note_on_c, 1, 76, 45
2, 22848, Note_on_c, 1, 76, 0
2, 22848, Note_on_c, 1, 77, 45
2, 22896, Note_on_c, 1, 77, 0
2, 22896, Note_on_c, 1, 76, 45
2, 22944, Note_on_c, 1, 76, 0
2, 22944, Note_on_c, 1, 74, 45
2, 22992, Note_on_c, 1, 74, 0
2, 22992, Note_on_c, 1, 71, 45
2, 23038, Note_on_c, 1, 71, 0
2, 23040, Note_on_c, 1, 74, 45
2, 23088, Note_on_c, 1, 74, 0
2, 23088, Note_on_c, 1, 72, 45
2, 23136, Note_on_c, 1, 72, 0
2, 23136, Note_on_c, 1, 71, 45
2, 23184, Note_on_c, 1, 71, 0
2, 23184, Note_on_c, 1, 72, 45
2, 23232, Note_on_c, 1, 72, 0
2, 23232, Note_on_c, 1, 74, 45
2, 23280, Note_on_c, 1, 74, 0
2, 23280, Note_on_c, 1, 72, 45
2, 23328, Note_on_c, 1, 72, 0
2, 23328, Note_on_c, 1, 70, 45
2, 23376, Note_on_c, 1, 70, 0
2, 23376, Note_on_c, 1, 67, 45
2, 23422, Note_on_c, 1, 67, 0
2, 23424, Note_on_c, 1, 68, 45
2, 23472, Note_on_c, 1, 68, 0
2, 23472, Note_on_c, 1, 69, 45
2, 23520, Note_on_c, 1, 69, 0
2, 23520, Note_on_c, 1, 70, 45
2, 23568, Note_on_c, 1, 70, 0
2, 23568, Note_on_c, 1, 71, 45
2, 23616, Note_on_c, 1, 71, 0
2, 23616, Note_on_c, 1, 72, 45
2, 23664, Note_on_c, 1, 72, 0
2, 23664, Note_on_c, 1, 73, 45
2, 23712, Note_on_c, 1, 73, 0
2, 23712, Note_on_c, 1, 74, 45
2, 23760, Note_on_c, 1, 74, 0
2, 23760, Note_on_c, 1, 75, 45
2, 23808, Note_on_c, 1, 75, 0
2, 23808, Note_on_c, 1, 76, 45
2, 23856, Note_on_c, 1, 76, 0
2, 23856, Note_on_c, 1, 77, 45
2, 23904, Note_on_c, 1, 77, 0
2, 23904, Note_on_c, 1, 78, 45
2, 23952, Note_on_c, 1, 78, 0
2, 23952, Note_on_c, 1, 79, 45
2, 24000, Note_on_c, 1, 79, 0
2, 24000, Note_on_c, 1, 80, 45
2, 24048, Note_on_c, 1, 80, 0
2, 24048, Note_on_c, 1, 81, 45
2, 24096, Note_on_c, 1, 81, 0
2, 24096, Note_on_c, 1, 77, 45
2, 24144, Note_on_c, 1, 77, 0
2, 24144, Note_on_c, 1, 74, 45
2, 24190, Note_on_c, 1, 74, 0
2, 24192, Note_on_c, 1, 74, 45
2, 24240, Note_on_c, 1, 74, 0
2, 24240, Note_on_c, 1, 72, 45
2, 24286, Note_on_c, 1, 72, 0
2, 24288, Note_on_c, 1, 72, 45
2, 24320, Note_on_c, 1, 72, 0
2, 24336, Note_on_c, 1, 72, 45
2, 24368, Note_on_c, 1, 72, 0
2, 24384, Note_on_c, 1, 72, 45
2, 24432, Note_on_c, 1, 72, 0
2, 24432, Note_on_c, 1, 71, 45
2, 24478, Note_on_c, 1, 71, 0
2, 24480, Note_on_c, 1, 71, 45
2, 24512, Note_on_c, 1, 71, 0
2, 24528, Note_on_c, 1, 71, 45
2, 24560, Note_on_c, 1, 71, 0
2, 24864, Note_on_c, 1, 79, 45
2, 25056, Note_on_c, 1, 79, 0
2, 25056, Note_on_c, 1, 84, 45
2, 25150, Note_on_c, 1, 84, 0
2, 25248, Note_on_c, 1, 76, 45
2, 25342, Note_on_c, 1, 76, 0
2, 25344, Note_on_c, 1, 86, 45
2, 25392, Note_on_c, 1, 86, 0
2, 25392, Note_on_c, 1, 84, 45
2, 25440, Note_on_c, 1, 84, 0
2, 25440, Note_on_c, 1, 83, 45
2, 25488, Note_on_c, 1, 83, 0
2, 25488, Note_on_c, 1, 84, 45
2, 25536, Note_on_c, 1, 84, 0
2, 25536, Note_on_c, 1, 86, 45
2, 25584, Note_on_c, 1, 86, 0
2, 25584, Note_on_c, 1, 84, 45
2, 25632, Note_on_c, 1, 84, 0
2, 25632, Note_on_c, 1, 82, 45
2, 25680, Note_on_c, 1, 82, 0
2, 25680, Note_on_c, 1, 79, 45
2, 25726, Note_on_c, 1, 79, 0
2, 25728, Note_on_c, 1, 82, 45
2, 25776, Note_on_c, 1, 82, 0
2, 25776, Note_on_c, 1, 81, 45
2, 25824, Note_on_c, 1, 81, 0
2, 25824, Note_on_c, 1, 80, 45
2, 25872, Note_on_c, 1, 80, 0
2, 25872, Note_on_c, 1, 81, 45
2, 25920, Note_on_c, 1, 81, 0
2, 25920, Note_on_c, 1, 82, 45
2, 25968, Note_on_c, 1, 82, 0
2, 25968, Note_on_c, 1, 81, 45
2, 26016, Note_on_c, 1, 81, 0
2, 26016, Note_on_c, 1, 79, 45
2, 26064, Note_on_c, 1, 79, 0
2, 26064, Note_on_c, 1, 76, 45
2, 26110, Note_on_c, 1, 76, 0
2, 26112, Note_on_c, 1, 79, 45
2, 26160, Note_on_c, 1, 79, 0
2, 26160, Note_on_c, 1, 77, 45
2, 26206, Note_on_c, 1, 77, 0
2, 26256, Note_on_c, 1, 79, 47
2, 26304, Note_on_c, 1, 79, 0
2, 26304, Note_on_c, 1, 77, 49
2, 26352, Note_on_c, 1, 77, 0
2, 26352, Note_on_c, 1, 76, 51
2, 26400, Note_on_c, 1, 76, 0
2, 26400, Note_on_c, 1, 74, 53
2, 26448, Note_on_c, 1, 74, 0
2, 26448, Note_on_c, 1, 72, 55
2, 26494, Note_on_c, 1, 72, 0
2, 26496, Note_on_c, 1, 71, 57
2, 26544, Note_on_c, 1, 71, 0
2, 26544, Note_on_c, 1, 72, 59
2, 26592, Note_on_c, 1, 72, 0
2, 26592, Note_on_c, 1, 74, 61
2, 26640, Note_on_c, 1, 74, 0
2, 26640, Note_on_c, 1, 76, 63
2, 26688, Note_on_c, 1, 76, 0
2, 26688, Note_on_c, 1, 77, 65
2, 26736, Note_on_c, 1, 77, 0
2, 26736, Note_on_c, 1, 79, 67
2, 26784, Note_on_c, 1, 79, 0
2, 26784, Note_on_c, 1, 81, 69
2, 26832, Note_on_c, 1, 81, 0
2, 26832, Note_on_c, 1, 83, 72
2, 26878, Note_on_c, 1, 83, 0
2, 26880, Note_on_c, 1, 84, 45
2, 26912, Note_on_c, 1, 84, 0
2, 26928, Note_on_c, 1, 79, 45
2, 26976, Note_on_c, 1, 79, 0
2, 26976, Note_on_c, 1, 88, 63
2, 27024, Note_on_c, 1, 88, 0
2, 27024, Note_on_c, 1, 84, 45
2, 27070, Note_on_c, 1, 84, 0
2, 27072, Note_on_c, 1, 84, 45
2, 27120, Note_on_c, 1, 84, 0
2, 27120, Note_on_c, 1, 83, 45
2, 27168, Note_on_c, 1, 83, 0
2, 27168, Note_on_c, 1, 81, 45
2, 27216, Note_on_c, 1, 81, 0
2, 27216, Note_on_c, 1, 83, 45
2, 27262, Note_on_c, 1, 83, 0
2, 27264, Note_on_c, 1, 84, 45
2, 27296, Note_on_c, 1, 84, 0
2, 27312, Note_on_c, 1, 79, 45
2, 27360, Note_on_c, 1, 79, 0
2, 27360, Note_on_c, 1, 88, 63
2, 27408, Note_on_c, 1, 88, 0
2, 27408, Note_on_c, 1, 84, 45
2, 27454, Note_on_c, 1, 84, 0
2, 27456, Note_on_c, 1, 84, 45
2, 27504, Note_on_c, 1, 84, 0
2, 27504, Note_on_c, 1, 83, 45
2, 27552, Note_on_c, 1, 83, 0
2, 27552, Note_on_c, 1, 81, 45
2, 27600, Note_on_c, 1, 81, 0
2, 27600, Note_on_c, 1, 83, 45
2, 27646, Note_on_c, 1, 83, 0
2, 27648, Note_on_c, 1, 84, 45
2, 27696, Note_on_c, 1, 84, 0
2, 27696, Note_on_c, 1, 88, 45
2, 27744, Note_on_c, 1, 88, 0
2, 27744, Note_on_c, 1, 79, 45
2, 27792, Note_on_c, 1, 79, 0
2, 27792, Note_on_c, 1, 84, 45
2, 27838, Note_on_c, 1, 84, 0
2, 27840, Note_on_c, 1, 81, 45
2, 27888, Note_on_c, 1, 81, 0
2, 27888, Note_on_c, 1, 84, 45
2, 27936, Note_on_c, 1, 84, 0
2, 27936, Note_on_c, 1, 77, 45
2, 27984, Note_on_c, 1, 77, 0
2, 27984, Note_on_c, 1, 81, 45
2, 28030, Note_on_c, 1, 81, 0
2, 28032, Note_on_c, 1, 76, 45
2, 28080, Note_on_c, 1, 76, 0
2, 28080, Note_on_c, 1, 79, 45
2, 28128, Note_on_c, 1, 79, 0
2, 28128, Note_on_c, 1, 72, 45
2, 28176, Note_on_c, 1, 72, 0
2, 28176, Note_on_c, 1, 76, 45
2, 28222, Note_on_c, 1, 76, 0
2, 28224, Note_on_c, 1, 74, 45
2, 28272, Note_on_c, 1, 74, 0
2, 28272, Note_on_c, 1, 77, 45
2, 28320, Note_on_c, 1, 77, 0
2, 28320, Note_on_c, 1, 71, 45
2, 28368, Note_on_c, 1, 71, 0
2, 28368, Note_on_c, 1, 74, 45
2, 28414, Note_on_c, 1, 74, 0
2, 28416, Note_on_c, 1, 72, 45
2, 28510, Note_on_c, 1, 72, 0
2, 28512, Note_on_c, 1, 79, 63
2, 28894, Note_on_c, 1, 79, 0
2, 28896, Note_on_c, 1, 79, 45
2, 29232, Note_on_c, 1, 79, 0
2, 29232, Note_on_c, 1, 84, 54
2, 29280, Note_on_c, 1, 84, 0
2, 29280, Note_on_c, 1, 75, 55
2, 29328, Note_on_c, 1, 75, 0
2, 29328, Note_on_c, 1, 79, 56
2, 29374, Note_on_c, 1, 79, 0
2, 29376, Note_on_c, 1, 77, 57
2, 29424, Note_on_c, 1, 77, 0
2, 29424, Note_on_c, 1, 80, 58
2, 29472, Note_on_c, 1, 80, 0
2, 29472, Note_on_c, 1, 74, 59
2, 29520, Note_on_c, 1, 74, 0
2, 29520, Note_on_c, 1, 77, 60
2, 29566, Note_on_c, 1, 77, 0
2, 29568, Note_on_c, 1, 75, 61
2, 29616, Note_on_c, 1, 75, 0
2, 29616, Note_on_c, 1, 79, 62
2, 29664, Note_on_c, 1, 79, 0
2, 29664, Note_on_c, 1, 72, 63
2, 29712, Note_on_c, 1, 72, 0
2, 29712, Note_on_c, 1, 75, 65
2, 29758, Note_on_c, 1, 75, 0
2, 29760, Note_on_c, 1, 74, 67
2, 29808, Note_on_c, 1, 74, 0
2, 29808, Note_on_c, 1, 77, 69
2, 29856, Note_on_c, 1, 77, 0
2, 29856, Note_on_c, 1, 71, 71
2, 29904, Note_on_c, 1, 71, 0
2, 29904, Note_on_c, 1, 74, 73
2, 29950, Note_on_c, 1, 74, 0
2, 29952, Note_on_c, 1, 72, 45
2, 30240, Note_on_c, 1, 72, 0
2, 30240, Note_on_c, 1, 75, 45
2, 30334, Note_on_c, 1, 75, 0
2, 30336, Note_on_c, 1, 77, 45
2, 30624, Note_on_c, 1, 77, 0
2, 30624, Note_on_c, 1, 74, 45
2, 30718, Note_on_c, 1, 74, 0
2, 30720, Note_on_c, 1, 75, 45
2, 31008, Note_on_c, 1, 75, 0
2, 31008, Note_on_c, 1, 72, 45
2, 31102, Note_on_c, 1, 72, 0
2, 31104, Note_on_c, 1, 74, 45
2, 31248, Note_on_c, 1, 74, 0
2, 31248, Note_on_c, 1, 71, 45
2, 31294, Note_on_c, 1, 71, 0
2, 31296, Note_on_c, 1, 72, 45
2, 31320, Note_on_c, 1, 72, 0
2, 31320, Note_on_c, 1, 71, 45
2, 31344, Note_on_c, 1, 71, 0
2, 31344, Note_on_c, 1, 72, 45
2, 31368, Note_on_c, 1, 72, 0
2, 31368, Note_on_c, 1, 71, 45
2, 31392, Note_on_c, 1, 71, 0
2, 31392, Note_on_c, 1, 72, 45
2, 31416, Note_on_c, 1, 72, 0
2, 31416, Note_on_c, 1, 71, 45
2, 31440, Note_on_c, 1, 71, 0
2, 31440, Note_on_c, 1, 69, 45
2, 31464, Note_on_c, 1, 69, 0
2, 31464, Note_on_c, 1, 71, 45
2, 31486, Note_on_c, 1, 71, 0
2, 31488, Note_on_c, 1, 79, 45
2, 31520, Note_on_c, 1, 79, 0
2, 31520, Note_on_c, 1, 78, 45
2, 31552, Note_on_c, 1, 78, 0
2, 31552, Note_on_c, 1, 79, 45
2, 31584, Note_on_c, 1, 79, 0
2, 31584, Note_on_c, 1, 81, 45
2, 31616, Note_on_c, 1, 81, 0
2, 31616, Note_on_c, 1, 79, 45
2, 31648, Note_on_c, 1, 79, 0
2, 31648, Note_on_c, 1, 78, 45
2, 31678, Note_on_c, 1, 78, 0
2, 31680, Note_on_c, 1, 79, 45
2, 31904, Note_on_c, 1, 79, 0
2, 31904, Note_on_c, 1, 78, 48
2, 31936, Note_on_c, 1, 78, 0
2, 31936, Note_on_c, 1, 79, 48
2, 31968, Note_on_c, 1, 79, 0
2, 31968, Note_on_c, 1, 81, 48
2, 32000, Note_on_c, 1, 81, 0
2, 32000, Note_on_c, 1, 79, 48
2, 32032, Note_on_c, 1, 79, 0
2, 32032, Note_on_c, 1, 78, 48
2, 32062, Note_on_c, 1, 78, 0
2, 32064, Note_on_c, 1, 79, 48
2, 32288, Note_on_c, 1, 79, 0
2, 32288, Note_on_c, 1, 78, 52
2, 32320, Note_on_c, 1, 78, 0
2, 32320, Note_on_c, 1, 79, 52
2, 32352, Note_on_c, 1, 79, 0
2, 32352, Note_on_c, 1, 81, 52
2, 32384, Note_on_c, 1, 81, 0
2, 32384, Note_on_c, 1, 79, 52
2, 32416, Note_on_c, 1, 79, 0
2, 32416, Note_on_c, 1, 78, 52
2, 32446, Note_on_c, 1, 78, 0
2, 32448, Note_on_c, 1, 79, 52
2, 32480, Note_on_c, 1, 79, 0
2, 32544, Note_on_c, 1, 79, 54
2, 32576, Note_on_c, 1, 79, 0
2, 32640, Note_on_c, 1, 79, 56
2, 32672, Note_on_c, 1, 79, 0
2, 32736, Note_on_c, 1, 79, 58
2, 32768, Note_on_c, 1, 79, 0
2, 32832, Note_on_c, 1, 79, 60
2, 32864, Note_on_c, 1, 79, 0
2, 32928, Note_on_c, 1, 79, 62
2, 32960, Note_on_c, 1, 79, 0
2, 33312, Note_on_c, 1, 77, 70
2, 33344, Note_on_c, 1, 77, 0
2, 33344, Note_on_c, 1, 79, 70
2, 33376, Note_on_c, 1, 79, 0
2, 33376, Note_on_c, 1, 77, 70
2, 33406, Note_on_c, 1, 77, 0
2, 33408, Note_on_c, 1, 76, 70
2, 33502, Note_on_c, 1, 76, 0
2, 33696, Note_on_c, 1, 76, 77
2, 33728, Note_on_c, 1, 76, 0
2, 33728, Note_on_c, 1, 74, 78
2, 33760, Note_on_c, 1, 74, 0
2, 33760, Note_on_c, 1, 76, 79
2, 33790, Note_on_c, 1, 76, 0
2, 33792, Note_on_c, 1, 77, 80
2, 33886, Note_on_c, 1, 77, 0
2, 34080, Note_on_c, 1, 81, 89
2, 34112, Note_on_c, 1, 81, 0
2, 34112, Note_on_c, 1, 79, 90
2, 34144, Note_on_c, 1, 79, 0
2, 34144, Note_on_c, 1, 81, 91
2, 34174, Note_on_c, 1, 81, 0
2, 34176, Note_on_c, 1, 82, 92
2, 34464, Note_on_c, 1, 82, 0
2, 34464, Note_on_c, 1, 76, 92
2, 34558, Note_on_c, 1, 76, 0
2, 34560, Note_on_c, 1, 77, 45
2, 34592, Note_on_c, 1, 77, 0
2, 34592, Note_on_c, 1, 76, 45
2, 34624, Note_on_c, 1, 76, 0
2, 34624, Note_on_c, 1, 77, 45
2, 34656, Note_on_c, 1, 77, 0
2, 34656, Note_on_c, 1, 79, 45
2, 34688, Note_on_c, 1, 79, 0
2, 34688, Note_on_c, 1, 77, 45
2, 34720, Note_on_c, 1, 77, 0
2, 34720, Note_on_c, 1, 76, 45
2, 34752, Note_on_c, 1, 76, 0
2, 34752, Note_on_c, 1, 74, 45
2, 34784, Note_on_c, 1, 74, 0
2, 34784, Note_on_c, 1, 72, 45
2, 34816, Note_on_c, 1, 72, 0
2, 34816, Note_on_c, 1, 70, 45
2, 34848, Note_on_c, 1, 70, 0
2, 34848, Note_on_c, 1, 69, 45
2, 34880, Note_on_c, 1, 69, 0
2, 34880, Note_on_c, 1, 67, 45
2, 34912, Note_on_c, 1, 67, 0
2, 34912, Note_on_c, 1, 65, 45
2, 34942, Note_on_c, 1, 65, 0
2, 34944, Note_on_c, 1, 64, 45
2, 34976, Note_on_c, 1, 64, 0
2, 35040, Note_on_c, 1, 64, 45
2, 35072, Note_on_c, 1, 64, 0
2, 35136, Note_on_c, 1, 67, 45
2, 35168, Note_on_c, 1, 67, 0
2, 35328, Note_on_c, 1, 79, 45
2, 35360, Note_on_c, 1, 79, 0
2, 35360, Note_on_c, 1, 78, 45
2, 35392, Note_on_c, 1, 78, 0
2, 35392, Note_on_c, 1, 79, 45
2, 35424, Note_on_c, 1, 79, 0
2, 35424, Note_on_c, 1, 81, 45
2, 35456, Note_on_c, 1, 81, 0
2, 35456, Note_on_c, 1, 79, 45
2, 35488, Note_on_c, 1, 79, 0
2, 35488, Note_on_c, 1, 77, 45
2, 35520, Note_on_c, 1, 77, 0
2, 35520, Note_on_c, 1, 76, 45
2, 35552, Note_on_c, 1, 76, 0
2, 35552, Note_on_c, 1, 74, 45
2, 35584, Note_on_c, 1, 74, 0
2, 35584, Note_on_c, 1, 72, 45
2, 35616, Note_on_c, 1, 72, 0
2, 35616, Note_on_c, 1, 70, 45
2, 35648, Note_on_c, 1, 70, 0
2, 35648, Note_on_c, 1, 69, 45
2, 35680, Note_on_c, 1, 69, 0
2, 35680, Note_on_c, 1, 67, 45
2, 35710, Note_on_c, 1, 67, 0
2, 35712, Note_on_c, 1, 65, 45
2, 35744, Note_on_c, 1, 65, 0
2, 35808, Note_on_c, 1, 65, 45
2, 35840, Note_on_c, 1, 65, 0
2, 35904, Note_on_c, 1, 69, 45
2, 35936, Note_on_c, 1, 69, 0
2, 36096, Note_on_c, 1, 72, 45
2, 36128, Note_on_c, 1, 72, 0
2, 36128, Note_on_c, 1, 71, 45
2, 36160, Note_on_c, 1, 71, 0
2, 36160, Note_on_c, 1, 72, 45
2, 36192, Note_on_c, 1, 72, 0
2, 36192, Note_on_c, 1, 74, 45
2, 36224, Note_on_c, 1, 74, 0
2, 36224, Note_on_c, 1, 72, 45
2, 36256, Note_on_c, 1, 72, 0
2, 36256, Note_on_c, 1, 70, 45
2, 36286, Note_on_c, 1, 70, 0
2, 36288, Note_on_c, 1, 69, 45
2, 36384, Note_on_c, 1, 69, 0
2, 36384, Note_on_c, 1, 77, 45
2, 36430, Note_on_c, 1, 77, 0
2, 36480, Note_on_c, 1, 72, 45
2, 36512, Note_on_c, 1, 72, 0
2, 36512, Note_on_c, 1, 71, 45
2, 36544, Note_on_c, 1, 71, 0
2, 36544, Note_on_c, 1, 72, 45
2, 36576, Note_on_c, 1, 72, 0
2, 36576, Note_on_c, 1, 74, 45
2, 36608, Note_on_c, 1, 74, 0
2, 36608, Note_on_c, 1, 72, 45
2, 36640, Note_on_c, 1, 72, 0
2, 36640, Note_on_c, 1, 70, 45
2, 36670, Note_on_c, 1, 70, 0
2, 36672, Note_on_c, 1, 69, 45
2, 36768, Note_on_c, 1, 69, 0
2, 36768, Note_on_c, 1, 81, 45
2, 36814, Note_on_c, 1, 81, 0
2, 36864, Note_on_c, 1, 72, 45
2, 36896, Note_on_c, 1, 72, 0
2, 36896, Note_on_c, 1, 71, 45
2, 36928, Note_on_c, 1, 71, 0
2, 36928, Note_on_c, 1, 72, 45
2, 36960, Note_on_c, 1, 72, 0
2, 36960, Note_on_c, 1, 74, 45
2, 36992, Note_on_c, 1, 74, 0
2, 36992, Note_on_c, 1, 72, 45
2, 37024, Note_on_c, 1, 72, 0
2, 37024, Note_on_c, 1, 70, 45
2, 37054, Note_on_c, 1, 70, 0
2, 37056, Note_on_c, 1, 69, 45
2, 37152, Note_on_c, 1, 69, 0
2, 37152, Note_on_c, 1, 84, 45
2, 37198, Note_on_c, 1, 84, 0
2, 37248, Note_on_c, 1, 72, 45
2, 37344, Note_on_c, 1, 72, 0
2, 37344, Note_on_c, 1, 76, 45
2, 37392, Note_on_c, 1, 76, 0
2, 37392, Note_on_c, 1, 74, 45
2, 37440, Note_on_c, 1, 74, 0
2, 37440, Note_on_c, 1, 72, 45
2, 37534, Note_on_c, 1, 72, 0
2, 38208, Note_on_c, 1, 82, 45
2, 38240, Note_on_c, 1, 82, 0
2, 38304, Note_on_c, 1, 82, 45
2, 38336, Note_on_c, 1, 82, 0
2, 38400, Note_on_c, 1, 76, 45
2, 38432, Note_on_c, 1, 76, 0
2, 38976, Note_on_c, 1, 87, 45
2, 39008, Note_on_c, 1, 87, 0
2, 39072, Note_on_c, 1, 87, 45
2, 39104, Note_on_c, 1, 87, 0
2, 39168, Note_on_c, 1, 78, 45
2, 39262, Note_on_c, 1, 78, 0
2, 39360, Note_on_c, 1, 87, 50
2, 39454, Note_on_c, 1, 87, 0
2, 39456, Note_on_c, 1, 87, 53
2, 39550, Note_on_c, 1, 87, 0
2, 39552, Note_on_c, 1, 86, 56
2, 39646, Note_on_c, 1, 86, 0
2, 39744, Note_on_c, 1, 84, 62
2, 39838, Note_on_c, 1, 84, 0
2, 39840, Note_on_c, 1, 84, 65
2, 39934, Note_on_c, 1, 84, 0
2, 39936, Note_on_c, 1, 82, 68
2, 40030, Note_on_c, 1, 82, 0
2, 40128, Note_on_c, 1, 82, 74
2, 40222, Note_on_c, 1, 82, 0
2, 40224, Note_on_c, 1, 82, 77
2, 40318, Note_on_c, 1, 82, 0
2, 40320, Note_on_c, 1, 81, 80
2, 40414, Note_on_c, 1, 81, 0
2, 40512, Note_on_c, 1, 79, 86
2, 40606, Note_on_c, 1, 79, 0
2, 40608, Note_on_c, 1, 79, 89
2, 40702, Note_on_c, 1, 79, 0
2, 40704, Note_on_c, 1, 77, 92
2, 40798, Note_on_c, 1, 77, 0
2, 40896, Note_on_c, 1, 74, 92
2, 40990, Note_on_c, 1, 74, 0
2, 40992, Note_on_c, 1, 74, 92
2, 41086, Note_on_c, 1, 74, 0
2, 41088, Note_on_c, 1, 77, 92
2, 41182, Note_on_c, 1, 77, 0
2, 41280, Note_on_c, 1, 68, 92
2, 41374, Note_on_c, 1, 68, 0
2, 41376, Note_on_c, 1, 68, 92
2, 41470, Note_on_c, 1, 68, 0
2, 41472, Note_on_c, 1, 69, 92
2, 41566, Note_on_c, 1, 69, 0
2, 41664, Note_on_c, 1, 82, 127
2, 41696, Note_on_c, 1, 82, 0
2, 41696, Note_on_c, 1, 81, 92
2, 41728, Note_on_c, 1, 81, 0
2, 41728, Note_on_c, 1, 82, 92
2, 41760, Note_on_c, 1, 82, 0
2, 41760, Note_on_c, 1, 84, 92
2, 41792, Note_on_c, 1, 84, 0
2, 41792, Note_on_c, 1, 82, 92
2, 41824, Note_on_c, 1, 82, 0
2, 41824, Note_on_c, 1, 81, 92
2, 41856, Note_on_c, 1, 81, 0
2, 41856, Note_on_c, 1, 79, 92
2, 41888, Note_on_c, 1, 79, 0
2, 41888, Note_on_c, 1, 78, 92
2, 41920, Note_on_c, 1, 78, 0
2, 41920, Note_on_c, 1, 79, 92
2, 41952, Note_on_c, 1, 79, 0
2, 41952, Note_on_c, 1, 81, 92
2, 41984, Note_on_c, 1, 81, 0
2, 41984, Note_on_c, 1, 79, 92
2, 42016, Note_on_c, 1, 79, 0
2, 42016, Note_on_c, 1, 77, 92
2, 42046, Note_on_c, 1, 77, 0
2, 42048, Note_on_c, 1, 76, 92
2, 42080, Note_on_c, 1, 76, 0
2, 42144, Note_on_c, 1, 74, 92
2, 42176, Note_on_c, 1, 74, 0
2, 42240, Note_on_c, 1, 73, 92
2, 42334, Note_on_c, 1, 73, 0
2, 42432, Note_on_c, 1, 82, 127
2, 42464, Note_on_c, 1, 82, 0
2, 42464, Note_on_c, 1, 81, 92
2, 42496, Note_on_c, 1, 81, 0
2, 42496, Note_on_c, 1, 82, 92
2, 42528, Note_on_c, 1, 82, 0
2, 42528, Note_on_c, 1, 84, 92
2, 42560, Note_on_c, 1, 84, 0
2, 42560, Note_on_c, 1, 82, 92
2, 42592, Note_on_c, 1, 82, 0
2, 42592, Note_on_c, 1, 81, 92
2, 42624, Note_on_c, 1, 81, 0
2, 42624, Note_on_c, 1, 79, 92
2, 42656, Note_on_c, 1, 79, 0
2, 42656, Note_on_c, 1, 78, 92
2, 42688, Note_on_c, 1, 78, 0
2, 42688, Note_on_c, 1, 79, 92
2, 42720, Note_on_c, 1, 79, 0
2, 42720, Note_on_c, 1, 81, 92
2, 42752, Note_on_c, 1, 81, 0
2, 42752, Note_on_c, 1, 79, 92
2, 42784, Note_on_c, 1, 79, 0
2, 42784, Note_on_c, 1, 77, 92
2, 42814, Note_on_c, 1, 77, 0
2, 42816, Note_on_c, 1, 76, 92
2, 42848, Note_on_c, 1, 76, 0
2, 42912, Note_on_c, 1, 74, 92
2, 42944, Note_on_c, 1, 74, 0
2, 43008, Note_on_c, 1, 73, 92
2, 43102, Note_on_c, 1, 73, 0
2, 43200, Note_on_c, 1, 82, 92
2, 43232, Note_on_c, 1, 82, 0
2, 43232, Note_on_c, 1, 81, 92
2, 43264, Note_on_c, 1, 81, 0
2, 43264, Note_on_c, 1, 82, 92
2, 43296, Note_on_c, 1, 82, 0
2, 43296, Note_on_c, 1, 84, 92
2, 43328, Note_on_c, 1, 84, 0
2, 43328, Note_on_c, 1, 82, 92
2, 43360, Note_on_c, 1, 82, 0
2, 43360, Note_on_c, 1, 81, 92
2, 43392, Note_on_c, 1, 81, 0
2, 43392, Note_on_c, 1, 79, 92
2, 43424, Note_on_c, 1, 79, 0
2, 43424, Note_on_c, 1, 78, 92
2, 43456, Note_on_c, 1, 78, 0
2, 43456, Note_on_c, 1, 79, 92
2, 43488, Note_on_c, 1, 79, 0
2, 43488, Note_on_c, 1, 81, 92
2, 43520, Note_on_c, 1, 81, 0
2, 43520, Note_on_c, 1, 79, 92
2, 43552, Note_on_c, 1, 79, 0
2, 43552, Note_on_c, 1, 77, 92
2, 43584, Note_on_c, 1, 77, 0
2, 43584, Note_on_c, 1, 76, 92
2, 43616, Note_on_c, 1, 76, 0
2, 43616, Note_on_c, 1, 75, 92
2, 43648, Note_on_c, 1, 75, 0
2, 43648, Note_on_c, 1, 76, 92
2, 43680, Note_on_c, 1, 76, 0
2, 43680, Note_on_c, 1, 77, 93
2, 43712, Note_on_c, 1, 77, 0
2, 43712, Note_on_c, 1, 76, 94
2, 43744, Note_on_c, 1, 76, 0
2, 43744, Note_on_c, 1, 74, 95
2, 43774, Note_on_c, 1, 74, 0
2, 43776, Note_on_c, 1, 73, 96
2, 43808, Note_on_c, 1, 73, 0
2, 43808, Note_on_c, 1, 72, 97
2, 43840, Note_on_c, 1, 72, 0
2, 43840, Note_on_c, 1, 73, 98
2, 43872, Note_on_c, 1, 73, 0
2, 43872, Note_on_c, 1, 74, 99
2, 43904, Note_on_c, 1, 74, 0
2, 43904, Note_on_c, 1, 73, 100
2, 43936, Note_on_c, 1, 73, 0
2, 43936, Note_on_c, 1, 71, 101
2, 43966, Note_on_c, 1, 71, 0
2, 43968, Note_on_c, 1, 69, 102
2, 44000, Note_on_c, 1, 69, 0
2, 44064, Note_on_c, 1, 69, 105
2, 44096, Note_on_c, 1, 69, 0
2, 44160, Note_on_c, 1, 69, 92
2, 44192, Note_on_c, 1, 69, 0
2, 44256, Note_on_c, 1, 69, 92
2, 44288, Note_on_c, 1, 69, 0
2, 44352, Note_on_c, 1, 69, 92
2, 44384, Note_on_c, 1, 69, 0
2, 44448, Note_on_c, 1, 71, 92
2, 44496, Note_on_c, 1, 71, 0
2, 44496, Note_on_c, 1, 73, 92
2, 44542, Note_on_c, 1, 73, 0
2, 44544, Note_on_c, 1, 74, 127
2, 45022, Note_on_c, 1, 74, 0
2, 45024, Note_on_c, 1, 76, 92
2, 45048, Note_on_c, 1, 76, 0
2, 45048, Note_on_c, 1, 77, 92
2, 45072, Note_on_c, 1, 77, 0
2, 45072, Note_on_c, 1, 79, 92
2, 45096, Note_on_c, 1, 79, 0
2, 45096, Note_on_c, 1, 81, 92
2, 45118, Note_on_c, 1, 81, 0
2, 45120, Note_on_c, 1, 82, 92
2, 45152, Note_on_c, 1, 82, 0
2, 45216, Note_on_c, 1, 82, 92
2, 45248, Note_on_c, 1, 82, 0
2, 45312, Note_on_c, 1, 82, 92
2, 45504, Note_on_c, 1, 82, 0
2, 45504, Note_on_c, 1, 81, 45
2, 45598, Note_on_c, 1, 81, 0
2, 45600, Note_on_c, 1, 79, 45
2, 45632, Note_on_c, 1, 79, 0
2, 45696, Note_on_c, 1, 77, 45
2, 45728, Note_on_c, 1, 77, 0
2, 45792, Note_on_c, 1, 76, 45
2, 45824, Note_on_c, 1, 76, 0
2, 45888, Note_on_c, 1, 74, 45
2, 45920, Note_on_c, 1, 74, 0
2, 45984, Note_on_c, 1, 72, 45
2, 46016, Note_on_c, 1, 72, 0
2, 46080, Note_on_c, 1, 70, 45
2, 46174, Note_on_c, 1, 70, 0
2, 47232, Note_on_c, 1, 79, 63
2, 47648, Note_on_c, 1, 79, 0
2, 47648, Note_on_c, 1, 78, 45
2, 47680, Note_on_c, 1, 78, 0
2, 47680, Note_on_c, 1, 79, 45
2, 47712, Note_on_c, 1, 79, 0
2, 47712, Note_on_c, 1, 80, 45
2, 47744, Note_on_c, 1, 80, 0
2, 47744, Note_on_c, 1, 79, 45
2, 47776, Note_on_c, 1, 79, 0
2, 47776, Note_on_c, 1, 77, 45
2, 47808, Note_on_c, 1, 77, 0
2, 47808, Note_on_c, 1, 75, 45
2, 47840, Note_on_c, 1, 75, 0
2, 47840, Note_on_c, 1, 74, 45
2, 47872, Note_on_c, 1, 74, 0
2, 47872, Note_on_c, 1, 75, 45
2, 47904, Note_on_c, 1, 75, 0
2, 47904, Note_on_c, 1, 77, 45
2, 47936, Note_on_c, 1, 77, 0
2, 47936, Note_on_c, 1, 75, 45
2, 47968, Note_on_c, 1, 75, 0
2, 47968, Note_on_c, 1, 74, 45
2, 47998, Note_on_c, 1, 74, 0
2, 48000, Note_on_c, 1, 72, 45
2, 48032, Note_on_c, 1, 72, 0
2, 48096, Note_on_c, 1, 72, 45
2, 48128, Note_on_c, 1, 72, 0
2, 48192, Note_on_c, 1, 72, 45
2, 48224, Note_on_c, 1, 72, 0
2, 48288, Note_on_c, 1, 72, 45
2, 48320, Note_on_c, 1, 72, 0
2, 48384, Note_on_c, 1, 71, 45
2, 48416, Note_on_c, 1, 71, 0
2, 48480, Note_on_c, 1, 67, 45
2, 48512, Note_on_c, 1, 67, 0
2, 48576, Note_on_c, 1, 69, 45
2, 48608, Note_on_c, 1, 69, 0
2, 48672, Note_on_c, 1, 71, 45
2, 48704, Note_on_c, 1, 71, 0
2, 48768, Note_on_c, 1, 72, 45
2, 48800, Note_on_c, 1, 72, 0
2, 48864, Note_on_c, 1, 74, 45
2, 48896, Note_on_c, 1, 74, 0
2, 48960, Note_on_c, 1, 75, 45
2, 48992, Note_on_c, 1, 75, 0
2, 49056, Note_on_c, 1, 76, 45
2, 49088, Note_on_c, 1, 76, 0
2, 49152, Note_on_c, 1, 77, 63
2, 49630, Note_on_c, 1, 77, 0
2, 49632, Note_on_c, 1, 79, 45
2, 49656, Note_on_c, 1, 79, 0
2, 49656, Note_on_c, 1, 80, 45
2, 49680, Note_on_c, 1, 80, 0
2, 49680, Note_on_c, 1, 82, 45
2, 49704, Note_on_c, 1, 82, 0
2, 49704, Note_on_c, 1, 84, 45
2, 49726, Note_on_c, 1, 84, 0
2, 49728, Note_on_c, 1, 85, 45
2, 49760, Note_on_c, 1, 85, 0
2, 49824, Note_on_c, 1, 85, 45
2, 49856, Note_on_c, 1, 85, 0
2, 49920, Note_on_c, 1, 85, 45
2, 50112, Note_on_c, 1, 85, 0
2, 50112, Note_on_c, 1, 84, 60
2, 50206, Note_on_c, 1, 84, 0
2, 50208, Note_on_c, 1, 85, 68
2, 50240, Note_on_c, 1, 85, 0
2, 50304, Note_on_c, 1, 87, 76
2, 50336, Note_on_c, 1, 87, 0
2, 50400, Note_on_c, 1, 89, 84
2, 50432, Note_on_c, 1, 89, 0
2, 50496, Note_on_c, 1, 90, 92
2, 50528, Note_on_c, 1, 90, 0
2, 50592, Note_on_c, 1, 87, 100
2, 50624, Note_on_c, 1, 87, 0
2, 50688, Note_on_c, 1, 92, 108
2, 50782, Note_on_c, 1, 92, 0
2, 52128, Note_on_c, 1, 77, 30
2, 52224, Note_on_c, 1, 77, 0
2, 52224, Note_on_c, 1, 78, 30
2, 52512, Note_on_c, 1, 78, 0
2, 52512, Note_on_c, 1, 75, 30
2, 52608, Note_on_c, 1, 75, 0
2, 52608, Note_on_c, 1, 72, 30
2, 52896, Note_on_c, 1, 72, 0
2, 52896, Note_on_c, 1, 75, 30
2, 52992, Note_on_c, 1, 75, 0
2, 52992, Note_on_c, 1, 73, 30
2, 53280, Note_on_c, 1, 73, 0
2, 53280, Note_on_c, 1, 77, 30
2, 53376, Note_on_c, 1, 77, 0
2, 53376, Note_on_c, 1, 80, 30
2, 53664, Note_on_c, 1, 80, 0
2, 53664, Note_on_c, 1, 77, 30
2, 53760, Note_on_c, 1, 77, 0
2, 53760, Note_on_c, 1, 78, 30
2, 54048, Note_on_c, 1, 78, 0
2, 54048, Note_on_c, 1, 75, 30
2, 54144, Note_on_c, 1, 75, 0
2, 54144, Note_on_c, 1, 72, 30
2, 54432, Note_on_c, 1, 72, 0
2, 54432, Note_on_c, 1, 75, 30
2, 54528, Note_on_c, 1, 75, 0
2, 54528, Note_on_c, 1, 73, 30
2, 54622, Note_on_c, 1, 73, 0
2, 54624, Note_on_c, 1, 73, 42
2, 54718, Note_on_c, 1, 73, 0
2, 54720, Note_on_c, 1, 73, 30
2, 54814, Note_on_c, 1, 73, 0
2, 54816, Note_on_c, 1, 73, 30
2, 54910, Note_on_c, 1, 73, 0
2, 54912, Note_on_c, 1, 73, 30
2, 55006, Note_on_c, 1, 73, 0
2, 55008, Note_on_c, 1, 73, 42
2, 55102, Note_on_c, 1, 73, 0
2, 55104, Note_on_c, 1, 73, 30
2, 55198, Note_on_c, 1, 73, 0
2, 55200, Note_on_c, 1, 73, 30
2, 55294, Note_on_c, 1, 73, 0
2, 55296, Note_on_c, 1, 73, 30
2, 55390, Note_on_c, 1, 73, 0
2, 55392, Note_on_c, 1, 73, 42
2, 55486, Note_on_c, 1, 73, 0
2, 55488, Note_on_c, 1, 73, 30
2, 55582, Note_on_c, 1, 73, 0
2, 55584, Note_on_c, 1, 73, 30
2, 55678, Note_on_c, 1, 73, 0
2, 55680, Note_on_c, 1, 73, 30
2, 55774, Note_on_c, 1, 73, 0
2, 55776, Note_on_c, 1, 75, 42
2, 55870, Note_on_c, 1, 75, 0
2, 55872, Note_on_c, 1, 75, 30
2, 55966, Note_on_c, 1, 75, 0
2, 55968, Note_on_c, 1, 75, 30
2, 56062, Note_on_c, 1, 75, 0
2, 56064, Note_on_c, 1, 75, 30
2, 56158, Note_on_c, 1, 75, 0
2, 56160, Note_on_c, 1, 75, 42
2, 56254, Note_on_c, 1, 75, 0
2, 56256, Note_on_c, 1, 75, 30
2, 56350, Note_on_c, 1, 75, 0
2, 56352, Note_on_c, 1, 75, 30
2, 56446, Note_on_c, 1, 75, 0
2, 56448, Note_on_c, 1, 75, 30
2, 56542, Note_on_c, 1, 75, 0
2, 56544, Note_on_c, 1, 76, 42
2, 56638, Note_on_c, 1, 76, 0
2, 56640, Note_on_c, 1, 76, 30
2, 56734, Note_on_c, 1, 76, 0
2, 56736, Note_on_c, 1, 76, 30
2, 56830, Note_on_c, 1, 76, 0
2, 56832, Note_on_c, 1, 76, 30
2, 56926, Note_on_c, 1, 76, 0
2, 56928, Note_on_c, 1, 77, 42
2, 57022, Note_on_c, 1, 77, 0
2, 57024, Note_on_c, 1, 77, 30
2, 57118, Note_on_c, 1, 77, 0
2, 57120, Note_on_c, 1, 77, 30
2, 57214, Note_on_c, 1, 77, 0
2, 57216, Note_on_c, 1, 77, 30
2, 57310, Note_on_c, 1, 77, 0
2, 58272, Note_on_c, 1, 76, 45
2, 58368, Note_on_c, 1, 76, 0
2, 58368, Note_on_c, 1, 77, 45
2, 58656, Note_on_c, 1, 77, 0
2, 58656, Note_on_c, 1, 74, 45
2, 58752, Note_on_c, 1, 74, 0
2, 58752, Note_on_c, 1, 71, 45
2, 59040, Note_on_c, 1, 71, 0
2, 59040, Note_on_c, 1, 74, 45
2, 59136, Note_on_c, 1, 74, 0
2, 59136, Note_on_c, 1, 72, 45
2, 59424, Note_on_c, 1, 72, 0
2, 59424, Note_on_c, 1, 76, 45
2, 59520, Note_on_c, 1, 76, 0
2, 59520, Note_on_c, 1, 79, 45
2, 59776, Note_on_c, 1, 79, 0
2, 59808, Note_on_c, 1, 79, 45
2, 60000, Note_on_c, 1, 79, 0
2, 60000, Note_on_c, 1, 78, 45
2, 60094, Note_on_c, 1, 78, 0
2, 60096, Note_on_c, 1, 79, 45
2, 60384, Note_on_c, 1, 79, 0
2, 60384, Note_on_c, 1, 78, 45
2, 60478, Note_on_c, 1, 78, 0
2, 60480, Note_on_c, 1, 79, 45
2, 60704, Note_on_c, 1, 79, 0
2, 60704, Note_on_c, 1, 78, 45
2, 60736, Note_on_c, 1, 78, 0
2, 60736, Note_on_c, 1, 79, 45
2, 60768, Note_on_c, 1, 79, 0
2, 60768, Note_on_c, 1, 80, 45
2, 60800, Note_on_c, 1, 80, 0
2, 60800, Note_on_c, 1, 79, 45
2, 60832, Note_on_c, 1, 79, 0
2, 60832, Note_on_c, 1, 77, 45
2, 60864, Note_on_c, 1, 77, 0
2, 60864, Note_on_c, 1, 75, 45
2, 60896, Note_on_c, 1, 75, 0
2, 60896, Note_on_c, 1, 74, 45
2, 60928, Note_on_c, 1, 74, 0
2, 60928, Note_on_c, 1, 75, 45
2, 60960, Note_on_c, 1, 75, 0
2, 60960, Note_on_c, 1, 77, 45
2, 60992, Note_on_c, 1, 77, 0
2, 60992, Note_on_c, 1, 75, 45
2, 61024, Note_on_c, 1, 75, 0
2, 61024, Note_on_c, 1, 74, 45
2, 61054, Note_on_c, 1, 74, 0
2, 61056, Note_on_c, 1, 72, 45
2, 61088, Note_on_c, 1, 72, 0
2, 61152, Note_on_c, 1, 72, 45
2, 61184, Note_on_c, 1, 72, 0
2, 61248, Note_on_c, 1, 72, 45
2, 61280, Note_on_c, 1, 72, 0
2, 61344, Note_on_c, 1, 72, 45
2, 61376, Note_on_c, 1, 72, 0
2, 61440, Note_on_c, 1, 71, 45
2, 61472, Note_on_c, 1, 71, 0
2, 61536, Note_on_c, 1, 67, 45
2, 61568, Note_on_c, 1, 67, 0
2, 61632, Note_on_c, 1, 69, 45
2, 61664, Note_on_c, 1, 69, 0
2, 61728, Note_on_c, 1, 71, 45
2, 61760, Note_on_c, 1, 71, 0
2, 61824, Note_on_c, 1, 72, 45
2, 61856, Note_on_c, 1, 72, 0
2, 61920, Note_on_c, 1, 74, 45
2, 61952, Note_on_c, 1, 74, 0
2, 62016, Note_on_c, 1, 75, 45
2, 62048, Note_on_c, 1, 75, 0
2, 62112, Note_on_c, 1, 76, 45
2, 62144, Note_on_c, 1, 76, 0
2, 62208, Note_on_c, 1, 77, 45
2, 62302, Note_on_c, 1, 77, 0
2, 63360, Note_on_c, 1, 77, 63
2, 63838, Note_on_c, 1, 77, 0
2, 63840, Note_on_c, 1, 79, 45
2, 63864, Note_on_c, 1, 79, 0
2, 63864, Note_on_c, 1, 81, 45
2, 63888, Note_on_c, 1, 81, 0
2, 63888, Note_on_c, 1, 82, 45
2, 63912, Note_on_c, 1, 82, 0
2, 63912, Note_on_c, 1, 84, 45
2, 63934, Note_on_c, 1, 84, 0
2, 63936, Note_on_c, 1, 85, 45
2, 63968, Note_on_c, 1, 85, 0
2, 64032, Note_on_c, 1, 85, 45
2, 64064, Note_on_c, 1, 85, 0
2, 64128, Note_on_c, 1, 85, 63
2, 64320, Note_on_c, 1, 85, 0
2, 64320, Note_on_c, 1, 84, 45
2, 64414, Note_on_c, 1, 84, 0
2, 64416, Note_on_c, 1, 85, 45
2, 64448, Note_on_c, 1, 85, 0
2, 64512, Note_on_c, 1, 87, 45
2, 64606, Note_on_c, 1, 87, 0
2, 64608, Note_on_c, 1, 80, 45
2, 64632, Note_on_c, 1, 80, 0
2, 64632, Note_on_c, 1, 82, 45
2, 64656, Note_on_c, 1, 82, 0
2, 64656, Note_on_c, 1, 84, 45
2, 64680, Note_on_c, 1, 84, 0
2, 64680, Note_on_c, 1, 85, 45
2, 64702, Note_on_c, 1, 85, 0
2, 64704, Note_on_c, 1, 87, 45
2, 64736, Note_on_c, 1, 87, 0
2, 64800, Note_on_c, 1, 87, 45
2, 64832, Note_on_c, 1, 87, 0
2, 64896, Note_on_c, 1, 87, 63
2, 65088, Note_on_c, 1, 87, 0
2, 65088, Note_on_c, 1, 85, 45
2, 65182, Note_on_c, 1, 85, 0
2, 65184, Note_on_c, 1, 87, 45
2, 65216, Note_on_c, 1, 87, 0
2, 65280, Note_on_c, 1, 89, 45
2, 65374, Note_on_c, 1, 89, 0
2, 65760, Note_on_c, 1, 77, 45
2, 65776, Note_on_c, 1, 77, 0
2, 65776, Note_on_c, 1, 79, 45
2, 65792, Note_on_c, 1, 79, 0
2, 65792, Note_on_c, 1, 80, 45
2, 65808, Note_on_c, 1, 80, 0
2, 65808, Note_on_c, 1, 82, 45
2, 65832, Note_on_c, 1, 82, 0
2, 65832, Note_on_c, 1, 84, 45
2, 65854, Note_on_c, 1, 84, 0
2, 65856, Note_on_c, 1, 85, 45
2, 65888, Note_on_c, 1, 85, 0
2, 65952, Note_on_c, 1, 85, 45
2, 65984, Note_on_c, 1, 85, 0
2, 66048, Note_on_c, 1, 84, 45
2, 66142, Note_on_c, 1, 84, 0
2, 66528, Note_on_c, 1, 76, 45
2, 66544, Note_on_c, 1, 76, 0
2, 66544, Note_on_c, 1, 77, 45
2, 66560, Note_on_c, 1, 77, 0
2, 66560, Note_on_c, 1, 79, 45
2, 66576, Note_on_c, 1, 79, 0
2, 66576, Note_on_c, 1, 80, 45
2, 66600, Note_on_c, 1, 80, 0
2, 66600, Note_on_c, 1, 82, 45
2, 66622, Note_on_c, 1, 82, 0
2, 66624, Note_on_c, 1, 84, 45
2, 66656, Note_on_c, 1, 84, 0
2, 66720, Note_on_c, 1, 84, 45
2, 66752, Note_on_c, 1, 84, 0
2, 66752, Note_on_c, 1, 86, 45
2, 66784, Note_on_c, 1, 86, 0
2, 66784, Note_on_c, 1, 88, 45
2, 66814, Note_on_c, 1, 88, 0
2, 66816, Note_on_c, 1, 89, 92
2, 66910, Note_on_c, 1, 89, 0
2, 66912, Note_on_c, 1, 89, 92
2, 67072, Note_on_c, 1, 89, 0
2, 67104, Note_on_c, 1, 89, 92
2, 67294, Note_on_c, 1, 89, 0
2, 67296, Note_on_c, 1, 89, 92
2, 67456, Note_on_c, 1, 89, 0
2, 67488, Note_on_c, 1, 89, 92
2, 67582, Note_on_c, 1, 89, 0
2, 67584, Note_on_c, 1, 88, 92
2, 67678, Note_on_c, 1, 88, 0
2, 68352, Note_on_c, 1, 79, 92
2, 68384, Note_on_c, 1, 79, 0
2, 68384, Note_on_c, 1, 78, 92
2, 68416, Note_on_c, 1, 78, 0
2, 68416, Note_on_c, 1, 79, 92
2, 68448, Note_on_c, 1, 79, 0
2, 68448, Note_on_c, 1, 80, 92
2, 68480, Note_on_c, 1, 80, 0
2, 68480, Note_on_c, 1, 79, 92
2, 68512, Note_on_c, 1, 79, 0
2, 68512, Note_on_c, 1, 77, 92
2, 68544, Note_on_c, 1, 77, 0
2, 68544, Note_on_c, 1, 76, 92
2, 68576, Note_on_c, 1, 76, 0
2, 68576, Note_on_c, 1, 75, 92
2, 68608, Note_on_c, 1, 75, 0
2, 68608, Note_on_c, 1, 76, 92
2, 68640, Note_on_c, 1, 76, 0
2, 68640, Note_on_c, 1, 77, 92
2, 68672, Note_on_c, 1, 77, 0
2, 68672, Note_on_c, 1, 76, 92
2, 68704, Note_on_c, 1, 76, 0
2, 68704, Note_on_c, 1, 74, 92
2, 68734, Note_on_c, 1, 74, 0
2, 68736, Note_on_c, 1, 72, 92
2, 68830, Note_on_c, 1, 72, 0
2, 68832, Note_on_c, 1, 83, 92
2, 68864, Note_on_c, 1, 83, 0
2, 68928, Note_on_c, 1, 83, 92
2, 68960, Note_on_c, 1, 83, 0
2, 69024, Note_on_c, 1, 83, 92
2, 69056, Note_on_c, 1, 83, 0
2, 69120, Note_on_c, 1, 84, 92
2, 69214, Note_on_c, 1, 84, 0
2, 69888, Note_on_c, 1, 79, 92
2, 69920, Note_on_c, 1, 79, 0
2, 69920, Note_on_c, 1, 78, 92
2, 69952, Note_on_c, 1, 78, 0
2, 69952, Note_on_c, 1, 79, 92
2, 69984, Note_on_c, 1, 79, 0
2, 69984, Note_on_c, 1, 80, 92
2, 70016, Note_on_c, 1, 80, 0
2, 70016, Note_on_c, 1, 79, 92
2, 70048, Note_on_c, 1, 79, 0
2, 70048, Note_on_c, 1, 77, 92
2, 70080, Note_on_c, 1, 77, 0
2, 70080, Note_on_c, 1, 76, 92
2, 70112, Note_on_c, 1, 76, 0
2, 70112, Note_on_c, 1, 75, 92
2, 70144, Note_on_c, 1, 75, 0
2, 70144, Note_on_c, 1, 76, 92
2, 70176, Note_on_c, 1, 76, 0
2, 70176, Note_on_c, 1, 77, 92
2, 70208, Note_on_c, 1, 77, 0
2, 70208, Note_on_c, 1, 76, 92
2, 70240, Note_on_c, 1, 76, 0
2, 70240, Note_on_c, 1, 74, 92
2, 70270, Note_on_c, 1, 74, 0
2, 70272, Note_on_c, 1, 72, 92
2, 70366, Note_on_c, 1, 72, 0
2, 70368, Note_on_c, 1, 83, 92
2, 70462, Note_on_c, 1, 83, 0
2, 70464, Note_on_c, 1, 83, 92
2, 70558, Note_on_c, 1, 83, 0
2, 70560, Note_on_c, 1, 83, 92
2, 70654, Note_on_c, 1, 83, 0
2, 70656, Note_on_c, 1, 84, 92
2, 70750, Note_on_c, 1, 84, 0
2, 73632, Note_on_c, 1, 78, 30
2, 73728, Note_on_c, 1, 78, 0
2, 73728, Note_on_c, 1, 79, 30
2, 74016, Note_on_c, 1, 79, 0
2, 74016, Note_on_c, 1, 76, 30
2, 74112, Note_on_c, 1, 76, 0
2, 74112, Note_on_c, 1, 73, 30
2, 74400, Note_on_c, 1, 73, 0
2, 74400, Note_on_c, 1, 76, 30
2, 74496, Note_on_c, 1, 76, 0
2, 74496, Note_on_c, 1, 74, 30
2, 74784, Note_on_c, 1, 74, 0
2, 74784, Note_on_c, 1, 78, 30
2, 74880, Note_on_c, 1, 78, 0
2, 74880, Note_on_c, 1, 81, 30
2, 75168, Note_on_c, 1, 81, 0
2, 75168, Note_on_c, 1, 78, 30
2, 75264, Note_on_c, 1, 78, 0
2, 75264, Note_on_c, 1, 79, 30
2, 75552, Note_on_c, 1, 79, 0
2, 75552, Note_on_c, 1, 76, 35
2, 75648, Note_on_c, 1, 76, 0
2, 75648, Note_on_c, 1, 73, 36
2, 75936, Note_on_c, 1, 73, 0
2, 75936, Note_on_c, 1, 76, 41
2, 76030, Note_on_c, 1, 76, 0
2, 76032, Note_on_c, 1, 74, 42
2, 76126, Note_on_c, 1, 74, 0
2, 76128, Note_on_c, 1, 74, 60
2, 76222, Note_on_c, 1, 74, 0
2, 76224, Note_on_c, 1, 74, 45
2, 76318, Note_on_c, 1, 74, 0
2, 76320, Note_on_c, 1, 74, 47
2, 76414, Note_on_c, 1, 74, 0
2, 76416, Note_on_c, 1, 74, 49
2, 76510, Note_on_c, 1, 74, 0
2, 76512, Note_on_c, 1, 74, 71
2, 76606, Note_on_c, 1, 74, 0
2, 76608, Note_on_c, 1, 74, 53
2, 76702, Note_on_c, 1, 74, 0
2, 76704, Note_on_c, 1, 74, 55
2, 76798, Note_on_c, 1, 74, 0
2, 76800, Note_on_c, 1, 74, 57
2, 76894, Note_on_c, 1, 74, 0
2, 76896, Note_on_c, 1, 74, 82
2, 76990, Note_on_c, 1, 74, 0
2, 76992, Note_on_c, 1, 74, 61
2, 77086, Note_on_c, 1, 74, 0
2, 77088, Note_on_c, 1, 74, 63
2, 77182, Note_on_c, 1, 74, 0
2, 77184, Note_on_c, 1, 74, 65
2, 77278, Note_on_c, 1, 74, 0
2, 77280, Note_on_c, 1, 80, 93
2, 77374, Note_on_c, 1, 80, 0
2, 77376, Note_on_c, 1, 80, 69
2, 77470, Note_on_c, 1, 80, 0
2, 77472, Note_on_c, 1, 80, 71
2, 77566, Note_on_c, 1, 80, 0
2, 77568, Note_on_c, 1, 81, 73
2, 77662, Note_on_c, 1, 81, 0
2, 78240, Note_on_c, 1, 79, 45
2, 78336, Note_on_c, 1, 79, 0
2, 78336, Note_on_c, 1, 80, 45
2, 78624, Note_on_c, 1, 80, 0
2, 78624, Note_on_c, 1, 77, 45
2, 78720, Note_on_c, 1, 77, 0
2, 78720, Note_on_c, 1, 74, 45
2, 79008, Note_on_c, 1, 74, 0
2, 79008, Note_on_c, 1, 77, 45
2, 79104, Note_on_c, 1, 77, 0
2, 79104, Note_on_c, 1, 75, 45
2, 79392, Note_on_c, 1, 75, 0
2, 79392, Note_on_c, 1, 79, 45
2, 79488, Note_on_c, 1, 79, 0
2, 79488, Note_on_c, 1, 82, 45
2, 79776, Note_on_c, 1, 82, 0
2, 79776, Note_on_c, 1, 79, 45
2, 79870, Note_on_c, 1, 79, 0
2, 79872, Note_on_c, 1, 80, 45
2, 80448, Note_on_c, 1, 80, 0
2, 80448, Note_on_c, 1, 79, 45
2, 80544, Note_on_c, 1, 79, 0
2, 80544, Note_on_c, 1, 77, 45
2, 80638, Note_on_c, 1, 77, 0
2, 80640, Note_on_c, 1, 76, 45
2, 80832, Note_on_c, 1, 76, 0
2, 80832, Note_on_c, 1, 82, 45
2, 81216, Note_on_c, 1, 82, 0
2, 81216, Note_on_c, 1, 81, 45
2, 81312, Note_on_c, 1, 81, 0
2, 81312, Note_on_c, 1, 79, 45
2, 81406, Note_on_c, 1, 79, 0
2, 81408, Note_on_c, 1, 78, 45
2, 81600, Note_on_c, 1, 78, 0
2, 81600, Note_on_c, 1, 87, 45
2, 81984, Note_on_c, 1, 87, 0
2, 81984, Note_on_c, 1, 86, 45
2, 82080, Note_on_c, 1, 86, 0
2, 82080, Note_on_c, 1, 84, 45
2, 82174, Note_on_c, 1, 84, 0
2, 82176, Note_on_c, 1, 82, 45
2, 82464, Note_on_c, 1, 82, 0
2, 82464, Note_on_c, 1, 81, 45
2, 82560, Note_on_c, 1, 81, 0
2, 82560, Note_on_c, 1, 79, 48
2, 82656, Note_on_c, 1, 79, 0
2, 82656, Note_on_c, 1, 81, 51
2, 82752, Note_on_c, 1, 81, 0
2, 82752, Note_on_c, 1, 82, 54
2, 82848, Note_on_c, 1, 82, 0
2, 82848, Note_on_c, 1, 84, 57
2, 82942, Note_on_c, 1, 84, 0
2, 82944, Note_on_c, 1, 82, 60
2, 83136, Note_on_c, 1, 82, 0
2, 83136, Note_on_c, 1, 81, 67
2, 83232, Note_on_c, 1, 81, 0
2, 83232, Note_on_c, 1, 79, 71
2, 83328, Note_on_c, 1, 79, 0
2, 83328, Note_on_c, 1, 77, 75
2, 83424, Note_on_c, 1, 77, 0
2, 83424, Note_on_c, 1, 79, 68
2, 83520, Note_on_c, 1, 79, 0
2, 83520, Note_on_c, 1, 81, 61
2, 83616, Note_on_c, 1, 81, 0
2, 83616, Note_on_c, 1, 83, 53
2, 83710, Note_on_c, 1, 83, 0
2, 83712, Note_on_c, 1, 84, 45
2, 83806, Note_on_c, 1, 84, 0
2, 84480, Note_on_c, 1, 77, 45
2, 84512, Note_on_c, 1, 77, 0
2, 84512, Note_on_c, 1, 76, 45
2, 84544, Note_on_c, 1, 76, 0
2, 84544, Note_on_c, 1, 77, 45
2, 84576, Note_on_c, 1, 77, 0
2, 84576, Note_on_c, 1, 79, 45
2, 84608, Note_on_c, 1, 79, 0
2, 84608, Note_on_c, 1, 77, 45
2, 84640, Note_on_c, 1, 77, 0
2, 84640, Note_on_c, 1, 76, 45
2, 84672, Note_on_c, 1, 76, 0
2, 84672, Note_on_c, 1, 74, 45
2, 84704, Note_on_c, 1, 74, 0
2, 84704, Note_on_c, 1, 73, 45
2, 84736, Note_on_c, 1, 73, 0
2, 84736, Note_on_c, 1, 74, 45
2, 84768, Note_on_c, 1, 74, 0
2, 84768, Note_on_c, 1, 76, 45
2, 84800, Note_on_c, 1, 76, 0
2, 84800, Note_on_c, 1, 74, 45
2, 84832, Note_on_c, 1, 74, 0
2, 84832, Note_on_c, 1, 72, 45
2, 84862, Note_on_c, 1, 72, 0
2, 84864, Note_on_c, 1, 71, 45
2, 84896, Note_on_c, 1, 71, 0
2, 84960, Note_on_c, 1, 71, 45
2, 84992, Note_on_c, 1, 71, 0
2, 85056, Note_on_c, 1, 71, 45
2, 85088, Note_on_c, 1, 71, 0
2, 85152, Note_on_c, 1, 71, 45
2, 85184, Note_on_c, 1, 71, 0
2, 85248, Note_on_c, 1, 72, 45
2, 85408, Note_on_c, 1, 72, 0
2, 86016, Note_on_c, 1, 82, 45
2, 86048, Note_on_c, 1, 82, 0
2, 86048, Note_on_c, 1, 81, 45
2, 86080, Note_on_c, 1, 81, 0
2, 86080, Note_on_c, 1, 82, 45
2, 86112, Note_on_c, 1, 82, 0
2, 86112, Note_on_c, 1, 84, 45
2, 86144, Note_on_c, 1, 84, 0
2, 86144, Note_on_c, 1, 82, 45
2, 86176, Note_on_c, 1, 82, 0
2, 86176, Note_on_c, 1, 81, 45
2, 86208, Note_on_c, 1, 81, 0
2, 86208, Note_on_c, 1, 79, 45
2, 86240, Note_on_c, 1, 79, 0
2, 86240, Note_on_c, 1, 78, 45
2, 86272, Note_on_c, 1, 78, 0
2, 86272, Note_on_c, 1, 79, 45
2, 86304, Note_on_c, 1, 79, 0
2, 86304, Note_on_c, 1, 81, 45
2, 86336, Note_on_c, 1, 81, 0
2, 86336, Note_on_c, 1, 79, 45
2, 86368, Note_on_c, 1, 79, 0
2, 86368, Note_on_c, 1, 77, 45
2, 86398, Note_on_c, 1, 77, 0
2, 86400, Note_on_c, 1, 76, 45
2, 86432, Note_on_c, 1, 76, 0
2, 86496, Note_on_c, 1, 76, 45
2, 86528, Note_on_c, 1, 76, 0
2, 86592, Note_on_c, 1, 76, 45
2, 86624, Note_on_c, 1, 76, 0
2, 86688, Note_on_c, 1, 76, 45
2, 86720, Note_on_c, 1, 76, 0
2, 86784, Note_on_c, 1, 86, 45
2, 86816, Note_on_c, 1, 86, 0
2, 86816, Note_on_c, 1, 85, 45
2, 86848, Note_on_c, 1, 85, 0
2, 86848, Note_on_c, 1, 86, 45
2, 86880, Note_on_c, 1, 86, 0
2, 86880, Note_on_c, 1, 88, 45
2, 86912, Note_on_c, 1, 88, 0
2, 86912, Note_on_c, 1, 86, 45
2, 86944, Note_on_c, 1, 86, 0
2, 86944, Note_on_c, 1, 84, 45
2, 86976, Note_on_c, 1, 84, 0
2, 86976, Note_on_c, 1, 82, 45
2, 87008, Note_on_c, 1, 82, 0
2, 87008, Note_on_c, 1, 81, 45
2, 87040, Note_on_c, 1, 81, 0
2, 87040, Note_on_c, 1, 82, 45
2, 87072, Note_on_c, 1, 82, 0
2, 87072, Note_on_c, 1, 84, 45
2, 87104, Note_on_c, 1, 84, 0
2, 87104, Note_on_c, 1, 82, 45
2, 87136, Note_on_c, 1, 82, 0
2, 87136, Note_on_c, 1, 81, 45
2, 87166, Note_on_c, 1, 81, 0
2, 87168, Note_on_c, 1, 82, 45
2, 87200, Note_on_c, 1, 82, 0
2, 87264, Note_on_c, 1, 82, 45
2, 87296, Note_on_c, 1, 82, 0
2, 87360, Note_on_c, 1, 82, 45
2, 87392, Note_on_c, 1, 82, 0
2, 87456, Note_on_c, 1, 82, 45
2, 87488, Note_on_c, 1, 82, 0
2, 87552, Note_on_c, 1, 82, 45
2, 87584, Note_on_c, 1, 82, 0
2, 87584, Note_on_c, 1, 81, 45
2, 87616, Note_on_c, 1, 81, 0
2, 87616, Note_on_c, 1, 82, 45
2, 87648, Note_on_c, 1, 82, 0
2, 87648, Note_on_c, 1, 84, 45
2, 87680, Note_on_c, 1, 84, 0
2, 87680, Note_on_c, 1, 82, 45
2, 87712, Note_on_c, 1, 82, 0
2, 87712, Note_on_c, 1, 81, 45
2, 87742, Note_on_c, 1, 81, 0
2, 87744, Note_on_c, 1, 82, 63
2, 87968, Note_on_c, 1, 82, 0
2, 87968, Note_on_c, 1, 81, 45
2, 88000, Note_on_c, 1, 81, 0
2, 88000, Note_on_c, 1, 82, 45
2, 88032, Note_on_c, 1, 82, 0
2, 88032, Note_on_c, 1, 84, 45
2, 88064, Note_on_c, 1, 84, 0
2, 88064, Note_on_c, 1, 82, 45
2, 88096, Note_on_c, 1, 82, 0
2, 88096, Note_on_c, 1, 81, 45
2, 88126, Note_on_c, 1, 81, 0
2, 88128, Note_on_c, 1, 82, 63
2, 88350, Note_on_c, 1, 82, 0
2, 88352, Note_on_c, 1, 81, 47
2, 88384, Note_on_c, 1, 81, 0
2, 88384, Note_on_c, 1, 82, 49
2, 88416, Note_on_c, 1, 82, 0
2, 88416, Note_on_c, 1, 81, 51
2, 88448, Note_on_c, 1, 81, 0
2, 88448, Note_on_c, 1, 82, 53
2, 88480, Note_on_c, 1, 82, 0
2, 88480, Note_on_c, 1, 81, 55
2, 88512, Note_on_c, 1, 81, 0
2, 88512, Note_on_c, 1, 82, 57
2, 88544, Note_on_c, 1, 82, 0
2, 88544, Note_on_c, 1, 81, 59
2, 88576, Note_on_c, 1, 81, 0
2, 88576, Note_on_c, 1, 82, 61
2, 88608, Note_on_c, 1, 82, 0
2, 88608, Note_on_c, 1, 81, 63
2, 88640, Note_on_c, 1, 81, 0
2, 88640, Note_on_c, 1, 82, 66
2, 88672, Note_on_c, 1, 82, 0
2, 88672, Note_on_c, 1, 81, 69
2, 88702, Note_on_c, 1, 81, 0
2, 88704, Note_on_c, 1, 82, 72
2, 88736, Note_on_c, 1, 82, 0
2, 88736, Note_on_c, 1, 81, 75
2, 88768, Note_on_c, 1, 81, 0
2, 88768, Note_on_c, 1, 82, 78
2, 88800, Note_on_c, 1, 82, 0
2, 88800, Note_on_c, 1, 81, 81
2, 88832, Note_on_c, 1, 81, 0
2, 88832, Note_on_c, 1, 82, 84
2, 88864, Note_on_c, 1, 82, 0
2, 88864, Note_on_c, 1, 81, 87
2, 88896, Note_on_c, 1, 81, 0
2, 88896, Note_on_c, 1, 82, 90
2, 88928, Note_on_c, 1, 82, 0
2, 88928, Note_on_c, 1, 81, 93
2, 88960, Note_on_c, 1, 81, 0
2, 88960, Note_on_c, 1, 82, 96
2, 88992, Note_on_c, 1, 82, 0
2, 88992, Note_on_c, 1, 81, 99
2, 89024, Note_on_c, 1, 81, 0
2, 89024, Note_on_c, 1, 82, 102
2, 89056, Note_on_c, 1, 82, 0
2, 89056, Note_on_c, 1, 81, 105
2, 89086, Note_on_c, 1, 81, 0
2, 89088, Note_on_c, 1, 82, 108
2, 89120, Note_on_c, 1, 82, 0
2, 89120, Note_on_c, 1, 84, 108
2, 89152, Note_on_c, 1, 84, 0
2, 89152, Note_on_c, 1, 82, 108
2, 89184, Note_on_c, 1, 82, 0
2, 89184, Note_on_c, 1, 81, 108
2, 89216, Note_on_c, 1, 81, 0
2, 89216, Note_on_c, 1, 82, 108
2, 89248, Note_on_c, 1, 82, 0
2, 89248, Note_on_c, 1, 81, 108
2, 89280, Note_on_c, 1, 81, 0
2, 89280, Note_on_c, 1, 79, 108
2, 89312, Note_on_c, 1, 79, 0
2, 89312, Note_on_c, 1, 81, 108
2, 89344, Note_on_c, 1, 81, 0
2, 89344, Note_on_c, 1, 79, 108
2, 89376, Note_on_c, 1, 79, 0
2, 89376, Note_on_c, 1, 77, 108
2, 89408, Note_on_c, 1, 77, 0
2, 89408, Note_on_c, 1, 79, 108
2, 89440, Note_on_c, 1, 79, 0
2, 89440, Note_on_c, 1, 77, 108
2, 89470, Note_on_c, 1, 77, 0
2, 89472, Note_on_c, 1, 76, 108
2, 89504, Note_on_c, 1, 76, 0
2, 89504, Note_on_c, 1, 77, 108
2, 89536, Note_on_c, 1, 77, 0
2, 89536, Note_on_c, 1, 76, 108
2, 89568, Note_on_c, 1, 76, 0
2, 89568, Note_on_c, 1, 74, 108
2, 89600, Note_on_c, 1, 74, 0
2, 89600, Note_on_c, 1, 76, 108
2, 89632, Note_on_c, 1, 76, 0
2, 89632, Note_on_c, 1, 74, 108
2, 89664, Note_on_c, 1, 74, 0
2, 89664, Note_on_c, 1, 72, 108
2, 89696, Note_on_c, 1, 72, 0
2, 89696, Note_on_c, 1, 74, 108
2, 89728, Note_on_c, 1, 74, 0
2, 89728, Note_on_c, 1, 72, 108
2, 89760, Note_on_c, 1, 72, 0
2, 89760, Note_on_c, 1, 70, 108
2, 89792, Note_on_c, 1, 70, 0
2, 89792, Note_on_c, 1, 72, 108
2, 89824, Note_on_c, 1, 72, 0
2, 89824, Note_on_c, 1, 70, 108
2, 89854, Note_on_c, 1, 70, 0
2, 89856, Note_on_c, 1, 69, 45
2, 89950, Note_on_c, 1, 69, 0
2, 90432, Note_on_c, 1, 82, 45
2, 90464, Note_on_c, 1, 82, 0
2, 90528, Note_on_c, 1, 82, 45
2, 90560, Note_on_c, 1, 82, 0
2, 90624, Note_on_c, 1, 76, 45
2, 90656, Note_on_c, 1, 76, 0
2, 91200, Note_on_c, 1, 84, 45
2, 91232, Note_on_c, 1, 84, 0
2, 91296, Note_on_c, 1, 84, 45
2, 91328, Note_on_c, 1, 84, 0
2, 91392, Note_on_c, 1, 72, 45
2, 91424, Note_on_c, 1, 72, 0
2, 91424, Note_on_c, 1, 71, 45
2, 91456, Note_on_c, 1, 71, 0
2, 91456, Note_on_c, 1, 72, 45
2, 91488, Note_on_c, 1, 72, 0
2, 91488, Note_on_c, 1, 74, 45
2, 91520, Note_on_c, 1, 74, 0
2, 91520, Note_on_c, 1, 72, 45
2, 91552, Note_on_c, 1, 72, 0
2, 91552, Note_on_c, 1, 70, 45
2, 91582, Note_on_c, 1, 70, 0
2, 91584, Note_on_c, 1, 69, 45
2, 91680, Note_on_c, 1, 69, 0
2, 91680, Note_on_c, 1, 77, 45
2, 91726, Note_on_c, 1, 77, 0
2, 91776, Note_on_c, 1, 72, 45
2, 91808, Note_on_c, 1, 72, 0
2, 91808, Note_on_c, 1, 71, 45
2, 91840, Note_on_c, 1, 71, 0
2, 91840, Note_on_c, 1, 72, 45
2, 91872, Note_on_c, 1, 72, 0
2, 91872, Note_on_c, 1, 74, 45
2, 91904, Note_on_c, 1, 74, 0
2, 91904, Note_on_c, 1, 72, 45
2, 91936, Note_on_c, 1, 72, 0
2, 91936, Note_on_c, 1, 70, 45
2, 91966, Note_on_c, 1, 70, 0
2, 91968, Note_on_c, 1, 69, 45
2, 92064, Note_on_c, 1, 69, 0
2, 92064, Note_on_c, 1, 81, 45
2, 92110, Note_on_c, 1, 81, 0
2, 92160, Note_on_c, 1, 72, 45
2, 92192, Note_on_c, 1, 72, 0
2, 92192, Note_on_c, 1, 71, 45
2, 92224, Note_on_c, 1, 71, 0
2, 92224, Note_on_c, 1, 72, 45
2, 92256, Note_on_c, 1, 72, 0
2, 92256, Note_on_c, 1, 74, 45
2, 92288, Note_on_c, 1, 74, 0
2, 92288, Note_on_c, 1, 72, 45
2, 92320, Note_on_c, 1, 72, 0
2, 92320, Note_on_c, 1, 70, 45
2, 92350, Note_on_c, 1, 70, 0
2, 92352, Note_on_c, 1, 69, 45
2, 92448, Note_on_c, 1, 69, 0
2, 92448, Note_on_c, 1, 84, 45
2, 92494, Note_on_c, 1, 84, 0
2, 92544, Note_on_c, 1, 72, 45
2, 92640, Note_on_c, 1, 72, 0
2, 92640, Note_on_c, 1, 76, 45
2, 92688, Note_on_c, 1, 76, 0
2, 92688, Note_on_c, 1, 74, 45
2, 92736, Note_on_c, 1, 74, 0
2, 92736, Note_on_c, 1, 72, 45
2, 92830, Note_on_c, 1, 72, 0
2, 92928, Note_on_c, 1, 77, 92
2, 92960, Note_on_c, 1, 77, 0
2, 92960, Note_on_c, 1, 76, 92
2, 92992, Note_on_c, 1, 76, 0
2, 92992, Note_on_c, 1, 77, 92
2, 93024, Note_on_c, 1, 77, 0
2, 93024, Note_on_c, 1, 79, 92
2, 93056, Note_on_c, 1, 79, 0
2, 93056, Note_on_c, 1, 77, 92
2, 93088, Note_on_c, 1, 77, 0
2, 93088, Note_on_c, 1, 76, 92
2, 93120, Note_on_c, 1, 76, 0
2, 93120, Note_on_c, 1, 74, 92
2, 93152, Note_on_c, 1, 74, 0
2, 93152, Note_on_c, 1, 72, 92
2, 93184, Note_on_c, 1, 72, 0
2, 93184, Note_on_c, 1, 70, 92
2, 93216, Note_on_c, 1, 70, 0
2, 93216, Note_on_c, 1, 69, 92
2, 93248, Note_on_c, 1, 69, 0
2, 93248, Note_on_c, 1, 67, 92
2, 93280, Note_on_c, 1, 67, 0
2, 93280, Note_on_c, 1, 65, 92
2, 93310, Note_on_c, 1, 65, 0
2, 93312, Note_on_c, 1, 64, 92
2, 93344, Note_on_c, 1, 64, 0
2, 93408, Note_on_c, 1, 64, 92
2, 93440, Note_on_c, 1, 64, 0
2, 93504, Note_on_c, 1, 67, 92
2, 93536, Note_on_c, 1, 67, 0
2, 93696, Note_on_c, 1, 79, 92
2, 93728, Note_on_c, 1, 79, 0
2, 93728, Note_on_c, 1, 78, 92
2, 93760, Note_on_c, 1, 78, 0
2, 93760, Note_on_c, 1, 79, 92
2, 93792, Note_on_c, 1, 79, 0
2, 93792, Note_on_c, 1, 81, 92
2, 93824, Note_on_c, 1, 81, 0
2, 93824, Note_on_c, 1, 79, 92
2, 93856, Note_on_c, 1, 79, 0
2, 93856, Note_on_c, 1, 77, 92
2, 93888, Note_on_c, 1, 77, 0
2, 93888, Note_on_c, 1, 76, 92
2, 93920, Note_on_c, 1, 76, 0
2, 93920, Note_on_c, 1, 74, 92
2, 93952, Note_on_c, 1, 74, 0
2, 93952, Note_on_c, 1, 72, 92
2, 93984, Note_on_c, 1, 72, 0
2, 93984, Note_on_c, 1, 70, 92
2, 94016, Note_on_c, 1, 70, 0
2, 94016, Note_on_c, 1, 69, 92
2, 94048, Note_on_c, 1, 69, 0
2, 94048, Note_on_c, 1, 67, 92
2, 94078, Note_on_c, 1, 67, 0
2, 94080, Note_on_c, 1, 65, 92
2, 94112, Note_on_c, 1, 65, 0
2, 94176, Note_on_c, 1, 65, 92
2, 94208, Note_on_c, 1, 65, 0
2, 94272, Note_on_c, 1, 69, 92
2, 94304, Note_on_c, 1, 69, 0
2, 94464, Note_on_c, 1, 72, 45
2, 94496, Note_on_c, 1, 72, 0
2, 94496, Note_on_c, 1, 71, 45
2, 94528, Note_on_c, 1, 71, 0
2, 94528, Note_on_c, 1, 72, 45
2, 94560, Note_on_c, 1, 72, 0
2, 94560, Note_on_c, 1, 74, 45
2, 94592, Note_on_c, 1, 74, 0
2, 94592, Note_on_c, 1, 72, 45
2, 94624, Note_on_c, 1, 72, 0
2, 94624, Note_on_c, 1, 70, 45
2, 94654, Note_on_c, 1, 70, 0
2, 94656, Note_on_c, 1, 69, 45
2, 94752, Note_on_c, 1, 69, 0
2, 94752, Note_on_c, 1, 77, 45
2, 94798, Note_on_c, 1, 77, 0
2, 94848, Note_on_c, 1, 72, 45
2, 94880, Note_on_c, 1, 72, 0
2, 94880, Note_on_c, 1, 71, 45
2, 94912, Note_on_c, 1, 71, 0
2, 94912, Note_on_c, 1, 72, 45
2, 94944, Note_on_c, 1, 72, 0
2, 94944, Note_on_c, 1, 74, 45
2, 94976, Note_on_c, 1, 74, 0
2, 94976, Note_on_c, 1, 72, 45
2, 95008, Note_on_c, 1, 72, 0
2, 95008, Note_on_c, 1, 70, 45
2, 95038, Note_on_c, 1, 70, 0
2, 95040, Note_on_c, 1, 69, 45
2, 95136, Note_on_c, 1, 69, 0
2, 95136, Note_on_c, 1, 81, 45
2, 95182, Note_on_c, 1, 81, 0
2, 95232, Note_on_c, 1, 72, 45
2, 95264, Note_on_c, 1, 72, 0
2, 95264, Note_on_c, 1, 71, 46
2, 95296, Note_on_c, 1, 71, 0
2, 95296, Note_on_c, 1, 72, 48
2, 95328, Note_on_c, 1, 72, 0
2, 95328, Note_on_c, 1, 74, 50
2, 95360, Note_on_c, 1, 74, 0
2, 95360, Note_on_c, 1, 72, 52
2, 95392, Note_on_c, 1, 72, 0
2, 95392, Note_on_c, 1, 70, 54
2, 95422, Note_on_c, 1, 70, 0
2, 95424, Note_on_c, 1, 69, 56
2, 95456, Note_on_c, 1, 69, 0
2, 95520, Note_on_c, 1, 87, 62
2, 95552, Note_on_c, 1, 87, 0
2, 95616, Note_on_c, 1, 86, 68
2, 95648, Note_on_c, 1, 86, 0
2, 95712, Note_on_c, 1, 88, 74
2, 95744, Note_on_c, 1, 88, 0
2, 95808, Note_on_c, 1, 89, 80
2, 95840, Note_on_c, 1, 89, 0
2, 95904, Note_on_c, 1, 67, 86
2, 95936, Note_on_c, 1, 67, 0
2, 96000, Note_on_c, 1, 69, 92
2, 96160, Note_on_c, 1, 69, 0
2, 96192, Note_on_c, 1, 55, 92
2, 96192, Note_on_c, 1, 64, 92
2, 96352, Note_on_c, 1, 64, 0
2, 96352, Note_on_c, 1, 55, 0
2, 96384, Note_on_c, 1, 65, 92
2, 96544, Note_on_c, 1, 65, 0
2, 96768, Note_on_c, 1, 57, 45
2, 96816, Note_on_c, 1, 57, 0
2, 96816, Note_on_c, 1, 60, 45
2, 96864, Note_on_c, 1, 60, 0
2, 96864, Note_on_c, 1, 67, 45
2, 96912, Note_on_c, 1, 67, 0
2, 96912, Note_on_c, 1, 65, 45
2, 96960, Note_on_c, 1, 65, 0
2, 96960, Note_on_c, 1, 60, 45
2, 97008, Note_on_c, 1, 60, 0
2, 97008, Note_on_c, 1, 65, 45
2, 97056, Note_on_c, 1, 65, 0
2, 97056, Note_on_c, 1, 70, 45
2, 97104, Note_on_c, 1, 70, 0
2, 97104, Note_on_c, 1, 69, 45
2, 97150, Note_on_c, 1, 69, 0
2, 97152, Note_on_c, 1, 67, 45
2, 97312, Note_on_c, 1, 67, 0
2, 97536, Note_on_c, 1, 60, 45
2, 97584, Note_on_c, 1, 60, 0
2, 97584, Note_on_c, 1, 64, 45
2, 97632, Note_on_c, 1, 64, 0
2, 97632, Note_on_c, 1, 69, 45
2, 97680, Note_on_c, 1, 69, 0
2, 97680, Note_on_c, 1, 67, 45
2, 97728, Note_on_c, 1, 67, 0
2, 97728, Note_on_c, 1, 64, 45
2, 97776, Note_on_c, 1, 64, 0
2, 97776, Note_on_c, 1, 67, 45
2, 97824, Note_on_c, 1, 67, 0
2, 97824, Note_on_c, 1, 72, 45
2, 97872, Note_on_c, 1, 72, 0
2, 97872, Note_on_c, 1, 70, 45
2, 97918, Note_on_c, 1, 70, 0
2, 97920, Note_on_c, 1, 69, 45
2, 98080, Note_on_c, 1, 69, 0
2, 98304, Note_on_c, 1, 60, 45
2, 98352, Note_on_c, 1, 60, 0
2, 98352, Note_on_c, 1, 65, 45
2, 98400, Note_on_c, 1, 65, 0
2, 98400, Note_on_c, 1, 70, 45
2, 98448, Note_on_c, 1, 70, 0
2, 98448, Note_on_c, 1, 69, 45
2, 98496, Note_on_c, 1, 69, 0
2, 98496, Note_on_c, 1, 65, 45
2, 98544, Note_on_c, 1, 65, 0
2, 98544, Note_on_c, 1, 69, 45
2, 98592, Note_on_c, 1, 69, 0
2, 98592, Note_on_c, 1, 74, 45
2, 98640, Note_on_c, 1, 74, 0
2, 98640, Note_on_c, 1, 72, 45
2, 98686, Note_on_c, 1, 72, 0
2, 98688, Note_on_c, 1, 69, 45
2, 98736, Note_on_c, 1, 69, 0
2, 98736, Note_on_c, 1, 72, 45
2, 98784, Note_on_c, 1, 72, 0
2, 98784, Note_on_c, 1, 79, 45
2, 98832, Note_on_c, 1, 79, 0
2, 98832, Note_on_c, 1, 77, 45
2, 98880, Note_on_c, 1, 77, 0
2, 98880, Note_on_c, 1, 72, 45
2, 98928, Note_on_c, 1, 72, 0
2, 98928, Note_on_c, 1, 77, 45
2, 98976, Note_on_c, 1, 77, 0
2, 98976, Note_on_c, 1, 82, 45
2, 99024, Note_on_c, 1, 82, 0
2, 99024, Note_on_c, 1, 81, 45
2, 99070, Note_on_c, 1, 81, 0
2, 99072, Note_on_c, 1, 79, 45
2, 99120, Note_on_c, 1, 79, 0
2, 99120, Note_on_c, 1, 77, 45
2, 99168, Note_on_c, 1, 77, 0
2, 99168, Note_on_c, 1, 76, 45
2, 99216, Note_on_c, 1, 76, 0
2, 99216, Note_on_c, 1, 74, 45
2, 99264, Note_on_c, 1, 74, 0
2, 99264, Note_on_c, 1, 72, 45
2, 99312, Note_on_c, 1, 72, 0
2, 99312, Note_on_c, 1, 73, 45
2, 99360, Note_on_c, 1, 73, 0
2, 99360, Note_on_c, 1, 74, 45
2, 99408, Note_on_c, 1, 74, 0
2, 99408, Note_on_c, 1, 67, 45
2, 99454, Note_on_c, 1, 67, 0
2, 99456, Note_on_c, 1, 70, 45
2, 99648, Note_on_c, 1, 70, 0
2, 99648, Note_on_c, 1, 69, 45
2, 99742, Note_on_c, 1, 69, 0
2, 99744, Note_on_c, 1, 69, 127
2, 99776, Note_on_c, 1, 69, 0
2, 99840, Note_on_c, 1, 57, 127
2, 100096, Note_on_c, 1, 57, 0
2, 100128, Note_on_c, 1, 57, 127
2, 100160, Note_on_c, 1, 57, 0
2, 100160, Note_on_c, 1, 59, 127
2, 100192, Note_on_c, 1, 59, 0
2, 100192, Note_on_c, 1, 61, 127
2, 100222, Note_on_c, 1, 61, 0
2, 100224, Note_on_c, 1, 62, 127
2, 100256, Note_on_c, 1, 62, 0
2, 100320, Note_on_c, 1, 64, 108
2, 100352, Note_on_c, 1, 64, 0
2, 100416, Note_on_c, 1, 65, 108
2, 100448, Note_on_c, 1, 65, 0
2, 100512, Note_on_c, 1, 67, 108
2, 100544, Note_on_c, 1, 67, 0
2, 100608, Note_on_c, 1, 69, 108
2, 100640, Note_on_c, 1, 69, 0
2, 100704, Note_on_c, 1, 71, 108
2, 100736, Note_on_c, 1, 71, 0
2, 100800, Note_on_c, 1, 72, 108
2, 100832, Note_on_c, 1, 72, 0
2, 100896, Note_on_c, 1, 73, 108
2, 100928, Note_on_c, 1, 73, 0
2, 100992, Note_on_c, 1, 74, 108
2, 101086, Note_on_c, 1, 74, 0
2, 101088, Note_on_c, 1, 76, 108
2, 101182, Note_on_c, 1, 76, 0
2, 101184, Note_on_c, 1, 74, 108
2, 101208, Note_on_c, 1, 74, 0
2, 101208, Note_on_c, 1, 76, 108
2, 101232, Note_on_c, 1, 76, 0
2, 101232, Note_on_c, 1, 77, 127
2, 101472, Note_on_c, 1, 77, 0
2, 101472, Note_on_c, 1, 76, 108
2, 101566, Note_on_c, 1, 76, 0
2, 101568, Note_on_c, 1, 74, 108
2, 101592, Note_on_c, 1, 74, 0
2, 101592, Note_on_c, 1, 76, 108
2, 101616, Note_on_c, 1, 76, 0
2, 101616, Note_on_c, 1, 74, 108
2, 101664, Note_on_c, 1, 74, 0
2, 101664, Note_on_c, 1, 72, 108
2, 101758, Note_on_c, 1, 72, 0
2, 101760, Note_on_c, 1, 70, 108
2, 101784, Note_on_c, 1, 70, 0
2, 101784, Note_on_c, 1, 72, 108
2, 101808, Note_on_c, 1, 72, 0
2, 101808, Note_on_c, 1, 70, 108
2, 101856, Note_on_c, 1, 70, 0
2, 101856, Note_on_c, 1, 69, 108
2, 101950, Note_on_c, 1, 69, 0
2, 101952, Note_on_c, 1, 67, 108
2, 101976, Note_on_c, 1, 67, 0
2, 101976, Note_on_c, 1, 69, 108
2, 102000, Note_on_c, 1, 69, 0
2, 102000, Note_on_c, 1, 67, 108
2, 102048, Note_on_c, 1, 67, 0
2, 102048, Note_on_c, 1, 65, 108
2, 102142, Note_on_c, 1, 65, 0
2, 102144, Note_on_c, 1, 64, 108
2, 102240, Note_on_c, 1, 64, 0
2, 102240, Note_on_c, 1, 65, 108
2, 102334, Note_on_c, 1, 65, 0
2, 102336, Note_on_c, 1, 63, 108
2, 102368, Note_on_c, 1, 63, 0
2, 102432, Note_on_c, 1, 60, 108
2, 102464, Note_on_c, 1, 60, 0
2, 102576, Note_on_c, 1, 62, 45
2, 102624, Note_on_c, 1, 62, 0
2, 102624, Note_on_c, 1, 65, 45
2, 102672, Note_on_c, 1, 65, 0
2, 102672, Note_on_c, 1, 63, 45
2, 102720, Note_on_c, 1, 63, 0
2, 102720, Note_on_c, 1, 62, 45
2, 102768, Note_on_c, 1, 62, 0
2, 102768, Note_on_c, 1, 65, 45
2, 102816, Note_on_c, 1, 65, 0
2, 102816, Note_on_c, 1, 74, 45
2, 102864, Note_on_c, 1, 74, 0
2, 102864, Note_on_c, 1, 70, 45
2, 102910, Note_on_c, 1, 70, 0
2, 102912, Note_on_c, 1, 69, 45
2, 103072, Note_on_c, 1, 69, 0
2, 104448, Note_on_c, 1, 85, 45
2, 104496, Note_on_c, 1, 85, 0
2, 104496, Note_on_c, 1, 86, 45
2, 104544, Note_on_c, 1, 86, 0
2, 104544, Note_on_c, 1, 85, 45
2, 104592, Note_on_c, 1, 85, 0
2, 104592, Note_on_c, 1, 86, 45
2, 104640, Note_on_c, 1, 86, 0
2, 104640, Note_on_c, 1, 85, 45
2, 104688, Note_on_c, 1, 85, 0
2, 104688, Note_on_c, 1, 86, 45
2, 104736, Note_on_c, 1, 86, 0
2, 104736, Note_on_c, 1, 81, 45
2, 104784, Note_on_c, 1, 81, 0
2, 104784, Note_on_c, 1, 78, 45
2, 104830, Note_on_c, 1, 78, 0
2, 104832, Note_on_c, 1, 74, 45
2, 104992, Note_on_c, 1, 74, 0
2, 106176, Note_on_c, 1, 84, 45
2, 106560, Note_on_c, 1, 84, 0
2, 106560, Note_on_c, 1, 83, 65
2, 106720, Note_on_c, 1, 83, 0
2, 106752, Note_on_c, 1, 84, 45
2, 107040, Note_on_c, 1, 84, 0
2, 107040, Note_on_c, 1, 86, 45
2, 107064, Note_on_c, 1, 86, 0
2, 107064, Note_on_c, 1, 84, 45
2, 107088, Note_on_c, 1, 84, 0
2, 107088, Note_on_c, 1, 83, 45
2, 107112, Note_on_c, 1, 83, 0
2, 107112, Note_on_c, 1, 81, 45
2, 107134, Note_on_c, 1, 81, 0
2, 107136, Note_on_c, 1, 79, 45
2, 107168, Note_on_c, 1, 79, 0
2, 107232, Note_on_c, 1, 79, 45
2, 107264, Note_on_c, 1, 79, 0
2, 107328, Note_on_c, 1, 79, 45
2, 107360, Note_on_c, 1, 79, 0
2, 107424, Note_on_c, 1, 79, 45
2, 107456, Note_on_c, 1, 79, 0
2, 107520, Note_on_c, 1, 79, 45
2, 107680, Note_on_c, 1, 79, 0
2, 108000, Note_on_c, 1, 79, 45
2, 108032, Note_on_c, 1, 79, 0
2, 108096, Note_on_c, 1, 79, 45
2, 108128, Note_on_c, 1, 79, 0
2, 108192, Note_on_c, 1, 79, 45
2, 108224, Note_on_c, 1, 79, 0
2, 108288, Note_on_c, 1, 86, 45
2, 108336, Note_on_c, 1, 86, 0
2, 108336, Note_on_c, 1, 84, 45
2, 108384, Note_on_c, 1, 84, 0
2, 108384, Note_on_c, 1, 83, 45
2, 108432, Note_on_c, 1, 83, 0
2, 108432, Note_on_c, 1, 84, 45
2, 108480, Note_on_c, 1, 84, 0
2, 108480, Note_on_c, 1, 86, 45
2, 108528, Note_on_c, 1, 86, 0
2, 108528, Note_on_c, 1, 84, 45
2, 108576, Note_on_c, 1, 84, 0
2, 108576, Note_on_c, 1, 83, 45
2, 108624, Note_on_c, 1, 83, 0
2, 108624, Note_on_c, 1, 81, 45
2, 108670, Note_on_c, 1, 81, 0
2, 108672, Note_on_c, 1, 79, 45
2, 108704, Note_on_c, 1, 79, 0
2, 108768, Note_on_c, 1, 79, 45
2, 108800, Note_on_c, 1, 79, 0
2, 108864, Note_on_c, 1, 79, 45
2, 108896, Note_on_c, 1, 79, 0
2, 108960, Note_on_c, 1, 79, 45
2, 108992, Note_on_c, 1, 79, 0
2, 109056, Note_on_c, 1, 79, 45
2, 109216, Note_on_c, 1, 79, 0
2, 109536, Note_on_c, 1, 72, 45
2, 109568, Note_on_c, 1, 72, 0
2, 109632, Note_on_c, 1, 72, 55
2, 109664, Note_on_c, 1, 72, 0
2, 109728, Note_on_c, 1, 72, 65
2, 109760, Note_on_c, 1, 72, 0
2, 109824, Note_on_c, 1, 77, 45
2, 110112, Note_on_c, 1, 77, 0
2, 110112, Note_on_c, 1, 79, 45
2, 110136, Note_on_c, 1, 79, 0
2, 110136, Note_on_c, 1, 77, 45
2, 110160, Note_on_c, 1, 77, 0
2, 110160, Note_on_c, 1, 76, 45
2, 110184, Note_on_c, 1, 76, 0
2, 110184, Note_on_c, 1, 74, 45
2, 110206, Note_on_c, 1, 74, 0
2, 110208, Note_on_c, 1, 72, 45
2, 110240, Note_on_c, 1, 72, 0
2, 110304, Note_on_c, 1, 72, 45
2, 110336, Note_on_c, 1, 72, 0
2, 110400, Note_on_c, 1, 72, 45
2, 110432, Note_on_c, 1, 72, 0
2, 110496, Note_on_c, 1, 72, 45
2, 110528, Note_on_c, 1, 72, 0
2, 110592, Note_on_c, 1, 72, 45
2, 110752, Note_on_c, 1, 72, 0
2, 111072, Note_on_c, 1, 72, 45
2, 111104, Note_on_c, 1, 72, 0
2, 111168, Note_on_c, 1, 72, 45
2, 111200, Note_on_c, 1, 72, 0
2, 111264, Note_on_c, 1, 72, 45
2, 111296, Note_on_c, 1, 72, 0
2, 111360, Note_on_c, 1, 79, 45
2, 111408, Note_on_c, 1, 79, 0
2, 111408, Note_on_c, 1, 77, 45
2, 111456, Note_on_c, 1, 77, 0
2, 111456, Note_on_c, 1, 76, 45
2, 111504, Note_on_c, 1, 76, 0
2, 111504, Note_on_c, 1, 77, 45
2, 111552, Note_on_c, 1, 77, 0
2, 111552, Note_on_c, 1, 79, 45
2, 111600, Note_on_c, 1, 79, 0
2, 111600, Note_on_c, 1, 77, 45
2, 111648, Note_on_c, 1, 77, 0
2, 111648, Note_on_c, 1, 76, 45
2, 111696, Note_on_c, 1, 76, 0
2, 111696, Note_on_c, 1, 74, 45
2, 111742, Note_on_c, 1, 74, 0
2, 111744, Note_on_c, 1, 72, 45
2, 111776, Note_on_c, 1, 72, 0
2, 111840, Note_on_c, 1, 72, 45
2, 111872, Note_on_c, 1, 72, 0
2, 111936, Note_on_c, 1, 72, 45
2, 111968, Note_on_c, 1, 72, 0
2, 112032, Note_on_c, 1, 72, 45
2, 112064, Note_on_c, 1, 72, 0
2, 112128, Note_on_c, 1, 72, 45
2, 112288, Note_on_c, 1, 72, 0
2, 112608, Note_on_c, 1, 84, 45
2, 112640, Note_on_c, 1, 84, 0
2, 112704, Note_on_c, 1, 84, 55
2, 112736, Note_on_c, 1, 84, 0
2, 112800, Note_on_c, 1, 84, 65
2, 112832, Note_on_c, 1, 84, 0
2, 112896, Note_on_c, 1, 86, 45
2, 112944, Note_on_c, 1, 86, 0
2, 112944, Note_on_c, 1, 84, 45
2, 112992, Note_on_c, 1, 84, 0
2, 112992, Note_on_c, 1, 83, 45
2, 113040, Note_on_c, 1, 83, 0
2, 113040, Note_on_c, 1, 84, 45
2, 113088, Note_on_c, 1, 84, 0
2, 113088, Note_on_c, 1, 86, 45
2, 113136, Note_on_c, 1, 86, 0
2, 113136, Note_on_c, 1, 84, 45
2, 113184, Note_on_c, 1, 84, 0
2, 113184, Note_on_c, 1, 82, 45
2, 113232, Note_on_c, 1, 82, 0
2, 113232, Note_on_c, 1, 79, 45
2, 113278, Note_on_c, 1, 79, 0
2, 113280, Note_on_c, 1, 82, 45
2, 113328, Note_on_c, 1, 82, 0
2, 113328, Note_on_c, 1, 81, 45
2, 113376, Note_on_c, 1, 81, 0
2, 113376, Note_on_c, 1, 80, 45
2, 113424, Note_on_c, 1, 80, 0
2, 113424, Note_on_c, 1, 81, 45
2, 113472, Note_on_c, 1, 81, 0
2, 113472, Note_on_c, 1, 82, 45
2, 113520, Note_on_c, 1, 82, 0
2, 113520, Note_on_c, 1, 81, 45
2, 113568, Note_on_c, 1, 81, 0
2, 113568, Note_on_c, 1, 79, 45
2, 113616, Note_on_c, 1, 79, 0
2, 113616, Note_on_c, 1, 76, 45
2, 113662, Note_on_c, 1, 76, 0
2, 113664, Note_on_c, 1, 79, 45
2, 113712, Note_on_c, 1, 79, 0
2, 113712, Note_on_c, 1, 77, 45
2, 113760, Note_on_c, 1, 77, 0
2, 113760, Note_on_c, 1, 76, 45
2, 113808, Note_on_c, 1, 76, 0
2, 113808, Note_on_c, 1, 77, 45
2, 113856, Note_on_c, 1, 77, 0
2, 113856, Note_on_c, 1, 79, 45
2, 113904, Note_on_c, 1, 79, 0
2, 113904, Note_on_c, 1, 77, 45
2, 113952, Note_on_c, 1, 77, 0
2, 113952, Note_on_c, 1, 75, 45
2, 114000, Note_on_c, 1, 75, 0
2, 114000, Note_on_c, 1, 72, 45
2, 114046, Note_on_c, 1, 72, 0
2, 114048, Note_on_c, 1, 73, 45
2, 114096, Note_on_c, 1, 73, 0
2, 114096, Note_on_c, 1, 74, 45
2, 114144, Note_on_c, 1, 74, 0
2, 114144, Note_on_c, 1, 75, 45
2, 114192, Note_on_c, 1, 75, 0
2, 114192, Note_on_c, 1, 76, 45
2, 114240, Note_on_c, 1, 76, 0
2, 114240, Note_on_c, 1, 77, 45
2, 114288, Note_on_c, 1, 77, 0
2, 114288, Note_on_c, 1, 78, 45
2, 114336, Note_on_c, 1, 78, 0
2, 114336, Note_on_c, 1, 79, 45
2, 114384, Note_on_c, 1, 79, 0
2, 114384, Note_on_c, 1, 80, 45
2, 114430, Note_on_c, 1, 80, 0
2, 114432, Note_on_c, 1, 81, 45
2, 114480, Note_on_c, 1, 81, 0
2, 114480, Note_on_c, 1, 82, 45
2, 114528, Note_on_c, 1, 82, 0
2, 114528, Note_on_c, 1, 83, 45
2, 114576, Note_on_c, 1, 83, 0
2, 114576, Note_on_c, 1, 84, 45
2, 114624, Note_on_c, 1, 84, 0
2, 114624, Note_on_c, 1, 85, 45
2, 114672, Note_on_c, 1, 85, 0
2, 114672, Note_on_c, 1, 86, 45
2, 114720, Note_on_c, 1, 86, 0
2, 114720, Note_on_c, 1, 82, 45
2, 114768, Note_on_c, 1, 82, 0
2, 114768, Note_on_c, 1, 79, 45
2, 114814, Note_on_c, 1, 79, 0
2, 114816, Note_on_c, 1, 79, 45
2, 114864, Note_on_c, 1, 79, 0
2, 114864, Note_on_c, 1, 77, 45
2, 114910, Note_on_c, 1, 77, 0
2, 114912, Note_on_c, 1, 77, 45
2, 114944, Note_on_c, 1, 77, 0
2, 114960, Note_on_c, 1, 77, 45
2, 114992, Note_on_c, 1, 77, 0
2, 115008, Note_on_c, 1, 77, 45
2, 115056, Note_on_c, 1, 77, 0
2, 115056, Note_on_c, 1, 76, 45
2, 115102, Note_on_c, 1, 76, 0
2, 115104, Note_on_c, 1, 76, 45
2, 115136, Note_on_c, 1, 76, 0
2, 115152, Note_on_c, 1, 76, 45
2, 115184, Note_on_c, 1, 76, 0
2, 115488, Note_on_c, 1, 84, 45
2, 115680, Note_on_c, 1, 84, 0
2, 115680, Note_on_c, 1, 89, 45
2, 115774, Note_on_c, 1, 89, 0
2, 115872, Note_on_c, 1, 81, 45
2, 115966, Note_on_c, 1, 81, 0
2, 115968, Note_on_c, 1, 91, 45
2, 116016, Note_on_c, 1, 91, 0
2, 116016, Note_on_c, 1, 89, 45
2, 116064, Note_on_c, 1, 89, 0
2, 116064, Note_on_c, 1, 88, 45
2, 116112, Note_on_c, 1, 88, 0
2, 116112, Note_on_c, 1, 89, 45
2, 116160, Note_on_c, 1, 89, 0
2, 116160, Note_on_c, 1, 91, 45
2, 116208, Note_on_c, 1, 91, 0
2, 116208, Note_on_c, 1, 89, 45
2, 116256, Note_on_c, 1, 89, 0
2, 116256, Note_on_c, 1, 87, 45
2, 116304, Note_on_c, 1, 87, 0
2, 116304, Note_on_c, 1, 84, 45
2, 116350, Note_on_c, 1, 84, 0
2, 116352, Note_on_c, 1, 87, 45
2, 116400, Note_on_c, 1, 87, 0
2, 116400, Note_on_c, 1, 86, 45
2, 116448, Note_on_c, 1, 86, 0
2, 116448, Note_on_c, 1, 85, 45
2, 116496, Note_on_c, 1, 85, 0
2, 116496, Note_on_c, 1, 86, 45
2, 116544, Note_on_c, 1, 86, 0
2, 116544, Note_on_c, 1, 87, 45
2, 116592, Note_on_c, 1, 87, 0
2, 116592, Note_on_c, 1, 86, 45
2, 116640, Note_on_c, 1, 86, 0
2, 116640, Note_on_c, 1, 84, 45
2, 116688, Note_on_c, 1, 84, 0
2, 116688, Note_on_c, 1, 81, 45
2, 116734, Note_on_c, 1, 81, 0
2, 116736, Note_on_c, 1, 84, 45
2, 116784, Note_on_c, 1, 84, 0
2, 116784, Note_on_c, 1, 82, 46
2, 116832, Note_on_c, 1, 82, 0
2, 116832, Note_on_c, 1, 86, 47
2, 116880, Note_on_c, 1, 86, 0
2, 116880, Note_on_c, 1, 84, 49
2, 116928, Note_on_c, 1, 84, 0
2, 116928, Note_on_c, 1, 82, 51
2, 116976, Note_on_c, 1, 82, 0
2, 116976, Note_on_c, 1, 81, 53
2, 117024, Note_on_c, 1, 81, 0
2, 117024, Note_on_c, 1, 79, 55
2, 117072, Note_on_c, 1, 79, 0
2, 117072, Note_on_c, 1, 77, 57
2, 117118, Note_on_c, 1, 77, 0
2, 117120, Note_on_c, 1, 76, 59
2, 117168, Note_on_c, 1, 76, 0
2, 117168, Note_on_c, 1, 77, 61
2, 117216, Note_on_c, 1, 77, 0
2, 117216, Note_on_c, 1, 79, 63
2, 117264, Note_on_c, 1, 79, 0
2, 117264, Note_on_c, 1, 81, 65
2, 117312, Note_on_c, 1, 81, 0
2, 117312, Note_on_c, 1, 82, 67
2, 117360, Note_on_c, 1, 82, 0
2, 117360, Note_on_c, 1, 84, 69
2, 117408, Note_on_c, 1, 84, 0
2, 117408, Note_on_c, 1, 86, 71
2, 117456, Note_on_c, 1, 86, 0
2, 117456, Note_on_c, 1, 88, 73
2, 117502, Note_on_c, 1, 88, 0
2, 117504, Note_on_c, 1, 89, 45
2, 117536, Note_on_c, 1, 89, 0
2, 117552, Note_on_c, 1, 84, 45
2, 117600, Note_on_c, 1, 84, 0
2, 117600, Note_on_c, 1, 93, 63
2, 117648, Note_on_c, 1, 93, 0
2, 117648, Note_on_c, 1, 89, 45
2, 117694, Note_on_c, 1, 89, 0
2, 117696, Note_on_c, 1, 89, 45
2, 117744, Note_on_c, 1, 89, 0
2, 117744, Note_on_c, 1, 88, 45
2, 117792, Note_on_c, 1, 88, 0
2, 117792, Note_on_c, 1, 86, 45
2, 117840, Note_on_c, 1, 86, 0
2, 117840, Note_on_c, 1, 88, 45
2, 117886, Note_on_c, 1, 88, 0
2, 117888, Note_on_c, 1, 89, 45
2, 117920, Note_on_c, 1, 89, 0
2, 117936, Note_on_c, 1, 84, 45
2, 117984, Note_on_c, 1, 84, 0
2, 117984, Note_on_c, 1, 93, 63
2, 118032, Note_on_c, 1, 93, 0
2, 118032, Note_on_c, 1, 89, 45
2, 118078, Note_on_c, 1, 89, 0
2, 118080, Note_on_c, 1, 89, 45
2, 118128, Note_on_c, 1, 89, 0
2, 118128, Note_on_c, 1, 88, 45
2, 118176, Note_on_c, 1, 88, 0
2, 118176, Note_on_c, 1, 86, 45
2, 118224, Note_on_c, 1, 86, 0
2, 118224, Note_on_c, 1, 88, 45
2, 118270, Note_on_c, 1, 88, 0
2, 118272, Note_on_c, 1, 89, 45
2, 118320, Note_on_c, 1, 89, 0
2, 118320, Note_on_c, 1, 93, 45
2, 118368, Note_on_c, 1, 93, 0
2, 118368, Note_on_c, 1, 84, 45
2, 118416, Note_on_c, 1, 84, 0
2, 118416, Note_on_c, 1, 89, 45
2, 118462, Note_on_c, 1, 89, 0
2, 118464, Note_on_c, 1, 86, 45
2, 118512, Note_on_c, 1, 86, 0
2, 118512, Note_on_c, 1, 89, 45
2, 118560, Note_on_c, 1, 89, 0
2, 118560, Note_on_c, 1, 82, 45
2, 118608, Note_on_c, 1, 82, 0
2, 118608, Note_on_c, 1, 86, 45
2, 118654, Note_on_c, 1, 86, 0
2, 118656, Note_on_c, 1, 81, 45
2, 118704, Note_on_c, 1, 81, 0
2, 118704, Note_on_c, 1, 84, 45
2, 118752, Note_on_c, 1, 84, 0
2, 118752, Note_on_c, 1, 77, 45
2, 118800, Note_on_c, 1, 77, 0
2, 118800, Note_on_c, 1, 81, 45
2, 118846, Note_on_c, 1, 81, 0
2, 118848, Note_on_c, 1, 79, 45
2, 118896, Note_on_c, 1, 79, 0
2, 118896, Note_on_c, 1, 82, 45
2, 118944, Note_on_c, 1, 82, 0
2, 118944, Note_on_c, 1, 76, 45
2, 118992, Note_on_c, 1, 76, 0
2, 118992, Note_on_c, 1, 79, 45
2, 119038, Note_on_c, 1, 79, 0
2, 119040, Note_on_c, 1, 77, 45
2, 119134, Note_on_c, 1, 77, 0
2, 119136, Note_on_c, 1, 84, 63
2, 119518, Note_on_c, 1, 84, 0
2, 119520, Note_on_c, 1, 84, 85
2, 119856, Note_on_c, 1, 84, 0
2, 119856, Note_on_c, 1, 89, 45
2, 119904, Note_on_c, 1, 89, 0
2, 119904, Note_on_c, 1, 80, 45
2, 119952, Note_on_c, 1, 80, 0
2, 119952, Note_on_c, 1, 84, 45
2, 119998, Note_on_c, 1, 84, 0
2, 120000, Note_on_c, 1, 82, 45
2, 120048, Note_on_c, 1, 82, 0
2, 120048, Note_on_c, 1, 85, 45
2, 120096, Note_on_c, 1, 85, 0
2, 120096, Note_on_c, 1, 79, 45
2, 120144, Note_on_c, 1, 79, 0
2, 120144, Note_on_c, 1, 82, 45
2, 120190, Note_on_c, 1, 82, 0
2, 120192, Note_on_c, 1, 80, 45
2, 120240, Note_on_c, 1, 80, 0
2, 120240, Note_on_c, 1, 84, 45
2, 120288, Note_on_c, 1, 84, 0
2, 120288, Note_on_c, 1, 77, 45
2, 120336, Note_on_c, 1, 77, 0
2, 120336, Note_on_c, 1, 80, 45
2, 120382, Note_on_c, 1, 80, 0
2, 120384, Note_on_c, 1, 79, 45
2, 120432, Note_on_c, 1, 79, 0
2, 120432, Note_on_c, 1, 82, 45
2, 120480, Note_on_c, 1, 82, 0
2, 120480, Note_on_c, 1, 76, 45
2, 120528, Note_on_c, 1, 76, 0
2, 120528, Note_on_c, 1, 79, 45
2, 120574, Note_on_c, 1, 79, 0
2, 120576, Note_on_c, 1, 77, 45
2, 120864, Note_on_c, 1, 77, 0
2, 120864, Note_on_c, 1, 80, 45
2, 120958, Note_on_c, 1, 80, 0
2, 120960, Note_on_c, 1, 82, 45
2, 121248, Note_on_c, 1, 82, 0
2, 121248, Note_on_c, 1, 79, 45
2, 121342, Note_on_c, 1, 79, 0
2, 121344, Note_on_c, 1, 80, 45
2, 121632, Note_on_c, 1, 80, 0
2, 121632, Note_on_c, 1, 77, 45
2, 121726, Note_on_c, 1, 77, 0
2, 121728, Note_on_c, 1, 79, 45
2, 121872, Note_on_c, 1, 79, 0
2, 121872, Note_on_c, 1, 76, 45
2, 121918, Note_on_c, 1, 76, 0
2, 121920, Note_on_c, 1, 77, 45
2, 121944, Note_on_c, 1, 77, 0
2, 121944, Note_on_c, 1, 76, 45
2, 121968, Note_on_c, 1, 76, 0
2, 121968, Note_on_c, 1, 77, 45
2, 121992, Note_on_c, 1, 77, 0
2, 121992, Note_on_c, 1, 76, 45
2, 122016, Note_on_c, 1, 76, 0
2, 122016, Note_on_c, 1, 77, 45
2, 122040, Note_on_c, 1, 77, 0
2, 122040, Note_on_c, 1, 76, 45
2, 122064, Note_on_c, 1, 76, 0
2, 122064, Note_on_c, 1, 74, 45
2, 122088, Note_on_c, 1, 74, 0
2, 122088, Note_on_c, 1, 76, 45
2, 122110, Note_on_c, 1, 76, 0
2, 122144, Note_on_c, 1, 83, 45
2, 122176, Note_on_c, 1, 83, 0
2, 122176, Note_on_c, 1, 84, 45
2, 122208, Note_on_c, 1, 84, 0
2, 122208, Note_on_c, 1, 86, 45
2, 122240, Note_on_c, 1, 86, 0
2, 122240, Note_on_c, 1, 84, 45
2, 122272, Note_on_c, 1, 84, 0
2, 122272, Note_on_c, 1, 83, 45
2, 122302, Note_on_c, 1, 83, 0
2, 122304, Note_on_c, 1, 84, 45
2, 122528, Note_on_c, 1, 84, 0
2, 122528, Note_on_c, 1, 83, 48
2, 122560, Note_on_c, 1, 83, 0
2, 122560, Note_on_c, 1, 84, 48
2, 122592, Note_on_c, 1, 84, 0
2, 122592, Note_on_c, 1, 86, 48
2, 122624, Note_on_c, 1, 86, 0
2, 122624, Note_on_c, 1, 84, 48
2, 122656, Note_on_c, 1, 84, 0
2, 122656, Note_on_c, 1, 83, 48
2, 122686, Note_on_c, 1, 83, 0
2, 122688, Note_on_c, 1, 84, 48
2, 122912, Note_on_c, 1, 84, 0
2, 122912, Note_on_c, 1, 83, 52
2, 122944, Note_on_c, 1, 83, 0
2, 122944, Note_on_c, 1, 84, 52
2, 122976, Note_on_c, 1, 84, 0
2, 122976, Note_on_c, 1, 86, 52
2, 123008, Note_on_c, 1, 86, 0
2, 123008, Note_on_c, 1, 84, 52
2, 123040, Note_on_c, 1, 84, 0
2, 123040, Note_on_c, 1, 83, 52
2, 123070, Note_on_c, 1, 83, 0
2, 123072, Note_on_c, 1, 84, 52
2, 123358, Note_on_c, 1, 84, 0
2, 123360, Note_on_c, 1, 84, 58
2, 123392, Note_on_c, 1, 84, 0
2, 123456, Note_on_c, 1, 84, 60
2, 123488, Note_on_c, 1, 84, 0
2, 123552, Note_on_c, 1, 84, 62
2, 123584, Note_on_c, 1, 84, 0
2, 123648, Note_on_c, 1, 77, 64
2, 123742, Note_on_c, 1, 77, 0
2, 123936, Note_on_c, 1, 82, 70
2, 123968, Note_on_c, 1, 82, 0
2, 123968, Note_on_c, 1, 84, 70
2, 124000, Note_on_c, 1, 84, 0
2, 124000, Note_on_c, 1, 82, 70
2, 124030, Note_on_c, 1, 82, 0
2, 124032, Note_on_c, 1, 81, 70
2, 124126, Note_on_c, 1, 81, 0
2, 124320, Note_on_c, 1, 81, 77
2, 124352, Note_on_c, 1, 81, 0
2, 124352, Note_on_c, 1, 79, 78
2, 124384, Note_on_c, 1, 79, 0
2, 124384, Note_on_c, 1, 81, 79
2, 124414, Note_on_c, 1, 81, 0
2, 124416, Note_on_c, 1, 82, 80
2, 124510, Note_on_c, 1, 82, 0
2, 124704, Note_on_c, 1, 86, 89
2, 124736, Note_on_c, 1, 86, 0
2, 124736, Note_on_c, 1, 84, 90
2, 124768, Note_on_c, 1, 84, 0
2, 124768, Note_on_c, 1, 86, 91
2, 124798, Note_on_c, 1, 86, 0
2, 124800, Note_on_c, 1, 87, 92
2, 125088, Note_on_c, 1, 87, 0
2, 125088, Note_on_c, 1, 81, 92
2, 125182, Note_on_c, 1, 81, 0
2, 125184, Note_on_c, 1, 82, 45
2, 125216, Note_on_c, 1, 82, 0
2, 125216, Note_on_c, 1, 81, 45
2, 125248, Note_on_c, 1, 81, 0
2, 125248, Note_on_c, 1, 82, 45
2, 125280, Note_on_c, 1, 82, 0
2, 125280, Note_on_c, 1, 84, 45
2, 125312, Note_on_c, 1, 84, 0
2, 125312, Note_on_c, 1, 82, 45
2, 125344, Note_on_c, 1, 82, 0
2, 125344, Note_on_c, 1, 81, 45
2, 125376, Note_on_c, 1, 81, 0
2, 125376, Note_on_c, 1, 79, 45
2, 125408, Note_on_c, 1, 79, 0
2, 125408, Note_on_c, 1, 77, 45
2, 125440, Note_on_c, 1, 77, 0
2, 125440, Note_on_c, 1, 75, 45
2, 125472, Note_on_c, 1, 75, 0
2, 125472, Note_on_c, 1, 74, 45
2, 125504, Note_on_c, 1, 74, 0
2, 125504, Note_on_c, 1, 72, 45
2, 125536, Note_on_c, 1, 72, 0
2, 125536, Note_on_c, 1, 70, 45
2, 125566, Note_on_c, 1, 70, 0
2, 125568, Note_on_c, 1, 69, 45
2, 125600, Note_on_c, 1, 69, 0
2, 125664, Note_on_c, 1, 69, 45
2, 125696, Note_on_c, 1, 69, 0
2, 125760, Note_on_c, 1, 72, 45
2, 125792, Note_on_c, 1, 72, 0
2, 125952, Note_on_c, 1, 84, 45
2, 125984, Note_on_c, 1, 84, 0
2, 125984, Note_on_c, 1, 83, 45
2, 126016, Note_on_c, 1, 83, 0
2, 126016, Note_on_c, 1, 84, 45
2, 126048, Note_on_c, 1, 84, 0
2, 126048, Note_on_c, 1, 86, 45
2, 126080, Note_on_c, 1, 86, 0
2, 126080, Note_on_c, 1, 84, 45
2, 126112, Note_on_c, 1, 84, 0
2, 126112, Note_on_c, 1, 82, 45
2, 126144, Note_on_c, 1, 82, 0
2, 126144, Note_on_c, 1, 81, 45
2, 126176, Note_on_c, 1, 81, 0
2, 126176, Note_on_c, 1, 79, 45
2, 126208, Note_on_c, 1, 79, 0
2, 126208, Note_on_c, 1, 77, 45
2, 126240, Note_on_c, 1, 77, 0
2, 126240, Note_on_c, 1, 75, 45
2, 126272, Note_on_c, 1, 75, 0
2, 126272, Note_on_c, 1, 74, 45
2, 126304, Note_on_c, 1, 74, 0
2, 126304, Note_on_c, 1, 72, 45
2, 126334, Note_on_c, 1, 72, 0
2, 126336, Note_on_c, 1, 71, 45
2, 126368, Note_on_c, 1, 71, 0
2, 126432, Note_on_c, 1, 71, 45
2, 126464, Note_on_c, 1, 71, 0
2, 126528, Note_on_c, 1, 74, 45
2, 126560, Note_on_c, 1, 74, 0
2, 127680, Note_on_c, 1, 79, 45
2, 127712, Note_on_c, 1, 79, 0
2, 127776, Note_on_c, 1, 79, 45
2, 127808, Note_on_c, 1, 79, 0
2, 127872, Note_on_c, 1, 82, 30
2, 127904, Note_on_c, 1, 82, 0
2, 127968, Note_on_c, 1, 82, 30
2, 128000, Note_on_c, 1, 82, 0
2, 128064, Note_on_c, 1, 79, 30
2, 128096, Note_on_c, 1, 79, 0
2, 128256, Note_on_c, 1, 76, 30
2, 128288, Note_on_c, 1, 76, 0
2, 128352, Note_on_c, 1, 76, 30
2, 128384, Note_on_c, 1, 76, 0
2, 128448, Note_on_c, 1, 73, 30
2, 128480, Note_on_c, 1, 73, 0
2, 128640, Note_on_c, 1, 81, 30
2, 128672, Note_on_c, 1, 81, 0
2, 128736, Note_on_c, 1, 81, 30
2, 128768, Note_on_c, 1, 81, 0
2, 128832, Note_on_c, 1, 78, 30
2, 128864, Note_on_c, 1, 78, 0
2, 129024, Note_on_c, 1, 75, 30
2, 129056, Note_on_c, 1, 75, 0
2, 129120, Note_on_c, 1, 75, 30
2, 129152, Note_on_c, 1, 75, 0
2, 129216, Note_on_c, 1, 72, 30
2, 129248, Note_on_c, 1, 72, 0
2, 129408, Note_on_c, 1, 80, 30
2, 129440, Note_on_c, 1, 80, 0
2, 129504, Note_on_c, 1, 80, 30
2, 129536, Note_on_c, 1, 80, 0
2, 129600, Note_on_c, 1, 77, 30
2, 129632, Note_on_c, 1, 77, 0
2, 129792, Note_on_c, 1, 74, 30
2, 129824, Note_on_c, 1, 74, 0
2, 129888, Note_on_c, 1, 74, 30
2, 129920, Note_on_c, 1, 74, 0
2, 129984, Note_on_c, 1, 71, 30
2, 130016, Note_on_c, 1, 71, 0
2, 130176, Note_on_c, 1, 74, 30
2, 130208, Note_on_c, 1, 74, 0
2, 130272, Note_on_c, 1, 74, 30
2, 130304, Note_on_c, 1, 74, 0
2, 130368, Note_on_c, 1, 71, 30
2, 130400, Note_on_c, 1, 71, 0
2, 130560, Note_on_c, 1, 74, 30
2, 130592, Note_on_c, 1, 74, 0
2, 130656, Note_on_c, 1, 74, 30
2, 130688, Note_on_c, 1, 74, 0
2, 130752, Note_on_c, 1, 71, 30
2, 130784, Note_on_c, 1, 71, 0
2, 130944, Note_on_c, 1, 73, 30
2, 130976, Note_on_c, 1, 73, 0
2, 131040, Note_on_c, 1, 73, 30
2, 131072, Note_on_c, 1, 73, 0
2, 131136, Note_on_c, 1, 70, 30
2, 131168, Note_on_c, 1, 70, 0
2, 131328, Note_on_c, 1, 73, 30
2, 131360, Note_on_c, 1, 73, 0
2, 131424, Note_on_c, 1, 73, 30
2, 131456, Note_on_c, 1, 73, 0
2, 131520, Note_on_c, 1, 70, 30
2, 131552, Note_on_c, 1, 70, 0
2, 131712, Note_on_c, 1, 73, 30
2, 131806, Note_on_c, 1, 73, 0
2, 131808, Note_on_c, 1, 73, 35
2, 131902, Note_on_c, 1, 73, 0
2, 131904, Note_on_c, 1, 70, 40
2, 131998, Note_on_c, 1, 70, 0
2, 132000, Note_on_c, 1, 70, 45
2, 132094, Note_on_c, 1, 70, 0
2, 132096, Note_on_c, 1, 70, 51
2, 132190, Note_on_c, 1, 70, 0
2, 132192, Note_on_c, 1, 70, 57
2, 132286, Note_on_c, 1, 70, 0
2, 132288, Note_on_c, 1, 76, 63
2, 132382, Note_on_c, 1, 76, 0
2, 132384, Note_on_c, 1, 76, 69
2, 132478, Note_on_c, 1, 76, 0
2, 132480, Note_on_c, 1, 77, 45
2, 132574, Note_on_c, 1, 77, 0
2, 134016, Note_on_c, 1, 77, 45
2, 134048, Note_on_c, 1, 77, 0
2, 134048, Note_on_c, 1, 76, 45
2, 134080, Note_on_c, 1, 76, 0
2, 134080, Note_on_c, 1, 77, 45
2, 134112, Note_on_c, 1, 77, 0
2, 134112, Note_on_c, 1, 79, 45
2, 134144, Note_on_c, 1, 79, 0
2, 134144, Note_on_c, 1, 77, 45
2, 134176, Note_on_c, 1, 77, 0
2, 134176, Note_on_c, 1, 76, 45
2, 134208, Note_on_c, 1, 76, 0
2, 134208, Note_on_c, 1, 74, 45
2, 134240, Note_on_c, 1, 74, 0
2, 134240, Note_on_c, 1, 72, 45
2, 134272, Note_on_c, 1, 72, 0
2, 134272, Note_on_c, 1, 70, 45
2, 134304, Note_on_c, 1, 70, 0
2, 134304, Note_on_c, 1, 69, 45
2, 134336, Note_on_c, 1, 69, 0
2, 134336, Note_on_c, 1, 67, 45
2, 134368, Note_on_c, 1, 67, 0
2, 134368, Note_on_c, 1, 65, 45
2, 134398, Note_on_c, 1, 65, 0
2, 134400, Note_on_c, 1, 64, 45
2, 134432, Note_on_c, 1, 64, 0
2, 134496, Note_on_c, 1, 64, 45
2, 134528, Note_on_c, 1, 64, 0
2, 134592, Note_on_c, 1, 67, 45
2, 134624, Note_on_c, 1, 67, 0
2, 134784, Note_on_c, 1, 79, 45
2, 134816, Note_on_c, 1, 79, 0
2, 134816, Note_on_c, 1, 78, 45
2, 134848, Note_on_c, 1, 78, 0
2, 134848, Note_on_c, 1, 79, 45
2, 134880, Note_on_c, 1, 79, 0
2, 134880, Note_on_c, 1, 81, 45
2, 134912, Note_on_c, 1, 81, 0
2, 134912, Note_on_c, 1, 79, 45
2, 134944, Note_on_c, 1, 79, 0
2, 134944, Note_on_c, 1, 77, 45
2, 134976, Note_on_c, 1, 77, 0
2, 134976, Note_on_c, 1, 76, 45
2, 135008, Note_on_c, 1, 76, 0
2, 135008, Note_on_c, 1, 74, 45
2, 135040, Note_on_c, 1, 74, 0
2, 135040, Note_on_c, 1, 72, 45
2, 135072, Note_on_c, 1, 72, 0
2, 135072, Note_on_c, 1, 70, 45
2, 135104, Note_on_c, 1, 70, 0
2, 135104, Note_on_c, 1, 69, 45
2, 135136, Note_on_c, 1, 69, 0
2, 135136, Note_on_c, 1, 67, 45
2, 135166, Note_on_c, 1, 67, 0
2, 135168, Note_on_c, 1, 65, 45
2, 135200, Note_on_c, 1, 65, 0
2, 135264, Note_on_c, 1, 65, 45
2, 135296, Note_on_c, 1, 65, 0
2, 135360, Note_on_c, 1, 69, 45
2, 135392, Note_on_c, 1, 69, 0
2, 135552, Note_on_c, 1, 81, 45
2, 135936, Note_on_c, 1, 81, 0
2, 135936, Note_on_c, 1, 82, 56
2, 136192, Note_on_c, 1, 82, 0
2, 136224, Note_on_c, 1, 79, 65
2, 136318, Note_on_c, 1, 79, 0
2, 136320, Note_on_c, 1, 76, 68
2, 136352, Note_on_c, 1, 76, 0
2, 136416, Note_on_c, 1, 72, 71
2, 136448, Note_on_c, 1, 72, 0
2, 136512, Note_on_c, 1, 84, 74
2, 136798, Note_on_c, 1, 84, 0
2, 136800, Note_on_c, 1, 81, 83
2, 136832, Note_on_c, 1, 81, 0
2, 136896, Note_on_c, 1, 84, 86
2, 136928, Note_on_c, 1, 84, 0
2, 136992, Note_on_c, 1, 81, 89
2, 137024, Note_on_c, 1, 81, 0
2, 137088, Note_on_c, 1, 87, 92
2, 137120, Note_on_c, 1, 87, 0
2, 137120, Note_on_c, 1, 86, 92
2, 137152, Note_on_c, 1, 86, 0
2, 137152, Note_on_c, 1, 87, 92
2, 137184, Note_on_c, 1, 87, 0
2, 137184, Note_on_c, 1, 89, 92
2, 137216, Note_on_c, 1, 89, 0
2, 137216, Note_on_c, 1, 87, 92
2, 137248, Note_on_c, 1, 87, 0
2, 137248, Note_on_c, 1, 86, 92
2, 137280, Note_on_c, 1, 86, 0
2, 137280, Note_on_c, 1, 84, 92
2, 137312, Note_on_c, 1, 84, 0
2, 137312, Note_on_c, 1, 82, 92
2, 137344, Note_on_c, 1, 82, 0
2, 137344, Note_on_c, 1, 81, 92
2, 137376, Note_on_c, 1, 81, 0
2, 137376, Note_on_c, 1, 79, 92
2, 137408, Note_on_c, 1, 79, 0
2, 137408, Note_on_c, 1, 77, 92
2, 137440, Note_on_c, 1, 77, 0
2, 137440, Note_on_c, 1, 75, 92
2, 137470, Note_on_c, 1, 75, 0
2, 137472, Note_on_c, 1, 74, 92
2, 137504, Note_on_c, 1, 74, 0
2, 137568, Note_on_c, 1, 74, 92
2, 137600, Note_on_c, 1, 74, 0
2, 137664, Note_on_c, 1, 86, 92
2, 137696, Note_on_c, 1, 86, 0
2, 137856, Note_on_c, 1, 76, 92
2, 137888, Note_on_c, 1, 76, 0
2, 137952, Note_on_c, 1, 76, 92
2, 137984, Note_on_c, 1, 76, 0
2, 138048, Note_on_c, 1, 88, 92
2, 138080, Note_on_c, 1, 88, 0
2, 138240, Note_on_c, 1, 77, 92
2, 138272, Note_on_c, 1, 77, 0
2, 138336, Note_on_c, 1, 77, 92
2, 138368, Note_on_c, 1, 77, 0
2, 138432, Note_on_c, 1, 89, 92
2, 138464, Note_on_c, 1, 89, 0
2, 138624, Note_on_c, 1, 81, 92
2, 138960, Note_on_c, 1, 81, 0
2, 139008, Note_on_c, 1, 82, 92
2, 139344, Note_on_c, 1, 82, 0
2, 139392, Note_on_c, 1, 81, 92
2, 139416, Note_on_c, 1, 81, 0
2, 139416, Note_on_c, 1, 79, 92
2, 139440, Note_on_c, 1, 79, 0
2, 139440, Note_on_c, 1, 81, 92
2, 139464, Note_on_c, 1, 81, 0
2, 139464, Note_on_c, 1, 79, 92
2, 139488, Note_on_c, 1, 79, 0
2, 139488, Note_on_c, 1, 81, 92
2, 139512, Note_on_c, 1, 81, 0
2, 139512, Note_on_c, 1, 79, 92
2, 139536, Note_on_c, 1, 79, 0
2, 139536, Note_on_c, 1, 81, 92
2, 139560, Note_on_c, 1, 81, 0
2, 139560, Note_on_c, 1, 79, 92
2, 139584, Note_on_c, 1, 79, 0
2, 139584, Note_on_c, 1, 81, 92
2, 139608, Note_on_c, 1, 81, 0
2, 139608, Note_on_c, 1, 79, 92
2, 139632, Note_on_c, 1, 79, 0
2, 139632, Note_on_c, 1, 81, 92
2, 139656, Note_on_c, 1, 81, 0
2, 139656, Note_on_c, 1, 79, 92
2, 139680, Note_on_c, 1, 79, 0
2, 139680, Note_on_c, 1, 81, 92
2, 139704, Note_on_c, 1, 81, 0
2, 139704, Note_on_c, 1, 79, 92
2, 139728, Note_on_c, 1, 79, 0
2, 139728, Note_on_c, 1, 81, 92
2, 139752, Note_on_c, 1, 81, 0
2, 139752, Note_on_c, 1, 79, 92
2, 139774, Note_on_c, 1, 79, 0
2, 139776, Note_on_c, 1, 77, 92
2, 139870, Note_on_c, 1, 77, 0
2, 139968, Note_on_c, 1, 72, 45
2, 140000, Note_on_c, 1, 72, 0
2, 140000, Note_on_c, 1, 71, 45
2, 140032, Note_on_c, 1, 71, 0
2, 140032, Note_on_c, 1, 72, 45
2, 140064, Note_on_c, 1, 72, 0
2, 140064, Note_on_c, 1, 74, 45
2, 140096, Note_on_c, 1, 74, 0
2, 140096, Note_on_c, 1, 72, 45
2, 140128, Note_on_c, 1, 72, 0
2, 140128, Note_on_c, 1, 70, 45
2, 140158, Note_on_c, 1, 70, 0
2, 140160, Note_on_c, 1, 69, 45
2, 140256, Note_on_c, 1, 69, 0
2, 140256, Note_on_c, 1, 77, 45
2, 140302, Note_on_c, 1, 77, 0
2, 140352, Note_on_c, 1, 72, 45
2, 140384, Note_on_c, 1, 72, 0
2, 140384, Note_on_c, 1, 71, 45
2, 140416, Note_on_c, 1, 71, 0
2, 140416, Note_on_c, 1, 72, 45
2, 140448, Note_on_c, 1, 72, 0
2, 140448, Note_on_c, 1, 74, 45
2, 140480, Note_on_c, 1, 74, 0
2, 140480, Note_on_c, 1, 72, 45
2, 140512, Note_on_c, 1, 72, 0
2, 140512, Note_on_c, 1, 70, 45
2, 140542, Note_on_c, 1, 70, 0
2, 140544, Note_on_c, 1, 69, 45
2, 140640, Note_on_c, 1, 69, 0
2, 140640, Note_on_c, 1, 81, 45
2, 140686, Note_on_c, 1, 81, 0
2, 140736, Note_on_c, 1, 72, 45
2, 140768, Note_on_c, 1, 72, 0
2, 140768, Note_on_c, 1, 71, 45
2, 140800, Note_on_c, 1, 71, 0
2, 140800, Note_on_c, 1, 72, 45
2, 140832, Note_on_c, 1, 72, 0
2, 140832, Note_on_c, 1, 74, 45
2, 140864, Note_on_c, 1, 74, 0
2, 140864, Note_on_c, 1, 72, 45
2, 140896, Note_on_c, 1, 72, 0
2, 140896, Note_on_c, 1, 70, 45
2, 140926, Note_on_c, 1, 70, 0
2, 140928, Note_on_c, 1, 69, 45
2, 141024, Note_on_c, 1, 69, 0
2, 141024, Note_on_c, 1, 77, 45
2, 141070, Note_on_c, 1, 77, 0
2, 141120, Note_on_c, 1, 70, 45
2, 141216, Note_on_c, 1, 70, 0
2, 141216, Note_on_c, 1, 79, 46
2, 141262, Note_on_c, 1, 79, 0
2, 141312, Note_on_c, 1, 72, 46
2, 141408, Note_on_c, 1, 72, 0
2, 141408, Note_on_c, 1, 81, 47
2, 141454, Note_on_c, 1, 81, 0
2, 141504, Note_on_c, 1, 74, 47
2, 141600, Note_on_c, 1, 74, 0
2, 141600, Note_on_c, 1, 82, 48
2, 141646, Note_on_c, 1, 82, 0
2, 141696, Note_on_c, 1, 77, 48
2, 141792, Note_on_c, 1, 77, 0
2, 141792, Note_on_c, 1, 84, 49
2, 141838, Note_on_c, 1, 84, 0
2, 141888, Note_on_c, 1, 77, 49
2, 141984, Note_on_c, 1, 77, 0
2, 141984, Note_on_c, 1, 86, 50
2, 142030, Note_on_c, 1, 86, 0
2, 142080, Note_on_c, 1, 79, 50
2, 142176, Note_on_c, 1, 79, 0
2, 142176, Note_on_c, 1, 88, 51
2, 142222, Note_on_c, 1, 88, 0
2, 142272, Note_on_c, 1, 81, 51
2, 142368, Note_on_c, 1, 81, 0
2, 142368, Note_on_c, 1, 89, 52
2, 142414, Note_on_c, 1, 89, 0
2, 142464, Note_on_c, 1, 79, 52
2, 142560, Note_on_c, 1, 79, 0
2, 142560, Note_on_c, 1, 89, 54
2, 142606, Note_on_c, 1, 89, 0
2, 142656, Note_on_c, 1, 79, 56
2, 142752, Note_on_c, 1, 79, 0
2, 142752, Note_on_c, 1, 89, 58
2, 142798, Note_on_c, 1, 89, 0
2, 142848, Note_on_c, 1, 81, 60
2, 142944, Note_on_c, 1, 81, 0
2, 142944, Note_on_c, 1, 89, 62
2, 142990, Note_on_c, 1, 89, 0
2, 143040, Note_on_c, 1, 79, 63
2, 143136, Note_on_c, 1, 79, 0
2, 143136, Note_on_c, 1, 88, 65
2, 143182, Note_on_c, 1, 88, 0
2, 143232, Note_on_c, 1, 81, 67
2, 143328, Note_on_c, 1, 81, 0
2, 143328, Note_on_c, 1, 89, 69
2, 143374, Note_on_c, 1, 89, 0
2, 143424, Note_on_c, 1, 82, 71
2, 143520, Note_on_c, 1, 82, 0
2, 143520, Note_on_c, 1, 91, 73
2, 143566, Note_on_c, 1, 91, 0
2, 143616, Note_on_c, 1, 81, 75
2, 143712, Note_on_c, 1, 81, 0
2, 143712, Note_on_c, 1, 89, 77
2, 143758, Note_on_c, 1, 89, 0
2, 143808, Note_on_c, 1, 79, 79
2, 143904, Note_on_c, 1, 79, 0
2, 143904, Note_on_c, 1, 88, 81
2, 143950, Note_on_c, 1, 88, 0
2, 144000, Note_on_c, 1, 81, 83
2, 144096, Note_on_c, 1, 81, 0
2, 144096, Note_on_c, 1, 89, 85
2, 144142, Note_on_c, 1, 89, 0
2, 144192, Note_on_c, 1, 82, 87
2, 144288, Note_on_c, 1, 82, 0
2, 144288, Note_on_c, 1, 91, 89
2, 144334, Note_on_c, 1, 91, 0
2, 144384, Note_on_c, 1, 81, 92
2, 144480, Note_on_c, 1, 81, 0
2, 144480, Note_on_c, 1, 89, 92
2, 144526, Note_on_c, 1, 89, 0
2, 144576, Note_on_c, 1, 79, 92
2, 144672, Note_on_c, 1, 79, 0
2, 144672, Note_on_c, 1, 88, 92
2, 144718, Note_on_c, 1, 88, 0
2, 144768, Note_on_c, 1, 81, 92
2, 144864, Note_on_c, 1, 81, 0
2, 144864, Note_on_c, 1, 89, 92
2, 144910, Note_on_c, 1, 89, 0
2, 144960, Note_on_c, 1, 79, 92
2, 145056, Note_on_c, 1, 79, 0
2, 145056, Note_on_c, 1, 88, 92
2, 145102, Note_on_c, 1, 88, 0
2, 145152, Note_on_c, 1, 81, 92
2, 145248, Note_on_c, 1, 81, 0
2, 145248, Note_on_c, 1, 89, 92
2, 145294, Note_on_c, 1, 89, 0
2, 145344, Note_on_c, 1, 79, 92
2, 145440, Note_on_c, 1, 79, 0
2, 145440, Note_on_c, 1, 88, 92
2, 145486, Note_on_c, 1, 88, 0
2, 145536, Note_on_c, 1, 89, 92
2, 145696, Note_on_c, 1, 89, 0
2, 145728, Note_on_c, 1, 67, 108
2, 145728, Note_on_c, 1, 70, 108
2, 145728, Note_on_c, 1, 76, 108
2, 145888, Note_on_c, 1, 76, 0
2, 145888, Note_on_c, 1, 70, 0
2, 145888, Note_on_c, 1, 67, 0
2, 145920, Note_on_c, 1, 65, 127
2, 146080, Note_on_c, 1, 65, 0
2, 146304, Control_c, 1, 7, 0
2, 146304, Note_on_c, 1, 70, 60
2, 147024, Note_on_c, 1, 70, 0
2, 147024, End_track
3, 0, Start_track
3, 0, Title_t, "Violino II."
3, 0, Program_c, 2, 48
3, 0, Control_c, 2, 7, 127
3, 0, Control_c, 2, 10, 64
3, 384, Note_on_c, 2, 58, 45
3, 416, Note_on_c, 2, 58, 0
3, 480, Note_on_c, 2, 58, 45
3, 512, Note_on_c, 2, 58, 0
3, 576, Note_on_c, 2, 58, 45
3, 608, Note_on_c, 2, 58, 0
3, 1152, Note_on_c, 2, 60, 45
3, 1184, Note_on_c, 2, 60, 0
3, 1248, Note_on_c, 2, 60, 45
3, 1280, Note_on_c, 2, 60, 0
3, 1344, Note_on_c, 2, 57, 45
3, 1376, Note_on_c, 2, 57, 0
3, 1632, Note_on_c, 2, 67, 45
3, 1728, Note_on_c, 2, 67, 0
3, 1728, Note_on_c, 2, 60, 45
3, 1824, Note_on_c, 2, 60, 0
3, 1824, Note_on_c, 2, 69, 45
3, 1918, Note_on_c, 2, 69, 0
3, 2016, Note_on_c, 2, 67, 45
3, 2112, Note_on_c, 2, 67, 0
3, 2112, Note_on_c, 2, 60, 45
3, 2208, Note_on_c, 2, 60, 0
3, 2208, Note_on_c, 2, 69, 45
3, 2302, Note_on_c, 2, 69, 0
3, 2400, Note_on_c, 2, 67, 45
3, 2496, Note_on_c, 2, 67, 0
3, 2496, Note_on_c, 2, 60, 45
3, 2592, Note_on_c, 2, 60, 0
3, 2592, Note_on_c, 2, 69, 45
3, 2686, Note_on_c, 2, 69, 0
3, 2688, Note_on_c, 2, 67, 45
3, 2784, Note_on_c, 2, 67, 0
3, 2784, Note_on_c, 2, 71, 45
3, 2880, Note_on_c, 2, 71, 0
3, 2880, Note_on_c, 2, 67, 45
3, 2974, Note_on_c, 2, 67, 0
3, 3456, Note_on_c, 2, 60, 45
3, 3488, Note_on_c, 2, 60, 0
3, 3552, Note_on_c, 2, 60, 45
3, 3584, Note_on_c, 2, 60, 0
3, 3648, Note_on_c, 2, 70, 45
3, 3680, Note_on_c, 2, 70, 0
3, 4224, Note_on_c, 2, 60, 45
3, 4256, Note_on_c, 2, 60, 0
3, 4320, Note_on_c, 2, 60, 45
3, 4352, Note_on_c, 2, 60, 0
3, 4416, Note_on_c, 2, 72, 45
3, 4448, Note_on_c, 2, 72, 0
3, 4704, Note_on_c, 2, 67, 45
3, 4800, Note_on_c, 2, 67, 0
3, 4800, Note_on_c, 2, 60, 45
3, 4896, Note_on_c, 2, 60, 0
3, 4896, Note_on_c, 2, 69, 45
3, 4990, Note_on_c, 2, 69, 0
3, 5088, Note_on_c, 2, 67, 45
3, 5184, Note_on_c, 2, 67, 0
3, 5184, Note_on_c, 2, 60, 45
3, 5280, Note_on_c, 2, 60, 0
3, 5280, Note_on_c, 2, 69, 45
3, 5374, Note_on_c, 2, 69, 0
3, 5472, Note_on_c, 2, 67, 45
3, 5568, Note_on_c, 2, 67, 0
3, 5568, Note_on_c, 2, 60, 51
3, 5662, Note_on_c, 2, 60, 0
3, 5664, Note_on_c, 2, 72, 57
3, 5696, Note_on_c, 2, 72, 0
3, 5760, Note_on_c, 2, 70, 64
3, 5792, Note_on_c, 2, 70, 0
3, 5856, Note_on_c, 2, 70, 71
3, 5888, Note_on_c, 2, 70, 0
3, 5952, Note_on_c, 2, 69, 78
3, 5984, Note_on_c, 2, 69, 0
3, 6048, Note_on_c, 2, 65, 85
3, 6080, Note_on_c, 2, 65, 0
3, 6144, Note_on_c, 2, 65, 92
3, 6304, Note_on_c, 2, 65, 0
3, 6336, Note_on_c, 2, 58, 92
3, 6496, Note_on_c, 2, 58, 0
3, 6528, Note_on_c, 2, 57, 108
3, 6688, Note_on_c, 2, 57, 0
3, 7104, Note_on_c, 2, 57, 45
3, 7152, Note_on_c, 2, 57, 0
3, 7152, Note_on_c, 2, 60, 45
3, 7200, Note_on_c, 2, 60, 0
3, 7200, Note_on_c, 2, 67, 45
3, 7248, Note_on_c, 2, 67, 0
3, 7248, Note_on_c, 2, 65, 45
3, 7294, Note_on_c, 2, 65, 0
3, 7296, Note_on_c, 2, 64, 45
3, 7456, Note_on_c, 2, 64, 0
3, 7872, Note_on_c, 2, 60, 45
3, 7920, Note_on_c, 2, 60, 0
3, 7920, Note_on_c, 2, 64, 45
3, 7968, Note_on_c, 2, 64, 0
3, 7968, Note_on_c, 2, 69, 45
3, 8016, Note_on_c, 2, 69, 0
3, 8016, Note_on_c, 2, 67, 45
3, 8062, Note_on_c, 2, 67, 0
3, 8064, Note_on_c, 2, 65, 45
3, 8224, Note_on_c, 2, 65, 0
3, 9120, Note_on_c, 2, 69, 45
3, 9216, Note_on_c, 2, 69, 0
3, 9216, Note_on_c, 2, 67, 45
3, 9248, Note_on_c, 2, 67, 0
3, 9312, Note_on_c, 2, 64, 45
3, 9344, Note_on_c, 2, 64, 0
3, 9408, Note_on_c, 2, 67, 45
3, 9440, Note_on_c, 2, 67, 0
3, 9504, Note_on_c, 2, 64, 45
3, 9536, Note_on_c, 2, 64, 0
3, 9600, Note_on_c, 2, 67, 45
3, 9792, Note_on_c, 2, 67, 0
3, 9792, Note_on_c, 2, 65, 45
3, 9886, Note_on_c, 2, 65, 0
3, 12864, Note_on_c, 2, 62, 45
3, 12912, Note_on_c, 2, 62, 0
3, 12912, Note_on_c, 2, 65, 45
3, 12960, Note_on_c, 2, 65, 0
3, 12960, Note_on_c, 2, 69, 45
3, 13008, Note_on_c, 2, 69, 0
3, 13008, Note_on_c, 2, 65, 45
3, 13054, Note_on_c, 2, 65, 0
3, 13056, Note_on_c, 2, 64, 45
3, 13150, Note_on_c, 2, 64, 0
3, 13632, Note_on_c, 2, 69, 45
3, 13680, Note_on_c, 2, 69, 0
3, 13680, Note_on_c, 2, 73, 45
3, 13728, Note_on_c, 2, 73, 0
3, 13728, Note_on_c, 2, 77, 45
3, 13776, Note_on_c, 2, 77, 0
3, 13776, Note_on_c, 2, 76, 45
3, 13822, Note_on_c, 2, 76, 0
3, 13824, Note_on_c, 2, 74, 45
3, 13918, Note_on_c, 2, 74, 0
3, 14208, Note_on_c, 2, 57, 45
3, 14256, Note_on_c, 2, 57, 0
3, 14256, Note_on_c, 2, 62, 45
3, 14304, Note_on_c, 2, 62, 0
3, 14304, Note_on_c, 2, 65, 45
3, 14352, Note_on_c, 2, 65, 0
3, 14352, Note_on_c, 2, 64, 45
3, 14400, Note_on_c, 2, 64, 0
3, 14400, Note_on_c, 2, 62, 45
3, 14448, Note_on_c, 2, 62, 0
3, 14448, Note_on_c, 2, 65, 45
3, 14496, Note_on_c, 2, 65, 0
3, 14496, Note_on_c, 2, 70, 45
3, 14544, Note_on_c, 2, 70, 0
3, 14544, Note_on_c, 2, 69, 45
3, 14590, Note_on_c, 2, 69, 0
3, 14592, Note_on_c, 2, 68, 45
3, 14686, Note_on_c, 2, 68, 0
3, 14976, Note_on_c, 2, 64, 45
3, 15024, Note_on_c, 2, 64, 0
3, 15024, Note_on_c, 2, 68, 45
3, 15072, Note_on_c, 2, 68, 0
3, 15072, Note_on_c, 2, 71, 45
3, 15120, Note_on_c, 2, 71, 0
3, 15120, Note_on_c, 2, 69, 45
3, 15168, Note_on_c, 2, 69, 0
3, 15168, Note_on_c, 2, 68, 45
3, 15216, Note_on_c, 2, 68, 0
3, 15216, Note_on_c, 2, 71, 45
3, 15264, Note_on_c, 2, 71, 0
3, 15264, Note_on_c, 2, 76, 45
3, 15312, Note_on_c, 2, 76, 0
3, 15312, Note_on_c, 2, 74, 45
3, 15358, Note_on_c, 2, 74, 0
3, 15408, Note_on_c, 2, 64, 45
3, 15456, Note_on_c, 2, 64, 0
3, 15456, Note_on_c, 2, 74, 47
3, 15504, Note_on_c, 2, 74, 0
3, 15504, Note_on_c, 2, 72, 49
3, 15550, Note_on_c, 2, 72, 0
3, 15600, Note_on_c, 2, 69, 53
3, 15648, Note_on_c, 2, 69, 0
3, 15648, Note_on_c, 2, 74, 55
3, 15696, Note_on_c, 2, 74, 0
3, 15696, Note_on_c, 2, 73, 57
3, 15742, Note_on_c, 2, 73, 0
3, 15792, Note_on_c, 2, 69, 61
3, 15840, Note_on_c, 2, 69, 0
3, 15840, Note_on_c, 2, 76, 63
3, 15888, Note_on_c, 2, 76, 0
3, 15888, Note_on_c, 2, 74, 65
3, 15934, Note_on_c, 2, 74, 0
3, 15984, Note_on_c, 2, 69, 69
3, 16032, Note_on_c, 2, 69, 0
3, 16032, Note_on_c, 2, 74, 71
3, 16080, Note_on_c, 2, 74, 0
3, 16080, Note_on_c, 2, 72, 73
3, 16126, Note_on_c, 2, 72, 0
3, 16128, Note_on_c, 2, 71, 45
3, 16222, Note_on_c, 2, 71, 0
3, 16608, Note_on_c, 2, 62, 45
3, 16640, Note_on_c, 2, 62, 0
3, 16704, Note_on_c, 2, 62, 45
3, 16736, Note_on_c, 2, 62, 0
3, 16800, Note_on_c, 2, 62, 45
3, 16832, Note_on_c, 2, 62, 0
3, 16896, Note_on_c, 2, 67, 45
3, 17184, Note_on_c, 2, 67, 0
3, 17184, Note_on_c, 2, 69, 45
3, 17208, Note_on_c, 2, 69, 0
3, 17208, Note_on_c, 2, 67, 45
3, 17232, Note_on_c, 2, 67, 0
3, 17232, Note_on_c, 2, 66, 45
3, 17256, Note_on_c, 2, 66, 0
3, 17256, Note_on_c, 2, 64, 45
3, 17278, Note_on_c, 2, 64, 0
3, 17280, Note_on_c, 2, 62, 45
3, 17312, Note_on_c, 2, 62, 0
3, 17376, Note_on_c, 2, 62, 45
3, 17408, Note_on_c, 2, 62, 0
3, 17472, Note_on_c, 2, 62, 45
3, 17504, Note_on_c, 2, 62, 0
3, 17568, Note_on_c, 2, 62, 45
3, 17600, Note_on_c, 2, 62, 0
3, 17664, Note_on_c, 2, 62, 45
3, 17824, Note_on_c, 2, 62, 0
3, 18144, Note_on_c, 2, 62, 45
3, 18176, Note_on_c, 2, 62, 0
3, 18240, Note_on_c, 2, 62, 45
3, 18272, Note_on_c, 2, 62, 0
3, 18336, Note_on_c, 2, 62, 45
3, 18368, Note_on_c, 2, 62, 0
3, 18432, Note_on_c, 2, 69, 45
3, 18480, Note_on_c, 2, 69, 0
3, 18480, Note_on_c, 2, 67, 46
3, 18528, Note_on_c, 2, 67, 0
3, 18528, Note_on_c, 2, 66, 47
3, 18576, Note_on_c, 2, 66, 0
3, 18576, Note_on_c, 2, 67, 49
3, 18624, Note_on_c, 2, 67, 0
3, 18624, Note_on_c, 2, 69, 51
3, 18672, Note_on_c, 2, 69, 0
3, 18672, Note_on_c, 2, 67, 53
3, 18720, Note_on_c, 2, 67, 0
3, 18720, Note_on_c, 2, 65, 55
3, 18768, Note_on_c, 2, 65, 0
3, 18768, Note_on_c, 2, 64, 57
3, 18814, Note_on_c, 2, 64, 0
3, 18816, Note_on_c, 2, 65, 59
3, 18848, Note_on_c, 2, 65, 0
3, 18912, Note_on_c, 2, 65, 63
3, 18944, Note_on_c, 2, 65, 0
3, 19008, Note_on_c, 2, 65, 67
3, 19040, Note_on_c, 2, 65, 0
3, 19104, Note_on_c, 2, 65, 71
3, 19136, Note_on_c, 2, 65, 0
3, 19200, Note_on_c, 2, 64, 60
3, 19360, Note_on_c, 2, 64, 0
3, 19680, Note_on_c, 2, 67, 45
3, 19712, Note_on_c, 2, 67, 0
3, 19776, Note_on_c, 2, 67, 45
3, 19808, Note_on_c, 2, 67, 0
3, 19872, Note_on_c, 2, 67, 45
3, 19904, Note_on_c, 2, 67, 0
3, 19968, Note_on_c, 2, 72, 45
3, 20256, Note_on_c, 2, 72, 0
3, 20256, Note_on_c, 2, 74, 45
3, 20280, Note_on_c, 2, 74, 0
3, 20280, Note_on_c, 2, 72, 45
3, 20304, Note_on_c, 2, 72, 0
3, 20304, Note_on_c, 2, 71, 45
3, 20328, Note_on_c, 2, 71, 0
3, 20328, Note_on_c, 2, 69, 45
3, 20350, Note_on_c, 2, 69, 0
3, 20352, Note_on_c, 2, 67, 45
3, 20384, Note_on_c, 2, 67, 0
3, 20448, Note_on_c, 2, 67, 45
3, 20480, Note_on_c, 2, 67, 0
3, 20544, Note_on_c, 2, 67, 45
3, 20576, Note_on_c, 2, 67, 0
3, 20640, Note_on_c, 2, 67, 45
3, 20672, Note_on_c, 2, 67, 0
3, 20736, Note_on_c, 2, 67, 45
3, 20896, Note_on_c, 2, 67, 0
3, 21216, Note_on_c, 2, 67, 45
3, 21248, Note_on_c, 2, 67, 0
3, 21312, Note_on_c, 2, 67, 45
3, 21344, Note_on_c, 2, 67, 0
3, 21408, Note_on_c, 2, 67, 45
3, 21440, Note_on_c, 2, 67, 0
3, 21504, Note_on_c, 2, 74, 45
3, 21552, Note_on_c, 2, 74, 0
3, 21552, Note_on_c, 2, 72, 46
3, 21600, Note_on_c, 2, 72, 0
3, 21600, Note_on_c, 2, 71, 47
3, 21648, Note_on_c, 2, 71, 0
3, 21648, Note_on_c, 2, 72, 49
3, 21696, Note_on_c, 2, 72, 0
3, 21696, Note_on_c, 2, 74, 51
3, 21744, Note_on_c, 2, 74, 0
3, 21744, Note_on_c, 2, 72, 53
3, 21792, Note_on_c, 2, 72, 0
3, 21792, Note_on_c, 2, 71, 55
3, 21840, Note_on_c, 2, 71, 0
3, 21840, Note_on_c, 2, 69, 57
3, 21886, Note_on_c, 2, 69, 0
3, 21888, Note_on_c, 2, 67, 59
3, 21920, Note_on_c, 2, 67, 0
3, 21984, Note_on_c, 2, 67, 63
3, 22016, Note_on_c, 2, 67, 0
3, 22080, Note_on_c, 2, 67, 67
3, 22112, Note_on_c, 2, 67, 0
3, 22176, Note_on_c, 2, 67, 71
3, 22208, Note_on_c, 2, 67, 0
3, 22272, Note_on_c, 2, 67, 45
3, 22366, Note_on_c, 2, 67, 0
3, 22560, Note_on_c, 2, 67, 45
3, 22752, Note_on_c, 2, 67, 0
3, 22752, Note_on_c, 2, 72, 45
3, 22846, Note_on_c, 2, 72, 0
3, 22944, Note_on_c, 2, 64, 45
3, 23136, Note_on_c, 2, 64, 0
3, 23136, Note_on_c, 2, 69, 45
3, 23230, Note_on_c, 2, 69, 0
3, 23328, Note_on_c, 2, 60, 45
3, 23518, Note_on_c, 2, 60, 0
3, 23904, Note_on_c, 2, 69, 45
3, 23998, Note_on_c, 2, 69, 0
3, 24096, Note_on_c, 2, 69, 45
3, 24190, Note_on_c, 2, 69, 0
3, 24288, Note_on_c, 2, 67, 45
3, 24382, Note_on_c, 2, 67, 0
3, 24480, Note_on_c, 2, 65, 45
3, 24574, Note_on_c, 2, 65, 0
3, 24576, Note_on_c, 2, 69, 45
3, 24624, Note_on_c, 2, 69, 0
3, 24624, Note_on_c, 2, 67, 45
3, 24672, Note_on_c, 2, 67, 0
3, 24672, Note_on_c, 2, 66, 45
3, 24720, Note_on_c, 2, 66, 0
3, 24720, Note_on_c, 2, 67, 45
3, 24768, Note_on_c, 2, 67, 0
3, 24768, Note_on_c, 2, 69, 45
3, 24816, Note_on_c, 2, 69, 0
3, 24816, Note_on_c, 2, 67, 45
3, 24864, Note_on_c, 2, 67, 0
3, 24864, Note_on_c, 2, 65, 45
3, 24912, Note_on_c, 2, 65, 0
3, 24912, Note_on_c, 2, 62, 45
3, 24958, Note_on_c, 2, 62, 0
3, 24960, Note_on_c, 2, 65, 45
3, 25008, Note_on_c, 2, 65, 0
3, 25008, Note_on_c, 2, 64, 45
3, 25056, Note_on_c, 2, 64, 0
3, 25056, Note_on_c, 2, 63, 45
3, 25104, Note_on_c, 2, 63, 0
3, 25104, Note_on_c, 2, 64, 45
3, 25152, Note_on_c, 2, 64, 0
3, 25152, Note_on_c, 2, 65, 45
3, 25200, Note_on_c, 2, 65, 0
3, 25200, Note_on_c, 2, 64, 45
3, 25248, Note_on_c, 2, 64, 0
3, 25248, Note_on_c, 2, 62, 45
3, 25296, Note_on_c, 2, 62, 0
3, 25296, Note_on_c, 2, 59, 45
3, 25342, Note_on_c, 2, 59, 0
3, 25344, Note_on_c, 2, 60, 45
3, 25438, Note_on_c, 2, 60, 0
3, 25632, Note_on_c, 2, 72, 45
3, 25824, Note_on_c, 2, 72, 0
3, 25824, Note_on_c, 2, 77, 45
3, 25918, Note_on_c, 2, 77, 0
3, 26016, Note_on_c, 2, 69, 45
3, 26208, Note_on_c, 2, 69, 0
3, 26208, Note_on_c, 2, 81, 45
3, 26302, Note_on_c, 2, 81, 0
3, 26304, Note_on_c, 2, 81, 49
3, 26336, Note_on_c, 2, 81, 0
3, 26400, Note_on_c, 2, 81, 53
3, 26432, Note_on_c, 2, 81, 0
3, 26496, Note_on_c, 2, 81, 57
3, 26688, Note_on_c, 2, 81, 0
3, 26688, Note_on_c, 2, 79, 66
3, 26784, Note_on_c, 2, 79, 0
3, 26784, Note_on_c, 2, 77, 70
3, 26878, Note_on_c, 2, 77, 0
3, 26880, Note_on_c, 2, 76, 45
3, 26912, Note_on_c, 2, 76, 0
3, 26976, Note_on_c, 2, 76, 63
3, 27072, Note_on_c, 2, 76, 0
3, 27072, Note_on_c, 2, 77, 45
3, 27168, Note_on_c, 2, 77, 0
3, 27168, Note_on_c, 2, 74, 45
3, 27262, Note_on_c, 2, 74, 0
3, 27264, Note_on_c, 2, 79, 45
3, 27296, Note_on_c, 2, 79, 0
3, 27360, Note_on_c, 2, 76, 63
3, 27456, Note_on_c, 2, 76, 0
3, 27456, Note_on_c, 2, 77, 45
3, 27552, Note_on_c, 2, 77, 0
3, 27552, Note_on_c, 2, 74, 45
3, 27646, Note_on_c, 2, 74, 0
3, 27648, Note_on_c, 2, 79, 45
3, 27744, Note_on_c, 2, 79, 0
3, 27744, Note_on_c, 2, 76, 45
3, 27840, Note_on_c, 2, 76, 0
3, 27840, Note_on_c, 2, 72, 45
3, 27936, Note_on_c, 2, 72, 0
3, 27936, Note_on_c, 2, 69, 45
3, 28032, Note_on_c, 2, 69, 0
3, 28032, Note_on_c, 2, 67, 45
3, 28128, Note_on_c, 2, 67, 0
3, 28128, Note_on_c, 2, 64, 45
3, 28224, Note_on_c, 2, 64, 0
3, 28224, Note_on_c, 2, 65, 45
3, 28320, Note_on_c, 2, 65, 0
3, 28320, Note_on_c, 2, 62, 45
3, 28414, Note_on_c, 2, 62, 0
3, 28416, Note_on_c, 2, 63, 45
3, 28448, Note_on_c, 2, 63, 0
3, 28464, Note_on_c, 2, 67, 45
3, 28512, Note_on_c, 2, 67, 0
3, 28512, Note_on_c, 2, 75, 63
3, 28560, Note_on_c, 2, 75, 0
3, 28560, Note_on_c, 2, 72, 45
3, 28606, Note_on_c, 2, 72, 0
3, 28608, Note_on_c, 2, 72, 45
3, 28656, Note_on_c, 2, 72, 0
3, 28656, Note_on_c, 2, 71, 45
3, 28704, Note_on_c, 2, 71, 0
3, 28704, Note_on_c, 2, 69, 45
3, 28752, Note_on_c, 2, 69, 0
3, 28752, Note_on_c, 2, 71, 45
3, 28798, Note_on_c, 2, 71, 0
3, 28800, Note_on_c, 2, 72, 45
3, 28832, Note_on_c, 2, 72, 0
3, 28848, Note_on_c, 2, 67, 45
3, 28896, Note_on_c, 2, 67, 0
3, 28896, Note_on_c, 2, 75, 63
3, 28944, Note_on_c, 2, 75, 0
3, 28944, Note_on_c, 2, 72, 45
3, 28990, Note_on_c, 2, 72, 0
3, 28992, Note_on_c, 2, 72, 45
3, 29040, Note_on_c, 2, 72, 0
3, 29040, Note_on_c, 2, 71, 46
3, 29088, Note_on_c, 2, 71, 0
3, 29088, Note_on_c, 2, 69, 47
3, 29136, Note_on_c, 2, 69, 0
3, 29136, Note_on_c, 2, 71, 48
3, 29182, Note_on_c, 2, 71, 0
3, 29184, Note_on_c, 2, 72, 49
3, 29278, Note_on_c, 2, 72, 0
3, 29280, Note_on_c, 2, 63, 52
3, 29328, Note_on_c, 2, 63, 0
3, 29328, Note_on_c, 2, 60, 53
3, 29376, Note_on_c, 2, 60, 0
3, 29376, Note_on_c, 2, 65, 54
3, 29424, Note_on_c, 2, 65, 0
3, 29424, Note_on_c, 2, 62, 55
3, 29470, Note_on_c, 2, 62, 0
3, 29568, Note_on_c, 2, 63, 59
3, 29616, Note_on_c, 2, 63, 0
3, 29616, Note_on_c, 2, 60, 61
3, 29662, Note_on_c, 2, 60, 0
3, 29760, Note_on_c, 2, 62, 67
3, 29808, Note_on_c, 2, 62, 0
3, 29808, Note_on_c, 2, 59, 69
3, 29854, Note_on_c, 2, 59, 0
3, 29952, Note_on_c, 2, 67, 45
3, 29984, Note_on_c, 2, 67, 0
3, 29984, Note_on_c, 2, 66, 45
3, 30016, Note_on_c, 2, 66, 0
3, 30016, Note_on_c, 2, 67, 45
3, 30048, Note_on_c, 2, 67, 0
3, 30048, Note_on_c, 2, 68, 45
3, 30080, Note_on_c, 2, 68, 0
3, 30080, Note_on_c, 2, 67, 45
3, 30112, Note_on_c, 2, 67, 0
3, 30112, Note_on_c, 2, 66, 45
3, 30142, Note_on_c, 2, 66, 0
3, 30144, Note_on_c, 2, 67, 45
3, 30368, Note_on_c, 2, 67, 0
3, 30368, Note_on_c, 2, 66, 45
3, 30400, Note_on_c, 2, 66, 0
3, 30400, Note_on_c, 2, 67, 45
3, 30432, Note_on_c, 2, 67, 0
3, 30432, Note_on_c, 2, 68, 45
3, 30464, Note_on_c, 2, 68, 0
3, 30464, Note_on_c, 2, 67, 45
3, 30496, Note_on_c, 2, 67, 0
3, 30496, Note_on_c, 2, 66, 45
3, 30526, Note_on_c, 2, 66, 0
3, 30528, Note_on_c, 2, 67, 45
3, 30752, Note_on_c, 2, 67, 0
3, 30752, Note_on_c, 2, 66, 45
3, 30784, Note_on_c, 2, 66, 0
3, 30784, Note_on_c, 2, 67, 45
3, 30816, Note_on_c, 2, 67, 0
3, 30816, Note_on_c, 2, 68, 45
3, 30848, Note_on_c, 2, 68, 0
3, 30848, Note_on_c, 2, 67, 45
3, 30880, Note_on_c, 2, 67, 0
3, 30880, Note_on_c, 2, 66, 45
3, 30910, Note_on_c, 2, 66, 0
3, 30912, Note_on_c, 2, 67, 45
3, 31198, Note_on_c, 2, 67, 0
3, 31200, Note_on_c, 2, 67, 45
3, 31232, Note_on_c, 2, 67, 0
3, 31296, Note_on_c, 2, 67, 45
3, 31328, Note_on_c, 2, 67, 0
3, 31392, Note_on_c, 2, 67, 45
3, 31424, Note_on_c, 2, 67, 0
3, 31488, Note_on_c, 2, 72, 45
3, 31776, Note_on_c, 2, 72, 0
3, 31776, Note_on_c, 2, 76, 50
3, 31870, Note_on_c, 2, 76, 0
3, 31872, Note_on_c, 2, 77, 51
3, 32160, Note_on_c, 2, 77, 0
3, 32160, Note_on_c, 2, 74, 56
3, 32254, Note_on_c, 2, 74, 0
3, 32256, Note_on_c, 2, 76, 57
3, 32544, Note_on_c, 2, 76, 0
3, 32544, Note_on_c, 2, 72, 62
3, 32638, Note_on_c, 2, 72, 0
3, 32640, Note_on_c, 2, 74, 63
3, 32784, Note_on_c, 2, 74, 0
3, 32784, Note_on_c, 2, 71, 65
3, 32830, Note_on_c, 2, 71, 0
3, 32832, Note_on_c, 2, 72, 65
3, 32856, Note_on_c, 2, 72, 0
3, 32856, Note_on_c, 2, 71, 65
3, 32880, Note_on_c, 2, 71, 0
3, 32880, Note_on_c, 2, 72, 65
3, 32904, Note_on_c, 2, 72, 0
3, 32904, Note_on_c, 2, 71, 65
3, 32928, Note_on_c, 2, 71, 0
3, 32928, Note_on_c, 2, 72, 65
3, 32952, Note_on_c, 2, 72, 0
3, 32952, Note_on_c, 2, 71, 65
3, 32976, Note_on_c, 2, 71, 0
3, 32976, Note_on_c, 2, 69, 65
3, 33000, Note_on_c, 2, 69, 0
3, 33000, Note_on_c, 2, 71, 65
3, 33022, Note_on_c, 2, 71, 0
3, 33024, Note_on_c, 2, 72, 65
3, 33056, Note_on_c, 2, 72, 0
3, 33056, Note_on_c, 2, 71, 65
3, 33088, Note_on_c, 2, 71, 0
3, 33088, Note_on_c, 2, 72, 65
3, 33120, Note_on_c, 2, 72, 0
3, 33120, Note_on_c, 2, 74, 65
3, 33152, Note_on_c, 2, 74, 0
3, 33152, Note_on_c, 2, 72, 65
3, 33184, Note_on_c, 2, 72, 0
3, 33184, Note_on_c, 2, 71, 65
3, 33214, Note_on_c, 2, 71, 0
3, 33216, Note_on_c, 2, 72, 65
3, 33440, Note_on_c, 2, 72, 0
3, 33440, Note_on_c, 2, 71, 70
3, 33472, Note_on_c, 2, 71, 0
3, 33472, Note_on_c, 2, 72, 70
3, 33504, Note_on_c, 2, 72, 0
3, 33504, Note_on_c, 2, 74, 71
3, 33536, Note_on_c, 2, 74, 0
3, 33536, Note_on_c, 2, 72, 72
3, 33568, Note_on_c, 2, 72, 0
3, 33568, Note_on_c, 2, 71, 73
3, 33598, Note_on_c, 2, 71, 0
3, 33600, Note_on_c, 2, 72, 74
3, 33824, Note_on_c, 2, 72, 0
3, 33824, Note_on_c, 2, 69, 81
3, 33856, Note_on_c, 2, 69, 0
3, 33856, Note_on_c, 2, 70, 82
3, 33888, Note_on_c, 2, 70, 0
3, 33888, Note_on_c, 2, 72, 83
3, 33920, Note_on_c, 2, 72, 0
3, 33920, Note_on_c, 2, 74, 84
3, 33952, Note_on_c, 2, 74, 0
3, 33952, Note_on_c, 2, 76, 85
3, 33984, Note_on_c, 2, 76, 0
3, 33984, Note_on_c, 2, 77, 86
3, 34016, Note_on_c, 2, 77, 0
3, 34016, Note_on_c, 2, 76, 87
3, 34048, Note_on_c, 2, 76, 0
3, 34048, Note_on_c, 2, 74, 88
3, 34080, Note_on_c, 2, 74, 0
3, 34080, Note_on_c, 2, 72, 89
3, 34112, Note_on_c, 2, 72, 0
3, 34112, Note_on_c, 2, 70, 90
3, 34144, Note_on_c, 2, 70, 0
3, 34144, Note_on_c, 2, 69, 91
3, 34174, Note_on_c, 2, 69, 0
3, 34176, Note_on_c, 2, 70, 92
3, 34208, Note_on_c, 2, 70, 0
3, 34208, Note_on_c, 2, 72, 92
3, 34240, Note_on_c, 2, 72, 0
3, 34240, Note_on_c, 2, 74, 92
3, 34272, Note_on_c, 2, 74, 0
3, 34272, Note_on_c, 2, 72, 92
3, 34304, Note_on_c, 2, 72, 0
3, 34304, Note_on_c, 2, 70, 92
3, 34336, Note_on_c, 2, 70, 0
3, 34336, Note_on_c, 2, 69, 92
3, 34368, Note_on_c, 2, 69, 0
3, 34368, Note_on_c, 2, 67, 92
3, 34400, Note_on_c, 2, 67, 0
3, 34400, Note_on_c, 2, 65, 92
3, 34432, Note_on_c, 2, 65, 0
3, 34432, Note_on_c, 2, 64, 92
3, 34464, Note_on_c, 2, 64, 0
3, 34464, Note_on_c, 2, 62, 92
3, 34496, Note_on_c, 2, 62, 0
3, 34496, Note_on_c, 2, 60, 92
3, 34528, Note_on_c, 2, 60, 0
3, 34528, Note_on_c, 2, 58, 92
3, 34558, Note_on_c, 2, 58, 0
3, 34560, Note_on_c, 2, 57, 45
3, 34654, Note_on_c, 2, 57, 0
3, 34944, Note_on_c, 2, 58, 45
3, 34976, Note_on_c, 2, 58, 0
3, 35040, Note_on_c, 2, 58, 45
3, 35072, Note_on_c, 2, 58, 0
3, 35136, Note_on_c, 2, 58, 45
3, 35168, Note_on_c, 2, 58, 0
3, 35712, Note_on_c, 2, 60, 45
3, 35744, Note_on_c, 2, 60, 0
3, 35808, Note_on_c, 2, 60, 45
3, 35840, Note_on_c, 2, 60, 0
3, 35904, Note_on_c, 2, 57, 45
3, 35936, Note_on_c, 2, 57, 0
3, 36192, Note_on_c, 2, 67, 45
3, 36288, Note_on_c, 2, 67, 0
3, 36288, Note_on_c, 2, 60, 45
3, 36384, Note_on_c, 2, 60, 0
3, 36384, Note_on_c, 2, 69, 45
3, 36478, Note_on_c, 2, 69, 0
3, 36576, Note_on_c, 2, 67, 45
3, 36672, Note_on_c, 2, 67, 0
3, 36672, Note_on_c, 2, 60, 45
3, 36768, Note_on_c, 2, 60, 0
3, 36768, Note_on_c, 2, 69, 45
3, 36862, Note_on_c, 2, 69, 0
3, 36960, Note_on_c, 2, 67, 45
3, 37056, Note_on_c, 2, 67, 0
3, 37056, Note_on_c, 2, 60, 45
3, 37152, Note_on_c, 2, 60, 0
3, 37152, Note_on_c, 2, 69, 45
3, 37246, Note_on_c, 2, 69, 0
3, 37248, Note_on_c, 2, 67, 45
3, 37344, Note_on_c, 2, 67, 0
3, 37344, Note_on_c, 2, 71, 45
3, 37440, Note_on_c, 2, 71, 0
3, 37440, Note_on_c, 2, 67, 45
3, 37534, Note_on_c, 2, 67, 0
3, 38208, Note_on_c, 2, 70, 45
3, 38240, Note_on_c, 2, 70, 0
3, 38304, Note_on_c, 2, 70, 45
3, 38336, Note_on_c, 2, 70, 0
3, 38400, Note_on_c, 2, 64, 45
3, 38432, Note_on_c, 2, 64, 0
3, 38976, Note_on_c, 2, 75, 45
3, 39008, Note_on_c, 2, 75, 0
3, 39072, Note_on_c, 2, 75, 45
3, 39104, Note_on_c, 2, 75, 0
3, 39168, Note_on_c, 2, 66, 45
3, 39262, Note_on_c, 2, 66, 0
3, 39360, Note_on_c, 2, 75, 50
3, 39454, Note_on_c, 2, 75, 0
3, 39456, Note_on_c, 2, 75, 53
3, 39550, Note_on_c, 2, 75, 0
3, 39552, Note_on_c, 2, 74, 56
3, 39646, Note_on_c, 2, 74, 0
3, 39744, Note_on_c, 2, 72, 62
3, 39838, Note_on_c, 2, 72, 0
3, 39840, Note_on_c, 2, 72, 65
3, 39934, Note_on_c, 2, 72, 0
3, 39936, Note_on_c, 2, 70, 68
3, 40030, Note_on_c, 2, 70, 0
3, 40128, Note_on_c, 2, 70, 74
3, 40222, Note_on_c, 2, 70, 0
3, 40224, Note_on_c, 2, 70, 77
3, 40318, Note_on_c, 2, 70, 0
3, 40320, Note_on_c, 2, 69, 80
3, 40414, Note_on_c, 2, 69, 0
3, 40512, Note_on_c, 2, 67, 86
3, 40606, Note_on_c, 2, 67, 0
3, 40608, Note_on_c, 2, 67, 89
3, 40702, Note_on_c, 2, 67, 0
3, 40704, Note_on_c, 2, 65, 92
3, 40798, Note_on_c, 2, 65, 0
3, 40896, Note_on_c, 2, 62, 92
3, 40990, Note_on_c, 2, 62, 0
3, 40992, Note_on_c, 2, 62, 92
3, 41086, Note_on_c, 2, 62, 0
3, 41088, Note_on_c, 2, 65, 92
3, 41182, Note_on_c, 2, 65, 0
3, 41280, Note_on_c, 2, 56, 92
3, 41374, Note_on_c, 2, 56, 0
3, 41376, Note_on_c, 2, 56, 92
3, 41470, Note_on_c, 2, 56, 0
3, 41472, Note_on_c, 2, 57, 92
3, 41566, Note_on_c, 2, 57, 0
3, 41856, Note_on_c, 2, 70, 127
3, 41888, Note_on_c, 2, 70, 0
3, 41888, Note_on_c, 2, 69, 92
3, 41920, Note_on_c, 2, 69, 0
3, 41920, Note_on_c, 2, 70, 92
3, 41952, Note_on_c, 2, 70, 0
3, 41952, Note_on_c, 2, 72, 92
3, 41984, Note_on_c, 2, 72, 0
3, 41984, Note_on_c, 2, 70, 92
3, 42016, Note_on_c, 2, 70, 0
3, 42016, Note_on_c, 2, 69, 92
3, 42048, Note_on_c, 2, 69, 0
3, 42048, Note_on_c, 2, 67, 92
3, 42080, Note_on_c, 2, 67, 0
3, 42080, Note_on_c, 2, 66, 92
3, 42112, Note_on_c, 2, 66, 0
3, 42112, Note_on_c, 2, 67, 92
3, 42144, Note_on_c, 2, 67, 0
3, 42144, Note_on_c, 2, 69, 92
3, 42176, Note_on_c, 2, 69, 0
3, 42176, Note_on_c, 2, 67, 92
3, 42208, Note_on_c, 2, 67, 0
3, 42208, Note_on_c, 2, 65, 92
3, 42238, Note_on_c, 2, 65, 0
3, 42240, Note_on_c, 2, 64, 92
3, 42272, Note_on_c, 2, 64, 0
3, 42336, Note_on_c, 2, 62, 92
3, 42368, Note_on_c, 2, 62, 0
3, 42432, Note_on_c, 2, 61, 92
3, 42464, Note_on_c, 2, 61, 0
3, 42624, Note_on_c, 2, 70, 127
3, 42656, Note_on_c, 2, 70, 0
3, 42656, Note_on_c, 2, 69, 92
3, 42688, Note_on_c, 2, 69, 0
3, 42688, Note_on_c, 2, 70, 92
3, 42720, Note_on_c, 2, 70, 0
3, 42720, Note_on_c, 2, 72, 92
3, 42752, Note_on_c, 2, 72, 0
3, 42752, Note_on_c, 2, 70, 92
3, 42784, Note_on_c, 2, 70, 0
3, 42784, Note_on_c, 2, 69, 92
3, 42816, Note_on_c, 2, 69, 0
3, 42816, Note_on_c, 2, 67, 92
3, 42848, Note_on_c, 2, 67, 0
3, 42848, Note_on_c, 2, 66, 92
3, 42880, Note_on_c, 2, 66, 0
3, 42880, Note_on_c, 2, 67, 92
3, 42912, Note_on_c, 2, 67, 0
3, 42912, Note_on_c, 2, 69, 92
3, 42944, Note_on_c, 2, 69, 0
3, 42944, Note_on_c, 2, 67, 92
3, 42976, Note_on_c, 2, 67, 0
3, 42976, Note_on_c, 2, 65, 92
3, 43006, Note_on_c, 2, 65, 0
3, 43008, Note_on_c, 2, 64, 92
3, 43040, Note_on_c, 2, 64, 0
3, 43104, Note_on_c, 2, 62, 92
3, 43136, Note_on_c, 2, 62, 0
3, 43200, Note_on_c, 2, 61, 92
3, 43232, Note_on_c, 2, 61, 0
3, 43392, Note_on_c, 2, 70, 92
3, 43424, Note_on_c, 2, 70, 0
3, 43424, Note_on_c, 2, 69, 92
3, 43456, Note_on_c, 2, 69, 0
3, 43456, Note_on_c, 2, 70, 92
3, 43488, Note_on_c, 2, 70, 0
3, 43488, Note_on_c, 2, 72, 92
3, 43520, Note_on_c, 2, 72, 0
3, 43520, Note_on_c, 2, 70, 92
3, 43552, Note_on_c, 2, 70, 0
3, 43552, Note_on_c, 2, 69, 92
3, 43584, Note_on_c, 2, 69, 0
3, 43584, Note_on_c, 2, 67, 92
3, 43616, Note_on_c, 2, 67, 0
3, 43616, Note_on_c, 2, 66, 92
3, 43648, Note_on_c, 2, 66, 0
3, 43648, Note_on_c, 2, 67, 92
3, 43680, Note_on_c, 2, 67, 0
3, 43680, Note_on_c, 2, 69, 93
3, 43712, Note_on_c, 2, 69, 0
3, 43712, Note_on_c, 2, 67, 94
3, 43744, Note_on_c, 2, 67, 0
3, 43744, Note_on_c, 2, 65, 95
3, 43774, Note_on_c, 2, 65, 0
3, 43776, Note_on_c, 2, 64, 96
3, 43808, Note_on_c, 2, 64, 0
3, 43808, Note_on_c, 2, 63, 97
3, 43840, Note_on_c, 2, 63, 0
3, 43840, Note_on_c, 2, 64, 98
3, 43872, Note_on_c, 2, 64, 0
3, 43872, Note_on_c, 2, 65, 99
3, 43904, Note_on_c, 2, 65, 0
3, 43904, Note_on_c, 2, 64, 100
3, 43936, Note_on_c, 2, 64, 0
3, 43936, Note_on_c, 2, 62, 101
3, 43966, Note_on_c, 2, 62, 0
3, 43968, Note_on_c, 2, 61, 102
3, 44062, Note_on_c, 2, 61, 0
3, 44064, Note_on_c, 2, 62, 105
3, 44158, Note_on_c, 2, 62, 0
3, 44160, Note_on_c, 2, 61, 92
3, 44192, Note_on_c, 2, 61, 0
3, 44256, Note_on_c, 2, 61, 92
3, 44288, Note_on_c, 2, 61, 0
3, 44352, Note_on_c, 2, 62, 92
3, 44384, Note_on_c, 2, 62, 0
3, 44448, Note_on_c, 2, 64, 92
3, 44480, Note_on_c, 2, 64, 0
3, 44544, Note_on_c, 2, 65, 127
3, 44638, Note_on_c, 2, 65, 0
3, 46080, Note_on_c, 2, 74, 127
3, 46112, Note_on_c, 2, 74, 0
3, 46112, Note_on_c, 2, 73, 92
3, 46144, Note_on_c, 2, 73, 0
3, 46144, Note_on_c, 2, 74, 92
3, 46176, Note_on_c, 2, 74, 0
3, 46176, Note_on_c, 2, 75, 92
3, 46208, Note_on_c, 2, 75, 0
3, 46208, Note_on_c, 2, 74, 92
3, 46240, Note_on_c, 2, 74, 0
3, 46240, Note_on_c, 2, 72, 92
3, 46272, Note_on_c, 2, 72, 0
3, 46272, Note_on_c, 2, 70, 92
3, 46304, Note_on_c, 2, 70, 0
3, 46304, Note_on_c, 2, 69, 92
3, 46336, Note_on_c, 2, 69, 0
3, 46336, Note_on_c, 2, 70, 92
3, 46368, Note_on_c, 2, 70, 0
3, 46368, Note_on_c, 2, 72, 92
3, 46400, Note_on_c, 2, 72, 0
3, 46400, Note_on_c, 2, 70, 92
3, 46432, Note_on_c, 2, 70, 0
3, 46432, Note_on_c, 2, 69, 92
3, 46462, Note_on_c, 2, 69, 0
3, 46464, Note_on_c, 2, 67, 92
3, 46496, Note_on_c, 2, 67, 0
3, 46560, Note_on_c, 2, 67, 92
3, 46592, Note_on_c, 2, 67, 0
3, 46656, Note_on_c, 2, 67, 92
3, 46688, Note_on_c, 2, 67, 0
3, 46752, Note_on_c, 2, 67, 92
3, 46784, Note_on_c, 2, 67, 0
3, 46848, Note_on_c, 2, 66, 92
3, 46880, Note_on_c, 2, 66, 0
3, 46944, Note_on_c, 2, 62, 45
3, 46976, Note_on_c, 2, 62, 0
3, 47040, Note_on_c, 2, 64, 45
3, 47072, Note_on_c, 2, 64, 0
3, 47136, Note_on_c, 2, 66, 45
3, 47168, Note_on_c, 2, 66, 0
3, 47232, Note_on_c, 2, 67, 45
3, 47264, Note_on_c, 2, 67, 0
3, 47328, Note_on_c, 2, 69, 45
3, 47360, Note_on_c, 2, 69, 0
3, 47424, Note_on_c, 2, 70, 45
3, 47456, Note_on_c, 2, 70, 0
3, 47520, Note_on_c, 2, 71, 45
3, 47552, Note_on_c, 2, 71, 0
3, 47616, Note_on_c, 2, 72, 45
3, 47710, Note_on_c, 2, 72, 0
3, 49344, Note_on_c, 2, 65, 63
3, 49792, Note_on_c, 2, 65, 0
3, 49824, Note_on_c, 2, 68, 45
3, 49840, Note_on_c, 2, 68, 0
3, 49840, Note_on_c, 2, 70, 45
3, 49856, Note_on_c, 2, 70, 0
3, 49856, Note_on_c, 2, 72, 45
3, 49872, Note_on_c, 2, 72, 0
3, 49872, Note_on_c, 2, 73, 45
3, 49888, Note_on_c, 2, 73, 0
3, 49888, Note_on_c, 2, 75, 45
3, 49904, Note_on_c, 2, 75, 0
3, 49904, Note_on_c, 2, 77, 45
3, 49918, Note_on_c, 2, 77, 0
3, 49920, Note_on_c, 2, 78, 45
3, 50176, Note_on_c, 2, 78, 0
3, 50208, Note_on_c, 2, 77, 68
3, 50302, Note_on_c, 2, 77, 0
3, 50304, Note_on_c, 2, 75, 76
3, 50336, Note_on_c, 2, 75, 0
3, 50400, Note_on_c, 2, 73, 84
3, 50432, Note_on_c, 2, 73, 0
3, 50496, Note_on_c, 2, 72, 92
3, 50528, Note_on_c, 2, 72, 0
3, 50592, Note_on_c, 2, 72, 100
3, 50624, Note_on_c, 2, 72, 0
3, 50688, Note_on_c, 2, 73, 108
3, 50782, Note_on_c, 2, 73, 0
3, 50784, Note_on_c, 2, 68, 30
3, 50878, Note_on_c, 2, 68, 0
3, 50880, Note_on_c, 2, 68, 30
3, 50974, Note_on_c, 2, 68, 0
3, 50976, Note_on_c, 2, 68, 30
3, 51070, Note_on_c, 2, 68, 0
3, 51072, Note_on_c, 2, 68, 30
3, 51166, Note_on_c, 2, 68, 0
3, 51168, Note_on_c, 2, 68, 30
3, 51262, Note_on_c, 2, 68, 0
3, 51264, Note_on_c, 2, 68, 30
3, 51358, Note_on_c, 2, 68, 0
3, 51360, Note_on_c, 2, 68, 30
3, 51454, Note_on_c, 2, 68, 0
3, 51456, Note_on_c, 2, 68, 30
3, 51550, Note_on_c, 2, 68, 0
3, 51552, Note_on_c, 2, 68, 30
3, 51646, Note_on_c, 2, 68, 0
3, 51648, Note_on_c, 2, 68, 30
3, 51742, Note_on_c, 2, 68, 0
3, 51744, Note_on_c, 2, 68, 30
3, 51838, Note_on_c, 2, 68, 0
3, 51840, Note_on_c, 2, 68, 30
3, 51934, Note_on_c, 2, 68, 0
3, 51936, Note_on_c, 2, 68, 30
3, 52030, Note_on_c, 2, 68, 0
3, 52032, Note_on_c, 2, 68, 30
3, 52126, Note_on_c, 2, 68, 0
3, 52128, Note_on_c, 2, 68, 30
3, 52222, Note_on_c, 2, 68, 0
3, 52224, Note_on_c, 2, 68, 30
3, 52320, Note_on_c, 2, 68, 0
3, 52320, Note_on_c, 2, 67, 30
3, 52414, Note_on_c, 2, 67, 0
3, 52416, Note_on_c, 2, 68, 30
3, 52704, Note_on_c, 2, 68, 0
3, 52704, Note_on_c, 2, 67, 30
3, 52798, Note_on_c, 2, 67, 0
3, 52800, Note_on_c, 2, 68, 30
3, 53088, Note_on_c, 2, 68, 0
3, 53088, Note_on_c, 2, 67, 30
3, 53182, Note_on_c, 2, 67, 0
3, 53184, Note_on_c, 2, 68, 30
3, 53472, Note_on_c, 2, 68, 0
3, 53472, Note_on_c, 2, 67, 30
3, 53566, Note_on_c, 2, 67, 0
3, 53568, Note_on_c, 2, 68, 30
3, 53856, Note_on_c, 2, 68, 0
3, 53856, Note_on_c, 2, 67, 30
3, 53950, Note_on_c, 2, 67, 0
3, 53952, Note_on_c, 2, 68, 30
3, 54240, Note_on_c, 2, 68, 0
3, 54240, Note_on_c, 2, 67, 30
3, 54334, Note_on_c, 2, 67, 0
3, 54336, Note_on_c, 2, 68, 30
3, 54622, Note_on_c, 2, 68, 0
3, 54624, Note_on_c, 2, 65, 42
3, 54718, Note_on_c, 2, 65, 0
3, 54720, Note_on_c, 2, 65, 30
3, 54814, Note_on_c, 2, 65, 0
3, 54816, Note_on_c, 2, 65, 30
3, 54910, Note_on_c, 2, 65, 0
3, 54912, Note_on_c, 2, 65, 30
3, 55006, Note_on_c, 2, 65, 0
3, 55008, Note_on_c, 2, 65, 42
3, 55102, Note_on_c, 2, 65, 0
3, 55104, Note_on_c, 2, 65, 30
3, 55198, Note_on_c, 2, 65, 0
3, 55200, Note_on_c, 2, 65, 30
3, 55294, Note_on_c, 2, 65, 0
3, 55296, Note_on_c, 2, 65, 30
3, 55390, Note_on_c, 2, 65, 0
3, 55392, Note_on_c, 2, 66, 42
3, 55486, Note_on_c, 2, 66, 0
3, 55488, Note_on_c, 2, 66, 30
3, 55582, Note_on_c, 2, 66, 0
3, 55584, Note_on_c, 2, 66, 30
3, 55678, Note_on_c, 2, 66, 0
3, 55680, Note_on_c, 2, 66, 30
3, 55774, Note_on_c, 2, 66, 0
3, 55776, Note_on_c, 2, 66, 42
3, 55870, Note_on_c, 2, 66, 0
3, 55872, Note_on_c, 2, 66, 30
3, 55966, Note_on_c, 2, 66, 0
3, 55968, Note_on_c, 2, 66, 30
3, 56062, Note_on_c, 2, 66, 0
3, 56064, Note_on_c, 2, 66, 30
3, 56158, Note_on_c, 2, 66, 0
3, 56160, Note_on_c, 2, 66, 42
3, 56254, Note_on_c, 2, 66, 0
3, 56256, Note_on_c, 2, 66, 30
3, 56350, Note_on_c, 2, 66, 0
3, 56352, Note_on_c, 2, 66, 30
3, 56446, Note_on_c, 2, 66, 0
3, 56448, Note_on_c, 2, 66, 30
3, 56542, Note_on_c, 2, 66, 0
3, 56544, Note_on_c, 2, 67, 42
3, 56638, Note_on_c, 2, 67, 0
3, 56640, Note_on_c, 2, 67, 30
3, 56734, Note_on_c, 2, 67, 0
3, 56736, Note_on_c, 2, 67, 30
3, 56830, Note_on_c, 2, 67, 0
3, 56832, Note_on_c, 2, 67, 30
3, 56926, Note_on_c, 2, 67, 0
3, 56928, Note_on_c, 2, 67, 42
3, 57022, Note_on_c, 2, 67, 0
3, 57024, Note_on_c, 2, 67, 30
3, 57118, Note_on_c, 2, 67, 0
3, 57120, Note_on_c, 2, 67, 30
3, 57214, Note_on_c, 2, 67, 0
3, 57216, Note_on_c, 2, 67, 30
3, 57310, Note_on_c, 2, 67, 0
3, 58272, Note_on_c, 2, 64, 45
3, 58368, Note_on_c, 2, 64, 0
3, 58368, Note_on_c, 2, 65, 45
3, 58656, Note_on_c, 2, 65, 0
3, 58656, Note_on_c, 2, 62, 45
3, 58752, Note_on_c, 2, 62, 0
3, 58752, Note_on_c, 2, 59, 45
3, 59040, Note_on_c, 2, 59, 0
3, 59040, Note_on_c, 2, 62, 45
3, 59136, Note_on_c, 2, 62, 0
3, 59136, Note_on_c, 2, 60, 45
3, 59424, Note_on_c, 2, 60, 0
3, 59424, Note_on_c, 2, 64, 45
3, 59520, Note_on_c, 2, 64, 0
3, 59520, Note_on_c, 2, 67, 45
3, 59776, Note_on_c, 2, 67, 0
3, 59808, Note_on_c, 2, 67, 45
3, 60000, Note_on_c, 2, 67, 0
3, 60000, Note_on_c, 2, 66, 45
3, 60094, Note_on_c, 2, 66, 0
3, 60096, Note_on_c, 2, 67, 45
3, 60384, Note_on_c, 2, 67, 0
3, 60384, Note_on_c, 2, 66, 45
3, 60478, Note_on_c, 2, 66, 0
3, 60480, Note_on_c, 2, 67, 45
3, 60766, Note_on_c, 2, 67, 0
3, 62208, Note_on_c, 2, 65, 63
3, 62686, Note_on_c, 2, 65, 0
3, 62688, Note_on_c, 2, 67, 45
3, 62712, Note_on_c, 2, 67, 0
3, 62712, Note_on_c, 2, 68, 45
3, 62736, Note_on_c, 2, 68, 0
3, 62736, Note_on_c, 2, 70, 45
3, 62760, Note_on_c, 2, 70, 0
3, 62760, Note_on_c, 2, 72, 45
3, 62782, Note_on_c, 2, 72, 0
3, 62784, Note_on_c, 2, 73, 45
3, 62816, Note_on_c, 2, 73, 0
3, 62880, Note_on_c, 2, 73, 45
3, 62912, Note_on_c, 2, 73, 0
3, 62976, Note_on_c, 2, 73, 63
3, 63168, Note_on_c, 2, 73, 0
3, 63168, Note_on_c, 2, 72, 45
3, 63262, Note_on_c, 2, 72, 0
3, 63264, Note_on_c, 2, 70, 45
3, 63296, Note_on_c, 2, 70, 0
3, 63360, Note_on_c, 2, 68, 45
3, 63392, Note_on_c, 2, 68, 0
3, 63456, Note_on_c, 2, 67, 45
3, 63488, Note_on_c, 2, 67, 0
3, 63552, Note_on_c, 2, 65, 45
3, 63584, Note_on_c, 2, 65, 0
3, 63648, Note_on_c, 2, 63, 45
3, 63680, Note_on_c, 2, 63, 0
3, 63744, Note_on_c, 2, 61, 45
3, 63776, Note_on_c, 2, 61, 0
3, 63840, Note_on_c, 2, 73, 45
3, 63872, Note_on_c, 2, 73, 0
3, 63936, Note_on_c, 2, 70, 45
3, 63968, Note_on_c, 2, 70, 0
3, 64032, Note_on_c, 2, 68, 45
3, 64064, Note_on_c, 2, 68, 0
3, 64128, Note_on_c, 2, 66, 45
3, 64222, Note_on_c, 2, 66, 0
3, 64224, Note_on_c, 2, 65, 45
3, 64318, Note_on_c, 2, 65, 0
3, 64320, Note_on_c, 2, 63, 45
3, 64414, Note_on_c, 2, 63, 0
3, 64416, Note_on_c, 2, 61, 45
3, 64510, Note_on_c, 2, 61, 0
3, 64512, Note_on_c, 2, 60, 45
3, 64606, Note_on_c, 2, 60, 0
3, 64608, Note_on_c, 2, 75, 45
3, 64702, Note_on_c, 2, 75, 0
3, 64704, Note_on_c, 2, 72, 45
3, 64798, Note_on_c, 2, 72, 0
3, 64800, Note_on_c, 2, 70, 45
3, 64894, Note_on_c, 2, 70, 0
3, 64896, Note_on_c, 2, 68, 45
3, 64990, Note_on_c, 2, 68, 0
3, 64992, Note_on_c, 2, 66, 45
3, 65086, Note_on_c, 2, 66, 0
3, 65088, Note_on_c, 2, 65, 45
3, 65182, Note_on_c, 2, 65, 0
3, 65184, Note_on_c, 2, 63, 45
3, 65278, Note_on_c, 2, 63, 0
3, 65280, Note_on_c, 2, 61, 45
3, 65374, Note_on_c, 2, 61, 0
3, 65376, Note_on_c, 2, 68, 45
3, 65392, Note_on_c, 2, 68, 0
3, 65392, Note_on_c, 2, 70, 45
3, 65408, Note_on_c, 2, 70, 0
3, 65408, Note_on_c, 2, 72, 45
3, 65424, Note_on_c, 2, 72, 0
3, 65424, Note_on_c, 2, 73, 45
3, 65448, Note_on_c, 2, 73, 0
3, 65448, Note_on_c, 2, 75, 45
3, 65470, Note_on_c, 2, 75, 0
3, 65472, Note_on_c, 2, 77, 45
3, 65504, Note_on_c, 2, 77, 0
3, 65568, Note_on_c, 2, 77, 45
3, 65600, Note_on_c, 2, 77, 0
3, 65664, Note_on_c, 2, 77, 63
3, 65856, Note_on_c, 2, 77, 0
3, 65856, Note_on_c, 2, 76, 45
3, 65888, Note_on_c, 2, 76, 0
3, 65952, Note_on_c, 2, 77, 45
3, 65984, Note_on_c, 2, 77, 0
3, 66048, Note_on_c, 2, 79, 45
3, 66080, Note_on_c, 2, 79, 0
3, 66144, Note_on_c, 2, 72, 45
3, 66168, Note_on_c, 2, 72, 0
3, 66168, Note_on_c, 2, 74, 45
3, 66192, Note_on_c, 2, 74, 0
3, 66192, Note_on_c, 2, 76, 45
3, 66216, Note_on_c, 2, 76, 0
3, 66216, Note_on_c, 2, 77, 45
3, 66238, Note_on_c, 2, 77, 0
3, 66240, Note_on_c, 2, 79, 45
3, 66272, Note_on_c, 2, 79, 0
3, 66336, Note_on_c, 2, 79, 45
3, 66368, Note_on_c, 2, 79, 0
3, 66432, Note_on_c, 2, 79, 63
3, 66624, Note_on_c, 2, 79, 0
3, 66624, Note_on_c, 2, 77, 45
3, 66656, Note_on_c, 2, 77, 0
3, 66720, Note_on_c, 2, 79, 45
3, 66752, Note_on_c, 2, 79, 0
3, 66816, Note_on_c, 2, 80, 92
3, 66910, Note_on_c, 2, 80, 0
3, 66912, Note_on_c, 2, 80, 92
3, 67072, Note_on_c, 2, 80, 0
3, 67104, Note_on_c, 2, 80, 92
3, 67294, Note_on_c, 2, 80, 0
3, 67296, Note_on_c, 2, 80, 92
3, 67456, Note_on_c, 2, 80, 0
3, 67488, Note_on_c, 2, 80, 92
3, 67582, Note_on_c, 2, 80, 0
3, 67584, Note_on_c, 2, 79, 92
3, 67616, Note_on_c, 2, 79, 0
3, 67616, Note_on_c, 2, 78, 92
3, 67648, Note_on_c, 2, 78, 0
3, 67648, Note_on_c, 2, 79, 92
3, 67680, Note_on_c, 2, 79, 0
3, 67680, Note_on_c, 2, 80, 92
3, 67712, Note_on_c, 2, 80, 0
3, 67712, Note_on_c, 2, 79, 92
3, 67744, Note_on_c, 2, 79, 0
3, 67744, Note_on_c, 2, 77, 92
3, 67776, Note_on_c, 2, 77, 0
3, 67776, Note_on_c, 2, 76, 92
3, 67808, Note_on_c, 2, 76, 0
3, 67808, Note_on_c, 2, 75, 92
3, 67840, Note_on_c, 2, 75, 0
3, 67840, Note_on_c, 2, 76, 92
3, 67872, Note_on_c, 2, 76, 0
3, 67872, Note_on_c, 2, 77, 92
3, 67904, Note_on_c, 2, 77, 0
3, 67904, Note_on_c, 2, 76, 92
3, 67936, Note_on_c, 2, 76, 0
3, 67936, Note_on_c, 2, 74, 92
3, 67966, Note_on_c, 2, 74, 0
3, 67968, Note_on_c, 2, 72, 92
3, 68062, Note_on_c, 2, 72, 0
3, 68064, Note_on_c, 2, 65, 92
3, 68064, Note_on_c, 2, 71, 92
3, 68096, Note_on_c, 2, 71, 0
3, 68096, Note_on_c, 2, 65, 0
3, 68160, Note_on_c, 2, 65, 92
3, 68160, Note_on_c, 2, 71, 92
3, 68192, Note_on_c, 2, 71, 0
3, 68192, Note_on_c, 2, 65, 0
3, 68256, Note_on_c, 2, 65, 92
3, 68256, Note_on_c, 2, 71, 92
3, 68288, Note_on_c, 2, 71, 0
3, 68288, Note_on_c, 2, 65, 0
3, 68352, Note_on_c, 2, 64, 92
3, 68352, Note_on_c, 2, 72, 92
3, 68446, Note_on_c, 2, 72, 0
3, 68446, Note_on_c, 2, 64, 0
3, 69120, Note_on_c, 2, 79, 92
3, 69152, Note_on_c, 2, 79, 0
3, 69152, Note_on_c, 2, 78, 92
3, 69184, Note_on_c, 2, 78, 0
3, 69184, Note_on_c, 2, 79, 92
3, 69216, Note_on_c, 2, 79, 0
3, 69216, Note_on_c, 2, 80, 92
3, 69248, Note_on_c, 2, 80, 0
3, 69248, Note_on_c, 2, 79, 92
3, 69280, Note_on_c, 2, 79, 0
3, 69280, Note_on_c, 2, 77, 92
3, 69312, Note_on_c, 2, 77, 0
3, 69312, Note_on_c, 2, 76, 92
3, 69344, Note_on_c, 2, 76, 0
3, 69344, Note_on_c, 2, 75, 92
3, 69376, Note_on_c, 2, 75, 0
3, 69376, Note_on_c, 2, 76, 92
3, 69408, Note_on_c, 2, 76, 0
3, 69408, Note_on_c, 2, 77, 92
3, 69440, Note_on_c, 2, 77, 0
3, 69440, Note_on_c, 2, 76, 92
3, 69472, Note_on_c, 2, 76, 0
3, 69472, Note_on_c, 2, 74, 92
3, 69502, Note_on_c, 2, 74, 0
3, 69504, Note_on_c, 2, 72, 92
3, 69598, Note_on_c, 2, 72, 0
3, 69600, Note_on_c, 2, 65, 92
3, 69600, Note_on_c, 2, 71, 92
3, 69632, Note_on_c, 2, 71, 0
3, 69632, Note_on_c, 2, 65, 0
3, 69696, Note_on_c, 2, 65, 92
3, 69696, Note_on_c, 2, 71, 92
3, 69728, Note_on_c, 2, 71, 0
3, 69728, Note_on_c, 2, 65, 0
3, 69792, Note_on_c, 2, 65, 92
3, 69792, Note_on_c, 2, 71, 92
3, 69824, Note_on_c, 2, 71, 0
3, 69824, Note_on_c, 2, 65, 0
3, 69888, Note_on_c, 2, 64, 92
3, 69888, Note_on_c, 2, 72, 92
3, 69982, Note_on_c, 2, 72, 0
3, 69982, Note_on_c, 2, 64, 0
3, 70368, Note_on_c, 2, 68, 92
3, 70462, Note_on_c, 2, 68, 0
3, 70464, Note_on_c, 2, 68, 92
3, 70558, Note_on_c, 2, 68, 0
3, 70560, Note_on_c, 2, 68, 92
3, 70654, Note_on_c, 2, 68, 0
3, 70656, Note_on_c, 2, 67, 92
3, 70750, Note_on_c, 2, 67, 0
3, 70752, Note_on_c, 2, 67, 30
3, 70846, Note_on_c, 2, 67, 0
3, 70848, Note_on_c, 2, 67, 30
3, 70942, Note_on_c, 2, 67, 0
3, 70944, Note_on_c, 2, 67, 30
3, 71038, Note_on_c, 2, 67, 0
3, 71040, Note_on_c, 2, 67, 30
3, 71134, Note_on_c, 2, 67, 0
3, 71136, Note_on_c, 2, 67, 30
3, 71230, Note_on_c, 2, 67, 0
3, 71232, Note_on_c, 2, 67, 30
3, 71326, Note_on_c, 2, 67, 0
3, 71328, Note_on_c, 2, 67, 30
3, 71422, Note_on_c, 2, 67, 0
3, 71424, Note_on_c, 2, 68, 30
3, 71518, Note_on_c, 2, 68, 0
3, 71520, Note_on_c, 2, 68, 30
3, 71614, Note_on_c, 2, 68, 0
3, 71616, Note_on_c, 2, 68, 30
3, 71710, Note_on_c, 2, 68, 0
3, 71712, Note_on_c, 2, 68, 30
3, 71806, Note_on_c, 2, 68, 0
3, 71808, Note_on_c, 2, 68, 30
3, 71902, Note_on_c, 2, 68, 0
3, 71904, Note_on_c, 2, 68, 30
3, 71998, Note_on_c, 2, 68, 0
3, 72000, Note_on_c, 2, 68, 30
3, 72094, Note_on_c, 2, 68, 0
3, 72096, Note_on_c, 2, 68, 30
3, 72190, Note_on_c, 2, 68, 0
3, 72192, Note_on_c, 2, 69, 30
3, 72286, Note_on_c, 2, 69, 0
3, 72288, Note_on_c, 2, 69, 30
3, 72382, Note_on_c, 2, 69, 0
3, 72384, Note_on_c, 2, 69, 30
3, 72478, Note_on_c, 2, 69, 0
3, 72480, Note_on_c, 2, 69, 30
3, 72574, Note_on_c, 2, 69, 0
3, 72576, Note_on_c, 2, 69, 30
3, 72670, Note_on_c, 2, 69, 0
3, 72672, Note_on_c, 2, 69, 30
3, 72766, Note_on_c, 2, 69, 0
3, 72768, Note_on_c, 2, 69, 30
3, 72862, Note_on_c, 2, 69, 0
3, 72864, Note_on_c, 2, 69, 30
3, 72958, Note_on_c, 2, 69, 0
3, 72960, Note_on_c, 2, 69, 30
3, 73054, Note_on_c, 2, 69, 0
3, 73056, Note_on_c, 2, 69, 30
3, 73150, Note_on_c, 2, 69, 0
3, 73152, Note_on_c, 2, 69, 30
3, 73246, Note_on_c, 2, 69, 0
3, 73248, Note_on_c, 2, 69, 30
3, 73342, Note_on_c, 2, 69, 0
3, 73344, Note_on_c, 2, 69, 30
3, 73438, Note_on_c, 2, 69, 0
3, 73440, Note_on_c, 2, 69, 30
3, 73534, Note_on_c, 2, 69, 0
3, 73536, Note_on_c, 2, 69, 30
3, 73630, Note_on_c, 2, 69, 0
3, 73632, Note_on_c, 2, 69, 30
3, 73726, Note_on_c, 2, 69, 0
3, 73728, Note_on_c, 2, 69, 30
3, 73824, Note_on_c, 2, 69, 0
3, 73824, Note_on_c, 2, 68, 30
3, 73918, Note_on_c, 2, 68, 0
3, 73920, Note_on_c, 2, 69, 30
3, 74208, Note_on_c, 2, 69, 0
3, 74208, Note_on_c, 2, 68, 30
3, 74302, Note_on_c, 2, 68, 0
3, 74304, Note_on_c, 2, 69, 30
3, 74592, Note_on_c, 2, 69, 0
3, 74592, Note_on_c, 2, 68, 30
3, 74686, Note_on_c, 2, 68, 0
3, 74688, Note_on_c, 2, 69, 30
3, 74976, Note_on_c, 2, 69, 0
3, 74976, Note_on_c, 2, 68, 30
3, 75070, Note_on_c, 2, 68, 0
3, 75072, Note_on_c, 2, 69, 30
3, 75360, Note_on_c, 2, 69, 0
3, 75360, Note_on_c, 2, 68, 31
3, 75454, Note_on_c, 2, 68, 0
3, 75456, Note_on_c, 2, 69, 32
3, 75744, Note_on_c, 2, 69, 0
3, 75744, Note_on_c, 2, 68, 36
3, 75838, Note_on_c, 2, 68, 0
3, 75840, Note_on_c, 2, 69, 37
3, 76126, Note_on_c, 2, 69, 0
3, 76128, Note_on_c, 2, 66, 60
3, 76222, Note_on_c, 2, 66, 0
3, 76224, Note_on_c, 2, 66, 45
3, 76318, Note_on_c, 2, 66, 0
3, 76320, Note_on_c, 2, 66, 47
3, 76414, Note_on_c, 2, 66, 0
3, 76416, Note_on_c, 2, 66, 49
3, 76510, Note_on_c, 2, 66, 0
3, 76512, Note_on_c, 2, 65, 71
3, 76606, Note_on_c, 2, 65, 0
3, 76608, Note_on_c, 2, 65, 53
3, 76702, Note_on_c, 2, 65, 0
3, 76704, Note_on_c, 2, 65, 55
3, 76798, Note_on_c, 2, 65, 0
3, 76800, Note_on_c, 2, 65, 57
3, 76894, Note_on_c, 2, 65, 0
3, 76896, Note_on_c, 2, 65, 82
3, 76990, Note_on_c, 2, 65, 0
3, 76992, Note_on_c, 2, 65, 61
3, 77086, Note_on_c, 2, 65, 0
3, 77088, Note_on_c, 2, 65, 63
3, 77182, Note_on_c, 2, 65, 0
3, 77184, Note_on_c, 2, 65, 65
3, 77278, Note_on_c, 2, 65, 0
3, 77280, Note_on_c, 2, 65, 93
3, 77374, Note_on_c, 2, 65, 0
3, 77376, Note_on_c, 2, 65, 69
3, 77470, Note_on_c, 2, 65, 0
3, 77472, Note_on_c, 2, 65, 71
3, 77566, Note_on_c, 2, 65, 0
3, 77568, Note_on_c, 2, 65, 73
3, 77662, Note_on_c, 2, 65, 0
3, 78240, Note_on_c, 2, 67, 45
3, 78336, Note_on_c, 2, 67, 0
3, 78336, Note_on_c, 2, 68, 45
3, 78624, Note_on_c, 2, 68, 0
3, 78624, Note_on_c, 2, 65, 45
3, 78720, Note_on_c, 2, 65, 0
3, 78720, Note_on_c, 2, 62, 45
3, 79008, Note_on_c, 2, 62, 0
3, 79008, Note_on_c, 2, 65, 45
3, 79104, Note_on_c, 2, 65, 0
3, 79104, Note_on_c, 2, 63, 45
3, 79392, Note_on_c, 2, 63, 0
3, 79392, Note_on_c, 2, 67, 45
3, 79488, Note_on_c, 2, 67, 0
3, 79488, Note_on_c, 2, 70, 45
3, 79776, Note_on_c, 2, 70, 0
3, 79776, Note_on_c, 2, 67, 45
3, 79870, Note_on_c, 2, 67, 0
3, 79872, Note_on_c, 2, 68, 45
3, 80448, Note_on_c, 2, 68, 0
3, 80448, Note_on_c, 2, 67, 45
3, 80544, Note_on_c, 2, 67, 0
3, 80544, Note_on_c, 2, 65, 45
3, 80638, Note_on_c, 2, 65, 0
3, 80640, Note_on_c, 2, 64, 45
3, 80832, Note_on_c, 2, 64, 0
3, 80832, Note_on_c, 2, 70, 45
3, 81216, Note_on_c, 2, 70, 0
3, 81216, Note_on_c, 2, 69, 45
3, 81312, Note_on_c, 2, 69, 0
3, 81312, Note_on_c, 2, 67, 45
3, 81406, Note_on_c, 2, 67, 0
3, 81408, Note_on_c, 2, 66, 45
3, 81600, Note_on_c, 2, 66, 0
3, 81600, Note_on_c, 2, 75, 45
3, 81984, Note_on_c, 2, 75, 0
3, 81984, Note_on_c, 2, 74, 45
3, 82080, Note_on_c, 2, 74, 0
3, 82080, Note_on_c, 2, 72, 45
3, 82174, Note_on_c, 2, 72, 0
3, 82176, Note_on_c, 2, 70, 45
3, 82464, Note_on_c, 2, 70, 0
3, 82464, Note_on_c, 2, 69, 45
3, 82560, Note_on_c, 2, 69, 0
3, 82560, Note_on_c, 2, 67, 48
3, 82656, Note_on_c, 2, 67, 0
3, 82656, Note_on_c, 2, 69, 51
3, 82752, Note_on_c, 2, 69, 0
3, 82752, Note_on_c, 2, 70, 54
3, 82848, Note_on_c, 2, 70, 0
3, 82848, Note_on_c, 2, 72, 57
3, 82942, Note_on_c, 2, 72, 0
3, 82944, Note_on_c, 2, 70, 60
3, 83136, Note_on_c, 2, 70, 0
3, 83136, Note_on_c, 2, 69, 67
3, 83232, Note_on_c, 2, 69, 0
3, 83232, Note_on_c, 2, 67, 71
3, 83328, Note_on_c, 2, 67, 0
3, 83328, Note_on_c, 2, 65, 75
3, 83424, Note_on_c, 2, 65, 0
3, 83424, Note_on_c, 2, 67, 68
3, 83520, Note_on_c, 2, 67, 0
3, 83520, Note_on_c, 2, 69, 61
3, 83616, Note_on_c, 2, 69, 0
3, 83616, Note_on_c, 2, 65, 53
3, 83710, Note_on_c, 2, 65, 0
3, 83712, Note_on_c, 2, 67, 45
3, 83744, Note_on_c, 2, 67, 0
3, 83744, Note_on_c, 2, 66, 45
3, 83776, Note_on_c, 2, 66, 0
3, 83776, Note_on_c, 2, 67, 45
3, 83808, Note_on_c, 2, 67, 0
3, 83808, Note_on_c, 2, 69, 45
3, 83840, Note_on_c, 2, 69, 0
3, 83840, Note_on_c, 2, 67, 45
3, 83872, Note_on_c, 2, 67, 0
3, 83872, Note_on_c, 2, 65, 45
3, 83904, Note_on_c, 2, 65, 0
3, 83904, Note_on_c, 2, 64, 45
3, 83936, Note_on_c, 2, 64, 0
3, 83936, Note_on_c, 2, 63, 45
3, 83968, Note_on_c, 2, 63, 0
3, 83968, Note_on_c, 2, 64, 45
3, 84000, Note_on_c, 2, 64, 0
3, 84000, Note_on_c, 2, 65, 45
3, 84032, Note_on_c, 2, 65, 0
3, 84032, Note_on_c, 2, 64, 45
3, 84064, Note_on_c, 2, 64, 0
3, 84064, Note_on_c, 2, 62, 45
3, 84094, Note_on_c, 2, 62, 0
3, 84096, Note_on_c, 2, 60, 45
3, 84128, Note_on_c, 2, 60, 0
3, 84192, Note_on_c, 2, 60, 45
3, 84224, Note_on_c, 2, 60, 0
3, 84288, Note_on_c, 2, 60, 45
3, 84320, Note_on_c, 2, 60, 0
3, 84384, Note_on_c, 2, 60, 45
3, 84416, Note_on_c, 2, 60, 0
3, 84480, Note_on_c, 2, 59, 45
3, 84574, Note_on_c, 2, 59, 0
3, 84672, Note_on_c, 2, 55, 45
3, 84672, Note_on_c, 2, 65, 45
3, 84958, Note_on_c, 2, 65, 0
3, 84958, Note_on_c, 2, 55, 0
3, 84960, Note_on_c, 2, 55, 45
3, 84960, Note_on_c, 2, 65, 45
3, 85054, Note_on_c, 2, 65, 0
3, 85054, Note_on_c, 2, 55, 0
3, 85056, Note_on_c, 2, 65, 45
3, 85150, Note_on_c, 2, 65, 0
3, 85152, Note_on_c, 2, 55, 45
3, 85152, Note_on_c, 2, 65, 45
3, 85246, Note_on_c, 2, 65, 0
3, 85246, Note_on_c, 2, 55, 0
3, 85248, Note_on_c, 2, 67, 45
3, 85280, Note_on_c, 2, 67, 0
3, 85280, Note_on_c, 2, 66, 45
3, 85312, Note_on_c, 2, 66, 0
3, 85312, Note_on_c, 2, 67, 45
3, 85344, Note_on_c, 2, 67, 0
3, 85344, Note_on_c, 2, 69, 45
3, 85376, Note_on_c, 2, 69, 0
3, 85376, Note_on_c, 2, 67, 45
3, 85408, Note_on_c, 2, 67, 0
3, 85408, Note_on_c, 2, 65, 45
3, 85440, Note_on_c, 2, 65, 0
3, 85440, Note_on_c, 2, 64, 45
3, 85472, Note_on_c, 2, 64, 0
3, 85472, Note_on_c, 2, 63, 45
3, 85504, Note_on_c, 2, 63, 0
3, 85504, Note_on_c, 2, 64, 45
3, 85536, Note_on_c, 2, 64, 0
3, 85536, Note_on_c, 2, 65, 45
3, 85568, Note_on_c, 2, 65, 0
3, 85568, Note_on_c, 2, 64, 45
3, 85600, Note_on_c, 2, 64, 0
3, 85600, Note_on_c, 2, 62, 45
3, 85630, Note_on_c, 2, 62, 0
3, 85632, Note_on_c, 2, 60, 45
3, 85664, Note_on_c, 2, 60, 0
3, 85728, Note_on_c, 2, 60, 45
3, 85760, Note_on_c, 2, 60, 0
3, 85824, Note_on_c, 2, 60, 45
3, 85856, Note_on_c, 2, 60, 0
3, 85920, Note_on_c, 2, 60, 45
3, 85952, Note_on_c, 2, 60, 0
3, 86016, Note_on_c, 2, 79, 45
3, 86048, Note_on_c, 2, 79, 0
3, 86048, Note_on_c, 2, 78, 45
3, 86080, Note_on_c, 2, 78, 0
3, 86080, Note_on_c, 2, 79, 45
3, 86112, Note_on_c, 2, 79, 0
3, 86112, Note_on_c, 2, 81, 45
3, 86144, Note_on_c, 2, 81, 0
3, 86144, Note_on_c, 2, 79, 45
3, 86176, Note_on_c, 2, 79, 0
3, 86176, Note_on_c, 2, 77, 45
3, 86208, Note_on_c, 2, 77, 0
3, 86208, Note_on_c, 2, 76, 45
3, 86240, Note_on_c, 2, 76, 0
3, 86240, Note_on_c, 2, 75, 45
3, 86272, Note_on_c, 2, 75, 0
3, 86272, Note_on_c, 2, 76, 45
3, 86304, Note_on_c, 2, 76, 0
3, 86304, Note_on_c, 2, 77, 45
3, 86336, Note_on_c, 2, 77, 0
3, 86336, Note_on_c, 2, 76, 45
3, 86368, Note_on_c, 2, 76, 0
3, 86368, Note_on_c, 2, 74, 45
3, 86398, Note_on_c, 2, 74, 0
3, 86400, Note_on_c, 2, 72, 45
3, 86432, Note_on_c, 2, 72, 0
3, 86496, Note_on_c, 2, 72, 45
3, 86528, Note_on_c, 2, 72, 0
3, 86592, Note_on_c, 2, 72, 45
3, 86624, Note_on_c, 2, 72, 0
3, 86784, Note_on_c, 2, 82, 45
3, 86816, Note_on_c, 2, 82, 0
3, 86816, Note_on_c, 2, 81, 45
3, 86848, Note_on_c, 2, 81, 0
3, 86848, Note_on_c, 2, 82, 45
3, 86880, Note_on_c, 2, 82, 0
3, 86880, Note_on_c, 2, 84, 45
3, 86912, Note_on_c, 2, 84, 0
3, 86912, Note_on_c, 2, 82, 45
3, 86944, Note_on_c, 2, 82, 0
3, 86944, Note_on_c, 2, 81, 45
3, 86976, Note_on_c, 2, 81, 0
3, 86976, Note_on_c, 2, 79, 45
3, 87008, Note_on_c, 2, 79, 0
3, 87008, Note_on_c, 2, 78, 45
3, 87040, Note_on_c, 2, 78, 0
3, 87040, Note_on_c, 2, 79, 45
3, 87072, Note_on_c, 2, 79, 0
3, 87072, Note_on_c, 2, 81, 45
3, 87104, Note_on_c, 2, 81, 0
3, 87104, Note_on_c, 2, 79, 45
3, 87136, Note_on_c, 2, 79, 0
3, 87136, Note_on_c, 2, 78, 45
3, 87166, Note_on_c, 2, 78, 0
3, 87168, Note_on_c, 2, 79, 45
3, 87200, Note_on_c, 2, 79, 0
3, 87264, Note_on_c, 2, 79, 45
3, 87296, Note_on_c, 2, 79, 0
3, 87360, Note_on_c, 2, 79, 45
3, 87392, Note_on_c, 2, 79, 0
3, 87456, Note_on_c, 2, 79, 45
3, 87488, Note_on_c, 2, 79, 0
3, 87552, Note_on_c, 2, 79, 45
3, 87584, Note_on_c, 2, 79, 0
3, 87584, Note_on_c, 2, 78, 45
3, 87616, Note_on_c, 2, 78, 0
3, 87616, Note_on_c, 2, 79, 45
3, 87648, Note_on_c, 2, 79, 0
3, 87648, Note_on_c, 2, 81, 45
3, 87680, Note_on_c, 2, 81, 0
3, 87680, Note_on_c, 2, 79, 45
3, 87712, Note_on_c, 2, 79, 0
3, 87712, Note_on_c, 2, 78, 45
3, 87742, Note_on_c, 2, 78, 0
3, 87744, Note_on_c, 2, 79, 63
3, 87968, Note_on_c, 2, 79, 0
3, 87968, Note_on_c, 2, 78, 45
3, 88000, Note_on_c, 2, 78, 0
3, 88000, Note_on_c, 2, 79, 45
3, 88032, Note_on_c, 2, 79, 0
3, 88032, Note_on_c, 2, 81, 45
3, 88064, Note_on_c, 2, 81, 0
3, 88064, Note_on_c, 2, 79, 45
3, 88096, Note_on_c, 2, 79, 0
3, 88096, Note_on_c, 2, 78, 45
3, 88126, Note_on_c, 2, 78, 0
3, 88128, Note_on_c, 2, 79, 63
3, 88352, Note_on_c, 2, 79, 0
3, 88352, Note_on_c, 2, 78, 47
3, 88384, Note_on_c, 2, 78, 0
3, 88384, Note_on_c, 2, 79, 49
3, 88416, Note_on_c, 2, 79, 0
3, 88416, Note_on_c, 2, 78, 51
3, 88448, Note_on_c, 2, 78, 0
3, 88448, Note_on_c, 2, 79, 53
3, 88480, Note_on_c, 2, 79, 0
3, 88480, Note_on_c, 2, 78, 55
3, 88512, Note_on_c, 2, 78, 0
3, 88512, Note_on_c, 2, 79, 57
3, 88544, Note_on_c, 2, 79, 0
3, 88544, Note_on_c, 2, 78, 59
3, 88576, Note_on_c, 2, 78, 0
3, 88576, Note_on_c, 2, 79, 61
3, 88608, Note_on_c, 2, 79, 0
3, 88608, Note_on_c, 2, 78, 63
3, 88640, Note_on_c, 2, 78, 0
3, 88640, Note_on_c, 2, 79, 66
3, 88672, Note_on_c, 2, 79, 0
3, 88672, Note_on_c, 2, 78, 69
3, 88702, Note_on_c, 2, 78, 0
3, 88704, Note_on_c, 2, 79, 72
3, 88736, Note_on_c, 2, 79, 0
3, 88736, Note_on_c, 2, 78, 75
3, 88768, Note_on_c, 2, 78, 0
3, 88768, Note_on_c, 2, 79, 78
3, 88800, Note_on_c, 2, 79, 0
3, 88800, Note_on_c, 2, 78, 81
3, 88832, Note_on_c, 2, 78, 0
3, 88832, Note_on_c, 2, 79, 84
3, 88864, Note_on_c, 2, 79, 0
3, 88864, Note_on_c, 2, 78, 87
3, 88896, Note_on_c, 2, 78, 0
3, 88896, Note_on_c, 2, 79, 90
3, 88928, Note_on_c, 2, 79, 0
3, 88928, Note_on_c, 2, 78, 93
3, 88960, Note_on_c, 2, 78, 0
3, 88960, Note_on_c, 2, 79, 96
3, 88992, Note_on_c, 2, 79, 0
3, 88992, Note_on_c, 2, 78, 99
3, 89024, Note_on_c, 2, 78, 0
3, 89024, Note_on_c, 2, 79, 102
3, 89056, Note_on_c, 2, 79, 0
3, 89056, Note_on_c, 2, 78, 105
3, 89086, Note_on_c, 2, 78, 0
3, 89088, Note_on_c, 2, 79, 108
3, 89120, Note_on_c, 2, 79, 0
3, 89120, Note_on_c, 2, 81, 108
3, 89152, Note_on_c, 2, 81, 0
3, 89152, Note_on_c, 2, 79, 108
3, 89184, Note_on_c, 2, 79, 0
3, 89184, Note_on_c, 2, 77, 108
3, 89216, Note_on_c, 2, 77, 0
3, 89216, Note_on_c, 2, 79, 108
3, 89248, Note_on_c, 2, 79, 0
3, 89248, Note_on_c, 2, 77, 108
3, 89280, Note_on_c, 2, 77, 0
3, 89280, Note_on_c, 2, 76, 108
3, 89312, Note_on_c, 2, 76, 0
3, 89312, Note_on_c, 2, 77, 108
3, 89344, Note_on_c, 2, 77, 0
3, 89344, Note_on_c, 2, 76, 108
3, 89376, Note_on_c, 2, 76, 0
3, 89376, Note_on_c, 2, 74, 108
3, 89408, Note_on_c, 2, 74, 0
3, 89408, Note_on_c, 2, 76, 108
3, 89440, Note_on_c, 2, 76, 0
3, 89440, Note_on_c, 2, 74, 108
3, 89470, Note_on_c, 2, 74, 0
3, 89472, Note_on_c, 2, 72, 108
3, 89504, Note_on_c, 2, 72, 0
3, 89504, Note_on_c, 2, 74, 108
3, 89536, Note_on_c, 2, 74, 0
3, 89536, Note_on_c, 2, 72, 108
3, 89568, Note_on_c, 2, 72, 0
3, 89568, Note_on_c, 2, 70, 108
3, 89600, Note_on_c, 2, 70, 0
3, 89600, Note_on_c, 2, 72, 108
3, 89632, Note_on_c, 2, 72, 0
3, 89632, Note_on_c, 2, 70, 108
3, 89664, Note_on_c, 2, 70, 0
3, 89664, Note_on_c, 2, 69, 108
3, 89696, Note_on_c, 2, 69, 0
3, 89696, Note_on_c, 2, 70, 108
3, 89728, Note_on_c, 2, 70, 0
3, 89728, Note_on_c, 2, 69, 108
3, 89760, Note_on_c, 2, 69, 0
3, 89760, Note_on_c, 2, 67, 108
3, 89792, Note_on_c, 2, 67, 0
3, 89792, Note_on_c, 2, 69, 108
3, 89824, Note_on_c, 2, 69, 0
3, 89824, Note_on_c, 2, 67, 108
3, 89854, Note_on_c, 2, 67, 0
3, 89856, Note_on_c, 2, 65, 60
3, 89950, Note_on_c, 2, 65, 0
3, 90240, Note_on_c, 2, 58, 45
3, 90272, Note_on_c, 2, 58, 0
3, 90336, Note_on_c, 2, 58, 45
3, 90368, Note_on_c, 2, 58, 0
3, 90432, Note_on_c, 2, 70, 45
3, 90464, Note_on_c, 2, 70, 0
3, 91008, Note_on_c, 2, 60, 45
3, 91040, Note_on_c, 2, 60, 0
3, 91104, Note_on_c, 2, 60, 45
3, 91136, Note_on_c, 2, 60, 0
3, 91200, Note_on_c, 2, 72, 45
3, 91232, Note_on_c, 2, 72, 0
3, 91488, Note_on_c, 2, 67, 45
3, 91584, Note_on_c, 2, 67, 0
3, 91584, Note_on_c, 2, 60, 45
3, 91680, Note_on_c, 2, 60, 0
3, 91680, Note_on_c, 2, 69, 45
3, 91774, Note_on_c, 2, 69, 0
3, 91872, Note_on_c, 2, 67, 45
3, 91968, Note_on_c, 2, 67, 0
3, 91968, Note_on_c, 2, 60, 45
3, 92064, Note_on_c, 2, 60, 0
3, 92064, Note_on_c, 2, 69, 45
3, 92158, Note_on_c, 2, 69, 0
3, 92256, Note_on_c, 2, 67, 45
3, 92352, Note_on_c, 2, 67, 0
3, 92352, Note_on_c, 2, 60, 45
3, 92448, Note_on_c, 2, 60, 0
3, 92448, Note_on_c, 2, 69, 45
3, 92542, Note_on_c, 2, 69, 0
3, 92544, Note_on_c, 2, 67, 45
3, 92640, Note_on_c, 2, 67, 0
3, 92640, Note_on_c, 2, 71, 45
3, 92736, Note_on_c, 2, 71, 0
3, 92736, Note_on_c, 2, 67, 45
3, 92830, Note_on_c, 2, 67, 0
3, 92928, Note_on_c, 2, 69, 92
3, 92960, Note_on_c, 2, 69, 0
3, 92960, Note_on_c, 2, 68, 92
3, 92992, Note_on_c, 2, 68, 0
3, 92992, Note_on_c, 2, 69, 92
3, 93024, Note_on_c, 2, 69, 0
3, 93024, Note_on_c, 2, 70, 92
3, 93056, Note_on_c, 2, 70, 0
3, 93056, Note_on_c, 2, 69, 92
3, 93088, Note_on_c, 2, 69, 0
3, 93088, Note_on_c, 2, 67, 92
3, 93120, Note_on_c, 2, 67, 0
3, 93120, Note_on_c, 2, 65, 92
3, 93152, Note_on_c, 2, 65, 0
3, 93152, Note_on_c, 2, 64, 92
3, 93184, Note_on_c, 2, 64, 0
3, 93184, Note_on_c, 2, 62, 92
3, 93216, Note_on_c, 2, 62, 0
3, 93216, Note_on_c, 2, 60, 92
3, 93248, Note_on_c, 2, 60, 0
3, 93248, Note_on_c, 2, 58, 92
3, 93280, Note_on_c, 2, 58, 0
3, 93280, Note_on_c, 2, 57, 92
3, 93310, Note_on_c, 2, 57, 0
3, 93312, Note_on_c, 2, 55, 92
3, 93344, Note_on_c, 2, 55, 0
3, 93408, Note_on_c, 2, 55, 92
3, 93440, Note_on_c, 2, 55, 0
3, 93504, Note_on_c, 2, 58, 92
3, 93536, Note_on_c, 2, 58, 0
3, 93696, Note_on_c, 2, 70, 92
3, 93728, Note_on_c, 2, 70, 0
3, 93728, Note_on_c, 2, 69, 92
3, 93760, Note_on_c, 2, 69, 0
3, 93760, Note_on_c, 2, 70, 92
3, 93792, Note_on_c, 2, 70, 0
3, 93792, Note_on_c, 2, 72, 92
3, 93824, Note_on_c, 2, 72, 0
3, 93824, Note_on_c, 2, 70, 92
3, 93856, Note_on_c, 2, 70, 0
3, 93856, Note_on_c, 2, 69, 92
3, 93888, Note_on_c, 2, 69, 0
3, 93888, Note_on_c, 2, 67, 92
3, 93920, Note_on_c, 2, 67, 0
3, 93920, Note_on_c, 2, 65, 92
3, 93952, Note_on_c, 2, 65, 0
3, 93952, Note_on_c, 2, 64, 92
3, 93984, Note_on_c, 2, 64, 0
3, 93984, Note_on_c, 2, 62, 92
3, 94016, Note_on_c, 2, 62, 0
3, 94016, Note_on_c, 2, 60, 92
3, 94048, Note_on_c, 2, 60, 0
3, 94048, Note_on_c, 2, 58, 92
3, 94078, Note_on_c, 2, 58, 0
3, 94080, Note_on_c, 2, 57, 92
3, 94112, Note_on_c, 2, 57, 0
3, 94176, Note_on_c, 2, 57, 92
3, 94208, Note_on_c, 2, 57, 0
3, 94272, Note_on_c, 2, 60, 92
3, 94304, Note_on_c, 2, 60, 0
3, 94560, Note_on_c, 2, 67, 45
3, 94656, Note_on_c, 2, 67, 0
3, 94656, Note_on_c, 2, 60, 45
3, 94752, Note_on_c, 2, 60, 0
3, 94752, Note_on_c, 2, 69, 45
3, 94846, Note_on_c, 2, 69, 0
3, 94944, Note_on_c, 2, 67, 45
3, 95040, Note_on_c, 2, 67, 0
3, 95040, Note_on_c, 2, 60, 45
3, 95136, Note_on_c, 2, 60, 0
3, 95136, Note_on_c, 2, 69, 45
3, 95230, Note_on_c, 2, 69, 0
3, 95328, Note_on_c, 2, 67, 45
3, 95424, Note_on_c, 2, 67, 0
3, 95424, Note_on_c, 2, 60, 51
3, 95518, Note_on_c, 2, 60, 0
3, 95520, Note_on_c, 2, 72, 57
3, 95552, Note_on_c, 2, 72, 0
3, 95616, Note_on_c, 2, 70, 64
3, 95648, Note_on_c, 2, 70, 0
3, 95712, Note_on_c, 2, 70, 71
3, 95744, Note_on_c, 2, 70, 0
3, 95808, Note_on_c, 2, 69, 78
3, 95840, Note_on_c, 2, 69, 0
3, 95904, Note_on_c, 2, 65, 85
3, 95936, Note_on_c, 2, 65, 0
3, 96000, Note_on_c, 2, 65, 92
3, 96160, Note_on_c, 2, 65, 0
3, 96192, Note_on_c, 2, 58, 92
3, 96352, Note_on_c, 2, 58, 0
3, 96384, Note_on_c, 2, 57, 108
3, 96544, Note_on_c, 2, 57, 0
3, 96960, Note_on_c, 2, 57, 45
3, 97008, Note_on_c, 2, 57, 0
3, 97008, Note_on_c, 2, 60, 45
3, 97056, Note_on_c, 2, 60, 0
3, 97056, Note_on_c, 2, 67, 45
3, 97104, Note_on_c, 2, 67, 0
3, 97104, Note_on_c, 2, 65, 45
3, 97150, Note_on_c, 2, 65, 0
3, 97152, Note_on_c, 2, 64, 45
3, 97312, Note_on_c, 2, 64, 0
3, 97728, Note_on_c, 2, 60, 45
3, 97776, Note_on_c, 2, 60, 0
3, 97776, Note_on_c, 2, 64, 45
3, 97824, Note_on_c, 2, 64, 0
3, 97824, Note_on_c, 2, 69, 45
3, 97872, Note_on_c, 2, 69, 0
3, 97872, Note_on_c, 2, 67, 45
3, 97918, Note_on_c, 2, 67, 0
3, 97920, Note_on_c, 2, 65, 45
3, 98080, Note_on_c, 2, 65, 0
3, 98976, Note_on_c, 2, 69, 45
3, 99072, Note_on_c, 2, 69, 0
3, 99072, Note_on_c, 2, 67, 45
3, 99104, Note_on_c, 2, 67, 0
3, 99168, Note_on_c, 2, 64, 45
3, 99200, Note_on_c, 2, 64, 0
3, 99264, Note_on_c, 2, 67, 45
3, 99296, Note_on_c, 2, 67, 0
3, 99360, Note_on_c, 2, 64, 45
3, 99392, Note_on_c, 2, 64, 0
3, 99456, Note_on_c, 2, 67, 45
3, 99648, Note_on_c, 2, 67, 0
3, 99648, Note_on_c, 2, 65, 45
3, 99742, Note_on_c, 2, 65, 0
3, 102720, Note_on_c, 2, 58, 45
3, 102768, Note_on_c, 2, 58, 0
3, 102768, Note_on_c, 2, 62, 45
3, 102816, Note_on_c, 2, 62, 0
3, 102816, Note_on_c, 2, 65, 45
3, 102864, Note_on_c, 2, 65, 0
3, 102864, Note_on_c, 2, 62, 45
3, 102910, Note_on_c, 2, 62, 0
3, 102912, Note_on_c, 2, 60, 45
3, 103072, Note_on_c, 2, 60, 0
3, 103536, Note_on_c, 2, 57, 45
3, 103584, Note_on_c, 2, 57, 0
3, 103584, Note_on_c, 2, 62, 45
3, 103632, Note_on_c, 2, 62, 0
3, 103632, Note_on_c, 2, 60, 45
3, 103678, Note_on_c, 2, 60, 0
3, 103680, Note_on_c, 2, 58, 45
3, 103840, Note_on_c, 2, 58, 0
3, 104064, Note_on_c, 2, 55, 45
3, 104112, Note_on_c, 2, 55, 0
3, 104112, Note_on_c, 2, 58, 45
3, 104160, Note_on_c, 2, 58, 0
3, 104160, Note_on_c, 2, 62, 45
3, 104208, Note_on_c, 2, 62, 0
3, 104208, Note_on_c, 2, 60, 45
3, 104256, Note_on_c, 2, 60, 0
3, 104256, Note_on_c, 2, 58, 45
3, 104304, Note_on_c, 2, 58, 0
3, 104304, Note_on_c, 2, 62, 45
3, 104352, Note_on_c, 2, 62, 0
3, 104352, Note_on_c, 2, 70, 45
3, 104400, Note_on_c, 2, 70, 0
3, 104400, Note_on_c, 2, 67, 45
3, 104446, Note_on_c, 2, 67, 0
3, 104448, Note_on_c, 2, 66, 45
3, 104608, Note_on_c, 2, 66, 0
3, 104832, Note_on_c, 2, 62, 45
3, 104880, Note_on_c, 2, 62, 0
3, 104880, Note_on_c, 2, 66, 45
3, 104928, Note_on_c, 2, 66, 0
3, 104928, Note_on_c, 2, 69, 45
3, 104976, Note_on_c, 2, 69, 0
3, 104976, Note_on_c, 2, 67, 45
3, 105024, Note_on_c, 2, 67, 0
3, 105024, Note_on_c, 2, 66, 45
3, 105072, Note_on_c, 2, 66, 0
3, 105072, Note_on_c, 2, 69, 45
3, 105120, Note_on_c, 2, 69, 0
3, 105120, Note_on_c, 2, 74, 45
3, 105168, Note_on_c, 2, 74, 0
3, 105168, Note_on_c, 2, 72, 45
3, 105214, Note_on_c, 2, 72, 0
3, 105264, Note_on_c, 2, 62, 45
3, 105312, Note_on_c, 2, 62, 0
3, 105312, Note_on_c, 2, 72, 45
3, 105360, Note_on_c, 2, 72, 0
3, 105360, Note_on_c, 2, 70, 45
3, 105406, Note_on_c, 2, 70, 0
3, 105456, Note_on_c, 2, 62, 45
3, 105504, Note_on_c, 2, 62, 0
3, 105504, Note_on_c, 2, 72, 45
3, 105552, Note_on_c, 2, 72, 0
3, 105552, Note_on_c, 2, 71, 45
3, 105598, Note_on_c, 2, 71, 0
3, 105648, Note_on_c, 2, 67, 45
3, 105696, Note_on_c, 2, 67, 0
3, 105696, Note_on_c, 2, 74, 45
3, 105744, Note_on_c, 2, 74, 0
3, 105744, Note_on_c, 2, 72, 45
3, 105790, Note_on_c, 2, 72, 0
3, 105840, Note_on_c, 2, 64, 45
3, 105888, Note_on_c, 2, 64, 0
3, 105888, Note_on_c, 2, 72, 45
3, 105936, Note_on_c, 2, 72, 0
3, 105936, Note_on_c, 2, 70, 45
3, 105982, Note_on_c, 2, 70, 0
3, 106032, Note_on_c, 2, 69, 45
3, 106080, Note_on_c, 2, 69, 0
3, 106080, Note_on_c, 2, 74, 47
3, 106128, Note_on_c, 2, 74, 0
3, 106128, Note_on_c, 2, 72, 49
3, 106174, Note_on_c, 2, 72, 0
3, 106224, Note_on_c, 2, 67, 53
3, 106272, Note_on_c, 2, 67, 0
3, 106272, Note_on_c, 2, 74, 55
3, 106320, Note_on_c, 2, 74, 0
3, 106320, Note_on_c, 2, 72, 57
3, 106366, Note_on_c, 2, 72, 0
3, 106416, Note_on_c, 2, 69, 61
3, 106464, Note_on_c, 2, 69, 0
3, 106464, Note_on_c, 2, 79, 63
3, 106512, Note_on_c, 2, 79, 0
3, 106512, Note_on_c, 2, 77, 65
3, 106558, Note_on_c, 2, 77, 0
3, 106608, Note_on_c, 2, 65, 69
3, 106656, Note_on_c, 2, 65, 0
3, 106656, Note_on_c, 2, 76, 71
3, 106704, Note_on_c, 2, 76, 0
3, 106704, Note_on_c, 2, 74, 73
3, 106750, Note_on_c, 2, 74, 0
3, 106752, Note_on_c, 2, 64, 45
3, 106752, Note_on_c, 2, 72, 45
3, 106846, Note_on_c, 2, 72, 0
3, 106846, Note_on_c, 2, 64, 0
3, 107232, Note_on_c, 2, 67, 45
3, 107264, Note_on_c, 2, 67, 0
3, 107328, Note_on_c, 2, 67, 45
3, 107360, Note_on_c, 2, 67, 0
3, 107424, Note_on_c, 2, 67, 45
3, 107456, Note_on_c, 2, 67, 0
3, 107520, Note_on_c, 2, 72, 45
3, 107808, Note_on_c, 2, 72, 0
3, 107808, Note_on_c, 2, 74, 45
3, 107832, Note_on_c, 2, 74, 0
3, 107832, Note_on_c, 2, 72, 45
3, 107856, Note_on_c, 2, 72, 0
3, 107856, Note_on_c, 2, 71, 45
3, 107880, Note_on_c, 2, 71, 0
3, 107880, Note_on_c, 2, 69, 45
3, 107902, Note_on_c, 2, 69, 0
3, 107904, Note_on_c, 2, 67, 45
3, 107936, Note_on_c, 2, 67, 0
3, 108000, Note_on_c, 2, 67, 45
3, 108032, Note_on_c, 2, 67, 0
3, 108096, Note_on_c, 2, 67, 45
3, 108128, Note_on_c, 2, 67, 0
3, 108192, Note_on_c, 2, 67, 45
3, 108224, Note_on_c, 2, 67, 0
3, 108288, Note_on_c, 2, 67, 45
3, 108382, Note_on_c, 2, 67, 0
3, 108768, Note_on_c, 2, 67, 45
3, 108800, Note_on_c, 2, 67, 0
3, 108864, Note_on_c, 2, 67, 45
3, 108896, Note_on_c, 2, 67, 0
3, 108960, Note_on_c, 2, 67, 45
3, 108992, Note_on_c, 2, 67, 0
3, 109056, Note_on_c, 2, 74, 45
3, 109104, Note_on_c, 2, 74, 0
3, 109104, Note_on_c, 2, 72, 45
3, 109152, Note_on_c, 2, 72, 0
3, 109152, Note_on_c, 2, 71, 45
3, 109200, Note_on_c, 2, 71, 0
3, 109200, Note_on_c, 2, 72, 47
3, 109248, Note_on_c, 2, 72, 0
3, 109248, Note_on_c, 2, 74, 49
3, 109296, Note_on_c, 2, 74, 0
3, 109296, Note_on_c, 2, 72, 51
3, 109344, Note_on_c, 2, 72, 0
3, 109344, Note_on_c, 2, 70, 53
3, 109392, Note_on_c, 2, 70, 0
3, 109392, Note_on_c, 2, 69, 55
3, 109438, Note_on_c, 2, 69, 0
3, 109440, Note_on_c, 2, 70, 57
3, 109534, Note_on_c, 2, 70, 0
3, 109536, Note_on_c, 2, 58, 61
3, 109568, Note_on_c, 2, 58, 0
3, 109632, Note_on_c, 2, 58, 65
3, 109664, Note_on_c, 2, 58, 0
3, 109728, Note_on_c, 2, 58, 70
3, 109760, Note_on_c, 2, 58, 0
3, 109824, Note_on_c, 2, 57, 60
3, 109984, Note_on_c, 2, 57, 0
3, 110304, Note_on_c, 2, 60, 45
3, 110336, Note_on_c, 2, 60, 0
3, 110400, Note_on_c, 2, 60, 45
3, 110432, Note_on_c, 2, 60, 0
3, 110496, Note_on_c, 2, 60, 45
3, 110528, Note_on_c, 2, 60, 0
3, 110592, Note_on_c, 2, 65, 45
3, 110880, Note_on_c, 2, 65, 0
3, 110880, Note_on_c, 2, 67, 45
3, 110904, Note_on_c, 2, 67, 0
3, 110904, Note_on_c, 2, 65, 45
3, 110928, Note_on_c, 2, 65, 0
3, 110928, Note_on_c, 2, 64, 45
3, 110952, Note_on_c, 2, 64, 0
3, 110952, Note_on_c, 2, 62, 45
3, 110974, Note_on_c, 2, 62, 0
3, 110976, Note_on_c, 2, 60, 45
3, 111008, Note_on_c, 2, 60, 0
3, 111072, Note_on_c, 2, 60, 45
3, 111104, Note_on_c, 2, 60, 0
3, 111168, Note_on_c, 2, 60, 45
3, 111200, Note_on_c, 2, 60, 0
3, 111264, Note_on_c, 2, 60, 45
3, 111296, Note_on_c, 2, 60, 0
3, 111360, Note_on_c, 2, 60, 45
3, 111520, Note_on_c, 2, 60, 0
3, 111840, Note_on_c, 2, 60, 45
3, 111872, Note_on_c, 2, 60, 0
3, 111936, Note_on_c, 2, 60, 45
3, 111968, Note_on_c, 2, 60, 0
3, 112032, Note_on_c, 2, 60, 45
3, 112064, Note_on_c, 2, 60, 0
3, 112128, Note_on_c, 2, 67, 45
3, 112176, Note_on_c, 2, 67, 0
3, 112176, Note_on_c, 2, 65, 46
3, 112224, Note_on_c, 2, 65, 0
3, 112224, Note_on_c, 2, 64, 47
3, 112272, Note_on_c, 2, 64, 0
3, 112272, Note_on_c, 2, 65, 49
3, 112320, Note_on_c, 2, 65, 0
3, 112320, Note_on_c, 2, 67, 51
3, 112368, Note_on_c, 2, 67, 0
3, 112368, Note_on_c, 2, 65, 53
3, 112416, Note_on_c, 2, 65, 0
3, 112416, Note_on_c, 2, 64, 55
3, 112464, Note_on_c, 2, 64, 0
3, 112464, Note_on_c, 2, 62, 57
3, 112510, Note_on_c, 2, 62, 0
3, 112512, Note_on_c, 2, 60, 59
3, 112606, Note_on_c, 2, 60, 0
3, 112608, Note_on_c, 2, 70, 63
3, 112640, Note_on_c, 2, 70, 0
3, 112704, Note_on_c, 2, 70, 67
3, 112736, Note_on_c, 2, 70, 0
3, 112800, Note_on_c, 2, 70, 71
3, 112832, Note_on_c, 2, 70, 0
3, 112896, Note_on_c, 2, 69, 45
3, 112990, Note_on_c, 2, 69, 0
3, 113184, Note_on_c, 2, 72, 45
3, 113376, Note_on_c, 2, 72, 0
3, 113376, Note_on_c, 2, 77, 45
3, 113470, Note_on_c, 2, 77, 0
3, 113568, Note_on_c, 2, 69, 45
3, 113760, Note_on_c, 2, 69, 0
3, 113760, Note_on_c, 2, 74, 45
3, 113854, Note_on_c, 2, 74, 0
3, 113952, Note_on_c, 2, 65, 45
3, 114142, Note_on_c, 2, 65, 0
3, 114528, Note_on_c, 2, 74, 45
3, 114622, Note_on_c, 2, 74, 0
3, 114720, Note_on_c, 2, 74, 45
3, 114814, Note_on_c, 2, 74, 0
3, 114912, Note_on_c, 2, 72, 45
3, 115006, Note_on_c, 2, 72, 0
3, 115104, Note_on_c, 2, 70, 45
3, 115198, Note_on_c, 2, 70, 0
3, 115200, Note_on_c, 2, 74, 45
3, 115248, Note_on_c, 2, 74, 0
3, 115248, Note_on_c, 2, 72, 45
3, 115296, Note_on_c, 2, 72, 0
3, 115296, Note_on_c, 2, 71, 45
3, 115344, Note_on_c, 2, 71, 0
3, 115344, Note_on_c, 2, 72, 45
3, 115392, Note_on_c, 2, 72, 0
3, 115392, Note_on_c, 2, 74, 45
3, 115440, Note_on_c, 2, 74, 0
3, 115440, Note_on_c, 2, 72, 45
3, 115488, Note_on_c, 2, 72, 0
3, 115488, Note_on_c, 2, 70, 45
3, 115536, Note_on_c, 2, 70, 0
3, 115536, Note_on_c, 2, 67, 45
3, 115582, Note_on_c, 2, 67, 0
3, 115584, Note_on_c, 2, 70, 45
3, 115632, Note_on_c, 2, 70, 0
3, 115632, Note_on_c, 2, 69, 45
3, 115680, Note_on_c, 2, 69, 0
3, 115680, Note_on_c, 2, 68, 45
3, 115728, Note_on_c, 2, 68, 0
3, 115728, Note_on_c, 2, 69, 45
3, 115776, Note_on_c, 2, 69, 0
3, 115776, Note_on_c, 2, 70, 45
3, 115824, Note_on_c, 2, 70, 0
3, 115824, Note_on_c, 2, 69, 45
3, 115872, Note_on_c, 2, 69, 0
3, 115872, Note_on_c, 2, 67, 45
3, 115920, Note_on_c, 2, 67, 0
3, 115920, Note_on_c, 2, 64, 45
3, 115966, Note_on_c, 2, 64, 0
3, 115968, Note_on_c, 2, 65, 45
3, 116128, Note_on_c, 2, 65, 0
3, 116256, Note_on_c, 2, 65, 45
3, 116448, Note_on_c, 2, 65, 0
3, 116448, Note_on_c, 2, 70, 45
3, 116542, Note_on_c, 2, 70, 0
3, 116640, Note_on_c, 2, 62, 45
3, 116832, Note_on_c, 2, 62, 0
3, 116832, Note_on_c, 2, 74, 48
3, 116926, Note_on_c, 2, 74, 0
3, 116928, Note_on_c, 2, 74, 51
3, 116960, Note_on_c, 2, 74, 0
3, 117024, Note_on_c, 2, 74, 55
3, 117056, Note_on_c, 2, 74, 0
3, 117120, Note_on_c, 2, 74, 59
3, 117312, Note_on_c, 2, 74, 0
3, 117312, Note_on_c, 2, 72, 67
3, 117408, Note_on_c, 2, 72, 0
3, 117408, Note_on_c, 2, 70, 71
3, 117502, Note_on_c, 2, 70, 0
3, 117504, Note_on_c, 2, 69, 45
3, 117600, Note_on_c, 2, 69, 0
3, 117600, Note_on_c, 2, 72, 63
3, 117982, Note_on_c, 2, 72, 0
3, 117984, Note_on_c, 2, 72, 63
3, 118366, Note_on_c, 2, 72, 0
3, 118368, Note_on_c, 2, 72, 45
3, 118464, Note_on_c, 2, 72, 0
3, 118464, Note_on_c, 2, 74, 45
3, 118560, Note_on_c, 2, 74, 0
3, 118560, Note_on_c, 2, 70, 45
3, 118656, Note_on_c, 2, 70, 0
3, 118656, Note_on_c, 2, 69, 45
3, 118752, Note_on_c, 2, 69, 0
3, 118752, Note_on_c, 2, 65, 45
3, 118848, Note_on_c, 2, 65, 0
3, 118848, Note_on_c, 2, 67, 45
3, 118944, Note_on_c, 2, 67, 0
3, 118944, Note_on_c, 2, 64, 45
3, 119038, Note_on_c, 2, 64, 0
3, 119040, Note_on_c, 2, 65, 45
3, 119072, Note_on_c, 2, 65, 0
3, 119088, Note_on_c, 2, 72, 45
3, 119136, Note_on_c, 2, 72, 0
3, 119136, Note_on_c, 2, 80, 63
3, 119184, Note_on_c, 2, 80, 0
3, 119184, Note_on_c, 2, 77, 45
3, 119230, Note_on_c, 2, 77, 0
3, 119232, Note_on_c, 2, 77, 45
3, 119280, Note_on_c, 2, 77, 0
3, 119280, Note_on_c, 2, 76, 47
3, 119328, Note_on_c, 2, 76, 0
3, 119328, Note_on_c, 2, 74, 49
3, 119376, Note_on_c, 2, 74, 0
3, 119376, Note_on_c, 2, 76, 51
3, 119422, Note_on_c, 2, 76, 0
3, 119424, Note_on_c, 2, 77, 53
3, 119456, Note_on_c, 2, 77, 0
3, 119472, Note_on_c, 2, 72, 55
3, 119520, Note_on_c, 2, 72, 0
3, 119520, Note_on_c, 2, 80, 79
3, 119568, Note_on_c, 2, 80, 0
3, 119568, Note_on_c, 2, 77, 60
3, 119614, Note_on_c, 2, 77, 0
3, 119616, Note_on_c, 2, 77, 63
3, 119664, Note_on_c, 2, 77, 0
3, 119664, Note_on_c, 2, 76, 66
3, 119712, Note_on_c, 2, 76, 0
3, 119712, Note_on_c, 2, 74, 69
3, 119760, Note_on_c, 2, 74, 0
3, 119760, Note_on_c, 2, 76, 72
3, 119806, Note_on_c, 2, 76, 0
3, 119808, Note_on_c, 2, 77, 45
3, 119902, Note_on_c, 2, 77, 0
3, 119904, Note_on_c, 2, 68, 45
3, 119952, Note_on_c, 2, 68, 0
3, 119952, Note_on_c, 2, 65, 45
3, 120000, Note_on_c, 2, 65, 0
3, 120000, Note_on_c, 2, 70, 45
3, 120048, Note_on_c, 2, 70, 0
3, 120048, Note_on_c, 2, 67, 45
3, 120094, Note_on_c, 2, 67, 0
3, 120192, Note_on_c, 2, 68, 45
3, 120240, Note_on_c, 2, 68, 0
3, 120240, Note_on_c, 2, 65, 45
3, 120286, Note_on_c, 2, 65, 0
3, 120384, Note_on_c, 2, 67, 45
3, 120432, Note_on_c, 2, 67, 0
3, 120432, Note_on_c, 2, 64, 45
3, 120478, Note_on_c, 2, 64, 0
3, 120576, Note_on_c, 2, 72, 45
3, 120608, Note_on_c, 2, 72, 0
3, 120608, Note_on_c, 2, 71, 45
3, 120640, Note_on_c, 2, 71, 0
3, 120640, Note_on_c, 2, 72, 45
3, 120672, Note_on_c, 2, 72, 0
3, 120672, Note_on_c, 2, 73, 45
3, 120704, Note_on_c, 2, 73, 0
3, 120704, Note_on_c, 2, 72, 45
3, 120736, Note_on_c, 2, 72, 0
3, 120736, Note_on_c, 2, 71, 45
3, 120766, Note_on_c, 2, 71, 0
3, 120768, Note_on_c, 2, 72, 45
3, 120992, Note_on_c, 2, 72, 0
3, 120992, Note_on_c, 2, 71, 45
3, 121024, Note_on_c, 2, 71, 0
3, 121024, Note_on_c, 2, 72, 45
3, 121056, Note_on_c, 2, 72, 0
3, 121056, Note_on_c, 2, 73, 45
3, 121088, Note_on_c, 2, 73, 0
3, 121088, Note_on_c, 2, 72, 45
3, 121120, Note_on_c, 2, 72, 0
3, 121120, Note_on_c, 2, 71, 45
3, 121150, Note_on_c, 2, 71, 0
3, 121152, Note_on_c, 2, 72, 45
3, 121376, Note_on_c, 2, 72, 0
3, 121376, Note_on_c, 2, 71, 45
3, 121408, Note_on_c, 2, 71, 0
3, 121408, Note_on_c, 2, 72, 45
3, 121440, Note_on_c, 2, 72, 0
3, 121440, Note_on_c, 2, 73, 45
3, 121472, Note_on_c, 2, 73, 0
3, 121472, Note_on_c, 2, 72, 45
3, 121504, Note_on_c, 2, 72, 0
3, 121504, Note_on_c, 2, 71, 45
3, 121534, Note_on_c, 2, 71, 0
3, 121536, Note_on_c, 2, 72, 45
3, 121822, Note_on_c, 2, 72, 0
3, 121824, Note_on_c, 2, 72, 45
3, 121918, Note_on_c, 2, 72, 0
3, 121920, Note_on_c, 2, 72, 45
3, 122014, Note_on_c, 2, 72, 0
3, 122016, Note_on_c, 2, 72, 45
3, 122110, Note_on_c, 2, 72, 0
3, 122112, Note_on_c, 2, 77, 45
3, 122400, Note_on_c, 2, 77, 0
3, 122400, Note_on_c, 2, 81, 50
3, 122494, Note_on_c, 2, 81, 0
3, 122496, Note_on_c, 2, 82, 51
3, 122784, Note_on_c, 2, 82, 0
3, 122784, Note_on_c, 2, 79, 56
3, 122878, Note_on_c, 2, 79, 0
3, 122880, Note_on_c, 2, 81, 57
3, 123168, Note_on_c, 2, 81, 0
3, 123168, Note_on_c, 2, 77, 62
3, 123262, Note_on_c, 2, 77, 0
3, 123264, Note_on_c, 2, 79, 63
3, 123408, Note_on_c, 2, 79, 0
3, 123408, Note_on_c, 2, 76, 65
3, 123454, Note_on_c, 2, 76, 0
3, 123456, Note_on_c, 2, 77, 65
3, 123480, Note_on_c, 2, 77, 0
3, 123480, Note_on_c, 2, 76, 65
3, 123504, Note_on_c, 2, 76, 0
3, 123504, Note_on_c, 2, 77, 65
3, 123528, Note_on_c, 2, 77, 0
3, 123528, Note_on_c, 2, 76, 65
3, 123552, Note_on_c, 2, 76, 0
3, 123552, Note_on_c, 2, 77, 65
3, 123576, Note_on_c, 2, 77, 0
3, 123576, Note_on_c, 2, 76, 65
3, 123600, Note_on_c, 2, 76, 0
3, 123600, Note_on_c, 2, 74, 65
3, 123624, Note_on_c, 2, 74, 0
3, 123624, Note_on_c, 2, 76, 65
3, 123646, Note_on_c, 2, 76, 0
3, 123680, Note_on_c, 2, 76, 65
3, 123712, Note_on_c, 2, 76, 0
3, 123712, Note_on_c, 2, 77, 65
3, 123744, Note_on_c, 2, 77, 0
3, 123744, Note_on_c, 2, 79, 65
3, 123776, Note_on_c, 2, 79, 0
3, 123776, Note_on_c, 2, 77, 65
3, 123808, Note_on_c, 2, 77, 0
3, 123808, Note_on_c, 2, 76, 65
3, 123838, Note_on_c, 2, 76, 0
3, 123840, Note_on_c, 2, 77, 65
3, 124064, Note_on_c, 2, 77, 0
3, 124064, Note_on_c, 2, 76, 70
3, 124096, Note_on_c, 2, 76, 0
3, 124096, Note_on_c, 2, 77, 70
3, 124128, Note_on_c, 2, 77, 0
3, 124128, Note_on_c, 2, 79, 71
3, 124160, Note_on_c, 2, 79, 0
3, 124160, Note_on_c, 2, 77, 72
3, 124192, Note_on_c, 2, 77, 0
3, 124192, Note_on_c, 2, 76, 73
3, 124222, Note_on_c, 2, 76, 0
3, 124224, Note_on_c, 2, 77, 74
3, 124448, Note_on_c, 2, 77, 0
3, 124448, Note_on_c, 2, 74, 81
3, 124480, Note_on_c, 2, 74, 0
3, 124480, Note_on_c, 2, 75, 82
3, 124512, Note_on_c, 2, 75, 0
3, 124512, Note_on_c, 2, 77, 83
3, 124544, Note_on_c, 2, 77, 0
3, 124544, Note_on_c, 2, 79, 84
3, 124576, Note_on_c, 2, 79, 0
3, 124576, Note_on_c, 2, 81, 85
3, 124608, Note_on_c, 2, 81, 0
3, 124608, Note_on_c, 2, 82, 86
3, 124640, Note_on_c, 2, 82, 0
3, 124640, Note_on_c, 2, 81, 87
3, 124672, Note_on_c, 2, 81, 0
3, 124672, Note_on_c, 2, 79, 88
3, 124704, Note_on_c, 2, 79, 0
3, 124704, Note_on_c, 2, 77, 89
3, 124736, Note_on_c, 2, 77, 0
3, 124736, Note_on_c, 2, 75, 90
3, 124768, Note_on_c, 2, 75, 0
3, 124768, Note_on_c, 2, 74, 91
3, 124798, Note_on_c, 2, 74, 0
3, 124800, Note_on_c, 2, 75, 92
3, 124832, Note_on_c, 2, 75, 0
3, 124832, Note_on_c, 2, 77, 92
3, 124864, Note_on_c, 2, 77, 0
3, 124864, Note_on_c, 2, 79, 92
3, 124896, Note_on_c, 2, 79, 0
3, 124896, Note_on_c, 2, 77, 92
3, 124928, Note_on_c, 2, 77, 0
3, 124928, Note_on_c, 2, 75, 92
3, 124960, Note_on_c, 2, 75, 0
3, 124960, Note_on_c, 2, 74, 92
3, 124992, Note_on_c, 2, 74, 0
3, 124992, Note_on_c, 2, 72, 92
3, 125024, Note_on_c, 2, 72, 0
3, 125024, Note_on_c, 2, 70, 92
3, 125056, Note_on_c, 2, 70, 0
3, 125056, Note_on_c, 2, 69, 92
3, 125088, Note_on_c, 2, 69, 0
3, 125088, Note_on_c, 2, 67, 92
3, 125120, Note_on_c, 2, 67, 0
3, 125120, Note_on_c, 2, 65, 92
3, 125152, Note_on_c, 2, 65, 0
3, 125152, Note_on_c, 2, 63, 92
3, 125182, Note_on_c, 2, 63, 0
3, 125184, Note_on_c, 2, 62, 45
3, 125278, Note_on_c, 2, 62, 0
3, 125568, Note_on_c, 2, 63, 45
3, 125600, Note_on_c, 2, 63, 0
3, 125664, Note_on_c, 2, 63, 45
3, 125696, Note_on_c, 2, 63, 0
3, 125760, Note_on_c, 2, 63, 45
3, 125792, Note_on_c, 2, 63, 0
3, 126336, Note_on_c, 2, 68, 45
3, 126368, Note_on_c, 2, 68, 0
3, 126432, Note_on_c, 2, 68, 45
3, 126464, Note_on_c, 2, 68, 0
3, 126528, Note_on_c, 2, 68, 45
3, 126560, Note_on_c, 2, 68, 0
3, 127488, Note_on_c, 2, 73, 45
3, 127520, Note_on_c, 2, 73, 0
3, 127584, Note_on_c, 2, 73, 45
3, 127616, Note_on_c, 2, 73, 0
3, 127680, Note_on_c, 2, 76, 45
3, 127712, Note_on_c, 2, 76, 0
3, 127872, Note_on_c, 2, 70, 30
3, 127904, Note_on_c, 2, 70, 0
3, 127968, Note_on_c, 2, 70, 30
3, 128000, Note_on_c, 2, 70, 0
3, 128064, Note_on_c, 2, 70, 30
3, 128096, Note_on_c, 2, 70, 0
3, 128160, Note_on_c, 2, 70, 30
3, 128192, Note_on_c, 2, 70, 0
3, 128256, Note_on_c, 2, 70, 30
3, 128288, Note_on_c, 2, 70, 0
3, 128352, Note_on_c, 2, 70, 30
3, 128384, Note_on_c, 2, 70, 0
3, 128448, Note_on_c, 2, 70, 30
3, 128480, Note_on_c, 2, 70, 0
3, 128544, Note_on_c, 2, 70, 30
3, 128576, Note_on_c, 2, 70, 0
3, 128640, Note_on_c, 2, 69, 30
3, 128734, Note_on_c, 2, 69, 0
3, 128736, Note_on_c, 2, 69, 30
3, 128830, Note_on_c, 2, 69, 0
3, 128832, Note_on_c, 2, 69, 30
3, 128926, Note_on_c, 2, 69, 0
3, 128928, Note_on_c, 2, 69, 30
3, 129022, Note_on_c, 2, 69, 0
3, 129024, Note_on_c, 2, 69, 30
3, 129118, Note_on_c, 2, 69, 0
3, 129120, Note_on_c, 2, 69, 30
3, 129214, Note_on_c, 2, 69, 0
3, 129216, Note_on_c, 2, 69, 30
3, 129310, Note_on_c, 2, 69, 0
3, 129312, Note_on_c, 2, 69, 30
3, 129406, Note_on_c, 2, 69, 0
3, 129408, Note_on_c, 2, 68, 30
3, 129502, Note_on_c, 2, 68, 0
3, 129504, Note_on_c, 2, 68, 30
3, 129598, Note_on_c, 2, 68, 0
3, 129600, Note_on_c, 2, 68, 30
3, 129694, Note_on_c, 2, 68, 0
3, 129696, Note_on_c, 2, 68, 30
3, 129790, Note_on_c, 2, 68, 0
3, 129792, Note_on_c, 2, 68, 30
3, 129886, Note_on_c, 2, 68, 0
3, 129888, Note_on_c, 2, 68, 30
3, 129982, Note_on_c, 2, 68, 0
3, 129984, Note_on_c, 2, 68, 30
3, 130078, Note_on_c, 2, 68, 0
3, 130080, Note_on_c, 2, 68, 30
3, 130174, Note_on_c, 2, 68, 0
3, 130176, Note_on_c, 2, 68, 30
3, 130270, Note_on_c, 2, 68, 0
3, 130272, Note_on_c, 2, 68, 30
3, 130366, Note_on_c, 2, 68, 0
3, 130368, Note_on_c, 2, 68, 30
3, 130462, Note_on_c, 2, 68, 0
3, 130464, Note_on_c, 2, 68, 30
3, 130558, Note_on_c, 2, 68, 0
3, 130560, Note_on_c, 2, 68, 30
3, 130654, Note_on_c, 2, 68, 0
3, 130656, Note_on_c, 2, 68, 30
3, 130750, Note_on_c, 2, 68, 0
3, 130752, Note_on_c, 2, 68, 30
3, 130846, Note_on_c, 2, 68, 0
3, 130848, Note_on_c, 2, 68, 30
3, 130942, Note_on_c, 2, 68, 0
3, 130944, Note_on_c, 2, 67, 30
3, 131038, Note_on_c, 2, 67, 0
3, 131040, Note_on_c, 2, 67, 30
3, 131134, Note_on_c, 2, 67, 0
3, 131136, Note_on_c, 2, 67, 30
3, 131230, Note_on_c, 2, 67, 0
3, 131232, Note_on_c, 2, 67, 30
3, 131326, Note_on_c, 2, 67, 0
3, 131328, Note_on_c, 2, 67, 30
3, 131422, Note_on_c, 2, 67, 0
3, 131424, Note_on_c, 2, 67, 30
3, 131518, Note_on_c, 2, 67, 0
3, 131520, Note_on_c, 2, 67, 30
3, 131614, Note_on_c, 2, 67, 0
3, 131616, Note_on_c, 2, 67, 30
3, 131710, Note_on_c, 2, 67, 0
3, 131712, Note_on_c, 2, 67, 30
3, 131806, Note_on_c, 2, 67, 0
3, 131808, Note_on_c, 2, 67, 35
3, 131902, Note_on_c, 2, 67, 0
3, 131904, Note_on_c, 2, 67, 40
3, 131998, Note_on_c, 2, 67, 0
3, 132000, Note_on_c, 2, 67, 45
3, 132094, Note_on_c, 2, 67, 0
3, 132096, Note_on_c, 2, 67, 51
3, 132190, Note_on_c, 2, 67, 0
3, 132192, Note_on_c, 2, 67, 57
3, 132286, Note_on_c, 2, 67, 0
3, 132288, Note_on_c, 2, 58, 63
3, 132382, Note_on_c, 2, 58, 0
3, 132384, Note_on_c, 2, 67, 69
3, 132478, Note_on_c, 2, 67, 0
3, 132480, Note_on_c, 2, 60, 45
3, 132574, Note_on_c, 2, 60, 0
3, 135552, Note_on_c, 2, 69, 45
3, 135936, Note_on_c, 2, 69, 0
3, 135936, Note_on_c, 2, 70, 56
3, 136192, Note_on_c, 2, 70, 0
3, 136224, Note_on_c, 2, 67, 65
3, 136318, Note_on_c, 2, 67, 0
3, 136320, Note_on_c, 2, 64, 68
3, 136352, Note_on_c, 2, 64, 0
3, 136416, Note_on_c, 2, 60, 71
3, 136448, Note_on_c, 2, 60, 0
3, 136512, Note_on_c, 2, 72, 74
3, 136798, Note_on_c, 2, 72, 0
3, 136800, Note_on_c, 2, 69, 83
3, 136832, Note_on_c, 2, 69, 0
3, 136896, Note_on_c, 2, 72, 86
3, 136928, Note_on_c, 2, 72, 0
3, 136992, Note_on_c, 2, 69, 89
3, 137024, Note_on_c, 2, 69, 0
3, 137088, Note_on_c, 2, 63, 92
3, 137088, Note_on_c, 2, 69, 92
3, 137424, Note_on_c, 2, 69, 0
3, 137424, Note_on_c, 2, 63, 0
3, 137472, Note_on_c, 2, 62, 92
3, 137472, Note_on_c, 2, 70, 92
3, 137808, Note_on_c, 2, 70, 0
3, 137808, Note_on_c, 2, 62, 0
3, 137856, Note_on_c, 2, 82, 92
3, 137888, Note_on_c, 2, 82, 0
3, 137888, Note_on_c, 2, 81, 92
3, 137920, Note_on_c, 2, 81, 0
3, 137920, Note_on_c, 2, 82, 92
3, 137952, Note_on_c, 2, 82, 0
3, 137952, Note_on_c, 2, 84, 92
3, 137984, Note_on_c, 2, 84, 0
3, 137984, Note_on_c, 2, 82, 92
3, 138016, Note_on_c, 2, 82, 0
3, 138016, Note_on_c, 2, 81, 92
3, 138048, Note_on_c, 2, 81, 0
3, 138048, Note_on_c, 2, 79, 92
3, 138080, Note_on_c, 2, 79, 0
3, 138080, Note_on_c, 2, 77, 92
3, 138112, Note_on_c, 2, 77, 0
3, 138112, Note_on_c, 2, 76, 92
3, 138144, Note_on_c, 2, 76, 0
3, 138144, Note_on_c, 2, 74, 92
3, 138176, Note_on_c, 2, 74, 0
3, 138176, Note_on_c, 2, 72, 92
3, 138208, Note_on_c, 2, 72, 0
3, 138208, Note_on_c, 2, 70, 92
3, 138238, Note_on_c, 2, 70, 0
3, 138240, Note_on_c, 2, 69, 92
3, 138272, Note_on_c, 2, 69, 0
3, 138336, Note_on_c, 2, 65, 92
3, 138368, Note_on_c, 2, 65, 0
3, 138432, Note_on_c, 2, 69, 92
3, 138464, Note_on_c, 2, 69, 0
3, 138528, Note_on_c, 2, 72, 92
3, 138560, Note_on_c, 2, 72, 0
3, 138624, Note_on_c, 2, 75, 92
3, 138656, Note_on_c, 2, 75, 0
3, 138656, Note_on_c, 2, 74, 92
3, 138688, Note_on_c, 2, 74, 0
3, 138688, Note_on_c, 2, 75, 92
3, 138720, Note_on_c, 2, 75, 0
3, 138720, Note_on_c, 2, 77, 92
3, 138752, Note_on_c, 2, 77, 0
3, 138752, Note_on_c, 2, 75, 92
3, 138784, Note_on_c, 2, 75, 0
3, 138784, Note_on_c, 2, 74, 92
3, 138816, Note_on_c, 2, 74, 0
3, 138816, Note_on_c, 2, 72, 92
3, 138848, Note_on_c, 2, 72, 0
3, 138848, Note_on_c, 2, 70, 92
3, 138880, Note_on_c, 2, 70, 0
3, 138880, Note_on_c, 2, 69, 92
3, 138912, Note_on_c, 2, 69, 0
3, 138912, Note_on_c, 2, 67, 92
3, 138944, Note_on_c, 2, 67, 0
3, 138944, Note_on_c, 2, 65, 92
3, 138976, Note_on_c, 2, 65, 0
3, 138976, Note_on_c, 2, 63, 92
3, 139006, Note_on_c, 2, 63, 0
3, 139008, Note_on_c, 2, 62, 92
3, 139040, Note_on_c, 2, 62, 0
3, 139104, Note_on_c, 2, 62, 92
3, 139136, Note_on_c, 2, 62, 0
3, 139200, Note_on_c, 2, 74, 92
3, 139232, Note_on_c, 2, 74, 0
3, 139392, Note_on_c, 2, 64, 92
3, 139424, Note_on_c, 2, 64, 0
3, 139488, Note_on_c, 2, 64, 92
3, 139520, Note_on_c, 2, 64, 0
3, 139584, Note_on_c, 2, 70, 92
3, 139616, Note_on_c, 2, 70, 0
3, 139680, Note_on_c, 2, 70, 92
3, 139712, Note_on_c, 2, 70, 0
3, 139776, Note_on_c, 2, 69, 92
3, 139870, Note_on_c, 2, 69, 0
3, 140064, Note_on_c, 2, 67, 45
3, 140160, Note_on_c, 2, 67, 0
3, 140160, Note_on_c, 2, 60, 45
3, 140256, Note_on_c, 2, 60, 0
3, 140256, Note_on_c, 2, 69, 45
3, 140350, Note_on_c, 2, 69, 0
3, 140448, Note_on_c, 2, 67, 45
3, 140544, Note_on_c, 2, 67, 0
3, 140544, Note_on_c, 2, 60, 45
3, 140640, Note_on_c, 2, 60, 0
3, 140640, Note_on_c, 2, 72, 45
3, 140734, Note_on_c, 2, 72, 0
3, 140832, Note_on_c, 2, 67, 45
3, 140926, Note_on_c, 2, 67, 0
3, 140928, Note_on_c, 2, 60, 45
3, 140976, Note_on_c, 2, 60, 0
3, 140976, Note_on_c, 2, 57, 45
3, 141022, Note_on_c, 2, 57, 0
3, 141024, Note_on_c, 2, 60, 45
3, 141056, Note_on_c, 2, 60, 0
3, 141072, Note_on_c, 2, 60, 45
3, 141104, Note_on_c, 2, 60, 0
3, 141120, Note_on_c, 2, 60, 45
3, 141168, Note_on_c, 2, 60, 0
3, 141168, Note_on_c, 2, 58, 45
3, 141214, Note_on_c, 2, 58, 0
3, 141216, Note_on_c, 2, 60, 45
3, 141248, Note_on_c, 2, 60, 0
3, 141264, Note_on_c, 2, 60, 45
3, 141296, Note_on_c, 2, 60, 0
3, 141312, Note_on_c, 2, 60, 45
3, 141360, Note_on_c, 2, 60, 0
3, 141360, Note_on_c, 2, 57, 45
3, 141406, Note_on_c, 2, 57, 0
3, 141408, Note_on_c, 2, 65, 45
3, 141440, Note_on_c, 2, 65, 0
3, 141456, Note_on_c, 2, 65, 45
3, 141488, Note_on_c, 2, 65, 0
3, 141504, Note_on_c, 2, 65, 45
3, 141552, Note_on_c, 2, 65, 0
3, 141552, Note_on_c, 2, 62, 45
3, 141598, Note_on_c, 2, 62, 0
3, 141600, Note_on_c, 2, 65, 45
3, 141632, Note_on_c, 2, 65, 0
3, 141648, Note_on_c, 2, 65, 45
3, 141680, Note_on_c, 2, 65, 0
3, 141696, Note_on_c, 2, 65, 45
3, 141744, Note_on_c, 2, 65, 0
3, 141744, Note_on_c, 2, 63, 45
3, 141790, Note_on_c, 2, 63, 0
3, 141792, Note_on_c, 2, 65, 45
3, 141824, Note_on_c, 2, 65, 0
3, 141840, Note_on_c, 2, 65, 45
3, 141872, Note_on_c, 2, 65, 0
3, 141888, Note_on_c, 2, 65, 45
3, 141936, Note_on_c, 2, 65, 0
3, 141936, Note_on_c, 2, 62, 45
3, 141982, Note_on_c, 2, 62, 0
3, 141984, Note_on_c, 2, 65, 45
3, 142016, Note_on_c, 2, 65, 0
3, 142032, Note_on_c, 2, 65, 45
3, 142064, Note_on_c, 2, 65, 0
3, 142080, Note_on_c, 2, 67, 45
3, 142128, Note_on_c, 2, 67, 0
3, 142128, Note_on_c, 2, 64, 45
3, 142174, Note_on_c, 2, 64, 0
3, 142176, Note_on_c, 2, 67, 45
3, 142208, Note_on_c, 2, 67, 0
3, 142224, Note_on_c, 2, 67, 45
3, 142256, Note_on_c, 2, 67, 0
3, 142272, Note_on_c, 2, 69, 45
3, 142320, Note_on_c, 2, 69, 0
3, 142320, Note_on_c, 2, 65, 45
3, 142366, Note_on_c, 2, 65, 0
3, 142368, Note_on_c, 2, 69, 45
3, 142400, Note_on_c, 2, 69, 0
3, 142416, Note_on_c, 2, 69, 45
3, 142448, Note_on_c, 2, 69, 0
3, 142464, Note_on_c, 2, 67, 45
3, 142512, Note_on_c, 2, 67, 0
3, 142512, Note_on_c, 2, 65, 45
3, 142558, Note_on_c, 2, 65, 0
3, 142560, Note_on_c, 2, 67, 45
3, 142592, Note_on_c, 2, 67, 0
3, 142608, Note_on_c, 2, 67, 46
3, 142640, Note_on_c, 2, 67, 0
3, 142656, Note_on_c, 2, 67, 47
3, 142704, Note_on_c, 2, 67, 0
3, 142704, Note_on_c, 2, 65, 48
3, 142750, Note_on_c, 2, 65, 0
3, 142752, Note_on_c, 2, 67, 49
3, 142784, Note_on_c, 2, 67, 0
3, 142800, Note_on_c, 2, 67, 50
3, 142832, Note_on_c, 2, 67, 0
3, 142848, Note_on_c, 2, 69, 51
3, 142896, Note_on_c, 2, 69, 0
3, 142896, Note_on_c, 2, 65, 52
3, 142942, Note_on_c, 2, 65, 0
3, 142944, Note_on_c, 2, 69, 53
3, 142976, Note_on_c, 2, 69, 0
3, 142992, Note_on_c, 2, 69, 54
3, 143024, Note_on_c, 2, 69, 0
3, 143040, Note_on_c, 2, 70, 55
3, 143088, Note_on_c, 2, 70, 0
3, 143088, Note_on_c, 2, 67, 56
3, 143134, Note_on_c, 2, 67, 0
3, 143136, Note_on_c, 2, 70, 57
3, 143168, Note_on_c, 2, 70, 0
3, 143184, Note_on_c, 2, 70, 58
3, 143216, Note_on_c, 2, 70, 0
3, 143232, Note_on_c, 2, 69, 59
3, 143253, Note_on_c, 2, 69, 0
3, 143264, Note_on_c, 2, 81, 59
3, 143296, Note_on_c, 2, 81, 0
3, 143296, Note_on_c, 2, 79, 59
3, 143328, Note_on_c, 2, 79, 0
3, 143328, Note_on_c, 2, 77, 59
3, 143360, Note_on_c, 2, 77, 0
3, 143360, Note_on_c, 2, 76, 59
3, 143392, Note_on_c, 2, 76, 0
3, 143392, Note_on_c, 2, 74, 59
3, 143424, Note_on_c, 2, 74, 0
3, 143424, Note_on_c, 2, 72, 59
3, 143456, Note_on_c, 2, 72, 0
3, 143456, Note_on_c, 2, 70, 59
3, 143488, Note_on_c, 2, 70, 0
3, 143488, Note_on_c, 2, 69, 59
3, 143520, Note_on_c, 2, 69, 0
3, 143520, Note_on_c, 2, 67, 59
3, 143552, Note_on_c, 2, 67, 0
3, 143552, Note_on_c, 2, 65, 59
3, 143584, Note_on_c, 2, 65, 0
3, 143584, Note_on_c, 2, 64, 59
3, 143614, Note_on_c, 2, 64, 0
3, 143616, Note_on_c, 2, 65, 59
3, 143710, Note_on_c, 2, 65, 0
3, 144000, Note_on_c, 2, 69, 68
3, 144021, Note_on_c, 2, 69, 0
3, 144032, Note_on_c, 2, 81, 69
3, 144064, Note_on_c, 2, 81, 0
3, 144064, Note_on_c, 2, 79, 70
3, 144096, Note_on_c, 2, 79, 0
3, 144096, Note_on_c, 2, 77, 71
3, 144128, Note_on_c, 2, 77, 0
3, 144128, Note_on_c, 2, 76, 72
3, 144160, Note_on_c, 2, 76, 0
3, 144160, Note_on_c, 2, 74, 73
3, 144192, Note_on_c, 2, 74, 0
3, 144192, Note_on_c, 2, 72, 74
3, 144224, Note_on_c, 2, 72, 0
3, 144224, Note_on_c, 2, 70, 75
3, 144256, Note_on_c, 2, 70, 0
3, 144256, Note_on_c, 2, 69, 76
3, 144288, Note_on_c, 2, 69, 0
3, 144288, Note_on_c, 2, 67, 77
3, 144320, Note_on_c, 2, 67, 0
3, 144320, Note_on_c, 2, 65, 78
3, 144352, Note_on_c, 2, 65, 0
3, 144352, Note_on_c, 2, 64, 79
3, 144382, Note_on_c, 2, 64, 0
3, 144384, Note_on_c, 2, 65, 80
3, 144478, Note_on_c, 2, 65, 0
3, 144768, Note_on_c, 2, 65, 92
3, 144789, Note_on_c, 2, 65, 0
3, 144800, Note_on_c, 2, 77, 92
3, 144832, Note_on_c, 2, 77, 0
3, 144832, Note_on_c, 2, 76, 92
3, 144864, Note_on_c, 2, 76, 0
3, 144864, Note_on_c, 2, 74, 92
3, 144896, Note_on_c, 2, 74, 0
3, 144896, Note_on_c, 2, 72, 92
3, 144928, Note_on_c, 2, 72, 0
3, 144928, Note_on_c, 2, 71, 92
3, 144960, Note_on_c, 2, 71, 0
3, 144960, Note_on_c, 2, 72, 92
3, 144992, Note_on_c, 2, 72, 0
3, 144992, Note_on_c, 2, 74, 92
3, 145024, Note_on_c, 2, 74, 0
3, 145024, Note_on_c, 2, 72, 92
3, 145056, Note_on_c, 2, 72, 0
3, 145056, Note_on_c, 2, 70, 92
3, 145088, Note_on_c, 2, 70, 0
3, 145088, Note_on_c, 2, 69, 92
3, 145120, Note_on_c, 2, 69, 0
3, 145120, Note_on_c, 2, 67, 92
3, 145150, Note_on_c, 2, 67, 0
3, 145152, Note_on_c, 2, 65, 92
3, 145173, Note_on_c, 2, 65, 0
3, 145184, Note_on_c, 2, 77, 92
3, 145216, Note_on_c, 2, 77, 0
3, 145216, Note_on_c, 2, 76, 92
3, 145248, Note_on_c, 2, 76, 0
3, 145248, Note_on_c, 2, 74, 92
3, 145280, Note_on_c, 2, 74, 0
3, 145280, Note_on_c, 2, 72, 92
3, 145312, Note_on_c, 2, 72, 0
3, 145312, Note_on_c, 2, 71, 92
3, 145344, Note_on_c, 2, 71, 0
3, 145344, Note_on_c, 2, 72, 92
3, 145376, Note_on_c, 2, 72, 0
3, 145376, Note_on_c, 2, 74, 92
3, 145408, Note_on_c, 2, 74, 0
3, 145408, Note_on_c, 2, 72, 92
3, 145440, Note_on_c, 2, 72, 0
3, 145440, Note_on_c, 2, 70, 92
3, 145472, Note_on_c, 2, 70, 0
3, 145472, Note_on_c, 2, 69, 92
3, 145504, Note_on_c, 2, 69, 0
3, 145504, Note_on_c, 2, 67, 92
3, 145534, Note_on_c, 2, 67, 0
3, 145536, Note_on_c, 2, 65, 92
3, 145696, Note_on_c, 2, 65, 0
3, 145728, Note_on_c, 2, 55, 108
3, 145728, Note_on_c, 2, 64, 108
3, 145728, Note_on_c, 2, 72, 108
3, 145888, Note_on_c, 2, 72, 0
3, 145888, Note_on_c, 2, 64, 0
3, 145888, Note_on_c, 2, 55, 0
3, 145920, Note_on_c, 2, 57, 108
3, 145920, Note_on_c, 2, 69, 108
3, 145920, Note_on_c, 2, 72, 108
3, 145920, Note_on_c, 2, 77, 108
3, 146080, Note_on_c, 2, 77, 0
3, 146080, Note_on_c, 2, 57, 0
3, 146080, Note_on_c, 2, 69, 0
3, 146080, Note_on_c, 2, 72, 0
3, 146080, End_track
4, 0, Start_track
4, 0, Title_t, "Viola."
4, 0, Program_c, 3, 48
4, 0, Control_c, 3, 7, 127
4, 0, Control_c, 3, 10, 64
4, 384, Note_on_c, 3, 48, 45
4, 416, Note_on_c, 3, 48, 0
4, 480, Note_on_c, 3, 48, 45
4, 512, Note_on_c, 3, 48, 0
4, 576, Note_on_c, 3, 48, 45
4, 608, Note_on_c, 3, 48, 0
4, 1152, Note_on_c, 3, 48, 45
4, 1184, Note_on_c, 3, 48, 0
4, 1248, Note_on_c, 3, 48, 45
4, 1280, Note_on_c, 3, 48, 0
4, 1344, Note_on_c, 3, 48, 45
4, 1376, Note_on_c, 3, 48, 0
4, 1632, Note_on_c, 3, 60, 45
4, 1792, Note_on_c, 3, 60, 0
4, 1824, Note_on_c, 3, 60, 45
4, 1918, Note_on_c, 3, 60, 0
4, 2016, Note_on_c, 3, 60, 45
4, 2176, Note_on_c, 3, 60, 0
4, 2208, Note_on_c, 3, 60, 45
4, 2302, Note_on_c, 3, 60, 0
4, 2400, Note_on_c, 3, 60, 45
4, 2592, Note_on_c, 3, 60, 0
4, 2592, Note_on_c, 3, 62, 45
4, 2686, Note_on_c, 3, 62, 0
4, 2688, Note_on_c, 3, 64, 45
4, 2784, Note_on_c, 3, 64, 0
4, 2784, Note_on_c, 3, 65, 45
4, 2880, Note_on_c, 3, 65, 0
4, 2880, Note_on_c, 3, 64, 45
4, 2974, Note_on_c, 3, 64, 0
4, 3072, Note_on_c, 3, 65, 45
4, 3104, Note_on_c, 3, 65, 0
4, 3104, Note_on_c, 3, 64, 45
4, 3136, Note_on_c, 3, 64, 0
4, 3136, Note_on_c, 3, 65, 45
4, 3168, Note_on_c, 3, 65, 0
4, 3168, Note_on_c, 3, 67, 45
4, 3200, Note_on_c, 3, 67, 0
4, 3200, Note_on_c, 3, 65, 45
4, 3232, Note_on_c, 3, 65, 0
4, 3232, Note_on_c, 3, 64, 45
4, 3264, Note_on_c, 3, 64, 0
4, 3264, Note_on_c, 3, 62, 45
4, 3296, Note_on_c, 3, 62, 0
4, 3296, Note_on_c, 3, 60, 45
4, 3328, Note_on_c, 3, 60, 0
4, 3328, Note_on_c, 3, 58, 45
4, 3360, Note_on_c, 3, 58, 0
4, 3360, Note_on_c, 3, 57, 45
4, 3392, Note_on_c, 3, 57, 0
4, 3392, Note_on_c, 3, 55, 45
4, 3424, Note_on_c, 3, 55, 0
4, 3424, Note_on_c, 3, 53, 45
4, 3454, Note_on_c, 3, 53, 0
4, 3456, Note_on_c, 3, 52, 45
4, 3488, Note_on_c, 3, 52, 0
4, 3552, Note_on_c, 3, 52, 45
4, 3584, Note_on_c, 3, 52, 0
4, 3648, Note_on_c, 3, 55, 45
4, 3680, Note_on_c, 3, 55, 0
4, 3840, Note_on_c, 3, 67, 45
4, 3872, Note_on_c, 3, 67, 0
4, 3872, Note_on_c, 3, 66, 45
4, 3904, Note_on_c, 3, 66, 0
4, 3904, Note_on_c, 3, 67, 45
4, 3936, Note_on_c, 3, 67, 0
4, 3936, Note_on_c, 3, 69, 45
4, 3968, Note_on_c, 3, 69, 0
4, 3968, Note_on_c, 3, 67, 45
4, 4000, Note_on_c, 3, 67, 0
4, 4000, Note_on_c, 3, 65, 45
4, 4032, Note_on_c, 3, 65, 0
4, 4032, Note_on_c, 3, 64, 45
4, 4064, Note_on_c, 3, 64, 0
4, 4064, Note_on_c, 3, 62, 45
4, 4096, Note_on_c, 3, 62, 0
4, 4096, Note_on_c, 3, 60, 45
4, 4128, Note_on_c, 3, 60, 0
4, 4128, Note_on_c, 3, 58, 45
4, 4160, Note_on_c, 3, 58, 0
4, 4160, Note_on_c, 3, 57, 45
4, 4192, Note_on_c, 3, 57, 0
4, 4192, Note_on_c, 3, 55, 45
4, 4222, Note_on_c, 3, 55, 0
4, 4224, Note_on_c, 3, 53, 45
4, 4256, Note_on_c, 3, 53, 0
4, 4320, Note_on_c, 3, 53, 45
4, 4352, Note_on_c, 3, 53, 0
4, 4416, Note_on_c, 3, 57, 45
4, 4448, Note_on_c, 3, 57, 0
4, 4704, Note_on_c, 3, 60, 45
4, 4864, Note_on_c, 3, 60, 0
4, 4896, Note_on_c, 3, 60, 45
4, 4990, Note_on_c, 3, 60, 0
4, 5088, Note_on_c, 3, 60, 45
4, 5248, Note_on_c, 3, 60, 0
4, 5280, Note_on_c, 3, 60, 45
4, 5374, Note_on_c, 3, 60, 0
4, 5472, Note_on_c, 3, 60, 45
4, 5632, Note_on_c, 3, 60, 0
4, 5664, Note_on_c, 3, 57, 58
4, 5696, Note_on_c, 3, 57, 0
4, 5760, Note_on_c, 3, 58, 64
4, 5792, Note_on_c, 3, 58, 0
4, 5856, Note_on_c, 3, 55, 71
4, 5888, Note_on_c, 3, 55, 0
4, 5952, Note_on_c, 3, 53, 78
4, 5984, Note_on_c, 3, 53, 0
4, 6048, Note_on_c, 3, 62, 85
4, 6080, Note_on_c, 3, 62, 0
4, 6144, Note_on_c, 3, 60, 92
4, 6304, Note_on_c, 3, 60, 0
4, 6336, Note_on_c, 3, 48, 92
4, 6496, Note_on_c, 3, 48, 0
4, 6528, Note_on_c, 3, 53, 92
4, 6688, Note_on_c, 3, 53, 0
4, 7296, Note_on_c, 3, 59, 45
4, 7344, Note_on_c, 3, 59, 0
4, 7344, Note_on_c, 3, 60, 45
4, 7392, Note_on_c, 3, 60, 0
4, 7392, Note_on_c, 3, 59, 45
4, 7440, Note_on_c, 3, 59, 0
4, 7440, Note_on_c, 3, 60, 45
4, 7488, Note_on_c, 3, 60, 0
4, 7488, Note_on_c, 3, 59, 45
4, 7536, Note_on_c, 3, 59, 0
4, 7536, Note_on_c, 3, 60, 45
4, 7584, Note_on_c, 3, 60, 0
4, 7584, Note_on_c, 3, 55, 45
4, 7632, Note_on_c, 3, 55, 0
4, 7632, Note_on_c, 3, 52, 45
4, 7678, Note_on_c, 3, 52, 0
4, 7680, Note_on_c, 3, 48, 45
4, 7840, Note_on_c, 3, 48, 0
4, 9120, Note_on_c, 3, 60, 45
4, 9216, Note_on_c, 3, 60, 0
4, 9216, Note_on_c, 3, 60, 45
4, 9248, Note_on_c, 3, 60, 0
4, 9312, Note_on_c, 3, 60, 45
4, 9344, Note_on_c, 3, 60, 0
4, 9408, Note_on_c, 3, 60, 45
4, 9440, Note_on_c, 3, 60, 0
4, 9504, Note_on_c, 3, 60, 45
4, 9536, Note_on_c, 3, 60, 0
4, 9600, Note_on_c, 3, 60, 45
4, 9856, Note_on_c, 3, 60, 0
4, 13056, Note_on_c, 3, 68, 45
4, 13104, Note_on_c, 3, 68, 0
4, 13104, Note_on_c, 3, 69, 45
4, 13152, Note_on_c, 3, 69, 0
4, 13152, Note_on_c, 3, 68, 45
4, 13200, Note_on_c, 3, 68, 0
4, 13200, Note_on_c, 3, 69, 45
4, 13248, Note_on_c, 3, 69, 0
4, 13248, Note_on_c, 3, 68, 45
4, 13296, Note_on_c, 3, 68, 0
4, 13296, Note_on_c, 3, 69, 45
4, 13344, Note_on_c, 3, 69, 0
4, 13344, Note_on_c, 3, 64, 45
4, 13392, Note_on_c, 3, 64, 0
4, 13392, Note_on_c, 3, 61, 45
4, 13438, Note_on_c, 3, 61, 0
4, 13440, Note_on_c, 3, 57, 45
4, 13534, Note_on_c, 3, 57, 0
4, 14592, Note_on_c, 3, 59, 45
4, 14592, Note_on_c, 3, 62, 45
4, 14686, Note_on_c, 3, 62, 0
4, 14686, Note_on_c, 3, 59, 0
4, 14976, Note_on_c, 3, 59, 45
4, 15070, Note_on_c, 3, 59, 0
4, 15168, Note_on_c, 3, 59, 45
4, 15262, Note_on_c, 3, 59, 0
4, 15360, Note_on_c, 3, 60, 45
4, 15456, Note_on_c, 3, 60, 0
4, 15456, Note_on_c, 3, 64, 48
4, 15550, Note_on_c, 3, 64, 0
4, 15648, Note_on_c, 3, 64, 55
4, 15742, Note_on_c, 3, 64, 0
4, 15840, Note_on_c, 3, 69, 63
4, 15934, Note_on_c, 3, 69, 0
4, 16032, Note_on_c, 3, 62, 71
4, 16126, Note_on_c, 3, 62, 0
4, 16128, Note_on_c, 3, 50, 45
4, 16128, Note_on_c, 3, 59, 45
4, 16512, Note_on_c, 3, 59, 0
4, 16512, Note_on_c, 3, 60, 45
4, 16896, Note_on_c, 3, 60, 0
4, 16896, Note_on_c, 3, 62, 45
4, 16990, Note_on_c, 3, 62, 0
4, 16990, Note_on_c, 3, 50, 0
4, 16992, Note_on_c, 3, 50, 45
4, 17088, Note_on_c, 3, 50, 0
4, 17088, Note_on_c, 3, 54, 45
4, 17184, Note_on_c, 3, 54, 0
4, 17184, Note_on_c, 3, 55, 45
4, 17280, Note_on_c, 3, 55, 0
4, 17280, Note_on_c, 3, 57, 45
4, 17376, Note_on_c, 3, 57, 0
4, 17376, Note_on_c, 3, 50, 45
4, 17472, Note_on_c, 3, 50, 0
4, 17472, Note_on_c, 3, 55, 45
4, 17568, Note_on_c, 3, 55, 0
4, 17568, Note_on_c, 3, 57, 45
4, 17662, Note_on_c, 3, 57, 0
4, 17664, Note_on_c, 3, 59, 45
4, 17760, Note_on_c, 3, 59, 0
4, 17760, Note_on_c, 3, 50, 45
4, 17856, Note_on_c, 3, 50, 0
4, 17856, Note_on_c, 3, 57, 45
4, 17952, Note_on_c, 3, 57, 0
4, 17952, Note_on_c, 3, 59, 45
4, 18048, Note_on_c, 3, 59, 0
4, 18048, Note_on_c, 3, 60, 45
4, 18144, Note_on_c, 3, 60, 0
4, 18144, Note_on_c, 3, 50, 45
4, 18240, Note_on_c, 3, 50, 0
4, 18240, Note_on_c, 3, 59, 45
4, 18336, Note_on_c, 3, 59, 0
4, 18336, Note_on_c, 3, 60, 45
4, 18430, Note_on_c, 3, 60, 0
4, 18432, Note_on_c, 3, 62, 45
4, 18526, Note_on_c, 3, 62, 0
4, 18528, Note_on_c, 3, 59, 48
4, 18688, Note_on_c, 3, 59, 0
4, 18720, Note_on_c, 3, 59, 55
4, 18910, Note_on_c, 3, 59, 0
4, 18912, Note_on_c, 3, 59, 63
4, 19008, Note_on_c, 3, 59, 0
4, 19008, Note_on_c, 3, 60, 67
4, 19104, Note_on_c, 3, 60, 0
4, 19104, Note_on_c, 3, 62, 71
4, 19198, Note_on_c, 3, 62, 0
4, 19200, Note_on_c, 3, 55, 45
4, 19584, Note_on_c, 3, 65, 45
4, 19968, Note_on_c, 3, 65, 0
4, 19968, Note_on_c, 3, 67, 45
4, 20062, Note_on_c, 3, 67, 0
4, 20062, Note_on_c, 3, 55, 0
4, 20064, Note_on_c, 3, 55, 45
4, 20160, Note_on_c, 3, 55, 0
4, 20160, Note_on_c, 3, 59, 45
4, 20256, Note_on_c, 3, 59, 0
4, 20256, Note_on_c, 3, 60, 45
4, 20352, Note_on_c, 3, 60, 0
4, 20352, Note_on_c, 3, 62, 45
4, 20448, Note_on_c, 3, 62, 0
4, 20448, Note_on_c, 3, 55, 45
4, 20544, Note_on_c, 3, 55, 0
4, 20544, Note_on_c, 3, 60, 45
4, 20640, Note_on_c, 3, 60, 0
4, 20640, Note_on_c, 3, 62, 45
4, 20734, Note_on_c, 3, 62, 0
4, 20736, Note_on_c, 3, 64, 45
4, 20832, Note_on_c, 3, 64, 0
4, 20832, Note_on_c, 3, 55, 45
4, 20928, Note_on_c, 3, 55, 0
4, 20928, Note_on_c, 3, 62, 45
4, 21024, Note_on_c, 3, 62, 0
4, 21024, Note_on_c, 3, 64, 45
4, 21120, Note_on_c, 3, 64, 0
4, 21120, Note_on_c, 3, 65, 45
4, 21216, Note_on_c, 3, 65, 0
4, 21216, Note_on_c, 3, 55, 45
4, 21312, Note_on_c, 3, 55, 0
4, 21312, Note_on_c, 3, 64, 45
4, 21408, Note_on_c, 3, 64, 0
4, 21408, Note_on_c, 3, 65, 45
4, 21502, Note_on_c, 3, 65, 0
4, 21504, Note_on_c, 3, 67, 45
4, 21600, Note_on_c, 3, 67, 0
4, 21600, Note_on_c, 3, 55, 48
4, 21696, Note_on_c, 3, 55, 0
4, 21696, Note_on_c, 3, 59, 51
4, 21792, Note_on_c, 3, 59, 0
4, 21792, Note_on_c, 3, 60, 55
4, 21888, Note_on_c, 3, 60, 0
4, 21888, Note_on_c, 3, 62, 59
4, 21984, Note_on_c, 3, 62, 0
4, 21984, Note_on_c, 3, 55, 63
4, 22080, Note_on_c, 3, 55, 0
4, 22080, Note_on_c, 3, 60, 67
4, 22176, Note_on_c, 3, 60, 0
4, 22176, Note_on_c, 3, 62, 71
4, 22270, Note_on_c, 3, 62, 0
4, 22272, Note_on_c, 3, 64, 45
4, 22366, Note_on_c, 3, 64, 0
4, 22560, Note_on_c, 3, 59, 45
4, 22656, Note_on_c, 3, 59, 0
4, 22656, Note_on_c, 3, 60, 45
4, 22750, Note_on_c, 3, 60, 0
4, 22944, Note_on_c, 3, 56, 45
4, 23040, Note_on_c, 3, 56, 0
4, 23040, Note_on_c, 3, 57, 45
4, 23134, Note_on_c, 3, 57, 0
4, 23328, Note_on_c, 3, 52, 45
4, 23424, Note_on_c, 3, 52, 0
4, 23424, Note_on_c, 3, 53, 45
4, 23518, Note_on_c, 3, 53, 0
4, 23904, Note_on_c, 3, 60, 45
4, 23998, Note_on_c, 3, 60, 0
4, 24096, Note_on_c, 3, 65, 45
4, 24190, Note_on_c, 3, 65, 0
4, 24288, Note_on_c, 3, 64, 45
4, 24382, Note_on_c, 3, 64, 0
4, 24480, Note_on_c, 3, 62, 45
4, 24574, Note_on_c, 3, 62, 0
4, 25056, Note_on_c, 3, 55, 45
4, 25152, Note_on_c, 3, 55, 0
4, 25152, Note_on_c, 3, 60, 45
4, 25246, Note_on_c, 3, 60, 0
4, 25440, Note_on_c, 3, 52, 45
4, 25536, Note_on_c, 3, 52, 0
4, 25536, Note_on_c, 3, 57, 45
4, 25630, Note_on_c, 3, 57, 0
4, 25824, Note_on_c, 3, 60, 45
4, 25920, Note_on_c, 3, 60, 0
4, 25920, Note_on_c, 3, 65, 45
4, 26014, Note_on_c, 3, 65, 0
4, 26016, Note_on_c, 3, 57, 45
4, 26208, Note_on_c, 3, 57, 0
4, 26208, Note_on_c, 3, 65, 45
4, 26302, Note_on_c, 3, 65, 0
4, 26304, Note_on_c, 3, 65, 49
4, 26336, Note_on_c, 3, 65, 0
4, 26400, Note_on_c, 3, 65, 53
4, 26432, Note_on_c, 3, 65, 0
4, 26496, Note_on_c, 3, 65, 57
4, 26688, Note_on_c, 3, 65, 0
4, 26688, Note_on_c, 3, 64, 66
4, 26784, Note_on_c, 3, 64, 0
4, 26784, Note_on_c, 3, 62, 70
4, 26878, Note_on_c, 3, 62, 0
4, 26880, Note_on_c, 3, 60, 45
4, 26974, Note_on_c, 3, 60, 0
4, 26976, Note_on_c, 3, 67, 63
4, 27136, Note_on_c, 3, 67, 0
4, 27168, Note_on_c, 3, 67, 45
4, 27358, Note_on_c, 3, 67, 0
4, 27360, Note_on_c, 3, 67, 63
4, 27520, Note_on_c, 3, 67, 0
4, 27552, Note_on_c, 3, 67, 45
4, 27742, Note_on_c, 3, 67, 0
4, 27744, Note_on_c, 3, 67, 45
4, 27840, Note_on_c, 3, 67, 0
4, 27840, Note_on_c, 3, 69, 45
4, 27936, Note_on_c, 3, 69, 0
4, 27936, Note_on_c, 3, 65, 45
4, 28032, Note_on_c, 3, 65, 0
4, 28032, Note_on_c, 3, 64, 45
4, 28128, Note_on_c, 3, 64, 0
4, 28128, Note_on_c, 3, 60, 45
4, 28224, Note_on_c, 3, 60, 0
4, 28224, Note_on_c, 3, 62, 45
4, 28320, Note_on_c, 3, 62, 0
4, 28320, Note_on_c, 3, 59, 45
4, 28414, Note_on_c, 3, 59, 0
4, 28416, Note_on_c, 3, 60, 45
4, 28448, Note_on_c, 3, 60, 0
4, 28464, Note_on_c, 3, 55, 45
4, 28512, Note_on_c, 3, 55, 0
4, 28512, Note_on_c, 3, 63, 63
4, 28560, Note_on_c, 3, 63, 0
4, 28560, Note_on_c, 3, 60, 45
4, 28606, Note_on_c, 3, 60, 0
4, 28608, Note_on_c, 3, 60, 45
4, 28656, Note_on_c, 3, 60, 0
4, 28656, Note_on_c, 3, 59, 45
4, 28704, Note_on_c, 3, 59, 0
4, 28704, Note_on_c, 3, 57, 45
4, 28752, Note_on_c, 3, 57, 0
4, 28752, Note_on_c, 3, 59, 45
4, 28798, Note_on_c, 3, 59, 0
4, 28800, Note_on_c, 3, 60, 45
4, 28832, Note_on_c, 3, 60, 0
4, 28848, Note_on_c, 3, 55, 45
4, 28896, Note_on_c, 3, 55, 0
4, 28896, Note_on_c, 3, 63, 63
4, 28944, Note_on_c, 3, 63, 0
4, 28944, Note_on_c, 3, 60, 45
4, 28990, Note_on_c, 3, 60, 0
4, 28992, Note_on_c, 3, 60, 45
4, 29040, Note_on_c, 3, 60, 0
4, 29040, Note_on_c, 3, 59, 46
4, 29088, Note_on_c, 3, 59, 0
4, 29088, Note_on_c, 3, 57, 47
4, 29136, Note_on_c, 3, 57, 0
4, 29136, Note_on_c, 3, 59, 48
4, 29182, Note_on_c, 3, 59, 0
4, 29184, Note_on_c, 3, 60, 49
4, 29278, Note_on_c, 3, 60, 0
4, 29280, Note_on_c, 3, 55, 52
4, 29328, Note_on_c, 3, 55, 0
4, 29328, Note_on_c, 3, 51, 53
4, 29376, Note_on_c, 3, 51, 0
4, 29376, Note_on_c, 3, 56, 54
4, 29424, Note_on_c, 3, 56, 0
4, 29424, Note_on_c, 3, 53, 55
4, 29470, Note_on_c, 3, 53, 0
4, 29568, Note_on_c, 3, 55, 59
4, 29616, Note_on_c, 3, 55, 0
4, 29616, Note_on_c, 3, 51, 61
4, 29662, Note_on_c, 3, 51, 0
4, 29760, Note_on_c, 3, 53, 67
4, 29808, Note_on_c, 3, 53, 0
4, 29808, Note_on_c, 3, 50, 69
4, 29854, Note_on_c, 3, 50, 0
4, 29952, Note_on_c, 3, 51, 45
4, 29984, Note_on_c, 3, 51, 0
4, 30000, Note_on_c, 3, 55, 45
4, 30032, Note_on_c, 3, 55, 0
4, 30048, Note_on_c, 3, 60, 45
4, 30080, Note_on_c, 3, 60, 0
4, 30096, Note_on_c, 3, 55, 45
4, 30128, Note_on_c, 3, 55, 0
4, 30144, Note_on_c, 3, 60, 45
4, 30176, Note_on_c, 3, 60, 0
4, 30192, Note_on_c, 3, 55, 45
4, 30224, Note_on_c, 3, 55, 0
4, 30240, Note_on_c, 3, 60, 45
4, 30272, Note_on_c, 3, 60, 0
4, 30288, Note_on_c, 3, 55, 45
4, 30320, Note_on_c, 3, 55, 0
4, 30336, Note_on_c, 3, 59, 45
4, 30382, Note_on_c, 3, 59, 0
4, 30384, Note_on_c, 3, 55, 45
4, 30430, Note_on_c, 3, 55, 0
4, 30432, Note_on_c, 3, 59, 45
4, 30478, Note_on_c, 3, 59, 0
4, 30480, Note_on_c, 3, 55, 45
4, 30526, Note_on_c, 3, 55, 0
4, 30528, Note_on_c, 3, 59, 45
4, 30574, Note_on_c, 3, 59, 0
4, 30576, Note_on_c, 3, 55, 45
4, 30622, Note_on_c, 3, 55, 0
4, 30624, Note_on_c, 3, 59, 45
4, 30670, Note_on_c, 3, 59, 0
4, 30672, Note_on_c, 3, 55, 45
4, 30718, Note_on_c, 3, 55, 0
4, 30720, Note_on_c, 3, 60, 45
4, 30766, Note_on_c, 3, 60, 0
4, 30768, Note_on_c, 3, 55, 45
4, 30814, Note_on_c, 3, 55, 0
4, 30816, Note_on_c, 3, 60, 45
4, 30862, Note_on_c, 3, 60, 0
4, 30864, Note_on_c, 3, 55, 45
4, 30910, Note_on_c, 3, 55, 0
4, 30912, Note_on_c, 3, 60, 45
4, 30958, Note_on_c, 3, 60, 0
4, 30960, Note_on_c, 3, 55, 45
4, 31006, Note_on_c, 3, 55, 0
4, 31008, Note_on_c, 3, 51, 45
4, 31054, Note_on_c, 3, 51, 0
4, 31056, Note_on_c, 3, 55, 45
4, 31102, Note_on_c, 3, 55, 0
4, 31104, Note_on_c, 3, 53, 45
4, 31150, Note_on_c, 3, 53, 0
4, 31152, Note_on_c, 3, 55, 45
4, 31198, Note_on_c, 3, 55, 0
4, 31200, Note_on_c, 3, 50, 45
4, 31246, Note_on_c, 3, 50, 0
4, 31248, Note_on_c, 3, 55, 45
4, 31294, Note_on_c, 3, 55, 0
4, 31296, Note_on_c, 3, 53, 45
4, 31342, Note_on_c, 3, 53, 0
4, 31344, Note_on_c, 3, 55, 45
4, 31390, Note_on_c, 3, 55, 0
4, 31392, Note_on_c, 3, 50, 45
4, 31438, Note_on_c, 3, 50, 0
4, 31440, Note_on_c, 3, 55, 45
4, 31486, Note_on_c, 3, 55, 0
4, 31488, Note_on_c, 3, 60, 45
4, 31776, Note_on_c, 3, 60, 0
4, 31776, Note_on_c, 3, 64, 50
4, 31870, Note_on_c, 3, 64, 0
4, 31872, Note_on_c, 3, 65, 51
4, 32160, Note_on_c, 3, 65, 0
4, 32160, Note_on_c, 3, 62, 56
4, 32254, Note_on_c, 3, 62, 0
4, 32256, Note_on_c, 3, 64, 57
4, 32544, Note_on_c, 3, 64, 0
4, 32544, Note_on_c, 3, 60, 62
4, 32638, Note_on_c, 3, 60, 0
4, 32640, Note_on_c, 3, 62, 63
4, 32784, Note_on_c, 3, 62, 0
4, 32784, Note_on_c, 3, 59, 65
4, 32830, Note_on_c, 3, 59, 0
4, 32832, Note_on_c, 3, 60, 65
4, 32856, Note_on_c, 3, 60, 0
4, 32856, Note_on_c, 3, 59, 65
4, 32880, Note_on_c, 3, 59, 0
4, 32880, Note_on_c, 3, 60, 65
4, 32904, Note_on_c, 3, 60, 0
4, 32904, Note_on_c, 3, 59, 65
4, 32928, Note_on_c, 3, 59, 0
4, 32928, Note_on_c, 3, 60, 65
4, 32952, Note_on_c, 3, 60, 0
4, 32952, Note_on_c, 3, 59, 65
4, 32976, Note_on_c, 3, 59, 0
4, 32976, Note_on_c, 3, 57, 65
4, 33000, Note_on_c, 3, 57, 0
4, 33000, Note_on_c, 3, 59, 65
4, 33022, Note_on_c, 3, 59, 0
4, 33024, Note_on_c, 3, 48, 65
4, 33024, Note_on_c, 3, 60, 65
4, 33280, Note_on_c, 3, 60, 0
4, 33280, Note_on_c, 3, 48, 0
4, 33312, Note_on_c, 3, 48, 71
4, 33312, Note_on_c, 3, 60, 71
4, 33406, Note_on_c, 3, 60, 0
4, 33406, Note_on_c, 3, 48, 0
4, 33408, Note_on_c, 3, 48, 73
4, 33408, Note_on_c, 3, 60, 73
4, 33664, Note_on_c, 3, 60, 0
4, 33664, Note_on_c, 3, 48, 0
4, 33696, Note_on_c, 3, 48, 80
4, 33696, Note_on_c, 3, 60, 80
4, 33790, Note_on_c, 3, 60, 0
4, 33790, Note_on_c, 3, 48, 0
4, 33792, Note_on_c, 3, 48, 82
4, 33792, Note_on_c, 3, 60, 82
4, 34048, Note_on_c, 3, 60, 0
4, 34048, Note_on_c, 3, 48, 0
4, 34080, Note_on_c, 3, 48, 89
4, 34080, Note_on_c, 3, 60, 89
4, 34174, Note_on_c, 3, 60, 0
4, 34174, Note_on_c, 3, 48, 0
4, 34176, Note_on_c, 3, 48, 92
4, 34176, Note_on_c, 3, 60, 92
4, 34464, Note_on_c, 3, 60, 0
4, 34464, Note_on_c, 3, 48, 0
4, 34464, Note_on_c, 3, 48, 92
4, 34464, Note_on_c, 3, 55, 92
4, 34558, Note_on_c, 3, 55, 0
4, 34558, Note_on_c, 3, 48, 0
4, 34560, Note_on_c, 3, 48, 45
4, 34654, Note_on_c, 3, 48, 0
4, 34944, Note_on_c, 3, 48, 45
4, 34976, Note_on_c, 3, 48, 0
4, 35040, Note_on_c, 3, 48, 45
4, 35072, Note_on_c, 3, 48, 0
4, 35136, Note_on_c, 3, 48, 45
4, 35168, Note_on_c, 3, 48, 0
4, 35712, Note_on_c, 3, 48, 45
4, 35744, Note_on_c, 3, 48, 0
4, 35808, Note_on_c, 3, 48, 45
4, 35840, Note_on_c, 3, 48, 0
4, 35904, Note_on_c, 3, 48, 45
4, 35936, Note_on_c, 3, 48, 0
4, 36192, Note_on_c, 3, 60, 45
4, 36352, Note_on_c, 3, 60, 0
4, 36384, Note_on_c, 3, 60, 45
4, 36478, Note_on_c, 3, 60, 0
4, 36576, Note_on_c, 3, 60, 45
4, 36736, Note_on_c, 3, 60, 0
4, 36768, Note_on_c, 3, 60, 45
4, 36862, Note_on_c, 3, 60, 0
4, 36960, Note_on_c, 3, 60, 45
4, 37152, Note_on_c, 3, 60, 0
4, 37152, Note_on_c, 3, 62, 45
4, 37246, Note_on_c, 3, 62, 0
4, 37248, Note_on_c, 3, 64, 45
4, 37344, Note_on_c, 3, 64, 0
4, 37344, Note_on_c, 3, 65, 45
4, 37440, Note_on_c, 3, 65, 0
4, 37440, Note_on_c, 3, 64, 45
4, 37534, Note_on_c, 3, 64, 0
4, 37632, Note_on_c, 3, 65, 45
4, 37664, Note_on_c, 3, 65, 0
4, 37664, Note_on_c, 3, 64, 45
4, 37696, Note_on_c, 3, 64, 0
4, 37696, Note_on_c, 3, 65, 45
4, 37728, Note_on_c, 3, 65, 0
4, 37728, Note_on_c, 3, 67, 45
4, 37760, Note_on_c, 3, 67, 0
4, 37760, Note_on_c, 3, 65, 45
4, 37792, Note_on_c, 3, 65, 0
4, 37792, Note_on_c, 3, 64, 45
4, 37824, Note_on_c, 3, 64, 0
4, 37824, Note_on_c, 3, 62, 45
4, 37856, Note_on_c, 3, 62, 0
4, 37856, Note_on_c, 3, 60, 45
4, 37888, Note_on_c, 3, 60, 0
4, 37888, Note_on_c, 3, 58, 45
4, 37920, Note_on_c, 3, 58, 0
4, 37920, Note_on_c, 3, 57, 45
4, 37952, Note_on_c, 3, 57, 0
4, 37952, Note_on_c, 3, 55, 45
4, 37984, Note_on_c, 3, 55, 0
4, 37984, Note_on_c, 3, 53, 45
4, 38014, Note_on_c, 3, 53, 0
4, 38016, Note_on_c, 3, 52, 45
4, 38048, Note_on_c, 3, 52, 0
4, 38112, Note_on_c, 3, 52, 45
4, 38144, Note_on_c, 3, 52, 0
4, 38208, Note_on_c, 3, 55, 45
4, 38240, Note_on_c, 3, 55, 0
4, 38784, Note_on_c, 3, 57, 45
4, 38816, Note_on_c, 3, 57, 0
4, 38880, Note_on_c, 3, 57, 45
4, 38912, Note_on_c, 3, 57, 0
4, 38976, Note_on_c, 3, 60, 45
4, 39008, Note_on_c, 3, 60, 0
4, 39168, Note_on_c, 3, 57, 45
4, 39262, Note_on_c, 3, 57, 0
4, 39264, Note_on_c, 3, 57, 47
4, 39358, Note_on_c, 3, 57, 0
4, 39360, Note_on_c, 3, 60, 50
4, 39454, Note_on_c, 3, 60, 0
4, 39552, Note_on_c, 3, 54, 56
4, 39646, Note_on_c, 3, 54, 0
4, 39648, Note_on_c, 3, 54, 59
4, 39742, Note_on_c, 3, 54, 0
4, 39744, Note_on_c, 3, 62, 62
4, 39838, Note_on_c, 3, 62, 0
4, 39936, Note_on_c, 3, 55, 68
4, 40030, Note_on_c, 3, 55, 0
4, 40032, Note_on_c, 3, 55, 71
4, 40126, Note_on_c, 3, 55, 0
4, 40128, Note_on_c, 3, 67, 74
4, 40222, Note_on_c, 3, 67, 0
4, 40320, Note_on_c, 3, 61, 80
4, 40414, Note_on_c, 3, 61, 0
4, 40416, Note_on_c, 3, 61, 83
4, 40510, Note_on_c, 3, 61, 0
4, 40512, Note_on_c, 3, 64, 86
4, 40606, Note_on_c, 3, 64, 0
4, 40704, Note_on_c, 3, 62, 92
4, 40798, Note_on_c, 3, 62, 0
4, 40800, Note_on_c, 3, 62, 92
4, 40894, Note_on_c, 3, 62, 0
4, 40896, Note_on_c, 3, 65, 92
4, 40990, Note_on_c, 3, 65, 0
4, 41088, Note_on_c, 3, 58, 92
4, 41182, Note_on_c, 3, 58, 0
4, 41184, Note_on_c, 3, 58, 92
4, 41278, Note_on_c, 3, 58, 0
4, 41280, Note_on_c, 3, 62, 92
4, 41374, Note_on_c, 3, 62, 0
4, 41472, Note_on_c, 3, 61, 92
4, 41566, Note_on_c, 3, 61, 0
4, 42048, Note_on_c, 3, 70, 127
4, 42080, Note_on_c, 3, 70, 0
4, 42080, Note_on_c, 3, 69, 92
4, 42112, Note_on_c, 3, 69, 0
4, 42112, Note_on_c, 3, 70, 92
4, 42144, Note_on_c, 3, 70, 0
4, 42144, Note_on_c, 3, 72, 92
4, 42176, Note_on_c, 3, 72, 0
4, 42176, Note_on_c, 3, 70, 92
4, 42208, Note_on_c, 3, 70, 0
4, 42208, Note_on_c, 3, 69, 92
4, 42238, Note_on_c, 3, 69, 0
4, 42240, Note_on_c, 3, 67, 92
4, 42272, Note_on_c, 3, 67, 0
4, 42336, Note_on_c, 3, 65, 92
4, 42368, Note_on_c, 3, 65, 0
4, 42432, Note_on_c, 3, 64, 92
4, 42464, Note_on_c, 3, 64, 0
4, 42816, Note_on_c, 3, 70, 127
4, 42848, Note_on_c, 3, 70, 0
4, 42848, Note_on_c, 3, 69, 92
4, 42880, Note_on_c, 3, 69, 0
4, 42880, Note_on_c, 3, 70, 92
4, 42912, Note_on_c, 3, 70, 0
4, 42912, Note_on_c, 3, 72, 92
4, 42944, Note_on_c, 3, 72, 0
4, 42944, Note_on_c, 3, 70, 92
4, 42976, Note_on_c, 3, 70, 0
4, 42976, Note_on_c, 3, 69, 92
4, 43006, Note_on_c, 3, 69, 0
4, 43008, Note_on_c, 3, 67, 92
4, 43040, Note_on_c, 3, 67, 0
4, 43104, Note_on_c, 3, 65, 92
4, 43136, Note_on_c, 3, 65, 0
4, 43200, Note_on_c, 3, 64, 92
4, 43232, Note_on_c, 3, 64, 0
4, 43584, Note_on_c, 3, 70, 92
4, 43616, Note_on_c, 3, 70, 0
4, 43616, Note_on_c, 3, 69, 92
4, 43648, Note_on_c, 3, 69, 0
4, 43648, Note_on_c, 3, 70, 92
4, 43680, Note_on_c, 3, 70, 0
4, 43680, Note_on_c, 3, 72, 93
4, 43712, Note_on_c, 3, 72, 0
4, 43712, Note_on_c, 3, 70, 94
4, 43744, Note_on_c, 3, 70, 0
4, 43744, Note_on_c, 3, 69, 95
4, 43776, Note_on_c, 3, 69, 0
4, 43776, Note_on_c, 3, 67, 96
4, 43808, Note_on_c, 3, 67, 0
4, 43808, Note_on_c, 3, 66, 97
4, 43840, Note_on_c, 3, 66, 0
4, 43840, Note_on_c, 3, 67, 98
4, 43872, Note_on_c, 3, 67, 0
4, 43872, Note_on_c, 3, 69, 99
4, 43904, Note_on_c, 3, 69, 0
4, 43904, Note_on_c, 3, 67, 100
4, 43936, Note_on_c, 3, 67, 0
4, 43936, Note_on_c, 3, 65, 101
4, 43966, Note_on_c, 3, 65, 0
4, 43968, Note_on_c, 3, 64, 102
4, 44000, Note_on_c, 3, 64, 0
4, 44064, Note_on_c, 3, 50, 105
4, 44096, Note_on_c, 3, 50, 0
4, 44160, Note_on_c, 3, 52, 92
4, 44192, Note_on_c, 3, 52, 0
4, 44256, Note_on_c, 3, 64, 92
4, 44288, Note_on_c, 3, 64, 0
4, 44352, Note_on_c, 3, 65, 92
4, 44384, Note_on_c, 3, 65, 0
4, 44448, Note_on_c, 3, 67, 92
4, 44480, Note_on_c, 3, 67, 0
4, 44544, Note_on_c, 3, 69, 92
4, 44576, Note_on_c, 3, 69, 0
4, 44576, Note_on_c, 3, 68, 92
4, 44608, Note_on_c, 3, 68, 0
4, 44608, Note_on_c, 3, 69, 92
4, 44640, Note_on_c, 3, 69, 0
4, 44640, Note_on_c, 3, 70, 92
4, 44672, Note_on_c, 3, 70, 0
4, 44672, Note_on_c, 3, 69, 92
4, 44704, Note_on_c, 3, 69, 0
4, 44704, Note_on_c, 3, 67, 92
4, 44736, Note_on_c, 3, 67, 0
4, 44736, Note_on_c, 3, 65, 92
4, 44768, Note_on_c, 3, 65, 0
4, 44768, Note_on_c, 3, 64, 92
4, 44800, Note_on_c, 3, 64, 0
4, 44800, Note_on_c, 3, 65, 92
4, 44832, Note_on_c, 3, 65, 0
4, 44832, Note_on_c, 3, 67, 92
4, 44864, Note_on_c, 3, 67, 0
4, 44864, Note_on_c, 3, 65, 92
4, 44896, Note_on_c, 3, 65, 0
4, 44896, Note_on_c, 3, 64, 92
4, 44926, Note_on_c, 3, 64, 0
4, 44928, Note_on_c, 3, 62, 92
4, 44960, Note_on_c, 3, 62, 0
4, 45024, Note_on_c, 3, 62, 92
4, 45056, Note_on_c, 3, 62, 0
4, 45120, Note_on_c, 3, 62, 92
4, 45152, Note_on_c, 3, 62, 0
4, 45216, Note_on_c, 3, 62, 92
4, 45248, Note_on_c, 3, 62, 0
4, 45312, Note_on_c, 3, 61, 127
4, 45406, Note_on_c, 3, 61, 0
4, 45408, Note_on_c, 3, 57, 45
4, 45440, Note_on_c, 3, 57, 0
4, 45504, Note_on_c, 3, 59, 45
4, 45536, Note_on_c, 3, 59, 0
4, 45600, Note_on_c, 3, 61, 45
4, 45632, Note_on_c, 3, 61, 0
4, 45696, Note_on_c, 3, 62, 45
4, 45728, Note_on_c, 3, 62, 0
4, 45792, Note_on_c, 3, 64, 45
4, 45824, Note_on_c, 3, 64, 0
4, 45888, Note_on_c, 3, 65, 45
4, 45920, Note_on_c, 3, 65, 0
4, 45984, Note_on_c, 3, 66, 45
4, 46016, Note_on_c, 3, 66, 0
4, 46080, Note_on_c, 3, 67, 45
4, 46174, Note_on_c, 3, 67, 0
4, 47616, Note_on_c, 3, 60, 63
4, 48094, Note_on_c, 3, 60, 0
4, 48096, Note_on_c, 3, 62, 45
4, 48120, Note_on_c, 3, 62, 0
4, 48120, Note_on_c, 3, 63, 45
4, 48144, Note_on_c, 3, 63, 0
4, 48144, Note_on_c, 3, 65, 45
4, 48168, Note_on_c, 3, 65, 0
4, 48168, Note_on_c, 3, 67, 45
4, 48190, Note_on_c, 3, 67, 0
4, 48192, Note_on_c, 3, 68, 45
4, 48224, Note_on_c, 3, 68, 0
4, 48288, Note_on_c, 3, 68, 45
4, 48320, Note_on_c, 3, 68, 0
4, 48384, Note_on_c, 3, 68, 63
4, 48576, Note_on_c, 3, 68, 0
4, 48576, Note_on_c, 3, 67, 45
4, 48670, Note_on_c, 3, 67, 0
4, 48672, Note_on_c, 3, 65, 45
4, 48704, Note_on_c, 3, 65, 0
4, 48768, Note_on_c, 3, 63, 45
4, 48800, Note_on_c, 3, 63, 0
4, 48864, Note_on_c, 3, 62, 45
4, 48896, Note_on_c, 3, 62, 0
4, 48960, Note_on_c, 3, 60, 45
4, 48992, Note_on_c, 3, 60, 0
4, 49056, Note_on_c, 3, 58, 45
4, 49088, Note_on_c, 3, 58, 0
4, 49152, Note_on_c, 3, 56, 45
4, 49246, Note_on_c, 3, 56, 0
4, 49344, Note_on_c, 3, 60, 45
4, 49376, Note_on_c, 3, 60, 0
4, 49376, Note_on_c, 3, 59, 45
4, 49408, Note_on_c, 3, 59, 0
4, 49408, Note_on_c, 3, 60, 45
4, 49440, Note_on_c, 3, 60, 0
4, 49440, Note_on_c, 3, 61, 45
4, 49472, Note_on_c, 3, 61, 0
4, 49472, Note_on_c, 3, 60, 45
4, 49504, Note_on_c, 3, 60, 0
4, 49504, Note_on_c, 3, 58, 45
4, 49534, Note_on_c, 3, 58, 0
4, 49536, Note_on_c, 3, 56, 45
4, 49872, Note_on_c, 3, 56, 0
4, 49920, Note_on_c, 3, 56, 45
4, 50014, Note_on_c, 3, 56, 0
4, 50016, Note_on_c, 3, 56, 52
4, 50176, Note_on_c, 3, 56, 0
4, 50208, Note_on_c, 3, 56, 68
4, 50302, Note_on_c, 3, 56, 0
4, 50304, Note_on_c, 3, 56, 76
4, 50336, Note_on_c, 3, 56, 0
4, 50400, Note_on_c, 3, 56, 84
4, 50432, Note_on_c, 3, 56, 0
4, 50496, Note_on_c, 3, 56, 92
4, 50528, Note_on_c, 3, 56, 0
4, 50592, Note_on_c, 3, 56, 100
4, 50624, Note_on_c, 3, 56, 0
4, 50688, Note_on_c, 3, 56, 108
4, 50782, Note_on_c, 3, 56, 0
4, 50784, Note_on_c, 3, 65, 30
4, 50878, Note_on_c, 3, 65, 0
4, 50880, Note_on_c, 3, 65, 30
4, 50974, Note_on_c, 3, 65, 0
4, 50976, Note_on_c, 3, 65, 30
4, 51070, Note_on_c, 3, 65, 0
4, 51072, Note_on_c, 3, 65, 30
4, 51166, Note_on_c, 3, 65, 0
4, 51168, Note_on_c, 3, 65, 30
4, 51262, Note_on_c, 3, 65, 0
4, 51264, Note_on_c, 3, 65, 30
4, 51358, Note_on_c, 3, 65, 0
4, 51360, Note_on_c, 3, 65, 30
4, 51454, Note_on_c, 3, 65, 0
4, 51456, Note_on_c, 3, 65, 30
4, 51550, Note_on_c, 3, 65, 0
4, 51552, Note_on_c, 3, 65, 30
4, 51646, Note_on_c, 3, 65, 0
4, 51648, Note_on_c, 3, 65, 30
4, 51742, Note_on_c, 3, 65, 0
4, 51744, Note_on_c, 3, 65, 30
4, 51838, Note_on_c, 3, 65, 0
4, 51840, Note_on_c, 3, 65, 30
4, 51934, Note_on_c, 3, 65, 0
4, 51936, Note_on_c, 3, 65, 30
4, 52030, Note_on_c, 3, 65, 0
4, 52032, Note_on_c, 3, 65, 30
4, 52126, Note_on_c, 3, 65, 0
4, 52128, Note_on_c, 3, 65, 30
4, 52222, Note_on_c, 3, 65, 0
4, 52224, Note_on_c, 3, 63, 30
4, 52512, Note_on_c, 3, 63, 0
4, 52512, Note_on_c, 3, 60, 30
4, 52608, Note_on_c, 3, 60, 0
4, 52608, Note_on_c, 3, 56, 30
4, 52896, Note_on_c, 3, 56, 0
4, 52896, Note_on_c, 3, 66, 30
4, 52992, Note_on_c, 3, 66, 0
4, 52992, Note_on_c, 3, 65, 30
4, 53280, Note_on_c, 3, 65, 0
4, 53280, Note_on_c, 3, 68, 30
4, 53376, Note_on_c, 3, 68, 0
4, 53376, Note_on_c, 3, 65, 30
4, 53664, Note_on_c, 3, 65, 0
4, 53664, Note_on_c, 3, 61, 30
4, 53760, Note_on_c, 3, 61, 0
4, 53760, Note_on_c, 3, 63, 30
4, 54048, Note_on_c, 3, 63, 0
4, 54048, Note_on_c, 3, 60, 30
4, 54144, Note_on_c, 3, 60, 0
4, 54144, Note_on_c, 3, 56, 30
4, 54432, Note_on_c, 3, 56, 0
4, 54432, Note_on_c, 3, 66, 30
4, 54528, Note_on_c, 3, 66, 0
4, 54528, Note_on_c, 3, 65, 30
4, 54622, Note_on_c, 3, 65, 0
4, 54624, Note_on_c, 3, 56, 42
4, 54718, Note_on_c, 3, 56, 0
4, 54720, Note_on_c, 3, 56, 30
4, 54814, Note_on_c, 3, 56, 0
4, 54816, Note_on_c, 3, 56, 30
4, 54910, Note_on_c, 3, 56, 0
4, 54912, Note_on_c, 3, 56, 30
4, 55006, Note_on_c, 3, 56, 0
4, 55008, Note_on_c, 3, 58, 42
4, 55102, Note_on_c, 3, 58, 0
4, 55104, Note_on_c, 3, 58, 30
4, 55198, Note_on_c, 3, 58, 0
4, 55200, Note_on_c, 3, 58, 30
4, 55294, Note_on_c, 3, 58, 0
4, 55296, Note_on_c, 3, 58, 30
4, 55390, Note_on_c, 3, 58, 0
4, 55392, Note_on_c, 3, 58, 42
4, 55486, Note_on_c, 3, 58, 0
4, 55488, Note_on_c, 3, 58, 30
4, 55582, Note_on_c, 3, 58, 0
4, 55584, Note_on_c, 3, 58, 30
4, 55678, Note_on_c, 3, 58, 0
4, 55680, Note_on_c, 3, 58, 30
4, 55774, Note_on_c, 3, 58, 0
4, 55776, Note_on_c, 3, 58, 42
4, 55870, Note_on_c, 3, 58, 0
4, 55872, Note_on_c, 3, 58, 30
4, 55966, Note_on_c, 3, 58, 0
4, 55968, Note_on_c, 3, 58, 30
4, 56062, Note_on_c, 3, 58, 0
4, 56064, Note_on_c, 3, 58, 30
4, 56158, Note_on_c, 3, 58, 0
4, 56160, Note_on_c, 3, 59, 42
4, 56254, Note_on_c, 3, 59, 0
4, 56256, Note_on_c, 3, 59, 30
4, 56350, Note_on_c, 3, 59, 0
4, 56352, Note_on_c, 3, 59, 30
4, 56446, Note_on_c, 3, 59, 0
4, 56448, Note_on_c, 3, 59, 30
4, 56542, Note_on_c, 3, 59, 0
4, 56544, Note_on_c, 3, 59, 42
4, 56638, Note_on_c, 3, 59, 0
4, 56640, Note_on_c, 3, 59, 30
4, 56734, Note_on_c, 3, 59, 0
4, 56736, Note_on_c, 3, 59, 30
4, 56830, Note_on_c, 3, 59, 0
4, 56832, Note_on_c, 3, 59, 30
4, 56926, Note_on_c, 3, 59, 0
4, 56928, Note_on_c, 3, 59, 42
4, 56928, Note_on_c, 3, 62, 42
4, 57022, Note_on_c, 3, 62, 0
4, 57022, Note_on_c, 3, 59, 0
4, 57024, Note_on_c, 3, 59, 30
4, 57024, Note_on_c, 3, 62, 30
4, 57118, Note_on_c, 3, 62, 0
4, 57118, Note_on_c, 3, 59, 0
4, 57120, Note_on_c, 3, 59, 30
4, 57120, Note_on_c, 3, 62, 30
4, 57214, Note_on_c, 3, 62, 0
4, 57214, Note_on_c, 3, 59, 0
4, 57216, Note_on_c, 3, 59, 30
4, 57216, Note_on_c, 3, 62, 30
4, 57310, Note_on_c, 3, 62, 0
4, 57310, Note_on_c, 3, 59, 0
4, 57312, Note_on_c, 3, 55, 45
4, 57406, Note_on_c, 3, 55, 0
4, 57408, Note_on_c, 3, 55, 45
4, 57502, Note_on_c, 3, 55, 0
4, 57504, Note_on_c, 3, 55, 45
4, 57598, Note_on_c, 3, 55, 0
4, 57600, Note_on_c, 3, 55, 45
4, 57694, Note_on_c, 3, 55, 0
4, 57696, Note_on_c, 3, 55, 45
4, 57790, Note_on_c, 3, 55, 0
4, 57792, Note_on_c, 3, 55, 45
4, 57886, Note_on_c, 3, 55, 0
4, 57888, Note_on_c, 3, 55, 45
4, 57982, Note_on_c, 3, 55, 0
4, 57984, Note_on_c, 3, 55, 45
4, 58078, Note_on_c, 3, 55, 0
4, 58080, Note_on_c, 3, 55, 45
4, 58174, Note_on_c, 3, 55, 0
4, 58176, Note_on_c, 3, 55, 45
4, 58270, Note_on_c, 3, 55, 0
4, 58272, Note_on_c, 3, 55, 45
4, 58366, Note_on_c, 3, 55, 0
4, 58368, Note_on_c, 3, 55, 45
4, 58464, Note_on_c, 3, 55, 0
4, 58464, Note_on_c, 3, 54, 45
4, 58558, Note_on_c, 3, 54, 0
4, 58560, Note_on_c, 3, 55, 45
4, 58848, Note_on_c, 3, 55, 0
4, 58848, Note_on_c, 3, 54, 45
4, 58942, Note_on_c, 3, 54, 0
4, 58944, Note_on_c, 3, 55, 45
4, 59232, Note_on_c, 3, 55, 0
4, 59232, Note_on_c, 3, 54, 45
4, 59326, Note_on_c, 3, 54, 0
4, 59328, Note_on_c, 3, 55, 45
4, 59616, Note_on_c, 3, 55, 0
4, 59616, Note_on_c, 3, 54, 45
4, 59712, Note_on_c, 3, 54, 0
4, 59712, Note_on_c, 3, 55, 45
4, 59808, Note_on_c, 3, 55, 0
4, 59808, Note_on_c, 3, 64, 45
4, 59902, Note_on_c, 3, 64, 0
4, 59904, Note_on_c, 3, 65, 45
4, 60192, Note_on_c, 3, 65, 0
4, 60192, Note_on_c, 3, 62, 45
4, 60288, Note_on_c, 3, 62, 0
4, 60288, Note_on_c, 3, 59, 45
4, 60576, Note_on_c, 3, 59, 0
4, 60576, Note_on_c, 3, 62, 45
4, 60670, Note_on_c, 3, 62, 0
4, 60672, Note_on_c, 3, 60, 63
4, 61150, Note_on_c, 3, 60, 0
4, 61152, Note_on_c, 3, 62, 45
4, 61176, Note_on_c, 3, 62, 0
4, 61176, Note_on_c, 3, 63, 45
4, 61200, Note_on_c, 3, 63, 0
4, 61200, Note_on_c, 3, 65, 45
4, 61224, Note_on_c, 3, 65, 0
4, 61224, Note_on_c, 3, 67, 45
4, 61246, Note_on_c, 3, 67, 0
4, 61248, Note_on_c, 3, 68, 45
4, 61280, Note_on_c, 3, 68, 0
4, 61344, Note_on_c, 3, 68, 45
4, 61376, Note_on_c, 3, 68, 0
4, 61440, Note_on_c, 3, 68, 63
4, 61632, Note_on_c, 3, 68, 0
4, 61632, Note_on_c, 3, 67, 45
4, 61664, Note_on_c, 3, 67, 0
4, 61728, Note_on_c, 3, 65, 45
4, 61760, Note_on_c, 3, 65, 0
4, 61824, Note_on_c, 3, 63, 45
4, 61856, Note_on_c, 3, 63, 0
4, 61920, Note_on_c, 3, 62, 45
4, 61952, Note_on_c, 3, 62, 0
4, 62016, Note_on_c, 3, 60, 45
4, 62048, Note_on_c, 3, 60, 0
4, 62112, Note_on_c, 3, 58, 45
4, 62144, Note_on_c, 3, 58, 0
4, 62208, Note_on_c, 3, 56, 45
4, 62302, Note_on_c, 3, 56, 0
4, 65184, Note_on_c, 3, 60, 45
4, 65278, Note_on_c, 3, 60, 0
4, 65280, Note_on_c, 3, 65, 45
4, 65312, Note_on_c, 3, 65, 0
4, 65376, Note_on_c, 3, 65, 45
4, 65408, Note_on_c, 3, 65, 0
4, 65472, Note_on_c, 3, 65, 45
4, 65504, Note_on_c, 3, 65, 0
4, 65568, Note_on_c, 3, 63, 45
4, 65600, Note_on_c, 3, 63, 0
4, 65664, Note_on_c, 3, 61, 45
4, 65696, Note_on_c, 3, 61, 0
4, 65760, Note_on_c, 3, 60, 45
4, 65792, Note_on_c, 3, 60, 0
4, 65856, Note_on_c, 3, 58, 45
4, 65888, Note_on_c, 3, 58, 0
4, 65952, Note_on_c, 3, 56, 45
4, 65984, Note_on_c, 3, 56, 0
4, 66048, Note_on_c, 3, 55, 45
4, 66080, Note_on_c, 3, 55, 0
4, 66144, Note_on_c, 3, 67, 45
4, 66176, Note_on_c, 3, 67, 0
4, 66240, Note_on_c, 3, 67, 45
4, 66272, Note_on_c, 3, 67, 0
4, 66336, Note_on_c, 3, 65, 45
4, 66368, Note_on_c, 3, 65, 0
4, 66432, Note_on_c, 3, 64, 45
4, 66464, Note_on_c, 3, 64, 0
4, 66528, Note_on_c, 3, 61, 45
4, 66560, Note_on_c, 3, 61, 0
4, 66624, Note_on_c, 3, 60, 45
4, 66656, Note_on_c, 3, 60, 0
4, 66720, Note_on_c, 3, 58, 45
4, 66752, Note_on_c, 3, 58, 0
4, 66816, Note_on_c, 3, 56, 92
4, 66848, Note_on_c, 3, 56, 0
4, 66912, Note_on_c, 3, 68, 92
4, 66944, Note_on_c, 3, 68, 0
4, 67008, Note_on_c, 3, 67, 92
4, 67040, Note_on_c, 3, 67, 0
4, 67104, Note_on_c, 3, 65, 92
4, 67136, Note_on_c, 3, 65, 0
4, 67200, Note_on_c, 3, 63, 92
4, 67232, Note_on_c, 3, 63, 0
4, 67296, Note_on_c, 3, 61, 92
4, 67328, Note_on_c, 3, 61, 0
4, 67392, Note_on_c, 3, 60, 92
4, 67424, Note_on_c, 3, 60, 0
4, 67488, Note_on_c, 3, 59, 92
4, 67520, Note_on_c, 3, 59, 0
4, 67584, Note_on_c, 3, 60, 92
4, 67678, Note_on_c, 3, 60, 0
4, 67776, Note_on_c, 3, 48, 127
4, 68062, Note_on_c, 3, 48, 0
4, 68064, Note_on_c, 3, 50, 92
4, 68088, Note_on_c, 3, 50, 0
4, 68088, Note_on_c, 3, 52, 92
4, 68112, Note_on_c, 3, 52, 0
4, 68112, Note_on_c, 3, 53, 92
4, 68136, Note_on_c, 3, 53, 0
4, 68136, Note_on_c, 3, 55, 92
4, 68158, Note_on_c, 3, 55, 0
4, 68160, Note_on_c, 3, 56, 92
4, 68192, Note_on_c, 3, 56, 0
4, 68256, Note_on_c, 3, 56, 92
4, 68288, Note_on_c, 3, 56, 0
4, 68352, Note_on_c, 3, 55, 92
4, 68384, Note_on_c, 3, 55, 0
4, 68448, Note_on_c, 3, 48, 92
4, 68480, Note_on_c, 3, 48, 0
4, 68544, Note_on_c, 3, 60, 127
4, 68830, Note_on_c, 3, 60, 0
4, 68832, Note_on_c, 3, 60, 92
4, 68832, Note_on_c, 3, 65, 92
4, 68926, Note_on_c, 3, 65, 0
4, 68926, Note_on_c, 3, 60, 0
4, 68928, Note_on_c, 3, 60, 92
4, 68928, Note_on_c, 3, 65, 92
4, 69022, Note_on_c, 3, 65, 0
4, 69022, Note_on_c, 3, 60, 0
4, 69024, Note_on_c, 3, 60, 92
4, 69024, Note_on_c, 3, 65, 92
4, 69118, Note_on_c, 3, 65, 0
4, 69118, Note_on_c, 3, 60, 0
4, 69120, Note_on_c, 3, 60, 92
4, 69120, Note_on_c, 3, 64, 92
4, 69214, Note_on_c, 3, 64, 0
4, 69214, Note_on_c, 3, 60, 0
4, 69312, Note_on_c, 3, 48, 127
4, 69598, Note_on_c, 3, 48, 0
4, 69600, Note_on_c, 3, 48, 92
4, 69616, Note_on_c, 3, 48, 0
4, 69616, Note_on_c, 3, 50, 92
4, 69632, Note_on_c, 3, 50, 0
4, 69632, Note_on_c, 3, 52, 92
4, 69648, Note_on_c, 3, 52, 0
4, 69648, Note_on_c, 3, 53, 92
4, 69672, Note_on_c, 3, 53, 0
4, 69672, Note_on_c, 3, 55, 92
4, 69694, Note_on_c, 3, 55, 0
4, 69696, Note_on_c, 3, 56, 92
4, 69728, Note_on_c, 3, 56, 0
4, 69792, Note_on_c, 3, 56, 92
4, 69824, Note_on_c, 3, 56, 0
4, 69888, Note_on_c, 3, 55, 92
4, 69920, Note_on_c, 3, 55, 0
4, 69984, Note_on_c, 3, 48, 92
4, 70016, Note_on_c, 3, 48, 0
4, 70080, Note_on_c, 3, 60, 127
4, 70366, Note_on_c, 3, 60, 0
4, 70368, Note_on_c, 3, 60, 92
4, 70368, Note_on_c, 3, 65, 92
4, 70462, Note_on_c, 3, 65, 0
4, 70462, Note_on_c, 3, 60, 0
4, 70464, Note_on_c, 3, 60, 92
4, 70464, Note_on_c, 3, 65, 92
4, 70558, Note_on_c, 3, 65, 0
4, 70558, Note_on_c, 3, 60, 0
4, 70560, Note_on_c, 3, 60, 92
4, 70560, Note_on_c, 3, 65, 92
4, 70654, Note_on_c, 3, 65, 0
4, 70654, Note_on_c, 3, 60, 0
4, 70656, Note_on_c, 3, 60, 92
4, 70656, Note_on_c, 3, 64, 92
4, 70750, Note_on_c, 3, 64, 0
4, 70750, Note_on_c, 3, 60, 0
4, 70752, Note_on_c, 3, 64, 30
4, 70846, Note_on_c, 3, 64, 0
4, 70848, Note_on_c, 3, 64, 30
4, 70942, Note_on_c, 3, 64, 0
4, 70944, Note_on_c, 3, 64, 30
4, 71038, Note_on_c, 3, 64, 0
4, 71040, Note_on_c, 3, 64, 30
4, 71134, Note_on_c, 3, 64, 0
4, 71136, Note_on_c, 3, 64, 30
4, 71230, Note_on_c, 3, 64, 0
4, 71232, Note_on_c, 3, 64, 30
4, 71326, Note_on_c, 3, 64, 0
4, 71328, Note_on_c, 3, 64, 30
4, 71422, Note_on_c, 3, 64, 0
4, 71424, Note_on_c, 3, 65, 30
4, 71518, Note_on_c, 3, 65, 0
4, 71520, Note_on_c, 3, 65, 30
4, 71614, Note_on_c, 3, 65, 0
4, 71616, Note_on_c, 3, 65, 30
4, 71710, Note_on_c, 3, 65, 0
4, 71712, Note_on_c, 3, 65, 30
4, 71806, Note_on_c, 3, 65, 0
4, 71808, Note_on_c, 3, 65, 30
4, 71902, Note_on_c, 3, 65, 0
4, 71904, Note_on_c, 3, 65, 30
4, 71998, Note_on_c, 3, 65, 0
4, 72000, Note_on_c, 3, 65, 30
4, 72094, Note_on_c, 3, 65, 0
4, 72096, Note_on_c, 3, 65, 30
4, 72190, Note_on_c, 3, 65, 0
4, 72192, Note_on_c, 3, 66, 30
4, 72286, Note_on_c, 3, 66, 0
4, 72288, Note_on_c, 3, 66, 30
4, 72382, Note_on_c, 3, 66, 0
4, 72384, Note_on_c, 3, 66, 30
4, 72478, Note_on_c, 3, 66, 0
4, 72480, Note_on_c, 3, 66, 30
4, 72574, Note_on_c, 3, 66, 0
4, 72576, Note_on_c, 3, 66, 30
4, 72670, Note_on_c, 3, 66, 0
4, 72672, Note_on_c, 3, 66, 30
4, 72766, Note_on_c, 3, 66, 0
4, 72768, Note_on_c, 3, 66, 30
4, 72862, Note_on_c, 3, 66, 0
4, 72864, Note_on_c, 3, 66, 30
4, 72958, Note_on_c, 3, 66, 0
4, 72960, Note_on_c, 3, 66, 30
4, 73054, Note_on_c, 3, 66, 0
4, 73632, Note_on_c, 3, 62, 30
4, 73728, Note_on_c, 3, 62, 0
4, 73728, Note_on_c, 3, 64, 30
4, 74016, Note_on_c, 3, 64, 0
4, 74016, Note_on_c, 3, 61, 30
4, 74112, Note_on_c, 3, 61, 0
4, 74112, Note_on_c, 3, 57, 30
4, 74400, Note_on_c, 3, 57, 0
4, 74400, Note_on_c, 3, 55, 30
4, 74496, Note_on_c, 3, 55, 0
4, 74496, Note_on_c, 3, 54, 30
4, 74784, Note_on_c, 3, 54, 0
4, 74784, Note_on_c, 3, 62, 30
4, 74880, Note_on_c, 3, 62, 0
4, 74880, Note_on_c, 3, 66, 30
4, 75168, Note_on_c, 3, 66, 0
4, 75168, Note_on_c, 3, 62, 30
4, 75264, Note_on_c, 3, 62, 0
4, 75264, Note_on_c, 3, 61, 30
4, 75552, Note_on_c, 3, 61, 0
4, 75552, Note_on_c, 3, 64, 35
4, 75648, Note_on_c, 3, 64, 0
4, 75648, Note_on_c, 3, 67, 36
4, 75936, Note_on_c, 3, 67, 0
4, 75936, Note_on_c, 3, 61, 41
4, 76032, Note_on_c, 3, 61, 0
4, 76032, Note_on_c, 3, 62, 42
4, 76126, Note_on_c, 3, 62, 0
4, 76128, Note_on_c, 3, 57, 60
4, 76222, Note_on_c, 3, 57, 0
4, 76224, Note_on_c, 3, 57, 45
4, 76318, Note_on_c, 3, 57, 0
4, 76320, Note_on_c, 3, 57, 47
4, 76414, Note_on_c, 3, 57, 0
4, 76416, Note_on_c, 3, 57, 49
4, 76510, Note_on_c, 3, 57, 0
4, 76512, Note_on_c, 3, 57, 71
4, 76606, Note_on_c, 3, 57, 0
4, 76608, Note_on_c, 3, 57, 53
4, 76702, Note_on_c, 3, 57, 0
4, 76704, Note_on_c, 3, 57, 55
4, 76798, Note_on_c, 3, 57, 0
4, 76800, Note_on_c, 3, 57, 57
4, 76894, Note_on_c, 3, 57, 0
4, 76896, Note_on_c, 3, 58, 82
4, 76990, Note_on_c, 3, 58, 0
4, 76992, Note_on_c, 3, 58, 61
4, 77086, Note_on_c, 3, 58, 0
4, 77088, Note_on_c, 3, 58, 63
4, 77182, Note_on_c, 3, 58, 0
4, 77184, Note_on_c, 3, 58, 65
4, 77278, Note_on_c, 3, 58, 0
4, 77280, Note_on_c, 3, 62, 93
4, 77374, Note_on_c, 3, 62, 0
4, 77376, Note_on_c, 3, 62, 69
4, 77470, Note_on_c, 3, 62, 0
4, 77472, Note_on_c, 3, 62, 71
4, 77566, Note_on_c, 3, 62, 0
4, 77568, Note_on_c, 3, 62, 73
4, 77662, Note_on_c, 3, 62, 0
4, 78240, Note_on_c, 3, 51, 45
4, 78336, Note_on_c, 3, 51, 0
4, 78336, Note_on_c, 3, 50, 45
4, 78624, Note_on_c, 3, 50, 0
4, 78624, Note_on_c, 3, 53, 45
4, 78720, Note_on_c, 3, 53, 0
4, 78720, Note_on_c, 3, 58, 45
4, 79008, Note_on_c, 3, 58, 0
4, 79008, Note_on_c, 3, 56, 45
4, 79104, Note_on_c, 3, 56, 0
4, 79104, Note_on_c, 3, 55, 45
4, 79392, Note_on_c, 3, 55, 0
4, 79392, Note_on_c, 3, 58, 45
4, 79488, Note_on_c, 3, 58, 0
4, 79488, Note_on_c, 3, 55, 45
4, 79776, Note_on_c, 3, 55, 0
4, 79776, Note_on_c, 3, 51, 45
4, 79870, Note_on_c, 3, 51, 0
4, 79872, Note_on_c, 3, 53, 45
4, 80352, Note_on_c, 3, 53, 0
4, 80352, Note_on_c, 3, 59, 45
4, 80446, Note_on_c, 3, 59, 0
4, 80448, Note_on_c, 3, 59, 45
4, 80480, Note_on_c, 3, 59, 0
4, 80544, Note_on_c, 3, 59, 45
4, 80576, Note_on_c, 3, 59, 0
4, 80640, Note_on_c, 3, 60, 45
4, 80832, Note_on_c, 3, 60, 0
4, 80832, Note_on_c, 3, 55, 45
4, 81120, Note_on_c, 3, 55, 0
4, 81120, Note_on_c, 3, 61, 45
4, 81214, Note_on_c, 3, 61, 0
4, 81216, Note_on_c, 3, 61, 45
4, 81248, Note_on_c, 3, 61, 0
4, 81312, Note_on_c, 3, 61, 45
4, 81344, Note_on_c, 3, 61, 0
4, 81408, Note_on_c, 3, 62, 45
4, 81568, Note_on_c, 3, 62, 0
4, 81600, Note_on_c, 3, 54, 45
4, 81696, Note_on_c, 3, 54, 0
4, 81696, Note_on_c, 3, 55, 45
4, 81790, Note_on_c, 3, 55, 0
4, 81792, Note_on_c, 3, 57, 45
4, 81888, Note_on_c, 3, 57, 0
4, 81888, Note_on_c, 3, 62, 45
4, 81984, Note_on_c, 3, 62, 0
4, 81984, Note_on_c, 3, 57, 45
4, 82080, Note_on_c, 3, 57, 0
4, 82080, Note_on_c, 3, 62, 45
4, 82174, Note_on_c, 3, 62, 0
4, 82176, Note_on_c, 3, 58, 45
4, 82272, Note_on_c, 3, 58, 0
4, 82272, Note_on_c, 3, 62, 47
4, 82368, Note_on_c, 3, 62, 0
4, 82368, Note_on_c, 3, 58, 49
4, 82464, Note_on_c, 3, 58, 0
4, 82464, Note_on_c, 3, 62, 51
4, 82558, Note_on_c, 3, 62, 0
4, 82560, Note_on_c, 3, 58, 53
4, 82656, Note_on_c, 3, 58, 0
4, 82656, Note_on_c, 3, 60, 55
4, 82752, Note_on_c, 3, 60, 0
4, 82752, Note_on_c, 3, 55, 57
4, 82848, Note_on_c, 3, 55, 0
4, 82848, Note_on_c, 3, 60, 60
4, 82942, Note_on_c, 3, 60, 0
4, 82944, Note_on_c, 3, 57, 63
4, 83040, Note_on_c, 3, 57, 0
4, 83040, Note_on_c, 3, 60, 66
4, 83134, Note_on_c, 3, 60, 0
4, 83136, Note_on_c, 3, 60, 69
4, 83168, Note_on_c, 3, 60, 0
4, 83232, Note_on_c, 3, 60, 72
4, 83264, Note_on_c, 3, 60, 0
4, 83328, Note_on_c, 3, 60, 75
4, 83424, Note_on_c, 3, 60, 0
4, 83424, Note_on_c, 3, 53, 68
4, 83518, Note_on_c, 3, 53, 0
4, 83520, Note_on_c, 3, 53, 61
4, 83552, Note_on_c, 3, 53, 0
4, 83616, Note_on_c, 3, 53, 53
4, 83648, Note_on_c, 3, 53, 0
4, 83712, Note_on_c, 3, 52, 45
4, 83806, Note_on_c, 3, 52, 0
4, 83808, Note_on_c, 3, 52, 45
4, 83808, Note_on_c, 3, 55, 45
4, 83968, Note_on_c, 3, 55, 0
4, 83968, Note_on_c, 3, 52, 0
4, 84000, Note_on_c, 3, 55, 45
4, 84190, Note_on_c, 3, 55, 0
4, 84192, Note_on_c, 3, 52, 45
4, 84224, Note_on_c, 3, 52, 0
4, 84288, Note_on_c, 3, 52, 45
4, 84288, Note_on_c, 3, 55, 45
4, 84320, Note_on_c, 3, 55, 0
4, 84320, Note_on_c, 3, 52, 0
4, 84384, Note_on_c, 3, 52, 45
4, 84384, Note_on_c, 3, 55, 45
4, 84416, Note_on_c, 3, 55, 0
4, 84416, Note_on_c, 3, 52, 0
4, 84480, Note_on_c, 3, 55, 45
4, 84512, Note_on_c, 3, 55, 0
4, 84576, Note_on_c, 3, 67, 45
4, 84608, Note_on_c, 3, 67, 0
4, 84672, Note_on_c, 3, 59, 45
4, 84704, Note_on_c, 3, 59, 0
4, 84768, Note_on_c, 3, 71, 45
4, 84800, Note_on_c, 3, 71, 0
4, 84864, Note_on_c, 3, 62, 45
4, 84896, Note_on_c, 3, 62, 0
4, 84960, Note_on_c, 3, 74, 45
4, 84992, Note_on_c, 3, 74, 0
4, 85056, Note_on_c, 3, 55, 60
4, 85088, Note_on_c, 3, 55, 0
4, 85152, Note_on_c, 3, 67, 45
4, 85184, Note_on_c, 3, 67, 0
4, 85248, Note_on_c, 3, 52, 45
4, 85248, Note_on_c, 3, 55, 45
4, 85726, Note_on_c, 3, 55, 0
4, 85726, Note_on_c, 3, 52, 0
4, 85728, Note_on_c, 3, 52, 45
4, 85760, Note_on_c, 3, 52, 0
4, 85824, Note_on_c, 3, 52, 45
4, 85824, Note_on_c, 3, 55, 45
4, 85856, Note_on_c, 3, 55, 0
4, 85856, Note_on_c, 3, 52, 0
4, 85920, Note_on_c, 3, 52, 45
4, 85920, Note_on_c, 3, 55, 45
4, 85952, Note_on_c, 3, 55, 0
4, 85952, Note_on_c, 3, 52, 0
4, 86016, Note_on_c, 3, 48, 45
4, 86048, Note_on_c, 3, 48, 0
4, 86112, Note_on_c, 3, 60, 45
4, 86144, Note_on_c, 3, 60, 0
4, 86208, Note_on_c, 3, 52, 45
4, 86240, Note_on_c, 3, 52, 0
4, 86304, Note_on_c, 3, 64, 45
4, 86336, Note_on_c, 3, 64, 0
4, 86400, Note_on_c, 3, 55, 45
4, 86432, Note_on_c, 3, 55, 0
4, 86496, Note_on_c, 3, 67, 45
4, 86528, Note_on_c, 3, 67, 0
4, 86592, Note_on_c, 3, 60, 45
4, 86624, Note_on_c, 3, 60, 0
4, 86688, Note_on_c, 3, 72, 60
4, 86720, Note_on_c, 3, 72, 0
4, 86784, Note_on_c, 3, 48, 45
4, 86816, Note_on_c, 3, 48, 0
4, 86880, Note_on_c, 3, 60, 45
4, 86912, Note_on_c, 3, 60, 0
4, 86976, Note_on_c, 3, 52, 45
4, 87008, Note_on_c, 3, 52, 0
4, 87072, Note_on_c, 3, 64, 45
4, 87104, Note_on_c, 3, 64, 0
4, 87168, Note_on_c, 3, 55, 45
4, 87200, Note_on_c, 3, 55, 0
4, 87264, Note_on_c, 3, 67, 45
4, 87296, Note_on_c, 3, 67, 0
4, 87360, Note_on_c, 3, 60, 45
4, 87392, Note_on_c, 3, 60, 0
4, 87456, Note_on_c, 3, 72, 45
4, 87488, Note_on_c, 3, 72, 0
4, 87552, Note_on_c, 3, 73, 63
4, 87840, Note_on_c, 3, 73, 0
4, 87840, Note_on_c, 3, 72, 45
4, 87934, Note_on_c, 3, 72, 0
4, 87936, Note_on_c, 3, 73, 63
4, 88224, Note_on_c, 3, 73, 0
4, 88224, Note_on_c, 3, 72, 45
4, 88318, Note_on_c, 3, 72, 0
4, 88416, Note_on_c, 3, 72, 53
4, 88510, Note_on_c, 3, 72, 0
4, 88608, Note_on_c, 3, 72, 69
4, 88702, Note_on_c, 3, 72, 0
4, 88800, Note_on_c, 3, 72, 85
4, 88894, Note_on_c, 3, 72, 0
4, 88992, Note_on_c, 3, 72, 101
4, 89086, Note_on_c, 3, 72, 0
4, 89280, Note_on_c, 3, 48, 127
4, 89440, Note_on_c, 3, 48, 0
4, 89472, Note_on_c, 3, 48, 127
4, 89760, Note_on_c, 3, 48, 0
4, 89760, Note_on_c, 3, 62, 108
4, 89808, Note_on_c, 3, 62, 0
4, 89808, Note_on_c, 3, 64, 108
4, 89854, Note_on_c, 3, 64, 0
4, 89888, Note_on_c, 3, 64, 45
4, 89920, Note_on_c, 3, 64, 0
4, 89920, Note_on_c, 3, 65, 45
4, 89952, Note_on_c, 3, 65, 0
4, 89952, Note_on_c, 3, 67, 45
4, 89984, Note_on_c, 3, 67, 0
4, 89984, Note_on_c, 3, 65, 45
4, 90016, Note_on_c, 3, 65, 0
4, 90016, Note_on_c, 3, 64, 45
4, 90048, Note_on_c, 3, 64, 0
4, 90048, Note_on_c, 3, 62, 45
4, 90080, Note_on_c, 3, 62, 0
4, 90080, Note_on_c, 3, 60, 45
4, 90112, Note_on_c, 3, 60, 0
4, 90112, Note_on_c, 3, 58, 45
4, 90144, Note_on_c, 3, 58, 0
4, 90144, Note_on_c, 3, 57, 45
4, 90176, Note_on_c, 3, 57, 0
4, 90176, Note_on_c, 3, 55, 45
4, 90208, Note_on_c, 3, 55, 0
4, 90208, Note_on_c, 3, 53, 45
4, 90238, Note_on_c, 3, 53, 0
4, 90240, Note_on_c, 3, 52, 45
4, 90272, Note_on_c, 3, 52, 0
4, 90336, Note_on_c, 3, 52, 45
4, 90368, Note_on_c, 3, 52, 0
4, 90432, Note_on_c, 3, 48, 45
4, 90432, Note_on_c, 3, 55, 45
4, 90464, Note_on_c, 3, 55, 0
4, 90464, Note_on_c, 3, 48, 0
4, 90624, Note_on_c, 3, 67, 45
4, 90656, Note_on_c, 3, 67, 0
4, 90656, Note_on_c, 3, 66, 45
4, 90688, Note_on_c, 3, 66, 0
4, 90688, Note_on_c, 3, 67, 45
4, 90720, Note_on_c, 3, 67, 0
4, 90720, Note_on_c, 3, 69, 45
4, 90752, Note_on_c, 3, 69, 0
4, 90752, Note_on_c, 3, 67, 45
4, 90784, Note_on_c, 3, 67, 0
4, 90784, Note_on_c, 3, 65, 45
4, 90816, Note_on_c, 3, 65, 0
4, 90816, Note_on_c, 3, 64, 45
4, 90848, Note_on_c, 3, 64, 0
4, 90848, Note_on_c, 3, 62, 45
4, 90880, Note_on_c, 3, 62, 0
4, 90880, Note_on_c, 3, 60, 45
4, 90912, Note_on_c, 3, 60, 0
4, 90912, Note_on_c, 3, 58, 45
4, 90944, Note_on_c, 3, 58, 0
4, 90944, Note_on_c, 3, 57, 45
4, 90976, Note_on_c, 3, 57, 0
4, 90976, Note_on_c, 3, 55, 45
4, 91006, Note_on_c, 3, 55, 0
4, 91008, Note_on_c, 3, 53, 45
4, 91040, Note_on_c, 3, 53, 0
4, 91104, Note_on_c, 3, 53, 45
4, 91136, Note_on_c, 3, 53, 0
4, 91200, Note_on_c, 3, 57, 45
4, 91232, Note_on_c, 3, 57, 0
4, 91488, Note_on_c, 3, 60, 45
4, 91648, Note_on_c, 3, 60, 0
4, 91680, Note_on_c, 3, 60, 45
4, 91774, Note_on_c, 3, 60, 0
4, 91872, Note_on_c, 3, 60, 45
4, 92032, Note_on_c, 3, 60, 0
4, 92064, Note_on_c, 3, 60, 45
4, 92158, Note_on_c, 3, 60, 0
4, 92256, Note_on_c, 3, 60, 45
4, 92416, Note_on_c, 3, 60, 0
4, 92448, Note_on_c, 3, 62, 45
4, 92542, Note_on_c, 3, 62, 0
4, 92544, Note_on_c, 3, 64, 45
4, 92640, Note_on_c, 3, 64, 0
4, 92640, Note_on_c, 3, 65, 45
4, 92736, Note_on_c, 3, 65, 0
4, 92736, Note_on_c, 3, 64, 45
4, 92830, Note_on_c, 3, 64, 0
4, 93120, Note_on_c, 3, 69, 92
4, 93152, Note_on_c, 3, 69, 0
4, 93152, Note_on_c, 3, 67, 92
4, 93184, Note_on_c, 3, 67, 0
4, 93184, Note_on_c, 3, 65, 92
4, 93216, Note_on_c, 3, 65, 0
4, 93216, Note_on_c, 3, 64, 92
4, 93248, Note_on_c, 3, 64, 0
4, 93248, Note_on_c, 3, 62, 92
4, 93280, Note_on_c, 3, 62, 0
4, 93280, Note_on_c, 3, 60, 92
4, 93310, Note_on_c, 3, 60, 0
4, 93312, Note_on_c, 3, 58, 92
4, 93344, Note_on_c, 3, 58, 0
4, 93408, Note_on_c, 3, 58, 92
4, 93440, Note_on_c, 3, 58, 0
4, 93504, Note_on_c, 3, 64, 92
4, 93536, Note_on_c, 3, 64, 0
4, 93888, Note_on_c, 3, 70, 92
4, 93920, Note_on_c, 3, 70, 0
4, 93920, Note_on_c, 3, 69, 92
4, 93952, Note_on_c, 3, 69, 0
4, 93952, Note_on_c, 3, 67, 92
4, 93984, Note_on_c, 3, 67, 0
4, 93984, Note_on_c, 3, 65, 92
4, 94016, Note_on_c, 3, 65, 0
4, 94016, Note_on_c, 3, 64, 92
4, 94048, Note_on_c, 3, 64, 0
4, 94048, Note_on_c, 3, 62, 92
4, 94078, Note_on_c, 3, 62, 0
4, 94080, Note_on_c, 3, 60, 92
4, 94112, Note_on_c, 3, 60, 0
4, 94176, Note_on_c, 3, 60, 92
4, 94208, Note_on_c, 3, 60, 0
4, 94272, Note_on_c, 3, 65, 92
4, 94304, Note_on_c, 3, 65, 0
4, 94560, Note_on_c, 3, 60, 45
4, 94720, Note_on_c, 3, 60, 0
4, 94752, Note_on_c, 3, 60, 45
4, 94846, Note_on_c, 3, 60, 0
4, 94944, Note_on_c, 3, 60, 45
4, 95104, Note_on_c, 3, 60, 0
4, 95136, Note_on_c, 3, 60, 45
4, 95230, Note_on_c, 3, 60, 0
4, 95328, Note_on_c, 3, 60, 45
4, 95488, Note_on_c, 3, 60, 0
4, 95520, Note_on_c, 3, 57, 58
4, 95614, Note_on_c, 3, 57, 0
4, 95616, Note_on_c, 3, 58, 64
4, 95648, Note_on_c, 3, 58, 0
4, 95712, Note_on_c, 3, 55, 71
4, 95744, Note_on_c, 3, 55, 0
4, 95808, Note_on_c, 3, 53, 78
4, 95840, Note_on_c, 3, 53, 0
4, 95904, Note_on_c, 3, 62, 85
4, 95936, Note_on_c, 3, 62, 0
4, 96000, Note_on_c, 3, 60, 92
4, 96160, Note_on_c, 3, 60, 0
4, 96192, Note_on_c, 3, 48, 92
4, 96352, Note_on_c, 3, 48, 0
4, 96384, Note_on_c, 3, 53, 92
4, 96544, Note_on_c, 3, 53, 0
4, 97152, Note_on_c, 3, 59, 45
4, 97200, Note_on_c, 3, 59, 0
4, 97200, Note_on_c, 3, 60, 45
4, 97248, Note_on_c, 3, 60, 0
4, 97248, Note_on_c, 3, 59, 45
4, 97296, Note_on_c, 3, 59, 0
4, 97296, Note_on_c, 3, 60, 45
4, 97344, Note_on_c, 3, 60, 0
4, 97344, Note_on_c, 3, 59, 45
4, 97392, Note_on_c, 3, 59, 0
4, 97392, Note_on_c, 3, 60, 45
4, 97440, Note_on_c, 3, 60, 0
4, 97440, Note_on_c, 3, 55, 45
4, 97488, Note_on_c, 3, 55, 0
4, 97488, Note_on_c, 3, 52, 45
4, 97534, Note_on_c, 3, 52, 0
4, 97536, Note_on_c, 3, 48, 45
4, 97696, Note_on_c, 3, 48, 0
4, 98976, Note_on_c, 3, 60, 45
4, 99104, Note_on_c, 3, 60, 0
4, 99168, Note_on_c, 3, 60, 45
4, 99200, Note_on_c, 3, 60, 0
4, 99264, Note_on_c, 3, 60, 45
4, 99296, Note_on_c, 3, 60, 0
4, 99360, Note_on_c, 3, 60, 45
4, 99392, Note_on_c, 3, 60, 0
4, 99456, Note_on_c, 3, 60, 45
4, 99712, Note_on_c, 3, 60, 0
4, 102528, Note_on_c, 3, 58, 60
4, 102622, Note_on_c, 3, 58, 0
4, 103296, Note_on_c, 3, 53, 45
4, 103344, Note_on_c, 3, 53, 0
4, 103344, Note_on_c, 3, 57, 45
4, 103392, Note_on_c, 3, 57, 0
4, 103392, Note_on_c, 3, 60, 45
4, 103440, Note_on_c, 3, 60, 0
4, 103440, Note_on_c, 3, 58, 45
4, 103488, Note_on_c, 3, 58, 0
4, 103488, Note_on_c, 3, 57, 45
4, 103536, Note_on_c, 3, 57, 0
4, 103536, Note_on_c, 3, 60, 45
4, 103584, Note_on_c, 3, 60, 0
4, 103584, Note_on_c, 3, 65, 45
4, 103632, Note_on_c, 3, 65, 0
4, 103632, Note_on_c, 3, 63, 45
4, 103678, Note_on_c, 3, 63, 0
4, 103680, Note_on_c, 3, 62, 45
4, 103840, Note_on_c, 3, 62, 0
4, 104256, Note_on_c, 3, 55, 45
4, 104304, Note_on_c, 3, 55, 0
4, 104304, Note_on_c, 3, 58, 45
4, 104352, Note_on_c, 3, 58, 0
4, 104352, Note_on_c, 3, 62, 45
4, 104400, Note_on_c, 3, 62, 0
4, 104400, Note_on_c, 3, 58, 45
4, 104446, Note_on_c, 3, 58, 0
4, 104448, Note_on_c, 3, 57, 45
4, 104608, Note_on_c, 3, 57, 0
4, 105024, Note_on_c, 3, 50, 45
4, 105072, Note_on_c, 3, 50, 0
4, 105072, Note_on_c, 3, 54, 45
4, 105120, Note_on_c, 3, 54, 0
4, 105120, Note_on_c, 3, 58, 45
4, 105168, Note_on_c, 3, 58, 0
4, 105168, Note_on_c, 3, 57, 45
4, 105214, Note_on_c, 3, 57, 0
4, 105216, Note_on_c, 3, 55, 45
4, 105310, Note_on_c, 3, 55, 0
4, 105312, Note_on_c, 3, 62, 45
4, 105406, Note_on_c, 3, 62, 0
4, 105504, Note_on_c, 3, 62, 45
4, 105598, Note_on_c, 3, 62, 0
4, 105696, Note_on_c, 3, 55, 45
4, 105790, Note_on_c, 3, 55, 0
4, 105888, Note_on_c, 3, 67, 45
4, 105982, Note_on_c, 3, 67, 0
4, 105984, Note_on_c, 3, 60, 45
4, 106078, Note_on_c, 3, 60, 0
4, 106176, Note_on_c, 3, 55, 45
4, 106368, Note_on_c, 3, 55, 0
4, 106368, Note_on_c, 3, 57, 55
4, 106560, Note_on_c, 3, 57, 0
4, 106560, Note_on_c, 3, 55, 65
4, 106720, Note_on_c, 3, 55, 0
4, 106752, Note_on_c, 3, 52, 45
4, 106752, Note_on_c, 3, 55, 45
4, 107136, Note_on_c, 3, 52, 0
4, 107136, Note_on_c, 3, 53, 45
4, 107472, Note_on_c, 3, 53, 0
4, 107614, Note_on_c, 3, 55, 0
4, 107616, Note_on_c, 3, 55, 45
4, 107712, Note_on_c, 3, 55, 0
4, 107712, Note_on_c, 3, 59, 45
4, 107808, Note_on_c, 3, 59, 0
4, 107808, Note_on_c, 3, 60, 45
4, 107904, Note_on_c, 3, 60, 0
4, 107904, Note_on_c, 3, 62, 45
4, 108000, Note_on_c, 3, 62, 0
4, 108000, Note_on_c, 3, 55, 45
4, 108096, Note_on_c, 3, 55, 0
4, 108096, Note_on_c, 3, 60, 45
4, 108192, Note_on_c, 3, 60, 0
4, 108192, Note_on_c, 3, 62, 45
4, 108286, Note_on_c, 3, 62, 0
4, 108288, Note_on_c, 3, 64, 45
4, 108384, Note_on_c, 3, 64, 0
4, 108384, Note_on_c, 3, 55, 45
4, 108480, Note_on_c, 3, 55, 0
4, 108480, Note_on_c, 3, 62, 45
4, 108576, Note_on_c, 3, 62, 0
4, 108576, Note_on_c, 3, 64, 45
4, 108672, Note_on_c, 3, 64, 0
4, 108672, Note_on_c, 3, 65, 45
4, 108768, Note_on_c, 3, 65, 0
4, 108768, Note_on_c, 3, 55, 45
4, 108864, Note_on_c, 3, 55, 0
4, 108864, Note_on_c, 3, 64, 45
4, 108960, Note_on_c, 3, 64, 0
4, 108960, Note_on_c, 3, 65, 45
4, 109056, Note_on_c, 3, 65, 0
4, 109056, Note_on_c, 3, 67, 45
4, 109150, Note_on_c, 3, 67, 0
4, 109152, Note_on_c, 3, 64, 45
4, 109312, Note_on_c, 3, 64, 0
4, 109344, Note_on_c, 3, 64, 53
4, 109534, Note_on_c, 3, 64, 0
4, 109536, Note_on_c, 3, 52, 61
4, 109632, Note_on_c, 3, 52, 0
4, 109632, Note_on_c, 3, 53, 65
4, 109728, Note_on_c, 3, 53, 0
4, 109728, Note_on_c, 3, 55, 70
4, 109822, Note_on_c, 3, 55, 0
4, 109824, Note_on_c, 3, 48, 45
4, 110208, Note_on_c, 3, 58, 45
4, 110592, Note_on_c, 3, 58, 0
4, 110592, Note_on_c, 3, 60, 45
4, 110686, Note_on_c, 3, 60, 0
4, 110686, Note_on_c, 3, 48, 0
4, 110688, Note_on_c, 3, 48, 45
4, 110784, Note_on_c, 3, 48, 0
4, 110784, Note_on_c, 3, 52, 45
4, 110880, Note_on_c, 3, 52, 0
4, 110880, Note_on_c, 3, 53, 45
4, 110976, Note_on_c, 3, 53, 0
4, 110976, Note_on_c, 3, 55, 45
4, 111072, Note_on_c, 3, 55, 0
4, 111072, Note_on_c, 3, 48, 45
4, 111168, Note_on_c, 3, 48, 0
4, 111168, Note_on_c, 3, 53, 45
4, 111264, Note_on_c, 3, 53, 0
4, 111264, Note_on_c, 3, 55, 45
4, 111358, Note_on_c, 3, 55, 0
4, 111360, Note_on_c, 3, 57, 45
4, 111456, Note_on_c, 3, 57, 0
4, 111456, Note_on_c, 3, 48, 45
4, 111552, Note_on_c, 3, 48, 0
4, 111552, Note_on_c, 3, 55, 45
4, 111648, Note_on_c, 3, 55, 0
4, 111648, Note_on_c, 3, 57, 45
4, 111744, Note_on_c, 3, 57, 0
4, 111744, Note_on_c, 3, 58, 45
4, 111840, Note_on_c, 3, 58, 0
4, 111840, Note_on_c, 3, 48, 45
4, 111936, Note_on_c, 3, 48, 0
4, 111936, Note_on_c, 3, 57, 45
4, 112032, Note_on_c, 3, 57, 0
4, 112032, Note_on_c, 3, 58, 45
4, 112126, Note_on_c, 3, 58, 0
4, 112128, Note_on_c, 3, 60, 45
4, 112224, Note_on_c, 3, 60, 0
4, 112224, Note_on_c, 3, 48, 48
4, 112320, Note_on_c, 3, 48, 0
4, 112320, Note_on_c, 3, 52, 51
4, 112416, Note_on_c, 3, 52, 0
4, 112416, Note_on_c, 3, 53, 55
4, 112512, Note_on_c, 3, 53, 0
4, 112512, Note_on_c, 3, 55, 59
4, 112608, Note_on_c, 3, 55, 0
4, 112608, Note_on_c, 3, 52, 63
4, 112704, Note_on_c, 3, 52, 0
4, 112704, Note_on_c, 3, 53, 67
4, 112800, Note_on_c, 3, 53, 0
4, 112800, Note_on_c, 3, 55, 71
4, 112894, Note_on_c, 3, 55, 0
4, 112896, Note_on_c, 3, 57, 45
4, 112990, Note_on_c, 3, 57, 0
4, 113184, Note_on_c, 3, 64, 45
4, 113280, Note_on_c, 3, 64, 0
4, 113280, Note_on_c, 3, 65, 45
4, 113374, Note_on_c, 3, 65, 0
4, 113568, Note_on_c, 3, 61, 45
4, 113664, Note_on_c, 3, 61, 0
4, 113664, Note_on_c, 3, 62, 45
4, 113758, Note_on_c, 3, 62, 0
4, 113952, Note_on_c, 3, 57, 45
4, 114048, Note_on_c, 3, 57, 0
4, 114048, Note_on_c, 3, 58, 45
4, 114142, Note_on_c, 3, 58, 0
4, 114528, Note_on_c, 3, 65, 45
4, 114622, Note_on_c, 3, 65, 0
4, 114720, Note_on_c, 3, 70, 45
4, 114814, Note_on_c, 3, 70, 0
4, 114912, Note_on_c, 3, 69, 45
4, 115006, Note_on_c, 3, 69, 0
4, 115104, Note_on_c, 3, 67, 45
4, 115198, Note_on_c, 3, 67, 0
4, 115680, Note_on_c, 3, 60, 45
4, 115776, Note_on_c, 3, 60, 0
4, 115776, Note_on_c, 3, 65, 45
4, 115870, Note_on_c, 3, 65, 0
4, 116064, Note_on_c, 3, 57, 45
4, 116160, Note_on_c, 3, 57, 0
4, 116160, Note_on_c, 3, 62, 45
4, 116254, Note_on_c, 3, 62, 0
4, 116448, Note_on_c, 3, 53, 45
4, 116544, Note_on_c, 3, 53, 0
4, 116544, Note_on_c, 3, 58, 45
4, 116638, Note_on_c, 3, 58, 0
4, 116640, Note_on_c, 3, 50, 45
4, 116832, Note_on_c, 3, 50, 0
4, 116832, Note_on_c, 3, 58, 48
4, 116926, Note_on_c, 3, 58, 0
4, 116928, Note_on_c, 3, 58, 51
4, 116960, Note_on_c, 3, 58, 0
4, 117024, Note_on_c, 3, 58, 55
4, 117056, Note_on_c, 3, 58, 0
4, 117120, Note_on_c, 3, 58, 59
4, 117312, Note_on_c, 3, 58, 0
4, 117312, Note_on_c, 3, 57, 67
4, 117408, Note_on_c, 3, 57, 0
4, 117408, Note_on_c, 3, 55, 71
4, 117502, Note_on_c, 3, 55, 0
4, 117504, Note_on_c, 3, 53, 45
4, 117598, Note_on_c, 3, 53, 0
4, 117600, Note_on_c, 3, 65, 63
4, 117696, Note_on_c, 3, 65, 0
4, 117696, Note_on_c, 3, 67, 45
4, 117792, Note_on_c, 3, 67, 0
4, 117792, Note_on_c, 3, 70, 45
4, 117888, Note_on_c, 3, 70, 0
4, 117888, Note_on_c, 3, 69, 45
4, 117982, Note_on_c, 3, 69, 0
4, 117984, Note_on_c, 3, 65, 63
4, 118080, Note_on_c, 3, 65, 0
4, 118080, Note_on_c, 3, 67, 45
4, 118176, Note_on_c, 3, 67, 0
4, 118176, Note_on_c, 3, 70, 45
4, 118272, Note_on_c, 3, 70, 0
4, 118272, Note_on_c, 3, 69, 45
4, 118366, Note_on_c, 3, 69, 0
4, 118368, Note_on_c, 3, 69, 45
4, 118464, Note_on_c, 3, 69, 0
4, 118464, Note_on_c, 3, 70, 45
4, 118560, Note_on_c, 3, 70, 0
4, 118560, Note_on_c, 3, 67, 45
4, 118656, Note_on_c, 3, 67, 0
4, 118656, Note_on_c, 3, 60, 45
4, 118752, Note_on_c, 3, 60, 0
4, 118752, Note_on_c, 3, 57, 45
4, 118848, Note_on_c, 3, 57, 0
4, 118848, Note_on_c, 3, 58, 45
4, 118944, Note_on_c, 3, 58, 0
4, 118944, Note_on_c, 3, 55, 45
4, 119038, Note_on_c, 3, 55, 0
4, 119040, Note_on_c, 3, 56, 45
4, 119072, Note_on_c, 3, 56, 0
4, 119088, Note_on_c, 3, 60, 45
4, 119136, Note_on_c, 3, 60, 0
4, 119136, Note_on_c, 3, 68, 63
4, 119184, Note_on_c, 3, 68, 0
4, 119184, Note_on_c, 3, 65, 45
4, 119230, Note_on_c, 3, 65, 0
4, 119232, Note_on_c, 3, 65, 45
4, 119280, Note_on_c, 3, 65, 0
4, 119280, Note_on_c, 3, 64, 47
4, 119328, Note_on_c, 3, 64, 0
4, 119328, Note_on_c, 3, 62, 49
4, 119376, Note_on_c, 3, 62, 0
4, 119376, Note_on_c, 3, 64, 51
4, 119422, Note_on_c, 3, 64, 0
4, 119424, Note_on_c, 3, 65, 53
4, 119456, Note_on_c, 3, 65, 0
4, 119472, Note_on_c, 3, 60, 55
4, 119520, Note_on_c, 3, 60, 0
4, 119520, Note_on_c, 3, 68, 79
4, 119568, Note_on_c, 3, 68, 0
4, 119568, Note_on_c, 3, 65, 60
4, 119614, Note_on_c, 3, 65, 0
4, 119616, Note_on_c, 3, 65, 63
4, 119664, Note_on_c, 3, 65, 0
4, 119664, Note_on_c, 3, 64, 66
4, 119712, Note_on_c, 3, 64, 0
4, 119712, Note_on_c, 3, 62, 69
4, 119760, Note_on_c, 3, 62, 0
4, 119760, Note_on_c, 3, 64, 72
4, 119806, Note_on_c, 3, 64, 0
4, 119808, Note_on_c, 3, 65, 45
4, 119902, Note_on_c, 3, 65, 0
4, 119904, Note_on_c, 3, 60, 45
4, 119952, Note_on_c, 3, 60, 0
4, 119952, Note_on_c, 3, 56, 45
4, 120000, Note_on_c, 3, 56, 0
4, 120000, Note_on_c, 3, 61, 45
4, 120048, Note_on_c, 3, 61, 0
4, 120048, Note_on_c, 3, 58, 45
4, 120094, Note_on_c, 3, 58, 0
4, 120192, Note_on_c, 3, 60, 45
4, 120240, Note_on_c, 3, 60, 0
4, 120240, Note_on_c, 3, 56, 45
4, 120286, Note_on_c, 3, 56, 0
4, 120384, Note_on_c, 3, 58, 45
4, 120432, Note_on_c, 3, 58, 0
4, 120432, Note_on_c, 3, 55, 45
4, 120478, Note_on_c, 3, 55, 0
4, 120576, Note_on_c, 3, 56, 45
4, 120624, Note_on_c, 3, 56, 0
4, 120624, Note_on_c, 3, 60, 45
4, 120670, Note_on_c, 3, 60, 0
4, 120672, Note_on_c, 3, 65, 45
4, 120704, Note_on_c, 3, 65, 0
4, 120720, Note_on_c, 3, 60, 45
4, 120752, Note_on_c, 3, 60, 0
4, 120768, Note_on_c, 3, 65, 45
4, 120800, Note_on_c, 3, 65, 0
4, 120816, Note_on_c, 3, 60, 45
4, 120848, Note_on_c, 3, 60, 0
4, 120864, Note_on_c, 3, 65, 45
4, 120896, Note_on_c, 3, 65, 0
4, 120912, Note_on_c, 3, 60, 45
4, 120944, Note_on_c, 3, 60, 0
4, 120960, Note_on_c, 3, 64, 45
4, 121006, Note_on_c, 3, 64, 0
4, 121008, Note_on_c, 3, 60, 45
4, 121054, Note_on_c, 3, 60, 0
4, 121056, Note_on_c, 3, 64, 45
4, 121102, Note_on_c, 3, 64, 0
4, 121104, Note_on_c, 3, 60, 45
4, 121150, Note_on_c, 3, 60, 0
4, 121152, Note_on_c, 3, 64, 45
4, 121198, Note_on_c, 3, 64, 0
4, 121200, Note_on_c, 3, 60, 45
4, 121246, Note_on_c, 3, 60, 0
4, 121248, Note_on_c, 3, 64, 45
4, 121294, Note_on_c, 3, 64, 0
4, 121296, Note_on_c, 3, 60, 45
4, 121342, Note_on_c, 3, 60, 0
4, 121344, Note_on_c, 3, 65, 45
4, 121390, Note_on_c, 3, 65, 0
4, 121392, Note_on_c, 3, 60, 45
4, 121438, Note_on_c, 3, 60, 0
4, 121440, Note_on_c, 3, 65, 45
4, 121486, Note_on_c, 3, 65, 0
4, 121488, Note_on_c, 3, 60, 45
4, 121534, Note_on_c, 3, 60, 0
4, 121536, Note_on_c, 3, 65, 45
4, 121582, Note_on_c, 3, 65, 0
4, 121584, Note_on_c, 3, 60, 45
4, 121630, Note_on_c, 3, 60, 0
4, 121632, Note_on_c, 3, 56, 45
4, 121678, Note_on_c, 3, 56, 0
4, 121680, Note_on_c, 3, 60, 45
4, 121726, Note_on_c, 3, 60, 0
4, 121728, Note_on_c, 3, 58, 45
4, 121774, Note_on_c, 3, 58, 0
4, 121776, Note_on_c, 3, 60, 45
4, 121822, Note_on_c, 3, 60, 0
4, 121824, Note_on_c, 3, 55, 45
4, 121870, Note_on_c, 3, 55, 0
4, 121872, Note_on_c, 3, 60, 45
4, 121918, Note_on_c, 3, 60, 0
4, 121920, Note_on_c, 3, 58, 45
4, 121966, Note_on_c, 3, 58, 0
4, 121968, Note_on_c, 3, 60, 45
4, 122014, Note_on_c, 3, 60, 0
4, 122016, Note_on_c, 3, 55, 45
4, 122062, Note_on_c, 3, 55, 0
4, 122064, Note_on_c, 3, 60, 45
4, 122110, Note_on_c, 3, 60, 0
4, 122112, Note_on_c, 3, 65, 45
4, 122400, Note_on_c, 3, 65, 0
4, 122400, Note_on_c, 3, 69, 50
4, 122494, Note_on_c, 3, 69, 0
4, 122496, Note_on_c, 3, 70, 51
4, 122784, Note_on_c, 3, 70, 0
4, 122784, Note_on_c, 3, 67, 56
4, 122878, Note_on_c, 3, 67, 0
4, 122880, Note_on_c, 3, 69, 57
4, 123168, Note_on_c, 3, 69, 0
4, 123168, Note_on_c, 3, 65, 62
4, 123262, Note_on_c, 3, 65, 0
4, 123264, Note_on_c, 3, 67, 63
4, 123408, Note_on_c, 3, 67, 0
4, 123408, Note_on_c, 3, 64, 65
4, 123454, Note_on_c, 3, 64, 0
4, 123456, Note_on_c, 3, 65, 65
4, 123480, Note_on_c, 3, 65, 0
4, 123480, Note_on_c, 3, 64, 65
4, 123504, Note_on_c, 3, 64, 0
4, 123504, Note_on_c, 3, 65, 65
4, 123528, Note_on_c, 3, 65, 0
4, 123528, Note_on_c, 3, 64, 65
4, 123552, Note_on_c, 3, 64, 0
4, 123552, Note_on_c, 3, 65, 65
4, 123576, Note_on_c, 3, 65, 0
4, 123576, Note_on_c, 3, 64, 65
4, 123600, Note_on_c, 3, 64, 0
4, 123600, Note_on_c, 3, 62, 65
4, 123624, Note_on_c, 3, 62, 0
4, 123624, Note_on_c, 3, 64, 65
4, 123646, Note_on_c, 3, 64, 0
4, 123648, Note_on_c, 3, 53, 65
4, 123904, Note_on_c, 3, 53, 0
4, 123936, Note_on_c, 3, 53, 71
4, 124030, Note_on_c, 3, 53, 0
4, 124032, Note_on_c, 3, 53, 73
4, 124288, Note_on_c, 3, 53, 0
4, 124320, Note_on_c, 3, 53, 80
4, 124414, Note_on_c, 3, 53, 0
4, 124416, Note_on_c, 3, 53, 82
4, 124672, Note_on_c, 3, 53, 0
4, 124704, Note_on_c, 3, 53, 89
4, 124798, Note_on_c, 3, 53, 0
4, 124800, Note_on_c, 3, 53, 92
4, 125056, Note_on_c, 3, 53, 0
4, 125088, Note_on_c, 3, 53, 92
4, 125182, Note_on_c, 3, 53, 0
4, 125184, Note_on_c, 3, 53, 45
4, 125278, Note_on_c, 3, 53, 0
4, 125568, Note_on_c, 3, 65, 45
4, 125600, Note_on_c, 3, 65, 0
4, 125664, Note_on_c, 3, 65, 45
4, 125696, Note_on_c, 3, 65, 0
4, 125760, Note_on_c, 3, 65, 45
4, 125792, Note_on_c, 3, 65, 0
4, 126336, Note_on_c, 3, 65, 45
4, 126368, Note_on_c, 3, 65, 0
4, 126432, Note_on_c, 3, 65, 45
4, 126464, Note_on_c, 3, 65, 0
4, 126528, Note_on_c, 3, 65, 45
4, 126560, Note_on_c, 3, 65, 0
4, 127296, Note_on_c, 3, 67, 45
4, 127328, Note_on_c, 3, 67, 0
4, 127392, Note_on_c, 3, 67, 45
4, 127424, Note_on_c, 3, 67, 0
4, 127488, Note_on_c, 3, 70, 45
4, 127582, Note_on_c, 3, 70, 0
4, 127872, Note_on_c, 3, 67, 30
4, 127904, Note_on_c, 3, 67, 0
4, 127968, Note_on_c, 3, 67, 30
4, 128000, Note_on_c, 3, 67, 0
4, 128064, Note_on_c, 3, 67, 30
4, 128096, Note_on_c, 3, 67, 0
4, 128160, Note_on_c, 3, 67, 30
4, 128192, Note_on_c, 3, 67, 0
4, 128256, Note_on_c, 3, 67, 30
4, 128288, Note_on_c, 3, 67, 0
4, 128352, Note_on_c, 3, 67, 30
4, 128384, Note_on_c, 3, 67, 0
4, 128448, Note_on_c, 3, 67, 30
4, 128480, Note_on_c, 3, 67, 0
4, 128544, Note_on_c, 3, 67, 30
4, 128576, Note_on_c, 3, 67, 0
4, 128640, Note_on_c, 3, 66, 30
4, 128734, Note_on_c, 3, 66, 0
4, 128736, Note_on_c, 3, 66, 30
4, 128830, Note_on_c, 3, 66, 0
4, 128832, Note_on_c, 3, 66, 30
4, 128926, Note_on_c, 3, 66, 0
4, 128928, Note_on_c, 3, 66, 30
4, 129022, Note_on_c, 3, 66, 0
4, 129024, Note_on_c, 3, 66, 30
4, 129118, Note_on_c, 3, 66, 0
4, 129120, Note_on_c, 3, 66, 30
4, 129214, Note_on_c, 3, 66, 0
4, 129216, Note_on_c, 3, 66, 30
4, 129310, Note_on_c, 3, 66, 0
4, 129312, Note_on_c, 3, 66, 30
4, 129406, Note_on_c, 3, 66, 0
4, 129408, Note_on_c, 3, 65, 30
4, 129502, Note_on_c, 3, 65, 0
4, 129504, Note_on_c, 3, 65, 30
4, 129598, Note_on_c, 3, 65, 0
4, 129600, Note_on_c, 3, 65, 30
4, 129694, Note_on_c, 3, 65, 0
4, 129696, Note_on_c, 3, 65, 30
4, 129790, Note_on_c, 3, 65, 0
4, 129792, Note_on_c, 3, 65, 30
4, 129886, Note_on_c, 3, 65, 0
4, 129888, Note_on_c, 3, 65, 30
4, 129982, Note_on_c, 3, 65, 0
4, 129984, Note_on_c, 3, 65, 30
4, 130078, Note_on_c, 3, 65, 0
4, 130080, Note_on_c, 3, 65, 30
4, 130174, Note_on_c, 3, 65, 0
4, 130176, Note_on_c, 3, 65, 30
4, 130270, Note_on_c, 3, 65, 0
4, 130272, Note_on_c, 3, 65, 30
4, 130366, Note_on_c, 3, 65, 0
4, 130368, Note_on_c, 3, 65, 30
4, 130462, Note_on_c, 3, 65, 0
4, 130464, Note_on_c, 3, 65, 30
4, 130558, Note_on_c, 3, 65, 0
4, 130560, Note_on_c, 3, 65, 30
4, 130654, Note_on_c, 3, 65, 0
4, 130656, Note_on_c, 3, 65, 30
4, 130750, Note_on_c, 3, 65, 0
4, 130752, Note_on_c, 3, 65, 30
4, 130846, Note_on_c, 3, 65, 0
4, 130848, Note_on_c, 3, 65, 30
4, 130942, Note_on_c, 3, 65, 0
4, 130944, Note_on_c, 3, 64, 30
4, 131038, Note_on_c, 3, 64, 0
4, 131040, Note_on_c, 3, 64, 30
4, 131134, Note_on_c, 3, 64, 0
4, 131136, Note_on_c, 3, 64, 30
4, 131230, Note_on_c, 3, 64, 0
4, 131232, Note_on_c, 3, 64, 30
4, 131326, Note_on_c, 3, 64, 0
4, 131328, Note_on_c, 3, 64, 30
4, 131422, Note_on_c, 3, 64, 0
4, 131424, Note_on_c, 3, 64, 30
4, 131518, Note_on_c, 3, 64, 0
4, 131520, Note_on_c, 3, 64, 30
4, 131614, Note_on_c, 3, 64, 0
4, 131616, Note_on_c, 3, 64, 30
4, 131710, Note_on_c, 3, 64, 0
4, 131712, Note_on_c, 3, 64, 30
4, 131806, Note_on_c, 3, 64, 0
4, 131808, Note_on_c, 3, 64, 35
4, 131902, Note_on_c, 3, 64, 0
4, 131904, Note_on_c, 3, 64, 40
4, 131998, Note_on_c, 3, 64, 0
4, 132000, Note_on_c, 3, 64, 45
4, 132094, Note_on_c, 3, 64, 0
4, 132096, Note_on_c, 3, 64, 51
4, 132190, Note_on_c, 3, 64, 0
4, 132192, Note_on_c, 3, 64, 57
4, 132286, Note_on_c, 3, 64, 0
4, 132288, Note_on_c, 3, 67, 63
4, 132382, Note_on_c, 3, 67, 0
4, 132384, Note_on_c, 3, 60, 69
4, 132478, Note_on_c, 3, 60, 0
4, 132480, Note_on_c, 3, 65, 45
4, 132512, Note_on_c, 3, 65, 0
4, 132512, Note_on_c, 3, 64, 45
4, 132544, Note_on_c, 3, 64, 0
4, 132544, Note_on_c, 3, 65, 45
4, 132576, Note_on_c, 3, 65, 0
4, 132576, Note_on_c, 3, 67, 45
4, 132608, Note_on_c, 3, 67, 0
4, 132608, Note_on_c, 3, 65, 45
4, 132640, Note_on_c, 3, 65, 0
4, 132640, Note_on_c, 3, 64, 45
4, 132672, Note_on_c, 3, 64, 0
4, 132672, Note_on_c, 3, 62, 45
4, 132704, Note_on_c, 3, 62, 0
4, 132704, Note_on_c, 3, 60, 45
4, 132736, Note_on_c, 3, 60, 0
4, 132736, Note_on_c, 3, 58, 45
4, 132768, Note_on_c, 3, 58, 0
4, 132768, Note_on_c, 3, 57, 45
4, 132800, Note_on_c, 3, 57, 0
4, 132800, Note_on_c, 3, 55, 45
4, 132832, Note_on_c, 3, 55, 0
4, 132832, Note_on_c, 3, 53, 45
4, 132862, Note_on_c, 3, 53, 0
4, 132864, Note_on_c, 3, 52, 45
4, 132896, Note_on_c, 3, 52, 0
4, 132960, Note_on_c, 3, 52, 45
4, 132992, Note_on_c, 3, 52, 0
4, 133056, Note_on_c, 3, 55, 45
4, 133088, Note_on_c, 3, 55, 0
4, 133248, Note_on_c, 3, 67, 45
4, 133280, Note_on_c, 3, 67, 0
4, 133280, Note_on_c, 3, 66, 45
4, 133312, Note_on_c, 3, 66, 0
4, 133312, Note_on_c, 3, 67, 45
4, 133344, Note_on_c, 3, 67, 0
4, 133344, Note_on_c, 3, 69, 45
4, 133376, Note_on_c, 3, 69, 0
4, 133376, Note_on_c, 3, 67, 45
4, 133408, Note_on_c, 3, 67, 0
4, 133408, Note_on_c, 3, 65, 45
4, 133440, Note_on_c, 3, 65, 0
4, 133440, Note_on_c, 3, 64, 45
4, 133472, Note_on_c, 3, 64, 0
4, 133472, Note_on_c, 3, 62, 45
4, 133504, Note_on_c, 3, 62, 0
4, 133504, Note_on_c, 3, 60, 45
4, 133536, Note_on_c, 3, 60, 0
4, 133536, Note_on_c, 3, 58, 45
4, 133568, Note_on_c, 3, 58, 0
4, 133568, Note_on_c, 3, 57, 45
4, 133600, Note_on_c, 3, 57, 0
4, 133600, Note_on_c, 3, 55, 45
4, 133630, Note_on_c, 3, 55, 0
4, 133632, Note_on_c, 3, 53, 45
4, 133664, Note_on_c, 3, 53, 0
4, 133728, Note_on_c, 3, 53, 45
4, 133760, Note_on_c, 3, 53, 0
4, 133824, Note_on_c, 3, 57, 45
4, 133856, Note_on_c, 3, 57, 0
4, 134016, Note_on_c, 3, 69, 45
4, 134400, Note_on_c, 3, 69, 0
4, 134400, Note_on_c, 3, 70, 45
4, 134656, Note_on_c, 3, 70, 0
4, 134688, Note_on_c, 3, 67, 45
4, 134782, Note_on_c, 3, 67, 0
4, 134784, Note_on_c, 3, 64, 45
4, 134816, Note_on_c, 3, 64, 0
4, 134880, Note_on_c, 3, 60, 45
4, 134912, Note_on_c, 3, 60, 0
4, 134976, Note_on_c, 3, 72, 63
4, 135200, Note_on_c, 3, 72, 0
4, 135264, Note_on_c, 3, 69, 45
4, 135296, Note_on_c, 3, 69, 0
4, 135360, Note_on_c, 3, 72, 45
4, 135392, Note_on_c, 3, 72, 0
4, 135456, Note_on_c, 3, 69, 45
4, 135488, Note_on_c, 3, 69, 0
4, 135552, Note_on_c, 3, 65, 45
4, 135646, Note_on_c, 3, 65, 0
4, 135648, Note_on_c, 3, 48, 47
4, 135648, Note_on_c, 3, 60, 47
4, 135742, Note_on_c, 3, 60, 0
4, 135742, Note_on_c, 3, 48, 0
4, 135744, Note_on_c, 3, 48, 50
4, 135744, Note_on_c, 3, 60, 50
4, 135838, Note_on_c, 3, 60, 0
4, 135838, Note_on_c, 3, 48, 0
4, 135840, Note_on_c, 3, 48, 53
4, 135840, Note_on_c, 3, 60, 53
4, 135934, Note_on_c, 3, 60, 0
4, 135934, Note_on_c, 3, 48, 0
4, 135936, Note_on_c, 3, 48, 56
4, 135936, Note_on_c, 3, 60, 56
4, 136030, Note_on_c, 3, 60, 0
4, 136030, Note_on_c, 3, 48, 0
4, 136032, Note_on_c, 3, 48, 59
4, 136032, Note_on_c, 3, 60, 59
4, 136126, Note_on_c, 3, 60, 0
4, 136126, Note_on_c, 3, 48, 0
4, 136128, Note_on_c, 3, 48, 62
4, 136128, Note_on_c, 3, 60, 62
4, 136222, Note_on_c, 3, 60, 0
4, 136222, Note_on_c, 3, 48, 0
4, 136224, Note_on_c, 3, 48, 65
4, 136224, Note_on_c, 3, 60, 65
4, 136318, Note_on_c, 3, 60, 0
4, 136318, Note_on_c, 3, 48, 0
4, 136320, Note_on_c, 3, 48, 68
4, 136320, Note_on_c, 3, 60, 68
4, 136414, Note_on_c, 3, 60, 0
4, 136414, Note_on_c, 3, 48, 0
4, 136416, Note_on_c, 3, 48, 71
4, 136510, Note_on_c, 3, 48, 0
4, 136512, Note_on_c, 3, 48, 74
4, 136512, Note_on_c, 3, 60, 74
4, 136606, Note_on_c, 3, 60, 0
4, 136606, Note_on_c, 3, 48, 0
4, 136608, Note_on_c, 3, 48, 77
4, 136608, Note_on_c, 3, 60, 77
4, 136702, Note_on_c, 3, 60, 0
4, 136702, Note_on_c, 3, 48, 0
4, 136704, Note_on_c, 3, 48, 80
4, 136704, Note_on_c, 3, 60, 80
4, 136798, Note_on_c, 3, 60, 0
4, 136798, Note_on_c, 3, 48, 0
4, 136800, Note_on_c, 3, 53, 83
4, 136832, Note_on_c, 3, 53, 0
4, 136896, Note_on_c, 3, 57, 86
4, 136928, Note_on_c, 3, 57, 0
4, 136992, Note_on_c, 3, 60, 89
4, 137024, Note_on_c, 3, 60, 0
4, 137088, Note_on_c, 3, 60, 92
4, 137424, Note_on_c, 3, 60, 0
4, 137472, Note_on_c, 3, 58, 92
4, 137808, Note_on_c, 3, 58, 0
4, 137856, Note_on_c, 3, 67, 92
4, 137888, Note_on_c, 3, 67, 0
4, 137888, Note_on_c, 3, 66, 92
4, 137920, Note_on_c, 3, 66, 0
4, 137920, Note_on_c, 3, 67, 92
4, 137952, Note_on_c, 3, 67, 0
4, 137952, Note_on_c, 3, 69, 92
4, 137984, Note_on_c, 3, 69, 0
4, 137984, Note_on_c, 3, 67, 92
4, 138016, Note_on_c, 3, 67, 0
4, 138016, Note_on_c, 3, 65, 92
4, 138048, Note_on_c, 3, 65, 0
4, 138048, Note_on_c, 3, 64, 92
4, 138080, Note_on_c, 3, 64, 0
4, 138080, Note_on_c, 3, 62, 92
4, 138112, Note_on_c, 3, 62, 0
4, 138112, Note_on_c, 3, 60, 92
4, 138144, Note_on_c, 3, 60, 0
4, 138144, Note_on_c, 3, 58, 92
4, 138176, Note_on_c, 3, 58, 0
4, 138176, Note_on_c, 3, 57, 92
4, 138208, Note_on_c, 3, 57, 0
4, 138208, Note_on_c, 3, 55, 92
4, 138238, Note_on_c, 3, 55, 0
4, 138240, Note_on_c, 3, 53, 92
4, 138272, Note_on_c, 3, 53, 0
4, 138336, Note_on_c, 3, 53, 108
4, 138368, Note_on_c, 3, 53, 0
4, 138432, Note_on_c, 3, 57, 92
4, 138464, Note_on_c, 3, 57, 0
4, 138528, Note_on_c, 3, 60, 92
4, 138560, Note_on_c, 3, 60, 0
4, 138624, Note_on_c, 3, 63, 92
4, 138656, Note_on_c, 3, 63, 0
4, 138656, Note_on_c, 3, 62, 92
4, 138688, Note_on_c, 3, 62, 0
4, 138688, Note_on_c, 3, 63, 92
4, 138720, Note_on_c, 3, 63, 0
4, 138720, Note_on_c, 3, 65, 92
4, 138752, Note_on_c, 3, 65, 0
4, 138752, Note_on_c, 3, 63, 92
4, 138784, Note_on_c, 3, 63, 0
4, 138784, Note_on_c, 3, 62, 92
4, 138816, Note_on_c, 3, 62, 0
4, 138816, Note_on_c, 3, 60, 92
4, 138848, Note_on_c, 3, 60, 0
4, 138848, Note_on_c, 3, 58, 92
4, 138880, Note_on_c, 3, 58, 0
4, 138880, Note_on_c, 3, 57, 92
4, 138912, Note_on_c, 3, 57, 0
4, 138912, Note_on_c, 3, 55, 92
4, 138944, Note_on_c, 3, 55, 0
4, 138944, Note_on_c, 3, 53, 92
4, 138976, Note_on_c, 3, 53, 0
4, 138976, Note_on_c, 3, 51, 92
4, 139006, Note_on_c, 3, 51, 0
4, 139008, Note_on_c, 3, 50, 92
4, 139040, Note_on_c, 3, 50, 0
4, 139104, Note_on_c, 3, 50, 92
4, 139136, Note_on_c, 3, 50, 0
4, 139200, Note_on_c, 3, 62, 92
4, 139232, Note_on_c, 3, 62, 0
4, 139392, Note_on_c, 3, 58, 92
4, 139424, Note_on_c, 3, 58, 0
4, 139488, Note_on_c, 3, 58, 92
4, 139520, Note_on_c, 3, 58, 0
4, 139584, Note_on_c, 3, 64, 92
4, 139616, Note_on_c, 3, 64, 0
4, 139680, Note_on_c, 3, 64, 92
4, 139712, Note_on_c, 3, 64, 0
4, 139776, Note_on_c, 3, 65, 92
4, 139870, Note_on_c, 3, 65, 0
4, 140064, Note_on_c, 3, 60, 45
4, 140254, Note_on_c, 3, 60, 0
4, 140256, Note_on_c, 3, 60, 45
4, 140288, Note_on_c, 3, 60, 0
4, 140448, Note_on_c, 3, 60, 45
4, 140638, Note_on_c, 3, 60, 0
4, 140640, Note_on_c, 3, 65, 45
4, 140672, Note_on_c, 3, 65, 0
4, 140832, Note_on_c, 3, 60, 45
4, 140926, Note_on_c, 3, 60, 0
4, 140928, Note_on_c, 3, 57, 45
4, 140976, Note_on_c, 3, 57, 0
4, 140976, Note_on_c, 3, 53, 45
4, 141022, Note_on_c, 3, 53, 0
4, 141024, Note_on_c, 3, 57, 45
4, 141056, Note_on_c, 3, 57, 0
4, 141072, Note_on_c, 3, 57, 45
4, 141104, Note_on_c, 3, 57, 0
4, 141120, Note_on_c, 3, 58, 45
4, 141168, Note_on_c, 3, 58, 0
4, 141168, Note_on_c, 3, 55, 45
4, 141214, Note_on_c, 3, 55, 0
4, 141216, Note_on_c, 3, 58, 45
4, 141248, Note_on_c, 3, 58, 0
4, 141264, Note_on_c, 3, 58, 45
4, 141296, Note_on_c, 3, 58, 0
4, 141312, Note_on_c, 3, 57, 45
4, 141360, Note_on_c, 3, 57, 0
4, 141360, Note_on_c, 3, 53, 45
4, 141406, Note_on_c, 3, 53, 0
4, 141408, Note_on_c, 3, 60, 45
4, 141440, Note_on_c, 3, 60, 0
4, 141456, Note_on_c, 3, 60, 45
4, 141488, Note_on_c, 3, 60, 0
4, 141504, Note_on_c, 3, 62, 45
4, 141552, Note_on_c, 3, 62, 0
4, 141552, Note_on_c, 3, 58, 45
4, 141598, Note_on_c, 3, 58, 0
4, 141600, Note_on_c, 3, 62, 45
4, 141632, Note_on_c, 3, 62, 0
4, 141648, Note_on_c, 3, 62, 45
4, 141680, Note_on_c, 3, 62, 0
4, 141696, Note_on_c, 3, 63, 45
4, 141744, Note_on_c, 3, 63, 0
4, 141744, Note_on_c, 3, 60, 45
4, 141790, Note_on_c, 3, 60, 0
4, 141792, Note_on_c, 3, 63, 45
4, 141824, Note_on_c, 3, 63, 0
4, 141840, Note_on_c, 3, 63, 45
4, 141872, Note_on_c, 3, 63, 0
4, 141888, Note_on_c, 3, 62, 45
4, 141936, Note_on_c, 3, 62, 0
4, 141936, Note_on_c, 3, 58, 45
4, 141982, Note_on_c, 3, 58, 0
4, 141984, Note_on_c, 3, 62, 45
4, 142016, Note_on_c, 3, 62, 0
4, 142032, Note_on_c, 3, 62, 45
4, 142064, Note_on_c, 3, 62, 0
4, 142080, Note_on_c, 3, 64, 45
4, 142128, Note_on_c, 3, 64, 0
4, 142128, Note_on_c, 3, 58, 45
4, 142174, Note_on_c, 3, 58, 0
4, 142176, Note_on_c, 3, 64, 45
4, 142208, Note_on_c, 3, 64, 0
4, 142224, Note_on_c, 3, 64, 45
4, 142256, Note_on_c, 3, 64, 0
4, 142272, Note_on_c, 3, 65, 45
4, 142320, Note_on_c, 3, 65, 0
4, 142320, Note_on_c, 3, 60, 45
4, 142366, Note_on_c, 3, 60, 0
4, 142368, Note_on_c, 3, 65, 45
4, 142400, Note_on_c, 3, 65, 0
4, 142416, Note_on_c, 3, 65, 45
4, 142448, Note_on_c, 3, 65, 0
4, 142464, Note_on_c, 3, 65, 45
4, 142512, Note_on_c, 3, 65, 0
4, 142512, Note_on_c, 3, 62, 45
4, 142558, Note_on_c, 3, 62, 0
4, 142560, Note_on_c, 3, 65, 45
4, 142592, Note_on_c, 3, 65, 0
4, 142608, Note_on_c, 3, 65, 46
4, 142640, Note_on_c, 3, 65, 0
4, 142656, Note_on_c, 3, 65, 47
4, 142704, Note_on_c, 3, 65, 0
4, 142704, Note_on_c, 3, 62, 48
4, 142750, Note_on_c, 3, 62, 0
4, 142752, Note_on_c, 3, 65, 49
4, 142784, Note_on_c, 3, 65, 0
4, 142800, Note_on_c, 3, 65, 50
4, 142832, Note_on_c, 3, 65, 0
4, 142848, Note_on_c, 3, 65, 51
4, 142896, Note_on_c, 3, 65, 0
4, 142896, Note_on_c, 3, 60, 52
4, 142942, Note_on_c, 3, 60, 0
4, 142944, Note_on_c, 3, 65, 53
4, 142976, Note_on_c, 3, 65, 0
4, 142992, Note_on_c, 3, 65, 54
4, 143024, Note_on_c, 3, 65, 0
4, 143040, Note_on_c, 3, 67, 55
4, 143088, Note_on_c, 3, 67, 0
4, 143088, Note_on_c, 3, 60, 56
4, 143134, Note_on_c, 3, 60, 0
4, 143136, Note_on_c, 3, 67, 57
4, 143168, Note_on_c, 3, 67, 0
4, 143184, Note_on_c, 3, 67, 58
4, 143216, Note_on_c, 3, 67, 0
4, 143232, Note_on_c, 3, 65, 59
4, 143326, Note_on_c, 3, 65, 0
4, 143616, Note_on_c, 3, 53, 67
4, 143637, Note_on_c, 3, 53, 0
4, 143648, Note_on_c, 3, 65, 67
4, 143680, Note_on_c, 3, 65, 0
4, 143680, Note_on_c, 3, 64, 67
4, 143712, Note_on_c, 3, 64, 0
4, 143712, Note_on_c, 3, 62, 67
4, 143744, Note_on_c, 3, 62, 0
4, 143744, Note_on_c, 3, 60, 67
4, 143776, Note_on_c, 3, 60, 0
4, 143776, Note_on_c, 3, 59, 67
4, 143808, Note_on_c, 3, 59, 0
4, 143808, Note_on_c, 3, 60, 67
4, 143840, Note_on_c, 3, 60, 0
4, 143840, Note_on_c, 3, 62, 67
4, 143872, Note_on_c, 3, 62, 0
4, 143872, Note_on_c, 3, 60, 67
4, 143904, Note_on_c, 3, 60, 0
4, 143904, Note_on_c, 3, 58, 67
4, 143936, Note_on_c, 3, 58, 0
4, 143936, Note_on_c, 3, 57, 67
4, 143968, Note_on_c, 3, 57, 0
4, 143968, Note_on_c, 3, 55, 67
4, 143998, Note_on_c, 3, 55, 0
4, 144000, Note_on_c, 3, 53, 67
4, 144094, Note_on_c, 3, 53, 0
4, 144384, Note_on_c, 3, 53, 79
4, 144405, Note_on_c, 3, 53, 0
4, 144416, Note_on_c, 3, 65, 80
4, 144448, Note_on_c, 3, 65, 0
4, 144448, Note_on_c, 3, 64, 81
4, 144480, Note_on_c, 3, 64, 0
4, 144480, Note_on_c, 3, 62, 82
4, 144512, Note_on_c, 3, 62, 0
4, 144512, Note_on_c, 3, 60, 83
4, 144544, Note_on_c, 3, 60, 0
4, 144544, Note_on_c, 3, 59, 84
4, 144576, Note_on_c, 3, 59, 0
4, 144576, Note_on_c, 3, 60, 85
4, 144608, Note_on_c, 3, 60, 0
4, 144608, Note_on_c, 3, 62, 86
4, 144640, Note_on_c, 3, 62, 0
4, 144640, Note_on_c, 3, 60, 87
4, 144672, Note_on_c, 3, 60, 0
4, 144672, Note_on_c, 3, 58, 88
4, 144704, Note_on_c, 3, 58, 0
4, 144704, Note_on_c, 3, 57, 89
4, 144736, Note_on_c, 3, 57, 0
4, 144736, Note_on_c, 3, 55, 90
4, 144766, Note_on_c, 3, 55, 0
4, 144768, Note_on_c, 3, 53, 92
4, 144790, Note_on_c, 3, 53, 0
4, 144800, Note_on_c, 3, 65, 92
4, 144832, Note_on_c, 3, 65, 0
4, 144832, Note_on_c, 3, 64, 92
4, 144864, Note_on_c, 3, 64, 0
4, 144864, Note_on_c, 3, 62, 92
4, 144896, Note_on_c, 3, 62, 0
4, 144896, Note_on_c, 3, 60, 92
4, 144928, Note_on_c, 3, 60, 0
4, 144928, Note_on_c, 3, 59, 92
4, 144960, Note_on_c, 3, 59, 0
4, 144960, Note_on_c, 3, 60, 92
4, 144992, Note_on_c, 3, 60, 0
4, 144992, Note_on_c, 3, 62, 92
4, 145024, Note_on_c, 3, 62, 0
4, 145024, Note_on_c, 3, 60, 92
4, 145056, Note_on_c, 3, 60, 0
4, 145056, Note_on_c, 3, 58, 92
4, 145088, Note_on_c, 3, 58, 0
4, 145088, Note_on_c, 3, 57, 92
4, 145120, Note_on_c, 3, 57, 0
4, 145120, Note_on_c, 3, 55, 92
4, 145150, Note_on_c, 3, 55, 0
4, 145152, Note_on_c, 3, 53, 92
4, 145173, Note_on_c, 3, 53, 0
4, 145184, Note_on_c, 3, 65, 92
4, 145216, Note_on_c, 3, 65, 0
4, 145216, Note_on_c, 3, 64, 92
4, 145248, Note_on_c, 3, 64, 0
4, 145248, Note_on_c, 3, 62, 92
4, 145280, Note_on_c, 3, 62, 0
4, 145280, Note_on_c, 3, 60, 92
4, 145312, Note_on_c, 3, 60, 0
4, 145312, Note_on_c, 3, 59, 92
4, 145344, Note_on_c, 3, 59, 0
4, 145344, Note_on_c, 3, 60, 92
4, 145376, Note_on_c, 3, 60, 0
4, 145376, Note_on_c, 3, 62, 92
4, 145408, Note_on_c, 3, 62, 0
4, 145408, Note_on_c, 3, 60, 92
4, 145440, Note_on_c, 3, 60, 0
4, 145440, Note_on_c, 3, 58, 92
4, 145472, Note_on_c, 3, 58, 0
4, 145472, Note_on_c, 3, 57, 92
4, 145504, Note_on_c, 3, 57, 0
4, 145504, Note_on_c, 3, 55, 92
4, 145534, Note_on_c, 3, 55, 0
4, 145536, Note_on_c, 3, 57, 92
4, 145696, Note_on_c, 3, 57, 0
4, 145728, Note_on_c, 3, 48, 108
4, 145888, Note_on_c, 3, 48, 0
4, 145920, Note_on_c, 3, 53, 108
4, 146080, Note_on_c, 3, 53, 0
4, 146080, End_track
5, 0, Start_track
5, 0, Title_t, "Violoncello."
5, 0, Program_c, 4, 48
5, 0, Control_c, 4, 7, 127
5, 0, Control_c, 4, 10, 64
5, 384, Note_on_c, 4, 43, 45
5, 416, Note_on_c, 4, 43, 0
5, 480, Note_on_c, 4, 43, 45
5, 512, Note_on_c, 4, 43, 0
5, 576, Note_on_c, 4, 40, 45
5, 608, Note_on_c, 4, 40, 0
5, 1152, Note_on_c, 4, 45, 45
5, 1184, Note_on_c, 4, 45, 0
5, 1248, Note_on_c, 4, 45, 45
5, 1280, Note_on_c, 4, 45, 0
5, 1344, Note_on_c, 4, 41, 45
5, 1376, Note_on_c, 4, 41, 0
5, 1632, Note_on_c, 4, 52, 45
5, 1728, Note_on_c, 4, 52, 0
5, 1728, Note_on_c, 4, 53, 45
5, 1822, Note_on_c, 4, 53, 0
5, 1824, Note_on_c, 4, 41, 45
5, 1856, Note_on_c, 4, 41, 0
5, 2016, Note_on_c, 4, 52, 45
5, 2112, Note_on_c, 4, 52, 0
5, 2112, Note_on_c, 4, 53, 45
5, 2206, Note_on_c, 4, 53, 0
5, 2208, Note_on_c, 4, 41, 45
5, 2240, Note_on_c, 4, 41, 0
5, 2400, Note_on_c, 4, 52, 45
5, 2496, Note_on_c, 4, 52, 0
5, 2496, Note_on_c, 4, 53, 45
5, 2592, Note_on_c, 4, 53, 0
5, 2592, Note_on_c, 4, 54, 45
5, 2686, Note_on_c, 4, 54, 0
5, 2688, Note_on_c, 4, 55, 45
5, 2720, Note_on_c, 4, 55, 0
5, 2784, Note_on_c, 4, 43, 45
5, 2816, Note_on_c, 4, 43, 0
5, 2880, Note_on_c, 4, 48, 45
5, 2912, Note_on_c, 4, 48, 0
5, 3456, Note_on_c, 4, 43, 45
5, 3488, Note_on_c, 4, 43, 0
5, 3552, Note_on_c, 4, 43, 45
5, 3584, Note_on_c, 4, 43, 0
5, 3648, Note_on_c, 4, 40, 45
5, 3680, Note_on_c, 4, 40, 0
5, 4224, Note_on_c, 4, 45, 45
5, 4256, Note_on_c, 4, 45, 0
5, 4320, Note_on_c, 4, 45, 45
5, 4352, Note_on_c, 4, 45, 0
5, 4416, Note_on_c, 4, 41, 45
5, 4448, Note_on_c, 4, 41, 0
5, 4704, Note_on_c, 4, 52, 45
5, 4800, Note_on_c, 4, 52, 0
5, 4800, Note_on_c, 4, 53, 45
5, 4894, Note_on_c, 4, 53, 0
5, 4896, Note_on_c, 4, 41, 45
5, 4928, Note_on_c, 4, 41, 0
5, 5088, Note_on_c, 4, 52, 45
5, 5184, Note_on_c, 4, 52, 0
5, 5184, Note_on_c, 4, 53, 45
5, 5278, Note_on_c, 4, 53, 0
5, 5280, Note_on_c, 4, 41, 45
5, 5312, Note_on_c, 4, 41, 0
5, 5472, Note_on_c, 4, 52, 45
5, 5568, Note_on_c, 4, 52, 0
5, 5568, Note_on_c, 4, 53, 51
5, 5662, Note_on_c, 4, 53, 0
5, 5664, Note_on_c, 4, 54, 57
5, 5696, Note_on_c, 4, 54, 0
5, 5760, Note_on_c, 4, 55, 64
5, 5792, Note_on_c, 4, 55, 0
5, 5856, Note_on_c, 4, 49, 71
5, 5888, Note_on_c, 4, 49, 0
5, 5952, Note_on_c, 4, 50, 78
5, 5984, Note_on_c, 4, 50, 0
5, 6048, Note_on_c, 4, 47, 85
5, 6080, Note_on_c, 4, 47, 0
5, 6144, Note_on_c, 4, 48, 92
5, 6304, Note_on_c, 4, 48, 0
5, 6336, Note_on_c, 4, 36, 92
5, 6496, Note_on_c, 4, 36, 0
5, 6528, Note_on_c, 4, 41, 92
5, 6688, Note_on_c, 4, 41, 0
5, 8064, Note_on_c, 4, 52, 45
5, 8112, Note_on_c, 4, 52, 0
5, 8112, Note_on_c, 4, 53, 45
5, 8160, Note_on_c, 4, 53, 0
5, 8160, Note_on_c, 4, 52, 45
5, 8208, Note_on_c, 4, 52, 0
5, 8208, Note_on_c, 4, 53, 45
5, 8256, Note_on_c, 4, 53, 0
5, 8256, Note_on_c, 4, 52, 45
5, 8304, Note_on_c, 4, 52, 0
5, 8304, Note_on_c, 4, 53, 45
5, 8352, Note_on_c, 4, 53, 0
5, 8352, Note_on_c, 4, 48, 45
5, 8400, Note_on_c, 4, 48, 0
5, 8400, Note_on_c, 4, 45, 45
5, 8446, Note_on_c, 4, 45, 0
5, 8448, Note_on_c, 4, 41, 45
5, 8608, Note_on_c, 4, 41, 0
5, 9120, Note_on_c, 4, 53, 45
5, 9216, Note_on_c, 4, 53, 0
5, 9216, Note_on_c, 4, 52, 45
5, 9248, Note_on_c, 4, 52, 0
5, 9312, Note_on_c, 4, 48, 45
5, 9344, Note_on_c, 4, 48, 0
5, 9408, Note_on_c, 4, 52, 45
5, 9440, Note_on_c, 4, 52, 0
5, 9504, Note_on_c, 4, 48, 45
5, 9536, Note_on_c, 4, 48, 0
5, 9600, Note_on_c, 4, 53, 45
5, 9632, Note_on_c, 4, 53, 0
5, 9696, Note_on_c, 4, 41, 45
5, 9728, Note_on_c, 4, 41, 0
5, 9792, Note_on_c, 4, 53, 45
5, 9824, Note_on_c, 4, 53, 0
5, 9888, Note_on_c, 4, 57, 92
5, 9920, Note_on_c, 4, 57, 0
5, 9984, Note_on_c, 4, 45, 127
5, 10240, Note_on_c, 4, 45, 0
5, 10272, Note_on_c, 4, 45, 92
5, 10304, Note_on_c, 4, 45, 0
5, 10304, Note_on_c, 4, 47, 92
5, 10336, Note_on_c, 4, 47, 0
5, 10336, Note_on_c, 4, 49, 92
5, 10366, Note_on_c, 4, 49, 0
5, 10368, Note_on_c, 4, 50, 92
5, 10400, Note_on_c, 4, 50, 0
5, 10464, Note_on_c, 4, 52, 108
5, 10496, Note_on_c, 4, 52, 0
5, 10560, Note_on_c, 4, 53, 108
5, 10592, Note_on_c, 4, 53, 0
5, 10656, Note_on_c, 4, 55, 108
5, 10688, Note_on_c, 4, 55, 0
5, 10752, Note_on_c, 4, 57, 108
5, 10784, Note_on_c, 4, 57, 0
5, 10848, Note_on_c, 4, 59, 108
5, 10880, Note_on_c, 4, 59, 0
5, 10944, Note_on_c, 4, 60, 108
5, 10976, Note_on_c, 4, 60, 0
5, 11040, Note_on_c, 4, 61, 108
5, 11072, Note_on_c, 4, 61, 0
5, 11136, Note_on_c, 4, 62, 108
5, 11168, Note_on_c, 4, 62, 0
5, 11232, Note_on_c, 4, 64, 108
5, 11264, Note_on_c, 4, 64, 0
5, 11328, Note_on_c, 4, 62, 108
5, 11352, Note_on_c, 4, 62, 0
5, 11352, Note_on_c, 4, 64, 108
5, 11376, Note_on_c, 4, 64, 0
5, 11376, Note_on_c, 4, 65, 108
5, 11616, Note_on_c, 4, 65, 0
5, 11616, Note_on_c, 4, 64, 108
5, 11710, Note_on_c, 4, 64, 0
5, 11712, Note_on_c, 4, 62, 108
5, 11736, Note_on_c, 4, 62, 0
5, 11736, Note_on_c, 4, 64, 108
5, 11760, Note_on_c, 4, 64, 0
5, 11760, Note_on_c, 4, 62, 108
5, 11808, Note_on_c, 4, 62, 0
5, 11808, Note_on_c, 4, 60, 108
5, 11902, Note_on_c, 4, 60, 0
5, 11904, Note_on_c, 4, 58, 108
5, 11928, Note_on_c, 4, 58, 0
5, 11928, Note_on_c, 4, 60, 108
5, 11952, Note_on_c, 4, 60, 0
5, 11952, Note_on_c, 4, 58, 108
5, 12000, Note_on_c, 4, 58, 0
5, 12000, Note_on_c, 4, 57, 108
5, 12094, Note_on_c, 4, 57, 0
5, 12096, Note_on_c, 4, 55, 108
5, 12120, Note_on_c, 4, 55, 0
5, 12120, Note_on_c, 4, 57, 108
5, 12144, Note_on_c, 4, 57, 0
5, 12144, Note_on_c, 4, 55, 108
5, 12192, Note_on_c, 4, 55, 0
5, 12192, Note_on_c, 4, 53, 108
5, 12286, Note_on_c, 4, 53, 0
5, 12288, Note_on_c, 4, 52, 108
5, 12312, Note_on_c, 4, 52, 0
5, 12312, Note_on_c, 4, 53, 108
5, 12336, Note_on_c, 4, 53, 0
5, 12336, Note_on_c, 4, 52, 108
5, 12384, Note_on_c, 4, 52, 0
5, 12384, Note_on_c, 4, 50, 108
5, 12478, Note_on_c, 4, 50, 0
5, 12480, Note_on_c, 4, 57, 108
5, 12512, Note_on_c, 4, 57, 0
5, 12576, Note_on_c, 4, 45, 108
5, 12608, Note_on_c, 4, 45, 0
5, 12672, Note_on_c, 4, 50, 60
5, 12832, Note_on_c, 4, 50, 0
5, 13824, Note_on_c, 4, 61, 45
5, 13872, Note_on_c, 4, 61, 0
5, 13872, Note_on_c, 4, 62, 45
5, 13920, Note_on_c, 4, 62, 0
5, 13920, Note_on_c, 4, 61, 45
5, 13968, Note_on_c, 4, 61, 0
5, 13968, Note_on_c, 4, 62, 45
5, 14016, Note_on_c, 4, 62, 0
5, 14016, Note_on_c, 4, 61, 45
5, 14064, Note_on_c, 4, 61, 0
5, 14064, Note_on_c, 4, 62, 45
5, 14112, Note_on_c, 4, 62, 0
5, 14112, Note_on_c, 4, 57, 45
5, 14160, Note_on_c, 4, 57, 0
5, 14160, Note_on_c, 4, 53, 45
5, 14206, Note_on_c, 4, 53, 0
5, 14208, Note_on_c, 4, 50, 45
5, 14302, Note_on_c, 4, 50, 0
5, 14592, Note_on_c, 4, 47, 45
5, 14686, Note_on_c, 4, 47, 0
5, 14976, Note_on_c, 4, 56, 45
5, 15070, Note_on_c, 4, 56, 0
5, 15168, Note_on_c, 4, 52, 45
5, 15262, Note_on_c, 4, 52, 0
5, 15360, Note_on_c, 4, 45, 45
5, 15454, Note_on_c, 4, 45, 0
5, 15456, Note_on_c, 4, 57, 48
5, 15550, Note_on_c, 4, 57, 0
5, 15552, Note_on_c, 4, 43, 51
5, 15646, Note_on_c, 4, 43, 0
5, 15648, Note_on_c, 4, 55, 55
5, 15742, Note_on_c, 4, 55, 0
5, 15744, Note_on_c, 4, 42, 59
5, 15838, Note_on_c, 4, 42, 0
5, 15840, Note_on_c, 4, 54, 63
5, 15934, Note_on_c, 4, 54, 0
5, 15936, Note_on_c, 4, 38, 67
5, 16030, Note_on_c, 4, 38, 0
5, 16032, Note_on_c, 4, 50, 71
5, 16126, Note_on_c, 4, 50, 0
5, 16128, Note_on_c, 4, 43, 45
5, 16224, Note_on_c, 4, 43, 0
5, 16224, Note_on_c, 4, 38, 45
5, 16320, Note_on_c, 4, 38, 0
5, 16320, Note_on_c, 4, 42, 45
5, 16416, Note_on_c, 4, 42, 0
5, 16416, Note_on_c, 4, 43, 45
5, 16512, Note_on_c, 4, 43, 0
5, 16512, Note_on_c, 4, 45, 45
5, 16608, Note_on_c, 4, 45, 0
5, 16608, Note_on_c, 4, 38, 45
5, 16704, Note_on_c, 4, 38, 0
5, 16704, Note_on_c, 4, 44, 45
5, 16800, Note_on_c, 4, 44, 0
5, 16800, Note_on_c, 4, 45, 45
5, 16894, Note_on_c, 4, 45, 0
5, 16896, Note_on_c, 4, 47, 45
5, 16992, Note_on_c, 4, 47, 0
5, 16992, Note_on_c, 4, 38, 45
5, 17088, Note_on_c, 4, 38, 0
5, 17088, Note_on_c, 4, 45, 45
5, 17184, Note_on_c, 4, 45, 0
5, 17184, Note_on_c, 4, 47, 45
5, 17280, Note_on_c, 4, 47, 0
5, 17280, Note_on_c, 4, 48, 45
5, 17376, Note_on_c, 4, 48, 0
5, 17376, Note_on_c, 4, 38, 45
5, 17472, Note_on_c, 4, 38, 0
5, 17472, Note_on_c, 4, 40, 45
5, 17568, Note_on_c, 4, 40, 0
5, 17568, Note_on_c, 4, 42, 45
5, 17662, Note_on_c, 4, 42, 0
5, 17664, Note_on_c, 4, 43, 45
5, 17760, Note_on_c, 4, 43, 0
5, 17760, Note_on_c, 4, 38, 45
5, 17856, Note_on_c, 4, 38, 0
5, 17856, Note_on_c, 4, 42, 45
5, 17952, Note_on_c, 4, 42, 0
5, 17952, Note_on_c, 4, 43, 45
5, 18048, Note_on_c, 4, 43, 0
5, 18048, Note_on_c, 4, 45, 45
5, 18144, Note_on_c, 4, 45, 0
5, 18144, Note_on_c, 4, 38, 45
5, 18240, Note_on_c, 4, 38, 0
5, 18240, Note_on_c, 4, 44, 45
5, 18336, Note_on_c, 4, 44, 0
5, 18336, Note_on_c, 4, 45, 45
5, 18430, Note_on_c, 4, 45, 0
5, 18432, Note_on_c, 4, 47, 45
5, 18528, Note_on_c, 4, 47, 0
5, 18528, Note_on_c, 4, 43, 48
5, 18624, Note_on_c, 4, 43, 0
5, 18624, Note_on_c, 4, 47, 51
5, 18720, Note_on_c, 4, 47, 0
5, 18720, Note_on_c, 4, 50, 55
5, 18816, Note_on_c, 4, 50, 0
5, 18816, Note_on_c, 4, 55, 59
5, 18912, Note_on_c, 4, 55, 0
5, 18912, Note_on_c, 4, 43, 63
5, 19008, Note_on_c, 4, 43, 0
5, 19008, Note_on_c, 4, 45, 67
5, 19104, Note_on_c, 4, 45, 0
5, 19104, Note_on_c, 4, 47, 71
5, 19198, Note_on_c, 4, 47, 0
5, 19200, Note_on_c, 4, 48, 45
5, 19296, Note_on_c, 4, 48, 0
5, 19296, Note_on_c, 4, 43, 45
5, 19392, Note_on_c, 4, 43, 0
5, 19392, Note_on_c, 4, 47, 45
5, 19488, Note_on_c, 4, 47, 0
5, 19488, Note_on_c, 4, 48, 45
5, 19584, Note_on_c, 4, 48, 0
5, 19584, Note_on_c, 4, 50, 45
5, 19680, Note_on_c, 4, 50, 0
5, 19680, Note_on_c, 4, 43, 45
5, 19776, Note_on_c, 4, 43, 0
5, 19776, Note_on_c, 4, 48, 45
5, 19872, Note_on_c, 4, 48, 0
5, 19872, Note_on_c, 4, 50, 45
5, 19966, Note_on_c, 4, 50, 0
5, 19968, Note_on_c, 4, 52, 45
5, 20064, Note_on_c, 4, 52, 0
5, 20064, Note_on_c, 4, 43, 45
5, 20160, Note_on_c, 4, 43, 0
5, 20160, Note_on_c, 4, 50, 45
5, 20256, Note_on_c, 4, 50, 0
5, 20256, Note_on_c, 4, 52, 45
5, 20352, Note_on_c, 4, 52, 0
5, 20352, Note_on_c, 4, 53, 45
5, 20448, Note_on_c, 4, 53, 0
5, 20448, Note_on_c, 4, 43, 45
5, 20544, Note_on_c, 4, 43, 0
5, 20544, Note_on_c, 4, 45, 45
5, 20640, Note_on_c, 4, 45, 0
5, 20640, Note_on_c, 4, 47, 45
5, 20734, Note_on_c, 4, 47, 0
5, 20736, Note_on_c, 4, 48, 45
5, 20832, Note_on_c, 4, 48, 0
5, 20832, Note_on_c, 4, 43, 45
5, 20928, Note_on_c, 4, 43, 0
5, 20928, Note_on_c, 4, 47, 45
5, 21024, Note_on_c, 4, 47, 0
5, 21024, Note_on_c, 4, 48, 45
5, 21120, Note_on_c, 4, 48, 0
5, 21120, Note_on_c, 4, 50, 45
5, 21216, Note_on_c, 4, 50, 0
5, 21216, Note_on_c, 4, 43, 45
5, 21312, Note_on_c, 4, 43, 0
5, 21312, Note_on_c, 4, 49, 45
5, 21408, Note_on_c, 4, 49, 0
5, 21408, Note_on_c, 4, 50, 45
5, 21502, Note_on_c, 4, 50, 0
5, 21504, Note_on_c, 4, 52, 45
5, 21600, Note_on_c, 4, 52, 0
5, 21600, Note_on_c, 4, 43, 48
5, 21696, Note_on_c, 4, 43, 0
5, 21696, Note_on_c, 4, 50, 51
5, 21792, Note_on_c, 4, 50, 0
5, 21792, Note_on_c, 4, 52, 55
5, 21888, Note_on_c, 4, 52, 0
5, 21888, Note_on_c, 4, 53, 59
5, 21984, Note_on_c, 4, 53, 0
5, 21984, Note_on_c, 4, 43, 63
5, 22080, Note_on_c, 4, 43, 0
5, 22080, Note_on_c, 4, 45, 67
5, 22176, Note_on_c, 4, 45, 0
5, 22176, Note_on_c, 4, 47, 71
5, 22270, Note_on_c, 4, 47, 0
5, 22272, Note_on_c, 4, 48, 45
5, 22366, Note_on_c, 4, 48, 0
5, 23808, Note_on_c, 4, 53, 45
5, 23902, Note_on_c, 4, 53, 0
5, 24000, Note_on_c, 4, 53, 45
5, 24094, Note_on_c, 4, 53, 0
5, 24192, Note_on_c, 4, 55, 45
5, 24286, Note_on_c, 4, 55, 0
5, 24384, Note_on_c, 4, 43, 45
5, 24478, Note_on_c, 4, 43, 0
5, 24864, Note_on_c, 4, 47, 45
5, 24960, Note_on_c, 4, 47, 0
5, 24960, Note_on_c, 4, 48, 45
5, 25054, Note_on_c, 4, 48, 0
5, 25248, Note_on_c, 4, 44, 45
5, 25344, Note_on_c, 4, 44, 0
5, 25344, Note_on_c, 4, 45, 45
5, 25438, Note_on_c, 4, 45, 0
5, 25632, Note_on_c, 4, 52, 45
5, 25728, Note_on_c, 4, 52, 0
5, 25728, Note_on_c, 4, 53, 45
5, 25822, Note_on_c, 4, 53, 0
5, 26016, Note_on_c, 4, 49, 45
5, 26112, Note_on_c, 4, 49, 0
5, 26112, Note_on_c, 4, 50, 45
5, 26206, Note_on_c, 4, 50, 0
5, 26496, Note_on_c, 4, 43, 45
5, 26590, Note_on_c, 4, 43, 0
5, 26592, Note_on_c, 4, 55, 52
5, 26686, Note_on_c, 4, 55, 0
5, 26688, Note_on_c, 4, 55, 59
5, 26782, Note_on_c, 4, 55, 0
5, 26784, Note_on_c, 4, 55, 67
5, 26878, Note_on_c, 4, 55, 0
5, 26880, Note_on_c, 4, 48, 45
5, 26974, Note_on_c, 4, 48, 0
5, 26976, Note_on_c, 4, 60, 63
5, 27072, Note_on_c, 4, 60, 0
5, 27072, Note_on_c, 4, 62, 45
5, 27168, Note_on_c, 4, 62, 0
5, 27168, Note_on_c, 4, 65, 45
5, 27264, Note_on_c, 4, 65, 0
5, 27264, Note_on_c, 4, 64, 45
5, 27296, Note_on_c, 4, 64, 0
5, 27360, Note_on_c, 4, 60, 63
5, 27456, Note_on_c, 4, 60, 0
5, 27456, Note_on_c, 4, 62, 45
5, 27552, Note_on_c, 4, 62, 0
5, 27552, Note_on_c, 4, 65, 45
5, 27648, Note_on_c, 4, 65, 0
5, 27648, Note_on_c, 4, 64, 45
5, 27680, Note_on_c, 4, 64, 0
5, 27744, Note_on_c, 4, 60, 45
5, 27776, Note_on_c, 4, 60, 0
5, 27936, Note_on_c, 4, 53, 45
5, 28030, Note_on_c, 4, 53, 0
5, 28128, Note_on_c, 4, 55, 45
5, 28222, Note_on_c, 4, 55, 0
5, 28320, Note_on_c, 4, 43, 45
5, 28414, Note_on_c, 4, 43, 0
5, 28512, Note_on_c, 4, 48, 63
5, 28608, Note_on_c, 4, 48, 0
5, 28608, Note_on_c, 4, 50, 45
5, 28704, Note_on_c, 4, 50, 0
5, 28704, Note_on_c, 4, 43, 45
5, 28798, Note_on_c, 4, 43, 0
5, 28800, Note_on_c, 4, 51, 45
5, 28832, Note_on_c, 4, 51, 0
5, 28896, Note_on_c, 4, 48, 63
5, 28992, Note_on_c, 4, 48, 0
5, 28992, Note_on_c, 4, 50, 45
5, 29088, Note_on_c, 4, 50, 0
5, 29088, Note_on_c, 4, 43, 48
5, 29182, Note_on_c, 4, 43, 0
5, 29184, Note_on_c, 4, 51, 51
5, 29216, Note_on_c, 4, 51, 0
5, 29280, Note_on_c, 4, 48, 54
5, 29312, Note_on_c, 4, 48, 0
5, 29472, Note_on_c, 4, 41, 60
5, 29566, Note_on_c, 4, 41, 0
5, 29664, Note_on_c, 4, 43, 66
5, 29758, Note_on_c, 4, 43, 0
5, 29856, Note_on_c, 4, 43, 72
5, 29950, Note_on_c, 4, 43, 0
5, 29952, Note_on_c, 4, 48, 45
5, 30112, Note_on_c, 4, 48, 0
5, 30336, Note_on_c, 4, 43, 45
5, 30496, Note_on_c, 4, 43, 0
5, 30720, Note_on_c, 4, 36, 45
5, 30880, Note_on_c, 4, 36, 0
5, 31104, Note_on_c, 4, 43, 45
5, 31264, Note_on_c, 4, 43, 0
5, 31296, Note_on_c, 4, 43, 45
5, 31456, Note_on_c, 4, 43, 0
5, 31488, Note_on_c, 4, 36, 45
5, 31520, Note_on_c, 4, 36, 0
5, 31536, Note_on_c, 4, 43, 45
5, 31568, Note_on_c, 4, 43, 0
5, 31584, Note_on_c, 4, 48, 45
5, 31616, Note_on_c, 4, 48, 0
5, 31632, Note_on_c, 4, 43, 45
5, 31664, Note_on_c, 4, 43, 0
5, 31680, Note_on_c, 4, 48, 45
5, 31712, Note_on_c, 4, 48, 0
5, 31728, Note_on_c, 4, 43, 45
5, 31760, Note_on_c, 4, 43, 0
5, 31776, Note_on_c, 4, 48, 45
5, 31808, Note_on_c, 4, 48, 0
5, 31824, Note_on_c, 4, 43, 45
5, 31856, Note_on_c, 4, 43, 0
5, 31872, Note_on_c, 4, 47, 45
5, 31918, Note_on_c, 4, 47, 0
5, 31920, Note_on_c, 4, 43, 45
5, 31966, Note_on_c, 4, 43, 0
5, 31968, Note_on_c, 4, 47, 45
5, 32014, Note_on_c, 4, 47, 0
5, 32016, Note_on_c, 4, 43, 46
5, 32062, Note_on_c, 4, 43, 0
5, 32064, Note_on_c, 4, 47, 47
5, 32110, Note_on_c, 4, 47, 0
5, 32112, Note_on_c, 4, 43, 48
5, 32158, Note_on_c, 4, 43, 0
5, 32160, Note_on_c, 4, 47, 49
5, 32206, Note_on_c, 4, 47, 0
5, 32208, Note_on_c, 4, 43, 50
5, 32254, Note_on_c, 4, 43, 0
5, 32256, Note_on_c, 4, 48, 51
5, 32302, Note_on_c, 4, 48, 0
5, 32304, Note_on_c, 4, 43, 52
5, 32350, Note_on_c, 4, 43, 0
5, 32352, Note_on_c, 4, 48, 53
5, 32398, Note_on_c, 4, 48, 0
5, 32400, Note_on_c, 4, 43, 54
5, 32446, Note_on_c, 4, 43, 0
5, 32448, Note_on_c, 4, 48, 55
5, 32494, Note_on_c, 4, 48, 0
5, 32496, Note_on_c, 4, 43, 56
5, 32542, Note_on_c, 4, 43, 0
5, 32544, Note_on_c, 4, 40, 57
5, 32590, Note_on_c, 4, 40, 0
5, 32592, Note_on_c, 4, 43, 58
5, 32638, Note_on_c, 4, 43, 0
5, 32640, Note_on_c, 4, 41, 59
5, 32686, Note_on_c, 4, 41, 0
5, 32688, Note_on_c, 4, 43, 60
5, 32734, Note_on_c, 4, 43, 0
5, 32736, Note_on_c, 4, 38, 61
5, 32782, Note_on_c, 4, 38, 0
5, 32784, Note_on_c, 4, 43, 62
5, 32830, Note_on_c, 4, 43, 0
5, 32832, Note_on_c, 4, 41, 63
5, 32878, Note_on_c, 4, 41, 0
5, 32880, Note_on_c, 4, 43, 64
5, 32926, Note_on_c, 4, 43, 0
5, 32928, Note_on_c, 4, 38, 65
5, 32974, Note_on_c, 4, 38, 0
5, 32976, Note_on_c, 4, 43, 66
5, 33022, Note_on_c, 4, 43, 0
5, 33024, Note_on_c, 4, 36, 67
5, 33280, Note_on_c, 4, 36, 0
5, 33312, Note_on_c, 4, 45, 73
5, 33406, Note_on_c, 4, 45, 0
5, 33408, Note_on_c, 4, 46, 75
5, 33696, Note_on_c, 4, 46, 0
5, 33696, Note_on_c, 4, 43, 81
5, 33790, Note_on_c, 4, 43, 0
5, 33792, Note_on_c, 4, 45, 83
5, 34080, Note_on_c, 4, 45, 0
5, 34080, Note_on_c, 4, 41, 89
5, 34174, Note_on_c, 4, 41, 0
5, 34176, Note_on_c, 4, 43, 92
5, 34464, Note_on_c, 4, 43, 0
5, 34464, Note_on_c, 4, 36, 92
5, 34558, Note_on_c, 4, 36, 0
5, 34560, Note_on_c, 4, 41, 45
5, 34654, Note_on_c, 4, 41, 0
5, 34944, Note_on_c, 4, 43, 45
5, 34976, Note_on_c, 4, 43, 0
5, 35040, Note_on_c, 4, 43, 45
5, 35072, Note_on_c, 4, 43, 0
5, 35136, Note_on_c, 4, 40, 45
5, 35168, Note_on_c, 4, 40, 0
5, 35712, Note_on_c, 4, 45, 45
5, 35744, Note_on_c, 4, 45, 0
5, 35808, Note_on_c, 4, 45, 45
5, 35840, Note_on_c, 4, 45, 0
5, 35904, Note_on_c, 4, 41, 45
5, 35936, Note_on_c, 4, 41, 0
5, 36192, Note_on_c, 4, 52, 45
5, 36288, Note_on_c, 4, 52, 0
5, 36288, Note_on_c, 4, 53, 45
5, 36382, Note_on_c, 4, 53, 0
5, 36384, Note_on_c, 4, 41, 45
5, 36416, Note_on_c, 4, 41, 0
5, 36576, Note_on_c, 4, 52, 45
5, 36672, Note_on_c, 4, 52, 0
5, 36672, Note_on_c, 4, 53, 45
5, 36766, Note_on_c, 4, 53, 0
5, 36768, Note_on_c, 4, 41, 45
5, 36800, Note_on_c, 4, 41, 0
5, 36960, Note_on_c, 4, 52, 45
5, 37056, Note_on_c, 4, 52, 0
5, 37056, Note_on_c, 4, 53, 45
5, 37152, Note_on_c, 4, 53, 0
5, 37152, Note_on_c, 4, 54, 45
5, 37246, Note_on_c, 4, 54, 0
5, 37248, Note_on_c, 4, 55, 45
5, 37280, Note_on_c, 4, 55, 0
5, 37344, Note_on_c, 4, 43, 45
5, 37376, Note_on_c, 4, 43, 0
5, 37440, Note_on_c, 4, 48, 45
5, 37472, Note_on_c, 4, 48, 0
5, 38208, Note_on_c, 4, 48, 45
5, 38240, Note_on_c, 4, 48, 0
5, 38304, Note_on_c, 4, 48, 45
5, 38336, Note_on_c, 4, 48, 0
5, 38400, Note_on_c, 4, 58, 45
5, 38432, Note_on_c, 4, 58, 0
5, 38432, Note_on_c, 4, 57, 45
5, 38464, Note_on_c, 4, 57, 0
5, 38464, Note_on_c, 4, 58, 45
5, 38496, Note_on_c, 4, 58, 0
5, 38496, Note_on_c, 4, 60, 45
5, 38528, Note_on_c, 4, 60, 0
5, 38528, Note_on_c, 4, 58, 45
5, 38560, Note_on_c, 4, 58, 0
5, 38560, Note_on_c, 4, 57, 45
5, 38592, Note_on_c, 4, 57, 0
5, 38592, Note_on_c, 4, 55, 45
5, 38624, Note_on_c, 4, 55, 0
5, 38624, Note_on_c, 4, 53, 45
5, 38656, Note_on_c, 4, 53, 0
5, 38656, Note_on_c, 4, 52, 45
5, 38688, Note_on_c, 4, 52, 0
5, 38688, Note_on_c, 4, 50, 45
5, 38720, Note_on_c, 4, 50, 0
5, 38720, Note_on_c, 4, 48, 45
5, 38752, Note_on_c, 4, 48, 0
5, 38752, Note_on_c, 4, 46, 45
5, 38782, Note_on_c, 4, 46, 0
5, 38784, Note_on_c, 4, 45, 45
5, 38816, Note_on_c, 4, 45, 0
5, 38880, Note_on_c, 4, 45, 45
5, 38912, Note_on_c, 4, 45, 0
5, 38976, Note_on_c, 4, 48, 45
5, 39008, Note_on_c, 4, 48, 0
5, 39168, Note_on_c, 4, 45, 45
5, 39262, Note_on_c, 4, 45, 0
5, 39264, Note_on_c, 4, 45, 47
5, 39358, Note_on_c, 4, 45, 0
5, 39360, Note_on_c, 4, 48, 50
5, 39454, Note_on_c, 4, 48, 0
5, 39552, Note_on_c, 4, 42, 56
5, 39646, Note_on_c, 4, 42, 0
5, 39648, Note_on_c, 4, 42, 59
5, 39742, Note_on_c, 4, 42, 0
5, 39744, Note_on_c, 4, 50, 62
5, 39838, Note_on_c, 4, 50, 0
5, 39936, Note_on_c, 4, 43, 68
5, 40030, Note_on_c, 4, 43, 0
5, 40032, Note_on_c, 4, 43, 71
5, 40126, Note_on_c, 4, 43, 0
5, 40128, Note_on_c, 4, 55, 74
5, 40222, Note_on_c, 4, 55, 0
5, 40320, Note_on_c, 4, 49, 80
5, 40414, Note_on_c, 4, 49, 0
5, 40416, Note_on_c, 4, 49, 83
5, 40510, Note_on_c, 4, 49, 0
5, 40512, Note_on_c, 4, 52, 86
5, 40606, Note_on_c, 4, 52, 0
5, 40704, Note_on_c, 4, 50, 92
5, 40798, Note_on_c, 4, 50, 0
5, 40800, Note_on_c, 4, 50, 92
5, 40894, Note_on_c, 4, 50, 0
5, 40896, Note_on_c, 4, 53, 92
5, 40990, Note_on_c, 4, 53, 0
5, 41088, Note_on_c, 4, 46, 92
5, 41182, Note_on_c, 4, 46, 0
5, 41184, Note_on_c, 4, 46, 92
5, 41278, Note_on_c, 4, 46, 0
5, 41280, Note_on_c, 4, 50, 92
5, 41374, Note_on_c, 4, 50, 0
5, 41472, Note_on_c, 4, 45, 92
5, 41566, Note_on_c, 4, 45, 0
5, 41568, Note_on_c, 4, 57, 127
5, 41950, Note_on_c, 4, 57, 0
5, 41952, Note_on_c, 4, 57, 92
5, 41984, Note_on_c, 4, 57, 0
5, 42048, Note_on_c, 4, 57, 92
5, 42080, Note_on_c, 4, 57, 0
5, 42144, Note_on_c, 4, 57, 92
5, 42176, Note_on_c, 4, 57, 0
5, 42240, Note_on_c, 4, 45, 92
5, 42334, Note_on_c, 4, 45, 0
5, 42336, Note_on_c, 4, 57, 127
5, 42718, Note_on_c, 4, 57, 0
5, 42720, Note_on_c, 4, 57, 92
5, 42752, Note_on_c, 4, 57, 0
5, 42816, Note_on_c, 4, 57, 92
5, 42848, Note_on_c, 4, 57, 0
5, 42912, Note_on_c, 4, 57, 92
5, 42944, Note_on_c, 4, 57, 0
5, 43008, Note_on_c, 4, 45, 92
5, 43102, Note_on_c, 4, 45, 0
5, 43104, Note_on_c, 4, 57, 127
5, 44032, Note_on_c, 4, 57, 0
5, 44064, Note_on_c, 4, 46, 106
5, 44096, Note_on_c, 4, 46, 0
5, 44160, Note_on_c, 4, 45, 92
5, 44192, Note_on_c, 4, 45, 0
5, 44256, Note_on_c, 4, 43, 92
5, 44288, Note_on_c, 4, 43, 0
5, 44352, Note_on_c, 4, 41, 92
5, 44384, Note_on_c, 4, 41, 0
5, 44448, Note_on_c, 4, 40, 92
5, 44480, Note_on_c, 4, 40, 0
5, 44544, Note_on_c, 4, 38, 92
5, 44576, Note_on_c, 4, 38, 0
5, 46080, Note_on_c, 4, 55, 127
5, 46558, Note_on_c, 4, 55, 0
5, 46560, Note_on_c, 4, 57, 92
5, 46584, Note_on_c, 4, 57, 0
5, 46584, Note_on_c, 4, 58, 92
5, 46608, Note_on_c, 4, 58, 0
5, 46608, Note_on_c, 4, 60, 92
5, 46632, Note_on_c, 4, 60, 0
5, 46632, Note_on_c, 4, 62, 92
5, 46654, Note_on_c, 4, 62, 0
5, 46656, Note_on_c, 4, 63, 92
5, 46688, Note_on_c, 4, 63, 0
5, 46752, Note_on_c, 4, 63, 92
5, 46784, Note_on_c, 4, 63, 0
5, 46848, Note_on_c, 4, 63, 127
5, 47040, Note_on_c, 4, 63, 0
5, 47040, Note_on_c, 4, 62, 45
5, 47134, Note_on_c, 4, 62, 0
5, 47136, Note_on_c, 4, 60, 45
5, 47168, Note_on_c, 4, 60, 0
5, 47232, Note_on_c, 4, 58, 45
5, 47264, Note_on_c, 4, 58, 0
5, 47328, Note_on_c, 4, 57, 45
5, 47360, Note_on_c, 4, 57, 0
5, 47424, Note_on_c, 4, 55, 45
5, 47456, Note_on_c, 4, 55, 0
5, 47520, Note_on_c, 4, 53, 45
5, 47552, Note_on_c, 4, 53, 0
5, 47616, Note_on_c, 4, 51, 45
5, 47710, Note_on_c, 4, 51, 0
5, 47712, Note_on_c, 4, 50, 45
5, 47806, Note_on_c, 4, 50, 0
5, 47808, Note_on_c, 4, 48, 45
5, 47902, Note_on_c, 4, 48, 0
5, 47904, Note_on_c, 4, 46, 45
5, 47998, Note_on_c, 4, 46, 0
5, 48000, Note_on_c, 4, 44, 45
5, 48094, Note_on_c, 4, 44, 0
5, 48096, Note_on_c, 4, 43, 45
5, 48190, Note_on_c, 4, 43, 0
5, 48192, Note_on_c, 4, 41, 45
5, 48286, Note_on_c, 4, 41, 0
5, 48288, Note_on_c, 4, 53, 45
5, 48382, Note_on_c, 4, 53, 0
5, 48384, Note_on_c, 4, 43, 45
5, 48478, Note_on_c, 4, 43, 0
5, 48480, Note_on_c, 4, 55, 45
5, 48574, Note_on_c, 4, 55, 0
5, 48672, Note_on_c, 4, 55, 45
5, 48766, Note_on_c, 4, 55, 0
5, 48768, Note_on_c, 4, 48, 45
5, 48862, Note_on_c, 4, 48, 0
5, 48864, Note_on_c, 4, 60, 45
5, 48958, Note_on_c, 4, 60, 0
5, 49056, Note_on_c, 4, 48, 45
5, 49150, Note_on_c, 4, 48, 0
5, 49152, Note_on_c, 4, 48, 45
5, 49184, Note_on_c, 4, 48, 0
5, 49184, Note_on_c, 4, 47, 45
5, 49216, Note_on_c, 4, 47, 0
5, 49216, Note_on_c, 4, 48, 45
5, 49248, Note_on_c, 4, 48, 0
5, 49248, Note_on_c, 4, 49, 45
5, 49280, Note_on_c, 4, 49, 0
5, 49280, Note_on_c, 4, 48, 45
5, 49312, Note_on_c, 4, 48, 0
5, 49312, Note_on_c, 4, 46, 45
5, 49344, Note_on_c, 4, 46, 0
5, 49344, Note_on_c, 4, 44, 45
5, 49376, Note_on_c, 4, 44, 0
5, 49376, Note_on_c, 4, 43, 45
5, 49408, Note_on_c, 4, 43, 0
5, 49408, Note_on_c, 4, 44, 45
5, 49440, Note_on_c, 4, 44, 0
5, 49440, Note_on_c, 4, 46, 45
5, 49472, Note_on_c, 4, 46, 0
5, 49472, Note_on_c, 4, 44, 45
5, 49504, Note_on_c, 4, 44, 0
5, 49504, Note_on_c, 4, 43, 45
5, 49534, Note_on_c, 4, 43, 0
5, 49536, Note_on_c, 4, 41, 45
5, 49630, Note_on_c, 4, 41, 0
5, 49632, Note_on_c, 4, 41, 45
5, 49726, Note_on_c, 4, 41, 0
5, 49728, Note_on_c, 4, 41, 45
5, 49822, Note_on_c, 4, 41, 0
5, 49824, Note_on_c, 4, 41, 45
5, 49918, Note_on_c, 4, 41, 0
5, 49920, Note_on_c, 4, 39, 45
5, 50014, Note_on_c, 4, 39, 0
5, 50016, Note_on_c, 4, 51, 52
5, 50176, Note_on_c, 4, 51, 0
5, 50208, Note_on_c, 4, 49, 68
5, 50302, Note_on_c, 4, 49, 0
5, 50304, Note_on_c, 4, 48, 76
5, 50336, Note_on_c, 4, 48, 0
5, 50400, Note_on_c, 4, 46, 84
5, 50432, Note_on_c, 4, 46, 0
5, 50496, Note_on_c, 4, 44, 92
5, 50528, Note_on_c, 4, 44, 0
5, 50592, Note_on_c, 4, 42, 100
5, 50624, Note_on_c, 4, 42, 0
5, 50688, Note_on_c, 4, 41, 108
5, 50782, Note_on_c, 4, 41, 0
5, 50784, Note_on_c, 4, 61, 30
5, 50878, Note_on_c, 4, 61, 0
5, 50880, Note_on_c, 4, 61, 30
5, 50974, Note_on_c, 4, 61, 0
5, 50976, Note_on_c, 4, 61, 30
5, 51070, Note_on_c, 4, 61, 0
5, 51072, Note_on_c, 4, 61, 30
5, 51166, Note_on_c, 4, 61, 0
5, 51168, Note_on_c, 4, 61, 30
5, 51262, Note_on_c, 4, 61, 0
5, 51264, Note_on_c, 4, 61, 30
5, 51358, Note_on_c, 4, 61, 0
5, 51360, Note_on_c, 4, 61, 30
5, 51454, Note_on_c, 4, 61, 0
5, 51456, Note_on_c, 4, 61, 30
5, 51550, Note_on_c, 4, 61, 0
5, 51552, Note_on_c, 4, 61, 30
5, 51646, Note_on_c, 4, 61, 0
5, 51648, Note_on_c, 4, 61, 30
5, 51742, Note_on_c, 4, 61, 0
5, 51744, Note_on_c, 4, 61, 30
5, 51838, Note_on_c, 4, 61, 0
5, 51840, Note_on_c, 4, 61, 30
5, 51934, Note_on_c, 4, 61, 0
5, 51936, Note_on_c, 4, 61, 30
5, 52030, Note_on_c, 4, 61, 0
5, 52032, Note_on_c, 4, 61, 30
5, 52126, Note_on_c, 4, 61, 0
5, 52128, Note_on_c, 4, 61, 30
5, 52222, Note_on_c, 4, 61, 0
5, 52224, Note_on_c, 4, 60, 30
5, 52318, Note_on_c, 4, 60, 0
5, 54624, Note_on_c, 4, 49, 42
5, 54718, Note_on_c, 4, 49, 0
5, 54720, Note_on_c, 4, 49, 30
5, 54814, Note_on_c, 4, 49, 0
5, 54816, Note_on_c, 4, 49, 30
5, 54910, Note_on_c, 4, 49, 0
5, 54912, Note_on_c, 4, 49, 30
5, 55006, Note_on_c, 4, 49, 0
5, 55008, Note_on_c, 4, 46, 42
5, 55102, Note_on_c, 4, 46, 0
5, 55104, Note_on_c, 4, 46, 30
5, 55198, Note_on_c, 4, 46, 0
5, 55200, Note_on_c, 4, 46, 30
5, 55294, Note_on_c, 4, 46, 0
5, 55296, Note_on_c, 4, 46, 30
5, 55390, Note_on_c, 4, 46, 0
5, 55392, Note_on_c, 4, 54, 42
5, 55486, Note_on_c, 4, 54, 0
5, 55488, Note_on_c, 4, 54, 30
5, 55582, Note_on_c, 4, 54, 0
5, 55584, Note_on_c, 4, 54, 30
5, 55678, Note_on_c, 4, 54, 0
5, 55680, Note_on_c, 4, 54, 30
5, 55774, Note_on_c, 4, 54, 0
5, 55776, Note_on_c, 4, 51, 42
5, 55870, Note_on_c, 4, 51, 0
5, 55872, Note_on_c, 4, 51, 30
5, 55966, Note_on_c, 4, 51, 0
5, 55968, Note_on_c, 4, 51, 30
5, 56062, Note_on_c, 4, 51, 0
5, 56064, Note_on_c, 4, 51, 30
5, 56158, Note_on_c, 4, 51, 0
5, 56928, Note_on_c, 4, 43, 42
5, 57022, Note_on_c, 4, 43, 0
5, 57024, Note_on_c, 4, 43, 30
5, 57118, Note_on_c, 4, 43, 0
5, 57120, Note_on_c, 4, 43, 30
5, 57214, Note_on_c, 4, 43, 0
5, 57216, Note_on_c, 4, 43, 30
5, 57310, Note_on_c, 4, 43, 0
5, 58272, Note_on_c, 4, 48, 45
5, 58368, Note_on_c, 4, 48, 0
5, 58368, Note_on_c, 4, 50, 45
5, 58656, Note_on_c, 4, 50, 0
5, 58656, Note_on_c, 4, 47, 45
5, 58752, Note_on_c, 4, 47, 0
5, 58752, Note_on_c, 4, 43, 45
5, 59040, Note_on_c, 4, 43, 0
5, 59040, Note_on_c, 4, 53, 45
5, 59136, Note_on_c, 4, 53, 0
5, 59136, Note_on_c, 4, 52, 45
5, 59424, Note_on_c, 4, 52, 0
5, 59424, Note_on_c, 4, 55, 45
5, 59520, Note_on_c, 4, 55, 0
5, 59520, Note_on_c, 4, 52, 45
5, 59808, Note_on_c, 4, 52, 0
5, 59808, Note_on_c, 4, 48, 45
5, 59904, Note_on_c, 4, 48, 0
5, 59904, Note_on_c, 4, 50, 45
5, 60192, Note_on_c, 4, 50, 0
5, 60192, Note_on_c, 4, 46, 45
5, 60288, Note_on_c, 4, 46, 0
5, 60288, Note_on_c, 4, 43, 45
5, 60576, Note_on_c, 4, 43, 0
5, 60576, Note_on_c, 4, 53, 45
5, 60672, Note_on_c, 4, 53, 0
5, 60672, Note_on_c, 4, 51, 45
5, 60766, Note_on_c, 4, 51, 0
5, 62208, Note_on_c, 4, 60, 45
5, 62240, Note_on_c, 4, 60, 0
5, 62240, Note_on_c, 4, 59, 45
5, 62272, Note_on_c, 4, 59, 0
5, 62272, Note_on_c, 4, 60, 45
5, 62304, Note_on_c, 4, 60, 0
5, 62304, Note_on_c, 4, 61, 45
5, 62336, Note_on_c, 4, 61, 0
5, 62336, Note_on_c, 4, 60, 45
5, 62368, Note_on_c, 4, 60, 0
5, 62368, Note_on_c, 4, 58, 45
5, 62400, Note_on_c, 4, 58, 0
5, 62400, Note_on_c, 4, 56, 45
5, 62432, Note_on_c, 4, 56, 0
5, 62432, Note_on_c, 4, 55, 45
5, 62464, Note_on_c, 4, 55, 0
5, 62464, Note_on_c, 4, 56, 45
5, 62496, Note_on_c, 4, 56, 0
5, 62496, Note_on_c, 4, 58, 45
5, 62528, Note_on_c, 4, 58, 0
5, 62528, Note_on_c, 4, 56, 45
5, 62560, Note_on_c, 4, 56, 0
5, 62560, Note_on_c, 4, 55, 45
5, 62590, Note_on_c, 4, 55, 0
5, 62592, Note_on_c, 4, 53, 45
5, 62624, Note_on_c, 4, 53, 0
5, 62688, Note_on_c, 4, 53, 45
5, 62720, Note_on_c, 4, 53, 0
5, 62784, Note_on_c, 4, 53, 45
5, 62816, Note_on_c, 4, 53, 0
5, 62880, Note_on_c, 4, 53, 45
5, 62912, Note_on_c, 4, 53, 0
5, 62976, Note_on_c, 4, 52, 45
5, 63008, Note_on_c, 4, 52, 0
5, 63072, Note_on_c, 4, 48, 45
5, 63104, Note_on_c, 4, 48, 0
5, 63168, Note_on_c, 4, 50, 45
5, 63200, Note_on_c, 4, 50, 0
5, 63264, Note_on_c, 4, 52, 45
5, 63296, Note_on_c, 4, 52, 0
5, 63360, Note_on_c, 4, 53, 45
5, 63392, Note_on_c, 4, 53, 0
5, 63456, Note_on_c, 4, 55, 45
5, 63488, Note_on_c, 4, 55, 0
5, 63552, Note_on_c, 4, 56, 45
5, 63584, Note_on_c, 4, 56, 0
5, 63648, Note_on_c, 4, 57, 45
5, 63680, Note_on_c, 4, 57, 0
5, 63744, Note_on_c, 4, 58, 45
5, 63838, Note_on_c, 4, 58, 0
5, 65184, Note_on_c, 4, 44, 45
5, 65278, Note_on_c, 4, 44, 0
5, 65280, Note_on_c, 4, 49, 45
5, 65312, Note_on_c, 4, 49, 0
5, 65376, Note_on_c, 4, 61, 45
5, 65408, Note_on_c, 4, 61, 0
5, 65472, Note_on_c, 4, 61, 45
5, 65504, Note_on_c, 4, 61, 0
5, 65568, Note_on_c, 4, 60, 45
5, 65600, Note_on_c, 4, 60, 0
5, 65664, Note_on_c, 4, 58, 45
5, 65696, Note_on_c, 4, 58, 0
5, 65760, Note_on_c, 4, 56, 45
5, 65792, Note_on_c, 4, 56, 0
5, 65856, Note_on_c, 4, 55, 45
5, 65888, Note_on_c, 4, 55, 0
5, 65952, Note_on_c, 4, 53, 45
5, 65984, Note_on_c, 4, 53, 0
5, 66048, Note_on_c, 4, 52, 45
5, 66080, Note_on_c, 4, 52, 0
5, 66144, Note_on_c, 4, 64, 45
5, 66176, Note_on_c, 4, 64, 0
5, 66240, Note_on_c, 4, 64, 45
5, 66272, Note_on_c, 4, 64, 0
5, 66336, Note_on_c, 4, 62, 45
5, 66368, Note_on_c, 4, 62, 0
5, 66432, Note_on_c, 4, 60, 45
5, 66464, Note_on_c, 4, 60, 0
5, 66528, Note_on_c, 4, 58, 45
5, 66560, Note_on_c, 4, 58, 0
5, 66624, Note_on_c, 4, 56, 45
5, 66656, Note_on_c, 4, 56, 0
5, 66720, Note_on_c, 4, 55, 45
5, 66752, Note_on_c, 4, 55, 0
5, 66816, Note_on_c, 4, 53, 92
5, 66848, Note_on_c, 4, 53, 0
5, 66912, Note_on_c, 4, 56, 92
5, 66944, Note_on_c, 4, 56, 0
5, 67008, Note_on_c, 4, 55, 92
5, 67040, Note_on_c, 4, 55, 0
5, 67104, Note_on_c, 4, 53, 92
5, 67136, Note_on_c, 4, 53, 0
5, 67200, Note_on_c, 4, 51, 92
5, 67232, Note_on_c, 4, 51, 0
5, 67296, Note_on_c, 4, 49, 92
5, 67328, Note_on_c, 4, 49, 0
5, 67392, Note_on_c, 4, 48, 92
5, 67424, Note_on_c, 4, 48, 0
5, 67488, Note_on_c, 4, 47, 92
5, 67520, Note_on_c, 4, 47, 0
5, 67584, Note_on_c, 4, 48, 92
5, 67678, Note_on_c, 4, 48, 0
5, 68352, Note_on_c, 4, 36, 127
5, 68830, Note_on_c, 4, 36, 0
5, 68832, Note_on_c, 4, 38, 92
5, 68856, Note_on_c, 4, 38, 0
5, 68856, Note_on_c, 4, 40, 92
5, 68880, Note_on_c, 4, 40, 0
5, 68880, Note_on_c, 4, 41, 92
5, 68904, Note_on_c, 4, 41, 0
5, 68904, Note_on_c, 4, 43, 92
5, 68926, Note_on_c, 4, 43, 0
5, 68928, Note_on_c, 4, 44, 92
5, 68960, Note_on_c, 4, 44, 0
5, 69024, Note_on_c, 4, 44, 92
5, 69056, Note_on_c, 4, 44, 0
5, 69120, Note_on_c, 4, 43, 92
5, 69152, Note_on_c, 4, 43, 0
5, 69216, Note_on_c, 4, 36, 92
5, 69248, Note_on_c, 4, 36, 0
5, 69888, Note_on_c, 4, 36, 127
5, 70366, Note_on_c, 4, 36, 0
5, 70368, Note_on_c, 4, 36, 92
5, 70384, Note_on_c, 4, 36, 0
5, 70384, Note_on_c, 4, 38, 92
5, 70400, Note_on_c, 4, 38, 0
5, 70400, Note_on_c, 4, 40, 92
5, 70416, Note_on_c, 4, 40, 0
5, 70416, Note_on_c, 4, 41, 92
5, 70440, Note_on_c, 4, 41, 0
5, 70440, Note_on_c, 4, 43, 92
5, 70462, Note_on_c, 4, 43, 0
5, 70464, Note_on_c, 4, 44, 92
5, 70496, Note_on_c, 4, 44, 0
5, 70560, Note_on_c, 4, 41, 92
5, 70592, Note_on_c, 4, 41, 0
5, 70656, Note_on_c, 4, 36, 92
5, 70750, Note_on_c, 4, 36, 0
5, 70752, Note_on_c, 4, 60, 30
5, 70846, Note_on_c, 4, 60, 0
5, 70848, Note_on_c, 4, 60, 30
5, 70942, Note_on_c, 4, 60, 0
5, 70944, Note_on_c, 4, 60, 30
5, 71038, Note_on_c, 4, 60, 0
5, 71040, Note_on_c, 4, 60, 30
5, 71134, Note_on_c, 4, 60, 0
5, 71136, Note_on_c, 4, 60, 30
5, 71230, Note_on_c, 4, 60, 0
5, 71232, Note_on_c, 4, 60, 30
5, 71326, Note_on_c, 4, 60, 0
5, 71328, Note_on_c, 4, 60, 30
5, 71422, Note_on_c, 4, 60, 0
5, 71424, Note_on_c, 4, 60, 30
5, 71518, Note_on_c, 4, 60, 0
5, 71520, Note_on_c, 4, 60, 30
5, 71614, Note_on_c, 4, 60, 0
5, 71616, Note_on_c, 4, 60, 30
5, 71710, Note_on_c, 4, 60, 0
5, 71712, Note_on_c, 4, 60, 30
5, 71806, Note_on_c, 4, 60, 0
5, 71808, Note_on_c, 4, 61, 30
5, 71902, Note_on_c, 4, 61, 0
5, 71904, Note_on_c, 4, 61, 30
5, 71998, Note_on_c, 4, 61, 0
5, 72000, Note_on_c, 4, 61, 30
5, 72094, Note_on_c, 4, 61, 0
5, 72096, Note_on_c, 4, 61, 30
5, 72190, Note_on_c, 4, 61, 0
5, 72192, Note_on_c, 4, 61, 30
5, 72286, Note_on_c, 4, 61, 0
5, 72288, Note_on_c, 4, 61, 30
5, 72382, Note_on_c, 4, 61, 0
5, 72384, Note_on_c, 4, 61, 30
5, 72478, Note_on_c, 4, 61, 0
5, 72480, Note_on_c, 4, 61, 30
5, 72574, Note_on_c, 4, 61, 0
5, 72576, Note_on_c, 4, 61, 30
5, 72670, Note_on_c, 4, 61, 0
5, 72672, Note_on_c, 4, 61, 30
5, 72766, Note_on_c, 4, 61, 0
5, 72768, Note_on_c, 4, 61, 30
5, 72862, Note_on_c, 4, 61, 0
5, 72864, Note_on_c, 4, 61, 30
5, 72958, Note_on_c, 4, 61, 0
5, 72960, Note_on_c, 4, 62, 30
5, 73054, Note_on_c, 4, 62, 0
5, 75168, Note_on_c, 4, 50, 30
5, 75264, Note_on_c, 4, 50, 0
5, 75264, Note_on_c, 4, 52, 30
5, 75552, Note_on_c, 4, 52, 0
5, 75552, Note_on_c, 4, 49, 35
5, 75648, Note_on_c, 4, 49, 0
5, 75648, Note_on_c, 4, 45, 36
5, 75936, Note_on_c, 4, 45, 0
5, 75936, Note_on_c, 4, 55, 41
5, 76032, Note_on_c, 4, 55, 0
5, 76032, Note_on_c, 4, 54, 42
5, 76126, Note_on_c, 4, 54, 0
5, 76128, Note_on_c, 4, 50, 60
5, 76222, Note_on_c, 4, 50, 0
5, 76224, Note_on_c, 4, 50, 45
5, 76318, Note_on_c, 4, 50, 0
5, 76320, Note_on_c, 4, 50, 47
5, 76414, Note_on_c, 4, 50, 0
5, 76416, Note_on_c, 4, 50, 49
5, 76510, Note_on_c, 4, 50, 0
5, 76512, Note_on_c, 4, 50, 71
5, 76606, Note_on_c, 4, 50, 0
5, 76608, Note_on_c, 4, 50, 53
5, 76702, Note_on_c, 4, 50, 0
5, 76704, Note_on_c, 4, 50, 55
5, 76798, Note_on_c, 4, 50, 0
5, 76800, Note_on_c, 4, 50, 57
5, 76894, Note_on_c, 4, 50, 0
5, 76896, Note_on_c, 4, 46, 82
5, 76990, Note_on_c, 4, 46, 0
5, 76992, Note_on_c, 4, 46, 61
5, 77086, Note_on_c, 4, 46, 0
5, 77088, Note_on_c, 4, 46, 63
5, 77182, Note_on_c, 4, 46, 0
5, 77184, Note_on_c, 4, 46, 65
5, 77278, Note_on_c, 4, 46, 0
5, 77280, Note_on_c, 4, 46, 93
5, 77374, Note_on_c, 4, 46, 0
5, 77376, Note_on_c, 4, 46, 69
5, 77470, Note_on_c, 4, 46, 0
5, 77472, Note_on_c, 4, 46, 71
5, 77566, Note_on_c, 4, 46, 0
5, 77568, Note_on_c, 4, 46, 73
5, 77662, Note_on_c, 4, 46, 0
5, 77664, Note_on_c, 4, 46, 63
5, 77758, Note_on_c, 4, 46, 0
5, 77760, Note_on_c, 4, 46, 45
5, 77854, Note_on_c, 4, 46, 0
5, 77856, Note_on_c, 4, 46, 45
5, 77950, Note_on_c, 4, 46, 0
5, 77952, Note_on_c, 4, 46, 45
5, 78046, Note_on_c, 4, 46, 0
5, 78048, Note_on_c, 4, 46, 45
5, 78142, Note_on_c, 4, 46, 0
5, 78144, Note_on_c, 4, 46, 45
5, 78238, Note_on_c, 4, 46, 0
5, 78240, Note_on_c, 4, 46, 45
5, 78334, Note_on_c, 4, 46, 0
5, 78336, Note_on_c, 4, 46, 45
5, 78432, Note_on_c, 4, 46, 0
5, 78432, Note_on_c, 4, 45, 45
5, 78526, Note_on_c, 4, 45, 0
5, 78528, Note_on_c, 4, 46, 45
5, 78816, Note_on_c, 4, 46, 0
5, 78816, Note_on_c, 4, 45, 45
5, 78910, Note_on_c, 4, 45, 0
5, 78912, Note_on_c, 4, 46, 45
5, 79200, Note_on_c, 4, 46, 0
5, 79200, Note_on_c, 4, 45, 45
5, 79294, Note_on_c, 4, 45, 0
5, 79296, Note_on_c, 4, 46, 45
5, 79584, Note_on_c, 4, 46, 0
5, 79584, Note_on_c, 4, 45, 45
5, 79678, Note_on_c, 4, 45, 0
5, 79680, Note_on_c, 4, 46, 45
5, 79966, Note_on_c, 4, 46, 0
5, 79968, Note_on_c, 4, 45, 45
5, 80064, Note_on_c, 4, 45, 0
5, 80064, Note_on_c, 4, 46, 45
5, 80160, Note_on_c, 4, 46, 0
5, 80160, Note_on_c, 4, 48, 45
5, 80254, Note_on_c, 4, 48, 0
5, 80256, Note_on_c, 4, 49, 45
5, 80592, Note_on_c, 4, 49, 0
5, 80640, Note_on_c, 4, 48, 45
5, 80736, Note_on_c, 4, 48, 0
5, 80736, Note_on_c, 4, 47, 45
5, 80832, Note_on_c, 4, 47, 0
5, 80832, Note_on_c, 4, 48, 45
5, 80928, Note_on_c, 4, 48, 0
5, 80928, Note_on_c, 4, 50, 45
5, 81022, Note_on_c, 4, 50, 0
5, 81024, Note_on_c, 4, 51, 45
5, 81360, Note_on_c, 4, 51, 0
5, 81408, Note_on_c, 4, 50, 45
5, 81504, Note_on_c, 4, 50, 0
5, 81504, Note_on_c, 4, 49, 45
5, 81600, Note_on_c, 4, 49, 0
5, 81600, Note_on_c, 4, 50, 45
5, 81696, Note_on_c, 4, 50, 0
5, 81696, Note_on_c, 4, 52, 45
5, 81790, Note_on_c, 4, 52, 0
5, 81792, Note_on_c, 4, 54, 45
5, 82176, Note_on_c, 4, 54, 0
5, 82176, Note_on_c, 4, 55, 45
5, 82560, Note_on_c, 4, 55, 0
5, 82560, Note_on_c, 4, 52, 55
5, 82896, Note_on_c, 4, 52, 0
5, 82944, Note_on_c, 4, 53, 65
5, 83232, Note_on_c, 4, 53, 0
5, 83232, Note_on_c, 4, 52, 72
5, 83326, Note_on_c, 4, 52, 0
5, 83328, Note_on_c, 4, 50, 75
5, 83664, Note_on_c, 4, 50, 0
5, 83712, Note_on_c, 4, 36, 45
5, 83744, Note_on_c, 4, 36, 0
5, 83808, Note_on_c, 4, 48, 45
5, 83840, Note_on_c, 4, 48, 0
5, 83904, Note_on_c, 4, 40, 45
5, 83936, Note_on_c, 4, 40, 0
5, 84000, Note_on_c, 4, 52, 60
5, 84032, Note_on_c, 4, 52, 0
5, 84096, Note_on_c, 4, 43, 45
5, 84128, Note_on_c, 4, 43, 0
5, 84192, Note_on_c, 4, 55, 60
5, 84224, Note_on_c, 4, 55, 0
5, 84288, Note_on_c, 4, 48, 45
5, 84320, Note_on_c, 4, 48, 0
5, 84384, Note_on_c, 4, 60, 45
5, 84416, Note_on_c, 4, 60, 0
5, 84480, Note_on_c, 4, 43, 45
5, 84574, Note_on_c, 4, 43, 0
5, 85248, Note_on_c, 4, 36, 45
5, 85280, Note_on_c, 4, 36, 0
5, 85344, Note_on_c, 4, 48, 45
5, 85376, Note_on_c, 4, 48, 0
5, 85440, Note_on_c, 4, 40, 45
5, 85472, Note_on_c, 4, 40, 0
5, 85536, Note_on_c, 4, 52, 45
5, 85568, Note_on_c, 4, 52, 0
5, 85632, Note_on_c, 4, 43, 45
5, 85664, Note_on_c, 4, 43, 0
5, 85728, Note_on_c, 4, 55, 60
5, 85760, Note_on_c, 4, 55, 0
5, 85824, Note_on_c, 4, 48, 45
5, 85856, Note_on_c, 4, 48, 0
5, 85920, Note_on_c, 4, 60, 45
5, 85952, Note_on_c, 4, 60, 0
5, 86784, Note_on_c, 4, 36, 45
5, 86816, Note_on_c, 4, 36, 0
5, 86880, Note_on_c, 4, 48, 45
5, 86912, Note_on_c, 4, 48, 0
5, 86976, Note_on_c, 4, 40, 45
5, 87008, Note_on_c, 4, 40, 0
5, 87072, Note_on_c, 4, 52, 45
5, 87104, Note_on_c, 4, 52, 0
5, 87168, Note_on_c, 4, 43, 45
5, 87200, Note_on_c, 4, 43, 0
5, 87264, Note_on_c, 4, 55, 45
5, 87296, Note_on_c, 4, 55, 0
5, 87360, Note_on_c, 4, 48, 45
5, 87392, Note_on_c, 4, 48, 0
5, 87456, Note_on_c, 4, 60, 45
5, 87488, Note_on_c, 4, 60, 0
5, 87552, Note_on_c, 4, 61, 63
5, 87840, Note_on_c, 4, 61, 0
5, 87840, Note_on_c, 4, 60, 45
5, 87934, Note_on_c, 4, 60, 0
5, 87936, Note_on_c, 4, 61, 63
5, 88224, Note_on_c, 4, 61, 0
5, 88224, Note_on_c, 4, 60, 45
5, 88318, Note_on_c, 4, 60, 0
5, 88320, Note_on_c, 4, 48, 45
5, 88414, Note_on_c, 4, 48, 0
5, 88416, Note_on_c, 4, 60, 52
5, 88510, Note_on_c, 4, 60, 0
5, 88512, Note_on_c, 4, 48, 60
5, 88606, Note_on_c, 4, 48, 0
5, 88608, Note_on_c, 4, 60, 68
5, 88702, Note_on_c, 4, 60, 0
5, 88704, Note_on_c, 4, 48, 76
5, 88798, Note_on_c, 4, 48, 0
5, 88800, Note_on_c, 4, 60, 84
5, 88894, Note_on_c, 4, 60, 0
5, 88896, Note_on_c, 4, 48, 92
5, 88990, Note_on_c, 4, 48, 0
5, 88992, Note_on_c, 4, 60, 100
5, 89086, Note_on_c, 4, 60, 0
5, 89088, Note_on_c, 4, 36, 108
5, 89248, Note_on_c, 4, 36, 0
5, 89472, Note_on_c, 4, 60, 127
5, 89728, Note_on_c, 4, 60, 0
5, 89760, Note_on_c, 4, 48, 108
5, 89854, Note_on_c, 4, 48, 0
5, 89856, Note_on_c, 4, 53, 45
5, 89950, Note_on_c, 4, 53, 0
5, 90240, Note_on_c, 4, 43, 45
5, 90272, Note_on_c, 4, 43, 0
5, 90336, Note_on_c, 4, 43, 45
5, 90368, Note_on_c, 4, 43, 0
5, 90432, Note_on_c, 4, 40, 45
5, 90464, Note_on_c, 4, 40, 0
5, 91008, Note_on_c, 4, 45, 45
5, 91040, Note_on_c, 4, 45, 0
5, 91104, Note_on_c, 4, 45, 45
5, 91136, Note_on_c, 4, 45, 0
5, 91200, Note_on_c, 4, 41, 45
5, 91232, Note_on_c, 4, 41, 0
5, 91488, Note_on_c, 4, 52, 45
5, 91584, Note_on_c, 4, 52, 0
5, 91584, Note_on_c, 4, 53, 45
5, 91678, Note_on_c, 4, 53, 0
5, 91680, Note_on_c, 4, 41, 45
5, 91712, Note_on_c, 4, 41, 0
5, 91872, Note_on_c, 4, 52, 45
5, 91968, Note_on_c, 4, 52, 0
5, 91968, Note_on_c, 4, 53, 45
5, 92062, Note_on_c, 4, 53, 0
5, 92064, Note_on_c, 4, 41, 45
5, 92096, Note_on_c, 4, 41, 0
5, 92256, Note_on_c, 4, 52, 45
5, 92352, Note_on_c, 4, 52, 0
5, 92352, Note_on_c, 4, 53, 45
5, 92448, Note_on_c, 4, 53, 0
5, 92448, Note_on_c, 4, 54, 45
5, 92542, Note_on_c, 4, 54, 0
5, 92544, Note_on_c, 4, 55, 45
5, 92576, Note_on_c, 4, 55, 0
5, 92640, Note_on_c, 4, 43, 45
5, 92672, Note_on_c, 4, 43, 0
5, 92736, Note_on_c, 4, 48, 45
5, 92768, Note_on_c, 4, 48, 0
5, 93504, Note_on_c, 4, 48, 92
5, 93536, Note_on_c, 4, 48, 0
5, 93600, Note_on_c, 4, 48, 92
5, 93632, Note_on_c, 4, 48, 0
5, 93696, Note_on_c, 4, 36, 92
5, 93790, Note_on_c, 4, 36, 0
5, 94272, Note_on_c, 4, 53, 92
5, 94304, Note_on_c, 4, 53, 0
5, 94368, Note_on_c, 4, 53, 92
5, 94400, Note_on_c, 4, 53, 0
5, 94464, Note_on_c, 4, 41, 45
5, 94496, Note_on_c, 4, 41, 0
5, 94560, Note_on_c, 4, 52, 45
5, 94656, Note_on_c, 4, 52, 0
5, 94656, Note_on_c, 4, 53, 45
5, 94750, Note_on_c, 4, 53, 0
5, 94752, Note_on_c, 4, 41, 45
5, 94784, Note_on_c, 4, 41, 0
5, 94944, Note_on_c, 4, 52, 45
5, 95040, Note_on_c, 4, 52, 0
5, 95040, Note_on_c, 4, 53, 45
5, 95134, Note_on_c, 4, 53, 0
5, 95136, Note_on_c, 4, 41, 45
5, 95168, Note_on_c, 4, 41, 0
5, 95328, Note_on_c, 4, 52, 45
5, 95424, Note_on_c, 4, 52, 0
5, 95424, Note_on_c, 4, 53, 51
5, 95518, Note_on_c, 4, 53, 0
5, 95520, Note_on_c, 4, 54, 57
5, 95552, Note_on_c, 4, 54, 0
5, 95616, Note_on_c, 4, 55, 64
5, 95648, Note_on_c, 4, 55, 0
5, 95712, Note_on_c, 4, 49, 71
5, 95744, Note_on_c, 4, 49, 0
5, 95808, Note_on_c, 4, 50, 78
5, 95840, Note_on_c, 4, 50, 0
5, 95904, Note_on_c, 4, 47, 85
5, 95936, Note_on_c, 4, 47, 0
5, 96000, Note_on_c, 4, 48, 92
5, 96160, Note_on_c, 4, 48, 0
5, 96192, Note_on_c, 4, 36, 92
5, 96352, Note_on_c, 4, 36, 0
5, 96384, Note_on_c, 4, 41, 92
5, 96544, Note_on_c, 4, 41, 0
5, 97920, Note_on_c, 4, 52, 45
5, 97968, Note_on_c, 4, 52, 0
5, 97968, Note_on_c, 4, 53, 45
5, 98016, Note_on_c, 4, 53, 0
5, 98016, Note_on_c, 4, 52, 45
5, 98064, Note_on_c, 4, 52, 0
5, 98064, Note_on_c, 4, 53, 45
5, 98112, Note_on_c, 4, 53, 0
5, 98112, Note_on_c, 4, 52, 45
5, 98160, Note_on_c, 4, 52, 0
5, 98160, Note_on_c, 4, 53, 45
5, 98208, Note_on_c, 4, 53, 0
5, 98208, Note_on_c, 4, 48, 45
5, 98256, Note_on_c, 4, 48, 0
5, 98256, Note_on_c, 4, 45, 45
5, 98302, Note_on_c, 4, 45, 0
5, 98304, Note_on_c, 4, 41, 45
5, 98464, Note_on_c, 4, 41, 0
5, 98976, Note_on_c, 4, 53, 45
5, 99072, Note_on_c, 4, 53, 0
5, 99072, Note_on_c, 4, 52, 45
5, 99104, Note_on_c, 4, 52, 0
5, 99168, Note_on_c, 4, 48, 45
5, 99200, Note_on_c, 4, 48, 0
5, 99264, Note_on_c, 4, 52, 45
5, 99296, Note_on_c, 4, 52, 0
5, 99360, Note_on_c, 4, 48, 45
5, 99392, Note_on_c, 4, 48, 0
5, 99456, Note_on_c, 4, 53, 45
5, 99550, Note_on_c, 4, 53, 0
5, 99552, Note_on_c, 4, 41, 45
5, 99646, Note_on_c, 4, 41, 0
5, 99648, Note_on_c, 4, 53, 45
5, 99742, Note_on_c, 4, 53, 0
5, 99744, Note_on_c, 4, 57, 92
5, 99776, Note_on_c, 4, 57, 0
5, 99840, Note_on_c, 4, 45, 127
5, 100096, Note_on_c, 4, 45, 0
5, 100128, Note_on_c, 4, 45, 92
5, 100160, Note_on_c, 4, 45, 0
5, 100160, Note_on_c, 4, 47, 92
5, 100192, Note_on_c, 4, 47, 0
5, 100192, Note_on_c, 4, 49, 92
5, 100222, Note_on_c, 4, 49, 0
5, 100224, Note_on_c, 4, 50, 92
5, 100256, Note_on_c, 4, 50, 0
5, 100320, Note_on_c, 4, 52, 108
5, 100352, Note_on_c, 4, 52, 0
5, 100416, Note_on_c, 4, 53, 108
5, 100448, Note_on_c, 4, 53, 0
5, 100512, Note_on_c, 4, 55, 108
5, 100544, Note_on_c, 4, 55, 0
5, 100608, Note_on_c, 4, 57, 108
5, 100640, Note_on_c, 4, 57, 0
5, 100704, Note_on_c, 4, 59, 108
5, 100736, Note_on_c, 4, 59, 0
5, 100800, Note_on_c, 4, 60, 108
5, 100832, Note_on_c, 4, 60, 0
5, 100896, Note_on_c, 4, 61, 108
5, 100928, Note_on_c, 4, 61, 0
5, 100992, Note_on_c, 4, 62, 108
5, 101086, Note_on_c, 4, 62, 0
5, 101088, Note_on_c, 4, 64, 108
5, 101182, Note_on_c, 4, 64, 0
5, 101184, Note_on_c, 4, 62, 108
5, 101208, Note_on_c, 4, 62, 0
5, 101208, Note_on_c, 4, 64, 108
5, 101232, Note_on_c, 4, 64, 0
5, 101232, Note_on_c, 4, 65, 127
5, 101472, Note_on_c, 4, 65, 0
5, 101472, Note_on_c, 4, 64, 108
5, 101566, Note_on_c, 4, 64, 0
5, 101568, Note_on_c, 4, 62, 108
5, 101592, Note_on_c, 4, 62, 0
5, 101592, Note_on_c, 4, 64, 108
5, 101616, Note_on_c, 4, 64, 0
5, 101616, Note_on_c, 4, 62, 108
5, 101664, Note_on_c, 4, 62, 0
5, 101664, Note_on_c, 4, 60, 108
5, 101758, Note_on_c, 4, 60, 0
5, 101760, Note_on_c, 4, 58, 108
5, 101784, Note_on_c, 4, 58, 0
5, 101784, Note_on_c, 4, 60, 108
5, 101808, Note_on_c, 4, 60, 0
5, 101808, Note_on_c, 4, 58, 108
5, 101856, Note_on_c, 4, 58, 0
5, 101856, Note_on_c, 4, 57, 108
5, 101950, Note_on_c, 4, 57, 0
5, 101952, Note_on_c, 4, 55, 108
5, 101976, Note_on_c, 4, 55, 0
5, 101976, Note_on_c, 4, 57, 108
5, 102000, Note_on_c, 4, 57, 0
5, 102000, Note_on_c, 4, 55, 108
5, 102048, Note_on_c, 4, 55, 0
5, 102048, Note_on_c, 4, 53, 108
5, 102142, Note_on_c, 4, 53, 0
5, 102144, Note_on_c, 4, 52, 108
5, 102240, Note_on_c, 4, 52, 0
5, 102240, Note_on_c, 4, 53, 108
5, 102334, Note_on_c, 4, 53, 0
5, 102336, Note_on_c, 4, 51, 108
5, 102368, Note_on_c, 4, 51, 0
5, 102432, Note_on_c, 4, 48, 108
5, 102464, Note_on_c, 4, 48, 0
5, 102528, Note_on_c, 4, 46, 45
5, 102622, Note_on_c, 4, 46, 0
5, 102912, Note_on_c, 4, 52, 45
5, 102960, Note_on_c, 4, 52, 0
5, 102960, Note_on_c, 4, 53, 45
5, 103008, Note_on_c, 4, 53, 0
5, 103008, Note_on_c, 4, 52, 45
5, 103056, Note_on_c, 4, 52, 0
5, 103056, Note_on_c, 4, 53, 45
5, 103104, Note_on_c, 4, 53, 0
5, 103104, Note_on_c, 4, 52, 45
5, 103152, Note_on_c, 4, 52, 0
5, 103152, Note_on_c, 4, 53, 45
5, 103200, Note_on_c, 4, 53, 0
5, 103200, Note_on_c, 4, 48, 45
5, 103248, Note_on_c, 4, 48, 0
5, 103248, Note_on_c, 4, 45, 45
5, 103294, Note_on_c, 4, 45, 0
5, 103296, Note_on_c, 4, 41, 45
5, 103456, Note_on_c, 4, 41, 0
5, 103680, Note_on_c, 4, 57, 45
5, 103728, Note_on_c, 4, 57, 0
5, 103728, Note_on_c, 4, 58, 45
5, 103776, Note_on_c, 4, 58, 0
5, 103776, Note_on_c, 4, 57, 45
5, 103824, Note_on_c, 4, 57, 0
5, 103824, Note_on_c, 4, 58, 45
5, 103872, Note_on_c, 4, 58, 0
5, 103872, Note_on_c, 4, 57, 45
5, 103920, Note_on_c, 4, 57, 0
5, 103920, Note_on_c, 4, 58, 45
5, 103968, Note_on_c, 4, 58, 0
5, 103968, Note_on_c, 4, 53, 45
5, 104016, Note_on_c, 4, 53, 0
5, 104016, Note_on_c, 4, 50, 45
5, 104062, Note_on_c, 4, 50, 0
5, 104064, Note_on_c, 4, 46, 45
5, 104224, Note_on_c, 4, 46, 0
5, 105216, Note_on_c, 4, 43, 45
5, 105248, Note_on_c, 4, 43, 0
5, 105312, Note_on_c, 4, 55, 45
5, 105344, Note_on_c, 4, 55, 0
5, 105408, Note_on_c, 4, 41, 45
5, 105440, Note_on_c, 4, 41, 0
5, 105504, Note_on_c, 4, 53, 45
5, 105536, Note_on_c, 4, 53, 0
5, 105600, Note_on_c, 4, 40, 45
5, 105632, Note_on_c, 4, 40, 0
5, 105696, Note_on_c, 4, 52, 45
5, 105728, Note_on_c, 4, 52, 0
5, 105792, Note_on_c, 4, 36, 45
5, 105824, Note_on_c, 4, 36, 0
5, 105888, Note_on_c, 4, 48, 45
5, 105920, Note_on_c, 4, 48, 0
5, 105984, Note_on_c, 4, 41, 45
5, 106078, Note_on_c, 4, 41, 0
5, 106080, Note_on_c, 4, 53, 48
5, 106174, Note_on_c, 4, 53, 0
5, 106176, Note_on_c, 4, 40, 51
5, 106270, Note_on_c, 4, 40, 0
5, 106272, Note_on_c, 4, 52, 55
5, 106366, Note_on_c, 4, 52, 0
5, 106368, Note_on_c, 4, 38, 59
5, 106462, Note_on_c, 4, 38, 0
5, 106464, Note_on_c, 4, 50, 63
5, 106558, Note_on_c, 4, 50, 0
5, 106560, Note_on_c, 4, 43, 67
5, 106654, Note_on_c, 4, 43, 0
5, 106656, Note_on_c, 4, 55, 71
5, 106750, Note_on_c, 4, 55, 0
5, 106752, Note_on_c, 4, 48, 45
5, 106848, Note_on_c, 4, 48, 0
5, 106848, Note_on_c, 4, 43, 45
5, 106944, Note_on_c, 4, 43, 0
5, 106944, Note_on_c, 4, 47, 45
5, 107040, Note_on_c, 4, 47, 0
5, 107040, Note_on_c, 4, 48, 45
5, 107136, Note_on_c, 4, 48, 0
5, 107136, Note_on_c, 4, 50, 45
5, 107232, Note_on_c, 4, 50, 0
5, 107232, Note_on_c, 4, 43, 45
5, 107328, Note_on_c, 4, 43, 0
5, 107328, Note_on_c, 4, 49, 45
5, 107424, Note_on_c, 4, 49, 0
5, 107424, Note_on_c, 4, 50, 45
5, 107518, Note_on_c, 4, 50, 0
5, 107520, Note_on_c, 4, 52, 45
5, 107616, Note_on_c, 4, 52, 0
5, 107616, Note_on_c, 4, 43, 45
5, 107712, Note_on_c, 4, 43, 0
5, 107712, Note_on_c, 4, 50, 45
5, 107808, Note_on_c, 4, 50, 0
5, 107808, Note_on_c, 4, 52, 45
5, 107904, Note_on_c, 4, 52, 0
5, 107904, Note_on_c, 4, 53, 45
5, 108000, Note_on_c, 4, 53, 0
5, 108000, Note_on_c, 4, 43, 45
5, 108096, Note_on_c, 4, 43, 0
5, 108096, Note_on_c, 4, 45, 45
5, 108192, Note_on_c, 4, 45, 0
5, 108192, Note_on_c, 4, 47, 45
5, 108286, Note_on_c, 4, 47, 0
5, 108288, Note_on_c, 4, 48, 45
5, 108384, Note_on_c, 4, 48, 0
5, 108384, Note_on_c, 4, 43, 45
5, 108480, Note_on_c, 4, 43, 0
5, 108480, Note_on_c, 4, 47, 45
5, 108576, Note_on_c, 4, 47, 0
5, 108576, Note_on_c, 4, 48, 45
5, 108672, Note_on_c, 4, 48, 0
5, 108672, Note_on_c, 4, 50, 45
5, 108768, Note_on_c, 4, 50, 0
5, 108768, Note_on_c, 4, 43, 45
5, 108864, Note_on_c, 4, 43, 0
5, 108864, Note_on_c, 4, 48, 45
5, 108960, Note_on_c, 4, 48, 0
5, 108960, Note_on_c, 4, 50, 45
5, 109054, Note_on_c, 4, 50, 0
5, 109056, Note_on_c, 4, 52, 45
5, 109152, Note_on_c, 4, 52, 0
5, 109152, Note_on_c, 4, 48, 45
5, 109248, Note_on_c, 4, 48, 0
5, 109248, Note_on_c, 4, 52, 49
5, 109344, Note_on_c, 4, 52, 0
5, 109344, Note_on_c, 4, 55, 53
5, 109440, Note_on_c, 4, 55, 0
5, 109440, Note_on_c, 4, 60, 57
5, 109534, Note_on_c, 4, 60, 0
5, 109536, Note_on_c, 4, 36, 61
5, 109632, Note_on_c, 4, 36, 0
5, 109632, Note_on_c, 4, 38, 65
5, 109728, Note_on_c, 4, 38, 0
5, 109728, Note_on_c, 4, 40, 70
5, 109824, Note_on_c, 4, 40, 0
5, 109824, Note_on_c, 4, 41, 45
5, 109918, Note_on_c, 4, 41, 0
5, 109920, Note_on_c, 4, 36, 45
5, 110016, Note_on_c, 4, 36, 0
5, 110016, Note_on_c, 4, 40, 45
5, 110112, Note_on_c, 4, 40, 0
5, 110112, Note_on_c, 4, 41, 45
5, 110208, Note_on_c, 4, 41, 0
5, 110208, Note_on_c, 4, 43, 45
5, 110304, Note_on_c, 4, 43, 0
5, 110304, Note_on_c, 4, 36, 45
5, 110400, Note_on_c, 4, 36, 0
5, 110400, Note_on_c, 4, 42, 45
5, 110496, Note_on_c, 4, 42, 0
5, 110496, Note_on_c, 4, 43, 45
5, 110590, Note_on_c, 4, 43, 0
5, 110592, Note_on_c, 4, 45, 45
5, 110688, Note_on_c, 4, 45, 0
5, 110688, Note_on_c, 4, 36, 45
5, 110784, Note_on_c, 4, 36, 0
5, 110784, Note_on_c, 4, 43, 45
5, 110880, Note_on_c, 4, 43, 0
5, 110880, Note_on_c, 4, 45, 45
5, 110976, Note_on_c, 4, 45, 0
5, 110976, Note_on_c, 4, 46, 45
5, 111072, Note_on_c, 4, 46, 0
5, 111072, Note_on_c, 4, 36, 45
5, 111168, Note_on_c, 4, 36, 0
5, 111168, Note_on_c, 4, 38, 45
5, 111264, Note_on_c, 4, 38, 0
5, 111264, Note_on_c, 4, 40, 45
5, 111358, Note_on_c, 4, 40, 0
5, 111360, Note_on_c, 4, 41, 45
5, 111456, Note_on_c, 4, 41, 0
5, 111456, Note_on_c, 4, 36, 45
5, 111552, Note_on_c, 4, 36, 0
5, 111552, Note_on_c, 4, 40, 45
5, 111648, Note_on_c, 4, 40, 0
5, 111648, Note_on_c, 4, 41, 45
5, 111744, Note_on_c, 4, 41, 0
5, 111744, Note_on_c, 4, 43, 45
5, 111840, Note_on_c, 4, 43, 0
5, 111840, Note_on_c, 4, 36, 45
5, 111936, Note_on_c, 4, 36, 0
5, 111936, Note_on_c, 4, 41, 45
5, 112032, Note_on_c, 4, 41, 0
5, 112032, Note_on_c, 4, 43, 45
5, 112126, Note_on_c, 4, 43, 0
5, 112128, Note_on_c, 4, 45, 45
5, 112224, Note_on_c, 4, 45, 0
5, 112224, Note_on_c, 4, 36, 48
5, 112320, Note_on_c, 4, 36, 0
5, 112320, Note_on_c, 4, 43, 51
5, 112416, Note_on_c, 4, 43, 0
5, 112416, Note_on_c, 4, 45, 55
5, 112512, Note_on_c, 4, 45, 0
5, 112512, Note_on_c, 4, 46, 59
5, 112608, Note_on_c, 4, 46, 0
5, 112608, Note_on_c, 4, 36, 63
5, 112704, Note_on_c, 4, 36, 0
5, 112704, Note_on_c, 4, 38, 67
5, 112800, Note_on_c, 4, 38, 0
5, 112800, Note_on_c, 4, 40, 71
5, 112894, Note_on_c, 4, 40, 0
5, 112896, Note_on_c, 4, 41, 45
5, 112990, Note_on_c, 4, 41, 0
5, 114432, Note_on_c, 4, 58, 45
5, 114526, Note_on_c, 4, 58, 0
5, 114624, Note_on_c, 4, 58, 45
5, 114718, Note_on_c, 4, 58, 0
5, 114816, Note_on_c, 4, 60, 45
5, 114910, Note_on_c, 4, 60, 0
5, 115008, Note_on_c, 4, 48, 45
5, 115102, Note_on_c, 4, 48, 0
5, 115488, Note_on_c, 4, 52, 45
5, 115584, Note_on_c, 4, 52, 0
5, 115584, Note_on_c, 4, 53, 45
5, 115678, Note_on_c, 4, 53, 0
5, 115872, Note_on_c, 4, 49, 45
5, 115968, Note_on_c, 4, 49, 0
5, 115968, Note_on_c, 4, 50, 45
5, 116062, Note_on_c, 4, 50, 0
5, 116256, Note_on_c, 4, 45, 45
5, 116352, Note_on_c, 4, 45, 0
5, 116352, Note_on_c, 4, 46, 45
5, 116446, Note_on_c, 4, 46, 0
5, 116640, Note_on_c, 4, 42, 45
5, 116736, Note_on_c, 4, 42, 0
5, 116736, Note_on_c, 4, 43, 45
5, 116830, Note_on_c, 4, 43, 0
5, 117120, Note_on_c, 4, 36, 45
5, 117214, Note_on_c, 4, 36, 0
5, 117216, Note_on_c, 4, 48, 45
5, 117310, Note_on_c, 4, 48, 0
5, 117312, Note_on_c, 4, 48, 55
5, 117406, Note_on_c, 4, 48, 0
5, 117408, Note_on_c, 4, 48, 65
5, 117502, Note_on_c, 4, 48, 0
5, 117504, Note_on_c, 4, 41, 45
5, 117598, Note_on_c, 4, 41, 0
5, 117792, Note_on_c, 4, 60, 45
5, 117888, Note_on_c, 4, 60, 0
5, 117888, Note_on_c, 4, 65, 45
5, 117982, Note_on_c, 4, 65, 0
5, 118176, Note_on_c, 4, 60, 45
5, 118272, Note_on_c, 4, 60, 0
5, 118272, Note_on_c, 4, 65, 45
5, 118366, Note_on_c, 4, 65, 0
5, 118368, Note_on_c, 4, 65, 45
5, 118400, Note_on_c, 4, 65, 0
5, 118560, Note_on_c, 4, 58, 45
5, 118654, Note_on_c, 4, 58, 0
5, 118752, Note_on_c, 4, 60, 45
5, 118846, Note_on_c, 4, 60, 0
5, 118944, Note_on_c, 4, 48, 45
5, 119038, Note_on_c, 4, 48, 0
5, 119136, Note_on_c, 4, 53, 63
5, 119232, Note_on_c, 4, 53, 0
5, 119232, Note_on_c, 4, 55, 45
5, 119328, Note_on_c, 4, 55, 0
5, 119328, Note_on_c, 4, 48, 50
5, 119422, Note_on_c, 4, 48, 0
5, 119424, Note_on_c, 4, 56, 55
5, 119456, Note_on_c, 4, 56, 0
5, 119520, Note_on_c, 4, 53, 84
5, 119616, Note_on_c, 4, 53, 0
5, 119616, Note_on_c, 4, 55, 65
5, 119712, Note_on_c, 4, 55, 0
5, 119712, Note_on_c, 4, 48, 70
5, 119806, Note_on_c, 4, 48, 0
5, 119808, Note_on_c, 4, 56, 45
5, 119904, Note_on_c, 4, 56, 0
5, 119904, Note_on_c, 4, 53, 45
5, 119998, Note_on_c, 4, 53, 0
5, 120096, Note_on_c, 4, 46, 45
5, 120190, Note_on_c, 4, 46, 0
5, 120288, Note_on_c, 4, 48, 45
5, 120382, Note_on_c, 4, 48, 0
5, 120480, Note_on_c, 4, 36, 45
5, 120574, Note_on_c, 4, 36, 0
5, 120576, Note_on_c, 4, 41, 45
5, 120736, Note_on_c, 4, 41, 0
5, 120960, Note_on_c, 4, 48, 45
5, 121120, Note_on_c, 4, 48, 0
5, 121344, Note_on_c, 4, 53, 45
5, 121504, Note_on_c, 4, 53, 0
5, 121728, Note_on_c, 4, 48, 45
5, 121888, Note_on_c, 4, 48, 0
5, 121920, Note_on_c, 4, 48, 45
5, 122080, Note_on_c, 4, 48, 0
5, 122112, Note_on_c, 4, 41, 45
5, 122160, Note_on_c, 4, 41, 0
5, 122160, Note_on_c, 4, 48, 45
5, 122206, Note_on_c, 4, 48, 0
5, 122208, Note_on_c, 4, 53, 45
5, 122240, Note_on_c, 4, 53, 0
5, 122256, Note_on_c, 4, 48, 45
5, 122288, Note_on_c, 4, 48, 0
5, 122304, Note_on_c, 4, 53, 45
5, 122336, Note_on_c, 4, 53, 0
5, 122352, Note_on_c, 4, 48, 45
5, 122384, Note_on_c, 4, 48, 0
5, 122400, Note_on_c, 4, 53, 45
5, 122432, Note_on_c, 4, 53, 0
5, 122448, Note_on_c, 4, 48, 45
5, 122480, Note_on_c, 4, 48, 0
5, 122496, Note_on_c, 4, 52, 45
5, 122542, Note_on_c, 4, 52, 0
5, 122544, Note_on_c, 4, 48, 45
5, 122590, Note_on_c, 4, 48, 0
5, 122592, Note_on_c, 4, 52, 45
5, 122638, Note_on_c, 4, 52, 0
5, 122640, Note_on_c, 4, 48, 46
5, 122686, Note_on_c, 4, 48, 0
5, 122688, Note_on_c, 4, 52, 47
5, 122734, Note_on_c, 4, 52, 0
5, 122736, Note_on_c, 4, 48, 48
5, 122782, Note_on_c, 4, 48, 0
5, 122784, Note_on_c, 4, 52, 49
5, 122830, Note_on_c, 4, 52, 0
5, 122832, Note_on_c, 4, 48, 50
5, 122878, Note_on_c, 4, 48, 0
5, 122880, Note_on_c, 4, 53, 51
5, 122926, Note_on_c, 4, 53, 0
5, 122928, Note_on_c, 4, 48, 52
5, 122974, Note_on_c, 4, 48, 0
5, 122976, Note_on_c, 4, 53, 53
5, 123022, Note_on_c, 4, 53, 0
5, 123024, Note_on_c, 4, 48, 54
5, 123070, Note_on_c, 4, 48, 0
5, 123072, Note_on_c, 4, 53, 55
5, 123118, Note_on_c, 4, 53, 0
5, 123120, Note_on_c, 4, 48, 56
5, 123166, Note_on_c, 4, 48, 0
5, 123168, Note_on_c, 4, 45, 57
5, 123214, Note_on_c, 4, 45, 0
5, 123216, Note_on_c, 4, 48, 58
5, 123262, Note_on_c, 4, 48, 0
5, 123264, Note_on_c, 4, 46, 59
5, 123310, Note_on_c, 4, 46, 0
5, 123312, Note_on_c, 4, 48, 60
5, 123358, Note_on_c, 4, 48, 0
5, 123360, Note_on_c, 4, 43, 61
5, 123406, Note_on_c, 4, 43, 0
5, 123408, Note_on_c, 4, 48, 62
5, 123454, Note_on_c, 4, 48, 0
5, 123456, Note_on_c, 4, 46, 63
5, 123502, Note_on_c, 4, 46, 0
5, 123504, Note_on_c, 4, 48, 64
5, 123550, Note_on_c, 4, 48, 0
5, 123552, Note_on_c, 4, 43, 65
5, 123598, Note_on_c, 4, 43, 0
5, 123600, Note_on_c, 4, 48, 66
5, 123646, Note_on_c, 4, 48, 0
5, 123648, Note_on_c, 4, 41, 67
5, 123936, Note_on_c, 4, 41, 0
5, 123936, Note_on_c, 4, 50, 73
5, 124030, Note_on_c, 4, 50, 0
5, 124032, Note_on_c, 4, 51, 75
5, 124320, Note_on_c, 4, 51, 0
5, 124320, Note_on_c, 4, 48, 81
5, 124414, Note_on_c, 4, 48, 0
5, 124416, Note_on_c, 4, 50, 83
5, 124704, Note_on_c, 4, 50, 0
5, 124704, Note_on_c, 4, 46, 89
5, 124798, Note_on_c, 4, 46, 0
5, 124800, Note_on_c, 4, 48, 92
5, 125088, Note_on_c, 4, 48, 0
5, 125088, Note_on_c, 4, 41, 92
5, 125182, Note_on_c, 4, 41, 0
5, 125184, Note_on_c, 4, 46, 45
5, 125278, Note_on_c, 4, 46, 0
5, 125568, Note_on_c, 4, 60, 45
5, 125600, Note_on_c, 4, 60, 0
5, 125664, Note_on_c, 4, 60, 45
5, 125696, Note_on_c, 4, 60, 0
5, 125760, Note_on_c, 4, 57, 45
5, 125792, Note_on_c, 4, 57, 0
5, 126336, Note_on_c, 4, 62, 45
5, 126368, Note_on_c, 4, 62, 0
5, 126432, Note_on_c, 4, 62, 45
5, 126464, Note_on_c, 4, 62, 0
5, 126528, Note_on_c, 4, 59, 45
5, 126560, Note_on_c, 4, 59, 0
5, 126720, Note_on_c, 4, 62, 45
5, 126752, Note_on_c, 4, 62, 0
5, 126752, Note_on_c, 4, 61, 45
5, 126784, Note_on_c, 4, 61, 0
5, 126784, Note_on_c, 4, 62, 45
5, 126816, Note_on_c, 4, 62, 0
5, 126816, Note_on_c, 4, 64, 45
5, 126848, Note_on_c, 4, 64, 0
5, 126848, Note_on_c, 4, 62, 45
5, 126880, Note_on_c, 4, 62, 0
5, 126880, Note_on_c, 4, 60, 45
5, 126912, Note_on_c, 4, 60, 0
5, 126912, Note_on_c, 4, 58, 45
5, 126944, Note_on_c, 4, 58, 0
5, 126944, Note_on_c, 4, 57, 45
5, 126976, Note_on_c, 4, 57, 0
5, 126976, Note_on_c, 4, 55, 45
5, 127008, Note_on_c, 4, 55, 0
5, 127008, Note_on_c, 4, 53, 45
5, 127040, Note_on_c, 4, 53, 0
5, 127040, Note_on_c, 4, 52, 45
5, 127072, Note_on_c, 4, 52, 0
5, 127072, Note_on_c, 4, 50, 45
5, 127102, Note_on_c, 4, 50, 0
5, 127104, Note_on_c, 4, 49, 45
5, 127136, Note_on_c, 4, 49, 0
5, 127200, Note_on_c, 4, 49, 45
5, 127232, Note_on_c, 4, 49, 0
5, 127296, Note_on_c, 4, 52, 45
5, 127328, Note_on_c, 4, 52, 0
5, 127872, Note_on_c, 4, 49, 30
5, 127904, Note_on_c, 4, 49, 0
5, 127968, Note_on_c, 4, 49, 30
5, 128000, Note_on_c, 4, 49, 0
5, 128064, Note_on_c, 4, 52, 30
5, 128096, Note_on_c, 4, 52, 0
5, 128256, Note_on_c, 4, 55, 30
5, 128288, Note_on_c, 4, 55, 0
5, 128352, Note_on_c, 4, 55, 30
5, 128384, Note_on_c, 4, 55, 0
5, 128448, Note_on_c, 4, 58, 30
5, 128480, Note_on_c, 4, 58, 0
5, 128640, Note_on_c, 4, 48, 30
5, 128672, Note_on_c, 4, 48, 0
5, 128736, Note_on_c, 4, 48, 30
5, 128768, Note_on_c, 4, 48, 0
5, 128832, Note_on_c, 4, 51, 30
5, 128864, Note_on_c, 4, 51, 0
5, 129024, Note_on_c, 4, 54, 30
5, 129056, Note_on_c, 4, 54, 0
5, 129120, Note_on_c, 4, 54, 30
5, 129152, Note_on_c, 4, 54, 0
5, 129216, Note_on_c, 4, 57, 30
5, 129248, Note_on_c, 4, 57, 0
5, 129408, Note_on_c, 4, 47, 30
5, 129440, Note_on_c, 4, 47, 0
5, 129504, Note_on_c, 4, 47, 30
5, 129536, Note_on_c, 4, 47, 0
5, 129600, Note_on_c, 4, 50, 30
5, 129632, Note_on_c, 4, 50, 0
5, 129792, Note_on_c, 4, 53, 30
5, 129824, Note_on_c, 4, 53, 0
5, 129888, Note_on_c, 4, 53, 30
5, 129920, Note_on_c, 4, 53, 0
5, 129984, Note_on_c, 4, 56, 30
5, 130016, Note_on_c, 4, 56, 0
5, 130176, Note_on_c, 4, 53, 30
5, 130208, Note_on_c, 4, 53, 0
5, 130272, Note_on_c, 4, 53, 30
5, 130304, Note_on_c, 4, 53, 0
5, 130368, Note_on_c, 4, 56, 30
5, 130400, Note_on_c, 4, 56, 0
5, 130560, Note_on_c, 4, 53, 30
5, 130592, Note_on_c, 4, 53, 0
5, 130656, Note_on_c, 4, 53, 30
5, 130688, Note_on_c, 4, 53, 0
5, 130752, Note_on_c, 4, 56, 30
5, 130784, Note_on_c, 4, 56, 0
5, 131712, Note_on_c, 4, 58, 30
5, 131904, Note_on_c, 4, 58, 0
5, 131904, Note_on_c, 4, 61, 41
5, 132190, Note_on_c, 4, 61, 0
5, 132192, Note_on_c, 4, 61, 57
5, 132288, Note_on_c, 4, 61, 0
5, 132288, Note_on_c, 4, 60, 63
5, 132382, Note_on_c, 4, 60, 0
5, 132384, Note_on_c, 4, 48, 69
5, 132416, Note_on_c, 4, 48, 0
5, 132480, Note_on_c, 4, 57, 45
5, 132864, Note_on_c, 4, 57, 0
5, 132864, Note_on_c, 4, 58, 45
5, 133120, Note_on_c, 4, 58, 0
5, 133152, Note_on_c, 4, 55, 45
5, 133246, Note_on_c, 4, 55, 0
5, 133248, Note_on_c, 4, 52, 45
5, 133280, Note_on_c, 4, 52, 0
5, 133344, Note_on_c, 4, 48, 45
5, 133376, Note_on_c, 4, 48, 0
5, 133440, Note_on_c, 4, 60, 63
5, 133664, Note_on_c, 4, 60, 0
5, 133728, Note_on_c, 4, 57, 45
5, 133760, Note_on_c, 4, 57, 0
5, 133824, Note_on_c, 4, 60, 45
5, 133856, Note_on_c, 4, 60, 0
5, 133920, Note_on_c, 4, 57, 45
5, 133952, Note_on_c, 4, 57, 0
5, 134016, Note_on_c, 4, 53, 45
5, 134272, Note_on_c, 4, 53, 0
5, 134304, Note_on_c, 4, 48, 45
5, 134398, Note_on_c, 4, 48, 0
5, 134400, Note_on_c, 4, 55, 45
5, 134656, Note_on_c, 4, 55, 0
5, 134688, Note_on_c, 4, 48, 45
5, 134782, Note_on_c, 4, 48, 0
5, 134784, Note_on_c, 4, 58, 45
5, 135040, Note_on_c, 4, 58, 0
5, 135072, Note_on_c, 4, 48, 45
5, 135166, Note_on_c, 4, 48, 0
5, 135168, Note_on_c, 4, 57, 45
5, 135262, Note_on_c, 4, 57, 0
5, 135552, Note_on_c, 4, 53, 45
5, 135584, Note_on_c, 4, 53, 0
5, 135584, Note_on_c, 4, 52, 45
5, 135616, Note_on_c, 4, 52, 0
5, 135616, Note_on_c, 4, 53, 45
5, 135648, Note_on_c, 4, 53, 0
5, 135648, Note_on_c, 4, 55, 46
5, 135680, Note_on_c, 4, 55, 0
5, 135680, Note_on_c, 4, 53, 47
5, 135712, Note_on_c, 4, 53, 0
5, 135712, Note_on_c, 4, 52, 48
5, 135744, Note_on_c, 4, 52, 0
5, 135744, Note_on_c, 4, 50, 49
5, 135776, Note_on_c, 4, 50, 0
5, 135776, Note_on_c, 4, 48, 50
5, 135808, Note_on_c, 4, 48, 0
5, 135808, Note_on_c, 4, 46, 51
5, 135840, Note_on_c, 4, 46, 0
5, 135840, Note_on_c, 4, 45, 52
5, 135872, Note_on_c, 4, 45, 0
5, 135872, Note_on_c, 4, 43, 53
5, 135904, Note_on_c, 4, 43, 0
5, 135904, Note_on_c, 4, 41, 54
5, 135934, Note_on_c, 4, 41, 0
5, 135936, Note_on_c, 4, 40, 55
5, 135968, Note_on_c, 4, 40, 0
5, 136032, Note_on_c, 4, 40, 58
5, 136064, Note_on_c, 4, 40, 0
5, 136128, Note_on_c, 4, 43, 61
5, 136160, Note_on_c, 4, 43, 0
5, 136320, Note_on_c, 4, 58, 67
5, 136352, Note_on_c, 4, 58, 0
5, 136352, Note_on_c, 4, 57, 68
5, 136384, Note_on_c, 4, 57, 0
5, 136384, Note_on_c, 4, 58, 69
5, 136416, Note_on_c, 4, 58, 0
5, 136416, Note_on_c, 4, 60, 70
5, 136448, Note_on_c, 4, 60, 0
5, 136448, Note_on_c, 4, 58, 71
5, 136480, Note_on_c, 4, 58, 0
5, 136480, Note_on_c, 4, 57, 72
5, 136512, Note_on_c, 4, 57, 0
5, 136512, Note_on_c, 4, 55, 73
5, 136544, Note_on_c, 4, 55, 0
5, 136544, Note_on_c, 4, 53, 74
5, 136576, Note_on_c, 4, 53, 0
5, 136576, Note_on_c, 4, 52, 75
5, 136608, Note_on_c, 4, 52, 0
5, 136608, Note_on_c, 4, 50, 76
5, 136640, Note_on_c, 4, 50, 0
5, 136640, Note_on_c, 4, 48, 77
5, 136672, Note_on_c, 4, 48, 0
5, 136672, Note_on_c, 4, 46, 78
5, 136702, Note_on_c, 4, 46, 0
5, 136704, Note_on_c, 4, 45, 79
5, 136736, Note_on_c, 4, 45, 0
5, 136800, Note_on_c, 4, 41, 82
5, 136832, Note_on_c, 4, 41, 0
5, 136896, Note_on_c, 4, 45, 85
5, 136928, Note_on_c, 4, 45, 0
5, 136992, Note_on_c, 4, 48, 88
5, 137024, Note_on_c, 4, 48, 0
5, 137088, Note_on_c, 4, 53, 92
5, 137182, Note_on_c, 4, 53, 0
5, 137184, Note_on_c, 4, 53, 92
5, 137278, Note_on_c, 4, 53, 0
5, 137376, Note_on_c, 4, 41, 92
5, 137470, Note_on_c, 4, 41, 0
5, 137472, Note_on_c, 4, 46, 92
5, 137566, Note_on_c, 4, 46, 0
5, 137568, Note_on_c, 4, 46, 92
5, 137662, Note_on_c, 4, 46, 0
5, 137760, Note_on_c, 4, 58, 92
5, 137854, Note_on_c, 4, 58, 0
5, 137856, Note_on_c, 4, 48, 92
5, 137950, Note_on_c, 4, 48, 0
5, 137952, Note_on_c, 4, 48, 92
5, 138046, Note_on_c, 4, 48, 0
5, 138144, Note_on_c, 4, 36, 92
5, 138238, Note_on_c, 4, 36, 0
5, 138240, Note_on_c, 4, 41, 92
5, 138272, Note_on_c, 4, 41, 0
5, 138432, Note_on_c, 4, 48, 92
5, 138464, Note_on_c, 4, 48, 0
5, 138528, Note_on_c, 4, 45, 92
5, 138560, Note_on_c, 4, 45, 0
5, 138624, Note_on_c, 4, 41, 92
5, 138718, Note_on_c, 4, 41, 0
5, 138720, Note_on_c, 4, 41, 92
5, 138814, Note_on_c, 4, 41, 0
5, 138912, Note_on_c, 4, 53, 92
5, 139006, Note_on_c, 4, 53, 0
5, 139008, Note_on_c, 4, 46, 92
5, 139102, Note_on_c, 4, 46, 0
5, 139104, Note_on_c, 4, 46, 92
5, 139198, Note_on_c, 4, 46, 0
5, 139296, Note_on_c, 4, 58, 92
5, 139390, Note_on_c, 4, 58, 0
5, 139392, Note_on_c, 4, 36, 92
5, 139486, Note_on_c, 4, 36, 0
5, 139488, Note_on_c, 4, 36, 92
5, 139582, Note_on_c, 4, 36, 0
5, 139680, Note_on_c, 4, 48, 92
5, 139774, Note_on_c, 4, 48, 0
5, 139776, Note_on_c, 4, 41, 92
5, 139870, Note_on_c, 4, 41, 0
5, 139872, Note_on_c, 4, 53, 92
5, 139966, Note_on_c, 4, 53, 0
5, 140064, Note_on_c, 4, 52, 45
5, 140160, Note_on_c, 4, 52, 0
5, 140160, Note_on_c, 4, 53, 45
5, 140254, Note_on_c, 4, 53, 0
5, 140256, Note_on_c, 4, 41, 45
5, 140288, Note_on_c, 4, 41, 0
5, 140448, Note_on_c, 4, 52, 45
5, 140544, Note_on_c, 4, 52, 0
5, 140544, Note_on_c, 4, 53, 45
5, 140638, Note_on_c, 4, 53, 0
5, 140640, Note_on_c, 4, 41, 45
5, 140672, Note_on_c, 4, 41, 0
5, 140832, Note_on_c, 4, 52, 45
5, 140928, Note_on_c, 4, 52, 0
5, 140928, Note_on_c, 4, 53, 45
5, 141022, Note_on_c, 4, 53, 0
5, 141024, Note_on_c, 4, 41, 45
5, 141056, Note_on_c, 4, 41, 0
5, 141120, Note_on_c, 4, 53, 45
5, 141152, Note_on_c, 4, 53, 0
5, 141216, Note_on_c, 4, 52, 45
5, 141248, Note_on_c, 4, 52, 0
5, 141312, Note_on_c, 4, 53, 45
5, 141344, Note_on_c, 4, 53, 0
5, 141408, Note_on_c, 4, 51, 46
5, 141440, Note_on_c, 4, 51, 0
5, 141504, Note_on_c, 4, 50, 47
5, 141536, Note_on_c, 4, 50, 0
5, 141600, Note_on_c, 4, 46, 48
5, 141632, Note_on_c, 4, 46, 0
5, 141696, Note_on_c, 4, 45, 49
5, 141790, Note_on_c, 4, 45, 0
5, 141792, Note_on_c, 4, 41, 50
5, 141886, Note_on_c, 4, 41, 0
5, 141888, Note_on_c, 4, 46, 51
5, 141982, Note_on_c, 4, 46, 0
5, 141984, Note_on_c, 4, 45, 52
5, 142078, Note_on_c, 4, 45, 0
5, 142080, Note_on_c, 4, 43, 53
5, 142174, Note_on_c, 4, 43, 0
5, 142176, Note_on_c, 4, 48, 54
5, 142270, Note_on_c, 4, 48, 0
5, 142272, Note_on_c, 4, 45, 55
5, 142366, Note_on_c, 4, 45, 0
5, 142368, Note_on_c, 4, 41, 56
5, 142462, Note_on_c, 4, 41, 0
5, 142464, Note_on_c, 4, 46, 57
5, 142558, Note_on_c, 4, 46, 0
5, 142560, Note_on_c, 4, 45, 58
5, 142654, Note_on_c, 4, 45, 0
5, 142656, Note_on_c, 4, 46, 59
5, 142750, Note_on_c, 4, 46, 0
5, 142752, Note_on_c, 4, 47, 60
5, 142846, Note_on_c, 4, 47, 0
5, 142848, Note_on_c, 4, 48, 61
5, 142942, Note_on_c, 4, 48, 0
5, 142944, Note_on_c, 4, 47, 62
5, 143038, Note_on_c, 4, 47, 0
5, 143040, Note_on_c, 4, 48, 63
5, 143134, Note_on_c, 4, 48, 0
5, 143136, Note_on_c, 4, 36, 64
5, 143230, Note_on_c, 4, 36, 0
5, 143232, Note_on_c, 4, 41, 65
5, 143326, Note_on_c, 4, 41, 0
5, 143328, Note_on_c, 4, 45, 66
5, 143422, Note_on_c, 4, 45, 0
5, 143424, Note_on_c, 4, 48, 67
5, 143518, Note_on_c, 4, 48, 0
5, 143520, Note_on_c, 4, 36, 68
5, 143614, Note_on_c, 4, 36, 0
5, 143616, Note_on_c, 4, 41, 69
5, 143710, Note_on_c, 4, 41, 0
5, 143712, Note_on_c, 4, 45, 70
5, 143806, Note_on_c, 4, 45, 0
5, 143808, Note_on_c, 4, 48, 72
5, 143902, Note_on_c, 4, 48, 0
5, 143904, Note_on_c, 4, 36, 74
5, 143998, Note_on_c, 4, 36, 0
5, 144000, Note_on_c, 4, 41, 76
5, 144094, Note_on_c, 4, 41, 0
5, 144096, Note_on_c, 4, 45, 78
5, 144190, Note_on_c, 4, 45, 0
5, 144192, Note_on_c, 4, 48, 80
5, 144286, Note_on_c, 4, 48, 0
5, 144288, Note_on_c, 4, 36, 82
5, 144382, Note_on_c, 4, 36, 0
5, 144384, Note_on_c, 4, 41, 84
5, 144478, Note_on_c, 4, 41, 0
5, 144480, Note_on_c, 4, 45, 86
5, 144574, Note_on_c, 4, 45, 0
5, 144576, Note_on_c, 4, 48, 88
5, 144670, Note_on_c, 4, 48, 0
5, 144672, Note_on_c, 4, 36, 90
5, 144766, Note_on_c, 4, 36, 0
5, 144768, Note_on_c, 4, 41, 92
5, 144862, Note_on_c, 4, 41, 0
5, 144864, Note_on_c, 4, 45, 92
5, 144958, Note_on_c, 4, 45, 0
5, 144960, Note_on_c, 4, 48, 92
5, 145054, Note_on_c, 4, 48, 0
5, 145056, Note_on_c, 4, 36, 92
5, 145150, Note_on_c, 4, 36, 0
5, 145152, Note_on_c, 4, 41, 92
5, 145246, Note_on_c, 4, 41, 0
5, 145248, Note_on_c, 4, 45, 92
5, 145342, Note_on_c, 4, 45, 0
5, 145344, Note_on_c, 4, 48, 92
5, 145438, Note_on_c, 4, 48, 0
5, 145440, Note_on_c, 4, 36, 92
5, 145534, Note_on_c, 4, 36, 0
5, 145536, Note_on_c, 4, 41, 92
5, 145696, Note_on_c, 4, 41, 0
5, 145728, Note_on_c, 4, 36, 108
5, 145888, Note_on_c, 4, 36, 0
5, 145920, Note_on_c, 4, 41, 108
5, 146080, Note_on_c, 4, 41, 0
5, 146080, End_track
6, 0, Start_track
6, 0, End_track
0, 0, End_of_file