0, 0, Header, 1, 3, 480
1, 0, Start_track
1, 0, Tempo, 576769
1, 0, Time_signature, 3, 2, 24, 8
1, 0, Copyright_t, "Copyright \251 1999 My Music Company"
1, 0, Title_t, "Piano Solo"
1, 11040, Tempo, 2999809
1, 11520, Tempo, 576769
1, 23040, Time_signature, 2, 2, 24, 8
1, 44424, Tempo, 578305
1, 44448, Tempo, 580097
1, 44472, Tempo, 581633
1, 44496, Tempo, 583425
1, 44520, Tempo, 584961
1, 44544, Tempo, 586753
1, 44568, Tempo, 588289
1, 44592, Tempo, 590081
1, 44616, Tempo, 591617
1, 44640, Tempo, 593409
1, 44664, Tempo, 595201
1, 44688, Tempo, 596737
1, 44712, Tempo, 598529
1, 44736, Tempo, 600321
1, 44760, Tempo, 602113
1, 44784, Tempo, 603905
1, 44808, Tempo, 605697
1, 44832, Tempo, 607489
1, 44856, Tempo, 609281
1, 44880, Tempo, 611073
1, 44904, Tempo, 612865
1, 44928, Tempo, 614657
1, 44952, Tempo, 616449
1, 44976, Tempo, 618241
1, 45000, Tempo, 620289
1, 45024, Tempo, 622081
1, 45048, Tempo, 623873
1, 45072, Tempo, 625921
1, 45096, Tempo, 627713
1, 45120, Tempo, 629761
1, 45144, Tempo, 631553
1, 45168, Tempo, 633601
1, 45192, Tempo, 635393
1, 45216, Tempo, 637441
1, 45240, Tempo, 639489
1, 45264, Tempo, 641281
1, 45288, Tempo, 643329
1, 45312, Tempo, 645377
1, 45336, Tempo, 647425
1, 45360, Tempo, 649473
1, 45384, Tempo, 651521
1, 45408, Tempo, 653569
1, 45432, Tempo, 655617
1, 45456, Tempo, 657665
1, 45480, Tempo, 659969
1, 45504, Tempo, 662017
1, 45528, Tempo, 664065
1, 45552, Tempo, 666369
1, 45576, Tempo, 668417
1, 45600, Tempo, 670721
1, 45624, Tempo, 672769
1, 45648, Tempo, 675073
1, 45672, Tempo, 677121
1, 45696, Tempo, 679425
1, 45720, Tempo, 681729
1, 45840, Tempo, 1999873
1, 46080, Tempo, 749825
1, 46080, Time_signature, 4, 2, 24, 8
1, 65280, Tempo, 857089
1, 109464, Tempo, 860673
1, 109488, Tempo, 864513
1, 109512, Tempo, 868353
1, 109536, Tempo, 872193
1, 109560, Tempo, 876289
1, 109584, Tempo, 880129
1, 109608, Tempo, 884225
1, 109632, Tempo, 888065
1, 109656, Tempo, 892161
1, 109680, Tempo, 896257
1, 109704, Tempo, 900353
1, 109728, Tempo, 904705
1, 109752, Tempo, 908801
1, 109776, Tempo, 913153
1, 109800, Tempo, 917249
1, 109824, Tempo, 921601
1, 109848, Tempo, 925953
1, 109872, Tempo, 930305
1, 109896, Tempo, 934913
1, 109920, Tempo, 939265
1, 109944, Tempo, 943873
1, 109968, Tempo, 948481
1, 109992, Tempo, 953089
1, 110016, Tempo, 957697
1, 110040, Tempo, 962561
1, 110064, Tempo, 967169
1, 110088, Tempo, 972033
1, 110112, Tempo, 976897
1, 110136, Tempo, 981761
1, 110160, Tempo, 986625
1, 110184, Tempo, 991745
1, 110208, Tempo, 996865
1, 110232, Tempo, 1001985
1, 110256, Tempo, 1007105
1, 110280, Tempo, 1012225
1, 110304, Tempo, 1017601
1, 110328, Tempo, 1022721
1, 110352, Tempo, 1028097
1, 110376, Tempo, 1033729
1, 110400, Tempo, 1039105
1, 110424, Tempo, 1044737
1, 110448, Tempo, 1050369
1, 110472, Tempo, 1056001
1, 110496, Tempo, 1061633
1, 110520, Tempo, 1067521
1, 110544, Tempo, 1073409
1, 110568, Tempo, 1079297
1, 110592, Tempo, 1085185
1, 110616, Tempo, 1091329
1, 110640, Tempo, 1097473
1, 110664, Tempo, 1103617
1, 110688, Tempo, 1110017
1, 110712, Tempo, 1116161
1, 110736, Tempo, 1122561
1, 110760, Tempo, 1129217
1, 110784, Tempo, 1135617
1, 110808, Tempo, 1142273
1, 110832, Tempo, 1148929
1, 110856, Tempo, 1155841
1, 110880, Tempo, 1162753
1, 110904, Tempo, 1169665
1, 110928, Tempo, 1176577
1, 110952, Tempo, 1183745
1, 110976, Tempo, 1190913
1, 111000, Tempo, 1198337
1, 111024, Tempo, 1205761
1, 111048, Tempo, 1213185
1, 111072, Tempo, 1220865
1, 111096, Tempo, 1228289
1, 111120, Tempo, 1236225
1, 111144, Tempo, 1243905
1, 111168, Tempo, 1252097
1, 111192, Tempo, 1260033
1, 111216, Tempo, 1268225
1, 111240, Tempo, 1276417
1, 111360, Tempo, 428545
1, 113280, Tempo, 576769
1, 117120, Time_signature, 2, 2, 24, 8
1, 149304, Tempo, 577537
1, 149328, Tempo, 578561
1, 149352, Tempo, 579329
1, 149376, Tempo, 580097
1, 149400, Tempo, 580865
1, 149424, Tempo, 581889
1, 149448, Tempo, 582657
1, 149472, Tempo, 583425
1, 149496, Tempo, 584193
1, 149520, Tempo, 585217
1, 149544, Tempo, 585985
1, 149568, Tempo, 586753
1, 149592, Tempo, 587777
1, 149616, Tempo, 588545
1, 149640, Tempo, 589313
1, 149664, Tempo, 590337
1, 149688, Tempo, 591105
1, 149712, Tempo, 592129
1, 149736, Tempo, 592897
1, 149760, Tempo, 593665
1, 149784, Tempo, 594689
1, 149808, Tempo, 595457
1, 149832, Tempo, 596481
1, 149856, Tempo, 597249
1, 149880, Tempo, 598273
1, 149904, Tempo, 599041
1, 149928, Tempo, 599809
1, 149952, Tempo, 600833
1, 149976, Tempo, 601601
1, 150000, Tempo, 602625
1, 150024, Tempo, 603649
1, 150048, Tempo, 604417
1, 150072, Tempo, 605441
1, 150096, Tempo, 606209
1, 150120, Tempo, 607233
1, 150144, Tempo, 608001
1, 150168, Tempo, 609025
1, 150192, Tempo, 609793
1, 150216, Tempo, 610817
1, 150240, Tempo, 611841
1, 150264, Tempo, 612609
1, 150288, Tempo, 613633
1, 150312, Tempo, 614657
1, 150336, Tempo, 615425
1, 150360, Tempo, 616449
1, 150384, Tempo, 617473
1, 150408, Tempo, 618241
1, 150432, Tempo, 619265
1, 150456, Tempo, 620289
1, 150480, Tempo, 621057
1, 150504, Tempo, 622081
1, 150528, Tempo, 623105
1, 150552, Tempo, 624129
1, 150576, Tempo, 624897
1, 150600, Tempo, 625921
1, 150624, Tempo, 626945
1, 150648, Tempo, 627969
1, 150672, Tempo, 628993
1, 150696, Tempo, 629761
1, 150720, Tempo, 630785
1, 150744, Tempo, 631809
1, 150768, Tempo, 632833
1, 150792, Tempo, 633857
1, 150816, Tempo, 634881
1, 150840, Tempo, 635905
1, 150864, Tempo, 636929
1, 150888, Tempo, 637953
1, 150912, Tempo, 638977
1, 150936, Tempo, 639745
1, 150960, Tempo, 640769
1, 150984, Tempo, 641793
1, 151008, Tempo, 642817
1, 151032, Tempo, 643841
1, 151056, Tempo, 644865
1, 151080, Tempo, 645889
1, 151104, Tempo, 647169
1, 151128, Tempo, 648193
1, 151152, Tempo, 649217
1, 151176, Tempo, 650241
1, 151200, Tempo, 651265
1, 151224, Tempo, 652289
1, 151247, Tempo, 653313
1, 151271, Tempo, 654337
1, 151295, Tempo, 655361
1, 151319, Tempo, 656385
1, 151343, Tempo, 657665
1, 151367, Tempo, 658689
1, 151391, Tempo, 659713
1, 151415, Tempo, 660737
1, 151439, Tempo, 662017
1, 151463, Tempo, 663041
1, 151487, Tempo, 664065
1, 151511, Tempo, 665089
1, 151535, Tempo, 666369
1, 151559, Tempo, 667393
1, 151583, Tempo, 668417
1, 151607, Tempo, 669697
1, 151631, Tempo, 670721
1, 151655, Tempo, 671745
1, 151679, Tempo, 673025
1, 151703, Tempo, 674049
1, 151727, Tempo, 675073
1, 151751, Tempo, 676353
1, 151775, Tempo, 677377
1, 151799, Tempo, 678657
1, 151823, Tempo, 679681
1, 151847, Tempo, 680961
1, 151871, Tempo, 681985
1, 151895, Tempo, 683265
1, 151919, Tempo, 684289
1, 151943, Tempo, 685569
1, 151967, Tempo, 686593
1, 151991, Tempo, 687873
1, 152015, Tempo, 688897
1, 152039, Tempo, 690177
1, 152063, Tempo, 691457
1, 152087, Tempo, 692481
1, 152111, Tempo, 693761
1, 152135, Tempo, 695041
1, 152159, Tempo, 696065
1, 152183, Tempo, 697345
1, 152207, Tempo, 698625
1, 152231, Tempo, 699649
1, 152255, Tempo, 700929
1, 152279, Tempo, 702209
1, 152303, Tempo, 703489
1, 152327, Tempo, 704513
1, 152351, Tempo, 705793
1, 152375, Tempo, 707073
1, 152399, Tempo, 708353
1, 152423, Tempo, 709633
1, 152447, Tempo, 710913
1, 152471, Tempo, 712193
1, 152495, Tempo, 713217
1, 152519, Tempo, 714497
1, 152543, Tempo, 715777
1, 152567, Tempo, 717057
1, 152591, Tempo, 718337
1, 152615, Tempo, 719617
1, 152639, Tempo, 720897
1, 152663, Tempo, 722177
1, 152687, Tempo, 723457
1, 152711, Tempo, 724993
1, 152735, Tempo, 726273
1, 152759, Tempo, 727553
1, 152783, Tempo, 728833
1, 152807, Tempo, 730113
1, 152831, Tempo, 731393
1, 152855, Tempo, 732673
1, 152879, Tempo, 734209
1, 152903, Tempo, 735489
1, 152927, Tempo, 736769
1, 152951, Tempo, 738049
1, 152975, Tempo, 739585
1, 152999, Tempo, 740865
1, 153023, Tempo, 742145
1, 153047, Tempo, 743425
1, 153071, Tempo, 744961
1, 153095, Tempo, 746241
1, 153119, Tempo, 747777
1, 153143, Tempo, 749057
1, 153167, Tempo, 750337
1, 153191, Tempo, 751873
1, 153215, Tempo, 753153
1, 153239, Tempo, 754689
1, 153263, Tempo, 755969
1, 153287, Tempo, 757505
1, 153311, Tempo, 759041
1, 153335, Tempo, 760321
1, 153359, Tempo, 761857
1, 153383, Tempo, 763137
1, 153407, Tempo, 764673
1, 153431, Tempo, 766209
1, 153455, Tempo, 767489
1, 153479, Tempo, 769025
1, 153480, Tempo, 769025
1, 153600, End_track
2, 0, Start_track
2, 0, Control_c, 0, 7, 82
2, 0, Control_c, 0, 0, 0
2, 0, Control_c, 0, 32, 0
2, 0, Program_c, 0, 0
2, 0, Control_c, 0, 1, 0
2, 0, Control_c, 0, 10, 64
2, 0, Control_c, 0, 91, 0
2, 0, Control_c, 0, 93, 0
2, 0, Key_signature, -6, "major"
2, 0, Key_signature, -6, "major"
2, 0, Title_t, "Piano"
2, 0, Note_on_c, 0, 75, 100
2, 0, Note_on_c, 0, 63, 100
2, 0, Note_on_c, 0, 39, 100
2, 0, Note_on_c, 0, 46, 100
2, 0, Note_on_c, 0, 54, 100
2, 228, Note_on_c, 0, 63, 0
2, 228, Note_on_c, 0, 75, 0
2, 240, Note_on_c, 0, 74, 100
2, 456, Note_on_c, 0, 54, 0
2, 456, Note_on_c, 0, 46, 0
2, 456, Note_on_c, 0, 39, 0
2, 468, Note_on_c, 0, 74, 0
2, 480, Note_on_c, 0, 75, 100
2, 480, Note_on_c, 0, 63, 100
2, 480, Note_on_c, 0, 39, 100
2, 480, Note_on_c, 0, 46, 100
2, 480, Note_on_c, 0, 54, 100
2, 936, Note_on_c, 0, 54, 0
2, 936, Note_on_c, 0, 46, 0
2, 936, Note_on_c, 0, 39, 0
2, 936, Note_on_c, 0, 63, 0
2, 936, Note_on_c, 0, 75, 0
2, 960, Note_on_c, 0, 63, 100
2, 960, Note_on_c, 0, 71, 100
2, 960, Note_on_c, 0, 39, 100
2, 960, Note_on_c, 0, 46, 100
2, 960, Note_on_c, 0, 54, 100
2, 1416, Note_on_c, 0, 54, 0
2, 1416, Note_on_c, 0, 46, 0
2, 1416, Note_on_c, 0, 39, 0
2, 1416, Note_on_c, 0, 71, 0
2, 1416, Note_on_c, 0, 63, 0
2, 1440, Note_on_c, 0, 39, 100
2, 1440, Note_on_c, 0, 46, 100
2, 1440, Note_on_c, 0, 54, 100
2, 1440, Note_on_c, 0, 63, 100
2, 1440, Note_on_c, 0, 73, 100
2, 1497, Note_on_c, 0, 73, 0
2, 1500, Note_on_c, 0, 71, 100
2, 1896, Note_on_c, 0, 54, 0
2, 1896, Note_on_c, 0, 46, 0
2, 1896, Note_on_c, 0, 39, 0
2, 1920, Note_on_c, 0, 39, 100
2, 1920, Note_on_c, 0, 46, 100
2, 1920, Note_on_c, 0, 54, 100
2, 2376, Note_on_c, 0, 54, 0
2, 2376, Note_on_c, 0, 46, 0
2, 2376, Note_on_c, 0, 39, 0
2, 2376, Note_on_c, 0, 63, 0
2, 2379, Note_on_c, 0, 71, 0
2, 2400, Note_on_c, 0, 39, 100
2, 2400, Note_on_c, 0, 46, 100
2, 2400, Note_on_c, 0, 54, 100
2, 2400, Note_on_c, 0, 63, 100
2, 2400, Note_on_c, 0, 70, 100
2, 2856, Note_on_c, 0, 70, 0
2, 2856, Note_on_c, 0, 63, 0
2, 2856, Note_on_c, 0, 54, 0
2, 2856, Note_on_c, 0, 46, 0
2, 2856, Note_on_c, 0, 39, 0
2, 2880, Note_on_c, 0, 39, 100
2, 2880, Note_on_c, 0, 46, 100
2, 2880, Note_on_c, 0, 54, 100
2, 2880, Note_on_c, 0, 63, 100
2, 2880, Note_on_c, 0, 71, 100
2, 2937, Note_on_c, 0, 71, 0
2, 2940, Note_on_c, 0, 70, 100
2, 3111, Note_on_c, 0, 70, 0
2, 3120, Note_on_c, 0, 69, 100
2, 3336, Note_on_c, 0, 54, 0
2, 3336, Note_on_c, 0, 46, 0
2, 3336, Note_on_c, 0, 39, 0
2, 3348, Note_on_c, 0, 69, 0
2, 3360, Note_on_c, 0, 39, 100
2, 3360, Note_on_c, 0, 46, 100
2, 3360, Note_on_c, 0, 54, 100
2, 3360, Note_on_c, 0, 63, 100
2, 3360, Note_on_c, 0, 70, 100
2, 3816, Note_on_c, 0, 70, 0
2, 3816, Note_on_c, 0, 63, 0
2, 3816, Note_on_c, 0, 54, 0
2, 3816, Note_on_c, 0, 46, 0
2, 3816, Note_on_c, 0, 39, 0
2, 3816, Note_on_c, 0, 63, 0
2, 3840, Note_on_c, 0, 39, 100
2, 3840, Note_on_c, 0, 46, 100
2, 3840, Note_on_c, 0, 54, 100
2, 3840, Note_on_c, 0, 63, 100
2, 3840, Note_on_c, 0, 66, 100
2, 4296, Note_on_c, 0, 66, 0
2, 4296, Note_on_c, 0, 63, 0
2, 4296, Note_on_c, 0, 54, 0
2, 4296, Note_on_c, 0, 46, 0
2, 4296, Note_on_c, 0, 39, 0
2, 4320, Note_on_c, 0, 39, 100
2, 4320, Note_on_c, 0, 46, 100
2, 4320, Note_on_c, 0, 54, 100
2, 4320, Note_on_c, 0, 65, 100
2, 4776, Note_on_c, 0, 65, 0
2, 4776, Note_on_c, 0, 54, 0
2, 4776, Note_on_c, 0, 46, 0
2, 4776, Note_on_c, 0, 39, 0
2, 4800, Note_on_c, 0, 39, 100
2, 4800, Note_on_c, 0, 46, 100
2, 4800, Note_on_c, 0, 54, 100
2, 4800, Note_on_c, 0, 63, 100
2, 5256, Note_on_c, 0, 63, 0
2, 5256, Note_on_c, 0, 54, 0
2, 5256, Note_on_c, 0, 46, 0
2, 5256, Note_on_c, 0, 39, 0
2, 11520, Note_on_c, 0, 75, 100
2, 11520, Note_on_c, 0, 63, 100
2, 11520, Note_on_c, 0, 39, 100
2, 11520, Note_on_c, 0, 46, 100
2, 11520, Note_on_c, 0, 54, 100
2, 11748, Note_on_c, 0, 63, 0
2, 11748, Note_on_c, 0, 75, 0
2, 11760, Note_on_c, 0, 74, 100
2, 11976, Note_on_c, 0, 54, 0
2, 11976, Note_on_c, 0, 46, 0
2, 11976, Note_on_c, 0, 39, 0
2, 11988, Note_on_c, 0, 74, 0
2, 12000, Note_on_c, 0, 75, 100
2, 12000, Note_on_c, 0, 63, 100
2, 12000, Note_on_c, 0, 39, 100
2, 12000, Note_on_c, 0, 46, 100
2, 12000, Note_on_c, 0, 54, 100
2, 12456, Note_on_c, 0, 54, 0
2, 12456, Note_on_c, 0, 46, 0
2, 12456, Note_on_c, 0, 39, 0
2, 12456, Note_on_c, 0, 63, 0
2, 12456, Note_on_c, 0, 75, 0
2, 12480, Note_on_c, 0, 63, 100
2, 12480, Note_on_c, 0, 71, 100
2, 12480, Note_on_c, 0, 39, 100
2, 12480, Note_on_c, 0, 46, 100
2, 12480, Note_on_c, 0, 54, 100
2, 12936, Note_on_c, 0, 54, 0
2, 12936, Note_on_c, 0, 46, 0
2, 12936, Note_on_c, 0, 39, 0
2, 12936, Note_on_c, 0, 71, 0
2, 12936, Note_on_c, 0, 63, 0
2, 12960, Note_on_c, 0, 39, 100
2, 12960, Note_on_c, 0, 46, 100
2, 12960, Note_on_c, 0, 54, 100
2, 12960, Note_on_c, 0, 63, 100
2, 12960, Note_on_c, 0, 73, 100
2, 13017, Note_on_c, 0, 73, 0
2, 13020, Note_on_c, 0, 71, 100
2, 13416, Note_on_c, 0, 54, 0
2, 13416, Note_on_c, 0, 46, 0
2, 13416, Note_on_c, 0, 39, 0
2, 13440, Note_on_c, 0, 39, 100
2, 13440, Note_on_c, 0, 46, 100
2, 13440, Note_on_c, 0, 54, 100
2, 13896, Note_on_c, 0, 54, 0
2, 13896, Note_on_c, 0, 46, 0
2, 13896, Note_on_c, 0, 39, 0
2, 13896, Note_on_c, 0, 63, 0
2, 13899, Note_on_c, 0, 71, 0
2, 13920, Note_on_c, 0, 39, 100
2, 13920, Note_on_c, 0, 46, 100
2, 13920, Note_on_c, 0, 54, 100
2, 13920, Note_on_c, 0, 63, 100
2, 13920, Note_on_c, 0, 70, 100
2, 14376, Note_on_c, 0, 70, 0
2, 14376, Note_on_c, 0, 63, 0
2, 14376, Note_on_c, 0, 54, 0
2, 14376, Note_on_c, 0, 46, 0
2, 14376, Note_on_c, 0, 39, 0
2, 14400, Note_on_c, 0, 39, 100
2, 14400, Note_on_c, 0, 46, 100
2, 14400, Note_on_c, 0, 54, 100
2, 14400, Note_on_c, 0, 63, 100
2, 14400, Note_on_c, 0, 71, 100
2, 14457, Note_on_c, 0, 71, 0
2, 14460, Note_on_c, 0, 70, 100
2, 14631, Note_on_c, 0, 70, 0
2, 14640, Note_on_c, 0, 69, 100
2, 14856, Note_on_c, 0, 54, 0
2, 14856, Note_on_c, 0, 46, 0
2, 14856, Note_on_c, 0, 39, 0
2, 14868, Note_on_c, 0, 69, 0
2, 14880, Note_on_c, 0, 39, 100
2, 14880, Note_on_c, 0, 46, 100
2, 14880, Note_on_c, 0, 54, 100
2, 14880, Note_on_c, 0, 63, 100
2, 14880, Note_on_c, 0, 70, 100
2, 15336, Note_on_c, 0, 70, 0
2, 15336, Note_on_c, 0, 63, 0
2, 15336, Note_on_c, 0, 54, 0
2, 15336, Note_on_c, 0, 46, 0
2, 15336, Note_on_c, 0, 39, 0
2, 15336, Note_on_c, 0, 63, 0
2, 15360, Note_on_c, 0, 39, 100
2, 15360, Note_on_c, 0, 46, 100
2, 15360, Note_on_c, 0, 54, 100
2, 15360, Note_on_c, 0, 63, 100
2, 15360, Note_on_c, 0, 66, 100
2, 15816, Note_on_c, 0, 66, 0
2, 15816, Note_on_c, 0, 63, 0
2, 15816, Note_on_c, 0, 54, 0
2, 15816, Note_on_c, 0, 46, 0
2, 15816, Note_on_c, 0, 39, 0
2, 15840, Note_on_c, 0, 39, 100
2, 15840, Note_on_c, 0, 46, 100
2, 15840, Note_on_c, 0, 54, 100
2, 15840, Note_on_c, 0, 63, 100
2, 15840, Note_on_c, 0, 70, 100
2, 16296, Note_on_c, 0, 70, 0
2, 16296, Note_on_c, 0, 63, 0
2, 16296, Note_on_c, 0, 54, 0
2, 16296, Note_on_c, 0, 46, 0
2, 16296, Note_on_c, 0, 39, 0
2, 23040, Note_on_c, 0, 37, 100
2, 23040, Note_on_c, 0, 59, 100
2, 23040, Note_on_c, 0, 65, 100
2, 23112, Control_c, 0, 7, 81
2, 23256, Control_c, 0, 7, 80
2, 23268, Note_on_c, 0, 65, 0
2, 23268, Note_on_c, 0, 59, 0
2, 23280, Note_on_c, 0, 61, 100
2, 23400, Control_c, 0, 7, 79
2, 23496, Note_on_c, 0, 37, 0
2, 23508, Note_on_c, 0, 61, 0
2, 23520, Note_on_c, 0, 42, 100
2, 23520, Note_on_c, 0, 58, 100
2, 23520, Note_on_c, 0, 66, 100
2, 23544, Control_c, 0, 7, 78
2, 23688, Control_c, 0, 7, 77
2, 23748, Note_on_c, 0, 66, 0
2, 23748, Note_on_c, 0, 58, 0
2, 23760, Note_on_c, 0, 61, 100
2, 23832, Control_c, 0, 7, 76
2, 23976, Note_on_c, 0, 42, 0
2, 23988, Note_on_c, 0, 61, 0
2, 24000, Note_on_c, 0, 49, 100
2, 24000, Note_on_c, 0, 59, 100
2, 24000, Note_on_c, 0, 65, 100
2, 24228, Note_on_c, 0, 65, 0
2, 24228, Note_on_c, 0, 59, 0
2, 24240, Note_on_c, 0, 61, 100
2, 24456, Note_on_c, 0, 49, 0
2, 24468, Note_on_c, 0, 61, 0
2, 24480, Note_on_c, 0, 54, 100
2, 24480, Note_on_c, 0, 58, 100
2, 24480, Note_on_c, 0, 66, 100
2, 24708, Note_on_c, 0, 66, 0
2, 24708, Note_on_c, 0, 58, 0
2, 24720, Note_on_c, 0, 61, 100
2, 24936, Note_on_c, 0, 54, 0
2, 24948, Note_on_c, 0, 61, 0
2, 24960, Note_on_c, 0, 46, 100
2, 24960, Note_on_c, 0, 62, 100
2, 24960, Note_on_c, 0, 66, 100
2, 24960, Note_on_c, 0, 56, 100
2, 25188, Note_on_c, 0, 56, 0
2, 25188, Note_on_c, 0, 66, 0
2, 25188, Note_on_c, 0, 62, 0
2, 25200, Note_on_c, 0, 58, 100
2, 25428, Note_on_c, 0, 58, 0
2, 25440, Note_on_c, 0, 56, 100
2, 25440, Note_on_c, 0, 62, 100
2, 25668, Note_on_c, 0, 62, 0
2, 25668, Note_on_c, 0, 56, 0
2, 25680, Note_on_c, 0, 58, 100
2, 25896, Note_on_c, 0, 46, 0
2, 25908, Note_on_c, 0, 58, 0
2, 25920, Note_on_c, 0, 47, 100
2, 25920, Note_on_c, 0, 62, 100
2, 25920, Note_on_c, 0, 53, 100
2, 26148, Note_on_c, 0, 53, 0
2, 26148, Note_on_c, 0, 62, 0
2, 26160, Note_on_c, 0, 59, 100
2, 26388, Note_on_c, 0, 59, 0
2, 26400, Note_on_c, 0, 54, 100
2, 26400, Note_on_c, 0, 63, 100
2, 26628, Note_on_c, 0, 63, 0
2, 26628, Note_on_c, 0, 54, 0
2, 26640, Note_on_c, 0, 56, 100
2, 26856, Note_on_c, 0, 47, 0
2, 26868, Note_on_c, 0, 56, 0
2, 26880, Note_on_c, 0, 49, 100
2, 26880, Note_on_c, 0, 59, 100
2, 26880, Note_on_c, 0, 53, 100
2, 27108, Note_on_c, 0, 53, 0
2, 27108, Note_on_c, 0, 59, 0
2, 27120, Note_on_c, 0, 56, 100
2, 27336, Note_on_c, 0, 49, 0
2, 27348, Note_on_c, 0, 56, 0
2, 27360, Note_on_c, 0, 37, 100
2, 27360, Note_on_c, 0, 53, 100
2, 27360, Note_on_c, 0, 59, 100
2, 27588, Note_on_c, 0, 59, 0
2, 27588, Note_on_c, 0, 53, 0
2, 27600, Note_on_c, 0, 49, 100
2, 27816, Note_on_c, 0, 37, 0
2, 27828, Note_on_c, 0, 49, 0
2, 27840, Note_on_c, 0, 42, 100
2, 28080, Note_on_c, 0, 58, 100
2, 28080, Note_on_c, 0, 66, 100
2, 28296, Note_on_c, 0, 42, 0
2, 28308, Note_on_c, 0, 58, 0
2, 28320, Note_on_c, 0, 59, 100
2, 28320, Note_on_c, 0, 44, 100
2, 28536, Note_on_c, 0, 66, 0
2, 28560, Note_on_c, 0, 65, 100
2, 28776, Note_on_c, 0, 44, 0
2, 28776, Note_on_c, 0, 59, 0
2, 28800, Note_on_c, 0, 46, 100
2, 28800, Note_on_c, 0, 54, 100
2, 29016, Note_on_c, 0, 65, 0
2, 29040, Note_on_c, 0, 63, 100
2, 29256, Note_on_c, 0, 54, 0
2, 29280, Note_on_c, 0, 34, 100
2, 29280, Note_on_c, 0, 56, 100
2, 29496, Note_on_c, 0, 63, 0
2, 29520, Note_on_c, 0, 62, 100
2, 29736, Note_on_c, 0, 56, 0
2, 29736, Note_on_c, 0, 34, 0
2, 29748, Note_on_c, 0, 62, 0
2, 29760, Note_on_c, 0, 39, 100
2, 29760, Note_on_c, 0, 62, 100
2, 29760, Note_on_c, 0, 56, 100
2, 29832, Control_c, 0, 7, 75
2, 29952, Control_c, 0, 7, 74
2, 29988, Note_on_c, 0, 56, 0
2, 29988, Note_on_c, 0, 62, 0
2, 30000, Note_on_c, 0, 58, 100
2, 30072, Control_c, 0, 7, 73
2, 30192, Control_c, 0, 7, 72
2, 30228, Note_on_c, 0, 58, 0
2, 30240, Note_on_c, 0, 63, 100
2, 30240, Note_on_c, 0, 54, 100
2, 30312, Control_c, 0, 7, 71
2, 30432, Control_c, 0, 7, 70
2, 30468, Note_on_c, 0, 54, 0
2, 30468, Note_on_c, 0, 63, 0
2, 30468, Note_on_c, 0, 39, 0
2, 30468, Note_on_c, 0, 46, 0
2, 30720, Note_on_c, 0, 56, 100
2, 30720, Note_on_c, 0, 59, 100
2, 30720, Note_on_c, 0, 63, 100
2, 30720, Note_on_c, 0, 44, 100
2, 31176, Note_on_c, 0, 44, 0
2, 31176, Note_on_c, 0, 63, 0
2, 31176, Note_on_c, 0, 59, 0
2, 31176, Note_on_c, 0, 56, 0
2, 31200, Note_on_c, 0, 56, 100
2, 31200, Note_on_c, 0, 59, 100
2, 31200, Note_on_c, 0, 63, 100
2, 31200, Note_on_c, 0, 44, 100
2, 31428, Note_on_c, 0, 44, 0
2, 31428, Note_on_c, 0, 63, 0
2, 31428, Note_on_c, 0, 59, 0
2, 31428, Note_on_c, 0, 56, 0
2, 31440, Note_on_c, 0, 56, 100
2, 31440, Note_on_c, 0, 59, 100
2, 31440, Note_on_c, 0, 63, 100
2, 31440, Note_on_c, 0, 44, 100
2, 31668, Note_on_c, 0, 44, 0
2, 31668, Note_on_c, 0, 63, 0
2, 31668, Note_on_c, 0, 59, 0
2, 31668, Note_on_c, 0, 56, 0
2, 31680, Note_on_c, 0, 39, 100
2, 31680, Note_on_c, 0, 51, 100
2, 31680, Note_on_c, 0, 63, 100
2, 31680, Note_on_c, 0, 58, 100
2, 31680, Note_on_c, 0, 54, 100
2, 32136, Note_on_c, 0, 54, 0
2, 32136, Note_on_c, 0, 58, 0
2, 32136, Note_on_c, 0, 63, 0
2, 32136, Note_on_c, 0, 51, 0
2, 32136, Note_on_c, 0, 39, 0
2, 32160, Note_on_c, 0, 39, 100
2, 32160, Note_on_c, 0, 51, 100
2, 32160, Note_on_c, 0, 63, 100
2, 32160, Note_on_c, 0, 58, 100
2, 32160, Note_on_c, 0, 54, 100
2, 32616, Note_on_c, 0, 54, 0
2, 32616, Note_on_c, 0, 58, 0
2, 32616, Note_on_c, 0, 63, 0
2, 32616, Note_on_c, 0, 51, 0
2, 32616, Note_on_c, 0, 39, 0
2, 32640, Note_on_c, 0, 56, 100
2, 32640, Note_on_c, 0, 59, 100
2, 32640, Note_on_c, 0, 63, 100
2, 32640, Note_on_c, 0, 44, 100
2, 33096, Note_on_c, 0, 44, 0
2, 33096, Note_on_c, 0, 63, 0
2, 33096, Note_on_c, 0, 59, 0
2, 33096, Note_on_c, 0, 56, 0
2, 33120, Note_on_c, 0, 56, 100
2, 33120, Note_on_c, 0, 59, 100
2, 33120, Note_on_c, 0, 63, 100
2, 33120, Note_on_c, 0, 44, 100
2, 33348, Note_on_c, 0, 44, 0
2, 33348, Note_on_c, 0, 63, 0
2, 33348, Note_on_c, 0, 59, 0
2, 33348, Note_on_c, 0, 56, 0
2, 33360, Note_on_c, 0, 44, 100
2, 33360, Note_on_c, 0, 56, 100
2, 33360, Note_on_c, 0, 59, 100
2, 33360, Note_on_c, 0, 63, 100
2, 33588, Note_on_c, 0, 63, 0
2, 33588, Note_on_c, 0, 59, 0
2, 33588, Note_on_c, 0, 56, 0
2, 33588, Note_on_c, 0, 44, 0
2, 33600, Note_on_c, 0, 39, 100
2, 33600, Note_on_c, 0, 51, 100
2, 33600, Note_on_c, 0, 63, 100
2, 33600, Note_on_c, 0, 58, 100
2, 33600, Note_on_c, 0, 54, 100
2, 34056, Note_on_c, 0, 54, 0
2, 34056, Note_on_c, 0, 58, 0
2, 34056, Note_on_c, 0, 63, 0
2, 34056, Note_on_c, 0, 51, 0
2, 34056, Note_on_c, 0, 39, 0
2, 34080, Note_on_c, 0, 63, 100
2, 34080, Note_on_c, 0, 58, 100
2, 34080, Note_on_c, 0, 54, 100
2, 34080, Note_on_c, 0, 39, 100
2, 34080, Note_on_c, 0, 51, 100
2, 34536, Note_on_c, 0, 51, 0
2, 34536, Note_on_c, 0, 39, 0
2, 34536, Note_on_c, 0, 54, 0
2, 34536, Note_on_c, 0, 58, 0
2, 34536, Note_on_c, 0, 63, 0
2, 34560, Note_on_c, 0, 46, 100
2, 34560, Note_on_c, 0, 34, 100
2, 34560, Note_on_c, 0, 56, 100
2, 34560, Note_on_c, 0, 62, 100
2, 34788, Note_on_c, 0, 62, 0
2, 34788, Note_on_c, 0, 56, 0
2, 34800, Note_on_c, 0, 58, 100
2, 35016, Note_on_c, 0, 34, 0
2, 35016, Note_on_c, 0, 46, 0
2, 35028, Note_on_c, 0, 58, 0
2, 35040, Note_on_c, 0, 56, 100
2, 35040, Note_on_c, 0, 62, 100
2, 35268, Note_on_c, 0, 62, 0
2, 35268, Note_on_c, 0, 56, 0
2, 35280, Note_on_c, 0, 58, 100
2, 35508, Note_on_c, 0, 58, 0
2, 35520, Note_on_c, 0, 39, 100
2, 35520, Note_on_c, 0, 46, 100
2, 35520, Note_on_c, 0, 54, 100
2, 35520, Note_on_c, 0, 63, 100
2, 35748, Note_on_c, 0, 63, 0
2, 35748, Note_on_c, 0, 54, 0
2, 35760, Note_on_c, 0, 58, 100
2, 35976, Note_on_c, 0, 46, 0
2, 35976, Note_on_c, 0, 39, 0
2, 35988, Note_on_c, 0, 58, 0
2, 36000, Note_on_c, 0, 46, 100
2, 36000, Note_on_c, 0, 39, 100
2, 36000, Note_on_c, 0, 54, 100
2, 36000, Note_on_c, 0, 63, 100
2, 36228, Note_on_c, 0, 63, 0
2, 36228, Note_on_c, 0, 54, 0
2, 36240, Note_on_c, 0, 58, 100
2, 36456, Note_on_c, 0, 39, 0
2, 36456, Note_on_c, 0, 46, 0
2, 36468, Note_on_c, 0, 58, 0
2, 36480, Note_on_c, 0, 56, 100
2, 36480, Note_on_c, 0, 62, 100
2, 36480, Note_on_c, 0, 46, 100
2, 36480, Note_on_c, 0, 34, 100
2, 36708, Note_on_c, 0, 62, 0
2, 36708, Note_on_c, 0, 56, 0
2, 36720, Note_on_c, 0, 58, 100
2, 36936, Note_on_c, 0, 34, 0
2, 36936, Note_on_c, 0, 46, 0
2, 36948, Note_on_c, 0, 58, 0
2, 36960, Note_on_c, 0, 56, 100
2, 36960, Note_on_c, 0, 62, 100
2, 37188, Note_on_c, 0, 62, 0
2, 37188, Note_on_c, 0, 56, 0
2, 37200, Note_on_c, 0, 58, 100
2, 37428, Note_on_c, 0, 58, 0
2, 37440, Note_on_c, 0, 56, 100
2, 37440, Note_on_c, 0, 65, 100
2, 37440, Note_on_c, 0, 34, 100
2, 37440, Note_on_c, 0, 46, 100
2, 37668, Note_on_c, 0, 65, 0
2, 37668, Note_on_c, 0, 56, 0
2, 37680, Note_on_c, 0, 58, 100
2, 37896, Note_on_c, 0, 46, 0
2, 37896, Note_on_c, 0, 34, 0
2, 37908, Note_on_c, 0, 58, 0
2, 37920, Note_on_c, 0, 54, 100
2, 37920, Note_on_c, 0, 63, 100
2, 37920, Note_on_c, 0, 46, 100
2, 37920, Note_on_c, 0, 39, 100
2, 38148, Note_on_c, 0, 63, 0
2, 38148, Note_on_c, 0, 54, 0
2, 38160, Note_on_c, 0, 58, 100
2, 38376, Note_on_c, 0, 39, 0
2, 38376, Note_on_c, 0, 46, 0
2, 38388, Note_on_c, 0, 58, 0
2, 38400, Note_on_c, 0, 44, 100
2, 38400, Note_on_c, 0, 56, 100
2, 38400, Note_on_c, 0, 59, 100
2, 38400, Note_on_c, 0, 63, 100
2, 38856, Note_on_c, 0, 63, 0
2, 38856, Note_on_c, 0, 59, 0
2, 38856, Note_on_c, 0, 56, 0
2, 38856, Note_on_c, 0, 44, 0
2, 38880, Note_on_c, 0, 44, 100
2, 38880, Note_on_c, 0, 56, 100
2, 38880, Note_on_c, 0, 59, 100
2, 38880, Note_on_c, 0, 63, 100
2, 39108, Note_on_c, 0, 63, 0
2, 39108, Note_on_c, 0, 59, 0
2, 39108, Note_on_c, 0, 56, 0
2, 39108, Note_on_c, 0, 44, 0
2, 39120, Note_on_c, 0, 44, 100
2, 39120, Note_on_c, 0, 56, 100
2, 39120, Note_on_c, 0, 59, 100
2, 39120, Note_on_c, 0, 63, 100
2, 39348, Note_on_c, 0, 63, 0
2, 39348, Note_on_c, 0, 59, 0
2, 39348, Note_on_c, 0, 56, 0
2, 39348, Note_on_c, 0, 44, 0
2, 39360, Note_on_c, 0, 63, 100
2, 39360, Note_on_c, 0, 58, 100
2, 39360, Note_on_c, 0, 54, 100
2, 39360, Note_on_c, 0, 39, 100
2, 39360, Note_on_c, 0, 51, 100
2, 39816, Note_on_c, 0, 51, 0
2, 39816, Note_on_c, 0, 39, 0
2, 39816, Note_on_c, 0, 54, 0
2, 39816, Note_on_c, 0, 58, 0
2, 39816, Note_on_c, 0, 63, 0
2, 39840, Note_on_c, 0, 63, 100
2, 39840, Note_on_c, 0, 58, 100
2, 39840, Note_on_c, 0, 54, 100
2, 39840, Note_on_c, 0, 39, 100
2, 39840, Note_on_c, 0, 51, 100
2, 40296, Note_on_c, 0, 51, 0
2, 40296, Note_on_c, 0, 39, 0
2, 40296, Note_on_c, 0, 54, 0
2, 40296, Note_on_c, 0, 58, 0
2, 40296, Note_on_c, 0, 63, 0
2, 40320, Note_on_c, 0, 44, 100
2, 40320, Note_on_c, 0, 56, 100
2, 40320, Note_on_c, 0, 59, 100
2, 40320, Note_on_c, 0, 63, 100
2, 40776, Note_on_c, 0, 63, 0
2, 40776, Note_on_c, 0, 59, 0
2, 40776, Note_on_c, 0, 56, 0
2, 40776, Note_on_c, 0, 44, 0
2, 40800, Note_on_c, 0, 44, 100
2, 40800, Note_on_c, 0, 56, 100
2, 40800, Note_on_c, 0, 59, 100
2, 40800, Note_on_c, 0, 63, 100
2, 41028, Note_on_c, 0, 63, 0
2, 41028, Note_on_c, 0, 59, 0
2, 41028, Note_on_c, 0, 56, 0
2, 41028, Note_on_c, 0, 44, 0
2, 41040, Note_on_c, 0, 44, 100
2, 41040, Note_on_c, 0, 56, 100
2, 41040, Note_on_c, 0, 59, 100
2, 41040, Note_on_c, 0, 63, 100
2, 41268, Note_on_c, 0, 63, 0
2, 41268, Note_on_c, 0, 59, 0
2, 41268, Note_on_c, 0, 56, 0
2, 41268, Note_on_c, 0, 44, 0
2, 41280, Note_on_c, 0, 63, 100
2, 41280, Note_on_c, 0, 58, 100
2, 41280, Note_on_c, 0, 54, 100
2, 41280, Note_on_c, 0, 39, 100
2, 41280, Note_on_c, 0, 51, 100
2, 41736, Note_on_c, 0, 51, 0
2, 41736, Note_on_c, 0, 39, 0
2, 41736, Note_on_c, 0, 54, 0
2, 41736, Note_on_c, 0, 58, 0
2, 41736, Note_on_c, 0, 63, 0
2, 41760, Note_on_c, 0, 63, 100
2, 41760, Note_on_c, 0, 57, 100
2, 41760, Note_on_c, 0, 54, 100
2, 41760, Note_on_c, 0, 35, 100
2, 41760, Note_on_c, 0, 47, 100
2, 42216, Note_on_c, 0, 47, 0
2, 42216, Note_on_c, 0, 35, 0
2, 42216, Note_on_c, 0, 54, 0
2, 42216, Note_on_c, 0, 57, 0
2, 42216, Note_on_c, 0, 63, 0
2, 42240, Note_on_c, 0, 46, 100
2, 42240, Note_on_c, 0, 34, 100
2, 42240, Note_on_c, 0, 56, 100
2, 42240, Note_on_c, 0, 62, 100
2, 42468, Note_on_c, 0, 62, 0
2, 42468, Note_on_c, 0, 56, 0
2, 42480, Note_on_c, 0, 58, 100
2, 42696, Note_on_c, 0, 34, 0
2, 42696, Note_on_c, 0, 46, 0
2, 42708, Note_on_c, 0, 58, 0
2, 42720, Note_on_c, 0, 56, 100
2, 42720, Note_on_c, 0, 62, 100
2, 42948, Note_on_c, 0, 62, 0
2, 42948, Note_on_c, 0, 56, 0
2, 42960, Note_on_c, 0, 58, 100
2, 43188, Note_on_c, 0, 58, 0
2, 43200, Note_on_c, 0, 39, 100
2, 43200, Note_on_c, 0, 46, 100
2, 43200, Note_on_c, 0, 54, 100
2, 43200, Note_on_c, 0, 63, 100
2, 43428, Note_on_c, 0, 63, 0
2, 43428, Note_on_c, 0, 54, 0
2, 43440, Note_on_c, 0, 58, 100
2, 43656, Note_on_c, 0, 46, 0
2, 43656, Note_on_c, 0, 39, 0
2, 43668, Note_on_c, 0, 58, 0
2, 43680, Note_on_c, 0, 46, 100
2, 43680, Note_on_c, 0, 39, 100
2, 43680, Note_on_c, 0, 54, 100
2, 43680, Note_on_c, 0, 63, 100
2, 43908, Note_on_c, 0, 63, 0
2, 43908, Note_on_c, 0, 54, 0
2, 43920, Note_on_c, 0, 58, 100
2, 44136, Note_on_c, 0, 39, 0
2, 44136, Note_on_c, 0, 46, 0
2, 44148, Note_on_c, 0, 58, 0
2, 44160, Note_on_c, 0, 56, 100
2, 44160, Note_on_c, 0, 62, 100
2, 44160, Note_on_c, 0, 46, 100
2, 44160, Note_on_c, 0, 34, 100
2, 44388, Note_on_c, 0, 62, 0
2, 44388, Note_on_c, 0, 56, 0
2, 44400, Note_on_c, 0, 58, 100
2, 44616, Note_on_c, 0, 34, 0
2, 44616, Note_on_c, 0, 46, 0
2, 44628, Note_on_c, 0, 58, 0
2, 44640, Note_on_c, 0, 56, 100
2, 44640, Note_on_c, 0, 62, 100
2, 44868, Note_on_c, 0, 62, 0
2, 44868, Note_on_c, 0, 56, 0
2, 44880, Note_on_c, 0, 58, 100
2, 45108, Note_on_c, 0, 58, 0
2, 45120, Note_on_c, 0, 56, 100
2, 45120, Note_on_c, 0, 65, 100
2, 45120, Note_on_c, 0, 34, 100
2, 45120, Note_on_c, 0, 46, 100
2, 45192, Control_c, 0, 7, 69
2, 45336, Control_c, 0, 7, 68
2, 45348, Note_on_c, 0, 65, 0
2, 45348, Note_on_c, 0, 56, 0
2, 45360, Note_on_c, 0, 58, 100
2, 45480, Control_c, 0, 7, 67
2, 45576, Note_on_c, 0, 46, 0
2, 45576, Note_on_c, 0, 34, 0
2, 45588, Note_on_c, 0, 58, 0
2, 45600, Note_on_c, 0, 54, 100
2, 45600, Note_on_c, 0, 63, 100
2, 45600, Note_on_c, 0, 46, 100
2, 45600, Note_on_c, 0, 39, 100
2, 45624, Control_c, 0, 7, 66
2, 45768, Control_c, 0, 7, 65
2, 45828, Note_on_c, 0, 63, 0
2, 45828, Note_on_c, 0, 54, 0
2, 45840, Note_on_c, 0, 58, 100
2, 45954, Note_on_c, 0, 58, 0
2, 46056, Note_on_c, 0, 39, 0
2, 46056, Note_on_c, 0, 46, 0
2, 46080, Control_c, 0, 7, 95
2, 46080, Key_signature, -3, "major"
2, 46080, Key_signature, -3, "major"
2, 46080, Note_on_c, 0, 55, 100
2, 46080, Note_on_c, 0, 58, 100
2, 46080, Note_on_c, 0, 67, 100
2, 46080, Note_on_c, 0, 63, 100
2, 46080, Note_on_c, 0, 51, 100
2, 46080, Note_on_c, 0, 39, 100
2, 46536, Note_on_c, 0, 39, 0
2, 46536, Note_on_c, 0, 51, 0
2, 46536, Note_on_c, 0, 63, 0
2, 46536, Note_on_c, 0, 67, 0
2, 46536, Note_on_c, 0, 58, 0
2, 46536, Note_on_c, 0, 55, 0
2, 46560, Note_on_c, 0, 55, 100
2, 46560, Note_on_c, 0, 58, 100
2, 46560, Note_on_c, 0, 67, 100
2, 46560, Note_on_c, 0, 63, 100
2, 46560, Note_on_c, 0, 51, 100
2, 46560, Note_on_c, 0, 39, 100
2, 47016, Note_on_c, 0, 39, 0
2, 47016, Note_on_c, 0, 51, 0
2, 47016, Note_on_c, 0, 63, 0
2, 47016, Note_on_c, 0, 67, 0
2, 47016, Note_on_c, 0, 58, 0
2, 47016, Note_on_c, 0, 55, 0
2, 47040, Note_on_c, 0, 55, 100
2, 47040, Note_on_c, 0, 58, 100
2, 47040, Note_on_c, 0, 67, 100
2, 47040, Note_on_c, 0, 63, 100
2, 47040, Note_on_c, 0, 51, 100
2, 47040, Note_on_c, 0, 39, 100
2, 47496, Note_on_c, 0, 39, 0
2, 47496, Note_on_c, 0, 51, 0
2, 47496, Note_on_c, 0, 63, 0
2, 47496, Note_on_c, 0, 67, 0
2, 47496, Note_on_c, 0, 58, 0
2, 47496, Note_on_c, 0, 55, 0
2, 47520, Note_on_c, 0, 55, 100
2, 47520, Note_on_c, 0, 58, 100
2, 47520, Note_on_c, 0, 67, 100
2, 47520, Note_on_c, 0, 63, 100
2, 47520, Note_on_c, 0, 51, 100
2, 47520, Note_on_c, 0, 39, 100
2, 47976, Note_on_c, 0, 39, 0
2, 47976, Note_on_c, 0, 51, 0
2, 47976, Note_on_c, 0, 63, 0
2, 47976, Note_on_c, 0, 67, 0
2, 47976, Note_on_c, 0, 58, 0
2, 47976, Note_on_c, 0, 55, 0
2, 48000, Note_on_c, 0, 55, 100
2, 48000, Note_on_c, 0, 58, 100
2, 48000, Note_on_c, 0, 67, 100
2, 48000, Note_on_c, 0, 63, 100
2, 48000, Note_on_c, 0, 51, 100
2, 48000, Note_on_c, 0, 39, 100
2, 48048, Control_c, 0, 7, 94
2, 48120, Control_c, 0, 7, 93
2, 48168, Control_c, 0, 7, 92
2, 48240, Control_c, 0, 7, 91
2, 48312, Control_c, 0, 7, 90
2, 48384, Control_c, 0, 7, 89
2, 48456, Note_on_c, 0, 39, 0
2, 48456, Note_on_c, 0, 51, 0
2, 48456, Note_on_c, 0, 63, 0
2, 48456, Note_on_c, 0, 67, 0
2, 48456, Note_on_c, 0, 58, 0
2, 48456, Note_on_c, 0, 55, 0
2, 48456, Control_c, 0, 7, 88
2, 48480, Note_on_c, 0, 55, 100
2, 48480, Note_on_c, 0, 58, 100
2, 48480, Note_on_c, 0, 67, 100
2, 48480, Note_on_c, 0, 63, 100
2, 48480, Note_on_c, 0, 51, 100
2, 48480, Note_on_c, 0, 39, 100
2, 48504, Control_c, 0, 7, 87
2, 48576, Control_c, 0, 7, 86
2, 48648, Control_c, 0, 7, 85
2, 48720, Control_c, 0, 7, 84
2, 48768, Control_c, 0, 7, 83
2, 48840, Control_c, 0, 7, 82
2, 48912, Control_c, 0, 7, 81
2, 48936, Note_on_c, 0, 39, 0
2, 48936, Note_on_c, 0, 51, 0
2, 48936, Note_on_c, 0, 63, 0
2, 48936, Note_on_c, 0, 67, 0
2, 48936, Note_on_c, 0, 58, 0
2, 48936, Note_on_c, 0, 55, 0
2, 48960, Note_on_c, 0, 55, 100
2, 48960, Note_on_c, 0, 58, 100
2, 48960, Note_on_c, 0, 67, 100
2, 48960, Note_on_c, 0, 63, 100
2, 48960, Note_on_c, 0, 51, 100
2, 48960, Note_on_c, 0, 39, 100
2, 48984, Control_c, 0, 7, 80
2, 49056, Control_c, 0, 7, 79
2, 49104, Control_c, 0, 7, 78
2, 49176, Control_c, 0, 7, 77
2, 49248, Control_c, 0, 7, 76
2, 49320, Control_c, 0, 7, 75
2, 49368, Control_c, 0, 7, 74
2, 49416, Note_on_c, 0, 39, 0
2, 49416, Note_on_c, 0, 51, 0
2, 49416, Note_on_c, 0, 63, 0
2, 49416, Note_on_c, 0, 67, 0
2, 49416, Note_on_c, 0, 58, 0
2, 49416, Note_on_c, 0, 55, 0
2, 49440, Control_c, 0, 7, 73
2, 49440, Note_on_c, 0, 55, 100
2, 49440, Note_on_c, 0, 58, 100
2, 49440, Note_on_c, 0, 67, 100
2, 49440, Note_on_c, 0, 63, 100
2, 49440, Note_on_c, 0, 51, 100
2, 49440, Note_on_c, 0, 39, 100
2, 49512, Control_c, 0, 7, 72
2, 49584, Control_c, 0, 7, 71
2, 49656, Control_c, 0, 7, 70
2, 49704, Control_c, 0, 7, 69
2, 49776, Control_c, 0, 7, 68
2, 49896, Note_on_c, 0, 39, 0
2, 49896, Note_on_c, 0, 51, 0
2, 49896, Note_on_c, 0, 63, 0
2, 49896, Note_on_c, 0, 67, 0
2, 49896, Note_on_c, 0, 58, 0
2, 49896, Note_on_c, 0, 55, 0
2, 49920, Note_on_c, 0, 55, 100
2, 49920, Note_on_c, 0, 58, 100
2, 49920, Note_on_c, 0, 67, 100
2, 49920, Note_on_c, 0, 63, 100
2, 49920, Note_on_c, 0, 51, 100
2, 49920, Note_on_c, 0, 39, 100
2, 50376, Note_on_c, 0, 39, 0
2, 50376, Note_on_c, 0, 51, 0
2, 50376, Note_on_c, 0, 63, 0
2, 50376, Note_on_c, 0, 67, 0
2, 50376, Note_on_c, 0, 58, 0
2, 50376, Note_on_c, 0, 55, 0
2, 50400, Note_on_c, 0, 55, 100
2, 50400, Note_on_c, 0, 58, 100
2, 50400, Note_on_c, 0, 67, 100
2, 50400, Note_on_c, 0, 63, 100
2, 50400, Note_on_c, 0, 51, 100
2, 50400, Note_on_c, 0, 39, 100
2, 50856, Note_on_c, 0, 39, 0
2, 50856, Note_on_c, 0, 51, 0
2, 50856, Note_on_c, 0, 63, 0
2, 50856, Note_on_c, 0, 67, 0
2, 50856, Note_on_c, 0, 58, 0
2, 50856, Note_on_c, 0, 55, 0
2, 50880, Note_on_c, 0, 55, 100
2, 50880, Note_on_c, 0, 58, 100
2, 50880, Note_on_c, 0, 67, 100
2, 50880, Note_on_c, 0, 63, 100
2, 50880, Note_on_c, 0, 51, 100
2, 50880, Note_on_c, 0, 39, 100
2, 51336, Note_on_c, 0, 39, 0
2, 51336, Note_on_c, 0, 51, 0
2, 51336, Note_on_c, 0, 63, 0
2, 51336, Note_on_c, 0, 67, 0
2, 51336, Note_on_c, 0, 58, 0
2, 51336, Note_on_c, 0, 55, 0
2, 51360, Note_on_c, 0, 55, 100
2, 51360, Note_on_c, 0, 58, 100
2, 51360, Note_on_c, 0, 67, 100
2, 51360, Note_on_c, 0, 63, 100
2, 51360, Note_on_c, 0, 51, 100
2, 51360, Note_on_c, 0, 39, 100
2, 51816, Note_on_c, 0, 39, 0
2, 51816, Note_on_c, 0, 51, 0
2, 51816, Note_on_c, 0, 63, 0
2, 51816, Note_on_c, 0, 67, 0
2, 51816, Note_on_c, 0, 58, 0
2, 51816, Note_on_c, 0, 55, 0
2, 51840, Note_on_c, 0, 58, 100
2, 51840, Note_on_c, 0, 68, 100
2, 51840, Note_on_c, 0, 65, 100
2, 51840, Note_on_c, 0, 50, 100
2, 51840, Note_on_c, 0, 38, 100
2, 52296, Note_on_c, 0, 38, 0
2, 52296, Note_on_c, 0, 50, 0
2, 52296, Note_on_c, 0, 65, 0
2, 52296, Note_on_c, 0, 68, 0
2, 52296, Note_on_c, 0, 58, 0
2, 52320, Note_on_c, 0, 58, 100
2, 52320, Note_on_c, 0, 68, 100
2, 52320, Note_on_c, 0, 65, 100
2, 52320, Note_on_c, 0, 50, 100
2, 52320, Note_on_c, 0, 38, 100
2, 52776, Note_on_c, 0, 38, 0
2, 52776, Note_on_c, 0, 50, 0
2, 52776, Note_on_c, 0, 65, 0
2, 52776, Note_on_c, 0, 68, 0
2, 52776, Note_on_c, 0, 58, 0
2, 52800, Note_on_c, 0, 58, 100
2, 52800, Note_on_c, 0, 68, 100
2, 52800, Note_on_c, 0, 65, 100
2, 52800, Note_on_c, 0, 50, 100
2, 52800, Note_on_c, 0, 38, 100
2, 53256, Note_on_c, 0, 38, 0
2, 53256, Note_on_c, 0, 50, 0
2, 53256, Note_on_c, 0, 65, 0
2, 53256, Note_on_c, 0, 68, 0
2, 53256, Note_on_c, 0, 58, 0
2, 53280, Note_on_c, 0, 58, 100
2, 53280, Note_on_c, 0, 68, 100
2, 53280, Note_on_c, 0, 65, 100
2, 53280, Note_on_c, 0, 50, 100
2, 53280, Note_on_c, 0, 38, 100
2, 53736, Note_on_c, 0, 38, 0
2, 53736, Note_on_c, 0, 50, 0
2, 53736, Note_on_c, 0, 65, 0
2, 53736, Note_on_c, 0, 68, 0
2, 53736, Note_on_c, 0, 58, 0
2, 53760, Note_on_c, 0, 58, 100
2, 53760, Note_on_c, 0, 67, 100
2, 53760, Note_on_c, 0, 63, 100
2, 53760, Note_on_c, 0, 51, 100
2, 53760, Note_on_c, 0, 39, 100
2, 54216, Note_on_c, 0, 39, 0
2, 54216, Note_on_c, 0, 51, 0
2, 54216, Note_on_c, 0, 63, 0
2, 54216, Note_on_c, 0, 67, 0
2, 54216, Note_on_c, 0, 58, 0
2, 54240, Note_on_c, 0, 58, 100
2, 54240, Note_on_c, 0, 67, 100
2, 54240, Note_on_c, 0, 63, 100
2, 54240, Note_on_c, 0, 43, 100
2, 54240, Note_on_c, 0, 31, 100
2, 54408, Control_c, 0, 7, 69
2, 54696, Note_on_c, 0, 31, 0
2, 54696, Note_on_c, 0, 43, 0
2, 54696, Note_on_c, 0, 63, 0
2, 54696, Note_on_c, 0, 67, 0
2, 54696, Note_on_c, 0, 58, 0
2, 54720, Note_on_c, 0, 60, 100
2, 54720, Note_on_c, 0, 67, 100
2, 54720, Note_on_c, 0, 63, 100
2, 54720, Note_on_c, 0, 44, 100
2, 54720, Note_on_c, 0, 32, 100
2, 54744, Control_c, 0, 7, 70
2, 55056, Control_c, 0, 7, 71
2, 55176, Note_on_c, 0, 32, 0
2, 55176, Note_on_c, 0, 44, 0
2, 55176, Note_on_c, 0, 63, 0
2, 55176, Note_on_c, 0, 67, 0
2, 55176, Note_on_c, 0, 60, 0
2, 55200, Note_on_c, 0, 60, 100
2, 55200, Note_on_c, 0, 67, 100
2, 55200, Note_on_c, 0, 63, 100
2, 55200, Note_on_c, 0, 45, 100
2, 55200, Note_on_c, 0, 33, 100
2, 55392, Control_c, 0, 7, 72
2, 55656, Note_on_c, 0, 33, 0
2, 55656, Note_on_c, 0, 45, 0
2, 55656, Note_on_c, 0, 63, 0
2, 55656, Note_on_c, 0, 67, 0
2, 55656, Note_on_c, 0, 60, 0
2, 55680, Note_on_c, 0, 46, 100
2, 55680, Note_on_c, 0, 34, 100
2, 55680, Note_on_c, 0, 58, 100
2, 55680, Note_on_c, 0, 67, 100
2, 55680, Note_on_c, 0, 63, 100
2, 55728, Control_c, 0, 7, 73
2, 56040, Control_c, 0, 7, 74
2, 56136, Note_on_c, 0, 63, 0
2, 56136, Note_on_c, 0, 67, 0
2, 56136, Note_on_c, 0, 58, 0
2, 56136, Note_on_c, 0, 34, 0
2, 56136, Note_on_c, 0, 46, 0
2, 56160, Note_on_c, 0, 45, 100
2, 56160, Note_on_c, 0, 33, 100
2, 56160, Note_on_c, 0, 60, 100
2, 56160, Note_on_c, 0, 67, 100
2, 56160, Note_on_c, 0, 63, 100
2, 56376, Control_c, 0, 7, 75
2, 56616, Note_on_c, 0, 63, 0
2, 56616, Note_on_c, 0, 67, 0
2, 56616, Note_on_c, 0, 60, 0
2, 56616, Note_on_c, 0, 33, 0
2, 56616, Note_on_c, 0, 45, 0
2, 56640, Note_on_c, 0, 46, 100
2, 56640, Note_on_c, 0, 34, 100
2, 56640, Note_on_c, 0, 65, 100
2, 56640, Note_on_c, 0, 62, 100
2, 57096, Note_on_c, 0, 62, 0
2, 57096, Note_on_c, 0, 65, 0
2, 57096, Note_on_c, 0, 34, 0
2, 57096, Note_on_c, 0, 46, 0
2, 57120, Note_on_c, 0, 46, 100
2, 57120, Note_on_c, 0, 34, 100
2, 57120, Note_on_c, 0, 56, 100
2, 57120, Note_on_c, 0, 65, 100
2, 57120, Note_on_c, 0, 62, 100
2, 57576, Note_on_c, 0, 62, 0
2, 57576, Note_on_c, 0, 65, 0
2, 57576, Note_on_c, 0, 56, 0
2, 57576, Note_on_c, 0, 34, 0
2, 57576, Note_on_c, 0, 46, 0
2, 57600, Note_on_c, 0, 51, 100
2, 57600, Note_on_c, 0, 39, 100
2, 57600, Note_on_c, 0, 58, 100
2, 57600, Note_on_c, 0, 67, 100
2, 57600, Note_on_c, 0, 61, 100
2, 58056, Note_on_c, 0, 61, 0
2, 58056, Note_on_c, 0, 67, 0
2, 58056, Note_on_c, 0, 58, 0
2, 58056, Note_on_c, 0, 39, 0
2, 58056, Note_on_c, 0, 51, 0
2, 58080, Note_on_c, 0, 67, 100
2, 58080, Note_on_c, 0, 61, 100
2, 58080, Note_on_c, 0, 58, 100
2, 58080, Note_on_c, 0, 51, 100
2, 58536, Note_on_c, 0, 51, 0
2, 58536, Note_on_c, 0, 58, 0
2, 58536, Note_on_c, 0, 61, 0
2, 58536, Note_on_c, 0, 67, 0
2, 58560, Note_on_c, 0, 67, 100
2, 58560, Note_on_c, 0, 61, 100
2, 58560, Note_on_c, 0, 58, 100
2, 58560, Note_on_c, 0, 51, 100
2, 59016, Note_on_c, 0, 51, 0
2, 59016, Note_on_c, 0, 58, 0
2, 59016, Note_on_c, 0, 61, 0
2, 59016, Note_on_c, 0, 67, 0
2, 59040, Note_on_c, 0, 67, 100
2, 59040, Note_on_c, 0, 61, 100
2, 59040, Note_on_c, 0, 58, 100
2, 59040, Note_on_c, 0, 51, 100
2, 59496, Note_on_c, 0, 51, 0
2, 59496, Note_on_c, 0, 58, 0
2, 59496, Note_on_c, 0, 61, 0
2, 59496, Note_on_c, 0, 67, 0
2, 59520, Note_on_c, 0, 60, 100
2, 59520, Note_on_c, 0, 72, 100
2, 59520, Note_on_c, 0, 63, 100
2, 59520, Note_on_c, 0, 56, 100
2, 59520, Note_on_c, 0, 44, 100
2, 59520, Note_on_c, 0, 68, 100
2, 59976, Note_on_c, 0, 68, 0
2, 59976, Note_on_c, 0, 44, 0
2, 59976, Note_on_c, 0, 56, 0
2, 59976, Note_on_c, 0, 63, 0
2, 59976, Note_on_c, 0, 72, 0
2, 59976, Note_on_c, 0, 60, 0
2, 60000, Note_on_c, 0, 60, 100
2, 60000, Note_on_c, 0, 72, 100
2, 60000, Note_on_c, 0, 63, 100
2, 60000, Note_on_c, 0, 68, 100
2, 60000, Note_on_c, 0, 56, 100
2, 60000, Note_on_c, 0, 44, 100
2, 60342, Note_on_c, 0, 44, 0
2, 60342, Note_on_c, 0, 56, 0
2, 60342, Note_on_c, 0, 68, 0
2, 60342, Note_on_c, 0, 63, 0
2, 60342, Note_on_c, 0, 72, 0
2, 60342, Note_on_c, 0, 60, 0
2, 60360, Note_on_c, 0, 60, 100
2, 60360, Note_on_c, 0, 72, 100
2, 60360, Note_on_c, 0, 63, 100
2, 60360, Note_on_c, 0, 68, 100
2, 60360, Note_on_c, 0, 56, 100
2, 60360, Note_on_c, 0, 44, 100
2, 60474, Note_on_c, 0, 44, 0
2, 60474, Note_on_c, 0, 56, 0
2, 60474, Note_on_c, 0, 68, 0
2, 60474, Note_on_c, 0, 63, 0
2, 60474, Note_on_c, 0, 72, 0
2, 60474, Note_on_c, 0, 60, 0
2, 60480, Note_on_c, 0, 60, 100
2, 60480, Note_on_c, 0, 72, 100
2, 60480, Note_on_c, 0, 63, 100
2, 60480, Note_on_c, 0, 68, 100
2, 60480, Note_on_c, 0, 56, 100
2, 60480, Note_on_c, 0, 44, 100
2, 60936, Note_on_c, 0, 44, 0
2, 60936, Note_on_c, 0, 56, 0
2, 60936, Note_on_c, 0, 68, 0
2, 60936, Note_on_c, 0, 63, 0
2, 60936, Note_on_c, 0, 72, 0
2, 60936, Note_on_c, 0, 60, 0
2, 60960, Note_on_c, 0, 45, 100
2, 60960, Note_on_c, 0, 33, 100
2, 60960, Note_on_c, 0, 60, 100
2, 60960, Note_on_c, 0, 63, 100
2, 60960, Note_on_c, 0, 66, 100
2, 61416, Note_on_c, 0, 66, 0
2, 61416, Note_on_c, 0, 63, 0
2, 61416, Note_on_c, 0, 60, 0
2, 61416, Note_on_c, 0, 33, 0
2, 61416, Note_on_c, 0, 45, 0
2, 61440, Note_on_c, 0, 46, 100
2, 61440, Note_on_c, 0, 34, 100
2, 61440, Note_on_c, 0, 58, 100
2, 61440, Note_on_c, 0, 63, 100
2, 61440, Note_on_c, 0, 67, 100
2, 61896, Note_on_c, 0, 67, 0
2, 61896, Note_on_c, 0, 63, 0
2, 61896, Note_on_c, 0, 58, 0
2, 61896, Note_on_c, 0, 34, 0
2, 61896, Note_on_c, 0, 46, 0
2, 61920, Note_on_c, 0, 46, 100
2, 61920, Note_on_c, 0, 52, 100
2, 61920, Note_on_c, 0, 58, 100
2, 61920, Note_on_c, 0, 61, 100
2, 61920, Note_on_c, 0, 67, 100
2, 62376, Note_on_c, 0, 67, 0
2, 62376, Note_on_c, 0, 61, 0
2, 62376, Note_on_c, 0, 58, 0
2, 62376, Note_on_c, 0, 52, 0
2, 62376, Note_on_c, 0, 46, 0
2, 62400, Note_on_c, 0, 46, 100
2, 62400, Note_on_c, 0, 53, 100
2, 62400, Note_on_c, 0, 58, 100
2, 62400, Note_on_c, 0, 62, 100
2, 62400, Note_on_c, 0, 68, 100
2, 62856, Note_on_c, 0, 68, 0
2, 62856, Note_on_c, 0, 62, 0
2, 62856, Note_on_c, 0, 58, 0
2, 62856, Note_on_c, 0, 53, 0
2, 62856, Note_on_c, 0, 46, 0
2, 62880, Note_on_c, 0, 46, 100
2, 62880, Note_on_c, 0, 34, 100
2, 62880, Note_on_c, 0, 58, 100
2, 62880, Note_on_c, 0, 62, 100
2, 62880, Note_on_c, 0, 68, 100
2, 63336, Note_on_c, 0, 68, 0
2, 63336, Note_on_c, 0, 62, 0
2, 63336, Note_on_c, 0, 58, 0
2, 63336, Note_on_c, 0, 34, 0
2, 63336, Note_on_c, 0, 46, 0
2, 63360, Note_on_c, 0, 46, 100
2, 63360, Note_on_c, 0, 34, 100
2, 63360, Note_on_c, 0, 56, 100
2, 63360, Note_on_c, 0, 62, 100
2, 63816, Note_on_c, 0, 62, 0
2, 63816, Note_on_c, 0, 56, 0
2, 63816, Note_on_c, 0, 34, 0
2, 63816, Note_on_c, 0, 46, 0
2, 63840, Note_on_c, 0, 46, 100
2, 63840, Note_on_c, 0, 53, 100
2, 63840, Note_on_c, 0, 56, 100
2, 63840, Note_on_c, 0, 62, 100
2, 64068, Note_on_c, 0, 62, 0
2, 64068, Note_on_c, 0, 56, 0
2, 64080, Note_on_c, 0, 56, 100
2, 64080, Note_on_c, 0, 62, 100
2, 64194, Note_on_c, 0, 62, 0
2, 64194, Note_on_c, 0, 56, 0
2, 64200, Note_on_c, 0, 62, 100
2, 64200, Note_on_c, 0, 56, 100
2, 64296, Note_on_c, 0, 53, 0
2, 64296, Note_on_c, 0, 46, 0
2, 64314, Note_on_c, 0, 56, 0
2, 64314, Note_on_c, 0, 62, 0
2, 64320, Note_on_c, 0, 39, 100
2, 64320, Note_on_c, 0, 51, 100
2, 64320, Note_on_c, 0, 63, 100
2, 64320, Note_on_c, 0, 55, 100
2, 64776, Note_on_c, 0, 55, 0
2, 64776, Note_on_c, 0, 63, 0
2, 64776, Note_on_c, 0, 51, 0
2, 64776, Note_on_c, 0, 39, 0
2, 64800, Note_on_c, 0, 51, 100
2, 64800, Note_on_c, 0, 39, 100
2, 64800, Note_on_c, 0, 63, 100
2, 64800, Note_on_c, 0, 51, 100
2, 65256, Note_on_c, 0, 51, 0
2, 65256, Note_on_c, 0, 63, 0
2, 65256, Note_on_c, 0, 39, 0
2, 65256, Note_on_c, 0, 51, 0
2, 65280, Key_signature, -6, "major"
2, 65280, Key_signature, -6, "major"
2, 65280, Note_on_c, 0, 63, 100
2, 65280, Note_on_c, 0, 51, 100
2, 65280, Note_on_c, 0, 49, 100
2, 65280, Note_on_c, 0, 37, 100
2, 65736, Note_on_c, 0, 37, 0
2, 65736, Note_on_c, 0, 49, 0
2, 65736, Note_on_c, 0, 51, 0
2, 65736, Note_on_c, 0, 63, 0
2, 65760, Note_on_c, 0, 63, 100
2, 65760, Note_on_c, 0, 51, 100
2, 65760, Note_on_c, 0, 47, 100
2, 65760, Note_on_c, 0, 35, 100
2, 65988, Note_on_c, 0, 35, 0
2, 65988, Note_on_c, 0, 47, 0
2, 66000, Note_on_c, 0, 34, 100
2, 66000, Note_on_c, 0, 46, 100
2, 66216, Note_on_c, 0, 51, 0
2, 66216, Note_on_c, 0, 63, 0
2, 66228, Note_on_c, 0, 46, 0
2, 66228, Note_on_c, 0, 34, 0
2, 66240, Note_on_c, 0, 63, 100
2, 66240, Note_on_c, 0, 51, 100
2, 66240, Note_on_c, 0, 47, 100
2, 66240, Note_on_c, 0, 35, 100
2, 66696, Note_on_c, 0, 35, 0
2, 66696, Note_on_c, 0, 47, 0
2, 66696, Note_on_c, 0, 51, 0
2, 66696, Note_on_c, 0, 63, 0
2, 66720, Note_on_c, 0, 63, 100
2, 66720, Note_on_c, 0, 51, 100
2, 66720, Note_on_c, 0, 46, 100
2, 66720, Note_on_c, 0, 34, 100
2, 66948, Note_on_c, 0, 34, 0
2, 66948, Note_on_c, 0, 46, 0
2, 66960, Note_on_c, 0, 32, 100
2, 66960, Note_on_c, 0, 44, 100
2, 67176, Note_on_c, 0, 51, 0
2, 67176, Note_on_c, 0, 63, 0
2, 67188, Note_on_c, 0, 44, 0
2, 67188, Note_on_c, 0, 32, 0
2, 67200, Note_on_c, 0, 43, 100
2, 67200, Note_on_c, 0, 31, 100
2, 67200, Note_on_c, 0, 63, 100
2, 67200, Note_on_c, 0, 51, 100
2, 67656, Note_on_c, 0, 51, 0
2, 67656, Note_on_c, 0, 63, 0
2, 67680, Note_on_c, 0, 63, 100
2, 67680, Note_on_c, 0, 51, 100
2, 67908, Note_on_c, 0, 31, 0
2, 67908, Note_on_c, 0, 43, 0
2, 67920, Note_on_c, 0, 46, 100
2, 67920, Note_on_c, 0, 34, 100
2, 68136, Note_on_c, 0, 51, 0
2, 68136, Note_on_c, 0, 63, 0
2, 68148, Note_on_c, 0, 34, 0
2, 68148, Note_on_c, 0, 46, 0
2, 68160, Note_on_c, 0, 39, 100
2, 68160, Note_on_c, 0, 27, 100
2, 68160, Note_on_c, 0, 63, 100
2, 68160, Note_on_c, 0, 51, 100
2, 68616, Note_on_c, 0, 51, 0
2, 68616, Note_on_c, 0, 63, 0
2, 68616, Note_on_c, 0, 27, 0
2, 68616, Note_on_c, 0, 39, 0
2, 68640, Note_on_c, 0, 63, 100
2, 68640, Note_on_c, 0, 51, 100
2, 69096, Note_on_c, 0, 51, 0
2, 69096, Note_on_c, 0, 63, 0
2, 69120, Note_on_c, 0, 63, 100
2, 69120, Note_on_c, 0, 51, 100
2, 69120, Note_on_c, 0, 49, 100
2, 69120, Note_on_c, 0, 37, 100
2, 69576, Note_on_c, 0, 37, 0
2, 69576, Note_on_c, 0, 49, 0
2, 69576, Note_on_c, 0, 51, 0
2, 69576, Note_on_c, 0, 63, 0
2, 69600, Note_on_c, 0, 63, 100
2, 69600, Note_on_c, 0, 51, 100
2, 69600, Note_on_c, 0, 47, 100
2, 69600, Note_on_c, 0, 35, 100
2, 69828, Note_on_c, 0, 35, 0
2, 69828, Note_on_c, 0, 47, 0
2, 69840, Note_on_c, 0, 34, 100
2, 69840, Note_on_c, 0, 46, 100
2, 70056, Note_on_c, 0, 51, 0
2, 70056, Note_on_c, 0, 63, 0
2, 70068, Note_on_c, 0, 46, 0
2, 70068, Note_on_c, 0, 34, 0
2, 70080, Note_on_c, 0, 63, 100
2, 70080, Note_on_c, 0, 51, 100
2, 70080, Note_on_c, 0, 47, 100
2, 70080, Note_on_c, 0, 35, 100
2, 70536, Note_on_c, 0, 35, 0
2, 70536, Note_on_c, 0, 47, 0
2, 70536, Note_on_c, 0, 51, 0
2, 70536, Note_on_c, 0, 63, 0
2, 70560, Note_on_c, 0, 63, 100
2, 70560, Note_on_c, 0, 51, 100
2, 70560, Note_on_c, 0, 46, 100
2, 70560, Note_on_c, 0, 34, 100
2, 70788, Note_on_c, 0, 34, 0
2, 70788, Note_on_c, 0, 46, 0
2, 70800, Note_on_c, 0, 32, 100
2, 70800, Note_on_c, 0, 44, 100
2, 71016, Note_on_c, 0, 51, 0
2, 71016, Note_on_c, 0, 63, 0
2, 71028, Note_on_c, 0, 44, 0
2, 71028, Note_on_c, 0, 32, 0
2, 71040, Note_on_c, 0, 63, 100
2, 71040, Note_on_c, 0, 51, 100
2, 71040, Note_on_c, 0, 46, 100
2, 71040, Note_on_c, 0, 34, 100
2, 71496, Note_on_c, 0, 51, 0
2, 71496, Note_on_c, 0, 63, 0
2, 71520, Note_on_c, 0, 63, 100
2, 71520, Note_on_c, 0, 51, 100
2, 71976, Note_on_c, 0, 51, 0
2, 71976, Note_on_c, 0, 63, 0
2, 71976, Note_on_c, 0, 34, 0
2, 71976, Note_on_c, 0, 46, 0
2, 72000, Note_on_c, 0, 63, 100
2, 72000, Note_on_c, 0, 51, 100
2, 72000, Note_on_c, 0, 39, 100
2, 72000, Note_on_c, 0, 27, 100
2, 72456, Note_on_c, 0, 51, 0
2, 72456, Note_on_c, 0, 63, 0
2, 72480, Note_on_c, 0, 63, 100
2, 72480, Note_on_c, 0, 51, 100
2, 72936, Note_on_c, 0, 51, 0
2, 72936, Note_on_c, 0, 63, 0
2, 72936, Note_on_c, 0, 27, 0
2, 72936, Note_on_c, 0, 39, 0
2, 72960, Note_on_c, 0, 63, 100
2, 72960, Note_on_c, 0, 51, 100
2, 72960, Note_on_c, 0, 49, 100
2, 72960, Note_on_c, 0, 37, 100
2, 73416, Note_on_c, 0, 37, 0
2, 73416, Note_on_c, 0, 49, 0
2, 73416, Note_on_c, 0, 51, 0
2, 73416, Note_on_c, 0, 63, 0
2, 73440, Note_on_c, 0, 63, 100
2, 73440, Note_on_c, 0, 51, 100
2, 73440, Note_on_c, 0, 47, 100
2, 73440, Note_on_c, 0, 35, 100
2, 73668, Note_on_c, 0, 35, 0
2, 73668, Note_on_c, 0, 47, 0
2, 73680, Note_on_c, 0, 34, 100
2, 73680, Note_on_c, 0, 46, 100
2, 73896, Note_on_c, 0, 51, 0
2, 73896, Note_on_c, 0, 63, 0
2, 73908, Note_on_c, 0, 46, 0
2, 73908, Note_on_c, 0, 34, 0
2, 73920, Note_on_c, 0, 63, 100
2, 73920, Note_on_c, 0, 51, 100
2, 73920, Note_on_c, 0, 47, 100
2, 73920, Note_on_c, 0, 35, 100
2, 74376, Note_on_c, 0, 35, 0
2, 74376, Note_on_c, 0, 47, 0
2, 74376, Note_on_c, 0, 51, 0
2, 74376, Note_on_c, 0, 63, 0
2, 74400, Note_on_c, 0, 63, 100
2, 74400, Note_on_c, 0, 51, 100
2, 74400, Note_on_c, 0, 46, 100
2, 74400, Note_on_c, 0, 34, 100
2, 74628, Note_on_c, 0, 34, 0
2, 74628, Note_on_c, 0, 46, 0
2, 74640, Note_on_c, 0, 32, 100
2, 74640, Note_on_c, 0, 44, 100
2, 74856, Note_on_c, 0, 51, 0
2, 74856, Note_on_c, 0, 63, 0
2, 74868, Note_on_c, 0, 44, 0
2, 74868, Note_on_c, 0, 32, 0
2, 74880, Note_on_c, 0, 63, 100
2, 74880, Note_on_c, 0, 51, 100
2, 74880, Note_on_c, 0, 47, 100
2, 74880, Note_on_c, 0, 35, 100
2, 75336, Note_on_c, 0, 35, 0
2, 75336, Note_on_c, 0, 47, 0
2, 75336, Note_on_c, 0, 51, 0
2, 75336, Note_on_c, 0, 63, 0
2, 75360, Note_on_c, 0, 63, 100
2, 75360, Note_on_c, 0, 51, 100
2, 75360, Note_on_c, 0, 46, 100
2, 75360, Note_on_c, 0, 34, 100
2, 75588, Note_on_c, 0, 34, 0
2, 75588, Note_on_c, 0, 46, 0
2, 75600, Note_on_c, 0, 32, 100
2, 75600, Note_on_c, 0, 44, 100
2, 75816, Note_on_c, 0, 51, 0
2, 75816, Note_on_c, 0, 63, 0
2, 75828, Note_on_c, 0, 44, 0
2, 75828, Note_on_c, 0, 32, 0
2, 75840, Note_on_c, 0, 63, 100
2, 75840, Note_on_c, 0, 51, 100
2, 75840, Note_on_c, 0, 46, 100
2, 75840, Note_on_c, 0, 34, 100
2, 76296, Note_on_c, 0, 34, 0
2, 76296, Note_on_c, 0, 46, 0
2, 76296, Note_on_c, 0, 51, 0
2, 76296, Note_on_c, 0, 63, 0
2, 76320, Note_on_c, 0, 63, 100
2, 76320, Note_on_c, 0, 51, 100
2, 76320, Note_on_c, 0, 44, 100
2, 76320, Note_on_c, 0, 32, 100
2, 76548, Note_on_c, 0, 32, 0
2, 76548, Note_on_c, 0, 44, 0
2, 76560, Note_on_c, 0, 30, 100
2, 76560, Note_on_c, 0, 42, 100
2, 76776, Note_on_c, 0, 51, 0
2, 76776, Note_on_c, 0, 63, 0
2, 76788, Note_on_c, 0, 42, 0
2, 76788, Note_on_c, 0, 30, 0
2, 76800, Note_on_c, 0, 63, 100
2, 76800, Note_on_c, 0, 51, 100
2, 76800, Note_on_c, 0, 46, 100
2, 76800, Note_on_c, 0, 34, 100
2, 77256, Note_on_c, 0, 34, 0
2, 77256, Note_on_c, 0, 46, 0
2, 77256, Note_on_c, 0, 51, 0
2, 77256, Note_on_c, 0, 63, 0
2, 77280, Note_on_c, 0, 63, 100
2, 77280, Note_on_c, 0, 51, 100
2, 77280, Note_on_c, 0, 44, 100
2, 77280, Note_on_c, 0, 32, 100
2, 77508, Note_on_c, 0, 32, 0
2, 77508, Note_on_c, 0, 44, 0
2, 77520, Note_on_c, 0, 30, 100
2, 77520, Note_on_c, 0, 42, 100
2, 77736, Note_on_c, 0, 51, 0
2, 77736, Note_on_c, 0, 63, 0
2, 77748, Note_on_c, 0, 42, 0
2, 77748, Note_on_c, 0, 30, 0
2, 77760, Note_on_c, 0, 63, 100
2, 77760, Note_on_c, 0, 51, 100
2, 77760, Note_on_c, 0, 44, 100
2, 77760, Note_on_c, 0, 32, 100
2, 78216, Note_on_c, 0, 32, 0
2, 78216, Note_on_c, 0, 44, 0
2, 78216, Note_on_c, 0, 51, 0
2, 78216, Note_on_c, 0, 63, 0
2, 78240, Note_on_c, 0, 63, 100
2, 78240, Note_on_c, 0, 51, 100
2, 78240, Note_on_c, 0, 42, 100
2, 78240, Note_on_c, 0, 30, 100
2, 78468, Note_on_c, 0, 30, 0
2, 78468, Note_on_c, 0, 42, 0
2, 78480, Note_on_c, 0, 29, 100
2, 78480, Note_on_c, 0, 41, 100
2, 78696, Note_on_c, 0, 51, 0
2, 78696, Note_on_c, 0, 63, 0
2, 78708, Note_on_c, 0, 41, 0
2, 78708, Note_on_c, 0, 29, 0
2, 78720, Note_on_c, 0, 63, 100
2, 78720, Note_on_c, 0, 51, 100
2, 78720, Note_on_c, 0, 42, 100
2, 78720, Note_on_c, 0, 30, 100
2, 79176, Note_on_c, 0, 51, 0
2, 79176, Note_on_c, 0, 63, 0
2, 79200, Note_on_c, 0, 63, 100
2, 79200, Note_on_c, 0, 51, 100
2, 79656, Note_on_c, 0, 30, 0
2, 79656, Note_on_c, 0, 42, 0
2, 79656, Note_on_c, 0, 51, 0
2, 79656, Note_on_c, 0, 63, 0
2, 79680, Note_on_c, 0, 63, 100
2, 79680, Note_on_c, 0, 51, 100
2, 79680, Note_on_c, 0, 43, 100
2, 79680, Note_on_c, 0, 31, 100
2, 80136, Note_on_c, 0, 51, 0
2, 80136, Note_on_c, 0, 63, 0
2, 80160, Note_on_c, 0, 63, 100
2, 80160, Note_on_c, 0, 51, 100
2, 80616, Note_on_c, 0, 51, 0
2, 80616, Note_on_c, 0, 63, 0
2, 80616, Note_on_c, 0, 31, 0
2, 80616, Note_on_c, 0, 43, 0
2, 80640, Note_on_c, 0, 63, 100
2, 80640, Note_on_c, 0, 51, 100
2, 80640, Note_on_c, 0, 49, 100
2, 80640, Note_on_c, 0, 37, 100
2, 81096, Note_on_c, 0, 37, 0
2, 81096, Note_on_c, 0, 49, 0
2, 81096, Note_on_c, 0, 51, 0
2, 81096, Note_on_c, 0, 63, 0
2, 81120, Note_on_c, 0, 63, 100
2, 81120, Note_on_c, 0, 51, 100
2, 81120, Note_on_c, 0, 47, 100
2, 81120, Note_on_c, 0, 35, 100
2, 81348, Note_on_c, 0, 35, 0
2, 81348, Note_on_c, 0, 47, 0
2, 81360, Note_on_c, 0, 34, 100
2, 81360, Note_on_c, 0, 46, 100
2, 81576, Note_on_c, 0, 51, 0
2, 81576, Note_on_c, 0, 63, 0
2, 81588, Note_on_c, 0, 46, 0
2, 81588, Note_on_c, 0, 34, 0
2, 81600, Note_on_c, 0, 63, 100
2, 81600, Note_on_c, 0, 51, 100
2, 81600, Note_on_c, 0, 47, 100
2, 81600, Note_on_c, 0, 35, 100
2, 82056, Note_on_c, 0, 35, 0
2, 82056, Note_on_c, 0, 47, 0
2, 82056, Note_on_c, 0, 51, 0
2, 82056, Note_on_c, 0, 63, 0
2, 82080, Note_on_c, 0, 63, 100
2, 82080, Note_on_c, 0, 51, 100
2, 82080, Note_on_c, 0, 46, 100
2, 82080, Note_on_c, 0, 34, 100
2, 82308, Note_on_c, 0, 34, 0
2, 82308, Note_on_c, 0, 46, 0
2, 82320, Note_on_c, 0, 32, 100
2, 82320, Note_on_c, 0, 44, 100
2, 82536, Note_on_c, 0, 51, 0
2, 82536, Note_on_c, 0, 63, 0
2, 82548, Note_on_c, 0, 44, 0
2, 82548, Note_on_c, 0, 32, 0
2, 82560, Note_on_c, 0, 63, 100
2, 82560, Note_on_c, 0, 51, 100
2, 82560, Note_on_c, 0, 43, 100
2, 82560, Note_on_c, 0, 31, 100
2, 83016, Note_on_c, 0, 51, 0
2, 83016, Note_on_c, 0, 63, 0
2, 83040, Note_on_c, 0, 63, 100
2, 83040, Note_on_c, 0, 51, 100
2, 83268, Note_on_c, 0, 31, 0
2, 83268, Note_on_c, 0, 43, 0
2, 83280, Note_on_c, 0, 46, 100
2, 83280, Note_on_c, 0, 34, 100
2, 83496, Note_on_c, 0, 51, 0
2, 83496, Note_on_c, 0, 63, 0
2, 83508, Note_on_c, 0, 34, 0
2, 83508, Note_on_c, 0, 46, 0
2, 83520, Note_on_c, 0, 63, 100
2, 83520, Note_on_c, 0, 51, 100
2, 83520, Note_on_c, 0, 39, 100
2, 83520, Note_on_c, 0, 27, 100
2, 83976, Note_on_c, 0, 27, 0
2, 83976, Note_on_c, 0, 39, 0
2, 83976, Note_on_c, 0, 51, 0
2, 83976, Note_on_c, 0, 63, 0
2, 84000, Note_on_c, 0, 63, 100
2, 84000, Note_on_c, 0, 51, 100
2, 84456, Note_on_c, 0, 51, 0
2, 84456, Note_on_c, 0, 63, 0
2, 84480, Note_on_c, 0, 63, 100
2, 84480, Note_on_c, 0, 51, 100
2, 84480, Note_on_c, 0, 49, 100
2, 84480, Note_on_c, 0, 37, 100
2, 84936, Note_on_c, 0, 37, 0
2, 84936, Note_on_c, 0, 49, 0
2, 84936, Note_on_c, 0, 51, 0
2, 84936, Note_on_c, 0, 63, 0
2, 84960, Note_on_c, 0, 63, 100
2, 84960, Note_on_c, 0, 51, 100
2, 84960, Note_on_c, 0, 47, 100
2, 84960, Note_on_c, 0, 35, 100
2, 85188, Note_on_c, 0, 35, 0
2, 85188, Note_on_c, 0, 47, 0
2, 85200, Note_on_c, 0, 34, 100
2, 85200, Note_on_c, 0, 46, 100
2, 85416, Note_on_c, 0, 51, 0
2, 85416, Note_on_c, 0, 63, 0
2, 85428, Note_on_c, 0, 46, 0
2, 85428, Note_on_c, 0, 34, 0
2, 85440, Note_on_c, 0, 63, 100
2, 85440, Note_on_c, 0, 51, 100
2, 85440, Note_on_c, 0, 47, 100
2, 85440, Note_on_c, 0, 35, 100
2, 85896, Note_on_c, 0, 35, 0
2, 85896, Note_on_c, 0, 47, 0
2, 85896, Note_on_c, 0, 51, 0
2, 85896, Note_on_c, 0, 63, 0
2, 85920, Note_on_c, 0, 63, 100
2, 85920, Note_on_c, 0, 51, 100
2, 85920, Note_on_c, 0, 46, 100
2, 85920, Note_on_c, 0, 34, 100
2, 86148, Note_on_c, 0, 34, 0
2, 86148, Note_on_c, 0, 46, 0
2, 86160, Note_on_c, 0, 32, 100
2, 86160, Note_on_c, 0, 44, 100
2, 86376, Note_on_c, 0, 51, 0
2, 86376, Note_on_c, 0, 63, 0
2, 86388, Note_on_c, 0, 44, 0
2, 86388, Note_on_c, 0, 32, 0
2, 86400, Note_on_c, 0, 63, 100
2, 86400, Note_on_c, 0, 51, 100
2, 86400, Note_on_c, 0, 46, 100
2, 86400, Note_on_c, 0, 34, 100
2, 86856, Note_on_c, 0, 51, 0
2, 86856, Note_on_c, 0, 63, 0
2, 86880, Note_on_c, 0, 63, 100
2, 86880, Note_on_c, 0, 51, 100
2, 87336, Note_on_c, 0, 51, 0
2, 87336, Note_on_c, 0, 63, 0
2, 87336, Note_on_c, 0, 34, 0
2, 87336, Note_on_c, 0, 46, 0
2, 87360, Note_on_c, 0, 63, 100
2, 87360, Note_on_c, 0, 51, 100
2, 87360, Note_on_c, 0, 39, 100
2, 87360, Note_on_c, 0, 27, 100
2, 87816, Note_on_c, 0, 51, 0
2, 87816, Note_on_c, 0, 63, 0
2, 87840, Note_on_c, 0, 63, 100
2, 87840, Note_on_c, 0, 51, 100
2, 88296, Note_on_c, 0, 51, 0
2, 88296, Note_on_c, 0, 63, 0
2, 88296, Note_on_c, 0, 27, 0
2, 88296, Note_on_c, 0, 39, 0
2, 88320, Note_on_c, 0, 63, 100
2, 88320, Note_on_c, 0, 51, 100
2, 88320, Note_on_c, 0, 49, 100
2, 88320, Note_on_c, 0, 37, 100
2, 88776, Note_on_c, 0, 37, 0
2, 88776, Note_on_c, 0, 49, 0
2, 88776, Note_on_c, 0, 51, 0
2, 88776, Note_on_c, 0, 63, 0
2, 88800, Note_on_c, 0, 63, 100
2, 88800, Note_on_c, 0, 51, 100
2, 88800, Note_on_c, 0, 47, 100
2, 88800, Note_on_c, 0, 35, 100
2, 89028, Note_on_c, 0, 35, 0
2, 89028, Note_on_c, 0, 47, 0
2, 89040, Note_on_c, 0, 34, 100
2, 89040, Note_on_c, 0, 46, 100
2, 89256, Note_on_c, 0, 51, 0
2, 89256, Note_on_c, 0, 63, 0
2, 89268, Note_on_c, 0, 46, 0
2, 89268, Note_on_c, 0, 34, 0
2, 89280, Note_on_c, 0, 63, 100
2, 89280, Note_on_c, 0, 51, 100
2, 89280, Note_on_c, 0, 47, 100
2, 89280, Note_on_c, 0, 35, 100
2, 89736, Note_on_c, 0, 35, 0
2, 89736, Note_on_c, 0, 47, 0
2, 89736, Note_on_c, 0, 51, 0
2, 89736, Note_on_c, 0, 63, 0
2, 89760, Note_on_c, 0, 63, 100
2, 89760, Note_on_c, 0, 51, 100
2, 89760, Note_on_c, 0, 46, 100
2, 89760, Note_on_c, 0, 34, 100
2, 89988, Note_on_c, 0, 34, 0
2, 89988, Note_on_c, 0, 46, 0
2, 90000, Note_on_c, 0, 32, 100
2, 90000, Note_on_c, 0, 44, 100
2, 90216, Note_on_c, 0, 51, 0
2, 90216, Note_on_c, 0, 63, 0
2, 90228, Note_on_c, 0, 44, 0
2, 90228, Note_on_c, 0, 32, 0
2, 90240, Note_on_c, 0, 63, 100
2, 90240, Note_on_c, 0, 51, 100
2, 90240, Note_on_c, 0, 47, 100
2, 90240, Note_on_c, 0, 35, 100
2, 90696, Note_on_c, 0, 35, 0
2, 90696, Note_on_c, 0, 47, 0
2, 90696, Note_on_c, 0, 51, 0
2, 90696, Note_on_c, 0, 63, 0
2, 90720, Note_on_c, 0, 63, 100
2, 90720, Note_on_c, 0, 51, 100
2, 90720, Note_on_c, 0, 46, 100
2, 90720, Note_on_c, 0, 34, 100
2, 90948, Note_on_c, 0, 34, 0
2, 90948, Note_on_c, 0, 46, 0
2, 90960, Note_on_c, 0, 32, 100
2, 90960, Note_on_c, 0, 44, 100
2, 91176, Note_on_c, 0, 51, 0
2, 91176, Note_on_c, 0, 63, 0
2, 91188, Note_on_c, 0, 44, 0
2, 91188, Note_on_c, 0, 32, 0
2, 91200, Note_on_c, 0, 63, 100
2, 91200, Note_on_c, 0, 51, 100
2, 91200, Note_on_c, 0, 46, 100
2, 91200, Note_on_c, 0, 34, 100
2, 91656, Note_on_c, 0, 34, 0
2, 91656, Note_on_c, 0, 46, 0
2, 91656, Note_on_c, 0, 51, 0
2, 91656, Note_on_c, 0, 63, 0
2, 91680, Note_on_c, 0, 63, 100
2, 91680, Note_on_c, 0, 51, 100
2, 91680, Note_on_c, 0, 44, 100
2, 91680, Note_on_c, 0, 32, 100
2, 91908, Note_on_c, 0, 32, 0
2, 91908, Note_on_c, 0, 44, 0
2, 91920, Note_on_c, 0, 30, 100
2, 91920, Note_on_c, 0, 42, 100
2, 92136, Note_on_c, 0, 51, 0
2, 92136, Note_on_c, 0, 63, 0
2, 92148, Note_on_c, 0, 42, 0
2, 92148, Note_on_c, 0, 30, 0
2, 92160, Note_on_c, 0, 63, 100
2, 92160, Note_on_c, 0, 51, 100
2, 92160, Note_on_c, 0, 46, 100
2, 92160, Note_on_c, 0, 34, 100
2, 92616, Note_on_c, 0, 34, 0
2, 92616, Note_on_c, 0, 46, 0
2, 92616, Note_on_c, 0, 51, 0
2, 92616, Note_on_c, 0, 63, 0
2, 92640, Note_on_c, 0, 63, 100
2, 92640, Note_on_c, 0, 51, 100
2, 92640, Note_on_c, 0, 44, 100
2, 92640, Note_on_c, 0, 32, 100
2, 92868, Note_on_c, 0, 32, 0
2, 92868, Note_on_c, 0, 44, 0
2, 92880, Note_on_c, 0, 30, 100
2, 92880, Note_on_c, 0, 42, 100
2, 93096, Note_on_c, 0, 51, 0
2, 93096, Note_on_c, 0, 63, 0
2, 93108, Note_on_c, 0, 42, 0
2, 93108, Note_on_c, 0, 30, 0
2, 93120, Note_on_c, 0, 63, 100
2, 93120, Note_on_c, 0, 51, 100
2, 93120, Note_on_c, 0, 44, 100
2, 93120, Note_on_c, 0, 32, 100
2, 93576, Note_on_c, 0, 32, 0
2, 93576, Note_on_c, 0, 44, 0
2, 93576, Note_on_c, 0, 51, 0
2, 93576, Note_on_c, 0, 63, 0
2, 93600, Note_on_c, 0, 63, 100
2, 93600, Note_on_c, 0, 51, 100
2, 93600, Note_on_c, 0, 42, 100
2, 93600, Note_on_c, 0, 30, 100
2, 93828, Note_on_c, 0, 30, 0
2, 93828, Note_on_c, 0, 42, 0
2, 93840, Note_on_c, 0, 29, 100
2, 93840, Note_on_c, 0, 41, 100
2, 94056, Note_on_c, 0, 51, 0
2, 94056, Note_on_c, 0, 63, 0
2, 94068, Note_on_c, 0, 41, 0
2, 94068, Note_on_c, 0, 29, 0
2, 94080, Note_on_c, 0, 63, 100
2, 94080, Note_on_c, 0, 51, 100
2, 94080, Note_on_c, 0, 42, 100
2, 94080, Note_on_c, 0, 30, 100
2, 94536, Note_on_c, 0, 51, 0
2, 94536, Note_on_c, 0, 63, 0
2, 94560, Note_on_c, 0, 63, 100
2, 94560, Note_on_c, 0, 51, 100
2, 95016, Note_on_c, 0, 51, 0
2, 95016, Note_on_c, 0, 63, 0
2, 95016, Note_on_c, 0, 30, 0
2, 95016, Note_on_c, 0, 42, 0
2, 95040, Note_on_c, 0, 63, 100
2, 95040, Note_on_c, 0, 51, 100
2, 95040, Note_on_c, 0, 43, 100
2, 95040, Note_on_c, 0, 31, 100
2, 95496, Note_on_c, 0, 51, 0
2, 95496, Note_on_c, 0, 63, 0
2, 95520, Note_on_c, 0, 63, 100
2, 95520, Note_on_c, 0, 51, 100
2, 95976, Note_on_c, 0, 51, 0
2, 95976, Note_on_c, 0, 63, 0
2, 95976, Note_on_c, 0, 31, 0
2, 95976, Note_on_c, 0, 43, 0
2, 96000, Note_on_c, 0, 44, 127
2, 96000, Note_on_c, 0, 59, 127
2, 96000, Note_on_c, 0, 63, 127
2, 96000, Note_on_c, 0, 51, 127
2, 96228, Note_on_c, 0, 51, 0
2, 96228, Note_on_c, 0, 63, 0
2, 96240, Note_on_c, 0, 64, 100
2, 96240, Note_on_c, 0, 52, 100
2, 96468, Note_on_c, 0, 52, 0
2, 96468, Note_on_c, 0, 64, 0
2, 96480, Note_on_c, 0, 63, 100
2, 96480, Note_on_c, 0, 51, 100
2, 96708, Note_on_c, 0, 51, 0
2, 96708, Note_on_c, 0, 63, 0
2, 96720, Note_on_c, 0, 62, 100
2, 96720, Note_on_c, 0, 50, 100
2, 96948, Note_on_c, 0, 50, 0
2, 96948, Note_on_c, 0, 62, 0
2, 96960, Note_on_c, 0, 63, 100
2, 96960, Note_on_c, 0, 51, 100
2, 97188, Note_on_c, 0, 51, 0
2, 97188, Note_on_c, 0, 63, 0
2, 97200, Note_on_c, 0, 52, 100
2, 97200, Note_on_c, 0, 64, 100
2, 97428, Note_on_c, 0, 64, 0
2, 97428, Note_on_c, 0, 52, 0
2, 97440, Note_on_c, 0, 63, 100
2, 97440, Note_on_c, 0, 51, 100
2, 97668, Note_on_c, 0, 51, 0
2, 97668, Note_on_c, 0, 63, 0
2, 97680, Note_on_c, 0, 62, 100
2, 97680, Note_on_c, 0, 50, 100
2, 97896, Note_on_c, 0, 59, 0
2, 97896, Note_on_c, 0, 44, 0
2, 97908, Note_on_c, 0, 50, 0
2, 97908, Note_on_c, 0, 62, 0
2, 97920, Note_on_c, 0, 58, 127
2, 97920, Note_on_c, 0, 63, 127
2, 97920, Note_on_c, 0, 43, 127
2, 97920, Note_on_c, 0, 51, 127
2, 98148, Note_on_c, 0, 51, 0
2, 98148, Note_on_c, 0, 63, 0
2, 98160, Note_on_c, 0, 64, 100
2, 98160, Note_on_c, 0, 52, 100
2, 98388, Note_on_c, 0, 52, 0
2, 98388, Note_on_c, 0, 64, 0
2, 98400, Note_on_c, 0, 63, 100
2, 98400, Note_on_c, 0, 51, 100
2, 98628, Note_on_c, 0, 51, 0
2, 98628, Note_on_c, 0, 63, 0
2, 98640, Note_on_c, 0, 62, 100
2, 98640, Note_on_c, 0, 50, 100
2, 98868, Note_on_c, 0, 50, 0
2, 98868, Note_on_c, 0, 62, 0
2, 98880, Note_on_c, 0, 63, 100
2, 98880, Note_on_c, 0, 51, 100
2, 99108, Note_on_c, 0, 51, 0
2, 99108, Note_on_c, 0, 63, 0
2, 99120, Note_on_c, 0, 52, 100
2, 99120, Note_on_c, 0, 64, 100
2, 99348, Note_on_c, 0, 64, 0
2, 99348, Note_on_c, 0, 52, 0
2, 99360, Note_on_c, 0, 63, 100
2, 99360, Note_on_c, 0, 51, 100
2, 99588, Note_on_c, 0, 51, 0
2, 99588, Note_on_c, 0, 63, 0
2, 99600, Note_on_c, 0, 62, 100
2, 99600, Note_on_c, 0, 50, 100
2, 99816, Note_on_c, 0, 43, 0
2, 99816, Note_on_c, 0, 58, 0
2, 99828, Note_on_c, 0, 50, 0
2, 99828, Note_on_c, 0, 62, 0
2, 99840, Note_on_c, 0, 59, 127
2, 99840, Note_on_c, 0, 63, 127
2, 99840, Note_on_c, 0, 44, 127
2, 99840, Note_on_c, 0, 51, 127
2, 100068, Note_on_c, 0, 51, 0
2, 100068, Note_on_c, 0, 63, 0
2, 100080, Note_on_c, 0, 64, 100
2, 100080, Note_on_c, 0, 52, 100
2, 100308, Note_on_c, 0, 52, 0
2, 100308, Note_on_c, 0, 64, 0
2, 100320, Note_on_c, 0, 63, 100
2, 100320, Note_on_c, 0, 51, 100
2, 100548, Note_on_c, 0, 51, 0
2, 100548, Note_on_c, 0, 63, 0
2, 100560, Note_on_c, 0, 62, 100
2, 100560, Note_on_c, 0, 50, 100
2, 100788, Note_on_c, 0, 50, 0
2, 100788, Note_on_c, 0, 62, 0
2, 100800, Note_on_c, 0, 63, 100
2, 100800, Note_on_c, 0, 51, 100
2, 101028, Note_on_c, 0, 51, 0
2, 101028, Note_on_c, 0, 63, 0
2, 101040, Note_on_c, 0, 52, 100
2, 101040, Note_on_c, 0, 64, 100
2, 101268, Note_on_c, 0, 64, 0
2, 101268, Note_on_c, 0, 52, 0
2, 101280, Note_on_c, 0, 63, 100
2, 101280, Note_on_c, 0, 51, 100
2, 101508, Note_on_c, 0, 51, 0
2, 101508, Note_on_c, 0, 63, 0
2, 101520, Note_on_c, 0, 64, 100
2, 101520, Note_on_c, 0, 52, 100
2, 101736, Note_on_c, 0, 44, 0
2, 101736, Note_on_c, 0, 59, 0
2, 101748, Note_on_c, 0, 52, 0
2, 101748, Note_on_c, 0, 64, 0
2, 101760, Note_on_c, 0, 58, 127
2, 101760, Note_on_c, 0, 66, 127
2, 101760, Note_on_c, 0, 42, 127
2, 101760, Note_on_c, 0, 54, 127
2, 101988, Note_on_c, 0, 54, 0
2, 101988, Note_on_c, 0, 66, 0
2, 102000, Note_on_c, 0, 61, 100
2, 102000, Note_on_c, 0, 49, 100
2, 102228, Note_on_c, 0, 49, 0
2, 102228, Note_on_c, 0, 61, 0
2, 102240, Note_on_c, 0, 63, 100
2, 102240, Note_on_c, 0, 51, 100
2, 102468, Note_on_c, 0, 51, 0
2, 102468, Note_on_c, 0, 63, 0
2, 102480, Note_on_c, 0, 64, 100
2, 102480, Note_on_c, 0, 52, 100
2, 102708, Note_on_c, 0, 52, 0
2, 102708, Note_on_c, 0, 64, 0
2, 102708, Note_on_c, 0, 42, 0
2, 102708, Note_on_c, 0, 58, 0
2, 102720, Note_on_c, 0, 63, 127
2, 102720, Note_on_c, 0, 51, 127
2, 102720, Note_on_c, 0, 59, 127
2, 102720, Note_on_c, 0, 47, 127
2, 102948, Note_on_c, 0, 51, 0
2, 102948, Note_on_c, 0, 63, 0
2, 102960, Note_on_c, 0, 52, 100
2, 102960, Note_on_c, 0, 64, 100
2, 103188, Note_on_c, 0, 64, 0
2, 103188, Note_on_c, 0, 52, 0
2, 103200, Note_on_c, 0, 63, 100
2, 103200, Note_on_c, 0, 51, 100
2, 103428, Note_on_c, 0, 51, 0
2, 103428, Note_on_c, 0, 63, 0
2, 103440, Note_on_c, 0, 62, 100
2, 103440, Note_on_c, 0, 50, 100
2, 103668, Note_on_c, 0, 47, 0
2, 103668, Note_on_c, 0, 59, 0
2, 103668, Note_on_c, 0, 50, 0
2, 103668, Note_on_c, 0, 62, 0
2, 103680, Note_on_c, 0, 59, 127
2, 103680, Note_on_c, 0, 63, 127
2, 103680, Note_on_c, 0, 44, 127
2, 103680, Note_on_c, 0, 51, 127
2, 103908, Note_on_c, 0, 51, 0
2, 103908, Note_on_c, 0, 63, 0
2, 103920, Note_on_c, 0, 64, 100
2, 103920, Note_on_c, 0, 52, 100
2, 104148, Note_on_c, 0, 52, 0
2, 104148, Note_on_c, 0, 64, 0
2, 104160, Note_on_c, 0, 63, 100
2, 104160, Note_on_c, 0, 51, 100
2, 104388, Note_on_c, 0, 51, 0
2, 104388, Note_on_c, 0, 63, 0
2, 104400, Note_on_c, 0, 62, 100
2, 104400, Note_on_c, 0, 50, 100
2, 104628, Note_on_c, 0, 50, 0
2, 104628, Note_on_c, 0, 62, 0
2, 104640, Note_on_c, 0, 63, 100
2, 104640, Note_on_c, 0, 51, 100
2, 104868, Note_on_c, 0, 51, 0
2, 104868, Note_on_c, 0, 63, 0
2, 104880, Note_on_c, 0, 52, 100
2, 104880, Note_on_c, 0, 64, 100
2, 105108, Note_on_c, 0, 64, 0
2, 105108, Note_on_c, 0, 52, 0
2, 105120, Note_on_c, 0, 63, 100
2, 105120, Note_on_c, 0, 51, 100
2, 105348, Note_on_c, 0, 51, 0
2, 105348, Note_on_c, 0, 63, 0
2, 105360, Note_on_c, 0, 62, 100
2, 105360, Note_on_c, 0, 50, 100
2, 105576, Note_on_c, 0, 44, 0
2, 105576, Note_on_c, 0, 59, 0
2, 105588, Note_on_c, 0, 50, 0
2, 105588, Note_on_c, 0, 62, 0
2, 105600, Note_on_c, 0, 58, 127
2, 105600, Note_on_c, 0, 63, 127
2, 105600, Note_on_c, 0, 43, 127
2, 105600, Note_on_c, 0, 51, 127
2, 105828, Note_on_c, 0, 51, 0
2, 105828, Note_on_c, 0, 63, 0
2, 105840, Note_on_c, 0, 64, 100
2, 105840, Note_on_c, 0, 52, 100
2, 106068, Note_on_c, 0, 52, 0
2, 106068, Note_on_c, 0, 64, 0
2, 106080, Note_on_c, 0, 63, 100
2, 106080, Note_on_c, 0, 51, 100
2, 106308, Note_on_c, 0, 51, 0
2, 106308, Note_on_c, 0, 63, 0
2, 106320, Note_on_c, 0, 62, 100
2, 106320, Note_on_c, 0, 50, 100
2, 106548, Note_on_c, 0, 50, 0
2, 106548, Note_on_c, 0, 62, 0
2, 106560, Note_on_c, 0, 63, 100
2, 106560, Note_on_c, 0, 51, 100
2, 106788, Note_on_c, 0, 51, 0
2, 106788, Note_on_c, 0, 63, 0
2, 106800, Note_on_c, 0, 52, 100
2, 106800, Note_on_c, 0, 64, 100
2, 107028, Note_on_c, 0, 64, 0
2, 107028, Note_on_c, 0, 52, 0
2, 107040, Note_on_c, 0, 63, 100
2, 107040, Note_on_c, 0, 51, 100
2, 107268, Note_on_c, 0, 51, 0
2, 107268, Note_on_c, 0, 63, 0
2, 107280, Note_on_c, 0, 62, 100
2, 107280, Note_on_c, 0, 50, 100
2, 107496, Note_on_c, 0, 43, 0
2, 107496, Note_on_c, 0, 58, 0
2, 107508, Note_on_c, 0, 50, 0
2, 107508, Note_on_c, 0, 62, 0
2, 107520, Note_on_c, 0, 59, 127
2, 107520, Note_on_c, 0, 63, 127
2, 107520, Note_on_c, 0, 44, 127
2, 107520, Note_on_c, 0, 51, 127
2, 107748, Note_on_c, 0, 51, 0
2, 107748, Note_on_c, 0, 63, 0
2, 107760, Note_on_c, 0, 64, 100
2, 107760, Note_on_c, 0, 52, 100
2, 107988, Note_on_c, 0, 52, 0
2, 107988, Note_on_c, 0, 64, 0
2, 108000, Note_on_c, 0, 63, 100
2, 108000, Note_on_c, 0, 51, 100
2, 108228, Note_on_c, 0, 51, 0
2, 108228, Note_on_c, 0, 63, 0
2, 108240, Note_on_c, 0, 62, 100
2, 108240, Note_on_c, 0, 50, 100
2, 108468, Note_on_c, 0, 50, 0
2, 108468, Note_on_c, 0, 62, 0
2, 108480, Note_on_c, 0, 63, 100
2, 108480, Note_on_c, 0, 51, 100
2, 108708, Note_on_c, 0, 51, 0
2, 108708, Note_on_c, 0, 63, 0
2, 108720, Note_on_c, 0, 52, 100
2, 108720, Note_on_c, 0, 64, 100
2, 108948, Note_on_c, 0, 64, 0
2, 108948, Note_on_c, 0, 52, 0
2, 108960, Note_on_c, 0, 63, 100
2, 108960, Note_on_c, 0, 51, 100
2, 109188, Note_on_c, 0, 51, 0
2, 109188, Note_on_c, 0, 63, 0
2, 109200, Note_on_c, 0, 64, 100
2, 109200, Note_on_c, 0, 52, 100
2, 109416, Note_on_c, 0, 44, 0
2, 109416, Note_on_c, 0, 59, 0
2, 109428, Note_on_c, 0, 52, 0
2, 109428, Note_on_c, 0, 64, 0
2, 109440, Note_on_c, 0, 58, 127
2, 109440, Note_on_c, 0, 66, 127
2, 109440, Note_on_c, 0, 42, 127
2, 109440, Note_on_c, 0, 54, 127
2, 109668, Note_on_c, 0, 54, 0
2, 109668, Note_on_c, 0, 66, 0
2, 109680, Note_on_c, 0, 61, 100
2, 109680, Note_on_c, 0, 49, 100
2, 109908, Note_on_c, 0, 49, 0
2, 109908, Note_on_c, 0, 61, 0
2, 109920, Note_on_c, 0, 63, 100
2, 109920, Note_on_c, 0, 51, 100
2, 110148, Note_on_c, 0, 51, 0
2, 110148, Note_on_c, 0, 63, 0
2, 110160, Note_on_c, 0, 64, 100
2, 110160, Note_on_c, 0, 52, 100
2, 110388, Note_on_c, 0, 52, 0
2, 110388, Note_on_c, 0, 64, 0
2, 110388, Note_on_c, 0, 42, 0
2, 110388, Note_on_c, 0, 58, 0
2, 110400, Note_on_c, 0, 63, 127
2, 110400, Note_on_c, 0, 59, 127
2, 110400, Note_on_c, 0, 51, 127
2, 110400, Note_on_c, 0, 47, 127
2, 110448, Control_c, 0, 7, 74
2, 110496, Control_c, 0, 7, 73
2, 110544, Control_c, 0, 7, 72
2, 110616, Control_c, 0, 7, 71
2, 110628, Note_on_c, 0, 51, 0
2, 110628, Note_on_c, 0, 63, 0
2, 110640, Note_on_c, 0, 52, 100
2, 110640, Note_on_c, 0, 64, 100
2, 110664, Control_c, 0, 7, 70
2, 110712, Control_c, 0, 7, 69
2, 110784, Control_c, 0, 7, 68
2, 110832, Control_c, 0, 7, 67
2, 110868, Note_on_c, 0, 64, 0
2, 110868, Note_on_c, 0, 52, 0
2, 110880, Control_c, 0, 7, 66
2, 110880, Note_on_c, 0, 63, 100
2, 110880, Note_on_c, 0, 51, 100
2, 110952, Control_c, 0, 7, 65
2, 111000, Control_c, 0, 7, 64
2, 111048, Control_c, 0, 7, 63
2, 111108, Note_on_c, 0, 51, 0
2, 111108, Note_on_c, 0, 63, 0
2, 111120, Control_c, 0, 7, 62
2, 111120, Note_on_c, 0, 64, 100
2, 111120, Note_on_c, 0, 52, 100
2, 111168, Control_c, 0, 7, 61
2, 111216, Control_c, 0, 7, 60
2, 111348, Note_on_c, 0, 52, 0
2, 111348, Note_on_c, 0, 64, 0
2, 111348, Note_on_c, 0, 47, 0
2, 111348, Note_on_c, 0, 59, 0
2, 113280, Control_c, 0, 7, 85
2, 113280, Note_on_c, 0, 48, 127
2, 113280, Note_on_c, 0, 36, 127
2, 113280, Note_on_c, 0, 57, 100
2, 113280, Note_on_c, 0, 63, 100
2, 113280, Note_on_c, 0, 66, 100
2, 113508, Note_on_c, 0, 66, 0
2, 113508, Note_on_c, 0, 63, 0
2, 113508, Note_on_c, 0, 57, 0
2, 113520, Note_on_c, 0, 57, 100
2, 113520, Note_on_c, 0, 63, 100
2, 113520, Note_on_c, 0, 66, 100
2, 113748, Note_on_c, 0, 66, 0
2, 113748, Note_on_c, 0, 63, 0
2, 113748, Note_on_c, 0, 57, 0
2, 113760, Note_on_c, 0, 57, 100
2, 113760, Note_on_c, 0, 63, 100
2, 113760, Note_on_c, 0, 66, 100
2, 113988, Note_on_c, 0, 66, 0
2, 113988, Note_on_c, 0, 63, 0
2, 113988, Note_on_c, 0, 57, 0
2, 114000, Note_on_c, 0, 57, 100
2, 114000, Note_on_c, 0, 63, 100
2, 114000, Note_on_c, 0, 66, 100
2, 114228, Note_on_c, 0, 66, 0
2, 114228, Note_on_c, 0, 63, 0
2, 114228, Note_on_c, 0, 57, 0
2, 114240, Note_on_c, 0, 58, 100
2, 114240, Note_on_c, 0, 64, 100
2, 114240, Note_on_c, 0, 67, 100
2, 114420, Note_on_c, 0, 36, 0
2, 114420, Note_on_c, 0, 48, 0
2, 114480, Note_on_c, 0, 47, 127
2, 114480, Note_on_c, 0, 35, 127
2, 114708, Note_on_c, 0, 35, 0
2, 114708, Note_on_c, 0, 47, 0
2, 114720, Note_on_c, 0, 48, 127
2, 114720, Note_on_c, 0, 36, 127
2, 114924, Note_on_c, 0, 67, 0
2, 114924, Note_on_c, 0, 64, 0
2, 114924, Note_on_c, 0, 58, 0
2, 114960, Note_on_c, 0, 58, 100
2, 114960, Note_on_c, 0, 64, 100
2, 115176, Note_on_c, 0, 36, 0
2, 115176, Note_on_c, 0, 48, 0
2, 115188, Note_on_c, 0, 64, 0
2, 115188, Note_on_c, 0, 58, 0
2, 115200, Note_on_c, 0, 49, 127
2, 115200, Note_on_c, 0, 37, 127
2, 115440, Note_on_c, 0, 58, 100
2, 115440, Note_on_c, 0, 64, 100
2, 115440, Note_on_c, 0, 67, 100
2, 115668, Note_on_c, 0, 67, 0
2, 115668, Note_on_c, 0, 64, 0
2, 115668, Note_on_c, 0, 58, 0
2, 115680, Note_on_c, 0, 64, 100
2, 115680, Note_on_c, 0, 58, 100
2, 115680, Note_on_c, 0, 67, 100
2, 115908, Note_on_c, 0, 67, 0
2, 115908, Note_on_c, 0, 58, 0
2, 115908, Note_on_c, 0, 64, 0
2, 115920, Note_on_c, 0, 58, 100
2, 115920, Note_on_c, 0, 64, 100
2, 115920, Note_on_c, 0, 67, 100
2, 116148, Note_on_c, 0, 67, 0
2, 116148, Note_on_c, 0, 64, 0
2, 116148, Note_on_c, 0, 58, 0
2, 116160, Note_on_c, 0, 59, 100
2, 116160, Note_on_c, 0, 65, 100
2, 116160, Note_on_c, 0, 68, 100
2, 116340, Note_on_c, 0, 37, 0
2, 116340, Note_on_c, 0, 49, 0
2, 116400, Note_on_c, 0, 48, 127
2, 116400, Note_on_c, 0, 36, 127
2, 116616, Note_on_c, 0, 68, 0
2, 116616, Note_on_c, 0, 65, 0
2, 116616, Note_on_c, 0, 59, 0
2, 116628, Note_on_c, 0, 36, 0
2, 116628, Note_on_c, 0, 48, 0
2, 116640, Note_on_c, 0, 49, 127
2, 116640, Note_on_c, 0, 37, 127
2, 117096, Note_on_c, 0, 37, 0
2, 117096, Note_on_c, 0, 49, 0
2, 117120, Control_c, 0, 7, 83
2, 117120, Note_on_c, 0, 37, 100
2, 117120, Note_on_c, 0, 59, 100
2, 117120, Note_on_c, 0, 65, 100
2, 117348, Note_on_c, 0, 65, 0
2, 117348, Note_on_c, 0, 59, 0
2, 117360, Note_on_c, 0, 61, 100
2, 117576, Note_on_c, 0, 37, 0
2, 117588, Note_on_c, 0, 61, 0
2, 117600, Note_on_c, 0, 42, 100
2, 117600, Note_on_c, 0, 58, 100
2, 117600, Note_on_c, 0, 66, 100
2, 117828, Note_on_c, 0, 66, 0
2, 117828, Note_on_c, 0, 58, 0
2, 117840, Note_on_c, 0, 61, 100
2, 118056, Note_on_c, 0, 42, 0
2, 118068, Note_on_c, 0, 61, 0
2, 118080, Note_on_c, 0, 49, 100
2, 118080, Note_on_c, 0, 59, 100
2, 118080, Note_on_c, 0, 65, 100
2, 118308, Note_on_c, 0, 65, 0
2, 118308, Note_on_c, 0, 59, 0
2, 118320, Note_on_c, 0, 61, 100
2, 118536, Note_on_c, 0, 49, 0
2, 118548, Note_on_c, 0, 61, 0
2, 118560, Note_on_c, 0, 54, 100
2, 118560, Note_on_c, 0, 58, 100
2, 118560, Note_on_c, 0, 66, 100
2, 118788, Note_on_c, 0, 66, 0
2, 118788, Note_on_c, 0, 58, 0
2, 118800, Note_on_c, 0, 61, 100
2, 119016, Note_on_c, 0, 54, 0
2, 119028, Note_on_c, 0, 61, 0
2, 119040, Note_on_c, 0, 46, 100
2, 119040, Note_on_c, 0, 62, 100
2, 119040, Note_on_c, 0, 66, 100
2, 119040, Note_on_c, 0, 56, 100
2, 119268, Note_on_c, 0, 56, 0
2, 119268, Note_on_c, 0, 66, 0
2, 119268, Note_on_c, 0, 62, 0
2, 119280, Note_on_c, 0, 58, 100
2, 119508, Note_on_c, 0, 58, 0
2, 119520, Note_on_c, 0, 56, 100
2, 119520, Note_on_c, 0, 62, 100
2, 119748, Note_on_c, 0, 62, 0
2, 119748, Note_on_c, 0, 56, 0
2, 119760, Note_on_c, 0, 58, 100
2, 119976, Note_on_c, 0, 46, 0
2, 119988, Note_on_c, 0, 58, 0
2, 120000, Note_on_c, 0, 47, 100
2, 120000, Note_on_c, 0, 62, 100
2, 120000, Note_on_c, 0, 53, 100
2, 120228, Note_on_c, 0, 53, 0
2, 120228, Note_on_c, 0, 62, 0
2, 120240, Note_on_c, 0, 59, 100
2, 120468, Note_on_c, 0, 59, 0
2, 120480, Note_on_c, 0, 54, 100
2, 120480, Note_on_c, 0, 63, 100
2, 120708, Note_on_c, 0, 63, 0
2, 120708, Note_on_c, 0, 54, 0
2, 120720, Note_on_c, 0, 56, 100
2, 120936, Note_on_c, 0, 47, 0
2, 120948, Note_on_c, 0, 56, 0
2, 120960, Note_on_c, 0, 49, 100
2, 120960, Note_on_c, 0, 59, 100
2, 120960, Note_on_c, 0, 53, 100
2, 121188, Note_on_c, 0, 53, 0
2, 121188, Note_on_c, 0, 59, 0
2, 121200, Note_on_c, 0, 56, 100
2, 121416, Note_on_c, 0, 49, 0
2, 121428, Note_on_c, 0, 56, 0
2, 121440, Note_on_c, 0, 37, 100
2, 121440, Note_on_c, 0, 53, 100
2, 121440, Note_on_c, 0, 59, 100
2, 121668, Note_on_c, 0, 59, 0
2, 121668, Note_on_c, 0, 53, 0
2, 121680, Note_on_c, 0, 49, 100
2, 121896, Note_on_c, 0, 37, 0
2, 121908, Note_on_c, 0, 49, 0
2, 121920, Note_on_c, 0, 42, 100
2, 122160, Note_on_c, 0, 49, 100
2, 122388, Note_on_c, 0, 49, 0
2, 122400, Note_on_c, 0, 54, 100
2, 122400, Note_on_c, 0, 58, 100
2, 122628, Note_on_c, 0, 58, 0
2, 122628, Note_on_c, 0, 54, 0
2, 122640, Note_on_c, 0, 49, 100
2, 122856, Note_on_c, 0, 42, 0
2, 122868, Note_on_c, 0, 49, 0
2, 122880, Note_on_c, 0, 37, 100
2, 122880, Note_on_c, 0, 59, 100
2, 122880, Note_on_c, 0, 53, 100
2, 123108, Note_on_c, 0, 53, 0
2, 123108, Note_on_c, 0, 59, 0
2, 123120, Note_on_c, 0, 56, 100
2, 123348, Note_on_c, 0, 56, 0
2, 123360, Note_on_c, 0, 53, 100
2, 123360, Note_on_c, 0, 59, 100
2, 123588, Note_on_c, 0, 59, 0
2, 123588, Note_on_c, 0, 53, 0
2, 123600, Note_on_c, 0, 49, 100
2, 123816, Note_on_c, 0, 37, 0
2, 123828, Note_on_c, 0, 49, 0
2, 123840, Note_on_c, 0, 42, 100
2, 124080, Note_on_c, 0, 49, 100
2, 124308, Note_on_c, 0, 49, 0
2, 124320, Note_on_c, 0, 54, 100
2, 124320, Note_on_c, 0, 58, 100
2, 124548, Note_on_c, 0, 58, 0
2, 124548, Note_on_c, 0, 54, 0
2, 124560, Note_on_c, 0, 49, 100
2, 124776, Note_on_c, 0, 42, 0
2, 124788, Note_on_c, 0, 49, 0
2, 124800, Note_on_c, 0, 46, 100
2, 125040, Note_on_c, 0, 56, 100
2, 125268, Note_on_c, 0, 56, 0
2, 125280, Note_on_c, 0, 58, 100
2, 125280, Note_on_c, 0, 62, 100
2, 125508, Note_on_c, 0, 62, 0
2, 125508, Note_on_c, 0, 58, 0
2, 125520, Note_on_c, 0, 56, 100
2, 125736, Note_on_c, 0, 46, 0
2, 125748, Note_on_c, 0, 56, 0
2, 125760, Note_on_c, 0, 51, 100
2, 126000, Note_on_c, 0, 55, 100
2, 126228, Note_on_c, 0, 55, 0
2, 126240, Note_on_c, 0, 58, 100
2, 126240, Note_on_c, 0, 63, 100
2, 126468, Note_on_c, 0, 63, 0
2, 126468, Note_on_c, 0, 58, 0
2, 126480, Note_on_c, 0, 55, 100
2, 126696, Note_on_c, 0, 51, 0
2, 126708, Note_on_c, 0, 55, 0
2, 126720, Note_on_c, 0, 44, 100
2, 126960, Note_on_c, 0, 60, 100
2, 127176, Note_on_c, 0, 44, 0
2, 127188, Note_on_c, 0, 60, 0
2, 127200, Note_on_c, 0, 48, 100
2, 127200, Note_on_c, 0, 63, 100
2, 127200, Note_on_c, 0, 68, 100
2, 127428, Note_on_c, 0, 68, 0
2, 127428, Note_on_c, 0, 63, 0
2, 127440, Note_on_c, 0, 56, 100
2, 127656, Note_on_c, 0, 48, 0
2, 127668, Note_on_c, 0, 56, 0
2, 127680, Note_on_c, 0, 51, 100
2, 127680, Note_on_c, 0, 63, 100
2, 127680, Note_on_c, 0, 67, 100
2, 127908, Note_on_c, 0, 67, 0
2, 127908, Note_on_c, 0, 63, 0
2, 127920, Note_on_c, 0, 58, 100
2, 128136, Note_on_c, 0, 51, 0
2, 128148, Note_on_c, 0, 58, 0
2, 128160, Note_on_c, 0, 48, 100
2, 128160, Note_on_c, 0, 58, 100
2, 128160, Note_on_c, 0, 64, 100
2, 128388, Note_on_c, 0, 64, 0
2, 128388, Note_on_c, 0, 58, 0
2, 128400, Note_on_c, 0, 60, 100
2, 128616, Note_on_c, 0, 48, 0
2, 128628, Note_on_c, 0, 60, 0
2, 128640, Note_on_c, 0, 41, 100
2, 128640, Note_on_c, 0, 56, 100
2, 128640, Note_on_c, 0, 65, 100
2, 128868, Note_on_c, 0, 65, 0
2, 128868, Note_on_c, 0, 56, 0
2, 128880, Note_on_c, 0, 60, 100
2, 129096, Note_on_c, 0, 41, 0
2, 129108, Note_on_c, 0, 60, 0
2, 129120, Note_on_c, 0, 43, 100
2, 129120, Note_on_c, 0, 59, 100
2, 129120, Note_on_c, 0, 63, 100
2, 129348, Note_on_c, 0, 63, 0
2, 129348, Note_on_c, 0, 59, 0
2, 129360, Note_on_c, 0, 55, 100
2, 129576, Note_on_c, 0, 43, 0
2, 129588, Note_on_c, 0, 55, 0
2, 129600, Note_on_c, 0, 48, 100
2, 129600, Note_on_c, 0, 58, 100
2, 129600, Note_on_c, 0, 64, 100
2, 129828, Note_on_c, 0, 64, 0
2, 129828, Note_on_c, 0, 58, 0
2, 129840, Note_on_c, 0, 60, 100
2, 130056, Note_on_c, 0, 48, 0
2, 130068, Note_on_c, 0, 60, 0
2, 130080, Note_on_c, 0, 41, 100
2, 130080, Note_on_c, 0, 56, 100
2, 130080, Note_on_c, 0, 65, 100
2, 130308, Note_on_c, 0, 65, 0
2, 130308, Note_on_c, 0, 56, 0
2, 130320, Note_on_c, 0, 60, 100
2, 130536, Note_on_c, 0, 41, 0
2, 130548, Note_on_c, 0, 60, 0
2, 130560, Note_on_c, 0, 46, 100
2, 130560, Note_on_c, 0, 55, 100
2, 130560, Note_on_c, 0, 63, 100
2, 130788, Note_on_c, 0, 63, 0
2, 130788, Note_on_c, 0, 55, 0
2, 130800, Note_on_c, 0, 58, 100
2, 131016, Note_on_c, 0, 46, 0
2, 131028, Note_on_c, 0, 58, 0
2, 131040, Note_on_c, 0, 46, 100
2, 131040, Note_on_c, 0, 56, 100
2, 131040, Note_on_c, 0, 62, 100
2, 131040, Note_on_c, 0, 34, 100
2, 131268, Note_on_c, 0, 62, 0
2, 131268, Note_on_c, 0, 56, 0
2, 131280, Note_on_c, 0, 58, 100
2, 131496, Note_on_c, 0, 34, 0
2, 131496, Note_on_c, 0, 46, 0
2, 131508, Note_on_c, 0, 58, 0
2, 131520, Note_on_c, 0, 39, 100
2, 131520, Note_on_c, 0, 46, 100
2, 131520, Note_on_c, 0, 56, 100
2, 131520, Note_on_c, 0, 62, 100
2, 131748, Note_on_c, 0, 62, 0
2, 131748, Note_on_c, 0, 56, 0
2, 131760, Note_on_c, 0, 58, 100
2, 131988, Note_on_c, 0, 58, 0
2, 132000, Note_on_c, 0, 55, 100
2, 132000, Note_on_c, 0, 63, 100
2, 132228, Note_on_c, 0, 63, 0
2, 132228, Note_on_c, 0, 55, 0
2, 132240, Note_on_c, 0, 58, 100
2, 132456, Note_on_c, 0, 46, 0
2, 132456, Note_on_c, 0, 39, 0
2, 132468, Note_on_c, 0, 58, 0
2, 132480, Note_on_c, 0, 56, 100
2, 132480, Note_on_c, 0, 59, 100
2, 132480, Note_on_c, 0, 63, 100
2, 132480, Note_on_c, 0, 44, 100
2, 132936, Note_on_c, 0, 44, 0
2, 132936, Note_on_c, 0, 63, 0
2, 132936, Note_on_c, 0, 59, 0
2, 132936, Note_on_c, 0, 56, 0
2, 132960, Note_on_c, 0, 56, 100
2, 132960, Note_on_c, 0, 59, 100
2, 132960, Note_on_c, 0, 63, 100
2, 132960, Note_on_c, 0, 44, 100
2, 133188, Note_on_c, 0, 44, 0
2, 133188, Note_on_c, 0, 63, 0
2, 133188, Note_on_c, 0, 59, 0
2, 133188, Note_on_c, 0, 56, 0
2, 133200, Note_on_c, 0, 44, 100
2, 133200, Note_on_c, 0, 56, 100
2, 133200, Note_on_c, 0, 59, 100
2, 133200, Note_on_c, 0, 63, 100
2, 133428, Note_on_c, 0, 63, 0
2, 133428, Note_on_c, 0, 59, 0
2, 133428, Note_on_c, 0, 56, 0
2, 133428, Note_on_c, 0, 44, 0
2, 133440, Note_on_c, 0, 39, 100
2, 133440, Note_on_c, 0, 51, 100
2, 133440, Note_on_c, 0, 63, 100
2, 133440, Note_on_c, 0, 58, 100
2, 133440, Note_on_c, 0, 54, 100
2, 133896, Note_on_c, 0, 54, 0
2, 133896, Note_on_c, 0, 58, 0
2, 133896, Note_on_c, 0, 63, 0
2, 133896, Note_on_c, 0, 51, 0
2, 133896, Note_on_c, 0, 39, 0
2, 133920, Note_on_c, 0, 63, 100
2, 133920, Note_on_c, 0, 58, 100
2, 133920, Note_on_c, 0, 54, 100
2, 133920, Note_on_c, 0, 39, 100
2, 133920, Note_on_c, 0, 51, 100
2, 134376, Note_on_c, 0, 51, 0
2, 134376, Note_on_c, 0, 39, 0
2, 134376, Note_on_c, 0, 54, 0
2, 134376, Note_on_c, 0, 58, 0
2, 134376, Note_on_c, 0, 63, 0
2, 134400, Note_on_c, 0, 44, 100
2, 134400, Note_on_c, 0, 56, 100
2, 134400, Note_on_c, 0, 59, 100
2, 134400, Note_on_c, 0, 63, 100
2, 134856, Note_on_c, 0, 63, 0
2, 134856, Note_on_c, 0, 59, 0
2, 134856, Note_on_c, 0, 56, 0
2, 134856, Note_on_c, 0, 44, 0
2, 134880, Note_on_c, 0, 44, 100
2, 134880, Note_on_c, 0, 56, 100
2, 134880, Note_on_c, 0, 59, 100
2, 134880, Note_on_c, 0, 63, 100
2, 135108, Note_on_c, 0, 63, 0
2, 135108, Note_on_c, 0, 59, 0
2, 135108, Note_on_c, 0, 56, 0
2, 135108, Note_on_c, 0, 44, 0
2, 135120, Note_on_c, 0, 44, 100
2, 135120, Note_on_c, 0, 56, 100
2, 135120, Note_on_c, 0, 59, 100
2, 135120, Note_on_c, 0, 63, 100
2, 135348, Note_on_c, 0, 63, 0
2, 135348, Note_on_c, 0, 59, 0
2, 135348, Note_on_c, 0, 56, 0
2, 135348, Note_on_c, 0, 44, 0
2, 135360, Note_on_c, 0, 63, 100
2, 135360, Note_on_c, 0, 58, 100
2, 135360, Note_on_c, 0, 54, 100
2, 135360, Note_on_c, 0, 39, 100
2, 135360, Note_on_c, 0, 51, 100
2, 135816, Note_on_c, 0, 51, 0
2, 135816, Note_on_c, 0, 39, 0
2, 135816, Note_on_c, 0, 54, 0
2, 135816, Note_on_c, 0, 58, 0
2, 135816, Note_on_c, 0, 63, 0
2, 135840, Note_on_c, 0, 63, 100
2, 135840, Note_on_c, 0, 58, 100
2, 135840, Note_on_c, 0, 54, 100
2, 135840, Note_on_c, 0, 39, 100
2, 135840, Note_on_c, 0, 51, 100
2, 136296, Note_on_c, 0, 51, 0
2, 136296, Note_on_c, 0, 39, 0
2, 136296, Note_on_c, 0, 54, 0
2, 136296, Note_on_c, 0, 58, 0
2, 136296, Note_on_c, 0, 63, 0
2, 136320, Note_on_c, 0, 46, 100
2, 136320, Note_on_c, 0, 34, 100
2, 136320, Note_on_c, 0, 56, 100
2, 136320, Note_on_c, 0, 62, 100
2, 136548, Note_on_c, 0, 62, 0
2, 136548, Note_on_c, 0, 56, 0
2, 136560, Note_on_c, 0, 58, 100
2, 136776, Note_on_c, 0, 34, 0
2, 136776, Note_on_c, 0, 46, 0
2, 136788, Note_on_c, 0, 58, 0
2, 136800, Note_on_c, 0, 56, 100
2, 136800, Note_on_c, 0, 62, 100
2, 137028, Note_on_c, 0, 62, 0
2, 137028, Note_on_c, 0, 56, 0
2, 137040, Note_on_c, 0, 58, 100
2, 137268, Note_on_c, 0, 58, 0
2, 137280, Note_on_c, 0, 39, 100
2, 137280, Note_on_c, 0, 46, 100
2, 137280, Note_on_c, 0, 54, 100
2, 137280, Note_on_c, 0, 63, 100
2, 137508, Note_on_c, 0, 63, 0
2, 137508, Note_on_c, 0, 54, 0
2, 137520, Note_on_c, 0, 58, 100
2, 137736, Note_on_c, 0, 46, 0
2, 137736, Note_on_c, 0, 39, 0
2, 137748, Note_on_c, 0, 58, 0
2, 137760, Note_on_c, 0, 46, 100
2, 137760, Note_on_c, 0, 39, 100
2, 137760, Note_on_c, 0, 54, 100
2, 137760, Note_on_c, 0, 63, 100
2, 137988, Note_on_c, 0, 63, 0
2, 137988, Note_on_c, 0, 54, 0
2, 138000, Note_on_c, 0, 58, 100
2, 138216, Note_on_c, 0, 39, 0
2, 138216, Note_on_c, 0, 46, 0
2, 138228, Note_on_c, 0, 58, 0
2, 138240, Note_on_c, 0, 56, 100
2, 138240, Note_on_c, 0, 62, 100
2, 138240, Note_on_c, 0, 46, 100
2, 138240, Note_on_c, 0, 34, 100
2, 138468, Note_on_c, 0, 62, 0
2, 138468, Note_on_c, 0, 56, 0
2, 138480, Note_on_c, 0, 58, 100
2, 138696, Note_on_c, 0, 34, 0
2, 138696, Note_on_c, 0, 46, 0
2, 138708, Note_on_c, 0, 58, 0
2, 138720, Note_on_c, 0, 56, 100
2, 138720, Note_on_c, 0, 62, 100
2, 138948, Note_on_c, 0, 62, 0
2, 138948, Note_on_c, 0, 56, 0
2, 138960, Note_on_c, 0, 58, 100
2, 139188, Note_on_c, 0, 58, 0
2, 139200, Note_on_c, 0, 56, 100
2, 139200, Note_on_c, 0, 65, 100
2, 139200, Note_on_c, 0, 34, 100
2, 139200, Note_on_c, 0, 46, 100
2, 139428, Note_on_c, 0, 65, 0
2, 139428, Note_on_c, 0, 56, 0
2, 139440, Note_on_c, 0, 58, 100
2, 139656, Note_on_c, 0, 46, 0
2, 139656, Note_on_c, 0, 34, 0
2, 139668, Note_on_c, 0, 58, 0
2, 139680, Note_on_c, 0, 54, 100
2, 139680, Note_on_c, 0, 63, 100
2, 139680, Note_on_c, 0, 46, 100
2, 139680, Note_on_c, 0, 39, 100
2, 139908, Note_on_c, 0, 63, 0
2, 139908, Note_on_c, 0, 54, 0
2, 139920, Note_on_c, 0, 58, 100
2, 140136, Note_on_c, 0, 39, 0
2, 140136, Note_on_c, 0, 46, 0
2, 140148, Note_on_c, 0, 58, 0
2, 140160, Note_on_c, 0, 44, 100
2, 140160, Note_on_c, 0, 56, 100
2, 140160, Note_on_c, 0, 59, 100
2, 140160, Note_on_c, 0, 63, 100
2, 140616, Note_on_c, 0, 63, 0
2, 140616, Note_on_c, 0, 59, 0
2, 140616, Note_on_c, 0, 56, 0
2, 140616, Note_on_c, 0, 44, 0
2, 140640, Note_on_c, 0, 44, 100
2, 140640, Note_on_c, 0, 56, 100
2, 140640, Note_on_c, 0, 59, 100
2, 140640, Note_on_c, 0, 63, 100
2, 140868, Note_on_c, 0, 63, 0
2, 140868, Note_on_c, 0, 59, 0
2, 140868, Note_on_c, 0, 56, 0
2, 140868, Note_on_c, 0, 44, 0
2, 140880, Note_on_c, 0, 44, 100
2, 140880, Note_on_c, 0, 56, 100
2, 140880, Note_on_c, 0, 59, 100
2, 140880, Note_on_c, 0, 63, 100
2, 141108, Note_on_c, 0, 63, 0
2, 141108, Note_on_c, 0, 59, 0
2, 141108, Note_on_c, 0, 56, 0
2, 141108, Note_on_c, 0, 44, 0
2, 141120, Note_on_c, 0, 63, 100
2, 141120, Note_on_c, 0, 58, 100
2, 141120, Note_on_c, 0, 54, 100
2, 141120, Note_on_c, 0, 39, 100
2, 141120, Note_on_c, 0, 51, 100
2, 141576, Note_on_c, 0, 51, 0
2, 141576, Note_on_c, 0, 39, 0
2, 141576, Note_on_c, 0, 54, 0
2, 141576, Note_on_c, 0, 58, 0
2, 141576, Note_on_c, 0, 63, 0
2, 141600, Note_on_c, 0, 63, 100
2, 141600, Note_on_c, 0, 58, 100
2, 141600, Note_on_c, 0, 54, 100
2, 141600, Note_on_c, 0, 39, 100
2, 141600, Note_on_c, 0, 51, 100
2, 142056, Note_on_c, 0, 51, 0
2, 142056, Note_on_c, 0, 39, 0
2, 142056, Note_on_c, 0, 54, 0
2, 142056, Note_on_c, 0, 58, 0
2, 142056, Note_on_c, 0, 63, 0
2, 142080, Note_on_c, 0, 44, 100
2, 142080, Note_on_c, 0, 56, 100
2, 142080, Note_on_c, 0, 59, 100
2, 142080, Note_on_c, 0, 63, 100
2, 142536, Note_on_c, 0, 63, 0
2, 142536, Note_on_c, 0, 59, 0
2, 142536, Note_on_c, 0, 56, 0
2, 142536, Note_on_c, 0, 44, 0
2, 142560, Note_on_c, 0, 44, 100
2, 142560, Note_on_c, 0, 56, 100
2, 142560, Note_on_c, 0, 59, 100
2, 142560, Note_on_c, 0, 63, 100
2, 142788, Note_on_c, 0, 63, 0
2, 142788, Note_on_c, 0, 59, 0
2, 142788, Note_on_c, 0, 56, 0
2, 142788, Note_on_c, 0, 44, 0
2, 142800, Note_on_c, 0, 44, 100
2, 142800, Note_on_c, 0, 56, 100
2, 142800, Note_on_c, 0, 59, 100
2, 142800, Note_on_c, 0, 63, 100
2, 143028, Note_on_c, 0, 63, 0
2, 143028, Note_on_c, 0, 59, 0
2, 143028, Note_on_c, 0, 56, 0
2, 143028, Note_on_c, 0, 44, 0
2, 143040, Note_on_c, 0, 63, 100
2, 143040, Note_on_c, 0, 58, 100
2, 143040, Note_on_c, 0, 54, 100
2, 143040, Note_on_c, 0, 39, 100
2, 143040, Note_on_c, 0, 51, 100
2, 143496, Note_on_c, 0, 51, 0
2, 143496, Note_on_c, 0, 39, 0
2, 143496, Note_on_c, 0, 54, 0
2, 143496, Note_on_c, 0, 58, 0
2, 143496, Note_on_c, 0, 63, 0
2, 143520, Note_on_c, 0, 63, 100
2, 143520, Note_on_c, 0, 57, 100
2, 143520, Note_on_c, 0, 54, 100
2, 143520, Note_on_c, 0, 35, 100
2, 143520, Note_on_c, 0, 47, 100
2, 143976, Note_on_c, 0, 47, 0
2, 143976, Note_on_c, 0, 35, 0
2, 143976, Note_on_c, 0, 54, 0
2, 143976, Note_on_c, 0, 57, 0
2, 143976, Note_on_c, 0, 63, 0
2, 144000, Note_on_c, 0, 56, 100
2, 144000, Note_on_c, 0, 62, 100
2, 144000, Note_on_c, 0, 46, 100
2, 144000, Note_on_c, 0, 34, 100
2, 144228, Note_on_c, 0, 62, 0
2, 144228, Note_on_c, 0, 56, 0
2, 144240, Note_on_c, 0, 58, 100
2, 144456, Note_on_c, 0, 34, 0
2, 144456, Note_on_c, 0, 46, 0
2, 144468, Note_on_c, 0, 58, 0
2, 144480, Note_on_c, 0, 56, 100
2, 144480, Note_on_c, 0, 62, 100
2, 144708, Note_on_c, 0, 62, 0
2, 144708, Note_on_c, 0, 56, 0
2, 144720, Note_on_c, 0, 58, 100
2, 144948, Note_on_c, 0, 58, 0
2, 144960, Note_on_c, 0, 54, 100
2, 144960, Note_on_c, 0, 63, 100
2, 144960, Note_on_c, 0, 39, 100
2, 144960, Note_on_c, 0, 46, 100
2, 145188, Note_on_c, 0, 63, 0
2, 145188, Note_on_c, 0, 54, 0
2, 145200, Note_on_c, 0, 58, 100
2, 145416, Note_on_c, 0, 46, 0
2, 145416, Note_on_c, 0, 39, 0
2, 145428, Note_on_c, 0, 58, 0
2, 145440, Note_on_c, 0, 54, 100
2, 145440, Note_on_c, 0, 63, 100
2, 145440, Note_on_c, 0, 46, 100
2, 145440, Note_on_c, 0, 39, 100
2, 145668, Note_on_c, 0, 63, 0
2, 145668, Note_on_c, 0, 54, 0
2, 145680, Note_on_c, 0, 58, 100
2, 145896, Note_on_c, 0, 39, 0
2, 145896, Note_on_c, 0, 46, 0
2, 145908, Note_on_c, 0, 58, 0
2, 145920, Note_on_c, 0, 56, 100
2, 145920, Note_on_c, 0, 62, 100
2, 145920, Note_on_c, 0, 46, 100
2, 145920, Note_on_c, 0, 34, 100
2, 146148, Note_on_c, 0, 62, 0
2, 146148, Note_on_c, 0, 56, 0
2, 146160, Note_on_c, 0, 58, 100
2, 146376, Note_on_c, 0, 34, 0
2, 146376, Note_on_c, 0, 46, 0
2, 146388, Note_on_c, 0, 58, 0
2, 146400, Note_on_c, 0, 56, 100
2, 146400, Note_on_c, 0, 62, 100
2, 146628, Note_on_c, 0, 62, 0
2, 146628, Note_on_c, 0, 56, 0
2, 146640, Note_on_c, 0, 58, 100
2, 146868, Note_on_c, 0, 58, 0
2, 146880, Note_on_c, 0, 56, 100
2, 146880, Note_on_c, 0, 65, 100
2, 146880, Note_on_c, 0, 34, 100
2, 146880, Note_on_c, 0, 46, 100
2, 147108, Note_on_c, 0, 65, 0
2, 147108, Note_on_c, 0, 56, 0
2, 147120, Note_on_c, 0, 58, 100
2, 147336, Note_on_c, 0, 46, 0
2, 147336, Note_on_c, 0, 34, 0
2, 147348, Note_on_c, 0, 58, 0
2, 147360, Note_on_c, 0, 54, 100
2, 147360, Note_on_c, 0, 63, 100
2, 147360, Note_on_c, 0, 39, 100
2, 147360, Note_on_c, 0, 46, 100
2, 147588, Note_on_c, 0, 63, 0
2, 147588, Note_on_c, 0, 54, 0
2, 147600, Note_on_c, 0, 58, 100
2, 147816, Note_on_c, 0, 46, 0
2, 147816, Note_on_c, 0, 39, 0
2, 147828, Note_on_c, 0, 58, 0
2, 147840, Note_on_c, 0, 75, 100
2, 147840, Note_on_c, 0, 63, 100
2, 147840, Note_on_c, 0, 39, 100
2, 147840, Note_on_c, 0, 46, 100
2, 147840, Note_on_c, 0, 54, 100
2, 148068, Note_on_c, 0, 63, 0
2, 148068, Note_on_c, 0, 75, 0
2, 148080, Note_on_c, 0, 74, 100
2, 148296, Note_on_c, 0, 54, 0
2, 148296, Note_on_c, 0, 46, 0
2, 148296, Note_on_c, 0, 39, 0
2, 148308, Note_on_c, 0, 74, 0
2, 148320, Note_on_c, 0, 75, 100
2, 148320, Note_on_c, 0, 63, 100
2, 148320, Note_on_c, 0, 39, 100
2, 148320, Note_on_c, 0, 46, 100
2, 148320, Note_on_c, 0, 54, 100
2, 148776, Note_on_c, 0, 54, 0
2, 148776, Note_on_c, 0, 46, 0
2, 148776, Note_on_c, 0, 39, 0
2, 148776, Note_on_c, 0, 63, 0
2, 148776, Note_on_c, 0, 75, 0
2, 148800, Note_on_c, 0, 63, 100
2, 148800, Note_on_c, 0, 71, 100
2, 148800, Note_on_c, 0, 39, 100
2, 148800, Note_on_c, 0, 46, 100
2, 148800, Note_on_c, 0, 54, 100
2, 149256, Note_on_c, 0, 54, 0
2, 149256, Note_on_c, 0, 46, 0
2, 149256, Note_on_c, 0, 39, 0
2, 149256, Note_on_c, 0, 71, 0
2, 149256, Note_on_c, 0, 63, 0
2, 149280, Note_on_c, 0, 39, 100
2, 149280, Note_on_c, 0, 46, 100
2, 149280, Note_on_c, 0, 54, 100
2, 149280, Note_on_c, 0, 63, 100
2, 149280, Note_on_c, 0, 73, 100
2, 149337, Note_on_c, 0, 73, 0
2, 149340, Note_on_c, 0, 71, 100
2, 149424, Control_c, 0, 7, 82
2, 149712, Control_c, 0, 7, 81
2, 149736, Note_on_c, 0, 54, 0
2, 149736, Note_on_c, 0, 46, 0
2, 149736, Note_on_c, 0, 39, 0
2, 149760, Note_on_c, 0, 39, 100
2, 149760, Note_on_c, 0, 46, 100
2, 149760, Note_on_c, 0, 54, 100
2, 150000, Control_c, 0, 7, 80
2, 150216, Note_on_c, 0, 54, 0
2, 150216, Note_on_c, 0, 46, 0
2, 150216, Note_on_c, 0, 39, 0
2, 150216, Note_on_c, 0, 63, 0
2, 150219, Note_on_c, 0, 71, 0
2, 150240, Note_on_c, 0, 39, 100
2, 150240, Note_on_c, 0, 46, 100
2, 150240, Note_on_c, 0, 54, 100
2, 150240, Note_on_c, 0, 63, 100
2, 150240, Note_on_c, 0, 70, 100
2, 150288, Control_c, 0, 7, 79
2, 150576, Control_c, 0, 7, 78
2, 150696, Note_on_c, 0, 70, 0
2, 150696, Note_on_c, 0, 63, 0
2, 150696, Note_on_c, 0, 54, 0
2, 150696, Note_on_c, 0, 46, 0
2, 150696, Note_on_c, 0, 39, 0
2, 150720, Note_on_c, 0, 39, 100
2, 150720, Note_on_c, 0, 46, 100
2, 150720, Note_on_c, 0, 54, 100
2, 150720, Note_on_c, 0, 63, 100
2, 150720, Note_on_c, 0, 71, 100
2, 150777, Note_on_c, 0, 71, 0
2, 150780, Note_on_c, 0, 70, 100
2, 150864, Control_c, 0, 7, 77
2, 150951, Note_on_c, 0, 70, 0
2, 150960, Note_on_c, 0, 69, 100
2, 151152, Control_c, 0, 7, 76
2, 151176, Note_on_c, 0, 54, 0
2, 151176, Note_on_c, 0, 46, 0
2, 151176, Note_on_c, 0, 39, 0
2, 151188, Note_on_c, 0, 69, 0
2, 151200, Note_on_c, 0, 39, 100
2, 151200, Note_on_c, 0, 46, 100
2, 151200, Note_on_c, 0, 54, 100
2, 151200, Note_on_c, 0, 63, 100
2, 151200, Note_on_c, 0, 70, 100
2, 151439, Control_c, 0, 7, 75
2, 151656, Note_on_c, 0, 63, 0
2, 151656, Note_on_c, 0, 70, 0
2, 151656, Note_on_c, 0, 63, 0
2, 151656, Note_on_c, 0, 54, 0
2, 151656, Note_on_c, 0, 46, 0
2, 151656, Note_on_c, 0, 39, 0
2, 151680, Note_on_c, 0, 39, 100
2, 151680, Note_on_c, 0, 46, 100
2, 151680, Note_on_c, 0, 54, 100
2, 151680, Note_on_c, 0, 63, 100
2, 151680, Note_on_c, 0, 66, 100
2, 151727, Control_c, 0, 7, 74
2, 152015, Control_c, 0, 7, 73
2, 152136, Note_on_c, 0, 66, 0
2, 152136, Note_on_c, 0, 63, 0
2, 152136, Note_on_c, 0, 54, 0
2, 152136, Note_on_c, 0, 46, 0
2, 152136, Note_on_c, 0, 39, 0
2, 152160, Note_on_c, 0, 39, 100
2, 152160, Note_on_c, 0, 46, 100
2, 152160, Note_on_c, 0, 54, 100
2, 152160, Note_on_c, 0, 65, 100
2, 152303, Control_c, 0, 7, 72
2, 152591, Control_c, 0, 7, 71
2, 152616, Note_on_c, 0, 65, 0
2, 152616, Note_on_c, 0, 54, 0
2, 152616, Note_on_c, 0, 46, 0
2, 152616, Note_on_c, 0, 39, 0
2, 152640, Note_on_c, 0, 39, 100
2, 152640, Note_on_c, 0, 46, 100
2, 152640, Note_on_c, 0, 54, 100
2, 152640, Note_on_c, 0, 63, 100
2, 152879, Control_c, 0, 7, 70
2, 153096, Note_on_c, 0, 63, 0
2, 153096, Note_on_c, 0, 54, 0
2, 153096, Note_on_c, 0, 46, 0
2, 153096, Note_on_c, 0, 39, 0
2, 153600, End_track
3, 0, Start_track
3, 0, Control_c, 1, 7, 98
3, 0, Control_c, 1, 0, 0
3, 0, Control_c, 1, 32, 0
3, 0, Program_c, 1, 53
3, 0, Control_c, 1, 1, 0
3, 0, Control_c, 1, 10, 64
3, 0, Control_c, 1, 91, 0
3, 0, Control_c, 1, 93, 0
3, 0, Key_signature, -6, "major"
3, 0, Title_t, "Voice"
3, 5760, Note_on_c, 1, 75, 100
3, 6102, Note_on_c, 1, 75, 0
3, 6120, Note_on_c, 1, 74, 100
3, 6234, Note_on_c, 1, 74, 0
3, 6240, Note_on_c, 1, 75, 100
3, 6696, Note_on_c, 1, 75, 0
3, 6720, Note_on_c, 1, 71, 100
3, 7176, Note_on_c, 1, 71, 0
3, 7200, Note_on_c, 1, 71, 100
3, 8136, Note_on_c, 1, 71, 0
3, 8160, Note_on_c, 1, 70, 100
3, 8616, Note_on_c, 1, 70, 0
3, 8640, Note_on_c, 1, 70, 100
3, 8868, Note_on_c, 1, 70, 0
3, 8880, Note_on_c, 1, 69, 100
3, 9108, Note_on_c, 1, 69, 0
3, 9120, Note_on_c, 1, 70, 100
3, 9828, Note_on_c, 1, 70, 0
3, 9840, Note_on_c, 1, 66, 100
3, 10068, Note_on_c, 1, 66, 0
3, 10080, Note_on_c, 1, 65, 100
3, 10104, Control_c, 1, 7, 97
3, 10128, Control_c, 1, 7, 96
3, 10152, Control_c, 1, 7, 95
3, 10176, Control_c, 1, 7, 94
3, 10200, Control_c, 1, 7, 93
3, 10224, Control_c, 1, 7, 92
3, 10248, Control_c, 1, 7, 91
3, 10272, Control_c, 1, 7, 90
3, 10296, Control_c, 1, 7, 89
3, 10344, Control_c, 1, 7, 88
3, 10368, Control_c, 1, 7, 87
3, 10392, Control_c, 1, 7, 86
3, 10416, Control_c, 1, 7, 85
3, 10440, Control_c, 1, 7, 84
3, 10464, Control_c, 1, 7, 83
3, 10488, Control_c, 1, 7, 82
3, 10512, Control_c, 1, 7, 81
3, 10536, Control_c, 1, 7, 80
3, 10536, Note_on_c, 1, 65, 0
3, 10560, Control_c, 1, 7, 79
3, 10560, Note_on_c, 1, 63, 100
3, 10584, Control_c, 1, 7, 78
3, 10608, Control_c, 1, 7, 77
3, 10632, Control_c, 1, 7, 76
3, 10656, Control_c, 1, 7, 75
3, 10680, Control_c, 1, 7, 74
3, 10704, Control_c, 1, 7, 73
3, 10728, Control_c, 1, 7, 72
3, 10752, Control_c, 1, 7, 71
3, 10776, Control_c, 1, 7, 70
3, 10824, Control_c, 1, 7, 69
3, 10848, Control_c, 1, 7, 68
3, 10872, Control_c, 1, 7, 67
3, 10896, Control_c, 1, 7, 66
3, 10920, Control_c, 1, 7, 65
3, 10944, Control_c, 1, 7, 64
3, 10968, Control_c, 1, 7, 63
3, 10992, Control_c, 1, 7, 62
3, 11016, Control_c, 1, 7, 61
3, 11016, Note_on_c, 1, 63, 0
3, 11040, Control_c, 1, 7, 60
3, 17280, Control_c, 1, 7, 98
3, 17280, Note_on_c, 1, 75, 100
3, 17622, Note_on_c, 1, 75, 0
3, 17640, Note_on_c, 1, 74, 100
3, 17754, Note_on_c, 1, 74, 0
3, 17760, Note_on_c, 1, 75, 100
3, 18468, Note_on_c, 1, 75, 0
3, 18480, Note_on_c, 1, 71, 100
3, 18708, Note_on_c, 1, 71, 0
3, 18720, Note_on_c, 1, 71, 100
3, 19656, Note_on_c, 1, 71, 0
3, 19680, Note_on_c, 1, 70, 100
3, 20136, Note_on_c, 1, 70, 0
3, 20160, Note_on_c, 1, 70, 100
3, 20388, Note_on_c, 1, 70, 0
3, 20400, Note_on_c, 1, 69, 100
3, 20628, Note_on_c, 1, 69, 0
3, 20640, Note_on_c, 1, 70, 100
3, 21096, Note_on_c, 1, 70, 0
3, 21120, Note_on_c, 1, 66, 100
3, 21576, Note_on_c, 1, 66, 0
3, 21600, Note_on_c, 1, 70, 100
3, 22308, Note_on_c, 1, 70, 0
3, 22320, Note_on_c, 1, 70, 100
3, 22368, Control_c, 1, 7, 99
3, 22416, Control_c, 1, 7, 100
3, 22464, Control_c, 1, 7, 101
3, 22512, Control_c, 1, 7, 102
3, 22548, Note_on_c, 1, 70, 0
3, 22560, Control_c, 1, 7, 103
3, 22560, Note_on_c, 1, 70, 100
3, 22608, Control_c, 1, 7, 104
3, 22656, Control_c, 1, 7, 105
3, 22704, Control_c, 1, 7, 106
3, 22752, Control_c, 1, 7, 107
3, 22800, Control_c, 1, 7, 108
3, 22848, Control_c, 1, 7, 109
3, 22896, Control_c, 1, 7, 110
3, 23016, Note_on_c, 1, 70, 0
3, 23040, Note_on_c, 1, 70, 100
3, 23088, Control_c, 1, 7, 109
3, 23136, Control_c, 1, 7, 108
3, 23184, Control_c, 1, 7, 107
3, 23232, Control_c, 1, 7, 106
3, 23268, Note_on_c, 1, 70, 0
3, 23280, Control_c, 1, 7, 105
3, 23280, Note_on_c, 1, 68, 100
3, 23328, Control_c, 1, 7, 104
3, 23376, Control_c, 1, 7, 103
3, 23424, Control_c, 1, 7, 102
3, 23472, Control_c, 1, 7, 101
3, 23508, Note_on_c, 1, 68, 0
3, 23520, Control_c, 1, 7, 100
3, 23520, Note_on_c, 1, 66, 100
3, 23568, Control_c, 1, 7, 99
3, 23616, Control_c, 1, 7, 98
3, 23748, Note_on_c, 1, 66, 0
3, 23880, Note_on_c, 1, 70, 100
3, 23994, Note_on_c, 1, 70, 0
3, 24000, Note_on_c, 1, 70, 100
3, 24228, Note_on_c, 1, 70, 0
3, 24240, Note_on_c, 1, 68, 100
3, 24468, Note_on_c, 1, 68, 0
3, 24480, Note_on_c, 1, 66, 100
3, 24708, Note_on_c, 1, 66, 0
3, 24960, Note_on_c, 1, 66, 100
3, 25302, Note_on_c, 1, 66, 0
3, 25320, Note_on_c, 1, 66, 100
3, 25434, Note_on_c, 1, 66, 0
3, 25440, Note_on_c, 1, 66, 100
3, 25464, Control_c, 1, 7, 99
3, 25512, Control_c, 1, 7, 100
3, 25536, Control_c, 1, 7, 101
3, 25584, Control_c, 1, 7, 102
3, 25608, Control_c, 1, 7, 103
3, 25656, Control_c, 1, 7, 104
3, 25680, Control_c, 1, 7, 105
3, 25728, Control_c, 1, 7, 106
3, 25752, Control_c, 1, 7, 107
3, 25782, Note_on_c, 1, 66, 0
3, 25800, Control_c, 1, 7, 108
3, 25800, Note_on_c, 1, 65, 100
3, 25914, Note_on_c, 1, 65, 0
3, 25920, Note_on_c, 1, 65, 100
3, 25968, Control_c, 1, 7, 107
3, 26064, Control_c, 1, 7, 106
3, 26136, Control_c, 1, 7, 105
3, 26232, Control_c, 1, 7, 104
3, 26304, Control_c, 1, 7, 103
3, 26376, Note_on_c, 1, 65, 0
3, 26400, Control_c, 1, 7, 102
3, 26400, Note_on_c, 1, 63, 100
3, 26472, Control_c, 1, 7, 101
3, 26568, Control_c, 1, 7, 100
3, 26640, Control_c, 1, 7, 99
3, 26736, Control_c, 1, 7, 98
3, 26856, Note_on_c, 1, 63, 0
3, 26880, Note_on_c, 1, 61, 100
3, 26928, Control_c, 1, 7, 99
3, 26976, Control_c, 1, 7, 100
3, 27024, Control_c, 1, 7, 101
3, 27072, Control_c, 1, 7, 102
3, 27108, Note_on_c, 1, 61, 0
3, 27120, Control_c, 1, 7, 103
3, 27120, Note_on_c, 1, 65, 100
3, 27168, Control_c, 1, 7, 104
3, 27216, Control_c, 1, 7, 105
3, 27264, Control_c, 1, 7, 106
3, 27312, Control_c, 1, 7, 107
3, 27348, Note_on_c, 1, 65, 0
3, 27360, Control_c, 1, 7, 108
3, 27360, Note_on_c, 1, 68, 100
3, 27408, Control_c, 1, 7, 109
3, 27456, Control_c, 1, 7, 110
3, 27504, Control_c, 1, 7, 111
3, 27552, Control_c, 1, 7, 112
3, 27588, Note_on_c, 1, 68, 0
3, 27600, Control_c, 1, 7, 113
3, 27600, Note_on_c, 1, 71, 100
3, 27648, Control_c, 1, 7, 114
3, 27696, Control_c, 1, 7, 115
3, 27828, Note_on_c, 1, 71, 0
3, 27840, Note_on_c, 1, 71, 100
3, 27888, Control_c, 1, 7, 114
3, 27936, Control_c, 1, 7, 113
3, 27984, Control_c, 1, 7, 112
3, 28032, Control_c, 1, 7, 111
3, 28068, Note_on_c, 1, 71, 0
3, 28080, Control_c, 1, 7, 110
3, 28080, Note_on_c, 1, 70, 100
3, 28128, Control_c, 1, 7, 109
3, 28176, Control_c, 1, 7, 108
3, 28224, Control_c, 1, 7, 107
3, 28272, Control_c, 1, 7, 106
3, 28308, Note_on_c, 1, 70, 0
3, 28320, Control_c, 1, 7, 105
3, 28320, Note_on_c, 1, 70, 100
3, 28368, Control_c, 1, 7, 104
3, 28416, Control_c, 1, 7, 103
3, 28464, Control_c, 1, 7, 102
3, 28512, Control_c, 1, 7, 101
3, 28548, Note_on_c, 1, 70, 0
3, 28560, Control_c, 1, 7, 100
3, 28560, Note_on_c, 1, 68, 100
3, 28608, Control_c, 1, 7, 99
3, 28656, Control_c, 1, 7, 98
3, 28788, Note_on_c, 1, 68, 0
3, 28800, Note_on_c, 1, 68, 100
3, 28872, Control_c, 1, 7, 97
3, 28992, Control_c, 1, 7, 96
3, 29028, Note_on_c, 1, 68, 0
3, 29040, Note_on_c, 1, 66, 100
3, 29088, Control_c, 1, 7, 95
3, 29208, Control_c, 1, 7, 94
3, 29268, Note_on_c, 1, 66, 0
3, 29280, Note_on_c, 1, 66, 100
3, 29328, Control_c, 1, 7, 93
3, 29424, Control_c, 1, 7, 92
3, 29508, Note_on_c, 1, 66, 0
3, 29520, Note_on_c, 1, 65, 100
3, 29544, Control_c, 1, 7, 91
3, 29664, Control_c, 1, 7, 90
3, 29748, Note_on_c, 1, 65, 0
3, 29760, Control_c, 1, 7, 89
3, 29760, Note_on_c, 1, 65, 100
3, 29880, Control_c, 1, 7, 88
3, 30000, Control_c, 1, 7, 87
3, 30096, Control_c, 1, 7, 86
3, 30216, Control_c, 1, 7, 85
3, 30216, Note_on_c, 1, 65, 0
3, 30240, Note_on_c, 1, 63, 100
3, 30336, Control_c, 1, 7, 84
3, 30432, Control_c, 1, 7, 83
3, 30468, Note_on_c, 1, 63, 0
3, 30720, Note_on_c, 1, 63, 100
3, 31062, Note_on_c, 1, 63, 0
3, 31080, Note_on_c, 1, 65, 100
3, 31194, Note_on_c, 1, 65, 0
3, 31200, Note_on_c, 1, 66, 100
3, 31428, Note_on_c, 1, 66, 0
3, 31440, Note_on_c, 1, 68, 100
3, 31668, Note_on_c, 1, 68, 0
3, 31680, Note_on_c, 1, 66, 100
3, 32136, Note_on_c, 1, 66, 0
3, 32160, Note_on_c, 1, 63, 100
3, 32616, Note_on_c, 1, 63, 0
3, 32640, Note_on_c, 1, 63, 100
3, 32982, Note_on_c, 1, 63, 0
3, 33000, Note_on_c, 1, 65, 100
3, 33114, Note_on_c, 1, 65, 0
3, 33120, Note_on_c, 1, 66, 100
3, 33348, Note_on_c, 1, 66, 0
3, 33360, Note_on_c, 1, 68, 100
3, 33588, Note_on_c, 1, 68, 0
3, 33600, Note_on_c, 1, 66, 100
3, 34056, Note_on_c, 1, 66, 0
3, 34080, Note_on_c, 1, 63, 100
3, 34536, Note_on_c, 1, 63, 0
3, 34560, Note_on_c, 1, 62, 100
3, 34788, Note_on_c, 1, 62, 0
3, 34800, Note_on_c, 1, 63, 100
3, 35028, Note_on_c, 1, 63, 0
3, 35040, Note_on_c, 1, 65, 100
3, 35268, Note_on_c, 1, 65, 0
3, 35280, Note_on_c, 1, 66, 100
3, 35508, Note_on_c, 1, 66, 0
3, 35520, Note_on_c, 1, 63, 100
3, 35748, Note_on_c, 1, 63, 0
3, 35760, Control_c, 1, 7, 96
3, 35760, Note_on_c, 1, 70, 100
3, 35784, Control_c, 1, 7, 95
3, 35832, Control_c, 1, 7, 94
3, 35856, Control_c, 1, 7, 93
3, 35904, Control_c, 1, 7, 92
3, 35928, Control_c, 1, 7, 91
3, 35976, Control_c, 1, 7, 90
3, 36000, Control_c, 1, 7, 89
3, 36048, Control_c, 1, 7, 88
3, 36096, Control_c, 1, 7, 87
3, 36120, Control_c, 1, 7, 86
3, 36168, Control_c, 1, 7, 85
3, 36192, Control_c, 1, 7, 84
3, 36216, Note_on_c, 1, 70, 0
3, 36240, Control_c, 1, 7, 83
3, 36240, Note_on_c, 1, 63, 100
3, 36468, Note_on_c, 1, 63, 0
3, 36480, Note_on_c, 1, 62, 100
3, 36708, Note_on_c, 1, 62, 0
3, 36720, Note_on_c, 1, 63, 100
3, 36948, Note_on_c, 1, 63, 0
3, 36960, Note_on_c, 1, 65, 100
3, 37188, Note_on_c, 1, 65, 0
3, 37200, Note_on_c, 1, 66, 100
3, 37428, Note_on_c, 1, 66, 0
3, 37440, Note_on_c, 1, 65, 100
3, 37896, Note_on_c, 1, 65, 0
3, 37920, Note_on_c, 1, 63, 100
3, 38148, Note_on_c, 1, 63, 0
3, 38400, Note_on_c, 1, 63, 100
3, 38742, Note_on_c, 1, 63, 0
3, 38760, Note_on_c, 1, 65, 100
3, 38874, Note_on_c, 1, 65, 0
3, 38880, Note_on_c, 1, 66, 100
3, 39108, Note_on_c, 1, 66, 0
3, 39120, Note_on_c, 1, 68, 100
3, 39348, Note_on_c, 1, 68, 0
3, 39360, Note_on_c, 1, 66, 100
3, 39816, Note_on_c, 1, 66, 0
3, 39840, Note_on_c, 1, 63, 100
3, 40296, Note_on_c, 1, 63, 0
3, 40320, Note_on_c, 1, 63, 100
3, 40662, Note_on_c, 1, 63, 0
3, 40680, Note_on_c, 1, 65, 100
3, 40794, Note_on_c, 1, 65, 0
3, 40800, Note_on_c, 1, 66, 100
3, 41028, Note_on_c, 1, 66, 0
3, 41040, Note_on_c, 1, 68, 100
3, 41268, Note_on_c, 1, 68, 0
3, 41280, Note_on_c, 1, 66, 100
3, 41736, Note_on_c, 1, 66, 0
3, 41760, Note_on_c, 1, 63, 100
3, 42216, Note_on_c, 1, 63, 0
3, 42240, Note_on_c, 1, 62, 100
3, 42468, Note_on_c, 1, 62, 0
3, 42480, Note_on_c, 1, 63, 100
3, 42708, Note_on_c, 1, 63, 0
3, 42720, Note_on_c, 1, 65, 100
3, 42948, Note_on_c, 1, 65, 0
3, 42960, Note_on_c, 1, 66, 100
3, 43188, Note_on_c, 1, 66, 0
3, 43200, Note_on_c, 1, 63, 100
3, 43428, Note_on_c, 1, 63, 0
3, 43440, Control_c, 1, 7, 95
3, 43440, Note_on_c, 1, 70, 100
3, 43464, Control_c, 1, 7, 94
3, 43512, Control_c, 1, 7, 93
3, 43560, Control_c, 1, 7, 92
3, 43584, Control_c, 1, 7, 91
3, 43632, Control_c, 1, 7, 90
3, 43680, Control_c, 1, 7, 89
3, 43704, Control_c, 1, 7, 88
3, 43752, Control_c, 1, 7, 87
3, 43800, Control_c, 1, 7, 86
3, 43824, Control_c, 1, 7, 85
3, 43872, Control_c, 1, 7, 84
3, 43896, Note_on_c, 1, 70, 0
3, 43920, Control_c, 1, 7, 83
3, 43920, Note_on_c, 1, 63, 100
3, 44148, Note_on_c, 1, 63, 0
3, 44160, Note_on_c, 1, 62, 100
3, 44388, Note_on_c, 1, 62, 0
3, 44400, Note_on_c, 1, 63, 100
3, 44628, Note_on_c, 1, 63, 0
3, 44640, Note_on_c, 1, 65, 100
3, 44868, Note_on_c, 1, 65, 0
3, 44880, Note_on_c, 1, 66, 100
3, 45108, Note_on_c, 1, 66, 0
3, 45120, Note_on_c, 1, 65, 100
3, 45576, Note_on_c, 1, 65, 0
3, 45600, Note_on_c, 1, 63, 100
3, 45828, Note_on_c, 1, 63, 0
3, 46080, Key_signature, -3, "major"
3, 49920, Control_c, 1, 7, 112
3, 50400, Note_on_c, 1, 67, 100
3, 50640, Control_c, 1, 7, 113
3, 50742, Note_on_c, 1, 67, 0
3, 50760, Note_on_c, 1, 67, 100
3, 50832, Control_c, 1, 7, 114
3, 50874, Note_on_c, 1, 67, 0
3, 50880, Note_on_c, 1, 66, 100
3, 51024, Control_c, 1, 7, 115
3, 51108, Note_on_c, 1, 66, 0
3, 51120, Note_on_c, 1, 67, 100
3, 51240, Control_c, 1, 7, 116
3, 51348, Note_on_c, 1, 67, 0
3, 51360, Note_on_c, 1, 72, 100
3, 51432, Control_c, 1, 7, 117
3, 51624, Control_c, 1, 7, 118
3, 51702, Note_on_c, 1, 72, 0
3, 51720, Note_on_c, 1, 70, 100
3, 51834, Note_on_c, 1, 70, 0
3, 51840, Control_c, 1, 7, 119
3, 51840, Note_on_c, 1, 70, 100
3, 51984, Control_c, 1, 7, 118
3, 52248, Control_c, 1, 7, 117
3, 52488, Control_c, 1, 7, 116
3, 52752, Control_c, 1, 7, 115
3, 52776, Note_on_c, 1, 70, 0
3, 52800, Note_on_c, 1, 65, 100
3, 53016, Control_c, 1, 7, 114
3, 53256, Control_c, 1, 7, 113
3, 53520, Control_c, 1, 7, 112
3, 53736, Note_on_c, 1, 65, 0
3, 54240, Note_on_c, 1, 67, 100
3, 54582, Note_on_c, 1, 67, 0
3, 54600, Note_on_c, 1, 67, 100
3, 54714, Note_on_c, 1, 67, 0
3, 54720, Note_on_c, 1, 68, 100
3, 54948, Note_on_c, 1, 68, 0
3, 54960, Note_on_c, 1, 67, 100
3, 55188, Note_on_c, 1, 67, 0
3, 55200, Note_on_c, 1, 65, 100
3, 55542, Note_on_c, 1, 65, 0
3, 55560, Note_on_c, 1, 63, 100
3, 55674, Note_on_c, 1, 63, 0
3, 55680, Note_on_c, 1, 67, 100
3, 56616, Note_on_c, 1, 67, 0
3, 56640, Note_on_c, 1, 65, 100
3, 57576, Note_on_c, 1, 65, 0
3, 58080, Note_on_c, 1, 67, 100
3, 58422, Note_on_c, 1, 67, 0
3, 58440, Note_on_c, 1, 67, 100
3, 58554, Note_on_c, 1, 67, 0
3, 58560, Note_on_c, 1, 68, 100
3, 58902, Note_on_c, 1, 68, 0
3, 58920, Note_on_c, 1, 67, 100
3, 59034, Note_on_c, 1, 67, 0
3, 59040, Note_on_c, 1, 65, 100
3, 59382, Note_on_c, 1, 65, 0
3, 59400, Note_on_c, 1, 63, 100
3, 59514, Note_on_c, 1, 63, 0
3, 59520, Note_on_c, 1, 75, 100
3, 60708, Note_on_c, 1, 75, 0
3, 60720, Note_on_c, 1, 77, 100
3, 60834, Note_on_c, 1, 77, 0
3, 60840, Note_on_c, 1, 75, 100
3, 60954, Note_on_c, 1, 75, 0
3, 60960, Note_on_c, 1, 74, 100
3, 61302, Note_on_c, 1, 74, 0
3, 61320, Note_on_c, 1, 72, 100
3, 61434, Note_on_c, 1, 72, 0
3, 61440, Note_on_c, 1, 72, 100
3, 61782, Note_on_c, 1, 72, 0
3, 61800, Note_on_c, 1, 70, 100
3, 61914, Note_on_c, 1, 70, 0
3, 61920, Note_on_c, 1, 72, 100
3, 62262, Note_on_c, 1, 72, 0
3, 62280, Note_on_c, 1, 70, 100
3, 62394, Note_on_c, 1, 70, 0
3, 62400, Note_on_c, 1, 72, 100
3, 62742, Note_on_c, 1, 72, 0
3, 62760, Note_on_c, 1, 70, 100
3, 62874, Note_on_c, 1, 70, 0
3, 62880, Note_on_c, 1, 68, 100
3, 63222, Note_on_c, 1, 68, 0
3, 63240, Note_on_c, 1, 62, 100
3, 63354, Note_on_c, 1, 62, 0
3, 63360, Note_on_c, 1, 65, 100
3, 63432, Control_c, 1, 7, 111
3, 63528, Control_c, 1, 7, 110
3, 63624, Control_c, 1, 7, 109
3, 63720, Control_c, 1, 7, 108
3, 63840, Control_c, 1, 7, 107
3, 63936, Control_c, 1, 7, 106
3, 64032, Control_c, 1, 7, 105
3, 64152, Control_c, 1, 7, 104
3, 64248, Control_c, 1, 7, 103
3, 64296, Note_on_c, 1, 65, 0
3, 64320, Note_on_c, 1, 63, 100
3, 64344, Control_c, 1, 7, 102
3, 64440, Control_c, 1, 7, 101
3, 64560, Control_c, 1, 7, 100
3, 64656, Control_c, 1, 7, 99
3, 64752, Control_c, 1, 7, 98
3, 64776, Note_on_c, 1, 63, 0
3, 65280, Key_signature, -6, "major"
3, 65280, Note_on_c, 1, 63, 100
3, 65736, Note_on_c, 1, 63, 0
3, 65760, Note_on_c, 1, 63, 100
3, 66216, Note_on_c, 1, 63, 0
3, 66240, Note_on_c, 1, 63, 100
3, 66696, Note_on_c, 1, 63, 0
3, 66720, Note_on_c, 1, 63, 100
3, 67176, Note_on_c, 1, 63, 0
3, 67200, Note_on_c, 1, 63, 100
3, 68136, Note_on_c, 1, 63, 0
3, 68160, Note_on_c, 1, 63, 100
3, 68616, Note_on_c, 1, 63, 0
3, 69120, Note_on_c, 1, 63, 100
3, 69576, Note_on_c, 1, 63, 0
3, 69600, Note_on_c, 1, 63, 100
3, 70056, Note_on_c, 1, 63, 0
3, 70080, Note_on_c, 1, 63, 100
3, 70536, Note_on_c, 1, 63, 0
3, 70560, Note_on_c, 1, 63, 100
3, 71016, Note_on_c, 1, 63, 0
3, 71040, Note_on_c, 1, 63, 100
3, 71976, Note_on_c, 1, 63, 0
3, 72000, Note_on_c, 1, 63, 100
3, 72456, Note_on_c, 1, 63, 0
3, 72960, Note_on_c, 1, 63, 100
3, 73416, Note_on_c, 1, 63, 0
3, 73440, Note_on_c, 1, 63, 100
3, 73896, Note_on_c, 1, 63, 0
3, 73920, Note_on_c, 1, 63, 100
3, 74376, Note_on_c, 1, 63, 0
3, 74400, Note_on_c, 1, 63, 100
3, 74856, Note_on_c, 1, 63, 0
3, 74880, Note_on_c, 1, 63, 100
3, 75816, Note_on_c, 1, 63, 0
3, 75840, Note_on_c, 1, 63, 100
3, 76296, Note_on_c, 1, 63, 0
3, 76800, Note_on_c, 1, 63, 100
3, 77256, Note_on_c, 1, 63, 0
3, 77280, Note_on_c, 1, 63, 100
3, 77736, Note_on_c, 1, 63, 0
3, 77760, Note_on_c, 1, 63, 100
3, 78216, Note_on_c, 1, 63, 0
3, 78240, Note_on_c, 1, 63, 100
3, 78696, Note_on_c, 1, 63, 0
3, 78720, Note_on_c, 1, 63, 100
3, 79656, Note_on_c, 1, 63, 0
3, 79680, Note_on_c, 1, 63, 100
3, 80616, Note_on_c, 1, 63, 0
3, 80640, Note_on_c, 1, 63, 100
3, 81096, Note_on_c, 1, 63, 0
3, 81120, Note_on_c, 1, 63, 100
3, 81576, Note_on_c, 1, 63, 0
3, 81600, Note_on_c, 1, 63, 100
3, 82056, Note_on_c, 1, 63, 0
3, 82080, Note_on_c, 1, 63, 100
3, 82536, Note_on_c, 1, 63, 0
3, 82560, Note_on_c, 1, 63, 100
3, 83496, Note_on_c, 1, 63, 0
3, 83520, Note_on_c, 1, 63, 100
3, 83976, Note_on_c, 1, 63, 0
3, 84480, Note_on_c, 1, 63, 100
3, 84936, Note_on_c, 1, 63, 0
3, 84960, Note_on_c, 1, 63, 100
3, 85416, Note_on_c, 1, 63, 0
3, 85440, Note_on_c, 1, 63, 100
3, 85896, Note_on_c, 1, 63, 0
3, 85920, Note_on_c, 1, 63, 100
3, 86376, Note_on_c, 1, 63, 0
3, 86400, Note_on_c, 1, 63, 100
3, 87336, Note_on_c, 1, 63, 0
3, 87360, Note_on_c, 1, 63, 100
3, 87816, Note_on_c, 1, 63, 0
3, 88320, Note_on_c, 1, 63, 100
3, 88776, Note_on_c, 1, 63, 0
3, 88800, Note_on_c, 1, 63, 100
3, 89256, Note_on_c, 1, 63, 0
3, 89280, Note_on_c, 1, 63, 100
3, 89736, Note_on_c, 1, 63, 0
3, 89760, Note_on_c, 1, 63, 100
3, 90216, Note_on_c, 1, 63, 0
3, 90240, Note_on_c, 1, 63, 100
3, 91176, Note_on_c, 1, 63, 0
3, 91200, Note_on_c, 1, 63, 100
3, 91656, Note_on_c, 1, 63, 0
3, 92160, Note_on_c, 1, 63, 100
3, 92616, Note_on_c, 1, 63, 0
3, 92640, Note_on_c, 1, 63, 100
3, 93096, Note_on_c, 1, 63, 0
3, 93120, Note_on_c, 1, 63, 100
3, 93576, Note_on_c, 1, 63, 0
3, 93600, Note_on_c, 1, 63, 100
3, 94056, Note_on_c, 1, 63, 0
3, 94080, Note_on_c, 1, 63, 100
3, 95016, Note_on_c, 1, 63, 0
3, 95040, Note_on_c, 1, 63, 100
3, 95976, Note_on_c, 1, 63, 0
3, 96000, Note_on_c, 1, 63, 100
3, 96228, Note_on_c, 1, 63, 0
3, 96240, Note_on_c, 1, 64, 100
3, 96468, Note_on_c, 1, 64, 0
3, 96480, Note_on_c, 1, 63, 100
3, 96708, Note_on_c, 1, 63, 0
3, 96720, Note_on_c, 1, 62, 100
3, 96948, Note_on_c, 1, 62, 0
3, 96960, Note_on_c, 1, 63, 100
3, 97188, Note_on_c, 1, 63, 0
3, 97200, Note_on_c, 1, 64, 100
3, 97428, Note_on_c, 1, 64, 0
3, 97440, Note_on_c, 1, 63, 100
3, 97668, Note_on_c, 1, 63, 0
3, 97680, Note_on_c, 1, 62, 100
3, 97908, Note_on_c, 1, 62, 0
3, 97920, Note_on_c, 1, 63, 100
3, 98148, Note_on_c, 1, 63, 0
3, 98160, Note_on_c, 1, 64, 100
3, 98388, Note_on_c, 1, 64, 0
3, 98400, Note_on_c, 1, 63, 100
3, 98628, Note_on_c, 1, 63, 0
3, 98640, Note_on_c, 1, 62, 100
3, 98868, Note_on_c, 1, 62, 0
3, 98880, Note_on_c, 1, 63, 100
3, 99108, Note_on_c, 1, 63, 0
3, 99120, Note_on_c, 1, 64, 100
3, 99348, Note_on_c, 1, 64, 0
3, 99360, Note_on_c, 1, 63, 100
3, 99588, Note_on_c, 1, 63, 0
3, 99600, Note_on_c, 1, 62, 100
3, 99828, Note_on_c, 1, 62, 0
3, 99840, Note_on_c, 1, 63, 100
3, 99936, Control_c, 1, 7, 99
3, 100068, Note_on_c, 1, 63, 0
3, 100080, Note_on_c, 1, 64, 100
3, 100128, Control_c, 1, 7, 100
3, 100296, Control_c, 1, 7, 101
3, 100308, Note_on_c, 1, 64, 0
3, 100320, Note_on_c, 1, 63, 100
3, 100488, Control_c, 1, 7, 102
3, 100548, Note_on_c, 1, 63, 0
3, 100560, Note_on_c, 1, 62, 100
3, 100656, Control_c, 1, 7, 103
3, 100788, Note_on_c, 1, 62, 0
3, 100800, Note_on_c, 1, 63, 100
3, 100848, Control_c, 1, 7, 104
3, 101016, Control_c, 1, 7, 105
3, 101028, Note_on_c, 1, 63, 0
3, 101040, Note_on_c, 1, 64, 100
3, 101208, Control_c, 1, 7, 106
3, 101268, Note_on_c, 1, 64, 0
3, 101280, Note_on_c, 1, 63, 100
3, 101376, Control_c, 1, 7, 107
3, 101508, Note_on_c, 1, 63, 0
3, 101520, Note_on_c, 1, 64, 100
3, 101568, Control_c, 1, 7, 108
3, 101748, Note_on_c, 1, 64, 0
3, 101760, Note_on_c, 1, 66, 100
3, 101856, Control_c, 1, 7, 107
3, 101988, Note_on_c, 1, 66, 0
3, 102000, Note_on_c, 1, 61, 100
3, 102048, Control_c, 1, 7, 106
3, 102216, Control_c, 1, 7, 105
3, 102228, Note_on_c, 1, 61, 0
3, 102240, Note_on_c, 1, 63, 100
3, 102408, Control_c, 1, 7, 104
3, 102468, Note_on_c, 1, 63, 0
3, 102480, Note_on_c, 1, 64, 100
3, 102576, Control_c, 1, 7, 103
3, 102708, Note_on_c, 1, 64, 0
3, 102720, Note_on_c, 1, 63, 100
3, 102768, Control_c, 1, 7, 102
3, 102936, Control_c, 1, 7, 101
3, 102948, Note_on_c, 1, 63, 0
3, 102960, Note_on_c, 1, 64, 100
3, 103128, Control_c, 1, 7, 100
3, 103188, Note_on_c, 1, 64, 0
3, 103200, Note_on_c, 1, 63, 100
3, 103296, Control_c, 1, 7, 99
3, 103428, Note_on_c, 1, 63, 0
3, 103440, Note_on_c, 1, 62, 100
3, 103488, Control_c, 1, 7, 98
3, 103668, Note_on_c, 1, 62, 0
3, 103680, Note_on_c, 1, 63, 100
3, 103908, Note_on_c, 1, 63, 0
3, 103920, Note_on_c, 1, 64, 100
3, 104148, Note_on_c, 1, 64, 0
3, 104160, Note_on_c, 1, 63, 100
3, 104388, Note_on_c, 1, 63, 0
3, 104400, Note_on_c, 1, 62, 100
3, 104628, Note_on_c, 1, 62, 0
3, 104640, Note_on_c, 1, 63, 100
3, 104868, Note_on_c, 1, 63, 0
3, 104880, Note_on_c, 1, 64, 100
3, 105108, Note_on_c, 1, 64, 0
3, 105120, Note_on_c, 1, 63, 100
3, 105348, Note_on_c, 1, 63, 0
3, 105360, Note_on_c, 1, 62, 100
3, 105588, Note_on_c, 1, 62, 0
3, 105600, Note_on_c, 1, 63, 100
3, 105828, Note_on_c, 1, 63, 0
3, 105840, Note_on_c, 1, 64, 100
3, 106068, Note_on_c, 1, 64, 0
3, 106080, Note_on_c, 1, 63, 100
3, 106308, Note_on_c, 1, 63, 0
3, 106320, Note_on_c, 1, 62, 100
3, 106548, Note_on_c, 1, 62, 0
3, 106560, Note_on_c, 1, 63, 100
3, 106788, Note_on_c, 1, 63, 0
3, 106800, Note_on_c, 1, 64, 100
3, 107028, Note_on_c, 1, 64, 0
3, 107040, Note_on_c, 1, 63, 100
3, 107268, Note_on_c, 1, 63, 0
3, 107280, Note_on_c, 1, 62, 100
3, 107508, Note_on_c, 1, 62, 0
3, 107520, Note_on_c, 1, 63, 100
3, 107748, Note_on_c, 1, 63, 0
3, 107760, Note_on_c, 1, 64, 100
3, 107988, Note_on_c, 1, 64, 0
3, 108000, Note_on_c, 1, 63, 100
3, 108228, Note_on_c, 1, 63, 0
3, 108240, Note_on_c, 1, 62, 100
3, 108468, Note_on_c, 1, 62, 0
3, 108480, Note_on_c, 1, 63, 100
3, 108708, Note_on_c, 1, 63, 0
3, 108720, Note_on_c, 1, 64, 100
3, 108948, Note_on_c, 1, 64, 0
3, 108960, Note_on_c, 1, 63, 100
3, 109188, Note_on_c, 1, 63, 0
3, 109200, Note_on_c, 1, 64, 100
3, 109428, Note_on_c, 1, 64, 0
3, 109440, Note_on_c, 1, 66, 100
3, 109512, Control_c, 1, 7, 99
3, 109632, Control_c, 1, 7, 100
3, 109668, Note_on_c, 1, 66, 0
3, 109680, Note_on_c, 1, 61, 100
3, 109752, Control_c, 1, 7, 101
3, 109872, Control_c, 1, 7, 102
3, 109908, Note_on_c, 1, 61, 0
3, 109920, Note_on_c, 1, 63, 100
3, 109992, Control_c, 1, 7, 103
3, 110112, Control_c, 1, 7, 104
3, 110148, Note_on_c, 1, 63, 0
3, 110160, Note_on_c, 1, 64, 100
3, 110232, Control_c, 1, 7, 105
3, 110388, Note_on_c, 1, 64, 0
3, 110400, Note_on_c, 1, 63, 100
3, 110448, Control_c, 1, 7, 104
3, 110496, Control_c, 1, 7, 103
3, 110544, Control_c, 1, 7, 102
3, 110616, Control_c, 1, 7, 101
3, 110628, Note_on_c, 1, 63, 0
3, 110640, Note_on_c, 1, 64, 100
3, 110664, Control_c, 1, 7, 100
3, 110712, Control_c, 1, 7, 99
3, 110784, Control_c, 1, 7, 98
3, 110832, Control_c, 1, 7, 97
3, 110868, Note_on_c, 1, 64, 0
3, 110880, Control_c, 1, 7, 96
3, 110880, Note_on_c, 1, 63, 100
3, 110952, Control_c, 1, 7, 95
3, 111000, Control_c, 1, 7, 94
3, 111048, Control_c, 1, 7, 93
3, 111108, Note_on_c, 1, 63, 0
3, 111120, Control_c, 1, 7, 92
3, 111120, Note_on_c, 1, 64, 100
3, 111168, Control_c, 1, 7, 91
3, 111216, Control_c, 1, 7, 90
3, 111348, Note_on_c, 1, 64, 0
3, 113280, Control_c, 1, 7, 105
3, 113280, Note_on_c, 1, 66, 100
3, 113508, Note_on_c, 1, 66, 0
3, 113520, Note_on_c, 1, 66, 100
3, 113748, Note_on_c, 1, 66, 0
3, 113760, Note_on_c, 1, 66, 100
3, 113988, Note_on_c, 1, 66, 0
3, 114000, Note_on_c, 1, 66, 100
3, 114228, Note_on_c, 1, 66, 0
3, 114240, Note_on_c, 1, 67, 100
3, 114948, Note_on_c, 1, 67, 0
3, 114960, Note_on_c, 1, 64, 100
3, 115188, Note_on_c, 1, 64, 0
3, 115440, Note_on_c, 1, 67, 100
3, 115668, Note_on_c, 1, 67, 0
3, 115680, Note_on_c, 1, 67, 100
3, 115908, Note_on_c, 1, 67, 0
3, 115920, Note_on_c, 1, 67, 100
3, 116148, Note_on_c, 1, 67, 0
3, 116160, Note_on_c, 1, 68, 100
3, 116616, Note_on_c, 1, 68, 0
3, 116640, Note_on_c, 1, 65, 100
3, 116664, Control_c, 1, 7, 106
3, 116712, Control_c, 1, 7, 107
3, 116760, Control_c, 1, 7, 108
3, 116808, Control_c, 1, 7, 109
3, 116856, Control_c, 1, 7, 110
3, 116868, Note_on_c, 1, 65, 0
3, 116880, Note_on_c, 1, 70, 100
3, 116904, Control_c, 1, 7, 111
3, 116952, Control_c, 1, 7, 112
3, 117000, Control_c, 1, 7, 113
3, 117108, Note_on_c, 1, 70, 0
3, 117120, Note_on_c, 1, 70, 100
3, 117144, Control_c, 1, 7, 112
3, 117192, Control_c, 1, 7, 111
3, 117216, Control_c, 1, 7, 110
3, 117264, Control_c, 1, 7, 109
3, 117288, Control_c, 1, 7, 108
3, 117336, Control_c, 1, 7, 107
3, 117348, Note_on_c, 1, 70, 0
3, 117360, Control_c, 1, 7, 106
3, 117360, Note_on_c, 1, 68, 100
3, 117408, Control_c, 1, 7, 105
3, 117456, Control_c, 1, 7, 104
3, 117480, Control_c, 1, 7, 103
3, 117528, Control_c, 1, 7, 102
3, 117552, Control_c, 1, 7, 101
3, 117588, Note_on_c, 1, 68, 0
3, 117600, Note_on_c, 1, 66, 100
3, 117600, Control_c, 1, 7, 100
3, 117828, Note_on_c, 1, 66, 0
3, 117840, Note_on_c, 1, 70, 100
3, 118068, Note_on_c, 1, 70, 0
3, 118080, Note_on_c, 1, 70, 100
3, 118308, Note_on_c, 1, 70, 0
3, 118320, Note_on_c, 1, 68, 100
3, 118548, Note_on_c, 1, 68, 0
3, 118560, Note_on_c, 1, 66, 100
3, 118788, Note_on_c, 1, 66, 0
3, 119040, Note_on_c, 1, 66, 100
3, 119268, Note_on_c, 1, 66, 0
3, 119280, Note_on_c, 1, 66, 100
3, 119508, Note_on_c, 1, 66, 0
3, 119520, Note_on_c, 1, 66, 100
3, 119748, Note_on_c, 1, 66, 0
3, 119760, Note_on_c, 1, 65, 100
3, 119988, Note_on_c, 1, 65, 0
3, 120000, Note_on_c, 1, 65, 100
3, 120456, Note_on_c, 1, 65, 0
3, 120480, Note_on_c, 1, 63, 100
3, 120936, Note_on_c, 1, 63, 0
3, 120960, Note_on_c, 1, 61, 100
3, 121008, Control_c, 1, 7, 101
3, 121104, Control_c, 1, 7, 102
3, 121176, Control_c, 1, 7, 103
3, 121188, Note_on_c, 1, 61, 0
3, 121200, Note_on_c, 1, 65, 100
3, 121272, Control_c, 1, 7, 104
3, 121344, Control_c, 1, 7, 105
3, 121428, Note_on_c, 1, 65, 0
3, 121440, Control_c, 1, 7, 106
3, 121440, Note_on_c, 1, 68, 100
3, 121512, Control_c, 1, 7, 107
3, 121608, Control_c, 1, 7, 108
3, 121668, Note_on_c, 1, 68, 0
3, 121680, Control_c, 1, 7, 109
3, 121680, Note_on_c, 1, 71, 100
3, 121776, Control_c, 1, 7, 110
3, 121908, Note_on_c, 1, 71, 0
3, 121920, Note_on_c, 1, 71, 100
3, 121968, Control_c, 1, 7, 109
3, 122064, Control_c, 1, 7, 108
3, 122136, Control_c, 1, 7, 107
3, 122232, Control_c, 1, 7, 106
3, 122304, Control_c, 1, 7, 105
3, 122376, Note_on_c, 1, 71, 0
3, 122400, Note_on_c, 1, 70, 100
3, 122400, Control_c, 1, 7, 104
3, 122472, Control_c, 1, 7, 103
3, 122568, Control_c, 1, 7, 102
3, 122640, Control_c, 1, 7, 101
3, 122736, Control_c, 1, 7, 100
3, 122856, Note_on_c, 1, 70, 0
3, 122880, Note_on_c, 1, 61, 100
3, 122928, Control_c, 1, 7, 101
3, 123024, Control_c, 1, 7, 102
3, 123096, Control_c, 1, 7, 103
3, 123108, Note_on_c, 1, 61, 0
3, 123120, Note_on_c, 1, 65, 100
3, 123192, Control_c, 1, 7, 104
3, 123264, Control_c, 1, 7, 105
3, 123348, Note_on_c, 1, 65, 0
3, 123360, Control_c, 1, 7, 106
3, 123360, Note_on_c, 1, 68, 100
3, 123432, Control_c, 1, 7, 107
3, 123528, Control_c, 1, 7, 108
3, 123588, Note_on_c, 1, 68, 0
3, 123600, Control_c, 1, 7, 109
3, 123600, Note_on_c, 1, 71, 100
3, 123696, Control_c, 1, 7, 110
3, 123828, Note_on_c, 1, 71, 0
3, 123840, Note_on_c, 1, 71, 100
3, 123888, Control_c, 1, 7, 109
3, 123984, Control_c, 1, 7, 108
3, 124056, Control_c, 1, 7, 107
3, 124152, Control_c, 1, 7, 106
3, 124224, Control_c, 1, 7, 105
3, 124296, Note_on_c, 1, 71, 0
3, 124320, Control_c, 1, 7, 104
3, 124320, Note_on_c, 1, 70, 100
3, 124392, Control_c, 1, 7, 103
3, 124488, Control_c, 1, 7, 102
3, 124560, Control_c, 1, 7, 101
3, 124656, Control_c, 1, 7, 100
3, 124776, Note_on_c, 1, 70, 0
3, 124800, Note_on_c, 1, 58, 100
3, 124848, Control_c, 1, 7, 101
3, 124944, Control_c, 1, 7, 102
3, 125016, Control_c, 1, 7, 103
3, 125028, Note_on_c, 1, 58, 0
3, 125040, Note_on_c, 1, 62, 100
3, 125112, Control_c, 1, 7, 104
3, 125184, Control_c, 1, 7, 105
3, 125268, Note_on_c, 1, 62, 0
3, 125280, Control_c, 1, 7, 106
3, 125280, Note_on_c, 1, 65, 100
3, 125352, Control_c, 1, 7, 107
3, 125448, Control_c, 1, 7, 108
3, 125508, Note_on_c, 1, 65, 0
3, 125520, Control_c, 1, 7, 109
3, 125520, Note_on_c, 1, 68, 100
3, 125616, Control_c, 1, 7, 110
3, 125748, Note_on_c, 1, 68, 0
3, 125760, Note_on_c, 1, 68, 100
3, 125808, Control_c, 1, 7, 109
3, 125904, Control_c, 1, 7, 108
3, 125976, Control_c, 1, 7, 107
3, 126072, Control_c, 1, 7, 106
3, 126144, Control_c, 1, 7, 105
3, 126216, Note_on_c, 1, 68, 0
3, 126240, Control_c, 1, 7, 104
3, 126240, Note_on_c, 1, 67, 100
3, 126312, Control_c, 1, 7, 103
3, 126408, Control_c, 1, 7, 102
3, 126480, Control_c, 1, 7, 101
3, 126576, Control_c, 1, 7, 100
3, 126696, Note_on_c, 1, 67, 0
3, 126720, Note_on_c, 1, 63, 100
3, 126948, Note_on_c, 1, 63, 0
3, 126960, Note_on_c, 1, 75, 100
3, 127188, Note_on_c, 1, 75, 0
3, 127200, Note_on_c, 1, 74, 100
3, 127428, Note_on_c, 1, 74, 0
3, 127440, Note_on_c, 1, 72, 100
3, 127668, Note_on_c, 1, 72, 0
3, 127680, Note_on_c, 1, 70, 100
3, 128136, Note_on_c, 1, 70, 0
3, 128160, Note_on_c, 1, 72, 100
3, 128388, Note_on_c, 1, 72, 0
3, 128400, Note_on_c, 1, 70, 100
3, 128628, Note_on_c, 1, 70, 0
3, 128640, Note_on_c, 1, 68, 100
3, 128868, Note_on_c, 1, 68, 0
3, 128880, Note_on_c, 1, 68, 100
3, 129108, Note_on_c, 1, 68, 0
3, 129120, Note_on_c, 1, 67, 100
3, 129348, Note_on_c, 1, 67, 0
3, 129360, Note_on_c, 1, 65, 100
3, 129588, Note_on_c, 1, 65, 0
3, 129600, Note_on_c, 1, 67, 100
3, 129828, Note_on_c, 1, 67, 0
3, 129840, Note_on_c, 1, 68, 100
3, 129897, Note_on_c, 1, 68, 0
3, 129900, Note_on_c, 1, 67, 100
3, 129957, Note_on_c, 1, 67, 0
3, 129960, Note_on_c, 1, 65, 100
3, 130017, Note_on_c, 1, 65, 0
3, 130020, Note_on_c, 1, 67, 100
3, 130077, Note_on_c, 1, 67, 0
3, 130080, Note_on_c, 1, 70, 100
3, 130308, Note_on_c, 1, 70, 0
3, 130320, Note_on_c, 1, 68, 100
3, 130548, Note_on_c, 1, 68, 0
3, 130560, Note_on_c, 1, 67, 100
3, 130788, Note_on_c, 1, 67, 0
3, 130800, Note_on_c, 1, 67, 100
3, 131028, Note_on_c, 1, 67, 0
3, 131040, Note_on_c, 1, 67, 100
3, 131268, Note_on_c, 1, 67, 0
3, 131280, Note_on_c, 1, 65, 100
3, 131508, Note_on_c, 1, 65, 0
3, 131520, Note_on_c, 1, 65, 100
3, 131568, Control_c, 1, 7, 99
3, 131664, Control_c, 1, 7, 98
3, 131736, Control_c, 1, 7, 97
3, 131832, Control_c, 1, 7, 96
3, 131904, Control_c, 1, 7, 95
3, 131976, Note_on_c, 1, 65, 0
3, 132000, Control_c, 1, 7, 94
3, 132000, Note_on_c, 1, 63, 100
3, 132072, Control_c, 1, 7, 93
3, 132168, Control_c, 1, 7, 92
3, 132240, Control_c, 1, 7, 91
3, 132336, Control_c, 1, 7, 90
3, 132456, Note_on_c, 1, 63, 0
3, 132480, Note_on_c, 1, 63, 100
3, 132822, Note_on_c, 1, 63, 0
3, 132840, Note_on_c, 1, 65, 100
3, 132954, Note_on_c, 1, 65, 0
3, 132960, Note_on_c, 1, 66, 100
3, 133188, Note_on_c, 1, 66, 0
3, 133200, Note_on_c, 1, 68, 100
3, 133428, Note_on_c, 1, 68, 0
3, 133440, Note_on_c, 1, 66, 100
3, 133896, Note_on_c, 1, 66, 0
3, 133920, Note_on_c, 1, 63, 100
3, 134376, Note_on_c, 1, 63, 0
3, 134400, Note_on_c, 1, 63, 100
3, 134742, Note_on_c, 1, 63, 0
3, 134760, Note_on_c, 1, 65, 100
3, 134874, Note_on_c, 1, 65, 0
3, 134880, Note_on_c, 1, 66, 100
3, 135108, Note_on_c, 1, 66, 0
3, 135120, Note_on_c, 1, 68, 100
3, 135348, Note_on_c, 1, 68, 0
3, 135360, Note_on_c, 1, 66, 100
3, 135816, Note_on_c, 1, 66, 0
3, 135840, Note_on_c, 1, 63, 100
3, 136296, Note_on_c, 1, 63, 0
3, 136320, Note_on_c, 1, 62, 100
3, 136548, Note_on_c, 1, 62, 0
3, 136560, Note_on_c, 1, 63, 100
3, 136788, Note_on_c, 1, 63, 0
3, 136800, Note_on_c, 1, 65, 100
3, 137028, Note_on_c, 1, 65, 0
3, 137040, Note_on_c, 1, 66, 100
3, 137268, Note_on_c, 1, 66, 0
3, 137280, Note_on_c, 1, 63, 100
3, 137508, Note_on_c, 1, 63, 0
3, 137520, Control_c, 1, 7, 110
3, 137520, Note_on_c, 1, 70, 100
3, 137544, Control_c, 1, 7, 109
3, 137568, Control_c, 1, 7, 108
3, 137592, Control_c, 1, 7, 107
3, 137616, Control_c, 1, 7, 106
3, 137640, Control_c, 1, 7, 105
3, 137664, Control_c, 1, 7, 104
3, 137688, Control_c, 1, 7, 103
3, 137712, Control_c, 1, 7, 102
3, 137736, Control_c, 1, 7, 101
3, 137760, Control_c, 1, 7, 100
3, 137784, Control_c, 1, 7, 99
3, 137808, Control_c, 1, 7, 98
3, 137832, Control_c, 1, 7, 97
3, 137856, Control_c, 1, 7, 96
3, 137880, Control_c, 1, 7, 95
3, 137904, Control_c, 1, 7, 94
3, 137928, Control_c, 1, 7, 93
3, 137952, Control_c, 1, 7, 92
3, 137976, Control_c, 1, 7, 91
3, 137976, Note_on_c, 1, 70, 0
3, 138000, Control_c, 1, 7, 90
3, 138000, Note_on_c, 1, 63, 100
3, 138228, Note_on_c, 1, 63, 0
3, 138240, Note_on_c, 1, 62, 100
3, 138468, Note_on_c, 1, 62, 0
3, 138480, Note_on_c, 1, 63, 100
3, 138708, Note_on_c, 1, 63, 0
3, 138720, Note_on_c, 1, 65, 100
3, 138948, Note_on_c, 1, 65, 0
3, 138960, Note_on_c, 1, 66, 100
3, 139188, Note_on_c, 1, 66, 0
3, 139200, Note_on_c, 1, 65, 100
3, 139656, Note_on_c, 1, 65, 0
3, 139680, Note_on_c, 1, 63, 100
3, 139908, Note_on_c, 1, 63, 0
3, 140160, Note_on_c, 1, 63, 100
3, 140502, Note_on_c, 1, 63, 0
3, 140520, Note_on_c, 1, 65, 100
3, 140634, Note_on_c, 1, 65, 0
3, 140640, Note_on_c, 1, 66, 100
3, 140868, Note_on_c, 1, 66, 0
3, 140880, Note_on_c, 1, 68, 100
3, 141108, Note_on_c, 1, 68, 0
3, 141120, Note_on_c, 1, 66, 100
3, 141576, Note_on_c, 1, 66, 0
3, 141600, Note_on_c, 1, 63, 100
3, 142056, Note_on_c, 1, 63, 0
3, 142080, Note_on_c, 1, 63, 100
3, 142422, Note_on_c, 1, 63, 0
3, 142440, Note_on_c, 1, 65, 100
3, 142554, Note_on_c, 1, 65, 0
3, 142560, Note_on_c, 1, 66, 100
3, 142788, Note_on_c, 1, 66, 0
3, 142800, Note_on_c, 1, 68, 100
3, 143028, Note_on_c, 1, 68, 0
3, 143040, Note_on_c, 1, 66, 100
3, 143496, Note_on_c, 1, 66, 0
3, 143520, Note_on_c, 1, 63, 100
3, 143976, Note_on_c, 1, 63, 0
3, 144000, Note_on_c, 1, 62, 100
3, 144228, Note_on_c, 1, 62, 0
3, 144240, Note_on_c, 1, 63, 100
3, 144468, Note_on_c, 1, 63, 0
3, 144480, Note_on_c, 1, 65, 100
3, 144708, Note_on_c, 1, 65, 0
3, 144720, Note_on_c, 1, 66, 100
3, 144948, Note_on_c, 1, 66, 0
3, 144960, Note_on_c, 1, 63, 100
3, 145188, Note_on_c, 1, 63, 0
3, 145200, Control_c, 1, 7, 110
3, 145200, Note_on_c, 1, 70, 100
3, 145224, Control_c, 1, 7, 109
3, 145248, Control_c, 1, 7, 108
3, 145272, Control_c, 1, 7, 107
3, 145296, Control_c, 1, 7, 106
3, 145320, Control_c, 1, 7, 105
3, 145344, Control_c, 1, 7, 104
3, 145368, Control_c, 1, 7, 103
3, 145392, Control_c, 1, 7, 102
3, 145416, Control_c, 1, 7, 101
3, 145440, Control_c, 1, 7, 100
3, 145464, Control_c, 1, 7, 99
3, 145488, Control_c, 1, 7, 98
3, 145512, Control_c, 1, 7, 97
3, 145536, Control_c, 1, 7, 96
3, 145560, Control_c, 1, 7, 95
3, 145584, Control_c, 1, 7, 94
3, 145608, Control_c, 1, 7, 93
3, 145632, Control_c, 1, 7, 92
3, 145656, Control_c, 1, 7, 91
3, 145656, Note_on_c, 1, 70, 0
3, 145680, Control_c, 1, 7, 90
3, 145680, Note_on_c, 1, 63, 100
3, 145908, Note_on_c, 1, 63, 0
3, 145920, Note_on_c, 1, 62, 100
3, 146148, Note_on_c, 1, 62, 0
3, 146160, Note_on_c, 1, 63, 100
3, 146388, Note_on_c, 1, 63, 0
3, 146400, Note_on_c, 1, 65, 100
3, 146628, Note_on_c, 1, 65, 0
3, 146640, Note_on_c, 1, 66, 100
3, 146868, Note_on_c, 1, 66, 0
3, 146880, Note_on_c, 1, 65, 100
3, 147336, Note_on_c, 1, 65, 0
3, 147360, Note_on_c, 1, 63, 100
3, 147816, Note_on_c, 1, 63, 0
3, 153600, End_track
0, 0, End_of_file