0, 0, Header, 1, 6, 120
1, 0, Start_track
1, 0, Title_t, ""
1, 0, Time_signature, 3, 2, 24, 8
1, 0, Key_signature, -4, "major"
1, 0, Tempo, 312500
1, 34920, Key_signature, -5, "major"
1, 40680, Key_signature, -4, "major"
1, 40680, End_track
2, 0, Start_track
2, 0, MIDI_port, 0
2, 0, Title_t, "Upper Treble"
2, 0, Program_c, 0, 0
2, 240, Note_on_c, 0, 73, 80
2, 300, Note_on_c, 0, 73, 0
2, 360, Note_on_c, 0, 73, 80
2, 420, Note_on_c, 0, 73, 0
2, 420, Note_on_c, 0, 72, 80
2, 480, Note_on_c, 0, 72, 0
2, 480, Note_on_c, 0, 75, 80
2, 540, Note_on_c, 0, 75, 0
2, 540, Note_on_c, 0, 73, 80
2, 600, Note_on_c, 0, 73, 0
2, 600, Note_on_c, 0, 84, 80
2, 660, Note_on_c, 0, 84, 0
2, 660, Note_on_c, 0, 82, 80
2, 720, Note_on_c, 0, 82, 0
2, 720, Note_on_c, 0, 73, 80
2, 780, Note_on_c, 0, 73, 0
2, 780, Note_on_c, 0, 72, 80
2, 840, Note_on_c, 0, 72, 0
2, 840, Note_on_c, 0, 75, 80
2, 900, Note_on_c, 0, 75, 0
2, 900, Note_on_c, 0, 73, 80
2, 960, Note_on_c, 0, 73, 0
2, 960, Note_on_c, 0, 84, 80
2, 1020, Note_on_c, 0, 84, 0
2, 1020, Note_on_c, 0, 82, 80
2, 1080, Note_on_c, 0, 82, 0
2, 1080, Note_on_c, 0, 72, 80
2, 1140, Note_on_c, 0, 72, 0
2, 1140, Note_on_c, 0, 71, 80
2, 1200, Note_on_c, 0, 71, 0
2, 1200, Note_on_c, 0, 73, 80
2, 1260, Note_on_c, 0, 73, 0
2, 1260, Note_on_c, 0, 72, 80
2, 1320, Note_on_c, 0, 72, 0
2, 1320, Note_on_c, 0, 82, 80
2, 1380, Note_on_c, 0, 82, 0
2, 1380, Note_on_c, 0, 80, 80
2, 1440, Note_on_c, 0, 80, 0
2, 1440, Note_on_c, 0, 72, 80
2, 1500, Note_on_c, 0, 72, 0
2, 1500, Note_on_c, 0, 71, 80
2, 1560, Note_on_c, 0, 71, 0
2, 1560, Note_on_c, 0, 73, 80
2, 1620, Note_on_c, 0, 73, 0
2, 1620, Note_on_c, 0, 72, 80
2, 1680, Note_on_c, 0, 72, 0
2, 1680, Note_on_c, 0, 82, 80
2, 1740, Note_on_c, 0, 82, 0
2, 1740, Note_on_c, 0, 80, 80
2, 1800, Note_on_c, 0, 80, 0
2, 1800, Note_on_c, 0, 70, 80
2, 1860, Note_on_c, 0, 70, 0
2, 1860, Note_on_c, 0, 69, 80
2, 1920, Note_on_c, 0, 69, 0
2, 1920, Note_on_c, 0, 72, 80
2, 1980, Note_on_c, 0, 72, 0
2, 1980, Note_on_c, 0, 70, 80
2, 2040, Note_on_c, 0, 70, 0
2, 2040, Note_on_c, 0, 73, 80
2, 2100, Note_on_c, 0, 73, 0
2, 2100, Note_on_c, 0, 72, 80
2, 2160, Note_on_c, 0, 72, 0
2, 2160, Note_on_c, 0, 75, 80
2, 2220, Note_on_c, 0, 75, 0
2, 2220, Note_on_c, 0, 73, 80
2, 2280, Note_on_c, 0, 73, 0
2, 2280, Note_on_c, 0, 79, 80
2, 2340, Note_on_c, 0, 79, 0
2, 2340, Note_on_c, 0, 77, 80
2, 2400, Note_on_c, 0, 77, 0
2, 2400, Note_on_c, 0, 73, 80
2, 2460, Note_on_c, 0, 73, 0
2, 2460, Note_on_c, 0, 67, 80
2, 2520, Note_on_c, 0, 67, 0
2, 2520, Note_on_c, 0, 68, 80
2, 2580, Note_on_c, 0, 68, 0
2, 2580, Note_on_c, 0, 69, 80
2, 2640, Note_on_c, 0, 69, 0
2, 2640, Note_on_c, 0, 70, 80
2, 2700, Note_on_c, 0, 70, 0
2, 2700, Note_on_c, 0, 71, 80
2, 2760, Note_on_c, 0, 71, 0
2, 2760, Note_on_c, 0, 72, 80
2, 2820, Note_on_c, 0, 72, 0
2, 2820, Note_on_c, 0, 68, 80
2, 2880, Note_on_c, 0, 68, 0
2, 2880, Note_on_c, 0, 63, 80
2, 3000, Note_on_c, 0, 63, 0
2, 3120, Note_on_c, 0, 72, 80
2, 3180, Note_on_c, 0, 72, 0
2, 3240, Note_on_c, 0, 73, 100
2, 3300, Note_on_c, 0, 73, 0
2, 3300, Note_on_c, 0, 72, 100
2, 3360, Note_on_c, 0, 72, 0
2, 3360, Note_on_c, 0, 75, 100
2, 3420, Note_on_c, 0, 75, 0
2, 3420, Note_on_c, 0, 73, 100
2, 3480, Note_on_c, 0, 73, 0
2, 3480, Note_on_c, 0, 84, 100
2, 3540, Note_on_c, 0, 84, 0
2, 3540, Note_on_c, 0, 82, 100
2, 3600, Note_on_c, 0, 82, 0
2, 3600, Note_on_c, 0, 73, 100
2, 3660, Note_on_c, 0, 73, 0
2, 3660, Note_on_c, 0, 72, 100
2, 3720, Note_on_c, 0, 72, 0
2, 3720, Note_on_c, 0, 75, 100
2, 3780, Note_on_c, 0, 75, 0
2, 3780, Note_on_c, 0, 73, 100
2, 3840, Note_on_c, 0, 73, 0
2, 3840, Note_on_c, 0, 84, 100
2, 3900, Note_on_c, 0, 84, 0
2, 3900, Note_on_c, 0, 82, 100
2, 3960, Note_on_c, 0, 82, 0
2, 3960, Note_on_c, 0, 72, 100
2, 4020, Note_on_c, 0, 72, 0
2, 4020, Note_on_c, 0, 71, 100
2, 4080, Note_on_c, 0, 71, 0
2, 4080, Note_on_c, 0, 73, 100
2, 4140, Note_on_c, 0, 73, 0
2, 4140, Note_on_c, 0, 72, 100
2, 4200, Note_on_c, 0, 72, 0
2, 4200, Note_on_c, 0, 82, 100
2, 4260, Note_on_c, 0, 82, 0
2, 4260, Note_on_c, 0, 80, 100
2, 4320, Note_on_c, 0, 80, 0
2, 4320, Note_on_c, 0, 72, 100
2, 4380, Note_on_c, 0, 72, 0
2, 4380, Note_on_c, 0, 71, 100
2, 4440, Note_on_c, 0, 71, 0
2, 4440, Note_on_c, 0, 73, 100
2, 4500, Note_on_c, 0, 73, 0
2, 4500, Note_on_c, 0, 72, 100
2, 4560, Note_on_c, 0, 72, 0
2, 4560, Note_on_c, 0, 82, 100
2, 4620, Note_on_c, 0, 82, 0
2, 4620, Note_on_c, 0, 80, 100
2, 4680, Note_on_c, 0, 80, 0
2, 4680, Note_on_c, 0, 74, 100
2, 4740, Note_on_c, 0, 74, 0
2, 4740, Note_on_c, 0, 75, 103
2, 4800, Note_on_c, 0, 75, 0
2, 4800, Note_on_c, 0, 77, 107
2, 4860, Note_on_c, 0, 77, 0
2, 4860, Note_on_c, 0, 79, 110
2, 4920, Note_on_c, 0, 79, 0
2, 4920, Note_on_c, 0, 80, 114
2, 4980, Note_on_c, 0, 80, 0
2, 4980, Note_on_c, 0, 81, 117
2, 5040, Note_on_c, 0, 81, 0
2, 5040, Note_on_c, 0, 82, 120
2, 5100, Note_on_c, 0, 82, 0
2, 5100, Note_on_c, 0, 83, 118
2, 5160, Note_on_c, 0, 83, 0
2, 5160, Note_on_c, 0, 86, 116
2, 5220, Note_on_c, 0, 86, 0
2, 5220, Note_on_c, 0, 84, 114
2, 5280, Note_on_c, 0, 84, 0
2, 5280, Note_on_c, 0, 82, 111
2, 5340, Note_on_c, 0, 82, 0
2, 5340, Note_on_c, 0, 80, 109
2, 5400, Note_on_c, 0, 80, 0
2, 5400, Note_on_c, 0, 80, 107
2, 5460, Note_on_c, 0, 80, 0
2, 5460, Note_on_c, 0, 79, 104
2, 5520, Note_on_c, 0, 79, 0
2, 5520, Note_on_c, 0, 79, 102
2, 5580, Note_on_c, 0, 79, 0
2, 5580, Note_on_c, 0, 78, 100
2, 5640, Note_on_c, 0, 78, 0
2, 5640, Note_on_c, 0, 78, 97
2, 5700, Note_on_c, 0, 78, 0
2, 5700, Note_on_c, 0, 77, 95
2, 5760, Note_on_c, 0, 77, 0
2, 5760, Note_on_c, 0, 77, 93
2, 5820, Note_on_c, 0, 77, 0
2, 5820, Note_on_c, 0, 76, 91
2, 5880, Note_on_c, 0, 76, 0
2, 5880, Note_on_c, 0, 76, 88
2, 5940, Note_on_c, 0, 76, 0
2, 5940, Note_on_c, 0, 75, 86
2, 6000, Note_on_c, 0, 75, 0
2, 6000, Note_on_c, 0, 75, 84
2, 6060, Note_on_c, 0, 75, 0
2, 6060, Note_on_c, 0, 74, 81
2, 6120, Note_on_c, 0, 74, 0
2, 6120, Note_on_c, 0, 73, 80
2, 6180, Note_on_c, 0, 73, 0
2, 6180, Note_on_c, 0, 72, 80
2, 6240, Note_on_c, 0, 72, 0
2, 6240, Note_on_c, 0, 75, 80
2, 6300, Note_on_c, 0, 75, 0
2, 6300, Note_on_c, 0, 73, 80
2, 6360, Note_on_c, 0, 73, 0
2, 6360, Note_on_c, 0, 84, 80
2, 6420, Note_on_c, 0, 84, 0
2, 6420, Note_on_c, 0, 82, 80
2, 6480, Note_on_c, 0, 82, 0
2, 6480, Note_on_c, 0, 73, 80
2, 6540, Note_on_c, 0, 73, 0
2, 6540, Note_on_c, 0, 72, 80
2, 6600, Note_on_c, 0, 72, 0
2, 6600, Note_on_c, 0, 75, 80
2, 6660, Note_on_c, 0, 75, 0
2, 6660, Note_on_c, 0, 73, 80
2, 6720, Note_on_c, 0, 73, 0
2, 6720, Note_on_c, 0, 84, 80
2, 6780, Note_on_c, 0, 84, 0
2, 6780, Note_on_c, 0, 82, 80
2, 6840, Note_on_c, 0, 82, 0
2, 6840, Note_on_c, 0, 72, 80
2, 6900, Note_on_c, 0, 72, 0
2, 6900, Note_on_c, 0, 71, 80
2, 6960, Note_on_c, 0, 71, 0
2, 6960, Note_on_c, 0, 73, 80
2, 7020, Note_on_c, 0, 73, 0
2, 7020, Note_on_c, 0, 72, 80
2, 7080, Note_on_c, 0, 72, 0
2, 7080, Note_on_c, 0, 82, 80
2, 7140, Note_on_c, 0, 82, 0
2, 7140, Note_on_c, 0, 80, 80
2, 7200, Note_on_c, 0, 80, 0
2, 7200, Note_on_c, 0, 72, 80
2, 7260, Note_on_c, 0, 72, 0
2, 7260, Note_on_c, 0, 71, 80
2, 7320, Note_on_c, 0, 71, 0
2, 7320, Note_on_c, 0, 73, 80
2, 7380, Note_on_c, 0, 73, 0
2, 7380, Note_on_c, 0, 72, 80
2, 7440, Note_on_c, 0, 72, 0
2, 7440, Note_on_c, 0, 82, 80
2, 7500, Note_on_c, 0, 82, 0
2, 7500, Note_on_c, 0, 80, 80
2, 7560, Note_on_c, 0, 80, 0
2, 7560, Note_on_c, 0, 70, 80
2, 7620, Note_on_c, 0, 70, 0
2, 7620, Note_on_c, 0, 69, 80
2, 7680, Note_on_c, 0, 69, 0
2, 7680, Note_on_c, 0, 72, 80
2, 7740, Note_on_c, 0, 72, 0
2, 7740, Note_on_c, 0, 70, 80
2, 7800, Note_on_c, 0, 70, 0
2, 7800, Note_on_c, 0, 73, 80
2, 7860, Note_on_c, 0, 73, 0
2, 7860, Note_on_c, 0, 72, 80
2, 7920, Note_on_c, 0, 72, 0
2, 7920, Note_on_c, 0, 75, 80
2, 7980, Note_on_c, 0, 75, 0
2, 7980, Note_on_c, 0, 73, 80
2, 8040, Note_on_c, 0, 73, 0
2, 8040, Note_on_c, 0, 79, 80
2, 8100, Note_on_c, 0, 79, 0
2, 8100, Note_on_c, 0, 77, 80
2, 8160, Note_on_c, 0, 77, 0
2, 8160, Note_on_c, 0, 73, 80
2, 8220, Note_on_c, 0, 73, 0
2, 8220, Note_on_c, 0, 67, 80
2, 8280, Note_on_c, 0, 67, 0
2, 8280, Note_on_c, 0, 68, 80
2, 8340, Note_on_c, 0, 68, 0
2, 8340, Note_on_c, 0, 69, 80
2, 8400, Note_on_c, 0, 69, 0
2, 8400, Note_on_c, 0, 70, 80
2, 8460, Note_on_c, 0, 70, 0
2, 8460, Note_on_c, 0, 71, 80
2, 8520, Note_on_c, 0, 71, 0
2, 8520, Note_on_c, 0, 72, 80
2, 8580, Note_on_c, 0, 72, 0
2, 8580, Note_on_c, 0, 68, 80
2, 8640, Note_on_c, 0, 68, 0
2, 8640, Note_on_c, 0, 63, 80
2, 8760, Note_on_c, 0, 63, 0
2, 8880, Note_on_c, 0, 72, 80
2, 8940, Note_on_c, 0, 72, 0
2, 9000, Note_on_c, 0, 73, 100
2, 9060, Note_on_c, 0, 73, 0
2, 9060, Note_on_c, 0, 72, 100
2, 9120, Note_on_c, 0, 72, 0
2, 9120, Note_on_c, 0, 75, 100
2, 9180, Note_on_c, 0, 75, 0
2, 9180, Note_on_c, 0, 73, 100
2, 9240, Note_on_c, 0, 73, 0
2, 9240, Note_on_c, 0, 84, 100
2, 9300, Note_on_c, 0, 84, 0
2, 9300, Note_on_c, 0, 82, 100
2, 9360, Note_on_c, 0, 82, 0
2, 9360, Note_on_c, 0, 73, 100
2, 9420, Note_on_c, 0, 73, 0
2, 9420, Note_on_c, 0, 72, 100
2, 9480, Note_on_c, 0, 72, 0
2, 9480, Note_on_c, 0, 75, 100
2, 9540, Note_on_c, 0, 75, 0
2, 9540, Note_on_c, 0, 73, 100
2, 9600, Note_on_c, 0, 73, 0
2, 9600, Note_on_c, 0, 84, 100
2, 9660, Note_on_c, 0, 84, 0
2, 9660, Note_on_c, 0, 82, 100
2, 9720, Note_on_c, 0, 82, 0
2, 9720, Note_on_c, 0, 72, 100
2, 9780, Note_on_c, 0, 72, 0
2, 9780, Note_on_c, 0, 71, 100
2, 9840, Note_on_c, 0, 71, 0
2, 9840, Note_on_c, 0, 73, 100
2, 9900, Note_on_c, 0, 73, 0
2, 9900, Note_on_c, 0, 72, 100
2, 9960, Note_on_c, 0, 72, 0
2, 9960, Note_on_c, 0, 82, 100
2, 10020, Note_on_c, 0, 82, 0
2, 10020, Note_on_c, 0, 80, 100
2, 10080, Note_on_c, 0, 80, 0
2, 10080, Note_on_c, 0, 72, 100
2, 10140, Note_on_c, 0, 72, 0
2, 10140, Note_on_c, 0, 71, 100
2, 10200, Note_on_c, 0, 71, 0
2, 10200, Note_on_c, 0, 73, 100
2, 10260, Note_on_c, 0, 73, 0
2, 10260, Note_on_c, 0, 72, 100
2, 10320, Note_on_c, 0, 72, 0
2, 10320, Note_on_c, 0, 82, 100
2, 10380, Note_on_c, 0, 82, 0
2, 10380, Note_on_c, 0, 80, 100
2, 10440, Note_on_c, 0, 80, 0
2, 10440, Note_on_c, 0, 70, 100
2, 10500, Note_on_c, 0, 70, 0
2, 10500, Note_on_c, 0, 73, 101
2, 10560, Note_on_c, 0, 73, 0
2, 10560, Note_on_c, 0, 72, 103
2, 10620, Note_on_c, 0, 72, 0
2, 10620, Note_on_c, 0, 75, 105
2, 10680, Note_on_c, 0, 75, 0
2, 10680, Note_on_c, 0, 73, 107
2, 10740, Note_on_c, 0, 73, 0
2, 10740, Note_on_c, 0, 77, 108
2, 10800, Note_on_c, 0, 77, 0
2, 10800, Note_on_c, 0, 76, 110
2, 10860, Note_on_c, 0, 76, 0
2, 10860, Note_on_c, 0, 79, 112
2, 10920, Note_on_c, 0, 79, 0
2, 10920, Note_on_c, 0, 77, 114
2, 10980, Note_on_c, 0, 77, 0
2, 10980, Note_on_c, 0, 82, 115
2, 11040, Note_on_c, 0, 82, 0
2, 11040, Note_on_c, 0, 81, 117
2, 11100, Note_on_c, 0, 81, 0
2, 11100, Note_on_c, 0, 84, 119
2, 11160, Note_on_c, 0, 84, 0
2, 11160, Note_on_c, 0, 70, 120
2, 11220, Note_on_c, 0, 70, 0
2, 11220, Note_on_c, 0, 73, 120
2, 11280, Note_on_c, 0, 73, 0
2, 11280, Note_on_c, 0, 72, 120
2, 11340, Note_on_c, 0, 72, 0
2, 11340, Note_on_c, 0, 75, 120
2, 11400, Note_on_c, 0, 75, 0
2, 11400, Note_on_c, 0, 73, 120
2, 11460, Note_on_c, 0, 73, 0
2, 11460, Note_on_c, 0, 79, 120
2, 11520, Note_on_c, 0, 79, 0
2, 11520, Note_on_c, 0, 80, 120
2, 11640, Note_on_c, 0, 80, 0
2, 11640, Note_on_c, 0, 72, 120
2, 11760, Note_on_c, 0, 72, 0
2, 11760, Note_on_c, 0, 73, 80
2, 11820, Note_on_c, 0, 73, 0
2, 11880, Note_on_c, 0, 73, 80
2, 11940, Note_on_c, 0, 73, 0
2, 11940, Note_on_c, 0, 72, 80
2, 12000, Note_on_c, 0, 72, 0
2, 12000, Note_on_c, 0, 75, 80
2, 12060, Note_on_c, 0, 75, 0
2, 12060, Note_on_c, 0, 73, 80
2, 12120, Note_on_c, 0, 73, 0
2, 12120, Note_on_c, 0, 84, 80
2, 12180, Note_on_c, 0, 84, 0
2, 12180, Note_on_c, 0, 82, 80
2, 12240, Note_on_c, 0, 82, 0
2, 12240, Note_on_c, 0, 73, 80
2, 12300, Note_on_c, 0, 73, 0
2, 12300, Note_on_c, 0, 72, 80
2, 12360, Note_on_c, 0, 72, 0
2, 12360, Note_on_c, 0, 75, 80
2, 12420, Note_on_c, 0, 75, 0
2, 12420, Note_on_c, 0, 73, 80
2, 12480, Note_on_c, 0, 73, 0
2, 12480, Note_on_c, 0, 84, 80
2, 12540, Note_on_c, 0, 84, 0
2, 12540, Note_on_c, 0, 82, 80
2, 12600, Note_on_c, 0, 82, 0
2, 12600, Note_on_c, 0, 72, 80
2, 12660, Note_on_c, 0, 72, 0
2, 12660, Note_on_c, 0, 71, 80
2, 12720, Note_on_c, 0, 71, 0
2, 12720, Note_on_c, 0, 73, 80
2, 12780, Note_on_c, 0, 73, 0
2, 12780, Note_on_c, 0, 72, 80
2, 12840, Note_on_c, 0, 72, 0
2, 12840, Note_on_c, 0, 82, 80
2, 12900, Note_on_c, 0, 82, 0
2, 12900, Note_on_c, 0, 80, 80
2, 12960, Note_on_c, 0, 80, 0
2, 12960, Note_on_c, 0, 72, 80
2, 13020, Note_on_c, 0, 72, 0
2, 13020, Note_on_c, 0, 71, 80
2, 13080, Note_on_c, 0, 71, 0
2, 13080, Note_on_c, 0, 73, 80
2, 13140, Note_on_c, 0, 73, 0
2, 13140, Note_on_c, 0, 72, 80
2, 13200, Note_on_c, 0, 72, 0
2, 13200, Note_on_c, 0, 82, 80
2, 13260, Note_on_c, 0, 82, 0
2, 13260, Note_on_c, 0, 80, 80
2, 13320, Note_on_c, 0, 80, 0
2, 13320, Note_on_c, 0, 70, 80
2, 13380, Note_on_c, 0, 70, 0
2, 13380, Note_on_c, 0, 69, 80
2, 13440, Note_on_c, 0, 69, 0
2, 13440, Note_on_c, 0, 72, 80
2, 13500, Note_on_c, 0, 72, 0
2, 13500, Note_on_c, 0, 70, 80
2, 13560, Note_on_c, 0, 70, 0
2, 13560, Note_on_c, 0, 73, 80
2, 13620, Note_on_c, 0, 73, 0
2, 13620, Note_on_c, 0, 72, 80
2, 13680, Note_on_c, 0, 72, 0
2, 13680, Note_on_c, 0, 75, 80
2, 13740, Note_on_c, 0, 75, 0
2, 13740, Note_on_c, 0, 73, 80
2, 13800, Note_on_c, 0, 73, 0
2, 13800, Note_on_c, 0, 79, 80
2, 13860, Note_on_c, 0, 79, 0
2, 13860, Note_on_c, 0, 77, 80
2, 13920, Note_on_c, 0, 77, 0
2, 13920, Note_on_c, 0, 73, 80
2, 13980, Note_on_c, 0, 73, 0
2, 13980, Note_on_c, 0, 67, 80
2, 14040, Note_on_c, 0, 67, 0
2, 14040, Note_on_c, 0, 68, 80
2, 14100, Note_on_c, 0, 68, 0
2, 14100, Note_on_c, 0, 69, 80
2, 14160, Note_on_c, 0, 69, 0
2, 14160, Note_on_c, 0, 70, 80
2, 14220, Note_on_c, 0, 70, 0
2, 14220, Note_on_c, 0, 71, 80
2, 14280, Note_on_c, 0, 71, 0
2, 14280, Note_on_c, 0, 72, 80
2, 14340, Note_on_c, 0, 72, 0
2, 14340, Note_on_c, 0, 68, 80
2, 14400, Note_on_c, 0, 68, 0
2, 14400, Note_on_c, 0, 63, 80
2, 14520, Note_on_c, 0, 63, 0
2, 14640, Note_on_c, 0, 72, 80
2, 14700, Note_on_c, 0, 72, 0
2, 14760, Note_on_c, 0, 73, 100
2, 14820, Note_on_c, 0, 73, 0
2, 14820, Note_on_c, 0, 72, 100
2, 14880, Note_on_c, 0, 72, 0
2, 14880, Note_on_c, 0, 75, 100
2, 14940, Note_on_c, 0, 75, 0
2, 14940, Note_on_c, 0, 73, 100
2, 15000, Note_on_c, 0, 73, 0
2, 15000, Note_on_c, 0, 84, 100
2, 15060, Note_on_c, 0, 84, 0
2, 15060, Note_on_c, 0, 82, 100
2, 15120, Note_on_c, 0, 82, 0
2, 15120, Note_on_c, 0, 73, 100
2, 15180, Note_on_c, 0, 73, 0
2, 15180, Note_on_c, 0, 72, 100
2, 15240, Note_on_c, 0, 72, 0
2, 15240, Note_on_c, 0, 75, 100
2, 15300, Note_on_c, 0, 75, 0
2, 15300, Note_on_c, 0, 73, 100
2, 15360, Note_on_c, 0, 73, 0
2, 15360, Note_on_c, 0, 84, 100
2, 15420, Note_on_c, 0, 84, 0
2, 15420, Note_on_c, 0, 82, 100
2, 15480, Note_on_c, 0, 82, 0
2, 15480, Note_on_c, 0, 72, 100
2, 15540, Note_on_c, 0, 72, 0
2, 15540, Note_on_c, 0, 71, 100
2, 15600, Note_on_c, 0, 71, 0
2, 15600, Note_on_c, 0, 73, 100
2, 15660, Note_on_c, 0, 73, 0
2, 15660, Note_on_c, 0, 72, 100
2, 15720, Note_on_c, 0, 72, 0
2, 15720, Note_on_c, 0, 82, 100
2, 15780, Note_on_c, 0, 82, 0
2, 15780, Note_on_c, 0, 80, 100
2, 15840, Note_on_c, 0, 80, 0
2, 15840, Note_on_c, 0, 72, 100
2, 15900, Note_on_c, 0, 72, 0
2, 15900, Note_on_c, 0, 71, 100
2, 15960, Note_on_c, 0, 71, 0
2, 15960, Note_on_c, 0, 73, 100
2, 16020, Note_on_c, 0, 73, 0
2, 16020, Note_on_c, 0, 72, 100
2, 16080, Note_on_c, 0, 72, 0
2, 16080, Note_on_c, 0, 82, 100
2, 16140, Note_on_c, 0, 82, 0
2, 16140, Note_on_c, 0, 80, 100
2, 16200, Note_on_c, 0, 80, 0
2, 16200, Note_on_c, 0, 74, 100
2, 16260, Note_on_c, 0, 74, 0
2, 16260, Note_on_c, 0, 75, 103
2, 16320, Note_on_c, 0, 75, 0
2, 16320, Note_on_c, 0, 77, 107
2, 16380, Note_on_c, 0, 77, 0
2, 16380, Note_on_c, 0, 79, 110
2, 16440, Note_on_c, 0, 79, 0
2, 16440, Note_on_c, 0, 80, 114
2, 16500, Note_on_c, 0, 80, 0
2, 16500, Note_on_c, 0, 81, 117
2, 16560, Note_on_c, 0, 81, 0
2, 16560, Note_on_c, 0, 82, 120
2, 16620, Note_on_c, 0, 82, 0
2, 16620, Note_on_c, 0, 83, 118
2, 16680, Note_on_c, 0, 83, 0
2, 16680, Note_on_c, 0, 86, 116
2, 16740, Note_on_c, 0, 86, 0
2, 16740, Note_on_c, 0, 84, 114
2, 16800, Note_on_c, 0, 84, 0
2, 16800, Note_on_c, 0, 82, 111
2, 16860, Note_on_c, 0, 82, 0
2, 16860, Note_on_c, 0, 80, 109
2, 16920, Note_on_c, 0, 80, 0
2, 16920, Note_on_c, 0, 80, 107
2, 16980, Note_on_c, 0, 80, 0
2, 16980, Note_on_c, 0, 79, 104
2, 17040, Note_on_c, 0, 79, 0
2, 17040, Note_on_c, 0, 79, 102
2, 17100, Note_on_c, 0, 79, 0
2, 17100, Note_on_c, 0, 78, 100
2, 17160, Note_on_c, 0, 78, 0
2, 17160, Note_on_c, 0, 78, 97
2, 17220, Note_on_c, 0, 78, 0
2, 17220, Note_on_c, 0, 77, 95
2, 17280, Note_on_c, 0, 77, 0
2, 17280, Note_on_c, 0, 77, 93
2, 17340, Note_on_c, 0, 77, 0
2, 17340, Note_on_c, 0, 76, 91
2, 17400, Note_on_c, 0, 76, 0
2, 17400, Note_on_c, 0, 76, 88
2, 17460, Note_on_c, 0, 76, 0
2, 17460, Note_on_c, 0, 75, 86
2, 17520, Note_on_c, 0, 75, 0
2, 17520, Note_on_c, 0, 75, 84
2, 17580, Note_on_c, 0, 75, 0
2, 17580, Note_on_c, 0, 74, 81
2, 17640, Note_on_c, 0, 74, 0
2, 17640, Note_on_c, 0, 73, 80
2, 17700, Note_on_c, 0, 73, 0
2, 17700, Note_on_c, 0, 72, 80
2, 17760, Note_on_c, 0, 72, 0
2, 17760, Note_on_c, 0, 75, 80
2, 17820, Note_on_c, 0, 75, 0
2, 17820, Note_on_c, 0, 73, 80
2, 17880, Note_on_c, 0, 73, 0
2, 17880, Note_on_c, 0, 84, 80
2, 17940, Note_on_c, 0, 84, 0
2, 17940, Note_on_c, 0, 82, 80
2, 18000, Note_on_c, 0, 82, 0
2, 18000, Note_on_c, 0, 73, 80
2, 18060, Note_on_c, 0, 73, 0
2, 18060, Note_on_c, 0, 72, 80
2, 18120, Note_on_c, 0, 72, 0
2, 18120, Note_on_c, 0, 75, 80
2, 18180, Note_on_c, 0, 75, 0
2, 18180, Note_on_c, 0, 73, 80
2, 18240, Note_on_c, 0, 73, 0
2, 18240, Note_on_c, 0, 84, 80
2, 18300, Note_on_c, 0, 84, 0
2, 18300, Note_on_c, 0, 82, 80
2, 18360, Note_on_c, 0, 82, 0
2, 18360, Note_on_c, 0, 72, 80
2, 18420, Note_on_c, 0, 72, 0
2, 18420, Note_on_c, 0, 71, 80
2, 18480, Note_on_c, 0, 71, 0
2, 18480, Note_on_c, 0, 73, 80
2, 18540, Note_on_c, 0, 73, 0
2, 18540, Note_on_c, 0, 72, 80
2, 18600, Note_on_c, 0, 72, 0
2, 18600, Note_on_c, 0, 82, 80
2, 18660, Note_on_c, 0, 82, 0
2, 18660, Note_on_c, 0, 80, 80
2, 18720, Note_on_c, 0, 80, 0
2, 18720, Note_on_c, 0, 72, 80
2, 18780, Note_on_c, 0, 72, 0
2, 18780, Note_on_c, 0, 71, 80
2, 18840, Note_on_c, 0, 71, 0
2, 18840, Note_on_c, 0, 73, 80
2, 18900, Note_on_c, 0, 73, 0
2, 18900, Note_on_c, 0, 72, 80
2, 18960, Note_on_c, 0, 72, 0
2, 18960, Note_on_c, 0, 82, 80
2, 19020, Note_on_c, 0, 82, 0
2, 19020, Note_on_c, 0, 80, 80
2, 19080, Note_on_c, 0, 80, 0
2, 19080, Note_on_c, 0, 70, 80
2, 19140, Note_on_c, 0, 70, 0
2, 19140, Note_on_c, 0, 69, 80
2, 19200, Note_on_c, 0, 69, 0
2, 19200, Note_on_c, 0, 72, 80
2, 19260, Note_on_c, 0, 72, 0
2, 19260, Note_on_c, 0, 70, 80
2, 19320, Note_on_c, 0, 70, 0
2, 19320, Note_on_c, 0, 73, 80
2, 19380, Note_on_c, 0, 73, 0
2, 19380, Note_on_c, 0, 72, 80
2, 19440, Note_on_c, 0, 72, 0
2, 19440, Note_on_c, 0, 75, 80
2, 19500, Note_on_c, 0, 75, 0
2, 19500, Note_on_c, 0, 73, 80
2, 19560, Note_on_c, 0, 73, 0
2, 19560, Note_on_c, 0, 79, 80
2, 19620, Note_on_c, 0, 79, 0
2, 19620, Note_on_c, 0, 77, 80
2, 19680, Note_on_c, 0, 77, 0
2, 19680, Note_on_c, 0, 73, 80
2, 19740, Note_on_c, 0, 73, 0
2, 19740, Note_on_c, 0, 67, 80
2, 19800, Note_on_c, 0, 67, 0
2, 19800, Note_on_c, 0, 68, 80
2, 19860, Note_on_c, 0, 68, 0
2, 19860, Note_on_c, 0, 69, 80
2, 19920, Note_on_c, 0, 69, 0
2, 19920, Note_on_c, 0, 70, 80
2, 19980, Note_on_c, 0, 70, 0
2, 19980, Note_on_c, 0, 71, 80
2, 20040, Note_on_c, 0, 71, 0
2, 20040, Note_on_c, 0, 72, 80
2, 20100, Note_on_c, 0, 72, 0
2, 20100, Note_on_c, 0, 68, 80
2, 20160, Note_on_c, 0, 68, 0
2, 20160, Note_on_c, 0, 63, 80
2, 20280, Note_on_c, 0, 63, 0
2, 20400, Note_on_c, 0, 72, 80
2, 20460, Note_on_c, 0, 72, 0
2, 20520, Note_on_c, 0, 73, 100
2, 20580, Note_on_c, 0, 73, 0
2, 20580, Note_on_c, 0, 72, 100
2, 20640, Note_on_c, 0, 72, 0
2, 20640, Note_on_c, 0, 75, 100
2, 20700, Note_on_c, 0, 75, 0
2, 20700, Note_on_c, 0, 73, 100
2, 20760, Note_on_c, 0, 73, 0
2, 20760, Note_on_c, 0, 84, 100
2, 20820, Note_on_c, 0, 84, 0
2, 20820, Note_on_c, 0, 82, 100
2, 20880, Note_on_c, 0, 82, 0
2, 20880, Note_on_c, 0, 73, 100
2, 20940, Note_on_c, 0, 73, 0
2, 20940, Note_on_c, 0, 72, 100
2, 21000, Note_on_c, 0, 72, 0
2, 21000, Note_on_c, 0, 75, 100
2, 21060, Note_on_c, 0, 75, 0
2, 21060, Note_on_c, 0, 73, 100
2, 21120, Note_on_c, 0, 73, 0
2, 21120, Note_on_c, 0, 84, 100
2, 21180, Note_on_c, 0, 84, 0
2, 21180, Note_on_c, 0, 82, 100
2, 21240, Note_on_c, 0, 82, 0
2, 21240, Note_on_c, 0, 72, 100
2, 21300, Note_on_c, 0, 72, 0
2, 21300, Note_on_c, 0, 71, 100
2, 21360, Note_on_c, 0, 71, 0
2, 21360, Note_on_c, 0, 73, 100
2, 21420, Note_on_c, 0, 73, 0
2, 21420, Note_on_c, 0, 72, 100
2, 21480, Note_on_c, 0, 72, 0
2, 21480, Note_on_c, 0, 82, 100
2, 21540, Note_on_c, 0, 82, 0
2, 21540, Note_on_c, 0, 80, 100
2, 21600, Note_on_c, 0, 80, 0
2, 21600, Note_on_c, 0, 72, 100
2, 21660, Note_on_c, 0, 72, 0
2, 21660, Note_on_c, 0, 71, 100
2, 21720, Note_on_c, 0, 71, 0
2, 21720, Note_on_c, 0, 73, 100
2, 21780, Note_on_c, 0, 73, 0
2, 21780, Note_on_c, 0, 72, 100
2, 21840, Note_on_c, 0, 72, 0
2, 21840, Note_on_c, 0, 82, 100
2, 21900, Note_on_c, 0, 82, 0
2, 21900, Note_on_c, 0, 80, 100
2, 21960, Note_on_c, 0, 80, 0
2, 21960, Note_on_c, 0, 70, 100
2, 22020, Note_on_c, 0, 70, 0
2, 22020, Note_on_c, 0, 73, 101
2, 22080, Note_on_c, 0, 73, 0
2, 22080, Note_on_c, 0, 72, 103
2, 22140, Note_on_c, 0, 72, 0
2, 22140, Note_on_c, 0, 75, 105
2, 22200, Note_on_c, 0, 75, 0
2, 22200, Note_on_c, 0, 73, 107
2, 22260, Note_on_c, 0, 73, 0
2, 22260, Note_on_c, 0, 77, 108
2, 22320, Note_on_c, 0, 77, 0
2, 22320, Note_on_c, 0, 76, 110
2, 22380, Note_on_c, 0, 76, 0
2, 22380, Note_on_c, 0, 79, 112
2, 22440, Note_on_c, 0, 79, 0
2, 22440, Note_on_c, 0, 77, 114
2, 22500, Note_on_c, 0, 77, 0
2, 22500, Note_on_c, 0, 82, 115
2, 22560, Note_on_c, 0, 82, 0
2, 22560, Note_on_c, 0, 81, 117
2, 22620, Note_on_c, 0, 81, 0
2, 22620, Note_on_c, 0, 84, 119
2, 22680, Note_on_c, 0, 84, 0
2, 22680, Note_on_c, 0, 70, 120
2, 22740, Note_on_c, 0, 70, 0
2, 22740, Note_on_c, 0, 73, 120
2, 22800, Note_on_c, 0, 73, 0
2, 22800, Note_on_c, 0, 72, 120
2, 22860, Note_on_c, 0, 72, 0
2, 22860, Note_on_c, 0, 75, 120
2, 22920, Note_on_c, 0, 75, 0
2, 22920, Note_on_c, 0, 73, 120
2, 22980, Note_on_c, 0, 73, 0
2, 22980, Note_on_c, 0, 79, 120
2, 23040, Note_on_c, 0, 79, 0
2, 23040, Note_on_c, 0, 80, 120
2, 23160, Note_on_c, 0, 80, 0
2, 23160, Note_on_c, 0, 72, 120
2, 23280, Note_on_c, 0, 72, 0
2, 23280, Note_on_c, 0, 84, 80
2, 23340, Note_on_c, 0, 84, 0
2, 23400, Note_on_c, 0, 82, 80
2, 23460, Note_on_c, 0, 82, 0
2, 23460, Note_on_c, 0, 84, 80
2, 23520, Note_on_c, 0, 84, 0
2, 23520, Note_on_c, 0, 82, 80
2, 23580, Note_on_c, 0, 82, 0
2, 23580, Note_on_c, 0, 80, 80
2, 23640, Note_on_c, 0, 80, 0
2, 23640, Note_on_c, 0, 79, 80
2, 23700, Note_on_c, 0, 79, 0
2, 23700, Note_on_c, 0, 84, 80
2, 23760, Note_on_c, 0, 84, 0
2, 23760, Note_on_c, 0, 80, 80
2, 23820, Note_on_c, 0, 80, 0
2, 23820, Note_on_c, 0, 82, 80
2, 23880, Note_on_c, 0, 82, 0
2, 23880, Note_on_c, 0, 80, 80
2, 23940, Note_on_c, 0, 80, 0
2, 23940, Note_on_c, 0, 79, 80
2, 24000, Note_on_c, 0, 79, 0
2, 24000, Note_on_c, 0, 77, 80
2, 24060, Note_on_c, 0, 77, 0
2, 24060, Note_on_c, 0, 84, 80
2, 24120, Note_on_c, 0, 84, 0
2, 24120, Note_on_c, 0, 79, 80
2, 24180, Note_on_c, 0, 79, 0
2, 24180, Note_on_c, 0, 72, 80
2, 24240, Note_on_c, 0, 72, 0
2, 24240, Note_on_c, 0, 73, 80
2, 24300, Note_on_c, 0, 73, 0
2, 24300, Note_on_c, 0, 72, 80
2, 24360, Note_on_c, 0, 72, 0
2, 24360, Note_on_c, 0, 80, 80
2, 24420, Note_on_c, 0, 80, 0
2, 24420, Note_on_c, 0, 79, 80
2, 24480, Note_on_c, 0, 79, 0
2, 24480, Note_on_c, 0, 77, 80
2, 24540, Note_on_c, 0, 77, 0
2, 24540, Note_on_c, 0, 72, 80
2, 24600, Note_on_c, 0, 72, 0
2, 24600, Note_on_c, 0, 73, 80
2, 24660, Note_on_c, 0, 73, 0
2, 24660, Note_on_c, 0, 72, 80
2, 24720, Note_on_c, 0, 72, 0
2, 24720, Note_on_c, 0, 80, 80
2, 24780, Note_on_c, 0, 80, 0
2, 24780, Note_on_c, 0, 84, 80
2, 24840, Note_on_c, 0, 84, 0
2, 24840, Note_on_c, 0, 82, 80
2, 24900, Note_on_c, 0, 82, 0
2, 24900, Note_on_c, 0, 84, 80
2, 24960, Note_on_c, 0, 84, 0
2, 24960, Note_on_c, 0, 82, 80
2, 25020, Note_on_c, 0, 82, 0
2, 25020, Note_on_c, 0, 80, 80
2, 25080, Note_on_c, 0, 80, 0
2, 25080, Note_on_c, 0, 79, 80
2, 25140, Note_on_c, 0, 79, 0
2, 25140, Note_on_c, 0, 84, 80
2, 25200, Note_on_c, 0, 84, 0
2, 25200, Note_on_c, 0, 80, 80
2, 25260, Note_on_c, 0, 80, 0
2, 25260, Note_on_c, 0, 82, 80
2, 25320, Note_on_c, 0, 82, 0
2, 25320, Note_on_c, 0, 80, 80
2, 25380, Note_on_c, 0, 80, 0
2, 25380, Note_on_c, 0, 79, 80
2, 25440, Note_on_c, 0, 79, 0
2, 25440, Note_on_c, 0, 77, 80
2, 25500, Note_on_c, 0, 77, 0
2, 25500, Note_on_c, 0, 84, 80
2, 25560, Note_on_c, 0, 84, 0
2, 25560, Note_on_c, 0, 79, 80
2, 25620, Note_on_c, 0, 79, 0
2, 25620, Note_on_c, 0, 72, 80
2, 25680, Note_on_c, 0, 72, 0
2, 25680, Note_on_c, 0, 73, 80
2, 25740, Note_on_c, 0, 73, 0
2, 25740, Note_on_c, 0, 72, 80
2, 25800, Note_on_c, 0, 72, 0
2, 25800, Note_on_c, 0, 80, 80
2, 25860, Note_on_c, 0, 80, 0
2, 25860, Note_on_c, 0, 79, 80
2, 25920, Note_on_c, 0, 79, 0
2, 25920, Note_on_c, 0, 77, 80
2, 25980, Note_on_c, 0, 77, 0
2, 25980, Note_on_c, 0, 72, 80
2, 26040, Note_on_c, 0, 72, 0
2, 26040, Note_on_c, 0, 77, 80
2, 26100, Note_on_c, 0, 77, 0
2, 26100, Note_on_c, 0, 80, 80
2, 26160, Note_on_c, 0, 80, 0
2, 26160, Note_on_c, 0, 84, 80
2, 26280, Note_on_c, 0, 84, 0
2, 26280, Note_on_c, 0, 82, 100
2, 26340, Note_on_c, 0, 82, 0
2, 26340, Note_on_c, 0, 84, 100
2, 26400, Note_on_c, 0, 84, 0
2, 26400, Note_on_c, 0, 82, 100
2, 26460, Note_on_c, 0, 82, 0
2, 26460, Note_on_c, 0, 80, 100
2, 26520, Note_on_c, 0, 80, 0
2, 26520, Note_on_c, 0, 79, 100
2, 26580, Note_on_c, 0, 79, 0
2, 26580, Note_on_c, 0, 84, 100
2, 26640, Note_on_c, 0, 84, 0
2, 26640, Note_on_c, 0, 80, 100
2, 26700, Note_on_c, 0, 80, 0
2, 26700, Note_on_c, 0, 82, 100
2, 26760, Note_on_c, 0, 82, 0
2, 26760, Note_on_c, 0, 80, 100
2, 26820, Note_on_c, 0, 80, 0
2, 26820, Note_on_c, 0, 79, 100
2, 26880, Note_on_c, 0, 79, 0
2, 26880, Note_on_c, 0, 77, 100
2, 26940, Note_on_c, 0, 77, 0
2, 26940, Note_on_c, 0, 84, 100
2, 27000, Note_on_c, 0, 84, 0
2, 27000, Note_on_c, 0, 79, 100
2, 27060, Note_on_c, 0, 79, 0
2, 27060, Note_on_c, 0, 72, 100
2, 27120, Note_on_c, 0, 72, 0
2, 27120, Note_on_c, 0, 73, 100
2, 27180, Note_on_c, 0, 73, 0
2, 27180, Note_on_c, 0, 72, 100
2, 27240, Note_on_c, 0, 72, 0
2, 27240, Note_on_c, 0, 80, 100
2, 27300, Note_on_c, 0, 80, 0
2, 27300, Note_on_c, 0, 79, 100
2, 27360, Note_on_c, 0, 79, 0
2, 27360, Note_on_c, 0, 77, 100
2, 27420, Note_on_c, 0, 77, 0
2, 27420, Note_on_c, 0, 72, 100
2, 27480, Note_on_c, 0, 72, 0
2, 27480, Note_on_c, 0, 73, 100
2, 27540, Note_on_c, 0, 73, 0
2, 27540, Note_on_c, 0, 72, 100
2, 27600, Note_on_c, 0, 72, 0
2, 27600, Note_on_c, 0, 80, 100
2, 27660, Note_on_c, 0, 80, 0
2, 27660, Note_on_c, 0, 84, 100
2, 27720, Note_on_c, 0, 84, 0
2, 27720, Note_on_c, 0, 82, 100
2, 27780, Note_on_c, 0, 82, 0
2, 27780, Note_on_c, 0, 84, 100
2, 27840, Note_on_c, 0, 84, 0
2, 27840, Note_on_c, 0, 82, 100
2, 27900, Note_on_c, 0, 82, 0
2, 27900, Note_on_c, 0, 80, 100
2, 27960, Note_on_c, 0, 80, 0
2, 27960, Note_on_c, 0, 79, 100
2, 28020, Note_on_c, 0, 79, 0
2, 28020, Note_on_c, 0, 84, 100
2, 28080, Note_on_c, 0, 84, 0
2, 28080, Note_on_c, 0, 80, 100
2, 28140, Note_on_c, 0, 80, 0
2, 28140, Note_on_c, 0, 82, 100
2, 28200, Note_on_c, 0, 82, 0
2, 28200, Note_on_c, 0, 80, 100
2, 28260, Note_on_c, 0, 80, 0
2, 28260, Note_on_c, 0, 79, 100
2, 28320, Note_on_c, 0, 79, 0
2, 28320, Note_on_c, 0, 77, 100
2, 28380, Note_on_c, 0, 77, 0
2, 28380, Note_on_c, 0, 84, 100
2, 28440, Note_on_c, 0, 84, 0
2, 28440, Note_on_c, 0, 79, 100
2, 28500, Note_on_c, 0, 79, 0
2, 28500, Note_on_c, 0, 72, 100
2, 28560, Note_on_c, 0, 72, 0
2, 28560, Note_on_c, 0, 73, 100
2, 28620, Note_on_c, 0, 73, 0
2, 28620, Note_on_c, 0, 72, 100
2, 28680, Note_on_c, 0, 72, 0
2, 28680, Note_on_c, 0, 80, 100
2, 28740, Note_on_c, 0, 80, 0
2, 28740, Note_on_c, 0, 79, 100
2, 28800, Note_on_c, 0, 79, 0
2, 28800, Note_on_c, 0, 77, 100
2, 28860, Note_on_c, 0, 77, 0
2, 28860, Note_on_c, 0, 79, 100
2, 28920, Note_on_c, 0, 79, 0
2, 28920, Note_on_c, 0, 77, 100
2, 28980, Note_on_c, 0, 77, 0
2, 28980, Note_on_c, 0, 76, 100
2, 29040, Note_on_c, 0, 76, 0
2, 29040, Note_on_c, 0, 75, 100
2, 29100, Note_on_c, 0, 75, 0
2, 29100, Note_on_c, 0, 74, 100
2, 29160, Note_on_c, 0, 74, 0
2, 29160, Note_on_c, 0, 73, 80
2, 29220, Note_on_c, 0, 73, 0
2, 29220, Note_on_c, 0, 72, 80
2, 29280, Note_on_c, 0, 72, 0
2, 29280, Note_on_c, 0, 75, 80
2, 29340, Note_on_c, 0, 75, 0
2, 29340, Note_on_c, 0, 73, 80
2, 29400, Note_on_c, 0, 73, 0
2, 29400, Note_on_c, 0, 84, 80
2, 29460, Note_on_c, 0, 84, 0
2, 29460, Note_on_c, 0, 82, 80
2, 29520, Note_on_c, 0, 82, 0
2, 29520, Note_on_c, 0, 73, 80
2, 29580, Note_on_c, 0, 73, 0
2, 29580, Note_on_c, 0, 72, 80
2, 29640, Note_on_c, 0, 72, 0
2, 29640, Note_on_c, 0, 75, 80
2, 29700, Note_on_c, 0, 75, 0
2, 29700, Note_on_c, 0, 73, 80
2, 29760, Note_on_c, 0, 73, 0
2, 29760, Note_on_c, 0, 84, 80
2, 29820, Note_on_c, 0, 84, 0
2, 29820, Note_on_c, 0, 82, 80
2, 29880, Note_on_c, 0, 82, 0
2, 29880, Note_on_c, 0, 72, 80
2, 29940, Note_on_c, 0, 72, 0
2, 29940, Note_on_c, 0, 71, 80
2, 30000, Note_on_c, 0, 71, 0
2, 30000, Note_on_c, 0, 73, 80
2, 30060, Note_on_c, 0, 73, 0
2, 30060, Note_on_c, 0, 72, 80
2, 30120, Note_on_c, 0, 72, 0
2, 30120, Note_on_c, 0, 82, 80
2, 30180, Note_on_c, 0, 82, 0
2, 30180, Note_on_c, 0, 80, 80
2, 30240, Note_on_c, 0, 80, 0
2, 30240, Note_on_c, 0, 72, 80
2, 30300, Note_on_c, 0, 72, 0
2, 30300, Note_on_c, 0, 71, 80
2, 30360, Note_on_c, 0, 71, 0
2, 30360, Note_on_c, 0, 73, 80
2, 30420, Note_on_c, 0, 73, 0
2, 30420, Note_on_c, 0, 72, 80
2, 30480, Note_on_c, 0, 72, 0
2, 30480, Note_on_c, 0, 82, 80
2, 30540, Note_on_c, 0, 82, 0
2, 30540, Note_on_c, 0, 80, 80
2, 30600, Note_on_c, 0, 80, 0
2, 30600, Note_on_c, 0, 70, 80
2, 30660, Note_on_c, 0, 70, 0
2, 30660, Note_on_c, 0, 69, 80
2, 30720, Note_on_c, 0, 69, 0
2, 30720, Note_on_c, 0, 72, 80
2, 30780, Note_on_c, 0, 72, 0
2, 30780, Note_on_c, 0, 70, 80
2, 30840, Note_on_c, 0, 70, 0
2, 30840, Note_on_c, 0, 73, 80
2, 30900, Note_on_c, 0, 73, 0
2, 30900, Note_on_c, 0, 72, 80
2, 30960, Note_on_c, 0, 72, 0
2, 30960, Note_on_c, 0, 75, 80
2, 31020, Note_on_c, 0, 75, 0
2, 31020, Note_on_c, 0, 73, 80
2, 31080, Note_on_c, 0, 73, 0
2, 31080, Note_on_c, 0, 79, 80
2, 31140, Note_on_c, 0, 79, 0
2, 31140, Note_on_c, 0, 77, 80
2, 31200, Note_on_c, 0, 77, 0
2, 31200, Note_on_c, 0, 73, 80
2, 31260, Note_on_c, 0, 73, 0
2, 31260, Note_on_c, 0, 67, 80
2, 31320, Note_on_c, 0, 67, 0
2, 31320, Note_on_c, 0, 68, 80
2, 31380, Note_on_c, 0, 68, 0
2, 31380, Note_on_c, 0, 69, 80
2, 31440, Note_on_c, 0, 69, 0
2, 31440, Note_on_c, 0, 70, 80
2, 31500, Note_on_c, 0, 70, 0
2, 31500, Note_on_c, 0, 71, 80
2, 31560, Note_on_c, 0, 71, 0
2, 31560, Note_on_c, 0, 72, 80
2, 31620, Note_on_c, 0, 72, 0
2, 31620, Note_on_c, 0, 68, 80
2, 31680, Note_on_c, 0, 68, 0
2, 31680, Note_on_c, 0, 63, 80
2, 31800, Note_on_c, 0, 63, 0
2, 31920, Note_on_c, 0, 72, 80
2, 31980, Note_on_c, 0, 72, 0
2, 32040, Note_on_c, 0, 73, 100
2, 32100, Note_on_c, 0, 73, 0
2, 32100, Note_on_c, 0, 72, 100
2, 32160, Note_on_c, 0, 72, 0
2, 32160, Note_on_c, 0, 75, 100
2, 32220, Note_on_c, 0, 75, 0
2, 32220, Note_on_c, 0, 73, 100
2, 32280, Note_on_c, 0, 73, 0
2, 32280, Note_on_c, 0, 84, 100
2, 32340, Note_on_c, 0, 84, 0
2, 32340, Note_on_c, 0, 82, 100
2, 32400, Note_on_c, 0, 82, 0
2, 32400, Note_on_c, 0, 73, 100
2, 32460, Note_on_c, 0, 73, 0
2, 32460, Note_on_c, 0, 72, 100
2, 32520, Note_on_c, 0, 72, 0
2, 32520, Note_on_c, 0, 75, 100
2, 32580, Note_on_c, 0, 75, 0
2, 32580, Note_on_c, 0, 73, 100
2, 32640, Note_on_c, 0, 73, 0
2, 32640, Note_on_c, 0, 84, 100
2, 32700, Note_on_c, 0, 84, 0
2, 32700, Note_on_c, 0, 82, 100
2, 32760, Note_on_c, 0, 82, 0
2, 32760, Note_on_c, 0, 72, 100
2, 32820, Note_on_c, 0, 72, 0
2, 32820, Note_on_c, 0, 71, 100
2, 32880, Note_on_c, 0, 71, 0
2, 32880, Note_on_c, 0, 73, 100
2, 32940, Note_on_c, 0, 73, 0
2, 32940, Note_on_c, 0, 72, 100
2, 33000, Note_on_c, 0, 72, 0
2, 33000, Note_on_c, 0, 82, 100
2, 33060, Note_on_c, 0, 82, 0
2, 33060, Note_on_c, 0, 80, 100
2, 33120, Note_on_c, 0, 80, 0
2, 33120, Note_on_c, 0, 72, 100
2, 33180, Note_on_c, 0, 72, 0
2, 33180, Note_on_c, 0, 71, 100
2, 33240, Note_on_c, 0, 71, 0
2, 33240, Note_on_c, 0, 73, 100
2, 33300, Note_on_c, 0, 73, 0
2, 33300, Note_on_c, 0, 72, 100
2, 33360, Note_on_c, 0, 72, 0
2, 33360, Note_on_c, 0, 82, 100
2, 33420, Note_on_c, 0, 82, 0
2, 33420, Note_on_c, 0, 80, 100
2, 33480, Note_on_c, 0, 80, 0
2, 33480, Note_on_c, 0, 70, 100
2, 33540, Note_on_c, 0, 70, 0
2, 33540, Note_on_c, 0, 73, 100
2, 33600, Note_on_c, 0, 73, 0
2, 33600, Note_on_c, 0, 72, 100
2, 33660, Note_on_c, 0, 72, 0
2, 33660, Note_on_c, 0, 75, 100
2, 33720, Note_on_c, 0, 75, 0
2, 33720, Note_on_c, 0, 73, 100
2, 33780, Note_on_c, 0, 73, 0
2, 33780, Note_on_c, 0, 77, 100
2, 33840, Note_on_c, 0, 77, 0
2, 33840, Note_on_c, 0, 76, 100
2, 33900, Note_on_c, 0, 76, 0
2, 33900, Note_on_c, 0, 79, 100
2, 33960, Note_on_c, 0, 79, 0
2, 33960, Note_on_c, 0, 77, 100
2, 34020, Note_on_c, 0, 77, 0
2, 34020, Note_on_c, 0, 82, 100
2, 34080, Note_on_c, 0, 82, 0
2, 34080, Note_on_c, 0, 81, 100
2, 34140, Note_on_c, 0, 81, 0
2, 34140, Note_on_c, 0, 84, 100
2, 34200, Note_on_c, 0, 84, 0
2, 34200, Note_on_c, 0, 70, 100
2, 34260, Note_on_c, 0, 70, 0
2, 34260, Note_on_c, 0, 73, 100
2, 34320, Note_on_c, 0, 73, 0
2, 34320, Note_on_c, 0, 72, 100
2, 34380, Note_on_c, 0, 72, 0
2, 34380, Note_on_c, 0, 75, 100
2, 34440, Note_on_c, 0, 75, 0
2, 34440, Note_on_c, 0, 73, 100
2, 34500, Note_on_c, 0, 73, 0
2, 34500, Note_on_c, 0, 79, 100
2, 34560, Note_on_c, 0, 79, 0
2, 34560, Note_on_c, 0, 80, 100
2, 34680, Note_on_c, 0, 80, 0
2, 34680, Note_on_c, 0, 72, 100
2, 34800, Note_on_c, 0, 72, 0
2, 34800, Note_on_c, 0, 68, 100
2, 34860, Note_on_c, 0, 68, 0
2, 34920, Note_on_c, 0, 68, 100
2, 35040, Note_on_c, 0, 68, 0
2, 35040, Note_on_c, 0, 68, 100
2, 35070, Note_on_c, 0, 68, 0
2, 35100, Note_on_c, 0, 68, 100
2, 35130, Note_on_c, 0, 68, 0
2, 35160, Note_on_c, 0, 68, 100
2, 35280, Note_on_c, 0, 68, 0
2, 35280, Note_on_c, 0, 68, 100
2, 35340, Note_on_c, 0, 68, 0
2, 35400, Note_on_c, 0, 73, 100
2, 35460, Note_on_c, 0, 73, 0
2, 35460, Note_on_c, 0, 77, 100
2, 35520, Note_on_c, 0, 77, 0
2, 35520, Note_on_c, 0, 80, 100
2, 35640, Note_on_c, 0, 80, 0
2, 35640, Note_on_c, 0, 75, 100
2, 35700, Note_on_c, 0, 75, 0
2, 35760, Note_on_c, 0, 80, 100
2, 35820, Note_on_c, 0, 80, 0
2, 35820, Note_on_c, 0, 75, 100
2, 35880, Note_on_c, 0, 75, 0
2, 35880, Note_on_c, 0, 68, 100
2, 36000, Note_on_c, 0, 68, 0
2, 36000, Note_on_c, 0, 73, 100
2, 36060, Note_on_c, 0, 73, 0
2, 36120, Note_on_c, 0, 68, 100
2, 36180, Note_on_c, 0, 68, 0
2, 36180, Note_on_c, 0, 73, 100
2, 36240, Note_on_c, 0, 73, 0
2, 36240, Note_on_c, 0, 77, 100
2, 36360, Note_on_c, 0, 77, 0
2, 36360, Note_on_c, 0, 68, 100
2, 36390, Note_on_c, 0, 68, 0
2, 36420, Note_on_c, 0, 68, 100
2, 36450, Note_on_c, 0, 68, 0
2, 36480, Note_on_c, 0, 68, 100
2, 36510, Note_on_c, 0, 68, 0
2, 36540, Note_on_c, 0, 68, 100
2, 36570, Note_on_c, 0, 68, 0
2, 36600, Note_on_c, 0, 68, 100
2, 36720, Note_on_c, 0, 68, 0
2, 36720, Note_on_c, 0, 73, 100
2, 36780, Note_on_c, 0, 73, 0
2, 36780, Note_on_c, 0, 68, 100
2, 36840, Note_on_c, 0, 68, 0
2, 36840, Note_on_c, 0, 73, 100
2, 36900, Note_on_c, 0, 73, 0
2, 36900, Note_on_c, 0, 77, 100
2, 36960, Note_on_c, 0, 77, 0
2, 36960, Note_on_c, 0, 80, 100
2, 37080, Note_on_c, 0, 80, 0
2, 37080, Note_on_c, 0, 75, 100
2, 37140, Note_on_c, 0, 75, 0
2, 37200, Note_on_c, 0, 80, 100
2, 37260, Note_on_c, 0, 80, 0
2, 37260, Note_on_c, 0, 75, 100
2, 37320, Note_on_c, 0, 75, 0
2, 37320, Note_on_c, 0, 68, 100
2, 37440, Note_on_c, 0, 68, 0
2, 37440, Note_on_c, 0, 73, 100
2, 37680, Note_on_c, 0, 73, 0
2, 37680, Note_on_c, 0, 65, 100
2, 37740, Note_on_c, 0, 65, 0
2, 37740, Note_on_c, 0, 66, 100
2, 37800, Note_on_c, 0, 66, 0
2, 37800, Note_on_c, 0, 68, 100
2, 37920, Note_on_c, 0, 68, 0
2, 37920, Note_on_c, 0, 68, 100
2, 37950, Note_on_c, 0, 68, 0
2, 37980, Note_on_c, 0, 68, 100
2, 38010, Note_on_c, 0, 68, 0
2, 38040, Note_on_c, 0, 68, 100
2, 38160, Note_on_c, 0, 68, 0
2, 38160, Note_on_c, 0, 68, 100
2, 38220, Note_on_c, 0, 68, 0
2, 38280, Note_on_c, 0, 73, 100
2, 38340, Note_on_c, 0, 73, 0
2, 38340, Note_on_c, 0, 77, 100
2, 38400, Note_on_c, 0, 77, 0
2, 38400, Note_on_c, 0, 80, 100
2, 38520, Note_on_c, 0, 80, 0
2, 38520, Note_on_c, 0, 75, 100
2, 38580, Note_on_c, 0, 75, 0
2, 38640, Note_on_c, 0, 80, 100
2, 38700, Note_on_c, 0, 80, 0
2, 38700, Note_on_c, 0, 75, 100
2, 38760, Note_on_c, 0, 75, 0
2, 38760, Note_on_c, 0, 68, 100
2, 38880, Note_on_c, 0, 68, 0
2, 38880, Note_on_c, 0, 73, 100
2, 38940, Note_on_c, 0, 73, 0
2, 39000, Note_on_c, 0, 68, 100
2, 39060, Note_on_c, 0, 68, 0
2, 39060, Note_on_c, 0, 73, 100
2, 39120, Note_on_c, 0, 73, 0
2, 39120, Note_on_c, 0, 77, 100
2, 39240, Note_on_c, 0, 77, 0
2, 39240, Note_on_c, 0, 68, 100
2, 39270, Note_on_c, 0, 68, 0
2, 39300, Note_on_c, 0, 68, 100
2, 39330, Note_on_c, 0, 68, 0
2, 39360, Note_on_c, 0, 68, 100
2, 39390, Note_on_c, 0, 68, 0
2, 39420, Note_on_c, 0, 68, 100
2, 39450, Note_on_c, 0, 68, 0
2, 39480, Note_on_c, 0, 68, 100
2, 39600, Note_on_c, 0, 68, 0
2, 39600, Note_on_c, 0, 73, 100
2, 39660, Note_on_c, 0, 73, 0
2, 39660, Note_on_c, 0, 68, 100
2, 39720, Note_on_c, 0, 68, 0
2, 39720, Note_on_c, 0, 73, 100
2, 39780, Note_on_c, 0, 73, 0
2, 39780, Note_on_c, 0, 77, 100
2, 39840, Note_on_c, 0, 77, 0
2, 39840, Note_on_c, 0, 80, 100
2, 39960, Note_on_c, 0, 80, 0
2, 39960, Note_on_c, 0, 75, 100
2, 40020, Note_on_c, 0, 75, 0
2, 40080, Note_on_c, 0, 80, 100
2, 40140, Note_on_c, 0, 80, 0
2, 40140, Note_on_c, 0, 75, 100
2, 40200, Note_on_c, 0, 75, 0
2, 40200, Note_on_c, 0, 68, 100
2, 40320, Note_on_c, 0, 68, 0
2, 40320, Note_on_c, 0, 73, 100
2, 40560, Note_on_c, 0, 73, 0
2, 40560, Note_on_c, 0, 73, 80
2, 40620, Note_on_c, 0, 73, 0
2, 40680, Note_on_c, 0, 73, 80
2, 40740, Note_on_c, 0, 73, 0
2, 40740, Note_on_c, 0, 72, 80
2, 40800, Note_on_c, 0, 72, 0
2, 40800, Note_on_c, 0, 75, 80
2, 40860, Note_on_c, 0, 75, 0
2, 40860, Note_on_c, 0, 73, 80
2, 40920, Note_on_c, 0, 73, 0
2, 40920, Note_on_c, 0, 84, 80
2, 40980, Note_on_c, 0, 84, 0
2, 40980, Note_on_c, 0, 82, 80
2, 41040, Note_on_c, 0, 82, 0
2, 41040, Note_on_c, 0, 73, 80
2, 41100, Note_on_c, 0, 73, 0
2, 41100, Note_on_c, 0, 72, 80
2, 41160, Note_on_c, 0, 72, 0
2, 41160, Note_on_c, 0, 75, 80
2, 41220, Note_on_c, 0, 75, 0
2, 41220, Note_on_c, 0, 73, 80
2, 41280, Note_on_c, 0, 73, 0
2, 41280, Note_on_c, 0, 84, 80
2, 41340, Note_on_c, 0, 84, 0
2, 41340, Note_on_c, 0, 82, 80
2, 41400, Note_on_c, 0, 82, 0
2, 41400, Note_on_c, 0, 72, 80
2, 41460, Note_on_c, 0, 72, 0
2, 41460, Note_on_c, 0, 71, 80
2, 41520, Note_on_c, 0, 71, 0
2, 41520, Note_on_c, 0, 73, 80
2, 41580, Note_on_c, 0, 73, 0
2, 41580, Note_on_c, 0, 72, 80
2, 41640, Note_on_c, 0, 72, 0
2, 41640, Note_on_c, 0, 82, 80
2, 41700, Note_on_c, 0, 82, 0
2, 41700, Note_on_c, 0, 80, 80
2, 41760, Note_on_c, 0, 80, 0
2, 41760, Note_on_c, 0, 72, 80
2, 41820, Note_on_c, 0, 72, 0
2, 41820, Note_on_c, 0, 71, 80
2, 41880, Note_on_c, 0, 71, 0
2, 41880, Note_on_c, 0, 73, 80
2, 41940, Note_on_c, 0, 73, 0
2, 41940, Note_on_c, 0, 72, 80
2, 42000, Note_on_c, 0, 72, 0
2, 42000, Note_on_c, 0, 82, 80
2, 42060, Note_on_c, 0, 82, 0
2, 42060, Note_on_c, 0, 80, 80
2, 42120, Note_on_c, 0, 80, 0
2, 42120, Note_on_c, 0, 70, 80
2, 42180, Note_on_c, 0, 70, 0
2, 42180, Note_on_c, 0, 69, 80
2, 42240, Note_on_c, 0, 69, 0
2, 42240, Note_on_c, 0, 72, 80
2, 42300, Note_on_c, 0, 72, 0
2, 42300, Note_on_c, 0, 70, 80
2, 42360, Note_on_c, 0, 70, 0
2, 42360, Note_on_c, 0, 73, 80
2, 42420, Note_on_c, 0, 73, 0
2, 42420, Note_on_c, 0, 72, 80
2, 42480, Note_on_c, 0, 72, 0
2, 42480, Note_on_c, 0, 75, 80
2, 42540, Note_on_c, 0, 75, 0
2, 42540, Note_on_c, 0, 73, 80
2, 42600, Note_on_c, 0, 73, 0
2, 42600, Note_on_c, 0, 79, 80
2, 42660, Note_on_c, 0, 79, 0
2, 42660, Note_on_c, 0, 77, 80
2, 42720, Note_on_c, 0, 77, 0
2, 42720, Note_on_c, 0, 73, 80
2, 42780, Note_on_c, 0, 73, 0
2, 42780, Note_on_c, 0, 67, 80
2, 42840, Note_on_c, 0, 67, 0
2, 42840, Note_on_c, 0, 68, 80
2, 42900, Note_on_c, 0, 68, 0
2, 42900, Note_on_c, 0, 69, 80
2, 42960, Note_on_c, 0, 69, 0
2, 42960, Note_on_c, 0, 70, 80
2, 43020, Note_on_c, 0, 70, 0
2, 43020, Note_on_c, 0, 71, 80
2, 43080, Note_on_c, 0, 71, 0
2, 43080, Note_on_c, 0, 72, 80
2, 43140, Note_on_c, 0, 72, 0
2, 43140, Note_on_c, 0, 68, 80
2, 43200, Note_on_c, 0, 68, 0
2, 43200, Note_on_c, 0, 63, 80
2, 43320, Note_on_c, 0, 63, 0
2, 43440, Note_on_c, 0, 72, 80
2, 43500, Note_on_c, 0, 72, 0
2, 43560, Note_on_c, 0, 73, 100
2, 43620, Note_on_c, 0, 73, 0
2, 43620, Note_on_c, 0, 72, 100
2, 43680, Note_on_c, 0, 72, 0
2, 43680, Note_on_c, 0, 75, 100
2, 43740, Note_on_c, 0, 75, 0
2, 43740, Note_on_c, 0, 73, 100
2, 43800, Note_on_c, 0, 73, 0
2, 43800, Note_on_c, 0, 84, 100
2, 43860, Note_on_c, 0, 84, 0
2, 43860, Note_on_c, 0, 82, 100
2, 43920, Note_on_c, 0, 82, 0
2, 43920, Note_on_c, 0, 73, 100
2, 43980, Note_on_c, 0, 73, 0
2, 43980, Note_on_c, 0, 72, 100
2, 44040, Note_on_c, 0, 72, 0
2, 44040, Note_on_c, 0, 75, 100
2, 44100, Note_on_c, 0, 75, 0
2, 44100, Note_on_c, 0, 73, 100
2, 44160, Note_on_c, 0, 73, 0
2, 44160, Note_on_c, 0, 84, 100
2, 44220, Note_on_c, 0, 84, 0
2, 44220, Note_on_c, 0, 82, 100
2, 44280, Note_on_c, 0, 82, 0
2, 44280, Note_on_c, 0, 72, 100
2, 44340, Note_on_c, 0, 72, 0
2, 44340, Note_on_c, 0, 71, 100
2, 44400, Note_on_c, 0, 71, 0
2, 44400, Note_on_c, 0, 73, 100
2, 44460, Note_on_c, 0, 73, 0
2, 44460, Note_on_c, 0, 72, 100
2, 44520, Note_on_c, 0, 72, 0
2, 44520, Note_on_c, 0, 82, 100
2, 44580, Note_on_c, 0, 82, 0
2, 44580, Note_on_c, 0, 80, 100
2, 44640, Note_on_c, 0, 80, 0
2, 44640, Note_on_c, 0, 72, 100
2, 44700, Note_on_c, 0, 72, 0
2, 44700, Note_on_c, 0, 71, 100
2, 44760, Note_on_c, 0, 71, 0
2, 44760, Note_on_c, 0, 73, 100
2, 44820, Note_on_c, 0, 73, 0
2, 44820, Note_on_c, 0, 72, 100
2, 44880, Note_on_c, 0, 72, 0
2, 44880, Note_on_c, 0, 82, 100
2, 44940, Note_on_c, 0, 82, 0
2, 44940, Note_on_c, 0, 80, 100
2, 45000, Note_on_c, 0, 80, 0
2, 45000, Note_on_c, 0, 74, 100
2, 45060, Note_on_c, 0, 74, 0
2, 45060, Note_on_c, 0, 75, 103
2, 45120, Note_on_c, 0, 75, 0
2, 45120, Note_on_c, 0, 77, 107
2, 45180, Note_on_c, 0, 77, 0
2, 45180, Note_on_c, 0, 79, 110
2, 45240, Note_on_c, 0, 79, 0
2, 45240, Note_on_c, 0, 80, 114
2, 45300, Note_on_c, 0, 80, 0
2, 45300, Note_on_c, 0, 81, 117
2, 45360, Note_on_c, 0, 81, 0
2, 45360, Note_on_c, 0, 82, 120
2, 45420, Note_on_c, 0, 82, 0
2, 45420, Note_on_c, 0, 83, 118
2, 45480, Note_on_c, 0, 83, 0
2, 45480, Note_on_c, 0, 86, 116
2, 45540, Note_on_c, 0, 86, 0
2, 45540, Note_on_c, 0, 84, 114
2, 45600, Note_on_c, 0, 84, 0
2, 45600, Note_on_c, 0, 82, 111
2, 45660, Note_on_c, 0, 82, 0
2, 45660, Note_on_c, 0, 80, 109
2, 45720, Note_on_c, 0, 80, 0
2, 45720, Note_on_c, 0, 80, 107
2, 45780, Note_on_c, 0, 80, 0
2, 45780, Note_on_c, 0, 79, 104
2, 45840, Note_on_c, 0, 79, 0
2, 45840, Note_on_c, 0, 79, 102
2, 45900, Note_on_c, 0, 79, 0
2, 45900, Note_on_c, 0, 78, 100
2, 45960, Note_on_c, 0, 78, 0
2, 45960, Note_on_c, 0, 78, 97
2, 46020, Note_on_c, 0, 78, 0
2, 46020, Note_on_c, 0, 77, 95
2, 46080, Note_on_c, 0, 77, 0
2, 46080, Note_on_c, 0, 77, 93
2, 46140, Note_on_c, 0, 77, 0
2, 46140, Note_on_c, 0, 76, 91
2, 46200, Note_on_c, 0, 76, 0
2, 46200, Note_on_c, 0, 76, 88
2, 46260, Note_on_c, 0, 76, 0
2, 46260, Note_on_c, 0, 75, 86
2, 46320, Note_on_c, 0, 75, 0
2, 46320, Note_on_c, 0, 75, 84
2, 46380, Note_on_c, 0, 75, 0
2, 46380, Note_on_c, 0, 74, 81
2, 46440, Note_on_c, 0, 74, 0
2, 46440, Note_on_c, 0, 73, 80
2, 46500, Note_on_c, 0, 73, 0
2, 46500, Note_on_c, 0, 72, 80
2, 46560, Note_on_c, 0, 72, 0
2, 46560, Note_on_c, 0, 75, 80
2, 46620, Note_on_c, 0, 75, 0
2, 46620, Note_on_c, 0, 73, 80
2, 46680, Note_on_c, 0, 73, 0
2, 46680, Note_on_c, 0, 84, 80
2, 46740, Note_on_c, 0, 84, 0
2, 46740, Note_on_c, 0, 82, 80
2, 46800, Note_on_c, 0, 82, 0
2, 46800, Note_on_c, 0, 73, 80
2, 46860, Note_on_c, 0, 73, 0
2, 46860, Note_on_c, 0, 72, 80
2, 46920, Note_on_c, 0, 72, 0
2, 46920, Note_on_c, 0, 75, 80
2, 46980, Note_on_c, 0, 75, 0
2, 46980, Note_on_c, 0, 73, 80
2, 47040, Note_on_c, 0, 73, 0
2, 47040, Note_on_c, 0, 84, 80
2, 47100, Note_on_c, 0, 84, 0
2, 47100, Note_on_c, 0, 82, 80
2, 47160, Note_on_c, 0, 82, 0
2, 47160, Note_on_c, 0, 72, 80
2, 47220, Note_on_c, 0, 72, 0
2, 47220, Note_on_c, 0, 71, 80
2, 47280, Note_on_c, 0, 71, 0
2, 47280, Note_on_c, 0, 73, 80
2, 47340, Note_on_c, 0, 73, 0
2, 47340, Note_on_c, 0, 72, 80
2, 47400, Note_on_c, 0, 72, 0
2, 47400, Note_on_c, 0, 82, 80
2, 47460, Note_on_c, 0, 82, 0
2, 47460, Note_on_c, 0, 80, 80
2, 47520, Note_on_c, 0, 80, 0
2, 47520, Note_on_c, 0, 72, 80
2, 47580, Note_on_c, 0, 72, 0
2, 47580, Note_on_c, 0, 71, 80
2, 47640, Note_on_c, 0, 71, 0
2, 47640, Note_on_c, 0, 73, 80
2, 47700, Note_on_c, 0, 73, 0
2, 47700, Note_on_c, 0, 72, 80
2, 47760, Note_on_c, 0, 72, 0
2, 47760, Note_on_c, 0, 82, 80
2, 47820, Note_on_c, 0, 82, 0
2, 47820, Note_on_c, 0, 80, 80
2, 47880, Note_on_c, 0, 80, 0
2, 47880, Note_on_c, 0, 70, 80
2, 47940, Note_on_c, 0, 70, 0
2, 47940, Note_on_c, 0, 69, 80
2, 48000, Note_on_c, 0, 69, 0
2, 48000, Note_on_c, 0, 72, 80
2, 48060, Note_on_c, 0, 72, 0
2, 48060, Note_on_c, 0, 70, 80
2, 48120, Note_on_c, 0, 70, 0
2, 48120, Note_on_c, 0, 73, 80
2, 48180, Note_on_c, 0, 73, 0
2, 48180, Note_on_c, 0, 72, 80
2, 48240, Note_on_c, 0, 72, 0
2, 48240, Note_on_c, 0, 75, 80
2, 48300, Note_on_c, 0, 75, 0
2, 48300, Note_on_c, 0, 73, 80
2, 48360, Note_on_c, 0, 73, 0
2, 48360, Note_on_c, 0, 79, 80
2, 48420, Note_on_c, 0, 79, 0
2, 48420, Note_on_c, 0, 77, 80
2, 48480, Note_on_c, 0, 77, 0
2, 48480, Note_on_c, 0, 73, 80
2, 48540, Note_on_c, 0, 73, 0
2, 48540, Note_on_c, 0, 67, 80
2, 48600, Note_on_c, 0, 67, 0
2, 48600, Note_on_c, 0, 68, 80
2, 48660, Note_on_c, 0, 68, 0
2, 48660, Note_on_c, 0, 69, 80
2, 48720, Note_on_c, 0, 69, 0
2, 48720, Note_on_c, 0, 70, 80
2, 48780, Note_on_c, 0, 70, 0
2, 48780, Note_on_c, 0, 71, 80
2, 48840, Note_on_c, 0, 71, 0
2, 48840, Note_on_c, 0, 72, 80
2, 48900, Note_on_c, 0, 72, 0
2, 48900, Note_on_c, 0, 68, 80
2, 48960, Note_on_c, 0, 68, 0
2, 48960, Note_on_c, 0, 63, 80
2, 49080, Note_on_c, 0, 63, 0
2, 49200, Note_on_c, 0, 72, 80
2, 49260, Note_on_c, 0, 72, 0
2, 49320, Note_on_c, 0, 73, 100
2, 49380, Note_on_c, 0, 73, 0
2, 49380, Note_on_c, 0, 72, 100
2, 49440, Note_on_c, 0, 72, 0
2, 49440, Note_on_c, 0, 75, 100
2, 49500, Note_on_c, 0, 75, 0
2, 49500, Note_on_c, 0, 73, 100
2, 49560, Note_on_c, 0, 73, 0
2, 49560, Note_on_c, 0, 84, 100
2, 49620, Note_on_c, 0, 84, 0
2, 49620, Note_on_c, 0, 82, 100
2, 49680, Note_on_c, 0, 82, 0
2, 49680, Note_on_c, 0, 73, 100
2, 49740, Note_on_c, 0, 73, 0
2, 49740, Note_on_c, 0, 72, 100
2, 49800, Note_on_c, 0, 72, 0
2, 49800, Note_on_c, 0, 75, 100
2, 49860, Note_on_c, 0, 75, 0
2, 49860, Note_on_c, 0, 73, 100
2, 49920, Note_on_c, 0, 73, 0
2, 49920, Note_on_c, 0, 84, 100
2, 49980, Note_on_c, 0, 84, 0
2, 49980, Note_on_c, 0, 82, 100
2, 50040, Note_on_c, 0, 82, 0
2, 50040, Note_on_c, 0, 72, 100
2, 50100, Note_on_c, 0, 72, 0
2, 50100, Note_on_c, 0, 71, 100
2, 50160, Note_on_c, 0, 71, 0
2, 50160, Note_on_c, 0, 73, 100
2, 50220, Note_on_c, 0, 73, 0
2, 50220, Note_on_c, 0, 72, 100
2, 50280, Note_on_c, 0, 72, 0
2, 50280, Note_on_c, 0, 82, 100
2, 50340, Note_on_c, 0, 82, 0
2, 50340, Note_on_c, 0, 80, 100
2, 50400, Note_on_c, 0, 80, 0
2, 50400, Note_on_c, 0, 72, 100
2, 50460, Note_on_c, 0, 72, 0
2, 50460, Note_on_c, 0, 71, 100
2, 50520, Note_on_c, 0, 71, 0
2, 50520, Note_on_c, 0, 73, 100
2, 50580, Note_on_c, 0, 73, 0
2, 50580, Note_on_c, 0, 72, 100
2, 50640, Note_on_c, 0, 72, 0
2, 50640, Note_on_c, 0, 82, 100
2, 50700, Note_on_c, 0, 82, 0
2, 50700, Note_on_c, 0, 80, 100
2, 50760, Note_on_c, 0, 80, 0
2, 50760, Note_on_c, 0, 70, 100
2, 50820, Note_on_c, 0, 70, 0
2, 50820, Note_on_c, 0, 73, 101
2, 50880, Note_on_c, 0, 73, 0
2, 50880, Note_on_c, 0, 72, 103
2, 50940, Note_on_c, 0, 72, 0
2, 50940, Note_on_c, 0, 75, 105
2, 51000, Note_on_c, 0, 75, 0
2, 51000, Note_on_c, 0, 73, 107
2, 51060, Note_on_c, 0, 73, 0
2, 51060, Note_on_c, 0, 77, 108
2, 51120, Note_on_c, 0, 77, 0
2, 51120, Note_on_c, 0, 76, 110
2, 51180, Note_on_c, 0, 76, 0
2, 51180, Note_on_c, 0, 79, 112
2, 51240, Note_on_c, 0, 79, 0
2, 51240, Note_on_c, 0, 77, 114
2, 51300, Note_on_c, 0, 77, 0
2, 51300, Note_on_c, 0, 82, 115
2, 51360, Note_on_c, 0, 82, 0
2, 51360, Note_on_c, 0, 81, 117
2, 51420, Note_on_c, 0, 81, 0
2, 51420, Note_on_c, 0, 84, 119
2, 51480, Note_on_c, 0, 84, 0
2, 51480, Note_on_c, 0, 70, 120
2, 51540, Note_on_c, 0, 70, 0
2, 51540, Note_on_c, 0, 73, 120
2, 51600, Note_on_c, 0, 73, 0
2, 51600, Note_on_c, 0, 72, 120
2, 51660, Note_on_c, 0, 72, 0
2, 51660, Note_on_c, 0, 75, 120
2, 51720, Note_on_c, 0, 75, 0
2, 51720, Note_on_c, 0, 73, 120
2, 51780, Note_on_c, 0, 73, 0
2, 51780, Note_on_c, 0, 79, 120
2, 51840, Note_on_c, 0, 79, 0
2, 51840, Note_on_c, 0, 80, 120
2, 51960, Note_on_c, 0, 80, 0
2, 51960, Note_on_c, 0, 72, 120
2, 52080, Note_on_c, 0, 72, 0
2, 52080, Note_on_c, 0, 84, 80
2, 52140, Note_on_c, 0, 84, 0
2, 52200, Note_on_c, 0, 82, 80
2, 52260, Note_on_c, 0, 82, 0
2, 52260, Note_on_c, 0, 84, 80
2, 52320, Note_on_c, 0, 84, 0
2, 52320, Note_on_c, 0, 82, 80
2, 52380, Note_on_c, 0, 82, 0
2, 52380, Note_on_c, 0, 80, 80
2, 52440, Note_on_c, 0, 80, 0
2, 52440, Note_on_c, 0, 79, 80
2, 52500, Note_on_c, 0, 79, 0
2, 52500, Note_on_c, 0, 84, 80
2, 52560, Note_on_c, 0, 84, 0
2, 52560, Note_on_c, 0, 80, 80
2, 52620, Note_on_c, 0, 80, 0
2, 52620, Note_on_c, 0, 82, 80
2, 52680, Note_on_c, 0, 82, 0
2, 52680, Note_on_c, 0, 80, 80
2, 52740, Note_on_c, 0, 80, 0
2, 52740, Note_on_c, 0, 79, 80
2, 52800, Note_on_c, 0, 79, 0
2, 52800, Note_on_c, 0, 77, 80
2, 52860, Note_on_c, 0, 77, 0
2, 52860, Note_on_c, 0, 84, 80
2, 52920, Note_on_c, 0, 84, 0
2, 52920, Note_on_c, 0, 79, 80
2, 52980, Note_on_c, 0, 79, 0
2, 52980, Note_on_c, 0, 72, 80
2, 53040, Note_on_c, 0, 72, 0
2, 53040, Note_on_c, 0, 73, 80
2, 53100, Note_on_c, 0, 73, 0
2, 53100, Note_on_c, 0, 72, 80
2, 53160, Note_on_c, 0, 72, 0
2, 53160, Note_on_c, 0, 80, 80
2, 53220, Note_on_c, 0, 80, 0
2, 53220, Note_on_c, 0, 79, 80
2, 53280, Note_on_c, 0, 79, 0
2, 53280, Note_on_c, 0, 77, 80
2, 53340, Note_on_c, 0, 77, 0
2, 53340, Note_on_c, 0, 72, 80
2, 53400, Note_on_c, 0, 72, 0
2, 53400, Note_on_c, 0, 73, 80
2, 53460, Note_on_c, 0, 73, 0
2, 53460, Note_on_c, 0, 72, 80
2, 53520, Note_on_c, 0, 72, 0
2, 53520, Note_on_c, 0, 80, 80
2, 53580, Note_on_c, 0, 80, 0
2, 53580, Note_on_c, 0, 84, 80
2, 53640, Note_on_c, 0, 84, 0
2, 53640, Note_on_c, 0, 82, 80
2, 53700, Note_on_c, 0, 82, 0
2, 53700, Note_on_c, 0, 84, 80
2, 53760, Note_on_c, 0, 84, 0
2, 53760, Note_on_c, 0, 82, 80
2, 53820, Note_on_c, 0, 82, 0
2, 53820, Note_on_c, 0, 80, 80
2, 53880, Note_on_c, 0, 80, 0
2, 53880, Note_on_c, 0, 79, 80
2, 53940, Note_on_c, 0, 79, 0
2, 53940, Note_on_c, 0, 84, 80
2, 54000, Note_on_c, 0, 84, 0
2, 54000, Note_on_c, 0, 80, 80
2, 54060, Note_on_c, 0, 80, 0
2, 54060, Note_on_c, 0, 82, 80
2, 54120, Note_on_c, 0, 82, 0
2, 54120, Note_on_c, 0, 80, 80
2, 54180, Note_on_c, 0, 80, 0
2, 54180, Note_on_c, 0, 79, 80
2, 54240, Note_on_c, 0, 79, 0
2, 54240, Note_on_c, 0, 77, 80
2, 54300, Note_on_c, 0, 77, 0
2, 54300, Note_on_c, 0, 84, 80
2, 54360, Note_on_c, 0, 84, 0
2, 54360, Note_on_c, 0, 79, 80
2, 54420, Note_on_c, 0, 79, 0
2, 54420, Note_on_c, 0, 72, 80
2, 54480, Note_on_c, 0, 72, 0
2, 54480, Note_on_c, 0, 73, 80
2, 54540, Note_on_c, 0, 73, 0
2, 54540, Note_on_c, 0, 72, 80
2, 54600, Note_on_c, 0, 72, 0
2, 54600, Note_on_c, 0, 80, 80
2, 54660, Note_on_c, 0, 80, 0
2, 54660, Note_on_c, 0, 79, 80
2, 54720, Note_on_c, 0, 79, 0
2, 54720, Note_on_c, 0, 77, 80
2, 54780, Note_on_c, 0, 77, 0
2, 54780, Note_on_c, 0, 72, 80
2, 54840, Note_on_c, 0, 72, 0
2, 54840, Note_on_c, 0, 77, 80
2, 54900, Note_on_c, 0, 77, 0
2, 54900, Note_on_c, 0, 80, 80
2, 54960, Note_on_c, 0, 80, 0
2, 54960, Note_on_c, 0, 84, 80
2, 55080, Note_on_c, 0, 84, 0
2, 55080, Note_on_c, 0, 82, 100
2, 55140, Note_on_c, 0, 82, 0
2, 55140, Note_on_c, 0, 84, 100
2, 55200, Note_on_c, 0, 84, 0
2, 55200, Note_on_c, 0, 82, 100
2, 55260, Note_on_c, 0, 82, 0
2, 55260, Note_on_c, 0, 80, 100
2, 55320, Note_on_c, 0, 80, 0
2, 55320, Note_on_c, 0, 79, 100
2, 55380, Note_on_c, 0, 79, 0
2, 55380, Note_on_c, 0, 84, 100
2, 55440, Note_on_c, 0, 84, 0
2, 55440, Note_on_c, 0, 80, 100
2, 55500, Note_on_c, 0, 80, 0
2, 55500, Note_on_c, 0, 82, 100
2, 55560, Note_on_c, 0, 82, 0
2, 55560, Note_on_c, 0, 80, 100
2, 55620, Note_on_c, 0, 80, 0
2, 55620, Note_on_c, 0, 79, 100
2, 55680, Note_on_c, 0, 79, 0
2, 55680, Note_on_c, 0, 77, 100
2, 55740, Note_on_c, 0, 77, 0
2, 55740, Note_on_c, 0, 84, 100
2, 55800, Note_on_c, 0, 84, 0
2, 55800, Note_on_c, 0, 79, 100
2, 55860, Note_on_c, 0, 79, 0
2, 55860, Note_on_c, 0, 72, 100
2, 55920, Note_on_c, 0, 72, 0
2, 55920, Note_on_c, 0, 73, 100
2, 55980, Note_on_c, 0, 73, 0
2, 55980, Note_on_c, 0, 72, 100
2, 56040, Note_on_c, 0, 72, 0
2, 56040, Note_on_c, 0, 80, 100
2, 56100, Note_on_c, 0, 80, 0
2, 56100, Note_on_c, 0, 79, 100
2, 56160, Note_on_c, 0, 79, 0
2, 56160, Note_on_c, 0, 77, 100
2, 56220, Note_on_c, 0, 77, 0
2, 56220, Note_on_c, 0, 72, 100
2, 56280, Note_on_c, 0, 72, 0
2, 56280, Note_on_c, 0, 73, 100
2, 56340, Note_on_c, 0, 73, 0
2, 56340, Note_on_c, 0, 72, 100
2, 56400, Note_on_c, 0, 72, 0
2, 56400, Note_on_c, 0, 80, 100
2, 56460, Note_on_c, 0, 80, 0
2, 56460, Note_on_c, 0, 84, 100
2, 56520, Note_on_c, 0, 84, 0
2, 56520, Note_on_c, 0, 82, 100
2, 56580, Note_on_c, 0, 82, 0
2, 56580, Note_on_c, 0, 84, 100
2, 56640, Note_on_c, 0, 84, 0
2, 56640, Note_on_c, 0, 82, 100
2, 56700, Note_on_c, 0, 82, 0
2, 56700, Note_on_c, 0, 80, 100
2, 56760, Note_on_c, 0, 80, 0
2, 56760, Note_on_c, 0, 79, 100
2, 56820, Note_on_c, 0, 79, 0
2, 56820, Note_on_c, 0, 84, 100
2, 56880, Note_on_c, 0, 84, 0
2, 56880, Note_on_c, 0, 80, 100
2, 56940, Note_on_c, 0, 80, 0
2, 56940, Note_on_c, 0, 82, 100
2, 57000, Note_on_c, 0, 82, 0
2, 57000, Note_on_c, 0, 80, 100
2, 57060, Note_on_c, 0, 80, 0
2, 57060, Note_on_c, 0, 79, 100
2, 57120, Note_on_c, 0, 79, 0
2, 57120, Note_on_c, 0, 77, 100
2, 57180, Note_on_c, 0, 77, 0
2, 57180, Note_on_c, 0, 84, 100
2, 57240, Note_on_c, 0, 84, 0
2, 57240, Note_on_c, 0, 79, 100
2, 57300, Note_on_c, 0, 79, 0
2, 57300, Note_on_c, 0, 72, 100
2, 57360, Note_on_c, 0, 72, 0
2, 57360, Note_on_c, 0, 73, 100
2, 57420, Note_on_c, 0, 73, 0
2, 57420, Note_on_c, 0, 72, 100
2, 57480, Note_on_c, 0, 72, 0
2, 57480, Note_on_c, 0, 80, 100
2, 57540, Note_on_c, 0, 80, 0
2, 57540, Note_on_c, 0, 79, 100
2, 57600, Note_on_c, 0, 79, 0
2, 57600, Note_on_c, 0, 77, 100
2, 57660, Note_on_c, 0, 77, 0
2, 57660, Note_on_c, 0, 79, 100
2, 57720, Note_on_c, 0, 79, 0
2, 57720, Note_on_c, 0, 77, 100
2, 57780, Note_on_c, 0, 77, 0
2, 57780, Note_on_c, 0, 76, 100
2, 57840, Note_on_c, 0, 76, 0
2, 57840, Note_on_c, 0, 75, 100
2, 57900, Note_on_c, 0, 75, 0
2, 57900, Note_on_c, 0, 74, 100
2, 57960, Note_on_c, 0, 74, 0
2, 57960, Note_on_c, 0, 73, 80
2, 58020, Note_on_c, 0, 73, 0
2, 58020, Note_on_c, 0, 72, 80
2, 58080, Note_on_c, 0, 72, 0
2, 58080, Note_on_c, 0, 75, 80
2, 58140, Note_on_c, 0, 75, 0
2, 58140, Note_on_c, 0, 73, 80
2, 58200, Note_on_c, 0, 73, 0
2, 58200, Note_on_c, 0, 84, 80
2, 58260, Note_on_c, 0, 84, 0
2, 58260, Note_on_c, 0, 82, 80
2, 58320, Note_on_c, 0, 82, 0
2, 58320, Note_on_c, 0, 73, 80
2, 58380, Note_on_c, 0, 73, 0
2, 58380, Note_on_c, 0, 72, 80
2, 58440, Note_on_c, 0, 72, 0
2, 58440, Note_on_c, 0, 75, 80
2, 58500, Note_on_c, 0, 75, 0
2, 58500, Note_on_c, 0, 73, 80
2, 58560, Note_on_c, 0, 73, 0
2, 58560, Note_on_c, 0, 84, 80
2, 58620, Note_on_c, 0, 84, 0
2, 58620, Note_on_c, 0, 82, 80
2, 58680, Note_on_c, 0, 82, 0
2, 58680, Note_on_c, 0, 72, 80
2, 58740, Note_on_c, 0, 72, 0
2, 58740, Note_on_c, 0, 71, 80
2, 58800, Note_on_c, 0, 71, 0
2, 58800, Note_on_c, 0, 73, 80
2, 58860, Note_on_c, 0, 73, 0
2, 58860, Note_on_c, 0, 72, 80
2, 58920, Note_on_c, 0, 72, 0
2, 58920, Note_on_c, 0, 82, 80
2, 58980, Note_on_c, 0, 82, 0
2, 58980, Note_on_c, 0, 80, 80
2, 59040, Note_on_c, 0, 80, 0
2, 59040, Note_on_c, 0, 72, 80
2, 59100, Note_on_c, 0, 72, 0
2, 59100, Note_on_c, 0, 71, 80
2, 59160, Note_on_c, 0, 71, 0
2, 59160, Note_on_c, 0, 73, 80
2, 59220, Note_on_c, 0, 73, 0
2, 59220, Note_on_c, 0, 72, 80
2, 59280, Note_on_c, 0, 72, 0
2, 59280, Note_on_c, 0, 82, 80
2, 59340, Note_on_c, 0, 82, 0
2, 59340, Note_on_c, 0, 80, 80
2, 59400, Note_on_c, 0, 80, 0
2, 59400, Note_on_c, 0, 70, 80
2, 59460, Note_on_c, 0, 70, 0
2, 59460, Note_on_c, 0, 69, 80
2, 59520, Note_on_c, 0, 69, 0
2, 59520, Note_on_c, 0, 72, 80
2, 59580, Note_on_c, 0, 72, 0
2, 59580, Note_on_c, 0, 70, 80
2, 59640, Note_on_c, 0, 70, 0
2, 59640, Note_on_c, 0, 73, 80
2, 59700, Note_on_c, 0, 73, 0
2, 59700, Note_on_c, 0, 72, 80
2, 59760, Note_on_c, 0, 72, 0
2, 59760, Note_on_c, 0, 75, 80
2, 59820, Note_on_c, 0, 75, 0
2, 59820, Note_on_c, 0, 73, 80
2, 59880, Note_on_c, 0, 73, 0
2, 59880, Note_on_c, 0, 79, 80
2, 59940, Note_on_c, 0, 79, 0
2, 59940, Note_on_c, 0, 77, 80
2, 60000, Note_on_c, 0, 77, 0
2, 60000, Note_on_c, 0, 73, 80
2, 60060, Note_on_c, 0, 73, 0
2, 60060, Note_on_c, 0, 67, 80
2, 60120, Note_on_c, 0, 67, 0
2, 60120, Note_on_c, 0, 68, 80
2, 60180, Note_on_c, 0, 68, 0
2, 60180, Note_on_c, 0, 69, 80
2, 60240, Note_on_c, 0, 69, 0
2, 60240, Note_on_c, 0, 70, 80
2, 60300, Note_on_c, 0, 70, 0
2, 60300, Note_on_c, 0, 71, 80
2, 60360, Note_on_c, 0, 71, 0
2, 60360, Note_on_c, 0, 72, 80
2, 60420, Note_on_c, 0, 72, 0
2, 60420, Note_on_c, 0, 68, 80
2, 60480, Note_on_c, 0, 68, 0
2, 60480, Note_on_c, 0, 63, 80
2, 60600, Note_on_c, 0, 63, 0
2, 60720, Note_on_c, 0, 72, 80
2, 60780, Note_on_c, 0, 72, 0
2, 60840, Note_on_c, 0, 73, 100
2, 60900, Note_on_c, 0, 73, 0
2, 60900, Note_on_c, 0, 72, 100
2, 60960, Note_on_c, 0, 72, 0
2, 60960, Note_on_c, 0, 75, 100
2, 61020, Note_on_c, 0, 75, 0
2, 61020, Note_on_c, 0, 73, 100
2, 61080, Note_on_c, 0, 73, 0
2, 61080, Note_on_c, 0, 84, 100
2, 61140, Note_on_c, 0, 84, 0
2, 61140, Note_on_c, 0, 82, 100
2, 61200, Note_on_c, 0, 82, 0
2, 61200, Note_on_c, 0, 73, 100
2, 61260, Note_on_c, 0, 73, 0
2, 61260, Note_on_c, 0, 72, 100
2, 61320, Note_on_c, 0, 72, 0
2, 61320, Note_on_c, 0, 75, 100
2, 61380, Note_on_c, 0, 75, 0
2, 61380, Note_on_c, 0, 73, 100
2, 61440, Note_on_c, 0, 73, 0
2, 61440, Note_on_c, 0, 84, 100
2, 61500, Note_on_c, 0, 84, 0
2, 61500, Note_on_c, 0, 82, 100
2, 61560, Note_on_c, 0, 82, 0
2, 61560, Note_on_c, 0, 72, 100
2, 61620, Note_on_c, 0, 72, 0
2, 61620, Note_on_c, 0, 71, 100
2, 61680, Note_on_c, 0, 71, 0
2, 61680, Note_on_c, 0, 73, 100
2, 61740, Note_on_c, 0, 73, 0
2, 61740, Note_on_c, 0, 72, 100
2, 61800, Note_on_c, 0, 72, 0
2, 61800, Note_on_c, 0, 82, 100
2, 61860, Note_on_c, 0, 82, 0
2, 61860, Note_on_c, 0, 80, 100
2, 61920, Note_on_c, 0, 80, 0
2, 61920, Note_on_c, 0, 72, 100
2, 61980, Note_on_c, 0, 72, 0
2, 61980, Note_on_c, 0, 71, 100
2, 62040, Note_on_c, 0, 71, 0
2, 62040, Note_on_c, 0, 73, 100
2, 62100, Note_on_c, 0, 73, 0
2, 62100, Note_on_c, 0, 72, 100
2, 62160, Note_on_c, 0, 72, 0
2, 62160, Note_on_c, 0, 82, 100
2, 62220, Note_on_c, 0, 82, 0
2, 62220, Note_on_c, 0, 80, 100
2, 62280, Note_on_c, 0, 80, 0
2, 62280, Note_on_c, 0, 70, 100
2, 62340, Note_on_c, 0, 70, 0
2, 62340, Note_on_c, 0, 73, 100
2, 62400, Note_on_c, 0, 73, 0
2, 62400, Note_on_c, 0, 72, 100
2, 62460, Note_on_c, 0, 72, 0
2, 62460, Note_on_c, 0, 75, 100
2, 62520, Note_on_c, 0, 75, 0
2, 62520, Note_on_c, 0, 73, 100
2, 62580, Note_on_c, 0, 73, 0
2, 62580, Note_on_c, 0, 77, 100
2, 62640, Note_on_c, 0, 77, 0
2, 62640, Note_on_c, 0, 76, 100
2, 62700, Note_on_c, 0, 76, 0
2, 62700, Note_on_c, 0, 79, 100
2, 62760, Note_on_c, 0, 79, 0
2, 62760, Note_on_c, 0, 77, 100
2, 62820, Note_on_c, 0, 77, 0
2, 62820, Note_on_c, 0, 82, 100
2, 62880, Note_on_c, 0, 82, 0
2, 62880, Note_on_c, 0, 81, 100
2, 62940, Note_on_c, 0, 81, 0
2, 62940, Note_on_c, 0, 84, 100
2, 63000, Note_on_c, 0, 84, 0
2, 63000, Note_on_c, 0, 70, 100
2, 63060, Note_on_c, 0, 70, 0
2, 63060, Note_on_c, 0, 73, 100
2, 63120, Note_on_c, 0, 73, 0
2, 63120, Note_on_c, 0, 72, 100
2, 63180, Note_on_c, 0, 72, 0
2, 63180, Note_on_c, 0, 75, 100
2, 63240, Note_on_c, 0, 75, 0
2, 63240, Note_on_c, 0, 73, 100
2, 63300, Note_on_c, 0, 73, 0
2, 63300, Note_on_c, 0, 79, 100
2, 63360, Note_on_c, 0, 79, 0
2, 63360, Note_on_c, 0, 80, 100
2, 63480, Note_on_c, 0, 80, 0
2, 63480, Note_on_c, 0, 72, 100
2, 63600, Note_on_c, 0, 72, 0
2, 63600, End_track
3, 0, Start_track
3, 0, MIDI_port, 0
3, 0, Title_t, "Lower Bass"
3, 0, Program_c, 0, 0
3, 360, Note_on_c, 0, 43, 90
3, 480, Note_on_c, 0, 43, 0
3, 480, Note_on_c, 0, 61, 80
3, 480, Note_on_c, 0, 58, 80
3, 480, Note_on_c, 0, 51, 80
3, 600, Note_on_c, 0, 51, 0
3, 600, Note_on_c, 0, 58, 0
3, 600, Note_on_c, 0, 61, 0
3, 600, Note_on_c, 0, 51, 80
3, 600, Note_on_c, 0, 58, 80
3, 600, Note_on_c, 0, 61, 80
3, 720, Note_on_c, 0, 61, 0
3, 720, Note_on_c, 0, 58, 0
3, 720, Note_on_c, 0, 51, 0
3, 720, Note_on_c, 0, 43, 90
3, 840, Note_on_c, 0, 43, 0
3, 840, Note_on_c, 0, 61, 80
3, 840, Note_on_c, 0, 58, 80
3, 840, Note_on_c, 0, 51, 80
3, 960, Note_on_c, 0, 51, 0
3, 960, Note_on_c, 0, 58, 0
3, 960, Note_on_c, 0, 61, 0
3, 960, Note_on_c, 0, 51, 80
3, 960, Note_on_c, 0, 58, 80
3, 960, Note_on_c, 0, 61, 80
3, 1080, Note_on_c, 0, 61, 0
3, 1080, Note_on_c, 0, 58, 0
3, 1080, Note_on_c, 0, 51, 0
3, 1080, Note_on_c, 0, 44, 90
3, 1200, Note_on_c, 0, 44, 0
3, 1200, Note_on_c, 0, 60, 80
3, 1200, Note_on_c, 0, 56, 80
3, 1200, Note_on_c, 0, 51, 80
3, 1320, Note_on_c, 0, 51, 0
3, 1320, Note_on_c, 0, 56, 0
3, 1320, Note_on_c, 0, 60, 0
3, 1320, Note_on_c, 0, 56, 80
3, 1320, Note_on_c, 0, 60, 80
3, 1320, Note_on_c, 0, 51, 80
3, 1440, Note_on_c, 0, 51, 0
3, 1440, Note_on_c, 0, 60, 0
3, 1440, Note_on_c, 0, 56, 0
3, 1440, Note_on_c, 0, 44, 90
3, 1560, Note_on_c, 0, 44, 0
3, 1560, Note_on_c, 0, 60, 80
3, 1560, Note_on_c, 0, 56, 80
3, 1560, Note_on_c, 0, 51, 80
3, 1680, Note_on_c, 0, 51, 0
3, 1680, Note_on_c, 0, 56, 0
3, 1680, Note_on_c, 0, 60, 0
3, 1680, Note_on_c, 0, 56, 80
3, 1680, Note_on_c, 0, 60, 80
3, 1680, Note_on_c, 0, 51, 80
3, 1800, Note_on_c, 0, 51, 0
3, 1800, Note_on_c, 0, 60, 0
3, 1800, Note_on_c, 0, 56, 0
3, 1800, Note_on_c, 0, 39, 90
3, 1920, Note_on_c, 0, 39, 0
3, 1920, Note_on_c, 0, 61, 80
3, 1920, Note_on_c, 0, 55, 80
3, 1920, Note_on_c, 0, 51, 80
3, 2040, Note_on_c, 0, 51, 0
3, 2040, Note_on_c, 0, 55, 0
3, 2040, Note_on_c, 0, 61, 0
3, 2040, Note_on_c, 0, 51, 80
3, 2040, Note_on_c, 0, 55, 80
3, 2040, Note_on_c, 0, 61, 80
3, 2160, Note_on_c, 0, 61, 0
3, 2160, Note_on_c, 0, 55, 0
3, 2160, Note_on_c, 0, 51, 0
3, 2160, Note_on_c, 0, 39, 90
3, 2280, Note_on_c, 0, 39, 0
3, 2280, Note_on_c, 0, 61, 80
3, 2280, Note_on_c, 0, 58, 80
3, 2280, Note_on_c, 0, 51, 80
3, 2400, Note_on_c, 0, 51, 0
3, 2400, Note_on_c, 0, 58, 0
3, 2400, Note_on_c, 0, 61, 0
3, 2400, Note_on_c, 0, 58, 80
3, 2400, Note_on_c, 0, 61, 80
3, 2400, Note_on_c, 0, 51, 80
3, 2520, Note_on_c, 0, 51, 0
3, 2520, Note_on_c, 0, 61, 0
3, 2520, Note_on_c, 0, 58, 0
3, 2520, Note_on_c, 0, 44, 90
3, 2640, Note_on_c, 0, 44, 0
3, 2640, Note_on_c, 0, 60, 80
3, 2640, Note_on_c, 0, 56, 80
3, 2640, Note_on_c, 0, 51, 80
3, 2760, Note_on_c, 0, 51, 0
3, 2760, Note_on_c, 0, 56, 0
3, 2760, Note_on_c, 0, 60, 0
3, 2760, Note_on_c, 0, 56, 80
3, 2760, Note_on_c, 0, 60, 80
3, 2760, Note_on_c, 0, 51, 80
3, 2880, Note_on_c, 0, 51, 0
3, 2880, Note_on_c, 0, 60, 0
3, 2880, Note_on_c, 0, 56, 0
3, 2880, Note_on_c, 0, 44, 90
3, 3000, Note_on_c, 0, 44, 0
3, 3000, Note_on_c, 0, 60, 80
3, 3000, Note_on_c, 0, 56, 80
3, 3000, Note_on_c, 0, 51, 80
3, 3120, Note_on_c, 0, 51, 0
3, 3120, Note_on_c, 0, 56, 0
3, 3120, Note_on_c, 0, 60, 0
3, 3120, Note_on_c, 0, 60, 80
3, 3120, Note_on_c, 0, 56, 80
3, 3120, Note_on_c, 0, 51, 80
3, 3240, Note_on_c, 0, 51, 0
3, 3240, Note_on_c, 0, 56, 0
3, 3240, Note_on_c, 0, 60, 0
3, 3240, Note_on_c, 0, 43, 110
3, 3360, Note_on_c, 0, 43, 0
3, 3360, Note_on_c, 0, 61, 100
3, 3360, Note_on_c, 0, 58, 100
3, 3360, Note_on_c, 0, 51, 100
3, 3480, Note_on_c, 0, 51, 0
3, 3480, Note_on_c, 0, 58, 0
3, 3480, Note_on_c, 0, 61, 0
3, 3480, Note_on_c, 0, 61, 100
3, 3480, Note_on_c, 0, 58, 100
3, 3480, Note_on_c, 0, 51, 100
3, 3600, Note_on_c, 0, 51, 0
3, 3600, Note_on_c, 0, 58, 0
3, 3600, Note_on_c, 0, 61, 0
3, 3600, Note_on_c, 0, 43, 110
3, 3720, Note_on_c, 0, 43, 0
3, 3720, Note_on_c, 0, 61, 100
3, 3720, Note_on_c, 0, 58, 100
3, 3720, Note_on_c, 0, 51, 100
3, 3840, Note_on_c, 0, 51, 0
3, 3840, Note_on_c, 0, 58, 0
3, 3840, Note_on_c, 0, 61, 0
3, 3840, Note_on_c, 0, 58, 100
3, 3840, Note_on_c, 0, 61, 100
3, 3840, Note_on_c, 0, 51, 100
3, 3960, Note_on_c, 0, 51, 0
3, 3960, Note_on_c, 0, 61, 0
3, 3960, Note_on_c, 0, 58, 0
3, 3960, Note_on_c, 0, 44, 110
3, 4080, Note_on_c, 0, 44, 0
3, 4080, Note_on_c, 0, 60, 100
3, 4080, Note_on_c, 0, 56, 100
3, 4080, Note_on_c, 0, 51, 100
3, 4200, Note_on_c, 0, 51, 0
3, 4200, Note_on_c, 0, 56, 0
3, 4200, Note_on_c, 0, 60, 0
3, 4200, Note_on_c, 0, 60, 100
3, 4200, Note_on_c, 0, 56, 100
3, 4200, Note_on_c, 0, 52, 100
3, 4320, Note_on_c, 0, 52, 0
3, 4320, Note_on_c, 0, 56, 0
3, 4320, Note_on_c, 0, 60, 0
3, 4320, Note_on_c, 0, 44, 110
3, 4440, Note_on_c, 0, 44, 0
3, 4440, Note_on_c, 0, 60, 100
3, 4440, Note_on_c, 0, 56, 100
3, 4440, Note_on_c, 0, 53, 100
3, 4560, Note_on_c, 0, 53, 0
3, 4560, Note_on_c, 0, 56, 0
3, 4560, Note_on_c, 0, 60, 0
3, 4560, Note_on_c, 0, 60, 100
3, 4560, Note_on_c, 0, 56, 100
3, 4560, Note_on_c, 0, 53, 100
3, 4680, Note_on_c, 0, 53, 0
3, 4680, Note_on_c, 0, 56, 0
3, 4680, Note_on_c, 0, 60, 0
3, 4680, Note_on_c, 0, 46, 110
3, 4800, Note_on_c, 0, 46, 0
3, 4800, Note_on_c, 0, 62, 107
3, 4800, Note_on_c, 0, 58, 107
3, 4800, Note_on_c, 0, 56, 107
3, 4920, Note_on_c, 0, 56, 0
3, 4920, Note_on_c, 0, 58, 0
3, 4920, Note_on_c, 0, 62, 0
3, 4920, Note_on_c, 0, 62, 114
3, 4920, Note_on_c, 0, 58, 114
3, 4920, Note_on_c, 0, 56, 114
3, 5040, Note_on_c, 0, 56, 0
3, 5040, Note_on_c, 0, 58, 0
3, 5040, Note_on_c, 0, 62, 0
3, 5040, Note_on_c, 0, 46, 127
3, 5160, Note_on_c, 0, 46, 0
3, 5160, Note_on_c, 0, 62, 116
3, 5160, Note_on_c, 0, 58, 116
3, 5160, Note_on_c, 0, 56, 116
3, 5280, Note_on_c, 0, 56, 0
3, 5280, Note_on_c, 0, 58, 0
3, 5280, Note_on_c, 0, 62, 0
3, 5280, Note_on_c, 0, 62, 111
3, 5280, Note_on_c, 0, 58, 111
3, 5280, Note_on_c, 0, 56, 111
3, 5400, Note_on_c, 0, 56, 0
3, 5400, Note_on_c, 0, 58, 0
3, 5400, Note_on_c, 0, 62, 0
3, 5400, Note_on_c, 0, 51, 117
3, 5520, Note_on_c, 0, 51, 0
3, 5520, Note_on_c, 0, 63, 102
3, 5520, Note_on_c, 0, 58, 102
3, 5520, Note_on_c, 0, 55, 102
3, 5640, Note_on_c, 0, 55, 0
3, 5640, Note_on_c, 0, 58, 0
3, 5640, Note_on_c, 0, 63, 0
3, 5640, Note_on_c, 0, 55, 97
3, 5640, Note_on_c, 0, 58, 97
3, 5640, Note_on_c, 0, 63, 97
3, 5760, Note_on_c, 0, 63, 0
3, 5760, Note_on_c, 0, 58, 0
3, 5760, Note_on_c, 0, 55, 0
3, 5760, Note_on_c, 0, 51, 103
3, 5880, Note_on_c, 0, 51, 0
3, 5880, Note_on_c, 0, 63, 88
3, 5880, Note_on_c, 0, 58, 88
3, 5880, Note_on_c, 0, 55, 88
3, 6000, Note_on_c, 0, 55, 0
3, 6000, Note_on_c, 0, 58, 0
3, 6000, Note_on_c, 0, 63, 0
3, 6000, Note_on_c, 0, 55, 84
3, 6000, Note_on_c, 0, 58, 84
3, 6000, Note_on_c, 0, 63, 84
3, 6120, Note_on_c, 0, 63, 0
3, 6120, Note_on_c, 0, 58, 0
3, 6120, Note_on_c, 0, 55, 0
3, 6120, Note_on_c, 0, 43, 90
3, 6240, Note_on_c, 0, 43, 0
3, 6240, Note_on_c, 0, 61, 80
3, 6240, Note_on_c, 0, 58, 80
3, 6240, Note_on_c, 0, 51, 80
3, 6360, Note_on_c, 0, 51, 0
3, 6360, Note_on_c, 0, 58, 0
3, 6360, Note_on_c, 0, 61, 0
3, 6360, Note_on_c, 0, 58, 80
3, 6360, Note_on_c, 0, 61, 80
3, 6360, Note_on_c, 0, 51, 80
3, 6480, Note_on_c, 0, 51, 0
3, 6480, Note_on_c, 0, 61, 0
3, 6480, Note_on_c, 0, 58, 0
3, 6480, Note_on_c, 0, 43, 90
3, 6600, Note_on_c, 0, 43, 0
3, 6600, Note_on_c, 0, 61, 80
3, 6600, Note_on_c, 0, 58, 80
3, 6600, Note_on_c, 0, 51, 80
3, 6720, Note_on_c, 0, 51, 0
3, 6720, Note_on_c, 0, 58, 0
3, 6720, Note_on_c, 0, 61, 0
3, 6720, Note_on_c, 0, 58, 80
3, 6720, Note_on_c, 0, 61, 80
3, 6720, Note_on_c, 0, 51, 80
3, 6840, Note_on_c, 0, 51, 0
3, 6840, Note_on_c, 0, 61, 0
3, 6840, Note_on_c, 0, 58, 0
3, 6840, Note_on_c, 0, 44, 90
3, 6960, Note_on_c, 0, 44, 0
3, 6960, Note_on_c, 0, 60, 80
3, 6960, Note_on_c, 0, 56, 80
3, 6960, Note_on_c, 0, 51, 80
3, 7080, Note_on_c, 0, 51, 0
3, 7080, Note_on_c, 0, 56, 0
3, 7080, Note_on_c, 0, 60, 0
3, 7080, Note_on_c, 0, 56, 80
3, 7080, Note_on_c, 0, 60, 80
3, 7080, Note_on_c, 0, 51, 80
3, 7200, Note_on_c, 0, 51, 0
3, 7200, Note_on_c, 0, 60, 0
3, 7200, Note_on_c, 0, 56, 0
3, 7200, Note_on_c, 0, 44, 90
3, 7320, Note_on_c, 0, 44, 0
3, 7320, Note_on_c, 0, 60, 80
3, 7320, Note_on_c, 0, 56, 80
3, 7320, Note_on_c, 0, 51, 80
3, 7440, Note_on_c, 0, 51, 0
3, 7440, Note_on_c, 0, 56, 0
3, 7440, Note_on_c, 0, 60, 0
3, 7440, Note_on_c, 0, 56, 80
3, 7440, Note_on_c, 0, 60, 80
3, 7440, Note_on_c, 0, 51, 80
3, 7560, Note_on_c, 0, 51, 0
3, 7560, Note_on_c, 0, 60, 0
3, 7560, Note_on_c, 0, 56, 0
3, 7560, Note_on_c, 0, 39, 90
3, 7680, Note_on_c, 0, 39, 0
3, 7680, Note_on_c, 0, 61, 80
3, 7680, Note_on_c, 0, 58, 80
3, 7680, Note_on_c, 0, 51, 80
3, 7800, Note_on_c, 0, 51, 0
3, 7800, Note_on_c, 0, 58, 0
3, 7800, Note_on_c, 0, 61, 0
3, 7800, Note_on_c, 0, 58, 80
3, 7800, Note_on_c, 0, 61, 80
3, 7800, Note_on_c, 0, 51, 80
3, 7920, Note_on_c, 0, 51, 0
3, 7920, Note_on_c, 0, 61, 0
3, 7920, Note_on_c, 0, 58, 0
3, 7920, Note_on_c, 0, 39, 90
3, 8040, Note_on_c, 0, 39, 0
3, 8040, Note_on_c, 0, 61, 80
3, 8040, Note_on_c, 0, 58, 80
3, 8040, Note_on_c, 0, 51, 80
3, 8160, Note_on_c, 0, 51, 0
3, 8160, Note_on_c, 0, 58, 0
3, 8160, Note_on_c, 0, 61, 0
3, 8160, Note_on_c, 0, 58, 80
3, 8160, Note_on_c, 0, 61, 80
3, 8160, Note_on_c, 0, 51, 80
3, 8280, Note_on_c, 0, 51, 0
3, 8280, Note_on_c, 0, 61, 0
3, 8280, Note_on_c, 0, 58, 0
3, 8280, Note_on_c, 0, 44, 90
3, 8400, Note_on_c, 0, 44, 0
3, 8400, Note_on_c, 0, 60, 80
3, 8400, Note_on_c, 0, 56, 80
3, 8400, Note_on_c, 0, 51, 80
3, 8520, Note_on_c, 0, 51, 0
3, 8520, Note_on_c, 0, 56, 0
3, 8520, Note_on_c, 0, 60, 0
3, 8520, Note_on_c, 0, 56, 80
3, 8520, Note_on_c, 0, 60, 80
3, 8520, Note_on_c, 0, 51, 80
3, 8640, Note_on_c, 0, 51, 0
3, 8640, Note_on_c, 0, 60, 0
3, 8640, Note_on_c, 0, 56, 0
3, 8640, Note_on_c, 0, 44, 90
3, 8760, Note_on_c, 0, 44, 0
3, 8760, Note_on_c, 0, 60, 80
3, 8760, Note_on_c, 0, 56, 80
3, 8760, Note_on_c, 0, 51, 80
3, 8880, Note_on_c, 0, 51, 0
3, 8880, Note_on_c, 0, 56, 0
3, 8880, Note_on_c, 0, 60, 0
3, 8880, Note_on_c, 0, 56, 80
3, 8880, Note_on_c, 0, 60, 80
3, 8880, Note_on_c, 0, 51, 80
3, 9000, Note_on_c, 0, 51, 0
3, 9000, Note_on_c, 0, 60, 0
3, 9000, Note_on_c, 0, 56, 0
3, 9000, Note_on_c, 0, 43, 110
3, 9120, Note_on_c, 0, 43, 0
3, 9120, Note_on_c, 0, 61, 100
3, 9120, Note_on_c, 0, 58, 100
3, 9120, Note_on_c, 0, 51, 100
3, 9240, Note_on_c, 0, 51, 0
3, 9240, Note_on_c, 0, 58, 0
3, 9240, Note_on_c, 0, 61, 0
3, 9240, Note_on_c, 0, 58, 100
3, 9240, Note_on_c, 0, 61, 100
3, 9240, Note_on_c, 0, 51, 100
3, 9360, Note_on_c, 0, 51, 0
3, 9360, Note_on_c, 0, 61, 0
3, 9360, Note_on_c, 0, 58, 0
3, 9360, Note_on_c, 0, 43, 110
3, 9480, Note_on_c, 0, 43, 0
3, 9480, Note_on_c, 0, 61, 100
3, 9480, Note_on_c, 0, 58, 100
3, 9480, Note_on_c, 0, 51, 100
3, 9600, Note_on_c, 0, 51, 0
3, 9600, Note_on_c, 0, 58, 0
3, 9600, Note_on_c, 0, 61, 0
3, 9600, Note_on_c, 0, 58, 100
3, 9600, Note_on_c, 0, 61, 100
3, 9600, Note_on_c, 0, 51, 100
3, 9720, Note_on_c, 0, 51, 0
3, 9720, Note_on_c, 0, 61, 0
3, 9720, Note_on_c, 0, 58, 0
3, 9720, Note_on_c, 0, 44, 110
3, 9840, Note_on_c, 0, 44, 0
3, 9840, Note_on_c, 0, 60, 100
3, 9840, Note_on_c, 0, 56, 100
3, 9840, Note_on_c, 0, 51, 100
3, 9960, Note_on_c, 0, 51, 0
3, 9960, Note_on_c, 0, 56, 0
3, 9960, Note_on_c, 0, 60, 0
3, 9960, Note_on_c, 0, 56, 100
3, 9960, Note_on_c, 0, 60, 100
3, 9960, Note_on_c, 0, 51, 100
3, 10080, Note_on_c, 0, 51, 0
3, 10080, Note_on_c, 0, 60, 0
3, 10080, Note_on_c, 0, 56, 0
3, 10080, Note_on_c, 0, 44, 110
3, 10200, Note_on_c, 0, 44, 0
3, 10200, Note_on_c, 0, 60, 100
3, 10200, Note_on_c, 0, 56, 100
3, 10200, Note_on_c, 0, 51, 100
3, 10320, Note_on_c, 0, 51, 0
3, 10320, Note_on_c, 0, 56, 0
3, 10320, Note_on_c, 0, 60, 0
3, 10320, Note_on_c, 0, 56, 100
3, 10320, Note_on_c, 0, 60, 100
3, 10320, Note_on_c, 0, 51, 100
3, 10440, Note_on_c, 0, 51, 0
3, 10440, Note_on_c, 0, 60, 0
3, 10440, Note_on_c, 0, 56, 0
3, 10440, Note_on_c, 0, 49, 110
3, 10560, Note_on_c, 0, 49, 0
3, 10560, Note_on_c, 0, 61, 103
3, 10560, Note_on_c, 0, 58, 103
3, 10560, Note_on_c, 0, 53, 103
3, 10680, Note_on_c, 0, 53, 0
3, 10680, Note_on_c, 0, 58, 0
3, 10680, Note_on_c, 0, 61, 0
3, 10680, Note_on_c, 0, 58, 107
3, 10680, Note_on_c, 0, 61, 107
3, 10680, Note_on_c, 0, 53, 107
3, 10800, Note_on_c, 0, 53, 0
3, 10800, Note_on_c, 0, 61, 0
3, 10800, Note_on_c, 0, 58, 0
3, 10800, Note_on_c, 0, 49, 120
3, 10920, Note_on_c, 0, 49, 0
3, 10920, Note_on_c, 0, 61, 114
3, 10920, Note_on_c, 0, 58, 114
3, 10920, Note_on_c, 0, 53, 114
3, 11040, Note_on_c, 0, 53, 0
3, 11040, Note_on_c, 0, 58, 0
3, 11040, Note_on_c, 0, 61, 0
3, 11040, Note_on_c, 0, 58, 117
3, 11040, Note_on_c, 0, 61, 117
3, 11040, Note_on_c, 0, 53, 117
3, 11160, Note_on_c, 0, 53, 0
3, 11160, Note_on_c, 0, 61, 0
3, 11160, Note_on_c, 0, 58, 0
3, 11160, Note_on_c, 0, 39, 127
3, 11160, Note_on_c, 0, 51, 127
3, 11280, Note_on_c, 0, 51, 0
3, 11280, Note_on_c, 0, 39, 0
3, 11280, Note_on_c, 0, 61, 120
3, 11280, Note_on_c, 0, 58, 120
3, 11280, Note_on_c, 0, 51, 120
3, 11400, Note_on_c, 0, 51, 0
3, 11400, Note_on_c, 0, 58, 0
3, 11400, Note_on_c, 0, 61, 0
3, 11400, Note_on_c, 0, 58, 120
3, 11400, Note_on_c, 0, 61, 120
3, 11400, Note_on_c, 0, 51, 120
3, 11520, Note_on_c, 0, 51, 0
3, 11520, Note_on_c, 0, 61, 0
3, 11520, Note_on_c, 0, 58, 0
3, 11520, Note_on_c, 0, 44, 127
3, 11640, Note_on_c, 0, 44, 0
3, 11640, Note_on_c, 0, 60, 120
3, 11640, Note_on_c, 0, 56, 120
3, 11640, Note_on_c, 0, 51, 120
3, 11760, Note_on_c, 0, 51, 0
3, 11760, Note_on_c, 0, 56, 0
3, 11760, Note_on_c, 0, 60, 0
3, 11880, Note_on_c, 0, 43, 90
3, 12000, Note_on_c, 0, 43, 0
3, 12000, Note_on_c, 0, 61, 80
3, 12000, Note_on_c, 0, 58, 80
3, 12000, Note_on_c, 0, 51, 80
3, 12120, Note_on_c, 0, 51, 0
3, 12120, Note_on_c, 0, 58, 0
3, 12120, Note_on_c, 0, 61, 0
3, 12120, Note_on_c, 0, 51, 80
3, 12120, Note_on_c, 0, 58, 80
3, 12120, Note_on_c, 0, 61, 80
3, 12240, Note_on_c, 0, 61, 0
3, 12240, Note_on_c, 0, 58, 0
3, 12240, Note_on_c, 0, 51, 0
3, 12240, Note_on_c, 0, 43, 90
3, 12360, Note_on_c, 0, 43, 0
3, 12360, Note_on_c, 0, 61, 80
3, 12360, Note_on_c, 0, 58, 80
3, 12360, Note_on_c, 0, 51, 80
3, 12480, Note_on_c, 0, 51, 0
3, 12480, Note_on_c, 0, 58, 0
3, 12480, Note_on_c, 0, 61, 0
3, 12480, Note_on_c, 0, 51, 80
3, 12480, Note_on_c, 0, 58, 80
3, 12480, Note_on_c, 0, 61, 80
3, 12600, Note_on_c, 0, 61, 0
3, 12600, Note_on_c, 0, 58, 0
3, 12600, Note_on_c, 0, 51, 0
3, 12600, Note_on_c, 0, 44, 90
3, 12720, Note_on_c, 0, 44, 0
3, 12720, Note_on_c, 0, 60, 80
3, 12720, Note_on_c, 0, 56, 80
3, 12720, Note_on_c, 0, 51, 80
3, 12840, Note_on_c, 0, 51, 0
3, 12840, Note_on_c, 0, 56, 0
3, 12840, Note_on_c, 0, 60, 0
3, 12840, Note_on_c, 0, 56, 80
3, 12840, Note_on_c, 0, 60, 80
3, 12840, Note_on_c, 0, 51, 80
3, 12960, Note_on_c, 0, 51, 0
3, 12960, Note_on_c, 0, 60, 0
3, 12960, Note_on_c, 0, 56, 0
3, 12960, Note_on_c, 0, 44, 90
3, 13080, Note_on_c, 0, 44, 0
3, 13080, Note_on_c, 0, 60, 80
3, 13080, Note_on_c, 0, 56, 80
3, 13080, Note_on_c, 0, 51, 80
3, 13200, Note_on_c, 0, 51, 0
3, 13200, Note_on_c, 0, 56, 0
3, 13200, Note_on_c, 0, 60, 0
3, 13200, Note_on_c, 0, 56, 80
3, 13200, Note_on_c, 0, 60, 80
3, 13200, Note_on_c, 0, 51, 80
3, 13320, Note_on_c, 0, 51, 0
3, 13320, Note_on_c, 0, 60, 0
3, 13320, Note_on_c, 0, 56, 0
3, 13320, Note_on_c, 0, 39, 90
3, 13440, Note_on_c, 0, 39, 0
3, 13440, Note_on_c, 0, 61, 80
3, 13440, Note_on_c, 0, 55, 80
3, 13440, Note_on_c, 0, 51, 80
3, 13560, Note_on_c, 0, 51, 0
3, 13560, Note_on_c, 0, 55, 0
3, 13560, Note_on_c, 0, 61, 0
3, 13560, Note_on_c, 0, 51, 80
3, 13560, Note_on_c, 0, 55, 80
3, 13560, Note_on_c, 0, 61, 80
3, 13680, Note_on_c, 0, 61, 0
3, 13680, Note_on_c, 0, 55, 0
3, 13680, Note_on_c, 0, 51, 0
3, 13680, Note_on_c, 0, 39, 90
3, 13800, Note_on_c, 0, 39, 0
3, 13800, Note_on_c, 0, 61, 80
3, 13800, Note_on_c, 0, 58, 80
3, 13800, Note_on_c, 0, 51, 80
3, 13920, Note_on_c, 0, 51, 0
3, 13920, Note_on_c, 0, 58, 0
3, 13920, Note_on_c, 0, 61, 0
3, 13920, Note_on_c, 0, 58, 80
3, 13920, Note_on_c, 0, 61, 80
3, 13920, Note_on_c, 0, 51, 80
3, 14040, Note_on_c, 0, 51, 0
3, 14040, Note_on_c, 0, 61, 0
3, 14040, Note_on_c, 0, 58, 0
3, 14040, Note_on_c, 0, 44, 90
3, 14160, Note_on_c, 0, 44, 0
3, 14160, Note_on_c, 0, 60, 80
3, 14160, Note_on_c, 0, 56, 80
3, 14160, Note_on_c, 0, 51, 80
3, 14280, Note_on_c, 0, 51, 0
3, 14280, Note_on_c, 0, 56, 0
3, 14280, Note_on_c, 0, 60, 0
3, 14280, Note_on_c, 0, 56, 80
3, 14280, Note_on_c, 0, 60, 80
3, 14280, Note_on_c, 0, 51, 80
3, 14400, Note_on_c, 0, 51, 0
3, 14400, Note_on_c, 0, 60, 0
3, 14400, Note_on_c, 0, 56, 0
3, 14400, Note_on_c, 0, 44, 90
3, 14520, Note_on_c, 0, 44, 0
3, 14520, Note_on_c, 0, 60, 80
3, 14520, Note_on_c, 0, 56, 80
3, 14520, Note_on_c, 0, 51, 80
3, 14640, Note_on_c, 0, 51, 0
3, 14640, Note_on_c, 0, 56, 0
3, 14640, Note_on_c, 0, 60, 0
3, 14640, Note_on_c, 0, 60, 80
3, 14640, Note_on_c, 0, 56, 80
3, 14640, Note_on_c, 0, 51, 80
3, 14760, Note_on_c, 0, 51, 0
3, 14760, Note_on_c, 0, 56, 0
3, 14760, Note_on_c, 0, 60, 0
3, 14760, Note_on_c, 0, 43, 110
3, 14880, Note_on_c, 0, 43, 0
3, 14880, Note_on_c, 0, 61, 100
3, 14880, Note_on_c, 0, 58, 100
3, 14880, Note_on_c, 0, 51, 100
3, 15000, Note_on_c, 0, 51, 0
3, 15000, Note_on_c, 0, 58, 0
3, 15000, Note_on_c, 0, 61, 0
3, 15000, Note_on_c, 0, 61, 100
3, 15000, Note_on_c, 0, 58, 100
3, 15000, Note_on_c, 0, 51, 100
3, 15120, Note_on_c, 0, 51, 0
3, 15120, Note_on_c, 0, 58, 0
3, 15120, Note_on_c, 0, 61, 0
3, 15120, Note_on_c, 0, 43, 110
3, 15240, Note_on_c, 0, 43, 0
3, 15240, Note_on_c, 0, 61, 100
3, 15240, Note_on_c, 0, 58, 100
3, 15240, Note_on_c, 0, 51, 100
3, 15360, Note_on_c, 0, 51, 0
3, 15360, Note_on_c, 0, 58, 0
3, 15360, Note_on_c, 0, 61, 0
3, 15360, Note_on_c, 0, 58, 100
3, 15360, Note_on_c, 0, 61, 100
3, 15360, Note_on_c, 0, 51, 100
3, 15480, Note_on_c, 0, 51, 0
3, 15480, Note_on_c, 0, 61, 0
3, 15480, Note_on_c, 0, 58, 0
3, 15480, Note_on_c, 0, 44, 110
3, 15600, Note_on_c, 0, 44, 0
3, 15600, Note_on_c, 0, 60, 100
3, 15600, Note_on_c, 0, 56, 100
3, 15600, Note_on_c, 0, 51, 100
3, 15720, Note_on_c, 0, 51, 0
3, 15720, Note_on_c, 0, 56, 0
3, 15720, Note_on_c, 0, 60, 0
3, 15720, Note_on_c, 0, 60, 100
3, 15720, Note_on_c, 0, 56, 100
3, 15720, Note_on_c, 0, 52, 100
3, 15840, Note_on_c, 0, 52, 0
3, 15840, Note_on_c, 0, 56, 0
3, 15840, Note_on_c, 0, 60, 0
3, 15840, Note_on_c, 0, 44, 110
3, 15960, Note_on_c, 0, 44, 0
3, 15960, Note_on_c, 0, 60, 100
3, 15960, Note_on_c, 0, 56, 100
3, 15960, Note_on_c, 0, 53, 100
3, 16080, Note_on_c, 0, 53, 0
3, 16080, Note_on_c, 0, 56, 0
3, 16080, Note_on_c, 0, 60, 0
3, 16080, Note_on_c, 0, 60, 100
3, 16080, Note_on_c, 0, 56, 100
3, 16080, Note_on_c, 0, 53, 100
3, 16200, Note_on_c, 0, 53, 0
3, 16200, Note_on_c, 0, 56, 0
3, 16200, Note_on_c, 0, 60, 0
3, 16200, Note_on_c, 0, 46, 110
3, 16320, Note_on_c, 0, 46, 0
3, 16320, Note_on_c, 0, 62, 107
3, 16320, Note_on_c, 0, 58, 107
3, 16320, Note_on_c, 0, 56, 107
3, 16440, Note_on_c, 0, 56, 0
3, 16440, Note_on_c, 0, 58, 0
3, 16440, Note_on_c, 0, 62, 0
3, 16440, Note_on_c, 0, 62, 114
3, 16440, Note_on_c, 0, 58, 114
3, 16440, Note_on_c, 0, 56, 114
3, 16560, Note_on_c, 0, 56, 0
3, 16560, Note_on_c, 0, 58, 0
3, 16560, Note_on_c, 0, 62, 0
3, 16560, Note_on_c, 0, 46, 127
3, 16680, Note_on_c, 0, 46, 0
3, 16680, Note_on_c, 0, 62, 116
3, 16680, Note_on_c, 0, 58, 116
3, 16680, Note_on_c, 0, 56, 116
3, 16800, Note_on_c, 0, 56, 0
3, 16800, Note_on_c, 0, 58, 0
3, 16800, Note_on_c, 0, 62, 0
3, 16800, Note_on_c, 0, 62, 111
3, 16800, Note_on_c, 0, 58, 111
3, 16800, Note_on_c, 0, 56, 111
3, 16920, Note_on_c, 0, 56, 0
3, 16920, Note_on_c, 0, 58, 0
3, 16920, Note_on_c, 0, 62, 0
3, 16920, Note_on_c, 0, 51, 117
3, 17040, Note_on_c, 0, 51, 0
3, 17040, Note_on_c, 0, 63, 102
3, 17040, Note_on_c, 0, 58, 102
3, 17040, Note_on_c, 0, 55, 102
3, 17160, Note_on_c, 0, 55, 0
3, 17160, Note_on_c, 0, 58, 0
3, 17160, Note_on_c, 0, 63, 0
3, 17160, Note_on_c, 0, 55, 97
3, 17160, Note_on_c, 0, 58, 97
3, 17160, Note_on_c, 0, 63, 97
3, 17280, Note_on_c, 0, 63, 0
3, 17280, Note_on_c, 0, 58, 0
3, 17280, Note_on_c, 0, 55, 0
3, 17280, Note_on_c, 0, 51, 103
3, 17400, Note_on_c, 0, 51, 0
3, 17400, Note_on_c, 0, 63, 88
3, 17400, Note_on_c, 0, 58, 88
3, 17400, Note_on_c, 0, 55, 88
3, 17520, Note_on_c, 0, 55, 0
3, 17520, Note_on_c, 0, 58, 0
3, 17520, Note_on_c, 0, 63, 0
3, 17520, Note_on_c, 0, 55, 84
3, 17520, Note_on_c, 0, 58, 84
3, 17520, Note_on_c, 0, 63, 84
3, 17640, Note_on_c, 0, 63, 0
3, 17640, Note_on_c, 0, 58, 0
3, 17640, Note_on_c, 0, 55, 0
3, 17640, Note_on_c, 0, 43, 90
3, 17760, Note_on_c, 0, 43, 0
3, 17760, Note_on_c, 0, 61, 80
3, 17760, Note_on_c, 0, 58, 80
3, 17760, Note_on_c, 0, 51, 80
3, 17880, Note_on_c, 0, 51, 0
3, 17880, Note_on_c, 0, 58, 0
3, 17880, Note_on_c, 0, 61, 0
3, 17880, Note_on_c, 0, 58, 80
3, 17880, Note_on_c, 0, 61, 80
3, 17880, Note_on_c, 0, 51, 80
3, 18000, Note_on_c, 0, 51, 0
3, 18000, Note_on_c, 0, 61, 0
3, 18000, Note_on_c, 0, 58, 0
3, 18000, Note_on_c, 0, 43, 90
3, 18120, Note_on_c, 0, 43, 0
3, 18120, Note_on_c, 0, 61, 80
3, 18120, Note_on_c, 0, 58, 80
3, 18120, Note_on_c, 0, 51, 80
3, 18240, Note_on_c, 0, 51, 0
3, 18240, Note_on_c, 0, 58, 0
3, 18240, Note_on_c, 0, 61, 0
3, 18240, Note_on_c, 0, 58, 80
3, 18240, Note_on_c, 0, 61, 80
3, 18240, Note_on_c, 0, 51, 80
3, 18360, Note_on_c, 0, 51, 0
3, 18360, Note_on_c, 0, 61, 0
3, 18360, Note_on_c, 0, 58, 0
3, 18360, Note_on_c, 0, 44, 90
3, 18480, Note_on_c, 0, 44, 0
3, 18480, Note_on_c, 0, 60, 80
3, 18480, Note_on_c, 0, 56, 80
3, 18480, Note_on_c, 0, 51, 80
3, 18600, Note_on_c, 0, 51, 0
3, 18600, Note_on_c, 0, 56, 0
3, 18600, Note_on_c, 0, 60, 0
3, 18600, Note_on_c, 0, 56, 80
3, 18600, Note_on_c, 0, 60, 80
3, 18600, Note_on_c, 0, 51, 80
3, 18720, Note_on_c, 0, 51, 0
3, 18720, Note_on_c, 0, 60, 0
3, 18720, Note_on_c, 0, 56, 0
3, 18720, Note_on_c, 0, 44, 90
3, 18840, Note_on_c, 0, 44, 0
3, 18840, Note_on_c, 0, 60, 80
3, 18840, Note_on_c, 0, 56, 80
3, 18840, Note_on_c, 0, 51, 80
3, 18960, Note_on_c, 0, 51, 0
3, 18960, Note_on_c, 0, 56, 0
3, 18960, Note_on_c, 0, 60, 0
3, 18960, Note_on_c, 0, 56, 80
3, 18960, Note_on_c, 0, 60, 80
3, 18960, Note_on_c, 0, 51, 80
3, 19080, Note_on_c, 0, 51, 0
3, 19080, Note_on_c, 0, 60, 0
3, 19080, Note_on_c, 0, 56, 0
3, 19080, Note_on_c, 0, 39, 90
3, 19200, Note_on_c, 0, 39, 0
3, 19200, Note_on_c, 0, 61, 80
3, 19200, Note_on_c, 0, 58, 80
3, 19200, Note_on_c, 0, 51, 80
3, 19320, Note_on_c, 0, 51, 0
3, 19320, Note_on_c, 0, 58, 0
3, 19320, Note_on_c, 0, 61, 0
3, 19320, Note_on_c, 0, 58, 80
3, 19320, Note_on_c, 0, 61, 80
3, 19320, Note_on_c, 0, 51, 80
3, 19440, Note_on_c, 0, 51, 0
3, 19440, Note_on_c, 0, 61, 0
3, 19440, Note_on_c, 0, 58, 0
3, 19440, Note_on_c, 0, 39, 90
3, 19560, Note_on_c, 0, 39, 0
3, 19560, Note_on_c, 0, 61, 80
3, 19560, Note_on_c, 0, 58, 80
3, 19560, Note_on_c, 0, 51, 80
3, 19680, Note_on_c, 0, 51, 0
3, 19680, Note_on_c, 0, 58, 0
3, 19680, Note_on_c, 0, 61, 0
3, 19680, Note_on_c, 0, 58, 80
3, 19680, Note_on_c, 0, 61, 80
3, 19680, Note_on_c, 0, 51, 80
3, 19800, Note_on_c, 0, 51, 0
3, 19800, Note_on_c, 0, 61, 0
3, 19800, Note_on_c, 0, 58, 0
3, 19800, Note_on_c, 0, 44, 90
3, 19920, Note_on_c, 0, 44, 0
3, 19920, Note_on_c, 0, 60, 80
3, 19920, Note_on_c, 0, 56, 80
3, 19920, Note_on_c, 0, 51, 80
3, 20040, Note_on_c, 0, 51, 0
3, 20040, Note_on_c, 0, 56, 0
3, 20040, Note_on_c, 0, 60, 0
3, 20040, Note_on_c, 0, 56, 80
3, 20040, Note_on_c, 0, 60, 80
3, 20040, Note_on_c, 0, 51, 80
3, 20160, Note_on_c, 0, 51, 0
3, 20160, Note_on_c, 0, 60, 0
3, 20160, Note_on_c, 0, 56, 0
3, 20160, Note_on_c, 0, 44, 90
3, 20280, Note_on_c, 0, 44, 0
3, 20280, Note_on_c, 0, 60, 80
3, 20280, Note_on_c, 0, 56, 80
3, 20280, Note_on_c, 0, 51, 80
3, 20400, Note_on_c, 0, 51, 0
3, 20400, Note_on_c, 0, 56, 0
3, 20400, Note_on_c, 0, 60, 0
3, 20400, Note_on_c, 0, 56, 80
3, 20400, Note_on_c, 0, 60, 80
3, 20400, Note_on_c, 0, 51, 80
3, 20520, Note_on_c, 0, 51, 0
3, 20520, Note_on_c, 0, 60, 0
3, 20520, Note_on_c, 0, 56, 0
3, 20520, Note_on_c, 0, 43, 110
3, 20640, Note_on_c, 0, 43, 0
3, 20640, Note_on_c, 0, 61, 100
3, 20640, Note_on_c, 0, 58, 100
3, 20640, Note_on_c, 0, 51, 100
3, 20760, Note_on_c, 0, 51, 0
3, 20760, Note_on_c, 0, 58, 0
3, 20760, Note_on_c, 0, 61, 0
3, 20760, Note_on_c, 0, 58, 100
3, 20760, Note_on_c, 0, 61, 100
3, 20760, Note_on_c, 0, 51, 100
3, 20880, Note_on_c, 0, 51, 0
3, 20880, Note_on_c, 0, 61, 0
3, 20880, Note_on_c, 0, 58, 0
3, 20880, Note_on_c, 0, 43, 110
3, 21000, Note_on_c, 0, 43, 0
3, 21000, Note_on_c, 0, 61, 100
3, 21000, Note_on_c, 0, 58, 100
3, 21000, Note_on_c, 0, 51, 100
3, 21120, Note_on_c, 0, 51, 0
3, 21120, Note_on_c, 0, 58, 0
3, 21120, Note_on_c, 0, 61, 0
3, 21120, Note_on_c, 0, 58, 100
3, 21120, Note_on_c, 0, 61, 100
3, 21120, Note_on_c, 0, 51, 100
3, 21240, Note_on_c, 0, 51, 0
3, 21240, Note_on_c, 0, 61, 0
3, 21240, Note_on_c, 0, 58, 0
3, 21240, Note_on_c, 0, 44, 110
3, 21360, Note_on_c, 0, 44, 0
3, 21360, Note_on_c, 0, 60, 100
3, 21360, Note_on_c, 0, 56, 100
3, 21360, Note_on_c, 0, 51, 100
3, 21480, Note_on_c, 0, 51, 0
3, 21480, Note_on_c, 0, 56, 0
3, 21480, Note_on_c, 0, 60, 0
3, 21480, Note_on_c, 0, 56, 100
3, 21480, Note_on_c, 0, 60, 100
3, 21480, Note_on_c, 0, 51, 100
3, 21600, Note_on_c, 0, 51, 0
3, 21600, Note_on_c, 0, 60, 0
3, 21600, Note_on_c, 0, 56, 0
3, 21600, Note_on_c, 0, 44, 110
3, 21720, Note_on_c, 0, 44, 0
3, 21720, Note_on_c, 0, 60, 100
3, 21720, Note_on_c, 0, 56, 100
3, 21720, Note_on_c, 0, 51, 100
3, 21840, Note_on_c, 0, 51, 0
3, 21840, Note_on_c, 0, 56, 0
3, 21840, Note_on_c, 0, 60, 0
3, 21840, Note_on_c, 0, 56, 100
3, 21840, Note_on_c, 0, 60, 100
3, 21840, Note_on_c, 0, 51, 100
3, 21960, Note_on_c, 0, 51, 0
3, 21960, Note_on_c, 0, 60, 0
3, 21960, Note_on_c, 0, 56, 0
3, 21960, Note_on_c, 0, 49, 110
3, 22080, Note_on_c, 0, 49, 0
3, 22080, Note_on_c, 0, 61, 103
3, 22080, Note_on_c, 0, 58, 103
3, 22080, Note_on_c, 0, 53, 103
3, 22200, Note_on_c, 0, 53, 0
3, 22200, Note_on_c, 0, 58, 0
3, 22200, Note_on_c, 0, 61, 0
3, 22200, Note_on_c, 0, 58, 107
3, 22200, Note_on_c, 0, 61, 107
3, 22200, Note_on_c, 0, 53, 107
3, 22320, Note_on_c, 0, 53, 0
3, 22320, Note_on_c, 0, 61, 0
3, 22320, Note_on_c, 0, 58, 0
3, 22320, Note_on_c, 0, 49, 120
3, 22440, Note_on_c, 0, 49, 0
3, 22440, Note_on_c, 0, 61, 114
3, 22440, Note_on_c, 0, 58, 114
3, 22440, Note_on_c, 0, 53, 114
3, 22560, Note_on_c, 0, 53, 0
3, 22560, Note_on_c, 0, 58, 0
3, 22560, Note_on_c, 0, 61, 0
3, 22560, Note_on_c, 0, 58, 117
3, 22560, Note_on_c, 0, 61, 117
3, 22560, Note_on_c, 0, 53, 117
3, 22680, Note_on_c, 0, 53, 0
3, 22680, Note_on_c, 0, 61, 0
3, 22680, Note_on_c, 0, 58, 0
3, 22680, Note_on_c, 0, 39, 127
3, 22680, Note_on_c, 0, 51, 127
3, 22800, Note_on_c, 0, 51, 0
3, 22800, Note_on_c, 0, 39, 0
3, 22800, Note_on_c, 0, 61, 120
3, 22800, Note_on_c, 0, 58, 120
3, 22800, Note_on_c, 0, 51, 120
3, 22920, Note_on_c, 0, 51, 0
3, 22920, Note_on_c, 0, 58, 0
3, 22920, Note_on_c, 0, 61, 0
3, 22920, Note_on_c, 0, 58, 120
3, 22920, Note_on_c, 0, 61, 120
3, 22920, Note_on_c, 0, 51, 120
3, 23040, Note_on_c, 0, 51, 0
3, 23040, Note_on_c, 0, 61, 0
3, 23040, Note_on_c, 0, 58, 0
3, 23040, Note_on_c, 0, 44, 127
3, 23160, Note_on_c, 0, 44, 0
3, 23160, Note_on_c, 0, 60, 120
3, 23160, Note_on_c, 0, 56, 120
3, 23160, Note_on_c, 0, 51, 120
3, 23280, Note_on_c, 0, 51, 0
3, 23280, Note_on_c, 0, 56, 0
3, 23280, Note_on_c, 0, 60, 0
3, 23400, Note_on_c, 0, 48, 80
3, 23520, Note_on_c, 0, 48, 0
3, 23640, Note_on_c, 0, 64, 80
3, 23640, Note_on_c, 0, 60, 80
3, 23640, Note_on_c, 0, 58, 80
3, 23640, Note_on_c, 0, 55, 80
3, 23760, Note_on_c, 0, 55, 0
3, 23760, Note_on_c, 0, 64, 0
3, 23760, Note_on_c, 0, 60, 0
3, 23760, Note_on_c, 0, 58, 0
3, 23760, Note_on_c, 0, 65, 80
3, 23760, Note_on_c, 0, 60, 80
3, 23760, Note_on_c, 0, 56, 80
3, 23760, Note_on_c, 0, 53, 80
3, 23880, Note_on_c, 0, 53, 0
3, 23880, Note_on_c, 0, 65, 0
3, 23880, Note_on_c, 0, 60, 0
3, 23880, Note_on_c, 0, 56, 0
3, 24000, Note_on_c, 0, 65, 80
3, 24000, Note_on_c, 0, 60, 80
3, 24000, Note_on_c, 0, 56, 80
3, 24000, Note_on_c, 0, 53, 80
3, 24120, Note_on_c, 0, 53, 0
3, 24120, Note_on_c, 0, 65, 0
3, 24120, Note_on_c, 0, 60, 0
3, 24120, Note_on_c, 0, 56, 0
3, 24120, Note_on_c, 0, 64, 80
3, 24120, Note_on_c, 0, 60, 80
3, 24120, Note_on_c, 0, 58, 80
3, 24120, Note_on_c, 0, 53, 80
3, 24240, Note_on_c, 0, 53, 0
3, 24240, Note_on_c, 0, 64, 0
3, 24240, Note_on_c, 0, 60, 0
3, 24240, Note_on_c, 0, 58, 0
3, 24360, Note_on_c, 0, 53, 80
3, 24360, Note_on_c, 0, 58, 80
3, 24360, Note_on_c, 0, 60, 80
3, 24360, Note_on_c, 0, 64, 80
3, 24480, Note_on_c, 0, 64, 0
3, 24480, Note_on_c, 0, 53, 0
3, 24480, Note_on_c, 0, 58, 0
3, 24480, Note_on_c, 0, 60, 0
3, 24480, Note_on_c, 0, 65, 80
3, 24480, Note_on_c, 0, 60, 80
3, 24480, Note_on_c, 0, 56, 80
3, 24480, Note_on_c, 0, 53, 80
3, 24600, Note_on_c, 0, 53, 0
3, 24600, Note_on_c, 0, 65, 0
3, 24600, Note_on_c, 0, 60, 0
3, 24600, Note_on_c, 0, 56, 0
3, 24720, Note_on_c, 0, 65, 80
3, 24720, Note_on_c, 0, 60, 80
3, 24720, Note_on_c, 0, 56, 80
3, 24720, Note_on_c, 0, 53, 80
3, 24840, Note_on_c, 0, 53, 0
3, 24840, Note_on_c, 0, 65, 0
3, 24840, Note_on_c, 0, 60, 0
3, 24840, Note_on_c, 0, 56, 0
3, 24840, Note_on_c, 0, 64, 80
3, 24840, Note_on_c, 0, 60, 80
3, 24840, Note_on_c, 0, 58, 80
3, 24840, Note_on_c, 0, 53, 80
3, 24960, Note_on_c, 0, 53, 0
3, 24960, Note_on_c, 0, 64, 0
3, 24960, Note_on_c, 0, 60, 0
3, 24960, Note_on_c, 0, 58, 0
3, 25080, Note_on_c, 0, 53, 80
3, 25080, Note_on_c, 0, 58, 80
3, 25080, Note_on_c, 0, 60, 80
3, 25080, Note_on_c, 0, 64, 80
3, 25200, Note_on_c, 0, 64, 0
3, 25200, Note_on_c, 0, 53, 0
3, 25200, Note_on_c, 0, 58, 0
3, 25200, Note_on_c, 0, 60, 0
3, 25200, Note_on_c, 0, 65, 80
3, 25200, Note_on_c, 0, 60, 80
3, 25200, Note_on_c, 0, 56, 80
3, 25200, Note_on_c, 0, 53, 80
3, 25320, Note_on_c, 0, 53, 0
3, 25320, Note_on_c, 0, 65, 0
3, 25320, Note_on_c, 0, 60, 0
3, 25320, Note_on_c, 0, 56, 0
3, 25440, Note_on_c, 0, 65, 80
3, 25440, Note_on_c, 0, 60, 80
3, 25440, Note_on_c, 0, 56, 80
3, 25440, Note_on_c, 0, 53, 80
3, 25560, Note_on_c, 0, 53, 0
3, 25560, Note_on_c, 0, 65, 0
3, 25560, Note_on_c, 0, 60, 0
3, 25560, Note_on_c, 0, 56, 0
3, 25560, Note_on_c, 0, 64, 80
3, 25560, Note_on_c, 0, 60, 80
3, 25560, Note_on_c, 0, 58, 80
3, 25560, Note_on_c, 0, 53, 80
3, 25680, Note_on_c, 0, 53, 0
3, 25680, Note_on_c, 0, 64, 0
3, 25680, Note_on_c, 0, 60, 0
3, 25680, Note_on_c, 0, 58, 0
3, 25800, Note_on_c, 0, 53, 80
3, 25800, Note_on_c, 0, 58, 80
3, 25800, Note_on_c, 0, 60, 80
3, 25800, Note_on_c, 0, 64, 80
3, 25920, Note_on_c, 0, 64, 0
3, 25920, Note_on_c, 0, 53, 0
3, 25920, Note_on_c, 0, 58, 0
3, 25920, Note_on_c, 0, 60, 0
3, 25920, Note_on_c, 0, 65, 80
3, 25920, Note_on_c, 0, 60, 80
3, 25920, Note_on_c, 0, 56, 80
3, 25920, Note_on_c, 0, 53, 80
3, 26040, Note_on_c, 0, 53, 0
3, 26040, Note_on_c, 0, 65, 0
3, 26040, Note_on_c, 0, 60, 0
3, 26040, Note_on_c, 0, 56, 0
3, 26280, Note_on_c, 0, 48, 110
3, 26400, Note_on_c, 0, 48, 0
3, 26400, Note_on_c, 0, 64, 100
3, 26400, Note_on_c, 0, 60, 100
3, 26400, Note_on_c, 0, 58, 100
3, 26520, Note_on_c, 0, 58, 0
3, 26520, Note_on_c, 0, 60, 0
3, 26520, Note_on_c, 0, 64, 0
3, 26520, Note_on_c, 0, 58, 100
3, 26520, Note_on_c, 0, 60, 100
3, 26520, Note_on_c, 0, 64, 100
3, 26640, Note_on_c, 0, 64, 0
3, 26640, Note_on_c, 0, 60, 0
3, 26640, Note_on_c, 0, 58, 0
3, 26640, Note_on_c, 0, 53, 110
3, 26760, Note_on_c, 0, 53, 0
3, 26760, Note_on_c, 0, 65, 100
3, 26760, Note_on_c, 0, 60, 100
3, 26760, Note_on_c, 0, 56, 100
3, 26880, Note_on_c, 0, 56, 0
3, 26880, Note_on_c, 0, 60, 0
3, 26880, Note_on_c, 0, 65, 0
3, 26880, Note_on_c, 0, 56, 100
3, 26880, Note_on_c, 0, 60, 100
3, 26880, Note_on_c, 0, 65, 100
3, 27000, Note_on_c, 0, 65, 0
3, 27000, Note_on_c, 0, 60, 0
3, 27000, Note_on_c, 0, 56, 0
3, 27000, Note_on_c, 0, 48, 110
3, 27120, Note_on_c, 0, 48, 0
3, 27120, Note_on_c, 0, 64, 100
3, 27120, Note_on_c, 0, 60, 100
3, 27120, Note_on_c, 0, 58, 100
3, 27240, Note_on_c, 0, 58, 0
3, 27240, Note_on_c, 0, 60, 0
3, 27240, Note_on_c, 0, 64, 0
3, 27240, Note_on_c, 0, 58, 100
3, 27240, Note_on_c, 0, 60, 100
3, 27240, Note_on_c, 0, 64, 100
3, 27360, Note_on_c, 0, 64, 0
3, 27360, Note_on_c, 0, 60, 0
3, 27360, Note_on_c, 0, 58, 0
3, 27360, Note_on_c, 0, 53, 110
3, 27480, Note_on_c, 0, 53, 0
3, 27480, Note_on_c, 0, 65, 100
3, 27480, Note_on_c, 0, 60, 100
3, 27480, Note_on_c, 0, 56, 100
3, 27600, Note_on_c, 0, 56, 0
3, 27600, Note_on_c, 0, 60, 0
3, 27600, Note_on_c, 0, 65, 0
3, 27600, Note_on_c, 0, 56, 100
3, 27600, Note_on_c, 0, 60, 100
3, 27600, Note_on_c, 0, 65, 100
3, 27720, Note_on_c, 0, 65, 0
3, 27720, Note_on_c, 0, 60, 0
3, 27720, Note_on_c, 0, 56, 0
3, 27720, Note_on_c, 0, 48, 110
3, 27840, Note_on_c, 0, 48, 0
3, 27840, Note_on_c, 0, 64, 100
3, 27840, Note_on_c, 0, 60, 100
3, 27840, Note_on_c, 0, 58, 100
3, 27960, Note_on_c, 0, 58, 0
3, 27960, Note_on_c, 0, 60, 0
3, 27960, Note_on_c, 0, 64, 0
3, 27960, Note_on_c, 0, 58, 100
3, 27960, Note_on_c, 0, 60, 100
3, 27960, Note_on_c, 0, 64, 100
3, 28080, Note_on_c, 0, 64, 0
3, 28080, Note_on_c, 0, 60, 0
3, 28080, Note_on_c, 0, 58, 0
3, 28080, Note_on_c, 0, 53, 110
3, 28200, Note_on_c, 0, 53, 0
3, 28200, Note_on_c, 0, 65, 100
3, 28200, Note_on_c, 0, 60, 100
3, 28200, Note_on_c, 0, 56, 100
3, 28320, Note_on_c, 0, 56, 0
3, 28320, Note_on_c, 0, 60, 0
3, 28320, Note_on_c, 0, 65, 0
3, 28320, Note_on_c, 0, 56, 100
3, 28320, Note_on_c, 0, 60, 100
3, 28320, Note_on_c, 0, 65, 100
3, 28440, Note_on_c, 0, 65, 0
3, 28440, Note_on_c, 0, 60, 0
3, 28440, Note_on_c, 0, 56, 0
3, 28440, Note_on_c, 0, 48, 110
3, 28560, Note_on_c, 0, 48, 0
3, 28560, Note_on_c, 0, 64, 100
3, 28560, Note_on_c, 0, 60, 100
3, 28560, Note_on_c, 0, 58, 100
3, 28680, Note_on_c, 0, 58, 0
3, 28680, Note_on_c, 0, 60, 0
3, 28680, Note_on_c, 0, 64, 0
3, 28680, Note_on_c, 0, 58, 100
3, 28680, Note_on_c, 0, 60, 100
3, 28680, Note_on_c, 0, 64, 100
3, 28800, Note_on_c, 0, 64, 0
3, 28800, Note_on_c, 0, 60, 0
3, 28800, Note_on_c, 0, 58, 0
3, 28800, Note_on_c, 0, 53, 110
3, 28920, Note_on_c, 0, 53, 0
3, 28920, Note_on_c, 0, 65, 100
3, 28920, Note_on_c, 0, 56, 100
3, 29040, Note_on_c, 0, 56, 0
3, 29040, Note_on_c, 0, 65, 0
3, 29160, Note_on_c, 0, 43, 90
3, 29280, Note_on_c, 0, 43, 0
3, 29280, Note_on_c, 0, 61, 80
3, 29280, Note_on_c, 0, 58, 80
3, 29280, Note_on_c, 0, 51, 80
3, 29400, Note_on_c, 0, 51, 0
3, 29400, Note_on_c, 0, 58, 0
3, 29400, Note_on_c, 0, 61, 0
3, 29400, Note_on_c, 0, 51, 80
3, 29400, Note_on_c, 0, 58, 80
3, 29400, Note_on_c, 0, 61, 80
3, 29520, Note_on_c, 0, 61, 0
3, 29520, Note_on_c, 0, 58, 0
3, 29520, Note_on_c, 0, 51, 0
3, 29520, Note_on_c, 0, 43, 90
3, 29640, Note_on_c, 0, 43, 0
3, 29640, Note_on_c, 0, 61, 80
3, 29640, Note_on_c, 0, 58, 80
3, 29640, Note_on_c, 0, 51, 80
3, 29760, Note_on_c, 0, 51, 0
3, 29760, Note_on_c, 0, 58, 0
3, 29760, Note_on_c, 0, 61, 0
3, 29760, Note_on_c, 0, 58, 80
3, 29760, Note_on_c, 0, 61, 80
3, 29760, Note_on_c, 0, 51, 80
3, 29880, Note_on_c, 0, 51, 0
3, 29880, Note_on_c, 0, 61, 0
3, 29880, Note_on_c, 0, 58, 0
3, 29880, Note_on_c, 0, 44, 90
3, 30000, Note_on_c, 0, 44, 0
3, 30000, Note_on_c, 0, 60, 80
3, 30000, Note_on_c, 0, 56, 80
3, 30000, Note_on_c, 0, 51, 80
3, 30120, Note_on_c, 0, 51, 0
3, 30120, Note_on_c, 0, 56, 0
3, 30120, Note_on_c, 0, 60, 0
3, 30120, Note_on_c, 0, 51, 80
3, 30120, Note_on_c, 0, 56, 80
3, 30120, Note_on_c, 0, 60, 80
3, 30240, Note_on_c, 0, 60, 0
3, 30240, Note_on_c, 0, 56, 0
3, 30240, Note_on_c, 0, 51, 0
3, 30240, Note_on_c, 0, 44, 90
3, 30360, Note_on_c, 0, 44, 0
3, 30360, Note_on_c, 0, 60, 80
3, 30360, Note_on_c, 0, 56, 80
3, 30360, Note_on_c, 0, 51, 80
3, 30480, Note_on_c, 0, 51, 0
3, 30480, Note_on_c, 0, 56, 0
3, 30480, Note_on_c, 0, 60, 0
3, 30480, Note_on_c, 0, 51, 80
3, 30480, Note_on_c, 0, 56, 80
3, 30480, Note_on_c, 0, 60, 80
3, 30600, Note_on_c, 0, 60, 0
3, 30600, Note_on_c, 0, 56, 0
3, 30600, Note_on_c, 0, 51, 0
3, 30600, Note_on_c, 0, 39, 90
3, 30720, Note_on_c, 0, 39, 0
3, 30720, Note_on_c, 0, 61, 80
3, 30720, Note_on_c, 0, 58, 80
3, 30720, Note_on_c, 0, 51, 80
3, 30840, Note_on_c, 0, 51, 0
3, 30840, Note_on_c, 0, 58, 0
3, 30840, Note_on_c, 0, 61, 0
3, 30840, Note_on_c, 0, 58, 80
3, 30840, Note_on_c, 0, 61, 80
3, 30840, Note_on_c, 0, 51, 80
3, 30960, Note_on_c, 0, 51, 0
3, 30960, Note_on_c, 0, 61, 0
3, 30960, Note_on_c, 0, 58, 0
3, 30960, Note_on_c, 0, 39, 90
3, 31080, Note_on_c, 0, 39, 0
3, 31080, Note_on_c, 0, 61, 80
3, 31080, Note_on_c, 0, 58, 80
3, 31080, Note_on_c, 0, 51, 80
3, 31200, Note_on_c, 0, 51, 0
3, 31200, Note_on_c, 0, 58, 0
3, 31200, Note_on_c, 0, 61, 0
3, 31200, Note_on_c, 0, 58, 80
3, 31200, Note_on_c, 0, 61, 80
3, 31200, Note_on_c, 0, 51, 80
3, 31320, Note_on_c, 0, 51, 0
3, 31320, Note_on_c, 0, 61, 0
3, 31320, Note_on_c, 0, 58, 0
3, 31320, Note_on_c, 0, 44, 90
3, 31440, Note_on_c, 0, 44, 0
3, 31440, Note_on_c, 0, 60, 80
3, 31440, Note_on_c, 0, 56, 80
3, 31440, Note_on_c, 0, 51, 80
3, 31560, Note_on_c, 0, 51, 0
3, 31560, Note_on_c, 0, 56, 0
3, 31560, Note_on_c, 0, 60, 0
3, 31560, Note_on_c, 0, 51, 80
3, 31560, Note_on_c, 0, 56, 80
3, 31560, Note_on_c, 0, 60, 80
3, 31680, Note_on_c, 0, 60, 0
3, 31680, Note_on_c, 0, 56, 0
3, 31680, Note_on_c, 0, 51, 0
3, 31680, Note_on_c, 0, 44, 90
3, 31800, Note_on_c, 0, 44, 0
3, 31800, Note_on_c, 0, 60, 80
3, 31800, Note_on_c, 0, 56, 80
3, 31800, Note_on_c, 0, 51, 80
3, 31920, Note_on_c, 0, 51, 0
3, 31920, Note_on_c, 0, 56, 0
3, 31920, Note_on_c, 0, 60, 0
3, 31920, Note_on_c, 0, 51, 80
3, 31920, Note_on_c, 0, 56, 80
3, 31920, Note_on_c, 0, 60, 80
3, 32040, Note_on_c, 0, 60, 0
3, 32040, Note_on_c, 0, 56, 0
3, 32040, Note_on_c, 0, 51, 0
3, 32040, Note_on_c, 0, 43, 110
3, 32160, Note_on_c, 0, 43, 0
3, 32160, Note_on_c, 0, 61, 100
3, 32160, Note_on_c, 0, 58, 100
3, 32160, Note_on_c, 0, 51, 100
3, 32280, Note_on_c, 0, 51, 0
3, 32280, Note_on_c, 0, 58, 0
3, 32280, Note_on_c, 0, 61, 0
3, 32280, Note_on_c, 0, 51, 100
3, 32280, Note_on_c, 0, 58, 100
3, 32280, Note_on_c, 0, 61, 100
3, 32400, Note_on_c, 0, 61, 0
3, 32400, Note_on_c, 0, 58, 0
3, 32400, Note_on_c, 0, 51, 0
3, 32400, Note_on_c, 0, 43, 110
3, 32520, Note_on_c, 0, 43, 0
3, 32520, Note_on_c, 0, 61, 100
3, 32520, Note_on_c, 0, 58, 100
3, 32520, Note_on_c, 0, 51, 100
3, 32640, Note_on_c, 0, 51, 0
3, 32640, Note_on_c, 0, 58, 0
3, 32640, Note_on_c, 0, 61, 0
3, 32640, Note_on_c, 0, 58, 100
3, 32640, Note_on_c, 0, 61, 100
3, 32640, Note_on_c, 0, 51, 100
3, 32760, Note_on_c, 0, 51, 0
3, 32760, Note_on_c, 0, 61, 0
3, 32760, Note_on_c, 0, 58, 0
3, 32760, Note_on_c, 0, 44, 110
3, 32880, Note_on_c, 0, 44, 0
3, 32880, Note_on_c, 0, 60, 100
3, 32880, Note_on_c, 0, 56, 100
3, 32880, Note_on_c, 0, 51, 100
3, 33000, Note_on_c, 0, 51, 0
3, 33000, Note_on_c, 0, 56, 0
3, 33000, Note_on_c, 0, 60, 0
3, 33000, Note_on_c, 0, 51, 100
3, 33000, Note_on_c, 0, 56, 100
3, 33000, Note_on_c, 0, 60, 100
3, 33120, Note_on_c, 0, 60, 0
3, 33120, Note_on_c, 0, 56, 0
3, 33120, Note_on_c, 0, 51, 0
3, 33120, Note_on_c, 0, 44, 110
3, 33240, Note_on_c, 0, 44, 0
3, 33240, Note_on_c, 0, 60, 100
3, 33240, Note_on_c, 0, 56, 100
3, 33240, Note_on_c, 0, 51, 100
3, 33360, Note_on_c, 0, 51, 0
3, 33360, Note_on_c, 0, 56, 0
3, 33360, Note_on_c, 0, 60, 0
3, 33360, Note_on_c, 0, 51, 100
3, 33360, Note_on_c, 0, 56, 100
3, 33360, Note_on_c, 0, 60, 100
3, 33480, Note_on_c, 0, 60, 0
3, 33480, Note_on_c, 0, 56, 0
3, 33480, Note_on_c, 0, 51, 0
3, 33480, Note_on_c, 0, 49, 110
3, 33600, Note_on_c, 0, 49, 0
3, 33600, Note_on_c, 0, 61, 100
3, 33600, Note_on_c, 0, 58, 100
3, 33600, Note_on_c, 0, 53, 100
3, 33720, Note_on_c, 0, 53, 0
3, 33720, Note_on_c, 0, 58, 0
3, 33720, Note_on_c, 0, 61, 0
3, 33720, Note_on_c, 0, 58, 100
3, 33720, Note_on_c, 0, 61, 100
3, 33720, Note_on_c, 0, 53, 100
3, 33840, Note_on_c, 0, 53, 0
3, 33840, Note_on_c, 0, 61, 0
3, 33840, Note_on_c, 0, 58, 0
3, 33840, Note_on_c, 0, 49, 110
3, 33960, Note_on_c, 0, 49, 0
3, 33960, Note_on_c, 0, 61, 100
3, 33960, Note_on_c, 0, 58, 100
3, 33960, Note_on_c, 0, 53, 100
3, 34080, Note_on_c, 0, 53, 0
3, 34080, Note_on_c, 0, 58, 0
3, 34080, Note_on_c, 0, 61, 0
3, 34080, Note_on_c, 0, 58, 100
3, 34080, Note_on_c, 0, 61, 100
3, 34080, Note_on_c, 0, 53, 100
3, 34200, Note_on_c, 0, 53, 0
3, 34200, Note_on_c, 0, 61, 0
3, 34200, Note_on_c, 0, 58, 0
3, 34200, Note_on_c, 0, 39, 110
3, 34200, Note_on_c, 0, 51, 110
3, 34320, Note_on_c, 0, 51, 0
3, 34320, Note_on_c, 0, 39, 0
3, 34320, Note_on_c, 0, 61, 100
3, 34320, Note_on_c, 0, 58, 100
3, 34320, Note_on_c, 0, 51, 100
3, 34440, Note_on_c, 0, 51, 0
3, 34440, Note_on_c, 0, 58, 0
3, 34440, Note_on_c, 0, 61, 0
3, 34440, Note_on_c, 0, 58, 100
3, 34440, Note_on_c, 0, 61, 100
3, 34440, Note_on_c, 0, 51, 100
3, 34560, Note_on_c, 0, 51, 0
3, 34560, Note_on_c, 0, 61, 0
3, 34560, Note_on_c, 0, 58, 0
3, 34560, Note_on_c, 0, 44, 110
3, 34680, Note_on_c, 0, 44, 0
3, 34680, Note_on_c, 0, 60, 100
3, 34680, Note_on_c, 0, 56, 100
3, 34680, Note_on_c, 0, 51, 100
3, 34800, Note_on_c, 0, 51, 0
3, 34800, Note_on_c, 0, 56, 0
3, 34800, Note_on_c, 0, 60, 0
3, 34920, Note_on_c, 0, 56, 110
3, 35040, Note_on_c, 0, 56, 0
3, 35040, Note_on_c, 0, 66, 100
3, 35040, Note_on_c, 0, 63, 100
3, 35040, Note_on_c, 0, 60, 100
3, 35040, Note_on_c, 0, 56, 100
3, 35160, Note_on_c, 0, 56, 0
3, 35160, Note_on_c, 0, 66, 0
3, 35160, Note_on_c, 0, 63, 0
3, 35160, Note_on_c, 0, 60, 0
3, 35160, Note_on_c, 0, 60, 100
3, 35160, Note_on_c, 0, 63, 100
3, 35160, Note_on_c, 0, 66, 100
3, 35160, Note_on_c, 0, 56, 100
3, 35280, Note_on_c, 0, 56, 0
3, 35280, Note_on_c, 0, 60, 0
3, 35280, Note_on_c, 0, 63, 0
3, 35280, Note_on_c, 0, 66, 0
3, 35280, Note_on_c, 0, 49, 110
3, 35400, Note_on_c, 0, 49, 0
3, 35400, Note_on_c, 0, 65, 100
3, 35400, Note_on_c, 0, 61, 100
3, 35520, Note_on_c, 0, 61, 0
3, 35520, Note_on_c, 0, 65, 0
3, 35520, Note_on_c, 0, 56, 100
3, 35640, Note_on_c, 0, 56, 0
3, 35640, Note_on_c, 0, 44, 110
3, 35760, Note_on_c, 0, 44, 0
3, 35760, Note_on_c, 0, 66, 100
3, 35760, Note_on_c, 0, 60, 100
3, 35880, Note_on_c, 0, 60, 0
3, 35880, Note_on_c, 0, 66, 0
3, 35880, Note_on_c, 0, 56, 100
3, 36000, Note_on_c, 0, 56, 0
3, 36000, Note_on_c, 0, 49, 110
3, 36120, Note_on_c, 0, 49, 0
3, 36120, Note_on_c, 0, 65, 100
3, 36120, Note_on_c, 0, 61, 100
3, 36240, Note_on_c, 0, 61, 0
3, 36240, Note_on_c, 0, 65, 0
3, 36240, Note_on_c, 0, 56, 100
3, 36360, Note_on_c, 0, 56, 0
3, 36360, Note_on_c, 0, 56, 110
3, 36480, Note_on_c, 0, 56, 0
3, 36480, Note_on_c, 0, 66, 100
3, 36480, Note_on_c, 0, 60, 100
3, 36480, Note_on_c, 0, 56, 100
3, 36600, Note_on_c, 0, 56, 0
3, 36600, Note_on_c, 0, 60, 0
3, 36600, Note_on_c, 0, 66, 0
3, 36600, Note_on_c, 0, 56, 100
3, 36600, Note_on_c, 0, 60, 100
3, 36600, Note_on_c, 0, 66, 100
3, 36720, Note_on_c, 0, 66, 0
3, 36720, Note_on_c, 0, 60, 0
3, 36720, Note_on_c, 0, 56, 0
3, 36720, Note_on_c, 0, 49, 110
3, 36840, Note_on_c, 0, 49, 0
3, 36840, Note_on_c, 0, 65, 100
3, 36840, Note_on_c, 0, 61, 100
3, 36960, Note_on_c, 0, 61, 0
3, 36960, Note_on_c, 0, 65, 0
3, 36960, Note_on_c, 0, 56, 100
3, 37080, Note_on_c, 0, 56, 0
3, 37080, Note_on_c, 0, 44, 110
3, 37200, Note_on_c, 0, 44, 0
3, 37200, Note_on_c, 0, 66, 100
3, 37200, Note_on_c, 0, 60, 100
3, 37320, Note_on_c, 0, 60, 0
3, 37320, Note_on_c, 0, 66, 0
3, 37320, Note_on_c, 0, 56, 100
3, 37440, Note_on_c, 0, 56, 0
3, 37440, Note_on_c, 0, 49, 110
3, 37560, Note_on_c, 0, 49, 0
3, 37560, Note_on_c, 0, 65, 100
3, 37560, Note_on_c, 0, 61, 100
3, 37680, Note_on_c, 0, 61, 0
3, 37680, Note_on_c, 0, 65, 0
3, 37800, Note_on_c, 0, 56, 110
3, 37920, Note_on_c, 0, 56, 0
3, 37920, Note_on_c, 0, 66, 100
3, 37920, Note_on_c, 0, 63, 100
3, 37920, Note_on_c, 0, 60, 100
3, 37920, Note_on_c, 0, 56, 100
3, 38040, Note_on_c, 0, 56, 0
3, 38040, Note_on_c, 0, 66, 0
3, 38040, Note_on_c, 0, 63, 0
3, 38040, Note_on_c, 0, 60, 0
3, 38040, Note_on_c, 0, 60, 100
3, 38040, Note_on_c, 0, 63, 100
3, 38040, Note_on_c, 0, 66, 100
3, 38040, Note_on_c, 0, 56, 100
3, 38160, Note_on_c, 0, 56, 0
3, 38160, Note_on_c, 0, 60, 0
3, 38160, Note_on_c, 0, 63, 0
3, 38160, Note_on_c, 0, 66, 0
3, 38160, Note_on_c, 0, 49, 110
3, 38280, Note_on_c, 0, 49, 0
3, 38280, Note_on_c, 0, 65, 100
3, 38280, Note_on_c, 0, 61, 100
3, 38400, Note_on_c, 0, 61, 0
3, 38400, Note_on_c, 0, 65, 0
3, 38400, Note_on_c, 0, 56, 100
3, 38520, Note_on_c, 0, 56, 0
3, 38520, Note_on_c, 0, 44, 110
3, 38640, Note_on_c, 0, 44, 0
3, 38640, Note_on_c, 0, 66, 100
3, 38640, Note_on_c, 0, 60, 100
3, 38760, Note_on_c, 0, 60, 0
3, 38760, Note_on_c, 0, 66, 0
3, 38760, Note_on_c, 0, 56, 100
3, 38880, Note_on_c, 0, 56, 0
3, 38880, Note_on_c, 0, 49, 110
3, 39000, Note_on_c, 0, 49, 0
3, 39000, Note_on_c, 0, 65, 100
3, 39000, Note_on_c, 0, 61, 100
3, 39120, Note_on_c, 0, 61, 0
3, 39120, Note_on_c, 0, 65, 0
3, 39120, Note_on_c, 0, 56, 100
3, 39240, Note_on_c, 0, 56, 0
3, 39240, Note_on_c, 0, 56, 110
3, 39360, Note_on_c, 0, 56, 0
3, 39360, Note_on_c, 0, 66, 100
3, 39360, Note_on_c, 0, 60, 100
3, 39360, Note_on_c, 0, 56, 100
3, 39480, Note_on_c, 0, 56, 0
3, 39480, Note_on_c, 0, 60, 0
3, 39480, Note_on_c, 0, 66, 0
3, 39480, Note_on_c, 0, 56, 100
3, 39480, Note_on_c, 0, 60, 100
3, 39480, Note_on_c, 0, 66, 100
3, 39600, Note_on_c, 0, 66, 0
3, 39600, Note_on_c, 0, 60, 0
3, 39600, Note_on_c, 0, 56, 0
3, 39600, Note_on_c, 0, 49, 110
3, 39720, Note_on_c, 0, 49, 0
3, 39720, Note_on_c, 0, 65, 100
3, 39720, Note_on_c, 0, 61, 100
3, 39840, Note_on_c, 0, 61, 0
3, 39840, Note_on_c, 0, 65, 0
3, 39840, Note_on_c, 0, 56, 100
3, 39960, Note_on_c, 0, 56, 0
3, 39960, Note_on_c, 0, 44, 110
3, 40080, Note_on_c, 0, 44, 0
3, 40080, Note_on_c, 0, 66, 100
3, 40080, Note_on_c, 0, 60, 100
3, 40200, Note_on_c, 0, 60, 0
3, 40200, Note_on_c, 0, 66, 0
3, 40200, Note_on_c, 0, 56, 100
3, 40320, Note_on_c, 0, 56, 0
3, 40320, Note_on_c, 0, 65, 110
3, 40320, Note_on_c, 0, 61, 110
3, 40440, Note_on_c, 0, 61, 0
3, 40440, Note_on_c, 0, 65, 0
3, 40440, Note_on_c, 0, 49, 110
3, 40560, Note_on_c, 0, 49, 0
3, 40680, Note_on_c, 0, 43, 90
3, 40800, Note_on_c, 0, 43, 0
3, 40800, Note_on_c, 0, 61, 80
3, 40800, Note_on_c, 0, 58, 80
3, 40800, Note_on_c, 0, 51, 80
3, 40920, Note_on_c, 0, 51, 0
3, 40920, Note_on_c, 0, 58, 0
3, 40920, Note_on_c, 0, 61, 0
3, 40920, Note_on_c, 0, 51, 80
3, 40920, Note_on_c, 0, 58, 80
3, 40920, Note_on_c, 0, 61, 80
3, 41040, Note_on_c, 0, 61, 0
3, 41040, Note_on_c, 0, 58, 0
3, 41040, Note_on_c, 0, 51, 0
3, 41040, Note_on_c, 0, 43, 90
3, 41160, Note_on_c, 0, 43, 0
3, 41160, Note_on_c, 0, 61, 80
3, 41160, Note_on_c, 0, 58, 80
3, 41160, Note_on_c, 0, 51, 80
3, 41280, Note_on_c, 0, 51, 0
3, 41280, Note_on_c, 0, 58, 0
3, 41280, Note_on_c, 0, 61, 0
3, 41280, Note_on_c, 0, 51, 80
3, 41280, Note_on_c, 0, 58, 80
3, 41280, Note_on_c, 0, 61, 80
3, 41400, Note_on_c, 0, 61, 0
3, 41400, Note_on_c, 0, 58, 0
3, 41400, Note_on_c, 0, 51, 0
3, 41400, Note_on_c, 0, 44, 90
3, 41520, Note_on_c, 0, 44, 0
3, 41520, Note_on_c, 0, 60, 80
3, 41520, Note_on_c, 0, 56, 80
3, 41520, Note_on_c, 0, 51, 80
3, 41640, Note_on_c, 0, 51, 0
3, 41640, Note_on_c, 0, 56, 0
3, 41640, Note_on_c, 0, 60, 0
3, 41640, Note_on_c, 0, 56, 80
3, 41640, Note_on_c, 0, 60, 80
3, 41640, Note_on_c, 0, 51, 80
3, 41760, Note_on_c, 0, 51, 0
3, 41760, Note_on_c, 0, 60, 0
3, 41760, Note_on_c, 0, 56, 0
3, 41760, Note_on_c, 0, 44, 90
3, 41880, Note_on_c, 0, 44, 0
3, 41880, Note_on_c, 0, 60, 80
3, 41880, Note_on_c, 0, 56, 80
3, 41880, Note_on_c, 0, 51, 80
3, 42000, Note_on_c, 0, 51, 0
3, 42000, Note_on_c, 0, 56, 0
3, 42000, Note_on_c, 0, 60, 0
3, 42000, Note_on_c, 0, 56, 80
3, 42000, Note_on_c, 0, 60, 80
3, 42000, Note_on_c, 0, 51, 80
3, 42120, Note_on_c, 0, 51, 0
3, 42120, Note_on_c, 0, 60, 0
3, 42120, Note_on_c, 0, 56, 0
3, 42120, Note_on_c, 0, 39, 90
3, 42240, Note_on_c, 0, 39, 0
3, 42240, Note_on_c, 0, 61, 80
3, 42240, Note_on_c, 0, 55, 80
3, 42240, Note_on_c, 0, 51, 80
3, 42360, Note_on_c, 0, 51, 0
3, 42360, Note_on_c, 0, 55, 0
3, 42360, Note_on_c, 0, 61, 0
3, 42360, Note_on_c, 0, 51, 80
3, 42360, Note_on_c, 0, 55, 80
3, 42360, Note_on_c, 0, 61, 80
3, 42480, Note_on_c, 0, 61, 0
3, 42480, Note_on_c, 0, 55, 0
3, 42480, Note_on_c, 0, 51, 0
3, 42480, Note_on_c, 0, 39, 90
3, 42600, Note_on_c, 0, 39, 0
3, 42600, Note_on_c, 0, 61, 80
3, 42600, Note_on_c, 0, 58, 80
3, 42600, Note_on_c, 0, 51, 80
3, 42720, Note_on_c, 0, 51, 0
3, 42720, Note_on_c, 0, 58, 0
3, 42720, Note_on_c, 0, 61, 0
3, 42720, Note_on_c, 0, 58, 80
3, 42720, Note_on_c, 0, 61, 80
3, 42720, Note_on_c, 0, 51, 80
3, 42840, Note_on_c, 0, 51, 0
3, 42840, Note_on_c, 0, 61, 0
3, 42840, Note_on_c, 0, 58, 0
3, 42840, Note_on_c, 0, 44, 90
3, 42960, Note_on_c, 0, 44, 0
3, 42960, Note_on_c, 0, 60, 80
3, 42960, Note_on_c, 0, 56, 80
3, 42960, Note_on_c, 0, 51, 80
3, 43080, Note_on_c, 0, 51, 0
3, 43080, Note_on_c, 0, 56, 0
3, 43080, Note_on_c, 0, 60, 0
3, 43080, Note_on_c, 0, 56, 80
3, 43080, Note_on_c, 0, 60, 80
3, 43080, Note_on_c, 0, 51, 80
3, 43200, Note_on_c, 0, 51, 0
3, 43200, Note_on_c, 0, 60, 0
3, 43200, Note_on_c, 0, 56, 0
3, 43200, Note_on_c, 0, 44, 90
3, 43320, Note_on_c, 0, 44, 0
3, 43320, Note_on_c, 0, 60, 80
3, 43320, Note_on_c, 0, 56, 80
3, 43320, Note_on_c, 0, 51, 80
3, 43440, Note_on_c, 0, 51, 0
3, 43440, Note_on_c, 0, 56, 0
3, 43440, Note_on_c, 0, 60, 0
3, 43440, Note_on_c, 0, 60, 80
3, 43440, Note_on_c, 0, 56, 80
3, 43440, Note_on_c, 0, 51, 80
3, 43560, Note_on_c, 0, 51, 0
3, 43560, Note_on_c, 0, 56, 0
3, 43560, Note_on_c, 0, 60, 0
3, 43560, Note_on_c, 0, 43, 110
3, 43680, Note_on_c, 0, 43, 0
3, 43680, Note_on_c, 0, 61, 100
3, 43680, Note_on_c, 0, 58, 100
3, 43680, Note_on_c, 0, 51, 100
3, 43800, Note_on_c, 0, 51, 0
3, 43800, Note_on_c, 0, 58, 0
3, 43800, Note_on_c, 0, 61, 0
3, 43800, Note_on_c, 0, 61, 100
3, 43800, Note_on_c, 0, 58, 100
3, 43800, Note_on_c, 0, 51, 100
3, 43920, Note_on_c, 0, 51, 0
3, 43920, Note_on_c, 0, 58, 0
3, 43920, Note_on_c, 0, 61, 0
3, 43920, Note_on_c, 0, 43, 110
3, 44040, Note_on_c, 0, 43, 0
3, 44040, Note_on_c, 0, 61, 100
3, 44040, Note_on_c, 0, 58, 100
3, 44040, Note_on_c, 0, 51, 100
3, 44160, Note_on_c, 0, 51, 0
3, 44160, Note_on_c, 0, 58, 0
3, 44160, Note_on_c, 0, 61, 0
3, 44160, Note_on_c, 0, 58, 100
3, 44160, Note_on_c, 0, 61, 100
3, 44160, Note_on_c, 0, 51, 100
3, 44280, Note_on_c, 0, 51, 0
3, 44280, Note_on_c, 0, 61, 0
3, 44280, Note_on_c, 0, 58, 0
3, 44280, Note_on_c, 0, 44, 110
3, 44400, Note_on_c, 0, 44, 0
3, 44400, Note_on_c, 0, 60, 100
3, 44400, Note_on_c, 0, 56, 100
3, 44400, Note_on_c, 0, 51, 100
3, 44520, Note_on_c, 0, 51, 0
3, 44520, Note_on_c, 0, 56, 0
3, 44520, Note_on_c, 0, 60, 0
3, 44520, Note_on_c, 0, 60, 100
3, 44520, Note_on_c, 0, 56, 100
3, 44520, Note_on_c, 0, 52, 100
3, 44640, Note_on_c, 0, 52, 0
3, 44640, Note_on_c, 0, 56, 0
3, 44640, Note_on_c, 0, 60, 0
3, 44640, Note_on_c, 0, 44, 110
3, 44760, Note_on_c, 0, 44, 0
3, 44760, Note_on_c, 0, 60, 100
3, 44760, Note_on_c, 0, 56, 100
3, 44760, Note_on_c, 0, 53, 100
3, 44880, Note_on_c, 0, 53, 0
3, 44880, Note_on_c, 0, 56, 0
3, 44880, Note_on_c, 0, 60, 0
3, 44880, Note_on_c, 0, 60, 100
3, 44880, Note_on_c, 0, 56, 100
3, 44880, Note_on_c, 0, 53, 100
3, 45000, Note_on_c, 0, 53, 0
3, 45000, Note_on_c, 0, 56, 0
3, 45000, Note_on_c, 0, 60, 0
3, 45000, Note_on_c, 0, 46, 110
3, 45120, Note_on_c, 0, 46, 0
3, 45120, Note_on_c, 0, 62, 107
3, 45120, Note_on_c, 0, 58, 107
3, 45120, Note_on_c, 0, 56, 107
3, 45240, Note_on_c, 0, 56, 0
3, 45240, Note_on_c, 0, 58, 0
3, 45240, Note_on_c, 0, 62, 0
3, 45240, Note_on_c, 0, 62, 114
3, 45240, Note_on_c, 0, 58, 114
3, 45240, Note_on_c, 0, 56, 114
3, 45360, Note_on_c, 0, 56, 0
3, 45360, Note_on_c, 0, 58, 0
3, 45360, Note_on_c, 0, 62, 0
3, 45360, Note_on_c, 0, 46, 127
3, 45480, Note_on_c, 0, 46, 0
3, 45480, Note_on_c, 0, 62, 116
3, 45480, Note_on_c, 0, 58, 116
3, 45480, Note_on_c, 0, 56, 116
3, 45600, Note_on_c, 0, 56, 0
3, 45600, Note_on_c, 0, 58, 0
3, 45600, Note_on_c, 0, 62, 0
3, 45600, Note_on_c, 0, 62, 111
3, 45600, Note_on_c, 0, 58, 111
3, 45600, Note_on_c, 0, 56, 111
3, 45720, Note_on_c, 0, 56, 0
3, 45720, Note_on_c, 0, 58, 0
3, 45720, Note_on_c, 0, 62, 0
3, 45720, Note_on_c, 0, 51, 117
3, 45840, Note_on_c, 0, 51, 0
3, 45840, Note_on_c, 0, 63, 102
3, 45840, Note_on_c, 0, 58, 102
3, 45840, Note_on_c, 0, 55, 102
3, 45960, Note_on_c, 0, 55, 0
3, 45960, Note_on_c, 0, 58, 0
3, 45960, Note_on_c, 0, 63, 0
3, 45960, Note_on_c, 0, 55, 97
3, 45960, Note_on_c, 0, 58, 97
3, 45960, Note_on_c, 0, 63, 97
3, 46080, Note_on_c, 0, 63, 0
3, 46080, Note_on_c, 0, 58, 0
3, 46080, Note_on_c, 0, 55, 0
3, 46080, Note_on_c, 0, 51, 103
3, 46200, Note_on_c, 0, 51, 0
3, 46200, Note_on_c, 0, 63, 88
3, 46200, Note_on_c, 0, 58, 88
3, 46200, Note_on_c, 0, 55, 88
3, 46320, Note_on_c, 0, 55, 0
3, 46320, Note_on_c, 0, 58, 0
3, 46320, Note_on_c, 0, 63, 0
3, 46320, Note_on_c, 0, 55, 84
3, 46320, Note_on_c, 0, 58, 84
3, 46320, Note_on_c, 0, 63, 84
3, 46440, Note_on_c, 0, 63, 0
3, 46440, Note_on_c, 0, 58, 0
3, 46440, Note_on_c, 0, 55, 0
3, 46440, Note_on_c, 0, 43, 90
3, 46560, Note_on_c, 0, 43, 0
3, 46560, Note_on_c, 0, 61, 80
3, 46560, Note_on_c, 0, 58, 80
3, 46560, Note_on_c, 0, 51, 80
3, 46680, Note_on_c, 0, 51, 0
3, 46680, Note_on_c, 0, 58, 0
3, 46680, Note_on_c, 0, 61, 0
3, 46680, Note_on_c, 0, 58, 80
3, 46680, Note_on_c, 0, 61, 80
3, 46680, Note_on_c, 0, 51, 80
3, 46800, Note_on_c, 0, 51, 0
3, 46800, Note_on_c, 0, 61, 0
3, 46800, Note_on_c, 0, 58, 0
3, 46800, Note_on_c, 0, 43, 90
3, 46920, Note_on_c, 0, 43, 0
3, 46920, Note_on_c, 0, 61, 80
3, 46920, Note_on_c, 0, 58, 80
3, 46920, Note_on_c, 0, 51, 80
3, 47040, Note_on_c, 0, 51, 0
3, 47040, Note_on_c, 0, 58, 0
3, 47040, Note_on_c, 0, 61, 0
3, 47040, Note_on_c, 0, 58, 80
3, 47040, Note_on_c, 0, 61, 80
3, 47040, Note_on_c, 0, 51, 80
3, 47160, Note_on_c, 0, 51, 0
3, 47160, Note_on_c, 0, 61, 0
3, 47160, Note_on_c, 0, 58, 0
3, 47160, Note_on_c, 0, 44, 90
3, 47280, Note_on_c, 0, 44, 0
3, 47280, Note_on_c, 0, 60, 80
3, 47280, Note_on_c, 0, 56, 80
3, 47280, Note_on_c, 0, 51, 80
3, 47400, Note_on_c, 0, 51, 0
3, 47400, Note_on_c, 0, 56, 0
3, 47400, Note_on_c, 0, 60, 0
3, 47400, Note_on_c, 0, 56, 80
3, 47400, Note_on_c, 0, 60, 80
3, 47400, Note_on_c, 0, 51, 80
3, 47520, Note_on_c, 0, 51, 0
3, 47520, Note_on_c, 0, 60, 0
3, 47520, Note_on_c, 0, 56, 0
3, 47520, Note_on_c, 0, 44, 90
3, 47640, Note_on_c, 0, 44, 0
3, 47640, Note_on_c, 0, 60, 80
3, 47640, Note_on_c, 0, 56, 80
3, 47640, Note_on_c, 0, 51, 80
3, 47760, Note_on_c, 0, 51, 0
3, 47760, Note_on_c, 0, 56, 0
3, 47760, Note_on_c, 0, 60, 0
3, 47760, Note_on_c, 0, 56, 80
3, 47760, Note_on_c, 0, 60, 80
3, 47760, Note_on_c, 0, 51, 80
3, 47880, Note_on_c, 0, 51, 0
3, 47880, Note_on_c, 0, 60, 0
3, 47880, Note_on_c, 0, 56, 0
3, 47880, Note_on_c, 0, 39, 90
3, 48000, Note_on_c, 0, 39, 0
3, 48000, Note_on_c, 0, 61, 80
3, 48000, Note_on_c, 0, 58, 80
3, 48000, Note_on_c, 0, 51, 80
3, 48120, Note_on_c, 0, 51, 0
3, 48120, Note_on_c, 0, 58, 0
3, 48120, Note_on_c, 0, 61, 0
3, 48120, Note_on_c, 0, 58, 80
3, 48120, Note_on_c, 0, 61, 80
3, 48120, Note_on_c, 0, 51, 80
3, 48240, Note_on_c, 0, 51, 0
3, 48240, Note_on_c, 0, 61, 0
3, 48240, Note_on_c, 0, 58, 0
3, 48240, Note_on_c, 0, 39, 90
3, 48360, Note_on_c, 0, 39, 0
3, 48360, Note_on_c, 0, 61, 80
3, 48360, Note_on_c, 0, 58, 80
3, 48360, Note_on_c, 0, 51, 80
3, 48480, Note_on_c, 0, 51, 0
3, 48480, Note_on_c, 0, 58, 0
3, 48480, Note_on_c, 0, 61, 0
3, 48480, Note_on_c, 0, 58, 80
3, 48480, Note_on_c, 0, 61, 80
3, 48480, Note_on_c, 0, 51, 80
3, 48600, Note_on_c, 0, 51, 0
3, 48600, Note_on_c, 0, 61, 0
3, 48600, Note_on_c, 0, 58, 0
3, 48600, Note_on_c, 0, 44, 90
3, 48720, Note_on_c, 0, 44, 0
3, 48720, Note_on_c, 0, 60, 80
3, 48720, Note_on_c, 0, 56, 80
3, 48720, Note_on_c, 0, 51, 80
3, 48840, Note_on_c, 0, 51, 0
3, 48840, Note_on_c, 0, 56, 0
3, 48840, Note_on_c, 0, 60, 0
3, 48840, Note_on_c, 0, 56, 80
3, 48840, Note_on_c, 0, 60, 80
3, 48840, Note_on_c, 0, 51, 80
3, 48960, Note_on_c, 0, 51, 0
3, 48960, Note_on_c, 0, 60, 0
3, 48960, Note_on_c, 0, 56, 0
3, 48960, Note_on_c, 0, 44, 90
3, 49080, Note_on_c, 0, 44, 0
3, 49080, Note_on_c, 0, 60, 80
3, 49080, Note_on_c, 0, 56, 80
3, 49080, Note_on_c, 0, 51, 80
3, 49200, Note_on_c, 0, 51, 0
3, 49200, Note_on_c, 0, 56, 0
3, 49200, Note_on_c, 0, 60, 0
3, 49200, Note_on_c, 0, 56, 80
3, 49200, Note_on_c, 0, 60, 80
3, 49200, Note_on_c, 0, 51, 80
3, 49320, Note_on_c, 0, 51, 0
3, 49320, Note_on_c, 0, 60, 0
3, 49320, Note_on_c, 0, 56, 0
3, 49320, Note_on_c, 0, 43, 110
3, 49440, Note_on_c, 0, 43, 0
3, 49440, Note_on_c, 0, 61, 100
3, 49440, Note_on_c, 0, 58, 100
3, 49440, Note_on_c, 0, 51, 100
3, 49560, Note_on_c, 0, 51, 0
3, 49560, Note_on_c, 0, 58, 0
3, 49560, Note_on_c, 0, 61, 0
3, 49560, Note_on_c, 0, 58, 100
3, 49560, Note_on_c, 0, 61, 100
3, 49560, Note_on_c, 0, 51, 100
3, 49680, Note_on_c, 0, 51, 0
3, 49680, Note_on_c, 0, 61, 0
3, 49680, Note_on_c, 0, 58, 0
3, 49680, Note_on_c, 0, 43, 110
3, 49800, Note_on_c, 0, 43, 0
3, 49800, Note_on_c, 0, 61, 100
3, 49800, Note_on_c, 0, 58, 100
3, 49800, Note_on_c, 0, 51, 100
3, 49920, Note_on_c, 0, 51, 0
3, 49920, Note_on_c, 0, 58, 0
3, 49920, Note_on_c, 0, 61, 0
3, 49920, Note_on_c, 0, 58, 100
3, 49920, Note_on_c, 0, 61, 100
3, 49920, Note_on_c, 0, 51, 100
3, 50040, Note_on_c, 0, 51, 0
3, 50040, Note_on_c, 0, 61, 0
3, 50040, Note_on_c, 0, 58, 0
3, 50040, Note_on_c, 0, 44, 110
3, 50160, Note_on_c, 0, 44, 0
3, 50160, Note_on_c, 0, 60, 100
3, 50160, Note_on_c, 0, 56, 100
3, 50160, Note_on_c, 0, 51, 100
3, 50280, Note_on_c, 0, 51, 0
3, 50280, Note_on_c, 0, 56, 0
3, 50280, Note_on_c, 0, 60, 0
3, 50280, Note_on_c, 0, 56, 100
3, 50280, Note_on_c, 0, 60, 100
3, 50280, Note_on_c, 0, 51, 100
3, 50400, Note_on_c, 0, 51, 0
3, 50400, Note_on_c, 0, 60, 0
3, 50400, Note_on_c, 0, 56, 0
3, 50400, Note_on_c, 0, 44, 110
3, 50520, Note_on_c, 0, 44, 0
3, 50520, Note_on_c, 0, 60, 100
3, 50520, Note_on_c, 0, 56, 100
3, 50520, Note_on_c, 0, 51, 100
3, 50640, Note_on_c, 0, 51, 0
3, 50640, Note_on_c, 0, 56, 0
3, 50640, Note_on_c, 0, 60, 0
3, 50640, Note_on_c, 0, 56, 100
3, 50640, Note_on_c, 0, 60, 100
3, 50640, Note_on_c, 0, 51, 100
3, 50760, Note_on_c, 0, 51, 0
3, 50760, Note_on_c, 0, 60, 0
3, 50760, Note_on_c, 0, 56, 0
3, 50760, Note_on_c, 0, 49, 110
3, 50880, Note_on_c, 0, 49, 0
3, 50880, Note_on_c, 0, 61, 103
3, 50880, Note_on_c, 0, 58, 103
3, 50880, Note_on_c, 0, 53, 103
3, 51000, Note_on_c, 0, 53, 0
3, 51000, Note_on_c, 0, 58, 0
3, 51000, Note_on_c, 0, 61, 0
3, 51000, Note_on_c, 0, 58, 107
3, 51000, Note_on_c, 0, 61, 107
3, 51000, Note_on_c, 0, 53, 107
3, 51120, Note_on_c, 0, 53, 0
3, 51120, Note_on_c, 0, 61, 0
3, 51120, Note_on_c, 0, 58, 0
3, 51120, Note_on_c, 0, 49, 120
3, 51240, Note_on_c, 0, 49, 0
3, 51240, Note_on_c, 0, 61, 114
3, 51240, Note_on_c, 0, 58, 114
3, 51240, Note_on_c, 0, 53, 114
3, 51360, Note_on_c, 0, 53, 0
3, 51360, Note_on_c, 0, 58, 0
3, 51360, Note_on_c, 0, 61, 0
3, 51360, Note_on_c, 0, 58, 117
3, 51360, Note_on_c, 0, 61, 117
3, 51360, Note_on_c, 0, 53, 117
3, 51480, Note_on_c, 0, 53, 0
3, 51480, Note_on_c, 0, 61, 0
3, 51480, Note_on_c, 0, 58, 0
3, 51480, Note_on_c, 0, 39, 127
3, 51480, Note_on_c, 0, 51, 127
3, 51600, Note_on_c, 0, 51, 0
3, 51600, Note_on_c, 0, 39, 0
3, 51600, Note_on_c, 0, 61, 120
3, 51600, Note_on_c, 0, 58, 120
3, 51600, Note_on_c, 0, 51, 120
3, 51720, Note_on_c, 0, 51, 0
3, 51720, Note_on_c, 0, 58, 0
3, 51720, Note_on_c, 0, 61, 0
3, 51720, Note_on_c, 0, 58, 120
3, 51720, Note_on_c, 0, 61, 120
3, 51720, Note_on_c, 0, 51, 120
3, 51840, Note_on_c, 0, 51, 0
3, 51840, Note_on_c, 0, 61, 0
3, 51840, Note_on_c, 0, 58, 0
3, 51840, Note_on_c, 0, 44, 127
3, 51960, Note_on_c, 0, 44, 0
3, 51960, Note_on_c, 0, 60, 120
3, 51960, Note_on_c, 0, 56, 120
3, 51960, Note_on_c, 0, 51, 120
3, 52080, Note_on_c, 0, 51, 0
3, 52080, Note_on_c, 0, 56, 0
3, 52080, Note_on_c, 0, 60, 0
3, 52200, Note_on_c, 0, 48, 80
3, 52320, Note_on_c, 0, 48, 0
3, 52440, Note_on_c, 0, 64, 80
3, 52440, Note_on_c, 0, 60, 80
3, 52440, Note_on_c, 0, 58, 80
3, 52440, Note_on_c, 0, 55, 80
3, 52560, Note_on_c, 0, 55, 0
3, 52560, Note_on_c, 0, 64, 0
3, 52560, Note_on_c, 0, 60, 0
3, 52560, Note_on_c, 0, 58, 0
3, 52560, Note_on_c, 0, 65, 80
3, 52560, Note_on_c, 0, 60, 80
3, 52560, Note_on_c, 0, 56, 80
3, 52560, Note_on_c, 0, 53, 80
3, 52680, Note_on_c, 0, 53, 0
3, 52680, Note_on_c, 0, 65, 0
3, 52680, Note_on_c, 0, 60, 0
3, 52680, Note_on_c, 0, 56, 0
3, 52800, Note_on_c, 0, 65, 80
3, 52800, Note_on_c, 0, 60, 80
3, 52800, Note_on_c, 0, 56, 80
3, 52800, Note_on_c, 0, 53, 80
3, 52920, Note_on_c, 0, 53, 0
3, 52920, Note_on_c, 0, 65, 0
3, 52920, Note_on_c, 0, 60, 0
3, 52920, Note_on_c, 0, 56, 0
3, 52920, Note_on_c, 0, 64, 80
3, 52920, Note_on_c, 0, 60, 80
3, 52920, Note_on_c, 0, 58, 80
3, 52920, Note_on_c, 0, 53, 80
3, 53040, Note_on_c, 0, 53, 0
3, 53040, Note_on_c, 0, 64, 0
3, 53040, Note_on_c, 0, 60, 0
3, 53040, Note_on_c, 0, 58, 0
3, 53160, Note_on_c, 0, 53, 80
3, 53160, Note_on_c, 0, 58, 80
3, 53160, Note_on_c, 0, 60, 80
3, 53160, Note_on_c, 0, 64, 80
3, 53280, Note_on_c, 0, 64, 0
3, 53280, Note_on_c, 0, 53, 0
3, 53280, Note_on_c, 0, 58, 0
3, 53280, Note_on_c, 0, 60, 0
3, 53280, Note_on_c, 0, 65, 80
3, 53280, Note_on_c, 0, 60, 80
3, 53280, Note_on_c, 0, 56, 80
3, 53280, Note_on_c, 0, 53, 80
3, 53400, Note_on_c, 0, 53, 0
3, 53400, Note_on_c, 0, 65, 0
3, 53400, Note_on_c, 0, 60, 0
3, 53400, Note_on_c, 0, 56, 0
3, 53520, Note_on_c, 0, 65, 80
3, 53520, Note_on_c, 0, 60, 80
3, 53520, Note_on_c, 0, 56, 80
3, 53520, Note_on_c, 0, 53, 80
3, 53640, Note_on_c, 0, 53, 0
3, 53640, Note_on_c, 0, 65, 0
3, 53640, Note_on_c, 0, 60, 0
3, 53640, Note_on_c, 0, 56, 0
3, 53640, Note_on_c, 0, 64, 80
3, 53640, Note_on_c, 0, 60, 80
3, 53640, Note_on_c, 0, 58, 80
3, 53640, Note_on_c, 0, 53, 80
3, 53760, Note_on_c, 0, 53, 0
3, 53760, Note_on_c, 0, 64, 0
3, 53760, Note_on_c, 0, 60, 0
3, 53760, Note_on_c, 0, 58, 0
3, 53880, Note_on_c, 0, 53, 80
3, 53880, Note_on_c, 0, 58, 80
3, 53880, Note_on_c, 0, 60, 80
3, 53880, Note_on_c, 0, 64, 80
3, 54000, Note_on_c, 0, 64, 0
3, 54000, Note_on_c, 0, 53, 0
3, 54000, Note_on_c, 0, 58, 0
3, 54000, Note_on_c, 0, 60, 0
3, 54000, Note_on_c, 0, 65, 80
3, 54000, Note_on_c, 0, 60, 80
3, 54000, Note_on_c, 0, 56, 80
3, 54000, Note_on_c, 0, 53, 80
3, 54120, Note_on_c, 0, 53, 0
3, 54120, Note_on_c, 0, 65, 0
3, 54120, Note_on_c, 0, 60, 0
3, 54120, Note_on_c, 0, 56, 0
3, 54240, Note_on_c, 0, 65, 80
3, 54240, Note_on_c, 0, 60, 80
3, 54240, Note_on_c, 0, 56, 80
3, 54240, Note_on_c, 0, 53, 80
3, 54360, Note_on_c, 0, 53, 0
3, 54360, Note_on_c, 0, 65, 0
3, 54360, Note_on_c, 0, 60, 0
3, 54360, Note_on_c, 0, 56, 0
3, 54360, Note_on_c, 0, 64, 80
3, 54360, Note_on_c, 0, 60, 80
3, 54360, Note_on_c, 0, 58, 80
3, 54360, Note_on_c, 0, 53, 80
3, 54480, Note_on_c, 0, 53, 0
3, 54480, Note_on_c, 0, 64, 0
3, 54480, Note_on_c, 0, 60, 0
3, 54480, Note_on_c, 0, 58, 0
3, 54600, Note_on_c, 0, 53, 80
3, 54600, Note_on_c, 0, 58, 80
3, 54600, Note_on_c, 0, 60, 80
3, 54600, Note_on_c, 0, 64, 80
3, 54720, Note_on_c, 0, 64, 0
3, 54720, Note_on_c, 0, 53, 0
3, 54720, Note_on_c, 0, 58, 0
3, 54720, Note_on_c, 0, 60, 0
3, 54720, Note_on_c, 0, 65, 80
3, 54720, Note_on_c, 0, 60, 80
3, 54720, Note_on_c, 0, 56, 80
3, 54720, Note_on_c, 0, 53, 80
3, 54840, Note_on_c, 0, 53, 0
3, 54840, Note_on_c, 0, 65, 0
3, 54840, Note_on_c, 0, 60, 0
3, 54840, Note_on_c, 0, 56, 0
3, 55080, Note_on_c, 0, 48, 110
3, 55200, Note_on_c, 0, 48, 0
3, 55200, Note_on_c, 0, 64, 100
3, 55200, Note_on_c, 0, 60, 100
3, 55200, Note_on_c, 0, 58, 100
3, 55320, Note_on_c, 0, 58, 0
3, 55320, Note_on_c, 0, 60, 0
3, 55320, Note_on_c, 0, 64, 0
3, 55320, Note_on_c, 0, 58, 100
3, 55320, Note_on_c, 0, 60, 100
3, 55320, Note_on_c, 0, 64, 100
3, 55440, Note_on_c, 0, 64, 0
3, 55440, Note_on_c, 0, 60, 0
3, 55440, Note_on_c, 0, 58, 0
3, 55440, Note_on_c, 0, 53, 110
3, 55560, Note_on_c, 0, 53, 0
3, 55560, Note_on_c, 0, 65, 100
3, 55560, Note_on_c, 0, 60, 100
3, 55560, Note_on_c, 0, 56, 100
3, 55680, Note_on_c, 0, 56, 0
3, 55680, Note_on_c, 0, 60, 0
3, 55680, Note_on_c, 0, 65, 0
3, 55680, Note_on_c, 0, 56, 100
3, 55680, Note_on_c, 0, 60, 100
3, 55680, Note_on_c, 0, 65, 100
3, 55800, Note_on_c, 0, 65, 0
3, 55800, Note_on_c, 0, 60, 0
3, 55800, Note_on_c, 0, 56, 0
3, 55800, Note_on_c, 0, 48, 110
3, 55920, Note_on_c, 0, 48, 0
3, 55920, Note_on_c, 0, 64, 100
3, 55920, Note_on_c, 0, 60, 100
3, 55920, Note_on_c, 0, 58, 100
3, 56040, Note_on_c, 0, 58, 0
3, 56040, Note_on_c, 0, 60, 0
3, 56040, Note_on_c, 0, 64, 0
3, 56040, Note_on_c, 0, 58, 100
3, 56040, Note_on_c, 0, 60, 100
3, 56040, Note_on_c, 0, 64, 100
3, 56160, Note_on_c, 0, 64, 0
3, 56160, Note_on_c, 0, 60, 0
3, 56160, Note_on_c, 0, 58, 0
3, 56160, Note_on_c, 0, 53, 110
3, 56280, Note_on_c, 0, 53, 0
3, 56280, Note_on_c, 0, 65, 100
3, 56280, Note_on_c, 0, 60, 100
3, 56280, Note_on_c, 0, 56, 100
3, 56400, Note_on_c, 0, 56, 0
3, 56400, Note_on_c, 0, 60, 0
3, 56400, Note_on_c, 0, 65, 0
3, 56400, Note_on_c, 0, 56, 100
3, 56400, Note_on_c, 0, 60, 100
3, 56400, Note_on_c, 0, 65, 100
3, 56520, Note_on_c, 0, 65, 0
3, 56520, Note_on_c, 0, 60, 0
3, 56520, Note_on_c, 0, 56, 0
3, 56520, Note_on_c, 0, 48, 110
3, 56640, Note_on_c, 0, 48, 0
3, 56640, Note_on_c, 0, 64, 100
3, 56640, Note_on_c, 0, 60, 100
3, 56640, Note_on_c, 0, 58, 100
3, 56760, Note_on_c, 0, 58, 0
3, 56760, Note_on_c, 0, 60, 0
3, 56760, Note_on_c, 0, 64, 0
3, 56760, Note_on_c, 0, 58, 100
3, 56760, Note_on_c, 0, 60, 100
3, 56760, Note_on_c, 0, 64, 100
3, 56880, Note_on_c, 0, 64, 0
3, 56880, Note_on_c, 0, 60, 0
3, 56880, Note_on_c, 0, 58, 0
3, 56880, Note_on_c, 0, 53, 110
3, 57000, Note_on_c, 0, 53, 0
3, 57000, Note_on_c, 0, 65, 100
3, 57000, Note_on_c, 0, 60, 100
3, 57000, Note_on_c, 0, 56, 100
3, 57120, Note_on_c, 0, 56, 0
3, 57120, Note_on_c, 0, 60, 0
3, 57120, Note_on_c, 0, 65, 0
3, 57120, Note_on_c, 0, 56, 100
3, 57120, Note_on_c, 0, 60, 100
3, 57120, Note_on_c, 0, 65, 100
3, 57240, Note_on_c, 0, 65, 0
3, 57240, Note_on_c, 0, 60, 0
3, 57240, Note_on_c, 0, 56, 0
3, 57240, Note_on_c, 0, 48, 110
3, 57360, Note_on_c, 0, 48, 0
3, 57360, Note_on_c, 0, 64, 100
3, 57360, Note_on_c, 0, 60, 100
3, 57360, Note_on_c, 0, 58, 100
3, 57480, Note_on_c, 0, 58, 0
3, 57480, Note_on_c, 0, 60, 0
3, 57480, Note_on_c, 0, 64, 0
3, 57480, Note_on_c, 0, 58, 100
3, 57480, Note_on_c, 0, 60, 100
3, 57480, Note_on_c, 0, 64, 100
3, 57600, Note_on_c, 0, 64, 0
3, 57600, Note_on_c, 0, 60, 0
3, 57600, Note_on_c, 0, 58, 0
3, 57600, Note_on_c, 0, 53, 110
3, 57720, Note_on_c, 0, 53, 0
3, 57720, Note_on_c, 0, 65, 100
3, 57720, Note_on_c, 0, 56, 100
3, 57840, Note_on_c, 0, 56, 0
3, 57840, Note_on_c, 0, 65, 0
3, 57960, Note_on_c, 0, 43, 90
3, 58080, Note_on_c, 0, 43, 0
3, 58080, Note_on_c, 0, 61, 80
3, 58080, Note_on_c, 0, 58, 80
3, 58080, Note_on_c, 0, 51, 80
3, 58200, Note_on_c, 0, 51, 0
3, 58200, Note_on_c, 0, 58, 0
3, 58200, Note_on_c, 0, 61, 0
3, 58200, Note_on_c, 0, 51, 80
3, 58200, Note_on_c, 0, 58, 80
3, 58200, Note_on_c, 0, 61, 80
3, 58320, Note_on_c, 0, 61, 0
3, 58320, Note_on_c, 0, 58, 0
3, 58320, Note_on_c, 0, 51, 0
3, 58320, Note_on_c, 0, 43, 90
3, 58440, Note_on_c, 0, 43, 0
3, 58440, Note_on_c, 0, 61, 80
3, 58440, Note_on_c, 0, 58, 80
3, 58440, Note_on_c, 0, 51, 80
3, 58560, Note_on_c, 0, 51, 0
3, 58560, Note_on_c, 0, 58, 0
3, 58560, Note_on_c, 0, 61, 0
3, 58560, Note_on_c, 0, 58, 80
3, 58560, Note_on_c, 0, 61, 80
3, 58560, Note_on_c, 0, 51, 80
3, 58680, Note_on_c, 0, 51, 0
3, 58680, Note_on_c, 0, 61, 0
3, 58680, Note_on_c, 0, 58, 0
3, 58680, Note_on_c, 0, 44, 90
3, 58800, Note_on_c, 0, 44, 0
3, 58800, Note_on_c, 0, 60, 80
3, 58800, Note_on_c, 0, 56, 80
3, 58800, Note_on_c, 0, 51, 80
3, 58920, Note_on_c, 0, 51, 0
3, 58920, Note_on_c, 0, 56, 0
3, 58920, Note_on_c, 0, 60, 0
3, 58920, Note_on_c, 0, 51, 80
3, 58920, Note_on_c, 0, 56, 80
3, 58920, Note_on_c, 0, 60, 80
3, 59040, Note_on_c, 0, 60, 0
3, 59040, Note_on_c, 0, 56, 0
3, 59040, Note_on_c, 0, 51, 0
3, 59040, Note_on_c, 0, 44, 90
3, 59160, Note_on_c, 0, 44, 0
3, 59160, Note_on_c, 0, 60, 80
3, 59160, Note_on_c, 0, 56, 80
3, 59160, Note_on_c, 0, 51, 80
3, 59280, Note_on_c, 0, 51, 0
3, 59280, Note_on_c, 0, 56, 0
3, 59280, Note_on_c, 0, 60, 0
3, 59280, Note_on_c, 0, 51, 80
3, 59280, Note_on_c, 0, 56, 80
3, 59280, Note_on_c, 0, 60, 80
3, 59400, Note_on_c, 0, 60, 0
3, 59400, Note_on_c, 0, 56, 0
3, 59400, Note_on_c, 0, 51, 0
3, 59400, Note_on_c, 0, 39, 90
3, 59520, Note_on_c, 0, 39, 0
3, 59520, Note_on_c, 0, 61, 80
3, 59520, Note_on_c, 0, 58, 80
3, 59520, Note_on_c, 0, 51, 80
3, 59640, Note_on_c, 0, 51, 0
3, 59640, Note_on_c, 0, 58, 0
3, 59640, Note_on_c, 0, 61, 0
3, 59640, Note_on_c, 0, 58, 80
3, 59640, Note_on_c, 0, 61, 80
3, 59640, Note_on_c, 0, 51, 80
3, 59760, Note_on_c, 0, 51, 0
3, 59760, Note_on_c, 0, 61, 0
3, 59760, Note_on_c, 0, 58, 0
3, 59760, Note_on_c, 0, 39, 90
3, 59880, Note_on_c, 0, 39, 0
3, 59880, Note_on_c, 0, 61, 80
3, 59880, Note_on_c, 0, 58, 80
3, 59880, Note_on_c, 0, 51, 80
3, 60000, Note_on_c, 0, 51, 0
3, 60000, Note_on_c, 0, 58, 0
3, 60000, Note_on_c, 0, 61, 0
3, 60000, Note_on_c, 0, 58, 80
3, 60000, Note_on_c, 0, 61, 80
3, 60000, Note_on_c, 0, 51, 80
3, 60120, Note_on_c, 0, 51, 0
3, 60120, Note_on_c, 0, 61, 0
3, 60120, Note_on_c, 0, 58, 0
3, 60120, Note_on_c, 0, 44, 90
3, 60240, Note_on_c, 0, 44, 0
3, 60240, Note_on_c, 0, 60, 80
3, 60240, Note_on_c, 0, 56, 80
3, 60240, Note_on_c, 0, 51, 80
3, 60360, Note_on_c, 0, 51, 0
3, 60360, Note_on_c, 0, 56, 0
3, 60360, Note_on_c, 0, 60, 0
3, 60360, Note_on_c, 0, 51, 80
3, 60360, Note_on_c, 0, 56, 80
3, 60360, Note_on_c, 0, 60, 80
3, 60480, Note_on_c, 0, 60, 0
3, 60480, Note_on_c, 0, 56, 0
3, 60480, Note_on_c, 0, 51, 0
3, 60480, Note_on_c, 0, 44, 90
3, 60600, Note_on_c, 0, 44, 0
3, 60600, Note_on_c, 0, 60, 80
3, 60600, Note_on_c, 0, 56, 80
3, 60600, Note_on_c, 0, 51, 80
3, 60720, Note_on_c, 0, 51, 0
3, 60720, Note_on_c, 0, 56, 0
3, 60720, Note_on_c, 0, 60, 0
3, 60720, Note_on_c, 0, 51, 80
3, 60720, Note_on_c, 0, 56, 80
3, 60720, Note_on_c, 0, 60, 80
3, 60840, Note_on_c, 0, 60, 0
3, 60840, Note_on_c, 0, 56, 0
3, 60840, Note_on_c, 0, 51, 0
3, 60840, Note_on_c, 0, 43, 110
3, 60960, Note_on_c, 0, 43, 0
3, 60960, Note_on_c, 0, 61, 100
3, 60960, Note_on_c, 0, 58, 100
3, 60960, Note_on_c, 0, 51, 100
3, 61080, Note_on_c, 0, 51, 0
3, 61080, Note_on_c, 0, 58, 0
3, 61080, Note_on_c, 0, 61, 0
3, 61080, Note_on_c, 0, 51, 100
3, 61080, Note_on_c, 0, 58, 100
3, 61080, Note_on_c, 0, 61, 100
3, 61200, Note_on_c, 0, 61, 0
3, 61200, Note_on_c, 0, 58, 0
3, 61200, Note_on_c, 0, 51, 0
3, 61200, Note_on_c, 0, 43, 110
3, 61320, Note_on_c, 0, 43, 0
3, 61320, Note_on_c, 0, 61, 100
3, 61320, Note_on_c, 0, 58, 100
3, 61320, Note_on_c, 0, 51, 100
3, 61440, Note_on_c, 0, 51, 0
3, 61440, Note_on_c, 0, 58, 0
3, 61440, Note_on_c, 0, 61, 0
3, 61440, Note_on_c, 0, 58, 100
3, 61440, Note_on_c, 0, 61, 100
3, 61440, Note_on_c, 0, 51, 100
3, 61560, Note_on_c, 0, 51, 0
3, 61560, Note_on_c, 0, 61, 0
3, 61560, Note_on_c, 0, 58, 0
3, 61560, Note_on_c, 0, 44, 110
3, 61680, Note_on_c, 0, 44, 0
3, 61680, Note_on_c, 0, 60, 100
3, 61680, Note_on_c, 0, 56, 100
3, 61680, Note_on_c, 0, 51, 100
3, 61800, Note_on_c, 0, 51, 0
3, 61800, Note_on_c, 0, 56, 0
3, 61800, Note_on_c, 0, 60, 0
3, 61800, Note_on_c, 0, 51, 100
3, 61800, Note_on_c, 0, 56, 100
3, 61800, Note_on_c, 0, 60, 100
3, 61920, Note_on_c, 0, 60, 0
3, 61920, Note_on_c, 0, 56, 0
3, 61920, Note_on_c, 0, 51, 0
3, 61920, Note_on_c, 0, 44, 110
3, 62040, Note_on_c, 0, 44, 0
3, 62040, Note_on_c, 0, 60, 100
3, 62040, Note_on_c, 0, 56, 100
3, 62040, Note_on_c, 0, 51, 100
3, 62160, Note_on_c, 0, 51, 0
3, 62160, Note_on_c, 0, 56, 0
3, 62160, Note_on_c, 0, 60, 0
3, 62160, Note_on_c, 0, 51, 100
3, 62160, Note_on_c, 0, 56, 100
3, 62160, Note_on_c, 0, 60, 100
3, 62280, Note_on_c, 0, 60, 0
3, 62280, Note_on_c, 0, 56, 0
3, 62280, Note_on_c, 0, 51, 0
3, 62280, Note_on_c, 0, 49, 110
3, 62400, Note_on_c, 0, 49, 0
3, 62400, Note_on_c, 0, 61, 100
3, 62400, Note_on_c, 0, 58, 100
3, 62400, Note_on_c, 0, 53, 100
3, 62520, Note_on_c, 0, 53, 0
3, 62520, Note_on_c, 0, 58, 0
3, 62520, Note_on_c, 0, 61, 0
3, 62520, Note_on_c, 0, 58, 100
3, 62520, Note_on_c, 0, 61, 100
3, 62520, Note_on_c, 0, 53, 100
3, 62640, Note_on_c, 0, 53, 0
3, 62640, Note_on_c, 0, 61, 0
3, 62640, Note_on_c, 0, 58, 0
3, 62640, Note_on_c, 0, 49, 110
3, 62760, Note_on_c, 0, 49, 0
3, 62760, Note_on_c, 0, 61, 100
3, 62760, Note_on_c, 0, 58, 100
3, 62760, Note_on_c, 0, 53, 100
3, 62880, Note_on_c, 0, 53, 0
3, 62880, Note_on_c, 0, 58, 0
3, 62880, Note_on_c, 0, 61, 0
3, 62880, Note_on_c, 0, 58, 100
3, 62880, Note_on_c, 0, 61, 100
3, 62880, Note_on_c, 0, 53, 100
3, 63000, Note_on_c, 0, 53, 0
3, 63000, Note_on_c, 0, 61, 0
3, 63000, Note_on_c, 0, 58, 0
3, 63000, Note_on_c, 0, 39, 110
3, 63000, Note_on_c, 0, 51, 110
3, 63120, Note_on_c, 0, 51, 0
3, 63120, Note_on_c, 0, 39, 0
3, 63120, Note_on_c, 0, 61, 100
3, 63120, Note_on_c, 0, 58, 100
3, 63120, Note_on_c, 0, 51, 100
3, 63240, Note_on_c, 0, 51, 0
3, 63240, Note_on_c, 0, 58, 0
3, 63240, Note_on_c, 0, 61, 0
3, 63240, Note_on_c, 0, 58, 100
3, 63240, Note_on_c, 0, 61, 100
3, 63240, Note_on_c, 0, 51, 100
3, 63360, Note_on_c, 0, 51, 0
3, 63360, Note_on_c, 0, 61, 0
3, 63360, Note_on_c, 0, 58, 0
3, 63360, Note_on_c, 0, 44, 110
3, 63480, Note_on_c, 0, 44, 0
3, 63480, Note_on_c, 0, 60, 100
3, 63480, Note_on_c, 0, 56, 100
3, 63480, Note_on_c, 0, 51, 100
3, 63600, Note_on_c, 0, 51, 0
3, 63600, Note_on_c, 0, 56, 0
3, 63600, Note_on_c, 0, 60, 0
3, 63600, End_track
4, 0, Start_track
4, 0, MIDI_port, 0
4, 0, Title_t, "Pedal"
4, 0, Program_c, 0, 0
4, 360, Control_c, 0, 64, 127
4, 480, Control_c, 0, 64, 0
4, 720, Control_c, 0, 64, 127
4, 840, Control_c, 0, 64, 0
4, 1080, Control_c, 0, 64, 127
4, 1200, Control_c, 0, 64, 0
4, 1440, Control_c, 0, 64, 127
4, 1560, Control_c, 0, 64, 0
4, 1800, Control_c, 0, 64, 127
4, 1920, Control_c, 0, 64, 0
4, 2160, Control_c, 0, 64, 127
4, 2280, Control_c, 0, 64, 0
4, 2520, Control_c, 0, 64, 127
4, 2640, Control_c, 0, 64, 0
4, 2880, Control_c, 0, 64, 127
4, 3000, Control_c, 0, 64, 0
4, 3240, Control_c, 0, 64, 127
4, 3360, Control_c, 0, 64, 0
4, 3600, Control_c, 0, 64, 127
4, 3720, Control_c, 0, 64, 0
4, 3960, Control_c, 0, 64, 127
4, 4080, Control_c, 0, 64, 0
4, 4320, Control_c, 0, 64, 127
4, 4440, Control_c, 0, 64, 0
4, 4680, Control_c, 0, 64, 127
4, 4800, Control_c, 0, 64, 0
4, 5040, Control_c, 0, 64, 127
4, 5160, Control_c, 0, 64, 0
4, 5400, Control_c, 0, 64, 127
4, 5520, Control_c, 0, 64, 0
4, 5760, Control_c, 0, 64, 127
4, 5880, Control_c, 0, 64, 0
4, 6120, Control_c, 0, 64, 127
4, 6240, Control_c, 0, 64, 0
4, 6480, Control_c, 0, 64, 127
4, 6600, Control_c, 0, 64, 0
4, 6840, Control_c, 0, 64, 127
4, 6960, Control_c, 0, 64, 0
4, 7200, Control_c, 0, 64, 127
4, 7320, Control_c, 0, 64, 0
4, 7560, Control_c, 0, 64, 127
4, 7680, Control_c, 0, 64, 0
4, 7920, Control_c, 0, 64, 127
4, 8040, Control_c, 0, 64, 0
4, 8280, Control_c, 0, 64, 127
4, 8400, Control_c, 0, 64, 0
4, 8640, Control_c, 0, 64, 127
4, 8760, Control_c, 0, 64, 0
4, 9000, Control_c, 0, 64, 127
4, 9120, Control_c, 0, 64, 0
4, 9360, Control_c, 0, 64, 127
4, 9480, Control_c, 0, 64, 0
4, 9720, Control_c, 0, 64, 127
4, 9840, Control_c, 0, 64, 0
4, 10080, Control_c, 0, 64, 127
4, 10200, Control_c, 0, 64, 0
4, 10440, Control_c, 0, 64, 127
4, 10560, Control_c, 0, 64, 0
4, 10800, Control_c, 0, 64, 127
4, 10920, Control_c, 0, 64, 0
4, 11160, Control_c, 0, 64, 127
4, 11280, Control_c, 0, 64, 0
4, 11520, Control_c, 0, 64, 127
4, 11640, Control_c, 0, 64, 0
4, 11880, Control_c, 0, 64, 127
4, 12000, Control_c, 0, 64, 0
4, 12240, Control_c, 0, 64, 127
4, 12360, Control_c, 0, 64, 0
4, 12600, Control_c, 0, 64, 127
4, 12720, Control_c, 0, 64, 0
4, 12960, Control_c, 0, 64, 127
4, 13080, Control_c, 0, 64, 0
4, 13320, Control_c, 0, 64, 127
4, 13440, Control_c, 0, 64, 0
4, 13680, Control_c, 0, 64, 127
4, 13800, Control_c, 0, 64, 0
4, 14040, Control_c, 0, 64, 127
4, 14160, Control_c, 0, 64, 0
4, 14400, Control_c, 0, 64, 127
4, 14520, Control_c, 0, 64, 0
4, 14760, Control_c, 0, 64, 127
4, 14880, Control_c, 0, 64, 0
4, 15120, Control_c, 0, 64, 127
4, 15240, Control_c, 0, 64, 0
4, 15480, Control_c, 0, 64, 127
4, 15600, Control_c, 0, 64, 0
4, 15840, Control_c, 0, 64, 127
4, 15960, Control_c, 0, 64, 0
4, 16200, Control_c, 0, 64, 127
4, 16320, Control_c, 0, 64, 0
4, 16560, Control_c, 0, 64, 127
4, 16680, Control_c, 0, 64, 0
4, 16920, Control_c, 0, 64, 127
4, 17040, Control_c, 0, 64, 0
4, 17280, Control_c, 0, 64, 127
4, 17400, Control_c, 0, 64, 0
4, 17640, Control_c, 0, 64, 127
4, 17760, Control_c, 0, 64, 0
4, 18000, Control_c, 0, 64, 127
4, 18120, Control_c, 0, 64, 0
4, 18360, Control_c, 0, 64, 127
4, 18480, Control_c, 0, 64, 0
4, 18720, Control_c, 0, 64, 127
4, 18840, Control_c, 0, 64, 0
4, 19080, Control_c, 0, 64, 127
4, 19200, Control_c, 0, 64, 0
4, 19440, Control_c, 0, 64, 127
4, 19560, Control_c, 0, 64, 0
4, 19800, Control_c, 0, 64, 127
4, 19920, Control_c, 0, 64, 0
4, 20160, Control_c, 0, 64, 127
4, 20280, Control_c, 0, 64, 0
4, 20520, Control_c, 0, 64, 127
4, 20640, Control_c, 0, 64, 0
4, 20880, Control_c, 0, 64, 127
4, 21000, Control_c, 0, 64, 0
4, 21240, Control_c, 0, 64, 127
4, 21360, Control_c, 0, 64, 0
4, 21600, Control_c, 0, 64, 127
4, 21720, Control_c, 0, 64, 0
4, 21960, Control_c, 0, 64, 127
4, 22080, Control_c, 0, 64, 0
4, 22320, Control_c, 0, 64, 127
4, 22440, Control_c, 0, 64, 0
4, 22680, Control_c, 0, 64, 127
4, 22800, Control_c, 0, 64, 0
4, 23040, Control_c, 0, 64, 127
4, 23160, Control_c, 0, 64, 0
4, 23400, Control_c, 0, 64, 127
4, 23520, Control_c, 0, 64, 0
4, 23760, Control_c, 0, 64, 127
4, 23880, Control_c, 0, 64, 0
4, 24120, Control_c, 0, 64, 127
4, 24240, Control_c, 0, 64, 0
4, 24480, Control_c, 0, 64, 127
4, 24600, Control_c, 0, 64, 0
4, 24840, Control_c, 0, 64, 127
4, 24960, Control_c, 0, 64, 0
4, 25200, Control_c, 0, 64, 127
4, 25320, Control_c, 0, 64, 0
4, 25560, Control_c, 0, 64, 127
4, 25680, Control_c, 0, 64, 0
4, 25920, Control_c, 0, 64, 127
4, 26040, Control_c, 0, 64, 0
4, 26280, Control_c, 0, 64, 127
4, 26400, Control_c, 0, 64, 0
4, 26640, Control_c, 0, 64, 127
4, 26760, Control_c, 0, 64, 0
4, 27000, Control_c, 0, 64, 127
4, 27120, Control_c, 0, 64, 0
4, 27360, Control_c, 0, 64, 127
4, 27480, Control_c, 0, 64, 0
4, 27720, Control_c, 0, 64, 127
4, 27840, Control_c, 0, 64, 0
4, 28080, Control_c, 0, 64, 127
4, 28200, Control_c, 0, 64, 0
4, 28440, Control_c, 0, 64, 127
4, 28560, Control_c, 0, 64, 0
4, 28800, Control_c, 0, 64, 127
4, 28920, Control_c, 0, 64, 0
4, 29160, Control_c, 0, 64, 127
4, 29280, Control_c, 0, 64, 0
4, 29520, Control_c, 0, 64, 127
4, 29640, Control_c, 0, 64, 0
4, 29880, Control_c, 0, 64, 127
4, 30000, Control_c, 0, 64, 0
4, 30240, Control_c, 0, 64, 127
4, 30360, Control_c, 0, 64, 0
4, 30600, Control_c, 0, 64, 127
4, 30720, Control_c, 0, 64, 0
4, 30960, Control_c, 0, 64, 127
4, 31080, Control_c, 0, 64, 0
4, 31320, Control_c, 0, 64, 127
4, 31440, Control_c, 0, 64, 0
4, 31680, Control_c, 0, 64, 127
4, 31800, Control_c, 0, 64, 0
4, 32040, Control_c, 0, 64, 127
4, 32160, Control_c, 0, 64, 0
4, 32400, Control_c, 0, 64, 127
4, 32520, Control_c, 0, 64, 0
4, 32760, Control_c, 0, 64, 127
4, 32880, Control_c, 0, 64, 0
4, 33120, Control_c, 0, 64, 127
4, 33240, Control_c, 0, 64, 0
4, 33480, Control_c, 0, 64, 127
4, 33600, Control_c, 0, 64, 0
4, 33840, Control_c, 0, 64, 127
4, 33960, Control_c, 0, 64, 0
4, 34200, Control_c, 0, 64, 127
4, 34320, Control_c, 0, 64, 0
4, 34560, Control_c, 0, 64, 127
4, 34680, Control_c, 0, 64, 0
4, 34920, Control_c, 0, 64, 127
4, 35160, Control_c, 0, 64, 0
4, 35280, Control_c, 0, 64, 127
4, 35520, Control_c, 0, 64, 0
4, 35640, Control_c, 0, 64, 127
4, 35880, Control_c, 0, 64, 0
4, 36000, Control_c, 0, 64, 127
4, 36240, Control_c, 0, 64, 0
4, 36360, Control_c, 0, 64, 127
4, 36600, Control_c, 0, 64, 0
4, 36720, Control_c, 0, 64, 127
4, 36960, Control_c, 0, 64, 0
4, 37080, Control_c, 0, 64, 127
4, 37320, Control_c, 0, 64, 0
4, 37440, Control_c, 0, 64, 127
4, 37680, Control_c, 0, 64, 0
4, 37800, Control_c, 0, 64, 127
4, 38040, Control_c, 0, 64, 0
4, 38160, Control_c, 0, 64, 127
4, 38400, Control_c, 0, 64, 0
4, 38520, Control_c, 0, 64, 127
4, 38760, Control_c, 0, 64, 0
4, 38880, Control_c, 0, 64, 127
4, 39120, Control_c, 0, 64, 0
4, 39240, Control_c, 0, 64, 127
4, 39480, Control_c, 0, 64, 0
4, 39600, Control_c, 0, 64, 127
4, 39840, Control_c, 0, 64, 0
4, 39960, Control_c, 0, 64, 127
4, 40200, Control_c, 0, 64, 0
4, 40320, Control_c, 0, 64, 127
4, 40440, Control_c, 0, 64, 0
4, 40680, Control_c, 0, 64, 127
4, 40800, Control_c, 0, 64, 0
4, 41040, Control_c, 0, 64, 127
4, 41160, Control_c, 0, 64, 0
4, 41400, Control_c, 0, 64, 127
4, 41520, Control_c, 0, 64, 0
4, 41760, Control_c, 0, 64, 127
4, 41880, Control_c, 0, 64, 0
4, 42120, Control_c, 0, 64, 127
4, 42240, Control_c, 0, 64, 0
4, 42480, Control_c, 0, 64, 127
4, 42600, Control_c, 0, 64, 0
4, 42840, Control_c, 0, 64, 127
4, 42960, Control_c, 0, 64, 0
4, 43200, Control_c, 0, 64, 127
4, 43320, Control_c, 0, 64, 0
4, 43560, Control_c, 0, 64, 127
4, 43680, Control_c, 0, 64, 0
4, 43920, Control_c, 0, 64, 127
4, 44040, Control_c, 0, 64, 0
4, 44280, Control_c, 0, 64, 127
4, 44400, Control_c, 0, 64, 0
4, 44640, Control_c, 0, 64, 127
4, 44760, Control_c, 0, 64, 0
4, 45000, Control_c, 0, 64, 127
4, 45120, Control_c, 0, 64, 0
4, 45360, Control_c, 0, 64, 127
4, 45480, Control_c, 0, 64, 0
4, 45720, Control_c, 0, 64, 127
4, 45840, Control_c, 0, 64, 0
4, 46080, Control_c, 0, 64, 127
4, 46200, Control_c, 0, 64, 0
4, 46440, Control_c, 0, 64, 127
4, 46560, Control_c, 0, 64, 0
4, 46800, Control_c, 0, 64, 127
4, 46920, Control_c, 0, 64, 0
4, 47160, Control_c, 0, 64, 127
4, 47280, Control_c, 0, 64, 0
4, 47520, Control_c, 0, 64, 127
4, 47640, Control_c, 0, 64, 0
4, 47880, Control_c, 0, 64, 127
4, 48000, Control_c, 0, 64, 0
4, 48240, Control_c, 0, 64, 127
4, 48360, Control_c, 0, 64, 0
4, 48600, Control_c, 0, 64, 127
4, 48720, Control_c, 0, 64, 0
4, 48960, Control_c, 0, 64, 127
4, 49080, Control_c, 0, 64, 0
4, 49320, Control_c, 0, 64, 127
4, 49440, Control_c, 0, 64, 0
4, 49680, Control_c, 0, 64, 127
4, 49800, Control_c, 0, 64, 0
4, 50040, Control_c, 0, 64, 127
4, 50160, Control_c, 0, 64, 0
4, 50400, Control_c, 0, 64, 127
4, 50520, Control_c, 0, 64, 0
4, 50760, Control_c, 0, 64, 127
4, 50880, Control_c, 0, 64, 0
4, 51120, Control_c, 0, 64, 127
4, 51240, Control_c, 0, 64, 0
4, 51480, Control_c, 0, 64, 127
4, 51600, Control_c, 0, 64, 0
4, 51840, Control_c, 0, 64, 127
4, 51960, Control_c, 0, 64, 0
4, 52200, Control_c, 0, 64, 127
4, 52320, Control_c, 0, 64, 0
4, 52560, Control_c, 0, 64, 127
4, 52680, Control_c, 0, 64, 0
4, 52920, Control_c, 0, 64, 127
4, 53040, Control_c, 0, 64, 0
4, 53280, Control_c, 0, 64, 127
4, 53400, Control_c, 0, 64, 0
4, 53640, Control_c, 0, 64, 127
4, 53760, Control_c, 0, 64, 0
4, 54000, Control_c, 0, 64, 127
4, 54120, Control_c, 0, 64, 0
4, 54360, Control_c, 0, 64, 127
4, 54480, Control_c, 0, 64, 0
4, 54720, Control_c, 0, 64, 127
4, 54840, Control_c, 0, 64, 0
4, 55080, Control_c, 0, 64, 127
4, 55200, Control_c, 0, 64, 0
4, 55440, Control_c, 0, 64, 127
4, 55560, Control_c, 0, 64, 0
4, 55800, Control_c, 0, 64, 127
4, 55920, Control_c, 0, 64, 0
4, 56160, Control_c, 0, 64, 127
4, 56280, Control_c, 0, 64, 0
4, 56520, Control_c, 0, 64, 127
4, 56640, Control_c, 0, 64, 0
4, 56880, Control_c, 0, 64, 127
4, 57000, Control_c, 0, 64, 0
4, 57240, Control_c, 0, 64, 127
4, 57360, Control_c, 0, 64, 0
4, 57600, Control_c, 0, 64, 127
4, 57720, Control_c, 0, 64, 0
4, 57960, Control_c, 0, 64, 127
4, 58080, Control_c, 0, 64, 0
4, 58320, Control_c, 0, 64, 127
4, 58440, Control_c, 0, 64, 0
4, 58680, Control_c, 0, 64, 127
4, 58800, Control_c, 0, 64, 0
4, 59040, Control_c, 0, 64, 127
4, 59160, Control_c, 0, 64, 0
4, 59400, Control_c, 0, 64, 127
4, 59520, Control_c, 0, 64, 0
4, 59760, Control_c, 0, 64, 127
4, 59880, Control_c, 0, 64, 0
4, 60120, Control_c, 0, 64, 127
4, 60240, Control_c, 0, 64, 0
4, 60480, Control_c, 0, 64, 127
4, 60600, Control_c, 0, 64, 0
4, 60840, Control_c, 0, 64, 127
4, 60960, Control_c, 0, 64, 0
4, 61200, Control_c, 0, 64, 127
4, 61320, Control_c, 0, 64, 0
4, 61560, Control_c, 0, 64, 127
4, 61680, Control_c, 0, 64, 0
4, 61920, Control_c, 0, 64, 127
4, 62040, Control_c, 0, 64, 0
4, 62280, Control_c, 0, 64, 127
4, 62400, Control_c, 0, 64, 0
4, 62640, Control_c, 0, 64, 127
4, 62760, Control_c, 0, 64, 0
4, 63000, Control_c, 0, 64, 127
4, 63120, Control_c, 0, 64, 0
4, 63360, Control_c, 0, 64, 127
4, 63600, Control_c, 0, 64, 0
4, 63600, End_track
5, 0, Start_track
5, 0, MIDI_port, 0
5, 0, Title_t, "F. Chopin Valse No. 16 in Ab Op. posth."
5, 0, End_track
6, 0, Start_track
6, 0, MIDI_port, 0
6, 0, Title_t, "Jeruen E. Dery jawjaw@hotmail.com"
6, 0, End_track
0, 0, End_of_file