0, 0, Header, 1, 3, 480
1, 0, Start_track
1, 0, Tempo, 624897
1, 0, Time_signature, 2, 2, 24, 8
1, 0, Copyright_t, "Copyright \251 1999 My Music Company"
1, 0, Title_t, "Piano Solo"
1, 8664, Tempo, 627457
1, 8688, Tempo, 630273
1, 8712, Tempo, 632833
1, 8736, Tempo, 635649
1, 8760, Tempo, 638209
1, 8784, Tempo, 641025
1, 8808, Tempo, 643841
1, 8832, Tempo, 646657
1, 8856, Tempo, 649473
1, 8880, Tempo, 652289
1, 8904, Tempo, 655361
1, 8928, Tempo, 658177
1, 8952, Tempo, 660993
1, 8976, Tempo, 664065
1, 9000, Tempo, 667137
1, 9024, Tempo, 669953
1, 9048, Tempo, 673025
1, 9072, Tempo, 676097
1, 9096, Tempo, 679169
1, 9120, Tempo, 682497
1, 9144, Tempo, 685569
1, 9168, Tempo, 688641
1, 9192, Tempo, 691969
1, 9216, Tempo, 695297
1, 9240, Tempo, 698369
1, 9264, Tempo, 701697
1, 9288, Tempo, 705025
1, 9312, Tempo, 708353
1, 9336, Tempo, 711937
1, 9360, Tempo, 715265
1, 9384, Tempo, 718849
1, 9408, Tempo, 722177
1, 9432, Tempo, 725761
1, 9456, Tempo, 729345
1, 9480, Tempo, 732929
1, 9504, Tempo, 736513
1, 9528, Tempo, 740353
1, 9552, Tempo, 743937
1, 9576, Tempo, 747777
1, 9600, Tempo, 751617
1, 9624, Tempo, 755457
1, 9648, Tempo, 759297
1, 9672, Tempo, 763137
1, 9696, Tempo, 767233
1, 9720, Tempo, 771073
1, 9744, Tempo, 775169
1, 9768, Tempo, 779265
1, 9792, Tempo, 783361
1, 9816, Tempo, 787457
1, 9840, Tempo, 791553
1, 9864, Tempo, 795905
1, 9888, Tempo, 800257
1, 9912, Tempo, 804609
1, 9936, Tempo, 808961
1, 9960, Tempo, 813313
1, 9984, Tempo, 817921
1, 10008, Tempo, 822529
1, 10032, Tempo, 826881
1, 10056, Tempo, 831745
1, 10080, Tempo, 836353
1, 10104, Tempo, 840961
1, 10128, Tempo, 845825
1, 10152, Tempo, 850689
1, 10176, Tempo, 855553
1, 10200, Tempo, 860673
1, 10224, Tempo, 865537
1, 10248, Tempo, 870657
1, 10272, Tempo, 875777
1, 10296, Tempo, 881153
1, 10320, Tempo, 886273
1, 10344, Tempo, 891649
1, 10368, Tempo, 897025
1, 10392, Tempo, 902401
1, 10416, Tempo, 908033
1, 10440, Tempo, 913665
1, 10464, Tempo, 919297
1, 10479, Tempo, 922881
1, 11520, Tempo, 999937
1, 23064, Tempo, 1004545
1, 23088, Tempo, 1009409
1, 23112, Tempo, 1014273
1, 23136, Tempo, 1019393
1, 23160, Tempo, 1024257
1, 23184, Tempo, 1029377
1, 23208, Tempo, 1034241
1, 23232, Tempo, 1039361
1, 23256, Tempo, 1044737
1, 23280, Tempo, 1049857
1, 23304, Tempo, 1055233
1, 23328, Tempo, 1060353
1, 23352, Tempo, 1065985
1, 23376, Tempo, 1071361
1, 23400, Tempo, 1076737
1, 23424, Tempo, 1082369
1, 23448, Tempo, 1088001
1, 23472, Tempo, 1093633
1, 23496, Tempo, 1099265
1, 23520, Tempo, 1105153
1, 23544, Tempo, 1111041
1, 23568, Tempo, 1116929
1, 23592, Tempo, 1122817
1, 23616, Tempo, 1128961
1, 23640, Tempo, 1135105
1, 23664, Tempo, 1141249
1, 23688, Tempo, 1147393
1, 23712, Tempo, 1153793
1, 23736, Tempo, 1160193
1, 23760, Tempo, 1166593
1, 23784, Tempo, 1172993
1, 23808, Tempo, 1179649
1, 23832, Tempo, 1186305
1, 23856, Tempo, 1192961
1, 23880, Tempo, 1199873
1, 23880, Tempo, 1199873
1, 24480, Tempo, 999937
1, 44640, Tempo, 499969
1, 45120, Tempo, 624897
1, 53784, Tempo, 627457
1, 53808, Tempo, 630273
1, 53832, Tempo, 632833
1, 53856, Tempo, 635649
1, 53880, Tempo, 638209
1, 53904, Tempo, 641025
1, 53928, Tempo, 643841
1, 53952, Tempo, 646657
1, 53976, Tempo, 649473
1, 54000, Tempo, 652289
1, 54024, Tempo, 655361
1, 54048, Tempo, 658177
1, 54072, Tempo, 660993
1, 54096, Tempo, 664065
1, 54120, Tempo, 667137
1, 54144, Tempo, 669953
1, 54168, Tempo, 673025
1, 54192, Tempo, 676097
1, 54216, Tempo, 679169
1, 54240, Tempo, 682497
1, 54264, Tempo, 685569
1, 54288, Tempo, 688641
1, 54312, Tempo, 691969
1, 54336, Tempo, 695297
1, 54360, Tempo, 698369
1, 54384, Tempo, 701697
1, 54408, Tempo, 705025
1, 54432, Tempo, 708353
1, 54456, Tempo, 711937
1, 54480, Tempo, 715265
1, 54504, Tempo, 718849
1, 54528, Tempo, 722177
1, 54552, Tempo, 725761
1, 54576, Tempo, 729345
1, 54600, Tempo, 732929
1, 54624, Tempo, 736513
1, 54648, Tempo, 740353
1, 54672, Tempo, 743937
1, 54696, Tempo, 747777
1, 54720, Tempo, 751617
1, 54744, Tempo, 755457
1, 54768, Tempo, 759297
1, 54792, Tempo, 763137
1, 54816, Tempo, 767233
1, 54840, Tempo, 771073
1, 54864, Tempo, 775169
1, 54888, Tempo, 779265
1, 54912, Tempo, 783361
1, 54936, Tempo, 787457
1, 54960, Tempo, 791553
1, 54984, Tempo, 795905
1, 55008, Tempo, 800257
1, 55032, Tempo, 804609
1, 55056, Tempo, 808961
1, 55080, Tempo, 813313
1, 55104, Tempo, 817921
1, 55128, Tempo, 822529
1, 55152, Tempo, 826881
1, 55176, Tempo, 831745
1, 55200, Tempo, 836353
1, 55224, Tempo, 840961
1, 55248, Tempo, 845825
1, 55272, Tempo, 850689
1, 55296, Tempo, 855553
1, 55320, Tempo, 860673
1, 55344, Tempo, 865537
1, 55368, Tempo, 870657
1, 55392, Tempo, 875777
1, 55416, Tempo, 881153
1, 55440, Tempo, 886273
1, 55464, Tempo, 891649
1, 55488, Tempo, 897025
1, 55512, Tempo, 902401
1, 55536, Tempo, 908033
1, 55560, Tempo, 913665
1, 55584, Tempo, 919297
1, 55599, Tempo, 922881
1, 56640, Tempo, 999937
1, 65280, Tempo, 499969
1, 65280, Tempo, 999937
1, 68184, Tempo, 1004545
1, 68208, Tempo, 1009409
1, 68232, Tempo, 1014273
1, 68256, Tempo, 1019393
1, 68280, Tempo, 1024257
1, 68304, Tempo, 1029377
1, 68328, Tempo, 1034241
1, 68352, Tempo, 1039361
1, 68376, Tempo, 1044737
1, 68400, Tempo, 1049857
1, 68424, Tempo, 1055233
1, 68448, Tempo, 1060609
1, 68472, Tempo, 1065985
1, 68496, Tempo, 1071361
1, 68520, Tempo, 1076737
1, 68544, Tempo, 1082369
1, 68568, Tempo, 1088001
1, 68592, Tempo, 1093633
1, 68616, Tempo, 1099265
1, 68640, Tempo, 1105153
1, 68664, Tempo, 1111041
1, 68688, Tempo, 1116929
1, 68712, Tempo, 1122817
1, 68736, Tempo, 1128961
1, 68760, Tempo, 1135105
1, 68784, Tempo, 1141249
1, 68808, Tempo, 1147393
1, 68832, Tempo, 1153793
1, 68856, Tempo, 1160193
1, 68880, Tempo, 1166593
1, 68904, Tempo, 1172993
1, 68928, Tempo, 1179649
1, 68952, Tempo, 1186305
1, 68976, Tempo, 1192961
1, 69000, Tempo, 1199873
1, 69600, Tempo, 999937
1, 89760, Tempo, 499969
1, 90240, Tempo, 624897
1, 98904, Tempo, 627969
1, 98928, Tempo, 631297
1, 98952, Tempo, 634369
1, 98976, Tempo, 637697
1, 99000, Tempo, 641025
1, 99024, Tempo, 644097
1, 99048, Tempo, 647425
1, 99072, Tempo, 651009
1, 99096, Tempo, 654337
1, 99120, Tempo, 657665
1, 99144, Tempo, 661249
1, 99168, Tempo, 664833
1, 99192, Tempo, 668417
1, 99216, Tempo, 672001
1, 99240, Tempo, 675585
1, 99264, Tempo, 679169
1, 99288, Tempo, 683009
1, 99312, Tempo, 686593
1, 99336, Tempo, 690433
1, 99360, Tempo, 694273
1, 99384, Tempo, 698113
1, 99408, Tempo, 702209
1, 99432, Tempo, 706049
1, 99456, Tempo, 710145
1, 99480, Tempo, 714241
1, 99504, Tempo, 718337
1, 99528, Tempo, 722433
1, 99552, Tempo, 726529
1, 99576, Tempo, 730881
1, 99600, Tempo, 735233
1, 99624, Tempo, 739585
1, 99648, Tempo, 743937
1, 99672, Tempo, 748289
1, 99696, Tempo, 752897
1, 99720, Tempo, 757505
1, 99744, Tempo, 762113
1, 99768, Tempo, 766721
1, 99792, Tempo, 771585
1, 99816, Tempo, 776193
1, 99840, Tempo, 781057
1, 99864, Tempo, 785921
1, 99888, Tempo, 791041
1, 99912, Tempo, 796161
1, 99936, Tempo, 801281
1, 99960, Tempo, 806401
1, 99984, Tempo, 811521
1, 100008, Tempo, 816897
1, 100032, Tempo, 822273
1, 100056, Tempo, 827649
1, 100080, Tempo, 833281
1, 100104, Tempo, 838913
1, 100128, Tempo, 844545
1, 100152, Tempo, 850177
1, 100176, Tempo, 856065
1, 100200, Tempo, 861953
1, 100224, Tempo, 867841
1, 100248, Tempo, 873985
1, 100272, Tempo, 880129
1, 100296, Tempo, 886529
1, 100320, Tempo, 892673
1, 100344, Tempo, 899073
1, 100368, Tempo, 905729
1, 100392, Tempo, 912385
1, 100416, Tempo, 919041
1, 100440, Tempo, 925953
1, 100464, Tempo, 932609
1, 100488, Tempo, 939777
1, 100512, Tempo, 946945
1, 100536, Tempo, 954113
1, 100560, Tempo, 961537
1, 100584, Tempo, 968961
1, 100608, Tempo, 976385
1, 100632, Tempo, 984065
1, 100656, Tempo, 992001
1, 100680, Tempo, 999937
1, 101760, End_track
2, 0, Start_track
2, 0, Control_c, 0, 7, 95
2, 0, Control_c, 0, 0, 0
2, 0, Control_c, 0, 32, 0
2, 0, Program_c, 0, 0
2, 0, Control_c, 0, 1, 0
2, 0, Control_c, 0, 10, 64
2, 0, Control_c, 0, 91, 0
2, 0, Control_c, 0, 93, 0
2, 0, Key_signature, 3, "major"
2, 0, Key_signature, 3, "major"
2, 0, Title_t, "Piano"
2, 0, Note_on_c, 0, 74, 100
2, 0, Note_on_c, 0, 42, 100
2, 456, Note_on_c, 0, 42, 0
2, 480, Note_on_c, 0, 54, 100
2, 708, Note_on_c, 0, 74, 0
2, 720, Note_on_c, 0, 73, 100
2, 948, Note_on_c, 0, 73, 0
2, 960, Note_on_c, 0, 71, 100
2, 960, Note_on_c, 0, 65, 100
2, 960, Note_on_c, 0, 62, 100
2, 1188, Note_on_c, 0, 71, 0
2, 1200, Note_on_c, 0, 73, 100
2, 1416, Note_on_c, 0, 62, 0
2, 1416, Note_on_c, 0, 54, 0
2, 1428, Note_on_c, 0, 73, 0
2, 1440, Note_on_c, 0, 74, 100
2, 1440, Note_on_c, 0, 59, 100
2, 1668, Note_on_c, 0, 74, 0
2, 1680, Note_on_c, 0, 80, 100
2, 1896, Note_on_c, 0, 59, 0
2, 1896, Note_on_c, 0, 65, 0
2, 1908, Note_on_c, 0, 80, 0
2, 1920, Note_on_c, 0, 78, 100
2, 1920, Note_on_c, 0, 66, 100
2, 1920, Note_on_c, 0, 57, 100
2, 2376, Note_on_c, 0, 57, 0
2, 2376, Note_on_c, 0, 78, 0
2, 2400, Note_on_c, 0, 78, 100
2, 2400, Note_on_c, 0, 61, 100
2, 2856, Note_on_c, 0, 66, 0
2, 2856, Note_on_c, 0, 61, 0
2, 2856, Note_on_c, 0, 78, 0
2, 2880, Note_on_c, 0, 74, 100
2, 2880, Note_on_c, 0, 42, 100
2, 3336, Note_on_c, 0, 42, 0
2, 3360, Note_on_c, 0, 54, 100
2, 3588, Note_on_c, 0, 74, 0
2, 3600, Note_on_c, 0, 73, 100
2, 3828, Note_on_c, 0, 73, 0
2, 3840, Note_on_c, 0, 71, 100
2, 3840, Note_on_c, 0, 65, 100
2, 3840, Note_on_c, 0, 62, 100
2, 4068, Note_on_c, 0, 71, 0
2, 4080, Note_on_c, 0, 73, 100
2, 4296, Note_on_c, 0, 62, 0
2, 4296, Note_on_c, 0, 54, 0
2, 4308, Note_on_c, 0, 73, 0
2, 4320, Note_on_c, 0, 74, 100
2, 4320, Note_on_c, 0, 59, 100
2, 4548, Note_on_c, 0, 74, 0
2, 4560, Note_on_c, 0, 80, 100
2, 4776, Note_on_c, 0, 59, 0
2, 4776, Note_on_c, 0, 65, 0
2, 4788, Note_on_c, 0, 80, 0
2, 4800, Note_on_c, 0, 66, 100
2, 4800, Note_on_c, 0, 57, 100
2, 4800, Note_on_c, 0, 78, 100
2, 5256, Note_on_c, 0, 57, 0
2, 5280, Note_on_c, 0, 61, 100
2, 5736, Note_on_c, 0, 61, 0
2, 5736, Note_on_c, 0, 78, 0
2, 5736, Note_on_c, 0, 66, 0
2, 5760, Note_on_c, 0, 77, 100
2, 5760, Note_on_c, 0, 46, 100
2, 5760, Note_on_c, 0, 52, 100
2, 5760, Note_on_c, 0, 54, 100
2, 5760, Note_on_c, 0, 61, 100
2, 5988, Note_on_c, 0, 77, 0
2, 6000, Note_on_c, 0, 78, 100
2, 6216, Note_on_c, 0, 61, 0
2, 6216, Note_on_c, 0, 54, 0
2, 6216, Note_on_c, 0, 52, 0
2, 6216, Note_on_c, 0, 46, 0
2, 6228, Note_on_c, 0, 78, 0
2, 6240, Note_on_c, 0, 76, 100
2, 6240, Note_on_c, 0, 47, 100
2, 6240, Note_on_c, 0, 50, 100
2, 6240, Note_on_c, 0, 54, 100
2, 6240, Note_on_c, 0, 59, 100
2, 6270, Note_on_c, 0, 78, 100
2, 6296, Note_on_c, 0, 76, 0
2, 6300, Note_on_c, 0, 76, 100
2, 6326, Note_on_c, 0, 78, 0
2, 6468, Note_on_c, 0, 76, 0
2, 6480, Note_on_c, 0, 74, 100
2, 6696, Note_on_c, 0, 59, 0
2, 6696, Note_on_c, 0, 54, 0
2, 6696, Note_on_c, 0, 50, 0
2, 6696, Note_on_c, 0, 47, 0
2, 6708, Note_on_c, 0, 74, 0
2, 6720, Note_on_c, 0, 72, 100
2, 6720, Note_on_c, 0, 49, 100
2, 6720, Note_on_c, 0, 53, 100
2, 6720, Note_on_c, 0, 59, 100
2, 6948, Note_on_c, 0, 72, 0
2, 6960, Note_on_c, 0, 73, 100
2, 7176, Note_on_c, 0, 59, 0
2, 7176, Note_on_c, 0, 53, 0
2, 7176, Note_on_c, 0, 49, 0
2, 7188, Note_on_c, 0, 73, 0
2, 7200, Note_on_c, 0, 71, 100
2, 7200, Note_on_c, 0, 50, 100
2, 7200, Note_on_c, 0, 54, 100
2, 7200, Note_on_c, 0, 59, 100
2, 7230, Note_on_c, 0, 73, 100
2, 7256, Note_on_c, 0, 71, 0
2, 7260, Note_on_c, 0, 71, 100
2, 7286, Note_on_c, 0, 73, 0
2, 7428, Note_on_c, 0, 71, 0
2, 7440, Note_on_c, 0, 69, 100
2, 7656, Note_on_c, 0, 59, 0
2, 7656, Note_on_c, 0, 54, 0
2, 7656, Note_on_c, 0, 50, 0
2, 7668, Note_on_c, 0, 69, 0
2, 7680, Note_on_c, 0, 68, 100
2, 7680, Note_on_c, 0, 47, 100
2, 7680, Note_on_c, 0, 54, 100
2, 7680, Note_on_c, 0, 62, 100
2, 7710, Note_on_c, 0, 69, 100
2, 7736, Note_on_c, 0, 68, 0
2, 7740, Note_on_c, 0, 68, 100
2, 7766, Note_on_c, 0, 69, 0
2, 7908, Note_on_c, 0, 68, 0
2, 7920, Note_on_c, 0, 66, 100
2, 8136, Note_on_c, 0, 62, 0
2, 8136, Note_on_c, 0, 54, 0
2, 8136, Note_on_c, 0, 47, 0
2, 8148, Note_on_c, 0, 66, 0
2, 8160, Note_on_c, 0, 68, 100
2, 8160, Note_on_c, 0, 49, 100
2, 8160, Note_on_c, 0, 53, 100
2, 8160, Note_on_c, 0, 59, 100
2, 8388, Note_on_c, 0, 68, 0
2, 8400, Note_on_c, 0, 73, 100
2, 8616, Note_on_c, 0, 59, 0
2, 8616, Note_on_c, 0, 53, 0
2, 8616, Note_on_c, 0, 49, 0
2, 8628, Note_on_c, 0, 73, 0
2, 8640, Note_on_c, 0, 66, 100
2, 8640, Note_on_c, 0, 57, 100
2, 8640, Note_on_c, 0, 42, 100
2, 9096, Note_on_c, 0, 42, 0
2, 9096, Note_on_c, 0, 57, 0
2, 9096, Note_on_c, 0, 66, 0
2, 9120, Note_on_c, 0, 61, 100
2, 9120, Note_on_c, 0, 69, 100
2, 9120, Note_on_c, 0, 53, 100
2, 9272, Note_on_c, 0, 53, 0
2, 9279, Note_on_c, 0, 54, 100
2, 9431, Note_on_c, 0, 54, 0
2, 9439, Note_on_c, 0, 49, 100
2, 9576, Note_on_c, 0, 69, 0
2, 9576, Note_on_c, 0, 61, 0
2, 9590, Note_on_c, 0, 49, 0
2, 9600, Note_on_c, 0, 42, 100
2, 9600, Note_on_c, 0, 66, 100
2, 9600, Note_on_c, 0, 57, 100
2, 10056, Note_on_c, 0, 57, 0
2, 10056, Note_on_c, 0, 66, 0
2, 10056, Note_on_c, 0, 42, 0
2, 10080, Note_on_c, 0, 61, 100
2, 10080, Note_on_c, 0, 69, 100
2, 10080, Note_on_c, 0, 53, 100
2, 10232, Note_on_c, 0, 53, 0
2, 10239, Note_on_c, 0, 54, 100
2, 10391, Note_on_c, 0, 54, 0
2, 10399, Note_on_c, 0, 49, 100
2, 10536, Note_on_c, 0, 69, 0
2, 10536, Note_on_c, 0, 61, 0
2, 10550, Note_on_c, 0, 49, 0
2, 10558, Note_on_c, 0, 42, 100
2, 10560, Note_on_c, 0, 66, 100
2, 10560, Note_on_c, 0, 57, 100
2, 11494, Note_on_c, 0, 42, 0
2, 11496, Note_on_c, 0, 57, 0
2, 11496, Note_on_c, 0, 66, 0
2, 11520, Control_c, 0, 7, 80
2, 11520, Note_on_c, 0, 73, 100
2, 11520, Note_on_c, 0, 69, 100
2, 11520, Note_on_c, 0, 64, 100
2, 11520, Note_on_c, 0, 57, 100
2, 11976, Note_on_c, 0, 57, 0
2, 11976, Note_on_c, 0, 64, 0
2, 11976, Note_on_c, 0, 69, 0
2, 11976, Note_on_c, 0, 73, 0
2, 12000, Note_on_c, 0, 50, 100
2, 12000, Note_on_c, 0, 62, 100
2, 12000, Note_on_c, 0, 66, 100
2, 12000, Note_on_c, 0, 71, 100
2, 12456, Note_on_c, 0, 71, 0
2, 12456, Note_on_c, 0, 66, 0
2, 12456, Note_on_c, 0, 62, 0
2, 12456, Note_on_c, 0, 50, 0
2, 12480, Note_on_c, 0, 52, 100
2, 12480, Note_on_c, 0, 62, 100
2, 12480, Note_on_c, 0, 64, 100
2, 12480, Note_on_c, 0, 68, 100
2, 13416, Note_on_c, 0, 68, 0
2, 13416, Note_on_c, 0, 64, 0
2, 13416, Note_on_c, 0, 62, 0
2, 13416, Note_on_c, 0, 52, 0
2, 13440, Note_on_c, 0, 45, 100
2, 13440, Note_on_c, 0, 61, 100
2, 13440, Note_on_c, 0, 64, 100
2, 13440, Note_on_c, 0, 69, 100
2, 14376, Note_on_c, 0, 69, 0
2, 14376, Note_on_c, 0, 64, 0
2, 14376, Note_on_c, 0, 61, 0
2, 14376, Note_on_c, 0, 45, 0
2, 14400, Note_on_c, 0, 69, 100
2, 14400, Note_on_c, 0, 66, 100
2, 14400, Note_on_c, 0, 61, 100
2, 14400, Note_on_c, 0, 54, 100
2, 14856, Note_on_c, 0, 54, 0
2, 14856, Note_on_c, 0, 61, 0
2, 14856, Note_on_c, 0, 66, 0
2, 14856, Note_on_c, 0, 69, 0
2, 14880, Note_on_c, 0, 47, 100
2, 14880, Note_on_c, 0, 62, 100
2, 14880, Note_on_c, 0, 68, 100
2, 15336, Note_on_c, 0, 68, 0
2, 15336, Note_on_c, 0, 62, 0
2, 15336, Note_on_c, 0, 47, 0
2, 15360, Note_on_c, 0, 49, 100
2, 15360, Note_on_c, 0, 61, 100
2, 15360, Note_on_c, 0, 65, 100
2, 15360, Note_on_c, 0, 68, 100
2, 15360, Note_on_c, 0, 59, 100
2, 16296, Note_on_c, 0, 59, 0
2, 16296, Note_on_c, 0, 68, 0
2, 16296, Note_on_c, 0, 65, 0
2, 16296, Note_on_c, 0, 61, 0
2, 16296, Note_on_c, 0, 49, 0
2, 16320, Note_on_c, 0, 61, 100
2, 16320, Note_on_c, 0, 66, 100
2, 16320, Note_on_c, 0, 57, 100
2, 16320, Note_on_c, 0, 42, 100
2, 16776, Note_on_c, 0, 42, 0
2, 16800, Note_on_c, 0, 54, 100
2, 17256, Note_on_c, 0, 57, 0
2, 17256, Note_on_c, 0, 66, 0
2, 17256, Note_on_c, 0, 61, 0
2, 17256, Note_on_c, 0, 54, 0
2, 17280, Note_on_c, 0, 47, 127
2, 17760, Note_on_c, 0, 66, 100
2, 17760, Note_on_c, 0, 62, 100
2, 17760, Note_on_c, 0, 56, 100
2, 17988, Note_on_c, 0, 56, 0
2, 17988, Note_on_c, 0, 62, 0
2, 17988, Note_on_c, 0, 66, 0
2, 18240, Note_on_c, 0, 66, 100
2, 18240, Note_on_c, 0, 62, 100
2, 18240, Note_on_c, 0, 56, 100
2, 18625, Note_on_c, 0, 47, 0
2, 18696, Note_on_c, 0, 56, 0
2, 18696, Note_on_c, 0, 62, 0
2, 18696, Note_on_c, 0, 66, 0
2, 18720, Note_on_c, 0, 56, 100
2, 18720, Note_on_c, 0, 62, 100
2, 18720, Note_on_c, 0, 66, 100
2, 18720, Note_on_c, 0, 45, 127
2, 18948, Note_on_c, 0, 45, 0
2, 18960, Note_on_c, 0, 47, 100
2, 19176, Note_on_c, 0, 66, 0
2, 19176, Note_on_c, 0, 62, 0
2, 19176, Note_on_c, 0, 56, 0
2, 19188, Note_on_c, 0, 47, 0
2, 19200, Note_on_c, 0, 49, 100
2, 19200, Note_on_c, 0, 57, 100
2, 19200, Note_on_c, 0, 61, 100
2, 19200, Note_on_c, 0, 66, 100
2, 19656, Note_on_c, 0, 66, 0
2, 19656, Note_on_c, 0, 61, 0
2, 19656, Note_on_c, 0, 57, 0
2, 19680, Note_on_c, 0, 66, 100
2, 19680, Note_on_c, 0, 61, 100
2, 19680, Note_on_c, 0, 57, 100
2, 20136, Note_on_c, 0, 57, 0
2, 20136, Note_on_c, 0, 61, 0
2, 20136, Note_on_c, 0, 66, 0
2, 20136, Note_on_c, 0, 49, 0
2, 20160, Note_on_c, 0, 50, 127
2, 20640, Note_on_c, 0, 66, 100
2, 20640, Note_on_c, 0, 59, 100
2, 20640, Note_on_c, 0, 56, 100
2, 21096, Note_on_c, 0, 56, 0
2, 21096, Note_on_c, 0, 59, 0
2, 21096, Note_on_c, 0, 66, 0
2, 21120, Note_on_c, 0, 56, 100
2, 21120, Note_on_c, 0, 59, 100
2, 21120, Note_on_c, 0, 66, 100
2, 21576, Note_on_c, 0, 66, 0
2, 21576, Note_on_c, 0, 59, 0
2, 21576, Note_on_c, 0, 56, 0
2, 21576, Note_on_c, 0, 50, 0
2, 21600, Note_on_c, 0, 56, 100
2, 21600, Note_on_c, 0, 59, 100
2, 21600, Note_on_c, 0, 66, 100
2, 21600, Note_on_c, 0, 49, 100
2, 21828, Note_on_c, 0, 49, 0
2, 21840, Note_on_c, 0, 50, 100
2, 22056, Note_on_c, 0, 66, 0
2, 22056, Note_on_c, 0, 59, 0
2, 22056, Note_on_c, 0, 56, 0
2, 22068, Note_on_c, 0, 50, 0
2, 22080, Note_on_c, 0, 56, 100
2, 22080, Note_on_c, 0, 60, 100
2, 22080, Note_on_c, 0, 66, 100
2, 22080, Note_on_c, 0, 51, 100
2, 22536, Note_on_c, 0, 51, 0
2, 22536, Note_on_c, 0, 66, 0
2, 22536, Note_on_c, 0, 60, 0
2, 22536, Note_on_c, 0, 56, 0
2, 22560, Note_on_c, 0, 66, 100
2, 22560, Note_on_c, 0, 60, 100
2, 22560, Note_on_c, 0, 56, 100
2, 22560, Note_on_c, 0, 44, 100
2, 23016, Note_on_c, 0, 44, 0
2, 23016, Note_on_c, 0, 56, 0
2, 23016, Note_on_c, 0, 60, 0
2, 23016, Note_on_c, 0, 66, 0
2, 23040, Note_on_c, 0, 49, 100
2, 23040, Note_on_c, 0, 56, 100
2, 23040, Note_on_c, 0, 59, 100
2, 23040, Note_on_c, 0, 61, 100
2, 23040, Note_on_c, 0, 66, 100
2, 23496, Note_on_c, 0, 66, 0
2, 23520, Note_on_c, 0, 65, 100
2, 23976, Note_on_c, 0, 65, 0
2, 23976, Note_on_c, 0, 61, 0
2, 23976, Note_on_c, 0, 59, 0
2, 23976, Note_on_c, 0, 56, 0
2, 23976, Note_on_c, 0, 49, 0
2, 24000, Note_on_c, 0, 66, 100
2, 24000, Note_on_c, 0, 61, 100
2, 24000, Note_on_c, 0, 57, 100
2, 24000, Note_on_c, 0, 42, 100
2, 24456, Note_on_c, 0, 42, 0
2, 24456, Note_on_c, 0, 57, 0
2, 24456, Note_on_c, 0, 61, 0
2, 24456, Note_on_c, 0, 66, 0
2, 24480, Note_on_c, 0, 73, 100
2, 24708, Note_on_c, 0, 73, 0
2, 24720, Note_on_c, 0, 71, 100
2, 24948, Note_on_c, 0, 71, 0
2, 24960, Note_on_c, 0, 69, 100
2, 25112, Note_on_c, 0, 69, 0
2, 25119, Note_on_c, 0, 73, 100
2, 25271, Note_on_c, 0, 73, 0
2, 25279, Note_on_c, 0, 68, 100
2, 25430, Note_on_c, 0, 68, 0
2, 25440, Note_on_c, 0, 66, 100
2, 25592, Note_on_c, 0, 66, 0
2, 25599, Note_on_c, 0, 73, 100
2, 25751, Note_on_c, 0, 73, 0
2, 25759, Note_on_c, 0, 69, 100
2, 25910, Note_on_c, 0, 69, 0
2, 25920, Note_on_c, 0, 73, 100
2, 25920, Note_on_c, 0, 69, 100
2, 25920, Note_on_c, 0, 64, 100
2, 25920, Note_on_c, 0, 57, 100
2, 26376, Note_on_c, 0, 57, 0
2, 26376, Note_on_c, 0, 64, 0
2, 26376, Note_on_c, 0, 69, 0
2, 26376, Note_on_c, 0, 73, 0
2, 26400, Note_on_c, 0, 50, 100
2, 26400, Note_on_c, 0, 62, 100
2, 26400, Note_on_c, 0, 66, 100
2, 26400, Note_on_c, 0, 71, 100
2, 26856, Note_on_c, 0, 71, 0
2, 26856, Note_on_c, 0, 66, 0
2, 26856, Note_on_c, 0, 62, 0
2, 26856, Note_on_c, 0, 50, 0
2, 26880, Note_on_c, 0, 52, 100
2, 26880, Note_on_c, 0, 62, 100
2, 26880, Note_on_c, 0, 64, 100
2, 26880, Note_on_c, 0, 68, 100
2, 27816, Note_on_c, 0, 68, 0
2, 27816, Note_on_c, 0, 64, 0
2, 27816, Note_on_c, 0, 62, 0
2, 27816, Note_on_c, 0, 52, 0
2, 27840, Note_on_c, 0, 45, 100
2, 27840, Note_on_c, 0, 61, 100
2, 27840, Note_on_c, 0, 64, 100
2, 27840, Note_on_c, 0, 69, 100
2, 28776, Note_on_c, 0, 69, 0
2, 28776, Note_on_c, 0, 64, 0
2, 28776, Note_on_c, 0, 61, 0
2, 28776, Note_on_c, 0, 45, 0
2, 28800, Note_on_c, 0, 54, 100
2, 28800, Note_on_c, 0, 69, 100
2, 28800, Note_on_c, 0, 66, 100
2, 28800, Note_on_c, 0, 61, 100
2, 29256, Note_on_c, 0, 61, 0
2, 29256, Note_on_c, 0, 66, 0
2, 29256, Note_on_c, 0, 69, 0
2, 29256, Note_on_c, 0, 54, 0
2, 29280, Note_on_c, 0, 47, 100
2, 29280, Note_on_c, 0, 62, 100
2, 29280, Note_on_c, 0, 68, 100
2, 29736, Note_on_c, 0, 68, 0
2, 29736, Note_on_c, 0, 62, 0
2, 29736, Note_on_c, 0, 47, 0
2, 29760, Note_on_c, 0, 49, 100
2, 29760, Note_on_c, 0, 61, 100
2, 29760, Note_on_c, 0, 65, 100
2, 29760, Note_on_c, 0, 68, 100
2, 29760, Note_on_c, 0, 59, 100
2, 30696, Note_on_c, 0, 59, 0
2, 30696, Note_on_c, 0, 68, 0
2, 30696, Note_on_c, 0, 65, 0
2, 30696, Note_on_c, 0, 61, 0
2, 30696, Note_on_c, 0, 49, 0
2, 30720, Note_on_c, 0, 61, 100
2, 30720, Note_on_c, 0, 66, 100
2, 30720, Note_on_c, 0, 57, 100
2, 30720, Note_on_c, 0, 42, 100
2, 31176, Note_on_c, 0, 42, 0
2, 31200, Note_on_c, 0, 54, 100
2, 31656, Note_on_c, 0, 57, 0
2, 31656, Note_on_c, 0, 66, 0
2, 31656, Note_on_c, 0, 61, 0
2, 31656, Note_on_c, 0, 54, 0
2, 31680, Note_on_c, 0, 48, 100
2, 31680, Note_on_c, 0, 56, 100
2, 31680, Note_on_c, 0, 63, 100
2, 31680, Note_on_c, 0, 66, 100
2, 32136, Note_on_c, 0, 66, 0
2, 32136, Note_on_c, 0, 63, 0
2, 32136, Note_on_c, 0, 56, 0
2, 32160, Note_on_c, 0, 56, 100
2, 32160, Note_on_c, 0, 63, 100
2, 32160, Note_on_c, 0, 66, 100
2, 32616, Note_on_c, 0, 66, 0
2, 32616, Note_on_c, 0, 63, 0
2, 32616, Note_on_c, 0, 56, 0
2, 32616, Note_on_c, 0, 48, 0
2, 32640, Note_on_c, 0, 47, 100
2, 32640, Note_on_c, 0, 56, 100
2, 32640, Note_on_c, 0, 62, 100
2, 32640, Note_on_c, 0, 65, 100
2, 33096, Note_on_c, 0, 65, 0
2, 33096, Note_on_c, 0, 62, 0
2, 33096, Note_on_c, 0, 56, 0
2, 33120, Note_on_c, 0, 56, 100
2, 33120, Note_on_c, 0, 62, 100
2, 33120, Note_on_c, 0, 64, 100
2, 33576, Note_on_c, 0, 64, 0
2, 33576, Note_on_c, 0, 62, 0
2, 33576, Note_on_c, 0, 56, 0
2, 33576, Note_on_c, 0, 47, 0
2, 33600, Note_on_c, 0, 45, 100
2, 33600, Note_on_c, 0, 57, 100
2, 33600, Note_on_c, 0, 61, 100
2, 33600, Note_on_c, 0, 64, 100
2, 34056, Note_on_c, 0, 64, 0
2, 34056, Note_on_c, 0, 61, 0
2, 34056, Note_on_c, 0, 57, 0
2, 34080, Note_on_c, 0, 69, 100
2, 34080, Note_on_c, 0, 61, 100
2, 34080, Note_on_c, 0, 64, 100
2, 34536, Note_on_c, 0, 64, 0
2, 34536, Note_on_c, 0, 61, 0
2, 34536, Note_on_c, 0, 69, 0
2, 34536, Note_on_c, 0, 45, 0
2, 34560, Note_on_c, 0, 47, 100
2, 34560, Note_on_c, 0, 62, 100
2, 34560, Note_on_c, 0, 67, 100
2, 34788, Note_on_c, 0, 67, 0
2, 34788, Note_on_c, 0, 62, 0
2, 34800, Note_on_c, 0, 59, 100
2, 35028, Note_on_c, 0, 59, 0
2, 35040, Note_on_c, 0, 62, 100
2, 35040, Note_on_c, 0, 67, 100
2, 35268, Note_on_c, 0, 67, 0
2, 35268, Note_on_c, 0, 62, 0
2, 35280, Note_on_c, 0, 59, 100
2, 35496, Note_on_c, 0, 47, 0
2, 35508, Note_on_c, 0, 59, 0
2, 35520, Note_on_c, 0, 49, 100
2, 35520, Note_on_c, 0, 61, 100
2, 35520, Note_on_c, 0, 66, 100
2, 35560, Control_c, 0, 7, 81
2, 35620, Control_c, 0, 7, 82
2, 35680, Control_c, 0, 7, 83
2, 35720, Control_c, 0, 7, 84
2, 35748, Note_on_c, 0, 66, 0
2, 35748, Note_on_c, 0, 61, 0
2, 35760, Note_on_c, 0, 56, 100
2, 35780, Control_c, 0, 7, 85
2, 35840, Control_c, 0, 7, 86
2, 35900, Control_c, 0, 7, 87
2, 35960, Control_c, 0, 7, 88
2, 35988, Note_on_c, 0, 56, 0
2, 36000, Control_c, 0, 7, 89
2, 36000, Note_on_c, 0, 61, 100
2, 36000, Note_on_c, 0, 65, 100
2, 36000, Note_on_c, 0, 37, 100
2, 36060, Control_c, 0, 7, 90
2, 36120, Control_c, 0, 7, 91
2, 36180, Control_c, 0, 7, 92
2, 36228, Note_on_c, 0, 65, 0
2, 36228, Note_on_c, 0, 61, 0
2, 36240, Control_c, 0, 7, 93
2, 36240, Note_on_c, 0, 56, 100
2, 36280, Control_c, 0, 7, 94
2, 36340, Control_c, 0, 7, 95
2, 36456, Note_on_c, 0, 49, 0
2, 36456, Note_on_c, 0, 37, 0
2, 36468, Note_on_c, 0, 56, 0
2, 36480, Note_on_c, 0, 63, 100
2, 36480, Note_on_c, 0, 68, 100
2, 36480, Note_on_c, 0, 48, 100
2, 36480, Note_on_c, 0, 36, 100
2, 36480, Note_on_c, 0, 66, 100
2, 36520, Control_c, 0, 7, 94
2, 36580, Control_c, 0, 7, 93
2, 36640, Control_c, 0, 7, 92
2, 36680, Control_c, 0, 7, 91
2, 36708, Note_on_c, 0, 66, 0
2, 36708, Note_on_c, 0, 68, 0
2, 36708, Note_on_c, 0, 63, 0
2, 36720, Note_on_c, 0, 56, 100
2, 36740, Control_c, 0, 7, 90
2, 36800, Control_c, 0, 7, 89
2, 36860, Control_c, 0, 7, 88
2, 36920, Control_c, 0, 7, 87
2, 36948, Note_on_c, 0, 56, 0
2, 36960, Control_c, 0, 7, 86
2, 36960, Note_on_c, 0, 63, 100
2, 36960, Note_on_c, 0, 66, 100
2, 36960, Note_on_c, 0, 68, 100
2, 37020, Control_c, 0, 7, 85
2, 37080, Control_c, 0, 7, 84
2, 37140, Control_c, 0, 7, 83
2, 37188, Note_on_c, 0, 68, 0
2, 37188, Note_on_c, 0, 66, 0
2, 37188, Note_on_c, 0, 63, 0
2, 37200, Control_c, 0, 7, 82
2, 37200, Note_on_c, 0, 56, 100
2, 37240, Control_c, 0, 7, 81
2, 37300, Control_c, 0, 7, 80
2, 37416, Note_on_c, 0, 36, 0
2, 37416, Note_on_c, 0, 48, 0
2, 37428, Note_on_c, 0, 56, 0
2, 37440, Note_on_c, 0, 63, 100
2, 37440, Note_on_c, 0, 68, 100
2, 37440, Note_on_c, 0, 66, 100
2, 37440, Note_on_c, 0, 48, 100
2, 37440, Note_on_c, 0, 36, 100
2, 37668, Note_on_c, 0, 66, 0
2, 37668, Note_on_c, 0, 68, 0
2, 37668, Note_on_c, 0, 63, 0
2, 37680, Note_on_c, 0, 56, 100
2, 37908, Note_on_c, 0, 56, 0
2, 37920, Note_on_c, 0, 63, 100
2, 37920, Note_on_c, 0, 66, 100
2, 37920, Note_on_c, 0, 68, 100
2, 38148, Note_on_c, 0, 68, 0
2, 38148, Note_on_c, 0, 66, 0
2, 38148, Note_on_c, 0, 63, 0
2, 38160, Note_on_c, 0, 56, 100
2, 38376, Note_on_c, 0, 36, 0
2, 38376, Note_on_c, 0, 48, 0
2, 38388, Note_on_c, 0, 56, 0
2, 38400, Note_on_c, 0, 62, 100
2, 38400, Note_on_c, 0, 68, 100
2, 38400, Note_on_c, 0, 65, 100
2, 38400, Note_on_c, 0, 47, 100
2, 38400, Note_on_c, 0, 35, 100
2, 38628, Note_on_c, 0, 65, 0
2, 38628, Note_on_c, 0, 68, 0
2, 38628, Note_on_c, 0, 62, 0
2, 38640, Note_on_c, 0, 56, 100
2, 38856, Note_on_c, 0, 35, 0
2, 38856, Note_on_c, 0, 47, 0
2, 38868, Note_on_c, 0, 56, 0
2, 38880, Note_on_c, 0, 62, 100
2, 38880, Note_on_c, 0, 65, 100
2, 38880, Note_on_c, 0, 68, 100
2, 38880, Note_on_c, 0, 40, 100
2, 39108, Note_on_c, 0, 68, 0
2, 39108, Note_on_c, 0, 65, 0
2, 39108, Note_on_c, 0, 62, 0
2, 39120, Note_on_c, 0, 56, 100
2, 39336, Note_on_c, 0, 40, 0
2, 39348, Note_on_c, 0, 56, 0
2, 39360, Note_on_c, 0, 61, 100
2, 39360, Note_on_c, 0, 69, 100
2, 39360, Note_on_c, 0, 64, 100
2, 39360, Note_on_c, 0, 45, 100
2, 39360, Note_on_c, 0, 33, 100
2, 39588, Note_on_c, 0, 64, 0
2, 39588, Note_on_c, 0, 69, 0
2, 39588, Note_on_c, 0, 61, 0
2, 39600, Note_on_c, 0, 57, 100
2, 39828, Note_on_c, 0, 57, 0
2, 39840, Note_on_c, 0, 61, 100
2, 39840, Note_on_c, 0, 64, 100
2, 39840, Note_on_c, 0, 69, 100
2, 40068, Note_on_c, 0, 69, 0
2, 40068, Note_on_c, 0, 64, 0
2, 40068, Note_on_c, 0, 61, 0
2, 40080, Note_on_c, 0, 57, 100
2, 40296, Note_on_c, 0, 33, 0
2, 40296, Note_on_c, 0, 45, 0
2, 40308, Note_on_c, 0, 57, 0
2, 40320, Note_on_c, 0, 68, 100
2, 40320, Note_on_c, 0, 62, 100
2, 40320, Note_on_c, 0, 47, 100
2, 40320, Note_on_c, 0, 35, 100
2, 40548, Note_on_c, 0, 62, 0
2, 40548, Note_on_c, 0, 68, 0
2, 40560, Note_on_c, 0, 59, 100
2, 40788, Note_on_c, 0, 59, 0
2, 40800, Note_on_c, 0, 62, 100
2, 40800, Note_on_c, 0, 68, 100
2, 41028, Note_on_c, 0, 68, 0
2, 41028, Note_on_c, 0, 62, 0
2, 41040, Note_on_c, 0, 59, 100
2, 41256, Note_on_c, 0, 35, 0
2, 41256, Note_on_c, 0, 47, 0
2, 41268, Note_on_c, 0, 59, 0
2, 41280, Note_on_c, 0, 61, 100
2, 41280, Note_on_c, 0, 69, 100
2, 41280, Note_on_c, 0, 66, 100
2, 41280, Note_on_c, 0, 49, 100
2, 41280, Note_on_c, 0, 37, 100
2, 41508, Note_on_c, 0, 66, 0
2, 41508, Note_on_c, 0, 69, 0
2, 41508, Note_on_c, 0, 61, 0
2, 41520, Note_on_c, 0, 57, 100
2, 41748, Note_on_c, 0, 57, 0
2, 41760, Note_on_c, 0, 61, 100
2, 41760, Note_on_c, 0, 66, 100
2, 41760, Note_on_c, 0, 69, 100
2, 41988, Note_on_c, 0, 69, 0
2, 41988, Note_on_c, 0, 66, 0
2, 41988, Note_on_c, 0, 61, 0
2, 42000, Note_on_c, 0, 57, 100
2, 42216, Note_on_c, 0, 37, 0
2, 42216, Note_on_c, 0, 49, 0
2, 42228, Note_on_c, 0, 57, 0
2, 42240, Note_on_c, 0, 61, 100
2, 42240, Note_on_c, 0, 65, 100
2, 42240, Note_on_c, 0, 49, 100
2, 42240, Note_on_c, 0, 37, 100
2, 42468, Note_on_c, 0, 65, 0
2, 42468, Note_on_c, 0, 61, 0
2, 42480, Note_on_c, 0, 59, 100
2, 42708, Note_on_c, 0, 59, 0
2, 42720, Note_on_c, 0, 61, 100
2, 42720, Note_on_c, 0, 65, 100
2, 42948, Note_on_c, 0, 65, 0
2, 42948, Note_on_c, 0, 61, 0
2, 42960, Note_on_c, 0, 59, 100
2, 43176, Note_on_c, 0, 37, 0
2, 43176, Note_on_c, 0, 49, 0
2, 43188, Note_on_c, 0, 59, 0
2, 43200, Note_on_c, 0, 42, 100
2, 43200, Note_on_c, 0, 57, 100
2, 43200, Note_on_c, 0, 61, 100
2, 43200, Note_on_c, 0, 66, 100
2, 43220, Control_c, 0, 7, 79
2, 43240, Control_c, 0, 7, 78
2, 43260, Control_c, 0, 7, 77
2, 43280, Control_c, 0, 7, 76
2, 43300, Control_c, 0, 7, 75
2, 43320, Control_c, 0, 7, 74
2, 43340, Control_c, 0, 7, 73
2, 43360, Control_c, 0, 7, 72
2, 43380, Control_c, 0, 7, 71
2, 43400, Control_c, 0, 7, 70
2, 43440, Control_c, 0, 7, 69
2, 43460, Control_c, 0, 7, 68
2, 43480, Control_c, 0, 7, 67
2, 43500, Control_c, 0, 7, 66
2, 43520, Control_c, 0, 7, 65
2, 43540, Control_c, 0, 7, 64
2, 43560, Control_c, 0, 7, 63
2, 43580, Control_c, 0, 7, 62
2, 43600, Control_c, 0, 7, 61
2, 43620, Control_c, 0, 7, 60
2, 43640, Control_c, 0, 7, 59
2, 43660, Control_c, 0, 7, 58
2, 43680, Control_c, 0, 7, 57
2, 43700, Control_c, 0, 7, 56
2, 43720, Control_c, 0, 7, 55
2, 43740, Control_c, 0, 7, 54
2, 43760, Control_c, 0, 7, 53
2, 43780, Control_c, 0, 7, 52
2, 43800, Control_c, 0, 7, 51
2, 43820, Control_c, 0, 7, 50
2, 43860, Control_c, 0, 7, 49
2, 43880, Control_c, 0, 7, 48
2, 43900, Control_c, 0, 7, 47
2, 43920, Control_c, 0, 7, 46
2, 43940, Control_c, 0, 7, 45
2, 43960, Control_c, 0, 7, 44
2, 43980, Control_c, 0, 7, 43
2, 44000, Control_c, 0, 7, 42
2, 44020, Control_c, 0, 7, 41
2, 44040, Control_c, 0, 7, 40
2, 44616, Note_on_c, 0, 66, 0
2, 44616, Note_on_c, 0, 61, 0
2, 44616, Note_on_c, 0, 57, 0
2, 44616, Note_on_c, 0, 42, 0
2, 45120, Control_c, 0, 7, 95
2, 45120, Control_c, 0, 0, 0
2, 45120, Control_c, 0, 32, 0
2, 45120, Program_c, 0, 0
2, 45120, Control_c, 0, 1, 0
2, 45120, Control_c, 0, 10, 64
2, 45120, Control_c, 0, 91, 0
2, 45120, Control_c, 0, 93, 0
2, 45120, Key_signature, 3, "major"
2, 45120, Key_signature, 3, "major"
2, 45120, Note_on_c, 0, 74, 100
2, 45120, Note_on_c, 0, 42, 100
2, 45576, Note_on_c, 0, 42, 0
2, 45600, Note_on_c, 0, 54, 100
2, 45828, Note_on_c, 0, 74, 0
2, 45840, Note_on_c, 0, 73, 100
2, 46068, Note_on_c, 0, 73, 0
2, 46080, Note_on_c, 0, 71, 100
2, 46080, Note_on_c, 0, 65, 100
2, 46080, Note_on_c, 0, 62, 100
2, 46308, Note_on_c, 0, 71, 0
2, 46320, Note_on_c, 0, 73, 100
2, 46536, Note_on_c, 0, 62, 0
2, 46536, Note_on_c, 0, 54, 0
2, 46548, Note_on_c, 0, 73, 0
2, 46560, Note_on_c, 0, 74, 100
2, 46560, Note_on_c, 0, 59, 100
2, 46788, Note_on_c, 0, 74, 0
2, 46800, Note_on_c, 0, 80, 100
2, 47016, Note_on_c, 0, 59, 0
2, 47016, Note_on_c, 0, 65, 0
2, 47028, Note_on_c, 0, 80, 0
2, 47040, Note_on_c, 0, 78, 100
2, 47040, Note_on_c, 0, 66, 100
2, 47040, Note_on_c, 0, 57, 100
2, 47496, Note_on_c, 0, 57, 0
2, 47496, Note_on_c, 0, 78, 0
2, 47520, Note_on_c, 0, 78, 100
2, 47520, Note_on_c, 0, 61, 100
2, 47976, Note_on_c, 0, 61, 0
2, 47976, Note_on_c, 0, 78, 0
2, 47976, Note_on_c, 0, 66, 0
2, 48000, Note_on_c, 0, 74, 100
2, 48000, Note_on_c, 0, 42, 100
2, 48456, Note_on_c, 0, 42, 0
2, 48480, Note_on_c, 0, 54, 100
2, 48708, Note_on_c, 0, 74, 0
2, 48720, Note_on_c, 0, 73, 100
2, 48948, Note_on_c, 0, 73, 0
2, 48960, Note_on_c, 0, 71, 100
2, 48960, Note_on_c, 0, 65, 100
2, 48960, Note_on_c, 0, 62, 100
2, 49188, Note_on_c, 0, 71, 0
2, 49200, Note_on_c, 0, 73, 100
2, 49416, Note_on_c, 0, 62, 0
2, 49416, Note_on_c, 0, 54, 0
2, 49428, Note_on_c, 0, 73, 0
2, 49440, Note_on_c, 0, 74, 100
2, 49440, Note_on_c, 0, 59, 100
2, 49668, Note_on_c, 0, 74, 0
2, 49680, Note_on_c, 0, 80, 100
2, 49896, Note_on_c, 0, 59, 0
2, 49896, Note_on_c, 0, 65, 0
2, 49908, Note_on_c, 0, 80, 0
2, 49920, Note_on_c, 0, 66, 100
2, 49920, Note_on_c, 0, 57, 100
2, 49920, Note_on_c, 0, 78, 100
2, 50376, Note_on_c, 0, 57, 0
2, 50400, Note_on_c, 0, 61, 100
2, 50856, Note_on_c, 0, 78, 0
2, 50856, Note_on_c, 0, 66, 0
2, 50856, Note_on_c, 0, 61, 0
2, 50880, Note_on_c, 0, 77, 100
2, 50880, Note_on_c, 0, 46, 100
2, 50880, Note_on_c, 0, 52, 100
2, 50880, Note_on_c, 0, 54, 100
2, 50880, Note_on_c, 0, 61, 100
2, 51108, Note_on_c, 0, 77, 0
2, 51120, Note_on_c, 0, 78, 100
2, 51336, Note_on_c, 0, 61, 0
2, 51336, Note_on_c, 0, 54, 0
2, 51336, Note_on_c, 0, 52, 0
2, 51336, Note_on_c, 0, 46, 0
2, 51348, Note_on_c, 0, 78, 0
2, 51360, Note_on_c, 0, 76, 100
2, 51360, Note_on_c, 0, 47, 100
2, 51360, Note_on_c, 0, 50, 100
2, 51360, Note_on_c, 0, 54, 100
2, 51360, Note_on_c, 0, 59, 100
2, 51390, Note_on_c, 0, 78, 100
2, 51416, Note_on_c, 0, 76, 0
2, 51420, Note_on_c, 0, 76, 100
2, 51446, Note_on_c, 0, 78, 0
2, 51588, Note_on_c, 0, 76, 0
2, 51600, Note_on_c, 0, 74, 100
2, 51816, Note_on_c, 0, 59, 0
2, 51816, Note_on_c, 0, 54, 0
2, 51816, Note_on_c, 0, 50, 0
2, 51816, Note_on_c, 0, 47, 0
2, 51828, Note_on_c, 0, 74, 0
2, 51840, Note_on_c, 0, 72, 100
2, 51840, Note_on_c, 0, 49, 100
2, 51840, Note_on_c, 0, 53, 100
2, 51840, Note_on_c, 0, 59, 100
2, 52068, Note_on_c, 0, 72, 0
2, 52080, Note_on_c, 0, 73, 100
2, 52296, Note_on_c, 0, 59, 0
2, 52296, Note_on_c, 0, 53, 0
2, 52296, Note_on_c, 0, 49, 0
2, 52308, Note_on_c, 0, 73, 0
2, 52320, Note_on_c, 0, 71, 100
2, 52320, Note_on_c, 0, 50, 100
2, 52320, Note_on_c, 0, 54, 100
2, 52320, Note_on_c, 0, 59, 100
2, 52350, Note_on_c, 0, 73, 100
2, 52376, Note_on_c, 0, 71, 0
2, 52380, Note_on_c, 0, 71, 100
2, 52406, Note_on_c, 0, 73, 0
2, 52548, Note_on_c, 0, 71, 0
2, 52560, Note_on_c, 0, 69, 100
2, 52776, Note_on_c, 0, 59, 0
2, 52776, Note_on_c, 0, 54, 0
2, 52776, Note_on_c, 0, 50, 0
2, 52788, Note_on_c, 0, 69, 0
2, 52800, Note_on_c, 0, 68, 100
2, 52800, Note_on_c, 0, 47, 100
2, 52800, Note_on_c, 0, 54, 100
2, 52800, Note_on_c, 0, 62, 100
2, 52830, Note_on_c, 0, 69, 100
2, 52856, Note_on_c, 0, 68, 0
2, 52860, Note_on_c, 0, 68, 100
2, 52886, Note_on_c, 0, 69, 0
2, 53028, Note_on_c, 0, 68, 0
2, 53040, Note_on_c, 0, 66, 100
2, 53256, Note_on_c, 0, 62, 0
2, 53256, Note_on_c, 0, 54, 0
2, 53256, Note_on_c, 0, 47, 0
2, 53268, Note_on_c, 0, 66, 0
2, 53280, Note_on_c, 0, 68, 100
2, 53280, Note_on_c, 0, 49, 100
2, 53280, Note_on_c, 0, 53, 100
2, 53280, Note_on_c, 0, 59, 100
2, 53508, Note_on_c, 0, 68, 0
2, 53520, Note_on_c, 0, 73, 100
2, 53736, Note_on_c, 0, 59, 0
2, 53736, Note_on_c, 0, 53, 0
2, 53736, Note_on_c, 0, 49, 0
2, 53748, Note_on_c, 0, 73, 0
2, 53760, Note_on_c, 0, 66, 100
2, 53760, Note_on_c, 0, 57, 100
2, 53760, Note_on_c, 0, 42, 100
2, 54216, Note_on_c, 0, 42, 0
2, 54216, Note_on_c, 0, 57, 0
2, 54216, Note_on_c, 0, 66, 0
2, 54240, Note_on_c, 0, 61, 100
2, 54240, Note_on_c, 0, 69, 100
2, 54240, Note_on_c, 0, 53, 100
2, 54392, Note_on_c, 0, 53, 0
2, 54399, Note_on_c, 0, 54, 100
2, 54551, Note_on_c, 0, 54, 0
2, 54559, Note_on_c, 0, 49, 100
2, 54696, Note_on_c, 0, 69, 0
2, 54696, Note_on_c, 0, 61, 0
2, 54710, Note_on_c, 0, 49, 0
2, 54720, Note_on_c, 0, 42, 100
2, 54720, Note_on_c, 0, 66, 100
2, 54720, Note_on_c, 0, 57, 100
2, 55176, Note_on_c, 0, 57, 0
2, 55176, Note_on_c, 0, 66, 0
2, 55176, Note_on_c, 0, 42, 0
2, 55200, Note_on_c, 0, 61, 100
2, 55200, Note_on_c, 0, 69, 100
2, 55200, Note_on_c, 0, 53, 100
2, 55352, Note_on_c, 0, 53, 0
2, 55359, Note_on_c, 0, 54, 100
2, 55511, Note_on_c, 0, 54, 0
2, 55519, Note_on_c, 0, 49, 100
2, 55656, Note_on_c, 0, 69, 0
2, 55656, Note_on_c, 0, 61, 0
2, 55670, Note_on_c, 0, 49, 0
2, 55678, Note_on_c, 0, 42, 100
2, 55680, Note_on_c, 0, 66, 100
2, 55680, Note_on_c, 0, 57, 100
2, 56614, Note_on_c, 0, 42, 0
2, 56616, Note_on_c, 0, 57, 0
2, 56616, Note_on_c, 0, 66, 0
2, 56640, Control_c, 0, 7, 80
2, 56640, Note_on_c, 0, 73, 100
2, 56640, Note_on_c, 0, 69, 100
2, 56640, Note_on_c, 0, 64, 100
2, 56640, Note_on_c, 0, 57, 100
2, 57096, Note_on_c, 0, 57, 0
2, 57096, Note_on_c, 0, 64, 0
2, 57096, Note_on_c, 0, 69, 0
2, 57096, Note_on_c, 0, 73, 0
2, 57120, Note_on_c, 0, 50, 100
2, 57120, Note_on_c, 0, 62, 100
2, 57120, Note_on_c, 0, 66, 100
2, 57120, Note_on_c, 0, 71, 100
2, 57576, Note_on_c, 0, 71, 0
2, 57576, Note_on_c, 0, 66, 0
2, 57576, Note_on_c, 0, 62, 0
2, 57576, Note_on_c, 0, 50, 0
2, 57600, Note_on_c, 0, 52, 100
2, 57600, Note_on_c, 0, 62, 100
2, 57600, Note_on_c, 0, 64, 100
2, 57600, Note_on_c, 0, 68, 100
2, 58536, Note_on_c, 0, 68, 0
2, 58536, Note_on_c, 0, 64, 0
2, 58536, Note_on_c, 0, 62, 0
2, 58536, Note_on_c, 0, 52, 0
2, 58560, Note_on_c, 0, 45, 100
2, 58560, Note_on_c, 0, 61, 100
2, 58560, Note_on_c, 0, 64, 100
2, 58560, Note_on_c, 0, 69, 100
2, 59496, Note_on_c, 0, 69, 0
2, 59496, Note_on_c, 0, 64, 0
2, 59496, Note_on_c, 0, 61, 0
2, 59496, Note_on_c, 0, 45, 0
2, 59520, Note_on_c, 0, 69, 100
2, 59520, Note_on_c, 0, 66, 100
2, 59520, Note_on_c, 0, 61, 100
2, 59520, Note_on_c, 0, 54, 100
2, 59976, Note_on_c, 0, 54, 0
2, 59976, Note_on_c, 0, 61, 0
2, 59976, Note_on_c, 0, 66, 0
2, 59976, Note_on_c, 0, 69, 0
2, 60000, Note_on_c, 0, 47, 100
2, 60000, Note_on_c, 0, 62, 100
2, 60000, Note_on_c, 0, 68, 100
2, 60456, Note_on_c, 0, 68, 0
2, 60456, Note_on_c, 0, 62, 0
2, 60456, Note_on_c, 0, 47, 0
2, 60480, Note_on_c, 0, 49, 100
2, 60480, Note_on_c, 0, 61, 100
2, 60480, Note_on_c, 0, 65, 100
2, 60480, Note_on_c, 0, 68, 100
2, 60480, Note_on_c, 0, 59, 100
2, 61416, Note_on_c, 0, 59, 0
2, 61416, Note_on_c, 0, 68, 0
2, 61416, Note_on_c, 0, 65, 0
2, 61416, Note_on_c, 0, 61, 0
2, 61416, Note_on_c, 0, 49, 0
2, 61440, Note_on_c, 0, 61, 100
2, 61440, Note_on_c, 0, 66, 100
2, 61440, Note_on_c, 0, 57, 100
2, 61440, Note_on_c, 0, 42, 100
2, 61896, Note_on_c, 0, 42, 0
2, 61920, Note_on_c, 0, 54, 100
2, 62376, Note_on_c, 0, 54, 0
2, 62376, Note_on_c, 0, 57, 0
2, 62376, Note_on_c, 0, 66, 0
2, 62376, Note_on_c, 0, 61, 0
2, 62400, Note_on_c, 0, 47, 127
2, 62880, Note_on_c, 0, 66, 100
2, 62880, Note_on_c, 0, 62, 100
2, 62880, Note_on_c, 0, 56, 100
2, 63108, Note_on_c, 0, 56, 0
2, 63108, Note_on_c, 0, 62, 0
2, 63108, Note_on_c, 0, 66, 0
2, 63360, Note_on_c, 0, 66, 100
2, 63360, Note_on_c, 0, 62, 100
2, 63360, Note_on_c, 0, 56, 100
2, 63745, Note_on_c, 0, 47, 0
2, 63816, Note_on_c, 0, 56, 0
2, 63816, Note_on_c, 0, 62, 0
2, 63816, Note_on_c, 0, 66, 0
2, 63840, Note_on_c, 0, 56, 100
2, 63840, Note_on_c, 0, 62, 100
2, 63840, Note_on_c, 0, 66, 100
2, 63840, Note_on_c, 0, 45, 127
2, 64068, Note_on_c, 0, 45, 0
2, 64080, Note_on_c, 0, 47, 100
2, 64296, Note_on_c, 0, 66, 0
2, 64296, Note_on_c, 0, 62, 0
2, 64296, Note_on_c, 0, 56, 0
2, 64308, Note_on_c, 0, 47, 0
2, 64320, Note_on_c, 0, 49, 100
2, 64320, Note_on_c, 0, 57, 100
2, 64320, Note_on_c, 0, 61, 100
2, 64320, Note_on_c, 0, 66, 100
2, 64776, Note_on_c, 0, 66, 0
2, 64776, Note_on_c, 0, 61, 0
2, 64776, Note_on_c, 0, 57, 0
2, 64800, Note_on_c, 0, 66, 100
2, 64800, Note_on_c, 0, 61, 100
2, 64800, Note_on_c, 0, 57, 100
2, 65256, Note_on_c, 0, 49, 0
2, 65256, Note_on_c, 0, 57, 0
2, 65256, Note_on_c, 0, 61, 0
2, 65256, Note_on_c, 0, 66, 0
2, 65280, Control_c, 0, 7, 40
2, 65280, Control_c, 0, 7, 80
2, 65280, Note_on_c, 0, 50, 127
2, 65760, Note_on_c, 0, 66, 100
2, 65760, Note_on_c, 0, 59, 100
2, 65760, Note_on_c, 0, 56, 100
2, 66216, Note_on_c, 0, 56, 0
2, 66216, Note_on_c, 0, 59, 0
2, 66216, Note_on_c, 0, 66, 0
2, 66240, Note_on_c, 0, 56, 100
2, 66240, Note_on_c, 0, 59, 100
2, 66240, Note_on_c, 0, 66, 100
2, 66696, Note_on_c, 0, 66, 0
2, 66696, Note_on_c, 0, 59, 0
2, 66696, Note_on_c, 0, 56, 0
2, 66696, Note_on_c, 0, 50, 0
2, 66720, Note_on_c, 0, 56, 100
2, 66720, Note_on_c, 0, 59, 100
2, 66720, Note_on_c, 0, 66, 100
2, 66720, Note_on_c, 0, 49, 100
2, 66948, Note_on_c, 0, 49, 0
2, 66960, Note_on_c, 0, 50, 100
2, 67176, Note_on_c, 0, 66, 0
2, 67176, Note_on_c, 0, 59, 0
2, 67176, Note_on_c, 0, 56, 0
2, 67188, Note_on_c, 0, 50, 0
2, 67200, Note_on_c, 0, 56, 100
2, 67200, Note_on_c, 0, 60, 100
2, 67200, Note_on_c, 0, 66, 100
2, 67200, Note_on_c, 0, 51, 100
2, 67656, Note_on_c, 0, 51, 0
2, 67656, Note_on_c, 0, 66, 0
2, 67656, Note_on_c, 0, 60, 0
2, 67656, Note_on_c, 0, 56, 0
2, 67680, Note_on_c, 0, 66, 100
2, 67680, Note_on_c, 0, 60, 100
2, 67680, Note_on_c, 0, 56, 100
2, 67680, Note_on_c, 0, 44, 100
2, 68136, Note_on_c, 0, 44, 0
2, 68136, Note_on_c, 0, 56, 0
2, 68136, Note_on_c, 0, 60, 0
2, 68136, Note_on_c, 0, 66, 0
2, 68160, Note_on_c, 0, 49, 100
2, 68160, Note_on_c, 0, 56, 100
2, 68160, Note_on_c, 0, 59, 100
2, 68160, Note_on_c, 0, 61, 100
2, 68160, Note_on_c, 0, 66, 100
2, 68616, Note_on_c, 0, 66, 0
2, 68640, Note_on_c, 0, 65, 100
2, 69096, Note_on_c, 0, 65, 0
2, 69096, Note_on_c, 0, 61, 0
2, 69096, Note_on_c, 0, 59, 0
2, 69096, Note_on_c, 0, 56, 0
2, 69096, Note_on_c, 0, 49, 0
2, 69120, Note_on_c, 0, 66, 100
2, 69120, Note_on_c, 0, 61, 100
2, 69120, Note_on_c, 0, 57, 100
2, 69120, Note_on_c, 0, 42, 100
2, 69576, Note_on_c, 0, 42, 0
2, 69576, Note_on_c, 0, 57, 0
2, 69576, Note_on_c, 0, 61, 0
2, 69576, Note_on_c, 0, 66, 0
2, 69600, Note_on_c, 0, 73, 100
2, 69828, Note_on_c, 0, 73, 0
2, 69840, Note_on_c, 0, 71, 100
2, 70068, Note_on_c, 0, 71, 0
2, 70080, Note_on_c, 0, 69, 100
2, 70232, Note_on_c, 0, 69, 0
2, 70239, Note_on_c, 0, 73, 100
2, 70391, Note_on_c, 0, 73, 0
2, 70399, Note_on_c, 0, 68, 100
2, 70550, Note_on_c, 0, 68, 0
2, 70560, Note_on_c, 0, 66, 100
2, 70712, Note_on_c, 0, 66, 0
2, 70719, Note_on_c, 0, 73, 100
2, 70871, Note_on_c, 0, 73, 0
2, 70879, Note_on_c, 0, 69, 100
2, 71030, Note_on_c, 0, 69, 0
2, 71040, Note_on_c, 0, 57, 100
2, 71040, Note_on_c, 0, 73, 100
2, 71040, Note_on_c, 0, 69, 100
2, 71040, Note_on_c, 0, 64, 100
2, 71496, Note_on_c, 0, 64, 0
2, 71496, Note_on_c, 0, 69, 0
2, 71496, Note_on_c, 0, 73, 0
2, 71496, Note_on_c, 0, 57, 0
2, 71520, Note_on_c, 0, 50, 100
2, 71520, Note_on_c, 0, 62, 100
2, 71520, Note_on_c, 0, 66, 100
2, 71520, Note_on_c, 0, 71, 100
2, 71976, Note_on_c, 0, 71, 0
2, 71976, Note_on_c, 0, 66, 0
2, 71976, Note_on_c, 0, 62, 0
2, 71976, Note_on_c, 0, 50, 0
2, 72000, Note_on_c, 0, 52, 100
2, 72000, Note_on_c, 0, 62, 100
2, 72000, Note_on_c, 0, 64, 100
2, 72000, Note_on_c, 0, 68, 100
2, 72936, Note_on_c, 0, 68, 0
2, 72936, Note_on_c, 0, 64, 0
2, 72936, Note_on_c, 0, 62, 0
2, 72936, Note_on_c, 0, 52, 0
2, 72960, Note_on_c, 0, 45, 100
2, 72960, Note_on_c, 0, 61, 100
2, 72960, Note_on_c, 0, 64, 100
2, 72960, Note_on_c, 0, 69, 100
2, 73896, Note_on_c, 0, 69, 0
2, 73896, Note_on_c, 0, 64, 0
2, 73896, Note_on_c, 0, 61, 0
2, 73896, Note_on_c, 0, 45, 0
2, 73920, Note_on_c, 0, 54, 100
2, 73920, Note_on_c, 0, 69, 100
2, 73920, Note_on_c, 0, 66, 100
2, 73920, Note_on_c, 0, 61, 100
2, 74376, Note_on_c, 0, 61, 0
2, 74376, Note_on_c, 0, 66, 0
2, 74376, Note_on_c, 0, 69, 0
2, 74376, Note_on_c, 0, 54, 0
2, 74400, Note_on_c, 0, 47, 100
2, 74400, Note_on_c, 0, 62, 100
2, 74400, Note_on_c, 0, 68, 100
2, 74856, Note_on_c, 0, 68, 0
2, 74856, Note_on_c, 0, 62, 0
2, 74856, Note_on_c, 0, 47, 0
2, 74880, Note_on_c, 0, 49, 100
2, 74880, Note_on_c, 0, 61, 100
2, 74880, Note_on_c, 0, 65, 100
2, 74880, Note_on_c, 0, 68, 100
2, 74880, Note_on_c, 0, 59, 100
2, 75816, Note_on_c, 0, 59, 0
2, 75816, Note_on_c, 0, 68, 0
2, 75816, Note_on_c, 0, 65, 0
2, 75816, Note_on_c, 0, 61, 0
2, 75816, Note_on_c, 0, 49, 0
2, 75840, Note_on_c, 0, 42, 100
2, 75840, Note_on_c, 0, 61, 100
2, 75840, Note_on_c, 0, 66, 100
2, 75840, Note_on_c, 0, 57, 100
2, 76296, Note_on_c, 0, 42, 0
2, 76320, Note_on_c, 0, 54, 100
2, 76776, Note_on_c, 0, 54, 0
2, 76776, Note_on_c, 0, 57, 0
2, 76776, Note_on_c, 0, 66, 0
2, 76776, Note_on_c, 0, 61, 0
2, 76800, Note_on_c, 0, 48, 100
2, 76800, Note_on_c, 0, 56, 100
2, 76800, Note_on_c, 0, 63, 100
2, 76800, Note_on_c, 0, 66, 100
2, 77256, Note_on_c, 0, 66, 0
2, 77256, Note_on_c, 0, 63, 0
2, 77256, Note_on_c, 0, 56, 0
2, 77280, Note_on_c, 0, 56, 100
2, 77280, Note_on_c, 0, 63, 100
2, 77280, Note_on_c, 0, 66, 100
2, 77736, Note_on_c, 0, 66, 0
2, 77736, Note_on_c, 0, 63, 0
2, 77736, Note_on_c, 0, 56, 0
2, 77736, Note_on_c, 0, 48, 0
2, 77760, Note_on_c, 0, 47, 100
2, 77760, Note_on_c, 0, 56, 100
2, 77760, Note_on_c, 0, 62, 100
2, 77760, Note_on_c, 0, 65, 100
2, 78216, Note_on_c, 0, 65, 0
2, 78216, Note_on_c, 0, 62, 0
2, 78216, Note_on_c, 0, 56, 0
2, 78240, Note_on_c, 0, 56, 100
2, 78240, Note_on_c, 0, 62, 100
2, 78240, Note_on_c, 0, 64, 100
2, 78696, Note_on_c, 0, 64, 0
2, 78696, Note_on_c, 0, 62, 0
2, 78696, Note_on_c, 0, 56, 0
2, 78696, Note_on_c, 0, 47, 0
2, 78720, Note_on_c, 0, 45, 100
2, 78720, Note_on_c, 0, 57, 100
2, 78720, Note_on_c, 0, 61, 100
2, 78720, Note_on_c, 0, 64, 100
2, 79176, Note_on_c, 0, 64, 0
2, 79176, Note_on_c, 0, 61, 0
2, 79176, Note_on_c, 0, 57, 0
2, 79200, Note_on_c, 0, 69, 100
2, 79200, Note_on_c, 0, 61, 100
2, 79200, Note_on_c, 0, 64, 100
2, 79656, Note_on_c, 0, 45, 0
2, 79656, Note_on_c, 0, 64, 0
2, 79656, Note_on_c, 0, 61, 0
2, 79656, Note_on_c, 0, 69, 0
2, 79680, Note_on_c, 0, 47, 100
2, 79680, Note_on_c, 0, 62, 100
2, 79680, Note_on_c, 0, 67, 100
2, 79908, Note_on_c, 0, 67, 0
2, 79908, Note_on_c, 0, 62, 0
2, 79920, Note_on_c, 0, 59, 100
2, 80148, Note_on_c, 0, 59, 0
2, 80160, Note_on_c, 0, 62, 100
2, 80160, Note_on_c, 0, 67, 100
2, 80388, Note_on_c, 0, 67, 0
2, 80388, Note_on_c, 0, 62, 0
2, 80400, Note_on_c, 0, 59, 100
2, 80616, Note_on_c, 0, 47, 0
2, 80628, Note_on_c, 0, 59, 0
2, 80640, Note_on_c, 0, 61, 100
2, 80640, Note_on_c, 0, 66, 100
2, 80640, Note_on_c, 0, 49, 100
2, 80700, Control_c, 0, 7, 81
2, 80780, Control_c, 0, 7, 82
2, 80860, Control_c, 0, 7, 83
2, 80868, Note_on_c, 0, 66, 0
2, 80868, Note_on_c, 0, 61, 0
2, 80880, Note_on_c, 0, 56, 100
2, 80940, Control_c, 0, 7, 84
2, 81020, Control_c, 0, 7, 85
2, 81108, Note_on_c, 0, 56, 0
2, 81120, Control_c, 0, 7, 86
2, 81120, Note_on_c, 0, 61, 100
2, 81120, Note_on_c, 0, 65, 100
2, 81120, Note_on_c, 0, 37, 100
2, 81200, Control_c, 0, 7, 87
2, 81280, Control_c, 0, 7, 88
2, 81348, Note_on_c, 0, 65, 0
2, 81348, Note_on_c, 0, 61, 0
2, 81360, Control_c, 0, 7, 89
2, 81360, Note_on_c, 0, 56, 100
2, 81440, Control_c, 0, 7, 90
2, 81576, Note_on_c, 0, 37, 0
2, 81576, Note_on_c, 0, 49, 0
2, 81588, Note_on_c, 0, 56, 0
2, 81600, Note_on_c, 0, 63, 100
2, 81600, Note_on_c, 0, 68, 100
2, 81600, Note_on_c, 0, 66, 100
2, 81600, Note_on_c, 0, 48, 100
2, 81600, Note_on_c, 0, 36, 100
2, 81660, Control_c, 0, 7, 89
2, 81740, Control_c, 0, 7, 88
2, 81820, Control_c, 0, 7, 87
2, 81828, Note_on_c, 0, 66, 0
2, 81828, Note_on_c, 0, 68, 0
2, 81828, Note_on_c, 0, 63, 0
2, 81840, Note_on_c, 0, 56, 100
2, 81900, Control_c, 0, 7, 86
2, 81980, Control_c, 0, 7, 85
2, 82068, Note_on_c, 0, 56, 0
2, 82080, Control_c, 0, 7, 84
2, 82080, Note_on_c, 0, 63, 100
2, 82080, Note_on_c, 0, 66, 100
2, 82080, Note_on_c, 0, 68, 100
2, 82160, Control_c, 0, 7, 83
2, 82240, Control_c, 0, 7, 82
2, 82308, Note_on_c, 0, 68, 0
2, 82308, Note_on_c, 0, 66, 0
2, 82308, Note_on_c, 0, 63, 0
2, 82320, Control_c, 0, 7, 81
2, 82320, Note_on_c, 0, 56, 100
2, 82400, Control_c, 0, 7, 80
2, 82536, Note_on_c, 0, 36, 0
2, 82536, Note_on_c, 0, 48, 0
2, 82548, Note_on_c, 0, 56, 0
2, 82560, Note_on_c, 0, 63, 100
2, 82560, Note_on_c, 0, 68, 100
2, 82560, Note_on_c, 0, 66, 100
2, 82560, Note_on_c, 0, 48, 100
2, 82560, Note_on_c, 0, 36, 100
2, 82788, Note_on_c, 0, 66, 0
2, 82788, Note_on_c, 0, 68, 0
2, 82788, Note_on_c, 0, 63, 0
2, 82800, Note_on_c, 0, 56, 100
2, 83028, Note_on_c, 0, 56, 0
2, 83040, Note_on_c, 0, 63, 100
2, 83040, Note_on_c, 0, 66, 100
2, 83040, Note_on_c, 0, 68, 100
2, 83268, Note_on_c, 0, 68, 0
2, 83268, Note_on_c, 0, 66, 0
2, 83268, Note_on_c, 0, 63, 0
2, 83280, Note_on_c, 0, 56, 100
2, 83496, Note_on_c, 0, 36, 0
2, 83496, Note_on_c, 0, 48, 0
2, 83508, Note_on_c, 0, 56, 0
2, 83520, Note_on_c, 0, 62, 100
2, 83520, Note_on_c, 0, 68, 100
2, 83520, Note_on_c, 0, 65, 100
2, 83520, Note_on_c, 0, 47, 100
2, 83520, Note_on_c, 0, 35, 100
2, 83748, Note_on_c, 0, 65, 0
2, 83748, Note_on_c, 0, 68, 0
2, 83748, Note_on_c, 0, 62, 0
2, 83760, Note_on_c, 0, 56, 100
2, 83976, Note_on_c, 0, 35, 0
2, 83976, Note_on_c, 0, 47, 0
2, 83988, Note_on_c, 0, 56, 0
2, 84000, Note_on_c, 0, 62, 100
2, 84000, Note_on_c, 0, 65, 100
2, 84000, Note_on_c, 0, 68, 100
2, 84000, Note_on_c, 0, 40, 100
2, 84228, Note_on_c, 0, 68, 0
2, 84228, Note_on_c, 0, 65, 0
2, 84228, Note_on_c, 0, 62, 0
2, 84240, Note_on_c, 0, 56, 100
2, 84456, Note_on_c, 0, 40, 0
2, 84468, Note_on_c, 0, 56, 0
2, 84480, Note_on_c, 0, 61, 100
2, 84480, Note_on_c, 0, 69, 100
2, 84480, Note_on_c, 0, 64, 100
2, 84480, Note_on_c, 0, 45, 100
2, 84480, Note_on_c, 0, 33, 100
2, 84708, Note_on_c, 0, 64, 0
2, 84708, Note_on_c, 0, 69, 0
2, 84708, Note_on_c, 0, 61, 0
2, 84720, Note_on_c, 0, 57, 100
2, 84948, Note_on_c, 0, 57, 0
2, 84960, Note_on_c, 0, 61, 100
2, 84960, Note_on_c, 0, 64, 100
2, 84960, Note_on_c, 0, 69, 100
2, 85188, Note_on_c, 0, 69, 0
2, 85188, Note_on_c, 0, 64, 0
2, 85188, Note_on_c, 0, 61, 0
2, 85200, Note_on_c, 0, 57, 100
2, 85416, Note_on_c, 0, 33, 0
2, 85416, Note_on_c, 0, 45, 0
2, 85428, Note_on_c, 0, 57, 0
2, 85440, Note_on_c, 0, 47, 100
2, 85440, Note_on_c, 0, 35, 100
2, 85440, Note_on_c, 0, 67, 100
2, 85440, Note_on_c, 0, 62, 100
2, 85668, Note_on_c, 0, 62, 0
2, 85668, Note_on_c, 0, 67, 0
2, 85680, Note_on_c, 0, 59, 100
2, 85908, Note_on_c, 0, 59, 0
2, 85920, Note_on_c, 0, 62, 100
2, 85920, Note_on_c, 0, 67, 100
2, 86148, Note_on_c, 0, 67, 0
2, 86148, Note_on_c, 0, 62, 0
2, 86160, Note_on_c, 0, 59, 100
2, 86376, Note_on_c, 0, 35, 0
2, 86376, Note_on_c, 0, 47, 0
2, 86388, Note_on_c, 0, 59, 0
2, 86400, Note_on_c, 0, 61, 100
2, 86400, Note_on_c, 0, 69, 100
2, 86400, Note_on_c, 0, 66, 100
2, 86400, Note_on_c, 0, 49, 100
2, 86400, Note_on_c, 0, 37, 100
2, 86628, Note_on_c, 0, 66, 0
2, 86628, Note_on_c, 0, 69, 0
2, 86628, Note_on_c, 0, 61, 0
2, 86640, Note_on_c, 0, 57, 100
2, 86868, Note_on_c, 0, 57, 0
2, 86880, Note_on_c, 0, 61, 100
2, 86880, Note_on_c, 0, 66, 100
2, 86880, Note_on_c, 0, 69, 100
2, 87108, Note_on_c, 0, 69, 0
2, 87108, Note_on_c, 0, 66, 0
2, 87108, Note_on_c, 0, 61, 0
2, 87120, Note_on_c, 0, 57, 100
2, 87336, Note_on_c, 0, 37, 0
2, 87336, Note_on_c, 0, 49, 0
2, 87348, Note_on_c, 0, 57, 0
2, 87360, Note_on_c, 0, 49, 100
2, 87360, Note_on_c, 0, 37, 100
2, 87360, Note_on_c, 0, 61, 100
2, 87360, Note_on_c, 0, 65, 100
2, 87588, Note_on_c, 0, 65, 0
2, 87588, Note_on_c, 0, 61, 0
2, 87600, Note_on_c, 0, 59, 100
2, 87828, Note_on_c, 0, 59, 0
2, 87840, Note_on_c, 0, 61, 100
2, 87840, Note_on_c, 0, 65, 100
2, 88068, Note_on_c, 0, 65, 0
2, 88068, Note_on_c, 0, 61, 0
2, 88080, Note_on_c, 0, 59, 100
2, 88296, Note_on_c, 0, 37, 0
2, 88296, Note_on_c, 0, 49, 0
2, 88308, Note_on_c, 0, 59, 0
2, 88320, Note_on_c, 0, 42, 100
2, 88320, Note_on_c, 0, 57, 100
2, 88320, Note_on_c, 0, 61, 100
2, 88320, Note_on_c, 0, 66, 100
2, 89736, Note_on_c, 0, 66, 0
2, 89736, Note_on_c, 0, 61, 0
2, 89736, Note_on_c, 0, 57, 0
2, 89736, Note_on_c, 0, 42, 0
2, 90240, Note_on_c, 0, 74, 100
2, 90240, Note_on_c, 0, 42, 100
2, 90696, Note_on_c, 0, 42, 0
2, 90720, Note_on_c, 0, 54, 100
2, 90948, Note_on_c, 0, 74, 0
2, 90960, Note_on_c, 0, 73, 100
2, 91188, Note_on_c, 0, 73, 0
2, 91200, Note_on_c, 0, 71, 100
2, 91200, Note_on_c, 0, 65, 100
2, 91200, Note_on_c, 0, 62, 100
2, 91428, Note_on_c, 0, 71, 0
2, 91440, Note_on_c, 0, 73, 100
2, 91656, Note_on_c, 0, 54, 0
2, 91656, Note_on_c, 0, 62, 0
2, 91668, Note_on_c, 0, 73, 0
2, 91680, Note_on_c, 0, 74, 100
2, 91680, Note_on_c, 0, 59, 100
2, 91908, Note_on_c, 0, 74, 0
2, 91920, Note_on_c, 0, 80, 100
2, 92136, Note_on_c, 0, 59, 0
2, 92136, Note_on_c, 0, 65, 0
2, 92148, Note_on_c, 0, 80, 0
2, 92160, Note_on_c, 0, 78, 100
2, 92160, Note_on_c, 0, 66, 100
2, 92160, Note_on_c, 0, 57, 100
2, 92616, Note_on_c, 0, 57, 0
2, 92616, Note_on_c, 0, 78, 0
2, 92640, Note_on_c, 0, 78, 100
2, 92640, Note_on_c, 0, 61, 100
2, 93096, Note_on_c, 0, 61, 0
2, 93096, Note_on_c, 0, 78, 0
2, 93096, Note_on_c, 0, 66, 0
2, 93120, Note_on_c, 0, 74, 100
2, 93120, Note_on_c, 0, 42, 100
2, 93576, Note_on_c, 0, 42, 0
2, 93600, Note_on_c, 0, 54, 100
2, 93828, Note_on_c, 0, 74, 0
2, 93840, Note_on_c, 0, 73, 100
2, 94068, Note_on_c, 0, 73, 0
2, 94080, Note_on_c, 0, 71, 100
2, 94080, Note_on_c, 0, 65, 100
2, 94080, Note_on_c, 0, 62, 100
2, 94308, Note_on_c, 0, 71, 0
2, 94320, Note_on_c, 0, 73, 100
2, 94536, Note_on_c, 0, 62, 0
2, 94536, Note_on_c, 0, 54, 0
2, 94548, Note_on_c, 0, 73, 0
2, 94560, Note_on_c, 0, 74, 100
2, 94560, Note_on_c, 0, 59, 100
2, 94788, Note_on_c, 0, 74, 0
2, 94800, Note_on_c, 0, 80, 100
2, 95016, Note_on_c, 0, 59, 0
2, 95016, Note_on_c, 0, 65, 0
2, 95028, Note_on_c, 0, 80, 0
2, 95040, Note_on_c, 0, 78, 100
2, 95040, Note_on_c, 0, 66, 100
2, 95040, Note_on_c, 0, 57, 100
2, 95496, Note_on_c, 0, 57, 0
2, 95520, Note_on_c, 0, 61, 100
2, 95976, Note_on_c, 0, 61, 0
2, 95976, Note_on_c, 0, 66, 0
2, 95976, Note_on_c, 0, 78, 0
2, 96000, Note_on_c, 0, 77, 100
2, 96000, Note_on_c, 0, 46, 100
2, 96000, Note_on_c, 0, 52, 100
2, 96000, Note_on_c, 0, 54, 100
2, 96000, Note_on_c, 0, 61, 100
2, 96228, Note_on_c, 0, 77, 0
2, 96240, Note_on_c, 0, 78, 100
2, 96456, Note_on_c, 0, 61, 0
2, 96456, Note_on_c, 0, 54, 0
2, 96456, Note_on_c, 0, 52, 0
2, 96456, Note_on_c, 0, 46, 0
2, 96468, Note_on_c, 0, 78, 0
2, 96480, Note_on_c, 0, 76, 100
2, 96480, Note_on_c, 0, 47, 100
2, 96480, Note_on_c, 0, 50, 100
2, 96480, Note_on_c, 0, 54, 100
2, 96480, Note_on_c, 0, 59, 100
2, 96510, Note_on_c, 0, 78, 100
2, 96536, Note_on_c, 0, 76, 0
2, 96540, Note_on_c, 0, 76, 100
2, 96566, Note_on_c, 0, 78, 0
2, 96708, Note_on_c, 0, 76, 0
2, 96720, Note_on_c, 0, 74, 100
2, 96936, Note_on_c, 0, 59, 0
2, 96936, Note_on_c, 0, 54, 0
2, 96936, Note_on_c, 0, 50, 0
2, 96936, Note_on_c, 0, 47, 0
2, 96948, Note_on_c, 0, 74, 0
2, 96960, Note_on_c, 0, 72, 100
2, 96960, Note_on_c, 0, 49, 100
2, 96960, Note_on_c, 0, 53, 100
2, 96960, Note_on_c, 0, 59, 100
2, 97188, Note_on_c, 0, 72, 0
2, 97200, Note_on_c, 0, 73, 100
2, 97416, Note_on_c, 0, 59, 0
2, 97416, Note_on_c, 0, 53, 0
2, 97416, Note_on_c, 0, 49, 0
2, 97428, Note_on_c, 0, 73, 0
2, 97440, Note_on_c, 0, 71, 100
2, 97440, Note_on_c, 0, 50, 100
2, 97440, Note_on_c, 0, 54, 100
2, 97440, Note_on_c, 0, 59, 100
2, 97470, Note_on_c, 0, 73, 100
2, 97496, Note_on_c, 0, 71, 0
2, 97500, Note_on_c, 0, 71, 100
2, 97526, Note_on_c, 0, 73, 0
2, 97668, Note_on_c, 0, 71, 0
2, 97680, Note_on_c, 0, 69, 100
2, 97896, Note_on_c, 0, 59, 0
2, 97896, Note_on_c, 0, 54, 0
2, 97896, Note_on_c, 0, 50, 0
2, 97908, Note_on_c, 0, 69, 0
2, 97920, Note_on_c, 0, 68, 100
2, 97920, Note_on_c, 0, 47, 100
2, 97920, Note_on_c, 0, 54, 100
2, 97920, Note_on_c, 0, 62, 100
2, 97950, Note_on_c, 0, 69, 100
2, 97976, Note_on_c, 0, 68, 0
2, 97980, Note_on_c, 0, 68, 100
2, 98006, Note_on_c, 0, 69, 0
2, 98148, Note_on_c, 0, 68, 0
2, 98160, Note_on_c, 0, 66, 100
2, 98376, Note_on_c, 0, 62, 0
2, 98376, Note_on_c, 0, 54, 0
2, 98376, Note_on_c, 0, 47, 0
2, 98388, Note_on_c, 0, 66, 0
2, 98400, Note_on_c, 0, 68, 100
2, 98400, Note_on_c, 0, 49, 100
2, 98400, Note_on_c, 0, 53, 100
2, 98400, Note_on_c, 0, 59, 100
2, 98628, Note_on_c, 0, 68, 0
2, 98640, Note_on_c, 0, 73, 100
2, 98856, Note_on_c, 0, 59, 0
2, 98856, Note_on_c, 0, 53, 0
2, 98856, Note_on_c, 0, 49, 0
2, 98868, Note_on_c, 0, 73, 0
2, 98880, Note_on_c, 0, 42, 100
2, 98880, Note_on_c, 0, 66, 100
2, 98880, Note_on_c, 0, 57, 100
2, 99336, Note_on_c, 0, 57, 0
2, 99336, Note_on_c, 0, 66, 0
2, 99336, Note_on_c, 0, 42, 0
2, 99360, Note_on_c, 0, 61, 100
2, 99360, Note_on_c, 0, 69, 100
2, 99360, Note_on_c, 0, 53, 100
2, 99512, Note_on_c, 0, 53, 0
2, 99519, Note_on_c, 0, 54, 100
2, 99671, Note_on_c, 0, 54, 0
2, 99679, Note_on_c, 0, 49, 100
2, 99816, Note_on_c, 0, 69, 0
2, 99816, Note_on_c, 0, 61, 0
2, 99830, Note_on_c, 0, 49, 0
2, 99840, Note_on_c, 0, 42, 100
2, 99840, Note_on_c, 0, 66, 100
2, 99840, Note_on_c, 0, 57, 100
2, 100296, Note_on_c, 0, 57, 0
2, 100296, Note_on_c, 0, 66, 0
2, 100296, Note_on_c, 0, 42, 0
2, 100320, Note_on_c, 0, 61, 100
2, 100320, Note_on_c, 0, 69, 100
2, 100320, Note_on_c, 0, 53, 100
2, 100472, Note_on_c, 0, 53, 0
2, 100479, Note_on_c, 0, 54, 100
2, 100631, Note_on_c, 0, 54, 0
2, 100639, Note_on_c, 0, 49, 100
2, 100776, Note_on_c, 0, 69, 0
2, 100776, Note_on_c, 0, 61, 0
2, 100790, Note_on_c, 0, 49, 0
2, 100798, Note_on_c, 0, 42, 100
2, 100800, Note_on_c, 0, 66, 100
2, 100800, Note_on_c, 0, 57, 100
2, 101734, Note_on_c, 0, 42, 0
2, 101736, Note_on_c, 0, 57, 0
2, 101736, Note_on_c, 0, 66, 0
2, 101760, End_track
3, 0, Start_track
3, 0, Control_c, 1, 7, 127
3, 0, Control_c, 1, 0, 0
3, 0, Control_c, 1, 32, 0
3, 0, Program_c, 1, 53
3, 0, Control_c, 1, 1, 0
3, 0, Control_c, 1, 10, 64
3, 0, Control_c, 1, 91, 0
3, 0, Control_c, 1, 93, 0
3, 0, Key_signature, 3, "major"
3, 0, Title_t, "Voice"
3, 11520, Control_c, 1, 7, 95
3, 11520, Note_on_c, 1, 73, 100
3, 11976, Note_on_c, 1, 73, 0
3, 12000, Note_on_c, 1, 74, 100
3, 12456, Note_on_c, 1, 74, 0
3, 12480, Note_on_c, 1, 71, 100
3, 12708, Note_on_c, 1, 71, 0
3, 12720, Note_on_c, 1, 66, 100
3, 12948, Note_on_c, 1, 66, 0
3, 12960, Note_on_c, 1, 68, 100
3, 13188, Note_on_c, 1, 68, 0
3, 13200, Note_on_c, 1, 64, 100
3, 13428, Note_on_c, 1, 64, 0
3, 13440, Note_on_c, 1, 73, 100
3, 13656, Note_on_c, 1, 73, 0
3, 13680, Note_on_c, 1, 73, 100
3, 13794, Note_on_c, 1, 73, 0
3, 13800, Note_on_c, 1, 71, 100
3, 13914, Note_on_c, 1, 71, 0
3, 13920, Note_on_c, 1, 69, 100
3, 14376, Note_on_c, 1, 69, 0
3, 14400, Note_on_c, 1, 69, 100
3, 14856, Note_on_c, 1, 69, 0
3, 14880, Note_on_c, 1, 71, 100
3, 15336, Note_on_c, 1, 71, 0
3, 15360, Note_on_c, 1, 68, 100
3, 15588, Note_on_c, 1, 68, 0
3, 15600, Note_on_c, 1, 63, 100
3, 15828, Note_on_c, 1, 63, 0
3, 15840, Note_on_c, 1, 65, 100
3, 16068, Note_on_c, 1, 65, 0
3, 16080, Note_on_c, 1, 61, 100
3, 16308, Note_on_c, 1, 61, 0
3, 16320, Note_on_c, 1, 69, 100
3, 16776, Note_on_c, 1, 69, 0
3, 16800, Note_on_c, 1, 66, 100
3, 17256, Note_on_c, 1, 66, 0
3, 17760, Note_on_c, 1, 68, 100
3, 17988, Note_on_c, 1, 68, 0
3, 18000, Note_on_c, 1, 68, 100
3, 18228, Note_on_c, 1, 68, 0
3, 18240, Note_on_c, 1, 68, 100
3, 18468, Note_on_c, 1, 68, 0
3, 18480, Note_on_c, 1, 68, 100
3, 18708, Note_on_c, 1, 68, 0
3, 18720, Note_on_c, 1, 66, 100
3, 18948, Note_on_c, 1, 66, 0
3, 18960, Note_on_c, 1, 68, 100
3, 19188, Note_on_c, 1, 68, 0
3, 19200, Note_on_c, 1, 71, 100
3, 19656, Note_on_c, 1, 71, 0
3, 19680, Note_on_c, 1, 69, 100
3, 20136, Note_on_c, 1, 69, 0
3, 20640, Note_on_c, 1, 68, 100
3, 20868, Note_on_c, 1, 68, 0
3, 20880, Note_on_c, 1, 68, 100
3, 21108, Note_on_c, 1, 68, 0
3, 21120, Note_on_c, 1, 68, 100
3, 21348, Note_on_c, 1, 68, 0
3, 21360, Note_on_c, 1, 68, 100
3, 21588, Note_on_c, 1, 68, 0
3, 21600, Note_on_c, 1, 66, 100
3, 21828, Note_on_c, 1, 66, 0
3, 21840, Note_on_c, 1, 68, 100
3, 22068, Note_on_c, 1, 68, 0
3, 22080, Note_on_c, 1, 71, 100
3, 22536, Note_on_c, 1, 71, 0
3, 22560, Note_on_c, 1, 69, 100
3, 22788, Note_on_c, 1, 69, 0
3, 22800, Note_on_c, 1, 68, 100
3, 23028, Note_on_c, 1, 68, 0
3, 23040, Note_on_c, 1, 68, 100
3, 23741, Note_on_c, 1, 68, 0
3, 23760, Note_on_c, 1, 66, 100
3, 23988, Note_on_c, 1, 66, 0
3, 24000, Note_on_c, 1, 66, 100
3, 24456, Note_on_c, 1, 66, 0
3, 25920, Note_on_c, 1, 73, 100
3, 26376, Note_on_c, 1, 73, 0
3, 26400, Note_on_c, 1, 74, 100
3, 26856, Note_on_c, 1, 74, 0
3, 26880, Note_on_c, 1, 71, 100
3, 27108, Note_on_c, 1, 71, 0
3, 27120, Note_on_c, 1, 66, 100
3, 27348, Note_on_c, 1, 66, 0
3, 27360, Note_on_c, 1, 68, 100
3, 27588, Note_on_c, 1, 68, 0
3, 27600, Note_on_c, 1, 64, 100
3, 27828, Note_on_c, 1, 64, 0
3, 27840, Note_on_c, 1, 73, 100
3, 28056, Note_on_c, 1, 73, 0
3, 28080, Note_on_c, 1, 73, 100
3, 28194, Note_on_c, 1, 73, 0
3, 28200, Note_on_c, 1, 71, 100
3, 28314, Note_on_c, 1, 71, 0
3, 28320, Note_on_c, 1, 69, 100
3, 28776, Note_on_c, 1, 69, 0
3, 28800, Note_on_c, 1, 69, 100
3, 29256, Note_on_c, 1, 69, 0
3, 29280, Note_on_c, 1, 71, 100
3, 29736, Note_on_c, 1, 71, 0
3, 29760, Note_on_c, 1, 68, 100
3, 29988, Note_on_c, 1, 68, 0
3, 30000, Note_on_c, 1, 63, 100
3, 30228, Note_on_c, 1, 63, 0
3, 30240, Note_on_c, 1, 65, 100
3, 30468, Note_on_c, 1, 65, 0
3, 30480, Note_on_c, 1, 61, 100
3, 30708, Note_on_c, 1, 61, 0
3, 30720, Note_on_c, 1, 69, 100
3, 31176, Note_on_c, 1, 69, 0
3, 31200, Note_on_c, 1, 66, 100
3, 31656, Note_on_c, 1, 66, 0
3, 31680, Note_on_c, 1, 68, 100
3, 32388, Note_on_c, 1, 68, 0
3, 32400, Note_on_c, 1, 68, 100
3, 32628, Note_on_c, 1, 68, 0
3, 32640, Note_on_c, 1, 68, 100
3, 32868, Note_on_c, 1, 68, 0
3, 32880, Note_on_c, 1, 68, 100
3, 33108, Note_on_c, 1, 68, 0
3, 33120, Note_on_c, 1, 69, 100
3, 33348, Note_on_c, 1, 69, 0
3, 33360, Note_on_c, 1, 71, 100
3, 33588, Note_on_c, 1, 71, 0
3, 33600, Note_on_c, 1, 73, 100
3, 34056, Note_on_c, 1, 73, 0
3, 34080, Note_on_c, 1, 73, 100
3, 34536, Note_on_c, 1, 73, 0
3, 34560, Note_on_c, 1, 73, 100
3, 34788, Note_on_c, 1, 73, 0
3, 34800, Note_on_c, 1, 71, 100
3, 35028, Note_on_c, 1, 71, 0
3, 35040, Note_on_c, 1, 74, 100
3, 35268, Note_on_c, 1, 74, 0
3, 35280, Note_on_c, 1, 67, 100
3, 35508, Note_on_c, 1, 67, 0
3, 35520, Note_on_c, 1, 66, 100
3, 35560, Control_c, 1, 7, 96
3, 35620, Control_c, 1, 7, 97
3, 35680, Control_c, 1, 7, 98
3, 35720, Control_c, 1, 7, 99
3, 35780, Control_c, 1, 7, 100
3, 35840, Control_c, 1, 7, 101
3, 35900, Control_c, 1, 7, 102
3, 35960, Control_c, 1, 7, 103
3, 35976, Note_on_c, 1, 66, 0
3, 36000, Control_c, 1, 7, 104
3, 36000, Note_on_c, 1, 68, 100
3, 36060, Control_c, 1, 7, 105
3, 36120, Control_c, 1, 7, 106
3, 36180, Control_c, 1, 7, 107
3, 36240, Control_c, 1, 7, 108
3, 36280, Control_c, 1, 7, 109
3, 36340, Control_c, 1, 7, 110
3, 36456, Note_on_c, 1, 68, 0
3, 36480, Note_on_c, 1, 75, 100
3, 36520, Control_c, 1, 7, 109
3, 36580, Control_c, 1, 7, 108
3, 36640, Control_c, 1, 7, 107
3, 36680, Control_c, 1, 7, 106
3, 36740, Control_c, 1, 7, 105
3, 36800, Control_c, 1, 7, 104
3, 36860, Control_c, 1, 7, 103
3, 36920, Control_c, 1, 7, 102
3, 36936, Note_on_c, 1, 75, 0
3, 36960, Control_c, 1, 7, 101
3, 36960, Note_on_c, 1, 68, 100
3, 37020, Control_c, 1, 7, 100
3, 37080, Control_c, 1, 7, 99
3, 37140, Control_c, 1, 7, 98
3, 37200, Control_c, 1, 7, 97
3, 37240, Control_c, 1, 7, 96
3, 37300, Control_c, 1, 7, 95
3, 37416, Note_on_c, 1, 68, 0
3, 37440, Note_on_c, 1, 68, 100
3, 38148, Note_on_c, 1, 68, 0
3, 38160, Note_on_c, 1, 68, 100
3, 38388, Note_on_c, 1, 68, 0
3, 38400, Note_on_c, 1, 68, 100
3, 38628, Note_on_c, 1, 68, 0
3, 38640, Note_on_c, 1, 68, 100
3, 38868, Note_on_c, 1, 68, 0
3, 38880, Note_on_c, 1, 69, 100
3, 39108, Note_on_c, 1, 69, 0
3, 39120, Note_on_c, 1, 71, 100
3, 39348, Note_on_c, 1, 71, 0
3, 39360, Note_on_c, 1, 73, 100
3, 39816, Note_on_c, 1, 73, 0
3, 39840, Note_on_c, 1, 73, 100
3, 40296, Note_on_c, 1, 73, 0
3, 40320, Note_on_c, 1, 73, 100
3, 40548, Note_on_c, 1, 73, 0
3, 40560, Note_on_c, 1, 71, 100
3, 40788, Note_on_c, 1, 71, 0
3, 40800, Note_on_c, 1, 69, 100
3, 41028, Note_on_c, 1, 69, 0
3, 41040, Note_on_c, 1, 68, 100
3, 41268, Note_on_c, 1, 68, 0
3, 41280, Note_on_c, 1, 66, 100
3, 41736, Note_on_c, 1, 66, 0
3, 41760, Note_on_c, 1, 69, 100
3, 42216, Note_on_c, 1, 69, 0
3, 42240, Note_on_c, 1, 68, 100
3, 42696, Note_on_c, 1, 68, 0
3, 42720, Note_on_c, 1, 73, 100
3, 43176, Note_on_c, 1, 73, 0
3, 43200, Note_on_c, 1, 66, 100
3, 43220, Control_c, 1, 7, 94
3, 43240, Control_c, 1, 7, 93
3, 43260, Control_c, 1, 7, 92
3, 43280, Control_c, 1, 7, 91
3, 43300, Control_c, 1, 7, 90
3, 43320, Control_c, 1, 7, 89
3, 43340, Control_c, 1, 7, 88
3, 43360, Control_c, 1, 7, 86
3, 43380, Control_c, 1, 7, 85
3, 43400, Control_c, 1, 7, 84
3, 43420, Control_c, 1, 7, 83
3, 43440, Control_c, 1, 7, 82
3, 43460, Control_c, 1, 7, 81
3, 43480, Control_c, 1, 7, 80
3, 43500, Control_c, 1, 7, 79
3, 43520, Control_c, 1, 7, 78
3, 43540, Control_c, 1, 7, 77
3, 43560, Control_c, 1, 7, 76
3, 43580, Control_c, 1, 7, 75
3, 43600, Control_c, 1, 7, 74
3, 43620, Control_c, 1, 7, 73
3, 43640, Control_c, 1, 7, 71
3, 43660, Control_c, 1, 7, 70
3, 43680, Control_c, 1, 7, 69
3, 43700, Control_c, 1, 7, 68
3, 43720, Control_c, 1, 7, 67
3, 43740, Control_c, 1, 7, 66
3, 43760, Control_c, 1, 7, 65
3, 43780, Control_c, 1, 7, 64
3, 43800, Control_c, 1, 7, 63
3, 43820, Control_c, 1, 7, 62
3, 43840, Control_c, 1, 7, 61
3, 43860, Control_c, 1, 7, 60
3, 43880, Control_c, 1, 7, 59
3, 43900, Control_c, 1, 7, 58
3, 43920, Control_c, 1, 7, 56
3, 43940, Control_c, 1, 7, 55
3, 43960, Control_c, 1, 7, 54
3, 43980, Control_c, 1, 7, 53
3, 44000, Control_c, 1, 7, 52
3, 44020, Control_c, 1, 7, 51
3, 44040, Control_c, 1, 7, 50
3, 44136, Note_on_c, 1, 66, 0
3, 45120, Control_c, 1, 7, 127
3, 45120, Control_c, 1, 0, 0
3, 45120, Control_c, 1, 32, 0
3, 45120, Program_c, 1, 53
3, 45120, Control_c, 1, 1, 0
3, 45120, Control_c, 1, 10, 64
3, 45120, Control_c, 1, 91, 0
3, 45120, Control_c, 1, 93, 0
3, 45120, Key_signature, 3, "major"
3, 56640, Control_c, 1, 7, 95
3, 56640, Note_on_c, 1, 73, 100
3, 57096, Note_on_c, 1, 73, 0
3, 57120, Note_on_c, 1, 74, 100
3, 57576, Note_on_c, 1, 74, 0
3, 57600, Note_on_c, 1, 71, 100
3, 57828, Note_on_c, 1, 71, 0
3, 57840, Note_on_c, 1, 66, 100
3, 58068, Note_on_c, 1, 66, 0
3, 58080, Note_on_c, 1, 68, 100
3, 58308, Note_on_c, 1, 68, 0
3, 58320, Note_on_c, 1, 64, 100
3, 58548, Note_on_c, 1, 64, 0
3, 58560, Note_on_c, 1, 73, 100
3, 58776, Note_on_c, 1, 73, 0
3, 58800, Note_on_c, 1, 73, 100
3, 58914, Note_on_c, 1, 73, 0
3, 58920, Note_on_c, 1, 71, 100
3, 59034, Note_on_c, 1, 71, 0
3, 59040, Note_on_c, 1, 69, 100
3, 59496, Note_on_c, 1, 69, 0
3, 59520, Note_on_c, 1, 69, 100
3, 59976, Note_on_c, 1, 69, 0
3, 60000, Note_on_c, 1, 71, 100
3, 60456, Note_on_c, 1, 71, 0
3, 60480, Note_on_c, 1, 68, 100
3, 60708, Note_on_c, 1, 68, 0
3, 60720, Note_on_c, 1, 63, 100
3, 60948, Note_on_c, 1, 63, 0
3, 60960, Note_on_c, 1, 65, 100
3, 61188, Note_on_c, 1, 65, 0
3, 61200, Note_on_c, 1, 61, 100
3, 61428, Note_on_c, 1, 61, 0
3, 61440, Note_on_c, 1, 69, 100
3, 61896, Note_on_c, 1, 69, 0
3, 61920, Note_on_c, 1, 66, 100
3, 62376, Note_on_c, 1, 66, 0
3, 62880, Note_on_c, 1, 68, 100
3, 63108, Note_on_c, 1, 68, 0
3, 63120, Note_on_c, 1, 68, 100
3, 63348, Note_on_c, 1, 68, 0
3, 63360, Note_on_c, 1, 68, 100
3, 63588, Note_on_c, 1, 68, 0
3, 63600, Note_on_c, 1, 68, 100
3, 63828, Note_on_c, 1, 68, 0
3, 63840, Note_on_c, 1, 66, 100
3, 64068, Note_on_c, 1, 66, 0
3, 64080, Note_on_c, 1, 68, 100
3, 64308, Note_on_c, 1, 68, 0
3, 64320, Note_on_c, 1, 71, 100
3, 64776, Note_on_c, 1, 71, 0
3, 64800, Note_on_c, 1, 69, 100
3, 65256, Note_on_c, 1, 69, 0
3, 65280, Control_c, 1, 7, 50
3, 65280, Control_c, 1, 7, 95
3, 65520, Note_on_c, 1, 68, 100
3, 65748, Note_on_c, 1, 68, 0
3, 65760, Note_on_c, 1, 68, 100
3, 65988, Note_on_c, 1, 68, 0
3, 66000, Note_on_c, 1, 68, 100
3, 66228, Note_on_c, 1, 68, 0
3, 66240, Note_on_c, 1, 68, 100
3, 66468, Note_on_c, 1, 68, 0
3, 66480, Note_on_c, 1, 68, 100
3, 66708, Note_on_c, 1, 68, 0
3, 66720, Note_on_c, 1, 66, 100
3, 66948, Note_on_c, 1, 66, 0
3, 66960, Note_on_c, 1, 68, 100
3, 67188, Note_on_c, 1, 68, 0
3, 67200, Note_on_c, 1, 71, 100
3, 67656, Note_on_c, 1, 71, 0
3, 67680, Note_on_c, 1, 69, 100
3, 67908, Note_on_c, 1, 69, 0
3, 67920, Note_on_c, 1, 68, 100
3, 68148, Note_on_c, 1, 68, 0
3, 68160, Note_on_c, 1, 68, 100
3, 68861, Note_on_c, 1, 68, 0
3, 68880, Note_on_c, 1, 66, 100
3, 69108, Note_on_c, 1, 66, 0
3, 69120, Note_on_c, 1, 66, 100
3, 69576, Note_on_c, 1, 66, 0
3, 71040, Note_on_c, 1, 73, 100
3, 71496, Note_on_c, 1, 73, 0
3, 71520, Note_on_c, 1, 74, 100
3, 71976, Note_on_c, 1, 74, 0
3, 72000, Note_on_c, 1, 71, 100
3, 72228, Note_on_c, 1, 71, 0
3, 72240, Note_on_c, 1, 66, 100
3, 72468, Note_on_c, 1, 66, 0
3, 72480, Note_on_c, 1, 68, 100
3, 72708, Note_on_c, 1, 68, 0
3, 72720, Note_on_c, 1, 64, 100
3, 72948, Note_on_c, 1, 64, 0
3, 72960, Note_on_c, 1, 73, 100
3, 73176, Note_on_c, 1, 73, 0
3, 73200, Note_on_c, 1, 73, 100
3, 73314, Note_on_c, 1, 73, 0
3, 73320, Note_on_c, 1, 71, 100
3, 73434, Note_on_c, 1, 71, 0
3, 73440, Note_on_c, 1, 69, 100
3, 73896, Note_on_c, 1, 69, 0
3, 73920, Note_on_c, 1, 69, 100
3, 74376, Note_on_c, 1, 69, 0
3, 74400, Note_on_c, 1, 71, 100
3, 74856, Note_on_c, 1, 71, 0
3, 74880, Note_on_c, 1, 68, 100
3, 75108, Note_on_c, 1, 68, 0
3, 75120, Note_on_c, 1, 63, 100
3, 75348, Note_on_c, 1, 63, 0
3, 75360, Note_on_c, 1, 65, 100
3, 75588, Note_on_c, 1, 65, 0
3, 75600, Note_on_c, 1, 61, 100
3, 75828, Note_on_c, 1, 61, 0
3, 75840, Note_on_c, 1, 69, 100
3, 76296, Note_on_c, 1, 69, 0
3, 76320, Note_on_c, 1, 66, 100
3, 76776, Note_on_c, 1, 66, 0
3, 76800, Note_on_c, 1, 68, 100
3, 77508, Note_on_c, 1, 68, 0
3, 77520, Note_on_c, 1, 68, 100
3, 77748, Note_on_c, 1, 68, 0
3, 77760, Note_on_c, 1, 68, 100
3, 77988, Note_on_c, 1, 68, 0
3, 78000, Note_on_c, 1, 68, 100
3, 78228, Note_on_c, 1, 68, 0
3, 78240, Note_on_c, 1, 69, 100
3, 78468, Note_on_c, 1, 69, 0
3, 78480, Note_on_c, 1, 71, 100
3, 78708, Note_on_c, 1, 71, 0
3, 78720, Note_on_c, 1, 73, 100
3, 79176, Note_on_c, 1, 73, 0
3, 79200, Note_on_c, 1, 73, 100
3, 79656, Note_on_c, 1, 73, 0
3, 79680, Note_on_c, 1, 73, 100
3, 79908, Note_on_c, 1, 73, 0
3, 79920, Note_on_c, 1, 71, 100
3, 80148, Note_on_c, 1, 71, 0
3, 80160, Note_on_c, 1, 74, 100
3, 80388, Note_on_c, 1, 74, 0
3, 80400, Note_on_c, 1, 67, 100
3, 80628, Note_on_c, 1, 67, 0
3, 80640, Note_on_c, 1, 66, 100
3, 80680, Control_c, 1, 7, 96
3, 80740, Control_c, 1, 7, 97
3, 80800, Control_c, 1, 7, 98
3, 80840, Control_c, 1, 7, 99
3, 80900, Control_c, 1, 7, 100
3, 80960, Control_c, 1, 7, 101
3, 81020, Control_c, 1, 7, 102
3, 81080, Control_c, 1, 7, 103
3, 81096, Note_on_c, 1, 66, 0
3, 81120, Control_c, 1, 7, 104
3, 81120, Note_on_c, 1, 68, 100
3, 81180, Control_c, 1, 7, 105
3, 81240, Control_c, 1, 7, 106
3, 81300, Control_c, 1, 7, 107
3, 81360, Control_c, 1, 7, 108
3, 81400, Control_c, 1, 7, 109
3, 81460, Control_c, 1, 7, 110
3, 81576, Note_on_c, 1, 68, 0
3, 81600, Note_on_c, 1, 75, 100
3, 81640, Control_c, 1, 7, 109
3, 81700, Control_c, 1, 7, 108
3, 81740, Control_c, 1, 7, 107
3, 81800, Control_c, 1, 7, 106
3, 81860, Control_c, 1, 7, 105
3, 81920, Control_c, 1, 7, 104
3, 81980, Control_c, 1, 7, 103
3, 82020, Control_c, 1, 7, 102
3, 82056, Note_on_c, 1, 75, 0
3, 82080, Control_c, 1, 7, 101
3, 82080, Note_on_c, 1, 68, 100
3, 82140, Control_c, 1, 7, 100
3, 82200, Control_c, 1, 7, 99
3, 82260, Control_c, 1, 7, 98
3, 82300, Control_c, 1, 7, 97
3, 82360, Control_c, 1, 7, 96
3, 82420, Control_c, 1, 7, 95
3, 82536, Note_on_c, 1, 68, 0
3, 82560, Note_on_c, 1, 71, 100
3, 83016, Note_on_c, 1, 71, 0
3, 83040, Note_on_c, 1, 69, 100
3, 83268, Note_on_c, 1, 69, 0
3, 83280, Note_on_c, 1, 68, 100
3, 83508, Note_on_c, 1, 68, 0
3, 83520, Note_on_c, 1, 68, 100
3, 83596, Note_on_c, 1, 68, 0
3, 83599, Note_on_c, 1, 69, 100
3, 83675, Note_on_c, 1, 69, 0
3, 83679, Note_on_c, 1, 68, 100
3, 83755, Note_on_c, 1, 68, 0
3, 83760, Note_on_c, 1, 66, 100
3, 83874, Note_on_c, 1, 66, 0
3, 83880, Note_on_c, 1, 68, 100
3, 83994, Note_on_c, 1, 68, 0
3, 84000, Note_on_c, 1, 69, 100
3, 84228, Note_on_c, 1, 69, 0
3, 84240, Note_on_c, 1, 71, 100
3, 84468, Note_on_c, 1, 71, 0
3, 84480, Note_on_c, 1, 74, 100
3, 84936, Note_on_c, 1, 74, 0
3, 84960, Note_on_c, 1, 73, 100
3, 85416, Note_on_c, 1, 73, 0
3, 85440, Note_on_c, 1, 73, 100
3, 85668, Note_on_c, 1, 73, 0
3, 85680, Note_on_c, 1, 71, 100
3, 85908, Note_on_c, 1, 71, 0
3, 85920, Note_on_c, 1, 69, 100
3, 86148, Note_on_c, 1, 69, 0
3, 86160, Note_on_c, 1, 67, 100
3, 86388, Note_on_c, 1, 67, 0
3, 86400, Note_on_c, 1, 66, 100
3, 87108, Note_on_c, 1, 66, 0
3, 87120, Note_on_c, 1, 69, 100
3, 87348, Note_on_c, 1, 69, 0
3, 87360, Note_on_c, 1, 68, 100
3, 87816, Note_on_c, 1, 68, 0
3, 87840, Note_on_c, 1, 73, 100
3, 88296, Note_on_c, 1, 73, 0
3, 88320, Note_on_c, 1, 66, 100
3, 88340, Control_c, 1, 7, 94
3, 88360, Control_c, 1, 7, 93
3, 88380, Control_c, 1, 7, 92
3, 88400, Control_c, 1, 7, 91
3, 88420, Control_c, 1, 7, 90
3, 88440, Control_c, 1, 7, 89
3, 88460, Control_c, 1, 7, 87
3, 88480, Control_c, 1, 7, 86
3, 88500, Control_c, 1, 7, 85
3, 88520, Control_c, 1, 7, 84
3, 88540, Control_c, 1, 7, 83
3, 88560, Control_c, 1, 7, 82
3, 88580, Control_c, 1, 7, 81
3, 88600, Control_c, 1, 7, 80
3, 88620, Control_c, 1, 7, 79
3, 88640, Control_c, 1, 7, 78
3, 88660, Control_c, 1, 7, 77
3, 88680, Control_c, 1, 7, 76
3, 88700, Control_c, 1, 7, 75
3, 88720, Control_c, 1, 7, 74
3, 88740, Control_c, 1, 7, 72
3, 88760, Control_c, 1, 7, 71
3, 88780, Control_c, 1, 7, 70
3, 88800, Control_c, 1, 7, 69
3, 88820, Control_c, 1, 7, 68
3, 88840, Control_c, 1, 7, 67
3, 88860, Control_c, 1, 7, 66
3, 88880, Control_c, 1, 7, 65
3, 88900, Control_c, 1, 7, 64
3, 88920, Control_c, 1, 7, 63
3, 88940, Control_c, 1, 7, 62
3, 88960, Control_c, 1, 7, 61
3, 88980, Control_c, 1, 7, 60
3, 89000, Control_c, 1, 7, 59
3, 89020, Control_c, 1, 7, 57
3, 89040, Control_c, 1, 7, 56
3, 89060, Control_c, 1, 7, 55
3, 89080, Control_c, 1, 7, 54
3, 89100, Control_c, 1, 7, 53
3, 89120, Control_c, 1, 7, 52
3, 89140, Control_c, 1, 7, 51
3, 89160, Control_c, 1, 7, 50
3, 89256, Note_on_c, 1, 66, 0
3, 101760, End_track
0, 0, End_of_file