0, 0, Header, 1, 6, 120
1, 0, Start_track
1, 0, Title_t, "untitled"
1, 0, SMPTE_offset, 96, 0, 3, 0, 0
1, 0, MIDI_port, 0
1, 0, System_exclusive, 0A, 41, 10, 42, 12, 40, 00, 7F, 00, 41, F7
1, 0, MIDI_port, 0
1, 0, System_exclusive, 0A, 41, 10, 42, 12, 40, 01, 30, 03, 0C, F7
1, 0, MIDI_port, 0
1, 0, Time_signature, 4, 2, 24, 8
1, 0, Key_signature, 0, "major"
1, 0, Tempo, 250000
1, 840, Tempo, 250000
1, 960, Tempo, 461538
1, 1004, Tempo, 447761
1, 1018, Tempo, 444444
1, 1032, Tempo, 441176
1, 1046, Tempo, 437956
1, 1060, Tempo, 434783
1, 1074, Tempo, 431655
1, 1088, Tempo, 428571
1, 1102, Tempo, 425532
1, 1116, Tempo, 422535
1, 1130, Tempo, 419580
1, 1144, Tempo, 416667
1, 1158, Tempo, 413793
1, 1172, Tempo, 410959
1, 1186, Tempo, 408163
1, 1200, Tempo, 400000
1, 1680, Tempo, 400000
1, 1696, Tempo, 402685
1, 1712, Tempo, 405405
1, 1726, Tempo, 408163
1, 1742, Tempo, 410959
1, 1756, Tempo, 413793
1, 1772, Tempo, 416667
1, 1786, Tempo, 419580
1, 1802, Tempo, 422535
1, 1818, Tempo, 425532
1, 1832, Tempo, 428571
1, 1848, Tempo, 431655
1, 1862, Tempo, 434783
1, 1878, Tempo, 437956
1, 1892, Tempo, 441176
1, 1908, Tempo, 444444
1, 1922, Tempo, 447761
1, 1962, Tempo, 447761
1, 1970, Tempo, 444444
1, 1978, Tempo, 441176
1, 1984, Tempo, 437956
1, 1992, Tempo, 434783
1, 1998, Tempo, 431655
1, 2006, Tempo, 428571
1, 2012, Tempo, 425532
1, 2020, Tempo, 422535
1, 2028, Tempo, 419580
1, 2034, Tempo, 416667
1, 2042, Tempo, 413793
1, 2048, Tempo, 410959
1, 2056, Tempo, 408163
1, 2062, Tempo, 405405
1, 2640, Tempo, 402685
1, 2660, Tempo, 405405
1, 2678, Tempo, 408163
1, 2696, Tempo, 410959
1, 2714, Tempo, 413793
1, 2734, Tempo, 416667
1, 2752, Tempo, 419580
1, 2770, Tempo, 422535
1, 2788, Tempo, 425532
1, 2808, Tempo, 428571
1, 2826, Tempo, 431655
1, 2844, Tempo, 434783
1, 2862, Tempo, 437956
1, 2880, Tempo, 441176
1, 2896, Tempo, 437956
1, 2912, Tempo, 434783
1, 2928, Tempo, 431655
1, 2942, Tempo, 428571
1, 2958, Tempo, 425532
1, 2974, Tempo, 422535
1, 2990, Tempo, 419580
1, 3004, Tempo, 416667
1, 3178, Tempo, 413793
1, 3200, Tempo, 410959
1, 3222, Tempo, 408163
1, 3244, Tempo, 405405
1, 3266, Tempo, 402685
1, 3286, Tempo, 400000
1, 4346, Tempo, 408163
1, 4364, Tempo, 410959
1, 4382, Tempo, 413793
1, 4398, Tempo, 416667
1, 4416, Tempo, 419580
1, 4434, Tempo, 422535
1, 4450, Tempo, 425532
1, 4468, Tempo, 428571
1, 4484, Tempo, 431655
1, 4502, Tempo, 434783
1, 4520, Tempo, 437956
1, 4536, Tempo, 441176
1, 4554, Tempo, 444444
1, 4558, Tempo, 408163
1, 4582, Tempo, 410959
1, 4606, Tempo, 413793
1, 4630, Tempo, 416667
1, 4654, Tempo, 419580
1, 4676, Tempo, 422535
1, 4700, Tempo, 425532
1, 4724, Tempo, 428571
1, 4748, Tempo, 431655
1, 4770, Tempo, 434783
1, 4802, Tempo, 461538
1, 4814, Tempo, 458015
1, 4826, Tempo, 454545
1, 4838, Tempo, 451128
1, 4850, Tempo, 447761
1, 4862, Tempo, 444444
1, 4874, Tempo, 441176
1, 4886, Tempo, 437956
1, 4898, Tempo, 419580
1, 4918, Tempo, 416667
1, 4938, Tempo, 413793
1, 4958, Tempo, 410959
1, 4976, Tempo, 408163
1, 4996, Tempo, 405405
1, 5016, Tempo, 402685
1, 5034, Tempo, 400000
1, 6084, Tempo, 397351
1, 6106, Tempo, 400000
1, 6128, Tempo, 402685
1, 6148, Tempo, 405405
1, 6170, Tempo, 408163
1, 6192, Tempo, 410959
1, 6212, Tempo, 413793
1, 6234, Tempo, 416667
1, 6254, Tempo, 419580
1, 6276, Tempo, 422535
1, 6298, Tempo, 425532
1, 6318, Tempo, 428571
1, 6340, Tempo, 431655
1, 6360, Tempo, 434783
1, 6400, Tempo, 425532
1, 6430, Tempo, 422535
1, 6460, Tempo, 419580
1, 6490, Tempo, 416667
1, 6520, Tempo, 413793
1, 6550, Tempo, 410959
1, 7162, Tempo, 410959
1, 7200, Tempo, 408163
1, 7238, Tempo, 405405
1, 7276, Tempo, 402685
1, 7314, Tempo, 400000
1, 7352, Tempo, 397351
1, 7388, Tempo, 394737
1, 7656, Tempo, 392157
1, 7684, Tempo, 394737
1, 7710, Tempo, 397351
1, 7738, Tempo, 400000
1, 7764, Tempo, 402685
1, 7792, Tempo, 405405
1, 7818, Tempo, 408163
1, 7846, Tempo, 410959
1, 7872, Tempo, 413793
1, 7898, Tempo, 416667
1, 8154, Tempo, 413793
1, 8180, Tempo, 410959
1, 8206, Tempo, 408163
1, 8232, Tempo, 405405
1, 8258, Tempo, 402685
1, 8642, Tempo, 402685
1, 8654, Tempo, 405405
1, 8666, Tempo, 408163
1, 8676, Tempo, 410959
1, 8688, Tempo, 413793
1, 8698, Tempo, 416667
1, 8710, Tempo, 419580
1, 8720, Tempo, 422535
1, 8732, Tempo, 425532
1, 8742, Tempo, 428571
1, 8754, Tempo, 431655
1, 8764, Tempo, 434783
1, 8776, Tempo, 437956
1, 8786, Tempo, 441176
1, 8798, Tempo, 444444
1, 8806, Tempo, 419580
1, 8824, Tempo, 422535
1, 8840, Tempo, 425532
1, 8858, Tempo, 428571
1, 8874, Tempo, 431655
1, 8892, Tempo, 434783
1, 8908, Tempo, 437956
1, 8926, Tempo, 441176
1, 8942, Tempo, 444444
1, 8960, Tempo, 447761
1, 8972, Tempo, 437956
1, 8994, Tempo, 434783
1, 9014, Tempo, 431655
1, 9036, Tempo, 428571
1, 9056, Tempo, 425532
1, 9076, Tempo, 422535
1, 9098, Tempo, 419580
1, 9118, Tempo, 416667
1, 9140, Tempo, 413793
1, 9160, Tempo, 410959
1, 9180, Tempo, 408163
1, 9236, Tempo, 408163
1, 9248, Tempo, 410959
1, 9260, Tempo, 413793
1, 9270, Tempo, 416667
1, 9282, Tempo, 419580
1, 9292, Tempo, 422535
1, 9304, Tempo, 425532
1, 9316, Tempo, 428571
1, 9326, Tempo, 431655
1, 9338, Tempo, 434783
1, 9348, Tempo, 437956
1, 9360, Tempo, 441176
1, 9372, Tempo, 444444
1, 9382, Tempo, 447761
1, 9394, Tempo, 451128
1, 9404, Tempo, 454545
1, 9416, Tempo, 458015
1, 9426, Tempo, 461538
1, 9480, Tempo, 447761
1, 9496, Tempo, 444444
1, 9510, Tempo, 441176
1, 9526, Tempo, 437956
1, 9540, Tempo, 434783
1, 9554, Tempo, 431655
1, 9570, Tempo, 428571
1, 9584, Tempo, 425532
1, 9598, Tempo, 422535
1, 9956, Tempo, 416667
1, 10000, Tempo, 413793
1, 10044, Tempo, 410959
1, 10088, Tempo, 405405
1, 15628, Tempo, 402685
1, 15646, Tempo, 405405
1, 15662, Tempo, 408163
1, 15678, Tempo, 410959
1, 15694, Tempo, 413793
1, 15710, Tempo, 416667
1, 15726, Tempo, 419580
1, 15744, Tempo, 422535
1, 15760, Tempo, 425532
1, 15776, Tempo, 428571
1, 15792, Tempo, 431655
1, 15808, Tempo, 434783
1, 15824, Tempo, 437956
1, 15840, Tempo, 441176
1, 15906, Tempo, 405405
1, 15944, Tempo, 408163
1, 15980, Tempo, 410959
1, 16018, Tempo, 413793
1, 16054, Tempo, 416667
1, 16092, Tempo, 419580
1, 16128, Tempo, 422535
1, 16166, Tempo, 425532
1, 16202, Tempo, 425532
1, 16232, Tempo, 422535
1, 16260, Tempo, 419580
1, 16288, Tempo, 416667
1, 16316, Tempo, 413793
1, 16344, Tempo, 410959
1, 17570, Tempo, 408163
1, 17586, Tempo, 410959
1, 17600, Tempo, 413793
1, 17614, Tempo, 416667
1, 17628, Tempo, 419580
1, 17642, Tempo, 422535
1, 17656, Tempo, 425532
1, 17670, Tempo, 428571
1, 17684, Tempo, 431655
1, 17698, Tempo, 434783
1, 17712, Tempo, 437956
1, 17726, Tempo, 441176
1, 17758, Tempo, 437956
1, 17776, Tempo, 434783
1, 17792, Tempo, 431655
1, 17808, Tempo, 428571
1, 17824, Tempo, 425532
1, 17840, Tempo, 422535
1, 17858, Tempo, 419580
1, 17874, Tempo, 416667
1, 17890, Tempo, 413793
1, 17906, Tempo, 410959
1, 17922, Tempo, 408163
1, 17938, Tempo, 405405
1, 18222, Tempo, 405405
1, 18276, Tempo, 402685
1, 18330, Tempo, 400000
1, 19204, Tempo, 397351
1, 19230, Tempo, 400000
1, 19254, Tempo, 402685
1, 19278, Tempo, 405405
1, 19302, Tempo, 408163
1, 19328, Tempo, 410959
1, 19352, Tempo, 413793
1, 19376, Tempo, 416667
1, 19400, Tempo, 419580
1, 19494, Tempo, 419580
1, 19526, Tempo, 416667
1, 19558, Tempo, 413793
1, 19588, Tempo, 410959
1, 19620, Tempo, 408163
1, 19652, Tempo, 405405
1, 19682, Tempo, 402685
1, 23276, Tempo, 402685
1, 23323, Tempo, 405405
1, 23369, Tempo, 408163
1, 23416, Tempo, 410959
1, 23463, Tempo, 413793
1, 23509, Tempo, 416667
1, 23519, Tempo, 416667
1, 23536, Tempo, 419580
1, 23553, Tempo, 422535
1, 23569, Tempo, 425532
1, 23586, Tempo, 428571
1, 23603, Tempo, 431655
1, 23619, Tempo, 434783
1, 23633, Tempo, 437956
1, 23643, Tempo, 441176
1, 23649, Tempo, 444444
1, 23659, Tempo, 447761
1, 23666, Tempo, 451128
1, 23673, Tempo, 454545
1, 23683, Tempo, 458015
1, 23689, Tempo, 461538
1, 23696, Tempo, 465116
1, 23706, Tempo, 468750
1, 23713, Tempo, 472441
1, 23719, Tempo, 476190
1, 23729, Tempo, 480000
1, 23736, Tempo, 483871
1, 23743, Tempo, 487805
1, 23753, Tempo, 504202
1, 23759, Tempo, 508475
1, 23766, Tempo, 512821
1, 23773, Tempo, 517241
1, 23779, Tempo, 521739
1, 23786, Tempo, 526316
1, 23793, Tempo, 530973
1, 23799, Tempo, 535714
1, 23806, Tempo, 540541
1, 23809, Tempo, 545455
1, 23816, Tempo, 550459
1, 23823, Tempo, 555556
1, 23829, Tempo, 560748
1, 23836, Tempo, 566038
1, 23843, Tempo, 571429
1, 23849, Tempo, 576923
1, 23856, Tempo, 582524
1, 23863, Tempo, 588235
1, 23866, Tempo, 594059
1, 23876, Tempo, 461538
1, 23876, End_track
2, 0, Start_track
2, 0, MIDI_port, 0
2, 0, Title_t, "Etude No. 2"
2, 120, Control_c, 0, 0, 0
2, 120, Control_c, 0, 0, 0
2, 120, Control_c, 0, 93, 20
2, 120, Control_c, 0, 91, 64
2, 122, Program_c, 0, 0
2, 123, Control_c, 0, 7, 127
2, 461, Control_c, 0, 64, 127
2, 959, Note_on_c, 0, 45, 45
2, 960, Note_on_c, 0, 69, 42
2, 964, Note_on_c, 0, 64, 36
2, 965, Note_on_c, 0, 60, 36
2, 984, Note_on_c, 0, 60, 0
2, 985, Note_on_c, 0, 45, 0
2, 985, Note_on_c, 0, 69, 0
2, 987, Note_on_c, 0, 64, 0
2, 990, Note_on_c, 0, 70, 44
2, 1013, Control_c, 0, 64, 0
2, 1015, Note_on_c, 0, 70, 0
2, 1020, Note_on_c, 0, 71, 51
2, 1045, Note_on_c, 0, 71, 0
2, 1050, Note_on_c, 0, 72, 55
2, 1075, Note_on_c, 0, 72, 0
2, 1078, Note_on_c, 0, 69, 41
2, 1078, Note_on_c, 0, 64, 31
2, 1079, Note_on_c, 0, 52, 29
2, 1079, Note_on_c, 0, 60, 41
2, 1079, Note_on_c, 0, 57, 43
2, 1080, Note_on_c, 0, 73, 52
2, 1096, Note_on_c, 0, 57, 0
2, 1103, Note_on_c, 0, 52, 0
2, 1103, Note_on_c, 0, 64, 0
2, 1104, Note_on_c, 0, 69, 0
2, 1104, Note_on_c, 0, 60, 0
2, 1105, Note_on_c, 0, 73, 0
2, 1110, Note_on_c, 0, 74, 50
2, 1135, Note_on_c, 0, 74, 0
2, 1140, Note_on_c, 0, 75, 48
2, 1165, Note_on_c, 0, 75, 0
2, 1170, Note_on_c, 0, 76, 53
2, 1188, Control_c, 0, 64, 127
2, 1195, Note_on_c, 0, 76, 0
2, 1198, Note_on_c, 0, 69, 35
2, 1198, Note_on_c, 0, 74, 36
2, 1198, Note_on_c, 0, 45, 44
2, 1200, Note_on_c, 0, 77, 53
2, 1219, Note_on_c, 0, 69, 0
2, 1222, Note_on_c, 0, 45, 0
2, 1223, Note_on_c, 0, 74, 0
2, 1225, Note_on_c, 0, 77, 0
2, 1230, Note_on_c, 0, 78, 50
2, 1254, Control_c, 0, 64, 0
2, 1255, Note_on_c, 0, 78, 0
2, 1260, Note_on_c, 0, 79, 55
2, 1285, Note_on_c, 0, 79, 0
2, 1290, Note_on_c, 0, 80, 51
2, 1315, Note_on_c, 0, 80, 0
2, 1319, Note_on_c, 0, 74, 34
2, 1319, Note_on_c, 0, 77, 36
2, 1319, Note_on_c, 0, 53, 37
2, 1319, Note_on_c, 0, 62, 50
2, 1319, Note_on_c, 0, 57, 50
2, 1320, Note_on_c, 0, 81, 53
2, 1339, Note_on_c, 0, 57, 0
2, 1339, Note_on_c, 0, 74, 0
2, 1340, Note_on_c, 0, 77, 0
2, 1344, Note_on_c, 0, 62, 0
2, 1345, Note_on_c, 0, 81, 0
2, 1346, Note_on_c, 0, 53, 0
2, 1350, Note_on_c, 0, 82, 48
2, 1375, Note_on_c, 0, 82, 0
2, 1380, Note_on_c, 0, 83, 47
2, 1405, Note_on_c, 0, 83, 0
2, 1410, Note_on_c, 0, 84, 41
2, 1432, Control_c, 0, 64, 127
2, 1435, Note_on_c, 0, 84, 0
2, 1439, Note_on_c, 0, 76, 38
2, 1439, Note_on_c, 0, 81, 43
2, 1439, Note_on_c, 0, 33, 53
2, 1439, Note_on_c, 0, 45, 45
2, 1440, Note_on_c, 0, 85, 55
2, 1458, Note_on_c, 0, 33, 0
2, 1459, Note_on_c, 0, 76, 0
2, 1462, Note_on_c, 0, 45, 0
2, 1465, Note_on_c, 0, 85, 0
2, 1465, Note_on_c, 0, 81, 0
2, 1470, Note_on_c, 0, 86, 57
2, 1495, Note_on_c, 0, 86, 0
2, 1500, Note_on_c, 0, 87, 56
2, 1525, Note_on_c, 0, 87, 0
2, 1530, Note_on_c, 0, 88, 57
2, 1555, Note_on_c, 0, 88, 0
2, 1558, Note_on_c, 0, 52, 35
2, 1559, Note_on_c, 0, 84, 40
2, 1559, Note_on_c, 0, 81, 39
2, 1559, Note_on_c, 0, 60, 39
2, 1559, Note_on_c, 0, 57, 43
2, 1560, Note_on_c, 0, 89, 60
2, 1565, Control_c, 0, 64, 0
2, 1576, Note_on_c, 0, 57, 0
2, 1581, Note_on_c, 0, 52, 0
2, 1582, Note_on_c, 0, 81, 0
2, 1585, Note_on_c, 0, 89, 0
2, 1586, Note_on_c, 0, 60, 0
2, 1587, Note_on_c, 0, 84, 0
2, 1590, Note_on_c, 0, 88, 44
2, 1615, Note_on_c, 0, 88, 0
2, 1620, Note_on_c, 0, 87, 43
2, 1645, Note_on_c, 0, 87, 0
2, 1650, Note_on_c, 0, 86, 45
2, 1675, Note_on_c, 0, 86, 0
2, 1678, Note_on_c, 0, 81, 43
2, 1678, Note_on_c, 0, 76, 34
2, 1678, Note_on_c, 0, 57, 45
2, 1678, Note_on_c, 0, 60, 43
2, 1679, Note_on_c, 0, 64, 42
2, 1680, Note_on_c, 0, 85, 47
2, 1695, Note_on_c, 0, 64, 0
2, 1697, Note_on_c, 0, 60, 0
2, 1699, Note_on_c, 0, 57, 0
2, 1702, Note_on_c, 0, 76, 0
2, 1703, Note_on_c, 0, 81, 0
2, 1705, Note_on_c, 0, 85, 0
2, 1710, Note_on_c, 0, 84, 52
2, 1735, Note_on_c, 0, 84, 0
2, 1740, Note_on_c, 0, 83, 51
2, 1765, Note_on_c, 0, 83, 0
2, 1770, Note_on_c, 0, 82, 45
2, 1795, Note_on_c, 0, 82, 0
2, 1800, Note_on_c, 0, 81, 54
2, 1800, Note_on_c, 0, 76, 43
2, 1800, Note_on_c, 0, 72, 43
2, 1817, Note_on_c, 0, 72, 0
2, 1818, Note_on_c, 0, 76, 0
2, 1825, Note_on_c, 0, 81, 0
2, 1830, Note_on_c, 0, 80, 54
2, 1855, Note_on_c, 0, 80, 0
2, 1860, Note_on_c, 0, 83, 60
2, 1885, Note_on_c, 0, 83, 0
2, 1890, Note_on_c, 0, 81, 58
2, 1908, Control_c, 0, 64, 127
2, 1915, Note_on_c, 0, 81, 0
2, 1920, Note_on_c, 0, 80, 52
2, 1921, Note_on_c, 0, 76, 43
2, 1922, Note_on_c, 0, 71, 33
2, 1922, Note_on_c, 0, 40, 53
2, 1934, Note_on_c, 0, 40, 0
2, 1944, Note_on_c, 0, 71, 0
2, 1944, Note_on_c, 0, 76, 0
2, 1945, Note_on_c, 0, 80, 0
2, 1950, Note_on_c, 0, 79, 51
2, 1975, Note_on_c, 0, 79, 0
2, 1980, Note_on_c, 0, 78, 52
2, 1987, Control_c, 0, 64, 0
2, 2005, Note_on_c, 0, 78, 0
2, 2010, Note_on_c, 0, 77, 57
2, 2035, Note_on_c, 0, 77, 0
2, 2039, Note_on_c, 0, 59, 56
2, 2039, Note_on_c, 0, 52, 34
2, 2040, Note_on_c, 0, 76, 52
2, 2040, Note_on_c, 0, 62, 46
2, 2041, Note_on_c, 0, 68, 37
2, 2041, Note_on_c, 0, 71, 40
2, 2063, Note_on_c, 0, 68, 0
2, 2064, Note_on_c, 0, 62, 0
2, 2065, Note_on_c, 0, 76, 0
2, 2067, Note_on_c, 0, 59, 0
2, 2067, Note_on_c, 0, 71, 0
2, 2068, Note_on_c, 0, 52, 0
2, 2070, Note_on_c, 0, 75, 50
2, 2095, Note_on_c, 0, 75, 0
2, 2100, Note_on_c, 0, 77, 56
2, 2125, Note_on_c, 0, 77, 0
2, 2130, Note_on_c, 0, 76, 56
2, 2152, Control_c, 0, 64, 127
2, 2155, Note_on_c, 0, 76, 0
2, 2158, Note_on_c, 0, 45, 40
2, 2160, Note_on_c, 0, 75, 52
2, 2161, Note_on_c, 0, 69, 39
2, 2161, Note_on_c, 0, 72, 45
2, 2179, Note_on_c, 0, 72, 0
2, 2179, Note_on_c, 0, 69, 0
2, 2179, Note_on_c, 0, 45, 0
2, 2185, Note_on_c, 0, 75, 0
2, 2190, Note_on_c, 0, 74, 46
2, 2215, Note_on_c, 0, 74, 0
2, 2220, Note_on_c, 0, 73, 48
2, 2237, Control_c, 0, 64, 0
2, 2245, Note_on_c, 0, 73, 0
2, 2250, Note_on_c, 0, 72, 55
2, 2275, Note_on_c, 0, 72, 0
2, 2278, Note_on_c, 0, 64, 34
2, 2278, Note_on_c, 0, 52, 35
2, 2278, Note_on_c, 0, 60, 52
2, 2278, Note_on_c, 0, 57, 55
2, 2279, Note_on_c, 0, 69, 36
2, 2280, Note_on_c, 0, 71, 55
2, 2299, Note_on_c, 0, 69, 0
2, 2299, Note_on_c, 0, 57, 0
2, 2299, Note_on_c, 0, 64, 0
2, 2302, Note_on_c, 0, 60, 0
2, 2305, Note_on_c, 0, 71, 0
2, 2306, Note_on_c, 0, 52, 0
2, 2310, Note_on_c, 0, 72, 57
2, 2335, Note_on_c, 0, 72, 0
2, 2340, Note_on_c, 0, 74, 46
2, 2365, Note_on_c, 0, 74, 0
2, 2370, Note_on_c, 0, 72, 50
2, 2395, Note_on_c, 0, 72, 0
2, 2398, Control_c, 0, 64, 127
2, 2399, Note_on_c, 0, 68, 40
2, 2399, Note_on_c, 0, 52, 40
2, 2399, Note_on_c, 0, 59, 52
2, 2400, Note_on_c, 0, 71, 46
2, 2400, Note_on_c, 0, 64, 36
2, 2422, Note_on_c, 0, 64, 0
2, 2422, Note_on_c, 0, 59, 0
2, 2423, Note_on_c, 0, 52, 0
2, 2424, Note_on_c, 0, 68, 0
2, 2425, Note_on_c, 0, 71, 0
2, 2430, Note_on_c, 0, 72, 49
2, 2455, Note_on_c, 0, 72, 0
2, 2460, Note_on_c, 0, 71, 45
2, 2477, Control_c, 0, 64, 0
2, 2485, Note_on_c, 0, 71, 0
2, 2490, Note_on_c, 0, 72, 48
2, 2515, Note_on_c, 0, 72, 0
2, 2519, Note_on_c, 0, 63, 36
2, 2519, Note_on_c, 0, 59, 50
2, 2519, Note_on_c, 0, 53, 49
2, 2520, Note_on_c, 0, 71, 48
2, 2521, Note_on_c, 0, 69, 43
2, 2542, Note_on_c, 0, 63, 0
2, 2545, Note_on_c, 0, 71, 0
2, 2545, Note_on_c, 0, 69, 0
2, 2550, Note_on_c, 0, 72, 51
2, 2575, Note_on_c, 0, 72, 0
2, 2580, Note_on_c, 0, 71, 47
2, 2605, Note_on_c, 0, 71, 0
2, 2610, Note_on_c, 0, 72, 53
2, 2635, Note_on_c, 0, 72, 0
2, 2639, Note_on_c, 0, 52, 46
2, 2640, Note_on_c, 0, 71, 51
2, 2641, Note_on_c, 0, 64, 37
2, 2641, Note_on_c, 0, 68, 41
2, 2651, Note_on_c, 0, 53, 0
2, 2662, Note_on_c, 0, 68, 0
2, 2665, Note_on_c, 0, 71, 0
2, 2665, Note_on_c, 0, 64, 0
2, 2665, Note_on_c, 0, 52, 0
2, 2670, Note_on_c, 0, 76, 48
2, 2671, Note_on_c, 0, 59, 0
2, 2695, Note_on_c, 0, 76, 0
2, 2700, Note_on_c, 0, 75, 48
2, 2725, Note_on_c, 0, 75, 0
2, 2730, Note_on_c, 0, 74, 40
2, 2755, Note_on_c, 0, 74, 0
2, 2759, Note_on_c, 0, 68, 38
2, 2760, Note_on_c, 0, 73, 48
2, 2760, Note_on_c, 0, 62, 32
2, 2785, Note_on_c, 0, 73, 0
2, 2785, Note_on_c, 0, 68, 0
2, 2786, Note_on_c, 0, 62, 0
2, 2790, Note_on_c, 0, 72, 51
2, 2815, Note_on_c, 0, 72, 0
2, 2820, Note_on_c, 0, 71, 52
2, 2845, Note_on_c, 0, 71, 0
2, 2850, Note_on_c, 0, 70, 48
2, 2875, Note_on_c, 0, 70, 0
2, 2875, Control_c, 0, 64, 127
2, 2880, Note_on_c, 0, 69, 48
2, 2880, Note_on_c, 0, 45, 45
2, 2881, Note_on_c, 0, 64, 39
2, 2881, Note_on_c, 0, 60, 29
2, 2898, Note_on_c, 0, 45, 0
2, 2900, Note_on_c, 0, 60, 0
2, 2905, Note_on_c, 0, 64, 0
2, 2905, Note_on_c, 0, 69, 0
2, 2910, Note_on_c, 0, 70, 46
2, 2935, Note_on_c, 0, 70, 0
2, 2940, Note_on_c, 0, 71, 53
2, 2965, Note_on_c, 0, 71, 0
2, 2970, Note_on_c, 0, 72, 56
2, 2992, Control_c, 0, 64, 0
2, 2995, Note_on_c, 0, 72, 0
2, 3000, Note_on_c, 0, 73, 52
2, 3001, Note_on_c, 0, 64, 40
2, 3001, Note_on_c, 0, 69, 42
2, 3002, Note_on_c, 0, 60, 53
2, 3002, Note_on_c, 0, 52, 36
2, 3003, Note_on_c, 0, 57, 51
2, 3018, Note_on_c, 0, 64, 0
2, 3019, Note_on_c, 0, 69, 0
2, 3019, Note_on_c, 0, 57, 0
2, 3025, Note_on_c, 0, 73, 0
2, 3025, Note_on_c, 0, 60, 0
2, 3028, Note_on_c, 0, 52, 0
2, 3030, Note_on_c, 0, 74, 52
2, 3055, Note_on_c, 0, 74, 0
2, 3060, Note_on_c, 0, 75, 48
2, 3085, Note_on_c, 0, 75, 0
2, 3090, Note_on_c, 0, 76, 52
2, 3115, Note_on_c, 0, 76, 0
2, 3116, Control_c, 0, 64, 127
2, 3119, Note_on_c, 0, 69, 40
2, 3119, Note_on_c, 0, 45, 49
2, 3120, Note_on_c, 0, 77, 53
2, 3120, Note_on_c, 0, 74, 35
2, 3135, Note_on_c, 0, 69, 0
2, 3137, Note_on_c, 0, 74, 0
2, 3140, Note_on_c, 0, 45, 0
2, 3145, Note_on_c, 0, 77, 0
2, 3150, Note_on_c, 0, 78, 48
2, 3175, Note_on_c, 0, 78, 0
2, 3180, Note_on_c, 0, 79, 50
2, 3205, Note_on_c, 0, 79, 0
2, 3210, Note_on_c, 0, 80, 50
2, 3229, Control_c, 0, 64, 0
2, 3235, Note_on_c, 0, 80, 0
2, 3239, Note_on_c, 0, 74, 37
2, 3239, Note_on_c, 0, 77, 38
2, 3239, Note_on_c, 0, 62, 50
2, 3239, Note_on_c, 0, 53, 39
2, 3239, Note_on_c, 0, 57, 50
2, 3240, Note_on_c, 0, 81, 51
2, 3257, Note_on_c, 0, 74, 0
2, 3258, Note_on_c, 0, 57, 0
2, 3258, Note_on_c, 0, 77, 0
2, 3263, Note_on_c, 0, 62, 0
2, 3265, Note_on_c, 0, 53, 0
2, 3265, Note_on_c, 0, 81, 0
2, 3270, Note_on_c, 0, 82, 50
2, 3295, Note_on_c, 0, 82, 0
2, 3300, Note_on_c, 0, 83, 56
2, 3325, Note_on_c, 0, 83, 0
2, 3330, Note_on_c, 0, 84, 52
2, 3353, Control_c, 0, 64, 127
2, 3355, Note_on_c, 0, 84, 0
2, 3359, Note_on_c, 0, 81, 44
2, 3359, Note_on_c, 0, 76, 30
2, 3359, Note_on_c, 0, 33, 56
2, 3359, Note_on_c, 0, 45, 46
2, 3360, Note_on_c, 0, 85, 59
2, 3376, Note_on_c, 0, 33, 0
2, 3377, Note_on_c, 0, 76, 0
2, 3381, Note_on_c, 0, 45, 0
2, 3382, Note_on_c, 0, 81, 0
2, 3385, Note_on_c, 0, 85, 0
2, 3390, Note_on_c, 0, 86, 51
2, 3415, Note_on_c, 0, 86, 0
2, 3420, Note_on_c, 0, 87, 58
2, 3445, Note_on_c, 0, 87, 0
2, 3450, Note_on_c, 0, 88, 56
2, 3475, Note_on_c, 0, 88, 0
2, 3478, Note_on_c, 0, 84, 40
2, 3478, Note_on_c, 0, 52, 41
2, 3478, Note_on_c, 0, 60, 53
2, 3478, Note_on_c, 0, 57, 53
2, 3479, Note_on_c, 0, 81, 41
2, 3480, Note_on_c, 0, 89, 57
2, 3503, Note_on_c, 0, 81, 0
2, 3504, Note_on_c, 0, 84, 0
2, 3505, Note_on_c, 0, 57, 0
2, 3505, Note_on_c, 0, 89, 0
2, 3510, Note_on_c, 0, 88, 53
2, 3511, Note_on_c, 0, 52, 0
2, 3511, Note_on_c, 0, 60, 0
2, 3535, Note_on_c, 0, 88, 0
2, 3540, Note_on_c, 0, 87, 50
2, 3565, Note_on_c, 0, 87, 0
2, 3570, Note_on_c, 0, 86, 48
2, 3589, Control_c, 0, 64, 0
2, 3595, Note_on_c, 0, 86, 0
2, 3599, Note_on_c, 0, 60, 46
2, 3599, Note_on_c, 0, 57, 51
2, 3599, Note_on_c, 0, 64, 29
2, 3600, Note_on_c, 0, 85, 48
2, 3602, Note_on_c, 0, 81, 43
2, 3602, Note_on_c, 0, 76, 34
2, 3620, Note_on_c, 0, 64, 0
2, 3620, Note_on_c, 0, 57, 0
2, 3623, Note_on_c, 0, 60, 0
2, 3623, Note_on_c, 0, 81, 0
2, 3625, Note_on_c, 0, 76, 0
2, 3625, Note_on_c, 0, 85, 0
2, 3630, Note_on_c, 0, 84, 47
2, 3655, Note_on_c, 0, 84, 0
2, 3660, Note_on_c, 0, 83, 45
2, 3685, Note_on_c, 0, 83, 0
2, 3690, Note_on_c, 0, 82, 50
2, 3715, Note_on_c, 0, 82, 0
2, 3719, Note_on_c, 0, 76, 32
2, 3719, Note_on_c, 0, 72, 32
2, 3720, Note_on_c, 0, 81, 51
2, 3739, Note_on_c, 0, 72, 0
2, 3742, Note_on_c, 0, 76, 0
2, 3745, Note_on_c, 0, 81, 0
2, 3750, Note_on_c, 0, 80, 55
2, 3775, Note_on_c, 0, 80, 0
2, 3780, Note_on_c, 0, 83, 49
2, 3805, Note_on_c, 0, 83, 0
2, 3810, Note_on_c, 0, 81, 52
2, 3831, Control_c, 0, 64, 127
2, 3835, Note_on_c, 0, 81, 0
2, 3840, Note_on_c, 0, 79, 55
2, 3840, Note_on_c, 0, 47, 45
2, 3841, Note_on_c, 0, 71, 34
2, 3841, Note_on_c, 0, 76, 36
2, 3860, Note_on_c, 0, 47, 0
2, 3862, Note_on_c, 0, 76, 0
2, 3864, Note_on_c, 0, 71, 0
2, 3865, Note_on_c, 0, 79, 0
2, 3870, Note_on_c, 0, 80, 52
2, 3895, Note_on_c, 0, 80, 0
2, 3900, Note_on_c, 0, 81, 48
2, 3925, Note_on_c, 0, 81, 0
2, 3930, Note_on_c, 0, 82, 51
2, 3947, Control_c, 0, 64, 0
2, 3955, Note_on_c, 0, 82, 0
2, 3959, Note_on_c, 0, 76, 40
2, 3959, Note_on_c, 0, 79, 44
2, 3960, Note_on_c, 0, 83, 57
2, 3960, Note_on_c, 0, 67, 51
2, 3961, Note_on_c, 0, 64, 47
2, 3961, Note_on_c, 0, 59, 28
2, 3978, Note_on_c, 0, 64, 0
2, 3980, Note_on_c, 0, 79, 0
2, 3981, Note_on_c, 0, 76, 0
2, 3981, Note_on_c, 0, 59, 0
2, 3985, Note_on_c, 0, 67, 0
2, 3985, Note_on_c, 0, 83, 0
2, 3990, Note_on_c, 0, 84, 57
2, 4015, Note_on_c, 0, 84, 0
2, 4020, Note_on_c, 0, 83, 56
2, 4045, Note_on_c, 0, 83, 0
2, 4050, Note_on_c, 0, 82, 59
2, 4074, Control_c, 0, 64, 127
2, 4075, Note_on_c, 0, 82, 0
2, 4078, Note_on_c, 0, 78, 36
2, 4078, Note_on_c, 0, 75, 40
2, 4079, Note_on_c, 0, 47, 46
2, 4080, Note_on_c, 0, 81, 55
2, 4096, Note_on_c, 0, 47, 0
2, 4096, Note_on_c, 0, 78, 0
2, 4097, Note_on_c, 0, 75, 0
2, 4105, Note_on_c, 0, 81, 0
2, 4110, Note_on_c, 0, 80, 58
2, 4135, Note_on_c, 0, 80, 0
2, 4140, Note_on_c, 0, 79, 49
2, 4165, Note_on_c, 0, 79, 0
2, 4170, Note_on_c, 0, 78, 57
2, 4175, Control_c, 0, 64, 0
2, 4195, Note_on_c, 0, 78, 0
2, 4199, Note_on_c, 0, 75, 41
2, 4199, Note_on_c, 0, 69, 36
2, 4199, Note_on_c, 0, 66, 50
2, 4199, Note_on_c, 0, 59, 42
2, 4199, Note_on_c, 0, 71, 46
2, 4200, Note_on_c, 0, 77, 55
2, 4218, Note_on_c, 0, 75, 0
2, 4220, Note_on_c, 0, 69, 0
2, 4224, Note_on_c, 0, 71, 0
2, 4224, Note_on_c, 0, 66, 0
2, 4225, Note_on_c, 0, 77, 0
2, 4227, Note_on_c, 0, 59, 0
2, 4230, Note_on_c, 0, 78, 48
2, 4255, Note_on_c, 0, 78, 0
2, 4260, Note_on_c, 0, 79, 54
2, 4285, Note_on_c, 0, 79, 0
2, 4290, Note_on_c, 0, 78, 52
2, 4305, Control_c, 0, 64, 127
2, 4315, Note_on_c, 0, 78, 0
2, 4320, Note_on_c, 0, 76, 50
2, 4320, Note_on_c, 0, 71, 40
2, 4321, Note_on_c, 0, 68, 40
2, 4321, Note_on_c, 0, 52, 46
2, 4321, Note_on_c, 0, 64, 56
2, 4343, Note_on_c, 0, 68, 0
2, 4343, Note_on_c, 0, 71, 0
2, 4345, Note_on_c, 0, 76, 0
2, 4350, Note_on_c, 0, 77, 55
2, 4367, Note_on_c, 0, 64, 0
2, 4375, Note_on_c, 0, 77, 0
2, 4377, Note_on_c, 0, 52, 0
2, 4380, Note_on_c, 0, 75, 52
2, 4405, Note_on_c, 0, 75, 0
2, 4410, Note_on_c, 0, 76, 46
2, 4418, Control_c, 0, 64, 0
2, 4435, Note_on_c, 0, 76, 0
2, 4438, Note_on_c, 0, 69, 40
2, 4439, Note_on_c, 0, 65, 35
2, 4439, Note_on_c, 0, 40, 55
2, 4439, Note_on_c, 0, 52, 58
2, 4440, Note_on_c, 0, 74, 44
2, 4460, Note_on_c, 0, 69, 0
2, 4465, Note_on_c, 0, 74, 0
2, 4466, Note_on_c, 0, 65, 0
2, 4470, Note_on_c, 0, 76, 43
2, 4495, Note_on_c, 0, 76, 0
2, 4500, Note_on_c, 0, 73, 48
2, 4525, Note_on_c, 0, 73, 0
2, 4525, Note_on_c, 0, 52, 0
2, 4530, Note_on_c, 0, 40, 0
2, 4530, Note_on_c, 0, 74, 48
2, 4555, Note_on_c, 0, 74, 0
2, 4560, Note_on_c, 0, 72, 47
2, 4561, Note_on_c, 0, 69, 38
2, 4561, Note_on_c, 0, 64, 32
2, 4583, Note_on_c, 0, 69, 0
2, 4584, Note_on_c, 0, 64, 0
2, 4585, Note_on_c, 0, 72, 0
2, 4590, Note_on_c, 0, 74, 52
2, 4615, Note_on_c, 0, 74, 0
2, 4620, Note_on_c, 0, 71, 48
2, 4645, Note_on_c, 0, 71, 0
2, 4650, Note_on_c, 0, 72, 52
2, 4675, Note_on_c, 0, 72, 0
2, 4680, Note_on_c, 0, 71, 47
2, 4680, Note_on_c, 0, 40, 40
2, 4681, Note_on_c, 0, 68, 40
2, 4681, Note_on_c, 0, 52, 40
2, 4682, Note_on_c, 0, 62, 35
2, 4685, Control_c, 0, 64, 127
2, 4703, Note_on_c, 0, 62, 0
2, 4704, Note_on_c, 0, 68, 0
2, 4705, Note_on_c, 0, 71, 0
2, 4710, Note_on_c, 0, 72, 56
2, 4735, Note_on_c, 0, 72, 0
2, 4736, Note_on_c, 0, 52, 0
2, 4738, Control_c, 0, 64, 0
2, 4740, Note_on_c, 0, 40, 0
2, 4740, Note_on_c, 0, 70, 48
2, 4765, Note_on_c, 0, 70, 0
2, 4770, Note_on_c, 0, 71, 48
2, 4795, Note_on_c, 0, 71, 0
2, 4799, Note_on_c, 0, 45, 49
2, 4800, Note_on_c, 0, 69, 53
2, 4801, Note_on_c, 0, 64, 41
2, 4801, Note_on_c, 0, 60, 31
2, 4807, Control_c, 0, 64, 127
2, 4817, Note_on_c, 0, 60, 0
2, 4819, Note_on_c, 0, 45, 0
2, 4821, Note_on_c, 0, 64, 0
2, 4825, Note_on_c, 0, 69, 0
2, 4830, Note_on_c, 0, 70, 50
2, 4848, Control_c, 0, 64, 0
2, 4855, Note_on_c, 0, 70, 0
2, 4860, Note_on_c, 0, 71, 48
2, 4885, Note_on_c, 0, 71, 0
2, 4890, Note_on_c, 0, 72, 52
2, 4915, Note_on_c, 0, 72, 0
2, 4919, Note_on_c, 0, 52, 35
2, 4919, Note_on_c, 0, 60, 45
2, 4919, Note_on_c, 0, 57, 46
2, 4920, Note_on_c, 0, 73, 50
2, 4920, Note_on_c, 0, 64, 35
2, 4921, Note_on_c, 0, 69, 38
2, 4936, Note_on_c, 0, 57, 0
2, 4937, Note_on_c, 0, 64, 0
2, 4941, Note_on_c, 0, 69, 0
2, 4945, Note_on_c, 0, 52, 0
2, 4945, Note_on_c, 0, 73, 0
2, 4948, Note_on_c, 0, 60, 0
2, 4950, Note_on_c, 0, 74, 50
2, 4975, Note_on_c, 0, 74, 0
2, 4980, Note_on_c, 0, 75, 60
2, 5005, Note_on_c, 0, 75, 0
2, 5010, Note_on_c, 0, 76, 48
2, 5035, Note_on_c, 0, 76, 0
2, 5038, Note_on_c, 0, 45, 49
2, 5038, Control_c, 0, 64, 127
2, 5040, Note_on_c, 0, 77, 52
2, 5040, Note_on_c, 0, 74, 40
2, 5041, Note_on_c, 0, 69, 42
2, 5056, Note_on_c, 0, 69, 0
2, 5059, Note_on_c, 0, 74, 0
2, 5060, Note_on_c, 0, 45, 0
2, 5065, Note_on_c, 0, 77, 0
2, 5070, Note_on_c, 0, 78, 52
2, 5090, Control_c, 0, 64, 0
2, 5095, Note_on_c, 0, 78, 0
2, 5100, Note_on_c, 0, 79, 47
2, 5125, Note_on_c, 0, 79, 0
2, 5130, Note_on_c, 0, 80, 57
2, 5155, Note_on_c, 0, 80, 0
2, 5159, Note_on_c, 0, 77, 38
2, 5159, Note_on_c, 0, 74, 33
2, 5159, Note_on_c, 0, 62, 49
2, 5159, Note_on_c, 0, 57, 49
2, 5159, Note_on_c, 0, 53, 38
2, 5160, Note_on_c, 0, 81, 45
2, 5172, Note_on_c, 0, 74, 0
2, 5176, Note_on_c, 0, 77, 0
2, 5183, Note_on_c, 0, 53, 0
2, 5183, Note_on_c, 0, 57, 0
2, 5185, Note_on_c, 0, 81, 0
2, 5188, Note_on_c, 0, 62, 0
2, 5190, Note_on_c, 0, 82, 53
2, 5215, Note_on_c, 0, 82, 0
2, 5220, Note_on_c, 0, 83, 55
2, 5245, Note_on_c, 0, 83, 0
2, 5250, Note_on_c, 0, 84, 49
2, 5275, Note_on_c, 0, 84, 0
2, 5278, Note_on_c, 0, 45, 50
2, 5278, Note_on_c, 0, 33, 50
2, 5279, Note_on_c, 0, 81, 39
2, 5279, Note_on_c, 0, 76, 32
2, 5280, Note_on_c, 0, 85, 48
2, 5280, Control_c, 0, 64, 127
2, 5296, Note_on_c, 0, 33, 0
2, 5297, Note_on_c, 0, 76, 0
2, 5300, Note_on_c, 0, 81, 0
2, 5304, Note_on_c, 0, 45, 0
2, 5305, Note_on_c, 0, 85, 0
2, 5310, Note_on_c, 0, 86, 48
2, 5335, Note_on_c, 0, 86, 0
2, 5340, Note_on_c, 0, 87, 52
2, 5365, Note_on_c, 0, 87, 0
2, 5370, Note_on_c, 0, 88, 51
2, 5395, Note_on_c, 0, 88, 0
2, 5399, Note_on_c, 0, 81, 38
2, 5399, Note_on_c, 0, 84, 41
2, 5399, Note_on_c, 0, 60, 43
2, 5399, Note_on_c, 0, 52, 39
2, 5400, Note_on_c, 0, 89, 48
2, 5400, Note_on_c, 0, 57, 39
2, 5408, Control_c, 0, 64, 0
2, 5416, Note_on_c, 0, 84, 0
2, 5418, Note_on_c, 0, 81, 0
2, 5420, Note_on_c, 0, 57, 0
2, 5425, Note_on_c, 0, 89, 0
2, 5428, Note_on_c, 0, 52, 0
2, 5430, Note_on_c, 0, 60, 0
2, 5430, Note_on_c, 0, 88, 52
2, 5455, Note_on_c, 0, 88, 0
2, 5460, Note_on_c, 0, 87, 47
2, 5485, Note_on_c, 0, 87, 0
2, 5490, Note_on_c, 0, 86, 48
2, 5515, Note_on_c, 0, 86, 0
2, 5518, Note_on_c, 0, 60, 43
2, 5518, Note_on_c, 0, 57, 45
2, 5519, Note_on_c, 0, 81, 38
2, 5519, Note_on_c, 0, 76, 30
2, 5519, Note_on_c, 0, 64, 36
2, 5520, Note_on_c, 0, 85, 52
2, 5536, Note_on_c, 0, 81, 0
2, 5538, Note_on_c, 0, 76, 0
2, 5540, Note_on_c, 0, 57, 0
2, 5542, Note_on_c, 0, 60, 0
2, 5543, Note_on_c, 0, 64, 0
2, 5545, Note_on_c, 0, 85, 0
2, 5550, Note_on_c, 0, 84, 52
2, 5575, Note_on_c, 0, 84, 0
2, 5580, Note_on_c, 0, 83, 46
2, 5605, Note_on_c, 0, 83, 0
2, 5610, Note_on_c, 0, 82, 52
2, 5635, Note_on_c, 0, 82, 0
2, 5639, Note_on_c, 0, 76, 30
2, 5640, Note_on_c, 0, 81, 47
2, 5640, Note_on_c, 0, 72, 31
2, 5658, Note_on_c, 0, 72, 0
2, 5660, Note_on_c, 0, 76, 0
2, 5665, Note_on_c, 0, 81, 0
2, 5670, Note_on_c, 0, 80, 51
2, 5695, Note_on_c, 0, 80, 0
2, 5700, Note_on_c, 0, 83, 47
2, 5725, Note_on_c, 0, 83, 0
2, 5730, Note_on_c, 0, 81, 52
2, 5755, Note_on_c, 0, 81, 0
2, 5759, Note_on_c, 0, 76, 39
2, 5759, Note_on_c, 0, 71, 27
2, 5760, Note_on_c, 0, 80, 53
2, 5761, Note_on_c, 0, 40, 50
2, 5762, Control_c, 0, 64, 127
2, 5778, Note_on_c, 0, 71, 0
2, 5780, Note_on_c, 0, 76, 0
2, 5781, Note_on_c, 0, 40, 0
2, 5785, Note_on_c, 0, 80, 0
2, 5790, Note_on_c, 0, 79, 48
2, 5815, Note_on_c, 0, 79, 0
2, 5820, Note_on_c, 0, 78, 45
2, 5837, Control_c, 0, 64, 0
2, 5845, Note_on_c, 0, 78, 0
2, 5850, Note_on_c, 0, 77, 45
2, 5875, Note_on_c, 0, 77, 0
2, 5880, Note_on_c, 0, 76, 42
2, 5881, Note_on_c, 0, 71, 39
2, 5881, Note_on_c, 0, 68, 38
2, 5881, Note_on_c, 0, 52, 29
2, 5881, Note_on_c, 0, 59, 54
2, 5881, Note_on_c, 0, 62, 45
2, 5902, Note_on_c, 0, 68, 0
2, 5905, Note_on_c, 0, 76, 0
2, 5906, Note_on_c, 0, 62, 0
2, 5907, Note_on_c, 0, 59, 0
2, 5907, Note_on_c, 0, 71, 0
2, 5909, Note_on_c, 0, 52, 0
2, 5910, Note_on_c, 0, 75, 53
2, 5935, Note_on_c, 0, 75, 0
2, 5940, Note_on_c, 0, 77, 51
2, 5965, Note_on_c, 0, 77, 0
2, 5970, Note_on_c, 0, 76, 49
2, 5990, Control_c, 0, 64, 127
2, 5995, Note_on_c, 0, 76, 0
2, 5999, Note_on_c, 0, 45, 45
2, 6000, Note_on_c, 0, 75, 50
2, 6001, Note_on_c, 0, 72, 39
2, 6001, Note_on_c, 0, 69, 32
2, 6019, Note_on_c, 0, 69, 0
2, 6019, Note_on_c, 0, 72, 0
2, 6022, Note_on_c, 0, 45, 0
2, 6025, Note_on_c, 0, 75, 0
2, 6030, Note_on_c, 0, 74, 49
2, 6055, Note_on_c, 0, 74, 0
2, 6060, Note_on_c, 0, 73, 42
2, 6072, Control_c, 0, 64, 0
2, 6085, Note_on_c, 0, 73, 0
2, 6090, Note_on_c, 0, 72, 43
2, 6115, Note_on_c, 0, 72, 0
2, 6118, Note_on_c, 0, 64, 34
2, 6118, Note_on_c, 0, 69, 40
2, 6118, Note_on_c, 0, 52, 36
2, 6119, Note_on_c, 0, 57, 50
2, 6119, Note_on_c, 0, 60, 31
2, 6120, Note_on_c, 0, 71, 45
2, 6139, Note_on_c, 0, 69, 0
2, 6141, Note_on_c, 0, 57, 0
2, 6142, Note_on_c, 0, 64, 0
2, 6145, Note_on_c, 0, 71, 0
2, 6146, Note_on_c, 0, 52, 0
2, 6146, Note_on_c, 0, 60, 0
2, 6150, Note_on_c, 0, 72, 46
2, 6175, Note_on_c, 0, 72, 0
2, 6180, Note_on_c, 0, 74, 49
2, 6205, Note_on_c, 0, 74, 0
2, 6210, Note_on_c, 0, 72, 49
2, 6235, Note_on_c, 0, 72, 0
2, 6238, Note_on_c, 0, 52, 44
2, 6238, Note_on_c, 0, 59, 60
2, 6239, Note_on_c, 0, 68, 38
2, 6239, Note_on_c, 0, 64, 31
2, 6239, Control_c, 0, 64, 127
2, 6240, Note_on_c, 0, 71, 48
2, 6259, Note_on_c, 0, 64, 0
2, 6261, Note_on_c, 0, 68, 0
2, 6265, Note_on_c, 0, 71, 0
2, 6268, Note_on_c, 0, 59, 0
2, 6270, Note_on_c, 0, 72, 52
2, 6273, Note_on_c, 0, 52, 0
2, 6295, Note_on_c, 0, 72, 0
2, 6300, Note_on_c, 0, 71, 45
2, 6305, Control_c, 0, 64, 0
2, 6325, Note_on_c, 0, 71, 0
2, 6330, Note_on_c, 0, 72, 51
2, 6355, Note_on_c, 0, 72, 0
2, 6358, Note_on_c, 0, 59, 56
2, 6359, Note_on_c, 0, 63, 33
2, 6359, Note_on_c, 0, 69, 44
2, 6359, Note_on_c, 0, 53, 57
2, 6360, Note_on_c, 0, 71, 43
2, 6378, Note_on_c, 0, 63, 0
2, 6379, Note_on_c, 0, 69, 0
2, 6385, Note_on_c, 0, 71, 0
2, 6390, Note_on_c, 0, 72, 51
2, 6415, Note_on_c, 0, 72, 0
2, 6420, Note_on_c, 0, 71, 45
2, 6445, Note_on_c, 0, 71, 0
2, 6450, Note_on_c, 0, 72, 49
2, 6475, Note_on_c, 0, 72, 0
2, 6478, Note_on_c, 0, 52, 48
2, 6480, Note_on_c, 0, 71, 45
2, 6481, Note_on_c, 0, 68, 43
2, 6481, Note_on_c, 0, 64, 33
2, 6484, Note_on_c, 0, 53, 0
2, 6501, Note_on_c, 0, 68, 0
2, 6501, Note_on_c, 0, 64, 0
2, 6503, Note_on_c, 0, 52, 0
2, 6505, Note_on_c, 0, 71, 0
2, 6506, Note_on_c, 0, 59, 0
2, 6510, Note_on_c, 0, 76, 52
2, 6535, Note_on_c, 0, 76, 0
2, 6540, Note_on_c, 0, 75, 52
2, 6565, Note_on_c, 0, 75, 0
2, 6570, Note_on_c, 0, 74, 44
2, 6595, Note_on_c, 0, 74, 0
2, 6600, Note_on_c, 0, 73, 46
2, 6601, Note_on_c, 0, 68, 38
2, 6601, Note_on_c, 0, 62, 30
2, 6620, Note_on_c, 0, 62, 0
2, 6621, Note_on_c, 0, 68, 0
2, 6625, Note_on_c, 0, 73, 0
2, 6630, Note_on_c, 0, 72, 48
2, 6655, Note_on_c, 0, 72, 0
2, 6660, Note_on_c, 0, 71, 47
2, 6685, Note_on_c, 0, 71, 0
2, 6690, Note_on_c, 0, 70, 41
2, 6715, Note_on_c, 0, 70, 0
2, 6719, Note_on_c, 0, 45, 53
2, 6720, Note_on_c, 0, 69, 52
2, 6721, Note_on_c, 0, 64, 41
2, 6721, Note_on_c, 0, 60, 36
2, 6722, Control_c, 0, 64, 127
2, 6737, Note_on_c, 0, 60, 0
2, 6739, Note_on_c, 0, 64, 0
2, 6741, Note_on_c, 0, 45, 0
2, 6745, Note_on_c, 0, 69, 0
2, 6750, Note_on_c, 0, 70, 50
2, 6775, Note_on_c, 0, 70, 0
2, 6780, Note_on_c, 0, 71, 47
2, 6805, Note_on_c, 0, 71, 0
2, 6810, Note_on_c, 0, 72, 52
2, 6835, Note_on_c, 0, 72, 0
2, 6839, Control_c, 0, 64, 0
2, 6840, Note_on_c, 0, 73, 52
2, 6840, Note_on_c, 0, 52, 41
2, 6841, Note_on_c, 0, 60, 56
2, 6841, Note_on_c, 0, 57, 54
2, 6842, Note_on_c, 0, 69, 40
2, 6842, Note_on_c, 0, 64, 32
2, 6856, Note_on_c, 0, 64, 0
2, 6859, Note_on_c, 0, 69, 0
2, 6865, Note_on_c, 0, 73, 0
2, 6865, Note_on_c, 0, 57, 0
2, 6868, Note_on_c, 0, 52, 0
2, 6869, Note_on_c, 0, 60, 0
2, 6870, Note_on_c, 0, 74, 45
2, 6895, Note_on_c, 0, 74, 0
2, 6900, Note_on_c, 0, 75, 53
2, 6925, Note_on_c, 0, 75, 0
2, 6930, Note_on_c, 0, 76, 47
2, 6955, Note_on_c, 0, 76, 0
2, 6959, Note_on_c, 0, 69, 38
2, 6959, Note_on_c, 0, 74, 40
2, 6959, Note_on_c, 0, 45, 53
2, 6960, Note_on_c, 0, 77, 47
2, 6964, Control_c, 0, 64, 127
2, 6976, Note_on_c, 0, 69, 0
2, 6977, Note_on_c, 0, 74, 0
2, 6982, Note_on_c, 0, 45, 0
2, 6985, Note_on_c, 0, 77, 0
2, 6990, Note_on_c, 0, 78, 50
2, 7015, Note_on_c, 0, 78, 0
2, 7020, Note_on_c, 0, 79, 49
2, 7045, Note_on_c, 0, 79, 0
2, 7050, Note_on_c, 0, 80, 52
2, 7073, Control_c, 0, 64, 0
2, 7075, Note_on_c, 0, 80, 0
2, 7078, Note_on_c, 0, 77, 39
2, 7078, Note_on_c, 0, 53, 49
2, 7078, Note_on_c, 0, 62, 50
2, 7078, Note_on_c, 0, 57, 59
2, 7079, Note_on_c, 0, 74, 34
2, 7080, Note_on_c, 0, 81, 45
2, 7095, Note_on_c, 0, 74, 0
2, 7099, Note_on_c, 0, 77, 0
2, 7101, Note_on_c, 0, 57, 0
2, 7105, Note_on_c, 0, 53, 0
2, 7105, Note_on_c, 0, 81, 0
2, 7108, Note_on_c, 0, 62, 0
2, 7110, Note_on_c, 0, 82, 56
2, 7135, Note_on_c, 0, 82, 0
2, 7140, Note_on_c, 0, 83, 45
2, 7165, Note_on_c, 0, 83, 0
2, 7170, Note_on_c, 0, 84, 48
2, 7190, Control_c, 0, 64, 127
2, 7195, Note_on_c, 0, 84, 0
2, 7198, Note_on_c, 0, 76, 36
2, 7198, Note_on_c, 0, 81, 44
2, 7198, Note_on_c, 0, 45, 51
2, 7198, Note_on_c, 0, 33, 59
2, 7200, Note_on_c, 0, 85, 48
2, 7217, Note_on_c, 0, 76, 0
2, 7222, Note_on_c, 0, 81, 0
2, 7225, Note_on_c, 0, 85, 0
2, 7226, Note_on_c, 0, 33, 0
2, 7228, Note_on_c, 0, 45, 0
2, 7230, Note_on_c, 0, 86, 47
2, 7255, Note_on_c, 0, 86, 0
2, 7260, Note_on_c, 0, 87, 44
2, 7285, Note_on_c, 0, 87, 0
2, 7290, Note_on_c, 0, 88, 51
2, 7315, Note_on_c, 0, 88, 0
2, 7318, Note_on_c, 0, 84, 39
2, 7319, Note_on_c, 0, 81, 43
2, 7319, Note_on_c, 0, 52, 38
2, 7319, Note_on_c, 0, 57, 55
2, 7319, Note_on_c, 0, 60, 55
2, 7320, Note_on_c, 0, 89, 51
2, 7337, Note_on_c, 0, 81, 0
2, 7338, Note_on_c, 0, 57, 0
2, 7340, Note_on_c, 0, 52, 0
2, 7341, Note_on_c, 0, 60, 0
2, 7342, Note_on_c, 0, 84, 0
2, 7345, Note_on_c, 0, 89, 0
2, 7350, Note_on_c, 0, 88, 46
2, 7375, Note_on_c, 0, 88, 0
2, 7380, Note_on_c, 0, 87, 48
2, 7405, Note_on_c, 0, 87, 0
2, 7410, Note_on_c, 0, 86, 43
2, 7435, Note_on_c, 0, 86, 0
2, 7439, Note_on_c, 0, 76, 34
2, 7439, Note_on_c, 0, 64, 53
2, 7439, Note_on_c, 0, 60, 53
2, 7439, Note_on_c, 0, 57, 47
2, 7440, Note_on_c, 0, 85, 46
2, 7440, Note_on_c, 0, 81, 43
2, 7458, Note_on_c, 0, 60, 0
2, 7459, Note_on_c, 0, 81, 0
2, 7460, Note_on_c, 0, 57, 0
2, 7461, Note_on_c, 0, 76, 0
2, 7463, Note_on_c, 0, 64, 0
2, 7464, Control_c, 0, 64, 0
2, 7465, Note_on_c, 0, 85, 0
2, 7470, Note_on_c, 0, 84, 50
2, 7495, Note_on_c, 0, 84, 0
2, 7500, Note_on_c, 0, 83, 47
2, 7525, Note_on_c, 0, 83, 0
2, 7530, Note_on_c, 0, 82, 53
2, 7555, Note_on_c, 0, 82, 0
2, 7560, Note_on_c, 0, 81, 51
2, 7560, Note_on_c, 0, 76, 36
2, 7561, Note_on_c, 0, 72, 36
2, 7579, Note_on_c, 0, 72, 0
2, 7583, Note_on_c, 0, 76, 0
2, 7585, Note_on_c, 0, 81, 0
2, 7590, Note_on_c, 0, 80, 52
2, 7615, Note_on_c, 0, 80, 0
2, 7620, Note_on_c, 0, 83, 58
2, 7645, Note_on_c, 0, 83, 0
2, 7650, Note_on_c, 0, 81, 52
2, 7675, Note_on_c, 0, 81, 0
2, 7680, Note_on_c, 0, 82, 55
2, 7681, Note_on_c, 0, 74, 31
2, 7681, Note_on_c, 0, 77, 37
2, 7681, Note_on_c, 0, 38, 57
2, 7681, Note_on_c, 0, 50, 47
2, 7684, Control_c, 0, 64, 127
2, 7701, Note_on_c, 0, 38, 0
2, 7702, Note_on_c, 0, 77, 0
2, 7703, Note_on_c, 0, 50, 0
2, 7703, Note_on_c, 0, 74, 0
2, 7705, Note_on_c, 0, 82, 0
2, 7710, Note_on_c, 0, 83, 52
2, 7735, Note_on_c, 0, 83, 0
2, 7740, Note_on_c, 0, 84, 51
2, 7765, Note_on_c, 0, 84, 0
2, 7770, Note_on_c, 0, 85, 52
2, 7795, Note_on_c, 0, 85, 0
2, 7797, Control_c, 0, 64, 0
2, 7800, Note_on_c, 0, 86, 49
2, 7801, Note_on_c, 0, 82, 40
2, 7801, Note_on_c, 0, 77, 38
2, 7801, Note_on_c, 0, 50, 39
2, 7801, Note_on_c, 0, 62, 38
2, 7801, Note_on_c, 0, 53, 51
2, 7801, Note_on_c, 0, 58, 50
2, 7814, Note_on_c, 0, 77, 0
2, 7818, Note_on_c, 0, 82, 0
2, 7821, Note_on_c, 0, 53, 0
2, 7821, Note_on_c, 0, 58, 0
2, 7825, Note_on_c, 0, 86, 0
2, 7829, Note_on_c, 0, 50, 0
2, 7830, Note_on_c, 0, 62, 0
2, 7830, Note_on_c, 0, 87, 56
2, 7855, Note_on_c, 0, 87, 0
2, 7860, Note_on_c, 0, 88, 53
2, 7885, Note_on_c, 0, 88, 0
2, 7890, Note_on_c, 0, 89, 51
2, 7911, Control_c, 0, 64, 127
2, 7915, Note_on_c, 0, 89, 0
2, 7919, Note_on_c, 0, 40, 55
2, 7919, Note_on_c, 0, 52, 47
2, 7920, Note_on_c, 0, 88, 47
2, 7921, Note_on_c, 0, 80, 36
2, 7921, Note_on_c, 0, 86, 37
2, 7943, Note_on_c, 0, 80, 0
2, 7943, Note_on_c, 0, 40, 0
2, 7944, Note_on_c, 0, 86, 0
2, 7945, Note_on_c, 0, 88, 0
2, 7947, Note_on_c, 0, 52, 0
2, 7950, Note_on_c, 0, 89, 57
2, 7975, Note_on_c, 0, 89, 0
2, 7980, Note_on_c, 0, 90, 58
2, 8005, Note_on_c, 0, 90, 0
2, 8010, Note_on_c, 0, 91, 53
2, 8035, Note_on_c, 0, 91, 0
2, 8038, Note_on_c, 0, 52, 41
2, 8039, Note_on_c, 0, 59, 55
2, 8039, Note_on_c, 0, 62, 43
2, 8040, Note_on_c, 0, 92, 58
2, 8040, Note_on_c, 0, 86, 40
2, 8042, Control_c, 0, 64, 0
2, 8060, Note_on_c, 0, 86, 0
2, 8064, Note_on_c, 0, 59, 0
2, 8065, Note_on_c, 0, 92, 0
2, 8065, Note_on_c, 0, 62, 0
2, 8070, Note_on_c, 0, 52, 0
2, 8070, Note_on_c, 0, 93, 50
2, 8095, Note_on_c, 0, 93, 0
2, 8100, Note_on_c, 0, 94, 56
2, 8125, Note_on_c, 0, 94, 0
2, 8130, Note_on_c, 0, 95, 57
2, 8150, Control_c, 0, 64, 127
2, 8155, Note_on_c, 0, 95, 0
2, 8159, Note_on_c, 0, 41, 49
2, 8159, Note_on_c, 0, 53, 49
2, 8160, Note_on_c, 0, 93, 58
2, 8161, Note_on_c, 0, 89, 44
2, 8162, Note_on_c, 0, 84, 34
2, 8177, Note_on_c, 0, 84, 0
2, 8179, Note_on_c, 0, 53, 0
2, 8180, Note_on_c, 0, 41, 0
2, 8182, Note_on_c, 0, 89, 0
2, 8185, Note_on_c, 0, 93, 0
2, 8190, Note_on_c, 0, 92, 58
2, 8215, Note_on_c, 0, 92, 0
2, 8220, Note_on_c, 0, 91, 52
2, 8245, Note_on_c, 0, 91, 0
2, 8250, Note_on_c, 0, 90, 55
2, 8266, Control_c, 0, 64, 0
2, 8275, Note_on_c, 0, 90, 0
2, 8279, Note_on_c, 0, 57, 40
2, 8279, Note_on_c, 0, 65, 41
2, 8280, Note_on_c, 0, 89, 45
2, 8280, Note_on_c, 0, 84, 40
2, 8280, Note_on_c, 0, 60, 51
2, 8281, Note_on_c, 0, 81, 34
2, 8300, Note_on_c, 0, 84, 0
2, 8300, Note_on_c, 0, 65, 0
2, 8303, Note_on_c, 0, 60, 0
2, 8303, Note_on_c, 0, 81, 0
2, 8305, Note_on_c, 0, 89, 0
2, 8306, Note_on_c, 0, 57, 0
2, 8310, Note_on_c, 0, 88, 52
2, 8335, Note_on_c, 0, 88, 0
2, 8340, Note_on_c, 0, 87, 51
2, 8365, Note_on_c, 0, 87, 0
2, 8370, Note_on_c, 0, 86, 48
2, 8394, Control_c, 0, 64, 127
2, 8395, Note_on_c, 0, 86, 0
2, 8398, Note_on_c, 0, 36, 51
2, 8398, Note_on_c, 0, 48, 53
2, 8399, Note_on_c, 0, 81, 26
2, 8399, Note_on_c, 0, 76, 21
2, 8400, Note_on_c, 0, 85, 52
2, 8418, Note_on_c, 0, 81, 0
2, 8419, Note_on_c, 0, 36, 0
2, 8421, Note_on_c, 0, 76, 0
2, 8422, Note_on_c, 0, 48, 0
2, 8425, Note_on_c, 0, 85, 0
2, 8430, Note_on_c, 0, 84, 49
2, 8455, Note_on_c, 0, 84, 0
2, 8460, Note_on_c, 0, 83, 45
2, 8485, Note_on_c, 0, 83, 0
2, 8490, Note_on_c, 0, 82, 56
2, 8513, Control_c, 0, 64, 0
2, 8515, Note_on_c, 0, 82, 0
2, 8518, Note_on_c, 0, 76, 34
2, 8518, Note_on_c, 0, 52, 35
2, 8518, Note_on_c, 0, 57, 52
2, 8519, Note_on_c, 0, 72, 32
2, 8519, Note_on_c, 0, 64, 45
2, 8520, Note_on_c, 0, 81, 53
2, 8537, Note_on_c, 0, 72, 0
2, 8539, Note_on_c, 0, 76, 0
2, 8545, Note_on_c, 0, 81, 0
2, 8546, Note_on_c, 0, 57, 0
2, 8550, Note_on_c, 0, 64, 0
2, 8550, Note_on_c, 0, 52, 0
2, 8550, Note_on_c, 0, 80, 54
2, 8575, Note_on_c, 0, 80, 0
2, 8580, Note_on_c, 0, 79, 47
2, 8605, Note_on_c, 0, 79, 0
2, 8610, Note_on_c, 0, 78, 52
2, 8635, Note_on_c, 0, 78, 0
2, 8640, Note_on_c, 0, 77, 50
2, 8641, Note_on_c, 0, 70, 37
2, 8641, Note_on_c, 0, 74, 37
2, 8641, Note_on_c, 0, 38, 50
2, 8659, Note_on_c, 0, 74, 0
2, 8662, Note_on_c, 0, 38, 0
2, 8664, Note_on_c, 0, 70, 0
2, 8665, Note_on_c, 0, 77, 0
2, 8670, Note_on_c, 0, 76, 47
2, 8695, Note_on_c, 0, 76, 0
2, 8700, Note_on_c, 0, 75, 52
2, 8725, Note_on_c, 0, 75, 0
2, 8730, Note_on_c, 0, 74, 44
2, 8755, Note_on_c, 0, 74, 0
2, 8760, Note_on_c, 0, 73, 56
2, 8761, Note_on_c, 0, 70, 37
2, 8761, Note_on_c, 0, 65, 33
2, 8762, Note_on_c, 0, 58, 53
2, 8762, Note_on_c, 0, 50, 40
2, 8762, Note_on_c, 0, 53, 51
2, 8762, Note_on_c, 0, 62, 44
2, 8762, Control_c, 0, 64, 127
2, 8785, Note_on_c, 0, 73, 0
2, 8787, Note_on_c, 0, 70, 0
2, 8788, Note_on_c, 0, 65, 0
2, 8790, Note_on_c, 0, 74, 55
2, 8815, Note_on_c, 0, 74, 0
2, 8820, Note_on_c, 0, 77, 52
2, 8845, Note_on_c, 0, 77, 0
2, 8850, Note_on_c, 0, 74, 48
2, 8867, Control_c, 0, 64, 0
2, 8868, Note_on_c, 0, 50, 0
2, 8868, Note_on_c, 0, 53, 0
2, 8874, Note_on_c, 0, 62, 0
2, 8875, Note_on_c, 0, 74, 0
2, 8875, Note_on_c, 0, 58, 0
2, 8879, Note_on_c, 0, 57, 55
2, 8879, Note_on_c, 0, 60, 56
2, 8880, Note_on_c, 0, 71, 45
2, 8880, Note_on_c, 0, 52, 44
2, 8881, Note_on_c, 0, 69, 40
2, 8881, Note_on_c, 0, 64, 29
2, 8900, Note_on_c, 0, 69, 0
2, 8905, Note_on_c, 0, 71, 0
2, 8910, Note_on_c, 0, 72, 45
2, 8935, Note_on_c, 0, 72, 0
2, 8940, Note_on_c, 0, 76, 47
2, 8965, Note_on_c, 0, 76, 0
2, 8965, Note_on_c, 0, 57, 0
2, 8967, Note_on_c, 0, 64, 0
2, 8967, Note_on_c, 0, 60, 0
2, 8969, Note_on_c, 0, 52, 0
2, 8970, Note_on_c, 0, 72, 48
2, 8995, Note_on_c, 0, 72, 0
2, 8999, Note_on_c, 0, 68, 34
2, 8999, Note_on_c, 0, 52, 50
2, 9000, Note_on_c, 0, 70, 48
2, 9001, Note_on_c, 0, 62, 24
2, 9007, Control_c, 0, 64, 127
2, 9025, Note_on_c, 0, 70, 0
2, 9026, Note_on_c, 0, 68, 0
2, 9027, Note_on_c, 0, 62, 0
2, 9030, Note_on_c, 0, 71, 46
2, 9055, Note_on_c, 0, 71, 0
2, 9060, Note_on_c, 0, 76, 48
2, 9085, Note_on_c, 0, 76, 0
2, 9088, Note_on_c, 0, 52, 0
2, 9090, Note_on_c, 0, 71, 50
2, 9115, Note_on_c, 0, 71, 0
2, 9118, Note_on_c, 0, 57, 56
2, 9119, Note_on_c, 0, 45, 52
2, 9120, Note_on_c, 0, 69, 44
2, 9122, Note_on_c, 0, 64, 39
2, 9122, Note_on_c, 0, 60, 27
2, 9130, Control_c, 0, 64, 0
2, 9140, Note_on_c, 0, 64, 0
2, 9141, Note_on_c, 0, 60, 0
2, 9145, Note_on_c, 0, 69, 0
2, 9150, Note_on_c, 0, 70, 47
2, 9175, Note_on_c, 0, 70, 0
2, 9180, Note_on_c, 0, 71, 45
2, 9205, Note_on_c, 0, 71, 0
2, 9210, Note_on_c, 0, 45, 0
2, 9210, Note_on_c, 0, 72, 51
2, 9216, Note_on_c, 0, 57, 0
2, 9235, Note_on_c, 0, 72, 0
2, 9240, Note_on_c, 0, 73, 53
2, 9241, Note_on_c, 0, 68, 39
2, 9241, Note_on_c, 0, 64, 24
2, 9241, Note_on_c, 0, 52, 51
2, 9241, Note_on_c, 0, 40, 52
2, 9242, Control_c, 0, 64, 127
2, 9258, Note_on_c, 0, 64, 0
2, 9265, Note_on_c, 0, 73, 0
2, 9265, Note_on_c, 0, 68, 0
2, 9270, Note_on_c, 0, 74, 46
2, 9295, Note_on_c, 0, 74, 0
2, 9300, Note_on_c, 0, 75, 53
2, 9317, Note_on_c, 0, 52, 0
2, 9317, Note_on_c, 0, 40, 0
2, 9325, Note_on_c, 0, 75, 0
2, 9328, Control_c, 0, 64, 0
2, 9330, Note_on_c, 0, 76, 45
2, 9355, Note_on_c, 0, 76, 0
2, 9359, Note_on_c, 0, 45, 55
2, 9359, Note_on_c, 0, 33, 53
2, 9360, Note_on_c, 0, 81, 53
2, 9361, Note_on_c, 0, 72, 36
2, 9361, Note_on_c, 0, 69, 32
2, 9363, Control_c, 0, 64, 127
2, 9377, Note_on_c, 0, 69, 0
2, 9379, Note_on_c, 0, 72, 0
2, 9385, Note_on_c, 0, 81, 0
2, 9390, Note_on_c, 0, 80, 52
2, 9415, Note_on_c, 0, 80, 0
2, 9420, Note_on_c, 0, 79, 45
2, 9441, Note_on_c, 0, 33, 0
2, 9442, Note_on_c, 0, 45, 0
2, 9445, Note_on_c, 0, 79, 0
2, 9450, Note_on_c, 0, 78, 50
2, 9475, Note_on_c, 0, 78, 0
2, 9480, Note_on_c, 0, 77, 51
2, 9505, Note_on_c, 0, 77, 0
2, 9507, Control_c, 0, 64, 0
2, 9510, Note_on_c, 0, 76, 47
2, 9535, Note_on_c, 0, 76, 0
2, 9540, Note_on_c, 0, 75, 48
2, 9565, Note_on_c, 0, 75, 0
2, 9570, Note_on_c, 0, 74, 48
2, 9595, Note_on_c, 0, 74, 0
2, 9599, Note_on_c, 0, 48, 53
2, 9599, Note_on_c, 0, 36, 55
2, 9600, Note_on_c, 0, 73, 50
2, 9601, Note_on_c, 0, 70, 38
2, 9601, Note_on_c, 0, 64, 36
2, 9620, Note_on_c, 0, 36, 0
2, 9622, Note_on_c, 0, 48, 0
2, 9625, Note_on_c, 0, 70, 0
2, 9625, Note_on_c, 0, 73, 0
2, 9626, Note_on_c, 0, 64, 0
2, 9630, Note_on_c, 0, 72, 49
2, 9655, Note_on_c, 0, 72, 0
2, 9660, Note_on_c, 0, 71, 47
2, 9685, Note_on_c, 0, 71, 0
2, 9690, Note_on_c, 0, 72, 53
2, 9715, Note_on_c, 0, 72, 0
2, 9718, Note_on_c, 0, 70, 36
2, 9719, Note_on_c, 0, 64, 34
2, 9720, Note_on_c, 0, 73, 53
2, 9721, Note_on_c, 0, 55, 51
2, 9721, Note_on_c, 0, 48, 44
2, 9721, Note_on_c, 0, 60, 44
2, 9745, Note_on_c, 0, 73, 0
2, 9746, Note_on_c, 0, 55, 0
2, 9746, Note_on_c, 0, 64, 0
2, 9747, Note_on_c, 0, 48, 0
2, 9748, Note_on_c, 0, 70, 0
2, 9749, Note_on_c, 0, 60, 0
2, 9750, Note_on_c, 0, 74, 45
2, 9775, Note_on_c, 0, 74, 0
2, 9780, Note_on_c, 0, 75, 50
2, 9805, Note_on_c, 0, 75, 0
2, 9810, Note_on_c, 0, 76, 44
2, 9835, Note_on_c, 0, 76, 0
2, 9838, Note_on_c, 0, 41, 55
2, 9839, Note_on_c, 0, 69, 38
2, 9840, Note_on_c, 0, 77, 45
2, 9859, Note_on_c, 0, 41, 0
2, 9862, Note_on_c, 0, 69, 0
2, 9865, Note_on_c, 0, 77, 0
2, 9870, Note_on_c, 0, 78, 54
2, 9895, Note_on_c, 0, 78, 0
2, 9900, Note_on_c, 0, 79, 45
2, 9925, Note_on_c, 0, 79, 0
2, 9930, Note_on_c, 0, 80, 52
2, 9955, Note_on_c, 0, 80, 0
2, 9958, Note_on_c, 0, 72, 40
2, 9959, Note_on_c, 0, 57, 50
2, 9959, Note_on_c, 0, 48, 37
2, 9960, Note_on_c, 0, 81, 55
2, 9961, Note_on_c, 0, 60, 42
2, 9979, Note_on_c, 0, 72, 0
2, 9982, Note_on_c, 0, 60, 0
2, 9984, Note_on_c, 0, 57, 0
2, 9985, Note_on_c, 0, 81, 0
2, 9986, Note_on_c, 0, 48, 0
2, 9990, Note_on_c, 0, 76, 46
2, 10015, Note_on_c, 0, 76, 0
2, 10020, Note_on_c, 0, 77, 49
2, 10045, Note_on_c, 0, 77, 0
2, 10050, Note_on_c, 0, 74, 45
2, 10075, Note_on_c, 0, 74, 0
2, 10079, Note_on_c, 0, 70, 43
2, 10079, Note_on_c, 0, 36, 47
2, 10080, Note_on_c, 0, 73, 45
2, 10102, Note_on_c, 0, 36, 0
2, 10102, Note_on_c, 0, 70, 0
2, 10105, Note_on_c, 0, 73, 0
2, 10110, Note_on_c, 0, 72, 45
2, 10135, Note_on_c, 0, 72, 0
2, 10140, Note_on_c, 0, 71, 45
2, 10165, Note_on_c, 0, 71, 0
2, 10170, Note_on_c, 0, 72, 45
2, 10195, Note_on_c, 0, 72, 0
2, 10199, Note_on_c, 0, 60, 40
2, 10199, Note_on_c, 0, 55, 53
2, 10199, Note_on_c, 0, 48, 39
2, 10200, Note_on_c, 0, 73, 50
2, 10201, Note_on_c, 0, 70, 40
2, 10201, Note_on_c, 0, 64, 34
2, 10225, Note_on_c, 0, 64, 0
2, 10225, Note_on_c, 0, 55, 0
2, 10225, Note_on_c, 0, 73, 0
2, 10226, Note_on_c, 0, 48, 0
2, 10228, Note_on_c, 0, 70, 0
2, 10230, Note_on_c, 0, 60, 0
2, 10230, Note_on_c, 0, 74, 45
2, 10255, Note_on_c, 0, 74, 0
2, 10260, Note_on_c, 0, 75, 55
2, 10285, Note_on_c, 0, 75, 0
2, 10290, Note_on_c, 0, 76, 48
2, 10315, Note_on_c, 0, 76, 0
2, 10319, Note_on_c, 0, 68, 43
2, 10319, Note_on_c, 0, 37, 53
2, 10320, Note_on_c, 0, 77, 49
2, 10321, Note_on_c, 0, 65, 35
2, 10344, Note_on_c, 0, 37, 0
2, 10345, Note_on_c, 0, 65, 0
2, 10345, Note_on_c, 0, 77, 0
2, 10346, Note_on_c, 0, 68, 0
2, 10350, Note_on_c, 0, 78, 52
2, 10375, Note_on_c, 0, 78, 0
2, 10380, Note_on_c, 0, 79, 45
2, 10405, Note_on_c, 0, 79, 0
2, 10410, Note_on_c, 0, 80, 53
2, 10435, Note_on_c, 0, 80, 0
2, 10439, Note_on_c, 0, 71, 43
2, 10440, Note_on_c, 0, 79, 51
2, 10441, Note_on_c, 0, 56, 54
2, 10441, Note_on_c, 0, 49, 45
2, 10442, Note_on_c, 0, 59, 46
2, 10463, Note_on_c, 0, 49, 0
2, 10464, Note_on_c, 0, 56, 0
2, 10464, Note_on_c, 0, 71, 0
2, 10465, Note_on_c, 0, 79, 0
2, 10465, Note_on_c, 0, 59, 0
2, 10470, Note_on_c, 0, 78, 53
2, 10495, Note_on_c, 0, 78, 0
2, 10500, Note_on_c, 0, 77, 48
2, 10525, Note_on_c, 0, 77, 0
2, 10530, Note_on_c, 0, 76, 44
2, 10555, Note_on_c, 0, 76, 0
2, 10559, Note_on_c, 0, 72, 43
2, 10560, Note_on_c, 0, 75, 50
2, 10560, Note_on_c, 0, 38, 55
2, 10563, Control_c, 0, 64, 127
2, 10578, Note_on_c, 0, 38, 0
2, 10580, Note_on_c, 0, 72, 0
2, 10585, Note_on_c, 0, 75, 0
2, 10590, Note_on_c, 0, 74, 46
2, 10608, Control_c, 0, 64, 0
2, 10615, Note_on_c, 0, 74, 0
2, 10620, Note_on_c, 0, 73, 50
2, 10645, Note_on_c, 0, 73, 0
2, 10650, Note_on_c, 0, 74, 46
2, 10675, Note_on_c, 0, 74, 0
2, 10679, Note_on_c, 0, 72, 41
2, 10679, Note_on_c, 0, 60, 51
2, 10680, Note_on_c, 0, 75, 51
2, 10680, Note_on_c, 0, 66, 37
2, 10680, Note_on_c, 0, 57, 44
2, 10681, Note_on_c, 0, 50, 28
2, 10699, Note_on_c, 0, 57, 0
2, 10702, Note_on_c, 0, 50, 0
2, 10703, Note_on_c, 0, 60, 0
2, 10705, Note_on_c, 0, 72, 0
2, 10705, Note_on_c, 0, 75, 0
2, 10706, Note_on_c, 0, 66, 0
2, 10710, Note_on_c, 0, 76, 45
2, 10735, Note_on_c, 0, 76, 0
2, 10740, Note_on_c, 0, 77, 48
2, 10765, Note_on_c, 0, 77, 0
2, 10770, Note_on_c, 0, 78, 50
2, 10784, Control_c, 0, 64, 127
2, 10795, Note_on_c, 0, 78, 0
2, 10799, Note_on_c, 0, 70, 37
2, 10799, Note_on_c, 0, 43, 52
2, 10800, Note_on_c, 0, 79, 48
2, 10820, Note_on_c, 0, 43, 0
2, 10823, Note_on_c, 0, 70, 0
2, 10825, Note_on_c, 0, 79, 0
2, 10830, Note_on_c, 0, 80, 52
2, 10842, Control_c, 0, 64, 0
2, 10855, Note_on_c, 0, 80, 0
2, 10860, Note_on_c, 0, 81, 46
2, 10885, Note_on_c, 0, 81, 0
2, 10890, Note_on_c, 0, 82, 52
2, 10915, Note_on_c, 0, 82, 0
2, 10919, Note_on_c, 0, 74, 37
2, 10919, Note_on_c, 0, 58, 51
2, 10919, Note_on_c, 0, 55, 46
2, 10919, Note_on_c, 0, 50, 33
2, 10920, Note_on_c, 0, 81, 54
2, 10940, Note_on_c, 0, 55, 0
2, 10942, Note_on_c, 0, 74, 0
2, 10943, Note_on_c, 0, 50, 0
2, 10945, Note_on_c, 0, 81, 0
2, 10949, Note_on_c, 0, 58, 0
2, 10950, Note_on_c, 0, 78, 51
2, 10975, Note_on_c, 0, 78, 0
2, 10980, Note_on_c, 0, 79, 55
2, 11005, Note_on_c, 0, 79, 0
2, 11010, Note_on_c, 0, 75, 54
2, 11021, Control_c, 0, 64, 127
2, 11035, Note_on_c, 0, 75, 0
2, 11039, Note_on_c, 0, 38, 57
2, 11040, Note_on_c, 0, 74, 49
2, 11041, Note_on_c, 0, 72, 36
2, 11059, Note_on_c, 0, 72, 0
2, 11060, Note_on_c, 0, 38, 0
2, 11065, Note_on_c, 0, 74, 0
2, 11070, Note_on_c, 0, 75, 52
2, 11087, Control_c, 0, 64, 0
2, 11095, Note_on_c, 0, 75, 0
2, 11100, Note_on_c, 0, 73, 52
2, 11125, Note_on_c, 0, 73, 0
2, 11130, Note_on_c, 0, 74, 47
2, 11155, Note_on_c, 0, 74, 0
2, 11160, Note_on_c, 0, 75, 52
2, 11161, Note_on_c, 0, 72, 41
2, 11161, Note_on_c, 0, 66, 34
2, 11161, Note_on_c, 0, 60, 47
2, 11161, Note_on_c, 0, 50, 39
2, 11161, Note_on_c, 0, 57, 45
2, 11179, Note_on_c, 0, 57, 0
2, 11180, Note_on_c, 0, 66, 0
2, 11183, Note_on_c, 0, 60, 0
2, 11183, Note_on_c, 0, 50, 0
2, 11185, Note_on_c, 0, 75, 0
2, 11186, Note_on_c, 0, 72, 0
2, 11190, Note_on_c, 0, 76, 45
2, 11215, Note_on_c, 0, 76, 0
2, 11220, Note_on_c, 0, 77, 45
2, 11245, Note_on_c, 0, 77, 0
2, 11250, Note_on_c, 0, 78, 49
2, 11267, Control_c, 0, 64, 127
2, 11275, Note_on_c, 0, 78, 0
2, 11279, Note_on_c, 0, 70, 37
2, 11279, Note_on_c, 0, 67, 36
2, 11280, Note_on_c, 0, 79, 47
2, 11281, Note_on_c, 0, 39, 55
2, 11299, Note_on_c, 0, 39, 0
2, 11300, Note_on_c, 0, 67, 0
2, 11303, Note_on_c, 0, 70, 0
2, 11305, Note_on_c, 0, 79, 0
2, 11310, Note_on_c, 0, 80, 49
2, 11335, Note_on_c, 0, 80, 0
2, 11337, Control_c, 0, 64, 0
2, 11340, Note_on_c, 0, 81, 45
2, 11365, Note_on_c, 0, 81, 0
2, 11370, Note_on_c, 0, 82, 52
2, 11395, Note_on_c, 0, 82, 0
2, 11398, Note_on_c, 0, 61, 45
2, 11398, Note_on_c, 0, 51, 40
2, 11398, Note_on_c, 0, 58, 51
2, 11399, Note_on_c, 0, 73, 35
2, 11400, Note_on_c, 0, 81, 49
2, 11417, Note_on_c, 0, 73, 0
2, 11421, Note_on_c, 0, 58, 0
2, 11422, Note_on_c, 0, 51, 0
2, 11425, Note_on_c, 0, 81, 0
2, 11427, Note_on_c, 0, 61, 0
2, 11430, Note_on_c, 0, 80, 53
2, 11455, Note_on_c, 0, 80, 0
2, 11460, Note_on_c, 0, 79, 46
2, 11485, Note_on_c, 0, 79, 0
2, 11490, Note_on_c, 0, 78, 45
2, 11492, Control_c, 0, 64, 127
2, 11515, Note_on_c, 0, 78, 0
2, 11519, Note_on_c, 0, 40, 53
2, 11520, Note_on_c, 0, 77, 49
2, 11521, Note_on_c, 0, 74, 41
2, 11535, Note_on_c, 0, 40, 0
2, 11539, Note_on_c, 0, 74, 0
2, 11545, Note_on_c, 0, 77, 0
2, 11550, Note_on_c, 0, 76, 46
2, 11575, Note_on_c, 0, 76, 0
2, 11580, Note_on_c, 0, 75, 46
2, 11605, Note_on_c, 0, 75, 0
2, 11610, Note_on_c, 0, 76, 48
2, 11621, Control_c, 0, 64, 0
2, 11635, Note_on_c, 0, 76, 0
2, 11639, Note_on_c, 0, 52, 39
2, 11639, Note_on_c, 0, 62, 56
2, 11640, Note_on_c, 0, 77, 48
2, 11640, Note_on_c, 0, 59, 51
2, 11641, Note_on_c, 0, 74, 40
2, 11641, Note_on_c, 0, 68, 32
2, 11658, Note_on_c, 0, 59, 0
2, 11664, Note_on_c, 0, 52, 0
2, 11664, Note_on_c, 0, 68, 0
2, 11665, Note_on_c, 0, 77, 0
2, 11665, Note_on_c, 0, 74, 0
2, 11666, Note_on_c, 0, 62, 0
2, 11670, Note_on_c, 0, 78, 52
2, 11695, Note_on_c, 0, 78, 0
2, 11700, Note_on_c, 0, 79, 45
2, 11725, Note_on_c, 0, 79, 0
2, 11730, Note_on_c, 0, 80, 47
2, 11745, Control_c, 0, 64, 127
2, 11755, Note_on_c, 0, 80, 0
2, 11759, Note_on_c, 0, 72, 40
2, 11759, Note_on_c, 0, 45, 46
2, 11760, Note_on_c, 0, 81, 45
2, 11779, Note_on_c, 0, 45, 0
2, 11780, Note_on_c, 0, 72, 0
2, 11785, Note_on_c, 0, 81, 0
2, 11790, Note_on_c, 0, 82, 52
2, 11815, Note_on_c, 0, 82, 0
2, 11820, Note_on_c, 0, 83, 51
2, 11845, Note_on_c, 0, 83, 0
2, 11850, Note_on_c, 0, 84, 51
2, 11868, Control_c, 0, 64, 0
2, 11875, Note_on_c, 0, 84, 0
2, 11878, Note_on_c, 0, 60, 49
2, 11878, Note_on_c, 0, 52, 31
2, 11878, Note_on_c, 0, 64, 45
2, 11879, Note_on_c, 0, 57, 53
2, 11880, Note_on_c, 0, 83, 50
2, 11880, Note_on_c, 0, 76, 34
2, 11899, Note_on_c, 0, 57, 0
2, 11901, Note_on_c, 0, 64, 0
2, 11902, Note_on_c, 0, 60, 0
2, 11903, Note_on_c, 0, 52, 0
2, 11903, Note_on_c, 0, 76, 0
2, 11905, Note_on_c, 0, 83, 0
2, 11910, Note_on_c, 0, 82, 48
2, 11935, Note_on_c, 0, 82, 0
2, 11940, Note_on_c, 0, 81, 43
2, 11965, Note_on_c, 0, 81, 0
2, 11970, Note_on_c, 0, 80, 51
2, 11979, Control_c, 0, 64, 127
2, 11995, Note_on_c, 0, 80, 0
2, 11999, Note_on_c, 0, 74, 40
2, 12000, Note_on_c, 0, 79, 53
2, 12001, Note_on_c, 0, 40, 51
2, 12016, Note_on_c, 0, 40, 0
2, 12021, Note_on_c, 0, 74, 0
2, 12025, Note_on_c, 0, 79, 0
2, 12030, Note_on_c, 0, 78, 45
2, 12055, Note_on_c, 0, 78, 0
2, 12060, Note_on_c, 0, 77, 46
2, 12085, Note_on_c, 0, 77, 0
2, 12090, Note_on_c, 0, 76, 51
2, 12106, Control_c, 0, 64, 0
2, 12115, Note_on_c, 0, 76, 0
2, 12119, Note_on_c, 0, 52, 43
2, 12120, Note_on_c, 0, 77, 45
2, 12121, Note_on_c, 0, 74, 38
2, 12121, Note_on_c, 0, 68, 34
2, 12121, Note_on_c, 0, 59, 55
2, 12121, Note_on_c, 0, 62, 48
2, 12140, Note_on_c, 0, 59, 0
2, 12141, Note_on_c, 0, 68, 0
2, 12142, Note_on_c, 0, 52, 0
2, 12142, Note_on_c, 0, 62, 0
2, 12145, Note_on_c, 0, 77, 0
2, 12145, Note_on_c, 0, 74, 0
2, 12150, Note_on_c, 0, 78, 45
2, 12175, Note_on_c, 0, 78, 0
2, 12180, Note_on_c, 0, 79, 55
2, 12205, Note_on_c, 0, 79, 0
2, 12210, Note_on_c, 0, 80, 52
2, 12220, Control_c, 0, 64, 127
2, 12235, Note_on_c, 0, 80, 0
2, 12239, Note_on_c, 0, 45, 59
2, 12240, Note_on_c, 0, 81, 50
2, 12240, Note_on_c, 0, 57, 53
2, 12241, Note_on_c, 0, 72, 40
2, 12256, Note_on_c, 0, 72, 0
2, 12265, Note_on_c, 0, 81, 0
2, 12270, Note_on_c, 0, 82, 50
2, 12295, Note_on_c, 0, 82, 0
2, 12300, Note_on_c, 0, 83, 51
2, 12325, Note_on_c, 0, 83, 0
2, 12330, Note_on_c, 0, 84, 49
2, 12334, Note_on_c, 0, 57, 0
2, 12339, Control_c, 0, 64, 0
2, 12346, Control_c, 0, 64, 127
2, 12355, Note_on_c, 0, 84, 0
2, 12359, Note_on_c, 0, 55, 50
2, 12360, Note_on_c, 0, 85, 46
2, 12361, Note_on_c, 0, 76, 36
2, 12361, Note_on_c, 0, 81, 40
2, 12361, Note_on_c, 0, 43, 47
2, 12372, Note_on_c, 0, 45, 0
2, 12380, Note_on_c, 0, 76, 0
2, 12382, Note_on_c, 0, 81, 0
2, 12385, Note_on_c, 0, 85, 0
2, 12390, Note_on_c, 0, 86, 52
2, 12415, Note_on_c, 0, 86, 0
2, 12420, Note_on_c, 0, 87, 52
2, 12445, Note_on_c, 0, 87, 0
2, 12450, Note_on_c, 0, 88, 49
2, 12453, Note_on_c, 0, 55, 0
2, 12466, Control_c, 0, 64, 0
2, 12472, Note_on_c, 0, 43, 0
2, 12475, Note_on_c, 0, 88, 0
2, 12478, Note_on_c, 0, 41, 64
2, 12479, Note_on_c, 0, 53, 53
2, 12480, Note_on_c, 0, 89, 43
2, 12481, Note_on_c, 0, 81, 33
2, 12500, Note_on_c, 0, 81, 0
2, 12505, Note_on_c, 0, 89, 0
2, 12506, Note_on_c, 0, 41, 0
2, 12507, Note_on_c, 0, 53, 0
2, 12510, Note_on_c, 0, 88, 48
2, 12535, Note_on_c, 0, 88, 0
2, 12540, Note_on_c, 0, 87, 54
2, 12565, Note_on_c, 0, 87, 0
2, 12570, Note_on_c, 0, 86, 47
2, 12580, Control_c, 0, 64, 127
2, 12595, Note_on_c, 0, 86, 0
2, 12598, Note_on_c, 0, 59, 61
2, 12598, Note_on_c, 0, 47, 63
2, 12600, Note_on_c, 0, 85, 46
2, 12601, Note_on_c, 0, 81, 35
2, 12601, Note_on_c, 0, 77, 35
2, 12623, Note_on_c, 0, 77, 0
2, 12623, Note_on_c, 0, 81, 0
2, 12625, Note_on_c, 0, 85, 0
2, 12630, Note_on_c, 0, 84, 45
2, 12655, Note_on_c, 0, 84, 0
2, 12660, Note_on_c, 0, 83, 49
2, 12685, Note_on_c, 0, 83, 0
2, 12690, Note_on_c, 0, 82, 48
2, 12715, Note_on_c, 0, 82, 0
2, 12719, Note_on_c, 0, 77, 37
2, 12719, Note_on_c, 0, 74, 31
2, 12720, Note_on_c, 0, 81, 45
2, 12738, Note_on_c, 0, 77, 0
2, 12741, Note_on_c, 0, 74, 0
2, 12745, Note_on_c, 0, 81, 0
2, 12750, Note_on_c, 0, 80, 52
2, 12775, Note_on_c, 0, 80, 0
2, 12780, Note_on_c, 0, 79, 46
2, 12805, Note_on_c, 0, 79, 0
2, 12808, Control_c, 0, 64, 0
2, 12810, Note_on_c, 0, 78, 46
2, 12814, Note_on_c, 0, 47, 0
2, 12819, Note_on_c, 0, 59, 0
2, 12835, Note_on_c, 0, 78, 0
2, 12837, Control_c, 0, 64, 127
2, 12839, Note_on_c, 0, 68, 34
2, 12839, Note_on_c, 0, 74, 30
2, 12839, Note_on_c, 0, 64, 70
2, 12839, Note_on_c, 0, 52, 37
2, 12840, Note_on_c, 0, 77, 55
2, 12857, Note_on_c, 0, 68, 0
2, 12858, Note_on_c, 0, 64, 0
2, 12861, Note_on_c, 0, 52, 0
2, 12862, Note_on_c, 0, 74, 0
2, 12865, Note_on_c, 0, 77, 0
2, 12870, Note_on_c, 0, 76, 44
2, 12895, Note_on_c, 0, 76, 0
2, 12900, Note_on_c, 0, 75, 40
2, 12904, Control_c, 0, 64, 0
2, 12925, Note_on_c, 0, 75, 0
2, 12930, Note_on_c, 0, 76, 41
2, 12955, Note_on_c, 0, 76, 0
2, 12960, Note_on_c, 0, 87, 46
2, 12960, Note_on_c, 0, 79, 31
2, 12961, Note_on_c, 0, 39, 62
2, 12961, Note_on_c, 0, 51, 67
2, 12980, Note_on_c, 0, 79, 0
2, 12983, Note_on_c, 0, 39, 0
2, 12984, Note_on_c, 0, 51, 0
2, 12985, Note_on_c, 0, 87, 0
2, 12990, Note_on_c, 0, 86, 45
2, 13015, Note_on_c, 0, 86, 0
2, 13020, Note_on_c, 0, 85, 42
2, 13045, Note_on_c, 0, 85, 0
2, 13050, Note_on_c, 0, 84, 39
2, 13075, Note_on_c, 0, 84, 0
2, 13077, Control_c, 0, 64, 127
2, 13079, Note_on_c, 0, 45, 60
2, 13079, Note_on_c, 0, 57, 56
2, 13080, Note_on_c, 0, 83, 43
2, 13081, Note_on_c, 0, 75, 40
2, 13082, Note_on_c, 0, 79, 35
2, 13100, Note_on_c, 0, 75, 0
2, 13105, Note_on_c, 0, 83, 0
2, 13106, Note_on_c, 0, 79, 0
2, 13110, Note_on_c, 0, 82, 45
2, 13135, Note_on_c, 0, 82, 0
2, 13140, Note_on_c, 0, 81, 45
2, 13165, Note_on_c, 0, 81, 0
2, 13170, Note_on_c, 0, 80, 49
2, 13195, Note_on_c, 0, 80, 0
2, 13199, Note_on_c, 0, 75, 40
2, 13200, Note_on_c, 0, 79, 45
2, 13201, Note_on_c, 0, 72, 35
2, 13218, Note_on_c, 0, 75, 0
2, 13222, Note_on_c, 0, 72, 0
2, 13225, Note_on_c, 0, 79, 0
2, 13230, Note_on_c, 0, 78, 45
2, 13255, Note_on_c, 0, 78, 0
2, 13260, Note_on_c, 0, 77, 44
2, 13275, Note_on_c, 0, 45, 0
2, 13277, Control_c, 0, 64, 0
2, 13278, Note_on_c, 0, 57, 0
2, 13285, Note_on_c, 0, 77, 0
2, 13290, Note_on_c, 0, 76, 46
2, 13310, Control_c, 0, 64, 127
2, 13315, Note_on_c, 0, 76, 0
2, 13319, Note_on_c, 0, 66, 34
2, 13319, Note_on_c, 0, 72, 31
2, 13319, Note_on_c, 0, 62, 61
2, 13319, Note_on_c, 0, 50, 61
2, 13320, Note_on_c, 0, 75, 51
2, 13336, Note_on_c, 0, 62, 0
2, 13337, Note_on_c, 0, 50, 0
2, 13340, Note_on_c, 0, 66, 0
2, 13345, Note_on_c, 0, 75, 0
2, 13346, Note_on_c, 0, 72, 0
2, 13350, Note_on_c, 0, 74, 45
2, 13375, Note_on_c, 0, 74, 0
2, 13380, Note_on_c, 0, 73, 45
2, 13405, Note_on_c, 0, 73, 0
2, 13410, Note_on_c, 0, 74, 45
2, 13411, Control_c, 0, 64, 0
2, 13435, Note_on_c, 0, 74, 0
2, 13439, Note_on_c, 0, 43, 65
2, 13439, Note_on_c, 0, 55, 62
2, 13440, Note_on_c, 0, 86, 45
2, 13441, Note_on_c, 0, 82, 42
2, 13441, Note_on_c, 0, 79, 36
2, 13459, Note_on_c, 0, 79, 0
2, 13460, Note_on_c, 0, 82, 0
2, 13465, Note_on_c, 0, 86, 0
2, 13467, Note_on_c, 0, 55, 0
2, 13468, Note_on_c, 0, 43, 0
2, 13470, Note_on_c, 0, 85, 44
2, 13495, Note_on_c, 0, 85, 0
2, 13500, Note_on_c, 0, 84, 41
2, 13525, Note_on_c, 0, 84, 0
2, 13530, Note_on_c, 0, 83, 42
2, 13545, Control_c, 0, 64, 127
2, 13555, Note_on_c, 0, 83, 0
2, 13559, Note_on_c, 0, 73, 37
2, 13559, Note_on_c, 0, 79, 41
2, 13559, Note_on_c, 0, 63, 61
2, 13559, Note_on_c, 0, 51, 65
2, 13560, Note_on_c, 0, 82, 51
2, 13576, Note_on_c, 0, 79, 0
2, 13582, Note_on_c, 0, 73, 0
2, 13585, Note_on_c, 0, 82, 0
2, 13590, Note_on_c, 0, 81, 47
2, 13615, Note_on_c, 0, 81, 0
2, 13620, Note_on_c, 0, 80, 53
2, 13645, Note_on_c, 0, 80, 0
2, 13650, Note_on_c, 0, 79, 47
2, 13665, Control_c, 0, 64, 0
2, 13675, Note_on_c, 0, 79, 0
2, 13676, Note_on_c, 0, 51, 0
2, 13679, Note_on_c, 0, 63, 0
2, 13679, Note_on_c, 0, 74, 33
2, 13679, Note_on_c, 0, 62, 63
2, 13679, Note_on_c, 0, 50, 52
2, 13680, Note_on_c, 0, 78, 53
2, 13681, Note_on_c, 0, 69, 19
2, 13699, Note_on_c, 0, 69, 0
2, 13703, Note_on_c, 0, 74, 0
2, 13704, Note_on_c, 0, 62, 0
2, 13705, Note_on_c, 0, 78, 0
2, 13709, Note_on_c, 0, 50, 0
2, 13710, Note_on_c, 0, 79, 41
2, 13735, Note_on_c, 0, 79, 0
2, 13740, Note_on_c, 0, 80, 52
2, 13765, Note_on_c, 0, 80, 0
2, 13770, Note_on_c, 0, 81, 43
2, 13779, Control_c, 0, 64, 127
2, 13795, Note_on_c, 0, 81, 0
2, 13799, Note_on_c, 0, 57, 61
2, 13799, Note_on_c, 0, 45, 54
2, 13800, Note_on_c, 0, 82, 48
2, 13801, Note_on_c, 0, 72, 39
2, 13801, Note_on_c, 0, 77, 41
2, 13818, Note_on_c, 0, 72, 0
2, 13824, Note_on_c, 0, 77, 0
2, 13825, Note_on_c, 0, 82, 0
2, 13830, Note_on_c, 0, 83, 44
2, 13855, Note_on_c, 0, 83, 0
2, 13860, Note_on_c, 0, 84, 49
2, 13885, Note_on_c, 0, 84, 0
2, 13890, Note_on_c, 0, 57, 0
2, 13890, Note_on_c, 0, 83, 51
2, 13911, Control_c, 0, 64, 0
2, 13915, Note_on_c, 0, 83, 0
2, 13918, Note_on_c, 0, 41, 58
2, 13919, Note_on_c, 0, 53, 51
2, 13920, Note_on_c, 0, 86, 45
2, 13921, Note_on_c, 0, 45, 0
2, 13922, Note_on_c, 0, 77, 36
2, 13922, Note_on_c, 0, 81, 42
2, 13941, Note_on_c, 0, 53, 0
2, 13943, Note_on_c, 0, 81, 0
2, 13944, Note_on_c, 0, 41, 0
2, 13945, Note_on_c, 0, 86, 0
2, 13945, Note_on_c, 0, 77, 0
2, 13950, Note_on_c, 0, 84, 48
2, 13975, Note_on_c, 0, 84, 0
2, 13980, Note_on_c, 0, 82, 54
2, 14005, Note_on_c, 0, 82, 0
2, 14010, Note_on_c, 0, 81, 46
2, 14020, Control_c, 0, 64, 127
2, 14035, Note_on_c, 0, 81, 0
2, 14039, Note_on_c, 0, 49, 62
2, 14039, Note_on_c, 0, 61, 57
2, 14040, Note_on_c, 0, 80, 52
2, 14041, Note_on_c, 0, 71, 29
2, 14041, Note_on_c, 0, 77, 37
2, 14062, Note_on_c, 0, 77, 0
2, 14065, Note_on_c, 0, 80, 0
2, 14068, Note_on_c, 0, 71, 0
2, 14070, Note_on_c, 0, 79, 44
2, 14095, Note_on_c, 0, 79, 0
2, 14100, Note_on_c, 0, 78, 52
2, 14125, Note_on_c, 0, 78, 0
2, 14130, Note_on_c, 0, 77, 45
2, 14145, Note_on_c, 0, 61, 0
2, 14149, Control_c, 0, 64, 0
2, 14155, Note_on_c, 0, 77, 0
2, 14157, Note_on_c, 0, 60, 50
2, 14157, Note_on_c, 0, 48, 55
2, 14160, Note_on_c, 0, 76, 45
2, 14161, Note_on_c, 0, 67, 31
2, 14161, Note_on_c, 0, 72, 39
2, 14171, Note_on_c, 0, 49, 0
2, 14182, Note_on_c, 0, 48, 0
2, 14183, Note_on_c, 0, 67, 0
2, 14183, Note_on_c, 0, 72, 0
2, 14184, Note_on_c, 0, 60, 0
2, 14185, Note_on_c, 0, 76, 0
2, 14190, Note_on_c, 0, 77, 45
2, 14215, Note_on_c, 0, 77, 0
2, 14220, Note_on_c, 0, 78, 48
2, 14245, Note_on_c, 0, 78, 0
2, 14250, Note_on_c, 0, 79, 48
2, 14261, Control_c, 0, 64, 127
2, 14275, Note_on_c, 0, 79, 0
2, 14279, Note_on_c, 0, 70, 37
2, 14279, Note_on_c, 0, 75, 40
2, 14279, Note_on_c, 0, 43, 58
2, 14280, Note_on_c, 0, 80, 51
2, 14280, Note_on_c, 0, 55, 51
2, 14304, Note_on_c, 0, 75, 0
2, 14305, Note_on_c, 0, 80, 0
2, 14305, Note_on_c, 0, 70, 0
2, 14310, Note_on_c, 0, 81, 47
2, 14335, Note_on_c, 0, 81, 0
2, 14340, Note_on_c, 0, 82, 54
2, 14358, Note_on_c, 0, 55, 0
2, 14365, Note_on_c, 0, 82, 0
2, 14370, Note_on_c, 0, 81, 45
2, 14370, Control_c, 0, 64, 0
2, 14382, Note_on_c, 0, 43, 0
2, 14395, Note_on_c, 0, 81, 0
2, 14399, Note_on_c, 0, 75, 33
2, 14399, Note_on_c, 0, 51, 58
2, 14399, Note_on_c, 0, 39, 59
2, 14400, Note_on_c, 0, 84, 47
2, 14401, Note_on_c, 0, 75, 37
2, 14401, Note_on_c, 0, 79, 39
2, 14415, Note_on_c, 0, 39, 0
2, 14418, Note_on_c, 0, 75, 0
2, 14418, Note_on_c, 0, 79, 0
2, 14419, Note_on_c, 0, 51, 0
2, 14421, Note_on_c, 0, 75, 0
2, 14425, Note_on_c, 0, 84, 0
2, 14430, Note_on_c, 0, 82, 48
2, 14455, Note_on_c, 0, 82, 0
2, 14460, Note_on_c, 0, 81, 45
2, 14485, Note_on_c, 0, 81, 0
2, 14490, Note_on_c, 0, 80, 50
2, 14515, Note_on_c, 0, 80, 0
2, 14517, Control_c, 0, 64, 127
2, 14518, Note_on_c, 0, 75, 41
2, 14519, Note_on_c, 0, 70, 33
2, 14519, Note_on_c, 0, 51, 60
2, 14519, Note_on_c, 0, 63, 64
2, 14520, Note_on_c, 0, 79, 47
2, 14536, Note_on_c, 0, 75, 0
2, 14539, Note_on_c, 0, 70, 0
2, 14545, Note_on_c, 0, 79, 0
2, 14550, Note_on_c, 0, 78, 52
2, 14575, Note_on_c, 0, 78, 0
2, 14580, Note_on_c, 0, 77, 46
2, 14605, Note_on_c, 0, 77, 0
2, 14610, Note_on_c, 0, 76, 45
2, 14635, Note_on_c, 0, 76, 0
2, 14639, Note_on_c, 0, 70, 37
2, 14639, Note_on_c, 0, 67, 33
2, 14640, Note_on_c, 0, 75, 45
2, 14661, Note_on_c, 0, 70, 0
2, 14663, Note_on_c, 0, 67, 0
2, 14665, Note_on_c, 0, 75, 0
2, 14670, Note_on_c, 0, 74, 45
2, 14674, Note_on_c, 0, 63, 0
2, 14687, Note_on_c, 0, 51, 0
2, 14695, Note_on_c, 0, 74, 0
2, 14700, Note_on_c, 0, 73, 45
2, 14725, Note_on_c, 0, 73, 0
2, 14730, Note_on_c, 0, 72, 42
2, 14753, Control_c, 0, 64, 0
2, 14755, Note_on_c, 0, 72, 0
2, 14759, Note_on_c, 0, 51, 64
2, 14759, Note_on_c, 0, 39, 59
2, 14760, Note_on_c, 0, 70, 50
2, 14761, Note_on_c, 0, 61, 29
2, 14761, Note_on_c, 0, 67, 41
2, 14784, Note_on_c, 0, 67, 0
2, 14785, Note_on_c, 0, 70, 0
2, 14785, Note_on_c, 0, 61, 0
2, 14790, Note_on_c, 0, 69, 43
2, 14815, Note_on_c, 0, 69, 0
2, 14820, Note_on_c, 0, 68, 45
2, 14845, Note_on_c, 0, 68, 0
2, 14850, Note_on_c, 0, 67, 44
2, 14858, Note_on_c, 0, 51, 0
2, 14869, Note_on_c, 0, 39, 0
2, 14875, Note_on_c, 0, 67, 0
2, 14878, Note_on_c, 0, 50, 62
2, 14878, Note_on_c, 0, 38, 64
2, 14880, Note_on_c, 0, 66, 47
2, 14882, Note_on_c, 0, 62, 38
2, 14882, Note_on_c, 0, 57, 34
2, 14896, Note_on_c, 0, 50, 0
2, 14898, Note_on_c, 0, 57, 0
2, 14899, Note_on_c, 0, 38, 0
2, 14902, Note_on_c, 0, 62, 0
2, 14905, Note_on_c, 0, 66, 0
2, 14910, Note_on_c, 0, 67, 47
2, 14935, Note_on_c, 0, 67, 0
2, 14940, Note_on_c, 0, 68, 52
2, 14965, Note_on_c, 0, 68, 0
2, 14970, Note_on_c, 0, 69, 44
2, 14995, Note_on_c, 0, 69, 0
2, 15000, Note_on_c, 0, 70, 48
2, 15000, Note_on_c, 0, 39, 56
2, 15001, Note_on_c, 0, 61, 30
2, 15001, Note_on_c, 0, 67, 40
2, 15001, Note_on_c, 0, 45, 60
2, 15024, Note_on_c, 0, 61, 0
2, 15025, Note_on_c, 0, 70, 0
2, 15027, Note_on_c, 0, 67, 0
2, 15030, Note_on_c, 0, 69, 45
2, 15055, Note_on_c, 0, 69, 0
2, 15060, Note_on_c, 0, 68, 41
2, 15085, Note_on_c, 0, 68, 0
2, 15090, Note_on_c, 0, 67, 47
2, 15115, Note_on_c, 0, 67, 0
2, 15119, Note_on_c, 0, 57, 38
2, 15119, Note_on_c, 0, 62, 41
2, 15119, Note_on_c, 0, 38, 63
2, 15119, Note_on_c, 0, 50, 54
2, 15120, Note_on_c, 0, 66, 43
2, 15126, Note_on_c, 0, 45, 0
2, 15138, Note_on_c, 0, 39, 0
2, 15140, Note_on_c, 0, 62, 0
2, 15140, Note_on_c, 0, 57, 0
2, 15145, Note_on_c, 0, 66, 0
2, 15150, Note_on_c, 0, 67, 45
2, 15160, Note_on_c, 0, 38, 0
2, 15160, Note_on_c, 0, 50, 0
2, 15175, Note_on_c, 0, 67, 0
2, 15180, Note_on_c, 0, 68, 48
2, 15205, Note_on_c, 0, 68, 0
2, 15210, Note_on_c, 0, 69, 47
2, 15235, Note_on_c, 0, 69, 0
2, 15239, Note_on_c, 0, 45, 61
2, 15239, Note_on_c, 0, 39, 53
2, 15240, Note_on_c, 0, 70, 49
2, 15241, Note_on_c, 0, 61, 33
2, 15241, Note_on_c, 0, 67, 42
2, 15260, Note_on_c, 0, 61, 0
2, 15264, Note_on_c, 0, 67, 0
2, 15265, Note_on_c, 0, 70, 0
2, 15270, Note_on_c, 0, 69, 44
2, 15295, Note_on_c, 0, 69, 0
2, 15300, Note_on_c, 0, 68, 52
2, 15325, Note_on_c, 0, 68, 0
2, 15330, Note_on_c, 0, 67, 47
2, 15355, Note_on_c, 0, 67, 0
2, 15360, Note_on_c, 0, 66, 48
2, 15360, Note_on_c, 0, 38, 62
2, 15361, Note_on_c, 0, 50, 50
2, 15362, Note_on_c, 0, 62, 34
2, 15362, Note_on_c, 0, 57, 36
2, 15363, Note_on_c, 0, 39, 0
2, 15363, Note_on_c, 0, 45, 0
2, 15384, Note_on_c, 0, 57, 0
2, 15385, Note_on_c, 0, 66, 0
2, 15387, Note_on_c, 0, 62, 0
2, 15390, Note_on_c, 0, 67, 44
2, 15398, Note_on_c, 0, 38, 0
2, 15402, Note_on_c, 0, 50, 0
2, 15415, Note_on_c, 0, 67, 0
2, 15420, Note_on_c, 0, 68, 50
2, 15445, Note_on_c, 0, 68, 0
2, 15450, Note_on_c, 0, 69, 43
2, 15468, Control_c, 0, 64, 127
2, 15475, Note_on_c, 0, 69, 0
2, 15479, Note_on_c, 0, 47, 53
2, 15480, Note_on_c, 0, 72, 51
2, 15480, Note_on_c, 0, 41, 59
2, 15481, Note_on_c, 0, 63, 40
2, 15505, Note_on_c, 0, 63, 0
2, 15505, Note_on_c, 0, 72, 0
2, 15510, Note_on_c, 0, 71, 45
2, 15535, Note_on_c, 0, 71, 0
2, 15540, Note_on_c, 0, 70, 44
2, 15565, Note_on_c, 0, 70, 0
2, 15570, Note_on_c, 0, 69, 46
2, 15582, Control_c, 0, 64, 0
2, 15595, Note_on_c, 0, 69, 0
2, 15598, Note_on_c, 0, 40, 63
2, 15599, Note_on_c, 0, 52, 53
2, 15600, Note_on_c, 0, 68, 47
2, 15602, Note_on_c, 0, 47, 0
2, 15602, Note_on_c, 0, 59, 31
2, 15602, Note_on_c, 0, 64, 37
2, 15612, Note_on_c, 0, 41, 0
2, 15618, Note_on_c, 0, 59, 0
2, 15619, Note_on_c, 0, 64, 0
2, 15625, Note_on_c, 0, 68, 0
2, 15630, Note_on_c, 0, 69, 48
2, 15635, Note_on_c, 0, 52, 0
2, 15636, Note_on_c, 0, 40, 0
2, 15655, Note_on_c, 0, 69, 0
2, 15660, Note_on_c, 0, 70, 47
2, 15685, Note_on_c, 0, 70, 0
2, 15690, Note_on_c, 0, 71, 43
2, 15711, Control_c, 0, 64, 127
2, 15715, Note_on_c, 0, 71, 0
2, 15719, Note_on_c, 0, 47, 59
2, 15720, Note_on_c, 0, 72, 49
2, 15720, Note_on_c, 0, 41, 58
2, 15721, Note_on_c, 0, 62, 38
2, 15721, Note_on_c, 0, 69, 33
2, 15742, Note_on_c, 0, 62, 0
2, 15745, Note_on_c, 0, 72, 0
2, 15745, Note_on_c, 0, 69, 0
2, 15750, Note_on_c, 0, 71, 46
2, 15775, Note_on_c, 0, 71, 0
2, 15780, Note_on_c, 0, 70, 43
2, 15805, Note_on_c, 0, 70, 0
2, 15810, Note_on_c, 0, 69, 44
2, 15827, Control_c, 0, 64, 0
2, 15835, Note_on_c, 0, 69, 0
2, 15839, Note_on_c, 0, 40, 65
2, 15840, Note_on_c, 0, 68, 48
2, 15840, Note_on_c, 0, 59, 45
2, 15840, Note_on_c, 0, 64, 45
2, 15840, Note_on_c, 0, 52, 58
2, 15845, Note_on_c, 0, 47, 0
2, 15846, Note_on_c, 0, 41, 0
2, 15899, Note_on_c, 0, 68, 0
2, 15899, Note_on_c, 0, 59, 0
2, 15899, Note_on_c, 0, 64, 0
2, 15952, Control_c, 0, 64, 127
2, 15960, Note_on_c, 0, 88, 47
2, 15961, Note_on_c, 0, 80, 33
2, 15961, Note_on_c, 0, 83, 39
2, 15985, Note_on_c, 0, 80, 0
2, 15985, Note_on_c, 0, 88, 0
2, 15986, Note_on_c, 0, 83, 0
2, 15990, Note_on_c, 0, 89, 42
2, 16015, Note_on_c, 0, 89, 0
2, 16020, Note_on_c, 0, 86, 43
2, 16045, Note_on_c, 0, 86, 0
2, 16050, Note_on_c, 0, 88, 41
2, 16070, Control_c, 0, 64, 0
2, 16075, Note_on_c, 0, 88, 0
2, 16080, Note_on_c, 0, 84, 45
2, 16081, Note_on_c, 0, 81, 41
2, 16081, Note_on_c, 0, 76, 30
2, 16102, Note_on_c, 0, 81, 0
2, 16105, Note_on_c, 0, 84, 0
2, 16109, Note_on_c, 0, 76, 0
2, 16110, Note_on_c, 0, 86, 38
2, 16135, Note_on_c, 0, 86, 0
2, 16140, Note_on_c, 0, 83, 40
2, 16165, Note_on_c, 0, 83, 0
2, 16170, Note_on_c, 0, 84, 41
2, 16195, Note_on_c, 0, 84, 0
2, 16199, Note_on_c, 0, 76, 40
2, 16200, Note_on_c, 0, 81, 40
2, 16200, Note_on_c, 0, 72, 33
2, 16220, Note_on_c, 0, 76, 0
2, 16225, Note_on_c, 0, 81, 0
2, 16225, Note_on_c, 0, 72, 0
2, 16230, Note_on_c, 0, 83, 38
2, 16255, Note_on_c, 0, 83, 0
2, 16260, Note_on_c, 0, 79, 43
2, 16285, Note_on_c, 0, 79, 0
2, 16290, Note_on_c, 0, 81, 36
2, 16315, Note_on_c, 0, 81, 0
2, 16320, Note_on_c, 0, 77, 43
2, 16321, Note_on_c, 0, 72, 40
2, 16321, Note_on_c, 0, 69, 31
2, 16341, Note_on_c, 0, 69, 0
2, 16343, Note_on_c, 0, 72, 0
2, 16345, Note_on_c, 0, 77, 0
2, 16350, Note_on_c, 0, 79, 45
2, 16375, Note_on_c, 0, 79, 0
2, 16380, Note_on_c, 0, 76, 39
2, 16405, Note_on_c, 0, 76, 0
2, 16407, Control_c, 0, 64, 126
2, 16410, Note_on_c, 0, 77, 37
2, 16439, Note_on_c, 0, 81, 37
2, 16440, Note_on_c, 0, 86, 45
2, 16460, Note_on_c, 0, 81, 0
2, 16465, Note_on_c, 0, 77, 0
2, 16465, Note_on_c, 0, 86, 0
2, 16470, Note_on_c, 0, 88, 48
2, 16495, Note_on_c, 0, 88, 0
2, 16500, Note_on_c, 0, 84, 41
2, 16525, Note_on_c, 0, 84, 0
2, 16530, Note_on_c, 0, 86, 43
2, 16555, Note_on_c, 0, 86, 0
2, 16560, Note_on_c, 0, 83, 41
2, 16561, Control_c, 0, 64, 0
2, 16562, Note_on_c, 0, 77, 31
2, 16562, Note_on_c, 0, 74, 31
2, 16583, Note_on_c, 0, 74, 0
2, 16585, Note_on_c, 0, 83, 0
2, 16585, Note_on_c, 0, 77, 0
2, 16590, Note_on_c, 0, 84, 42
2, 16615, Note_on_c, 0, 84, 0
2, 16620, Note_on_c, 0, 81, 42
2, 16645, Note_on_c, 0, 81, 0
2, 16650, Note_on_c, 0, 83, 44
2, 16675, Note_on_c, 0, 83, 0
2, 16680, Note_on_c, 0, 80, 46
2, 16681, Note_on_c, 0, 74, 33
2, 16681, Note_on_c, 0, 71, 26
2, 16703, Note_on_c, 0, 74, 0
2, 16705, Note_on_c, 0, 80, 0
2, 16707, Note_on_c, 0, 71, 0
2, 16710, Note_on_c, 0, 81, 43
2, 16735, Note_on_c, 0, 81, 0
2, 16740, Note_on_c, 0, 77, 44
2, 16765, Note_on_c, 0, 77, 0
2, 16770, Note_on_c, 0, 79, 41
2, 16795, Note_on_c, 0, 79, 0
2, 16799, Note_on_c, 0, 71, 33
2, 16800, Note_on_c, 0, 76, 37
2, 16800, Note_on_c, 0, 68, 32
2, 16820, Note_on_c, 0, 68, 0
2, 16825, Note_on_c, 0, 71, 0
2, 16825, Note_on_c, 0, 76, 0
2, 16830, Note_on_c, 0, 77, 41
2, 16855, Note_on_c, 0, 77, 0
2, 16860, Note_on_c, 0, 75, 45
2, 16885, Note_on_c, 0, 75, 0
2, 16887, Control_c, 0, 64, 127
2, 16890, Note_on_c, 0, 76, 47
2, 16920, Note_on_c, 0, 84, 45
2, 16920, Note_on_c, 0, 81, 40
2, 16943, Note_on_c, 0, 81, 0
2, 16945, Note_on_c, 0, 76, 0
2, 16945, Note_on_c, 0, 84, 0
2, 16950, Note_on_c, 0, 86, 45
2, 16975, Note_on_c, 0, 86, 0
2, 16980, Note_on_c, 0, 83, 41
2, 17005, Note_on_c, 0, 83, 0
2, 17010, Note_on_c, 0, 84, 46
2, 17035, Note_on_c, 0, 84, 0
2, 17039, Note_on_c, 0, 76, 33
2, 17039, Note_on_c, 0, 72, 34
2, 17040, Note_on_c, 0, 81, 43
2, 17041, Control_c, 0, 64, 0
2, 17062, Note_on_c, 0, 72, 0
2, 17065, Note_on_c, 0, 76, 0
2, 17065, Note_on_c, 0, 81, 0
2, 17070, Note_on_c, 0, 83, 44
2, 17095, Note_on_c, 0, 83, 0
2, 17100, Note_on_c, 0, 79, 43
2, 17125, Note_on_c, 0, 79, 0
2, 17130, Note_on_c, 0, 81, 40
2, 17155, Note_on_c, 0, 81, 0
2, 17158, Note_on_c, 0, 72, 38
2, 17159, Note_on_c, 0, 69, 31
2, 17160, Note_on_c, 0, 77, 43
2, 17179, Note_on_c, 0, 72, 0
2, 17180, Note_on_c, 0, 69, 0
2, 17185, Note_on_c, 0, 77, 0
2, 17190, Note_on_c, 0, 79, 44
2, 17215, Note_on_c, 0, 79, 0
2, 17220, Note_on_c, 0, 76, 38
2, 17245, Note_on_c, 0, 76, 0
2, 17250, Note_on_c, 0, 77, 43
2, 17275, Note_on_c, 0, 77, 0
2, 17279, Note_on_c, 0, 69, 35
2, 17279, Note_on_c, 0, 65, 29
2, 17280, Note_on_c, 0, 74, 44
2, 17303, Note_on_c, 0, 65, 0
2, 17303, Note_on_c, 0, 69, 0
2, 17305, Note_on_c, 0, 74, 0
2, 17310, Note_on_c, 0, 76, 42
2, 17335, Note_on_c, 0, 76, 0
2, 17340, Note_on_c, 0, 72, 44
2, 17365, Note_on_c, 0, 72, 0
2, 17370, Note_on_c, 0, 74, 42
2, 17395, Note_on_c, 0, 74, 0
2, 17399, Note_on_c, 0, 65, 33
2, 17399, Note_on_c, 0, 62, 29
2, 17400, Note_on_c, 0, 71, 45
2, 17422, Note_on_c, 0, 65, 0
2, 17424, Note_on_c, 0, 62, 0
2, 17425, Note_on_c, 0, 71, 0
2, 17430, Note_on_c, 0, 72, 41
2, 17455, Note_on_c, 0, 72, 0
2, 17460, Note_on_c, 0, 69, 40
2, 17485, Note_on_c, 0, 69, 0
2, 17490, Note_on_c, 0, 71, 38
2, 17515, Note_on_c, 0, 71, 0
2, 17519, Note_on_c, 0, 62, 36
2, 17519, Note_on_c, 0, 59, 35
2, 17520, Note_on_c, 0, 68, 49
2, 17538, Note_on_c, 0, 59, 0
2, 17540, Note_on_c, 0, 62, 0
2, 17545, Note_on_c, 0, 68, 0
2, 17550, Note_on_c, 0, 65, 45
2, 17575, Note_on_c, 0, 65, 0
2, 17580, Note_on_c, 0, 63, 48
2, 17605, Note_on_c, 0, 63, 0
2, 17610, Note_on_c, 0, 64, 41
2, 17635, Note_on_c, 0, 64, 0
2, 17640, Note_on_c, 0, 65, 44
2, 17665, Note_on_c, 0, 65, 0
2, 17670, Note_on_c, 0, 66, 46
2, 17695, Note_on_c, 0, 66, 0
2, 17700, Note_on_c, 0, 67, 45
2, 17725, Note_on_c, 0, 67, 0
2, 17727, Note_on_c, 0, 52, 0
2, 17729, Note_on_c, 0, 40, 0
2, 17730, Note_on_c, 0, 68, 48
2, 17755, Note_on_c, 0, 68, 0
2, 17760, Note_on_c, 0, 69, 45
2, 17761, Note_on_c, 0, 64, 39
2, 17761, Note_on_c, 0, 45, 52
2, 17762, Note_on_c, 0, 60, 36
2, 17775, Note_on_c, 0, 45, 0
2, 17778, Note_on_c, 0, 60, 0
2, 17779, Note_on_c, 0, 64, 0
2, 17785, Note_on_c, 0, 69, 0
2, 17790, Note_on_c, 0, 70, 52
2, 17815, Note_on_c, 0, 70, 0
2, 17820, Note_on_c, 0, 71, 50
2, 17845, Note_on_c, 0, 71, 0
2, 17850, Note_on_c, 0, 72, 55
2, 17875, Note_on_c, 0, 72, 0
2, 17879, Note_on_c, 0, 52, 39
2, 17879, Note_on_c, 0, 57, 47
2, 17879, Note_on_c, 0, 60, 45
2, 17880, Note_on_c, 0, 73, 48
2, 17881, Note_on_c, 0, 69, 43
2, 17881, Note_on_c, 0, 64, 33
2, 17895, Note_on_c, 0, 64, 0
2, 17895, Note_on_c, 0, 57, 0
2, 17897, Note_on_c, 0, 60, 0
2, 17900, Note_on_c, 0, 69, 0
2, 17900, Note_on_c, 0, 52, 0
2, 17905, Note_on_c, 0, 73, 0
2, 17910, Note_on_c, 0, 74, 46
2, 17935, Note_on_c, 0, 74, 0
2, 17940, Note_on_c, 0, 75, 50
2, 17965, Note_on_c, 0, 75, 0
2, 17970, Note_on_c, 0, 76, 47
2, 17995, Note_on_c, 0, 76, 0
2, 17998, Note_on_c, 0, 69, 37
2, 17998, Note_on_c, 0, 45, 49
2, 17999, Note_on_c, 0, 74, 40
2, 18000, Note_on_c, 0, 77, 52
2, 18013, Note_on_c, 0, 45, 0
2, 18014, Note_on_c, 0, 69, 0
2, 18017, Note_on_c, 0, 74, 0
2, 18025, Note_on_c, 0, 77, 0
2, 18030, Note_on_c, 0, 78, 49
2, 18055, Note_on_c, 0, 78, 0
2, 18060, Note_on_c, 0, 79, 48
2, 18085, Note_on_c, 0, 79, 0
2, 18090, Note_on_c, 0, 80, 53
2, 18115, Note_on_c, 0, 80, 0
2, 18119, Note_on_c, 0, 53, 40
2, 18119, Note_on_c, 0, 57, 55
2, 18119, Note_on_c, 0, 62, 45
2, 18120, Note_on_c, 0, 81, 40
2, 18120, Note_on_c, 0, 74, 36
2, 18120, Note_on_c, 0, 77, 38
2, 18137, Note_on_c, 0, 74, 0
2, 18138, Note_on_c, 0, 77, 0
2, 18139, Note_on_c, 0, 57, 0
2, 18140, Note_on_c, 0, 62, 0
2, 18142, Note_on_c, 0, 53, 0
2, 18145, Note_on_c, 0, 81, 0
2, 18150, Note_on_c, 0, 82, 52
2, 18175, Note_on_c, 0, 82, 0
2, 18180, Note_on_c, 0, 83, 51
2, 18205, Note_on_c, 0, 83, 0
2, 18210, Note_on_c, 0, 84, 47
2, 18235, Note_on_c, 0, 84, 0
2, 18236, Control_c, 0, 64, 127
2, 18239, Note_on_c, 0, 76, 34
2, 18239, Note_on_c, 0, 81, 42
2, 18239, Note_on_c, 0, 45, 53
2, 18240, Note_on_c, 0, 85, 46
2, 18256, Note_on_c, 0, 76, 0
2, 18260, Note_on_c, 0, 45, 0
2, 18261, Note_on_c, 0, 81, 0
2, 18265, Note_on_c, 0, 85, 0
2, 18270, Note_on_c, 0, 86, 47
2, 18295, Note_on_c, 0, 86, 0
2, 18300, Note_on_c, 0, 87, 53
2, 18325, Note_on_c, 0, 87, 0
2, 18330, Note_on_c, 0, 88, 53
2, 18355, Note_on_c, 0, 88, 0
2, 18358, Note_on_c, 0, 84, 37
2, 18358, Note_on_c, 0, 52, 39
2, 18358, Note_on_c, 0, 57, 53
2, 18358, Note_on_c, 0, 60, 51
2, 18358, Control_c, 0, 64, 0
2, 18359, Note_on_c, 0, 81, 40
2, 18360, Note_on_c, 0, 89, 51
2, 18377, Note_on_c, 0, 57, 0
2, 18378, Note_on_c, 0, 60, 0
2, 18378, Note_on_c, 0, 52, 0
2, 18379, Note_on_c, 0, 81, 0
2, 18381, Note_on_c, 0, 84, 0
2, 18385, Note_on_c, 0, 89, 0
2, 18390, Note_on_c, 0, 88, 45
2, 18415, Note_on_c, 0, 88, 0
2, 18420, Note_on_c, 0, 87, 45
2, 18445, Note_on_c, 0, 87, 0
2, 18450, Note_on_c, 0, 86, 41
2, 18475, Note_on_c, 0, 86, 0
2, 18478, Note_on_c, 0, 57, 44
2, 18478, Note_on_c, 0, 60, 52
2, 18479, Note_on_c, 0, 64, 39
2, 18480, Note_on_c, 0, 85, 46
2, 18481, Note_on_c, 0, 81, 45
2, 18481, Note_on_c, 0, 76, 33
2, 18493, Note_on_c, 0, 64, 0
2, 18494, Note_on_c, 0, 60, 0
2, 18495, Note_on_c, 0, 57, 0
2, 18500, Note_on_c, 0, 76, 0
2, 18501, Note_on_c, 0, 81, 0
2, 18505, Note_on_c, 0, 85, 0
2, 18510, Note_on_c, 0, 84, 45
2, 18535, Note_on_c, 0, 84, 0
2, 18540, Note_on_c, 0, 83, 48
2, 18565, Note_on_c, 0, 83, 0
2, 18570, Note_on_c, 0, 82, 49
2, 18595, Note_on_c, 0, 82, 0
2, 18599, Note_on_c, 0, 76, 38
2, 18600, Note_on_c, 0, 81, 47
2, 18601, Note_on_c, 0, 72, 38
2, 18615, Note_on_c, 0, 72, 0
2, 18617, Note_on_c, 0, 76, 0
2, 18625, Note_on_c, 0, 81, 0
2, 18630, Note_on_c, 0, 80, 53
2, 18655, Note_on_c, 0, 80, 0
2, 18660, Note_on_c, 0, 83, 59
2, 18685, Note_on_c, 0, 83, 0
2, 18690, Note_on_c, 0, 81, 52
2, 18715, Note_on_c, 0, 81, 0
2, 18719, Note_on_c, 0, 71, 31
2, 18719, Note_on_c, 0, 76, 37
2, 18720, Note_on_c, 0, 80, 48
2, 18721, Note_on_c, 0, 40, 51
2, 18739, Note_on_c, 0, 40, 0
2, 18739, Note_on_c, 0, 76, 0
2, 18740, Note_on_c, 0, 71, 0
2, 18745, Note_on_c, 0, 80, 0
2, 18750, Note_on_c, 0, 79, 46
2, 18775, Note_on_c, 0, 79, 0
2, 18780, Note_on_c, 0, 78, 44
2, 18805, Note_on_c, 0, 78, 0
2, 18810, Note_on_c, 0, 77, 41
2, 18835, Note_on_c, 0, 77, 0
2, 18840, Note_on_c, 0, 76, 47
2, 18841, Note_on_c, 0, 68, 31
2, 18841, Note_on_c, 0, 71, 39
2, 18841, Note_on_c, 0, 52, 41
2, 18841, Note_on_c, 0, 59, 53
2, 18841, Note_on_c, 0, 62, 46
2, 18857, Note_on_c, 0, 68, 0
2, 18861, Note_on_c, 0, 71, 0
2, 18862, Note_on_c, 0, 59, 0
2, 18862, Note_on_c, 0, 62, 0
2, 18865, Note_on_c, 0, 76, 0
2, 18866, Note_on_c, 0, 52, 0
2, 18870, Note_on_c, 0, 75, 49
2, 18895, Note_on_c, 0, 75, 0
2, 18900, Note_on_c, 0, 77, 47
2, 18925, Note_on_c, 0, 77, 0
2, 18930, Note_on_c, 0, 76, 44
2, 18955, Note_on_c, 0, 76, 0
2, 18959, Note_on_c, 0, 45, 47
2, 18960, Note_on_c, 0, 75, 41
2, 18961, Note_on_c, 0, 72, 44
2, 18961, Note_on_c, 0, 69, 37
2, 18977, Note_on_c, 0, 69, 0
2, 18977, Note_on_c, 0, 72, 0
2, 18978, Note_on_c, 0, 45, 0
2, 18985, Note_on_c, 0, 75, 0
2, 18990, Note_on_c, 0, 74, 43
2, 19015, Note_on_c, 0, 74, 0
2, 19020, Note_on_c, 0, 73, 38
2, 19045, Note_on_c, 0, 73, 0
2, 19050, Note_on_c, 0, 72, 41
2, 19075, Note_on_c, 0, 72, 0
2, 19079, Note_on_c, 0, 64, 34
2, 19079, Note_on_c, 0, 69, 40
2, 19079, Note_on_c, 0, 60, 49
2, 19079, Note_on_c, 0, 52, 33
2, 19079, Note_on_c, 0, 57, 45
2, 19080, Note_on_c, 0, 71, 47
2, 19090, Note_on_c, 0, 57, 0
2, 19095, Note_on_c, 0, 64, 0
2, 19096, Note_on_c, 0, 52, 0
2, 19097, Note_on_c, 0, 60, 0
2, 19098, Note_on_c, 0, 69, 0
2, 19105, Note_on_c, 0, 71, 0
2, 19110, Note_on_c, 0, 72, 38
2, 19135, Note_on_c, 0, 72, 0
2, 19140, Note_on_c, 0, 74, 45
2, 19165, Note_on_c, 0, 74, 0
2, 19170, Note_on_c, 0, 72, 41
2, 19195, Note_on_c, 0, 72, 0
2, 19199, Note_on_c, 0, 52, 49
2, 19200, Note_on_c, 0, 71, 45
2, 19200, Note_on_c, 0, 68, 38
2, 19201, Note_on_c, 0, 64, 31
2, 19201, Note_on_c, 0, 59, 49
2, 19216, Note_on_c, 0, 59, 0
2, 19216, Note_on_c, 0, 64, 0
2, 19219, Note_on_c, 0, 68, 0
2, 19221, Note_on_c, 0, 52, 0
2, 19225, Note_on_c, 0, 71, 0
2, 19230, Note_on_c, 0, 72, 49
2, 19255, Note_on_c, 0, 72, 0
2, 19260, Note_on_c, 0, 71, 42
2, 19285, Note_on_c, 0, 71, 0
2, 19290, Note_on_c, 0, 72, 41
2, 19315, Note_on_c, 0, 72, 0
2, 19319, Note_on_c, 0, 63, 34
2, 19319, Note_on_c, 0, 69, 43
2, 19319, Note_on_c, 0, 59, 50
2, 19319, Note_on_c, 0, 53, 53
2, 19320, Note_on_c, 0, 71, 42
2, 19334, Note_on_c, 0, 63, 0
2, 19338, Note_on_c, 0, 69, 0
2, 19345, Note_on_c, 0, 71, 0
2, 19350, Note_on_c, 0, 72, 45
2, 19375, Note_on_c, 0, 72, 0
2, 19380, Note_on_c, 0, 71, 40
2, 19405, Note_on_c, 0, 71, 0
2, 19410, Note_on_c, 0, 72, 46
2, 19435, Note_on_c, 0, 72, 0
2, 19439, Note_on_c, 0, 52, 49
2, 19440, Note_on_c, 0, 71, 45
2, 19440, Note_on_c, 0, 68, 40
2, 19441, Note_on_c, 0, 64, 33
2, 19444, Note_on_c, 0, 53, 0
2, 19453, Note_on_c, 0, 68, 0
2, 19453, Note_on_c, 0, 64, 0
2, 19460, Note_on_c, 0, 52, 0
2, 19460, Note_on_c, 0, 59, 0
2, 19465, Note_on_c, 0, 71, 0
2, 19470, Note_on_c, 0, 76, 47
2, 19495, Note_on_c, 0, 76, 0
2, 19500, Note_on_c, 0, 75, 50
2, 19525, Note_on_c, 0, 75, 0
2, 19530, Note_on_c, 0, 74, 46
2, 19555, Note_on_c, 0, 74, 0
2, 19559, Note_on_c, 0, 68, 40
2, 19559, Note_on_c, 0, 62, 36
2, 19560, Note_on_c, 0, 73, 47
2, 19575, Note_on_c, 0, 62, 0
2, 19575, Note_on_c, 0, 68, 0
2, 19585, Note_on_c, 0, 73, 0
2, 19590, Note_on_c, 0, 72, 47
2, 19615, Note_on_c, 0, 72, 0
2, 19620, Note_on_c, 0, 71, 42
2, 19645, Note_on_c, 0, 71, 0
2, 19650, Note_on_c, 0, 70, 48
2, 19672, Control_c, 0, 64, 127
2, 19675, Note_on_c, 0, 70, 0
2, 19680, Note_on_c, 0, 69, 46
2, 19680, Note_on_c, 0, 45, 50
2, 19681, Note_on_c, 0, 60, 32
2, 19681, Note_on_c, 0, 64, 39
2, 19698, Note_on_c, 0, 64, 0
2, 19698, Note_on_c, 0, 60, 0
2, 19698, Note_on_c, 0, 45, 0
2, 19705, Note_on_c, 0, 69, 0
2, 19710, Note_on_c, 0, 70, 46
2, 19735, Note_on_c, 0, 70, 0
2, 19740, Note_on_c, 0, 71, 41
2, 19765, Note_on_c, 0, 71, 0
2, 19770, Note_on_c, 0, 72, 41
2, 19795, Note_on_c, 0, 72, 0
2, 19797, Control_c, 0, 64, 0
2, 19799, Note_on_c, 0, 52, 39
2, 19799, Note_on_c, 0, 57, 50
2, 19799, Note_on_c, 0, 60, 47
2, 19800, Note_on_c, 0, 73, 49
2, 19802, Note_on_c, 0, 64, 35
2, 19802, Note_on_c, 0, 69, 40
2, 19816, Note_on_c, 0, 64, 0
2, 19817, Note_on_c, 0, 69, 0
2, 19818, Note_on_c, 0, 60, 0
2, 19818, Note_on_c, 0, 57, 0
2, 19823, Note_on_c, 0, 52, 0
2, 19825, Note_on_c, 0, 73, 0
2, 19830, Note_on_c, 0, 74, 44
2, 19855, Note_on_c, 0, 74, 0
2, 19860, Note_on_c, 0, 75, 49
2, 19885, Note_on_c, 0, 75, 0
2, 19890, Note_on_c, 0, 76, 41
2, 19907, Control_c, 0, 64, 127
2, 19915, Note_on_c, 0, 76, 0
2, 19919, Note_on_c, 0, 74, 41
2, 19919, Note_on_c, 0, 69, 37
2, 19919, Note_on_c, 0, 45, 49
2, 19920, Note_on_c, 0, 77, 45
2, 19931, Note_on_c, 0, 69, 0
2, 19934, Note_on_c, 0, 74, 0
2, 19939, Note_on_c, 0, 45, 0
2, 19945, Note_on_c, 0, 77, 0
2, 19950, Note_on_c, 0, 78, 50
2, 19975, Note_on_c, 0, 78, 0
2, 19980, Note_on_c, 0, 79, 44
2, 20005, Note_on_c, 0, 79, 0
2, 20010, Note_on_c, 0, 80, 51
2, 20030, Control_c, 0, 64, 0
2, 20035, Note_on_c, 0, 80, 0
2, 20038, Note_on_c, 0, 53, 36
2, 20038, Note_on_c, 0, 57, 50
2, 20038, Note_on_c, 0, 62, 35
2, 20039, Note_on_c, 0, 74, 32
2, 20039, Note_on_c, 0, 77, 40
2, 20040, Note_on_c, 0, 81, 45
2, 20054, Note_on_c, 0, 74, 0
2, 20055, Note_on_c, 0, 77, 0
2, 20056, Note_on_c, 0, 57, 0
2, 20059, Note_on_c, 0, 62, 0
2, 20060, Note_on_c, 0, 53, 0
2, 20065, Note_on_c, 0, 81, 0
2, 20070, Note_on_c, 0, 82, 50
2, 20095, Note_on_c, 0, 82, 0
2, 20100, Note_on_c, 0, 83, 44
2, 20125, Note_on_c, 0, 83, 0
2, 20130, Note_on_c, 0, 84, 43
2, 20144, Control_c, 0, 64, 127
2, 20155, Note_on_c, 0, 84, 0
2, 20159, Note_on_c, 0, 45, 51
2, 20159, Note_on_c, 0, 33, 56
2, 20160, Note_on_c, 0, 85, 48
2, 20161, Note_on_c, 0, 81, 37
2, 20161, Note_on_c, 0, 76, 28
2, 20177, Note_on_c, 0, 76, 0
2, 20180, Note_on_c, 0, 33, 0
2, 20181, Note_on_c, 0, 81, 0
2, 20182, Note_on_c, 0, 45, 0
2, 20185, Note_on_c, 0, 85, 0
2, 20190, Note_on_c, 0, 86, 45
2, 20215, Note_on_c, 0, 86, 0
2, 20220, Note_on_c, 0, 87, 48
2, 20245, Note_on_c, 0, 87, 0
2, 20250, Note_on_c, 0, 88, 49
2, 20275, Note_on_c, 0, 88, 0
2, 20279, Note_on_c, 0, 81, 39
2, 20279, Note_on_c, 0, 60, 54
2, 20279, Note_on_c, 0, 52, 36
2, 20279, Note_on_c, 0, 57, 45
2, 20280, Note_on_c, 0, 89, 45
2, 20280, Note_on_c, 0, 84, 36
2, 20295, Note_on_c, 0, 84, 0
2, 20297, Note_on_c, 0, 81, 0
2, 20299, Note_on_c, 0, 57, 0
2, 20305, Note_on_c, 0, 89, 0
2, 20305, Note_on_c, 0, 52, 0
2, 20309, Note_on_c, 0, 60, 0
2, 20310, Note_on_c, 0, 88, 52
2, 20335, Note_on_c, 0, 88, 0
2, 20340, Note_on_c, 0, 87, 45
2, 20365, Note_on_c, 0, 87, 0
2, 20370, Note_on_c, 0, 86, 45
2, 20395, Note_on_c, 0, 86, 0
2, 20398, Control_c, 0, 64, 0
2, 20399, Note_on_c, 0, 81, 35
2, 20399, Note_on_c, 0, 76, 29
2, 20399, Note_on_c, 0, 64, 45
2, 20399, Note_on_c, 0, 57, 49
2, 20399, Note_on_c, 0, 60, 46
2, 20400, Note_on_c, 0, 85, 43
2, 20414, Note_on_c, 0, 81, 0
2, 20415, Note_on_c, 0, 60, 0
2, 20418, Note_on_c, 0, 57, 0
2, 20419, Note_on_c, 0, 76, 0
2, 20424, Note_on_c, 0, 64, 0
2, 20425, Note_on_c, 0, 85, 0
2, 20430, Note_on_c, 0, 84, 49
2, 20455, Note_on_c, 0, 84, 0
2, 20460, Note_on_c, 0, 83, 45
2, 20485, Note_on_c, 0, 83, 0
2, 20490, Note_on_c, 0, 82, 45
2, 20515, Note_on_c, 0, 82, 0
2, 20519, Note_on_c, 0, 76, 33
2, 20519, Note_on_c, 0, 72, 31
2, 20520, Note_on_c, 0, 81, 46
2, 20538, Note_on_c, 0, 72, 0
2, 20541, Note_on_c, 0, 76, 0
2, 20545, Note_on_c, 0, 81, 0
2, 20550, Note_on_c, 0, 80, 48
2, 20575, Note_on_c, 0, 80, 0
2, 20580, Note_on_c, 0, 83, 44
2, 20605, Note_on_c, 0, 83, 0
2, 20610, Note_on_c, 0, 81, 46
2, 20626, Control_c, 0, 64, 127
2, 20635, Note_on_c, 0, 81, 0
2, 20639, Note_on_c, 0, 38, 58
2, 20639, Note_on_c, 0, 50, 55
2, 20640, Note_on_c, 0, 82, 46
2, 20640, Note_on_c, 0, 77, 35
2, 20641, Note_on_c, 0, 74, 30
2, 20661, Note_on_c, 0, 74, 0
2, 20661, Note_on_c, 0, 77, 0
2, 20662, Note_on_c, 0, 50, 0
2, 20663, Note_on_c, 0, 38, 0
2, 20665, Note_on_c, 0, 82, 0
2, 20670, Note_on_c, 0, 83, 47
2, 20695, Note_on_c, 0, 83, 0
2, 20700, Note_on_c, 0, 84, 48
2, 20725, Note_on_c, 0, 84, 0
2, 20730, Note_on_c, 0, 85, 48
2, 20755, Note_on_c, 0, 85, 0
2, 20756, Control_c, 0, 64, 0
2, 20760, Note_on_c, 0, 86, 47
2, 20761, Note_on_c, 0, 82, 39
2, 20761, Note_on_c, 0, 77, 33
2, 20761, Note_on_c, 0, 58, 51
2, 20761, Note_on_c, 0, 50, 34
2, 20761, Note_on_c, 0, 62, 42
2, 20761, Note_on_c, 0, 53, 47
2, 20777, Note_on_c, 0, 53, 0
2, 20779, Note_on_c, 0, 77, 0
2, 20784, Note_on_c, 0, 82, 0
2, 20785, Note_on_c, 0, 86, 0
2, 20786, Note_on_c, 0, 58, 0
2, 20786, Note_on_c, 0, 50, 0
2, 20787, Note_on_c, 0, 62, 0
2, 20790, Note_on_c, 0, 87, 51
2, 20815, Note_on_c, 0, 87, 0
2, 20820, Note_on_c, 0, 88, 47
2, 20845, Note_on_c, 0, 88, 0
2, 20850, Note_on_c, 0, 89, 49
2, 20858, Control_c, 0, 64, 127
2, 20875, Note_on_c, 0, 89, 0
2, 20880, Note_on_c, 0, 88, 45
2, 20881, Note_on_c, 0, 80, 33
2, 20881, Note_on_c, 0, 52, 46
2, 20881, Note_on_c, 0, 40, 55
2, 20882, Note_on_c, 0, 86, 36
2, 20895, Note_on_c, 0, 40, 0
2, 20899, Note_on_c, 0, 52, 0
2, 20899, Note_on_c, 0, 80, 0
2, 20905, Note_on_c, 0, 88, 0
2, 20905, Note_on_c, 0, 86, 0
2, 20910, Note_on_c, 0, 89, 45
2, 20935, Note_on_c, 0, 89, 0
2, 20940, Note_on_c, 0, 90, 45
2, 20965, Note_on_c, 0, 90, 0
2, 20970, Note_on_c, 0, 91, 49
2, 20988, Control_c, 0, 64, 0
2, 20995, Note_on_c, 0, 91, 0
2, 20999, Note_on_c, 0, 86, 37
2, 20999, Note_on_c, 0, 52, 36
2, 20999, Note_on_c, 0, 59, 49
2, 21000, Note_on_c, 0, 92, 55
2, 21000, Note_on_c, 0, 62, 44
2, 21019, Note_on_c, 0, 52, 0
2, 21023, Note_on_c, 0, 86, 0
2, 21023, Note_on_c, 0, 62, 0
2, 21024, Note_on_c, 0, 59, 0
2, 21025, Note_on_c, 0, 92, 0
2, 21030, Note_on_c, 0, 93, 56
2, 21055, Note_on_c, 0, 93, 0
2, 21060, Note_on_c, 0, 94, 52
2, 21085, Note_on_c, 0, 94, 0
2, 21090, Note_on_c, 0, 95, 55
2, 21101, Control_c, 0, 64, 127
2, 21115, Note_on_c, 0, 95, 0
2, 21119, Note_on_c, 0, 53, 47
2, 21119, Note_on_c, 0, 41, 51
2, 21120, Note_on_c, 0, 93, 53
2, 21120, Note_on_c, 0, 84, 41
2, 21136, Note_on_c, 0, 53, 0
2, 21138, Note_on_c, 0, 41, 0
2, 21142, Note_on_c, 0, 84, 0
2, 21145, Note_on_c, 0, 93, 0
2, 21150, Note_on_c, 0, 92, 48
2, 21175, Note_on_c, 0, 92, 0
2, 21180, Note_on_c, 0, 91, 51
2, 21205, Note_on_c, 0, 91, 0
2, 21210, Note_on_c, 0, 90, 50
2, 21235, Note_on_c, 0, 90, 0
2, 21238, Note_on_c, 0, 84, 36
2, 21238, Note_on_c, 0, 57, 47
2, 21238, Note_on_c, 0, 65, 43
2, 21238, Note_on_c, 0, 60, 53
2, 21239, Note_on_c, 0, 81, 33
2, 21240, Note_on_c, 0, 89, 43
2, 21249, Control_c, 0, 64, 0
2, 21256, Note_on_c, 0, 81, 0
2, 21256, Note_on_c, 0, 84, 0
2, 21263, Note_on_c, 0, 60, 0
2, 21263, Note_on_c, 0, 65, 0
2, 21265, Note_on_c, 0, 89, 0
2, 21268, Note_on_c, 0, 57, 0
2, 21270, Note_on_c, 0, 88, 41
2, 21295, Note_on_c, 0, 88, 0
2, 21300, Note_on_c, 0, 87, 45
2, 21325, Note_on_c, 0, 87, 0
2, 21330, Note_on_c, 0, 86, 44
2, 21339, Control_c, 0, 64, 127
2, 21355, Note_on_c, 0, 86, 0
2, 21358, Note_on_c, 0, 81, 37
2, 21358, Note_on_c, 0, 76, 30
2, 21358, Note_on_c, 0, 36, 53
2, 21358, Note_on_c, 0, 48, 53
2, 21360, Note_on_c, 0, 85, 45
2, 21377, Note_on_c, 0, 81, 0
2, 21379, Note_on_c, 0, 48, 0
2, 21379, Note_on_c, 0, 36, 0
2, 21382, Note_on_c, 0, 76, 0
2, 21385, Note_on_c, 0, 85, 0
2, 21390, Note_on_c, 0, 84, 43
2, 21415, Note_on_c, 0, 84, 0
2, 21420, Note_on_c, 0, 83, 45
2, 21445, Note_on_c, 0, 83, 0
2, 21450, Note_on_c, 0, 82, 46
2, 21462, Control_c, 0, 64, 0
2, 21475, Note_on_c, 0, 82, 0
2, 21479, Note_on_c, 0, 76, 38
2, 21479, Note_on_c, 0, 52, 42
2, 21479, Note_on_c, 0, 57, 53
2, 21479, Note_on_c, 0, 64, 37
2, 21480, Note_on_c, 0, 81, 47
2, 21481, Note_on_c, 0, 72, 35
2, 21496, Note_on_c, 0, 76, 0
2, 21499, Note_on_c, 0, 72, 0
2, 21501, Note_on_c, 0, 57, 0
2, 21505, Note_on_c, 0, 81, 0
2, 21505, Note_on_c, 0, 52, 0
2, 21506, Note_on_c, 0, 64, 0
2, 21510, Note_on_c, 0, 80, 50
2, 21535, Note_on_c, 0, 80, 0
2, 21540, Note_on_c, 0, 79, 44
2, 21565, Note_on_c, 0, 79, 0
2, 21570, Note_on_c, 0, 78, 47
2, 21589, Control_c, 0, 64, 127
2, 21595, Note_on_c, 0, 78, 0
2, 21599, Note_on_c, 0, 70, 33
2, 21600, Note_on_c, 0, 77, 45
2, 21601, Note_on_c, 0, 74, 24
2, 21601, Note_on_c, 0, 50, 51
2, 21601, Note_on_c, 0, 38, 56
2, 21618, Note_on_c, 0, 38, 0
2, 21618, Note_on_c, 0, 50, 0
2, 21619, Note_on_c, 0, 74, 0
2, 21622, Note_on_c, 0, 70, 0
2, 21625, Note_on_c, 0, 77, 0
2, 21630, Note_on_c, 0, 76, 40
2, 21636, Control_c, 0, 64, 0
2, 21655, Note_on_c, 0, 76, 0
2, 21660, Note_on_c, 0, 75, 48
2, 21685, Note_on_c, 0, 75, 0
2, 21690, Note_on_c, 0, 74, 45
2, 21708, Control_c, 0, 64, 127
2, 21715, Note_on_c, 0, 74, 0
2, 21720, Note_on_c, 0, 73, 45
2, 21721, Note_on_c, 0, 70, 33
2, 21721, Note_on_c, 0, 65, 30
2, 21721, Note_on_c, 0, 62, 45
2, 21721, Note_on_c, 0, 50, 40
2, 21721, Note_on_c, 0, 58, 54
2, 21721, Note_on_c, 0, 53, 53
2, 21745, Note_on_c, 0, 73, 0
2, 21746, Note_on_c, 0, 70, 0
2, 21748, Note_on_c, 0, 65, 0
2, 21750, Note_on_c, 0, 74, 45
2, 21775, Note_on_c, 0, 74, 0
2, 21780, Note_on_c, 0, 77, 40
2, 21805, Note_on_c, 0, 77, 0
2, 21809, Note_on_c, 0, 53, 0
2, 21810, Note_on_c, 0, 50, 0
2, 21810, Note_on_c, 0, 74, 43
2, 21812, Note_on_c, 0, 58, 0
2, 21823, Control_c, 0, 64, 0
2, 21834, Note_on_c, 0, 62, 0
2, 21835, Note_on_c, 0, 74, 0
2, 21839, Note_on_c, 0, 69, 33
2, 21839, Note_on_c, 0, 52, 39
2, 21839, Note_on_c, 0, 60, 46
2, 21839, Note_on_c, 0, 57, 55
2, 21840, Note_on_c, 0, 71, 47
2, 21841, Note_on_c, 0, 64, 32
2, 21860, Note_on_c, 0, 69, 0
2, 21862, Note_on_c, 0, 64, 0
2, 21865, Note_on_c, 0, 71, 0
2, 21870, Note_on_c, 0, 72, 44
2, 21889, Note_on_c, 0, 57, 0
2, 21891, Note_on_c, 0, 52, 0
2, 21895, Note_on_c, 0, 60, 0
2, 21895, Note_on_c, 0, 72, 0
2, 21900, Note_on_c, 0, 76, 51
2, 21925, Note_on_c, 0, 76, 0
2, 21930, Note_on_c, 0, 72, 42
2, 21952, Control_c, 0, 64, 127
2, 21955, Note_on_c, 0, 72, 0
2, 21959, Note_on_c, 0, 52, 58
2, 21959, Note_on_c, 0, 59, 50
2, 21960, Note_on_c, 0, 70, 42
2, 21960, Note_on_c, 0, 68, 36
2, 21961, Note_on_c, 0, 62, 28
2, 21979, Note_on_c, 0, 68, 0
2, 21983, Note_on_c, 0, 62, 0
2, 21985, Note_on_c, 0, 70, 0
2, 21990, Note_on_c, 0, 71, 47
2, 22015, Note_on_c, 0, 71, 0
2, 22020, Note_on_c, 0, 76, 44
2, 22045, Note_on_c, 0, 76, 0
2, 22050, Note_on_c, 0, 71, 41
2, 22058, Note_on_c, 0, 59, 0
2, 22061, Control_c, 0, 64, 0
2, 22075, Note_on_c, 0, 71, 0
2, 22078, Note_on_c, 0, 57, 49
2, 22078, Note_on_c, 0, 45, 55
2, 22080, Note_on_c, 0, 69, 43
2, 22081, Note_on_c, 0, 60, 35
2, 22084, Note_on_c, 0, 52, 0
2, 22097, Note_on_c, 0, 57, 0
2, 22098, Note_on_c, 0, 45, 0
2, 22100, Note_on_c, 0, 60, 0
2, 22105, Note_on_c, 0, 69, 0
2, 22110, Note_on_c, 0, 70, 50
2, 22135, Note_on_c, 0, 70, 0
2, 22140, Note_on_c, 0, 71, 45
2, 22165, Note_on_c, 0, 71, 0
2, 22170, Note_on_c, 0, 72, 45
2, 22192, Control_c, 0, 64, 127
2, 22195, Note_on_c, 0, 72, 0
2, 22199, Note_on_c, 0, 53, 68
2, 22199, Note_on_c, 0, 41, 65
2, 22200, Note_on_c, 0, 73, 44
2, 22200, Note_on_c, 0, 62, 32
2, 22200, Note_on_c, 0, 69, 33
2, 22221, Note_on_c, 0, 62, 0
2, 22224, Note_on_c, 0, 69, 0
2, 22225, Note_on_c, 0, 73, 0
2, 22230, Note_on_c, 0, 74, 42
2, 22255, Note_on_c, 0, 74, 0
2, 22260, Note_on_c, 0, 75, 53
2, 22285, Note_on_c, 0, 75, 0
2, 22290, Note_on_c, 0, 76, 44
2, 22315, Note_on_c, 0, 76, 0
2, 22319, Note_on_c, 0, 69, 36
2, 22320, Note_on_c, 0, 77, 48
2, 22320, Note_on_c, 0, 74, 32
2, 22338, Note_on_c, 0, 69, 0
2, 22341, Note_on_c, 0, 74, 0
2, 22345, Note_on_c, 0, 77, 0
2, 22350, Note_on_c, 0, 78, 50
2, 22375, Note_on_c, 0, 78, 0
2, 22380, Note_on_c, 0, 79, 43
2, 22405, Note_on_c, 0, 79, 0
2, 22410, Note_on_c, 0, 80, 52
2, 22422, Note_on_c, 0, 53, 0
2, 22428, Control_c, 0, 64, 0
2, 22434, Control_c, 0, 64, 127
2, 22435, Note_on_c, 0, 80, 0
2, 22439, Note_on_c, 0, 52, 62
2, 22440, Note_on_c, 0, 81, 47
2, 22440, Note_on_c, 0, 40, 63
2, 22442, Note_on_c, 0, 76, 36
2, 22442, Note_on_c, 0, 74, 32
2, 22449, Note_on_c, 0, 41, 0
2, 22460, Note_on_c, 0, 74, 0
2, 22461, Note_on_c, 0, 76, 0
2, 22465, Note_on_c, 0, 81, 0
2, 22470, Note_on_c, 0, 82, 49
2, 22495, Note_on_c, 0, 82, 0
2, 22500, Note_on_c, 0, 83, 45
2, 22511, Note_on_c, 0, 52, 0
2, 22525, Note_on_c, 0, 83, 0
2, 22530, Note_on_c, 0, 84, 50
2, 22532, Note_on_c, 0, 40, 0
2, 22555, Note_on_c, 0, 84, 0
2, 22556, Control_c, 0, 64, 0
2, 22559, Note_on_c, 0, 76, 37
2, 22559, Note_on_c, 0, 72, 27
2, 22559, Note_on_c, 0, 45, 68
2, 22560, Note_on_c, 0, 81, 46
2, 22560, Note_on_c, 0, 33, 77
2, 22577, Note_on_c, 0, 72, 0
2, 22582, Note_on_c, 0, 76, 0
2, 22584, Note_on_c, 0, 45, 0
2, 22585, Note_on_c, 0, 81, 0
2, 22587, Note_on_c, 0, 33, 0
2, 22590, Note_on_c, 0, 82, 53
2, 22615, Note_on_c, 0, 82, 0
2, 22620, Note_on_c, 0, 83, 47
2, 22645, Note_on_c, 0, 83, 0
2, 22650, Note_on_c, 0, 84, 47
2, 22675, Note_on_c, 0, 84, 0
2, 22675, Control_c, 0, 64, 127
2, 22679, Note_on_c, 0, 74, 32
2, 22679, Note_on_c, 0, 81, 40
2, 22679, Note_on_c, 0, 41, 62
2, 22679, Note_on_c, 0, 29, 65
2, 22680, Note_on_c, 0, 85, 52
2, 22700, Note_on_c, 0, 74, 0
2, 22701, Note_on_c, 0, 81, 0
2, 22705, Note_on_c, 0, 85, 0
2, 22710, Note_on_c, 0, 86, 47
2, 22735, Note_on_c, 0, 86, 0
2, 22740, Note_on_c, 0, 87, 51
2, 22765, Note_on_c, 0, 87, 0
2, 22770, Note_on_c, 0, 88, 49
2, 22795, Note_on_c, 0, 88, 0
2, 22799, Note_on_c, 0, 81, 34
2, 22799, Note_on_c, 0, 86, 39
2, 22800, Note_on_c, 0, 89, 48
2, 22822, Note_on_c, 0, 81, 0
2, 22823, Note_on_c, 0, 86, 0
2, 22825, Note_on_c, 0, 89, 0
2, 22830, Note_on_c, 0, 90, 48
2, 22855, Note_on_c, 0, 90, 0
2, 22860, Note_on_c, 0, 91, 48
2, 22885, Note_on_c, 0, 91, 0
2, 22890, Note_on_c, 0, 92, 52
2, 22899, Note_on_c, 0, 41, 0
2, 22915, Note_on_c, 0, 92, 0
2, 22915, Note_on_c, 0, 29, 0
2, 22918, Note_on_c, 0, 88, 43
2, 22918, Note_on_c, 0, 86, 39
2, 22919, Note_on_c, 0, 40, 67
2, 22919, Note_on_c, 0, 28, 69
2, 22920, Note_on_c, 0, 93, 46
2, 22920, Control_c, 0, 64, 0
2, 22926, Control_c, 0, 64, 127
2, 22940, Note_on_c, 0, 86, 0
2, 22945, Note_on_c, 0, 93, 0
2, 22946, Note_on_c, 0, 88, 0
2, 22950, Note_on_c, 0, 94, 50
2, 22975, Note_on_c, 0, 94, 0
2, 22980, Note_on_c, 0, 95, 49
2, 23005, Note_on_c, 0, 95, 0
2, 23010, Note_on_c, 0, 96, 47
2, 23015, Note_on_c, 0, 40, 0
2, 23015, Note_on_c, 0, 28, 0
2, 23029, Control_c, 0, 64, 0
2, 23035, Note_on_c, 0, 96, 0
2, 23039, Note_on_c, 0, 84, 36
2, 23039, Note_on_c, 0, 33, 67
2, 23040, Note_on_c, 0, 93, 58
2, 23040, Note_on_c, 0, 88, 35
2, 23040, Note_on_c, 0, 45, 68
2, 23055, Control_c, 0, 64, 127
2, 23062, Note_on_c, 0, 88, 0
2, 23065, Note_on_c, 0, 93, 0
2, 23065, Note_on_c, 0, 84, 0
2, 23070, Note_on_c, 0, 92, 55
2, 23095, Note_on_c, 0, 92, 0
2, 23100, Note_on_c, 0, 91, 53
2, 23125, Note_on_c, 0, 91, 0
2, 23130, Note_on_c, 0, 90, 50
2, 23155, Note_on_c, 0, 90, 0
2, 23160, Note_on_c, 0, 89, 58
2, 23161, Note_on_c, 0, 86, 36
2, 23161, Note_on_c, 0, 81, 36
2, 23180, Note_on_c, 0, 86, 0
2, 23184, Note_on_c, 0, 81, 0
2, 23185, Note_on_c, 0, 89, 0
2, 23190, Note_on_c, 0, 88, 53
2, 23215, Note_on_c, 0, 88, 0
2, 23220, Note_on_c, 0, 87, 57
2, 23245, Note_on_c, 0, 87, 0
2, 23250, Note_on_c, 0, 86, 54
2, 23275, Note_on_c, 0, 86, 0
2, 23280, Note_on_c, 0, 85, 55
2, 23281, Note_on_c, 0, 81, 43
2, 23281, Note_on_c, 0, 77, 38
2, 23303, Note_on_c, 0, 77, 0
2, 23305, Note_on_c, 0, 85, 0
2, 23306, Note_on_c, 0, 81, 0
2, 23310, Note_on_c, 0, 84, 54
2, 23335, Note_on_c, 0, 84, 0
2, 23340, Note_on_c, 0, 83, 53
2, 23365, Note_on_c, 0, 83, 0
2, 23370, Note_on_c, 0, 82, 56
2, 23395, Note_on_c, 0, 82, 0
2, 23399, Note_on_c, 0, 77, 34
2, 23400, Note_on_c, 0, 81, 49
2, 23401, Note_on_c, 0, 74, 36
2, 23422, Note_on_c, 0, 74, 0
2, 23423, Note_on_c, 0, 77, 0
2, 23425, Note_on_c, 0, 81, 0
2, 23430, Note_on_c, 0, 80, 55
2, 23455, Note_on_c, 0, 80, 0
2, 23460, Note_on_c, 0, 79, 50
2, 23485, Note_on_c, 0, 79, 0
2, 23490, Note_on_c, 0, 78, 54
2, 23502, Control_c, 0, 64, 0
2, 23515, Note_on_c, 0, 78, 0
2, 23519, Control_c, 0, 64, 127
2, 23520, Note_on_c, 0, 77, 47
2, 23521, Note_on_c, 0, 69, 36
2, 23521, Note_on_c, 0, 74, 38
2, 23542, Note_on_c, 0, 74, 0
2, 23545, Note_on_c, 0, 77, 0
2, 23547, Note_on_c, 0, 69, 0
2, 23550, Note_on_c, 0, 76, 52
2, 23575, Note_on_c, 0, 76, 0
2, 23580, Note_on_c, 0, 75, 48
2, 23605, Note_on_c, 0, 75, 0
2, 23610, Note_on_c, 0, 74, 47
2, 23635, Note_on_c, 0, 74, 0
2, 23639, Note_on_c, 0, 65, 34
2, 23640, Note_on_c, 0, 73, 48
2, 23640, Note_on_c, 0, 69, 38
2, 23659, Note_on_c, 0, 69, 0
2, 23661, Note_on_c, 0, 65, 0
2, 23665, Note_on_c, 0, 73, 0
2, 23670, Note_on_c, 0, 72, 47
2, 23695, Note_on_c, 0, 72, 0
2, 23700, Note_on_c, 0, 71, 42
2, 23725, Note_on_c, 0, 71, 0
2, 23730, Note_on_c, 0, 70, 45
2, 23744, Control_c, 0, 64, 0
2, 23755, Note_on_c, 0, 70, 0
2, 23759, Note_on_c, 0, 65, 34
2, 23759, Note_on_c, 0, 62, 30
2, 23760, Note_on_c, 0, 69, 44
2, 23765, Control_c, 0, 64, 127
2, 23778, Note_on_c, 0, 62, 0
2, 23778, Note_on_c, 0, 65, 0
2, 23785, Note_on_c, 0, 69, 0
2, 23790, Note_on_c, 0, 68, 49
2, 23815, Note_on_c, 0, 68, 0
2, 23820, Note_on_c, 0, 67, 43
2, 23845, Note_on_c, 0, 67, 0
2, 23850, Note_on_c, 0, 66, 48
2, 23875, Note_on_c, 0, 66, 0
2, 23883, Note_on_c, 0, 62, 32
2, 23884, Note_on_c, 0, 57, 33
2, 23885, Note_on_c, 0, 65, 49
2, 23933, Note_on_c, 0, 64, 45
2, 23946, Note_on_c, 0, 65, 0
2, 23978, Note_on_c, 0, 62, 0
2, 23982, Note_on_c, 0, 63, 46
2, 23985, Note_on_c, 0, 57, 0
2, 23992, Note_on_c, 0, 64, 0
2, 24038, Note_on_c, 0, 62, 43
2, 24044, Note_on_c, 0, 63, 0
2, 24122, Note_on_c, 0, 57, 32
2, 24122, Note_on_c, 0, 61, 41
2, 24123, Note_on_c, 0, 52, 33
2, 24140, Note_on_c, 0, 62, 0
2, 24144, Control_c, 0, 64, 0
2, 24173, Control_c, 0, 64, 127
2, 24862, Note_on_c, 0, 45, 0
2, 24867, Note_on_c, 0, 57, 0
2, 24870, Note_on_c, 0, 52, 0
2, 24871, Note_on_c, 0, 33, 0
2, 24879, Note_on_c, 0, 61, 0
2, 24952, Control_c, 0, 64, 0
2, 24952, End_track
3, 0, Start_track
3, 0, MIDI_port, 0
3, 0, Title_t, "in A minor"
3, 0, End_track
4, 0, Start_track
4, 0, MIDI_port, 0
4, 0, Title_t, "Op. 10, No. 2"
4, 0, End_track
5, 0, Start_track
5, 0, MIDI_port, 0
5, 0, Title_t, "Chopin, Frederic"
5, 0, End_track
6, 0, Start_track
6, 0, MIDI_port, 0
6, 0, Title_t, "Sequenced by Anousone Kitisa"
6, 0, End_track
0, 0, End_of_file