0, 0, Header, 1, 3, 192
1, 0, Start_track
1, 0, Title_t, "Piano Template"
1, 0, Text_t, "By <Name>"
1, 0, Copyright_t, "Copyright \251 <Year> by <Name>"
1, 0, Copyright_t, "All Rights Reserved"
1, 0, Text_t, "Generated by NoteWorthy Composer"
1, 0, Tempo, 416666
1, 0, Key_signature, 2, "major"
1, 0, Time_signature, 2, 1, 24, 8
1, 16896, Tempo, 857142
1, 17088, Tempo, 428571
1, 20352, Tempo, 555555
1, 20736, Tempo, 416666
1, 21120, Tempo, 2000000
1, 21504, Tempo, 857142
1, 21504, Key_signature, 5, "major"
1, 21504, Time_signature, 3, 2, 24, 8
1, 22092, Tempo, 869565
1, 22105, Tempo, 882352
1, 22118, Tempo, 895522
1, 22131, Tempo, 909090
1, 22144, Tempo, 923076
1, 22156, Tempo, 937500
1, 22169, Tempo, 952380
1, 22182, Tempo, 967741
1, 22195, Tempo, 983606
1, 22208, Tempo, 1000000
1, 22220, Tempo, 1016949
1, 22233, Tempo, 1034482
1, 22246, Tempo, 1052631
1, 22259, Tempo, 1071428
1, 22272, Tempo, 1090909
1, 22284, Tempo, 1111111
1, 22297, Tempo, 1132075
1, 22310, Tempo, 1153846
1, 22323, Tempo, 1176470
1, 22336, Tempo, 1200000
1, 22348, Tempo, 1224489
1, 22361, Tempo, 1250000
1, 22374, Tempo, 1276595
1, 22387, Tempo, 1304347
1, 22400, Tempo, 1333333
1, 22412, Tempo, 1363636
1, 22425, Tempo, 1395348
1, 22438, Tempo, 1428571
1, 22451, Tempo, 1463414
1, 22464, Tempo, 1500000
1, 22662, Tempo, 1463414
1, 22669, Tempo, 1428571
1, 22676, Tempo, 1395348
1, 22683, Tempo, 1363636
1, 22690, Tempo, 1333333
1, 22697, Tempo, 1304347
1, 22704, Tempo, 1276595
1, 22711, Tempo, 1250000
1, 22718, Tempo, 1224489
1, 22725, Tempo, 1200000
1, 22732, Tempo, 1176470
1, 22739, Tempo, 1153846
1, 22746, Tempo, 1132075
1, 22753, Tempo, 1111111
1, 22760, Tempo, 1090909
1, 22767, Tempo, 1071428
1, 22774, Tempo, 1052631
1, 22781, Tempo, 1034482
1, 22788, Tempo, 1016949
1, 22795, Tempo, 1000000
1, 22802, Tempo, 983606
1, 22809, Tempo, 967741
1, 22816, Tempo, 952380
1, 22823, Tempo, 937500
1, 22830, Tempo, 923076
1, 22837, Tempo, 909090
1, 22844, Tempo, 895522
1, 22851, Tempo, 882352
1, 22858, Tempo, 869565
1, 22865, Tempo, 857142
1, 22872, Tempo, 845070
1, 22879, Tempo, 833333
1, 22886, Tempo, 821917
1, 22893, Tempo, 810810
1, 22900, Tempo, 800000
1, 22907, Tempo, 789473
1, 22914, Tempo, 779220
1, 22921, Tempo, 769230
1, 22928, Tempo, 759493
1, 22935, Tempo, 750000
1, 22942, Tempo, 740740
1, 22949, Tempo, 731707
1, 22956, Tempo, 722891
1, 22963, Tempo, 714285
1, 22970, Tempo, 705882
1, 22977, Tempo, 697674
1, 22984, Tempo, 689655
1, 22991, Tempo, 681818
1, 22998, Tempo, 674157
1, 23005, Tempo, 666666
1, 23012, Tempo, 659340
1, 23019, Tempo, 652173
1, 23026, Tempo, 645161
1, 23033, Tempo, 638297
1, 23040, Tempo, 631578
1, 31680, Tempo, 1276595
1, 31824, Tempo, 2500000
1, 31872, Tempo, 631578
1, 43200, Tempo, 1250000
1, 43344, Tempo, 2500000
1, 43392, Tempo, 631578
1, 54720, Tempo, 1250000
1, 54864, Tempo, 2500000
1, 54912, Tempo, 631578
1, 63561, Tempo, 625000
1, 63570, Tempo, 618556
1, 63579, Tempo, 612244
1, 63588, Tempo, 606060
1, 63598, Tempo, 600000
1, 63607, Tempo, 594059
1, 63616, Tempo, 588235
1, 63625, Tempo, 582524
1, 63634, Tempo, 576923
1, 63644, Tempo, 571428
1, 63653, Tempo, 566037
1, 63662, Tempo, 560747
1, 63671, Tempo, 555555
1, 63681, Tempo, 550458
1, 63690, Tempo, 545454
1, 63699, Tempo, 540540
1, 63708, Tempo, 535714
1, 63717, Tempo, 530973
1, 63727, Tempo, 526315
1, 63736, Tempo, 521739
1, 63745, Tempo, 517241
1, 63754, Tempo, 512820
1, 63763, Tempo, 508474
1, 63773, Tempo, 504201
1, 63782, Tempo, 500000
1, 63791, Tempo, 495867
1, 63800, Tempo, 491803
1, 63810, Tempo, 487804
1, 63819, Tempo, 483870
1, 63828, Tempo, 480000
1, 63837, Tempo, 476190
1, 63846, Tempo, 472440
1, 63856, Tempo, 468750
1, 63865, Tempo, 465116
1, 63874, Tempo, 461538
1, 63883, Tempo, 458015
1, 63892, Tempo, 454545
1, 63902, Tempo, 451127
1, 63911, Tempo, 447761
1, 63920, Tempo, 444444
1, 63929, Tempo, 441176
1, 63939, Tempo, 437956
1, 63948, Tempo, 434782
1, 63957, Tempo, 431654
1, 63966, Tempo, 428571
1, 63975, Tempo, 425531
1, 63985, Tempo, 422535
1, 63994, Tempo, 419580
1, 64003, Tempo, 416666
1, 64012, Tempo, 413793
1, 64022, Tempo, 410958
1, 64031, Tempo, 408163
1, 64040, Tempo, 405405
1, 64049, Tempo, 402684
1, 64058, Tempo, 400000
1, 64068, Tempo, 397350
1, 64077, Tempo, 394736
1, 64086, Tempo, 392156
1, 64095, Tempo, 389610
1, 64104, Tempo, 387096
1, 64114, Tempo, 384615
1, 64123, Tempo, 382165
1, 64132, Tempo, 379746
1, 64141, Tempo, 377358
1, 64151, Tempo, 375000
1, 64160, Tempo, 372670
1, 64169, Tempo, 370370
1, 64178, Tempo, 368098
1, 64187, Tempo, 365853
1, 64197, Tempo, 363636
1, 64206, Tempo, 361445
1, 64215, Tempo, 359281
1, 64224, Tempo, 357142
1, 64233, Tempo, 355029
1, 64243, Tempo, 352941
1, 64252, Tempo, 350877
1, 64261, Tempo, 348837
1, 64270, Tempo, 346820
1, 64280, Tempo, 344827
1, 64289, Tempo, 342857
1, 64298, Tempo, 340909
1, 64307, Tempo, 338983
1, 64316, Tempo, 337078
1, 64326, Tempo, 335195
1, 64335, Tempo, 333333
1, 64344, Tempo, 331491
1, 64353, Tempo, 329670
1, 64363, Tempo, 327868
1, 64372, Tempo, 326086
1, 64381, Tempo, 324324
1, 64390, Tempo, 322580
1, 64399, Tempo, 320855
1, 64409, Tempo, 319148
1, 64418, Tempo, 317460
1, 64427, Tempo, 315789
1, 64436, Tempo, 314136
1, 64445, Tempo, 312500
1, 64455, Tempo, 310880
1, 64464, Tempo, 309278
1, 64473, Tempo, 307692
1, 64482, Tempo, 306122
1, 64492, Tempo, 304568
1, 64501, Tempo, 303030
1, 64510, Tempo, 301507
1, 64519, Tempo, 300000
1, 64528, Tempo, 298507
1, 64538, Tempo, 297029
1, 64547, Tempo, 295566
1, 64556, Tempo, 294117
1, 64565, Tempo, 292682
1, 64574, Tempo, 291262
1, 64584, Tempo, 289855
1, 64593, Tempo, 288461
1, 64602, Tempo, 287081
1, 64611, Tempo, 285714
1, 64621, Tempo, 284360
1, 64630, Tempo, 283018
1, 64639, Tempo, 281690
1, 64648, Tempo, 280373
1, 64657, Tempo, 279069
1, 64667, Tempo, 277777
1, 64676, Tempo, 276497
1, 64685, Tempo, 275229
1, 64694, Tempo, 273972
1, 64704, Tempo, 272727
1, 64704, Tempo, 416666
1, 64704, Key_signature, 2, "major"
1, 64704, Time_signature, 2, 1, 24, 8
1, 75456, Tempo, 666666
1, 75456, End_track
2, 0, Start_track
2, 0, MIDI_port, 0
2, 0, Title_t, "Right Hand"
2, 0, Program_c, 0, 0
2, 0, Control_c, 0, 7, 127
2, 0, Control_c, 0, 10, 64
2, 0, Program_c, 0, 0
2, 0, Control_c, 0, 7, 127
2, 0, Control_c, 0, 10, 64
2, 0, Note_on_c, 0, 54, 45
2, 0, Note_on_c, 0, 66, 45
2, 64, Note_on_c, 0, 54, 0
2, 64, Note_on_c, 0, 66, 0
2, 64, Note_on_c, 0, 53, 45
2, 64, Note_on_c, 0, 65, 45
2, 128, Note_on_c, 0, 53, 0
2, 128, Note_on_c, 0, 65, 0
2, 128, Note_on_c, 0, 54, 45
2, 128, Note_on_c, 0, 66, 45
2, 192, Note_on_c, 0, 54, 0
2, 192, Note_on_c, 0, 66, 0
2, 192, Note_on_c, 0, 55, 45
2, 192, Note_on_c, 0, 67, 45
2, 256, Note_on_c, 0, 55, 0
2, 256, Note_on_c, 0, 67, 0
2, 256, Note_on_c, 0, 56, 46
2, 256, Note_on_c, 0, 68, 46
2, 320, Note_on_c, 0, 56, 0
2, 320, Note_on_c, 0, 68, 0
2, 320, Note_on_c, 0, 57, 47
2, 320, Note_on_c, 0, 69, 47
2, 384, Note_on_c, 0, 57, 0
2, 384, Note_on_c, 0, 69, 0
2, 384, Note_on_c, 0, 56, 48
2, 384, Note_on_c, 0, 68, 48
2, 448, Note_on_c, 0, 56, 0
2, 448, Note_on_c, 0, 68, 0
2, 448, Note_on_c, 0, 55, 49
2, 448, Note_on_c, 0, 67, 49
2, 512, Note_on_c, 0, 55, 0
2, 512, Note_on_c, 0, 67, 0
2, 512, Note_on_c, 0, 56, 50
2, 512, Note_on_c, 0, 68, 50
2, 576, Note_on_c, 0, 56, 0
2, 576, Note_on_c, 0, 68, 0
2, 576, Note_on_c, 0, 57, 51
2, 576, Note_on_c, 0, 69, 51
2, 640, Note_on_c, 0, 57, 0
2, 640, Note_on_c, 0, 69, 0
2, 640, Note_on_c, 0, 58, 52
2, 640, Note_on_c, 0, 70, 52
2, 704, Note_on_c, 0, 58, 0
2, 704, Note_on_c, 0, 70, 0
2, 704, Note_on_c, 0, 59, 53
2, 704, Note_on_c, 0, 71, 53
2, 768, Note_on_c, 0, 59, 0
2, 768, Note_on_c, 0, 71, 0
2, 768, Note_on_c, 0, 58, 54
2, 768, Note_on_c, 0, 70, 54
2, 832, Note_on_c, 0, 58, 0
2, 832, Note_on_c, 0, 70, 0
2, 832, Note_on_c, 0, 57, 55
2, 832, Note_on_c, 0, 69, 55
2, 896, Note_on_c, 0, 57, 0
2, 896, Note_on_c, 0, 69, 0
2, 896, Note_on_c, 0, 58, 56
2, 896, Note_on_c, 0, 70, 56
2, 960, Note_on_c, 0, 58, 0
2, 960, Note_on_c, 0, 70, 0
2, 960, Note_on_c, 0, 59, 57
2, 960, Note_on_c, 0, 71, 57
2, 1024, Note_on_c, 0, 59, 0
2, 1024, Note_on_c, 0, 71, 0
2, 1024, Note_on_c, 0, 60, 58
2, 1024, Note_on_c, 0, 72, 58
2, 1088, Note_on_c, 0, 60, 0
2, 1088, Note_on_c, 0, 72, 0
2, 1088, Note_on_c, 0, 61, 59
2, 1088, Note_on_c, 0, 73, 59
2, 1152, Note_on_c, 0, 61, 0
2, 1152, Note_on_c, 0, 73, 0
2, 1152, Note_on_c, 0, 60, 60
2, 1152, Note_on_c, 0, 72, 60
2, 1216, Note_on_c, 0, 60, 0
2, 1216, Note_on_c, 0, 72, 0
2, 1216, Note_on_c, 0, 59, 61
2, 1216, Note_on_c, 0, 71, 61
2, 1280, Note_on_c, 0, 59, 0
2, 1280, Note_on_c, 0, 71, 0
2, 1280, Note_on_c, 0, 60, 62
2, 1280, Note_on_c, 0, 72, 62
2, 1344, Note_on_c, 0, 60, 0
2, 1344, Note_on_c, 0, 72, 0
2, 1344, Note_on_c, 0, 61, 63
2, 1344, Note_on_c, 0, 73, 63
2, 1408, Note_on_c, 0, 61, 0
2, 1408, Note_on_c, 0, 73, 0
2, 1408, Note_on_c, 0, 62, 64
2, 1408, Note_on_c, 0, 74, 64
2, 1472, Note_on_c, 0, 62, 0
2, 1472, Note_on_c, 0, 74, 0
2, 1472, Note_on_c, 0, 63, 65
2, 1472, Note_on_c, 0, 75, 65
2, 1536, Note_on_c, 0, 63, 0
2, 1536, Note_on_c, 0, 75, 0
2, 1536, Note_on_c, 0, 62, 66
2, 1536, Note_on_c, 0, 74, 66
2, 1600, Note_on_c, 0, 62, 0
2, 1600, Note_on_c, 0, 74, 0
2, 1600, Note_on_c, 0, 63, 67
2, 1600, Note_on_c, 0, 75, 67
2, 1664, Note_on_c, 0, 63, 0
2, 1664, Note_on_c, 0, 75, 0
2, 1664, Note_on_c, 0, 64, 95
2, 1664, Note_on_c, 0, 76, 95
2, 1728, Note_on_c, 0, 64, 0
2, 1728, Note_on_c, 0, 76, 0
2, 1728, Note_on_c, 0, 63, 69
2, 1728, Note_on_c, 0, 75, 69
2, 1792, Note_on_c, 0, 63, 0
2, 1792, Note_on_c, 0, 75, 0
2, 1792, Note_on_c, 0, 64, 70
2, 1792, Note_on_c, 0, 76, 70
2, 1856, Note_on_c, 0, 64, 0
2, 1856, Note_on_c, 0, 76, 0
2, 1856, Note_on_c, 0, 65, 99
2, 1856, Note_on_c, 0, 77, 99
2, 1920, Note_on_c, 0, 65, 0
2, 1920, Note_on_c, 0, 77, 0
2, 1920, Note_on_c, 0, 64, 72
2, 1920, Note_on_c, 0, 76, 72
2, 1984, Note_on_c, 0, 64, 0
2, 1984, Note_on_c, 0, 76, 0
2, 1984, Note_on_c, 0, 65, 74
2, 1984, Note_on_c, 0, 77, 74
2, 2048, Note_on_c, 0, 65, 0
2, 2048, Note_on_c, 0, 77, 0
2, 2048, Note_on_c, 0, 66, 106
2, 2048, Note_on_c, 0, 78, 106
2, 2112, Note_on_c, 0, 66, 0
2, 2112, Note_on_c, 0, 78, 0
2, 2112, Note_on_c, 0, 65, 78
2, 2112, Note_on_c, 0, 77, 78
2, 2176, Note_on_c, 0, 65, 0
2, 2176, Note_on_c, 0, 77, 0
2, 2176, Note_on_c, 0, 66, 80
2, 2176, Note_on_c, 0, 78, 80
2, 2240, Note_on_c, 0, 66, 0
2, 2240, Note_on_c, 0, 78, 0
2, 2240, Note_on_c, 0, 67, 114
2, 2240, Note_on_c, 0, 79, 114
2, 2304, Note_on_c, 0, 67, 0
2, 2304, Note_on_c, 0, 79, 0
2, 2304, Note_on_c, 0, 66, 84
2, 2304, Note_on_c, 0, 78, 84
2, 2368, Note_on_c, 0, 66, 0
2, 2368, Note_on_c, 0, 78, 0
2, 2368, Note_on_c, 0, 67, 86
2, 2368, Note_on_c, 0, 79, 86
2, 2432, Note_on_c, 0, 67, 0
2, 2432, Note_on_c, 0, 79, 0
2, 2432, Note_on_c, 0, 68, 123
2, 2432, Note_on_c, 0, 80, 123
2, 2496, Note_on_c, 0, 68, 0
2, 2496, Note_on_c, 0, 80, 0
2, 2496, Note_on_c, 0, 67, 90
2, 2496, Note_on_c, 0, 79, 90
2, 2560, Note_on_c, 0, 67, 0
2, 2560, Note_on_c, 0, 79, 0
2, 2560, Note_on_c, 0, 68, 92
2, 2560, Note_on_c, 0, 80, 92
2, 2624, Note_on_c, 0, 68, 0
2, 2624, Note_on_c, 0, 80, 0
2, 2624, Note_on_c, 0, 69, 127
2, 2624, Note_on_c, 0, 81, 127
2, 2688, Note_on_c, 0, 69, 0
2, 2688, Note_on_c, 0, 81, 0
2, 2688, Note_on_c, 0, 67, 96
2, 2688, Note_on_c, 0, 79, 96
2, 2752, Note_on_c, 0, 67, 0
2, 2752, Note_on_c, 0, 79, 0
2, 2752, Note_on_c, 0, 68, 98
2, 2752, Note_on_c, 0, 80, 98
2, 2816, Note_on_c, 0, 68, 0
2, 2816, Note_on_c, 0, 80, 0
2, 2816, Note_on_c, 0, 69, 127
2, 2816, Note_on_c, 0, 81, 127
2, 2880, Note_on_c, 0, 69, 0
2, 2880, Note_on_c, 0, 81, 0
2, 2880, Note_on_c, 0, 68, 102
2, 2880, Note_on_c, 0, 80, 102
2, 2944, Note_on_c, 0, 68, 0
2, 2944, Note_on_c, 0, 80, 0
2, 2944, Note_on_c, 0, 69, 104
2, 2944, Note_on_c, 0, 81, 104
2, 3008, Note_on_c, 0, 69, 0
2, 3008, Note_on_c, 0, 81, 0
2, 3008, Note_on_c, 0, 70, 127
2, 3008, Note_on_c, 0, 82, 127
2, 3072, Note_on_c, 0, 70, 0
2, 3072, Note_on_c, 0, 82, 0
2, 3072, Note_on_c, 0, 71, 127
2, 3072, Note_on_c, 0, 74, 127
2, 3072, Note_on_c, 0, 83, 127
2, 3136, Note_on_c, 0, 71, 0
2, 3136, Note_on_c, 0, 83, 0
2, 3136, Note_on_c, 0, 70, 108
2, 3136, Note_on_c, 0, 82, 108
2, 3200, Note_on_c, 0, 70, 0
2, 3200, Note_on_c, 0, 82, 0
2, 3200, Note_on_c, 0, 71, 108
2, 3200, Note_on_c, 0, 83, 108
2, 3264, Note_on_c, 0, 71, 0
2, 3264, Note_on_c, 0, 83, 0
2, 3264, Note_on_c, 0, 70, 108
2, 3264, Note_on_c, 0, 82, 108
2, 3328, Note_on_c, 0, 70, 0
2, 3328, Note_on_c, 0, 82, 0
2, 3328, Note_on_c, 0, 69, 108
2, 3328, Note_on_c, 0, 81, 108
2, 3392, Note_on_c, 0, 69, 0
2, 3392, Note_on_c, 0, 81, 0
2, 3392, Note_on_c, 0, 68, 108
2, 3392, Note_on_c, 0, 80, 108
2, 3456, Note_on_c, 0, 68, 0
2, 3456, Note_on_c, 0, 74, 0
2, 3456, Note_on_c, 0, 80, 0
2, 3456, Note_on_c, 0, 69, 127
2, 3456, Note_on_c, 0, 74, 127
2, 3456, Note_on_c, 0, 81, 127
2, 3520, Note_on_c, 0, 69, 0
2, 3520, Note_on_c, 0, 81, 0
2, 3520, Note_on_c, 0, 68, 108
2, 3520, Note_on_c, 0, 80, 108
2, 3584, Note_on_c, 0, 68, 0
2, 3584, Note_on_c, 0, 80, 0
2, 3584, Note_on_c, 0, 69, 108
2, 3584, Note_on_c, 0, 81, 108
2, 3648, Note_on_c, 0, 69, 0
2, 3648, Note_on_c, 0, 81, 0
2, 3648, Note_on_c, 0, 68, 108
2, 3648, Note_on_c, 0, 80, 108
2, 3712, Note_on_c, 0, 68, 0
2, 3712, Note_on_c, 0, 80, 0
2, 3712, Note_on_c, 0, 67, 108
2, 3712, Note_on_c, 0, 79, 108
2, 3776, Note_on_c, 0, 67, 0
2, 3776, Note_on_c, 0, 79, 0
2, 3776, Note_on_c, 0, 66, 108
2, 3776, Note_on_c, 0, 78, 108
2, 3840, Note_on_c, 0, 66, 0
2, 3840, Note_on_c, 0, 74, 0
2, 3840, Note_on_c, 0, 78, 0
2, 3840, Note_on_c, 0, 67, 127
2, 3840, Note_on_c, 0, 71, 127
2, 3840, Note_on_c, 0, 79, 127
2, 3904, Note_on_c, 0, 67, 0
2, 3904, Note_on_c, 0, 79, 0
2, 3904, Note_on_c, 0, 66, 107
2, 3904, Note_on_c, 0, 78, 107
2, 3968, Note_on_c, 0, 66, 0
2, 3968, Note_on_c, 0, 78, 0
2, 3968, Note_on_c, 0, 67, 106
2, 3968, Note_on_c, 0, 79, 106
2, 4032, Note_on_c, 0, 67, 0
2, 4032, Note_on_c, 0, 71, 0
2, 4032, Note_on_c, 0, 79, 0
2, 4032, Note_on_c, 0, 66, 127
2, 4032, Note_on_c, 0, 71, 127
2, 4032, Note_on_c, 0, 78, 127
2, 4096, Note_on_c, 0, 66, 0
2, 4096, Note_on_c, 0, 78, 0
2, 4096, Note_on_c, 0, 65, 104
2, 4096, Note_on_c, 0, 77, 104
2, 4160, Note_on_c, 0, 65, 0
2, 4160, Note_on_c, 0, 77, 0
2, 4160, Note_on_c, 0, 64, 103
2, 4160, Note_on_c, 0, 76, 103
2, 4224, Note_on_c, 0, 64, 0
2, 4224, Note_on_c, 0, 71, 0
2, 4224, Note_on_c, 0, 76, 0
2, 4224, Note_on_c, 0, 63, 127
2, 4224, Note_on_c, 0, 66, 127
2, 4224, Note_on_c, 0, 75, 127
2, 4288, Note_on_c, 0, 63, 0
2, 4288, Note_on_c, 0, 75, 0
2, 4288, Note_on_c, 0, 62, 101
2, 4288, Note_on_c, 0, 74, 101
2, 4352, Note_on_c, 0, 62, 0
2, 4352, Note_on_c, 0, 74, 0
2, 4352, Note_on_c, 0, 61, 100
2, 4352, Note_on_c, 0, 73, 100
2, 4416, Note_on_c, 0, 61, 0
2, 4416, Note_on_c, 0, 66, 0
2, 4416, Note_on_c, 0, 73, 0
2, 4416, Note_on_c, 0, 59, 127
2, 4416, Note_on_c, 0, 66, 127
2, 4416, Note_on_c, 0, 71, 127
2, 4608, Note_on_c, 0, 59, 0
2, 4608, Note_on_c, 0, 66, 0
2, 4608, Note_on_c, 0, 71, 0
2, 4608, Note_on_c, 0, 59, 127
2, 4608, Note_on_c, 0, 67, 127
2, 4608, Note_on_c, 0, 71, 127
2, 4672, Note_on_c, 0, 59, 0
2, 4672, Note_on_c, 0, 71, 0
2, 4672, Note_on_c, 0, 58, 92
2, 4672, Note_on_c, 0, 70, 92
2, 4736, Note_on_c, 0, 58, 0
2, 4736, Note_on_c, 0, 70, 0
2, 4736, Note_on_c, 0, 59, 92
2, 4736, Note_on_c, 0, 71, 92
2, 4800, Note_on_c, 0, 59, 0
2, 4800, Note_on_c, 0, 71, 0
2, 4800, Note_on_c, 0, 61, 92
2, 4800, Note_on_c, 0, 73, 92
2, 4864, Note_on_c, 0, 61, 0
2, 4864, Note_on_c, 0, 73, 0
2, 4864, Note_on_c, 0, 62, 92
2, 4864, Note_on_c, 0, 74, 92
2, 4928, Note_on_c, 0, 62, 0
2, 4928, Note_on_c, 0, 74, 0
2, 4928, Note_on_c, 0, 64, 92
2, 4928, Note_on_c, 0, 76, 92
2, 4992, Note_on_c, 0, 64, 0
2, 4992, Note_on_c, 0, 67, 0
2, 4992, Note_on_c, 0, 76, 0
2, 4992, Note_on_c, 0, 62, 92
2, 4992, Note_on_c, 0, 66, 92
2, 4992, Note_on_c, 0, 74, 92
2, 5056, Note_on_c, 0, 62, 0
2, 5056, Note_on_c, 0, 74, 0
2, 5056, Note_on_c, 0, 61, 92
2, 5056, Note_on_c, 0, 73, 92
2, 5120, Note_on_c, 0, 61, 0
2, 5120, Note_on_c, 0, 73, 0
2, 5120, Note_on_c, 0, 59, 92
2, 5120, Note_on_c, 0, 71, 92
2, 5184, Note_on_c, 0, 59, 0
2, 5184, Note_on_c, 0, 66, 0
2, 5184, Note_on_c, 0, 71, 0
2, 5184, Note_on_c, 0, 58, 92
2, 5184, Note_on_c, 0, 70, 92
2, 5248, Note_on_c, 0, 58, 0
2, 5248, Note_on_c, 0, 70, 0
2, 5248, Note_on_c, 0, 59, 92
2, 5248, Note_on_c, 0, 71, 92
2, 5312, Note_on_c, 0, 59, 0
2, 5312, Note_on_c, 0, 71, 0
2, 5312, Note_on_c, 0, 61, 92
2, 5312, Note_on_c, 0, 73, 92
2, 5376, Note_on_c, 0, 61, 0
2, 5376, Note_on_c, 0, 73, 0
2, 5376, Note_on_c, 0, 59, 127
2, 5376, Note_on_c, 0, 67, 127
2, 5376, Note_on_c, 0, 71, 127
2, 5440, Note_on_c, 0, 59, 0
2, 5440, Note_on_c, 0, 71, 0
2, 5440, Note_on_c, 0, 58, 92
2, 5440, Note_on_c, 0, 70, 92
2, 5504, Note_on_c, 0, 58, 0
2, 5504, Note_on_c, 0, 70, 0
2, 5504, Note_on_c, 0, 59, 92
2, 5504, Note_on_c, 0, 71, 92
2, 5568, Note_on_c, 0, 59, 0
2, 5568, Note_on_c, 0, 71, 0
2, 5568, Note_on_c, 0, 61, 92
2, 5568, Note_on_c, 0, 73, 92
2, 5632, Note_on_c, 0, 61, 0
2, 5632, Note_on_c, 0, 73, 0
2, 5632, Note_on_c, 0, 62, 92
2, 5632, Note_on_c, 0, 74, 92
2, 5696, Note_on_c, 0, 62, 0
2, 5696, Note_on_c, 0, 74, 0
2, 5696, Note_on_c, 0, 64, 92
2, 5696, Note_on_c, 0, 76, 92
2, 5760, Note_on_c, 0, 64, 0
2, 5760, Note_on_c, 0, 67, 0
2, 5760, Note_on_c, 0, 76, 0
2, 5760, Note_on_c, 0, 62, 92
2, 5760, Note_on_c, 0, 66, 92
2, 5760, Note_on_c, 0, 74, 92
2, 5824, Note_on_c, 0, 62, 0
2, 5824, Note_on_c, 0, 74, 0
2, 5824, Note_on_c, 0, 61, 92
2, 5824, Note_on_c, 0, 73, 92
2, 5888, Note_on_c, 0, 61, 0
2, 5888, Note_on_c, 0, 73, 0
2, 5888, Note_on_c, 0, 59, 92
2, 5888, Note_on_c, 0, 71, 92
2, 5952, Note_on_c, 0, 59, 0
2, 5952, Note_on_c, 0, 66, 0
2, 5952, Note_on_c, 0, 71, 0
2, 5952, Note_on_c, 0, 58, 92
2, 5952, Note_on_c, 0, 70, 92
2, 6016, Note_on_c, 0, 58, 0
2, 6016, Note_on_c, 0, 70, 0
2, 6016, Note_on_c, 0, 59, 92
2, 6016, Note_on_c, 0, 71, 92
2, 6080, Note_on_c, 0, 59, 0
2, 6080, Note_on_c, 0, 71, 0
2, 6080, Note_on_c, 0, 61, 92
2, 6080, Note_on_c, 0, 73, 92
2, 6144, Note_on_c, 0, 61, 0
2, 6144, Note_on_c, 0, 73, 0
2, 6144, Note_on_c, 0, 62, 127
2, 6144, Note_on_c, 0, 70, 127
2, 6144, Note_on_c, 0, 74, 127
2, 6208, Note_on_c, 0, 62, 0
2, 6208, Note_on_c, 0, 74, 0
2, 6208, Note_on_c, 0, 61, 92
2, 6208, Note_on_c, 0, 73, 92
2, 6272, Note_on_c, 0, 61, 0
2, 6272, Note_on_c, 0, 73, 0
2, 6272, Note_on_c, 0, 62, 92
2, 6272, Note_on_c, 0, 74, 92
2, 6336, Note_on_c, 0, 62, 0
2, 6336, Note_on_c, 0, 74, 0
2, 6336, Note_on_c, 0, 64, 92
2, 6336, Note_on_c, 0, 76, 92
2, 6400, Note_on_c, 0, 64, 0
2, 6400, Note_on_c, 0, 76, 0
2, 6400, Note_on_c, 0, 65, 92
2, 6400, Note_on_c, 0, 77, 92
2, 6464, Note_on_c, 0, 65, 0
2, 6464, Note_on_c, 0, 77, 0
2, 6464, Note_on_c, 0, 67, 92
2, 6464, Note_on_c, 0, 79, 92
2, 6528, Note_on_c, 0, 67, 0
2, 6528, Note_on_c, 0, 70, 0
2, 6528, Note_on_c, 0, 79, 0
2, 6528, Note_on_c, 0, 65, 92
2, 6528, Note_on_c, 0, 69, 92
2, 6528, Note_on_c, 0, 77, 92
2, 6592, Note_on_c, 0, 65, 0
2, 6592, Note_on_c, 0, 77, 0
2, 6592, Note_on_c, 0, 64, 92
2, 6592, Note_on_c, 0, 76, 92
2, 6656, Note_on_c, 0, 64, 0
2, 6656, Note_on_c, 0, 76, 0
2, 6656, Note_on_c, 0, 62, 92
2, 6656, Note_on_c, 0, 74, 92
2, 6720, Note_on_c, 0, 62, 0
2, 6720, Note_on_c, 0, 69, 0
2, 6720, Note_on_c, 0, 74, 0
2, 6720, Note_on_c, 0, 61, 92
2, 6720, Note_on_c, 0, 73, 92
2, 6784, Note_on_c, 0, 61, 0
2, 6784, Note_on_c, 0, 73, 0
2, 6784, Note_on_c, 0, 62, 92
2, 6784, Note_on_c, 0, 74, 92
2, 6848, Note_on_c, 0, 62, 0
2, 6848, Note_on_c, 0, 74, 0
2, 6848, Note_on_c, 0, 64, 92
2, 6848, Note_on_c, 0, 76, 92
2, 6912, Note_on_c, 0, 64, 0
2, 6912, Note_on_c, 0, 76, 0
2, 6912, Note_on_c, 0, 62, 127
2, 6912, Note_on_c, 0, 70, 127
2, 6912, Note_on_c, 0, 74, 127
2, 6976, Note_on_c, 0, 62, 0
2, 6976, Note_on_c, 0, 74, 0
2, 6976, Note_on_c, 0, 61, 92
2, 6976, Note_on_c, 0, 73, 92
2, 7040, Note_on_c, 0, 61, 0
2, 7040, Note_on_c, 0, 73, 0
2, 7040, Note_on_c, 0, 62, 92
2, 7040, Note_on_c, 0, 74, 92
2, 7104, Note_on_c, 0, 62, 0
2, 7104, Note_on_c, 0, 74, 0
2, 7104, Note_on_c, 0, 64, 92
2, 7104, Note_on_c, 0, 76, 92
2, 7168, Note_on_c, 0, 64, 0
2, 7168, Note_on_c, 0, 76, 0
2, 7168, Note_on_c, 0, 65, 92
2, 7168, Note_on_c, 0, 77, 92
2, 7232, Note_on_c, 0, 65, 0
2, 7232, Note_on_c, 0, 77, 0
2, 7232, Note_on_c, 0, 67, 92
2, 7232, Note_on_c, 0, 79, 92
2, 7296, Note_on_c, 0, 67, 0
2, 7296, Note_on_c, 0, 70, 0
2, 7296, Note_on_c, 0, 79, 0
2, 7296, Note_on_c, 0, 65, 92
2, 7296, Note_on_c, 0, 69, 92
2, 7296, Note_on_c, 0, 77, 92
2, 7360, Note_on_c, 0, 65, 0
2, 7360, Note_on_c, 0, 77, 0
2, 7360, Note_on_c, 0, 64, 92
2, 7360, Note_on_c, 0, 76, 92
2, 7424, Note_on_c, 0, 64, 0
2, 7424, Note_on_c, 0, 76, 0
2, 7424, Note_on_c, 0, 62, 92
2, 7424, Note_on_c, 0, 74, 92
2, 7488, Note_on_c, 0, 62, 0
2, 7488, Note_on_c, 0, 69, 0
2, 7488, Note_on_c, 0, 74, 0
2, 7488, Note_on_c, 0, 61, 92
2, 7488, Note_on_c, 0, 73, 92
2, 7552, Note_on_c, 0, 61, 0
2, 7552, Note_on_c, 0, 73, 0
2, 7552, Note_on_c, 0, 62, 92
2, 7552, Note_on_c, 0, 74, 92
2, 7616, Note_on_c, 0, 62, 0
2, 7616, Note_on_c, 0, 74, 0
2, 7616, Note_on_c, 0, 64, 92
2, 7616, Note_on_c, 0, 76, 92
2, 7680, Note_on_c, 0, 64, 0
2, 7680, Note_on_c, 0, 76, 0
2, 7680, Note_on_c, 0, 64, 127
2, 7680, Note_on_c, 0, 70, 127
2, 7680, Note_on_c, 0, 73, 127
2, 7680, Note_on_c, 0, 76, 127
2, 7744, Note_on_c, 0, 64, 0
2, 7744, Note_on_c, 0, 76, 0
2, 7744, Note_on_c, 0, 63, 92
2, 7744, Note_on_c, 0, 75, 92
2, 7808, Note_on_c, 0, 63, 0
2, 7808, Note_on_c, 0, 75, 0
2, 7808, Note_on_c, 0, 64, 92
2, 7808, Note_on_c, 0, 76, 92
2, 7872, Note_on_c, 0, 64, 0
2, 7872, Note_on_c, 0, 70, 0
2, 7872, Note_on_c, 0, 73, 0
2, 7872, Note_on_c, 0, 76, 0
2, 7872, Note_on_c, 0, 65, 92
2, 7872, Note_on_c, 0, 77, 92
2, 7936, Note_on_c, 0, 65, 0
2, 7936, Note_on_c, 0, 77, 0
2, 7936, Note_on_c, 0, 66, 92
2, 7936, Note_on_c, 0, 78, 92
2, 8000, Note_on_c, 0, 66, 0
2, 8000, Note_on_c, 0, 78, 0
2, 8000, Note_on_c, 0, 67, 92
2, 8000, Note_on_c, 0, 79, 92
2, 8064, Note_on_c, 0, 67, 0
2, 8064, Note_on_c, 0, 79, 0
2, 8064, Note_on_c, 0, 66, 127
2, 8064, Note_on_c, 0, 72, 127
2, 8064, Note_on_c, 0, 75, 127
2, 8064, Note_on_c, 0, 78, 127
2, 8128, Note_on_c, 0, 66, 0
2, 8128, Note_on_c, 0, 78, 0
2, 8128, Note_on_c, 0, 65, 92
2, 8128, Note_on_c, 0, 77, 92
2, 8192, Note_on_c, 0, 65, 0
2, 8192, Note_on_c, 0, 77, 0
2, 8192, Note_on_c, 0, 66, 92
2, 8192, Note_on_c, 0, 78, 92
2, 8256, Note_on_c, 0, 66, 0
2, 8256, Note_on_c, 0, 72, 0
2, 8256, Note_on_c, 0, 75, 0
2, 8256, Note_on_c, 0, 78, 0
2, 8256, Note_on_c, 0, 67, 93
2, 8256, Note_on_c, 0, 79, 93
2, 8320, Note_on_c, 0, 67, 0
2, 8320, Note_on_c, 0, 79, 0
2, 8320, Note_on_c, 0, 68, 94
2, 8320, Note_on_c, 0, 80, 94
2, 8384, Note_on_c, 0, 68, 0
2, 8384, Note_on_c, 0, 80, 0
2, 8384, Note_on_c, 0, 69, 95
2, 8384, Note_on_c, 0, 81, 95
2, 8448, Note_on_c, 0, 69, 0
2, 8448, Note_on_c, 0, 81, 0
2, 8448, Note_on_c, 0, 70, 127
2, 8448, Note_on_c, 0, 76, 127
2, 8448, Note_on_c, 0, 79, 127
2, 8448, Note_on_c, 0, 82, 127
2, 8512, Note_on_c, 0, 70, 0
2, 8512, Note_on_c, 0, 82, 0
2, 8512, Note_on_c, 0, 71, 97
2, 8512, Note_on_c, 0, 83, 97
2, 8576, Note_on_c, 0, 71, 0
2, 8576, Note_on_c, 0, 83, 0
2, 8576, Note_on_c, 0, 72, 98
2, 8576, Note_on_c, 0, 84, 98
2, 8640, Note_on_c, 0, 72, 0
2, 8640, Note_on_c, 0, 76, 0
2, 8640, Note_on_c, 0, 79, 0
2, 8640, Note_on_c, 0, 84, 0
2, 8640, Note_on_c, 0, 73, 127
2, 8640, Note_on_c, 0, 79, 127
2, 8640, Note_on_c, 0, 82, 127
2, 8640, Note_on_c, 0, 85, 127
2, 8704, Note_on_c, 0, 73, 0
2, 8704, Note_on_c, 0, 85, 0
2, 8704, Note_on_c, 0, 74, 100
2, 8704, Note_on_c, 0, 86, 100
2, 8768, Note_on_c, 0, 74, 0
2, 8768, Note_on_c, 0, 86, 0
2, 8768, Note_on_c, 0, 75, 101
2, 8768, Note_on_c, 0, 87, 101
2, 8832, Note_on_c, 0, 75, 0
2, 8832, Note_on_c, 0, 79, 0
2, 8832, Note_on_c, 0, 82, 0
2, 8832, Note_on_c, 0, 87, 0
2, 8832, Note_on_c, 0, 76, 127
2, 8832, Note_on_c, 0, 82, 127
2, 8832, Note_on_c, 0, 85, 127
2, 8832, Note_on_c, 0, 88, 127
2, 8896, Note_on_c, 0, 76, 0
2, 8896, Note_on_c, 0, 88, 0
2, 8896, Note_on_c, 0, 77, 103
2, 8896, Note_on_c, 0, 89, 103
2, 8960, Note_on_c, 0, 77, 0
2, 8960, Note_on_c, 0, 89, 0
2, 8960, Note_on_c, 0, 78, 104
2, 8960, Note_on_c, 0, 90, 104
2, 9024, Note_on_c, 0, 78, 0
2, 9024, Note_on_c, 0, 82, 0
2, 9024, Note_on_c, 0, 85, 0
2, 9024, Note_on_c, 0, 90, 0
2, 9024, Note_on_c, 0, 79, 127
2, 9024, Note_on_c, 0, 85, 127
2, 9024, Note_on_c, 0, 88, 127
2, 9024, Note_on_c, 0, 91, 127
2, 9088, Note_on_c, 0, 79, 0
2, 9088, Note_on_c, 0, 91, 0
2, 9088, Note_on_c, 0, 79, 106
2, 9088, Note_on_c, 0, 91, 106
2, 9152, Note_on_c, 0, 79, 0
2, 9152, Note_on_c, 0, 91, 0
2, 9152, Note_on_c, 0, 78, 107
2, 9152, Note_on_c, 0, 90, 107
2, 9216, Note_on_c, 0, 78, 0
2, 9216, Note_on_c, 0, 85, 0
2, 9216, Note_on_c, 0, 88, 0
2, 9216, Note_on_c, 0, 90, 0
2, 9216, Note_on_c, 0, 83, 127
2, 9216, Note_on_c, 0, 86, 127
2, 9216, Note_on_c, 0, 95, 127
2, 9280, Note_on_c, 0, 83, 0
2, 9280, Note_on_c, 0, 95, 0
2, 9280, Note_on_c, 0, 82, 108
2, 9280, Note_on_c, 0, 94, 108
2, 9344, Note_on_c, 0, 82, 0
2, 9344, Note_on_c, 0, 94, 0
2, 9344, Note_on_c, 0, 83, 108
2, 9344, Note_on_c, 0, 95, 108
2, 9408, Note_on_c, 0, 83, 0
2, 9408, Note_on_c, 0, 95, 0
2, 9408, Note_on_c, 0, 82, 108
2, 9408, Note_on_c, 0, 94, 108
2, 9472, Note_on_c, 0, 82, 0
2, 9472, Note_on_c, 0, 94, 0
2, 9472, Note_on_c, 0, 81, 108
2, 9472, Note_on_c, 0, 93, 108
2, 9536, Note_on_c, 0, 81, 0
2, 9536, Note_on_c, 0, 93, 0
2, 9536, Note_on_c, 0, 80, 108
2, 9536, Note_on_c, 0, 92, 108
2, 9600, Note_on_c, 0, 80, 0
2, 9600, Note_on_c, 0, 86, 0
2, 9600, Note_on_c, 0, 92, 0
2, 9600, Note_on_c, 0, 81, 127
2, 9600, Note_on_c, 0, 86, 127
2, 9600, Note_on_c, 0, 93, 127
2, 9664, Note_on_c, 0, 81, 0
2, 9664, Note_on_c, 0, 93, 0
2, 9664, Note_on_c, 0, 80, 108
2, 9664, Note_on_c, 0, 92, 108
2, 9728, Note_on_c, 0, 80, 0
2, 9728, Note_on_c, 0, 92, 0
2, 9728, Note_on_c, 0, 81, 108
2, 9728, Note_on_c, 0, 93, 108
2, 9792, Note_on_c, 0, 81, 0
2, 9792, Note_on_c, 0, 93, 0
2, 9792, Note_on_c, 0, 80, 108
2, 9792, Note_on_c, 0, 92, 108
2, 9856, Note_on_c, 0, 80, 0
2, 9856, Note_on_c, 0, 92, 0
2, 9856, Note_on_c, 0, 79, 108
2, 9856, Note_on_c, 0, 91, 108
2, 9920, Note_on_c, 0, 79, 0
2, 9920, Note_on_c, 0, 91, 0
2, 9920, Note_on_c, 0, 78, 108
2, 9920, Note_on_c, 0, 90, 108
2, 9984, Note_on_c, 0, 78, 0
2, 9984, Note_on_c, 0, 86, 0
2, 9984, Note_on_c, 0, 90, 0
2, 9984, Note_on_c, 0, 79, 127
2, 9984, Note_on_c, 0, 83, 127
2, 9984, Note_on_c, 0, 91, 127
2, 10048, Note_on_c, 0, 79, 0
2, 10048, Note_on_c, 0, 91, 0
2, 10048, Note_on_c, 0, 78, 107
2, 10048, Note_on_c, 0, 90, 107
2, 10112, Note_on_c, 0, 78, 0
2, 10112, Note_on_c, 0, 90, 0
2, 10112, Note_on_c, 0, 79, 106
2, 10112, Note_on_c, 0, 91, 106
2, 10176, Note_on_c, 0, 79, 0
2, 10176, Note_on_c, 0, 83, 0
2, 10176, Note_on_c, 0, 91, 0
2, 10176, Note_on_c, 0, 78, 127
2, 10176, Note_on_c, 0, 83, 127
2, 10176, Note_on_c, 0, 90, 127
2, 10240, Note_on_c, 0, 78, 0
2, 10240, Note_on_c, 0, 90, 0
2, 10240, Note_on_c, 0, 77, 104
2, 10240, Note_on_c, 0, 89, 104
2, 10304, Note_on_c, 0, 77, 0
2, 10304, Note_on_c, 0, 89, 0
2, 10304, Note_on_c, 0, 76, 103
2, 10304, Note_on_c, 0, 88, 103
2, 10368, Note_on_c, 0, 76, 0
2, 10368, Note_on_c, 0, 83, 0
2, 10368, Note_on_c, 0, 88, 0
2, 10368, Note_on_c, 0, 75, 127
2, 10368, Note_on_c, 0, 78, 127
2, 10368, Note_on_c, 0, 87, 127
2, 10432, Note_on_c, 0, 75, 0
2, 10432, Note_on_c, 0, 87, 0
2, 10432, Note_on_c, 0, 74, 101
2, 10432, Note_on_c, 0, 86, 101
2, 10496, Note_on_c, 0, 74, 0
2, 10496, Note_on_c, 0, 86, 0
2, 10496, Note_on_c, 0, 73, 100
2, 10496, Note_on_c, 0, 85, 100
2, 10560, Note_on_c, 0, 73, 0
2, 10560, Note_on_c, 0, 78, 0
2, 10560, Note_on_c, 0, 85, 0
2, 10560, Note_on_c, 0, 71, 127
2, 10560, Note_on_c, 0, 78, 127
2, 10560, Note_on_c, 0, 83, 127
2, 10752, Note_on_c, 0, 71, 0
2, 10752, Note_on_c, 0, 78, 0
2, 10752, Note_on_c, 0, 83, 0
2, 10752, Note_on_c, 0, 71, 127
2, 10752, Note_on_c, 0, 79, 127
2, 10752, Note_on_c, 0, 83, 127
2, 10816, Note_on_c, 0, 71, 0
2, 10816, Note_on_c, 0, 83, 0
2, 10816, Note_on_c, 0, 70, 92
2, 10816, Note_on_c, 0, 82, 92
2, 10880, Note_on_c, 0, 70, 0
2, 10880, Note_on_c, 0, 82, 0
2, 10880, Note_on_c, 0, 71, 92
2, 10880, Note_on_c, 0, 83, 92
2, 10944, Note_on_c, 0, 71, 0
2, 10944, Note_on_c, 0, 83, 0
2, 10944, Note_on_c, 0, 73, 92
2, 10944, Note_on_c, 0, 85, 92
2, 11008, Note_on_c, 0, 73, 0
2, 11008, Note_on_c, 0, 85, 0
2, 11008, Note_on_c, 0, 74, 92
2, 11008, Note_on_c, 0, 86, 92
2, 11072, Note_on_c, 0, 74, 0
2, 11072, Note_on_c, 0, 86, 0
2, 11072, Note_on_c, 0, 76, 92
2, 11072, Note_on_c, 0, 88, 92
2, 11136, Note_on_c, 0, 76, 0
2, 11136, Note_on_c, 0, 79, 0
2, 11136, Note_on_c, 0, 88, 0
2, 11136, Note_on_c, 0, 74, 92
2, 11136, Note_on_c, 0, 78, 92
2, 11136, Note_on_c, 0, 86, 92
2, 11200, Note_on_c, 0, 74, 0
2, 11200, Note_on_c, 0, 86, 0
2, 11200, Note_on_c, 0, 73, 92
2, 11200, Note_on_c, 0, 85, 92
2, 11264, Note_on_c, 0, 73, 0
2, 11264, Note_on_c, 0, 85, 0
2, 11264, Note_on_c, 0, 71, 92
2, 11264, Note_on_c, 0, 83, 92
2, 11328, Note_on_c, 0, 71, 0
2, 11328, Note_on_c, 0, 78, 0
2, 11328, Note_on_c, 0, 83, 0
2, 11328, Note_on_c, 0, 70, 92
2, 11328, Note_on_c, 0, 82, 92
2, 11392, Note_on_c, 0, 70, 0
2, 11392, Note_on_c, 0, 82, 0
2, 11392, Note_on_c, 0, 71, 92
2, 11392, Note_on_c, 0, 83, 92
2, 11456, Note_on_c, 0, 71, 0
2, 11456, Note_on_c, 0, 83, 0
2, 11456, Note_on_c, 0, 73, 92
2, 11456, Note_on_c, 0, 85, 92
2, 11520, Note_on_c, 0, 73, 0
2, 11520, Note_on_c, 0, 85, 0
2, 11520, Note_on_c, 0, 71, 127
2, 11520, Note_on_c, 0, 79, 127
2, 11520, Note_on_c, 0, 83, 127
2, 11584, Note_on_c, 0, 71, 0
2, 11584, Note_on_c, 0, 83, 0
2, 11584, Note_on_c, 0, 70, 92
2, 11584, Note_on_c, 0, 82, 92
2, 11648, Note_on_c, 0, 70, 0
2, 11648, Note_on_c, 0, 82, 0
2, 11648, Note_on_c, 0, 71, 92
2, 11648, Note_on_c, 0, 83, 92
2, 11712, Note_on_c, 0, 71, 0
2, 11712, Note_on_c, 0, 83, 0
2, 11712, Note_on_c, 0, 73, 92
2, 11712, Note_on_c, 0, 85, 92
2, 11776, Note_on_c, 0, 73, 0
2, 11776, Note_on_c, 0, 85, 0
2, 11776, Note_on_c, 0, 74, 92
2, 11776, Note_on_c, 0, 86, 92
2, 11840, Note_on_c, 0, 74, 0
2, 11840, Note_on_c, 0, 86, 0
2, 11840, Note_on_c, 0, 76, 92
2, 11840, Note_on_c, 0, 88, 92
2, 11904, Note_on_c, 0, 76, 0
2, 11904, Note_on_c, 0, 79, 0
2, 11904, Note_on_c, 0, 88, 0
2, 11904, Note_on_c, 0, 74, 92
2, 11904, Note_on_c, 0, 78, 92
2, 11904, Note_on_c, 0, 86, 92
2, 11968, Note_on_c, 0, 74, 0
2, 11968, Note_on_c, 0, 86, 0
2, 11968, Note_on_c, 0, 73, 92
2, 11968, Note_on_c, 0, 85, 92
2, 12032, Note_on_c, 0, 73, 0
2, 12032, Note_on_c, 0, 85, 0
2, 12032, Note_on_c, 0, 71, 92
2, 12032, Note_on_c, 0, 83, 92
2, 12096, Note_on_c, 0, 71, 0
2, 12096, Note_on_c, 0, 78, 0
2, 12096, Note_on_c, 0, 83, 0
2, 12096, Note_on_c, 0, 70, 92
2, 12096, Note_on_c, 0, 82, 92
2, 12160, Note_on_c, 0, 70, 0
2, 12160, Note_on_c, 0, 82, 0
2, 12160, Note_on_c, 0, 71, 92
2, 12160, Note_on_c, 0, 83, 92
2, 12224, Note_on_c, 0, 71, 0
2, 12224, Note_on_c, 0, 83, 0
2, 12224, Note_on_c, 0, 73, 92
2, 12224, Note_on_c, 0, 85, 92
2, 12288, Note_on_c, 0, 73, 0
2, 12288, Note_on_c, 0, 85, 0
2, 12288, Note_on_c, 0, 71, 127
2, 12288, Note_on_c, 0, 77, 127
2, 12288, Note_on_c, 0, 79, 127
2, 12288, Note_on_c, 0, 83, 127
2, 12352, Note_on_c, 0, 71, 0
2, 12352, Note_on_c, 0, 83, 0
2, 12352, Note_on_c, 0, 70, 92
2, 12352, Note_on_c, 0, 82, 92
2, 12416, Note_on_c, 0, 70, 0
2, 12416, Note_on_c, 0, 82, 0
2, 12416, Note_on_c, 0, 71, 92
2, 12416, Note_on_c, 0, 83, 92
2, 12480, Note_on_c, 0, 71, 0
2, 12480, Note_on_c, 0, 83, 0
2, 12480, Note_on_c, 0, 72, 92
2, 12480, Note_on_c, 0, 84, 92
2, 12544, Note_on_c, 0, 72, 0
2, 12544, Note_on_c, 0, 84, 0
2, 12544, Note_on_c, 0, 73, 92
2, 12544, Note_on_c, 0, 85, 92
2, 12608, Note_on_c, 0, 73, 0
2, 12608, Note_on_c, 0, 85, 0
2, 12608, Note_on_c, 0, 74, 92
2, 12608, Note_on_c, 0, 86, 92
2, 12672, Note_on_c, 0, 74, 0
2, 12672, Note_on_c, 0, 77, 0
2, 12672, Note_on_c, 0, 79, 0
2, 12672, Note_on_c, 0, 86, 0
2, 12672, Note_on_c, 0, 73, 127
2, 12672, Note_on_c, 0, 77, 127
2, 12672, Note_on_c, 0, 79, 127
2, 12672, Note_on_c, 0, 85, 127
2, 12736, Note_on_c, 0, 73, 0
2, 12736, Note_on_c, 0, 85, 0
2, 12736, Note_on_c, 0, 72, 92
2, 12736, Note_on_c, 0, 84, 92
2, 12800, Note_on_c, 0, 72, 0
2, 12800, Note_on_c, 0, 84, 0
2, 12800, Note_on_c, 0, 71, 92
2, 12800, Note_on_c, 0, 83, 92
2, 12864, Note_on_c, 0, 71, 0
2, 12864, Note_on_c, 0, 77, 0
2, 12864, Note_on_c, 0, 79, 0
2, 12864, Note_on_c, 0, 83, 0
2, 12864, Note_on_c, 0, 70, 127
2, 12864, Note_on_c, 0, 77, 127
2, 12864, Note_on_c, 0, 79, 127
2, 12864, Note_on_c, 0, 82, 127
2, 12928, Note_on_c, 0, 70, 0
2, 12928, Note_on_c, 0, 82, 0
2, 12928, Note_on_c, 0, 71, 92
2, 12928, Note_on_c, 0, 83, 92
2, 12992, Note_on_c, 0, 71, 0
2, 12992, Note_on_c, 0, 83, 0
2, 12992, Note_on_c, 0, 73, 92
2, 12992, Note_on_c, 0, 85, 92
2, 13056, Note_on_c, 0, 73, 0
2, 13056, Note_on_c, 0, 77, 0
2, 13056, Note_on_c, 0, 79, 0
2, 13056, Note_on_c, 0, 85, 0
2, 13056, Note_on_c, 0, 71, 127
2, 13056, Note_on_c, 0, 77, 127
2, 13056, Note_on_c, 0, 79, 127
2, 13056, Note_on_c, 0, 83, 127
2, 13120, Note_on_c, 0, 71, 0
2, 13120, Note_on_c, 0, 83, 0
2, 13120, Note_on_c, 0, 70, 92
2, 13120, Note_on_c, 0, 82, 92
2, 13184, Note_on_c, 0, 70, 0
2, 13184, Note_on_c, 0, 82, 0
2, 13184, Note_on_c, 0, 71, 92
2, 13184, Note_on_c, 0, 83, 92
2, 13248, Note_on_c, 0, 71, 0
2, 13248, Note_on_c, 0, 77, 0
2, 13248, Note_on_c, 0, 79, 0
2, 13248, Note_on_c, 0, 83, 0
2, 13248, Note_on_c, 0, 72, 127
2, 13248, Note_on_c, 0, 77, 127
2, 13248, Note_on_c, 0, 79, 127
2, 13248, Note_on_c, 0, 84, 127
2, 13312, Note_on_c, 0, 72, 0
2, 13312, Note_on_c, 0, 77, 0
2, 13312, Note_on_c, 0, 79, 0
2, 13312, Note_on_c, 0, 84, 0
2, 13312, Note_on_c, 0, 73, 92
2, 13312, Note_on_c, 0, 85, 92
2, 13376, Note_on_c, 0, 73, 0
2, 13376, Note_on_c, 0, 85, 0
2, 13376, Note_on_c, 0, 74, 127
2, 13376, Note_on_c, 0, 77, 127
2, 13376, Note_on_c, 0, 79, 127
2, 13376, Note_on_c, 0, 86, 127
2, 13440, Note_on_c, 0, 74, 0
2, 13440, Note_on_c, 0, 77, 0
2, 13440, Note_on_c, 0, 79, 0
2, 13440, Note_on_c, 0, 86, 0
2, 13440, Note_on_c, 0, 73, 127
2, 13440, Note_on_c, 0, 77, 127
2, 13440, Note_on_c, 0, 79, 127
2, 13440, Note_on_c, 0, 85, 127
2, 13504, Note_on_c, 0, 73, 0
2, 13504, Note_on_c, 0, 85, 0
2, 13504, Note_on_c, 0, 72, 92
2, 13504, Note_on_c, 0, 84, 92
2, 13568, Note_on_c, 0, 72, 0
2, 13568, Note_on_c, 0, 84, 0
2, 13568, Note_on_c, 0, 71, 92
2, 13568, Note_on_c, 0, 83, 92
2, 13632, Note_on_c, 0, 71, 0
2, 13632, Note_on_c, 0, 77, 0
2, 13632, Note_on_c, 0, 79, 0
2, 13632, Note_on_c, 0, 83, 0
2, 13632, Note_on_c, 0, 70, 92
2, 13632, Note_on_c, 0, 82, 92
2, 13696, Note_on_c, 0, 70, 0
2, 13696, Note_on_c, 0, 82, 0
2, 13696, Note_on_c, 0, 71, 92
2, 13696, Note_on_c, 0, 83, 92
2, 13760, Note_on_c, 0, 71, 0
2, 13760, Note_on_c, 0, 83, 0
2, 13760, Note_on_c, 0, 65, 127
2, 13760, Note_on_c, 0, 71, 127
2, 13760, Note_on_c, 0, 73, 127
2, 13760, Note_on_c, 0, 77, 127
2, 13824, Note_on_c, 0, 65, 0
2, 13824, Note_on_c, 0, 71, 0
2, 13824, Note_on_c, 0, 73, 0
2, 13824, Note_on_c, 0, 77, 0
2, 13824, Note_on_c, 0, 66, 127
2, 13824, Note_on_c, 0, 71, 127
2, 13824, Note_on_c, 0, 73, 127
2, 13824, Note_on_c, 0, 78, 127
2, 13888, Note_on_c, 0, 66, 0
2, 13888, Note_on_c, 0, 78, 0
2, 13888, Note_on_c, 0, 67, 92
2, 13888, Note_on_c, 0, 79, 92
2, 13952, Note_on_c, 0, 67, 0
2, 13952, Note_on_c, 0, 79, 0
2, 13952, Note_on_c, 0, 66, 92
2, 13952, Note_on_c, 0, 78, 92
2, 14016, Note_on_c, 0, 66, 0
2, 14016, Note_on_c, 0, 78, 0
2, 14016, Note_on_c, 0, 65, 92
2, 14016, Note_on_c, 0, 77, 92
2, 14080, Note_on_c, 0, 65, 0
2, 14080, Note_on_c, 0, 77, 0
2, 14080, Note_on_c, 0, 66, 92
2, 14080, Note_on_c, 0, 78, 92
2, 14144, Note_on_c, 0, 66, 0
2, 14144, Note_on_c, 0, 78, 0
2, 14144, Note_on_c, 0, 67, 92
2, 14144, Note_on_c, 0, 79, 92
2, 14208, Note_on_c, 0, 67, 0
2, 14208, Note_on_c, 0, 71, 0
2, 14208, Note_on_c, 0, 73, 0
2, 14208, Note_on_c, 0, 79, 0
2, 14208, Note_on_c, 0, 66, 127
2, 14208, Note_on_c, 0, 71, 127
2, 14208, Note_on_c, 0, 73, 127
2, 14208, Note_on_c, 0, 78, 127
2, 14272, Note_on_c, 0, 66, 0
2, 14272, Note_on_c, 0, 78, 0
2, 14272, Note_on_c, 0, 65, 92
2, 14272, Note_on_c, 0, 77, 92
2, 14336, Note_on_c, 0, 65, 0
2, 14336, Note_on_c, 0, 77, 0
2, 14336, Note_on_c, 0, 66, 92
2, 14336, Note_on_c, 0, 78, 92
2, 14400, Note_on_c, 0, 66, 0
2, 14400, Note_on_c, 0, 71, 0
2, 14400, Note_on_c, 0, 73, 0
2, 14400, Note_on_c, 0, 78, 0
2, 14400, Note_on_c, 0, 67, 92
2, 14400, Note_on_c, 0, 71, 92
2, 14400, Note_on_c, 0, 73, 92
2, 14400, Note_on_c, 0, 79, 92
2, 14464, Note_on_c, 0, 67, 0
2, 14464, Note_on_c, 0, 79, 0
2, 14464, Note_on_c, 0, 66, 92
2, 14464, Note_on_c, 0, 78, 92
2, 14528, Note_on_c, 0, 66, 0
2, 14528, Note_on_c, 0, 78, 0
2, 14528, Note_on_c, 0, 65, 92
2, 14528, Note_on_c, 0, 77, 92
2, 14592, Note_on_c, 0, 65, 0
2, 14592, Note_on_c, 0, 71, 0
2, 14592, Note_on_c, 0, 73, 0
2, 14592, Note_on_c, 0, 77, 0
2, 14592, Note_on_c, 0, 66, 127
2, 14592, Note_on_c, 0, 78, 127
2, 14656, Note_on_c, 0, 66, 0
2, 14656, Note_on_c, 0, 78, 0
2, 14656, Note_on_c, 0, 67, 92
2, 14656, Note_on_c, 0, 79, 92
2, 14720, Note_on_c, 0, 67, 0
2, 14720, Note_on_c, 0, 79, 0
2, 14720, Note_on_c, 0, 66, 92
2, 14720, Note_on_c, 0, 78, 92
2, 14784, Note_on_c, 0, 66, 0
2, 14784, Note_on_c, 0, 78, 0
2, 14784, Note_on_c, 0, 65, 92
2, 14784, Note_on_c, 0, 77, 92
2, 14848, Note_on_c, 0, 65, 0
2, 14848, Note_on_c, 0, 77, 0
2, 14848, Note_on_c, 0, 66, 93
2, 14848, Note_on_c, 0, 78, 93
2, 14912, Note_on_c, 0, 66, 0
2, 14912, Note_on_c, 0, 78, 0
2, 14912, Note_on_c, 0, 67, 94
2, 14912, Note_on_c, 0, 79, 94
2, 14976, Note_on_c, 0, 67, 0
2, 14976, Note_on_c, 0, 79, 0
2, 14976, Note_on_c, 0, 66, 96
2, 14976, Note_on_c, 0, 78, 96
2, 15040, Note_on_c, 0, 66, 0
2, 15040, Note_on_c, 0, 78, 0
2, 15040, Note_on_c, 0, 65, 98
2, 15040, Note_on_c, 0, 77, 98
2, 15104, Note_on_c, 0, 65, 0
2, 15104, Note_on_c, 0, 77, 0
2, 15104, Note_on_c, 0, 66, 100
2, 15104, Note_on_c, 0, 78, 100
2, 15168, Note_on_c, 0, 66, 0
2, 15168, Note_on_c, 0, 78, 0
2, 15168, Note_on_c, 0, 67, 102
2, 15168, Note_on_c, 0, 79, 102
2, 15232, Note_on_c, 0, 67, 0
2, 15232, Note_on_c, 0, 79, 0
2, 15232, Note_on_c, 0, 66, 104
2, 15232, Note_on_c, 0, 78, 104
2, 15296, Note_on_c, 0, 66, 0
2, 15296, Note_on_c, 0, 78, 0
2, 15296, Note_on_c, 0, 67, 106
2, 15296, Note_on_c, 0, 79, 106
2, 15360, Note_on_c, 0, 67, 0
2, 15360, Note_on_c, 0, 79, 0
2, 15360, Note_on_c, 0, 66, 108
2, 15360, Note_on_c, 0, 78, 108
2, 15424, Note_on_c, 0, 66, 0
2, 15424, Note_on_c, 0, 78, 0
2, 15424, Note_on_c, 0, 67, 108
2, 15424, Note_on_c, 0, 79, 108
2, 15488, Note_on_c, 0, 67, 0
2, 15488, Note_on_c, 0, 79, 0
2, 15488, Note_on_c, 0, 68, 127
2, 15488, Note_on_c, 0, 80, 127
2, 15552, Note_on_c, 0, 68, 0
2, 15552, Note_on_c, 0, 80, 0
2, 15552, Note_on_c, 0, 67, 108
2, 15552, Note_on_c, 0, 79, 108
2, 15616, Note_on_c, 0, 67, 0
2, 15616, Note_on_c, 0, 79, 0
2, 15616, Note_on_c, 0, 68, 108
2, 15616, Note_on_c, 0, 80, 108
2, 15680, Note_on_c, 0, 68, 0
2, 15680, Note_on_c, 0, 80, 0
2, 15680, Note_on_c, 0, 69, 127
2, 15680, Note_on_c, 0, 81, 127
2, 15744, Note_on_c, 0, 69, 0
2, 15744, Note_on_c, 0, 81, 0
2, 15744, Note_on_c, 0, 68, 108
2, 15744, Note_on_c, 0, 80, 108
2, 15808, Note_on_c, 0, 68, 0
2, 15808, Note_on_c, 0, 80, 0
2, 15808, Note_on_c, 0, 69, 108
2, 15808, Note_on_c, 0, 81, 108
2, 15872, Note_on_c, 0, 69, 0
2, 15872, Note_on_c, 0, 81, 0
2, 15872, Note_on_c, 0, 70, 127
2, 15872, Note_on_c, 0, 82, 127
2, 15936, Note_on_c, 0, 70, 0
2, 15936, Note_on_c, 0, 82, 0
2, 15936, Note_on_c, 0, 69, 108
2, 15936, Note_on_c, 0, 81, 108
2, 16000, Note_on_c, 0, 69, 0
2, 16000, Note_on_c, 0, 81, 0
2, 16000, Note_on_c, 0, 70, 108
2, 16000, Note_on_c, 0, 82, 108
2, 16064, Note_on_c, 0, 70, 0
2, 16064, Note_on_c, 0, 82, 0
2, 16064, Note_on_c, 0, 71, 127
2, 16064, Note_on_c, 0, 83, 127
2, 16128, Note_on_c, 0, 71, 0
2, 16128, Note_on_c, 0, 83, 0
2, 16128, Note_on_c, 0, 70, 108
2, 16128, Note_on_c, 0, 82, 108
2, 16192, Note_on_c, 0, 70, 0
2, 16192, Note_on_c, 0, 82, 0
2, 16192, Note_on_c, 0, 71, 109
2, 16192, Note_on_c, 0, 83, 109
2, 16256, Note_on_c, 0, 71, 0
2, 16256, Note_on_c, 0, 83, 0
2, 16256, Note_on_c, 0, 72, 110
2, 16256, Note_on_c, 0, 84, 110
2, 16320, Note_on_c, 0, 72, 0
2, 16320, Note_on_c, 0, 84, 0
2, 16320, Note_on_c, 0, 73, 111
2, 16320, Note_on_c, 0, 85, 111
2, 16384, Note_on_c, 0, 73, 0
2, 16384, Note_on_c, 0, 85, 0
2, 16384, Note_on_c, 0, 74, 112
2, 16384, Note_on_c, 0, 86, 112
2, 16448, Note_on_c, 0, 74, 0
2, 16448, Note_on_c, 0, 86, 0
2, 16448, Note_on_c, 0, 75, 113
2, 16448, Note_on_c, 0, 87, 113
2, 16512, Note_on_c, 0, 75, 0
2, 16512, Note_on_c, 0, 87, 0
2, 16512, Note_on_c, 0, 76, 115
2, 16512, Note_on_c, 0, 88, 115
2, 16576, Note_on_c, 0, 76, 0
2, 16576, Note_on_c, 0, 88, 0
2, 16576, Note_on_c, 0, 77, 117
2, 16576, Note_on_c, 0, 89, 117
2, 16640, Note_on_c, 0, 77, 0
2, 16640, Note_on_c, 0, 89, 0
2, 16640, Note_on_c, 0, 78, 119
2, 16640, Note_on_c, 0, 90, 119
2, 16704, Note_on_c, 0, 78, 0
2, 16704, Note_on_c, 0, 90, 0
2, 16704, Note_on_c, 0, 79, 121
2, 16704, Note_on_c, 0, 91, 121
2, 16768, Note_on_c, 0, 79, 0
2, 16768, Note_on_c, 0, 91, 0
2, 16768, Note_on_c, 0, 80, 123
2, 16768, Note_on_c, 0, 92, 123
2, 16832, Note_on_c, 0, 80, 0
2, 16832, Note_on_c, 0, 92, 0
2, 16832, Note_on_c, 0, 82, 125
2, 16832, Note_on_c, 0, 94, 125
2, 16896, Note_on_c, 0, 82, 0
2, 16896, Note_on_c, 0, 94, 0
2, 16896, Note_on_c, 0, 83, 127
2, 16896, Note_on_c, 0, 86, 127
2, 16896, Note_on_c, 0, 89, 127
2, 16896, Note_on_c, 0, 92, 127
2, 16896, Note_on_c, 0, 95, 127
2, 16992, Note_on_c, 0, 83, 0
2, 16992, Note_on_c, 0, 86, 0
2, 16992, Note_on_c, 0, 89, 0
2, 16992, Note_on_c, 0, 92, 0
2, 16992, Note_on_c, 0, 95, 0
2, 16992, Note_on_c, 0, 83, 127
2, 16992, Note_on_c, 0, 95, 127
2, 17040, Note_on_c, 0, 83, 0
2, 17040, Note_on_c, 0, 95, 0
2, 17040, Note_on_c, 0, 84, 127
2, 17040, Note_on_c, 0, 96, 127
2, 17088, Note_on_c, 0, 84, 0
2, 17088, Note_on_c, 0, 96, 0
2, 17088, Note_on_c, 0, 85, 127
2, 17088, Note_on_c, 0, 97, 127
2, 17152, Note_on_c, 0, 85, 0
2, 17152, Note_on_c, 0, 97, 0
2, 17152, Note_on_c, 0, 86, 127
2, 17152, Note_on_c, 0, 98, 127
2, 17216, Note_on_c, 0, 86, 0
2, 17216, Note_on_c, 0, 98, 0
2, 17216, Note_on_c, 0, 84, 127
2, 17216, Note_on_c, 0, 96, 127
2, 17280, Note_on_c, 0, 84, 0
2, 17280, Note_on_c, 0, 96, 0
2, 17280, Note_on_c, 0, 80, 127
2, 17280, Note_on_c, 0, 92, 127
2, 17344, Note_on_c, 0, 80, 0
2, 17344, Note_on_c, 0, 92, 0
2, 17344, Note_on_c, 0, 77, 127
2, 17344, Note_on_c, 0, 89, 127
2, 17408, Note_on_c, 0, 77, 0
2, 17408, Note_on_c, 0, 89, 0
2, 17408, Note_on_c, 0, 78, 127
2, 17408, Note_on_c, 0, 90, 127
2, 17472, Note_on_c, 0, 78, 0
2, 17472, Note_on_c, 0, 90, 0
2, 17472, Note_on_c, 0, 79, 127
2, 17472, Note_on_c, 0, 91, 127
2, 17536, Note_on_c, 0, 79, 0
2, 17536, Note_on_c, 0, 91, 0
2, 17536, Note_on_c, 0, 80, 127
2, 17536, Note_on_c, 0, 92, 127
2, 17600, Note_on_c, 0, 80, 0
2, 17600, Note_on_c, 0, 92, 0
2, 17600, Note_on_c, 0, 77, 127
2, 17600, Note_on_c, 0, 89, 127
2, 17664, Note_on_c, 0, 77, 0
2, 17664, Note_on_c, 0, 89, 0
2, 17664, Note_on_c, 0, 74, 127
2, 17664, Note_on_c, 0, 86, 127
2, 17728, Note_on_c, 0, 74, 0
2, 17728, Note_on_c, 0, 86, 0
2, 17728, Note_on_c, 0, 71, 125
2, 17728, Note_on_c, 0, 83, 125
2, 17792, Note_on_c, 0, 71, 0
2, 17792, Note_on_c, 0, 83, 0
2, 17792, Note_on_c, 0, 72, 122
2, 17792, Note_on_c, 0, 84, 122
2, 17856, Note_on_c, 0, 72, 0
2, 17856, Note_on_c, 0, 84, 0
2, 17856, Note_on_c, 0, 73, 119
2, 17856, Note_on_c, 0, 85, 119
2, 17920, Note_on_c, 0, 73, 0
2, 17920, Note_on_c, 0, 85, 0
2, 17920, Note_on_c, 0, 74, 116
2, 17920, Note_on_c, 0, 86, 116
2, 17984, Note_on_c, 0, 74, 0
2, 17984, Note_on_c, 0, 86, 0
2, 17984, Note_on_c, 0, 71, 113
2, 17984, Note_on_c, 0, 83, 113
2, 18048, Note_on_c, 0, 71, 0
2, 18048, Note_on_c, 0, 83, 0
2, 18048, Note_on_c, 0, 67, 110
2, 18048, Note_on_c, 0, 79, 110
2, 18112, Note_on_c, 0, 67, 0
2, 18112, Note_on_c, 0, 79, 0
2, 18112, Note_on_c, 0, 68, 107
2, 18112, Note_on_c, 0, 80, 107
2, 18176, Note_on_c, 0, 68, 0
2, 18176, Note_on_c, 0, 80, 0
2, 18176, Note_on_c, 0, 65, 104
2, 18176, Note_on_c, 0, 77, 104
2, 18240, Note_on_c, 0, 65, 0
2, 18240, Note_on_c, 0, 77, 0
2, 18240, Note_on_c, 0, 61, 101
2, 18240, Note_on_c, 0, 73, 101
2, 18304, Note_on_c, 0, 61, 0
2, 18304, Note_on_c, 0, 73, 0
2, 18304, Note_on_c, 0, 62, 98
2, 18304, Note_on_c, 0, 74, 98
2, 18368, Note_on_c, 0, 62, 0
2, 18368, Note_on_c, 0, 74, 0
2, 18368, Note_on_c, 0, 59, 95
2, 18368, Note_on_c, 0, 71, 95
2, 18496, Note_on_c, 0, 59, 0
2, 18496, Note_on_c, 0, 71, 0
2, 18496, Note_on_c, 0, 54, 92
2, 18496, Note_on_c, 0, 66, 92
2, 18560, Note_on_c, 0, 54, 0
2, 18560, Note_on_c, 0, 66, 0
2, 18560, Note_on_c, 0, 58, 92
2, 18560, Note_on_c, 0, 70, 92
2, 18624, Note_on_c, 0, 58, 0
2, 18624, Note_on_c, 0, 70, 0
2, 18624, Note_on_c, 0, 61, 92
2, 18624, Note_on_c, 0, 73, 92
2, 18688, Note_on_c, 0, 61, 0
2, 18688, Note_on_c, 0, 73, 0
2, 18688, Note_on_c, 0, 58, 92
2, 18688, Note_on_c, 0, 70, 92
2, 18752, Note_on_c, 0, 58, 0
2, 18752, Note_on_c, 0, 70, 0
2, 18752, Note_on_c, 0, 62, 92
2, 18752, Note_on_c, 0, 74, 92
2, 18816, Note_on_c, 0, 62, 0
2, 18816, Note_on_c, 0, 74, 0
2, 18816, Note_on_c, 0, 58, 92
2, 18816, Note_on_c, 0, 70, 92
2, 18880, Note_on_c, 0, 58, 0
2, 18880, Note_on_c, 0, 70, 0
2, 18880, Note_on_c, 0, 59, 92
2, 18880, Note_on_c, 0, 71, 92
2, 18944, Note_on_c, 0, 59, 0
2, 18944, Note_on_c, 0, 71, 0
2, 18944, Note_on_c, 0, 64, 92
2, 18944, Note_on_c, 0, 76, 92
2, 19008, Note_on_c, 0, 64, 0
2, 19008, Note_on_c, 0, 76, 0
2, 19008, Note_on_c, 0, 61, 92
2, 19008, Note_on_c, 0, 73, 92
2, 19072, Note_on_c, 0, 61, 0
2, 19072, Note_on_c, 0, 73, 0
2, 19072, Note_on_c, 0, 62, 92
2, 19072, Note_on_c, 0, 74, 92
2, 19136, Note_on_c, 0, 62, 0
2, 19136, Note_on_c, 0, 74, 0
2, 19136, Note_on_c, 0, 67, 92
2, 19136, Note_on_c, 0, 79, 92
2, 19200, Note_on_c, 0, 67, 0
2, 19200, Note_on_c, 0, 79, 0
2, 19200, Note_on_c, 0, 65, 92
2, 19200, Note_on_c, 0, 77, 92
2, 19264, Note_on_c, 0, 65, 0
2, 19264, Note_on_c, 0, 77, 0
2, 19264, Note_on_c, 0, 66, 92
2, 19264, Note_on_c, 0, 78, 92
2, 19328, Note_on_c, 0, 66, 0
2, 19328, Note_on_c, 0, 78, 0
2, 19328, Note_on_c, 0, 70, 92
2, 19328, Note_on_c, 0, 82, 92
2, 19392, Note_on_c, 0, 70, 0
2, 19392, Note_on_c, 0, 82, 0
2, 19392, Note_on_c, 0, 73, 93
2, 19392, Note_on_c, 0, 85, 93
2, 19456, Note_on_c, 0, 73, 0
2, 19456, Note_on_c, 0, 85, 0
2, 19456, Note_on_c, 0, 70, 94
2, 19456, Note_on_c, 0, 82, 94
2, 19520, Note_on_c, 0, 70, 0
2, 19520, Note_on_c, 0, 82, 0
2, 19520, Note_on_c, 0, 74, 95
2, 19520, Note_on_c, 0, 86, 95
2, 19584, Note_on_c, 0, 74, 0
2, 19584, Note_on_c, 0, 86, 0
2, 19584, Note_on_c, 0, 70, 96
2, 19584, Note_on_c, 0, 82, 96
2, 19648, Note_on_c, 0, 70, 0
2, 19648, Note_on_c, 0, 82, 0
2, 19648, Note_on_c, 0, 71, 97
2, 19648, Note_on_c, 0, 83, 97
2, 19712, Note_on_c, 0, 71, 0
2, 19712, Note_on_c, 0, 83, 0
2, 19712, Note_on_c, 0, 76, 98
2, 19712, Note_on_c, 0, 88, 98
2, 19776, Note_on_c, 0, 76, 0
2, 19776, Note_on_c, 0, 88, 0
2, 19776, Note_on_c, 0, 73, 99
2, 19776, Note_on_c, 0, 85, 99
2, 19840, Note_on_c, 0, 73, 0
2, 19840, Note_on_c, 0, 85, 0
2, 19840, Note_on_c, 0, 74, 100
2, 19840, Note_on_c, 0, 86, 100
2, 19904, Note_on_c, 0, 74, 0
2, 19904, Note_on_c, 0, 86, 0
2, 19904, Note_on_c, 0, 79, 101
2, 19904, Note_on_c, 0, 91, 101
2, 19968, Note_on_c, 0, 79, 0
2, 19968, Note_on_c, 0, 91, 0
2, 19968, Note_on_c, 0, 77, 102
2, 19968, Note_on_c, 0, 89, 102
2, 20032, Note_on_c, 0, 77, 0
2, 20032, Note_on_c, 0, 89, 0
2, 20032, Note_on_c, 0, 78, 103
2, 20032, Note_on_c, 0, 90, 103
2, 20096, Note_on_c, 0, 78, 0
2, 20096, Note_on_c, 0, 90, 0
2, 20096, Note_on_c, 0, 82, 104
2, 20096, Note_on_c, 0, 94, 104
2, 20160, Note_on_c, 0, 82, 0
2, 20160, Note_on_c, 0, 94, 0
2, 20160, Note_on_c, 0, 85, 105
2, 20160, Note_on_c, 0, 97, 105
2, 20224, Note_on_c, 0, 85, 0
2, 20224, Note_on_c, 0, 97, 0
2, 20224, Note_on_c, 0, 82, 106
2, 20224, Note_on_c, 0, 94, 106
2, 20288, Note_on_c, 0, 82, 0
2, 20288, Note_on_c, 0, 94, 0
2, 20288, Note_on_c, 0, 86, 107
2, 20288, Note_on_c, 0, 98, 107
2, 20352, Note_on_c, 0, 86, 0
2, 20352, Note_on_c, 0, 98, 0
2, 20352, Note_on_c, 0, 59, 127
2, 20352, Note_on_c, 0, 62, 127
2, 20352, Note_on_c, 0, 67, 127
2, 20352, Note_on_c, 0, 71, 127
2, 20736, Note_on_c, 0, 59, 0
2, 20736, Note_on_c, 0, 62, 0
2, 20736, Note_on_c, 0, 67, 0
2, 20736, Note_on_c, 0, 71, 0
2, 20736, Note_on_c, 0, 60, 108
2, 20736, Note_on_c, 0, 67, 108
2, 20736, Note_on_c, 0, 72, 108
2, 20800, Note_on_c, 0, 60, 0
2, 20800, Note_on_c, 0, 67, 0
2, 20800, Note_on_c, 0, 72, 0
2, 20800, Note_on_c, 0, 63, 108
2, 20800, Note_on_c, 0, 69, 108
2, 20864, Note_on_c, 0, 63, 0
2, 20864, Note_on_c, 0, 69, 0
2, 20864, Note_on_c, 0, 58, 108
2, 20864, Note_on_c, 0, 61, 108
2, 20864, Note_on_c, 0, 70, 108
2, 20928, Note_on_c, 0, 58, 0
2, 20928, Note_on_c, 0, 70, 0
2, 20928, Note_on_c, 0, 54, 108
2, 20928, Note_on_c, 0, 64, 108
2, 20928, Note_on_c, 0, 66, 108
2, 21024, Note_on_c, 0, 54, 0
2, 21024, Note_on_c, 0, 61, 0
2, 21024, Note_on_c, 0, 64, 0
2, 21024, Note_on_c, 0, 66, 0
2, 21504, Note_on_c, 0, 76, 60
2, 22272, Note_on_c, 0, 76, 0
2, 22272, Note_on_c, 0, 78, 60
2, 22464, Note_on_c, 0, 78, 0
2, 22464, Note_on_c, 0, 73, 60
2, 22656, Note_on_c, 0, 73, 0
2, 22656, Note_on_c, 0, 63, 45
2, 22656, Note_on_c, 0, 75, 45
2, 22752, Note_on_c, 0, 63, 0
2, 22752, Note_on_c, 0, 75, 0
2, 22752, Note_on_c, 0, 64, 45
2, 22752, Note_on_c, 0, 76, 45
2, 22848, Note_on_c, 0, 64, 0
2, 22848, Note_on_c, 0, 76, 0
2, 22848, Note_on_c, 0, 63, 45
2, 22848, Note_on_c, 0, 75, 45
2, 22944, Note_on_c, 0, 63, 0
2, 22944, Note_on_c, 0, 75, 0
2, 22944, Note_on_c, 0, 61, 45
2, 22944, Note_on_c, 0, 73, 45
2, 23040, Note_on_c, 0, 61, 0
2, 23040, Note_on_c, 0, 73, 0
2, 23040, Note_on_c, 0, 63, 45
2, 23040, Note_on_c, 0, 75, 45
2, 23136, Note_on_c, 0, 63, 0
2, 23136, Note_on_c, 0, 75, 0
2, 23136, Note_on_c, 0, 64, 45
2, 23136, Note_on_c, 0, 76, 45
2, 23232, Note_on_c, 0, 64, 0
2, 23232, Note_on_c, 0, 76, 0
2, 23232, Note_on_c, 0, 63, 45
2, 23232, Note_on_c, 0, 75, 45
2, 23328, Note_on_c, 0, 63, 0
2, 23328, Note_on_c, 0, 75, 0
2, 23328, Note_on_c, 0, 61, 45
2, 23328, Note_on_c, 0, 73, 45
2, 23424, Note_on_c, 0, 61, 0
2, 23424, Note_on_c, 0, 73, 0
2, 23424, Note_on_c, 0, 59, 45
2, 23424, Note_on_c, 0, 71, 45
2, 23520, Note_on_c, 0, 59, 0
2, 23520, Note_on_c, 0, 71, 0
2, 23520, Note_on_c, 0, 61, 45
2, 23520, Note_on_c, 0, 73, 45
2, 23616, Note_on_c, 0, 61, 0
2, 23616, Note_on_c, 0, 73, 0
2, 23616, Note_on_c, 0, 63, 45
2, 23616, Note_on_c, 0, 75, 45
2, 23712, Note_on_c, 0, 63, 0
2, 23712, Note_on_c, 0, 75, 0
2, 23712, Note_on_c, 0, 59, 45
2, 23712, Note_on_c, 0, 71, 45
2, 23808, Note_on_c, 0, 59, 0
2, 23808, Note_on_c, 0, 71, 0
2, 23808, Note_on_c, 0, 63, 45
2, 23808, Note_on_c, 0, 75, 45
2, 23904, Note_on_c, 0, 63, 0
2, 23904, Note_on_c, 0, 75, 0
2, 23904, Note_on_c, 0, 64, 45
2, 23904, Note_on_c, 0, 76, 45
2, 24000, Note_on_c, 0, 64, 0
2, 24000, Note_on_c, 0, 76, 0
2, 24000, Note_on_c, 0, 65, 45
2, 24000, Note_on_c, 0, 77, 45
2, 24096, Note_on_c, 0, 65, 0
2, 24096, Note_on_c, 0, 77, 0
2, 24096, Note_on_c, 0, 66, 45
2, 24096, Note_on_c, 0, 78, 45
2, 24192, Note_on_c, 0, 66, 0
2, 24192, Note_on_c, 0, 78, 0
2, 24192, Note_on_c, 0, 70, 45
2, 24192, Note_on_c, 0, 82, 45
2, 24288, Note_on_c, 0, 70, 0
2, 24288, Note_on_c, 0, 82, 0
2, 24288, Note_on_c, 0, 68, 45
2, 24288, Note_on_c, 0, 80, 45
2, 24384, Note_on_c, 0, 68, 0
2, 24384, Note_on_c, 0, 80, 0
2, 24384, Note_on_c, 0, 66, 45
2, 24384, Note_on_c, 0, 78, 45
2, 24480, Note_on_c, 0, 66, 0
2, 24480, Note_on_c, 0, 78, 0
2, 24480, Note_on_c, 0, 64, 45
2, 24480, Note_on_c, 0, 76, 45
2, 24576, Note_on_c, 0, 64, 0
2, 24576, Note_on_c, 0, 76, 0
2, 24576, Note_on_c, 0, 63, 45
2, 24576, Note_on_c, 0, 75, 45
2, 24672, Note_on_c, 0, 63, 0
2, 24672, Note_on_c, 0, 75, 0
2, 24672, Note_on_c, 0, 61, 45
2, 24672, Note_on_c, 0, 73, 45
2, 24768, Note_on_c, 0, 61, 0
2, 24768, Note_on_c, 0, 73, 0
2, 24768, Note_on_c, 0, 63, 45
2, 24768, Note_on_c, 0, 75, 45
2, 24864, Note_on_c, 0, 63, 0
2, 24864, Note_on_c, 0, 75, 0
2, 24864, Note_on_c, 0, 71, 45
2, 24960, Note_on_c, 0, 71, 0
2, 24960, Note_on_c, 0, 61, 45
2, 24960, Note_on_c, 0, 73, 45
2, 25056, Note_on_c, 0, 61, 0
2, 25056, Note_on_c, 0, 73, 0
2, 25056, Note_on_c, 0, 63, 47
2, 25056, Note_on_c, 0, 75, 47
2, 25152, Note_on_c, 0, 63, 0
2, 25152, Note_on_c, 0, 75, 0
2, 25152, Note_on_c, 0, 61, 49
2, 25152, Note_on_c, 0, 73, 49
2, 25248, Note_on_c, 0, 61, 0
2, 25248, Note_on_c, 0, 73, 0
2, 25248, Note_on_c, 0, 68, 51
2, 25248, Note_on_c, 0, 80, 51
2, 25344, Note_on_c, 0, 68, 0
2, 25344, Note_on_c, 0, 80, 0
2, 25344, Note_on_c, 0, 71, 54
2, 25344, Note_on_c, 0, 83, 54
2, 25440, Note_on_c, 0, 71, 0
2, 25440, Note_on_c, 0, 83, 0
2, 25440, Note_on_c, 0, 75, 57
2, 25440, Note_on_c, 0, 87, 57
2, 25536, Note_on_c, 0, 75, 0
2, 25536, Note_on_c, 0, 87, 0
2, 25536, Note_on_c, 0, 73, 60
2, 25536, Note_on_c, 0, 85, 60
2, 25632, Note_on_c, 0, 73, 0
2, 25632, Note_on_c, 0, 85, 0
2, 25632, Note_on_c, 0, 75, 60
2, 25632, Note_on_c, 0, 87, 60
2, 25728, Note_on_c, 0, 75, 0
2, 25728, Note_on_c, 0, 87, 0
2, 25728, Note_on_c, 0, 73, 60
2, 25728, Note_on_c, 0, 85, 60
2, 25824, Note_on_c, 0, 73, 0
2, 25824, Note_on_c, 0, 85, 0
2, 25824, Note_on_c, 0, 70, 57
2, 25824, Note_on_c, 0, 82, 57
2, 25920, Note_on_c, 0, 70, 0
2, 25920, Note_on_c, 0, 82, 0
2, 25920, Note_on_c, 0, 68, 53
2, 25920, Note_on_c, 0, 80, 53
2, 26016, Note_on_c, 0, 68, 0
2, 26016, Note_on_c, 0, 80, 0
2, 26016, Note_on_c, 0, 70, 49
2, 26016, Note_on_c, 0, 82, 49
2, 26112, Note_on_c, 0, 70, 0
2, 26112, Note_on_c, 0, 82, 0
2, 26112, Note_on_c, 0, 68, 45
2, 26112, Note_on_c, 0, 80, 45
2, 26208, Note_on_c, 0, 68, 0
2, 26208, Note_on_c, 0, 80, 0
2, 26208, Note_on_c, 0, 66, 45
2, 26208, Note_on_c, 0, 78, 45
2, 26304, Note_on_c, 0, 66, 0
2, 26304, Note_on_c, 0, 78, 0
2, 26304, Note_on_c, 0, 63, 45
2, 26304, Note_on_c, 0, 75, 45
2, 26400, Note_on_c, 0, 63, 0
2, 26400, Note_on_c, 0, 75, 0
2, 26400, Note_on_c, 0, 66, 45
2, 26400, Note_on_c, 0, 78, 45
2, 26496, Note_on_c, 0, 66, 0
2, 26496, Note_on_c, 0, 78, 0
2, 26496, Note_on_c, 0, 63, 45
2, 26496, Note_on_c, 0, 75, 45
2, 26592, Note_on_c, 0, 63, 0
2, 26592, Note_on_c, 0, 75, 0
2, 26592, Note_on_c, 0, 61, 45
2, 26592, Note_on_c, 0, 73, 45
2, 26688, Note_on_c, 0, 61, 0
2, 26688, Note_on_c, 0, 73, 0
2, 26688, Note_on_c, 0, 56, 45
2, 26688, Note_on_c, 0, 68, 45
2, 26880, Note_on_c, 0, 56, 0
2, 26880, Note_on_c, 0, 68, 0
2, 26880, Note_on_c, 0, 58, 45
2, 26880, Note_on_c, 0, 66, 45
2, 26880, Note_on_c, 0, 70, 45
2, 27072, Note_on_c, 0, 66, 0
2, 27072, Note_on_c, 0, 64, 45
2, 27264, Note_on_c, 0, 58, 0
2, 27264, Note_on_c, 0, 64, 0
2, 27264, Note_on_c, 0, 70, 0
2, 27264, Note_on_c, 0, 63, 45
2, 27264, Note_on_c, 0, 66, 45
2, 27360, Note_on_c, 0, 63, 0
2, 27360, Note_on_c, 0, 66, 0
2, 27360, Note_on_c, 0, 58, 45
2, 27360, Note_on_c, 0, 70, 45
2, 27456, Note_on_c, 0, 58, 0
2, 27456, Note_on_c, 0, 70, 0
2, 27456, Note_on_c, 0, 59, 45
2, 27456, Note_on_c, 0, 71, 45
2, 27552, Note_on_c, 0, 59, 0
2, 27552, Note_on_c, 0, 71, 0
2, 27552, Note_on_c, 0, 61, 45
2, 27552, Note_on_c, 0, 73, 45
2, 27648, Note_on_c, 0, 61, 0
2, 27648, Note_on_c, 0, 73, 0
2, 27648, Note_on_c, 0, 63, 45
2, 27648, Note_on_c, 0, 75, 45
2, 27744, Note_on_c, 0, 63, 0
2, 27744, Note_on_c, 0, 75, 0
2, 27744, Note_on_c, 0, 66, 45
2, 27744, Note_on_c, 0, 78, 45
2, 27768, Note_on_c, 0, 66, 0
2, 27768, Note_on_c, 0, 78, 0
2, 27768, Note_on_c, 0, 64, 45
2, 27768, Note_on_c, 0, 76, 45
2, 27840, Note_on_c, 0, 64, 0
2, 27840, Note_on_c, 0, 76, 0
2, 27840, Note_on_c, 0, 63, 45
2, 27840, Note_on_c, 0, 75, 45
2, 27936, Note_on_c, 0, 63, 0
2, 27936, Note_on_c, 0, 75, 0
2, 27936, Note_on_c, 0, 61, 45
2, 27936, Note_on_c, 0, 73, 45
2, 28032, Note_on_c, 0, 61, 0
2, 28032, Note_on_c, 0, 73, 0
2, 28032, Note_on_c, 0, 59, 45
2, 28032, Note_on_c, 0, 71, 45
2, 28128, Note_on_c, 0, 59, 0
2, 28128, Note_on_c, 0, 71, 0
2, 28128, Note_on_c, 0, 61, 45
2, 28128, Note_on_c, 0, 73, 45
2, 28224, Note_on_c, 0, 61, 0
2, 28224, Note_on_c, 0, 73, 0
2, 28224, Note_on_c, 0, 63, 45
2, 28224, Note_on_c, 0, 75, 45
2, 28320, Note_on_c, 0, 63, 0
2, 28320, Note_on_c, 0, 75, 0
2, 28320, Note_on_c, 0, 59, 45
2, 28320, Note_on_c, 0, 71, 45
2, 28416, Note_on_c, 0, 59, 0
2, 28416, Note_on_c, 0, 71, 0
2, 28416, Note_on_c, 0, 63, 45
2, 28416, Note_on_c, 0, 75, 45
2, 28512, Note_on_c, 0, 63, 0
2, 28512, Note_on_c, 0, 75, 0
2, 28512, Note_on_c, 0, 64, 45
2, 28512, Note_on_c, 0, 76, 45
2, 28608, Note_on_c, 0, 64, 0
2, 28608, Note_on_c, 0, 76, 0
2, 28608, Note_on_c, 0, 65, 45
2, 28608, Note_on_c, 0, 77, 45
2, 28704, Note_on_c, 0, 65, 0
2, 28704, Note_on_c, 0, 77, 0
2, 28704, Note_on_c, 0, 66, 45
2, 28704, Note_on_c, 0, 78, 45
2, 28800, Note_on_c, 0, 66, 0
2, 28800, Note_on_c, 0, 78, 0
2, 28800, Note_on_c, 0, 70, 45
2, 28800, Note_on_c, 0, 82, 45
2, 28896, Note_on_c, 0, 70, 0
2, 28896, Note_on_c, 0, 82, 0
2, 28896, Note_on_c, 0, 68, 45
2, 28896, Note_on_c, 0, 80, 45
2, 28992, Note_on_c, 0, 68, 0
2, 28992, Note_on_c, 0, 80, 0
2, 28992, Note_on_c, 0, 66, 45
2, 28992, Note_on_c, 0, 78, 45
2, 29088, Note_on_c, 0, 66, 0
2, 29088, Note_on_c, 0, 78, 0
2, 29088, Note_on_c, 0, 64, 45
2, 29088, Note_on_c, 0, 76, 45
2, 29184, Note_on_c, 0, 64, 0
2, 29184, Note_on_c, 0, 76, 0
2, 29184, Note_on_c, 0, 63, 45
2, 29184, Note_on_c, 0, 75, 45
2, 29280, Note_on_c, 0, 63, 0
2, 29280, Note_on_c, 0, 75, 0
2, 29280, Note_on_c, 0, 61, 45
2, 29280, Note_on_c, 0, 73, 45
2, 29376, Note_on_c, 0, 61, 0
2, 29376, Note_on_c, 0, 73, 0
2, 29376, Note_on_c, 0, 63, 45
2, 29376, Note_on_c, 0, 75, 45
2, 29472, Note_on_c, 0, 63, 0
2, 29472, Note_on_c, 0, 75, 0
2, 29472, Note_on_c, 0, 71, 45
2, 29568, Note_on_c, 0, 71, 0
2, 29568, Note_on_c, 0, 62, 45
2, 29568, Note_on_c, 0, 74, 45
2, 29664, Note_on_c, 0, 62, 0
2, 29664, Note_on_c, 0, 74, 0
2, 29664, Note_on_c, 0, 63, 45
2, 29664, Note_on_c, 0, 75, 45
2, 29760, Note_on_c, 0, 63, 0
2, 29760, Note_on_c, 0, 75, 0
2, 29760, Note_on_c, 0, 64, 45
2, 29760, Note_on_c, 0, 76, 45
2, 29856, Note_on_c, 0, 64, 0
2, 29856, Note_on_c, 0, 76, 0
2, 29856, Note_on_c, 0, 63, 45
2, 29856, Note_on_c, 0, 75, 45
2, 29952, Note_on_c, 0, 63, 0
2, 29952, Note_on_c, 0, 75, 0
2, 29952, Note_on_c, 0, 66, 45
2, 29952, Note_on_c, 0, 78, 45
2, 30048, Note_on_c, 0, 66, 0
2, 30048, Note_on_c, 0, 78, 0
2, 30048, Note_on_c, 0, 64, 45
2, 30048, Note_on_c, 0, 76, 45
2, 30144, Note_on_c, 0, 64, 0
2, 30144, Note_on_c, 0, 76, 0
2, 30144, Note_on_c, 0, 65, 45
2, 30144, Note_on_c, 0, 77, 45
2, 30240, Note_on_c, 0, 65, 0
2, 30240, Note_on_c, 0, 77, 0
2, 30240, Note_on_c, 0, 66, 45
2, 30240, Note_on_c, 0, 78, 45
2, 30336, Note_on_c, 0, 66, 0
2, 30336, Note_on_c, 0, 78, 0
2, 30336, Note_on_c, 0, 68, 46
2, 30336, Note_on_c, 0, 80, 46
2, 30432, Note_on_c, 0, 68, 0
2, 30432, Note_on_c, 0, 80, 0
2, 30432, Note_on_c, 0, 66, 47
2, 30432, Note_on_c, 0, 78, 47
2, 30528, Note_on_c, 0, 66, 0
2, 30528, Note_on_c, 0, 78, 0
2, 30528, Note_on_c, 0, 69, 48
2, 30528, Note_on_c, 0, 81, 48
2, 30624, Note_on_c, 0, 69, 0
2, 30624, Note_on_c, 0, 81, 0
2, 30624, Note_on_c, 0, 68, 49
2, 30624, Note_on_c, 0, 80, 49
2, 30720, Note_on_c, 0, 68, 0
2, 30720, Note_on_c, 0, 80, 0
2, 30720, Note_on_c, 0, 67, 50
2, 30720, Note_on_c, 0, 79, 50
2, 30816, Note_on_c, 0, 67, 0
2, 30816, Note_on_c, 0, 79, 0
2, 30816, Note_on_c, 0, 68, 51
2, 30816, Note_on_c, 0, 80, 51
2, 30912, Note_on_c, 0, 68, 0
2, 30912, Note_on_c, 0, 80, 0
2, 30912, Note_on_c, 0, 70, 52
2, 30912, Note_on_c, 0, 82, 52
2, 31008, Note_on_c, 0, 70, 0
2, 31008, Note_on_c, 0, 82, 0
2, 31008, Note_on_c, 0, 68, 53
2, 31008, Note_on_c, 0, 80, 53
2, 31104, Note_on_c, 0, 68, 0
2, 31104, Note_on_c, 0, 80, 0
2, 31104, Note_on_c, 0, 71, 54
2, 31104, Note_on_c, 0, 83, 54
2, 31248, Note_on_c, 0, 71, 0
2, 31248, Note_on_c, 0, 83, 0
2, 31248, Note_on_c, 0, 70, 55
2, 31248, Note_on_c, 0, 82, 55
2, 31296, Note_on_c, 0, 70, 0
2, 31296, Note_on_c, 0, 82, 0
2, 31296, Note_on_c, 0, 70, 55
2, 31296, Note_on_c, 0, 82, 55
2, 31392, Note_on_c, 0, 70, 0
2, 31392, Note_on_c, 0, 82, 0
2, 31392, Note_on_c, 0, 68, 56
2, 31392, Note_on_c, 0, 80, 56
2, 31488, Note_on_c, 0, 68, 0
2, 31488, Note_on_c, 0, 80, 0
2, 31488, Note_on_c, 0, 67, 57
2, 31488, Note_on_c, 0, 79, 57
2, 31584, Note_on_c, 0, 67, 0
2, 31584, Note_on_c, 0, 79, 0
2, 31584, Note_on_c, 0, 68, 58
2, 31584, Note_on_c, 0, 80, 58
2, 31680, Note_on_c, 0, 68, 0
2, 31680, Note_on_c, 0, 80, 0
2, 31680, Note_on_c, 0, 71, 60
2, 31680, Note_on_c, 0, 83, 60
2, 31824, Note_on_c, 0, 71, 0
2, 31824, Note_on_c, 0, 83, 0
2, 31872, Note_on_c, 0, 75, 60
2, 31872, Note_on_c, 0, 87, 60
2, 31968, Note_on_c, 0, 75, 0
2, 31968, Note_on_c, 0, 87, 0
2, 31968, Note_on_c, 0, 73, 59
2, 31968, Note_on_c, 0, 85, 59
2, 32064, Note_on_c, 0, 73, 0
2, 32064, Note_on_c, 0, 85, 0
2, 32064, Note_on_c, 0, 71, 58
2, 32064, Note_on_c, 0, 83, 58
2, 32160, Note_on_c, 0, 71, 0
2, 32160, Note_on_c, 0, 83, 0
2, 32160, Note_on_c, 0, 70, 57
2, 32160, Note_on_c, 0, 82, 57
2, 32256, Note_on_c, 0, 70, 0
2, 32256, Note_on_c, 0, 82, 0
2, 32256, Note_on_c, 0, 71, 56
2, 32256, Note_on_c, 0, 83, 56
2, 32352, Note_on_c, 0, 71, 0
2, 32352, Note_on_c, 0, 83, 0
2, 32352, Note_on_c, 0, 68, 55
2, 32352, Note_on_c, 0, 80, 55
2, 32448, Note_on_c, 0, 68, 0
2, 32448, Note_on_c, 0, 80, 0
2, 32448, Note_on_c, 0, 70, 54
2, 32448, Note_on_c, 0, 82, 54
2, 32544, Note_on_c, 0, 70, 0
2, 32544, Note_on_c, 0, 82, 0
2, 32544, Note_on_c, 0, 68, 53
2, 32544, Note_on_c, 0, 80, 53
2, 32640, Note_on_c, 0, 68, 0
2, 32640, Note_on_c, 0, 80, 0
2, 32640, Note_on_c, 0, 66, 52
2, 32640, Note_on_c, 0, 78, 52
2, 32736, Note_on_c, 0, 66, 0
2, 32736, Note_on_c, 0, 78, 0
2, 32736, Note_on_c, 0, 65, 51
2, 32736, Note_on_c, 0, 77, 51
2, 32832, Note_on_c, 0, 65, 0
2, 32832, Note_on_c, 0, 77, 0
2, 32832, Note_on_c, 0, 66, 50
2, 32832, Note_on_c, 0, 78, 50
2, 32928, Note_on_c, 0, 66, 0
2, 32928, Note_on_c, 0, 78, 0
2, 32928, Note_on_c, 0, 63, 48
2, 32928, Note_on_c, 0, 75, 48
2, 33024, Note_on_c, 0, 63, 0
2, 33024, Note_on_c, 0, 75, 0
2, 33024, Note_on_c, 0, 68, 46
2, 33024, Note_on_c, 0, 80, 46
2, 33120, Note_on_c, 0, 68, 0
2, 33120, Note_on_c, 0, 80, 0
2, 33120, Note_on_c, 0, 66, 44
2, 33120, Note_on_c, 0, 78, 44
2, 33216, Note_on_c, 0, 66, 0
2, 33216, Note_on_c, 0, 78, 0
2, 33216, Note_on_c, 0, 64, 42
2, 33216, Note_on_c, 0, 76, 42
2, 33312, Note_on_c, 0, 64, 0
2, 33312, Note_on_c, 0, 76, 0
2, 33312, Note_on_c, 0, 63, 40
2, 33312, Note_on_c, 0, 75, 40
2, 33408, Note_on_c, 0, 63, 0
2, 33408, Note_on_c, 0, 75, 0
2, 33408, Note_on_c, 0, 64, 38
2, 33408, Note_on_c, 0, 76, 38
2, 33504, Note_on_c, 0, 64, 0
2, 33504, Note_on_c, 0, 76, 0
2, 33504, Note_on_c, 0, 61, 36
2, 33504, Note_on_c, 0, 73, 36
2, 33600, Note_on_c, 0, 61, 0
2, 33600, Note_on_c, 0, 73, 0
2, 33600, Note_on_c, 0, 58, 34
2, 33600, Note_on_c, 0, 64, 34
2, 33600, Note_on_c, 0, 70, 34
2, 33792, Note_on_c, 0, 58, 0
2, 33792, Note_on_c, 0, 64, 0
2, 33792, Note_on_c, 0, 70, 0
2, 33792, Note_on_c, 0, 59, 30
2, 33792, Note_on_c, 0, 63, 30
2, 33792, Note_on_c, 0, 71, 30
2, 33888, Note_on_c, 0, 59, 0
2, 33888, Note_on_c, 0, 63, 0
2, 33888, Note_on_c, 0, 71, 0
2, 33984, Note_on_c, 0, 60, 63
2, 33984, Note_on_c, 0, 72, 63
2, 34176, Note_on_c, 0, 60, 0
2, 34176, Note_on_c, 0, 72, 0
2, 34176, Note_on_c, 0, 73, 45
2, 34200, Note_on_c, 0, 73, 0
2, 34200, Note_on_c, 0, 75, 45
2, 34224, Note_on_c, 0, 75, 0
2, 34224, Note_on_c, 0, 61, 45
2, 34224, Note_on_c, 0, 73, 45
2, 34368, Note_on_c, 0, 61, 0
2, 34368, Note_on_c, 0, 73, 0
2, 34368, Note_on_c, 0, 60, 45
2, 34368, Note_on_c, 0, 72, 45
2, 34464, Note_on_c, 0, 60, 0
2, 34464, Note_on_c, 0, 72, 0
2, 34464, Note_on_c, 0, 61, 45
2, 34464, Note_on_c, 0, 73, 45
2, 34560, Note_on_c, 0, 61, 0
2, 34560, Note_on_c, 0, 73, 0
2, 34560, Note_on_c, 0, 64, 45
2, 34560, Note_on_c, 0, 69, 45
2, 34560, Note_on_c, 0, 76, 45
2, 34656, Note_on_c, 0, 64, 0
2, 34656, Note_on_c, 0, 76, 0
2, 34656, Note_on_c, 0, 63, 45
2, 34656, Note_on_c, 0, 75, 45
2, 34752, Note_on_c, 0, 63, 0
2, 34752, Note_on_c, 0, 75, 0
2, 34752, Note_on_c, 0, 61, 45
2, 34752, Note_on_c, 0, 73, 45
2, 34848, Note_on_c, 0, 61, 0
2, 34848, Note_on_c, 0, 69, 0
2, 34848, Note_on_c, 0, 73, 0
2, 34848, Note_on_c, 0, 60, 45
2, 34848, Note_on_c, 0, 68, 45
2, 34848, Note_on_c, 0, 72, 45
2, 34944, Note_on_c, 0, 60, 0
2, 34944, Note_on_c, 0, 68, 0
2, 34944, Note_on_c, 0, 72, 0
2, 34944, Note_on_c, 0, 58, 45
2, 34944, Note_on_c, 0, 70, 45
2, 35040, Note_on_c, 0, 58, 0
2, 35040, Note_on_c, 0, 70, 0
2, 35040, Note_on_c, 0, 60, 45
2, 35040, Note_on_c, 0, 72, 45
2, 35136, Note_on_c, 0, 60, 0
2, 35136, Note_on_c, 0, 72, 0
2, 35136, Note_on_c, 0, 61, 46
2, 35136, Note_on_c, 0, 73, 46
2, 35232, Note_on_c, 0, 61, 0
2, 35232, Note_on_c, 0, 73, 0
2, 35232, Note_on_c, 0, 63, 47
2, 35232, Note_on_c, 0, 75, 47
2, 35328, Note_on_c, 0, 63, 0
2, 35328, Note_on_c, 0, 75, 0
2, 35328, Note_on_c, 0, 64, 48
2, 35328, Note_on_c, 0, 76, 48
2, 35424, Note_on_c, 0, 64, 0
2, 35424, Note_on_c, 0, 76, 0
2, 35424, Note_on_c, 0, 66, 49
2, 35424, Note_on_c, 0, 78, 49
2, 35520, Note_on_c, 0, 66, 0
2, 35520, Note_on_c, 0, 78, 0
2, 35520, Note_on_c, 0, 63, 50
2, 35520, Note_on_c, 0, 75, 50
2, 35616, Note_on_c, 0, 63, 0
2, 35616, Note_on_c, 0, 75, 0
2, 35616, Note_on_c, 0, 64, 51
2, 35616, Note_on_c, 0, 76, 51
2, 35712, Note_on_c, 0, 64, 0
2, 35712, Note_on_c, 0, 76, 0
2, 35712, Note_on_c, 0, 68, 52
2, 35712, Note_on_c, 0, 72, 52
2, 35712, Note_on_c, 0, 80, 52
2, 35808, Note_on_c, 0, 68, 0
2, 35808, Note_on_c, 0, 80, 0
2, 35808, Note_on_c, 0, 66, 53
2, 35808, Note_on_c, 0, 78, 53
2, 35904, Note_on_c, 0, 66, 0
2, 35904, Note_on_c, 0, 78, 0
2, 35904, Note_on_c, 0, 64, 54
2, 35904, Note_on_c, 0, 76, 54
2, 36000, Note_on_c, 0, 64, 0
2, 36000, Note_on_c, 0, 72, 0
2, 36000, Note_on_c, 0, 76, 0
2, 36000, Note_on_c, 0, 63, 55
2, 36000, Note_on_c, 0, 71, 55
2, 36000, Note_on_c, 0, 75, 55
2, 36096, Note_on_c, 0, 63, 0
2, 36096, Note_on_c, 0, 71, 0
2, 36096, Note_on_c, 0, 75, 0
2, 36096, Note_on_c, 0, 61, 56
2, 36096, Note_on_c, 0, 73, 56
2, 36192, Note_on_c, 0, 61, 0
2, 36192, Note_on_c, 0, 73, 0
2, 36192, Note_on_c, 0, 63, 57
2, 36192, Note_on_c, 0, 75, 57
2, 36288, Note_on_c, 0, 63, 0
2, 36288, Note_on_c, 0, 75, 0
2, 36288, Note_on_c, 0, 64, 58
2, 36288, Note_on_c, 0, 76, 58
2, 36384, Note_on_c, 0, 64, 0
2, 36384, Note_on_c, 0, 76, 0
2, 36384, Note_on_c, 0, 66, 59
2, 36384, Note_on_c, 0, 78, 59
2, 36480, Note_on_c, 0, 66, 0
2, 36480, Note_on_c, 0, 78, 0
2, 36480, Note_on_c, 0, 68, 60
2, 36480, Note_on_c, 0, 74, 60
2, 36480, Note_on_c, 0, 80, 60
2, 36576, Note_on_c, 0, 68, 0
2, 36576, Note_on_c, 0, 80, 0
2, 36576, Note_on_c, 0, 67, 60
2, 36576, Note_on_c, 0, 79, 60
2, 36672, Note_on_c, 0, 67, 0
2, 36672, Note_on_c, 0, 79, 0
2, 36672, Note_on_c, 0, 70, 60
2, 36672, Note_on_c, 0, 82, 60
2, 36768, Note_on_c, 0, 70, 0
2, 36768, Note_on_c, 0, 82, 0
2, 36768, Note_on_c, 0, 68, 60
2, 36768, Note_on_c, 0, 80, 60
2, 36864, Note_on_c, 0, 68, 0
2, 36864, Note_on_c, 0, 74, 0
2, 36864, Note_on_c, 0, 80, 0
2, 36864, Note_on_c, 0, 68, 60
2, 36864, Note_on_c, 0, 75, 60
2, 36864, Note_on_c, 0, 80, 60
2, 36960, Note_on_c, 0, 68, 0
2, 36960, Note_on_c, 0, 80, 0
2, 36960, Note_on_c, 0, 67, 60
2, 36960, Note_on_c, 0, 79, 60
2, 37056, Note_on_c, 0, 67, 0
2, 37056, Note_on_c, 0, 75, 0
2, 37056, Note_on_c, 0, 79, 0
2, 37056, Note_on_c, 0, 67, 60
2, 37056, Note_on_c, 0, 73, 60
2, 37056, Note_on_c, 0, 79, 60
2, 37152, Note_on_c, 0, 67, 0
2, 37152, Note_on_c, 0, 79, 0
2, 37152, Note_on_c, 0, 66, 58
2, 37152, Note_on_c, 0, 78, 58
2, 37248, Note_on_c, 0, 66, 0
2, 37248, Note_on_c, 0, 78, 0
2, 37248, Note_on_c, 0, 69, 56
2, 37248, Note_on_c, 0, 81, 56
2, 37344, Note_on_c, 0, 69, 0
2, 37344, Note_on_c, 0, 81, 0
2, 37344, Note_on_c, 0, 67, 54
2, 37344, Note_on_c, 0, 79, 54
2, 37440, Note_on_c, 0, 67, 0
2, 37440, Note_on_c, 0, 73, 0
2, 37440, Note_on_c, 0, 79, 0
2, 37440, Note_on_c, 0, 67, 51
2, 37440, Note_on_c, 0, 74, 51
2, 37440, Note_on_c, 0, 79, 51
2, 37536, Note_on_c, 0, 67, 0
2, 37536, Note_on_c, 0, 79, 0
2, 37536, Note_on_c, 0, 66, 48
2, 37536, Note_on_c, 0, 78, 48
2, 37632, Note_on_c, 0, 66, 0
2, 37632, Note_on_c, 0, 74, 0
2, 37632, Note_on_c, 0, 78, 0
2, 37632, Note_on_c, 0, 66, 45
2, 37632, Note_on_c, 0, 72, 45
2, 37632, Note_on_c, 0, 78, 45
2, 37728, Note_on_c, 0, 66, 0
2, 37728, Note_on_c, 0, 78, 0
2, 37728, Note_on_c, 0, 65, 45
2, 37728, Note_on_c, 0, 77, 45
2, 37824, Note_on_c, 0, 65, 0
2, 37824, Note_on_c, 0, 72, 0
2, 37824, Note_on_c, 0, 77, 0
2, 37824, Note_on_c, 0, 65, 45
2, 37824, Note_on_c, 0, 72, 45
2, 37824, Note_on_c, 0, 77, 45
2, 37920, Note_on_c, 0, 72, 0
2, 37920, Note_on_c, 0, 71, 45
2, 38016, Note_on_c, 0, 65, 0
2, 38016, Note_on_c, 0, 71, 0
2, 38016, Note_on_c, 0, 77, 0
2, 38016, Note_on_c, 0, 65, 45
2, 38016, Note_on_c, 0, 71, 45
2, 38016, Note_on_c, 0, 77, 45
2, 38112, Note_on_c, 0, 65, 0
2, 38112, Note_on_c, 0, 77, 0
2, 38112, Note_on_c, 0, 64, 45
2, 38112, Note_on_c, 0, 76, 45
2, 38208, Note_on_c, 0, 64, 0
2, 38208, Note_on_c, 0, 71, 0
2, 38208, Note_on_c, 0, 76, 0
2, 38208, Note_on_c, 0, 64, 45
2, 38208, Note_on_c, 0, 71, 45
2, 38208, Note_on_c, 0, 76, 45
2, 38304, Note_on_c, 0, 71, 0
2, 38304, Note_on_c, 0, 70, 45
2, 38400, Note_on_c, 0, 64, 0
2, 38400, Note_on_c, 0, 70, 0
2, 38400, Note_on_c, 0, 76, 0
2, 38400, Note_on_c, 0, 64, 45
2, 38400, Note_on_c, 0, 70, 45
2, 38400, Note_on_c, 0, 76, 45
2, 38496, Note_on_c, 0, 64, 0
2, 38496, Note_on_c, 0, 76, 0
2, 38496, Note_on_c, 0, 63, 45
2, 38496, Note_on_c, 0, 75, 45
2, 38592, Note_on_c, 0, 63, 0
2, 38592, Note_on_c, 0, 70, 0
2, 38592, Note_on_c, 0, 75, 0
2, 38592, Note_on_c, 0, 76, 45
2, 38616, Note_on_c, 0, 76, 0
2, 38616, Note_on_c, 0, 63, 45
2, 38616, Note_on_c, 0, 70, 45
2, 38616, Note_on_c, 0, 75, 45
2, 38688, Note_on_c, 0, 63, 0
2, 38688, Note_on_c, 0, 75, 0
2, 38688, Note_on_c, 0, 62, 45
2, 38688, Note_on_c, 0, 74, 45
2, 38784, Note_on_c, 0, 62, 0
2, 38784, Note_on_c, 0, 70, 0
2, 38784, Note_on_c, 0, 74, 0
2, 38784, Note_on_c, 0, 63, 45
2, 38784, Note_on_c, 0, 71, 45
2, 38784, Note_on_c, 0, 75, 45
2, 38880, Note_on_c, 0, 63, 0
2, 38880, Note_on_c, 0, 75, 0
2, 38880, Note_on_c, 0, 64, 45
2, 38880, Note_on_c, 0, 76, 45
2, 38976, Note_on_c, 0, 64, 0
2, 38976, Note_on_c, 0, 71, 0
2, 38976, Note_on_c, 0, 76, 0
2, 38976, Note_on_c, 0, 63, 45
2, 38976, Note_on_c, 0, 70, 45
2, 38976, Note_on_c, 0, 75, 45
2, 39072, Note_on_c, 0, 63, 0
2, 39072, Note_on_c, 0, 75, 0
2, 39072, Note_on_c, 0, 61, 45
2, 39072, Note_on_c, 0, 73, 45
2, 39168, Note_on_c, 0, 61, 0
2, 39168, Note_on_c, 0, 70, 0
2, 39168, Note_on_c, 0, 73, 0
2, 39168, Note_on_c, 0, 63, 45
2, 39168, Note_on_c, 0, 68, 45
2, 39168, Note_on_c, 0, 75, 45
2, 39264, Note_on_c, 0, 63, 0
2, 39264, Note_on_c, 0, 75, 0
2, 39264, Note_on_c, 0, 64, 45
2, 39264, Note_on_c, 0, 76, 45
2, 39360, Note_on_c, 0, 64, 0
2, 39360, Note_on_c, 0, 68, 0
2, 39360, Note_on_c, 0, 76, 0
2, 39360, Note_on_c, 0, 63, 45
2, 39360, Note_on_c, 0, 68, 45
2, 39360, Note_on_c, 0, 75, 45
2, 39456, Note_on_c, 0, 63, 0
2, 39456, Note_on_c, 0, 75, 0
2, 39456, Note_on_c, 0, 61, 45
2, 39456, Note_on_c, 0, 73, 45
2, 39552, Note_on_c, 0, 61, 0
2, 39552, Note_on_c, 0, 73, 0
2, 39552, Note_on_c, 0, 59, 45
2, 39552, Note_on_c, 0, 71, 45
2, 39648, Note_on_c, 0, 59, 0
2, 39648, Note_on_c, 0, 68, 0
2, 39648, Note_on_c, 0, 71, 0
2, 39648, Note_on_c, 0, 61, 45
2, 39648, Note_on_c, 0, 66, 45
2, 39648, Note_on_c, 0, 73, 45
2, 39744, Note_on_c, 0, 61, 0
2, 39744, Note_on_c, 0, 66, 0
2, 39744, Note_on_c, 0, 73, 0
2, 39744, Note_on_c, 0, 63, 45
2, 39744, Note_on_c, 0, 75, 45
2, 39840, Note_on_c, 0, 75, 0
2, 39840, Note_on_c, 0, 59, 45
2, 39840, Note_on_c, 0, 71, 45
2, 39936, Note_on_c, 0, 59, 0
2, 39936, Note_on_c, 0, 63, 0
2, 39936, Note_on_c, 0, 71, 0
2, 39936, Note_on_c, 0, 63, 45
2, 39936, Note_on_c, 0, 75, 45
2, 40032, Note_on_c, 0, 63, 0
2, 40032, Note_on_c, 0, 75, 0
2, 40032, Note_on_c, 0, 64, 45
2, 40032, Note_on_c, 0, 76, 45
2, 40128, Note_on_c, 0, 64, 0
2, 40128, Note_on_c, 0, 76, 0
2, 40128, Note_on_c, 0, 65, 45
2, 40128, Note_on_c, 0, 77, 45
2, 40224, Note_on_c, 0, 65, 0
2, 40224, Note_on_c, 0, 77, 0
2, 40224, Note_on_c, 0, 66, 45
2, 40224, Note_on_c, 0, 78, 45
2, 40320, Note_on_c, 0, 66, 0
2, 40320, Note_on_c, 0, 78, 0
2, 40320, Note_on_c, 0, 70, 45
2, 40320, Note_on_c, 0, 82, 45
2, 40416, Note_on_c, 0, 70, 0
2, 40416, Note_on_c, 0, 82, 0
2, 40416, Note_on_c, 0, 68, 45
2, 40416, Note_on_c, 0, 80, 45
2, 40512, Note_on_c, 0, 68, 0
2, 40512, Note_on_c, 0, 80, 0
2, 40512, Note_on_c, 0, 66, 45
2, 40512, Note_on_c, 0, 78, 45
2, 40608, Note_on_c, 0, 66, 0
2, 40608, Note_on_c, 0, 78, 0
2, 40608, Note_on_c, 0, 64, 45
2, 40608, Note_on_c, 0, 76, 45
2, 40704, Note_on_c, 0, 64, 0
2, 40704, Note_on_c, 0, 76, 0
2, 40704, Note_on_c, 0, 63, 45
2, 40704, Note_on_c, 0, 75, 45
2, 40800, Note_on_c, 0, 63, 0
2, 40800, Note_on_c, 0, 75, 0
2, 40800, Note_on_c, 0, 61, 45
2, 40800, Note_on_c, 0, 73, 45
2, 40896, Note_on_c, 0, 61, 0
2, 40896, Note_on_c, 0, 73, 0
2, 40896, Note_on_c, 0, 63, 45
2, 40896, Note_on_c, 0, 75, 45
2, 40992, Note_on_c, 0, 63, 0
2, 40992, Note_on_c, 0, 75, 0
2, 40992, Note_on_c, 0, 59, 45
2, 40992, Note_on_c, 0, 71, 45
2, 41088, Note_on_c, 0, 59, 0
2, 41088, Note_on_c, 0, 71, 0
2, 41088, Note_on_c, 0, 62, 45
2, 41088, Note_on_c, 0, 74, 45
2, 41184, Note_on_c, 0, 62, 0
2, 41184, Note_on_c, 0, 74, 0
2, 41184, Note_on_c, 0, 63, 45
2, 41184, Note_on_c, 0, 75, 45
2, 41280, Note_on_c, 0, 63, 0
2, 41280, Note_on_c, 0, 75, 0
2, 41280, Note_on_c, 0, 64, 45
2, 41280, Note_on_c, 0, 76, 45
2, 41376, Note_on_c, 0, 64, 0
2, 41376, Note_on_c, 0, 76, 0
2, 41376, Note_on_c, 0, 63, 45
2, 41376, Note_on_c, 0, 75, 45
2, 41472, Note_on_c, 0, 63, 0
2, 41472, Note_on_c, 0, 75, 0
2, 41472, Note_on_c, 0, 66, 45
2, 41472, Note_on_c, 0, 78, 45
2, 41568, Note_on_c, 0, 66, 0
2, 41568, Note_on_c, 0, 78, 0
2, 41568, Note_on_c, 0, 64, 45
2, 41568, Note_on_c, 0, 76, 45
2, 41664, Note_on_c, 0, 64, 0
2, 41664, Note_on_c, 0, 76, 0
2, 41664, Note_on_c, 0, 65, 45
2, 41664, Note_on_c, 0, 77, 45
2, 41760, Note_on_c, 0, 65, 0
2, 41760, Note_on_c, 0, 77, 0
2, 41760, Note_on_c, 0, 66, 45
2, 41760, Note_on_c, 0, 78, 45
2, 41856, Note_on_c, 0, 66, 0
2, 41856, Note_on_c, 0, 78, 0
2, 41856, Note_on_c, 0, 68, 46
2, 41856, Note_on_c, 0, 80, 46
2, 41952, Note_on_c, 0, 68, 0
2, 41952, Note_on_c, 0, 80, 0
2, 41952, Note_on_c, 0, 66, 47
2, 41952, Note_on_c, 0, 78, 47
2, 42048, Note_on_c, 0, 66, 0
2, 42048, Note_on_c, 0, 78, 0
2, 42048, Note_on_c, 0, 69, 48
2, 42048, Note_on_c, 0, 81, 48
2, 42144, Note_on_c, 0, 69, 0
2, 42144, Note_on_c, 0, 81, 0
2, 42144, Note_on_c, 0, 68, 49
2, 42144, Note_on_c, 0, 80, 49
2, 42240, Note_on_c, 0, 68, 0
2, 42240, Note_on_c, 0, 80, 0
2, 42240, Note_on_c, 0, 67, 50
2, 42240, Note_on_c, 0, 79, 50
2, 42336, Note_on_c, 0, 67, 0
2, 42336, Note_on_c, 0, 79, 0
2, 42336, Note_on_c, 0, 68, 51
2, 42336, Note_on_c, 0, 80, 51
2, 42432, Note_on_c, 0, 68, 0
2, 42432, Note_on_c, 0, 80, 0
2, 42432, Note_on_c, 0, 70, 52
2, 42432, Note_on_c, 0, 82, 52
2, 42528, Note_on_c, 0, 70, 0
2, 42528, Note_on_c, 0, 82, 0
2, 42528, Note_on_c, 0, 68, 53
2, 42528, Note_on_c, 0, 80, 53
2, 42624, Note_on_c, 0, 68, 0
2, 42624, Note_on_c, 0, 80, 0
2, 42624, Note_on_c, 0, 71, 54
2, 42624, Note_on_c, 0, 83, 54
2, 42768, Note_on_c, 0, 71, 0
2, 42768, Note_on_c, 0, 83, 0
2, 42768, Note_on_c, 0, 70, 55
2, 42768, Note_on_c, 0, 82, 55
2, 42816, Note_on_c, 0, 70, 0
2, 42816, Note_on_c, 0, 82, 0
2, 42816, Note_on_c, 0, 70, 55
2, 42816, Note_on_c, 0, 82, 55
2, 42912, Note_on_c, 0, 70, 0
2, 42912, Note_on_c, 0, 82, 0
2, 42912, Note_on_c, 0, 68, 56
2, 42912, Note_on_c, 0, 80, 56
2, 43008, Note_on_c, 0, 68, 0
2, 43008, Note_on_c, 0, 80, 0
2, 43008, Note_on_c, 0, 67, 57
2, 43008, Note_on_c, 0, 79, 57
2, 43104, Note_on_c, 0, 67, 0
2, 43104, Note_on_c, 0, 79, 0
2, 43104, Note_on_c, 0, 68, 58
2, 43104, Note_on_c, 0, 80, 58
2, 43200, Note_on_c, 0, 68, 0
2, 43200, Note_on_c, 0, 80, 0
2, 43200, Note_on_c, 0, 71, 60
2, 43200, Note_on_c, 0, 83, 60
2, 43344, Note_on_c, 0, 71, 0
2, 43344, Note_on_c, 0, 83, 0
2, 43392, Note_on_c, 0, 75, 60
2, 43392, Note_on_c, 0, 87, 60
2, 43488, Note_on_c, 0, 75, 0
2, 43488, Note_on_c, 0, 87, 0
2, 43488, Note_on_c, 0, 73, 59
2, 43488, Note_on_c, 0, 85, 59
2, 43584, Note_on_c, 0, 73, 0
2, 43584, Note_on_c, 0, 85, 0
2, 43584, Note_on_c, 0, 71, 58
2, 43584, Note_on_c, 0, 83, 58
2, 43680, Note_on_c, 0, 71, 0
2, 43680, Note_on_c, 0, 83, 0
2, 43680, Note_on_c, 0, 70, 57
2, 43680, Note_on_c, 0, 82, 57
2, 43776, Note_on_c, 0, 70, 0
2, 43776, Note_on_c, 0, 82, 0
2, 43776, Note_on_c, 0, 71, 56
2, 43776, Note_on_c, 0, 83, 56
2, 43872, Note_on_c, 0, 71, 0
2, 43872, Note_on_c, 0, 83, 0
2, 43872, Note_on_c, 0, 68, 55
2, 43872, Note_on_c, 0, 80, 55
2, 43968, Note_on_c, 0, 68, 0
2, 43968, Note_on_c, 0, 80, 0
2, 43968, Note_on_c, 0, 70, 54
2, 43968, Note_on_c, 0, 82, 54
2, 44064, Note_on_c, 0, 70, 0
2, 44064, Note_on_c, 0, 82, 0
2, 44064, Note_on_c, 0, 68, 52
2, 44064, Note_on_c, 0, 80, 52
2, 44160, Note_on_c, 0, 68, 0
2, 44160, Note_on_c, 0, 80, 0
2, 44160, Note_on_c, 0, 66, 50
2, 44160, Note_on_c, 0, 78, 50
2, 44256, Note_on_c, 0, 66, 0
2, 44256, Note_on_c, 0, 78, 0
2, 44256, Note_on_c, 0, 65, 48
2, 44256, Note_on_c, 0, 77, 48
2, 44352, Note_on_c, 0, 65, 0
2, 44352, Note_on_c, 0, 77, 0
2, 44352, Note_on_c, 0, 66, 46
2, 44352, Note_on_c, 0, 78, 46
2, 44448, Note_on_c, 0, 66, 0
2, 44448, Note_on_c, 0, 78, 0
2, 44448, Note_on_c, 0, 63, 44
2, 44448, Note_on_c, 0, 75, 44
2, 44544, Note_on_c, 0, 63, 0
2, 44544, Note_on_c, 0, 75, 0
2, 44544, Note_on_c, 0, 68, 42
2, 44544, Note_on_c, 0, 80, 42
2, 44640, Note_on_c, 0, 68, 0
2, 44640, Note_on_c, 0, 80, 0
2, 44640, Note_on_c, 0, 66, 40
2, 44640, Note_on_c, 0, 78, 40
2, 44736, Note_on_c, 0, 66, 0
2, 44736, Note_on_c, 0, 78, 0
2, 44736, Note_on_c, 0, 64, 38
2, 44736, Note_on_c, 0, 76, 38
2, 44832, Note_on_c, 0, 64, 0
2, 44832, Note_on_c, 0, 76, 0
2, 44832, Note_on_c, 0, 63, 36
2, 44832, Note_on_c, 0, 75, 36
2, 44928, Note_on_c, 0, 63, 0
2, 44928, Note_on_c, 0, 75, 0
2, 44928, Note_on_c, 0, 64, 34
2, 44928, Note_on_c, 0, 76, 34
2, 45024, Note_on_c, 0, 64, 0
2, 45024, Note_on_c, 0, 76, 0
2, 45024, Note_on_c, 0, 61, 32
2, 45024, Note_on_c, 0, 73, 32
2, 45120, Note_on_c, 0, 61, 0
2, 45120, Note_on_c, 0, 73, 0
2, 45120, Note_on_c, 0, 58, 30
2, 45120, Note_on_c, 0, 64, 30
2, 45120, Note_on_c, 0, 70, 30
2, 45312, Note_on_c, 0, 58, 0
2, 45312, Note_on_c, 0, 64, 0
2, 45312, Note_on_c, 0, 70, 0
2, 45312, Note_on_c, 0, 59, 30
2, 45312, Note_on_c, 0, 63, 30
2, 45312, Note_on_c, 0, 71, 30
2, 45408, Note_on_c, 0, 59, 0
2, 45408, Note_on_c, 0, 63, 0
2, 45408, Note_on_c, 0, 71, 0
2, 45504, Note_on_c, 0, 60, 63
2, 45504, Note_on_c, 0, 72, 63
2, 45696, Note_on_c, 0, 60, 0
2, 45696, Note_on_c, 0, 72, 0
2, 45696, Note_on_c, 0, 73, 45
2, 45720, Note_on_c, 0, 73, 0
2, 45720, Note_on_c, 0, 75, 45
2, 45744, Note_on_c, 0, 75, 0
2, 45744, Note_on_c, 0, 61, 45
2, 45744, Note_on_c, 0, 73, 45
2, 45888, Note_on_c, 0, 61, 0
2, 45888, Note_on_c, 0, 73, 0
2, 45888, Note_on_c, 0, 60, 45
2, 45888, Note_on_c, 0, 72, 45
2, 45984, Note_on_c, 0, 60, 0
2, 45984, Note_on_c, 0, 72, 0
2, 45984, Note_on_c, 0, 61, 45
2, 45984, Note_on_c, 0, 73, 45
2, 46080, Note_on_c, 0, 61, 0
2, 46080, Note_on_c, 0, 73, 0
2, 46080, Note_on_c, 0, 64, 45
2, 46080, Note_on_c, 0, 69, 45
2, 46080, Note_on_c, 0, 76, 45
2, 46176, Note_on_c, 0, 64, 0
2, 46176, Note_on_c, 0, 76, 0
2, 46176, Note_on_c, 0, 63, 45
2, 46176, Note_on_c, 0, 75, 45
2, 46272, Note_on_c, 0, 63, 0
2, 46272, Note_on_c, 0, 75, 0
2, 46272, Note_on_c, 0, 61, 45
2, 46272, Note_on_c, 0, 73, 45
2, 46368, Note_on_c, 0, 61, 0
2, 46368, Note_on_c, 0, 69, 0
2, 46368, Note_on_c, 0, 73, 0
2, 46368, Note_on_c, 0, 60, 45
2, 46368, Note_on_c, 0, 68, 45
2, 46368, Note_on_c, 0, 72, 45
2, 46464, Note_on_c, 0, 60, 0
2, 46464, Note_on_c, 0, 68, 0
2, 46464, Note_on_c, 0, 72, 0
2, 46464, Note_on_c, 0, 58, 45
2, 46464, Note_on_c, 0, 70, 45
2, 46560, Note_on_c, 0, 58, 0
2, 46560, Note_on_c, 0, 70, 0
2, 46560, Note_on_c, 0, 60, 45
2, 46560, Note_on_c, 0, 72, 45
2, 46656, Note_on_c, 0, 60, 0
2, 46656, Note_on_c, 0, 72, 0
2, 46656, Note_on_c, 0, 61, 46
2, 46656, Note_on_c, 0, 73, 46
2, 46752, Note_on_c, 0, 61, 0
2, 46752, Note_on_c, 0, 73, 0
2, 46752, Note_on_c, 0, 63, 47
2, 46752, Note_on_c, 0, 75, 47
2, 46848, Note_on_c, 0, 63, 0
2, 46848, Note_on_c, 0, 75, 0
2, 46848, Note_on_c, 0, 64, 48
2, 46848, Note_on_c, 0, 76, 48
2, 46944, Note_on_c, 0, 64, 0
2, 46944, Note_on_c, 0, 76, 0
2, 46944, Note_on_c, 0, 66, 49
2, 46944, Note_on_c, 0, 78, 49
2, 47040, Note_on_c, 0, 66, 0
2, 47040, Note_on_c, 0, 78, 0
2, 47040, Note_on_c, 0, 63, 50
2, 47040, Note_on_c, 0, 75, 50
2, 47136, Note_on_c, 0, 63, 0
2, 47136, Note_on_c, 0, 75, 0
2, 47136, Note_on_c, 0, 64, 51
2, 47136, Note_on_c, 0, 76, 51
2, 47232, Note_on_c, 0, 64, 0
2, 47232, Note_on_c, 0, 76, 0
2, 47232, Note_on_c, 0, 68, 52
2, 47232, Note_on_c, 0, 72, 52
2, 47232, Note_on_c, 0, 80, 52
2, 47328, Note_on_c, 0, 68, 0
2, 47328, Note_on_c, 0, 80, 0
2, 47328, Note_on_c, 0, 66, 53
2, 47328, Note_on_c, 0, 78, 53
2, 47424, Note_on_c, 0, 66, 0
2, 47424, Note_on_c, 0, 78, 0
2, 47424, Note_on_c, 0, 64, 54
2, 47424, Note_on_c, 0, 76, 54
2, 47520, Note_on_c, 0, 64, 0
2, 47520, Note_on_c, 0, 72, 0
2, 47520, Note_on_c, 0, 76, 0
2, 47520, Note_on_c, 0, 63, 55
2, 47520, Note_on_c, 0, 71, 55
2, 47520, Note_on_c, 0, 75, 55
2, 47616, Note_on_c, 0, 63, 0
2, 47616, Note_on_c, 0, 71, 0
2, 47616, Note_on_c, 0, 75, 0
2, 47616, Note_on_c, 0, 61, 56
2, 47616, Note_on_c, 0, 73, 56
2, 47712, Note_on_c, 0, 61, 0
2, 47712, Note_on_c, 0, 73, 0
2, 47712, Note_on_c, 0, 63, 57
2, 47712, Note_on_c, 0, 75, 57
2, 47808, Note_on_c, 0, 63, 0
2, 47808, Note_on_c, 0, 75, 0
2, 47808, Note_on_c, 0, 64, 58
2, 47808, Note_on_c, 0, 76, 58
2, 47904, Note_on_c, 0, 64, 0
2, 47904, Note_on_c, 0, 76, 0
2, 47904, Note_on_c, 0, 66, 59
2, 47904, Note_on_c, 0, 78, 59
2, 48000, Note_on_c, 0, 66, 0
2, 48000, Note_on_c, 0, 78, 0
2, 48000, Note_on_c, 0, 68, 60
2, 48000, Note_on_c, 0, 74, 60
2, 48000, Note_on_c, 0, 80, 60
2, 48096, Note_on_c, 0, 68, 0
2, 48096, Note_on_c, 0, 80, 0
2, 48096, Note_on_c, 0, 67, 60
2, 48096, Note_on_c, 0, 79, 60
2, 48192, Note_on_c, 0, 67, 0
2, 48192, Note_on_c, 0, 79, 0
2, 48192, Note_on_c, 0, 70, 60
2, 48192, Note_on_c, 0, 82, 60
2, 48288, Note_on_c, 0, 70, 0
2, 48288, Note_on_c, 0, 82, 0
2, 48288, Note_on_c, 0, 68, 60
2, 48288, Note_on_c, 0, 80, 60
2, 48384, Note_on_c, 0, 68, 0
2, 48384, Note_on_c, 0, 74, 0
2, 48384, Note_on_c, 0, 80, 0
2, 48384, Note_on_c, 0, 68, 60
2, 48384, Note_on_c, 0, 75, 60
2, 48384, Note_on_c, 0, 80, 60
2, 48480, Note_on_c, 0, 68, 0
2, 48480, Note_on_c, 0, 80, 0
2, 48480, Note_on_c, 0, 67, 60
2, 48480, Note_on_c, 0, 79, 60
2, 48576, Note_on_c, 0, 67, 0
2, 48576, Note_on_c, 0, 75, 0
2, 48576, Note_on_c, 0, 79, 0
2, 48576, Note_on_c, 0, 67, 60
2, 48576, Note_on_c, 0, 73, 60
2, 48576, Note_on_c, 0, 79, 60
2, 48672, Note_on_c, 0, 67, 0
2, 48672, Note_on_c, 0, 79, 0
2, 48672, Note_on_c, 0, 66, 58
2, 48672, Note_on_c, 0, 78, 58
2, 48768, Note_on_c, 0, 66, 0
2, 48768, Note_on_c, 0, 78, 0
2, 48768, Note_on_c, 0, 69, 56
2, 48768, Note_on_c, 0, 81, 56
2, 48864, Note_on_c, 0, 69, 0
2, 48864, Note_on_c, 0, 81, 0
2, 48864, Note_on_c, 0, 67, 54
2, 48864, Note_on_c, 0, 79, 54
2, 48960, Note_on_c, 0, 67, 0
2, 48960, Note_on_c, 0, 73, 0
2, 48960, Note_on_c, 0, 79, 0
2, 48960, Note_on_c, 0, 67, 51
2, 48960, Note_on_c, 0, 74, 51
2, 48960, Note_on_c, 0, 79, 51
2, 49056, Note_on_c, 0, 67, 0
2, 49056, Note_on_c, 0, 79, 0
2, 49056, Note_on_c, 0, 66, 48
2, 49056, Note_on_c, 0, 78, 48
2, 49152, Note_on_c, 0, 66, 0
2, 49152, Note_on_c, 0, 74, 0
2, 49152, Note_on_c, 0, 78, 0
2, 49152, Note_on_c, 0, 66, 45
2, 49152, Note_on_c, 0, 72, 45
2, 49152, Note_on_c, 0, 78, 45
2, 49248, Note_on_c, 0, 66, 0
2, 49248, Note_on_c, 0, 78, 0
2, 49248, Note_on_c, 0, 65, 45
2, 49248, Note_on_c, 0, 77, 45
2, 49344, Note_on_c, 0, 65, 0
2, 49344, Note_on_c, 0, 72, 0
2, 49344, Note_on_c, 0, 77, 0
2, 49344, Note_on_c, 0, 65, 45
2, 49344, Note_on_c, 0, 72, 45
2, 49344, Note_on_c, 0, 77, 45
2, 49440, Note_on_c, 0, 72, 0
2, 49440, Note_on_c, 0, 71, 45
2, 49536, Note_on_c, 0, 65, 0
2, 49536, Note_on_c, 0, 71, 0
2, 49536, Note_on_c, 0, 77, 0
2, 49536, Note_on_c, 0, 65, 45
2, 49536, Note_on_c, 0, 71, 45
2, 49536, Note_on_c, 0, 77, 45
2, 49632, Note_on_c, 0, 65, 0
2, 49632, Note_on_c, 0, 77, 0
2, 49632, Note_on_c, 0, 64, 45
2, 49632, Note_on_c, 0, 76, 45
2, 49728, Note_on_c, 0, 64, 0
2, 49728, Note_on_c, 0, 71, 0
2, 49728, Note_on_c, 0, 76, 0
2, 49728, Note_on_c, 0, 64, 45
2, 49728, Note_on_c, 0, 71, 45
2, 49728, Note_on_c, 0, 76, 45
2, 49824, Note_on_c, 0, 71, 0
2, 49824, Note_on_c, 0, 70, 45
2, 49920, Note_on_c, 0, 64, 0
2, 49920, Note_on_c, 0, 70, 0
2, 49920, Note_on_c, 0, 76, 0
2, 49920, Note_on_c, 0, 64, 45
2, 49920, Note_on_c, 0, 70, 45
2, 49920, Note_on_c, 0, 76, 45
2, 50016, Note_on_c, 0, 64, 0
2, 50016, Note_on_c, 0, 76, 0
2, 50016, Note_on_c, 0, 63, 45
2, 50016, Note_on_c, 0, 75, 45
2, 50112, Note_on_c, 0, 63, 0
2, 50112, Note_on_c, 0, 70, 0
2, 50112, Note_on_c, 0, 75, 0
2, 50112, Note_on_c, 0, 76, 30
2, 50136, Note_on_c, 0, 76, 0
2, 50136, Note_on_c, 0, 63, 30
2, 50136, Note_on_c, 0, 70, 30
2, 50136, Note_on_c, 0, 75, 30
2, 50208, Note_on_c, 0, 63, 0
2, 50208, Note_on_c, 0, 75, 0
2, 50208, Note_on_c, 0, 62, 30
2, 50208, Note_on_c, 0, 74, 30
2, 50304, Note_on_c, 0, 62, 0
2, 50304, Note_on_c, 0, 70, 0
2, 50304, Note_on_c, 0, 74, 0
2, 50304, Note_on_c, 0, 63, 45
2, 50304, Note_on_c, 0, 71, 45
2, 50304, Note_on_c, 0, 75, 45
2, 50400, Note_on_c, 0, 63, 0
2, 50400, Note_on_c, 0, 75, 0
2, 50400, Note_on_c, 0, 64, 45
2, 50400, Note_on_c, 0, 76, 45
2, 50496, Note_on_c, 0, 64, 0
2, 50496, Note_on_c, 0, 71, 0
2, 50496, Note_on_c, 0, 76, 0
2, 50496, Note_on_c, 0, 63, 45
2, 50496, Note_on_c, 0, 70, 45
2, 50496, Note_on_c, 0, 75, 45
2, 50592, Note_on_c, 0, 63, 0
2, 50592, Note_on_c, 0, 75, 0
2, 50592, Note_on_c, 0, 61, 45
2, 50592, Note_on_c, 0, 73, 45
2, 50688, Note_on_c, 0, 61, 0
2, 50688, Note_on_c, 0, 70, 0
2, 50688, Note_on_c, 0, 73, 0
2, 50688, Note_on_c, 0, 63, 45
2, 50688, Note_on_c, 0, 68, 45
2, 50688, Note_on_c, 0, 75, 45
2, 50784, Note_on_c, 0, 63, 0
2, 50784, Note_on_c, 0, 75, 0
2, 50784, Note_on_c, 0, 64, 45
2, 50784, Note_on_c, 0, 76, 45
2, 50880, Note_on_c, 0, 64, 0
2, 50880, Note_on_c, 0, 68, 0
2, 50880, Note_on_c, 0, 76, 0
2, 50880, Note_on_c, 0, 63, 45
2, 50880, Note_on_c, 0, 68, 45
2, 50880, Note_on_c, 0, 75, 45
2, 50976, Note_on_c, 0, 63, 0
2, 50976, Note_on_c, 0, 75, 0
2, 50976, Note_on_c, 0, 61, 45
2, 50976, Note_on_c, 0, 73, 45
2, 51072, Note_on_c, 0, 61, 0
2, 51072, Note_on_c, 0, 73, 0
2, 51072, Note_on_c, 0, 59, 45
2, 51072, Note_on_c, 0, 71, 45
2, 51168, Note_on_c, 0, 59, 0
2, 51168, Note_on_c, 0, 68, 0
2, 51168, Note_on_c, 0, 71, 0
2, 51168, Note_on_c, 0, 61, 45
2, 51168, Note_on_c, 0, 66, 45
2, 51168, Note_on_c, 0, 73, 45
2, 51264, Note_on_c, 0, 61, 0
2, 51264, Note_on_c, 0, 66, 0
2, 51264, Note_on_c, 0, 73, 0
2, 51264, Note_on_c, 0, 63, 45
2, 51264, Note_on_c, 0, 75, 45
2, 51360, Note_on_c, 0, 75, 0
2, 51360, Note_on_c, 0, 71, 45
2, 51456, Note_on_c, 0, 63, 0
2, 51456, Note_on_c, 0, 71, 0
2, 51456, Note_on_c, 0, 63, 45
2, 51456, Note_on_c, 0, 75, 45
2, 51552, Note_on_c, 0, 63, 0
2, 51552, Note_on_c, 0, 75, 0
2, 51552, Note_on_c, 0, 64, 45
2, 51552, Note_on_c, 0, 76, 45
2, 51648, Note_on_c, 0, 64, 0
2, 51648, Note_on_c, 0, 76, 0
2, 51648, Note_on_c, 0, 65, 45
2, 51648, Note_on_c, 0, 77, 45
2, 51744, Note_on_c, 0, 65, 0
2, 51744, Note_on_c, 0, 77, 0
2, 51744, Note_on_c, 0, 66, 45
2, 51744, Note_on_c, 0, 78, 45
2, 51840, Note_on_c, 0, 66, 0
2, 51840, Note_on_c, 0, 78, 0
2, 51840, Note_on_c, 0, 70, 45
2, 51840, Note_on_c, 0, 82, 45
2, 51936, Note_on_c, 0, 70, 0
2, 51936, Note_on_c, 0, 82, 0
2, 51936, Note_on_c, 0, 68, 45
2, 51936, Note_on_c, 0, 80, 45
2, 52032, Note_on_c, 0, 68, 0
2, 52032, Note_on_c, 0, 80, 0
2, 52032, Note_on_c, 0, 66, 45
2, 52032, Note_on_c, 0, 78, 45
2, 52128, Note_on_c, 0, 66, 0
2, 52128, Note_on_c, 0, 78, 0
2, 52128, Note_on_c, 0, 64, 45
2, 52128, Note_on_c, 0, 76, 45
2, 52224, Note_on_c, 0, 64, 0
2, 52224, Note_on_c, 0, 76, 0
2, 52224, Note_on_c, 0, 63, 45
2, 52224, Note_on_c, 0, 75, 45
2, 52320, Note_on_c, 0, 63, 0
2, 52320, Note_on_c, 0, 75, 0
2, 52320, Note_on_c, 0, 61, 45
2, 52320, Note_on_c, 0, 73, 45
2, 52416, Note_on_c, 0, 61, 0
2, 52416, Note_on_c, 0, 73, 0
2, 52416, Note_on_c, 0, 63, 45
2, 52416, Note_on_c, 0, 75, 45
2, 52512, Note_on_c, 0, 63, 0
2, 52512, Note_on_c, 0, 75, 0
2, 52512, Note_on_c, 0, 59, 45
2, 52512, Note_on_c, 0, 71, 45
2, 52608, Note_on_c, 0, 59, 0
2, 52608, Note_on_c, 0, 71, 0
2, 52608, Note_on_c, 0, 62, 45
2, 52608, Note_on_c, 0, 74, 45
2, 52704, Note_on_c, 0, 62, 0
2, 52704, Note_on_c, 0, 74, 0
2, 52704, Note_on_c, 0, 63, 45
2, 52704, Note_on_c, 0, 75, 45
2, 52800, Note_on_c, 0, 63, 0
2, 52800, Note_on_c, 0, 75, 0
2, 52800, Note_on_c, 0, 64, 45
2, 52800, Note_on_c, 0, 76, 45
2, 52896, Note_on_c, 0, 64, 0
2, 52896, Note_on_c, 0, 76, 0
2, 52896, Note_on_c, 0, 63, 45
2, 52896, Note_on_c, 0, 75, 45
2, 52992, Note_on_c, 0, 63, 0
2, 52992, Note_on_c, 0, 75, 0
2, 52992, Note_on_c, 0, 66, 45
2, 52992, Note_on_c, 0, 78, 45
2, 53088, Note_on_c, 0, 66, 0
2, 53088, Note_on_c, 0, 78, 0
2, 53088, Note_on_c, 0, 64, 45
2, 53088, Note_on_c, 0, 76, 45
2, 53184, Note_on_c, 0, 64, 0
2, 53184, Note_on_c, 0, 76, 0
2, 53184, Note_on_c, 0, 65, 45
2, 53184, Note_on_c, 0, 77, 45
2, 53280, Note_on_c, 0, 65, 0
2, 53280, Note_on_c, 0, 77, 0
2, 53280, Note_on_c, 0, 66, 45
2, 53280, Note_on_c, 0, 78, 45
2, 53376, Note_on_c, 0, 66, 0
2, 53376, Note_on_c, 0, 78, 0
2, 53376, Note_on_c, 0, 68, 46
2, 53376, Note_on_c, 0, 80, 46
2, 53472, Note_on_c, 0, 68, 0
2, 53472, Note_on_c, 0, 80, 0
2, 53472, Note_on_c, 0, 66, 47
2, 53472, Note_on_c, 0, 78, 47
2, 53568, Note_on_c, 0, 66, 0
2, 53568, Note_on_c, 0, 78, 0
2, 53568, Note_on_c, 0, 69, 48
2, 53568, Note_on_c, 0, 81, 48
2, 53664, Note_on_c, 0, 69, 0
2, 53664, Note_on_c, 0, 81, 0
2, 53664, Note_on_c, 0, 68, 49
2, 53664, Note_on_c, 0, 80, 49
2, 53760, Note_on_c, 0, 68, 0
2, 53760, Note_on_c, 0, 80, 0
2, 53760, Note_on_c, 0, 67, 50
2, 53760, Note_on_c, 0, 79, 50
2, 53856, Note_on_c, 0, 67, 0
2, 53856, Note_on_c, 0, 79, 0
2, 53856, Note_on_c, 0, 68, 51
2, 53856, Note_on_c, 0, 80, 51
2, 53952, Note_on_c, 0, 68, 0
2, 53952, Note_on_c, 0, 80, 0
2, 53952, Note_on_c, 0, 70, 52
2, 53952, Note_on_c, 0, 82, 52
2, 54048, Note_on_c, 0, 70, 0
2, 54048, Note_on_c, 0, 82, 0
2, 54048, Note_on_c, 0, 68, 53
2, 54048, Note_on_c, 0, 80, 53
2, 54144, Note_on_c, 0, 68, 0
2, 54144, Note_on_c, 0, 80, 0
2, 54144, Note_on_c, 0, 71, 54
2, 54144, Note_on_c, 0, 83, 54
2, 54288, Note_on_c, 0, 71, 0
2, 54288, Note_on_c, 0, 83, 0
2, 54288, Note_on_c, 0, 70, 55
2, 54288, Note_on_c, 0, 82, 55
2, 54336, Note_on_c, 0, 70, 0
2, 54336, Note_on_c, 0, 82, 0
2, 54336, Note_on_c, 0, 70, 55
2, 54336, Note_on_c, 0, 82, 55
2, 54432, Note_on_c, 0, 70, 0
2, 54432, Note_on_c, 0, 82, 0
2, 54432, Note_on_c, 0, 68, 56
2, 54432, Note_on_c, 0, 80, 56
2, 54528, Note_on_c, 0, 68, 0
2, 54528, Note_on_c, 0, 80, 0
2, 54528, Note_on_c, 0, 67, 57
2, 54528, Note_on_c, 0, 79, 57
2, 54624, Note_on_c, 0, 67, 0
2, 54624, Note_on_c, 0, 79, 0
2, 54624, Note_on_c, 0, 68, 58
2, 54624, Note_on_c, 0, 80, 58
2, 54720, Note_on_c, 0, 68, 0
2, 54720, Note_on_c, 0, 80, 0
2, 54720, Note_on_c, 0, 71, 60
2, 54720, Note_on_c, 0, 83, 60
2, 54864, Note_on_c, 0, 71, 0
2, 54864, Note_on_c, 0, 83, 0
2, 54912, Note_on_c, 0, 75, 60
2, 54912, Note_on_c, 0, 87, 60
2, 55008, Note_on_c, 0, 75, 0
2, 55008, Note_on_c, 0, 87, 0
2, 55008, Note_on_c, 0, 73, 59
2, 55008, Note_on_c, 0, 85, 59
2, 55104, Note_on_c, 0, 73, 0
2, 55104, Note_on_c, 0, 85, 0
2, 55104, Note_on_c, 0, 71, 58
2, 55104, Note_on_c, 0, 83, 58
2, 55200, Note_on_c, 0, 71, 0
2, 55200, Note_on_c, 0, 83, 0
2, 55200, Note_on_c, 0, 70, 57
2, 55200, Note_on_c, 0, 82, 57
2, 55296, Note_on_c, 0, 70, 0
2, 55296, Note_on_c, 0, 82, 0
2, 55296, Note_on_c, 0, 71, 56
2, 55296, Note_on_c, 0, 83, 56
2, 55392, Note_on_c, 0, 71, 0
2, 55392, Note_on_c, 0, 83, 0
2, 55392, Note_on_c, 0, 68, 55
2, 55392, Note_on_c, 0, 80, 55
2, 55488, Note_on_c, 0, 68, 0
2, 55488, Note_on_c, 0, 80, 0
2, 55488, Note_on_c, 0, 70, 54
2, 55488, Note_on_c, 0, 82, 54
2, 55584, Note_on_c, 0, 70, 0
2, 55584, Note_on_c, 0, 82, 0
2, 55584, Note_on_c, 0, 68, 52
2, 55584, Note_on_c, 0, 80, 52
2, 55680, Note_on_c, 0, 68, 0
2, 55680, Note_on_c, 0, 80, 0
2, 55680, Note_on_c, 0, 66, 50
2, 55680, Note_on_c, 0, 78, 50
2, 55776, Note_on_c, 0, 66, 0
2, 55776, Note_on_c, 0, 78, 0
2, 55776, Note_on_c, 0, 65, 48
2, 55776, Note_on_c, 0, 77, 48
2, 55872, Note_on_c, 0, 65, 0
2, 55872, Note_on_c, 0, 77, 0
2, 55872, Note_on_c, 0, 66, 46
2, 55872, Note_on_c, 0, 78, 46
2, 55968, Note_on_c, 0, 66, 0
2, 55968, Note_on_c, 0, 78, 0
2, 55968, Note_on_c, 0, 63, 44
2, 55968, Note_on_c, 0, 75, 44
2, 56064, Note_on_c, 0, 63, 0
2, 56064, Note_on_c, 0, 75, 0
2, 56064, Note_on_c, 0, 68, 42
2, 56064, Note_on_c, 0, 80, 42
2, 56160, Note_on_c, 0, 68, 0
2, 56160, Note_on_c, 0, 80, 0
2, 56160, Note_on_c, 0, 66, 40
2, 56160, Note_on_c, 0, 78, 40
2, 56256, Note_on_c, 0, 66, 0
2, 56256, Note_on_c, 0, 78, 0
2, 56256, Note_on_c, 0, 64, 38
2, 56256, Note_on_c, 0, 76, 38
2, 56352, Note_on_c, 0, 64, 0
2, 56352, Note_on_c, 0, 76, 0
2, 56352, Note_on_c, 0, 63, 36
2, 56352, Note_on_c, 0, 75, 36
2, 56448, Note_on_c, 0, 63, 0
2, 56448, Note_on_c, 0, 75, 0
2, 56448, Note_on_c, 0, 64, 34
2, 56448, Note_on_c, 0, 76, 34
2, 56544, Note_on_c, 0, 64, 0
2, 56544, Note_on_c, 0, 76, 0
2, 56544, Note_on_c, 0, 61, 32
2, 56544, Note_on_c, 0, 73, 32
2, 56640, Note_on_c, 0, 61, 0
2, 56640, Note_on_c, 0, 73, 0
2, 56640, Note_on_c, 0, 58, 42
2, 56640, Note_on_c, 0, 64, 42
2, 56640, Note_on_c, 0, 70, 42
2, 58368, Note_on_c, 0, 58, 0
2, 58368, Note_on_c, 0, 70, 0
2, 58368, Note_on_c, 0, 59, 30
2, 58368, Note_on_c, 0, 71, 30
2, 58752, Note_on_c, 0, 59, 0
2, 58752, Note_on_c, 0, 71, 0
2, 58752, Note_on_c, 0, 61, 30
2, 58752, Note_on_c, 0, 73, 30
2, 58944, Note_on_c, 0, 61, 0
2, 58944, Note_on_c, 0, 64, 0
2, 58944, Note_on_c, 0, 73, 0
2, 58944, Note_on_c, 0, 61, 30
2, 58944, Note_on_c, 0, 70, 30
2, 58944, Note_on_c, 0, 73, 30
2, 59424, Note_on_c, 0, 61, 0
2, 59424, Note_on_c, 0, 70, 0
2, 59424, Note_on_c, 0, 73, 0
2, 59424, Note_on_c, 0, 62, 30
2, 59424, Note_on_c, 0, 71, 30
2, 59424, Note_on_c, 0, 74, 30
2, 59520, Note_on_c, 0, 62, 0
2, 59520, Note_on_c, 0, 71, 0
2, 59520, Note_on_c, 0, 74, 0
2, 59520, Note_on_c, 0, 61, 30
2, 59520, Note_on_c, 0, 70, 30
2, 59520, Note_on_c, 0, 73, 30
2, 60096, Note_on_c, 0, 61, 0
2, 60096, Note_on_c, 0, 70, 0
2, 60096, Note_on_c, 0, 73, 0
2, 60096, Note_on_c, 0, 58, 30
2, 60120, Note_on_c, 0, 64, 30
2, 60144, Note_on_c, 0, 70, 30
2, 60168, Note_on_c, 0, 73, 30
2, 60672, Note_on_c, 0, 58, 0
2, 60672, Note_on_c, 0, 64, 0
2, 60672, Note_on_c, 0, 70, 0
2, 60672, Note_on_c, 0, 73, 0
2, 60672, Note_on_c, 0, 64, 30
2, 60672, Note_on_c, 0, 70, 30
2, 60672, Note_on_c, 0, 74, 30
2, 60768, Note_on_c, 0, 64, 0
2, 60768, Note_on_c, 0, 66, 30
2, 61056, Note_on_c, 0, 74, 0
2, 61056, Note_on_c, 0, 66, 0
2, 61056, Note_on_c, 0, 67, 30
2, 61056, Note_on_c, 0, 76, 30
2, 61248, Note_on_c, 0, 67, 0
2, 61248, Note_on_c, 0, 70, 0
2, 61248, Note_on_c, 0, 76, 0
2, 61248, Note_on_c, 0, 61, 30
2, 61272, Note_on_c, 0, 70, 30
2, 61296, Note_on_c, 0, 76, 30
2, 61824, Note_on_c, 0, 61, 0
2, 61824, Note_on_c, 0, 85, 30
2, 62592, Note_on_c, 0, 70, 0
2, 62592, Note_on_c, 0, 76, 0
2, 62592, Note_on_c, 0, 85, 0
2, 63552, Note_on_c, 0, 67, 50
2, 63552, Note_on_c, 0, 79, 50
2, 63648, Note_on_c, 0, 67, 0
2, 63648, Note_on_c, 0, 79, 0
2, 63648, Note_on_c, 0, 66, 53
2, 63648, Note_on_c, 0, 78, 53
2, 63744, Note_on_c, 0, 66, 0
2, 63744, Note_on_c, 0, 78, 0
2, 63744, Note_on_c, 0, 64, 56
2, 63744, Note_on_c, 0, 76, 56
2, 63840, Note_on_c, 0, 64, 0
2, 63840, Note_on_c, 0, 76, 0
2, 63840, Note_on_c, 0, 63, 59
2, 63840, Note_on_c, 0, 75, 59
2, 63936, Note_on_c, 0, 63, 0
2, 63936, Note_on_c, 0, 75, 0
2, 63936, Note_on_c, 0, 64, 62
2, 63936, Note_on_c, 0, 76, 62
2, 64032, Note_on_c, 0, 64, 0
2, 64032, Note_on_c, 0, 76, 0
2, 64032, Note_on_c, 0, 61, 65
2, 64032, Note_on_c, 0, 73, 65
2, 64128, Note_on_c, 0, 61, 0
2, 64128, Note_on_c, 0, 73, 0
2, 64128, Note_on_c, 0, 67, 68
2, 64128, Note_on_c, 0, 79, 68
2, 64224, Note_on_c, 0, 67, 0
2, 64224, Note_on_c, 0, 79, 0
2, 64224, Note_on_c, 0, 66, 72
2, 64224, Note_on_c, 0, 78, 72
2, 64320, Note_on_c, 0, 66, 0
2, 64320, Note_on_c, 0, 78, 0
2, 64320, Note_on_c, 0, 64, 76
2, 64320, Note_on_c, 0, 76, 76
2, 64416, Note_on_c, 0, 64, 0
2, 64416, Note_on_c, 0, 76, 0
2, 64416, Note_on_c, 0, 63, 80
2, 64416, Note_on_c, 0, 75, 80
2, 64512, Note_on_c, 0, 63, 0
2, 64512, Note_on_c, 0, 75, 0
2, 64512, Note_on_c, 0, 64, 84
2, 64512, Note_on_c, 0, 76, 84
2, 64608, Note_on_c, 0, 64, 0
2, 64608, Note_on_c, 0, 76, 0
2, 64608, Note_on_c, 0, 61, 88
2, 64608, Note_on_c, 0, 73, 88
2, 64704, Note_on_c, 0, 61, 0
2, 64704, Note_on_c, 0, 73, 0
2, 64704, Note_on_c, 0, 67, 127
2, 64704, Note_on_c, 0, 79, 127
2, 64768, Note_on_c, 0, 67, 0
2, 64768, Note_on_c, 0, 79, 0
2, 64768, Note_on_c, 0, 66, 92
2, 64768, Note_on_c, 0, 78, 92
2, 64832, Note_on_c, 0, 66, 0
2, 64832, Note_on_c, 0, 78, 0
2, 64832, Note_on_c, 0, 64, 92
2, 64832, Note_on_c, 0, 76, 92
2, 64896, Note_on_c, 0, 64, 0
2, 64896, Note_on_c, 0, 76, 0
2, 64896, Note_on_c, 0, 63, 92
2, 64896, Note_on_c, 0, 75, 92
2, 64960, Note_on_c, 0, 63, 0
2, 64960, Note_on_c, 0, 75, 0
2, 64960, Note_on_c, 0, 64, 92
2, 64960, Note_on_c, 0, 76, 92
2, 65024, Note_on_c, 0, 64, 0
2, 65024, Note_on_c, 0, 76, 0
2, 65024, Note_on_c, 0, 61, 92
2, 65024, Note_on_c, 0, 73, 92
2, 65088, Note_on_c, 0, 61, 0
2, 65088, Note_on_c, 0, 73, 0
2, 65088, Note_on_c, 0, 68, 127
2, 65088, Note_on_c, 0, 80, 127
2, 65152, Note_on_c, 0, 68, 0
2, 65152, Note_on_c, 0, 80, 0
2, 65152, Note_on_c, 0, 66, 92
2, 65152, Note_on_c, 0, 78, 92
2, 65216, Note_on_c, 0, 66, 0
2, 65216, Note_on_c, 0, 78, 0
2, 65216, Note_on_c, 0, 64, 92
2, 65216, Note_on_c, 0, 76, 92
2, 65280, Note_on_c, 0, 64, 0
2, 65280, Note_on_c, 0, 76, 0
2, 65280, Note_on_c, 0, 63, 92
2, 65280, Note_on_c, 0, 75, 92
2, 65344, Note_on_c, 0, 63, 0
2, 65344, Note_on_c, 0, 75, 0
2, 65344, Note_on_c, 0, 64, 92
2, 65344, Note_on_c, 0, 76, 92
2, 65408, Note_on_c, 0, 64, 0
2, 65408, Note_on_c, 0, 76, 0
2, 65408, Note_on_c, 0, 61, 92
2, 65408, Note_on_c, 0, 73, 92
2, 65472, Note_on_c, 0, 61, 0
2, 65472, Note_on_c, 0, 73, 0
2, 65472, Note_on_c, 0, 69, 92
2, 65472, Note_on_c, 0, 81, 92
2, 65536, Note_on_c, 0, 69, 0
2, 65536, Note_on_c, 0, 81, 0
2, 65536, Note_on_c, 0, 68, 92
2, 65536, Note_on_c, 0, 80, 92
2, 65600, Note_on_c, 0, 68, 0
2, 65600, Note_on_c, 0, 80, 0
2, 65600, Note_on_c, 0, 67, 92
2, 65600, Note_on_c, 0, 79, 92
2, 65664, Note_on_c, 0, 67, 0
2, 65664, Note_on_c, 0, 79, 0
2, 65664, Note_on_c, 0, 66, 92
2, 65664, Note_on_c, 0, 78, 92
2, 65728, Note_on_c, 0, 66, 0
2, 65728, Note_on_c, 0, 78, 0
2, 65728, Note_on_c, 0, 67, 92
2, 65728, Note_on_c, 0, 79, 92
2, 65792, Note_on_c, 0, 67, 0
2, 65792, Note_on_c, 0, 79, 0
2, 65792, Note_on_c, 0, 63, 92
2, 65792, Note_on_c, 0, 75, 92
2, 65856, Note_on_c, 0, 63, 0
2, 65856, Note_on_c, 0, 75, 0
2, 65856, Note_on_c, 0, 64, 92
2, 65856, Note_on_c, 0, 76, 92
2, 65920, Note_on_c, 0, 64, 0
2, 65920, Note_on_c, 0, 76, 0
2, 65920, Note_on_c, 0, 65, 92
2, 65920, Note_on_c, 0, 77, 92
2, 65984, Note_on_c, 0, 65, 0
2, 65984, Note_on_c, 0, 77, 0
2, 65984, Note_on_c, 0, 66, 127
2, 65984, Note_on_c, 0, 78, 127
2, 66048, Note_on_c, 0, 66, 0
2, 66048, Note_on_c, 0, 78, 0
2, 66048, Note_on_c, 0, 65, 92
2, 66048, Note_on_c, 0, 77, 92
2, 66112, Note_on_c, 0, 65, 0
2, 66112, Note_on_c, 0, 77, 0
2, 66112, Note_on_c, 0, 66, 93
2, 66112, Note_on_c, 0, 78, 93
2, 66176, Note_on_c, 0, 66, 0
2, 66176, Note_on_c, 0, 78, 0
2, 66176, Note_on_c, 0, 67, 127
2, 66176, Note_on_c, 0, 79, 127
2, 66240, Note_on_c, 0, 67, 0
2, 66240, Note_on_c, 0, 79, 0
2, 66240, Note_on_c, 0, 65, 95
2, 66240, Note_on_c, 0, 77, 95
2, 66304, Note_on_c, 0, 65, 0
2, 66304, Note_on_c, 0, 77, 0
2, 66304, Note_on_c, 0, 66, 96
2, 66304, Note_on_c, 0, 78, 96
2, 66368, Note_on_c, 0, 66, 0
2, 66368, Note_on_c, 0, 78, 0
2, 66368, Note_on_c, 0, 67, 127
2, 66368, Note_on_c, 0, 79, 127
2, 66432, Note_on_c, 0, 67, 0
2, 66432, Note_on_c, 0, 79, 0
2, 66432, Note_on_c, 0, 66, 98
2, 66432, Note_on_c, 0, 78, 98
2, 66496, Note_on_c, 0, 66, 0
2, 66496, Note_on_c, 0, 78, 0
2, 66496, Note_on_c, 0, 67, 99
2, 66496, Note_on_c, 0, 79, 99
2, 66560, Note_on_c, 0, 67, 0
2, 66560, Note_on_c, 0, 79, 0
2, 66560, Note_on_c, 0, 68, 127
2, 66560, Note_on_c, 0, 80, 127
2, 66624, Note_on_c, 0, 68, 0
2, 66624, Note_on_c, 0, 80, 0
2, 66624, Note_on_c, 0, 67, 101
2, 66624, Note_on_c, 0, 79, 101
2, 66688, Note_on_c, 0, 67, 0
2, 66688, Note_on_c, 0, 79, 0
2, 66688, Note_on_c, 0, 68, 102
2, 66688, Note_on_c, 0, 80, 102
2, 66752, Note_on_c, 0, 68, 0
2, 66752, Note_on_c, 0, 80, 0
2, 66752, Note_on_c, 0, 69, 127
2, 66752, Note_on_c, 0, 81, 127
2, 66816, Note_on_c, 0, 69, 0
2, 66816, Note_on_c, 0, 81, 0
2, 66816, Note_on_c, 0, 68, 104
2, 66816, Note_on_c, 0, 80, 104
2, 66880, Note_on_c, 0, 68, 0
2, 66880, Note_on_c, 0, 80, 0
2, 66880, Note_on_c, 0, 69, 105
2, 66880, Note_on_c, 0, 81, 105
2, 66944, Note_on_c, 0, 69, 0
2, 66944, Note_on_c, 0, 81, 0
2, 66944, Note_on_c, 0, 70, 127
2, 66944, Note_on_c, 0, 82, 127
2, 67008, Note_on_c, 0, 70, 0
2, 67008, Note_on_c, 0, 82, 0
2, 67008, Note_on_c, 0, 71, 127
2, 67008, Note_on_c, 0, 74, 127
2, 67008, Note_on_c, 0, 83, 127
2, 67072, Note_on_c, 0, 71, 0
2, 67072, Note_on_c, 0, 83, 0
2, 67072, Note_on_c, 0, 70, 108
2, 67072, Note_on_c, 0, 82, 108
2, 67136, Note_on_c, 0, 70, 0
2, 67136, Note_on_c, 0, 82, 0
2, 67136, Note_on_c, 0, 71, 108
2, 67136, Note_on_c, 0, 83, 108
2, 67200, Note_on_c, 0, 71, 0
2, 67200, Note_on_c, 0, 83, 0
2, 67200, Note_on_c, 0, 70, 108
2, 67200, Note_on_c, 0, 82, 108
2, 67264, Note_on_c, 0, 70, 0
2, 67264, Note_on_c, 0, 82, 0
2, 67264, Note_on_c, 0, 69, 108
2, 67264, Note_on_c, 0, 81, 108
2, 67328, Note_on_c, 0, 69, 0
2, 67328, Note_on_c, 0, 81, 0
2, 67328, Note_on_c, 0, 68, 108
2, 67328, Note_on_c, 0, 80, 108
2, 67392, Note_on_c, 0, 68, 0
2, 67392, Note_on_c, 0, 74, 0
2, 67392, Note_on_c, 0, 80, 0
2, 67392, Note_on_c, 0, 69, 127
2, 67392, Note_on_c, 0, 74, 127
2, 67392, Note_on_c, 0, 81, 127
2, 67456, Note_on_c, 0, 69, 0
2, 67456, Note_on_c, 0, 81, 0
2, 67456, Note_on_c, 0, 68, 108
2, 67456, Note_on_c, 0, 80, 108
2, 67520, Note_on_c, 0, 68, 0
2, 67520, Note_on_c, 0, 80, 0
2, 67520, Note_on_c, 0, 69, 108
2, 67520, Note_on_c, 0, 81, 108
2, 67584, Note_on_c, 0, 69, 0
2, 67584, Note_on_c, 0, 81, 0
2, 67584, Note_on_c, 0, 68, 108
2, 67584, Note_on_c, 0, 80, 108
2, 67648, Note_on_c, 0, 68, 0
2, 67648, Note_on_c, 0, 80, 0
2, 67648, Note_on_c, 0, 67, 108
2, 67648, Note_on_c, 0, 79, 108
2, 67712, Note_on_c, 0, 67, 0
2, 67712, Note_on_c, 0, 79, 0
2, 67712, Note_on_c, 0, 66, 108
2, 67712, Note_on_c, 0, 78, 108
2, 67776, Note_on_c, 0, 66, 0
2, 67776, Note_on_c, 0, 74, 0
2, 67776, Note_on_c, 0, 78, 0
2, 67776, Note_on_c, 0, 67, 127
2, 67776, Note_on_c, 0, 71, 127
2, 67776, Note_on_c, 0, 79, 127
2, 67840, Note_on_c, 0, 67, 0
2, 67840, Note_on_c, 0, 79, 0
2, 67840, Note_on_c, 0, 66, 108
2, 67840, Note_on_c, 0, 78, 108
2, 67904, Note_on_c, 0, 66, 0
2, 67904, Note_on_c, 0, 78, 0
2, 67904, Note_on_c, 0, 67, 108
2, 67904, Note_on_c, 0, 79, 108
2, 67968, Note_on_c, 0, 67, 0
2, 67968, Note_on_c, 0, 71, 0
2, 67968, Note_on_c, 0, 79, 0
2, 67968, Note_on_c, 0, 66, 127
2, 67968, Note_on_c, 0, 71, 127
2, 67968, Note_on_c, 0, 78, 127
2, 68032, Note_on_c, 0, 66, 0
2, 68032, Note_on_c, 0, 78, 0
2, 68032, Note_on_c, 0, 65, 108
2, 68032, Note_on_c, 0, 77, 108
2, 68096, Note_on_c, 0, 65, 0
2, 68096, Note_on_c, 0, 77, 0
2, 68096, Note_on_c, 0, 64, 108
2, 68096, Note_on_c, 0, 76, 108
2, 68160, Note_on_c, 0, 64, 0
2, 68160, Note_on_c, 0, 71, 0
2, 68160, Note_on_c, 0, 76, 0
2, 68160, Note_on_c, 0, 63, 127
2, 68160, Note_on_c, 0, 66, 127
2, 68160, Note_on_c, 0, 75, 127
2, 68224, Note_on_c, 0, 63, 0
2, 68224, Note_on_c, 0, 75, 0
2, 68224, Note_on_c, 0, 62, 108
2, 68224, Note_on_c, 0, 74, 108
2, 68288, Note_on_c, 0, 62, 0
2, 68288, Note_on_c, 0, 74, 0
2, 68288, Note_on_c, 0, 61, 108
2, 68288, Note_on_c, 0, 73, 108
2, 68352, Note_on_c, 0, 61, 0
2, 68352, Note_on_c, 0, 66, 0
2, 68352, Note_on_c, 0, 73, 0
2, 68352, Note_on_c, 0, 59, 127
2, 68352, Note_on_c, 0, 66, 127
2, 68352, Note_on_c, 0, 71, 127
2, 68544, Note_on_c, 0, 59, 0
2, 68544, Note_on_c, 0, 66, 0
2, 68544, Note_on_c, 0, 71, 0
2, 68544, Note_on_c, 0, 59, 127
2, 68544, Note_on_c, 0, 67, 127
2, 68544, Note_on_c, 0, 71, 127
2, 68608, Note_on_c, 0, 59, 0
2, 68608, Note_on_c, 0, 71, 0
2, 68608, Note_on_c, 0, 58, 92
2, 68608, Note_on_c, 0, 70, 92
2, 68672, Note_on_c, 0, 58, 0
2, 68672, Note_on_c, 0, 70, 0
2, 68672, Note_on_c, 0, 59, 92
2, 68672, Note_on_c, 0, 71, 92
2, 68736, Note_on_c, 0, 59, 0
2, 68736, Note_on_c, 0, 71, 0
2, 68736, Note_on_c, 0, 61, 92
2, 68736, Note_on_c, 0, 73, 92
2, 68800, Note_on_c, 0, 61, 0
2, 68800, Note_on_c, 0, 73, 0
2, 68800, Note_on_c, 0, 62, 92
2, 68800, Note_on_c, 0, 74, 92
2, 68864, Note_on_c, 0, 62, 0
2, 68864, Note_on_c, 0, 74, 0
2, 68864, Note_on_c, 0, 64, 92
2, 68864, Note_on_c, 0, 76, 92
2, 68928, Note_on_c, 0, 64, 0
2, 68928, Note_on_c, 0, 67, 0
2, 68928, Note_on_c, 0, 76, 0
2, 68928, Note_on_c, 0, 62, 92
2, 68928, Note_on_c, 0, 66, 92
2, 68928, Note_on_c, 0, 74, 92
2, 68992, Note_on_c, 0, 62, 0
2, 68992, Note_on_c, 0, 74, 0
2, 68992, Note_on_c, 0, 61, 92
2, 68992, Note_on_c, 0, 73, 92
2, 69056, Note_on_c, 0, 61, 0
2, 69056, Note_on_c, 0, 73, 0
2, 69056, Note_on_c, 0, 59, 92
2, 69056, Note_on_c, 0, 71, 92
2, 69120, Note_on_c, 0, 59, 0
2, 69120, Note_on_c, 0, 66, 0
2, 69120, Note_on_c, 0, 71, 0
2, 69120, Note_on_c, 0, 58, 92
2, 69120, Note_on_c, 0, 70, 92
2, 69184, Note_on_c, 0, 58, 0
2, 69184, Note_on_c, 0, 70, 0
2, 69184, Note_on_c, 0, 59, 92
2, 69184, Note_on_c, 0, 71, 92
2, 69248, Note_on_c, 0, 59, 0
2, 69248, Note_on_c, 0, 71, 0
2, 69248, Note_on_c, 0, 61, 92
2, 69248, Note_on_c, 0, 73, 92
2, 69312, Note_on_c, 0, 61, 0
2, 69312, Note_on_c, 0, 73, 0
2, 69312, Note_on_c, 0, 59, 127
2, 69312, Note_on_c, 0, 67, 127
2, 69312, Note_on_c, 0, 71, 127
2, 69376, Note_on_c, 0, 59, 0
2, 69376, Note_on_c, 0, 71, 0
2, 69376, Note_on_c, 0, 58, 92
2, 69376, Note_on_c, 0, 70, 92
2, 69440, Note_on_c, 0, 58, 0
2, 69440, Note_on_c, 0, 70, 0
2, 69440, Note_on_c, 0, 59, 92
2, 69440, Note_on_c, 0, 71, 92
2, 69504, Note_on_c, 0, 59, 0
2, 69504, Note_on_c, 0, 71, 0
2, 69504, Note_on_c, 0, 61, 92
2, 69504, Note_on_c, 0, 73, 92
2, 69568, Note_on_c, 0, 61, 0
2, 69568, Note_on_c, 0, 73, 0
2, 69568, Note_on_c, 0, 62, 92
2, 69568, Note_on_c, 0, 74, 92
2, 69632, Note_on_c, 0, 62, 0
2, 69632, Note_on_c, 0, 74, 0
2, 69632, Note_on_c, 0, 64, 92
2, 69632, Note_on_c, 0, 76, 92
2, 69696, Note_on_c, 0, 64, 0
2, 69696, Note_on_c, 0, 67, 0
2, 69696, Note_on_c, 0, 76, 0
2, 69696, Note_on_c, 0, 62, 92
2, 69696, Note_on_c, 0, 66, 92
2, 69696, Note_on_c, 0, 74, 92
2, 69760, Note_on_c, 0, 62, 0
2, 69760, Note_on_c, 0, 74, 0
2, 69760, Note_on_c, 0, 61, 92
2, 69760, Note_on_c, 0, 73, 92
2, 69824, Note_on_c, 0, 61, 0
2, 69824, Note_on_c, 0, 73, 0
2, 69824, Note_on_c, 0, 59, 92
2, 69824, Note_on_c, 0, 71, 92
2, 69888, Note_on_c, 0, 59, 0
2, 69888, Note_on_c, 0, 66, 0
2, 69888, Note_on_c, 0, 71, 0
2, 69888, Note_on_c, 0, 58, 92
2, 69888, Note_on_c, 0, 70, 92
2, 69952, Note_on_c, 0, 58, 0
2, 69952, Note_on_c, 0, 70, 0
2, 69952, Note_on_c, 0, 59, 92
2, 69952, Note_on_c, 0, 71, 92
2, 70016, Note_on_c, 0, 59, 0
2, 70016, Note_on_c, 0, 71, 0
2, 70016, Note_on_c, 0, 61, 92
2, 70016, Note_on_c, 0, 73, 92
2, 70080, Note_on_c, 0, 61, 0
2, 70080, Note_on_c, 0, 73, 0
2, 70080, Note_on_c, 0, 62, 127
2, 70080, Note_on_c, 0, 70, 127
2, 70080, Note_on_c, 0, 74, 127
2, 70144, Note_on_c, 0, 62, 0
2, 70144, Note_on_c, 0, 74, 0
2, 70144, Note_on_c, 0, 61, 92
2, 70144, Note_on_c, 0, 73, 92
2, 70208, Note_on_c, 0, 61, 0
2, 70208, Note_on_c, 0, 73, 0
2, 70208, Note_on_c, 0, 62, 92
2, 70208, Note_on_c, 0, 74, 92
2, 70272, Note_on_c, 0, 62, 0
2, 70272, Note_on_c, 0, 74, 0
2, 70272, Note_on_c, 0, 64, 92
2, 70272, Note_on_c, 0, 76, 92
2, 70336, Note_on_c, 0, 64, 0
2, 70336, Note_on_c, 0, 76, 0
2, 70336, Note_on_c, 0, 65, 92
2, 70336, Note_on_c, 0, 77, 92
2, 70400, Note_on_c, 0, 65, 0
2, 70400, Note_on_c, 0, 77, 0
2, 70400, Note_on_c, 0, 67, 92
2, 70400, Note_on_c, 0, 79, 92
2, 70464, Note_on_c, 0, 67, 0
2, 70464, Note_on_c, 0, 70, 0
2, 70464, Note_on_c, 0, 79, 0
2, 70464, Note_on_c, 0, 65, 92
2, 70464, Note_on_c, 0, 69, 92
2, 70464, Note_on_c, 0, 77, 92
2, 70528, Note_on_c, 0, 65, 0
2, 70528, Note_on_c, 0, 77, 0
2, 70528, Note_on_c, 0, 64, 92
2, 70528, Note_on_c, 0, 76, 92
2, 70592, Note_on_c, 0, 64, 0
2, 70592, Note_on_c, 0, 76, 0
2, 70592, Note_on_c, 0, 62, 92
2, 70592, Note_on_c, 0, 74, 92
2, 70656, Note_on_c, 0, 62, 0
2, 70656, Note_on_c, 0, 69, 0
2, 70656, Note_on_c, 0, 74, 0
2, 70656, Note_on_c, 0, 61, 92
2, 70656, Note_on_c, 0, 73, 92
2, 70720, Note_on_c, 0, 61, 0
2, 70720, Note_on_c, 0, 73, 0
2, 70720, Note_on_c, 0, 62, 92
2, 70720, Note_on_c, 0, 74, 92
2, 70784, Note_on_c, 0, 62, 0
2, 70784, Note_on_c, 0, 74, 0
2, 70784, Note_on_c, 0, 64, 92
2, 70784, Note_on_c, 0, 76, 92
2, 70848, Note_on_c, 0, 64, 0
2, 70848, Note_on_c, 0, 76, 0
2, 70848, Note_on_c, 0, 62, 127
2, 70848, Note_on_c, 0, 70, 127
2, 70848, Note_on_c, 0, 74, 127
2, 70912, Note_on_c, 0, 62, 0
2, 70912, Note_on_c, 0, 74, 0
2, 70912, Note_on_c, 0, 61, 92
2, 70912, Note_on_c, 0, 73, 92
2, 70976, Note_on_c, 0, 61, 0
2, 70976, Note_on_c, 0, 73, 0
2, 70976, Note_on_c, 0, 62, 92
2, 70976, Note_on_c, 0, 74, 92
2, 71040, Note_on_c, 0, 62, 0
2, 71040, Note_on_c, 0, 74, 0
2, 71040, Note_on_c, 0, 64, 92
2, 71040, Note_on_c, 0, 76, 92
2, 71104, Note_on_c, 0, 64, 0
2, 71104, Note_on_c, 0, 76, 0
2, 71104, Note_on_c, 0, 65, 92
2, 71104, Note_on_c, 0, 77, 92
2, 71168, Note_on_c, 0, 65, 0
2, 71168, Note_on_c, 0, 77, 0
2, 71168, Note_on_c, 0, 67, 92
2, 71168, Note_on_c, 0, 79, 92
2, 71232, Note_on_c, 0, 67, 0
2, 71232, Note_on_c, 0, 70, 0
2, 71232, Note_on_c, 0, 79, 0
2, 71232, Note_on_c, 0, 65, 92
2, 71232, Note_on_c, 0, 69, 92
2, 71232, Note_on_c, 0, 77, 92
2, 71296, Note_on_c, 0, 65, 0
2, 71296, Note_on_c, 0, 77, 0
2, 71296, Note_on_c, 0, 64, 92
2, 71296, Note_on_c, 0, 76, 92
2, 71360, Note_on_c, 0, 64, 0
2, 71360, Note_on_c, 0, 76, 0
2, 71360, Note_on_c, 0, 62, 92
2, 71360, Note_on_c, 0, 74, 92
2, 71424, Note_on_c, 0, 62, 0
2, 71424, Note_on_c, 0, 69, 0
2, 71424, Note_on_c, 0, 74, 0
2, 71424, Note_on_c, 0, 65, 127
2, 71424, Note_on_c, 0, 73, 127
2, 71424, Note_on_c, 0, 77, 127
2, 71488, Note_on_c, 0, 65, 0
2, 71488, Note_on_c, 0, 77, 0
2, 71488, Note_on_c, 0, 67, 93
2, 71488, Note_on_c, 0, 79, 93
2, 71552, Note_on_c, 0, 67, 0
2, 71552, Note_on_c, 0, 79, 0
2, 71552, Note_on_c, 0, 70, 94
2, 71552, Note_on_c, 0, 82, 94
2, 71616, Note_on_c, 0, 70, 0
2, 71616, Note_on_c, 0, 73, 0
2, 71616, Note_on_c, 0, 82, 0
2, 71616, Note_on_c, 0, 68, 95
2, 71616, Note_on_c, 0, 72, 95
2, 71616, Note_on_c, 0, 80, 95
2, 71680, Note_on_c, 0, 68, 0
2, 71680, Note_on_c, 0, 80, 0
2, 71680, Note_on_c, 0, 67, 96
2, 71680, Note_on_c, 0, 79, 96
2, 71744, Note_on_c, 0, 67, 0
2, 71744, Note_on_c, 0, 79, 0
2, 71744, Note_on_c, 0, 65, 97
2, 71744, Note_on_c, 0, 77, 97
2, 71808, Note_on_c, 0, 65, 0
2, 71808, Note_on_c, 0, 72, 0
2, 71808, Note_on_c, 0, 77, 0
2, 71808, Note_on_c, 0, 68, 127
2, 71808, Note_on_c, 0, 76, 127
2, 71808, Note_on_c, 0, 80, 127
2, 71872, Note_on_c, 0, 68, 0
2, 71872, Note_on_c, 0, 80, 0
2, 71872, Note_on_c, 0, 70, 99
2, 71872, Note_on_c, 0, 82, 99
2, 71936, Note_on_c, 0, 70, 0
2, 71936, Note_on_c, 0, 82, 0
2, 71936, Note_on_c, 0, 73, 100
2, 71936, Note_on_c, 0, 85, 100
2, 72000, Note_on_c, 0, 73, 0
2, 72000, Note_on_c, 0, 76, 0
2, 72000, Note_on_c, 0, 85, 0
2, 72000, Note_on_c, 0, 71, 101
2, 72000, Note_on_c, 0, 75, 101
2, 72000, Note_on_c, 0, 83, 101
2, 72064, Note_on_c, 0, 71, 0
2, 72064, Note_on_c, 0, 83, 0
2, 72064, Note_on_c, 0, 70, 102
2, 72064, Note_on_c, 0, 82, 102
2, 72128, Note_on_c, 0, 70, 0
2, 72128, Note_on_c, 0, 82, 0
2, 72128, Note_on_c, 0, 68, 103
2, 72128, Note_on_c, 0, 80, 103
2, 72192, Note_on_c, 0, 68, 0
2, 72192, Note_on_c, 0, 75, 0
2, 72192, Note_on_c, 0, 80, 0
2, 72192, Note_on_c, 0, 71, 127
2, 72192, Note_on_c, 0, 79, 127
2, 72192, Note_on_c, 0, 83, 127
2, 72256, Note_on_c, 0, 71, 0
2, 72256, Note_on_c, 0, 83, 0
2, 72256, Note_on_c, 0, 73, 105
2, 72256, Note_on_c, 0, 85, 105
2, 72320, Note_on_c, 0, 73, 0
2, 72320, Note_on_c, 0, 85, 0
2, 72320, Note_on_c, 0, 76, 106
2, 72320, Note_on_c, 0, 88, 106
2, 72384, Note_on_c, 0, 76, 0
2, 72384, Note_on_c, 0, 79, 0
2, 72384, Note_on_c, 0, 88, 0
2, 72384, Note_on_c, 0, 74, 107
2, 72384, Note_on_c, 0, 78, 107
2, 72384, Note_on_c, 0, 86, 107
2, 72448, Note_on_c, 0, 74, 0
2, 72448, Note_on_c, 0, 86, 0
2, 72448, Note_on_c, 0, 73, 108
2, 72448, Note_on_c, 0, 85, 108
2, 72512, Note_on_c, 0, 73, 0
2, 72512, Note_on_c, 0, 85, 0
2, 72512, Note_on_c, 0, 71, 109
2, 72512, Note_on_c, 0, 83, 109
2, 72576, Note_on_c, 0, 71, 0
2, 72576, Note_on_c, 0, 78, 0
2, 72576, Note_on_c, 0, 83, 0
2, 72576, Note_on_c, 0, 70, 110
2, 72576, Note_on_c, 0, 74, 110
2, 72576, Note_on_c, 0, 77, 110
2, 72576, Note_on_c, 0, 82, 110
2, 72640, Note_on_c, 0, 70, 0
2, 72640, Note_on_c, 0, 74, 0
2, 72640, Note_on_c, 0, 77, 0
2, 72640, Note_on_c, 0, 82, 0
2, 72640, Note_on_c, 0, 71, 111
2, 72640, Note_on_c, 0, 83, 111
2, 72704, Note_on_c, 0, 71, 0
2, 72704, Note_on_c, 0, 83, 0
2, 72704, Note_on_c, 0, 74, 113
2, 72704, Note_on_c, 0, 86, 113
2, 72768, Note_on_c, 0, 74, 0
2, 72768, Note_on_c, 0, 86, 0
2, 72768, Note_on_c, 0, 77, 115
2, 72768, Note_on_c, 0, 89, 115
2, 72832, Note_on_c, 0, 77, 0
2, 72832, Note_on_c, 0, 89, 0
2, 72832, Note_on_c, 0, 82, 117
2, 72832, Note_on_c, 0, 94, 117
2, 72896, Note_on_c, 0, 82, 0
2, 72896, Note_on_c, 0, 94, 0
2, 72896, Note_on_c, 0, 83, 119
2, 72896, Note_on_c, 0, 95, 119
2, 72960, Note_on_c, 0, 83, 0
2, 72960, Note_on_c, 0, 95, 0
2, 72960, Note_on_c, 0, 83, 121
2, 72960, Note_on_c, 0, 95, 121
2, 73024, Note_on_c, 0, 83, 0
2, 73024, Note_on_c, 0, 95, 0
2, 73024, Note_on_c, 0, 83, 123
2, 73024, Note_on_c, 0, 95, 123
2, 73088, Note_on_c, 0, 83, 0
2, 73088, Note_on_c, 0, 95, 0
2, 73088, Note_on_c, 0, 83, 125
2, 73088, Note_on_c, 0, 95, 125
2, 73152, Note_on_c, 0, 83, 0
2, 73152, Note_on_c, 0, 95, 0
2, 73152, Note_on_c, 0, 83, 127
2, 73152, Note_on_c, 0, 86, 127
2, 73152, Note_on_c, 0, 90, 127
2, 73152, Note_on_c, 0, 95, 127
2, 73216, Note_on_c, 0, 83, 0
2, 73216, Note_on_c, 0, 95, 0
2, 73216, Note_on_c, 0, 82, 127
2, 73216, Note_on_c, 0, 94, 127
2, 73280, Note_on_c, 0, 82, 0
2, 73280, Note_on_c, 0, 94, 0
2, 73280, Note_on_c, 0, 83, 127
2, 73280, Note_on_c, 0, 95, 127
2, 73344, Note_on_c, 0, 83, 0
2, 73344, Note_on_c, 0, 86, 0
2, 73344, Note_on_c, 0, 90, 0
2, 73344, Note_on_c, 0, 95, 0
2, 73344, Note_on_c, 0, 82, 127
2, 73344, Note_on_c, 0, 94, 127
2, 73408, Note_on_c, 0, 82, 0
2, 73408, Note_on_c, 0, 94, 0
2, 73408, Note_on_c, 0, 81, 127
2, 73408, Note_on_c, 0, 93, 127
2, 73472, Note_on_c, 0, 81, 0
2, 73472, Note_on_c, 0, 93, 0
2, 73472, Note_on_c, 0, 80, 127
2, 73472, Note_on_c, 0, 92, 127
2, 73536, Note_on_c, 0, 80, 0
2, 73536, Note_on_c, 0, 92, 0
2, 73536, Note_on_c, 0, 81, 127
2, 73536, Note_on_c, 0, 88, 127
2, 73536, Note_on_c, 0, 93, 127
2, 73600, Note_on_c, 0, 81, 0
2, 73600, Note_on_c, 0, 93, 0
2, 73600, Note_on_c, 0, 80, 127
2, 73600, Note_on_c, 0, 92, 127
2, 73664, Note_on_c, 0, 80, 0
2, 73664, Note_on_c, 0, 92, 0
2, 73664, Note_on_c, 0, 81, 127
2, 73664, Note_on_c, 0, 93, 127
2, 73728, Note_on_c, 0, 81, 0
2, 73728, Note_on_c, 0, 88, 0
2, 73728, Note_on_c, 0, 93, 0
2, 73728, Note_on_c, 0, 80, 127
2, 73728, Note_on_c, 0, 92, 127
2, 73792, Note_on_c, 0, 80, 0
2, 73792, Note_on_c, 0, 92, 0
2, 73792, Note_on_c, 0, 79, 127
2, 73792, Note_on_c, 0, 91, 127
2, 73856, Note_on_c, 0, 79, 0
2, 73856, Note_on_c, 0, 91, 0
2, 73856, Note_on_c, 0, 78, 127
2, 73856, Note_on_c, 0, 90, 127
2, 73920, Note_on_c, 0, 78, 0
2, 73920, Note_on_c, 0, 90, 0
2, 73920, Note_on_c, 0, 79, 127
2, 73920, Note_on_c, 0, 82, 127
2, 73920, Note_on_c, 0, 85, 127
2, 73920, Note_on_c, 0, 91, 127
2, 73984, Note_on_c, 0, 79, 0
2, 73984, Note_on_c, 0, 91, 0
2, 73984, Note_on_c, 0, 78, 127
2, 73984, Note_on_c, 0, 90, 127
2, 74048, Note_on_c, 0, 78, 0
2, 74048, Note_on_c, 0, 90, 0
2, 74048, Note_on_c, 0, 79, 127
2, 74048, Note_on_c, 0, 91, 127
2, 74112, Note_on_c, 0, 79, 0
2, 74112, Note_on_c, 0, 91, 0
2, 74112, Note_on_c, 0, 78, 127
2, 74112, Note_on_c, 0, 90, 127
2, 74176, Note_on_c, 0, 78, 0
2, 74176, Note_on_c, 0, 90, 0
2, 74176, Note_on_c, 0, 77, 127
2, 74176, Note_on_c, 0, 89, 127
2, 74240, Note_on_c, 0, 77, 0
2, 74240, Note_on_c, 0, 89, 0
2, 74240, Note_on_c, 0, 76, 127
2, 74240, Note_on_c, 0, 88, 127
2, 74304, Note_on_c, 0, 76, 0
2, 74304, Note_on_c, 0, 82, 0
2, 74304, Note_on_c, 0, 85, 0
2, 74304, Note_on_c, 0, 88, 0
2, 74304, Note_on_c, 0, 77, 127
2, 74304, Note_on_c, 0, 82, 127
2, 74304, Note_on_c, 0, 85, 127
2, 74304, Note_on_c, 0, 89, 127
2, 74368, Note_on_c, 0, 77, 0
2, 74368, Note_on_c, 0, 89, 0
2, 74368, Note_on_c, 0, 76, 127
2, 74368, Note_on_c, 0, 88, 127
2, 74432, Note_on_c, 0, 76, 0
2, 74432, Note_on_c, 0, 88, 0
2, 74432, Note_on_c, 0, 77, 127
2, 74432, Note_on_c, 0, 89, 127
2, 74496, Note_on_c, 0, 77, 0
2, 74496, Note_on_c, 0, 85, 0
2, 74496, Note_on_c, 0, 89, 0
2, 74496, Note_on_c, 0, 76, 127
2, 74496, Note_on_c, 0, 88, 127
2, 74560, Note_on_c, 0, 76, 0
2, 74560, Note_on_c, 0, 88, 0
2, 74560, Note_on_c, 0, 75, 127
2, 74560, Note_on_c, 0, 87, 127
2, 74624, Note_on_c, 0, 75, 0
2, 74624, Note_on_c, 0, 87, 0
2, 74624, Note_on_c, 0, 74, 127
2, 74624, Note_on_c, 0, 86, 127
2, 74688, Note_on_c, 0, 74, 0
2, 74688, Note_on_c, 0, 82, 0
2, 74688, Note_on_c, 0, 86, 0
2, 74688, Note_on_c, 0, 76, 127
2, 74688, Note_on_c, 0, 82, 127
2, 74688, Note_on_c, 0, 85, 127
2, 74688, Note_on_c, 0, 88, 127
2, 74752, Note_on_c, 0, 76, 0
2, 74752, Note_on_c, 0, 88, 0
2, 74752, Note_on_c, 0, 75, 127
2, 74752, Note_on_c, 0, 87, 127
2, 74816, Note_on_c, 0, 75, 0
2, 74816, Note_on_c, 0, 87, 0
2, 74816, Note_on_c, 0, 76, 127
2, 74816, Note_on_c, 0, 88, 127
2, 74880, Note_on_c, 0, 76, 0
2, 74880, Note_on_c, 0, 85, 0
2, 74880, Note_on_c, 0, 88, 0
2, 74880, Note_on_c, 0, 75, 127
2, 74880, Note_on_c, 0, 87, 127
2, 74944, Note_on_c, 0, 75, 0
2, 74944, Note_on_c, 0, 87, 0
2, 74944, Note_on_c, 0, 74, 127
2, 74944, Note_on_c, 0, 86, 127
2, 75008, Note_on_c, 0, 74, 0
2, 75008, Note_on_c, 0, 86, 0
2, 75008, Note_on_c, 0, 73, 127
2, 75008, Note_on_c, 0, 85, 127
2, 75072, Note_on_c, 0, 73, 0
2, 75072, Note_on_c, 0, 82, 0
2, 75072, Note_on_c, 0, 85, 0
2, 75072, Note_on_c, 0, 74, 127
2, 75072, Note_on_c, 0, 77, 127
2, 75072, Note_on_c, 0, 80, 127
2, 75072, Note_on_c, 0, 86, 127
2, 75136, Note_on_c, 0, 74, 0
2, 75136, Note_on_c, 0, 86, 0
2, 75136, Note_on_c, 0, 73, 127
2, 75136, Note_on_c, 0, 85, 127
2, 75200, Note_on_c, 0, 73, 0
2, 75200, Note_on_c, 0, 85, 0
2, 75200, Note_on_c, 0, 74, 127
2, 75200, Note_on_c, 0, 86, 127
2, 75264, Note_on_c, 0, 74, 0
2, 75264, Note_on_c, 0, 86, 0
2, 75264, Note_on_c, 0, 73, 127
2, 75264, Note_on_c, 0, 85, 127
2, 75328, Note_on_c, 0, 73, 0
2, 75328, Note_on_c, 0, 85, 0
2, 75328, Note_on_c, 0, 72, 127
2, 75328, Note_on_c, 0, 84, 127
2, 75392, Note_on_c, 0, 72, 0
2, 75392, Note_on_c, 0, 84, 0
2, 75392, Note_on_c, 0, 71, 127
2, 75392, Note_on_c, 0, 83, 127
2, 75456, Note_on_c, 0, 71, 0
2, 75456, Note_on_c, 0, 77, 0
2, 75456, Note_on_c, 0, 80, 0
2, 75456, Note_on_c, 0, 83, 0
2, 75456, Note_on_c, 0, 71, 127
2, 75456, Note_on_c, 0, 73, 127
2, 75456, Note_on_c, 0, 78, 127
2, 75456, Note_on_c, 0, 83, 127
2, 75840, Note_on_c, 0, 71, 0
2, 75840, Note_on_c, 0, 73, 0
2, 75840, Note_on_c, 0, 78, 0
2, 75840, Note_on_c, 0, 83, 0
2, 75840, Note_on_c, 0, 70, 127
2, 75840, Note_on_c, 0, 73, 127
2, 75840, Note_on_c, 0, 78, 127
2, 75840, Note_on_c, 0, 82, 127
2, 76224, Note_on_c, 0, 70, 0
2, 76224, Note_on_c, 0, 73, 0
2, 76224, Note_on_c, 0, 78, 0
2, 76224, Note_on_c, 0, 82, 0
2, 76224, Note_on_c, 0, 71, 127
2, 76224, Note_on_c, 0, 74, 127
2, 76224, Note_on_c, 0, 78, 127
2, 76224, Note_on_c, 0, 83, 127
2, 77760, Note_on_c, 0, 71, 0
2, 77760, Note_on_c, 0, 74, 0
2, 77760, Note_on_c, 0, 78, 0
2, 77760, Note_on_c, 0, 83, 0
2, 77760, End_track
3, 0, Start_track
3, 0, MIDI_port, 0
3, 0, Title_t, "Left Hand"
3, 0, Control_c, 0, 7, 127
3, 0, Control_c, 0, 10, 64
3, 0, Control_c, 0, 7, 127
3, 0, Control_c, 0, 10, 64
3, 0, Note_on_c, 0, 30, 45
3, 0, Note_on_c, 0, 42, 45
3, 64, Note_on_c, 0, 30, 0
3, 64, Note_on_c, 0, 42, 0
3, 64, Note_on_c, 0, 29, 45
3, 64, Note_on_c, 0, 41, 45
3, 128, Note_on_c, 0, 29, 0
3, 128, Note_on_c, 0, 41, 0
3, 128, Note_on_c, 0, 30, 45
3, 128, Note_on_c, 0, 42, 45
3, 192, Note_on_c, 0, 30, 0
3, 192, Note_on_c, 0, 42, 0
3, 192, Note_on_c, 0, 31, 45
3, 192, Note_on_c, 0, 43, 45
3, 256, Note_on_c, 0, 31, 0
3, 256, Note_on_c, 0, 43, 0
3, 256, Note_on_c, 0, 32, 46
3, 256, Note_on_c, 0, 44, 46
3, 320, Note_on_c, 0, 32, 0
3, 320, Note_on_c, 0, 44, 0
3, 320, Note_on_c, 0, 33, 47
3, 320, Note_on_c, 0, 45, 47
3, 384, Note_on_c, 0, 33, 0
3, 384, Note_on_c, 0, 45, 0
3, 384, Note_on_c, 0, 32, 48
3, 384, Note_on_c, 0, 44, 48
3, 448, Note_on_c, 0, 32, 0
3, 448, Note_on_c, 0, 44, 0
3, 448, Note_on_c, 0, 31, 49
3, 448, Note_on_c, 0, 43, 49
3, 512, Note_on_c, 0, 31, 0
3, 512, Note_on_c, 0, 43, 0
3, 512, Note_on_c, 0, 32, 50
3, 512, Note_on_c, 0, 44, 50
3, 576, Note_on_c, 0, 32, 0
3, 576, Note_on_c, 0, 44, 0
3, 576, Note_on_c, 0, 33, 51
3, 576, Note_on_c, 0, 45, 51
3, 640, Note_on_c, 0, 33, 0
3, 640, Note_on_c, 0, 45, 0
3, 640, Note_on_c, 0, 34, 52
3, 640, Note_on_c, 0, 46, 52
3, 704, Note_on_c, 0, 34, 0
3, 704, Note_on_c, 0, 46, 0
3, 704, Note_on_c, 0, 35, 53
3, 704, Note_on_c, 0, 47, 53
3, 768, Note_on_c, 0, 35, 0
3, 768, Note_on_c, 0, 47, 0
3, 768, Note_on_c, 0, 34, 54
3, 768, Note_on_c, 0, 46, 54
3, 832, Note_on_c, 0, 34, 0
3, 832, Note_on_c, 0, 46, 0
3, 832, Note_on_c, 0, 33, 55
3, 832, Note_on_c, 0, 45, 55
3, 896, Note_on_c, 0, 33, 0
3, 896, Note_on_c, 0, 45, 0
3, 896, Note_on_c, 0, 34, 56
3, 896, Note_on_c, 0, 46, 56
3, 960, Note_on_c, 0, 34, 0
3, 960, Note_on_c, 0, 46, 0
3, 960, Note_on_c, 0, 35, 57
3, 960, Note_on_c, 0, 47, 57
3, 1024, Note_on_c, 0, 35, 0
3, 1024, Note_on_c, 0, 47, 0
3, 1024, Note_on_c, 0, 36, 58
3, 1024, Note_on_c, 0, 48, 58
3, 1088, Note_on_c, 0, 36, 0
3, 1088, Note_on_c, 0, 48, 0
3, 1088, Note_on_c, 0, 37, 59
3, 1088, Note_on_c, 0, 49, 59
3, 1152, Note_on_c, 0, 37, 0
3, 1152, Note_on_c, 0, 49, 0
3, 1152, Note_on_c, 0, 36, 60
3, 1152, Note_on_c, 0, 48, 60
3, 1216, Note_on_c, 0, 36, 0
3, 1216, Note_on_c, 0, 48, 0
3, 1216, Note_on_c, 0, 35, 61
3, 1216, Note_on_c, 0, 47, 61
3, 1280, Note_on_c, 0, 35, 0
3, 1280, Note_on_c, 0, 47, 0
3, 1280, Note_on_c, 0, 36, 62
3, 1280, Note_on_c, 0, 48, 62
3, 1344, Note_on_c, 0, 36, 0
3, 1344, Note_on_c, 0, 48, 0
3, 1344, Note_on_c, 0, 37, 63
3, 1344, Note_on_c, 0, 49, 63
3, 1408, Note_on_c, 0, 37, 0
3, 1408, Note_on_c, 0, 49, 0
3, 1408, Note_on_c, 0, 38, 64
3, 1408, Note_on_c, 0, 50, 64
3, 1472, Note_on_c, 0, 38, 0
3, 1472, Note_on_c, 0, 50, 0
3, 1472, Note_on_c, 0, 39, 65
3, 1472, Note_on_c, 0, 51, 65
3, 1536, Note_on_c, 0, 39, 0
3, 1536, Note_on_c, 0, 51, 0
3, 1536, Note_on_c, 0, 38, 66
3, 1536, Note_on_c, 0, 50, 66
3, 1600, Note_on_c, 0, 38, 0
3, 1600, Note_on_c, 0, 50, 0
3, 1600, Note_on_c, 0, 39, 67
3, 1600, Note_on_c, 0, 51, 67
3, 1664, Note_on_c, 0, 39, 0
3, 1664, Note_on_c, 0, 51, 0
3, 1664, Note_on_c, 0, 40, 95
3, 1664, Note_on_c, 0, 52, 95
3, 1728, Note_on_c, 0, 40, 0
3, 1728, Note_on_c, 0, 52, 0
3, 1728, Note_on_c, 0, 39, 69
3, 1728, Note_on_c, 0, 51, 69
3, 1792, Note_on_c, 0, 39, 0
3, 1792, Note_on_c, 0, 51, 0
3, 1792, Note_on_c, 0, 40, 70
3, 1792, Note_on_c, 0, 52, 70
3, 1856, Note_on_c, 0, 40, 0
3, 1856, Note_on_c, 0, 52, 0
3, 1856, Note_on_c, 0, 41, 99
3, 1856, Note_on_c, 0, 53, 99
3, 1920, Note_on_c, 0, 41, 0
3, 1920, Note_on_c, 0, 53, 0
3, 1920, Note_on_c, 0, 40, 72
3, 1920, Note_on_c, 0, 52, 72
3, 1984, Note_on_c, 0, 40, 0
3, 1984, Note_on_c, 0, 52, 0
3, 1984, Note_on_c, 0, 41, 74
3, 1984, Note_on_c, 0, 53, 74
3, 2048, Note_on_c, 0, 41, 0
3, 2048, Note_on_c, 0, 53, 0
3, 2048, Note_on_c, 0, 42, 106
3, 2048, Note_on_c, 0, 54, 106
3, 2112, Note_on_c, 0, 42, 0
3, 2112, Note_on_c, 0, 54, 0
3, 2112, Note_on_c, 0, 41, 78
3, 2112, Note_on_c, 0, 53, 78
3, 2176, Note_on_c, 0, 41, 0
3, 2176, Note_on_c, 0, 53, 0
3, 2176, Note_on_c, 0, 42, 80
3, 2176, Note_on_c, 0, 54, 80
3, 2240, Note_on_c, 0, 42, 0
3, 2240, Note_on_c, 0, 54, 0
3, 2240, Note_on_c, 0, 43, 114
3, 2240, Note_on_c, 0, 55, 114
3, 2304, Note_on_c, 0, 43, 0
3, 2304, Note_on_c, 0, 55, 0
3, 2304, Note_on_c, 0, 42, 84
3, 2304, Note_on_c, 0, 54, 84
3, 2368, Note_on_c, 0, 42, 0
3, 2368, Note_on_c, 0, 54, 0
3, 2368, Note_on_c, 0, 43, 86
3, 2368, Note_on_c, 0, 55, 86
3, 2432, Note_on_c, 0, 43, 0
3, 2432, Note_on_c, 0, 55, 0
3, 2432, Note_on_c, 0, 44, 123
3, 2432, Note_on_c, 0, 56, 123
3, 2496, Note_on_c, 0, 44, 0
3, 2496, Note_on_c, 0, 56, 0
3, 2496, Note_on_c, 0, 43, 90
3, 2496, Note_on_c, 0, 55, 90
3, 2560, Note_on_c, 0, 43, 0
3, 2560, Note_on_c, 0, 55, 0
3, 2560, Note_on_c, 0, 44, 92
3, 2560, Note_on_c, 0, 56, 92
3, 2624, Note_on_c, 0, 44, 0
3, 2624, Note_on_c, 0, 56, 0
3, 2624, Note_on_c, 0, 45, 127
3, 2624, Note_on_c, 0, 57, 127
3, 2688, Note_on_c, 0, 45, 0
3, 2688, Note_on_c, 0, 57, 0
3, 2688, Note_on_c, 0, 43, 96
3, 2688, Note_on_c, 0, 55, 96
3, 2752, Note_on_c, 0, 43, 0
3, 2752, Note_on_c, 0, 55, 0
3, 2752, Note_on_c, 0, 44, 98
3, 2752, Note_on_c, 0, 56, 98
3, 2816, Note_on_c, 0, 44, 0
3, 2816, Note_on_c, 0, 56, 0
3, 2816, Note_on_c, 0, 45, 127
3, 2816, Note_on_c, 0, 57, 127
3, 2880, Note_on_c, 0, 45, 0
3, 2880, Note_on_c, 0, 57, 0
3, 2880, Note_on_c, 0, 44, 102
3, 2880, Note_on_c, 0, 56, 102
3, 2944, Note_on_c, 0, 44, 0
3, 2944, Note_on_c, 0, 56, 0
3, 2944, Note_on_c, 0, 45, 104
3, 2944, Note_on_c, 0, 57, 104
3, 3008, Note_on_c, 0, 45, 0
3, 3008, Note_on_c, 0, 57, 0
3, 3008, Note_on_c, 0, 46, 127
3, 3008, Note_on_c, 0, 58, 127
3, 3072, Note_on_c, 0, 46, 0
3, 3072, Note_on_c, 0, 58, 0
3, 3072, Note_on_c, 0, 47, 127
3, 3072, Note_on_c, 0, 50, 127
3, 3072, Note_on_c, 0, 59, 127
3, 3136, Note_on_c, 0, 47, 0
3, 3136, Note_on_c, 0, 59, 0
3, 3136, Note_on_c, 0, 46, 108
3, 3136, Note_on_c, 0, 58, 108
3, 3200, Note_on_c, 0, 46, 0
3, 3200, Note_on_c, 0, 58, 0
3, 3200, Note_on_c, 0, 47, 108
3, 3200, Note_on_c, 0, 59, 108
3, 3264, Note_on_c, 0, 47, 0
3, 3264, Note_on_c, 0, 59, 0
3, 3264, Note_on_c, 0, 46, 108
3, 3264, Note_on_c, 0, 58, 108
3, 3328, Note_on_c, 0, 46, 0
3, 3328, Note_on_c, 0, 58, 0
3, 3328, Note_on_c, 0, 45, 108
3, 3328, Note_on_c, 0, 57, 108
3, 3392, Note_on_c, 0, 45, 0
3, 3392, Note_on_c, 0, 57, 0
3, 3392, Note_on_c, 0, 44, 108
3, 3392, Note_on_c, 0, 56, 108
3, 3456, Note_on_c, 0, 44, 0
3, 3456, Note_on_c, 0, 50, 0
3, 3456, Note_on_c, 0, 56, 0
3, 3456, Note_on_c, 0, 45, 127
3, 3456, Note_on_c, 0, 50, 127
3, 3456, Note_on_c, 0, 57, 127
3, 3520, Note_on_c, 0, 45, 0
3, 3520, Note_on_c, 0, 57, 0
3, 3520, Note_on_c, 0, 44, 108
3, 3520, Note_on_c, 0, 56, 108
3, 3584, Note_on_c, 0, 44, 0
3, 3584, Note_on_c, 0, 56, 0
3, 3584, Note_on_c, 0, 45, 108
3, 3584, Note_on_c, 0, 57, 108
3, 3648, Note_on_c, 0, 45, 0
3, 3648, Note_on_c, 0, 57, 0
3, 3648, Note_on_c, 0, 44, 108
3, 3648, Note_on_c, 0, 56, 108
3, 3712, Note_on_c, 0, 44, 0
3, 3712, Note_on_c, 0, 56, 0
3, 3712, Note_on_c, 0, 43, 108
3, 3712, Note_on_c, 0, 55, 108
3, 3776, Note_on_c, 0, 43, 0
3, 3776, Note_on_c, 0, 55, 0
3, 3776, Note_on_c, 0, 42, 108
3, 3776, Note_on_c, 0, 54, 108
3, 3840, Note_on_c, 0, 42, 0
3, 3840, Note_on_c, 0, 50, 0
3, 3840, Note_on_c, 0, 54, 0
3, 3840, Note_on_c, 0, 43, 127
3, 3840, Note_on_c, 0, 47, 127
3, 3840, Note_on_c, 0, 55, 127
3, 3904, Note_on_c, 0, 43, 0
3, 3904, Note_on_c, 0, 55, 0
3, 3904, Note_on_c, 0, 42, 107
3, 3904, Note_on_c, 0, 54, 107
3, 3968, Note_on_c, 0, 42, 0
3, 3968, Note_on_c, 0, 54, 0
3, 3968, Note_on_c, 0, 43, 106
3, 3968, Note_on_c, 0, 55, 106
3, 4032, Note_on_c, 0, 43, 0
3, 4032, Note_on_c, 0, 47, 0
3, 4032, Note_on_c, 0, 55, 0
3, 4032, Note_on_c, 0, 42, 127
3, 4032, Note_on_c, 0, 47, 127
3, 4032, Note_on_c, 0, 54, 127
3, 4096, Note_on_c, 0, 42, 0
3, 4096, Note_on_c, 0, 54, 0
3, 4096, Note_on_c, 0, 41, 104
3, 4096, Note_on_c, 0, 53, 104
3, 4160, Note_on_c, 0, 41, 0
3, 4160, Note_on_c, 0, 53, 0
3, 4160, Note_on_c, 0, 40, 103
3, 4160, Note_on_c, 0, 52, 103
3, 4224, Note_on_c, 0, 40, 0
3, 4224, Note_on_c, 0, 47, 0
3, 4224, Note_on_c, 0, 52, 0
3, 4224, Note_on_c, 0, 39, 127
3, 4224, Note_on_c, 0, 42, 127
3, 4224, Note_on_c, 0, 51, 127
3, 4288, Note_on_c, 0, 39, 0
3, 4288, Note_on_c, 0, 51, 0
3, 4288, Note_on_c, 0, 38, 101
3, 4288, Note_on_c, 0, 50, 101
3, 4352, Note_on_c, 0, 38, 0
3, 4352, Note_on_c, 0, 50, 0
3, 4352, Note_on_c, 0, 37, 100
3, 4352, Note_on_c, 0, 49, 100
3, 4416, Note_on_c, 0, 37, 0
3, 4416, Note_on_c, 0, 42, 0
3, 4416, Note_on_c, 0, 49, 0
3, 4416, Note_on_c, 0, 35, 127
3, 4416, Note_on_c, 0, 42, 127
3, 4416, Note_on_c, 0, 47, 127
3, 4608, Note_on_c, 0, 35, 0
3, 4608, Note_on_c, 0, 42, 0
3, 4608, Note_on_c, 0, 47, 0
3, 4608, Note_on_c, 0, 35, 127
3, 4608, Note_on_c, 0, 43, 127
3, 4608, Note_on_c, 0, 47, 127
3, 4672, Note_on_c, 0, 35, 0
3, 4672, Note_on_c, 0, 47, 0
3, 4672, Note_on_c, 0, 34, 92
3, 4672, Note_on_c, 0, 46, 92
3, 4736, Note_on_c, 0, 34, 0
3, 4736, Note_on_c, 0, 46, 0
3, 4736, Note_on_c, 0, 35, 92
3, 4736, Note_on_c, 0, 47, 92
3, 4800, Note_on_c, 0, 35, 0
3, 4800, Note_on_c, 0, 47, 0
3, 4800, Note_on_c, 0, 37, 92
3, 4800, Note_on_c, 0, 49, 92
3, 4864, Note_on_c, 0, 37, 0
3, 4864, Note_on_c, 0, 49, 0
3, 4864, Note_on_c, 0, 38, 92
3, 4864, Note_on_c, 0, 50, 92
3, 4928, Note_on_c, 0, 38, 0
3, 4928, Note_on_c, 0, 50, 0
3, 4928, Note_on_c, 0, 40, 92
3, 4928, Note_on_c, 0, 52, 92
3, 4992, Note_on_c, 0, 40, 0
3, 4992, Note_on_c, 0, 43, 0
3, 4992, Note_on_c, 0, 52, 0
3, 4992, Note_on_c, 0, 38, 92
3, 4992, Note_on_c, 0, 42, 92
3, 4992, Note_on_c, 0, 50, 92
3, 5056, Note_on_c, 0, 38, 0
3, 5056, Note_on_c, 0, 50, 0
3, 5056, Note_on_c, 0, 37, 92
3, 5056, Note_on_c, 0, 49, 92
3, 5120, Note_on_c, 0, 37, 0
3, 5120, Note_on_c, 0, 49, 0
3, 5120, Note_on_c, 0, 35, 92
3, 5120, Note_on_c, 0, 47, 92
3, 5184, Note_on_c, 0, 35, 0
3, 5184, Note_on_c, 0, 42, 0
3, 5184, Note_on_c, 0, 47, 0
3, 5184, Note_on_c, 0, 34, 92
3, 5184, Note_on_c, 0, 46, 92
3, 5248, Note_on_c, 0, 34, 0
3, 5248, Note_on_c, 0, 46, 0
3, 5248, Note_on_c, 0, 35, 92
3, 5248, Note_on_c, 0, 47, 92
3, 5312, Note_on_c, 0, 35, 0
3, 5312, Note_on_c, 0, 47, 0
3, 5312, Note_on_c, 0, 37, 92
3, 5312, Note_on_c, 0, 49, 92
3, 5376, Note_on_c, 0, 37, 0
3, 5376, Note_on_c, 0, 49, 0
3, 5376, Note_on_c, 0, 35, 127
3, 5376, Note_on_c, 0, 43, 127
3, 5376, Note_on_c, 0, 47, 127
3, 5440, Note_on_c, 0, 35, 0
3, 5440, Note_on_c, 0, 47, 0
3, 5440, Note_on_c, 0, 34, 92
3, 5440, Note_on_c, 0, 46, 92
3, 5504, Note_on_c, 0, 34, 0
3, 5504, Note_on_c, 0, 46, 0
3, 5504, Note_on_c, 0, 35, 92
3, 5504, Note_on_c, 0, 47, 92
3, 5568, Note_on_c, 0, 35, 0
3, 5568, Note_on_c, 0, 47, 0
3, 5568, Note_on_c, 0, 37, 92
3, 5568, Note_on_c, 0, 49, 92
3, 5632, Note_on_c, 0, 37, 0
3, 5632, Note_on_c, 0, 49, 0
3, 5632, Note_on_c, 0, 38, 92
3, 5632, Note_on_c, 0, 50, 92
3, 5696, Note_on_c, 0, 38, 0
3, 5696, Note_on_c, 0, 50, 0
3, 5696, Note_on_c, 0, 40, 92
3, 5696, Note_on_c, 0, 52, 92
3, 5760, Note_on_c, 0, 40, 0
3, 5760, Note_on_c, 0, 43, 0
3, 5760, Note_on_c, 0, 52, 0
3, 5760, Note_on_c, 0, 38, 92
3, 5760, Note_on_c, 0, 42, 92
3, 5760, Note_on_c, 0, 50, 92
3, 5824, Note_on_c, 0, 38, 0
3, 5824, Note_on_c, 0, 50, 0
3, 5824, Note_on_c, 0, 37, 92
3, 5824, Note_on_c, 0, 49, 92
3, 5888, Note_on_c, 0, 37, 0
3, 5888, Note_on_c, 0, 49, 0
3, 5888, Note_on_c, 0, 35, 92
3, 5888, Note_on_c, 0, 47, 92
3, 5952, Note_on_c, 0, 35, 0
3, 5952, Note_on_c, 0, 42, 0
3, 5952, Note_on_c, 0, 47, 0
3, 5952, Note_on_c, 0, 34, 92
3, 5952, Note_on_c, 0, 46, 92
3, 6016, Note_on_c, 0, 34, 0
3, 6016, Note_on_c, 0, 46, 0
3, 6016, Note_on_c, 0, 35, 92
3, 6016, Note_on_c, 0, 47, 92
3, 6080, Note_on_c, 0, 35, 0
3, 6080, Note_on_c, 0, 47, 0
3, 6080, Note_on_c, 0, 37, 92
3, 6080, Note_on_c, 0, 49, 92
3, 6144, Note_on_c, 0, 37, 0
3, 6144, Note_on_c, 0, 49, 0
3, 6144, Note_on_c, 0, 38, 127
3, 6144, Note_on_c, 0, 46, 127
3, 6144, Note_on_c, 0, 50, 127
3, 6208, Note_on_c, 0, 38, 0
3, 6208, Note_on_c, 0, 50, 0
3, 6208, Note_on_c, 0, 37, 92
3, 6208, Note_on_c, 0, 49, 92
3, 6272, Note_on_c, 0, 37, 0
3, 6272, Note_on_c, 0, 49, 0
3, 6272, Note_on_c, 0, 38, 92
3, 6272, Note_on_c, 0, 50, 92
3, 6336, Note_on_c, 0, 38, 0
3, 6336, Note_on_c, 0, 50, 0
3, 6336, Note_on_c, 0, 40, 92
3, 6336, Note_on_c, 0, 52, 92
3, 6400, Note_on_c, 0, 40, 0
3, 6400, Note_on_c, 0, 52, 0
3, 6400, Note_on_c, 0, 41, 92
3, 6400, Note_on_c, 0, 53, 92
3, 6464, Note_on_c, 0, 41, 0
3, 6464, Note_on_c, 0, 53, 0
3, 6464, Note_on_c, 0, 43, 92
3, 6464, Note_on_c, 0, 55, 92
3, 6528, Note_on_c, 0, 43, 0
3, 6528, Note_on_c, 0, 46, 0
3, 6528, Note_on_c, 0, 55, 0
3, 6528, Note_on_c, 0, 41, 92
3, 6528, Note_on_c, 0, 45, 92
3, 6528, Note_on_c, 0, 53, 92
3, 6592, Note_on_c, 0, 41, 0
3, 6592, Note_on_c, 0, 53, 0
3, 6592, Note_on_c, 0, 40, 92
3, 6592, Note_on_c, 0, 52, 92
3, 6656, Note_on_c, 0, 40, 0
3, 6656, Note_on_c, 0, 52, 0
3, 6656, Note_on_c, 0, 38, 92
3, 6656, Note_on_c, 0, 50, 92
3, 6720, Note_on_c, 0, 38, 0
3, 6720, Note_on_c, 0, 45, 0
3, 6720, Note_on_c, 0, 50, 0
3, 6720, Note_on_c, 0, 37, 92
3, 6720, Note_on_c, 0, 49, 92
3, 6784, Note_on_c, 0, 37, 0
3, 6784, Note_on_c, 0, 49, 0
3, 6784, Note_on_c, 0, 38, 92
3, 6784, Note_on_c, 0, 50, 92
3, 6848, Note_on_c, 0, 38, 0
3, 6848, Note_on_c, 0, 50, 0
3, 6848, Note_on_c, 0, 40, 92
3, 6848, Note_on_c, 0, 52, 92
3, 6912, Note_on_c, 0, 40, 0
3, 6912, Note_on_c, 0, 52, 0
3, 6912, Note_on_c, 0, 38, 127
3, 6912, Note_on_c, 0, 46, 127
3, 6912, Note_on_c, 0, 50, 127
3, 6976, Note_on_c, 0, 38, 0
3, 6976, Note_on_c, 0, 50, 0
3, 6976, Note_on_c, 0, 37, 92
3, 6976, Note_on_c, 0, 49, 92
3, 7040, Note_on_c, 0, 37, 0
3, 7040, Note_on_c, 0, 49, 0
3, 7040, Note_on_c, 0, 38, 92
3, 7040, Note_on_c, 0, 50, 92
3, 7104, Note_on_c, 0, 38, 0
3, 7104, Note_on_c, 0, 50, 0
3, 7104, Note_on_c, 0, 40, 92
3, 7104, Note_on_c, 0, 52, 92
3, 7168, Note_on_c, 0, 40, 0
3, 7168, Note_on_c, 0, 52, 0
3, 7168, Note_on_c, 0, 41, 92
3, 7168, Note_on_c, 0, 53, 92
3, 7232, Note_on_c, 0, 41, 0
3, 7232, Note_on_c, 0, 53, 0
3, 7232, Note_on_c, 0, 43, 92
3, 7232, Note_on_c, 0, 55, 92
3, 7296, Note_on_c, 0, 43, 0
3, 7296, Note_on_c, 0, 46, 0
3, 7296, Note_on_c, 0, 55, 0
3, 7296, Note_on_c, 0, 41, 92
3, 7296, Note_on_c, 0, 45, 92
3, 7296, Note_on_c, 0, 53, 92
3, 7360, Note_on_c, 0, 41, 0
3, 7360, Note_on_c, 0, 53, 0
3, 7360, Note_on_c, 0, 40, 92
3, 7360, Note_on_c, 0, 52, 92
3, 7424, Note_on_c, 0, 40, 0
3, 7424, Note_on_c, 0, 52, 0
3, 7424, Note_on_c, 0, 38, 92
3, 7424, Note_on_c, 0, 50, 92
3, 7488, Note_on_c, 0, 38, 0
3, 7488, Note_on_c, 0, 45, 0
3, 7488, Note_on_c, 0, 50, 0
3, 7488, Note_on_c, 0, 37, 92
3, 7488, Note_on_c, 0, 49, 92
3, 7552, Note_on_c, 0, 37, 0
3, 7552, Note_on_c, 0, 49, 0
3, 7552, Note_on_c, 0, 38, 92
3, 7552, Note_on_c, 0, 50, 92
3, 7616, Note_on_c, 0, 38, 0
3, 7616, Note_on_c, 0, 50, 0
3, 7616, Note_on_c, 0, 40, 92
3, 7616, Note_on_c, 0, 52, 92
3, 7680, Note_on_c, 0, 40, 0
3, 7680, Note_on_c, 0, 52, 0
3, 7680, Note_on_c, 0, 43, 127
3, 7680, Note_on_c, 0, 55, 127
3, 7744, Note_on_c, 0, 43, 0
3, 7744, Note_on_c, 0, 55, 0
3, 7744, Note_on_c, 0, 42, 92
3, 7744, Note_on_c, 0, 54, 92
3, 7808, Note_on_c, 0, 42, 0
3, 7808, Note_on_c, 0, 54, 0
3, 7808, Note_on_c, 0, 43, 92
3, 7808, Note_on_c, 0, 55, 92
3, 7872, Note_on_c, 0, 43, 0
3, 7872, Note_on_c, 0, 55, 0
3, 7872, Note_on_c, 0, 44, 92
3, 7872, Note_on_c, 0, 56, 92
3, 7936, Note_on_c, 0, 44, 0
3, 7936, Note_on_c, 0, 56, 0
3, 7936, Note_on_c, 0, 45, 92
3, 7936, Note_on_c, 0, 57, 92
3, 8000, Note_on_c, 0, 45, 0
3, 8000, Note_on_c, 0, 57, 0
3, 8000, Note_on_c, 0, 46, 92
3, 8000, Note_on_c, 0, 58, 92
3, 8064, Note_on_c, 0, 46, 0
3, 8064, Note_on_c, 0, 58, 0
3, 8064, Note_on_c, 0, 45, 127
3, 8064, Note_on_c, 0, 57, 127
3, 8128, Note_on_c, 0, 45, 0
3, 8128, Note_on_c, 0, 57, 0
3, 8128, Note_on_c, 0, 44, 92
3, 8128, Note_on_c, 0, 56, 92
3, 8192, Note_on_c, 0, 44, 0
3, 8192, Note_on_c, 0, 56, 0
3, 8192, Note_on_c, 0, 45, 92
3, 8192, Note_on_c, 0, 57, 92
3, 8256, Note_on_c, 0, 45, 0
3, 8256, Note_on_c, 0, 57, 0
3, 8256, Note_on_c, 0, 46, 93
3, 8256, Note_on_c, 0, 58, 93
3, 8320, Note_on_c, 0, 46, 0
3, 8320, Note_on_c, 0, 58, 0
3, 8320, Note_on_c, 0, 47, 94
3, 8320, Note_on_c, 0, 59, 94
3, 8384, Note_on_c, 0, 47, 0
3, 8384, Note_on_c, 0, 59, 0
3, 8384, Note_on_c, 0, 48, 95
3, 8384, Note_on_c, 0, 60, 95
3, 8448, Note_on_c, 0, 48, 0
3, 8448, Note_on_c, 0, 60, 0
3, 8448, Note_on_c, 0, 49, 127
3, 8448, Note_on_c, 0, 61, 127
3, 8512, Note_on_c, 0, 49, 0
3, 8512, Note_on_c, 0, 61, 0
3, 8512, Note_on_c, 0, 50, 97
3, 8512, Note_on_c, 0, 62, 97
3, 8576, Note_on_c, 0, 50, 0
3, 8576, Note_on_c, 0, 62, 0
3, 8576, Note_on_c, 0, 51, 98
3, 8576, Note_on_c, 0, 63, 98
3, 8640, Note_on_c, 0, 51, 0
3, 8640, Note_on_c, 0, 63, 0
3, 8640, Note_on_c, 0, 52, 127
3, 8640, Note_on_c, 0, 64, 127
3, 8704, Note_on_c, 0, 52, 0
3, 8704, Note_on_c, 0, 64, 0
3, 8704, Note_on_c, 0, 53, 100
3, 8704, Note_on_c, 0, 65, 100
3, 8768, Note_on_c, 0, 53, 0
3, 8768, Note_on_c, 0, 65, 0
3, 8768, Note_on_c, 0, 54, 101
3, 8768, Note_on_c, 0, 66, 101
3, 8832, Note_on_c, 0, 54, 0
3, 8832, Note_on_c, 0, 66, 0
3, 8832, Note_on_c, 0, 55, 127
3, 8832, Note_on_c, 0, 67, 127
3, 8896, Note_on_c, 0, 55, 0
3, 8896, Note_on_c, 0, 67, 0
3, 8896, Note_on_c, 0, 56, 103
3, 8896, Note_on_c, 0, 68, 103
3, 8960, Note_on_c, 0, 56, 0
3, 8960, Note_on_c, 0, 68, 0
3, 8960, Note_on_c, 0, 57, 104
3, 8960, Note_on_c, 0, 69, 104
3, 9024, Note_on_c, 0, 57, 0
3, 9024, Note_on_c, 0, 69, 0
3, 9024, Note_on_c, 0, 58, 127
3, 9024, Note_on_c, 0, 70, 127
3, 9088, Note_on_c, 0, 58, 0
3, 9088, Note_on_c, 0, 70, 0
3, 9088, Note_on_c, 0, 59, 106
3, 9088, Note_on_c, 0, 71, 106
3, 9152, Note_on_c, 0, 59, 0
3, 9152, Note_on_c, 0, 71, 0
3, 9152, Note_on_c, 0, 61, 107
3, 9152, Note_on_c, 0, 73, 107
3, 9216, Note_on_c, 0, 61, 0
3, 9216, Note_on_c, 0, 73, 0
3, 9216, Note_on_c, 0, 59, 127
3, 9216, Note_on_c, 0, 62, 127
3, 9216, Note_on_c, 0, 71, 127
3, 9280, Note_on_c, 0, 59, 0
3, 9280, Note_on_c, 0, 71, 0
3, 9280, Note_on_c, 0, 58, 108
3, 9280, Note_on_c, 0, 70, 108
3, 9344, Note_on_c, 0, 58, 0
3, 9344, Note_on_c, 0, 70, 0
3, 9344, Note_on_c, 0, 59, 108
3, 9344, Note_on_c, 0, 71, 108
3, 9408, Note_on_c, 0, 59, 0
3, 9408, Note_on_c, 0, 71, 0
3, 9408, Note_on_c, 0, 58, 108
3, 9408, Note_on_c, 0, 70, 108
3, 9472, Note_on_c, 0, 58, 0
3, 9472, Note_on_c, 0, 70, 0
3, 9472, Note_on_c, 0, 57, 108
3, 9472, Note_on_c, 0, 69, 108
3, 9536, Note_on_c, 0, 57, 0
3, 9536, Note_on_c, 0, 69, 0
3, 9536, Note_on_c, 0, 56, 108
3, 9536, Note_on_c, 0, 68, 108
3, 9600, Note_on_c, 0, 56, 0
3, 9600, Note_on_c, 0, 62, 0
3, 9600, Note_on_c, 0, 68, 0
3, 9600, Note_on_c, 0, 57, 127
3, 9600, Note_on_c, 0, 62, 127
3, 9600, Note_on_c, 0, 69, 127
3, 9664, Note_on_c, 0, 57, 0
3, 9664, Note_on_c, 0, 69, 0
3, 9664, Note_on_c, 0, 56, 108
3, 9664, Note_on_c, 0, 68, 108
3, 9728, Note_on_c, 0, 56, 0
3, 9728, Note_on_c, 0, 68, 0
3, 9728, Note_on_c, 0, 57, 108
3, 9728, Note_on_c, 0, 69, 108
3, 9792, Note_on_c, 0, 57, 0
3, 9792, Note_on_c, 0, 69, 0
3, 9792, Note_on_c, 0, 56, 108
3, 9792, Note_on_c, 0, 68, 108
3, 9856, Note_on_c, 0, 56, 0
3, 9856, Note_on_c, 0, 68, 0
3, 9856, Note_on_c, 0, 55, 108
3, 9856, Note_on_c, 0, 67, 108
3, 9920, Note_on_c, 0, 55, 0
3, 9920, Note_on_c, 0, 67, 0
3, 9920, Note_on_c, 0, 54, 108
3, 9920, Note_on_c, 0, 66, 108
3, 9984, Note_on_c, 0, 54, 0
3, 9984, Note_on_c, 0, 62, 0
3, 9984, Note_on_c, 0, 66, 0
3, 9984, Note_on_c, 0, 55, 127
3, 9984, Note_on_c, 0, 59, 127
3, 9984, Note_on_c, 0, 67, 127
3, 10048, Note_on_c, 0, 55, 0
3, 10048, Note_on_c, 0, 67, 0
3, 10048, Note_on_c, 0, 54, 107
3, 10048, Note_on_c, 0, 66, 107
3, 10112, Note_on_c, 0, 54, 0
3, 10112, Note_on_c, 0, 66, 0
3, 10112, Note_on_c, 0, 55, 106
3, 10112, Note_on_c, 0, 67, 106
3, 10176, Note_on_c, 0, 55, 0
3, 10176, Note_on_c, 0, 59, 0
3, 10176, Note_on_c, 0, 67, 0
3, 10176, Note_on_c, 0, 54, 127
3, 10176, Note_on_c, 0, 59, 127
3, 10176, Note_on_c, 0, 66, 127
3, 10240, Note_on_c, 0, 54, 0
3, 10240, Note_on_c, 0, 66, 0
3, 10240, Note_on_c, 0, 53, 104
3, 10240, Note_on_c, 0, 65, 104
3, 10304, Note_on_c, 0, 53, 0
3, 10304, Note_on_c, 0, 65, 0
3, 10304, Note_on_c, 0, 52, 103
3, 10304, Note_on_c, 0, 64, 103
3, 10368, Note_on_c, 0, 52, 0
3, 10368, Note_on_c, 0, 59, 0
3, 10368, Note_on_c, 0, 64, 0
3, 10368, Note_on_c, 0, 51, 127
3, 10368, Note_on_c, 0, 54, 127
3, 10368, Note_on_c, 0, 63, 127
3, 10432, Note_on_c, 0, 51, 0
3, 10432, Note_on_c, 0, 63, 0
3, 10432, Note_on_c, 0, 50, 101
3, 10432, Note_on_c, 0, 62, 101
3, 10496, Note_on_c, 0, 50, 0
3, 10496, Note_on_c, 0, 62, 0
3, 10496, Note_on_c, 0, 49, 100
3, 10496, Note_on_c, 0, 61, 100
3, 10560, Note_on_c, 0, 49, 0
3, 10560, Note_on_c, 0, 54, 0
3, 10560, Note_on_c, 0, 61, 0
3, 10560, Note_on_c, 0, 47, 127
3, 10560, Note_on_c, 0, 54, 127
3, 10560, Note_on_c, 0, 59, 127
3, 10752, Note_on_c, 0, 47, 0
3, 10752, Note_on_c, 0, 54, 0
3, 10752, Note_on_c, 0, 59, 0
3, 10752, Note_on_c, 0, 47, 127
3, 10752, Note_on_c, 0, 55, 127
3, 10752, Note_on_c, 0, 59, 127
3, 10816, Note_on_c, 0, 47, 0
3, 10816, Note_on_c, 0, 59, 0
3, 10816, Note_on_c, 0, 46, 92
3, 10816, Note_on_c, 0, 58, 92
3, 10880, Note_on_c, 0, 46, 0
3, 10880, Note_on_c, 0, 58, 0
3, 10880, Note_on_c, 0, 47, 92
3, 10880, Note_on_c, 0, 59, 92
3, 10944, Note_on_c, 0, 47, 0
3, 10944, Note_on_c, 0, 59, 0
3, 10944, Note_on_c, 0, 49, 92
3, 10944, Note_on_c, 0, 61, 92
3, 11008, Note_on_c, 0, 49, 0
3, 11008, Note_on_c, 0, 61, 0
3, 11008, Note_on_c, 0, 50, 92
3, 11008, Note_on_c, 0, 62, 92
3, 11072, Note_on_c, 0, 50, 0
3, 11072, Note_on_c, 0, 62, 0
3, 11072, Note_on_c, 0, 52, 92
3, 11072, Note_on_c, 0, 64, 92
3, 11136, Note_on_c, 0, 52, 0
3, 11136, Note_on_c, 0, 55, 0
3, 11136, Note_on_c, 0, 64, 0
3, 11136, Note_on_c, 0, 50, 92
3, 11136, Note_on_c, 0, 54, 92
3, 11136, Note_on_c, 0, 62, 92
3, 11200, Note_on_c, 0, 50, 0
3, 11200, Note_on_c, 0, 62, 0
3, 11200, Note_on_c, 0, 49, 92
3, 11200, Note_on_c, 0, 61, 92
3, 11264, Note_on_c, 0, 49, 0
3, 11264, Note_on_c, 0, 61, 0
3, 11264, Note_on_c, 0, 47, 92
3, 11264, Note_on_c, 0, 59, 92
3, 11328, Note_on_c, 0, 47, 0
3, 11328, Note_on_c, 0, 54, 0
3, 11328, Note_on_c, 0, 59, 0
3, 11328, Note_on_c, 0, 46, 92
3, 11328, Note_on_c, 0, 58, 92
3, 11392, Note_on_c, 0, 46, 0
3, 11392, Note_on_c, 0, 58, 0
3, 11392, Note_on_c, 0, 47, 92
3, 11392, Note_on_c, 0, 59, 92
3, 11456, Note_on_c, 0, 47, 0
3, 11456, Note_on_c, 0, 59, 0
3, 11456, Note_on_c, 0, 49, 92
3, 11456, Note_on_c, 0, 61, 92
3, 11520, Note_on_c, 0, 49, 0
3, 11520, Note_on_c, 0, 61, 0
3, 11520, Note_on_c, 0, 47, 127
3, 11520, Note_on_c, 0, 55, 127
3, 11520, Note_on_c, 0, 59, 127
3, 11584, Note_on_c, 0, 47, 0
3, 11584, Note_on_c, 0, 59, 0
3, 11584, Note_on_c, 0, 46, 92
3, 11584, Note_on_c, 0, 58, 92
3, 11648, Note_on_c, 0, 46, 0
3, 11648, Note_on_c, 0, 58, 0
3, 11648, Note_on_c, 0, 47, 92
3, 11648, Note_on_c, 0, 59, 92
3, 11712, Note_on_c, 0, 47, 0
3, 11712, Note_on_c, 0, 59, 0
3, 11712, Note_on_c, 0, 49, 92
3, 11712, Note_on_c, 0, 61, 92
3, 11776, Note_on_c, 0, 49, 0
3, 11776, Note_on_c, 0, 61, 0
3, 11776, Note_on_c, 0, 50, 92
3, 11776, Note_on_c, 0, 62, 92
3, 11840, Note_on_c, 0, 50, 0
3, 11840, Note_on_c, 0, 62, 0
3, 11840, Note_on_c, 0, 52, 92
3, 11840, Note_on_c, 0, 64, 92
3, 11904, Note_on_c, 0, 52, 0
3, 11904, Note_on_c, 0, 55, 0
3, 11904, Note_on_c, 0, 64, 0
3, 11904, Note_on_c, 0, 50, 92
3, 11904, Note_on_c, 0, 54, 92
3, 11904, Note_on_c, 0, 62, 92
3, 11968, Note_on_c, 0, 50, 0
3, 11968, Note_on_c, 0, 62, 0
3, 11968, Note_on_c, 0, 49, 92
3, 11968, Note_on_c, 0, 61, 92
3, 12032, Note_on_c, 0, 49, 0
3, 12032, Note_on_c, 0, 61, 0
3, 12032, Note_on_c, 0, 47, 92
3, 12032, Note_on_c, 0, 59, 92
3, 12096, Note_on_c, 0, 47, 0
3, 12096, Note_on_c, 0, 54, 0
3, 12096, Note_on_c, 0, 59, 0
3, 12096, Note_on_c, 0, 46, 92
3, 12096, Note_on_c, 0, 58, 92
3, 12160, Note_on_c, 0, 46, 0
3, 12160, Note_on_c, 0, 58, 0
3, 12160, Note_on_c, 0, 47, 92
3, 12160, Note_on_c, 0, 59, 92
3, 12224, Note_on_c, 0, 47, 0
3, 12224, Note_on_c, 0, 59, 0
3, 12224, Note_on_c, 0, 49, 92
3, 12224, Note_on_c, 0, 61, 92
3, 12288, Note_on_c, 0, 49, 0
3, 12288, Note_on_c, 0, 61, 0
3, 12288, Note_on_c, 0, 47, 127
3, 12288, Note_on_c, 0, 53, 127
3, 12288, Note_on_c, 0, 55, 127
3, 12288, Note_on_c, 0, 59, 127
3, 12352, Note_on_c, 0, 47, 0
3, 12352, Note_on_c, 0, 59, 0
3, 12352, Note_on_c, 0, 46, 92
3, 12352, Note_on_c, 0, 58, 92
3, 12416, Note_on_c, 0, 46, 0
3, 12416, Note_on_c, 0, 58, 0
3, 12416, Note_on_c, 0, 47, 92
3, 12416, Note_on_c, 0, 59, 92
3, 12480, Note_on_c, 0, 47, 0
3, 12480, Note_on_c, 0, 59, 0
3, 12480, Note_on_c, 0, 48, 92
3, 12480, Note_on_c, 0, 60, 92
3, 12544, Note_on_c, 0, 48, 0
3, 12544, Note_on_c, 0, 60, 0
3, 12544, Note_on_c, 0, 49, 92
3, 12544, Note_on_c, 0, 61, 92
3, 12608, Note_on_c, 0, 49, 0
3, 12608, Note_on_c, 0, 61, 0
3, 12608, Note_on_c, 0, 50, 92
3, 12608, Note_on_c, 0, 62, 92
3, 12672, Note_on_c, 0, 50, 0
3, 12672, Note_on_c, 0, 53, 0
3, 12672, Note_on_c, 0, 55, 0
3, 12672, Note_on_c, 0, 62, 0
3, 12672, Note_on_c, 0, 49, 127
3, 12672, Note_on_c, 0, 53, 127
3, 12672, Note_on_c, 0, 55, 127
3, 12672, Note_on_c, 0, 61, 127
3, 12736, Note_on_c, 0, 49, 0
3, 12736, Note_on_c, 0, 61, 0
3, 12736, Note_on_c, 0, 48, 92
3, 12736, Note_on_c, 0, 60, 92
3, 12800, Note_on_c, 0, 48, 0
3, 12800, Note_on_c, 0, 60, 0
3, 12800, Note_on_c, 0, 47, 92
3, 12800, Note_on_c, 0, 59, 92
3, 12864, Note_on_c, 0, 47, 0
3, 12864, Note_on_c, 0, 53, 0
3, 12864, Note_on_c, 0, 55, 0
3, 12864, Note_on_c, 0, 59, 0
3, 12864, Note_on_c, 0, 46, 127
3, 12864, Note_on_c, 0, 53, 127
3, 12864, Note_on_c, 0, 55, 127
3, 12864, Note_on_c, 0, 58, 127
3, 12928, Note_on_c, 0, 46, 0
3, 12928, Note_on_c, 0, 58, 0
3, 12928, Note_on_c, 0, 47, 92
3, 12928, Note_on_c, 0, 59, 92
3, 12992, Note_on_c, 0, 47, 0
3, 12992, Note_on_c, 0, 59, 0
3, 12992, Note_on_c, 0, 49, 92
3, 12992, Note_on_c, 0, 61, 92
3, 13056, Note_on_c, 0, 49, 0
3, 13056, Note_on_c, 0, 53, 0
3, 13056, Note_on_c, 0, 55, 0
3, 13056, Note_on_c, 0, 61, 0
3, 13056, Note_on_c, 0, 47, 127
3, 13056, Note_on_c, 0, 53, 127
3, 13056, Note_on_c, 0, 55, 127
3, 13056, Note_on_c, 0, 59, 127
3, 13120, Note_on_c, 0, 47, 0
3, 13120, Note_on_c, 0, 59, 0
3, 13120, Note_on_c, 0, 46, 92
3, 13120, Note_on_c, 0, 58, 92
3, 13184, Note_on_c, 0, 46, 0
3, 13184, Note_on_c, 0, 58, 0
3, 13184, Note_on_c, 0, 47, 92
3, 13184, Note_on_c, 0, 59, 92
3, 13248, Note_on_c, 0, 47, 0
3, 13248, Note_on_c, 0, 53, 0
3, 13248, Note_on_c, 0, 55, 0
3, 13248, Note_on_c, 0, 59, 0
3, 13248, Note_on_c, 0, 48, 127
3, 13248, Note_on_c, 0, 53, 127
3, 13248, Note_on_c, 0, 55, 127
3, 13248, Note_on_c, 0, 60, 127
3, 13312, Note_on_c, 0, 48, 0
3, 13312, Note_on_c, 0, 53, 0
3, 13312, Note_on_c, 0, 55, 0
3, 13312, Note_on_c, 0, 60, 0
3, 13312, Note_on_c, 0, 49, 92
3, 13312, Note_on_c, 0, 61, 92
3, 13376, Note_on_c, 0, 49, 0
3, 13376, Note_on_c, 0, 61, 0
3, 13376, Note_on_c, 0, 50, 127
3, 13376, Note_on_c, 0, 53, 127
3, 13376, Note_on_c, 0, 55, 127
3, 13376, Note_on_c, 0, 62, 127
3, 13440, Note_on_c, 0, 50, 0
3, 13440, Note_on_c, 0, 53, 0
3, 13440, Note_on_c, 0, 55, 0
3, 13440, Note_on_c, 0, 62, 0
3, 13440, Note_on_c, 0, 49, 127
3, 13440, Note_on_c, 0, 53, 127
3, 13440, Note_on_c, 0, 55, 127
3, 13440, Note_on_c, 0, 61, 127
3, 13504, Note_on_c, 0, 49, 0
3, 13504, Note_on_c, 0, 61, 0
3, 13504, Note_on_c, 0, 48, 92
3, 13504, Note_on_c, 0, 60, 92
3, 13568, Note_on_c, 0, 48, 0
3, 13568, Note_on_c, 0, 60, 0
3, 13568, Note_on_c, 0, 47, 92
3, 13568, Note_on_c, 0, 59, 92
3, 13632, Note_on_c, 0, 47, 0
3, 13632, Note_on_c, 0, 53, 0
3, 13632, Note_on_c, 0, 55, 0
3, 13632, Note_on_c, 0, 59, 0
3, 13632, Note_on_c, 0, 46, 127
3, 13632, Note_on_c, 0, 58, 127
3, 13696, Note_on_c, 0, 46, 0
3, 13696, Note_on_c, 0, 58, 0
3, 13696, Note_on_c, 0, 47, 92
3, 13696, Note_on_c, 0, 59, 92
3, 13760, Note_on_c, 0, 47, 0
3, 13760, Note_on_c, 0, 59, 0
3, 13760, Note_on_c, 0, 43, 127
3, 13760, Note_on_c, 0, 47, 127
3, 13760, Note_on_c, 0, 49, 127
3, 13760, Note_on_c, 0, 55, 127
3, 13824, Note_on_c, 0, 43, 0
3, 13824, Note_on_c, 0, 47, 0
3, 13824, Note_on_c, 0, 49, 0
3, 13824, Note_on_c, 0, 55, 0
3, 13824, Note_on_c, 0, 42, 127
3, 13824, Note_on_c, 0, 47, 127
3, 13824, Note_on_c, 0, 49, 127
3, 13824, Note_on_c, 0, 54, 127
3, 13888, Note_on_c, 0, 42, 0
3, 13888, Note_on_c, 0, 54, 0
3, 13888, Note_on_c, 0, 41, 92
3, 13888, Note_on_c, 0, 53, 92
3, 13952, Note_on_c, 0, 41, 0
3, 13952, Note_on_c, 0, 53, 0
3, 13952, Note_on_c, 0, 42, 92
3, 13952, Note_on_c, 0, 54, 92
3, 14016, Note_on_c, 0, 42, 0
3, 14016, Note_on_c, 0, 54, 0
3, 14016, Note_on_c, 0, 43, 92
3, 14016, Note_on_c, 0, 55, 92
3, 14080, Note_on_c, 0, 43, 0
3, 14080, Note_on_c, 0, 55, 0
3, 14080, Note_on_c, 0, 42, 92
3, 14080, Note_on_c, 0, 54, 92
3, 14144, Note_on_c, 0, 42, 0
3, 14144, Note_on_c, 0, 54, 0
3, 14144, Note_on_c, 0, 41, 92
3, 14144, Note_on_c, 0, 53, 92
3, 14208, Note_on_c, 0, 41, 0
3, 14208, Note_on_c, 0, 47, 0
3, 14208, Note_on_c, 0, 49, 0
3, 14208, Note_on_c, 0, 53, 0
3, 14208, Note_on_c, 0, 42, 127
3, 14208, Note_on_c, 0, 47, 127
3, 14208, Note_on_c, 0, 49, 127
3, 14208, Note_on_c, 0, 54, 127
3, 14272, Note_on_c, 0, 42, 0
3, 14272, Note_on_c, 0, 54, 0
3, 14272, Note_on_c, 0, 43, 92
3, 14272, Note_on_c, 0, 55, 92
3, 14336, Note_on_c, 0, 43, 0
3, 14336, Note_on_c, 0, 55, 0
3, 14336, Note_on_c, 0, 42, 92
3, 14336, Note_on_c, 0, 54, 92
3, 14400, Note_on_c, 0, 42, 0
3, 14400, Note_on_c, 0, 47, 0
3, 14400, Note_on_c, 0, 49, 0
3, 14400, Note_on_c, 0, 54, 0
3, 14400, Note_on_c, 0, 41, 92
3, 14400, Note_on_c, 0, 47, 92
3, 14400, Note_on_c, 0, 49, 92
3, 14400, Note_on_c, 0, 53, 92
3, 14464, Note_on_c, 0, 41, 0
3, 14464, Note_on_c, 0, 53, 0
3, 14464, Note_on_c, 0, 42, 92
3, 14464, Note_on_c, 0, 54, 92
3, 14528, Note_on_c, 0, 42, 0
3, 14528, Note_on_c, 0, 54, 0
3, 14528, Note_on_c, 0, 43, 92
3, 14528, Note_on_c, 0, 55, 92
3, 14592, Note_on_c, 0, 43, 0
3, 14592, Note_on_c, 0, 47, 0
3, 14592, Note_on_c, 0, 49, 0
3, 14592, Note_on_c, 0, 55, 0
3, 14592, Note_on_c, 0, 42, 127
3, 14592, Note_on_c, 0, 54, 127
3, 14656, Note_on_c, 0, 42, 0
3, 14656, Note_on_c, 0, 54, 0
3, 14656, Note_on_c, 0, 47, 92
3, 14656, Note_on_c, 0, 59, 92
3, 14720, Note_on_c, 0, 47, 0
3, 14720, Note_on_c, 0, 59, 0
3, 14720, Note_on_c, 0, 46, 92
3, 14720, Note_on_c, 0, 58, 92
3, 14784, Note_on_c, 0, 46, 0
3, 14784, Note_on_c, 0, 58, 0
3, 14784, Note_on_c, 0, 45, 92
3, 14784, Note_on_c, 0, 57, 92
3, 14848, Note_on_c, 0, 45, 0
3, 14848, Note_on_c, 0, 57, 0
3, 14848, Note_on_c, 0, 46, 93
3, 14848, Note_on_c, 0, 58, 93
3, 14912, Note_on_c, 0, 46, 0
3, 14912, Note_on_c, 0, 58, 0
3, 14912, Note_on_c, 0, 47, 94
3, 14912, Note_on_c, 0, 59, 94
3, 14976, Note_on_c, 0, 47, 0
3, 14976, Note_on_c, 0, 59, 0
3, 14976, Note_on_c, 0, 48, 96
3, 14976, Note_on_c, 0, 60, 96
3, 15040, Note_on_c, 0, 48, 0
3, 15040, Note_on_c, 0, 60, 0
3, 15040, Note_on_c, 0, 49, 98
3, 15040, Note_on_c, 0, 61, 98
3, 15104, Note_on_c, 0, 49, 0
3, 15104, Note_on_c, 0, 61, 0
3, 15104, Note_on_c, 0, 50, 100
3, 15104, Note_on_c, 0, 62, 100
3, 15168, Note_on_c, 0, 50, 0
3, 15168, Note_on_c, 0, 62, 0
3, 15168, Note_on_c, 0, 51, 102
3, 15168, Note_on_c, 0, 63, 102
3, 15232, Note_on_c, 0, 51, 0
3, 15232, Note_on_c, 0, 63, 0
3, 15232, Note_on_c, 0, 52, 104
3, 15232, Note_on_c, 0, 64, 104
3, 15296, Note_on_c, 0, 52, 0
3, 15296, Note_on_c, 0, 64, 0
3, 15296, Note_on_c, 0, 51, 106
3, 15296, Note_on_c, 0, 63, 106
3, 15360, Note_on_c, 0, 51, 0
3, 15360, Note_on_c, 0, 63, 0
3, 15360, Note_on_c, 0, 52, 108
3, 15360, Note_on_c, 0, 64, 108
3, 15424, Note_on_c, 0, 52, 0
3, 15424, Note_on_c, 0, 64, 0
3, 15424, Note_on_c, 0, 51, 108
3, 15424, Note_on_c, 0, 63, 108
3, 15488, Note_on_c, 0, 51, 0
3, 15488, Note_on_c, 0, 63, 0
3, 15488, Note_on_c, 0, 50, 127
3, 15488, Note_on_c, 0, 62, 127
3, 15552, Note_on_c, 0, 50, 0
3, 15552, Note_on_c, 0, 62, 0
3, 15552, Note_on_c, 0, 51, 108
3, 15552, Note_on_c, 0, 63, 108
3, 15616, Note_on_c, 0, 51, 0
3, 15616, Note_on_c, 0, 63, 0
3, 15616, Note_on_c, 0, 50, 108
3, 15616, Note_on_c, 0, 62, 108
3, 15680, Note_on_c, 0, 50, 0
3, 15680, Note_on_c, 0, 62, 0
3, 15680, Note_on_c, 0, 49, 127
3, 15680, Note_on_c, 0, 61, 127
3, 15744, Note_on_c, 0, 49, 0
3, 15744, Note_on_c, 0, 61, 0
3, 15744, Note_on_c, 0, 50, 108
3, 15744, Note_on_c, 0, 62, 108
3, 15808, Note_on_c, 0, 50, 0
3, 15808, Note_on_c, 0, 62, 0
3, 15808, Note_on_c, 0, 49, 108
3, 15808, Note_on_c, 0, 61, 108
3, 15872, Note_on_c, 0, 49, 0
3, 15872, Note_on_c, 0, 61, 0
3, 15872, Note_on_c, 0, 48, 127
3, 15872, Note_on_c, 0, 60, 127
3, 15936, Note_on_c, 0, 48, 0
3, 15936, Note_on_c, 0, 60, 0
3, 15936, Note_on_c, 0, 49, 108
3, 15936, Note_on_c, 0, 61, 108
3, 16000, Note_on_c, 0, 49, 0
3, 16000, Note_on_c, 0, 61, 0
3, 16000, Note_on_c, 0, 48, 108
3, 16000, Note_on_c, 0, 60, 108
3, 16064, Note_on_c, 0, 48, 0
3, 16064, Note_on_c, 0, 60, 0
3, 16064, Note_on_c, 0, 47, 127
3, 16064, Note_on_c, 0, 59, 127
3, 16128, Note_on_c, 0, 47, 0
3, 16128, Note_on_c, 0, 59, 0
3, 16128, Note_on_c, 0, 48, 108
3, 16128, Note_on_c, 0, 60, 108
3, 16192, Note_on_c, 0, 48, 0
3, 16192, Note_on_c, 0, 60, 0
3, 16192, Note_on_c, 0, 47, 109
3, 16192, Note_on_c, 0, 59, 109
3, 16256, Note_on_c, 0, 47, 0
3, 16256, Note_on_c, 0, 59, 0
3, 16256, Note_on_c, 0, 46, 110
3, 16256, Note_on_c, 0, 58, 110
3, 16320, Note_on_c, 0, 46, 0
3, 16320, Note_on_c, 0, 58, 0
3, 16320, Note_on_c, 0, 45, 111
3, 16320, Note_on_c, 0, 57, 111
3, 16384, Note_on_c, 0, 45, 0
3, 16384, Note_on_c, 0, 57, 0
3, 16384, Note_on_c, 0, 44, 112
3, 16384, Note_on_c, 0, 56, 112
3, 16448, Note_on_c, 0, 44, 0
3, 16448, Note_on_c, 0, 56, 0
3, 16448, Note_on_c, 0, 43, 113
3, 16448, Note_on_c, 0, 55, 113
3, 16512, Note_on_c, 0, 43, 0
3, 16512, Note_on_c, 0, 55, 0
3, 16512, Note_on_c, 0, 42, 115
3, 16512, Note_on_c, 0, 54, 115
3, 16576, Note_on_c, 0, 42, 0
3, 16576, Note_on_c, 0, 54, 0
3, 16576, Note_on_c, 0, 41, 117
3, 16576, Note_on_c, 0, 53, 117
3, 16640, Note_on_c, 0, 41, 0
3, 16640, Note_on_c, 0, 53, 0
3, 16640, Note_on_c, 0, 40, 119
3, 16640, Note_on_c, 0, 52, 119
3, 16704, Note_on_c, 0, 40, 0
3, 16704, Note_on_c, 0, 52, 0
3, 16704, Note_on_c, 0, 39, 121
3, 16704, Note_on_c, 0, 51, 121
3, 16768, Note_on_c, 0, 39, 0
3, 16768, Note_on_c, 0, 51, 0
3, 16768, Note_on_c, 0, 38, 123
3, 16768, Note_on_c, 0, 50, 123
3, 16832, Note_on_c, 0, 38, 0
3, 16832, Note_on_c, 0, 50, 0
3, 16832, Note_on_c, 0, 37, 125
3, 16832, Note_on_c, 0, 49, 125
3, 16896, Note_on_c, 0, 37, 0
3, 16896, Note_on_c, 0, 49, 0
3, 16896, Note_on_c, 0, 35, 127
3, 16896, Note_on_c, 0, 41, 127
3, 16896, Note_on_c, 0, 44, 127
3, 16896, Note_on_c, 0, 47, 127
3, 16992, Note_on_c, 0, 35, 0
3, 16992, Note_on_c, 0, 41, 0
3, 16992, Note_on_c, 0, 44, 0
3, 16992, Note_on_c, 0, 47, 0
3, 16992, Note_on_c, 0, 68, 127
3, 16992, Note_on_c, 0, 80, 127
3, 17040, Note_on_c, 0, 68, 0
3, 17040, Note_on_c, 0, 80, 0
3, 17040, Note_on_c, 0, 67, 127
3, 17040, Note_on_c, 0, 79, 127
3, 17088, Note_on_c, 0, 67, 0
3, 17088, Note_on_c, 0, 79, 0
3, 17088, Note_on_c, 0, 66, 127
3, 17088, Note_on_c, 0, 78, 127
3, 17152, Note_on_c, 0, 66, 0
3, 17152, Note_on_c, 0, 78, 0
3, 17152, Note_on_c, 0, 65, 127
3, 17152, Note_on_c, 0, 77, 127
3, 17216, Note_on_c, 0, 65, 0
3, 17216, Note_on_c, 0, 77, 0
3, 17216, Note_on_c, 0, 68, 127
3, 17216, Note_on_c, 0, 80, 127
3, 17280, Note_on_c, 0, 68, 0
3, 17280, Note_on_c, 0, 80, 0
3, 17280, Note_on_c, 0, 65, 127
3, 17280, Note_on_c, 0, 77, 127
3, 17344, Note_on_c, 0, 65, 0
3, 17344, Note_on_c, 0, 77, 0
3, 17344, Note_on_c, 0, 62, 127
3, 17344, Note_on_c, 0, 74, 127
3, 17408, Note_on_c, 0, 62, 0
3, 17408, Note_on_c, 0, 74, 0
3, 17408, Note_on_c, 0, 61, 127
3, 17408, Note_on_c, 0, 73, 127
3, 17472, Note_on_c, 0, 61, 0
3, 17472, Note_on_c, 0, 73, 0
3, 17472, Note_on_c, 0, 60, 127
3, 17472, Note_on_c, 0, 72, 127
3, 17536, Note_on_c, 0, 60, 0
3, 17536, Note_on_c, 0, 72, 0
3, 17536, Note_on_c, 0, 59, 127
3, 17536, Note_on_c, 0, 71, 127
3, 17600, Note_on_c, 0, 59, 0
3, 17600, Note_on_c, 0, 71, 0
3, 17600, Note_on_c, 0, 62, 127
3, 17600, Note_on_c, 0, 74, 127
3, 17664, Note_on_c, 0, 62, 0
3, 17664, Note_on_c, 0, 74, 0
3, 17664, Note_on_c, 0, 59, 127
3, 17664, Note_on_c, 0, 71, 127
3, 17728, Note_on_c, 0, 59, 0
3, 17728, Note_on_c, 0, 71, 0
3, 17728, Note_on_c, 0, 56, 125
3, 17728, Note_on_c, 0, 68, 125
3, 17792, Note_on_c, 0, 56, 0
3, 17792, Note_on_c, 0, 68, 0
3, 17792, Note_on_c, 0, 55, 122
3, 17792, Note_on_c, 0, 67, 122
3, 17856, Note_on_c, 0, 55, 0
3, 17856, Note_on_c, 0, 67, 0
3, 17856, Note_on_c, 0, 54, 119
3, 17856, Note_on_c, 0, 66, 119
3, 17920, Note_on_c, 0, 54, 0
3, 17920, Note_on_c, 0, 66, 0
3, 17920, Note_on_c, 0, 53, 116
3, 17920, Note_on_c, 0, 65, 116
3, 17984, Note_on_c, 0, 53, 0
3, 17984, Note_on_c, 0, 65, 0
3, 17984, Note_on_c, 0, 56, 113
3, 17984, Note_on_c, 0, 68, 113
3, 18048, Note_on_c, 0, 56, 0
3, 18048, Note_on_c, 0, 68, 0
3, 18048, Note_on_c, 0, 48, 110
3, 18048, Note_on_c, 0, 60, 110
3, 18112, Note_on_c, 0, 48, 0
3, 18112, Note_on_c, 0, 60, 0
3, 18112, Note_on_c, 0, 47, 107
3, 18112, Note_on_c, 0, 59, 107
3, 18176, Note_on_c, 0, 47, 0
3, 18176, Note_on_c, 0, 59, 0
3, 18176, Note_on_c, 0, 50, 104
3, 18176, Note_on_c, 0, 62, 104
3, 18240, Note_on_c, 0, 50, 0
3, 18240, Note_on_c, 0, 62, 0
3, 18240, Note_on_c, 0, 43, 101
3, 18240, Note_on_c, 0, 55, 101
3, 18304, Note_on_c, 0, 43, 0
3, 18304, Note_on_c, 0, 55, 0
3, 18304, Note_on_c, 0, 41, 98
3, 18304, Note_on_c, 0, 53, 98
3, 18368, Note_on_c, 0, 41, 0
3, 18368, Note_on_c, 0, 53, 0
3, 18368, Note_on_c, 0, 44, 95
3, 18368, Note_on_c, 0, 56, 95
3, 18432, Note_on_c, 0, 44, 0
3, 18432, Note_on_c, 0, 56, 0
3, 18432, Note_on_c, 0, 30, 92
3, 18432, Note_on_c, 0, 42, 92
3, 18560, Note_on_c, 0, 30, 0
3, 18560, Note_on_c, 0, 42, 0
3, 18560, Note_on_c, 0, 34, 92
3, 18560, Note_on_c, 0, 46, 92
3, 18624, Note_on_c, 0, 34, 0
3, 18624, Note_on_c, 0, 46, 0
3, 18624, Note_on_c, 0, 37, 92
3, 18624, Note_on_c, 0, 49, 92
3, 18688, Note_on_c, 0, 37, 0
3, 18688, Note_on_c, 0, 49, 0
3, 18688, Note_on_c, 0, 34, 92
3, 18688, Note_on_c, 0, 46, 92
3, 18752, Note_on_c, 0, 34, 0
3, 18752, Note_on_c, 0, 46, 0
3, 18752, Note_on_c, 0, 38, 92
3, 18752, Note_on_c, 0, 50, 92
3, 18816, Note_on_c, 0, 38, 0
3, 18816, Note_on_c, 0, 50, 0
3, 18816, Note_on_c, 0, 34, 92
3, 18816, Note_on_c, 0, 46, 92
3, 18880, Note_on_c, 0, 34, 0
3, 18880, Note_on_c, 0, 46, 0
3, 18880, Note_on_c, 0, 35, 92
3, 18880, Note_on_c, 0, 47, 92
3, 18944, Note_on_c, 0, 35, 0
3, 18944, Note_on_c, 0, 47, 0
3, 18944, Note_on_c, 0, 40, 92
3, 18944, Note_on_c, 0, 52, 92
3, 19008, Note_on_c, 0, 40, 0
3, 19008, Note_on_c, 0, 52, 0
3, 19008, Note_on_c, 0, 37, 92
3, 19008, Note_on_c, 0, 49, 92
3, 19072, Note_on_c, 0, 37, 0
3, 19072, Note_on_c, 0, 49, 0
3, 19072, Note_on_c, 0, 38, 92
3, 19072, Note_on_c, 0, 50, 92
3, 19136, Note_on_c, 0, 38, 0
3, 19136, Note_on_c, 0, 50, 0
3, 19136, Note_on_c, 0, 43, 92
3, 19136, Note_on_c, 0, 55, 92
3, 19200, Note_on_c, 0, 43, 0
3, 19200, Note_on_c, 0, 55, 0
3, 19200, Note_on_c, 0, 41, 92
3, 19200, Note_on_c, 0, 53, 92
3, 19264, Note_on_c, 0, 41, 0
3, 19264, Note_on_c, 0, 53, 0
3, 19264, Note_on_c, 0, 42, 92
3, 19264, Note_on_c, 0, 54, 92
3, 19328, Note_on_c, 0, 42, 0
3, 19328, Note_on_c, 0, 54, 0
3, 19328, Note_on_c, 0, 46, 92
3, 19328, Note_on_c, 0, 58, 92
3, 19392, Note_on_c, 0, 46, 0
3, 19392, Note_on_c, 0, 58, 0
3, 19392, Note_on_c, 0, 49, 93
3, 19392, Note_on_c, 0, 61, 93
3, 19456, Note_on_c, 0, 49, 0
3, 19456, Note_on_c, 0, 61, 0
3, 19456, Note_on_c, 0, 46, 94
3, 19456, Note_on_c, 0, 58, 94
3, 19520, Note_on_c, 0, 46, 0
3, 19520, Note_on_c, 0, 58, 0
3, 19520, Note_on_c, 0, 50, 95
3, 19520, Note_on_c, 0, 62, 95
3, 19584, Note_on_c, 0, 50, 0
3, 19584, Note_on_c, 0, 62, 0
3, 19584, Note_on_c, 0, 46, 96
3, 19584, Note_on_c, 0, 58, 96
3, 19648, Note_on_c, 0, 46, 0
3, 19648, Note_on_c, 0, 58, 0
3, 19648, Note_on_c, 0, 47, 97
3, 19648, Note_on_c, 0, 59, 97
3, 19712, Note_on_c, 0, 47, 0
3, 19712, Note_on_c, 0, 59, 0
3, 19712, Note_on_c, 0, 52, 98
3, 19712, Note_on_c, 0, 64, 98
3, 19776, Note_on_c, 0, 52, 0
3, 19776, Note_on_c, 0, 64, 0
3, 19776, Note_on_c, 0, 49, 99
3, 19776, Note_on_c, 0, 61, 99
3, 19840, Note_on_c, 0, 49, 0
3, 19840, Note_on_c, 0, 61, 0
3, 19840, Note_on_c, 0, 50, 100
3, 19840, Note_on_c, 0, 62, 100
3, 19904, Note_on_c, 0, 50, 0
3, 19904, Note_on_c, 0, 62, 0
3, 19904, Note_on_c, 0, 55, 101
3, 19904, Note_on_c, 0, 67, 101
3, 19968, Note_on_c, 0, 55, 0
3, 19968, Note_on_c, 0, 67, 0
3, 19968, Note_on_c, 0, 53, 102
3, 19968, Note_on_c, 0, 65, 102
3, 20032, Note_on_c, 0, 53, 0
3, 20032, Note_on_c, 0, 65, 0
3, 20032, Note_on_c, 0, 54, 103
3, 20032, Note_on_c, 0, 66, 103
3, 20096, Note_on_c, 0, 54, 0
3, 20096, Note_on_c, 0, 66, 0
3, 20096, Note_on_c, 0, 58, 104
3, 20096, Note_on_c, 0, 70, 104
3, 20160, Note_on_c, 0, 58, 0
3, 20160, Note_on_c, 0, 70, 0
3, 20160, Note_on_c, 0, 61, 105
3, 20160, Note_on_c, 0, 73, 105
3, 20224, Note_on_c, 0, 61, 0
3, 20224, Note_on_c, 0, 73, 0
3, 20224, Note_on_c, 0, 58, 106
3, 20224, Note_on_c, 0, 70, 106
3, 20288, Note_on_c, 0, 58, 0
3, 20288, Note_on_c, 0, 70, 0
3, 20288, Note_on_c, 0, 62, 107
3, 20288, Note_on_c, 0, 74, 107
3, 20352, Note_on_c, 0, 62, 0
3, 20352, Note_on_c, 0, 74, 0
3, 20352, Note_on_c, 0, 29, 127
3, 20352, Note_on_c, 0, 41, 127
3, 20736, Note_on_c, 0, 29, 0
3, 20736, Note_on_c, 0, 41, 0
3, 20736, Note_on_c, 0, 28, 108
3, 20736, Note_on_c, 0, 40, 108
3, 20800, Note_on_c, 0, 28, 0
3, 20800, Note_on_c, 0, 40, 0
3, 20800, Note_on_c, 0, 29, 108
3, 20800, Note_on_c, 0, 41, 108
3, 20864, Note_on_c, 0, 29, 0
3, 20864, Note_on_c, 0, 41, 0
3, 20864, Note_on_c, 0, 30, 108
3, 20864, Note_on_c, 0, 42, 108
3, 20928, Note_on_c, 0, 30, 0
3, 20928, Note_on_c, 0, 42, 0
3, 20928, Note_on_c, 0, 34, 108
3, 20928, Note_on_c, 0, 46, 108
3, 21024, Note_on_c, 0, 34, 0
3, 21024, Note_on_c, 0, 46, 0
3, 21504, Note_on_c, 0, 64, 60
3, 22272, Note_on_c, 0, 64, 0
3, 22272, Note_on_c, 0, 66, 60
3, 22464, Note_on_c, 0, 66, 0
3, 22464, Note_on_c, 0, 61, 60
3, 22656, Note_on_c, 0, 61, 0
3, 22656, Note_on_c, 0, 47, 45
3, 22656, Note_on_c, 0, 54, 45
3, 23040, Note_on_c, 0, 47, 0
3, 23040, Note_on_c, 0, 54, 0
3, 23040, Control_c, 0, 64, 127
3, 23040, Note_on_c, 0, 40, 45
3, 23040, Note_on_c, 0, 56, 45
3, 23232, Note_on_c, 0, 40, 0
3, 23232, Note_on_c, 0, 56, 0
3, 23232, Control_c, 0, 64, 0
3, 23232, Control_c, 0, 64, 127
3, 23232, Note_on_c, 0, 42, 45
3, 23232, Note_on_c, 0, 52, 45
3, 23232, Note_on_c, 0, 58, 45
3, 23424, Note_on_c, 0, 42, 0
3, 23424, Note_on_c, 0, 52, 0
3, 23424, Note_on_c, 0, 58, 0
3, 23424, Note_on_c, 0, 54, 45
3, 23616, Control_c, 0, 64, 0
3, 23616, Note_on_c, 0, 47, 45
3, 23808, Note_on_c, 0, 47, 0
3, 23808, Note_on_c, 0, 54, 0
3, 24000, Note_on_c, 0, 51, 45
3, 24000, Note_on_c, 0, 59, 45
3, 24192, Note_on_c, 0, 51, 0
3, 24192, Note_on_c, 0, 52, 45
3, 24192, Note_on_c, 0, 61, 45
3, 24384, Note_on_c, 0, 52, 0
3, 24384, Note_on_c, 0, 59, 0
3, 24384, Note_on_c, 0, 61, 0
3, 24576, Control_c, 0, 64, 127
3, 24576, Note_on_c, 0, 42, 45
3, 24576, Note_on_c, 0, 52, 45
3, 24576, Note_on_c, 0, 58, 45
3, 24768, Note_on_c, 0, 42, 0
3, 24768, Note_on_c, 0, 52, 0
3, 24768, Note_on_c, 0, 58, 0
3, 24768, Note_on_c, 0, 47, 45
3, 24768, Note_on_c, 0, 51, 45
3, 24768, Note_on_c, 0, 59, 45
3, 24960, Note_on_c, 0, 47, 0
3, 24960, Note_on_c, 0, 51, 0
3, 24960, Note_on_c, 0, 59, 0
3, 24960, Control_c, 0, 64, 0
3, 24960, Note_on_c, 0, 44, 45
3, 24960, Note_on_c, 0, 53, 45
3, 24960, Note_on_c, 0, 59, 45
3, 25152, Note_on_c, 0, 44, 0
3, 25152, Note_on_c, 0, 53, 0
3, 25152, Note_on_c, 0, 59, 0
3, 25152, Control_c, 0, 64, 127
3, 25152, Note_on_c, 0, 37, 50
3, 25344, Note_on_c, 0, 37, 0
3, 25344, Note_on_c, 0, 59, 55
3, 25344, Note_on_c, 0, 65, 55
3, 25536, Note_on_c, 0, 59, 0
3, 25536, Note_on_c, 0, 65, 0
3, 25536, Control_c, 0, 64, 0
3, 25536, Note_on_c, 0, 54, 60
3, 25536, Note_on_c, 0, 58, 60
3, 25536, Note_on_c, 0, 66, 60
3, 25728, Note_on_c, 0, 54, 0
3, 25728, Note_on_c, 0, 58, 0
3, 25728, Note_on_c, 0, 66, 0
3, 25728, Note_on_c, 0, 46, 60
3, 25728, Note_on_c, 0, 54, 60
3, 25728, Note_on_c, 0, 61, 60
3, 25920, Note_on_c, 0, 46, 0
3, 25920, Note_on_c, 0, 54, 0
3, 25920, Note_on_c, 0, 61, 0
3, 25920, Note_on_c, 0, 47, 53
3, 25920, Note_on_c, 0, 54, 53
3, 25920, Note_on_c, 0, 63, 53
3, 26112, Note_on_c, 0, 47, 0
3, 26112, Note_on_c, 0, 54, 0
3, 26112, Note_on_c, 0, 63, 0
3, 26304, Note_on_c, 0, 59, 45
3, 26496, Note_on_c, 0, 59, 0
3, 26496, Note_on_c, 0, 49, 45
3, 26496, Note_on_c, 0, 58, 45
3, 26688, Note_on_c, 0, 49, 0
3, 26688, Note_on_c, 0, 58, 0
3, 26688, Note_on_c, 0, 49, 45
3, 26688, Note_on_c, 0, 53, 45
3, 26880, Note_on_c, 0, 49, 0
3, 26880, Note_on_c, 0, 53, 0
3, 26880, Note_on_c, 0, 42, 63
3, 26880, Note_on_c, 0, 49, 63
3, 27072, Note_on_c, 0, 54, 45
3, 27264, Note_on_c, 0, 42, 0
3, 27264, Note_on_c, 0, 49, 0
3, 27264, Note_on_c, 0, 47, 45
3, 27456, Note_on_c, 0, 47, 0
3, 27456, Note_on_c, 0, 54, 0
3, 27648, Control_c, 0, 64, 127
3, 27648, Note_on_c, 0, 40, 45
3, 27648, Note_on_c, 0, 56, 45
3, 27840, Note_on_c, 0, 40, 0
3, 27840, Note_on_c, 0, 56, 0
3, 27840, Control_c, 0, 64, 0
3, 27840, Control_c, 0, 64, 127
3, 27840, Note_on_c, 0, 42, 45
3, 27840, Note_on_c, 0, 52, 45
3, 27840, Note_on_c, 0, 58, 45
3, 28032, Note_on_c, 0, 42, 0
3, 28032, Note_on_c, 0, 52, 0
3, 28032, Note_on_c, 0, 58, 0
3, 28032, Note_on_c, 0, 54, 45
3, 28224, Control_c, 0, 64, 0
3, 28224, Note_on_c, 0, 47, 45
3, 28416, Note_on_c, 0, 47, 0
3, 28416, Note_on_c, 0, 54, 0
3, 28608, Note_on_c, 0, 51, 45
3, 28608, Note_on_c, 0, 59, 45
3, 28800, Note_on_c, 0, 51, 0
3, 28800, Note_on_c, 0, 52, 45
3, 28800, Note_on_c, 0, 61, 45
3, 28992, Note_on_c, 0, 52, 0
3, 28992, Note_on_c, 0, 59, 0
3, 28992, Note_on_c, 0, 61, 0
3, 29184, Control_c, 0, 64, 127
3, 29184, Note_on_c, 0, 42, 45
3, 29184, Note_on_c, 0, 52, 45
3, 29184, Note_on_c, 0, 58, 45
3, 29376, Note_on_c, 0, 42, 0
3, 29376, Note_on_c, 0, 52, 0
3, 29376, Note_on_c, 0, 58, 0
3, 29376, Note_on_c, 0, 47, 45
3, 29376, Note_on_c, 0, 51, 45
3, 29376, Note_on_c, 0, 59, 45
3, 29568, Note_on_c, 0, 47, 0
3, 29568, Note_on_c, 0, 51, 0
3, 29568, Note_on_c, 0, 59, 0
3, 29568, Control_c, 0, 64, 0
3, 29568, Note_on_c, 0, 48, 45
3, 29568, Note_on_c, 0, 54, 45
3, 29568, Note_on_c, 0, 57, 45
3, 29760, Note_on_c, 0, 54, 0
3, 29760, Note_on_c, 0, 57, 0
3, 29760, Note_on_c, 0, 56, 46
3, 29952, Note_on_c, 0, 48, 0
3, 29952, Note_on_c, 0, 56, 0
3, 29952, Note_on_c, 0, 49, 47
3, 30144, Note_on_c, 0, 49, 0
3, 30144, Note_on_c, 0, 51, 48
3, 30144, Note_on_c, 0, 57, 48
3, 30144, Note_on_c, 0, 60, 48
3, 30336, Note_on_c, 0, 57, 0
3, 30336, Note_on_c, 0, 60, 0
3, 30336, Note_on_c, 0, 59, 49
3, 30528, Note_on_c, 0, 51, 0
3, 30528, Note_on_c, 0, 59, 0
3, 30528, Note_on_c, 0, 52, 50
3, 30720, Note_on_c, 0, 52, 0
3, 30720, Note_on_c, 0, 53, 51
3, 30720, Note_on_c, 0, 59, 51
3, 30720, Note_on_c, 0, 62, 51
3, 30912, Note_on_c, 0, 59, 0
3, 30912, Note_on_c, 0, 62, 0
3, 30912, Note_on_c, 0, 61, 52
3, 31008, Note_on_c, 0, 61, 0
3, 31008, Note_on_c, 0, 59, 53
3, 31104, Note_on_c, 0, 59, 0
3, 31104, Note_on_c, 0, 62, 54
3, 31248, Note_on_c, 0, 62, 0
3, 31248, Note_on_c, 0, 61, 55
3, 31296, Note_on_c, 0, 61, 0
3, 31296, Note_on_c, 0, 61, 55
3, 31392, Note_on_c, 0, 61, 0
3, 31392, Note_on_c, 0, 59, 56
3, 31488, Note_on_c, 0, 59, 0
3, 31488, Note_on_c, 0, 58, 57
3, 31584, Note_on_c, 0, 58, 0
3, 31584, Note_on_c, 0, 59, 58
3, 31680, Note_on_c, 0, 59, 0
3, 31680, Note_on_c, 0, 62, 60
3, 31824, Note_on_c, 0, 53, 0
3, 31824, Note_on_c, 0, 62, 0
3, 31872, Note_on_c, 0, 64, 60
3, 31872, Note_on_c, 0, 67, 60
3, 32064, Note_on_c, 0, 64, 0
3, 32064, Note_on_c, 0, 67, 0
3, 32064, Note_on_c, 0, 63, 57
3, 32064, Note_on_c, 0, 66, 57
3, 32160, Note_on_c, 0, 63, 0
3, 32160, Note_on_c, 0, 66, 0
3, 32160, Note_on_c, 0, 62, 56
3, 32160, Note_on_c, 0, 65, 56
3, 32256, Note_on_c, 0, 62, 0
3, 32256, Note_on_c, 0, 65, 0
3, 32256, Note_on_c, 0, 63, 55
3, 32256, Note_on_c, 0, 66, 55
3, 32352, Note_on_c, 0, 63, 0
3, 32352, Note_on_c, 0, 66, 0
3, 32352, Note_on_c, 0, 59, 54
3, 32352, Note_on_c, 0, 62, 54
3, 32448, Note_on_c, 0, 59, 0
3, 32448, Note_on_c, 0, 62, 0
3, 32448, Note_on_c, 0, 61, 53
3, 32448, Note_on_c, 0, 64, 53
3, 32640, Note_on_c, 0, 61, 0
3, 32640, Note_on_c, 0, 64, 0
3, 32640, Note_on_c, 0, 58, 50
3, 32640, Note_on_c, 0, 61, 50
3, 32736, Note_on_c, 0, 58, 0
3, 32736, Note_on_c, 0, 61, 0
3, 32736, Note_on_c, 0, 57, 49
3, 32736, Note_on_c, 0, 60, 49
3, 32832, Note_on_c, 0, 57, 0
3, 32832, Note_on_c, 0, 60, 0
3, 32832, Note_on_c, 0, 58, 48
3, 32832, Note_on_c, 0, 61, 48
3, 32928, Note_on_c, 0, 58, 0
3, 32928, Note_on_c, 0, 61, 0
3, 32928, Note_on_c, 0, 54, 47
3, 32928, Note_on_c, 0, 57, 47
3, 33024, Note_on_c, 0, 54, 0
3, 33024, Note_on_c, 0, 57, 0
3, 33024, Note_on_c, 0, 48, 46
3, 33024, Note_on_c, 0, 56, 46
3, 33024, Note_on_c, 0, 63, 46
3, 33216, Note_on_c, 0, 48, 0
3, 33216, Note_on_c, 0, 63, 0
3, 33216, Note_on_c, 0, 49, 42
3, 33216, Note_on_c, 0, 61, 42
3, 33408, Note_on_c, 0, 49, 0
3, 33408, Note_on_c, 0, 56, 0
3, 33408, Note_on_c, 0, 61, 0
3, 33408, Note_on_c, 0, 52, 38
3, 33408, Note_on_c, 0, 55, 38
3, 33600, Note_on_c, 0, 52, 0
3, 33600, Note_on_c, 0, 55, 0
3, 33600, Note_on_c, 0, 42, 34
3, 33600, Note_on_c, 0, 54, 34
3, 33792, Note_on_c, 0, 42, 0
3, 33792, Note_on_c, 0, 47, 30
3, 33888, Note_on_c, 0, 47, 0
3, 34176, Note_on_c, 0, 45, 45
3, 34560, Note_on_c, 0, 45, 0
3, 34560, Note_on_c, 0, 54, 0
3, 34560, Note_on_c, 0, 42, 45
3, 34560, Note_on_c, 0, 57, 45
3, 34752, Note_on_c, 0, 42, 0
3, 34752, Note_on_c, 0, 44, 46
3, 34848, Note_on_c, 0, 57, 0
3, 34848, Note_on_c, 0, 56, 46
3, 34944, Note_on_c, 0, 56, 0
3, 34944, Note_on_c, 0, 55, 46
3, 35040, Note_on_c, 0, 55, 0
3, 35040, Note_on_c, 0, 54, 46
3, 35136, Note_on_c, 0, 44, 0
3, 35136, Note_on_c, 0, 54, 0
3, 35136, Note_on_c, 0, 49, 46
3, 35136, Note_on_c, 0, 52, 46
3, 35328, Note_on_c, 0, 49, 0
3, 35328, Note_on_c, 0, 52, 0
3, 35328, Note_on_c, 0, 48, 48
3, 35328, Note_on_c, 0, 57, 48
3, 35520, Note_on_c, 0, 48, 0
3, 35520, Note_on_c, 0, 45, 50
3, 35712, Note_on_c, 0, 57, 0
3, 35712, Note_on_c, 0, 60, 52
3, 35904, Note_on_c, 0, 45, 0
3, 35904, Note_on_c, 0, 47, 54
3, 36000, Note_on_c, 0, 60, 0
3, 36000, Note_on_c, 0, 59, 55
3, 36096, Note_on_c, 0, 59, 0
3, 36096, Note_on_c, 0, 58, 56
3, 36192, Note_on_c, 0, 58, 0
3, 36192, Note_on_c, 0, 57, 57
3, 36288, Note_on_c, 0, 47, 0
3, 36288, Note_on_c, 0, 57, 0
3, 36288, Note_on_c, 0, 52, 58
3, 36288, Note_on_c, 0, 56, 58
3, 36384, Note_on_c, 0, 56, 0
3, 36384, Note_on_c, 0, 57, 59
3, 36480, Note_on_c, 0, 52, 0
3, 36480, Note_on_c, 0, 57, 0
3, 36480, Note_on_c, 0, 52, 60
3, 36480, Note_on_c, 0, 59, 60
3, 36576, Note_on_c, 0, 59, 0
3, 36576, Note_on_c, 0, 58, 60
3, 36672, Note_on_c, 0, 58, 0
3, 36672, Note_on_c, 0, 61, 60
3, 36768, Note_on_c, 0, 61, 0
3, 36768, Note_on_c, 0, 59, 60
3, 36864, Note_on_c, 0, 52, 0
3, 36864, Note_on_c, 0, 51, 60
3, 36960, Note_on_c, 0, 59, 0
3, 36960, Note_on_c, 0, 58, 60
3, 37056, Note_on_c, 0, 58, 0
3, 37056, Note_on_c, 0, 63, 60
3, 37152, Note_on_c, 0, 63, 0
3, 37152, Note_on_c, 0, 57, 58
3, 37248, Note_on_c, 0, 51, 0
3, 37248, Note_on_c, 0, 57, 0
3, 37248, Note_on_c, 0, 51, 56
3, 37248, Note_on_c, 0, 60, 56
3, 37344, Note_on_c, 0, 60, 0
3, 37344, Note_on_c, 0, 58, 54
3, 37440, Note_on_c, 0, 51, 0
3, 37440, Note_on_c, 0, 50, 51
3, 37536, Note_on_c, 0, 58, 0
3, 37536, Note_on_c, 0, 57, 48
3, 37632, Note_on_c, 0, 50, 0
3, 37632, Note_on_c, 0, 57, 0
3, 37632, Note_on_c, 0, 50, 45
3, 37632, Note_on_c, 0, 62, 45
3, 37728, Note_on_c, 0, 62, 0
3, 37728, Note_on_c, 0, 56, 45
3, 37824, Note_on_c, 0, 56, 0
3, 37824, Note_on_c, 0, 56, 45
3, 37920, Note_on_c, 0, 56, 0
3, 37920, Note_on_c, 0, 55, 45
3, 38016, Note_on_c, 0, 55, 0
3, 38016, Note_on_c, 0, 55, 45
3, 38112, Note_on_c, 0, 50, 0
3, 38112, Note_on_c, 0, 49, 45
3, 38208, Note_on_c, 0, 55, 0
3, 38208, Note_on_c, 0, 55, 45
3, 38304, Note_on_c, 0, 49, 0
3, 38400, Note_on_c, 0, 55, 0
3, 38400, Note_on_c, 0, 54, 45
3, 38592, Note_on_c, 0, 42, 45
3, 38784, Note_on_c, 0, 42, 0
3, 38784, Note_on_c, 0, 47, 45
3, 39168, Note_on_c, 0, 47, 0
3, 39168, Note_on_c, 0, 54, 0
3, 39168, Control_c, 0, 64, 127
3, 39168, Note_on_c, 0, 40, 45
3, 39168, Note_on_c, 0, 56, 45
3, 39360, Note_on_c, 0, 40, 0
3, 39360, Note_on_c, 0, 56, 0
3, 39360, Control_c, 0, 64, 0
3, 39360, Control_c, 0, 64, 127
3, 39360, Note_on_c, 0, 42, 45
3, 39360, Note_on_c, 0, 52, 45
3, 39360, Note_on_c, 0, 58, 45
3, 39552, Note_on_c, 0, 42, 0
3, 39552, Note_on_c, 0, 52, 0
3, 39552, Note_on_c, 0, 58, 0
3, 39552, Note_on_c, 0, 54, 45
3, 39744, Control_c, 0, 64, 0
3, 39744, Note_on_c, 0, 47, 45
3, 39936, Note_on_c, 0, 47, 0
3, 39936, Note_on_c, 0, 54, 0
3, 40128, Note_on_c, 0, 51, 45
3, 40128, Note_on_c, 0, 59, 45
3, 40320, Note_on_c, 0, 51, 0
3, 40320, Note_on_c, 0, 52, 45
3, 40320, Note_on_c, 0, 61, 45
3, 40512, Note_on_c, 0, 59, 0
3, 40512, Note_on_c, 0, 52, 0
3, 40512, Note_on_c, 0, 61, 0
3, 40704, Control_c, 0, 64, 127
3, 40704, Note_on_c, 0, 42, 45
3, 40704, Note_on_c, 0, 52, 45
3, 40704, Note_on_c, 0, 58, 45
3, 40896, Note_on_c, 0, 42, 0
3, 40896, Note_on_c, 0, 52, 0
3, 40896, Note_on_c, 0, 58, 0
3, 40896, Note_on_c, 0, 47, 45
3, 40896, Note_on_c, 0, 51, 45
3, 40896, Note_on_c, 0, 59, 45
3, 41088, Note_on_c, 0, 47, 0
3, 41088, Note_on_c, 0, 51, 0
3, 41088, Note_on_c, 0, 59, 0
3, 41088, Control_c, 0, 64, 0
3, 41088, Note_on_c, 0, 48, 45
3, 41088, Note_on_c, 0, 54, 45
3, 41088, Note_on_c, 0, 57, 45
3, 41280, Note_on_c, 0, 54, 0
3, 41280, Note_on_c, 0, 57, 0
3, 41280, Note_on_c, 0, 56, 46
3, 41472, Note_on_c, 0, 48, 0
3, 41472, Note_on_c, 0, 56, 0
3, 41472, Note_on_c, 0, 49, 47
3, 41664, Note_on_c, 0, 49, 0
3, 41664, Note_on_c, 0, 51, 48
3, 41664, Note_on_c, 0, 57, 48
3, 41664, Note_on_c, 0, 60, 48
3, 41856, Note_on_c, 0, 57, 0
3, 41856, Note_on_c, 0, 60, 0
3, 41856, Note_on_c, 0, 59, 49
3, 42048, Note_on_c, 0, 51, 0
3, 42048, Note_on_c, 0, 59, 0
3, 42048, Note_on_c, 0, 52, 50
3, 42240, Note_on_c, 0, 52, 0
3, 42240, Note_on_c, 0, 53, 51
3, 42240, Note_on_c, 0, 59, 51
3, 42240, Note_on_c, 0, 62, 51
3, 42432, Note_on_c, 0, 59, 0
3, 42432, Note_on_c, 0, 62, 0
3, 42432, Note_on_c, 0, 61, 52
3, 42528, Note_on_c, 0, 61, 0
3, 42528, Note_on_c, 0, 59, 53
3, 42624, Note_on_c, 0, 59, 0
3, 42624, Note_on_c, 0, 62, 54
3, 42768, Note_on_c, 0, 62, 0
3, 42768, Note_on_c, 0, 61, 55
3, 42816, Note_on_c, 0, 61, 0
3, 42816, Note_on_c, 0, 61, 55
3, 42912, Note_on_c, 0, 61, 0
3, 42912, Note_on_c, 0, 59, 56
3, 43008, Note_on_c, 0, 59, 0
3, 43008, Note_on_c, 0, 58, 57
3, 43104, Note_on_c, 0, 58, 0
3, 43104, Note_on_c, 0, 59, 58
3, 43200, Note_on_c, 0, 59, 0
3, 43200, Note_on_c, 0, 62, 60
3, 43344, Note_on_c, 0, 53, 0
3, 43344, Note_on_c, 0, 62, 0
3, 43392, Note_on_c, 0, 64, 60
3, 43392, Note_on_c, 0, 67, 60
3, 43584, Note_on_c, 0, 64, 0
3, 43584, Note_on_c, 0, 67, 0
3, 43584, Note_on_c, 0, 63, 57
3, 43584, Note_on_c, 0, 66, 57
3, 43680, Note_on_c, 0, 63, 0
3, 43680, Note_on_c, 0, 66, 0
3, 43680, Note_on_c, 0, 62, 56
3, 43680, Note_on_c, 0, 65, 56
3, 43776, Note_on_c, 0, 62, 0
3, 43776, Note_on_c, 0, 65, 0
3, 43776, Note_on_c, 0, 63, 55
3, 43776, Note_on_c, 0, 66, 55
3, 43872, Note_on_c, 0, 63, 0
3, 43872, Note_on_c, 0, 66, 0
3, 43872, Note_on_c, 0, 59, 54
3, 43872, Note_on_c, 0, 62, 54
3, 43968, Note_on_c, 0, 59, 0
3, 43968, Note_on_c, 0, 62, 0
3, 43968, Note_on_c, 0, 61, 53
3, 43968, Note_on_c, 0, 64, 53
3, 44160, Note_on_c, 0, 61, 0
3, 44160, Note_on_c, 0, 64, 0
3, 44160, Note_on_c, 0, 58, 50
3, 44160, Note_on_c, 0, 61, 50
3, 44256, Note_on_c, 0, 58, 0
3, 44256, Note_on_c, 0, 61, 0
3, 44256, Note_on_c, 0, 57, 48
3, 44256, Note_on_c, 0, 60, 48
3, 44352, Note_on_c, 0, 57, 0
3, 44352, Note_on_c, 0, 60, 0
3, 44352, Note_on_c, 0, 58, 46
3, 44352, Note_on_c, 0, 61, 46
3, 44448, Note_on_c, 0, 58, 0
3, 44448, Note_on_c, 0, 61, 0
3, 44448, Note_on_c, 0, 54, 44
3, 44448, Note_on_c, 0, 57, 44
3, 44544, Note_on_c, 0, 54, 0
3, 44544, Note_on_c, 0, 57, 0
3, 44544, Note_on_c, 0, 48, 42
3, 44544, Note_on_c, 0, 56, 42
3, 44544, Note_on_c, 0, 63, 42
3, 44736, Note_on_c, 0, 48, 0
3, 44736, Note_on_c, 0, 63, 0
3, 44736, Note_on_c, 0, 49, 38
3, 44736, Note_on_c, 0, 61, 38
3, 44928, Note_on_c, 0, 49, 0
3, 44928, Note_on_c, 0, 56, 0
3, 44928, Note_on_c, 0, 61, 0
3, 44928, Note_on_c, 0, 52, 34
3, 44928, Note_on_c, 0, 55, 34
3, 45120, Note_on_c, 0, 52, 0
3, 45120, Note_on_c, 0, 55, 0
3, 45120, Note_on_c, 0, 42, 30
3, 45120, Note_on_c, 0, 54, 30
3, 45312, Note_on_c, 0, 42, 0
3, 45312, Note_on_c, 0, 47, 30
3, 45408, Note_on_c, 0, 47, 0
3, 45696, Note_on_c, 0, 45, 45
3, 46080, Note_on_c, 0, 45, 0
3, 46080, Note_on_c, 0, 54, 0
3, 46080, Note_on_c, 0, 42, 47
3, 46080, Note_on_c, 0, 57, 47
3, 46272, Note_on_c, 0, 42, 0
3, 46272, Note_on_c, 0, 44, 48
3, 46368, Note_on_c, 0, 57, 0
3, 46368, Note_on_c, 0, 56, 48
3, 46464, Note_on_c, 0, 56, 0
3, 46464, Note_on_c, 0, 55, 48
3, 46560, Note_on_c, 0, 55, 0
3, 46560, Note_on_c, 0, 54, 48
3, 46656, Note_on_c, 0, 44, 0
3, 46656, Note_on_c, 0, 54, 0
3, 46656, Note_on_c, 0, 49, 48
3, 46656, Note_on_c, 0, 52, 48
3, 46848, Note_on_c, 0, 49, 0
3, 46848, Note_on_c, 0, 52, 0
3, 46848, Note_on_c, 0, 48, 49
3, 46848, Note_on_c, 0, 57, 49
3, 47040, Note_on_c, 0, 48, 0
3, 47040, Note_on_c, 0, 45, 50
3, 47232, Note_on_c, 0, 57, 0
3, 47232, Note_on_c, 0, 60, 52
3, 47424, Note_on_c, 0, 45, 0
3, 47424, Note_on_c, 0, 47, 54
3, 47520, Note_on_c, 0, 60, 0
3, 47520, Note_on_c, 0, 59, 55
3, 47616, Note_on_c, 0, 59, 0
3, 47616, Note_on_c, 0, 58, 56
3, 47712, Note_on_c, 0, 58, 0
3, 47712, Note_on_c, 0, 57, 57
3, 47808, Note_on_c, 0, 47, 0
3, 47808, Note_on_c, 0, 57, 0
3, 47808, Note_on_c, 0, 52, 58
3, 47808, Note_on_c, 0, 56, 58
3, 47904, Note_on_c, 0, 56, 0
3, 47904, Note_on_c, 0, 57, 59
3, 48000, Note_on_c, 0, 52, 0
3, 48000, Note_on_c, 0, 57, 0
3, 48000, Note_on_c, 0, 52, 60
3, 48000, Note_on_c, 0, 59, 60
3, 48096, Note_on_c, 0, 59, 0
3, 48096, Note_on_c, 0, 58, 60
3, 48192, Note_on_c, 0, 58, 0
3, 48192, Note_on_c, 0, 61, 60
3, 48288, Note_on_c, 0, 61, 0
3, 48288, Note_on_c, 0, 59, 60
3, 48384, Note_on_c, 0, 52, 0
3, 48384, Note_on_c, 0, 51, 60
3, 48480, Note_on_c, 0, 59, 0
3, 48480, Note_on_c, 0, 58, 60
3, 48576, Note_on_c, 0, 58, 0
3, 48576, Note_on_c, 0, 63, 60
3, 48672, Note_on_c, 0, 63, 0
3, 48672, Note_on_c, 0, 57, 58
3, 48768, Note_on_c, 0, 51, 0
3, 48768, Note_on_c, 0, 57, 0
3, 48768, Note_on_c, 0, 51, 56
3, 48768, Note_on_c, 0, 60, 56
3, 48864, Note_on_c, 0, 60, 0
3, 48864, Note_on_c, 0, 58, 54
3, 48960, Note_on_c, 0, 51, 0
3, 48960, Note_on_c, 0, 50, 51
3, 49056, Note_on_c, 0, 58, 0
3, 49056, Note_on_c, 0, 57, 48
3, 49152, Note_on_c, 0, 50, 0
3, 49152, Note_on_c, 0, 57, 0
3, 49152, Note_on_c, 0, 50, 45
3, 49152, Note_on_c, 0, 62, 45
3, 49248, Note_on_c, 0, 62, 0
3, 49248, Note_on_c, 0, 56, 45
3, 49344, Note_on_c, 0, 56, 0
3, 49344, Note_on_c, 0, 56, 45
3, 49440, Note_on_c, 0, 56, 0
3, 49440, Note_on_c, 0, 55, 45
3, 49536, Note_on_c, 0, 55, 0
3, 49536, Note_on_c, 0, 55, 45
3, 49632, Note_on_c, 0, 50, 0
3, 49632, Note_on_c, 0, 49, 45
3, 49728, Note_on_c, 0, 55, 0
3, 49728, Note_on_c, 0, 55, 45
3, 49824, Note_on_c, 0, 49, 0
3, 49920, Note_on_c, 0, 55, 0
3, 49920, Note_on_c, 0, 54, 45
3, 50112, Note_on_c, 0, 42, 30
3, 50304, Note_on_c, 0, 42, 0
3, 50304, Note_on_c, 0, 47, 45
3, 50688, Note_on_c, 0, 47, 0
3, 50688, Note_on_c, 0, 54, 0
3, 50688, Control_c, 0, 64, 127
3, 50688, Note_on_c, 0, 40, 45
3, 50688, Note_on_c, 0, 56, 45
3, 50880, Note_on_c, 0, 40, 0
3, 50880, Note_on_c, 0, 56, 0
3, 50880, Control_c, 0, 64, 0
3, 50880, Note_on_c, 0, 42, 45
3, 50880, Note_on_c, 0, 52, 45
3, 50880, Note_on_c, 0, 58, 45
3, 51072, Note_on_c, 0, 42, 0
3, 51072, Note_on_c, 0, 52, 0
3, 51072, Note_on_c, 0, 58, 0
3, 51072, Note_on_c, 0, 54, 45
3, 51264, Note_on_c, 0, 47, 45
3, 51456, Note_on_c, 0, 47, 0
3, 51456, Note_on_c, 0, 54, 0
3, 51648, Note_on_c, 0, 50, 45
3, 51648, Note_on_c, 0, 59, 45
3, 51744, Note_on_c, 0, 50, 0
3, 51744, Note_on_c, 0, 51, 45
3, 51840, Note_on_c, 0, 59, 0
3, 51840, Note_on_c, 0, 51, 0
3, 51840, Note_on_c, 0, 52, 45
3, 51840, Note_on_c, 0, 60, 45
3, 51936, Note_on_c, 0, 60, 0
3, 51936, Note_on_c, 0, 61, 45
3, 52032, Note_on_c, 0, 52, 0
3, 52032, Note_on_c, 0, 61, 0
3, 52032, Control_c, 0, 64, 127
3, 52224, Note_on_c, 0, 42, 45
3, 52224, Note_on_c, 0, 52, 45
3, 52224, Note_on_c, 0, 58, 45
3, 52416, Note_on_c, 0, 42, 0
3, 52416, Note_on_c, 0, 52, 0
3, 52416, Note_on_c, 0, 58, 0
3, 52416, Control_c, 0, 64, 0
3, 52416, Note_on_c, 0, 47, 45
3, 52416, Note_on_c, 0, 51, 45
3, 52416, Note_on_c, 0, 59, 45
3, 52608, Note_on_c, 0, 47, 0
3, 52608, Note_on_c, 0, 51, 0
3, 52608, Note_on_c, 0, 59, 0
3, 52608, Note_on_c, 0, 48, 45
3, 52608, Note_on_c, 0, 54, 45
3, 52608, Note_on_c, 0, 57, 45
3, 52800, Note_on_c, 0, 54, 0
3, 52800, Note_on_c, 0, 57, 0
3, 52800, Note_on_c, 0, 56, 45
3, 52992, Note_on_c, 0, 48, 0
3, 52992, Note_on_c, 0, 56, 0
3, 52992, Note_on_c, 0, 48, 45
3, 53088, Note_on_c, 0, 48, 0
3, 53088, Note_on_c, 0, 49, 45
3, 53184, Note_on_c, 0, 49, 0
3, 53184, Note_on_c, 0, 50, 45
3, 53184, Note_on_c, 0, 57, 45
3, 53184, Note_on_c, 0, 60, 45
3, 53280, Note_on_c, 0, 50, 0
3, 53280, Note_on_c, 0, 51, 45
3, 53376, Note_on_c, 0, 57, 0
3, 53376, Note_on_c, 0, 60, 0
3, 53376, Note_on_c, 0, 51, 0
3, 53376, Note_on_c, 0, 59, 46
3, 53568, Note_on_c, 0, 59, 0
3, 53568, Note_on_c, 0, 51, 48
3, 53664, Note_on_c, 0, 51, 0
3, 53664, Note_on_c, 0, 52, 49
3, 53760, Note_on_c, 0, 52, 0
3, 53760, Note_on_c, 0, 53, 50
3, 53760, Note_on_c, 0, 59, 50
3, 53760, Note_on_c, 0, 62, 50
3, 53952, Note_on_c, 0, 59, 0
3, 53952, Note_on_c, 0, 62, 0
3, 53952, Note_on_c, 0, 61, 52
3, 54048, Note_on_c, 0, 61, 0
3, 54048, Note_on_c, 0, 59, 53
3, 54144, Note_on_c, 0, 59, 0
3, 54144, Note_on_c, 0, 62, 54
3, 54288, Note_on_c, 0, 62, 0
3, 54288, Note_on_c, 0, 61, 55
3, 54336, Note_on_c, 0, 61, 0
3, 54336, Note_on_c, 0, 61, 55
3, 54432, Note_on_c, 0, 61, 0
3, 54432, Note_on_c, 0, 59, 56
3, 54528, Note_on_c, 0, 59, 0
3, 54528, Note_on_c, 0, 58, 57
3, 54624, Note_on_c, 0, 58, 0
3, 54624, Note_on_c, 0, 59, 58
3, 54720, Note_on_c, 0, 59, 0
3, 54720, Note_on_c, 0, 62, 60
3, 54864, Note_on_c, 0, 53, 0
3, 54864, Note_on_c, 0, 62, 0
3, 54912, Note_on_c, 0, 64, 60
3, 54912, Note_on_c, 0, 67, 60
3, 55104, Note_on_c, 0, 64, 0
3, 55104, Note_on_c, 0, 67, 0
3, 55104, Note_on_c, 0, 63, 57
3, 55104, Note_on_c, 0, 66, 57
3, 55200, Note_on_c, 0, 63, 0
3, 55200, Note_on_c, 0, 66, 0
3, 55200, Note_on_c, 0, 62, 56
3, 55200, Note_on_c, 0, 65, 56
3, 55296, Note_on_c, 0, 62, 0
3, 55296, Note_on_c, 0, 65, 0
3, 55296, Note_on_c, 0, 63, 55
3, 55296, Note_on_c, 0, 66, 55
3, 55392, Note_on_c, 0, 63, 0
3, 55392, Note_on_c, 0, 66, 0
3, 55392, Note_on_c, 0, 59, 54
3, 55392, Note_on_c, 0, 62, 54
3, 55488, Note_on_c, 0, 59, 0
3, 55488, Note_on_c, 0, 62, 0
3, 55488, Note_on_c, 0, 61, 53
3, 55488, Note_on_c, 0, 64, 53
3, 55680, Note_on_c, 0, 61, 0
3, 55680, Note_on_c, 0, 64, 0
3, 55680, Note_on_c, 0, 58, 50
3, 55680, Note_on_c, 0, 61, 50
3, 55776, Note_on_c, 0, 58, 0
3, 55776, Note_on_c, 0, 61, 0
3, 55776, Note_on_c, 0, 57, 48
3, 55776, Note_on_c, 0, 60, 48
3, 55872, Note_on_c, 0, 57, 0
3, 55872, Note_on_c, 0, 60, 0
3, 55872, Note_on_c, 0, 58, 46
3, 55872, Note_on_c, 0, 61, 46
3, 55968, Note_on_c, 0, 58, 0
3, 55968, Note_on_c, 0, 61, 0
3, 55968, Note_on_c, 0, 54, 44
3, 55968, Note_on_c, 0, 57, 44
3, 56064, Note_on_c, 0, 54, 0
3, 56064, Note_on_c, 0, 57, 0
3, 56064, Note_on_c, 0, 48, 42
3, 56064, Note_on_c, 0, 56, 42
3, 56064, Note_on_c, 0, 63, 42
3, 56256, Note_on_c, 0, 48, 0
3, 56256, Note_on_c, 0, 63, 0
3, 56256, Note_on_c, 0, 49, 38
3, 56256, Note_on_c, 0, 61, 38
3, 56448, Note_on_c, 0, 49, 0
3, 56448, Note_on_c, 0, 56, 0
3, 56448, Note_on_c, 0, 61, 0
3, 56448, Note_on_c, 0, 52, 34
3, 56448, Note_on_c, 0, 55, 34
3, 56640, Note_on_c, 0, 52, 0
3, 56640, Note_on_c, 0, 42, 30
3, 56734, Note_on_c, 0, 55, 0
3, 56736, Note_on_c, 0, 54, 30
3, 56830, Note_on_c, 0, 54, 0
3, 56832, Note_on_c, 0, 52, 30
3, 56926, Note_on_c, 0, 52, 0
3, 56928, Note_on_c, 0, 51, 30
3, 57022, Note_on_c, 0, 51, 0
3, 57024, Note_on_c, 0, 52, 30
3, 57118, Note_on_c, 0, 52, 0
3, 57120, Note_on_c, 0, 49, 30
3, 57214, Note_on_c, 0, 49, 0
3, 57216, Note_on_c, 0, 55, 30
3, 57310, Note_on_c, 0, 55, 0
3, 57312, Note_on_c, 0, 54, 30
3, 57406, Note_on_c, 0, 54, 0
3, 57408, Note_on_c, 0, 52, 30
3, 57502, Note_on_c, 0, 52, 0
3, 57504, Note_on_c, 0, 51, 30
3, 57598, Note_on_c, 0, 51, 0
3, 57600, Note_on_c, 0, 52, 30
3, 57694, Note_on_c, 0, 52, 0
3, 57696, Note_on_c, 0, 49, 30
3, 57790, Note_on_c, 0, 49, 0
3, 57792, Note_on_c, 0, 55, 30
3, 57886, Note_on_c, 0, 55, 0
3, 57888, Note_on_c, 0, 54, 30
3, 57982, Note_on_c, 0, 54, 0
3, 57984, Note_on_c, 0, 52, 30
3, 58078, Note_on_c, 0, 52, 0
3, 58080, Note_on_c, 0, 51, 30
3, 58174, Note_on_c, 0, 51, 0
3, 58176, Note_on_c, 0, 52, 30
3, 58270, Note_on_c, 0, 52, 0
3, 58272, Note_on_c, 0, 49, 30
3, 58366, Note_on_c, 0, 49, 0
3, 58368, Note_on_c, 0, 55, 30
3, 58462, Note_on_c, 0, 55, 0
3, 58464, Note_on_c, 0, 54, 30
3, 58558, Note_on_c, 0, 54, 0
3, 58560, Note_on_c, 0, 52, 30
3, 58654, Note_on_c, 0, 52, 0
3, 58656, Note_on_c, 0, 51, 30
3, 58750, Note_on_c, 0, 51, 0
3, 58752, Note_on_c, 0, 52, 30
3, 58846, Note_on_c, 0, 52, 0
3, 58848, Note_on_c, 0, 49, 30
3, 58942, Note_on_c, 0, 49, 0
3, 58944, Note_on_c, 0, 55, 30
3, 59038, Note_on_c, 0, 55, 0
3, 59040, Note_on_c, 0, 54, 30
3, 59134, Note_on_c, 0, 54, 0
3, 59136, Note_on_c, 0, 52, 30
3, 59230, Note_on_c, 0, 52, 0
3, 59232, Note_on_c, 0, 51, 30
3, 59326, Note_on_c, 0, 51, 0
3, 59328, Note_on_c, 0, 52, 30
3, 59422, Note_on_c, 0, 52, 0
3, 59424, Note_on_c, 0, 49, 30
3, 59518, Note_on_c, 0, 49, 0
3, 59520, Note_on_c, 0, 55, 30
3, 59614, Note_on_c, 0, 55, 0
3, 59616, Note_on_c, 0, 54, 30
3, 59710, Note_on_c, 0, 54, 0
3, 59712, Note_on_c, 0, 52, 30
3, 59806, Note_on_c, 0, 52, 0
3, 59808, Note_on_c, 0, 51, 30
3, 59902, Note_on_c, 0, 51, 0
3, 59904, Note_on_c, 0, 52, 30
3, 59998, Note_on_c, 0, 52, 0
3, 60000, Note_on_c, 0, 49, 30
3, 60094, Note_on_c, 0, 49, 0
3, 60096, Note_on_c, 0, 55, 30
3, 60190, Note_on_c, 0, 55, 0
3, 60192, Note_on_c, 0, 54, 30
3, 60286, Note_on_c, 0, 54, 0
3, 60288, Note_on_c, 0, 52, 30
3, 60382, Note_on_c, 0, 52, 0
3, 60384, Note_on_c, 0, 51, 30
3, 60478, Note_on_c, 0, 51, 0
3, 60480, Note_on_c, 0, 52, 30
3, 60574, Note_on_c, 0, 52, 0
3, 60576, Note_on_c, 0, 49, 30
3, 60670, Note_on_c, 0, 49, 0
3, 60672, Note_on_c, 0, 55, 30
3, 60766, Note_on_c, 0, 55, 0
3, 60768, Note_on_c, 0, 54, 30
3, 60862, Note_on_c, 0, 54, 0
3, 60864, Note_on_c, 0, 52, 30
3, 60958, Note_on_c, 0, 52, 0
3, 60960, Note_on_c, 0, 51, 30
3, 61054, Note_on_c, 0, 51, 0
3, 61056, Note_on_c, 0, 52, 30
3, 61150, Note_on_c, 0, 52, 0
3, 61152, Note_on_c, 0, 49, 30
3, 61246, Note_on_c, 0, 49, 0
3, 61248, Note_on_c, 0, 55, 30
3, 61342, Note_on_c, 0, 55, 0
3, 61344, Note_on_c, 0, 54, 30
3, 61438, Note_on_c, 0, 54, 0
3, 61440, Note_on_c, 0, 52, 30
3, 61534, Note_on_c, 0, 52, 0
3, 61536, Note_on_c, 0, 51, 30
3, 61630, Note_on_c, 0, 51, 0
3, 61632, Note_on_c, 0, 52, 30
3, 61726, Note_on_c, 0, 52, 0
3, 61728, Note_on_c, 0, 49, 30
3, 61822, Note_on_c, 0, 49, 0
3, 61824, Note_on_c, 0, 55, 30
3, 61918, Note_on_c, 0, 55, 0
3, 61920, Note_on_c, 0, 54, 30
3, 62014, Note_on_c, 0, 54, 0
3, 62016, Note_on_c, 0, 52, 30
3, 62110, Note_on_c, 0, 52, 0
3, 62112, Note_on_c, 0, 51, 30
3, 62206, Note_on_c, 0, 51, 0
3, 62208, Note_on_c, 0, 52, 30
3, 62302, Note_on_c, 0, 52, 0
3, 62304, Note_on_c, 0, 49, 30
3, 62352, Note_on_c, 0, 42, 0
3, 62398, Note_on_c, 0, 49, 0
3, 62400, Note_on_c, 0, 43, 30
3, 62400, Note_on_c, 0, 55, 30
3, 62496, Note_on_c, 0, 43, 0
3, 62496, Note_on_c, 0, 55, 0
3, 62496, Note_on_c, 0, 42, 30
3, 62496, Note_on_c, 0, 54, 30
3, 62592, Note_on_c, 0, 42, 0
3, 62592, Note_on_c, 0, 54, 0
3, 62592, Note_on_c, 0, 40, 30
3, 62592, Note_on_c, 0, 52, 30
3, 62688, Note_on_c, 0, 40, 0
3, 62688, Note_on_c, 0, 52, 0
3, 62688, Note_on_c, 0, 39, 30
3, 62688, Note_on_c, 0, 51, 30
3, 62784, Note_on_c, 0, 39, 0
3, 62784, Note_on_c, 0, 51, 0
3, 62784, Note_on_c, 0, 40, 30
3, 62784, Note_on_c, 0, 52, 30
3, 62880, Note_on_c, 0, 40, 0
3, 62880, Note_on_c, 0, 52, 0
3, 62880, Note_on_c, 0, 37, 30
3, 62880, Note_on_c, 0, 49, 30
3, 62976, Note_on_c, 0, 37, 0
3, 62976, Note_on_c, 0, 49, 0
3, 62976, Note_on_c, 0, 43, 30
3, 62976, Note_on_c, 0, 55, 30
3, 63072, Note_on_c, 0, 43, 0
3, 63072, Note_on_c, 0, 55, 0
3, 63072, Note_on_c, 0, 42, 33
3, 63072, Note_on_c, 0, 54, 33
3, 63168, Note_on_c, 0, 42, 0
3, 63168, Note_on_c, 0, 54, 0
3, 63168, Note_on_c, 0, 40, 36
3, 63168, Note_on_c, 0, 52, 36
3, 63264, Note_on_c, 0, 40, 0
3, 63264, Note_on_c, 0, 52, 0
3, 63264, Note_on_c, 0, 39, 39
3, 63264, Note_on_c, 0, 51, 39
3, 63360, Note_on_c, 0, 39, 0
3, 63360, Note_on_c, 0, 51, 0
3, 63360, Note_on_c, 0, 40, 42
3, 63360, Note_on_c, 0, 52, 42
3, 63456, Note_on_c, 0, 40, 0
3, 63456, Note_on_c, 0, 52, 0
3, 63456, Note_on_c, 0, 37, 45
3, 63456, Note_on_c, 0, 49, 45
3, 63550, Note_on_c, 0, 37, 0
3, 63550, Note_on_c, 0, 49, 0
3, 63552, Note_on_c, 0, 43, 48
3, 63552, Note_on_c, 0, 55, 48
3, 63648, Note_on_c, 0, 43, 0
3, 63648, Note_on_c, 0, 55, 0
3, 63648, Note_on_c, 0, 42, 51
3, 63648, Note_on_c, 0, 54, 51
3, 63744, Note_on_c, 0, 42, 0
3, 63744, Note_on_c, 0, 54, 0
3, 63744, Note_on_c, 0, 40, 54
3, 63744, Note_on_c, 0, 52, 54
3, 63840, Note_on_c, 0, 40, 0
3, 63840, Note_on_c, 0, 52, 0
3, 63840, Note_on_c, 0, 39, 57
3, 63840, Note_on_c, 0, 51, 57
3, 63936, Note_on_c, 0, 39, 0
3, 63936, Note_on_c, 0, 51, 0
3, 63936, Note_on_c, 0, 40, 60
3, 63936, Note_on_c, 0, 52, 60
3, 64032, Note_on_c, 0, 40, 0
3, 64032, Note_on_c, 0, 52, 0
3, 64032, Note_on_c, 0, 37, 64
3, 64032, Note_on_c, 0, 49, 64
3, 64128, Note_on_c, 0, 37, 0
3, 64128, Note_on_c, 0, 49, 0
3, 64128, Note_on_c, 0, 43, 68
3, 64128, Note_on_c, 0, 55, 68
3, 64224, Note_on_c, 0, 43, 0
3, 64224, Note_on_c, 0, 55, 0
3, 64224, Note_on_c, 0, 42, 72
3, 64224, Note_on_c, 0, 54, 72
3, 64320, Note_on_c, 0, 42, 0
3, 64320, Note_on_c, 0, 54, 0
3, 64320, Note_on_c, 0, 40, 76
3, 64320, Note_on_c, 0, 52, 76
3, 64416, Note_on_c, 0, 40, 0
3, 64416, Note_on_c, 0, 52, 0
3, 64416, Note_on_c, 0, 39, 80
3, 64416, Note_on_c, 0, 51, 80
3, 64512, Note_on_c, 0, 39, 0
3, 64512, Note_on_c, 0, 51, 0
3, 64512, Note_on_c, 0, 40, 84
3, 64512, Note_on_c, 0, 52, 84
3, 64608, Note_on_c, 0, 40, 0
3, 64608, Note_on_c, 0, 52, 0
3, 64608, Note_on_c, 0, 37, 88
3, 64608, Note_on_c, 0, 49, 88
3, 64702, Note_on_c, 0, 37, 0
3, 64702, Note_on_c, 0, 49, 0
3, 64704, Note_on_c, 0, 43, 127
3, 64704, Note_on_c, 0, 55, 127
3, 64768, Note_on_c, 0, 43, 0
3, 64768, Note_on_c, 0, 55, 0
3, 64768, Note_on_c, 0, 42, 92
3, 64768, Note_on_c, 0, 54, 92
3, 64832, Note_on_c, 0, 42, 0
3, 64832, Note_on_c, 0, 54, 0
3, 64832, Note_on_c, 0, 40, 92
3, 64832, Note_on_c, 0, 52, 92
3, 64896, Note_on_c, 0, 40, 0
3, 64896, Note_on_c, 0, 52, 0
3, 64896, Note_on_c, 0, 39, 92
3, 64896, Note_on_c, 0, 51, 92
3, 64960, Note_on_c, 0, 39, 0
3, 64960, Note_on_c, 0, 51, 0
3, 64960, Note_on_c, 0, 40, 92
3, 64960, Note_on_c, 0, 52, 92
3, 65024, Note_on_c, 0, 40, 0
3, 65024, Note_on_c, 0, 52, 0
3, 65024, Note_on_c, 0, 37, 92
3, 65024, Note_on_c, 0, 49, 92
3, 65086, Note_on_c, 0, 37, 0
3, 65086, Note_on_c, 0, 49, 0
3, 65088, Note_on_c, 0, 44, 127
3, 65088, Note_on_c, 0, 56, 127
3, 65152, Note_on_c, 0, 44, 0
3, 65152, Note_on_c, 0, 56, 0
3, 65152, Note_on_c, 0, 42, 92
3, 65152, Note_on_c, 0, 54, 92
3, 65216, Note_on_c, 0, 42, 0
3, 65216, Note_on_c, 0, 54, 0
3, 65216, Note_on_c, 0, 40, 92
3, 65216, Note_on_c, 0, 52, 92
3, 65280, Note_on_c, 0, 40, 0
3, 65280, Note_on_c, 0, 52, 0
3, 65280, Note_on_c, 0, 39, 92
3, 65280, Note_on_c, 0, 51, 92
3, 65344, Note_on_c, 0, 39, 0
3, 65344, Note_on_c, 0, 51, 0
3, 65344, Note_on_c, 0, 40, 92
3, 65344, Note_on_c, 0, 52, 92
3, 65408, Note_on_c, 0, 40, 0
3, 65408, Note_on_c, 0, 52, 0
3, 65408, Note_on_c, 0, 37, 92
3, 65408, Note_on_c, 0, 49, 92
3, 65470, Note_on_c, 0, 37, 0
3, 65470, Note_on_c, 0, 49, 0
3, 65472, Note_on_c, 0, 45, 92
3, 65472, Note_on_c, 0, 57, 92
3, 65536, Note_on_c, 0, 45, 0
3, 65536, Note_on_c, 0, 57, 0
3, 65536, Note_on_c, 0, 44, 92
3, 65536, Note_on_c, 0, 56, 92
3, 65600, Note_on_c, 0, 44, 0
3, 65600, Note_on_c, 0, 56, 0
3, 65600, Note_on_c, 0, 43, 92
3, 65600, Note_on_c, 0, 55, 92
3, 65664, Note_on_c, 0, 43, 0
3, 65664, Note_on_c, 0, 55, 0
3, 65664, Note_on_c, 0, 42, 92
3, 65664, Note_on_c, 0, 54, 92
3, 65728, Note_on_c, 0, 42, 0
3, 65728, Note_on_c, 0, 54, 0
3, 65728, Note_on_c, 0, 43, 92
3, 65728, Note_on_c, 0, 55, 92
3, 65792, Note_on_c, 0, 43, 0
3, 65792, Note_on_c, 0, 55, 0
3, 65792, Note_on_c, 0, 39, 92
3, 65792, Note_on_c, 0, 51, 92
3, 65856, Note_on_c, 0, 39, 0
3, 65856, Note_on_c, 0, 51, 0
3, 65856, Note_on_c, 0, 40, 92
3, 65856, Note_on_c, 0, 52, 92
3, 65920, Note_on_c, 0, 40, 0
3, 65920, Note_on_c, 0, 52, 0
3, 65920, Note_on_c, 0, 41, 92
3, 65920, Note_on_c, 0, 53, 92
3, 65984, Note_on_c, 0, 41, 0
3, 65984, Note_on_c, 0, 53, 0
3, 65984, Note_on_c, 0, 42, 127
3, 65984, Note_on_c, 0, 54, 127
3, 66048, Note_on_c, 0, 42, 0
3, 66048, Note_on_c, 0, 54, 0
3, 66048, Note_on_c, 0, 41, 92
3, 66048, Note_on_c, 0, 53, 92
3, 66112, Note_on_c, 0, 41, 0
3, 66112, Note_on_c, 0, 53, 0
3, 66112, Note_on_c, 0, 42, 93
3, 66112, Note_on_c, 0, 54, 93
3, 66176, Note_on_c, 0, 42, 0
3, 66176, Note_on_c, 0, 54, 0
3, 66176, Note_on_c, 0, 43, 127
3, 66176, Note_on_c, 0, 55, 127
3, 66240, Note_on_c, 0, 43, 0
3, 66240, Note_on_c, 0, 55, 0
3, 66240, Note_on_c, 0, 41, 95
3, 66240, Note_on_c, 0, 53, 95
3, 66304, Note_on_c, 0, 41, 0
3, 66304, Note_on_c, 0, 53, 0
3, 66304, Note_on_c, 0, 42, 96
3, 66304, Note_on_c, 0, 54, 96
3, 66368, Note_on_c, 0, 42, 0
3, 66368, Note_on_c, 0, 54, 0
3, 66368, Note_on_c, 0, 43, 127
3, 66368, Note_on_c, 0, 55, 127
3, 66432, Note_on_c, 0, 43, 0
3, 66432, Note_on_c, 0, 55, 0
3, 66432, Note_on_c, 0, 42, 98
3, 66432, Note_on_c, 0, 54, 98
3, 66496, Note_on_c, 0, 42, 0
3, 66496, Note_on_c, 0, 54, 0
3, 66496, Note_on_c, 0, 43, 99
3, 66496, Note_on_c, 0, 55, 99
3, 66560, Note_on_c, 0, 43, 0
3, 66560, Note_on_c, 0, 55, 0
3, 66560, Note_on_c, 0, 44, 127
3, 66560, Note_on_c, 0, 56, 127
3, 66624, Note_on_c, 0, 44, 0
3, 66624, Note_on_c, 0, 56, 0
3, 66624, Note_on_c, 0, 43, 101
3, 66624, Note_on_c, 0, 55, 101
3, 66688, Note_on_c, 0, 43, 0
3, 66688, Note_on_c, 0, 55, 0
3, 66688, Note_on_c, 0, 44, 102
3, 66688, Note_on_c, 0, 56, 102
3, 66752, Note_on_c, 0, 44, 0
3, 66752, Note_on_c, 0, 56, 0
3, 66752, Note_on_c, 0, 45, 127
3, 66752, Note_on_c, 0, 57, 127
3, 66816, Note_on_c, 0, 45, 0
3, 66816, Note_on_c, 0, 57, 0
3, 66816, Note_on_c, 0, 44, 104
3, 66816, Note_on_c, 0, 56, 104
3, 66880, Note_on_c, 0, 44, 0
3, 66880, Note_on_c, 0, 56, 0
3, 66880, Note_on_c, 0, 45, 105
3, 66880, Note_on_c, 0, 57, 105
3, 66944, Note_on_c, 0, 45, 0
3, 66944, Note_on_c, 0, 57, 0
3, 66944, Note_on_c, 0, 46, 127
3, 66944, Note_on_c, 0, 58, 127
3, 67008, Note_on_c, 0, 46, 0
3, 67008, Note_on_c, 0, 58, 0
3, 67008, Note_on_c, 0, 47, 127
3, 67008, Note_on_c, 0, 50, 127
3, 67008, Note_on_c, 0, 59, 127
3, 67072, Note_on_c, 0, 47, 0
3, 67072, Note_on_c, 0, 59, 0
3, 67072, Note_on_c, 0, 46, 108
3, 67072, Note_on_c, 0, 58, 108
3, 67136, Note_on_c, 0, 46, 0
3, 67136, Note_on_c, 0, 58, 0
3, 67136, Note_on_c, 0, 47, 108
3, 67136, Note_on_c, 0, 59, 108
3, 67200, Note_on_c, 0, 47, 0
3, 67200, Note_on_c, 0, 59, 0
3, 67200, Note_on_c, 0, 46, 108
3, 67200, Note_on_c, 0, 58, 108
3, 67264, Note_on_c, 0, 46, 0
3, 67264, Note_on_c, 0, 58, 0
3, 67264, Note_on_c, 0, 45, 108
3, 67264, Note_on_c, 0, 57, 108
3, 67328, Note_on_c, 0, 45, 0
3, 67328, Note_on_c, 0, 57, 0
3, 67328, Note_on_c, 0, 44, 108
3, 67328, Note_on_c, 0, 56, 108
3, 67392, Note_on_c, 0, 44, 0
3, 67392, Note_on_c, 0, 50, 0
3, 67392, Note_on_c, 0, 56, 0
3, 67392, Note_on_c, 0, 45, 127
3, 67392, Note_on_c, 0, 50, 127
3, 67392, Note_on_c, 0, 57, 127
3, 67456, Note_on_c, 0, 45, 0
3, 67456, Note_on_c, 0, 57, 0
3, 67456, Note_on_c, 0, 44, 108
3, 67456, Note_on_c, 0, 56, 108
3, 67520, Note_on_c, 0, 44, 0
3, 67520, Note_on_c, 0, 56, 0
3, 67520, Note_on_c, 0, 45, 108
3, 67520, Note_on_c, 0, 57, 108
3, 67584, Note_on_c, 0, 45, 0
3, 67584, Note_on_c, 0, 57, 0
3, 67584, Note_on_c, 0, 44, 108
3, 67584, Note_on_c, 0, 56, 108
3, 67648, Note_on_c, 0, 44, 0
3, 67648, Note_on_c, 0, 56, 0
3, 67648, Note_on_c, 0, 43, 108
3, 67648, Note_on_c, 0, 55, 108
3, 67712, Note_on_c, 0, 43, 0
3, 67712, Note_on_c, 0, 55, 0
3, 67712, Note_on_c, 0, 42, 108
3, 67712, Note_on_c, 0, 54, 108
3, 67776, Note_on_c, 0, 42, 0
3, 67776, Note_on_c, 0, 50, 0
3, 67776, Note_on_c, 0, 54, 0
3, 67776, Note_on_c, 0, 43, 127
3, 67776, Note_on_c, 0, 47, 127
3, 67776, Note_on_c, 0, 55, 127
3, 67840, Note_on_c, 0, 43, 0
3, 67840, Note_on_c, 0, 55, 0
3, 67840, Note_on_c, 0, 42, 108
3, 67840, Note_on_c, 0, 54, 108
3, 67904, Note_on_c, 0, 42, 0
3, 67904, Note_on_c, 0, 54, 0
3, 67904, Note_on_c, 0, 43, 108
3, 67904, Note_on_c, 0, 55, 108
3, 67968, Note_on_c, 0, 43, 0
3, 67968, Note_on_c, 0, 47, 0
3, 67968, Note_on_c, 0, 55, 0
3, 67968, Note_on_c, 0, 42, 127
3, 67968, Note_on_c, 0, 47, 127
3, 67968, Note_on_c, 0, 54, 127
3, 68032, Note_on_c, 0, 42, 0
3, 68032, Note_on_c, 0, 54, 0
3, 68032, Note_on_c, 0, 41, 108
3, 68032, Note_on_c, 0, 53, 108
3, 68096, Note_on_c, 0, 41, 0
3, 68096, Note_on_c, 0, 53, 0
3, 68096, Note_on_c, 0, 40, 108
3, 68096, Note_on_c, 0, 52, 108
3, 68160, Note_on_c, 0, 40, 0
3, 68160, Note_on_c, 0, 47, 0
3, 68160, Note_on_c, 0, 52, 0
3, 68160, Note_on_c, 0, 39, 127
3, 68160, Note_on_c, 0, 42, 127
3, 68160, Note_on_c, 0, 51, 127
3, 68224, Note_on_c, 0, 39, 0
3, 68224, Note_on_c, 0, 51, 0
3, 68224, Note_on_c, 0, 38, 108
3, 68224, Note_on_c, 0, 50, 108
3, 68288, Note_on_c, 0, 38, 0
3, 68288, Note_on_c, 0, 50, 0
3, 68288, Note_on_c, 0, 37, 108
3, 68288, Note_on_c, 0, 49, 108
3, 68352, Note_on_c, 0, 37, 0
3, 68352, Note_on_c, 0, 42, 0
3, 68352, Note_on_c, 0, 49, 0
3, 68352, Note_on_c, 0, 35, 127
3, 68352, Note_on_c, 0, 42, 127
3, 68352, Note_on_c, 0, 47, 127
3, 68512, Note_on_c, 0, 35, 0
3, 68512, Note_on_c, 0, 42, 0
3, 68512, Note_on_c, 0, 47, 0
3, 68544, Note_on_c, 0, 35, 127
3, 68544, Note_on_c, 0, 43, 127
3, 68544, Note_on_c, 0, 47, 127
3, 68608, Note_on_c, 0, 35, 0
3, 68608, Note_on_c, 0, 47, 0
3, 68608, Note_on_c, 0, 34, 92
3, 68608, Note_on_c, 0, 46, 92
3, 68672, Note_on_c, 0, 34, 0
3, 68672, Note_on_c, 0, 46, 0
3, 68672, Note_on_c, 0, 35, 92
3, 68672, Note_on_c, 0, 47, 92
3, 68736, Note_on_c, 0, 35, 0
3, 68736, Note_on_c, 0, 47, 0
3, 68736, Note_on_c, 0, 37, 92
3, 68736, Note_on_c, 0, 49, 92
3, 68800, Note_on_c, 0, 37, 0
3, 68800, Note_on_c, 0, 49, 0
3, 68800, Note_on_c, 0, 38, 92
3, 68800, Note_on_c, 0, 50, 92
3, 68864, Note_on_c, 0, 38, 0
3, 68864, Note_on_c, 0, 50, 0
3, 68864, Note_on_c, 0, 40, 92
3, 68864, Note_on_c, 0, 52, 92
3, 68928, Note_on_c, 0, 40, 0
3, 68928, Note_on_c, 0, 43, 0
3, 68928, Note_on_c, 0, 52, 0
3, 68928, Note_on_c, 0, 38, 92
3, 68928, Note_on_c, 0, 42, 92
3, 68928, Note_on_c, 0, 50, 92
3, 68992, Note_on_c, 0, 38, 0
3, 68992, Note_on_c, 0, 50, 0
3, 68992, Note_on_c, 0, 37, 92
3, 68992, Note_on_c, 0, 49, 92
3, 69056, Note_on_c, 0, 37, 0
3, 69056, Note_on_c, 0, 49, 0
3, 69056, Note_on_c, 0, 35, 92
3, 69056, Note_on_c, 0, 47, 92
3, 69120, Note_on_c, 0, 35, 0
3, 69120, Note_on_c, 0, 42, 0
3, 69120, Note_on_c, 0, 47, 0
3, 69120, Note_on_c, 0, 34, 92
3, 69120, Note_on_c, 0, 46, 92
3, 69184, Note_on_c, 0, 34, 0
3, 69184, Note_on_c, 0, 46, 0
3, 69184, Note_on_c, 0, 35, 92
3, 69184, Note_on_c, 0, 47, 92
3, 69248, Note_on_c, 0, 35, 0
3, 69248, Note_on_c, 0, 47, 0
3, 69248, Note_on_c, 0, 37, 92
3, 69248, Note_on_c, 0, 49, 92
3, 69310, Note_on_c, 0, 37, 0
3, 69310, Note_on_c, 0, 49, 0
3, 69312, Note_on_c, 0, 35, 127
3, 69312, Note_on_c, 0, 43, 127
3, 69312, Note_on_c, 0, 47, 127
3, 69376, Note_on_c, 0, 35, 0
3, 69376, Note_on_c, 0, 47, 0
3, 69376, Note_on_c, 0, 34, 92
3, 69376, Note_on_c, 0, 46, 92
3, 69440, Note_on_c, 0, 34, 0
3, 69440, Note_on_c, 0, 46, 0
3, 69440, Note_on_c, 0, 35, 92
3, 69440, Note_on_c, 0, 47, 92
3, 69504, Note_on_c, 0, 35, 0
3, 69504, Note_on_c, 0, 47, 0
3, 69504, Note_on_c, 0, 37, 92
3, 69504, Note_on_c, 0, 49, 92
3, 69568, Note_on_c, 0, 37, 0
3, 69568, Note_on_c, 0, 49, 0
3, 69568, Note_on_c, 0, 38, 92
3, 69568, Note_on_c, 0, 50, 92
3, 69632, Note_on_c, 0, 38, 0
3, 69632, Note_on_c, 0, 50, 0
3, 69632, Note_on_c, 0, 40, 92
3, 69632, Note_on_c, 0, 52, 92
3, 69696, Note_on_c, 0, 40, 0
3, 69696, Note_on_c, 0, 43, 0
3, 69696, Note_on_c, 0, 52, 0
3, 69696, Note_on_c, 0, 38, 92
3, 69696, Note_on_c, 0, 42, 92
3, 69696, Note_on_c, 0, 50, 92
3, 69760, Note_on_c, 0, 38, 0
3, 69760, Note_on_c, 0, 50, 0
3, 69760, Note_on_c, 0, 37, 92
3, 69760, Note_on_c, 0, 49, 92
3, 69824, Note_on_c, 0, 37, 0
3, 69824, Note_on_c, 0, 49, 0
3, 69824, Note_on_c, 0, 35, 92
3, 69824, Note_on_c, 0, 47, 92
3, 69888, Note_on_c, 0, 35, 0
3, 69888, Note_on_c, 0, 42, 0
3, 69888, Note_on_c, 0, 47, 0
3, 69888, Note_on_c, 0, 34, 92
3, 69888, Note_on_c, 0, 46, 92
3, 69952, Note_on_c, 0, 34, 0
3, 69952, Note_on_c, 0, 46, 0
3, 69952, Note_on_c, 0, 35, 92
3, 69952, Note_on_c, 0, 47, 92
3, 70016, Note_on_c, 0, 35, 0
3, 70016, Note_on_c, 0, 47, 0
3, 70016, Note_on_c, 0, 37, 92
3, 70016, Note_on_c, 0, 49, 92
3, 70078, Note_on_c, 0, 37, 0
3, 70078, Note_on_c, 0, 49, 0
3, 70080, Note_on_c, 0, 38, 127
3, 70080, Note_on_c, 0, 46, 127
3, 70080, Note_on_c, 0, 50, 127
3, 70144, Note_on_c, 0, 38, 0
3, 70144, Note_on_c, 0, 50, 0
3, 70144, Note_on_c, 0, 37, 92
3, 70144, Note_on_c, 0, 49, 92
3, 70208, Note_on_c, 0, 37, 0
3, 70208, Note_on_c, 0, 49, 0
3, 70208, Note_on_c, 0, 38, 92
3, 70208, Note_on_c, 0, 50, 92
3, 70272, Note_on_c, 0, 38, 0
3, 70272, Note_on_c, 0, 50, 0
3, 70272, Note_on_c, 0, 40, 92
3, 70272, Note_on_c, 0, 52, 92
3, 70336, Note_on_c, 0, 40, 0
3, 70336, Note_on_c, 0, 52, 0
3, 70336, Note_on_c, 0, 41, 92
3, 70336, Note_on_c, 0, 53, 92
3, 70400, Note_on_c, 0, 41, 0
3, 70400, Note_on_c, 0, 53, 0
3, 70400, Note_on_c, 0, 43, 92
3, 70400, Note_on_c, 0, 55, 92
3, 70464, Note_on_c, 0, 43, 0
3, 70464, Note_on_c, 0, 46, 0
3, 70464, Note_on_c, 0, 55, 0
3, 70464, Note_on_c, 0, 41, 92
3, 70464, Note_on_c, 0, 45, 92
3, 70464, Note_on_c, 0, 53, 92
3, 70528, Note_on_c, 0, 41, 0
3, 70528, Note_on_c, 0, 53, 0
3, 70528, Note_on_c, 0, 40, 92
3, 70528, Note_on_c, 0, 52, 92
3, 70592, Note_on_c, 0, 40, 0
3, 70592, Note_on_c, 0, 52, 0
3, 70592, Note_on_c, 0, 38, 92
3, 70592, Note_on_c, 0, 50, 92
3, 70656, Note_on_c, 0, 38, 0
3, 70656, Note_on_c, 0, 45, 0
3, 70656, Note_on_c, 0, 50, 0
3, 70656, Note_on_c, 0, 37, 92
3, 70656, Note_on_c, 0, 49, 92
3, 70720, Note_on_c, 0, 37, 0
3, 70720, Note_on_c, 0, 49, 0
3, 70720, Note_on_c, 0, 38, 92
3, 70720, Note_on_c, 0, 50, 92
3, 70784, Note_on_c, 0, 38, 0
3, 70784, Note_on_c, 0, 50, 0
3, 70784, Note_on_c, 0, 40, 92
3, 70784, Note_on_c, 0, 52, 92
3, 70846, Note_on_c, 0, 40, 0
3, 70846, Note_on_c, 0, 52, 0
3, 70848, Note_on_c, 0, 38, 127
3, 70848, Note_on_c, 0, 46, 127
3, 70848, Note_on_c, 0, 50, 127
3, 70912, Note_on_c, 0, 38, 0
3, 70912, Note_on_c, 0, 50, 0
3, 70912, Note_on_c, 0, 37, 92
3, 70912, Note_on_c, 0, 49, 92
3, 70976, Note_on_c, 0, 37, 0
3, 70976, Note_on_c, 0, 49, 0
3, 70976, Note_on_c, 0, 38, 92
3, 70976, Note_on_c, 0, 50, 92
3, 71040, Note_on_c, 0, 38, 0
3, 71040, Note_on_c, 0, 50, 0
3, 71040, Note_on_c, 0, 40, 92
3, 71040, Note_on_c, 0, 52, 92
3, 71104, Note_on_c, 0, 40, 0
3, 71104, Note_on_c, 0, 52, 0
3, 71104, Note_on_c, 0, 41, 92
3, 71104, Note_on_c, 0, 53, 92
3, 71168, Note_on_c, 0, 41, 0
3, 71168, Note_on_c, 0, 53, 0
3, 71168, Note_on_c, 0, 43, 92
3, 71168, Note_on_c, 0, 55, 92
3, 71232, Note_on_c, 0, 43, 0
3, 71232, Note_on_c, 0, 46, 0
3, 71232, Note_on_c, 0, 55, 0
3, 71232, Note_on_c, 0, 41, 92
3, 71232, Note_on_c, 0, 45, 92
3, 71232, Note_on_c, 0, 53, 92
3, 71296, Note_on_c, 0, 41, 0
3, 71296, Note_on_c, 0, 53, 0
3, 71296, Note_on_c, 0, 40, 92
3, 71296, Note_on_c, 0, 52, 92
3, 71360, Note_on_c, 0, 40, 0
3, 71360, Note_on_c, 0, 52, 0
3, 71360, Note_on_c, 0, 38, 92
3, 71360, Note_on_c, 0, 50, 92
3, 71424, Note_on_c, 0, 38, 0
3, 71424, Note_on_c, 0, 45, 0
3, 71424, Note_on_c, 0, 50, 0
3, 71424, Note_on_c, 0, 41, 127
3, 71424, Note_on_c, 0, 49, 127
3, 71424, Note_on_c, 0, 53, 127
3, 71488, Note_on_c, 0, 41, 0
3, 71488, Note_on_c, 0, 53, 0
3, 71488, Note_on_c, 0, 43, 93
3, 71488, Note_on_c, 0, 55, 93
3, 71552, Note_on_c, 0, 43, 0
3, 71552, Note_on_c, 0, 55, 0
3, 71552, Note_on_c, 0, 46, 94
3, 71552, Note_on_c, 0, 58, 94
3, 71616, Note_on_c, 0, 46, 0
3, 71616, Note_on_c, 0, 49, 0
3, 71616, Note_on_c, 0, 58, 0
3, 71616, Note_on_c, 0, 44, 95
3, 71616, Note_on_c, 0, 48, 95
3, 71616, Note_on_c, 0, 56, 95
3, 71680, Note_on_c, 0, 44, 0
3, 71680, Note_on_c, 0, 56, 0
3, 71680, Note_on_c, 0, 43, 96
3, 71680, Note_on_c, 0, 55, 96
3, 71744, Note_on_c, 0, 43, 0
3, 71744, Note_on_c, 0, 55, 0
3, 71744, Note_on_c, 0, 41, 97
3, 71744, Note_on_c, 0, 53, 97
3, 71808, Note_on_c, 0, 41, 0
3, 71808, Note_on_c, 0, 48, 0
3, 71808, Note_on_c, 0, 53, 0
3, 71808, Note_on_c, 0, 44, 127
3, 71808, Note_on_c, 0, 52, 127
3, 71808, Note_on_c, 0, 56, 127
3, 71872, Note_on_c, 0, 44, 0
3, 71872, Note_on_c, 0, 56, 0
3, 71872, Note_on_c, 0, 46, 99
3, 71872, Note_on_c, 0, 58, 99
3, 71936, Note_on_c, 0, 46, 0
3, 71936, Note_on_c, 0, 58, 0
3, 71936, Note_on_c, 0, 49, 100
3, 71936, Note_on_c, 0, 61, 100
3, 72000, Note_on_c, 0, 49, 0
3, 72000, Note_on_c, 0, 52, 0
3, 72000, Note_on_c, 0, 61, 0
3, 72000, Note_on_c, 0, 47, 101
3, 72000, Note_on_c, 0, 51, 101
3, 72000, Note_on_c, 0, 59, 101
3, 72064, Note_on_c, 0, 47, 0
3, 72064, Note_on_c, 0, 59, 0
3, 72064, Note_on_c, 0, 46, 102
3, 72064, Note_on_c, 0, 58, 102
3, 72128, Note_on_c, 0, 46, 0
3, 72128, Note_on_c, 0, 58, 0
3, 72128, Note_on_c, 0, 44, 103
3, 72128, Note_on_c, 0, 56, 103
3, 72192, Note_on_c, 0, 44, 0
3, 72192, Note_on_c, 0, 51, 0
3, 72192, Note_on_c, 0, 56, 0
3, 72192, Note_on_c, 0, 47, 127
3, 72192, Note_on_c, 0, 55, 127
3, 72192, Note_on_c, 0, 59, 127
3, 72256, Note_on_c, 0, 47, 0
3, 72256, Note_on_c, 0, 59, 0
3, 72256, Note_on_c, 0, 49, 105
3, 72256, Note_on_c, 0, 61, 105
3, 72320, Note_on_c, 0, 49, 0
3, 72320, Note_on_c, 0, 61, 0
3, 72320, Note_on_c, 0, 52, 106
3, 72320, Note_on_c, 0, 64, 106
3, 72384, Note_on_c, 0, 52, 0
3, 72384, Note_on_c, 0, 55, 0
3, 72384, Note_on_c, 0, 64, 0
3, 72384, Note_on_c, 0, 50, 107
3, 72384, Note_on_c, 0, 54, 107
3, 72384, Note_on_c, 0, 62, 107
3, 72448, Note_on_c, 0, 50, 0
3, 72448, Note_on_c, 0, 62, 0
3, 72448, Note_on_c, 0, 49, 108
3, 72448, Note_on_c, 0, 61, 108
3, 72512, Note_on_c, 0, 49, 0
3, 72512, Note_on_c, 0, 61, 0
3, 72512, Note_on_c, 0, 47, 109
3, 72512, Note_on_c, 0, 59, 109
3, 72576, Note_on_c, 0, 47, 0
3, 72576, Note_on_c, 0, 54, 0
3, 72576, Note_on_c, 0, 59, 0
3, 72576, Note_on_c, 0, 46, 110
3, 72576, Note_on_c, 0, 58, 110
3, 72640, Note_on_c, 0, 46, 0
3, 72640, Note_on_c, 0, 58, 0
3, 72640, Note_on_c, 0, 44, 111
3, 72640, Note_on_c, 0, 56, 111
3, 72704, Note_on_c, 0, 44, 0
3, 72704, Note_on_c, 0, 56, 0
3, 72704, Note_on_c, 0, 41, 113
3, 72704, Note_on_c, 0, 53, 113
3, 72768, Note_on_c, 0, 41, 0
3, 72768, Note_on_c, 0, 53, 0
3, 72768, Note_on_c, 0, 38, 115
3, 72768, Note_on_c, 0, 50, 115
3, 72832, Note_on_c, 0, 38, 0
3, 72832, Note_on_c, 0, 50, 0
3, 72832, Note_on_c, 0, 37, 117
3, 72832, Note_on_c, 0, 49, 117
3, 72896, Note_on_c, 0, 37, 0
3, 72896, Note_on_c, 0, 49, 0
3, 72896, Note_on_c, 0, 35, 119
3, 72896, Note_on_c, 0, 47, 119
3, 72960, Note_on_c, 0, 35, 0
3, 72960, Note_on_c, 0, 47, 0
3, 72960, Note_on_c, 0, 33, 121
3, 72960, Note_on_c, 0, 45, 121
3, 73024, Note_on_c, 0, 33, 0
3, 73024, Note_on_c, 0, 45, 0
3, 73024, Note_on_c, 0, 32, 123
3, 73024, Note_on_c, 0, 44, 123
3, 73088, Note_on_c, 0, 32, 0
3, 73088, Note_on_c, 0, 44, 0
3, 73088, Note_on_c, 0, 31, 125
3, 73088, Note_on_c, 0, 43, 125
3, 73152, Note_on_c, 0, 31, 0
3, 73152, Note_on_c, 0, 43, 0
3, 73152, Note_on_c, 0, 30, 127
3, 73152, Note_on_c, 0, 42, 127
3, 73216, Note_on_c, 0, 30, 0
3, 73216, Note_on_c, 0, 42, 0
3, 73216, Note_on_c, 0, 34, 127
3, 73216, Note_on_c, 0, 46, 127
3, 73280, Note_on_c, 0, 34, 0
3, 73280, Note_on_c, 0, 46, 0
3, 73280, Note_on_c, 0, 35, 127
3, 73280, Note_on_c, 0, 47, 127
3, 73344, Note_on_c, 0, 35, 0
3, 73344, Note_on_c, 0, 47, 0
3, 73344, Note_on_c, 0, 36, 127
3, 73344, Note_on_c, 0, 48, 127
3, 73408, Note_on_c, 0, 36, 0
3, 73408, Note_on_c, 0, 48, 0
3, 73408, Note_on_c, 0, 37, 127
3, 73408, Note_on_c, 0, 49, 127
3, 73472, Note_on_c, 0, 37, 0
3, 73472, Note_on_c, 0, 49, 0
3, 73472, Note_on_c, 0, 38, 127
3, 73472, Note_on_c, 0, 50, 127
3, 73536, Note_on_c, 0, 38, 0
3, 73536, Note_on_c, 0, 50, 0
3, 73536, Note_on_c, 0, 37, 127
3, 73536, Note_on_c, 0, 49, 127
3, 73600, Note_on_c, 0, 37, 0
3, 73600, Note_on_c, 0, 49, 0
3, 73600, Note_on_c, 0, 36, 127
3, 73600, Note_on_c, 0, 48, 127
3, 73664, Note_on_c, 0, 36, 0
3, 73664, Note_on_c, 0, 48, 0
3, 73664, Note_on_c, 0, 37, 127
3, 73664, Note_on_c, 0, 49, 127
3, 73728, Note_on_c, 0, 37, 0
3, 73728, Note_on_c, 0, 49, 0
3, 73728, Note_on_c, 0, 38, 127
3, 73728, Note_on_c, 0, 50, 127
3, 73792, Note_on_c, 0, 38, 0
3, 73792, Note_on_c, 0, 50, 0
3, 73792, Note_on_c, 0, 39, 127
3, 73792, Note_on_c, 0, 51, 127
3, 73856, Note_on_c, 0, 39, 0
3, 73856, Note_on_c, 0, 51, 0
3, 73856, Note_on_c, 0, 40, 127
3, 73856, Note_on_c, 0, 52, 127
3, 73920, Note_on_c, 0, 40, 0
3, 73920, Note_on_c, 0, 52, 0
3, 73920, Note_on_c, 0, 39, 127
3, 73920, Note_on_c, 0, 51, 127
3, 73984, Note_on_c, 0, 39, 0
3, 73984, Note_on_c, 0, 51, 0
3, 73984, Note_on_c, 0, 38, 127
3, 73984, Note_on_c, 0, 50, 127
3, 74048, Note_on_c, 0, 38, 0
3, 74048, Note_on_c, 0, 50, 0
3, 74048, Note_on_c, 0, 39, 127
3, 74048, Note_on_c, 0, 51, 127
3, 74112, Note_on_c, 0, 39, 0
3, 74112, Note_on_c, 0, 51, 0
3, 74112, Note_on_c, 0, 40, 127
3, 74112, Note_on_c, 0, 52, 127
3, 74176, Note_on_c, 0, 40, 0
3, 74176, Note_on_c, 0, 52, 0
3, 74176, Note_on_c, 0, 41, 127
3, 74176, Note_on_c, 0, 53, 127
3, 74240, Note_on_c, 0, 41, 0
3, 74240, Note_on_c, 0, 53, 0
3, 74240, Note_on_c, 0, 42, 127
3, 74240, Note_on_c, 0, 54, 127
3, 74304, Note_on_c, 0, 42, 0
3, 74304, Note_on_c, 0, 54, 0
3, 74304, Note_on_c, 0, 41, 127
3, 74304, Note_on_c, 0, 53, 127
3, 74368, Note_on_c, 0, 41, 0
3, 74368, Note_on_c, 0, 53, 0
3, 74368, Note_on_c, 0, 40, 127
3, 74368, Note_on_c, 0, 52, 127
3, 74432, Note_on_c, 0, 40, 0
3, 74432, Note_on_c, 0, 52, 0
3, 74432, Note_on_c, 0, 41, 127
3, 74432, Note_on_c, 0, 53, 127
3, 74496, Note_on_c, 0, 41, 0
3, 74496, Note_on_c, 0, 53, 0
3, 74496, Note_on_c, 0, 42, 127
3, 74496, Note_on_c, 0, 54, 127
3, 74560, Note_on_c, 0, 42, 0
3, 74560, Note_on_c, 0, 54, 0
3, 74560, Note_on_c, 0, 43, 127
3, 74560, Note_on_c, 0, 55, 127
3, 74624, Note_on_c, 0, 43, 0
3, 74624, Note_on_c, 0, 55, 0
3, 74624, Note_on_c, 0, 44, 127
3, 74624, Note_on_c, 0, 56, 127
3, 74688, Note_on_c, 0, 44, 0
3, 74688, Note_on_c, 0, 56, 0
3, 74688, Note_on_c, 0, 43, 127
3, 74688, Note_on_c, 0, 55, 127
3, 74752, Note_on_c, 0, 43, 0
3, 74752, Note_on_c, 0, 55, 0
3, 74752, Note_on_c, 0, 42, 127
3, 74752, Note_on_c, 0, 54, 127
3, 74816, Note_on_c, 0, 42, 0
3, 74816, Note_on_c, 0, 54, 0
3, 74816, Note_on_c, 0, 43, 127
3, 74816, Note_on_c, 0, 55, 127
3, 74880, Note_on_c, 0, 43, 0
3, 74880, Note_on_c, 0, 55, 0
3, 74880, Note_on_c, 0, 44, 127
3, 74880, Note_on_c, 0, 56, 127
3, 74944, Note_on_c, 0, 44, 0
3, 74944, Note_on_c, 0, 56, 0
3, 74944, Note_on_c, 0, 45, 127
3, 74944, Note_on_c, 0, 57, 127
3, 75008, Note_on_c, 0, 45, 0
3, 75008, Note_on_c, 0, 57, 0
3, 75008, Note_on_c, 0, 46, 127
3, 75008, Note_on_c, 0, 58, 127
3, 75072, Note_on_c, 0, 46, 0
3, 75072, Note_on_c, 0, 58, 0
3, 75072, Note_on_c, 0, 47, 127
3, 75072, Note_on_c, 0, 59, 127
3, 75136, Note_on_c, 0, 47, 0
3, 75136, Note_on_c, 0, 59, 0
3, 75136, Note_on_c, 0, 46, 127
3, 75136, Note_on_c, 0, 58, 127
3, 75200, Note_on_c, 0, 46, 0
3, 75200, Note_on_c, 0, 58, 0
3, 75200, Note_on_c, 0, 47, 127
3, 75200, Note_on_c, 0, 59, 127
3, 75264, Note_on_c, 0, 47, 0
3, 75264, Note_on_c, 0, 59, 0
3, 75264, Note_on_c, 0, 48, 127
3, 75264, Note_on_c, 0, 60, 127
3, 75328, Note_on_c, 0, 48, 0
3, 75328, Note_on_c, 0, 60, 0
3, 75328, Note_on_c, 0, 49, 127
3, 75328, Note_on_c, 0, 61, 127
3, 75392, Note_on_c, 0, 49, 0
3, 75392, Note_on_c, 0, 61, 0
3, 75392, Note_on_c, 0, 50, 127
3, 75392, Note_on_c, 0, 62, 127
3, 75456, Note_on_c, 0, 50, 0
3, 75456, Note_on_c, 0, 62, 0
3, 75456, Note_on_c, 0, 54, 127
3, 75456, Note_on_c, 0, 61, 127
3, 75456, Note_on_c, 0, 66, 127
3, 75840, Note_on_c, 0, 54, 0
3, 75840, Note_on_c, 0, 61, 0
3, 75840, Note_on_c, 0, 66, 0
3, 75840, Note_on_c, 0, 42, 127
3, 75840, Note_on_c, 0, 49, 127
3, 75840, Note_on_c, 0, 54, 127
3, 76224, Note_on_c, 0, 42, 0
3, 76224, Note_on_c, 0, 49, 0
3, 76224, Note_on_c, 0, 54, 0
3, 76224, Note_on_c, 0, 35, 127
3, 76224, Note_on_c, 0, 42, 127
3, 76224, Note_on_c, 0, 47, 127
3, 77712, Note_on_c, 0, 35, 0
3, 77712, Note_on_c, 0, 42, 0
3, 77712, Note_on_c, 0, 47, 0
3, 77712, End_track
0, 0, End_of_file