0, 0, Header, 1, 6, 120
1, 0, Start_track
1, 0, Time_signature, 4, 2, 24, 8
1, 0, Key_signature, 0, "major"
1, 0, Tempo, 389610
1, 10, Tempo, 397351
1, 20, Tempo, 405405
1, 30, Tempo, 410959
1, 40, Tempo, 419580
1, 50, Tempo, 428571
1, 60, Tempo, 434783
1, 70, Tempo, 444444
1, 80, Tempo, 451128
1, 90, Tempo, 461538
1, 100, Tempo, 472441
1, 110, Tempo, 480000
1, 120, Tempo, 491803
1, 130, Tempo, 500000
1, 140, Tempo, 512821
1, 150, Tempo, 526316
1, 160, Tempo, 535714
1, 170, Tempo, 550459
1, 180, Tempo, 560748
1, 190, Tempo, 845070
1, 195, Tempo, 1363636
1, 200, Tempo, 659341
1, 205, Tempo, 625000
1, 210, Tempo, 594059
1, 215, Tempo, 566038
1, 220, Tempo, 540541
1, 240, Tempo, 419580
1, 260, Tempo, 416667
1, 280, Tempo, 413793
1, 300, Tempo, 410959
1, 320, Tempo, 408163
1, 340, Tempo, 405405
1, 360, Tempo, 402685
1, 380, Tempo, 400000
1, 400, Tempo, 397351
1, 420, Tempo, 394737
1, 440, Tempo, 392157
1, 460, Tempo, 389610
1, 475, Tempo, 387097
1, 480, Tempo, 545455
1, 665, Tempo, 789474
1, 670, Tempo, 845070
1, 675, Tempo, 1363636
1, 680, Tempo, 659341
1, 685, Tempo, 625000
1, 690, Tempo, 594059
1, 695, Tempo, 566038
1, 700, Tempo, 540541
1, 720, Tempo, 419580
1, 740, Tempo, 416667
1, 760, Tempo, 413793
1, 780, Tempo, 410959
1, 800, Tempo, 408163
1, 820, Tempo, 405405
1, 840, Tempo, 402685
1, 860, Tempo, 400000
1, 880, Tempo, 397351
1, 900, Tempo, 394737
1, 920, Tempo, 392157
1, 940, Tempo, 389610
1, 955, Tempo, 387097
1, 960, Tempo, 545455
1, 1360, Tempo, 810811
1, 1390, Tempo, 1500000
1, 1410, Tempo, 1428571
1, 1415, Tempo, 1090909
1, 1420, Tempo, 882353
1, 1425, Tempo, 740741
1, 1430, Tempo, 638298
1, 1435, Tempo, 555556
1, 1455, Tempo, 535714
1, 1470, Tempo, 530973
1, 1485, Tempo, 526316
1, 1505, Tempo, 521739
1, 1520, Tempo, 517241
1, 1535, Tempo, 512821
1, 1555, Tempo, 508475
1, 1570, Tempo, 504202
1, 1585, Tempo, 500000
1, 1605, Tempo, 495868
1, 1620, Tempo, 491803
1, 1635, Tempo, 487805
1, 1650, Tempo, 483871
1, 1690, Tempo, 476190
1, 1770, Tempo, 472441
1, 1855, Tempo, 468750
1, 1935, Tempo, 465116
1, 2020, Tempo, 461538
1, 2040, Tempo, 545455
1, 2195, Tempo, 821918
1, 2200, Tempo, 779221
1, 2205, Tempo, 740741
1, 2210, Tempo, 705882
1, 2215, Tempo, 674157
1, 2220, Tempo, 645161
1, 2225, Tempo, 618557
1, 2230, Tempo, 594059
1, 2235, Tempo, 571429
1, 2240, Tempo, 545455
1, 2280, Tempo, 422535
1, 2315, Tempo, 419580
1, 2350, Tempo, 416667
1, 2385, Tempo, 413793
1, 2415, Tempo, 410959
1, 2450, Tempo, 408163
1, 2485, Tempo, 405405
1, 2515, Tempo, 402685
1, 2525, Tempo, 545455
1, 3005, Tempo, 895522
1, 3010, Tempo, 1538462
1, 3015, Tempo, 1363636
1, 3020, Tempo, 1200000
1, 3025, Tempo, 1090909
1, 3030, Tempo, 983607
1, 3035, Tempo, 895522
1, 3055, Tempo, 461538
1, 3095, Tempo, 458015
1, 3130, Tempo, 454545
1, 3165, Tempo, 451128
1, 3200, Tempo, 447761
1, 3235, Tempo, 444444
1, 3270, Tempo, 441176
1, 3305, Tempo, 437956
1, 3340, Tempo, 434783
1, 3380, Tempo, 431655
1, 3415, Tempo, 428571
1, 3450, Tempo, 425532
1, 3485, Tempo, 422535
1, 3520, Tempo, 419580
1, 3555, Tempo, 416667
1, 3590, Tempo, 413793
1, 3625, Tempo, 410959
1, 3660, Tempo, 408163
1, 3680, Tempo, 967742
1, 3790, Tempo, 521739
1, 3840, Tempo, 419580
1, 3845, Tempo, 394737
1, 3885, Tempo, 392157
1, 3925, Tempo, 389610
1, 3965, Tempo, 387097
1, 4005, Tempo, 384615
1, 4045, Tempo, 382166
1, 4080, Tempo, 545455
1, 4680, Tempo, 422535
1, 4730, Tempo, 419580
1, 4775, Tempo, 416667
1, 4825, Tempo, 413793
1, 4870, Tempo, 410959
1, 4915, Tempo, 408163
1, 4920, Tempo, 545455
1, 5405, Tempo, 821918
1, 5410, Tempo, 789474
1, 5415, Tempo, 750000
1, 5420, Tempo, 714286
1, 5425, Tempo, 689655
1, 5430, Tempo, 659341
1, 5435, Tempo, 631579
1, 5440, Tempo, 612245
1, 5445, Tempo, 588235
1, 5450, Tempo, 566038
1, 5455, Tempo, 545455
1, 6005, Tempo, 545455
1, 6105, Tempo, 550459
1, 6205, Tempo, 555556
1, 6300, Tempo, 560748
1, 6400, Tempo, 566038
1, 6495, Tempo, 571429
1, 6595, Tempo, 576923
1, 6690, Tempo, 582524
1, 6790, Tempo, 588235
1, 6885, Tempo, 594059
1, 6985, Tempo, 600000
1, 7080, Tempo, 545455
1, 7445, Tempo, 769231
1, 7450, Tempo, 731707
1, 7455, Tempo, 689655
1, 7460, Tempo, 659341
1, 7465, Tempo, 625000
1, 7470, Tempo, 600000
1, 7475, Tempo, 571429
1, 7480, Tempo, 545455
1, 7885, Tempo, 740741
1, 7890, Tempo, 697674
1, 7895, Tempo, 652174
1, 7900, Tempo, 612245
1, 7905, Tempo, 576923
1, 7910, Tempo, 545455
1, 8330, Tempo, 606061
1, 8525, Tempo, 545455
1, 9220, Tempo, 882353
1, 9225, Tempo, 789474
1, 9230, Tempo, 714286
1, 9235, Tempo, 645161
1, 9240, Tempo, 594059
1, 9245, Tempo, 545455
1, 13465, Tempo, 833333
1, 13470, Tempo, 789474
1, 13475, Tempo, 740741
1, 13480, Tempo, 697674
1, 13485, Tempo, 659341
1, 13490, Tempo, 625000
1, 13495, Tempo, 594059
1, 13500, Tempo, 566038
1, 13505, Tempo, 540541
1, 13550, Tempo, 487805
1, 13605, Tempo, 483871
1, 13660, Tempo, 480000
1, 13715, Tempo, 476190
1, 13770, Tempo, 472441
1, 13825, Tempo, 468750
1, 13880, Tempo, 465116
1, 13935, Tempo, 461538
1, 13990, Tempo, 458015
1, 14040, Tempo, 674157
1, 14045, Tempo, 666667
1, 14050, Tempo, 659341
1, 14055, Tempo, 652174
1, 14060, Tempo, 645161
1, 14065, Tempo, 638298
1, 14070, Tempo, 625000
1, 14075, Tempo, 618557
1, 14080, Tempo, 612245
1, 14085, Tempo, 606061
1, 14090, Tempo, 600000
1, 14095, Tempo, 594059
1, 14100, Tempo, 582524
1, 14105, Tempo, 576923
1, 14110, Tempo, 571429
1, 14115, Tempo, 566038
1, 14120, Tempo, 560748
1, 14125, Tempo, 555556
1, 14130, Tempo, 545455
1, 14970, Tempo, 759494
1, 14975, Tempo, 740741
1, 14980, Tempo, 722892
1, 14985, Tempo, 705882
1, 14990, Tempo, 681818
1, 14995, Tempo, 666667
1, 15000, Tempo, 652174
1, 15005, Tempo, 638298
1, 15010, Tempo, 618557
1, 15015, Tempo, 606061
1, 15020, Tempo, 594059
1, 15025, Tempo, 576923
1, 15310, Tempo, 731707
1, 15315, Tempo, 714286
1, 15320, Tempo, 697674
1, 15325, Tempo, 681818
1, 15330, Tempo, 666667
1, 15335, Tempo, 659341
1, 15340, Tempo, 645161
1, 15345, Tempo, 631579
1, 15350, Tempo, 618557
1, 15355, Tempo, 606061
1, 15360, Tempo, 594059
1, 15365, Tempo, 582524
1, 15370, Tempo, 571429
1, 16200, Tempo, 612245
1, 16310, Tempo, 571429
1, 17755, Tempo, 540541
1, 17850, Tempo, 535714
1, 17945, Tempo, 530973
1, 18035, Tempo, 526316
1, 18045, Tempo, 526316
1, 18575, Tempo, 530973
1, 18590, Tempo, 571429
1, 19665, Tempo, 821918
1, 19670, Tempo, 779221
1, 19675, Tempo, 740741
1, 19680, Tempo, 705882
1, 19685, Tempo, 674157
1, 19690, Tempo, 645161
1, 19695, Tempo, 618557
1, 19700, Tempo, 594059
1, 19705, Tempo, 571429
1, 21160, Tempo, 821918
1, 21165, Tempo, 779221
1, 21170, Tempo, 740741
1, 21175, Tempo, 705882
1, 21180, Tempo, 674157
1, 21185, Tempo, 645161
1, 21190, Tempo, 618557
1, 21195, Tempo, 594059
1, 21200, Tempo, 571429
1, 21240, Tempo, 491803
1, 21275, Tempo, 487805
1, 21305, Tempo, 483871
1, 21335, Tempo, 480000
1, 21365, Tempo, 476190
1, 21395, Tempo, 472441
1, 21425, Tempo, 468750
1, 21455, Tempo, 465116
1, 21485, Tempo, 461538
1, 21515, Tempo, 458015
1, 21545, Tempo, 454545
1, 21575, Tempo, 451128
1, 21605, Tempo, 447761
1, 21635, Tempo, 444444
1, 21665, Tempo, 441176
1, 21695, Tempo, 437956
1, 21720, Tempo, 571429
1, 21725, Tempo, 571429
1, 23010, Tempo, 882353
1, 23015, Tempo, 857143
1, 23020, Tempo, 833333
1, 23025, Tempo, 810811
1, 23030, Tempo, 789474
1, 23035, Tempo, 769231
1, 23040, Tempo, 740741
1, 23045, Tempo, 722892
1, 23050, Tempo, 705882
1, 23055, Tempo, 689655
1, 23060, Tempo, 674157
1, 23065, Tempo, 659341
1, 23070, Tempo, 638298
1, 23075, Tempo, 625000
1, 23080, Tempo, 612245
1, 23085, Tempo, 600000
1, 23090, Tempo, 588235
1, 23095, Tempo, 571429
1, 23131, Tempo, 500000
1, 24845, Tempo, 465116
1, 24880, Tempo, 461538
1, 24915, Tempo, 458015
1, 24950, Tempo, 454545
1, 24985, Tempo, 451128
1, 25020, Tempo, 447761
1, 25055, Tempo, 444444
1, 25090, Tempo, 441176
1, 25120, Tempo, 500000
1, 27240, Tempo, 560748
1, 27385, Tempo, 500000
1, 32006, Tempo, 571429
1, 32325, Tempo, 967742
1, 32330, Tempo, 869565
1, 32335, Tempo, 789474
1, 32340, Tempo, 722892
1, 32345, Tempo, 666667
1, 32350, Tempo, 618557
1, 32355, Tempo, 571429
1, 32600, Tempo, 983607
1, 32605, Tempo, 869565
1, 32610, Tempo, 769231
1, 32615, Tempo, 689655
1, 32620, Tempo, 625000
1, 32625, Tempo, 571429
1, 32805, Tempo, 1000000
1, 32810, Tempo, 869565
1, 32815, Tempo, 769231
1, 32820, Tempo, 689655
1, 32825, Tempo, 625000
1, 32830, Tempo, 566038
1, 33155, Tempo, 638298
1, 33185, Tempo, 1363636
1, 33190, Tempo, 1153846
1, 33195, Tempo, 983607
1, 33200, Tempo, 869565
1, 33205, Tempo, 769231
1, 33210, Tempo, 697674
1, 33215, Tempo, 631579
1, 33225, Tempo, 582524
1, 33250, Tempo, 588235
1, 33275, Tempo, 594059
1, 33300, Tempo, 600000
1, 33325, Tempo, 606061
1, 33350, Tempo, 612245
1, 33375, Tempo, 618557
1, 33400, Tempo, 625000
1, 33425, Tempo, 631579
1, 33440, Tempo, 631579
1, 33465, Tempo, 625000
1, 33490, Tempo, 618557
1, 33515, Tempo, 612245
1, 33540, Tempo, 606061
1, 33565, Tempo, 600000
1, 33590, Tempo, 594059
1, 33615, Tempo, 588235
1, 33640, Tempo, 582524
1, 33665, Tempo, 576923
1, 33685, Tempo, 571429
1, 34130, Tempo, 1111111
1, 34135, Tempo, 937500
1, 34140, Tempo, 810811
1, 34145, Tempo, 714286
1, 34150, Tempo, 638298
1, 34155, Tempo, 571429
1, 34535, Tempo, 1224490
1, 34540, Tempo, 967742
1, 34545, Tempo, 789474
1, 34550, Tempo, 666667
1, 34555, Tempo, 576923
1, 34695, Tempo, 540541
1, 34770, Tempo, 535714
1, 34840, Tempo, 530973
1, 34910, Tempo, 526316
1, 34980, Tempo, 521739
1, 35055, Tempo, 517241
1, 35125, Tempo, 512821
1, 35195, Tempo, 508475
1, 35265, Tempo, 504202
1, 35285, Tempo, 526316
1, 35345, Tempo, 521739
1, 35405, Tempo, 517241
1, 35465, Tempo, 512821
1, 35520, Tempo, 571429
1, 37580, Tempo, 759494
1, 37585, Tempo, 731707
1, 37590, Tempo, 697674
1, 37595, Tempo, 666667
1, 37600, Tempo, 645161
1, 37605, Tempo, 618557
1, 37610, Tempo, 594059
1, 37615, Tempo, 571429
1, 38165, Tempo, 480000
1, 38255, Tempo, 476190
1, 38345, Tempo, 472441
1, 38435, Tempo, 468750
1, 38525, Tempo, 465116
1, 38615, Tempo, 461538
1, 38705, Tempo, 458015
1, 38795, Tempo, 454545
1, 38880, Tempo, 571429
1, 40201, Tempo, 545455
1, 41305, Tempo, 476190
1, 47185, Tempo, 476190
1, 47785, Tempo, 480000
1, 48385, Tempo, 483871
1, 48395, Tempo, 483871
1, 48440, Tempo, 487805
1, 48490, Tempo, 491803
1, 48535, Tempo, 495868
1, 48580, Tempo, 500000
1, 48625, Tempo, 504202
1, 48720, Tempo, 535714
1, 48740, Tempo, 540541
1, 48755, Tempo, 545455
1, 48770, Tempo, 550459
1, 48785, Tempo, 555556
1, 48800, Tempo, 560748
1, 48815, Tempo, 566038
1, 48820, Tempo, 612245
1, 48925, Tempo, 566038
1, 49100, Tempo, 480000
1, 49685, Tempo, 521739
1, 49900, Tempo, 487805
1, 50175, Tempo, 476190
1, 52075, Tempo, 483871
1, 52165, Tempo, 480000
1, 52250, Tempo, 476190
1, 52335, Tempo, 472441
1, 52425, Tempo, 468750
1, 52510, Tempo, 465116
1, 52595, Tempo, 461538
1, 52680, Tempo, 458015
1, 57220, Tempo, 458015
1, 57270, Tempo, 461538
1, 57310, Tempo, 465116
1, 57350, Tempo, 468750
1, 57380, Tempo, 472441
1, 57480, Tempo, 476190
1, 57510, Tempo, 480000
1, 57520, Tempo, 483871
1, 57530, Tempo, 487805
1, 57540, Tempo, 491803
1, 57580, Tempo, 495868
1, 57600, Tempo, 500000
1, 57610, Tempo, 504202
1, 57660, Tempo, 508475
1, 57690, Tempo, 521739
1, 57710, Tempo, 504202
1, 57730, Tempo, 500000
1, 57750, Tempo, 495868
1, 57770, Tempo, 491803
1, 57790, Tempo, 487805
1, 57810, Tempo, 483871
1, 57830, Tempo, 480000
1, 58250, Tempo, 571429
1, 58255, Tempo, 555556
1, 58260, Tempo, 535714
1, 58265, Tempo, 521739
1, 58270, Tempo, 504202
1, 58275, Tempo, 491803
1, 58280, Tempo, 476190
1, 59265, Tempo, 444444
1, 59620, Tempo, 480000
1, 62377, Tempo, 500000
1, 63545, Tempo, 588235
1, 63960, Tempo, 504202
1, 69547, Tempo, 521739
1, 69725, Tempo, 521739
1, 69755, Tempo, 517241
1, 69785, Tempo, 512821
1, 69815, Tempo, 508475
1, 69845, Tempo, 504202
1, 69870, Tempo, 500000
1, 69900, Tempo, 495868
1, 69925, Tempo, 550459
1, 70080, Tempo, 504202
1, 70125, Tempo, 508475
1, 70170, Tempo, 512821
1, 70215, Tempo, 517241
1, 70255, Tempo, 521739
1, 70300, Tempo, 526316
1, 70345, Tempo, 530973
1, 70390, Tempo, 535714
1, 70430, Tempo, 540541
1, 70475, Tempo, 545455
1, 70520, Tempo, 550459
1, 70560, Tempo, 508475
1, 70600, Tempo, 512821
1, 70640, Tempo, 517241
1, 70680, Tempo, 521739
1, 70720, Tempo, 526316
1, 70760, Tempo, 530973
1, 70800, Tempo, 535714
1, 70840, Tempo, 540541
1, 70880, Tempo, 545455
1, 70920, Tempo, 550459
1, 70960, Tempo, 555556
1, 71000, Tempo, 560748
1, 71040, Tempo, 566038
1, 71045, Tempo, 500000
1, 71080, Tempo, 504202
1, 71110, Tempo, 508475
1, 71145, Tempo, 512821
1, 71175, Tempo, 517241
1, 71210, Tempo, 521739
1, 71240, Tempo, 526316
1, 71275, Tempo, 530973
1, 71305, Tempo, 535714
1, 71340, Tempo, 540541
1, 71370, Tempo, 545455
1, 71405, Tempo, 550459
1, 71435, Tempo, 555556
1, 71470, Tempo, 560748
1, 71500, Tempo, 566038
1, 71520, Tempo, 495868
1, 71555, Tempo, 500000
1, 71585, Tempo, 504202
1, 71620, Tempo, 508475
1, 71650, Tempo, 512821
1, 71680, Tempo, 517241
1, 71715, Tempo, 521739
1, 71745, Tempo, 526316
1, 71780, Tempo, 530973
1, 71810, Tempo, 535714
1, 71840, Tempo, 540541
1, 71875, Tempo, 545455
1, 71905, Tempo, 550459
1, 71940, Tempo, 555556
1, 71970, Tempo, 560748
1, 72000, Tempo, 504202
1, 72040, Tempo, 508475
1, 72075, Tempo, 512821
1, 72115, Tempo, 517241
1, 72150, Tempo, 521739
1, 72185, Tempo, 526316
1, 72225, Tempo, 530973
1, 72260, Tempo, 535714
1, 72300, Tempo, 540541
1, 72335, Tempo, 545455
1, 72370, Tempo, 550459
1, 72410, Tempo, 555556
1, 72445, Tempo, 560748
1, 72475, Tempo, 500000
1, 72510, Tempo, 504202
1, 72545, Tempo, 508475
1, 72580, Tempo, 512821
1, 72615, Tempo, 517241
1, 72650, Tempo, 521739
1, 72685, Tempo, 526316
1, 72720, Tempo, 530973
1, 72755, Tempo, 535714
1, 72790, Tempo, 540541
1, 72825, Tempo, 545455
1, 72860, Tempo, 550459
1, 72895, Tempo, 555556
1, 72930, Tempo, 560748
1, 72960, Tempo, 566038
1, 72965, Tempo, 500000
1, 73000, Tempo, 504202
1, 73035, Tempo, 508475
1, 73070, Tempo, 512821
1, 73105, Tempo, 517241
1, 73135, Tempo, 521739
1, 73170, Tempo, 526316
1, 73205, Tempo, 530973
1, 73240, Tempo, 535714
1, 73275, Tempo, 540541
1, 73305, Tempo, 545455
1, 73340, Tempo, 550459
1, 73375, Tempo, 555556
1, 73410, Tempo, 560748
1, 73440, Tempo, 566038
1, 73800, Tempo, 571429
1, 74150, Tempo, 576923
1, 74510, Tempo, 582524
1, 74860, Tempo, 588235
1, 75210, Tempo, 594059
1, 75230, Tempo, 618557
1, 75270, Tempo, 612245
1, 75285, Tempo, 500000
1, 75305, Tempo, 504202
1, 75320, Tempo, 508475
1, 75335, Tempo, 512821
1, 75355, Tempo, 517241
1, 75370, Tempo, 521739
1, 75385, Tempo, 526316
1, 75400, Tempo, 530973
1, 75420, Tempo, 535714
1, 75435, Tempo, 540541
1, 75440, Tempo, 540541
1, 75445, Tempo, 555556
1, 75450, Tempo, 576923
1, 75455, Tempo, 600000
1, 75460, Tempo, 625000
1, 75465, Tempo, 652174
1, 75470, Tempo, 681818
1, 75475, Tempo, 714286
1, 75485, Tempo, 555556
1, 75500, Tempo, 560748
1, 75515, Tempo, 566038
1, 75530, Tempo, 571429
1, 75830, Tempo, 810811
1, 75835, Tempo, 759494
1, 75840, Tempo, 714286
1, 75845, Tempo, 674157
1, 75850, Tempo, 638298
1, 75855, Tempo, 606061
1, 75860, Tempo, 571429
1, 76080, Tempo, 800000
1, 76085, Tempo, 731707
1, 76090, Tempo, 674157
1, 76095, Tempo, 625000
1, 76100, Tempo, 576923
1, 76285, Tempo, 769231
1, 76290, Tempo, 731707
1, 76295, Tempo, 689655
1, 76300, Tempo, 659341
1, 76305, Tempo, 625000
1, 76310, Tempo, 600000
1, 76315, Tempo, 571429
1, 76680, Tempo, 882353
1, 76685, Tempo, 833333
1, 76690, Tempo, 779221
1, 76695, Tempo, 740741
1, 76700, Tempo, 697674
1, 76705, Tempo, 666667
1, 76710, Tempo, 631579
1, 77040, Tempo, 571429
1, 78240, Tempo, 566038
1, 78290, Tempo, 560748
1, 78340, Tempo, 555556
1, 78390, Tempo, 550459
1, 78440, Tempo, 545455
1, 78490, Tempo, 540541
1, 78535, Tempo, 535714
1, 78585, Tempo, 530973
1, 78635, Tempo, 526316
1, 78685, Tempo, 521739
1, 78735, Tempo, 517241
1, 78785, Tempo, 512821
1, 78830, Tempo, 508475
1, 78880, Tempo, 504202
1, 78930, Tempo, 500000
1, 78980, Tempo, 495868
1, 79030, Tempo, 491803
1, 79075, Tempo, 487805
1, 79095, Tempo, 571429
1, 81115, Tempo, 681818
1, 81150, Tempo, 571429
1, 81210, Tempo, 566038
1, 81265, Tempo, 560748
1, 81325, Tempo, 555556
1, 81380, Tempo, 550459
1, 81440, Tempo, 545455
1, 81495, Tempo, 540541
1, 81550, Tempo, 535714
1, 81610, Tempo, 530973
1, 81665, Tempo, 526316
1, 81725, Tempo, 521739
1, 81780, Tempo, 517241
1, 81800, Tempo, 512821
1, 81820, Tempo, 508475
1, 81835, Tempo, 504202
1, 81850, Tempo, 500000
1, 81865, Tempo, 495868
1, 81880, Tempo, 491803
1, 81895, Tempo, 487805
1, 81910, Tempo, 483871
1, 81925, Tempo, 480000
1, 81940, Tempo, 476190
1, 81955, Tempo, 472441
1, 81970, Tempo, 468750
1, 81985, Tempo, 465116
1, 82000, Tempo, 461538
1, 82015, Tempo, 458015
1, 82030, Tempo, 454545
1, 82045, Tempo, 451128
1, 82060, Tempo, 447761
1, 82075, Tempo, 444444
1, 82090, Tempo, 441176
1, 82105, Tempo, 437956
1, 82120, Tempo, 434783
1, 82135, Tempo, 431655
1, 82150, Tempo, 428571
1, 82165, Tempo, 425532
1, 82180, Tempo, 422535
1, 82195, Tempo, 419580
1, 82210, Tempo, 416667
1, 82225, Tempo, 413793
1, 82240, Tempo, 410959
1, 82255, Tempo, 408163
1, 82270, Tempo, 405405
1, 82285, Tempo, 402685
1, 82300, Tempo, 400000
1, 82315, Tempo, 397351
1, 82330, Tempo, 394737
1, 82345, Tempo, 392157
1, 82350, Tempo, 444444
1, 82355, Tempo, 454545
1, 82360, Tempo, 468750
1, 82365, Tempo, 480000
1, 82370, Tempo, 495868
1, 82375, Tempo, 508475
1, 82380, Tempo, 521739
1, 82385, Tempo, 540541
1, 82390, Tempo, 555556
1, 82395, Tempo, 576923
1, 82400, Tempo, 594059
1, 82405, Tempo, 612245
1, 82410, Tempo, 638298
1, 82415, Tempo, 659341
1, 82420, Tempo, 689655
1, 82425, Tempo, 714286
1, 82430, Tempo, 750000
1, 82435, Tempo, 530973
1, 83467, Tempo, 461538
1, 84330, Tempo, 588235
1, 84335, Tempo, 576923
1, 84340, Tempo, 566038
1, 84345, Tempo, 555556
1, 84350, Tempo, 545455
1, 84355, Tempo, 535714
1, 84360, Tempo, 526316
1, 84365, Tempo, 512821
1, 84370, Tempo, 504202
1, 84375, Tempo, 495868
1, 84380, Tempo, 487805
1, 84385, Tempo, 480000
1, 84390, Tempo, 472441
1, 84395, Tempo, 461538
1, 85275, Tempo, 594059
1, 85280, Tempo, 582524
1, 85285, Tempo, 571429
1, 85290, Tempo, 555556
1, 85295, Tempo, 545455
1, 85300, Tempo, 530973
1, 85305, Tempo, 521739
1, 85310, Tempo, 512821
1, 85315, Tempo, 500000
1, 85320, Tempo, 491803
1, 85325, Tempo, 480000
1, 85330, Tempo, 472441
1, 85335, Tempo, 461538
1, 87175, Tempo, 576923
1, 87180, Tempo, 571429
1, 87185, Tempo, 566038
1, 87190, Tempo, 555556
1, 87195, Tempo, 550459
1, 87200, Tempo, 540541
1, 87205, Tempo, 535714
1, 87210, Tempo, 526316
1, 87215, Tempo, 521739
1, 87220, Tempo, 512821
1, 87225, Tempo, 508475
1, 87230, Tempo, 504202
1, 87235, Tempo, 495868
1, 87240, Tempo, 491803
1, 87245, Tempo, 483871
1, 87250, Tempo, 480000
1, 87255, Tempo, 472441
1, 87260, Tempo, 468750
1, 87265, Tempo, 461538
1, 87265, End_track
2, 0, Start_track
2, 0, MIDI_port, 0
2, 0, Program_c, 0, 0
2, 0, Control_c, 0, 7, 127
2, 40, Program_c, 0, 0
2, 520, Note_on_c, 0, 63, 90
2, 521, Note_on_c, 0, 51, 85
2, 522, Control_c, 0, 64, 56
2, 523, Note_on_c, 0, 39, 69
2, 523, Note_on_c, 0, 27, 68
2, 525, Control_c, 0, 64, 127
2, 536, Note_on_c, 0, 39, 0
2, 538, Note_on_c, 0, 27, 0
2, 538, Note_on_c, 0, 51, 0
2, 547, Note_on_c, 0, 63, 0
2, 668, Control_c, 0, 64, 104
2, 672, Control_c, 0, 64, 56
2, 676, Control_c, 0, 64, 0
2, 742, Note_on_c, 0, 49, 71
2, 742, Note_on_c, 0, 57, 80
2, 745, Note_on_c, 0, 52, 67
2, 767, Note_on_c, 0, 52, 0
2, 767, Note_on_c, 0, 49, 0
2, 775, Note_on_c, 0, 57, 0
2, 776, Note_on_c, 0, 58, 81
2, 776, Note_on_c, 0, 50, 82
2, 778, Note_on_c, 0, 53, 80
2, 794, Note_on_c, 0, 53, 0
2, 798, Note_on_c, 0, 58, 0
2, 802, Note_on_c, 0, 50, 0
2, 806, Note_on_c, 0, 51, 80
2, 807, Note_on_c, 0, 59, 82
2, 810, Note_on_c, 0, 54, 78
2, 825, Note_on_c, 0, 59, 0
2, 829, Note_on_c, 0, 51, 0
2, 830, Note_on_c, 0, 54, 0
2, 836, Note_on_c, 0, 60, 84
2, 836, Note_on_c, 0, 55, 86
2, 836, Note_on_c, 0, 52, 79
2, 852, Note_on_c, 0, 60, 0
2, 857, Note_on_c, 0, 52, 0
2, 858, Note_on_c, 0, 55, 0
2, 865, Note_on_c, 0, 61, 82
2, 865, Note_on_c, 0, 53, 79
2, 866, Note_on_c, 0, 56, 75
2, 889, Note_on_c, 0, 56, 0
2, 893, Note_on_c, 0, 61, 0
2, 893, Note_on_c, 0, 62, 85
2, 896, Note_on_c, 0, 57, 86
2, 896, Note_on_c, 0, 54, 75
2, 900, Note_on_c, 0, 53, 0
2, 913, Note_on_c, 0, 62, 0
2, 917, Note_on_c, 0, 57, 0
2, 922, Note_on_c, 0, 54, 0
2, 930, Note_on_c, 0, 55, 80
2, 930, Note_on_c, 0, 58, 72
2, 930, Note_on_c, 0, 63, 89
2, 943, Control_c, 0, 64, 40
2, 947, Control_c, 0, 64, 88
2, 952, Control_c, 0, 64, 127
2, 967, Control_c, 0, 64, 88
2, 971, Control_c, 0, 64, 0
2, 990, Note_on_c, 0, 55, 0
2, 993, Note_on_c, 0, 58, 0
2, 1002, Note_on_c, 0, 63, 0
2, 1066, Note_on_c, 0, 58, 82
2, 1066, Note_on_c, 0, 55, 72
2, 1066, Note_on_c, 0, 46, 60
2, 1066, Note_on_c, 0, 39, 67
2, 1076, Note_on_c, 0, 55, 0
2, 1076, Control_c, 0, 64, 24
2, 1080, Control_c, 0, 64, 72
2, 1081, Note_on_c, 0, 46, 0
2, 1083, Note_on_c, 0, 39, 0
2, 1083, Control_c, 0, 64, 127
2, 1098, Note_on_c, 0, 58, 0
2, 1130, Control_c, 0, 64, 104
2, 1133, Control_c, 0, 64, 88
2, 1137, Control_c, 0, 64, 72
2, 1141, Control_c, 0, 64, 40
2, 1145, Control_c, 0, 64, 0
2, 1196, Note_on_c, 0, 68, 95
2, 1198, Note_on_c, 0, 56, 74
2, 1202, Note_on_c, 0, 64, 73
2, 1202, Note_on_c, 0, 50, 66
2, 1202, Note_on_c, 0, 59, 57
2, 1211, Control_c, 0, 64, 40
2, 1215, Control_c, 0, 64, 88
2, 1218, Control_c, 0, 64, 127
2, 1249, Note_on_c, 0, 59, 0
2, 1263, Note_on_c, 0, 64, 0
2, 1268, Note_on_c, 0, 56, 0
2, 1292, Note_on_c, 0, 68, 0
2, 1305, Note_on_c, 0, 50, 0
2, 1348, Note_on_c, 0, 67, 79
2, 1348, Note_on_c, 0, 51, 60
2, 1348, Note_on_c, 0, 58, 61
2, 1348, Note_on_c, 0, 63, 61
2, 1348, Note_on_c, 0, 55, 34
2, 1385, Control_c, 0, 64, 56
2, 1388, Control_c, 0, 64, 0
2, 1421, Note_on_c, 0, 58, 0
2, 1426, Note_on_c, 0, 51, 0
2, 1428, Note_on_c, 0, 63, 0
2, 1429, Note_on_c, 0, 67, 0
2, 1432, Control_c, 0, 64, 72
2, 1433, Note_on_c, 0, 55, 0
2, 1436, Control_c, 0, 64, 127
2, 1498, Note_on_c, 0, 59, 72
2, 1498, Note_on_c, 0, 44, 66
2, 1498, Control_c, 0, 64, 88
2, 1502, Control_c, 0, 64, 40
2, 1506, Control_c, 0, 64, 0
2, 1519, Note_on_c, 0, 44, 0
2, 1520, Note_on_c, 0, 59, 0
2, 1528, Note_on_c, 0, 58, 68
2, 1528, Note_on_c, 0, 43, 68
2, 1554, Note_on_c, 0, 43, 0
2, 1558, Note_on_c, 0, 52, 76
2, 1558, Note_on_c, 0, 38, 62
2, 1561, Note_on_c, 0, 58, 0
2, 1580, Note_on_c, 0, 52, 0
2, 1583, Note_on_c, 0, 38, 0
2, 1586, Note_on_c, 0, 39, 59
2, 1586, Note_on_c, 0, 51, 75
2, 1616, Note_on_c, 0, 44, 55
2, 1620, Note_on_c, 0, 59, 77
2, 1621, Note_on_c, 0, 51, 0
2, 1621, Note_on_c, 0, 39, 0
2, 1641, Note_on_c, 0, 44, 0
2, 1641, Note_on_c, 0, 59, 0
2, 1646, Note_on_c, 0, 43, 68
2, 1647, Note_on_c, 0, 58, 71
2, 1677, Note_on_c, 0, 58, 0
2, 1677, Note_on_c, 0, 52, 82
2, 1682, Note_on_c, 0, 43, 0
2, 1683, Note_on_c, 0, 38, 66
2, 1703, Note_on_c, 0, 52, 0
2, 1706, Note_on_c, 0, 51, 84
2, 1708, Note_on_c, 0, 38, 0
2, 1710, Note_on_c, 0, 39, 67
2, 1734, Note_on_c, 0, 51, 0
2, 1738, Note_on_c, 0, 44, 60
2, 1738, Note_on_c, 0, 59, 83
2, 1743, Note_on_c, 0, 39, 0
2, 1761, Note_on_c, 0, 59, 0
2, 1766, Note_on_c, 0, 44, 0
2, 1767, Note_on_c, 0, 58, 75
2, 1770, Note_on_c, 0, 43, 73
2, 1798, Note_on_c, 0, 58, 0
2, 1798, Note_on_c, 0, 52, 90
2, 1802, Note_on_c, 0, 38, 71
2, 1805, Note_on_c, 0, 43, 0
2, 1824, Note_on_c, 0, 52, 0
2, 1827, Note_on_c, 0, 51, 91
2, 1828, Note_on_c, 0, 38, 0
2, 1831, Note_on_c, 0, 39, 70
2, 1854, Note_on_c, 0, 51, 0
2, 1858, Note_on_c, 0, 59, 88
2, 1860, Note_on_c, 0, 44, 67
2, 1867, Note_on_c, 0, 39, 0
2, 1880, Note_on_c, 0, 59, 0
2, 1887, Note_on_c, 0, 58, 82
2, 1888, Note_on_c, 0, 43, 76
2, 1892, Note_on_c, 0, 44, 0
2, 1918, Note_on_c, 0, 52, 95
2, 1920, Note_on_c, 0, 58, 0
2, 1922, Note_on_c, 0, 38, 81
2, 1924, Note_on_c, 0, 43, 0
2, 1946, Note_on_c, 0, 51, 98
2, 1949, Note_on_c, 0, 52, 0
2, 1950, Note_on_c, 0, 39, 81
2, 1952, Note_on_c, 0, 38, 0
2, 1972, Note_on_c, 0, 51, 0
2, 1978, Note_on_c, 0, 44, 82
2, 1981, Note_on_c, 0, 39, 0
2, 1981, Note_on_c, 0, 59, 95
2, 2001, Note_on_c, 0, 59, 0
2, 2003, Note_on_c, 0, 44, 0
2, 2007, Note_on_c, 0, 43, 85
2, 2008, Note_on_c, 0, 58, 85
2, 2041, Note_on_c, 0, 52, 99
2, 2044, Note_on_c, 0, 58, 0
2, 2045, Note_on_c, 0, 43, 0
2, 2050, Note_on_c, 0, 38, 84
2, 2069, Note_on_c, 0, 52, 0
2, 2071, Note_on_c, 0, 51, 107
2, 2078, Note_on_c, 0, 39, 81
2, 2085, Note_on_c, 0, 38, 0
2, 2093, Note_on_c, 0, 51, 0
2, 2099, Note_on_c, 0, 39, 0
2, 2115, Note_on_c, 0, 52, 98
2, 2115, Note_on_c, 0, 56, 84
2, 2116, Note_on_c, 0, 64, 109
2, 2116, Note_on_c, 0, 59, 89
2, 2118, Note_on_c, 0, 51, 95
2, 2118, Note_on_c, 0, 46, 93
2, 2122, Note_on_c, 0, 39, 49
2, 2129, Note_on_c, 0, 39, 0
2, 2131, Note_on_c, 0, 51, 0
2, 2135, Note_on_c, 0, 52, 0
2, 2135, Note_on_c, 0, 46, 0
2, 2137, Control_c, 0, 64, 56
2, 2141, Note_on_c, 0, 56, 0
2, 2141, Control_c, 0, 64, 127
2, 2142, Note_on_c, 0, 59, 0
2, 2144, Note_on_c, 0, 64, 0
2, 2257, Control_c, 0, 64, 88
2, 2261, Control_c, 0, 64, 56
2, 2266, Control_c, 0, 64, 0
2, 2321, Note_on_c, 0, 58, 62
2, 2321, Note_on_c, 0, 53, 70
2, 2321, Note_on_c, 0, 50, 66
2, 2339, Note_on_c, 0, 50, 0
2, 2339, Note_on_c, 0, 53, 0
2, 2339, Note_on_c, 0, 58, 0
2, 2351, Note_on_c, 0, 59, 76
2, 2351, Note_on_c, 0, 51, 74
2, 2351, Note_on_c, 0, 54, 67
2, 2367, Note_on_c, 0, 54, 0
2, 2373, Note_on_c, 0, 59, 0
2, 2381, Note_on_c, 0, 60, 87
2, 2381, Note_on_c, 0, 55, 78
2, 2381, Note_on_c, 0, 52, 78
2, 2384, Note_on_c, 0, 51, 0
2, 2401, Note_on_c, 0, 60, 0
2, 2401, Note_on_c, 0, 55, 0
2, 2401, Note_on_c, 0, 52, 0
2, 2408, Note_on_c, 0, 61, 83
2, 2408, Note_on_c, 0, 56, 83
2, 2408, Note_on_c, 0, 53, 83
2, 2430, Note_on_c, 0, 56, 0
2, 2438, Note_on_c, 0, 61, 0
2, 2440, Note_on_c, 0, 62, 86
2, 2440, Note_on_c, 0, 57, 89
2, 2440, Note_on_c, 0, 54, 81
2, 2441, Note_on_c, 0, 53, 0
2, 2461, Note_on_c, 0, 62, 0
2, 2462, Note_on_c, 0, 57, 0
2, 2466, Note_on_c, 0, 54, 0
2, 2471, Note_on_c, 0, 63, 92
2, 2471, Note_on_c, 0, 58, 88
2, 2473, Note_on_c, 0, 55, 91
2, 2494, Note_on_c, 0, 63, 0
2, 2497, Note_on_c, 0, 58, 0
2, 2505, Note_on_c, 0, 55, 0
2, 2507, Note_on_c, 0, 64, 97
2, 2507, Note_on_c, 0, 56, 81
2, 2507, Note_on_c, 0, 59, 96
2, 2541, Control_c, 0, 64, 56
2, 2544, Note_on_c, 0, 59, 0
2, 2545, Control_c, 0, 64, 127
2, 2550, Note_on_c, 0, 56, 0
2, 2552, Note_on_c, 0, 64, 0
2, 2578, Control_c, 0, 64, 104
2, 2582, Control_c, 0, 64, 56
2, 2586, Control_c, 0, 64, 0
2, 2643, Control_c, 0, 64, 40
2, 2645, Note_on_c, 0, 59, 92
2, 2645, Note_on_c, 0, 52, 74
2, 2645, Note_on_c, 0, 39, 68
2, 2645, Note_on_c, 0, 47, 78
2, 2645, Note_on_c, 0, 56, 68
2, 2645, Control_c, 0, 64, 104
2, 2648, Control_c, 0, 64, 127
2, 2653, Note_on_c, 0, 52, 0
2, 2661, Note_on_c, 0, 56, 0
2, 2661, Note_on_c, 0, 39, 0
2, 2662, Note_on_c, 0, 47, 0
2, 2675, Note_on_c, 0, 59, 0
2, 2718, Control_c, 0, 64, 88
2, 2722, Control_c, 0, 64, 56
2, 2726, Control_c, 0, 64, 24
2, 2730, Control_c, 0, 64, 0
2, 2780, Note_on_c, 0, 73, 98
2, 2782, Note_on_c, 0, 61, 79
2, 2783, Note_on_c, 0, 70, 75
2, 2786, Note_on_c, 0, 64, 76
2, 2788, Note_on_c, 0, 55, 65
2, 2790, Note_on_c, 0, 58, 63
2, 2792, Control_c, 0, 64, 24
2, 2796, Control_c, 0, 64, 56
2, 2800, Control_c, 0, 64, 88
2, 2803, Control_c, 0, 64, 127
2, 2851, Note_on_c, 0, 70, 0
2, 2857, Note_on_c, 0, 61, 0
2, 2860, Note_on_c, 0, 73, 0
2, 2867, Note_on_c, 0, 58, 0
2, 2891, Note_on_c, 0, 55, 0
2, 2894, Note_on_c, 0, 64, 0
2, 2926, Note_on_c, 0, 71, 81
2, 2928, Note_on_c, 0, 64, 65
2, 2930, Note_on_c, 0, 68, 55
2, 2932, Note_on_c, 0, 56, 55
2, 2932, Note_on_c, 0, 59, 66
2, 2951, Control_c, 0, 64, 88
2, 2955, Control_c, 0, 64, 24
2, 2958, Control_c, 0, 64, 0
2, 2989, Note_on_c, 0, 71, 0
2, 2990, Control_c, 0, 64, 127
2, 2991, Note_on_c, 0, 64, 0
2, 2993, Note_on_c, 0, 59, 0
2, 2993, Note_on_c, 0, 68, 0
2, 3000, Note_on_c, 0, 56, 0
2, 3063, Note_on_c, 0, 61, 70
2, 3063, Note_on_c, 0, 46, 67
2, 3075, Control_c, 0, 64, 88
2, 3078, Control_c, 0, 64, 56
2, 3083, Control_c, 0, 64, 24
2, 3086, Note_on_c, 0, 46, 0
2, 3086, Note_on_c, 0, 61, 0
2, 3087, Control_c, 0, 64, 0
2, 3097, Note_on_c, 0, 59, 72
2, 3097, Note_on_c, 0, 44, 61
2, 3125, Note_on_c, 0, 39, 62
2, 3127, Note_on_c, 0, 44, 0
2, 3127, Note_on_c, 0, 59, 0
2, 3127, Note_on_c, 0, 54, 75
2, 3150, Note_on_c, 0, 54, 0
2, 3156, Note_on_c, 0, 44, 62
2, 3157, Note_on_c, 0, 52, 78
2, 3162, Note_on_c, 0, 39, 0
2, 3183, Note_on_c, 0, 44, 0
2, 3187, Note_on_c, 0, 61, 72
2, 3188, Note_on_c, 0, 46, 60
2, 3194, Note_on_c, 0, 52, 0
2, 3213, Note_on_c, 0, 46, 0
2, 3214, Note_on_c, 0, 61, 0
2, 3216, Note_on_c, 0, 44, 59
2, 3223, Note_on_c, 0, 59, 72
2, 3248, Note_on_c, 0, 59, 0
2, 3252, Note_on_c, 0, 44, 0
2, 3253, Note_on_c, 0, 54, 69
2, 3253, Note_on_c, 0, 39, 62
2, 3278, Note_on_c, 0, 54, 0
2, 3283, Note_on_c, 0, 52, 77
2, 3285, Note_on_c, 0, 44, 63
2, 3289, Note_on_c, 0, 39, 0
2, 3313, Note_on_c, 0, 44, 0
2, 3313, Note_on_c, 0, 61, 74
2, 3315, Note_on_c, 0, 52, 0
2, 3315, Note_on_c, 0, 46, 68
2, 3338, Note_on_c, 0, 61, 0
2, 3342, Note_on_c, 0, 46, 0
2, 3342, Note_on_c, 0, 44, 66
2, 3348, Note_on_c, 0, 59, 76
2, 3373, Note_on_c, 0, 59, 0
2, 3375, Note_on_c, 0, 44, 0
2, 3376, Note_on_c, 0, 54, 80
2, 3378, Note_on_c, 0, 39, 66
2, 3401, Note_on_c, 0, 54, 0
2, 3408, Note_on_c, 0, 52, 90
2, 3408, Note_on_c, 0, 44, 71
2, 3414, Note_on_c, 0, 39, 0
2, 3435, Note_on_c, 0, 44, 0
2, 3436, Note_on_c, 0, 46, 78
2, 3438, Note_on_c, 0, 61, 83
2, 3439, Note_on_c, 0, 52, 0
2, 3462, Note_on_c, 0, 44, 74
2, 3463, Note_on_c, 0, 61, 0
2, 3463, Note_on_c, 0, 46, 0
2, 3471, Note_on_c, 0, 59, 83
2, 3496, Note_on_c, 0, 39, 79
2, 3497, Note_on_c, 0, 44, 0
2, 3500, Note_on_c, 0, 54, 89
2, 3503, Note_on_c, 0, 59, 0
2, 3526, Note_on_c, 0, 54, 0
2, 3530, Note_on_c, 0, 44, 79
2, 3530, Note_on_c, 0, 52, 93
2, 3534, Note_on_c, 0, 39, 0
2, 3553, Note_on_c, 0, 44, 0
2, 3555, Note_on_c, 0, 46, 86
2, 3560, Note_on_c, 0, 61, 88
2, 3563, Note_on_c, 0, 52, 0
2, 3583, Note_on_c, 0, 61, 0
2, 3586, Note_on_c, 0, 44, 79
2, 3588, Note_on_c, 0, 46, 0
2, 3591, Note_on_c, 0, 59, 89
2, 3608, Note_on_c, 0, 44, 0
2, 3611, Note_on_c, 0, 39, 62
2, 3623, Note_on_c, 0, 54, 94
2, 3623, Note_on_c, 0, 39, 78
2, 3631, Note_on_c, 0, 59, 0
2, 3643, Note_on_c, 0, 39, 0
2, 3647, Note_on_c, 0, 44, 73
2, 3649, Note_on_c, 0, 54, 0
2, 3652, Note_on_c, 0, 52, 100
2, 3657, Note_on_c, 0, 39, 0
2, 3673, Note_on_c, 0, 44, 0
2, 3677, Note_on_c, 0, 52, 0
2, 3695, Note_on_c, 0, 65, 104
2, 3695, Note_on_c, 0, 53, 103
2, 3695, Note_on_c, 0, 57, 90
2, 3695, Note_on_c, 0, 60, 89
2, 3697, Note_on_c, 0, 51, 96
2, 3698, Note_on_c, 0, 45, 91
2, 3700, Note_on_c, 0, 39, 74
2, 3710, Note_on_c, 0, 51, 0
2, 3711, Note_on_c, 0, 45, 0
2, 3711, Control_c, 0, 64, 40
2, 3712, Note_on_c, 0, 39, 0
2, 3715, Control_c, 0, 64, 127
2, 3716, Note_on_c, 0, 53, 0
2, 3720, Note_on_c, 0, 57, 0
2, 3725, Note_on_c, 0, 60, 0
2, 3728, Note_on_c, 0, 65, 0
2, 3857, Control_c, 0, 64, 88
2, 3861, Control_c, 0, 64, 56
2, 3865, Control_c, 0, 64, 40
2, 3868, Control_c, 0, 64, 0
2, 3891, Note_on_c, 0, 62, 86
2, 3891, Note_on_c, 0, 54, 72
2, 3891, Note_on_c, 0, 57, 58
2, 3899, Note_on_c, 0, 57, 0
2, 3911, Note_on_c, 0, 62, 0
2, 3919, Note_on_c, 0, 54, 0
2, 3922, Note_on_c, 0, 58, 82
2, 3922, Note_on_c, 0, 63, 87
2, 3922, Note_on_c, 0, 55, 81
2, 3938, Note_on_c, 0, 58, 0
2, 3943, Note_on_c, 0, 63, 0
2, 3945, Note_on_c, 0, 55, 0
2, 3952, Note_on_c, 0, 64, 90
2, 3952, Note_on_c, 0, 59, 78
2, 3952, Note_on_c, 0, 56, 75
2, 3967, Note_on_c, 0, 59, 0
2, 3970, Note_on_c, 0, 64, 0
2, 3977, Note_on_c, 0, 56, 0
2, 3985, Note_on_c, 0, 60, 88
2, 3985, Note_on_c, 0, 57, 87
2, 3985, Note_on_c, 0, 65, 81
2, 3995, Note_on_c, 0, 60, 0
2, 4002, Note_on_c, 0, 65, 0
2, 4017, Note_on_c, 0, 67, 81
2, 4017, Note_on_c, 0, 61, 90
2, 4017, Note_on_c, 0, 58, 84
2, 4022, Note_on_c, 0, 57, 0
2, 4032, Note_on_c, 0, 61, 0
2, 4033, Note_on_c, 0, 67, 0
2, 4044, Note_on_c, 0, 58, 0
2, 4050, Note_on_c, 0, 68, 74
2, 4050, Note_on_c, 0, 59, 93
2, 4050, Note_on_c, 0, 62, 82
2, 4065, Note_on_c, 0, 62, 0
2, 4077, Note_on_c, 0, 68, 0
2, 4081, Note_on_c, 0, 59, 0
2, 4082, Note_on_c, 0, 69, 93
2, 4082, Note_on_c, 0, 63, 85
2, 4082, Note_on_c, 0, 60, 99
2, 4093, Control_c, 0, 64, 88
2, 4097, Control_c, 0, 64, 127
2, 4103, Note_on_c, 0, 63, 0
2, 4105, Note_on_c, 0, 60, 0
2, 4109, Note_on_c, 0, 69, 0
2, 4152, Control_c, 0, 64, 88
2, 4156, Control_c, 0, 64, 56
2, 4160, Control_c, 0, 64, 0
2, 4206, Control_c, 0, 64, 40
2, 4210, Control_c, 0, 64, 88
2, 4213, Control_c, 0, 64, 127
2, 4217, Note_on_c, 0, 65, 98
2, 4220, Note_on_c, 0, 53, 88
2, 4220, Note_on_c, 0, 57, 82
2, 4220, Note_on_c, 0, 60, 84
2, 4222, Note_on_c, 0, 51, 81
2, 4222, Note_on_c, 0, 39, 66
2, 4223, Note_on_c, 0, 45, 80
2, 4230, Note_on_c, 0, 45, 0
2, 4233, Note_on_c, 0, 53, 0
2, 4235, Note_on_c, 0, 51, 0
2, 4235, Note_on_c, 0, 39, 0
2, 4237, Note_on_c, 0, 57, 0
2, 4241, Note_on_c, 0, 60, 0
2, 4248, Note_on_c, 0, 65, 0
2, 4287, Control_c, 0, 64, 88
2, 4291, Control_c, 0, 64, 56
2, 4295, Control_c, 0, 64, 24
2, 4300, Control_c, 0, 64, 0
2, 4355, Note_on_c, 0, 72, 109
2, 4357, Note_on_c, 0, 60, 93
2, 4357, Note_on_c, 0, 65, 93
2, 4357, Control_c, 0, 64, 40
2, 4358, Note_on_c, 0, 63, 83
2, 4358, Note_on_c, 0, 57, 76
2, 4360, Note_on_c, 0, 51, 82
2, 4361, Control_c, 0, 64, 104
2, 4365, Control_c, 0, 64, 127
2, 4373, Note_on_c, 0, 63, 0
2, 4374, Note_on_c, 0, 60, 0
2, 4375, Note_on_c, 0, 57, 0
2, 4375, Note_on_c, 0, 51, 0
2, 4380, Note_on_c, 0, 65, 0
2, 4385, Note_on_c, 0, 72, 0
2, 4503, Note_on_c, 0, 58, 95
2, 4505, Note_on_c, 0, 70, 101
2, 4506, Note_on_c, 0, 68, 86
2, 4507, Note_on_c, 0, 62, 88
2, 4507, Note_on_c, 0, 39, 95
2, 4508, Note_on_c, 0, 65, 80
2, 4508, Note_on_c, 0, 56, 71
2, 4508, Note_on_c, 0, 27, 90
2, 4508, Control_c, 0, 64, 104
2, 4512, Control_c, 0, 64, 0
2, 4514, Note_on_c, 0, 56, 0
2, 4520, Note_on_c, 0, 27, 0
2, 4523, Note_on_c, 0, 39, 0
2, 4536, Note_on_c, 0, 58, 0
2, 4540, Note_on_c, 0, 62, 0
2, 4540, Control_c, 0, 64, 127
2, 4543, Note_on_c, 0, 65, 0
2, 4548, Note_on_c, 0, 68, 0
2, 4550, Note_on_c, 0, 70, 0
2, 4648, Control_c, 0, 64, 104
2, 4652, Control_c, 0, 64, 56
2, 4656, Control_c, 0, 64, 24
2, 4660, Control_c, 0, 64, 0
2, 4705, Note_on_c, 0, 64, 79
2, 4705, Note_on_c, 0, 56, 66
2, 4705, Note_on_c, 0, 59, 56
2, 4718, Note_on_c, 0, 59, 0
2, 4725, Note_on_c, 0, 64, 0
2, 4731, Note_on_c, 0, 56, 0
2, 4736, Note_on_c, 0, 60, 76
2, 4736, Note_on_c, 0, 57, 84
2, 4736, Note_on_c, 0, 65, 80
2, 4753, Note_on_c, 0, 60, 0
2, 4754, Note_on_c, 0, 65, 0
2, 4767, Note_on_c, 0, 66, 82
2, 4767, Note_on_c, 0, 58, 83
2, 4767, Note_on_c, 0, 61, 60
2, 4774, Note_on_c, 0, 57, 0
2, 4782, Note_on_c, 0, 61, 0
2, 4793, Note_on_c, 0, 58, 0
2, 4793, Note_on_c, 0, 66, 0
2, 4798, Note_on_c, 0, 67, 89
2, 4798, Note_on_c, 0, 59, 91
2, 4798, Note_on_c, 0, 62, 89
2, 4814, Note_on_c, 0, 62, 0
2, 4815, Note_on_c, 0, 67, 0
2, 4821, Note_on_c, 0, 59, 0
2, 4830, Note_on_c, 0, 60, 94
2, 4830, Note_on_c, 0, 63, 87
2, 4830, Note_on_c, 0, 68, 84
2, 4848, Note_on_c, 0, 68, 0
2, 4852, Note_on_c, 0, 63, 0
2, 4861, Note_on_c, 0, 64, 86
2, 4861, Note_on_c, 0, 61, 87
2, 4861, Note_on_c, 0, 69, 82
2, 4870, Note_on_c, 0, 60, 0
2, 4879, Note_on_c, 0, 64, 0
2, 4888, Note_on_c, 0, 69, 0
2, 4891, Note_on_c, 0, 61, 0
2, 4892, Note_on_c, 0, 70, 98
2, 4892, Note_on_c, 0, 62, 96
2, 4892, Note_on_c, 0, 65, 94
2, 4900, Control_c, 0, 64, 56
2, 4903, Control_c, 0, 64, 127
2, 4908, Note_on_c, 0, 65, 0
2, 4915, Note_on_c, 0, 62, 0
2, 4923, Note_on_c, 0, 70, 0
2, 4962, Control_c, 0, 64, 88
2, 4966, Control_c, 0, 64, 24
2, 4970, Control_c, 0, 64, 0
2, 5020, Control_c, 0, 64, 40
2, 5023, Control_c, 0, 64, 104
2, 5027, Control_c, 0, 64, 127
2, 5031, Note_on_c, 0, 65, 97
2, 5031, Note_on_c, 0, 56, 82
2, 5031, Note_on_c, 0, 53, 92
2, 5033, Note_on_c, 0, 62, 84
2, 5035, Note_on_c, 0, 51, 92
2, 5035, Note_on_c, 0, 39, 77
2, 5044, Note_on_c, 0, 53, 0
2, 5046, Note_on_c, 0, 56, 0
2, 5047, Note_on_c, 0, 39, 0
2, 5048, Note_on_c, 0, 51, 0
2, 5054, Note_on_c, 0, 62, 0
2, 5062, Note_on_c, 0, 65, 0
2, 5101, Control_c, 0, 64, 88
2, 5105, Control_c, 0, 64, 72
2, 5108, Control_c, 0, 64, 56
2, 5112, Control_c, 0, 64, 40
2, 5117, Control_c, 0, 64, 0
2, 5176, Note_on_c, 0, 77, 115
2, 5178, Note_on_c, 0, 65, 102
2, 5178, Note_on_c, 0, 70, 94
2, 5180, Note_on_c, 0, 74, 95
2, 5181, Note_on_c, 0, 68, 90
2, 5181, Note_on_c, 0, 56, 74
2, 5182, Note_on_c, 0, 58, 62
2, 5182, Control_c, 0, 64, 40
2, 5183, Note_on_c, 0, 62, 74
2, 5186, Control_c, 0, 64, 104
2, 5191, Control_c, 0, 64, 127
2, 5198, Note_on_c, 0, 56, 0
2, 5199, Note_on_c, 0, 62, 0
2, 5201, Note_on_c, 0, 68, 0
2, 5212, Note_on_c, 0, 58, 0
2, 5225, Note_on_c, 0, 70, 0
2, 5228, Note_on_c, 0, 74, 0
2, 5229, Note_on_c, 0, 65, 0
2, 5229, Note_on_c, 0, 77, 0
2, 5322, Note_on_c, 0, 75, 103
2, 5322, Note_on_c, 0, 63, 86
2, 5323, Note_on_c, 0, 70, 85
2, 5325, Note_on_c, 0, 61, 93
2, 5326, Note_on_c, 0, 73, 87
2, 5326, Note_on_c, 0, 67, 84
2, 5327, Note_on_c, 0, 39, 98
2, 5328, Note_on_c, 0, 27, 90
2, 5333, Control_c, 0, 64, 0
2, 5355, Note_on_c, 0, 61, 0
2, 5359, Note_on_c, 0, 67, 0
2, 5360, Control_c, 0, 64, 72
2, 5365, Control_c, 0, 64, 127
2, 5369, Note_on_c, 0, 63, 0
2, 5375, Note_on_c, 0, 27, 0
2, 5378, Note_on_c, 0, 39, 0
2, 5379, Note_on_c, 0, 70, 0
2, 5386, Note_on_c, 0, 73, 0
2, 5388, Note_on_c, 0, 75, 0
2, 5427, Control_c, 0, 64, 104
2, 5431, Control_c, 0, 64, 88
2, 5435, Control_c, 0, 64, 72
2, 5438, Control_c, 0, 64, 56
2, 5442, Control_c, 0, 64, 40
2, 5446, Control_c, 0, 64, 24
2, 5456, Note_on_c, 0, 73, 75
2, 5457, Note_on_c, 0, 77, 84
2, 5461, Note_on_c, 0, 46, 78
2, 5461, Note_on_c, 0, 34, 70
2, 5473, Control_c, 0, 64, 72
2, 5476, Note_on_c, 0, 34, 0
2, 5476, Note_on_c, 0, 46, 0
2, 5477, Control_c, 0, 64, 104
2, 5479, Note_on_c, 0, 77, 0
2, 5479, Note_on_c, 0, 73, 0
2, 5481, Control_c, 0, 64, 127
2, 5491, Note_on_c, 0, 68, 83
2, 5516, Note_on_c, 0, 68, 0
2, 5522, Note_on_c, 0, 67, 84
2, 5526, Note_on_c, 0, 39, 81
2, 5526, Note_on_c, 0, 51, 94
2, 5535, Control_c, 0, 64, 104
2, 5538, Note_on_c, 0, 51, 0
2, 5538, Note_on_c, 0, 39, 0
2, 5547, Note_on_c, 0, 67, 0
2, 5547, Control_c, 0, 64, 88
2, 5553, Note_on_c, 0, 75, 92
2, 5557, Note_on_c, 0, 53, 90
2, 5557, Note_on_c, 0, 41, 78
2, 5558, Control_c, 0, 64, 72
2, 5564, Note_on_c, 0, 53, 0
2, 5569, Note_on_c, 0, 41, 0
2, 5573, Note_on_c, 0, 75, 0
2, 5585, Note_on_c, 0, 73, 85
2, 5585, Note_on_c, 0, 77, 93
2, 5587, Note_on_c, 0, 55, 99
2, 5590, Note_on_c, 0, 43, 89
2, 5596, Note_on_c, 0, 43, 0
2, 5598, Note_on_c, 0, 55, 0
2, 5605, Note_on_c, 0, 73, 0
2, 5607, Note_on_c, 0, 77, 0
2, 5615, Note_on_c, 0, 68, 86
2, 5617, Note_on_c, 0, 56, 96
2, 5617, Note_on_c, 0, 44, 87
2, 5627, Note_on_c, 0, 56, 0
2, 5629, Note_on_c, 0, 44, 0
2, 5632, Control_c, 0, 64, 56
2, 5638, Note_on_c, 0, 68, 0
2, 5640, Control_c, 0, 64, 40
2, 5643, Control_c, 0, 64, 24
2, 5646, Note_on_c, 0, 67, 85
2, 5648, Note_on_c, 0, 58, 95
2, 5648, Note_on_c, 0, 46, 89
2, 5651, Control_c, 0, 64, 0
2, 5654, Note_on_c, 0, 46, 0
2, 5658, Note_on_c, 0, 58, 0
2, 5669, Note_on_c, 0, 67, 0
2, 5675, Note_on_c, 0, 75, 92
2, 5680, Note_on_c, 0, 60, 103
2, 5682, Note_on_c, 0, 48, 91
2, 5687, Note_on_c, 0, 60, 0
2, 5689, Note_on_c, 0, 48, 0
2, 5698, Note_on_c, 0, 75, 0
2, 5708, Note_on_c, 0, 77, 103
2, 5711, Note_on_c, 0, 61, 106
2, 5711, Note_on_c, 0, 49, 105
2, 5711, Note_on_c, 0, 70, 92
2, 5721, Control_c, 0, 64, 56
2, 5724, Note_on_c, 0, 49, 0
2, 5724, Note_on_c, 0, 61, 0
2, 5725, Control_c, 0, 64, 104
2, 5728, Control_c, 0, 64, 127
2, 5729, Note_on_c, 0, 77, 0
2, 5732, Note_on_c, 0, 70, 0
2, 5745, Note_on_c, 0, 67, 93
2, 5768, Note_on_c, 0, 67, 0
2, 5776, Note_on_c, 0, 63, 83
2, 5791, Note_on_c, 0, 63, 0
2, 5806, Note_on_c, 0, 75, 92
2, 5833, Note_on_c, 0, 75, 0
2, 5833, Control_c, 0, 64, 24
2, 5837, Control_c, 0, 64, 0
2, 5841, Note_on_c, 0, 39, 99
2, 5841, Note_on_c, 0, 27, 87
2, 5842, Note_on_c, 0, 77, 97
2, 5842, Note_on_c, 0, 72, 88
2, 5854, Note_on_c, 0, 27, 0
2, 5854, Note_on_c, 0, 39, 0
2, 5859, Note_on_c, 0, 77, 0
2, 5861, Control_c, 0, 64, 72
2, 5865, Control_c, 0, 64, 127
2, 5872, Note_on_c, 0, 72, 0
2, 5873, Note_on_c, 0, 67, 95
2, 5898, Note_on_c, 0, 67, 0
2, 5908, Note_on_c, 0, 63, 98
2, 5924, Note_on_c, 0, 63, 0
2, 5938, Note_on_c, 0, 75, 102
2, 5959, Note_on_c, 0, 75, 0
2, 5975, Note_on_c, 0, 77, 112
2, 5975, Note_on_c, 0, 73, 96
2, 5977, Note_on_c, 0, 67, 99
2, 5980, Note_on_c, 0, 55, 84
2, 5980, Control_c, 0, 64, 104
2, 5983, Control_c, 0, 64, 0
2, 5997, Note_on_c, 0, 77, 0
2, 6001, Note_on_c, 0, 73, 0
2, 6010, Note_on_c, 0, 70, 90
2, 6016, Control_c, 0, 64, 104
2, 6020, Control_c, 0, 64, 127
2, 6031, Note_on_c, 0, 70, 0
2, 6042, Note_on_c, 0, 63, 89
2, 6057, Note_on_c, 0, 63, 0
2, 6073, Note_on_c, 0, 75, 99
2, 6093, Note_on_c, 0, 75, 0
2, 6107, Note_on_c, 0, 77, 102
2, 6108, Note_on_c, 0, 73, 84
2, 6128, Note_on_c, 0, 73, 0
2, 6129, Note_on_c, 0, 77, 0
2, 6141, Note_on_c, 0, 70, 91
2, 6141, Note_on_c, 0, 61, 61
2, 6162, Note_on_c, 0, 70, 0
2, 6164, Note_on_c, 0, 67, 0
2, 6175, Note_on_c, 0, 63, 83
2, 6175, Note_on_c, 0, 58, 57
2, 6179, Note_on_c, 0, 61, 0
2, 6182, Note_on_c, 0, 55, 0
2, 6191, Note_on_c, 0, 63, 0
2, 6203, Note_on_c, 0, 51, 78
2, 6203, Note_on_c, 0, 75, 97
2, 6205, Note_on_c, 0, 58, 0
2, 6214, Note_on_c, 0, 51, 0
2, 6226, Note_on_c, 0, 75, 0
2, 6237, Note_on_c, 0, 77, 95
2, 6237, Note_on_c, 0, 73, 80
2, 6237, Note_on_c, 0, 67, 77
2, 6255, Note_on_c, 0, 67, 0
2, 6255, Note_on_c, 0, 73, 0
2, 6257, Note_on_c, 0, 77, 0
2, 6270, Note_on_c, 0, 70, 90
2, 6270, Note_on_c, 0, 61, 79
2, 6287, Note_on_c, 0, 61, 0
2, 6288, Note_on_c, 0, 70, 0
2, 6300, Note_on_c, 0, 63, 79
2, 6300, Note_on_c, 0, 58, 85
2, 6315, Note_on_c, 0, 63, 0
2, 6323, Note_on_c, 0, 58, 0
2, 6327, Note_on_c, 0, 75, 99
2, 6327, Note_on_c, 0, 51, 70
2, 6337, Note_on_c, 0, 51, 0
2, 6348, Note_on_c, 0, 75, 0
2, 6360, Note_on_c, 0, 77, 110
2, 6360, Note_on_c, 0, 73, 88
2, 6360, Note_on_c, 0, 67, 86
2, 6378, Note_on_c, 0, 67, 0
2, 6378, Note_on_c, 0, 73, 0
2, 6380, Note_on_c, 0, 77, 0
2, 6392, Note_on_c, 0, 70, 95
2, 6392, Note_on_c, 0, 61, 73
2, 6414, Note_on_c, 0, 70, 0
2, 6415, Note_on_c, 0, 61, 0
2, 6426, Note_on_c, 0, 63, 93
2, 6426, Note_on_c, 0, 58, 56
2, 6442, Note_on_c, 0, 58, 0
2, 6442, Note_on_c, 0, 63, 0
2, 6456, Note_on_c, 0, 75, 100
2, 6456, Note_on_c, 0, 51, 76
2, 6474, Note_on_c, 0, 51, 0
2, 6478, Note_on_c, 0, 75, 0
2, 6488, Note_on_c, 0, 77, 106
2, 6488, Note_on_c, 0, 67, 90
2, 6488, Note_on_c, 0, 73, 86
2, 6506, Note_on_c, 0, 73, 0
2, 6506, Note_on_c, 0, 67, 0
2, 6511, Note_on_c, 0, 77, 0
2, 6520, Note_on_c, 0, 61, 52
2, 6521, Note_on_c, 0, 70, 91
2, 6528, Note_on_c, 0, 61, 0
2, 6543, Note_on_c, 0, 70, 0
2, 6552, Note_on_c, 0, 63, 90
2, 6552, Note_on_c, 0, 58, 69
2, 6569, Note_on_c, 0, 63, 0
2, 6577, Note_on_c, 0, 58, 0
2, 6582, Note_on_c, 0, 75, 100
2, 6582, Note_on_c, 0, 51, 71
2, 6600, Note_on_c, 0, 51, 0
2, 6604, Note_on_c, 0, 75, 0
2, 6617, Note_on_c, 0, 77, 104
2, 6617, Note_on_c, 0, 73, 90
2, 6617, Note_on_c, 0, 67, 90
2, 6637, Note_on_c, 0, 67, 0
2, 6637, Note_on_c, 0, 73, 0
2, 6638, Note_on_c, 0, 77, 0
2, 6650, Note_on_c, 0, 70, 93
2, 6650, Note_on_c, 0, 61, 72
2, 6673, Note_on_c, 0, 70, 0
2, 6675, Note_on_c, 0, 61, 0
2, 6682, Note_on_c, 0, 63, 95
2, 6682, Note_on_c, 0, 58, 52
2, 6702, Note_on_c, 0, 63, 0
2, 6712, Note_on_c, 0, 58, 0
2, 6712, Note_on_c, 0, 75, 101
2, 6712, Note_on_c, 0, 51, 72
2, 6728, Note_on_c, 0, 51, 0
2, 6735, Note_on_c, 0, 75, 0
2, 6745, Note_on_c, 0, 61, 92
2, 6750, Note_on_c, 0, 77, 107
2, 6750, Note_on_c, 0, 73, 91
2, 6766, Note_on_c, 0, 61, 0
2, 6771, Note_on_c, 0, 73, 0
2, 6771, Note_on_c, 0, 77, 0
2, 6781, Note_on_c, 0, 55, 81
2, 6782, Note_on_c, 0, 70, 95
2, 6807, Note_on_c, 0, 70, 0
2, 6814, Note_on_c, 0, 55, 0
2, 6816, Note_on_c, 0, 51, 77
2, 6817, Note_on_c, 0, 63, 97
2, 6837, Note_on_c, 0, 63, 0
2, 6852, Note_on_c, 0, 75, 101
2, 6854, Note_on_c, 0, 51, 0
2, 6857, Note_on_c, 0, 46, 83
2, 6875, Note_on_c, 0, 46, 0
2, 6877, Note_on_c, 0, 75, 0
2, 6895, Note_on_c, 0, 77, 104
2, 6895, Note_on_c, 0, 55, 94
2, 6895, Note_on_c, 0, 73, 93
2, 6917, Note_on_c, 0, 55, 0
2, 6917, Note_on_c, 0, 77, 0
2, 6918, Note_on_c, 0, 73, 0
2, 6933, Note_on_c, 0, 70, 98
2, 6933, Note_on_c, 0, 49, 84
2, 6960, Note_on_c, 0, 49, 0
2, 6961, Note_on_c, 0, 70, 0
2, 6970, Note_on_c, 0, 46, 75
2, 6972, Note_on_c, 0, 63, 99
2, 6994, Note_on_c, 0, 63, 0
2, 7015, Note_on_c, 0, 39, 77
2, 7017, Note_on_c, 0, 75, 106
2, 7021, Note_on_c, 0, 46, 0
2, 7031, Note_on_c, 0, 39, 0
2, 7048, Note_on_c, 0, 75, 0
2, 7088, Control_c, 0, 64, 0
2, 7098, Note_on_c, 0, 77, 117
2, 7100, Note_on_c, 0, 44, 100
2, 7100, Note_on_c, 0, 73, 99
2, 7101, Note_on_c, 0, 32, 96
2, 7112, Note_on_c, 0, 32, 0
2, 7112, Note_on_c, 0, 44, 0
2, 7120, Control_c, 0, 64, 127
2, 7171, Note_on_c, 0, 73, 0
2, 7190, Note_on_c, 0, 51, 68
2, 7191, Note_on_c, 0, 63, 83
2, 7196, Note_on_c, 0, 51, 0
2, 7202, Note_on_c, 0, 63, 0
2, 7203, Note_on_c, 0, 77, 0
2, 7223, Note_on_c, 0, 75, 97
2, 7226, Note_on_c, 0, 72, 93
2, 7239, Note_on_c, 0, 72, 0
2, 7240, Note_on_c, 0, 75, 0
2, 7253, Note_on_c, 0, 75, 94
2, 7255, Note_on_c, 0, 72, 96
2, 7256, Control_c, 0, 64, 56
2, 7258, Note_on_c, 0, 68, 94
2, 7260, Note_on_c, 0, 56, 75
2, 7260, Control_c, 0, 64, 0
2, 7261, Note_on_c, 0, 60, 85
2, 7268, Note_on_c, 0, 60, 0
2, 7270, Note_on_c, 0, 68, 0
2, 7276, Note_on_c, 0, 56, 0
2, 7277, Note_on_c, 0, 72, 0
2, 7288, Note_on_c, 0, 72, 31
2, 7336, Note_on_c, 0, 51, 100
2, 7337, Note_on_c, 0, 39, 85
2, 7345, Note_on_c, 0, 39, 0
2, 7347, Note_on_c, 0, 51, 0
2, 7417, Note_on_c, 0, 56, 100
2, 7420, Note_on_c, 0, 44, 80
2, 7426, Control_c, 0, 64, 88
2, 7429, Note_on_c, 0, 56, 0
2, 7430, Control_c, 0, 64, 127
2, 7436, Note_on_c, 0, 44, 0
2, 7439, Note_on_c, 0, 72, 0
2, 7457, Control_c, 0, 64, 88
2, 7461, Control_c, 0, 64, 56
2, 7465, Control_c, 0, 64, 0
2, 7481, Note_on_c, 0, 75, 0
2, 7493, Note_on_c, 0, 68, 84
2, 7496, Note_on_c, 0, 72, 92
2, 7496, Note_on_c, 0, 27, 86
2, 7496, Note_on_c, 0, 39, 87
2, 7502, Note_on_c, 0, 27, 0
2, 7503, Note_on_c, 0, 39, 0
2, 7509, Note_on_c, 0, 68, 0
2, 7513, Note_on_c, 0, 72, 0
2, 7525, Note_on_c, 0, 70, 94
2, 7527, Note_on_c, 0, 73, 92
2, 7543, Note_on_c, 0, 70, 0
2, 7549, Note_on_c, 0, 73, 0
2, 7563, Note_on_c, 0, 73, 74
2, 7563, Note_on_c, 0, 77, 99
2, 7567, Note_on_c, 0, 44, 90
2, 7567, Note_on_c, 0, 32, 79
2, 7573, Control_c, 0, 64, 56
2, 7574, Note_on_c, 0, 32, 0
2, 7577, Control_c, 0, 64, 88
2, 7578, Note_on_c, 0, 44, 0
2, 7581, Control_c, 0, 64, 104
2, 7583, Note_on_c, 0, 73, 0
2, 7585, Note_on_c, 0, 77, 0
2, 7585, Control_c, 0, 64, 127
2, 7596, Note_on_c, 0, 72, 99
2, 7597, Control_c, 0, 64, 72
2, 7598, Note_on_c, 0, 75, 93
2, 7601, Control_c, 0, 64, 56
2, 7605, Control_c, 0, 64, 40
2, 7607, Control_c, 0, 64, 24
2, 7611, Control_c, 0, 64, 0
2, 7613, Note_on_c, 0, 72, 0
2, 7616, Note_on_c, 0, 75, 0
2, 7623, Note_on_c, 0, 77, 106
2, 7630, Note_on_c, 0, 72, 89
2, 7630, Note_on_c, 0, 75, 75
2, 7631, Note_on_c, 0, 51, 88
2, 7631, Note_on_c, 0, 63, 85
2, 7643, Note_on_c, 0, 77, 0
2, 7644, Note_on_c, 0, 51, 0
2, 7644, Note_on_c, 0, 63, 0
2, 7645, Note_on_c, 0, 72, 0
2, 7662, Note_on_c, 0, 71, 95
2, 7663, Note_on_c, 0, 74, 110
2, 7668, Note_on_c, 0, 75, 0
2, 7678, Note_on_c, 0, 71, 0
2, 7684, Note_on_c, 0, 74, 0
2, 7696, Note_on_c, 0, 75, 98
2, 7698, Note_on_c, 0, 72, 98
2, 7702, Note_on_c, 0, 68, 83
2, 7703, Note_on_c, 0, 60, 76
2, 7705, Note_on_c, 0, 56, 56
2, 7709, Note_on_c, 0, 60, 0
2, 7709, Note_on_c, 0, 68, 0
2, 7716, Control_c, 0, 64, 56
2, 7718, Note_on_c, 0, 56, 0
2, 7721, Control_c, 0, 64, 72
2, 7732, Control_c, 0, 64, 40
2, 7736, Control_c, 0, 64, 24
2, 7740, Control_c, 0, 64, 0
2, 7778, Note_on_c, 0, 51, 96
2, 7780, Note_on_c, 0, 39, 72
2, 7785, Note_on_c, 0, 51, 0
2, 7786, Note_on_c, 0, 39, 0
2, 7852, Control_c, 0, 64, 24
2, 7853, Note_on_c, 0, 56, 91
2, 7856, Note_on_c, 0, 44, 77
2, 7856, Control_c, 0, 64, 72
2, 7860, Control_c, 0, 64, 127
2, 7865, Note_on_c, 0, 56, 0
2, 7872, Note_on_c, 0, 44, 0
2, 7878, Control_c, 0, 64, 104
2, 7880, Note_on_c, 0, 72, 0
2, 7883, Control_c, 0, 64, 88
2, 7887, Control_c, 0, 64, 72
2, 7891, Control_c, 0, 64, 56
2, 7895, Control_c, 0, 64, 40
2, 7898, Control_c, 0, 64, 24
2, 7902, Control_c, 0, 64, 0
2, 7914, Note_on_c, 0, 75, 0
2, 7931, Note_on_c, 0, 72, 92
2, 7931, Note_on_c, 0, 39, 72
2, 7932, Note_on_c, 0, 68, 60
2, 7933, Note_on_c, 0, 27, 68
2, 7939, Note_on_c, 0, 27, 0
2, 7940, Note_on_c, 0, 68, 0
2, 7942, Note_on_c, 0, 39, 0
2, 7951, Note_on_c, 0, 72, 0
2, 7963, Note_on_c, 0, 70, 75
2, 7966, Note_on_c, 0, 73, 83
2, 7980, Note_on_c, 0, 70, 0
2, 7984, Note_on_c, 0, 73, 0
2, 8000, Note_on_c, 0, 73, 65
2, 8000, Note_on_c, 0, 77, 90
2, 8000, Control_c, 0, 64, 40
2, 8003, Note_on_c, 0, 44, 62
2, 8003, Control_c, 0, 64, 72
2, 8006, Note_on_c, 0, 32, 54
2, 8007, Control_c, 0, 64, 88
2, 8012, Note_on_c, 0, 32, 0
2, 8015, Note_on_c, 0, 44, 0
2, 8020, Note_on_c, 0, 77, 0
2, 8022, Note_on_c, 0, 73, 0
2, 8023, Control_c, 0, 64, 72
2, 8027, Control_c, 0, 64, 56
2, 8031, Note_on_c, 0, 75, 87
2, 8031, Control_c, 0, 64, 40
2, 8035, Note_on_c, 0, 72, 86
2, 8035, Control_c, 0, 64, 24
2, 8038, Control_c, 0, 64, 0
2, 8043, Note_on_c, 0, 72, 0
2, 8053, Note_on_c, 0, 75, 0
2, 8058, Note_on_c, 0, 77, 96
2, 8066, Note_on_c, 0, 72, 91
2, 8068, Note_on_c, 0, 75, 70
2, 8072, Note_on_c, 0, 63, 69
2, 8072, Note_on_c, 0, 51, 72
2, 8078, Note_on_c, 0, 77, 0
2, 8089, Note_on_c, 0, 63, 0
2, 8090, Note_on_c, 0, 51, 0
2, 8094, Note_on_c, 0, 72, 0
2, 8100, Note_on_c, 0, 71, 89
2, 8102, Note_on_c, 0, 74, 93
2, 8104, Note_on_c, 0, 75, 0
2, 8117, Note_on_c, 0, 74, 0
2, 8117, Note_on_c, 0, 71, 0
2, 8133, Note_on_c, 0, 77, 99
2, 8133, Note_on_c, 0, 73, 89
2, 8137, Note_on_c, 0, 68, 82
2, 8140, Note_on_c, 0, 60, 73
2, 8140, Note_on_c, 0, 56, 63
2, 8146, Note_on_c, 0, 60, 0
2, 8149, Note_on_c, 0, 68, 0
2, 8154, Note_on_c, 0, 77, 0
2, 8155, Note_on_c, 0, 73, 0
2, 8156, Note_on_c, 0, 56, 0
2, 8165, Note_on_c, 0, 75, 91
2, 8170, Note_on_c, 0, 72, 92
2, 8181, Note_on_c, 0, 72, 0
2, 8187, Note_on_c, 0, 75, 0
2, 8197, Note_on_c, 0, 77, 100
2, 8198, Note_on_c, 0, 72, 95
2, 8198, Note_on_c, 0, 75, 75
2, 8202, Note_on_c, 0, 51, 81
2, 8205, Note_on_c, 0, 39, 74
2, 8213, Note_on_c, 0, 39, 0
2, 8214, Note_on_c, 0, 51, 0
2, 8219, Note_on_c, 0, 77, 0
2, 8220, Note_on_c, 0, 72, 0
2, 8228, Note_on_c, 0, 71, 91
2, 8232, Note_on_c, 0, 74, 102
2, 8238, Note_on_c, 0, 75, 0
2, 8246, Note_on_c, 0, 71, 0
2, 8253, Note_on_c, 0, 74, 0
2, 8263, Note_on_c, 0, 75, 107
2, 8267, Note_on_c, 0, 72, 106
2, 8270, Note_on_c, 0, 56, 88
2, 8271, Control_c, 0, 64, 72
2, 8272, Note_on_c, 0, 44, 79
2, 8275, Control_c, 0, 64, 127
2, 8280, Note_on_c, 0, 72, 0
2, 8282, Note_on_c, 0, 56, 0
2, 8285, Note_on_c, 0, 44, 0
2, 8291, Note_on_c, 0, 75, 0
2, 8302, Control_c, 0, 64, 104
2, 8306, Control_c, 0, 64, 56
2, 8310, Control_c, 0, 64, 0
2, 8322, Note_on_c, 0, 39, 77
2, 8337, Note_on_c, 0, 46, 66
2, 8345, Note_on_c, 0, 39, 0
2, 8345, Control_c, 0, 64, 56
2, 8348, Note_on_c, 0, 78, 100
2, 8348, Control_c, 0, 64, 127
2, 8350, Note_on_c, 0, 54, 90
2, 8351, Note_on_c, 0, 70, 92
2, 8351, Note_on_c, 0, 63, 95
2, 8355, Note_on_c, 0, 46, 0
2, 8361, Note_on_c, 0, 54, 0
2, 8362, Note_on_c, 0, 63, 0
2, 8364, Note_on_c, 0, 70, 0
2, 8374, Note_on_c, 0, 78, 0
2, 8387, Control_c, 0, 64, 72
2, 8391, Control_c, 0, 64, 0
2, 8405, Note_on_c, 0, 41, 82
2, 8412, Note_on_c, 0, 48, 65
2, 8420, Note_on_c, 0, 41, 0
2, 8428, Note_on_c, 0, 48, 0
2, 8428, Note_on_c, 0, 77, 104
2, 8430, Note_on_c, 0, 63, 83
2, 8430, Control_c, 0, 64, 56
2, 8432, Note_on_c, 0, 72, 90
2, 8432, Note_on_c, 0, 69, 87
2, 8433, Note_on_c, 0, 57, 83
2, 8433, Control_c, 0, 64, 127
2, 8440, Note_on_c, 0, 57, 0
2, 8440, Note_on_c, 0, 69, 0
2, 8442, Note_on_c, 0, 63, 0
2, 8447, Note_on_c, 0, 72, 0
2, 8448, Note_on_c, 0, 77, 0
2, 8472, Control_c, 0, 64, 88
2, 8476, Control_c, 0, 64, 40
2, 8480, Control_c, 0, 64, 0
2, 8487, Note_on_c, 0, 48, 78
2, 8497, Note_on_c, 0, 57, 58
2, 8497, Note_on_c, 0, 53, 59
2, 8505, Note_on_c, 0, 48, 0
2, 8510, Note_on_c, 0, 72, 103
2, 8510, Note_on_c, 0, 60, 86
2, 8512, Note_on_c, 0, 65, 84
2, 8512, Note_on_c, 0, 63, 75
2, 8515, Note_on_c, 0, 57, 0
2, 8515, Control_c, 0, 64, 40
2, 8517, Note_on_c, 0, 60, 0
2, 8517, Note_on_c, 0, 53, 0
2, 8518, Control_c, 0, 64, 127
2, 8522, Note_on_c, 0, 63, 0
2, 8523, Note_on_c, 0, 65, 0
2, 8530, Note_on_c, 0, 72, 0
2, 8550, Control_c, 0, 64, 88
2, 8553, Control_c, 0, 64, 40
2, 8558, Control_c, 0, 64, 0
2, 8560, Note_on_c, 0, 46, 77
2, 8572, Note_on_c, 0, 53, 61
2, 8586, Note_on_c, 0, 46, 0
2, 8591, Note_on_c, 0, 61, 95
2, 8592, Note_on_c, 0, 73, 106
2, 8593, Note_on_c, 0, 65, 94
2, 8596, Control_c, 0, 64, 127
2, 8600, Note_on_c, 0, 53, 0
2, 8602, Note_on_c, 0, 61, 0
2, 8605, Note_on_c, 0, 65, 0
2, 8613, Note_on_c, 0, 73, 0
2, 8658, Control_c, 0, 64, 40
2, 8662, Control_c, 0, 64, 0
2, 8668, Note_on_c, 0, 42, 79
2, 8670, Note_on_c, 0, 30, 70
2, 8671, Note_on_c, 0, 66, 95
2, 8673, Control_c, 0, 64, 24
2, 8677, Control_c, 0, 64, 104
2, 8680, Note_on_c, 0, 42, 0
2, 8681, Control_c, 0, 64, 127
2, 8685, Note_on_c, 0, 30, 0
2, 8691, Note_on_c, 0, 66, 0
2, 8692, Note_on_c, 0, 54, 88
2, 8708, Note_on_c, 0, 66, 81
2, 8720, Note_on_c, 0, 54, 0
2, 8727, Control_c, 0, 64, 0
2, 8729, Note_on_c, 0, 66, 0
2, 8735, Note_on_c, 0, 65, 100
2, 8736, Note_on_c, 0, 53, 98
2, 8740, Note_on_c, 0, 41, 88
2, 8740, Note_on_c, 0, 29, 75
2, 8746, Note_on_c, 0, 29, 0
2, 8746, Note_on_c, 0, 41, 0
2, 8749, Note_on_c, 0, 53, 0
2, 8751, Note_on_c, 0, 65, 0
2, 8755, Control_c, 0, 64, 88
2, 8760, Control_c, 0, 64, 127
2, 8790, Control_c, 0, 64, 56
2, 8793, Control_c, 0, 64, 0
2, 8815, Note_on_c, 0, 49, 81
2, 8816, Note_on_c, 0, 61, 92
2, 8818, Note_on_c, 0, 37, 71
2, 8821, Control_c, 0, 64, 40
2, 8825, Control_c, 0, 64, 56
2, 8826, Note_on_c, 0, 37, 0
2, 8827, Note_on_c, 0, 49, 0
2, 8833, Note_on_c, 0, 61, 0
2, 8837, Control_c, 0, 64, 24
2, 8841, Control_c, 0, 64, 0
2, 8873, Note_on_c, 0, 66, 105
2, 8890, Note_on_c, 0, 66, 0
2, 8897, Note_on_c, 0, 78, 110
2, 8898, Note_on_c, 0, 75, 98
2, 8900, Note_on_c, 0, 46, 95
2, 8900, Note_on_c, 0, 34, 79
2, 8911, Note_on_c, 0, 46, 0
2, 8912, Note_on_c, 0, 34, 0
2, 8926, Control_c, 0, 64, 40
2, 8930, Control_c, 0, 64, 104
2, 8933, Control_c, 0, 64, 127
2, 8978, Note_on_c, 0, 53, 71
2, 8980, Note_on_c, 0, 65, 79
2, 8980, Note_on_c, 0, 61, 70
2, 8984, Note_on_c, 0, 53, 0
2, 8988, Note_on_c, 0, 61, 0
2, 8990, Note_on_c, 0, 65, 0
2, 8995, Note_on_c, 0, 78, 0
2, 9000, Note_on_c, 0, 75, 0
2, 9020, Note_on_c, 0, 77, 104
2, 9021, Note_on_c, 0, 73, 87
2, 9032, Note_on_c, 0, 73, 0
2, 9033, Note_on_c, 0, 77, 0
2, 9045, Note_on_c, 0, 77, 112
2, 9046, Note_on_c, 0, 73, 81
2, 9046, Control_c, 0, 64, 0
2, 9051, Note_on_c, 0, 70, 83
2, 9052, Note_on_c, 0, 61, 72
2, 9052, Note_on_c, 0, 58, 67
2, 9059, Note_on_c, 0, 61, 0
2, 9061, Note_on_c, 0, 70, 0
2, 9064, Note_on_c, 0, 58, 0
2, 9064, Note_on_c, 0, 73, 0
2, 9068, Control_c, 0, 64, 88
2, 9072, Control_c, 0, 64, 127
2, 9076, Note_on_c, 0, 73, 35
2, 9085, Control_c, 0, 64, 88
2, 9088, Control_c, 0, 64, 24
2, 9092, Control_c, 0, 64, 0
2, 9123, Note_on_c, 0, 53, 102
2, 9123, Note_on_c, 0, 41, 82
2, 9131, Note_on_c, 0, 41, 0
2, 9135, Note_on_c, 0, 53, 0
2, 9198, Note_on_c, 0, 58, 96
2, 9200, Note_on_c, 0, 46, 83
2, 9201, Control_c, 0, 64, 24
2, 9205, Control_c, 0, 64, 88
2, 9208, Control_c, 0, 64, 127
2, 9210, Note_on_c, 0, 58, 0
2, 9220, Note_on_c, 0, 46, 0
2, 9226, Note_on_c, 0, 73, 0
2, 9232, Control_c, 0, 64, 104
2, 9236, Control_c, 0, 64, 72
2, 9240, Control_c, 0, 64, 56
2, 9243, Control_c, 0, 64, 40
2, 9247, Control_c, 0, 64, 0
2, 9262, Note_on_c, 0, 77, 0
2, 9262, Control_c, 0, 64, 40
2, 9266, Control_c, 0, 64, 72
2, 9270, Note_on_c, 0, 73, 87
2, 9270, Control_c, 0, 64, 104
2, 9272, Note_on_c, 0, 70, 69
2, 9273, Note_on_c, 0, 41, 85
2, 9273, Note_on_c, 0, 29, 69
2, 9280, Note_on_c, 0, 29, 0
2, 9283, Note_on_c, 0, 70, 0
2, 9286, Note_on_c, 0, 41, 0
2, 9286, Control_c, 0, 64, 88
2, 9291, Note_on_c, 0, 73, 0
2, 9293, Control_c, 0, 64, 72
2, 9297, Control_c, 0, 64, 56
2, 9301, Note_on_c, 0, 75, 96
2, 9301, Control_c, 0, 64, 40
2, 9303, Note_on_c, 0, 72, 96
2, 9306, Control_c, 0, 64, 0
2, 9316, Note_on_c, 0, 72, 0
2, 9323, Note_on_c, 0, 75, 0
2, 9336, Note_on_c, 0, 78, 97
2, 9337, Note_on_c, 0, 75, 74
2, 9338, Note_on_c, 0, 46, 92
2, 9340, Note_on_c, 0, 34, 70
2, 9345, Note_on_c, 0, 46, 0
2, 9346, Note_on_c, 0, 34, 0
2, 9359, Note_on_c, 0, 75, 0
2, 9359, Note_on_c, 0, 78, 0
2, 9368, Note_on_c, 0, 77, 97
2, 9368, Note_on_c, 0, 73, 83
2, 9385, Note_on_c, 0, 73, 0
2, 9391, Note_on_c, 0, 77, 0
2, 9395, Note_on_c, 0, 78, 96
2, 9401, Note_on_c, 0, 73, 90
2, 9403, Note_on_c, 0, 77, 87
2, 9407, Note_on_c, 0, 53, 74
2, 9410, Note_on_c, 0, 61, 79
2, 9410, Note_on_c, 0, 65, 81
2, 9412, Note_on_c, 0, 78, 0
2, 9414, Note_on_c, 0, 53, 0
2, 9421, Note_on_c, 0, 73, 0
2, 9422, Note_on_c, 0, 61, 0
2, 9425, Note_on_c, 0, 77, 0
2, 9426, Note_on_c, 0, 65, 0
2, 9435, Note_on_c, 0, 76, 106
2, 9437, Note_on_c, 0, 72, 98
2, 9441, Note_on_c, 0, 77, 46
2, 9448, Note_on_c, 0, 77, 0
2, 9450, Note_on_c, 0, 72, 0
2, 9460, Note_on_c, 0, 76, 0
2, 9470, Note_on_c, 0, 77, 106
2, 9472, Note_on_c, 0, 73, 91
2, 9475, Note_on_c, 0, 70, 91
2, 9476, Note_on_c, 0, 58, 77
2, 9476, Note_on_c, 0, 61, 70
2, 9486, Note_on_c, 0, 61, 0
2, 9487, Note_on_c, 0, 70, 0
2, 9487, Control_c, 0, 64, 40
2, 9491, Control_c, 0, 64, 104
2, 9493, Note_on_c, 0, 58, 0
2, 9495, Control_c, 0, 64, 127
2, 9537, Control_c, 0, 64, 40
2, 9541, Control_c, 0, 64, 0
2, 9548, Note_on_c, 0, 53, 112
2, 9548, Note_on_c, 0, 41, 92
2, 9560, Note_on_c, 0, 41, 0
2, 9564, Note_on_c, 0, 53, 0
2, 9568, Control_c, 0, 64, 104
2, 9572, Control_c, 0, 64, 127
2, 9632, Note_on_c, 0, 58, 106
2, 9633, Note_on_c, 0, 46, 94
2, 9638, Control_c, 0, 64, 40
2, 9642, Control_c, 0, 64, 0
2, 9662, Note_on_c, 0, 58, 0
2, 9664, Note_on_c, 0, 46, 0
2, 9666, Control_c, 0, 64, 72
2, 9670, Control_c, 0, 64, 127
2, 9680, Note_on_c, 0, 73, 0
2, 9688, Note_on_c, 0, 77, 0
2, 9718, Note_on_c, 0, 79, 103
2, 9718, Note_on_c, 0, 73, 94
2, 9720, Note_on_c, 0, 67, 94
2, 9722, Note_on_c, 0, 46, 99
2, 9725, Control_c, 0, 64, 24
2, 9727, Note_on_c, 0, 34, 88
2, 9727, Control_c, 0, 64, 0
2, 9732, Note_on_c, 0, 67, 0
2, 9735, Note_on_c, 0, 46, 0
2, 9739, Note_on_c, 0, 79, 0
2, 9740, Control_c, 0, 64, 40
2, 9743, Note_on_c, 0, 73, 0
2, 9743, Note_on_c, 0, 34, 0
2, 9743, Control_c, 0, 64, 104
2, 9747, Control_c, 0, 64, 127
2, 9763, Note_on_c, 0, 80, 112
2, 9763, Note_on_c, 0, 68, 99
2, 9775, Note_on_c, 0, 68, 0
2, 9779, Note_on_c, 0, 80, 0
2, 9816, Control_c, 0, 64, 0
2, 9817, Note_on_c, 0, 84, 107
2, 9817, Note_on_c, 0, 39, 92
2, 9817, Note_on_c, 0, 27, 85
2, 9817, Note_on_c, 0, 72, 100
2, 9829, Note_on_c, 0, 27, 0
2, 9829, Note_on_c, 0, 39, 0
2, 9832, Note_on_c, 0, 72, 0
2, 9847, Note_on_c, 0, 84, 0
2, 9847, Control_c, 0, 64, 127
2, 9865, Note_on_c, 0, 79, 93
2, 9867, Note_on_c, 0, 75, 87
2, 9887, Note_on_c, 0, 75, 0
2, 9898, Note_on_c, 0, 79, 0
2, 9906, Note_on_c, 0, 84, 103
2, 9907, Note_on_c, 0, 72, 99
2, 9911, Note_on_c, 0, 67, 83
2, 9911, Note_on_c, 0, 61, 63
2, 9913, Note_on_c, 0, 63, 66
2, 9921, Note_on_c, 0, 63, 0
2, 9923, Note_on_c, 0, 67, 0
2, 9923, Note_on_c, 0, 72, 0
2, 9926, Note_on_c, 0, 84, 0
2, 9931, Note_on_c, 0, 61, 0
2, 9968, Note_on_c, 0, 82, 90
2, 9970, Note_on_c, 0, 70, 89
2, 9979, Note_on_c, 0, 82, 0
2, 9980, Note_on_c, 0, 70, 0
2, 9990, Note_on_c, 0, 70, 87
2, 9992, Note_on_c, 0, 82, 90
2, 9993, Note_on_c, 0, 51, 72
2, 9995, Control_c, 0, 64, 40
2, 9996, Note_on_c, 0, 39, 82
2, 9998, Control_c, 0, 64, 0
2, 10006, Note_on_c, 0, 51, 0
2, 10009, Note_on_c, 0, 39, 0
2, 10009, Note_on_c, 0, 82, 0
2, 10015, Note_on_c, 0, 70, 0
2, 10018, Control_c, 0, 64, 56
2, 10022, Control_c, 0, 64, 127
2, 10030, Note_on_c, 0, 75, 89
2, 10031, Note_on_c, 0, 72, 87
2, 10047, Note_on_c, 0, 72, 0
2, 10057, Note_on_c, 0, 75, 0
2, 10067, Note_on_c, 0, 82, 94
2, 10068, Note_on_c, 0, 70, 94
2, 10072, Note_on_c, 0, 63, 72
2, 10076, Note_on_c, 0, 60, 68
2, 10079, Note_on_c, 0, 63, 0
2, 10082, Note_on_c, 0, 60, 0
2, 10084, Note_on_c, 0, 70, 0
2, 10087, Note_on_c, 0, 82, 0
2, 10121, Note_on_c, 0, 80, 93
2, 10122, Note_on_c, 0, 68, 90
2, 10132, Note_on_c, 0, 68, 0
2, 10132, Note_on_c, 0, 80, 0
2, 10143, Note_on_c, 0, 80, 95
2, 10143, Note_on_c, 0, 68, 87
2, 10146, Control_c, 0, 64, 72
2, 10147, Note_on_c, 0, 51, 79
2, 10148, Note_on_c, 0, 39, 68
2, 10150, Note_on_c, 0, 78, 53
2, 10150, Control_c, 0, 64, 0
2, 10157, Note_on_c, 0, 78, 0
2, 10158, Note_on_c, 0, 51, 0
2, 10160, Note_on_c, 0, 39, 0
2, 10161, Note_on_c, 0, 68, 0
2, 10168, Note_on_c, 0, 80, 0
2, 10172, Control_c, 0, 64, 72
2, 10177, Control_c, 0, 64, 127
2, 10182, Note_on_c, 0, 75, 88
2, 10183, Note_on_c, 0, 70, 81
2, 10201, Note_on_c, 0, 70, 0
2, 10208, Note_on_c, 0, 75, 0
2, 10218, Note_on_c, 0, 80, 96
2, 10220, Note_on_c, 0, 68, 95
2, 10223, Note_on_c, 0, 63, 72
2, 10223, Note_on_c, 0, 58, 70
2, 10231, Note_on_c, 0, 63, 0
2, 10236, Note_on_c, 0, 58, 0
2, 10243, Note_on_c, 0, 68, 0
2, 10248, Note_on_c, 0, 80, 0
2, 10275, Note_on_c, 0, 79, 92
2, 10275, Note_on_c, 0, 67, 84
2, 10282, Note_on_c, 0, 79, 0
2, 10285, Note_on_c, 0, 67, 0
2, 10286, Control_c, 0, 64, 24
2, 10290, Control_c, 0, 64, 0
2, 10295, Note_on_c, 0, 79, 91
2, 10296, Note_on_c, 0, 67, 91
2, 10301, Note_on_c, 0, 46, 77
2, 10302, Note_on_c, 0, 34, 73
2, 10313, Note_on_c, 0, 34, 0
2, 10314, Note_on_c, 0, 46, 0
2, 10318, Note_on_c, 0, 67, 0
2, 10325, Note_on_c, 0, 79, 0
2, 10325, Control_c, 0, 64, 56
2, 10328, Control_c, 0, 64, 127
2, 10338, Note_on_c, 0, 74, 90
2, 10340, Note_on_c, 0, 70, 75
2, 10361, Note_on_c, 0, 70, 0
2, 10369, Note_on_c, 0, 74, 0
2, 10376, Note_on_c, 0, 79, 96
2, 10377, Note_on_c, 0, 67, 83
2, 10380, Note_on_c, 0, 56, 61
2, 10381, Note_on_c, 0, 58, 48
2, 10382, Note_on_c, 0, 62, 54
2, 10388, Note_on_c, 0, 58, 0
2, 10392, Note_on_c, 0, 62, 0
2, 10394, Note_on_c, 0, 67, 0
2, 10396, Note_on_c, 0, 79, 0
2, 10398, Note_on_c, 0, 56, 0
2, 10432, Note_on_c, 0, 77, 92
2, 10433, Note_on_c, 0, 65, 74
2, 10438, Note_on_c, 0, 77, 0
2, 10441, Note_on_c, 0, 65, 0
2, 10452, Control_c, 0, 64, 72
2, 10453, Note_on_c, 0, 65, 84
2, 10453, Note_on_c, 0, 77, 92
2, 10453, Note_on_c, 0, 51, 74
2, 10456, Note_on_c, 0, 39, 67
2, 10456, Control_c, 0, 64, 0
2, 10470, Note_on_c, 0, 51, 0
2, 10471, Note_on_c, 0, 77, 0
2, 10473, Note_on_c, 0, 39, 0
2, 10474, Note_on_c, 0, 65, 0
2, 10480, Control_c, 0, 64, 72
2, 10483, Control_c, 0, 64, 127
2, 10492, Note_on_c, 0, 70, 85
2, 10493, Note_on_c, 0, 67, 79
2, 10499, Note_on_c, 0, 67, 0
2, 10512, Note_on_c, 0, 70, 0
2, 10530, Note_on_c, 0, 77, 103
2, 10531, Note_on_c, 0, 65, 95
2, 10533, Note_on_c, 0, 58, 68
2, 10536, Note_on_c, 0, 55, 75
2, 10540, Note_on_c, 0, 58, 0
2, 10542, Note_on_c, 0, 55, 0
2, 10544, Note_on_c, 0, 65, 0
2, 10547, Note_on_c, 0, 77, 0
2, 10587, Note_on_c, 0, 75, 95
2, 10590, Note_on_c, 0, 63, 90
2, 10599, Note_on_c, 0, 75, 0
2, 10605, Note_on_c, 0, 63, 0
2, 10615, Note_on_c, 0, 73, 101
2, 10615, Note_on_c, 0, 61, 95
2, 10618, Control_c, 0, 64, 0
2, 10625, Note_on_c, 0, 41, 65
2, 10626, Note_on_c, 0, 53, 65
2, 10632, Note_on_c, 0, 61, 0
2, 10636, Note_on_c, 0, 41, 0
2, 10644, Note_on_c, 0, 53, 0
2, 10646, Control_c, 0, 64, 88
2, 10650, Control_c, 0, 64, 127
2, 10653, Note_on_c, 0, 73, 0
2, 10663, Note_on_c, 0, 68, 81
2, 10694, Note_on_c, 0, 68, 0
2, 10696, Control_c, 0, 64, 40
2, 10700, Note_on_c, 0, 73, 95
2, 10700, Control_c, 0, 64, 0
2, 10701, Note_on_c, 0, 61, 81
2, 10703, Note_on_c, 0, 56, 68
2, 10705, Note_on_c, 0, 53, 74
2, 10711, Note_on_c, 0, 53, 0
2, 10712, Control_c, 0, 64, 40
2, 10713, Note_on_c, 0, 56, 0
2, 10715, Control_c, 0, 64, 127
2, 10719, Note_on_c, 0, 61, 0
2, 10726, Note_on_c, 0, 73, 0
2, 10770, Note_on_c, 0, 72, 92
2, 10770, Note_on_c, 0, 60, 80
2, 10777, Note_on_c, 0, 60, 0
2, 10781, Control_c, 0, 64, 104
2, 10782, Note_on_c, 0, 72, 0
2, 10785, Control_c, 0, 64, 0
2, 10792, Note_on_c, 0, 65, 98
2, 10797, Note_on_c, 0, 49, 78
2, 10798, Note_on_c, 0, 37, 70
2, 10810, Note_on_c, 0, 37, 0
2, 10812, Note_on_c, 0, 49, 0
2, 10817, Control_c, 0, 64, 40
2, 10821, Control_c, 0, 64, 127
2, 10875, Control_c, 0, 64, 88
2, 10878, Control_c, 0, 64, 56
2, 10882, Note_on_c, 0, 58, 71
2, 10882, Control_c, 0, 64, 0
2, 10885, Note_on_c, 0, 53, 76
2, 10891, Note_on_c, 0, 53, 0
2, 10894, Note_on_c, 0, 58, 0
2, 10952, Note_on_c, 0, 65, 0
2, 10960, Note_on_c, 0, 67, 80
2, 10966, Note_on_c, 0, 48, 90
2, 10966, Note_on_c, 0, 36, 75
2, 10967, Control_c, 0, 64, 88
2, 10971, Control_c, 0, 64, 127
2, 10972, Note_on_c, 0, 36, 0
2, 10976, Note_on_c, 0, 67, 0
2, 10978, Note_on_c, 0, 48, 0
2, 10982, Note_on_c, 0, 68, 76
2, 10994, Note_on_c, 0, 68, 0
2, 11001, Note_on_c, 0, 67, 75
2, 11013, Note_on_c, 0, 67, 0
2, 11015, Note_on_c, 0, 68, 83
2, 11025, Note_on_c, 0, 67, 74
2, 11032, Note_on_c, 0, 68, 0
2, 11036, Control_c, 0, 64, 104
2, 11041, Control_c, 0, 64, 56
2, 11043, Note_on_c, 0, 58, 74
2, 11045, Note_on_c, 0, 65, 95
2, 11045, Note_on_c, 0, 60, 85
2, 11045, Control_c, 0, 64, 0
2, 11048, Note_on_c, 0, 67, 0
2, 11048, Note_on_c, 0, 52, 67
2, 11052, Note_on_c, 0, 60, 0
2, 11056, Note_on_c, 0, 58, 0
2, 11059, Note_on_c, 0, 52, 0
2, 11066, Note_on_c, 0, 65, 0
2, 11083, Note_on_c, 0, 67, 96
2, 11098, Note_on_c, 0, 67, 0
2, 11123, Note_on_c, 0, 68, 85
2, 11127, Note_on_c, 0, 29, 62
2, 11130, Control_c, 0, 64, 72
2, 11131, Note_on_c, 0, 41, 66
2, 11133, Control_c, 0, 64, 127
2, 11134, Note_on_c, 0, 29, 0
2, 11139, Note_on_c, 0, 68, 0
2, 11142, Note_on_c, 0, 41, 0
2, 11147, Note_on_c, 0, 70, 72
2, 11166, Note_on_c, 0, 68, 68
2, 11167, Note_on_c, 0, 70, 0
2, 11179, Note_on_c, 0, 68, 0
2, 11181, Note_on_c, 0, 70, 75
2, 11193, Note_on_c, 0, 68, 75
2, 11196, Note_on_c, 0, 70, 0
2, 11203, Control_c, 0, 64, 88
2, 11206, Note_on_c, 0, 67, 99
2, 11207, Control_c, 0, 64, 24
2, 11208, Note_on_c, 0, 68, 0
2, 11208, Note_on_c, 0, 60, 91
2, 11210, Note_on_c, 0, 56, 74
2, 11211, Control_c, 0, 64, 0
2, 11213, Note_on_c, 0, 53, 53
2, 11214, Note_on_c, 0, 60, 0
2, 11220, Note_on_c, 0, 53, 0
2, 11223, Note_on_c, 0, 56, 0
2, 11226, Note_on_c, 0, 67, 0
2, 11241, Note_on_c, 0, 68, 91
2, 11267, Note_on_c, 0, 68, 0
2, 11281, Note_on_c, 0, 69, 89
2, 11283, Note_on_c, 0, 61, 67
2, 11285, Note_on_c, 0, 67, 78
2, 11285, Control_c, 0, 64, 40
2, 11286, Note_on_c, 0, 51, 72
2, 11287, Note_on_c, 0, 39, 64
2, 11290, Control_c, 0, 64, 88
2, 11293, Note_on_c, 0, 39, 0
2, 11293, Note_on_c, 0, 51, 0
2, 11293, Control_c, 0, 64, 127
2, 11299, Note_on_c, 0, 69, 0
2, 11299, Note_on_c, 0, 61, 0
2, 11306, Note_on_c, 0, 67, 0
2, 11317, Note_on_c, 0, 70, 92
2, 11320, Control_c, 0, 64, 88
2, 11323, Control_c, 0, 64, 56
2, 11325, Note_on_c, 0, 67, 34
2, 11327, Control_c, 0, 64, 24
2, 11331, Note_on_c, 0, 67, 0
2, 11331, Control_c, 0, 64, 0
2, 11344, Note_on_c, 0, 70, 0
2, 11355, Note_on_c, 0, 72, 92
2, 11355, Note_on_c, 0, 61, 81
2, 11356, Note_on_c, 0, 67, 80
2, 11357, Note_on_c, 0, 58, 66
2, 11357, Note_on_c, 0, 51, 74
2, 11363, Note_on_c, 0, 58, 0
2, 11364, Note_on_c, 0, 51, 0
2, 11367, Note_on_c, 0, 61, 0
2, 11368, Note_on_c, 0, 72, 0
2, 11371, Note_on_c, 0, 67, 0
2, 11388, Note_on_c, 0, 73, 90
2, 11408, Note_on_c, 0, 73, 0
2, 11430, Note_on_c, 0, 68, 74
2, 11431, Note_on_c, 0, 72, 99
2, 11433, Note_on_c, 0, 60, 81
2, 11435, Note_on_c, 0, 56, 72
2, 11435, Note_on_c, 0, 44, 70
2, 11437, Note_on_c, 0, 51, 64
2, 11439, Note_on_c, 0, 60, 0
2, 11440, Control_c, 0, 64, 88
2, 11442, Note_on_c, 0, 44, 0
2, 11444, Note_on_c, 0, 51, 0
2, 11445, Control_c, 0, 64, 127
2, 11447, Note_on_c, 0, 56, 0
2, 11448, Note_on_c, 0, 68, 0
2, 11451, Note_on_c, 0, 72, 0
2, 11471, Control_c, 0, 64, 88
2, 11475, Control_c, 0, 64, 40
2, 11478, Control_c, 0, 64, 0
2, 11523, Note_on_c, 0, 77, 104
2, 11526, Note_on_c, 0, 65, 69
2, 11528, Note_on_c, 0, 68, 74
2, 11528, Note_on_c, 0, 59, 68
2, 11530, Control_c, 0, 64, 88
2, 11531, Note_on_c, 0, 62, 61
2, 11533, Control_c, 0, 64, 127
2, 11554, Note_on_c, 0, 65, 0
2, 11561, Note_on_c, 0, 59, 0
2, 11564, Note_on_c, 0, 77, 0
2, 11565, Note_on_c, 0, 68, 0
2, 11566, Note_on_c, 0, 62, 0
2, 11591, Note_on_c, 0, 75, 84
2, 11591, Note_on_c, 0, 68, 62
2, 11592, Note_on_c, 0, 63, 71
2, 11592, Note_on_c, 0, 60, 73
2, 11599, Note_on_c, 0, 60, 0
2, 11599, Note_on_c, 0, 63, 0
2, 11601, Note_on_c, 0, 68, 0
2, 11601, Note_on_c, 0, 75, 0
2, 11606, Control_c, 0, 64, 72
2, 11610, Control_c, 0, 64, 24
2, 11615, Note_on_c, 0, 75, 94
2, 11615, Control_c, 0, 64, 0
2, 11616, Note_on_c, 0, 63, 79
2, 11616, Note_on_c, 0, 60, 73
2, 11620, Note_on_c, 0, 68, 42
2, 11624, Note_on_c, 0, 60, 0
2, 11627, Note_on_c, 0, 68, 0
2, 11627, Note_on_c, 0, 63, 0
2, 11643, Note_on_c, 0, 75, 0
2, 11651, Note_on_c, 0, 68, 95
2, 11693, Note_on_c, 0, 80, 107
2, 11698, Note_on_c, 0, 56, 91
2, 11700, Note_on_c, 0, 44, 79
2, 11706, Note_on_c, 0, 44, 0
2, 11706, Note_on_c, 0, 56, 0
2, 11707, Control_c, 0, 64, 127
2, 11728, Note_on_c, 0, 68, 0
2, 11731, Note_on_c, 0, 80, 0
2, 11763, Note_on_c, 0, 79, 98
2, 11767, Note_on_c, 0, 67, 74
2, 11773, Note_on_c, 0, 67, 0
2, 11776, Note_on_c, 0, 79, 0
2, 11785, Control_c, 0, 64, 24
2, 11786, Note_on_c, 0, 77, 113
2, 11787, Note_on_c, 0, 65, 100
2, 11788, Control_c, 0, 64, 0
2, 11791, Note_on_c, 0, 49, 90
2, 11791, Note_on_c, 0, 37, 84
2, 11803, Note_on_c, 0, 49, 0
2, 11806, Note_on_c, 0, 37, 0
2, 11812, Control_c, 0, 64, 127
2, 11847, Note_on_c, 0, 65, 0
2, 11876, Note_on_c, 0, 58, 75
2, 11877, Note_on_c, 0, 53, 80
2, 11885, Note_on_c, 0, 53, 0
2, 11888, Note_on_c, 0, 58, 0
2, 11889, Note_on_c, 0, 77, 0
2, 11913, Control_c, 0, 64, 72
2, 11917, Control_c, 0, 64, 0
2, 11951, Note_on_c, 0, 67, 89
2, 11956, Note_on_c, 0, 48, 107
2, 11957, Note_on_c, 0, 36, 90
2, 11967, Control_c, 0, 64, 56
2, 11968, Note_on_c, 0, 36, 0
2, 11969, Note_on_c, 0, 48, 0
2, 11969, Note_on_c, 0, 67, 0
2, 11971, Control_c, 0, 64, 127
2, 11975, Note_on_c, 0, 79, 76
2, 11997, Note_on_c, 0, 79, 0
2, 11997, Note_on_c, 0, 80, 94
2, 12017, Note_on_c, 0, 79, 86
2, 12023, Note_on_c, 0, 80, 0
2, 12030, Note_on_c, 0, 79, 0
2, 12042, Note_on_c, 0, 64, 80
2, 12043, Note_on_c, 0, 77, 103
2, 12043, Note_on_c, 0, 60, 73
2, 12045, Note_on_c, 0, 58, 66
2, 12045, Note_on_c, 0, 65, 91
2, 12050, Note_on_c, 0, 60, 0
2, 12052, Control_c, 0, 64, 104
2, 12053, Note_on_c, 0, 64, 0
2, 12056, Note_on_c, 0, 65, 0
2, 12057, Note_on_c, 0, 58, 0
2, 12057, Control_c, 0, 64, 56
2, 12059, Note_on_c, 0, 77, 0
2, 12061, Control_c, 0, 64, 0
2, 12080, Note_on_c, 0, 79, 104
2, 12082, Note_on_c, 0, 67, 87
2, 12089, Note_on_c, 0, 67, 0
2, 12101, Note_on_c, 0, 79, 0
2, 12120, Note_on_c, 0, 68, 103
2, 12122, Note_on_c, 0, 29, 73
2, 12123, Note_on_c, 0, 41, 80
2, 12129, Note_on_c, 0, 29, 0
2, 12130, Control_c, 0, 64, 104
2, 12133, Control_c, 0, 64, 127
2, 12139, Note_on_c, 0, 41, 0
2, 12142, Note_on_c, 0, 68, 0
2, 12142, Note_on_c, 0, 80, 81
2, 12163, Note_on_c, 0, 80, 0
2, 12165, Note_on_c, 0, 82, 83
2, 12181, Note_on_c, 0, 80, 79
2, 12190, Note_on_c, 0, 82, 0
2, 12197, Note_on_c, 0, 80, 0
2, 12206, Note_on_c, 0, 65, 83
2, 12206, Note_on_c, 0, 79, 100
2, 12208, Note_on_c, 0, 67, 87
2, 12208, Note_on_c, 0, 60, 78
2, 12208, Note_on_c, 0, 56, 65
2, 12212, Note_on_c, 0, 65, 0
2, 12214, Note_on_c, 0, 60, 0
2, 12215, Control_c, 0, 64, 72
2, 12218, Note_on_c, 0, 67, 0
2, 12218, Control_c, 0, 64, 24
2, 12219, Note_on_c, 0, 79, 0
2, 12221, Note_on_c, 0, 56, 0
2, 12222, Control_c, 0, 64, 0
2, 12242, Note_on_c, 0, 80, 105
2, 12242, Note_on_c, 0, 68, 100
2, 12255, Note_on_c, 0, 68, 0
2, 12259, Note_on_c, 0, 80, 0
2, 12281, Note_on_c, 0, 81, 99
2, 12281, Note_on_c, 0, 69, 92
2, 12282, Note_on_c, 0, 39, 70
2, 12282, Note_on_c, 0, 75, 85
2, 12283, Note_on_c, 0, 51, 80
2, 12285, Control_c, 0, 64, 72
2, 12288, Control_c, 0, 64, 127
2, 12292, Note_on_c, 0, 39, 0
2, 12293, Note_on_c, 0, 81, 0
2, 12293, Note_on_c, 0, 69, 0
2, 12294, Note_on_c, 0, 51, 0
2, 12298, Note_on_c, 0, 75, 0
2, 12317, Note_on_c, 0, 70, 94
2, 12318, Note_on_c, 0, 82, 99
2, 12333, Note_on_c, 0, 82, 0
2, 12333, Note_on_c, 0, 70, 0
2, 12335, Control_c, 0, 64, 88
2, 12338, Control_c, 0, 64, 40
2, 12343, Control_c, 0, 64, 0
2, 12356, Note_on_c, 0, 79, 100
2, 12357, Note_on_c, 0, 84, 103
2, 12357, Note_on_c, 0, 67, 92
2, 12357, Note_on_c, 0, 61, 82
2, 12358, Note_on_c, 0, 72, 97
2, 12358, Note_on_c, 0, 63, 75
2, 12364, Note_on_c, 0, 72, 0
2, 12368, Note_on_c, 0, 63, 0
2, 12369, Note_on_c, 0, 67, 0
2, 12369, Note_on_c, 0, 61, 0
2, 12369, Note_on_c, 0, 84, 0
2, 12374, Note_on_c, 0, 79, 0
2, 12392, Note_on_c, 0, 85, 99
2, 12393, Note_on_c, 0, 73, 98
2, 12405, Note_on_c, 0, 73, 0
2, 12413, Note_on_c, 0, 85, 0
2, 12435, Note_on_c, 0, 80, 100
2, 12435, Note_on_c, 0, 72, 115
2, 12435, Note_on_c, 0, 84, 107
2, 12436, Note_on_c, 0, 75, 102
2, 12436, Note_on_c, 0, 68, 90
2, 12436, Note_on_c, 0, 63, 86
2, 12436, Note_on_c, 0, 56, 82
2, 12443, Control_c, 0, 64, 88
2, 12447, Note_on_c, 0, 56, 0
2, 12447, Note_on_c, 0, 75, 0
2, 12447, Note_on_c, 0, 72, 0
2, 12447, Note_on_c, 0, 68, 0
2, 12447, Control_c, 0, 64, 127
2, 12449, Note_on_c, 0, 63, 0
2, 12455, Note_on_c, 0, 84, 0
2, 12456, Note_on_c, 0, 80, 0
2, 12475, Control_c, 0, 64, 104
2, 12478, Control_c, 0, 64, 56
2, 12482, Control_c, 0, 64, 0
2, 12520, Note_on_c, 0, 89, 106
2, 12521, Note_on_c, 0, 80, 95
2, 12522, Note_on_c, 0, 68, 87
2, 12523, Note_on_c, 0, 86, 90
2, 12523, Note_on_c, 0, 71, 94
2, 12523, Note_on_c, 0, 77, 98
2, 12523, Note_on_c, 0, 62, 82
2, 12523, Note_on_c, 0, 59, 83
2, 12530, Control_c, 0, 64, 88
2, 12533, Note_on_c, 0, 59, 0
2, 12533, Note_on_c, 0, 62, 0
2, 12533, Control_c, 0, 64, 127
2, 12534, Note_on_c, 0, 77, 0
2, 12535, Note_on_c, 0, 68, 0
2, 12535, Note_on_c, 0, 71, 0
2, 12539, Note_on_c, 0, 86, 0
2, 12541, Note_on_c, 0, 89, 0
2, 12544, Note_on_c, 0, 80, 0
2, 12588, Note_on_c, 0, 68, 87
2, 12591, Note_on_c, 0, 75, 95
2, 12591, Note_on_c, 0, 87, 98
2, 12591, Note_on_c, 0, 72, 85
2, 12591, Note_on_c, 0, 63, 63
2, 12591, Control_c, 0, 64, 88
2, 12593, Note_on_c, 0, 60, 63
2, 12593, Note_on_c, 0, 80, 74
2, 12595, Control_c, 0, 64, 40
2, 12597, Note_on_c, 0, 63, 0
2, 12597, Note_on_c, 0, 72, 0
2, 12598, Control_c, 0, 64, 0
2, 12599, Note_on_c, 0, 60, 0
2, 12599, Note_on_c, 0, 80, 0
2, 12601, Note_on_c, 0, 68, 0
2, 12601, Note_on_c, 0, 87, 0
2, 12601, Note_on_c, 0, 75, 0
2, 12611, Note_on_c, 0, 87, 102
2, 12612, Note_on_c, 0, 75, 98
2, 12613, Note_on_c, 0, 60, 68
2, 12615, Note_on_c, 0, 63, 66
2, 12615, Note_on_c, 0, 80, 63
2, 12615, Note_on_c, 0, 72, 78
2, 12615, Note_on_c, 0, 68, 65
2, 12620, Note_on_c, 0, 60, 0
2, 12621, Note_on_c, 0, 72, 0
2, 12621, Note_on_c, 0, 68, 0
2, 12622, Control_c, 0, 64, 127
2, 12625, Note_on_c, 0, 63, 0
2, 12633, Note_on_c, 0, 80, 0
2, 12644, Note_on_c, 0, 87, 0
2, 12648, Note_on_c, 0, 75, 0
2, 12648, Control_c, 0, 64, 104
2, 12653, Control_c, 0, 64, 72
2, 12657, Control_c, 0, 64, 56
2, 12661, Control_c, 0, 64, 24
2, 12665, Control_c, 0, 64, 0
2, 12673, Note_on_c, 0, 87, 98
2, 12676, Note_on_c, 0, 53, 79
2, 12681, Note_on_c, 0, 63, 76
2, 12688, Note_on_c, 0, 53, 0
2, 12696, Note_on_c, 0, 85, 96
2, 12697, Note_on_c, 0, 73, 95
2, 12698, Note_on_c, 0, 81, 85
2, 12700, Note_on_c, 0, 69, 75
2, 12700, Control_c, 0, 64, 72
2, 12701, Note_on_c, 0, 63, 0
2, 12703, Control_c, 0, 64, 127
2, 12706, Note_on_c, 0, 87, 0
2, 12708, Note_on_c, 0, 73, 0
2, 12710, Note_on_c, 0, 81, 0
2, 12713, Note_on_c, 0, 69, 0
2, 12724, Note_on_c, 0, 85, 0
2, 12742, Control_c, 0, 64, 104
2, 12746, Note_on_c, 0, 84, 100
2, 12746, Control_c, 0, 64, 72
2, 12747, Note_on_c, 0, 72, 96
2, 12750, Control_c, 0, 64, 0
2, 12754, Note_on_c, 0, 72, 0
2, 12757, Note_on_c, 0, 84, 0
2, 12761, Note_on_c, 0, 46, 72
2, 12763, Note_on_c, 0, 53, 24
2, 12768, Note_on_c, 0, 61, 94
2, 12771, Note_on_c, 0, 82, 95
2, 12772, Note_on_c, 0, 77, 93
2, 12772, Note_on_c, 0, 70, 90
2, 12774, Note_on_c, 0, 46, 0
2, 12779, Note_on_c, 0, 53, 0
2, 12780, Note_on_c, 0, 61, 0
2, 12780, Note_on_c, 0, 70, 0
2, 12781, Control_c, 0, 64, 88
2, 12785, Control_c, 0, 64, 127
2, 12788, Note_on_c, 0, 77, 0
2, 12792, Note_on_c, 0, 82, 0
2, 12855, Control_c, 0, 64, 40
2, 12858, Control_c, 0, 64, 0
2, 12860, Note_on_c, 0, 70, 102
2, 12860, Note_on_c, 0, 58, 103
2, 12861, Note_on_c, 0, 51, 94
2, 12861, Note_on_c, 0, 66, 88
2, 12862, Note_on_c, 0, 63, 81
2, 12866, Note_on_c, 0, 39, 54
2, 12878, Note_on_c, 0, 63, 0
2, 12879, Note_on_c, 0, 66, 0
2, 12881, Note_on_c, 0, 58, 0
2, 12882, Note_on_c, 0, 51, 0
2, 12882, Control_c, 0, 64, 88
2, 12884, Note_on_c, 0, 39, 0
2, 12886, Note_on_c, 0, 70, 0
2, 12886, Control_c, 0, 64, 127
2, 12922, Note_on_c, 0, 72, 98
2, 12925, Note_on_c, 0, 60, 87
2, 12928, Note_on_c, 0, 72, 0
2, 12930, Note_on_c, 0, 60, 0
2, 12948, Note_on_c, 0, 66, 65
2, 12948, Note_on_c, 0, 73, 107
2, 12950, Note_on_c, 0, 61, 99
2, 12951, Note_on_c, 0, 65, 99
2, 12952, Control_c, 0, 64, 0
2, 12955, Note_on_c, 0, 49, 90
2, 12955, Note_on_c, 0, 41, 84
2, 12957, Note_on_c, 0, 34, 72
2, 12958, Note_on_c, 0, 66, 0
2, 12965, Note_on_c, 0, 49, 0
2, 12970, Note_on_c, 0, 41, 0
2, 12973, Note_on_c, 0, 34, 0
2, 12974, Note_on_c, 0, 65, 0
2, 12975, Note_on_c, 0, 61, 0
2, 12975, Control_c, 0, 64, 104
2, 12978, Control_c, 0, 64, 127
2, 12985, Note_on_c, 0, 73, 0
2, 13043, Note_on_c, 0, 73, 107
2, 13045, Note_on_c, 0, 61, 106
2, 13045, Control_c, 0, 64, 40
2, 13046, Note_on_c, 0, 66, 92
2, 13046, Note_on_c, 0, 63, 90
2, 13047, Note_on_c, 0, 39, 93
2, 13047, Note_on_c, 0, 34, 83
2, 13048, Note_on_c, 0, 27, 90
2, 13048, Control_c, 0, 64, 0
2, 13059, Note_on_c, 0, 27, 0
2, 13059, Note_on_c, 0, 39, 0
2, 13062, Note_on_c, 0, 34, 0
2, 13063, Control_c, 0, 64, 72
2, 13067, Control_c, 0, 64, 127
2, 13071, Note_on_c, 0, 63, 0
2, 13077, Note_on_c, 0, 66, 0
2, 13078, Note_on_c, 0, 61, 0
2, 13081, Note_on_c, 0, 73, 0
2, 13113, Note_on_c, 0, 60, 98
2, 13113, Note_on_c, 0, 72, 100
2, 13120, Note_on_c, 0, 72, 0
2, 13123, Note_on_c, 0, 60, 0
2, 13141, Note_on_c, 0, 70, 95
2, 13141, Note_on_c, 0, 58, 100
2, 13143, Note_on_c, 0, 61, 88
2, 13143, Note_on_c, 0, 65, 84
2, 13145, Note_on_c, 0, 41, 94
2, 13146, Note_on_c, 0, 49, 97
2, 13146, Control_c, 0, 64, 72
2, 13148, Note_on_c, 0, 34, 71
2, 13150, Control_c, 0, 64, 0
2, 13154, Note_on_c, 0, 34, 0
2, 13158, Note_on_c, 0, 49, 0
2, 13160, Note_on_c, 0, 41, 0
2, 13167, Control_c, 0, 64, 104
2, 13169, Note_on_c, 0, 58, 0
2, 13170, Note_on_c, 0, 65, 0
2, 13170, Note_on_c, 0, 61, 0
2, 13171, Note_on_c, 0, 70, 0
2, 13172, Control_c, 0, 64, 127
2, 13245, Note_on_c, 0, 68, 105
2, 13246, Note_on_c, 0, 56, 112
2, 13247, Note_on_c, 0, 58, 89
2, 13248, Note_on_c, 0, 63, 86
2, 13250, Control_c, 0, 64, 72
2, 13251, Note_on_c, 0, 51, 100
2, 13253, Note_on_c, 0, 46, 88
2, 13253, Note_on_c, 0, 39, 84
2, 13253, Control_c, 0, 64, 0
2, 13277, Control_c, 0, 64, 127
2, 13288, Note_on_c, 0, 46, 0
2, 13290, Note_on_c, 0, 39, 0
2, 13291, Note_on_c, 0, 51, 0
2, 13301, Note_on_c, 0, 68, 0
2, 13301, Note_on_c, 0, 56, 0
2, 13304, Note_on_c, 0, 63, 0
2, 13307, Note_on_c, 0, 58, 0
2, 13338, Note_on_c, 0, 66, 102
2, 13343, Note_on_c, 0, 54, 82
2, 13356, Note_on_c, 0, 66, 0
2, 13360, Note_on_c, 0, 54, 0
2, 13367, Note_on_c, 0, 65, 107
2, 13367, Note_on_c, 0, 61, 93
2, 13367, Note_on_c, 0, 53, 102
2, 13368, Note_on_c, 0, 58, 83
2, 13373, Note_on_c, 0, 49, 93
2, 13373, Note_on_c, 0, 41, 89
2, 13373, Control_c, 0, 64, 104
2, 13377, Note_on_c, 0, 34, 66
2, 13377, Control_c, 0, 64, 0
2, 13405, Control_c, 0, 64, 88
2, 13408, Control_c, 0, 64, 127
2, 13410, Note_on_c, 0, 49, 0
2, 13414, Note_on_c, 0, 53, 0
2, 13416, Note_on_c, 0, 41, 0
2, 13417, Note_on_c, 0, 65, 0
2, 13420, Note_on_c, 0, 61, 0
2, 13420, Note_on_c, 0, 58, 0
2, 13420, Note_on_c, 0, 34, 0
2, 13488, Note_on_c, 0, 33, 80
2, 13488, Note_on_c, 0, 45, 86
2, 13495, Control_c, 0, 64, 88
2, 13498, Control_c, 0, 64, 56
2, 13502, Control_c, 0, 64, 0
2, 13509, Note_on_c, 0, 45, 0
2, 13515, Note_on_c, 0, 33, 0
2, 13516, Note_on_c, 0, 46, 81
2, 13516, Note_on_c, 0, 34, 88
2, 13536, Note_on_c, 0, 46, 0
2, 13538, Note_on_c, 0, 34, 0
2, 13545, Note_on_c, 0, 48, 87
2, 13545, Note_on_c, 0, 36, 85
2, 13566, Note_on_c, 0, 48, 0
2, 13567, Note_on_c, 0, 49, 91
2, 13567, Note_on_c, 0, 37, 79
2, 13577, Note_on_c, 0, 36, 0
2, 13595, Note_on_c, 0, 49, 0
2, 13595, Note_on_c, 0, 39, 75
2, 13597, Note_on_c, 0, 51, 88
2, 13599, Note_on_c, 0, 37, 0
2, 13613, Note_on_c, 0, 51, 0
2, 13618, Note_on_c, 0, 39, 0
2, 13618, Note_on_c, 0, 53, 90
2, 13618, Note_on_c, 0, 41, 91
2, 13640, Note_on_c, 0, 41, 0
2, 13641, Note_on_c, 0, 53, 0
2, 13642, Note_on_c, 0, 43, 89
2, 13645, Note_on_c, 0, 55, 97
2, 13663, Note_on_c, 0, 43, 0
2, 13666, Note_on_c, 0, 45, 84
2, 13668, Note_on_c, 0, 55, 0
2, 13668, Note_on_c, 0, 57, 94
2, 13689, Note_on_c, 0, 45, 0
2, 13690, Note_on_c, 0, 57, 0
2, 13691, Note_on_c, 0, 46, 93
2, 13692, Note_on_c, 0, 58, 88
2, 13698, Control_c, 0, 64, 24
2, 13701, Control_c, 0, 64, 72
2, 13703, Control_c, 0, 64, 88
2, 13706, Control_c, 0, 64, 104
2, 13708, Note_on_c, 0, 58, 0
2, 13711, Control_c, 0, 64, 127
2, 13712, Note_on_c, 0, 46, 0
2, 13715, Note_on_c, 0, 48, 92
2, 13716, Note_on_c, 0, 60, 84
2, 13717, Control_c, 0, 64, 88
2, 13720, Control_c, 0, 64, 72
2, 13722, Control_c, 0, 64, 40
2, 13725, Control_c, 0, 64, 0
2, 13733, Note_on_c, 0, 60, 0
2, 13736, Note_on_c, 0, 49, 75
2, 13736, Note_on_c, 0, 61, 82
2, 13740, Note_on_c, 0, 48, 0
2, 13756, Note_on_c, 0, 49, 0
2, 13757, Note_on_c, 0, 61, 0
2, 13757, Note_on_c, 0, 63, 87
2, 13757, Note_on_c, 0, 51, 89
2, 13778, Note_on_c, 0, 63, 0
2, 13779, Note_on_c, 0, 51, 0
2, 13780, Note_on_c, 0, 65, 97
2, 13781, Note_on_c, 0, 53, 94
2, 13802, Note_on_c, 0, 53, 0
2, 13802, Note_on_c, 0, 55, 92
2, 13803, Note_on_c, 0, 67, 94
2, 13817, Note_on_c, 0, 65, 0
2, 13819, Note_on_c, 0, 55, 0
2, 13822, Note_on_c, 0, 57, 78
2, 13823, Note_on_c, 0, 67, 0
2, 13825, Note_on_c, 0, 69, 99
2, 13843, Note_on_c, 0, 57, 0
2, 13845, Note_on_c, 0, 70, 94
2, 13845, Note_on_c, 0, 58, 81
2, 13850, Note_on_c, 0, 69, 0
2, 13858, Note_on_c, 0, 70, 0
2, 13865, Note_on_c, 0, 58, 0
2, 13867, Note_on_c, 0, 60, 91
2, 13867, Note_on_c, 0, 72, 96
2, 13887, Note_on_c, 0, 73, 87
2, 13887, Note_on_c, 0, 61, 81
2, 13888, Note_on_c, 0, 72, 0
2, 13893, Note_on_c, 0, 60, 0
2, 13908, Note_on_c, 0, 73, 0
2, 13908, Note_on_c, 0, 75, 92
2, 13908, Note_on_c, 0, 63, 83
2, 13914, Note_on_c, 0, 61, 0
2, 13923, Note_on_c, 0, 75, 0
2, 13928, Note_on_c, 0, 63, 0
2, 13928, Note_on_c, 0, 77, 98
2, 13931, Note_on_c, 0, 65, 92
2, 13948, Note_on_c, 0, 77, 0
2, 13952, Note_on_c, 0, 79, 97
2, 13952, Note_on_c, 0, 67, 84
2, 13956, Note_on_c, 0, 65, 0
2, 13967, Note_on_c, 0, 67, 0
2, 13968, Note_on_c, 0, 79, 0
2, 13972, Note_on_c, 0, 69, 86
2, 13972, Note_on_c, 0, 81, 98
2, 13992, Note_on_c, 0, 81, 0
2, 13994, Note_on_c, 0, 69, 0
2, 13996, Note_on_c, 0, 82, 98
2, 14000, Note_on_c, 0, 70, 95
2, 14011, Control_c, 0, 64, 88
2, 14013, Control_c, 0, 64, 127
2, 14015, Note_on_c, 0, 70, 0
2, 14032, Control_c, 0, 64, 104
2, 14035, Control_c, 0, 64, 72
2, 14037, Note_on_c, 0, 82, 0
2, 14037, Control_c, 0, 64, 40
2, 14040, Control_c, 0, 64, 0
2, 14058, Note_on_c, 0, 84, 87
2, 14068, Note_on_c, 0, 82, 79
2, 14072, Note_on_c, 0, 39, 96
2, 14072, Note_on_c, 0, 79, 87
2, 14072, Note_on_c, 0, 73, 77
2, 14073, Note_on_c, 0, 84, 0
2, 14073, Note_on_c, 0, 27, 81
2, 14078, Control_c, 0, 64, 88
2, 14079, Note_on_c, 0, 27, 0
2, 14079, Note_on_c, 0, 39, 0
2, 14081, Control_c, 0, 64, 127
2, 14082, Note_on_c, 0, 73, 0
2, 14085, Note_on_c, 0, 79, 0
2, 14086, Note_on_c, 0, 82, 0
2, 14106, Note_on_c, 0, 81, 103
2, 14107, Note_on_c, 0, 72, 87
2, 14110, Note_on_c, 0, 80, 35
2, 14110, Note_on_c, 0, 79, 84
2, 14113, Note_on_c, 0, 80, 0
2, 14115, Note_on_c, 0, 79, 0
2, 14115, Note_on_c, 0, 72, 0
2, 14118, Note_on_c, 0, 81, 0
2, 14120, Note_on_c, 0, 51, 42
2, 14125, Note_on_c, 0, 51, 0
2, 14142, Note_on_c, 0, 82, 99
2, 14142, Control_c, 0, 64, 104
2, 14145, Note_on_c, 0, 73, 93
2, 14145, Control_c, 0, 64, 40
2, 14146, Note_on_c, 0, 79, 96
2, 14146, Control_c, 0, 64, 0
2, 14148, Note_on_c, 0, 51, 83
2, 14148, Note_on_c, 0, 39, 72
2, 14158, Note_on_c, 0, 73, 0
2, 14159, Note_on_c, 0, 39, 0
2, 14159, Note_on_c, 0, 79, 0
2, 14161, Note_on_c, 0, 51, 0
2, 14161, Control_c, 0, 64, 56
2, 14163, Control_c, 0, 64, 127
2, 14172, Note_on_c, 0, 82, 0
2, 14215, Note_on_c, 0, 84, 117
2, 14215, Note_on_c, 0, 72, 99
2, 14216, Note_on_c, 0, 79, 99
2, 14218, Note_on_c, 0, 63, 85
2, 14218, Note_on_c, 0, 51, 81
2, 14218, Control_c, 0, 64, 40
2, 14221, Control_c, 0, 64, 0
2, 14230, Control_c, 0, 64, 88
2, 14231, Control_c, 0, 64, 127
2, 14233, Control_c, 0, 64, 127
2, 14234, Note_on_c, 0, 79, 0
2, 14236, Control_c, 0, 64, 88
2, 14238, Note_on_c, 0, 84, 0
2, 14238, Control_c, 0, 64, 127
2, 14240, Note_on_c, 0, 51, 0
2, 14243, Note_on_c, 0, 72, 0
2, 14248, Note_on_c, 0, 63, 0
2, 14282, Control_c, 0, 64, 72
2, 14286, Control_c, 0, 64, 0
2, 14291, Note_on_c, 0, 80, 106
2, 14291, Note_on_c, 0, 68, 95
2, 14293, Note_on_c, 0, 72, 99
2, 14295, Note_on_c, 0, 65, 82
2, 14297, Note_on_c, 0, 53, 72
2, 14297, Note_on_c, 0, 60, 76
2, 14303, Note_on_c, 0, 60, 0
2, 14305, Note_on_c, 0, 53, 0
2, 14306, Note_on_c, 0, 65, 0
2, 14307, Note_on_c, 0, 68, 0
2, 14308, Note_on_c, 0, 72, 0
2, 14308, Control_c, 0, 64, 88
2, 14312, Control_c, 0, 64, 127
2, 14313, Note_on_c, 0, 80, 0
2, 14361, Control_c, 0, 64, 24
2, 14365, Note_on_c, 0, 75, 112
2, 14365, Control_c, 0, 64, 0
2, 14366, Note_on_c, 0, 63, 101
2, 14367, Note_on_c, 0, 68, 90
2, 14367, Note_on_c, 0, 60, 85
2, 14367, Note_on_c, 0, 56, 73
2, 14368, Note_on_c, 0, 48, 88
2, 14380, Note_on_c, 0, 48, 0
2, 14381, Note_on_c, 0, 63, 0
2, 14383, Note_on_c, 0, 60, 0
2, 14383, Note_on_c, 0, 56, 0
2, 14385, Note_on_c, 0, 68, 0
2, 14385, Control_c, 0, 64, 40
2, 14387, Control_c, 0, 64, 127
2, 14388, Note_on_c, 0, 75, 0
2, 14437, Control_c, 0, 64, 0
2, 14438, Note_on_c, 0, 77, 117
2, 14438, Note_on_c, 0, 65, 107
2, 14440, Note_on_c, 0, 68, 98
2, 14442, Note_on_c, 0, 61, 87
2, 14442, Note_on_c, 0, 56, 83
2, 14445, Note_on_c, 0, 49, 79
2, 14450, Note_on_c, 0, 65, 0
2, 14453, Note_on_c, 0, 56, 0
2, 14453, Note_on_c, 0, 61, 0
2, 14455, Control_c, 0, 64, 56
2, 14457, Note_on_c, 0, 49, 0
2, 14458, Note_on_c, 0, 77, 0
2, 14458, Note_on_c, 0, 68, 0
2, 14458, Control_c, 0, 64, 127
2, 14516, Note_on_c, 0, 80, 112
2, 14517, Note_on_c, 0, 68, 97
2, 14518, Note_on_c, 0, 72, 104
2, 14520, Note_on_c, 0, 41, 87
2, 14520, Note_on_c, 0, 53, 95
2, 14520, Control_c, 0, 64, 0
2, 14534, Note_on_c, 0, 72, 0
2, 14535, Note_on_c, 0, 41, 0
2, 14535, Control_c, 0, 64, 56
2, 14536, Note_on_c, 0, 80, 0
2, 14538, Note_on_c, 0, 68, 0
2, 14538, Note_on_c, 0, 53, 0
2, 14538, Control_c, 0, 64, 127
2, 14597, Note_on_c, 0, 73, 107
2, 14597, Control_c, 0, 64, 24
2, 14598, Note_on_c, 0, 61, 99
2, 14601, Note_on_c, 0, 65, 91
2, 14601, Note_on_c, 0, 46, 81
2, 14601, Note_on_c, 0, 70, 78
2, 14601, Note_on_c, 0, 58, 82
2, 14602, Note_on_c, 0, 53, 85
2, 14602, Control_c, 0, 64, 0
2, 14613, Note_on_c, 0, 53, 0
2, 14613, Control_c, 0, 64, 56
2, 14614, Note_on_c, 0, 61, 0
2, 14614, Note_on_c, 0, 65, 0
2, 14617, Note_on_c, 0, 58, 0
2, 14617, Control_c, 0, 64, 127
2, 14618, Note_on_c, 0, 70, 0
2, 14619, Note_on_c, 0, 46, 0
2, 14622, Note_on_c, 0, 73, 0
2, 14682, Note_on_c, 0, 77, 113
2, 14682, Note_on_c, 0, 68, 91
2, 14682, Note_on_c, 0, 73, 94
2, 14683, Note_on_c, 0, 46, 99
2, 14683, Note_on_c, 0, 65, 92
2, 14685, Note_on_c, 0, 34, 89
2, 14685, Control_c, 0, 64, 104
2, 14688, Control_c, 0, 64, 0
2, 14695, Note_on_c, 0, 46, 0
2, 14696, Note_on_c, 0, 34, 0
2, 14700, Note_on_c, 0, 77, 0
2, 14700, Control_c, 0, 64, 40
2, 14701, Note_on_c, 0, 65, 0
2, 14703, Control_c, 0, 64, 127
2, 14707, Note_on_c, 0, 73, 0
2, 14707, Note_on_c, 0, 68, 0
2, 14773, Note_on_c, 0, 70, 105
2, 14775, Note_on_c, 0, 61, 97
2, 14775, Note_on_c, 0, 56, 102
2, 14775, Note_on_c, 0, 58, 89
2, 14776, Note_on_c, 0, 68, 95
2, 14778, Note_on_c, 0, 51, 100
2, 14778, Note_on_c, 0, 39, 89
2, 14778, Control_c, 0, 64, 88
2, 14782, Control_c, 0, 64, 0
2, 14785, Note_on_c, 0, 46, 65
2, 14791, Note_on_c, 0, 46, 0
2, 14793, Note_on_c, 0, 51, 0
2, 14794, Note_on_c, 0, 39, 0
2, 14795, Note_on_c, 0, 56, 0
2, 14797, Note_on_c, 0, 58, 0
2, 14797, Control_c, 0, 64, 56
2, 14801, Note_on_c, 0, 61, 0
2, 14801, Control_c, 0, 64, 127
2, 14809, Note_on_c, 0, 70, 0
2, 14809, Note_on_c, 0, 68, 0
2, 14876, Control_c, 0, 64, 0
2, 14878, Note_on_c, 0, 63, 90
2, 14878, Note_on_c, 0, 75, 105
2, 14880, Note_on_c, 0, 70, 85
2, 14880, Note_on_c, 0, 61, 99
2, 14880, Note_on_c, 0, 73, 87
2, 14881, Note_on_c, 0, 67, 92
2, 14882, Note_on_c, 0, 39, 99
2, 14882, Note_on_c, 0, 27, 88
2, 14891, Note_on_c, 0, 61, 0
2, 14893, Note_on_c, 0, 63, 0
2, 14893, Control_c, 0, 64, 72
2, 14895, Note_on_c, 0, 27, 0
2, 14895, Note_on_c, 0, 39, 0
2, 14897, Note_on_c, 0, 67, 0
2, 14898, Control_c, 0, 64, 127
2, 14905, Note_on_c, 0, 70, 0
2, 14906, Note_on_c, 0, 73, 0
2, 14909, Note_on_c, 0, 75, 0
2, 14966, Control_c, 0, 64, 104
2, 14970, Control_c, 0, 64, 0
2, 14997, Note_on_c, 0, 89, 113
2, 14997, Note_on_c, 0, 85, 97
2, 14998, Note_on_c, 0, 77, 110
2, 15000, Note_on_c, 0, 44, 110
2, 15000, Note_on_c, 0, 32, 85
2, 15008, Note_on_c, 0, 32, 0
2, 15011, Note_on_c, 0, 44, 0
2, 15015, Control_c, 0, 64, 127
2, 15028, Note_on_c, 0, 89, 0
2, 15035, Note_on_c, 0, 77, 0
2, 15038, Note_on_c, 0, 85, 0
2, 15085, Note_on_c, 0, 60, 85
2, 15086, Note_on_c, 0, 63, 86
2, 15086, Note_on_c, 0, 51, 73
2, 15094, Note_on_c, 0, 51, 0
2, 15097, Note_on_c, 0, 60, 0
2, 15101, Note_on_c, 0, 63, 0
2, 15118, Note_on_c, 0, 87, 97
2, 15120, Note_on_c, 0, 75, 95
2, 15121, Note_on_c, 0, 84, 89
2, 15133, Note_on_c, 0, 75, 0
2, 15135, Note_on_c, 0, 87, 0
2, 15137, Note_on_c, 0, 84, 0
2, 15146, Control_c, 0, 64, 104
2, 15147, Note_on_c, 0, 87, 95
2, 15148, Note_on_c, 0, 75, 95
2, 15150, Note_on_c, 0, 84, 96
2, 15150, Control_c, 0, 64, 24
2, 15151, Note_on_c, 0, 68, 95
2, 15153, Note_on_c, 0, 56, 71
2, 15153, Note_on_c, 0, 60, 80
2, 15153, Control_c, 0, 64, 0
2, 15161, Note_on_c, 0, 84, 0
2, 15161, Control_c, 0, 64, 88
2, 15162, Note_on_c, 0, 68, 0
2, 15163, Note_on_c, 0, 87, 0
2, 15163, Note_on_c, 0, 60, 0
2, 15164, Note_on_c, 0, 75, 0
2, 15165, Control_c, 0, 64, 127
2, 15166, Note_on_c, 0, 56, 0
2, 15208, Note_on_c, 0, 63, 90
2, 15223, Note_on_c, 0, 63, 0
2, 15226, Note_on_c, 0, 51, 103
2, 15226, Note_on_c, 0, 63, 95
2, 15227, Note_on_c, 0, 39, 91
2, 15232, Control_c, 0, 64, 56
2, 15236, Control_c, 0, 64, 0
2, 15237, Note_on_c, 0, 51, 0
2, 15238, Note_on_c, 0, 39, 0
2, 15242, Note_on_c, 0, 63, 0
2, 15246, Note_on_c, 0, 65, 91
2, 15247, Control_c, 0, 64, 40
2, 15251, Control_c, 0, 64, 104
2, 15255, Control_c, 0, 64, 127
2, 15261, Note_on_c, 0, 63, 91
2, 15267, Note_on_c, 0, 65, 0
2, 15273, Note_on_c, 0, 63, 0
2, 15273, Note_on_c, 0, 62, 90
2, 15286, Note_on_c, 0, 63, 86
2, 15288, Note_on_c, 0, 62, 0
2, 15292, Control_c, 0, 64, 88
2, 15296, Control_c, 0, 64, 0
2, 15300, Note_on_c, 0, 68, 87
2, 15302, Note_on_c, 0, 56, 92
2, 15303, Note_on_c, 0, 44, 79
2, 15304, Note_on_c, 0, 63, 0
2, 15311, Control_c, 0, 64, 72
2, 15312, Note_on_c, 0, 56, 0
2, 15313, Note_on_c, 0, 68, 0
2, 15315, Control_c, 0, 64, 127
2, 15319, Note_on_c, 0, 44, 0
2, 15356, Control_c, 0, 64, 0
2, 15373, Note_on_c, 0, 84, 103
2, 15373, Note_on_c, 0, 80, 92
2, 15373, Note_on_c, 0, 72, 97
2, 15376, Note_on_c, 0, 27, 75
2, 15376, Note_on_c, 0, 39, 87
2, 15378, Control_c, 0, 64, 104
2, 15379, Note_on_c, 0, 72, 0
2, 15382, Control_c, 0, 64, 127
2, 15383, Note_on_c, 0, 84, 0
2, 15387, Note_on_c, 0, 39, 0
2, 15387, Note_on_c, 0, 27, 0
2, 15389, Note_on_c, 0, 80, 0
2, 15406, Note_on_c, 0, 85, 112
2, 15406, Note_on_c, 0, 73, 94
2, 15411, Note_on_c, 0, 82, 50
2, 15417, Note_on_c, 0, 82, 0
2, 15417, Note_on_c, 0, 73, 0
2, 15421, Note_on_c, 0, 85, 0
2, 15435, Control_c, 0, 64, 0
2, 15445, Note_on_c, 0, 85, 87
2, 15446, Note_on_c, 0, 89, 112
2, 15446, Note_on_c, 0, 77, 100
2, 15446, Note_on_c, 0, 44, 101
2, 15448, Note_on_c, 0, 32, 74
2, 15451, Note_on_c, 0, 85, 0
2, 15453, Control_c, 0, 64, 56
2, 15454, Note_on_c, 0, 32, 0
2, 15457, Control_c, 0, 64, 127
2, 15458, Note_on_c, 0, 44, 0
2, 15462, Note_on_c, 0, 89, 0
2, 15464, Note_on_c, 0, 77, 0
2, 15503, Note_on_c, 0, 84, 84
2, 15503, Note_on_c, 0, 75, 79
2, 15503, Note_on_c, 0, 87, 79
2, 15508, Note_on_c, 0, 87, 0
2, 15508, Note_on_c, 0, 84, 0
2, 15509, Note_on_c, 0, 75, 0
2, 15517, Control_c, 0, 64, 88
2, 15520, Note_on_c, 0, 87, 85
2, 15521, Note_on_c, 0, 60, 88
2, 15521, Note_on_c, 0, 63, 86
2, 15521, Note_on_c, 0, 75, 87
2, 15521, Control_c, 0, 64, 0
2, 15522, Note_on_c, 0, 84, 88
2, 15522, Note_on_c, 0, 51, 82
2, 15527, Note_on_c, 0, 60, 0
2, 15528, Note_on_c, 0, 84, 0
2, 15529, Note_on_c, 0, 51, 0
2, 15532, Control_c, 0, 64, 56
2, 15533, Note_on_c, 0, 63, 0
2, 15533, Note_on_c, 0, 75, 0
2, 15536, Control_c, 0, 64, 104
2, 15540, Note_on_c, 0, 87, 0
2, 15540, Control_c, 0, 64, 127
2, 15555, Note_on_c, 0, 86, 98
2, 15557, Note_on_c, 0, 83, 95
2, 15557, Note_on_c, 0, 74, 92
2, 15564, Note_on_c, 0, 74, 0
2, 15567, Note_on_c, 0, 86, 0
2, 15573, Note_on_c, 0, 83, 0
2, 15573, Control_c, 0, 64, 72
2, 15577, Control_c, 0, 64, 0
2, 15590, Note_on_c, 0, 87, 101
2, 15592, Note_on_c, 0, 75, 103
2, 15592, Note_on_c, 0, 84, 95
2, 15593, Note_on_c, 0, 68, 95
2, 15596, Note_on_c, 0, 60, 79
2, 15596, Note_on_c, 0, 56, 74
2, 15600, Control_c, 0, 64, 127
2, 15602, Note_on_c, 0, 60, 0
2, 15604, Note_on_c, 0, 68, 0
2, 15604, Note_on_c, 0, 84, 0
2, 15606, Note_on_c, 0, 87, 0
2, 15608, Note_on_c, 0, 75, 0
2, 15609, Note_on_c, 0, 56, 0
2, 15645, Note_on_c, 0, 63, 83
2, 15652, Note_on_c, 0, 63, 0
2, 15667, Note_on_c, 0, 51, 100
2, 15668, Note_on_c, 0, 39, 85
2, 15670, Note_on_c, 0, 63, 91
2, 15670, Control_c, 0, 64, 88
2, 15675, Note_on_c, 0, 39, 0
2, 15675, Control_c, 0, 64, 0
2, 15679, Note_on_c, 0, 51, 0
2, 15686, Control_c, 0, 64, 56
2, 15687, Note_on_c, 0, 63, 0
2, 15687, Note_on_c, 0, 65, 92
2, 15688, Control_c, 0, 64, 127
2, 15698, Note_on_c, 0, 63, 92
2, 15705, Note_on_c, 0, 65, 0
2, 15710, Note_on_c, 0, 62, 90
2, 15713, Note_on_c, 0, 63, 0
2, 15725, Note_on_c, 0, 63, 91
2, 15728, Note_on_c, 0, 62, 0
2, 15735, Control_c, 0, 64, 104
2, 15738, Control_c, 0, 64, 0
2, 15741, Note_on_c, 0, 68, 93
2, 15743, Note_on_c, 0, 56, 91
2, 15745, Note_on_c, 0, 63, 0
2, 15745, Note_on_c, 0, 44, 75
2, 15750, Control_c, 0, 64, 40
2, 15753, Note_on_c, 0, 68, 0
2, 15753, Control_c, 0, 64, 104
2, 15754, Note_on_c, 0, 56, 0
2, 15757, Control_c, 0, 64, 127
2, 15760, Note_on_c, 0, 44, 0
2, 15798, Control_c, 0, 64, 104
2, 15803, Control_c, 0, 64, 0
2, 15812, Note_on_c, 0, 84, 94
2, 15812, Note_on_c, 0, 80, 86
2, 15812, Note_on_c, 0, 72, 90
2, 15816, Note_on_c, 0, 39, 83
2, 15818, Note_on_c, 0, 27, 67
2, 15818, Control_c, 0, 64, 56
2, 15819, Note_on_c, 0, 72, 0
2, 15822, Control_c, 0, 64, 127
2, 15824, Note_on_c, 0, 27, 0
2, 15824, Note_on_c, 0, 84, 0
2, 15827, Note_on_c, 0, 39, 0
2, 15828, Note_on_c, 0, 80, 0
2, 15848, Note_on_c, 0, 85, 105
2, 15848, Note_on_c, 0, 73, 97
2, 15851, Note_on_c, 0, 82, 79
2, 15857, Note_on_c, 0, 82, 0
2, 15858, Note_on_c, 0, 73, 0
2, 15863, Note_on_c, 0, 85, 0
2, 15877, Control_c, 0, 64, 56
2, 15881, Control_c, 0, 64, 0
2, 15886, Note_on_c, 0, 89, 107
2, 15886, Note_on_c, 0, 44, 89
2, 15886, Note_on_c, 0, 85, 87
2, 15887, Note_on_c, 0, 77, 96
2, 15890, Note_on_c, 0, 32, 68
2, 15893, Control_c, 0, 64, 56
2, 15895, Note_on_c, 0, 32, 0
2, 15897, Control_c, 0, 64, 127
2, 15898, Note_on_c, 0, 44, 0
2, 15898, Note_on_c, 0, 77, 0
2, 15901, Note_on_c, 0, 89, 0
2, 15903, Note_on_c, 0, 85, 0
2, 15922, Note_on_c, 0, 87, 94
2, 15923, Note_on_c, 0, 75, 87
2, 15925, Note_on_c, 0, 84, 84
2, 15938, Note_on_c, 0, 75, 0
2, 15944, Note_on_c, 0, 87, 0
2, 15945, Note_on_c, 0, 84, 0
2, 15945, Control_c, 0, 64, 88
2, 15948, Control_c, 0, 64, 0
2, 15956, Note_on_c, 0, 89, 102
2, 15957, Note_on_c, 0, 87, 68
2, 15957, Note_on_c, 0, 84, 92
2, 15957, Note_on_c, 0, 75, 81
2, 15960, Note_on_c, 0, 60, 89
2, 15960, Note_on_c, 0, 63, 79
2, 15960, Note_on_c, 0, 51, 79
2, 15963, Control_c, 0, 64, 40
2, 15967, Note_on_c, 0, 51, 0
2, 15967, Note_on_c, 0, 60, 0
2, 15967, Control_c, 0, 64, 104
2, 15971, Control_c, 0, 64, 127
2, 15972, Note_on_c, 0, 84, 0
2, 15972, Note_on_c, 0, 89, 0
2, 15973, Note_on_c, 0, 63, 0
2, 15974, Note_on_c, 0, 75, 0
2, 15974, Note_on_c, 0, 87, 0
2, 15992, Note_on_c, 0, 86, 106
2, 15993, Note_on_c, 0, 74, 100
2, 16003, Note_on_c, 0, 74, 0
2, 16010, Note_on_c, 0, 86, 0
2, 16020, Control_c, 0, 64, 40
2, 16023, Control_c, 0, 64, 0
2, 16027, Note_on_c, 0, 68, 83
2, 16028, Note_on_c, 0, 89, 112
2, 16030, Note_on_c, 0, 60, 76
2, 16031, Note_on_c, 0, 56, 61
2, 16033, Note_on_c, 0, 77, 89
2, 16033, Note_on_c, 0, 85, 65
2, 16035, Control_c, 0, 64, 56
2, 16037, Note_on_c, 0, 60, 0
2, 16037, Note_on_c, 0, 68, 0
2, 16038, Note_on_c, 0, 77, 0
2, 16038, Control_c, 0, 64, 127
2, 16040, Note_on_c, 0, 85, 0
2, 16044, Note_on_c, 0, 56, 0
2, 16045, Note_on_c, 0, 89, 0
2, 16065, Note_on_c, 0, 87, 95
2, 16066, Note_on_c, 0, 84, 91
2, 16066, Note_on_c, 0, 75, 89
2, 16079, Note_on_c, 0, 75, 0
2, 16084, Note_on_c, 0, 84, 0
2, 16087, Note_on_c, 0, 87, 0
2, 16091, Control_c, 0, 64, 104
2, 16096, Control_c, 0, 64, 0
2, 16098, Note_on_c, 0, 89, 99
2, 16100, Note_on_c, 0, 84, 86
2, 16100, Note_on_c, 0, 87, 66
2, 16101, Note_on_c, 0, 75, 83
2, 16102, Note_on_c, 0, 51, 98
2, 16102, Note_on_c, 0, 39, 77
2, 16107, Control_c, 0, 64, 24
2, 16111, Note_on_c, 0, 89, 0
2, 16111, Control_c, 0, 64, 88
2, 16112, Note_on_c, 0, 51, 0
2, 16113, Note_on_c, 0, 75, 0
2, 16113, Note_on_c, 0, 87, 0
2, 16113, Note_on_c, 0, 39, 0
2, 16115, Note_on_c, 0, 84, 0
2, 16115, Control_c, 0, 64, 127
2, 16135, Note_on_c, 0, 74, 95
2, 16136, Note_on_c, 0, 83, 91
2, 16136, Note_on_c, 0, 86, 76
2, 16142, Note_on_c, 0, 74, 0
2, 16143, Note_on_c, 0, 86, 0
2, 16149, Note_on_c, 0, 83, 0
2, 16160, Control_c, 0, 64, 72
2, 16163, Control_c, 0, 64, 0
2, 16168, Note_on_c, 0, 85, 92
2, 16172, Note_on_c, 0, 87, 105
2, 16172, Note_on_c, 0, 75, 100
2, 16175, Note_on_c, 0, 85, 0
2, 16176, Note_on_c, 0, 84, 92
2, 16176, Note_on_c, 0, 56, 91
2, 16176, Note_on_c, 0, 44, 88
2, 16178, Control_c, 0, 64, 88
2, 16182, Note_on_c, 0, 84, 0
2, 16182, Control_c, 0, 64, 127
2, 16185, Note_on_c, 0, 75, 0
2, 16188, Note_on_c, 0, 56, 0
2, 16189, Note_on_c, 0, 44, 0
2, 16189, Note_on_c, 0, 87, 0
2, 16207, Control_c, 0, 64, 104
2, 16211, Control_c, 0, 64, 0
2, 16232, Note_on_c, 0, 39, 77
2, 16236, Note_on_c, 0, 46, 75
2, 16246, Control_c, 0, 64, 127
2, 16251, Note_on_c, 0, 90, 105
2, 16252, Note_on_c, 0, 39, 0
2, 16253, Note_on_c, 0, 75, 100
2, 16253, Note_on_c, 0, 54, 95
2, 16253, Note_on_c, 0, 82, 94
2, 16259, Note_on_c, 0, 46, 0
2, 16270, Note_on_c, 0, 54, 0
2, 16270, Note_on_c, 0, 82, 0
2, 16270, Note_on_c, 0, 75, 0
2, 16272, Note_on_c, 0, 90, 0
2, 16291, Control_c, 0, 64, 104
2, 16295, Control_c, 0, 64, 0
2, 16305, Note_on_c, 0, 41, 77
2, 16312, Note_on_c, 0, 48, 66
2, 16320, Note_on_c, 0, 41, 0
2, 16326, Note_on_c, 0, 53, 75
2, 16328, Note_on_c, 0, 89, 106
2, 16328, Control_c, 0, 64, 127
2, 16330, Note_on_c, 0, 48, 0
2, 16332, Note_on_c, 0, 57, 96
2, 16333, Note_on_c, 0, 53, 0
2, 16333, Note_on_c, 0, 84, 94
2, 16333, Note_on_c, 0, 75, 81
2, 16335, Note_on_c, 0, 81, 83
2, 16340, Note_on_c, 0, 81, 0
2, 16340, Note_on_c, 0, 75, 0
2, 16343, Note_on_c, 0, 57, 0
2, 16344, Note_on_c, 0, 89, 0
2, 16345, Note_on_c, 0, 84, 0
2, 16388, Control_c, 0, 64, 72
2, 16392, Control_c, 0, 64, 0
2, 16393, Note_on_c, 0, 53, 80
2, 16402, Note_on_c, 0, 63, 67
2, 16402, Note_on_c, 0, 60, 63
2, 16406, Note_on_c, 0, 53, 0
2, 16410, Note_on_c, 0, 84, 103
2, 16413, Note_on_c, 0, 75, 87
2, 16413, Note_on_c, 0, 72, 97
2, 16415, Note_on_c, 0, 69, 93
2, 16415, Note_on_c, 0, 77, 79
2, 16418, Control_c, 0, 64, 104
2, 16419, Note_on_c, 0, 60, 0
2, 16422, Control_c, 0, 64, 127
2, 16423, Note_on_c, 0, 63, 0
2, 16423, Note_on_c, 0, 77, 0
2, 16424, Note_on_c, 0, 72, 0
2, 16427, Note_on_c, 0, 69, 0
2, 16431, Note_on_c, 0, 84, 0
2, 16435, Note_on_c, 0, 75, 0
2, 16471, Control_c, 0, 64, 56
2, 16472, Note_on_c, 0, 46, 80
2, 16475, Control_c, 0, 64, 0
2, 16483, Note_on_c, 0, 53, 81
2, 16488, Note_on_c, 0, 85, 106
2, 16491, Note_on_c, 0, 70, 84
2, 16491, Note_on_c, 0, 61, 93
2, 16492, Note_on_c, 0, 46, 0
2, 16492, Note_on_c, 0, 77, 93
2, 16497, Control_c, 0, 64, 72
2, 16500, Note_on_c, 0, 53, 0
2, 16501, Control_c, 0, 64, 127
2, 16503, Note_on_c, 0, 61, 0
2, 16503, Note_on_c, 0, 70, 0
2, 16504, Note_on_c, 0, 77, 0
2, 16506, Note_on_c, 0, 85, 0
2, 16561, Control_c, 0, 64, 24
2, 16565, Note_on_c, 0, 78, 102
2, 16565, Note_on_c, 0, 54, 89
2, 16565, Control_c, 0, 64, 0
2, 16566, Note_on_c, 0, 42, 74
2, 16574, Note_on_c, 0, 42, 0
2, 16576, Control_c, 0, 64, 56
2, 16577, Note_on_c, 0, 54, 0
2, 16580, Control_c, 0, 64, 127
2, 16582, Note_on_c, 0, 78, 0
2, 16585, Note_on_c, 0, 66, 70
2, 16601, Note_on_c, 0, 78, 85
2, 16611, Note_on_c, 0, 66, 0
2, 16619, Note_on_c, 0, 78, 0
2, 16621, Control_c, 0, 64, 56
2, 16625, Control_c, 0, 64, 0
2, 16627, Note_on_c, 0, 77, 112
2, 16628, Note_on_c, 0, 53, 92
2, 16628, Note_on_c, 0, 65, 92
2, 16628, Note_on_c, 0, 41, 86
2, 16632, Control_c, 0, 64, 40
2, 16636, Control_c, 0, 64, 127
2, 16639, Note_on_c, 0, 65, 0
2, 16639, Note_on_c, 0, 53, 0
2, 16642, Note_on_c, 0, 77, 0
2, 16643, Note_on_c, 0, 41, 0
2, 16692, Control_c, 0, 64, 24
2, 16695, Control_c, 0, 64, 0
2, 16708, Note_on_c, 0, 61, 93
2, 16708, Note_on_c, 0, 73, 105
2, 16711, Note_on_c, 0, 37, 78
2, 16712, Note_on_c, 0, 49, 97
2, 16715, Control_c, 0, 64, 56
2, 16716, Note_on_c, 0, 61, 0
2, 16718, Control_c, 0, 64, 127
2, 16720, Note_on_c, 0, 49, 0
2, 16723, Note_on_c, 0, 37, 0
2, 16725, Note_on_c, 0, 73, 0
2, 16763, Control_c, 0, 64, 104
2, 16767, Control_c, 0, 64, 0
2, 16796, Note_on_c, 0, 90, 116
2, 16797, Note_on_c, 0, 46, 112
2, 16797, Note_on_c, 0, 78, 115
2, 16797, Note_on_c, 0, 87, 100
2, 16798, Note_on_c, 0, 34, 86
2, 16806, Note_on_c, 0, 34, 0
2, 16808, Note_on_c, 0, 46, 0
2, 16812, Control_c, 0, 64, 127
2, 16843, Note_on_c, 0, 87, 0
2, 16852, Note_on_c, 0, 78, 0
2, 16859, Note_on_c, 0, 90, 0
2, 16872, Note_on_c, 0, 61, 82
2, 16872, Note_on_c, 0, 65, 82
2, 16873, Note_on_c, 0, 53, 80
2, 16879, Note_on_c, 0, 53, 0
2, 16884, Note_on_c, 0, 61, 0
2, 16885, Note_on_c, 0, 65, 0
2, 16908, Note_on_c, 0, 89, 95
2, 16908, Note_on_c, 0, 77, 100
2, 16908, Note_on_c, 0, 85, 80
2, 16915, Note_on_c, 0, 85, 0
2, 16920, Note_on_c, 0, 77, 0
2, 16920, Note_on_c, 0, 89, 0
2, 16932, Control_c, 0, 64, 72
2, 16936, Note_on_c, 0, 89, 98
2, 16936, Note_on_c, 0, 77, 100
2, 16936, Note_on_c, 0, 85, 95
2, 16936, Control_c, 0, 64, 0
2, 16938, Note_on_c, 0, 70, 94
2, 16938, Note_on_c, 0, 58, 77
2, 16940, Note_on_c, 0, 61, 79
2, 16940, Control_c, 0, 64, 24
2, 16943, Control_c, 0, 64, 72
2, 16947, Note_on_c, 0, 89, 0
2, 16947, Control_c, 0, 64, 127
2, 16948, Note_on_c, 0, 61, 0
2, 16950, Note_on_c, 0, 70, 0
2, 16951, Note_on_c, 0, 77, 0
2, 16951, Note_on_c, 0, 85, 0
2, 16954, Note_on_c, 0, 58, 0
2, 16990, Note_on_c, 0, 65, 96
2, 16996, Note_on_c, 0, 65, 0
2, 17015, Note_on_c, 0, 65, 98
2, 17015, Note_on_c, 0, 41, 79
2, 17015, Note_on_c, 0, 53, 100
2, 17017, Control_c, 0, 64, 24
2, 17021, Note_on_c, 0, 41, 0
2, 17022, Control_c, 0, 64, 0
2, 17026, Note_on_c, 0, 65, 0
2, 17028, Note_on_c, 0, 53, 0
2, 17028, Note_on_c, 0, 66, 92
2, 17033, Control_c, 0, 64, 56
2, 17037, Control_c, 0, 64, 127
2, 17040, Note_on_c, 0, 66, 0
2, 17041, Note_on_c, 0, 65, 89
2, 17052, Note_on_c, 0, 64, 90
2, 17056, Note_on_c, 0, 65, 0
2, 17063, Note_on_c, 0, 65, 92
2, 17067, Note_on_c, 0, 64, 0
2, 17078, Control_c, 0, 64, 72
2, 17080, Note_on_c, 0, 70, 92
2, 17080, Note_on_c, 0, 58, 93
2, 17080, Note_on_c, 0, 46, 86
2, 17082, Control_c, 0, 64, 0
2, 17084, Note_on_c, 0, 65, 0
2, 17090, Control_c, 0, 64, 24
2, 17091, Note_on_c, 0, 58, 0
2, 17093, Note_on_c, 0, 70, 0
2, 17093, Note_on_c, 0, 46, 0
2, 17095, Control_c, 0, 64, 88
2, 17097, Control_c, 0, 64, 127
2, 17135, Control_c, 0, 64, 88
2, 17138, Control_c, 0, 64, 0
2, 17156, Note_on_c, 0, 85, 94
2, 17157, Note_on_c, 0, 73, 82
2, 17157, Note_on_c, 0, 82, 75
2, 17157, Control_c, 0, 64, 72
2, 17161, Note_on_c, 0, 41, 87
2, 17161, Control_c, 0, 64, 127
2, 17162, Note_on_c, 0, 29, 69
2, 17168, Note_on_c, 0, 29, 0
2, 17168, Note_on_c, 0, 73, 0
2, 17171, Note_on_c, 0, 41, 0
2, 17172, Note_on_c, 0, 85, 0
2, 17175, Note_on_c, 0, 82, 0
2, 17187, Control_c, 0, 64, 40
2, 17192, Note_on_c, 0, 87, 94
2, 17192, Control_c, 0, 64, 0
2, 17193, Note_on_c, 0, 75, 93
2, 17193, Note_on_c, 0, 84, 93
2, 17204, Note_on_c, 0, 75, 0
2, 17208, Note_on_c, 0, 84, 0
2, 17212, Note_on_c, 0, 87, 0
2, 17212, Note_on_c, 0, 46, 35
2, 17219, Note_on_c, 0, 46, 0
2, 17233, Note_on_c, 0, 90, 106
2, 17235, Note_on_c, 0, 78, 103
2, 17237, Note_on_c, 0, 46, 103
2, 17237, Note_on_c, 0, 34, 85
2, 17240, Note_on_c, 0, 87, 36
2, 17240, Control_c, 0, 64, 127
2, 17245, Note_on_c, 0, 34, 0
2, 17246, Note_on_c, 0, 87, 0
2, 17247, Note_on_c, 0, 46, 0
2, 17247, Note_on_c, 0, 78, 0
2, 17260, Note_on_c, 0, 90, 0
2, 17290, Note_on_c, 0, 89, 98
2, 17290, Note_on_c, 0, 85, 87
2, 17291, Note_on_c, 0, 77, 91
2, 17296, Note_on_c, 0, 77, 0
2, 17300, Note_on_c, 0, 85, 0
2, 17302, Note_on_c, 0, 89, 0
2, 17311, Control_c, 0, 64, 40
2, 17313, Note_on_c, 0, 61, 85
2, 17313, Note_on_c, 0, 89, 100
2, 17313, Note_on_c, 0, 85, 81
2, 17315, Note_on_c, 0, 77, 95
2, 17315, Note_on_c, 0, 65, 84
2, 17315, Control_c, 0, 64, 0
2, 17317, Note_on_c, 0, 53, 75
2, 17322, Note_on_c, 0, 53, 0
2, 17322, Note_on_c, 0, 65, 0
2, 17322, Control_c, 0, 64, 56
2, 17324, Note_on_c, 0, 89, 0
2, 17325, Note_on_c, 0, 61, 0
2, 17326, Control_c, 0, 64, 127
2, 17327, Note_on_c, 0, 77, 0
2, 17328, Note_on_c, 0, 85, 0
2, 17348, Note_on_c, 0, 88, 98
2, 17350, Note_on_c, 0, 76, 96
2, 17350, Note_on_c, 0, 84, 90
2, 17352, Control_c, 0, 64, 88
2, 17356, Control_c, 0, 64, 0
2, 17357, Note_on_c, 0, 84, 0
2, 17360, Note_on_c, 0, 88, 0
2, 17361, Note_on_c, 0, 76, 0
2, 17385, Note_on_c, 0, 89, 104
2, 17385, Note_on_c, 0, 85, 94
2, 17385, Note_on_c, 0, 77, 104
2, 17386, Note_on_c, 0, 70, 95
2, 17386, Note_on_c, 0, 61, 83
2, 17386, Note_on_c, 0, 58, 70
2, 17386, Control_c, 0, 64, 88
2, 17390, Control_c, 0, 64, 127
2, 17393, Note_on_c, 0, 89, 0
2, 17397, Note_on_c, 0, 70, 0
2, 17398, Note_on_c, 0, 85, 0
2, 17398, Note_on_c, 0, 77, 0
2, 17399, Note_on_c, 0, 61, 0
2, 17402, Note_on_c, 0, 58, 0
2, 17442, Note_on_c, 0, 65, 85
2, 17455, Note_on_c, 0, 65, 0
2, 17466, Note_on_c, 0, 65, 72
2, 17466, Note_on_c, 0, 53, 110
2, 17466, Note_on_c, 0, 41, 94
2, 17466, Control_c, 0, 64, 24
2, 17470, Control_c, 0, 64, 0
2, 17477, Control_c, 0, 64, 24
2, 17478, Note_on_c, 0, 65, 0
2, 17479, Note_on_c, 0, 41, 0
2, 17480, Note_on_c, 0, 66, 89
2, 17481, Note_on_c, 0, 53, 0
2, 17481, Control_c, 0, 64, 88
2, 17483, Control_c, 0, 64, 127
2, 17493, Note_on_c, 0, 65, 89
2, 17495, Note_on_c, 0, 66, 0
2, 17503, Note_on_c, 0, 64, 82
2, 17508, Note_on_c, 0, 65, 0
2, 17513, Note_on_c, 0, 65, 85
2, 17520, Note_on_c, 0, 64, 0
2, 17528, Control_c, 0, 64, 88
2, 17532, Note_on_c, 0, 70, 88
2, 17532, Control_c, 0, 64, 0
2, 17533, Note_on_c, 0, 58, 100
2, 17533, Note_on_c, 0, 46, 85
2, 17534, Note_on_c, 0, 65, 0
2, 17544, Note_on_c, 0, 58, 0
2, 17545, Note_on_c, 0, 70, 0
2, 17545, Control_c, 0, 64, 72
2, 17548, Control_c, 0, 64, 127
2, 17551, Note_on_c, 0, 46, 0
2, 17600, Control_c, 0, 64, 88
2, 17603, Control_c, 0, 64, 0
2, 17618, Note_on_c, 0, 79, 96
2, 17618, Note_on_c, 0, 91, 109
2, 17620, Note_on_c, 0, 85, 91
2, 17620, Note_on_c, 0, 46, 115
2, 17621, Note_on_c, 0, 34, 93
2, 17622, Control_c, 0, 64, 40
2, 17627, Control_c, 0, 64, 127
2, 17629, Note_on_c, 0, 79, 0
2, 17631, Note_on_c, 0, 46, 0
2, 17631, Note_on_c, 0, 34, 0
2, 17638, Note_on_c, 0, 91, 0
2, 17640, Note_on_c, 0, 85, 0
2, 17663, Note_on_c, 0, 92, 116
2, 17663, Note_on_c, 0, 80, 106
2, 17674, Note_on_c, 0, 80, 0
2, 17675, Note_on_c, 0, 92, 0
2, 17687, Note_on_c, 0, 39, 43
2, 17693, Note_on_c, 0, 39, 0
2, 17705, Control_c, 0, 64, 40
2, 17710, Control_c, 0, 64, 0
2, 17720, Note_on_c, 0, 39, 102
2, 17720, Note_on_c, 0, 27, 79
2, 17723, Note_on_c, 0, 96, 112
2, 17723, Note_on_c, 0, 84, 107
2, 17728, Note_on_c, 0, 27, 0
2, 17728, Control_c, 0, 64, 56
2, 17731, Note_on_c, 0, 39, 0
2, 17732, Control_c, 0, 64, 127
2, 17750, Note_on_c, 0, 96, 0
2, 17751, Note_on_c, 0, 84, 0
2, 17762, Note_on_c, 0, 91, 84
2, 17763, Note_on_c, 0, 87, 74
2, 17794, Note_on_c, 0, 87, 0
2, 17798, Note_on_c, 0, 91, 0
2, 17806, Note_on_c, 0, 96, 104
2, 17807, Note_on_c, 0, 84, 95
2, 17808, Note_on_c, 0, 87, 81
2, 17811, Note_on_c, 0, 72, 98
2, 17811, Note_on_c, 0, 67, 83
2, 17812, Note_on_c, 0, 61, 67
2, 17813, Note_on_c, 0, 63, 63
2, 17822, Note_on_c, 0, 72, 0
2, 17824, Note_on_c, 0, 96, 0
2, 17826, Note_on_c, 0, 87, 0
2, 17827, Note_on_c, 0, 84, 0
2, 17828, Note_on_c, 0, 67, 0
2, 17829, Note_on_c, 0, 61, 0
2, 17835, Note_on_c, 0, 63, 0
2, 17847, Note_on_c, 0, 61, 47
2, 17848, Note_on_c, 0, 70, 92
2, 17859, Note_on_c, 0, 70, 0
2, 17862, Note_on_c, 0, 61, 0
2, 17873, Note_on_c, 0, 82, 95
2, 17873, Note_on_c, 0, 94, 100
2, 17886, Note_on_c, 0, 94, 0
2, 17886, Note_on_c, 0, 82, 0
2, 17898, Note_on_c, 0, 82, 96
2, 17898, Note_on_c, 0, 94, 96
2, 17901, Note_on_c, 0, 51, 106
2, 17901, Control_c, 0, 64, 88
2, 17905, Control_c, 0, 64, 0
2, 17916, Note_on_c, 0, 51, 0
2, 17918, Control_c, 0, 64, 88
2, 17923, Control_c, 0, 64, 127
2, 17925, Note_on_c, 0, 94, 0
2, 17926, Note_on_c, 0, 82, 0
2, 17937, Note_on_c, 0, 87, 81
2, 17940, Note_on_c, 0, 84, 67
2, 17956, Note_on_c, 0, 84, 0
2, 17967, Note_on_c, 0, 87, 0
2, 17971, Note_on_c, 0, 94, 95
2, 17973, Note_on_c, 0, 82, 85
2, 17973, Note_on_c, 0, 70, 79
2, 17975, Note_on_c, 0, 63, 61
2, 17976, Note_on_c, 0, 60, 65
2, 17984, Note_on_c, 0, 70, 0
2, 17990, Note_on_c, 0, 63, 0
2, 17993, Note_on_c, 0, 60, 0
2, 17994, Note_on_c, 0, 94, 0
2, 17998, Note_on_c, 0, 82, 0
2, 18008, Note_on_c, 0, 68, 86
2, 18015, Note_on_c, 0, 63, 36
2, 18018, Note_on_c, 0, 68, 0
2, 18021, Note_on_c, 0, 63, 0
2, 18028, Note_on_c, 0, 92, 100
2, 18028, Note_on_c, 0, 80, 97
2, 18039, Note_on_c, 0, 80, 0
2, 18039, Note_on_c, 0, 92, 0
2, 18051, Note_on_c, 0, 92, 94
2, 18051, Note_on_c, 0, 80, 95
2, 18052, Note_on_c, 0, 51, 89
2, 18055, Control_c, 0, 64, 24
2, 18058, Control_c, 0, 64, 0
2, 18065, Note_on_c, 0, 51, 0
2, 18073, Control_c, 0, 64, 104
2, 18077, Control_c, 0, 64, 127
2, 18078, Note_on_c, 0, 80, 0
2, 18079, Note_on_c, 0, 92, 0
2, 18090, Note_on_c, 0, 87, 80
2, 18093, Note_on_c, 0, 82, 65
2, 18110, Note_on_c, 0, 82, 0
2, 18121, Note_on_c, 0, 87, 0
2, 18126, Note_on_c, 0, 92, 97
2, 18126, Note_on_c, 0, 68, 75
2, 18127, Note_on_c, 0, 80, 87
2, 18127, Note_on_c, 0, 63, 67
2, 18130, Note_on_c, 0, 58, 60
2, 18142, Note_on_c, 0, 68, 0
2, 18144, Note_on_c, 0, 63, 0
2, 18154, Note_on_c, 0, 80, 0
2, 18161, Note_on_c, 0, 92, 0
2, 18163, Note_on_c, 0, 67, 81
2, 18163, Note_on_c, 0, 63, 55
2, 18170, Note_on_c, 0, 63, 0
2, 18170, Note_on_c, 0, 67, 0
2, 18177, Note_on_c, 0, 58, 0
2, 18185, Note_on_c, 0, 91, 99
2, 18186, Note_on_c, 0, 79, 97
2, 18198, Note_on_c, 0, 91, 0
2, 18199, Note_on_c, 0, 79, 0
2, 18208, Control_c, 0, 64, 104
2, 18210, Note_on_c, 0, 91, 109
2, 18210, Note_on_c, 0, 79, 103
2, 18212, Note_on_c, 0, 46, 89
2, 18212, Control_c, 0, 64, 0
2, 18224, Note_on_c, 0, 46, 0
2, 18227, Control_c, 0, 64, 40
2, 18231, Note_on_c, 0, 79, 0
2, 18231, Control_c, 0, 64, 127
2, 18236, Note_on_c, 0, 91, 0
2, 18251, Note_on_c, 0, 86, 90
2, 18251, Note_on_c, 0, 82, 78
2, 18274, Note_on_c, 0, 82, 0
2, 18278, Note_on_c, 0, 86, 0
2, 18283, Note_on_c, 0, 67, 86
2, 18285, Note_on_c, 0, 62, 76
2, 18285, Note_on_c, 0, 91, 102
2, 18286, Note_on_c, 0, 58, 53
2, 18286, Note_on_c, 0, 56, 59
2, 18286, Note_on_c, 0, 79, 93
2, 18298, Note_on_c, 0, 62, 0
2, 18298, Note_on_c, 0, 67, 0
2, 18304, Note_on_c, 0, 56, 0
2, 18304, Note_on_c, 0, 58, 0
2, 18312, Note_on_c, 0, 79, 0
2, 18312, Note_on_c, 0, 91, 0
2, 18322, Note_on_c, 0, 65, 84
2, 18325, Note_on_c, 0, 56, 64
2, 18333, Note_on_c, 0, 65, 0
2, 18335, Note_on_c, 0, 56, 0
2, 18345, Note_on_c, 0, 77, 98
2, 18346, Note_on_c, 0, 89, 96
2, 18352, Note_on_c, 0, 89, 0
2, 18356, Note_on_c, 0, 77, 0
2, 18365, Note_on_c, 0, 89, 110
2, 18365, Note_on_c, 0, 77, 112
2, 18366, Note_on_c, 0, 51, 93
2, 18366, Control_c, 0, 64, 56
2, 18370, Control_c, 0, 64, 0
2, 18379, Note_on_c, 0, 51, 0
2, 18381, Note_on_c, 0, 89, 0
2, 18381, Control_c, 0, 64, 72
2, 18385, Control_c, 0, 64, 127
2, 18386, Note_on_c, 0, 77, 0
2, 18402, Note_on_c, 0, 79, 85
2, 18402, Note_on_c, 0, 82, 87
2, 18412, Note_on_c, 0, 79, 0
2, 18425, Note_on_c, 0, 82, 0
2, 18437, Note_on_c, 0, 89, 103
2, 18438, Note_on_c, 0, 58, 59
2, 18438, Note_on_c, 0, 77, 99
2, 18441, Note_on_c, 0, 65, 74
2, 18441, Note_on_c, 0, 55, 69
2, 18456, Note_on_c, 0, 77, 0
2, 18457, Note_on_c, 0, 65, 0
2, 18460, Note_on_c, 0, 89, 0
2, 18461, Note_on_c, 0, 55, 0
2, 18476, Note_on_c, 0, 63, 77
2, 18482, Note_on_c, 0, 63, 0
2, 18485, Note_on_c, 0, 58, 0
2, 18493, Note_on_c, 0, 87, 94
2, 18495, Note_on_c, 0, 75, 89
2, 18503, Note_on_c, 0, 75, 0
2, 18504, Note_on_c, 0, 87, 0
2, 18516, Note_on_c, 0, 73, 99
2, 18516, Note_on_c, 0, 85, 103
2, 18520, Control_c, 0, 64, 72
2, 18523, Control_c, 0, 64, 0
2, 18525, Note_on_c, 0, 41, 78
2, 18525, Note_on_c, 0, 53, 74
2, 18536, Note_on_c, 0, 73, 0
2, 18538, Note_on_c, 0, 41, 0
2, 18538, Control_c, 0, 64, 40
2, 18541, Note_on_c, 0, 85, 0
2, 18542, Control_c, 0, 64, 127
2, 18545, Note_on_c, 0, 53, 0
2, 18558, Note_on_c, 0, 80, 83
2, 18562, Note_on_c, 0, 77, 73
2, 18575, Note_on_c, 0, 77, 0
2, 18585, Note_on_c, 0, 80, 0
2, 18595, Note_on_c, 0, 61, 70
2, 18596, Note_on_c, 0, 85, 94
2, 18596, Note_on_c, 0, 56, 68
2, 18597, Note_on_c, 0, 73, 89
2, 18613, Note_on_c, 0, 56, 0
2, 18613, Note_on_c, 0, 61, 0
2, 18624, Note_on_c, 0, 73, 0
2, 18628, Note_on_c, 0, 85, 0
2, 18633, Note_on_c, 0, 56, 54
2, 18633, Note_on_c, 0, 60, 80
2, 18639, Note_on_c, 0, 60, 0
2, 18644, Note_on_c, 0, 56, 0
2, 18660, Note_on_c, 0, 84, 88
2, 18660, Note_on_c, 0, 72, 99
2, 18671, Note_on_c, 0, 84, 0
2, 18672, Note_on_c, 0, 72, 0
2, 18692, Control_c, 0, 64, 0
2, 18693, Note_on_c, 0, 65, 98
2, 18695, Note_on_c, 0, 49, 72
2, 18696, Note_on_c, 0, 37, 70
2, 18708, Note_on_c, 0, 37, 0
2, 18710, Note_on_c, 0, 49, 0
2, 18718, Control_c, 0, 64, 127
2, 18773, Note_on_c, 0, 58, 73
2, 18777, Note_on_c, 0, 53, 72
2, 18783, Note_on_c, 0, 53, 0
2, 18785, Note_on_c, 0, 58, 0
2, 18797, Control_c, 0, 64, 56
2, 18801, Control_c, 0, 64, 0
2, 18833, Note_on_c, 0, 65, 0
2, 18851, Note_on_c, 0, 48, 104
2, 18852, Note_on_c, 0, 36, 84
2, 18853, Note_on_c, 0, 67, 85
2, 18858, Note_on_c, 0, 36, 0
2, 18862, Control_c, 0, 64, 88
2, 18864, Note_on_c, 0, 48, 0
2, 18865, Control_c, 0, 64, 127
2, 18868, Note_on_c, 0, 67, 0
2, 18872, Note_on_c, 0, 68, 67
2, 18890, Note_on_c, 0, 68, 0
2, 18892, Note_on_c, 0, 67, 66
2, 18898, Note_on_c, 0, 67, 0
2, 18906, Note_on_c, 0, 68, 50
2, 18912, Note_on_c, 0, 67, 70
2, 18917, Note_on_c, 0, 68, 0
2, 18927, Note_on_c, 0, 67, 0
2, 18930, Note_on_c, 0, 60, 91
2, 18930, Note_on_c, 0, 65, 91
2, 18930, Note_on_c, 0, 58, 75
2, 18931, Note_on_c, 0, 52, 73
2, 18935, Note_on_c, 0, 60, 0
2, 18941, Control_c, 0, 64, 104
2, 18942, Note_on_c, 0, 58, 0
2, 18945, Control_c, 0, 64, 56
2, 18946, Note_on_c, 0, 52, 0
2, 18948, Control_c, 0, 64, 24
2, 18952, Control_c, 0, 64, 0
2, 18955, Note_on_c, 0, 65, 0
2, 18963, Note_on_c, 0, 67, 93
2, 18975, Note_on_c, 0, 67, 0
2, 19005, Note_on_c, 0, 68, 91
2, 19011, Note_on_c, 0, 41, 91
2, 19011, Note_on_c, 0, 29, 71
2, 19016, Control_c, 0, 64, 72
2, 19018, Note_on_c, 0, 29, 0
2, 19020, Note_on_c, 0, 68, 0
2, 19020, Control_c, 0, 64, 127
2, 19024, Note_on_c, 0, 41, 0
2, 19027, Note_on_c, 0, 70, 72
2, 19043, Note_on_c, 0, 70, 0
2, 19045, Note_on_c, 0, 68, 64
2, 19051, Note_on_c, 0, 68, 0
2, 19056, Note_on_c, 0, 70, 57
2, 19066, Note_on_c, 0, 68, 71
2, 19076, Note_on_c, 0, 70, 0
2, 19084, Note_on_c, 0, 68, 0
2, 19085, Note_on_c, 0, 60, 88
2, 19085, Note_on_c, 0, 67, 99
2, 19085, Note_on_c, 0, 56, 75
2, 19090, Note_on_c, 0, 53, 63
2, 19091, Note_on_c, 0, 60, 0
2, 19091, Control_c, 0, 64, 104
2, 19095, Note_on_c, 0, 53, 0
2, 19095, Control_c, 0, 64, 56
2, 19097, Note_on_c, 0, 56, 0
2, 19098, Control_c, 0, 64, 0
2, 19105, Note_on_c, 0, 67, 0
2, 19118, Note_on_c, 0, 68, 93
2, 19139, Note_on_c, 0, 68, 0
2, 19161, Note_on_c, 0, 69, 97
2, 19161, Note_on_c, 0, 61, 89
2, 19161, Note_on_c, 0, 51, 90
2, 19162, Note_on_c, 0, 39, 73
2, 19162, Control_c, 0, 64, 127
2, 19165, Note_on_c, 0, 67, 79
2, 19170, Note_on_c, 0, 39, 0
2, 19171, Note_on_c, 0, 67, 0
2, 19172, Note_on_c, 0, 51, 0
2, 19176, Note_on_c, 0, 61, 0
2, 19189, Note_on_c, 0, 69, 0
2, 19200, Note_on_c, 0, 70, 95
2, 19207, Control_c, 0, 64, 72
2, 19210, Control_c, 0, 64, 0
2, 19230, Note_on_c, 0, 70, 0
2, 19237, Note_on_c, 0, 72, 97
2, 19238, Note_on_c, 0, 58, 86
2, 19241, Note_on_c, 0, 61, 77
2, 19241, Note_on_c, 0, 51, 81
2, 19242, Note_on_c, 0, 67, 86
2, 19246, Note_on_c, 0, 51, 0
2, 19249, Note_on_c, 0, 58, 0
2, 19251, Note_on_c, 0, 61, 0
2, 19254, Note_on_c, 0, 72, 0
2, 19259, Note_on_c, 0, 67, 0
2, 19273, Note_on_c, 0, 73, 103
2, 19296, Note_on_c, 0, 73, 0
2, 19312, Note_on_c, 0, 68, 89
2, 19312, Note_on_c, 0, 44, 84
2, 19312, Note_on_c, 0, 72, 107
2, 19313, Note_on_c, 0, 56, 90
2, 19313, Note_on_c, 0, 51, 83
2, 19313, Note_on_c, 0, 60, 94
2, 19320, Note_on_c, 0, 60, 0
2, 19329, Note_on_c, 0, 51, 0
2, 19330, Note_on_c, 0, 72, 0
2, 19330, Note_on_c, 0, 68, 0
2, 19330, Note_on_c, 0, 44, 0
2, 19330, Note_on_c, 0, 56, 0
2, 19391, Note_on_c, 0, 77, 109
2, 19393, Note_on_c, 0, 68, 92
2, 19395, Note_on_c, 0, 58, 49
2, 19397, Note_on_c, 0, 65, 79
2, 19397, Note_on_c, 0, 62, 80
2, 19398, Note_on_c, 0, 59, 84
2, 19398, Control_c, 0, 64, 72
2, 19402, Note_on_c, 0, 58, 0
2, 19402, Control_c, 0, 64, 127
2, 19409, Note_on_c, 0, 68, 0
2, 19410, Note_on_c, 0, 65, 0
2, 19413, Note_on_c, 0, 62, 0
2, 19413, Note_on_c, 0, 59, 0
2, 19417, Note_on_c, 0, 77, 0
2, 19455, Note_on_c, 0, 75, 96
2, 19455, Note_on_c, 0, 68, 81
2, 19456, Note_on_c, 0, 63, 67
2, 19457, Note_on_c, 0, 60, 62
2, 19462, Note_on_c, 0, 63, 0
2, 19462, Control_c, 0, 64, 104
2, 19464, Note_on_c, 0, 60, 0
2, 19466, Note_on_c, 0, 68, 0
2, 19466, Note_on_c, 0, 75, 0
2, 19466, Control_c, 0, 64, 40
2, 19470, Control_c, 0, 64, 0
2, 19472, Note_on_c, 0, 63, 88
2, 19476, Note_on_c, 0, 60, 93
2, 19476, Note_on_c, 0, 75, 101
2, 19477, Note_on_c, 0, 68, 85
2, 19482, Note_on_c, 0, 60, 0
2, 19487, Note_on_c, 0, 63, 0
2, 19492, Note_on_c, 0, 68, 0
2, 19504, Note_on_c, 0, 75, 0
2, 19512, Note_on_c, 0, 68, 102
2, 19555, Note_on_c, 0, 80, 109
2, 19555, Control_c, 0, 64, 104
2, 19557, Note_on_c, 0, 56, 95
2, 19558, Note_on_c, 0, 44, 93
2, 19560, Control_c, 0, 64, 127
2, 19565, Note_on_c, 0, 56, 0
2, 19568, Note_on_c, 0, 44, 0
2, 19578, Note_on_c, 0, 68, 0
2, 19587, Note_on_c, 0, 80, 0
2, 19617, Note_on_c, 0, 79, 96
2, 19620, Note_on_c, 0, 67, 61
2, 19623, Note_on_c, 0, 79, 0
2, 19627, Note_on_c, 0, 67, 0
2, 19631, Control_c, 0, 64, 72
2, 19635, Control_c, 0, 64, 0
2, 19637, Note_on_c, 0, 77, 117
2, 19637, Note_on_c, 0, 65, 112
2, 19641, Note_on_c, 0, 49, 92
2, 19643, Note_on_c, 0, 37, 77
2, 19652, Note_on_c, 0, 65, 0
2, 19653, Control_c, 0, 64, 56
2, 19654, Note_on_c, 0, 37, 0
2, 19654, Note_on_c, 0, 49, 0
2, 19656, Control_c, 0, 64, 127
2, 19667, Note_on_c, 0, 65, 31
2, 19697, Note_on_c, 0, 65, 0
2, 19721, Note_on_c, 0, 58, 77
2, 19723, Note_on_c, 0, 53, 78
2, 19729, Note_on_c, 0, 53, 0
2, 19729, Note_on_c, 0, 77, 0
2, 19734, Note_on_c, 0, 58, 0
2, 19736, Control_c, 0, 64, 104
2, 19740, Control_c, 0, 64, 72
2, 19743, Control_c, 0, 64, 56
2, 19747, Control_c, 0, 64, 40
2, 19751, Control_c, 0, 64, 24
2, 19755, Control_c, 0, 64, 0
2, 19790, Note_on_c, 0, 67, 89
2, 19798, Note_on_c, 0, 48, 107
2, 19800, Note_on_c, 0, 36, 84
2, 19803, Control_c, 0, 64, 88
2, 19807, Note_on_c, 0, 36, 0
2, 19807, Control_c, 0, 64, 127
2, 19812, Note_on_c, 0, 67, 0
2, 19812, Note_on_c, 0, 79, 82
2, 19814, Note_on_c, 0, 48, 0
2, 19828, Note_on_c, 0, 79, 0
2, 19838, Note_on_c, 0, 80, 85
2, 19853, Note_on_c, 0, 79, 80
2, 19859, Note_on_c, 0, 79, 0
2, 19861, Note_on_c, 0, 80, 0
2, 19875, Note_on_c, 0, 64, 89
2, 19877, Note_on_c, 0, 58, 67
2, 19878, Note_on_c, 0, 77, 112
2, 19878, Note_on_c, 0, 60, 72
2, 19878, Note_on_c, 0, 65, 104
2, 19881, Note_on_c, 0, 64, 0
2, 19882, Control_c, 0, 64, 104
2, 19884, Note_on_c, 0, 60, 0
2, 19886, Note_on_c, 0, 77, 0
2, 19886, Control_c, 0, 64, 56
2, 19889, Note_on_c, 0, 58, 0
2, 19889, Note_on_c, 0, 65, 0
2, 19890, Control_c, 0, 64, 0
2, 19913, Note_on_c, 0, 79, 113
2, 19916, Note_on_c, 0, 67, 88
2, 19922, Note_on_c, 0, 67, 0
2, 19931, Note_on_c, 0, 79, 0
2, 19950, Control_c, 0, 64, 72
2, 19952, Note_on_c, 0, 68, 101
2, 19952, Note_on_c, 0, 29, 72
2, 19952, Note_on_c, 0, 41, 77
2, 19953, Control_c, 0, 64, 127
2, 19958, Note_on_c, 0, 29, 0
2, 19968, Note_on_c, 0, 41, 0
2, 19975, Note_on_c, 0, 68, 0
2, 19975, Note_on_c, 0, 80, 74
2, 19988, Note_on_c, 0, 80, 0
2, 19992, Note_on_c, 0, 82, 75
2, 20010, Note_on_c, 0, 80, 74
2, 20013, Note_on_c, 0, 82, 0
2, 20023, Note_on_c, 0, 80, 0
2, 20031, Note_on_c, 0, 79, 102
2, 20031, Note_on_c, 0, 67, 93
2, 20032, Note_on_c, 0, 65, 81
2, 20033, Note_on_c, 0, 60, 80
2, 20037, Note_on_c, 0, 56, 53
2, 20038, Note_on_c, 0, 65, 0
2, 20039, Note_on_c, 0, 60, 0
2, 20041, Control_c, 0, 64, 88
2, 20044, Note_on_c, 0, 56, 0
2, 20044, Note_on_c, 0, 67, 0
2, 20045, Control_c, 0, 64, 40
2, 20046, Note_on_c, 0, 79, 0
2, 20047, Control_c, 0, 64, 0
2, 20068, Note_on_c, 0, 80, 105
2, 20070, Note_on_c, 0, 68, 97
2, 20083, Note_on_c, 0, 68, 0
2, 20089, Note_on_c, 0, 80, 0
2, 20107, Control_c, 0, 64, 40
2, 20110, Note_on_c, 0, 81, 106
2, 20110, Note_on_c, 0, 75, 93
2, 20110, Note_on_c, 0, 69, 98
2, 20110, Note_on_c, 0, 39, 71
2, 20111, Note_on_c, 0, 51, 87
2, 20111, Control_c, 0, 64, 127
2, 20120, Note_on_c, 0, 39, 0
2, 20121, Note_on_c, 0, 69, 0
2, 20121, Note_on_c, 0, 51, 0
2, 20122, Note_on_c, 0, 81, 0
2, 20126, Note_on_c, 0, 75, 0
2, 20143, Note_on_c, 0, 70, 94
2, 20145, Note_on_c, 0, 82, 101
2, 20159, Note_on_c, 0, 70, 0
2, 20162, Note_on_c, 0, 82, 0
2, 20182, Control_c, 0, 64, 104
2, 20183, Note_on_c, 0, 84, 103
2, 20183, Note_on_c, 0, 79, 98
2, 20185, Note_on_c, 0, 72, 102
2, 20186, Note_on_c, 0, 67, 80
2, 20186, Note_on_c, 0, 61, 74
2, 20186, Note_on_c, 0, 63, 67
2, 20186, Control_c, 0, 64, 72
2, 20190, Control_c, 0, 64, 56
2, 20193, Control_c, 0, 64, 40
2, 20195, Note_on_c, 0, 72, 0
2, 20197, Note_on_c, 0, 63, 0
2, 20197, Control_c, 0, 64, 24
2, 20198, Note_on_c, 0, 67, 0
2, 20198, Note_on_c, 0, 61, 0
2, 20198, Note_on_c, 0, 84, 0
2, 20199, Note_on_c, 0, 79, 0
2, 20201, Control_c, 0, 64, 0
2, 20217, Note_on_c, 0, 85, 102
2, 20218, Note_on_c, 0, 73, 100
2, 20230, Note_on_c, 0, 73, 0
2, 20239, Note_on_c, 0, 85, 0
2, 20257, Note_on_c, 0, 80, 101
2, 20257, Note_on_c, 0, 72, 117
2, 20257, Note_on_c, 0, 84, 110
2, 20257, Note_on_c, 0, 75, 100
2, 20257, Note_on_c, 0, 56, 82
2, 20257, Note_on_c, 0, 68, 94
2, 20257, Control_c, 0, 64, 72
2, 20261, Control_c, 0, 64, 127
2, 20263, Note_on_c, 0, 63, 69
2, 20268, Note_on_c, 0, 75, 0
2, 20268, Note_on_c, 0, 72, 0
2, 20269, Note_on_c, 0, 63, 0
2, 20270, Note_on_c, 0, 56, 0
2, 20272, Note_on_c, 0, 68, 0
2, 20274, Note_on_c, 0, 80, 0
2, 20275, Note_on_c, 0, 84, 0
2, 20295, Control_c, 0, 64, 88
2, 20300, Control_c, 0, 64, 40
2, 20303, Control_c, 0, 64, 0
2, 20340, Note_on_c, 0, 89, 110
2, 20341, Note_on_c, 0, 80, 99
2, 20341, Note_on_c, 0, 77, 110
2, 20342, Note_on_c, 0, 59, 86
2, 20342, Note_on_c, 0, 68, 87
2, 20342, Note_on_c, 0, 62, 84
2, 20343, Note_on_c, 0, 71, 90
2, 20343, Control_c, 0, 64, 56
2, 20346, Note_on_c, 0, 86, 72
2, 20347, Control_c, 0, 64, 127
2, 20353, Note_on_c, 0, 86, 0
2, 20354, Note_on_c, 0, 62, 0
2, 20354, Note_on_c, 0, 59, 0
2, 20354, Note_on_c, 0, 68, 0
2, 20356, Note_on_c, 0, 71, 0
2, 20357, Note_on_c, 0, 77, 0
2, 20358, Note_on_c, 0, 89, 0
2, 20366, Note_on_c, 0, 80, 0
2, 20380, Note_on_c, 0, 63, 40
2, 20388, Note_on_c, 0, 63, 0
2, 20401, Note_on_c, 0, 87, 96
2, 20401, Note_on_c, 0, 75, 91
2, 20402, Note_on_c, 0, 80, 74
2, 20402, Note_on_c, 0, 63, 65
2, 20405, Note_on_c, 0, 68, 84
2, 20406, Note_on_c, 0, 87, 0
2, 20406, Note_on_c, 0, 72, 88
2, 20406, Note_on_c, 0, 60, 80
2, 20408, Note_on_c, 0, 75, 0
2, 20408, Note_on_c, 0, 80, 0
2, 20408, Control_c, 0, 64, 40
2, 20411, Control_c, 0, 64, 0
2, 20412, Note_on_c, 0, 72, 0
2, 20412, Note_on_c, 0, 60, 0
2, 20415, Note_on_c, 0, 63, 0
2, 20416, Note_on_c, 0, 68, 0
2, 20420, Note_on_c, 0, 75, 98
2, 20421, Note_on_c, 0, 87, 103
2, 20423, Note_on_c, 0, 80, 66
2, 20425, Note_on_c, 0, 72, 84
2, 20426, Note_on_c, 0, 60, 73
2, 20427, Note_on_c, 0, 63, 85
2, 20427, Note_on_c, 0, 68, 75
2, 20427, Control_c, 0, 64, 104
2, 20428, Note_on_c, 0, 80, 0
2, 20431, Note_on_c, 0, 72, 0
2, 20431, Control_c, 0, 64, 127
2, 20432, Note_on_c, 0, 68, 0
2, 20433, Note_on_c, 0, 60, 0
2, 20437, Note_on_c, 0, 63, 0
2, 20441, Note_on_c, 0, 75, 0
2, 20448, Note_on_c, 0, 87, 0
2, 20480, Note_on_c, 0, 87, 99
2, 20483, Note_on_c, 0, 53, 80
2, 20486, Note_on_c, 0, 73, 55
2, 20491, Control_c, 0, 64, 104
2, 20492, Note_on_c, 0, 73, 0
2, 20493, Control_c, 0, 64, 0
2, 20495, Note_on_c, 0, 53, 0
2, 20495, Note_on_c, 0, 63, 85
2, 20496, Note_on_c, 0, 87, 0
2, 20500, Note_on_c, 0, 87, 70
2, 20500, Note_on_c, 0, 73, 99
2, 20502, Note_on_c, 0, 69, 96
2, 20502, Note_on_c, 0, 85, 91
2, 20502, Note_on_c, 0, 81, 91
2, 20505, Control_c, 0, 64, 24
2, 20506, Note_on_c, 0, 67, 58
2, 20508, Note_on_c, 0, 69, 0
2, 20509, Note_on_c, 0, 81, 0
2, 20510, Control_c, 0, 64, 104
2, 20511, Note_on_c, 0, 63, 0
2, 20513, Note_on_c, 0, 73, 0
2, 20513, Note_on_c, 0, 67, 0
2, 20513, Control_c, 0, 64, 127
2, 20515, Note_on_c, 0, 87, 0
2, 20524, Note_on_c, 0, 85, 0
2, 20553, Note_on_c, 0, 84, 106
2, 20553, Note_on_c, 0, 72, 100
2, 20566, Note_on_c, 0, 46, 89
2, 20568, Note_on_c, 0, 84, 0
2, 20569, Note_on_c, 0, 72, 0
2, 20576, Control_c, 0, 64, 0
2, 20578, Note_on_c, 0, 53, 49
2, 20583, Note_on_c, 0, 77, 98
2, 20583, Note_on_c, 0, 61, 66
2, 20583, Note_on_c, 0, 70, 90
2, 20584, Note_on_c, 0, 53, 0
2, 20585, Note_on_c, 0, 82, 85
2, 20587, Note_on_c, 0, 46, 0
2, 20594, Note_on_c, 0, 70, 0
2, 20596, Note_on_c, 0, 61, 0
2, 20596, Control_c, 0, 64, 127
2, 20598, Note_on_c, 0, 77, 0
2, 20600, Note_on_c, 0, 82, 0
2, 20642, Note_on_c, 0, 51, 72
2, 20650, Note_on_c, 0, 58, 47
2, 20661, Note_on_c, 0, 82, 106
2, 20662, Note_on_c, 0, 70, 97
2, 20662, Note_on_c, 0, 66, 77
2, 20662, Note_on_c, 0, 78, 87
2, 20662, Control_c, 0, 64, 24
2, 20666, Control_c, 0, 64, 72
2, 20670, Control_c, 0, 64, 127
2, 20674, Note_on_c, 0, 51, 0
2, 20675, Note_on_c, 0, 66, 0
2, 20675, Note_on_c, 0, 70, 0
2, 20675, Note_on_c, 0, 78, 0
2, 20680, Note_on_c, 0, 58, 0
2, 20687, Note_on_c, 0, 82, 0
2, 20718, Note_on_c, 0, 84, 94
2, 20718, Note_on_c, 0, 72, 85
2, 20726, Note_on_c, 0, 77, 52
2, 20733, Note_on_c, 0, 77, 0
2, 20733, Note_on_c, 0, 72, 0
2, 20735, Note_on_c, 0, 84, 0
2, 20738, Control_c, 0, 64, 72
2, 20742, Control_c, 0, 64, 0
2, 20743, Note_on_c, 0, 77, 100
2, 20743, Note_on_c, 0, 85, 109
2, 20745, Note_on_c, 0, 46, 85
2, 20745, Note_on_c, 0, 73, 94
2, 20748, Note_on_c, 0, 53, 73
2, 20757, Note_on_c, 0, 61, 79
2, 20763, Control_c, 0, 64, 56
2, 20764, Note_on_c, 0, 53, 0
2, 20766, Note_on_c, 0, 77, 0
2, 20767, Note_on_c, 0, 46, 0
2, 20767, Note_on_c, 0, 61, 0
2, 20767, Control_c, 0, 64, 127
2, 20769, Note_on_c, 0, 85, 0
2, 20773, Note_on_c, 0, 73, 0
2, 20815, Note_on_c, 0, 39, 71
2, 20817, Control_c, 0, 64, 88
2, 20821, Control_c, 0, 64, 0
2, 20822, Note_on_c, 0, 46, 69
2, 20827, Note_on_c, 0, 85, 107
2, 20828, Note_on_c, 0, 73, 97
2, 20828, Note_on_c, 0, 78, 83
2, 20830, Note_on_c, 0, 75, 89
2, 20832, Note_on_c, 0, 54, 89
2, 20837, Note_on_c, 0, 39, 0
2, 20842, Note_on_c, 0, 54, 0
2, 20842, Control_c, 0, 64, 88
2, 20844, Note_on_c, 0, 46, 0
2, 20845, Note_on_c, 0, 78, 0
2, 20846, Control_c, 0, 64, 127
2, 20850, Note_on_c, 0, 75, 0
2, 20855, Note_on_c, 0, 73, 0
2, 20858, Note_on_c, 0, 85, 0
2, 20892, Note_on_c, 0, 84, 93
2, 20892, Note_on_c, 0, 72, 85
2, 20907, Note_on_c, 0, 72, 0
2, 20907, Note_on_c, 0, 84, 0
2, 20907, Note_on_c, 0, 34, 78
2, 20911, Note_on_c, 0, 41, 78
2, 20911, Control_c, 0, 64, 40
2, 20913, Note_on_c, 0, 82, 88
2, 20915, Note_on_c, 0, 70, 109
2, 20915, Note_on_c, 0, 77, 106
2, 20915, Control_c, 0, 64, 0
2, 20917, Note_on_c, 0, 73, 75
2, 20922, Note_on_c, 0, 49, 91
2, 20923, Note_on_c, 0, 73, 0
2, 20924, Note_on_c, 0, 34, 0
2, 20927, Note_on_c, 0, 41, 0
2, 20928, Control_c, 0, 64, 72
2, 20932, Control_c, 0, 64, 127
2, 20933, Note_on_c, 0, 82, 0
2, 20934, Note_on_c, 0, 49, 0
2, 20938, Note_on_c, 0, 77, 0
2, 20938, Note_on_c, 0, 70, 0
2, 20997, Note_on_c, 0, 39, 64
2, 20997, Control_c, 0, 64, 56
2, 21001, Control_c, 0, 64, 0
2, 21003, Note_on_c, 0, 46, 65
2, 21007, Note_on_c, 0, 80, 110
2, 21008, Note_on_c, 0, 68, 112
2, 21011, Note_on_c, 0, 75, 90
2, 21011, Note_on_c, 0, 70, 94
2, 21013, Note_on_c, 0, 54, 95
2, 21018, Note_on_c, 0, 39, 0
2, 21022, Control_c, 0, 64, 127
2, 21024, Note_on_c, 0, 46, 0
2, 21028, Note_on_c, 0, 54, 0
2, 21035, Note_on_c, 0, 80, 0
2, 21041, Note_on_c, 0, 68, 0
2, 21042, Note_on_c, 0, 75, 0
2, 21063, Note_on_c, 0, 70, 0
2, 21092, Note_on_c, 0, 70, 71
2, 21092, Note_on_c, 0, 66, 97
2, 21092, Note_on_c, 0, 78, 106
2, 21097, Note_on_c, 0, 70, 0
2, 21102, Note_on_c, 0, 66, 0
2, 21103, Note_on_c, 0, 78, 0
2, 21106, Note_on_c, 0, 46, 77
2, 21111, Note_on_c, 0, 53, 80
2, 21113, Note_on_c, 0, 77, 117
2, 21115, Note_on_c, 0, 73, 90
2, 21115, Note_on_c, 0, 70, 85
2, 21115, Note_on_c, 0, 65, 104
2, 21116, Control_c, 0, 64, 88
2, 21120, Control_c, 0, 64, 0
2, 21125, Note_on_c, 0, 61, 83
2, 21138, Note_on_c, 0, 61, 0
2, 21140, Note_on_c, 0, 65, 0
2, 21141, Note_on_c, 0, 53, 0
2, 21141, Control_c, 0, 64, 56
2, 21143, Note_on_c, 0, 77, 0
2, 21144, Note_on_c, 0, 46, 0
2, 21145, Control_c, 0, 64, 127
2, 21147, Note_on_c, 0, 70, 0
2, 21147, Note_on_c, 0, 73, 0
2, 21221, Note_on_c, 0, 33, 84
2, 21221, Note_on_c, 0, 45, 89
2, 21231, Control_c, 0, 64, 104
2, 21233, Control_c, 0, 64, 72
2, 21237, Control_c, 0, 64, 40
2, 21241, Note_on_c, 0, 45, 0
2, 21241, Control_c, 0, 64, 0
2, 21243, Note_on_c, 0, 33, 0
2, 21248, Note_on_c, 0, 46, 89
2, 21248, Note_on_c, 0, 34, 81
2, 21265, Note_on_c, 0, 34, 0
2, 21268, Note_on_c, 0, 46, 0
2, 21268, Note_on_c, 0, 36, 83
2, 21268, Note_on_c, 0, 48, 98
2, 21291, Note_on_c, 0, 48, 0
2, 21295, Note_on_c, 0, 49, 92
2, 21295, Note_on_c, 0, 37, 87
2, 21300, Note_on_c, 0, 36, 0
2, 21317, Note_on_c, 0, 51, 92
2, 21317, Note_on_c, 0, 39, 71
2, 21318, Note_on_c, 0, 49, 0
2, 21323, Note_on_c, 0, 37, 0
2, 21334, Note_on_c, 0, 51, 0
2, 21340, Note_on_c, 0, 53, 98
2, 21340, Note_on_c, 0, 41, 83
2, 21342, Note_on_c, 0, 39, 0
2, 21360, Note_on_c, 0, 41, 0
2, 21365, Note_on_c, 0, 55, 102
2, 21365, Note_on_c, 0, 43, 88
2, 21366, Note_on_c, 0, 53, 0
2, 21388, Note_on_c, 0, 57, 96
2, 21388, Note_on_c, 0, 45, 93
2, 21396, Note_on_c, 0, 55, 0
2, 21397, Note_on_c, 0, 43, 0
2, 21411, Note_on_c, 0, 46, 95
2, 21411, Note_on_c, 0, 58, 88
2, 21413, Note_on_c, 0, 45, 0
2, 21420, Note_on_c, 0, 57, 0
2, 21424, Note_on_c, 0, 58, 0
2, 21431, Note_on_c, 0, 46, 0
2, 21436, Note_on_c, 0, 60, 90
2, 21436, Note_on_c, 0, 48, 97
2, 21455, Note_on_c, 0, 61, 93
2, 21455, Note_on_c, 0, 49, 91
2, 21458, Note_on_c, 0, 60, 0
2, 21464, Note_on_c, 0, 48, 0
2, 21477, Note_on_c, 0, 63, 91
2, 21477, Note_on_c, 0, 51, 79
2, 21480, Note_on_c, 0, 49, 0
2, 21481, Note_on_c, 0, 61, 0
2, 21495, Note_on_c, 0, 63, 0
2, 21497, Note_on_c, 0, 51, 0
2, 21500, Note_on_c, 0, 65, 96
2, 21500, Note_on_c, 0, 53, 97
2, 21518, Note_on_c, 0, 53, 0
2, 21523, Note_on_c, 0, 67, 98
2, 21523, Note_on_c, 0, 55, 91
2, 21528, Note_on_c, 0, 65, 0
2, 21546, Note_on_c, 0, 69, 97
2, 21546, Note_on_c, 0, 57, 86
2, 21555, Note_on_c, 0, 55, 0
2, 21558, Note_on_c, 0, 67, 0
2, 21566, Note_on_c, 0, 57, 0
2, 21567, Note_on_c, 0, 70, 90
2, 21567, Note_on_c, 0, 58, 87
2, 21577, Note_on_c, 0, 69, 0
2, 21579, Note_on_c, 0, 70, 0
2, 21584, Note_on_c, 0, 58, 0
2, 21590, Note_on_c, 0, 72, 103
2, 21590, Note_on_c, 0, 60, 92
2, 21605, Note_on_c, 0, 72, 0
2, 21608, Note_on_c, 0, 73, 98
2, 21608, Note_on_c, 0, 61, 89
2, 21610, Note_on_c, 0, 60, 0
2, 21627, Note_on_c, 0, 75, 94
2, 21627, Note_on_c, 0, 63, 75
2, 21630, Note_on_c, 0, 61, 0
2, 21636, Note_on_c, 0, 73, 0
2, 21645, Note_on_c, 0, 77, 104
2, 21645, Note_on_c, 0, 65, 92
2, 21647, Note_on_c, 0, 75, 0
2, 21649, Note_on_c, 0, 63, 0
2, 21663, Note_on_c, 0, 65, 0
2, 21667, Note_on_c, 0, 67, 85
2, 21667, Note_on_c, 0, 79, 107
2, 21673, Note_on_c, 0, 77, 0
2, 21691, Note_on_c, 0, 81, 98
2, 21691, Note_on_c, 0, 69, 88
2, 21697, Note_on_c, 0, 67, 0
2, 21700, Note_on_c, 0, 79, 0
2, 21711, Note_on_c, 0, 82, 92
2, 21711, Note_on_c, 0, 70, 94
2, 21712, Note_on_c, 0, 69, 0
2, 21718, Note_on_c, 0, 81, 0
2, 21722, Note_on_c, 0, 82, 0
2, 21728, Note_on_c, 0, 70, 0
2, 21732, Note_on_c, 0, 84, 99
2, 21732, Note_on_c, 0, 72, 92
2, 21751, Note_on_c, 0, 85, 100
2, 21751, Note_on_c, 0, 73, 91
2, 21754, Note_on_c, 0, 84, 0
2, 21763, Note_on_c, 0, 72, 0
2, 21771, Note_on_c, 0, 87, 95
2, 21771, Note_on_c, 0, 75, 74
2, 21774, Note_on_c, 0, 85, 0
2, 21774, Note_on_c, 0, 73, 0
2, 21788, Note_on_c, 0, 87, 0
2, 21793, Note_on_c, 0, 75, 0
2, 21793, Note_on_c, 0, 89, 97
2, 21793, Note_on_c, 0, 77, 92
2, 21811, Note_on_c, 0, 77, 0
2, 21816, Note_on_c, 0, 91, 102
2, 21816, Note_on_c, 0, 79, 87
2, 21819, Note_on_c, 0, 89, 0
2, 21841, Note_on_c, 0, 81, 90
2, 21841, Note_on_c, 0, 93, 109
2, 21843, Note_on_c, 0, 79, 0
2, 21849, Note_on_c, 0, 91, 0
2, 21861, Note_on_c, 0, 81, 0
2, 21865, Note_on_c, 0, 82, 100
2, 21865, Note_on_c, 0, 94, 101
2, 21877, Note_on_c, 0, 82, 0
2, 21877, Note_on_c, 0, 93, 0
2, 21885, Control_c, 0, 64, 72
2, 21888, Control_c, 0, 64, 127
2, 21890, Note_on_c, 0, 94, 0
2, 21925, Control_c, 0, 64, 104
2, 21928, Control_c, 0, 64, 40
2, 21932, Control_c, 0, 64, 0
2, 21947, Note_on_c, 0, 96, 107
2, 21947, Note_on_c, 0, 85, 103
2, 21947, Note_on_c, 0, 91, 103
2, 21948, Note_on_c, 0, 94, 95
2, 21950, Note_on_c, 0, 39, 89
2, 21952, Note_on_c, 0, 27, 93
2, 21953, Control_c, 0, 64, 88
2, 21957, Control_c, 0, 64, 127
2, 21964, Note_on_c, 0, 85, 0
2, 21964, Note_on_c, 0, 96, 0
2, 21966, Note_on_c, 0, 39, 0
2, 21969, Note_on_c, 0, 91, 0
2, 21969, Note_on_c, 0, 27, 0
2, 21970, Note_on_c, 0, 94, 0
2, 21983, Note_on_c, 0, 91, 92
2, 21983, Note_on_c, 0, 93, 102
2, 21985, Note_on_c, 0, 84, 92
2, 21991, Note_on_c, 0, 84, 0
2, 21998, Note_on_c, 0, 93, 0
2, 22003, Note_on_c, 0, 91, 0
2, 22022, Note_on_c, 0, 94, 110
2, 22023, Note_on_c, 0, 85, 102
2, 22023, Note_on_c, 0, 91, 102
2, 22025, Control_c, 0, 64, 40
2, 22027, Note_on_c, 0, 51, 92
2, 22028, Control_c, 0, 64, 0
2, 22032, Note_on_c, 0, 39, 35
2, 22037, Note_on_c, 0, 51, 0
2, 22038, Note_on_c, 0, 39, 0
2, 22040, Control_c, 0, 64, 56
2, 22041, Note_on_c, 0, 85, 0
2, 22043, Control_c, 0, 64, 127
2, 22044, Note_on_c, 0, 91, 0
2, 22050, Note_on_c, 0, 94, 0
2, 22102, Note_on_c, 0, 96, 115
2, 22103, Note_on_c, 0, 84, 107
2, 22103, Note_on_c, 0, 91, 107
2, 22105, Note_on_c, 0, 75, 100
2, 22105, Note_on_c, 0, 63, 83
2, 22107, Control_c, 0, 64, 104
2, 22111, Control_c, 0, 64, 56
2, 22115, Control_c, 0, 64, 72
2, 22118, Control_c, 0, 64, 127
2, 22120, Note_on_c, 0, 91, 0
2, 22120, Note_on_c, 0, 96, 0
2, 22121, Note_on_c, 0, 63, 0
2, 22123, Note_on_c, 0, 75, 0
2, 22123, Note_on_c, 0, 84, 0
2, 22180, Note_on_c, 0, 92, 116
2, 22181, Note_on_c, 0, 80, 102
2, 22182, Note_on_c, 0, 72, 93
2, 22182, Note_on_c, 0, 77, 95
2, 22182, Note_on_c, 0, 84, 90
2, 22183, Control_c, 0, 64, 104
2, 22185, Note_on_c, 0, 65, 80
2, 22187, Control_c, 0, 64, 40
2, 22190, Control_c, 0, 64, 24
2, 22195, Control_c, 0, 64, 56
2, 22197, Control_c, 0, 64, 127
2, 22198, Note_on_c, 0, 77, 0
2, 22200, Note_on_c, 0, 72, 0
2, 22202, Note_on_c, 0, 80, 0
2, 22202, Note_on_c, 0, 65, 0
2, 22205, Note_on_c, 0, 92, 0
2, 22205, Note_on_c, 0, 84, 0
2, 22262, Note_on_c, 0, 87, 113
2, 22262, Note_on_c, 0, 75, 103
2, 22263, Note_on_c, 0, 80, 99
2, 22267, Note_on_c, 0, 68, 89
2, 22268, Note_on_c, 0, 60, 80
2, 22268, Note_on_c, 0, 72, 87
2, 22277, Control_c, 0, 64, 72
2, 22281, Control_c, 0, 64, 0
2, 22284, Note_on_c, 0, 60, 0
2, 22287, Note_on_c, 0, 75, 0
2, 22291, Control_c, 0, 64, 56
2, 22293, Note_on_c, 0, 68, 0
2, 22293, Note_on_c, 0, 72, 0
2, 22295, Note_on_c, 0, 80, 0
2, 22295, Control_c, 0, 64, 127
2, 22298, Note_on_c, 0, 87, 0
2, 22348, Note_on_c, 0, 89, 112
2, 22348, Note_on_c, 0, 80, 95
2, 22350, Note_on_c, 0, 77, 106
2, 22351, Note_on_c, 0, 68, 85
2, 22352, Note_on_c, 0, 73, 95
2, 22352, Note_on_c, 0, 61, 81
2, 22352, Control_c, 0, 64, 24
2, 22356, Note_on_c, 0, 87, 53
2, 22356, Control_c, 0, 64, 0
2, 22362, Note_on_c, 0, 87, 0
2, 22364, Note_on_c, 0, 73, 0
2, 22366, Note_on_c, 0, 89, 0
2, 22366, Control_c, 0, 64, 72
2, 22367, Note_on_c, 0, 68, 0
2, 22367, Note_on_c, 0, 77, 0
2, 22368, Note_on_c, 0, 61, 0
2, 22370, Control_c, 0, 64, 127
2, 22373, Note_on_c, 0, 80, 0
2, 22451, Note_on_c, 0, 63, 107
2, 22452, Note_on_c, 0, 55, 103
2, 22452, Note_on_c, 0, 61, 97
2, 22457, Note_on_c, 0, 51, 113
2, 22458, Note_on_c, 0, 39, 96
2, 22463, Control_c, 0, 64, 24
2, 22467, Control_c, 0, 64, 0
2, 22469, Note_on_c, 0, 55, 0
2, 22485, Control_c, 0, 64, 104
2, 22488, Control_c, 0, 64, 127
2, 22494, Note_on_c, 0, 51, 0
2, 22494, Note_on_c, 0, 39, 0
2, 22512, Note_on_c, 0, 61, 0
2, 22512, Note_on_c, 0, 63, 0
2, 22518, Note_on_c, 0, 55, 88
2, 22533, Note_on_c, 0, 61, 90
2, 22538, Note_on_c, 0, 55, 0
2, 22551, Note_on_c, 0, 63, 90
2, 22553, Note_on_c, 0, 61, 0
2, 22571, Note_on_c, 0, 63, 0
2, 22576, Note_on_c, 0, 70, 110
2, 22677, Note_on_c, 0, 39, 113
2, 22677, Note_on_c, 0, 27, 115
2, 22700, Note_on_c, 0, 27, 0
2, 22702, Note_on_c, 0, 39, 0
2, 22724, Note_on_c, 0, 70, 0
2, 22808, Note_on_c, 0, 68, 105
2, 22808, Control_c, 0, 64, 100
2, 22811, Note_on_c, 0, 56, 91
2, 22811, Note_on_c, 0, 60, 98
2, 22813, Note_on_c, 0, 44, 105
2, 22813, Note_on_c, 0, 32, 91
2, 22830, Control_c, 0, 64, 40
2, 22833, Control_c, 0, 64, 0
2, 23003, Note_on_c, 0, 32, 0
2, 23005, Note_on_c, 0, 44, 0
2, 23019, Note_on_c, 0, 56, 0
2, 23021, Note_on_c, 0, 60, 0
2, 23021, Note_on_c, 0, 68, 0
2, 23121, Note_on_c, 0, 84, 117
2, 23122, Note_on_c, 0, 72, 112
2, 23123, Note_on_c, 0, 36, 95
2, 23123, Note_on_c, 0, 24, 87
2, 23132, Control_c, 0, 64, 104
2, 23136, Control_c, 0, 64, 127
2, 23137, Note_on_c, 0, 72, 0
2, 23139, Note_on_c, 0, 84, 0
2, 23139, Note_on_c, 0, 24, 0
2, 23143, Note_on_c, 0, 36, 0
2, 23221, Control_c, 0, 64, 40
2, 23225, Control_c, 0, 64, 88
2, 23227, Note_on_c, 0, 72, 95
2, 23228, Note_on_c, 0, 60, 84
2, 23228, Control_c, 0, 64, 127
2, 23232, Note_on_c, 0, 36, 73
2, 23232, Note_on_c, 0, 48, 71
2, 23241, Note_on_c, 0, 60, 0
2, 23243, Note_on_c, 0, 48, 0
2, 23244, Note_on_c, 0, 36, 0
2, 23247, Note_on_c, 0, 72, 0
2, 23305, Note_on_c, 0, 72, 95
2, 23305, Note_on_c, 0, 60, 77
2, 23306, Note_on_c, 0, 48, 66
2, 23306, Note_on_c, 0, 36, 68
2, 23311, Note_on_c, 0, 60, 0
2, 23314, Note_on_c, 0, 48, 0
2, 23316, Note_on_c, 0, 72, 0
2, 23316, Note_on_c, 0, 36, 0
2, 23317, Control_c, 0, 64, 88
2, 23321, Control_c, 0, 64, 24
2, 23323, Control_c, 0, 64, 0
2, 23327, Note_on_c, 0, 72, 100
2, 23327, Note_on_c, 0, 61, 93
2, 23332, Note_on_c, 0, 49, 77
2, 23333, Note_on_c, 0, 40, 72
2, 23340, Note_on_c, 0, 40, 0
2, 23341, Control_c, 0, 64, 40
2, 23343, Note_on_c, 0, 49, 0
2, 23343, Note_on_c, 0, 61, 0
2, 23343, Control_c, 0, 64, 104
2, 23347, Control_c, 0, 64, 127
2, 23349, Note_on_c, 0, 72, 0
2, 23430, Note_on_c, 0, 72, 94
2, 23431, Note_on_c, 0, 40, 79
2, 23431, Note_on_c, 0, 60, 82
2, 23431, Note_on_c, 0, 28, 72
2, 23437, Note_on_c, 0, 28, 0
2, 23439, Note_on_c, 0, 40, 0
2, 23442, Note_on_c, 0, 60, 0
2, 23443, Note_on_c, 0, 72, 0
2, 23501, Note_on_c, 0, 72, 100
2, 23502, Note_on_c, 0, 60, 82
2, 23502, Note_on_c, 0, 40, 75
2, 23503, Note_on_c, 0, 48, 82
2, 23508, Note_on_c, 0, 60, 0
2, 23509, Note_on_c, 0, 48, 0
2, 23513, Control_c, 0, 64, 72
2, 23516, Note_on_c, 0, 72, 0
2, 23517, Note_on_c, 0, 40, 0
2, 23517, Control_c, 0, 64, 0
2, 23525, Note_on_c, 0, 63, 96
2, 23526, Note_on_c, 0, 72, 104
2, 23528, Note_on_c, 0, 51, 94
2, 23530, Note_on_c, 0, 41, 81
2, 23538, Note_on_c, 0, 63, 0
2, 23539, Note_on_c, 0, 51, 0
2, 23540, Note_on_c, 0, 41, 0
2, 23540, Control_c, 0, 64, 88
2, 23544, Note_on_c, 0, 72, 0
2, 23545, Control_c, 0, 64, 127
2, 23623, Note_on_c, 0, 60, 92
2, 23623, Note_on_c, 0, 72, 92
2, 23627, Note_on_c, 0, 41, 79
2, 23627, Note_on_c, 0, 29, 65
2, 23633, Note_on_c, 0, 29, 0
2, 23635, Note_on_c, 0, 60, 0
2, 23638, Note_on_c, 0, 41, 0
2, 23640, Note_on_c, 0, 72, 0
2, 23692, Note_on_c, 0, 61, 84
2, 23695, Note_on_c, 0, 41, 79
2, 23696, Note_on_c, 0, 72, 90
2, 23697, Note_on_c, 0, 49, 81
2, 23704, Note_on_c, 0, 72, 0
2, 23705, Note_on_c, 0, 61, 0
2, 23707, Note_on_c, 0, 49, 0
2, 23710, Note_on_c, 0, 41, 0
2, 23710, Control_c, 0, 64, 72
2, 23713, Control_c, 0, 64, 0
2, 23717, Note_on_c, 0, 72, 98
2, 23718, Note_on_c, 0, 65, 100
2, 23723, Note_on_c, 0, 53, 87
2, 23725, Note_on_c, 0, 43, 86
2, 23735, Note_on_c, 0, 53, 0
2, 23738, Note_on_c, 0, 65, 0
2, 23740, Note_on_c, 0, 72, 0
2, 23740, Note_on_c, 0, 43, 0
2, 23741, Control_c, 0, 64, 56
2, 23743, Control_c, 0, 64, 127
2, 23812, Note_on_c, 0, 60, 100
2, 23812, Control_c, 0, 64, 40
2, 23813, Note_on_c, 0, 72, 102
2, 23815, Control_c, 0, 64, 0
2, 23816, Note_on_c, 0, 43, 89
2, 23816, Note_on_c, 0, 31, 75
2, 23822, Note_on_c, 0, 31, 0
2, 23828, Note_on_c, 0, 60, 0
2, 23829, Note_on_c, 0, 43, 0
2, 23831, Note_on_c, 0, 72, 0
2, 23832, Control_c, 0, 64, 88
2, 23835, Control_c, 0, 64, 127
2, 23881, Note_on_c, 0, 72, 100
2, 23881, Note_on_c, 0, 64, 100
2, 23882, Note_on_c, 0, 52, 82
2, 23882, Note_on_c, 0, 43, 84
2, 23890, Note_on_c, 0, 52, 0
2, 23891, Note_on_c, 0, 64, 0
2, 23892, Note_on_c, 0, 72, 0
2, 23893, Note_on_c, 0, 43, 0
2, 23896, Control_c, 0, 64, 56
2, 23900, Control_c, 0, 64, 0
2, 23903, Note_on_c, 0, 72, 100
2, 23906, Note_on_c, 0, 67, 100
2, 23912, Note_on_c, 0, 44, 75
2, 23912, Note_on_c, 0, 55, 89
2, 23920, Note_on_c, 0, 55, 0
2, 23923, Control_c, 0, 64, 104
2, 23927, Note_on_c, 0, 44, 0
2, 23927, Note_on_c, 0, 67, 0
2, 23927, Control_c, 0, 64, 127
2, 23931, Note_on_c, 0, 72, 0
2, 23993, Note_on_c, 0, 60, 97
2, 23993, Note_on_c, 0, 72, 102
2, 23995, Note_on_c, 0, 44, 81
2, 23995, Note_on_c, 0, 32, 69
2, 24001, Note_on_c, 0, 32, 0
2, 24001, Note_on_c, 0, 44, 0
2, 24005, Note_on_c, 0, 60, 0
2, 24009, Note_on_c, 0, 72, 0
2, 24060, Note_on_c, 0, 65, 100
2, 24062, Note_on_c, 0, 44, 74
2, 24062, Note_on_c, 0, 53, 87
2, 24062, Note_on_c, 0, 72, 87
2, 24068, Note_on_c, 0, 72, 0
2, 24068, Note_on_c, 0, 53, 0
2, 24072, Note_on_c, 0, 44, 0
2, 24072, Note_on_c, 0, 65, 0
2, 24076, Control_c, 0, 64, 56
2, 24080, Control_c, 0, 64, 0
2, 24082, Note_on_c, 0, 72, 106
2, 24083, Note_on_c, 0, 68, 93
2, 24090, Note_on_c, 0, 56, 83
2, 24092, Note_on_c, 0, 44, 75
2, 24100, Note_on_c, 0, 56, 0
2, 24100, Control_c, 0, 64, 72
2, 24103, Note_on_c, 0, 44, 0
2, 24103, Control_c, 0, 64, 127
2, 24108, Note_on_c, 0, 72, 0
2, 24134, Note_on_c, 0, 68, 0
2, 24175, Note_on_c, 0, 72, 106
2, 24176, Note_on_c, 0, 60, 90
2, 24177, Note_on_c, 0, 32, 79
2, 24177, Note_on_c, 0, 44, 85
2, 24188, Note_on_c, 0, 44, 0
2, 24188, Note_on_c, 0, 32, 0
2, 24188, Note_on_c, 0, 60, 0
2, 24195, Note_on_c, 0, 72, 0
2, 24237, Note_on_c, 0, 66, 85
2, 24238, Note_on_c, 0, 72, 93
2, 24241, Note_on_c, 0, 44, 74
2, 24241, Note_on_c, 0, 54, 64
2, 24247, Note_on_c, 0, 44, 0
2, 24249, Note_on_c, 0, 54, 0
2, 24251, Note_on_c, 0, 72, 0
2, 24253, Note_on_c, 0, 66, 0
2, 24263, Control_c, 0, 64, 56
2, 24266, Control_c, 0, 64, 0
2, 24273, Note_on_c, 0, 67, 93
2, 24273, Note_on_c, 0, 64, 97
2, 24275, Note_on_c, 0, 76, 103
2, 24275, Note_on_c, 0, 72, 90
2, 24278, Note_on_c, 0, 43, 88
2, 24280, Note_on_c, 0, 55, 93
2, 24289, Note_on_c, 0, 64, 0
2, 24290, Note_on_c, 0, 43, 0
2, 24290, Control_c, 0, 64, 72
2, 24291, Note_on_c, 0, 67, 0
2, 24292, Note_on_c, 0, 55, 0
2, 24293, Control_c, 0, 64, 127
2, 24300, Note_on_c, 0, 72, 0
2, 24303, Note_on_c, 0, 76, 0
2, 24367, Note_on_c, 0, 88, 106
2, 24367, Note_on_c, 0, 79, 103
2, 24368, Note_on_c, 0, 84, 95
2, 24370, Note_on_c, 0, 76, 97
2, 24372, Note_on_c, 0, 67, 73
2, 24372, Note_on_c, 0, 55, 64
2, 24383, Note_on_c, 0, 67, 0
2, 24385, Note_on_c, 0, 55, 0
2, 24407, Note_on_c, 0, 67, 87
2, 24408, Note_on_c, 0, 55, 82
2, 24420, Note_on_c, 0, 55, 0
2, 24420, Note_on_c, 0, 67, 0
2, 24448, Note_on_c, 0, 88, 0
2, 24448, Note_on_c, 0, 69, 84
2, 24452, Note_on_c, 0, 57, 70
2, 24457, Note_on_c, 0, 57, 0
2, 24459, Note_on_c, 0, 69, 0
2, 24465, Note_on_c, 0, 76, 0
2, 24476, Note_on_c, 0, 84, 0
2, 24485, Note_on_c, 0, 67, 85
2, 24487, Note_on_c, 0, 55, 81
2, 24495, Note_on_c, 0, 55, 0
2, 24497, Note_on_c, 0, 79, 0
2, 24498, Note_on_c, 0, 67, 0
2, 24523, Note_on_c, 0, 86, 97
2, 24525, Note_on_c, 0, 74, 92
2, 24526, Note_on_c, 0, 83, 91
2, 24531, Note_on_c, 0, 67, 84
2, 24532, Note_on_c, 0, 55, 80
2, 24536, Note_on_c, 0, 74, 0
2, 24539, Note_on_c, 0, 55, 0
2, 24541, Note_on_c, 0, 83, 0
2, 24543, Note_on_c, 0, 67, 0
2, 24544, Note_on_c, 0, 86, 0
2, 24562, Note_on_c, 0, 88, 100
2, 24563, Note_on_c, 0, 76, 94
2, 24565, Note_on_c, 0, 84, 92
2, 24568, Note_on_c, 0, 67, 80
2, 24570, Note_on_c, 0, 55, 80
2, 24575, Note_on_c, 0, 76, 0
2, 24578, Note_on_c, 0, 84, 0
2, 24582, Note_on_c, 0, 88, 0
2, 24583, Note_on_c, 0, 55, 0
2, 24583, Note_on_c, 0, 67, 0
2, 24605, Control_c, 0, 64, 88
2, 24606, Note_on_c, 0, 89, 109
2, 24607, Note_on_c, 0, 77, 106
2, 24607, Note_on_c, 0, 86, 102
2, 24608, Control_c, 0, 64, 0
2, 24613, Note_on_c, 0, 67, 86
2, 24615, Note_on_c, 0, 55, 81
2, 24626, Note_on_c, 0, 55, 0
2, 24628, Control_c, 0, 64, 40
2, 24629, Note_on_c, 0, 86, 0
2, 24629, Note_on_c, 0, 89, 0
2, 24630, Note_on_c, 0, 67, 0
2, 24632, Control_c, 0, 64, 127
2, 24637, Note_on_c, 0, 77, 0
2, 24693, Note_on_c, 0, 88, 109
2, 24693, Control_c, 0, 64, 72
2, 24695, Note_on_c, 0, 76, 98
2, 24695, Note_on_c, 0, 71, 78
2, 24695, Note_on_c, 0, 62, 78
2, 24696, Note_on_c, 0, 79, 91
2, 24696, Note_on_c, 0, 65, 69
2, 24696, Control_c, 0, 64, 0
2, 24697, Note_on_c, 0, 67, 69
2, 24713, Control_c, 0, 64, 88
2, 24714, Note_on_c, 0, 67, 0
2, 24717, Note_on_c, 0, 65, 0
2, 24717, Control_c, 0, 64, 127
2, 24718, Note_on_c, 0, 76, 0
2, 24718, Note_on_c, 0, 71, 0
2, 24718, Note_on_c, 0, 88, 0
2, 24718, Note_on_c, 0, 62, 0
2, 24722, Note_on_c, 0, 79, 0
2, 24757, Note_on_c, 0, 86, 92
2, 24757, Note_on_c, 0, 74, 83
2, 24767, Note_on_c, 0, 74, 0
2, 24768, Note_on_c, 0, 86, 0
2, 24775, Control_c, 0, 64, 24
2, 24777, Control_c, 0, 64, 0
2, 24782, Note_on_c, 0, 88, 107
2, 24783, Note_on_c, 0, 76, 102
2, 24783, Note_on_c, 0, 79, 97
2, 24785, Note_on_c, 0, 84, 88
2, 24786, Note_on_c, 0, 72, 92
2, 24786, Note_on_c, 0, 67, 81
2, 24786, Note_on_c, 0, 64, 80
2, 24787, Note_on_c, 0, 60, 81
2, 24791, Note_on_c, 0, 84, 0
2, 24795, Note_on_c, 0, 79, 0
2, 24795, Control_c, 0, 64, 56
2, 24798, Note_on_c, 0, 72, 0
2, 24798, Note_on_c, 0, 67, 0
2, 24798, Control_c, 0, 64, 127
2, 24799, Note_on_c, 0, 76, 0
2, 24800, Note_on_c, 0, 88, 0
2, 24801, Note_on_c, 0, 64, 0
2, 24803, Note_on_c, 0, 60, 0
2, 24872, Note_on_c, 0, 48, 87
2, 24872, Note_on_c, 0, 60, 93
2, 24876, Control_c, 0, 64, 24
2, 24880, Control_c, 0, 64, 0
2, 24888, Note_on_c, 0, 60, 0
2, 24893, Note_on_c, 0, 48, 0
2, 24893, Control_c, 0, 64, 72
2, 24896, Note_on_c, 0, 64, 94
2, 24897, Note_on_c, 0, 52, 76
2, 24897, Control_c, 0, 64, 127
2, 24917, Note_on_c, 0, 67, 86
2, 24918, Note_on_c, 0, 52, 0
2, 24918, Note_on_c, 0, 55, 70
2, 24924, Note_on_c, 0, 64, 0
2, 24934, Note_on_c, 0, 55, 0
2, 24935, Note_on_c, 0, 59, 71
2, 24941, Note_on_c, 0, 59, 0
2, 24941, Note_on_c, 0, 71, 75
2, 24945, Note_on_c, 0, 67, 0
2, 24951, Note_on_c, 0, 71, 0
2, 24965, Note_on_c, 0, 72, 100
2, 24966, Note_on_c, 0, 60, 60
2, 24976, Note_on_c, 0, 72, 0
2, 24978, Note_on_c, 0, 60, 0
2, 24986, Note_on_c, 0, 76, 100
2, 24990, Note_on_c, 0, 64, 63
2, 25003, Note_on_c, 0, 67, 65
2, 25006, Note_on_c, 0, 64, 0
2, 25006, Note_on_c, 0, 79, 92
2, 25018, Note_on_c, 0, 76, 0
2, 25023, Note_on_c, 0, 71, 66
2, 25027, Note_on_c, 0, 83, 90
2, 25029, Note_on_c, 0, 67, 0
2, 25031, Note_on_c, 0, 71, 0
2, 25034, Note_on_c, 0, 79, 0
2, 25038, Note_on_c, 0, 83, 0
2, 25051, Note_on_c, 0, 84, 117
2, 25052, Note_on_c, 0, 72, 86
2, 25075, Note_on_c, 0, 88, 94
2, 25083, Note_on_c, 0, 84, 0
2, 25096, Note_on_c, 0, 91, 96
2, 25101, Note_on_c, 0, 88, 0
2, 25108, Note_on_c, 0, 60, 80
2, 25113, Note_on_c, 0, 60, 0
2, 25120, Note_on_c, 0, 96, 102
2, 25122, Note_on_c, 0, 91, 0
2, 25122, Note_on_c, 0, 72, 0
2, 25133, Note_on_c, 0, 96, 0
2, 25141, Control_c, 0, 64, 72
2, 25145, Control_c, 0, 64, 0
2, 25148, Note_on_c, 0, 85, 105
2, 25148, Note_on_c, 0, 97, 113
2, 25153, Note_on_c, 0, 73, 92
2, 25153, Note_on_c, 0, 61, 86
2, 25161, Note_on_c, 0, 85, 0
2, 25161, Control_c, 0, 64, 56
2, 25165, Control_c, 0, 64, 127
2, 25166, Note_on_c, 0, 61, 0
2, 25166, Note_on_c, 0, 73, 0
2, 25168, Note_on_c, 0, 97, 0
2, 25226, Control_c, 0, 64, 72
2, 25228, Control_c, 0, 64, 0
2, 25241, Note_on_c, 0, 86, 106
2, 25242, Note_on_c, 0, 98, 117
2, 25245, Note_on_c, 0, 62, 94
2, 25245, Note_on_c, 0, 74, 106
2, 25256, Note_on_c, 0, 62, 0
2, 25256, Control_c, 0, 64, 127
2, 25259, Note_on_c, 0, 86, 0
2, 25261, Note_on_c, 0, 74, 0
2, 25263, Note_on_c, 0, 98, 0
2, 25307, Control_c, 0, 64, 88
2, 25310, Control_c, 0, 64, 0
2, 25340, Note_on_c, 0, 99, 113
2, 25340, Note_on_c, 0, 87, 103
2, 25342, Note_on_c, 0, 63, 85
2, 25342, Note_on_c, 0, 75, 101
2, 25343, Control_c, 0, 64, 88
2, 25347, Control_c, 0, 64, 127
2, 25352, Note_on_c, 0, 75, 0
2, 25353, Note_on_c, 0, 87, 0
2, 25355, Note_on_c, 0, 99, 0
2, 25357, Note_on_c, 0, 63, 0
2, 25425, Control_c, 0, 64, 72
2, 25428, Control_c, 0, 64, 0
2, 25433, Note_on_c, 0, 75, 85
2, 25433, Note_on_c, 0, 63, 75
2, 25440, Note_on_c, 0, 39, 68
2, 25440, Note_on_c, 0, 51, 74
2, 25446, Control_c, 0, 64, 56
2, 25450, Control_c, 0, 64, 127
2, 25453, Note_on_c, 0, 51, 0
2, 25454, Note_on_c, 0, 63, 0
2, 25455, Note_on_c, 0, 39, 0
2, 25456, Note_on_c, 0, 75, 0
2, 25498, Note_on_c, 0, 63, 79
2, 25498, Note_on_c, 0, 75, 81
2, 25500, Note_on_c, 0, 39, 67
2, 25501, Note_on_c, 0, 51, 64
2, 25505, Note_on_c, 0, 75, 0
2, 25506, Note_on_c, 0, 51, 0
2, 25508, Note_on_c, 0, 63, 0
2, 25512, Note_on_c, 0, 39, 0
2, 25523, Control_c, 0, 64, 72
2, 25526, Note_on_c, 0, 75, 100
2, 25526, Note_on_c, 0, 64, 89
2, 25527, Control_c, 0, 64, 0
2, 25530, Note_on_c, 0, 52, 83
2, 25531, Note_on_c, 0, 43, 78
2, 25540, Note_on_c, 0, 52, 0
2, 25543, Note_on_c, 0, 43, 0
2, 25545, Control_c, 0, 64, 72
2, 25546, Note_on_c, 0, 64, 0
2, 25547, Control_c, 0, 64, 127
2, 25558, Note_on_c, 0, 75, 0
2, 25618, Note_on_c, 0, 63, 81
2, 25620, Note_on_c, 0, 75, 80
2, 25621, Note_on_c, 0, 31, 65
2, 25622, Note_on_c, 0, 43, 67
2, 25627, Note_on_c, 0, 31, 0
2, 25632, Note_on_c, 0, 43, 0
2, 25633, Note_on_c, 0, 63, 0
2, 25636, Note_on_c, 0, 75, 0
2, 25687, Note_on_c, 0, 63, 86
2, 25688, Note_on_c, 0, 43, 80
2, 25688, Note_on_c, 0, 75, 89
2, 25690, Note_on_c, 0, 51, 84
2, 25698, Note_on_c, 0, 75, 0
2, 25698, Note_on_c, 0, 63, 0
2, 25701, Note_on_c, 0, 51, 0
2, 25703, Note_on_c, 0, 43, 0
2, 25707, Control_c, 0, 64, 40
2, 25710, Note_on_c, 0, 75, 87
2, 25710, Control_c, 0, 64, 0
2, 25712, Note_on_c, 0, 66, 98
2, 25718, Note_on_c, 0, 44, 75
2, 25720, Note_on_c, 0, 54, 82
2, 25731, Note_on_c, 0, 54, 0
2, 25733, Note_on_c, 0, 44, 0
2, 25733, Control_c, 0, 64, 104
2, 25737, Control_c, 0, 64, 127
2, 25765, Note_on_c, 0, 75, 0
2, 25784, Note_on_c, 0, 66, 0
2, 25798, Note_on_c, 0, 63, 80
2, 25800, Note_on_c, 0, 75, 88
2, 25800, Note_on_c, 0, 32, 75
2, 25801, Note_on_c, 0, 44, 52
2, 25809, Note_on_c, 0, 44, 0
2, 25810, Note_on_c, 0, 32, 0
2, 25811, Note_on_c, 0, 63, 0
2, 25821, Note_on_c, 0, 75, 0
2, 25865, Note_on_c, 0, 52, 86
2, 25865, Note_on_c, 0, 75, 95
2, 25865, Note_on_c, 0, 64, 89
2, 25866, Note_on_c, 0, 42, 80
2, 25873, Note_on_c, 0, 42, 0
2, 25875, Note_on_c, 0, 52, 0
2, 25876, Note_on_c, 0, 64, 0
2, 25876, Note_on_c, 0, 75, 0
2, 25883, Control_c, 0, 64, 72
2, 25886, Control_c, 0, 64, 0
2, 25888, Note_on_c, 0, 75, 92
2, 25890, Note_on_c, 0, 68, 96
2, 25893, Note_on_c, 0, 56, 84
2, 25905, Note_on_c, 0, 56, 0
2, 25906, Control_c, 0, 64, 40
2, 25910, Note_on_c, 0, 68, 0
2, 25910, Note_on_c, 0, 46, 54
2, 25910, Control_c, 0, 64, 127
2, 25915, Note_on_c, 0, 46, 0
2, 25916, Note_on_c, 0, 75, 0
2, 25943, Note_on_c, 0, 46, 32
2, 25948, Note_on_c, 0, 46, 0
2, 25977, Note_on_c, 0, 63, 88
2, 25977, Note_on_c, 0, 75, 93
2, 25980, Note_on_c, 0, 34, 82
2, 25980, Note_on_c, 0, 46, 89
2, 25990, Note_on_c, 0, 46, 0
2, 25990, Note_on_c, 0, 34, 0
2, 25992, Note_on_c, 0, 63, 0
2, 25998, Note_on_c, 0, 75, 0
2, 26041, Note_on_c, 0, 67, 95
2, 26041, Note_on_c, 0, 75, 87
2, 26041, Note_on_c, 0, 55, 84
2, 26042, Note_on_c, 0, 44, 57
2, 26046, Note_on_c, 0, 46, 41
2, 26048, Note_on_c, 0, 44, 0
2, 26048, Note_on_c, 0, 55, 0
2, 26051, Note_on_c, 0, 75, 0
2, 26052, Note_on_c, 0, 67, 0
2, 26052, Note_on_c, 0, 46, 0
2, 26056, Control_c, 0, 64, 104
2, 26060, Control_c, 0, 64, 24
2, 26062, Control_c, 0, 64, 0
2, 26065, Note_on_c, 0, 75, 96
2, 26066, Note_on_c, 0, 70, 96
2, 26068, Note_on_c, 0, 47, 84
2, 26068, Note_on_c, 0, 58, 81
2, 26081, Note_on_c, 0, 58, 0
2, 26084, Note_on_c, 0, 47, 0
2, 26087, Control_c, 0, 64, 127
2, 26089, Note_on_c, 0, 70, 0
2, 26091, Note_on_c, 0, 75, 0
2, 26152, Note_on_c, 0, 75, 96
2, 26153, Note_on_c, 0, 63, 95
2, 26153, Note_on_c, 0, 35, 82
2, 26155, Note_on_c, 0, 47, 90
2, 26158, Note_on_c, 0, 35, 0
2, 26167, Note_on_c, 0, 47, 0
2, 26168, Note_on_c, 0, 63, 0
2, 26174, Note_on_c, 0, 75, 0
2, 26218, Note_on_c, 0, 68, 86
2, 26220, Note_on_c, 0, 75, 88
2, 26221, Note_on_c, 0, 56, 84
2, 26221, Note_on_c, 0, 47, 80
2, 26232, Note_on_c, 0, 75, 0
2, 26233, Note_on_c, 0, 68, 0
2, 26233, Note_on_c, 0, 56, 0
2, 26233, Note_on_c, 0, 47, 0
2, 26238, Control_c, 0, 64, 104
2, 26242, Control_c, 0, 64, 24
2, 26243, Note_on_c, 0, 75, 95
2, 26245, Note_on_c, 0, 71, 103
2, 26246, Control_c, 0, 64, 0
2, 26250, Note_on_c, 0, 59, 94
2, 26251, Note_on_c, 0, 47, 86
2, 26262, Note_on_c, 0, 59, 0
2, 26266, Note_on_c, 0, 47, 0
2, 26266, Control_c, 0, 64, 88
2, 26270, Control_c, 0, 64, 127
2, 26293, Note_on_c, 0, 75, 0
2, 26312, Note_on_c, 0, 71, 0
2, 26333, Note_on_c, 0, 63, 97
2, 26335, Note_on_c, 0, 75, 99
2, 26335, Note_on_c, 0, 35, 77
2, 26336, Note_on_c, 0, 71, 81
2, 26336, Note_on_c, 0, 47, 86
2, 26340, Note_on_c, 0, 35, 0
2, 26341, Note_on_c, 0, 71, 0
2, 26348, Note_on_c, 0, 47, 0
2, 26348, Note_on_c, 0, 63, 0
2, 26358, Note_on_c, 0, 75, 0
2, 26397, Note_on_c, 0, 75, 102
2, 26398, Note_on_c, 0, 69, 96
2, 26401, Note_on_c, 0, 57, 89
2, 26401, Note_on_c, 0, 47, 81
2, 26409, Note_on_c, 0, 69, 0
2, 26412, Note_on_c, 0, 75, 0
2, 26412, Note_on_c, 0, 57, 0
2, 26412, Note_on_c, 0, 47, 0
2, 26428, Control_c, 0, 64, 40
2, 26432, Note_on_c, 0, 67, 97
2, 26432, Control_c, 0, 64, 0
2, 26433, Note_on_c, 0, 70, 97
2, 26433, Note_on_c, 0, 79, 115
2, 26435, Note_on_c, 0, 75, 83
2, 26437, Note_on_c, 0, 58, 94
2, 26442, Note_on_c, 0, 46, 85
2, 26460, Note_on_c, 0, 58, 0
2, 26460, Note_on_c, 0, 67, 0
2, 26460, Control_c, 0, 64, 127
2, 26465, Note_on_c, 0, 70, 0
2, 26467, Note_on_c, 0, 46, 0
2, 26471, Note_on_c, 0, 75, 0
2, 26473, Note_on_c, 0, 79, 0
2, 26526, Note_on_c, 0, 91, 113
2, 26526, Note_on_c, 0, 87, 101
2, 26527, Note_on_c, 0, 79, 107
2, 26527, Note_on_c, 0, 82, 95
2, 26531, Note_on_c, 0, 70, 96
2, 26532, Note_on_c, 0, 58, 78
2, 26533, Control_c, 0, 64, 104
2, 26537, Control_c, 0, 64, 24
2, 26541, Control_c, 0, 64, 0
2, 26543, Note_on_c, 0, 70, 0
2, 26545, Note_on_c, 0, 58, 0
2, 26547, Control_c, 0, 64, 56
2, 26551, Control_c, 0, 64, 127
2, 26567, Note_on_c, 0, 58, 79
2, 26567, Note_on_c, 0, 70, 91
2, 26579, Note_on_c, 0, 70, 0
2, 26580, Note_on_c, 0, 58, 0
2, 26603, Note_on_c, 0, 82, 0
2, 26607, Note_on_c, 0, 72, 92
2, 26610, Note_on_c, 0, 60, 74
2, 26617, Note_on_c, 0, 60, 0
2, 26619, Note_on_c, 0, 72, 0
2, 26626, Note_on_c, 0, 91, 0
2, 26629, Note_on_c, 0, 79, 0
2, 26642, Note_on_c, 0, 70, 95
2, 26643, Note_on_c, 0, 58, 85
2, 26654, Note_on_c, 0, 70, 0
2, 26655, Note_on_c, 0, 58, 0
2, 26664, Note_on_c, 0, 87, 0
2, 26683, Note_on_c, 0, 78, 96
2, 26685, Note_on_c, 0, 90, 96
2, 26685, Note_on_c, 0, 86, 93
2, 26686, Note_on_c, 0, 70, 95
2, 26687, Note_on_c, 0, 58, 89
2, 26698, Note_on_c, 0, 78, 0
2, 26699, Note_on_c, 0, 70, 0
2, 26699, Note_on_c, 0, 58, 0
2, 26705, Note_on_c, 0, 86, 0
2, 26711, Note_on_c, 0, 90, 0
2, 26723, Note_on_c, 0, 91, 106
2, 26725, Note_on_c, 0, 79, 102
2, 26725, Note_on_c, 0, 87, 94
2, 26727, Note_on_c, 0, 70, 93
2, 26727, Note_on_c, 0, 58, 87
2, 26736, Note_on_c, 0, 79, 0
2, 26739, Note_on_c, 0, 70, 0
2, 26740, Note_on_c, 0, 91, 0
2, 26742, Note_on_c, 0, 58, 0
2, 26748, Note_on_c, 0, 87, 0
2, 26761, Control_c, 0, 64, 104
2, 26765, Control_c, 0, 64, 0
2, 26771, Note_on_c, 0, 92, 113
2, 26771, Note_on_c, 0, 86, 106
2, 26772, Note_on_c, 0, 80, 100
2, 26772, Note_on_c, 0, 70, 92
2, 26775, Note_on_c, 0, 58, 83
2, 26785, Control_c, 0, 64, 40
2, 26788, Control_c, 0, 64, 127
2, 26789, Note_on_c, 0, 70, 0
2, 26797, Note_on_c, 0, 58, 0
2, 26800, Note_on_c, 0, 80, 0
2, 26802, Note_on_c, 0, 86, 0
2, 26807, Note_on_c, 0, 92, 0
2, 26828, Note_on_c, 0, 58, 65
2, 26838, Control_c, 0, 64, 72
2, 26841, Note_on_c, 0, 65, 75
2, 26842, Control_c, 0, 64, 0
2, 26846, Note_on_c, 0, 58, 0
2, 26846, Note_on_c, 0, 68, 72
2, 26856, Control_c, 0, 64, 56
2, 26860, Control_c, 0, 64, 127
2, 26861, Note_on_c, 0, 74, 94
2, 26862, Note_on_c, 0, 65, 0
2, 26863, Note_on_c, 0, 91, 106
2, 26865, Note_on_c, 0, 79, 106
2, 26866, Note_on_c, 0, 86, 92
2, 26868, Note_on_c, 0, 68, 0
2, 26871, Note_on_c, 0, 74, 0
2, 26878, Note_on_c, 0, 79, 0
2, 26878, Note_on_c, 0, 86, 0
2, 26880, Note_on_c, 0, 91, 0
2, 26927, Note_on_c, 0, 77, 100
2, 26928, Note_on_c, 0, 89, 82
2, 26934, Note_on_c, 0, 89, 0
2, 26938, Note_on_c, 0, 77, 0
2, 26948, Control_c, 0, 64, 72
2, 26951, Note_on_c, 0, 87, 87
2, 26951, Control_c, 0, 64, 0
2, 26952, Note_on_c, 0, 79, 109
2, 26952, Note_on_c, 0, 75, 96
2, 26952, Note_on_c, 0, 91, 107
2, 26953, Note_on_c, 0, 63, 81
2, 26955, Note_on_c, 0, 67, 80
2, 26964, Note_on_c, 0, 79, 0
2, 26965, Note_on_c, 0, 75, 0
2, 26967, Note_on_c, 0, 91, 0
2, 26969, Note_on_c, 0, 63, 0
2, 26970, Note_on_c, 0, 67, 0
2, 26971, Control_c, 0, 64, 127
2, 26972, Note_on_c, 0, 87, 0
2, 27046, Note_on_c, 0, 79, 109
2, 27046, Control_c, 0, 64, 88
2, 27047, Note_on_c, 0, 68, 96
2, 27050, Note_on_c, 0, 59, 91
2, 27050, Note_on_c, 0, 63, 83
2, 27050, Note_on_c, 0, 51, 85
2, 27050, Control_c, 0, 64, 0
2, 27073, Control_c, 0, 64, 88
2, 27076, Control_c, 0, 64, 127
2, 27093, Note_on_c, 0, 59, 0
2, 27094, Note_on_c, 0, 79, 0
2, 27113, Note_on_c, 0, 68, 0
2, 27118, Note_on_c, 0, 77, 94
2, 27135, Note_on_c, 0, 77, 0
2, 27143, Note_on_c, 0, 75, 105
2, 27145, Note_on_c, 0, 58, 77
2, 27145, Note_on_c, 0, 67, 95
2, 27145, Control_c, 0, 64, 40
2, 27147, Control_c, 0, 64, 0
2, 27158, Note_on_c, 0, 67, 0
2, 27160, Note_on_c, 0, 58, 0
2, 27161, Note_on_c, 0, 63, 0
2, 27163, Note_on_c, 0, 75, 0
2, 27163, Note_on_c, 0, 51, 0
2, 27165, Control_c, 0, 64, 104
2, 27167, Control_c, 0, 64, 127
2, 27242, Note_on_c, 0, 67, 106
2, 27243, Note_on_c, 0, 56, 90
2, 27245, Note_on_c, 0, 51, 90
2, 27246, Note_on_c, 0, 47, 93
2, 27246, Note_on_c, 0, 39, 77
2, 27246, Control_c, 0, 64, 40
2, 27250, Control_c, 0, 64, 0
2, 27270, Control_c, 0, 64, 56
2, 27273, Control_c, 0, 64, 127
2, 27288, Note_on_c, 0, 47, 0
2, 27289, Note_on_c, 0, 67, 0
2, 27308, Note_on_c, 0, 56, 0
2, 27323, Note_on_c, 0, 65, 87
2, 27338, Note_on_c, 0, 51, 0
2, 27340, Note_on_c, 0, 65, 0
2, 27350, Note_on_c, 0, 63, 103
2, 27351, Note_on_c, 0, 51, 91
2, 27351, Note_on_c, 0, 55, 89
2, 27353, Note_on_c, 0, 46, 83
2, 27355, Control_c, 0, 64, 24
2, 27358, Control_c, 0, 64, 0
2, 27369, Note_on_c, 0, 46, 0
2, 27369, Note_on_c, 0, 51, 0
2, 27374, Note_on_c, 0, 39, 0
2, 27378, Control_c, 0, 64, 104
2, 27381, Control_c, 0, 64, 127
2, 27460, Control_c, 0, 64, 0
2, 27463, Note_on_c, 0, 39, 100
2, 27463, Note_on_c, 0, 27, 88
2, 27475, Note_on_c, 0, 39, 0
2, 27476, Note_on_c, 0, 27, 0
2, 27480, Control_c, 0, 64, 56
2, 27483, Control_c, 0, 64, 127
2, 27549, Note_on_c, 0, 55, 0
2, 27581, Control_c, 0, 64, 72
2, 27585, Control_c, 0, 64, 0
2, 27606, Note_on_c, 0, 63, 0
2, 27611, Note_on_c, 0, 65, 106
2, 27615, Note_on_c, 0, 25, 84
2, 27615, Note_on_c, 0, 37, 92
2, 27628, Note_on_c, 0, 25, 0
2, 27628, Control_c, 0, 64, 127
2, 27631, Note_on_c, 0, 37, 69
2, 27631, Control_c, 0, 64, 72
2, 27632, Note_on_c, 0, 37, 0
2, 27635, Control_c, 0, 64, 127
2, 27656, Note_on_c, 0, 37, 0
2, 27715, Control_c, 0, 64, 72
2, 27718, Control_c, 0, 64, 40
2, 27723, Control_c, 0, 64, 0
2, 27725, Note_on_c, 0, 55, 72
2, 27725, Note_on_c, 0, 53, 67
2, 27733, Note_on_c, 0, 53, 0
2, 27735, Note_on_c, 0, 55, 0
2, 27755, Note_on_c, 0, 55, 63
2, 27756, Note_on_c, 0, 53, 80
2, 27764, Note_on_c, 0, 53, 0
2, 27770, Note_on_c, 0, 55, 0
2, 27792, Note_on_c, 0, 55, 70
2, 27793, Note_on_c, 0, 53, 84
2, 27801, Note_on_c, 0, 53, 0
2, 27808, Note_on_c, 0, 55, 0
2, 27829, Note_on_c, 0, 65, 0
2, 27878, Note_on_c, 0, 53, 75
2, 27881, Note_on_c, 0, 55, 65
2, 27888, Note_on_c, 0, 55, 0
2, 27890, Note_on_c, 0, 53, 0
2, 27963, Note_on_c, 0, 58, 85
2, 27966, Note_on_c, 0, 53, 65
2, 27970, Note_on_c, 0, 55, 73
2, 27986, Note_on_c, 0, 53, 0
2, 27987, Note_on_c, 0, 55, 0
2, 28056, Note_on_c, 0, 55, 77
2, 28056, Note_on_c, 0, 53, 78
2, 28056, Control_c, 0, 64, 40
2, 28060, Control_c, 0, 64, 88
2, 28065, Control_c, 0, 64, 127
2, 28072, Note_on_c, 0, 55, 0
2, 28073, Note_on_c, 0, 53, 0
2, 28085, Note_on_c, 0, 58, 0
2, 28126, Control_c, 0, 64, 88
2, 28130, Control_c, 0, 64, 40
2, 28133, Control_c, 0, 64, 0
2, 28150, Note_on_c, 0, 60, 104
2, 28157, Note_on_c, 0, 36, 70
2, 28157, Note_on_c, 0, 48, 72
2, 28175, Note_on_c, 0, 36, 0
2, 28185, Note_on_c, 0, 48, 0
2, 28192, Control_c, 0, 64, 72
2, 28196, Control_c, 0, 64, 127
2, 28212, Control_c, 0, 64, 104
2, 28217, Control_c, 0, 64, 56
2, 28221, Control_c, 0, 64, 0
2, 28246, Note_on_c, 0, 55, 70
2, 28247, Note_on_c, 0, 52, 68
2, 28250, Control_c, 0, 64, 40
2, 28253, Note_on_c, 0, 55, 0
2, 28254, Note_on_c, 0, 52, 0
2, 28262, Control_c, 0, 64, 0
2, 28273, Note_on_c, 0, 52, 75
2, 28276, Note_on_c, 0, 55, 78
2, 28288, Note_on_c, 0, 55, 0
2, 28288, Note_on_c, 0, 52, 0
2, 28305, Note_on_c, 0, 55, 84
2, 28306, Note_on_c, 0, 52, 84
2, 28317, Note_on_c, 0, 52, 0
2, 28320, Note_on_c, 0, 55, 0
2, 28353, Note_on_c, 0, 60, 0
2, 28398, Note_on_c, 0, 60, 99
2, 28402, Note_on_c, 0, 52, 76
2, 28402, Control_c, 0, 64, 40
2, 28403, Note_on_c, 0, 55, 70
2, 28406, Control_c, 0, 64, 72
2, 28409, Note_on_c, 0, 52, 0
2, 28410, Control_c, 0, 64, 127
2, 28411, Note_on_c, 0, 55, 0
2, 28439, Note_on_c, 0, 60, 0
2, 28446, Note_on_c, 0, 61, 95
2, 28469, Note_on_c, 0, 61, 0
2, 28471, Control_c, 0, 64, 24
2, 28476, Control_c, 0, 64, 0
2, 28488, Note_on_c, 0, 61, 82
2, 28492, Note_on_c, 0, 34, 70
2, 28492, Note_on_c, 0, 46, 72
2, 28497, Control_c, 0, 64, 88
2, 28501, Control_c, 0, 64, 127
2, 28507, Note_on_c, 0, 46, 0
2, 28509, Note_on_c, 0, 34, 0
2, 28510, Note_on_c, 0, 61, 0
2, 28511, Note_on_c, 0, 63, 78
2, 28530, Note_on_c, 0, 61, 76
2, 28536, Note_on_c, 0, 63, 0
2, 28550, Note_on_c, 0, 63, 76
2, 28551, Note_on_c, 0, 61, 0
2, 28557, Note_on_c, 0, 55, 74
2, 28563, Note_on_c, 0, 53, 69
2, 28569, Note_on_c, 0, 53, 0
2, 28570, Note_on_c, 0, 61, 75
2, 28572, Note_on_c, 0, 63, 0
2, 28573, Note_on_c, 0, 55, 0
2, 28587, Note_on_c, 0, 61, 0
2, 28590, Note_on_c, 0, 63, 77
2, 28606, Note_on_c, 0, 61, 77
2, 28612, Note_on_c, 0, 63, 0
2, 28625, Note_on_c, 0, 60, 87
2, 28632, Control_c, 0, 64, 88
2, 28636, Control_c, 0, 64, 0
2, 28638, Note_on_c, 0, 60, 0
2, 28641, Note_on_c, 0, 61, 87
2, 28656, Note_on_c, 0, 61, 0
2, 28657, Note_on_c, 0, 61, 0
2, 28668, Note_on_c, 0, 60, 107
2, 28675, Note_on_c, 0, 48, 83
2, 28676, Note_on_c, 0, 36, 74
2, 28692, Note_on_c, 0, 36, 0
2, 28703, Note_on_c, 0, 48, 0
2, 28758, Note_on_c, 0, 55, 72
2, 28761, Note_on_c, 0, 52, 63
2, 28768, Note_on_c, 0, 55, 0
2, 28769, Note_on_c, 0, 52, 0
2, 28793, Note_on_c, 0, 52, 68
2, 28793, Note_on_c, 0, 55, 74
2, 28800, Note_on_c, 0, 55, 0
2, 28801, Note_on_c, 0, 52, 0
2, 28832, Note_on_c, 0, 52, 76
2, 28833, Note_on_c, 0, 55, 78
2, 28842, Note_on_c, 0, 52, 0
2, 28844, Note_on_c, 0, 55, 0
2, 28895, Note_on_c, 0, 60, 0
2, 28908, Control_c, 0, 64, 40
2, 28911, Note_on_c, 0, 60, 97
2, 28912, Control_c, 0, 64, 72
2, 28915, Note_on_c, 0, 52, 76
2, 28916, Note_on_c, 0, 55, 67
2, 28916, Control_c, 0, 64, 104
2, 28921, Control_c, 0, 64, 127
2, 28922, Note_on_c, 0, 52, 0
2, 28923, Note_on_c, 0, 55, 0
2, 28949, Note_on_c, 0, 60, 0
2, 28953, Note_on_c, 0, 61, 95
2, 28974, Note_on_c, 0, 61, 0
2, 28978, Control_c, 0, 64, 104
2, 28982, Control_c, 0, 64, 24
2, 28986, Control_c, 0, 64, 0
2, 28992, Note_on_c, 0, 61, 79
2, 28998, Note_on_c, 0, 46, 74
2, 29000, Note_on_c, 0, 34, 67
2, 29007, Control_c, 0, 64, 72
2, 29011, Control_c, 0, 64, 127
2, 29014, Note_on_c, 0, 61, 0
2, 29015, Note_on_c, 0, 46, 0
2, 29018, Note_on_c, 0, 34, 0
2, 29020, Note_on_c, 0, 63, 83
2, 29038, Note_on_c, 0, 61, 81
2, 29040, Note_on_c, 0, 63, 0
2, 29055, Note_on_c, 0, 63, 71
2, 29056, Note_on_c, 0, 61, 0
2, 29071, Note_on_c, 0, 61, 71
2, 29072, Note_on_c, 0, 56, 79
2, 29073, Note_on_c, 0, 63, 0
2, 29078, Note_on_c, 0, 53, 65
2, 29089, Note_on_c, 0, 61, 0
2, 29092, Note_on_c, 0, 56, 0
2, 29092, Note_on_c, 0, 63, 74
2, 29101, Note_on_c, 0, 53, 0
2, 29112, Note_on_c, 0, 61, 83
2, 29120, Note_on_c, 0, 63, 0
2, 29134, Note_on_c, 0, 61, 0
2, 29135, Note_on_c, 0, 60, 84
2, 29147, Control_c, 0, 64, 104
2, 29151, Control_c, 0, 64, 24
2, 29156, Note_on_c, 0, 61, 86
2, 29156, Control_c, 0, 64, 0
2, 29158, Note_on_c, 0, 60, 0
2, 29179, Note_on_c, 0, 61, 0
2, 29183, Note_on_c, 0, 60, 100
2, 29190, Note_on_c, 0, 36, 76
2, 29191, Note_on_c, 0, 48, 86
2, 29200, Note_on_c, 0, 36, 0
2, 29208, Control_c, 0, 64, 127
2, 29209, Note_on_c, 0, 48, 0
2, 29259, Note_on_c, 0, 60, 0
2, 29280, Note_on_c, 0, 62, 92
2, 29281, Note_on_c, 0, 58, 60
2, 29281, Note_on_c, 0, 60, 64
2, 29282, Note_on_c, 0, 55, 65
2, 29289, Note_on_c, 0, 55, 0
2, 29289, Note_on_c, 0, 60, 0
2, 29289, Note_on_c, 0, 58, 0
2, 29295, Control_c, 0, 64, 88
2, 29300, Control_c, 0, 64, 0
2, 29302, Note_on_c, 0, 62, 0
2, 29312, Note_on_c, 0, 64, 98
2, 29313, Note_on_c, 0, 58, 66
2, 29316, Note_on_c, 0, 55, 70
2, 29316, Note_on_c, 0, 60, 78
2, 29323, Note_on_c, 0, 60, 0
2, 29323, Note_on_c, 0, 55, 0
2, 29324, Note_on_c, 0, 58, 0
2, 29329, Note_on_c, 0, 64, 0
2, 29342, Note_on_c, 0, 65, 100
2, 29347, Note_on_c, 0, 58, 75
2, 29347, Note_on_c, 0, 55, 74
2, 29348, Note_on_c, 0, 60, 84
2, 29354, Note_on_c, 0, 55, 0
2, 29355, Note_on_c, 0, 60, 0
2, 29358, Note_on_c, 0, 58, 0
2, 29441, Note_on_c, 0, 67, 102
2, 29442, Note_on_c, 0, 60, 78
2, 29443, Note_on_c, 0, 65, 0
2, 29443, Note_on_c, 0, 55, 76
2, 29443, Note_on_c, 0, 58, 60
2, 29452, Control_c, 0, 64, 24
2, 29454, Note_on_c, 0, 60, 0
2, 29455, Note_on_c, 0, 55, 0
2, 29456, Note_on_c, 0, 58, 0
2, 29456, Control_c, 0, 64, 72
2, 29460, Control_c, 0, 64, 127
2, 29522, Control_c, 0, 64, 40
2, 29524, Note_on_c, 0, 67, 0
2, 29526, Control_c, 0, 64, 0
2, 29532, Note_on_c, 0, 70, 89
2, 29536, Note_on_c, 0, 41, 72
2, 29537, Note_on_c, 0, 53, 76
2, 29553, Note_on_c, 0, 41, 0
2, 29558, Control_c, 0, 64, 88
2, 29559, Note_on_c, 0, 53, 0
2, 29563, Control_c, 0, 64, 127
2, 29574, Note_on_c, 0, 70, 0
2, 29583, Note_on_c, 0, 68, 88
2, 29609, Note_on_c, 0, 68, 0
2, 29622, Note_on_c, 0, 67, 97
2, 29622, Note_on_c, 0, 56, 70
2, 29623, Note_on_c, 0, 60, 74
2, 29630, Note_on_c, 0, 60, 0
2, 29638, Note_on_c, 0, 56, 0
2, 29643, Note_on_c, 0, 67, 0
2, 29655, Note_on_c, 0, 65, 99
2, 29671, Note_on_c, 0, 65, 0
2, 29686, Note_on_c, 0, 65, 91
2, 29698, Control_c, 0, 64, 72
2, 29702, Control_c, 0, 64, 0
2, 29720, Note_on_c, 0, 49, 61
2, 29723, Note_on_c, 0, 37, 55
2, 29748, Note_on_c, 0, 77, 115
2, 29755, Note_on_c, 0, 37, 0
2, 29761, Note_on_c, 0, 49, 0
2, 29765, Control_c, 0, 64, 127
2, 29767, Note_on_c, 0, 65, 0
2, 29838, Note_on_c, 0, 65, 75
2, 29838, Note_on_c, 0, 58, 65
2, 29842, Note_on_c, 0, 55, 68
2, 29849, Note_on_c, 0, 55, 0
2, 29851, Note_on_c, 0, 65, 0
2, 29853, Note_on_c, 0, 58, 0
2, 29872, Note_on_c, 0, 65, 75
2, 29872, Note_on_c, 0, 55, 69
2, 29873, Note_on_c, 0, 58, 69
2, 29883, Note_on_c, 0, 55, 0
2, 29885, Note_on_c, 0, 58, 0
2, 29885, Note_on_c, 0, 65, 0
2, 29905, Note_on_c, 0, 58, 70
2, 29907, Note_on_c, 0, 65, 69
2, 29910, Note_on_c, 0, 55, 73
2, 29922, Note_on_c, 0, 55, 0
2, 29922, Note_on_c, 0, 65, 0
2, 29923, Note_on_c, 0, 58, 0
2, 29984, Note_on_c, 0, 77, 0
2, 29987, Note_on_c, 0, 58, 77
2, 29988, Note_on_c, 0, 65, 78
2, 29995, Note_on_c, 0, 55, 69
2, 30003, Note_on_c, 0, 65, 0
2, 30004, Note_on_c, 0, 58, 0
2, 30008, Note_on_c, 0, 55, 0
2, 30070, Note_on_c, 0, 70, 97
2, 30071, Note_on_c, 0, 58, 71
2, 30077, Note_on_c, 0, 55, 67
2, 30080, Note_on_c, 0, 65, 73
2, 30100, Note_on_c, 0, 55, 0
2, 30102, Note_on_c, 0, 65, 0
2, 30127, Note_on_c, 0, 58, 0
2, 30161, Note_on_c, 0, 65, 78
2, 30163, Note_on_c, 0, 55, 72
2, 30173, Note_on_c, 0, 65, 0
2, 30176, Note_on_c, 0, 55, 0
2, 30190, Note_on_c, 0, 70, 0
2, 30237, Control_c, 0, 64, 72
2, 30242, Control_c, 0, 64, 0
2, 30250, Note_on_c, 0, 72, 109
2, 30251, Note_on_c, 0, 60, 94
2, 30257, Note_on_c, 0, 36, 76
2, 30257, Note_on_c, 0, 48, 84
2, 30270, Note_on_c, 0, 36, 0
2, 30278, Note_on_c, 0, 48, 0
2, 30283, Control_c, 0, 64, 127
2, 30294, Note_on_c, 0, 60, 0
2, 30340, Note_on_c, 0, 64, 68
2, 30342, Note_on_c, 0, 55, 63
2, 30348, Note_on_c, 0, 64, 0
2, 30349, Note_on_c, 0, 55, 0
2, 30373, Note_on_c, 0, 55, 72
2, 30375, Note_on_c, 0, 64, 77
2, 30383, Note_on_c, 0, 55, 0
2, 30385, Note_on_c, 0, 64, 0
2, 30412, Note_on_c, 0, 72, 0
2, 30413, Note_on_c, 0, 64, 75
2, 30415, Note_on_c, 0, 55, 73
2, 30425, Note_on_c, 0, 55, 0
2, 30435, Note_on_c, 0, 64, 0
2, 30492, Note_on_c, 0, 72, 97
2, 30492, Note_on_c, 0, 64, 76
2, 30496, Note_on_c, 0, 55, 72
2, 30500, Note_on_c, 0, 64, 0
2, 30507, Note_on_c, 0, 55, 0
2, 30529, Note_on_c, 0, 72, 0
2, 30545, Note_on_c, 0, 73, 92
2, 30565, Control_c, 0, 64, 88
2, 30567, Control_c, 0, 64, 56
2, 30568, Note_on_c, 0, 73, 0
2, 30570, Control_c, 0, 64, 0
2, 30573, Note_on_c, 0, 61, 90
2, 30576, Note_on_c, 0, 61, 89
2, 30582, Note_on_c, 0, 34, 60
2, 30582, Note_on_c, 0, 46, 59
2, 30583, Control_c, 0, 64, 24
2, 30586, Control_c, 0, 64, 72
2, 30590, Note_on_c, 0, 34, 0
2, 30590, Control_c, 0, 64, 127
2, 30592, Note_on_c, 0, 46, 0
2, 30592, Note_on_c, 0, 61, 0
2, 30600, Note_on_c, 0, 61, 0
2, 30602, Note_on_c, 0, 73, 84
2, 30618, Note_on_c, 0, 73, 0
2, 30623, Note_on_c, 0, 75, 89
2, 30641, Note_on_c, 0, 75, 0
2, 30643, Note_on_c, 0, 73, 95
2, 30661, Note_on_c, 0, 73, 0
2, 30667, Note_on_c, 0, 75, 84
2, 30673, Note_on_c, 0, 65, 72
2, 30673, Note_on_c, 0, 56, 65
2, 30676, Note_on_c, 0, 53, 63
2, 30682, Note_on_c, 0, 53, 0
2, 30683, Note_on_c, 0, 65, 0
2, 30684, Note_on_c, 0, 56, 0
2, 30690, Note_on_c, 0, 73, 87
2, 30692, Note_on_c, 0, 75, 0
2, 30711, Note_on_c, 0, 73, 0
2, 30712, Note_on_c, 0, 72, 98
2, 30733, Note_on_c, 0, 72, 0
2, 30733, Note_on_c, 0, 73, 95
2, 30743, Control_c, 0, 64, 88
2, 30746, Control_c, 0, 64, 56
2, 30748, Control_c, 0, 64, 0
2, 30749, Note_on_c, 0, 73, 0
2, 30762, Note_on_c, 0, 72, 106
2, 30762, Note_on_c, 0, 60, 91
2, 30768, Note_on_c, 0, 36, 73
2, 30768, Note_on_c, 0, 48, 80
2, 30776, Note_on_c, 0, 36, 0
2, 30776, Control_c, 0, 64, 56
2, 30778, Control_c, 0, 64, 127
2, 30779, Note_on_c, 0, 60, 0
2, 30781, Note_on_c, 0, 48, 0
2, 30850, Control_c, 0, 64, 88
2, 30852, Note_on_c, 0, 64, 68
2, 30852, Control_c, 0, 64, 56
2, 30853, Note_on_c, 0, 55, 67
2, 30855, Control_c, 0, 64, 24
2, 30857, Control_c, 0, 64, 0
2, 30865, Note_on_c, 0, 64, 0
2, 30866, Note_on_c, 0, 55, 0
2, 30887, Note_on_c, 0, 64, 77
2, 30890, Note_on_c, 0, 55, 74
2, 30899, Note_on_c, 0, 64, 0
2, 30901, Note_on_c, 0, 55, 0
2, 30928, Note_on_c, 0, 64, 87
2, 30931, Note_on_c, 0, 55, 78
2, 30939, Note_on_c, 0, 64, 0
2, 30944, Note_on_c, 0, 55, 0
2, 30979, Note_on_c, 0, 72, 0
2, 31012, Control_c, 0, 64, 40
2, 31013, Note_on_c, 0, 72, 103
2, 31015, Note_on_c, 0, 64, 74
2, 31015, Control_c, 0, 64, 88
2, 31016, Note_on_c, 0, 55, 72
2, 31017, Control_c, 0, 64, 127
2, 31022, Note_on_c, 0, 64, 0
2, 31026, Note_on_c, 0, 55, 0
2, 31054, Note_on_c, 0, 72, 0
2, 31075, Note_on_c, 0, 73, 85
2, 31092, Control_c, 0, 64, 104
2, 31095, Control_c, 0, 64, 56
2, 31096, Note_on_c, 0, 73, 0
2, 31097, Control_c, 0, 64, 0
2, 31100, Note_on_c, 0, 61, 90
2, 31102, Note_on_c, 0, 34, 66
2, 31102, Note_on_c, 0, 46, 70
2, 31107, Control_c, 0, 64, 24
2, 31110, Control_c, 0, 64, 88
2, 31112, Note_on_c, 0, 46, 0
2, 31112, Note_on_c, 0, 34, 0
2, 31112, Note_on_c, 0, 61, 0
2, 31113, Control_c, 0, 64, 127
2, 31125, Note_on_c, 0, 73, 89
2, 31140, Note_on_c, 0, 73, 0
2, 31146, Note_on_c, 0, 75, 94
2, 31167, Note_on_c, 0, 75, 0
2, 31167, Note_on_c, 0, 73, 93
2, 31184, Note_on_c, 0, 73, 0
2, 31191, Note_on_c, 0, 75, 95
2, 31193, Note_on_c, 0, 65, 70
2, 31193, Note_on_c, 0, 56, 56
2, 31195, Note_on_c, 0, 53, 64
2, 31203, Note_on_c, 0, 65, 0
2, 31209, Note_on_c, 0, 56, 0
2, 31210, Note_on_c, 0, 53, 0
2, 31213, Note_on_c, 0, 73, 92
2, 31214, Note_on_c, 0, 75, 0
2, 31234, Note_on_c, 0, 73, 0
2, 31235, Note_on_c, 0, 72, 102
2, 31255, Note_on_c, 0, 73, 93
2, 31255, Control_c, 0, 64, 104
2, 31257, Note_on_c, 0, 72, 0
2, 31257, Control_c, 0, 64, 72
2, 31260, Control_c, 0, 64, 40
2, 31262, Control_c, 0, 64, 0
2, 31275, Note_on_c, 0, 73, 0
2, 31280, Note_on_c, 0, 46, 70
2, 31280, Note_on_c, 0, 74, 100
2, 31280, Note_on_c, 0, 34, 66
2, 31286, Control_c, 0, 64, 72
2, 31290, Control_c, 0, 64, 127
2, 31292, Note_on_c, 0, 34, 0
2, 31295, Note_on_c, 0, 46, 0
2, 31303, Note_on_c, 0, 74, 0
2, 31305, Note_on_c, 0, 75, 94
2, 31323, Note_on_c, 0, 75, 0
2, 31328, Note_on_c, 0, 74, 93
2, 31350, Note_on_c, 0, 74, 0
2, 31352, Note_on_c, 0, 75, 96
2, 31374, Note_on_c, 0, 75, 0
2, 31377, Note_on_c, 0, 74, 97
2, 31382, Note_on_c, 0, 68, 77
2, 31386, Note_on_c, 0, 62, 73
2, 31386, Note_on_c, 0, 58, 57
2, 31387, Note_on_c, 0, 56, 52
2, 31393, Note_on_c, 0, 56, 0
2, 31400, Note_on_c, 0, 74, 0
2, 31402, Note_on_c, 0, 75, 98
2, 31406, Note_on_c, 0, 62, 0
2, 31407, Note_on_c, 0, 68, 0
2, 31411, Note_on_c, 0, 56, 16
2, 31422, Note_on_c, 0, 75, 0
2, 31422, Note_on_c, 0, 74, 103
2, 31426, Note_on_c, 0, 58, 0
2, 31427, Note_on_c, 0, 56, 0
2, 31440, Note_on_c, 0, 75, 92
2, 31442, Note_on_c, 0, 74, 0
2, 31460, Note_on_c, 0, 75, 0
2, 31460, Note_on_c, 0, 74, 95
2, 31476, Note_on_c, 0, 73, 89
2, 31480, Note_on_c, 0, 74, 0
2, 31493, Control_c, 0, 64, 72
2, 31496, Note_on_c, 0, 73, 0
2, 31497, Note_on_c, 0, 74, 104
2, 31497, Control_c, 0, 64, 24
2, 31500, Control_c, 0, 64, 0
2, 31512, Note_on_c, 0, 39, 82
2, 31512, Note_on_c, 0, 27, 81
2, 31515, Control_c, 0, 64, 40
2, 31517, Control_c, 0, 64, 127
2, 31522, Note_on_c, 0, 75, 103
2, 31527, Note_on_c, 0, 74, 0
2, 31539, Note_on_c, 0, 39, 0
2, 31539, Note_on_c, 0, 27, 0
2, 31544, Note_on_c, 0, 75, 0
2, 31545, Note_on_c, 0, 77, 93
2, 31563, Note_on_c, 0, 75, 92
2, 31565, Note_on_c, 0, 77, 0
2, 31581, Note_on_c, 0, 75, 0
2, 31581, Note_on_c, 0, 77, 93
2, 31602, Note_on_c, 0, 77, 0
2, 31603, Note_on_c, 0, 75, 90
2, 31613, Note_on_c, 0, 63, 79
2, 31616, Note_on_c, 0, 55, 65
2, 31616, Note_on_c, 0, 58, 70
2, 31616, Note_on_c, 0, 61, 73
2, 31623, Note_on_c, 0, 75, 0
2, 31623, Note_on_c, 0, 77, 90
2, 31629, Note_on_c, 0, 55, 0
2, 31632, Note_on_c, 0, 58, 0
2, 31634, Note_on_c, 0, 63, 0
2, 31634, Note_on_c, 0, 61, 0
2, 31641, Note_on_c, 0, 77, 0
2, 31641, Note_on_c, 0, 75, 90
2, 31657, Note_on_c, 0, 77, 90
2, 31658, Note_on_c, 0, 75, 0
2, 31675, Note_on_c, 0, 77, 0
2, 31675, Note_on_c, 0, 75, 92
2, 31691, Note_on_c, 0, 77, 90
2, 31695, Note_on_c, 0, 75, 0
2, 31710, Note_on_c, 0, 67, 73
2, 31710, Note_on_c, 0, 63, 71
2, 31710, Note_on_c, 0, 75, 88
2, 31711, Note_on_c, 0, 58, 70
2, 31712, Note_on_c, 0, 77, 0
2, 31712, Note_on_c, 0, 61, 74
2, 31727, Note_on_c, 0, 77, 90
2, 31728, Note_on_c, 0, 75, 0
2, 31728, Note_on_c, 0, 63, 0
2, 31734, Note_on_c, 0, 58, 0
2, 31734, Note_on_c, 0, 61, 0
2, 31736, Note_on_c, 0, 67, 0
2, 31750, Note_on_c, 0, 77, 0
2, 31751, Note_on_c, 0, 75, 89
2, 31765, Note_on_c, 0, 77, 90
2, 31768, Note_on_c, 0, 75, 0
2, 31781, Note_on_c, 0, 75, 89
2, 31787, Note_on_c, 0, 77, 0
2, 31804, Note_on_c, 0, 75, 0
2, 31805, Note_on_c, 0, 74, 88
2, 31813, Note_on_c, 0, 70, 72
2, 31816, Note_on_c, 0, 67, 73
2, 31816, Note_on_c, 0, 61, 72
2, 31818, Note_on_c, 0, 63, 73
2, 31823, Note_on_c, 0, 75, 89
2, 31830, Note_on_c, 0, 74, 0
2, 31845, Note_on_c, 0, 75, 0
2, 31850, Note_on_c, 0, 77, 90
2, 31870, Note_on_c, 0, 79, 93
2, 31875, Note_on_c, 0, 77, 0
2, 31878, Note_on_c, 0, 70, 0
2, 31878, Note_on_c, 0, 67, 0
2, 31881, Note_on_c, 0, 63, 0
2, 31884, Note_on_c, 0, 61, 0
2, 31888, Note_on_c, 0, 80, 94
2, 31896, Note_on_c, 0, 79, 0
2, 31910, Note_on_c, 0, 82, 97
2, 31916, Note_on_c, 0, 80, 0
2, 31920, Note_on_c, 0, 82, 0
2, 31927, Note_on_c, 0, 84, 97
2, 31944, Note_on_c, 0, 84, 0
2, 31950, Note_on_c, 0, 85, 98
2, 31968, Note_on_c, 0, 85, 0
2, 31972, Note_on_c, 0, 87, 101
2, 31990, Control_c, 0, 64, 88
2, 31992, Control_c, 0, 64, 24
2, 31995, Note_on_c, 0, 87, 0
2, 31995, Control_c, 0, 64, 0
2, 32002, Note_on_c, 0, 89, 113
2, 32002, Note_on_c, 0, 85, 97
2, 32003, Note_on_c, 0, 77, 110
2, 32005, Note_on_c, 0, 44, 110
2, 32005, Note_on_c, 0, 32, 85
2, 32013, Note_on_c, 0, 32, 0
2, 32016, Note_on_c, 0, 44, 0
2, 32020, Control_c, 0, 64, 127
2, 32033, Note_on_c, 0, 89, 0
2, 32040, Note_on_c, 0, 77, 0
2, 32043, Note_on_c, 0, 85, 0
2, 32090, Note_on_c, 0, 60, 85
2, 32091, Note_on_c, 0, 63, 86
2, 32091, Note_on_c, 0, 51, 73
2, 32099, Note_on_c, 0, 51, 0
2, 32102, Note_on_c, 0, 60, 0
2, 32106, Note_on_c, 0, 63, 0
2, 32123, Note_on_c, 0, 87, 97
2, 32125, Note_on_c, 0, 75, 95
2, 32126, Note_on_c, 0, 84, 89
2, 32138, Note_on_c, 0, 75, 0
2, 32140, Note_on_c, 0, 87, 0
2, 32142, Note_on_c, 0, 84, 0
2, 32151, Control_c, 0, 64, 104
2, 32152, Note_on_c, 0, 87, 95
2, 32153, Note_on_c, 0, 75, 95
2, 32155, Note_on_c, 0, 84, 96
2, 32155, Control_c, 0, 64, 24
2, 32156, Note_on_c, 0, 68, 95
2, 32158, Note_on_c, 0, 56, 71
2, 32158, Note_on_c, 0, 60, 80
2, 32158, Control_c, 0, 64, 0
2, 32166, Note_on_c, 0, 84, 0
2, 32166, Control_c, 0, 64, 88
2, 32167, Note_on_c, 0, 68, 0
2, 32168, Note_on_c, 0, 87, 0
2, 32168, Note_on_c, 0, 60, 0
2, 32169, Note_on_c, 0, 75, 0
2, 32170, Control_c, 0, 64, 127
2, 32171, Note_on_c, 0, 56, 0
2, 32213, Note_on_c, 0, 63, 90
2, 32228, Note_on_c, 0, 63, 0
2, 32231, Note_on_c, 0, 51, 103
2, 32231, Note_on_c, 0, 63, 95
2, 32232, Note_on_c, 0, 39, 91
2, 32237, Control_c, 0, 64, 56
2, 32241, Control_c, 0, 64, 0
2, 32242, Note_on_c, 0, 51, 0
2, 32243, Note_on_c, 0, 39, 0
2, 32247, Note_on_c, 0, 63, 0
2, 32251, Note_on_c, 0, 65, 91
2, 32252, Control_c, 0, 64, 40
2, 32256, Control_c, 0, 64, 104
2, 32260, Control_c, 0, 64, 127
2, 32266, Note_on_c, 0, 63, 91
2, 32272, Note_on_c, 0, 65, 0
2, 32278, Note_on_c, 0, 63, 0
2, 32278, Note_on_c, 0, 62, 90
2, 32291, Note_on_c, 0, 63, 86
2, 32293, Note_on_c, 0, 62, 0
2, 32297, Control_c, 0, 64, 88
2, 32301, Control_c, 0, 64, 0
2, 32305, Note_on_c, 0, 68, 87
2, 32307, Note_on_c, 0, 56, 92
2, 32308, Note_on_c, 0, 44, 79
2, 32309, Note_on_c, 0, 63, 0
2, 32316, Control_c, 0, 64, 72
2, 32317, Note_on_c, 0, 56, 0
2, 32318, Note_on_c, 0, 68, 0
2, 32320, Control_c, 0, 64, 127
2, 32324, Note_on_c, 0, 44, 0
2, 32361, Control_c, 0, 64, 0
2, 32378, Note_on_c, 0, 84, 103
2, 32378, Note_on_c, 0, 80, 92
2, 32378, Note_on_c, 0, 72, 97
2, 32381, Note_on_c, 0, 27, 75
2, 32381, Note_on_c, 0, 39, 87
2, 32383, Control_c, 0, 64, 104
2, 32384, Note_on_c, 0, 72, 0
2, 32387, Control_c, 0, 64, 127
2, 32388, Note_on_c, 0, 84, 0
2, 32392, Note_on_c, 0, 39, 0
2, 32392, Note_on_c, 0, 27, 0
2, 32394, Note_on_c, 0, 80, 0
2, 32411, Note_on_c, 0, 85, 112
2, 32411, Note_on_c, 0, 73, 94
2, 32416, Note_on_c, 0, 82, 50
2, 32422, Note_on_c, 0, 82, 0
2, 32422, Note_on_c, 0, 73, 0
2, 32426, Note_on_c, 0, 85, 0
2, 32440, Control_c, 0, 64, 0
2, 32450, Note_on_c, 0, 85, 87
2, 32451, Note_on_c, 0, 89, 112
2, 32451, Note_on_c, 0, 77, 100
2, 32451, Note_on_c, 0, 44, 101
2, 32453, Note_on_c, 0, 32, 74
2, 32456, Note_on_c, 0, 85, 0
2, 32458, Control_c, 0, 64, 56
2, 32459, Note_on_c, 0, 32, 0
2, 32462, Control_c, 0, 64, 127
2, 32463, Note_on_c, 0, 44, 0
2, 32467, Note_on_c, 0, 89, 0
2, 32469, Note_on_c, 0, 77, 0
2, 32508, Note_on_c, 0, 84, 84
2, 32508, Note_on_c, 0, 75, 79
2, 32508, Note_on_c, 0, 87, 79
2, 32513, Note_on_c, 0, 87, 0
2, 32513, Note_on_c, 0, 84, 0
2, 32514, Note_on_c, 0, 75, 0
2, 32522, Control_c, 0, 64, 88
2, 32525, Note_on_c, 0, 87, 85
2, 32526, Note_on_c, 0, 60, 88
2, 32526, Note_on_c, 0, 63, 86
2, 32526, Note_on_c, 0, 75, 87
2, 32526, Control_c, 0, 64, 0
2, 32527, Note_on_c, 0, 84, 88
2, 32527, Note_on_c, 0, 51, 82
2, 32532, Note_on_c, 0, 60, 0
2, 32533, Note_on_c, 0, 84, 0
2, 32534, Note_on_c, 0, 51, 0
2, 32537, Control_c, 0, 64, 56
2, 32538, Note_on_c, 0, 63, 0
2, 32538, Note_on_c, 0, 75, 0
2, 32541, Control_c, 0, 64, 104
2, 32545, Note_on_c, 0, 87, 0
2, 32545, Control_c, 0, 64, 127
2, 32560, Note_on_c, 0, 86, 98
2, 32562, Note_on_c, 0, 83, 95
2, 32562, Note_on_c, 0, 74, 92
2, 32569, Note_on_c, 0, 74, 0
2, 32572, Note_on_c, 0, 86, 0
2, 32578, Note_on_c, 0, 83, 0
2, 32578, Control_c, 0, 64, 72
2, 32582, Control_c, 0, 64, 0
2, 32595, Note_on_c, 0, 87, 101
2, 32597, Note_on_c, 0, 75, 103
2, 32597, Note_on_c, 0, 84, 95
2, 32598, Note_on_c, 0, 68, 95
2, 32601, Note_on_c, 0, 60, 79
2, 32601, Note_on_c, 0, 56, 74
2, 32605, Control_c, 0, 64, 127
2, 32607, Note_on_c, 0, 60, 0
2, 32609, Note_on_c, 0, 68, 0
2, 32609, Note_on_c, 0, 84, 0
2, 32611, Note_on_c, 0, 87, 0
2, 32613, Note_on_c, 0, 75, 0
2, 32614, Note_on_c, 0, 56, 0
2, 32650, Note_on_c, 0, 63, 83
2, 32657, Note_on_c, 0, 63, 0
2, 32672, Note_on_c, 0, 51, 100
2, 32673, Note_on_c, 0, 39, 85
2, 32675, Note_on_c, 0, 63, 91
2, 32675, Control_c, 0, 64, 88
2, 32680, Note_on_c, 0, 39, 0
2, 32680, Control_c, 0, 64, 0
2, 32684, Note_on_c, 0, 51, 0
2, 32691, Control_c, 0, 64, 56
2, 32692, Note_on_c, 0, 63, 0
2, 32692, Note_on_c, 0, 65, 92
2, 32693, Control_c, 0, 64, 127
2, 32703, Note_on_c, 0, 63, 92
2, 32710, Note_on_c, 0, 65, 0
2, 32715, Note_on_c, 0, 62, 90
2, 32718, Note_on_c, 0, 63, 0
2, 32730, Note_on_c, 0, 63, 91
2, 32733, Note_on_c, 0, 62, 0
2, 32740, Control_c, 0, 64, 104
2, 32743, Control_c, 0, 64, 0
2, 32746, Note_on_c, 0, 68, 93
2, 32748, Note_on_c, 0, 56, 91
2, 32750, Note_on_c, 0, 63, 0
2, 32750, Note_on_c, 0, 44, 75
2, 32755, Control_c, 0, 64, 40
2, 32758, Note_on_c, 0, 68, 0
2, 32758, Control_c, 0, 64, 104
2, 32759, Note_on_c, 0, 56, 0
2, 32762, Control_c, 0, 64, 127
2, 32765, Note_on_c, 0, 44, 0
2, 32803, Control_c, 0, 64, 104
2, 32808, Control_c, 0, 64, 0
2, 32817, Note_on_c, 0, 84, 94
2, 32817, Note_on_c, 0, 80, 86
2, 32817, Note_on_c, 0, 72, 90
2, 32821, Note_on_c, 0, 39, 83
2, 32823, Note_on_c, 0, 27, 67
2, 32823, Control_c, 0, 64, 56
2, 32824, Note_on_c, 0, 72, 0
2, 32827, Control_c, 0, 64, 127
2, 32829, Note_on_c, 0, 27, 0
2, 32829, Note_on_c, 0, 84, 0
2, 32832, Note_on_c, 0, 39, 0
2, 32833, Note_on_c, 0, 80, 0
2, 32853, Note_on_c, 0, 85, 105
2, 32853, Note_on_c, 0, 73, 97
2, 32856, Note_on_c, 0, 82, 79
2, 32862, Note_on_c, 0, 82, 0
2, 32863, Note_on_c, 0, 73, 0
2, 32868, Note_on_c, 0, 85, 0
2, 32882, Control_c, 0, 64, 56
2, 32886, Control_c, 0, 64, 0
2, 32891, Note_on_c, 0, 89, 107
2, 32891, Note_on_c, 0, 44, 89
2, 32891, Note_on_c, 0, 85, 87
2, 32892, Note_on_c, 0, 77, 96
2, 32895, Note_on_c, 0, 32, 68
2, 32898, Control_c, 0, 64, 56
2, 32900, Note_on_c, 0, 32, 0
2, 32902, Control_c, 0, 64, 127
2, 32903, Note_on_c, 0, 44, 0
2, 32903, Note_on_c, 0, 77, 0
2, 32906, Note_on_c, 0, 89, 0
2, 32908, Note_on_c, 0, 85, 0
2, 32927, Note_on_c, 0, 87, 94
2, 32928, Note_on_c, 0, 75, 87
2, 32930, Note_on_c, 0, 84, 84
2, 32943, Note_on_c, 0, 75, 0
2, 32949, Note_on_c, 0, 87, 0
2, 32950, Note_on_c, 0, 84, 0
2, 32950, Control_c, 0, 64, 88
2, 32953, Control_c, 0, 64, 0
2, 32961, Note_on_c, 0, 89, 102
2, 32962, Note_on_c, 0, 87, 68
2, 32962, Note_on_c, 0, 84, 92
2, 32962, Note_on_c, 0, 75, 81
2, 32965, Note_on_c, 0, 60, 89
2, 32965, Note_on_c, 0, 63, 79
2, 32965, Note_on_c, 0, 51, 79
2, 32968, Control_c, 0, 64, 40
2, 32972, Note_on_c, 0, 51, 0
2, 32972, Note_on_c, 0, 60, 0
2, 32972, Control_c, 0, 64, 104
2, 32976, Control_c, 0, 64, 127
2, 32977, Note_on_c, 0, 84, 0
2, 32977, Note_on_c, 0, 89, 0
2, 32978, Note_on_c, 0, 63, 0
2, 32979, Note_on_c, 0, 75, 0
2, 32979, Note_on_c, 0, 87, 0
2, 32997, Note_on_c, 0, 86, 106
2, 32998, Note_on_c, 0, 74, 100
2, 33008, Note_on_c, 0, 74, 0
2, 33015, Note_on_c, 0, 86, 0
2, 33025, Control_c, 0, 64, 40
2, 33028, Control_c, 0, 64, 0
2, 33032, Note_on_c, 0, 68, 83
2, 33033, Note_on_c, 0, 89, 112
2, 33035, Note_on_c, 0, 60, 76
2, 33036, Note_on_c, 0, 56, 61
2, 33038, Note_on_c, 0, 77, 89
2, 33038, Note_on_c, 0, 85, 65
2, 33040, Control_c, 0, 64, 56
2, 33042, Note_on_c, 0, 60, 0
2, 33042, Note_on_c, 0, 68, 0
2, 33043, Note_on_c, 0, 77, 0
2, 33043, Control_c, 0, 64, 127
2, 33045, Note_on_c, 0, 85, 0
2, 33049, Note_on_c, 0, 56, 0
2, 33050, Note_on_c, 0, 89, 0
2, 33070, Note_on_c, 0, 87, 95
2, 33071, Note_on_c, 0, 84, 91
2, 33071, Note_on_c, 0, 75, 89
2, 33084, Note_on_c, 0, 75, 0
2, 33089, Note_on_c, 0, 84, 0
2, 33092, Note_on_c, 0, 87, 0
2, 33096, Control_c, 0, 64, 104
2, 33101, Control_c, 0, 64, 0
2, 33103, Note_on_c, 0, 89, 99
2, 33105, Note_on_c, 0, 84, 86
2, 33105, Note_on_c, 0, 87, 66
2, 33106, Note_on_c, 0, 75, 83
2, 33107, Note_on_c, 0, 51, 98
2, 33107, Note_on_c, 0, 39, 77
2, 33112, Control_c, 0, 64, 24
2, 33116, Note_on_c, 0, 89, 0
2, 33116, Control_c, 0, 64, 88
2, 33117, Note_on_c, 0, 51, 0
2, 33118, Note_on_c, 0, 75, 0
2, 33118, Note_on_c, 0, 87, 0
2, 33118, Note_on_c, 0, 39, 0
2, 33120, Note_on_c, 0, 84, 0
2, 33120, Control_c, 0, 64, 127
2, 33140, Note_on_c, 0, 74, 95
2, 33141, Note_on_c, 0, 83, 91
2, 33141, Note_on_c, 0, 86, 76
2, 33147, Note_on_c, 0, 74, 0
2, 33148, Note_on_c, 0, 86, 0
2, 33154, Note_on_c, 0, 83, 0
2, 33165, Control_c, 0, 64, 72
2, 33168, Control_c, 0, 64, 0
2, 33173, Note_on_c, 0, 85, 92
2, 33177, Note_on_c, 0, 87, 105
2, 33177, Note_on_c, 0, 75, 100
2, 33180, Note_on_c, 0, 85, 0
2, 33181, Note_on_c, 0, 84, 92
2, 33181, Note_on_c, 0, 56, 91
2, 33181, Note_on_c, 0, 44, 88
2, 33183, Control_c, 0, 64, 88
2, 33187, Note_on_c, 0, 84, 0
2, 33187, Control_c, 0, 64, 127
2, 33190, Note_on_c, 0, 75, 0
2, 33193, Note_on_c, 0, 56, 0
2, 33194, Note_on_c, 0, 44, 0
2, 33194, Note_on_c, 0, 87, 0
2, 33212, Control_c, 0, 64, 104
2, 33216, Control_c, 0, 64, 0
2, 33237, Note_on_c, 0, 39, 77
2, 33241, Note_on_c, 0, 46, 75
2, 33251, Control_c, 0, 64, 127
2, 33256, Note_on_c, 0, 90, 105
2, 33257, Note_on_c, 0, 39, 0
2, 33258, Note_on_c, 0, 75, 100
2, 33258, Note_on_c, 0, 54, 95
2, 33258, Note_on_c, 0, 82, 94
2, 33264, Note_on_c, 0, 46, 0
2, 33275, Note_on_c, 0, 54, 0
2, 33275, Note_on_c, 0, 82, 0
2, 33275, Note_on_c, 0, 75, 0
2, 33277, Note_on_c, 0, 90, 0
2, 33296, Control_c, 0, 64, 104
2, 33300, Control_c, 0, 64, 0
2, 33310, Note_on_c, 0, 41, 77
2, 33317, Note_on_c, 0, 48, 66
2, 33325, Note_on_c, 0, 41, 0
2, 33331, Note_on_c, 0, 53, 75
2, 33333, Note_on_c, 0, 89, 106
2, 33333, Control_c, 0, 64, 127
2, 33335, Note_on_c, 0, 48, 0
2, 33337, Note_on_c, 0, 57, 96
2, 33338, Note_on_c, 0, 53, 0
2, 33338, Note_on_c, 0, 84, 94
2, 33338, Note_on_c, 0, 75, 81
2, 33340, Note_on_c, 0, 81, 83
2, 33345, Note_on_c, 0, 81, 0
2, 33345, Note_on_c, 0, 75, 0
2, 33348, Note_on_c, 0, 57, 0
2, 33349, Note_on_c, 0, 89, 0
2, 33350, Note_on_c, 0, 84, 0
2, 33393, Control_c, 0, 64, 72
2, 33397, Control_c, 0, 64, 0
2, 33398, Note_on_c, 0, 53, 80
2, 33407, Note_on_c, 0, 63, 67
2, 33407, Note_on_c, 0, 60, 63
2, 33411, Note_on_c, 0, 53, 0
2, 33415, Note_on_c, 0, 84, 103
2, 33418, Note_on_c, 0, 75, 87
2, 33418, Note_on_c, 0, 72, 97
2, 33420, Note_on_c, 0, 69, 93
2, 33420, Note_on_c, 0, 77, 79
2, 33423, Control_c, 0, 64, 104
2, 33424, Note_on_c, 0, 60, 0
2, 33427, Control_c, 0, 64, 127
2, 33428, Note_on_c, 0, 63, 0
2, 33428, Note_on_c, 0, 77, 0
2, 33429, Note_on_c, 0, 72, 0
2, 33432, Note_on_c, 0, 69, 0
2, 33436, Note_on_c, 0, 84, 0
2, 33440, Note_on_c, 0, 75, 0
2, 33476, Control_c, 0, 64, 56
2, 33477, Note_on_c, 0, 46, 80
2, 33480, Control_c, 0, 64, 0
2, 33488, Note_on_c, 0, 53, 81
2, 33493, Note_on_c, 0, 85, 106
2, 33496, Note_on_c, 0, 70, 84
2, 33496, Note_on_c, 0, 61, 93
2, 33497, Note_on_c, 0, 46, 0
2, 33497, Note_on_c, 0, 77, 93
2, 33502, Control_c, 0, 64, 72
2, 33505, Note_on_c, 0, 53, 0
2, 33506, Control_c, 0, 64, 127
2, 33508, Note_on_c, 0, 61, 0
2, 33508, Note_on_c, 0, 70, 0
2, 33509, Note_on_c, 0, 77, 0
2, 33511, Note_on_c, 0, 85, 0
2, 33566, Control_c, 0, 64, 24
2, 33570, Note_on_c, 0, 78, 102
2, 33570, Note_on_c, 0, 54, 89
2, 33570, Control_c, 0, 64, 0
2, 33571, Note_on_c, 0, 42, 74
2, 33579, Note_on_c, 0, 42, 0
2, 33581, Control_c, 0, 64, 56
2, 33582, Note_on_c, 0, 54, 0
2, 33585, Control_c, 0, 64, 127
2, 33587, Note_on_c, 0, 78, 0
2, 33590, Note_on_c, 0, 66, 70
2, 33606, Note_on_c, 0, 78, 85
2, 33616, Note_on_c, 0, 66, 0
2, 33624, Note_on_c, 0, 78, 0
2, 33626, Control_c, 0, 64, 56
2, 33630, Control_c, 0, 64, 0
2, 33632, Note_on_c, 0, 77, 112
2, 33633, Note_on_c, 0, 53, 92
2, 33633, Note_on_c, 0, 65, 92
2, 33633, Note_on_c, 0, 41, 86
2, 33637, Control_c, 0, 64, 40
2, 33641, Control_c, 0, 64, 127
2, 33644, Note_on_c, 0, 65, 0
2, 33644, Note_on_c, 0, 53, 0
2, 33647, Note_on_c, 0, 77, 0
2, 33648, Note_on_c, 0, 41, 0
2, 33697, Control_c, 0, 64, 24
2, 33700, Control_c, 0, 64, 0
2, 33713, Note_on_c, 0, 61, 93
2, 33713, Note_on_c, 0, 73, 105
2, 33716, Note_on_c, 0, 37, 78
2, 33717, Note_on_c, 0, 49, 97
2, 33720, Control_c, 0, 64, 56
2, 33721, Note_on_c, 0, 61, 0
2, 33723, Control_c, 0, 64, 127
2, 33725, Note_on_c, 0, 49, 0
2, 33728, Note_on_c, 0, 37, 0
2, 33730, Note_on_c, 0, 73, 0
2, 33768, Control_c, 0, 64, 104
2, 33772, Control_c, 0, 64, 0
2, 33801, Note_on_c, 0, 90, 116
2, 33802, Note_on_c, 0, 46, 112
2, 33802, Note_on_c, 0, 78, 115
2, 33802, Note_on_c, 0, 87, 100
2, 33803, Note_on_c, 0, 34, 86
2, 33811, Note_on_c, 0, 34, 0
2, 33813, Note_on_c, 0, 46, 0
2, 33817, Control_c, 0, 64, 127
2, 33848, Note_on_c, 0, 87, 0
2, 33857, Note_on_c, 0, 78, 0
2, 33864, Note_on_c, 0, 90, 0
2, 33877, Note_on_c, 0, 61, 82
2, 33877, Note_on_c, 0, 65, 82
2, 33878, Note_on_c, 0, 53, 80
2, 33884, Note_on_c, 0, 53, 0
2, 33889, Note_on_c, 0, 61, 0
2, 33890, Note_on_c, 0, 65, 0
2, 33913, Note_on_c, 0, 89, 95
2, 33913, Note_on_c, 0, 77, 100
2, 33913, Note_on_c, 0, 85, 80
2, 33920, Note_on_c, 0, 85, 0
2, 33925, Note_on_c, 0, 77, 0
2, 33925, Note_on_c, 0, 89, 0
2, 33937, Control_c, 0, 64, 72
2, 33941, Note_on_c, 0, 89, 98
2, 33941, Note_on_c, 0, 77, 100
2, 33941, Note_on_c, 0, 85, 95
2, 33941, Control_c, 0, 64, 0
2, 33943, Note_on_c, 0, 70, 94
2, 33943, Note_on_c, 0, 58, 77
2, 33945, Note_on_c, 0, 61, 79
2, 33945, Control_c, 0, 64, 24
2, 33948, Control_c, 0, 64, 72
2, 33952, Note_on_c, 0, 89, 0
2, 33952, Control_c, 0, 64, 127
2, 33953, Note_on_c, 0, 61, 0
2, 33955, Note_on_c, 0, 70, 0
2, 33956, Note_on_c, 0, 77, 0
2, 33956, Note_on_c, 0, 85, 0
2, 33959, Note_on_c, 0, 58, 0
2, 33995, Note_on_c, 0, 65, 96
2, 34001, Note_on_c, 0, 65, 0
2, 34020, Note_on_c, 0, 65, 98
2, 34020, Note_on_c, 0, 41, 79
2, 34020, Note_on_c, 0, 53, 100
2, 34022, Control_c, 0, 64, 24
2, 34026, Note_on_c, 0, 41, 0
2, 34027, Control_c, 0, 64, 0
2, 34031, Note_on_c, 0, 65, 0
2, 34033, Note_on_c, 0, 53, 0
2, 34033, Note_on_c, 0, 66, 92
2, 34038, Control_c, 0, 64, 56
2, 34042, Control_c, 0, 64, 127
2, 34045, Note_on_c, 0, 66, 0
2, 34046, Note_on_c, 0, 65, 89
2, 34057, Note_on_c, 0, 64, 90
2, 34061, Note_on_c, 0, 65, 0
2, 34068, Note_on_c, 0, 65, 92
2, 34072, Note_on_c, 0, 64, 0
2, 34083, Control_c, 0, 64, 72
2, 34085, Note_on_c, 0, 70, 92
2, 34085, Note_on_c, 0, 58, 93
2, 34085, Note_on_c, 0, 46, 86
2, 34087, Control_c, 0, 64, 0
2, 34089, Note_on_c, 0, 65, 0
2, 34095, Control_c, 0, 64, 24
2, 34096, Note_on_c, 0, 58, 0
2, 34098, Note_on_c, 0, 70, 0
2, 34098, Note_on_c, 0, 46, 0
2, 34100, Control_c, 0, 64, 88
2, 34102, Control_c, 0, 64, 127
2, 34140, Control_c, 0, 64, 88
2, 34143, Control_c, 0, 64, 0
2, 34161, Note_on_c, 0, 85, 94
2, 34162, Note_on_c, 0, 73, 82
2, 34162, Note_on_c, 0, 82, 75
2, 34162, Control_c, 0, 64, 72
2, 34166, Note_on_c, 0, 41, 87
2, 34166, Control_c, 0, 64, 127
2, 34167, Note_on_c, 0, 29, 69
2, 34173, Note_on_c, 0, 29, 0
2, 34173, Note_on_c, 0, 73, 0
2, 34176, Note_on_c, 0, 41, 0
2, 34177, Note_on_c, 0, 85, 0
2, 34180, Note_on_c, 0, 82, 0
2, 34192, Control_c, 0, 64, 40
2, 34197, Note_on_c, 0, 87, 94
2, 34197, Control_c, 0, 64, 0
2, 34198, Note_on_c, 0, 75, 93
2, 34198, Note_on_c, 0, 84, 93
2, 34209, Note_on_c, 0, 75, 0
2, 34213, Note_on_c, 0, 84, 0
2, 34217, Note_on_c, 0, 87, 0
2, 34217, Note_on_c, 0, 46, 35
2, 34224, Note_on_c, 0, 46, 0
2, 34238, Note_on_c, 0, 90, 106
2, 34240, Note_on_c, 0, 78, 103
2, 34242, Note_on_c, 0, 46, 103
2, 34242, Note_on_c, 0, 34, 85
2, 34245, Note_on_c, 0, 87, 36
2, 34245, Control_c, 0, 64, 127
2, 34250, Note_on_c, 0, 34, 0
2, 34251, Note_on_c, 0, 87, 0
2, 34252, Note_on_c, 0, 46, 0
2, 34252, Note_on_c, 0, 78, 0
2, 34265, Note_on_c, 0, 90, 0
2, 34295, Note_on_c, 0, 89, 98
2, 34295, Note_on_c, 0, 85, 87
2, 34296, Note_on_c, 0, 77, 91
2, 34301, Note_on_c, 0, 77, 0
2, 34305, Note_on_c, 0, 85, 0
2, 34307, Note_on_c, 0, 89, 0
2, 34316, Control_c, 0, 64, 40
2, 34318, Note_on_c, 0, 61, 85
2, 34318, Note_on_c, 0, 89, 100
2, 34318, Note_on_c, 0, 85, 81
2, 34320, Note_on_c, 0, 77, 95
2, 34320, Note_on_c, 0, 65, 84
2, 34320, Control_c, 0, 64, 0
2, 34322, Note_on_c, 0, 53, 75
2, 34327, Note_on_c, 0, 53, 0
2, 34327, Note_on_c, 0, 65, 0
2, 34327, Control_c, 0, 64, 56
2, 34329, Note_on_c, 0, 89, 0
2, 34330, Note_on_c, 0, 61, 0
2, 34331, Control_c, 0, 64, 127
2, 34332, Note_on_c, 0, 77, 0
2, 34333, Note_on_c, 0, 85, 0
2, 34353, Note_on_c, 0, 88, 98
2, 34355, Note_on_c, 0, 76, 96
2, 34355, Note_on_c, 0, 84, 90
2, 34357, Control_c, 0, 64, 88
2, 34361, Control_c, 0, 64, 0
2, 34362, Note_on_c, 0, 84, 0
2, 34365, Note_on_c, 0, 88, 0
2, 34366, Note_on_c, 0, 76, 0
2, 34390, Note_on_c, 0, 89, 104
2, 34390, Note_on_c, 0, 85, 94
2, 34390, Note_on_c, 0, 77, 104
2, 34391, Note_on_c, 0, 70, 95
2, 34391, Note_on_c, 0, 61, 83
2, 34391, Note_on_c, 0, 58, 70
2, 34391, Control_c, 0, 64, 88
2, 34395, Control_c, 0, 64, 127
2, 34398, Note_on_c, 0, 89, 0
2, 34402, Note_on_c, 0, 70, 0
2, 34403, Note_on_c, 0, 85, 0
2, 34403, Note_on_c, 0, 77, 0
2, 34404, Note_on_c, 0, 61, 0
2, 34407, Note_on_c, 0, 58, 0
2, 34447, Note_on_c, 0, 65, 85
2, 34460, Note_on_c, 0, 65, 0
2, 34471, Note_on_c, 0, 65, 72
2, 34471, Note_on_c, 0, 53, 110
2, 34471, Note_on_c, 0, 41, 94
2, 34471, Control_c, 0, 64, 24
2, 34475, Control_c, 0, 64, 0
2, 34482, Control_c, 0, 64, 24
2, 34483, Note_on_c, 0, 65, 0
2, 34484, Note_on_c, 0, 41, 0
2, 34485, Note_on_c, 0, 66, 89
2, 34486, Note_on_c, 0, 53, 0
2, 34486, Control_c, 0, 64, 88
2, 34488, Control_c, 0, 64, 127
2, 34498, Note_on_c, 0, 65, 89
2, 34500, Note_on_c, 0, 66, 0
2, 34508, Note_on_c, 0, 64, 82
2, 34513, Note_on_c, 0, 65, 0
2, 34518, Note_on_c, 0, 65, 85
2, 34525, Note_on_c, 0, 64, 0
2, 34533, Control_c, 0, 64, 88
2, 34537, Note_on_c, 0, 70, 88
2, 34537, Control_c, 0, 64, 0
2, 34538, Note_on_c, 0, 58, 100
2, 34538, Note_on_c, 0, 46, 85
2, 34539, Note_on_c, 0, 65, 0
2, 34549, Note_on_c, 0, 58, 0
2, 34550, Note_on_c, 0, 70, 0
2, 34550, Control_c, 0, 64, 72
2, 34553, Control_c, 0, 64, 127
2, 34556, Note_on_c, 0, 46, 0
2, 34605, Control_c, 0, 64, 88
2, 34608, Control_c, 0, 64, 0
2, 34623, Note_on_c, 0, 79, 96
2, 34623, Note_on_c, 0, 91, 109
2, 34625, Note_on_c, 0, 85, 91
2, 34625, Note_on_c, 0, 46, 115
2, 34626, Note_on_c, 0, 34, 93
2, 34627, Control_c, 0, 64, 40
2, 34632, Control_c, 0, 64, 127
2, 34634, Note_on_c, 0, 79, 0
2, 34636, Note_on_c, 0, 46, 0
2, 34636, Note_on_c, 0, 34, 0
2, 34643, Note_on_c, 0, 91, 0
2, 34645, Note_on_c, 0, 85, 0
2, 34668, Note_on_c, 0, 92, 116
2, 34668, Note_on_c, 0, 80, 106
2, 34679, Note_on_c, 0, 80, 0
2, 34680, Note_on_c, 0, 92, 0
2, 34692, Note_on_c, 0, 39, 43
2, 34698, Note_on_c, 0, 39, 0
2, 34710, Control_c, 0, 64, 40
2, 34715, Control_c, 0, 64, 0
2, 34725, Note_on_c, 0, 39, 102
2, 34725, Note_on_c, 0, 27, 79
2, 34728, Note_on_c, 0, 96, 112
2, 34728, Note_on_c, 0, 84, 107
2, 34733, Note_on_c, 0, 27, 0
2, 34733, Control_c, 0, 64, 56
2, 34736, Note_on_c, 0, 39, 0
2, 34737, Control_c, 0, 64, 127
2, 34755, Note_on_c, 0, 96, 0
2, 34756, Note_on_c, 0, 84, 0
2, 34767, Note_on_c, 0, 91, 84
2, 34768, Note_on_c, 0, 87, 74
2, 34799, Note_on_c, 0, 87, 0
2, 34803, Note_on_c, 0, 91, 0
2, 34811, Note_on_c, 0, 96, 104
2, 34812, Note_on_c, 0, 84, 95
2, 34813, Note_on_c, 0, 87, 81
2, 34816, Note_on_c, 0, 72, 98
2, 34816, Note_on_c, 0, 67, 83
2, 34817, Note_on_c, 0, 61, 67
2, 34818, Note_on_c, 0, 63, 63
2, 34827, Note_on_c, 0, 72, 0
2, 34829, Note_on_c, 0, 96, 0
2, 34831, Note_on_c, 0, 87, 0
2, 34832, Note_on_c, 0, 84, 0
2, 34833, Note_on_c, 0, 67, 0
2, 34834, Note_on_c, 0, 61, 0
2, 34840, Note_on_c, 0, 63, 0
2, 34852, Note_on_c, 0, 61, 47
2, 34853, Note_on_c, 0, 70, 92
2, 34864, Note_on_c, 0, 70, 0
2, 34867, Note_on_c, 0, 61, 0
2, 34878, Note_on_c, 0, 82, 95
2, 34878, Note_on_c, 0, 94, 100
2, 34891, Note_on_c, 0, 94, 0
2, 34891, Note_on_c, 0, 82, 0
2, 34903, Note_on_c, 0, 82, 96
2, 34903, Note_on_c, 0, 94, 96
2, 34906, Note_on_c, 0, 51, 106
2, 34906, Control_c, 0, 64, 88
2, 34910, Control_c, 0, 64, 0
2, 34921, Note_on_c, 0, 51, 0
2, 34923, Control_c, 0, 64, 88
2, 34928, Control_c, 0, 64, 127
2, 34930, Note_on_c, 0, 94, 0
2, 34931, Note_on_c, 0, 82, 0
2, 34942, Note_on_c, 0, 87, 81
2, 34945, Note_on_c, 0, 84, 67
2, 34961, Note_on_c, 0, 84, 0
2, 34972, Note_on_c, 0, 87, 0
2, 34976, Note_on_c, 0, 94, 95
2, 34978, Note_on_c, 0, 82, 85
2, 34978, Note_on_c, 0, 70, 79
2, 34980, Note_on_c, 0, 63, 61
2, 34981, Note_on_c, 0, 60, 65
2, 34989, Note_on_c, 0, 70, 0
2, 34995, Note_on_c, 0, 63, 0
2, 34998, Note_on_c, 0, 60, 0
2, 34999, Note_on_c, 0, 94, 0
2, 35003, Note_on_c, 0, 82, 0
2, 35013, Note_on_c, 0, 68, 86
2, 35020, Note_on_c, 0, 63, 36
2, 35023, Note_on_c, 0, 68, 0
2, 35026, Note_on_c, 0, 63, 0
2, 35033, Note_on_c, 0, 92, 100
2, 35033, Note_on_c, 0, 80, 97
2, 35044, Note_on_c, 0, 80, 0
2, 35044, Note_on_c, 0, 92, 0
2, 35056, Note_on_c, 0, 92, 94
2, 35056, Note_on_c, 0, 80, 95
2, 35057, Note_on_c, 0, 51, 89
2, 35060, Control_c, 0, 64, 24
2, 35063, Control_c, 0, 64, 0
2, 35070, Note_on_c, 0, 51, 0
2, 35078, Control_c, 0, 64, 104
2, 35082, Control_c, 0, 64, 127
2, 35083, Note_on_c, 0, 80, 0
2, 35084, Note_on_c, 0, 92, 0
2, 35095, Note_on_c, 0, 87, 80
2, 35098, Note_on_c, 0, 82, 65
2, 35115, Note_on_c, 0, 82, 0
2, 35126, Note_on_c, 0, 87, 0
2, 35131, Note_on_c, 0, 92, 97
2, 35131, Note_on_c, 0, 68, 75
2, 35132, Note_on_c, 0, 80, 87
2, 35132, Note_on_c, 0, 63, 67
2, 35135, Note_on_c, 0, 58, 60
2, 35147, Note_on_c, 0, 68, 0
2, 35149, Note_on_c, 0, 63, 0
2, 35159, Note_on_c, 0, 80, 0
2, 35166, Note_on_c, 0, 92, 0
2, 35168, Note_on_c, 0, 67, 81
2, 35168, Note_on_c, 0, 63, 55
2, 35175, Note_on_c, 0, 63, 0
2, 35175, Note_on_c, 0, 67, 0
2, 35182, Note_on_c, 0, 58, 0
2, 35190, Note_on_c, 0, 91, 99
2, 35191, Note_on_c, 0, 79, 97
2, 35203, Note_on_c, 0, 91, 0
2, 35204, Note_on_c, 0, 79, 0
2, 35213, Control_c, 0, 64, 104
2, 35215, Note_on_c, 0, 91, 109
2, 35215, Note_on_c, 0, 79, 103
2, 35217, Note_on_c, 0, 46, 89
2, 35217, Control_c, 0, 64, 0
2, 35229, Note_on_c, 0, 46, 0
2, 35232, Control_c, 0, 64, 40
2, 35236, Note_on_c, 0, 79, 0
2, 35236, Control_c, 0, 64, 127
2, 35241, Note_on_c, 0, 91, 0
2, 35256, Note_on_c, 0, 86, 90
2, 35256, Note_on_c, 0, 82, 78
2, 35279, Note_on_c, 0, 82, 0
2, 35283, Note_on_c, 0, 86, 0
2, 35288, Note_on_c, 0, 67, 86
2, 35290, Note_on_c, 0, 62, 76
2, 35290, Note_on_c, 0, 91, 102
2, 35291, Note_on_c, 0, 58, 53
2, 35291, Note_on_c, 0, 56, 59
2, 35291, Note_on_c, 0, 79, 93
2, 35303, Note_on_c, 0, 62, 0
2, 35303, Note_on_c, 0, 67, 0
2, 35309, Note_on_c, 0, 56, 0
2, 35309, Note_on_c, 0, 58, 0
2, 35317, Note_on_c, 0, 79, 0
2, 35317, Note_on_c, 0, 91, 0
2, 35327, Note_on_c, 0, 65, 84
2, 35330, Note_on_c, 0, 56, 64
2, 35338, Note_on_c, 0, 65, 0
2, 35340, Note_on_c, 0, 56, 0
2, 35350, Note_on_c, 0, 77, 98
2, 35351, Note_on_c, 0, 89, 96
2, 35357, Note_on_c, 0, 89, 0
2, 35361, Note_on_c, 0, 77, 0
2, 35370, Note_on_c, 0, 89, 110
2, 35370, Note_on_c, 0, 77, 112
2, 35371, Note_on_c, 0, 51, 93
2, 35371, Control_c, 0, 64, 56
2, 35375, Control_c, 0, 64, 0
2, 35384, Note_on_c, 0, 51, 0
2, 35386, Note_on_c, 0, 89, 0
2, 35386, Control_c, 0, 64, 72
2, 35390, Control_c, 0, 64, 127
2, 35391, Note_on_c, 0, 77, 0
2, 35407, Note_on_c, 0, 79, 85
2, 35407, Note_on_c, 0, 82, 87
2, 35417, Note_on_c, 0, 79, 0
2, 35430, Note_on_c, 0, 82, 0
2, 35442, Note_on_c, 0, 89, 103
2, 35443, Note_on_c, 0, 58, 59
2, 35443, Note_on_c, 0, 77, 99
2, 35446, Note_on_c, 0, 65, 74
2, 35446, Note_on_c, 0, 55, 69
2, 35461, Note_on_c, 0, 77, 0
2, 35462, Note_on_c, 0, 65, 0
2, 35465, Note_on_c, 0, 89, 0
2, 35466, Note_on_c, 0, 55, 0
2, 35481, Note_on_c, 0, 63, 77
2, 35487, Note_on_c, 0, 63, 0
2, 35490, Note_on_c, 0, 58, 0
2, 35498, Note_on_c, 0, 87, 94
2, 35500, Note_on_c, 0, 75, 89
2, 35508, Note_on_c, 0, 75, 0
2, 35509, Note_on_c, 0, 87, 0
2, 35521, Note_on_c, 0, 73, 99
2, 35521, Note_on_c, 0, 85, 103
2, 35525, Control_c, 0, 64, 72
2, 35528, Control_c, 0, 64, 0
2, 35530, Note_on_c, 0, 41, 78
2, 35530, Note_on_c, 0, 53, 74
2, 35541, Note_on_c, 0, 73, 0
2, 35543, Note_on_c, 0, 41, 0
2, 35543, Control_c, 0, 64, 40
2, 35546, Note_on_c, 0, 85, 0
2, 35547, Control_c, 0, 64, 127
2, 35550, Note_on_c, 0, 53, 0
2, 35563, Note_on_c, 0, 80, 83
2, 35567, Note_on_c, 0, 77, 73
2, 35580, Note_on_c, 0, 77, 0
2, 35590, Note_on_c, 0, 80, 0
2, 35600, Note_on_c, 0, 61, 70
2, 35601, Note_on_c, 0, 85, 94
2, 35601, Note_on_c, 0, 56, 68
2, 35602, Note_on_c, 0, 73, 89
2, 35618, Note_on_c, 0, 56, 0
2, 35618, Note_on_c, 0, 61, 0
2, 35629, Note_on_c, 0, 73, 0
2, 35633, Note_on_c, 0, 85, 0
2, 35638, Note_on_c, 0, 56, 54
2, 35638, Note_on_c, 0, 60, 80
2, 35644, Note_on_c, 0, 60, 0
2, 35649, Note_on_c, 0, 56, 0
2, 35665, Note_on_c, 0, 84, 88
2, 35665, Note_on_c, 0, 72, 99
2, 35676, Note_on_c, 0, 84, 0
2, 35677, Note_on_c, 0, 72, 0
2, 35697, Control_c, 0, 64, 0
2, 35698, Note_on_c, 0, 65, 98
2, 35700, Note_on_c, 0, 49, 72
2, 35701, Note_on_c, 0, 37, 70
2, 35713, Note_on_c, 0, 37, 0
2, 35715, Note_on_c, 0, 49, 0
2, 35723, Control_c, 0, 64, 127
2, 35778, Note_on_c, 0, 58, 73
2, 35782, Note_on_c, 0, 53, 72
2, 35788, Note_on_c, 0, 53, 0
2, 35790, Note_on_c, 0, 58, 0
2, 35802, Control_c, 0, 64, 56
2, 35806, Control_c, 0, 64, 0
2, 35838, Note_on_c, 0, 65, 0
2, 35856, Note_on_c, 0, 48, 104
2, 35857, Note_on_c, 0, 36, 84
2, 35858, Note_on_c, 0, 67, 85
2, 35863, Note_on_c, 0, 36, 0
2, 35867, Control_c, 0, 64, 88
2, 35869, Note_on_c, 0, 48, 0
2, 35870, Control_c, 0, 64, 127
2, 35873, Note_on_c, 0, 67, 0
2, 35877, Note_on_c, 0, 68, 67
2, 35895, Note_on_c, 0, 68, 0
2, 35897, Note_on_c, 0, 67, 66
2, 35903, Note_on_c, 0, 67, 0
2, 35911, Note_on_c, 0, 68, 50
2, 35917, Note_on_c, 0, 67, 70
2, 35922, Note_on_c, 0, 68, 0
2, 35932, Note_on_c, 0, 67, 0
2, 35935, Note_on_c, 0, 60, 91
2, 35935, Note_on_c, 0, 65, 91
2, 35935, Note_on_c, 0, 58, 75
2, 35936, Note_on_c, 0, 52, 73
2, 35940, Note_on_c, 0, 60, 0
2, 35946, Control_c, 0, 64, 104
2, 35947, Note_on_c, 0, 58, 0
2, 35950, Control_c, 0, 64, 56
2, 35951, Note_on_c, 0, 52, 0
2, 35953, Control_c, 0, 64, 24
2, 35957, Control_c, 0, 64, 0
2, 35960, Note_on_c, 0, 65, 0
2, 35968, Note_on_c, 0, 67, 93
2, 35980, Note_on_c, 0, 67, 0
2, 36010, Note_on_c, 0, 68, 91
2, 36016, Note_on_c, 0, 41, 91
2, 36016, Note_on_c, 0, 29, 71
2, 36021, Control_c, 0, 64, 72
2, 36023, Note_on_c, 0, 29, 0
2, 36025, Note_on_c, 0, 68, 0
2, 36025, Control_c, 0, 64, 127
2, 36029, Note_on_c, 0, 41, 0
2, 36032, Note_on_c, 0, 70, 72
2, 36048, Note_on_c, 0, 70, 0
2, 36050, Note_on_c, 0, 68, 64
2, 36056, Note_on_c, 0, 68, 0
2, 36061, Note_on_c, 0, 70, 57
2, 36071, Note_on_c, 0, 68, 71
2, 36081, Note_on_c, 0, 70, 0
2, 36089, Note_on_c, 0, 68, 0
2, 36090, Note_on_c, 0, 60, 88
2, 36090, Note_on_c, 0, 67, 99
2, 36090, Note_on_c, 0, 56, 75
2, 36095, Note_on_c, 0, 53, 63
2, 36096, Note_on_c, 0, 60, 0
2, 36096, Control_c, 0, 64, 104
2, 36100, Note_on_c, 0, 53, 0
2, 36100, Control_c, 0, 64, 56
2, 36102, Note_on_c, 0, 56, 0
2, 36103, Control_c, 0, 64, 0
2, 36110, Note_on_c, 0, 67, 0
2, 36123, Note_on_c, 0, 68, 93
2, 36144, Note_on_c, 0, 68, 0
2, 36166, Note_on_c, 0, 69, 97
2, 36166, Note_on_c, 0, 61, 89
2, 36166, Note_on_c, 0, 51, 90
2, 36167, Note_on_c, 0, 39, 73
2, 36167, Control_c, 0, 64, 127
2, 36170, Note_on_c, 0, 67, 79
2, 36175, Note_on_c, 0, 39, 0
2, 36176, Note_on_c, 0, 67, 0
2, 36177, Note_on_c, 0, 51, 0
2, 36181, Note_on_c, 0, 61, 0
2, 36194, Note_on_c, 0, 69, 0
2, 36205, Note_on_c, 0, 70, 95
2, 36212, Control_c, 0, 64, 72
2, 36215, Control_c, 0, 64, 0
2, 36235, Note_on_c, 0, 70, 0
2, 36242, Note_on_c, 0, 72, 97
2, 36243, Note_on_c, 0, 58, 86
2, 36246, Note_on_c, 0, 61, 77
2, 36246, Note_on_c, 0, 51, 81
2, 36247, Note_on_c, 0, 67, 86
2, 36251, Note_on_c, 0, 51, 0
2, 36254, Note_on_c, 0, 58, 0
2, 36256, Note_on_c, 0, 61, 0
2, 36259, Note_on_c, 0, 72, 0
2, 36264, Note_on_c, 0, 67, 0
2, 36278, Note_on_c, 0, 73, 103
2, 36301, Note_on_c, 0, 73, 0
2, 36317, Note_on_c, 0, 68, 89
2, 36317, Note_on_c, 0, 44, 84
2, 36317, Note_on_c, 0, 72, 107
2, 36318, Note_on_c, 0, 56, 90
2, 36318, Note_on_c, 0, 51, 83
2, 36318, Note_on_c, 0, 60, 94
2, 36325, Note_on_c, 0, 60, 0
2, 36334, Note_on_c, 0, 51, 0
2, 36335, Note_on_c, 0, 72, 0
2, 36335, Note_on_c, 0, 68, 0
2, 36335, Note_on_c, 0, 44, 0
2, 36335, Note_on_c, 0, 56, 0
2, 36396, Note_on_c, 0, 77, 109
2, 36398, Note_on_c, 0, 68, 92
2, 36400, Note_on_c, 0, 58, 49
2, 36402, Note_on_c, 0, 65, 79
2, 36402, Note_on_c, 0, 62, 80
2, 36403, Note_on_c, 0, 59, 84
2, 36403, Control_c, 0, 64, 72
2, 36407, Note_on_c, 0, 58, 0
2, 36407, Control_c, 0, 64, 127
2, 36414, Note_on_c, 0, 68, 0
2, 36415, Note_on_c, 0, 65, 0
2, 36418, Note_on_c, 0, 62, 0
2, 36418, Note_on_c, 0, 59, 0
2, 36422, Note_on_c, 0, 77, 0
2, 36460, Note_on_c, 0, 75, 96
2, 36460, Note_on_c, 0, 68, 81
2, 36461, Note_on_c, 0, 63, 67
2, 36462, Note_on_c, 0, 60, 62
2, 36467, Note_on_c, 0, 63, 0
2, 36467, Control_c, 0, 64, 104
2, 36469, Note_on_c, 0, 60, 0
2, 36471, Note_on_c, 0, 68, 0
2, 36471, Note_on_c, 0, 75, 0
2, 36471, Control_c, 0, 64, 40
2, 36475, Control_c, 0, 64, 0
2, 36477, Note_on_c, 0, 63, 88
2, 36481, Note_on_c, 0, 60, 93
2, 36481, Note_on_c, 0, 75, 101
2, 36482, Note_on_c, 0, 68, 85
2, 36487, Note_on_c, 0, 60, 0
2, 36492, Note_on_c, 0, 63, 0
2, 36497, Note_on_c, 0, 68, 0
2, 36509, Note_on_c, 0, 75, 0
2, 36517, Note_on_c, 0, 68, 102
2, 36560, Note_on_c, 0, 80, 109
2, 36560, Control_c, 0, 64, 104
2, 36562, Note_on_c, 0, 56, 95
2, 36563, Note_on_c, 0, 44, 93
2, 36565, Control_c, 0, 64, 127
2, 36570, Note_on_c, 0, 56, 0
2, 36573, Note_on_c, 0, 44, 0
2, 36583, Note_on_c, 0, 68, 0
2, 36592, Note_on_c, 0, 80, 0
2, 36622, Note_on_c, 0, 79, 96
2, 36625, Note_on_c, 0, 67, 61
2, 36628, Note_on_c, 0, 79, 0
2, 36632, Note_on_c, 0, 67, 0
2, 36636, Control_c, 0, 64, 72
2, 36640, Control_c, 0, 64, 0
2, 36642, Note_on_c, 0, 77, 117
2, 36642, Note_on_c, 0, 65, 112
2, 36646, Note_on_c, 0, 49, 92
2, 36648, Note_on_c, 0, 37, 77
2, 36657, Note_on_c, 0, 65, 0
2, 36658, Control_c, 0, 64, 56
2, 36659, Note_on_c, 0, 37, 0
2, 36659, Note_on_c, 0, 49, 0
2, 36661, Control_c, 0, 64, 127
2, 36672, Note_on_c, 0, 65, 31
2, 36702, Note_on_c, 0, 65, 0
2, 36726, Note_on_c, 0, 58, 77
2, 36728, Note_on_c, 0, 53, 78
2, 36734, Note_on_c, 0, 53, 0
2, 36734, Note_on_c, 0, 77, 0
2, 36739, Note_on_c, 0, 58, 0
2, 36741, Control_c, 0, 64, 104
2, 36745, Control_c, 0, 64, 72
2, 36748, Control_c, 0, 64, 56
2, 36752, Control_c, 0, 64, 40
2, 36756, Control_c, 0, 64, 24
2, 36760, Control_c, 0, 64, 0
2, 36795, Note_on_c, 0, 67, 89
2, 36803, Note_on_c, 0, 48, 107
2, 36805, Note_on_c, 0, 36, 84
2, 36808, Control_c, 0, 64, 88
2, 36812, Note_on_c, 0, 36, 0
2, 36812, Control_c, 0, 64, 127
2, 36817, Note_on_c, 0, 67, 0
2, 36817, Note_on_c, 0, 79, 82
2, 36819, Note_on_c, 0, 48, 0
2, 36833, Note_on_c, 0, 79, 0
2, 36843, Note_on_c, 0, 80, 85
2, 36858, Note_on_c, 0, 79, 80
2, 36864, Note_on_c, 0, 79, 0
2, 36866, Note_on_c, 0, 80, 0
2, 36880, Note_on_c, 0, 64, 89
2, 36882, Note_on_c, 0, 58, 67
2, 36883, Note_on_c, 0, 77, 112
2, 36883, Note_on_c, 0, 60, 72
2, 36883, Note_on_c, 0, 65, 104
2, 36886, Note_on_c, 0, 64, 0
2, 36887, Control_c, 0, 64, 104
2, 36889, Note_on_c, 0, 60, 0
2, 36891, Note_on_c, 0, 77, 0
2, 36891, Control_c, 0, 64, 56
2, 36894, Note_on_c, 0, 58, 0
2, 36894, Note_on_c, 0, 65, 0
2, 36895, Control_c, 0, 64, 0
2, 36918, Note_on_c, 0, 79, 113
2, 36921, Note_on_c, 0, 67, 88
2, 36927, Note_on_c, 0, 67, 0
2, 36936, Note_on_c, 0, 79, 0
2, 36955, Control_c, 0, 64, 72
2, 36957, Note_on_c, 0, 68, 101
2, 36957, Note_on_c, 0, 29, 72
2, 36957, Note_on_c, 0, 41, 77
2, 36958, Control_c, 0, 64, 127
2, 36963, Note_on_c, 0, 29, 0
2, 36973, Note_on_c, 0, 41, 0
2, 36980, Note_on_c, 0, 68, 0
2, 36980, Note_on_c, 0, 80, 74
2, 36993, Note_on_c, 0, 80, 0
2, 36997, Note_on_c, 0, 82, 75
2, 37015, Note_on_c, 0, 80, 74
2, 37018, Note_on_c, 0, 82, 0
2, 37028, Note_on_c, 0, 80, 0
2, 37036, Note_on_c, 0, 79, 102
2, 37036, Note_on_c, 0, 67, 93
2, 37037, Note_on_c, 0, 65, 81
2, 37038, Note_on_c, 0, 60, 80
2, 37042, Note_on_c, 0, 56, 53
2, 37043, Note_on_c, 0, 65, 0
2, 37044, Note_on_c, 0, 60, 0
2, 37046, Control_c, 0, 64, 88
2, 37049, Note_on_c, 0, 56, 0
2, 37049, Note_on_c, 0, 67, 0
2, 37050, Control_c, 0, 64, 40
2, 37051, Note_on_c, 0, 79, 0
2, 37052, Control_c, 0, 64, 0
2, 37073, Note_on_c, 0, 80, 105
2, 37075, Note_on_c, 0, 68, 97
2, 37088, Note_on_c, 0, 68, 0
2, 37094, Note_on_c, 0, 80, 0
2, 37112, Control_c, 0, 64, 40
2, 37115, Note_on_c, 0, 81, 106
2, 37115, Note_on_c, 0, 75, 93
2, 37115, Note_on_c, 0, 69, 98
2, 37115, Note_on_c, 0, 39, 71
2, 37116, Note_on_c, 0, 51, 87
2, 37116, Control_c, 0, 64, 127
2, 37125, Note_on_c, 0, 39, 0
2, 37126, Note_on_c, 0, 69, 0
2, 37126, Note_on_c, 0, 51, 0
2, 37127, Note_on_c, 0, 81, 0
2, 37131, Note_on_c, 0, 75, 0
2, 37148, Note_on_c, 0, 70, 94
2, 37150, Note_on_c, 0, 82, 101
2, 37164, Note_on_c, 0, 70, 0
2, 37167, Note_on_c, 0, 82, 0
2, 37187, Control_c, 0, 64, 104
2, 37188, Note_on_c, 0, 84, 103
2, 37188, Note_on_c, 0, 79, 98
2, 37190, Note_on_c, 0, 72, 102
2, 37191, Note_on_c, 0, 67, 80
2, 37191, Note_on_c, 0, 61, 74
2, 37191, Note_on_c, 0, 63, 67
2, 37191, Control_c, 0, 64, 72
2, 37195, Control_c, 0, 64, 56
2, 37198, Control_c, 0, 64, 40
2, 37200, Note_on_c, 0, 72, 0
2, 37202, Note_on_c, 0, 63, 0
2, 37202, Control_c, 0, 64, 24
2, 37203, Note_on_c, 0, 67, 0
2, 37203, Note_on_c, 0, 61, 0
2, 37203, Note_on_c, 0, 84, 0
2, 37204, Note_on_c, 0, 79, 0
2, 37206, Control_c, 0, 64, 0
2, 37222, Note_on_c, 0, 85, 102
2, 37223, Note_on_c, 0, 73, 100
2, 37235, Note_on_c, 0, 73, 0
2, 37244, Note_on_c, 0, 85, 0
2, 37262, Note_on_c, 0, 80, 101
2, 37262, Note_on_c, 0, 72, 117
2, 37262, Note_on_c, 0, 84, 110
2, 37262, Note_on_c, 0, 75, 100
2, 37262, Note_on_c, 0, 56, 82
2, 37262, Note_on_c, 0, 68, 94
2, 37262, Control_c, 0, 64, 72
2, 37266, Control_c, 0, 64, 127
2, 37268, Note_on_c, 0, 63, 69
2, 37273, Note_on_c, 0, 75, 0
2, 37273, Note_on_c, 0, 72, 0
2, 37274, Note_on_c, 0, 63, 0
2, 37275, Note_on_c, 0, 56, 0
2, 37277, Note_on_c, 0, 68, 0
2, 37279, Note_on_c, 0, 80, 0
2, 37280, Note_on_c, 0, 84, 0
2, 37300, Control_c, 0, 64, 88
2, 37305, Control_c, 0, 64, 40
2, 37308, Control_c, 0, 64, 0
2, 37345, Note_on_c, 0, 89, 110
2, 37346, Note_on_c, 0, 80, 99
2, 37346, Note_on_c, 0, 77, 110
2, 37347, Note_on_c, 0, 59, 86
2, 37347, Note_on_c, 0, 68, 87
2, 37347, Note_on_c, 0, 62, 84
2, 37348, Note_on_c, 0, 71, 90
2, 37348, Control_c, 0, 64, 56
2, 37351, Note_on_c, 0, 86, 72
2, 37352, Control_c, 0, 64, 127
2, 37358, Note_on_c, 0, 86, 0
2, 37359, Note_on_c, 0, 62, 0
2, 37359, Note_on_c, 0, 59, 0
2, 37359, Note_on_c, 0, 68, 0
2, 37361, Note_on_c, 0, 71, 0
2, 37362, Note_on_c, 0, 77, 0
2, 37363, Note_on_c, 0, 89, 0
2, 37371, Note_on_c, 0, 80, 0
2, 37385, Note_on_c, 0, 63, 40
2, 37393, Note_on_c, 0, 63, 0
2, 37406, Note_on_c, 0, 87, 96
2, 37406, Note_on_c, 0, 75, 91
2, 37407, Note_on_c, 0, 80, 74
2, 37407, Note_on_c, 0, 63, 65
2, 37410, Note_on_c, 0, 68, 84
2, 37411, Note_on_c, 0, 87, 0
2, 37411, Note_on_c, 0, 72, 88
2, 37411, Note_on_c, 0, 60, 80
2, 37413, Note_on_c, 0, 75, 0
2, 37413, Note_on_c, 0, 80, 0
2, 37413, Control_c, 0, 64, 40
2, 37416, Control_c, 0, 64, 0
2, 37417, Note_on_c, 0, 72, 0
2, 37417, Note_on_c, 0, 60, 0
2, 37420, Note_on_c, 0, 63, 0
2, 37421, Note_on_c, 0, 68, 0
2, 37425, Note_on_c, 0, 75, 98
2, 37426, Note_on_c, 0, 87, 103
2, 37428, Note_on_c, 0, 80, 66
2, 37430, Note_on_c, 0, 72, 84
2, 37431, Note_on_c, 0, 60, 73
2, 37432, Note_on_c, 0, 63, 85
2, 37432, Note_on_c, 0, 68, 75
2, 37432, Control_c, 0, 64, 104
2, 37433, Note_on_c, 0, 80, 0
2, 37436, Note_on_c, 0, 72, 0
2, 37436, Control_c, 0, 64, 127
2, 37437, Note_on_c, 0, 68, 0
2, 37438, Note_on_c, 0, 60, 0
2, 37442, Note_on_c, 0, 63, 0
2, 37446, Note_on_c, 0, 75, 0
2, 37453, Note_on_c, 0, 87, 0
2, 37485, Note_on_c, 0, 87, 99
2, 37488, Note_on_c, 0, 53, 80
2, 37491, Note_on_c, 0, 73, 55
2, 37496, Control_c, 0, 64, 104
2, 37497, Note_on_c, 0, 73, 0
2, 37498, Control_c, 0, 64, 0
2, 37500, Note_on_c, 0, 53, 0
2, 37500, Note_on_c, 0, 63, 85
2, 37501, Note_on_c, 0, 87, 0
2, 37505, Note_on_c, 0, 87, 70
2, 37505, Note_on_c, 0, 73, 99
2, 37507, Note_on_c, 0, 69, 96
2, 37507, Note_on_c, 0, 85, 91
2, 37507, Note_on_c, 0, 81, 91
2, 37510, Control_c, 0, 64, 24
2, 37511, Note_on_c, 0, 67, 58
2, 37513, Note_on_c, 0, 69, 0
2, 37514, Note_on_c, 0, 81, 0
2, 37515, Control_c, 0, 64, 104
2, 37516, Note_on_c, 0, 63, 0
2, 37518, Note_on_c, 0, 73, 0
2, 37518, Note_on_c, 0, 67, 0
2, 37518, Control_c, 0, 64, 127
2, 37520, Note_on_c, 0, 87, 0
2, 37529, Note_on_c, 0, 85, 0
2, 37558, Note_on_c, 0, 84, 106
2, 37558, Note_on_c, 0, 72, 100
2, 37571, Note_on_c, 0, 46, 89
2, 37573, Note_on_c, 0, 84, 0
2, 37574, Note_on_c, 0, 72, 0
2, 37581, Control_c, 0, 64, 0
2, 37583, Note_on_c, 0, 53, 49
2, 37588, Note_on_c, 0, 77, 98
2, 37588, Note_on_c, 0, 61, 66
2, 37588, Note_on_c, 0, 70, 90
2, 37589, Note_on_c, 0, 53, 0
2, 37590, Note_on_c, 0, 82, 85
2, 37592, Note_on_c, 0, 46, 0
2, 37599, Note_on_c, 0, 70, 0
2, 37601, Note_on_c, 0, 61, 0
2, 37601, Control_c, 0, 64, 127
2, 37603, Note_on_c, 0, 77, 0
2, 37605, Note_on_c, 0, 82, 0
2, 37647, Note_on_c, 0, 51, 72
2, 37655, Note_on_c, 0, 58, 47
2, 37666, Note_on_c, 0, 82, 106
2, 37667, Note_on_c, 0, 70, 97
2, 37667, Note_on_c, 0, 66, 77
2, 37667, Note_on_c, 0, 78, 87
2, 37667, Control_c, 0, 64, 24
2, 37671, Control_c, 0, 64, 72
2, 37675, Control_c, 0, 64, 127
2, 37679, Note_on_c, 0, 51, 0
2, 37680, Note_on_c, 0, 66, 0
2, 37680, Note_on_c, 0, 70, 0
2, 37680, Note_on_c, 0, 78, 0
2, 37685, Note_on_c, 0, 58, 0
2, 37692, Note_on_c, 0, 82, 0
2, 37723, Note_on_c, 0, 84, 94
2, 37723, Note_on_c, 0, 72, 85
2, 37731, Note_on_c, 0, 77, 52
2, 37738, Note_on_c, 0, 77, 0
2, 37738, Note_on_c, 0, 72, 0
2, 37740, Note_on_c, 0, 84, 0
2, 37743, Control_c, 0, 64, 72
2, 37747, Control_c, 0, 64, 0
2, 37748, Note_on_c, 0, 77, 100
2, 37748, Note_on_c, 0, 85, 109
2, 37750, Note_on_c, 0, 46, 85
2, 37750, Note_on_c, 0, 73, 94
2, 37753, Note_on_c, 0, 53, 73
2, 37762, Note_on_c, 0, 61, 79
2, 37768, Control_c, 0, 64, 56
2, 37769, Note_on_c, 0, 53, 0
2, 37771, Note_on_c, 0, 77, 0
2, 37772, Note_on_c, 0, 46, 0
2, 37772, Note_on_c, 0, 61, 0
2, 37772, Control_c, 0, 64, 127
2, 37774, Note_on_c, 0, 85, 0
2, 37778, Note_on_c, 0, 73, 0
2, 37820, Note_on_c, 0, 39, 71
2, 37822, Control_c, 0, 64, 88
2, 37826, Control_c, 0, 64, 0
2, 37827, Note_on_c, 0, 46, 69
2, 37832, Note_on_c, 0, 85, 107
2, 37833, Note_on_c, 0, 73, 97
2, 37833, Note_on_c, 0, 78, 83
2, 37835, Note_on_c, 0, 75, 89
2, 37837, Note_on_c, 0, 54, 89
2, 37842, Note_on_c, 0, 39, 0
2, 37847, Note_on_c, 0, 54, 0
2, 37847, Control_c, 0, 64, 88
2, 37849, Note_on_c, 0, 46, 0
2, 37850, Note_on_c, 0, 78, 0
2, 37851, Control_c, 0, 64, 127
2, 37855, Note_on_c, 0, 75, 0
2, 37860, Note_on_c, 0, 73, 0
2, 37863, Note_on_c, 0, 85, 0
2, 37897, Note_on_c, 0, 84, 93
2, 37897, Note_on_c, 0, 72, 85
2, 37912, Note_on_c, 0, 72, 0
2, 37912, Note_on_c, 0, 84, 0
2, 37912, Note_on_c, 0, 34, 78
2, 37916, Note_on_c, 0, 41, 78
2, 37916, Control_c, 0, 64, 40
2, 37918, Note_on_c, 0, 82, 88
2, 37920, Note_on_c, 0, 70, 109
2, 37920, Note_on_c, 0, 77, 106
2, 37920, Control_c, 0, 64, 0
2, 37922, Note_on_c, 0, 73, 75
2, 37927, Note_on_c, 0, 49, 91
2, 37928, Note_on_c, 0, 73, 0
2, 37929, Note_on_c, 0, 34, 0
2, 37932, Note_on_c, 0, 41, 0
2, 37933, Control_c, 0, 64, 72
2, 37937, Control_c, 0, 64, 127
2, 37938, Note_on_c, 0, 82, 0
2, 37939, Note_on_c, 0, 49, 0
2, 37943, Note_on_c, 0, 77, 0
2, 37943, Note_on_c, 0, 70, 0
2, 38002, Note_on_c, 0, 39, 64
2, 38002, Control_c, 0, 64, 56
2, 38006, Control_c, 0, 64, 0
2, 38008, Note_on_c, 0, 46, 65
2, 38012, Note_on_c, 0, 80, 110
2, 38013, Note_on_c, 0, 68, 112
2, 38016, Note_on_c, 0, 75, 90
2, 38016, Note_on_c, 0, 70, 94
2, 38018, Note_on_c, 0, 54, 95
2, 38023, Note_on_c, 0, 39, 0
2, 38027, Control_c, 0, 64, 127
2, 38029, Note_on_c, 0, 46, 0
2, 38033, Note_on_c, 0, 54, 0
2, 38040, Note_on_c, 0, 80, 0
2, 38046, Note_on_c, 0, 68, 0
2, 38047, Note_on_c, 0, 75, 0
2, 38068, Note_on_c, 0, 70, 0
2, 38097, Note_on_c, 0, 70, 71
2, 38097, Note_on_c, 0, 66, 97
2, 38097, Note_on_c, 0, 78, 106
2, 38102, Note_on_c, 0, 70, 0
2, 38107, Note_on_c, 0, 66, 0
2, 38108, Note_on_c, 0, 78, 0
2, 38111, Note_on_c, 0, 46, 77
2, 38116, Note_on_c, 0, 53, 80
2, 38118, Note_on_c, 0, 77, 117
2, 38120, Note_on_c, 0, 73, 90
2, 38120, Note_on_c, 0, 70, 85
2, 38120, Note_on_c, 0, 65, 104
2, 38121, Control_c, 0, 64, 88
2, 38125, Control_c, 0, 64, 0
2, 38130, Note_on_c, 0, 61, 83
2, 38143, Note_on_c, 0, 61, 0
2, 38145, Note_on_c, 0, 65, 0
2, 38146, Note_on_c, 0, 53, 0
2, 38146, Control_c, 0, 64, 56
2, 38148, Note_on_c, 0, 77, 0
2, 38149, Note_on_c, 0, 46, 0
2, 38150, Control_c, 0, 64, 127
2, 38152, Note_on_c, 0, 70, 0
2, 38152, Note_on_c, 0, 73, 0
2, 38226, Note_on_c, 0, 33, 84
2, 38227, Note_on_c, 0, 45, 89
2, 38236, Control_c, 0, 64, 104
2, 38238, Control_c, 0, 64, 72
2, 38242, Control_c, 0, 64, 40
2, 38246, Control_c, 0, 64, 0
2, 38247, Note_on_c, 0, 45, 0
2, 38248, Note_on_c, 0, 33, 0
2, 38248, Note_on_c, 0, 34, 81
2, 38253, Note_on_c, 0, 46, 89
2, 38265, Note_on_c, 0, 34, 0
2, 38273, Note_on_c, 0, 46, 0
2, 38273, Note_on_c, 0, 36, 83
2, 38273, Note_on_c, 0, 48, 98
2, 38293, Note_on_c, 0, 37, 87
2, 38296, Note_on_c, 0, 48, 0
2, 38300, Note_on_c, 0, 49, 92
2, 38305, Note_on_c, 0, 36, 0
2, 38320, Note_on_c, 0, 39, 71
2, 38321, Note_on_c, 0, 37, 0
2, 38322, Note_on_c, 0, 51, 92
2, 38323, Note_on_c, 0, 49, 0
2, 38339, Note_on_c, 0, 51, 0
2, 38343, Note_on_c, 0, 41, 83
2, 38345, Note_on_c, 0, 39, 0
2, 38345, Note_on_c, 0, 53, 98
2, 38363, Note_on_c, 0, 41, 0
2, 38366, Note_on_c, 0, 43, 88
2, 38370, Note_on_c, 0, 55, 102
2, 38371, Note_on_c, 0, 53, 0
2, 38392, Note_on_c, 0, 45, 93
2, 38393, Note_on_c, 0, 57, 96
2, 38398, Note_on_c, 0, 43, 0
2, 38401, Note_on_c, 0, 55, 0
2, 38416, Note_on_c, 0, 46, 95
2, 38416, Note_on_c, 0, 58, 88
2, 38417, Note_on_c, 0, 45, 0
2, 38425, Note_on_c, 0, 57, 0
2, 38429, Note_on_c, 0, 58, 0
2, 38436, Note_on_c, 0, 46, 0
2, 38440, Note_on_c, 0, 48, 97
2, 38441, Note_on_c, 0, 60, 90
2, 38460, Note_on_c, 0, 61, 93
2, 38463, Note_on_c, 0, 60, 0
2, 38463, Note_on_c, 0, 49, 91
2, 38468, Note_on_c, 0, 48, 0
2, 38482, Note_on_c, 0, 63, 91
2, 38486, Note_on_c, 0, 61, 0
2, 38486, Note_on_c, 0, 51, 79
2, 38488, Note_on_c, 0, 49, 0
2, 38500, Note_on_c, 0, 63, 0
2, 38505, Note_on_c, 0, 65, 96
2, 38506, Note_on_c, 0, 51, 0
2, 38506, Note_on_c, 0, 53, 97
2, 38524, Note_on_c, 0, 53, 0
2, 38527, Note_on_c, 0, 55, 91
2, 38528, Note_on_c, 0, 67, 98
2, 38533, Note_on_c, 0, 65, 0
2, 38551, Note_on_c, 0, 69, 97
2, 38555, Note_on_c, 0, 57, 86
2, 38559, Note_on_c, 0, 55, 0
2, 38563, Note_on_c, 0, 67, 0
2, 38572, Note_on_c, 0, 70, 90
2, 38575, Note_on_c, 0, 57, 0
2, 38575, Note_on_c, 0, 58, 87
2, 38582, Note_on_c, 0, 69, 0
2, 38584, Note_on_c, 0, 70, 0
2, 38592, Note_on_c, 0, 58, 0
2, 38595, Note_on_c, 0, 72, 103
2, 38595, Note_on_c, 0, 60, 92
2, 38613, Note_on_c, 0, 73, 98
2, 38618, Note_on_c, 0, 61, 89
2, 38620, Note_on_c, 0, 72, 0
2, 38625, Note_on_c, 0, 60, 0
2, 38636, Note_on_c, 0, 75, 94
2, 38638, Note_on_c, 0, 63, 75
2, 38640, Note_on_c, 0, 61, 0
2, 38641, Note_on_c, 0, 73, 0
2, 38656, Note_on_c, 0, 75, 0
2, 38660, Note_on_c, 0, 63, 0
2, 38660, Note_on_c, 0, 77, 104
2, 38660, Note_on_c, 0, 65, 92
2, 38678, Note_on_c, 0, 65, 0
2, 38682, Note_on_c, 0, 67, 85
2, 38682, Note_on_c, 0, 79, 107
2, 38688, Note_on_c, 0, 77, 0
2, 38706, Note_on_c, 0, 81, 98
2, 38710, Note_on_c, 0, 69, 88
2, 38712, Note_on_c, 0, 67, 0
2, 38715, Note_on_c, 0, 79, 0
2, 38726, Note_on_c, 0, 82, 92
2, 38726, Note_on_c, 0, 70, 94
2, 38731, Note_on_c, 0, 69, 0
2, 38733, Note_on_c, 0, 81, 0
2, 38737, Note_on_c, 0, 82, 0
2, 38743, Note_on_c, 0, 70, 0
2, 38747, Note_on_c, 0, 84, 99
2, 38747, Note_on_c, 0, 72, 92
2, 38766, Note_on_c, 0, 85, 100
2, 38766, Note_on_c, 0, 73, 91
2, 38769, Note_on_c, 0, 84, 0
2, 38778, Note_on_c, 0, 72, 0
2, 38786, Note_on_c, 0, 87, 95
2, 38786, Note_on_c, 0, 75, 74
2, 38789, Note_on_c, 0, 85, 0
2, 38789, Note_on_c, 0, 73, 0
2, 38803, Note_on_c, 0, 87, 0
2, 38808, Note_on_c, 0, 75, 0
2, 38808, Note_on_c, 0, 89, 97
2, 38808, Note_on_c, 0, 77, 92
2, 38826, Note_on_c, 0, 77, 0
2, 38831, Note_on_c, 0, 91, 102
2, 38831, Note_on_c, 0, 79, 87
2, 38834, Note_on_c, 0, 89, 0
2, 38856, Note_on_c, 0, 81, 90
2, 38856, Note_on_c, 0, 93, 109
2, 38858, Note_on_c, 0, 79, 0
2, 38864, Note_on_c, 0, 91, 0
2, 38876, Note_on_c, 0, 81, 0
2, 38880, Note_on_c, 0, 82, 100
2, 38880, Note_on_c, 0, 94, 101
2, 38892, Note_on_c, 0, 82, 0
2, 38892, Note_on_c, 0, 93, 0
2, 38900, Control_c, 0, 64, 72
2, 38903, Control_c, 0, 64, 127
2, 38905, Note_on_c, 0, 94, 0
2, 38940, Control_c, 0, 64, 104
2, 38943, Control_c, 0, 64, 40
2, 38947, Control_c, 0, 64, 0
2, 38962, Note_on_c, 0, 96, 107
2, 38962, Note_on_c, 0, 85, 103
2, 38962, Note_on_c, 0, 91, 103
2, 38963, Note_on_c, 0, 94, 95
2, 38965, Note_on_c, 0, 39, 85
2, 38967, Note_on_c, 0, 27, 91
2, 38968, Control_c, 0, 64, 88
2, 38972, Control_c, 0, 64, 127
2, 38974, Note_on_c, 0, 27, 0
2, 38976, Note_on_c, 0, 39, 0
2, 38979, Note_on_c, 0, 96, 0
2, 38979, Note_on_c, 0, 85, 0
2, 38984, Note_on_c, 0, 91, 0
2, 38985, Note_on_c, 0, 94, 0
2, 38998, Note_on_c, 0, 91, 92
2, 38998, Note_on_c, 0, 93, 102
2, 39000, Note_on_c, 0, 84, 92
2, 39001, Note_on_c, 0, 94, 63
2, 39006, Note_on_c, 0, 84, 0
2, 39007, Note_on_c, 0, 94, 0
2, 39013, Note_on_c, 0, 93, 0
2, 39018, Note_on_c, 0, 91, 0
2, 39037, Note_on_c, 0, 94, 110
2, 39038, Note_on_c, 0, 85, 102
2, 39038, Note_on_c, 0, 91, 102
2, 39040, Control_c, 0, 64, 40
2, 39042, Note_on_c, 0, 51, 92
2, 39043, Control_c, 0, 64, 0
2, 39047, Note_on_c, 0, 39, 35
2, 39052, Note_on_c, 0, 51, 0
2, 39053, Note_on_c, 0, 39, 0
2, 39055, Control_c, 0, 64, 56
2, 39056, Note_on_c, 0, 85, 0
2, 39058, Control_c, 0, 64, 127
2, 39059, Note_on_c, 0, 91, 0
2, 39065, Note_on_c, 0, 94, 0
2, 39117, Note_on_c, 0, 96, 115
2, 39118, Note_on_c, 0, 84, 107
2, 39118, Note_on_c, 0, 91, 107
2, 39120, Note_on_c, 0, 75, 100
2, 39120, Note_on_c, 0, 63, 83
2, 39122, Control_c, 0, 64, 104
2, 39126, Control_c, 0, 64, 56
2, 39130, Control_c, 0, 64, 72
2, 39133, Control_c, 0, 64, 127
2, 39135, Note_on_c, 0, 91, 0
2, 39135, Note_on_c, 0, 96, 0
2, 39136, Note_on_c, 0, 63, 0
2, 39138, Note_on_c, 0, 75, 0
2, 39138, Note_on_c, 0, 84, 0
2, 39195, Note_on_c, 0, 92, 116
2, 39196, Note_on_c, 0, 80, 102
2, 39197, Note_on_c, 0, 72, 93
2, 39197, Note_on_c, 0, 77, 95
2, 39197, Note_on_c, 0, 84, 90
2, 39198, Control_c, 0, 64, 104
2, 39200, Note_on_c, 0, 65, 80
2, 39202, Control_c, 0, 64, 40
2, 39205, Control_c, 0, 64, 24
2, 39210, Control_c, 0, 64, 56
2, 39212, Control_c, 0, 64, 127
2, 39213, Note_on_c, 0, 77, 0
2, 39215, Note_on_c, 0, 72, 0
2, 39217, Note_on_c, 0, 80, 0
2, 39217, Note_on_c, 0, 65, 0
2, 39220, Note_on_c, 0, 92, 0
2, 39220, Note_on_c, 0, 84, 0
2, 39277, Note_on_c, 0, 87, 113
2, 39277, Note_on_c, 0, 75, 103
2, 39278, Note_on_c, 0, 80, 99
2, 39282, Note_on_c, 0, 68, 89
2, 39283, Note_on_c, 0, 60, 80
2, 39283, Note_on_c, 0, 72, 87
2, 39292, Control_c, 0, 64, 72
2, 39296, Control_c, 0, 64, 0
2, 39299, Note_on_c, 0, 60, 0
2, 39302, Note_on_c, 0, 75, 0
2, 39306, Control_c, 0, 64, 56
2, 39308, Note_on_c, 0, 68, 0
2, 39308, Note_on_c, 0, 72, 0
2, 39310, Note_on_c, 0, 80, 0
2, 39310, Control_c, 0, 64, 127
2, 39313, Note_on_c, 0, 87, 0
2, 39363, Note_on_c, 0, 89, 112
2, 39363, Note_on_c, 0, 80, 95
2, 39365, Note_on_c, 0, 77, 106
2, 39366, Note_on_c, 0, 68, 85
2, 39367, Note_on_c, 0, 73, 95
2, 39367, Note_on_c, 0, 61, 81
2, 39367, Control_c, 0, 64, 24
2, 39371, Note_on_c, 0, 87, 53
2, 39371, Control_c, 0, 64, 0
2, 39377, Note_on_c, 0, 87, 0
2, 39379, Note_on_c, 0, 73, 0
2, 39381, Note_on_c, 0, 89, 0
2, 39381, Control_c, 0, 64, 72
2, 39382, Note_on_c, 0, 68, 0
2, 39382, Note_on_c, 0, 77, 0
2, 39383, Note_on_c, 0, 61, 0
2, 39385, Control_c, 0, 64, 127
2, 39388, Note_on_c, 0, 80, 0
2, 39466, Note_on_c, 0, 63, 107
2, 39467, Note_on_c, 0, 55, 103
2, 39467, Note_on_c, 0, 61, 97
2, 39472, Note_on_c, 0, 51, 113
2, 39473, Note_on_c, 0, 39, 96
2, 39478, Control_c, 0, 64, 24
2, 39482, Control_c, 0, 64, 0
2, 39484, Note_on_c, 0, 55, 0
2, 39500, Control_c, 0, 64, 104
2, 39503, Control_c, 0, 64, 127
2, 39509, Note_on_c, 0, 51, 0
2, 39509, Note_on_c, 0, 39, 0
2, 39527, Note_on_c, 0, 61, 0
2, 39527, Note_on_c, 0, 63, 0
2, 39533, Note_on_c, 0, 55, 88
2, 39548, Note_on_c, 0, 61, 90
2, 39553, Note_on_c, 0, 55, 0
2, 39566, Note_on_c, 0, 63, 90
2, 39568, Note_on_c, 0, 61, 0
2, 39586, Note_on_c, 0, 63, 0
2, 39591, Note_on_c, 0, 70, 110
2, 39692, Note_on_c, 0, 39, 113
2, 39692, Note_on_c, 0, 27, 115
2, 39715, Note_on_c, 0, 27, 0
2, 39717, Note_on_c, 0, 39, 0
2, 39739, Note_on_c, 0, 70, 0
2, 39823, Note_on_c, 0, 68, 105
2, 39823, Control_c, 0, 64, 100
2, 39826, Note_on_c, 0, 56, 91
2, 39826, Note_on_c, 0, 60, 98
2, 39828, Note_on_c, 0, 44, 105
2, 39828, Note_on_c, 0, 32, 91
2, 39845, Control_c, 0, 64, 40
2, 39848, Control_c, 0, 64, 0
2, 40018, Note_on_c, 0, 32, 0
2, 40020, Note_on_c, 0, 44, 0
2, 40034, Note_on_c, 0, 56, 0
2, 40036, Note_on_c, 0, 60, 0
2, 40036, Note_on_c, 0, 68, 0
2, 40181, Note_on_c, 0, 56, 70
2, 40183, Control_c, 0, 64, 40
2, 40185, Note_on_c, 0, 40, 67
2, 40187, Control_c, 0, 64, 88
2, 40191, Control_c, 0, 64, 127
2, 40193, Note_on_c, 0, 47, 76
2, 40195, Note_on_c, 0, 59, 74
2, 40206, Note_on_c, 0, 56, 0
2, 40210, Note_on_c, 0, 40, 0
2, 40212, Note_on_c, 0, 64, 74
2, 40213, Note_on_c, 0, 52, 92
2, 40217, Note_on_c, 0, 68, 86
2, 40220, Note_on_c, 0, 59, 0
2, 40223, Note_on_c, 0, 47, 0
2, 40226, Note_on_c, 0, 52, 0
2, 40227, Note_on_c, 0, 64, 0
2, 40232, Note_on_c, 0, 68, 0
2, 40365, Note_on_c, 0, 56, 64
2, 40366, Note_on_c, 0, 40, 62
2, 40373, Note_on_c, 0, 47, 71
2, 40376, Note_on_c, 0, 59, 78
2, 40388, Note_on_c, 0, 56, 0
2, 40388, Note_on_c, 0, 64, 76
2, 40391, Note_on_c, 0, 40, 0
2, 40391, Note_on_c, 0, 52, 85
2, 40393, Note_on_c, 0, 68, 92
2, 40399, Note_on_c, 0, 59, 0
2, 40404, Note_on_c, 0, 47, 0
2, 40408, Note_on_c, 0, 64, 0
2, 40409, Note_on_c, 0, 52, 0
2, 40413, Note_on_c, 0, 68, 0
2, 40555, Note_on_c, 0, 40, 63
2, 40556, Note_on_c, 0, 56, 78
2, 40561, Note_on_c, 0, 47, 76
2, 40566, Note_on_c, 0, 59, 77
2, 40578, Note_on_c, 0, 56, 0
2, 40578, Note_on_c, 0, 40, 0
2, 40578, Note_on_c, 0, 64, 76
2, 40581, Note_on_c, 0, 68, 93
2, 40581, Note_on_c, 0, 52, 94
2, 40586, Note_on_c, 0, 59, 0
2, 40591, Note_on_c, 0, 47, 0
2, 40594, Note_on_c, 0, 64, 0
2, 40596, Note_on_c, 0, 52, 0
2, 40601, Note_on_c, 0, 68, 0
2, 40721, Note_on_c, 0, 56, 61
2, 40730, Note_on_c, 0, 40, 63
2, 40738, Note_on_c, 0, 59, 73
2, 40743, Note_on_c, 0, 47, 62
2, 40748, Note_on_c, 0, 56, 0
2, 40752, Note_on_c, 0, 64, 71
2, 40757, Note_on_c, 0, 68, 94
2, 40758, Note_on_c, 0, 40, 0
2, 40760, Note_on_c, 0, 59, 0
2, 40762, Note_on_c, 0, 52, 96
2, 40768, Note_on_c, 0, 64, 0
2, 40773, Note_on_c, 0, 47, 0
2, 40775, Note_on_c, 0, 68, 0
2, 40778, Note_on_c, 0, 52, 0
2, 40902, Note_on_c, 0, 56, 54
2, 40921, Note_on_c, 0, 59, 76
2, 40923, Note_on_c, 0, 40, 61
2, 40933, Note_on_c, 0, 56, 0
2, 40933, Note_on_c, 0, 64, 77
2, 40935, Note_on_c, 0, 47, 76
2, 40942, Note_on_c, 0, 68, 89
2, 40946, Note_on_c, 0, 59, 0
2, 40949, Note_on_c, 0, 40, 0
2, 40951, Note_on_c, 0, 52, 94
2, 40953, Note_on_c, 0, 64, 0
2, 40959, Note_on_c, 0, 68, 0
2, 40960, Note_on_c, 0, 47, 0
2, 40963, Note_on_c, 0, 52, 0
2, 41100, Note_on_c, 0, 40, 56
2, 41103, Note_on_c, 0, 56, 66
2, 41115, Note_on_c, 0, 59, 75
2, 41117, Note_on_c, 0, 47, 71
2, 41128, Note_on_c, 0, 56, 0
2, 41128, Note_on_c, 0, 64, 81
2, 41130, Note_on_c, 0, 40, 0
2, 41135, Note_on_c, 0, 68, 90
2, 41136, Note_on_c, 0, 52, 94
2, 41137, Note_on_c, 0, 59, 0
2, 41143, Note_on_c, 0, 47, 0
2, 41144, Note_on_c, 0, 64, 0
2, 41148, Note_on_c, 0, 52, 0
2, 41151, Note_on_c, 0, 68, 0
2, 41258, Note_on_c, 0, 40, 73
2, 41267, Note_on_c, 0, 47, 89
2, 41281, Note_on_c, 0, 40, 0
2, 41285, Note_on_c, 0, 56, 77
2, 41286, Note_on_c, 0, 52, 81
2, 41289, Note_on_c, 0, 47, 0
2, 41293, Note_on_c, 0, 52, 0
2, 41297, Note_on_c, 0, 59, 76
2, 41307, Note_on_c, 0, 56, 0
2, 41313, Note_on_c, 0, 64, 75
2, 41325, Note_on_c, 0, 59, 0
2, 41325, Note_on_c, 0, 68, 98
2, 41325, Control_c, 0, 64, 0
2, 41334, Note_on_c, 0, 64, 0
2, 41363, Note_on_c, 0, 51, 71
2, 41367, Note_on_c, 0, 39, 54
2, 41379, Note_on_c, 0, 51, 0
2, 41380, Note_on_c, 0, 39, 0
2, 41390, Note_on_c, 0, 68, 0
2, 41405, Note_on_c, 0, 49, 69
2, 41405, Note_on_c, 0, 37, 47
2, 41416, Note_on_c, 0, 37, 0
2, 41418, Note_on_c, 0, 49, 0
2, 41438, Note_on_c, 0, 47, 85
2, 41441, Note_on_c, 0, 35, 65
2, 41448, Note_on_c, 0, 35, 0
2, 41454, Note_on_c, 0, 47, 0
2, 41478, Note_on_c, 0, 52, 80
2, 41480, Note_on_c, 0, 40, 61
2, 41490, Note_on_c, 0, 40, 0
2, 41494, Note_on_c, 0, 52, 0
2, 41516, Note_on_c, 0, 51, 72
2, 41517, Note_on_c, 0, 39, 60
2, 41527, Note_on_c, 0, 39, 0
2, 41531, Note_on_c, 0, 51, 0
2, 41557, Note_on_c, 0, 49, 55
2, 41557, Note_on_c, 0, 37, 43
2, 41564, Note_on_c, 0, 49, 0
2, 41568, Note_on_c, 0, 37, 0
2, 41591, Note_on_c, 0, 47, 69
2, 41592, Note_on_c, 0, 35, 60
2, 41600, Note_on_c, 0, 35, 0
2, 41603, Note_on_c, 0, 47, 0
2, 41627, Note_on_c, 0, 52, 80
2, 41628, Note_on_c, 0, 40, 60
2, 41638, Note_on_c, 0, 40, 0
2, 41640, Note_on_c, 0, 52, 0
2, 41663, Note_on_c, 0, 51, 77
2, 41665, Note_on_c, 0, 39, 56
2, 41672, Note_on_c, 0, 39, 0
2, 41676, Note_on_c, 0, 51, 0
2, 41701, Note_on_c, 0, 49, 72
2, 41701, Note_on_c, 0, 37, 52
2, 41713, Note_on_c, 0, 49, 0
2, 41714, Note_on_c, 0, 37, 0
2, 41737, Note_on_c, 0, 47, 73
2, 41740, Note_on_c, 0, 35, 58
2, 41748, Note_on_c, 0, 35, 0
2, 41750, Note_on_c, 0, 47, 0
2, 41773, Note_on_c, 0, 52, 80
2, 41775, Note_on_c, 0, 40, 61
2, 41785, Note_on_c, 0, 40, 0
2, 41788, Note_on_c, 0, 52, 0
2, 41811, Note_on_c, 0, 51, 72
2, 41812, Note_on_c, 0, 39, 56
2, 41820, Note_on_c, 0, 39, 0
2, 41823, Note_on_c, 0, 51, 0
2, 41847, Note_on_c, 0, 49, 70
2, 41850, Note_on_c, 0, 37, 48
2, 41860, Note_on_c, 0, 37, 0
2, 41860, Note_on_c, 0, 49, 0
2, 41882, Note_on_c, 0, 47, 69
2, 41886, Note_on_c, 0, 35, 58
2, 41893, Note_on_c, 0, 35, 0
2, 41897, Note_on_c, 0, 47, 0
2, 41920, Note_on_c, 0, 52, 78
2, 41921, Note_on_c, 0, 40, 59
2, 41931, Note_on_c, 0, 40, 0
2, 41933, Note_on_c, 0, 52, 0
2, 41957, Note_on_c, 0, 51, 67
2, 41958, Note_on_c, 0, 39, 56
2, 41965, Note_on_c, 0, 39, 0
2, 41967, Note_on_c, 0, 51, 0
2, 41992, Note_on_c, 0, 49, 68
2, 41993, Note_on_c, 0, 37, 53
2, 42004, Note_on_c, 0, 37, 0
2, 42004, Note_on_c, 0, 49, 0
2, 42027, Note_on_c, 0, 47, 67
2, 42030, Note_on_c, 0, 35, 61
2, 42038, Note_on_c, 0, 35, 0
2, 42038, Note_on_c, 0, 47, 0
2, 42065, Note_on_c, 0, 52, 78
2, 42065, Note_on_c, 0, 40, 53
2, 42076, Note_on_c, 0, 40, 0
2, 42076, Note_on_c, 0, 52, 0
2, 42101, Note_on_c, 0, 51, 68
2, 42101, Note_on_c, 0, 39, 62
2, 42116, Note_on_c, 0, 39, 0
2, 42117, Note_on_c, 0, 51, 0
2, 42131, Note_on_c, 0, 37, 57
2, 42136, Note_on_c, 0, 49, 64
2, 42151, Note_on_c, 0, 37, 0
2, 42154, Note_on_c, 0, 49, 0
2, 42168, Note_on_c, 0, 47, 60
2, 42170, Note_on_c, 0, 35, 68
2, 42174, Note_on_c, 0, 47, 0
2, 42177, Note_on_c, 0, 35, 0
2, 42211, Note_on_c, 0, 56, 68
2, 42212, Note_on_c, 0, 52, 77
2, 42213, Note_on_c, 0, 40, 57
2, 42215, Note_on_c, 0, 59, 79
2, 42218, Note_on_c, 0, 52, 0
2, 42223, Note_on_c, 0, 40, 0
2, 42246, Note_on_c, 0, 51, 67
2, 42246, Note_on_c, 0, 39, 50
2, 42251, Note_on_c, 0, 39, 0
2, 42252, Note_on_c, 0, 51, 0
2, 42282, Note_on_c, 0, 49, 60
2, 42282, Note_on_c, 0, 37, 60
2, 42287, Note_on_c, 0, 49, 0
2, 42289, Note_on_c, 0, 37, 0
2, 42322, Note_on_c, 0, 35, 59
2, 42323, Note_on_c, 0, 47, 51
2, 42329, Note_on_c, 0, 47, 0
2, 42329, Note_on_c, 0, 35, 0
2, 42357, Note_on_c, 0, 52, 76
2, 42358, Note_on_c, 0, 40, 68
2, 42362, Note_on_c, 0, 52, 0
2, 42364, Note_on_c, 0, 40, 0
2, 42392, Note_on_c, 0, 39, 60
2, 42393, Note_on_c, 0, 51, 67
2, 42398, Note_on_c, 0, 39, 0
2, 42399, Note_on_c, 0, 51, 0
2, 42425, Note_on_c, 0, 49, 70
2, 42425, Note_on_c, 0, 37, 61
2, 42431, Note_on_c, 0, 37, 0
2, 42431, Note_on_c, 0, 49, 0
2, 42461, Note_on_c, 0, 47, 69
2, 42462, Note_on_c, 0, 59, 0
2, 42465, Note_on_c, 0, 35, 48
2, 42466, Note_on_c, 0, 47, 0
2, 42466, Note_on_c, 0, 56, 0
2, 42471, Note_on_c, 0, 35, 0
2, 42496, Note_on_c, 0, 59, 88
2, 42498, Note_on_c, 0, 57, 74
2, 42501, Note_on_c, 0, 52, 74
2, 42501, Note_on_c, 0, 40, 60
2, 42507, Note_on_c, 0, 52, 0
2, 42508, Note_on_c, 0, 40, 0
2, 42519, Note_on_c, 0, 57, 0
2, 42533, Note_on_c, 0, 51, 70
2, 42535, Note_on_c, 0, 39, 54
2, 42538, Note_on_c, 0, 51, 0
2, 42542, Note_on_c, 0, 39, 0
2, 42565, Note_on_c, 0, 49, 66
2, 42565, Note_on_c, 0, 37, 60
2, 42571, Note_on_c, 0, 49, 0
2, 42572, Note_on_c, 0, 37, 0
2, 42573, Note_on_c, 0, 59, 0
2, 42600, Note_on_c, 0, 59, 80
2, 42603, Note_on_c, 0, 57, 73
2, 42607, Note_on_c, 0, 35, 49
2, 42615, Note_on_c, 0, 35, 0
2, 42616, Note_on_c, 0, 57, 0
2, 42617, Note_on_c, 0, 59, 0
2, 42640, Note_on_c, 0, 59, 90
2, 42640, Note_on_c, 0, 56, 64
2, 42641, Note_on_c, 0, 52, 75
2, 42641, Note_on_c, 0, 40, 60
2, 42647, Note_on_c, 0, 52, 0
2, 42648, Note_on_c, 0, 40, 0
2, 42675, Note_on_c, 0, 51, 71
2, 42677, Note_on_c, 0, 39, 50
2, 42682, Note_on_c, 0, 51, 0
2, 42683, Note_on_c, 0, 39, 0
2, 42710, Note_on_c, 0, 49, 69
2, 42710, Note_on_c, 0, 37, 60
2, 42716, Note_on_c, 0, 49, 0
2, 42717, Note_on_c, 0, 37, 0
2, 42718, Note_on_c, 0, 56, 0
2, 42730, Note_on_c, 0, 59, 0
2, 42741, Note_on_c, 0, 56, 62
2, 42743, Note_on_c, 0, 64, 74
2, 42743, Note_on_c, 0, 59, 74
2, 42747, Note_on_c, 0, 47, 72
2, 42748, Note_on_c, 0, 35, 63
2, 42752, Note_on_c, 0, 47, 0
2, 42754, Note_on_c, 0, 59, 0
2, 42754, Note_on_c, 0, 35, 0
2, 42754, Note_on_c, 0, 56, 0
2, 42755, Note_on_c, 0, 64, 0
2, 42778, Note_on_c, 0, 68, 88
2, 42780, Note_on_c, 0, 59, 73
2, 42781, Note_on_c, 0, 56, 59
2, 42782, Note_on_c, 0, 52, 74
2, 42785, Note_on_c, 0, 40, 66
2, 42788, Note_on_c, 0, 52, 0
2, 42792, Note_on_c, 0, 40, 0
2, 42816, Note_on_c, 0, 51, 61
2, 42816, Note_on_c, 0, 39, 61
2, 42821, Note_on_c, 0, 39, 0
2, 42822, Note_on_c, 0, 51, 0
2, 42853, Note_on_c, 0, 49, 57
2, 42853, Note_on_c, 0, 37, 60
2, 42859, Note_on_c, 0, 49, 0
2, 42860, Note_on_c, 0, 37, 0
2, 42887, Note_on_c, 0, 47, 71
2, 42890, Note_on_c, 0, 35, 54
2, 42892, Note_on_c, 0, 47, 0
2, 42896, Note_on_c, 0, 35, 0
2, 42900, Note_on_c, 0, 59, 0
2, 42902, Note_on_c, 0, 56, 0
2, 42903, Note_on_c, 0, 68, 0
2, 42922, Note_on_c, 0, 66, 84
2, 42926, Note_on_c, 0, 52, 76
2, 42926, Note_on_c, 0, 59, 66
2, 42927, Note_on_c, 0, 57, 60
2, 42930, Note_on_c, 0, 40, 35
2, 42931, Note_on_c, 0, 52, 0
2, 42937, Note_on_c, 0, 40, 0
2, 42957, Note_on_c, 0, 51, 68
2, 42960, Note_on_c, 0, 39, 54
2, 42964, Note_on_c, 0, 51, 0
2, 42966, Note_on_c, 0, 39, 0
2, 42993, Note_on_c, 0, 49, 63
2, 42993, Note_on_c, 0, 37, 60
2, 43000, Note_on_c, 0, 37, 0
2, 43000, Note_on_c, 0, 49, 0
2, 43027, Note_on_c, 0, 57, 0
2, 43028, Note_on_c, 0, 47, 74
2, 43029, Note_on_c, 0, 59, 0
2, 43031, Note_on_c, 0, 35, 65
2, 43034, Note_on_c, 0, 47, 0
2, 43037, Note_on_c, 0, 35, 0
2, 43047, Note_on_c, 0, 66, 0
2, 43067, Note_on_c, 0, 59, 86
2, 43068, Note_on_c, 0, 56, 54
2, 43070, Note_on_c, 0, 52, 75
2, 43071, Note_on_c, 0, 40, 67
2, 43075, Note_on_c, 0, 52, 0
2, 43077, Note_on_c, 0, 40, 0
2, 43102, Note_on_c, 0, 51, 61
2, 43103, Note_on_c, 0, 39, 50
2, 43108, Note_on_c, 0, 51, 0
2, 43109, Note_on_c, 0, 39, 0
2, 43135, Note_on_c, 0, 49, 70
2, 43135, Note_on_c, 0, 37, 60
2, 43141, Note_on_c, 0, 56, 0
2, 43142, Note_on_c, 0, 37, 0
2, 43145, Note_on_c, 0, 49, 0
2, 43157, Note_on_c, 0, 59, 0
2, 43170, Note_on_c, 0, 64, 87
2, 43170, Note_on_c, 0, 56, 67
2, 43172, Note_on_c, 0, 47, 74
2, 43176, Note_on_c, 0, 35, 65
2, 43178, Note_on_c, 0, 47, 0
2, 43182, Note_on_c, 0, 35, 0
2, 43183, Note_on_c, 0, 56, 0
2, 43191, Note_on_c, 0, 64, 0
2, 43206, Note_on_c, 0, 56, 75
2, 43207, Note_on_c, 0, 68, 88
2, 43210, Note_on_c, 0, 52, 77
2, 43213, Note_on_c, 0, 40, 45
2, 43215, Note_on_c, 0, 52, 0
2, 43220, Note_on_c, 0, 40, 0
2, 43243, Note_on_c, 0, 51, 68
2, 43246, Note_on_c, 0, 39, 52
2, 43249, Note_on_c, 0, 51, 0
2, 43251, Note_on_c, 0, 39, 0
2, 43276, Note_on_c, 0, 49, 72
2, 43276, Note_on_c, 0, 37, 65
2, 43283, Note_on_c, 0, 37, 0
2, 43284, Note_on_c, 0, 56, 0
2, 43286, Note_on_c, 0, 49, 0
2, 43311, Note_on_c, 0, 63, 74
2, 43312, Note_on_c, 0, 57, 64
2, 43315, Note_on_c, 0, 47, 73
2, 43316, Note_on_c, 0, 35, 66
2, 43319, Note_on_c, 0, 57, 0
2, 43320, Note_on_c, 0, 68, 0
2, 43321, Note_on_c, 0, 47, 0
2, 43322, Note_on_c, 0, 35, 0
2, 43332, Note_on_c, 0, 63, 0
2, 43346, Note_on_c, 0, 64, 90
2, 43347, Note_on_c, 0, 56, 67
2, 43348, Note_on_c, 0, 52, 80
2, 43353, Note_on_c, 0, 40, 63
2, 43356, Note_on_c, 0, 52, 0
2, 43357, Note_on_c, 0, 56, 0
2, 43359, Note_on_c, 0, 40, 0
2, 43362, Note_on_c, 0, 64, 0
2, 43382, Note_on_c, 0, 51, 71
2, 43385, Note_on_c, 0, 39, 55
2, 43388, Note_on_c, 0, 51, 0
2, 43390, Note_on_c, 0, 39, 0
2, 43417, Note_on_c, 0, 56, 83
2, 43417, Note_on_c, 0, 68, 86
2, 43420, Note_on_c, 0, 64, 80
2, 43420, Note_on_c, 0, 49, 75
2, 43425, Note_on_c, 0, 64, 0
2, 43425, Note_on_c, 0, 37, 35
2, 43428, Note_on_c, 0, 49, 0
2, 43429, Note_on_c, 0, 56, 0
2, 43431, Note_on_c, 0, 37, 0
2, 43434, Note_on_c, 0, 68, 0
2, 43456, Note_on_c, 0, 47, 66
2, 43458, Note_on_c, 0, 35, 60
2, 43462, Note_on_c, 0, 47, 0
2, 43464, Note_on_c, 0, 35, 0
2, 43490, Note_on_c, 0, 71, 95
2, 43491, Note_on_c, 0, 59, 81
2, 43492, Note_on_c, 0, 68, 77
2, 43495, Note_on_c, 0, 52, 80
2, 43497, Note_on_c, 0, 40, 70
2, 43498, Control_c, 0, 64, 24
2, 43502, Note_on_c, 0, 52, 0
2, 43502, Control_c, 0, 64, 72
2, 43503, Note_on_c, 0, 40, 0
2, 43505, Control_c, 0, 64, 104
2, 43506, Note_on_c, 0, 59, 0
2, 43515, Note_on_c, 0, 68, 0
2, 43515, Note_on_c, 0, 71, 0
2, 43518, Control_c, 0, 64, 127
2, 43530, Note_on_c, 0, 51, 69
2, 43532, Note_on_c, 0, 39, 39
2, 43535, Note_on_c, 0, 51, 0
2, 43539, Note_on_c, 0, 39, 0
2, 43548, Control_c, 0, 64, 104
2, 43552, Control_c, 0, 64, 72
2, 43556, Control_c, 0, 64, 56
2, 43560, Control_c, 0, 64, 24
2, 43562, Note_on_c, 0, 73, 91
2, 43562, Note_on_c, 0, 61, 81
2, 43562, Control_c, 0, 64, 0
2, 43565, Note_on_c, 0, 49, 68
2, 43565, Note_on_c, 0, 68, 70
2, 43573, Note_on_c, 0, 49, 0
2, 43574, Note_on_c, 0, 61, 0
2, 43578, Note_on_c, 0, 73, 0
2, 43581, Note_on_c, 0, 68, 0
2, 43597, Note_on_c, 0, 75, 90
2, 43597, Note_on_c, 0, 63, 73
2, 43598, Note_on_c, 0, 68, 73
2, 43601, Note_on_c, 0, 47, 66
2, 43605, Note_on_c, 0, 35, 50
2, 43606, Note_on_c, 0, 47, 0
2, 43609, Note_on_c, 0, 63, 0
2, 43612, Note_on_c, 0, 35, 0
2, 43613, Note_on_c, 0, 68, 0
2, 43618, Note_on_c, 0, 75, 0
2, 43633, Note_on_c, 0, 68, 92
2, 43633, Note_on_c, 0, 76, 104
2, 43636, Note_on_c, 0, 64, 84
2, 43638, Note_on_c, 0, 52, 83
2, 43641, Note_on_c, 0, 64, 0
2, 43641, Note_on_c, 0, 40, 74
2, 43644, Note_on_c, 0, 52, 0
2, 43644, Note_on_c, 0, 76, 0
2, 43645, Note_on_c, 0, 68, 0
2, 43647, Note_on_c, 0, 40, 0
2, 43671, Note_on_c, 0, 51, 83
2, 43672, Note_on_c, 0, 39, 69
2, 43678, Note_on_c, 0, 39, 0
2, 43682, Note_on_c, 0, 51, 0
2, 43707, Note_on_c, 0, 71, 97
2, 43707, Note_on_c, 0, 59, 90
2, 43708, Note_on_c, 0, 68, 79
2, 43710, Note_on_c, 0, 49, 77
2, 43713, Note_on_c, 0, 37, 48
2, 43718, Note_on_c, 0, 59, 0
2, 43719, Note_on_c, 0, 37, 0
2, 43721, Note_on_c, 0, 49, 0
2, 43723, Note_on_c, 0, 68, 0
2, 43724, Note_on_c, 0, 71, 0
2, 43745, Note_on_c, 0, 47, 89
2, 43748, Note_on_c, 0, 35, 76
2, 43753, Note_on_c, 0, 35, 0
2, 43753, Note_on_c, 0, 47, 0
2, 43782, Note_on_c, 0, 80, 110
2, 43782, Note_on_c, 0, 68, 95
2, 43783, Note_on_c, 0, 71, 97
2, 43787, Note_on_c, 0, 52, 84
2, 43790, Note_on_c, 0, 40, 75
2, 43793, Note_on_c, 0, 52, 0
2, 43796, Note_on_c, 0, 40, 0
2, 43797, Control_c, 0, 64, 40
2, 43800, Control_c, 0, 64, 72
2, 43803, Control_c, 0, 64, 104
2, 43807, Control_c, 0, 64, 127
2, 43817, Control_c, 0, 64, 104
2, 43820, Control_c, 0, 64, 72
2, 43821, Note_on_c, 0, 51, 83
2, 43823, Note_on_c, 0, 39, 68
2, 43825, Control_c, 0, 64, 24
2, 43827, Control_c, 0, 64, 0
2, 43828, Note_on_c, 0, 39, 0
2, 43831, Note_on_c, 0, 51, 0
2, 43841, Control_c, 0, 64, 24
2, 43845, Control_c, 0, 64, 72
2, 43847, Control_c, 0, 64, 127
2, 43857, Note_on_c, 0, 49, 68
2, 43862, Note_on_c, 0, 37, 36
2, 43863, Note_on_c, 0, 80, 0
2, 43866, Note_on_c, 0, 71, 0
2, 43867, Note_on_c, 0, 49, 0
2, 43868, Note_on_c, 0, 37, 0
2, 43872, Note_on_c, 0, 68, 0
2, 43895, Note_on_c, 0, 47, 81
2, 43897, Note_on_c, 0, 35, 70
2, 43901, Note_on_c, 0, 47, 0
2, 43903, Note_on_c, 0, 35, 0
2, 43906, Control_c, 0, 64, 104
2, 43908, Control_c, 0, 64, 72
2, 43912, Control_c, 0, 64, 24
2, 43916, Control_c, 0, 64, 0
2, 43935, Note_on_c, 0, 71, 92
2, 43936, Note_on_c, 0, 52, 80
2, 43936, Note_on_c, 0, 69, 83
2, 43936, Note_on_c, 0, 59, 83
2, 43938, Note_on_c, 0, 40, 70
2, 43942, Note_on_c, 0, 52, 0
2, 43942, Note_on_c, 0, 66, 65
2, 43943, Note_on_c, 0, 40, 0
2, 43970, Note_on_c, 0, 51, 67
2, 43972, Note_on_c, 0, 39, 60
2, 43977, Note_on_c, 0, 51, 0
2, 43978, Note_on_c, 0, 39, 0
2, 44006, Note_on_c, 0, 49, 68
2, 44006, Note_on_c, 0, 37, 65
2, 44013, Note_on_c, 0, 37, 0
2, 44014, Note_on_c, 0, 49, 0
2, 44046, Note_on_c, 0, 47, 74
2, 44047, Note_on_c, 0, 35, 66
2, 44052, Note_on_c, 0, 47, 0
2, 44053, Note_on_c, 0, 35, 0
2, 44083, Note_on_c, 0, 52, 75
2, 44088, Note_on_c, 0, 52, 0
2, 44088, Note_on_c, 0, 40, 41
2, 44095, Note_on_c, 0, 40, 0
2, 44107, Note_on_c, 0, 66, 0
2, 44111, Note_on_c, 0, 59, 0
2, 44115, Note_on_c, 0, 51, 74
2, 44116, Note_on_c, 0, 39, 66
2, 44117, Note_on_c, 0, 69, 0
2, 44118, Note_on_c, 0, 71, 0
2, 44121, Note_on_c, 0, 51, 0
2, 44121, Note_on_c, 0, 39, 0
2, 44148, Note_on_c, 0, 71, 87
2, 44148, Note_on_c, 0, 59, 82
2, 44151, Note_on_c, 0, 69, 85
2, 44152, Note_on_c, 0, 49, 69
2, 44156, Note_on_c, 0, 37, 41
2, 44158, Note_on_c, 0, 49, 0
2, 44159, Note_on_c, 0, 69, 0
2, 44161, Note_on_c, 0, 71, 0
2, 44161, Note_on_c, 0, 59, 0
2, 44162, Note_on_c, 0, 37, 0
2, 44183, Note_on_c, 0, 71, 88
2, 44185, Note_on_c, 0, 59, 80
2, 44186, Note_on_c, 0, 69, 82
2, 44188, Note_on_c, 0, 47, 72
2, 44191, Note_on_c, 0, 35, 56
2, 44192, Note_on_c, 0, 69, 0
2, 44193, Note_on_c, 0, 47, 0
2, 44196, Note_on_c, 0, 59, 0
2, 44197, Note_on_c, 0, 35, 0
2, 44198, Note_on_c, 0, 71, 0
2, 44220, Note_on_c, 0, 59, 78
2, 44222, Note_on_c, 0, 71, 82
2, 44222, Note_on_c, 0, 69, 76
2, 44223, Note_on_c, 0, 52, 80
2, 44226, Note_on_c, 0, 40, 57
2, 44227, Note_on_c, 0, 59, 0
2, 44228, Note_on_c, 0, 52, 0
2, 44228, Note_on_c, 0, 69, 0
2, 44229, Note_on_c, 0, 71, 0
2, 44234, Note_on_c, 0, 40, 0
2, 44257, Note_on_c, 0, 51, 73
2, 44258, Note_on_c, 0, 39, 59
2, 44263, Note_on_c, 0, 39, 0
2, 44263, Note_on_c, 0, 51, 0
2, 44293, Note_on_c, 0, 49, 78
2, 44296, Note_on_c, 0, 59, 83
2, 44296, Note_on_c, 0, 71, 87
2, 44296, Note_on_c, 0, 69, 84
2, 44297, Note_on_c, 0, 37, 59
2, 44302, Note_on_c, 0, 37, 0
2, 44304, Note_on_c, 0, 49, 0
2, 44308, Note_on_c, 0, 59, 0
2, 44309, Note_on_c, 0, 71, 0
2, 44309, Note_on_c, 0, 69, 0
2, 44333, Note_on_c, 0, 47, 68
2, 44338, Note_on_c, 0, 35, 35
2, 44339, Note_on_c, 0, 47, 0
2, 44344, Note_on_c, 0, 35, 0
2, 44373, Note_on_c, 0, 71, 100
2, 44375, Note_on_c, 0, 59, 89
2, 44375, Note_on_c, 0, 52, 77
2, 44375, Note_on_c, 0, 68, 78
2, 44376, Note_on_c, 0, 40, 69
2, 44380, Note_on_c, 0, 52, 0
2, 44382, Note_on_c, 0, 40, 0
2, 44387, Control_c, 0, 64, 56
2, 44391, Control_c, 0, 64, 104
2, 44393, Control_c, 0, 64, 127
2, 44408, Note_on_c, 0, 51, 74
2, 44410, Note_on_c, 0, 39, 57
2, 44413, Note_on_c, 0, 59, 0
2, 44414, Note_on_c, 0, 51, 0
2, 44416, Note_on_c, 0, 39, 0
2, 44426, Note_on_c, 0, 71, 0
2, 44426, Note_on_c, 0, 68, 0
2, 44447, Note_on_c, 0, 49, 62
2, 44451, Note_on_c, 0, 37, 37
2, 44453, Note_on_c, 0, 49, 0
2, 44457, Note_on_c, 0, 37, 0
2, 44465, Control_c, 0, 64, 88
2, 44468, Control_c, 0, 64, 40
2, 44472, Control_c, 0, 64, 0
2, 44483, Note_on_c, 0, 76, 98
2, 44483, Note_on_c, 0, 64, 84
2, 44483, Note_on_c, 0, 68, 75
2, 44487, Note_on_c, 0, 35, 55
2, 44490, Note_on_c, 0, 47, 29
2, 44493, Note_on_c, 0, 35, 0
2, 44495, Note_on_c, 0, 47, 0
2, 44496, Note_on_c, 0, 68, 0
2, 44496, Note_on_c, 0, 64, 0
2, 44498, Note_on_c, 0, 76, 0
2, 44522, Note_on_c, 0, 76, 103
2, 44522, Note_on_c, 0, 64, 86
2, 44522, Note_on_c, 0, 68, 86
2, 44523, Note_on_c, 0, 52, 81
2, 44527, Note_on_c, 0, 40, 67
2, 44529, Note_on_c, 0, 52, 0
2, 44533, Note_on_c, 0, 40, 0
2, 44553, Control_c, 0, 64, 24
2, 44556, Note_on_c, 0, 51, 74
2, 44556, Note_on_c, 0, 39, 56
2, 44556, Control_c, 0, 64, 72
2, 44560, Control_c, 0, 64, 104
2, 44562, Note_on_c, 0, 39, 0
2, 44562, Control_c, 0, 64, 127
2, 44564, Note_on_c, 0, 51, 0
2, 44588, Note_on_c, 0, 76, 0
2, 44590, Control_c, 0, 64, 104
2, 44593, Note_on_c, 0, 49, 64
2, 44593, Note_on_c, 0, 37, 65
2, 44597, Note_on_c, 0, 64, 0
2, 44597, Control_c, 0, 64, 72
2, 44598, Note_on_c, 0, 68, 0
2, 44598, Note_on_c, 0, 49, 0
2, 44600, Note_on_c, 0, 37, 0
2, 44600, Control_c, 0, 64, 40
2, 44603, Control_c, 0, 64, 0
2, 44625, Note_on_c, 0, 35, 54
2, 44626, Note_on_c, 0, 47, 78
2, 44630, Note_on_c, 0, 35, 0
2, 44632, Note_on_c, 0, 47, 0
2, 44662, Note_on_c, 0, 68, 83
2, 44665, Note_on_c, 0, 59, 73
2, 44665, Note_on_c, 0, 52, 76
2, 44666, Note_on_c, 0, 64, 73
2, 44667, Note_on_c, 0, 40, 62
2, 44671, Note_on_c, 0, 52, 0
2, 44674, Note_on_c, 0, 40, 0
2, 44698, Note_on_c, 0, 51, 75
2, 44700, Note_on_c, 0, 39, 70
2, 44704, Note_on_c, 0, 51, 0
2, 44706, Note_on_c, 0, 39, 0
2, 44733, Note_on_c, 0, 49, 69
2, 44733, Note_on_c, 0, 37, 65
2, 44739, Note_on_c, 0, 49, 0
2, 44740, Note_on_c, 0, 37, 0
2, 44754, Note_on_c, 0, 64, 0
2, 44771, Note_on_c, 0, 35, 66
2, 44771, Note_on_c, 0, 47, 65
2, 44778, Note_on_c, 0, 47, 0
2, 44779, Note_on_c, 0, 35, 0
2, 44779, Note_on_c, 0, 68, 0
2, 44780, Note_on_c, 0, 59, 0
2, 44807, Note_on_c, 0, 66, 87
2, 44808, Note_on_c, 0, 52, 78
2, 44810, Note_on_c, 0, 59, 74
2, 44811, Note_on_c, 0, 57, 61
2, 44813, Note_on_c, 0, 40, 61
2, 44815, Note_on_c, 0, 52, 0
2, 44819, Note_on_c, 0, 40, 0
2, 44843, Note_on_c, 0, 51, 68
2, 44845, Note_on_c, 0, 39, 64
2, 44848, Note_on_c, 0, 51, 0
2, 44851, Note_on_c, 0, 39, 0
2, 44852, Note_on_c, 0, 59, 0
2, 44854, Note_on_c, 0, 57, 0
2, 44877, Note_on_c, 0, 57, 70
2, 44878, Note_on_c, 0, 59, 78
2, 44880, Note_on_c, 0, 49, 69
2, 44883, Note_on_c, 0, 37, 45
2, 44886, Note_on_c, 0, 49, 0
2, 44888, Note_on_c, 0, 37, 0
2, 44890, Note_on_c, 0, 59, 0
2, 44890, Note_on_c, 0, 57, 0
2, 44911, Note_on_c, 0, 57, 65
2, 44911, Note_on_c, 0, 59, 70
2, 44916, Note_on_c, 0, 47, 71
2, 44917, Note_on_c, 0, 35, 64
2, 44922, Note_on_c, 0, 47, 0
2, 44924, Note_on_c, 0, 59, 0
2, 44924, Note_on_c, 0, 35, 0
2, 44924, Note_on_c, 0, 57, 0
2, 44950, Note_on_c, 0, 59, 70
2, 44950, Note_on_c, 0, 57, 69
2, 44952, Note_on_c, 0, 52, 77
2, 44956, Note_on_c, 0, 40, 50
2, 44958, Note_on_c, 0, 52, 0
2, 44963, Note_on_c, 0, 40, 0
2, 44983, Note_on_c, 0, 51, 74
2, 44986, Note_on_c, 0, 39, 60
2, 44989, Note_on_c, 0, 51, 0
2, 44991, Note_on_c, 0, 39, 0
2, 44995, Note_on_c, 0, 57, 0
2, 44996, Note_on_c, 0, 59, 0
2, 45002, Note_on_c, 0, 66, 0
2, 45020, Note_on_c, 0, 66, 79
2, 45021, Note_on_c, 0, 49, 79
2, 45022, Note_on_c, 0, 57, 70
2, 45022, Note_on_c, 0, 59, 65
2, 45025, Note_on_c, 0, 37, 52
2, 45030, Note_on_c, 0, 37, 0
2, 45031, Note_on_c, 0, 49, 0
2, 45047, Note_on_c, 0, 59, 0
2, 45047, Note_on_c, 0, 57, 0
2, 45058, Note_on_c, 0, 47, 66
2, 45062, Note_on_c, 0, 35, 52
2, 45065, Note_on_c, 0, 47, 0
2, 45069, Note_on_c, 0, 35, 0
2, 45076, Note_on_c, 0, 66, 0
2, 45092, Note_on_c, 0, 68, 87
2, 45095, Note_on_c, 0, 59, 65
2, 45095, Note_on_c, 0, 57, 61
2, 45096, Note_on_c, 0, 52, 79
2, 45100, Note_on_c, 0, 40, 65
2, 45102, Note_on_c, 0, 52, 0
2, 45103, Note_on_c, 0, 57, 0
2, 45103, Note_on_c, 0, 59, 0
2, 45106, Note_on_c, 0, 40, 0
2, 45110, Note_on_c, 0, 68, 0
2, 45127, Note_on_c, 0, 66, 86
2, 45128, Note_on_c, 0, 51, 79
2, 45130, Note_on_c, 0, 57, 63
2, 45130, Note_on_c, 0, 59, 66
2, 45131, Note_on_c, 0, 39, 64
2, 45137, Note_on_c, 0, 39, 0
2, 45138, Note_on_c, 0, 57, 0
2, 45138, Note_on_c, 0, 59, 0
2, 45139, Note_on_c, 0, 51, 0
2, 45148, Note_on_c, 0, 66, 0
2, 45161, Note_on_c, 0, 64, 94
2, 45162, Note_on_c, 0, 57, 68
2, 45163, Note_on_c, 0, 59, 69
2, 45163, Note_on_c, 0, 49, 79
2, 45167, Note_on_c, 0, 37, 48
2, 45170, Note_on_c, 0, 59, 0
2, 45172, Note_on_c, 0, 57, 0
2, 45173, Note_on_c, 0, 37, 0
2, 45174, Note_on_c, 0, 49, 0
2, 45179, Note_on_c, 0, 64, 0
2, 45198, Note_on_c, 0, 66, 81
2, 45198, Note_on_c, 0, 63, 93
2, 45198, Note_on_c, 0, 35, 71
2, 45198, Note_on_c, 0, 47, 65
2, 45198, Note_on_c, 0, 59, 65
2, 45198, Note_on_c, 0, 57, 65
2, 45205, Note_on_c, 0, 57, 0
2, 45205, Note_on_c, 0, 47, 0
2, 45205, Note_on_c, 0, 59, 0
2, 45206, Note_on_c, 0, 35, 0
2, 45215, Note_on_c, 0, 63, 0
2, 45221, Note_on_c, 0, 66, 0
2, 45235, Note_on_c, 0, 56, 84
2, 45235, Note_on_c, 0, 68, 87
2, 45235, Note_on_c, 0, 64, 87
2, 45237, Note_on_c, 0, 52, 84
2, 45241, Note_on_c, 0, 40, 77
2, 45245, Note_on_c, 0, 52, 0
2, 45247, Note_on_c, 0, 40, 0
2, 45272, Note_on_c, 0, 51, 71
2, 45276, Note_on_c, 0, 39, 44
2, 45278, Note_on_c, 0, 51, 0
2, 45282, Note_on_c, 0, 39, 0
2, 45307, Note_on_c, 0, 49, 67
2, 45307, Note_on_c, 0, 37, 65
2, 45313, Note_on_c, 0, 49, 0
2, 45314, Note_on_c, 0, 37, 0
2, 45325, Note_on_c, 0, 64, 0
2, 45327, Note_on_c, 0, 56, 0
2, 45340, Note_on_c, 0, 61, 74
2, 45345, Note_on_c, 0, 47, 76
2, 45347, Note_on_c, 0, 35, 67
2, 45351, Note_on_c, 0, 47, 0
2, 45353, Note_on_c, 0, 35, 0
2, 45372, Note_on_c, 0, 61, 0
2, 45380, Note_on_c, 0, 59, 82
2, 45382, Note_on_c, 0, 68, 0
2, 45382, Note_on_c, 0, 52, 76
2, 45386, Note_on_c, 0, 40, 56
2, 45388, Note_on_c, 0, 52, 0
2, 45393, Note_on_c, 0, 40, 0
2, 45413, Note_on_c, 0, 51, 75
2, 45416, Note_on_c, 0, 39, 57
2, 45420, Note_on_c, 0, 51, 0
2, 45422, Note_on_c, 0, 39, 0
2, 45451, Note_on_c, 0, 49, 64
2, 45451, Note_on_c, 0, 37, 65
2, 45457, Note_on_c, 0, 49, 0
2, 45458, Note_on_c, 0, 37, 0
2, 45483, Note_on_c, 0, 71, 92
2, 45485, Note_on_c, 0, 68, 77
2, 45487, Note_on_c, 0, 47, 74
2, 45487, Note_on_c, 0, 35, 59
2, 45493, Note_on_c, 0, 35, 0
2, 45493, Note_on_c, 0, 47, 0
2, 45498, Note_on_c, 0, 68, 0
2, 45500, Note_on_c, 0, 71, 0
2, 45520, Note_on_c, 0, 71, 84
2, 45520, Note_on_c, 0, 68, 70
2, 45525, Note_on_c, 0, 52, 76
2, 45528, Note_on_c, 0, 40, 62
2, 45531, Note_on_c, 0, 52, 0
2, 45534, Note_on_c, 0, 40, 0
2, 45557, Note_on_c, 0, 51, 68
2, 45560, Note_on_c, 0, 39, 56
2, 45564, Note_on_c, 0, 51, 0
2, 45566, Note_on_c, 0, 39, 0
2, 45567, Control_c, 0, 64, 24
2, 45571, Control_c, 0, 64, 40
2, 45577, Control_c, 0, 64, 56
2, 45581, Control_c, 0, 64, 72
2, 45585, Control_c, 0, 64, 88
2, 45591, Note_on_c, 0, 71, 0
2, 45591, Control_c, 0, 64, 104
2, 45593, Note_on_c, 0, 68, 0
2, 45593, Note_on_c, 0, 49, 59
2, 45593, Note_on_c, 0, 37, 65
2, 45595, Control_c, 0, 64, 127
2, 45597, Note_on_c, 0, 59, 0
2, 45599, Note_on_c, 0, 49, 0
2, 45600, Note_on_c, 0, 37, 0
2, 45621, Control_c, 0, 64, 104
2, 45625, Control_c, 0, 64, 72
2, 45628, Control_c, 0, 64, 40
2, 45630, Note_on_c, 0, 47, 67
2, 45631, Note_on_c, 0, 35, 54
2, 45632, Control_c, 0, 64, 0
2, 45636, Note_on_c, 0, 47, 0
2, 45638, Note_on_c, 0, 35, 0
2, 45666, Note_on_c, 0, 59, 80
2, 45668, Note_on_c, 0, 56, 59
2, 45668, Note_on_c, 0, 52, 70
2, 45672, Note_on_c, 0, 40, 52
2, 45674, Note_on_c, 0, 52, 0
2, 45679, Note_on_c, 0, 40, 0
2, 45702, Note_on_c, 0, 51, 67
2, 45706, Note_on_c, 0, 39, 53
2, 45709, Note_on_c, 0, 51, 0
2, 45711, Note_on_c, 0, 39, 0
2, 45737, Note_on_c, 0, 49, 59
2, 45737, Note_on_c, 0, 37, 65
2, 45744, Note_on_c, 0, 37, 0
2, 45744, Note_on_c, 0, 49, 0
2, 45771, Note_on_c, 0, 47, 80
2, 45773, Note_on_c, 0, 35, 72
2, 45779, Note_on_c, 0, 35, 0
2, 45782, Note_on_c, 0, 47, 0
2, 45810, Note_on_c, 0, 52, 76
2, 45810, Note_on_c, 0, 40, 65
2, 45815, Note_on_c, 0, 52, 0
2, 45817, Note_on_c, 0, 40, 0
2, 45840, Note_on_c, 0, 56, 0
2, 45841, Note_on_c, 0, 51, 70
2, 45841, Note_on_c, 0, 39, 65
2, 45842, Note_on_c, 0, 59, 0
2, 45847, Note_on_c, 0, 51, 0
2, 45848, Note_on_c, 0, 39, 0
2, 45875, Note_on_c, 0, 55, 82
2, 45875, Note_on_c, 0, 49, 74
2, 45875, Note_on_c, 0, 37, 65
2, 45877, Note_on_c, 0, 59, 76
2, 45882, Note_on_c, 0, 37, 0
2, 45886, Note_on_c, 0, 49, 0
2, 45887, Note_on_c, 0, 55, 0
2, 45892, Note_on_c, 0, 59, 0
2, 45906, Note_on_c, 0, 56, 85
2, 45910, Note_on_c, 0, 59, 75
2, 45913, Note_on_c, 0, 47, 76
2, 45915, Note_on_c, 0, 35, 68
2, 45918, Note_on_c, 0, 47, 0
2, 45921, Note_on_c, 0, 35, 0
2, 45923, Note_on_c, 0, 59, 0
2, 45926, Note_on_c, 0, 56, 0
2, 45943, Note_on_c, 0, 57, 86
2, 45946, Note_on_c, 0, 59, 89
2, 45948, Note_on_c, 0, 52, 77
2, 45951, Note_on_c, 0, 40, 66
2, 45954, Note_on_c, 0, 52, 0
2, 45957, Note_on_c, 0, 40, 0
2, 45958, Note_on_c, 0, 59, 0
2, 45960, Note_on_c, 0, 57, 0
2, 45981, Note_on_c, 0, 51, 69
2, 45982, Note_on_c, 0, 39, 65
2, 45986, Note_on_c, 0, 51, 0
2, 45988, Note_on_c, 0, 39, 0
2, 46015, Note_on_c, 0, 57, 78
2, 46016, Note_on_c, 0, 49, 70
2, 46016, Note_on_c, 0, 61, 64
2, 46016, Note_on_c, 0, 37, 65
2, 46023, Note_on_c, 0, 37, 0
2, 46024, Note_on_c, 0, 49, 0
2, 46028, Note_on_c, 0, 57, 0
2, 46029, Note_on_c, 0, 61, 0
2, 46051, Note_on_c, 0, 63, 80
2, 46052, Note_on_c, 0, 57, 77
2, 46052, Note_on_c, 0, 47, 74
2, 46056, Note_on_c, 0, 35, 55
2, 46058, Note_on_c, 0, 47, 0
2, 46058, Note_on_c, 0, 57, 0
2, 46063, Note_on_c, 0, 35, 0
2, 46072, Note_on_c, 0, 63, 0
2, 46088, Note_on_c, 0, 64, 84
2, 46088, Note_on_c, 0, 56, 72
2, 46091, Note_on_c, 0, 52, 76
2, 46096, Note_on_c, 0, 40, 51
2, 46097, Note_on_c, 0, 52, 0
2, 46102, Note_on_c, 0, 40, 0
2, 46126, Note_on_c, 0, 51, 69
2, 46127, Note_on_c, 0, 39, 59
2, 46132, Note_on_c, 0, 51, 0
2, 46133, Note_on_c, 0, 39, 0
2, 46161, Note_on_c, 0, 49, 67
2, 46161, Note_on_c, 0, 37, 65
2, 46167, Note_on_c, 0, 49, 0
2, 46168, Note_on_c, 0, 37, 0
2, 46168, Note_on_c, 0, 56, 0
2, 46173, Note_on_c, 0, 64, 0
2, 46192, Note_on_c, 0, 59, 78
2, 46193, Note_on_c, 0, 56, 52
2, 46200, Note_on_c, 0, 47, 64
2, 46200, Note_on_c, 0, 35, 63
2, 46206, Note_on_c, 0, 35, 0
2, 46206, Note_on_c, 0, 47, 0
2, 46206, Note_on_c, 0, 56, 0
2, 46210, Note_on_c, 0, 59, 0
2, 46232, Note_on_c, 0, 68, 87
2, 46233, Note_on_c, 0, 56, 65
2, 46233, Note_on_c, 0, 52, 71
2, 46233, Note_on_c, 0, 59, 75
2, 46233, Note_on_c, 0, 40, 65
2, 46240, Note_on_c, 0, 40, 0
2, 46240, Note_on_c, 0, 52, 0
2, 46241, Note_on_c, 0, 59, 0
2, 46241, Note_on_c, 0, 40, 34
2, 46247, Note_on_c, 0, 40, 0
2, 46253, Note_on_c, 0, 59, 17
2, 46266, Note_on_c, 0, 51, 67
2, 46270, Note_on_c, 0, 39, 45
2, 46273, Note_on_c, 0, 51, 0
2, 46276, Note_on_c, 0, 39, 0
2, 46301, Note_on_c, 0, 49, 71
2, 46301, Note_on_c, 0, 37, 65
2, 46306, Note_on_c, 0, 49, 0
2, 46308, Note_on_c, 0, 37, 0
2, 46336, Note_on_c, 0, 47, 74
2, 46340, Note_on_c, 0, 35, 51
2, 46341, Note_on_c, 0, 47, 0
2, 46345, Note_on_c, 0, 68, 0
2, 46346, Note_on_c, 0, 59, 0
2, 46347, Note_on_c, 0, 35, 0
2, 46349, Note_on_c, 0, 56, 0
2, 46371, Note_on_c, 0, 66, 85
2, 46373, Note_on_c, 0, 52, 76
2, 46376, Note_on_c, 0, 59, 59
2, 46376, Note_on_c, 0, 57, 58
2, 46377, Note_on_c, 0, 40, 52
2, 46379, Note_on_c, 0, 52, 0
2, 46384, Note_on_c, 0, 40, 0
2, 46407, Note_on_c, 0, 39, 72
2, 46407, Note_on_c, 0, 51, 67
2, 46412, Note_on_c, 0, 51, 0
2, 46415, Note_on_c, 0, 39, 0
2, 46443, Note_on_c, 0, 49, 61
2, 46443, Note_on_c, 0, 37, 65
2, 46449, Note_on_c, 0, 49, 0
2, 46450, Note_on_c, 0, 37, 0
2, 46466, Note_on_c, 0, 59, 0
2, 46468, Note_on_c, 0, 57, 0
2, 46476, Note_on_c, 0, 47, 76
2, 46478, Note_on_c, 0, 35, 65
2, 46482, Note_on_c, 0, 47, 0
2, 46484, Note_on_c, 0, 35, 0
2, 46496, Note_on_c, 0, 66, 0
2, 46512, Note_on_c, 0, 59, 85
2, 46512, Note_on_c, 0, 56, 61
2, 46515, Note_on_c, 0, 52, 76
2, 46517, Note_on_c, 0, 40, 66
2, 46521, Note_on_c, 0, 52, 0
2, 46523, Note_on_c, 0, 40, 0
2, 46547, Note_on_c, 0, 51, 66
2, 46547, Note_on_c, 0, 39, 64
2, 46552, Note_on_c, 0, 51, 0
2, 46553, Note_on_c, 0, 39, 0
2, 46581, Note_on_c, 0, 49, 66
2, 46581, Note_on_c, 0, 37, 65
2, 46582, Note_on_c, 0, 56, 0
2, 46587, Note_on_c, 0, 49, 0
2, 46588, Note_on_c, 0, 37, 0
2, 46602, Note_on_c, 0, 59, 0
2, 46615, Note_on_c, 0, 64, 83
2, 46615, Note_on_c, 0, 56, 65
2, 46616, Note_on_c, 0, 47, 77
2, 46620, Note_on_c, 0, 35, 66
2, 46622, Note_on_c, 0, 47, 0
2, 46625, Note_on_c, 0, 35, 0
2, 46628, Note_on_c, 0, 56, 0
2, 46636, Note_on_c, 0, 64, 0
2, 46652, Note_on_c, 0, 68, 91
2, 46652, Note_on_c, 0, 52, 78
2, 46652, Note_on_c, 0, 56, 80
2, 46656, Note_on_c, 0, 40, 68
2, 46658, Note_on_c, 0, 52, 0
2, 46662, Note_on_c, 0, 40, 0
2, 46686, Note_on_c, 0, 51, 75
2, 46687, Note_on_c, 0, 39, 56
2, 46691, Note_on_c, 0, 51, 0
2, 46693, Note_on_c, 0, 39, 0
2, 46720, Note_on_c, 0, 49, 75
2, 46720, Note_on_c, 0, 37, 65
2, 46725, Note_on_c, 0, 49, 0
2, 46727, Note_on_c, 0, 37, 0
2, 46733, Note_on_c, 0, 56, 0
2, 46750, Note_on_c, 0, 68, 0
2, 46756, Note_on_c, 0, 63, 73
2, 46757, Note_on_c, 0, 57, 63
2, 46758, Note_on_c, 0, 47, 78
2, 46760, Note_on_c, 0, 35, 74
2, 46764, Note_on_c, 0, 47, 0
2, 46764, Note_on_c, 0, 57, 0
2, 46766, Note_on_c, 0, 35, 0
2, 46778, Note_on_c, 0, 63, 0
2, 46792, Note_on_c, 0, 64, 93
2, 46793, Note_on_c, 0, 56, 70
2, 46795, Note_on_c, 0, 52, 84
2, 46796, Note_on_c, 0, 40, 74
2, 46800, Note_on_c, 0, 52, 0
2, 46802, Note_on_c, 0, 40, 0
2, 46803, Note_on_c, 0, 56, 0
2, 46810, Note_on_c, 0, 64, 0
2, 46825, Note_on_c, 0, 51, 78
2, 46825, Note_on_c, 0, 39, 68
2, 46830, Note_on_c, 0, 51, 0
2, 46831, Note_on_c, 0, 39, 0
2, 46858, Note_on_c, 0, 56, 83
2, 46860, Note_on_c, 0, 68, 87
2, 46861, Note_on_c, 0, 64, 80
2, 46862, Note_on_c, 0, 49, 80
2, 46866, Note_on_c, 0, 37, 57
2, 46867, Note_on_c, 0, 64, 0
2, 46871, Note_on_c, 0, 56, 0
2, 46872, Note_on_c, 0, 37, 0
2, 46873, Note_on_c, 0, 49, 0
2, 46878, Note_on_c, 0, 68, 0
2, 46897, Note_on_c, 0, 47, 78
2, 46900, Note_on_c, 0, 35, 63
2, 46903, Note_on_c, 0, 47, 0
2, 46907, Note_on_c, 0, 35, 0
2, 46930, Note_on_c, 0, 71, 102
2, 46931, Note_on_c, 0, 59, 87
2, 46931, Note_on_c, 0, 68, 79
2, 46936, Note_on_c, 0, 52, 78
2, 46940, Note_on_c, 0, 40, 65
2, 46941, Note_on_c, 0, 52, 0
2, 46941, Control_c, 0, 64, 40
2, 46943, Control_c, 0, 64, 88
2, 46945, Note_on_c, 0, 40, 0
2, 46947, Note_on_c, 0, 59, 0
2, 46947, Control_c, 0, 64, 127
2, 46961, Note_on_c, 0, 71, 0
2, 46964, Note_on_c, 0, 68, 0
2, 46965, Note_on_c, 0, 51, 87
2, 46967, Note_on_c, 0, 39, 67
2, 46973, Note_on_c, 0, 39, 0
2, 46975, Note_on_c, 0, 51, 0
2, 47000, Note_on_c, 0, 49, 82
2, 47000, Note_on_c, 0, 37, 65
2, 47007, Note_on_c, 0, 37, 0
2, 47008, Control_c, 0, 64, 104
2, 47011, Note_on_c, 0, 49, 0
2, 47015, Control_c, 0, 64, 88
2, 47018, Control_c, 0, 64, 72
2, 47022, Control_c, 0, 64, 56
2, 47025, Control_c, 0, 64, 40
2, 47028, Control_c, 0, 64, 24
2, 47032, Control_c, 0, 64, 0
2, 47033, Note_on_c, 0, 47, 86
2, 47037, Note_on_c, 0, 35, 74
2, 47043, Note_on_c, 0, 35, 0
2, 47046, Note_on_c, 0, 47, 0
2, 47067, Note_on_c, 0, 73, 93
2, 47067, Note_on_c, 0, 68, 82
2, 47068, Note_on_c, 0, 61, 79
2, 47070, Note_on_c, 0, 40, 83
2, 47071, Note_on_c, 0, 52, 89
2, 47076, Note_on_c, 0, 52, 0
2, 47076, Note_on_c, 0, 40, 0
2, 47080, Note_on_c, 0, 61, 0
2, 47085, Note_on_c, 0, 68, 0
2, 47085, Note_on_c, 0, 73, 0
2, 47086, Control_c, 0, 64, 24
2, 47088, Control_c, 0, 64, 56
2, 47093, Control_c, 0, 64, 88
2, 47096, Control_c, 0, 64, 127
2, 47103, Note_on_c, 0, 51, 89
2, 47106, Note_on_c, 0, 75, 95
2, 47106, Note_on_c, 0, 63, 83
2, 47106, Note_on_c, 0, 39, 68
2, 47108, Note_on_c, 0, 68, 81
2, 47113, Note_on_c, 0, 51, 0
2, 47116, Note_on_c, 0, 39, 0
2, 47116, Note_on_c, 0, 63, 0
2, 47118, Note_on_c, 0, 68, 0
2, 47121, Note_on_c, 0, 75, 0
2, 47136, Note_on_c, 0, 49, 91
2, 47137, Note_on_c, 0, 76, 98
2, 47137, Note_on_c, 0, 37, 79
2, 47137, Note_on_c, 0, 73, 79
2, 47138, Note_on_c, 0, 64, 96
2, 47145, Note_on_c, 0, 37, 0
2, 47147, Note_on_c, 0, 73, 0
2, 47147, Note_on_c, 0, 49, 0
2, 47148, Note_on_c, 0, 64, 0
2, 47152, Note_on_c, 0, 76, 0
2, 47153, Control_c, 0, 64, 104
2, 47161, Control_c, 0, 64, 88
2, 47171, Control_c, 0, 64, 127
2, 47172, Note_on_c, 0, 78, 102
2, 47172, Note_on_c, 0, 66, 92
2, 47172, Note_on_c, 0, 71, 91
2, 47175, Note_on_c, 0, 47, 85
2, 47176, Note_on_c, 0, 35, 62
2, 47180, Note_on_c, 0, 71, 0
2, 47182, Note_on_c, 0, 35, 0
2, 47182, Note_on_c, 0, 66, 0
2, 47183, Note_on_c, 0, 47, 0
2, 47189, Note_on_c, 0, 78, 0
2, 47198, Control_c, 0, 64, 88
2, 47202, Control_c, 0, 64, 24
2, 47205, Control_c, 0, 64, 0
2, 47208, Note_on_c, 0, 80, 107
2, 47210, Note_on_c, 0, 52, 99
2, 47210, Note_on_c, 0, 71, 97
2, 47210, Note_on_c, 0, 68, 90
2, 47210, Note_on_c, 0, 40, 87
2, 47218, Note_on_c, 0, 52, 0
2, 47221, Note_on_c, 0, 40, 0
2, 47226, Control_c, 0, 64, 40
2, 47228, Control_c, 0, 64, 88
2, 47232, Control_c, 0, 64, 127
2, 47247, Note_on_c, 0, 51, 94
2, 47251, Note_on_c, 0, 39, 84
2, 47257, Note_on_c, 0, 39, 0
2, 47258, Note_on_c, 0, 51, 0
2, 47272, Note_on_c, 0, 71, 0
2, 47283, Note_on_c, 0, 52, 92
2, 47285, Note_on_c, 0, 40, 92
2, 47291, Note_on_c, 0, 52, 89
2, 47293, Note_on_c, 0, 68, 0
2, 47296, Note_on_c, 0, 40, 0
2, 47296, Note_on_c, 0, 52, 0
2, 47300, Note_on_c, 0, 52, 0
2, 47304, Note_on_c, 0, 80, 0
2, 47310, Control_c, 0, 64, 88
2, 47313, Control_c, 0, 64, 40
2, 47317, Note_on_c, 0, 70, 98
2, 47317, Control_c, 0, 64, 0
2, 47323, Note_on_c, 0, 50, 90
2, 47327, Note_on_c, 0, 38, 72
2, 47331, Control_c, 0, 64, 40
2, 47333, Note_on_c, 0, 38, 0
2, 47333, Note_on_c, 0, 50, 0
2, 47333, Control_c, 0, 64, 56
2, 47347, Control_c, 0, 64, 0
2, 47349, Note_on_c, 0, 70, 0
2, 47357, Note_on_c, 0, 79, 100
2, 47357, Note_on_c, 0, 51, 95
2, 47357, Note_on_c, 0, 39, 81
2, 47357, Note_on_c, 0, 67, 86
2, 47357, Note_on_c, 0, 70, 67
2, 47357, Note_on_c, 0, 75, 89
2, 47365, Note_on_c, 0, 39, 0
2, 47369, Note_on_c, 0, 51, 0
2, 47395, Control_c, 0, 64, 24
2, 47396, Note_on_c, 0, 50, 83
2, 47396, Note_on_c, 0, 38, 62
2, 47398, Control_c, 0, 64, 56
2, 47402, Control_c, 0, 64, 88
2, 47405, Control_c, 0, 64, 127
2, 47406, Note_on_c, 0, 38, 0
2, 47412, Note_on_c, 0, 50, 0
2, 47415, Control_c, 0, 64, 88
2, 47418, Control_c, 0, 64, 40
2, 47422, Control_c, 0, 64, 0
2, 47431, Note_on_c, 0, 48, 90
2, 47431, Note_on_c, 0, 36, 94
2, 47439, Note_on_c, 0, 36, 0
2, 47441, Note_on_c, 0, 48, 0
2, 47462, Note_on_c, 0, 34, 92
2, 47462, Note_on_c, 0, 46, 90
2, 47470, Note_on_c, 0, 46, 0
2, 47470, Control_c, 0, 64, 24
2, 47473, Note_on_c, 0, 34, 0
2, 47473, Control_c, 0, 64, 72
2, 47476, Control_c, 0, 64, 88
2, 47480, Control_c, 0, 64, 104
2, 47482, Note_on_c, 0, 79, 0
2, 47483, Control_c, 0, 64, 127
2, 47485, Note_on_c, 0, 75, 0
2, 47490, Note_on_c, 0, 67, 0
2, 47492, Note_on_c, 0, 70, 0
2, 47496, Control_c, 0, 64, 88
2, 47500, Control_c, 0, 64, 72
2, 47503, Note_on_c, 0, 39, 74
2, 47503, Control_c, 0, 64, 40
2, 47506, Control_c, 0, 64, 0
2, 47509, Note_on_c, 0, 39, 0
2, 47510, Note_on_c, 0, 51, 90
2, 47523, Note_on_c, 0, 51, 0
2, 47536, Note_on_c, 0, 50, 90
2, 47537, Note_on_c, 0, 38, 79
2, 47547, Note_on_c, 0, 38, 0
2, 47547, Note_on_c, 0, 50, 0
2, 47567, Note_on_c, 0, 58, 83
2, 47567, Note_on_c, 0, 70, 91
2, 47570, Note_on_c, 0, 48, 95
2, 47571, Note_on_c, 0, 67, 76
2, 47571, Note_on_c, 0, 63, 69
2, 47575, Control_c, 0, 64, 24
2, 47576, Note_on_c, 0, 36, 58
2, 47577, Control_c, 0, 64, 72
2, 47581, Note_on_c, 0, 63, 0
2, 47581, Note_on_c, 0, 48, 0
2, 47582, Note_on_c, 0, 58, 0
2, 47582, Control_c, 0, 64, 127
2, 47583, Note_on_c, 0, 36, 0
2, 47586, Note_on_c, 0, 67, 0
2, 47590, Note_on_c, 0, 70, 0
2, 47602, Note_on_c, 0, 34, 87
2, 47606, Note_on_c, 0, 46, 72
2, 47608, Control_c, 0, 64, 104
2, 47612, Note_on_c, 0, 46, 0
2, 47612, Control_c, 0, 64, 72
2, 47613, Note_on_c, 0, 34, 0
2, 47616, Control_c, 0, 64, 24
2, 47618, Control_c, 0, 64, 0
2, 47637, Note_on_c, 0, 75, 100
2, 47638, Note_on_c, 0, 63, 100
2, 47640, Note_on_c, 0, 70, 87
2, 47640, Note_on_c, 0, 67, 89
2, 47642, Note_on_c, 0, 51, 96
2, 47643, Note_on_c, 0, 39, 83
2, 47646, Control_c, 0, 64, 24
2, 47648, Control_c, 0, 64, 88
2, 47650, Note_on_c, 0, 39, 0
2, 47652, Note_on_c, 0, 51, 0
2, 47652, Control_c, 0, 64, 127
2, 47653, Note_on_c, 0, 63, 0
2, 47656, Note_on_c, 0, 67, 0
2, 47662, Note_on_c, 0, 70, 0
2, 47665, Note_on_c, 0, 75, 0
2, 47676, Note_on_c, 0, 50, 89
2, 47678, Note_on_c, 0, 38, 75
2, 47683, Note_on_c, 0, 50, 0
2, 47684, Note_on_c, 0, 38, 0
2, 47700, Control_c, 0, 64, 72
2, 47703, Control_c, 0, 64, 0
2, 47711, Note_on_c, 0, 79, 106
2, 47711, Note_on_c, 0, 67, 94
2, 47711, Note_on_c, 0, 70, 86
2, 47711, Note_on_c, 0, 75, 85
2, 47712, Note_on_c, 0, 48, 97
2, 47716, Note_on_c, 0, 36, 73
2, 47722, Note_on_c, 0, 36, 0
2, 47723, Note_on_c, 0, 48, 0
2, 47723, Control_c, 0, 64, 24
2, 47727, Note_on_c, 0, 67, 0
2, 47727, Control_c, 0, 64, 72
2, 47729, Note_on_c, 0, 70, 0
2, 47731, Control_c, 0, 64, 127
2, 47736, Note_on_c, 0, 75, 0
2, 47737, Note_on_c, 0, 79, 0
2, 47745, Note_on_c, 0, 34, 87
2, 47748, Note_on_c, 0, 46, 73
2, 47754, Note_on_c, 0, 46, 0
2, 47756, Note_on_c, 0, 34, 0
2, 47765, Control_c, 0, 64, 72
2, 47768, Control_c, 0, 64, 0
2, 47782, Note_on_c, 0, 82, 99
2, 47782, Note_on_c, 0, 70, 97
2, 47783, Note_on_c, 0, 79, 96
2, 47783, Note_on_c, 0, 75, 87
2, 47787, Note_on_c, 0, 51, 95
2, 47787, Note_on_c, 0, 39, 86
2, 47795, Control_c, 0, 64, 56
2, 47797, Note_on_c, 0, 51, 0
2, 47798, Note_on_c, 0, 70, 0
2, 47798, Note_on_c, 0, 39, 0
2, 47798, Control_c, 0, 64, 127
2, 47805, Note_on_c, 0, 75, 0
2, 47809, Note_on_c, 0, 79, 0
2, 47813, Note_on_c, 0, 82, 0
2, 47826, Note_on_c, 0, 50, 88
2, 47828, Note_on_c, 0, 38, 92
2, 47832, Note_on_c, 0, 50, 0
2, 47833, Note_on_c, 0, 38, 0
2, 47853, Note_on_c, 0, 48, 90
2, 47860, Note_on_c, 0, 36, 60
2, 47865, Note_on_c, 0, 48, 0
2, 47866, Note_on_c, 0, 36, 0
2, 47883, Control_c, 0, 64, 104
2, 47886, Control_c, 0, 64, 88
2, 47887, Note_on_c, 0, 75, 105
2, 47887, Note_on_c, 0, 87, 101
2, 47888, Note_on_c, 0, 34, 87
2, 47888, Note_on_c, 0, 82, 86
2, 47890, Note_on_c, 0, 79, 94
2, 47890, Control_c, 0, 64, 72
2, 47891, Note_on_c, 0, 46, 82
2, 47893, Control_c, 0, 64, 56
2, 47897, Note_on_c, 0, 46, 0
2, 47897, Note_on_c, 0, 75, 0
2, 47897, Control_c, 0, 64, 24
2, 47900, Note_on_c, 0, 34, 0
2, 47901, Note_on_c, 0, 79, 0
2, 47901, Control_c, 0, 64, 0
2, 47904, Note_on_c, 0, 82, 0
2, 47907, Note_on_c, 0, 87, 0
2, 47922, Note_on_c, 0, 87, 96
2, 47923, Note_on_c, 0, 75, 103
2, 47923, Note_on_c, 0, 82, 94
2, 47925, Note_on_c, 0, 79, 96
2, 47930, Note_on_c, 0, 39, 79
2, 47931, Control_c, 0, 64, 24
2, 47933, Control_c, 0, 64, 72
2, 47937, Note_on_c, 0, 50, 42
2, 47937, Control_c, 0, 64, 127
2, 47938, Note_on_c, 0, 75, 0
2, 47940, Note_on_c, 0, 39, 0
2, 47941, Note_on_c, 0, 79, 0
2, 47942, Note_on_c, 0, 50, 0
2, 47944, Note_on_c, 0, 87, 0
2, 47945, Note_on_c, 0, 82, 0
2, 47965, Note_on_c, 0, 50, 84
2, 47966, Note_on_c, 0, 38, 67
2, 47971, Note_on_c, 0, 50, 0
2, 47973, Note_on_c, 0, 38, 0
2, 47992, Note_on_c, 0, 48, 95
2, 47996, Note_on_c, 0, 36, 68
2, 48002, Note_on_c, 0, 36, 0
2, 48003, Note_on_c, 0, 48, 0
2, 48026, Note_on_c, 0, 67, 99
2, 48026, Note_on_c, 0, 79, 106
2, 48026, Note_on_c, 0, 75, 93
2, 48026, Note_on_c, 0, 34, 84
2, 48026, Note_on_c, 0, 70, 95
2, 48028, Note_on_c, 0, 46, 81
2, 48034, Note_on_c, 0, 46, 0
2, 48037, Note_on_c, 0, 67, 0
2, 48037, Note_on_c, 0, 34, 0
2, 48038, Note_on_c, 0, 70, 0
2, 48039, Note_on_c, 0, 75, 0
2, 48042, Note_on_c, 0, 79, 0
2, 48042, Control_c, 0, 64, 72
2, 48046, Control_c, 0, 64, 0
2, 48060, Note_on_c, 0, 79, 109
2, 48060, Note_on_c, 0, 75, 103
2, 48060, Note_on_c, 0, 67, 112
2, 48060, Note_on_c, 0, 70, 97
2, 48063, Note_on_c, 0, 51, 94
2, 48063, Note_on_c, 0, 39, 86
2, 48066, Control_c, 0, 64, 24
2, 48070, Control_c, 0, 64, 72
2, 48071, Note_on_c, 0, 70, 0
2, 48072, Note_on_c, 0, 67, 0
2, 48073, Note_on_c, 0, 51, 0
2, 48073, Control_c, 0, 64, 127
2, 48075, Note_on_c, 0, 39, 0
2, 48080, Note_on_c, 0, 75, 0
2, 48085, Note_on_c, 0, 79, 0
2, 48097, Note_on_c, 0, 50, 84
2, 48100, Note_on_c, 0, 38, 73
2, 48103, Note_on_c, 0, 50, 0
2, 48106, Note_on_c, 0, 38, 0
2, 48117, Control_c, 0, 64, 88
2, 48121, Control_c, 0, 64, 24
2, 48125, Control_c, 0, 64, 0
2, 48128, Note_on_c, 0, 84, 109
2, 48131, Note_on_c, 0, 72, 96
2, 48131, Note_on_c, 0, 75, 87
2, 48131, Note_on_c, 0, 79, 92
2, 48131, Note_on_c, 0, 48, 92
2, 48141, Control_c, 0, 64, 56
2, 48142, Note_on_c, 0, 48, 0
2, 48145, Control_c, 0, 64, 104
2, 48147, Control_c, 0, 64, 127
2, 48151, Note_on_c, 0, 84, 0
2, 48153, Note_on_c, 0, 72, 0
2, 48156, Note_on_c, 0, 75, 0
2, 48157, Note_on_c, 0, 79, 0
2, 48162, Note_on_c, 0, 34, 88
2, 48165, Note_on_c, 0, 46, 86
2, 48172, Note_on_c, 0, 46, 0
2, 48175, Note_on_c, 0, 34, 0
2, 48185, Control_c, 0, 64, 88
2, 48188, Control_c, 0, 64, 24
2, 48191, Control_c, 0, 64, 0
2, 48201, Note_on_c, 0, 82, 102
2, 48202, Note_on_c, 0, 70, 101
2, 48202, Note_on_c, 0, 75, 94
2, 48202, Note_on_c, 0, 79, 99
2, 48205, Note_on_c, 0, 51, 92
2, 48206, Note_on_c, 0, 39, 83
2, 48215, Note_on_c, 0, 51, 0
2, 48216, Note_on_c, 0, 39, 0
2, 48216, Control_c, 0, 64, 104
2, 48220, Control_c, 0, 64, 127
2, 48240, Note_on_c, 0, 50, 84
2, 48242, Note_on_c, 0, 38, 72
2, 48246, Note_on_c, 0, 50, 0
2, 48248, Note_on_c, 0, 38, 0
2, 48273, Note_on_c, 0, 48, 91
2, 48278, Note_on_c, 0, 36, 61
2, 48284, Note_on_c, 0, 36, 0
2, 48285, Note_on_c, 0, 70, 0
2, 48285, Note_on_c, 0, 48, 0
2, 48286, Note_on_c, 0, 82, 0
2, 48287, Note_on_c, 0, 79, 0
2, 48295, Note_on_c, 0, 75, 0
2, 48307, Note_on_c, 0, 34, 83
2, 48311, Note_on_c, 0, 46, 74
2, 48316, Note_on_c, 0, 46, 0
2, 48318, Note_on_c, 0, 34, 0
2, 48345, Note_on_c, 0, 51, 87
2, 48346, Note_on_c, 0, 39, 74
2, 48352, Note_on_c, 0, 39, 0
2, 48352, Note_on_c, 0, 51, 0
2, 48355, Control_c, 0, 64, 88
2, 48358, Control_c, 0, 64, 56
2, 48362, Control_c, 0, 64, 0
2, 48376, Note_on_c, 0, 50, 88
2, 48380, Note_on_c, 0, 38, 66
2, 48382, Control_c, 0, 64, 40
2, 48383, Note_on_c, 0, 50, 0
2, 48385, Note_on_c, 0, 38, 0
2, 48385, Control_c, 0, 64, 72
2, 48388, Control_c, 0, 64, 104
2, 48398, Control_c, 0, 64, 40
2, 48402, Control_c, 0, 64, 0
2, 48410, Note_on_c, 0, 58, 88
2, 48411, Note_on_c, 0, 70, 91
2, 48412, Note_on_c, 0, 67, 82
2, 48412, Note_on_c, 0, 63, 71
2, 48412, Note_on_c, 0, 48, 92
2, 48417, Note_on_c, 0, 36, 52
2, 48418, Control_c, 0, 64, 40
2, 48422, Control_c, 0, 64, 72
2, 48423, Note_on_c, 0, 48, 0
2, 48423, Note_on_c, 0, 58, 0
2, 48424, Note_on_c, 0, 36, 0
2, 48427, Note_on_c, 0, 63, 0
2, 48429, Note_on_c, 0, 67, 0
2, 48431, Note_on_c, 0, 70, 0
2, 48433, Control_c, 0, 64, 0
2, 48442, Note_on_c, 0, 70, 87
2, 48443, Note_on_c, 0, 58, 92
2, 48443, Control_c, 0, 64, 40
2, 48446, Control_c, 0, 64, 72
2, 48447, Note_on_c, 0, 67, 51
2, 48447, Note_on_c, 0, 34, 88
2, 48450, Note_on_c, 0, 46, 62
2, 48450, Control_c, 0, 64, 127
2, 48455, Note_on_c, 0, 67, 0
2, 48456, Note_on_c, 0, 46, 0
2, 48457, Note_on_c, 0, 34, 0
2, 48461, Note_on_c, 0, 58, 0
2, 48462, Control_c, 0, 64, 88
2, 48466, Control_c, 0, 64, 24
2, 48468, Note_on_c, 0, 70, 0
2, 48470, Control_c, 0, 64, 0
2, 48481, Note_on_c, 0, 70, 82
2, 48481, Note_on_c, 0, 58, 94
2, 48482, Note_on_c, 0, 68, 83
2, 48483, Note_on_c, 0, 65, 84
2, 48487, Note_on_c, 0, 51, 91
2, 48487, Control_c, 0, 64, 24
2, 48488, Note_on_c, 0, 39, 83
2, 48490, Control_c, 0, 64, 72
2, 48493, Note_on_c, 0, 39, 0
2, 48493, Note_on_c, 0, 58, 0
2, 48493, Note_on_c, 0, 51, 0
2, 48493, Control_c, 0, 64, 127
2, 48496, Note_on_c, 0, 65, 0
2, 48501, Note_on_c, 0, 70, 0
2, 48502, Note_on_c, 0, 68, 0
2, 48520, Note_on_c, 0, 50, 86
2, 48522, Note_on_c, 0, 38, 71
2, 48526, Note_on_c, 0, 50, 0
2, 48529, Note_on_c, 0, 38, 0
2, 48537, Control_c, 0, 64, 104
2, 48541, Control_c, 0, 64, 56
2, 48543, Control_c, 0, 64, 0
2, 48552, Note_on_c, 0, 77, 107
2, 48553, Note_on_c, 0, 70, 94
2, 48553, Note_on_c, 0, 68, 89
2, 48555, Note_on_c, 0, 65, 94
2, 48556, Note_on_c, 0, 48, 93
2, 48562, Note_on_c, 0, 36, 53
2, 48565, Control_c, 0, 64, 56
2, 48567, Note_on_c, 0, 48, 0
2, 48568, Note_on_c, 0, 65, 0
2, 48568, Control_c, 0, 64, 104
2, 48569, Note_on_c, 0, 36, 0
2, 48570, Note_on_c, 0, 77, 0
2, 48571, Control_c, 0, 64, 127
2, 48575, Note_on_c, 0, 70, 0
2, 48576, Note_on_c, 0, 68, 0
2, 48590, Note_on_c, 0, 34, 86
2, 48591, Note_on_c, 0, 46, 95
2, 48597, Note_on_c, 0, 46, 0
2, 48602, Note_on_c, 0, 34, 0
2, 48616, Control_c, 0, 64, 104
2, 48618, Control_c, 0, 64, 40
2, 48622, Control_c, 0, 64, 0
2, 48628, Note_on_c, 0, 75, 100
2, 48630, Note_on_c, 0, 63, 94
2, 48630, Note_on_c, 0, 70, 90
2, 48631, Note_on_c, 0, 67, 88
2, 48635, Note_on_c, 0, 51, 101
2, 48636, Note_on_c, 0, 39, 88
2, 48642, Note_on_c, 0, 39, 0
2, 48642, Control_c, 0, 64, 72
2, 48643, Note_on_c, 0, 51, 0
2, 48645, Note_on_c, 0, 63, 0
2, 48646, Control_c, 0, 64, 127
2, 48647, Note_on_c, 0, 67, 0
2, 48648, Note_on_c, 0, 75, 0
2, 48651, Note_on_c, 0, 70, 0
2, 48711, Control_c, 0, 64, 72
2, 48713, Control_c, 0, 64, 0
2, 48715, Note_on_c, 0, 63, 96
2, 48715, Note_on_c, 0, 35, 80
2, 48716, Note_on_c, 0, 51, 95
2, 48718, Note_on_c, 0, 42, 77
2, 48720, Note_on_c, 0, 54, 82
2, 48720, Note_on_c, 0, 59, 80
2, 48721, Note_on_c, 0, 57, 76
2, 48727, Note_on_c, 0, 47, 93
2, 48731, Note_on_c, 0, 35, 0
2, 48732, Note_on_c, 0, 51, 0
2, 48735, Note_on_c, 0, 42, 0
2, 48737, Note_on_c, 0, 57, 0
2, 48737, Note_on_c, 0, 59, 0
2, 48738, Note_on_c, 0, 54, 0
2, 48738, Control_c, 0, 64, 104
2, 48739, Note_on_c, 0, 47, 0
2, 48741, Note_on_c, 0, 63, 0
2, 48741, Control_c, 0, 64, 127
2, 48782, Note_on_c, 0, 51, 69
2, 48790, Note_on_c, 0, 54, 74
2, 48793, Note_on_c, 0, 35, 76
2, 48797, Note_on_c, 0, 57, 79
2, 48798, Note_on_c, 0, 42, 70
2, 48802, Control_c, 0, 64, 24
2, 48803, Note_on_c, 0, 51, 0
2, 48805, Control_c, 0, 64, 0
2, 48806, Note_on_c, 0, 59, 72
2, 48807, Note_on_c, 0, 47, 94
2, 48808, Note_on_c, 0, 63, 97
2, 48810, Note_on_c, 0, 54, 0
2, 48810, Note_on_c, 0, 35, 0
2, 48816, Note_on_c, 0, 42, 0
2, 48816, Control_c, 0, 64, 40
2, 48817, Note_on_c, 0, 59, 0
2, 48817, Note_on_c, 0, 57, 0
2, 48818, Note_on_c, 0, 47, 0
2, 48820, Note_on_c, 0, 63, 0
2, 48820, Control_c, 0, 64, 104
2, 48822, Control_c, 0, 64, 127
2, 48873, Note_on_c, 0, 51, 91
2, 48878, Note_on_c, 0, 35, 75
2, 48878, Note_on_c, 0, 54, 72
2, 48882, Note_on_c, 0, 57, 80
2, 48883, Note_on_c, 0, 42, 79
2, 48883, Control_c, 0, 64, 88
2, 48887, Control_c, 0, 64, 0
2, 48889, Note_on_c, 0, 51, 0
2, 48890, Note_on_c, 0, 59, 76
2, 48891, Note_on_c, 0, 63, 96
2, 48893, Note_on_c, 0, 47, 91
2, 48894, Note_on_c, 0, 35, 0
2, 48895, Note_on_c, 0, 54, 0
2, 48897, Control_c, 0, 64, 56
2, 48898, Note_on_c, 0, 42, 0
2, 48899, Note_on_c, 0, 57, 0
2, 48901, Note_on_c, 0, 59, 0
2, 48901, Control_c, 0, 64, 104
2, 48904, Note_on_c, 0, 47, 0
2, 48905, Control_c, 0, 64, 127
2, 48906, Note_on_c, 0, 63, 0
2, 48956, Note_on_c, 0, 51, 89
2, 48960, Note_on_c, 0, 35, 85
2, 48963, Note_on_c, 0, 54, 70
2, 48965, Note_on_c, 0, 57, 83
2, 48965, Control_c, 0, 64, 56
2, 48967, Note_on_c, 0, 42, 84
2, 48968, Control_c, 0, 64, 0
2, 48971, Note_on_c, 0, 59, 80
2, 48972, Note_on_c, 0, 51, 0
2, 48972, Note_on_c, 0, 63, 95
2, 48977, Note_on_c, 0, 35, 0
2, 48977, Note_on_c, 0, 47, 92
2, 48978, Note_on_c, 0, 54, 0
2, 48980, Note_on_c, 0, 42, 0
2, 48982, Note_on_c, 0, 57, 0
2, 48982, Control_c, 0, 64, 56
2, 48984, Note_on_c, 0, 59, 0
2, 48986, Control_c, 0, 64, 127
2, 48987, Note_on_c, 0, 47, 0
2, 48989, Note_on_c, 0, 63, 0
2, 49016, Note_on_c, 0, 58, 42
2, 49024, Note_on_c, 0, 58, 0
2, 49036, Note_on_c, 0, 35, 73
2, 49041, Note_on_c, 0, 51, 75
2, 49050, Note_on_c, 0, 42, 77
2, 49050, Control_c, 0, 64, 0
2, 49051, Note_on_c, 0, 57, 76
2, 49057, Note_on_c, 0, 54, 88
2, 49058, Note_on_c, 0, 47, 106
2, 49059, Note_on_c, 0, 51, 0
2, 49060, Note_on_c, 0, 63, 98
2, 49061, Note_on_c, 0, 35, 0
2, 49065, Note_on_c, 0, 59, 56
2, 49066, Note_on_c, 0, 42, 0
2, 49067, Control_c, 0, 64, 127
2, 49071, Note_on_c, 0, 47, 0
2, 49071, Note_on_c, 0, 59, 0
2, 49072, Note_on_c, 0, 57, 0
2, 49073, Note_on_c, 0, 54, 0
2, 49078, Note_on_c, 0, 63, 0
2, 49128, Note_on_c, 0, 28, 91
2, 49133, Control_c, 0, 64, 0
2, 49138, Note_on_c, 0, 52, 88
2, 49146, Note_on_c, 0, 56, 72
2, 49148, Note_on_c, 0, 40, 93
2, 49151, Control_c, 0, 64, 127
2, 49153, Note_on_c, 0, 59, 73
2, 49154, Note_on_c, 0, 28, 0
2, 49164, Note_on_c, 0, 40, 0
2, 49166, Note_on_c, 0, 64, 97
2, 49168, Note_on_c, 0, 52, 0
2, 49171, Note_on_c, 0, 56, 0
2, 49174, Note_on_c, 0, 59, 0
2, 49181, Note_on_c, 0, 64, 0
2, 49301, Control_c, 0, 64, 104
2, 49303, Control_c, 0, 64, 0
2, 49307, Note_on_c, 0, 40, 72
2, 49311, Note_on_c, 0, 56, 78
2, 49312, Note_on_c, 0, 47, 75
2, 49318, Note_on_c, 0, 59, 75
2, 49327, Note_on_c, 0, 40, 0
2, 49327, Control_c, 0, 64, 127
2, 49331, Note_on_c, 0, 52, 87
2, 49333, Note_on_c, 0, 56, 0
2, 49333, Note_on_c, 0, 64, 72
2, 49336, Note_on_c, 0, 68, 99
2, 49339, Note_on_c, 0, 47, 0
2, 49340, Note_on_c, 0, 59, 0
2, 49343, Note_on_c, 0, 52, 0
2, 49345, Note_on_c, 0, 64, 0
2, 49352, Note_on_c, 0, 68, 0
2, 49472, Note_on_c, 0, 40, 70
2, 49473, Control_c, 0, 64, 72
2, 49477, Note_on_c, 0, 56, 79
2, 49477, Control_c, 0, 64, 0
2, 49478, Note_on_c, 0, 47, 80
2, 49487, Note_on_c, 0, 59, 79
2, 49495, Note_on_c, 0, 40, 0
2, 49496, Control_c, 0, 64, 104
2, 49498, Note_on_c, 0, 52, 88
2, 49499, Note_on_c, 0, 56, 0
2, 49500, Note_on_c, 0, 64, 74
2, 49501, Control_c, 0, 64, 127
2, 49505, Note_on_c, 0, 47, 0
2, 49507, Note_on_c, 0, 68, 90
2, 49509, Note_on_c, 0, 59, 0
2, 49511, Note_on_c, 0, 52, 0
2, 49516, Note_on_c, 0, 64, 0
2, 49522, Note_on_c, 0, 68, 0
2, 49631, Note_on_c, 0, 40, 64
2, 49636, Control_c, 0, 64, 40
2, 49640, Control_c, 0, 64, 0
2, 49642, Note_on_c, 0, 47, 76
2, 49643, Note_on_c, 0, 56, 74
2, 49652, Note_on_c, 0, 59, 78
2, 49654, Note_on_c, 0, 40, 0
2, 49656, Control_c, 0, 64, 127
2, 49660, Note_on_c, 0, 52, 92
2, 49663, Note_on_c, 0, 64, 78
2, 49664, Note_on_c, 0, 56, 0
2, 49667, Note_on_c, 0, 47, 0
2, 49670, Note_on_c, 0, 59, 0
2, 49670, Note_on_c, 0, 68, 91
2, 49671, Note_on_c, 0, 52, 0
2, 49678, Note_on_c, 0, 64, 0
2, 49683, Note_on_c, 0, 68, 0
2, 49792, Note_on_c, 0, 40, 72
2, 49796, Control_c, 0, 64, 72
2, 49798, Control_c, 0, 64, 0
2, 49800, Note_on_c, 0, 47, 76
2, 49802, Note_on_c, 0, 56, 70
2, 49812, Control_c, 0, 64, 24
2, 49813, Note_on_c, 0, 59, 77
2, 49814, Note_on_c, 0, 40, 0
2, 49816, Control_c, 0, 64, 104
2, 49820, Control_c, 0, 64, 127
2, 49821, Note_on_c, 0, 52, 83
2, 49823, Note_on_c, 0, 56, 0
2, 49826, Note_on_c, 0, 47, 0
2, 49827, Note_on_c, 0, 64, 78
2, 49833, Note_on_c, 0, 52, 0
2, 49834, Note_on_c, 0, 59, 0
2, 49836, Note_on_c, 0, 68, 89
2, 49843, Note_on_c, 0, 64, 0
2, 49849, Note_on_c, 0, 68, 0
2, 49958, Note_on_c, 0, 40, 59
2, 49958, Control_c, 0, 64, 72
2, 49962, Control_c, 0, 64, 0
2, 49965, Note_on_c, 0, 56, 60
2, 49968, Note_on_c, 0, 47, 78
2, 49975, Control_c, 0, 64, 24
2, 49977, Note_on_c, 0, 59, 82
2, 49977, Control_c, 0, 64, 104
2, 49982, Control_c, 0, 64, 127
2, 49984, Note_on_c, 0, 40, 0
2, 49986, Note_on_c, 0, 52, 84
2, 49987, Note_on_c, 0, 56, 0
2, 49990, Note_on_c, 0, 47, 0
2, 49991, Note_on_c, 0, 64, 82
2, 49996, Note_on_c, 0, 68, 87
2, 49997, Note_on_c, 0, 59, 0
2, 49998, Note_on_c, 0, 52, 0
2, 50004, Note_on_c, 0, 64, 0
2, 50012, Note_on_c, 0, 68, 0
2, 50108, Note_on_c, 0, 56, 63
2, 50111, Note_on_c, 0, 40, 43
2, 50115, Control_c, 0, 64, 40
2, 50117, Control_c, 0, 64, 0
2, 50121, Note_on_c, 0, 47, 77
2, 50122, Note_on_c, 0, 59, 62
2, 50129, Note_on_c, 0, 56, 0
2, 50131, Note_on_c, 0, 68, 88
2, 50132, Note_on_c, 0, 64, 66
2, 50135, Note_on_c, 0, 52, 71
2, 50135, Control_c, 0, 64, 88
2, 50137, Control_c, 0, 64, 127
2, 50139, Note_on_c, 0, 47, 0
2, 50142, Note_on_c, 0, 59, 0
2, 50143, Note_on_c, 0, 40, 0
2, 50148, Note_on_c, 0, 64, 0
2, 50150, Note_on_c, 0, 52, 0
2, 50168, Control_c, 0, 64, 0
2, 50172, Note_on_c, 0, 51, 71
2, 50176, Note_on_c, 0, 39, 54
2, 50188, Note_on_c, 0, 51, 0
2, 50189, Note_on_c, 0, 39, 0
2, 50206, Note_on_c, 0, 68, 0
2, 50213, Note_on_c, 0, 49, 69
2, 50213, Note_on_c, 0, 37, 47
2, 50224, Note_on_c, 0, 37, 0
2, 50226, Note_on_c, 0, 49, 0
2, 50247, Note_on_c, 0, 47, 85
2, 50250, Note_on_c, 0, 35, 65
2, 50257, Note_on_c, 0, 35, 0
2, 50263, Note_on_c, 0, 47, 0
2, 50287, Note_on_c, 0, 52, 80
2, 50288, Note_on_c, 0, 40, 61
2, 50298, Note_on_c, 0, 40, 0
2, 50303, Note_on_c, 0, 52, 0
2, 50325, Note_on_c, 0, 51, 72
2, 50326, Note_on_c, 0, 39, 60
2, 50336, Note_on_c, 0, 39, 0
2, 50340, Note_on_c, 0, 51, 0
2, 50366, Note_on_c, 0, 49, 55
2, 50366, Note_on_c, 0, 37, 43
2, 50373, Note_on_c, 0, 49, 0
2, 50377, Note_on_c, 0, 37, 0
2, 50400, Note_on_c, 0, 47, 69
2, 50401, Note_on_c, 0, 35, 60
2, 50409, Note_on_c, 0, 35, 0
2, 50412, Note_on_c, 0, 47, 0
2, 50436, Note_on_c, 0, 52, 80
2, 50437, Note_on_c, 0, 40, 60
2, 50447, Note_on_c, 0, 40, 0
2, 50449, Note_on_c, 0, 52, 0
2, 50472, Note_on_c, 0, 51, 77
2, 50473, Note_on_c, 0, 39, 56
2, 50480, Note_on_c, 0, 39, 0
2, 50485, Note_on_c, 0, 51, 0
2, 50510, Note_on_c, 0, 49, 72
2, 50510, Note_on_c, 0, 37, 52
2, 50522, Note_on_c, 0, 49, 0
2, 50523, Note_on_c, 0, 37, 0
2, 50546, Note_on_c, 0, 47, 73
2, 50548, Note_on_c, 0, 35, 58
2, 50556, Note_on_c, 0, 35, 0
2, 50559, Note_on_c, 0, 47, 0
2, 50582, Note_on_c, 0, 52, 80
2, 50583, Note_on_c, 0, 40, 61
2, 50593, Note_on_c, 0, 40, 0
2, 50597, Note_on_c, 0, 52, 0
2, 50620, Note_on_c, 0, 51, 72
2, 50621, Note_on_c, 0, 39, 56
2, 50629, Note_on_c, 0, 39, 0
2, 50632, Note_on_c, 0, 51, 0
2, 50656, Note_on_c, 0, 49, 70
2, 50658, Note_on_c, 0, 37, 48
2, 50668, Note_on_c, 0, 37, 0
2, 50669, Note_on_c, 0, 49, 0
2, 50691, Note_on_c, 0, 47, 69
2, 50695, Note_on_c, 0, 35, 58
2, 50702, Note_on_c, 0, 35, 0
2, 50706, Note_on_c, 0, 47, 0
2, 50728, Note_on_c, 0, 52, 78
2, 50730, Note_on_c, 0, 40, 59
2, 50740, Note_on_c, 0, 40, 0
2, 50741, Note_on_c, 0, 52, 0
2, 50766, Note_on_c, 0, 51, 67
2, 50767, Note_on_c, 0, 39, 56
2, 50774, Note_on_c, 0, 39, 0
2, 50776, Note_on_c, 0, 51, 0
2, 50801, Note_on_c, 0, 49, 68
2, 50802, Note_on_c, 0, 37, 53
2, 50813, Note_on_c, 0, 37, 0
2, 50813, Note_on_c, 0, 49, 0
2, 50836, Note_on_c, 0, 47, 67
2, 50838, Note_on_c, 0, 35, 61
2, 50846, Note_on_c, 0, 35, 0
2, 50847, Note_on_c, 0, 47, 0
2, 50873, Note_on_c, 0, 52, 78
2, 50873, Note_on_c, 0, 40, 53
2, 50884, Note_on_c, 0, 40, 0
2, 50884, Note_on_c, 0, 52, 0
2, 50910, Note_on_c, 0, 51, 68
2, 50910, Note_on_c, 0, 39, 62
2, 50925, Note_on_c, 0, 39, 0
2, 50926, Note_on_c, 0, 51, 0
2, 50940, Note_on_c, 0, 37, 57
2, 50945, Note_on_c, 0, 49, 64
2, 50960, Note_on_c, 0, 37, 0
2, 50963, Note_on_c, 0, 49, 0
2, 50977, Note_on_c, 0, 47, 60
2, 50978, Note_on_c, 0, 35, 68
2, 50983, Note_on_c, 0, 47, 0
2, 50985, Note_on_c, 0, 35, 0
2, 51020, Note_on_c, 0, 56, 68
2, 51021, Note_on_c, 0, 52, 77
2, 51022, Note_on_c, 0, 40, 57
2, 51023, Note_on_c, 0, 59, 79
2, 51027, Note_on_c, 0, 52, 0
2, 51032, Note_on_c, 0, 40, 0
2, 51055, Note_on_c, 0, 51, 67
2, 51058, Note_on_c, 0, 39, 50
2, 51061, Note_on_c, 0, 51, 0
2, 51063, Note_on_c, 0, 39, 0
2, 51091, Note_on_c, 0, 49, 60
2, 51096, Note_on_c, 0, 49, 0
2, 51131, Note_on_c, 0, 35, 59
2, 51132, Note_on_c, 0, 47, 51
2, 51138, Note_on_c, 0, 47, 0
2, 51138, Note_on_c, 0, 35, 0
2, 51166, Note_on_c, 0, 52, 76
2, 51167, Note_on_c, 0, 40, 68
2, 51171, Note_on_c, 0, 52, 0
2, 51173, Note_on_c, 0, 40, 0
2, 51201, Note_on_c, 0, 39, 60
2, 51202, Note_on_c, 0, 51, 38
2, 51206, Note_on_c, 0, 39, 0
2, 51207, Note_on_c, 0, 51, 0
2, 51233, Note_on_c, 0, 49, 70
2, 51237, Note_on_c, 0, 37, 46
2, 51239, Note_on_c, 0, 49, 0
2, 51243, Note_on_c, 0, 37, 0
2, 51270, Note_on_c, 0, 59, 0
2, 51270, Note_on_c, 0, 47, 69
2, 51273, Note_on_c, 0, 35, 48
2, 51275, Note_on_c, 0, 47, 0
2, 51275, Note_on_c, 0, 56, 0
2, 51279, Note_on_c, 0, 35, 0
2, 51305, Note_on_c, 0, 59, 88
2, 51307, Note_on_c, 0, 57, 74
2, 51310, Note_on_c, 0, 52, 74
2, 51316, Note_on_c, 0, 52, 0
2, 51328, Note_on_c, 0, 57, 0
2, 51342, Note_on_c, 0, 51, 70
2, 51343, Note_on_c, 0, 39, 54
2, 51347, Note_on_c, 0, 51, 0
2, 51350, Note_on_c, 0, 39, 0
2, 51373, Note_on_c, 0, 49, 66
2, 51379, Note_on_c, 0, 49, 0
2, 51382, Note_on_c, 0, 59, 0
2, 51408, Note_on_c, 0, 59, 80
2, 51412, Note_on_c, 0, 57, 75
2, 51416, Note_on_c, 0, 35, 53
2, 51424, Note_on_c, 0, 35, 0
2, 51425, Note_on_c, 0, 59, 0
2, 51427, Note_on_c, 0, 57, 0
2, 51448, Note_on_c, 0, 59, 90
2, 51448, Note_on_c, 0, 56, 64
2, 51450, Note_on_c, 0, 52, 75
2, 51456, Note_on_c, 0, 52, 0
2, 51483, Note_on_c, 0, 51, 71
2, 51486, Note_on_c, 0, 39, 50
2, 51490, Note_on_c, 0, 51, 0
2, 51492, Note_on_c, 0, 39, 0
2, 51518, Note_on_c, 0, 49, 69
2, 51524, Note_on_c, 0, 49, 0
2, 51526, Note_on_c, 0, 56, 0
2, 51538, Note_on_c, 0, 59, 0
2, 51550, Note_on_c, 0, 56, 62
2, 51552, Note_on_c, 0, 64, 74
2, 51552, Note_on_c, 0, 59, 74
2, 51556, Note_on_c, 0, 47, 72
2, 51557, Note_on_c, 0, 35, 63
2, 51561, Note_on_c, 0, 47, 0
2, 51563, Note_on_c, 0, 59, 0
2, 51563, Note_on_c, 0, 35, 0
2, 51563, Note_on_c, 0, 56, 0
2, 51564, Note_on_c, 0, 64, 0
2, 51587, Note_on_c, 0, 68, 88
2, 51588, Note_on_c, 0, 59, 73
2, 51590, Note_on_c, 0, 56, 59
2, 51591, Note_on_c, 0, 52, 74
2, 51593, Note_on_c, 0, 40, 66
2, 51597, Note_on_c, 0, 52, 0
2, 51600, Note_on_c, 0, 40, 0
2, 51625, Note_on_c, 0, 51, 61
2, 51628, Note_on_c, 0, 39, 47
2, 51631, Note_on_c, 0, 51, 0
2, 51633, Note_on_c, 0, 39, 0
2, 51662, Note_on_c, 0, 49, 57
2, 51668, Note_on_c, 0, 49, 0
2, 51696, Note_on_c, 0, 47, 71
2, 51698, Note_on_c, 0, 35, 54
2, 51701, Note_on_c, 0, 47, 0
2, 51704, Note_on_c, 0, 35, 0
2, 51708, Note_on_c, 0, 59, 0
2, 51711, Note_on_c, 0, 56, 0
2, 51712, Note_on_c, 0, 68, 0
2, 51731, Note_on_c, 0, 66, 84
2, 51735, Note_on_c, 0, 52, 76
2, 51735, Note_on_c, 0, 59, 66
2, 51736, Note_on_c, 0, 57, 60
2, 51738, Note_on_c, 0, 40, 35
2, 51740, Note_on_c, 0, 52, 0
2, 51745, Note_on_c, 0, 40, 0
2, 51766, Note_on_c, 0, 51, 68
2, 51768, Note_on_c, 0, 39, 54
2, 51773, Note_on_c, 0, 51, 0
2, 51774, Note_on_c, 0, 39, 0
2, 51802, Note_on_c, 0, 49, 63
2, 51809, Note_on_c, 0, 49, 0
2, 51836, Note_on_c, 0, 57, 0
2, 51837, Note_on_c, 0, 47, 74
2, 51838, Note_on_c, 0, 59, 0
2, 51840, Note_on_c, 0, 35, 65
2, 51843, Note_on_c, 0, 47, 0
2, 51846, Note_on_c, 0, 35, 0
2, 51856, Note_on_c, 0, 66, 0
2, 51876, Note_on_c, 0, 59, 86
2, 51877, Note_on_c, 0, 56, 54
2, 51878, Note_on_c, 0, 52, 75
2, 51880, Note_on_c, 0, 40, 67
2, 51883, Note_on_c, 0, 52, 0
2, 51886, Note_on_c, 0, 40, 0
2, 51911, Note_on_c, 0, 51, 61
2, 51912, Note_on_c, 0, 39, 50
2, 51917, Note_on_c, 0, 51, 0
2, 51918, Note_on_c, 0, 39, 0
2, 51943, Note_on_c, 0, 49, 70
2, 51950, Note_on_c, 0, 56, 0
2, 51953, Note_on_c, 0, 49, 0
2, 51966, Note_on_c, 0, 59, 0
2, 51978, Note_on_c, 0, 64, 87
2, 51978, Note_on_c, 0, 56, 67
2, 51981, Note_on_c, 0, 47, 74
2, 51985, Note_on_c, 0, 35, 65
2, 51987, Note_on_c, 0, 47, 0
2, 51991, Note_on_c, 0, 35, 0
2, 51991, Note_on_c, 0, 56, 0
2, 51999, Note_on_c, 0, 64, 0
2, 52015, Note_on_c, 0, 56, 75
2, 52016, Note_on_c, 0, 68, 88
2, 52018, Note_on_c, 0, 52, 77
2, 52022, Note_on_c, 0, 40, 45
2, 52023, Note_on_c, 0, 52, 0
2, 52029, Note_on_c, 0, 40, 0
2, 52052, Note_on_c, 0, 51, 68
2, 52055, Note_on_c, 0, 39, 52
2, 52058, Note_on_c, 0, 51, 0
2, 52060, Note_on_c, 0, 39, 0
2, 52085, Note_on_c, 0, 49, 72
2, 52093, Note_on_c, 0, 56, 0
2, 52095, Note_on_c, 0, 49, 0
2, 52120, Note_on_c, 0, 63, 74
2, 52121, Note_on_c, 0, 57, 64
2, 52123, Note_on_c, 0, 47, 73
2, 52125, Note_on_c, 0, 35, 66
2, 52128, Note_on_c, 0, 57, 0
2, 52129, Note_on_c, 0, 47, 0
2, 52129, Note_on_c, 0, 68, 0
2, 52131, Note_on_c, 0, 35, 0
2, 52141, Note_on_c, 0, 63, 0
2, 52155, Note_on_c, 0, 64, 90
2, 52156, Note_on_c, 0, 56, 67
2, 52157, Note_on_c, 0, 52, 80
2, 52162, Note_on_c, 0, 40, 63
2, 52165, Note_on_c, 0, 52, 0
2, 52166, Note_on_c, 0, 56, 0
2, 52168, Note_on_c, 0, 40, 0
2, 52171, Note_on_c, 0, 64, 0
2, 52191, Note_on_c, 0, 51, 71
2, 52193, Note_on_c, 0, 39, 55
2, 52197, Note_on_c, 0, 51, 0
2, 52198, Note_on_c, 0, 39, 0
2, 52226, Note_on_c, 0, 56, 83
2, 52226, Note_on_c, 0, 68, 86
2, 52228, Note_on_c, 0, 64, 80
2, 52228, Note_on_c, 0, 49, 75
2, 52233, Note_on_c, 0, 64, 0
2, 52233, Note_on_c, 0, 37, 35
2, 52236, Note_on_c, 0, 49, 0
2, 52238, Note_on_c, 0, 56, 0
2, 52239, Note_on_c, 0, 37, 0
2, 52243, Note_on_c, 0, 68, 0
2, 52265, Note_on_c, 0, 47, 66
2, 52267, Note_on_c, 0, 35, 60
2, 52271, Note_on_c, 0, 47, 0
2, 52273, Note_on_c, 0, 35, 0
2, 52298, Note_on_c, 0, 71, 95
2, 52300, Note_on_c, 0, 59, 81
2, 52301, Note_on_c, 0, 68, 77
2, 52303, Note_on_c, 0, 52, 80
2, 52306, Note_on_c, 0, 40, 70
2, 52307, Control_c, 0, 64, 24
2, 52310, Note_on_c, 0, 52, 0
2, 52311, Control_c, 0, 64, 72
2, 52312, Note_on_c, 0, 40, 0
2, 52313, Control_c, 0, 64, 104
2, 52315, Note_on_c, 0, 59, 0
2, 52323, Note_on_c, 0, 71, 0
2, 52324, Note_on_c, 0, 68, 0
2, 52327, Control_c, 0, 64, 127
2, 52338, Note_on_c, 0, 51, 69
2, 52341, Note_on_c, 0, 39, 39
2, 52343, Note_on_c, 0, 51, 0
2, 52348, Note_on_c, 0, 39, 0
2, 52357, Control_c, 0, 64, 104
2, 52361, Control_c, 0, 64, 72
2, 52365, Control_c, 0, 64, 56
2, 52368, Control_c, 0, 64, 24
2, 52371, Note_on_c, 0, 73, 91
2, 52371, Note_on_c, 0, 61, 81
2, 52371, Control_c, 0, 64, 0
2, 52373, Note_on_c, 0, 49, 68
2, 52373, Note_on_c, 0, 68, 70
2, 52381, Note_on_c, 0, 49, 0
2, 52383, Note_on_c, 0, 61, 0
2, 52387, Note_on_c, 0, 73, 0
2, 52389, Note_on_c, 0, 68, 0
2, 52406, Note_on_c, 0, 75, 90
2, 52406, Note_on_c, 0, 63, 73
2, 52407, Note_on_c, 0, 68, 73
2, 52410, Note_on_c, 0, 47, 66
2, 52413, Note_on_c, 0, 35, 50
2, 52415, Note_on_c, 0, 47, 0
2, 52418, Note_on_c, 0, 63, 0
2, 52420, Note_on_c, 0, 35, 0
2, 52422, Note_on_c, 0, 68, 0
2, 52427, Note_on_c, 0, 75, 0
2, 52442, Note_on_c, 0, 68, 92
2, 52442, Note_on_c, 0, 76, 104
2, 52445, Note_on_c, 0, 64, 84
2, 52447, Note_on_c, 0, 52, 83
2, 52450, Note_on_c, 0, 64, 0
2, 52450, Note_on_c, 0, 40, 74
2, 52453, Note_on_c, 0, 52, 0
2, 52453, Note_on_c, 0, 76, 0
2, 52454, Note_on_c, 0, 68, 0
2, 52456, Note_on_c, 0, 40, 0
2, 52480, Note_on_c, 0, 51, 83
2, 52481, Note_on_c, 0, 39, 69
2, 52487, Note_on_c, 0, 39, 0
2, 52491, Note_on_c, 0, 51, 0
2, 52516, Note_on_c, 0, 71, 97
2, 52516, Note_on_c, 0, 59, 90
2, 52517, Note_on_c, 0, 68, 79
2, 52518, Note_on_c, 0, 49, 77
2, 52522, Note_on_c, 0, 37, 48
2, 52527, Note_on_c, 0, 59, 0
2, 52528, Note_on_c, 0, 37, 0
2, 52529, Note_on_c, 0, 49, 0
2, 52532, Note_on_c, 0, 68, 0
2, 52533, Note_on_c, 0, 71, 0
2, 52553, Note_on_c, 0, 47, 89
2, 52557, Note_on_c, 0, 35, 76
2, 52561, Note_on_c, 0, 47, 0
2, 52562, Note_on_c, 0, 35, 0
2, 52591, Note_on_c, 0, 80, 110
2, 52591, Note_on_c, 0, 68, 95
2, 52592, Note_on_c, 0, 71, 97
2, 52596, Note_on_c, 0, 52, 84
2, 52598, Note_on_c, 0, 40, 75
2, 52602, Note_on_c, 0, 52, 0
2, 52604, Note_on_c, 0, 40, 0
2, 52606, Control_c, 0, 64, 40
2, 52608, Control_c, 0, 64, 72
2, 52612, Control_c, 0, 64, 104
2, 52616, Control_c, 0, 64, 127
2, 52626, Control_c, 0, 64, 104
2, 52628, Control_c, 0, 64, 72
2, 52630, Note_on_c, 0, 51, 83
2, 52632, Note_on_c, 0, 39, 68
2, 52633, Control_c, 0, 64, 24
2, 52636, Control_c, 0, 64, 0
2, 52637, Note_on_c, 0, 39, 0
2, 52640, Note_on_c, 0, 51, 0
2, 52650, Control_c, 0, 64, 24
2, 52653, Control_c, 0, 64, 72
2, 52656, Control_c, 0, 64, 127
2, 52666, Note_on_c, 0, 49, 68
2, 52671, Note_on_c, 0, 37, 36
2, 52672, Note_on_c, 0, 80, 0
2, 52675, Note_on_c, 0, 71, 0
2, 52676, Note_on_c, 0, 49, 0
2, 52677, Note_on_c, 0, 37, 0
2, 52681, Note_on_c, 0, 68, 0
2, 52703, Note_on_c, 0, 47, 81
2, 52706, Note_on_c, 0, 35, 70
2, 52709, Note_on_c, 0, 47, 0
2, 52712, Note_on_c, 0, 35, 0
2, 52715, Control_c, 0, 64, 104
2, 52717, Control_c, 0, 64, 72
2, 52721, Control_c, 0, 64, 24
2, 52725, Control_c, 0, 64, 0
2, 52743, Note_on_c, 0, 71, 92
2, 52745, Note_on_c, 0, 52, 80
2, 52745, Note_on_c, 0, 69, 83
2, 52745, Note_on_c, 0, 59, 83
2, 52747, Note_on_c, 0, 40, 70
2, 52751, Note_on_c, 0, 52, 0
2, 52751, Note_on_c, 0, 66, 65
2, 52752, Note_on_c, 0, 40, 0
2, 52778, Note_on_c, 0, 51, 67
2, 52781, Note_on_c, 0, 39, 60
2, 52785, Note_on_c, 0, 51, 0
2, 52787, Note_on_c, 0, 39, 0
2, 52815, Note_on_c, 0, 49, 68
2, 52823, Note_on_c, 0, 49, 0
2, 52855, Note_on_c, 0, 47, 74
2, 52856, Note_on_c, 0, 35, 66
2, 52861, Note_on_c, 0, 47, 0
2, 52862, Note_on_c, 0, 35, 0
2, 52892, Note_on_c, 0, 52, 75
2, 52897, Note_on_c, 0, 52, 0
2, 52897, Note_on_c, 0, 40, 41
2, 52904, Note_on_c, 0, 40, 0
2, 52916, Note_on_c, 0, 66, 0
2, 52920, Note_on_c, 0, 59, 0
2, 52923, Note_on_c, 0, 51, 74
2, 52925, Note_on_c, 0, 39, 66
2, 52926, Note_on_c, 0, 69, 0
2, 52926, Note_on_c, 0, 71, 0
2, 52929, Note_on_c, 0, 51, 0
2, 52930, Note_on_c, 0, 39, 0
2, 52957, Note_on_c, 0, 71, 87
2, 52957, Note_on_c, 0, 59, 82
2, 52960, Note_on_c, 0, 69, 85
2, 52961, Note_on_c, 0, 49, 69
2, 52965, Note_on_c, 0, 37, 41
2, 52967, Note_on_c, 0, 49, 0
2, 52968, Note_on_c, 0, 69, 0
2, 52970, Note_on_c, 0, 71, 0
2, 52970, Note_on_c, 0, 59, 0
2, 52971, Note_on_c, 0, 37, 0
2, 52992, Note_on_c, 0, 71, 88
2, 52993, Note_on_c, 0, 59, 80
2, 52995, Note_on_c, 0, 69, 82
2, 52997, Note_on_c, 0, 47, 72
2, 53000, Note_on_c, 0, 35, 56
2, 53001, Note_on_c, 0, 69, 0
2, 53002, Note_on_c, 0, 47, 0
2, 53004, Note_on_c, 0, 59, 0
2, 53006, Note_on_c, 0, 35, 0
2, 53007, Note_on_c, 0, 71, 0
2, 53028, Note_on_c, 0, 59, 78
2, 53031, Note_on_c, 0, 71, 82
2, 53031, Note_on_c, 0, 69, 76
2, 53032, Note_on_c, 0, 52, 80
2, 53035, Note_on_c, 0, 59, 0
2, 53035, Note_on_c, 0, 40, 57
2, 53037, Note_on_c, 0, 52, 0
2, 53037, Note_on_c, 0, 69, 0
2, 53038, Note_on_c, 0, 71, 0
2, 53043, Note_on_c, 0, 40, 0
2, 53066, Note_on_c, 0, 51, 73
2, 53067, Note_on_c, 0, 39, 59
2, 53072, Note_on_c, 0, 39, 0
2, 53072, Note_on_c, 0, 51, 0
2, 53102, Note_on_c, 0, 49, 78
2, 53105, Note_on_c, 0, 59, 83
2, 53105, Note_on_c, 0, 71, 87
2, 53105, Note_on_c, 0, 69, 84
2, 53106, Note_on_c, 0, 37, 59
2, 53111, Note_on_c, 0, 37, 0
2, 53113, Note_on_c, 0, 49, 0
2, 53117, Note_on_c, 0, 59, 0
2, 53118, Note_on_c, 0, 71, 0
2, 53118, Note_on_c, 0, 69, 0
2, 53142, Note_on_c, 0, 47, 68
2, 53147, Note_on_c, 0, 35, 35
2, 53148, Note_on_c, 0, 47, 0
2, 53153, Note_on_c, 0, 35, 0
2, 53182, Note_on_c, 0, 71, 100
2, 53183, Note_on_c, 0, 59, 89
2, 53183, Note_on_c, 0, 52, 77
2, 53183, Note_on_c, 0, 68, 78
2, 53185, Note_on_c, 0, 40, 69
2, 53188, Note_on_c, 0, 52, 0
2, 53191, Note_on_c, 0, 40, 0
2, 53196, Control_c, 0, 64, 56
2, 53200, Control_c, 0, 64, 104
2, 53202, Control_c, 0, 64, 127
2, 53217, Note_on_c, 0, 51, 74
2, 53218, Note_on_c, 0, 39, 57
2, 53221, Note_on_c, 0, 59, 0
2, 53223, Note_on_c, 0, 51, 0
2, 53224, Note_on_c, 0, 39, 0
2, 53234, Note_on_c, 0, 68, 0
2, 53235, Note_on_c, 0, 71, 0
2, 53256, Note_on_c, 0, 49, 62
2, 53260, Note_on_c, 0, 37, 37
2, 53262, Note_on_c, 0, 49, 0
2, 53266, Note_on_c, 0, 37, 0
2, 53273, Control_c, 0, 64, 88
2, 53277, Control_c, 0, 64, 40
2, 53281, Control_c, 0, 64, 0
2, 53292, Note_on_c, 0, 76, 98
2, 53292, Note_on_c, 0, 64, 84
2, 53292, Note_on_c, 0, 68, 75
2, 53296, Note_on_c, 0, 35, 55
2, 53298, Note_on_c, 0, 47, 29
2, 53302, Note_on_c, 0, 35, 0
2, 53303, Note_on_c, 0, 47, 0
2, 53305, Note_on_c, 0, 68, 0
2, 53305, Note_on_c, 0, 64, 0
2, 53307, Note_on_c, 0, 76, 0
2, 53331, Note_on_c, 0, 76, 103
2, 53331, Note_on_c, 0, 64, 86
2, 53331, Note_on_c, 0, 68, 86
2, 53332, Note_on_c, 0, 52, 81
2, 53336, Note_on_c, 0, 40, 67
2, 53338, Note_on_c, 0, 52, 0
2, 53342, Note_on_c, 0, 40, 0
2, 53362, Control_c, 0, 64, 24
2, 53365, Note_on_c, 0, 51, 74
2, 53365, Control_c, 0, 64, 72
2, 53367, Note_on_c, 0, 39, 56
2, 53368, Control_c, 0, 64, 104
2, 53371, Control_c, 0, 64, 127
2, 53373, Note_on_c, 0, 39, 0
2, 53373, Note_on_c, 0, 51, 0
2, 53397, Note_on_c, 0, 76, 0
2, 53398, Control_c, 0, 64, 104
2, 53402, Note_on_c, 0, 49, 64
2, 53406, Note_on_c, 0, 64, 0
2, 53406, Control_c, 0, 64, 72
2, 53407, Note_on_c, 0, 49, 0
2, 53407, Note_on_c, 0, 68, 0
2, 53408, Control_c, 0, 64, 40
2, 53412, Control_c, 0, 64, 0
2, 53435, Note_on_c, 0, 47, 78
2, 53441, Note_on_c, 0, 35, 54
2, 53443, Note_on_c, 0, 47, 0
2, 53447, Note_on_c, 0, 35, 0
2, 53473, Note_on_c, 0, 68, 83
2, 53476, Note_on_c, 0, 59, 73
2, 53476, Note_on_c, 0, 52, 76
2, 53477, Note_on_c, 0, 64, 73
2, 53478, Note_on_c, 0, 40, 62
2, 53482, Note_on_c, 0, 52, 0
2, 53485, Note_on_c, 0, 40, 0
2, 53510, Note_on_c, 0, 51, 75
2, 53511, Note_on_c, 0, 39, 70
2, 53516, Note_on_c, 0, 51, 0
2, 53517, Note_on_c, 0, 39, 0
2, 53545, Note_on_c, 0, 49, 69
2, 53551, Note_on_c, 0, 49, 0
2, 53565, Note_on_c, 0, 64, 0
2, 53582, Note_on_c, 0, 47, 47
2, 53590, Note_on_c, 0, 47, 0
2, 53590, Note_on_c, 0, 68, 0
2, 53591, Note_on_c, 0, 59, 0
2, 53618, Note_on_c, 0, 66, 87
2, 53620, Note_on_c, 0, 52, 78
2, 53621, Note_on_c, 0, 59, 74
2, 53622, Note_on_c, 0, 57, 61
2, 53625, Note_on_c, 0, 40, 61
2, 53627, Note_on_c, 0, 52, 0
2, 53631, Note_on_c, 0, 40, 0
2, 53655, Note_on_c, 0, 51, 68
2, 53656, Note_on_c, 0, 39, 64
2, 53660, Note_on_c, 0, 51, 0
2, 53662, Note_on_c, 0, 39, 0
2, 53663, Note_on_c, 0, 59, 0
2, 53665, Note_on_c, 0, 57, 0
2, 53688, Note_on_c, 0, 57, 70
2, 53690, Note_on_c, 0, 59, 78
2, 53691, Note_on_c, 0, 49, 69
2, 53695, Note_on_c, 0, 37, 45
2, 53697, Note_on_c, 0, 49, 0
2, 53700, Note_on_c, 0, 37, 0
2, 53701, Note_on_c, 0, 57, 0
2, 53702, Note_on_c, 0, 59, 0
2, 53722, Note_on_c, 0, 57, 65
2, 53722, Note_on_c, 0, 59, 66
2, 53727, Note_on_c, 0, 47, 71
2, 53728, Note_on_c, 0, 35, 64
2, 53733, Note_on_c, 0, 47, 0
2, 53735, Note_on_c, 0, 59, 0
2, 53735, Note_on_c, 0, 35, 0
2, 53735, Note_on_c, 0, 57, 0
2, 53761, Note_on_c, 0, 59, 65
2, 53761, Note_on_c, 0, 57, 69
2, 53763, Note_on_c, 0, 52, 77
2, 53767, Note_on_c, 0, 40, 50
2, 53769, Note_on_c, 0, 52, 0
2, 53774, Note_on_c, 0, 40, 0
2, 53795, Note_on_c, 0, 51, 74
2, 53797, Note_on_c, 0, 39, 60
2, 53801, Note_on_c, 0, 51, 0
2, 53802, Note_on_c, 0, 39, 0
2, 53806, Note_on_c, 0, 57, 0
2, 53807, Note_on_c, 0, 59, 0
2, 53813, Note_on_c, 0, 66, 0
2, 53831, Note_on_c, 0, 66, 79
2, 53832, Note_on_c, 0, 49, 79
2, 53833, Note_on_c, 0, 57, 70
2, 53833, Note_on_c, 0, 59, 65
2, 53836, Note_on_c, 0, 37, 52
2, 53841, Note_on_c, 0, 37, 0
2, 53842, Note_on_c, 0, 49, 0
2, 53858, Note_on_c, 0, 59, 0
2, 53858, Note_on_c, 0, 57, 0
2, 53870, Note_on_c, 0, 47, 66
2, 53873, Note_on_c, 0, 35, 52
2, 53877, Note_on_c, 0, 47, 0
2, 53880, Note_on_c, 0, 35, 0
2, 53887, Note_on_c, 0, 66, 0
2, 53903, Note_on_c, 0, 68, 87
2, 53906, Note_on_c, 0, 59, 65
2, 53906, Note_on_c, 0, 57, 61
2, 53907, Note_on_c, 0, 52, 79
2, 53911, Note_on_c, 0, 40, 65
2, 53913, Note_on_c, 0, 52, 0
2, 53914, Note_on_c, 0, 57, 0
2, 53914, Note_on_c, 0, 59, 0
2, 53917, Note_on_c, 0, 40, 0
2, 53921, Note_on_c, 0, 68, 0
2, 53938, Note_on_c, 0, 66, 86
2, 53940, Note_on_c, 0, 51, 79
2, 53941, Note_on_c, 0, 57, 63
2, 53941, Note_on_c, 0, 59, 66
2, 53942, Note_on_c, 0, 39, 64
2, 53948, Note_on_c, 0, 39, 0
2, 53949, Note_on_c, 0, 57, 0
2, 53949, Note_on_c, 0, 59, 0
2, 53951, Note_on_c, 0, 51, 0
2, 53959, Note_on_c, 0, 66, 0
2, 53972, Note_on_c, 0, 64, 94
2, 53973, Note_on_c, 0, 57, 68
2, 53975, Note_on_c, 0, 59, 69
2, 53975, Note_on_c, 0, 49, 79
2, 53978, Note_on_c, 0, 37, 48
2, 53982, Note_on_c, 0, 59, 0
2, 53983, Note_on_c, 0, 57, 0
2, 53984, Note_on_c, 0, 37, 0
2, 53986, Note_on_c, 0, 49, 0
2, 53990, Note_on_c, 0, 64, 0
2, 54007, Note_on_c, 0, 63, 93
2, 54010, Note_on_c, 0, 66, 81
2, 54013, Note_on_c, 0, 35, 69
2, 54019, Note_on_c, 0, 35, 0
2, 54024, Note_on_c, 0, 63, 0
2, 54033, Note_on_c, 0, 66, 0
2, 54046, Note_on_c, 0, 56, 84
2, 54046, Note_on_c, 0, 68, 87
2, 54046, Note_on_c, 0, 64, 87
2, 54048, Note_on_c, 0, 52, 84
2, 54052, Note_on_c, 0, 40, 77
2, 54056, Note_on_c, 0, 52, 0
2, 54058, Note_on_c, 0, 40, 0
2, 54083, Note_on_c, 0, 51, 71
2, 54087, Note_on_c, 0, 39, 44
2, 54089, Note_on_c, 0, 51, 0
2, 54093, Note_on_c, 0, 39, 0
2, 54118, Note_on_c, 0, 49, 67
2, 54124, Note_on_c, 0, 49, 0
2, 54136, Note_on_c, 0, 64, 0
2, 54138, Note_on_c, 0, 56, 0
2, 54151, Note_on_c, 0, 61, 74
2, 54156, Note_on_c, 0, 47, 76
2, 54158, Note_on_c, 0, 35, 67
2, 54162, Note_on_c, 0, 47, 0
2, 54164, Note_on_c, 0, 35, 0
2, 54183, Note_on_c, 0, 61, 0
2, 54191, Note_on_c, 0, 59, 82
2, 54193, Note_on_c, 0, 68, 0
2, 54193, Note_on_c, 0, 52, 76
2, 54197, Note_on_c, 0, 40, 56
2, 54199, Note_on_c, 0, 52, 0
2, 54204, Note_on_c, 0, 40, 0
2, 54225, Note_on_c, 0, 51, 75
2, 54227, Note_on_c, 0, 39, 57
2, 54232, Note_on_c, 0, 51, 0
2, 54233, Note_on_c, 0, 39, 0
2, 54262, Note_on_c, 0, 49, 64
2, 54268, Note_on_c, 0, 49, 0
2, 54295, Note_on_c, 0, 71, 92
2, 54296, Note_on_c, 0, 68, 77
2, 54298, Note_on_c, 0, 47, 74
2, 54302, Note_on_c, 0, 35, 59
2, 54304, Note_on_c, 0, 47, 0
2, 54308, Note_on_c, 0, 35, 0
2, 54309, Note_on_c, 0, 68, 0
2, 54312, Note_on_c, 0, 71, 0
2, 54331, Note_on_c, 0, 71, 84
2, 54331, Note_on_c, 0, 68, 70
2, 54336, Note_on_c, 0, 52, 76
2, 54340, Note_on_c, 0, 40, 62
2, 54342, Note_on_c, 0, 52, 0
2, 54346, Note_on_c, 0, 40, 0
2, 54368, Note_on_c, 0, 51, 68
2, 54371, Note_on_c, 0, 39, 56
2, 54375, Note_on_c, 0, 51, 0
2, 54377, Note_on_c, 0, 39, 0
2, 54378, Control_c, 0, 64, 24
2, 54382, Control_c, 0, 64, 40
2, 54388, Control_c, 0, 64, 56
2, 54392, Control_c, 0, 64, 72
2, 54396, Control_c, 0, 64, 88
2, 54402, Note_on_c, 0, 71, 0
2, 54402, Control_c, 0, 64, 104
2, 54404, Note_on_c, 0, 68, 0
2, 54405, Note_on_c, 0, 49, 59
2, 54406, Control_c, 0, 64, 127
2, 54408, Note_on_c, 0, 59, 0
2, 54411, Note_on_c, 0, 49, 0
2, 54432, Control_c, 0, 64, 104
2, 54436, Control_c, 0, 64, 72
2, 54440, Control_c, 0, 64, 40
2, 54441, Note_on_c, 0, 47, 67
2, 54442, Note_on_c, 0, 35, 54
2, 54443, Control_c, 0, 64, 0
2, 54447, Note_on_c, 0, 47, 0
2, 54449, Note_on_c, 0, 35, 0
2, 54477, Note_on_c, 0, 59, 80
2, 54480, Note_on_c, 0, 56, 59
2, 54480, Note_on_c, 0, 52, 70
2, 54483, Note_on_c, 0, 40, 52
2, 54486, Note_on_c, 0, 52, 0
2, 54490, Note_on_c, 0, 40, 0
2, 54513, Note_on_c, 0, 51, 67
2, 54517, Note_on_c, 0, 39, 53
2, 54520, Note_on_c, 0, 51, 0
2, 54522, Note_on_c, 0, 39, 0
2, 54548, Note_on_c, 0, 49, 59
2, 54555, Note_on_c, 0, 49, 0
2, 54582, Note_on_c, 0, 47, 80
2, 54585, Note_on_c, 0, 35, 72
2, 54591, Note_on_c, 0, 35, 0
2, 54593, Note_on_c, 0, 47, 0
2, 54621, Note_on_c, 0, 52, 76
2, 54626, Note_on_c, 0, 52, 0
2, 54652, Note_on_c, 0, 56, 0
2, 54652, Note_on_c, 0, 51, 70
2, 54653, Note_on_c, 0, 59, 0
2, 54658, Note_on_c, 0, 51, 0
2, 54686, Note_on_c, 0, 55, 82
2, 54686, Note_on_c, 0, 49, 74
2, 54688, Note_on_c, 0, 59, 76
2, 54697, Note_on_c, 0, 49, 0
2, 54698, Note_on_c, 0, 55, 0
2, 54703, Note_on_c, 0, 59, 0
2, 54717, Note_on_c, 0, 56, 85
2, 54721, Note_on_c, 0, 59, 75
2, 54725, Note_on_c, 0, 47, 76
2, 54726, Note_on_c, 0, 35, 68
2, 54730, Note_on_c, 0, 47, 0
2, 54732, Note_on_c, 0, 35, 0
2, 54734, Note_on_c, 0, 59, 0
2, 54737, Note_on_c, 0, 56, 0
2, 54755, Note_on_c, 0, 57, 86
2, 54757, Note_on_c, 0, 59, 89
2, 54760, Note_on_c, 0, 52, 77
2, 54762, Note_on_c, 0, 40, 66
2, 54766, Note_on_c, 0, 52, 0
2, 54768, Note_on_c, 0, 40, 0
2, 54769, Note_on_c, 0, 59, 0
2, 54772, Note_on_c, 0, 57, 0
2, 54792, Note_on_c, 0, 51, 69
2, 54793, Note_on_c, 0, 39, 65
2, 54797, Note_on_c, 0, 51, 0
2, 54799, Note_on_c, 0, 39, 0
2, 54826, Note_on_c, 0, 57, 78
2, 54827, Note_on_c, 0, 49, 70
2, 54827, Note_on_c, 0, 61, 64
2, 54835, Note_on_c, 0, 49, 0
2, 54839, Note_on_c, 0, 57, 0
2, 54840, Note_on_c, 0, 61, 0
2, 54862, Note_on_c, 0, 63, 80
2, 54863, Note_on_c, 0, 57, 77
2, 54863, Note_on_c, 0, 47, 74
2, 54867, Note_on_c, 0, 35, 55
2, 54869, Note_on_c, 0, 47, 0
2, 54869, Note_on_c, 0, 57, 0
2, 54874, Note_on_c, 0, 35, 0
2, 54883, Note_on_c, 0, 63, 0
2, 54900, Note_on_c, 0, 64, 84
2, 54900, Note_on_c, 0, 56, 72
2, 54902, Note_on_c, 0, 52, 76
2, 54907, Note_on_c, 0, 40, 51
2, 54908, Note_on_c, 0, 52, 0
2, 54913, Note_on_c, 0, 40, 0
2, 54937, Note_on_c, 0, 51, 69
2, 54938, Note_on_c, 0, 39, 59
2, 54943, Note_on_c, 0, 51, 0
2, 54944, Note_on_c, 0, 39, 0
2, 54972, Note_on_c, 0, 49, 67
2, 54978, Note_on_c, 0, 49, 0
2, 54980, Note_on_c, 0, 56, 0
2, 54985, Note_on_c, 0, 64, 0
2, 55003, Note_on_c, 0, 59, 78
2, 55005, Note_on_c, 0, 56, 52
2, 55011, Note_on_c, 0, 47, 64
2, 55011, Note_on_c, 0, 35, 63
2, 55017, Note_on_c, 0, 35, 0
2, 55017, Note_on_c, 0, 47, 0
2, 55018, Note_on_c, 0, 56, 0
2, 55021, Note_on_c, 0, 59, 0
2, 55043, Note_on_c, 0, 68, 87
2, 55045, Note_on_c, 0, 56, 65
2, 55045, Note_on_c, 0, 52, 71
2, 55045, Note_on_c, 0, 59, 75
2, 55052, Note_on_c, 0, 52, 0
2, 55052, Note_on_c, 0, 40, 34
2, 55053, Note_on_c, 0, 59, 0
2, 55058, Note_on_c, 0, 40, 0
2, 55065, Note_on_c, 0, 59, 17
2, 55077, Note_on_c, 0, 51, 67
2, 55081, Note_on_c, 0, 39, 45
2, 55084, Note_on_c, 0, 51, 0
2, 55087, Note_on_c, 0, 39, 0
2, 55112, Note_on_c, 0, 49, 71
2, 55117, Note_on_c, 0, 49, 0
2, 55147, Note_on_c, 0, 47, 74
2, 55151, Note_on_c, 0, 35, 51
2, 55152, Note_on_c, 0, 47, 0
2, 55156, Note_on_c, 0, 68, 0
2, 55158, Note_on_c, 0, 35, 0
2, 55158, Note_on_c, 0, 59, 0
2, 55161, Note_on_c, 0, 56, 0
2, 55182, Note_on_c, 0, 66, 79
2, 55185, Note_on_c, 0, 52, 76
2, 55187, Note_on_c, 0, 59, 59
2, 55187, Note_on_c, 0, 57, 58
2, 55188, Note_on_c, 0, 40, 52
2, 55191, Note_on_c, 0, 52, 0
2, 55195, Note_on_c, 0, 40, 0
2, 55218, Note_on_c, 0, 39, 72
2, 55218, Note_on_c, 0, 51, 67
2, 55223, Note_on_c, 0, 51, 0
2, 55226, Note_on_c, 0, 39, 0
2, 55255, Note_on_c, 0, 49, 61
2, 55261, Note_on_c, 0, 49, 0
2, 55277, Note_on_c, 0, 59, 0
2, 55279, Note_on_c, 0, 57, 0
2, 55287, Note_on_c, 0, 47, 76
2, 55290, Note_on_c, 0, 35, 65
2, 55293, Note_on_c, 0, 47, 0
2, 55296, Note_on_c, 0, 35, 0
2, 55307, Note_on_c, 0, 66, 0
2, 55323, Note_on_c, 0, 59, 85
2, 55323, Note_on_c, 0, 56, 61
2, 55326, Note_on_c, 0, 52, 76
2, 55328, Note_on_c, 0, 40, 66
2, 55332, Note_on_c, 0, 52, 0
2, 55334, Note_on_c, 0, 40, 0
2, 55358, Note_on_c, 0, 51, 66
2, 55358, Note_on_c, 0, 39, 64
2, 55363, Note_on_c, 0, 51, 0
2, 55364, Note_on_c, 0, 39, 0
2, 55392, Note_on_c, 0, 49, 66
2, 55393, Note_on_c, 0, 56, 0
2, 55398, Note_on_c, 0, 49, 0
2, 55413, Note_on_c, 0, 59, 0
2, 55426, Note_on_c, 0, 64, 83
2, 55426, Note_on_c, 0, 56, 65
2, 55427, Note_on_c, 0, 47, 77
2, 55431, Note_on_c, 0, 35, 66
2, 55433, Note_on_c, 0, 47, 0
2, 55436, Note_on_c, 0, 35, 0
2, 55439, Note_on_c, 0, 56, 0
2, 55447, Note_on_c, 0, 64, 0
2, 55463, Note_on_c, 0, 68, 91
2, 55463, Note_on_c, 0, 52, 78
2, 55463, Note_on_c, 0, 56, 80
2, 55467, Note_on_c, 0, 40, 68
2, 55469, Note_on_c, 0, 52, 0
2, 55473, Note_on_c, 0, 40, 0
2, 55497, Note_on_c, 0, 51, 75
2, 55498, Note_on_c, 0, 39, 56
2, 55502, Note_on_c, 0, 51, 0
2, 55504, Note_on_c, 0, 39, 0
2, 55531, Note_on_c, 0, 49, 75
2, 55536, Note_on_c, 0, 49, 0
2, 55544, Note_on_c, 0, 56, 0
2, 55561, Note_on_c, 0, 68, 0
2, 55567, Note_on_c, 0, 63, 73
2, 55568, Note_on_c, 0, 57, 63
2, 55570, Note_on_c, 0, 47, 78
2, 55571, Note_on_c, 0, 35, 74
2, 55575, Note_on_c, 0, 57, 0
2, 55576, Note_on_c, 0, 47, 0
2, 55577, Note_on_c, 0, 35, 0
2, 55589, Note_on_c, 0, 63, 0
2, 55603, Note_on_c, 0, 64, 93
2, 55605, Note_on_c, 0, 56, 70
2, 55606, Note_on_c, 0, 52, 84
2, 55607, Note_on_c, 0, 40, 74
2, 55611, Note_on_c, 0, 52, 0
2, 55613, Note_on_c, 0, 40, 0
2, 55615, Note_on_c, 0, 56, 0
2, 55621, Note_on_c, 0, 64, 0
2, 55636, Note_on_c, 0, 51, 78
2, 55636, Note_on_c, 0, 39, 68
2, 55641, Note_on_c, 0, 51, 0
2, 55642, Note_on_c, 0, 39, 0
2, 55670, Note_on_c, 0, 56, 83
2, 55671, Note_on_c, 0, 68, 87
2, 55672, Note_on_c, 0, 64, 80
2, 55673, Note_on_c, 0, 49, 80
2, 55677, Note_on_c, 0, 37, 57
2, 55678, Note_on_c, 0, 64, 0
2, 55683, Note_on_c, 0, 37, 0
2, 55683, Note_on_c, 0, 56, 0
2, 55684, Note_on_c, 0, 49, 0
2, 55689, Note_on_c, 0, 68, 0
2, 55708, Note_on_c, 0, 47, 78
2, 55711, Note_on_c, 0, 35, 63
2, 55714, Note_on_c, 0, 47, 0
2, 55718, Note_on_c, 0, 35, 0
2, 55741, Note_on_c, 0, 71, 102
2, 55742, Note_on_c, 0, 59, 87
2, 55742, Note_on_c, 0, 68, 79
2, 55747, Note_on_c, 0, 52, 78
2, 55751, Note_on_c, 0, 40, 65
2, 55752, Note_on_c, 0, 52, 0
2, 55752, Control_c, 0, 64, 40
2, 55755, Control_c, 0, 64, 88
2, 55756, Note_on_c, 0, 40, 0
2, 55758, Note_on_c, 0, 59, 0
2, 55758, Control_c, 0, 64, 127
2, 55772, Note_on_c, 0, 71, 0
2, 55775, Note_on_c, 0, 68, 0
2, 55776, Note_on_c, 0, 51, 87
2, 55778, Note_on_c, 0, 39, 67
2, 55784, Note_on_c, 0, 39, 0
2, 55786, Note_on_c, 0, 51, 0
2, 55811, Note_on_c, 0, 49, 82
2, 55820, Control_c, 0, 64, 104
2, 55822, Note_on_c, 0, 49, 0
2, 55826, Control_c, 0, 64, 88
2, 55830, Control_c, 0, 64, 72
2, 55833, Control_c, 0, 64, 56
2, 55836, Control_c, 0, 64, 40
2, 55840, Control_c, 0, 64, 24
2, 55843, Control_c, 0, 64, 0
2, 55845, Note_on_c, 0, 47, 86
2, 55848, Note_on_c, 0, 35, 74
2, 55854, Note_on_c, 0, 35, 0
2, 55858, Note_on_c, 0, 47, 0
2, 55878, Note_on_c, 0, 73, 93
2, 55878, Note_on_c, 0, 68, 82
2, 55880, Note_on_c, 0, 61, 79
2, 55881, Note_on_c, 0, 40, 83
2, 55882, Note_on_c, 0, 52, 89
2, 55887, Note_on_c, 0, 52, 0
2, 55887, Note_on_c, 0, 40, 0
2, 55892, Note_on_c, 0, 61, 0
2, 55896, Note_on_c, 0, 68, 0
2, 55896, Note_on_c, 0, 73, 0
2, 55897, Control_c, 0, 64, 24
2, 55900, Control_c, 0, 64, 56
2, 55905, Control_c, 0, 64, 88
2, 55907, Control_c, 0, 64, 127
2, 55915, Note_on_c, 0, 51, 89
2, 55917, Note_on_c, 0, 75, 95
2, 55917, Note_on_c, 0, 63, 83
2, 55917, Note_on_c, 0, 39, 68
2, 55920, Note_on_c, 0, 68, 81
2, 55925, Note_on_c, 0, 51, 0
2, 55927, Note_on_c, 0, 39, 0
2, 55927, Note_on_c, 0, 63, 0
2, 55930, Note_on_c, 0, 68, 0
2, 55932, Note_on_c, 0, 75, 0
2, 55947, Note_on_c, 0, 49, 91
2, 55948, Note_on_c, 0, 76, 98
2, 55948, Note_on_c, 0, 37, 79
2, 55948, Note_on_c, 0, 73, 79
2, 55950, Note_on_c, 0, 64, 96
2, 55956, Note_on_c, 0, 37, 0
2, 55958, Note_on_c, 0, 73, 0
2, 55958, Note_on_c, 0, 49, 0
2, 55960, Note_on_c, 0, 64, 0
2, 55963, Note_on_c, 0, 76, 0
2, 55965, Control_c, 0, 64, 104
2, 55972, Control_c, 0, 64, 88
2, 55982, Control_c, 0, 64, 127
2, 55983, Note_on_c, 0, 78, 102
2, 55983, Note_on_c, 0, 66, 92
2, 55983, Note_on_c, 0, 71, 91
2, 55986, Note_on_c, 0, 47, 85
2, 55987, Note_on_c, 0, 35, 62
2, 55991, Note_on_c, 0, 71, 0
2, 55993, Note_on_c, 0, 35, 0
2, 55993, Note_on_c, 0, 66, 0
2, 55994, Note_on_c, 0, 47, 0
2, 56000, Note_on_c, 0, 78, 0
2, 56010, Control_c, 0, 64, 88
2, 56013, Control_c, 0, 64, 24
2, 56016, Control_c, 0, 64, 0
2, 56020, Note_on_c, 0, 80, 107
2, 56021, Note_on_c, 0, 52, 99
2, 56021, Note_on_c, 0, 71, 97
2, 56021, Note_on_c, 0, 68, 90
2, 56021, Note_on_c, 0, 40, 87
2, 56029, Note_on_c, 0, 52, 0
2, 56032, Note_on_c, 0, 40, 0
2, 56037, Control_c, 0, 64, 40
2, 56040, Control_c, 0, 64, 88
2, 56043, Control_c, 0, 64, 127
2, 56058, Note_on_c, 0, 51, 94
2, 56062, Note_on_c, 0, 39, 84
2, 56068, Note_on_c, 0, 39, 0
2, 56069, Note_on_c, 0, 51, 0
2, 56083, Note_on_c, 0, 71, 0
2, 56095, Note_on_c, 0, 52, 92
2, 56096, Note_on_c, 0, 40, 92
2, 56102, Note_on_c, 0, 52, 89
2, 56104, Note_on_c, 0, 68, 0
2, 56107, Note_on_c, 0, 40, 0
2, 56107, Note_on_c, 0, 52, 0
2, 56112, Note_on_c, 0, 52, 0
2, 56116, Note_on_c, 0, 80, 0
2, 56121, Control_c, 0, 64, 88
2, 56125, Control_c, 0, 64, 40
2, 56128, Note_on_c, 0, 70, 98
2, 56128, Control_c, 0, 64, 0
2, 56135, Note_on_c, 0, 50, 90
2, 56138, Note_on_c, 0, 38, 72
2, 56142, Control_c, 0, 64, 40
2, 56144, Note_on_c, 0, 38, 0
2, 56145, Note_on_c, 0, 50, 0
2, 56145, Control_c, 0, 64, 56
2, 56158, Control_c, 0, 64, 0
2, 56160, Note_on_c, 0, 70, 0
2, 56168, Note_on_c, 0, 79, 100
2, 56168, Note_on_c, 0, 51, 95
2, 56168, Note_on_c, 0, 39, 81
2, 56168, Note_on_c, 0, 67, 86
2, 56168, Note_on_c, 0, 70, 67
2, 56168, Note_on_c, 0, 75, 89
2, 56176, Note_on_c, 0, 39, 0
2, 56180, Note_on_c, 0, 51, 0
2, 56206, Control_c, 0, 64, 24
2, 56207, Note_on_c, 0, 50, 83
2, 56207, Note_on_c, 0, 38, 62
2, 56210, Control_c, 0, 64, 56
2, 56213, Control_c, 0, 64, 88
2, 56216, Control_c, 0, 64, 127
2, 56217, Note_on_c, 0, 38, 0
2, 56223, Note_on_c, 0, 50, 0
2, 56226, Control_c, 0, 64, 88
2, 56230, Control_c, 0, 64, 40
2, 56233, Control_c, 0, 64, 0
2, 56242, Note_on_c, 0, 48, 90
2, 56242, Note_on_c, 0, 36, 94
2, 56250, Note_on_c, 0, 36, 0
2, 56252, Note_on_c, 0, 48, 0
2, 56273, Note_on_c, 0, 34, 92
2, 56273, Note_on_c, 0, 46, 90
2, 56281, Note_on_c, 0, 46, 0
2, 56281, Control_c, 0, 64, 24
2, 56284, Note_on_c, 0, 34, 0
2, 56285, Control_c, 0, 64, 72
2, 56287, Control_c, 0, 64, 88
2, 56291, Control_c, 0, 64, 104
2, 56293, Note_on_c, 0, 79, 0
2, 56295, Control_c, 0, 64, 127
2, 56296, Note_on_c, 0, 75, 0
2, 56301, Note_on_c, 0, 67, 0
2, 56303, Note_on_c, 0, 70, 0
2, 56307, Control_c, 0, 64, 88
2, 56311, Control_c, 0, 64, 72
2, 56315, Note_on_c, 0, 39, 74
2, 56315, Control_c, 0, 64, 40
2, 56317, Control_c, 0, 64, 0
2, 56321, Note_on_c, 0, 39, 0
2, 56321, Note_on_c, 0, 51, 90
2, 56334, Note_on_c, 0, 51, 0
2, 56347, Note_on_c, 0, 50, 90
2, 56348, Note_on_c, 0, 38, 79
2, 56358, Note_on_c, 0, 38, 0
2, 56358, Note_on_c, 0, 50, 0
2, 56378, Note_on_c, 0, 58, 83
2, 56378, Note_on_c, 0, 70, 91
2, 56381, Note_on_c, 0, 48, 95
2, 56382, Note_on_c, 0, 67, 76
2, 56382, Note_on_c, 0, 63, 69
2, 56386, Control_c, 0, 64, 24
2, 56387, Note_on_c, 0, 36, 58
2, 56388, Control_c, 0, 64, 72
2, 56392, Note_on_c, 0, 63, 0
2, 56392, Note_on_c, 0, 48, 0
2, 56393, Note_on_c, 0, 58, 0
2, 56393, Control_c, 0, 64, 127
2, 56394, Note_on_c, 0, 36, 0
2, 56397, Note_on_c, 0, 67, 0
2, 56401, Note_on_c, 0, 70, 0
2, 56413, Note_on_c, 0, 34, 87
2, 56417, Note_on_c, 0, 46, 72
2, 56420, Control_c, 0, 64, 104
2, 56423, Note_on_c, 0, 46, 0
2, 56423, Control_c, 0, 64, 72
2, 56424, Note_on_c, 0, 34, 0
2, 56427, Control_c, 0, 64, 24
2, 56430, Control_c, 0, 64, 0
2, 56448, Note_on_c, 0, 75, 100
2, 56450, Note_on_c, 0, 63, 100
2, 56451, Note_on_c, 0, 70, 87
2, 56451, Note_on_c, 0, 67, 89
2, 56453, Note_on_c, 0, 51, 96
2, 56455, Note_on_c, 0, 39, 83
2, 56457, Control_c, 0, 64, 24
2, 56460, Control_c, 0, 64, 88
2, 56462, Note_on_c, 0, 39, 0
2, 56463, Note_on_c, 0, 51, 0
2, 56463, Control_c, 0, 64, 127
2, 56465, Note_on_c, 0, 63, 0
2, 56467, Note_on_c, 0, 67, 0
2, 56473, Note_on_c, 0, 70, 0
2, 56476, Note_on_c, 0, 75, 0
2, 56487, Note_on_c, 0, 50, 89
2, 56490, Note_on_c, 0, 38, 75
2, 56494, Note_on_c, 0, 50, 0
2, 56496, Note_on_c, 0, 38, 0
2, 56511, Control_c, 0, 64, 72
2, 56515, Control_c, 0, 64, 0
2, 56522, Note_on_c, 0, 79, 106
2, 56522, Note_on_c, 0, 67, 94
2, 56522, Note_on_c, 0, 70, 86
2, 56522, Note_on_c, 0, 75, 85
2, 56523, Note_on_c, 0, 48, 97
2, 56527, Note_on_c, 0, 36, 73
2, 56533, Note_on_c, 0, 36, 0
2, 56534, Note_on_c, 0, 48, 0
2, 56535, Control_c, 0, 64, 24
2, 56538, Note_on_c, 0, 67, 0
2, 56538, Control_c, 0, 64, 72
2, 56540, Note_on_c, 0, 70, 0
2, 56542, Control_c, 0, 64, 127
2, 56547, Note_on_c, 0, 75, 0
2, 56548, Note_on_c, 0, 79, 0
2, 56556, Note_on_c, 0, 34, 87
2, 56560, Note_on_c, 0, 46, 73
2, 56566, Note_on_c, 0, 46, 0
2, 56567, Note_on_c, 0, 34, 0
2, 56576, Control_c, 0, 64, 72
2, 56580, Control_c, 0, 64, 0
2, 56593, Note_on_c, 0, 82, 99
2, 56593, Note_on_c, 0, 70, 97
2, 56595, Note_on_c, 0, 79, 96
2, 56595, Note_on_c, 0, 75, 87
2, 56598, Note_on_c, 0, 51, 95
2, 56598, Note_on_c, 0, 39, 86
2, 56606, Control_c, 0, 64, 56
2, 56608, Note_on_c, 0, 51, 0
2, 56609, Note_on_c, 0, 70, 0
2, 56609, Note_on_c, 0, 39, 0
2, 56610, Control_c, 0, 64, 127
2, 56617, Note_on_c, 0, 75, 0
2, 56621, Note_on_c, 0, 79, 0
2, 56624, Note_on_c, 0, 82, 0
2, 56637, Note_on_c, 0, 50, 88
2, 56640, Note_on_c, 0, 38, 92
2, 56643, Note_on_c, 0, 50, 0
2, 56645, Note_on_c, 0, 38, 0
2, 56665, Note_on_c, 0, 48, 90
2, 56671, Note_on_c, 0, 36, 60
2, 56677, Note_on_c, 0, 36, 0
2, 56677, Note_on_c, 0, 48, 0
2, 56695, Control_c, 0, 64, 104
2, 56697, Control_c, 0, 64, 88
2, 56698, Note_on_c, 0, 75, 105
2, 56698, Note_on_c, 0, 87, 101
2, 56700, Note_on_c, 0, 34, 87
2, 56700, Note_on_c, 0, 82, 86
2, 56701, Note_on_c, 0, 79, 94
2, 56701, Control_c, 0, 64, 72
2, 56702, Note_on_c, 0, 46, 82
2, 56705, Control_c, 0, 64, 56
2, 56708, Note_on_c, 0, 46, 0
2, 56708, Note_on_c, 0, 75, 0
2, 56708, Control_c, 0, 64, 24
2, 56712, Note_on_c, 0, 79, 0
2, 56712, Note_on_c, 0, 34, 0
2, 56712, Control_c, 0, 64, 0
2, 56716, Note_on_c, 0, 82, 0
2, 56718, Note_on_c, 0, 87, 0
2, 56733, Note_on_c, 0, 87, 96
2, 56735, Note_on_c, 0, 75, 103
2, 56735, Note_on_c, 0, 82, 94
2, 56736, Note_on_c, 0, 79, 96
2, 56741, Note_on_c, 0, 39, 79
2, 56742, Control_c, 0, 64, 24
2, 56745, Control_c, 0, 64, 72
2, 56748, Note_on_c, 0, 50, 42
2, 56748, Control_c, 0, 64, 127
2, 56750, Note_on_c, 0, 75, 0
2, 56751, Note_on_c, 0, 39, 0
2, 56752, Note_on_c, 0, 79, 0
2, 56753, Note_on_c, 0, 50, 0
2, 56755, Note_on_c, 0, 87, 0
2, 56757, Note_on_c, 0, 82, 0
2, 56776, Note_on_c, 0, 50, 84
2, 56777, Note_on_c, 0, 38, 67
2, 56782, Note_on_c, 0, 50, 0
2, 56784, Note_on_c, 0, 38, 0
2, 56803, Note_on_c, 0, 48, 95
2, 56807, Note_on_c, 0, 36, 68
2, 56813, Note_on_c, 0, 36, 0
2, 56814, Note_on_c, 0, 48, 0
2, 56837, Note_on_c, 0, 67, 99
2, 56837, Note_on_c, 0, 79, 106
2, 56837, Note_on_c, 0, 75, 93
2, 56837, Note_on_c, 0, 34, 84
2, 56837, Note_on_c, 0, 70, 95
2, 56840, Note_on_c, 0, 46, 81
2, 56846, Note_on_c, 0, 46, 0
2, 56848, Note_on_c, 0, 67, 0
2, 56848, Note_on_c, 0, 34, 0
2, 56849, Note_on_c, 0, 70, 0
2, 56850, Note_on_c, 0, 75, 0
2, 56853, Note_on_c, 0, 79, 0
2, 56853, Control_c, 0, 64, 72
2, 56857, Control_c, 0, 64, 0
2, 56871, Note_on_c, 0, 79, 109
2, 56871, Note_on_c, 0, 75, 103
2, 56871, Note_on_c, 0, 67, 112
2, 56871, Note_on_c, 0, 70, 97
2, 56875, Note_on_c, 0, 51, 94
2, 56875, Note_on_c, 0, 39, 86
2, 56877, Control_c, 0, 64, 24
2, 56881, Control_c, 0, 64, 72
2, 56882, Note_on_c, 0, 70, 0
2, 56883, Note_on_c, 0, 67, 0
2, 56885, Note_on_c, 0, 51, 0
2, 56885, Control_c, 0, 64, 127
2, 56887, Note_on_c, 0, 39, 0
2, 56891, Note_on_c, 0, 75, 0
2, 56896, Note_on_c, 0, 79, 0
2, 56908, Note_on_c, 0, 50, 84
2, 56911, Note_on_c, 0, 38, 73
2, 56914, Note_on_c, 0, 50, 0
2, 56917, Note_on_c, 0, 38, 0
2, 56928, Control_c, 0, 64, 88
2, 56932, Control_c, 0, 64, 24
2, 56936, Control_c, 0, 64, 0
2, 56940, Note_on_c, 0, 84, 109
2, 56942, Note_on_c, 0, 72, 96
2, 56942, Note_on_c, 0, 75, 87
2, 56942, Note_on_c, 0, 79, 92
2, 56942, Note_on_c, 0, 48, 92
2, 56952, Control_c, 0, 64, 56
2, 56953, Note_on_c, 0, 48, 0
2, 56956, Control_c, 0, 64, 104
2, 56958, Control_c, 0, 64, 127
2, 56963, Note_on_c, 0, 84, 0
2, 56964, Note_on_c, 0, 72, 0
2, 56967, Note_on_c, 0, 75, 0
2, 56968, Note_on_c, 0, 79, 0
2, 56973, Note_on_c, 0, 34, 88
2, 56976, Note_on_c, 0, 46, 86
2, 56983, Note_on_c, 0, 46, 0
2, 56986, Note_on_c, 0, 34, 0
2, 56996, Control_c, 0, 64, 88
2, 57000, Control_c, 0, 64, 24
2, 57002, Control_c, 0, 64, 0
2, 57012, Note_on_c, 0, 82, 102
2, 57013, Note_on_c, 0, 70, 101
2, 57013, Note_on_c, 0, 75, 94
2, 57013, Note_on_c, 0, 79, 99
2, 57016, Note_on_c, 0, 51, 92
2, 57017, Note_on_c, 0, 39, 83
2, 57026, Note_on_c, 0, 51, 0
2, 57027, Note_on_c, 0, 39, 0
2, 57027, Control_c, 0, 64, 104
2, 57031, Control_c, 0, 64, 127
2, 57051, Note_on_c, 0, 50, 84
2, 57053, Note_on_c, 0, 38, 72
2, 57057, Note_on_c, 0, 50, 0
2, 57059, Note_on_c, 0, 38, 0
2, 57085, Note_on_c, 0, 48, 91
2, 57090, Note_on_c, 0, 36, 61
2, 57096, Note_on_c, 0, 36, 0
2, 57096, Note_on_c, 0, 70, 0
2, 57097, Note_on_c, 0, 82, 0
2, 57097, Note_on_c, 0, 48, 0
2, 57098, Note_on_c, 0, 79, 0
2, 57106, Note_on_c, 0, 75, 0
2, 57118, Note_on_c, 0, 34, 83
2, 57122, Note_on_c, 0, 46, 74
2, 57127, Note_on_c, 0, 46, 0
2, 57129, Note_on_c, 0, 34, 0
2, 57156, Note_on_c, 0, 51, 87
2, 57157, Note_on_c, 0, 39, 74
2, 57163, Note_on_c, 0, 39, 0
2, 57163, Note_on_c, 0, 51, 0
2, 57166, Control_c, 0, 64, 88
2, 57170, Control_c, 0, 64, 56
2, 57173, Control_c, 0, 64, 0
2, 57187, Note_on_c, 0, 50, 88
2, 57191, Note_on_c, 0, 38, 66
2, 57193, Control_c, 0, 64, 40
2, 57194, Note_on_c, 0, 50, 0
2, 57196, Note_on_c, 0, 38, 0
2, 57196, Control_c, 0, 64, 72
2, 57200, Control_c, 0, 64, 104
2, 57210, Control_c, 0, 64, 40
2, 57213, Control_c, 0, 64, 0
2, 57221, Note_on_c, 0, 58, 88
2, 57222, Note_on_c, 0, 70, 91
2, 57223, Note_on_c, 0, 67, 82
2, 57223, Note_on_c, 0, 63, 71
2, 57223, Note_on_c, 0, 48, 92
2, 57228, Note_on_c, 0, 36, 52
2, 57230, Control_c, 0, 64, 40
2, 57233, Control_c, 0, 64, 72
2, 57234, Note_on_c, 0, 48, 0
2, 57234, Note_on_c, 0, 58, 0
2, 57235, Note_on_c, 0, 36, 0
2, 57238, Note_on_c, 0, 63, 0
2, 57240, Note_on_c, 0, 67, 0
2, 57242, Note_on_c, 0, 70, 0
2, 57245, Control_c, 0, 64, 0
2, 57253, Note_on_c, 0, 70, 87
2, 57255, Note_on_c, 0, 58, 92
2, 57255, Control_c, 0, 64, 40
2, 57257, Control_c, 0, 64, 72
2, 57258, Note_on_c, 0, 67, 51
2, 57258, Note_on_c, 0, 34, 88
2, 57261, Note_on_c, 0, 46, 62
2, 57261, Control_c, 0, 64, 127
2, 57266, Note_on_c, 0, 67, 0
2, 57267, Note_on_c, 0, 46, 0
2, 57268, Note_on_c, 0, 34, 0
2, 57273, Note_on_c, 0, 58, 0
2, 57273, Control_c, 0, 64, 88
2, 57277, Control_c, 0, 64, 24
2, 57279, Note_on_c, 0, 70, 0
2, 57281, Control_c, 0, 64, 0
2, 57292, Note_on_c, 0, 70, 82
2, 57292, Note_on_c, 0, 58, 94
2, 57293, Note_on_c, 0, 68, 83
2, 57295, Note_on_c, 0, 65, 84
2, 57298, Note_on_c, 0, 51, 91
2, 57298, Control_c, 0, 64, 24
2, 57300, Note_on_c, 0, 39, 83
2, 57301, Control_c, 0, 64, 72
2, 57304, Note_on_c, 0, 51, 0
2, 57304, Note_on_c, 0, 58, 0
2, 57305, Note_on_c, 0, 39, 0
2, 57305, Control_c, 0, 64, 127
2, 57308, Note_on_c, 0, 65, 0
2, 57312, Note_on_c, 0, 70, 0
2, 57313, Note_on_c, 0, 68, 0
2, 57331, Note_on_c, 0, 50, 86
2, 57333, Note_on_c, 0, 38, 71
2, 57337, Note_on_c, 0, 50, 0
2, 57340, Note_on_c, 0, 38, 0
2, 57348, Control_c, 0, 64, 104
2, 57352, Control_c, 0, 64, 56
2, 57355, Control_c, 0, 64, 0
2, 57363, Note_on_c, 0, 77, 107
2, 57365, Note_on_c, 0, 70, 94
2, 57365, Note_on_c, 0, 68, 89
2, 57366, Note_on_c, 0, 65, 94
2, 57367, Note_on_c, 0, 48, 93
2, 57373, Note_on_c, 0, 36, 53
2, 57376, Control_c, 0, 64, 56
2, 57378, Note_on_c, 0, 48, 0
2, 57379, Note_on_c, 0, 65, 0
2, 57380, Note_on_c, 0, 36, 0
2, 57380, Control_c, 0, 64, 104
2, 57381, Note_on_c, 0, 77, 0
2, 57382, Control_c, 0, 64, 127
2, 57387, Note_on_c, 0, 70, 0
2, 57388, Note_on_c, 0, 68, 0
2, 57401, Note_on_c, 0, 34, 86
2, 57402, Note_on_c, 0, 46, 95
2, 57408, Note_on_c, 0, 46, 0
2, 57413, Note_on_c, 0, 34, 0
2, 57427, Control_c, 0, 64, 104
2, 57430, Control_c, 0, 64, 40
2, 57433, Control_c, 0, 64, 0
2, 57440, Note_on_c, 0, 75, 100
2, 57441, Note_on_c, 0, 63, 94
2, 57441, Note_on_c, 0, 70, 90
2, 57442, Note_on_c, 0, 67, 88
2, 57446, Note_on_c, 0, 51, 101
2, 57447, Note_on_c, 0, 39, 88
2, 57453, Control_c, 0, 64, 72
2, 57456, Note_on_c, 0, 51, 0
2, 57456, Note_on_c, 0, 63, 0
2, 57457, Note_on_c, 0, 39, 0
2, 57457, Control_c, 0, 64, 127
2, 57458, Note_on_c, 0, 67, 0
2, 57460, Note_on_c, 0, 75, 0
2, 57462, Note_on_c, 0, 70, 0
2, 57465, Control_c, 0, 64, 40
2, 57468, Control_c, 0, 64, 88
2, 57472, Control_c, 0, 64, 127
2, 57521, Note_on_c, 0, 75, 89
2, 57522, Note_on_c, 0, 51, 67
2, 57522, Note_on_c, 0, 63, 75
2, 57522, Note_on_c, 0, 39, 56
2, 57533, Note_on_c, 0, 39, 0
2, 57533, Note_on_c, 0, 51, 0
2, 57534, Note_on_c, 0, 63, 0
2, 57534, Note_on_c, 0, 75, 0
2, 57553, Note_on_c, 0, 75, 90
2, 57555, Note_on_c, 0, 39, 54
2, 57555, Note_on_c, 0, 63, 77
2, 57557, Note_on_c, 0, 51, 66
2, 57570, Note_on_c, 0, 63, 0
2, 57570, Note_on_c, 0, 75, 0
2, 57572, Note_on_c, 0, 39, 0
2, 57572, Note_on_c, 0, 51, 0
2, 57581, Control_c, 0, 64, 88
2, 57585, Control_c, 0, 64, 40
2, 57588, Control_c, 0, 64, 0
2, 57591, Note_on_c, 0, 75, 101
2, 57592, Note_on_c, 0, 63, 86
2, 57595, Note_on_c, 0, 52, 74
2, 57597, Note_on_c, 0, 40, 73
2, 57613, Control_c, 0, 64, 24
2, 57617, Control_c, 0, 64, 72
2, 57620, Note_on_c, 0, 40, 0
2, 57622, Note_on_c, 0, 52, 0
2, 57622, Control_c, 0, 64, 127
2, 57631, Note_on_c, 0, 75, 0
2, 57632, Note_on_c, 0, 63, 0
2, 57670, Note_on_c, 0, 75, 93
2, 57670, Note_on_c, 0, 52, 70
2, 57671, Note_on_c, 0, 63, 79
2, 57671, Note_on_c, 0, 40, 61
2, 57676, Note_on_c, 0, 52, 0
2, 57678, Note_on_c, 0, 40, 0
2, 57683, Note_on_c, 0, 63, 0
2, 57683, Note_on_c, 0, 75, 0
2, 57702, Note_on_c, 0, 75, 93
2, 57703, Note_on_c, 0, 63, 83
2, 57707, Note_on_c, 0, 52, 62
2, 57707, Note_on_c, 0, 40, 62
2, 57715, Note_on_c, 0, 40, 0
2, 57715, Note_on_c, 0, 52, 0
2, 57719, Note_on_c, 0, 63, 0
2, 57719, Note_on_c, 0, 75, 0
2, 57731, Control_c, 0, 64, 104
2, 57735, Control_c, 0, 64, 72
2, 57738, Note_on_c, 0, 75, 95
2, 57738, Control_c, 0, 64, 40
2, 57740, Note_on_c, 0, 63, 81
2, 57741, Control_c, 0, 64, 0
2, 57748, Note_on_c, 0, 53, 64
2, 57753, Note_on_c, 0, 41, 66
2, 57772, Control_c, 0, 64, 56
2, 57774, Note_on_c, 0, 53, 0
2, 57775, Note_on_c, 0, 41, 0
2, 57776, Control_c, 0, 64, 104
2, 57780, Control_c, 0, 64, 127
2, 57781, Note_on_c, 0, 63, 0
2, 57784, Note_on_c, 0, 75, 0
2, 57821, Note_on_c, 0, 75, 94
2, 57822, Note_on_c, 0, 63, 74
2, 57826, Note_on_c, 0, 53, 51
2, 57833, Note_on_c, 0, 53, 0
2, 57835, Note_on_c, 0, 63, 0
2, 57838, Note_on_c, 0, 75, 0
2, 57855, Note_on_c, 0, 75, 87
2, 57858, Note_on_c, 0, 63, 79
2, 57863, Note_on_c, 0, 53, 61
2, 57867, Note_on_c, 0, 41, 37
2, 57870, Note_on_c, 0, 53, 0
2, 57874, Note_on_c, 0, 63, 0
2, 57875, Note_on_c, 0, 41, 0
2, 57880, Note_on_c, 0, 75, 0
2, 57910, Note_on_c, 0, 75, 100
2, 57910, Control_c, 0, 64, 104
2, 57912, Note_on_c, 0, 63, 75
2, 57913, Control_c, 0, 64, 72
2, 57917, Note_on_c, 0, 42, 73
2, 57918, Note_on_c, 0, 54, 68
2, 57918, Control_c, 0, 64, 24
2, 57922, Control_c, 0, 64, 0
2, 57948, Note_on_c, 0, 42, 0
2, 57948, Control_c, 0, 64, 56
2, 57950, Note_on_c, 0, 54, 0
2, 57952, Control_c, 0, 64, 127
2, 57959, Note_on_c, 0, 63, 0
2, 57990, Note_on_c, 0, 63, 71
2, 57990, Note_on_c, 0, 61, 63
2, 57995, Note_on_c, 0, 54, 66
2, 58002, Note_on_c, 0, 54, 0
2, 58003, Note_on_c, 0, 61, 0
2, 58007, Note_on_c, 0, 63, 0
2, 58022, Note_on_c, 0, 61, 63
2, 58023, Note_on_c, 0, 63, 71
2, 58025, Note_on_c, 0, 54, 70
2, 58035, Note_on_c, 0, 54, 0
2, 58037, Note_on_c, 0, 61, 0
2, 58045, Note_on_c, 0, 63, 0
2, 58048, Note_on_c, 0, 75, 0
2, 58061, Note_on_c, 0, 70, 93
2, 58062, Note_on_c, 0, 61, 62
2, 58063, Note_on_c, 0, 63, 66
2, 58065, Note_on_c, 0, 54, 66
2, 58079, Note_on_c, 0, 63, 0
2, 58087, Note_on_c, 0, 54, 0
2, 58088, Note_on_c, 0, 61, 0
2, 58132, Note_on_c, 0, 61, 53
2, 58133, Note_on_c, 0, 63, 59
2, 58135, Note_on_c, 0, 54, 59
2, 58142, Note_on_c, 0, 54, 0
2, 58142, Note_on_c, 0, 61, 0
2, 58146, Note_on_c, 0, 63, 0
2, 58159, Note_on_c, 0, 70, 0
2, 58167, Note_on_c, 0, 61, 59
2, 58167, Note_on_c, 0, 63, 59
2, 58168, Note_on_c, 0, 54, 61
2, 58173, Note_on_c, 0, 61, 0
2, 58174, Note_on_c, 0, 54, 0
2, 58182, Note_on_c, 0, 63, 0
2, 58200, Control_c, 0, 64, 104
2, 58203, Control_c, 0, 64, 56
2, 58207, Control_c, 0, 64, 0
2, 58212, Note_on_c, 0, 72, 92
2, 58212, Note_on_c, 0, 60, 77
2, 58212, Note_on_c, 0, 56, 64
2, 58213, Note_on_c, 0, 44, 71
2, 58213, Note_on_c, 0, 66, 68
2, 58228, Note_on_c, 0, 60, 0
2, 58229, Note_on_c, 0, 44, 0
2, 58233, Note_on_c, 0, 66, 0
2, 58233, Note_on_c, 0, 56, 0
2, 58233, Control_c, 0, 64, 88
2, 58237, Control_c, 0, 64, 127
2, 58240, Note_on_c, 0, 72, 0
2, 58283, Note_on_c, 0, 60, 66
2, 58283, Note_on_c, 0, 51, 64
2, 58286, Note_on_c, 0, 66, 66
2, 58287, Note_on_c, 0, 77, 94
2, 58291, Note_on_c, 0, 56, 32
2, 58294, Note_on_c, 0, 60, 0
2, 58297, Note_on_c, 0, 56, 0
2, 58300, Note_on_c, 0, 51, 0
2, 58302, Note_on_c, 0, 66, 0
2, 58303, Note_on_c, 0, 77, 0
2, 58320, Note_on_c, 0, 75, 97
2, 58323, Note_on_c, 0, 60, 69
2, 58325, Note_on_c, 0, 56, 48
2, 58331, Note_on_c, 0, 60, 0
2, 58333, Note_on_c, 0, 56, 0
2, 58341, Note_on_c, 0, 75, 0
2, 58346, Control_c, 0, 64, 72
2, 58350, Control_c, 0, 64, 0
2, 58357, Note_on_c, 0, 75, 90
2, 58361, Note_on_c, 0, 65, 81
2, 58361, Note_on_c, 0, 60, 65
2, 58365, Note_on_c, 0, 49, 47
2, 58365, Note_on_c, 0, 56, 47
2, 58368, Note_on_c, 0, 65, 0
2, 58376, Control_c, 0, 64, 40
2, 58380, Note_on_c, 0, 75, 0
2, 58380, Note_on_c, 0, 56, 0
2, 58381, Control_c, 0, 64, 88
2, 58382, Note_on_c, 0, 60, 0
2, 58383, Note_on_c, 0, 49, 0
2, 58385, Control_c, 0, 64, 127
2, 58392, Note_on_c, 0, 73, 96
2, 58410, Note_on_c, 0, 73, 0
2, 58426, Note_on_c, 0, 61, 55
2, 58426, Note_on_c, 0, 73, 86
2, 58428, Note_on_c, 0, 56, 49
2, 58428, Note_on_c, 0, 49, 47
2, 58435, Note_on_c, 0, 49, 0
2, 58435, Note_on_c, 0, 56, 0
2, 58435, Note_on_c, 0, 65, 47
2, 58438, Note_on_c, 0, 61, 0
2, 58441, Note_on_c, 0, 65, 0
2, 58444, Note_on_c, 0, 73, 0
2, 58458, Control_c, 0, 64, 104
2, 58461, Note_on_c, 0, 72, 107
2, 58463, Note_on_c, 0, 49, 55
2, 58463, Note_on_c, 0, 61, 54
2, 58463, Note_on_c, 0, 56, 46
2, 58467, Note_on_c, 0, 65, 64
2, 58467, Control_c, 0, 64, 72
2, 58471, Control_c, 0, 64, 56
2, 58473, Note_on_c, 0, 56, 0
2, 58474, Note_on_c, 0, 61, 0
2, 58475, Note_on_c, 0, 65, 0
2, 58475, Note_on_c, 0, 49, 0
2, 58475, Control_c, 0, 64, 24
2, 58478, Control_c, 0, 64, 0
2, 58484, Note_on_c, 0, 72, 0
2, 58500, Note_on_c, 0, 70, 91
2, 58503, Note_on_c, 0, 65, 70
2, 58507, Note_on_c, 0, 61, 57
2, 58507, Note_on_c, 0, 49, 59
2, 58511, Note_on_c, 0, 55, 64
2, 58533, Control_c, 0, 64, 56
2, 58535, Note_on_c, 0, 65, 0
2, 58537, Note_on_c, 0, 61, 0
2, 58537, Control_c, 0, 64, 127
2, 58538, Note_on_c, 0, 55, 0
2, 58540, Note_on_c, 0, 49, 0
2, 58576, Note_on_c, 0, 49, 63
2, 58576, Note_on_c, 0, 61, 56
2, 58577, Note_on_c, 0, 65, 78
2, 58580, Note_on_c, 0, 55, 59
2, 58586, Note_on_c, 0, 55, 0
2, 58587, Note_on_c, 0, 61, 0
2, 58589, Note_on_c, 0, 65, 0
2, 58591, Note_on_c, 0, 49, 0
2, 58592, Note_on_c, 0, 70, 0
2, 58610, Note_on_c, 0, 65, 76
2, 58610, Note_on_c, 0, 49, 59
2, 58610, Note_on_c, 0, 61, 59
2, 58610, Note_on_c, 0, 55, 55
2, 58617, Note_on_c, 0, 49, 0
2, 58620, Note_on_c, 0, 65, 0
2, 58626, Note_on_c, 0, 61, 0
2, 58626, Note_on_c, 0, 55, 0
2, 58643, Control_c, 0, 64, 88
2, 58647, Control_c, 0, 64, 24
2, 58651, Control_c, 0, 64, 0
2, 58657, Note_on_c, 0, 64, 73
2, 58657, Note_on_c, 0, 72, 95
2, 58657, Note_on_c, 0, 58, 50
2, 58658, Note_on_c, 0, 55, 59
2, 58660, Note_on_c, 0, 60, 62
2, 58662, Note_on_c, 0, 48, 69
2, 58684, Note_on_c, 0, 64, 0
2, 58688, Note_on_c, 0, 60, 0
2, 58688, Note_on_c, 0, 55, 0
2, 58688, Note_on_c, 0, 58, 0
2, 58689, Note_on_c, 0, 48, 0
2, 58692, Control_c, 0, 64, 88
2, 58696, Control_c, 0, 64, 127
2, 58726, Note_on_c, 0, 64, 69
2, 58726, Note_on_c, 0, 60, 58
2, 58730, Note_on_c, 0, 58, 40
2, 58730, Note_on_c, 0, 48, 62
2, 58736, Note_on_c, 0, 60, 0
2, 58736, Note_on_c, 0, 55, 34
2, 58737, Note_on_c, 0, 58, 0
2, 58738, Note_on_c, 0, 48, 0
2, 58741, Note_on_c, 0, 64, 0
2, 58742, Note_on_c, 0, 55, 0
2, 58748, Note_on_c, 0, 72, 0
2, 58762, Note_on_c, 0, 60, 58
2, 58762, Note_on_c, 0, 64, 50
2, 58762, Note_on_c, 0, 58, 46
2, 58762, Note_on_c, 0, 55, 59
2, 58763, Note_on_c, 0, 48, 55
2, 58770, Note_on_c, 0, 58, 0
2, 58771, Note_on_c, 0, 48, 0
2, 58772, Note_on_c, 0, 60, 0
2, 58774, Note_on_c, 0, 55, 0
2, 58775, Note_on_c, 0, 64, 0
2, 58790, Control_c, 0, 64, 72
2, 58793, Control_c, 0, 64, 0
2, 58801, Note_on_c, 0, 70, 83
2, 58802, Note_on_c, 0, 65, 81
2, 58805, Note_on_c, 0, 60, 70
2, 58807, Note_on_c, 0, 53, 67
2, 58807, Note_on_c, 0, 56, 43
2, 58813, Note_on_c, 0, 60, 0
2, 58817, Note_on_c, 0, 65, 0
2, 58820, Control_c, 0, 64, 72
2, 58822, Note_on_c, 0, 70, 0
2, 58823, Control_c, 0, 64, 127
2, 58824, Note_on_c, 0, 56, 0
2, 58825, Note_on_c, 0, 53, 0
2, 58835, Note_on_c, 0, 68, 92
2, 58850, Control_c, 0, 64, 104
2, 58853, Note_on_c, 0, 68, 0
2, 58853, Control_c, 0, 64, 0
2, 58866, Note_on_c, 0, 53, 73
2, 58867, Note_on_c, 0, 56, 60
2, 58868, Note_on_c, 0, 68, 82
2, 58873, Note_on_c, 0, 60, 74
2, 58878, Note_on_c, 0, 56, 0
2, 58881, Note_on_c, 0, 60, 0
2, 58883, Note_on_c, 0, 53, 0
2, 58886, Note_on_c, 0, 68, 0
2, 58901, Note_on_c, 0, 56, 70
2, 58902, Note_on_c, 0, 67, 97
2, 58903, Note_on_c, 0, 51, 68
2, 58907, Note_on_c, 0, 60, 70
2, 58914, Note_on_c, 0, 60, 0
2, 58918, Note_on_c, 0, 56, 0
2, 58920, Note_on_c, 0, 51, 0
2, 58920, Note_on_c, 0, 67, 0
2, 58943, Note_on_c, 0, 65, 92
2, 58947, Note_on_c, 0, 62, 72
2, 58947, Note_on_c, 0, 60, 65
2, 58948, Note_on_c, 0, 56, 60
2, 58951, Note_on_c, 0, 50, 69
2, 58973, Note_on_c, 0, 62, 0
2, 58983, Note_on_c, 0, 56, 0
2, 58983, Note_on_c, 0, 50, 0
2, 58985, Note_on_c, 0, 60, 0
2, 58992, Control_c, 0, 64, 127
2, 59017, Note_on_c, 0, 62, 66
2, 59018, Note_on_c, 0, 56, 53
2, 59021, Note_on_c, 0, 60, 48
2, 59021, Note_on_c, 0, 50, 62
2, 59029, Note_on_c, 0, 50, 0
2, 59029, Note_on_c, 0, 56, 0
2, 59029, Note_on_c, 0, 60, 0
2, 59033, Note_on_c, 0, 62, 0
2, 59053, Note_on_c, 0, 56, 65
2, 59053, Note_on_c, 0, 62, 64
2, 59056, Note_on_c, 0, 50, 63
2, 59057, Note_on_c, 0, 60, 58
2, 59063, Note_on_c, 0, 50, 0
2, 59064, Note_on_c, 0, 60, 0
2, 59065, Note_on_c, 0, 56, 0
2, 59070, Note_on_c, 0, 62, 0
2, 59079, Note_on_c, 0, 65, 0
2, 59088, Control_c, 0, 64, 88
2, 59093, Control_c, 0, 64, 0
2, 59096, Note_on_c, 0, 67, 81
2, 59098, Note_on_c, 0, 55, 60
2, 59098, Note_on_c, 0, 62, 70
2, 59102, Note_on_c, 0, 50, 56
2, 59102, Note_on_c, 0, 59, 61
2, 59102, Note_on_c, 0, 43, 73
2, 59126, Note_on_c, 0, 62, 0
2, 59128, Note_on_c, 0, 59, 0
2, 59129, Note_on_c, 0, 43, 0
2, 59130, Note_on_c, 0, 55, 0
2, 59130, Note_on_c, 0, 50, 0
2, 59138, Control_c, 0, 64, 127
2, 59161, Note_on_c, 0, 62, 69
2, 59165, Note_on_c, 0, 43, 69
2, 59166, Note_on_c, 0, 59, 52
2, 59166, Note_on_c, 0, 55, 57
2, 59167, Note_on_c, 0, 50, 55
2, 59173, Note_on_c, 0, 43, 0
2, 59175, Note_on_c, 0, 50, 0
2, 59176, Note_on_c, 0, 59, 0
2, 59177, Note_on_c, 0, 55, 0
2, 59181, Note_on_c, 0, 62, 0
2, 59196, Note_on_c, 0, 62, 67
2, 59196, Note_on_c, 0, 59, 52
2, 59196, Note_on_c, 0, 55, 54
2, 59196, Note_on_c, 0, 50, 55
2, 59196, Note_on_c, 0, 43, 58
2, 59201, Note_on_c, 0, 50, 62
2, 59201, Note_on_c, 0, 55, 54
2, 59206, Note_on_c, 0, 59, 0
2, 59212, Note_on_c, 0, 55, 0
2, 59212, Note_on_c, 0, 43, 0
2, 59212, Note_on_c, 0, 62, 0
2, 59212, Note_on_c, 0, 50, 0
2, 59213, Note_on_c, 0, 67, 0
2, 59214, Note_on_c, 0, 50, 0
2, 59214, Note_on_c, 0, 55, 0
2, 59228, Note_on_c, 0, 63, 79
2, 59235, Note_on_c, 0, 60, 68
2, 59241, Note_on_c, 0, 60, 0
2, 59243, Note_on_c, 0, 65, 81
2, 59243, Control_c, 0, 64, 72
2, 59244, Note_on_c, 0, 63, 0
2, 59247, Control_c, 0, 64, 0
2, 59256, Note_on_c, 0, 48, 78
2, 59256, Note_on_c, 0, 55, 61
2, 59256, Note_on_c, 0, 60, 60
2, 59260, Note_on_c, 0, 63, 77
2, 59265, Note_on_c, 0, 65, 0
2, 59281, Note_on_c, 0, 60, 0
2, 59281, Note_on_c, 0, 48, 0
2, 59283, Note_on_c, 0, 55, 0
2, 59307, Control_c, 0, 64, 88
2, 59311, Control_c, 0, 64, 127
2, 59325, Note_on_c, 0, 63, 0
2, 59328, Note_on_c, 0, 62, 87
2, 59332, Note_on_c, 0, 59, 62
2, 59333, Note_on_c, 0, 48, 72
2, 59335, Note_on_c, 0, 55, 54
2, 59339, Note_on_c, 0, 48, 0
2, 59340, Note_on_c, 0, 59, 0
2, 59342, Note_on_c, 0, 55, 0
2, 59349, Note_on_c, 0, 62, 0
2, 59362, Note_on_c, 0, 63, 83
2, 59363, Note_on_c, 0, 59, 41
2, 59370, Note_on_c, 0, 55, 51
2, 59370, Note_on_c, 0, 48, 64
2, 59371, Note_on_c, 0, 59, 0
2, 59378, Note_on_c, 0, 55, 0
2, 59382, Note_on_c, 0, 63, 0
2, 59388, Note_on_c, 0, 48, 0
2, 59400, Note_on_c, 0, 65, 91
2, 59412, Note_on_c, 0, 67, 78
2, 59412, Control_c, 0, 64, 104
2, 59413, Note_on_c, 0, 65, 0
2, 59416, Control_c, 0, 64, 72
2, 59420, Control_c, 0, 64, 0
2, 59430, Note_on_c, 0, 56, 61
2, 59431, Note_on_c, 0, 65, 75
2, 59431, Note_on_c, 0, 46, 68
2, 59431, Note_on_c, 0, 62, 62
2, 59433, Note_on_c, 0, 67, 0
2, 59452, Note_on_c, 0, 62, 0
2, 59466, Note_on_c, 0, 46, 0
2, 59467, Note_on_c, 0, 56, 0
2, 59488, Control_c, 0, 64, 72
2, 59492, Control_c, 0, 64, 127
2, 59497, Note_on_c, 0, 65, 0
2, 59506, Note_on_c, 0, 63, 74
2, 59508, Note_on_c, 0, 60, 69
2, 59510, Note_on_c, 0, 56, 63
2, 59511, Note_on_c, 0, 46, 63
2, 59515, Note_on_c, 0, 60, 0
2, 59519, Note_on_c, 0, 46, 0
2, 59520, Note_on_c, 0, 56, 0
2, 59528, Note_on_c, 0, 63, 0
2, 59545, Note_on_c, 0, 65, 88
2, 59546, Note_on_c, 0, 62, 64
2, 59547, Note_on_c, 0, 56, 66
2, 59547, Note_on_c, 0, 46, 66
2, 59555, Note_on_c, 0, 56, 0
2, 59556, Note_on_c, 0, 62, 0
2, 59559, Note_on_c, 0, 46, 0
2, 59563, Note_on_c, 0, 65, 0
2, 59593, Note_on_c, 0, 67, 84
2, 59597, Note_on_c, 0, 63, 59
2, 59598, Note_on_c, 0, 55, 57
2, 59602, Note_on_c, 0, 51, 55
2, 59602, Note_on_c, 0, 46, 59
2, 59603, Control_c, 0, 64, 88
2, 59607, Note_on_c, 0, 39, 44
2, 59607, Control_c, 0, 64, 0
2, 59636, Note_on_c, 0, 55, 0
2, 59638, Note_on_c, 0, 46, 0
2, 59640, Note_on_c, 0, 51, 0
2, 59642, Note_on_c, 0, 63, 0
2, 59644, Note_on_c, 0, 39, 0
2, 59650, Control_c, 0, 64, 56
2, 59653, Control_c, 0, 64, 127
2, 59672, Note_on_c, 0, 63, 67
2, 59675, Note_on_c, 0, 55, 65
2, 59677, Note_on_c, 0, 51, 65
2, 59677, Note_on_c, 0, 39, 55
2, 59678, Note_on_c, 0, 46, 54
2, 59685, Note_on_c, 0, 46, 0
2, 59685, Note_on_c, 0, 55, 0
2, 59685, Note_on_c, 0, 51, 0
2, 59689, Note_on_c, 0, 39, 0
2, 59692, Note_on_c, 0, 63, 0
2, 59701, Note_on_c, 0, 67, 0
2, 59712, Note_on_c, 0, 63, 80
2, 59712, Note_on_c, 0, 51, 67
2, 59715, Note_on_c, 0, 39, 56
2, 59720, Note_on_c, 0, 51, 0
2, 59723, Note_on_c, 0, 39, 0
2, 59724, Note_on_c, 0, 63, 0
2, 59766, Control_c, 0, 64, 72
2, 59770, Control_c, 0, 64, 0
2, 59776, Note_on_c, 0, 79, 107
2, 59778, Note_on_c, 0, 74, 84
2, 59780, Note_on_c, 0, 67, 74
2, 59780, Note_on_c, 0, 65, 70
2, 59782, Note_on_c, 0, 35, 76
2, 59783, Note_on_c, 0, 47, 79
2, 59793, Note_on_c, 0, 74, 0
2, 59800, Note_on_c, 0, 47, 0
2, 59801, Note_on_c, 0, 65, 0
2, 59802, Note_on_c, 0, 67, 0
2, 59805, Note_on_c, 0, 35, 0
2, 59806, Control_c, 0, 64, 104
2, 59810, Control_c, 0, 64, 127
2, 59861, Note_on_c, 0, 59, 62
2, 59863, Note_on_c, 0, 65, 72
2, 59863, Note_on_c, 0, 67, 64
2, 59866, Note_on_c, 0, 47, 48
2, 59872, Note_on_c, 0, 59, 0
2, 59874, Note_on_c, 0, 47, 0
2, 59875, Note_on_c, 0, 67, 0
2, 59875, Note_on_c, 0, 65, 0
2, 59897, Note_on_c, 0, 67, 61
2, 59898, Note_on_c, 0, 65, 78
2, 59898, Note_on_c, 0, 55, 66
2, 59900, Note_on_c, 0, 59, 64
2, 59903, Note_on_c, 0, 47, 35
2, 59908, Note_on_c, 0, 59, 0
2, 59909, Note_on_c, 0, 47, 0
2, 59911, Note_on_c, 0, 55, 0
2, 59914, Note_on_c, 0, 65, 0
2, 59915, Note_on_c, 0, 67, 0
2, 59921, Note_on_c, 0, 79, 0
2, 59933, Note_on_c, 0, 74, 102
2, 59935, Control_c, 0, 64, 24
2, 59937, Note_on_c, 0, 67, 51
2, 59938, Note_on_c, 0, 65, 53
2, 59938, Control_c, 0, 64, 0
2, 59942, Note_on_c, 0, 55, 62
2, 59942, Note_on_c, 0, 59, 51
2, 59943, Note_on_c, 0, 47, 47
2, 59946, Note_on_c, 0, 65, 0
2, 59949, Note_on_c, 0, 67, 0
2, 59965, Control_c, 0, 64, 72
2, 59968, Control_c, 0, 64, 127
2, 59969, Note_on_c, 0, 59, 0
2, 59969, Note_on_c, 0, 47, 0
2, 59972, Note_on_c, 0, 55, 0
2, 60006, Note_on_c, 0, 65, 65
2, 60007, Note_on_c, 0, 67, 58
2, 60007, Note_on_c, 0, 47, 70
2, 60008, Note_on_c, 0, 55, 56
2, 60010, Note_on_c, 0, 59, 47
2, 60013, Note_on_c, 0, 65, 0
2, 60015, Note_on_c, 0, 47, 0
2, 60015, Note_on_c, 0, 67, 0
2, 60018, Note_on_c, 0, 59, 0
2, 60018, Note_on_c, 0, 55, 0
2, 60028, Note_on_c, 0, 74, 0
2, 60040, Note_on_c, 0, 67, 52
2, 60040, Note_on_c, 0, 65, 57
2, 60041, Note_on_c, 0, 55, 65
2, 60041, Note_on_c, 0, 59, 58
2, 60051, Note_on_c, 0, 55, 0
2, 60051, Note_on_c, 0, 67, 0
2, 60051, Note_on_c, 0, 65, 0
2, 60054, Note_on_c, 0, 59, 0
2, 60073, Control_c, 0, 64, 88
2, 60077, Control_c, 0, 64, 0
2, 60083, Note_on_c, 0, 76, 103
2, 60086, Note_on_c, 0, 64, 79
2, 60087, Note_on_c, 0, 72, 82
2, 60087, Note_on_c, 0, 60, 69
2, 60088, Note_on_c, 0, 55, 67
2, 60088, Note_on_c, 0, 70, 55
2, 60092, Note_on_c, 0, 48, 43
2, 60107, Control_c, 0, 64, 72
2, 60110, Note_on_c, 0, 72, 0
2, 60111, Control_c, 0, 64, 127
2, 60113, Note_on_c, 0, 55, 0
2, 60113, Note_on_c, 0, 70, 0
2, 60114, Note_on_c, 0, 60, 0
2, 60114, Note_on_c, 0, 48, 0
2, 60119, Note_on_c, 0, 64, 0
2, 60157, Note_on_c, 0, 72, 74
2, 60161, Note_on_c, 0, 64, 57
2, 60162, Note_on_c, 0, 48, 79
2, 60162, Note_on_c, 0, 60, 70
2, 60162, Note_on_c, 0, 55, 74
2, 60163, Note_on_c, 0, 70, 50
2, 60168, Note_on_c, 0, 48, 0
2, 60169, Note_on_c, 0, 64, 0
2, 60169, Note_on_c, 0, 70, 0
2, 60170, Note_on_c, 0, 60, 0
2, 60172, Note_on_c, 0, 55, 0
2, 60174, Note_on_c, 0, 72, 0
2, 60179, Note_on_c, 0, 76, 0
2, 60192, Note_on_c, 0, 60, 67
2, 60192, Note_on_c, 0, 70, 61
2, 60192, Note_on_c, 0, 72, 65
2, 60192, Note_on_c, 0, 64, 65
2, 60192, Note_on_c, 0, 55, 65
2, 60199, Note_on_c, 0, 55, 0
2, 60199, Note_on_c, 0, 72, 0
2, 60199, Note_on_c, 0, 64, 0
2, 60203, Note_on_c, 0, 60, 0
2, 60205, Note_on_c, 0, 70, 0
2, 60223, Control_c, 0, 64, 88
2, 60227, Control_c, 0, 64, 0
2, 60240, Note_on_c, 0, 79, 98
2, 60241, Note_on_c, 0, 64, 68
2, 60242, Note_on_c, 0, 60, 59
2, 60242, Note_on_c, 0, 68, 67
2, 60242, Note_on_c, 0, 53, 65
2, 60243, Note_on_c, 0, 72, 79
2, 60250, Note_on_c, 0, 72, 0
2, 60257, Note_on_c, 0, 68, 0
2, 60261, Control_c, 0, 64, 127
2, 60262, Note_on_c, 0, 79, 0
2, 60264, Note_on_c, 0, 53, 0
2, 60265, Note_on_c, 0, 60, 0
2, 60267, Note_on_c, 0, 64, 0
2, 60275, Note_on_c, 0, 77, 104
2, 60296, Note_on_c, 0, 77, 0
2, 60310, Note_on_c, 0, 77, 98
2, 60310, Note_on_c, 0, 60, 73
2, 60311, Note_on_c, 0, 65, 70
2, 60312, Note_on_c, 0, 68, 72
2, 60312, Note_on_c, 0, 53, 66
2, 60315, Note_on_c, 0, 72, 74
2, 60319, Note_on_c, 0, 65, 0
2, 60320, Note_on_c, 0, 53, 0
2, 60321, Note_on_c, 0, 72, 0
2, 60323, Note_on_c, 0, 60, 0
2, 60323, Note_on_c, 0, 68, 0
2, 60330, Note_on_c, 0, 77, 0
2, 60345, Note_on_c, 0, 75, 98
2, 60347, Note_on_c, 0, 65, 66
2, 60348, Note_on_c, 0, 68, 67
2, 60348, Note_on_c, 0, 53, 69
2, 60350, Note_on_c, 0, 72, 75
2, 60351, Note_on_c, 0, 60, 63
2, 60356, Note_on_c, 0, 72, 0
2, 60358, Note_on_c, 0, 53, 0
2, 60358, Note_on_c, 0, 65, 0
2, 60359, Note_on_c, 0, 68, 0
2, 60359, Note_on_c, 0, 60, 0
2, 60371, Note_on_c, 0, 75, 0
2, 60373, Control_c, 0, 64, 88
2, 60377, Control_c, 0, 64, 0
2, 60386, Note_on_c, 0, 74, 103
2, 60390, Note_on_c, 0, 68, 58
2, 60395, Note_on_c, 0, 72, 58
2, 60395, Note_on_c, 0, 62, 57
2, 60396, Note_on_c, 0, 53, 62
2, 60396, Note_on_c, 0, 60, 53
2, 60403, Note_on_c, 0, 72, 0
2, 60418, Control_c, 0, 64, 104
2, 60422, Control_c, 0, 64, 127
2, 60427, Note_on_c, 0, 53, 0
2, 60430, Note_on_c, 0, 68, 0
2, 60431, Note_on_c, 0, 62, 0
2, 60433, Note_on_c, 0, 60, 0
2, 60466, Note_on_c, 0, 68, 56
2, 60466, Note_on_c, 0, 72, 78
2, 60468, Note_on_c, 0, 53, 68
2, 60468, Note_on_c, 0, 60, 57
2, 60468, Note_on_c, 0, 62, 54
2, 60475, Note_on_c, 0, 53, 0
2, 60476, Note_on_c, 0, 60, 0
2, 60477, Note_on_c, 0, 68, 0
2, 60478, Note_on_c, 0, 62, 0
2, 60481, Note_on_c, 0, 72, 0
2, 60482, Note_on_c, 0, 74, 0
2, 60496, Note_on_c, 0, 72, 84
2, 60498, Note_on_c, 0, 68, 66
2, 60503, Note_on_c, 0, 62, 51
2, 60503, Note_on_c, 0, 60, 64
2, 60510, Note_on_c, 0, 68, 0
2, 60511, Note_on_c, 0, 62, 0
2, 60514, Note_on_c, 0, 60, 0
2, 60521, Note_on_c, 0, 72, 0
2, 60527, Control_c, 0, 64, 88
2, 60531, Control_c, 0, 64, 0
2, 60540, Note_on_c, 0, 76, 98
2, 60540, Note_on_c, 0, 70, 75
2, 60542, Note_on_c, 0, 72, 76
2, 60545, Note_on_c, 0, 60, 58
2, 60545, Note_on_c, 0, 55, 68
2, 60545, Note_on_c, 0, 64, 55
2, 60548, Note_on_c, 0, 72, 0
2, 60558, Note_on_c, 0, 70, 0
2, 60572, Control_c, 0, 64, 127
2, 60575, Note_on_c, 0, 55, 0
2, 60577, Note_on_c, 0, 60, 0
2, 60577, Note_on_c, 0, 64, 0
2, 60606, Note_on_c, 0, 76, 0
2, 60615, Note_on_c, 0, 72, 81
2, 60615, Note_on_c, 0, 70, 63
2, 60617, Note_on_c, 0, 60, 62
2, 60618, Note_on_c, 0, 55, 54
2, 60618, Note_on_c, 0, 64, 49
2, 60625, Note_on_c, 0, 60, 0
2, 60628, Note_on_c, 0, 64, 0
2, 60628, Note_on_c, 0, 70, 0
2, 60629, Note_on_c, 0, 55, 0
2, 60630, Note_on_c, 0, 72, 0
2, 60647, Note_on_c, 0, 70, 70
2, 60647, Note_on_c, 0, 72, 81
2, 60652, Note_on_c, 0, 64, 48
2, 60652, Note_on_c, 0, 60, 62
2, 60660, Note_on_c, 0, 70, 0
2, 60663, Note_on_c, 0, 60, 0
2, 60663, Note_on_c, 0, 64, 0
2, 60670, Note_on_c, 0, 72, 0
2, 60681, Control_c, 0, 64, 88
2, 60685, Control_c, 0, 64, 0
2, 60691, Note_on_c, 0, 79, 102
2, 60692, Note_on_c, 0, 68, 73
2, 60695, Note_on_c, 0, 72, 74
2, 60695, Note_on_c, 0, 60, 68
2, 60695, Note_on_c, 0, 64, 62
2, 60695, Note_on_c, 0, 56, 56
2, 60712, Note_on_c, 0, 68, 0
2, 60716, Note_on_c, 0, 79, 0
2, 60716, Note_on_c, 0, 72, 0
2, 60717, Note_on_c, 0, 56, 0
2, 60718, Control_c, 0, 64, 127
2, 60721, Note_on_c, 0, 64, 0
2, 60721, Note_on_c, 0, 60, 0
2, 60727, Note_on_c, 0, 77, 98
2, 60745, Note_on_c, 0, 77, 0
2, 60753, Control_c, 0, 64, 56
2, 60757, Control_c, 0, 64, 0
2, 60762, Note_on_c, 0, 56, 61
2, 60762, Note_on_c, 0, 77, 92
2, 60762, Note_on_c, 0, 65, 67
2, 60763, Note_on_c, 0, 60, 65
2, 60766, Note_on_c, 0, 68, 71
2, 60773, Note_on_c, 0, 60, 0
2, 60774, Note_on_c, 0, 65, 0
2, 60777, Note_on_c, 0, 56, 0
2, 60781, Note_on_c, 0, 68, 0
2, 60783, Note_on_c, 0, 77, 0
2, 60796, Note_on_c, 0, 75, 99
2, 60797, Note_on_c, 0, 56, 61
2, 60797, Control_c, 0, 64, 56
2, 60798, Note_on_c, 0, 65, 69
2, 60801, Control_c, 0, 64, 127
2, 60802, Note_on_c, 0, 60, 59
2, 60809, Note_on_c, 0, 60, 0
2, 60811, Note_on_c, 0, 65, 0
2, 60813, Note_on_c, 0, 56, 0
2, 60816, Note_on_c, 0, 75, 0
2, 60820, Control_c, 0, 64, 72
2, 60823, Control_c, 0, 64, 0
2, 60836, Note_on_c, 0, 75, 91
2, 60840, Note_on_c, 0, 68, 75
2, 60841, Note_on_c, 0, 65, 72
2, 60841, Note_on_c, 0, 53, 69
2, 60841, Note_on_c, 0, 60, 63
2, 60851, Control_c, 0, 64, 72
2, 60855, Control_c, 0, 64, 127
2, 60858, Note_on_c, 0, 68, 0
2, 60862, Note_on_c, 0, 75, 0
2, 60866, Note_on_c, 0, 53, 0
2, 60867, Note_on_c, 0, 60, 0
2, 60871, Note_on_c, 0, 65, 0
2, 60873, Note_on_c, 0, 74, 97
2, 60893, Note_on_c, 0, 74, 0
2, 60895, Control_c, 0, 64, 104
2, 60898, Control_c, 0, 64, 0
2, 60910, Note_on_c, 0, 74, 89
2, 60910, Note_on_c, 0, 65, 72
2, 60911, Note_on_c, 0, 68, 74
2, 60911, Note_on_c, 0, 53, 61
2, 60911, Note_on_c, 0, 60, 67
2, 60918, Control_c, 0, 64, 24
2, 60921, Note_on_c, 0, 60, 0
2, 60921, Note_on_c, 0, 53, 0
2, 60922, Note_on_c, 0, 65, 0
2, 60922, Control_c, 0, 64, 0
2, 60926, Note_on_c, 0, 68, 0
2, 60933, Note_on_c, 0, 74, 0
2, 60945, Control_c, 0, 64, 72
2, 60947, Note_on_c, 0, 65, 63
2, 60948, Note_on_c, 0, 72, 102
2, 60948, Note_on_c, 0, 68, 54
2, 60948, Control_c, 0, 64, 127
2, 60950, Note_on_c, 0, 60, 59
2, 60950, Note_on_c, 0, 53, 57
2, 60955, Note_on_c, 0, 65, 0
2, 60956, Note_on_c, 0, 60, 0
2, 60958, Note_on_c, 0, 53, 0
2, 60963, Note_on_c, 0, 68, 0
2, 60963, Note_on_c, 0, 72, 0
2, 60973, Control_c, 0, 64, 88
2, 60977, Control_c, 0, 64, 0
2, 60987, Note_on_c, 0, 72, 100
2, 60991, Note_on_c, 0, 65, 78
2, 60992, Note_on_c, 0, 56, 60
2, 60992, Note_on_c, 0, 60, 62
2, 60996, Note_on_c, 0, 50, 52
2, 61001, Control_c, 0, 64, 56
2, 61005, Control_c, 0, 64, 127
2, 61006, Note_on_c, 0, 65, 0
2, 61008, Note_on_c, 0, 72, 0
2, 61022, Note_on_c, 0, 56, 0
2, 61025, Note_on_c, 0, 70, 92
2, 61028, Note_on_c, 0, 50, 0
2, 61029, Note_on_c, 0, 60, 0
2, 61045, Note_on_c, 0, 70, 0
2, 61057, Control_c, 0, 64, 0
2, 61063, Note_on_c, 0, 70, 84
2, 61065, Note_on_c, 0, 60, 66
2, 61066, Note_on_c, 0, 50, 66
2, 61066, Note_on_c, 0, 55, 65
2, 61066, Note_on_c, 0, 62, 72
2, 61067, Note_on_c, 0, 65, 66
2, 61074, Note_on_c, 0, 65, 0
2, 61074, Note_on_c, 0, 62, 0
2, 61078, Note_on_c, 0, 60, 0
2, 61080, Control_c, 0, 64, 88
2, 61081, Note_on_c, 0, 55, 0
2, 61083, Control_c, 0, 64, 127
2, 61084, Note_on_c, 0, 50, 0
2, 61084, Note_on_c, 0, 70, 0
2, 61095, Control_c, 0, 64, 40
2, 61098, Control_c, 0, 64, 0
2, 61105, Note_on_c, 0, 68, 95
2, 61106, Note_on_c, 0, 50, 61
2, 61107, Note_on_c, 0, 60, 70
2, 61108, Note_on_c, 0, 62, 70
2, 61110, Note_on_c, 0, 53, 65
2, 61110, Control_c, 0, 64, 56
2, 61113, Control_c, 0, 64, 127
2, 61115, Note_on_c, 0, 62, 0
2, 61115, Note_on_c, 0, 60, 0
2, 61117, Note_on_c, 0, 53, 0
2, 61124, Note_on_c, 0, 50, 0
2, 61126, Note_on_c, 0, 68, 0
2, 61157, Note_on_c, 0, 67, 92
2, 61160, Note_on_c, 0, 55, 70
2, 61161, Note_on_c, 0, 59, 59
2, 61161, Note_on_c, 0, 62, 67
2, 61162, Note_on_c, 0, 50, 68
2, 61163, Note_on_c, 0, 43, 54
2, 61170, Control_c, 0, 64, 56
2, 61173, Control_c, 0, 64, 0
2, 61203, Control_c, 0, 64, 72
2, 61207, Note_on_c, 0, 59, 0
2, 61207, Note_on_c, 0, 55, 0
2, 61207, Control_c, 0, 64, 127
2, 61209, Note_on_c, 0, 43, 0
2, 61210, Note_on_c, 0, 50, 0
2, 61214, Note_on_c, 0, 62, 0
2, 61217, Note_on_c, 0, 67, 0
2, 61237, Control_c, 0, 64, 56
2, 61241, Control_c, 0, 64, 0
2, 61243, Note_on_c, 0, 63, 77
2, 61245, Note_on_c, 0, 67, 83
2, 61246, Note_on_c, 0, 48, 74
2, 61247, Note_on_c, 0, 60, 70
2, 61247, Note_on_c, 0, 55, 65
2, 61248, Note_on_c, 0, 43, 65
2, 61258, Note_on_c, 0, 43, 0
2, 61258, Note_on_c, 0, 60, 0
2, 61260, Control_c, 0, 64, 88
2, 61263, Note_on_c, 0, 48, 0
2, 61263, Note_on_c, 0, 55, 0
2, 61263, Control_c, 0, 64, 127
2, 61265, Note_on_c, 0, 67, 0
2, 61268, Note_on_c, 0, 63, 0
2, 61286, Control_c, 0, 64, 40
2, 61290, Control_c, 0, 64, 0
2, 61292, Note_on_c, 0, 67, 81
2, 61293, Note_on_c, 0, 60, 79
2, 61293, Note_on_c, 0, 57, 65
2, 61296, Note_on_c, 0, 55, 62
2, 61297, Note_on_c, 0, 43, 58
2, 61300, Note_on_c, 0, 51, 57
2, 61311, Note_on_c, 0, 51, 0
2, 61313, Note_on_c, 0, 57, 0
2, 61314, Note_on_c, 0, 43, 0
2, 61315, Note_on_c, 0, 60, 0
2, 61316, Note_on_c, 0, 55, 0
2, 61316, Control_c, 0, 64, 104
2, 61319, Note_on_c, 0, 67, 0
2, 61320, Control_c, 0, 64, 127
2, 61346, Note_on_c, 0, 67, 75
2, 61347, Note_on_c, 0, 62, 70
2, 61347, Note_on_c, 0, 59, 58
2, 61350, Note_on_c, 0, 55, 51
2, 61350, Control_c, 0, 64, 72
2, 61352, Note_on_c, 0, 43, 51
2, 61353, Control_c, 0, 64, 0
2, 61355, Note_on_c, 0, 50, 52
2, 61387, Control_c, 0, 64, 88
2, 61391, Control_c, 0, 64, 127
2, 61394, Note_on_c, 0, 62, 0
2, 61401, Note_on_c, 0, 55, 0
2, 61402, Note_on_c, 0, 43, 0
2, 61402, Note_on_c, 0, 50, 0
2, 61403, Note_on_c, 0, 67, 0
2, 61408, Note_on_c, 0, 59, 0
2, 61436, Control_c, 0, 64, 88
2, 61440, Note_on_c, 0, 67, 74
2, 61440, Control_c, 0, 64, 0
2, 61441, Note_on_c, 0, 63, 70
2, 61442, Note_on_c, 0, 48, 73
2, 61443, Note_on_c, 0, 60, 72
2, 61443, Note_on_c, 0, 55, 51
2, 61445, Note_on_c, 0, 43, 49
2, 61460, Note_on_c, 0, 60, 0
2, 61460, Note_on_c, 0, 48, 0
2, 61462, Control_c, 0, 64, 72
2, 61463, Note_on_c, 0, 43, 0
2, 61464, Note_on_c, 0, 63, 0
2, 61464, Note_on_c, 0, 55, 0
2, 61466, Control_c, 0, 64, 127
2, 61467, Note_on_c, 0, 67, 0
2, 61488, Control_c, 0, 64, 104
2, 61492, Control_c, 0, 64, 0
2, 61496, Note_on_c, 0, 67, 74
2, 61498, Note_on_c, 0, 60, 70
2, 61498, Note_on_c, 0, 57, 50
2, 61498, Note_on_c, 0, 43, 61
2, 61500, Note_on_c, 0, 55, 55
2, 61501, Note_on_c, 0, 51, 58
2, 61515, Control_c, 0, 64, 88
2, 61518, Control_c, 0, 64, 127
2, 61519, Note_on_c, 0, 57, 0
2, 61526, Note_on_c, 0, 43, 0
2, 61527, Note_on_c, 0, 51, 0
2, 61528, Note_on_c, 0, 55, 0
2, 61534, Note_on_c, 0, 67, 0
2, 61535, Note_on_c, 0, 60, 0
2, 61570, Note_on_c, 0, 67, 67
2, 61571, Note_on_c, 0, 62, 70
2, 61573, Note_on_c, 0, 59, 56
2, 61577, Note_on_c, 0, 55, 55
2, 61578, Note_on_c, 0, 43, 57
2, 61580, Note_on_c, 0, 50, 56
2, 61582, Control_c, 0, 64, 104
2, 61586, Control_c, 0, 64, 72
2, 61590, Control_c, 0, 64, 0
2, 61638, Control_c, 0, 64, 88
2, 61640, Note_on_c, 0, 43, 0
2, 61642, Control_c, 0, 64, 127
2, 61645, Note_on_c, 0, 50, 0
2, 61648, Note_on_c, 0, 59, 0
2, 61650, Note_on_c, 0, 55, 0
2, 61652, Note_on_c, 0, 62, 0
2, 61660, Note_on_c, 0, 67, 0
2, 61741, Note_on_c, 0, 74, 76
2, 61746, Note_on_c, 0, 62, 47
2, 61770, Control_c, 0, 64, 72
2, 61773, Control_c, 0, 64, 0
2, 61826, Control_c, 0, 64, 104
2, 61830, Control_c, 0, 64, 127
2, 61922, Note_on_c, 0, 72, 80
2, 61923, Note_on_c, 0, 74, 0
2, 61936, Note_on_c, 0, 62, 0
2, 61970, Note_on_c, 0, 72, 0
2, 61976, Note_on_c, 0, 71, 76
2, 61982, Note_on_c, 0, 62, 54
2, 62011, Note_on_c, 0, 71, 0
2, 62018, Note_on_c, 0, 69, 82
2, 62045, Note_on_c, 0, 69, 0
2, 62057, Note_on_c, 0, 62, 0
2, 62057, Note_on_c, 0, 68, 73
2, 62062, Note_on_c, 0, 60, 49
2, 62062, Note_on_c, 0, 54, 47
2, 62080, Note_on_c, 0, 68, 0
2, 62090, Note_on_c, 0, 69, 91
2, 62115, Note_on_c, 0, 54, 0
2, 62117, Note_on_c, 0, 69, 0
2, 62119, Note_on_c, 0, 60, 0
2, 62126, Note_on_c, 0, 71, 97
2, 62126, Note_on_c, 0, 62, 70
2, 62151, Note_on_c, 0, 71, 0
2, 62158, Note_on_c, 0, 72, 85
2, 62173, Note_on_c, 0, 72, 0
2, 62186, Note_on_c, 0, 62, 0
2, 62197, Note_on_c, 0, 73, 87
2, 62197, Control_c, 0, 64, 72
2, 62200, Note_on_c, 0, 59, 59
2, 62201, Control_c, 0, 64, 0
2, 62202, Note_on_c, 0, 55, 62
2, 62222, Note_on_c, 0, 73, 0
2, 62228, Control_c, 0, 64, 40
2, 62232, Control_c, 0, 64, 104
2, 62236, Control_c, 0, 64, 127
2, 62237, Note_on_c, 0, 74, 90
2, 62252, Note_on_c, 0, 55, 0
2, 62257, Note_on_c, 0, 59, 0
2, 62264, Note_on_c, 0, 74, 0
2, 62277, Note_on_c, 0, 79, 88
2, 62280, Note_on_c, 0, 62, 58
2, 62292, Note_on_c, 0, 62, 0
2, 62303, Note_on_c, 0, 79, 0
2, 62318, Note_on_c, 0, 76, 91
2, 62358, Note_on_c, 0, 76, 0
2, 62371, Note_on_c, 0, 73, 81
2, 62371, Note_on_c, 0, 38, 73
2, 62376, Control_c, 0, 64, 88
2, 62380, Control_c, 0, 64, 24
2, 62385, Control_c, 0, 64, 0
2, 62399, Note_on_c, 0, 38, 0
2, 62412, Control_c, 0, 64, 56
2, 62416, Note_on_c, 0, 73, 0
2, 62417, Control_c, 0, 64, 104
2, 62422, Control_c, 0, 64, 127
2, 62422, Note_on_c, 0, 74, 89
2, 62459, Note_on_c, 0, 74, 0
2, 62472, Note_on_c, 0, 78, 87
2, 62481, Note_on_c, 0, 62, 62
2, 62485, Note_on_c, 0, 50, 31
2, 62500, Note_on_c, 0, 78, 0
2, 62512, Note_on_c, 0, 76, 87
2, 62525, Note_on_c, 0, 50, 0
2, 62531, Note_on_c, 0, 62, 0
2, 62546, Control_c, 0, 64, 88
2, 62548, Note_on_c, 0, 76, 0
2, 62551, Note_on_c, 0, 74, 92
2, 62551, Control_c, 0, 64, 0
2, 62552, Note_on_c, 0, 60, 58
2, 62555, Note_on_c, 0, 54, 52
2, 62573, Control_c, 0, 64, 56
2, 62577, Control_c, 0, 64, 127
2, 62586, Note_on_c, 0, 74, 0
2, 62588, Note_on_c, 0, 72, 88
2, 62608, Note_on_c, 0, 72, 0
2, 62612, Note_on_c, 0, 60, 0
2, 62630, Note_on_c, 0, 64, 80
2, 62636, Note_on_c, 0, 62, 55
2, 62643, Note_on_c, 0, 50, 54
2, 62653, Note_on_c, 0, 54, 0
2, 62661, Note_on_c, 0, 64, 0
2, 62662, Note_on_c, 0, 66, 82
2, 62685, Note_on_c, 0, 67, 78
2, 62687, Note_on_c, 0, 66, 0
2, 62692, Control_c, 0, 64, 104
2, 62693, Note_on_c, 0, 50, 0
2, 62696, Note_on_c, 0, 69, 78
2, 62697, Control_c, 0, 64, 56
2, 62699, Note_on_c, 0, 62, 0
2, 62701, Control_c, 0, 64, 0
2, 62702, Note_on_c, 0, 67, 0
2, 62712, Note_on_c, 0, 69, 0
2, 62718, Note_on_c, 0, 67, 83
2, 62718, Note_on_c, 0, 59, 56
2, 62718, Note_on_c, 0, 55, 60
2, 62751, Control_c, 0, 64, 40
2, 62753, Note_on_c, 0, 67, 0
2, 62755, Control_c, 0, 64, 56
2, 62760, Control_c, 0, 64, 72
2, 62768, Note_on_c, 0, 66, 84
2, 62775, Note_on_c, 0, 55, 0
2, 62777, Control_c, 0, 64, 40
2, 62778, Note_on_c, 0, 59, 0
2, 62781, Control_c, 0, 64, 24
2, 62786, Control_c, 0, 64, 0
2, 62799, Note_on_c, 0, 66, 0
2, 62802, Note_on_c, 0, 62, 46
2, 62803, Note_on_c, 0, 50, 60
2, 62807, Note_on_c, 0, 67, 81
2, 62808, Control_c, 0, 64, 24
2, 62812, Control_c, 0, 64, 56
2, 62817, Control_c, 0, 64, 88
2, 62821, Control_c, 0, 64, 104
2, 62826, Control_c, 0, 64, 127
2, 62848, Note_on_c, 0, 68, 87
2, 62855, Note_on_c, 0, 67, 0
2, 62866, Note_on_c, 0, 68, 0
2, 62888, Note_on_c, 0, 69, 87
2, 62888, Control_c, 0, 64, 72
2, 62890, Note_on_c, 0, 54, 46
2, 62891, Note_on_c, 0, 50, 0
2, 62891, Note_on_c, 0, 57, 43
2, 62892, Control_c, 0, 64, 0
2, 62910, Control_c, 0, 64, 24
2, 62912, Note_on_c, 0, 62, 0
2, 62915, Control_c, 0, 64, 72
2, 62918, Note_on_c, 0, 69, 0
2, 62918, Control_c, 0, 64, 127
2, 62927, Note_on_c, 0, 78, 85
2, 62954, Note_on_c, 0, 57, 0
2, 62957, Note_on_c, 0, 78, 0
2, 62966, Note_on_c, 0, 54, 0
2, 62966, Note_on_c, 0, 76, 93
2, 62966, Note_on_c, 0, 62, 52
2, 62968, Note_on_c, 0, 50, 64
2, 62993, Note_on_c, 0, 76, 0
2, 63002, Note_on_c, 0, 74, 95
2, 63033, Note_on_c, 0, 74, 0
2, 63038, Control_c, 0, 64, 72
2, 63042, Note_on_c, 0, 58, 53
2, 63043, Note_on_c, 0, 73, 89
2, 63043, Control_c, 0, 64, 0
2, 63045, Note_on_c, 0, 55, 61
2, 63053, Note_on_c, 0, 50, 0
2, 63063, Note_on_c, 0, 62, 0
2, 63070, Control_c, 0, 64, 56
2, 63073, Control_c, 0, 64, 127
2, 63081, Note_on_c, 0, 73, 0
2, 63088, Note_on_c, 0, 78, 95
2, 63118, Note_on_c, 0, 78, 0
2, 63130, Note_on_c, 0, 79, 95
2, 63142, Note_on_c, 0, 55, 0
2, 63142, Note_on_c, 0, 50, 49
2, 63142, Note_on_c, 0, 62, 44
2, 63147, Note_on_c, 0, 58, 0
2, 63162, Note_on_c, 0, 79, 0
2, 63171, Note_on_c, 0, 81, 95
2, 63224, Note_on_c, 0, 81, 0
2, 63232, Note_on_c, 0, 84, 95
2, 63248, Control_c, 0, 64, 24
2, 63252, Control_c, 0, 64, 0
2, 63268, Note_on_c, 0, 84, 0
2, 63275, Control_c, 0, 64, 88
2, 63278, Control_c, 0, 64, 127
2, 63286, Note_on_c, 0, 82, 86
2, 63299, Note_on_c, 0, 50, 0
2, 63307, Note_on_c, 0, 62, 0
2, 63324, Note_on_c, 0, 82, 0
2, 63328, Note_on_c, 0, 79, 93
2, 63336, Note_on_c, 0, 62, 46
2, 63338, Note_on_c, 0, 50, 47
2, 63358, Note_on_c, 0, 79, 0
2, 63367, Note_on_c, 0, 73, 79
2, 63402, Note_on_c, 0, 73, 0
2, 63414, Note_on_c, 0, 50, 0
2, 63415, Note_on_c, 0, 74, 85
2, 63421, Note_on_c, 0, 54, 42
2, 63422, Note_on_c, 0, 57, 44
2, 63424, Note_on_c, 0, 62, 0
2, 63425, Control_c, 0, 64, 104
2, 63430, Control_c, 0, 64, 24
2, 63433, Control_c, 0, 64, 0
2, 63461, Control_c, 0, 64, 40
2, 63465, Control_c, 0, 64, 88
2, 63470, Control_c, 0, 64, 127
2, 63480, Note_on_c, 0, 74, 0
2, 63493, Note_on_c, 0, 76, 77
2, 63495, Note_on_c, 0, 57, 0
2, 63501, Note_on_c, 0, 62, 35
2, 63505, Control_c, 0, 64, 104
2, 63507, Note_on_c, 0, 50, 55
2, 63508, Note_on_c, 0, 54, 0
2, 63510, Control_c, 0, 64, 24
2, 63511, Note_on_c, 0, 74, 86
2, 63513, Control_c, 0, 64, 0
2, 63520, Note_on_c, 0, 76, 0
2, 63536, Control_c, 0, 64, 40
2, 63540, Control_c, 0, 64, 88
2, 63545, Control_c, 0, 64, 127
2, 63563, Note_on_c, 0, 74, 0
2, 63567, Note_on_c, 0, 75, 79
2, 63584, Note_on_c, 0, 75, 0
2, 63585, Note_on_c, 0, 74, 82
2, 63587, Note_on_c, 0, 58, 49
2, 63588, Note_on_c, 0, 50, 0
2, 63590, Control_c, 0, 64, 56
2, 63593, Control_c, 0, 64, 0
2, 63596, Note_on_c, 0, 55, 46
2, 63603, Note_on_c, 0, 62, 0
2, 63616, Control_c, 0, 64, 24
2, 63620, Control_c, 0, 64, 72
2, 63625, Control_c, 0, 64, 127
2, 63645, Note_on_c, 0, 74, 0
2, 63652, Note_on_c, 0, 76, 76
2, 63668, Note_on_c, 0, 74, 82
2, 63669, Note_on_c, 0, 58, 0
2, 63670, Control_c, 0, 64, 56
2, 63671, Note_on_c, 0, 55, 0
2, 63673, Note_on_c, 0, 76, 0
2, 63673, Note_on_c, 0, 62, 64
2, 63673, Note_on_c, 0, 50, 65
2, 63673, Control_c, 0, 64, 0
2, 63691, Control_c, 0, 64, 56
2, 63696, Control_c, 0, 64, 88
2, 63700, Control_c, 0, 64, 127
2, 63725, Note_on_c, 0, 74, 0
2, 63730, Note_on_c, 0, 75, 83
2, 63748, Note_on_c, 0, 74, 85
2, 63750, Note_on_c, 0, 75, 0
2, 63753, Control_c, 0, 64, 56
2, 63757, Control_c, 0, 64, 0
2, 63758, Note_on_c, 0, 50, 0
2, 63760, Note_on_c, 0, 62, 0
2, 63767, Note_on_c, 0, 56, 56
2, 63767, Note_on_c, 0, 59, 56
2, 63781, Control_c, 0, 64, 56
2, 63785, Control_c, 0, 64, 104
2, 63790, Control_c, 0, 64, 127
2, 63797, Note_on_c, 0, 56, 0
2, 63810, Note_on_c, 0, 74, 0
2, 63815, Note_on_c, 0, 76, 84
2, 63837, Note_on_c, 0, 59, 0
2, 63838, Note_on_c, 0, 74, 86
2, 63840, Note_on_c, 0, 76, 0
2, 63846, Control_c, 0, 64, 104
2, 63851, Note_on_c, 0, 50, 43
2, 63851, Control_c, 0, 64, 56
2, 63855, Control_c, 0, 64, 24
2, 63870, Control_c, 0, 64, 88
2, 63873, Control_c, 0, 64, 127
2, 63896, Note_on_c, 0, 74, 0
2, 63897, Note_on_c, 0, 75, 84
2, 63912, Note_on_c, 0, 50, 0
2, 63923, Note_on_c, 0, 75, 0
2, 63923, Note_on_c, 0, 74, 83
2, 63930, Note_on_c, 0, 60, 61
2, 63931, Note_on_c, 0, 57, 41
2, 63936, Control_c, 0, 64, 72
2, 63940, Control_c, 0, 64, 0
2, 63962, Control_c, 0, 64, 56
2, 63967, Control_c, 0, 64, 104
2, 63971, Control_c, 0, 64, 127
2, 63975, Note_on_c, 0, 74, 0
2, 63978, Note_on_c, 0, 72, 87
2, 63983, Note_on_c, 0, 57, 0
2, 63990, Note_on_c, 0, 60, 0
2, 64015, Note_on_c, 0, 72, 0
2, 64018, Note_on_c, 0, 70, 73
2, 64018, Note_on_c, 0, 62, 43
2, 64021, Note_on_c, 0, 50, 54
2, 64025, Control_c, 0, 64, 88
2, 64028, Control_c, 0, 64, 24
2, 64033, Control_c, 0, 64, 0
2, 64046, Control_c, 0, 64, 24
2, 64048, Note_on_c, 0, 70, 0
2, 64051, Control_c, 0, 64, 72
2, 64055, Control_c, 0, 64, 127
2, 64060, Note_on_c, 0, 69, 79
2, 64088, Note_on_c, 0, 69, 0
2, 64098, Note_on_c, 0, 68, 78
2, 64123, Note_on_c, 0, 50, 0
2, 64128, Note_on_c, 0, 68, 0
2, 64135, Note_on_c, 0, 62, 0
2, 64135, Note_on_c, 0, 69, 83
2, 64170, Note_on_c, 0, 69, 0
2, 64180, Note_on_c, 0, 70, 81
2, 64185, Note_on_c, 0, 62, 57
2, 64188, Note_on_c, 0, 50, 57
2, 64207, Note_on_c, 0, 70, 0
2, 64218, Note_on_c, 0, 72, 92
2, 64260, Note_on_c, 0, 72, 0
2, 64268, Note_on_c, 0, 73, 85
2, 64272, Note_on_c, 0, 62, 0
2, 64273, Note_on_c, 0, 58, 41
2, 64273, Control_c, 0, 64, 104
2, 64274, Note_on_c, 0, 50, 0
2, 64277, Note_on_c, 0, 55, 47
2, 64278, Control_c, 0, 64, 40
2, 64282, Control_c, 0, 64, 0
2, 64309, Note_on_c, 0, 73, 0
2, 64313, Control_c, 0, 64, 88
2, 64315, Control_c, 0, 64, 127
2, 64316, Note_on_c, 0, 74, 84
2, 64359, Note_on_c, 0, 74, 0
2, 64363, Note_on_c, 0, 58, 0
2, 64370, Control_c, 0, 64, 72
2, 64371, Note_on_c, 0, 79, 83
2, 64373, Control_c, 0, 64, 0
2, 64378, Note_on_c, 0, 62, 50
2, 64379, Note_on_c, 0, 55, 0
2, 64381, Note_on_c, 0, 50, 51
2, 64392, Control_c, 0, 64, 72
2, 64397, Control_c, 0, 64, 127
2, 64409, Note_on_c, 0, 62, 0
2, 64418, Note_on_c, 0, 50, 0
2, 64439, Note_on_c, 0, 79, 0
2, 64485, Note_on_c, 0, 78, 78
2, 64530, Control_c, 0, 64, 72
2, 64531, Note_on_c, 0, 77, 85
2, 64532, Note_on_c, 0, 38, 66
2, 64533, Control_c, 0, 64, 0
2, 64535, Note_on_c, 0, 78, 0
2, 64556, Control_c, 0, 64, 72
2, 64561, Note_on_c, 0, 77, 0
2, 64561, Control_c, 0, 64, 127
2, 64564, Note_on_c, 0, 38, 0
2, 64587, Note_on_c, 0, 76, 84
2, 64614, Note_on_c, 0, 76, 0
2, 64627, Note_on_c, 0, 75, 85
2, 64627, Note_on_c, 0, 50, 65
2, 64633, Note_on_c, 0, 62, 65
2, 64652, Note_on_c, 0, 75, 0
2, 64666, Note_on_c, 0, 74, 89
2, 64682, Note_on_c, 0, 50, 0
2, 64686, Note_on_c, 0, 62, 0
2, 64688, Note_on_c, 0, 74, 0
2, 64701, Note_on_c, 0, 73, 83
2, 64705, Note_on_c, 0, 60, 59
2, 64710, Note_on_c, 0, 54, 52
2, 64728, Note_on_c, 0, 73, 0
2, 64740, Note_on_c, 0, 72, 91
2, 64753, Note_on_c, 0, 60, 0
2, 64770, Note_on_c, 0, 72, 0
2, 64780, Note_on_c, 0, 69, 80
2, 64785, Note_on_c, 0, 62, 59
2, 64786, Note_on_c, 0, 54, 0
2, 64788, Note_on_c, 0, 50, 57
2, 64807, Note_on_c, 0, 69, 0
2, 64812, Note_on_c, 0, 70, 80
2, 64834, Note_on_c, 0, 70, 0
2, 64842, Note_on_c, 0, 67, 81
2, 64845, Control_c, 0, 64, 88
2, 64850, Control_c, 0, 64, 0
2, 64856, Note_on_c, 0, 58, 46
2, 64857, Note_on_c, 0, 67, 0
2, 64861, Note_on_c, 0, 55, 51
2, 64862, Note_on_c, 0, 69, 84
2, 64868, Note_on_c, 0, 62, 0
2, 64869, Note_on_c, 0, 50, 0
2, 64871, Note_on_c, 0, 67, 81
2, 64882, Note_on_c, 0, 69, 0
2, 64903, Control_c, 0, 64, 40
2, 64907, Note_on_c, 0, 67, 0
2, 64907, Control_c, 0, 64, 88
2, 64912, Note_on_c, 0, 66, 77
2, 64912, Control_c, 0, 64, 127
2, 64942, Note_on_c, 0, 66, 0
2, 64951, Note_on_c, 0, 58, 0
2, 64951, Note_on_c, 0, 67, 84
2, 64951, Control_c, 0, 64, 56
2, 64956, Control_c, 0, 64, 0
2, 64960, Note_on_c, 0, 62, 43
2, 64961, Note_on_c, 0, 50, 41
2, 64963, Note_on_c, 0, 55, 0
2, 64982, Control_c, 0, 64, 40
2, 64987, Control_c, 0, 64, 104
2, 64991, Control_c, 0, 64, 127
2, 64995, Note_on_c, 0, 69, 90
2, 64998, Note_on_c, 0, 67, 0
2, 65013, Note_on_c, 0, 69, 0
2, 65035, Control_c, 0, 64, 104
2, 65038, Note_on_c, 0, 58, 44
2, 65038, Note_on_c, 0, 70, 87
2, 65041, Control_c, 0, 64, 24
2, 65043, Note_on_c, 0, 55, 55
2, 65045, Control_c, 0, 64, 0
2, 65067, Note_on_c, 0, 50, 0
2, 65067, Control_c, 0, 64, 72
2, 65071, Control_c, 0, 64, 127
2, 65077, Note_on_c, 0, 62, 0
2, 65085, Note_on_c, 0, 82, 89
2, 65091, Note_on_c, 0, 70, 0
2, 65112, Note_on_c, 0, 82, 0
2, 65124, Note_on_c, 0, 55, 0
2, 65128, Note_on_c, 0, 63, 66
2, 65130, Note_on_c, 0, 50, 66
2, 65135, Note_on_c, 0, 81, 97
2, 65139, Note_on_c, 0, 58, 0
2, 65147, Control_c, 0, 64, 72
2, 65151, Control_c, 0, 64, 0
2, 65166, Note_on_c, 0, 81, 0
2, 65168, Control_c, 0, 64, 40
2, 65173, Control_c, 0, 64, 104
2, 65177, Note_on_c, 0, 79, 92
2, 65177, Control_c, 0, 64, 127
2, 65209, Note_on_c, 0, 79, 0
2, 65218, Note_on_c, 0, 81, 96
2, 65233, Note_on_c, 0, 50, 0
2, 65244, Note_on_c, 0, 81, 0
2, 65256, Note_on_c, 0, 79, 92
2, 65260, Note_on_c, 0, 63, 0
2, 65288, Note_on_c, 0, 79, 0
2, 65296, Note_on_c, 0, 77, 90
2, 65302, Note_on_c, 0, 63, 59
2, 65308, Note_on_c, 0, 50, 63
2, 65327, Note_on_c, 0, 77, 0
2, 65336, Note_on_c, 0, 75, 89
2, 65368, Note_on_c, 0, 75, 0
2, 65377, Note_on_c, 0, 77, 89
2, 65380, Note_on_c, 0, 58, 41
2, 65387, Note_on_c, 0, 55, 52
2, 65399, Note_on_c, 0, 50, 0
2, 65399, Note_on_c, 0, 63, 0
2, 65405, Note_on_c, 0, 77, 0
2, 65417, Note_on_c, 0, 75, 75
2, 65444, Note_on_c, 0, 75, 0
2, 65463, Note_on_c, 0, 70, 71
2, 65469, Note_on_c, 0, 55, 0
2, 65470, Note_on_c, 0, 63, 52
2, 65475, Note_on_c, 0, 50, 55
2, 65481, Note_on_c, 0, 58, 0
2, 65500, Note_on_c, 0, 70, 0
2, 65506, Note_on_c, 0, 72, 86
2, 65510, Note_on_c, 0, 63, 0
2, 65523, Note_on_c, 0, 72, 0
2, 65541, Note_on_c, 0, 50, 0
2, 65551, Control_c, 0, 64, 72
2, 65553, Note_on_c, 0, 74, 84
2, 65553, Note_on_c, 0, 54, 52
2, 65553, Note_on_c, 0, 57, 52
2, 65553, Note_on_c, 0, 62, 57
2, 65555, Control_c, 0, 64, 0
2, 65571, Control_c, 0, 64, 72
2, 65571, Control_c, 0, 64, 40
2, 65573, Control_c, 0, 64, 127
2, 65573, Control_c, 0, 64, 104
2, 65575, Note_on_c, 0, 75, 72
2, 65576, Note_on_c, 0, 74, 0
2, 65577, Note_on_c, 0, 75, 81
2, 65577, Control_c, 0, 64, 40
2, 65577, Control_c, 0, 64, 127
2, 65578, Note_on_c, 0, 75, 77
2, 65591, Note_on_c, 0, 75, 0
2, 65594, Note_on_c, 0, 75, 0
2, 65597, Note_on_c, 0, 75, 0
2, 65598, Note_on_c, 0, 74, 83
2, 65616, Note_on_c, 0, 74, 0
2, 65617, Note_on_c, 0, 75, 68
2, 65630, Note_on_c, 0, 75, 0
2, 65631, Note_on_c, 0, 74, 69
2, 65638, Note_on_c, 0, 50, 52
2, 65645, Note_on_c, 0, 54, 0
2, 65648, Note_on_c, 0, 74, 0
2, 65651, Note_on_c, 0, 57, 0
2, 65651, Note_on_c, 0, 75, 77
2, 65662, Note_on_c, 0, 75, 0
2, 65662, Note_on_c, 0, 74, 73
2, 65677, Note_on_c, 0, 74, 0
2, 65678, Note_on_c, 0, 75, 75
2, 65690, Note_on_c, 0, 62, 0
2, 65691, Note_on_c, 0, 74, 77
2, 65693, Note_on_c, 0, 75, 0
2, 65707, Note_on_c, 0, 74, 0
2, 65708, Note_on_c, 0, 73, 78
2, 65719, Note_on_c, 0, 50, 0
2, 65724, Note_on_c, 0, 73, 0
2, 65727, Note_on_c, 0, 74, 78
2, 65742, Control_c, 0, 64, 72
2, 65745, Note_on_c, 0, 63, 61
2, 65746, Note_on_c, 0, 75, 82
2, 65746, Note_on_c, 0, 58, 60
2, 65746, Control_c, 0, 64, 24
2, 65748, Note_on_c, 0, 74, 0
2, 65748, Note_on_c, 0, 55, 60
2, 65748, Control_c, 0, 64, 0
2, 65766, Note_on_c, 0, 75, 0
2, 65767, Note_on_c, 0, 77, 83
2, 65775, Control_c, 0, 64, 127
2, 65785, Note_on_c, 0, 77, 0
2, 65785, Note_on_c, 0, 75, 80
2, 65800, Note_on_c, 0, 75, 0
2, 65800, Note_on_c, 0, 77, 74
2, 65811, Note_on_c, 0, 63, 0
2, 65817, Note_on_c, 0, 77, 0
2, 65817, Note_on_c, 0, 75, 73
2, 65830, Note_on_c, 0, 75, 0
2, 65830, Note_on_c, 0, 77, 74
2, 65831, Note_on_c, 0, 55, 0
2, 65832, Note_on_c, 0, 58, 0
2, 65835, Note_on_c, 0, 49, 58
2, 65846, Note_on_c, 0, 75, 64
2, 65847, Note_on_c, 0, 77, 0
2, 65861, Note_on_c, 0, 77, 65
2, 65862, Note_on_c, 0, 75, 0
2, 65882, Note_on_c, 0, 75, 74
2, 65888, Note_on_c, 0, 77, 0
2, 65900, Note_on_c, 0, 75, 0
2, 65902, Note_on_c, 0, 74, 78
2, 65918, Note_on_c, 0, 75, 80
2, 65919, Note_on_c, 0, 74, 0
2, 65925, Note_on_c, 0, 49, 0
2, 65943, Note_on_c, 0, 75, 0
2, 65943, Note_on_c, 0, 76, 83
2, 65946, Note_on_c, 0, 64, 65
2, 65946, Note_on_c, 0, 55, 54
2, 65946, Control_c, 0, 64, 88
2, 65948, Note_on_c, 0, 58, 42
2, 65948, Control_c, 0, 64, 0
2, 65970, Control_c, 0, 64, 72
2, 65972, Control_c, 0, 64, 127
2, 65973, Note_on_c, 0, 76, 0
2, 65973, Note_on_c, 0, 77, 71
2, 65976, Note_on_c, 0, 64, 0
2, 65977, Note_on_c, 0, 55, 0
2, 65986, Note_on_c, 0, 77, 0
2, 65990, Note_on_c, 0, 76, 80
2, 66000, Note_on_c, 0, 58, 0
2, 66005, Note_on_c, 0, 76, 0
2, 66006, Note_on_c, 0, 77, 73
2, 66016, Note_on_c, 0, 77, 0
2, 66018, Note_on_c, 0, 76, 71
2, 66034, Note_on_c, 0, 76, 0
2, 66036, Note_on_c, 0, 77, 73
2, 66044, Note_on_c, 0, 77, 0
2, 66047, Note_on_c, 0, 48, 63
2, 66048, Note_on_c, 0, 76, 72
2, 66064, Note_on_c, 0, 76, 0
2, 66066, Note_on_c, 0, 77, 76
2, 66076, Note_on_c, 0, 77, 0
2, 66081, Note_on_c, 0, 76, 81
2, 66094, Note_on_c, 0, 76, 0
2, 66097, Note_on_c, 0, 77, 76
2, 66100, Note_on_c, 0, 48, 0
2, 66113, Note_on_c, 0, 77, 0
2, 66113, Note_on_c, 0, 76, 72
2, 66126, Note_on_c, 0, 76, 0
2, 66132, Note_on_c, 0, 75, 79
2, 66148, Note_on_c, 0, 75, 0
2, 66156, Note_on_c, 0, 76, 82
2, 66183, Note_on_c, 0, 76, 0
2, 66186, Note_on_c, 0, 77, 81
2, 66186, Note_on_c, 0, 41, 58
2, 66193, Control_c, 0, 64, 72
2, 66196, Control_c, 0, 64, 0
2, 66203, Control_c, 0, 64, 40
2, 66207, Control_c, 0, 64, 0
2, 66210, Note_on_c, 0, 41, 55
2, 66211, Note_on_c, 0, 41, 53
2, 66221, Control_c, 0, 64, 24
2, 66223, Note_on_c, 0, 41, 0
2, 66225, Control_c, 0, 64, 72
2, 66229, Note_on_c, 0, 77, 0
2, 66230, Note_on_c, 0, 41, 0
2, 66230, Control_c, 0, 64, 127
2, 66237, Note_on_c, 0, 41, 0
2, 66252, Note_on_c, 0, 75, 79
2, 66295, Note_on_c, 0, 75, 0
2, 66302, Note_on_c, 0, 73, 68
2, 66311, Note_on_c, 0, 65, 54
2, 66313, Note_on_c, 0, 53, 49
2, 66335, Note_on_c, 0, 73, 0
2, 66345, Note_on_c, 0, 72, 87
2, 66374, Note_on_c, 0, 53, 0
2, 66378, Note_on_c, 0, 72, 0
2, 66384, Note_on_c, 0, 65, 0
2, 66388, Note_on_c, 0, 71, 79
2, 66418, Note_on_c, 0, 71, 0
2, 66425, Note_on_c, 0, 72, 92
2, 66455, Note_on_c, 0, 72, 0
2, 66463, Note_on_c, 0, 73, 87
2, 66465, Note_on_c, 0, 65, 57
2, 66468, Note_on_c, 0, 53, 46
2, 66500, Note_on_c, 0, 73, 0
2, 66505, Note_on_c, 0, 75, 90
2, 66530, Note_on_c, 0, 75, 0
2, 66541, Note_on_c, 0, 65, 0
2, 66544, Note_on_c, 0, 53, 0
2, 66546, Note_on_c, 0, 76, 92
2, 66548, Note_on_c, 0, 61, 52
2, 66553, Note_on_c, 0, 58, 41
2, 66561, Control_c, 0, 64, 104
2, 66566, Control_c, 0, 64, 0
2, 66588, Note_on_c, 0, 76, 0
2, 66593, Note_on_c, 0, 77, 94
2, 66600, Control_c, 0, 64, 56
2, 66603, Control_c, 0, 64, 127
2, 66633, Note_on_c, 0, 61, 0
2, 66643, Note_on_c, 0, 77, 0
2, 66643, Note_on_c, 0, 82, 87
2, 66652, Note_on_c, 0, 65, 49
2, 66656, Note_on_c, 0, 58, 0
2, 66657, Note_on_c, 0, 53, 36
2, 66665, Note_on_c, 0, 65, 0
2, 66677, Note_on_c, 0, 53, 0
2, 66693, Note_on_c, 0, 82, 0
2, 66701, Note_on_c, 0, 81, 92
2, 66751, Note_on_c, 0, 81, 0
2, 66755, Note_on_c, 0, 80, 87
2, 66760, Control_c, 0, 64, 88
2, 66761, Note_on_c, 0, 29, 61
2, 66763, Control_c, 0, 64, 0
2, 66780, Control_c, 0, 64, 24
2, 66785, Control_c, 0, 64, 104
2, 66787, Note_on_c, 0, 29, 0
2, 66788, Control_c, 0, 64, 127
2, 66802, Note_on_c, 0, 80, 0
2, 66808, Note_on_c, 0, 79, 92
2, 66838, Note_on_c, 0, 79, 0
2, 66848, Note_on_c, 0, 78, 84
2, 66852, Note_on_c, 0, 65, 66
2, 66853, Note_on_c, 0, 53, 55
2, 66876, Note_on_c, 0, 78, 0
2, 66886, Note_on_c, 0, 77, 94
2, 66900, Note_on_c, 0, 53, 0
2, 66908, Note_on_c, 0, 65, 0
2, 66911, Note_on_c, 0, 77, 0
2, 66922, Note_on_c, 0, 63, 56
2, 66923, Note_on_c, 0, 76, 93
2, 66933, Note_on_c, 0, 57, 39
2, 66951, Note_on_c, 0, 76, 0
2, 66960, Note_on_c, 0, 75, 84
2, 66979, Note_on_c, 0, 63, 0
2, 66993, Note_on_c, 0, 75, 0
2, 66996, Note_on_c, 0, 57, 0
2, 66997, Note_on_c, 0, 72, 90
2, 67002, Note_on_c, 0, 65, 48
2, 67005, Note_on_c, 0, 53, 46
2, 67024, Note_on_c, 0, 72, 0
2, 67030, Note_on_c, 0, 73, 80
2, 67058, Note_on_c, 0, 73, 0
2, 67060, Note_on_c, 0, 70, 79
2, 67074, Note_on_c, 0, 65, 0
2, 67077, Note_on_c, 0, 70, 0
2, 67080, Note_on_c, 0, 72, 82
2, 67085, Note_on_c, 0, 61, 54
2, 67086, Note_on_c, 0, 53, 0
2, 67088, Control_c, 0, 64, 88
2, 67090, Note_on_c, 0, 58, 45
2, 67092, Note_on_c, 0, 70, 72
2, 67092, Control_c, 0, 64, 0
2, 67101, Note_on_c, 0, 72, 0
2, 67130, Control_c, 0, 64, 24
2, 67133, Control_c, 0, 64, 72
2, 67135, Note_on_c, 0, 70, 0
2, 67136, Note_on_c, 0, 69, 92
2, 67137, Control_c, 0, 64, 104
2, 67142, Control_c, 0, 64, 127
2, 67167, Note_on_c, 0, 61, 0
2, 67171, Control_c, 0, 64, 88
2, 67172, Note_on_c, 0, 69, 0
2, 67173, Note_on_c, 0, 70, 85
2, 67176, Control_c, 0, 64, 24
2, 67180, Note_on_c, 0, 58, 0
2, 67180, Control_c, 0, 64, 0
2, 67181, Note_on_c, 0, 53, 54
2, 67181, Note_on_c, 0, 65, 40
2, 67205, Control_c, 0, 64, 24
2, 67208, Control_c, 0, 64, 72
2, 67213, Control_c, 0, 64, 104
2, 67216, Note_on_c, 0, 70, 0
2, 67217, Note_on_c, 0, 72, 92
2, 67217, Control_c, 0, 64, 127
2, 67237, Note_on_c, 0, 72, 0
2, 67258, Control_c, 0, 64, 72
2, 67262, Note_on_c, 0, 73, 92
2, 67262, Note_on_c, 0, 61, 56
2, 67262, Control_c, 0, 64, 0
2, 67266, Note_on_c, 0, 53, 0
2, 67268, Note_on_c, 0, 58, 46
2, 67272, Note_on_c, 0, 65, 0
2, 67287, Control_c, 0, 64, 56
2, 67292, Control_c, 0, 64, 127
2, 67308, Note_on_c, 0, 85, 99
2, 67323, Note_on_c, 0, 73, 0
2, 67335, Note_on_c, 0, 61, 0
2, 67346, Note_on_c, 0, 85, 0
2, 67358, Note_on_c, 0, 53, 36
2, 67358, Note_on_c, 0, 84, 97
2, 67358, Note_on_c, 0, 66, 65
2, 67368, Note_on_c, 0, 58, 0
2, 67378, Control_c, 0, 64, 72
2, 67383, Control_c, 0, 64, 0
2, 67393, Note_on_c, 0, 84, 0
2, 67406, Note_on_c, 0, 82, 88
2, 67408, Control_c, 0, 64, 72
2, 67412, Control_c, 0, 64, 127
2, 67438, Note_on_c, 0, 53, 0
2, 67441, Note_on_c, 0, 82, 0
2, 67453, Note_on_c, 0, 84, 99
2, 67463, Note_on_c, 0, 66, 0
2, 67478, Note_on_c, 0, 84, 0
2, 67498, Note_on_c, 0, 82, 89
2, 67533, Note_on_c, 0, 82, 0
2, 67540, Note_on_c, 0, 80, 87
2, 67540, Note_on_c, 0, 53, 41
2, 67540, Note_on_c, 0, 66, 53
2, 67573, Note_on_c, 0, 80, 0
2, 67577, Note_on_c, 0, 78, 90
2, 67614, Note_on_c, 0, 78, 0
2, 67615, Note_on_c, 0, 53, 0
2, 67618, Note_on_c, 0, 66, 0
2, 67622, Note_on_c, 0, 61, 50
2, 67622, Note_on_c, 0, 80, 77
2, 67622, Note_on_c, 0, 58, 53
2, 67654, Note_on_c, 0, 80, 0
2, 67656, Note_on_c, 0, 78, 79
2, 67689, Note_on_c, 0, 78, 0
2, 67693, Note_on_c, 0, 58, 0
2, 67697, Note_on_c, 0, 61, 0
2, 67697, Note_on_c, 0, 73, 81
2, 67701, Note_on_c, 0, 66, 46
2, 67705, Note_on_c, 0, 53, 52
2, 67732, Note_on_c, 0, 73, 0
2, 67738, Note_on_c, 0, 75, 78
2, 67758, Note_on_c, 0, 75, 0
2, 67768, Note_on_c, 0, 66, 0
2, 67770, Note_on_c, 0, 53, 0
2, 67787, Note_on_c, 0, 77, 89
2, 67796, Note_on_c, 0, 60, 50
2, 67798, Note_on_c, 0, 57, 42
2, 67803, Control_c, 0, 64, 72
2, 67807, Control_c, 0, 64, 0
2, 67822, Note_on_c, 0, 77, 0
2, 67822, Note_on_c, 0, 78, 75
2, 67840, Control_c, 0, 64, 88
2, 67845, Control_c, 0, 64, 127
2, 67852, Note_on_c, 0, 78, 0
2, 67853, Note_on_c, 0, 77, 92
2, 67876, Note_on_c, 0, 60, 0
2, 67880, Note_on_c, 0, 77, 0
2, 67883, Note_on_c, 0, 57, 0
2, 67883, Note_on_c, 0, 76, 83
2, 67883, Note_on_c, 0, 65, 47
2, 67886, Note_on_c, 0, 53, 47
2, 67906, Note_on_c, 0, 76, 0
2, 67910, Note_on_c, 0, 77, 100
2, 67933, Note_on_c, 0, 77, 0
2, 67936, Note_on_c, 0, 78, 87
2, 67958, Note_on_c, 0, 53, 0
2, 67958, Note_on_c, 0, 65, 0
2, 67958, Note_on_c, 0, 61, 58
2, 67962, Note_on_c, 0, 77, 94
2, 67963, Note_on_c, 0, 58, 46
2, 67965, Control_c, 0, 64, 56
2, 67966, Note_on_c, 0, 78, 0
2, 67970, Control_c, 0, 64, 0
2, 67987, Note_on_c, 0, 77, 0
2, 67990, Note_on_c, 0, 78, 86
2, 67995, Control_c, 0, 64, 88
2, 67998, Control_c, 0, 64, 127
2, 68016, Note_on_c, 0, 78, 0
2, 68016, Note_on_c, 0, 77, 97
2, 68040, Note_on_c, 0, 61, 0
2, 68042, Note_on_c, 0, 77, 0
2, 68042, Note_on_c, 0, 76, 92
2, 68046, Note_on_c, 0, 65, 59
2, 68047, Note_on_c, 0, 53, 58
2, 68049, Note_on_c, 0, 58, 0
2, 68069, Note_on_c, 0, 76, 0
2, 68070, Note_on_c, 0, 77, 104
2, 68093, Note_on_c, 0, 77, 0
2, 68096, Note_on_c, 0, 78, 91
2, 68105, Note_on_c, 0, 53, 0
2, 68116, Note_on_c, 0, 65, 0
2, 68122, Note_on_c, 0, 78, 0
2, 68122, Note_on_c, 0, 77, 98
2, 68122, Note_on_c, 0, 62, 64
2, 68122, Control_c, 0, 64, 56
2, 68125, Note_on_c, 0, 59, 52
2, 68127, Control_c, 0, 64, 0
2, 68148, Note_on_c, 0, 77, 0
2, 68150, Note_on_c, 0, 78, 87
2, 68152, Control_c, 0, 64, 72
2, 68156, Control_c, 0, 64, 127
2, 68176, Note_on_c, 0, 77, 100
2, 68178, Note_on_c, 0, 78, 0
2, 68199, Note_on_c, 0, 62, 0
2, 68203, Note_on_c, 0, 77, 0
2, 68205, Note_on_c, 0, 76, 92
2, 68207, Note_on_c, 0, 59, 0
2, 68207, Note_on_c, 0, 65, 44
2, 68210, Note_on_c, 0, 53, 39
2, 68233, Note_on_c, 0, 76, 0
2, 68233, Note_on_c, 0, 77, 98
2, 68260, Note_on_c, 0, 77, 0
2, 68263, Note_on_c, 0, 78, 83
2, 68270, Note_on_c, 0, 53, 0
2, 68274, Note_on_c, 0, 65, 0
2, 68281, Control_c, 0, 64, 72
2, 68285, Control_c, 0, 64, 0
2, 68290, Note_on_c, 0, 63, 54
2, 68292, Note_on_c, 0, 60, 56
2, 68297, Note_on_c, 0, 77, 95
2, 68310, Control_c, 0, 64, 40
2, 68311, Note_on_c, 0, 78, 0
2, 68313, Control_c, 0, 64, 88
2, 68318, Control_c, 0, 64, 127
2, 68338, Note_on_c, 0, 77, 0
2, 68341, Note_on_c, 0, 75, 84
2, 68369, Note_on_c, 0, 75, 0
2, 68377, Note_on_c, 0, 63, 0
2, 68380, Note_on_c, 0, 73, 77
2, 68382, Note_on_c, 0, 60, 0
2, 68387, Note_on_c, 0, 65, 42
2, 68392, Note_on_c, 0, 53, 36
2, 68406, Note_on_c, 0, 73, 0
2, 68421, Note_on_c, 0, 72, 92
2, 68446, Note_on_c, 0, 72, 0
2, 68459, Note_on_c, 0, 53, 0
2, 68463, Note_on_c, 0, 71, 78
2, 68472, Note_on_c, 0, 65, 0
2, 68488, Note_on_c, 0, 71, 0
2, 68503, Note_on_c, 0, 72, 81
2, 68534, Note_on_c, 0, 72, 0
2, 68538, Control_c, 0, 64, 72
2, 68542, Control_c, 0, 64, 0
2, 68547, Note_on_c, 0, 73, 73
2, 68550, Note_on_c, 0, 65, 46
2, 68551, Note_on_c, 0, 53, 50
2, 68563, Control_c, 0, 64, 72
2, 68568, Control_c, 0, 64, 127
2, 68589, Note_on_c, 0, 73, 0
2, 68598, Note_on_c, 0, 75, 77
2, 68638, Note_on_c, 0, 75, 0
2, 68650, Note_on_c, 0, 76, 85
2, 68652, Note_on_c, 0, 61, 53
2, 68655, Note_on_c, 0, 65, 0
2, 68656, Note_on_c, 0, 58, 47
2, 68659, Note_on_c, 0, 53, 0
2, 68663, Control_c, 0, 64, 72
2, 68667, Control_c, 0, 64, 0
2, 68691, Note_on_c, 0, 76, 0
2, 68692, Control_c, 0, 64, 88
2, 68696, Control_c, 0, 64, 127
2, 68697, Note_on_c, 0, 77, 84
2, 68733, Note_on_c, 0, 61, 0
2, 68743, Note_on_c, 0, 77, 0
2, 68777, Note_on_c, 0, 82, 74
2, 68781, Note_on_c, 0, 58, 0
2, 68781, Note_on_c, 0, 65, 43
2, 68788, Note_on_c, 0, 53, 42
2, 68812, Control_c, 0, 64, 56
2, 68817, Control_c, 0, 64, 0
2, 68841, Control_c, 0, 64, 72
2, 68846, Note_on_c, 0, 65, 0
2, 68846, Control_c, 0, 64, 127
2, 68852, Note_on_c, 0, 82, 0
2, 68856, Note_on_c, 0, 53, 0
2, 68931, Note_on_c, 0, 81, 79
2, 68962, Control_c, 0, 64, 56
2, 68967, Control_c, 0, 64, 0
2, 68971, Note_on_c, 0, 29, 70
2, 68983, Control_c, 0, 64, 72
2, 68987, Control_c, 0, 64, 127
2, 68994, Note_on_c, 0, 29, 0
2, 68998, Note_on_c, 0, 81, 0
2, 69010, Note_on_c, 0, 80, 81
2, 69050, Note_on_c, 0, 80, 0
2, 69068, Note_on_c, 0, 79, 82
2, 69095, Note_on_c, 0, 79, 0
2, 69108, Note_on_c, 0, 78, 84
2, 69115, Note_on_c, 0, 53, 64
2, 69116, Note_on_c, 0, 65, 55
2, 69139, Note_on_c, 0, 78, 0
2, 69148, Note_on_c, 0, 77, 90
2, 69168, Note_on_c, 0, 53, 0
2, 69175, Note_on_c, 0, 77, 0
2, 69177, Note_on_c, 0, 65, 0
2, 69187, Note_on_c, 0, 76, 87
2, 69190, Note_on_c, 0, 63, 45
2, 69195, Note_on_c, 0, 57, 48
2, 69222, Note_on_c, 0, 76, 0
2, 69223, Note_on_c, 0, 75, 86
2, 69243, Note_on_c, 0, 63, 0
2, 69256, Note_on_c, 0, 75, 0
2, 69262, Note_on_c, 0, 57, 0
2, 69262, Note_on_c, 0, 72, 85
2, 69265, Note_on_c, 0, 65, 49
2, 69267, Note_on_c, 0, 53, 54
2, 69288, Note_on_c, 0, 72, 0
2, 69296, Note_on_c, 0, 73, 82
2, 69322, Note_on_c, 0, 73, 0
2, 69323, Note_on_c, 0, 70, 78
2, 69336, Note_on_c, 0, 65, 0
2, 69339, Note_on_c, 0, 70, 0
2, 69341, Note_on_c, 0, 72, 77
2, 69348, Note_on_c, 0, 58, 46
2, 69350, Note_on_c, 0, 61, 44
2, 69350, Control_c, 0, 64, 72
2, 69353, Control_c, 0, 64, 0
2, 69354, Note_on_c, 0, 53, 0
2, 69356, Note_on_c, 0, 70, 78
2, 69363, Note_on_c, 0, 72, 0
2, 69390, Control_c, 0, 64, 56
2, 69395, Control_c, 0, 64, 104
2, 69397, Note_on_c, 0, 70, 0
2, 69398, Note_on_c, 0, 69, 89
2, 69398, Control_c, 0, 64, 127
2, 69433, Note_on_c, 0, 69, 0
2, 69436, Control_c, 0, 64, 72
2, 69437, Note_on_c, 0, 61, 0
2, 69441, Control_c, 0, 64, 0
2, 69442, Note_on_c, 0, 70, 79
2, 69446, Note_on_c, 0, 65, 52
2, 69450, Note_on_c, 0, 53, 49
2, 69453, Note_on_c, 0, 58, 0
2, 69459, Note_on_c, 0, 65, 0
2, 69466, Control_c, 0, 64, 56
2, 69470, Control_c, 0, 64, 104
2, 69473, Note_on_c, 0, 53, 0
2, 69473, Control_c, 0, 64, 127
2, 69482, Note_on_c, 0, 70, 0
2, 69486, Note_on_c, 0, 73, 80
2, 69521, Note_on_c, 0, 73, 0
2, 69523, Control_c, 0, 64, 88
2, 69527, Control_c, 0, 64, 0
2, 69537, Note_on_c, 0, 72, 86
2, 69541, Note_on_c, 0, 41, 62
2, 69573, Note_on_c, 0, 72, 0
2, 69577, Control_c, 0, 64, 56
2, 69578, Note_on_c, 0, 70, 80
2, 69581, Note_on_c, 0, 41, 0
2, 69582, Control_c, 0, 64, 88
2, 69586, Control_c, 0, 64, 127
2, 69610, Note_on_c, 0, 70, 0
2, 69615, Control_c, 0, 64, 88
2, 69618, Note_on_c, 0, 68, 78
2, 69618, Control_c, 0, 64, 24
2, 69623, Control_c, 0, 64, 0
2, 69626, Note_on_c, 0, 60, 65
2, 69630, Note_on_c, 0, 48, 62
2, 69645, Control_c, 0, 64, 40
2, 69646, Note_on_c, 0, 68, 0
2, 69648, Control_c, 0, 64, 72
2, 69652, Control_c, 0, 64, 88
2, 69657, Note_on_c, 0, 67, 79
2, 69665, Control_c, 0, 64, 56
2, 69668, Control_c, 0, 64, 24
2, 69672, Control_c, 0, 64, 0
2, 69677, Control_c, 0, 64, 24
2, 69681, Control_c, 0, 64, 40
2, 69684, Note_on_c, 0, 67, 0
2, 69686, Control_c, 0, 64, 56
2, 69690, Control_c, 0, 64, 72
2, 69693, Control_c, 0, 64, 88
2, 69697, Note_on_c, 0, 66, 78
2, 69698, Control_c, 0, 64, 104
2, 69706, Control_c, 0, 64, 127
2, 69708, Note_on_c, 0, 48, 0
2, 69724, Note_on_c, 0, 60, 0
2, 69728, Note_on_c, 0, 66, 0
2, 69738, Note_on_c, 0, 67, 78
2, 69743, Control_c, 0, 64, 72
2, 69748, Control_c, 0, 64, 24
2, 69752, Control_c, 0, 64, 0
2, 69768, Note_on_c, 0, 67, 0
2, 69771, Note_on_c, 0, 60, 62
2, 69773, Control_c, 0, 64, 40
2, 69776, Note_on_c, 0, 48, 56
2, 69776, Note_on_c, 0, 68, 73
2, 69777, Control_c, 0, 64, 72
2, 69781, Control_c, 0, 64, 88
2, 69785, Control_c, 0, 64, 104
2, 69797, Control_c, 0, 64, 127
2, 69809, Note_on_c, 0, 68, 0
2, 69817, Note_on_c, 0, 70, 74
2, 69845, Note_on_c, 0, 70, 0
2, 69856, Control_c, 0, 64, 88
2, 69860, Control_c, 0, 64, 40
2, 69862, Note_on_c, 0, 48, 0
2, 69862, Note_on_c, 0, 71, 78
2, 69864, Note_on_c, 0, 60, 0
2, 69865, Note_on_c, 0, 56, 51
2, 69865, Control_c, 0, 64, 0
2, 69867, Note_on_c, 0, 53, 53
2, 69889, Note_on_c, 0, 71, 0
2, 69893, Control_c, 0, 64, 40
2, 69897, Control_c, 0, 64, 88
2, 69898, Note_on_c, 0, 72, 79
2, 69901, Control_c, 0, 64, 104
2, 69906, Control_c, 0, 64, 127
2, 69931, Note_on_c, 0, 72, 0
2, 69934, Note_on_c, 0, 53, 0
2, 69942, Note_on_c, 0, 77, 83
2, 69945, Note_on_c, 0, 56, 0
2, 69946, Note_on_c, 0, 48, 53
2, 69956, Note_on_c, 0, 48, 0
2, 69969, Note_on_c, 0, 77, 0
2, 69981, Note_on_c, 0, 73, 77
2, 70001, Control_c, 0, 64, 104
2, 70005, Control_c, 0, 64, 72
2, 70010, Control_c, 0, 64, 24
2, 70013, Control_c, 0, 64, 0
2, 70019, Note_on_c, 0, 73, 0
2, 70025, Note_on_c, 0, 72, 81
2, 70030, Note_on_c, 0, 39, 73
2, 70047, Control_c, 0, 64, 56
2, 70051, Control_c, 0, 64, 104
2, 70056, Note_on_c, 0, 72, 0
2, 70056, Control_c, 0, 64, 127
2, 70063, Note_on_c, 0, 39, 0
2, 70067, Note_on_c, 0, 70, 77
2, 70095, Note_on_c, 0, 70, 0
2, 70110, Control_c, 0, 64, 104
2, 70112, Note_on_c, 0, 68, 73
2, 70113, Note_on_c, 0, 60, 63
2, 70113, Control_c, 0, 64, 72
2, 70116, Note_on_c, 0, 48, 65
2, 70117, Control_c, 0, 64, 40
2, 70131, Control_c, 0, 64, 88
2, 70135, Control_c, 0, 64, 104
2, 70138, Control_c, 0, 64, 127
2, 70140, Note_on_c, 0, 68, 0
2, 70143, Note_on_c, 0, 60, 0
2, 70146, Note_on_c, 0, 48, 0
2, 70155, Note_on_c, 0, 67, 77
2, 70177, Note_on_c, 0, 67, 0
2, 70190, Note_on_c, 0, 66, 73
2, 70208, Note_on_c, 0, 66, 0
2, 70226, Note_on_c, 0, 67, 74
2, 70247, Note_on_c, 0, 67, 0
2, 70263, Note_on_c, 0, 72, 78
2, 70267, Note_on_c, 0, 60, 43
2, 70271, Note_on_c, 0, 48, 58
2, 70275, Note_on_c, 0, 60, 0
2, 70279, Note_on_c, 0, 48, 0
2, 70283, Note_on_c, 0, 72, 0
2, 70300, Note_on_c, 0, 71, 78
2, 70315, Note_on_c, 0, 71, 0
2, 70317, Control_c, 0, 64, 88
2, 70321, Control_c, 0, 64, 40
2, 70326, Control_c, 0, 64, 0
2, 70337, Note_on_c, 0, 70, 77
2, 70343, Note_on_c, 0, 37, 63
2, 70368, Note_on_c, 0, 70, 0
2, 70374, Note_on_c, 0, 37, 0
2, 70376, Note_on_c, 0, 68, 76
2, 70396, Control_c, 0, 64, 24
2, 70400, Control_c, 0, 64, 72
2, 70405, Control_c, 0, 64, 104
2, 70408, Note_on_c, 0, 68, 0
2, 70410, Control_c, 0, 64, 127
2, 70415, Note_on_c, 0, 67, 77
2, 70422, Note_on_c, 0, 60, 65
2, 70428, Note_on_c, 0, 48, 61
2, 70435, Note_on_c, 0, 60, 0
2, 70444, Note_on_c, 0, 48, 0
2, 70445, Note_on_c, 0, 67, 0
2, 70453, Note_on_c, 0, 65, 75
2, 70471, Note_on_c, 0, 65, 0
2, 70492, Control_c, 0, 64, 104
2, 70496, Control_c, 0, 64, 24
2, 70497, Note_on_c, 0, 64, 76
2, 70500, Control_c, 0, 64, 0
2, 70511, Note_on_c, 0, 36, 61
2, 70533, Note_on_c, 0, 36, 0
2, 70533, Control_c, 0, 64, 40
2, 70537, Control_c, 0, 64, 88
2, 70542, Note_on_c, 0, 72, 80
2, 70542, Control_c, 0, 64, 127
2, 70549, Note_on_c, 0, 64, 0
2, 70567, Note_on_c, 0, 72, 0
2, 70581, Note_on_c, 0, 70, 74
2, 70582, Note_on_c, 0, 60, 59
2, 70590, Note_on_c, 0, 48, 62
2, 70609, Note_on_c, 0, 60, 0
2, 70611, Note_on_c, 0, 70, 0
2, 70617, Note_on_c, 0, 68, 74
2, 70637, Note_on_c, 0, 48, 0
2, 70644, Note_on_c, 0, 68, 0
2, 70656, Note_on_c, 0, 66, 70
2, 70684, Note_on_c, 0, 66, 0
2, 70695, Note_on_c, 0, 67, 72
2, 70703, Control_c, 0, 64, 88
2, 70707, Control_c, 0, 64, 40
2, 70712, Control_c, 0, 64, 0
2, 70722, Note_on_c, 0, 67, 0
2, 70728, Note_on_c, 0, 60, 55
2, 70730, Note_on_c, 0, 68, 72
2, 70731, Note_on_c, 0, 48, 61
2, 70757, Control_c, 0, 64, 24
2, 70762, Control_c, 0, 64, 56
2, 70765, Note_on_c, 0, 68, 0
2, 70766, Control_c, 0, 64, 72
2, 70770, Control_c, 0, 64, 88
2, 70771, Note_on_c, 0, 70, 73
2, 70775, Control_c, 0, 64, 104
2, 70791, Control_c, 0, 64, 127
2, 70797, Note_on_c, 0, 70, 0
2, 70811, Control_c, 0, 64, 104
2, 70813, Note_on_c, 0, 56, 54
2, 70815, Note_on_c, 0, 60, 0
2, 70815, Note_on_c, 0, 71, 71
2, 70816, Control_c, 0, 64, 88
2, 70817, Note_on_c, 0, 48, 0
2, 70821, Control_c, 0, 64, 56
2, 70825, Note_on_c, 0, 53, 57
2, 70825, Control_c, 0, 64, 0
2, 70842, Note_on_c, 0, 71, 0
2, 70853, Note_on_c, 0, 72, 77
2, 70870, Control_c, 0, 64, 56
2, 70873, Control_c, 0, 64, 88
2, 70878, Control_c, 0, 64, 127
2, 70883, Note_on_c, 0, 72, 0
2, 70896, Note_on_c, 0, 53, 0
2, 70897, Note_on_c, 0, 77, 80
2, 70898, Note_on_c, 0, 56, 0
2, 70902, Note_on_c, 0, 48, 55
2, 70912, Note_on_c, 0, 48, 0
2, 70922, Note_on_c, 0, 77, 0
2, 70933, Note_on_c, 0, 73, 77
2, 70970, Note_on_c, 0, 73, 0
2, 70970, Control_c, 0, 64, 88
2, 70973, Control_c, 0, 64, 24
2, 70978, Note_on_c, 0, 72, 78
2, 70978, Control_c, 0, 64, 0
2, 70982, Note_on_c, 0, 39, 78
2, 71007, Control_c, 0, 64, 56
2, 71008, Note_on_c, 0, 72, 0
2, 71011, Control_c, 0, 64, 104
2, 71014, Note_on_c, 0, 39, 0
2, 71015, Control_c, 0, 64, 127
2, 71022, Note_on_c, 0, 70, 72
2, 71049, Note_on_c, 0, 70, 0
2, 71065, Note_on_c, 0, 68, 72
2, 71065, Note_on_c, 0, 60, 63
2, 71070, Note_on_c, 0, 48, 61
2, 71070, Control_c, 0, 64, 104
2, 71073, Control_c, 0, 64, 24
2, 71077, Control_c, 0, 64, 0
2, 71095, Note_on_c, 0, 68, 0
2, 71106, Note_on_c, 0, 67, 75
2, 71106, Control_c, 0, 64, 24
2, 71111, Control_c, 0, 64, 56
2, 71116, Control_c, 0, 64, 88
2, 71128, Note_on_c, 0, 48, 0
2, 71132, Note_on_c, 0, 67, 0
2, 71132, Control_c, 0, 64, 0
2, 71142, Note_on_c, 0, 66, 73
2, 71157, Note_on_c, 0, 60, 0
2, 71165, Control_c, 0, 64, 72
2, 71170, Note_on_c, 0, 66, 0
2, 71170, Control_c, 0, 64, 127
2, 71178, Note_on_c, 0, 67, 76
2, 71200, Note_on_c, 0, 67, 0
2, 71216, Note_on_c, 0, 48, 62
2, 71217, Note_on_c, 0, 72, 75
2, 71218, Note_on_c, 0, 60, 45
2, 71224, Note_on_c, 0, 60, 0
2, 71232, Note_on_c, 0, 48, 0
2, 71239, Note_on_c, 0, 72, 0
2, 71256, Note_on_c, 0, 71, 74
2, 71273, Note_on_c, 0, 71, 0
2, 71290, Control_c, 0, 64, 40
2, 71293, Note_on_c, 0, 37, 61
2, 71293, Control_c, 0, 64, 0
2, 71295, Note_on_c, 0, 70, 72
2, 71323, Note_on_c, 0, 70, 0
2, 71323, Note_on_c, 0, 37, 0
2, 71323, Control_c, 0, 64, 40
2, 71327, Control_c, 0, 64, 104
2, 71331, Control_c, 0, 64, 127
2, 71335, Note_on_c, 0, 68, 73
2, 71363, Note_on_c, 0, 68, 0
2, 71375, Note_on_c, 0, 67, 71
2, 71400, Note_on_c, 0, 67, 0
2, 71411, Note_on_c, 0, 65, 70
2, 71428, Note_on_c, 0, 65, 0
2, 71455, Note_on_c, 0, 64, 70
2, 71460, Control_c, 0, 64, 104
2, 71465, Control_c, 0, 64, 40
2, 71467, Note_on_c, 0, 36, 67
2, 71468, Control_c, 0, 64, 0
2, 71487, Note_on_c, 0, 64, 0
2, 71488, Note_on_c, 0, 36, 0
2, 71493, Control_c, 0, 64, 72
2, 71497, Control_c, 0, 64, 127
2, 71500, Note_on_c, 0, 72, 72
2, 71525, Note_on_c, 0, 72, 0
2, 71541, Note_on_c, 0, 70, 71
2, 71542, Note_on_c, 0, 60, 59
2, 71545, Note_on_c, 0, 48, 59
2, 71568, Note_on_c, 0, 60, 0
2, 71571, Note_on_c, 0, 70, 0
2, 71572, Note_on_c, 0, 48, 0
2, 71577, Note_on_c, 0, 68, 70
2, 71603, Note_on_c, 0, 68, 0
2, 71617, Note_on_c, 0, 66, 66
2, 71645, Note_on_c, 0, 66, 0
2, 71656, Note_on_c, 0, 67, 68
2, 71660, Control_c, 0, 64, 72
2, 71663, Control_c, 0, 64, 0
2, 71679, Note_on_c, 0, 67, 0
2, 71682, Note_on_c, 0, 60, 54
2, 71687, Note_on_c, 0, 48, 57
2, 71692, Note_on_c, 0, 68, 69
2, 71701, Control_c, 0, 64, 24
2, 71705, Control_c, 0, 64, 56
2, 71708, Control_c, 0, 64, 88
2, 71713, Control_c, 0, 64, 104
2, 71718, Control_c, 0, 64, 127
2, 71724, Note_on_c, 0, 68, 0
2, 71735, Note_on_c, 0, 70, 68
2, 71753, Note_on_c, 0, 70, 0
2, 71778, Control_c, 0, 64, 104
2, 71780, Note_on_c, 0, 48, 0
2, 71781, Note_on_c, 0, 53, 67
2, 71781, Note_on_c, 0, 56, 70
2, 71783, Control_c, 0, 64, 72
2, 71785, Note_on_c, 0, 71, 65
2, 71788, Note_on_c, 0, 60, 0
2, 71788, Control_c, 0, 64, 24
2, 71792, Control_c, 0, 64, 0
2, 71801, Note_on_c, 0, 71, 0
2, 71822, Note_on_c, 0, 72, 70
2, 71830, Control_c, 0, 64, 24
2, 71835, Control_c, 0, 64, 56
2, 71838, Control_c, 0, 64, 72
2, 71848, Note_on_c, 0, 72, 0
2, 71858, Note_on_c, 0, 75, 73
2, 71862, Note_on_c, 0, 53, 0
2, 71863, Note_on_c, 0, 60, 52
2, 71863, Control_c, 0, 64, 88
2, 71870, Note_on_c, 0, 48, 38
2, 71877, Note_on_c, 0, 56, 0
2, 71896, Note_on_c, 0, 75, 0
2, 71896, Note_on_c, 0, 73, 71
2, 71930, Control_c, 0, 64, 56
2, 71933, Control_c, 0, 64, 40
2, 71934, Note_on_c, 0, 73, 0
2, 71938, Control_c, 0, 64, 24
2, 71941, Note_on_c, 0, 72, 74
2, 71942, Note_on_c, 0, 55, 73
2, 71942, Control_c, 0, 64, 0
2, 71945, Note_on_c, 0, 60, 0
2, 71945, Note_on_c, 0, 48, 0
2, 71947, Note_on_c, 0, 52, 65
2, 71973, Note_on_c, 0, 72, 0
2, 71983, Note_on_c, 0, 70, 68
2, 72015, Note_on_c, 0, 70, 0
2, 72025, Note_on_c, 0, 68, 65
2, 72030, Note_on_c, 0, 60, 61
2, 72030, Control_c, 0, 64, 40
2, 72033, Control_c, 0, 64, 56
2, 72037, Note_on_c, 0, 48, 49
2, 72050, Control_c, 0, 64, 72
2, 72056, Note_on_c, 0, 68, 0
2, 72062, Control_c, 0, 64, 56
2, 72067, Note_on_c, 0, 67, 65
2, 72067, Control_c, 0, 64, 40
2, 72075, Control_c, 0, 64, 24
2, 72078, Control_c, 0, 64, 0
2, 72094, Note_on_c, 0, 67, 0
2, 72097, Note_on_c, 0, 48, 0
2, 72106, Note_on_c, 0, 66, 63
2, 72118, Note_on_c, 0, 60, 0
2, 72134, Note_on_c, 0, 66, 0
2, 72143, Note_on_c, 0, 67, 76
2, 72170, Note_on_c, 0, 55, 0
2, 72175, Note_on_c, 0, 67, 0
2, 72176, Note_on_c, 0, 60, 50
2, 72181, Note_on_c, 0, 68, 66
2, 72187, Note_on_c, 0, 48, 36
2, 72197, Note_on_c, 0, 52, 0
2, 72220, Note_on_c, 0, 70, 71
2, 72223, Note_on_c, 0, 68, 0
2, 72252, Note_on_c, 0, 70, 0
2, 72261, Note_on_c, 0, 71, 74
2, 72262, Note_on_c, 0, 53, 57
2, 72264, Note_on_c, 0, 48, 0
2, 72267, Note_on_c, 0, 49, 50
2, 72275, Control_c, 0, 64, 24
2, 72278, Control_c, 0, 64, 40
2, 72282, Control_c, 0, 64, 56
2, 72284, Note_on_c, 0, 60, 0
2, 72292, Note_on_c, 0, 71, 0
2, 72297, Note_on_c, 0, 72, 72
2, 72312, Control_c, 0, 64, 40
2, 72316, Control_c, 0, 64, 24
2, 72321, Control_c, 0, 64, 0
2, 72329, Note_on_c, 0, 72, 0
2, 72332, Note_on_c, 0, 53, 0
2, 72333, Note_on_c, 0, 49, 0
2, 72333, Note_on_c, 0, 73, 72
2, 72338, Note_on_c, 0, 48, 70
2, 72342, Note_on_c, 0, 60, 46
2, 72350, Control_c, 0, 64, 24
2, 72353, Control_c, 0, 64, 40
2, 72366, Control_c, 0, 64, 56
2, 72369, Note_on_c, 0, 73, 0
2, 72376, Note_on_c, 0, 71, 72
2, 72408, Control_c, 0, 64, 24
2, 72412, Control_c, 0, 64, 0
2, 72413, Note_on_c, 0, 71, 0
2, 72416, Note_on_c, 0, 48, 0
2, 72416, Note_on_c, 0, 52, 58
2, 72420, Note_on_c, 0, 72, 75
2, 72445, Note_on_c, 0, 72, 0
2, 72453, Control_c, 0, 64, 40
2, 72457, Note_on_c, 0, 70, 70
2, 72460, Note_on_c, 0, 60, 0
2, 72461, Control_c, 0, 64, 56
2, 72482, Control_c, 0, 64, 40
2, 72486, Control_c, 0, 64, 24
2, 72489, Note_on_c, 0, 70, 0
2, 72491, Control_c, 0, 64, 0
2, 72496, Note_on_c, 0, 68, 67
2, 72503, Note_on_c, 0, 48, 62
2, 72504, Note_on_c, 0, 52, 0
2, 72505, Note_on_c, 0, 60, 38
2, 72516, Control_c, 0, 64, 24
2, 72520, Control_c, 0, 64, 40
2, 72523, Control_c, 0, 64, 56
2, 72527, Control_c, 0, 64, 72
2, 72531, Note_on_c, 0, 68, 0
2, 72536, Control_c, 0, 64, 88
2, 72537, Note_on_c, 0, 67, 66
2, 72545, Control_c, 0, 64, 104
2, 72565, Control_c, 0, 64, 127
2, 72569, Note_on_c, 0, 67, 0
2, 72577, Note_on_c, 0, 66, 62
2, 72605, Note_on_c, 0, 66, 0
2, 72606, Note_on_c, 0, 48, 0
2, 72617, Note_on_c, 0, 67, 64
2, 72618, Note_on_c, 0, 60, 0
2, 72627, Control_c, 0, 64, 88
2, 72632, Control_c, 0, 64, 56
2, 72636, Control_c, 0, 64, 24
2, 72640, Control_c, 0, 64, 0
2, 72644, Note_on_c, 0, 67, 0
2, 72653, Note_on_c, 0, 68, 65
2, 72657, Note_on_c, 0, 60, 51
2, 72662, Note_on_c, 0, 48, 56
2, 72670, Control_c, 0, 64, 24
2, 72673, Control_c, 0, 64, 40
2, 72677, Control_c, 0, 64, 56
2, 72681, Control_c, 0, 64, 72
2, 72693, Note_on_c, 0, 68, 0
2, 72698, Note_on_c, 0, 70, 63
2, 72715, Control_c, 0, 64, 88
2, 72726, Note_on_c, 0, 70, 0
2, 72727, Control_c, 0, 64, 104
2, 72747, Note_on_c, 0, 56, 71
2, 72753, Note_on_c, 0, 71, 65
2, 72756, Control_c, 0, 64, 72
2, 72757, Note_on_c, 0, 53, 47
2, 72760, Note_on_c, 0, 60, 0
2, 72761, Control_c, 0, 64, 40
2, 72762, Note_on_c, 0, 48, 0
2, 72765, Control_c, 0, 64, 0
2, 72776, Note_on_c, 0, 71, 0
2, 72790, Control_c, 0, 64, 24
2, 72795, Note_on_c, 0, 72, 69
2, 72795, Control_c, 0, 64, 56
2, 72798, Control_c, 0, 64, 88
2, 72802, Control_c, 0, 64, 127
2, 72822, Note_on_c, 0, 72, 0
2, 72833, Note_on_c, 0, 56, 0
2, 72834, Note_on_c, 0, 53, 0
2, 72836, Note_on_c, 0, 60, 53
2, 72841, Note_on_c, 0, 75, 68
2, 72842, Note_on_c, 0, 48, 45
2, 72869, Note_on_c, 0, 75, 0
2, 72873, Note_on_c, 0, 73, 65
2, 72910, Note_on_c, 0, 73, 0
2, 72917, Note_on_c, 0, 55, 71
2, 72918, Note_on_c, 0, 72, 67
2, 72918, Control_c, 0, 64, 104
2, 72921, Note_on_c, 0, 60, 0
2, 72921, Note_on_c, 0, 51, 59
2, 72922, Note_on_c, 0, 48, 0
2, 72923, Control_c, 0, 64, 88
2, 72927, Control_c, 0, 64, 56
2, 72931, Control_c, 0, 64, 0
2, 72949, Note_on_c, 0, 72, 0
2, 72960, Note_on_c, 0, 70, 63
2, 72965, Control_c, 0, 64, 24
2, 72968, Control_c, 0, 64, 56
2, 72972, Control_c, 0, 64, 88
2, 72977, Control_c, 0, 64, 104
2, 72988, Note_on_c, 0, 70, 0
2, 72993, Control_c, 0, 64, 56
2, 72998, Control_c, 0, 64, 0
2, 72999, Note_on_c, 0, 55, 0
2, 73001, Note_on_c, 0, 68, 61
2, 73003, Note_on_c, 0, 60, 57
2, 73012, Note_on_c, 0, 48, 46
2, 73017, Control_c, 0, 64, 24
2, 73022, Control_c, 0, 64, 56
2, 73027, Control_c, 0, 64, 88
2, 73031, Control_c, 0, 64, 104
2, 73032, Note_on_c, 0, 68, 0
2, 73035, Control_c, 0, 64, 127
2, 73045, Note_on_c, 0, 67, 60
2, 73068, Note_on_c, 0, 67, 0
2, 73075, Note_on_c, 0, 48, 0
2, 73081, Note_on_c, 0, 66, 59
2, 73089, Note_on_c, 0, 60, 0
2, 73103, Note_on_c, 0, 66, 0
2, 73122, Note_on_c, 0, 67, 62
2, 73143, Control_c, 0, 64, 88
2, 73144, Note_on_c, 0, 67, 0
2, 73147, Control_c, 0, 64, 56
2, 73151, Control_c, 0, 64, 24
2, 73156, Control_c, 0, 64, 0
2, 73158, Note_on_c, 0, 51, 0
2, 73158, Note_on_c, 0, 68, 66
2, 73160, Note_on_c, 0, 60, 49
2, 73167, Note_on_c, 0, 48, 50
2, 73180, Control_c, 0, 64, 24
2, 73185, Control_c, 0, 64, 72
2, 73190, Control_c, 0, 64, 88
2, 73191, Note_on_c, 0, 68, 0
2, 73193, Control_c, 0, 64, 104
2, 73196, Note_on_c, 0, 70, 66
2, 73197, Control_c, 0, 64, 127
2, 73218, Note_on_c, 0, 70, 0
2, 73242, Note_on_c, 0, 71, 65
2, 73245, Note_on_c, 0, 53, 66
2, 73247, Control_c, 0, 64, 88
2, 73251, Control_c, 0, 64, 56
2, 73255, Control_c, 0, 64, 0
2, 73257, Note_on_c, 0, 48, 0
2, 73257, Note_on_c, 0, 60, 0
2, 73260, Note_on_c, 0, 49, 33
2, 73269, Note_on_c, 0, 71, 0
2, 73277, Control_c, 0, 64, 24
2, 73281, Note_on_c, 0, 72, 69
2, 73281, Control_c, 0, 64, 56
2, 73285, Control_c, 0, 64, 88
2, 73288, Control_c, 0, 64, 127
2, 73311, Note_on_c, 0, 72, 0
2, 73320, Note_on_c, 0, 53, 0
2, 73322, Note_on_c, 0, 49, 0
2, 73325, Note_on_c, 0, 73, 64
2, 73330, Note_on_c, 0, 60, 51
2, 73330, Note_on_c, 0, 48, 59
2, 73356, Note_on_c, 0, 73, 0
2, 73365, Note_on_c, 0, 71, 68
2, 73395, Note_on_c, 0, 71, 0
2, 73408, Control_c, 0, 64, 104
2, 73413, Control_c, 0, 64, 88
2, 73417, Note_on_c, 0, 72, 66
2, 73417, Note_on_c, 0, 52, 66
2, 73417, Control_c, 0, 64, 56
2, 73422, Control_c, 0, 64, 0
2, 73442, Note_on_c, 0, 60, 0
2, 73443, Note_on_c, 0, 72, 0
2, 73455, Control_c, 0, 64, 24
2, 73456, Note_on_c, 0, 70, 71
2, 73458, Control_c, 0, 64, 40
2, 73463, Control_c, 0, 64, 72
2, 73467, Control_c, 0, 64, 88
2, 73472, Note_on_c, 0, 48, 0
2, 73485, Control_c, 0, 64, 104
2, 73488, Note_on_c, 0, 70, 0
2, 73497, Note_on_c, 0, 68, 65
2, 73497, Control_c, 0, 64, 127
2, 73513, Note_on_c, 0, 52, 0
2, 73528, Note_on_c, 0, 68, 0
2, 73538, Note_on_c, 0, 67, 75
2, 73565, Note_on_c, 0, 67, 0
2, 73572, Control_c, 0, 64, 104
2, 73576, Control_c, 0, 64, 56
2, 73580, Note_on_c, 0, 66, 72
2, 73580, Control_c, 0, 64, 0
2, 73581, Note_on_c, 0, 54, 69
2, 73612, Note_on_c, 0, 66, 0
2, 73614, Note_on_c, 0, 54, 0
2, 73622, Note_on_c, 0, 67, 69
2, 73622, Note_on_c, 0, 55, 57
2, 73648, Note_on_c, 0, 67, 0
2, 73652, Note_on_c, 0, 55, 0
2, 73660, Note_on_c, 0, 68, 65
2, 73661, Note_on_c, 0, 56, 59
2, 73688, Note_on_c, 0, 68, 0
2, 73693, Note_on_c, 0, 56, 0
2, 73696, Note_on_c, 0, 70, 70
2, 73697, Note_on_c, 0, 58, 49
2, 73731, Note_on_c, 0, 70, 0
2, 73733, Note_on_c, 0, 68, 71
2, 73734, Note_on_c, 0, 58, 0
2, 73735, Note_on_c, 0, 56, 60
2, 73769, Note_on_c, 0, 68, 0
2, 73771, Note_on_c, 0, 56, 0
2, 73771, Note_on_c, 0, 67, 76
2, 73771, Note_on_c, 0, 55, 67
2, 73799, Note_on_c, 0, 67, 0
2, 73807, Note_on_c, 0, 65, 70
2, 73807, Note_on_c, 0, 53, 48
2, 73813, Note_on_c, 0, 55, 0
2, 73834, Note_on_c, 0, 53, 0
2, 73838, Note_on_c, 0, 65, 0
2, 73851, Note_on_c, 0, 64, 81
2, 73851, Note_on_c, 0, 52, 69
2, 73882, Note_on_c, 0, 52, 0
2, 73883, Note_on_c, 0, 64, 0
2, 73891, Note_on_c, 0, 51, 64
2, 73891, Note_on_c, 0, 63, 79
2, 73921, Note_on_c, 0, 63, 0
2, 73931, Note_on_c, 0, 64, 81
2, 73931, Note_on_c, 0, 52, 69
2, 73933, Note_on_c, 0, 51, 0
2, 73962, Note_on_c, 0, 64, 0
2, 73964, Note_on_c, 0, 52, 0
2, 73971, Note_on_c, 0, 65, 76
2, 73971, Note_on_c, 0, 53, 76
2, 73997, Note_on_c, 0, 53, 0
2, 74004, Note_on_c, 0, 65, 0
2, 74011, Note_on_c, 0, 67, 80
2, 74011, Note_on_c, 0, 55, 63
2, 74041, Note_on_c, 0, 67, 0
2, 74047, Note_on_c, 0, 61, 74
2, 74051, Note_on_c, 0, 49, 67
2, 74054, Note_on_c, 0, 55, 0
2, 74082, Note_on_c, 0, 49, 0
2, 74084, Note_on_c, 0, 61, 0
2, 74087, Note_on_c, 0, 67, 81
2, 74092, Note_on_c, 0, 55, 72
2, 74118, Note_on_c, 0, 67, 0
2, 74120, Note_on_c, 0, 55, 0
2, 74128, Note_on_c, 0, 60, 84
2, 74128, Note_on_c, 0, 48, 82
2, 74158, Note_on_c, 0, 48, 0
2, 74164, Note_on_c, 0, 60, 0
2, 74167, Note_on_c, 0, 67, 84
2, 74167, Note_on_c, 0, 55, 73
2, 74193, Note_on_c, 0, 55, 0
2, 74199, Note_on_c, 0, 67, 0
2, 74206, Note_on_c, 0, 59, 80
2, 74211, Note_on_c, 0, 47, 77
2, 74242, Note_on_c, 0, 47, 0
2, 74243, Note_on_c, 0, 59, 0
2, 74246, Note_on_c, 0, 60, 85
2, 74247, Note_on_c, 0, 48, 80
2, 74273, Note_on_c, 0, 60, 0
2, 74278, Note_on_c, 0, 48, 0
2, 74283, Note_on_c, 0, 61, 79
2, 74286, Note_on_c, 0, 49, 75
2, 74311, Note_on_c, 0, 61, 0
2, 74317, Note_on_c, 0, 49, 0
2, 74320, Note_on_c, 0, 63, 71
2, 74322, Note_on_c, 0, 51, 70
2, 74349, Note_on_c, 0, 51, 0
2, 74357, Note_on_c, 0, 61, 80
2, 74360, Note_on_c, 0, 49, 81
2, 74372, Note_on_c, 0, 63, 0
2, 74390, Note_on_c, 0, 49, 0
2, 74393, Note_on_c, 0, 61, 0
2, 74393, Note_on_c, 0, 60, 92
2, 74396, Note_on_c, 0, 48, 89
2, 74431, Note_on_c, 0, 58, 74
2, 74433, Note_on_c, 0, 48, 0
2, 74437, Note_on_c, 0, 46, 77
2, 74443, Note_on_c, 0, 60, 0
2, 74467, Note_on_c, 0, 58, 0
2, 74472, Note_on_c, 0, 46, 0
2, 74472, Note_on_c, 0, 56, 87
2, 74473, Note_on_c, 0, 44, 77
2, 74508, Note_on_c, 0, 56, 0
2, 74513, Note_on_c, 0, 55, 97
2, 74517, Note_on_c, 0, 43, 80
2, 74545, Note_on_c, 0, 55, 0
2, 74549, Note_on_c, 0, 44, 0
2, 74550, Note_on_c, 0, 43, 0
2, 74551, Note_on_c, 0, 60, 92
2, 74553, Note_on_c, 0, 48, 89
2, 74583, Note_on_c, 0, 60, 0
2, 74590, Note_on_c, 0, 58, 79
2, 74593, Note_on_c, 0, 46, 88
2, 74595, Note_on_c, 0, 48, 0
2, 74627, Note_on_c, 0, 58, 0
2, 74628, Note_on_c, 0, 54, 89
2, 74631, Note_on_c, 0, 42, 85
2, 74635, Note_on_c, 0, 46, 0
2, 74648, Control_c, 0, 64, 24
2, 74664, Note_on_c, 0, 54, 0
2, 74665, Control_c, 0, 64, 0
2, 74671, Note_on_c, 0, 53, 94
2, 74675, Note_on_c, 0, 41, 90
2, 74681, Note_on_c, 0, 42, 0
2, 74693, Control_c, 0, 64, 24
2, 74697, Control_c, 0, 64, 40
2, 74710, Note_on_c, 0, 48, 89
2, 74711, Note_on_c, 0, 41, 0
2, 74712, Note_on_c, 0, 60, 94
2, 74726, Control_c, 0, 64, 0
2, 74728, Note_on_c, 0, 53, 0
2, 74743, Note_on_c, 0, 60, 0
2, 74747, Note_on_c, 0, 58, 75
2, 74751, Note_on_c, 0, 46, 91
2, 74752, Note_on_c, 0, 48, 0
2, 74756, Control_c, 0, 64, 24
2, 74760, Control_c, 0, 64, 40
2, 74763, Control_c, 0, 64, 56
2, 74781, Control_c, 0, 64, 0
2, 74785, Note_on_c, 0, 58, 0
2, 74788, Note_on_c, 0, 52, 93
2, 74792, Note_on_c, 0, 46, 0
2, 74792, Note_on_c, 0, 40, 86
2, 74810, Control_c, 0, 64, 24
2, 74813, Control_c, 0, 64, 56
2, 74822, Note_on_c, 0, 40, 0
2, 74827, Control_c, 0, 64, 0
2, 74831, Note_on_c, 0, 52, 0
2, 74832, Note_on_c, 0, 51, 102
2, 74835, Note_on_c, 0, 39, 87
2, 74867, Note_on_c, 0, 51, 0
2, 74873, Note_on_c, 0, 44, 80
2, 74873, Note_on_c, 0, 56, 93
2, 74880, Note_on_c, 0, 39, 0
2, 74885, Control_c, 0, 64, 40
2, 74888, Control_c, 0, 64, 56
2, 74901, Control_c, 0, 64, 0
2, 74903, Note_on_c, 0, 56, 0
2, 74905, Note_on_c, 0, 44, 0
2, 74915, Note_on_c, 0, 43, 85
2, 74917, Note_on_c, 0, 55, 92
2, 74926, Control_c, 0, 64, 24
2, 74931, Control_c, 0, 64, 56
2, 74935, Control_c, 0, 64, 72
2, 74947, Note_on_c, 0, 43, 0
2, 74947, Control_c, 0, 64, 24
2, 74951, Control_c, 0, 64, 0
2, 74953, Note_on_c, 0, 55, 0
2, 74956, Note_on_c, 0, 39, 85
2, 74956, Note_on_c, 0, 51, 102
2, 74968, Control_c, 0, 64, 24
2, 74972, Control_c, 0, 64, 56
2, 74976, Control_c, 0, 64, 72
2, 74980, Control_c, 0, 64, 88
2, 74992, Control_c, 0, 64, 24
2, 74997, Control_c, 0, 64, 0
2, 75001, Note_on_c, 0, 49, 103
2, 75002, Note_on_c, 0, 37, 86
2, 75009, Note_on_c, 0, 51, 0
2, 75013, Control_c, 0, 64, 24
2, 75014, Note_on_c, 0, 39, 0
2, 75017, Control_c, 0, 64, 56
2, 75022, Control_c, 0, 64, 104
2, 75026, Control_c, 0, 64, 127
2, 75038, Note_on_c, 0, 49, 0
2, 75038, Control_c, 0, 64, 40
2, 75040, Note_on_c, 0, 37, 0
2, 75043, Note_on_c, 0, 43, 84
2, 75043, Control_c, 0, 64, 0
2, 75046, Note_on_c, 0, 55, 97
2, 75058, Control_c, 0, 64, 24
2, 75063, Control_c, 0, 64, 56
2, 75067, Control_c, 0, 64, 72
2, 75072, Note_on_c, 0, 55, 0
2, 75072, Control_c, 0, 64, 40
2, 75074, Note_on_c, 0, 43, 0
2, 75076, Control_c, 0, 64, 0
2, 75086, Note_on_c, 0, 53, 88
2, 75088, Note_on_c, 0, 41, 89
2, 75096, Control_c, 0, 64, 40
2, 75101, Control_c, 0, 64, 72
2, 75105, Control_c, 0, 64, 104
2, 75108, Control_c, 0, 64, 127
2, 75129, Note_on_c, 0, 53, 0
2, 75135, Note_on_c, 0, 37, 83
2, 75136, Note_on_c, 0, 49, 99
2, 75138, Note_on_c, 0, 41, 0
2, 75162, Note_on_c, 0, 37, 0
2, 75166, Note_on_c, 0, 49, 0
2, 75183, Control_c, 0, 64, 88
2, 75188, Control_c, 0, 64, 40
2, 75191, Note_on_c, 0, 48, 110
2, 75192, Note_on_c, 0, 36, 80
2, 75193, Control_c, 0, 64, 0
2, 75212, Control_c, 0, 64, 56
2, 75217, Control_c, 0, 64, 104
2, 75222, Control_c, 0, 64, 127
2, 75223, Note_on_c, 0, 36, 0
2, 75231, Note_on_c, 0, 48, 0
2, 75246, Control_c, 0, 64, 88
2, 75250, Note_on_c, 0, 51, 98
2, 75251, Note_on_c, 0, 39, 87
2, 75251, Control_c, 0, 64, 24
2, 75255, Control_c, 0, 64, 0
2, 75263, Control_c, 0, 64, 24
2, 75267, Control_c, 0, 64, 56
2, 75271, Control_c, 0, 64, 88
2, 75275, Control_c, 0, 64, 127
2, 75282, Note_on_c, 0, 39, 0
2, 75286, Note_on_c, 0, 51, 0
2, 75312, Control_c, 0, 64, 72
2, 75315, Note_on_c, 0, 34, 86
2, 75316, Note_on_c, 0, 46, 98
2, 75317, Control_c, 0, 64, 0
2, 75350, Control_c, 0, 64, 56
2, 75355, Control_c, 0, 64, 127
2, 75359, Note_on_c, 0, 46, 0
2, 75382, Note_on_c, 0, 34, 0
2, 75382, Note_on_c, 0, 51, 100
2, 75386, Note_on_c, 0, 39, 93
2, 75399, Note_on_c, 0, 51, 0
2, 75403, Note_on_c, 0, 39, 0
2, 75471, Control_c, 0, 64, 56
2, 75475, Control_c, 0, 64, 0
2, 75496, Note_on_c, 0, 89, 113
2, 75496, Note_on_c, 0, 85, 97
2, 75497, Note_on_c, 0, 77, 110
2, 75498, Note_on_c, 0, 44, 110
2, 75498, Note_on_c, 0, 32, 85
2, 75506, Note_on_c, 0, 32, 0
2, 75509, Note_on_c, 0, 44, 0
2, 75513, Control_c, 0, 64, 127
2, 75527, Note_on_c, 0, 89, 0
2, 75534, Note_on_c, 0, 77, 0
2, 75537, Note_on_c, 0, 85, 0
2, 75583, Note_on_c, 0, 60, 85
2, 75585, Note_on_c, 0, 63, 86
2, 75585, Note_on_c, 0, 51, 73
2, 75593, Note_on_c, 0, 51, 0
2, 75595, Note_on_c, 0, 60, 0
2, 75600, Note_on_c, 0, 63, 0
2, 75617, Note_on_c, 0, 87, 97
2, 75618, Note_on_c, 0, 75, 95
2, 75620, Note_on_c, 0, 84, 89
2, 75631, Note_on_c, 0, 75, 0
2, 75634, Note_on_c, 0, 87, 0
2, 75636, Note_on_c, 0, 84, 0
2, 75645, Control_c, 0, 64, 104
2, 75646, Note_on_c, 0, 87, 95
2, 75647, Note_on_c, 0, 75, 95
2, 75648, Note_on_c, 0, 84, 96
2, 75648, Control_c, 0, 64, 24
2, 75650, Note_on_c, 0, 68, 95
2, 75652, Note_on_c, 0, 56, 71
2, 75652, Note_on_c, 0, 60, 80
2, 75652, Control_c, 0, 64, 0
2, 75659, Note_on_c, 0, 84, 0
2, 75660, Control_c, 0, 64, 88
2, 75661, Note_on_c, 0, 68, 0
2, 75662, Note_on_c, 0, 87, 0
2, 75662, Note_on_c, 0, 60, 0
2, 75663, Note_on_c, 0, 75, 0
2, 75663, Control_c, 0, 64, 127
2, 75665, Note_on_c, 0, 56, 0
2, 75707, Note_on_c, 0, 63, 90
2, 75722, Note_on_c, 0, 63, 0
2, 75725, Note_on_c, 0, 51, 103
2, 75725, Note_on_c, 0, 63, 95
2, 75726, Note_on_c, 0, 39, 91
2, 75731, Control_c, 0, 64, 56
2, 75735, Control_c, 0, 64, 0
2, 75736, Note_on_c, 0, 51, 0
2, 75737, Note_on_c, 0, 39, 0
2, 75741, Note_on_c, 0, 63, 0
2, 75745, Note_on_c, 0, 65, 91
2, 75746, Control_c, 0, 64, 40
2, 75750, Control_c, 0, 64, 104
2, 75753, Control_c, 0, 64, 127
2, 75760, Note_on_c, 0, 63, 91
2, 75766, Note_on_c, 0, 65, 0
2, 75772, Note_on_c, 0, 63, 0
2, 75772, Note_on_c, 0, 62, 90
2, 75785, Note_on_c, 0, 63, 86
2, 75787, Note_on_c, 0, 62, 0
2, 75791, Control_c, 0, 64, 88
2, 75795, Control_c, 0, 64, 0
2, 75798, Note_on_c, 0, 68, 87
2, 75801, Note_on_c, 0, 56, 92
2, 75802, Note_on_c, 0, 44, 79
2, 75803, Note_on_c, 0, 63, 0
2, 75810, Control_c, 0, 64, 72
2, 75811, Note_on_c, 0, 68, 0
2, 75811, Note_on_c, 0, 56, 0
2, 75813, Control_c, 0, 64, 127
2, 75818, Note_on_c, 0, 44, 0
2, 75855, Control_c, 0, 64, 0
2, 75872, Note_on_c, 0, 84, 103
2, 75872, Note_on_c, 0, 80, 92
2, 75872, Note_on_c, 0, 72, 97
2, 75875, Note_on_c, 0, 27, 75
2, 75875, Note_on_c, 0, 39, 87
2, 75877, Control_c, 0, 64, 104
2, 75878, Note_on_c, 0, 72, 0
2, 75881, Control_c, 0, 64, 127
2, 75882, Note_on_c, 0, 84, 0
2, 75886, Note_on_c, 0, 39, 0
2, 75886, Note_on_c, 0, 27, 0
2, 75888, Note_on_c, 0, 80, 0
2, 75905, Note_on_c, 0, 85, 112
2, 75905, Note_on_c, 0, 73, 94
2, 75910, Note_on_c, 0, 82, 50
2, 75916, Note_on_c, 0, 82, 0
2, 75916, Note_on_c, 0, 73, 0
2, 75920, Note_on_c, 0, 85, 0
2, 75933, Control_c, 0, 64, 0
2, 75943, Note_on_c, 0, 85, 87
2, 75945, Note_on_c, 0, 89, 112
2, 75945, Note_on_c, 0, 77, 100
2, 75945, Note_on_c, 0, 44, 101
2, 75947, Note_on_c, 0, 32, 74
2, 75949, Note_on_c, 0, 85, 0
2, 75952, Control_c, 0, 64, 56
2, 75953, Note_on_c, 0, 32, 0
2, 75956, Control_c, 0, 64, 127
2, 75957, Note_on_c, 0, 44, 0
2, 75961, Note_on_c, 0, 89, 0
2, 75963, Note_on_c, 0, 77, 0
2, 76002, Note_on_c, 0, 84, 84
2, 76002, Note_on_c, 0, 75, 79
2, 76002, Note_on_c, 0, 87, 79
2, 76007, Note_on_c, 0, 87, 0
2, 76007, Note_on_c, 0, 84, 0
2, 76008, Note_on_c, 0, 75, 0
2, 76016, Control_c, 0, 64, 88
2, 76018, Note_on_c, 0, 87, 85
2, 76020, Note_on_c, 0, 60, 88
2, 76020, Note_on_c, 0, 63, 86
2, 76020, Note_on_c, 0, 75, 87
2, 76020, Control_c, 0, 64, 0
2, 76021, Note_on_c, 0, 84, 88
2, 76021, Note_on_c, 0, 51, 82
2, 76026, Note_on_c, 0, 60, 0
2, 76027, Note_on_c, 0, 84, 0
2, 76028, Note_on_c, 0, 51, 0
2, 76031, Control_c, 0, 64, 56
2, 76032, Note_on_c, 0, 63, 0
2, 76032, Note_on_c, 0, 75, 0
2, 76035, Control_c, 0, 64, 104
2, 76038, Note_on_c, 0, 87, 0
2, 76038, Control_c, 0, 64, 127
2, 76053, Note_on_c, 0, 86, 98
2, 76056, Note_on_c, 0, 83, 95
2, 76056, Note_on_c, 0, 74, 92
2, 76063, Note_on_c, 0, 74, 0
2, 76065, Note_on_c, 0, 86, 0
2, 76072, Note_on_c, 0, 83, 0
2, 76072, Control_c, 0, 64, 72
2, 76076, Control_c, 0, 64, 0
2, 76088, Note_on_c, 0, 87, 101
2, 76091, Note_on_c, 0, 75, 103
2, 76091, Note_on_c, 0, 84, 95
2, 76092, Note_on_c, 0, 68, 95
2, 76095, Note_on_c, 0, 60, 79
2, 76095, Note_on_c, 0, 56, 74
2, 76098, Control_c, 0, 64, 127
2, 76101, Note_on_c, 0, 60, 0
2, 76103, Note_on_c, 0, 68, 0
2, 76103, Note_on_c, 0, 84, 0
2, 76104, Note_on_c, 0, 87, 0
2, 76107, Note_on_c, 0, 75, 0
2, 76108, Note_on_c, 0, 56, 0
2, 76143, Note_on_c, 0, 63, 83
2, 76150, Note_on_c, 0, 63, 0
2, 76166, Note_on_c, 0, 51, 100
2, 76167, Note_on_c, 0, 39, 85
2, 76168, Note_on_c, 0, 63, 91
2, 76168, Control_c, 0, 64, 88
2, 76173, Control_c, 0, 64, 0
2, 76174, Note_on_c, 0, 39, 0
2, 76178, Note_on_c, 0, 51, 0
2, 76185, Note_on_c, 0, 63, 0
2, 76185, Control_c, 0, 64, 56
2, 76186, Note_on_c, 0, 65, 92
2, 76187, Control_c, 0, 64, 127
2, 76197, Note_on_c, 0, 63, 92
2, 76204, Note_on_c, 0, 65, 0
2, 76208, Note_on_c, 0, 62, 90
2, 76212, Note_on_c, 0, 63, 0
2, 76223, Note_on_c, 0, 63, 91
2, 76226, Note_on_c, 0, 62, 0
2, 76233, Control_c, 0, 64, 104
2, 76237, Control_c, 0, 64, 0
2, 76240, Note_on_c, 0, 68, 93
2, 76242, Note_on_c, 0, 56, 91
2, 76243, Note_on_c, 0, 63, 0
2, 76243, Note_on_c, 0, 44, 75
2, 76248, Control_c, 0, 64, 40
2, 76252, Note_on_c, 0, 68, 0
2, 76252, Control_c, 0, 64, 104
2, 76253, Note_on_c, 0, 56, 0
2, 76256, Control_c, 0, 64, 127
2, 76258, Note_on_c, 0, 44, 0
2, 76297, Control_c, 0, 64, 104
2, 76302, Control_c, 0, 64, 0
2, 76311, Note_on_c, 0, 84, 94
2, 76311, Note_on_c, 0, 80, 86
2, 76311, Note_on_c, 0, 72, 90
2, 76315, Note_on_c, 0, 39, 83
2, 76317, Note_on_c, 0, 27, 67
2, 76317, Control_c, 0, 64, 56
2, 76318, Note_on_c, 0, 72, 0
2, 76321, Control_c, 0, 64, 127
2, 76323, Note_on_c, 0, 27, 0
2, 76323, Note_on_c, 0, 84, 0
2, 76326, Note_on_c, 0, 39, 0
2, 76327, Note_on_c, 0, 80, 0
2, 76347, Note_on_c, 0, 85, 105
2, 76347, Note_on_c, 0, 73, 97
2, 76350, Note_on_c, 0, 82, 79
2, 76356, Note_on_c, 0, 82, 0
2, 76357, Note_on_c, 0, 73, 0
2, 76362, Note_on_c, 0, 85, 0
2, 76376, Control_c, 0, 64, 56
2, 76380, Control_c, 0, 64, 0
2, 76385, Note_on_c, 0, 89, 107
2, 76385, Note_on_c, 0, 44, 89
2, 76385, Note_on_c, 0, 85, 87
2, 76386, Note_on_c, 0, 77, 96
2, 76388, Note_on_c, 0, 32, 68
2, 76392, Control_c, 0, 64, 56
2, 76393, Note_on_c, 0, 32, 0
2, 76396, Control_c, 0, 64, 127
2, 76397, Note_on_c, 0, 44, 0
2, 76397, Note_on_c, 0, 77, 0
2, 76400, Note_on_c, 0, 89, 0
2, 76402, Note_on_c, 0, 85, 0
2, 76421, Note_on_c, 0, 87, 94
2, 76422, Note_on_c, 0, 75, 87
2, 76423, Note_on_c, 0, 84, 84
2, 76437, Note_on_c, 0, 75, 0
2, 76443, Note_on_c, 0, 84, 0
2, 76443, Note_on_c, 0, 87, 0
2, 76443, Control_c, 0, 64, 88
2, 76447, Control_c, 0, 64, 0
2, 76455, Note_on_c, 0, 89, 102
2, 76456, Note_on_c, 0, 87, 68
2, 76456, Note_on_c, 0, 84, 92
2, 76456, Note_on_c, 0, 75, 81
2, 76458, Note_on_c, 0, 60, 89
2, 76458, Note_on_c, 0, 63, 79
2, 76458, Note_on_c, 0, 51, 79
2, 76462, Control_c, 0, 64, 40
2, 76465, Note_on_c, 0, 51, 0
2, 76465, Note_on_c, 0, 60, 0
2, 76466, Control_c, 0, 64, 104
2, 76470, Control_c, 0, 64, 127
2, 76471, Note_on_c, 0, 89, 0
2, 76471, Note_on_c, 0, 84, 0
2, 76471, Note_on_c, 0, 63, 0
2, 76473, Note_on_c, 0, 87, 0
2, 76473, Note_on_c, 0, 75, 0
2, 76491, Note_on_c, 0, 86, 106
2, 76492, Note_on_c, 0, 74, 100
2, 76502, Note_on_c, 0, 74, 0
2, 76509, Note_on_c, 0, 86, 0
2, 76518, Control_c, 0, 64, 40
2, 76522, Control_c, 0, 64, 0
2, 76526, Note_on_c, 0, 68, 83
2, 76527, Note_on_c, 0, 89, 112
2, 76528, Note_on_c, 0, 60, 76
2, 76530, Note_on_c, 0, 56, 61
2, 76532, Note_on_c, 0, 77, 89
2, 76532, Note_on_c, 0, 85, 65
2, 76533, Control_c, 0, 64, 56
2, 76535, Note_on_c, 0, 60, 0
2, 76536, Note_on_c, 0, 68, 0
2, 76537, Note_on_c, 0, 77, 0
2, 76537, Control_c, 0, 64, 127
2, 76539, Note_on_c, 0, 85, 0
2, 76543, Note_on_c, 0, 56, 0
2, 76544, Note_on_c, 0, 89, 0
2, 76563, Note_on_c, 0, 87, 95
2, 76565, Note_on_c, 0, 84, 91
2, 76565, Note_on_c, 0, 75, 89
2, 76578, Note_on_c, 0, 75, 0
2, 76583, Note_on_c, 0, 84, 0
2, 76585, Note_on_c, 0, 87, 0
2, 76590, Control_c, 0, 64, 104
2, 76595, Control_c, 0, 64, 0
2, 76597, Note_on_c, 0, 89, 99
2, 76598, Note_on_c, 0, 84, 86
2, 76598, Note_on_c, 0, 87, 66
2, 76600, Note_on_c, 0, 75, 83
2, 76601, Note_on_c, 0, 51, 98
2, 76601, Note_on_c, 0, 39, 77
2, 76606, Control_c, 0, 64, 24
2, 76610, Note_on_c, 0, 89, 0
2, 76610, Control_c, 0, 64, 88
2, 76611, Note_on_c, 0, 51, 0
2, 76611, Note_on_c, 0, 87, 0
2, 76612, Note_on_c, 0, 39, 0
2, 76612, Note_on_c, 0, 75, 0
2, 76613, Note_on_c, 0, 84, 0
2, 76613, Control_c, 0, 64, 127
2, 76633, Note_on_c, 0, 74, 95
2, 76635, Note_on_c, 0, 83, 91
2, 76635, Note_on_c, 0, 86, 76
2, 76640, Note_on_c, 0, 74, 0
2, 76642, Note_on_c, 0, 86, 0
2, 76648, Note_on_c, 0, 83, 0
2, 76658, Control_c, 0, 64, 72
2, 76662, Control_c, 0, 64, 0
2, 76667, Note_on_c, 0, 85, 92
2, 76671, Note_on_c, 0, 87, 105
2, 76671, Note_on_c, 0, 75, 100
2, 76674, Note_on_c, 0, 85, 0
2, 76675, Note_on_c, 0, 84, 92
2, 76675, Note_on_c, 0, 56, 91
2, 76675, Note_on_c, 0, 44, 88
2, 76677, Control_c, 0, 64, 88
2, 76681, Note_on_c, 0, 84, 0
2, 76681, Control_c, 0, 64, 127
2, 76684, Note_on_c, 0, 75, 0
2, 76687, Note_on_c, 0, 56, 0
2, 76688, Note_on_c, 0, 44, 0
2, 76688, Note_on_c, 0, 87, 0
2, 76706, Control_c, 0, 64, 104
2, 76710, Control_c, 0, 64, 0
2, 76731, Note_on_c, 0, 39, 77
2, 76735, Note_on_c, 0, 46, 75
2, 76745, Control_c, 0, 64, 127
2, 76750, Note_on_c, 0, 90, 105
2, 76751, Note_on_c, 0, 39, 0
2, 76752, Note_on_c, 0, 75, 100
2, 76752, Note_on_c, 0, 54, 95
2, 76752, Note_on_c, 0, 82, 94
2, 76758, Note_on_c, 0, 46, 0
2, 76769, Note_on_c, 0, 54, 0
2, 76769, Note_on_c, 0, 82, 0
2, 76769, Note_on_c, 0, 75, 0
2, 76771, Note_on_c, 0, 90, 0
2, 76790, Control_c, 0, 64, 104
2, 76793, Control_c, 0, 64, 0
2, 76803, Note_on_c, 0, 41, 77
2, 76811, Note_on_c, 0, 48, 66
2, 76818, Note_on_c, 0, 41, 0
2, 76825, Note_on_c, 0, 53, 75
2, 76827, Note_on_c, 0, 89, 106
2, 76827, Control_c, 0, 64, 127
2, 76829, Note_on_c, 0, 48, 0
2, 76831, Note_on_c, 0, 57, 96
2, 76832, Note_on_c, 0, 53, 0
2, 76832, Note_on_c, 0, 84, 94
2, 76832, Note_on_c, 0, 75, 81
2, 76833, Note_on_c, 0, 81, 83
2, 76838, Note_on_c, 0, 81, 0
2, 76839, Note_on_c, 0, 75, 0
2, 76842, Note_on_c, 0, 57, 0
2, 76843, Note_on_c, 0, 89, 0
2, 76844, Note_on_c, 0, 84, 0
2, 76887, Control_c, 0, 64, 72
2, 76891, Control_c, 0, 64, 0
2, 76892, Note_on_c, 0, 53, 80
2, 76901, Note_on_c, 0, 63, 67
2, 76901, Note_on_c, 0, 60, 63
2, 76905, Note_on_c, 0, 53, 0
2, 76908, Note_on_c, 0, 84, 103
2, 76912, Note_on_c, 0, 75, 87
2, 76912, Note_on_c, 0, 72, 97
2, 76913, Note_on_c, 0, 69, 93
2, 76913, Note_on_c, 0, 77, 79
2, 76917, Control_c, 0, 64, 104
2, 76918, Note_on_c, 0, 60, 0
2, 76921, Note_on_c, 0, 77, 0
2, 76921, Control_c, 0, 64, 127
2, 76922, Note_on_c, 0, 63, 0
2, 76923, Note_on_c, 0, 72, 0
2, 76925, Note_on_c, 0, 69, 0
2, 76929, Note_on_c, 0, 84, 0
2, 76934, Note_on_c, 0, 75, 0
2, 76970, Control_c, 0, 64, 56
2, 76971, Note_on_c, 0, 46, 80
2, 76973, Control_c, 0, 64, 0
2, 76982, Note_on_c, 0, 53, 81
2, 76987, Note_on_c, 0, 85, 106
2, 76990, Note_on_c, 0, 70, 84
2, 76990, Note_on_c, 0, 61, 93
2, 76991, Note_on_c, 0, 46, 0
2, 76991, Note_on_c, 0, 77, 93
2, 76996, Control_c, 0, 64, 72
2, 76999, Note_on_c, 0, 53, 0
2, 77000, Control_c, 0, 64, 127
2, 77002, Note_on_c, 0, 61, 0
2, 77002, Note_on_c, 0, 70, 0
2, 77003, Note_on_c, 0, 77, 0
2, 77005, Note_on_c, 0, 85, 0
2, 77060, Control_c, 0, 64, 24
2, 77063, Note_on_c, 0, 78, 102
2, 77063, Note_on_c, 0, 54, 89
2, 77063, Control_c, 0, 64, 0
2, 77065, Note_on_c, 0, 42, 74
2, 77073, Note_on_c, 0, 42, 0
2, 77075, Note_on_c, 0, 54, 0
2, 77075, Control_c, 0, 64, 56
2, 77078, Control_c, 0, 64, 127
2, 77080, Note_on_c, 0, 78, 0
2, 77083, Note_on_c, 0, 66, 70
2, 77100, Note_on_c, 0, 78, 85
2, 77109, Note_on_c, 0, 66, 0
2, 77118, Note_on_c, 0, 78, 0
2, 77120, Control_c, 0, 64, 56
2, 77123, Control_c, 0, 64, 0
2, 77126, Note_on_c, 0, 77, 112
2, 77127, Note_on_c, 0, 53, 92
2, 77127, Note_on_c, 0, 65, 92
2, 77127, Note_on_c, 0, 41, 86
2, 77131, Control_c, 0, 64, 40
2, 77135, Control_c, 0, 64, 127
2, 77138, Note_on_c, 0, 65, 0
2, 77138, Note_on_c, 0, 53, 0
2, 77141, Note_on_c, 0, 77, 0
2, 77142, Note_on_c, 0, 41, 0
2, 77191, Control_c, 0, 64, 24
2, 77193, Control_c, 0, 64, 0
2, 77207, Note_on_c, 0, 61, 93
2, 77207, Note_on_c, 0, 73, 105
2, 77210, Note_on_c, 0, 37, 78
2, 77211, Note_on_c, 0, 49, 97
2, 77213, Control_c, 0, 64, 56
2, 77215, Note_on_c, 0, 61, 0
2, 77217, Control_c, 0, 64, 127
2, 77219, Note_on_c, 0, 49, 0
2, 77222, Note_on_c, 0, 37, 0
2, 77224, Note_on_c, 0, 73, 0
2, 77262, Control_c, 0, 64, 104
2, 77266, Control_c, 0, 64, 0
2, 77295, Note_on_c, 0, 90, 116
2, 77296, Note_on_c, 0, 46, 112
2, 77296, Note_on_c, 0, 78, 115
2, 77296, Note_on_c, 0, 87, 100
2, 77297, Note_on_c, 0, 34, 86
2, 77305, Note_on_c, 0, 34, 0
2, 77307, Note_on_c, 0, 46, 0
2, 77311, Control_c, 0, 64, 127
2, 77342, Note_on_c, 0, 87, 0
2, 77351, Note_on_c, 0, 78, 0
2, 77358, Note_on_c, 0, 90, 0
2, 77371, Note_on_c, 0, 61, 82
2, 77371, Note_on_c, 0, 65, 82
2, 77372, Note_on_c, 0, 53, 80
2, 77378, Note_on_c, 0, 53, 0
2, 77383, Note_on_c, 0, 61, 0
2, 77384, Note_on_c, 0, 65, 0
2, 77407, Note_on_c, 0, 89, 95
2, 77407, Note_on_c, 0, 77, 100
2, 77407, Note_on_c, 0, 85, 80
2, 77414, Note_on_c, 0, 85, 0
2, 77419, Note_on_c, 0, 77, 0
2, 77419, Note_on_c, 0, 89, 0
2, 77431, Control_c, 0, 64, 72
2, 77435, Note_on_c, 0, 89, 98
2, 77435, Note_on_c, 0, 77, 100
2, 77435, Note_on_c, 0, 85, 95
2, 77435, Control_c, 0, 64, 0
2, 77437, Note_on_c, 0, 70, 94
2, 77437, Note_on_c, 0, 58, 77
2, 77438, Note_on_c, 0, 61, 79
2, 77438, Control_c, 0, 64, 24
2, 77442, Control_c, 0, 64, 72
2, 77446, Note_on_c, 0, 61, 0
2, 77446, Note_on_c, 0, 89, 0
2, 77446, Control_c, 0, 64, 127
2, 77449, Note_on_c, 0, 70, 0
2, 77450, Note_on_c, 0, 77, 0
2, 77450, Note_on_c, 0, 85, 0
2, 77453, Note_on_c, 0, 58, 0
2, 77488, Note_on_c, 0, 65, 96
2, 77494, Note_on_c, 0, 65, 0
2, 77513, Note_on_c, 0, 65, 98
2, 77513, Note_on_c, 0, 41, 79
2, 77513, Note_on_c, 0, 53, 100
2, 77516, Control_c, 0, 64, 24
2, 77519, Note_on_c, 0, 41, 0
2, 77521, Control_c, 0, 64, 0
2, 77524, Note_on_c, 0, 65, 0
2, 77526, Note_on_c, 0, 53, 0
2, 77527, Note_on_c, 0, 66, 92
2, 77532, Control_c, 0, 64, 56
2, 77536, Control_c, 0, 64, 127
2, 77539, Note_on_c, 0, 66, 0
2, 77540, Note_on_c, 0, 65, 89
2, 77551, Note_on_c, 0, 64, 90
2, 77555, Note_on_c, 0, 65, 0
2, 77562, Note_on_c, 0, 65, 92
2, 77566, Note_on_c, 0, 64, 0
2, 77577, Control_c, 0, 64, 72
2, 77578, Note_on_c, 0, 70, 92
2, 77578, Note_on_c, 0, 58, 93
2, 77578, Note_on_c, 0, 46, 86
2, 77581, Control_c, 0, 64, 0
2, 77583, Note_on_c, 0, 65, 0
2, 77588, Control_c, 0, 64, 24
2, 77589, Note_on_c, 0, 58, 0
2, 77591, Note_on_c, 0, 70, 0
2, 77591, Note_on_c, 0, 46, 0
2, 77593, Control_c, 0, 64, 88
2, 77596, Control_c, 0, 64, 127
2, 77633, Control_c, 0, 64, 88
2, 77637, Control_c, 0, 64, 0
2, 77655, Note_on_c, 0, 85, 94
2, 77656, Note_on_c, 0, 73, 82
2, 77656, Note_on_c, 0, 82, 75
2, 77656, Control_c, 0, 64, 72
2, 77660, Note_on_c, 0, 41, 87
2, 77660, Control_c, 0, 64, 127
2, 77661, Note_on_c, 0, 29, 69
2, 77667, Note_on_c, 0, 29, 0
2, 77667, Note_on_c, 0, 73, 0
2, 77670, Note_on_c, 0, 41, 0
2, 77671, Note_on_c, 0, 85, 0
2, 77674, Note_on_c, 0, 82, 0
2, 77686, Control_c, 0, 64, 40
2, 77691, Note_on_c, 0, 87, 94
2, 77691, Control_c, 0, 64, 0
2, 77692, Note_on_c, 0, 75, 93
2, 77692, Note_on_c, 0, 84, 93
2, 77703, Note_on_c, 0, 75, 0
2, 77707, Note_on_c, 0, 84, 0
2, 77711, Note_on_c, 0, 87, 0
2, 77711, Note_on_c, 0, 46, 35
2, 77718, Note_on_c, 0, 46, 0
2, 77732, Note_on_c, 0, 90, 106
2, 77733, Note_on_c, 0, 78, 103
2, 77736, Note_on_c, 0, 46, 103
2, 77736, Note_on_c, 0, 34, 85
2, 77738, Note_on_c, 0, 87, 36
2, 77738, Control_c, 0, 64, 127
2, 77744, Note_on_c, 0, 87, 0
2, 77744, Note_on_c, 0, 34, 0
2, 77745, Note_on_c, 0, 78, 0
2, 77746, Note_on_c, 0, 46, 0
2, 77759, Note_on_c, 0, 90, 0
2, 77788, Note_on_c, 0, 89, 98
2, 77788, Note_on_c, 0, 85, 87
2, 77790, Note_on_c, 0, 77, 91
2, 77795, Note_on_c, 0, 77, 0
2, 77798, Note_on_c, 0, 85, 0
2, 77800, Note_on_c, 0, 89, 0
2, 77810, Control_c, 0, 64, 40
2, 77812, Note_on_c, 0, 61, 85
2, 77812, Note_on_c, 0, 89, 100
2, 77812, Note_on_c, 0, 85, 81
2, 77813, Note_on_c, 0, 77, 95
2, 77813, Note_on_c, 0, 65, 84
2, 77813, Control_c, 0, 64, 0
2, 77816, Note_on_c, 0, 53, 75
2, 77820, Note_on_c, 0, 65, 0
2, 77821, Note_on_c, 0, 53, 0
2, 77821, Control_c, 0, 64, 56
2, 77823, Note_on_c, 0, 89, 0
2, 77824, Note_on_c, 0, 61, 0
2, 77825, Note_on_c, 0, 77, 0
2, 77825, Control_c, 0, 64, 127
2, 77827, Note_on_c, 0, 85, 0
2, 77847, Note_on_c, 0, 88, 98
2, 77848, Note_on_c, 0, 76, 96
2, 77848, Note_on_c, 0, 84, 90
2, 77851, Control_c, 0, 64, 88
2, 77855, Note_on_c, 0, 84, 0
2, 77855, Control_c, 0, 64, 0
2, 77859, Note_on_c, 0, 76, 0
2, 77859, Note_on_c, 0, 88, 0
2, 77883, Note_on_c, 0, 89, 104
2, 77883, Note_on_c, 0, 85, 94
2, 77883, Note_on_c, 0, 77, 104
2, 77885, Note_on_c, 0, 70, 95
2, 77885, Note_on_c, 0, 61, 83
2, 77885, Note_on_c, 0, 58, 70
2, 77885, Control_c, 0, 64, 88
2, 77888, Control_c, 0, 64, 127
2, 77891, Note_on_c, 0, 89, 0
2, 77896, Note_on_c, 0, 70, 0
2, 77896, Note_on_c, 0, 85, 0
2, 77896, Note_on_c, 0, 77, 0
2, 77898, Note_on_c, 0, 61, 0
2, 77901, Note_on_c, 0, 58, 0
2, 77941, Note_on_c, 0, 65, 85
2, 77954, Note_on_c, 0, 65, 0
2, 77965, Note_on_c, 0, 65, 72
2, 77965, Note_on_c, 0, 53, 110
2, 77965, Note_on_c, 0, 41, 94
2, 77965, Control_c, 0, 64, 24
2, 77968, Control_c, 0, 64, 0
2, 77976, Control_c, 0, 64, 24
2, 77977, Note_on_c, 0, 65, 0
2, 77978, Note_on_c, 0, 41, 0
2, 77978, Note_on_c, 0, 66, 89
2, 77980, Note_on_c, 0, 53, 0
2, 77980, Control_c, 0, 64, 88
2, 77982, Control_c, 0, 64, 127
2, 77992, Note_on_c, 0, 65, 89
2, 77993, Note_on_c, 0, 66, 0
2, 78002, Note_on_c, 0, 64, 82
2, 78007, Note_on_c, 0, 65, 0
2, 78012, Note_on_c, 0, 65, 85
2, 78019, Note_on_c, 0, 64, 0
2, 78027, Control_c, 0, 64, 88
2, 78031, Note_on_c, 0, 70, 88
2, 78031, Control_c, 0, 64, 0
2, 78032, Note_on_c, 0, 58, 100
2, 78032, Note_on_c, 0, 46, 85
2, 78033, Note_on_c, 0, 65, 0
2, 78043, Note_on_c, 0, 58, 0
2, 78043, Control_c, 0, 64, 72
2, 78044, Note_on_c, 0, 70, 0
2, 78047, Control_c, 0, 64, 127
2, 78050, Note_on_c, 0, 46, 0
2, 78098, Control_c, 0, 64, 88
2, 78102, Control_c, 0, 64, 0
2, 78117, Note_on_c, 0, 79, 96
2, 78117, Note_on_c, 0, 91, 109
2, 78118, Note_on_c, 0, 85, 91
2, 78118, Note_on_c, 0, 46, 115
2, 78120, Note_on_c, 0, 34, 93
2, 78121, Control_c, 0, 64, 40
2, 78126, Control_c, 0, 64, 127
2, 78128, Note_on_c, 0, 79, 0
2, 78129, Note_on_c, 0, 46, 0
2, 78130, Note_on_c, 0, 34, 0
2, 78137, Note_on_c, 0, 91, 0
2, 78138, Note_on_c, 0, 85, 0
2, 78162, Note_on_c, 0, 92, 116
2, 78162, Note_on_c, 0, 80, 106
2, 78173, Note_on_c, 0, 80, 0
2, 78174, Note_on_c, 0, 92, 0
2, 78186, Note_on_c, 0, 39, 43
2, 78192, Note_on_c, 0, 39, 0
2, 78203, Control_c, 0, 64, 40
2, 78208, Control_c, 0, 64, 0
2, 78218, Note_on_c, 0, 39, 102
2, 78218, Note_on_c, 0, 27, 79
2, 78222, Note_on_c, 0, 96, 112
2, 78222, Note_on_c, 0, 84, 107
2, 78226, Note_on_c, 0, 27, 0
2, 78227, Control_c, 0, 64, 56
2, 78229, Note_on_c, 0, 39, 0
2, 78231, Control_c, 0, 64, 127
2, 78249, Note_on_c, 0, 96, 0
2, 78250, Note_on_c, 0, 84, 0
2, 78261, Note_on_c, 0, 91, 84
2, 78262, Note_on_c, 0, 87, 74
2, 78293, Note_on_c, 0, 87, 0
2, 78297, Note_on_c, 0, 91, 0
2, 78305, Note_on_c, 0, 96, 104
2, 78306, Note_on_c, 0, 84, 95
2, 78307, Note_on_c, 0, 87, 81
2, 78310, Note_on_c, 0, 72, 98
2, 78310, Note_on_c, 0, 67, 83
2, 78311, Note_on_c, 0, 61, 67
2, 78312, Note_on_c, 0, 63, 63
2, 78321, Note_on_c, 0, 72, 0
2, 78323, Note_on_c, 0, 96, 0
2, 78325, Note_on_c, 0, 87, 0
2, 78326, Note_on_c, 0, 84, 0
2, 78327, Note_on_c, 0, 67, 0
2, 78328, Note_on_c, 0, 61, 0
2, 78334, Note_on_c, 0, 63, 0
2, 78346, Note_on_c, 0, 61, 47
2, 78347, Note_on_c, 0, 70, 92
2, 78358, Note_on_c, 0, 70, 0
2, 78361, Note_on_c, 0, 61, 0
2, 78372, Note_on_c, 0, 82, 95
2, 78372, Note_on_c, 0, 94, 100
2, 78385, Note_on_c, 0, 94, 0
2, 78385, Note_on_c, 0, 82, 0
2, 78397, Note_on_c, 0, 82, 96
2, 78397, Note_on_c, 0, 94, 96
2, 78400, Note_on_c, 0, 51, 106
2, 78400, Control_c, 0, 64, 88
2, 78403, Control_c, 0, 64, 0
2, 78415, Note_on_c, 0, 51, 0
2, 78417, Control_c, 0, 64, 88
2, 78422, Control_c, 0, 64, 127
2, 78424, Note_on_c, 0, 94, 0
2, 78425, Note_on_c, 0, 82, 0
2, 78436, Note_on_c, 0, 87, 81
2, 78438, Note_on_c, 0, 84, 67
2, 78454, Note_on_c, 0, 84, 0
2, 78466, Note_on_c, 0, 87, 0
2, 78470, Note_on_c, 0, 94, 95
2, 78472, Note_on_c, 0, 82, 85
2, 78472, Note_on_c, 0, 70, 79
2, 78473, Note_on_c, 0, 63, 61
2, 78475, Note_on_c, 0, 60, 65
2, 78483, Note_on_c, 0, 70, 0
2, 78488, Note_on_c, 0, 63, 0
2, 78492, Note_on_c, 0, 60, 0
2, 78493, Note_on_c, 0, 94, 0
2, 78497, Note_on_c, 0, 82, 0
2, 78507, Note_on_c, 0, 68, 86
2, 78513, Note_on_c, 0, 63, 36
2, 78517, Note_on_c, 0, 68, 0
2, 78519, Note_on_c, 0, 63, 0
2, 78527, Note_on_c, 0, 92, 100
2, 78527, Note_on_c, 0, 80, 97
2, 78538, Note_on_c, 0, 80, 0
2, 78538, Note_on_c, 0, 92, 0
2, 78550, Note_on_c, 0, 92, 94
2, 78550, Note_on_c, 0, 80, 95
2, 78551, Note_on_c, 0, 51, 89
2, 78553, Control_c, 0, 64, 24
2, 78557, Control_c, 0, 64, 0
2, 78564, Note_on_c, 0, 51, 0
2, 78572, Control_c, 0, 64, 104
2, 78576, Control_c, 0, 64, 127
2, 78577, Note_on_c, 0, 80, 0
2, 78578, Note_on_c, 0, 92, 0
2, 78588, Note_on_c, 0, 87, 80
2, 78592, Note_on_c, 0, 82, 65
2, 78609, Note_on_c, 0, 82, 0
2, 78619, Note_on_c, 0, 87, 0
2, 78625, Note_on_c, 0, 92, 97
2, 78625, Note_on_c, 0, 68, 75
2, 78626, Note_on_c, 0, 80, 87
2, 78626, Note_on_c, 0, 63, 67
2, 78628, Note_on_c, 0, 58, 60
2, 78641, Note_on_c, 0, 68, 0
2, 78643, Note_on_c, 0, 63, 0
2, 78653, Note_on_c, 0, 80, 0
2, 78660, Note_on_c, 0, 92, 0
2, 78662, Note_on_c, 0, 67, 81
2, 78662, Note_on_c, 0, 63, 55
2, 78669, Note_on_c, 0, 63, 0
2, 78669, Note_on_c, 0, 67, 0
2, 78675, Note_on_c, 0, 58, 0
2, 78683, Note_on_c, 0, 91, 99
2, 78685, Note_on_c, 0, 79, 97
2, 78696, Note_on_c, 0, 91, 0
2, 78698, Note_on_c, 0, 79, 0
2, 78707, Control_c, 0, 64, 104
2, 78708, Note_on_c, 0, 91, 109
2, 78708, Note_on_c, 0, 79, 103
2, 78711, Note_on_c, 0, 46, 89
2, 78711, Control_c, 0, 64, 0
2, 78723, Note_on_c, 0, 46, 0
2, 78726, Control_c, 0, 64, 40
2, 78729, Note_on_c, 0, 79, 0
2, 78730, Control_c, 0, 64, 127
2, 78734, Note_on_c, 0, 91, 0
2, 78750, Note_on_c, 0, 86, 90
2, 78750, Note_on_c, 0, 82, 78
2, 78773, Note_on_c, 0, 82, 0
2, 78777, Note_on_c, 0, 86, 0
2, 78782, Note_on_c, 0, 67, 86
2, 78783, Note_on_c, 0, 62, 76
2, 78783, Note_on_c, 0, 91, 102
2, 78785, Note_on_c, 0, 58, 53
2, 78785, Note_on_c, 0, 56, 59
2, 78785, Note_on_c, 0, 79, 93
2, 78796, Note_on_c, 0, 62, 0
2, 78797, Note_on_c, 0, 67, 0
2, 78803, Note_on_c, 0, 56, 0
2, 78803, Note_on_c, 0, 58, 0
2, 78810, Note_on_c, 0, 91, 0
2, 78811, Note_on_c, 0, 79, 0
2, 78821, Note_on_c, 0, 65, 84
2, 78823, Note_on_c, 0, 56, 64
2, 78832, Note_on_c, 0, 65, 0
2, 78833, Note_on_c, 0, 56, 0
2, 78843, Note_on_c, 0, 77, 98
2, 78845, Note_on_c, 0, 89, 96
2, 78851, Note_on_c, 0, 89, 0
2, 78854, Note_on_c, 0, 77, 0
2, 78863, Note_on_c, 0, 89, 110
2, 78863, Note_on_c, 0, 77, 112
2, 78865, Note_on_c, 0, 51, 93
2, 78865, Control_c, 0, 64, 56
2, 78868, Control_c, 0, 64, 0
2, 78878, Note_on_c, 0, 51, 0
2, 78879, Note_on_c, 0, 89, 0
2, 78880, Control_c, 0, 64, 72
2, 78883, Control_c, 0, 64, 127
2, 78884, Note_on_c, 0, 77, 0
2, 78901, Note_on_c, 0, 79, 85
2, 78901, Note_on_c, 0, 82, 87
2, 78911, Note_on_c, 0, 79, 0
2, 78924, Note_on_c, 0, 82, 0
2, 78936, Note_on_c, 0, 89, 103
2, 78937, Note_on_c, 0, 58, 59
2, 78937, Note_on_c, 0, 77, 99
2, 78940, Note_on_c, 0, 65, 74
2, 78940, Note_on_c, 0, 55, 69
2, 78955, Note_on_c, 0, 77, 0
2, 78956, Note_on_c, 0, 65, 0
2, 78959, Note_on_c, 0, 89, 0
2, 78960, Note_on_c, 0, 55, 0
2, 78975, Note_on_c, 0, 63, 77
2, 78981, Note_on_c, 0, 63, 0
2, 78984, Note_on_c, 0, 58, 0
2, 78992, Note_on_c, 0, 87, 94
2, 78993, Note_on_c, 0, 75, 89
2, 79001, Note_on_c, 0, 75, 0
2, 79003, Note_on_c, 0, 87, 0
2, 79015, Note_on_c, 0, 73, 99
2, 79015, Note_on_c, 0, 85, 103
2, 79018, Control_c, 0, 64, 72
2, 79022, Control_c, 0, 64, 0
2, 79023, Note_on_c, 0, 41, 78
2, 79023, Note_on_c, 0, 53, 74
2, 79035, Note_on_c, 0, 73, 0
2, 79036, Note_on_c, 0, 41, 0
2, 79037, Control_c, 0, 64, 40
2, 79040, Note_on_c, 0, 85, 0
2, 79041, Control_c, 0, 64, 127
2, 79043, Note_on_c, 0, 53, 0
2, 79057, Note_on_c, 0, 80, 83
2, 79061, Note_on_c, 0, 77, 73
2, 79074, Note_on_c, 0, 77, 0
2, 79084, Note_on_c, 0, 80, 0
2, 79093, Note_on_c, 0, 61, 70
2, 79095, Note_on_c, 0, 85, 94
2, 79095, Note_on_c, 0, 56, 68
2, 79096, Note_on_c, 0, 73, 89
2, 79111, Note_on_c, 0, 61, 0
2, 79112, Note_on_c, 0, 56, 0
2, 79123, Note_on_c, 0, 73, 0
2, 79127, Note_on_c, 0, 85, 0
2, 79132, Note_on_c, 0, 56, 54
2, 79132, Note_on_c, 0, 60, 80
2, 79138, Note_on_c, 0, 60, 0
2, 79143, Note_on_c, 0, 56, 0
2, 79158, Note_on_c, 0, 84, 88
2, 79158, Note_on_c, 0, 72, 99
2, 79169, Note_on_c, 0, 84, 0
2, 79170, Note_on_c, 0, 72, 0
2, 79191, Control_c, 0, 64, 0
2, 79192, Note_on_c, 0, 65, 98
2, 79193, Note_on_c, 0, 49, 72
2, 79195, Note_on_c, 0, 37, 70
2, 79207, Note_on_c, 0, 37, 0
2, 79208, Note_on_c, 0, 49, 0
2, 79217, Control_c, 0, 64, 127
2, 79272, Note_on_c, 0, 58, 73
2, 79276, Note_on_c, 0, 53, 72
2, 79282, Note_on_c, 0, 53, 0
2, 79284, Note_on_c, 0, 58, 0
2, 79296, Control_c, 0, 64, 56
2, 79300, Control_c, 0, 64, 0
2, 79332, Note_on_c, 0, 65, 0
2, 79350, Note_on_c, 0, 48, 104
2, 79351, Note_on_c, 0, 36, 84
2, 79352, Note_on_c, 0, 67, 85
2, 79357, Note_on_c, 0, 36, 0
2, 79361, Control_c, 0, 64, 88
2, 79363, Note_on_c, 0, 48, 0
2, 79363, Control_c, 0, 64, 127
2, 79367, Note_on_c, 0, 67, 0
2, 79371, Note_on_c, 0, 68, 67
2, 79389, Note_on_c, 0, 68, 0
2, 79391, Note_on_c, 0, 67, 66
2, 79397, Note_on_c, 0, 67, 0
2, 79405, Note_on_c, 0, 68, 50
2, 79411, Note_on_c, 0, 67, 70
2, 79416, Note_on_c, 0, 68, 0
2, 79426, Note_on_c, 0, 67, 0
2, 79428, Note_on_c, 0, 60, 91
2, 79428, Note_on_c, 0, 65, 91
2, 79428, Note_on_c, 0, 58, 75
2, 79430, Note_on_c, 0, 52, 73
2, 79433, Note_on_c, 0, 60, 0
2, 79440, Note_on_c, 0, 58, 0
2, 79440, Control_c, 0, 64, 104
2, 79443, Control_c, 0, 64, 56
2, 79445, Note_on_c, 0, 52, 0
2, 79447, Control_c, 0, 64, 24
2, 79451, Control_c, 0, 64, 0
2, 79453, Note_on_c, 0, 65, 0
2, 79462, Note_on_c, 0, 67, 93
2, 79474, Note_on_c, 0, 67, 0
2, 79503, Note_on_c, 0, 68, 91
2, 79510, Note_on_c, 0, 41, 91
2, 79510, Note_on_c, 0, 29, 71
2, 79515, Control_c, 0, 64, 72
2, 79517, Note_on_c, 0, 29, 0
2, 79518, Note_on_c, 0, 68, 0
2, 79518, Control_c, 0, 64, 127
2, 79523, Note_on_c, 0, 41, 0
2, 79526, Note_on_c, 0, 70, 72
2, 79542, Note_on_c, 0, 70, 0
2, 79543, Note_on_c, 0, 68, 64
2, 79549, Note_on_c, 0, 68, 0
2, 79555, Note_on_c, 0, 70, 57
2, 79565, Note_on_c, 0, 68, 71
2, 79575, Note_on_c, 0, 70, 0
2, 79583, Note_on_c, 0, 68, 0
2, 79583, Note_on_c, 0, 60, 88
2, 79583, Note_on_c, 0, 67, 99
2, 79583, Note_on_c, 0, 56, 75
2, 79588, Note_on_c, 0, 53, 63
2, 79589, Note_on_c, 0, 60, 0
2, 79590, Control_c, 0, 64, 104
2, 79593, Note_on_c, 0, 53, 0
2, 79593, Control_c, 0, 64, 56
2, 79595, Note_on_c, 0, 56, 0
2, 79597, Control_c, 0, 64, 0
2, 79603, Note_on_c, 0, 67, 0
2, 79617, Note_on_c, 0, 68, 93
2, 79638, Note_on_c, 0, 68, 0
2, 79660, Note_on_c, 0, 69, 97
2, 79660, Note_on_c, 0, 61, 89
2, 79660, Note_on_c, 0, 51, 90
2, 79661, Note_on_c, 0, 39, 73
2, 79661, Control_c, 0, 64, 127
2, 79663, Note_on_c, 0, 67, 79
2, 79669, Note_on_c, 0, 67, 0
2, 79669, Note_on_c, 0, 39, 0
2, 79671, Note_on_c, 0, 51, 0
2, 79675, Note_on_c, 0, 61, 0
2, 79688, Note_on_c, 0, 69, 0
2, 79698, Note_on_c, 0, 70, 95
2, 79706, Control_c, 0, 64, 72
2, 79708, Control_c, 0, 64, 0
2, 79728, Note_on_c, 0, 70, 0
2, 79736, Note_on_c, 0, 72, 97
2, 79737, Note_on_c, 0, 58, 86
2, 79740, Note_on_c, 0, 61, 77
2, 79740, Note_on_c, 0, 51, 81
2, 79741, Note_on_c, 0, 67, 86
2, 79745, Note_on_c, 0, 51, 0
2, 79748, Note_on_c, 0, 58, 0
2, 79750, Note_on_c, 0, 61, 0
2, 79753, Note_on_c, 0, 72, 0
2, 79758, Note_on_c, 0, 67, 0
2, 79772, Note_on_c, 0, 73, 103
2, 79795, Note_on_c, 0, 73, 0
2, 79811, Note_on_c, 0, 68, 89
2, 79811, Note_on_c, 0, 44, 84
2, 79811, Note_on_c, 0, 72, 107
2, 79812, Note_on_c, 0, 56, 90
2, 79812, Note_on_c, 0, 51, 83
2, 79812, Note_on_c, 0, 60, 94
2, 79819, Note_on_c, 0, 60, 0
2, 79828, Note_on_c, 0, 51, 0
2, 79829, Note_on_c, 0, 72, 0
2, 79829, Note_on_c, 0, 68, 0
2, 79829, Note_on_c, 0, 44, 0
2, 79829, Note_on_c, 0, 56, 0
2, 79890, Note_on_c, 0, 77, 109
2, 79892, Note_on_c, 0, 68, 92
2, 79893, Note_on_c, 0, 58, 49
2, 79896, Note_on_c, 0, 65, 79
2, 79896, Note_on_c, 0, 62, 80
2, 79897, Note_on_c, 0, 59, 84
2, 79897, Control_c, 0, 64, 72
2, 79900, Note_on_c, 0, 58, 0
2, 79901, Control_c, 0, 64, 127
2, 79908, Note_on_c, 0, 68, 0
2, 79909, Note_on_c, 0, 65, 0
2, 79912, Note_on_c, 0, 62, 0
2, 79912, Note_on_c, 0, 59, 0
2, 79916, Note_on_c, 0, 77, 0
2, 79953, Note_on_c, 0, 75, 96
2, 79953, Note_on_c, 0, 68, 81
2, 79955, Note_on_c, 0, 63, 67
2, 79956, Note_on_c, 0, 60, 62
2, 79961, Note_on_c, 0, 63, 0
2, 79961, Control_c, 0, 64, 104
2, 79963, Note_on_c, 0, 60, 0
2, 79964, Note_on_c, 0, 68, 0
2, 79964, Note_on_c, 0, 75, 0
2, 79965, Control_c, 0, 64, 40
2, 79968, Control_c, 0, 64, 0
2, 79971, Note_on_c, 0, 63, 88
2, 79975, Note_on_c, 0, 60, 93
2, 79975, Note_on_c, 0, 75, 101
2, 79976, Note_on_c, 0, 68, 85
2, 79981, Note_on_c, 0, 60, 0
2, 79986, Note_on_c, 0, 63, 0
2, 79991, Note_on_c, 0, 68, 0
2, 80003, Note_on_c, 0, 75, 0
2, 80011, Note_on_c, 0, 68, 102
2, 80053, Note_on_c, 0, 80, 109
2, 80053, Control_c, 0, 64, 104
2, 80056, Note_on_c, 0, 56, 95
2, 80057, Note_on_c, 0, 44, 93
2, 80058, Control_c, 0, 64, 127
2, 80064, Note_on_c, 0, 56, 0
2, 80067, Note_on_c, 0, 44, 0
2, 80077, Note_on_c, 0, 68, 0
2, 80085, Note_on_c, 0, 80, 0
2, 80116, Note_on_c, 0, 79, 96
2, 80118, Note_on_c, 0, 67, 61
2, 80122, Note_on_c, 0, 79, 0
2, 80125, Note_on_c, 0, 67, 0
2, 80130, Control_c, 0, 64, 72
2, 80133, Control_c, 0, 64, 0
2, 80136, Note_on_c, 0, 77, 117
2, 80136, Note_on_c, 0, 65, 112
2, 80140, Note_on_c, 0, 49, 92
2, 80142, Note_on_c, 0, 37, 77
2, 80151, Note_on_c, 0, 65, 0
2, 80152, Control_c, 0, 64, 56
2, 80153, Note_on_c, 0, 37, 0
2, 80153, Note_on_c, 0, 49, 0
2, 80155, Control_c, 0, 64, 127
2, 80166, Note_on_c, 0, 65, 31
2, 80196, Note_on_c, 0, 65, 0
2, 80220, Note_on_c, 0, 58, 77
2, 80222, Note_on_c, 0, 53, 78
2, 80228, Note_on_c, 0, 53, 0
2, 80228, Note_on_c, 0, 77, 0
2, 80233, Note_on_c, 0, 58, 0
2, 80235, Control_c, 0, 64, 104
2, 80238, Control_c, 0, 64, 72
2, 80242, Control_c, 0, 64, 56
2, 80246, Control_c, 0, 64, 40
2, 80250, Control_c, 0, 64, 24
2, 80253, Control_c, 0, 64, 0
2, 80288, Note_on_c, 0, 67, 89
2, 80297, Note_on_c, 0, 48, 107
2, 80298, Note_on_c, 0, 36, 84
2, 80302, Control_c, 0, 64, 88
2, 80305, Note_on_c, 0, 36, 0
2, 80306, Control_c, 0, 64, 127
2, 80310, Note_on_c, 0, 67, 0
2, 80311, Note_on_c, 0, 79, 82
2, 80313, Note_on_c, 0, 48, 0
2, 80327, Note_on_c, 0, 79, 0
2, 80337, Note_on_c, 0, 80, 85
2, 80352, Note_on_c, 0, 79, 80
2, 80358, Note_on_c, 0, 79, 0
2, 80360, Note_on_c, 0, 80, 0
2, 80373, Note_on_c, 0, 64, 89
2, 80376, Note_on_c, 0, 58, 67
2, 80377, Note_on_c, 0, 77, 112
2, 80377, Note_on_c, 0, 60, 72
2, 80377, Note_on_c, 0, 65, 104
2, 80379, Note_on_c, 0, 64, 0
2, 80381, Control_c, 0, 64, 104
2, 80383, Note_on_c, 0, 60, 0
2, 80385, Note_on_c, 0, 77, 0
2, 80385, Control_c, 0, 64, 56
2, 80388, Note_on_c, 0, 58, 0
2, 80388, Note_on_c, 0, 65, 0
2, 80388, Control_c, 0, 64, 0
2, 80412, Note_on_c, 0, 79, 113
2, 80415, Note_on_c, 0, 67, 88
2, 80421, Note_on_c, 0, 67, 0
2, 80430, Note_on_c, 0, 79, 0
2, 80448, Control_c, 0, 64, 72
2, 80451, Note_on_c, 0, 68, 101
2, 80451, Note_on_c, 0, 29, 72
2, 80451, Note_on_c, 0, 41, 77
2, 80452, Control_c, 0, 64, 127
2, 80457, Note_on_c, 0, 29, 0
2, 80467, Note_on_c, 0, 41, 0
2, 80473, Note_on_c, 0, 80, 74
2, 80474, Note_on_c, 0, 68, 0
2, 80486, Note_on_c, 0, 80, 0
2, 80491, Note_on_c, 0, 82, 75
2, 80508, Note_on_c, 0, 80, 74
2, 80512, Note_on_c, 0, 82, 0
2, 80521, Note_on_c, 0, 80, 0
2, 80530, Note_on_c, 0, 79, 102
2, 80530, Note_on_c, 0, 67, 93
2, 80531, Note_on_c, 0, 65, 81
2, 80532, Note_on_c, 0, 60, 80
2, 80536, Note_on_c, 0, 56, 53
2, 80537, Note_on_c, 0, 65, 0
2, 80538, Note_on_c, 0, 60, 0
2, 80540, Control_c, 0, 64, 88
2, 80543, Note_on_c, 0, 56, 0
2, 80543, Note_on_c, 0, 67, 0
2, 80543, Control_c, 0, 64, 40
2, 80545, Note_on_c, 0, 79, 0
2, 80546, Control_c, 0, 64, 0
2, 80567, Note_on_c, 0, 80, 105
2, 80568, Note_on_c, 0, 68, 97
2, 80581, Note_on_c, 0, 68, 0
2, 80588, Note_on_c, 0, 80, 0
2, 80606, Control_c, 0, 64, 40
2, 80608, Note_on_c, 0, 81, 106
2, 80608, Note_on_c, 0, 75, 93
2, 80608, Note_on_c, 0, 69, 98
2, 80608, Note_on_c, 0, 39, 71
2, 80610, Note_on_c, 0, 51, 87
2, 80610, Control_c, 0, 64, 127
2, 80618, Note_on_c, 0, 39, 0
2, 80619, Note_on_c, 0, 69, 0
2, 80620, Note_on_c, 0, 51, 0
2, 80620, Note_on_c, 0, 81, 0
2, 80624, Note_on_c, 0, 75, 0
2, 80642, Note_on_c, 0, 70, 94
2, 80643, Note_on_c, 0, 82, 101
2, 80658, Note_on_c, 0, 70, 0
2, 80660, Note_on_c, 0, 82, 0
2, 80681, Control_c, 0, 64, 104
2, 80682, Note_on_c, 0, 84, 103
2, 80682, Note_on_c, 0, 79, 98
2, 80683, Note_on_c, 0, 72, 102
2, 80685, Note_on_c, 0, 67, 80
2, 80685, Note_on_c, 0, 61, 74
2, 80685, Note_on_c, 0, 63, 67
2, 80685, Control_c, 0, 64, 72
2, 80688, Control_c, 0, 64, 56
2, 80692, Control_c, 0, 64, 40
2, 80693, Note_on_c, 0, 72, 0
2, 80696, Note_on_c, 0, 63, 0
2, 80696, Control_c, 0, 64, 24
2, 80697, Note_on_c, 0, 67, 0
2, 80697, Note_on_c, 0, 61, 0
2, 80697, Note_on_c, 0, 84, 0
2, 80698, Note_on_c, 0, 79, 0
2, 80700, Control_c, 0, 64, 0
2, 80716, Note_on_c, 0, 85, 102
2, 80717, Note_on_c, 0, 73, 100
2, 80729, Note_on_c, 0, 73, 0
2, 80738, Note_on_c, 0, 85, 0
2, 80756, Note_on_c, 0, 80, 101
2, 80756, Note_on_c, 0, 72, 117
2, 80756, Note_on_c, 0, 84, 110
2, 80756, Note_on_c, 0, 75, 100
2, 80756, Note_on_c, 0, 56, 82
2, 80756, Note_on_c, 0, 68, 94
2, 80756, Control_c, 0, 64, 72
2, 80760, Control_c, 0, 64, 127
2, 80762, Note_on_c, 0, 63, 69
2, 80767, Note_on_c, 0, 75, 0
2, 80767, Note_on_c, 0, 72, 0
2, 80768, Note_on_c, 0, 63, 0
2, 80769, Note_on_c, 0, 56, 0
2, 80771, Note_on_c, 0, 68, 0
2, 80773, Note_on_c, 0, 80, 0
2, 80774, Note_on_c, 0, 84, 0
2, 80793, Control_c, 0, 64, 88
2, 80798, Control_c, 0, 64, 40
2, 80802, Control_c, 0, 64, 0
2, 80838, Note_on_c, 0, 89, 110
2, 80840, Note_on_c, 0, 80, 99
2, 80840, Note_on_c, 0, 77, 110
2, 80841, Note_on_c, 0, 59, 86
2, 80841, Note_on_c, 0, 68, 87
2, 80841, Note_on_c, 0, 62, 84
2, 80842, Note_on_c, 0, 71, 90
2, 80842, Control_c, 0, 64, 56
2, 80845, Note_on_c, 0, 86, 72
2, 80846, Control_c, 0, 64, 127
2, 80852, Note_on_c, 0, 86, 0
2, 80853, Note_on_c, 0, 62, 0
2, 80853, Note_on_c, 0, 59, 0
2, 80853, Note_on_c, 0, 68, 0
2, 80855, Note_on_c, 0, 71, 0
2, 80856, Note_on_c, 0, 77, 0
2, 80856, Note_on_c, 0, 89, 0
2, 80865, Note_on_c, 0, 80, 0
2, 80878, Note_on_c, 0, 63, 40
2, 80886, Note_on_c, 0, 63, 0
2, 80900, Note_on_c, 0, 87, 96
2, 80900, Note_on_c, 0, 75, 91
2, 80901, Note_on_c, 0, 80, 74
2, 80901, Note_on_c, 0, 63, 65
2, 80903, Note_on_c, 0, 68, 84
2, 80905, Note_on_c, 0, 87, 0
2, 80905, Note_on_c, 0, 72, 88
2, 80905, Note_on_c, 0, 60, 80
2, 80907, Note_on_c, 0, 75, 0
2, 80907, Note_on_c, 0, 80, 0
2, 80907, Control_c, 0, 64, 40
2, 80910, Control_c, 0, 64, 0
2, 80911, Note_on_c, 0, 72, 0
2, 80911, Note_on_c, 0, 60, 0
2, 80914, Note_on_c, 0, 63, 0
2, 80914, Note_on_c, 0, 68, 0
2, 80918, Note_on_c, 0, 75, 98
2, 80920, Note_on_c, 0, 87, 103
2, 80922, Note_on_c, 0, 80, 66
2, 80923, Note_on_c, 0, 72, 84
2, 80925, Note_on_c, 0, 60, 73
2, 80926, Note_on_c, 0, 63, 85
2, 80926, Note_on_c, 0, 68, 75
2, 80926, Control_c, 0, 64, 104
2, 80927, Note_on_c, 0, 80, 0
2, 80929, Note_on_c, 0, 72, 0
2, 80930, Control_c, 0, 64, 127
2, 80931, Note_on_c, 0, 68, 0
2, 80932, Note_on_c, 0, 60, 0
2, 80936, Note_on_c, 0, 63, 0
2, 80939, Note_on_c, 0, 75, 0
2, 80947, Note_on_c, 0, 87, 0
2, 80978, Note_on_c, 0, 87, 99
2, 80982, Note_on_c, 0, 53, 80
2, 80985, Note_on_c, 0, 73, 55
2, 80990, Control_c, 0, 64, 104
2, 80991, Note_on_c, 0, 73, 0
2, 80992, Control_c, 0, 64, 0
2, 80993, Note_on_c, 0, 63, 85
2, 80994, Note_on_c, 0, 53, 0
2, 80994, Note_on_c, 0, 87, 0
2, 80998, Note_on_c, 0, 87, 70
2, 80998, Note_on_c, 0, 73, 99
2, 81001, Note_on_c, 0, 69, 96
2, 81001, Note_on_c, 0, 85, 91
2, 81001, Note_on_c, 0, 81, 91
2, 81003, Control_c, 0, 64, 24
2, 81005, Note_on_c, 0, 67, 58
2, 81007, Note_on_c, 0, 69, 0
2, 81008, Note_on_c, 0, 81, 0
2, 81008, Control_c, 0, 64, 104
2, 81009, Note_on_c, 0, 63, 0
2, 81011, Note_on_c, 0, 73, 0
2, 81012, Note_on_c, 0, 67, 0
2, 81012, Control_c, 0, 64, 127
2, 81013, Note_on_c, 0, 87, 0
2, 81023, Note_on_c, 0, 85, 0
2, 81052, Note_on_c, 0, 84, 106
2, 81052, Note_on_c, 0, 72, 100
2, 81065, Note_on_c, 0, 46, 89
2, 81067, Note_on_c, 0, 84, 0
2, 81068, Note_on_c, 0, 72, 0
2, 81075, Control_c, 0, 64, 0
2, 81077, Note_on_c, 0, 53, 49
2, 81082, Note_on_c, 0, 77, 98
2, 81082, Note_on_c, 0, 61, 66
2, 81082, Note_on_c, 0, 70, 90
2, 81083, Note_on_c, 0, 53, 0
2, 81083, Note_on_c, 0, 82, 85
2, 81086, Note_on_c, 0, 46, 0
2, 81093, Note_on_c, 0, 70, 0
2, 81095, Note_on_c, 0, 61, 0
2, 81095, Control_c, 0, 64, 127
2, 81097, Note_on_c, 0, 77, 0
2, 81098, Note_on_c, 0, 82, 0
2, 81141, Note_on_c, 0, 51, 72
2, 81148, Note_on_c, 0, 58, 47
2, 81160, Note_on_c, 0, 82, 106
2, 81161, Note_on_c, 0, 70, 97
2, 81161, Note_on_c, 0, 66, 77
2, 81161, Note_on_c, 0, 78, 87
2, 81161, Control_c, 0, 64, 24
2, 81165, Control_c, 0, 64, 72
2, 81168, Control_c, 0, 64, 127
2, 81173, Note_on_c, 0, 51, 0
2, 81174, Note_on_c, 0, 66, 0
2, 81174, Note_on_c, 0, 70, 0
2, 81174, Note_on_c, 0, 78, 0
2, 81178, Note_on_c, 0, 58, 0
2, 81186, Note_on_c, 0, 82, 0
2, 81217, Note_on_c, 0, 84, 94
2, 81217, Note_on_c, 0, 72, 85
2, 81225, Note_on_c, 0, 77, 52
2, 81232, Note_on_c, 0, 77, 0
2, 81232, Note_on_c, 0, 72, 0
2, 81234, Note_on_c, 0, 84, 0
2, 81237, Control_c, 0, 64, 72
2, 81241, Control_c, 0, 64, 0
2, 81242, Note_on_c, 0, 77, 100
2, 81242, Note_on_c, 0, 85, 109
2, 81243, Note_on_c, 0, 46, 85
2, 81243, Note_on_c, 0, 73, 94
2, 81247, Note_on_c, 0, 53, 73
2, 81256, Note_on_c, 0, 61, 79
2, 81262, Control_c, 0, 64, 56
2, 81263, Note_on_c, 0, 53, 0
2, 81265, Note_on_c, 0, 46, 0
2, 81265, Note_on_c, 0, 77, 0
2, 81266, Note_on_c, 0, 61, 0
2, 81266, Control_c, 0, 64, 127
2, 81268, Note_on_c, 0, 85, 0
2, 81271, Note_on_c, 0, 73, 0
2, 81313, Note_on_c, 0, 39, 71
2, 81316, Control_c, 0, 64, 88
2, 81320, Control_c, 0, 64, 0
2, 81321, Note_on_c, 0, 46, 69
2, 81326, Note_on_c, 0, 85, 107
2, 81327, Note_on_c, 0, 73, 97
2, 81327, Note_on_c, 0, 78, 83
2, 81328, Note_on_c, 0, 75, 89
2, 81331, Note_on_c, 0, 54, 89
2, 81335, Note_on_c, 0, 39, 0
2, 81341, Note_on_c, 0, 54, 0
2, 81341, Control_c, 0, 64, 88
2, 81343, Note_on_c, 0, 46, 0
2, 81344, Note_on_c, 0, 78, 0
2, 81345, Control_c, 0, 64, 127
2, 81348, Note_on_c, 0, 75, 0
2, 81354, Note_on_c, 0, 73, 0
2, 81357, Note_on_c, 0, 85, 0
2, 81391, Note_on_c, 0, 84, 93
2, 81391, Note_on_c, 0, 72, 85
2, 81406, Note_on_c, 0, 72, 0
2, 81406, Note_on_c, 0, 84, 0
2, 81406, Note_on_c, 0, 34, 78
2, 81410, Note_on_c, 0, 41, 78
2, 81410, Control_c, 0, 64, 40
2, 81412, Note_on_c, 0, 82, 88
2, 81413, Note_on_c, 0, 70, 109
2, 81413, Note_on_c, 0, 77, 106
2, 81413, Control_c, 0, 64, 0
2, 81416, Note_on_c, 0, 73, 75
2, 81421, Note_on_c, 0, 49, 91
2, 81422, Note_on_c, 0, 73, 0
2, 81423, Note_on_c, 0, 34, 0
2, 81426, Note_on_c, 0, 41, 0
2, 81427, Control_c, 0, 64, 72
2, 81431, Control_c, 0, 64, 127
2, 81432, Note_on_c, 0, 82, 0
2, 81433, Note_on_c, 0, 49, 0
2, 81436, Note_on_c, 0, 77, 0
2, 81436, Note_on_c, 0, 70, 0
2, 81496, Note_on_c, 0, 39, 64
2, 81496, Control_c, 0, 64, 56
2, 81500, Control_c, 0, 64, 0
2, 81502, Note_on_c, 0, 46, 65
2, 81506, Note_on_c, 0, 80, 110
2, 81507, Note_on_c, 0, 68, 112
2, 81510, Note_on_c, 0, 75, 90
2, 81510, Note_on_c, 0, 70, 94
2, 81512, Note_on_c, 0, 54, 95
2, 81517, Note_on_c, 0, 39, 0
2, 81521, Control_c, 0, 64, 127
2, 81523, Note_on_c, 0, 46, 0
2, 81527, Note_on_c, 0, 54, 0
2, 81534, Note_on_c, 0, 80, 0
2, 81540, Note_on_c, 0, 68, 0
2, 81541, Note_on_c, 0, 75, 0
2, 81562, Note_on_c, 0, 70, 0
2, 81591, Note_on_c, 0, 70, 71
2, 81591, Note_on_c, 0, 66, 97
2, 81591, Note_on_c, 0, 78, 106
2, 81596, Note_on_c, 0, 70, 0
2, 81601, Note_on_c, 0, 66, 0
2, 81602, Note_on_c, 0, 78, 0
2, 81605, Note_on_c, 0, 46, 77
2, 81610, Note_on_c, 0, 53, 80
2, 81612, Note_on_c, 0, 77, 117
2, 81613, Note_on_c, 0, 73, 90
2, 81613, Note_on_c, 0, 70, 85
2, 81613, Note_on_c, 0, 65, 104
2, 81615, Control_c, 0, 64, 88
2, 81618, Control_c, 0, 64, 0
2, 81623, Note_on_c, 0, 61, 83
2, 81636, Note_on_c, 0, 61, 0
2, 81638, Note_on_c, 0, 65, 0
2, 81640, Note_on_c, 0, 53, 0
2, 81640, Control_c, 0, 64, 56
2, 81642, Note_on_c, 0, 77, 0
2, 81643, Note_on_c, 0, 46, 0
2, 81643, Control_c, 0, 64, 127
2, 81645, Note_on_c, 0, 70, 0
2, 81645, Note_on_c, 0, 73, 0
2, 81721, Note_on_c, 0, 45, 89
2, 81721, Note_on_c, 0, 33, 84
2, 81730, Control_c, 0, 64, 104
2, 81732, Control_c, 0, 64, 72
2, 81736, Control_c, 0, 64, 40
2, 81740, Control_c, 0, 64, 0
2, 81741, Note_on_c, 0, 45, 0
2, 81743, Note_on_c, 0, 33, 0
2, 81747, Note_on_c, 0, 46, 89
2, 81747, Note_on_c, 0, 34, 81
2, 81764, Note_on_c, 0, 34, 0
2, 81767, Note_on_c, 0, 46, 0
2, 81767, Note_on_c, 0, 36, 83
2, 81767, Note_on_c, 0, 48, 98
2, 81790, Note_on_c, 0, 48, 0
2, 81793, Note_on_c, 0, 49, 92
2, 81793, Note_on_c, 0, 37, 87
2, 81799, Note_on_c, 0, 36, 0
2, 81816, Note_on_c, 0, 49, 0
2, 81816, Note_on_c, 0, 51, 92
2, 81816, Note_on_c, 0, 39, 71
2, 81821, Note_on_c, 0, 37, 0
2, 81833, Note_on_c, 0, 51, 0
2, 81838, Note_on_c, 0, 53, 98
2, 81838, Note_on_c, 0, 41, 83
2, 81841, Note_on_c, 0, 39, 0
2, 81858, Note_on_c, 0, 41, 0
2, 81863, Note_on_c, 0, 55, 102
2, 81863, Note_on_c, 0, 43, 88
2, 81864, Note_on_c, 0, 53, 0
2, 81887, Note_on_c, 0, 57, 96
2, 81887, Note_on_c, 0, 45, 93
2, 81894, Note_on_c, 0, 55, 0
2, 81895, Note_on_c, 0, 43, 0
2, 81910, Note_on_c, 0, 46, 95
2, 81910, Note_on_c, 0, 58, 88
2, 81912, Note_on_c, 0, 45, 0
2, 81919, Note_on_c, 0, 57, 0
2, 81923, Note_on_c, 0, 58, 0
2, 81930, Note_on_c, 0, 46, 0
2, 81935, Note_on_c, 0, 60, 90
2, 81935, Note_on_c, 0, 48, 97
2, 81953, Note_on_c, 0, 61, 93
2, 81953, Note_on_c, 0, 49, 91
2, 81957, Note_on_c, 0, 60, 0
2, 81963, Note_on_c, 0, 48, 0
2, 81976, Note_on_c, 0, 63, 91
2, 81976, Note_on_c, 0, 51, 79
2, 81978, Note_on_c, 0, 49, 0
2, 81979, Note_on_c, 0, 61, 0
2, 81994, Note_on_c, 0, 63, 0
2, 81996, Note_on_c, 0, 51, 0
2, 81998, Note_on_c, 0, 65, 96
2, 81998, Note_on_c, 0, 53, 97
2, 82016, Note_on_c, 0, 53, 0
2, 82022, Note_on_c, 0, 67, 98
2, 82022, Note_on_c, 0, 55, 91
2, 82026, Note_on_c, 0, 65, 0
2, 82045, Note_on_c, 0, 69, 97
2, 82045, Note_on_c, 0, 57, 86
2, 82054, Note_on_c, 0, 55, 0
2, 82057, Note_on_c, 0, 67, 0
2, 82065, Note_on_c, 0, 57, 0
2, 82066, Note_on_c, 0, 70, 90
2, 82066, Note_on_c, 0, 58, 87
2, 82076, Note_on_c, 0, 69, 0
2, 82078, Note_on_c, 0, 70, 0
2, 82083, Note_on_c, 0, 58, 0
2, 82088, Note_on_c, 0, 72, 103
2, 82088, Note_on_c, 0, 60, 92
2, 82106, Note_on_c, 0, 72, 0
2, 82107, Note_on_c, 0, 73, 98
2, 82107, Note_on_c, 0, 61, 89
2, 82111, Note_on_c, 0, 60, 0
2, 82123, Note_on_c, 0, 75, 94
2, 82123, Note_on_c, 0, 63, 75
2, 82129, Note_on_c, 0, 61, 0
2, 82135, Note_on_c, 0, 73, 0
2, 82143, Note_on_c, 0, 75, 0
2, 82145, Note_on_c, 0, 63, 0
2, 82147, Note_on_c, 0, 77, 104
2, 82147, Note_on_c, 0, 65, 92
2, 82165, Note_on_c, 0, 65, 0
2, 82170, Note_on_c, 0, 67, 85
2, 82170, Note_on_c, 0, 79, 107
2, 82175, Note_on_c, 0, 77, 0
2, 82193, Note_on_c, 0, 81, 98
2, 82193, Note_on_c, 0, 69, 88
2, 82200, Note_on_c, 0, 67, 0
2, 82203, Note_on_c, 0, 79, 0
2, 82213, Note_on_c, 0, 82, 92
2, 82213, Note_on_c, 0, 70, 94
2, 82214, Note_on_c, 0, 69, 0
2, 82220, Note_on_c, 0, 81, 0
2, 82224, Note_on_c, 0, 82, 0
2, 82230, Note_on_c, 0, 70, 0
2, 82235, Note_on_c, 0, 84, 99
2, 82235, Note_on_c, 0, 72, 92
2, 82253, Note_on_c, 0, 85, 100
2, 82253, Note_on_c, 0, 73, 91
2, 82257, Note_on_c, 0, 84, 0
2, 82266, Note_on_c, 0, 72, 0
2, 82273, Note_on_c, 0, 87, 95
2, 82273, Note_on_c, 0, 75, 74
2, 82276, Note_on_c, 0, 85, 0
2, 82276, Note_on_c, 0, 73, 0
2, 82290, Note_on_c, 0, 87, 0
2, 82295, Note_on_c, 0, 75, 0
2, 82296, Note_on_c, 0, 89, 97
2, 82296, Note_on_c, 0, 77, 92
2, 82314, Note_on_c, 0, 77, 0
2, 82318, Note_on_c, 0, 91, 102
2, 82318, Note_on_c, 0, 79, 87
2, 82322, Note_on_c, 0, 89, 0
2, 82343, Note_on_c, 0, 81, 90
2, 82343, Note_on_c, 0, 93, 109
2, 82345, Note_on_c, 0, 79, 0
2, 82351, Note_on_c, 0, 91, 0
2, 82363, Note_on_c, 0, 81, 0
2, 82367, Note_on_c, 0, 82, 100
2, 82367, Note_on_c, 0, 94, 101
2, 82379, Note_on_c, 0, 82, 0
2, 82379, Note_on_c, 0, 93, 0
2, 82387, Control_c, 0, 64, 72
2, 82391, Control_c, 0, 64, 127
2, 82392, Note_on_c, 0, 94, 0
2, 82427, Control_c, 0, 64, 104
2, 82431, Control_c, 0, 64, 40
2, 82435, Control_c, 0, 64, 0
2, 82450, Note_on_c, 0, 96, 107
2, 82450, Note_on_c, 0, 85, 103
2, 82450, Note_on_c, 0, 91, 103
2, 82451, Note_on_c, 0, 94, 95
2, 82452, Note_on_c, 0, 39, 89
2, 82455, Note_on_c, 0, 27, 93
2, 82456, Control_c, 0, 64, 88
2, 82460, Control_c, 0, 64, 127
2, 82467, Note_on_c, 0, 85, 0
2, 82467, Note_on_c, 0, 96, 0
2, 82468, Note_on_c, 0, 39, 0
2, 82472, Note_on_c, 0, 91, 0
2, 82472, Note_on_c, 0, 27, 0
2, 82473, Note_on_c, 0, 94, 0
2, 82486, Note_on_c, 0, 91, 92
2, 82486, Note_on_c, 0, 93, 102
2, 82487, Note_on_c, 0, 84, 92
2, 82488, Note_on_c, 0, 94, 63
2, 82493, Note_on_c, 0, 84, 0
2, 82494, Note_on_c, 0, 94, 0
2, 82501, Note_on_c, 0, 93, 0
2, 82506, Note_on_c, 0, 91, 0
2, 82525, Note_on_c, 0, 94, 110
2, 82526, Note_on_c, 0, 85, 102
2, 82526, Note_on_c, 0, 91, 102
2, 82527, Control_c, 0, 64, 40
2, 82530, Note_on_c, 0, 51, 92
2, 82531, Control_c, 0, 64, 0
2, 82535, Note_on_c, 0, 39, 35
2, 82540, Note_on_c, 0, 51, 0
2, 82541, Note_on_c, 0, 39, 0
2, 82542, Control_c, 0, 64, 56
2, 82544, Note_on_c, 0, 85, 0
2, 82546, Control_c, 0, 64, 127
2, 82547, Note_on_c, 0, 91, 0
2, 82553, Note_on_c, 0, 94, 0
2, 82605, Note_on_c, 0, 96, 115
2, 82606, Note_on_c, 0, 84, 107
2, 82606, Note_on_c, 0, 91, 107
2, 82607, Note_on_c, 0, 75, 100
2, 82607, Note_on_c, 0, 63, 83
2, 82610, Control_c, 0, 64, 104
2, 82613, Control_c, 0, 64, 56
2, 82617, Control_c, 0, 64, 72
2, 82621, Control_c, 0, 64, 127
2, 82623, Note_on_c, 0, 63, 0
2, 82623, Note_on_c, 0, 91, 0
2, 82623, Note_on_c, 0, 96, 0
2, 82625, Note_on_c, 0, 75, 0
2, 82626, Note_on_c, 0, 84, 0
2, 82682, Note_on_c, 0, 92, 116
2, 82683, Note_on_c, 0, 80, 102
2, 82685, Note_on_c, 0, 72, 93
2, 82685, Note_on_c, 0, 77, 95
2, 82685, Note_on_c, 0, 84, 90
2, 82686, Control_c, 0, 64, 104
2, 82687, Note_on_c, 0, 65, 80
2, 82690, Control_c, 0, 64, 40
2, 82692, Control_c, 0, 64, 24
2, 82697, Control_c, 0, 64, 56
2, 82700, Control_c, 0, 64, 127
2, 82701, Note_on_c, 0, 77, 0
2, 82703, Note_on_c, 0, 72, 0
2, 82704, Note_on_c, 0, 80, 0
2, 82704, Note_on_c, 0, 65, 0
2, 82707, Note_on_c, 0, 92, 0
2, 82708, Note_on_c, 0, 84, 0
2, 82765, Note_on_c, 0, 87, 113
2, 82765, Note_on_c, 0, 75, 103
2, 82766, Note_on_c, 0, 80, 99
2, 82770, Note_on_c, 0, 68, 89
2, 82771, Note_on_c, 0, 60, 80
2, 82771, Note_on_c, 0, 72, 87
2, 82780, Control_c, 0, 64, 72
2, 82783, Control_c, 0, 64, 0
2, 82787, Note_on_c, 0, 60, 0
2, 82790, Note_on_c, 0, 75, 0
2, 82793, Control_c, 0, 64, 56
2, 82796, Note_on_c, 0, 68, 0
2, 82796, Note_on_c, 0, 72, 0
2, 82797, Control_c, 0, 64, 127
2, 82798, Note_on_c, 0, 80, 0
2, 82801, Note_on_c, 0, 87, 0
2, 82851, Note_on_c, 0, 89, 112
2, 82851, Note_on_c, 0, 80, 95
2, 82852, Note_on_c, 0, 77, 106
2, 82853, Note_on_c, 0, 68, 85
2, 82855, Note_on_c, 0, 73, 95
2, 82855, Note_on_c, 0, 61, 81
2, 82855, Control_c, 0, 64, 24
2, 82858, Note_on_c, 0, 85, 53
2, 82858, Control_c, 0, 64, 0
2, 82864, Note_on_c, 0, 85, 0
2, 82867, Note_on_c, 0, 73, 0
2, 82868, Control_c, 0, 64, 72
2, 82869, Note_on_c, 0, 68, 0
2, 82869, Note_on_c, 0, 77, 0
2, 82869, Note_on_c, 0, 89, 0
2, 82871, Note_on_c, 0, 61, 0
2, 82872, Control_c, 0, 64, 127
2, 82876, Note_on_c, 0, 80, 0
2, 82922, Control_c, 0, 64, 72
2, 82926, Control_c, 0, 64, 24
2, 82928, Note_on_c, 0, 87, 105
2, 82930, Note_on_c, 0, 75, 101
2, 82930, Control_c, 0, 64, 0
2, 82931, Note_on_c, 0, 80, 93
2, 82931, Note_on_c, 0, 68, 81
2, 82933, Note_on_c, 0, 72, 86
2, 82933, Note_on_c, 0, 60, 78
2, 82940, Control_c, 0, 64, 24
2, 82943, Note_on_c, 0, 60, 0
2, 82943, Control_c, 0, 64, 72
2, 82944, Note_on_c, 0, 72, 0
2, 82947, Control_c, 0, 64, 127
2, 82949, Note_on_c, 0, 68, 0
2, 82951, Note_on_c, 0, 80, 0
2, 82952, Note_on_c, 0, 75, 0
2, 82953, Note_on_c, 0, 87, 0
2, 83008, Note_on_c, 0, 84, 115
2, 83008, Control_c, 0, 64, 56
2, 83010, Note_on_c, 0, 75, 99
2, 83010, Note_on_c, 0, 68, 93
2, 83010, Note_on_c, 0, 72, 100
2, 83010, Note_on_c, 0, 56, 77
2, 83010, Note_on_c, 0, 63, 82
2, 83012, Control_c, 0, 64, 0
2, 83023, Note_on_c, 0, 68, 0
2, 83023, Control_c, 0, 64, 24
2, 83025, Note_on_c, 0, 63, 0
2, 83026, Note_on_c, 0, 84, 0
2, 83026, Control_c, 0, 64, 88
2, 83030, Note_on_c, 0, 56, 0
2, 83030, Note_on_c, 0, 75, 0
2, 83030, Control_c, 0, 64, 127
2, 83031, Note_on_c, 0, 72, 0
2, 83087, Control_c, 0, 64, 88
2, 83090, Note_on_c, 0, 80, 112
2, 83091, Note_on_c, 0, 72, 104
2, 83091, Note_on_c, 0, 68, 97
2, 83091, Control_c, 0, 64, 0
2, 83092, Note_on_c, 0, 60, 86
2, 83092, Note_on_c, 0, 65, 85
2, 83092, Note_on_c, 0, 53, 84
2, 83104, Note_on_c, 0, 65, 0
2, 83106, Control_c, 0, 64, 40
2, 83107, Note_on_c, 0, 60, 0
2, 83107, Note_on_c, 0, 53, 0
2, 83108, Control_c, 0, 64, 127
2, 83112, Note_on_c, 0, 72, 0
2, 83114, Note_on_c, 0, 68, 0
2, 83118, Note_on_c, 0, 80, 0
2, 83173, Note_on_c, 0, 77, 117
2, 83173, Control_c, 0, 64, 104
2, 83175, Note_on_c, 0, 65, 98
2, 83175, Note_on_c, 0, 68, 95
2, 83176, Note_on_c, 0, 61, 87
2, 83176, Note_on_c, 0, 49, 82
2, 83177, Note_on_c, 0, 56, 83
2, 83177, Control_c, 0, 64, 24
2, 83181, Control_c, 0, 64, 0
2, 83195, Control_c, 0, 64, 72
2, 83197, Note_on_c, 0, 49, 0
2, 83197, Note_on_c, 0, 61, 0
2, 83198, Note_on_c, 0, 56, 0
2, 83198, Control_c, 0, 64, 127
2, 83199, Note_on_c, 0, 77, 0
2, 83205, Note_on_c, 0, 68, 0
2, 83205, Note_on_c, 0, 65, 0
2, 83263, Control_c, 0, 64, 104
2, 83267, Control_c, 0, 64, 24
2, 83268, Note_on_c, 0, 75, 110
2, 83270, Note_on_c, 0, 63, 103
2, 83270, Note_on_c, 0, 51, 88
2, 83271, Note_on_c, 0, 61, 97
2, 83271, Note_on_c, 0, 70, 91
2, 83271, Note_on_c, 0, 67, 94
2, 83271, Control_c, 0, 64, 0
2, 83272, Note_on_c, 0, 58, 77
2, 83284, Note_on_c, 0, 61, 0
2, 83285, Control_c, 0, 64, 88
2, 83287, Note_on_c, 0, 58, 0
2, 83288, Control_c, 0, 64, 127
2, 83291, Note_on_c, 0, 51, 0
2, 83293, Note_on_c, 0, 67, 0
2, 83296, Note_on_c, 0, 75, 0
2, 83296, Note_on_c, 0, 63, 0
2, 83299, Note_on_c, 0, 70, 0
2, 83363, Control_c, 0, 64, 40
2, 83367, Control_c, 0, 64, 0
2, 83368, Note_on_c, 0, 72, 112
2, 83368, Note_on_c, 0, 68, 87
2, 83368, Note_on_c, 0, 60, 99
2, 83368, Note_on_c, 0, 63, 88
2, 83372, Note_on_c, 0, 44, 101
2, 83373, Note_on_c, 0, 32, 89
2, 83386, Note_on_c, 0, 32, 0
2, 83386, Control_c, 0, 64, 56
2, 83387, Note_on_c, 0, 44, 0
2, 83388, Control_c, 0, 64, 127
2, 83401, Note_on_c, 0, 72, 0
2, 83404, Note_on_c, 0, 68, 0
2, 83405, Note_on_c, 0, 63, 0
2, 83413, Note_on_c, 0, 60, 0
2, 83465, Note_on_c, 0, 63, 91
2, 83466, Note_on_c, 0, 51, 75
2, 83467, Note_on_c, 0, 60, 78
2, 83467, Note_on_c, 0, 56, 61
2, 83474, Note_on_c, 0, 56, 0
2, 83479, Note_on_c, 0, 60, 0
2, 83481, Note_on_c, 0, 51, 0
2, 83486, Note_on_c, 0, 63, 0
2, 83493, Note_on_c, 0, 65, 93
2, 83513, Note_on_c, 0, 65, 0
2, 83515, Note_on_c, 0, 63, 78
2, 83533, Control_c, 0, 64, 88
2, 83536, Control_c, 0, 64, 0
2, 83541, Note_on_c, 0, 59, 92
2, 83541, Note_on_c, 0, 56, 80
2, 83541, Note_on_c, 0, 62, 109
2, 83542, Note_on_c, 0, 63, 0
2, 83542, Note_on_c, 0, 53, 80
2, 83552, Note_on_c, 0, 59, 0
2, 83554, Note_on_c, 0, 53, 0
2, 83554, Note_on_c, 0, 56, 0
2, 83561, Control_c, 0, 64, 104
2, 83565, Control_c, 0, 64, 127
2, 83611, Note_on_c, 0, 62, 0
2, 83623, Note_on_c, 0, 53, 88
2, 83623, Note_on_c, 0, 65, 94
2, 83625, Note_on_c, 0, 41, 74
2, 83628, Note_on_c, 0, 53, 0
2, 83636, Note_on_c, 0, 41, 0
2, 83645, Note_on_c, 0, 65, 0
2, 83652, Note_on_c, 0, 68, 83
2, 83677, Note_on_c, 0, 71, 87
2, 83688, Note_on_c, 0, 68, 0
2, 83692, Note_on_c, 0, 71, 0
2, 83700, Note_on_c, 0, 41, 93
2, 83702, Note_on_c, 0, 29, 85
2, 83706, Note_on_c, 0, 74, 100
2, 83717, Note_on_c, 0, 29, 0
2, 83720, Note_on_c, 0, 41, 0
2, 83724, Note_on_c, 0, 74, 0
2, 83735, Note_on_c, 0, 77, 100
2, 83752, Note_on_c, 0, 80, 79
2, 83778, Note_on_c, 0, 40, 87
2, 83778, Note_on_c, 0, 28, 82
2, 83780, Note_on_c, 0, 77, 0
2, 83780, Note_on_c, 0, 83, 84
2, 83789, Note_on_c, 0, 80, 0
2, 83795, Note_on_c, 0, 28, 0
2, 83795, Note_on_c, 0, 40, 0
2, 83795, Note_on_c, 0, 83, 0
2, 83810, Note_on_c, 0, 86, 107
2, 83825, Note_on_c, 0, 98, 100
2, 83826, Note_on_c, 0, 86, 0
2, 83840, Note_on_c, 0, 98, 0
2, 83846, Control_c, 0, 64, 88
2, 83850, Control_c, 0, 64, 24
2, 83852, Control_c, 0, 64, 0
2, 83856, Note_on_c, 0, 87, 110
2, 83857, Note_on_c, 0, 99, 110
2, 83860, Note_on_c, 0, 39, 110
2, 83860, Note_on_c, 0, 27, 100
2, 83862, Note_on_c, 0, 97, 45
2, 83865, Note_on_c, 0, 32, 52
2, 83868, Note_on_c, 0, 97, 0
2, 83869, Note_on_c, 0, 87, 0
2, 83870, Note_on_c, 0, 99, 0
2, 83871, Note_on_c, 0, 27, 0
2, 83871, Note_on_c, 0, 32, 0
2, 83871, Control_c, 0, 64, 56
2, 83873, Note_on_c, 0, 39, 0
2, 83873, Control_c, 0, 64, 127
2, 83943, Note_on_c, 0, 82, 99
2, 83943, Note_on_c, 0, 70, 94
2, 83945, Note_on_c, 0, 67, 84
2, 83945, Note_on_c, 0, 75, 85
2, 83947, Note_on_c, 0, 63, 56
2, 83947, Note_on_c, 0, 61, 54
2, 83948, Note_on_c, 0, 58, 57
2, 83953, Note_on_c, 0, 61, 0
2, 83954, Note_on_c, 0, 63, 0
2, 83956, Note_on_c, 0, 70, 0
2, 83958, Note_on_c, 0, 75, 0
2, 83958, Note_on_c, 0, 58, 0
2, 83959, Note_on_c, 0, 82, 0
2, 83960, Note_on_c, 0, 67, 0
2, 83975, Note_on_c, 0, 82, 98
2, 83976, Note_on_c, 0, 70, 95
2, 83976, Note_on_c, 0, 75, 87
2, 83977, Note_on_c, 0, 67, 79
2, 83978, Note_on_c, 0, 58, 63
2, 83980, Note_on_c, 0, 63, 55
2, 83981, Note_on_c, 0, 61, 47
2, 83987, Note_on_c, 0, 61, 0
2, 83987, Note_on_c, 0, 63, 0
2, 83989, Note_on_c, 0, 70, 0
2, 83990, Note_on_c, 0, 67, 0
2, 83990, Note_on_c, 0, 58, 0
2, 83993, Note_on_c, 0, 75, 0
2, 83993, Note_on_c, 0, 82, 0
2, 84010, Note_on_c, 0, 82, 102
2, 84011, Note_on_c, 0, 70, 99
2, 84011, Note_on_c, 0, 75, 92
2, 84016, Note_on_c, 0, 67, 92
2, 84016, Note_on_c, 0, 58, 66
2, 84017, Note_on_c, 0, 61, 63
2, 84017, Note_on_c, 0, 63, 56
2, 84024, Note_on_c, 0, 63, 0
2, 84024, Note_on_c, 0, 61, 0
2, 84026, Note_on_c, 0, 67, 0
2, 84026, Note_on_c, 0, 58, 0
2, 84029, Note_on_c, 0, 70, 0
2, 84034, Note_on_c, 0, 75, 0
2, 84036, Note_on_c, 0, 82, 0
2, 84086, Note_on_c, 0, 81, 99
2, 84087, Note_on_c, 0, 66, 86
2, 84087, Note_on_c, 0, 69, 88
2, 84088, Note_on_c, 0, 75, 88
2, 84090, Note_on_c, 0, 61, 57
2, 84090, Note_on_c, 0, 63, 61
2, 84090, Note_on_c, 0, 58, 53
2, 84097, Note_on_c, 0, 58, 0
2, 84097, Note_on_c, 0, 61, 0
2, 84097, Note_on_c, 0, 63, 0
2, 84098, Note_on_c, 0, 69, 0
2, 84099, Note_on_c, 0, 66, 0
2, 84102, Note_on_c, 0, 81, 0
2, 84104, Note_on_c, 0, 75, 0
2, 84117, Note_on_c, 0, 70, 97
2, 84117, Note_on_c, 0, 82, 95
2, 84121, Note_on_c, 0, 67, 93
2, 84121, Note_on_c, 0, 75, 81
2, 84121, Note_on_c, 0, 61, 67
2, 84122, Note_on_c, 0, 63, 67
2, 84122, Note_on_c, 0, 58, 64
2, 84123, Note_on_c, 0, 70, 0
2, 84127, Note_on_c, 0, 75, 0
2, 84128, Note_on_c, 0, 63, 0
2, 84130, Note_on_c, 0, 58, 0
2, 84131, Note_on_c, 0, 61, 0
2, 84132, Note_on_c, 0, 67, 0
2, 84132, Note_on_c, 0, 82, 0
2, 84151, Control_c, 0, 64, 72
2, 84152, Note_on_c, 0, 84, 107
2, 84152, Note_on_c, 0, 75, 96
2, 84152, Note_on_c, 0, 72, 110
2, 84153, Note_on_c, 0, 68, 97
2, 84153, Note_on_c, 0, 58, 70
2, 84155, Note_on_c, 0, 61, 67
2, 84155, Control_c, 0, 64, 24
2, 84157, Note_on_c, 0, 63, 67
2, 84162, Control_c, 0, 64, 40
2, 84163, Note_on_c, 0, 63, 0
2, 84163, Note_on_c, 0, 72, 0
2, 84163, Note_on_c, 0, 75, 0
2, 84163, Note_on_c, 0, 84, 0
2, 84163, Note_on_c, 0, 61, 0
2, 84164, Note_on_c, 0, 58, 0
2, 84165, Note_on_c, 0, 68, 0
2, 84166, Control_c, 0, 64, 88
2, 84168, Control_c, 0, 64, 127
2, 84197, Control_c, 0, 64, 72
2, 84201, Control_c, 0, 64, 24
2, 84205, Control_c, 0, 64, 0
2, 84230, Control_c, 0, 64, 24
2, 84233, Control_c, 0, 64, 88
2, 84236, Note_on_c, 0, 79, 106
2, 84237, Control_c, 0, 64, 127
2, 84238, Note_on_c, 0, 67, 98
2, 84238, Note_on_c, 0, 73, 87
2, 84240, Note_on_c, 0, 75, 93
2, 84241, Note_on_c, 0, 70, 91
2, 84241, Note_on_c, 0, 63, 74
2, 84242, Note_on_c, 0, 58, 64
2, 84254, Note_on_c, 0, 70, 0
2, 84254, Note_on_c, 0, 67, 0
2, 84258, Note_on_c, 0, 63, 0
2, 84260, Note_on_c, 0, 73, 0
2, 84261, Note_on_c, 0, 79, 0
2, 84262, Note_on_c, 0, 58, 0
2, 84266, Note_on_c, 0, 75, 0
2, 84301, Control_c, 0, 64, 88
2, 84305, Control_c, 0, 64, 24
2, 84310, Control_c, 0, 64, 0
2, 84323, Note_on_c, 0, 80, 105
2, 84325, Note_on_c, 0, 68, 99
2, 84325, Note_on_c, 0, 75, 95
2, 84327, Note_on_c, 0, 72, 99
2, 84330, Note_on_c, 0, 56, 100
2, 84330, Note_on_c, 0, 44, 88
2, 84335, Control_c, 0, 64, 56
2, 84337, Control_c, 0, 64, 127
2, 84341, Note_on_c, 0, 44, 0
2, 84342, Note_on_c, 0, 56, 0
2, 84346, Note_on_c, 0, 68, 0
2, 84347, Note_on_c, 0, 72, 0
2, 84349, Note_on_c, 0, 80, 0
2, 84350, Note_on_c, 0, 75, 0
2, 84412, Note_on_c, 0, 63, 86
2, 84413, Note_on_c, 0, 60, 76
2, 84415, Note_on_c, 0, 51, 66
2, 84416, Note_on_c, 0, 56, 47
2, 84426, Note_on_c, 0, 56, 0
2, 84428, Note_on_c, 0, 60, 0
2, 84433, Note_on_c, 0, 51, 0
2, 84433, Note_on_c, 0, 63, 0
2, 84436, Note_on_c, 0, 65, 73
2, 84452, Note_on_c, 0, 63, 82
2, 84454, Note_on_c, 0, 65, 0
2, 84467, Control_c, 0, 64, 88
2, 84470, Control_c, 0, 64, 24
2, 84473, Control_c, 0, 64, 0
2, 84478, Note_on_c, 0, 63, 0
2, 84480, Note_on_c, 0, 59, 79
2, 84482, Note_on_c, 0, 62, 100
2, 84482, Note_on_c, 0, 56, 66
2, 84483, Note_on_c, 0, 53, 73
2, 84493, Note_on_c, 0, 53, 0
2, 84494, Note_on_c, 0, 56, 0
2, 84495, Note_on_c, 0, 59, 0
2, 84500, Control_c, 0, 64, 88
2, 84503, Control_c, 0, 64, 127
2, 84539, Note_on_c, 0, 62, 0
2, 84557, Note_on_c, 0, 53, 88
2, 84557, Note_on_c, 0, 65, 84
2, 84558, Note_on_c, 0, 41, 80
2, 84569, Note_on_c, 0, 53, 0
2, 84573, Note_on_c, 0, 41, 0
2, 84581, Note_on_c, 0, 68, 74
2, 84583, Note_on_c, 0, 65, 0
2, 84607, Note_on_c, 0, 71, 79
2, 84619, Note_on_c, 0, 68, 0
2, 84622, Note_on_c, 0, 71, 0
2, 84633, Note_on_c, 0, 41, 88
2, 84635, Note_on_c, 0, 29, 80
2, 84637, Note_on_c, 0, 74, 94
2, 84653, Note_on_c, 0, 29, 0
2, 84656, Note_on_c, 0, 41, 0
2, 84658, Note_on_c, 0, 74, 0
2, 84665, Note_on_c, 0, 77, 95
2, 84681, Note_on_c, 0, 80, 83
2, 84703, Note_on_c, 0, 83, 93
2, 84706, Note_on_c, 0, 77, 0
2, 84706, Note_on_c, 0, 40, 104
2, 84706, Note_on_c, 0, 28, 93
2, 84714, Note_on_c, 0, 80, 0
2, 84719, Note_on_c, 0, 83, 0
2, 84724, Note_on_c, 0, 28, 0
2, 84728, Note_on_c, 0, 40, 0
2, 84733, Note_on_c, 0, 86, 104
2, 84750, Note_on_c, 0, 98, 89
2, 84751, Note_on_c, 0, 86, 0
2, 84766, Note_on_c, 0, 98, 0
2, 84772, Control_c, 0, 64, 40
2, 84776, Control_c, 0, 64, 0
2, 84782, Note_on_c, 0, 39, 113
2, 84783, Note_on_c, 0, 27, 105
2, 84785, Note_on_c, 0, 99, 106
2, 84785, Note_on_c, 0, 87, 102
2, 84793, Control_c, 0, 64, 72
2, 84794, Note_on_c, 0, 27, 0
2, 84796, Note_on_c, 0, 87, 0
2, 84797, Control_c, 0, 64, 127
2, 84800, Note_on_c, 0, 99, 0
2, 84800, Note_on_c, 0, 39, 0
2, 84870, Note_on_c, 0, 82, 95
2, 84870, Note_on_c, 0, 70, 95
2, 84871, Note_on_c, 0, 75, 86
2, 84871, Note_on_c, 0, 67, 85
2, 84871, Note_on_c, 0, 58, 71
2, 84872, Note_on_c, 0, 63, 59
2, 84875, Note_on_c, 0, 61, 47
2, 84879, Note_on_c, 0, 63, 0
2, 84880, Note_on_c, 0, 61, 0
2, 84883, Note_on_c, 0, 70, 0
2, 84883, Note_on_c, 0, 67, 0
2, 84884, Note_on_c, 0, 75, 0
2, 84884, Note_on_c, 0, 58, 0
2, 84887, Note_on_c, 0, 82, 0
2, 84902, Note_on_c, 0, 82, 88
2, 84903, Note_on_c, 0, 75, 85
2, 84905, Note_on_c, 0, 70, 87
2, 84906, Note_on_c, 0, 67, 82
2, 84906, Note_on_c, 0, 58, 61
2, 84906, Note_on_c, 0, 61, 54
2, 84906, Note_on_c, 0, 63, 61
2, 84913, Note_on_c, 0, 63, 0
2, 84913, Note_on_c, 0, 61, 0
2, 84916, Note_on_c, 0, 67, 0
2, 84917, Note_on_c, 0, 70, 0
2, 84917, Note_on_c, 0, 58, 0
2, 84921, Note_on_c, 0, 75, 0
2, 84922, Note_on_c, 0, 82, 0
2, 84937, Note_on_c, 0, 75, 75
2, 84937, Note_on_c, 0, 82, 91
2, 84937, Note_on_c, 0, 70, 86
2, 84938, Note_on_c, 0, 58, 72
2, 84940, Note_on_c, 0, 67, 91
2, 84941, Note_on_c, 0, 61, 54
2, 84942, Note_on_c, 0, 63, 56
2, 84950, Note_on_c, 0, 63, 0
2, 84950, Note_on_c, 0, 70, 0
2, 84951, Note_on_c, 0, 61, 0
2, 84952, Note_on_c, 0, 67, 0
2, 84954, Note_on_c, 0, 58, 0
2, 84954, Note_on_c, 0, 82, 0
2, 84958, Note_on_c, 0, 75, 0
2, 84971, Note_on_c, 0, 75, 82
2, 84972, Note_on_c, 0, 84, 107
2, 84972, Note_on_c, 0, 72, 99
2, 84973, Note_on_c, 0, 68, 93
2, 84976, Note_on_c, 0, 58, 53
2, 84977, Note_on_c, 0, 61, 54
2, 84978, Note_on_c, 0, 63, 61
2, 84982, Note_on_c, 0, 84, 0
2, 84983, Note_on_c, 0, 72, 0
2, 84984, Note_on_c, 0, 61, 0
2, 84984, Note_on_c, 0, 63, 0
2, 84986, Note_on_c, 0, 75, 0
2, 84986, Note_on_c, 0, 68, 0
2, 84986, Note_on_c, 0, 58, 0
2, 85007, Note_on_c, 0, 81, 99
2, 85008, Note_on_c, 0, 69, 98
2, 85008, Note_on_c, 0, 66, 86
2, 85008, Note_on_c, 0, 58, 67
2, 85010, Note_on_c, 0, 75, 78
2, 85012, Note_on_c, 0, 79, 65
2, 85016, Note_on_c, 0, 75, 0
2, 85018, Note_on_c, 0, 69, 0
2, 85018, Note_on_c, 0, 79, 0
2, 85019, Note_on_c, 0, 81, 0
2, 85020, Note_on_c, 0, 66, 0
2, 85020, Note_on_c, 0, 58, 0
2, 85040, Note_on_c, 0, 70, 101
2, 85041, Note_on_c, 0, 82, 101
2, 85041, Note_on_c, 0, 67, 87
2, 85041, Note_on_c, 0, 58, 63
2, 85041, Note_on_c, 0, 75, 92
2, 85042, Note_on_c, 0, 61, 67
2, 85043, Note_on_c, 0, 63, 66
2, 85045, Note_on_c, 0, 80, 60
2, 85051, Note_on_c, 0, 80, 0
2, 85051, Note_on_c, 0, 70, 0
2, 85054, Note_on_c, 0, 67, 0
2, 85056, Note_on_c, 0, 63, 0
2, 85058, Note_on_c, 0, 58, 0
2, 85058, Note_on_c, 0, 75, 0
2, 85058, Note_on_c, 0, 61, 0
2, 85058, Note_on_c, 0, 82, 0
2, 85085, Control_c, 0, 64, 104
2, 85087, Note_on_c, 0, 84, 112
2, 85087, Note_on_c, 0, 75, 95
2, 85087, Control_c, 0, 64, 40
2, 85090, Note_on_c, 0, 68, 98
2, 85090, Note_on_c, 0, 72, 103
2, 85090, Note_on_c, 0, 58, 72
2, 85091, Note_on_c, 0, 61, 72
2, 85092, Note_on_c, 0, 63, 71
2, 85092, Control_c, 0, 64, 0
2, 85102, Note_on_c, 0, 58, 0
2, 85102, Control_c, 0, 64, 56
2, 85103, Note_on_c, 0, 72, 0
2, 85104, Note_on_c, 0, 61, 0
2, 85105, Note_on_c, 0, 68, 0
2, 85105, Note_on_c, 0, 63, 0
2, 85105, Note_on_c, 0, 84, 0
2, 85106, Control_c, 0, 64, 127
2, 85112, Note_on_c, 0, 75, 0
2, 85171, Control_c, 0, 64, 56
2, 85175, Control_c, 0, 64, 0
2, 85177, Note_on_c, 0, 67, 103
2, 85177, Note_on_c, 0, 79, 95
2, 85177, Note_on_c, 0, 75, 96
2, 85178, Note_on_c, 0, 73, 86
2, 85181, Note_on_c, 0, 70, 100
2, 85181, Note_on_c, 0, 61, 79
2, 85181, Note_on_c, 0, 58, 73
2, 85182, Note_on_c, 0, 63, 77
2, 85188, Control_c, 0, 64, 40
2, 85192, Control_c, 0, 64, 127
2, 85193, Note_on_c, 0, 70, 0
2, 85197, Note_on_c, 0, 63, 0
2, 85197, Note_on_c, 0, 61, 0
2, 85202, Note_on_c, 0, 67, 0
2, 85203, Note_on_c, 0, 58, 0
2, 85206, Note_on_c, 0, 73, 0
2, 85208, Note_on_c, 0, 79, 0
2, 85212, Note_on_c, 0, 75, 0
2, 85253, Note_on_c, 0, 44, 36
2, 85259, Note_on_c, 0, 44, 0
2, 85272, Control_c, 0, 64, 40
2, 85275, Control_c, 0, 64, 0
2, 85281, Note_on_c, 0, 80, 106
2, 85282, Note_on_c, 0, 75, 91
2, 85282, Note_on_c, 0, 68, 99
2, 85283, Note_on_c, 0, 77, 100
2, 85285, Note_on_c, 0, 72, 98
2, 85285, Note_on_c, 0, 32, 81
2, 85285, Note_on_c, 0, 44, 102
2, 85293, Control_c, 0, 64, 56
2, 85296, Control_c, 0, 64, 127
2, 85298, Note_on_c, 0, 32, 0
2, 85300, Note_on_c, 0, 44, 0
2, 85332, Note_on_c, 0, 51, 42
2, 85338, Note_on_c, 0, 51, 0
2, 85339, Note_on_c, 0, 77, 0
2, 85346, Note_on_c, 0, 80, 0
2, 85347, Note_on_c, 0, 75, 0
2, 85352, Note_on_c, 0, 72, 0
2, 85360, Note_on_c, 0, 39, 72
2, 85361, Note_on_c, 0, 51, 99
2, 85367, Note_on_c, 0, 68, 0
2, 85372, Note_on_c, 0, 51, 0
2, 85373, Note_on_c, 0, 39, 0
2, 85396, Note_on_c, 0, 75, 99
2, 85413, Note_on_c, 0, 75, 0
2, 85426, Note_on_c, 0, 75, 100
2, 85427, Note_on_c, 0, 63, 106
2, 85428, Note_on_c, 0, 72, 89
2, 85431, Note_on_c, 0, 56, 93
2, 85431, Note_on_c, 0, 44, 71
2, 85442, Note_on_c, 0, 44, 0
2, 85442, Note_on_c, 0, 63, 0
2, 85442, Note_on_c, 0, 56, 0
2, 85446, Note_on_c, 0, 72, 0
2, 85456, Note_on_c, 0, 75, 0
2, 85503, Note_on_c, 0, 63, 99
2, 85503, Note_on_c, 0, 51, 85
2, 85515, Note_on_c, 0, 51, 0
2, 85516, Note_on_c, 0, 63, 0
2, 85577, Note_on_c, 0, 68, 101
2, 85578, Note_on_c, 0, 56, 84
2, 85589, Note_on_c, 0, 56, 0
2, 85590, Note_on_c, 0, 68, 0
2, 85650, Note_on_c, 0, 75, 96
2, 85651, Note_on_c, 0, 80, 92
2, 85651, Note_on_c, 0, 84, 96
2, 85652, Note_on_c, 0, 72, 97
2, 85652, Note_on_c, 0, 63, 74
2, 85657, Note_on_c, 0, 83, 52
2, 85658, Note_on_c, 0, 72, 0
2, 85661, Note_on_c, 0, 75, 0
2, 85663, Note_on_c, 0, 83, 0
2, 85667, Note_on_c, 0, 80, 0
2, 85667, Note_on_c, 0, 63, 0
2, 85667, Note_on_c, 0, 84, 0
2, 85682, Note_on_c, 0, 85, 105
2, 85683, Note_on_c, 0, 73, 101
2, 85683, Note_on_c, 0, 82, 90
2, 85693, Note_on_c, 0, 73, 0
2, 85696, Note_on_c, 0, 82, 0
2, 85699, Note_on_c, 0, 85, 0
2, 85730, Note_on_c, 0, 85, 95
2, 85730, Note_on_c, 0, 89, 112
2, 85730, Note_on_c, 0, 77, 109
2, 85732, Note_on_c, 0, 32, 87
2, 85732, Control_c, 0, 64, 72
2, 85735, Note_on_c, 0, 44, 100
2, 85735, Control_c, 0, 64, 0
2, 85747, Note_on_c, 0, 32, 0
2, 85748, Note_on_c, 0, 44, 0
2, 85752, Control_c, 0, 64, 56
2, 85757, Control_c, 0, 64, 127
2, 85772, Note_on_c, 0, 77, 0
2, 85795, Note_on_c, 0, 89, 0
2, 85801, Note_on_c, 0, 85, 0
2, 85805, Note_on_c, 0, 39, 69
2, 85805, Note_on_c, 0, 51, 99
2, 85816, Note_on_c, 0, 51, 0
2, 85816, Note_on_c, 0, 39, 0
2, 85830, Note_on_c, 0, 87, 100
2, 85831, Note_on_c, 0, 84, 89
2, 85831, Note_on_c, 0, 75, 96
2, 85844, Note_on_c, 0, 75, 0
2, 85847, Note_on_c, 0, 84, 0
2, 85847, Note_on_c, 0, 87, 0
2, 85862, Note_on_c, 0, 87, 97
2, 85865, Note_on_c, 0, 75, 107
2, 85865, Note_on_c, 0, 84, 88
2, 85870, Note_on_c, 0, 56, 95
2, 85870, Note_on_c, 0, 44, 72
2, 85875, Control_c, 0, 64, 88
2, 85878, Control_c, 0, 64, 127
2, 85882, Note_on_c, 0, 44, 0
2, 85882, Note_on_c, 0, 56, 0
2, 85935, Note_on_c, 0, 63, 93
2, 85935, Note_on_c, 0, 51, 82
2, 85947, Note_on_c, 0, 51, 0
2, 85947, Note_on_c, 0, 63, 0
2, 85985, Note_on_c, 0, 84, 0
2, 86002, Note_on_c, 0, 87, 0
2, 86003, Note_on_c, 0, 75, 0
2, 86005, Note_on_c, 0, 68, 99
2, 86007, Note_on_c, 0, 56, 87
2, 86017, Note_on_c, 0, 56, 0
2, 86018, Note_on_c, 0, 68, 0
2, 86075, Note_on_c, 0, 75, 98
2, 86076, Note_on_c, 0, 63, 79
2, 86078, Note_on_c, 0, 84, 97
2, 86078, Note_on_c, 0, 80, 89
2, 86078, Note_on_c, 0, 72, 94
2, 86086, Note_on_c, 0, 72, 0
2, 86086, Note_on_c, 0, 75, 0
2, 86089, Note_on_c, 0, 84, 0
2, 86093, Note_on_c, 0, 63, 0
2, 86095, Note_on_c, 0, 80, 0
2, 86111, Note_on_c, 0, 85, 105
2, 86111, Note_on_c, 0, 73, 99
2, 86112, Note_on_c, 0, 82, 92
2, 86122, Note_on_c, 0, 73, 0
2, 86124, Note_on_c, 0, 82, 0
2, 86128, Note_on_c, 0, 85, 0
2, 86156, Note_on_c, 0, 77, 97
2, 86156, Note_on_c, 0, 89, 103
2, 86156, Note_on_c, 0, 85, 81
2, 86156, Control_c, 0, 64, 72
2, 86160, Note_on_c, 0, 32, 75
2, 86160, Control_c, 0, 64, 0
2, 86161, Note_on_c, 0, 44, 79
2, 86176, Note_on_c, 0, 44, 0
2, 86176, Note_on_c, 0, 32, 0
2, 86177, Control_c, 0, 64, 56
2, 86181, Control_c, 0, 64, 127
2, 86213, Note_on_c, 0, 77, 0
2, 86226, Note_on_c, 0, 89, 0
2, 86228, Note_on_c, 0, 51, 89
2, 86232, Note_on_c, 0, 39, 75
2, 86234, Note_on_c, 0, 85, 0
2, 86239, Note_on_c, 0, 39, 0
2, 86241, Note_on_c, 0, 51, 0
2, 86252, Note_on_c, 0, 75, 93
2, 86252, Note_on_c, 0, 87, 96
2, 86256, Note_on_c, 0, 84, 76
2, 86262, Note_on_c, 0, 84, 0
2, 86268, Note_on_c, 0, 75, 0
2, 86274, Note_on_c, 0, 87, 0
2, 86288, Note_on_c, 0, 89, 107
2, 86288, Note_on_c, 0, 85, 94
2, 86288, Note_on_c, 0, 77, 100
2, 86291, Note_on_c, 0, 56, 100
2, 86292, Note_on_c, 0, 44, 83
2, 86299, Note_on_c, 0, 44, 0
2, 86304, Note_on_c, 0, 56, 0
2, 86336, Note_on_c, 0, 77, 0
2, 86353, Note_on_c, 0, 63, 98
2, 86353, Note_on_c, 0, 51, 87
2, 86354, Note_on_c, 0, 89, 0
2, 86364, Note_on_c, 0, 85, 0
2, 86365, Note_on_c, 0, 51, 0
2, 86366, Note_on_c, 0, 63, 0
2, 86382, Note_on_c, 0, 75, 100
2, 86382, Note_on_c, 0, 87, 95
2, 86388, Note_on_c, 0, 85, 50
2, 86395, Note_on_c, 0, 85, 0
2, 86399, Note_on_c, 0, 75, 0
2, 86404, Note_on_c, 0, 87, 0
2, 86416, Note_on_c, 0, 89, 106
2, 86416, Note_on_c, 0, 85, 90
2, 86417, Note_on_c, 0, 77, 99
2, 86418, Note_on_c, 0, 68, 101
2, 86420, Note_on_c, 0, 56, 83
2, 86431, Note_on_c, 0, 68, 0
2, 86435, Note_on_c, 0, 56, 0
2, 86475, Note_on_c, 0, 77, 0
2, 86485, Note_on_c, 0, 63, 98
2, 86486, Note_on_c, 0, 89, 0
2, 86486, Note_on_c, 0, 51, 86
2, 86497, Note_on_c, 0, 85, 0
2, 86498, Note_on_c, 0, 63, 0
2, 86502, Note_on_c, 0, 51, 0
2, 86513, Note_on_c, 0, 87, 97
2, 86513, Note_on_c, 0, 75, 97
2, 86528, Note_on_c, 0, 75, 0
2, 86538, Note_on_c, 0, 87, 0
2, 86548, Note_on_c, 0, 89, 106
2, 86550, Note_on_c, 0, 77, 102
2, 86550, Note_on_c, 0, 85, 91
2, 86552, Note_on_c, 0, 56, 100
2, 86553, Note_on_c, 0, 44, 87
2, 86564, Note_on_c, 0, 56, 0
2, 86570, Note_on_c, 0, 44, 0
2, 86615, Note_on_c, 0, 77, 0
2, 86616, Note_on_c, 0, 51, 105
2, 86616, Note_on_c, 0, 39, 86
2, 86621, Note_on_c, 0, 89, 0
2, 86626, Note_on_c, 0, 51, 0
2, 86627, Note_on_c, 0, 39, 0
2, 86628, Note_on_c, 0, 85, 0
2, 86646, Note_on_c, 0, 87, 99
2, 86647, Note_on_c, 0, 75, 100
2, 86650, Note_on_c, 0, 84, 89
2, 86660, Note_on_c, 0, 75, 0
2, 86667, Note_on_c, 0, 87, 0
2, 86668, Note_on_c, 0, 84, 0
2, 86676, Control_c, 0, 64, 56
2, 86680, Control_c, 0, 64, 0
2, 86682, Note_on_c, 0, 87, 93
2, 86683, Note_on_c, 0, 75, 103
2, 86683, Note_on_c, 0, 84, 87
2, 86687, Note_on_c, 0, 44, 115
2, 86688, Note_on_c, 0, 32, 84
2, 86692, Note_on_c, 0, 34, 62
2, 86695, Note_on_c, 0, 45, 51
2, 86697, Control_c, 0, 64, 72
2, 86698, Note_on_c, 0, 34, 0
2, 86699, Note_on_c, 0, 44, 0
2, 86701, Note_on_c, 0, 45, 0
2, 86701, Control_c, 0, 64, 127
2, 86705, Note_on_c, 0, 32, 0
2, 86720, Note_on_c, 0, 43, 95
2, 86722, Note_on_c, 0, 31, 77
2, 86723, Note_on_c, 0, 75, 0
2, 86732, Note_on_c, 0, 43, 0
2, 86735, Note_on_c, 0, 31, 0
2, 86738, Note_on_c, 0, 87, 0
2, 86748, Note_on_c, 0, 84, 0
2, 86752, Note_on_c, 0, 41, 96
2, 86757, Note_on_c, 0, 29, 71
2, 86763, Note_on_c, 0, 29, 0
2, 86767, Note_on_c, 0, 41, 0
2, 86781, Note_on_c, 0, 27, 98
2, 86785, Note_on_c, 0, 39, 88
2, 86791, Note_on_c, 0, 39, 0
2, 86794, Note_on_c, 0, 27, 0
2, 86820, Control_c, 0, 64, 88
2, 86821, Note_on_c, 0, 89, 112
2, 86821, Note_on_c, 0, 77, 106
2, 86823, Note_on_c, 0, 84, 102
2, 86823, Control_c, 0, 64, 0
2, 86826, Note_on_c, 0, 44, 112
2, 86828, Note_on_c, 0, 32, 100
2, 86832, Note_on_c, 0, 34, 46
2, 86835, Control_c, 0, 64, 56
2, 86838, Note_on_c, 0, 44, 0
2, 86838, Control_c, 0, 64, 127
2, 86839, Note_on_c, 0, 34, 0
2, 86840, Note_on_c, 0, 32, 0
2, 86846, Note_on_c, 0, 77, 0
2, 86852, Note_on_c, 0, 89, 0
2, 86858, Note_on_c, 0, 84, 0
2, 86875, Note_on_c, 0, 84, 86
2, 86876, Note_on_c, 0, 79, 96
2, 86876, Note_on_c, 0, 91, 102
2, 86878, Note_on_c, 0, 43, 97
2, 86880, Note_on_c, 0, 89, 68
2, 86881, Note_on_c, 0, 31, 87
2, 86886, Note_on_c, 0, 89, 0
2, 86886, Note_on_c, 0, 79, 0
2, 86890, Note_on_c, 0, 43, 0
2, 86891, Note_on_c, 0, 91, 0
2, 86894, Note_on_c, 0, 31, 0
2, 86897, Note_on_c, 0, 84, 0
2, 86908, Note_on_c, 0, 92, 113
2, 86908, Note_on_c, 0, 84, 92
2, 86910, Note_on_c, 0, 80, 97
2, 86912, Note_on_c, 0, 41, 99
2, 86915, Note_on_c, 0, 29, 80
2, 86920, Note_on_c, 0, 84, 0
2, 86921, Note_on_c, 0, 80, 0
2, 86923, Note_on_c, 0, 41, 0
2, 86926, Note_on_c, 0, 29, 0
2, 86926, Note_on_c, 0, 92, 0
2, 86942, Note_on_c, 0, 82, 103
2, 86942, Note_on_c, 0, 94, 110
2, 86942, Note_on_c, 0, 27, 98
2, 86945, Note_on_c, 0, 39, 92
2, 86951, Note_on_c, 0, 39, 0
2, 86954, Note_on_c, 0, 27, 0
2, 86954, Note_on_c, 0, 82, 0
2, 86962, Note_on_c, 0, 94, 0
2, 86977, Control_c, 0, 64, 56
2, 86981, Control_c, 0, 64, 0
2, 86982, Note_on_c, 0, 87, 100
2, 86982, Note_on_c, 0, 84, 99
2, 86983, Note_on_c, 0, 96, 113
2, 86983, Note_on_c, 0, 92, 101
2, 86987, Note_on_c, 0, 44, 110
2, 86988, Note_on_c, 0, 32, 105
2, 86992, Note_on_c, 0, 84, 0
2, 86995, Note_on_c, 0, 44, 0
2, 86995, Note_on_c, 0, 92, 0
2, 86995, Control_c, 0, 64, 104
2, 86996, Note_on_c, 0, 32, 0
2, 86998, Note_on_c, 0, 87, 0
2, 86998, Note_on_c, 0, 96, 0
2, 86998, Control_c, 0, 64, 127
2, 87153, Control_c, 0, 64, 72
2, 87156, Control_c, 0, 64, 24
2, 87160, Control_c, 0, 64, 0
2, 87206, Control_c, 0, 64, 40
2, 87210, Control_c, 0, 64, 104
2, 87213, Control_c, 0, 64, 127
2, 87223, Note_on_c, 0, 64, 102
2, 87223, Note_on_c, 0, 52, 104
2, 87225, Note_on_c, 0, 55, 99
2, 87225, Note_on_c, 0, 60, 96
2, 87225, Note_on_c, 0, 43, 96
2, 87225, Note_on_c, 0, 48, 103
2, 87226, Note_on_c, 0, 36, 87
2, 87236, Note_on_c, 0, 48, 0
2, 87236, Note_on_c, 0, 43, 0
2, 87239, Note_on_c, 0, 52, 0
2, 87239, Note_on_c, 0, 36, 0
2, 87240, Note_on_c, 0, 55, 0
2, 87240, Note_on_c, 0, 64, 0
2, 87241, Note_on_c, 0, 60, 0
2, 87256, Note_on_c, 0, 52, 92
2, 87256, Note_on_c, 0, 60, 91
2, 87256, Note_on_c, 0, 64, 92
2, 87256, Note_on_c, 0, 55, 95
2, 87257, Control_c, 0, 64, 72
2, 87258, Note_on_c, 0, 43, 106
2, 87258, Note_on_c, 0, 48, 110
2, 87258, Note_on_c, 0, 36, 88
2, 87261, Control_c, 0, 64, 0
2, 87268, Note_on_c, 0, 43, 0
2, 87269, Note_on_c, 0, 48, 0
2, 87271, Note_on_c, 0, 36, 0
2, 87272, Note_on_c, 0, 52, 0
2, 87272, Note_on_c, 0, 55, 0
2, 87273, Note_on_c, 0, 64, 0
2, 87276, Note_on_c, 0, 60, 0
2, 87290, Note_on_c, 0, 64, 97
2, 87291, Note_on_c, 0, 52, 113
2, 87291, Note_on_c, 0, 55, 103
2, 87291, Note_on_c, 0, 60, 97
2, 87292, Note_on_c, 0, 48, 117
2, 87292, Note_on_c, 0, 43, 109
2, 87292, Note_on_c, 0, 36, 103
2, 87293, Control_c, 0, 64, 72
2, 87296, Control_c, 0, 64, 127
2, 87302, Note_on_c, 0, 43, 0
2, 87303, Note_on_c, 0, 48, 0
2, 87305, Note_on_c, 0, 36, 0
2, 87306, Note_on_c, 0, 55, 0
2, 87306, Note_on_c, 0, 52, 0
2, 87308, Note_on_c, 0, 64, 0
2, 87311, Note_on_c, 0, 60, 0
2, 87322, Control_c, 0, 64, 104
2, 87325, Control_c, 0, 64, 40
2, 87328, Control_c, 0, 64, 0
2, 87371, Note_on_c, 0, 52, 112
2, 87371, Note_on_c, 0, 64, 115
2, 87372, Note_on_c, 0, 55, 112
2, 87372, Note_on_c, 0, 60, 103
2, 87373, Note_on_c, 0, 43, 110
2, 87373, Note_on_c, 0, 36, 92
2, 87373, Note_on_c, 0, 48, 117
2, 87376, Control_c, 0, 64, 56
2, 87378, Control_c, 0, 64, 127
2, 87383, Note_on_c, 0, 43, 0
2, 87384, Note_on_c, 0, 36, 0
2, 87384, Note_on_c, 0, 48, 0
2, 87385, Note_on_c, 0, 55, 0
2, 87386, Note_on_c, 0, 52, 0
2, 87390, Note_on_c, 0, 60, 0
2, 87392, Note_on_c, 0, 64, 0
2, 87408, Control_c, 0, 64, 88
2, 87411, Control_c, 0, 64, 24
2, 87415, Control_c, 0, 64, 0
2, 87452, Note_on_c, 0, 64, 112
2, 87452, Note_on_c, 0, 55, 107
2, 87453, Note_on_c, 0, 52, 109
2, 87455, Note_on_c, 0, 60, 102
2, 87456, Note_on_c, 0, 48, 117
2, 87456, Note_on_c, 0, 43, 109
2, 87456, Note_on_c, 0, 36, 99
2, 87457, Control_c, 0, 64, 40
2, 87459, Note_on_c, 0, 52, 0
2, 87461, Control_c, 0, 64, 127
2, 87466, Note_on_c, 0, 43, 0
2, 87467, Note_on_c, 0, 36, 0
2, 87469, Note_on_c, 0, 48, 0
2, 87469, Note_on_c, 0, 55, 0
2, 87474, Note_on_c, 0, 64, 0
2, 87475, Note_on_c, 0, 60, 0
2, 87522, Control_c, 0, 64, 88
2, 87526, Control_c, 0, 64, 40
2, 87530, Control_c, 0, 64, 0
2, 87615, Note_on_c, 0, 64, 112
2, 87616, Control_c, 0, 64, 40
2, 87617, Note_on_c, 0, 60, 103
2, 87617, Note_on_c, 0, 55, 106
2, 87617, Note_on_c, 0, 52, 110
2, 87618, Note_on_c, 0, 43, 106
2, 87620, Note_on_c, 0, 48, 117
2, 87620, Note_on_c, 0, 36, 91
2, 87620, Note_on_c, 0, 62, 59
2, 87620, Control_c, 0, 64, 127
2, 87628, Note_on_c, 0, 62, 0
2, 87632, Note_on_c, 0, 36, 0
2, 87632, Note_on_c, 0, 52, 0
2, 87633, Note_on_c, 0, 43, 0
2, 87633, Note_on_c, 0, 48, 0
2, 87637, Note_on_c, 0, 64, 0
2, 87637, Note_on_c, 0, 55, 0
2, 87640, Note_on_c, 0, 60, 0
2, 87698, Control_c, 0, 64, 88
2, 87702, Control_c, 0, 64, 56
2, 87706, Control_c, 0, 64, 24
2, 87710, Control_c, 0, 64, 0
2, 87773, Note_on_c, 0, 63, 105
2, 87773, Note_on_c, 0, 51, 115
2, 87776, Note_on_c, 0, 61, 90
2, 87776, Note_on_c, 0, 58, 83
2, 87776, Note_on_c, 0, 55, 99
2, 87776, Note_on_c, 0, 39, 92
2, 87777, Note_on_c, 0, 46, 116
2, 87781, Control_c, 0, 64, 88
2, 87785, Control_c, 0, 64, 127
2, 87788, Note_on_c, 0, 46, 0
2, 87788, Note_on_c, 0, 51, 0
2, 87791, Note_on_c, 0, 55, 0
2, 87791, Note_on_c, 0, 39, 0
2, 87797, Note_on_c, 0, 58, 0
2, 87798, Note_on_c, 0, 61, 0
2, 87799, Note_on_c, 0, 63, 0
2, 87867, Control_c, 0, 64, 88
2, 87871, Control_c, 0, 64, 56
2, 87875, Control_c, 0, 64, 24
2, 87878, Control_c, 0, 64, 0
2, 87940, Note_on_c, 0, 68, 110
2, 87940, Note_on_c, 0, 56, 106
2, 87940, Note_on_c, 0, 63, 95
2, 87941, Note_on_c, 0, 60, 104
2, 87941, Note_on_c, 0, 32, 91
2, 87942, Note_on_c, 0, 44, 117
2, 87946, Note_on_c, 0, 39, 74
2, 87946, Control_c, 0, 64, 88
2, 87950, Control_c, 0, 64, 127
2, 87953, Note_on_c, 0, 39, 0
2, 87954, Note_on_c, 0, 32, 0
2, 87954, Note_on_c, 0, 44, 0
2, 87960, Note_on_c, 0, 56, 0
2, 87962, Note_on_c, 0, 60, 0
2, 87965, Note_on_c, 0, 68, 0
2, 87966, Note_on_c, 0, 63, 0
2, 88105, Control_c, 0, 64, 72
2, 88108, Control_c, 0, 64, 24
2, 88112, Control_c, 0, 64, 0
2, 88956, Control_c, 0, 64, 56
2, 88960, Control_c, 0, 64, 0
2, 88960, End_track
3, 0, Start_track
3, 0, MIDI_port, 0
3, 0, Title_t, "Chopin Polonaise"
3, 0, Program_c, 1, 0
3, 0, End_track
4, 0, Start_track
4, 0, MIDI_port, 0
4, 0, Title_t, "Played by"
4, 0, Program_c, 1, 0
4, 0, End_track
5, 0, Start_track
5, 0, MIDI_port, 0
5, 0, Title_t, "Robert Finley"
5, 0, Program_c, 1, 0
5, 0, End_track
6, 0, Start_track
6, 0, MIDI_port, 0
6, 0, Title_t, "Tempo mod./PRS"
6, 0, Program_c, 1, 0
6, 0, End_track
0, 0, End_of_file