0, 0, Header, 1, 3, 480
1, 0, Start_track
1, 0, Tempo, 624897
1, 0, Time_signature, 3, 2, 24, 8
1, 0, Copyright_t, "Copyright \251 1999 My Music Company"
1, 0, Title_t, "Piano Solo"
1, 0, Tempo, 624897
1, 21120, Tempo, 1199873
1, 21600, Tempo, 624897
1, 29424, Tempo, 626945
1, 29448, Tempo, 629249
1, 29472, Tempo, 631553
1, 29496, Tempo, 633601
1, 29520, Tempo, 635905
1, 29544, Tempo, 638209
1, 29568, Tempo, 640513
1, 29592, Tempo, 642817
1, 29616, Tempo, 645121
1, 29640, Tempo, 647425
1, 29664, Tempo, 649729
1, 29688, Tempo, 652033
1, 29712, Tempo, 654337
1, 29736, Tempo, 656897
1, 29760, Tempo, 659201
1, 29784, Tempo, 661761
1, 29808, Tempo, 664065
1, 29832, Tempo, 666625
1, 29856, Tempo, 668929
1, 29880, Tempo, 671489
1, 29904, Tempo, 674049
1, 29928, Tempo, 676609
1, 29952, Tempo, 679169
1, 29976, Tempo, 681729
1, 30000, Tempo, 684289
1, 30024, Tempo, 686849
1, 30048, Tempo, 689409
1, 30072, Tempo, 692225
1, 30096, Tempo, 694785
1, 30120, Tempo, 697601
1, 30240, Tempo, 624897
1, 61440, Tempo, 1199873
1, 61920, Tempo, 624897
1, 69744, Tempo, 626945
1, 69768, Tempo, 629249
1, 69792, Tempo, 631553
1, 69816, Tempo, 633601
1, 69840, Tempo, 635905
1, 69864, Tempo, 638209
1, 69888, Tempo, 640513
1, 69912, Tempo, 642817
1, 69936, Tempo, 645121
1, 69960, Tempo, 647425
1, 69984, Tempo, 649729
1, 70008, Tempo, 652033
1, 70032, Tempo, 654337
1, 70056, Tempo, 656897
1, 70080, Tempo, 659201
1, 70104, Tempo, 661761
1, 70128, Tempo, 664065
1, 70152, Tempo, 666625
1, 70176, Tempo, 668929
1, 70200, Tempo, 671489
1, 70224, Tempo, 674049
1, 70248, Tempo, 676609
1, 70272, Tempo, 679169
1, 70296, Tempo, 681729
1, 70320, Tempo, 684289
1, 70344, Tempo, 686849
1, 70368, Tempo, 689409
1, 70392, Tempo, 692225
1, 70416, Tempo, 694785
1, 70440, Tempo, 697601
1, 70560, Tempo, 624897
1, 101760, Tempo, 1199873
1, 102240, Tempo, 624897
1, 110064, Tempo, 626945
1, 110088, Tempo, 629249
1, 110112, Tempo, 631553
1, 110136, Tempo, 633601
1, 110160, Tempo, 635905
1, 110184, Tempo, 638209
1, 110208, Tempo, 640513
1, 110232, Tempo, 642817
1, 110256, Tempo, 645121
1, 110280, Tempo, 647425
1, 110304, Tempo, 649729
1, 110328, Tempo, 652033
1, 110352, Tempo, 654337
1, 110376, Tempo, 656897
1, 110400, Tempo, 659201
1, 110424, Tempo, 661761
1, 110448, Tempo, 664065
1, 110472, Tempo, 666625
1, 110496, Tempo, 668929
1, 110520, Tempo, 671489
1, 110544, Tempo, 674049
1, 110568, Tempo, 676609
1, 110592, Tempo, 679169
1, 110616, Tempo, 681729
1, 110640, Tempo, 684289
1, 110664, Tempo, 686849
1, 110688, Tempo, 689409
1, 110712, Tempo, 692225
1, 110736, Tempo, 694785
1, 110760, Tempo, 697601
1, 110880, Tempo, 624897
1, 128160, End_track
2, 0, Start_track
2, 0, Control_c, 0, 7, 108
2, 0, Control_c, 0, 0, 0
2, 0, Control_c, 0, 32, 0
2, 0, Program_c, 0, 0
2, 0, Control_c, 0, 1, 0
2, 0, Control_c, 0, 10, 64
2, 0, Control_c, 0, 91, 0
2, 0, Control_c, 0, 93, 0
2, 0, Key_signature, 2, "major"
2, 0, Title_t, "Piano"
2, 0, Control_c, 0, 7, 108
2, 0, Control_c, 0, 0, 0
2, 0, Control_c, 0, 32, 0
2, 0, Program_c, 0, 0
2, 0, Control_c, 0, 1, 0
2, 0, Control_c, 0, 10, 64
2, 0, Control_c, 0, 91, 0
2, 0, Control_c, 0, 93, 0
2, 960, Note_on_c, 0, 69, 100
2, 1416, Note_on_c, 0, 69, 0
2, 1440, Note_on_c, 0, 83, 100
2, 1440, Note_on_c, 0, 45, 100
2, 1668, Note_on_c, 0, 83, 0
2, 1680, Note_on_c, 0, 81, 100
2, 1896, Note_on_c, 0, 45, 0
2, 1908, Note_on_c, 0, 81, 0
2, 1920, Note_on_c, 0, 79, 100
2, 1920, Note_on_c, 0, 57, 100
2, 1920, Note_on_c, 0, 64, 100
2, 1920, Note_on_c, 0, 67, 100
2, 2148, Note_on_c, 0, 79, 0
2, 2160, Note_on_c, 0, 73, 100
2, 2376, Note_on_c, 0, 67, 0
2, 2376, Note_on_c, 0, 64, 0
2, 2376, Note_on_c, 0, 57, 0
2, 2388, Note_on_c, 0, 73, 0
2, 2400, Note_on_c, 0, 67, 100
2, 2400, Note_on_c, 0, 78, 100
2, 2400, Note_on_c, 0, 46, 100
2, 2628, Note_on_c, 0, 78, 0
2, 2628, Note_on_c, 0, 67, 0
2, 2640, Note_on_c, 0, 76, 100
2, 2856, Note_on_c, 0, 46, 0
2, 2868, Note_on_c, 0, 76, 0
2, 2880, Note_on_c, 0, 47, 100
2, 2880, Note_on_c, 0, 74, 100
2, 3108, Note_on_c, 0, 74, 0
2, 3120, Note_on_c, 0, 66, 100
2, 3336, Note_on_c, 0, 47, 0
2, 3348, Note_on_c, 0, 66, 0
2, 3360, Note_on_c, 0, 59, 100
2, 3360, Note_on_c, 0, 62, 100
2, 3360, Note_on_c, 0, 73, 100
2, 3588, Note_on_c, 0, 73, 0
2, 3600, Note_on_c, 0, 71, 100
2, 3816, Note_on_c, 0, 62, 0
2, 3816, Note_on_c, 0, 59, 0
2, 3828, Note_on_c, 0, 71, 0
2, 3840, Note_on_c, 0, 65, 100
2, 3840, Note_on_c, 0, 69, 100
2, 4068, Note_on_c, 0, 69, 0
2, 4068, Note_on_c, 0, 65, 0
2, 4080, Note_on_c, 0, 68, 100
2, 4308, Note_on_c, 0, 68, 0
2, 4320, Note_on_c, 0, 66, 100
2, 4320, Note_on_c, 0, 71, 100
2, 4320, Note_on_c, 0, 45, 100
2, 4548, Note_on_c, 0, 71, 0
2, 4548, Note_on_c, 0, 66, 0
2, 4560, Note_on_c, 0, 69, 100
2, 4636, Note_on_c, 0, 69, 0
2, 4639, Note_on_c, 0, 71, 100
2, 4715, Note_on_c, 0, 71, 0
2, 4719, Note_on_c, 0, 69, 100
2, 4776, Note_on_c, 0, 45, 0
2, 4795, Note_on_c, 0, 69, 0
2, 4800, Note_on_c, 0, 68, 100
2, 4800, Note_on_c, 0, 57, 100
2, 4800, Note_on_c, 0, 62, 100
2, 4800, Note_on_c, 0, 66, 100
2, 5028, Note_on_c, 0, 68, 0
2, 5040, Note_on_c, 0, 69, 100
2, 5256, Note_on_c, 0, 66, 0
2, 5256, Note_on_c, 0, 62, 0
2, 5256, Note_on_c, 0, 57, 0
2, 5268, Note_on_c, 0, 69, 0
2, 5280, Note_on_c, 0, 67, 100
2, 5280, Note_on_c, 0, 76, 100
2, 5280, Note_on_c, 0, 57, 100
2, 5280, Note_on_c, 0, 61, 100
2, 5508, Note_on_c, 0, 76, 0
2, 5508, Note_on_c, 0, 67, 0
2, 5520, Note_on_c, 0, 69, 100
2, 5520, Note_on_c, 0, 78, 100
2, 5736, Note_on_c, 0, 61, 0
2, 5736, Note_on_c, 0, 57, 0
2, 5748, Note_on_c, 0, 78, 0
2, 5748, Note_on_c, 0, 69, 0
2, 5760, Note_on_c, 0, 50, 100
2, 5760, Note_on_c, 0, 66, 100
2, 5760, Note_on_c, 0, 74, 100
2, 5808, Control_c, 0, 7, 107
2, 5856, Control_c, 0, 7, 106
2, 5904, Control_c, 0, 7, 105
2, 5952, Control_c, 0, 7, 104
2, 6000, Control_c, 0, 7, 103
2, 6048, Control_c, 0, 7, 102
2, 6120, Control_c, 0, 7, 101
2, 6168, Control_c, 0, 7, 100
2, 6216, Note_on_c, 0, 74, 0
2, 6216, Note_on_c, 0, 66, 0
2, 6216, Control_c, 0, 7, 99
2, 6240, Note_on_c, 0, 57, 100
2, 6264, Control_c, 0, 7, 98
2, 6312, Control_c, 0, 7, 97
2, 6360, Control_c, 0, 7, 96
2, 6432, Control_c, 0, 7, 95
2, 6480, Control_c, 0, 7, 94
2, 6528, Control_c, 0, 7, 93
2, 6576, Control_c, 0, 7, 92
2, 6624, Control_c, 0, 7, 91
2, 6696, Note_on_c, 0, 57, 0
2, 6696, Control_c, 0, 7, 90
2, 6720, Note_on_c, 0, 57, 100
2, 6720, Note_on_c, 0, 66, 100
2, 6744, Control_c, 0, 7, 89
2, 6792, Control_c, 0, 7, 88
2, 6840, Control_c, 0, 7, 87
2, 6888, Control_c, 0, 7, 86
2, 6936, Control_c, 0, 7, 85
2, 7176, Note_on_c, 0, 66, 0
2, 7176, Note_on_c, 0, 57, 0
2, 7176, Note_on_c, 0, 50, 0
2, 7200, Note_on_c, 0, 50, 100
2, 7680, Note_on_c, 0, 57, 100
2, 7680, Note_on_c, 0, 66, 100
2, 7680, Note_on_c, 0, 62, 100
2, 8136, Note_on_c, 0, 62, 0
2, 8136, Note_on_c, 0, 66, 0
2, 8136, Note_on_c, 0, 57, 0
2, 8160, Note_on_c, 0, 57, 100
2, 8160, Note_on_c, 0, 62, 100
2, 8160, Note_on_c, 0, 66, 100
2, 8616, Note_on_c, 0, 66, 0
2, 8616, Note_on_c, 0, 62, 0
2, 8616, Note_on_c, 0, 57, 0
2, 8616, Note_on_c, 0, 50, 0
2, 8640, Note_on_c, 0, 49, 100
2, 9120, Note_on_c, 0, 57, 100
2, 9120, Note_on_c, 0, 64, 100
2, 9576, Note_on_c, 0, 64, 0
2, 9576, Note_on_c, 0, 57, 0
2, 9600, Note_on_c, 0, 57, 100
2, 9600, Note_on_c, 0, 64, 100
2, 9600, Note_on_c, 0, 69, 100
2, 10056, Note_on_c, 0, 49, 0
2, 10056, Note_on_c, 0, 69, 0
2, 10056, Note_on_c, 0, 64, 0
2, 10056, Note_on_c, 0, 57, 0
2, 10080, Note_on_c, 0, 64, 100
2, 10080, Note_on_c, 0, 66, 100
2, 10080, Note_on_c, 0, 57, 100
2, 10080, Note_on_c, 0, 48, 100
2, 10308, Note_on_c, 0, 48, 0
2, 10308, Note_on_c, 0, 57, 0
2, 10320, Note_on_c, 0, 60, 100
2, 10320, Note_on_c, 0, 45, 100
2, 10536, Note_on_c, 0, 66, 0
2, 10536, Note_on_c, 0, 64, 0
2, 10548, Note_on_c, 0, 45, 0
2, 10548, Note_on_c, 0, 60, 0
2, 10560, Note_on_c, 0, 47, 100
2, 11040, Note_on_c, 0, 57, 100
2, 11040, Note_on_c, 0, 63, 100
2, 11040, Note_on_c, 0, 69, 100
2, 11496, Note_on_c, 0, 69, 0
2, 11496, Note_on_c, 0, 63, 0
2, 11496, Note_on_c, 0, 57, 0
2, 11496, Note_on_c, 0, 47, 0
2, 11520, Note_on_c, 0, 40, 100
2, 11976, Note_on_c, 0, 40, 0
2, 12000, Note_on_c, 0, 52, 100
2, 12000, Note_on_c, 0, 59, 100
2, 12000, Note_on_c, 0, 64, 100
2, 12000, Note_on_c, 0, 67, 100
2, 12456, Note_on_c, 0, 67, 0
2, 12456, Note_on_c, 0, 64, 0
2, 12456, Note_on_c, 0, 59, 0
2, 12456, Note_on_c, 0, 52, 0
2, 12480, Note_on_c, 0, 52, 100
2, 12480, Note_on_c, 0, 58, 100
2, 12480, Note_on_c, 0, 64, 100
2, 12480, Note_on_c, 0, 67, 100
2, 12936, Note_on_c, 0, 67, 0
2, 12936, Note_on_c, 0, 64, 0
2, 12936, Note_on_c, 0, 58, 0
2, 12936, Note_on_c, 0, 52, 0
2, 12960, Note_on_c, 0, 45, 100
2, 13440, Note_on_c, 0, 52, 100
2, 13440, Note_on_c, 0, 57, 100
2, 13440, Note_on_c, 0, 61, 100
2, 13440, Note_on_c, 0, 67, 100
2, 13896, Note_on_c, 0, 67, 0
2, 13896, Note_on_c, 0, 61, 0
2, 13896, Note_on_c, 0, 57, 0
2, 13896, Note_on_c, 0, 52, 0
2, 13920, Note_on_c, 0, 52, 100
2, 13920, Note_on_c, 0, 57, 100
2, 13920, Note_on_c, 0, 61, 100
2, 13920, Note_on_c, 0, 67, 100
2, 14376, Note_on_c, 0, 67, 0
2, 14376, Note_on_c, 0, 61, 0
2, 14376, Note_on_c, 0, 57, 0
2, 14376, Note_on_c, 0, 52, 0
2, 14376, Note_on_c, 0, 45, 0
2, 14400, Note_on_c, 0, 45, 100
2, 14880, Note_on_c, 0, 57, 100
2, 14880, Note_on_c, 0, 62, 100
2, 14880, Note_on_c, 0, 66, 100
2, 15792, Note_on_c, 0, 66, 0
2, 15792, Note_on_c, 0, 62, 0
2, 15792, Note_on_c, 0, 57, 0
2, 15816, Note_on_c, 0, 45, 0
2, 15840, Note_on_c, 0, 45, 100
2, 16320, Note_on_c, 0, 57, 100
2, 16320, Note_on_c, 0, 66, 100
2, 16320, Note_on_c, 0, 62, 100
2, 16776, Note_on_c, 0, 62, 0
2, 16776, Note_on_c, 0, 66, 0
2, 16776, Note_on_c, 0, 57, 0
2, 16776, Note_on_c, 0, 45, 0
2, 16800, Note_on_c, 0, 45, 100
2, 16800, Note_on_c, 0, 62, 100
2, 16800, Note_on_c, 0, 65, 100
2, 16800, Note_on_c, 0, 56, 100
2, 17256, Note_on_c, 0, 56, 0
2, 17256, Note_on_c, 0, 65, 0
2, 17256, Note_on_c, 0, 62, 0
2, 17256, Note_on_c, 0, 45, 0
2, 17280, Note_on_c, 0, 45, 100
2, 17280, Note_on_c, 0, 61, 100
2, 17280, Note_on_c, 0, 64, 100
2, 17280, Note_on_c, 0, 55, 100
2, 17736, Note_on_c, 0, 55, 0
2, 17736, Note_on_c, 0, 64, 0
2, 17736, Note_on_c, 0, 61, 0
2, 17736, Note_on_c, 0, 45, 0
2, 17760, Note_on_c, 0, 38, 100
2, 17760, Note_on_c, 0, 54, 100
2, 17760, Note_on_c, 0, 62, 100
2, 18216, Note_on_c, 0, 62, 0
2, 18216, Note_on_c, 0, 54, 0
2, 18216, Note_on_c, 0, 38, 0
2, 18240, Note_on_c, 0, 57, 100
2, 18240, Note_on_c, 0, 69, 100
2, 18696, Note_on_c, 0, 69, 0
2, 18696, Note_on_c, 0, 57, 0
2, 18720, Note_on_c, 0, 49, 100
2, 18720, Note_on_c, 0, 37, 100
2, 19200, Note_on_c, 0, 57, 100
2, 19200, Note_on_c, 0, 67, 100
2, 19200, Note_on_c, 0, 64, 100
2, 19656, Note_on_c, 0, 64, 0
2, 19656, Note_on_c, 0, 67, 0
2, 19656, Note_on_c, 0, 57, 0
2, 19680, Note_on_c, 0, 57, 100
2, 19680, Note_on_c, 0, 69, 100
2, 19680, Note_on_c, 0, 64, 100
2, 19680, Note_on_c, 0, 67, 100
2, 20136, Note_on_c, 0, 37, 0
2, 20136, Note_on_c, 0, 49, 0
2, 20136, Note_on_c, 0, 67, 0
2, 20136, Note_on_c, 0, 64, 0
2, 20136, Note_on_c, 0, 69, 0
2, 20136, Note_on_c, 0, 57, 0
2, 20160, Note_on_c, 0, 50, 100
2, 20160, Note_on_c, 0, 38, 100
2, 20640, Note_on_c, 0, 57, 100
2, 20640, Note_on_c, 0, 66, 100
2, 20640, Note_on_c, 0, 62, 100
2, 20640, Note_on_c, 0, 69, 100
2, 21096, Note_on_c, 0, 69, 0
2, 21096, Note_on_c, 0, 62, 0
2, 21096, Note_on_c, 0, 66, 0
2, 21096, Note_on_c, 0, 57, 0
2, 21576, Note_on_c, 0, 38, 0
2, 21576, Note_on_c, 0, 50, 0
2, 21600, Note_on_c, 0, 45, 100
2, 22080, Note_on_c, 0, 57, 100
2, 22080, Note_on_c, 0, 66, 100
2, 22080, Note_on_c, 0, 62, 100
2, 22536, Note_on_c, 0, 62, 0
2, 22536, Note_on_c, 0, 66, 0
2, 22536, Note_on_c, 0, 57, 0
2, 22560, Note_on_c, 0, 57, 100
2, 22560, Note_on_c, 0, 62, 100
2, 22560, Note_on_c, 0, 66, 100
2, 23016, Note_on_c, 0, 66, 0
2, 23016, Note_on_c, 0, 62, 0
2, 23016, Note_on_c, 0, 57, 0
2, 23016, Note_on_c, 0, 45, 0
2, 23040, Note_on_c, 0, 45, 100
2, 23040, Note_on_c, 0, 57, 100
2, 23040, Note_on_c, 0, 61, 100
2, 23040, Note_on_c, 0, 67, 100
2, 23136, Control_c, 0, 7, 84
2, 23328, Control_c, 0, 7, 83
2, 23496, Note_on_c, 0, 67, 0
2, 23496, Note_on_c, 0, 61, 0
2, 23496, Note_on_c, 0, 57, 0
2, 23496, Note_on_c, 0, 45, 0
2, 23520, Control_c, 0, 7, 82
2, 23520, Note_on_c, 0, 50, 100
2, 23520, Note_on_c, 0, 66, 100
2, 23520, Note_on_c, 0, 62, 100
2, 23520, Note_on_c, 0, 57, 100
2, 23712, Control_c, 0, 7, 81
2, 23904, Control_c, 0, 7, 80
2, 23976, Note_on_c, 0, 57, 0
2, 23976, Note_on_c, 0, 62, 0
2, 23976, Note_on_c, 0, 66, 0
2, 23976, Note_on_c, 0, 50, 0
2, 24000, Note_on_c, 0, 47, 100
2, 24096, Control_c, 0, 7, 79
2, 24288, Control_c, 0, 7, 78
2, 24456, Note_on_c, 0, 47, 0
2, 24480, Note_on_c, 0, 52, 100
2, 24960, Note_on_c, 0, 62, 100
2, 24960, Note_on_c, 0, 64, 100
2, 25416, Note_on_c, 0, 64, 0
2, 25416, Note_on_c, 0, 62, 0
2, 25440, Note_on_c, 0, 62, 100
2, 25440, Note_on_c, 0, 64, 100
2, 25896, Note_on_c, 0, 64, 0
2, 25896, Note_on_c, 0, 62, 0
2, 25896, Note_on_c, 0, 52, 0
2, 25920, Note_on_c, 0, 45, 100
2, 26400, Note_on_c, 0, 52, 100
2, 26400, Note_on_c, 0, 61, 100
2, 26400, Note_on_c, 0, 64, 100
2, 26856, Note_on_c, 0, 64, 0
2, 26856, Note_on_c, 0, 61, 0
2, 26880, Note_on_c, 0, 61, 100
2, 26880, Note_on_c, 0, 64, 100
2, 27336, Note_on_c, 0, 45, 0
2, 27336, Note_on_c, 0, 64, 0
2, 27336, Note_on_c, 0, 61, 0
2, 27336, Note_on_c, 0, 52, 0
2, 27360, Note_on_c, 0, 40, 100
2, 27840, Note_on_c, 0, 62, 100
2, 27840, Note_on_c, 0, 64, 100
2, 27840, Note_on_c, 0, 54, 100
2, 28296, Note_on_c, 0, 54, 0
2, 28296, Note_on_c, 0, 64, 0
2, 28296, Note_on_c, 0, 62, 0
2, 28320, Note_on_c, 0, 62, 100
2, 28320, Note_on_c, 0, 64, 100
2, 28320, Note_on_c, 0, 56, 100
2, 28776, Note_on_c, 0, 56, 0
2, 28776, Note_on_c, 0, 64, 0
2, 28776, Note_on_c, 0, 62, 0
2, 28776, Note_on_c, 0, 40, 0
2, 28800, Note_on_c, 0, 33, 100
2, 28800, Note_on_c, 0, 45, 100
2, 29280, Note_on_c, 0, 57, 100
2, 29280, Note_on_c, 0, 61, 100
2, 29280, Note_on_c, 0, 64, 100
2, 29280, Note_on_c, 0, 69, 100
2, 29280, Note_on_c, 0, 52, 100
2, 30216, Note_on_c, 0, 52, 0
2, 30216, Note_on_c, 0, 69, 0
2, 30216, Note_on_c, 0, 64, 0
2, 30216, Note_on_c, 0, 61, 0
2, 30216, Note_on_c, 0, 57, 0
2, 30216, Note_on_c, 0, 45, 0
2, 30216, Note_on_c, 0, 33, 0
2, 30240, Note_on_c, 0, 49, 100
2, 30720, Note_on_c, 0, 57, 100
2, 30720, Note_on_c, 0, 67, 100
2, 30720, Note_on_c, 0, 64, 100
2, 31176, Note_on_c, 0, 64, 0
2, 31176, Note_on_c, 0, 67, 0
2, 31176, Note_on_c, 0, 57, 0
2, 31200, Note_on_c, 0, 57, 100
2, 31200, Note_on_c, 0, 67, 100
2, 31200, Note_on_c, 0, 64, 100
2, 31656, Note_on_c, 0, 49, 0
2, 31656, Note_on_c, 0, 64, 0
2, 31656, Note_on_c, 0, 67, 0
2, 31656, Note_on_c, 0, 57, 0
2, 31680, Note_on_c, 0, 50, 100
2, 32160, Note_on_c, 0, 57, 100
2, 32160, Note_on_c, 0, 66, 100
2, 32160, Note_on_c, 0, 62, 100
2, 32616, Note_on_c, 0, 62, 0
2, 32616, Note_on_c, 0, 66, 0
2, 32616, Note_on_c, 0, 57, 0
2, 32616, Note_on_c, 0, 50, 0
2, 33120, Note_on_c, 0, 45, 100
2, 33600, Note_on_c, 0, 57, 100
2, 33600, Note_on_c, 0, 66, 100
2, 33600, Note_on_c, 0, 62, 100
2, 34056, Note_on_c, 0, 45, 0
2, 34056, Note_on_c, 0, 62, 0
2, 34056, Note_on_c, 0, 66, 0
2, 34056, Note_on_c, 0, 57, 0
2, 34080, Note_on_c, 0, 62, 100
2, 34080, Note_on_c, 0, 65, 100
2, 34080, Note_on_c, 0, 45, 100
2, 34080, Note_on_c, 0, 56, 100
2, 34536, Note_on_c, 0, 56, 0
2, 34536, Note_on_c, 0, 45, 0
2, 34536, Note_on_c, 0, 65, 0
2, 34536, Note_on_c, 0, 62, 0
2, 34560, Note_on_c, 0, 61, 100
2, 34560, Note_on_c, 0, 64, 100
2, 34560, Note_on_c, 0, 45, 100
2, 34560, Note_on_c, 0, 55, 100
2, 35016, Note_on_c, 0, 55, 0
2, 35016, Note_on_c, 0, 45, 0
2, 35016, Note_on_c, 0, 64, 0
2, 35016, Note_on_c, 0, 61, 0
2, 35040, Note_on_c, 0, 61, 100
2, 35040, Note_on_c, 0, 64, 100
2, 35040, Note_on_c, 0, 46, 100
2, 35040, Note_on_c, 0, 54, 100
2, 35496, Note_on_c, 0, 54, 0
2, 35496, Note_on_c, 0, 46, 0
2, 35496, Note_on_c, 0, 64, 0
2, 35496, Note_on_c, 0, 61, 0
2, 35520, Note_on_c, 0, 59, 100
2, 35520, Note_on_c, 0, 62, 100
2, 35520, Note_on_c, 0, 47, 100
2, 35520, Note_on_c, 0, 54, 100
2, 35976, Note_on_c, 0, 54, 0
2, 35976, Note_on_c, 0, 47, 0
2, 35976, Note_on_c, 0, 62, 0
2, 35976, Note_on_c, 0, 59, 0
2, 36000, Note_on_c, 0, 49, 100
2, 36000, Note_on_c, 0, 37, 100
2, 36480, Note_on_c, 0, 57, 100
2, 36480, Note_on_c, 0, 67, 100
2, 36480, Note_on_c, 0, 64, 100
2, 36480, Note_on_c, 0, 69, 100
2, 36936, Note_on_c, 0, 69, 0
2, 36936, Note_on_c, 0, 64, 0
2, 36936, Note_on_c, 0, 67, 0
2, 36936, Note_on_c, 0, 57, 0
2, 36960, Note_on_c, 0, 57, 100
2, 36960, Note_on_c, 0, 69, 100
2, 36960, Note_on_c, 0, 64, 100
2, 36960, Note_on_c, 0, 67, 100
2, 37416, Note_on_c, 0, 67, 0
2, 37416, Note_on_c, 0, 64, 0
2, 37416, Note_on_c, 0, 69, 0
2, 37416, Note_on_c, 0, 57, 0
2, 37416, Note_on_c, 0, 37, 0
2, 37416, Note_on_c, 0, 49, 0
2, 37440, Note_on_c, 0, 48, 100
2, 37440, Note_on_c, 0, 36, 100
2, 37920, Note_on_c, 0, 57, 100
2, 37920, Note_on_c, 0, 66, 100
2, 37920, Note_on_c, 0, 64, 100
2, 37920, Note_on_c, 0, 69, 100
2, 38376, Note_on_c, 0, 69, 0
2, 38376, Note_on_c, 0, 64, 0
2, 38376, Note_on_c, 0, 66, 0
2, 38376, Note_on_c, 0, 57, 0
2, 38376, Note_on_c, 0, 36, 0
2, 38376, Note_on_c, 0, 48, 0
2, 38400, Note_on_c, 0, 47, 100
2, 38400, Note_on_c, 0, 35, 100
2, 38400, Note_on_c, 0, 59, 100
2, 38400, Note_on_c, 0, 57, 100
2, 38400, Note_on_c, 0, 63, 100
2, 38400, Note_on_c, 0, 66, 100
2, 38400, Note_on_c, 0, 71, 100
2, 38856, Note_on_c, 0, 71, 0
2, 38856, Note_on_c, 0, 66, 0
2, 38856, Note_on_c, 0, 63, 0
2, 38856, Note_on_c, 0, 57, 0
2, 38856, Note_on_c, 0, 59, 0
2, 38856, Note_on_c, 0, 35, 0
2, 38856, Note_on_c, 0, 47, 0
2, 38880, Note_on_c, 0, 47, 100
2, 38880, Note_on_c, 0, 40, 100
2, 38880, Note_on_c, 0, 59, 100
2, 38880, Note_on_c, 0, 62, 100
2, 38880, Note_on_c, 0, 68, 100
2, 39336, Note_on_c, 0, 68, 0
2, 39336, Note_on_c, 0, 62, 0
2, 39336, Note_on_c, 0, 59, 0
2, 39336, Note_on_c, 0, 40, 0
2, 39336, Note_on_c, 0, 47, 0
2, 39360, Note_on_c, 0, 42, 100
2, 39360, Note_on_c, 0, 57, 100
2, 39360, Note_on_c, 0, 62, 100
2, 39360, Note_on_c, 0, 69, 100
2, 39816, Note_on_c, 0, 69, 0
2, 39816, Note_on_c, 0, 62, 0
2, 39816, Note_on_c, 0, 57, 0
2, 39816, Note_on_c, 0, 42, 0
2, 39840, Note_on_c, 0, 43, 100
2, 39840, Note_on_c, 0, 59, 100
2, 39840, Note_on_c, 0, 64, 100
2, 39840, Note_on_c, 0, 67, 100
2, 40296, Note_on_c, 0, 67, 0
2, 40296, Note_on_c, 0, 64, 0
2, 40296, Note_on_c, 0, 59, 0
2, 40296, Note_on_c, 0, 43, 0
2, 40320, Note_on_c, 0, 57, 100
2, 40320, Note_on_c, 0, 61, 100
2, 40320, Note_on_c, 0, 67, 100
2, 40320, Note_on_c, 0, 45, 100
2, 40776, Note_on_c, 0, 45, 0
2, 40776, Note_on_c, 0, 67, 0
2, 40776, Note_on_c, 0, 61, 0
2, 40776, Note_on_c, 0, 57, 0
2, 40800, Note_on_c, 0, 57, 100
2, 40800, Note_on_c, 0, 62, 100
2, 40800, Note_on_c, 0, 66, 100
2, 40800, Note_on_c, 0, 50, 100
2, 40800, Note_on_c, 0, 38, 100
2, 41256, Note_on_c, 0, 38, 0
2, 41256, Note_on_c, 0, 50, 0
2, 41256, Note_on_c, 0, 66, 0
2, 41256, Note_on_c, 0, 62, 0
2, 41256, Note_on_c, 0, 57, 0
2, 41280, Note_on_c, 0, 69, 100
2, 41736, Note_on_c, 0, 69, 0
2, 41760, Control_c, 0, 7, 108
2, 41760, Note_on_c, 0, 83, 100
2, 41760, Note_on_c, 0, 45, 100
2, 41988, Note_on_c, 0, 83, 0
2, 42000, Note_on_c, 0, 81, 100
2, 42216, Note_on_c, 0, 45, 0
2, 42228, Note_on_c, 0, 81, 0
2, 42240, Note_on_c, 0, 79, 100
2, 42240, Note_on_c, 0, 57, 100
2, 42240, Note_on_c, 0, 64, 100
2, 42240, Note_on_c, 0, 67, 100
2, 42468, Note_on_c, 0, 79, 0
2, 42480, Note_on_c, 0, 73, 100
2, 42696, Note_on_c, 0, 67, 0
2, 42696, Note_on_c, 0, 64, 0
2, 42696, Note_on_c, 0, 57, 0
2, 42708, Note_on_c, 0, 73, 0
2, 42720, Note_on_c, 0, 67, 100
2, 42720, Note_on_c, 0, 78, 100
2, 42720, Note_on_c, 0, 46, 100
2, 42948, Note_on_c, 0, 78, 0
2, 42948, Note_on_c, 0, 67, 0
2, 42960, Note_on_c, 0, 76, 100
2, 43176, Note_on_c, 0, 46, 0
2, 43188, Note_on_c, 0, 76, 0
2, 43200, Note_on_c, 0, 47, 100
2, 43200, Note_on_c, 0, 74, 100
2, 43428, Note_on_c, 0, 74, 0
2, 43440, Note_on_c, 0, 66, 100
2, 43656, Note_on_c, 0, 47, 0
2, 43668, Note_on_c, 0, 66, 0
2, 43680, Note_on_c, 0, 59, 100
2, 43680, Note_on_c, 0, 62, 100
2, 43680, Note_on_c, 0, 73, 100
2, 43908, Note_on_c, 0, 73, 0
2, 43920, Note_on_c, 0, 71, 100
2, 44136, Note_on_c, 0, 62, 0
2, 44136, Note_on_c, 0, 59, 0
2, 44148, Note_on_c, 0, 71, 0
2, 44160, Note_on_c, 0, 65, 100
2, 44160, Note_on_c, 0, 69, 100
2, 44388, Note_on_c, 0, 69, 0
2, 44388, Note_on_c, 0, 65, 0
2, 44400, Note_on_c, 0, 68, 100
2, 44628, Note_on_c, 0, 68, 0
2, 44640, Note_on_c, 0, 66, 100
2, 44640, Note_on_c, 0, 71, 100
2, 44640, Note_on_c, 0, 45, 100
2, 44868, Note_on_c, 0, 71, 0
2, 44868, Note_on_c, 0, 66, 0
2, 44880, Note_on_c, 0, 69, 100
2, 44956, Note_on_c, 0, 69, 0
2, 44959, Note_on_c, 0, 71, 100
2, 45035, Note_on_c, 0, 71, 0
2, 45039, Note_on_c, 0, 69, 100
2, 45096, Note_on_c, 0, 45, 0
2, 45115, Note_on_c, 0, 69, 0
2, 45120, Note_on_c, 0, 68, 100
2, 45120, Note_on_c, 0, 57, 100
2, 45120, Note_on_c, 0, 62, 100
2, 45120, Note_on_c, 0, 66, 100
2, 45348, Note_on_c, 0, 68, 0
2, 45360, Note_on_c, 0, 69, 100
2, 45576, Note_on_c, 0, 66, 0
2, 45576, Note_on_c, 0, 62, 0
2, 45576, Note_on_c, 0, 57, 0
2, 45588, Note_on_c, 0, 69, 0
2, 45600, Note_on_c, 0, 67, 100
2, 45600, Note_on_c, 0, 76, 100
2, 45600, Note_on_c, 0, 57, 100
2, 45600, Note_on_c, 0, 61, 100
2, 45828, Note_on_c, 0, 76, 0
2, 45828, Note_on_c, 0, 67, 0
2, 45840, Note_on_c, 0, 69, 100
2, 45840, Note_on_c, 0, 78, 100
2, 46056, Note_on_c, 0, 61, 0
2, 46056, Note_on_c, 0, 57, 0
2, 46068, Note_on_c, 0, 78, 0
2, 46068, Note_on_c, 0, 69, 0
2, 46080, Note_on_c, 0, 50, 100
2, 46080, Note_on_c, 0, 66, 100
2, 46080, Note_on_c, 0, 74, 100
2, 46128, Control_c, 0, 7, 107
2, 46176, Control_c, 0, 7, 106
2, 46224, Control_c, 0, 7, 105
2, 46272, Control_c, 0, 7, 104
2, 46320, Control_c, 0, 7, 103
2, 46368, Control_c, 0, 7, 102
2, 46440, Control_c, 0, 7, 101
2, 46488, Control_c, 0, 7, 100
2, 46536, Note_on_c, 0, 74, 0
2, 46536, Note_on_c, 0, 66, 0
2, 46536, Control_c, 0, 7, 99
2, 46560, Note_on_c, 0, 57, 100
2, 46584, Control_c, 0, 7, 98
2, 46632, Control_c, 0, 7, 97
2, 46680, Control_c, 0, 7, 96
2, 46752, Control_c, 0, 7, 95
2, 46800, Control_c, 0, 7, 94
2, 46848, Control_c, 0, 7, 93
2, 46896, Control_c, 0, 7, 92
2, 46944, Control_c, 0, 7, 91
2, 47016, Note_on_c, 0, 57, 0
2, 47016, Control_c, 0, 7, 90
2, 47040, Note_on_c, 0, 57, 100
2, 47040, Note_on_c, 0, 66, 100
2, 47064, Control_c, 0, 7, 89
2, 47112, Control_c, 0, 7, 88
2, 47160, Control_c, 0, 7, 87
2, 47208, Control_c, 0, 7, 86
2, 47256, Control_c, 0, 7, 85
2, 47496, Note_on_c, 0, 66, 0
2, 47496, Note_on_c, 0, 57, 0
2, 47496, Note_on_c, 0, 50, 0
2, 47520, Note_on_c, 0, 50, 100
2, 48000, Note_on_c, 0, 57, 100
2, 48000, Note_on_c, 0, 66, 100
2, 48000, Note_on_c, 0, 62, 100
2, 48456, Note_on_c, 0, 62, 0
2, 48456, Note_on_c, 0, 66, 0
2, 48456, Note_on_c, 0, 57, 0
2, 48480, Note_on_c, 0, 57, 100
2, 48480, Note_on_c, 0, 62, 100
2, 48480, Note_on_c, 0, 66, 100
2, 48936, Note_on_c, 0, 50, 0
2, 48936, Note_on_c, 0, 66, 0
2, 48936, Note_on_c, 0, 62, 0
2, 48936, Note_on_c, 0, 57, 0
2, 48960, Note_on_c, 0, 49, 100
2, 49440, Note_on_c, 0, 57, 100
2, 49440, Note_on_c, 0, 64, 100
2, 49896, Note_on_c, 0, 64, 0
2, 49896, Note_on_c, 0, 57, 0
2, 49920, Note_on_c, 0, 57, 100
2, 49920, Note_on_c, 0, 64, 100
2, 49920, Note_on_c, 0, 69, 100
2, 50376, Note_on_c, 0, 69, 0
2, 50376, Note_on_c, 0, 64, 0
2, 50376, Note_on_c, 0, 57, 0
2, 50376, Note_on_c, 0, 49, 0
2, 50400, Note_on_c, 0, 64, 100
2, 50400, Note_on_c, 0, 66, 100
2, 50400, Note_on_c, 0, 57, 100
2, 50400, Note_on_c, 0, 48, 100
2, 50628, Note_on_c, 0, 48, 0
2, 50628, Note_on_c, 0, 57, 0
2, 50640, Note_on_c, 0, 60, 100
2, 50640, Note_on_c, 0, 45, 100
2, 50856, Note_on_c, 0, 66, 0
2, 50856, Note_on_c, 0, 64, 0
2, 50868, Note_on_c, 0, 45, 0
2, 50868, Note_on_c, 0, 60, 0
2, 50880, Note_on_c, 0, 47, 100
2, 51360, Note_on_c, 0, 57, 100
2, 51360, Note_on_c, 0, 63, 100
2, 51360, Note_on_c, 0, 69, 100
2, 51816, Note_on_c, 0, 69, 0
2, 51816, Note_on_c, 0, 63, 0
2, 51816, Note_on_c, 0, 57, 0
2, 51816, Note_on_c, 0, 47, 0
2, 51840, Note_on_c, 0, 40, 100
2, 52296, Note_on_c, 0, 40, 0
2, 52320, Note_on_c, 0, 52, 100
2, 52320, Note_on_c, 0, 59, 100
2, 52320, Note_on_c, 0, 64, 100
2, 52320, Note_on_c, 0, 67, 100
2, 52776, Note_on_c, 0, 67, 0
2, 52776, Note_on_c, 0, 64, 0
2, 52776, Note_on_c, 0, 59, 0
2, 52776, Note_on_c, 0, 52, 0
2, 52800, Note_on_c, 0, 52, 100
2, 52800, Note_on_c, 0, 58, 100
2, 52800, Note_on_c, 0, 64, 100
2, 52800, Note_on_c, 0, 67, 100
2, 53256, Note_on_c, 0, 67, 0
2, 53256, Note_on_c, 0, 64, 0
2, 53256, Note_on_c, 0, 58, 0
2, 53256, Note_on_c, 0, 52, 0
2, 53280, Note_on_c, 0, 45, 100
2, 53760, Note_on_c, 0, 52, 100
2, 53760, Note_on_c, 0, 57, 100
2, 53760, Note_on_c, 0, 61, 100
2, 53760, Note_on_c, 0, 67, 100
2, 54216, Note_on_c, 0, 67, 0
2, 54216, Note_on_c, 0, 61, 0
2, 54216, Note_on_c, 0, 57, 0
2, 54216, Note_on_c, 0, 52, 0
2, 54240, Note_on_c, 0, 52, 100
2, 54240, Note_on_c, 0, 57, 100
2, 54240, Note_on_c, 0, 61, 100
2, 54240, Note_on_c, 0, 67, 100
2, 54696, Note_on_c, 0, 67, 0
2, 54696, Note_on_c, 0, 61, 0
2, 54696, Note_on_c, 0, 57, 0
2, 54696, Note_on_c, 0, 52, 0
2, 54696, Note_on_c, 0, 45, 0
2, 54720, Note_on_c, 0, 45, 100
2, 55200, Note_on_c, 0, 57, 100
2, 55200, Note_on_c, 0, 62, 100
2, 55200, Note_on_c, 0, 66, 100
2, 56112, Note_on_c, 0, 66, 0
2, 56112, Note_on_c, 0, 62, 0
2, 56112, Note_on_c, 0, 57, 0
2, 56136, Note_on_c, 0, 45, 0
2, 56160, Note_on_c, 0, 45, 100
2, 56640, Note_on_c, 0, 57, 100
2, 56640, Note_on_c, 0, 66, 100
2, 56640, Note_on_c, 0, 62, 100
2, 57096, Note_on_c, 0, 62, 0
2, 57096, Note_on_c, 0, 66, 0
2, 57096, Note_on_c, 0, 57, 0
2, 57096, Note_on_c, 0, 45, 0
2, 57120, Note_on_c, 0, 45, 100
2, 57120, Note_on_c, 0, 62, 100
2, 57120, Note_on_c, 0, 65, 100
2, 57120, Note_on_c, 0, 56, 100
2, 57576, Note_on_c, 0, 56, 0
2, 57576, Note_on_c, 0, 65, 0
2, 57576, Note_on_c, 0, 62, 0
2, 57576, Note_on_c, 0, 45, 0
2, 57600, Note_on_c, 0, 45, 100
2, 57600, Note_on_c, 0, 61, 100
2, 57600, Note_on_c, 0, 64, 100
2, 57600, Note_on_c, 0, 55, 100
2, 58056, Note_on_c, 0, 55, 0
2, 58056, Note_on_c, 0, 64, 0
2, 58056, Note_on_c, 0, 61, 0
2, 58056, Note_on_c, 0, 45, 0
2, 58080, Note_on_c, 0, 38, 100
2, 58080, Note_on_c, 0, 54, 100
2, 58080, Note_on_c, 0, 62, 100
2, 58536, Note_on_c, 0, 62, 0
2, 58536, Note_on_c, 0, 54, 0
2, 58536, Note_on_c, 0, 38, 0
2, 58560, Note_on_c, 0, 57, 100
2, 58560, Note_on_c, 0, 69, 100
2, 59016, Note_on_c, 0, 69, 0
2, 59016, Note_on_c, 0, 57, 0
2, 59040, Note_on_c, 0, 49, 100
2, 59040, Note_on_c, 0, 37, 100
2, 59520, Note_on_c, 0, 57, 100
2, 59520, Note_on_c, 0, 67, 100
2, 59520, Note_on_c, 0, 64, 100
2, 59976, Note_on_c, 0, 64, 0
2, 59976, Note_on_c, 0, 67, 0
2, 59976, Note_on_c, 0, 57, 0
2, 60000, Note_on_c, 0, 57, 100
2, 60000, Note_on_c, 0, 69, 100
2, 60000, Note_on_c, 0, 64, 100
2, 60000, Note_on_c, 0, 67, 100
2, 60456, Note_on_c, 0, 37, 0
2, 60456, Note_on_c, 0, 49, 0
2, 60456, Note_on_c, 0, 67, 0
2, 60456, Note_on_c, 0, 64, 0
2, 60456, Note_on_c, 0, 69, 0
2, 60456, Note_on_c, 0, 57, 0
2, 60480, Note_on_c, 0, 50, 100
2, 60480, Note_on_c, 0, 38, 100
2, 60960, Note_on_c, 0, 57, 100
2, 60960, Note_on_c, 0, 66, 100
2, 60960, Note_on_c, 0, 62, 100
2, 60960, Note_on_c, 0, 69, 100
2, 61416, Note_on_c, 0, 69, 0
2, 61416, Note_on_c, 0, 62, 0
2, 61416, Note_on_c, 0, 66, 0
2, 61416, Note_on_c, 0, 57, 0
2, 61896, Note_on_c, 0, 38, 0
2, 61896, Note_on_c, 0, 50, 0
2, 61920, Note_on_c, 0, 45, 100
2, 62400, Note_on_c, 0, 57, 100
2, 62400, Note_on_c, 0, 66, 100
2, 62400, Note_on_c, 0, 62, 100
2, 62856, Note_on_c, 0, 62, 0
2, 62856, Note_on_c, 0, 66, 0
2, 62856, Note_on_c, 0, 57, 0
2, 62880, Note_on_c, 0, 57, 100
2, 62880, Note_on_c, 0, 62, 100
2, 62880, Note_on_c, 0, 66, 100
2, 63336, Note_on_c, 0, 45, 0
2, 63336, Note_on_c, 0, 66, 0
2, 63336, Note_on_c, 0, 62, 0
2, 63336, Note_on_c, 0, 57, 0
2, 63360, Note_on_c, 0, 45, 100
2, 63360, Note_on_c, 0, 57, 100
2, 63360, Note_on_c, 0, 61, 100
2, 63360, Note_on_c, 0, 67, 100
2, 63456, Control_c, 0, 7, 84
2, 63648, Control_c, 0, 7, 83
2, 63816, Note_on_c, 0, 67, 0
2, 63816, Note_on_c, 0, 61, 0
2, 63816, Note_on_c, 0, 57, 0
2, 63816, Note_on_c, 0, 45, 0
2, 63840, Control_c, 0, 7, 82
2, 63840, Note_on_c, 0, 50, 100
2, 63840, Note_on_c, 0, 66, 100
2, 63840, Note_on_c, 0, 62, 100
2, 63840, Note_on_c, 0, 57, 100
2, 64032, Control_c, 0, 7, 81
2, 64224, Control_c, 0, 7, 80
2, 64296, Note_on_c, 0, 57, 0
2, 64296, Note_on_c, 0, 62, 0
2, 64296, Note_on_c, 0, 66, 0
2, 64296, Note_on_c, 0, 50, 0
2, 64320, Note_on_c, 0, 47, 100
2, 64416, Control_c, 0, 7, 79
2, 64608, Control_c, 0, 7, 78
2, 64776, Note_on_c, 0, 47, 0
2, 64800, Note_on_c, 0, 52, 100
2, 65280, Note_on_c, 0, 62, 100
2, 65280, Note_on_c, 0, 64, 100
2, 65736, Note_on_c, 0, 64, 0
2, 65736, Note_on_c, 0, 62, 0
2, 65760, Note_on_c, 0, 62, 100
2, 65760, Note_on_c, 0, 64, 100
2, 66216, Note_on_c, 0, 64, 0
2, 66216, Note_on_c, 0, 62, 0
2, 66216, Note_on_c, 0, 52, 0
2, 66240, Note_on_c, 0, 45, 100
2, 66720, Note_on_c, 0, 52, 100
2, 66720, Note_on_c, 0, 61, 100
2, 66720, Note_on_c, 0, 64, 100
2, 67176, Note_on_c, 0, 64, 0
2, 67176, Note_on_c, 0, 61, 0
2, 67200, Note_on_c, 0, 61, 100
2, 67200, Note_on_c, 0, 64, 100
2, 67656, Note_on_c, 0, 52, 0
2, 67656, Note_on_c, 0, 45, 0
2, 67656, Note_on_c, 0, 64, 0
2, 67656, Note_on_c, 0, 61, 0
2, 67680, Note_on_c, 0, 40, 100
2, 68160, Note_on_c, 0, 62, 100
2, 68160, Note_on_c, 0, 64, 100
2, 68160, Note_on_c, 0, 54, 100
2, 68616, Note_on_c, 0, 54, 0
2, 68616, Note_on_c, 0, 64, 0
2, 68616, Note_on_c, 0, 62, 0
2, 68640, Note_on_c, 0, 62, 100
2, 68640, Note_on_c, 0, 64, 100
2, 68640, Note_on_c, 0, 56, 100
2, 69096, Note_on_c, 0, 56, 0
2, 69096, Note_on_c, 0, 64, 0
2, 69096, Note_on_c, 0, 62, 0
2, 69096, Note_on_c, 0, 40, 0
2, 69120, Note_on_c, 0, 33, 100
2, 69120, Note_on_c, 0, 45, 100
2, 69600, Note_on_c, 0, 57, 100
2, 69600, Note_on_c, 0, 61, 100
2, 69600, Note_on_c, 0, 64, 100
2, 69600, Note_on_c, 0, 69, 100
2, 69600, Note_on_c, 0, 52, 100
2, 70536, Note_on_c, 0, 45, 0
2, 70536, Note_on_c, 0, 33, 0
2, 70536, Note_on_c, 0, 52, 0
2, 70536, Note_on_c, 0, 69, 0
2, 70536, Note_on_c, 0, 64, 0
2, 70536, Note_on_c, 0, 61, 0
2, 70536, Note_on_c, 0, 57, 0
2, 70560, Note_on_c, 0, 49, 100
2, 71040, Note_on_c, 0, 57, 100
2, 71040, Note_on_c, 0, 67, 100
2, 71040, Note_on_c, 0, 64, 100
2, 71496, Note_on_c, 0, 64, 0
2, 71496, Note_on_c, 0, 67, 0
2, 71496, Note_on_c, 0, 57, 0
2, 71520, Note_on_c, 0, 57, 100
2, 71520, Note_on_c, 0, 67, 100
2, 71520, Note_on_c, 0, 64, 100
2, 71976, Note_on_c, 0, 64, 0
2, 71976, Note_on_c, 0, 67, 0
2, 71976, Note_on_c, 0, 57, 0
2, 71976, Note_on_c, 0, 49, 0
2, 72000, Note_on_c, 0, 50, 100
2, 72480, Note_on_c, 0, 57, 100
2, 72480, Note_on_c, 0, 66, 100
2, 72480, Note_on_c, 0, 62, 100
2, 72936, Note_on_c, 0, 62, 0
2, 72936, Note_on_c, 0, 66, 0
2, 72936, Note_on_c, 0, 57, 0
2, 72936, Note_on_c, 0, 50, 0
2, 73440, Note_on_c, 0, 45, 100
2, 73920, Note_on_c, 0, 57, 100
2, 73920, Note_on_c, 0, 66, 100
2, 73920, Note_on_c, 0, 62, 100
2, 74376, Note_on_c, 0, 62, 0
2, 74376, Note_on_c, 0, 66, 0
2, 74376, Note_on_c, 0, 57, 0
2, 74376, Note_on_c, 0, 45, 0
2, 74400, Note_on_c, 0, 62, 100
2, 74400, Note_on_c, 0, 65, 100
2, 74400, Note_on_c, 0, 45, 100
2, 74400, Note_on_c, 0, 56, 100
2, 74856, Note_on_c, 0, 56, 0
2, 74856, Note_on_c, 0, 45, 0
2, 74856, Note_on_c, 0, 65, 0
2, 74856, Note_on_c, 0, 62, 0
2, 74880, Note_on_c, 0, 61, 100
2, 74880, Note_on_c, 0, 64, 100
2, 74880, Note_on_c, 0, 45, 100
2, 74880, Note_on_c, 0, 55, 100
2, 75336, Note_on_c, 0, 55, 0
2, 75336, Note_on_c, 0, 45, 0
2, 75336, Note_on_c, 0, 64, 0
2, 75336, Note_on_c, 0, 61, 0
2, 75360, Note_on_c, 0, 61, 100
2, 75360, Note_on_c, 0, 64, 100
2, 75360, Note_on_c, 0, 46, 100
2, 75360, Note_on_c, 0, 54, 100
2, 75816, Note_on_c, 0, 54, 0
2, 75816, Note_on_c, 0, 46, 0
2, 75816, Note_on_c, 0, 64, 0
2, 75816, Note_on_c, 0, 61, 0
2, 75840, Note_on_c, 0, 59, 100
2, 75840, Note_on_c, 0, 62, 100
2, 75840, Note_on_c, 0, 47, 100
2, 75840, Note_on_c, 0, 54, 100
2, 76296, Note_on_c, 0, 54, 0
2, 76296, Note_on_c, 0, 47, 0
2, 76296, Note_on_c, 0, 62, 0
2, 76296, Note_on_c, 0, 59, 0
2, 76320, Note_on_c, 0, 49, 100
2, 76320, Note_on_c, 0, 37, 100
2, 76800, Note_on_c, 0, 57, 100
2, 76800, Note_on_c, 0, 67, 100
2, 76800, Note_on_c, 0, 64, 100
2, 76800, Note_on_c, 0, 69, 100
2, 77256, Note_on_c, 0, 69, 0
2, 77256, Note_on_c, 0, 64, 0
2, 77256, Note_on_c, 0, 67, 0
2, 77256, Note_on_c, 0, 57, 0
2, 77280, Note_on_c, 0, 57, 100
2, 77280, Note_on_c, 0, 69, 100
2, 77280, Note_on_c, 0, 64, 100
2, 77280, Note_on_c, 0, 67, 100
2, 77736, Note_on_c, 0, 37, 0
2, 77736, Note_on_c, 0, 49, 0
2, 77736, Note_on_c, 0, 67, 0
2, 77736, Note_on_c, 0, 64, 0
2, 77736, Note_on_c, 0, 69, 0
2, 77736, Note_on_c, 0, 57, 0
2, 77760, Note_on_c, 0, 48, 100
2, 77760, Note_on_c, 0, 36, 100
2, 78240, Note_on_c, 0, 57, 100
2, 78240, Note_on_c, 0, 66, 100
2, 78240, Note_on_c, 0, 64, 100
2, 78240, Note_on_c, 0, 69, 100
2, 78696, Note_on_c, 0, 69, 0
2, 78696, Note_on_c, 0, 64, 0
2, 78696, Note_on_c, 0, 66, 0
2, 78696, Note_on_c, 0, 57, 0
2, 78696, Note_on_c, 0, 36, 0
2, 78696, Note_on_c, 0, 48, 0
2, 78720, Note_on_c, 0, 47, 100
2, 78720, Note_on_c, 0, 35, 100
2, 78720, Note_on_c, 0, 59, 100
2, 78720, Note_on_c, 0, 57, 100
2, 78720, Note_on_c, 0, 63, 100
2, 78720, Note_on_c, 0, 66, 100
2, 78720, Note_on_c, 0, 71, 100
2, 79176, Note_on_c, 0, 71, 0
2, 79176, Note_on_c, 0, 66, 0
2, 79176, Note_on_c, 0, 63, 0
2, 79176, Note_on_c, 0, 57, 0
2, 79176, Note_on_c, 0, 59, 0
2, 79176, Note_on_c, 0, 35, 0
2, 79176, Note_on_c, 0, 47, 0
2, 79200, Note_on_c, 0, 47, 100
2, 79200, Note_on_c, 0, 40, 100
2, 79200, Note_on_c, 0, 59, 100
2, 79200, Note_on_c, 0, 62, 100
2, 79200, Note_on_c, 0, 68, 100
2, 79656, Note_on_c, 0, 68, 0
2, 79656, Note_on_c, 0, 62, 0
2, 79656, Note_on_c, 0, 59, 0
2, 79656, Note_on_c, 0, 40, 0
2, 79656, Note_on_c, 0, 47, 0
2, 79680, Note_on_c, 0, 42, 100
2, 79680, Note_on_c, 0, 57, 100
2, 79680, Note_on_c, 0, 62, 100
2, 79680, Note_on_c, 0, 69, 100
2, 80136, Note_on_c, 0, 69, 0
2, 80136, Note_on_c, 0, 62, 0
2, 80136, Note_on_c, 0, 57, 0
2, 80136, Note_on_c, 0, 42, 0
2, 80160, Note_on_c, 0, 43, 100
2, 80160, Note_on_c, 0, 59, 100
2, 80160, Note_on_c, 0, 64, 100
2, 80160, Note_on_c, 0, 67, 100
2, 80616, Note_on_c, 0, 67, 0
2, 80616, Note_on_c, 0, 64, 0
2, 80616, Note_on_c, 0, 59, 0
2, 80616, Note_on_c, 0, 43, 0
2, 80640, Note_on_c, 0, 57, 100
2, 80640, Note_on_c, 0, 61, 100
2, 80640, Note_on_c, 0, 67, 100
2, 80640, Note_on_c, 0, 45, 100
2, 81096, Note_on_c, 0, 45, 0
2, 81096, Note_on_c, 0, 67, 0
2, 81096, Note_on_c, 0, 61, 0
2, 81096, Note_on_c, 0, 57, 0
2, 81120, Note_on_c, 0, 57, 100
2, 81120, Note_on_c, 0, 62, 100
2, 81120, Note_on_c, 0, 66, 100
2, 81120, Note_on_c, 0, 50, 100
2, 81120, Note_on_c, 0, 38, 100
2, 81576, Note_on_c, 0, 38, 0
2, 81576, Note_on_c, 0, 50, 0
2, 81576, Note_on_c, 0, 66, 0
2, 81576, Note_on_c, 0, 62, 0
2, 81576, Note_on_c, 0, 57, 0
2, 81600, Note_on_c, 0, 69, 100
2, 82056, Note_on_c, 0, 69, 0
2, 82080, Control_c, 0, 7, 108
2, 82080, Note_on_c, 0, 83, 100
2, 82080, Note_on_c, 0, 45, 100
2, 82308, Note_on_c, 0, 83, 0
2, 82320, Note_on_c, 0, 81, 100
2, 82536, Note_on_c, 0, 45, 0
2, 82548, Note_on_c, 0, 81, 0
2, 82560, Note_on_c, 0, 79, 100
2, 82560, Note_on_c, 0, 57, 100
2, 82560, Note_on_c, 0, 64, 100
2, 82560, Note_on_c, 0, 67, 100
2, 82788, Note_on_c, 0, 79, 0
2, 82800, Note_on_c, 0, 73, 100
2, 83016, Note_on_c, 0, 67, 0
2, 83016, Note_on_c, 0, 64, 0
2, 83016, Note_on_c, 0, 57, 0
2, 83028, Note_on_c, 0, 73, 0
2, 83040, Note_on_c, 0, 67, 100
2, 83040, Note_on_c, 0, 78, 100
2, 83040, Note_on_c, 0, 46, 100
2, 83268, Note_on_c, 0, 78, 0
2, 83268, Note_on_c, 0, 67, 0
2, 83280, Note_on_c, 0, 76, 100
2, 83496, Note_on_c, 0, 46, 0
2, 83508, Note_on_c, 0, 76, 0
2, 83520, Note_on_c, 0, 47, 100
2, 83520, Note_on_c, 0, 74, 100
2, 83748, Note_on_c, 0, 74, 0
2, 83760, Note_on_c, 0, 66, 100
2, 83976, Note_on_c, 0, 47, 0
2, 83988, Note_on_c, 0, 66, 0
2, 84000, Note_on_c, 0, 59, 100
2, 84000, Note_on_c, 0, 62, 100
2, 84000, Note_on_c, 0, 73, 100
2, 84228, Note_on_c, 0, 73, 0
2, 84240, Note_on_c, 0, 71, 100
2, 84456, Note_on_c, 0, 62, 0
2, 84456, Note_on_c, 0, 59, 0
2, 84468, Note_on_c, 0, 71, 0
2, 84480, Note_on_c, 0, 65, 100
2, 84480, Note_on_c, 0, 69, 100
2, 84708, Note_on_c, 0, 69, 0
2, 84708, Note_on_c, 0, 65, 0
2, 84720, Note_on_c, 0, 68, 100
2, 84948, Note_on_c, 0, 68, 0
2, 84960, Note_on_c, 0, 66, 100
2, 84960, Note_on_c, 0, 71, 100
2, 84960, Note_on_c, 0, 45, 100
2, 85188, Note_on_c, 0, 71, 0
2, 85188, Note_on_c, 0, 66, 0
2, 85200, Note_on_c, 0, 69, 100
2, 85276, Note_on_c, 0, 69, 0
2, 85279, Note_on_c, 0, 71, 100
2, 85355, Note_on_c, 0, 71, 0
2, 85359, Note_on_c, 0, 69, 100
2, 85416, Note_on_c, 0, 45, 0
2, 85435, Note_on_c, 0, 69, 0
2, 85440, Note_on_c, 0, 68, 100
2, 85440, Note_on_c, 0, 57, 100
2, 85440, Note_on_c, 0, 62, 100
2, 85440, Note_on_c, 0, 66, 100
2, 85668, Note_on_c, 0, 68, 0
2, 85680, Note_on_c, 0, 69, 100
2, 85896, Note_on_c, 0, 66, 0
2, 85896, Note_on_c, 0, 62, 0
2, 85896, Note_on_c, 0, 57, 0
2, 85908, Note_on_c, 0, 69, 0
2, 85920, Note_on_c, 0, 67, 100
2, 85920, Note_on_c, 0, 76, 100
2, 85920, Note_on_c, 0, 57, 100
2, 85920, Note_on_c, 0, 61, 100
2, 86148, Note_on_c, 0, 76, 0
2, 86148, Note_on_c, 0, 67, 0
2, 86160, Note_on_c, 0, 69, 100
2, 86160, Note_on_c, 0, 78, 100
2, 86376, Note_on_c, 0, 61, 0
2, 86376, Note_on_c, 0, 57, 0
2, 86388, Note_on_c, 0, 78, 0
2, 86388, Note_on_c, 0, 69, 0
2, 86400, Note_on_c, 0, 50, 100
2, 86400, Note_on_c, 0, 66, 100
2, 86400, Note_on_c, 0, 74, 100
2, 86448, Control_c, 0, 7, 107
2, 86496, Control_c, 0, 7, 106
2, 86544, Control_c, 0, 7, 105
2, 86592, Control_c, 0, 7, 104
2, 86640, Control_c, 0, 7, 103
2, 86688, Control_c, 0, 7, 102
2, 86760, Control_c, 0, 7, 101
2, 86808, Control_c, 0, 7, 100
2, 86856, Note_on_c, 0, 74, 0
2, 86856, Note_on_c, 0, 66, 0
2, 86856, Control_c, 0, 7, 99
2, 86880, Note_on_c, 0, 57, 100
2, 86904, Control_c, 0, 7, 98
2, 86952, Control_c, 0, 7, 97
2, 87000, Control_c, 0, 7, 96
2, 87072, Control_c, 0, 7, 95
2, 87120, Control_c, 0, 7, 94
2, 87168, Control_c, 0, 7, 93
2, 87216, Control_c, 0, 7, 92
2, 87264, Control_c, 0, 7, 91
2, 87336, Note_on_c, 0, 57, 0
2, 87336, Control_c, 0, 7, 90
2, 87360, Note_on_c, 0, 57, 100
2, 87360, Note_on_c, 0, 66, 100
2, 87384, Control_c, 0, 7, 89
2, 87432, Control_c, 0, 7, 88
2, 87480, Control_c, 0, 7, 87
2, 87528, Control_c, 0, 7, 86
2, 87576, Control_c, 0, 7, 85
2, 87816, Note_on_c, 0, 66, 0
2, 87816, Note_on_c, 0, 57, 0
2, 87816, Note_on_c, 0, 50, 0
2, 87840, Note_on_c, 0, 50, 100
2, 88320, Note_on_c, 0, 57, 100
2, 88320, Note_on_c, 0, 66, 100
2, 88320, Note_on_c, 0, 62, 100
2, 88776, Note_on_c, 0, 62, 0
2, 88776, Note_on_c, 0, 66, 0
2, 88776, Note_on_c, 0, 57, 0
2, 88800, Note_on_c, 0, 57, 100
2, 88800, Note_on_c, 0, 62, 100
2, 88800, Note_on_c, 0, 66, 100
2, 89256, Note_on_c, 0, 50, 0
2, 89256, Note_on_c, 0, 66, 0
2, 89256, Note_on_c, 0, 62, 0
2, 89256, Note_on_c, 0, 57, 0
2, 89280, Note_on_c, 0, 49, 100
2, 89760, Note_on_c, 0, 57, 100
2, 89760, Note_on_c, 0, 64, 100
2, 90216, Note_on_c, 0, 64, 0
2, 90216, Note_on_c, 0, 57, 0
2, 90240, Note_on_c, 0, 57, 100
2, 90240, Note_on_c, 0, 64, 100
2, 90240, Note_on_c, 0, 69, 100
2, 90696, Note_on_c, 0, 69, 0
2, 90696, Note_on_c, 0, 64, 0
2, 90696, Note_on_c, 0, 57, 0
2, 90696, Note_on_c, 0, 49, 0
2, 90720, Note_on_c, 0, 64, 100
2, 90720, Note_on_c, 0, 66, 100
2, 90720, Note_on_c, 0, 57, 100
2, 90720, Note_on_c, 0, 48, 100
2, 90948, Note_on_c, 0, 48, 0
2, 90948, Note_on_c, 0, 57, 0
2, 90960, Note_on_c, 0, 60, 100
2, 90960, Note_on_c, 0, 45, 100
2, 91176, Note_on_c, 0, 66, 0
2, 91176, Note_on_c, 0, 64, 0
2, 91188, Note_on_c, 0, 45, 0
2, 91188, Note_on_c, 0, 60, 0
2, 91200, Note_on_c, 0, 47, 100
2, 91680, Note_on_c, 0, 57, 100
2, 91680, Note_on_c, 0, 63, 100
2, 91680, Note_on_c, 0, 69, 100
2, 92136, Note_on_c, 0, 69, 0
2, 92136, Note_on_c, 0, 63, 0
2, 92136, Note_on_c, 0, 57, 0
2, 92136, Note_on_c, 0, 47, 0
2, 92160, Note_on_c, 0, 40, 100
2, 92616, Note_on_c, 0, 40, 0
2, 92640, Note_on_c, 0, 52, 100
2, 92640, Note_on_c, 0, 59, 100
2, 92640, Note_on_c, 0, 64, 100
2, 92640, Note_on_c, 0, 67, 100
2, 93096, Note_on_c, 0, 67, 0
2, 93096, Note_on_c, 0, 64, 0
2, 93096, Note_on_c, 0, 59, 0
2, 93096, Note_on_c, 0, 52, 0
2, 93120, Note_on_c, 0, 52, 100
2, 93120, Note_on_c, 0, 58, 100
2, 93120, Note_on_c, 0, 64, 100
2, 93120, Note_on_c, 0, 67, 100
2, 93576, Note_on_c, 0, 67, 0
2, 93576, Note_on_c, 0, 64, 0
2, 93576, Note_on_c, 0, 58, 0
2, 93576, Note_on_c, 0, 52, 0
2, 93600, Note_on_c, 0, 45, 100
2, 94080, Note_on_c, 0, 52, 100
2, 94080, Note_on_c, 0, 57, 100
2, 94080, Note_on_c, 0, 61, 100
2, 94080, Note_on_c, 0, 67, 100
2, 94536, Note_on_c, 0, 67, 0
2, 94536, Note_on_c, 0, 61, 0
2, 94536, Note_on_c, 0, 57, 0
2, 94536, Note_on_c, 0, 52, 0
2, 94560, Note_on_c, 0, 52, 100
2, 94560, Note_on_c, 0, 57, 100
2, 94560, Note_on_c, 0, 61, 100
2, 94560, Note_on_c, 0, 67, 100
2, 95016, Note_on_c, 0, 67, 0
2, 95016, Note_on_c, 0, 61, 0
2, 95016, Note_on_c, 0, 57, 0
2, 95016, Note_on_c, 0, 52, 0
2, 95016, Note_on_c, 0, 45, 0
2, 95040, Note_on_c, 0, 45, 100
2, 95520, Note_on_c, 0, 57, 100
2, 95520, Note_on_c, 0, 62, 100
2, 95520, Note_on_c, 0, 66, 100
2, 96432, Note_on_c, 0, 66, 0
2, 96432, Note_on_c, 0, 62, 0
2, 96432, Note_on_c, 0, 57, 0
2, 96456, Note_on_c, 0, 45, 0
2, 96480, Note_on_c, 0, 45, 100
2, 96960, Note_on_c, 0, 57, 100
2, 96960, Note_on_c, 0, 66, 100
2, 96960, Note_on_c, 0, 62, 100
2, 97416, Note_on_c, 0, 62, 0
2, 97416, Note_on_c, 0, 66, 0
2, 97416, Note_on_c, 0, 57, 0
2, 97416, Note_on_c, 0, 45, 0
2, 97440, Note_on_c, 0, 45, 100
2, 97440, Note_on_c, 0, 62, 100
2, 97440, Note_on_c, 0, 65, 100
2, 97440, Note_on_c, 0, 56, 100
2, 97896, Note_on_c, 0, 56, 0
2, 97896, Note_on_c, 0, 65, 0
2, 97896, Note_on_c, 0, 62, 0
2, 97896, Note_on_c, 0, 45, 0
2, 97920, Note_on_c, 0, 45, 100
2, 97920, Note_on_c, 0, 61, 100
2, 97920, Note_on_c, 0, 64, 100
2, 97920, Note_on_c, 0, 55, 100
2, 98376, Note_on_c, 0, 55, 0
2, 98376, Note_on_c, 0, 64, 0
2, 98376, Note_on_c, 0, 61, 0
2, 98376, Note_on_c, 0, 45, 0
2, 98400, Note_on_c, 0, 38, 100
2, 98400, Note_on_c, 0, 54, 100
2, 98400, Note_on_c, 0, 62, 100
2, 98856, Note_on_c, 0, 62, 0
2, 98856, Note_on_c, 0, 54, 0
2, 98856, Note_on_c, 0, 38, 0
2, 98880, Note_on_c, 0, 57, 100
2, 98880, Note_on_c, 0, 69, 100
2, 99336, Note_on_c, 0, 69, 0
2, 99336, Note_on_c, 0, 57, 0
2, 99360, Note_on_c, 0, 49, 100
2, 99360, Note_on_c, 0, 37, 100
2, 99840, Note_on_c, 0, 57, 100
2, 99840, Note_on_c, 0, 67, 100
2, 99840, Note_on_c, 0, 64, 100
2, 100296, Note_on_c, 0, 64, 0
2, 100296, Note_on_c, 0, 67, 0
2, 100296, Note_on_c, 0, 57, 0
2, 100320, Note_on_c, 0, 57, 100
2, 100320, Note_on_c, 0, 69, 100
2, 100320, Note_on_c, 0, 64, 100
2, 100320, Note_on_c, 0, 67, 100
2, 100776, Note_on_c, 0, 67, 0
2, 100776, Note_on_c, 0, 64, 0
2, 100776, Note_on_c, 0, 69, 0
2, 100776, Note_on_c, 0, 57, 0
2, 100776, Note_on_c, 0, 37, 0
2, 100776, Note_on_c, 0, 49, 0
2, 100800, Note_on_c, 0, 50, 100
2, 100800, Note_on_c, 0, 38, 100
2, 101280, Note_on_c, 0, 57, 100
2, 101280, Note_on_c, 0, 66, 100
2, 101280, Note_on_c, 0, 62, 100
2, 101280, Note_on_c, 0, 69, 100
2, 101736, Note_on_c, 0, 69, 0
2, 101736, Note_on_c, 0, 62, 0
2, 101736, Note_on_c, 0, 66, 0
2, 101736, Note_on_c, 0, 57, 0
2, 102216, Note_on_c, 0, 38, 0
2, 102216, Note_on_c, 0, 50, 0
2, 102240, Note_on_c, 0, 45, 100
2, 102720, Note_on_c, 0, 57, 100
2, 102720, Note_on_c, 0, 66, 100
2, 102720, Note_on_c, 0, 62, 100
2, 103176, Note_on_c, 0, 62, 0
2, 103176, Note_on_c, 0, 66, 0
2, 103176, Note_on_c, 0, 57, 0
2, 103200, Note_on_c, 0, 57, 100
2, 103200, Note_on_c, 0, 62, 100
2, 103200, Note_on_c, 0, 66, 100
2, 103656, Note_on_c, 0, 45, 0
2, 103656, Note_on_c, 0, 66, 0
2, 103656, Note_on_c, 0, 62, 0
2, 103656, Note_on_c, 0, 57, 0
2, 103680, Note_on_c, 0, 45, 100
2, 103680, Note_on_c, 0, 57, 100
2, 103680, Note_on_c, 0, 61, 100
2, 103680, Note_on_c, 0, 67, 100
2, 103776, Control_c, 0, 7, 84
2, 103968, Control_c, 0, 7, 83
2, 104136, Note_on_c, 0, 67, 0
2, 104136, Note_on_c, 0, 61, 0
2, 104136, Note_on_c, 0, 57, 0
2, 104136, Note_on_c, 0, 45, 0
2, 104160, Control_c, 0, 7, 82
2, 104160, Note_on_c, 0, 50, 100
2, 104160, Note_on_c, 0, 66, 100
2, 104160, Note_on_c, 0, 62, 100
2, 104160, Note_on_c, 0, 57, 100
2, 104352, Control_c, 0, 7, 81
2, 104544, Control_c, 0, 7, 80
2, 104616, Note_on_c, 0, 57, 0
2, 104616, Note_on_c, 0, 62, 0
2, 104616, Note_on_c, 0, 66, 0
2, 104616, Note_on_c, 0, 50, 0
2, 104640, Note_on_c, 0, 47, 100
2, 104736, Control_c, 0, 7, 79
2, 104928, Control_c, 0, 7, 78
2, 105096, Note_on_c, 0, 47, 0
2, 105120, Note_on_c, 0, 52, 100
2, 105600, Note_on_c, 0, 62, 100
2, 105600, Note_on_c, 0, 64, 100
2, 106056, Note_on_c, 0, 64, 0
2, 106056, Note_on_c, 0, 62, 0
2, 106080, Note_on_c, 0, 62, 100
2, 106080, Note_on_c, 0, 64, 100
2, 106536, Note_on_c, 0, 52, 0
2, 106536, Note_on_c, 0, 64, 0
2, 106536, Note_on_c, 0, 62, 0
2, 106560, Note_on_c, 0, 45, 100
2, 107040, Note_on_c, 0, 52, 100
2, 107040, Note_on_c, 0, 61, 100
2, 107040, Note_on_c, 0, 64, 100
2, 107496, Note_on_c, 0, 64, 0
2, 107496, Note_on_c, 0, 61, 0
2, 107520, Note_on_c, 0, 61, 100
2, 107520, Note_on_c, 0, 64, 100
2, 107976, Note_on_c, 0, 64, 0
2, 107976, Note_on_c, 0, 61, 0
2, 107976, Note_on_c, 0, 52, 0
2, 107976, Note_on_c, 0, 45, 0
2, 108000, Note_on_c, 0, 40, 100
2, 108480, Note_on_c, 0, 62, 100
2, 108480, Note_on_c, 0, 64, 100
2, 108480, Note_on_c, 0, 54, 100
2, 108936, Note_on_c, 0, 54, 0
2, 108936, Note_on_c, 0, 64, 0
2, 108936, Note_on_c, 0, 62, 0
2, 108960, Note_on_c, 0, 62, 100
2, 108960, Note_on_c, 0, 64, 100
2, 108960, Note_on_c, 0, 56, 100
2, 109416, Note_on_c, 0, 56, 0
2, 109416, Note_on_c, 0, 64, 0
2, 109416, Note_on_c, 0, 62, 0
2, 109416, Note_on_c, 0, 40, 0
2, 109440, Note_on_c, 0, 33, 100
2, 109440, Note_on_c, 0, 45, 100
2, 109920, Note_on_c, 0, 57, 100
2, 109920, Note_on_c, 0, 61, 100
2, 109920, Note_on_c, 0, 64, 100
2, 109920, Note_on_c, 0, 69, 100
2, 109920, Note_on_c, 0, 52, 100
2, 110856, Note_on_c, 0, 52, 0
2, 110856, Note_on_c, 0, 69, 0
2, 110856, Note_on_c, 0, 64, 0
2, 110856, Note_on_c, 0, 61, 0
2, 110856, Note_on_c, 0, 57, 0
2, 110856, Note_on_c, 0, 45, 0
2, 110856, Note_on_c, 0, 33, 0
2, 110880, Note_on_c, 0, 49, 100
2, 111360, Note_on_c, 0, 57, 100
2, 111360, Note_on_c, 0, 67, 100
2, 111360, Note_on_c, 0, 64, 100
2, 111816, Note_on_c, 0, 64, 0
2, 111816, Note_on_c, 0, 67, 0
2, 111816, Note_on_c, 0, 57, 0
2, 111840, Note_on_c, 0, 57, 100
2, 111840, Note_on_c, 0, 67, 100
2, 111840, Note_on_c, 0, 64, 100
2, 112296, Note_on_c, 0, 64, 0
2, 112296, Note_on_c, 0, 67, 0
2, 112296, Note_on_c, 0, 57, 0
2, 112296, Note_on_c, 0, 49, 0
2, 112320, Note_on_c, 0, 50, 100
2, 112800, Note_on_c, 0, 57, 100
2, 112800, Note_on_c, 0, 66, 100
2, 112800, Note_on_c, 0, 62, 100
2, 113256, Note_on_c, 0, 50, 0
2, 113256, Note_on_c, 0, 62, 0
2, 113256, Note_on_c, 0, 66, 0
2, 113256, Note_on_c, 0, 57, 0
2, 113760, Note_on_c, 0, 45, 100
2, 114240, Note_on_c, 0, 57, 100
2, 114240, Note_on_c, 0, 66, 100
2, 114240, Note_on_c, 0, 62, 100
2, 114696, Note_on_c, 0, 62, 0
2, 114696, Note_on_c, 0, 66, 0
2, 114696, Note_on_c, 0, 57, 0
2, 114696, Note_on_c, 0, 45, 0
2, 114720, Note_on_c, 0, 62, 100
2, 114720, Note_on_c, 0, 65, 100
2, 114720, Note_on_c, 0, 45, 100
2, 114720, Note_on_c, 0, 56, 100
2, 115176, Note_on_c, 0, 56, 0
2, 115176, Note_on_c, 0, 45, 0
2, 115176, Note_on_c, 0, 65, 0
2, 115176, Note_on_c, 0, 62, 0
2, 115200, Note_on_c, 0, 61, 100
2, 115200, Note_on_c, 0, 64, 100
2, 115200, Note_on_c, 0, 45, 100
2, 115200, Note_on_c, 0, 55, 100
2, 115656, Note_on_c, 0, 55, 0
2, 115656, Note_on_c, 0, 45, 0
2, 115656, Note_on_c, 0, 64, 0
2, 115656, Note_on_c, 0, 61, 0
2, 115680, Note_on_c, 0, 61, 100
2, 115680, Note_on_c, 0, 64, 100
2, 115680, Note_on_c, 0, 46, 100
2, 115680, Note_on_c, 0, 54, 100
2, 116136, Note_on_c, 0, 54, 0
2, 116136, Note_on_c, 0, 46, 0
2, 116136, Note_on_c, 0, 64, 0
2, 116136, Note_on_c, 0, 61, 0
2, 116160, Note_on_c, 0, 59, 100
2, 116160, Note_on_c, 0, 62, 100
2, 116160, Note_on_c, 0, 47, 100
2, 116160, Note_on_c, 0, 54, 100
2, 116616, Note_on_c, 0, 54, 0
2, 116616, Note_on_c, 0, 47, 0
2, 116616, Note_on_c, 0, 62, 0
2, 116616, Note_on_c, 0, 59, 0
2, 116640, Note_on_c, 0, 49, 100
2, 116640, Note_on_c, 0, 37, 100
2, 117120, Note_on_c, 0, 57, 100
2, 117120, Note_on_c, 0, 67, 100
2, 117120, Note_on_c, 0, 64, 100
2, 117120, Note_on_c, 0, 69, 100
2, 117576, Note_on_c, 0, 69, 0
2, 117576, Note_on_c, 0, 64, 0
2, 117576, Note_on_c, 0, 67, 0
2, 117576, Note_on_c, 0, 57, 0
2, 117600, Note_on_c, 0, 57, 100
2, 117600, Note_on_c, 0, 69, 100
2, 117600, Note_on_c, 0, 64, 100
2, 117600, Note_on_c, 0, 67, 100
2, 118056, Note_on_c, 0, 37, 0
2, 118056, Note_on_c, 0, 49, 0
2, 118056, Note_on_c, 0, 67, 0
2, 118056, Note_on_c, 0, 64, 0
2, 118056, Note_on_c, 0, 69, 0
2, 118056, Note_on_c, 0, 57, 0
2, 118080, Note_on_c, 0, 48, 100
2, 118080, Note_on_c, 0, 36, 100
2, 118560, Note_on_c, 0, 57, 100
2, 118560, Note_on_c, 0, 66, 100
2, 118560, Note_on_c, 0, 64, 100
2, 118560, Note_on_c, 0, 69, 100
2, 119016, Note_on_c, 0, 69, 0
2, 119016, Note_on_c, 0, 64, 0
2, 119016, Note_on_c, 0, 66, 0
2, 119016, Note_on_c, 0, 57, 0
2, 119016, Note_on_c, 0, 36, 0
2, 119016, Note_on_c, 0, 48, 0
2, 119040, Note_on_c, 0, 47, 100
2, 119040, Note_on_c, 0, 35, 100
2, 119040, Note_on_c, 0, 59, 100
2, 119040, Note_on_c, 0, 57, 100
2, 119040, Note_on_c, 0, 63, 100
2, 119040, Note_on_c, 0, 66, 100
2, 119040, Note_on_c, 0, 71, 100
2, 119496, Note_on_c, 0, 71, 0
2, 119496, Note_on_c, 0, 66, 0
2, 119496, Note_on_c, 0, 63, 0
2, 119496, Note_on_c, 0, 57, 0
2, 119496, Note_on_c, 0, 59, 0
2, 119496, Note_on_c, 0, 35, 0
2, 119496, Note_on_c, 0, 47, 0
2, 119520, Note_on_c, 0, 47, 100
2, 119520, Note_on_c, 0, 40, 100
2, 119520, Note_on_c, 0, 59, 100
2, 119520, Note_on_c, 0, 62, 100
2, 119520, Note_on_c, 0, 68, 100
2, 119976, Note_on_c, 0, 68, 0
2, 119976, Note_on_c, 0, 62, 0
2, 119976, Note_on_c, 0, 59, 0
2, 119976, Note_on_c, 0, 40, 0
2, 119976, Note_on_c, 0, 47, 0
2, 120000, Note_on_c, 0, 42, 100
2, 120000, Note_on_c, 0, 57, 100
2, 120000, Note_on_c, 0, 62, 100
2, 120000, Note_on_c, 0, 69, 100
2, 120456, Note_on_c, 0, 69, 0
2, 120456, Note_on_c, 0, 62, 0
2, 120456, Note_on_c, 0, 57, 0
2, 120456, Note_on_c, 0, 42, 0
2, 120480, Note_on_c, 0, 43, 100
2, 120480, Note_on_c, 0, 59, 100
2, 120480, Note_on_c, 0, 64, 100
2, 120480, Note_on_c, 0, 67, 100
2, 120936, Note_on_c, 0, 67, 0
2, 120936, Note_on_c, 0, 64, 0
2, 120936, Note_on_c, 0, 59, 0
2, 120936, Note_on_c, 0, 43, 0
2, 120960, Note_on_c, 0, 57, 100
2, 120960, Note_on_c, 0, 61, 100
2, 120960, Note_on_c, 0, 67, 100
2, 120960, Note_on_c, 0, 45, 100
2, 121416, Note_on_c, 0, 45, 0
2, 121416, Note_on_c, 0, 67, 0
2, 121416, Note_on_c, 0, 61, 0
2, 121416, Note_on_c, 0, 57, 0
2, 121440, Note_on_c, 0, 57, 100
2, 121440, Note_on_c, 0, 62, 100
2, 121440, Note_on_c, 0, 66, 100
2, 121440, Note_on_c, 0, 50, 100
2, 121440, Note_on_c, 0, 38, 100
2, 121896, Note_on_c, 0, 38, 0
2, 121896, Note_on_c, 0, 50, 0
2, 121896, Note_on_c, 0, 66, 0
2, 121896, Note_on_c, 0, 62, 0
2, 121896, Note_on_c, 0, 57, 0
2, 121920, Note_on_c, 0, 69, 100
2, 122376, Note_on_c, 0, 69, 0
2, 122400, Note_on_c, 0, 83, 100
2, 122400, Note_on_c, 0, 45, 100
2, 122628, Note_on_c, 0, 83, 0
2, 122640, Note_on_c, 0, 81, 100
2, 122856, Note_on_c, 0, 45, 0
2, 122868, Note_on_c, 0, 81, 0
2, 122880, Note_on_c, 0, 79, 100
2, 122880, Note_on_c, 0, 57, 100
2, 122880, Note_on_c, 0, 64, 100
2, 122880, Note_on_c, 0, 67, 100
2, 123108, Note_on_c, 0, 79, 0
2, 123120, Note_on_c, 0, 73, 100
2, 123336, Note_on_c, 0, 67, 0
2, 123336, Note_on_c, 0, 64, 0
2, 123336, Note_on_c, 0, 57, 0
2, 123348, Note_on_c, 0, 73, 0
2, 123360, Note_on_c, 0, 67, 100
2, 123360, Note_on_c, 0, 78, 100
2, 123360, Note_on_c, 0, 46, 100
2, 123588, Note_on_c, 0, 78, 0
2, 123588, Note_on_c, 0, 67, 0
2, 123600, Note_on_c, 0, 76, 100
2, 123816, Note_on_c, 0, 46, 0
2, 123828, Note_on_c, 0, 76, 0
2, 123840, Note_on_c, 0, 47, 100
2, 123840, Note_on_c, 0, 74, 100
2, 124068, Note_on_c, 0, 74, 0
2, 124080, Note_on_c, 0, 66, 100
2, 124296, Note_on_c, 0, 47, 0
2, 124308, Note_on_c, 0, 66, 0
2, 124320, Note_on_c, 0, 59, 100
2, 124320, Note_on_c, 0, 62, 100
2, 124320, Note_on_c, 0, 73, 100
2, 124548, Note_on_c, 0, 73, 0
2, 124560, Note_on_c, 0, 71, 100
2, 124776, Note_on_c, 0, 62, 0
2, 124776, Note_on_c, 0, 59, 0
2, 124788, Note_on_c, 0, 71, 0
2, 124800, Note_on_c, 0, 65, 100
2, 124800, Note_on_c, 0, 69, 100
2, 125028, Note_on_c, 0, 69, 0
2, 125028, Note_on_c, 0, 65, 0
2, 125040, Note_on_c, 0, 68, 100
2, 125268, Note_on_c, 0, 68, 0
2, 125280, Note_on_c, 0, 66, 100
2, 125280, Note_on_c, 0, 71, 100
2, 125280, Note_on_c, 0, 45, 100
2, 125508, Note_on_c, 0, 71, 0
2, 125508, Note_on_c, 0, 66, 0
2, 125520, Note_on_c, 0, 69, 100
2, 125596, Note_on_c, 0, 69, 0
2, 125599, Note_on_c, 0, 71, 100
2, 125675, Note_on_c, 0, 71, 0
2, 125679, Note_on_c, 0, 69, 100
2, 125736, Note_on_c, 0, 45, 0
2, 125755, Note_on_c, 0, 69, 0
2, 125760, Note_on_c, 0, 68, 100
2, 125760, Note_on_c, 0, 57, 100
2, 125760, Note_on_c, 0, 62, 100
2, 125760, Note_on_c, 0, 66, 100
2, 125988, Note_on_c, 0, 68, 0
2, 126000, Note_on_c, 0, 69, 100
2, 126216, Note_on_c, 0, 66, 0
2, 126216, Note_on_c, 0, 62, 0
2, 126216, Note_on_c, 0, 57, 0
2, 126228, Note_on_c, 0, 69, 0
2, 126240, Note_on_c, 0, 67, 100
2, 126240, Note_on_c, 0, 76, 100
2, 126240, Note_on_c, 0, 57, 100
2, 126240, Note_on_c, 0, 61, 100
2, 126468, Note_on_c, 0, 76, 0
2, 126468, Note_on_c, 0, 67, 0
2, 126480, Note_on_c, 0, 69, 100
2, 126480, Note_on_c, 0, 78, 100
2, 126696, Note_on_c, 0, 61, 0
2, 126696, Note_on_c, 0, 57, 0
2, 126708, Note_on_c, 0, 78, 0
2, 126708, Note_on_c, 0, 69, 0
2, 126720, Note_on_c, 0, 66, 100
2, 126720, Note_on_c, 0, 74, 100
2, 126720, Note_on_c, 0, 50, 100
2, 127176, Note_on_c, 0, 74, 0
2, 127176, Note_on_c, 0, 66, 0
2, 127200, Note_on_c, 0, 57, 100
2, 127656, Note_on_c, 0, 50, 0
2, 127656, Note_on_c, 0, 57, 0
2, 128160, End_track
3, 0, Start_track
3, 0, Control_c, 1, 7, 98
3, 0, Control_c, 1, 0, 0
3, 0, Control_c, 1, 32, 0
3, 0, Program_c, 1, 53
3, 0, Control_c, 1, 1, 0
3, 0, Control_c, 1, 10, 64
3, 0, Control_c, 1, 91, 0
3, 0, Control_c, 1, 93, 0
3, 0, Key_signature, 2, "major"
3, 0, Title_t, "Voice"
3, 0, Control_c, 1, 7, 98
3, 0, Control_c, 1, 0, 0
3, 0, Control_c, 1, 32, 0
3, 0, Program_c, 1, 53
3, 0, Control_c, 1, 1, 0
3, 0, Control_c, 1, 10, 64
3, 0, Control_c, 1, 91, 0
3, 0, Control_c, 1, 93, 0
3, 7200, Note_on_c, 1, 66, 100
3, 7542, Note_on_c, 1, 66, 0
3, 7560, Note_on_c, 1, 65, 100
3, 7674, Note_on_c, 1, 65, 0
3, 7680, Note_on_c, 1, 66, 100
3, 7728, Control_c, 1, 7, 99
3, 7824, Control_c, 1, 7, 100
3, 7896, Control_c, 1, 7, 101
3, 7992, Control_c, 1, 7, 102
3, 8064, Control_c, 1, 7, 103
3, 8136, Note_on_c, 1, 66, 0
3, 8136, Control_c, 1, 7, 104
3, 8160, Note_on_c, 1, 67, 100
3, 8232, Control_c, 1, 7, 105
3, 8304, Control_c, 1, 7, 106
3, 8400, Control_c, 1, 7, 107
3, 8472, Control_c, 1, 7, 108
3, 8568, Control_c, 1, 7, 109
3, 8616, Note_on_c, 1, 67, 0
3, 8640, Control_c, 1, 7, 110
3, 8640, Note_on_c, 1, 69, 100
3, 8712, Control_c, 1, 7, 111
3, 8808, Control_c, 1, 7, 112
3, 8880, Control_c, 1, 7, 113
3, 8976, Control_c, 1, 7, 114
3, 9096, Note_on_c, 1, 69, 0
3, 9120, Note_on_c, 1, 71, 100
3, 9828, Note_on_c, 1, 71, 0
3, 9840, Note_on_c, 1, 69, 100
3, 10068, Note_on_c, 1, 69, 0
3, 10080, Note_on_c, 1, 69, 100
3, 10308, Note_on_c, 1, 69, 0
3, 10320, Note_on_c, 1, 72, 100
3, 10548, Note_on_c, 1, 72, 0
3, 10560, Note_on_c, 1, 71, 100
3, 11268, Note_on_c, 1, 71, 0
3, 11280, Note_on_c, 1, 66, 100
3, 11508, Note_on_c, 1, 66, 0
3, 11520, Note_on_c, 1, 69, 100
3, 11672, Note_on_c, 1, 69, 0
3, 11679, Note_on_c, 1, 71, 100
3, 11831, Note_on_c, 1, 71, 0
3, 11839, Note_on_c, 1, 69, 100
3, 11990, Note_on_c, 1, 69, 0
3, 12000, Note_on_c, 1, 67, 100
3, 12048, Control_c, 1, 7, 113
3, 12120, Control_c, 1, 7, 112
3, 12192, Control_c, 1, 7, 111
3, 12288, Control_c, 1, 7, 110
3, 12360, Control_c, 1, 7, 109
3, 12432, Control_c, 1, 7, 108
3, 12504, Control_c, 1, 7, 107
3, 12576, Control_c, 1, 7, 106
3, 12672, Control_c, 1, 7, 105
3, 12708, Note_on_c, 1, 67, 0
3, 12720, Note_on_c, 1, 66, 100
3, 12744, Control_c, 1, 7, 104
3, 12816, Control_c, 1, 7, 103
3, 12948, Note_on_c, 1, 66, 0
3, 12960, Note_on_c, 1, 64, 100
3, 13008, Control_c, 1, 7, 104
3, 13080, Control_c, 1, 7, 105
3, 13152, Control_c, 1, 7, 106
3, 13224, Control_c, 1, 7, 107
3, 13272, Control_c, 1, 7, 108
3, 13302, Note_on_c, 1, 64, 0
3, 13320, Note_on_c, 1, 69, 100
3, 13344, Control_c, 1, 7, 109
3, 13377, Note_on_c, 1, 69, 0
3, 13380, Note_on_c, 1, 73, 100
3, 13416, Control_c, 1, 7, 110
3, 13437, Note_on_c, 1, 73, 0
3, 13440, Note_on_c, 1, 71, 100
3, 13896, Note_on_c, 1, 71, 0
3, 13920, Note_on_c, 1, 69, 100
3, 14376, Note_on_c, 1, 69, 0
3, 14400, Note_on_c, 1, 68, 100
3, 14448, Control_c, 1, 7, 111
3, 14496, Control_c, 1, 7, 112
3, 14544, Control_c, 1, 7, 113
3, 14592, Control_c, 1, 7, 114
3, 14628, Note_on_c, 1, 68, 0
3, 14640, Control_c, 1, 7, 115
3, 14640, Note_on_c, 1, 69, 100
3, 14688, Control_c, 1, 7, 116
3, 14736, Control_c, 1, 7, 117
3, 14784, Control_c, 1, 7, 118
3, 14832, Control_c, 1, 7, 119
3, 14868, Note_on_c, 1, 69, 0
3, 14880, Control_c, 1, 7, 120
3, 14880, Note_on_c, 1, 74, 100
3, 15024, Control_c, 1, 7, 119
3, 15072, Control_c, 1, 7, 118
3, 15120, Control_c, 1, 7, 117
3, 15144, Control_c, 1, 7, 116
3, 15192, Control_c, 1, 7, 115
3, 15240, Control_c, 1, 7, 114
3, 15264, Control_c, 1, 7, 113
3, 15312, Control_c, 1, 7, 112
3, 15360, Control_c, 1, 7, 111
3, 15384, Control_c, 1, 7, 110
3, 15432, Control_c, 1, 7, 109
3, 15480, Control_c, 1, 7, 108
3, 15504, Control_c, 1, 7, 107
3, 15552, Control_c, 1, 7, 106
3, 15600, Control_c, 1, 7, 105
3, 15624, Control_c, 1, 7, 104
3, 15672, Control_c, 1, 7, 103
3, 15720, Control_c, 1, 7, 102
3, 15816, Note_on_c, 1, 74, 0
3, 15840, Note_on_c, 1, 66, 100
3, 16182, Note_on_c, 1, 66, 0
3, 16200, Note_on_c, 1, 67, 100
3, 16314, Note_on_c, 1, 67, 0
3, 16320, Note_on_c, 1, 69, 100
3, 16776, Note_on_c, 1, 69, 0
3, 16800, Note_on_c, 1, 71, 100
3, 17256, Note_on_c, 1, 71, 0
3, 17280, Note_on_c, 1, 69, 100
3, 17508, Note_on_c, 1, 69, 0
3, 17520, Note_on_c, 1, 64, 100
3, 17748, Note_on_c, 1, 64, 0
3, 17760, Note_on_c, 1, 66, 100
3, 18216, Note_on_c, 1, 66, 0
3, 18720, Note_on_c, 1, 69, 100
3, 18948, Note_on_c, 1, 69, 0
3, 18960, Note_on_c, 1, 69, 100
3, 19188, Note_on_c, 1, 69, 0
3, 19200, Note_on_c, 1, 71, 100
3, 19656, Note_on_c, 1, 71, 0
3, 19680, Note_on_c, 1, 69, 100
3, 20136, Note_on_c, 1, 69, 0
3, 20160, Note_on_c, 1, 68, 100
3, 20184, Control_c, 1, 7, 103
3, 20208, Control_c, 1, 7, 104
3, 20232, Control_c, 1, 7, 105
3, 20256, Control_c, 1, 7, 106
3, 20304, Control_c, 1, 7, 107
3, 20328, Control_c, 1, 7, 108
3, 20352, Control_c, 1, 7, 109
3, 20376, Control_c, 1, 7, 110
3, 20388, Note_on_c, 1, 68, 0
3, 20400, Control_c, 1, 7, 111
3, 20400, Note_on_c, 1, 69, 100
3, 20424, Control_c, 1, 7, 112
3, 20448, Control_c, 1, 7, 113
3, 20472, Control_c, 1, 7, 114
3, 20496, Control_c, 1, 7, 115
3, 20544, Control_c, 1, 7, 116
3, 20568, Control_c, 1, 7, 117
3, 20592, Control_c, 1, 7, 118
3, 20616, Control_c, 1, 7, 119
3, 20628, Note_on_c, 1, 69, 0
3, 20640, Control_c, 1, 7, 120
3, 20640, Note_on_c, 1, 78, 100
3, 21024, Control_c, 1, 7, 119
3, 21072, Control_c, 1, 7, 118
3, 21120, Control_c, 1, 7, 117
3, 21168, Control_c, 1, 7, 116
3, 21192, Control_c, 1, 7, 115
3, 21240, Control_c, 1, 7, 114
3, 21288, Control_c, 1, 7, 113
3, 21336, Control_c, 1, 7, 112
3, 21384, Control_c, 1, 7, 111
3, 21408, Control_c, 1, 7, 110
3, 21456, Control_c, 1, 7, 109
3, 21504, Control_c, 1, 7, 108
3, 21552, Control_c, 1, 7, 107
3, 21576, Control_c, 1, 7, 106
3, 21624, Control_c, 1, 7, 105
3, 21672, Control_c, 1, 7, 104
3, 21720, Control_c, 1, 7, 103
3, 21810, Note_on_c, 1, 78, 0
3, 21840, Note_on_c, 1, 76, 100
3, 22068, Note_on_c, 1, 76, 0
3, 22080, Note_on_c, 1, 74, 100
3, 22308, Note_on_c, 1, 74, 0
3, 22320, Note_on_c, 1, 66, 100
3, 22548, Note_on_c, 1, 66, 0
3, 22560, Note_on_c, 1, 73, 100
3, 22788, Note_on_c, 1, 73, 0
3, 22800, Note_on_c, 1, 71, 100
3, 23028, Note_on_c, 1, 71, 0
3, 23040, Note_on_c, 1, 69, 100
3, 23088, Control_c, 1, 7, 102
3, 23160, Control_c, 1, 7, 101
3, 23232, Control_c, 1, 7, 100
3, 23268, Note_on_c, 1, 69, 0
3, 23280, Note_on_c, 1, 61, 100
3, 23304, Control_c, 1, 7, 99
3, 23376, Control_c, 1, 7, 98
3, 23448, Control_c, 1, 7, 97
3, 23508, Note_on_c, 1, 61, 0
3, 23520, Note_on_c, 1, 62, 100
3, 23544, Control_c, 1, 7, 96
3, 23616, Control_c, 1, 7, 95
3, 23688, Control_c, 1, 7, 94
3, 23760, Control_c, 1, 7, 93
3, 23832, Control_c, 1, 7, 92
3, 23904, Control_c, 1, 7, 91
3, 23976, Note_on_c, 1, 62, 0
3, 23976, Control_c, 1, 7, 90
3, 24480, Note_on_c, 1, 71, 100
3, 24632, Note_on_c, 1, 71, 0
3, 24639, Note_on_c, 1, 73, 100
3, 24791, Note_on_c, 1, 73, 0
3, 24799, Note_on_c, 1, 71, 100
3, 24950, Note_on_c, 1, 71, 0
3, 24960, Note_on_c, 1, 69, 100
3, 25416, Note_on_c, 1, 69, 0
3, 25440, Note_on_c, 1, 71, 100
3, 25896, Note_on_c, 1, 71, 0
3, 25920, Note_on_c, 1, 73, 100
3, 26376, Note_on_c, 1, 73, 0
3, 26400, Note_on_c, 1, 69, 100
3, 27108, Note_on_c, 1, 69, 0
3, 27120, Note_on_c, 1, 64, 100
3, 27348, Note_on_c, 1, 64, 0
3, 27360, Note_on_c, 1, 71, 100
3, 27588, Note_on_c, 1, 71, 0
3, 27600, Note_on_c, 1, 71, 100
3, 27828, Note_on_c, 1, 71, 0
3, 27840, Note_on_c, 1, 69, 100
3, 28548, Note_on_c, 1, 69, 0
3, 28560, Note_on_c, 1, 71, 100
3, 28788, Note_on_c, 1, 71, 0
3, 28800, Note_on_c, 1, 73, 100
3, 29256, Note_on_c, 1, 73, 0
3, 29280, Note_on_c, 1, 69, 100
3, 29508, Note_on_c, 1, 69, 0
3, 29520, Note_on_c, 1, 68, 100
3, 29748, Note_on_c, 1, 68, 0
3, 29760, Note_on_c, 1, 67, 100
3, 29988, Note_on_c, 1, 67, 0
3, 30000, Note_on_c, 1, 66, 100
3, 30228, Note_on_c, 1, 66, 0
3, 30240, Note_on_c, 1, 64, 100
3, 30582, Note_on_c, 1, 64, 0
3, 30600, Note_on_c, 1, 69, 100
3, 30657, Note_on_c, 1, 69, 0
3, 30660, Note_on_c, 1, 73, 100
3, 30717, Note_on_c, 1, 73, 0
3, 30720, Note_on_c, 1, 71, 100
3, 31176, Note_on_c, 1, 71, 0
3, 31200, Note_on_c, 1, 69, 100
3, 31656, Note_on_c, 1, 69, 0
3, 31680, Note_on_c, 1, 68, 100
3, 31704, Control_c, 1, 7, 91
3, 31728, Control_c, 1, 7, 92
3, 31752, Control_c, 1, 7, 93
3, 31776, Control_c, 1, 7, 94
3, 31800, Control_c, 1, 7, 96
3, 31824, Control_c, 1, 7, 97
3, 31848, Control_c, 1, 7, 98
3, 31872, Control_c, 1, 7, 99
3, 31896, Control_c, 1, 7, 100
3, 31908, Note_on_c, 1, 68, 0
3, 31920, Control_c, 1, 7, 101
3, 31920, Note_on_c, 1, 69, 100
3, 31944, Control_c, 1, 7, 102
3, 31968, Control_c, 1, 7, 103
3, 31992, Control_c, 1, 7, 104
3, 32016, Control_c, 1, 7, 105
3, 32040, Control_c, 1, 7, 107
3, 32064, Control_c, 1, 7, 108
3, 32088, Control_c, 1, 7, 109
3, 32112, Control_c, 1, 7, 110
3, 32136, Control_c, 1, 7, 111
3, 32148, Note_on_c, 1, 69, 0
3, 32160, Control_c, 1, 7, 112
3, 32160, Note_on_c, 1, 74, 100
3, 32664, Control_c, 1, 7, 111
3, 32688, Control_c, 1, 7, 110
3, 32736, Control_c, 1, 7, 109
3, 32760, Control_c, 1, 7, 108
3, 32784, Control_c, 1, 7, 107
3, 32808, Control_c, 1, 7, 106
3, 32856, Control_c, 1, 7, 105
3, 32880, Control_c, 1, 7, 104
3, 32904, Control_c, 1, 7, 103
3, 32928, Control_c, 1, 7, 102
3, 32976, Control_c, 1, 7, 101
3, 33000, Control_c, 1, 7, 100
3, 33096, Note_on_c, 1, 74, 0
3, 33120, Note_on_c, 1, 66, 100
3, 33462, Note_on_c, 1, 66, 0
3, 33480, Note_on_c, 1, 67, 100
3, 33594, Note_on_c, 1, 67, 0
3, 33600, Note_on_c, 1, 69, 100
3, 34056, Note_on_c, 1, 69, 0
3, 34080, Note_on_c, 1, 71, 100
3, 34536, Note_on_c, 1, 71, 0
3, 34560, Note_on_c, 1, 69, 100
3, 34788, Note_on_c, 1, 69, 0
3, 34800, Note_on_c, 1, 64, 100
3, 35028, Note_on_c, 1, 64, 0
3, 35040, Note_on_c, 1, 66, 100
3, 35496, Note_on_c, 1, 66, 0
3, 36000, Note_on_c, 1, 69, 100
3, 36228, Note_on_c, 1, 69, 0
3, 36240, Note_on_c, 1, 69, 100
3, 36468, Note_on_c, 1, 69, 0
3, 36480, Note_on_c, 1, 71, 100
3, 36936, Note_on_c, 1, 71, 0
3, 36960, Note_on_c, 1, 69, 100
3, 37416, Note_on_c, 1, 69, 0
3, 37440, Note_on_c, 1, 68, 100
3, 37464, Control_c, 1, 7, 101
3, 37488, Control_c, 1, 7, 102
3, 37512, Control_c, 1, 7, 103
3, 37536, Control_c, 1, 7, 105
3, 37560, Control_c, 1, 7, 106
3, 37584, Control_c, 1, 7, 107
3, 37608, Control_c, 1, 7, 108
3, 37632, Control_c, 1, 7, 109
3, 37656, Control_c, 1, 7, 110
3, 37668, Note_on_c, 1, 68, 0
3, 37680, Control_c, 1, 7, 112
3, 37680, Note_on_c, 1, 69, 100
3, 37704, Control_c, 1, 7, 113
3, 37728, Control_c, 1, 7, 114
3, 37752, Control_c, 1, 7, 115
3, 37776, Control_c, 1, 7, 116
3, 37800, Control_c, 1, 7, 117
3, 37824, Control_c, 1, 7, 118
3, 37848, Control_c, 1, 7, 120
3, 37872, Control_c, 1, 7, 121
3, 37896, Control_c, 1, 7, 122
3, 37908, Note_on_c, 1, 69, 0
3, 37920, Control_c, 1, 7, 123
3, 37920, Note_on_c, 1, 78, 100
3, 38664, Control_c, 1, 7, 122
3, 38688, Control_c, 1, 7, 120
3, 38712, Control_c, 1, 7, 119
3, 38736, Control_c, 1, 7, 118
3, 38760, Control_c, 1, 7, 116
3, 38784, Control_c, 1, 7, 115
3, 38808, Control_c, 1, 7, 114
3, 38832, Control_c, 1, 7, 112
3, 38856, Control_c, 1, 7, 111
3, 38880, Control_c, 1, 7, 110
3, 38904, Control_c, 1, 7, 108
3, 38928, Control_c, 1, 7, 107
3, 38952, Control_c, 1, 7, 106
3, 38976, Control_c, 1, 7, 104
3, 39000, Control_c, 1, 7, 103
3, 39108, Note_on_c, 1, 78, 0
3, 39120, Note_on_c, 1, 76, 100
3, 39348, Note_on_c, 1, 76, 0
3, 39360, Note_on_c, 1, 74, 100
3, 39588, Note_on_c, 1, 74, 0
3, 39600, Note_on_c, 1, 66, 100
3, 39828, Note_on_c, 1, 66, 0
3, 39840, Note_on_c, 1, 73, 100
3, 40068, Note_on_c, 1, 73, 0
3, 40080, Note_on_c, 1, 71, 100
3, 40308, Note_on_c, 1, 71, 0
3, 40320, Note_on_c, 1, 69, 100
3, 40548, Note_on_c, 1, 69, 0
3, 40560, Note_on_c, 1, 61, 100
3, 40788, Note_on_c, 1, 61, 0
3, 40800, Note_on_c, 1, 62, 100
3, 41256, Note_on_c, 1, 62, 0
3, 41760, Control_c, 1, 7, 98
3, 47520, Note_on_c, 1, 66, 100
3, 47862, Note_on_c, 1, 66, 0
3, 47880, Note_on_c, 1, 65, 100
3, 47994, Note_on_c, 1, 65, 0
3, 48000, Note_on_c, 1, 66, 100
3, 48048, Control_c, 1, 7, 99
3, 48144, Control_c, 1, 7, 100
3, 48216, Control_c, 1, 7, 101
3, 48312, Control_c, 1, 7, 102
3, 48384, Control_c, 1, 7, 103
3, 48456, Note_on_c, 1, 66, 0
3, 48456, Control_c, 1, 7, 104
3, 48480, Note_on_c, 1, 67, 100
3, 48552, Control_c, 1, 7, 105
3, 48624, Control_c, 1, 7, 106
3, 48720, Control_c, 1, 7, 107
3, 48792, Control_c, 1, 7, 108
3, 48888, Control_c, 1, 7, 109
3, 48936, Note_on_c, 1, 67, 0
3, 48960, Control_c, 1, 7, 110
3, 48960, Note_on_c, 1, 69, 100
3, 49032, Control_c, 1, 7, 111
3, 49128, Control_c, 1, 7, 112
3, 49200, Control_c, 1, 7, 113
3, 49296, Control_c, 1, 7, 114
3, 49416, Note_on_c, 1, 69, 0
3, 49440, Note_on_c, 1, 71, 100
3, 50148, Note_on_c, 1, 71, 0
3, 50160, Note_on_c, 1, 69, 100
3, 50388, Note_on_c, 1, 69, 0
3, 50400, Note_on_c, 1, 69, 100
3, 50628, Note_on_c, 1, 69, 0
3, 50640, Note_on_c, 1, 72, 100
3, 50868, Note_on_c, 1, 72, 0
3, 50880, Note_on_c, 1, 71, 100
3, 51588, Note_on_c, 1, 71, 0
3, 51600, Note_on_c, 1, 66, 100
3, 51828, Note_on_c, 1, 66, 0
3, 51840, Note_on_c, 1, 69, 100
3, 51992, Note_on_c, 1, 69, 0
3, 51999, Note_on_c, 1, 71, 100
3, 52151, Note_on_c, 1, 71, 0
3, 52159, Note_on_c, 1, 69, 100
3, 52310, Note_on_c, 1, 69, 0
3, 52320, Note_on_c, 1, 67, 100
3, 52368, Control_c, 1, 7, 113
3, 52440, Control_c, 1, 7, 112
3, 52512, Control_c, 1, 7, 111
3, 52608, Control_c, 1, 7, 110
3, 52680, Control_c, 1, 7, 109
3, 52752, Control_c, 1, 7, 108
3, 52824, Control_c, 1, 7, 107
3, 52896, Control_c, 1, 7, 106
3, 52992, Control_c, 1, 7, 105
3, 53028, Note_on_c, 1, 67, 0
3, 53040, Note_on_c, 1, 66, 100
3, 53064, Control_c, 1, 7, 104
3, 53136, Control_c, 1, 7, 103
3, 53268, Note_on_c, 1, 66, 0
3, 53280, Note_on_c, 1, 64, 100
3, 53328, Control_c, 1, 7, 104
3, 53400, Control_c, 1, 7, 105
3, 53472, Control_c, 1, 7, 106
3, 53544, Control_c, 1, 7, 107
3, 53592, Control_c, 1, 7, 108
3, 53622, Note_on_c, 1, 64, 0
3, 53640, Note_on_c, 1, 69, 100
3, 53664, Control_c, 1, 7, 109
3, 53697, Note_on_c, 1, 69, 0
3, 53700, Note_on_c, 1, 73, 100
3, 53736, Control_c, 1, 7, 110
3, 53757, Note_on_c, 1, 73, 0
3, 53760, Note_on_c, 1, 71, 100
3, 54216, Note_on_c, 1, 71, 0
3, 54240, Note_on_c, 1, 69, 100
3, 54696, Note_on_c, 1, 69, 0
3, 54720, Note_on_c, 1, 68, 100
3, 54768, Control_c, 1, 7, 111
3, 54816, Control_c, 1, 7, 112
3, 54864, Control_c, 1, 7, 113
3, 54912, Control_c, 1, 7, 114
3, 54948, Note_on_c, 1, 68, 0
3, 54960, Control_c, 1, 7, 115
3, 54960, Note_on_c, 1, 69, 100
3, 55008, Control_c, 1, 7, 116
3, 55056, Control_c, 1, 7, 117
3, 55104, Control_c, 1, 7, 118
3, 55152, Control_c, 1, 7, 119
3, 55188, Note_on_c, 1, 69, 0
3, 55200, Control_c, 1, 7, 120
3, 55200, Note_on_c, 1, 74, 100
3, 55344, Control_c, 1, 7, 119
3, 55392, Control_c, 1, 7, 118
3, 55440, Control_c, 1, 7, 117
3, 55464, Control_c, 1, 7, 116
3, 55512, Control_c, 1, 7, 115
3, 55560, Control_c, 1, 7, 114
3, 55584, Control_c, 1, 7, 113
3, 55632, Control_c, 1, 7, 112
3, 55680, Control_c, 1, 7, 111
3, 55704, Control_c, 1, 7, 110
3, 55752, Control_c, 1, 7, 109
3, 55800, Control_c, 1, 7, 108
3, 55824, Control_c, 1, 7, 107
3, 55872, Control_c, 1, 7, 106
3, 55920, Control_c, 1, 7, 105
3, 55944, Control_c, 1, 7, 104
3, 55992, Control_c, 1, 7, 103
3, 56040, Control_c, 1, 7, 102
3, 56136, Note_on_c, 1, 74, 0
3, 56160, Note_on_c, 1, 66, 100
3, 56502, Note_on_c, 1, 66, 0
3, 56520, Note_on_c, 1, 67, 100
3, 56634, Note_on_c, 1, 67, 0
3, 56640, Note_on_c, 1, 69, 100
3, 57096, Note_on_c, 1, 69, 0
3, 57120, Note_on_c, 1, 71, 100
3, 57576, Note_on_c, 1, 71, 0
3, 57600, Note_on_c, 1, 69, 100
3, 57828, Note_on_c, 1, 69, 0
3, 57840, Note_on_c, 1, 64, 100
3, 58068, Note_on_c, 1, 64, 0
3, 58080, Note_on_c, 1, 66, 100
3, 58536, Note_on_c, 1, 66, 0
3, 59040, Note_on_c, 1, 69, 100
3, 59268, Note_on_c, 1, 69, 0
3, 59280, Note_on_c, 1, 69, 100
3, 59508, Note_on_c, 1, 69, 0
3, 59520, Note_on_c, 1, 71, 100
3, 59976, Note_on_c, 1, 71, 0
3, 60000, Note_on_c, 1, 69, 100
3, 60456, Note_on_c, 1, 69, 0
3, 60480, Note_on_c, 1, 68, 100
3, 60504, Control_c, 1, 7, 103
3, 60528, Control_c, 1, 7, 104
3, 60552, Control_c, 1, 7, 105
3, 60576, Control_c, 1, 7, 106
3, 60624, Control_c, 1, 7, 107
3, 60648, Control_c, 1, 7, 108
3, 60672, Control_c, 1, 7, 109
3, 60696, Control_c, 1, 7, 110
3, 60708, Note_on_c, 1, 68, 0
3, 60720, Control_c, 1, 7, 111
3, 60720, Note_on_c, 1, 69, 100
3, 60744, Control_c, 1, 7, 112
3, 60768, Control_c, 1, 7, 113
3, 60792, Control_c, 1, 7, 114
3, 60816, Control_c, 1, 7, 115
3, 60864, Control_c, 1, 7, 116
3, 60888, Control_c, 1, 7, 117
3, 60912, Control_c, 1, 7, 118
3, 60936, Control_c, 1, 7, 119
3, 60948, Note_on_c, 1, 69, 0
3, 60960, Control_c, 1, 7, 120
3, 60960, Note_on_c, 1, 78, 100
3, 61344, Control_c, 1, 7, 119
3, 61392, Control_c, 1, 7, 118
3, 61440, Control_c, 1, 7, 117
3, 61488, Control_c, 1, 7, 116
3, 61512, Control_c, 1, 7, 115
3, 61560, Control_c, 1, 7, 114
3, 61608, Control_c, 1, 7, 113
3, 61656, Control_c, 1, 7, 112
3, 61704, Control_c, 1, 7, 111
3, 61728, Control_c, 1, 7, 110
3, 61776, Control_c, 1, 7, 109
3, 61824, Control_c, 1, 7, 108
3, 61872, Control_c, 1, 7, 107
3, 61896, Control_c, 1, 7, 106
3, 61944, Control_c, 1, 7, 105
3, 61992, Control_c, 1, 7, 104
3, 62040, Control_c, 1, 7, 103
3, 62130, Note_on_c, 1, 78, 0
3, 62160, Note_on_c, 1, 76, 100
3, 62388, Note_on_c, 1, 76, 0
3, 62400, Note_on_c, 1, 74, 100
3, 62628, Note_on_c, 1, 74, 0
3, 62640, Note_on_c, 1, 66, 100
3, 62868, Note_on_c, 1, 66, 0
3, 62880, Note_on_c, 1, 73, 100
3, 63108, Note_on_c, 1, 73, 0
3, 63120, Note_on_c, 1, 71, 100
3, 63348, Note_on_c, 1, 71, 0
3, 63360, Note_on_c, 1, 69, 100
3, 63408, Control_c, 1, 7, 102
3, 63480, Control_c, 1, 7, 101
3, 63552, Control_c, 1, 7, 100
3, 63588, Note_on_c, 1, 69, 0
3, 63600, Note_on_c, 1, 61, 100
3, 63624, Control_c, 1, 7, 99
3, 63696, Control_c, 1, 7, 98
3, 63768, Control_c, 1, 7, 97
3, 63828, Note_on_c, 1, 61, 0
3, 63840, Note_on_c, 1, 62, 100
3, 63864, Control_c, 1, 7, 96
3, 63936, Control_c, 1, 7, 95
3, 64008, Control_c, 1, 7, 94
3, 64080, Control_c, 1, 7, 93
3, 64152, Control_c, 1, 7, 92
3, 64224, Control_c, 1, 7, 91
3, 64296, Note_on_c, 1, 62, 0
3, 64296, Control_c, 1, 7, 90
3, 64800, Note_on_c, 1, 71, 100
3, 64952, Note_on_c, 1, 71, 0
3, 64959, Note_on_c, 1, 73, 100
3, 65111, Note_on_c, 1, 73, 0
3, 65119, Note_on_c, 1, 71, 100
3, 65270, Note_on_c, 1, 71, 0
3, 65280, Note_on_c, 1, 69, 100
3, 65736, Note_on_c, 1, 69, 0
3, 65760, Note_on_c, 1, 71, 100
3, 66216, Note_on_c, 1, 71, 0
3, 66240, Note_on_c, 1, 73, 100
3, 66696, Note_on_c, 1, 73, 0
3, 66720, Note_on_c, 1, 69, 100
3, 67428, Note_on_c, 1, 69, 0
3, 67440, Note_on_c, 1, 64, 100
3, 67668, Note_on_c, 1, 64, 0
3, 67680, Note_on_c, 1, 71, 100
3, 67908, Note_on_c, 1, 71, 0
3, 67920, Note_on_c, 1, 71, 100
3, 68148, Note_on_c, 1, 71, 0
3, 68160, Note_on_c, 1, 69, 100
3, 68868, Note_on_c, 1, 69, 0
3, 68880, Note_on_c, 1, 71, 100
3, 69108, Note_on_c, 1, 71, 0
3, 69120, Note_on_c, 1, 73, 100
3, 69576, Note_on_c, 1, 73, 0
3, 69600, Note_on_c, 1, 69, 100
3, 69828, Note_on_c, 1, 69, 0
3, 69840, Note_on_c, 1, 68, 100
3, 70068, Note_on_c, 1, 68, 0
3, 70080, Note_on_c, 1, 67, 100
3, 70308, Note_on_c, 1, 67, 0
3, 70320, Note_on_c, 1, 66, 100
3, 70548, Note_on_c, 1, 66, 0
3, 70560, Note_on_c, 1, 64, 100
3, 70902, Note_on_c, 1, 64, 0
3, 70920, Note_on_c, 1, 69, 100
3, 70977, Note_on_c, 1, 69, 0
3, 70980, Note_on_c, 1, 73, 100
3, 71037, Note_on_c, 1, 73, 0
3, 71040, Note_on_c, 1, 71, 100
3, 71496, Note_on_c, 1, 71, 0
3, 71520, Note_on_c, 1, 69, 100
3, 71976, Note_on_c, 1, 69, 0
3, 72000, Note_on_c, 1, 68, 100
3, 72024, Control_c, 1, 7, 91
3, 72048, Control_c, 1, 7, 92
3, 72072, Control_c, 1, 7, 93
3, 72096, Control_c, 1, 7, 94
3, 72120, Control_c, 1, 7, 96
3, 72144, Control_c, 1, 7, 97
3, 72168, Control_c, 1, 7, 98
3, 72192, Control_c, 1, 7, 99
3, 72216, Control_c, 1, 7, 100
3, 72228, Note_on_c, 1, 68, 0
3, 72240, Control_c, 1, 7, 101
3, 72240, Note_on_c, 1, 69, 100
3, 72264, Control_c, 1, 7, 102
3, 72288, Control_c, 1, 7, 103
3, 72312, Control_c, 1, 7, 104
3, 72336, Control_c, 1, 7, 105
3, 72360, Control_c, 1, 7, 107
3, 72384, Control_c, 1, 7, 108
3, 72408, Control_c, 1, 7, 109
3, 72432, Control_c, 1, 7, 110
3, 72456, Control_c, 1, 7, 111
3, 72468, Note_on_c, 1, 69, 0
3, 72480, Control_c, 1, 7, 112
3, 72480, Note_on_c, 1, 74, 100
3, 72984, Control_c, 1, 7, 111
3, 73008, Control_c, 1, 7, 110
3, 73056, Control_c, 1, 7, 109
3, 73080, Control_c, 1, 7, 108
3, 73104, Control_c, 1, 7, 107
3, 73128, Control_c, 1, 7, 106
3, 73176, Control_c, 1, 7, 105
3, 73200, Control_c, 1, 7, 104
3, 73224, Control_c, 1, 7, 103
3, 73248, Control_c, 1, 7, 102
3, 73296, Control_c, 1, 7, 101
3, 73320, Control_c, 1, 7, 100
3, 73416, Note_on_c, 1, 74, 0
3, 73440, Note_on_c, 1, 66, 100
3, 73782, Note_on_c, 1, 66, 0
3, 73800, Note_on_c, 1, 67, 100
3, 73914, Note_on_c, 1, 67, 0
3, 73920, Note_on_c, 1, 69, 100
3, 74376, Note_on_c, 1, 69, 0
3, 74400, Note_on_c, 1, 71, 100
3, 74856, Note_on_c, 1, 71, 0
3, 74880, Note_on_c, 1, 69, 100
3, 75108, Note_on_c, 1, 69, 0
3, 75120, Note_on_c, 1, 64, 100
3, 75348, Note_on_c, 1, 64, 0
3, 75360, Note_on_c, 1, 66, 100
3, 75816, Note_on_c, 1, 66, 0
3, 76320, Note_on_c, 1, 69, 100
3, 76548, Note_on_c, 1, 69, 0
3, 76560, Note_on_c, 1, 69, 100
3, 76788, Note_on_c, 1, 69, 0
3, 76800, Note_on_c, 1, 71, 100
3, 77256, Note_on_c, 1, 71, 0
3, 77280, Note_on_c, 1, 69, 100
3, 77736, Note_on_c, 1, 69, 0
3, 77760, Note_on_c, 1, 68, 100
3, 77784, Control_c, 1, 7, 101
3, 77808, Control_c, 1, 7, 102
3, 77832, Control_c, 1, 7, 103
3, 77856, Control_c, 1, 7, 105
3, 77880, Control_c, 1, 7, 106
3, 77904, Control_c, 1, 7, 107
3, 77928, Control_c, 1, 7, 108
3, 77952, Control_c, 1, 7, 109
3, 77976, Control_c, 1, 7, 110
3, 77988, Note_on_c, 1, 68, 0
3, 78000, Control_c, 1, 7, 112
3, 78000, Note_on_c, 1, 69, 100
3, 78024, Control_c, 1, 7, 113
3, 78048, Control_c, 1, 7, 114
3, 78072, Control_c, 1, 7, 115
3, 78096, Control_c, 1, 7, 116
3, 78120, Control_c, 1, 7, 117
3, 78144, Control_c, 1, 7, 118
3, 78168, Control_c, 1, 7, 120
3, 78192, Control_c, 1, 7, 121
3, 78216, Control_c, 1, 7, 122
3, 78228, Note_on_c, 1, 69, 0
3, 78240, Control_c, 1, 7, 123
3, 78240, Note_on_c, 1, 78, 100
3, 78984, Control_c, 1, 7, 122
3, 79008, Control_c, 1, 7, 120
3, 79032, Control_c, 1, 7, 119
3, 79056, Control_c, 1, 7, 118
3, 79080, Control_c, 1, 7, 116
3, 79104, Control_c, 1, 7, 115
3, 79128, Control_c, 1, 7, 114
3, 79152, Control_c, 1, 7, 112
3, 79176, Control_c, 1, 7, 111
3, 79200, Control_c, 1, 7, 110
3, 79224, Control_c, 1, 7, 108
3, 79248, Control_c, 1, 7, 107
3, 79272, Control_c, 1, 7, 106
3, 79296, Control_c, 1, 7, 104
3, 79320, Control_c, 1, 7, 103
3, 79428, Note_on_c, 1, 78, 0
3, 79440, Note_on_c, 1, 76, 100
3, 79668, Note_on_c, 1, 76, 0
3, 79680, Note_on_c, 1, 74, 100
3, 79908, Note_on_c, 1, 74, 0
3, 79920, Note_on_c, 1, 66, 100
3, 80148, Note_on_c, 1, 66, 0
3, 80160, Note_on_c, 1, 73, 100
3, 80388, Note_on_c, 1, 73, 0
3, 80400, Note_on_c, 1, 71, 100
3, 80628, Note_on_c, 1, 71, 0
3, 80640, Note_on_c, 1, 69, 100
3, 80868, Note_on_c, 1, 69, 0
3, 80880, Note_on_c, 1, 61, 100
3, 81108, Note_on_c, 1, 61, 0
3, 81120, Note_on_c, 1, 62, 100
3, 81576, Note_on_c, 1, 62, 0
3, 82080, Control_c, 1, 7, 98
3, 87840, Note_on_c, 1, 66, 100
3, 88182, Note_on_c, 1, 66, 0
3, 88200, Note_on_c, 1, 65, 100
3, 88314, Note_on_c, 1, 65, 0
3, 88320, Note_on_c, 1, 66, 100
3, 88368, Control_c, 1, 7, 99
3, 88464, Control_c, 1, 7, 100
3, 88536, Control_c, 1, 7, 101
3, 88632, Control_c, 1, 7, 102
3, 88704, Control_c, 1, 7, 103
3, 88776, Note_on_c, 1, 66, 0
3, 88776, Control_c, 1, 7, 104
3, 88800, Note_on_c, 1, 67, 100
3, 88872, Control_c, 1, 7, 105
3, 88944, Control_c, 1, 7, 106
3, 89040, Control_c, 1, 7, 107
3, 89112, Control_c, 1, 7, 108
3, 89208, Control_c, 1, 7, 109
3, 89256, Note_on_c, 1, 67, 0
3, 89280, Control_c, 1, 7, 110
3, 89280, Note_on_c, 1, 69, 100
3, 89352, Control_c, 1, 7, 111
3, 89448, Control_c, 1, 7, 112
3, 89520, Control_c, 1, 7, 113
3, 89616, Control_c, 1, 7, 114
3, 89736, Note_on_c, 1, 69, 0
3, 89760, Note_on_c, 1, 71, 100
3, 90468, Note_on_c, 1, 71, 0
3, 90480, Note_on_c, 1, 69, 100
3, 90708, Note_on_c, 1, 69, 0
3, 90720, Note_on_c, 1, 69, 100
3, 90948, Note_on_c, 1, 69, 0
3, 90960, Note_on_c, 1, 72, 100
3, 91188, Note_on_c, 1, 72, 0
3, 91200, Note_on_c, 1, 71, 100
3, 91908, Note_on_c, 1, 71, 0
3, 91920, Note_on_c, 1, 66, 100
3, 92148, Note_on_c, 1, 66, 0
3, 92160, Note_on_c, 1, 69, 100
3, 92312, Note_on_c, 1, 69, 0
3, 92319, Note_on_c, 1, 71, 100
3, 92471, Note_on_c, 1, 71, 0
3, 92479, Note_on_c, 1, 69, 100
3, 92630, Note_on_c, 1, 69, 0
3, 92640, Note_on_c, 1, 67, 100
3, 92688, Control_c, 1, 7, 113
3, 92760, Control_c, 1, 7, 112
3, 92832, Control_c, 1, 7, 111
3, 92928, Control_c, 1, 7, 110
3, 93000, Control_c, 1, 7, 109
3, 93072, Control_c, 1, 7, 108
3, 93144, Control_c, 1, 7, 107
3, 93216, Control_c, 1, 7, 106
3, 93312, Control_c, 1, 7, 105
3, 93348, Note_on_c, 1, 67, 0
3, 93360, Note_on_c, 1, 66, 100
3, 93384, Control_c, 1, 7, 104
3, 93456, Control_c, 1, 7, 103
3, 93588, Note_on_c, 1, 66, 0
3, 93600, Note_on_c, 1, 64, 100
3, 93648, Control_c, 1, 7, 104
3, 93720, Control_c, 1, 7, 105
3, 93792, Control_c, 1, 7, 106
3, 93864, Control_c, 1, 7, 107
3, 93912, Control_c, 1, 7, 108
3, 93942, Note_on_c, 1, 64, 0
3, 93960, Note_on_c, 1, 69, 100
3, 93984, Control_c, 1, 7, 109
3, 94017, Note_on_c, 1, 69, 0
3, 94020, Note_on_c, 1, 73, 100
3, 94056, Control_c, 1, 7, 110
3, 94077, Note_on_c, 1, 73, 0
3, 94080, Note_on_c, 1, 71, 100
3, 94536, Note_on_c, 1, 71, 0
3, 94560, Note_on_c, 1, 69, 100
3, 95016, Note_on_c, 1, 69, 0
3, 95040, Note_on_c, 1, 68, 100
3, 95088, Control_c, 1, 7, 111
3, 95136, Control_c, 1, 7, 112
3, 95184, Control_c, 1, 7, 113
3, 95232, Control_c, 1, 7, 114
3, 95268, Note_on_c, 1, 68, 0
3, 95280, Control_c, 1, 7, 115
3, 95280, Note_on_c, 1, 69, 100
3, 95328, Control_c, 1, 7, 116
3, 95376, Control_c, 1, 7, 117
3, 95424, Control_c, 1, 7, 118
3, 95472, Control_c, 1, 7, 119
3, 95508, Note_on_c, 1, 69, 0
3, 95520, Control_c, 1, 7, 120
3, 95520, Note_on_c, 1, 74, 100
3, 95664, Control_c, 1, 7, 119
3, 95712, Control_c, 1, 7, 118
3, 95760, Control_c, 1, 7, 117
3, 95784, Control_c, 1, 7, 116
3, 95832, Control_c, 1, 7, 115
3, 95880, Control_c, 1, 7, 114
3, 95904, Control_c, 1, 7, 113
3, 95952, Control_c, 1, 7, 112
3, 96000, Control_c, 1, 7, 111
3, 96024, Control_c, 1, 7, 110
3, 96072, Control_c, 1, 7, 109
3, 96120, Control_c, 1, 7, 108
3, 96144, Control_c, 1, 7, 107
3, 96192, Control_c, 1, 7, 106
3, 96240, Control_c, 1, 7, 105
3, 96264, Control_c, 1, 7, 104
3, 96312, Control_c, 1, 7, 103
3, 96360, Control_c, 1, 7, 102
3, 96456, Note_on_c, 1, 74, 0
3, 96480, Note_on_c, 1, 66, 100
3, 96822, Note_on_c, 1, 66, 0
3, 96840, Note_on_c, 1, 67, 100
3, 96954, Note_on_c, 1, 67, 0
3, 96960, Note_on_c, 1, 69, 100
3, 97416, Note_on_c, 1, 69, 0
3, 97440, Note_on_c, 1, 71, 100
3, 97896, Note_on_c, 1, 71, 0
3, 97920, Note_on_c, 1, 69, 100
3, 98148, Note_on_c, 1, 69, 0
3, 98160, Note_on_c, 1, 64, 100
3, 98388, Note_on_c, 1, 64, 0
3, 98400, Note_on_c, 1, 66, 100
3, 98856, Note_on_c, 1, 66, 0
3, 99360, Note_on_c, 1, 69, 100
3, 99588, Note_on_c, 1, 69, 0
3, 99600, Note_on_c, 1, 69, 100
3, 99828, Note_on_c, 1, 69, 0
3, 99840, Note_on_c, 1, 71, 100
3, 100296, Note_on_c, 1, 71, 0
3, 100320, Note_on_c, 1, 69, 100
3, 100776, Note_on_c, 1, 69, 0
3, 100800, Note_on_c, 1, 68, 100
3, 100824, Control_c, 1, 7, 103
3, 100848, Control_c, 1, 7, 104
3, 100872, Control_c, 1, 7, 105
3, 100896, Control_c, 1, 7, 106
3, 100944, Control_c, 1, 7, 107
3, 100968, Control_c, 1, 7, 108
3, 100992, Control_c, 1, 7, 109
3, 101016, Control_c, 1, 7, 110
3, 101028, Note_on_c, 1, 68, 0
3, 101040, Control_c, 1, 7, 111
3, 101040, Note_on_c, 1, 69, 100
3, 101064, Control_c, 1, 7, 112
3, 101088, Control_c, 1, 7, 113
3, 101112, Control_c, 1, 7, 114
3, 101136, Control_c, 1, 7, 115
3, 101184, Control_c, 1, 7, 116
3, 101208, Control_c, 1, 7, 117
3, 101232, Control_c, 1, 7, 118
3, 101256, Control_c, 1, 7, 119
3, 101268, Note_on_c, 1, 69, 0
3, 101280, Control_c, 1, 7, 120
3, 101280, Note_on_c, 1, 78, 100
3, 101664, Control_c, 1, 7, 119
3, 101712, Control_c, 1, 7, 118
3, 101760, Control_c, 1, 7, 117
3, 101808, Control_c, 1, 7, 116
3, 101832, Control_c, 1, 7, 115
3, 101880, Control_c, 1, 7, 114
3, 101928, Control_c, 1, 7, 113
3, 101976, Control_c, 1, 7, 112
3, 102024, Control_c, 1, 7, 111
3, 102048, Control_c, 1, 7, 110
3, 102096, Control_c, 1, 7, 109
3, 102144, Control_c, 1, 7, 108
3, 102192, Control_c, 1, 7, 107
3, 102216, Control_c, 1, 7, 106
3, 102264, Control_c, 1, 7, 105
3, 102312, Control_c, 1, 7, 104
3, 102360, Control_c, 1, 7, 103
3, 102450, Note_on_c, 1, 78, 0
3, 102480, Note_on_c, 1, 76, 100
3, 102708, Note_on_c, 1, 76, 0
3, 102720, Note_on_c, 1, 74, 100
3, 102948, Note_on_c, 1, 74, 0
3, 102960, Note_on_c, 1, 66, 100
3, 103188, Note_on_c, 1, 66, 0
3, 103200, Note_on_c, 1, 73, 100
3, 103428, Note_on_c, 1, 73, 0
3, 103440, Note_on_c, 1, 71, 100
3, 103668, Note_on_c, 1, 71, 0
3, 103680, Note_on_c, 1, 69, 100
3, 103728, Control_c, 1, 7, 102
3, 103800, Control_c, 1, 7, 101
3, 103872, Control_c, 1, 7, 100
3, 103908, Note_on_c, 1, 69, 0
3, 103920, Note_on_c, 1, 61, 100
3, 103944, Control_c, 1, 7, 99
3, 104016, Control_c, 1, 7, 98
3, 104088, Control_c, 1, 7, 97
3, 104148, Note_on_c, 1, 61, 0
3, 104160, Note_on_c, 1, 62, 100
3, 104184, Control_c, 1, 7, 96
3, 104256, Control_c, 1, 7, 95
3, 104328, Control_c, 1, 7, 94
3, 104400, Control_c, 1, 7, 93
3, 104472, Control_c, 1, 7, 92
3, 104544, Control_c, 1, 7, 91
3, 104616, Note_on_c, 1, 62, 0
3, 104616, Control_c, 1, 7, 90
3, 105120, Note_on_c, 1, 71, 100
3, 105272, Note_on_c, 1, 71, 0
3, 105279, Note_on_c, 1, 73, 100
3, 105431, Note_on_c, 1, 73, 0
3, 105439, Note_on_c, 1, 71, 100
3, 105590, Note_on_c, 1, 71, 0
3, 105600, Note_on_c, 1, 69, 100
3, 106056, Note_on_c, 1, 69, 0
3, 106080, Note_on_c, 1, 71, 100
3, 106536, Note_on_c, 1, 71, 0
3, 106560, Note_on_c, 1, 73, 100
3, 107016, Note_on_c, 1, 73, 0
3, 107040, Note_on_c, 1, 69, 100
3, 107748, Note_on_c, 1, 69, 0
3, 107760, Note_on_c, 1, 64, 100
3, 107988, Note_on_c, 1, 64, 0
3, 108000, Note_on_c, 1, 71, 100
3, 108228, Note_on_c, 1, 71, 0
3, 108240, Note_on_c, 1, 71, 100
3, 108468, Note_on_c, 1, 71, 0
3, 108480, Note_on_c, 1, 69, 100
3, 109188, Note_on_c, 1, 69, 0
3, 109200, Note_on_c, 1, 71, 100
3, 109428, Note_on_c, 1, 71, 0
3, 109440, Note_on_c, 1, 73, 100
3, 109896, Note_on_c, 1, 73, 0
3, 109920, Note_on_c, 1, 69, 100
3, 110148, Note_on_c, 1, 69, 0
3, 110160, Note_on_c, 1, 68, 100
3, 110388, Note_on_c, 1, 68, 0
3, 110400, Note_on_c, 1, 67, 100
3, 110628, Note_on_c, 1, 67, 0
3, 110640, Note_on_c, 1, 66, 100
3, 110868, Note_on_c, 1, 66, 0
3, 110880, Note_on_c, 1, 64, 100
3, 111222, Note_on_c, 1, 64, 0
3, 111240, Note_on_c, 1, 69, 100
3, 111297, Note_on_c, 1, 69, 0
3, 111300, Note_on_c, 1, 73, 100
3, 111357, Note_on_c, 1, 73, 0
3, 111360, Note_on_c, 1, 71, 100
3, 111816, Note_on_c, 1, 71, 0
3, 111840, Note_on_c, 1, 69, 100
3, 112296, Note_on_c, 1, 69, 0
3, 112320, Note_on_c, 1, 68, 100
3, 112344, Control_c, 1, 7, 91
3, 112368, Control_c, 1, 7, 92
3, 112392, Control_c, 1, 7, 93
3, 112416, Control_c, 1, 7, 94
3, 112440, Control_c, 1, 7, 96
3, 112464, Control_c, 1, 7, 97
3, 112488, Control_c, 1, 7, 98
3, 112512, Control_c, 1, 7, 99
3, 112536, Control_c, 1, 7, 100
3, 112548, Note_on_c, 1, 68, 0
3, 112560, Control_c, 1, 7, 101
3, 112560, Note_on_c, 1, 69, 100
3, 112584, Control_c, 1, 7, 102
3, 112608, Control_c, 1, 7, 103
3, 112632, Control_c, 1, 7, 104
3, 112656, Control_c, 1, 7, 105
3, 112680, Control_c, 1, 7, 107
3, 112704, Control_c, 1, 7, 108
3, 112728, Control_c, 1, 7, 109
3, 112752, Control_c, 1, 7, 110
3, 112776, Control_c, 1, 7, 111
3, 112788, Note_on_c, 1, 69, 0
3, 112800, Control_c, 1, 7, 112
3, 112800, Note_on_c, 1, 74, 100
3, 113304, Control_c, 1, 7, 111
3, 113328, Control_c, 1, 7, 110
3, 113376, Control_c, 1, 7, 109
3, 113400, Control_c, 1, 7, 108
3, 113424, Control_c, 1, 7, 107
3, 113448, Control_c, 1, 7, 106
3, 113496, Control_c, 1, 7, 105
3, 113520, Control_c, 1, 7, 104
3, 113544, Control_c, 1, 7, 103
3, 113568, Control_c, 1, 7, 102
3, 113616, Control_c, 1, 7, 101
3, 113640, Control_c, 1, 7, 100
3, 113736, Note_on_c, 1, 74, 0
3, 113760, Note_on_c, 1, 66, 100
3, 114102, Note_on_c, 1, 66, 0
3, 114120, Note_on_c, 1, 67, 100
3, 114234, Note_on_c, 1, 67, 0
3, 114240, Note_on_c, 1, 69, 100
3, 114696, Note_on_c, 1, 69, 0
3, 114720, Note_on_c, 1, 71, 100
3, 115176, Note_on_c, 1, 71, 0
3, 115200, Note_on_c, 1, 69, 100
3, 115428, Note_on_c, 1, 69, 0
3, 115440, Note_on_c, 1, 64, 100
3, 115668, Note_on_c, 1, 64, 0
3, 115680, Note_on_c, 1, 66, 100
3, 116136, Note_on_c, 1, 66, 0
3, 116640, Note_on_c, 1, 69, 100
3, 116868, Note_on_c, 1, 69, 0
3, 116880, Note_on_c, 1, 69, 100
3, 117108, Note_on_c, 1, 69, 0
3, 117120, Note_on_c, 1, 71, 100
3, 117576, Note_on_c, 1, 71, 0
3, 117600, Note_on_c, 1, 69, 100
3, 118056, Note_on_c, 1, 69, 0
3, 118080, Note_on_c, 1, 68, 100
3, 118104, Control_c, 1, 7, 101
3, 118128, Control_c, 1, 7, 102
3, 118152, Control_c, 1, 7, 103
3, 118176, Control_c, 1, 7, 105
3, 118200, Control_c, 1, 7, 106
3, 118224, Control_c, 1, 7, 107
3, 118248, Control_c, 1, 7, 108
3, 118272, Control_c, 1, 7, 109
3, 118296, Control_c, 1, 7, 110
3, 118308, Note_on_c, 1, 68, 0
3, 118320, Control_c, 1, 7, 112
3, 118320, Note_on_c, 1, 69, 100
3, 118344, Control_c, 1, 7, 113
3, 118368, Control_c, 1, 7, 114
3, 118392, Control_c, 1, 7, 115
3, 118416, Control_c, 1, 7, 116
3, 118440, Control_c, 1, 7, 117
3, 118464, Control_c, 1, 7, 118
3, 118488, Control_c, 1, 7, 120
3, 118512, Control_c, 1, 7, 121
3, 118536, Control_c, 1, 7, 122
3, 118548, Note_on_c, 1, 69, 0
3, 118560, Control_c, 1, 7, 123
3, 118560, Note_on_c, 1, 78, 100
3, 119304, Control_c, 1, 7, 122
3, 119328, Control_c, 1, 7, 120
3, 119352, Control_c, 1, 7, 119
3, 119376, Control_c, 1, 7, 118
3, 119400, Control_c, 1, 7, 116
3, 119424, Control_c, 1, 7, 115
3, 119448, Control_c, 1, 7, 114
3, 119472, Control_c, 1, 7, 112
3, 119496, Control_c, 1, 7, 111
3, 119520, Control_c, 1, 7, 110
3, 119544, Control_c, 1, 7, 108
3, 119568, Control_c, 1, 7, 107
3, 119592, Control_c, 1, 7, 106
3, 119616, Control_c, 1, 7, 104
3, 119640, Control_c, 1, 7, 103
3, 119748, Note_on_c, 1, 78, 0
3, 119760, Note_on_c, 1, 76, 100
3, 119988, Note_on_c, 1, 76, 0
3, 120000, Note_on_c, 1, 74, 100
3, 120228, Note_on_c, 1, 74, 0
3, 120240, Note_on_c, 1, 66, 100
3, 120468, Note_on_c, 1, 66, 0
3, 120480, Note_on_c, 1, 73, 100
3, 120708, Note_on_c, 1, 73, 0
3, 120720, Note_on_c, 1, 71, 100
3, 120948, Note_on_c, 1, 71, 0
3, 120960, Note_on_c, 1, 69, 100
3, 121188, Note_on_c, 1, 69, 0
3, 121200, Note_on_c, 1, 61, 100
3, 121428, Note_on_c, 1, 61, 0
3, 121440, Note_on_c, 1, 62, 100
3, 121896, Note_on_c, 1, 62, 0
3, 128160, End_track
0, 0, End_of_file