0, 0, Header, 1, 4, 48
1, 0, Start_track
1, 0, Tempo, 500000
1, 0, Time_signature, 4, 2, 24, 8
1, 0, Key_signature, 1, "minor"
1, 0, Title_t, "F.F.Chopin  Nocturne No.19 in E mionr Op.post.72-1"
1, 0, Text_t, "CVS Ver5.05 Created"
1, 192, Tempo, 1333333
1, 208, Tempo, 1111111
1, 240, Tempo, 1071428
1, 256, Tempo, 1111111
1, 272, Tempo, 1200000
1, 288, Tempo, 1153846
1, 304, Tempo, 1034482
1, 320, Tempo, 1111111
1, 336, Tempo, 1153846
1, 352, Tempo, 1250000
1, 368, Tempo, 1333333
1, 376, Tempo, 1935483
1, 400, Tempo, 1071428
1, 416, Tempo, 1000000
1, 432, Tempo, 1153846
1, 448, Tempo, 952380
1, 464, Tempo, 1153846
1, 480, Tempo, 1000000
1, 496, Tempo, 983606
1, 512, Tempo, 1071428
1, 528, Tempo, 1034482
1, 544, Tempo, 1111111
1, 560, Tempo, 1250000
1, 576, Tempo, 1304347
1, 592, Tempo, 1000000
1, 608, Tempo, 952380
1, 624, Tempo, 983606
1, 656, Tempo, 1000000
1, 672, Tempo, 983606
1, 688, Tempo, 1000000
1, 704, Tempo, 1153846
1, 720, Tempo, 1395348
1, 736, Tempo, 1304347
1, 752, Tempo, 2000000
1, 756, Tempo, 1000000
1, 768, Tempo, 1395348
1, 784, Tempo, 952380
1, 832, Tempo, 1000000
1, 840, Tempo, 1071428
1, 848, Tempo, 1621621
1, 864, Tempo, 1000000
1, 880, Tempo, 1250000
1, 888, Tempo, 923076
1, 912, Tempo, 1000000
1, 928, Tempo, 1153846
1, 936, Tempo, 1071428
1, 944, Tempo, 1621621
1, 960, Tempo, 1333333
1, 976, Tempo, 1000000
1, 992, Tempo, 1463414
1, 1008, Tempo, 1621621
1, 1024, Tempo, 1153846
1, 1040, Tempo, 1621621
1, 1056, Tempo, 1395348
1, 1072, Tempo, 1071428
1, 1088, Tempo, 1111111
1, 1104, Tempo, 1071428
1, 1120, Tempo, 1153846
1, 1136, Tempo, 1621621
1, 1152, Tempo, 1250000
1, 1168, Tempo, 952380
1, 1184, Tempo, 1000000
1, 1200, Tempo, 983606
1, 1216, Tempo, 1034482
1, 1232, Tempo, 1250000
1, 1248, Tempo, 1153846
1, 1264, Tempo, 952380
1, 1296, Tempo, 983606
1, 1312, Tempo, 1000000
1, 1328, Tempo, 1111111
1, 1344, Tempo, 1071428
1, 1360, Tempo, 1000000
1, 1376, Tempo, 983606
1, 1408, Tempo, 1000000
1, 1424, Tempo, 1071428
1, 1440, Tempo, 983606
1, 1456, Tempo, 952380
1, 1472, Tempo, 1034482
1, 1488, Tempo, 1111111
1, 1504, Tempo, 1153846
1, 1520, Tempo, 1463414
1, 1536, Tempo, 1333333
1, 1552, Tempo, 1153846
1, 1568, Tempo, 1111111
1, 1600, Tempo, 1200000
1, 1616, Tempo, 1250000
1, 1632, Tempo, 1200000
1, 1664, Tempo, 1333333
1, 1680, Tempo, 1463414
1, 1696, Tempo, 1621621
1, 1712, Tempo, 2000000
1, 1728, Tempo, 1333333
1, 1744, Tempo, 1111111
1, 1760, Tempo, 1071428
1, 1776, Tempo, 1111111
1, 1792, Tempo, 1034482
1, 1808, Tempo, 1111111
1, 1824, Tempo, 1200000
1, 1840, Tempo, 1071428
1, 1856, Tempo, 1111111
1, 1872, Tempo, 1200000
1, 1888, Tempo, 1333333
1, 1904, Tempo, 1621621
1, 1936, Tempo, 1071428
1, 1952, Tempo, 1000000
1, 1968, Tempo, 952380
1, 1984, Tempo, 983606
1, 2000, Tempo, 1071428
1, 2016, Tempo, 983606
1, 2032, Tempo, 952380
1, 2048, Tempo, 983606
1, 2064, Tempo, 1000000
1, 2080, Tempo, 1034482
1, 2096, Tempo, 1333333
1, 2112, Tempo, 1395348
1, 2128, Tempo, 983606
1, 2144, Tempo, 952380
1, 2160, Tempo, 1071428
1, 2176, Tempo, 923076
1, 2192, Tempo, 1000000
1, 2208, Tempo, 1621621
1, 2224, Tempo, 1071428
1, 2240, Tempo, 1000000
1, 2256, Tempo, 952380
1, 2272, Tempo, 895522
1, 2288, Tempo, 1395348
1, 2304, Tempo, 1621621
1, 2320, Tempo, 1111111
1, 2336, Tempo, 1071428
1, 2352, Tempo, 1000000
1, 2368, Tempo, 1111111
1, 2376, Tempo, 1250000
1, 2384, Tempo, 1463414
1, 2400, Tempo, 1935483
1, 2416, Tempo, 1538461
1, 2432, Tempo, 1200000
1, 2448, Tempo, 1250000
1, 2464, Tempo, 1200000
1, 2480, Tempo, 1333333
1, 2496, Tempo, 1395348
1, 2512, Tempo, 1153846
1, 2528, Tempo, 1304347
1, 2542, Tempo, 3333333
1, 2544, Tempo, 2000000
1, 2560, Tempo, 1395348
1, 2576, Tempo, 1538461
1, 2592, Tempo, 1463414
1, 2608, Tempo, 1000000
1, 2624, Tempo, 1111111
1, 2640, Tempo, 1200000
1, 2656, Tempo, 1250000
1, 2672, Tempo, 1818181
1, 2688, Tempo, 1250000
1, 2704, Tempo, 983606
1, 2720, Tempo, 952380
1, 2736, Tempo, 923076
1, 2752, Tempo, 952380
1, 2760, Tempo, 1111111
1, 2768, Tempo, 1071428
1, 2784, Tempo, 895522
1, 2800, Tempo, 869565
1, 2816, Tempo, 895522
1, 2864, Tempo, 1000000
1, 2896, Tempo, 769230
1, 2904, Tempo, 1153846
1, 2912, Tempo, 952380
1, 2916, Tempo, 535714
1, 2928, Tempo, 1621621
1, 2944, Tempo, 1153846
1, 2952, Tempo, 1071428
1, 2960, Tempo, 1250000
1, 2976, Tempo, 1071428
1, 2992, Tempo, 821917
1, 3008, Tempo, 895522
1, 3024, Tempo, 952380
1, 3040, Tempo, 895522
1, 3056, Tempo, 1111111
1, 3072, Tempo, 1250000
1, 3088, Tempo, 895522
1, 3104, Tempo, 952380
1, 3120, Tempo, 1463414
1, 3136, Tempo, 1250000
1, 3144, Tempo, 1153846
1, 3152, Tempo, 1333333
1, 3168, Tempo, 1304347
1, 3184, Tempo, 983606
1, 3200, Tempo, 952380
1, 3216, Tempo, 1034482
1, 3232, Tempo, 1071428
1, 3248, Tempo, 1304347
1, 3280, Tempo, 845070
1, 3296, Tempo, 869565
1, 3312, Tempo, 1071428
1, 3328, Tempo, 1000000
1, 3336, Tempo, 1034482
1, 3344, Tempo, 1153846
1, 3360, Tempo, 1200000
1, 3376, Tempo, 1034482
1, 3392, Tempo, 1071428
1, 3408, Tempo, 1153846
1, 3424, Tempo, 1071428
1, 3440, Tempo, 1200000
1, 3456, Tempo, 1250000
1, 3472, Tempo, 983606
1, 3488, Tempo, 952380
1, 3504, Tempo, 923076
1, 3520, Tempo, 1000000
1, 3536, Tempo, 1071428
1, 3553, Tempo, 983606
1, 3568, Tempo, 952380
1, 3584, Tempo, 983606
1, 3600, Tempo, 1000000
1, 3616, Tempo, 1071428
1, 3632, Tempo, 1250000
1, 3664, Tempo, 1000000
1, 3680, Tempo, 952380
1, 3696, Tempo, 983606
1, 3712, Tempo, 1000000
1, 3728, Tempo, 1333333
1, 3744, Tempo, 1250000
1, 3760, Tempo, 983606
1, 3792, Tempo, 1000000
1, 3808, Tempo, 1071428
1, 3824, Tempo, 1153846
1, 3840, Tempo, 1333333
1, 3856, Tempo, 1000000
1, 3872, Tempo, 1333333
1, 3888, Tempo, 1250000
1, 3904, Tempo, 1463414
1, 3912, Tempo, 1304347
1, 3920, Tempo, 1621621
1, 3936, Tempo, 1395348
1, 3952, Tempo, 983606
1, 3968, Tempo, 1000000
1, 3984, Tempo, 1034482
1, 4000, Tempo, 1071428
1, 4016, Tempo, 1333333
1, 4032, Tempo, 1304347
1, 4048, Tempo, 1071428
1, 4064, Tempo, 1250000
1, 4080, Tempo, 1621621
1, 4096, Tempo, 1200000
1, 4112, Tempo, 1395348
1, 4128, Tempo, 1200000
1, 4144, Tempo, 1111111
1, 4160, Tempo, 1200000
1, 4176, Tempo, 1463414
1, 4192, Tempo, 1333333
1, 4208, Tempo, 1818181
1, 4240, Tempo, 1250000
1, 4256, Tempo, 1200000
1, 4272, Tempo, 1000000
1, 4288, Tempo, 983606
1, 4304, Tempo, 1153846
1, 4320, Tempo, 1200000
1, 4336, Tempo, 1111111
1, 4384, Tempo, 1153846
1, 4400, Tempo, 1621621
1, 4416, Tempo, 1395348
1, 4432, Tempo, 1000000
1, 4448, Tempo, 983606
1, 4480, Tempo, 1000000
1, 4496, Tempo, 1071428
1, 4504, Tempo, 1818181
1, 4512, Tempo, 1200000
1, 4528, Tempo, 1000000
1, 4560, Tempo, 1034482
1, 4576, Tempo, 1463414
1, 4592, Tempo, 3333333
1, 4600, Tempo, 2500000
1, 4608, Tempo, 1621621
1, 4624, Tempo, 983606
1, 4688, Tempo, 1000000
1, 4704, Tempo, 1153846
1, 4720, Tempo, 952380
1, 4736, Tempo, 983606
1, 4752, Tempo, 952380
1, 4768, Tempo, 983606
1, 4784, Tempo, 1250000
1, 4800, Tempo, 1395348
1, 4816, Tempo, 983606
1, 4832, Tempo, 952380
1, 4864, Tempo, 983606
1, 4872, Tempo, 1000000
1, 4880, Tempo, 1071428
1, 4896, Tempo, 952380
1, 4912, Tempo, 923076
1, 4920, Tempo, 983606
1, 4928, Tempo, 1034482
1, 4944, Tempo, 1071428
1, 4960, Tempo, 1153846
1, 4968, Tempo, 1250000
1, 4976, Tempo, 1333333
1, 4992, Tempo, 1621621
1, 5008, Tempo, 1200000
1, 5024, Tempo, 1304347
1, 5040, Tempo, 1153846
1, 5056, Tempo, 983606
1, 5072, Tempo, 1071428
1, 5104, Tempo, 983606
1, 5120, Tempo, 952380
1, 5136, Tempo, 983606
1, 5152, Tempo, 1000000
1, 5168, Tempo, 1200000
1, 5184, Tempo, 1333333
1, 5200, Tempo, 983606
1, 5216, Tempo, 952380
1, 5232, Tempo, 895522
1, 5248, Tempo, 923076
1, 5264, Tempo, 1071428
1, 5280, Tempo, 1153846
1, 5296, Tempo, 983606
1, 5312, Tempo, 1000000
1, 5328, Tempo, 1463414
1, 5344, Tempo, 800000
1, 5352, Tempo, 1304347
1, 5360, Tempo, 1071428
1, 5376, Tempo, 1818181
1, 5392, Tempo, 952380
1, 5408, Tempo, 895522
1, 5424, Tempo, 983606
1, 5440, Tempo, 952380
1, 5456, Tempo, 1000000
1, 5472, Tempo, 983606
1, 5488, Tempo, 1034482
1, 5504, Tempo, 952380
1, 5520, Tempo, 983606
1, 5536, Tempo, 1034482
1, 5552, Tempo, 1538461
1, 5568, Tempo, 1621621
1, 5584, Tempo, 952380
1, 5600, Tempo, 1000000
1, 5616, Tempo, 983606
1, 5632, Tempo, 1621621
1, 5640, Tempo, 800000
1, 5648, Tempo, 1333333
1, 5664, Tempo, 952380
1, 5680, Tempo, 983606
1, 5688, Tempo, 1071428
1, 5696, Tempo, 1621621
1, 5712, Tempo, 1818181
1, 5728, Tempo, 1333333
1, 5736, Tempo, 1621621
1, 5744, Tempo, 1250000
1, 5760, Tempo, 1621621
1, 5764, Tempo, 1935483
1, 5776, Tempo, 1000000
1, 5792, Tempo, 1111111
1, 5808, Tempo, 1333333
1, 5824, Tempo, 1153846
1, 5840, Tempo, 1071428
1, 5856, Tempo, 1395348
1, 5872, Tempo, 1111111
1, 5888, Tempo, 1200000
1, 5904, Tempo, 1395348
1, 5920, Tempo, 1621621
1, 5936, Tempo, 2000000
1, 5942, Tempo, 1818181
1, 5947, Tempo, 3333333
1, 5952, Tempo, 1000000
1, 5956, Tempo, 2142857
1, 5968, Tempo, 952380
1, 6000, Tempo, 923076
1, 6032, Tempo, 952380
1, 6048, Tempo, 983606
1, 6064, Tempo, 1000000
1, 6080, Tempo, 1071428
1, 6096, Tempo, 2307692
1, 6100, Tempo, 1000000
1, 6104, Tempo, 952380
1, 6108, Tempo, 1621621
1, 6118, Tempo, 923076
1, 6126, Tempo, 983606
1, 6134, Tempo, 1463414
1, 6160, Tempo, 923076
1, 6176, Tempo, 895522
1, 6208, Tempo, 923076
1, 6224, Tempo, 1000000
1, 6240, Tempo, 1153846
1, 6256, Tempo, 1071428
1, 6270, Tempo, 2307692
1, 6276, Tempo, 1071428
1, 6282, Tempo, 952380
1, 6285, Tempo, 895522
1, 6288, Tempo, 1935483
1, 6296, Tempo, 1071428
1, 6304, Tempo, 895522
1, 6312, Tempo, 845070
1, 6320, Tempo, 869565
1, 6328, Tempo, 1071428
1, 6336, Tempo, 1153846
1, 6352, Tempo, 923076
1, 6368, Tempo, 895522
1, 6384, Tempo, 869565
1, 6400, Tempo, 895522
1, 6416, Tempo, 1000000
1, 6432, Tempo, 1153846
1, 6448, Tempo, 800000
1, 6474, Tempo, 1250000
1, 6477, Tempo, 1153846
1, 6480, Tempo, 1935483
1, 6488, Tempo, 1071428
1, 6496, Tempo, 952380
1, 6504, Tempo, 923076
1, 6512, Tempo, 983606
1, 6520, Tempo, 1621621
1, 6524, Tempo, 2000000
1, 6528, Tempo, 1463414
1, 6544, Tempo, 1153846
1, 6560, Tempo, 1250000
1, 6582, Tempo, 2727272
1, 6587, Tempo, 1463414
1, 6592, Tempo, 1304347
1, 6597, Tempo, 1200000
1, 6602, Tempo, 1153846
1, 6607, Tempo, 1200000
1, 6612, Tempo, 1304347
1, 6618, Tempo, 1714285
1, 6624, Tempo, 1463414
1, 6640, Tempo, 1153846
1, 6656, Tempo, 1250000
1, 6672, Tempo, 1200000
1, 6688, Tempo, 1153846
1, 6704, Tempo, 1333333
1, 6720, Tempo, 1621621
1, 6736, Tempo, 1000000
1, 6752, Tempo, 1818181
1, 6759, Tempo, 1621621
1, 6762, Tempo, 1818181
1, 6765, Tempo, 3333333
1, 6784, Tempo, 1153846
1, 6800, Tempo, 1250000
1, 6816, Tempo, 1333333
1, 6832, Tempo, 1000000
1, 6848, Tempo, 1153846
1, 6858, Tempo, 1071428
1, 6864, Tempo, 2727272
1, 6869, Tempo, 1250000
1, 6874, Tempo, 983606
1, 6879, Tempo, 923076
1, 6884, Tempo, 895522
1, 6888, Tempo, 952380
1, 6892, Tempo, 983606
1, 6897, Tempo, 952380
1, 6902, Tempo, 895522
1, 6907, Tempo, 1000000
1, 6912, Tempo, 1333333
1, 6928, Tempo, 1000000
1, 6944, Tempo, 983606
1, 6960, Tempo, 1034482
1, 6976, Tempo, 983606
1, 6992, Tempo, 1071428
1, 7008, Tempo, 1333333
1, 7016, Tempo, 1153846
1, 7020, Tempo, 983606
1, 7024, Tempo, 952380
1, 7028, Tempo, 1111111
1, 7031, Tempo, 1071428
1, 7034, Tempo, 1000000
1, 7076, Tempo, 1034482
1, 7079, Tempo, 1071428
1, 7082, Tempo, 1111111
1, 7085, Tempo, 1200000
1, 7088, Tempo, 1463414
1, 7091, Tempo, 1621621
1, 7094, Tempo, 1250000
1, 7097, Tempo, 1333333
1, 7100, Tempo, 1463414
1, 7104, Tempo, 2000000
1, 7108, Tempo, 1071428
1, 7111, Tempo, 1621621
1, 7114, Tempo, 1304347
1, 7117, Tempo, 1153846
1, 7120, Tempo, 1071428
1, 7123, Tempo, 1034482
1, 7126, Tempo, 1000000
1, 7180, Tempo, 1034482
1, 7183, Tempo, 1071428
1, 7186, Tempo, 1153846
1, 7189, Tempo, 1071428
1, 7193, Tempo, 1000000
1, 7200, Tempo, 2000000
1, 7203, Tempo, 1333333
1, 7206, Tempo, 1200000
1, 7209, Tempo, 1111111
1, 7212, Tempo, 1071428
1, 7215, Tempo, 1034482
1, 7218, Tempo, 1000000
1, 7257, Tempo, 1034482
1, 7260, Tempo, 1071428
1, 7263, Tempo, 1153846
1, 7266, Tempo, 1250000
1, 7269, Tempo, 1333333
1, 7272, Tempo, 1818181
1, 7274, Tempo, 1621621
1, 7276, Tempo, 1538461
1, 7278, Tempo, 1463414
1, 7284, Tempo, 1071428
1, 7287, Tempo, 1200000
1, 7290, Tempo, 1463414
1, 7293, Tempo, 2307692
1, 7296, Tempo, 1621621
1, 7312, Tempo, 952380
1, 7328, Tempo, 1000000
1, 7344, Tempo, 1463414
1, 7348, Tempo, 2000000
1, 7360, Tempo, 1000000
1, 7376, Tempo, 983606
1, 7392, Tempo, 1153846
1, 7408, Tempo, 952380
1, 7424, Tempo, 983606
1, 7440, Tempo, 895522
1, 7444, Tempo, 1621621
1, 7456, Tempo, 1395348
1, 7472, Tempo, 1714285
1, 7488, Tempo, 1463414
1, 7504, Tempo, 952380
1, 7520, Tempo, 983606
1, 7536, Tempo, 952380
1, 7552, Tempo, 983606
1, 7600, Tempo, 952380
1, 7632, Tempo, 1000000
1, 7648, Tempo, 983606
1, 7656, Tempo, 1333333
1, 7680, Tempo, 1621621
1, 7696, Tempo, 895522
1, 7760, Tempo, 1000000
1, 7776, Tempo, 1200000
1, 7792, Tempo, 1000000
1, 7808, Tempo, 895522
1, 7824, Tempo, 923076
1, 7840, Tempo, 845070
1, 7856, Tempo, 1250000
1, 7864, Tempo, 1071428
1, 7872, Tempo, 1714285
1, 7888, Tempo, 1000000
1, 7920, Tempo, 983606
1, 7936, Tempo, 869565
1, 7952, Tempo, 1200000
1, 7968, Tempo, 2142857
1, 7984, Tempo, 1304347
1, 8000, Tempo, 1395348
1, 8016, Tempo, 1200000
1, 8032, Tempo, 1000000
1, 8048, Tempo, 1304347
1, 8064, Tempo, 1463414
1, 8080, Tempo, 1000000
1, 8096, Tempo, 1153846
1, 8112, Tempo, 1818181
1, 8128, Tempo, 1304347
1, 8144, Tempo, 1250000
1, 8160, Tempo, 1333333
1, 8176, Tempo, 923076
1, 8192, Tempo, 952380
1, 8224, Tempo, 1034482
1, 8240, Tempo, 1304347
1, 8256, Tempo, 1395348
1, 8272, Tempo, 1000000
1, 8288, Tempo, 923076
1, 8320, Tempo, 952380
1, 8336, Tempo, 1071428
1, 8352, Tempo, 1333333
1, 8368, Tempo, 983606
1, 8400, Tempo, 1071428
1, 8416, Tempo, 952380
1, 8432, Tempo, 1071428
1, 8448, Tempo, 1250000
1, 8464, Tempo, 895522
1, 8480, Tempo, 869565
1, 8512, Tempo, 895522
1, 8528, Tempo, 952380
1, 8544, Tempo, 1333333
1, 8546, Tempo, 1153846
1, 8560, Tempo, 952380
1, 8576, Tempo, 1000000
1, 8592, Tempo, 800000
1, 8594, Tempo, 1250000
1, 8608, Tempo, 1304347
1, 8624, Tempo, 2000000
1, 8640, Tempo, 1463414
1, 8656, Tempo, 1034482
1, 8672, Tempo, 1000000
1, 8704, Tempo, 2307692
1, 8712, Tempo, 2142857
1, 8720, Tempo, 2727272
1, 8724, Tempo, 1621621
1, 8736, Tempo, 1333333
1, 8738, Tempo, 2000000
1, 8752, Tempo, 1034482
1, 8768, Tempo, 1153846
1, 8784, Tempo, 1304347
1, 8800, Tempo, 1333333
1, 8816, Tempo, 1818181
1, 8832, Tempo, 2142857
1, 8848, Tempo, 1071428
1, 8864, Tempo, 1034482
1, 8880, Tempo, 1000000
1, 8896, Tempo, 983606
1, 8912, Tempo, 952380
1, 8928, Tempo, 1000000
1, 8960, Tempo, 1071428
1, 9008, Tempo, 1333333
1, 9024, Tempo, 2000000
1, 9028, Tempo, 1463414
1, 9040, Tempo, 952380
1, 9056, Tempo, 1034482
1, 9072, Tempo, 1071428
1, 9088, Tempo, 1000000
1, 9120, Tempo, 1071428
1, 9136, Tempo, 983606
1, 9152, Tempo, 952380
1, 9168, Tempo, 1333333
1, 9184, Tempo, 1714285
1, 9200, Tempo, 2000000
1, 9204, Tempo, 1621621
1, 9216, Tempo, 1395348
1, 9232, Tempo, 923076
1, 9248, Tempo, 895522
1, 9264, Tempo, 923076
1, 9280, Tempo, 952380
1, 9296, Tempo, 1000000
1, 9312, Tempo, 983606
1, 9328, Tempo, 923076
1, 9344, Tempo, 952380
1, 9360, Tempo, 1000000
1, 9376, Tempo, 1034482
1, 9392, Tempo, 1153846
1, 9408, Tempo, 1463414
1, 9424, Tempo, 923076
1, 9440, Tempo, 952380
1, 9456, Tempo, 895522
1, 9480, Tempo, 952380
1, 9488, Tempo, 1071428
1, 9520, Tempo, 983606
1, 9528, Tempo, 1395348
1, 9536, Tempo, 1621621
1, 9568, Tempo, 1071428
1, 9576, Tempo, 1250000
1, 9600, Tempo, 1333333
1, 9616, Tempo, 1071428
1, 9632, Tempo, 1153846
1, 9648, Tempo, 1034482
1, 9664, Tempo, 983606
1, 9680, Tempo, 1071428
1, 9696, Tempo, 1000000
1, 9712, Tempo, 983606
1, 9760, Tempo, 1000000
1, 9776, Tempo, 1250000
1, 9792, Tempo, 1333333
1, 9808, Tempo, 1000000
1, 9824, Tempo, 1034482
1, 9840, Tempo, 1538461
1, 9856, Tempo, 1200000
1, 9872, Tempo, 1621621
1, 9888, Tempo, 1818181
1, 9904, Tempo, 1333333
1, 9912, Tempo, 1395348
1, 9936, Tempo, 1621621
1, 9952, Tempo, 1200000
1, 9968, Tempo, 1621621
1, 9984, Tempo, 1463414
1, 10000, Tempo, 983606
1, 10016, Tempo, 923076
1, 10032, Tempo, 1034482
1, 10048, Tempo, 983606
1, 10064, Tempo, 952380
1, 10080, Tempo, 1071428
1, 10096, Tempo, 983606
1, 10112, Tempo, 1000000
1, 10144, Tempo, 1034482
1, 10160, Tempo, 1200000
1, 10176, Tempo, 1621621
1, 10192, Tempo, 1000000
1, 10208, Tempo, 952380
1, 10224, Tempo, 983606
1, 10240, Tempo, 1034482
1, 10248, Tempo, 1304347
1, 10256, Tempo, 1395348
1, 10272, Tempo, 1153846
1, 10288, Tempo, 1000000
1, 10304, Tempo, 1463414
1, 10320, Tempo, 1818181
1, 10336, Tempo, 1200000
1, 10344, Tempo, 1333333
1, 10352, Tempo, 1621621
1, 10368, Tempo, 1304347
1, 10384, Tempo, 1071428
1, 10400, Tempo, 1000000
1, 10448, Tempo, 1071428
1, 10464, Tempo, 1111111
1, 10480, Tempo, 1071428
1, 10512, Tempo, 1200000
1, 10528, Tempo, 1111111
1, 10544, Tempo, 1463414
1, 10560, Tempo, 1621621
1, 10576, Tempo, 1071428
1, 10592, Tempo, 1000000
1, 10608, Tempo, 1034482
1, 10640, Tempo, 1071428
1, 10656, Tempo, 1111111
1, 10672, Tempo, 1153846
1, 10688, Tempo, 1333333
1, 10704, Tempo, 1621621
1, 10720, Tempo, 1714285
1, 10736, Tempo, 2142857
1, 10752, Tempo, 2000000
1, 10768, Tempo, 1250000
1, 10784, Tempo, 1333333
1, 10800, Tempo, 1250000
1, 10816, Tempo, 1304347
1, 10832, Tempo, 1463414
1, 10848, Tempo, 1935483
1, 10864, Tempo, 1818181
1, 10880, Tempo, 2000000
1, 10896, Tempo, 1538461
1, 10928, Tempo, 2000000
1, 10960, Tempo, 3333333
1, 10992, Time_signature, 5, 2, 24, 8
1, 10992, Tempo, 2727272
1, 11136, Tempo, 1333333
1, 11184, Time_signature, 4, 2, 24, 8
1, 11184, End_track
2, 0, Start_track
2, 0, Title_t, "RIGHT HAND"
2, 0, MIDI_port, 0
2, 4, System_exclusive, 0A, 41, 10, 42, 12, 40, 00, 7F, 00, 41, F7
2, 6, System_exclusive, 0A, 41, 10, 42, 12, 40, 00, 04, 7F, 3D, F7
2, 10, System_exclusive, 0A, 41, 10, 42, 12, 40, 01, 30, 04, 0B, F7
2, 12, System_exclusive, 0A, 41, 10, 42, 12, 40, 01, 31, 03, 0B, F7
2, 14, System_exclusive, 0A, 41, 10, 42, 12, 40, 01, 33, 6E, 1E, F7
2, 16, System_exclusive, 0A, 41, 10, 42, 12, 40, 01, 34, 3C, 4F, F7
2, 18, System_exclusive, 0A, 41, 10, 42, 12, 40, 01, 38, 02, 05, F7
2, 20, System_exclusive, 0A, 41, 10, 42, 12, 40, 01, 3A, 64, 21, F7
2, 22, System_exclusive, 0A, 41, 10, 42, 12, 40, 01, 3D, 07, 7B, F7
2, 24, System_exclusive, 0A, 41, 10, 42, 12, 40, 01, 3E, 08, 79, F7
2, 26, Control_c, 0, 0, 0
2, 28, Control_c, 0, 32, 1
2, 30, Program_c, 0, 0
2, 32, Control_c, 0, 7, 120
2, 34, Control_c, 0, 11, 120
2, 36, Control_c, 0, 91, 40
2, 38, Control_c, 0, 93, 0
2, 40, Control_c, 0, 10, 64
2, 42, Control_c, 0, 99, 1
2, 44, Control_c, 0, 98, 8
2, 46, Control_c, 0, 6, 64
2, 48, Control_c, 0, 98, 9
2, 50, Control_c, 0, 6, 64
2, 52, Control_c, 0, 98, 10
2, 54, Control_c, 0, 6, 64
2, 56, Control_c, 0, 98, 32
2, 58, Control_c, 0, 6, 64
2, 60, Control_c, 0, 98, 33
2, 62, Control_c, 0, 6, 64
2, 64, Control_c, 0, 98, 99
2, 66, Control_c, 0, 6, 64
2, 68, Control_c, 0, 98, 100
2, 70, Control_c, 0, 6, 80
2, 72, Control_c, 0, 98, 102
2, 74, Control_c, 0, 6, 64
2, 376, Note_on_c, 0, 71, 40
2, 381, Note_on_c, 0, 71, 0
2, 384, Note_on_c, 0, 79, 66
2, 526, Note_on_c, 0, 79, 0
2, 528, Note_on_c, 0, 78, 68
2, 552, Note_on_c, 0, 78, 0
2, 552, Note_on_c, 0, 76, 60
2, 576, Note_on_c, 0, 76, 0
2, 576, Note_on_c, 0, 75, 50
2, 718, Note_on_c, 0, 75, 0
2, 720, Note_on_c, 0, 76, 48
2, 754, Note_on_c, 0, 76, 0
2, 756, Note_on_c, 0, 72, 50
2, 766, Note_on_c, 0, 72, 0
2, 768, Note_on_c, 0, 71, 48
2, 838, Note_on_c, 0, 71, 0
2, 840, Note_on_c, 0, 66, 66
2, 862, Note_on_c, 0, 66, 0
2, 864, Note_on_c, 0, 69, 57
2, 864, Note_on_c, 0, 72, 66
2, 888, Note_on_c, 0, 72, 0
2, 888, Note_on_c, 0, 69, 0
2, 888, Note_on_c, 0, 67, 58
2, 888, Note_on_c, 0, 71, 64
2, 912, Note_on_c, 0, 71, 0
2, 912, Note_on_c, 0, 67, 0
2, 912, Note_on_c, 0, 66, 53
2, 912, Note_on_c, 0, 69, 60
2, 936, Note_on_c, 0, 69, 0
2, 936, Note_on_c, 0, 66, 0
2, 936, Note_on_c, 0, 64, 46
2, 936, Note_on_c, 0, 67, 56
2, 958, Note_on_c, 0, 67, 0
2, 958, Note_on_c, 0, 64, 0
2, 960, Note_on_c, 0, 63, 44
2, 960, Note_on_c, 0, 66, 56
2, 1005, Note_on_c, 0, 66, 0
2, 1005, Note_on_c, 0, 63, 0
2, 1008, Note_on_c, 0, 64, 45
2, 1008, Note_on_c, 0, 67, 55
2, 1053, Note_on_c, 0, 67, 0
2, 1053, Note_on_c, 0, 64, 0
2, 1056, Note_on_c, 0, 63, 34
2, 1056, Note_on_c, 0, 66, 44
2, 1078, Note_on_c, 0, 66, 0
2, 1078, Note_on_c, 0, 63, 0
2, 1152, Note_on_c, 0, 62, 46
2, 1152, Note_on_c, 0, 71, 56
2, 1197, Note_on_c, 0, 71, 0
2, 1197, Note_on_c, 0, 62, 0
2, 1200, Note_on_c, 0, 65, 54
2, 1200, Note_on_c, 0, 71, 62
2, 1245, Note_on_c, 0, 65, 0
2, 1248, Note_on_c, 0, 66, 56
2, 1292, Note_on_c, 0, 71, 0
2, 1293, Note_on_c, 0, 66, 0
2, 1296, Note_on_c, 0, 70, 60
2, 1296, Note_on_c, 0, 73, 68
2, 1341, Note_on_c, 0, 73, 0
2, 1341, Note_on_c, 0, 70, 0
2, 1344, Note_on_c, 0, 71, 60
2, 1344, Note_on_c, 0, 74, 70
2, 1436, Note_on_c, 0, 74, 0
2, 1436, Note_on_c, 0, 71, 0
2, 1440, Note_on_c, 0, 71, 46
2, 1440, Note_on_c, 0, 74, 60
2, 1485, Note_on_c, 0, 74, 0
2, 1488, Note_on_c, 0, 74, 50
2, 1532, Note_on_c, 0, 71, 0
2, 1533, Note_on_c, 0, 74, 0
2, 1536, Note_on_c, 0, 71, 44
2, 1536, Note_on_c, 0, 73, 50
2, 1628, Note_on_c, 0, 71, 0
2, 1632, Note_on_c, 0, 70, 38
2, 1724, Note_on_c, 0, 70, 0
2, 1724, Note_on_c, 0, 73, 0
2, 1728, Note_on_c, 0, 71, 44
2, 1774, Note_on_c, 0, 71, 0
2, 1776, Note_on_c, 0, 63, 64
2, 1824, Note_on_c, 0, 63, 0
2, 1824, Note_on_c, 0, 64, 74
2, 1872, Note_on_c, 0, 64, 0
2, 1872, Note_on_c, 0, 66, 75
2, 1920, Note_on_c, 0, 66, 0
2, 1920, Note_on_c, 0, 67, 62
2, 1920, Note_on_c, 0, 79, 76
2, 2062, Note_on_c, 0, 79, 0
2, 2062, Note_on_c, 0, 67, 0
2, 2064, Note_on_c, 0, 66, 58
2, 2064, Note_on_c, 0, 78, 70
2, 2088, Note_on_c, 0, 78, 0
2, 2088, Note_on_c, 0, 66, 0
2, 2088, Note_on_c, 0, 64, 57
2, 2088, Note_on_c, 0, 76, 68
2, 2110, Note_on_c, 0, 76, 0
2, 2110, Note_on_c, 0, 64, 0
2, 2112, Note_on_c, 0, 63, 50
2, 2112, Note_on_c, 0, 75, 60
2, 2224, Note_on_c, 0, 75, 0
2, 2224, Note_on_c, 0, 63, 0
2, 2224, Note_on_c, 0, 64, 58
2, 2224, Note_on_c, 0, 76, 68
2, 2240, Note_on_c, 0, 76, 0
2, 2240, Note_on_c, 0, 64, 0
2, 2240, Note_on_c, 0, 66, 68
2, 2240, Note_on_c, 0, 78, 78
2, 2248, Note_on_c, 0, 78, 0
2, 2248, Note_on_c, 0, 66, 0
2, 2256, Note_on_c, 0, 66, 70
2, 2256, Note_on_c, 0, 78, 80
2, 2272, Note_on_c, 0, 78, 0
2, 2272, Note_on_c, 0, 66, 0
2, 2272, Note_on_c, 0, 67, 72
2, 2272, Note_on_c, 0, 79, 82
2, 2288, Note_on_c, 0, 79, 0
2, 2288, Note_on_c, 0, 67, 0
2, 2288, Note_on_c, 0, 69, 72
2, 2288, Note_on_c, 0, 81, 82
2, 2302, Note_on_c, 0, 81, 0
2, 2302, Note_on_c, 0, 69, 0
2, 2304, Note_on_c, 0, 71, 68
2, 2304, Note_on_c, 0, 83, 78
2, 2374, Note_on_c, 0, 83, 0
2, 2374, Note_on_c, 0, 71, 0
2, 2376, Note_on_c, 0, 69, 36
2, 2376, Note_on_c, 0, 71, 66
2, 2392, Note_on_c, 0, 71, 0
2, 2392, Note_on_c, 0, 69, 0
2, 2400, Note_on_c, 0, 69, 40
2, 2400, Note_on_c, 0, 71, 56
2, 2414, Note_on_c, 0, 69, 0
2, 2416, Note_on_c, 0, 68, 48
2, 2430, Note_on_c, 0, 68, 0
2, 2432, Note_on_c, 0, 67, 44
2, 2445, Note_on_c, 0, 71, 0
2, 2446, Note_on_c, 0, 67, 0
2, 2448, Note_on_c, 0, 67, 42
2, 2448, Note_on_c, 0, 71, 52
2, 2462, Note_on_c, 0, 71, 0
2, 2462, Note_on_c, 0, 67, 0
2, 2464, Note_on_c, 0, 66, 40
2, 2464, Note_on_c, 0, 69, 50
2, 2478, Note_on_c, 0, 69, 0
2, 2478, Note_on_c, 0, 66, 0
2, 2480, Note_on_c, 0, 64, 36
2, 2480, Note_on_c, 0, 67, 46
2, 2494, Note_on_c, 0, 67, 0
2, 2494, Note_on_c, 0, 64, 0
2, 2496, Note_on_c, 0, 63, 44
2, 2496, Note_on_c, 0, 66, 50
2, 2540, Note_on_c, 0, 66, 0
2, 2540, Note_on_c, 0, 63, 0
2, 2542, Note_on_c, 0, 64, 46
2, 2542, Note_on_c, 0, 67, 58
2, 2558, Note_on_c, 0, 64, 0
2, 2560, Note_on_c, 0, 76, 56
2, 2568, Note_on_c, 0, 76, 0
2, 2568, Note_on_c, 0, 67, 0
2, 2576, Note_on_c, 0, 67, 42
2, 2576, Note_on_c, 0, 76, 55
2, 2590, Note_on_c, 0, 76, 0
2, 2590, Note_on_c, 0, 67, 0
2, 2592, Note_on_c, 0, 66, 44
2, 2592, Note_on_c, 0, 75, 52
2, 2684, Note_on_c, 0, 75, 0
2, 2684, Note_on_c, 0, 66, 0
2, 2688, Note_on_c, 0, 66, 50
2, 2688, Note_on_c, 0, 74, 66
2, 2734, Note_on_c, 0, 66, 0
2, 2736, Note_on_c, 0, 67, 56
2, 2758, Note_on_c, 0, 67, 0
2, 2760, Note_on_c, 0, 65, 54
2, 2782, Note_on_c, 0, 65, 0
2, 2784, Note_on_c, 0, 64, 53
2, 2830, Note_on_c, 0, 74, 0
2, 2832, Note_on_c, 0, 72, 68
2, 2878, Note_on_c, 0, 64, 0
2, 2880, Note_on_c, 0, 65, 54
2, 2881, Note_on_c, 0, 72, 0
2, 2904, Note_on_c, 0, 71, 60
2, 2916, Note_on_c, 0, 71, 0
2, 2916, Note_on_c, 0, 69, 52
2, 2922, Note_on_c, 0, 69, 0
2, 2922, Note_on_c, 0, 71, 54
2, 2928, Note_on_c, 0, 71, 0
2, 2928, Note_on_c, 0, 69, 56
2, 2952, Note_on_c, 0, 69, 0
2, 2952, Note_on_c, 0, 67, 48
2, 2968, Note_on_c, 0, 67, 0
2, 2974, Note_on_c, 0, 65, 0
2, 2976, Note_on_c, 0, 64, 40
2, 2976, Note_on_c, 0, 67, 48
2, 3016, Note_on_c, 0, 67, 0
2, 3024, Note_on_c, 0, 67, 62
2, 3040, Note_on_c, 0, 67, 0
2, 3048, Note_on_c, 0, 67, 68
2, 3064, Note_on_c, 0, 67, 0
2, 3064, Note_on_c, 0, 64, 0
2, 3072, Note_on_c, 0, 64, 42
2, 3072, Note_on_c, 0, 67, 46
2, 3072, Note_on_c, 0, 69, 60
2, 3112, Note_on_c, 0, 69, 0
2, 3120, Note_on_c, 0, 69, 46
2, 3136, Note_on_c, 0, 69, 0
2, 3144, Note_on_c, 0, 69, 42
2, 3160, Note_on_c, 0, 69, 0
2, 3160, Note_on_c, 0, 67, 0
2, 3160, Note_on_c, 0, 64, 0
2, 3168, Note_on_c, 0, 65, 34
2, 3168, Note_on_c, 0, 69, 40
2, 3208, Note_on_c, 0, 69, 0
2, 3216, Note_on_c, 0, 69, 66
2, 3232, Note_on_c, 0, 69, 0
2, 3240, Note_on_c, 0, 69, 70
2, 3256, Note_on_c, 0, 69, 0
2, 3256, Note_on_c, 0, 65, 0
2, 3264, Note_on_c, 0, 66, 50
2, 3264, Note_on_c, 0, 69, 56
2, 3264, Note_on_c, 0, 71, 64
2, 3304, Note_on_c, 0, 71, 0
2, 3312, Note_on_c, 0, 71, 68
2, 3328, Note_on_c, 0, 71, 0
2, 3336, Note_on_c, 0, 71, 70
2, 3352, Note_on_c, 0, 71, 0
2, 3352, Note_on_c, 0, 69, 0
2, 3352, Note_on_c, 0, 66, 0
2, 3360, Note_on_c, 0, 67, 54
2, 3360, Note_on_c, 0, 71, 74
2, 3400, Note_on_c, 0, 71, 0
2, 3408, Note_on_c, 0, 71, 72
2, 3408, Note_on_c, 0, 73, 78
2, 3448, Note_on_c, 0, 73, 0
2, 3448, Note_on_c, 0, 71, 0
2, 3448, Note_on_c, 0, 67, 0
2, 3456, Note_on_c, 0, 66, 64
2, 3456, Note_on_c, 0, 71, 70
2, 3456, Note_on_c, 0, 74, 80
2, 3544, Note_on_c, 0, 74, 0
2, 3544, Note_on_c, 0, 71, 0
2, 3544, Note_on_c, 0, 66, 0
2, 3552, Note_on_c, 0, 71, 70
2, 3552, Note_on_c, 0, 73, 78
2, 3598, Note_on_c, 0, 71, 0
2, 3600, Note_on_c, 0, 70, 70
2, 3640, Note_on_c, 0, 73, 0
2, 3646, Note_on_c, 0, 70, 0
2, 3648, Note_on_c, 0, 69, 70
2, 3648, Note_on_c, 0, 75, 78
2, 3736, Note_on_c, 0, 75, 0
2, 3736, Note_on_c, 0, 69, 0
2, 3744, Note_on_c, 0, 67, 60
2, 3744, Note_on_c, 0, 76, 74
2, 3792, Note_on_c, 0, 76, 0
2, 3792, Note_on_c, 0, 71, 60
2, 3832, Note_on_c, 0, 67, 0
2, 3838, Note_on_c, 0, 71, 0
2, 3840, Note_on_c, 0, 67, 50
2, 3840, Note_on_c, 0, 70, 54
2, 3888, Note_on_c, 0, 67, 0
2, 3888, Note_on_c, 0, 66, 54
2, 3912, Note_on_c, 0, 66, 0
2, 3912, Note_on_c, 0, 64, 58
2, 3934, Note_on_c, 0, 64, 0
2, 3934, Note_on_c, 0, 70, 0
2, 3936, Note_on_c, 0, 62, 44
2, 3936, Note_on_c, 0, 71, 50
2, 4024, Note_on_c, 0, 71, 0
2, 4024, Note_on_c, 0, 62, 0
2, 4032, Note_on_c, 0, 61, 40
2, 4032, Note_on_c, 0, 71, 46
2, 4126, Note_on_c, 0, 71, 0
2, 4128, Note_on_c, 0, 70, 40
2, 4174, Note_on_c, 0, 61, 0
2, 4176, Note_on_c, 0, 64, 46
2, 4222, Note_on_c, 0, 64, 0
2, 4222, Note_on_c, 0, 70, 0
2, 4224, Note_on_c, 0, 63, 34
2, 4224, Note_on_c, 0, 71, 40
2, 4318, Note_on_c, 0, 71, 0
2, 4318, Note_on_c, 0, 63, 0
2, 4419, Note_on_c, 0, 71, 40
2, 4419, Note_on_c, 0, 75, 53
2, 4504, Note_on_c, 0, 75, 0
2, 4504, Note_on_c, 0, 71, 0
2, 4504, Note_on_c, 0, 69, 41
2, 4504, Note_on_c, 0, 73, 51
2, 4509, Note_on_c, 0, 73, 0
2, 4509, Note_on_c, 0, 69, 0
2, 4512, Note_on_c, 0, 69, 40
2, 4512, Note_on_c, 0, 73, 50
2, 4592, Note_on_c, 0, 73, 0
2, 4592, Note_on_c, 0, 69, 0
2, 4600, Note_on_c, 0, 68, 30
2, 4600, Note_on_c, 0, 71, 44
2, 4605, Note_on_c, 0, 71, 0
2, 4605, Note_on_c, 0, 68, 0
2, 4608, Note_on_c, 0, 68, 38
2, 4608, Note_on_c, 0, 71, 44
2, 4744, Note_on_c, 0, 71, 0
2, 4744, Note_on_c, 0, 68, 0
2, 4752, Note_on_c, 0, 69, 62
2, 4752, Note_on_c, 0, 72, 78
2, 4792, Note_on_c, 0, 72, 0
2, 4792, Note_on_c, 0, 69, 0
2, 4800, Note_on_c, 0, 70, 64
2, 4800, Note_on_c, 0, 73, 76
2, 4870, Note_on_c, 0, 73, 0
2, 4870, Note_on_c, 0, 70, 0
2, 4872, Note_on_c, 0, 71, 66
2, 4872, Note_on_c, 0, 75, 78
2, 4894, Note_on_c, 0, 75, 0
2, 4894, Note_on_c, 0, 71, 0
2, 4896, Note_on_c, 0, 73, 65
2, 4896, Note_on_c, 0, 76, 75
2, 4918, Note_on_c, 0, 76, 0
2, 4918, Note_on_c, 0, 73, 0
2, 4920, Note_on_c, 0, 75, 63
2, 4920, Note_on_c, 0, 78, 73
2, 4942, Note_on_c, 0, 78, 0
2, 4942, Note_on_c, 0, 75, 0
2, 4944, Note_on_c, 0, 70, 54
2, 4944, Note_on_c, 0, 76, 58
2, 4944, Note_on_c, 0, 79, 69
2, 4960, Note_on_c, 0, 79, 0
2, 4960, Note_on_c, 0, 76, 0
2, 4968, Note_on_c, 0, 76, 52
2, 4968, Note_on_c, 0, 79, 66
2, 4984, Note_on_c, 0, 79, 0
2, 4984, Note_on_c, 0, 76, 0
2, 4984, Note_on_c, 0, 70, 0
2, 4992, Note_on_c, 0, 71, 44
2, 4992, Note_on_c, 0, 76, 46
2, 4992, Note_on_c, 0, 79, 64
2, 5032, Note_on_c, 0, 79, 0
2, 5032, Note_on_c, 0, 76, 0
2, 5040, Note_on_c, 0, 75, 42
2, 5040, Note_on_c, 0, 78, 52
2, 5080, Note_on_c, 0, 71, 0
2, 5176, Note_on_c, 0, 78, 0
2, 5176, Note_on_c, 0, 75, 0
2, 5184, Note_on_c, 0, 63, 70
2, 5184, Note_on_c, 0, 71, 64
2, 5184, Note_on_c, 0, 75, 80
2, 5272, Note_on_c, 0, 75, 0
2, 5272, Note_on_c, 0, 71, 0
2, 5272, Note_on_c, 0, 63, 0
2, 5280, Note_on_c, 0, 63, 66
2, 5280, Note_on_c, 0, 69, 60
2, 5280, Note_on_c, 0, 73, 78
2, 5344, Note_on_c, 0, 73, 0
2, 5344, Note_on_c, 0, 69, 0
2, 5344, Note_on_c, 0, 63, 0
2, 5352, Note_on_c, 0, 63, 60
2, 5352, Note_on_c, 0, 69, 62
2, 5352, Note_on_c, 0, 71, 70
2, 5368, Note_on_c, 0, 71, 0
2, 5368, Note_on_c, 0, 69, 0
2, 5368, Note_on_c, 0, 63, 0
2, 5376, Note_on_c, 0, 64, 58
2, 5376, Note_on_c, 0, 68, 60
2, 5376, Note_on_c, 0, 73, 68
2, 5422, Note_on_c, 0, 73, 0
2, 5424, Note_on_c, 0, 71, 56
2, 5464, Note_on_c, 0, 68, 0
2, 5464, Note_on_c, 0, 64, 0
2, 5518, Note_on_c, 0, 71, 0
2, 5520, Note_on_c, 0, 71, 56
2, 5560, Note_on_c, 0, 71, 0
2, 5568, Note_on_c, 0, 64, 44
2, 5568, Note_on_c, 0, 67, 48
2, 5568, Note_on_c, 0, 70, 60
2, 5638, Note_on_c, 0, 67, 0
2, 5638, Note_on_c, 0, 64, 0
2, 5640, Note_on_c, 0, 63, 48
2, 5640, Note_on_c, 0, 66, 64
2, 5662, Note_on_c, 0, 66, 0
2, 5662, Note_on_c, 0, 63, 0
2, 5662, Note_on_c, 0, 70, 0
2, 5664, Note_on_c, 0, 64, 56
2, 5664, Note_on_c, 0, 67, 62
2, 5686, Note_on_c, 0, 67, 0
2, 5686, Note_on_c, 0, 64, 0
2, 5688, Note_on_c, 0, 63, 50
2, 5688, Note_on_c, 0, 66, 56
2, 5710, Note_on_c, 0, 66, 0
2, 5710, Note_on_c, 0, 63, 0
2, 5712, Note_on_c, 0, 64, 44
2, 5712, Note_on_c, 0, 67, 52
2, 5728, Note_on_c, 0, 67, 0
2, 5728, Note_on_c, 0, 64, 0
2, 5736, Note_on_c, 0, 64, 38
2, 5736, Note_on_c, 0, 67, 46
2, 5752, Note_on_c, 0, 67, 0
2, 5752, Note_on_c, 0, 64, 0
2, 5764, Note_on_c, 0, 64, 66
2, 5764, Note_on_c, 0, 66, 44
2, 5764, Note_on_c, 0, 69, 58
2, 5806, Note_on_c, 0, 64, 0
2, 5808, Note_on_c, 0, 63, 58
2, 5902, Note_on_c, 0, 63, 0
2, 5902, Note_on_c, 0, 69, 0
2, 5902, Note_on_c, 0, 66, 0
2, 5942, Note_on_c, 0, 71, 66
2, 5945, Note_on_c, 0, 71, 0
2, 5947, Note_on_c, 0, 71, 64
2, 5950, Note_on_c, 0, 71, 0
2, 5956, Note_on_c, 0, 79, 84
2, 6100, Note_on_c, 0, 79, 0
2, 6100, Note_on_c, 0, 71, 62
2, 6104, Note_on_c, 0, 71, 0
2, 6104, Note_on_c, 0, 72, 66
2, 6108, Note_on_c, 0, 72, 0
2, 6108, Note_on_c, 0, 71, 62
2, 6118, Note_on_c, 0, 71, 0
2, 6118, Note_on_c, 0, 70, 66
2, 6126, Note_on_c, 0, 70, 0
2, 6126, Note_on_c, 0, 71, 70
2, 6134, Note_on_c, 0, 71, 0
2, 6134, Note_on_c, 0, 76, 74
2, 6142, Note_on_c, 0, 76, 0
2, 6144, Note_on_c, 0, 75, 80
2, 6268, Note_on_c, 0, 75, 0
2, 6270, Note_on_c, 0, 76, 78
2, 6276, Note_on_c, 0, 76, 0
2, 6276, Note_on_c, 0, 78, 74
2, 6282, Note_on_c, 0, 78, 0
2, 6282, Note_on_c, 0, 76, 72
2, 6285, Note_on_c, 0, 76, 0
2, 6285, Note_on_c, 0, 78, 74
2, 6288, Note_on_c, 0, 78, 0
2, 6288, Note_on_c, 0, 76, 72
2, 6296, Note_on_c, 0, 76, 0
2, 6296, Note_on_c, 0, 75, 72
2, 6304, Note_on_c, 0, 75, 0
2, 6304, Note_on_c, 0, 76, 82
2, 6312, Note_on_c, 0, 76, 0
2, 6312, Note_on_c, 0, 78, 88
2, 6320, Note_on_c, 0, 78, 0
2, 6320, Note_on_c, 0, 79, 90
2, 6328, Note_on_c, 0, 79, 0
2, 6328, Note_on_c, 0, 81, 92
2, 6334, Note_on_c, 0, 81, 0
2, 6336, Note_on_c, 0, 83, 90
2, 6474, Note_on_c, 0, 83, 0
2, 6474, Note_on_c, 0, 83, 74
2, 6477, Note_on_c, 0, 83, 0
2, 6477, Note_on_c, 0, 84, 72
2, 6480, Note_on_c, 0, 84, 0
2, 6480, Note_on_c, 0, 83, 70
2, 6488, Note_on_c, 0, 83, 0
2, 6488, Note_on_c, 0, 85, 74
2, 6496, Note_on_c, 0, 85, 0
2, 6496, Note_on_c, 0, 87, 76
2, 6504, Note_on_c, 0, 87, 0
2, 6504, Note_on_c, 0, 88, 80
2, 6512, Note_on_c, 0, 88, 0
2, 6512, Note_on_c, 0, 90, 84
2, 6520, Note_on_c, 0, 90, 0
2, 6520, Note_on_c, 0, 91, 84
2, 6523, Note_on_c, 0, 91, 0
2, 6524, Note_on_c, 0, 75, 64
2, 6527, Note_on_c, 0, 75, 0
2, 6528, Note_on_c, 0, 90, 80
2, 6580, Note_on_c, 0, 90, 0
2, 6582, Note_on_c, 0, 88, 74
2, 6587, Note_on_c, 0, 88, 0
2, 6587, Note_on_c, 0, 85, 70
2, 6592, Note_on_c, 0, 85, 0
2, 6592, Note_on_c, 0, 82, 66
2, 6597, Note_on_c, 0, 82, 0
2, 6597, Note_on_c, 0, 79, 60
2, 6602, Note_on_c, 0, 79, 0
2, 6602, Note_on_c, 0, 76, 59
2, 6607, Note_on_c, 0, 76, 0
2, 6607, Note_on_c, 0, 73, 58
2, 6612, Note_on_c, 0, 73, 0
2, 6612, Note_on_c, 0, 70, 54
2, 6618, Note_on_c, 0, 70, 0
2, 6618, Note_on_c, 0, 64, 50
2, 6622, Note_on_c, 0, 64, 0
2, 6624, Note_on_c, 0, 63, 40
2, 6624, Note_on_c, 0, 71, 50
2, 6670, Note_on_c, 0, 71, 0
2, 6670, Note_on_c, 0, 63, 0
2, 6720, Note_on_c, 0, 62, 50
2, 6756, Note_on_c, 0, 62, 0
2, 6756, Note_on_c, 0, 64, 38
2, 6758, Note_on_c, 0, 64, 0
2, 6759, Note_on_c, 0, 66, 42
2, 6761, Note_on_c, 0, 66, 0
2, 6762, Note_on_c, 0, 67, 40
2, 6764, Note_on_c, 0, 67, 0
2, 6765, Note_on_c, 0, 69, 37
2, 6767, Note_on_c, 0, 69, 0
2, 6768, Note_on_c, 0, 71, 36
2, 6776, Note_on_c, 0, 71, 0
2, 6784, Note_on_c, 0, 71, 38
2, 6792, Note_on_c, 0, 71, 0
2, 6800, Note_on_c, 0, 71, 38
2, 6808, Note_on_c, 0, 71, 0
2, 6816, Note_on_c, 0, 71, 36
2, 6858, Note_on_c, 0, 71, 0
2, 6858, Note_on_c, 0, 70, 40
2, 6861, Note_on_c, 0, 70, 0
2, 6861, Note_on_c, 0, 71, 44
2, 6864, Note_on_c, 0, 71, 0
2, 6864, Note_on_c, 0, 70, 42
2, 6869, Note_on_c, 0, 70, 0
2, 6869, Note_on_c, 0, 68, 40
2, 6872, Note_on_c, 0, 68, 0
2, 6874, Note_on_c, 0, 70, 42
2, 6877, Note_on_c, 0, 70, 0
2, 6879, Note_on_c, 0, 71, 44
2, 6882, Note_on_c, 0, 71, 0
2, 6884, Note_on_c, 0, 73, 46
2, 6886, Note_on_c, 0, 73, 0
2, 6888, Note_on_c, 0, 74, 48
2, 6890, Note_on_c, 0, 74, 0
2, 6892, Note_on_c, 0, 76, 50
2, 6895, Note_on_c, 0, 76, 0
2, 6897, Note_on_c, 0, 78, 48
2, 6900, Note_on_c, 0, 78, 0
2, 6902, Note_on_c, 0, 80, 45
2, 6905, Note_on_c, 0, 80, 0
2, 6907, Note_on_c, 0, 82, 42
2, 6910, Note_on_c, 0, 82, 0
2, 6912, Note_on_c, 0, 83, 44
2, 7000, Note_on_c, 0, 83, 0
2, 7008, Note_on_c, 0, 83, 52
2, 7016, Note_on_c, 0, 85, 40
2, 7017, Note_on_c, 0, 83, 0
2, 7020, Note_on_c, 0, 83, 46
2, 7021, Note_on_c, 0, 85, 0
2, 7024, Note_on_c, 0, 85, 44
2, 7025, Note_on_c, 0, 83, 0
2, 7028, Note_on_c, 0, 83, 49
2, 7029, Note_on_c, 0, 85, 0
2, 7031, Note_on_c, 0, 85, 46
2, 7032, Note_on_c, 0, 83, 0
2, 7034, Note_on_c, 0, 83, 50
2, 7035, Note_on_c, 0, 85, 0
2, 7037, Note_on_c, 0, 85, 47
2, 7038, Note_on_c, 0, 83, 0
2, 7040, Note_on_c, 0, 83, 51
2, 7041, Note_on_c, 0, 85, 0
2, 7043, Note_on_c, 0, 85, 47
2, 7044, Note_on_c, 0, 83, 0
2, 7046, Note_on_c, 0, 83, 52
2, 7047, Note_on_c, 0, 85, 0
2, 7049, Note_on_c, 0, 85, 48
2, 7050, Note_on_c, 0, 83, 0
2, 7052, Note_on_c, 0, 83, 52
2, 7053, Note_on_c, 0, 85, 0
2, 7055, Note_on_c, 0, 85, 48
2, 7056, Note_on_c, 0, 83, 0
2, 7058, Note_on_c, 0, 83, 51
2, 7059, Note_on_c, 0, 85, 0
2, 7061, Note_on_c, 0, 85, 47
2, 7062, Note_on_c, 0, 83, 0
2, 7064, Note_on_c, 0, 83, 50
2, 7065, Note_on_c, 0, 85, 0
2, 7067, Note_on_c, 0, 85, 46
2, 7068, Note_on_c, 0, 83, 0
2, 7070, Note_on_c, 0, 83, 50
2, 7071, Note_on_c, 0, 85, 0
2, 7073, Note_on_c, 0, 85, 45
2, 7074, Note_on_c, 0, 83, 0
2, 7076, Note_on_c, 0, 83, 49
2, 7077, Note_on_c, 0, 85, 0
2, 7079, Note_on_c, 0, 85, 45
2, 7080, Note_on_c, 0, 83, 0
2, 7082, Note_on_c, 0, 83, 48
2, 7083, Note_on_c, 0, 85, 0
2, 7085, Note_on_c, 0, 85, 44
2, 7086, Note_on_c, 0, 83, 0
2, 7088, Note_on_c, 0, 83, 49
2, 7089, Note_on_c, 0, 85, 0
2, 7091, Note_on_c, 0, 82, 53
2, 7092, Note_on_c, 0, 83, 0
2, 7094, Note_on_c, 0, 83, 51
2, 7095, Note_on_c, 0, 82, 0
2, 7097, Note_on_c, 0, 85, 55
2, 7098, Note_on_c, 0, 83, 0
2, 7100, Note_on_c, 0, 86, 52
2, 7101, Note_on_c, 0, 85, 0
2, 7103, Note_on_c, 0, 86, 0
2, 7104, Note_on_c, 0, 83, 70
2, 7104, Note_on_c, 0, 85, 66
2, 7108, Note_on_c, 0, 86, 50
2, 7109, Note_on_c, 0, 85, 0
2, 7111, Note_on_c, 0, 85, 50
2, 7112, Note_on_c, 0, 86, 0
2, 7114, Note_on_c, 0, 86, 48
2, 7115, Note_on_c, 0, 85, 0
2, 7117, Note_on_c, 0, 85, 52
2, 7118, Note_on_c, 0, 86, 0
2, 7120, Note_on_c, 0, 86, 48
2, 7121, Note_on_c, 0, 85, 0
2, 7123, Note_on_c, 0, 85, 52
2, 7124, Note_on_c, 0, 86, 0
2, 7126, Note_on_c, 0, 86, 48
2, 7127, Note_on_c, 0, 85, 0
2, 7129, Note_on_c, 0, 85, 52
2, 7130, Note_on_c, 0, 86, 0
2, 7132, Note_on_c, 0, 86, 48
2, 7133, Note_on_c, 0, 85, 0
2, 7135, Note_on_c, 0, 85, 52
2, 7136, Note_on_c, 0, 86, 0
2, 7138, Note_on_c, 0, 86, 48
2, 7139, Note_on_c, 0, 85, 0
2, 7141, Note_on_c, 0, 85, 52
2, 7142, Note_on_c, 0, 86, 0
2, 7144, Note_on_c, 0, 86, 48
2, 7145, Note_on_c, 0, 85, 0
2, 7147, Note_on_c, 0, 85, 52
2, 7148, Note_on_c, 0, 86, 0
2, 7150, Note_on_c, 0, 86, 48
2, 7151, Note_on_c, 0, 85, 0
2, 7153, Note_on_c, 0, 85, 52
2, 7154, Note_on_c, 0, 86, 0
2, 7156, Note_on_c, 0, 86, 48
2, 7157, Note_on_c, 0, 85, 0
2, 7159, Note_on_c, 0, 85, 52
2, 7160, Note_on_c, 0, 86, 0
2, 7162, Note_on_c, 0, 86, 48
2, 7163, Note_on_c, 0, 85, 0
2, 7165, Note_on_c, 0, 85, 52
2, 7166, Note_on_c, 0, 86, 0
2, 7168, Note_on_c, 0, 86, 48
2, 7169, Note_on_c, 0, 85, 0
2, 7171, Note_on_c, 0, 85, 52
2, 7172, Note_on_c, 0, 86, 0
2, 7174, Note_on_c, 0, 86, 48
2, 7175, Note_on_c, 0, 85, 0
2, 7177, Note_on_c, 0, 85, 52
2, 7178, Note_on_c, 0, 86, 0
2, 7180, Note_on_c, 0, 86, 50
2, 7181, Note_on_c, 0, 85, 0
2, 7183, Note_on_c, 0, 85, 56
2, 7184, Note_on_c, 0, 86, 0
2, 7186, Note_on_c, 0, 86, 64
2, 7187, Note_on_c, 0, 85, 0
2, 7189, Note_on_c, 0, 85, 68
2, 7190, Note_on_c, 0, 86, 0
2, 7193, Note_on_c, 0, 86, 68
2, 7194, Note_on_c, 0, 85, 0
2, 7198, Note_on_c, 0, 86, 0
2, 7198, Note_on_c, 0, 83, 0
2, 7200, Note_on_c, 0, 82, 70
2, 7200, Note_on_c, 0, 85, 70
2, 7203, Note_on_c, 0, 86, 62
2, 7204, Note_on_c, 0, 85, 0
2, 7206, Note_on_c, 0, 85, 64
2, 7207, Note_on_c, 0, 86, 0
2, 7209, Note_on_c, 0, 86, 58
2, 7210, Note_on_c, 0, 85, 0
2, 7212, Note_on_c, 0, 85, 60
2, 7213, Note_on_c, 0, 86, 0
2, 7215, Note_on_c, 0, 86, 56
2, 7216, Note_on_c, 0, 85, 0
2, 7218, Note_on_c, 0, 85, 60
2, 7219, Note_on_c, 0, 86, 0
2, 7221, Note_on_c, 0, 86, 56
2, 7222, Note_on_c, 0, 85, 0
2, 7224, Note_on_c, 0, 85, 60
2, 7225, Note_on_c, 0, 86, 0
2, 7227, Note_on_c, 0, 86, 56
2, 7228, Note_on_c, 0, 85, 0
2, 7230, Note_on_c, 0, 85, 60
2, 7231, Note_on_c, 0, 86, 0
2, 7233, Note_on_c, 0, 86, 56
2, 7234, Note_on_c, 0, 85, 0
2, 7236, Note_on_c, 0, 85, 60
2, 7237, Note_on_c, 0, 86, 0
2, 7239, Note_on_c, 0, 86, 56
2, 7240, Note_on_c, 0, 85, 0
2, 7242, Note_on_c, 0, 85, 60
2, 7243, Note_on_c, 0, 86, 0
2, 7245, Note_on_c, 0, 86, 56
2, 7246, Note_on_c, 0, 85, 0
2, 7248, Note_on_c, 0, 85, 60
2, 7249, Note_on_c, 0, 86, 0
2, 7251, Note_on_c, 0, 86, 56
2, 7252, Note_on_c, 0, 85, 0
2, 7254, Note_on_c, 0, 85, 60
2, 7255, Note_on_c, 0, 86, 0
2, 7257, Note_on_c, 0, 86, 56
2, 7258, Note_on_c, 0, 85, 0
2, 7260, Note_on_c, 0, 85, 60
2, 7261, Note_on_c, 0, 86, 0
2, 7263, Note_on_c, 0, 86, 56
2, 7264, Note_on_c, 0, 85, 0
2, 7266, Note_on_c, 0, 85, 60
2, 7267, Note_on_c, 0, 86, 0
2, 7269, Note_on_c, 0, 84, 68
2, 7270, Note_on_c, 0, 85, 0
2, 7272, Note_on_c, 0, 84, 0
2, 7272, Note_on_c, 0, 85, 66
2, 7274, Note_on_c, 0, 85, 0
2, 7274, Note_on_c, 0, 86, 58
2, 7276, Note_on_c, 0, 86, 0
2, 7276, Note_on_c, 0, 87, 62
2, 7278, Note_on_c, 0, 87, 0
2, 7278, Note_on_c, 0, 88, 66
2, 7280, Note_on_c, 0, 88, 0
2, 7280, Note_on_c, 0, 89, 68
2, 7282, Note_on_c, 0, 89, 0
2, 7282, Note_on_c, 0, 90, 69
2, 7284, Note_on_c, 0, 90, 0
2, 7284, Note_on_c, 0, 91, 69
2, 7287, Note_on_c, 0, 91, 0
2, 7287, Note_on_c, 0, 92, 68
2, 7290, Note_on_c, 0, 92, 0
2, 7290, Note_on_c, 0, 93, 66
2, 7293, Note_on_c, 0, 93, 0
2, 7293, Note_on_c, 0, 94, 64
2, 7294, Note_on_c, 0, 82, 0
2, 7296, Note_on_c, 0, 94, 0
2, 7296, Note_on_c, 0, 83, 64
2, 7296, Note_on_c, 0, 95, 70
2, 7336, Note_on_c, 0, 95, 0
2, 7336, Note_on_c, 0, 83, 0
2, 7348, Note_on_c, 0, 63, 64
2, 7392, Note_on_c, 0, 63, 0
2, 7392, Note_on_c, 0, 64, 77
2, 7440, Note_on_c, 0, 64, 0
2, 7444, Note_on_c, 0, 66, 80
2, 7488, Note_on_c, 0, 66, 0
2, 7488, Note_on_c, 0, 67, 70
2, 7488, Note_on_c, 0, 79, 80
2, 7624, Note_on_c, 0, 79, 0
2, 7624, Note_on_c, 0, 67, 0
2, 7632, Note_on_c, 0, 66, 72
2, 7632, Note_on_c, 0, 78, 82
2, 7648, Note_on_c, 0, 78, 0
2, 7648, Note_on_c, 0, 66, 0
2, 7656, Note_on_c, 0, 64, 62
2, 7656, Note_on_c, 0, 76, 72
2, 7672, Note_on_c, 0, 76, 0
2, 7672, Note_on_c, 0, 64, 0
2, 7680, Note_on_c, 0, 63, 66
2, 7680, Note_on_c, 0, 75, 76
2, 7784, Note_on_c, 0, 75, 0
2, 7784, Note_on_c, 0, 63, 0
2, 7792, Note_on_c, 0, 64, 64
2, 7792, Note_on_c, 0, 76, 74
2, 7800, Note_on_c, 0, 76, 0
2, 7800, Note_on_c, 0, 64, 0
2, 7808, Note_on_c, 0, 66, 72
2, 7808, Note_on_c, 0, 78, 82
2, 7816, Note_on_c, 0, 78, 0
2, 7816, Note_on_c, 0, 66, 0
2, 7824, Note_on_c, 0, 67, 71
2, 7824, Note_on_c, 0, 79, 81
2, 7832, Note_on_c, 0, 79, 0
2, 7832, Note_on_c, 0, 67, 0
2, 7840, Note_on_c, 0, 69, 76
2, 7840, Note_on_c, 0, 81, 86
2, 7848, Note_on_c, 0, 81, 0
2, 7848, Note_on_c, 0, 69, 0
2, 7864, Note_on_c, 0, 71, 78
2, 7864, Note_on_c, 0, 83, 88
2, 7868, Note_on_c, 0, 83, 0
2, 7868, Note_on_c, 0, 71, 0
2, 7872, Note_on_c, 0, 71, 78
2, 7872, Note_on_c, 0, 83, 88
2, 7880, Note_on_c, 0, 83, 0
2, 7880, Note_on_c, 0, 71, 0
2, 7888, Note_on_c, 0, 71, 72
2, 7888, Note_on_c, 0, 83, 82
2, 7896, Note_on_c, 0, 83, 0
2, 7896, Note_on_c, 0, 71, 0
2, 7904, Note_on_c, 0, 71, 68
2, 7904, Note_on_c, 0, 83, 78
2, 7912, Note_on_c, 0, 83, 0
2, 7912, Note_on_c, 0, 71, 0
2, 7920, Note_on_c, 0, 71, 70
2, 7920, Note_on_c, 0, 83, 80
2, 7928, Note_on_c, 0, 83, 0
2, 7928, Note_on_c, 0, 71, 0
2, 7936, Note_on_c, 0, 71, 78
2, 7944, Note_on_c, 0, 71, 0
2, 7952, Note_on_c, 0, 69, 70
2, 7952, Note_on_c, 0, 71, 76
2, 7960, Note_on_c, 0, 71, 0
2, 7960, Note_on_c, 0, 69, 0
2, 7968, Note_on_c, 0, 69, 70
2, 7968, Note_on_c, 0, 71, 76
2, 7976, Note_on_c, 0, 71, 0
2, 7976, Note_on_c, 0, 69, 0
2, 7984, Note_on_c, 0, 68, 68
2, 7984, Note_on_c, 0, 71, 58
2, 7992, Note_on_c, 0, 71, 0
2, 7992, Note_on_c, 0, 68, 0
2, 8000, Note_on_c, 0, 67, 66
2, 8000, Note_on_c, 0, 71, 56
2, 8008, Note_on_c, 0, 71, 0
2, 8008, Note_on_c, 0, 67, 0
2, 8016, Note_on_c, 0, 67, 56
2, 8016, Note_on_c, 0, 71, 66
2, 8032, Note_on_c, 0, 66, 50
2, 8032, Note_on_c, 0, 69, 60
2, 8033, Note_on_c, 0, 71, 0
2, 8033, Note_on_c, 0, 67, 0
2, 8048, Note_on_c, 0, 64, 52
2, 8048, Note_on_c, 0, 67, 62
2, 8049, Note_on_c, 0, 69, 0
2, 8049, Note_on_c, 0, 66, 0
2, 8062, Note_on_c, 0, 67, 0
2, 8062, Note_on_c, 0, 64, 0
2, 8064, Note_on_c, 0, 63, 58
2, 8064, Note_on_c, 0, 66, 64
2, 8104, Note_on_c, 0, 66, 0
2, 8104, Note_on_c, 0, 63, 0
2, 8112, Note_on_c, 0, 64, 44
2, 8112, Note_on_c, 0, 67, 54
2, 8128, Note_on_c, 0, 64, 0
2, 8128, Note_on_c, 0, 76, 58
2, 8136, Note_on_c, 0, 76, 0
2, 8136, Note_on_c, 0, 67, 0
2, 8144, Note_on_c, 0, 67, 40
2, 8144, Note_on_c, 0, 76, 52
2, 8152, Note_on_c, 0, 76, 0
2, 8152, Note_on_c, 0, 67, 0
2, 8160, Note_on_c, 0, 66, 40
2, 8160, Note_on_c, 0, 75, 50
2, 8248, Note_on_c, 0, 75, 0
2, 8248, Note_on_c, 0, 66, 0
2, 8256, Note_on_c, 0, 66, 54
2, 8256, Note_on_c, 0, 69, 56
2, 8256, Note_on_c, 0, 75, 64
2, 8398, Note_on_c, 0, 75, 0
2, 8400, Note_on_c, 0, 75, 68
2, 8440, Note_on_c, 0, 69, 0
2, 8440, Note_on_c, 0, 66, 0
2, 8444, Note_on_c, 0, 75, 0
2, 8448, Note_on_c, 0, 64, 56
2, 8448, Note_on_c, 0, 67, 58
2, 8448, Note_on_c, 0, 76, 64
2, 8536, Note_on_c, 0, 76, 0
2, 8536, Note_on_c, 0, 67, 0
2, 8536, Note_on_c, 0, 64, 0
2, 8546, Note_on_c, 0, 64, 50
2, 8546, Note_on_c, 0, 67, 52
2, 8546, Note_on_c, 0, 76, 72
2, 8586, Note_on_c, 0, 76, 0
2, 8594, Note_on_c, 0, 76, 76
2, 8634, Note_on_c, 0, 76, 0
2, 8634, Note_on_c, 0, 67, 0
2, 8634, Note_on_c, 0, 64, 0
2, 8640, Note_on_c, 0, 67, 52
2, 8640, Note_on_c, 0, 71, 56
2, 8640, Note_on_c, 0, 79, 80
2, 8712, Note_on_c, 0, 79, 0
2, 8712, Note_on_c, 0, 78, 58
2, 8724, Note_on_c, 0, 78, 0
2, 8724, Note_on_c, 0, 76, 52
2, 8728, Note_on_c, 0, 71, 0
2, 8728, Note_on_c, 0, 67, 0
2, 8732, Note_on_c, 0, 76, 0
2, 8738, Note_on_c, 0, 66, 34
2, 8738, Note_on_c, 0, 69, 36
2, 8738, Note_on_c, 0, 71, 38
2, 8738, Note_on_c, 0, 76, 54
2, 8782, Note_on_c, 0, 76, 0
2, 8784, Note_on_c, 0, 75, 48
2, 8826, Note_on_c, 0, 69, 0
2, 8826, Note_on_c, 0, 66, 0
2, 8830, Note_on_c, 0, 75, 0
2, 8833, Note_on_c, 0, 68, 30
2, 8833, Note_on_c, 0, 76, 44
2, 8974, Note_on_c, 0, 76, 0
2, 8974, Note_on_c, 0, 71, 0
2, 8974, Note_on_c, 0, 68, 0
2, 9028, Note_on_c, 0, 76, 50
2, 9028, Note_on_c, 0, 80, 70
2, 9118, Note_on_c, 0, 80, 0
2, 9118, Note_on_c, 0, 76, 0
2, 9120, Note_on_c, 0, 74, 42
2, 9120, Note_on_c, 0, 78, 52
2, 9204, Note_on_c, 0, 78, 0
2, 9204, Note_on_c, 0, 74, 0
2, 9204, Note_on_c, 0, 73, 32
2, 9204, Note_on_c, 0, 76, 46
2, 9212, Note_on_c, 0, 76, 0
2, 9212, Note_on_c, 0, 73, 0
2, 9216, Note_on_c, 0, 73, 30
2, 9216, Note_on_c, 0, 76, 44
2, 9358, Note_on_c, 0, 76, 0
2, 9358, Note_on_c, 0, 73, 0
2, 9360, Note_on_c, 0, 74, 46
2, 9360, Note_on_c, 0, 77, 56
2, 9406, Note_on_c, 0, 77, 0
2, 9406, Note_on_c, 0, 74, 0
2, 9408, Note_on_c, 0, 75, 54
2, 9408, Note_on_c, 0, 78, 66
2, 9478, Note_on_c, 0, 78, 0
2, 9478, Note_on_c, 0, 75, 0
2, 9480, Note_on_c, 0, 76, 60
2, 9480, Note_on_c, 0, 80, 72
2, 9502, Note_on_c, 0, 80, 0
2, 9502, Note_on_c, 0, 76, 0
2, 9504, Note_on_c, 0, 78, 58
2, 9504, Note_on_c, 0, 81, 70
2, 9526, Note_on_c, 0, 81, 0
2, 9526, Note_on_c, 0, 78, 0
2, 9528, Note_on_c, 0, 80, 58
2, 9528, Note_on_c, 0, 83, 70
2, 9550, Note_on_c, 0, 83, 0
2, 9550, Note_on_c, 0, 80, 0
2, 9552, Note_on_c, 0, 75, 40
2, 9552, Note_on_c, 0, 81, 48
2, 9552, Note_on_c, 0, 84, 58
2, 9568, Note_on_c, 0, 84, 0
2, 9568, Note_on_c, 0, 81, 0
2, 9576, Note_on_c, 0, 81, 42
2, 9576, Note_on_c, 0, 84, 52
2, 9592, Note_on_c, 0, 84, 0
2, 9592, Note_on_c, 0, 81, 0
2, 9592, Note_on_c, 0, 75, 0
2, 9600, Note_on_c, 0, 76, 40
2, 9600, Note_on_c, 0, 81, 44
2, 9600, Note_on_c, 0, 84, 54
2, 9646, Note_on_c, 0, 84, 0
2, 9646, Note_on_c, 0, 81, 0
2, 9648, Note_on_c, 0, 80, 40
2, 9648, Note_on_c, 0, 83, 50
2, 9694, Note_on_c, 0, 83, 0
2, 9694, Note_on_c, 0, 80, 0
2, 9694, Note_on_c, 0, 76, 0
2, 9793, Note_on_c, 0, 76, 42
2, 9793, Note_on_c, 0, 80, 66
2, 9840, Note_on_c, 0, 68, 50
2, 9848, Note_on_c, 0, 80, 0
2, 9848, Note_on_c, 0, 76, 0
2, 9856, Note_on_c, 0, 76, 43
2, 9856, Note_on_c, 0, 80, 55
2, 9864, Note_on_c, 0, 80, 0
2, 9864, Note_on_c, 0, 76, 0
2, 9872, Note_on_c, 0, 76, 42
2, 9872, Note_on_c, 0, 80, 55
2, 9880, Note_on_c, 0, 80, 0
2, 9880, Note_on_c, 0, 76, 0
2, 9888, Note_on_c, 0, 74, 40
2, 9888, Note_on_c, 0, 80, 58
2, 9910, Note_on_c, 0, 80, 0
2, 9912, Note_on_c, 0, 78, 46
2, 9934, Note_on_c, 0, 68, 0
2, 9936, Note_on_c, 0, 68, 46
2, 9944, Note_on_c, 0, 78, 0
2, 9944, Note_on_c, 0, 74, 0
2, 9952, Note_on_c, 0, 74, 36
2, 9952, Note_on_c, 0, 78, 42
2, 9960, Note_on_c, 0, 78, 0
2, 9960, Note_on_c, 0, 74, 0
2, 9968, Note_on_c, 0, 74, 34
2, 9968, Note_on_c, 0, 78, 40
2, 9976, Note_on_c, 0, 78, 0
2, 9976, Note_on_c, 0, 74, 0
2, 9982, Note_on_c, 0, 68, 0
2, 9984, Note_on_c, 0, 78, 43
2, 9985, Note_on_c, 0, 69, 34
2, 9985, Note_on_c, 0, 73, 38
2, 10026, Note_on_c, 0, 78, 0
2, 10030, Note_on_c, 0, 76, 41
2, 10077, Note_on_c, 0, 76, 0
2, 10080, Note_on_c, 0, 73, 0
2, 10080, Note_on_c, 0, 69, 0
2, 10176, Note_on_c, 0, 69, 40
2, 10176, Note_on_c, 0, 72, 42
2, 10176, Note_on_c, 0, 75, 50
2, 10240, Note_on_c, 0, 72, 0
2, 10240, Note_on_c, 0, 69, 0
2, 10248, Note_on_c, 0, 68, 40
2, 10248, Note_on_c, 0, 71, 48
2, 10270, Note_on_c, 0, 71, 0
2, 10270, Note_on_c, 0, 68, 0
2, 10272, Note_on_c, 0, 69, 42
2, 10272, Note_on_c, 0, 72, 50
2, 10294, Note_on_c, 0, 72, 0
2, 10294, Note_on_c, 0, 69, 0
2, 10296, Note_on_c, 0, 68, 40
2, 10296, Note_on_c, 0, 71, 48
2, 10318, Note_on_c, 0, 71, 0
2, 10318, Note_on_c, 0, 68, 0
2, 10320, Note_on_c, 0, 69, 34
2, 10320, Note_on_c, 0, 72, 42
2, 10336, Note_on_c, 0, 72, 0
2, 10336, Note_on_c, 0, 69, 0
2, 10344, Note_on_c, 0, 69, 34
2, 10344, Note_on_c, 0, 72, 38
2, 10360, Note_on_c, 0, 72, 0
2, 10360, Note_on_c, 0, 69, 0
2, 10366, Note_on_c, 0, 75, 0
2, 10368, Note_on_c, 0, 68, 32
2, 10368, Note_on_c, 0, 71, 34
2, 10368, Note_on_c, 0, 76, 42
2, 10510, Note_on_c, 0, 76, 0
2, 10510, Note_on_c, 0, 71, 0
2, 10510, Note_on_c, 0, 68, 0
2, 10560, Note_on_c, 0, 63, 38
2, 10560, Note_on_c, 0, 66, 42
2, 10560, Note_on_c, 0, 69, 52
2, 10750, Note_on_c, 0, 69, 0
2, 10750, Note_on_c, 0, 66, 0
2, 10750, Note_on_c, 0, 63, 0
2, 10752, Note_on_c, 0, 64, 34
2, 10752, Note_on_c, 0, 68, 44
2, 10798, Note_on_c, 0, 68, 0
2, 10798, Note_on_c, 0, 64, 0
2, 10992, Note_on_c, 0, 40, 39
2, 11134, Note_on_c, 0, 40, 0
2, 11184, End_track
3, 0, Start_track
3, 0, Title_t, "LEFT HAND"
3, 0, MIDI_port, 0
3, 192, Note_on_c, 0, 40, 37
3, 208, Note_on_c, 0, 40, 0
3, 208, Note_on_c, 0, 47, 30
3, 224, Note_on_c, 0, 47, 0
3, 224, Note_on_c, 0, 55, 36
3, 240, Note_on_c, 0, 55, 0
3, 240, Note_on_c, 0, 52, 34
3, 256, Note_on_c, 0, 52, 0
3, 256, Note_on_c, 0, 60, 39
3, 272, Note_on_c, 0, 60, 0
3, 272, Note_on_c, 0, 59, 36
3, 280, Note_on_c, 0, 59, 0
3, 288, Note_on_c, 0, 40, 44
3, 304, Note_on_c, 0, 40, 0
3, 304, Note_on_c, 0, 47, 34
3, 320, Note_on_c, 0, 47, 0
3, 320, Note_on_c, 0, 55, 33
3, 336, Note_on_c, 0, 55, 0
3, 336, Note_on_c, 0, 52, 30
3, 352, Note_on_c, 0, 52, 0
3, 352, Note_on_c, 0, 60, 31
3, 368, Note_on_c, 0, 60, 0
3, 368, Note_on_c, 0, 59, 30
3, 376, Note_on_c, 0, 59, 0
3, 384, Note_on_c, 0, 40, 36
3, 400, Note_on_c, 0, 40, 0
3, 400, Note_on_c, 0, 47, 32
3, 416, Note_on_c, 0, 47, 0
3, 416, Note_on_c, 0, 55, 36
3, 432, Note_on_c, 0, 55, 0
3, 432, Note_on_c, 0, 52, 34
3, 448, Note_on_c, 0, 52, 0
3, 448, Note_on_c, 0, 60, 37
3, 464, Note_on_c, 0, 60, 0
3, 464, Note_on_c, 0, 59, 36
3, 472, Note_on_c, 0, 59, 0
3, 480, Note_on_c, 0, 40, 36
3, 496, Note_on_c, 0, 40, 0
3, 496, Note_on_c, 0, 47, 34
3, 512, Note_on_c, 0, 47, 0
3, 512, Note_on_c, 0, 55, 37
3, 528, Note_on_c, 0, 55, 0
3, 528, Note_on_c, 0, 52, 34
3, 544, Note_on_c, 0, 52, 0
3, 544, Note_on_c, 0, 60, 36
3, 560, Note_on_c, 0, 60, 0
3, 560, Note_on_c, 0, 59, 34
3, 568, Note_on_c, 0, 59, 0
3, 576, Note_on_c, 0, 42, 32
3, 592, Note_on_c, 0, 42, 0
3, 592, Note_on_c, 0, 47, 30
3, 608, Note_on_c, 0, 47, 0
3, 608, Note_on_c, 0, 57, 34
3, 624, Note_on_c, 0, 57, 0
3, 624, Note_on_c, 0, 54, 36
3, 640, Note_on_c, 0, 54, 0
3, 640, Note_on_c, 0, 60, 40
3, 656, Note_on_c, 0, 60, 0
3, 656, Note_on_c, 0, 59, 38
3, 664, Note_on_c, 0, 59, 0
3, 672, Note_on_c, 0, 43, 40
3, 688, Note_on_c, 0, 43, 0
3, 688, Note_on_c, 0, 47, 38
3, 704, Note_on_c, 0, 47, 0
3, 704, Note_on_c, 0, 55, 34
3, 720, Note_on_c, 0, 55, 0
3, 720, Note_on_c, 0, 52, 30
3, 736, Note_on_c, 0, 52, 0
3, 736, Note_on_c, 0, 60, 31
3, 752, Note_on_c, 0, 60, 0
3, 752, Note_on_c, 0, 59, 29
3, 760, Note_on_c, 0, 59, 0
3, 768, Note_on_c, 0, 39, 30
3, 784, Note_on_c, 0, 39, 0
3, 784, Note_on_c, 0, 47, 28
3, 800, Note_on_c, 0, 47, 0
3, 800, Note_on_c, 0, 57, 32
3, 816, Note_on_c, 0, 57, 0
3, 816, Note_on_c, 0, 54, 30
3, 832, Note_on_c, 0, 54, 0
3, 832, Note_on_c, 0, 60, 31
3, 848, Note_on_c, 0, 60, 0
3, 848, Note_on_c, 0, 59, 29
3, 856, Note_on_c, 0, 59, 0
3, 864, Note_on_c, 0, 40, 38
3, 880, Note_on_c, 0, 40, 0
3, 880, Note_on_c, 0, 47, 29
3, 896, Note_on_c, 0, 47, 0
3, 896, Note_on_c, 0, 55, 32
3, 912, Note_on_c, 0, 55, 0
3, 912, Note_on_c, 0, 52, 29
3, 928, Note_on_c, 0, 52, 0
3, 928, Note_on_c, 0, 60, 32
3, 944, Note_on_c, 0, 60, 0
3, 944, Note_on_c, 0, 59, 29
3, 952, Note_on_c, 0, 59, 0
3, 960, Note_on_c, 0, 35, 30
3, 970, Note_on_c, 0, 35, 0
3, 976, Note_on_c, 0, 47, 50
3, 992, Note_on_c, 0, 47, 0
3, 992, Note_on_c, 0, 59, 44
3, 1008, Note_on_c, 0, 59, 0
3, 1008, Note_on_c, 0, 58, 40
3, 1024, Note_on_c, 0, 58, 0
3, 1024, Note_on_c, 0, 55, 38
3, 1040, Note_on_c, 0, 55, 0
3, 1040, Note_on_c, 0, 46, 32
3, 1056, Note_on_c, 0, 46, 0
3, 1056, Note_on_c, 0, 47, 30
3, 1066, Note_on_c, 0, 47, 0
3, 1072, Note_on_c, 0, 35, 32
3, 1088, Note_on_c, 0, 35, 0
3, 1088, Note_on_c, 0, 47, 36
3, 1104, Note_on_c, 0, 47, 0
3, 1104, Note_on_c, 0, 51, 36
3, 1120, Note_on_c, 0, 51, 0
3, 1120, Note_on_c, 0, 54, 37
3, 1136, Note_on_c, 0, 54, 0
3, 1136, Note_on_c, 0, 59, 38
3, 1144, Note_on_c, 0, 59, 0
3, 1152, Note_on_c, 0, 43, 42
3, 1168, Note_on_c, 0, 43, 0
3, 1168, Note_on_c, 0, 50, 44
3, 1184, Note_on_c, 0, 50, 0
3, 1184, Note_on_c, 0, 59, 46
3, 1200, Note_on_c, 0, 59, 0
3, 1200, Note_on_c, 0, 55, 40
3, 1216, Note_on_c, 0, 55, 0
3, 1216, Note_on_c, 0, 64, 54
3, 1232, Note_on_c, 0, 64, 0
3, 1232, Note_on_c, 0, 62, 52
3, 1240, Note_on_c, 0, 62, 0
3, 1248, Note_on_c, 0, 42, 48
3, 1258, Note_on_c, 0, 42, 0
3, 1264, Note_on_c, 0, 54, 42
3, 1280, Note_on_c, 0, 54, 0
3, 1280, Note_on_c, 0, 61, 48
3, 1296, Note_on_c, 0, 61, 0
3, 1296, Note_on_c, 0, 64, 52
3, 1312, Note_on_c, 0, 64, 0
3, 1312, Note_on_c, 0, 61, 54
3, 1328, Note_on_c, 0, 61, 0
3, 1328, Note_on_c, 0, 54, 50
3, 1344, Note_on_c, 0, 54, 0
3, 1344, Note_on_c, 0, 47, 48
3, 1360, Note_on_c, 0, 47, 0
3, 1360, Note_on_c, 0, 54, 48
3, 1376, Note_on_c, 0, 54, 0
3, 1376, Note_on_c, 0, 62, 50
3, 1392, Note_on_c, 0, 62, 0
3, 1392, Note_on_c, 0, 59, 47
3, 1408, Note_on_c, 0, 59, 0
3, 1408, Note_on_c, 0, 67, 54
3, 1424, Note_on_c, 0, 67, 0
3, 1424, Note_on_c, 0, 66, 55
3, 1440, Note_on_c, 0, 66, 0
3, 1440, Note_on_c, 0, 65, 55
3, 1456, Note_on_c, 0, 65, 0
3, 1456, Note_on_c, 0, 62, 48
3, 1472, Note_on_c, 0, 62, 0
3, 1472, Note_on_c, 0, 59, 40
3, 1488, Note_on_c, 0, 59, 0
3, 1488, Note_on_c, 0, 56, 34
3, 1504, Note_on_c, 0, 56, 0
3, 1504, Note_on_c, 0, 53, 32
3, 1520, Note_on_c, 0, 53, 0
3, 1520, Note_on_c, 0, 41, 30
3, 1536, Note_on_c, 0, 41, 0
3, 1536, Note_on_c, 0, 42, 30
3, 1552, Note_on_c, 0, 42, 0
3, 1552, Note_on_c, 0, 54, 36
3, 1568, Note_on_c, 0, 54, 0
3, 1568, Note_on_c, 0, 61, 34
3, 1584, Note_on_c, 0, 61, 0
3, 1584, Note_on_c, 0, 64, 38
3, 1600, Note_on_c, 0, 64, 0
3, 1600, Note_on_c, 0, 67, 32
3, 1616, Note_on_c, 0, 67, 0
3, 1616, Note_on_c, 0, 66, 30
3, 1632, Note_on_c, 0, 66, 0
3, 1632, Note_on_c, 0, 64, 30
3, 1648, Note_on_c, 0, 64, 0
3, 1648, Note_on_c, 0, 61, 28
3, 1664, Note_on_c, 0, 61, 0
3, 1664, Note_on_c, 0, 58, 26
3, 1680, Note_on_c, 0, 58, 0
3, 1680, Note_on_c, 0, 54, 28
3, 1696, Note_on_c, 0, 54, 0
3, 1696, Note_on_c, 0, 42, 27
3, 1712, Note_on_c, 0, 42, 0
3, 1712, Note_on_c, 0, 30, 26
3, 1728, Note_on_c, 0, 30, 0
3, 1728, Note_on_c, 0, 35, 26
3, 1744, Note_on_c, 0, 35, 0
3, 1744, Note_on_c, 0, 47, 34
3, 1760, Note_on_c, 0, 47, 0
3, 1760, Note_on_c, 0, 54, 36
3, 1776, Note_on_c, 0, 54, 0
3, 1776, Note_on_c, 0, 57, 48
3, 1792, Note_on_c, 0, 57, 0
3, 1792, Note_on_c, 0, 60, 48
3, 1808, Note_on_c, 0, 60, 0
3, 1808, Note_on_c, 0, 59, 46
3, 1824, Note_on_c, 0, 59, 0
3, 1824, Note_on_c, 0, 55, 50
3, 1840, Note_on_c, 0, 55, 0
3, 1840, Note_on_c, 0, 60, 54
3, 1856, Note_on_c, 0, 60, 0
3, 1856, Note_on_c, 0, 59, 52
3, 1872, Note_on_c, 0, 59, 0
3, 1872, Note_on_c, 0, 54, 53
3, 1888, Note_on_c, 0, 54, 0
3, 1888, Note_on_c, 0, 60, 56
3, 1904, Note_on_c, 0, 60, 0
3, 1904, Note_on_c, 0, 59, 52
3, 1912, Note_on_c, 0, 59, 0
3, 1920, Note_on_c, 0, 40, 46
3, 1936, Note_on_c, 0, 40, 0
3, 1936, Note_on_c, 0, 47, 42
3, 1952, Note_on_c, 0, 47, 0
3, 1952, Note_on_c, 0, 55, 44
3, 1968, Note_on_c, 0, 55, 0
3, 1968, Note_on_c, 0, 52, 39
3, 1984, Note_on_c, 0, 52, 0
3, 1984, Note_on_c, 0, 60, 40
3, 2000, Note_on_c, 0, 60, 0
3, 2000, Note_on_c, 0, 59, 38
3, 2008, Note_on_c, 0, 59, 0
3, 2016, Note_on_c, 0, 40, 42
3, 2032, Note_on_c, 0, 40, 0
3, 2032, Note_on_c, 0, 47, 38
3, 2048, Note_on_c, 0, 47, 0
3, 2048, Note_on_c, 0, 55, 44
3, 2064, Note_on_c, 0, 55, 0
3, 2064, Note_on_c, 0, 52, 46
3, 2080, Note_on_c, 0, 52, 0
3, 2080, Note_on_c, 0, 60, 52
3, 2096, Note_on_c, 0, 60, 0
3, 2096, Note_on_c, 0, 59, 50
3, 2104, Note_on_c, 0, 59, 0
3, 2112, Note_on_c, 0, 42, 44
3, 2128, Note_on_c, 0, 42, 0
3, 2128, Note_on_c, 0, 47, 40
3, 2144, Note_on_c, 0, 47, 0
3, 2144, Note_on_c, 0, 57, 42
3, 2160, Note_on_c, 0, 57, 0
3, 2160, Note_on_c, 0, 54, 40
3, 2176, Note_on_c, 0, 54, 0
3, 2176, Note_on_c, 0, 60, 44
3, 2192, Note_on_c, 0, 60, 0
3, 2192, Note_on_c, 0, 59, 42
3, 2200, Note_on_c, 0, 59, 0
3, 2208, Note_on_c, 0, 43, 52
3, 2224, Note_on_c, 0, 43, 0
3, 2224, Note_on_c, 0, 47, 44
3, 2240, Note_on_c, 0, 47, 0
3, 2240, Note_on_c, 0, 55, 44
3, 2256, Note_on_c, 0, 55, 0
3, 2256, Note_on_c, 0, 52, 42
3, 2272, Note_on_c, 0, 52, 0
3, 2272, Note_on_c, 0, 60, 46
3, 2288, Note_on_c, 0, 60, 0
3, 2288, Note_on_c, 0, 59, 44
3, 2296, Note_on_c, 0, 59, 0
3, 2304, Note_on_c, 0, 39, 43
3, 2320, Note_on_c, 0, 39, 0
3, 2320, Note_on_c, 0, 47, 37
3, 2336, Note_on_c, 0, 47, 0
3, 2336, Note_on_c, 0, 57, 41
3, 2352, Note_on_c, 0, 57, 0
3, 2352, Note_on_c, 0, 54, 36
3, 2368, Note_on_c, 0, 54, 0
3, 2368, Note_on_c, 0, 60, 37
3, 2384, Note_on_c, 0, 60, 0
3, 2384, Note_on_c, 0, 59, 34
3, 2392, Note_on_c, 0, 59, 0
3, 2400, Note_on_c, 0, 40, 38
3, 2416, Note_on_c, 0, 40, 0
3, 2416, Note_on_c, 0, 47, 30
3, 2432, Note_on_c, 0, 47, 0
3, 2432, Note_on_c, 0, 55, 32
3, 2448, Note_on_c, 0, 55, 0
3, 2448, Note_on_c, 0, 52, 28
3, 2464, Note_on_c, 0, 52, 0
3, 2464, Note_on_c, 0, 60, 30
3, 2480, Note_on_c, 0, 60, 0
3, 2480, Note_on_c, 0, 59, 28
3, 2488, Note_on_c, 0, 59, 0
3, 2496, Note_on_c, 0, 35, 28
3, 2506, Note_on_c, 0, 35, 0
3, 2512, Note_on_c, 0, 47, 50
3, 2528, Note_on_c, 0, 47, 0
3, 2528, Note_on_c, 0, 59, 46
3, 2544, Note_on_c, 0, 59, 0
3, 2544, Note_on_c, 0, 58, 48
3, 2560, Note_on_c, 0, 58, 0
3, 2560, Note_on_c, 0, 47, 36
3, 2568, Note_on_c, 0, 47, 0
3, 2576, Note_on_c, 0, 35, 36
3, 2592, Note_on_c, 0, 35, 0
3, 2592, Note_on_c, 0, 47, 36
3, 2608, Note_on_c, 0, 47, 0
3, 2608, Note_on_c, 0, 35, 38
3, 2624, Note_on_c, 0, 35, 0
3, 2624, Note_on_c, 0, 47, 38
3, 2640, Note_on_c, 0, 47, 0
3, 2640, Note_on_c, 0, 51, 36
3, 2656, Note_on_c, 0, 51, 0
3, 2656, Note_on_c, 0, 54, 33
3, 2672, Note_on_c, 0, 54, 0
3, 2672, Note_on_c, 0, 59, 30
3, 2680, Note_on_c, 0, 59, 0
3, 2688, Note_on_c, 0, 47, 36
3, 2704, Note_on_c, 0, 47, 0
3, 2704, Note_on_c, 0, 35, 36
3, 2720, Note_on_c, 0, 35, 0
3, 2720, Note_on_c, 0, 47, 36
3, 2736, Note_on_c, 0, 47, 0
3, 2736, Note_on_c, 0, 50, 38
3, 2752, Note_on_c, 0, 50, 0
3, 2752, Note_on_c, 0, 55, 40
3, 2768, Note_on_c, 0, 55, 0
3, 2768, Note_on_c, 0, 59, 38
3, 2784, Note_on_c, 0, 59, 0
3, 2784, Note_on_c, 0, 60, 42
3, 2800, Note_on_c, 0, 60, 0
3, 2800, Note_on_c, 0, 59, 40
3, 2816, Note_on_c, 0, 59, 0
3, 2816, Note_on_c, 0, 60, 42
3, 2832, Note_on_c, 0, 60, 0
3, 2832, Note_on_c, 0, 55, 38
3, 2848, Note_on_c, 0, 55, 0
3, 2848, Note_on_c, 0, 52, 36
3, 2864, Note_on_c, 0, 52, 0
3, 2864, Note_on_c, 0, 48, 32
3, 2880, Note_on_c, 0, 48, 0
3, 2880, Note_on_c, 0, 43, 36
3, 2896, Note_on_c, 0, 43, 0
3, 2896, Note_on_c, 0, 50, 40
3, 2912, Note_on_c, 0, 50, 0
3, 2912, Note_on_c, 0, 55, 38
3, 2928, Note_on_c, 0, 55, 0
3, 2928, Note_on_c, 0, 59, 30
3, 2944, Note_on_c, 0, 59, 0
3, 2944, Note_on_c, 0, 64, 36
3, 2960, Note_on_c, 0, 64, 0
3, 2960, Note_on_c, 0, 62, 34
3, 2976, Note_on_c, 0, 62, 0
3, 2976, Note_on_c, 0, 60, 34
3, 2984, Note_on_c, 0, 60, 0
3, 2992, Note_on_c, 0, 48, 38
3, 3008, Note_on_c, 0, 48, 0
3, 3008, Note_on_c, 0, 52, 50
3, 3024, Note_on_c, 0, 52, 0
3, 3024, Note_on_c, 0, 55, 46
3, 3040, Note_on_c, 0, 55, 0
3, 3040, Note_on_c, 0, 60, 42
3, 3056, Note_on_c, 0, 60, 0
3, 3056, Note_on_c, 0, 64, 38
3, 3072, Note_on_c, 0, 64, 0
3, 3072, Note_on_c, 0, 61, 36
3, 3088, Note_on_c, 0, 61, 0
3, 3088, Note_on_c, 0, 49, 36
3, 3104, Note_on_c, 0, 49, 0
3, 3104, Note_on_c, 0, 52, 35
3, 3120, Note_on_c, 0, 52, 0
3, 3120, Note_on_c, 0, 57, 34
3, 3136, Note_on_c, 0, 57, 0
3, 3136, Note_on_c, 0, 65, 36
3, 3152, Note_on_c, 0, 65, 0
3, 3152, Note_on_c, 0, 64, 34
3, 3160, Note_on_c, 0, 64, 0
3, 3168, Note_on_c, 0, 38, 34
3, 3184, Note_on_c, 0, 38, 0
3, 3184, Note_on_c, 0, 50, 48
3, 3200, Note_on_c, 0, 50, 0
3, 3200, Note_on_c, 0, 53, 44
3, 3216, Note_on_c, 0, 53, 0
3, 3216, Note_on_c, 0, 57, 44
3, 3232, Note_on_c, 0, 57, 0
3, 3232, Note_on_c, 0, 64, 54
3, 3248, Note_on_c, 0, 64, 0
3, 3248, Note_on_c, 0, 62, 50
3, 3256, Note_on_c, 0, 62, 0
3, 3264, Note_on_c, 0, 39, 40
3, 3280, Note_on_c, 0, 39, 0
3, 3280, Note_on_c, 0, 51, 48
3, 3296, Note_on_c, 0, 51, 0
3, 3296, Note_on_c, 0, 54, 46
3, 3312, Note_on_c, 0, 54, 0
3, 3312, Note_on_c, 0, 59, 46
3, 3328, Note_on_c, 0, 59, 0
3, 3328, Note_on_c, 0, 67, 52
3, 3344, Note_on_c, 0, 67, 0
3, 3344, Note_on_c, 0, 66, 58
3, 3352, Note_on_c, 0, 66, 0
3, 3360, Note_on_c, 0, 40, 54
3, 3376, Note_on_c, 0, 40, 0
3, 3376, Note_on_c, 0, 52, 48
3, 3392, Note_on_c, 0, 52, 0
3, 3392, Note_on_c, 0, 55, 44
3, 3408, Note_on_c, 0, 55, 0
3, 3408, Note_on_c, 0, 59, 42
3, 3424, Note_on_c, 0, 59, 0
3, 3424, Note_on_c, 0, 67, 48
3, 3440, Note_on_c, 0, 67, 0
3, 3440, Note_on_c, 0, 64, 52
3, 3448, Note_on_c, 0, 64, 0
3, 3456, Note_on_c, 0, 42, 56
3, 3472, Note_on_c, 0, 42, 0
3, 3472, Note_on_c, 0, 54, 44
3, 3488, Note_on_c, 0, 54, 0
3, 3488, Note_on_c, 0, 62, 54
3, 3504, Note_on_c, 0, 62, 0
3, 3504, Note_on_c, 0, 59, 50
3, 3520, Note_on_c, 0, 59, 0
3, 3520, Note_on_c, 0, 67, 56
3, 3536, Note_on_c, 0, 67, 0
3, 3536, Note_on_c, 0, 66, 66
3, 3545, Note_on_c, 0, 66, 0
3, 3553, Note_on_c, 0, 42, 48
3, 3568, Note_on_c, 0, 42, 0
3, 3568, Note_on_c, 0, 54, 52
3, 3584, Note_on_c, 0, 54, 0
3, 3584, Note_on_c, 0, 62, 58
3, 3600, Note_on_c, 0, 62, 0
3, 3600, Note_on_c, 0, 61, 54
3, 3616, Note_on_c, 0, 61, 0
3, 3616, Note_on_c, 0, 67, 60
3, 3632, Note_on_c, 0, 67, 0
3, 3632, Note_on_c, 0, 66, 56
3, 3640, Note_on_c, 0, 66, 0
3, 3648, Note_on_c, 0, 35, 34
3, 3664, Note_on_c, 0, 35, 0
3, 3664, Note_on_c, 0, 47, 50
3, 3680, Note_on_c, 0, 47, 0
3, 3680, Note_on_c, 0, 54, 48
3, 3696, Note_on_c, 0, 54, 0
3, 3696, Note_on_c, 0, 59, 46
3, 3712, Note_on_c, 0, 59, 0
3, 3712, Note_on_c, 0, 67, 54
3, 3728, Note_on_c, 0, 67, 0
3, 3728, Note_on_c, 0, 66, 48
3, 3736, Note_on_c, 0, 66, 0
3, 3744, Note_on_c, 0, 40, 42
3, 3760, Note_on_c, 0, 40, 0
3, 3760, Note_on_c, 0, 47, 44
3, 3776, Note_on_c, 0, 47, 0
3, 3776, Note_on_c, 0, 55, 42
3, 3792, Note_on_c, 0, 55, 0
3, 3792, Note_on_c, 0, 59, 40
3, 3808, Note_on_c, 0, 59, 0
3, 3808, Note_on_c, 0, 66, 47
3, 3824, Note_on_c, 0, 66, 0
3, 3824, Note_on_c, 0, 64, 44
3, 3832, Note_on_c, 0, 64, 0
3, 3840, Note_on_c, 0, 42, 34
3, 3856, Note_on_c, 0, 42, 0
3, 3856, Note_on_c, 0, 49, 26
3, 3872, Note_on_c, 0, 49, 0
3, 3872, Note_on_c, 0, 52, 28
3, 3888, Note_on_c, 0, 52, 0
3, 3888, Note_on_c, 0, 58, 30
3, 3904, Note_on_c, 0, 58, 0
3, 3904, Note_on_c, 0, 62, 27
3, 3920, Note_on_c, 0, 62, 0
3, 3920, Note_on_c, 0, 61, 27
3, 3928, Note_on_c, 0, 61, 0
3, 3936, Note_on_c, 0, 42, 38
3, 3952, Note_on_c, 0, 42, 0
3, 3952, Note_on_c, 0, 50, 36
3, 3968, Note_on_c, 0, 50, 0
3, 3968, Note_on_c, 0, 54, 34
3, 3984, Note_on_c, 0, 54, 0
3, 3984, Note_on_c, 0, 59, 36
3, 4000, Note_on_c, 0, 59, 0
3, 4000, Note_on_c, 0, 58, 34
3, 4016, Note_on_c, 0, 58, 0
3, 4016, Note_on_c, 0, 59, 36
3, 4024, Note_on_c, 0, 59, 0
3, 4032, Note_on_c, 0, 42, 40
3, 4048, Note_on_c, 0, 42, 0
3, 4048, Note_on_c, 0, 49, 38
3, 4064, Note_on_c, 0, 49, 0
3, 4064, Note_on_c, 0, 53, 36
3, 4080, Note_on_c, 0, 53, 0
3, 4080, Note_on_c, 0, 54, 40
3, 4096, Note_on_c, 0, 54, 0
3, 4096, Note_on_c, 0, 57, 31
3, 4112, Note_on_c, 0, 57, 0
3, 4112, Note_on_c, 0, 55, 33
3, 4120, Note_on_c, 0, 55, 0
3, 4128, Note_on_c, 0, 42, 34
3, 4144, Note_on_c, 0, 42, 0
3, 4144, Note_on_c, 0, 49, 28
3, 4160, Note_on_c, 0, 49, 0
3, 4160, Note_on_c, 0, 53, 28
3, 4176, Note_on_c, 0, 53, 0
3, 4176, Note_on_c, 0, 54, 30
3, 4192, Note_on_c, 0, 54, 0
3, 4192, Note_on_c, 0, 53, 28
3, 4208, Note_on_c, 0, 53, 0
3, 4208, Note_on_c, 0, 54, 27
3, 4216, Note_on_c, 0, 54, 0
3, 4224, Note_on_c, 0, 35, 36
3, 4240, Note_on_c, 0, 35, 0
3, 4240, Note_on_c, 0, 42, 35
3, 4256, Note_on_c, 0, 42, 0
3, 4256, Note_on_c, 0, 54, 40
3, 4272, Note_on_c, 0, 54, 0
3, 4272, Note_on_c, 0, 51, 36
3, 4288, Note_on_c, 0, 51, 0
3, 4288, Note_on_c, 0, 49, 37
3, 4304, Note_on_c, 0, 49, 0
3, 4304, Note_on_c, 0, 47, 33
3, 4320, Note_on_c, 0, 47, 0
3, 4320, Note_on_c, 0, 35, 36
3, 4336, Note_on_c, 0, 35, 0
3, 4336, Note_on_c, 0, 42, 35
3, 4352, Note_on_c, 0, 42, 0
3, 4352, Note_on_c, 0, 54, 36
3, 4368, Note_on_c, 0, 54, 0
3, 4368, Note_on_c, 0, 51, 34
3, 4384, Note_on_c, 0, 51, 0
3, 4384, Note_on_c, 0, 49, 32
3, 4400, Note_on_c, 0, 49, 0
3, 4400, Note_on_c, 0, 47, 30
3, 4416, Note_on_c, 0, 47, 0
3, 4416, Note_on_c, 0, 35, 32
3, 4432, Note_on_c, 0, 35, 0
3, 4432, Note_on_c, 0, 42, 36
3, 4448, Note_on_c, 0, 42, 0
3, 4448, Note_on_c, 0, 54, 33
3, 4464, Note_on_c, 0, 54, 0
3, 4464, Note_on_c, 0, 51, 37
3, 4480, Note_on_c, 0, 51, 0
3, 4480, Note_on_c, 0, 49, 36
3, 4496, Note_on_c, 0, 49, 0
3, 4496, Note_on_c, 0, 47, 34
3, 4512, Note_on_c, 0, 47, 0
3, 4512, Note_on_c, 0, 35, 34
3, 4528, Note_on_c, 0, 35, 0
3, 4528, Note_on_c, 0, 42, 36
3, 4544, Note_on_c, 0, 42, 0
3, 4544, Note_on_c, 0, 54, 32
3, 4560, Note_on_c, 0, 54, 0
3, 4560, Note_on_c, 0, 51, 34
3, 4576, Note_on_c, 0, 51, 0
3, 4576, Note_on_c, 0, 49, 30
3, 4592, Note_on_c, 0, 49, 0
3, 4592, Note_on_c, 0, 47, 28
3, 4608, Note_on_c, 0, 47, 0
3, 4608, Note_on_c, 0, 35, 30
3, 4624, Note_on_c, 0, 35, 0
3, 4624, Note_on_c, 0, 47, 38
3, 4640, Note_on_c, 0, 47, 0
3, 4640, Note_on_c, 0, 56, 42
3, 4656, Note_on_c, 0, 56, 0
3, 4656, Note_on_c, 0, 52, 40
3, 4672, Note_on_c, 0, 52, 0
3, 4672, Note_on_c, 0, 49, 45
3, 4688, Note_on_c, 0, 49, 0
3, 4688, Note_on_c, 0, 47, 48
3, 4704, Note_on_c, 0, 47, 0
3, 4704, Note_on_c, 0, 35, 45
3, 4720, Note_on_c, 0, 35, 0
3, 4720, Note_on_c, 0, 47, 46
3, 4736, Note_on_c, 0, 47, 0
3, 4736, Note_on_c, 0, 56, 40
3, 4752, Note_on_c, 0, 56, 0
3, 4752, Note_on_c, 0, 52, 44
3, 4768, Note_on_c, 0, 52, 0
3, 4768, Note_on_c, 0, 49, 42
3, 4784, Note_on_c, 0, 49, 0
3, 4784, Note_on_c, 0, 47, 40
3, 4800, Note_on_c, 0, 47, 0
3, 4800, Note_on_c, 0, 35, 42
3, 4816, Note_on_c, 0, 35, 0
3, 4816, Note_on_c, 0, 47, 42
3, 4832, Note_on_c, 0, 47, 0
3, 4832, Note_on_c, 0, 55, 50
3, 4848, Note_on_c, 0, 55, 0
3, 4848, Note_on_c, 0, 52, 44
3, 4864, Note_on_c, 0, 52, 0
3, 4864, Note_on_c, 0, 49, 45
3, 4880, Note_on_c, 0, 49, 0
3, 4880, Note_on_c, 0, 47, 44
3, 4896, Note_on_c, 0, 47, 0
3, 4896, Note_on_c, 0, 35, 42
3, 4912, Note_on_c, 0, 35, 0
3, 4912, Note_on_c, 0, 47, 43
3, 4928, Note_on_c, 0, 47, 0
3, 4928, Note_on_c, 0, 55, 41
3, 4944, Note_on_c, 0, 55, 0
3, 4944, Note_on_c, 0, 52, 36
3, 4960, Note_on_c, 0, 52, 0
3, 4960, Note_on_c, 0, 49, 32
3, 4976, Note_on_c, 0, 49, 0
3, 4976, Note_on_c, 0, 47, 28
3, 4992, Note_on_c, 0, 47, 0
3, 4992, Note_on_c, 0, 35, 28
3, 5008, Note_on_c, 0, 35, 0
3, 5008, Note_on_c, 0, 42, 32
3, 5024, Note_on_c, 0, 42, 0
3, 5024, Note_on_c, 0, 54, 32
3, 5040, Note_on_c, 0, 54, 0
3, 5040, Note_on_c, 0, 51, 30
3, 5056, Note_on_c, 0, 51, 0
3, 5056, Note_on_c, 0, 49, 33
3, 5072, Note_on_c, 0, 49, 0
3, 5072, Note_on_c, 0, 47, 37
3, 5088, Note_on_c, 0, 47, 0
3, 5088, Note_on_c, 0, 35, 40
3, 5104, Note_on_c, 0, 35, 0
3, 5104, Note_on_c, 0, 42, 40
3, 5120, Note_on_c, 0, 42, 0
3, 5120, Note_on_c, 0, 54, 46
3, 5136, Note_on_c, 0, 54, 0
3, 5136, Note_on_c, 0, 51, 43
3, 5152, Note_on_c, 0, 51, 0
3, 5152, Note_on_c, 0, 49, 44
3, 5168, Note_on_c, 0, 49, 0
3, 5168, Note_on_c, 0, 47, 46
3, 5184, Note_on_c, 0, 47, 0
3, 5184, Note_on_c, 0, 35, 42
3, 5200, Note_on_c, 0, 35, 0
3, 5200, Note_on_c, 0, 42, 44
3, 5216, Note_on_c, 0, 42, 0
3, 5216, Note_on_c, 0, 54, 47
3, 5232, Note_on_c, 0, 54, 0
3, 5232, Note_on_c, 0, 51, 45
3, 5248, Note_on_c, 0, 51, 0
3, 5248, Note_on_c, 0, 49, 44
3, 5264, Note_on_c, 0, 49, 0
3, 5264, Note_on_c, 0, 47, 43
3, 5280, Note_on_c, 0, 47, 0
3, 5280, Note_on_c, 0, 35, 42
3, 5296, Note_on_c, 0, 35, 0
3, 5296, Note_on_c, 0, 42, 38
3, 5312, Note_on_c, 0, 42, 0
3, 5312, Note_on_c, 0, 54, 40
3, 5328, Note_on_c, 0, 54, 0
3, 5328, Note_on_c, 0, 51, 34
3, 5344, Note_on_c, 0, 51, 0
3, 5344, Note_on_c, 0, 49, 32
3, 5360, Note_on_c, 0, 49, 0
3, 5360, Note_on_c, 0, 47, 30
3, 5376, Note_on_c, 0, 47, 0
3, 5376, Note_on_c, 0, 35, 26
3, 5392, Note_on_c, 0, 35, 0
3, 5392, Note_on_c, 0, 47, 28
3, 5408, Note_on_c, 0, 47, 0
3, 5408, Note_on_c, 0, 56, 30
3, 5424, Note_on_c, 0, 56, 0
3, 5424, Note_on_c, 0, 52, 31
3, 5440, Note_on_c, 0, 52, 0
3, 5440, Note_on_c, 0, 49, 32
3, 5456, Note_on_c, 0, 49, 0
3, 5456, Note_on_c, 0, 47, 38
3, 5472, Note_on_c, 0, 47, 0
3, 5472, Note_on_c, 0, 35, 38
3, 5488, Note_on_c, 0, 35, 0
3, 5488, Note_on_c, 0, 47, 36
3, 5504, Note_on_c, 0, 47, 0
3, 5504, Note_on_c, 0, 56, 38
3, 5520, Note_on_c, 0, 56, 0
3, 5520, Note_on_c, 0, 52, 34
3, 5536, Note_on_c, 0, 52, 0
3, 5536, Note_on_c, 0, 49, 32
3, 5552, Note_on_c, 0, 49, 0
3, 5552, Note_on_c, 0, 47, 30
3, 5568, Note_on_c, 0, 47, 0
3, 5568, Note_on_c, 0, 35, 32
3, 5584, Note_on_c, 0, 35, 0
3, 5584, Note_on_c, 0, 47, 38
3, 5600, Note_on_c, 0, 47, 0
3, 5600, Note_on_c, 0, 55, 42
3, 5616, Note_on_c, 0, 55, 0
3, 5616, Note_on_c, 0, 52, 38
3, 5632, Note_on_c, 0, 52, 0
3, 5632, Note_on_c, 0, 49, 40
3, 5648, Note_on_c, 0, 49, 0
3, 5648, Note_on_c, 0, 47, 30
3, 5664, Note_on_c, 0, 47, 0
3, 5664, Note_on_c, 0, 35, 30
3, 5680, Note_on_c, 0, 35, 0
3, 5680, Note_on_c, 0, 47, 26
3, 5696, Note_on_c, 0, 47, 0
3, 5696, Note_on_c, 0, 55, 30
3, 5712, Note_on_c, 0, 55, 0
3, 5712, Note_on_c, 0, 52, 28
3, 5728, Note_on_c, 0, 52, 0
3, 5728, Note_on_c, 0, 49, 27
3, 5744, Note_on_c, 0, 49, 0
3, 5744, Note_on_c, 0, 47, 26
3, 5760, Note_on_c, 0, 47, 0
3, 5760, Note_on_c, 0, 35, 32
3, 5776, Note_on_c, 0, 35, 0
3, 5776, Note_on_c, 0, 47, 42
3, 5792, Note_on_c, 0, 47, 0
3, 5792, Note_on_c, 0, 54, 46
3, 5808, Note_on_c, 0, 54, 0
3, 5808, Note_on_c, 0, 57, 46
3, 5824, Note_on_c, 0, 57, 0
3, 5824, Note_on_c, 0, 60, 64
3, 5840, Note_on_c, 0, 60, 0
3, 5840, Note_on_c, 0, 59, 62
3, 5856, Note_on_c, 0, 59, 0
3, 5856, Note_on_c, 0, 57, 60
3, 5872, Note_on_c, 0, 57, 0
3, 5872, Note_on_c, 0, 54, 62
3, 5888, Note_on_c, 0, 54, 0
3, 5888, Note_on_c, 0, 51, 64
3, 5904, Note_on_c, 0, 51, 0
3, 5904, Note_on_c, 0, 48, 66
3, 5920, Note_on_c, 0, 48, 0
3, 5920, Note_on_c, 0, 47, 68
3, 5936, Note_on_c, 0, 47, 0
3, 5936, Note_on_c, 0, 35, 66
3, 5952, Note_on_c, 0, 35, 0
3, 5952, Note_on_c, 0, 40, 48
3, 5968, Note_on_c, 0, 40, 0
3, 5968, Note_on_c, 0, 47, 44
3, 5984, Note_on_c, 0, 47, 0
3, 5984, Note_on_c, 0, 55, 48
3, 6000, Note_on_c, 0, 55, 0
3, 6000, Note_on_c, 0, 52, 46
3, 6016, Note_on_c, 0, 52, 0
3, 6016, Note_on_c, 0, 60, 47
3, 6032, Note_on_c, 0, 60, 0
3, 6032, Note_on_c, 0, 59, 43
3, 6040, Note_on_c, 0, 59, 0
3, 6048, Note_on_c, 0, 40, 52
3, 6064, Note_on_c, 0, 40, 0
3, 6064, Note_on_c, 0, 47, 44
3, 6080, Note_on_c, 0, 47, 0
3, 6080, Note_on_c, 0, 55, 48
3, 6096, Note_on_c, 0, 55, 0
3, 6096, Note_on_c, 0, 52, 46
3, 6112, Note_on_c, 0, 52, 0
3, 6112, Note_on_c, 0, 60, 50
3, 6129, Note_on_c, 0, 60, 0
3, 6129, Note_on_c, 0, 59, 48
3, 6136, Note_on_c, 0, 59, 0
3, 6144, Note_on_c, 0, 42, 51
3, 6160, Note_on_c, 0, 42, 0
3, 6160, Note_on_c, 0, 47, 44
3, 6176, Note_on_c, 0, 47, 0
3, 6176, Note_on_c, 0, 57, 48
3, 6192, Note_on_c, 0, 57, 0
3, 6192, Note_on_c, 0, 54, 50
3, 6208, Note_on_c, 0, 54, 0
3, 6208, Note_on_c, 0, 60, 48
3, 6224, Note_on_c, 0, 60, 0
3, 6224, Note_on_c, 0, 59, 46
3, 6232, Note_on_c, 0, 59, 0
3, 6240, Note_on_c, 0, 43, 58
3, 6256, Note_on_c, 0, 43, 0
3, 6256, Note_on_c, 0, 47, 46
3, 6272, Note_on_c, 0, 47, 0
3, 6272, Note_on_c, 0, 55, 48
3, 6288, Note_on_c, 0, 55, 0
3, 6288, Note_on_c, 0, 52, 46
3, 6304, Note_on_c, 0, 52, 0
3, 6304, Note_on_c, 0, 60, 48
3, 6320, Note_on_c, 0, 60, 0
3, 6320, Note_on_c, 0, 59, 46
3, 6328, Note_on_c, 0, 59, 0
3, 6336, Note_on_c, 0, 39, 54
3, 6352, Note_on_c, 0, 39, 0
3, 6352, Note_on_c, 0, 47, 46
3, 6368, Note_on_c, 0, 47, 0
3, 6368, Note_on_c, 0, 57, 48
3, 6384, Note_on_c, 0, 57, 0
3, 6384, Note_on_c, 0, 54, 44
3, 6400, Note_on_c, 0, 54, 0
3, 6400, Note_on_c, 0, 60, 48
3, 6416, Note_on_c, 0, 60, 0
3, 6416, Note_on_c, 0, 59, 46
3, 6424, Note_on_c, 0, 59, 0
3, 6432, Note_on_c, 0, 40, 58
3, 6448, Note_on_c, 0, 40, 0
3, 6448, Note_on_c, 0, 47, 48
3, 6464, Note_on_c, 0, 47, 0
3, 6464, Note_on_c, 0, 55, 52
3, 6480, Note_on_c, 0, 55, 0
3, 6480, Note_on_c, 0, 52, 48
3, 6496, Note_on_c, 0, 52, 0
3, 6496, Note_on_c, 0, 60, 46
3, 6512, Note_on_c, 0, 60, 0
3, 6512, Note_on_c, 0, 59, 42
3, 6520, Note_on_c, 0, 59, 0
3, 6528, Note_on_c, 0, 35, 52
3, 6544, Note_on_c, 0, 35, 0
3, 6544, Note_on_c, 0, 47, 50
3, 6560, Note_on_c, 0, 47, 0
3, 6560, Note_on_c, 0, 54, 52
3, 6576, Note_on_c, 0, 54, 0
3, 6576, Note_on_c, 0, 55, 46
3, 6592, Note_on_c, 0, 55, 0
3, 6592, Note_on_c, 0, 47, 36
3, 6608, Note_on_c, 0, 47, 0
3, 6608, Note_on_c, 0, 58, 34
3, 6624, Note_on_c, 0, 58, 0
3, 6624, Note_on_c, 0, 59, 38
3, 6640, Note_on_c, 0, 59, 0
3, 6640, Note_on_c, 0, 47, 42
3, 6656, Note_on_c, 0, 47, 0
3, 6656, Note_on_c, 0, 46, 38
3, 6672, Note_on_c, 0, 46, 0
3, 6672, Note_on_c, 0, 47, 39
3, 6688, Note_on_c, 0, 47, 0
3, 6688, Note_on_c, 0, 51, 38
3, 6704, Note_on_c, 0, 51, 0
3, 6704, Note_on_c, 0, 54, 36
3, 6720, Note_on_c, 0, 54, 0
3, 6720, Note_on_c, 0, 43, 32
3, 6736, Note_on_c, 0, 43, 0
3, 6736, Note_on_c, 0, 50, 28
3, 6752, Note_on_c, 0, 50, 0
3, 6752, Note_on_c, 0, 59, 30
3, 6768, Note_on_c, 0, 59, 0
3, 6768, Note_on_c, 0, 55, 26
3, 6784, Note_on_c, 0, 55, 0
3, 6784, Note_on_c, 0, 64, 32
3, 6800, Note_on_c, 0, 64, 0
3, 6800, Note_on_c, 0, 62, 26
3, 6808, Note_on_c, 0, 62, 0
3, 6816, Note_on_c, 0, 42, 30
3, 6832, Note_on_c, 0, 42, 0
3, 6832, Note_on_c, 0, 54, 34
3, 6848, Note_on_c, 0, 54, 0
3, 6848, Note_on_c, 0, 62, 36
3, 6864, Note_on_c, 0, 62, 0
3, 6864, Note_on_c, 0, 64, 32
3, 6880, Note_on_c, 0, 64, 0
3, 6880, Note_on_c, 0, 61, 26
3, 6896, Note_on_c, 0, 61, 0
3, 6896, Note_on_c, 0, 54, 24
3, 6904, Note_on_c, 0, 54, 0
3, 6912, Note_on_c, 0, 47, 24
3, 6928, Note_on_c, 0, 47, 0
3, 6928, Note_on_c, 0, 54, 26
3, 6944, Note_on_c, 0, 54, 0
3, 6944, Note_on_c, 0, 62, 28
3, 6960, Note_on_c, 0, 62, 0
3, 6960, Note_on_c, 0, 59, 28
3, 6976, Note_on_c, 0, 59, 0
3, 6976, Note_on_c, 0, 67, 24
3, 6992, Note_on_c, 0, 67, 0
3, 6992, Note_on_c, 0, 66, 26
3, 7008, Note_on_c, 0, 66, 0
3, 7008, Note_on_c, 0, 65, 26
3, 7025, Note_on_c, 0, 65, 0
3, 7025, Note_on_c, 0, 62, 29
3, 7041, Note_on_c, 0, 62, 0
3, 7041, Note_on_c, 0, 59, 31
3, 7056, Note_on_c, 0, 59, 0
3, 7056, Note_on_c, 0, 53, 33
3, 7071, Note_on_c, 0, 53, 0
3, 7071, Note_on_c, 0, 50, 34
3, 7087, Note_on_c, 0, 50, 0
3, 7087, Note_on_c, 0, 41, 38
3, 7104, Note_on_c, 0, 41, 0
3, 7104, Note_on_c, 0, 42, 42
3, 7121, Note_on_c, 0, 42, 0
3, 7121, Note_on_c, 0, 54, 33
3, 7137, Note_on_c, 0, 54, 0
3, 7137, Note_on_c, 0, 61, 36
3, 7152, Note_on_c, 0, 61, 0
3, 7152, Note_on_c, 0, 64, 38
3, 7167, Note_on_c, 0, 64, 0
3, 7167, Note_on_c, 0, 67, 40
3, 7183, Note_on_c, 0, 67, 0
3, 7183, Note_on_c, 0, 66, 38
3, 7200, Note_on_c, 0, 66, 0
3, 7200, Note_on_c, 0, 64, 36
3, 7216, Note_on_c, 0, 64, 0
3, 7216, Note_on_c, 0, 61, 37
3, 7232, Note_on_c, 0, 61, 0
3, 7232, Note_on_c, 0, 58, 38
3, 7248, Note_on_c, 0, 58, 0
3, 7248, Note_on_c, 0, 54, 40
3, 7256, Note_on_c, 0, 54, 0
3, 7264, Note_on_c, 0, 42, 42
3, 7280, Note_on_c, 0, 42, 0
3, 7280, Note_on_c, 0, 30, 34
3, 7288, Note_on_c, 0, 30, 0
3, 7296, Note_on_c, 0, 35, 64
3, 7306, Note_on_c, 0, 35, 0
3, 7312, Note_on_c, 0, 47, 42
3, 7328, Note_on_c, 0, 47, 0
3, 7328, Note_on_c, 0, 54, 40
3, 7344, Note_on_c, 0, 54, 0
3, 7344, Note_on_c, 0, 57, 42
3, 7360, Note_on_c, 0, 57, 0
3, 7360, Note_on_c, 0, 60, 48
3, 7376, Note_on_c, 0, 60, 0
3, 7376, Note_on_c, 0, 59, 38
3, 7392, Note_on_c, 0, 59, 0
3, 7392, Note_on_c, 0, 55, 44
3, 7408, Note_on_c, 0, 55, 0
3, 7408, Note_on_c, 0, 60, 50
3, 7424, Note_on_c, 0, 60, 0
3, 7424, Note_on_c, 0, 59, 46
3, 7440, Note_on_c, 0, 59, 0
3, 7440, Note_on_c, 0, 54, 42
3, 7456, Note_on_c, 0, 54, 0
3, 7456, Note_on_c, 0, 60, 54
3, 7472, Note_on_c, 0, 60, 0
3, 7472, Note_on_c, 0, 59, 56
3, 7480, Note_on_c, 0, 59, 0
3, 7488, Note_on_c, 0, 40, 50
3, 7504, Note_on_c, 0, 40, 0
3, 7504, Note_on_c, 0, 47, 44
3, 7520, Note_on_c, 0, 47, 0
3, 7520, Note_on_c, 0, 55, 48
3, 7536, Note_on_c, 0, 55, 0
3, 7536, Note_on_c, 0, 52, 46
3, 7552, Note_on_c, 0, 52, 0
3, 7552, Note_on_c, 0, 60, 46
3, 7568, Note_on_c, 0, 60, 0
3, 7568, Note_on_c, 0, 59, 42
3, 7576, Note_on_c, 0, 59, 0
3, 7584, Note_on_c, 0, 40, 46
3, 7600, Note_on_c, 0, 40, 0
3, 7600, Note_on_c, 0, 47, 44
3, 7616, Note_on_c, 0, 47, 0
3, 7616, Note_on_c, 0, 55, 44
3, 7632, Note_on_c, 0, 55, 0
3, 7632, Note_on_c, 0, 52, 42
3, 7648, Note_on_c, 0, 52, 0
3, 7648, Note_on_c, 0, 60, 48
3, 7664, Note_on_c, 0, 60, 0
3, 7664, Note_on_c, 0, 59, 44
3, 7672, Note_on_c, 0, 59, 0
3, 7680, Note_on_c, 0, 42, 48
3, 7696, Note_on_c, 0, 42, 0
3, 7696, Note_on_c, 0, 47, 46
3, 7712, Note_on_c, 0, 47, 0
3, 7712, Note_on_c, 0, 57, 48
3, 7728, Note_on_c, 0, 57, 0
3, 7728, Note_on_c, 0, 54, 46
3, 7744, Note_on_c, 0, 54, 0
3, 7744, Note_on_c, 0, 60, 50
3, 7760, Note_on_c, 0, 60, 0
3, 7760, Note_on_c, 0, 59, 48
3, 7768, Note_on_c, 0, 59, 0
3, 7776, Note_on_c, 0, 40, 48
3, 7792, Note_on_c, 0, 40, 0
3, 7792, Note_on_c, 0, 47, 46
3, 7808, Note_on_c, 0, 47, 0
3, 7808, Note_on_c, 0, 55, 48
3, 7824, Note_on_c, 0, 55, 0
3, 7824, Note_on_c, 0, 52, 46
3, 7840, Note_on_c, 0, 52, 0
3, 7840, Note_on_c, 0, 60, 50
3, 7856, Note_on_c, 0, 60, 0
3, 7856, Note_on_c, 0, 59, 48
3, 7864, Note_on_c, 0, 59, 0
3, 7872, Note_on_c, 0, 35, 54
3, 7888, Note_on_c, 0, 35, 0
3, 7888, Note_on_c, 0, 47, 48
3, 7904, Note_on_c, 0, 47, 0
3, 7904, Note_on_c, 0, 59, 52
3, 7920, Note_on_c, 0, 59, 0
3, 7920, Note_on_c, 0, 54, 50
3, 7936, Note_on_c, 0, 54, 0
3, 7936, Note_on_c, 0, 60, 54
3, 7952, Note_on_c, 0, 60, 0
3, 7952, Note_on_c, 0, 59, 52
3, 7960, Note_on_c, 0, 59, 0
3, 7968, Note_on_c, 0, 40, 44
3, 7984, Note_on_c, 0, 40, 0
3, 7984, Note_on_c, 0, 47, 40
3, 8000, Note_on_c, 0, 47, 0
3, 8000, Note_on_c, 0, 55, 42
3, 8016, Note_on_c, 0, 55, 0
3, 8016, Note_on_c, 0, 52, 40
3, 8032, Note_on_c, 0, 52, 0
3, 8032, Note_on_c, 0, 60, 40
3, 8048, Note_on_c, 0, 60, 0
3, 8048, Note_on_c, 0, 59, 38
3, 8056, Note_on_c, 0, 59, 0
3, 8064, Note_on_c, 0, 35, 54
3, 8080, Note_on_c, 0, 35, 0
3, 8080, Note_on_c, 0, 47, 50
3, 8088, Note_on_c, 0, 47, 0
3, 8096, Note_on_c, 0, 59, 56
3, 8112, Note_on_c, 0, 59, 0
3, 8112, Note_on_c, 0, 58, 54
3, 8120, Note_on_c, 0, 58, 0
3, 8128, Note_on_c, 0, 47, 32
3, 8144, Note_on_c, 0, 47, 0
3, 8144, Note_on_c, 0, 35, 34
3, 8160, Note_on_c, 0, 35, 0
3, 8160, Note_on_c, 0, 47, 38
3, 8176, Note_on_c, 0, 47, 0
3, 8176, Note_on_c, 0, 35, 48
3, 8192, Note_on_c, 0, 35, 0
3, 8192, Note_on_c, 0, 47, 50
3, 8208, Note_on_c, 0, 47, 0
3, 8208, Note_on_c, 0, 51, 52
3, 8224, Note_on_c, 0, 51, 0
3, 8224, Note_on_c, 0, 54, 51
3, 8240, Note_on_c, 0, 54, 0
3, 8240, Note_on_c, 0, 59, 48
3, 8256, Note_on_c, 0, 59, 0
3, 8256, Note_on_c, 0, 60, 48
3, 8266, Note_on_c, 0, 60, 0
3, 8272, Note_on_c, 0, 48, 47
3, 8288, Note_on_c, 0, 48, 0
3, 8288, Note_on_c, 0, 47, 45
3, 8304, Note_on_c, 0, 47, 0
3, 8304, Note_on_c, 0, 48, 47
3, 8320, Note_on_c, 0, 48, 0
3, 8320, Note_on_c, 0, 50, 50
3, 8336, Note_on_c, 0, 50, 0
3, 8336, Note_on_c, 0, 48, 46
3, 8352, Note_on_c, 0, 48, 0
3, 8352, Note_on_c, 0, 47, 48
3, 8368, Note_on_c, 0, 47, 0
3, 8368, Note_on_c, 0, 35, 52
3, 8384, Note_on_c, 0, 35, 0
3, 8384, Note_on_c, 0, 47, 54
3, 8396, Note_on_c, 0, 47, 0
3, 8400, Note_on_c, 0, 54, 50
3, 8416, Note_on_c, 0, 54, 0
3, 8416, Note_on_c, 0, 60, 55
3, 8432, Note_on_c, 0, 60, 0
3, 8432, Note_on_c, 0, 59, 53
3, 8440, Note_on_c, 0, 59, 0
3, 8448, Note_on_c, 0, 47, 48
3, 8464, Note_on_c, 0, 47, 0
3, 8464, Note_on_c, 0, 35, 46
3, 8480, Note_on_c, 0, 35, 0
3, 8480, Note_on_c, 0, 47, 48
3, 8496, Note_on_c, 0, 47, 0
3, 8496, Note_on_c, 0, 52, 50
3, 8512, Note_on_c, 0, 52, 0
3, 8512, Note_on_c, 0, 60, 48
3, 8528, Note_on_c, 0, 60, 0
3, 8528, Note_on_c, 0, 59, 46
3, 8544, Note_on_c, 0, 59, 0
3, 8544, Note_on_c, 0, 58, 50
3, 8560, Note_on_c, 0, 58, 0
3, 8560, Note_on_c, 0, 55, 42
3, 8576, Note_on_c, 0, 55, 0
3, 8576, Note_on_c, 0, 52, 38
3, 8592, Note_on_c, 0, 52, 0
3, 8592, Note_on_c, 0, 46, 34
3, 8608, Note_on_c, 0, 46, 0
3, 8608, Note_on_c, 0, 43, 30
3, 8624, Note_on_c, 0, 43, 0
3, 8624, Note_on_c, 0, 34, 32
3, 8640, Note_on_c, 0, 34, 0
3, 8640, Note_on_c, 0, 35, 36
3, 8656, Note_on_c, 0, 35, 0
3, 8656, Note_on_c, 0, 47, 32
3, 8672, Note_on_c, 0, 47, 0
3, 8672, Note_on_c, 0, 52, 34
3, 8688, Note_on_c, 0, 52, 0
3, 8688, Note_on_c, 0, 55, 35
3, 8704, Note_on_c, 0, 55, 0
3, 8704, Note_on_c, 0, 60, 33
3, 8720, Note_on_c, 0, 60, 0
3, 8720, Note_on_c, 0, 59, 25
3, 8728, Note_on_c, 0, 59, 0
3, 8736, Note_on_c, 0, 47, 32
3, 8752, Note_on_c, 0, 47, 0
3, 8752, Note_on_c, 0, 46, 26
3, 8768, Note_on_c, 0, 46, 0
3, 8768, Note_on_c, 0, 47, 27
3, 8784, Note_on_c, 0, 47, 0
3, 8784, Note_on_c, 0, 35, 27
3, 8800, Note_on_c, 0, 35, 0
3, 8800, Note_on_c, 0, 34, 25
3, 8816, Note_on_c, 0, 34, 0
3, 8816, Note_on_c, 0, 35, 26
3, 8832, Note_on_c, 0, 35, 0
3, 8832, Note_on_c, 0, 40, 37
3, 8848, Note_on_c, 0, 40, 0
3, 8848, Note_on_c, 0, 47, 33
3, 8860, Note_on_c, 0, 47, 0
3, 8864, Note_on_c, 0, 59, 28
3, 8880, Note_on_c, 0, 59, 0
3, 8880, Note_on_c, 0, 56, 32
3, 8896, Note_on_c, 0, 56, 0
3, 8896, Note_on_c, 0, 54, 31
3, 8912, Note_on_c, 0, 54, 0
3, 8912, Note_on_c, 0, 52, 30
3, 8928, Note_on_c, 0, 52, 0
3, 8928, Note_on_c, 0, 40, 35
3, 8944, Note_on_c, 0, 40, 0
3, 8944, Note_on_c, 0, 47, 30
3, 8956, Note_on_c, 0, 47, 0
3, 8960, Note_on_c, 0, 59, 32
3, 8976, Note_on_c, 0, 59, 0
3, 8976, Note_on_c, 0, 56, 31
3, 8992, Note_on_c, 0, 56, 0
3, 8992, Note_on_c, 0, 54, 30
3, 9008, Note_on_c, 0, 54, 0
3, 9008, Note_on_c, 0, 52, 27
3, 9024, Note_on_c, 0, 52, 0
3, 9024, Note_on_c, 0, 40, 35
3, 9040, Note_on_c, 0, 40, 0
3, 9040, Note_on_c, 0, 47, 30
3, 9052, Note_on_c, 0, 47, 0
3, 9056, Note_on_c, 0, 59, 31
3, 9072, Note_on_c, 0, 59, 0
3, 9072, Note_on_c, 0, 56, 30
3, 9088, Note_on_c, 0, 56, 0
3, 9088, Note_on_c, 0, 54, 29
3, 9104, Note_on_c, 0, 54, 0
3, 9104, Note_on_c, 0, 52, 28
3, 9120, Note_on_c, 0, 52, 0
3, 9120, Note_on_c, 0, 40, 35
3, 9136, Note_on_c, 0, 40, 0
3, 9136, Note_on_c, 0, 47, 30
3, 9148, Note_on_c, 0, 47, 0
3, 9152, Note_on_c, 0, 59, 31
3, 9168, Note_on_c, 0, 59, 0
3, 9168, Note_on_c, 0, 56, 30
3, 9184, Note_on_c, 0, 56, 0
3, 9184, Note_on_c, 0, 54, 28
3, 9200, Note_on_c, 0, 54, 0
3, 9200, Note_on_c, 0, 52, 24
3, 9216, Note_on_c, 0, 52, 0
3, 9216, Note_on_c, 0, 40, 36
3, 9232, Note_on_c, 0, 40, 0
3, 9232, Note_on_c, 0, 52, 34
3, 9244, Note_on_c, 0, 52, 0
3, 9248, Note_on_c, 0, 61, 37
3, 9264, Note_on_c, 0, 61, 0
3, 9264, Note_on_c, 0, 57, 35
3, 9280, Note_on_c, 0, 57, 0
3, 9280, Note_on_c, 0, 54, 34
3, 9296, Note_on_c, 0, 54, 0
3, 9296, Note_on_c, 0, 52, 33
3, 9312, Note_on_c, 0, 52, 0
3, 9312, Note_on_c, 0, 40, 45
3, 9328, Note_on_c, 0, 40, 0
3, 9328, Note_on_c, 0, 52, 34
3, 9340, Note_on_c, 0, 52, 0
3, 9344, Note_on_c, 0, 61, 35
3, 9360, Note_on_c, 0, 61, 0
3, 9360, Note_on_c, 0, 57, 32
3, 9376, Note_on_c, 0, 57, 0
3, 9376, Note_on_c, 0, 54, 31
3, 9392, Note_on_c, 0, 54, 0
3, 9392, Note_on_c, 0, 52, 30
3, 9408, Note_on_c, 0, 52, 0
3, 9408, Note_on_c, 0, 40, 38
3, 9424, Note_on_c, 0, 40, 0
3, 9424, Note_on_c, 0, 52, 32
3, 9436, Note_on_c, 0, 52, 0
3, 9440, Note_on_c, 0, 60, 37
3, 9456, Note_on_c, 0, 60, 0
3, 9456, Note_on_c, 0, 57, 39
3, 9472, Note_on_c, 0, 57, 0
3, 9472, Note_on_c, 0, 54, 38
3, 9488, Note_on_c, 0, 54, 0
3, 9488, Note_on_c, 0, 52, 37
3, 9504, Note_on_c, 0, 52, 0
3, 9504, Note_on_c, 0, 40, 42
3, 9520, Note_on_c, 0, 40, 0
3, 9520, Note_on_c, 0, 52, 38
3, 9532, Note_on_c, 0, 52, 0
3, 9536, Note_on_c, 0, 60, 36
3, 9552, Note_on_c, 0, 60, 0
3, 9552, Note_on_c, 0, 57, 28
3, 9568, Note_on_c, 0, 57, 0
3, 9568, Note_on_c, 0, 54, 26
3, 9584, Note_on_c, 0, 54, 0
3, 9584, Note_on_c, 0, 52, 24
3, 9600, Note_on_c, 0, 52, 0
3, 9600, Note_on_c, 0, 40, 34
3, 9616, Note_on_c, 0, 40, 0
3, 9616, Note_on_c, 0, 47, 26
3, 9628, Note_on_c, 0, 47, 0
3, 9632, Note_on_c, 0, 59, 31
3, 9648, Note_on_c, 0, 59, 0
3, 9648, Note_on_c, 0, 56, 30
3, 9664, Note_on_c, 0, 56, 0
3, 9664, Note_on_c, 0, 54, 29
3, 9680, Note_on_c, 0, 54, 0
3, 9680, Note_on_c, 0, 52, 28
3, 9696, Note_on_c, 0, 52, 0
3, 9696, Note_on_c, 0, 40, 42
3, 9712, Note_on_c, 0, 40, 0
3, 9712, Note_on_c, 0, 47, 32
3, 9724, Note_on_c, 0, 47, 0
3, 9728, Note_on_c, 0, 59, 31
3, 9744, Note_on_c, 0, 59, 0
3, 9744, Note_on_c, 0, 56, 30
3, 9760, Note_on_c, 0, 56, 0
3, 9760, Note_on_c, 0, 54, 29
3, 9776, Note_on_c, 0, 54, 0
3, 9776, Note_on_c, 0, 52, 28
3, 9792, Note_on_c, 0, 52, 0
3, 9792, Note_on_c, 0, 40, 30
3, 9808, Note_on_c, 0, 40, 0
3, 9808, Note_on_c, 0, 47, 29
3, 9820, Note_on_c, 0, 47, 0
3, 9824, Note_on_c, 0, 59, 30
3, 9840, Note_on_c, 0, 59, 0
3, 9840, Note_on_c, 0, 56, 29
3, 9856, Note_on_c, 0, 56, 0
3, 9856, Note_on_c, 0, 54, 27
3, 9872, Note_on_c, 0, 54, 0
3, 9872, Note_on_c, 0, 52, 23
3, 9888, Note_on_c, 0, 52, 0
3, 9888, Note_on_c, 0, 40, 30
3, 9904, Note_on_c, 0, 40, 0
3, 9904, Note_on_c, 0, 47, 26
3, 9916, Note_on_c, 0, 47, 0
3, 9920, Note_on_c, 0, 59, 29
3, 9936, Note_on_c, 0, 59, 0
3, 9936, Note_on_c, 0, 56, 28
3, 9952, Note_on_c, 0, 56, 0
3, 9952, Note_on_c, 0, 54, 27
3, 9968, Note_on_c, 0, 54, 0
3, 9968, Note_on_c, 0, 52, 26
3, 9984, Note_on_c, 0, 52, 0
3, 9984, Note_on_c, 0, 40, 32
3, 10000, Note_on_c, 0, 40, 0
3, 10000, Note_on_c, 0, 52, 28
3, 10012, Note_on_c, 0, 52, 0
3, 10016, Note_on_c, 0, 61, 29
3, 10032, Note_on_c, 0, 61, 0
3, 10032, Note_on_c, 0, 57, 28
3, 10048, Note_on_c, 0, 57, 0
3, 10048, Note_on_c, 0, 54, 27
3, 10064, Note_on_c, 0, 54, 0
3, 10064, Note_on_c, 0, 52, 26
3, 10080, Note_on_c, 0, 52, 0
3, 10080, Note_on_c, 0, 40, 32
3, 10096, Note_on_c, 0, 40, 0
3, 10096, Note_on_c, 0, 52, 28
3, 10108, Note_on_c, 0, 52, 0
3, 10112, Note_on_c, 0, 61, 29
3, 10128, Note_on_c, 0, 61, 0
3, 10128, Note_on_c, 0, 57, 28
3, 10144, Note_on_c, 0, 57, 0
3, 10144, Note_on_c, 0, 54, 27
3, 10160, Note_on_c, 0, 54, 0
3, 10160, Note_on_c, 0, 52, 26
3, 10176, Note_on_c, 0, 52, 0
3, 10176, Note_on_c, 0, 40, 32
3, 10192, Note_on_c, 0, 40, 0
3, 10192, Note_on_c, 0, 52, 28
3, 10204, Note_on_c, 0, 52, 0
3, 10208, Note_on_c, 0, 60, 29
3, 10224, Note_on_c, 0, 60, 0
3, 10224, Note_on_c, 0, 57, 28
3, 10240, Note_on_c, 0, 57, 0
3, 10240, Note_on_c, 0, 54, 27
3, 10256, Note_on_c, 0, 54, 0
3, 10256, Note_on_c, 0, 52, 26
3, 10272, Note_on_c, 0, 52, 0
3, 10272, Note_on_c, 0, 40, 32
3, 10288, Note_on_c, 0, 40, 0
3, 10288, Note_on_c, 0, 52, 28
3, 10300, Note_on_c, 0, 52, 0
3, 10304, Note_on_c, 0, 60, 29
3, 10320, Note_on_c, 0, 60, 0
3, 10320, Note_on_c, 0, 57, 26
3, 10336, Note_on_c, 0, 57, 0
3, 10336, Note_on_c, 0, 54, 25
3, 10352, Note_on_c, 0, 54, 0
3, 10352, Note_on_c, 0, 52, 24
3, 10368, Note_on_c, 0, 52, 0
3, 10368, Note_on_c, 0, 40, 34
3, 10384, Note_on_c, 0, 40, 0
3, 10384, Note_on_c, 0, 47, 28
3, 10396, Note_on_c, 0, 47, 0
3, 10400, Note_on_c, 0, 59, 29
3, 10416, Note_on_c, 0, 59, 0
3, 10416, Note_on_c, 0, 56, 28
3, 10432, Note_on_c, 0, 56, 0
3, 10432, Note_on_c, 0, 54, 27
3, 10448, Note_on_c, 0, 54, 0
3, 10448, Note_on_c, 0, 52, 26
3, 10464, Note_on_c, 0, 52, 0
3, 10464, Note_on_c, 0, 40, 38
3, 10480, Note_on_c, 0, 40, 0
3, 10480, Note_on_c, 0, 47, 28
3, 10492, Note_on_c, 0, 47, 0
3, 10496, Note_on_c, 0, 59, 29
3, 10512, Note_on_c, 0, 59, 0
3, 10512, Note_on_c, 0, 56, 28
3, 10528, Note_on_c, 0, 56, 0
3, 10528, Note_on_c, 0, 54, 27
3, 10544, Note_on_c, 0, 54, 0
3, 10544, Note_on_c, 0, 52, 26
3, 10560, Note_on_c, 0, 52, 0
3, 10560, Note_on_c, 0, 40, 38
3, 10576, Note_on_c, 0, 40, 0
3, 10576, Note_on_c, 0, 52, 30
3, 10588, Note_on_c, 0, 52, 0
3, 10592, Note_on_c, 0, 60, 31
3, 10608, Note_on_c, 0, 60, 0
3, 10608, Note_on_c, 0, 57, 30
3, 10624, Note_on_c, 0, 57, 0
3, 10624, Note_on_c, 0, 54, 29
3, 10640, Note_on_c, 0, 54, 0
3, 10640, Note_on_c, 0, 52, 27
3, 10656, Note_on_c, 0, 52, 0
3, 10656, Note_on_c, 0, 40, 35
3, 10672, Note_on_c, 0, 40, 0
3, 10672, Note_on_c, 0, 52, 28
3, 10684, Note_on_c, 0, 52, 0
3, 10688, Note_on_c, 0, 60, 29
3, 10704, Note_on_c, 0, 60, 0
3, 10704, Note_on_c, 0, 57, 28
3, 10720, Note_on_c, 0, 57, 0
3, 10720, Note_on_c, 0, 54, 27
3, 10736, Note_on_c, 0, 54, 0
3, 10736, Note_on_c, 0, 52, 26
3, 10752, Note_on_c, 0, 52, 0
3, 10752, Note_on_c, 0, 40, 30
3, 10768, Note_on_c, 0, 40, 0
3, 10768, Note_on_c, 0, 47, 28
3, 10780, Note_on_c, 0, 47, 0
3, 10784, Note_on_c, 0, 59, 35
3, 10800, Note_on_c, 0, 59, 0
3, 10800, Note_on_c, 0, 56, 30
3, 10816, Note_on_c, 0, 56, 0
3, 10816, Note_on_c, 0, 54, 31
3, 10832, Note_on_c, 0, 54, 0
3, 10832, Note_on_c, 0, 52, 30
3, 10848, Note_on_c, 0, 52, 0
3, 10848, Note_on_c, 0, 40, 38
3, 10864, Note_on_c, 0, 40, 0
3, 10864, Note_on_c, 0, 47, 28
3, 10876, Note_on_c, 0, 47, 0
3, 10880, Note_on_c, 0, 59, 30
3, 10896, Note_on_c, 0, 59, 0
3, 10896, Note_on_c, 0, 56, 28
3, 10928, Note_on_c, 0, 56, 0
3, 10928, Note_on_c, 0, 54, 27
3, 10960, Note_on_c, 0, 54, 0
3, 10960, Note_on_c, 0, 52, 25
3, 10992, Note_on_c, 0, 56, 29
3, 10992, Note_on_c, 0, 64, 37
3, 11134, Note_on_c, 0, 64, 0
3, 11134, Note_on_c, 0, 56, 0
3, 11134, Note_on_c, 0, 52, 0
3, 11184, End_track
4, 0, Start_track
4, 0, Title_t, "PEDAL"
4, 0, MIDI_port, 0
4, 192, Control_c, 0, 64, 127
4, 384, Control_c, 0, 64, 127
4, 386, Control_c, 0, 64, 0
4, 392, Control_c, 0, 64, 127
4, 576, Control_c, 0, 64, 127
4, 578, Control_c, 0, 64, 0
4, 584, Control_c, 0, 64, 127
4, 674, Control_c, 0, 64, 0
4, 680, Control_c, 0, 64, 127
4, 768, Control_c, 0, 64, 127
4, 770, Control_c, 0, 64, 0
4, 776, Control_c, 0, 64, 127
4, 866, Control_c, 0, 64, 0
4, 872, Control_c, 0, 64, 127
4, 960, Control_c, 0, 64, 127
4, 962, Control_c, 0, 64, 0
4, 966, Control_c, 0, 64, 127
4, 1010, Control_c, 0, 64, 0
4, 1014, Control_c, 0, 64, 127
4, 1058, Control_c, 0, 64, 0
4, 1064, Control_c, 0, 64, 127
4, 1152, Control_c, 0, 64, 127
4, 1154, Control_c, 0, 64, 0
4, 1160, Control_c, 0, 64, 127
4, 1250, Control_c, 0, 64, 0
4, 1254, Control_c, 0, 64, 127
4, 1344, Control_c, 0, 64, 127
4, 1346, Control_c, 0, 64, 0
4, 1352, Control_c, 0, 64, 127
4, 1442, Control_c, 0, 64, 0
4, 1448, Control_c, 0, 64, 127
4, 1536, Control_c, 0, 64, 127
4, 1538, Control_c, 0, 64, 0
4, 1544, Control_c, 0, 64, 127
4, 1634, Control_c, 0, 64, 0
4, 1640, Control_c, 0, 64, 127
4, 1728, Control_c, 0, 64, 127
4, 1730, Control_c, 0, 64, 0
4, 1736, Control_c, 0, 64, 127
4, 1826, Control_c, 0, 64, 0
4, 1832, Control_c, 0, 64, 127
4, 1920, Control_c, 0, 64, 127
4, 1922, Control_c, 0, 64, 0
4, 1928, Control_c, 0, 64, 127
4, 2018, Control_c, 0, 64, 0
4, 2024, Control_c, 0, 64, 127
4, 2112, Control_c, 0, 64, 127
4, 2114, Control_c, 0, 64, 0
4, 2120, Control_c, 0, 64, 127
4, 2210, Control_c, 0, 64, 0
4, 2216, Control_c, 0, 64, 127
4, 2304, Control_c, 0, 64, 127
4, 2306, Control_c, 0, 64, 0
4, 2312, Control_c, 0, 64, 127
4, 2402, Control_c, 0, 64, 0
4, 2408, Control_c, 0, 64, 127
4, 2496, Control_c, 0, 64, 127
4, 2498, Control_c, 0, 64, 0
4, 2502, Control_c, 0, 64, 127
4, 2546, Control_c, 0, 64, 0
4, 2552, Control_c, 0, 64, 127
4, 2594, Control_c, 0, 64, 0
4, 2600, Control_c, 0, 64, 127
4, 2688, Control_c, 0, 64, 127
4, 2690, Control_c, 0, 64, 0
4, 2696, Control_c, 0, 64, 127
4, 2786, Control_c, 0, 64, 0
4, 2792, Control_c, 0, 64, 127
4, 2880, Control_c, 0, 64, 127
4, 2882, Control_c, 0, 64, 0
4, 2888, Control_c, 0, 64, 127
4, 2978, Control_c, 0, 64, 0
4, 2984, Control_c, 0, 64, 127
4, 3072, Control_c, 0, 64, 127
4, 3074, Control_c, 0, 64, 0
4, 3080, Control_c, 0, 64, 127
4, 3170, Control_c, 0, 64, 0
4, 3176, Control_c, 0, 64, 127
4, 3264, Control_c, 0, 64, 127
4, 3266, Control_c, 0, 64, 0
4, 3272, Control_c, 0, 64, 127
4, 3362, Control_c, 0, 64, 0
4, 3368, Control_c, 0, 64, 127
4, 3456, Control_c, 0, 64, 127
4, 3458, Control_c, 0, 64, 0
4, 3464, Control_c, 0, 64, 127
4, 3554, Control_c, 0, 64, 0
4, 3560, Control_c, 0, 64, 127
4, 3648, Control_c, 0, 64, 127
4, 3650, Control_c, 0, 64, 0
4, 3656, Control_c, 0, 64, 127
4, 3746, Control_c, 0, 64, 0
4, 3752, Control_c, 0, 64, 127
4, 3840, Control_c, 0, 64, 127
4, 3842, Control_c, 0, 64, 0
4, 3848, Control_c, 0, 64, 127
4, 3938, Control_c, 0, 64, 0
4, 3944, Control_c, 0, 64, 127
4, 4032, Control_c, 0, 64, 127
4, 4034, Control_c, 0, 64, 0
4, 4040, Control_c, 0, 64, 127
4, 4130, Control_c, 0, 64, 0
4, 4136, Control_c, 0, 64, 127
4, 4224, Control_c, 0, 64, 127
4, 4226, Control_c, 0, 64, 0
4, 4232, Control_c, 0, 64, 127
4, 4322, Control_c, 0, 64, 0
4, 4328, Control_c, 0, 64, 127
4, 4416, Control_c, 0, 64, 127
4, 4418, Control_c, 0, 64, 0
4, 4424, Control_c, 0, 64, 127
4, 4514, Control_c, 0, 64, 0
4, 4520, Control_c, 0, 64, 127
4, 4608, Control_c, 0, 64, 127
4, 4610, Control_c, 0, 64, 0
4, 4616, Control_c, 0, 64, 127
4, 4706, Control_c, 0, 64, 0
4, 4712, Control_c, 0, 64, 127
4, 4800, Control_c, 0, 64, 127
4, 4802, Control_c, 0, 64, 0
4, 4808, Control_c, 0, 64, 127
4, 4898, Control_c, 0, 64, 0
4, 4904, Control_c, 0, 64, 127
4, 4992, Control_c, 0, 64, 127
4, 4994, Control_c, 0, 64, 0
4, 5000, Control_c, 0, 64, 127
4, 5184, Control_c, 0, 64, 127
4, 5186, Control_c, 0, 64, 0
4, 5192, Control_c, 0, 64, 127
4, 5282, Control_c, 0, 64, 0
4, 5288, Control_c, 0, 64, 127
4, 5376, Control_c, 0, 64, 127
4, 5378, Control_c, 0, 64, 0
4, 5384, Control_c, 0, 64, 127
4, 5474, Control_c, 0, 64, 0
4, 5480, Control_c, 0, 64, 127
4, 5568, Control_c, 0, 64, 127
4, 5570, Control_c, 0, 64, 0
4, 5576, Control_c, 0, 64, 127
4, 5666, Control_c, 0, 64, 0
4, 5672, Control_c, 0, 64, 127
4, 5760, Control_c, 0, 64, 127
4, 5856, Control_c, 0, 64, 0
4, 5952, Control_c, 0, 64, 127
4, 6050, Control_c, 0, 64, 0
4, 6056, Control_c, 0, 64, 127
4, 6144, Control_c, 0, 64, 127
4, 6146, Control_c, 0, 64, 0
4, 6152, Control_c, 0, 64, 127
4, 6242, Control_c, 0, 64, 0
4, 6248, Control_c, 0, 64, 127
4, 6336, Control_c, 0, 64, 127
4, 6338, Control_c, 0, 64, 0
4, 6344, Control_c, 0, 64, 127
4, 6434, Control_c, 0, 64, 0
4, 6440, Control_c, 0, 64, 127
4, 6528, Control_c, 0, 64, 127
4, 6530, Control_c, 0, 64, 0
4, 6536, Control_c, 0, 64, 127
4, 6578, Control_c, 0, 64, 0
4, 6584, Control_c, 0, 64, 127
4, 6626, Control_c, 0, 64, 0
4, 6632, Control_c, 0, 64, 127
4, 6720, Control_c, 0, 64, 127
4, 6722, Control_c, 0, 64, 0
4, 6728, Control_c, 0, 64, 127
4, 6758, Control_c, 0, 64, 0
4, 6814, Control_c, 0, 64, 127
4, 6856, Control_c, 0, 64, 0
4, 6912, Control_c, 0, 64, 127
4, 7010, Control_c, 0, 64, 0
4, 7016, Control_c, 0, 64, 127
4, 7092, Control_c, 0, 64, 0
4, 7104, Control_c, 0, 64, 127
4, 7202, Control_c, 0, 64, 0
4, 7208, Control_c, 0, 64, 127
4, 7296, Control_c, 0, 64, 127
4, 7298, Control_c, 0, 64, 0
4, 7302, Control_c, 0, 64, 127
4, 7392, Control_c, 0, 64, 0
4, 7488, Control_c, 0, 64, 127
4, 7586, Control_c, 0, 64, 0
4, 7592, Control_c, 0, 64, 127
4, 7680, Control_c, 0, 64, 127
4, 7682, Control_c, 0, 64, 0
4, 7688, Control_c, 0, 64, 127
4, 7778, Control_c, 0, 64, 0
4, 7784, Control_c, 0, 64, 127
4, 7872, Control_c, 0, 64, 127
4, 7874, Control_c, 0, 64, 0
4, 7880, Control_c, 0, 64, 127
4, 7970, Control_c, 0, 64, 0
4, 7976, Control_c, 0, 64, 127
4, 8064, Control_c, 0, 64, 127
4, 8066, Control_c, 0, 64, 0
4, 8072, Control_c, 0, 64, 127
4, 8114, Control_c, 0, 64, 0
4, 8120, Control_c, 0, 64, 127
4, 8162, Control_c, 0, 64, 0
4, 8168, Control_c, 0, 64, 127
4, 8256, Control_c, 0, 64, 0
4, 8448, Control_c, 0, 64, 0
4, 8546, Control_c, 0, 64, 127
4, 8640, Control_c, 0, 64, 127
4, 8642, Control_c, 0, 64, 0
4, 8648, Control_c, 0, 64, 127
4, 8738, Control_c, 0, 64, 0
4, 8744, Control_c, 0, 64, 127
4, 8832, Control_c, 0, 64, 127
4, 8834, Control_c, 0, 64, 0
4, 8840, Control_c, 0, 64, 127
4, 9024, Control_c, 0, 64, 127
4, 9026, Control_c, 0, 64, 0
4, 9032, Control_c, 0, 64, 127
4, 9216, Control_c, 0, 64, 127
4, 9218, Control_c, 0, 64, 0
4, 9224, Control_c, 0, 64, 127
4, 9408, Control_c, 0, 64, 127
4, 9410, Control_c, 0, 64, 0
4, 9416, Control_c, 0, 64, 127
4, 9600, Control_c, 0, 64, 127
4, 9602, Control_c, 0, 64, 0
4, 9608, Control_c, 0, 64, 127
4, 9792, Control_c, 0, 64, 127
4, 9794, Control_c, 0, 64, 0
4, 9800, Control_c, 0, 64, 127
4, 9984, Control_c, 0, 64, 127
4, 9986, Control_c, 0, 64, 0
4, 9992, Control_c, 0, 64, 127
4, 10176, Control_c, 0, 64, 127
4, 10178, Control_c, 0, 64, 0
4, 10184, Control_c, 0, 64, 127
4, 10368, Control_c, 0, 64, 127
4, 10370, Control_c, 0, 64, 0
4, 10376, Control_c, 0, 64, 127
4, 10560, Control_c, 0, 64, 127
4, 10562, Control_c, 0, 64, 0
4, 10568, Control_c, 0, 64, 127
4, 10752, Control_c, 0, 64, 127
4, 10754, Control_c, 0, 64, 0
4, 10760, Control_c, 0, 64, 127
4, 10990, Control_c, 0, 64, 0
4, 10992, Control_c, 0, 64, 0
4, 11184, End_track
0, 0, End_of_file