0, 0, Header, 0, 1, 240
1, 0, Start_track
1, 0, Time_signature, 4, 2, 24, 8
1, 0, Tempo, 500000
1, 0, Program_c, 0, 0
1, 0, Control_c, 0, 7, 127
1, 0, Note_on_c, 0, 56, 85
1, 1, Control_c, 0, 64, 127
1, 4, Note_on_c, 0, 44, 82
1, 427, Note_off_c, 0, 56, 64
1, 1173, Note_on_c, 0, 37, 53
1, 1283, Note_off_c, 0, 44, 64
1, 1323, Control_c, 0, 64, 0
1, 1368, Note_on_c, 0, 49, 72
1, 1436, Note_off_c, 0, 37, 64
1, 1446, Control_c, 0, 64, 127
1, 1477, Note_off_c, 0, 49, 64
1, 1557, Note_on_c, 0, 56, 40
1, 1656, Note_on_c, 0, 61, 49
1, 1666, Note_off_c, 0, 56, 64
1, 1703, Note_off_c, 0, 61, 64
1, 1748, Note_on_c, 0, 64, 58
1, 1824, Note_on_c, 0, 61, 56
1, 1825, Note_off_c, 0, 64, 64
1, 1865, Note_off_c, 0, 61, 64
1, 1890, Note_on_c, 0, 56, 37
1, 1955, Note_on_c, 0, 49, 56
1, 1959, Note_off_c, 0, 56, 64
1, 2022, Note_off_c, 0, 49, 64
1, 2035, Note_on_c, 0, 56, 47
1, 2088, Note_off_c, 0, 56, 64
1, 2094, Note_on_c, 0, 61, 48
1, 2133, Note_off_c, 0, 61, 64
1, 2164, Note_on_c, 0, 64, 49
1, 2199, Note_off_c, 0, 64, 64
1, 2217, Note_on_c, 0, 61, 45
1, 2247, Note_off_c, 0, 61, 64
1, 2269, Note_on_c, 0, 56, 33
1, 2303, Note_off_c, 0, 56, 64
1, 2324, Note_on_c, 0, 49, 51
1, 2356, Note_off_c, 0, 49, 64
1, 2388, Note_on_c, 0, 56, 42
1, 2426, Note_off_c, 0, 56, 64
1, 2451, Note_on_c, 0, 61, 47
1, 2480, Note_off_c, 0, 61, 64
1, 2511, Note_on_c, 0, 64, 45
1, 2544, Note_off_c, 0, 64, 64
1, 2559, Note_on_c, 0, 61, 53
1, 2588, Note_off_c, 0, 61, 64
1, 2609, Note_on_c, 0, 56, 43
1, 2643, Note_off_c, 0, 56, 64
1, 2665, Note_on_c, 0, 49, 52
1, 2697, Note_off_c, 0, 49, 64
1, 2738, Note_on_c, 0, 56, 41
1, 2774, Note_off_c, 0, 56, 64
1, 2795, Note_on_c, 0, 61, 38
1, 2827, Note_off_c, 0, 61, 64
1, 2853, Note_on_c, 0, 64, 43
1, 2895, Note_off_c, 0, 64, 64
1, 2908, Note_on_c, 0, 61, 48
1, 2937, Note_off_c, 0, 61, 64
1, 2962, Note_on_c, 0, 56, 30
1, 3000, Note_off_c, 0, 56, 64
1, 3037, Note_on_c, 0, 49, 42
1, 3060, Control_c, 0, 64, 0
1, 3100, Note_on_c, 0, 68, 54
1, 3133, Note_off_c, 0, 68, 64
1, 3133, Note_on_c, 0, 56, 42
1, 3136, Note_off_c, 0, 49, 64
1, 3144, Note_on_c, 0, 69, 50
1, 3152, Control_c, 0, 64, 127
1, 3185, Note_off_c, 0, 69, 64
1, 3190, Note_on_c, 0, 68, 55
1, 3203, Note_off_c, 0, 56, 64
1, 3213, Note_on_c, 0, 61, 40
1, 3218, Note_off_c, 0, 68, 64
1, 3235, Note_on_c, 0, 67, 69
1, 3244, Note_off_c, 0, 61, 64
1, 3266, Note_on_c, 0, 64, 37
1, 3275, Note_off_c, 0, 67, 64
1, 3275, Note_on_c, 0, 68, 65
1, 3306, Note_off_c, 0, 64, 64
1, 3314, Note_off_c, 0, 68, 64
1, 3315, Note_on_c, 0, 73, 60
1, 3323, Note_on_c, 0, 61, 18
1, 3347, Note_off_c, 0, 73, 64
1, 3354, Note_off_c, 0, 61, 64
1, 3357, Note_on_c, 0, 76, 63
1, 3359, Note_on_c, 0, 56, 13
1, 3382, Control_c, 0, 64, 0
1, 3389, Note_off_c, 0, 56, 64
1, 3400, Note_on_c, 0, 52, 51
1, 3401, Note_on_c, 0, 75, 78
1, 3420, Note_off_c, 0, 76, 64
1, 3441, Note_on_c, 0, 73, 66
1, 3455, Note_on_c, 0, 56, 33
1, 3458, Note_off_c, 0, 75, 64
1, 3474, Note_off_c, 0, 73, 64
1, 3488, Note_on_c, 0, 75, 72
1, 3521, Note_on_c, 0, 61, 41
1, 3524, Note_on_c, 0, 73, 67
1, 3530, Note_off_c, 0, 75, 64
1, 3532, Note_off_c, 0, 56, 64
1, 3543, Control_c, 0, 64, 127
1, 3565, Note_off_c, 0, 61, 64
1, 3569, Note_off_c, 0, 73, 64
1, 3570, Note_on_c, 0, 72, 66
1, 3595, Note_on_c, 0, 64, 44
1, 3609, Note_on_c, 0, 73, 54
1, 3625, Note_off_c, 0, 72, 64
1, 3629, Note_off_c, 0, 64, 64
1, 3647, Note_on_c, 0, 61, 44
1, 3652, Note_off_c, 0, 52, 64
1, 3657, Note_off_c, 0, 73, 64
1, 3657, Note_on_c, 0, 76, 56
1, 3679, Note_off_c, 0, 61, 64
1, 3689, Note_off_c, 0, 76, 64
1, 3701, Note_on_c, 0, 56, 27
1, 3704, Note_on_c, 0, 80, 73
1, 3724, Note_off_c, 0, 80, 64
1, 3763, Note_off_c, 0, 56, 64
1, 3785, Note_on_c, 0, 49, 51
1, 3805, Control_c, 0, 64, 0
1, 3852, Note_on_c, 0, 68, 55
1, 3881, Note_on_c, 0, 56, 47
1, 3882, Note_off_c, 0, 68, 64
1, 3893, Note_on_c, 0, 69, 50
1, 3898, Note_off_c, 0, 49, 64
1, 3920, Control_c, 0, 64, 127
1, 3928, Note_on_c, 0, 68, 43
1, 3929, Note_off_c, 0, 69, 64
1, 3958, Note_on_c, 0, 61, 29
1, 3963, Note_off_c, 0, 56, 64
1, 3971, Note_off_c, 0, 68, 64
1, 3974, Note_on_c, 0, 67, 69
1, 3995, Note_off_c, 0, 61, 64
1, 4006, Note_on_c, 0, 64, 41
1, 4016, Note_off_c, 0, 67, 64
1, 4016, Note_on_c, 0, 68, 59
1, 4042, Note_off_c, 0, 64, 64
1, 4053, Note_on_c, 0, 61, 18
1, 4062, Note_on_c, 0, 73, 60
1, 4065, Note_off_c, 0, 68, 64
1, 4092, Note_off_c, 0, 73, 64
1, 4093, Note_off_c, 0, 61, 64
1, 4093, Note_on_c, 0, 56, 34
1, 4097, Note_on_c, 0, 76, 60
1, 4127, Note_off_c, 0, 56, 64
1, 4135, Control_c, 0, 64, 0
1, 4143, Note_on_c, 0, 75, 79
1, 4144, Note_on_c, 0, 52, 62
1, 4160, Note_off_c, 0, 76, 64
1, 4186, Note_on_c, 0, 73, 66
1, 4193, Note_off_c, 0, 75, 64
1, 4205, Note_on_c, 0, 56, 48
1, 4214, Note_off_c, 0, 73, 64
1, 4225, Note_on_c, 0, 75, 70
1, 4247, Note_off_c, 0, 56, 64
1, 4249, Note_on_c, 0, 61, 53
1, 4258, Control_c, 0, 64, 127
1, 4259, Note_on_c, 0, 73, 63
1, 4260, Note_off_c, 0, 52, 64
1, 4287, Note_off_c, 0, 61, 64
1, 4288, Note_off_c, 0, 75, 64
1, 4301, Note_on_c, 0, 72, 76
1, 4309, Note_off_c, 0, 73, 64
1, 4313, Note_on_c, 0, 64, 54
1, 4343, Note_on_c, 0, 73, 71
1, 4355, Note_on_c, 0, 61, 55
1, 4361, Note_off_c, 0, 72, 64
1, 4372, Note_off_c, 0, 64, 64
1, 4390, Note_on_c, 0, 76, 74
1, 4400, Note_off_c, 0, 73, 64
1, 4406, Note_on_c, 0, 56, 45
1, 4418, Note_off_c, 0, 61, 64
1, 4436, Note_on_c, 0, 80, 82
1, 4442, Note_off_c, 0, 56, 64
1, 4449, Note_off_c, 0, 76, 64
1, 4474, Note_off_c, 0, 80, 64
1, 4492, Note_on_c, 0, 51, 68
1, 4496, Control_c, 0, 64, 0
1, 4552, Note_on_c, 0, 69, 63
1, 4571, Note_on_c, 0, 57, 51
1, 4598, Note_on_c, 0, 73, 65
1, 4604, Note_off_c, 0, 51, 64
1, 4604, Control_c, 0, 64, 127
1, 4613, Note_off_c, 0, 57, 64
1, 4613, Note_off_c, 0, 69, 64
1, 4620, Note_on_c, 0, 61, 55
1, 4639, Note_on_c, 0, 75, 79
1, 4651, Note_off_c, 0, 61, 64
1, 4653, Note_off_c, 0, 73, 64
1, 4678, Note_on_c, 0, 78, 76
1, 4684, Note_on_c, 0, 66, 53
1, 4694, Note_off_c, 0, 78, 64
1, 4700, Note_off_c, 0, 75, 64
1, 4722, Note_on_c, 0, 81, 76
1, 4732, Note_on_c, 0, 61, 52
1, 4748, Note_off_c, 0, 81, 64
1, 4752, Note_off_c, 0, 66, 64
1, 4756, Note_on_c, 0, 85, 85
1, 4777, Note_off_c, 0, 61, 64
1, 4777, Note_on_c, 0, 57, 34
1, 4791, Note_off_c, 0, 85, 64
1, 4791, Note_on_c, 0, 87, 67
1, 4809, Note_off_c, 0, 87, 64
1, 4812, Note_off_c, 0, 57, 64
1, 4829, Note_on_c, 0, 54, 71
1, 4835, Note_on_c, 0, 95, 93
1, 4883, Note_on_c, 0, 93, 80
1, 4895, Note_on_c, 0, 61, 52
1, 4905, Note_off_c, 0, 95, 64
1, 4913, Note_off_c, 0, 54, 64
1, 4918, Note_on_c, 0, 92, 66
1, 4931, Note_off_c, 0, 61, 64
1, 4936, Note_on_c, 0, 63, 59
1, 4944, Note_off_c, 0, 93, 64
1, 4950, Note_on_c, 0, 90, 80
1, 4961, Note_off_c, 0, 63, 64
1, 4970, Note_off_c, 0, 92, 64
1, 4981, Note_off_c, 0, 90, 64
1, 4991, Note_on_c, 0, 69, 52
1, 4994, Note_on_c, 0, 88, 72
1, 5033, Note_on_c, 0, 87, 77
1, 5035, Note_off_c, 0, 69, 64
1, 5043, Note_on_c, 0, 63, 59
1, 5058, Note_off_c, 0, 88, 64
1, 5059, Note_on_c, 0, 61, 66
1, 5064, Note_off_c, 0, 63, 64
1, 5080, Note_on_c, 0, 90, 77
1, 5082, Note_off_c, 0, 61, 64
1, 5094, Note_off_c, 0, 87, 64
1, 5124, Note_on_c, 0, 85, 70
1, 5146, Control_c, 0, 64, 0
1, 5151, Note_off_c, 0, 90, 64
1, 5154, Note_on_c, 0, 44, 75
1, 5160, Note_off_c, 0, 85, 64
1, 5167, Note_on_c, 0, 84, 81
1, 5191, Note_off_c, 0, 84, 64
1, 5202, Note_on_c, 0, 87, 67
1, 5224, Note_on_c, 0, 51, 48
1, 5228, Note_off_c, 0, 44, 64
1, 5230, Note_off_c, 0, 87, 64
1, 5241, Control_c, 0, 64, 127
1, 5250, Note_on_c, 0, 81, 76
1, 5266, Note_off_c, 0, 51, 64
1, 5278, Note_off_c, 0, 81, 64
1, 5278, Note_on_c, 0, 54, 35
1, 5298, Note_on_c, 0, 80, 60
1, 5311, Note_off_c, 0, 54, 64
1, 5320, Note_on_c, 0, 60, 50
1, 5329, Note_off_c, 0, 80, 64
1, 5332, Note_on_c, 0, 78, 62
1, 5366, Note_on_c, 0, 81, 81
1, 5369, Note_off_c, 0, 60, 64
1, 5372, Note_on_c, 0, 54, 38
1, 5376, Note_off_c, 0, 78, 64
1, 5394, Note_off_c, 0, 81, 64
1, 5398, Note_on_c, 0, 76, 64
1, 5403, Note_off_c, 0, 54, 64
1, 5425, Note_on_c, 0, 51, 20
1, 5432, Note_off_c, 0, 76, 64
1, 5439, Note_on_c, 0, 75, 70
1, 5464, Control_c, 0, 64, 0
1, 5470, Note_off_c, 0, 51, 64
1, 5475, Note_on_c, 0, 44, 55
1, 5480, Note_off_c, 0, 75, 64
1, 5487, Note_on_c, 0, 78, 78
1, 5524, Note_on_c, 0, 73, 59
1, 5546, Note_off_c, 0, 78, 64
1, 5551, Note_on_c, 0, 51, 46
1, 5553, Note_off_c, 0, 73, 64
1, 5553, Note_off_c, 0, 44, 64
1, 5572, Control_c, 0, 64, 127
1, 5573, Note_on_c, 0, 72, 47
1, 5589, Note_off_c, 0, 51, 64
1, 5598, Note_on_c, 0, 54, 51
1, 5601, Note_off_c, 0, 72, 64
1, 5602, Note_on_c, 0, 75, 64
1, 5624, Note_off_c, 0, 75, 64
1, 5626, Note_off_c, 0, 54, 64
1, 5650, Note_on_c, 0, 69, 55
1, 5666, Note_on_c, 0, 60, 36
1, 5687, Note_off_c, 0, 69, 64
1, 5698, Note_on_c, 0, 68, 53
1, 5712, Note_off_c, 0, 60, 64
1, 5723, Note_on_c, 0, 54, 49
1, 5725, Note_off_c, 0, 68, 64
1, 5751, Note_on_c, 0, 71, 53
1, 5774, Note_off_c, 0, 54, 64
1, 5787, Note_on_c, 0, 51, 27
1, 5790, Note_off_c, 0, 71, 64
1, 5795, Note_on_c, 0, 69, 53
1, 5802, Control_c, 0, 64, 0
1, 5822, Note_off_c, 0, 51, 64
1, 5846, Note_off_c, 0, 69, 64
1, 5873, Note_on_c, 0, 49, 58
1, 5916, Note_on_c, 0, 68, 53
1, 5941, Note_on_c, 0, 56, 47
1, 5943, Note_off_c, 0, 49, 64
1, 5947, Note_off_c, 0, 68, 64
1, 5952, Note_on_c, 0, 69, 47
1, 5971, Control_c, 0, 64, 127
1, 5985, Note_off_c, 0, 56, 64
1, 5993, Note_off_c, 0, 69, 64
1, 5994, Note_on_c, 0, 68, 40
1, 6007, Note_on_c, 0, 61, 43
1, 6029, Note_off_c, 0, 68, 64
1, 6037, Note_off_c, 0, 61, 64
1, 6038, Note_on_c, 0, 67, 57
1, 6059, Note_on_c, 0, 64, 37
1, 6079, Note_off_c, 0, 67, 64
1, 6082, Note_on_c, 0, 68, 51
1, 6105, Note_on_c, 0, 61, 26
1, 6110, Note_off_c, 0, 64, 64
1, 6113, Note_off_c, 0, 68, 64
1, 6117, Note_on_c, 0, 73, 44
1, 6140, Note_off_c, 0, 61, 64
1, 6146, Note_off_c, 0, 73, 64
1, 6146, Note_on_c, 0, 56, 30
1, 6155, Note_on_c, 0, 76, 58
1, 6182, Note_off_c, 0, 56, 64
1, 6199, Note_off_c, 0, 76, 64
1, 6200, Note_on_c, 0, 75, 67
1, 6204, Note_on_c, 0, 52, 55
1, 6230, Note_off_c, 0, 75, 64
1, 6237, Note_on_c, 0, 73, 50
1, 6263, Note_on_c, 0, 56, 33
1, 6267, Note_off_c, 0, 73, 64
1, 6273, Note_on_c, 0, 75, 57
1, 6302, Control_c, 0, 64, 0
1, 6308, Note_on_c, 0, 61, 49
1, 6314, Note_on_c, 0, 73, 55
1, 6340, Note_off_c, 0, 75, 64
1, 6340, Note_off_c, 0, 56, 64
1, 6361, Note_on_c, 0, 72, 69
1, 6365, Note_off_c, 0, 73, 64
1, 6372, Note_off_c, 0, 61, 64
1, 6380, Note_on_c, 0, 64, 53
1, 6401, Control_c, 0, 64, 127
1, 6403, Note_on_c, 0, 73, 55
1, 6420, Note_off_c, 0, 64, 64
1, 6430, Note_off_c, 0, 72, 64
1, 6431, Note_on_c, 0, 61, 30
1, 6451, Note_off_c, 0, 52, 64
1, 6451, Note_on_c, 0, 76, 56
1, 6455, Note_off_c, 0, 73, 64
1, 6475, Note_on_c, 0, 56, 51
1, 6476, Note_off_c, 0, 61, 64
1, 6481, Note_off_c, 0, 76, 64
1, 6493, Note_on_c, 0, 80, 75
1, 6501, Note_off_c, 0, 56, 64
1, 6512, Note_off_c, 0, 80, 64
1, 6549, Note_on_c, 0, 49, 63
1, 6578, Control_c, 0, 64, 0
1, 6600, Note_on_c, 0, 68, 69
1, 6617, Note_on_c, 0, 56, 44
1, 6624, Note_off_c, 0, 68, 64
1, 6635, Note_on_c, 0, 70, 62
1, 6663, Control_c, 0, 64, 127
1, 6669, Note_on_c, 0, 58, 48
1, 6674, Note_on_c, 0, 68, 53
1, 6675, Note_off_c, 0, 49, 64
1, 6691, Note_off_c, 0, 70, 64
1, 6702, Note_off_c, 0, 56, 64
1, 6717, Note_on_c, 0, 67, 74
1, 6719, Note_off_c, 0, 68, 64
1, 6729, Note_off_c, 0, 58, 64
1, 6732, Note_on_c, 0, 64, 54
1, 6760, Note_on_c, 0, 68, 61
1, 6773, Note_off_c, 0, 67, 64
1, 6791, Note_on_c, 0, 58, 28
1, 6798, Note_on_c, 0, 73, 62
1, 6813, Note_off_c, 0, 64, 64
1, 6818, Note_off_c, 0, 68, 64
1, 6818, Note_on_c, 0, 56, 52
1, 6826, Note_off_c, 0, 58, 64
1, 6834, Note_on_c, 0, 76, 71
1, 6852, Note_off_c, 0, 73, 64
1, 6854, Note_off_c, 0, 56, 64
1, 6878, Control_c, 0, 64, 0
1, 6881, Note_on_c, 0, 52, 70
1, 6889, Note_on_c, 0, 75, 80
1, 6902, Note_off_c, 0, 76, 64
1, 6923, Note_on_c, 0, 73, 69
1, 6936, Note_on_c, 0, 56, 46
1, 6944, Note_off_c, 0, 75, 64
1, 6970, Control_c, 0, 64, 127
1, 6971, Note_on_c, 0, 75, 85
1, 6977, Note_off_c, 0, 73, 64
1, 6995, Note_on_c, 0, 58, 42
1, 7004, Note_off_c, 0, 56, 64
1, 7009, Note_on_c, 0, 73, 74
1, 7028, Note_off_c, 0, 58, 64
1, 7032, Note_off_c, 0, 75, 64
1, 7048, Note_on_c, 0, 61, 57
1, 7055, Note_on_c, 0, 72, 72
1, 7059, Note_off_c, 0, 73, 64
1, 7090, Note_on_c, 0, 73, 68
1, 7103, Note_on_c, 0, 58, 52
1, 7112, Note_off_c, 0, 52, 64
1, 7115, Note_off_c, 0, 72, 64
1, 7133, Note_off_c, 0, 61, 64
1, 7134, Note_on_c, 0, 76, 66
1, 7153, Note_on_c, 0, 56, 50
1, 7160, Note_off_c, 0, 73, 64
1, 7169, Note_off_c, 0, 58, 64
1, 7170, Note_on_c, 0, 80, 81
1, 7186, Note_off_c, 0, 56, 64
1, 7190, Note_off_c, 0, 76, 64
1, 7208, Note_on_c, 0, 51, 57
1, 7223, Control_c, 0, 64, 0
1, 7229, Note_on_c, 0, 75, 76
1, 7236, Note_off_c, 0, 80, 64
1, 7266, Note_on_c, 0, 76, 70
1, 7266, Note_on_c, 0, 56, 43
1, 7272, Note_off_c, 0, 75, 64
1, 7307, Note_on_c, 0, 75, 73
1, 7320, Note_off_c, 0, 56, 64
1, 7326, Note_on_c, 0, 59, 48
1, 7331, Note_off_c, 0, 76, 64
1, 7339, Control_c, 0, 64, 127
1, 7350, Note_on_c, 0, 74, 79
1, 7355, Note_off_c, 0, 59, 64
1, 7356, Note_off_c, 0, 75, 64
1, 7389, Note_on_c, 0, 63, 48
1, 7393, Note_on_c, 0, 75, 73
1, 7397, Note_off_c, 0, 74, 64
1, 7444, Note_off_c, 0, 75, 64
1, 7444, Note_on_c, 0, 83, 89
1, 7445, Note_on_c, 0, 59, 42
1, 7453, Note_off_c, 0, 51, 64
1, 7459, Note_off_c, 0, 63, 64
1, 7484, Note_on_c, 0, 82, 79
1, 7501, Note_off_c, 0, 83, 64
1, 7505, Note_on_c, 0, 56, 39
1, 7506, Note_off_c, 0, 59, 64
1, 7531, Control_c, 0, 64, 0
1, 7535, Note_on_c, 0, 80, 81
1, 7542, Note_off_c, 0, 56, 64
1, 7551, Note_off_c, 0, 82, 64
1, 7560, Note_on_c, 0, 51, 61
1, 7586, Note_on_c, 0, 79, 85
1, 7594, Note_off_c, 0, 80, 64
1, 7614, Note_off_c, 0, 79, 64
1, 7632, Note_on_c, 0, 88, 70
1, 7638, Control_c, 0, 64, 127
1, 7649, Note_on_c, 0, 58, 36
1, 7674, Note_off_c, 0, 51, 64
1, 7681, Note_on_c, 0, 87, 55
1, 7691, Note_off_c, 0, 88, 64
1, 7703, Note_on_c, 0, 61, 41
1, 7706, Note_off_c, 0, 58, 64
1, 7721, Note_on_c, 0, 85, 75
1, 7740, Note_off_c, 0, 61, 64
1, 7740, Note_off_c, 0, 87, 64
1, 7748, Note_off_c, 0, 85, 64
1, 7757, Note_on_c, 0, 83, 99
1, 7762, Note_on_c, 0, 67, 49
1, 7805, Note_off_c, 0, 67, 64
1, 7806, Note_on_c, 0, 82, 77
1, 7818, Note_off_c, 0, 83, 64
1, 7818, Note_on_c, 0, 61, 54
1, 7847, Note_on_c, 0, 80, 72
1, 7849, Note_off_c, 0, 61, 64
1, 7857, Note_on_c, 0, 58, 26
1, 7875, Note_off_c, 0, 82, 64
1, 7893, Note_off_c, 0, 58, 64
1, 7894, Note_on_c, 0, 79, 87
1, 7901, Note_off_c, 0, 80, 64
1, 7919, Note_off_c, 0, 79, 64
1, 7930, Control_c, 0, 64, 0
1, 7941, Note_on_c, 0, 82, 75
1, 7942, Note_on_c, 0, 44, 64
1, 7982, Note_on_c, 0, 80, 76
1, 8001, Note_off_c, 0, 82, 64
1, 8016, Note_on_c, 0, 51, 48
1, 8020, Note_off_c, 0, 44, 64
1, 8030, Control_c, 0, 64, 127
1, 8037, Note_on_c, 0, 83, 93
1, 8043, Note_off_c, 0, 80, 64
1, 8058, Note_off_c, 0, 83, 64
1, 8059, Note_off_c, 0, 51, 64
1, 8073, Note_on_c, 0, 74, 69
1, 8082, Note_on_c, 0, 56, 46
1, 8100, Note_off_c, 0, 74, 64
1, 8114, Note_off_c, 0, 56, 64
1, 8126, Note_on_c, 0, 76, 57
1, 8148, Note_on_c, 0, 59, 44
1, 8155, Note_off_c, 0, 76, 64
1, 8170, Note_on_c, 0, 75, 72
1, 8193, Note_off_c, 0, 75, 64
1, 8193, Note_off_c, 0, 59, 64
1, 8194, Note_on_c, 0, 56, 38
1, 8214, Note_on_c, 0, 80, 73
1, 8227, Note_off_c, 0, 56, 64
1, 8235, Note_off_c, 0, 80, 64
1, 8244, Note_on_c, 0, 70, 68
1, 8250, Note_on_c, 0, 51, 34
1, 8279, Note_off_c, 0, 70, 64
1, 8289, Note_off_c, 0, 51, 64
1, 8301, Note_on_c, 0, 73, 65
1, 8307, Control_c, 0, 64, 0
1, 8312, Note_on_c, 0, 44, 53
1, 8348, Note_on_c, 0, 71, 60
1, 8364, Note_off_c, 0, 73, 64
1, 8383, Note_on_c, 0, 51, 47
1, 8385, Note_off_c, 0, 44, 64
1, 8387, Note_on_c, 0, 75, 62
1, 8404, Note_off_c, 0, 71, 64
1, 8410, Control_c, 0, 64, 127
1, 8425, Note_off_c, 0, 51, 64
1, 8434, Note_off_c, 0, 75, 64
1, 8443, Note_on_c, 0, 67, 67
1, 8443, Note_on_c, 0, 56, 45
1, 8472, Note_off_c, 0, 67, 64
1, 8479, Note_off_c, 0, 56, 64
1, 8498, Note_on_c, 0, 70, 59
1, 8512, Note_on_c, 0, 59, 41
1, 8560, Note_on_c, 0, 68, 51
1, 8567, Note_off_c, 0, 70, 64
1, 8572, Note_on_c, 0, 56, 35
1, 8593, Note_off_c, 0, 59, 64
1, 8604, Note_off_c, 0, 68, 64
1, 8606, Note_off_c, 0, 56, 64
1, 8617, Note_on_c, 0, 67, 55
1, 8627, Note_on_c, 0, 51, 25
1, 8668, Note_off_c, 0, 51, 64
1, 8682, Note_on_c, 0, 68, 68
1, 8687, Note_off_c, 0, 67, 64
1, 8719, Note_off_c, 0, 68, 64
1, 8787, Note_on_c, 0, 68, 78
1, 8814, Note_on_c, 0, 45, 30
1, 8829, Control_c, 0, 64, 0
1, 8873, Note_on_c, 0, 80, 56
1, 8884, Note_on_c, 0, 49, 36
1, 8931, Note_off_c, 0, 80, 64
1, 8937, Note_on_c, 0, 72, 31
1, 8947, Note_on_c, 0, 54, 56
1, 8952, Control_c, 0, 64, 127
1, 8962, Note_off_c, 0, 45, 64
1, 8972, Note_off_c, 0, 68, 64
1, 8973, Note_on_c, 0, 73, 55
1, 8974, Note_off_c, 0, 72, 64
1, 8981, Note_off_c, 0, 49, 64
1, 9002, Note_off_c, 0, 54, 64
1, 9011, Note_on_c, 0, 66, 82
1, 9019, Note_off_c, 0, 73, 64
1, 9030, Note_on_c, 0, 57, 40
1, 9060, Note_on_c, 0, 78, 72
1, 9087, Note_on_c, 0, 54, 53
1, 9101, Note_on_c, 0, 72, 44
1, 9128, Note_off_c, 0, 78, 64
1, 9135, Note_off_c, 0, 54, 64
1, 9138, Note_off_c, 0, 72, 64
1, 9139, Note_on_c, 0, 73, 60
1, 9143, Note_on_c, 0, 49, 36
1, 9160, Note_off_c, 0, 66, 64
1, 9186, Note_off_c, 0, 49, 64
1, 9186, Note_off_c, 0, 73, 64
1, 9199, Note_on_c, 0, 65, 87
1, 9205, Note_off_c, 0, 57, 64
1, 9213, Control_c, 0, 64, 0
1, 9218, Note_on_c, 0, 45, 32
1, 9250, Note_on_c, 0, 77, 73
1, 9293, Note_on_c, 0, 49, 44
1, 9313, Control_c, 0, 64, 127
1, 9315, Note_on_c, 0, 72, 48
1, 9329, Note_off_c, 0, 77, 64
1, 9334, Note_on_c, 0, 54, 61
1, 9336, Note_off_c, 0, 65, 64
1, 9337, Note_on_c, 0, 73, 54
1, 9343, Note_off_c, 0, 45, 64
1, 9344, Note_off_c, 0, 72, 64
1, 9361, Note_off_c, 0, 49, 64
1, 9366, Note_off_c, 0, 73, 64
1, 9372, Note_off_c, 0, 54, 64
1, 9379, Note_on_c, 0, 66, 86
1, 9398, Note_on_c, 0, 57, 41
1, 9422, Note_on_c, 0, 78, 70
1, 9449, Note_on_c, 0, 54, 65
1, 9457, Note_on_c, 0, 72, 48
1, 9495, Note_off_c, 0, 78, 64
1, 9495, Note_on_c, 0, 49, 49
1, 9499, Note_off_c, 0, 72, 64
1, 9500, Note_on_c, 0, 73, 36
1, 9508, Note_off_c, 0, 66, 64
1, 9512, Note_off_c, 0, 54, 64
1, 9524, Note_off_c, 0, 49, 64
1, 9529, Note_off_c, 0, 73, 64
1, 9553, Note_on_c, 0, 47, 71
1, 9565, Note_on_c, 0, 61, 84
1, 9574, Control_c, 0, 64, 0
1, 9594, Note_off_c, 0, 57, 64
1, 9621, Note_on_c, 0, 73, 54
1, 9653, Note_on_c, 0, 54, 68
1, 9658, Note_on_c, 0, 66, 46
1, 9686, Note_off_c, 0, 47, 64
1, 9689, Control_c, 0, 64, 127
1, 9695, Note_off_c, 0, 61, 64
1, 9701, Note_on_c, 0, 57, 58
1, 9704, Note_on_c, 0, 69, 51
1, 9707, Note_off_c, 0, 73, 64
1, 9724, Note_off_c, 0, 54, 64
1, 9726, Note_off_c, 0, 66, 64
1, 9756, Note_on_c, 0, 63, 82
1, 9758, Note_off_c, 0, 57, 64
1, 9762, Note_on_c, 0, 59, 51
1, 9774, Note_off_c, 0, 69, 64
1, 9801, Note_on_c, 0, 75, 68
1, 9812, Note_on_c, 0, 57, 31
1, 9831, Note_off_c, 0, 59, 64
1, 9845, Note_on_c, 0, 66, 46
1, 9858, Note_on_c, 0, 54, 76
1, 9865, Note_off_c, 0, 57, 64
1, 9878, Note_off_c, 0, 54, 64
1, 9886, Note_off_c, 0, 75, 64
1, 9894, Note_on_c, 0, 69, 46
1, 9914, Note_off_c, 0, 63, 64
1, 9926, Note_off_c, 0, 69, 64
1, 9931, Note_off_c, 0, 66, 64
1, 9963, Note_on_c, 0, 40, 101
1, 9984, Note_on_c, 0, 64, 80
1, 10005, Control_c, 0, 64, 0
1, 10059, Note_on_c, 0, 76, 64
1, 10085, Note_on_c, 0, 47, 76
1, 10086, Note_off_c, 0, 40, 64
1, 10096, Control_c, 0, 64, 127
1, 10102, Note_on_c, 0, 68, 59
1, 10110, Note_off_c, 0, 64, 64
1, 10117, Note_off_c, 0, 76, 64
1, 10130, Note_off_c, 0, 47, 64
1, 10149, Note_on_c, 0, 71, 64
1, 10159, Note_on_c, 0, 52, 55
1, 10166, Note_off_c, 0, 68, 64
1, 10171, Note_off_c, 0, 71, 64
1, 10186, Note_off_c, 0, 52, 64
1, 10192, Note_on_c, 0, 68, 90
1, 10207, Note_on_c, 0, 56, 64
1, 10244, Note_on_c, 0, 80, 78
1, 10265, Note_off_c, 0, 56, 64
1, 10268, Note_off_c, 0, 68, 64
1, 10269, Note_on_c, 0, 52, 71
1, 10288, Note_on_c, 0, 71, 67
1, 10297, Note_off_c, 0, 80, 64
1, 10318, Note_on_c, 0, 47, 45
1, 10319, Note_off_c, 0, 52, 64
1, 10332, Note_off_c, 0, 71, 64
1, 10333, Note_on_c, 0, 76, 65
1, 10357, Note_off_c, 0, 47, 64
1, 10360, Note_on_c, 0, 45, 86
1, 10361, Note_off_c, 0, 76, 64
1, 10363, Note_on_c, 0, 68, 93
1, 10373, Control_c, 0, 64, 0
1, 10414, Note_on_c, 0, 80, 65
1, 10435, Note_on_c, 0, 49, 71
1, 10447, Note_on_c, 0, 72, 56
1, 10467, Note_off_c, 0, 80, 64
1, 10473, Control_c, 0, 64, 127
1, 10482, Note_on_c, 0, 54, 70
1, 10490, Note_on_c, 0, 73, 68
1, 10497, Note_off_c, 0, 68, 64
1, 10497, Note_off_c, 0, 45, 64
1, 10515, Note_off_c, 0, 72, 64
1, 10522, Note_off_c, 0, 49, 64
1, 10531, Note_on_c, 0, 66, 92
1, 10543, Note_on_c, 0, 57, 63
1, 10545, Note_off_c, 0, 54, 64
1, 10562, Note_off_c, 0, 73, 64
1, 10575, Note_on_c, 0, 78, 81
1, 10601, Note_on_c, 0, 54, 64
1, 10605, Note_on_c, 0, 72, 54
1, 10646, Note_on_c, 0, 49, 66
1, 10650, Note_on_c, 0, 73, 69
1, 10659, Note_off_c, 0, 78, 64
1, 10660, Note_off_c, 0, 66, 64
1, 10663, Note_off_c, 0, 54, 64
1, 10665, Note_off_c, 0, 57, 64
1, 10673, Note_off_c, 0, 72, 64
1, 10694, Note_on_c, 0, 45, 85
1, 10705, Note_on_c, 0, 65, 95
1, 10712, Control_c, 0, 64, 0
1, 10715, Note_off_c, 0, 49, 64
1, 10746, Note_off_c, 0, 73, 64
1, 10746, Note_on_c, 0, 77, 76
1, 10783, Note_on_c, 0, 49, 67
1, 10797, Note_on_c, 0, 72, 52
1, 10811, Control_c, 0, 64, 127
1, 10821, Note_on_c, 0, 54, 63
1, 10827, Note_on_c, 0, 73, 50
1, 10828, Note_off_c, 0, 65, 64
1, 10832, Note_off_c, 0, 77, 64
1, 10847, Note_off_c, 0, 49, 64
1, 10854, Note_off_c, 0, 45, 64
1, 10864, Note_off_c, 0, 72, 64
1, 10870, Note_on_c, 0, 66, 90
1, 10881, Note_on_c, 0, 57, 54
1, 10883, Note_off_c, 0, 54, 64
1, 10916, Note_on_c, 0, 78, 74
1, 10918, Note_off_c, 0, 73, 64
1, 10933, Note_on_c, 0, 54, 62
1, 10960, Note_on_c, 0, 72, 40
1, 10982, Note_on_c, 0, 49, 61
1, 10993, Note_on_c, 0, 73, 59
1, 10999, Note_off_c, 0, 78, 64
1, 11000, Note_off_c, 0, 54, 64
1, 11009, Note_off_c, 0, 72, 64
1, 11017, Note_off_c, 0, 66, 64
1, 11018, Note_off_c, 0, 49, 64
1, 11031, Note_on_c, 0, 47, 78
1, 11047, Note_on_c, 0, 65, 91
1, 11049, Control_c, 0, 64, 0
1, 11088, Note_off_c, 0, 57, 64
1, 11089, Note_on_c, 0, 77, 69
1, 11095, Note_off_c, 0, 73, 64
1, 11135, Note_on_c, 0, 54, 70
1, 11146, Note_on_c, 0, 71, 63
1, 11149, Control_c, 0, 64, 127
1, 11167, Note_off_c, 0, 47, 64
1, 11179, Note_off_c, 0, 77, 64
1, 11183, Note_off_c, 0, 65, 64
1, 11184, Note_on_c, 0, 57, 61
1, 11187, Note_on_c, 0, 75, 61
1, 11198, Note_off_c, 0, 71, 64
1, 11208, Note_off_c, 0, 54, 64
1, 11214, Note_off_c, 0, 75, 64
1, 11225, Note_on_c, 0, 66, 90
1, 11239, Note_off_c, 0, 57, 64
1, 11239, Note_on_c, 0, 59, 64
1, 11268, Note_on_c, 0, 78, 73
1, 11284, Note_on_c, 0, 57, 33
1, 11311, Note_off_c, 0, 59, 64
1, 11312, Note_on_c, 0, 71, 65
1, 11324, Note_on_c, 0, 54, 75
1, 11335, Note_off_c, 0, 57, 64
1, 11343, Note_off_c, 0, 66, 64
1, 11344, Note_off_c, 0, 54, 64
1, 11358, Note_on_c, 0, 75, 57
1, 11359, Note_off_c, 0, 78, 64
1, 11388, Note_off_c, 0, 71, 64
1, 11419, Note_on_c, 0, 40, 98
1, 11430, Note_on_c, 0, 69, 73
1, 11441, Control_c, 0, 64, 0
1, 11457, Note_off_c, 0, 75, 64
1, 11508, Note_on_c, 0, 81, 72
1, 11525, Note_off_c, 0, 40, 64
1, 11532, Note_off_c, 0, 81, 64
1, 11533, Note_on_c, 0, 47, 65
1, 11533, Control_c, 0, 64, 127
1, 11560, Note_off_c, 0, 47, 64
1, 11582, Note_on_c, 0, 71, 63
1, 11599, Note_off_c, 0, 69, 64
1, 11602, Note_on_c, 0, 52, 69
1, 11628, Note_off_c, 0, 52, 64
1, 11634, Note_on_c, 0, 76, 46
1, 11639, Note_off_c, 0, 71, 64
1, 11658, Note_off_c, 0, 76, 64
1, 11664, Note_on_c, 0, 56, 56
1, 11666, Note_on_c, 0, 68, 80
1, 11714, Note_on_c, 0, 80, 64
1, 11717, Note_off_c, 0, 56, 64
1, 11725, Note_on_c, 0, 52, 68
1, 11736, Note_off_c, 0, 68, 64
1, 11747, Note_off_c, 0, 80, 64
1, 11756, Note_on_c, 0, 71, 70
1, 11763, Note_off_c, 0, 52, 64
1, 11781, Note_on_c, 0, 47, 21
1, 11814, Note_on_c, 0, 76, 46
1, 11817, Note_off_c, 0, 71, 64
1, 11825, Note_off_c, 0, 47, 64
1, 11828, Note_on_c, 0, 45, 58
1, 11847, Note_off_c, 0, 76, 64
1, 11855, Note_on_c, 0, 68, 71
1, 11956, Control_c, 0, 64, 0
1, 11969, Note_on_c, 0, 80, 86
1, 11988, Note_on_c, 0, 49, 38
1, 12055, Note_on_c, 0, 72, 49
1, 12076, Note_on_c, 0, 54, 49
1, 12086, Control_c, 0, 64, 127
1, 12093, Note_off_c, 0, 49, 64
1, 12124, Note_off_c, 0, 68, 64
1, 12125, Note_on_c, 0, 73, 47
1, 12129, Note_off_c, 0, 72, 64
1, 12133, Note_off_c, 0, 80, 64
1, 12146, Note_off_c, 0, 54, 64
1, 12161, Note_on_c, 0, 57, 37
1, 12167, Note_off_c, 0, 73, 64
1, 12186, Note_on_c, 0, 66, 68
1, 12196, Note_off_c, 0, 45, 64
1, 12233, Note_on_c, 0, 54, 54
1, 12237, Note_on_c, 0, 78, 88
1, 12306, Note_off_c, 0, 54, 64
1, 12307, Note_on_c, 0, 72, 33
1, 12310, Note_on_c, 0, 49, 37
1, 12315, Note_off_c, 0, 66, 64
1, 12334, Note_on_c, 0, 73, 48
1, 12342, Note_off_c, 0, 72, 64
1, 12361, Note_off_c, 0, 57, 64
1, 12368, Note_off_c, 0, 78, 64
1, 12373, Note_off_c, 0, 49, 64
1, 12382, Note_on_c, 0, 45, 54
1, 12395, Note_off_c, 0, 73, 64
1, 12402, Note_on_c, 0, 65, 53
1, 12440, Control_c, 0, 64, 0
1, 12443, Note_on_c, 0, 77, 92
1, 12481, Note_on_c, 0, 49, 45
1, 12503, Note_on_c, 0, 72, 49
1, 12514, Note_off_c, 0, 65, 64
1, 12522, Note_off_c, 0, 49, 64
1, 12530, Note_on_c, 0, 54, 51
1, 12531, Control_c, 0, 64, 127
1, 12535, Note_on_c, 0, 73, 60
1, 12545, Note_off_c, 0, 72, 64
1, 12546, Note_off_c, 0, 77, 64
1, 12553, Note_off_c, 0, 45, 64
1, 12572, Note_off_c, 0, 73, 64
1, 12582, Note_on_c, 0, 66, 59
1, 12587, Note_off_c, 0, 54, 64
1, 12600, Note_on_c, 0, 57, 40
1, 12617, Note_on_c, 0, 78, 86
1, 12660, Note_on_c, 0, 54, 60
1, 12668, Note_on_c, 0, 72, 48
1, 12686, Note_off_c, 0, 66, 64
1, 12695, Note_on_c, 0, 49, 58
1, 12699, Note_off_c, 0, 54, 64
1, 12703, Note_off_c, 0, 72, 64
1, 12704, Note_on_c, 0, 73, 51
1, 12712, Note_off_c, 0, 78, 64
1, 12729, Note_off_c, 0, 73, 64
1, 12730, Note_off_c, 0, 49, 64
1, 12763, Note_on_c, 0, 47, 58
1, 12775, Note_on_c, 0, 61, 72
1, 12801, Control_c, 0, 64, 0
1, 12821, Note_off_c, 0, 57, 64
1, 12828, Note_on_c, 0, 73, 84
1, 12881, Note_on_c, 0, 54, 64
1, 12886, Note_on_c, 0, 66, 48
1, 12895, Note_off_c, 0, 61, 64
1, 12906, Note_off_c, 0, 47, 64
1, 12906, Control_c, 0, 64, 127
1, 12931, Note_on_c, 0, 57, 52
1, 12939, Note_on_c, 0, 69, 48
1, 12945, Note_off_c, 0, 66, 64
1, 12948, Note_off_c, 0, 54, 64
1, 12950, Note_off_c, 0, 73, 64
1, 12971, Note_off_c, 0, 69, 64
1, 12975, Note_on_c, 0, 63, 70
1, 12983, Note_off_c, 0, 57, 64
1, 12994, Note_on_c, 0, 59, 60
1, 13017, Note_on_c, 0, 75, 80
1, 13026, Note_off_c, 0, 63, 64
1, 13052, Note_on_c, 0, 57, 50
1, 13058, Note_on_c, 0, 66, 55
1, 13069, Note_off_c, 0, 59, 64
1, 13090, Note_on_c, 0, 54, 78
1, 13098, Note_off_c, 0, 57, 64
1, 13109, Note_off_c, 0, 54, 64
1, 13111, Note_on_c, 0, 69, 54
1, 13125, Note_off_c, 0, 75, 64
1, 13133, Note_off_c, 0, 66, 64
1, 13141, Note_off_c, 0, 69, 64
1, 13172, Note_on_c, 0, 64, 76
1, 13181, Note_on_c, 0, 40, 77
1, 13193, Control_c, 0, 64, 0
1, 13225, Note_on_c, 0, 76, 86
1, 13249, Note_off_c, 0, 40, 64
1, 13254, Note_on_c, 0, 47, 66
1, 13273, Note_off_c, 0, 64, 64
1, 13274, Note_on_c, 0, 68, 65
1, 13285, Control_c, 0, 64, 127
1, 13288, Note_off_c, 0, 76, 64
1, 13290, Note_off_c, 0, 47, 64
1, 13316, Note_on_c, 0, 71, 71
1, 13319, Note_on_c, 0, 52, 59
1, 13332, Note_off_c, 0, 68, 64
1, 13337, Note_off_c, 0, 71, 64
1, 13343, Note_off_c, 0, 52, 64
1, 13358, Note_on_c, 0, 68, 91
1, 13367, Note_on_c, 0, 56, 74
1, 13382, Note_on_c, 0, 70, 24
1, 13406, Note_on_c, 0, 80, 82
1, 13410, Note_off_c, 0, 68, 64
1, 13411, Note_off_c, 0, 56, 64
1, 13418, Note_off_c, 0, 70, 64
1, 13426, Note_on_c, 0, 52, 72
1, 13451, Note_on_c, 0, 71, 78
1, 13458, Note_off_c, 0, 52, 64
1, 13458, Note_off_c, 0, 80, 64
1, 13469, Note_on_c, 0, 47, 49
1, 13491, Note_on_c, 0, 76, 63
1, 13494, Note_off_c, 0, 71, 64
1, 13517, Note_off_c, 0, 47, 64
1, 13520, Note_on_c, 0, 45, 71
1, 13523, Note_on_c, 0, 68, 85
1, 13536, Note_off_c, 0, 76, 64
1, 13537, Control_c, 0, 64, 0
1, 13571, Note_on_c, 0, 80, 94
1, 13603, Note_on_c, 0, 49, 61
1, 13616, Note_on_c, 0, 72, 64
1, 13637, Note_off_c, 0, 68, 64
1, 13637, Control_c, 0, 64, 127
1, 13651, Note_on_c, 0, 54, 70
1, 13661, Note_on_c, 0, 73, 68
1, 13665, Note_off_c, 0, 80, 64
1, 13679, Note_off_c, 0, 72, 64
1, 13683, Note_off_c, 0, 49, 64
1, 13709, Note_off_c, 0, 45, 64
1, 13713, Note_on_c, 0, 66, 81
1, 13713, Note_on_c, 0, 57, 56
1, 13718, Note_off_c, 0, 54, 64
1, 13724, Note_off_c, 0, 73, 64
1, 13741, Note_on_c, 0, 78, 88
1, 13761, Note_on_c, 0, 54, 60
1, 13778, Note_off_c, 0, 66, 64
1, 13784, Note_on_c, 0, 72, 58
1, 13817, Note_on_c, 0, 49, 59
1, 13821, Note_off_c, 0, 72, 64
1, 13824, Note_on_c, 0, 73, 72
1, 13828, Note_off_c, 0, 54, 64
1, 13843, Note_off_c, 0, 73, 64
1, 13856, Note_off_c, 0, 78, 64
1, 13866, Note_off_c, 0, 57, 64
1, 13870, Note_on_c, 0, 45, 69
1, 13886, Note_off_c, 0, 49, 64
1, 13887, Note_on_c, 0, 75, 87
1, 13961, Control_c, 0, 64, 0
1, 13962, Note_on_c, 0, 87, 93
1, 14005, Note_on_c, 0, 51, 47
1, 14040, Note_on_c, 0, 78, 69
1, 14050, Note_off_c, 0, 75, 64
1, 14060, Control_c, 0, 64, 127
1, 14063, Note_on_c, 0, 54, 64
1, 14084, Note_off_c, 0, 51, 64
1, 14088, Note_on_c, 0, 81, 65
1, 14091, Note_off_c, 0, 87, 64
1, 14098, Note_off_c, 0, 78, 64
1, 14120, Note_off_c, 0, 54, 64
1, 14122, Note_off_c, 0, 45, 64
1, 14126, Note_on_c, 0, 73, 85
1, 14128, Note_on_c, 0, 57, 56
1, 14156, Note_off_c, 0, 81, 64
1, 14172, Note_on_c, 0, 85, 90
1, 14187, Note_off_c, 0, 73, 64
1, 14204, Note_on_c, 0, 54, 55
1, 14223, Note_on_c, 0, 78, 69
1, 14248, Note_off_c, 0, 57, 64
1, 14255, Note_on_c, 0, 51, 60
1, 14261, Note_off_c, 0, 54, 64
1, 14268, Note_off_c, 0, 78, 64
1, 14268, Note_on_c, 0, 81, 69
1, 14281, Note_off_c, 0, 51, 64
1, 14286, Note_off_c, 0, 85, 64
1, 14302, Note_off_c, 0, 81, 64
1, 14314, Note_on_c, 0, 73, 72
1, 14315, Note_on_c, 0, 44, 76
1, 14322, Control_c, 0, 64, 0
1, 14356, Note_on_c, 0, 85, 92
1, 14392, Note_off_c, 0, 73, 64
1, 14405, Note_on_c, 0, 51, 53
1, 14415, Control_c, 0, 64, 127
1, 14418, Note_on_c, 0, 75, 52
1, 14422, Note_off_c, 0, 44, 64
1, 14446, Note_on_c, 0, 78, 70
1, 14450, Note_off_c, 0, 51, 64
1, 14452, Note_on_c, 0, 54, 57
1, 14460, Note_off_c, 0, 75, 64
1, 14475, Note_off_c, 0, 85, 64
1, 14480, Note_off_c, 0, 54, 64
1, 14495, Note_on_c, 0, 72, 79
1, 14506, Note_off_c, 0, 78, 64
1, 14515, Note_on_c, 0, 60, 47
1, 14536, Note_on_c, 0, 84, 94
1, 14548, Note_off_c, 0, 60, 64
1, 14562, Note_off_c, 0, 72, 64
1, 14579, Note_on_c, 0, 54, 56
1, 14583, Note_on_c, 0, 75, 57
1, 14610, Note_off_c, 0, 54, 64
1, 14616, Note_off_c, 0, 84, 64
1, 14616, Note_on_c, 0, 51, 62
1, 14621, Note_on_c, 0, 78, 67
1, 14645, Note_off_c, 0, 75, 64
1, 14659, Note_off_c, 0, 51, 64
1, 14676, Control_c, 0, 64, 0
1, 14681, Note_on_c, 0, 72, 72
1, 14691, Note_off_c, 0, 78, 64
1, 14695, Note_on_c, 0, 44, 60
1, 14730, Note_on_c, 0, 84, 77
1, 14775, Note_on_c, 0, 51, 48
1, 14776, Control_c, 0, 64, 127
1, 14784, Note_off_c, 0, 72, 64
1, 14788, Note_on_c, 0, 75, 45
1, 14792, Note_off_c, 0, 44, 64
1, 14805, Note_off_c, 0, 51, 64
1, 14809, Note_on_c, 0, 54, 52
1, 14815, Note_off_c, 0, 84, 64
1, 14815, Note_on_c, 0, 78, 57
1, 14816, Note_off_c, 0, 75, 64
1, 14847, Note_off_c, 0, 54, 64
1, 14868, Note_on_c, 0, 72, 66
1, 14878, Note_on_c, 0, 60, 51
1, 14887, Note_off_c, 0, 78, 64
1, 14916, Note_on_c, 0, 84, 83
1, 14921, Note_off_c, 0, 60, 64
1, 14929, Note_off_c, 0, 72, 64
1, 14940, Note_on_c, 0, 54, 48
1, 14958, Note_on_c, 0, 75, 43
1, 14979, Note_on_c, 0, 51, 35
1, 14985, Note_off_c, 0, 54, 64
1, 14992, Note_off_c, 0, 84, 64
1, 14993, Note_on_c, 0, 78, 59
1, 15000, Note_off_c, 0, 75, 64
1, 15013, Note_off_c, 0, 51, 64
1, 15034, Note_off_c, 0, 78, 64
1, 15037, Note_on_c, 0, 72, 81
1, 15039, Note_on_c, 0, 45, 86
1, 15089, Note_on_c, 0, 84, 87
1, 15090, Control_c, 0, 64, 0
1, 15135, Note_on_c, 0, 51, 48
1, 15146, Note_on_c, 0, 75, 50
1, 15161, Note_off_c, 0, 72, 64
1, 15166, Note_on_c, 0, 54, 64
1, 15168, Note_on_c, 0, 78, 69
1, 15178, Note_off_c, 0, 84, 64
1, 15179, Note_off_c, 0, 51, 64
1, 15182, Control_c, 0, 64, 127
1, 15183, Note_off_c, 0, 75, 64
1, 15183, Note_off_c, 0, 45, 64
1, 15214, Note_on_c, 0, 71, 91
1, 15224, Note_off_c, 0, 54, 64
1, 15228, Note_on_c, 0, 59, 63
1, 15247, Note_off_c, 0, 78, 64
1, 15258, Note_on_c, 0, 83, 103
1, 15283, Note_on_c, 0, 54, 51
1, 15284, Note_off_c, 0, 71, 64
1, 15306, Note_on_c, 0, 75, 39
1, 15330, Note_off_c, 0, 59, 64
1, 15335, Note_on_c, 0, 78, 69
1, 15336, Note_on_c, 0, 51, 56
1, 15345, Note_off_c, 0, 83, 64
1, 15354, Note_off_c, 0, 75, 64
1, 15360, Note_off_c, 0, 54, 64
1, 15365, Note_off_c, 0, 51, 64
1, 15385, Note_on_c, 0, 71, 85
1, 15394, Note_on_c, 0, 46, 84
1, 15397, Note_off_c, 0, 78, 64
1, 15398, Control_c, 0, 64, 0
1, 15437, Note_on_c, 0, 83, 106
1, 15470, Note_on_c, 0, 51, 63
1, 15487, Note_on_c, 0, 75, 48
1, 15498, Control_c, 0, 64, 127
1, 15499, Note_off_c, 0, 71, 64
1, 15514, Note_on_c, 0, 54, 52
1, 15522, Note_on_c, 0, 78, 61
1, 15525, Note_off_c, 0, 83, 64
1, 15529, Note_off_c, 0, 46, 64
1, 15538, Note_off_c, 0, 75, 64
1, 15544, Note_off_c, 0, 54, 64
1, 15546, Note_off_c, 0, 51, 64
1, 15552, Note_on_c, 0, 70, 72
1, 15555, Note_on_c, 0, 58, 42
1, 15581, Note_off_c, 0, 78, 64
1, 15594, Note_on_c, 0, 82, 79
1, 15626, Note_on_c, 0, 54, 68
1, 15633, Note_off_c, 0, 58, 64
1, 15636, Note_off_c, 0, 70, 64
1, 15647, Note_on_c, 0, 75, 56
1, 15680, Note_on_c, 0, 51, 64
1, 15689, Note_on_c, 0, 78, 62
1, 15698, Note_off_c, 0, 82, 64
1, 15715, Note_off_c, 0, 54, 64
1, 15716, Note_off_c, 0, 75, 64
1, 15727, Note_off_c, 0, 78, 64
1, 15729, Note_on_c, 0, 48, 68
1, 15732, Note_on_c, 0, 70, 69
1, 15735, Note_off_c, 0, 51, 64
1, 15751, Control_c, 0, 64, 0
1, 15771, Note_on_c, 0, 82, 71
1, 15811, Note_on_c, 0, 51, 61
1, 15832, Note_on_c, 0, 75, 40
1, 15849, Note_on_c, 0, 54, 61
1, 15852, Note_off_c, 0, 51, 64
1, 15859, Control_c, 0, 64, 127
1, 15864, Note_on_c, 0, 78, 61
1, 15876, Note_off_c, 0, 75, 64
1, 15882, Note_off_c, 0, 82, 64
1, 15884, Note_off_c, 0, 70, 64
1, 15898, Note_off_c, 0, 54, 64
1, 15919, Note_on_c, 0, 57, 46
1, 15920, Note_on_c, 0, 69, 55
1, 15960, Note_on_c, 0, 81, 71
1, 15961, Note_off_c, 0, 78, 64
1, 15985, Note_on_c, 0, 54, 53
1, 15995, Note_off_c, 0, 48, 64
1, 16005, Note_on_c, 0, 75, 44
1, 16022, Note_off_c, 0, 69, 64
1, 16031, Note_on_c, 0, 51, 39
1, 16038, Note_on_c, 0, 78, 53
1, 16043, Note_off_c, 0, 81, 64
1, 16049, Note_off_c, 0, 75, 64
1, 16059, Note_off_c, 0, 54, 64
1, 16089, Note_on_c, 0, 69, 58
1, 16097, Note_off_c, 0, 51, 64
1, 16099, Note_on_c, 0, 48, 49
1, 16111, Note_off_c, 0, 78, 64
1, 16120, Control_c, 0, 64, 0
1, 16136, Note_off_c, 0, 57, 64
1, 16136, Note_on_c, 0, 81, 69
1, 16168, Note_on_c, 0, 51, 52
1, 16176, Note_on_c, 0, 75, 52
1, 16204, Control_c, 0, 64, 127
1, 16205, Note_on_c, 0, 54, 53
1, 16217, Note_off_c, 0, 69, 64
1, 16217, Note_on_c, 0, 78, 55
1, 16227, Note_off_c, 0, 51, 64
1, 16241, Note_off_c, 0, 75, 64
1, 16241, Note_off_c, 0, 81, 64
1, 16250, Note_off_c, 0, 54, 64
1, 16254, Note_on_c, 0, 69, 54
1, 16262, Note_off_c, 0, 78, 64
1, 16273, Note_on_c, 0, 57, 45
1, 16314, Note_on_c, 0, 81, 74
1, 16325, Note_off_c, 0, 69, 64
1, 16333, Note_on_c, 0, 54, 51
1, 16344, Note_off_c, 0, 48, 64
1, 16346, Note_on_c, 0, 75, 36
1, 16363, Note_on_c, 0, 51, 48
1, 16370, Note_off_c, 0, 54, 64
1, 16374, Note_on_c, 0, 78, 60
1, 16379, Note_off_c, 0, 75, 64
1, 16383, Note_off_c, 0, 81, 64
1, 16402, Note_off_c, 0, 78, 64
1, 16402, Note_off_c, 0, 51, 64
1, 16421, Note_on_c, 0, 72, 64
1, 16425, Note_on_c, 0, 45, 57
1, 16427, Control_c, 0, 64, 0
1, 16477, Note_off_c, 0, 57, 64
1, 16488, Note_on_c, 0, 84, 82
1, 16516, Note_on_c, 0, 51, 49
1, 16541, Note_on_c, 0, 75, 47
1, 16542, Control_c, 0, 64, 127
1, 16555, Note_on_c, 0, 54, 57
1, 16556, Note_off_c, 0, 72, 64
1, 16561, Note_off_c, 0, 84, 64
1, 16563, Note_off_c, 0, 45, 64
1, 16570, Note_on_c, 0, 78, 50
1, 16585, Note_off_c, 0, 75, 64
1, 16588, Note_off_c, 0, 51, 64
1, 16603, Note_off_c, 0, 54, 64
1, 16609, Note_off_c, 0, 78, 64
1, 16617, Note_on_c, 0, 71, 78
1, 16621, Note_on_c, 0, 59, 45
1, 16655, Note_on_c, 0, 83, 97
1, 16682, Note_off_c, 0, 71, 64
1, 16684, Note_on_c, 0, 54, 61
1, 16697, Note_off_c, 0, 59, 64
1, 16703, Note_on_c, 0, 75, 55
1, 16720, Note_off_c, 0, 54, 64
1, 16731, Note_on_c, 0, 51, 23
1, 16732, Note_on_c, 0, 78, 65
1, 16735, Note_off_c, 0, 83, 64
1, 16750, Note_off_c, 0, 75, 64
1, 16765, Note_off_c, 0, 51, 64
1, 16776, Note_on_c, 0, 46, 67
1, 16786, Note_on_c, 0, 71, 78
1, 16787, Control_c, 0, 64, 0
1, 16793, Note_off_c, 0, 78, 64
1, 16835, Note_on_c, 0, 83, 98
1, 16859, Note_on_c, 0, 51, 46
1, 16874, Note_on_c, 0, 75, 42
1, 16880, Note_off_c, 0, 71, 64
1, 16888, Control_c, 0, 64, 127
1, 16895, Note_off_c, 0, 51, 64
1, 16897, Note_on_c, 0, 54, 53
1, 16898, Note_off_c, 0, 83, 64
1, 16916, Note_off_c, 0, 46, 64
1, 16916, Note_on_c, 0, 78, 39
1, 16917, Note_off_c, 0, 75, 64
1, 16927, Note_off_c, 0, 54, 64
1, 16942, Note_on_c, 0, 70, 67
1, 16945, Note_on_c, 0, 58, 36
1, 16956, Note_off_c, 0, 78, 64
1, 16990, Note_on_c, 0, 82, 68
1, 17009, Note_on_c, 0, 54, 60
1, 17012, Note_off_c, 0, 58, 64
1, 17037, Note_off_c, 0, 70, 64
1, 17037, Note_on_c, 0, 75, 46
1, 17064, Note_on_c, 0, 51, 53
1, 17072, Note_on_c, 0, 78, 58
1, 17077, Note_off_c, 0, 82, 64
1, 17078, Note_off_c, 0, 54, 64
1, 17081, Note_off_c, 0, 75, 64
1, 17101, Note_off_c, 0, 51, 64
1, 17105, Note_off_c, 0, 78, 64
1, 17121, Note_on_c, 0, 47, 60
1, 17126, Control_c, 0, 64, 0
1, 17127, Note_on_c, 0, 70, 55
1, 17178, Note_on_c, 0, 82, 59
1, 17206, Note_on_c, 0, 51, 48
1, 17229, Note_on_c, 0, 75, 46
1, 17239, Note_off_c, 0, 51, 64
1, 17246, Note_on_c, 0, 54, 53
1, 17257, Control_c, 0, 64, 127
1, 17270, Note_off_c, 0, 82, 64
1, 17274, Note_off_c, 0, 75, 64
1, 17274, Note_on_c, 0, 78, 49
1, 17281, Note_off_c, 0, 54, 64
1, 17285, Note_off_c, 0, 70, 64
1, 17314, Note_on_c, 0, 57, 38
1, 17324, Note_on_c, 0, 69, 40
1, 17351, Note_off_c, 0, 78, 64
1, 17365, Note_on_c, 0, 81, 62
1, 17372, Note_off_c, 0, 47, 64
1, 17388, Note_on_c, 0, 54, 48
1, 17394, Note_off_c, 0, 69, 64
1, 17417, Note_on_c, 0, 51, 48
1, 17428, Note_on_c, 0, 75, 37
1, 17445, Note_off_c, 0, 81, 64
1, 17446, Note_off_c, 0, 54, 64
1, 17465, Note_off_c, 0, 75, 64
1, 17465, Note_on_c, 0, 78, 49
1, 17497, Note_off_c, 0, 51, 64
1, 17503, Control_c, 0, 64, 0
1, 17509, Note_on_c, 0, 48, 47
1, 17518, Note_off_c, 0, 78, 64
1, 17527, Note_on_c, 0, 69, 41
1, 17530, Note_off_c, 0, 57, 64
1, 17583, Note_on_c, 0, 81, 49
1, 17610, Note_on_c, 0, 51, 40
1, 17655, Note_off_c, 0, 51, 64
1, 17656, Note_on_c, 0, 75, 35
1, 17664, Control_c, 0, 64, 127
1, 17671, Note_on_c, 0, 54, 37
1, 17676, Note_off_c, 0, 69, 64
1, 17681, Note_off_c, 0, 81, 64
1, 17706, Note_off_c, 0, 75, 64
1, 17712, Note_on_c, 0, 78, 31
1, 17725, Note_off_c, 0, 54, 64
1, 17752, Note_on_c, 0, 56, 38
1, 17753, Note_off_c, 0, 78, 64
1, 17753, Note_on_c, 0, 68, 51
1, 17772, Control_c, 0, 64, 0
1, 17810, Note_on_c, 0, 80, 48
1, 17839, Note_on_c, 0, 54, 57
1, 17876, Note_off_c, 0, 68, 64
1, 17879, Note_on_c, 0, 75, 31
1, 17880, Control_c, 0, 64, 127
1, 17886, Note_off_c, 0, 48, 64
1, 17915, Note_off_c, 0, 75, 64
1, 17915, Note_on_c, 0, 51, 40
1, 17916, Note_off_c, 0, 80, 64
1, 17927, Note_on_c, 0, 78, 42
1, 17935, Note_off_c, 0, 54, 64
1, 17953, Note_off_c, 0, 78, 64
1, 17953, Note_off_c, 0, 56, 64
1, 17960, Note_off_c, 0, 51, 64
1, 18022, Note_on_c, 0, 49, 49
1, 18033, Control_c, 0, 64, 0
1, 18057, Note_on_c, 0, 68, 42
1, 18090, Note_off_c, 0, 68, 64
1, 18101, Note_on_c, 0, 69, 45
1, 18113, Note_on_c, 0, 56, 41
1, 18117, Note_off_c, 0, 49, 64
1, 18125, Control_c, 0, 64, 127
1, 18143, Note_off_c, 0, 69, 64
1, 18143, Note_on_c, 0, 68, 42
1, 18148, Note_off_c, 0, 56, 64
1, 18168, Note_on_c, 0, 61, 37
1, 18173, Note_off_c, 0, 68, 64
1, 18192, Note_on_c, 0, 67, 59
1, 18199, Note_off_c, 0, 61, 64
1, 18218, Note_on_c, 0, 64, 39
1, 18238, Note_off_c, 0, 67, 64
1, 18243, Note_on_c, 0, 68, 48
1, 18257, Note_on_c, 0, 61, 30
1, 18268, Note_off_c, 0, 64, 64
1, 18269, Note_on_c, 0, 73, 57
1, 18271, Note_off_c, 0, 68, 64
1, 18295, Note_off_c, 0, 61, 64
1, 18301, Note_on_c, 0, 56, 27
1, 18314, Note_off_c, 0, 73, 64
1, 18317, Note_on_c, 0, 76, 53
1, 18338, Note_off_c, 0, 56, 64
1, 18347, Note_on_c, 0, 52, 67
1, 18363, Control_c, 0, 64, 0
1, 18366, Note_on_c, 0, 75, 73
1, 18388, Note_off_c, 0, 76, 64
1, 18409, Note_on_c, 0, 73, 65
1, 18413, Note_on_c, 0, 56, 43
1, 18422, Note_off_c, 0, 75, 64
1, 18444, Note_off_c, 0, 73, 64
1, 18454, Note_on_c, 0, 75, 70
1, 18465, Note_on_c, 0, 61, 47
1, 18471, Note_off_c, 0, 56, 64
1, 18488, Note_on_c, 0, 73, 59
1, 18519, Note_off_c, 0, 75, 64
1, 18524, Note_off_c, 0, 61, 64
1, 18528, Note_on_c, 0, 64, 57
1, 18531, Note_on_c, 0, 72, 69
1, 18540, Note_off_c, 0, 73, 64
1, 18572, Note_on_c, 0, 73, 66
1, 18581, Note_on_c, 0, 61, 37
1, 18588, Note_off_c, 0, 64, 64
1, 18594, Note_off_c, 0, 72, 64
1, 18601, Note_off_c, 0, 52, 64
1, 18601, Control_c, 0, 64, 127
1, 18616, Note_off_c, 0, 61, 64
1, 18619, Note_on_c, 0, 56, 50
1, 18625, Note_on_c, 0, 76, 49
1, 18632, Note_off_c, 0, 73, 64
1, 18646, Note_off_c, 0, 56, 64
1, 18651, Note_off_c, 0, 76, 64
1, 18652, Note_on_c, 0, 80, 73
1, 18672, Note_off_c, 0, 80, 64
1, 18694, Note_on_c, 0, 49, 55
1, 18709, Control_c, 0, 64, 0
1, 18750, Note_on_c, 0, 68, 64
1, 18774, Note_off_c, 0, 68, 64
1, 18777, Note_on_c, 0, 56, 47
1, 18780, Note_on_c, 0, 69, 53
1, 18796, Note_off_c, 0, 49, 64
1, 18801, Control_c, 0, 64, 127
1, 18821, Note_on_c, 0, 68, 43
1, 18822, Note_off_c, 0, 69, 64
1, 18840, Note_on_c, 0, 61, 52
1, 18846, Note_off_c, 0, 56, 64
1, 18852, Note_off_c, 0, 68, 64
1, 18864, Note_on_c, 0, 67, 70
1, 18873, Note_off_c, 0, 61, 64
1, 18896, Note_on_c, 0, 64, 36
1, 18905, Note_off_c, 0, 67, 64
1, 18912, Note_on_c, 0, 68, 55
1, 18940, Note_off_c, 0, 64, 64
1, 18945, Note_on_c, 0, 73, 62
1, 18948, Note_off_c, 0, 68, 64
1, 18951, Note_on_c, 0, 61, 24
1, 18974, Note_on_c, 0, 56, 38
1, 18981, Note_off_c, 0, 73, 64
1, 18985, Note_off_c, 0, 61, 64
1, 18995, Note_on_c, 0, 76, 50
1, 19001, Control_c, 0, 64, 0
1, 19009, Note_off_c, 0, 56, 64
1, 19026, Note_on_c, 0, 52, 64
1, 19036, Note_off_c, 0, 76, 64
1, 19036, Note_on_c, 0, 75, 75
1, 19076, Note_off_c, 0, 75, 64
1, 19077, Note_on_c, 0, 73, 51
1, 19090, Note_on_c, 0, 56, 35
1, 19106, Note_off_c, 0, 73, 64
1, 19110, Note_on_c, 0, 75, 65
1, 19139, Note_on_c, 0, 61, 47
1, 19146, Note_off_c, 0, 56, 64
1, 19150, Note_on_c, 0, 73, 55
1, 19162, Control_c, 0, 64, 127
1, 19169, Note_off_c, 0, 61, 64
1, 19170, Note_off_c, 0, 75, 64
1, 19194, Note_off_c, 0, 73, 64
1, 19194, Note_on_c, 0, 72, 67
1, 19195, Note_off_c, 0, 52, 64
1, 19197, Note_on_c, 0, 64, 50
1, 19232, Note_on_c, 0, 73, 57
1, 19238, Note_on_c, 0, 61, 47
1, 19255, Note_off_c, 0, 72, 64
1, 19256, Note_off_c, 0, 64, 64
1, 19278, Note_on_c, 0, 76, 51
1, 19280, Note_on_c, 0, 56, 51
1, 19298, Note_off_c, 0, 61, 64
1, 19306, Note_off_c, 0, 73, 64
1, 19312, Note_off_c, 0, 56, 64
1, 19313, Note_on_c, 0, 80, 76
1, 19318, Note_off_c, 0, 76, 64
1, 19336, Note_off_c, 0, 80, 64
1, 19354, Control_c, 0, 64, 0
1, 19358, Note_on_c, 0, 51, 67
1, 19400, Note_on_c, 0, 69, 67
1, 19422, Note_on_c, 0, 57, 52
1, 19440, Note_on_c, 0, 73, 61
1, 19446, Control_c, 0, 64, 127
1, 19452, Note_off_c, 0, 51, 64
1, 19456, Note_off_c, 0, 57, 64
1, 19463, Note_off_c, 0, 69, 64
1, 19467, Note_on_c, 0, 61, 50
1, 19481, Note_on_c, 0, 75, 69
1, 19495, Note_off_c, 0, 73, 64
1, 19496, Note_off_c, 0, 61, 64
1, 19513, Note_on_c, 0, 78, 76
1, 19524, Note_on_c, 0, 66, 55
1, 19531, Note_off_c, 0, 78, 64
1, 19539, Note_off_c, 0, 75, 64
1, 19561, Note_on_c, 0, 81, 82
1, 19575, Note_on_c, 0, 61, 51
1, 19584, Note_off_c, 0, 66, 64
1, 19593, Note_off_c, 0, 81, 64
1, 19602, Note_on_c, 0, 85, 74
1, 19611, Note_on_c, 0, 57, 41
1, 19615, Note_off_c, 0, 61, 64
1, 19633, Note_on_c, 0, 87, 77
1, 19638, Note_off_c, 0, 85, 64
1, 19646, Note_off_c, 0, 57, 64
1, 19652, Note_off_c, 0, 87, 64
1, 19668, Note_on_c, 0, 54, 76
1, 19668, Control_c, 0, 64, 0
1, 19683, Note_on_c, 0, 95, 89
1, 19735, Note_on_c, 0, 93, 78
1, 19743, Note_on_c, 0, 61, 50
1, 19761, Control_c, 0, 64, 127
1, 19768, Note_off_c, 0, 95, 64
1, 19768, Note_off_c, 0, 54, 64
1, 19776, Note_on_c, 0, 92, 66
1, 19782, Note_off_c, 0, 61, 64
1, 19782, Note_on_c, 0, 63, 52
1, 19789, Note_off_c, 0, 93, 64
1, 19812, Note_off_c, 0, 63, 64
1, 19813, Note_on_c, 0, 90, 73
1, 19832, Note_off_c, 0, 92, 64
1, 19836, Note_off_c, 0, 90, 64
1, 19840, Note_on_c, 0, 69, 39
1, 19850, Note_on_c, 0, 88, 78
1, 19884, Note_off_c, 0, 69, 64
1, 19894, Note_on_c, 0, 87, 75
1, 19898, Note_on_c, 0, 63, 44
1, 19905, Note_off_c, 0, 88, 64
1, 19916, Note_on_c, 0, 61, 31
1, 19924, Note_off_c, 0, 63, 64
1, 19941, Note_on_c, 0, 90, 75
1, 19949, Note_off_c, 0, 87, 64
1, 19950, Note_off_c, 0, 61, 64
1, 19966, Note_on_c, 0, 85, 62
1, 19984, Control_c, 0, 64, 0
1, 19997, Note_off_c, 0, 85, 64
1, 19998, Note_off_c, 0, 90, 64
1, 19998, Note_on_c, 0, 44, 69
1, 20012, Note_on_c, 0, 84, 75
1, 20034, Note_on_c, 0, 87, 67
1, 20035, Note_off_c, 0, 84, 64
1, 20066, Note_on_c, 0, 51, 48
1, 20069, Note_off_c, 0, 44, 64
1, 20073, Note_off_c, 0, 87, 64
1, 20076, Control_c, 0, 64, 127
1, 20085, Note_on_c, 0, 81, 73
1, 20103, Note_off_c, 0, 51, 64
1, 20111, Note_off_c, 0, 81, 64
1, 20119, Note_on_c, 0, 54, 34
1, 20130, Note_on_c, 0, 80, 65
1, 20152, Note_off_c, 0, 54, 64
1, 20159, Note_on_c, 0, 60, 51
1, 20167, Note_on_c, 0, 78, 70
1, 20178, Note_off_c, 0, 80, 64
1, 20206, Note_on_c, 0, 81, 75
1, 20207, Note_on_c, 0, 54, 29
1, 20211, Note_off_c, 0, 60, 64
1, 20227, Note_off_c, 0, 78, 64
1, 20230, Note_off_c, 0, 81, 64
1, 20233, Note_on_c, 0, 76, 57
1, 20239, Note_off_c, 0, 54, 64
1, 20253, Note_on_c, 0, 51, 26
1, 20275, Note_on_c, 0, 75, 69
1, 20277, Note_off_c, 0, 76, 64
1, 20291, Control_c, 0, 64, 0
1, 20305, Note_on_c, 0, 44, 59
1, 20310, Note_off_c, 0, 51, 64
1, 20324, Note_on_c, 0, 78, 73
1, 20327, Note_off_c, 0, 75, 64
1, 20359, Note_on_c, 0, 73, 52
1, 20384, Control_c, 0, 64, 127
1, 20385, Note_off_c, 0, 44, 64
1, 20385, Note_on_c, 0, 51, 35
1, 20387, Note_off_c, 0, 78, 64
1, 20398, Note_off_c, 0, 73, 64
1, 20419, Note_on_c, 0, 72, 40
1, 20422, Note_off_c, 0, 51, 64
1, 20432, Note_on_c, 0, 54, 53
1, 20440, Note_on_c, 0, 75, 60
1, 20448, Note_off_c, 0, 72, 64
1, 20458, Note_off_c, 0, 54, 64
1, 20480, Note_off_c, 0, 75, 64
1, 20496, Note_on_c, 0, 60, 40
1, 20500, Note_on_c, 0, 69, 52
1, 20560, Note_on_c, 0, 68, 44
1, 20561, Note_off_c, 0, 69, 64
1, 20562, Note_on_c, 0, 54, 55
1, 20563, Note_off_c, 0, 60, 64
1, 20591, Note_off_c, 0, 68, 64
1, 20595, Note_on_c, 0, 71, 62
1, 20625, Note_off_c, 0, 54, 64
1, 20628, Note_on_c, 0, 51, 32
1, 20648, Note_on_c, 0, 69, 53
1, 20653, Note_off_c, 0, 71, 64
1, 20660, Note_off_c, 0, 51, 64
1, 20691, Control_c, 0, 64, 0
1, 20697, Note_on_c, 0, 49, 58
1, 20725, Note_off_c, 0, 69, 64
1, 20746, Note_on_c, 0, 68, 50
1, 20773, Note_off_c, 0, 68, 64
1, 20773, Note_on_c, 0, 56, 49
1, 20778, Note_on_c, 0, 69, 37
1, 20783, Note_off_c, 0, 49, 64
1, 20799, Control_c, 0, 64, 127
1, 20819, Note_off_c, 0, 56, 64
1, 20820, Note_on_c, 0, 68, 33
1, 20825, Note_off_c, 0, 69, 64
1, 20832, Note_on_c, 0, 61, 27
1, 20852, Note_off_c, 0, 68, 64
1, 20861, Note_on_c, 0, 67, 52
1, 20873, Note_off_c, 0, 61, 64
1, 20886, Note_on_c, 0, 64, 30
1, 20904, Note_on_c, 0, 68, 46
1, 20914, Note_off_c, 0, 67, 64
1, 20922, Note_on_c, 0, 61, 27
1, 20932, Note_off_c, 0, 64, 64
1, 20935, Note_on_c, 0, 73, 51
1, 20947, Note_off_c, 0, 68, 64
1, 20963, Note_off_c, 0, 61, 64
1, 20967, Note_on_c, 0, 56, 30
1, 20971, Note_off_c, 0, 73, 64
1, 20987, Note_on_c, 0, 76, 35
1, 21003, Note_off_c, 0, 56, 64
1, 21026, Note_on_c, 0, 52, 67
1, 21029, Note_on_c, 0, 75, 67
1, 21031, Note_off_c, 0, 76, 64
1, 21037, Control_c, 0, 64, 0
1, 21048, Note_on_c, 0, 73, 61
1, 21053, Note_off_c, 0, 75, 64
1, 21095, Note_off_c, 0, 73, 64
1, 21097, Note_on_c, 0, 56, 39
1, 21101, Note_on_c, 0, 75, 54
1, 21137, Control_c, 0, 64, 127
1, 21137, Note_on_c, 0, 61, 51
1, 21138, Note_off_c, 0, 56, 64
1, 21140, Note_on_c, 0, 73, 51
1, 21153, Note_off_c, 0, 52, 64
1, 21167, Note_off_c, 0, 75, 64
1, 21175, Note_off_c, 0, 61, 64
1, 21179, Note_off_c, 0, 73, 64
1, 21185, Note_on_c, 0, 72, 61
1, 21203, Note_on_c, 0, 64, 47
1, 21223, Note_on_c, 0, 73, 50
1, 21244, Note_off_c, 0, 72, 64
1, 21249, Note_on_c, 0, 61, 48
1, 21253, Note_off_c, 0, 64, 64
1, 21255, Note_on_c, 0, 76, 46
1, 21289, Note_off_c, 0, 61, 64
1, 21289, Note_off_c, 0, 73, 64
1, 21294, Note_on_c, 0, 80, 72
1, 21298, Note_on_c, 0, 56, 8
1, 21305, Note_off_c, 0, 76, 64
1, 21320, Note_off_c, 0, 80, 64
1, 21322, Note_off_c, 0, 56, 64
1, 21337, Control_c, 0, 64, 0
1, 21349, Note_on_c, 0, 76, 66
1, 21354, Note_on_c, 0, 54, 64
1, 21387, Note_on_c, 0, 75, 65
1, 21394, Note_off_c, 0, 76, 64
1, 21419, Note_off_c, 0, 75, 64
1, 21419, Note_on_c, 0, 61, 46
1, 21434, Note_on_c, 0, 76, 39
1, 21444, Control_c, 0, 64, 127
1, 21462, Note_off_c, 0, 54, 64
1, 21465, Note_on_c, 0, 63, 56
1, 21470, Note_off_c, 0, 76, 64
1, 21470, Note_on_c, 0, 75, 60
1, 21491, Note_off_c, 0, 61, 64
1, 21492, Note_off_c, 0, 63, 64
1, 21498, Note_off_c, 0, 75, 64
1, 21508, Note_on_c, 0, 74, 63
1, 21522, Note_on_c, 0, 69, 35
1, 21549, Note_on_c, 0, 75, 54
1, 21558, Note_off_c, 0, 74, 64
1, 21574, Note_on_c, 0, 63, 55
1, 21581, Note_on_c, 0, 78, 69
1, 21582, Note_off_c, 0, 69, 64
1, 21607, Note_off_c, 0, 75, 64
1, 21609, Note_off_c, 0, 63, 64
1, 21610, Note_on_c, 0, 61, 44
1, 21623, Note_off_c, 0, 78, 64
1, 21625, Note_on_c, 0, 81, 76
1, 21641, Note_off_c, 0, 61, 64
1, 21644, Control_c, 0, 64, 0
1, 21660, Note_on_c, 0, 56, 58
1, 21668, Note_on_c, 0, 78, 72
1, 21683, Note_off_c, 0, 81, 64
1, 21712, Note_on_c, 0, 77, 74
1, 21717, Note_off_c, 0, 78, 64
1, 21733, Note_off_c, 0, 77, 64
1, 21733, Note_on_c, 0, 61, 41
1, 21743, Note_on_c, 0, 78, 79
1, 21744, Control_c, 0, 64, 127
1, 21780, Note_off_c, 0, 56, 64
1, 21783, Note_on_c, 0, 65, 48
1, 21786, Note_on_c, 0, 77, 63
1, 21789, Note_off_c, 0, 61, 64
1, 21800, Note_off_c, 0, 78, 64
1, 21822, Note_off_c, 0, 77, 64
1, 21828, Note_on_c, 0, 76, 67
1, 21833, Note_off_c, 0, 65, 64
1, 21842, Note_on_c, 0, 71, 69
1, 21864, Note_on_c, 0, 77, 73
1, 21892, Note_off_c, 0, 76, 64
1, 21898, Note_on_c, 0, 65, 30
1, 21906, Note_on_c, 0, 80, 81
1, 21908, Note_off_c, 0, 71, 64
1, 21914, Note_off_c, 0, 77, 64
1, 21945, Note_on_c, 0, 61, 56
1, 21948, Note_off_c, 0, 65, 64
1, 21951, Note_on_c, 0, 85, 81
1, 21960, Note_off_c, 0, 80, 64
1, 21973, Note_off_c, 0, 85, 64
1, 21980, Note_off_c, 0, 61, 64
1, 22007, Note_on_c, 0, 57, 66
1, 22028, Control_c, 0, 64, 0
1, 22052, Note_on_c, 0, 73, 69
1, 22076, Note_on_c, 0, 61, 54
1, 22085, Note_off_c, 0, 73, 64
1, 22095, Note_on_c, 0, 74, 50
1, 22118, Note_on_c, 0, 73, 64
1, 22120, Note_on_c, 0, 66, 50
1, 22122, Note_off_c, 0, 74, 64
1, 22125, Note_off_c, 0, 61, 64
1, 22143, Control_c, 0, 64, 127
1, 22153, Note_off_c, 0, 66, 64
1, 22158, Note_off_c, 0, 73, 64
1, 22158, Note_on_c, 0, 72, 68
1, 22176, Note_on_c, 0, 69, 46
1, 22184, Note_off_c, 0, 57, 64
1, 22201, Note_on_c, 0, 73, 65
1, 22213, Note_off_c, 0, 72, 64
1, 22226, Note_on_c, 0, 66, 51
1, 22235, Note_on_c, 0, 78, 72
1, 22249, Note_off_c, 0, 69, 64
1, 22253, Note_off_c, 0, 73, 64
1, 22264, Note_on_c, 0, 61, 61
1, 22278, Note_on_c, 0, 81, 78
1, 22280, Note_off_c, 0, 66, 64
1, 22287, Note_off_c, 0, 78, 64
1, 22291, Note_off_c, 0, 61, 64
1, 22304, Control_c, 0, 64, 0
1, 22315, Note_on_c, 0, 56, 69
1, 22320, Note_on_c, 0, 78, 72
1, 22343, Note_off_c, 0, 81, 64
1, 22363, Note_on_c, 0, 77, 70
1, 22367, Note_off_c, 0, 78, 64
1, 22385, Note_off_c, 0, 77, 64
1, 22390, Note_on_c, 0, 61, 51
1, 22398, Note_on_c, 0, 78, 65
1, 22404, Control_c, 0, 64, 127
1, 22416, Note_off_c, 0, 56, 64
1, 22422, Note_off_c, 0, 61, 64
1, 22430, Note_on_c, 0, 77, 59
1, 22434, Note_on_c, 0, 65, 41
1, 22454, Note_off_c, 0, 78, 64
1, 22471, Note_off_c, 0, 65, 64
1, 22475, Note_on_c, 0, 76, 63
1, 22478, Note_off_c, 0, 77, 64
1, 22483, Note_on_c, 0, 71, 75
1, 22510, Note_on_c, 0, 77, 83
1, 22528, Note_off_c, 0, 76, 64
1, 22530, Note_on_c, 0, 65, 32
1, 22534, Note_off_c, 0, 71, 64
1, 22552, Note_on_c, 0, 80, 83
1, 22561, Note_off_c, 0, 77, 64
1, 22574, Note_on_c, 0, 61, 58
1, 22582, Note_off_c, 0, 65, 64
1, 22594, Note_on_c, 0, 85, 72
1, 22603, Note_off_c, 0, 61, 64
1, 22610, Note_off_c, 0, 80, 64
1, 22619, Control_c, 0, 64, 0
1, 22629, Note_on_c, 0, 57, 64
1, 22636, Note_on_c, 0, 80, 88
1, 22653, Note_off_c, 0, 85, 64
1, 22671, Note_on_c, 0, 78, 73
1, 22681, Note_off_c, 0, 80, 64
1, 22704, Note_on_c, 0, 61, 52
1, 22712, Note_on_c, 0, 80, 72
1, 22717, Note_off_c, 0, 78, 64
1, 22718, Control_c, 0, 64, 127
1, 22751, Note_off_c, 0, 57, 64
1, 22751, Note_on_c, 0, 66, 55
1, 22752, Note_on_c, 0, 78, 63
1, 22774, Note_off_c, 0, 61, 64
1, 22781, Note_off_c, 0, 80, 64
1, 22791, Note_off_c, 0, 66, 64
1, 22791, Note_on_c, 0, 77, 78
1, 22804, Note_off_c, 0, 78, 64
1, 22811, Note_on_c, 0, 69, 58
1, 22835, Note_on_c, 0, 78, 76
1, 22855, Note_off_c, 0, 77, 64
1, 22866, Note_on_c, 0, 66, 40
1, 22874, Note_off_c, 0, 69, 64
1, 22874, Note_on_c, 0, 81, 72
1, 22886, Note_on_c, 0, 61, 67
1, 22892, Note_off_c, 0, 66, 64
1, 22908, Note_off_c, 0, 61, 64
1, 22911, Note_off_c, 0, 78, 64
1, 22924, Note_on_c, 0, 85, 83
1, 22937, Note_off_c, 0, 81, 64
1, 22961, Note_off_c, 0, 85, 64
1, 22990, Note_on_c, 0, 81, 78
1, 23009, Note_on_c, 0, 48, 59
1, 23019, Control_c, 0, 64, 0
1, 23033, Note_on_c, 0, 80, 81
1, 23046, Note_off_c, 0, 81, 64
1, 23073, Note_on_c, 0, 81, 87
1, 23080, Note_on_c, 0, 54, 72
1, 23084, Note_off_c, 0, 80, 64
1, 23103, Control_c, 0, 64, 127
1, 23114, Note_on_c, 0, 80, 79
1, 23118, Note_on_c, 0, 56, 70
1, 23121, Note_off_c, 0, 48, 64
1, 23129, Note_off_c, 0, 81, 64
1, 23132, Note_off_c, 0, 54, 64
1, 23146, Note_off_c, 0, 56, 64
1, 23148, Note_on_c, 0, 79, 91
1, 23168, Note_off_c, 0, 80, 64
1, 23178, Note_on_c, 0, 63, 68
1, 23194, Note_on_c, 0, 80, 85
1, 23214, Note_off_c, 0, 79, 64
1, 23225, Note_on_c, 0, 56, 58
1, 23227, Note_on_c, 0, 84, 76
1, 23239, Note_off_c, 0, 63, 64
1, 23262, Note_off_c, 0, 80, 64
1, 23264, Note_on_c, 0, 54, 67
1, 23269, Note_off_c, 0, 56, 64
1, 23270, Note_on_c, 0, 87, 78
1, 23284, Note_off_c, 0, 84, 64
1, 23289, Note_off_c, 0, 54, 64
1, 23315, Note_on_c, 0, 49, 79
1, 23318, Control_c, 0, 64, 0
1, 23322, Note_off_c, 0, 87, 64
1, 23322, Note_on_c, 0, 80, 73
1, 23348, Note_off_c, 0, 80, 64
1, 23352, Note_on_c, 0, 81, 73
1, 23382, Note_on_c, 0, 56, 67
1, 23400, Note_on_c, 0, 80, 63
1, 23415, Note_off_c, 0, 81, 64
1, 23418, Control_c, 0, 64, 127
1, 23419, Note_off_c, 0, 49, 64
1, 23429, Note_off_c, 0, 80, 64
1, 23430, Note_on_c, 0, 79, 82
1, 23451, Note_on_c, 0, 61, 70
1, 23464, Note_off_c, 0, 56, 64
1, 23485, Note_off_c, 0, 61, 64
1, 23486, Note_on_c, 0, 80, 79
1, 23488, Note_off_c, 0, 79, 64
1, 23500, Note_on_c, 0, 64, 61
1, 23509, Note_off_c, 0, 80, 64
1, 23517, Note_on_c, 0, 88, 66
1, 23554, Note_on_c, 0, 61, 75
1, 23563, Note_off_c, 0, 64, 64
1, 23563, Note_on_c, 0, 87, 76
1, 23594, Note_on_c, 0, 56, 49
1, 23597, Note_off_c, 0, 88, 64
1, 23605, Note_on_c, 0, 86, 79
1, 23612, Note_off_c, 0, 61, 64
1, 23625, Note_off_c, 0, 56, 64
1, 23635, Note_off_c, 0, 87, 64
1, 23654, Note_on_c, 0, 51, 92
1, 23662, Note_on_c, 0, 85, 62
1, 23679, Control_c, 0, 64, 0
1, 23686, Note_off_c, 0, 86, 64
1, 23689, Note_off_c, 0, 85, 64
1, 23691, Note_on_c, 0, 84, 83
1, 23717, Note_on_c, 0, 56, 69
1, 23737, Note_on_c, 0, 83, 95
1, 23751, Note_off_c, 0, 84, 64
1, 23761, Note_off_c, 0, 51, 64
1, 23762, Note_on_c, 0, 60, 65
1, 23764, Control_c, 0, 64, 127
1, 23775, Note_on_c, 0, 82, 73
1, 23791, Note_off_c, 0, 56, 64
1, 23795, Note_off_c, 0, 83, 64
1, 23809, Note_on_c, 0, 81, 73
1, 23812, Note_off_c, 0, 60, 64
1, 23814, Note_on_c, 0, 66, 65
1, 23816, Note_off_c, 0, 82, 64
1, 23857, Note_on_c, 0, 60, 54
1, 23858, Note_off_c, 0, 81, 64
1, 23860, Note_on_c, 0, 80, 79
1, 23870, Note_off_c, 0, 66, 64
1, 23890, Note_off_c, 0, 80, 64
1, 23891, Note_on_c, 0, 79, 80
1, 23905, Note_on_c, 0, 56, 70
1, 23923, Note_off_c, 0, 60, 64
1, 23937, Note_off_c, 0, 79, 64
1, 23944, Note_on_c, 0, 78, 76
1, 23968, Note_off_c, 0, 56, 64
1, 23969, Note_off_c, 0, 78, 64
1, 23981, Note_on_c, 0, 52, 102
1, 23984, Note_on_c, 0, 76, 74
1, 23995, Control_c, 0, 64, 0
1, 24012, Note_off_c, 0, 76, 64
1, 24027, Note_on_c, 0, 78, 79
1, 24039, Note_on_c, 0, 56, 75
1, 24062, Note_on_c, 0, 76, 70
1, 24070, Note_off_c, 0, 52, 64
1, 24085, Note_off_c, 0, 78, 64
1, 24094, Note_on_c, 0, 61, 76
1, 24095, Control_c, 0, 64, 127
1, 24107, Note_on_c, 0, 75, 88
1, 24113, Note_off_c, 0, 76, 64
1, 24122, Note_off_c, 0, 56, 64
1, 24151, Note_on_c, 0, 68, 77
1, 24153, Note_on_c, 0, 76, 62
1, 24154, Note_off_c, 0, 61, 64
1, 24162, Note_off_c, 0, 75, 64
1, 24182, Note_off_c, 0, 76, 64
1, 24200, Note_on_c, 0, 61, 61
1, 24201, Note_on_c, 0, 88, 98
1, 24221, Note_off_c, 0, 68, 64
1, 24224, Note_on_c, 0, 56, 64
1, 24235, Note_on_c, 0, 87, 75
1, 24266, Note_on_c, 0, 86, 88
1, 24268, Note_off_c, 0, 61, 64
1, 24274, Note_off_c, 0, 88, 64
1, 24279, Control_c, 0, 64, 0
1, 24283, Note_off_c, 0, 56, 64
1, 24291, Note_on_c, 0, 54, 97
1, 24317, Note_on_c, 0, 85, 76
1, 24335, Note_off_c, 0, 87, 64
1, 24340, Note_off_c, 0, 86, 64
1, 24344, Note_on_c, 0, 61, 82
1, 24349, Note_on_c, 0, 84, 85
1, 24363, Control_c, 0, 64, 127
1, 24371, Note_off_c, 0, 85, 64
1, 24384, Note_off_c, 0, 54, 64
1, 24385, Note_on_c, 0, 83, 106
1, 24388, Note_off_c, 0, 84, 64
1, 24399, Note_on_c, 0, 63, 78
1, 24433, Note_off_c, 0, 61, 64
1, 24433, Note_on_c, 0, 82, 79
1, 24446, Note_on_c, 0, 69, 70
1, 24454, Note_off_c, 0, 83, 64
1, 24460, Note_off_c, 0, 63, 64
1, 24468, Note_on_c, 0, 81, 74
1, 24481, Note_off_c, 0, 82, 64
1, 24491, Note_off_c, 0, 81, 64
1, 24499, Note_on_c, 0, 63, 59
1, 24503, Note_on_c, 0, 80, 85
1, 24531, Note_off_c, 0, 69, 64
1, 24543, Note_on_c, 0, 79, 96
1, 24546, Note_on_c, 0, 61, 59
1, 24554, Note_off_c, 0, 80, 64
1, 24574, Note_off_c, 0, 63, 64
1, 24588, Note_on_c, 0, 78, 92
1, 24599, Note_off_c, 0, 79, 64
1, 24608, Note_off_c, 0, 61, 64
1, 24617, Control_c, 0, 64, 0
1, 24630, Note_off_c, 0, 78, 64
1, 24633, Note_on_c, 0, 68, 98
1, 24633, Note_on_c, 0, 80, 102
1, 24638, Note_on_c, 0, 64, 93
1, 24638, Note_on_c, 0, 56, 89
1, 24643, Note_on_c, 0, 61, 66
1, 24682, Note_off_c, 0, 80, 64
1, 24717, Control_c, 0, 64, 127
1, 24737, Note_off_c, 0, 61, 64
1, 24749, Note_off_c, 0, 68, 64
1, 24759, Note_off_c, 0, 64, 64
1, 24769, Note_off_c, 0, 56, 64
1, 24775, Note_on_c, 0, 92, 100
1, 24827, Note_on_c, 0, 91, 91
1, 24839, Note_off_c, 0, 92, 64
1, 24874, Note_on_c, 0, 90, 89
1, 24884, Note_off_c, 0, 91, 64
1, 24926, Note_on_c, 0, 89, 87
1, 24947, Control_c, 0, 64, 0
1, 24958, Note_off_c, 0, 90, 64
1, 24959, Note_on_c, 0, 88, 89
1, 24967, Note_on_c, 0, 55, 89
1, 24970, Note_off_c, 0, 89, 64
1, 24997, Note_on_c, 0, 61, 83
1, 25004, Note_on_c, 0, 87, 90
1, 25018, Note_off_c, 0, 88, 64
1, 25020, Note_on_c, 0, 64, 83
1, 25022, Note_off_c, 0, 55, 64
1, 25032, Control_c, 0, 64, 127
1, 25044, Note_on_c, 0, 86, 85
1, 25052, Note_on_c, 0, 69, 95
1, 25067, Note_off_c, 0, 61, 64
1, 25079, Note_off_c, 0, 64, 64
1, 25100, Note_on_c, 0, 85, 84
1, 25110, Note_off_c, 0, 69, 64
1, 25118, Note_off_c, 0, 87, 64
1, 25130, Note_off_c, 0, 86, 64
1, 25131, Note_on_c, 0, 84, 82
1, 25148, Note_off_c, 0, 85, 64
1, 25172, Note_on_c, 0, 83, 102
1, 25219, Note_on_c, 0, 82, 72
1, 25241, Note_off_c, 0, 83, 64
1, 25242, Note_off_c, 0, 84, 64
1, 25253, Note_on_c, 0, 81, 77
1, 25274, Note_off_c, 0, 82, 64
1, 25298, Note_on_c, 0, 80, 87
1, 25309, Note_off_c, 0, 81, 64
1, 25337, Note_on_c, 0, 79, 83
1, 25377, Note_off_c, 0, 80, 64
1, 25381, Note_on_c, 0, 78, 84
1, 25408, Note_off_c, 0, 79, 64
1, 25420, Note_on_c, 0, 77, 66
1, 25422, Note_off_c, 0, 78, 64
1, 25449, Note_on_c, 0, 76, 80
1, 25471, Note_off_c, 0, 77, 64
1, 25497, Note_on_c, 0, 75, 79
1, 25514, Note_off_c, 0, 76, 64
1, 25526, Note_on_c, 0, 74, 79
1, 25532, Note_off_c, 0, 75, 64
1, 25552, Note_off_c, 0, 74, 64
1, 25564, Note_on_c, 0, 73, 72
1, 25606, Note_on_c, 0, 72, 83
1, 25635, Note_off_c, 0, 73, 64
1, 25635, Note_on_c, 0, 71, 88
1, 25636, Note_off_c, 0, 72, 64
1, 25674, Note_on_c, 0, 70, 88
1, 25692, Note_off_c, 0, 71, 64
1, 25713, Note_on_c, 0, 69, 69
1, 25751, Note_on_c, 0, 68, 75
1, 25762, Note_off_c, 0, 70, 64
1, 25775, Note_off_c, 0, 69, 64
1, 25776, Note_on_c, 0, 67, 80
1, 25783, Note_off_c, 0, 68, 64
1, 25805, Note_off_c, 0, 67, 64
1, 25827, Note_on_c, 0, 66, 84
1, 25866, Note_on_c, 0, 64, 90
1, 25875, Note_off_c, 0, 66, 64
1, 25897, Note_off_c, 0, 64, 64
1, 25904, Note_on_c, 0, 63, 87
1, 25953, Note_on_c, 0, 61, 83
1, 25956, Note_off_c, 0, 63, 64
1, 25973, Note_off_c, 0, 61, 64
1, 25976, Control_c, 0, 64, 0
1, 26002, Note_on_c, 0, 56, 109
1, 26004, Note_on_c, 0, 44, 112
1, 26007, Note_on_c, 0, 32, 99
1, 26022, Note_off_c, 0, 32, 64
1, 26048, Note_off_c, 0, 56, 64
1, 26052, Note_off_c, 0, 44, 64
1, 26077, Control_c, 0, 64, 127
1, 26300, Note_on_c, 0, 93, 104
1, 26308, Note_on_c, 0, 76, 101
1, 26313, Note_on_c, 0, 64, 99
1, 26360, Note_on_c, 0, 92, 88
1, 26369, Note_off_c, 0, 64, 64
1, 26373, Note_off_c, 0, 93, 64
1, 26378, Note_off_c, 0, 76, 64
1, 26424, Note_off_c, 0, 92, 64
1, 26426, Note_on_c, 0, 100, 93
1, 26476, Note_off_c, 0, 100, 64
1, 26476, Note_on_c, 0, 88, 77
1, 26503, Note_off_c, 0, 88, 64
1, 26528, Note_on_c, 0, 90, 88
1, 26531, Note_on_c, 0, 73, 102
1, 26534, Note_on_c, 0, 61, 103
1, 26577, Note_on_c, 0, 88, 71
1, 26605, Note_off_c, 0, 90, 64
1, 26625, Note_on_c, 0, 97, 80
1, 26629, Note_off_c, 0, 73, 64
1, 26634, Note_off_c, 0, 88, 64
1, 26666, Note_on_c, 0, 85, 76
1, 26674, Note_off_c, 0, 97, 64
1, 26675, Note_off_c, 0, 61, 64
1, 26705, Note_off_c, 0, 85, 64
1, 26724, Note_on_c, 0, 68, 95
1, 26725, Note_on_c, 0, 87, 81
1, 26728, Note_on_c, 0, 56, 92
1, 26774, Note_on_c, 0, 85, 78
1, 26794, Note_off_c, 0, 87, 64
1, 26819, Note_on_c, 0, 92, 77
1, 26821, Note_off_c, 0, 68, 64
1, 26830, Note_off_c, 0, 85, 64
1, 26844, Note_off_c, 0, 92, 64
1, 26852, Note_on_c, 0, 80, 79
1, 26859, Note_off_c, 0, 56, 64
1, 26883, Note_off_c, 0, 80, 64
1, 26918, Note_on_c, 0, 81, 98
1, 26929, Note_on_c, 0, 52, 88
1, 26930, Note_on_c, 0, 64, 97
1, 26972, Note_off_c, 0, 81, 64
1, 26972, Note_on_c, 0, 80, 84
1, 27001, Note_off_c, 0, 64, 64
1, 27021, Note_on_c, 0, 88, 89
1, 27029, Note_off_c, 0, 80, 64
1, 27031, Note_off_c, 0, 52, 64
1, 27040, Note_off_c, 0, 88, 64
1, 27054, Note_on_c, 0, 76, 74
1, 27077, Note_off_c, 0, 76, 64
1, 27088, Note_on_c, 0, 61, 103
1, 27092, Note_on_c, 0, 49, 98
1, 27097, Note_on_c, 0, 78, 89
1, 27148, Note_on_c, 0, 76, 70
1, 27159, Note_off_c, 0, 78, 64
1, 27175, Note_off_c, 0, 61, 64
1, 27178, Note_on_c, 0, 85, 76
1, 27184, Note_off_c, 0, 76, 64
1, 27202, Note_off_c, 0, 49, 64
1, 27213, Note_on_c, 0, 73, 77
1, 27216, Note_off_c, 0, 85, 64
1, 27247, Note_off_c, 0, 73, 64
1, 27252, Note_on_c, 0, 56, 98
1, 27253, Note_on_c, 0, 44, 104
1, 27259, Control_c, 0, 64, 0
1, 27262, Note_on_c, 0, 75, 83
1, 27306, Note_on_c, 0, 73, 65
1, 27333, Note_off_c, 0, 56, 64
1, 27339, Note_off_c, 0, 75, 64
1, 27340, Note_on_c, 0, 80, 70
1, 27344, Control_c, 0, 64, 127
1, 27354, Note_off_c, 0, 44, 64
1, 27360, Note_off_c, 0, 80, 64
1, 27363, Note_on_c, 0, 68, 77
1, 27364, Note_off_c, 0, 73, 64
1, 27366, Note_on_c, 0, 78, 30
1, 27383, Note_off_c, 0, 68, 64
1, 27399, Note_off_c, 0, 78, 64
1, 27413, Note_on_c, 0, 52, 106
1, 27414, Note_on_c, 0, 40, 110
1, 27420, Note_on_c, 0, 69, 72
1, 27458, Note_on_c, 0, 68, 79
1, 27463, Note_off_c, 0, 69, 64
1, 27501, Note_off_c, 0, 52, 64
1, 27505, Note_on_c, 0, 76, 80
1, 27518, Note_off_c, 0, 68, 64
1, 27523, Note_off_c, 0, 76, 64
1, 27527, Note_off_c, 0, 40, 64
1, 27533, Note_on_c, 0, 64, 90
1, 27559, Note_off_c, 0, 64, 64
1, 27574, Note_on_c, 0, 49, 100
1, 27575, Control_c, 0, 64, 0
1, 27578, Note_on_c, 0, 37, 97
1, 27580, Note_on_c, 0, 66, 75
1, 27622, Note_on_c, 0, 64, 81
1, 27643, Note_off_c, 0, 66, 64
1, 27657, Note_on_c, 0, 73, 70
1, 27657, Control_c, 0, 64, 127
1, 27667, Note_off_c, 0, 49, 64
1, 27675, Note_off_c, 0, 64, 64
1, 27689, Note_on_c, 0, 61, 83
1, 27696, Note_off_c, 0, 37, 64
1, 27703, Note_off_c, 0, 73, 64
1, 27733, Note_off_c, 0, 61, 64
1, 27738, Note_on_c, 0, 44, 97
1, 27739, Note_on_c, 0, 32, 95
1, 27742, Note_on_c, 0, 63, 86
1, 27743, Control_c, 0, 64, 0
1, 27782, Note_on_c, 0, 61, 60
1, 27818, Note_on_c, 0, 68, 69
1, 27822, Note_off_c, 0, 63, 64
1, 27843, Control_c, 0, 64, 127
1, 27844, Note_off_c, 0, 61, 64
1, 27852, Note_off_c, 0, 44, 64
1, 27857, Note_on_c, 0, 56, 79
1, 27866, Note_off_c, 0, 32, 64
1, 27901, Note_off_c, 0, 68, 64
1, 27911, Note_on_c, 0, 32, 79
1, 27912, Note_on_c, 0, 63, 76
1, 27914, Note_on_c, 0, 44, 100
1, 27926, Note_off_c, 0, 56, 64
1, 27958, Note_on_c, 0, 61, 70
1, 27998, Note_on_c, 0, 68, 67
1, 28006, Note_off_c, 0, 63, 64
1, 28017, Note_off_c, 0, 44, 64
1, 28018, Note_off_c, 0, 32, 64
1, 28027, Note_on_c, 0, 56, 80
1, 28031, Note_off_c, 0, 61, 64
1, 28058, Note_off_c, 0, 68, 64
1, 28074, Note_off_c, 0, 56, 64
1, 28080, Note_on_c, 0, 63, 79
1, 28086, Note_on_c, 0, 45, 95
1, 28086, Note_on_c, 0, 33, 98
1, 28118, Control_c, 0, 64, 0
1, 28125, Note_on_c, 0, 61, 81
1, 28170, Note_off_c, 0, 63, 64
1, 28171, Note_on_c, 0, 69, 74
1, 28204, Control_c, 0, 64, 127
1, 28205, Note_off_c, 0, 61, 64
1, 28206, Note_off_c, 0, 45, 64
1, 28214, Note_on_c, 0, 57, 82
1, 28220, Note_off_c, 0, 69, 64
1, 28237, Note_off_c, 0, 33, 64
1, 28261, Note_on_c, 0, 44, 96
1, 28261, Note_on_c, 0, 32, 86
1, 28265, Note_on_c, 0, 63, 85
1, 28293, Note_off_c, 0, 57, 64
1, 28312, Note_on_c, 0, 61, 80
1, 28362, Note_off_c, 0, 63, 64
1, 28362, Note_on_c, 0, 68, 79
1, 28392, Note_off_c, 0, 61, 64
1, 28392, Note_off_c, 0, 44, 64
1, 28396, Note_on_c, 0, 56, 86
1, 28416, Note_off_c, 0, 32, 64
1, 28446, Note_on_c, 0, 31, 100
1, 28447, Note_on_c, 0, 43, 96
1, 28450, Control_c, 0, 64, 0
1, 28452, Note_on_c, 0, 63, 81
1, 28458, Note_off_c, 0, 68, 64
1, 28459, Note_off_c, 0, 56, 64
1, 28503, Note_on_c, 0, 61, 74
1, 28550, Control_c, 0, 64, 127
1, 28556, Note_on_c, 0, 67, 82
1, 28567, Note_off_c, 0, 63, 64
1, 28581, Note_off_c, 0, 43, 64
1, 28586, Note_off_c, 0, 61, 64
1, 28592, Note_off_c, 0, 31, 64
1, 28604, Note_on_c, 0, 55, 96
1, 28665, Note_on_c, 0, 44, 97
1, 28667, Note_on_c, 0, 32, 88
1, 28669, Note_on_c, 0, 63, 88
1, 28672, Note_off_c, 0, 55, 64
1, 28691, Note_off_c, 0, 67, 64
1, 28735, Note_on_c, 0, 61, 79
1, 28750, Control_c, 0, 64, 0
1, 28795, Note_on_c, 0, 68, 75
1, 28841, Note_on_c, 0, 56, 82
1, 28845, Note_off_c, 0, 63, 64
1, 28876, Note_off_c, 0, 61, 64
1, 28929, Note_on_c, 0, 63, 81
1, 28934, Control_c, 0, 64, 127
1, 28981, Note_off_c, 0, 68, 64
1, 29017, Note_on_c, 0, 60, 83
1, 29072, Control_c, 0, 64, 0
1, 29122, Note_on_c, 0, 68, 75
1, 29145, Note_off_c, 0, 56, 64
1, 29164, Control_c, 0, 64, 127
1, 29171, Note_off_c, 0, 44, 64
1, 29219, Note_off_c, 0, 60, 64
1, 29232, Note_off_c, 0, 63, 64
1, 29249, Note_on_c, 0, 56, 87
1, 29256, Note_off_c, 0, 32, 64
1, 29350, Note_on_c, 0, 25, 97
1, 29445, Note_off_c, 0, 56, 64
1, 29497, Note_off_c, 0, 68, 64
1, 29533, Control_c, 0, 64, 0
1, 29544, Note_on_c, 0, 37, 99
1, 29611, Note_off_c, 0, 25, 64
1, 29649, Control_c, 0, 64, 127
1, 29669, Note_off_c, 0, 37, 64
1, 29774, Note_on_c, 0, 44, 79
1, 29924, Note_on_c, 0, 49, 78
1, 29954, Note_off_c, 0, 44, 64
1, 30046, Note_on_c, 0, 53, 105
1, 30052, Note_off_c, 0, 49, 64
1, 30155, Note_off_c, 0, 53, 64
1, 30156, Note_on_c, 0, 56, 78
1, 30252, Note_on_c, 0, 61, 83
1, 30341, Note_off_c, 0, 61, 64
1, 30345, Note_on_c, 0, 65, 76
1, 30421, Note_off_c, 0, 56, 64
1, 30440, Note_off_c, 0, 65, 64
1, 30440, Note_on_c, 0, 61, 69
1, 30529, Note_on_c, 0, 56, 60
1, 30530, Note_off_c, 0, 61, 64
1, 30553, Note_off_c, 0, 56, 64
1, 30613, Note_on_c, 0, 53, 92
1, 30674, Note_off_c, 0, 53, 64
1, 30685, Note_on_c, 0, 49, 70
1, 30751, Note_off_c, 0, 49, 64
1, 30757, Note_on_c, 0, 44, 66
1, 30853, Note_on_c, 0, 37, 78
1, 30862, Note_off_c, 0, 44, 64
1, 30960, Note_on_c, 0, 44, 74
1, 30979, Note_off_c, 0, 37, 64
1, 31057, Note_on_c, 0, 49, 64
1, 31075, Note_off_c, 0, 44, 64
1, 31128, Note_off_c, 0, 49, 64
1, 31175, Note_on_c, 0, 53, 54
1, 31214, Note_off_c, 0, 53, 64
1, 31266, Note_on_c, 0, 56, 36
1, 31353, Note_on_c, 0, 61, 49
1, 31364, Note_off_c, 0, 56, 64
1, 31393, Note_off_c, 0, 61, 64
1, 31445, Note_on_c, 0, 65, 39
1, 31519, Note_off_c, 0, 65, 64
1, 31542, Note_on_c, 0, 61, 43
1, 31581, Note_off_c, 0, 61, 64
1, 31633, Note_on_c, 0, 56, 30
1, 31664, Note_off_c, 0, 56, 64
1, 31739, Note_on_c, 0, 53, 53
1, 31770, Note_off_c, 0, 53, 64
1, 31836, Note_on_c, 0, 49, 38
1, 31911, Note_off_c, 0, 49, 64
1, 31952, Note_on_c, 0, 44, 29
1, 32136, Note_on_c, 0, 37, 37
1, 32153, Control_c, 0, 64, 0
1, 32160, Note_on_c, 0, 68, 81
1, 32233, Note_off_c, 0, 44, 64
1, 32238, Note_off_c, 0, 37, 64
1, 32268, Control_c, 0, 64, 127
1, 32355, Note_on_c, 0, 56, 37
1, 32435, Note_off_c, 0, 56, 64
1, 32497, Note_on_c, 0, 60, 18
1, 32547, Note_off_c, 0, 60, 64
1, 32599, Note_on_c, 0, 63, 40
1, 32648, Note_off_c, 0, 63, 64
1, 32704, Note_on_c, 0, 60, 31
1, 32740, Note_off_c, 0, 60, 64
1, 32783, Note_on_c, 0, 56, 18
1, 32809, Note_on_c, 0, 70, 61
1, 32824, Note_off_c, 0, 56, 64
1, 32824, Note_off_c, 0, 68, 64
1, 32832, Note_off_c, 0, 70, 64
1, 32837, Note_on_c, 0, 72, 66
1, 32857, Note_on_c, 0, 70, 70
1, 32871, Note_on_c, 0, 49, 29
1, 32906, Note_off_c, 0, 72, 64
1, 32929, Control_c, 0, 64, 0
1, 32980, Note_on_c, 0, 56, 39
1, 33000, Note_off_c, 0, 49, 64
1, 33006, Control_c, 0, 64, 127
1, 33040, Note_on_c, 0, 68, 76
1, 33074, Note_off_c, 0, 70, 64
1, 33077, Note_off_c, 0, 56, 64
1, 33087, Note_on_c, 0, 60, 25
1, 33130, Note_off_c, 0, 60, 64
1, 33173, Note_on_c, 0, 66, 34
1, 33178, Note_on_c, 0, 73, 83
1, 33211, Note_off_c, 0, 68, 64
1, 33234, Note_off_c, 0, 66, 64
1, 33292, Note_on_c, 0, 60, 32
1, 33326, Note_on_c, 0, 75, 86
1, 33332, Note_off_c, 0, 60, 64
1, 33361, Note_off_c, 0, 73, 64
1, 33383, Note_on_c, 0, 56, 22
1, 33425, Note_off_c, 0, 56, 64
1, 33478, Note_on_c, 0, 49, 30
1, 33498, Control_c, 0, 64, 0
1, 33514, Note_on_c, 0, 77, 80
1, 33548, Note_off_c, 0, 75, 64
1, 33621, Note_on_c, 0, 56, 33
1, 33625, Note_off_c, 0, 49, 64
1, 33628, Control_c, 0, 64, 127
1, 33722, Note_off_c, 0, 56, 64
1, 33728, Note_on_c, 0, 61, 30
1, 33773, Note_off_c, 0, 61, 64
1, 33841, Note_on_c, 0, 65, 30
1, 33926, Note_off_c, 0, 65, 64
1, 33951, Note_on_c, 0, 61, 35
1, 33998, Note_off_c, 0, 61, 64
1, 34052, Note_on_c, 0, 56, 33
1, 34153, Note_off_c, 0, 56, 64
1, 34168, Note_on_c, 0, 49, 21
1, 34172, Note_on_c, 0, 80, 65
1, 34193, Note_off_c, 0, 77, 64
1, 34295, Note_off_c, 0, 49, 64
1, 34299, Note_on_c, 0, 56, 37
1, 34336, Note_off_c, 0, 56, 64
1, 34404, Note_on_c, 0, 65, 34
1, 34434, Note_off_c, 0, 65, 64
1, 34544, Note_on_c, 0, 68, 54
1, 34662, Note_off_c, 0, 68, 64
1, 34678, Note_on_c, 0, 65, 34
1, 34711, Note_off_c, 0, 65, 64
1, 34776, Note_on_c, 0, 56, 31
1, 34942, Note_on_c, 0, 78, 88
1, 34952, Note_on_c, 0, 66, 39
1, 35019, Control_c, 0, 64, 0
1, 35027, Note_off_c, 0, 80, 64
1, 35076, Note_on_c, 0, 63, 43
1, 35093, Note_off_c, 0, 56, 64
1, 35103, Control_c, 0, 64, 127
1, 35166, Note_off_c, 0, 63, 64
1, 35176, Note_on_c, 0, 56, 47
1, 35182, Note_off_c, 0, 66, 64
1, 35268, Note_on_c, 0, 77, 91
1, 35279, Note_on_c, 0, 65, 48
1, 35311, Control_c, 0, 64, 0
1, 35320, Note_off_c, 0, 78, 64
1, 35374, Note_on_c, 0, 61, 52
1, 35376, Note_off_c, 0, 56, 64
1, 35403, Control_c, 0, 64, 127
1, 35452, Note_off_c, 0, 65, 64
1, 35482, Note_off_c, 0, 61, 64
1, 35483, Note_on_c, 0, 56, 44
1, 35584, Note_on_c, 0, 75, 79
1, 35585, Note_on_c, 0, 63, 52
1, 35595, Control_c, 0, 64, 0
1, 35664, Note_off_c, 0, 56, 64
1, 35672, Note_off_c, 0, 77, 64
1, 35695, Control_c, 0, 64, 127
1, 35695, Note_on_c, 0, 60, 39
1, 35782, Note_off_c, 0, 60, 64
1, 35791, Note_on_c, 0, 56, 40
1, 35794, Note_off_c, 0, 63, 64
1, 35889, Note_off_c, 0, 56, 64
1, 35919, Note_on_c, 0, 61, 37
1, 35924, Note_on_c, 0, 77, 76
1, 35941, Control_c, 0, 64, 0
1, 35979, Note_off_c, 0, 75, 64
1, 36058, Note_on_c, 0, 56, 38
1, 36063, Control_c, 0, 64, 127
1, 36154, Note_off_c, 0, 56, 64
1, 36173, Note_off_c, 0, 61, 64
1, 36193, Note_on_c, 0, 53, 44
1, 36222, Note_on_c, 0, 73, 58
1, 36226, Note_off_c, 0, 53, 64
1, 36274, Note_off_c, 0, 77, 64
1, 36377, Note_on_c, 0, 68, 52
1, 36388, Note_on_c, 0, 44, 34
1, 36394, Control_c, 0, 64, 0
1, 36410, Note_off_c, 0, 73, 64
1, 36525, Control_c, 0, 64, 127
1, 36528, Note_off_c, 0, 44, 64
1, 36528, Note_on_c, 0, 51, 29
1, 36616, Note_off_c, 0, 51, 64
1, 36635, Note_on_c, 0, 56, 21
1, 36739, Note_off_c, 0, 56, 64
1, 36754, Note_on_c, 0, 60, 36
1, 36853, Note_off_c, 0, 60, 64
1, 36860, Note_on_c, 0, 56, 38
1, 36942, Note_off_c, 0, 56, 64
1, 36978, Note_on_c, 0, 51, 24
1, 37012, Note_off_c, 0, 51, 64
1, 37092, Note_off_c, 0, 68, 64
1, 37138, Note_on_c, 0, 70, 64
1, 37159, Note_on_c, 0, 42, 22
1, 37162, Control_c, 0, 64, 0
1, 37267, Note_off_c, 0, 42, 64
1, 37270, Control_c, 0, 64, 127
1, 37279, Note_on_c, 0, 54, 44
1, 37346, Note_off_c, 0, 54, 64
1, 37383, Note_on_c, 0, 58, 36
1, 37440, Note_off_c, 0, 58, 64
1, 37481, Note_on_c, 0, 61, 52
1, 37578, Note_off_c, 0, 61, 64
1, 37582, Note_on_c, 0, 58, 42
1, 37660, Note_off_c, 0, 58, 64
1, 37674, Note_on_c, 0, 54, 41
1, 37706, Note_off_c, 0, 54, 64
1, 37759, Note_on_c, 0, 46, 50
1, 37785, Control_c, 0, 64, 0
1, 37862, Note_on_c, 0, 53, 76
1, 37877, Control_c, 0, 64, 127
1, 37882, Note_off_c, 0, 46, 64
1, 37947, Note_off_c, 0, 53, 64
1, 37956, Note_on_c, 0, 58, 43
1, 38011, Note_off_c, 0, 58, 64
1, 38045, Note_on_c, 0, 62, 64
1, 38126, Note_off_c, 0, 62, 64
1, 38126, Note_on_c, 0, 58, 47
1, 38186, Note_off_c, 0, 58, 64
1, 38212, Note_off_c, 0, 70, 64
1, 38220, Note_on_c, 0, 53, 21
1, 38232, Note_on_c, 0, 71, 72
1, 38243, Note_off_c, 0, 53, 64
1, 38254, Note_off_c, 0, 71, 64
1, 38258, Note_on_c, 0, 73, 75
1, 38285, Note_on_c, 0, 71, 85
1, 38305, Note_on_c, 0, 46, 43
1, 38314, Control_c, 0, 64, 0
1, 38325, Note_off_c, 0, 73, 64
1, 38399, Control_c, 0, 64, 127
1, 38402, Note_off_c, 0, 46, 64
1, 38402, Note_on_c, 0, 58, 38
1, 38445, Note_off_c, 0, 58, 64
1, 38462, Note_on_c, 0, 70, 84
1, 38483, Note_off_c, 0, 71, 64
1, 38518, Note_on_c, 0, 62, 47
1, 38574, Note_off_c, 0, 62, 64
1, 38610, Note_on_c, 0, 68, 32
1, 38642, Note_on_c, 0, 75, 88
1, 38670, Note_off_c, 0, 70, 64
1, 38685, Note_off_c, 0, 68, 64
1, 38740, Note_on_c, 0, 62, 47
1, 38775, Note_off_c, 0, 62, 64
1, 38793, Note_on_c, 0, 77, 93
1, 38828, Note_off_c, 0, 75, 64
1, 38844, Note_on_c, 0, 58, 36
1, 38875, Note_off_c, 0, 58, 64
1, 38941, Note_on_c, 0, 51, 48
1, 38952, Note_on_c, 0, 78, 84
1, 38952, Control_c, 0, 64, 0
1, 38983, Note_off_c, 0, 77, 64
1, 39075, Note_on_c, 0, 66, 41
1, 39075, Control_c, 0, 64, 127
1, 39103, Note_off_c, 0, 51, 64
1, 39142, Note_off_c, 0, 66, 64
1, 39173, Note_on_c, 0, 58, 38
1, 39236, Note_off_c, 0, 58, 64
1, 39267, Note_on_c, 0, 77, 82
1, 39276, Note_on_c, 0, 53, 68
1, 39305, Note_off_c, 0, 78, 64
1, 39306, Control_c, 0, 64, 0
1, 39362, Note_on_c, 0, 65, 40
1, 39398, Control_c, 0, 64, 127
1, 39454, Note_off_c, 0, 53, 64
1, 39455, Note_off_c, 0, 65, 64
1, 39463, Note_on_c, 0, 57, 28
1, 39512, Note_off_c, 0, 57, 64
1, 39574, Note_on_c, 0, 75, 75
1, 39574, Note_on_c, 0, 54, 40
1, 39628, Control_c, 0, 64, 0
1, 39632, Note_off_c, 0, 77, 64
1, 39681, Note_on_c, 0, 63, 47
1, 39751, Control_c, 0, 64, 127
1, 39777, Note_on_c, 0, 58, 30
1, 39812, Note_off_c, 0, 58, 64
1, 39818, Note_off_c, 0, 63, 64
1, 39908, Note_off_c, 0, 54, 64
1, 39918, Note_on_c, 0, 77, 66
1, 39929, Note_on_c, 0, 56, 22
1, 39943, Control_c, 0, 64, 0
1, 39960, Note_off_c, 0, 75, 64
1, 40039, Note_on_c, 0, 66, 24
1, 40074, Control_c, 0, 64, 127
1, 40123, Note_off_c, 0, 66, 64
1, 40184, Note_on_c, 0, 60, 35
1, 40209, Note_off_c, 0, 56, 64
1, 40216, Note_off_c, 0, 60, 64
1, 40343, Note_on_c, 0, 73, 53
1, 40350, Control_c, 0, 64, 0
1, 40353, Note_on_c, 0, 49, 29
1, 40412, Note_off_c, 0, 77, 64
1, 40481, Control_c, 0, 64, 127
1, 40487, Note_on_c, 0, 56, 31
1, 40492, Note_off_c, 0, 49, 64
1, 40579, Note_off_c, 0, 56, 64
1, 40607, Note_on_c, 0, 61, 23
1, 40656, Note_off_c, 0, 61, 64
1, 40709, Note_on_c, 0, 65, 24
1, 40799, Note_off_c, 0, 65, 64
1, 40837, Note_on_c, 0, 61, 35
1, 41001, Note_off_c, 0, 61, 64
1, 41058, Note_on_c, 0, 72, 56
1, 41061, Note_on_c, 0, 56, 18
1, 41074, Note_off_c, 0, 73, 64
1, 41115, Note_on_c, 0, 73, 47
1, 41118, Note_off_c, 0, 72, 64
1, 41164, Note_on_c, 0, 75, 61
1, 41176, Note_off_c, 0, 73, 64
1, 41183, Note_off_c, 0, 56, 64
1, 41215, Note_on_c, 0, 73, 59
1, 41237, Note_off_c, 0, 75, 64
1, 41240, Note_on_c, 0, 51, 17
1, 41249, Control_c, 0, 64, 0
1, 41315, Note_on_c, 0, 77, 59
1, 41351, Note_off_c, 0, 73, 64
1, 41425, Note_on_c, 0, 55, 27
1, 41487, Control_c, 0, 64, 127
1, 41537, Note_off_c, 0, 51, 64
1, 41551, Note_on_c, 0, 61, 26
1, 41561, Note_off_c, 0, 55, 64
1, 41638, Note_off_c, 0, 61, 64
1, 41669, Note_on_c, 0, 63, 30
1, 41750, Note_off_c, 0, 63, 64
1, 41811, Note_on_c, 0, 61, 34
1, 41895, Note_off_c, 0, 61, 64
1, 41975, Note_on_c, 0, 75, 48
1, 42000, Note_off_c, 0, 77, 64
1, 42039, Note_on_c, 0, 55, 19
1, 42098, Note_off_c, 0, 55, 64
1, 42195, Note_off_c, 0, 75, 64
1, 42246, Note_on_c, 0, 75, 26
1, 42266, Note_on_c, 0, 44, 23
1, 42271, Control_c, 0, 64, 0
1, 42394, Control_c, 0, 64, 127
1, 42409, Note_off_c, 0, 44, 64
1, 42417, Note_on_c, 0, 51, 18
1, 42494, Note_off_c, 0, 51, 64
1, 42510, Note_on_c, 0, 56, 24
1, 42563, Note_off_c, 0, 56, 64
1, 42621, Note_on_c, 0, 60, 28
1, 42710, Note_off_c, 0, 60, 64
1, 42724, Note_on_c, 0, 56, 34
1, 42765, Note_off_c, 0, 56, 64
1, 42819, Note_on_c, 0, 51, 15
1, 42897, Note_off_c, 0, 51, 64
1, 42906, Note_on_c, 0, 44, 38
1, 43002, Note_off_c, 0, 44, 64
1, 43008, Note_on_c, 0, 51, 42
1, 43099, Note_off_c, 0, 51, 64
1, 43102, Note_on_c, 0, 56, 37
1, 43150, Note_off_c, 0, 56, 64
1, 43200, Note_on_c, 0, 58, 41
1, 43284, Note_off_c, 0, 58, 64
1, 43304, Note_on_c, 0, 56, 47
1, 43315, Note_off_c, 0, 75, 64
1, 43391, Note_off_c, 0, 56, 64
1, 43420, Note_on_c, 0, 51, 36
1, 43532, Note_off_c, 0, 51, 64
1, 43533, Note_on_c, 0, 44, 45
1, 43572, Note_on_c, 0, 68, 79
1, 43585, Control_c, 0, 64, 0
1, 43698, Note_on_c, 0, 51, 41
1, 43699, Control_c, 0, 64, 127
1, 43704, Note_off_c, 0, 44, 64
1, 43799, Note_off_c, 0, 51, 64
1, 43805, Note_on_c, 0, 56, 30
1, 43851, Note_off_c, 0, 56, 64
1, 43914, Note_on_c, 0, 60, 44
1, 44006, Note_off_c, 0, 60, 64
1, 44011, Note_on_c, 0, 56, 52
1, 44073, Note_off_c, 0, 56, 64
1, 44094, Note_on_c, 0, 51, 52
1, 44122, Note_off_c, 0, 51, 64
1, 44132, Note_on_c, 0, 70, 56
1, 44141, Note_off_c, 0, 68, 64
1, 44154, Note_off_c, 0, 70, 64
1, 44157, Note_on_c, 0, 72, 72
1, 44177, Note_on_c, 0, 70, 73
1, 44182, Note_on_c, 0, 44, 51
1, 44215, Control_c, 0, 64, 0
1, 44220, Note_off_c, 0, 72, 64
1, 44289, Note_off_c, 0, 44, 64
1, 44292, Control_c, 0, 64, 127
1, 44293, Note_on_c, 0, 56, 38
1, 44325, Note_off_c, 0, 56, 64
1, 44325, Note_on_c, 0, 68, 78
1, 44362, Note_off_c, 0, 70, 64
1, 44387, Note_on_c, 0, 60, 44
1, 44426, Note_off_c, 0, 60, 64
1, 44459, Note_on_c, 0, 73, 85
1, 44471, Note_on_c, 0, 66, 42
1, 44496, Note_off_c, 0, 68, 64
1, 44525, Note_off_c, 0, 66, 64
1, 44587, Note_on_c, 0, 60, 42
1, 44628, Note_on_c, 0, 75, 87
1, 44631, Note_off_c, 0, 60, 64
1, 44664, Note_off_c, 0, 73, 64
1, 44686, Note_on_c, 0, 56, 28
1, 44771, Note_off_c, 0, 56, 64
1, 44802, Note_on_c, 0, 49, 36
1, 44814, Control_c, 0, 64, 0
1, 44824, Note_on_c, 0, 77, 84
1, 44859, Note_off_c, 0, 75, 64
1, 44937, Control_c, 0, 64, 127
1, 44937, Note_on_c, 0, 56, 35
1, 44943, Note_off_c, 0, 49, 64
1, 45030, Note_off_c, 0, 56, 64
1, 45055, Note_on_c, 0, 61, 22
1, 45119, Note_off_c, 0, 61, 64
1, 45182, Note_on_c, 0, 65, 25
1, 45251, Note_off_c, 0, 65, 64
1, 45295, Note_on_c, 0, 61, 36
1, 45348, Note_off_c, 0, 61, 64
1, 45407, Note_on_c, 0, 56, 32
1, 45485, Note_off_c, 0, 56, 64
1, 45546, Note_on_c, 0, 49, 27
1, 45569, Note_on_c, 0, 80, 66
1, 45587, Note_off_c, 0, 77, 64
1, 45590, Control_c, 0, 64, 0
1, 45682, Control_c, 0, 64, 127
1, 45701, Note_off_c, 0, 49, 64
1, 45703, Note_on_c, 0, 56, 32
1, 45741, Note_off_c, 0, 56, 64
1, 45814, Note_on_c, 0, 65, 33
1, 45842, Note_off_c, 0, 65, 64
1, 45961, Note_on_c, 0, 68, 48
1, 46044, Note_off_c, 0, 68, 64
1, 46093, Note_on_c, 0, 65, 25
1, 46130, Note_off_c, 0, 65, 64
1, 46181, Note_on_c, 0, 56, 24
1, 46322, Note_on_c, 0, 78, 78
1, 46339, Note_on_c, 0, 66, 35
1, 46358, Control_c, 0, 64, 0
1, 46405, Note_off_c, 0, 80, 64
1, 46445, Note_off_c, 0, 56, 64
1, 46445, Note_on_c, 0, 63, 46
1, 46458, Control_c, 0, 64, 127
1, 46522, Note_off_c, 0, 66, 64
1, 46534, Note_off_c, 0, 63, 64
1, 46544, Note_on_c, 0, 56, 35
1, 46652, Note_on_c, 0, 77, 79
1, 46658, Note_on_c, 0, 65, 36
1, 46680, Note_off_c, 0, 78, 64
1, 46704, Control_c, 0, 64, 0
1, 46755, Note_on_c, 0, 61, 47
1, 46756, Note_off_c, 0, 56, 64
1, 46785, Control_c, 0, 64, 127
1, 46831, Note_off_c, 0, 65, 64
1, 46847, Note_off_c, 0, 61, 64
1, 46859, Note_on_c, 0, 56, 25
1, 46967, Note_on_c, 0, 75, 61
1, 46981, Control_c, 0, 64, 0
1, 46982, Note_on_c, 0, 63, 37
1, 47001, Note_off_c, 0, 77, 64
1, 47072, Control_c, 0, 64, 127
1, 47082, Note_off_c, 0, 56, 64
1, 47103, Note_on_c, 0, 60, 30
1, 47153, Note_off_c, 0, 60, 64
1, 47160, Note_on_c, 0, 77, 58
1, 47176, Note_off_c, 0, 75, 64
1, 47236, Note_on_c, 0, 75, 43
1, 47240, Note_off_c, 0, 77, 64
1, 47255, Note_on_c, 0, 56, 28
1, 47258, Note_off_c, 0, 63, 64
1, 47304, Note_on_c, 0, 73, 51
1, 47310, Note_off_c, 0, 75, 64
1, 47320, Note_off_c, 0, 56, 64
1, 47363, Note_on_c, 0, 75, 43
1, 47385, Note_off_c, 0, 73, 64
1, 47404, Note_on_c, 0, 61, 31
1, 47434, Control_c, 0, 64, 0
1, 47462, Note_on_c, 0, 77, 56
1, 47465, Note_off_c, 0, 75, 64
1, 47560, Note_on_c, 0, 56, 27
1, 47580, Control_c, 0, 64, 127
1, 47656, Note_off_c, 0, 61, 64
1, 47670, Note_off_c, 0, 56, 64
1, 47730, Note_on_c, 0, 53, 36
1, 47769, Note_off_c, 0, 53, 64
1, 47796, Note_on_c, 0, 73, 35
1, 47812, Note_off_c, 0, 77, 64
1, 47954, Note_on_c, 0, 68, 41
1, 47956, Control_c, 0, 64, 0
1, 47965, Note_on_c, 0, 44, 31
1, 47973, Note_off_c, 0, 73, 64
1, 48071, Control_c, 0, 64, 127
1, 48096, Note_off_c, 0, 44, 64
1, 48101, Note_on_c, 0, 51, 27
1, 48196, Note_off_c, 0, 51, 64
1, 48208, Note_on_c, 0, 56, 26
1, 48290, Note_off_c, 0, 56, 64
1, 48324, Note_on_c, 0, 60, 30
1, 48375, Note_off_c, 0, 60, 64
1, 48428, Note_on_c, 0, 56, 27
1, 48481, Note_off_c, 0, 56, 64
1, 48557, Note_on_c, 0, 51, 17
1, 48611, Note_off_c, 0, 51, 64
1, 48719, Note_on_c, 0, 70, 49
1, 48731, Note_on_c, 0, 42, 36
1, 48732, Control_c, 0, 64, 0
1, 48768, Note_off_c, 0, 68, 64
1, 48855, Control_c, 0, 64, 127
1, 48858, Note_off_c, 0, 42, 64
1, 48872, Note_on_c, 0, 54, 42
1, 48911, Note_off_c, 0, 54, 64
1, 48983, Note_on_c, 0, 58, 23
1, 49032, Note_off_c, 0, 58, 64
1, 49076, Note_on_c, 0, 61, 37
1, 49174, Note_off_c, 0, 61, 64
1, 49183, Note_on_c, 0, 58, 32
1, 49232, Note_off_c, 0, 58, 64
1, 49282, Note_on_c, 0, 54, 29
1, 49315, Note_off_c, 0, 54, 64
1, 49378, Control_c, 0, 64, 0
1, 49390, Note_on_c, 0, 46, 35
1, 49470, Control_c, 0, 64, 127
1, 49489, Note_off_c, 0, 46, 64
1, 49530, Note_on_c, 0, 53, 59
1, 49554, Note_off_c, 0, 53, 64
1, 49631, Note_on_c, 0, 58, 16
1, 49675, Note_off_c, 0, 58, 64
1, 49720, Note_on_c, 0, 62, 37
1, 49767, Note_off_c, 0, 62, 64
1, 49815, Note_on_c, 0, 58, 29
1, 49879, Note_off_c, 0, 58, 64
1, 49894, Note_off_c, 0, 70, 64
1, 49914, Note_on_c, 0, 53, 59
1, 49938, Note_off_c, 0, 53, 64
1, 49956, Note_on_c, 0, 71, 57
1, 49980, Note_on_c, 0, 73, 59
1, 49982, Note_off_c, 0, 71, 64
1, 50010, Note_on_c, 0, 71, 90
1, 50027, Note_on_c, 0, 46, 32
1, 50045, Note_off_c, 0, 73, 64
1, 50079, Note_off_c, 0, 46, 64
1, 50116, Note_on_c, 0, 58, 38
1, 50152, Note_off_c, 0, 58, 64
1, 50159, Note_on_c, 0, 70, 76
1, 50183, Note_off_c, 0, 71, 64
1, 50230, Note_on_c, 0, 62, 44
1, 50281, Note_off_c, 0, 62, 64
1, 50317, Note_on_c, 0, 68, 41
1, 50324, Note_on_c, 0, 75, 82
1, 50365, Note_off_c, 0, 70, 64
1, 50393, Note_off_c, 0, 68, 64
1, 50431, Note_on_c, 0, 62, 53
1, 50463, Note_off_c, 0, 62, 64
1, 50472, Note_on_c, 0, 77, 87
1, 50508, Note_off_c, 0, 75, 64
1, 50535, Note_on_c, 0, 58, 38
1, 50564, Note_off_c, 0, 58, 64
1, 50614, Control_c, 0, 64, 0
1, 50634, Note_on_c, 0, 78, 78
1, 50635, Note_on_c, 0, 51, 45
1, 50664, Note_off_c, 0, 77, 64
1, 50737, Control_c, 0, 64, 127
1, 50747, Note_off_c, 0, 51, 64
1, 50766, Note_on_c, 0, 66, 37
1, 50872, Note_off_c, 0, 66, 64
1, 50882, Note_on_c, 0, 58, 28
1, 50978, Note_off_c, 0, 58, 64
1, 50996, Note_on_c, 0, 77, 63
1, 51003, Note_on_c, 0, 53, 45
1, 51029, Control_c, 0, 64, 0
1, 51044, Note_off_c, 0, 78, 64
1, 51105, Note_on_c, 0, 65, 32
1, 51129, Control_c, 0, 64, 127
1, 51181, Note_off_c, 0, 53, 64
1, 51188, Note_off_c, 0, 65, 64
1, 51198, Note_on_c, 0, 57, 25
1, 51257, Note_off_c, 0, 57, 64
1, 51297, Note_on_c, 0, 54, 36
1, 51301, Note_on_c, 0, 75, 60
1, 51352, Control_c, 0, 64, 0
1, 51393, Note_off_c, 0, 77, 64
1, 51395, Note_on_c, 0, 63, 46
1, 51475, Control_c, 0, 64, 127
1, 51498, Note_on_c, 0, 58, 31
1, 51517, Note_off_c, 0, 63, 64
1, 51542, Note_off_c, 0, 58, 64
1, 51568, Note_off_c, 0, 54, 64
1, 51607, Note_on_c, 0, 77, 65
1, 51626, Note_on_c, 0, 56, 21
1, 51636, Control_c, 0, 64, 0
1, 51651, Note_off_c, 0, 75, 64
1, 51715, Note_on_c, 0, 66, 36
1, 51759, Control_c, 0, 64, 127
1, 51800, Note_off_c, 0, 66, 64
1, 51847, Note_on_c, 0, 60, 32
1, 51886, Note_off_c, 0, 60, 64
1, 51910, Note_off_c, 0, 56, 64
1, 52006, Note_on_c, 0, 73, 46
1, 52020, Control_c, 0, 64, 0
1, 52022, Note_on_c, 0, 49, 31
1, 52083, Note_off_c, 0, 77, 64
1, 52143, Control_c, 0, 64, 127
1, 52159, Note_off_c, 0, 49, 64
1, 52160, Note_on_c, 0, 56, 28
1, 52265, Note_off_c, 0, 56, 64
1, 52268, Note_on_c, 0, 61, 28
1, 52313, Note_off_c, 0, 61, 64
1, 52372, Note_on_c, 0, 65, 32
1, 52449, Note_off_c, 0, 65, 64
1, 52506, Note_on_c, 0, 67, 64
1, 52525, Note_on_c, 0, 61, 35
1, 52579, Note_on_c, 0, 68, 68
1, 52599, Note_off_c, 0, 73, 64
1, 52604, Note_off_c, 0, 67, 64
1, 52631, Note_off_c, 0, 61, 64
1, 52640, Note_on_c, 0, 70, 73
1, 52655, Note_off_c, 0, 68, 64
1, 52655, Note_on_c, 0, 56, 18
1, 52678, Note_off_c, 0, 70, 64
1, 52701, Note_on_c, 0, 68, 64
1, 52749, Note_off_c, 0, 56, 64
1, 52758, Note_on_c, 0, 49, 33
1, 52765, Control_c, 0, 64, 0
1, 52819, Note_on_c, 0, 77, 79
1, 52865, Note_off_c, 0, 68, 64
1, 52942, Control_c, 0, 64, 127
1, 52949, Note_on_c, 0, 56, 33
1, 52986, Note_off_c, 0, 49, 64
1, 53074, Note_off_c, 0, 56, 64
1, 53074, Note_on_c, 0, 60, 30
1, 53141, Note_off_c, 0, 60, 64
1, 53190, Note_on_c, 0, 66, 31
1, 53261, Note_off_c, 0, 66, 64
1, 53316, Note_on_c, 0, 60, 36
1, 53361, Note_off_c, 0, 60, 64
1, 53365, Note_on_c, 0, 75, 69
1, 53406, Note_off_c, 0, 77, 64
1, 53419, Note_on_c, 0, 56, 20
1, 53502, Note_off_c, 0, 75, 64
1, 53507, Note_off_c, 0, 56, 64
1, 53527, Note_on_c, 0, 49, 30
1, 53528, Note_on_c, 0, 75, 79
1, 53648, Note_off_c, 0, 49, 64
1, 53648, Note_on_c, 0, 56, 37
1, 53762, Note_off_c, 0, 56, 64
1, 53764, Note_on_c, 0, 60, 32
1, 53827, Note_on_c, 0, 56, 12
1, 53873, Note_off_c, 0, 60, 64
1, 53885, Note_on_c, 0, 66, 27
1, 53969, Note_off_c, 0, 66, 64
1, 53977, Note_off_c, 0, 56, 64
1, 54021, Note_on_c, 0, 60, 27
1, 54073, Note_off_c, 0, 60, 64
1, 54110, Note_on_c, 0, 56, 31
1, 54209, Note_off_c, 0, 56, 64
1, 54230, Note_on_c, 0, 73, 49
1, 54234, Note_on_c, 0, 49, 30
1, 54248, Control_c, 0, 64, 0
1, 54306, Note_off_c, 0, 75, 64
1, 54361, Note_on_c, 0, 56, 38
1, 54369, Note_off_c, 0, 49, 64
1, 54379, Control_c, 0, 64, 127
1, 54444, Note_off_c, 0, 56, 64
1, 54457, Note_on_c, 0, 61, 35
1, 54498, Note_off_c, 0, 61, 64
1, 54546, Note_off_c, 0, 73, 64
1, 54553, Note_on_c, 0, 65, 44
1, 54643, Note_off_c, 0, 65, 64
1, 54651, Note_on_c, 0, 61, 44
1, 54693, Note_on_c, 0, 80, 85
1, 54714, Note_off_c, 0, 61, 64
1, 54778, Note_on_c, 0, 56, 36
1, 54823, Note_off_c, 0, 56, 64
1, 54916, Note_on_c, 0, 68, 78
1, 54932, Note_on_c, 0, 44, 51
1, 54955, Control_c, 0, 64, 0
1, 54984, Note_off_c, 0, 80, 64
1, 55062, Control_c, 0, 64, 127
1, 55067, Note_off_c, 0, 44, 64
1, 55068, Note_on_c, 0, 51, 44
1, 55149, Note_on_c, 0, 56, 41
1, 55183, Note_off_c, 0, 51, 64
1, 55235, Note_off_c, 0, 56, 64
1, 55250, Note_on_c, 0, 60, 47
1, 55389, Note_on_c, 0, 56, 46
1, 55404, Note_off_c, 0, 60, 64
1, 55442, Note_off_c, 0, 68, 64
1, 55490, Note_off_c, 0, 56, 64
1, 55501, Note_on_c, 0, 51, 44
1, 55556, Note_on_c, 0, 70, 57
1, 55577, Note_on_c, 0, 72, 78
1, 55578, Note_off_c, 0, 70, 64
1, 55594, Note_off_c, 0, 51, 64
1, 55601, Note_on_c, 0, 70, 78
1, 55606, Note_on_c, 0, 44, 48
1, 55633, Note_off_c, 0, 72, 64
1, 55639, Control_c, 0, 64, 0
1, 55724, Note_on_c, 0, 51, 55
1, 55731, Control_c, 0, 64, 127
1, 55737, Note_off_c, 0, 44, 64
1, 55817, Note_on_c, 0, 55, 54
1, 55830, Note_off_c, 0, 51, 64
1, 55853, Note_on_c, 0, 69, 79
1, 55857, Note_off_c, 0, 55, 64
1, 55884, Note_off_c, 0, 70, 64
1, 55920, Note_on_c, 0, 51, 26
1, 55921, Note_on_c, 0, 61, 49
1, 55926, Note_on_c, 0, 70, 71
1, 55946, Control_c, 0, 64, 0
1, 55957, Note_off_c, 0, 69, 64
1, 56019, Note_off_c, 0, 61, 64
1, 56023, Control_c, 0, 64, 127
1, 56038, Note_on_c, 0, 55, 53
1, 56047, Note_off_c, 0, 51, 64
1, 56075, Note_off_c, 0, 55, 64
1, 56105, Note_on_c, 0, 51, 35
1, 56150, Note_on_c, 0, 72, 77
1, 56176, Note_off_c, 0, 70, 64
1, 56181, Note_on_c, 0, 44, 56
1, 56193, Note_off_c, 0, 51, 64
1, 56199, Control_c, 0, 64, 0
1, 56212, Note_on_c, 0, 68, 85
1, 56247, Note_off_c, 0, 72, 64
1, 56313, Note_on_c, 0, 51, 51
1, 56314, Control_c, 0, 64, 127
1, 56321, Note_off_c, 0, 44, 64
1, 56357, Note_off_c, 0, 68, 64
1, 56414, Note_on_c, 0, 56, 48
1, 56538, Note_off_c, 0, 56, 64
1, 56546, Note_on_c, 0, 60, 42
1, 56590, Note_on_c, 0, 84, 104
1, 56702, Note_on_c, 0, 56, 51
1, 56725, Note_off_c, 0, 51, 64
1, 56805, Note_on_c, 0, 51, 60
1, 56857, Note_off_c, 0, 56, 64
1, 56859, Note_off_c, 0, 60, 64
1, 56911, Note_off_c, 0, 51, 64
1, 56911, Note_on_c, 0, 49, 62
1, 56952, Control_c, 0, 64, 0
1, 57078, Note_on_c, 0, 82, 75
1, 57083, Control_c, 0, 64, 127
1, 57157, Note_off_c, 0, 84, 64
1, 57168, Note_on_c, 0, 56, 46
1, 57206, Note_off_c, 0, 49, 64
1, 57244, Note_on_c, 0, 80, 77
1, 57309, Note_off_c, 0, 82, 64
1, 57335, Note_on_c, 0, 61, 44
1, 57366, Note_on_c, 0, 76, 71
1, 57377, Note_off_c, 0, 80, 64
1, 57396, Note_off_c, 0, 56, 64
1, 57460, Note_on_c, 0, 73, 67
1, 57486, Note_off_c, 0, 76, 64
1, 57493, Note_off_c, 0, 61, 64
1, 57513, Note_on_c, 0, 64, 36
1, 57560, Note_on_c, 0, 56, 2
1, 57588, Note_on_c, 0, 70, 62
1, 57603, Note_off_c, 0, 73, 64
1, 57609, Note_off_c, 0, 56, 64
1, 57686, Note_on_c, 0, 61, 45
1, 57691, Note_off_c, 0, 64, 64
1, 57797, Note_off_c, 0, 70, 64
1, 57821, Note_off_c, 0, 61, 64
1, 57841, Note_on_c, 0, 56, 36
1, 57897, Note_off_c, 0, 56, 64
1, 57935, Note_on_c, 0, 80, 73
1, 57997, Note_off_c, 0, 80, 64
1, 58078, Note_on_c, 0, 63, 76
1, 58080, Note_on_c, 0, 39, 27
1, 58089, Control_c, 0, 64, 0
1, 58189, Control_c, 0, 64, 127
1, 58192, Note_off_c, 0, 39, 64
1, 58271, Note_on_c, 0, 51, 41
1, 58407, Note_on_c, 0, 56, 46
1, 58447, Note_off_c, 0, 51, 64
1, 58501, Note_off_c, 0, 56, 64
1, 58528, Note_on_c, 0, 60, 46
1, 58622, Note_off_c, 0, 60, 64
1, 58630, Note_on_c, 0, 56, 46
1, 58698, Note_off_c, 0, 56, 64
1, 58746, Note_on_c, 0, 51, 21
1, 58781, Note_off_c, 0, 51, 64
1, 58797, Note_on_c, 0, 72, 59
1, 58842, Control_c, 0, 64, 0
1, 58856, Note_on_c, 0, 70, 67
1, 58859, Note_on_c, 0, 39, 48
1, 58886, Note_off_c, 0, 63, 64
1, 58905, Note_off_c, 0, 72, 64
1, 58947, Note_off_c, 0, 39, 64
1, 58950, Control_c, 0, 64, 127
1, 59042, Note_on_c, 0, 51, 37
1, 59163, Note_on_c, 0, 55, 35
1, 59201, Note_on_c, 0, 69, 51
1, 59206, Note_off_c, 0, 70, 64
1, 59280, Control_c, 0, 64, 0
1, 59290, Note_on_c, 0, 70, 55
1, 59294, Note_on_c, 0, 61, 35
1, 59310, Note_off_c, 0, 69, 64
1, 59316, Note_off_c, 0, 55, 64
1, 59373, Control_c, 0, 64, 127
1, 59411, Note_off_c, 0, 61, 64
1, 59415, Note_off_c, 0, 51, 64
1, 59432, Note_on_c, 0, 55, 35
1, 59471, Note_off_c, 0, 55, 64
1, 59544, Note_on_c, 0, 51, 23
1, 59587, Note_on_c, 0, 75, 51
1, 59589, Note_off_c, 0, 51, 64
1, 59618, Note_off_c, 0, 70, 64
1, 59657, Control_c, 0, 64, 0
1, 59668, Note_on_c, 0, 68, 54
1, 59671, Note_on_c, 0, 44, 40
1, 59684, Note_off_c, 0, 75, 64
1, 59787, Control_c, 0, 64, 127
1, 59810, Note_off_c, 0, 44, 64
1, 59820, Note_on_c, 0, 51, 26
1, 59910, Note_off_c, 0, 51, 64
1, 59922, Note_on_c, 0, 56, 26
1, 60044, Note_off_c, 0, 56, 64
1, 60052, Note_on_c, 0, 60, 31
1, 60150, Note_off_c, 0, 60, 64
1, 60175, Note_on_c, 0, 56, 36
1, 60272, Note_off_c, 0, 56, 64
1, 60330, Note_on_c, 0, 51, 33
1, 60409, Note_off_c, 0, 51, 64
1, 60525, Control_c, 0, 64, 0
1, 60545, Note_on_c, 0, 70, 43
1, 60548, Note_on_c, 0, 42, 36
1, 60588, Note_off_c, 0, 68, 64
1, 60690, Note_off_c, 0, 42, 64
1, 60694, Control_c, 0, 64, 127
1, 60717, Note_on_c, 0, 54, 30
1, 60822, Note_off_c, 0, 54, 64
1, 60852, Note_on_c, 0, 58, 23
1, 60949, Note_off_c, 0, 58, 64
1, 61054, Note_on_c, 0, 61, 24
1, 61065, Note_on_c, 0, 73, 36
1, 61087, Note_off_c, 0, 70, 64
1, 61153, Note_off_c, 0, 61, 64
1, 61262, Note_on_c, 0, 58, 15
1, 61280, Note_on_c, 0, 72, 37
1, 61299, Note_off_c, 0, 73, 64
1, 61375, Note_off_c, 0, 58, 64
1, 61425, Note_off_c, 0, 72, 64
1, 61435, Note_on_c, 0, 54, 32
1, 61450, Note_on_c, 0, 70, 37
1, 61473, Note_off_c, 0, 54, 64
1, 61583, Note_on_c, 0, 44, 40
1, 61584, Note_on_c, 0, 68, 48
1, 61591, Note_off_c, 0, 70, 64
1, 61592, Control_c, 0, 64, 0
1, 61718, Note_on_c, 0, 51, 34
1, 61720, Note_off_c, 0, 44, 64
1, 61723, Control_c, 0, 64, 127
1, 61816, Note_on_c, 0, 56, 33
1, 61819, Note_off_c, 0, 51, 64
1, 61868, Note_off_c, 0, 56, 64
1, 61928, Note_on_c, 0, 60, 33
1, 61978, Note_off_c, 0, 60, 64
1, 62031, Note_on_c, 0, 56, 36
1, 62074, Note_off_c, 0, 56, 64
1, 62134, Note_off_c, 0, 68, 64
1, 62153, Note_on_c, 0, 70, 47
1, 62180, Note_off_c, 0, 70, 64
1, 62184, Note_on_c, 0, 72, 54
1, 62206, Note_on_c, 0, 70, 68
1, 62214, Note_off_c, 0, 72, 64
1, 62214, Note_on_c, 0, 44, 34
1, 62253, Control_c, 0, 64, 0
1, 62313, Note_off_c, 0, 44, 64
1, 62321, Note_on_c, 0, 56, 38
1, 62330, Control_c, 0, 64, 127
1, 62354, Note_off_c, 0, 56, 64
1, 62361, Note_on_c, 0, 68, 65
1, 62393, Note_off_c, 0, 70, 64
1, 62435, Note_on_c, 0, 60, 35
1, 62487, Note_off_c, 0, 60, 64
1, 62505, Note_on_c, 0, 73, 73
1, 62514, Note_on_c, 0, 66, 39
1, 62542, Note_off_c, 0, 68, 64
1, 62587, Note_off_c, 0, 66, 64
1, 62637, Note_on_c, 0, 60, 28
1, 62657, Note_on_c, 0, 75, 80
1, 62680, Note_off_c, 0, 60, 64
1, 62693, Note_off_c, 0, 73, 64
1, 62723, Note_on_c, 0, 56, 34
1, 62764, Note_off_c, 0, 56, 64
1, 62814, Control_c, 0, 64, 0
1, 62836, Note_on_c, 0, 77, 75
1, 62837, Note_on_c, 0, 49, 27
1, 62870, Note_off_c, 0, 75, 64
1, 62952, Note_on_c, 0, 56, 36
1, 62953, Control_c, 0, 64, 127
1, 62954, Note_off_c, 0, 49, 64
1, 63011, Note_off_c, 0, 56, 64
1, 63054, Note_on_c, 0, 61, 30
1, 63101, Note_off_c, 0, 61, 64
1, 63149, Note_on_c, 0, 65, 35
1, 63235, Note_off_c, 0, 65, 64
1, 63253, Note_on_c, 0, 61, 43
1, 63312, Note_off_c, 0, 61, 64
1, 63339, Note_on_c, 0, 56, 25
1, 63396, Note_off_c, 0, 56, 64
1, 63468, Note_on_c, 0, 49, 28
1, 63474, Note_on_c, 0, 80, 53
1, 63483, Control_c, 0, 64, 0
1, 63494, Note_off_c, 0, 77, 64
1, 63567, Control_c, 0, 64, 127
1, 63577, Note_off_c, 0, 49, 64
1, 63585, Note_on_c, 0, 56, 36
1, 63626, Note_off_c, 0, 56, 64
1, 63689, Note_on_c, 0, 65, 37
1, 63716, Note_off_c, 0, 65, 64
1, 63817, Note_on_c, 0, 68, 56
1, 63916, Note_off_c, 0, 68, 64
1, 63934, Note_on_c, 0, 65, 30
1, 63965, Note_off_c, 0, 65, 64
1, 64019, Note_on_c, 0, 56, 32
1, 64113, Note_on_c, 0, 78, 83
1, 64120, Note_on_c, 0, 66, 37
1, 64128, Control_c, 0, 64, 0
1, 64170, Note_off_c, 0, 80, 64
1, 64222, Note_off_c, 0, 56, 64
1, 64228, Control_c, 0, 64, 127
1, 64228, Note_on_c, 0, 63, 47
1, 64284, Note_off_c, 0, 63, 64
1, 64305, Note_off_c, 0, 66, 64
1, 64322, Note_on_c, 0, 56, 35
1, 64415, Note_on_c, 0, 77, 89
1, 64423, Note_on_c, 0, 65, 42
1, 64427, Control_c, 0, 64, 0
1, 64451, Note_off_c, 0, 78, 64
1, 64511, Note_off_c, 0, 56, 64
1, 64521, Note_on_c, 0, 61, 52
1, 64527, Control_c, 0, 64, 127
1, 64560, Note_off_c, 0, 61, 64
1, 64584, Note_off_c, 0, 65, 64
1, 64628, Note_on_c, 0, 56, 43
1, 64721, Note_on_c, 0, 75, 74
1, 64727, Control_c, 0, 64, 0
1, 64746, Note_on_c, 0, 63, 41
1, 64752, Note_off_c, 0, 77, 64
1, 64827, Control_c, 0, 64, 127
1, 64830, Note_off_c, 0, 56, 64
1, 64852, Note_on_c, 0, 60, 29
1, 64862, Note_on_c, 0, 77, 71
1, 64874, Note_off_c, 0, 75, 64
1, 64931, Note_on_c, 0, 75, 55
1, 64932, Note_off_c, 0, 60, 64
1, 64945, Note_off_c, 0, 77, 64
1, 64948, Note_off_c, 0, 63, 64
1, 64976, Note_on_c, 0, 56, 31
1, 65002, Note_on_c, 0, 73, 57
1, 65010, Note_off_c, 0, 75, 64
1, 65065, Note_on_c, 0, 75, 63
1, 65069, Note_off_c, 0, 56, 64
1, 65084, Note_off_c, 0, 73, 64
1, 65111, Control_c, 0, 64, 0
1, 65112, Note_on_c, 0, 61, 26
1, 65177, Note_on_c, 0, 77, 64
1, 65188, Note_off_c, 0, 75, 64
1, 65267, Note_on_c, 0, 56, 35
1, 65296, Control_c, 0, 64, 127
1, 65361, Note_off_c, 0, 61, 64
1, 65387, Note_off_c, 0, 56, 64
1, 65409, Note_on_c, 0, 53, 42
1, 65440, Note_off_c, 0, 53, 64
1, 65471, Note_on_c, 0, 73, 41
1, 65503, Note_off_c, 0, 77, 64
1, 65589, Note_on_c, 0, 68, 50
1, 65593, Note_on_c, 0, 44, 34
1, 65603, Control_c, 0, 64, 0
1, 65612, Note_off_c, 0, 73, 64
1, 65721, Note_on_c, 0, 51, 38
1, 65726, Note_off_c, 0, 44, 64
1, 65734, Control_c, 0, 64, 127
1, 65816, Note_off_c, 0, 51, 64
1, 65821, Note_on_c, 0, 56, 30
1, 65871, Note_off_c, 0, 56, 64
1, 65923, Note_on_c, 0, 60, 42
1, 66006, Note_off_c, 0, 60, 64
1, 66018, Note_on_c, 0, 56, 50
1, 66062, Note_off_c, 0, 56, 64
1, 66119, Note_on_c, 0, 51, 38
1, 66146, Note_off_c, 0, 51, 64
1, 66216, Note_on_c, 0, 70, 67
1, 66225, Control_c, 0, 64, 0
1, 66232, Note_on_c, 0, 42, 43
1, 66255, Note_off_c, 0, 68, 64
1, 66336, Note_off_c, 0, 42, 64
1, 66337, Note_on_c, 0, 54, 57
1, 66341, Control_c, 0, 64, 127
1, 66380, Note_off_c, 0, 54, 64
1, 66441, Note_on_c, 0, 58, 43
1, 66515, Note_off_c, 0, 58, 64
1, 66551, Note_on_c, 0, 61, 51
1, 66645, Note_off_c, 0, 61, 64
1, 66654, Note_on_c, 0, 58, 37
1, 66717, Note_off_c, 0, 58, 64
1, 66744, Note_on_c, 0, 54, 38
1, 66773, Note_off_c, 0, 54, 64
1, 66824, Control_c, 0, 64, 0
1, 66838, Note_on_c, 0, 46, 44
1, 66924, Control_c, 0, 64, 127
1, 66945, Note_off_c, 0, 46, 64
1, 66951, Note_on_c, 0, 53, 46
1, 67014, Note_off_c, 0, 53, 64
1, 67038, Note_on_c, 0, 58, 27
1, 67091, Note_off_c, 0, 58, 64
1, 67127, Note_on_c, 0, 62, 52
1, 67176, Note_off_c, 0, 62, 64
1, 67204, Note_off_c, 0, 70, 64
1, 67218, Note_on_c, 0, 58, 31
1, 67281, Note_on_c, 0, 53, 74
1, 67298, Note_off_c, 0, 58, 64
1, 67304, Note_off_c, 0, 53, 64
1, 67322, Note_on_c, 0, 71, 71
1, 67344, Note_off_c, 0, 71, 64
1, 67344, Note_on_c, 0, 73, 73
1, 67373, Note_on_c, 0, 71, 88
1, 67389, Note_on_c, 0, 46, 42
1, 67393, Control_c, 0, 64, 0
1, 67411, Note_off_c, 0, 73, 64
1, 67472, Note_off_c, 0, 46, 64
1, 67477, Control_c, 0, 64, 127
1, 67481, Note_on_c, 0, 58, 35
1, 67516, Note_on_c, 0, 70, 83
1, 67523, Note_off_c, 0, 58, 64
1, 67541, Note_off_c, 0, 71, 64
1, 67586, Note_on_c, 0, 62, 48
1, 67664, Note_off_c, 0, 62, 64
1, 67672, Note_on_c, 0, 75, 86
1, 67679, Note_on_c, 0, 68, 59
1, 67704, Note_off_c, 0, 70, 64
1, 67770, Note_off_c, 0, 68, 64
1, 67792, Note_on_c, 0, 62, 50
1, 67819, Note_on_c, 0, 77, 92
1, 67832, Note_off_c, 0, 62, 64
1, 67859, Note_off_c, 0, 75, 64
1, 67877, Note_on_c, 0, 58, 32
1, 67906, Note_off_c, 0, 58, 64
1, 67953, Note_on_c, 0, 51, 52
1, 67961, Control_c, 0, 64, 0
1, 67966, Note_on_c, 0, 78, 79
1, 68000, Note_off_c, 0, 77, 64
1, 68068, Note_on_c, 0, 66, 43
1, 68092, Control_c, 0, 64, 127
1, 68126, Note_off_c, 0, 51, 64
1, 68167, Note_off_c, 0, 66, 64
1, 68167, Note_on_c, 0, 58, 34
1, 68259, Note_off_c, 0, 58, 64
1, 68281, Note_on_c, 0, 77, 70
1, 68289, Note_on_c, 0, 53, 45
1, 68299, Control_c, 0, 64, 0
1, 68333, Note_off_c, 0, 78, 64
1, 68394, Note_on_c, 0, 65, 30
1, 68414, Control_c, 0, 64, 127
1, 68484, Note_off_c, 0, 65, 64
1, 68485, Note_on_c, 0, 57, 25
1, 68518, Note_off_c, 0, 53, 64
1, 68568, Note_off_c, 0, 57, 64
1, 68585, Note_on_c, 0, 54, 48
1, 68586, Note_on_c, 0, 75, 58
1, 68622, Control_c, 0, 64, 0
1, 68663, Note_off_c, 0, 77, 64
1, 68694, Note_on_c, 0, 63, 41
1, 68752, Control_c, 0, 64, 127
1, 68792, Note_on_c, 0, 58, 29
1, 68817, Note_off_c, 0, 63, 64
1, 68847, Note_off_c, 0, 58, 64
1, 68892, Note_off_c, 0, 54, 64
1, 68921, Note_on_c, 0, 77, 64
1, 68935, Note_on_c, 0, 56, 29
1, 68945, Control_c, 0, 64, 0
1, 68967, Note_off_c, 0, 75, 64
1, 69036, Note_on_c, 0, 66, 26
1, 69091, Control_c, 0, 64, 127
1, 69113, Note_off_c, 0, 66, 64
1, 69162, Note_on_c, 0, 60, 20
1, 69203, Note_off_c, 0, 60, 64
1, 69229, Note_off_c, 0, 56, 64
1, 69316, Note_on_c, 0, 73, 44
1, 69334, Note_on_c, 0, 49, 28
1, 69335, Control_c, 0, 64, 0
1, 69399, Note_off_c, 0, 77, 64
1, 69467, Control_c, 0, 64, 127
1, 69468, Note_on_c, 0, 56, 25
1, 69469, Note_off_c, 0, 49, 64
1, 69563, Note_off_c, 0, 56, 64
1, 69585, Note_on_c, 0, 61, 22
1, 69635, Note_off_c, 0, 61, 64
1, 69694, Note_on_c, 0, 65, 25
1, 69793, Note_off_c, 0, 65, 64
1, 69815, Note_on_c, 0, 61, 33
1, 69857, Note_on_c, 0, 67, 44
1, 69903, Note_off_c, 0, 73, 64
1, 69907, Note_off_c, 0, 67, 64
1, 69923, Note_on_c, 0, 68, 44
1, 69934, Note_off_c, 0, 61, 64
1, 69969, Note_on_c, 0, 56, 17
1, 69981, Note_on_c, 0, 70, 48
1, 69989, Note_off_c, 0, 68, 64
1, 70010, Note_off_c, 0, 70, 64
1, 70028, Note_on_c, 0, 68, 55
1, 70075, Note_off_c, 0, 56, 64
1, 70097, Control_c, 0, 64, 0
1, 70106, Note_on_c, 0, 49, 19
1, 70137, Note_on_c, 0, 77, 73
1, 70181, Note_off_c, 0, 68, 64
1, 70250, Control_c, 0, 64, 127
1, 70251, Note_on_c, 0, 56, 34
1, 70265, Note_off_c, 0, 49, 64
1, 70343, Note_off_c, 0, 56, 64
1, 70378, Note_on_c, 0, 60, 18
1, 70499, Note_off_c, 0, 60, 64
1, 70526, Note_on_c, 0, 66, 28
1, 70627, Note_off_c, 0, 66, 64
1, 70673, Note_on_c, 0, 60, 25
1, 70720, Note_on_c, 0, 75, 55
1, 70724, Note_off_c, 0, 60, 64
1, 70794, Note_on_c, 0, 56, 13
1, 70815, Note_off_c, 0, 75, 64
1, 70854, Note_off_c, 0, 56, 64
1, 70892, Note_on_c, 0, 49, 20
1, 70893, Note_on_c, 0, 75, 55
1, 70896, Control_c, 0, 64, 0
1, 70965, Note_off_c, 0, 77, 64
1, 70996, Control_c, 0, 64, 127
1, 71016, Note_off_c, 0, 49, 64
1, 71021, Note_on_c, 0, 56, 26
1, 71109, Note_off_c, 0, 56, 64
1, 71135, Note_on_c, 0, 60, 23
1, 71197, Note_off_c, 0, 60, 64
1, 71236, Note_on_c, 0, 66, 21
1, 71309, Note_off_c, 0, 66, 64
1, 71347, Note_on_c, 0, 60, 24
1, 71400, Note_off_c, 0, 60, 64
1, 71430, Note_on_c, 0, 56, 29
1, 71500, Note_off_c, 0, 56, 64
1, 71566, Note_on_c, 0, 49, 18
1, 71573, Note_on_c, 0, 73, 29
1, 71580, Control_c, 0, 64, 0
1, 71628, Note_off_c, 0, 75, 64
1, 71699, Note_on_c, 0, 56, 27
1, 71705, Note_off_c, 0, 49, 64
1, 71718, Control_c, 0, 64, 127
1, 71766, Note_off_c, 0, 56, 64
1, 71823, Note_on_c, 0, 61, 15
1, 71879, Note_off_c, 0, 61, 64
1, 71936, Note_on_c, 0, 65, 22
1, 72046, Note_off_c, 0, 65, 64
1, 72072, Note_off_c, 0, 73, 64
1, 72089, Note_on_c, 0, 61, 27
1, 72160, Note_on_c, 0, 80, 85
1, 72168, Note_off_c, 0, 61, 64
1, 72236, Note_on_c, 0, 56, 30
1, 72268, Note_off_c, 0, 56, 64
1, 72370, Note_on_c, 0, 68, 68
1, 72384, Note_on_c, 0, 44, 44
1, 72425, Control_c, 0, 64, 0
1, 72458, Note_off_c, 0, 80, 64
1, 72524, Control_c, 0, 64, 127
1, 72527, Note_on_c, 0, 51, 34
1, 72530, Note_off_c, 0, 44, 64
1, 72634, Note_on_c, 0, 56, 36
1, 72641, Note_off_c, 0, 51, 64
1, 72733, Note_off_c, 0, 56, 64
1, 72768, Note_on_c, 0, 60, 36
1, 72872, Note_on_c, 0, 56, 40
1, 72883, Note_off_c, 0, 60, 64
1, 72919, Note_off_c, 0, 68, 64
1, 72964, Note_off_c, 0, 56, 64
1, 72964, Note_on_c, 0, 51, 45
1, 72993, Note_on_c, 0, 70, 63
1, 73005, Note_off_c, 0, 51, 64
1, 73017, Note_off_c, 0, 70, 64
1, 73022, Note_on_c, 0, 72, 74
1, 73043, Note_on_c, 0, 70, 69
1, 73044, Note_on_c, 0, 44, 51
1, 73070, Control_c, 0, 64, 0
1, 73077, Note_off_c, 0, 72, 64
1, 73168, Note_on_c, 0, 51, 51
1, 73170, Control_c, 0, 64, 127
1, 73180, Note_off_c, 0, 44, 64
1, 73269, Note_on_c, 0, 55, 57
1, 73308, Note_on_c, 0, 69, 79
1, 73334, Note_off_c, 0, 70, 64
1, 73368, Note_off_c, 0, 55, 64
1, 73385, Note_on_c, 0, 70, 73
1, 73390, Note_on_c, 0, 61, 50
1, 73415, Note_off_c, 0, 69, 64
1, 73440, Control_c, 0, 64, 0
1, 73489, Note_off_c, 0, 61, 64
1, 73500, Control_c, 0, 64, 127
1, 73501, Note_on_c, 0, 55, 64
1, 73516, Note_off_c, 0, 51, 64
1, 73571, Note_off_c, 0, 55, 64
1, 73577, Note_on_c, 0, 51, 47
1, 73606, Note_on_c, 0, 72, 81
1, 73621, Note_off_c, 0, 70, 64
1, 73646, Note_on_c, 0, 44, 55
1, 73654, Control_c, 0, 64, 0
1, 73660, Note_off_c, 0, 51, 64
1, 73664, Note_on_c, 0, 68, 88
1, 73675, Note_off_c, 0, 72, 64
1, 73762, Control_c, 0, 64, 127
1, 73773, Note_on_c, 0, 51, 52
1, 73786, Note_off_c, 0, 68, 64
1, 73786, Note_off_c, 0, 44, 64
1, 73888, Note_on_c, 0, 56, 56
1, 74029, Note_on_c, 0, 60, 59
1, 74035, Note_off_c, 0, 56, 64
1, 74083, Note_on_c, 0, 96, 105
1, 74166, Note_off_c, 0, 51, 64
1, 74194, Note_off_c, 0, 60, 64
1, 74197, Note_on_c, 0, 56, 48
1, 74306, Note_on_c, 0, 51, 56
1, 74322, Note_off_c, 0, 56, 64
1, 74418, Note_on_c, 0, 49, 62
1, 74427, Note_off_c, 0, 51, 64
1, 74541, Note_on_c, 0, 94, 81
1, 74553, Control_c, 0, 64, 0
1, 74588, Note_off_c, 0, 96, 64
1, 74653, Control_c, 0, 64, 127
1, 74658, Note_on_c, 0, 92, 73
1, 74672, Note_on_c, 0, 56, 43
1, 74687, Note_off_c, 0, 94, 64
1, 74700, Note_off_c, 0, 49, 64
1, 74733, Note_on_c, 0, 88, 80
1, 74740, Note_off_c, 0, 92, 64
1, 74794, Note_on_c, 0, 87, 79
1, 74806, Note_off_c, 0, 88, 64
1, 74813, Note_on_c, 0, 61, 47
1, 74863, Note_on_c, 0, 85, 78
1, 74883, Note_off_c, 0, 87, 64
1, 74916, Note_off_c, 0, 85, 64
1, 74927, Note_on_c, 0, 81, 68
1, 74961, Note_on_c, 0, 64, 38
1, 74964, Note_off_c, 0, 61, 64
1, 75011, Note_off_c, 0, 81, 64
1, 75017, Note_on_c, 0, 84, 80
1, 75045, Note_off_c, 0, 56, 64
1, 75073, Note_on_c, 0, 82, 67
1, 75081, Note_off_c, 0, 84, 64
1, 75129, Note_on_c, 0, 80, 76
1, 75130, Note_on_c, 0, 61, 34
1, 75142, Note_off_c, 0, 82, 64
1, 75175, Note_on_c, 0, 76, 68
1, 75182, Note_off_c, 0, 80, 64
1, 75225, Note_on_c, 0, 73, 83
1, 75248, Note_off_c, 0, 76, 64
1, 75293, Note_on_c, 0, 70, 78
1, 75297, Note_on_c, 0, 56, 37
1, 75302, Note_off_c, 0, 73, 64
1, 75306, Control_c, 0, 64, 0
1, 75348, Note_off_c, 0, 61, 64
1, 75349, Note_off_c, 0, 64, 64
1, 75367, Control_c, 0, 64, 127
1, 75386, Note_off_c, 0, 70, 64
1, 75391, Note_off_c, 0, 56, 64
1, 75486, Note_on_c, 0, 80, 87
1, 75547, Note_off_c, 0, 80, 64
1, 75580, Note_on_c, 0, 39, 31
1, 75601, Note_on_c, 0, 63, 81
1, 75621, Control_c, 0, 64, 0
1, 75710, Note_off_c, 0, 39, 64
1, 75720, Control_c, 0, 64, 127
1, 75779, Note_on_c, 0, 51, 34
1, 75900, Note_on_c, 0, 56, 56
1, 75922, Note_off_c, 0, 51, 64
1, 75973, Note_off_c, 0, 56, 64
1, 76011, Note_on_c, 0, 60, 52
1, 76116, Note_off_c, 0, 60, 64
1, 76125, Note_on_c, 0, 56, 49
1, 76167, Note_off_c, 0, 56, 64
1, 76230, Note_on_c, 0, 51, 45
1, 76259, Note_off_c, 0, 51, 64
1, 76300, Note_on_c, 0, 72, 61
1, 76335, Control_c, 0, 64, 0
1, 76359, Note_on_c, 0, 39, 45
1, 76360, Note_on_c, 0, 70, 70
1, 76364, Note_off_c, 0, 63, 64
1, 76402, Note_off_c, 0, 72, 64
1, 76443, Control_c, 0, 64, 127
1, 76449, Note_off_c, 0, 39, 64
1, 76537, Note_on_c, 0, 51, 37
1, 76652, Note_on_c, 0, 55, 41
1, 76693, Note_on_c, 0, 69, 54
1, 76699, Note_off_c, 0, 70, 64
1, 76704, Note_off_c, 0, 55, 64
1, 76750, Control_c, 0, 64, 0
1, 76774, Note_on_c, 0, 70, 58
1, 76781, Note_on_c, 0, 61, 35
1, 76791, Note_off_c, 0, 69, 64
1, 76850, Control_c, 0, 64, 127
1, 76891, Note_off_c, 0, 61, 64
1, 76902, Note_off_c, 0, 51, 64
1, 76917, Note_on_c, 0, 55, 32
1, 76955, Note_off_c, 0, 55, 64
1, 77036, Note_on_c, 0, 51, 18
1, 77063, Note_on_c, 0, 75, 59
1, 77083, Note_off_c, 0, 51, 64
1, 77085, Note_off_c, 0, 70, 64
1, 77111, Control_c, 0, 64, 0
1, 77131, Note_on_c, 0, 68, 51
1, 77137, Note_on_c, 0, 44, 39
1, 77145, Note_off_c, 0, 75, 64
1, 77265, Control_c, 0, 64, 127
1, 77269, Note_off_c, 0, 44, 64
1, 77279, Note_on_c, 0, 51, 25
1, 77380, Note_off_c, 0, 51, 64
1, 77382, Note_on_c, 0, 56, 29
1, 77487, Note_off_c, 0, 56, 64
1, 77515, Note_on_c, 0, 60, 27
1, 77626, Note_off_c, 0, 60, 64
1, 77651, Note_on_c, 0, 56, 28
1, 77745, Note_off_c, 0, 56, 64
1, 77799, Note_on_c, 0, 51, 22
1, 77840, Note_off_c, 0, 51, 64
1, 77953, Note_on_c, 0, 70, 36
1, 77956, Control_c, 0, 64, 0
1, 77965, Note_on_c, 0, 42, 31
1, 77979, Note_off_c, 0, 68, 64
1, 78095, Control_c, 0, 64, 127
1, 78104, Note_off_c, 0, 42, 64
1, 78131, Note_on_c, 0, 54, 26
1, 78214, Note_off_c, 0, 54, 64
1, 78271, Note_on_c, 0, 58, 22
1, 78408, Note_off_c, 0, 58, 64
1, 78480, Note_on_c, 0, 73, 34
1, 78486, Note_on_c, 0, 61, 28
1, 78505, Note_off_c, 0, 70, 64
1, 78591, Note_off_c, 0, 61, 64
1, 78671, Note_on_c, 0, 58, 20
1, 78673, Note_on_c, 0, 72, 25
1, 78686, Note_off_c, 0, 73, 64
1, 78734, Note_off_c, 0, 58, 64
1, 78809, Note_off_c, 0, 72, 64
1, 78822, Note_on_c, 0, 70, 22
1, 78833, Note_on_c, 0, 54, 27
1, 78865, Note_off_c, 0, 54, 64
1, 78975, Note_on_c, 0, 68, 33
1, 78977, Control_c, 0, 64, 0
1, 79001, Note_on_c, 0, 44, 32
1, 79002, Note_off_c, 0, 70, 64
1, 79109, Control_c, 0, 64, 127
1, 79120, Note_off_c, 0, 44, 64
1, 79136, Note_on_c, 0, 51, 20
1, 79232, Note_off_c, 0, 51, 64
1, 79237, Note_on_c, 0, 56, 30
1, 79318, Note_off_c, 0, 56, 64
1, 79350, Note_on_c, 0, 60, 26
1, 79400, Note_off_c, 0, 60, 64
1, 79446, Note_on_c, 0, 56, 26
1, 79493, Note_off_c, 0, 56, 64
1, 79546, Note_on_c, 0, 51, 19
1, 79617, Note_off_c, 0, 51, 64
1, 79647, Note_on_c, 0, 70, 37
1, 79661, Note_off_c, 0, 68, 64
1, 79678, Note_off_c, 0, 70, 64
1, 79682, Note_on_c, 0, 72, 42
1, 79702, Note_on_c, 0, 44, 25
1, 79708, Note_on_c, 0, 70, 68
1, 79712, Note_off_c, 0, 72, 64
1, 79790, Note_off_c, 0, 44, 64
1, 79816, Note_on_c, 0, 56, 29
1, 79853, Note_off_c, 0, 56, 64
1, 79854, Note_on_c, 0, 68, 63
1, 79882, Note_off_c, 0, 70, 64
1, 79932, Note_on_c, 0, 60, 22
1, 80006, Note_on_c, 0, 73, 57
1, 80021, Note_on_c, 0, 66, 28
1, 80030, Note_off_c, 0, 60, 64
1, 80037, Note_off_c, 0, 68, 64
1, 80090, Note_off_c, 0, 66, 64
1, 80148, Note_on_c, 0, 60, 33
1, 80152, Note_on_c, 0, 75, 71
1, 80186, Note_off_c, 0, 60, 64
1, 80205, Note_off_c, 0, 73, 64
1, 80233, Note_on_c, 0, 56, 28
1, 80307, Note_off_c, 0, 56, 64
1, 80346, Note_on_c, 0, 77, 65
1, 80346, Control_c, 0, 64, 0
1, 80351, Note_on_c, 0, 49, 28
1, 80378, Note_off_c, 0, 75, 64
1, 80460, Note_on_c, 0, 56, 32
1, 80460, Control_c, 0, 64, 127
1, 80464, Note_off_c, 0, 49, 64
1, 80558, Note_off_c, 0, 56, 64
1, 80562, Note_on_c, 0, 61, 29
1, 80614, Note_off_c, 0, 61, 64
1, 80658, Note_on_c, 0, 65, 38
1, 80721, Note_off_c, 0, 65, 64
1, 80762, Note_on_c, 0, 61, 36
1, 80802, Note_off_c, 0, 61, 64
1, 80841, Note_on_c, 0, 56, 20
1, 80918, Note_off_c, 0, 56, 64
1, 80967, Note_on_c, 0, 49, 24
1, 80967, Control_c, 0, 64, 0
1, 80976, Note_on_c, 0, 80, 52
1, 80998, Note_off_c, 0, 77, 64
1, 81060, Control_c, 0, 64, 127
1, 81087, Note_off_c, 0, 49, 64
1, 81094, Note_on_c, 0, 56, 33
1, 81197, Note_off_c, 0, 56, 64
1, 81214, Note_on_c, 0, 65, 25
1, 81334, Note_off_c, 0, 65, 64
1, 81353, Note_on_c, 0, 68, 36
1, 81505, Note_on_c, 0, 65, 17
1, 81571, Note_off_c, 0, 68, 64
1, 81581, Note_off_c, 0, 65, 64
1, 81636, Note_on_c, 0, 56, 26
1, 81795, Note_on_c, 0, 78, 56
1, 81802, Note_on_c, 0, 66, 23
1, 81813, Control_c, 0, 64, 0
1, 81852, Note_off_c, 0, 80, 64
1, 81914, Note_off_c, 0, 56, 64
1, 81921, Control_c, 0, 64, 127
1, 81929, Note_on_c, 0, 63, 35
1, 82016, Note_off_c, 0, 63, 64
1, 82024, Note_off_c, 0, 66, 64
1, 82037, Note_on_c, 0, 56, 36
1, 82080, Note_off_c, 0, 56, 64
1, 82163, Note_on_c, 0, 56, 2
1, 82197, Note_on_c, 0, 77, 62
1, 82201, Note_on_c, 0, 65, 44
1, 82228, Control_c, 0, 64, 0
1, 82255, Note_off_c, 0, 78, 64
1, 82284, Note_off_c, 0, 56, 64
1, 82312, Note_on_c, 0, 61, 28
1, 82320, Control_c, 0, 64, 127
1, 82382, Note_off_c, 0, 65, 64
1, 82421, Note_off_c, 0, 61, 64
1, 82428, Note_on_c, 0, 56, 32
1, 82515, Note_on_c, 0, 75, 59
1, 82527, Control_c, 0, 64, 0
1, 82528, Note_on_c, 0, 63, 50
1, 82552, Note_off_c, 0, 77, 64
1, 82553, Note_off_c, 0, 56, 64
1, 82619, Control_c, 0, 64, 127
1, 82640, Note_on_c, 0, 60, 26
1, 82670, Note_on_c, 0, 77, 66
1, 82684, Note_off_c, 0, 75, 64
1, 82721, Note_off_c, 0, 60, 64
1, 82749, Note_on_c, 0, 75, 53
1, 82762, Note_off_c, 0, 77, 64
1, 82766, Note_on_c, 0, 56, 28
1, 82792, Note_off_c, 0, 63, 64
1, 82823, Note_off_c, 0, 56, 64
1, 82824, Note_off_c, 0, 75, 64
1, 82824, Note_on_c, 0, 73, 52
1, 82904, Note_on_c, 0, 75, 55
1, 82925, Note_off_c, 0, 73, 64
1, 82932, Note_on_c, 0, 61, 29
1, 82973, Control_c, 0, 64, 0
1, 83008, Note_on_c, 0, 77, 49
1, 83024, Note_off_c, 0, 75, 64
1, 83104, Note_on_c, 0, 56, 27
1, 83165, Control_c, 0, 64, 127
1, 83223, Note_off_c, 0, 56, 64
1, 83224, Note_off_c, 0, 61, 64
1, 83283, Note_on_c, 0, 53, 37
1, 83334, Note_off_c, 0, 53, 64
1, 83399, Note_on_c, 0, 73, 37
1, 83458, Note_off_c, 0, 77, 64
1, 83521, Note_on_c, 0, 44, 26
1, 83531, Note_on_c, 0, 68, 36
1, 83549, Control_c, 0, 64, 0
1, 83562, Note_off_c, 0, 73, 64
1, 83680, Control_c, 0, 64, 127
1, 83684, Note_on_c, 0, 51, 23
1, 83685, Note_off_c, 0, 44, 64
1, 83803, Note_off_c, 0, 51, 64
1, 83812, Note_on_c, 0, 56, 30
1, 83915, Note_off_c, 0, 56, 64
1, 83934, Note_on_c, 0, 60, 29
1, 84027, Note_off_c, 0, 60, 64
1, 84041, Note_on_c, 0, 56, 35
1, 84091, Note_off_c, 0, 56, 64
1, 84169, Note_on_c, 0, 51, 30
1, 84200, Note_off_c, 0, 51, 64
1, 84202, Note_off_c, 0, 68, 64
1, 84274, Note_on_c, 0, 70, 62
1, 84293, Note_on_c, 0, 42, 29
1, 84302, Control_c, 0, 64, 0
1, 84397, Note_off_c, 0, 42, 64
1, 84410, Note_on_c, 0, 54, 34
1, 84417, Control_c, 0, 64, 127
1, 84463, Note_off_c, 0, 54, 64
1, 84515, Note_on_c, 0, 58, 23
1, 84605, Note_off_c, 0, 58, 64
1, 84624, Note_on_c, 0, 61, 35
1, 84718, Note_off_c, 0, 61, 64
1, 84750, Note_on_c, 0, 58, 19
1, 84843, Note_off_c, 0, 58, 64
1, 84864, Note_on_c, 0, 54, 19
1, 84900, Note_off_c, 0, 54, 64
1, 84971, Control_c, 0, 64, 0
1, 84978, Note_on_c, 0, 46, 31
1, 85078, Control_c, 0, 64, 127
1, 85101, Note_off_c, 0, 46, 64
1, 85102, Note_on_c, 0, 53, 52
1, 85164, Note_off_c, 0, 53, 64
1, 85191, Note_on_c, 0, 58, 36
1, 85239, Note_off_c, 0, 58, 64
1, 85296, Note_on_c, 0, 62, 53
1, 85368, Note_off_c, 0, 62, 64
1, 85394, Note_on_c, 0, 58, 35
1, 85470, Note_off_c, 0, 58, 64
1, 85512, Note_off_c, 0, 70, 64
1, 85515, Note_on_c, 0, 53, 34
1, 85548, Note_off_c, 0, 53, 64
1, 85554, Note_on_c, 0, 71, 57
1, 85577, Note_on_c, 0, 73, 69
1, 85581, Note_off_c, 0, 71, 64
1, 85610, Note_on_c, 0, 71, 90
1, 85630, Note_on_c, 0, 46, 28
1, 85641, Note_off_c, 0, 73, 64
1, 85669, Control_c, 0, 64, 0
1, 85736, Note_off_c, 0, 46, 64
1, 85738, Control_c, 0, 64, 127
1, 85744, Note_on_c, 0, 58, 35
1, 85784, Note_on_c, 0, 70, 75
1, 85788, Note_off_c, 0, 58, 64
1, 85804, Note_off_c, 0, 71, 64
1, 85862, Note_on_c, 0, 62, 33
1, 85903, Note_off_c, 0, 62, 64
1, 85938, Note_on_c, 0, 68, 59
1, 85965, Note_on_c, 0, 75, 84
1, 86003, Note_off_c, 0, 70, 64
1, 86038, Control_c, 0, 64, 0
1, 86093, Note_on_c, 0, 62, 39
1, 86100, Control_c, 0, 64, 127
1, 86104, Note_off_c, 0, 68, 64
1, 86128, Note_off_c, 0, 62, 64
1, 86128, Note_on_c, 0, 77, 92
1, 86166, Note_off_c, 0, 75, 64
1, 86191, Note_on_c, 0, 58, 24
1, 86224, Note_off_c, 0, 58, 64
1, 86287, Note_on_c, 0, 51, 40
1, 86327, Note_on_c, 0, 78, 74
1, 86338, Control_c, 0, 64, 0
1, 86346, Note_off_c, 0, 77, 64
1, 86448, Note_on_c, 0, 66, 34
1, 86484, Control_c, 0, 64, 127
1, 86506, Note_off_c, 0, 51, 64
1, 86521, Note_off_c, 0, 66, 64
1, 86562, Note_on_c, 0, 58, 29
1, 86632, Note_off_c, 0, 58, 64
1, 86666, Note_on_c, 0, 77, 66
1, 86676, Control_c, 0, 64, 0
1, 86681, Note_on_c, 0, 53, 36
1, 86718, Note_off_c, 0, 78, 64
1, 86787, Note_on_c, 0, 65, 30
1, 86807, Control_c, 0, 64, 127
1, 86868, Note_off_c, 0, 65, 64
1, 86873, Note_off_c, 0, 53, 64
1, 86893, Note_on_c, 0, 57, 19
1, 86965, Note_off_c, 0, 57, 64
1, 86995, Note_on_c, 0, 54, 37
1, 87003, Note_on_c, 0, 75, 57
1, 87029, Control_c, 0, 64, 0
1, 87085, Note_off_c, 0, 77, 64
1, 87112, Note_on_c, 0, 63, 36
1, 87190, Control_c, 0, 64, 127
1, 87224, Note_on_c, 0, 58, 19
1, 87226, Note_off_c, 0, 63, 64
1, 87246, Note_off_c, 0, 54, 64
1, 87350, Note_off_c, 0, 58, 64
1, 87384, Note_on_c, 0, 56, 20
1, 87384, Note_on_c, 0, 77, 44
1, 87413, Control_c, 0, 64, 0
1, 87432, Note_off_c, 0, 75, 64
1, 87525, Note_on_c, 0, 66, 19
1, 87567, Control_c, 0, 64, 127
1, 87629, Note_off_c, 0, 66, 64
1, 87765, Note_off_c, 0, 56, 64
1, 87863, Note_on_c, 0, 73, 24
1, 87867, Control_c, 0, 64, 0
1, 87873, Note_on_c, 0, 49, 28
1, 87977, Note_off_c, 0, 77, 64
1, 88036, Control_c, 0, 64, 127
1, 88045, Note_off_c, 0, 49, 64
1, 88050, Note_on_c, 0, 56, 22
1, 88161, Note_off_c, 0, 56, 64
1, 88179, Note_on_c, 0, 61, 19
1, 88270, Note_off_c, 0, 61, 64
1, 88290, Note_on_c, 0, 65, 24
1, 88399, Note_off_c, 0, 65, 64
1, 88419, Note_on_c, 0, 61, 31
1, 88469, Note_on_c, 0, 67, 42
1, 88550, Note_on_c, 0, 68, 47
1, 88551, Note_off_c, 0, 73, 64
1, 88553, Note_off_c, 0, 67, 64
1, 88571, Note_off_c, 0, 61, 64
1, 88602, Note_on_c, 0, 56, 17
1, 88619, Note_off_c, 0, 68, 64
1, 88625, Note_on_c, 0, 70, 50
1, 88658, Note_off_c, 0, 70, 64
1, 88696, Note_on_c, 0, 68, 61
1, 88728, Note_off_c, 0, 56, 64
1, 88750, Control_c, 0, 64, 0
1, 88755, Note_on_c, 0, 49, 26
1, 88831, Note_on_c, 0, 77, 63
1, 88847, Note_off_c, 0, 68, 64
1, 88942, Control_c, 0, 64, 127
1, 88958, Note_on_c, 0, 56, 32
1, 88983, Note_off_c, 0, 49, 64
1, 89102, Note_off_c, 0, 56, 64
1, 89126, Note_on_c, 0, 60, 26
1, 89262, Note_off_c, 0, 60, 64
1, 89281, Note_on_c, 0, 66, 28
1, 89367, Note_off_c, 0, 66, 64
1, 89418, Note_on_c, 0, 60, 25
1, 89452, Note_on_c, 0, 75, 57
1, 89483, Note_off_c, 0, 60, 64
1, 89507, Note_off_c, 0, 77, 64
1, 89531, Note_on_c, 0, 56, 21
1, 89623, Note_off_c, 0, 56, 64
1, 89642, Note_off_c, 0, 75, 64
1, 89661, Note_on_c, 0, 49, 25
1, 89674, Note_on_c, 0, 75, 66
1, 89778, Note_off_c, 0, 49, 64
1, 89799, Note_on_c, 0, 56, 33
1, 89896, Note_off_c, 0, 56, 64
1, 89917, Note_on_c, 0, 60, 30
1, 89969, Note_off_c, 0, 60, 64
1, 90023, Note_on_c, 0, 66, 25
1, 90109, Note_off_c, 0, 66, 64
1, 90142, Note_on_c, 0, 60, 29
1, 90207, Note_off_c, 0, 60, 64
1, 90238, Note_on_c, 0, 56, 22
1, 90331, Note_off_c, 0, 56, 64
1, 90363, Note_on_c, 0, 49, 17
1, 90459, Note_off_c, 0, 49, 64
1, 90486, Note_on_c, 0, 56, 22
1, 90583, Note_off_c, 0, 56, 64
1, 90639, Note_on_c, 0, 60, 8
1, 90746, Note_off_c, 0, 60, 64
1, 90773, Note_on_c, 0, 66, 12
1, 90852, Note_off_c, 0, 66, 64
1, 90915, Note_on_c, 0, 60, 14
1, 91023, Note_off_c, 0, 60, 64
1, 91052, Note_on_c, 0, 56, 21
1, 91135, Note_off_c, 0, 75, 64
1, 91205, Note_off_c, 0, 56, 64
1, 91249, Note_on_c, 0, 49, 25
1, 91254, Control_c, 0, 64, 0
1, 91305, Note_on_c, 0, 68, 33
1, 91344, Note_off_c, 0, 68, 64
1, 91347, Control_c, 0, 64, 127
1, 91355, Note_off_c, 0, 49, 64
1, 91359, Note_on_c, 0, 56, 28
1, 91363, Note_on_c, 0, 69, 32
1, 91402, Note_on_c, 0, 68, 38
1, 91419, Note_off_c, 0, 69, 64
1, 91441, Note_off_c, 0, 68, 64
1, 91441, Note_on_c, 0, 61, 31
1, 91456, Note_off_c, 0, 56, 64
1, 91461, Note_on_c, 0, 67, 57
1, 91479, Note_off_c, 0, 61, 64
1, 91494, Note_off_c, 0, 67, 64
1, 91503, Note_on_c, 0, 68, 42
1, 91512, Note_on_c, 0, 64, 34
1, 91540, Note_off_c, 0, 68, 64
1, 91545, Note_on_c, 0, 73, 54
1, 91561, Note_on_c, 0, 61, 39
1, 91585, Note_off_c, 0, 73, 64
1, 91593, Note_off_c, 0, 61, 64
1, 91593, Control_c, 0, 64, 0
1, 91593, Note_on_c, 0, 76, 51
1, 91601, Note_off_c, 0, 64, 64
1, 91604, Note_on_c, 0, 56, 22
1, 91635, Note_on_c, 0, 75, 73
1, 91641, Note_off_c, 0, 56, 64
1, 91646, Note_off_c, 0, 76, 64
1, 91654, Note_on_c, 0, 52, 51
1, 91683, Note_on_c, 0, 73, 50
1, 91684, Note_off_c, 0, 75, 64
1, 91707, Note_on_c, 0, 56, 34
1, 91709, Note_off_c, 0, 73, 64
1, 91720, Note_on_c, 0, 75, 62
1, 91751, Note_off_c, 0, 56, 64
1, 91752, Note_on_c, 0, 73, 38
1, 91759, Note_on_c, 0, 61, 33
1, 91774, Note_off_c, 0, 75, 64
1, 91788, Note_off_c, 0, 73, 64
1, 91791, Note_off_c, 0, 61, 64
1, 91793, Note_on_c, 0, 72, 57
1, 91812, Note_on_c, 0, 64, 44
1, 91832, Note_on_c, 0, 73, 44
1, 91834, Note_off_c, 0, 72, 64
1, 91851, Note_off_c, 0, 64, 64
1, 91867, Note_off_c, 0, 73, 64
1, 91867, Note_off_c, 0, 52, 64
1, 91868, Control_c, 0, 64, 127
1, 91870, Note_on_c, 0, 61, 19
1, 91871, Note_on_c, 0, 76, 58
1, 91892, Note_on_c, 0, 56, 54
1, 91902, Note_off_c, 0, 76, 64
1, 91905, Note_off_c, 0, 61, 64
1, 91912, Note_on_c, 0, 80, 72
1, 91928, Note_off_c, 0, 56, 64
1, 91932, Note_off_c, 0, 80, 64
1, 91994, Note_on_c, 0, 49, 47
1, 92023, Control_c, 0, 64, 0
1, 92045, Note_on_c, 0, 68, 53
1, 92072, Note_off_c, 0, 68, 64
1, 92084, Note_on_c, 0, 69, 43
1, 92090, Note_on_c, 0, 56, 42
1, 92100, Note_off_c, 0, 49, 64
1, 92120, Note_off_c, 0, 69, 64
1, 92121, Note_on_c, 0, 68, 42
1, 92123, Control_c, 0, 64, 127
1, 92142, Note_off_c, 0, 56, 64
1, 92149, Note_off_c, 0, 68, 64
1, 92156, Note_on_c, 0, 61, 37
1, 92158, Note_on_c, 0, 67, 59
1, 92188, Note_off_c, 0, 61, 64
1, 92191, Note_off_c, 0, 67, 64
1, 92199, Note_on_c, 0, 68, 55
1, 92205, Note_on_c, 0, 64, 38
1, 92238, Note_on_c, 0, 73, 62
1, 92239, Note_off_c, 0, 68, 64
1, 92241, Note_on_c, 0, 61, 38
1, 92258, Note_off_c, 0, 64, 64
1, 92273, Note_off_c, 0, 61, 64
1, 92274, Note_on_c, 0, 56, 42
1, 92278, Note_off_c, 0, 73, 64
1, 92278, Note_on_c, 0, 76, 60
1, 92312, Note_off_c, 0, 56, 64
1, 92323, Note_on_c, 0, 75, 76
1, 92328, Note_off_c, 0, 76, 64
1, 92335, Note_on_c, 0, 52, 60
1, 92338, Control_c, 0, 64, 0
1, 92358, Note_on_c, 0, 73, 60
1, 92362, Note_off_c, 0, 75, 64
1, 92387, Note_off_c, 0, 73, 64
1, 92391, Note_on_c, 0, 75, 85
1, 92404, Note_on_c, 0, 56, 48
1, 92436, Note_on_c, 0, 73, 66
1, 92443, Note_off_c, 0, 56, 64
1, 92444, Note_on_c, 0, 61, 39
1, 92446, Note_off_c, 0, 75, 64
1, 92471, Note_off_c, 0, 73, 64
1, 92472, Note_off_c, 0, 52, 64
1, 92476, Note_off_c, 0, 61, 64
1, 92476, Note_on_c, 0, 72, 77
1, 92484, Control_c, 0, 64, 127
1, 92494, Note_on_c, 0, 64, 50
1, 92516, Note_on_c, 0, 73, 69
1, 92523, Note_on_c, 0, 61, 39
1, 92538, Note_off_c, 0, 64, 64
1, 92541, Note_off_c, 0, 72, 64
1, 92560, Note_on_c, 0, 76, 65
1, 92575, Note_on_c, 0, 56, 48
1, 92576, Note_off_c, 0, 73, 64
1, 92589, Note_off_c, 0, 61, 64
1, 92600, Note_on_c, 0, 80, 84
1, 92605, Note_off_c, 0, 56, 64
1, 92612, Note_off_c, 0, 76, 64
1, 92634, Note_off_c, 0, 80, 64
1, 92667, Note_on_c, 0, 51, 57
1, 92668, Control_c, 0, 64, 0
1, 92700, Note_on_c, 0, 69, 66
1, 92741, Note_on_c, 0, 57, 44
1, 92745, Note_on_c, 0, 73, 61
1, 92761, Note_off_c, 0, 51, 64
1, 92766, Note_off_c, 0, 69, 64
1, 92768, Control_c, 0, 64, 127
1, 92771, Note_off_c, 0, 57, 64
1, 92781, Note_on_c, 0, 75, 79
1, 92785, Note_on_c, 0, 61, 40
1, 92798, Note_off_c, 0, 73, 64
1, 92817, Note_off_c, 0, 61, 64
1, 92818, Note_on_c, 0, 78, 78
1, 92835, Note_off_c, 0, 78, 64
1, 92835, Note_off_c, 0, 75, 64
1, 92836, Note_on_c, 0, 66, 55
1, 92861, Note_on_c, 0, 81, 87
1, 92883, Note_off_c, 0, 81, 64
1, 92887, Note_on_c, 0, 61, 46
1, 92895, Note_on_c, 0, 85, 86
1, 92907, Note_off_c, 0, 66, 64
1, 92928, Note_on_c, 0, 57, 37
1, 92931, Note_off_c, 0, 61, 64
1, 92932, Note_on_c, 0, 87, 77
1, 92950, Note_off_c, 0, 87, 64
1, 92955, Note_off_c, 0, 85, 64
1, 92960, Control_c, 0, 64, 0
1, 92967, Note_off_c, 0, 57, 64
1, 92973, Note_on_c, 0, 95, 94
1, 92978, Note_on_c, 0, 54, 73
1, 93022, Note_on_c, 0, 93, 79
1, 93034, Note_on_c, 0, 61, 55
1, 93045, Control_c, 0, 64, 127
1, 93052, Note_on_c, 0, 92, 73
1, 93053, Note_off_c, 0, 95, 64
1, 93054, Note_off_c, 0, 54, 64
1, 93077, Note_off_c, 0, 61, 64
1, 93077, Note_on_c, 0, 63, 47
1, 93078, Note_off_c, 0, 93, 64
1, 93088, Note_on_c, 0, 90, 79
1, 93104, Note_off_c, 0, 63, 64
1, 93114, Note_off_c, 0, 92, 64
1, 93117, Note_off_c, 0, 90, 64
1, 93123, Note_on_c, 0, 88, 79
1, 93127, Note_on_c, 0, 69, 50
1, 93162, Note_off_c, 0, 69, 64
1, 93162, Note_on_c, 0, 87, 76
1, 93174, Note_on_c, 0, 63, 42
1, 93178, Note_off_c, 0, 88, 64
1, 93192, Note_on_c, 0, 61, 47
1, 93198, Note_off_c, 0, 63, 64
1, 93204, Note_on_c, 0, 90, 79
1, 93214, Note_off_c, 0, 87, 64
1, 93222, Note_off_c, 0, 61, 64
1, 93237, Note_on_c, 0, 85, 65
1, 93260, Control_c, 0, 64, 0
1, 93264, Note_off_c, 0, 85, 64
1, 93272, Note_off_c, 0, 90, 64
1, 93277, Note_on_c, 0, 84, 82
1, 93281, Note_on_c, 0, 44, 64
1, 93297, Note_off_c, 0, 84, 64
1, 93307, Note_on_c, 0, 87, 73
1, 93340, Note_off_c, 0, 87, 64
1, 93344, Control_c, 0, 64, 127
1, 93346, Note_off_c, 0, 44, 64
1, 93349, Note_on_c, 0, 51, 50
1, 93355, Note_on_c, 0, 81, 73
1, 93376, Note_off_c, 0, 81, 64
1, 93391, Note_off_c, 0, 51, 64
1, 93396, Note_on_c, 0, 80, 67
1, 93399, Note_on_c, 0, 54, 42
1, 93428, Note_off_c, 0, 54, 64
1, 93433, Note_on_c, 0, 78, 73
1, 93434, Note_off_c, 0, 80, 64
1, 93445, Note_on_c, 0, 60, 42
1, 93478, Note_off_c, 0, 78, 64
1, 93479, Note_on_c, 0, 81, 43
1, 93485, Note_off_c, 0, 60, 64
1, 93490, Note_on_c, 0, 79, 45
1, 93500, Note_on_c, 0, 54, 42
1, 93502, Note_on_c, 0, 76, 66
1, 93507, Note_off_c, 0, 81, 64
1, 93525, Note_off_c, 0, 76, 64
1, 93525, Note_off_c, 0, 79, 64
1, 93526, Note_off_c, 0, 54, 64
1, 93535, Note_on_c, 0, 51, 40
1, 93540, Note_on_c, 0, 75, 61
1, 93560, Control_c, 0, 64, 0
1, 93581, Note_off_c, 0, 75, 64
1, 93583, Note_on_c, 0, 78, 78
1, 93587, Note_on_c, 0, 44, 58
1, 93590, Note_off_c, 0, 51, 64
1, 93618, Note_on_c, 0, 73, 36
1, 93646, Note_off_c, 0, 73, 64
1, 93646, Note_off_c, 0, 78, 64
1, 93646, Note_on_c, 0, 51, 45
1, 93652, Control_c, 0, 64, 127
1, 93655, Note_off_c, 0, 44, 64
1, 93655, Note_on_c, 0, 72, 62
1, 93682, Note_off_c, 0, 72, 64
1, 93688, Note_on_c, 0, 75, 68
1, 93707, Note_off_c, 0, 51, 64
1, 93708, Note_on_c, 0, 54, 44
1, 93713, Note_off_c, 0, 75, 64
1, 93735, Note_on_c, 0, 69, 63
1, 93739, Note_off_c, 0, 54, 64
1, 93752, Note_on_c, 0, 60, 40
1, 93780, Note_off_c, 0, 69, 64
1, 93780, Note_on_c, 0, 68, 62
1, 93812, Note_off_c, 0, 68, 64
1, 93812, Note_off_c, 0, 60, 64
1, 93817, Note_on_c, 0, 71, 59
1, 93828, Note_on_c, 0, 54, 48
1, 93859, Note_off_c, 0, 54, 64
1, 93866, Note_on_c, 0, 69, 53
1, 93874, Control_c, 0, 64, 0
1, 93877, Note_on_c, 0, 51, 18
1, 93878, Note_off_c, 0, 71, 64
1, 93915, Note_off_c, 0, 51, 64
1, 93930, Note_off_c, 0, 69, 64
1, 93934, Note_on_c, 0, 49, 46
1, 93971, Note_on_c, 0, 68, 43
1, 93998, Note_off_c, 0, 68, 64
1, 94002, Note_on_c, 0, 69, 51
1, 94005, Control_c, 0, 64, 127
1, 94006, Note_on_c, 0, 56, 44
1, 94011, Note_off_c, 0, 49, 64
1, 94038, Note_on_c, 0, 68, 34
1, 94041, Note_off_c, 0, 69, 64
1, 94044, Note_off_c, 0, 56, 64
1, 94065, Note_on_c, 0, 61, 47
1, 94072, Note_off_c, 0, 68, 64
1, 94083, Note_on_c, 0, 67, 54
1, 94094, Note_off_c, 0, 61, 64
1, 94119, Note_on_c, 0, 64, 35
1, 94120, Note_off_c, 0, 67, 64
1, 94124, Note_on_c, 0, 68, 52
1, 94155, Note_on_c, 0, 61, 28
1, 94156, Note_off_c, 0, 68, 64
1, 94162, Note_on_c, 0, 73, 57
1, 94165, Note_off_c, 0, 64, 64
1, 94190, Note_off_c, 0, 61, 64
1, 94195, Note_off_c, 0, 73, 64
1, 94199, Note_on_c, 0, 56, 40
1, 94211, Note_on_c, 0, 76, 36
1, 94229, Note_off_c, 0, 56, 64
1, 94247, Note_on_c, 0, 75, 76
1, 94252, Note_on_c, 0, 52, 60
1, 94259, Note_off_c, 0, 76, 64
1, 94266, Control_c, 0, 64, 0
1, 94289, Note_on_c, 0, 73, 51
1, 94292, Note_off_c, 0, 75, 64
1, 94310, Note_on_c, 0, 56, 42
1, 94319, Note_off_c, 0, 73, 64
1, 94323, Note_on_c, 0, 75, 71
1, 94363, Note_on_c, 0, 61, 50
1, 94364, Note_on_c, 0, 73, 53
1, 94370, Note_off_c, 0, 56, 64
1, 94382, Note_off_c, 0, 75, 64
1, 94404, Note_off_c, 0, 73, 64
1, 94406, Note_off_c, 0, 61, 64
1, 94406, Note_on_c, 0, 72, 63
1, 94428, Control_c, 0, 64, 127
1, 94429, Note_on_c, 0, 64, 46
1, 94440, Note_on_c, 0, 73, 62
1, 94461, Note_off_c, 0, 72, 64
1, 94462, Note_off_c, 0, 64, 64
1, 94466, Note_off_c, 0, 52, 64
1, 94469, Note_on_c, 0, 61, 35
1, 94489, Note_on_c, 0, 76, 64
1, 94493, Note_off_c, 0, 73, 64
1, 94505, Note_off_c, 0, 61, 64
1, 94506, Note_on_c, 0, 56, 52
1, 94532, Note_off_c, 0, 56, 64
1, 94536, Note_on_c, 0, 80, 76
1, 94540, Note_off_c, 0, 76, 64
1, 94557, Note_off_c, 0, 80, 64
1, 94599, Note_on_c, 0, 49, 52
1, 94604, Control_c, 0, 64, 0
1, 94636, Note_on_c, 0, 68, 62
1, 94662, Note_off_c, 0, 68, 64
1, 94666, Note_on_c, 0, 56, 48
1, 94675, Note_on_c, 0, 70, 53
1, 94710, Note_off_c, 0, 49, 64
1, 94712, Control_c, 0, 64, 127
1, 94716, Note_on_c, 0, 58, 36
1, 94716, Note_on_c, 0, 68, 36
1, 94717, Note_off_c, 0, 70, 64
1, 94740, Note_off_c, 0, 56, 64
1, 94746, Note_off_c, 0, 68, 64
1, 94754, Note_off_c, 0, 58, 64
1, 94754, Note_on_c, 0, 67, 64
1, 94772, Note_on_c, 0, 64, 43
1, 94787, Note_off_c, 0, 67, 64
1, 94798, Note_on_c, 0, 68, 46
1, 94836, Note_on_c, 0, 58, 33
1, 94841, Note_on_c, 0, 73, 50
1, 94857, Note_off_c, 0, 68, 64
1, 94860, Note_on_c, 0, 56, 48
1, 94867, Note_off_c, 0, 64, 64
1, 94868, Note_off_c, 0, 73, 64
1, 94872, Note_off_c, 0, 58, 64
1, 94872, Note_on_c, 0, 76, 58
1, 94900, Note_off_c, 0, 56, 64
1, 94903, Note_off_c, 0, 76, 64
1, 94927, Note_on_c, 0, 52, 61
1, 94932, Note_on_c, 0, 75, 55
1, 94933, Control_c, 0, 64, 0
1, 94955, Note_off_c, 0, 75, 64
1, 94955, Note_on_c, 0, 73, 57
1, 94980, Note_on_c, 0, 56, 46
1, 94990, Note_off_c, 0, 73, 64
1, 94996, Note_on_c, 0, 75, 50
1, 95034, Note_on_c, 0, 58, 42
1, 95041, Note_on_c, 0, 73, 52
1, 95042, Control_c, 0, 64, 127
1, 95044, Note_off_c, 0, 56, 64
1, 95062, Note_off_c, 0, 75, 64
1, 95065, Note_off_c, 0, 58, 64
1, 95067, Note_off_c, 0, 73, 64
1, 95076, Note_on_c, 0, 72, 64
1, 95090, Note_on_c, 0, 61, 45
1, 95115, Note_on_c, 0, 73, 60
1, 95130, Note_off_c, 0, 72, 64
1, 95142, Note_on_c, 0, 58, 51
1, 95151, Note_off_c, 0, 52, 64
1, 95153, Note_on_c, 0, 76, 56
1, 95155, Note_off_c, 0, 61, 64
1, 95166, Note_off_c, 0, 73, 64
1, 95184, Note_off_c, 0, 76, 64
1, 95189, Note_on_c, 0, 56, 41
1, 95189, Note_on_c, 0, 80, 69
1, 95196, Note_off_c, 0, 58, 64
1, 95224, Note_off_c, 0, 56, 64
1, 95226, Note_off_c, 0, 80, 64
1, 95234, Note_on_c, 0, 75, 77
1, 95240, Note_on_c, 0, 51, 56
1, 95242, Control_c, 0, 64, 0
1, 95262, Note_off_c, 0, 75, 64
1, 95273, Note_on_c, 0, 76, 71
1, 95303, Note_on_c, 0, 56, 50
1, 95309, Note_on_c, 0, 75, 69
1, 95315, Note_off_c, 0, 76, 64
1, 95340, Note_off_c, 0, 56, 64
1, 95350, Note_off_c, 0, 75, 64
1, 95350, Note_on_c, 0, 59, 44
1, 95351, Note_on_c, 0, 74, 81
1, 95357, Control_c, 0, 64, 127
1, 95377, Note_off_c, 0, 59, 64
1, 95392, Note_off_c, 0, 74, 64
1, 95392, Note_on_c, 0, 75, 73
1, 95406, Note_on_c, 0, 63, 55
1, 95427, Note_off_c, 0, 75, 64
1, 95439, Note_on_c, 0, 83, 89
1, 95451, Note_off_c, 0, 63, 64
1, 95455, Note_on_c, 0, 59, 55
1, 95461, Note_off_c, 0, 51, 64
1, 95472, Note_on_c, 0, 82, 78
1, 95478, Note_off_c, 0, 83, 64
1, 95499, Note_off_c, 0, 59, 64
1, 95508, Note_on_c, 0, 56, 40
1, 95513, Note_on_c, 0, 80, 84
1, 95526, Control_c, 0, 64, 0
1, 95535, Note_off_c, 0, 82, 64
1, 95539, Note_off_c, 0, 56, 64
1, 95553, Note_on_c, 0, 51, 57
1, 95556, Note_off_c, 0, 80, 64
1, 95560, Note_on_c, 0, 79, 88
1, 95582, Note_off_c, 0, 79, 64
1, 95597, Note_on_c, 0, 88, 87
1, 95618, Note_on_c, 0, 58, 44
1, 95626, Control_c, 0, 64, 127
1, 95637, Note_off_c, 0, 51, 64
1, 95637, Note_on_c, 0, 87, 73
1, 95652, Note_off_c, 0, 88, 64
1, 95670, Note_on_c, 0, 61, 43
1, 95677, Note_off_c, 0, 58, 64
1, 95678, Note_on_c, 0, 85, 78
1, 95706, Note_off_c, 0, 87, 64
1, 95707, Note_off_c, 0, 61, 64
1, 95708, Note_off_c, 0, 85, 64
1, 95716, Note_on_c, 0, 83, 103
1, 95724, Note_on_c, 0, 67, 56
1, 95760, Note_on_c, 0, 82, 81
1, 95762, Note_off_c, 0, 67, 64
1, 95780, Note_off_c, 0, 83, 64
1, 95782, Note_on_c, 0, 61, 54
1, 95804, Note_on_c, 0, 80, 70
1, 95809, Note_off_c, 0, 61, 64
1, 95829, Note_off_c, 0, 82, 64
1, 95840, Note_on_c, 0, 79, 85
1, 95858, Note_off_c, 0, 80, 64
1, 95863, Note_off_c, 0, 79, 64
1, 95875, Note_on_c, 0, 82, 65
1, 95876, Control_c, 0, 64, 0
1, 95890, Note_on_c, 0, 44, 72
1, 95920, Note_on_c, 0, 80, 81
1, 95938, Note_off_c, 0, 82, 64
1, 95959, Note_off_c, 0, 44, 64
1, 95960, Note_on_c, 0, 51, 52
1, 95970, Note_on_c, 0, 83, 100
1, 95971, Control_c, 0, 64, 127
1, 95981, Note_off_c, 0, 80, 64
1, 95989, Note_off_c, 0, 83, 64
1, 96002, Note_on_c, 0, 74, 73
1, 96008, Note_off_c, 0, 51, 64
1, 96019, Note_on_c, 0, 56, 48
1, 96026, Note_off_c, 0, 74, 64
1, 96043, Note_on_c, 0, 76, 78
1, 96049, Note_off_c, 0, 56, 64
1, 96076, Note_on_c, 0, 59, 46
1, 96077, Note_off_c, 0, 76, 64
1, 96092, Note_on_c, 0, 75, 75
1, 96115, Note_off_c, 0, 75, 64
1, 96122, Note_on_c, 0, 56, 59
1, 96125, Note_off_c, 0, 59, 64
1, 96130, Note_on_c, 0, 80, 78
1, 96152, Note_off_c, 0, 80, 64
1, 96157, Note_off_c, 0, 56, 64
1, 96158, Note_on_c, 0, 70, 69
1, 96174, Note_on_c, 0, 51, 48
1, 96193, Note_off_c, 0, 70, 64
1, 96209, Note_off_c, 0, 51, 64
1, 96210, Control_c, 0, 64, 0
1, 96212, Note_on_c, 0, 73, 68
1, 96230, Note_on_c, 0, 44, 63
1, 96248, Note_on_c, 0, 71, 60
1, 96276, Note_off_c, 0, 73, 64
1, 96283, Note_on_c, 0, 75, 66
1, 96288, Note_on_c, 0, 51, 55
1, 96295, Note_off_c, 0, 44, 64
1, 96299, Note_off_c, 0, 71, 64
1, 96302, Control_c, 0, 64, 127
1, 96311, Note_off_c, 0, 75, 64
1, 96329, Note_on_c, 0, 67, 72
1, 96345, Note_on_c, 0, 56, 47
1, 96355, Note_off_c, 0, 67, 64
1, 96355, Note_off_c, 0, 51, 64
1, 96373, Note_on_c, 0, 70, 76
1, 96386, Note_off_c, 0, 56, 64
1, 96407, Note_on_c, 0, 59, 42
1, 96420, Note_on_c, 0, 68, 73
1, 96447, Note_off_c, 0, 70, 64
1, 96454, Note_on_c, 0, 67, 79
1, 96458, Note_on_c, 0, 56, 59
1, 96477, Note_off_c, 0, 68, 64
1, 96485, Note_off_c, 0, 59, 64
1, 96491, Note_off_c, 0, 56, 64
1, 96503, Note_on_c, 0, 68, 86
1, 96505, Note_on_c, 0, 51, 55
1, 96517, Note_off_c, 0, 67, 64
1, 96531, Note_off_c, 0, 51, 64
1, 96531, Note_off_c, 0, 68, 64
1, 96561, Note_on_c, 0, 68, 91
1, 96579, Note_on_c, 0, 45, 38
1, 96586, Control_c, 0, 64, 0
1, 96645, Note_on_c, 0, 80, 68
1, 96668, Note_on_c, 0, 49, 40
1, 96700, Note_on_c, 0, 72, 59
1, 96717, Note_off_c, 0, 80, 64
1, 96723, Note_on_c, 0, 54, 55
1, 96725, Control_c, 0, 64, 127
1, 96736, Note_off_c, 0, 49, 64
1, 96744, Note_on_c, 0, 73, 65
1, 96750, Note_off_c, 0, 45, 64
1, 96750, Note_off_c, 0, 68, 64
1, 96759, Note_off_c, 0, 72, 64
1, 96777, Note_off_c, 0, 54, 64
1, 96787, Note_on_c, 0, 66, 91
1, 96809, Note_on_c, 0, 57, 41
1, 96813, Note_off_c, 0, 73, 64
1, 96836, Note_on_c, 0, 78, 75
1, 96869, Note_on_c, 0, 54, 62
1, 96873, Note_on_c, 0, 72, 60
1, 96914, Note_on_c, 0, 73, 62
1, 96917, Note_off_c, 0, 78, 64
1, 96922, Note_on_c, 0, 49, 43
1, 96933, Note_off_c, 0, 66, 64
1, 96934, Note_off_c, 0, 54, 64
1, 96946, Note_off_c, 0, 72, 64
1, 96960, Note_off_c, 0, 49, 64
1, 96960, Note_on_c, 0, 65, 93
1, 96972, Note_on_c, 0, 45, 49
1, 96980, Note_off_c, 0, 57, 64
1, 96986, Control_c, 0, 64, 0
1, 96994, Note_off_c, 0, 73, 64
1, 97001, Note_on_c, 0, 77, 74
1, 97040, Note_on_c, 0, 49, 55
1, 97061, Note_on_c, 0, 72, 56
1, 97070, Control_c, 0, 64, 127
1, 97082, Note_off_c, 0, 45, 64
1, 97088, Note_off_c, 0, 65, 64
1, 97089, Note_off_c, 0, 77, 64
1, 97089, Note_on_c, 0, 54, 59
1, 97095, Note_on_c, 0, 73, 37
1, 97101, Note_off_c, 0, 72, 64
1, 97106, Note_off_c, 0, 49, 64
1, 97126, Note_off_c, 0, 73, 64
1, 97127, Note_on_c, 0, 66, 94
1, 97129, Note_off_c, 0, 54, 64
1, 97155, Note_on_c, 0, 57, 41
1, 97167, Note_on_c, 0, 78, 74
1, 97201, Note_on_c, 0, 54, 53
1, 97204, Note_on_c, 0, 72, 56
1, 97235, Note_off_c, 0, 78, 64
1, 97241, Note_off_c, 0, 72, 64
1, 97241, Note_on_c, 0, 49, 56
1, 97241, Note_on_c, 0, 73, 49
1, 97253, Note_off_c, 0, 66, 64
1, 97256, Note_off_c, 0, 54, 64
1, 97265, Note_off_c, 0, 73, 64
1, 97270, Note_off_c, 0, 49, 64
1, 97301, Note_on_c, 0, 61, 97
1, 97302, Note_on_c, 0, 47, 49
1, 97308, Control_c, 0, 64, 0
1, 97360, Note_on_c, 0, 73, 55
1, 97372, Note_off_c, 0, 57, 64
1, 97377, Note_on_c, 0, 54, 72
1, 97386, Note_on_c, 0, 66, 45
1, 97398, Note_off_c, 0, 47, 64
1, 97416, Control_c, 0, 64, 127
1, 97423, Note_off_c, 0, 61, 64
1, 97425, Note_on_c, 0, 57, 36
1, 97434, Note_on_c, 0, 69, 54
1, 97435, Note_off_c, 0, 54, 64
1, 97441, Note_off_c, 0, 73, 64
1, 97447, Note_off_c, 0, 66, 64
1, 97466, Note_on_c, 0, 63, 87
1, 97480, Note_on_c, 0, 59, 59
1, 97483, Note_off_c, 0, 57, 64
1, 97509, Note_on_c, 0, 75, 73
1, 97510, Note_off_c, 0, 69, 64
1, 97533, Note_on_c, 0, 57, 36
1, 97541, Note_on_c, 0, 66, 55
1, 97555, Note_off_c, 0, 59, 64
1, 97579, Note_on_c, 0, 54, 62
1, 97581, Note_off_c, 0, 57, 64
1, 97587, Note_off_c, 0, 75, 64
1, 97591, Note_on_c, 0, 69, 56
1, 97603, Note_off_c, 0, 54, 64
1, 97611, Note_off_c, 0, 63, 64
1, 97617, Note_off_c, 0, 69, 64
1, 97628, Note_off_c, 0, 66, 64
1, 97657, Note_on_c, 0, 64, 97
1, 97662, Control_c, 0, 64, 0
1, 97662, Note_on_c, 0, 40, 93
1, 97731, Note_on_c, 0, 76, 53
1, 97738, Note_off_c, 0, 40, 64
1, 97742, Note_on_c, 0, 47, 68
1, 97746, Control_c, 0, 64, 127
1, 97765, Note_on_c, 0, 68, 65
1, 97774, Note_off_c, 0, 47, 64
1, 97777, Note_off_c, 0, 64, 64
1, 97793, Note_off_c, 0, 76, 64
1, 97811, Note_on_c, 0, 52, 64
1, 97820, Note_on_c, 0, 71, 39
1, 97821, Note_off_c, 0, 68, 64
1, 97838, Note_off_c, 0, 52, 64
1, 97849, Note_on_c, 0, 68, 90
1, 97856, Note_off_c, 0, 71, 64
1, 97869, Note_on_c, 0, 56, 59
1, 97896, Note_on_c, 0, 80, 81
1, 97926, Note_off_c, 0, 68, 64
1, 97927, Note_on_c, 0, 52, 56
1, 97932, Note_off_c, 0, 56, 64
1, 97937, Note_on_c, 0, 71, 77
1, 97957, Note_off_c, 0, 80, 64
1, 97964, Note_off_c, 0, 52, 64
1, 97975, Note_on_c, 0, 47, 43
1, 97983, Note_on_c, 0, 76, 64
1, 98001, Note_off_c, 0, 71, 64
1, 98010, Note_off_c, 0, 76, 64
1, 98011, Note_on_c, 0, 68, 84
1, 98012, Note_off_c, 0, 47, 64
1, 98015, Control_c, 0, 64, 0
1, 98029, Note_on_c, 0, 45, 53
1, 98064, Note_on_c, 0, 80, 70
1, 98093, Note_on_c, 0, 49, 59
1, 98107, Note_on_c, 0, 72, 43
1, 98114, Note_off_c, 0, 80, 64
1, 98123, Control_c, 0, 64, 127
1, 98135, Note_off_c, 0, 45, 64
1, 98141, Note_on_c, 0, 54, 61
1, 98147, Note_on_c, 0, 73, 57
1, 98152, Note_off_c, 0, 49, 64
1, 98156, Note_off_c, 0, 68, 64
1, 98160, Note_off_c, 0, 72, 64
1, 98178, Note_off_c, 0, 54, 64
1, 98187, Note_on_c, 0, 66, 88
1, 98200, Note_on_c, 0, 57, 39
1, 98221, Note_on_c, 0, 78, 75
1, 98222, Note_off_c, 0, 73, 64
1, 98256, Note_on_c, 0, 54, 67
1, 98257, Note_on_c, 0, 72, 68
1, 98279, Note_off_c, 0, 78, 64
1, 98294, Note_off_c, 0, 57, 64
1, 98298, Note_on_c, 0, 73, 62
1, 98304, Note_off_c, 0, 66, 64
1, 98309, Note_on_c, 0, 49, 56
1, 98319, Note_off_c, 0, 54, 64
1, 98324, Note_off_c, 0, 72, 64
1, 98346, Note_on_c, 0, 65, 92
1, 98352, Note_off_c, 0, 49, 64
1, 98360, Note_on_c, 0, 45, 63
1, 98361, Control_c, 0, 64, 0
1, 98378, Note_on_c, 0, 77, 83
1, 98383, Note_off_c, 0, 73, 64
1, 98426, Note_on_c, 0, 49, 60
1, 98427, Note_on_c, 0, 72, 56
1, 98430, Control_c, 0, 64, 127
1, 98451, Note_off_c, 0, 45, 64
1, 98459, Note_on_c, 0, 73, 61
1, 98464, Note_off_c, 0, 77, 64
1, 98464, Note_off_c, 0, 65, 64
1, 98465, Note_on_c, 0, 54, 66
1, 98472, Note_off_c, 0, 49, 64
1, 98489, Note_off_c, 0, 72, 64
1, 98498, Note_on_c, 0, 66, 89
1, 98504, Note_off_c, 0, 54, 64
1, 98521, Note_on_c, 0, 57, 48
1, 98538, Note_on_c, 0, 78, 83
1, 98546, Note_off_c, 0, 73, 64
1, 98573, Note_on_c, 0, 72, 54
1, 98575, Note_on_c, 0, 54, 78
1, 98617, Note_on_c, 0, 49, 62
1, 98617, Note_on_c, 0, 73, 70
1, 98622, Note_off_c, 0, 78, 64
1, 98623, Note_off_c, 0, 66, 64
1, 98636, Note_off_c, 0, 54, 64
1, 98640, Note_off_c, 0, 72, 64
1, 98647, Note_off_c, 0, 49, 64
1, 98657, Note_off_c, 0, 57, 64
1, 98668, Control_c, 0, 64, 0
1, 98669, Note_on_c, 0, 65, 87
1, 98670, Note_on_c, 0, 47, 77
1, 98689, Note_off_c, 0, 73, 64
1, 98709, Note_on_c, 0, 77, 80
1, 98745, Note_on_c, 0, 54, 81
1, 98756, Note_off_c, 0, 47, 64
1, 98757, Note_on_c, 0, 71, 66
1, 98768, Control_c, 0, 64, 127
1, 98782, Note_off_c, 0, 65, 64
1, 98783, Note_on_c, 0, 57, 52
1, 98787, Note_off_c, 0, 77, 64
1, 98788, Note_off_c, 0, 54, 64
1, 98798, Note_on_c, 0, 75, 57
1, 98811, Note_off_c, 0, 71, 64
1, 98822, Note_off_c, 0, 57, 64
1, 98826, Note_off_c, 0, 75, 64
1, 98832, Note_on_c, 0, 66, 88
1, 98833, Note_on_c, 0, 59, 70
1, 98878, Note_on_c, 0, 78, 76
1, 98897, Note_on_c, 0, 57, 57
1, 98916, Note_off_c, 0, 59, 64
1, 98919, Note_on_c, 0, 71, 73
1, 98939, Note_on_c, 0, 54, 66
1, 98940, Note_off_c, 0, 57, 64
1, 98940, Note_off_c, 0, 66, 64
1, 98961, Note_off_c, 0, 54, 64
1, 98964, Note_on_c, 0, 75, 69
1, 98976, Note_off_c, 0, 71, 64
1, 98976, Note_off_c, 0, 78, 64
1, 99024, Note_on_c, 0, 69, 84
1, 99029, Note_on_c, 0, 40, 86
1, 99029, Control_c, 0, 64, 0
1, 99036, Note_off_c, 0, 75, 64
1, 99088, Note_on_c, 0, 81, 83
1, 99093, Note_off_c, 0, 40, 64
1, 99108, Note_on_c, 0, 47, 53
1, 99111, Note_off_c, 0, 81, 64
1, 99114, Control_c, 0, 64, 127
1, 99141, Note_off_c, 0, 47, 64
1, 99161, Note_on_c, 0, 71, 63
1, 99171, Note_off_c, 0, 69, 64
1, 99181, Note_on_c, 0, 52, 59
1, 99209, Note_off_c, 0, 52, 64
1, 99219, Note_off_c, 0, 71, 64
1, 99219, Note_on_c, 0, 76, 49
1, 99248, Note_off_c, 0, 76, 64
1, 99250, Note_on_c, 0, 56, 60
1, 99257, Note_on_c, 0, 68, 77
1, 99301, Note_on_c, 0, 80, 76
1, 99304, Note_off_c, 0, 56, 64
1, 99313, Note_off_c, 0, 68, 64
1, 99325, Note_on_c, 0, 52, 61
1, 99343, Note_on_c, 0, 71, 68
1, 99357, Note_off_c, 0, 80, 64
1, 99363, Note_off_c, 0, 52, 64
1, 99385, Note_on_c, 0, 47, 25
1, 99395, Note_on_c, 0, 76, 59
1, 99406, Note_off_c, 0, 71, 64
1, 99421, Note_off_c, 0, 76, 64
1, 99421, Note_off_c, 0, 47, 64
1, 99434, Note_on_c, 0, 45, 42
1, 99438, Note_on_c, 0, 68, 76
1, 99444, Control_c, 0, 64, 0
1, 99516, Note_on_c, 0, 80, 86
1, 99537, Note_on_c, 0, 49, 40
1, 99588, Note_on_c, 0, 72, 40
1, 99605, Control_c, 0, 64, 127
1, 99609, Note_on_c, 0, 54, 54
1, 99610, Note_off_c, 0, 80, 64
1, 99613, Note_off_c, 0, 49, 64
1, 99620, Note_off_c, 0, 68, 64
1, 99621, Note_off_c, 0, 45, 64
1, 99622, Note_off_c, 0, 72, 64
1, 99633, Note_on_c, 0, 73, 47
1, 99671, Note_off_c, 0, 73, 64
1, 99676, Note_off_c, 0, 54, 64
1, 99682, Note_on_c, 0, 66, 66
1, 99696, Note_on_c, 0, 57, 42
1, 99726, Note_on_c, 0, 78, 84
1, 99754, Note_on_c, 0, 54, 64
1, 99776, Note_off_c, 0, 66, 64
1, 99787, Note_on_c, 0, 72, 42
1, 99812, Note_on_c, 0, 73, 65
1, 99816, Note_off_c, 0, 72, 64
1, 99823, Note_on_c, 0, 49, 42
1, 99824, Note_off_c, 0, 54, 64
1, 99826, Note_off_c, 0, 78, 64
1, 99858, Note_off_c, 0, 49, 64
1, 99860, Note_off_c, 0, 57, 64
1, 99875, Note_on_c, 0, 45, 53
1, 99875, Note_on_c, 0, 65, 69
1, 99882, Control_c, 0, 64, 0
1, 99894, Note_off_c, 0, 73, 64
1, 99916, Note_on_c, 0, 77, 83
1, 99944, Note_on_c, 0, 49, 49
1, 99968, Note_off_c, 0, 45, 64
1, 99974, Control_c, 0, 64, 127
1, 99983, Note_off_c, 0, 65, 64
1, 99984, Note_on_c, 0, 72, 46
1, 100002, Note_on_c, 0, 54, 53
1, 100003, Note_off_c, 0, 49, 64
1, 100006, Note_off_c, 0, 77, 64
1, 100014, Note_on_c, 0, 73, 46
1, 100015, Note_off_c, 0, 72, 64
1, 100037, Note_off_c, 0, 54, 64
1, 100043, Note_off_c, 0, 73, 64
1, 100048, Note_on_c, 0, 66, 71
1, 100067, Note_on_c, 0, 57, 37
1, 100076, Note_on_c, 0, 78, 90
1, 100121, Note_on_c, 0, 54, 62
1, 100130, Note_on_c, 0, 72, 52
1, 100146, Note_off_c, 0, 66, 64
1, 100162, Note_off_c, 0, 54, 64
1, 100168, Note_on_c, 0, 73, 52
1, 100170, Note_off_c, 0, 72, 64
1, 100172, Note_on_c, 0, 49, 57
1, 100173, Note_off_c, 0, 78, 64
1, 100192, Note_off_c, 0, 73, 64
1, 100201, Note_off_c, 0, 49, 64
1, 100237, Note_on_c, 0, 61, 77
1, 100243, Note_on_c, 0, 47, 55
1, 100251, Control_c, 0, 64, 0
1, 100270, Note_off_c, 0, 57, 64
1, 100284, Note_on_c, 0, 73, 68
1, 100315, Note_on_c, 0, 54, 78
1, 100330, Note_off_c, 0, 47, 64
1, 100333, Note_on_c, 0, 66, 49
1, 100343, Control_c, 0, 64, 127
1, 100345, Note_off_c, 0, 61, 64
1, 100367, Note_on_c, 0, 57, 51
1, 100373, Note_off_c, 0, 54, 64
1, 100379, Note_off_c, 0, 66, 64
1, 100388, Note_off_c, 0, 73, 64
1, 100388, Note_on_c, 0, 69, 34
1, 100404, Note_off_c, 0, 57, 64
1, 100405, Note_on_c, 0, 63, 73
1, 100418, Note_on_c, 0, 59, 56
1, 100430, Note_off_c, 0, 69, 64
1, 100451, Note_on_c, 0, 75, 78
1, 100486, Note_on_c, 0, 57, 49
1, 100502, Note_on_c, 0, 66, 52
1, 100503, Note_off_c, 0, 59, 64
1, 100526, Note_off_c, 0, 57, 64
1, 100526, Note_off_c, 0, 63, 64
1, 100529, Note_on_c, 0, 54, 57
1, 100547, Note_off_c, 0, 75, 64
1, 100553, Note_on_c, 0, 69, 26
1, 100555, Note_off_c, 0, 54, 64
1, 100567, Note_off_c, 0, 66, 64
1, 100588, Note_off_c, 0, 69, 64
1, 100606, Note_on_c, 0, 40, 102
1, 100610, Note_on_c, 0, 64, 70
1, 100627, Control_c, 0, 64, 0
1, 100681, Note_on_c, 0, 76, 69
1, 100711, Note_off_c, 0, 64, 64
1, 100715, Note_off_c, 0, 40, 64
1, 100716, Note_on_c, 0, 47, 72
1, 100719, Note_on_c, 0, 68, 61
1, 100720, Control_c, 0, 64, 127
1, 100737, Note_off_c, 0, 47, 64
1, 100745, Note_off_c, 0, 76, 64
1, 100759, Note_off_c, 0, 68, 64
1, 100775, Note_on_c, 0, 52, 71
1, 100776, Note_on_c, 0, 71, 22
1, 100799, Note_off_c, 0, 52, 64
1, 100800, Note_on_c, 0, 68, 83
1, 100805, Note_off_c, 0, 71, 64
1, 100830, Note_on_c, 0, 56, 70
1, 100848, Note_on_c, 0, 80, 89
1, 100867, Note_off_c, 0, 56, 64
1, 100870, Note_off_c, 0, 68, 64
1, 100886, Note_on_c, 0, 52, 70
1, 100887, Note_on_c, 0, 71, 64
1, 100917, Note_off_c, 0, 80, 64
1, 100924, Note_off_c, 0, 52, 64
1, 100927, Note_on_c, 0, 47, 50
1, 100939, Note_on_c, 0, 76, 67
1, 100945, Note_off_c, 0, 71, 64
1, 100960, Note_off_c, 0, 47, 64
1, 100977, Note_on_c, 0, 45, 88
1, 100977, Note_on_c, 0, 68, 84
1, 100988, Control_c, 0, 64, 0
1, 101017, Note_on_c, 0, 80, 84
1, 101042, Note_off_c, 0, 76, 64
1, 101065, Note_on_c, 0, 72, 63
1, 101065, Note_on_c, 0, 49, 71
1, 101089, Control_c, 0, 64, 127
1, 101102, Note_off_c, 0, 80, 64
1, 101102, Note_off_c, 0, 45, 64
1, 101107, Note_off_c, 0, 68, 64
1, 101110, Note_on_c, 0, 73, 73
1, 101113, Note_on_c, 0, 54, 75
1, 101128, Note_off_c, 0, 72, 64
1, 101135, Note_off_c, 0, 49, 64
1, 101150, Note_on_c, 0, 66, 86
1, 101153, Note_off_c, 0, 54, 64
1, 101164, Note_on_c, 0, 57, 58
1, 101180, Note_off_c, 0, 73, 64
1, 101183, Note_on_c, 0, 78, 93
1, 101215, Note_on_c, 0, 72, 64
1, 101218, Note_on_c, 0, 54, 78
1, 101222, Note_off_c, 0, 66, 64
1, 101255, Note_on_c, 0, 73, 73
1, 101258, Note_on_c, 0, 49, 62
1, 101265, Note_off_c, 0, 72, 64
1, 101276, Note_off_c, 0, 73, 64
1, 101276, Note_off_c, 0, 54, 64
1, 101290, Note_off_c, 0, 57, 64
1, 101292, Note_off_c, 0, 78, 64
1, 101301, Note_on_c, 0, 45, 87
1, 101304, Note_off_c, 0, 49, 64
1, 101322, Note_on_c, 0, 75, 100
1, 101334, Control_c, 0, 64, 0
1, 101376, Note_on_c, 0, 87, 88
1, 101406, Note_on_c, 0, 51, 67
1, 101417, Note_on_c, 0, 85, 26
1, 101419, Control_c, 0, 64, 127
1, 101425, Note_on_c, 0, 78, 75
1, 101429, Note_off_c, 0, 75, 64
1, 101431, Note_off_c, 0, 45, 64
1, 101444, Note_off_c, 0, 87, 64
1, 101450, Note_on_c, 0, 54, 67
1, 101455, Note_off_c, 0, 85, 64
1, 101471, Note_off_c, 0, 51, 64
1, 101471, Note_on_c, 0, 81, 76
1, 101482, Note_off_c, 0, 78, 64
1, 101501, Note_on_c, 0, 73, 92
1, 101502, Note_on_c, 0, 57, 54
1, 101508, Note_off_c, 0, 54, 64
1, 101541, Note_off_c, 0, 81, 64
1, 101551, Note_on_c, 0, 85, 92
1, 101566, Note_on_c, 0, 54, 49
1, 101577, Note_off_c, 0, 73, 64
1, 101591, Note_on_c, 0, 78, 77
1, 101627, Note_on_c, 0, 51, 59
1, 101636, Note_on_c, 0, 81, 75
1, 101640, Note_off_c, 0, 57, 64
1, 101647, Note_off_c, 0, 54, 64
1, 101659, Note_off_c, 0, 78, 64
1, 101663, Note_off_c, 0, 51, 64
1, 101663, Note_off_c, 0, 85, 64
1, 101698, Note_off_c, 0, 81, 64
1, 101698, Note_on_c, 0, 73, 88
1, 101716, Note_on_c, 0, 44, 87
1, 101741, Control_c, 0, 64, 0
1, 101743, Note_on_c, 0, 85, 79
1, 101817, Note_on_c, 0, 75, 63
1, 101824, Note_on_c, 0, 51, 55
1, 101826, Control_c, 0, 64, 127
1, 101836, Note_off_c, 0, 44, 64
1, 101842, Note_off_c, 0, 73, 64
1, 101856, Note_on_c, 0, 78, 69
1, 101879, Note_off_c, 0, 75, 64
1, 101882, Note_off_c, 0, 51, 64
1, 101886, Note_off_c, 0, 85, 64
1, 101889, Note_on_c, 0, 54, 21
1, 101898, Note_on_c, 0, 72, 80
1, 101921, Note_off_c, 0, 54, 64
1, 101921, Note_on_c, 0, 60, 51
1, 101941, Note_on_c, 0, 84, 88
1, 101950, Note_off_c, 0, 78, 64
1, 101987, Note_on_c, 0, 75, 59
1, 101988, Note_on_c, 0, 54, 51
1, 101994, Note_off_c, 0, 60, 64
1, 102006, Note_off_c, 0, 72, 64
1, 102017, Note_off_c, 0, 84, 64
1, 102029, Note_on_c, 0, 78, 62
1, 102038, Note_on_c, 0, 51, 47
1, 102039, Note_off_c, 0, 54, 64
1, 102052, Note_off_c, 0, 75, 64
1, 102085, Note_on_c, 0, 72, 80
1, 102094, Note_on_c, 0, 44, 68
1, 102098, Note_off_c, 0, 51, 64
1, 102102, Control_c, 0, 64, 0
1, 102123, Note_off_c, 0, 78, 64
1, 102135, Note_on_c, 0, 84, 85
1, 102169, Note_on_c, 0, 51, 61
1, 102180, Note_on_c, 0, 75, 60
1, 102187, Control_c, 0, 64, 127
1, 102188, Note_off_c, 0, 44, 64
1, 102198, Note_off_c, 0, 72, 64
1, 102207, Note_on_c, 0, 54, 66
1, 102208, Note_off_c, 0, 84, 64
1, 102208, Note_on_c, 0, 78, 61
1, 102222, Note_off_c, 0, 75, 64
1, 102236, Note_off_c, 0, 51, 64
1, 102255, Note_on_c, 0, 72, 79
1, 102270, Note_on_c, 0, 60, 57
1, 102277, Note_off_c, 0, 54, 64
1, 102298, Note_on_c, 0, 84, 88
1, 102312, Note_off_c, 0, 78, 64
1, 102319, Note_on_c, 0, 54, 53
1, 102340, Note_on_c, 0, 75, 53
1, 102352, Note_off_c, 0, 60, 64
1, 102362, Note_on_c, 0, 51, 62
1, 102372, Note_on_c, 0, 78, 59
1, 102377, Note_off_c, 0, 84, 64
1, 102378, Note_off_c, 0, 72, 64
1, 102394, Note_off_c, 0, 54, 64
1, 102397, Note_off_c, 0, 75, 64
1, 102421, Note_off_c, 0, 51, 64
1, 102425, Note_on_c, 0, 72, 76
1, 102428, Note_on_c, 0, 45, 84
1, 102446, Note_off_c, 0, 78, 64
1, 102448, Control_c, 0, 64, 0
1, 102462, Note_on_c, 0, 84, 84
1, 102506, Note_on_c, 0, 51, 58
1, 102508, Note_on_c, 0, 75, 51
1, 102533, Control_c, 0, 64, 127
1, 102545, Note_on_c, 0, 54, 68
1, 102550, Note_off_c, 0, 45, 64
1, 102551, Note_off_c, 0, 84, 64
1, 102555, Note_on_c, 0, 78, 66
1, 102564, Note_off_c, 0, 72, 64
1, 102577, Note_off_c, 0, 75, 64
1, 102584, Note_off_c, 0, 51, 64
1, 102591, Note_on_c, 0, 71, 103
1, 102601, Note_on_c, 0, 59, 68
1, 102603, Note_off_c, 0, 54, 64
1, 102643, Note_on_c, 0, 83, 104
1, 102653, Note_off_c, 0, 78, 64
1, 102655, Note_on_c, 0, 54, 49
1, 102674, Note_on_c, 0, 75, 57
1, 102705, Note_on_c, 0, 51, 71
1, 102709, Note_on_c, 0, 78, 61
1, 102712, Note_off_c, 0, 71, 64
1, 102721, Note_off_c, 0, 59, 64
1, 102722, Note_off_c, 0, 83, 64
1, 102737, Note_off_c, 0, 54, 64
1, 102742, Note_off_c, 0, 75, 64
1, 102760, Note_on_c, 0, 71, 88
1, 102768, Note_off_c, 0, 51, 64
1, 102768, Note_on_c, 0, 46, 84
1, 102779, Control_c, 0, 64, 0
1, 102780, Note_off_c, 0, 78, 64
1, 102801, Note_on_c, 0, 83, 105
1, 102846, Note_on_c, 0, 75, 53
1, 102848, Note_on_c, 0, 51, 66
1, 102863, Control_c, 0, 64, 127
1, 102878, Note_on_c, 0, 78, 58
1, 102879, Note_on_c, 0, 54, 56
1, 102880, Note_off_c, 0, 83, 64
1, 102880, Note_off_c, 0, 71, 64
1, 102901, Note_off_c, 0, 46, 64
1, 102905, Note_off_c, 0, 75, 64
1, 102916, Note_off_c, 0, 51, 64
1, 102920, Note_on_c, 0, 70, 79
1, 102923, Note_off_c, 0, 54, 64
1, 102932, Note_on_c, 0, 58, 56
1, 102956, Note_on_c, 0, 82, 72
1, 102966, Note_off_c, 0, 78, 64
1, 102987, Note_on_c, 0, 75, 51
1, 103000, Note_on_c, 0, 54, 68
1, 103027, Note_off_c, 0, 58, 64
1, 103035, Note_on_c, 0, 78, 61
1, 103036, Note_off_c, 0, 70, 64
1, 103036, Note_on_c, 0, 51, 49
1, 103046, Note_off_c, 0, 82, 64
1, 103051, Note_off_c, 0, 75, 64
1, 103068, Note_off_c, 0, 78, 64
1, 103078, Note_off_c, 0, 54, 64
1, 103084, Note_on_c, 0, 70, 70
1, 103090, Note_on_c, 0, 48, 72
1, 103105, Note_off_c, 0, 51, 64
1, 103124, Control_c, 0, 64, 0
1, 103135, Note_on_c, 0, 82, 76
1, 103165, Note_on_c, 0, 51, 55
1, 103171, Note_on_c, 0, 75, 49
1, 103202, Note_on_c, 0, 54, 65
1, 103213, Note_on_c, 0, 78, 64
1, 103216, Control_c, 0, 64, 127
1, 103233, Note_off_c, 0, 82, 64
1, 103248, Note_off_c, 0, 75, 64
1, 103248, Note_off_c, 0, 51, 64
1, 103255, Note_off_c, 0, 70, 64
1, 103259, Note_on_c, 0, 69, 64
1, 103267, Note_off_c, 0, 54, 64
1, 103269, Note_on_c, 0, 57, 51
1, 103299, Note_off_c, 0, 78, 64
1, 103309, Note_on_c, 0, 81, 75
1, 103337, Note_on_c, 0, 54, 52
1, 103348, Note_on_c, 0, 75, 41
1, 103364, Note_off_c, 0, 48, 64
1, 103368, Note_on_c, 0, 51, 62
1, 103370, Note_off_c, 0, 69, 64
1, 103380, Note_on_c, 0, 78, 68
1, 103395, Note_off_c, 0, 54, 64
1, 103397, Note_off_c, 0, 81, 64
1, 103401, Note_off_c, 0, 75, 64
1, 103420, Note_on_c, 0, 69, 67
1, 103429, Note_off_c, 0, 51, 64
1, 103432, Note_on_c, 0, 48, 58
1, 103447, Note_off_c, 0, 78, 64
1, 103447, Control_c, 0, 64, 0
1, 103469, Note_on_c, 0, 81, 81
1, 103473, Note_off_c, 0, 57, 64
1, 103500, Note_on_c, 0, 51, 68
1, 103505, Note_on_c, 0, 75, 60
1, 103537, Note_on_c, 0, 54, 68
1, 103541, Note_on_c, 0, 78, 67
1, 103545, Note_off_c, 0, 69, 64
1, 103555, Control_c, 0, 64, 127
1, 103562, Note_off_c, 0, 51, 64
1, 103573, Note_off_c, 0, 81, 64
1, 103579, Note_off_c, 0, 75, 64
1, 103583, Note_off_c, 0, 54, 64
1, 103590, Note_on_c, 0, 69, 60
1, 103596, Note_off_c, 0, 78, 64
1, 103605, Note_on_c, 0, 57, 61
1, 103638, Note_on_c, 0, 81, 77
1, 103663, Note_on_c, 0, 54, 60
1, 103664, Note_on_c, 0, 75, 46
1, 103669, Note_off_c, 0, 69, 64
1, 103682, Note_off_c, 0, 48, 64
1, 103698, Note_on_c, 0, 51, 52
1, 103708, Note_on_c, 0, 78, 61
1, 103714, Note_off_c, 0, 54, 64
1, 103716, Note_off_c, 0, 81, 64
1, 103723, Note_off_c, 0, 75, 64
1, 103733, Note_off_c, 0, 51, 64
1, 103746, Note_off_c, 0, 78, 64
1, 103752, Note_on_c, 0, 72, 74
1, 103752, Note_on_c, 0, 45, 83
1, 103762, Control_c, 0, 64, 0
1, 103779, Note_off_c, 0, 57, 64
1, 103812, Note_on_c, 0, 84, 85
1, 103848, Note_on_c, 0, 51, 52
1, 103875, Note_on_c, 0, 75, 51
1, 103876, Control_c, 0, 64, 127
1, 103878, Note_on_c, 0, 54, 64
1, 103884, Note_off_c, 0, 84, 64
1, 103890, Note_off_c, 0, 45, 64
1, 103898, Note_on_c, 0, 78, 61
1, 103902, Note_off_c, 0, 72, 64
1, 103910, Note_off_c, 0, 75, 64
1, 103924, Note_off_c, 0, 51, 64
1, 103939, Note_off_c, 0, 54, 64
1, 103941, Note_on_c, 0, 59, 51
1, 103945, Note_on_c, 0, 71, 81
1, 103982, Note_off_c, 0, 78, 64
1, 103989, Note_on_c, 0, 83, 91
1, 103999, Note_on_c, 0, 54, 47
1, 104024, Note_off_c, 0, 71, 64
1, 104031, Note_on_c, 0, 75, 49
1, 104032, Note_off_c, 0, 59, 64
1, 104043, Note_on_c, 0, 51, 46
1, 104056, Note_off_c, 0, 83, 64
1, 104057, Note_off_c, 0, 54, 64
1, 104059, Note_on_c, 0, 78, 53
1, 104074, Note_off_c, 0, 75, 64
1, 104075, Note_off_c, 0, 51, 64
1, 104084, Control_c, 0, 64, 0
1, 104088, Note_on_c, 0, 46, 79
1, 104099, Note_on_c, 0, 71, 74
1, 104102, Note_off_c, 0, 78, 64
1, 104141, Note_on_c, 0, 83, 84
1, 104179, Note_on_c, 0, 51, 59
1, 104190, Note_on_c, 0, 75, 44
1, 104199, Note_off_c, 0, 71, 64
1, 104200, Control_c, 0, 64, 127
1, 104213, Note_off_c, 0, 51, 64
1, 104215, Note_off_c, 0, 83, 64
1, 104215, Note_on_c, 0, 54, 51
1, 104226, Note_off_c, 0, 75, 64
1, 104237, Note_on_c, 0, 78, 28
1, 104247, Note_off_c, 0, 54, 64
1, 104260, Note_on_c, 0, 70, 62
1, 104264, Note_on_c, 0, 58, 36
1, 104274, Note_off_c, 0, 78, 64
1, 104302, Note_on_c, 0, 82, 56
1, 104335, Note_off_c, 0, 58, 64
1, 104340, Note_on_c, 0, 54, 49
1, 104361, Note_on_c, 0, 75, 43
1, 104379, Note_off_c, 0, 70, 64
1, 104383, Note_on_c, 0, 51, 42
1, 104388, Note_off_c, 0, 82, 64
1, 104392, Note_off_c, 0, 46, 64
1, 104402, Note_off_c, 0, 75, 64
1, 104406, Note_on_c, 0, 78, 33
1, 104417, Note_off_c, 0, 51, 64
1, 104424, Note_off_c, 0, 54, 64
1, 104441, Note_off_c, 0, 78, 64
1, 104451, Note_on_c, 0, 70, 48
1, 104454, Note_on_c, 0, 47, 59
1, 104461, Control_c, 0, 64, 0
1, 104507, Note_on_c, 0, 82, 50
1, 104565, Note_on_c, 0, 51, 45
1, 104581, Note_on_c, 0, 75, 29
1, 104607, Note_on_c, 0, 54, 41
1, 104619, Note_off_c, 0, 75, 64
1, 104622, Control_c, 0, 64, 127
1, 104624, Note_on_c, 0, 78, 49
1, 104629, Note_off_c, 0, 82, 64
1, 104637, Note_off_c, 0, 51, 64
1, 104652, Note_off_c, 0, 54, 64
1, 104661, Note_off_c, 0, 70, 64
1, 104679, Note_on_c, 0, 57, 30
1, 104688, Note_on_c, 0, 69, 36
1, 104712, Note_off_c, 0, 47, 64
1, 104721, Note_off_c, 0, 78, 64
1, 104733, Note_on_c, 0, 81, 61
1, 104758, Note_on_c, 0, 54, 39
1, 104773, Note_on_c, 0, 51, 44
1, 104782, Note_off_c, 0, 69, 64
1, 104794, Note_on_c, 0, 75, 37
1, 104797, Note_off_c, 0, 81, 64
1, 104830, Note_off_c, 0, 75, 64
1, 104835, Note_off_c, 0, 54, 64
1, 104839, Note_on_c, 0, 78, 35
1, 104861, Note_off_c, 0, 51, 64
1, 104864, Note_on_c, 0, 48, 41
1, 104868, Control_c, 0, 64, 0
1, 104889, Note_on_c, 0, 69, 44
1, 104910, Note_off_c, 0, 78, 64
1, 104947, Note_on_c, 0, 81, 52
1, 104957, Note_off_c, 0, 57, 64
1, 104967, Note_on_c, 0, 51, 32
1, 105003, Note_on_c, 0, 75, 35
1, 105014, Note_off_c, 0, 51, 64
1, 105014, Note_on_c, 0, 54, 35
1, 105028, Note_off_c, 0, 81, 64
1, 105029, Control_c, 0, 64, 127
1, 105037, Note_off_c, 0, 69, 64
1, 105041, Note_off_c, 0, 75, 64
1, 105047, Note_on_c, 0, 78, 31
1, 105088, Note_off_c, 0, 78, 64
1, 105096, Note_off_c, 0, 54, 64
1, 105106, Note_on_c, 0, 68, 43
1, 105110, Note_on_c, 0, 56, 33
1, 105129, Control_c, 0, 64, 0
1, 105157, Note_on_c, 0, 80, 41
1, 105193, Note_on_c, 0, 54, 43
1, 105214, Note_on_c, 0, 75, 33
1, 105223, Note_off_c, 0, 68, 64
1, 105237, Control_c, 0, 64, 127
1, 105243, Note_off_c, 0, 48, 64
1, 105250, Note_off_c, 0, 80, 64
1, 105251, Note_off_c, 0, 75, 64
1, 105275, Note_on_c, 0, 78, 32
1, 105280, Note_on_c, 0, 51, 20
1, 105308, Note_off_c, 0, 78, 64
1, 105312, Note_off_c, 0, 54, 64
1, 105333, Note_off_c, 0, 51, 64
1, 105381, Note_on_c, 0, 49, 42
1, 105386, Note_off_c, 0, 56, 64
1, 105391, Control_c, 0, 64, 0
1, 105413, Note_on_c, 0, 68, 35
1, 105446, Note_off_c, 0, 68, 64
1, 105459, Note_on_c, 0, 69, 38
1, 105490, Note_on_c, 0, 56, 38
1, 105491, Note_off_c, 0, 49, 64
1, 105498, Control_c, 0, 64, 127
1, 105502, Note_on_c, 0, 68, 36
1, 105512, Note_off_c, 0, 69, 64
1, 105536, Note_off_c, 0, 56, 64
1, 105537, Note_off_c, 0, 68, 64
1, 105551, Note_on_c, 0, 61, 32
1, 105557, Note_on_c, 0, 67, 52
1, 105585, Note_off_c, 0, 61, 64
1, 105597, Note_on_c, 0, 68, 51
1, 105598, Note_off_c, 0, 67, 64
1, 105605, Note_on_c, 0, 64, 34
1, 105636, Note_off_c, 0, 68, 64
1, 105645, Note_on_c, 0, 61, 26
1, 105647, Note_on_c, 0, 73, 49
1, 105677, Note_off_c, 0, 73, 64
1, 105684, Note_on_c, 0, 76, 57
1, 105685, Note_off_c, 0, 61, 64
1, 105685, Note_on_c, 0, 56, 45
1, 105708, Note_off_c, 0, 64, 64
1, 105719, Note_off_c, 0, 56, 64
1, 105738, Note_on_c, 0, 75, 66
1, 105749, Note_on_c, 0, 52, 60
1, 105754, Note_off_c, 0, 76, 64
1, 105771, Note_off_c, 0, 75, 64
1, 105778, Note_on_c, 0, 73, 52
1, 105798, Control_c, 0, 64, 0
1, 105808, Note_off_c, 0, 73, 64
1, 105810, Note_on_c, 0, 56, 47
1, 105812, Note_on_c, 0, 75, 58
1, 105844, Control_c, 0, 64, 127
1, 105852, Note_on_c, 0, 61, 54
1, 105855, Note_on_c, 0, 73, 56
1, 105868, Note_off_c, 0, 56, 64
1, 105875, Note_off_c, 0, 75, 64
1, 105890, Control_c, 0, 64, 0
1, 105898, Note_off_c, 0, 73, 64
1, 105899, Note_on_c, 0, 72, 61
1, 105911, Note_off_c, 0, 61, 64
1, 105919, Note_on_c, 0, 64, 55
1, 105937, Note_on_c, 0, 73, 64
1, 105961, Note_off_c, 0, 72, 64
1, 105961, Note_on_c, 0, 61, 47
1, 105972, Note_off_c, 0, 64, 64
1, 105981, Control_c, 0, 64, 127
1, 105987, Note_off_c, 0, 52, 64
1, 105990, Note_on_c, 0, 76, 52
1, 105991, Note_off_c, 0, 73, 64
1, 106005, Note_on_c, 0, 56, 52
1, 106012, Note_off_c, 0, 61, 64
1, 106018, Note_off_c, 0, 76, 64
1, 106022, Note_on_c, 0, 80, 66
1, 106030, Note_off_c, 0, 56, 64
1, 106043, Note_off_c, 0, 80, 64
1, 106076, Note_on_c, 0, 49, 62
1, 106090, Control_c, 0, 64, 0
1, 106123, Note_on_c, 0, 68, 67
1, 106152, Note_on_c, 0, 56, 53
1, 106153, Note_off_c, 0, 68, 64
1, 106171, Note_off_c, 0, 49, 64
1, 106171, Note_on_c, 0, 69, 34
1, 106182, Control_c, 0, 64, 127
1, 106192, Note_on_c, 0, 68, 55
1, 106208, Note_off_c, 0, 69, 64
1, 106215, Note_on_c, 0, 61, 51
1, 106227, Note_off_c, 0, 56, 64
1, 106231, Note_off_c, 0, 68, 64
1, 106238, Note_on_c, 0, 67, 70
1, 106255, Note_off_c, 0, 61, 64
1, 106270, Note_on_c, 0, 64, 42
1, 106282, Note_on_c, 0, 68, 57
1, 106300, Note_off_c, 0, 67, 64
1, 106310, Note_on_c, 0, 61, 41
1, 106320, Note_on_c, 0, 73, 57
1, 106338, Note_off_c, 0, 68, 64
1, 106339, Note_off_c, 0, 64, 64
1, 106345, Note_on_c, 0, 56, 47
1, 106356, Note_off_c, 0, 61, 64
1, 106357, Note_off_c, 0, 73, 64
1, 106360, Note_on_c, 0, 76, 46
1, 106380, Note_off_c, 0, 56, 64
1, 106397, Note_on_c, 0, 75, 80
1, 106402, Note_off_c, 0, 76, 64
1, 106407, Note_on_c, 0, 52, 69
1, 106422, Note_on_c, 0, 73, 69
1, 106435, Control_c, 0, 64, 0
1, 106441, Note_off_c, 0, 75, 64
1, 106462, Note_on_c, 0, 75, 80
1, 106463, Note_on_c, 0, 56, 47
1, 106466, Note_off_c, 0, 73, 64
1, 106487, Note_on_c, 0, 73, 69
1, 106496, Note_on_c, 0, 61, 59
1, 106506, Note_off_c, 0, 75, 64
1, 106523, Note_on_c, 0, 72, 57
1, 106531, Note_off_c, 0, 73, 64
1, 106535, Control_c, 0, 64, 127
1, 106536, Note_off_c, 0, 56, 64
1, 106538, Note_off_c, 0, 52, 64
1, 106558, Note_off_c, 0, 61, 64
1, 106558, Note_on_c, 0, 64, 62
1, 106565, Note_on_c, 0, 73, 53
1, 106581, Note_off_c, 0, 72, 64
1, 106597, Note_on_c, 0, 61, 55
1, 106614, Note_on_c, 0, 76, 58
1, 106621, Note_off_c, 0, 64, 64
1, 106636, Note_on_c, 0, 56, 55
1, 106644, Note_off_c, 0, 73, 64
1, 106656, Note_on_c, 0, 80, 75
1, 106667, Note_off_c, 0, 61, 64
1, 106678, Note_off_c, 0, 76, 64
1, 106689, Note_off_c, 0, 56, 64
1, 106699, Note_off_c, 0, 80, 64
1, 106725, Note_on_c, 0, 51, 77
1, 106727, Control_c, 0, 64, 0
1, 106773, Note_on_c, 0, 69, 65
1, 106796, Note_on_c, 0, 57, 54
1, 106813, Note_on_c, 0, 73, 68
1, 106827, Control_c, 0, 64, 127
1, 106830, Note_off_c, 0, 69, 64
1, 106831, Note_off_c, 0, 51, 64
1, 106843, Note_on_c, 0, 61, 58
1, 106850, Note_off_c, 0, 57, 64
1, 106854, Note_on_c, 0, 75, 76
1, 106873, Note_off_c, 0, 73, 64
1, 106881, Note_off_c, 0, 61, 64
1, 106887, Note_on_c, 0, 78, 78
1, 106903, Note_on_c, 0, 66, 52
1, 106906, Note_off_c, 0, 78, 64
1, 106912, Note_off_c, 0, 75, 64
1, 106929, Note_on_c, 0, 81, 90
1, 106952, Note_on_c, 0, 61, 51
1, 106967, Note_on_c, 0, 85, 83
1, 106972, Note_off_c, 0, 81, 64
1, 106975, Note_off_c, 0, 66, 64
1, 106984, Note_on_c, 0, 57, 44
1, 106997, Note_off_c, 0, 61, 64
1, 107002, Note_on_c, 0, 87, 73
1, 107021, Note_off_c, 0, 87, 64
1, 107022, Note_off_c, 0, 85, 64
1, 107027, Note_off_c, 0, 57, 64
1, 107035, Control_c, 0, 64, 0
1, 107045, Note_on_c, 0, 95, 91
1, 107045, Note_on_c, 0, 54, 76
1, 107092, Note_on_c, 0, 93, 80
1, 107107, Note_on_c, 0, 61, 57
1, 107111, Control_c, 0, 64, 127
1, 107124, Note_on_c, 0, 92, 67
1, 107125, Note_off_c, 0, 54, 64
1, 107126, Note_off_c, 0, 95, 64
1, 107145, Note_off_c, 0, 93, 64
1, 107146, Note_off_c, 0, 61, 64
1, 107146, Note_on_c, 0, 63, 65
1, 107160, Note_on_c, 0, 90, 80
1, 107172, Note_off_c, 0, 63, 64
1, 107183, Note_off_c, 0, 92, 64
1, 107192, Note_off_c, 0, 90, 64
1, 107196, Note_on_c, 0, 88, 73
1, 107201, Note_on_c, 0, 69, 50
1, 107235, Note_on_c, 0, 87, 75
1, 107238, Note_off_c, 0, 69, 64
1, 107254, Note_off_c, 0, 88, 64
1, 107254, Note_on_c, 0, 61, 61
1, 107278, Note_off_c, 0, 61, 64
1, 107280, Note_on_c, 0, 90, 73
1, 107292, Note_off_c, 0, 87, 64
1, 107302, Note_on_c, 0, 85, 66
1, 107319, Control_c, 0, 64, 0
1, 107330, Note_off_c, 0, 85, 64
1, 107342, Note_off_c, 0, 90, 64
1, 107346, Note_on_c, 0, 44, 72
1, 107351, Note_on_c, 0, 84, 80
1, 107372, Note_off_c, 0, 84, 64
1, 107381, Note_on_c, 0, 87, 67
1, 107407, Note_off_c, 0, 87, 64
1, 107411, Control_c, 0, 64, 127
1, 107413, Note_off_c, 0, 44, 64
1, 107415, Note_on_c, 0, 51, 48
1, 107427, Note_on_c, 0, 81, 78
1, 107446, Note_off_c, 0, 51, 64
1, 107452, Note_off_c, 0, 81, 64
1, 107458, Note_on_c, 0, 54, 45
1, 107473, Note_on_c, 0, 80, 65
1, 107487, Note_off_c, 0, 54, 64
1, 107503, Note_on_c, 0, 60, 43
1, 107509, Note_on_c, 0, 78, 68
1, 107527, Note_off_c, 0, 80, 64
1, 107542, Note_on_c, 0, 81, 63
1, 107544, Note_off_c, 0, 60, 64
1, 107562, Note_off_c, 0, 78, 64
1, 107563, Note_on_c, 0, 54, 50
1, 107574, Note_off_c, 0, 81, 64
1, 107574, Note_on_c, 0, 76, 57
1, 107588, Note_off_c, 0, 54, 64
1, 107593, Note_on_c, 0, 51, 42
1, 107604, Note_off_c, 0, 76, 64
1, 107612, Note_on_c, 0, 75, 67
1, 107625, Note_off_c, 0, 51, 64
1, 107630, Control_c, 0, 64, 0
1, 107647, Note_on_c, 0, 44, 65
1, 107661, Note_on_c, 0, 78, 69
1, 107668, Note_off_c, 0, 75, 64
1, 107669, Note_on_c, 0, 73, 52
1, 107699, Note_off_c, 0, 73, 64
1, 107718, Note_on_c, 0, 51, 55
1, 107719, Note_off_c, 0, 44, 64
1, 107724, Note_off_c, 0, 78, 64
1, 107726, Note_on_c, 0, 72, 52
1, 107726, Control_c, 0, 64, 127
1, 107756, Note_off_c, 0, 72, 64
1, 107757, Note_off_c, 0, 51, 64
1, 107761, Note_on_c, 0, 75, 61
1, 107765, Note_on_c, 0, 54, 52
1, 107788, Note_off_c, 0, 75, 64
1, 107792, Note_off_c, 0, 54, 64
1, 107808, Note_on_c, 0, 69, 57
1, 107823, Note_on_c, 0, 60, 40
1, 107860, Note_on_c, 0, 68, 53
1, 107869, Note_off_c, 0, 69, 64
1, 107871, Note_off_c, 0, 60, 64
1, 107885, Note_on_c, 0, 54, 50
1, 107893, Note_on_c, 0, 71, 58
1, 107897, Note_off_c, 0, 68, 64
1, 107940, Note_on_c, 0, 51, 36
1, 107944, Note_on_c, 0, 69, 54
1, 107945, Note_off_c, 0, 54, 64
1, 107960, Note_off_c, 0, 71, 64
1, 107964, Control_c, 0, 64, 0
1, 107978, Note_off_c, 0, 51, 64
1, 108029, Note_on_c, 0, 49, 47
1, 108057, Note_off_c, 0, 69, 64
1, 108060, Note_on_c, 0, 68, 51
1, 108088, Note_off_c, 0, 68, 64
1, 108091, Note_on_c, 0, 69, 53
1, 108097, Note_on_c, 0, 56, 42
1, 108100, Note_off_c, 0, 49, 64
1, 108110, Control_c, 0, 64, 127
1, 108143, Note_on_c, 0, 68, 37
1, 108146, Note_off_c, 0, 56, 64
1, 108151, Note_off_c, 0, 69, 64
1, 108159, Note_on_c, 0, 61, 44
1, 108172, Note_off_c, 0, 68, 64
1, 108180, Note_on_c, 0, 67, 50
1, 108195, Note_off_c, 0, 61, 64
1, 108218, Note_on_c, 0, 68, 43
1, 108222, Note_on_c, 0, 64, 30
1, 108231, Note_off_c, 0, 67, 64
1, 108251, Note_on_c, 0, 61, 31
1, 108263, Note_on_c, 0, 73, 41
1, 108264, Note_off_c, 0, 64, 64
1, 108277, Note_off_c, 0, 68, 64
1, 108286, Note_off_c, 0, 61, 64
1, 108287, Note_on_c, 0, 56, 41
1, 108290, Note_off_c, 0, 73, 64
1, 108306, Note_on_c, 0, 76, 32
1, 108322, Note_off_c, 0, 56, 64
1, 108333, Control_c, 0, 64, 0
1, 108344, Note_on_c, 0, 75, 68
1, 108344, Note_on_c, 0, 52, 63
1, 108345, Note_off_c, 0, 76, 64
1, 108372, Note_on_c, 0, 73, 56
1, 108373, Note_off_c, 0, 75, 64
1, 108412, Note_on_c, 0, 56, 43
1, 108417, Note_on_c, 0, 75, 54
1, 108423, Note_off_c, 0, 73, 64
1, 108441, Control_c, 0, 64, 127
1, 108454, Note_on_c, 0, 61, 47
1, 108455, Note_off_c, 0, 56, 64
1, 108455, Note_off_c, 0, 52, 64
1, 108461, Note_on_c, 0, 73, 50
1, 108484, Note_off_c, 0, 75, 64
1, 108487, Note_off_c, 0, 61, 64
1, 108491, Note_off_c, 0, 73, 64
1, 108500, Note_on_c, 0, 72, 55
1, 108519, Note_on_c, 0, 64, 44
1, 108529, Note_on_c, 0, 73, 42
1, 108549, Note_off_c, 0, 72, 64
1, 108572, Note_on_c, 0, 61, 41
1, 108576, Note_on_c, 0, 76, 33
1, 108579, Note_off_c, 0, 64, 64
1, 108597, Note_off_c, 0, 73, 64
1, 108597, Note_on_c, 0, 56, 35
1, 108604, Note_off_c, 0, 61, 64
1, 108605, Note_on_c, 0, 80, 68
1, 108609, Note_off_c, 0, 76, 64
1, 108629, Note_off_c, 0, 56, 64
1, 108630, Note_off_c, 0, 80, 64
1, 108640, Control_c, 0, 64, 0
1, 108662, Note_on_c, 0, 76, 47
1, 108672, Note_on_c, 0, 54, 66
1, 108686, Note_on_c, 0, 75, 65
1, 108687, Note_off_c, 0, 76, 64
1, 108718, Note_off_c, 0, 75, 64
1, 108723, Note_on_c, 0, 76, 62
1, 108731, Note_on_c, 0, 61, 54
1, 108740, Control_c, 0, 64, 127
1, 108756, Note_off_c, 0, 54, 64
1, 108766, Note_on_c, 0, 75, 53
1, 108772, Note_on_c, 0, 63, 55
1, 108777, Note_off_c, 0, 76, 64
1, 108781, Note_off_c, 0, 61, 64
1, 108794, Note_off_c, 0, 75, 64
1, 108797, Note_off_c, 0, 63, 64
1, 108808, Note_on_c, 0, 74, 65
1, 108823, Note_on_c, 0, 69, 43
1, 108847, Note_on_c, 0, 75, 60
1, 108861, Note_off_c, 0, 74, 64
1, 108884, Note_on_c, 0, 63, 47
1, 108888, Note_off_c, 0, 69, 64
1, 108888, Note_on_c, 0, 78, 69
1, 108903, Note_on_c, 0, 61, 58
1, 108904, Note_off_c, 0, 75, 64
1, 108911, Note_off_c, 0, 63, 64
1, 108920, Note_off_c, 0, 78, 64
1, 108927, Note_on_c, 0, 81, 71
1, 108933, Note_off_c, 0, 61, 64
1, 108940, Control_c, 0, 64, 0
1, 108962, Note_on_c, 0, 56, 61
1, 108971, Note_on_c, 0, 78, 79
1, 108986, Note_off_c, 0, 81, 64
1, 109020, Note_off_c, 0, 78, 64
1, 109021, Note_on_c, 0, 77, 63
1, 109024, Note_on_c, 0, 61, 54
1, 109032, Control_c, 0, 64, 127
1, 109043, Note_off_c, 0, 77, 64
1, 109049, Note_off_c, 0, 56, 64
1, 109049, Note_on_c, 0, 78, 72
1, 109069, Note_off_c, 0, 61, 64
1, 109074, Note_on_c, 0, 65, 52
1, 109082, Note_on_c, 0, 77, 50
1, 109113, Note_off_c, 0, 78, 64
1, 109122, Note_off_c, 0, 65, 64
1, 109126, Note_on_c, 0, 76, 60
1, 109129, Note_off_c, 0, 77, 64
1, 109134, Note_on_c, 0, 71, 72
1, 109159, Note_on_c, 0, 77, 69
1, 109161, Note_off_c, 0, 76, 64
1, 109184, Note_on_c, 0, 65, 32
1, 109192, Note_on_c, 0, 80, 77
1, 109194, Note_off_c, 0, 71, 64
1, 109211, Note_off_c, 0, 77, 64
1, 109228, Note_on_c, 0, 61, 66
1, 109229, Note_on_c, 0, 85, 75
1, 109246, Note_off_c, 0, 65, 64
1, 109251, Note_off_c, 0, 85, 64
1, 109253, Note_off_c, 0, 80, 64
1, 109279, Note_off_c, 0, 61, 64
1, 109299, Note_on_c, 0, 57, 76
1, 109316, Control_c, 0, 64, 0
1, 109332, Note_on_c, 0, 73, 68
1, 109357, Note_off_c, 0, 73, 64
1, 109361, Note_on_c, 0, 74, 72
1, 109361, Note_on_c, 0, 61, 59
1, 109395, Note_off_c, 0, 74, 64
1, 109397, Note_on_c, 0, 73, 39
1, 109402, Note_on_c, 0, 66, 52
1, 109408, Control_c, 0, 64, 127
1, 109426, Note_off_c, 0, 57, 64
1, 109428, Note_off_c, 0, 73, 64
1, 109432, Note_on_c, 0, 72, 72
1, 109434, Note_off_c, 0, 61, 64
1, 109444, Note_off_c, 0, 66, 64
1, 109455, Note_on_c, 0, 69, 47
1, 109472, Note_on_c, 0, 73, 64
1, 109486, Note_off_c, 0, 72, 64
1, 109499, Note_on_c, 0, 66, 44
1, 109507, Note_on_c, 0, 78, 71
1, 109524, Note_off_c, 0, 73, 64
1, 109533, Note_on_c, 0, 61, 65
1, 109535, Note_off_c, 0, 69, 64
1, 109549, Note_on_c, 0, 81, 78
1, 109566, Note_off_c, 0, 66, 64
1, 109567, Note_off_c, 0, 78, 64
1, 109577, Note_off_c, 0, 61, 64
1, 109600, Control_c, 0, 64, 0
1, 109601, Note_on_c, 0, 78, 62
1, 109607, Note_on_c, 0, 56, 71
1, 109624, Note_off_c, 0, 81, 64
1, 109634, Note_off_c, 0, 78, 64
1, 109635, Note_on_c, 0, 77, 70
1, 109655, Note_on_c, 0, 61, 58
1, 109665, Note_off_c, 0, 77, 64
1, 109678, Note_on_c, 0, 78, 69
1, 109693, Control_c, 0, 64, 127
1, 109698, Note_on_c, 0, 65, 59
1, 109703, Note_off_c, 0, 56, 64
1, 109714, Note_on_c, 0, 77, 64
1, 109727, Note_off_c, 0, 61, 64
1, 109732, Note_off_c, 0, 78, 64
1, 109751, Note_on_c, 0, 71, 78
1, 109754, Note_off_c, 0, 65, 64
1, 109754, Note_on_c, 0, 76, 64
1, 109755, Note_off_c, 0, 77, 64
1, 109788, Note_on_c, 0, 77, 79
1, 109797, Note_on_c, 0, 65, 38
1, 109817, Note_off_c, 0, 71, 64
1, 109834, Note_off_c, 0, 76, 64
1, 109834, Note_on_c, 0, 80, 64
1, 109838, Note_on_c, 0, 61, 67
1, 109852, Note_off_c, 0, 77, 64
1, 109854, Note_off_c, 0, 65, 64
1, 109864, Note_off_c, 0, 80, 64
1, 109870, Note_on_c, 0, 85, 67
1, 109876, Note_off_c, 0, 61, 64
1, 109884, Control_c, 0, 64, 0
1, 109896, Note_off_c, 0, 85, 64
1, 109907, Note_on_c, 0, 57, 71
1, 109916, Note_on_c, 0, 80, 69
1, 109941, Note_on_c, 0, 78, 72
1, 109948, Note_off_c, 0, 80, 64
1, 109964, Note_on_c, 0, 61, 60
1, 109965, Note_off_c, 0, 78, 64
1, 109969, Control_c, 0, 64, 127
1, 109982, Note_on_c, 0, 80, 74
1, 110011, Note_on_c, 0, 66, 60
1, 110022, Note_off_c, 0, 57, 64
1, 110022, Note_on_c, 0, 78, 55
1, 110043, Note_off_c, 0, 61, 64
1, 110047, Note_on_c, 0, 77, 81
1, 110048, Note_off_c, 0, 78, 64
1, 110051, Note_off_c, 0, 80, 64
1, 110063, Note_on_c, 0, 69, 54
1, 110067, Note_off_c, 0, 66, 64
1, 110082, Note_on_c, 0, 78, 71
1, 110106, Note_on_c, 0, 66, 50
1, 110107, Note_off_c, 0, 77, 64
1, 110128, Note_on_c, 0, 81, 75
1, 110129, Note_off_c, 0, 69, 64
1, 110134, Note_on_c, 0, 61, 68
1, 110139, Note_off_c, 0, 66, 64
1, 110155, Note_off_c, 0, 61, 64
1, 110156, Note_off_c, 0, 78, 64
1, 110166, Note_on_c, 0, 85, 81
1, 110182, Note_off_c, 0, 81, 64
1, 110207, Control_c, 0, 64, 0
1, 110215, Note_off_c, 0, 85, 64
1, 110217, Note_on_c, 0, 81, 71
1, 110226, Note_on_c, 0, 48, 84
1, 110258, Note_on_c, 0, 80, 79
1, 110265, Note_off_c, 0, 81, 64
1, 110286, Note_on_c, 0, 54, 66
1, 110289, Note_off_c, 0, 80, 64
1, 110292, Control_c, 0, 64, 127
1, 110295, Note_off_c, 0, 48, 64
1, 110301, Note_on_c, 0, 81, 52
1, 110326, Note_on_c, 0, 56, 60
1, 110326, Note_on_c, 0, 80, 66
1, 110338, Note_off_c, 0, 81, 64
1, 110347, Note_off_c, 0, 54, 64
1, 110353, Note_off_c, 0, 56, 64
1, 110367, Note_on_c, 0, 79, 86
1, 110377, Note_off_c, 0, 80, 64
1, 110377, Note_on_c, 0, 63, 70
1, 110404, Note_on_c, 0, 80, 86
1, 110423, Note_off_c, 0, 79, 64
1, 110427, Note_on_c, 0, 56, 64
1, 110437, Note_on_c, 0, 84, 72
1, 110441, Note_off_c, 0, 63, 64
1, 110470, Note_off_c, 0, 80, 64
1, 110471, Note_on_c, 0, 54, 66
1, 110485, Note_on_c, 0, 87, 82
1, 110491, Note_off_c, 0, 56, 64
1, 110500, Note_off_c, 0, 54, 64
1, 110501, Note_off_c, 0, 84, 64
1, 110507, Control_c, 0, 64, 0
1, 110527, Note_on_c, 0, 49, 75
1, 110537, Note_off_c, 0, 87, 64
1, 110540, Note_on_c, 0, 80, 85
1, 110571, Note_on_c, 0, 81, 80
1, 110572, Note_off_c, 0, 80, 64
1, 110592, Note_on_c, 0, 56, 65
1, 110607, Control_c, 0, 64, 127
1, 110614, Note_off_c, 0, 49, 64
1, 110617, Note_on_c, 0, 80, 65
1, 110632, Note_off_c, 0, 81, 64
1, 110649, Note_on_c, 0, 79, 85
1, 110652, Note_off_c, 0, 80, 64
1, 110656, Note_on_c, 0, 61, 66
1, 110668, Note_off_c, 0, 56, 64
1, 110699, Note_off_c, 0, 79, 64
1, 110700, Note_on_c, 0, 80, 72
1, 110703, Note_off_c, 0, 61, 64
1, 110720, Note_on_c, 0, 64, 62
1, 110734, Note_on_c, 0, 88, 74
1, 110738, Note_off_c, 0, 80, 64
1, 110769, Note_on_c, 0, 61, 63
1, 110773, Note_on_c, 0, 87, 76
1, 110787, Note_off_c, 0, 64, 64
1, 110809, Note_on_c, 0, 56, 55
1, 110810, Note_off_c, 0, 88, 64
1, 110812, Note_on_c, 0, 86, 68
1, 110822, Note_off_c, 0, 61, 64
1, 110842, Note_off_c, 0, 56, 64
1, 110843, Note_on_c, 0, 85, 3
1, 110843, Control_c, 0, 64, 0
1, 110845, Note_off_c, 0, 87, 64
1, 110858, Note_on_c, 0, 51, 86
1, 110875, Note_on_c, 0, 84, 85
1, 110878, Note_off_c, 0, 86, 64
1, 110882, Note_off_c, 0, 85, 64
1, 110911, Note_on_c, 0, 56, 69
1, 110914, Note_on_c, 0, 83, 104
1, 110915, Control_c, 0, 64, 127
1, 110930, Note_off_c, 0, 51, 64
1, 110935, Note_off_c, 0, 84, 64
1, 110949, Note_on_c, 0, 60, 60
1, 110950, Note_on_c, 0, 82, 78
1, 110974, Note_off_c, 0, 83, 64
1, 110982, Note_off_c, 0, 56, 64
1, 110988, Note_on_c, 0, 81, 73
1, 111000, Note_off_c, 0, 82, 64
1, 111003, Note_off_c, 0, 60, 64
1, 111006, Note_on_c, 0, 66, 66
1, 111021, Note_off_c, 0, 81, 64
1, 111034, Note_on_c, 0, 80, 81
1, 111047, Note_on_c, 0, 60, 55
1, 111058, Note_off_c, 0, 66, 64
1, 111068, Note_on_c, 0, 79, 80
1, 111083, Note_off_c, 0, 80, 64
1, 111091, Note_on_c, 0, 56, 65
1, 111100, Note_off_c, 0, 79, 64
1, 111110, Note_off_c, 0, 60, 64
1, 111117, Note_on_c, 0, 78, 76
1, 111153, Note_off_c, 0, 78, 64
1, 111153, Note_off_c, 0, 56, 64
1, 111157, Note_on_c, 0, 76, 71
1, 111169, Note_on_c, 0, 52, 100
1, 111175, Control_c, 0, 64, 0
1, 111190, Note_off_c, 0, 76, 64
1, 111191, Note_on_c, 0, 78, 72
1, 111224, Note_on_c, 0, 56, 78
1, 111228, Note_on_c, 0, 76, 67
1, 111247, Note_off_c, 0, 52, 64
1, 111267, Note_off_c, 0, 78, 64
1, 111267, Control_c, 0, 64, 127
1, 111274, Note_on_c, 0, 75, 81
1, 111277, Note_on_c, 0, 61, 69
1, 111288, Note_off_c, 0, 76, 64
1, 111321, Note_on_c, 0, 76, 72
1, 111327, Note_off_c, 0, 56, 64
1, 111328, Note_off_c, 0, 75, 64
1, 111332, Note_off_c, 0, 61, 64
1, 111333, Note_on_c, 0, 68, 73
1, 111358, Note_off_c, 0, 76, 64
1, 111370, Note_on_c, 0, 88, 96
1, 111383, Note_on_c, 0, 61, 61
1, 111397, Note_off_c, 0, 68, 64
1, 111405, Note_on_c, 0, 87, 78
1, 111409, Note_on_c, 0, 56, 64
1, 111434, Note_on_c, 0, 86, 85
1, 111438, Note_off_c, 0, 88, 64
1, 111444, Control_c, 0, 64, 0
1, 111447, Note_off_c, 0, 61, 64
1, 111462, Note_on_c, 0, 54, 94
1, 111467, Note_off_c, 0, 56, 64
1, 111485, Note_on_c, 0, 85, 66
1, 111491, Note_off_c, 0, 87, 64
1, 111511, Note_off_c, 0, 86, 64
1, 111516, Note_on_c, 0, 84, 82
1, 111517, Note_on_c, 0, 61, 82
1, 111521, Control_c, 0, 64, 127
1, 111526, Note_off_c, 0, 85, 64
1, 111544, Note_on_c, 0, 83, 105
1, 111551, Note_off_c, 0, 54, 64
1, 111555, Note_off_c, 0, 84, 64
1, 111560, Note_on_c, 0, 63, 78
1, 111597, Note_on_c, 0, 82, 76
1, 111600, Note_off_c, 0, 61, 64
1, 111608, Note_on_c, 0, 69, 65
1, 111616, Note_off_c, 0, 63, 64
1, 111618, Note_off_c, 0, 83, 64
1, 111627, Note_on_c, 0, 81, 72
1, 111631, Note_off_c, 0, 82, 64
1, 111649, Note_off_c, 0, 81, 64
1, 111662, Note_on_c, 0, 80, 87
1, 111668, Note_on_c, 0, 63, 62
1, 111688, Note_on_c, 0, 61, 58
1, 111700, Note_off_c, 0, 69, 64
1, 111701, Note_on_c, 0, 79, 97
1, 111717, Note_off_c, 0, 80, 64
1, 111733, Note_off_c, 0, 63, 64
1, 111744, Control_c, 0, 64, 0
1, 111745, Note_on_c, 0, 78, 84
1, 111751, Note_off_c, 0, 79, 64
1, 111754, Note_off_c, 0, 61, 64
1, 111777, Note_on_c, 0, 68, 100
1, 111780, Note_on_c, 0, 64, 87
1, 111783, Note_on_c, 0, 80, 103
1, 111783, Note_on_c, 0, 56, 88
1, 111783, Note_on_c, 0, 61, 75
1, 111817, Note_off_c, 0, 78, 64
1, 111821, Control_c, 0, 64, 127
1, 111825, Note_off_c, 0, 80, 64
1, 111907, Note_off_c, 0, 61, 64
1, 111924, Note_off_c, 0, 64, 64
1, 111940, Note_on_c, 0, 92, 101
1, 111950, Note_off_c, 0, 68, 64
1, 111972, Note_off_c, 0, 56, 64
1, 111993, Note_on_c, 0, 91, 94
1, 112006, Note_off_c, 0, 92, 64
1, 112043, Note_on_c, 0, 90, 92
1, 112044, Control_c, 0, 64, 0
1, 112053, Note_off_c, 0, 91, 64
1, 112094, Note_on_c, 0, 89, 85
1, 112126, Note_off_c, 0, 90, 64
1, 112135, Note_on_c, 0, 88, 83
1, 112143, Control_c, 0, 64, 127
1, 112149, Note_off_c, 0, 89, 64
1, 112159, Note_on_c, 0, 55, 74
1, 112177, Note_on_c, 0, 87, 88
1, 112184, Note_on_c, 0, 61, 67
1, 112195, Note_off_c, 0, 88, 64
1, 112197, Note_off_c, 0, 55, 64
1, 112205, Note_on_c, 0, 64, 88
1, 112223, Note_on_c, 0, 86, 88
1, 112227, Note_on_c, 0, 69, 104
1, 112250, Note_off_c, 0, 61, 64
1, 112253, Note_off_c, 0, 64, 64
1, 112267, Note_on_c, 0, 85, 83
1, 112271, Note_off_c, 0, 87, 64
1, 112272, Note_off_c, 0, 69, 64
1, 112300, Note_off_c, 0, 86, 64
1, 112306, Note_on_c, 0, 84, 84
1, 112315, Note_off_c, 0, 85, 64
1, 112340, Note_on_c, 0, 83, 107
1, 112366, Note_off_c, 0, 84, 64
1, 112387, Note_on_c, 0, 82, 75
1, 112414, Note_off_c, 0, 83, 64
1, 112418, Note_on_c, 0, 81, 83
1, 112440, Note_off_c, 0, 82, 64
1, 112459, Note_on_c, 0, 80, 87
1, 112478, Note_off_c, 0, 81, 64
1, 112495, Note_on_c, 0, 79, 81
1, 112541, Note_on_c, 0, 78, 86
1, 112544, Note_off_c, 0, 80, 64
1, 112569, Note_off_c, 0, 79, 64
1, 112579, Note_on_c, 0, 77, 69
1, 112597, Note_off_c, 0, 78, 64
1, 112610, Note_on_c, 0, 76, 81
1, 112641, Note_off_c, 0, 77, 64
1, 112656, Note_on_c, 0, 75, 84
1, 112685, Note_off_c, 0, 76, 64
1, 112688, Note_on_c, 0, 74, 81
1, 112703, Note_off_c, 0, 75, 64
1, 112712, Note_off_c, 0, 74, 64
1, 112724, Note_on_c, 0, 73, 73
1, 112767, Note_on_c, 0, 72, 83
1, 112799, Note_on_c, 0, 71, 89
1, 112804, Note_off_c, 0, 73, 64
1, 112817, Note_off_c, 0, 72, 64
1, 112841, Note_on_c, 0, 70, 85
1, 112855, Note_off_c, 0, 71, 64
1, 112875, Note_on_c, 0, 69, 68
1, 112912, Note_on_c, 0, 68, 75
1, 112925, Note_off_c, 0, 70, 64
1, 112939, Note_off_c, 0, 69, 64
1, 112940, Note_off_c, 0, 68, 64
1, 112940, Note_on_c, 0, 67, 76
1, 112967, Note_off_c, 0, 67, 64
1, 112986, Note_on_c, 0, 66, 83
1, 113033, Note_on_c, 0, 64, 85
1, 113036, Note_off_c, 0, 66, 64
1, 113055, Note_off_c, 0, 64, 64
1, 113069, Note_on_c, 0, 63, 83
1, 113117, Note_on_c, 0, 61, 82
1, 113123, Note_off_c, 0, 63, 64
1, 113136, Note_off_c, 0, 61, 64
1, 113150, Control_c, 0, 64, 0
1, 113173, Note_on_c, 0, 44, 116
1, 113176, Note_on_c, 0, 56, 111
1, 113176, Note_on_c, 0, 32, 100
1, 113195, Note_off_c, 0, 32, 64
1, 113218, Note_off_c, 0, 56, 64
1, 113218, Note_off_c, 0, 44, 64
1, 113242, Control_c, 0, 64, 127
1, 113441, Note_on_c, 0, 93, 104
1, 113441, Note_on_c, 0, 76, 104
1, 113444, Note_on_c, 0, 64, 104
1, 113499, Note_on_c, 0, 92, 88
1, 113518, Note_off_c, 0, 93, 64
1, 113557, Note_off_c, 0, 92, 64
1, 113560, Note_on_c, 0, 100, 94
1, 113585, Note_off_c, 0, 76, 64
1, 113596, Note_off_c, 0, 100, 64
1, 113607, Note_on_c, 0, 88, 79
1, 113613, Note_off_c, 0, 64, 64
1, 113633, Note_off_c, 0, 88, 64
1, 113663, Note_on_c, 0, 90, 88
1, 113663, Note_on_c, 0, 73, 103
1, 113666, Note_on_c, 0, 61, 99
1, 113708, Note_on_c, 0, 88, 66
1, 113735, Note_off_c, 0, 90, 64
1, 113752, Note_on_c, 0, 97, 74
1, 113755, Note_off_c, 0, 88, 64
1, 113756, Note_off_c, 0, 73, 64
1, 113788, Note_on_c, 0, 85, 78
1, 113800, Note_off_c, 0, 97, 64
1, 113810, Note_off_c, 0, 61, 64
1, 113825, Note_off_c, 0, 85, 64
1, 113847, Note_on_c, 0, 68, 93
1, 113848, Note_on_c, 0, 87, 81
1, 113849, Note_on_c, 0, 56, 95
1, 113893, Note_on_c, 0, 85, 73
1, 113905, Note_off_c, 0, 87, 64
1, 113936, Note_on_c, 0, 92, 71
1, 113942, Note_off_c, 0, 68, 64
1, 113951, Note_off_c, 0, 85, 64
1, 113955, Note_off_c, 0, 92, 64
1, 113962, Note_on_c, 0, 80, 79
1, 113973, Note_off_c, 0, 56, 64
1, 113988, Note_off_c, 0, 80, 64
1, 114020, Note_on_c, 0, 81, 98
1, 114025, Note_on_c, 0, 64, 105
1, 114025, Note_on_c, 0, 52, 106
1, 114057, Note_on_c, 0, 80, 84
1, 114064, Note_off_c, 0, 81, 64
1, 114106, Note_off_c, 0, 64, 64
1, 114114, Note_on_c, 0, 88, 86
1, 114116, Note_off_c, 0, 80, 64
1, 114131, Note_off_c, 0, 88, 64
1, 114135, Note_off_c, 0, 52, 64
1, 114143, Note_on_c, 0, 76, 81
1, 114166, Note_off_c, 0, 76, 64
1, 114184, Note_on_c, 0, 61, 100
1, 114189, Note_on_c, 0, 49, 92
1, 114189, Note_on_c, 0, 78, 81
1, 114222, Note_on_c, 0, 76, 65
1, 114242, Note_off_c, 0, 78, 64
1, 114262, Note_off_c, 0, 61, 64
1, 114263, Note_on_c, 0, 85, 75
1, 114284, Note_off_c, 0, 76, 64
1, 114290, Note_on_c, 0, 73, 82
1, 114293, Note_off_c, 0, 49, 64
1, 114299, Note_off_c, 0, 85, 64
1, 114337, Note_on_c, 0, 56, 92
1, 114338, Note_off_c, 0, 73, 64
1, 114339, Note_on_c, 0, 44, 100
1, 114345, Note_on_c, 0, 75, 84
1, 114381, Note_on_c, 0, 73, 57
1, 114397, Note_off_c, 0, 75, 64
1, 114417, Note_off_c, 0, 56, 64
1, 114423, Note_on_c, 0, 80, 72
1, 114441, Note_off_c, 0, 80, 64
1, 114442, Note_on_c, 0, 68, 76
1, 114444, Note_off_c, 0, 73, 64
1, 114444, Note_off_c, 0, 44, 64
1, 114463, Note_off_c, 0, 68, 64
1, 114494, Note_on_c, 0, 40, 109
1, 114495, Note_on_c, 0, 52, 109
1, 114499, Note_on_c, 0, 69, 78
1, 114534, Note_on_c, 0, 68, 78
1, 114553, Note_off_c, 0, 69, 64
1, 114570, Note_off_c, 0, 52, 64
1, 114583, Note_off_c, 0, 68, 64
1, 114583, Note_on_c, 0, 76, 83
1, 114600, Note_off_c, 0, 76, 64
1, 114600, Note_off_c, 0, 40, 64
1, 114613, Note_on_c, 0, 64, 83
1, 114635, Note_off_c, 0, 64, 64
1, 114647, Note_on_c, 0, 49, 100
1, 114653, Note_on_c, 0, 37, 99
1, 114656, Note_on_c, 0, 66, 71
1, 114685, Note_on_c, 0, 64, 75
1, 114693, Note_off_c, 0, 66, 64
1, 114719, Note_off_c, 0, 49, 64
1, 114726, Note_on_c, 0, 73, 70
1, 114736, Note_off_c, 0, 64, 64
1, 114745, Note_off_c, 0, 37, 64
1, 114746, Note_off_c, 0, 73, 64
1, 114750, Note_on_c, 0, 61, 82
1, 114785, Note_off_c, 0, 61, 64
1, 114794, Control_c, 0, 64, 0
1, 114798, Note_on_c, 0, 44, 101
1, 114800, Note_on_c, 0, 32, 93
1, 114801, Note_on_c, 0, 63, 90
1, 114842, Note_on_c, 0, 61, 68
1, 114873, Note_off_c, 0, 63, 64
1, 114878, Note_on_c, 0, 68, 78
1, 114886, Control_c, 0, 64, 127
1, 114892, Note_off_c, 0, 44, 64
1, 114898, Note_off_c, 0, 61, 64
1, 114909, Note_off_c, 0, 32, 64
1, 114915, Note_on_c, 0, 56, 87
1, 114938, Note_off_c, 0, 68, 64
1, 114958, Note_on_c, 0, 63, 79
1, 114958, Note_on_c, 0, 44, 94
1, 114958, Note_on_c, 0, 32, 73
1, 114981, Note_off_c, 0, 56, 64
1, 114995, Note_on_c, 0, 61, 79
1, 115036, Note_off_c, 0, 63, 64
1, 115041, Note_on_c, 0, 68, 77
1, 115042, Note_off_c, 0, 44, 64
1, 115050, Note_off_c, 0, 32, 64
1, 115068, Note_on_c, 0, 56, 86
1, 115072, Note_off_c, 0, 61, 64
1, 115113, Note_off_c, 0, 56, 64
1, 115115, Note_off_c, 0, 68, 64
1, 115115, Note_on_c, 0, 63, 81
1, 115117, Note_on_c, 0, 33, 98
1, 115117, Note_on_c, 0, 45, 94
1, 115160, Note_on_c, 0, 61, 81
1, 115203, Note_on_c, 0, 69, 76
1, 115206, Note_off_c, 0, 45, 64
1, 115218, Note_off_c, 0, 63, 64
1, 115231, Note_off_c, 0, 61, 64
1, 115240, Note_on_c, 0, 57, 85
1, 115241, Note_off_c, 0, 33, 64
1, 115262, Note_off_c, 0, 69, 64
1, 115278, Note_on_c, 0, 44, 99
1, 115279, Note_on_c, 0, 32, 88
1, 115286, Control_c, 0, 64, 0
1, 115287, Note_on_c, 0, 63, 83
1, 115324, Note_off_c, 0, 57, 64
1, 115324, Note_on_c, 0, 61, 84
1, 115370, Note_on_c, 0, 68, 83
1, 115370, Control_c, 0, 64, 127
1, 115377, Note_off_c, 0, 44, 64
1, 115398, Note_off_c, 0, 63, 64
1, 115400, Note_on_c, 0, 56, 89
1, 115406, Note_off_c, 0, 32, 64
1, 115407, Note_off_c, 0, 61, 64
1, 115444, Note_on_c, 0, 31, 97
1, 115444, Note_on_c, 0, 43, 95
1, 115452, Note_on_c, 0, 63, 68
1, 115466, Note_off_c, 0, 56, 64
1, 115478, Note_off_c, 0, 68, 64
1, 115501, Note_on_c, 0, 61, 81
1, 115541, Note_off_c, 0, 43, 64
1, 115550, Note_on_c, 0, 67, 83
1, 115561, Note_off_c, 0, 63, 64
1, 115564, Note_off_c, 0, 31, 64
1, 115587, Note_off_c, 0, 61, 64
1, 115590, Note_on_c, 0, 55, 90
1, 115645, Note_on_c, 0, 44, 104
1, 115647, Note_on_c, 0, 32, 90
1, 115650, Note_on_c, 0, 63, 88
1, 115656, Note_off_c, 0, 55, 64
1, 115675, Note_off_c, 0, 67, 64
1, 115706, Note_on_c, 0, 61, 78
1, 115754, Note_on_c, 0, 68, 79
1, 115762, Control_c, 0, 64, 0
1, 115792, Note_off_c, 0, 63, 64
1, 115792, Note_on_c, 0, 56, 85
1, 115798, Note_off_c, 0, 61, 64
1, 115854, Note_on_c, 0, 63, 74
1, 115868, Control_c, 0, 64, 127
1, 115887, Note_off_c, 0, 68, 64
1, 115898, Note_off_c, 0, 44, 64
1, 115910, Note_on_c, 0, 60, 80
1, 115931, Note_off_c, 0, 56, 64
1, 115959, Note_on_c, 0, 68, 72
1, 115967, Note_off_c, 0, 32, 64
1, 115992, Note_off_c, 0, 63, 64
1, 116010, Note_on_c, 0, 56, 83
1, 116016, Note_off_c, 0, 60, 64
1, 116033, Note_on_c, 0, 25, 100
1, 116095, Note_on_c, 0, 63, 80
1, 116130, Note_off_c, 0, 68, 64
1, 116138, Control_c, 0, 64, 0
1, 116140, Note_on_c, 0, 37, 103
1, 116167, Note_on_c, 0, 61, 72
1, 116184, Note_off_c, 0, 25, 64
1, 116213, Note_off_c, 0, 56, 64
1, 116216, Note_off_c, 0, 37, 64
1, 116238, Control_c, 0, 64, 127
1, 116249, Note_on_c, 0, 68, 69
1, 116283, Note_off_c, 0, 63, 64
1, 116288, Note_off_c, 0, 61, 64
1, 116306, Note_on_c, 0, 56, 83
1, 116312, Note_on_c, 0, 52, 85
1, 116329, Note_off_c, 0, 56, 64
1, 116339, Note_off_c, 0, 68, 64
1, 116418, Note_on_c, 0, 69, 79
1, 116423, Note_on_c, 0, 49, 61
1, 116469, Note_on_c, 0, 68, 77
1, 116475, Note_off_c, 0, 69, 64
1, 116526, Note_on_c, 0, 76, 94
1, 116527, Note_off_c, 0, 49, 64
1, 116529, Note_on_c, 0, 44, 65
1, 116531, Note_off_c, 0, 68, 64
1, 116545, Note_off_c, 0, 52, 64
1, 116570, Note_on_c, 0, 64, 78
1, 116585, Note_off_c, 0, 44, 64
1, 116596, Note_on_c, 0, 70, 19
1, 116622, Control_c, 0, 64, 0
1, 116635, Note_on_c, 0, 69, 41
1, 116637, Note_on_c, 0, 37, 86
1, 116695, Note_on_c, 0, 68, 66
1, 116701, Note_off_c, 0, 76, 64
1, 116707, Control_c, 0, 64, 127
1, 116711, Note_off_c, 0, 37, 64
1, 116712, Note_off_c, 0, 64, 64
1, 116713, Note_off_c, 0, 70, 64
1, 116729, Note_off_c, 0, 69, 64
1, 116750, Note_on_c, 0, 76, 80
1, 116751, Note_on_c, 0, 54, 84
1, 116772, Note_off_c, 0, 68, 64
1, 116782, Note_on_c, 0, 64, 81
1, 116818, Note_off_c, 0, 76, 64
1, 116832, Note_off_c, 0, 54, 64
1, 116841, Note_off_c, 0, 64, 64
1, 116844, Note_on_c, 0, 69, 61
1, 116851, Note_on_c, 0, 48, 64
1, 116881, Note_on_c, 0, 68, 78
1, 116926, Note_off_c, 0, 69, 64
1, 116927, Note_off_c, 0, 48, 64
1, 116929, Note_on_c, 0, 75, 83
1, 116934, Note_on_c, 0, 44, 65
1, 116942, Note_off_c, 0, 68, 64
1, 116953, Note_on_c, 0, 63, 83
1, 116957, Note_off_c, 0, 44, 64
1, 116976, Control_c, 0, 64, 0
1, 117008, Note_on_c, 0, 37, 83
1, 117009, Note_on_c, 0, 69, 54
1, 117046, Note_off_c, 0, 75, 64
1, 117052, Note_on_c, 0, 68, 60
1, 117060, Control_c, 0, 64, 127
1, 117069, Note_off_c, 0, 37, 64
1, 117074, Note_off_c, 0, 63, 64
1, 117085, Note_on_c, 0, 75, 70
1, 117096, Note_off_c, 0, 69, 64
1, 117101, Note_on_c, 0, 52, 79
1, 117110, Note_off_c, 0, 68, 64
1, 117125, Note_on_c, 0, 63, 69
1, 117164, Note_off_c, 0, 75, 64
1, 117176, Note_on_c, 0, 69, 48
1, 117180, Note_off_c, 0, 52, 64
1, 117188, Note_off_c, 0, 63, 64
1, 117192, Note_on_c, 0, 49, 66
1, 117216, Note_on_c, 0, 68, 65
1, 117241, Note_off_c, 0, 69, 64
1, 117254, Note_on_c, 0, 73, 73
1, 117264, Note_on_c, 0, 44, 70
1, 117271, Note_off_c, 0, 49, 64
1, 117273, Note_off_c, 0, 68, 64
1, 117287, Note_on_c, 0, 61, 81
1, 117288, Note_off_c, 0, 44, 64
1, 117296, Note_off_c, 0, 73, 64
1, 117332, Note_off_c, 0, 61, 64
1, 117337, Control_c, 0, 64, 0
1, 117343, Note_on_c, 0, 64, 78
1, 117351, Note_on_c, 0, 37, 78
1, 117379, Note_on_c, 0, 63, 50
1, 117409, Note_off_c, 0, 37, 64
1, 117413, Control_c, 0, 64, 127
1, 117421, Note_on_c, 0, 68, 72
1, 117423, Note_off_c, 0, 64, 64
1, 117449, Note_on_c, 0, 54, 82
1, 117456, Note_off_c, 0, 63, 64
1, 117484, Note_on_c, 0, 56, 75
1, 117514, Note_on_c, 0, 64, 72
1, 117520, Note_off_c, 0, 54, 64
1, 117528, Note_off_c, 0, 68, 64
1, 117534, Note_on_c, 0, 48, 62
1, 117555, Note_off_c, 0, 56, 64
1, 117558, Note_on_c, 0, 63, 79
1, 117589, Note_off_c, 0, 64, 64
1, 117608, Note_on_c, 0, 68, 73
1, 117614, Note_on_c, 0, 44, 72
1, 117629, Note_off_c, 0, 48, 64
1, 117634, Note_off_c, 0, 63, 64
1, 117650, Note_off_c, 0, 44, 64
1, 117653, Note_on_c, 0, 56, 78
1, 117699, Note_on_c, 0, 63, 58
1, 117705, Control_c, 0, 64, 0
1, 117711, Note_on_c, 0, 37, 79
1, 117725, Note_off_c, 0, 68, 64
1, 117741, Note_off_c, 0, 56, 64
1, 117749, Note_on_c, 0, 61, 71
1, 117788, Note_off_c, 0, 37, 64
1, 117790, Control_c, 0, 64, 127
1, 117808, Note_on_c, 0, 68, 68
1, 117820, Note_on_c, 0, 52, 92
1, 117832, Note_on_c, 0, 56, 79
1, 117835, Note_off_c, 0, 63, 64
1, 117840, Note_off_c, 0, 61, 64
1, 117853, Note_off_c, 0, 56, 64
1, 117861, Note_off_c, 0, 68, 64
1, 117894, Note_off_c, 0, 52, 64
1, 117927, Note_on_c, 0, 69, 81
1, 117935, Note_on_c, 0, 49, 71
1, 117966, Note_on_c, 0, 68, 81
1, 117979, Note_off_c, 0, 69, 64
1, 118006, Note_off_c, 0, 49, 64
1, 118017, Note_off_c, 0, 68, 64
1, 118032, Note_on_c, 0, 76, 98
1, 118037, Note_on_c, 0, 44, 71
1, 118081, Note_on_c, 0, 64, 68
1, 118095, Note_off_c, 0, 44, 64
1, 118143, Note_on_c, 0, 69, 41
1, 118166, Control_c, 0, 64, 0
1, 118173, Note_on_c, 0, 37, 74
1, 118208, Note_off_c, 0, 76, 64
1, 118213, Note_on_c, 0, 68, 64
1, 118218, Note_off_c, 0, 64, 64
1, 118236, Note_off_c, 0, 37, 64
1, 118243, Control_c, 0, 64, 127
1, 118249, Note_off_c, 0, 69, 64
1, 118292, Note_on_c, 0, 76, 89
1, 118295, Note_on_c, 0, 54, 75
1, 118300, Note_off_c, 0, 68, 64
1, 118334, Note_on_c, 0, 64, 57
1, 118358, Note_off_c, 0, 76, 64
1, 118372, Note_off_c, 0, 54, 64
1, 118398, Note_off_c, 0, 64, 64
1, 118398, Note_on_c, 0, 69, 54
1, 118415, Note_on_c, 0, 48, 45
1, 118438, Note_on_c, 0, 68, 70
1, 118460, Note_off_c, 0, 69, 64
1, 118478, Note_off_c, 0, 48, 64
1, 118488, Note_off_c, 0, 68, 64
1, 118489, Note_on_c, 0, 75, 84
1, 118503, Note_on_c, 0, 44, 55
1, 118518, Note_on_c, 0, 63, 64
1, 118535, Note_off_c, 0, 44, 64
1, 118561, Note_off_c, 0, 75, 64
1, 118576, Note_on_c, 0, 69, 49
1, 118595, Note_on_c, 0, 37, 71
1, 118597, Control_c, 0, 64, 0
1, 118625, Note_on_c, 0, 68, 64
1, 118652, Note_off_c, 0, 63, 64
1, 118658, Control_c, 0, 64, 127
1, 118669, Note_off_c, 0, 69, 64
1, 118670, Note_off_c, 0, 37, 64
1, 118673, Note_on_c, 0, 75, 83
1, 118690, Note_on_c, 0, 52, 75
1, 118692, Note_off_c, 0, 68, 64
1, 118721, Note_on_c, 0, 63, 59
1, 118751, Note_off_c, 0, 52, 64
1, 118759, Note_off_c, 0, 75, 64
1, 118763, Note_on_c, 0, 69, 37
1, 118776, Note_off_c, 0, 63, 64
1, 118784, Note_on_c, 0, 49, 59
1, 118813, Note_on_c, 0, 68, 61
1, 118826, Note_off_c, 0, 49, 64
1, 118845, Note_off_c, 0, 69, 64
1, 118849, Note_on_c, 0, 73, 62
1, 118852, Note_on_c, 0, 44, 61
1, 118867, Note_off_c, 0, 68, 64
1, 118878, Note_off_c, 0, 73, 64
1, 118881, Note_off_c, 0, 44, 64
1, 118882, Note_on_c, 0, 61, 75
1, 118917, Note_off_c, 0, 61, 64
1, 118935, Control_c, 0, 64, 0
1, 118936, Note_on_c, 0, 64, 75
1, 118946, Note_on_c, 0, 37, 76
1, 118983, Note_on_c, 0, 63, 58
1, 119010, Note_off_c, 0, 37, 64
1, 119011, Control_c, 0, 64, 127
1, 119013, Note_off_c, 0, 64, 64
1, 119014, Note_on_c, 0, 68, 70
1, 119034, Note_off_c, 0, 63, 64
1, 119042, Note_on_c, 0, 56, 73
1, 119048, Note_on_c, 0, 54, 76
1, 119095, Note_off_c, 0, 68, 64
1, 119104, Note_off_c, 0, 56, 64
1, 119108, Note_on_c, 0, 64, 67
1, 119110, Note_off_c, 0, 54, 64
1, 119129, Note_on_c, 0, 48, 53
1, 119149, Note_on_c, 0, 63, 70
1, 119177, Note_off_c, 0, 64, 64
1, 119183, Note_on_c, 0, 68, 69
1, 119191, Note_off_c, 0, 48, 64
1, 119201, Note_on_c, 0, 44, 58
1, 119210, Note_off_c, 0, 63, 64
1, 119221, Note_on_c, 0, 56, 68
1, 119226, Note_off_c, 0, 44, 64
1, 119257, Note_off_c, 0, 68, 64
1, 119270, Note_on_c, 0, 63, 52
1, 119273, Control_c, 0, 64, 0
1, 119284, Note_off_c, 0, 56, 64
1, 119286, Note_on_c, 0, 37, 72
1, 119314, Note_on_c, 0, 61, 61
1, 119337, Note_off_c, 0, 37, 64
1, 119350, Control_c, 0, 64, 127
1, 119367, Note_on_c, 0, 68, 63
1, 119368, Note_on_c, 0, 52, 78
1, 119379, Note_off_c, 0, 63, 64
1, 119387, Note_off_c, 0, 61, 64
1, 119389, Note_on_c, 0, 56, 68
1, 119402, Note_off_c, 0, 68, 64
1, 119409, Note_off_c, 0, 56, 64
1, 119463, Note_off_c, 0, 52, 64
1, 119479, Note_on_c, 0, 69, 75
1, 119490, Note_on_c, 0, 49, 57
1, 119521, Note_on_c, 0, 68, 70
1, 119532, Note_off_c, 0, 69, 64
1, 119556, Note_off_c, 0, 49, 64
1, 119559, Note_off_c, 0, 68, 64
1, 119575, Note_on_c, 0, 76, 89
1, 119575, Note_on_c, 0, 44, 60
1, 119593, Note_off_c, 0, 76, 64
1, 119603, Note_off_c, 0, 44, 64
1, 119613, Note_on_c, 0, 64, 72
1, 119637, Note_off_c, 0, 64, 64
1, 119656, Note_on_c, 0, 66, 72
1, 119661, Note_on_c, 0, 37, 60
1, 119689, Note_off_c, 0, 37, 64
1, 119703, Note_on_c, 0, 64, 60
1, 119717, Note_off_c, 0, 66, 64
1, 119728, Note_off_c, 0, 64, 64
1, 119740, Note_on_c, 0, 73, 74
1, 119758, Note_on_c, 0, 52, 74
1, 119765, Note_on_c, 0, 61, 65
1, 119792, Note_off_c, 0, 61, 64
1, 119796, Note_off_c, 0, 73, 64
1, 119815, Note_on_c, 0, 69, 47
1, 119835, Note_off_c, 0, 52, 64
1, 119845, Note_on_c, 0, 49, 63
1, 119860, Note_on_c, 0, 68, 66
1, 119876, Note_off_c, 0, 69, 64
1, 119890, Note_off_c, 0, 68, 64
1, 119908, Note_off_c, 0, 49, 64
1, 119912, Note_on_c, 0, 76, 85
1, 119929, Note_on_c, 0, 44, 61
1, 119931, Note_off_c, 0, 76, 64
1, 119952, Note_on_c, 0, 64, 75
1, 119961, Note_off_c, 0, 44, 64
1, 119972, Note_off_c, 0, 64, 64
1, 120011, Note_on_c, 0, 63, 83
1, 120018, Control_c, 0, 64, 0
1, 120023, Note_on_c, 0, 37, 59
1, 120054, Note_off_c, 0, 37, 64
1, 120056, Note_on_c, 0, 61, 71
1, 120079, Control_c, 0, 64, 127
1, 120087, Note_off_c, 0, 63, 64
1, 120094, Note_off_c, 0, 61, 64
1, 120099, Note_on_c, 0, 68, 75
1, 120114, Note_on_c, 0, 52, 70
1, 120134, Note_on_c, 0, 56, 72
1, 120158, Note_off_c, 0, 56, 64
1, 120162, Note_off_c, 0, 68, 64
1, 120191, Note_off_c, 0, 52, 64
1, 120222, Note_on_c, 0, 49, 67
1, 120222, Note_on_c, 0, 69, 70
1, 120257, Note_off_c, 0, 69, 64
1, 120261, Note_on_c, 0, 68, 59
1, 120286, Note_off_c, 0, 68, 64
1, 120286, Note_off_c, 0, 49, 64
1, 120312, Note_on_c, 0, 76, 92
1, 120314, Note_on_c, 0, 44, 62
1, 120336, Note_off_c, 0, 76, 64
1, 120348, Note_on_c, 0, 64, 74
1, 120357, Note_off_c, 0, 44, 64
1, 120373, Note_off_c, 0, 64, 64
1, 120400, Note_on_c, 0, 66, 69
1, 120409, Note_on_c, 0, 37, 59
1, 120433, Note_off_c, 0, 37, 64
1, 120454, Note_on_c, 0, 64, 49
1, 120458, Note_off_c, 0, 66, 64
1, 120479, Note_off_c, 0, 64, 64
1, 120482, Note_on_c, 0, 73, 73
1, 120493, Note_on_c, 0, 52, 74
1, 120503, Note_on_c, 0, 61, 50
1, 120536, Note_off_c, 0, 61, 64
1, 120541, Note_off_c, 0, 73, 64
1, 120554, Note_on_c, 0, 69, 43
1, 120564, Note_off_c, 0, 52, 64
1, 120579, Note_on_c, 0, 49, 67
1, 120599, Note_on_c, 0, 68, 62
1, 120605, Note_off_c, 0, 69, 64
1, 120622, Note_off_c, 0, 68, 64
1, 120642, Note_off_c, 0, 49, 64
1, 120651, Note_on_c, 0, 76, 89
1, 120660, Note_on_c, 0, 44, 67
1, 120672, Note_off_c, 0, 76, 64
1, 120688, Note_off_c, 0, 44, 64
1, 120694, Note_on_c, 0, 64, 56
1, 120717, Note_off_c, 0, 64, 64
1, 120717, Control_c, 0, 64, 0
1, 120739, Note_on_c, 0, 66, 76
1, 120753, Note_on_c, 0, 37, 62
1, 120777, Note_on_c, 0, 64, 61
1, 120783, Note_off_c, 0, 37, 64
1, 120807, Note_off_c, 0, 66, 64
1, 120808, Control_c, 0, 64, 127
1, 120825, Note_off_c, 0, 64, 64
1, 120833, Note_on_c, 0, 73, 70
1, 120840, Note_on_c, 0, 52, 65
1, 120854, Note_on_c, 0, 61, 49
1, 120879, Note_off_c, 0, 52, 64
1, 120879, Note_off_c, 0, 73, 64
1, 120885, Note_off_c, 0, 61, 64
1, 120904, Note_on_c, 0, 69, 50
1, 120932, Note_on_c, 0, 49, 56
1, 120962, Note_on_c, 0, 68, 52
1, 120978, Note_off_c, 0, 49, 64
1, 120987, Note_on_c, 0, 73, 67
1, 120990, Note_off_c, 0, 68, 64
1, 120995, Note_off_c, 0, 69, 64
1, 121019, Note_on_c, 0, 44, 50
1, 121034, Note_off_c, 0, 73, 64
1, 121034, Note_on_c, 0, 61, 59
1, 121047, Note_off_c, 0, 44, 64
1, 121070, Note_off_c, 0, 61, 64
1, 121082, Note_on_c, 0, 66, 57
1, 121100, Note_on_c, 0, 37, 56
1, 121121, Note_on_c, 0, 64, 71
1, 121126, Note_off_c, 0, 37, 64
1, 121145, Note_off_c, 0, 64, 64
1, 121145, Note_off_c, 0, 66, 64
1, 121188, Note_on_c, 0, 73, 64
1, 121196, Note_on_c, 0, 52, 56
1, 121217, Note_on_c, 0, 61, 54
1, 121232, Note_off_c, 0, 73, 64
1, 121240, Note_off_c, 0, 52, 64
1, 121247, Note_off_c, 0, 61, 64
1, 121276, Note_on_c, 0, 69, 63
1, 121287, Note_on_c, 0, 49, 60
1, 121330, Note_off_c, 0, 49, 64
1, 121346, Note_on_c, 0, 68, 40
1, 121348, Note_off_c, 0, 69, 64
1, 121380, Note_off_c, 0, 68, 64
1, 121381, Note_on_c, 0, 73, 61
1, 121381, Note_on_c, 0, 44, 48
1, 121411, Note_off_c, 0, 44, 64
1, 121413, Note_off_c, 0, 73, 64
1, 121425, Note_on_c, 0, 61, 47
1, 121469, Note_off_c, 0, 61, 64
1, 121475, Note_on_c, 0, 66, 48
1, 121475, Note_on_c, 0, 37, 50
1, 121507, Note_off_c, 0, 37, 64
1, 121527, Note_on_c, 0, 64, 45
1, 121535, Note_off_c, 0, 66, 64
1, 121552, Note_off_c, 0, 64, 64
1, 121582, Note_on_c, 0, 73, 67
1, 121582, Note_on_c, 0, 52, 48
1, 121627, Note_on_c, 0, 61, 38
1, 121644, Note_off_c, 0, 73, 64
1, 121667, Note_off_c, 0, 52, 64
1, 121674, Note_off_c, 0, 61, 64
1, 121678, Note_on_c, 0, 69, 45
1, 121683, Note_on_c, 0, 49, 53
1, 121722, Note_off_c, 0, 49, 64
1, 121733, Note_on_c, 0, 68, 45
1, 121748, Note_off_c, 0, 69, 64
1, 121764, Note_off_c, 0, 68, 64
1, 121772, Note_on_c, 0, 73, 58
1, 121777, Note_on_c, 0, 44, 44
1, 121803, Note_off_c, 0, 73, 64
1, 121804, Note_off_c, 0, 44, 64
1, 121812, Note_on_c, 0, 61, 52
1, 121854, Note_off_c, 0, 61, 64
1, 121859, Note_on_c, 0, 66, 43
1, 121867, Note_on_c, 0, 37, 46
1, 121895, Note_off_c, 0, 37, 64
1, 121908, Note_on_c, 0, 64, 55
1, 121921, Note_off_c, 0, 66, 64
1, 121932, Note_off_c, 0, 64, 64
1, 121969, Note_on_c, 0, 73, 59
1, 121975, Note_on_c, 0, 52, 44
1, 122003, Note_on_c, 0, 61, 46
1, 122014, Note_off_c, 0, 73, 64
1, 122054, Note_off_c, 0, 61, 64
1, 122065, Note_on_c, 0, 69, 41
1, 122073, Note_off_c, 0, 52, 64
1, 122078, Note_on_c, 0, 49, 50
1, 122117, Note_on_c, 0, 68, 44
1, 122136, Note_off_c, 0, 69, 64
1, 122165, Note_off_c, 0, 68, 64
1, 122168, Note_off_c, 0, 49, 64
1, 122174, Note_on_c, 0, 73, 42
1, 122184, Note_on_c, 0, 44, 42
1, 122223, Note_on_c, 0, 61, 49
1, 122224, Note_off_c, 0, 73, 64
1, 122270, Note_off_c, 0, 61, 64
1, 122331, Note_on_c, 0, 63, 32
1, 122335, Note_off_c, 0, 44, 64
1, 122350, Note_on_c, 0, 37, 32
1, 122374, Note_off_c, 0, 63, 64
1, 122389, Note_on_c, 0, 61, 35
1, 122439, Note_off_c, 0, 61, 64
1, 122439, Note_on_c, 0, 68, 41
1, 122484, Control_c, 0, 64, 0
1, 122486, Note_on_c, 0, 56, 46
1, 122546, Note_on_c, 0, 63, 55
1, 122553, Control_c, 0, 64, 127
1, 122557, Note_off_c, 0, 68, 64
1, 122584, Note_off_c, 0, 56, 64
1, 122593, Note_on_c, 0, 61, 54
1, 122629, Note_off_c, 0, 63, 64
1, 122636, Note_off_c, 0, 61, 64
1, 122643, Note_on_c, 0, 68, 49
1, 122688, Note_on_c, 0, 56, 46
1, 122716, Note_off_c, 0, 68, 64
1, 122742, Note_on_c, 0, 63, 47
1, 122745, Note_off_c, 0, 56, 64
1, 122781, Note_on_c, 0, 61, 49
1, 122786, Note_off_c, 0, 63, 64
1, 122821, Note_off_c, 0, 61, 64
1, 122828, Note_on_c, 0, 68, 48
1, 122865, Note_on_c, 0, 56, 50
1, 122883, Note_off_c, 0, 68, 64
1, 122898, Note_off_c, 0, 37, 64
1, 122924, Note_on_c, 0, 63, 48
1, 122934, Note_off_c, 0, 56, 64
1, 122969, Note_on_c, 0, 61, 47
1, 122985, Note_off_c, 0, 63, 64
1, 123011, Note_off_c, 0, 61, 64
1, 123014, Note_on_c, 0, 68, 41
1, 123048, Note_on_c, 0, 56, 48
1, 123070, Note_off_c, 0, 68, 64
1, 123110, Note_on_c, 0, 63, 42
1, 123116, Note_off_c, 0, 56, 64
1, 123146, Note_off_c, 0, 63, 64
1, 123150, Note_on_c, 0, 61, 40
1, 123188, Note_off_c, 0, 61, 64
1, 123194, Note_on_c, 0, 68, 38
1, 123231, Note_on_c, 0, 56, 40
1, 123278, Note_off_c, 0, 68, 64
1, 123290, Note_on_c, 0, 63, 38
1, 123291, Note_off_c, 0, 56, 64
1, 123326, Note_off_c, 0, 63, 64
1, 123335, Note_on_c, 0, 61, 38
1, 123372, Note_on_c, 0, 68, 30
1, 123373, Note_off_c, 0, 61, 64
1, 123413, Note_on_c, 0, 56, 43
1, 123440, Note_off_c, 0, 68, 64
1, 123478, Note_off_c, 0, 56, 64
1, 123482, Note_on_c, 0, 63, 34
1, 123517, Note_off_c, 0, 63, 64
1, 123523, Note_on_c, 0, 61, 34
1, 123561, Note_off_c, 0, 61, 64
1, 123566, Note_on_c, 0, 68, 33
1, 123599, Note_on_c, 0, 56, 39
1, 123629, Note_off_c, 0, 68, 64
1, 123652, Note_off_c, 0, 56, 64
1, 123664, Note_on_c, 0, 63, 37
1, 123701, Note_off_c, 0, 63, 64
1, 123715, Note_on_c, 0, 61, 27
1, 123754, Note_off_c, 0, 61, 64
1, 123754, Note_on_c, 0, 68, 35
1, 123793, Note_on_c, 0, 56, 41
1, 123845, Note_off_c, 0, 68, 64
1, 123862, Note_on_c, 0, 37, 84
1, 123864, Note_on_c, 0, 44, 88
1, 123877, Note_on_c, 0, 63, 30
1, 123887, Note_off_c, 0, 56, 64
1, 123916, Note_off_c, 0, 63, 64
1, 123943, Note_on_c, 0, 61, 13
1, 123972, Note_on_c, 0, 68, 40
1, 123987, Note_off_c, 0, 61, 64
1, 124015, Note_on_c, 0, 56, 36
1, 124074, Control_c, 0, 64, 0
1, 124086, Note_off_c, 0, 68, 64
1, 124096, Note_on_c, 0, 63, 33
1, 124139, Note_off_c, 0, 63, 64
1, 124149, Note_on_c, 0, 61, 26
1, 124151, Note_off_c, 0, 56, 64
1, 124159, Control_c, 0, 64, 127
1, 124190, Note_on_c, 0, 68, 33
1, 124199, Note_off_c, 0, 61, 64
1, 124235, Note_on_c, 0, 56, 40
1, 124251, Note_off_c, 0, 68, 64
1, 124291, Note_off_c, 0, 56, 64
1, 124302, Note_on_c, 0, 63, 39
1, 124341, Note_off_c, 0, 63, 64
1, 124353, Note_on_c, 0, 61, 32
1, 124391, Note_off_c, 0, 61, 64
1, 124394, Note_on_c, 0, 68, 36
1, 124434, Note_on_c, 0, 56, 41
1, 124489, Note_off_c, 0, 68, 64
1, 124499, Note_on_c, 0, 63, 37
1, 124509, Note_off_c, 0, 56, 64
1, 124548, Note_off_c, 0, 63, 64
1, 124552, Note_on_c, 0, 61, 35
1, 124592, Note_off_c, 0, 61, 64
1, 124603, Note_on_c, 0, 68, 40
1, 124642, Note_on_c, 0, 56, 49
1, 124662, Note_off_c, 0, 68, 64
1, 124669, Note_off_c, 0, 37, 64
1, 124695, Note_on_c, 0, 46, 84
1, 124706, Note_on_c, 0, 63, 52
1, 124717, Note_off_c, 0, 56, 64
1, 124741, Note_off_c, 0, 44, 64
1, 124753, Note_on_c, 0, 61, 40
1, 124764, Note_off_c, 0, 63, 64
1, 124789, Control_c, 0, 64, 0
1, 124819, Note_on_c, 0, 68, 45
1, 124830, Note_off_c, 0, 61, 64
1, 124889, Control_c, 0, 64, 127
1, 124890, Note_on_c, 0, 56, 42
1, 124903, Note_off_c, 0, 68, 64
1, 124967, Note_off_c, 0, 56, 64
1, 124968, Note_on_c, 0, 63, 48
1, 124973, Note_on_c, 0, 44, 91
1, 125009, Note_off_c, 0, 46, 64
1, 125030, Note_on_c, 0, 61, 39
1, 125062, Note_off_c, 0, 63, 64
1, 125073, Control_c, 0, 64, 0
1, 125081, Note_off_c, 0, 61, 64
1, 125087, Note_on_c, 0, 68, 40
1, 125136, Note_on_c, 0, 56, 46
1, 125157, Control_c, 0, 64, 127
1, 125194, Note_on_c, 0, 49, 83
1, 125202, Note_off_c, 0, 68, 64
1, 125206, Note_on_c, 0, 63, 49
1, 125215, Note_off_c, 0, 56, 64
1, 125237, Note_off_c, 0, 44, 64
1, 125249, Control_c, 0, 64, 0
1, 125273, Note_on_c, 0, 61, 38
1, 125296, Note_off_c, 0, 63, 64
1, 125313, Note_on_c, 0, 68, 43
1, 125316, Note_off_c, 0, 61, 64
1, 125357, Control_c, 0, 64, 127
1, 125360, Note_on_c, 0, 56, 46
1, 125404, Note_off_c, 0, 68, 64
1, 125411, Note_on_c, 0, 51, 84
1, 125420, Note_on_c, 0, 63, 47
1, 125433, Note_off_c, 0, 56, 64
1, 125453, Note_off_c, 0, 49, 64
1, 125464, Control_c, 0, 64, 0
1, 125479, Note_on_c, 0, 61, 36
1, 125485, Note_off_c, 0, 63, 64
1, 125530, Note_on_c, 0, 68, 42
1, 125537, Note_off_c, 0, 61, 64
1, 125583, Note_on_c, 0, 56, 44
1, 125588, Control_c, 0, 64, 127
1, 125664, Note_off_c, 0, 68, 64
1, 125666, Note_off_c, 0, 56, 64
1, 125673, Note_on_c, 0, 63, 48
1, 125683, Note_on_c, 0, 53, 100
1, 125716, Note_off_c, 0, 51, 64
1, 125737, Note_on_c, 0, 61, 38
1, 125741, Note_off_c, 0, 63, 64
1, 125742, Control_c, 0, 64, 0
1, 125792, Note_on_c, 0, 68, 41
1, 125800, Note_off_c, 0, 61, 64
1, 125846, Note_on_c, 0, 56, 37
1, 125864, Control_c, 0, 64, 127
1, 125906, Note_off_c, 0, 68, 64
1, 125921, Note_on_c, 0, 63, 31
1, 125935, Note_off_c, 0, 56, 64
1, 125958, Note_off_c, 0, 63, 64
1, 125966, Note_on_c, 0, 61, 37
1, 126006, Note_off_c, 0, 61, 64
1, 126013, Note_on_c, 0, 68, 38
1, 126060, Note_on_c, 0, 56, 43
1, 126067, Note_off_c, 0, 68, 64
1, 126111, Note_off_c, 0, 56, 64
1, 126130, Note_on_c, 0, 63, 36
1, 126168, Note_off_c, 0, 63, 64
1, 126186, Note_on_c, 0, 61, 30
1, 126225, Note_off_c, 0, 61, 64
1, 126240, Note_on_c, 0, 68, 32
1, 126286, Note_on_c, 0, 56, 35
1, 126326, Note_off_c, 0, 56, 64
1, 126330, Note_off_c, 0, 68, 64
1, 126365, Note_on_c, 0, 63, 31
1, 126402, Note_off_c, 0, 63, 64
1, 126417, Note_on_c, 0, 61, 34
1, 126462, Note_off_c, 0, 61, 64
1, 126473, Note_on_c, 0, 68, 32
1, 126533, Note_on_c, 0, 56, 37
1, 126547, Note_off_c, 0, 68, 64
1, 126567, Note_off_c, 0, 56, 64
1, 126650, Note_on_c, 0, 63, 40
1, 126694, Control_c, 0, 64, 0
1, 126695, Note_on_c, 0, 56, 80
1, 126706, Note_off_c, 0, 53, 64
1, 126798, Note_on_c, 0, 61, 37
1, 126801, Control_c, 0, 64, 127
1, 126832, Note_off_c, 0, 63, 64
1, 126857, Note_off_c, 0, 61, 64
1, 126867, Note_on_c, 0, 68, 30
1, 126900, Note_off_c, 0, 56, 64
1, 126938, Note_on_c, 0, 56, 40
1, 126968, Note_off_c, 0, 68, 64
1, 127008, Note_on_c, 0, 63, 35
1, 127043, Note_off_c, 0, 56, 64
1, 127058, Note_off_c, 0, 63, 64
1, 127071, Note_on_c, 0, 61, 20
1, 127110, Note_on_c, 0, 68, 38
1, 127114, Note_off_c, 0, 61, 64
1, 127153, Note_off_c, 0, 68, 64
1, 127155, Note_on_c, 0, 56, 38
1, 127200, Note_off_c, 0, 56, 64
1, 127225, Note_on_c, 0, 63, 33
1, 127260, Note_off_c, 0, 63, 64
1, 127274, Note_on_c, 0, 61, 32
1, 127315, Note_off_c, 0, 61, 64
1, 127332, Note_on_c, 0, 68, 33
1, 127375, Note_on_c, 0, 56, 38
1, 127383, Note_off_c, 0, 68, 64
1, 127426, Note_off_c, 0, 56, 64
1, 127446, Note_on_c, 0, 63, 28
1, 127481, Note_off_c, 0, 63, 64
1, 127489, Note_on_c, 0, 61, 36
1, 127538, Note_off_c, 0, 61, 64
1, 127558, Note_on_c, 0, 68, 28
1, 127613, Note_off_c, 0, 68, 64
1, 127617, Note_on_c, 0, 56, 28
1, 127772, Note_on_c, 0, 63, 24
1, 127782, Note_off_c, 0, 56, 64
1, 127809, Note_on_c, 0, 54, 81
1, 127844, Note_off_c, 0, 63, 64
1, 127866, Note_on_c, 0, 61, 32
1, 127962, Note_on_c, 0, 68, 34
1, 127963, Note_off_c, 0, 61, 64
1, 128022, Note_on_c, 0, 56, 38
1, 128023, Control_c, 0, 64, 0
1, 128059, Note_off_c, 0, 68, 64
1, 128096, Note_off_c, 0, 56, 64
1, 128097, Note_on_c, 0, 63, 34
1, 128107, Control_c, 0, 64, 127
1, 128140, Note_off_c, 0, 63, 64
1, 128148, Note_on_c, 0, 61, 35
1, 128195, Note_off_c, 0, 61, 64
1, 128213, Note_on_c, 0, 68, 29
1, 128259, Note_on_c, 0, 56, 36
1, 128266, Note_off_c, 0, 68, 64
1, 128359, Note_on_c, 0, 63, 38
1, 128366, Note_off_c, 0, 56, 64
1, 128370, Note_off_c, 0, 54, 64
1, 128373, Note_on_c, 0, 53, 81
1, 128413, Note_off_c, 0, 63, 64
1, 128434, Note_on_c, 0, 61, 23
1, 128481, Note_off_c, 0, 61, 64
1, 128488, Note_on_c, 0, 68, 36
1, 128536, Note_on_c, 0, 56, 40
1, 128553, Control_c, 0, 64, 0
1, 128605, Note_on_c, 0, 63, 39
1, 128607, Note_off_c, 0, 68, 64
1, 128620, Note_off_c, 0, 56, 64
1, 128645, Control_c, 0, 64, 127
1, 128646, Note_off_c, 0, 63, 64
1, 128650, Note_on_c, 0, 61, 41
1, 128695, Note_off_c, 0, 61, 64
1, 128710, Note_on_c, 0, 68, 37
1, 128754, Note_on_c, 0, 56, 44
1, 128786, Note_off_c, 0, 68, 64
1, 128812, Note_on_c, 0, 51, 65
1, 128826, Note_on_c, 0, 63, 42
1, 128827, Note_off_c, 0, 53, 64
1, 128828, Note_off_c, 0, 56, 64
1, 128853, Control_c, 0, 64, 0
1, 128872, Note_off_c, 0, 63, 64
1, 128880, Note_on_c, 0, 61, 36
1, 128937, Note_on_c, 0, 68, 36
1, 128951, Note_off_c, 0, 61, 64
1, 128984, Note_on_c, 0, 56, 42
1, 128995, Note_off_c, 0, 68, 64
1, 129014, Control_c, 0, 64, 127
1, 129048, Note_off_c, 0, 56, 64
1, 129062, Note_on_c, 0, 63, 33
1, 129101, Note_off_c, 0, 63, 64
1, 129120, Note_on_c, 0, 61, 32
1, 129173, Note_off_c, 0, 61, 64
1, 129174, Note_on_c, 0, 68, 35
1, 129234, Note_off_c, 0, 68, 64
1, 129234, Note_on_c, 0, 56, 38
1, 129332, Note_on_c, 0, 63, 36
1, 129339, Note_off_c, 0, 56, 64
1, 129343, Note_on_c, 0, 53, 74
1, 129386, Note_off_c, 0, 51, 64
1, 129415, Note_off_c, 0, 63, 64
1, 129420, Note_on_c, 0, 61, 28
1, 129467, Control_c, 0, 64, 0
1, 129484, Note_on_c, 0, 68, 32
1, 129505, Note_off_c, 0, 61, 64
1, 129524, Note_on_c, 0, 56, 43
1, 129525, Control_c, 0, 64, 127
1, 129581, Note_off_c, 0, 68, 64
1, 129585, Note_on_c, 0, 49, 56
1, 129592, Note_on_c, 0, 63, 42
1, 129608, Note_off_c, 0, 56, 64
1, 129641, Note_off_c, 0, 53, 64
1, 129644, Note_off_c, 0, 63, 64
1, 129653, Note_on_c, 0, 61, 32
1, 129698, Control_c, 0, 64, 0
1, 129722, Note_on_c, 0, 68, 38
1, 129740, Note_off_c, 0, 61, 64
1, 129792, Control_c, 0, 64, 127
1, 129801, Note_on_c, 0, 56, 28
1, 129903, Note_off_c, 0, 68, 64
1, 129916, Note_on_c, 0, 63, 35
1, 129920, Note_off_c, 0, 56, 64
1, 129932, Note_on_c, 0, 44, 62
1, 129972, Note_off_c, 0, 49, 64
1, 129982, Control_c, 0, 64, 0
1, 130027, Note_on_c, 0, 61, 31
1, 130040, Note_off_c, 0, 63, 64
1, 130074, Note_off_c, 0, 61, 64
1, 130074, Control_c, 0, 64, 127
1, 130094, Note_on_c, 0, 68, 33
1, 130124, Note_off_c, 0, 68, 64
1, 130173, Note_on_c, 0, 53, 61
1, 130206, Note_off_c, 0, 53, 64
1, 130242, Note_on_c, 0, 63, 44
1, 130293, Note_off_c, 0, 63, 64
1, 130306, Note_on_c, 0, 61, 51
1, 130349, Note_off_c, 0, 61, 64
1, 130369, Note_on_c, 0, 68, 40
1, 130397, Note_off_c, 0, 68, 64
1, 130496, Note_on_c, 0, 63, 43
1, 130532, Note_off_c, 0, 63, 64
1, 130559, Note_on_c, 0, 61, 42
1, 130591, Note_off_c, 0, 61, 64
1, 130623, Note_on_c, 0, 68, 50
1, 130651, Note_off_c, 0, 68, 64
1, 130709, Note_on_c, 0, 53, 40
1, 130741, Note_off_c, 0, 53, 64
1, 130778, Note_on_c, 0, 63, 27
1, 130812, Note_off_c, 0, 63, 64
1, 130837, Note_on_c, 0, 61, 36
1, 130887, Note_off_c, 0, 61, 64
1, 130908, Note_on_c, 0, 68, 40
1, 130939, Note_off_c, 0, 68, 64
1, 131005, Note_on_c, 0, 53, 45
1, 131035, Note_off_c, 0, 53, 64
1, 131088, Note_on_c, 0, 32, 38
1, 131093, Note_on_c, 0, 65, 40
1, 131096, Control_c, 0, 64, 0
1, 131196, Control_c, 0, 64, 127
1, 131197, Note_on_c, 0, 63, 46
1, 131200, Note_off_c, 0, 65, 64
1, 131275, Note_off_c, 0, 63, 64
1, 131276, Note_on_c, 0, 68, 57
1, 131314, Note_off_c, 0, 68, 64
1, 131350, Note_on_c, 0, 54, 57
1, 131386, Note_off_c, 0, 54, 64
1, 131429, Note_on_c, 0, 65, 46
1, 131503, Note_off_c, 0, 65, 64
1, 131508, Note_on_c, 0, 63, 50
1, 131537, Note_off_c, 0, 63, 64
1, 131580, Note_on_c, 0, 68, 52
1, 131632, Note_off_c, 0, 68, 64
1, 131664, Note_on_c, 0, 54, 46
1, 131698, Note_off_c, 0, 54, 64
1, 131759, Note_on_c, 0, 65, 33
1, 131852, Note_off_c, 0, 65, 64
1, 131867, Note_on_c, 0, 63, 26
1, 131924, Note_off_c, 0, 63, 64
1, 131958, Note_on_c, 0, 68, 33
1, 132000, Note_off_c, 0, 68, 64
1, 132061, Note_on_c, 0, 54, 36
1, 132097, Note_off_c, 0, 54, 64
1, 132187, Note_on_c, 0, 65, 28
1, 132319, Note_off_c, 0, 65, 64
1, 132336, Note_on_c, 0, 63, 32
1, 132502, Note_on_c, 0, 68, 30
1, 132503, Note_off_c, 0, 63, 64
1, 132648, Note_off_c, 0, 68, 64
1, 132765, Note_on_c, 0, 54, 26
1, 132787, Note_off_c, 0, 44, 64
1, 132978, Note_on_c, 0, 37, 39
1, 133098, Note_off_c, 0, 32, 64
1, 133103, Note_on_c, 0, 44, 52
1, 133127, Note_off_c, 0, 54, 64
1, 133207, Note_on_c, 0, 54, 61
1, 133305, Note_on_c, 0, 56, 50
1, 133421, Note_on_c, 0, 60, 56
1, 133646, Note_on_c, 0, 63, 62
1, 133648, Note_off_c, 0, 56, 64
1, 133731, Control_c, 0, 64, 0
1, 133807, Note_on_c, 0, 56, 2
1, 133815, Control_c, 0, 64, 127
1, 134876, Note_off_c, 0, 37, 64
1, 135209, Note_off_c, 0, 44, 64
1, 135236, Note_on_c, 0, 37, 24
1, 135373, Note_off_c, 0, 56, 64
1, 135383, Note_off_c, 0, 54, 64
1, 135421, Note_on_c, 0, 44, 29
1, 135552, Note_off_c, 0, 60, 64
1, 135568, Note_on_c, 0, 49, 24
1, 135756, Note_on_c, 0, 53, 44
1, 136008, Note_on_c, 0, 56, 32
1, 136067, Control_c, 0, 64, 0
1, 136197, Control_c, 0, 64, 127
1, 136615, Note_on_c, 0, 61, 31
1, 136739, Note_off_c, 0, 63, 64
1, 136819, Control_c, 0, 64, 0
1, 136943, Control_c, 0, 64, 127
1, 138304, Note_off_c, 0, 53, 64
1, 138377, Note_off_c, 0, 49, 64
1, 138441, Note_off_c, 0, 44, 64
1, 138441, Note_off_c, 0, 56, 64
1, 138447, Note_off_c, 0, 61, 64
1, 138493, Note_off_c, 0, 37, 64
1, 138564, Control_c, 0, 64, 0
1, 139200, Control_c, 0, 64, 0
1, 139200, End_track
0, 0, End_of_file