0, 0, Header, 1, 5, 480
1, 0, Start_track
1, 0, Instrument_name_t, "Tempo"
1, 0, Key_signature, 0, "major"
1, 0, Time_signature, 4, 2, 24, 8
1, 0, Tempo, 400000
1, 0, End_track
2, 0, Start_track
2, 0, Instrument_name_t, "Piano"
2, 0, Program_c, 0, 0
2, 0, Control_c, 0, 64, 127
2, 0, Note_on_c, 0, 59, 38
2, 694, Note_on_c, 0, 59, 0
2, 1224, Note_on_c, 0, 64, 48
2, 1224, Note_on_c, 0, 56, 21
2, 1252, Note_on_c, 0, 40, 34
2, 1416, Control_c, 0, 64, 0
2, 1770, Control_c, 0, 64, 127
2, 2046, Note_on_c, 0, 47, 19
2, 2054, Note_on_c, 0, 59, 26
2, 2102, Note_on_c, 0, 64, 0
2, 2560, Note_on_c, 0, 63, 46
2, 2572, Note_on_c, 0, 56, 25
2, 2618, Note_on_c, 0, 56, 0
2, 2634, Note_on_c, 0, 40, 0
2, 2652, Note_on_c, 0, 47, 0
2, 3034, Note_on_c, 0, 64, 63
2, 3039, Note_on_c, 0, 59, 34
2, 3042, Note_on_c, 0, 47, 25
2, 3080, Note_on_c, 0, 59, 0
2, 3086, Note_on_c, 0, 63, 0
2, 3442, Note_on_c, 0, 56, 0
2, 3494, Note_on_c, 0, 64, 0
2, 3516, Note_on_c, 0, 66, 52
2, 3522, Note_on_c, 0, 63, 29
2, 3534, Note_on_c, 0, 57, 31
2, 3540, Note_on_c, 0, 59, 0
2, 3568, Note_on_c, 0, 35, 33
2, 3614, Control_c, 0, 64, 0
2, 3618, Note_on_c, 0, 47, 0
2, 3968, Control_c, 0, 64, 127
2, 4016, Note_on_c, 0, 66, 0
2, 4040, Note_on_c, 0, 59, 26
2, 4050, Note_on_c, 0, 47, 16
2, 4304, Note_on_c, 0, 63, 0
2, 4544, Note_on_c, 0, 57, 21
2, 4598, Note_on_c, 0, 57, 0
2, 5000, Note_on_c, 0, 35, 0
2, 5064, Note_on_c, 0, 59, 20
2, 5082, Note_on_c, 0, 47, 14
2, 5258, Note_on_c, 0, 59, 0
2, 5512, Note_on_c, 0, 47, 0
2, 5552, Note_on_c, 0, 57, 0
2, 5616, Note_on_c, 0, 57, 23
2, 5654, Note_on_c, 0, 35, 20
2, 5870, Note_on_c, 0, 59, 0
2, 5926, Note_on_c, 0, 47, 0
2, 5932, Note_on_c, 0, 57, 0
2, 6274, Note_on_c, 0, 68, 60
2, 6290, Note_on_c, 0, 59, 21
2, 6292, Note_on_c, 0, 47, 17
2, 6520, Note_on_c, 0, 35, 0
2, 6562, Note_on_c, 0, 68, 0
2, 6784, Note_on_c, 0, 68, 61
2, 6810, Note_on_c, 0, 63, 41
2, 6820, Note_on_c, 0, 57, 17
2, 6912, Note_on_c, 0, 59, 0
2, 7114, Note_on_c, 0, 47, 0
2, 7260, Note_on_c, 0, 66, 60
2, 7282, Note_on_c, 0, 59, 33
2, 7302, Note_on_c, 0, 47, 24
2, 7342, Note_on_c, 0, 68, 0
2, 7494, Note_on_c, 0, 63, 0
2, 7532, Note_on_c, 0, 57, 0
2, 7628, Note_on_c, 0, 66, 0
2, 7712, Note_on_c, 0, 59, 0
2, 7848, Note_on_c, 0, 68, 54
2, 7852, Note_on_c, 0, 56, 37
2, 7854, Note_on_c, 0, 64, 27
2, 7862, Note_on_c, 0, 40, 36
2, 7930, Note_on_c, 0, 47, 0
2, 7992, Control_c, 0, 64, 0
2, 8362, Control_c, 0, 64, 127
2, 8464, Note_on_c, 0, 68, 0
2, 8548, Note_on_c, 0, 47, 22
2, 8554, Note_on_c, 0, 59, 33
2, 8870, Note_on_c, 0, 56, 0
2, 9030, Note_on_c, 0, 56, 26
2, 9052, Note_on_c, 0, 64, 0
2, 9346, Note_on_c, 0, 40, 0
2, 9464, Note_on_c, 0, 47, 0
2, 9494, Note_on_c, 0, 59, 31
2, 9500, Note_on_c, 0, 47, 13
2, 9802, Note_on_c, 0, 59, 0
2, 9866, Note_on_c, 0, 56, 0
2, 9936, Note_on_c, 0, 56, 26
2, 9972, Note_on_c, 0, 40, 38
2, 10118, Note_on_c, 0, 59, 0
2, 10152, Note_on_c, 0, 47, 0
2, 10336, Note_on_c, 0, 56, 0
2, 10576, Note_on_c, 0, 69, 54
2, 10612, Note_on_c, 0, 47, 23
2, 10630, Note_on_c, 0, 64, 19
2, 10776, Note_on_c, 0, 40, 0
2, 10838, Note_on_c, 0, 69, 0
2, 11036, Note_on_c, 0, 69, 69
2, 11094, Note_on_c, 0, 59, 23
2, 11188, Note_on_c, 0, 47, 0
2, 11374, Note_on_c, 0, 64, 0
2, 11486, Note_on_c, 0, 68, 78
2, 11528, Note_on_c, 0, 69, 0
2, 11528, Note_on_c, 0, 64, 38
2, 11540, Note_on_c, 0, 47, 23
2, 11682, Note_on_c, 0, 59, 0
2, 11842, Note_on_c, 0, 68, 0
2, 11846, Note_on_c, 0, 64, 0
2, 12060, Note_on_c, 0, 73, 74
2, 12092, Note_on_c, 0, 63, 39
2, 12100, Note_on_c, 0, 35, 26
2, 12108, Note_on_c, 0, 47, 0
2, 12188, Control_c, 0, 64, 0
2, 12542, Control_c, 0, 64, 127
2, 12642, Note_on_c, 0, 73, 0
2, 12678, Note_on_c, 0, 69, 20
2, 12688, Note_on_c, 0, 47, 18
2, 12896, Note_on_c, 0, 63, 0
2, 13000, Note_on_c, 0, 35, 0
2, 13190, Note_on_c, 0, 69, 0
2, 13248, Note_on_c, 0, 59, 23
2, 13352, Note_on_c, 0, 47, 0
2, 13698, Note_on_c, 0, 71, 73
2, 13734, Note_on_c, 0, 63, 29
2, 13742, Note_on_c, 0, 47, 24
2, 13984, Note_on_c, 0, 59, 0
2, 14168, Note_on_c, 0, 69, 58
2, 14210, Note_on_c, 0, 59, 22
2, 14212, Note_on_c, 0, 40, 40
2, 14244, Note_on_c, 0, 71, 0
2, 14250, Note_on_c, 0, 63, 0
2, 14410, Note_on_c, 0, 47, 0
2, 14478, Control_c, 0, 64, 0
2, 14646, Note_on_c, 0, 68, 54
2, 14670, Note_on_c, 0, 64, 38
2, 14676, Note_on_c, 0, 47, 29
2, 14692, Note_on_c, 0, 69, 0
2, 14706, Note_on_c, 0, 59, 0
2, 14872, Note_on_c, 0, 40, 0
2, 14875, Control_c, 0, 64, 127
2, 15120, Note_on_c, 0, 63, 54
2, 15132, Note_on_c, 0, 56, 30
2, 15142, Note_on_c, 0, 68, 0
2, 15328, Note_on_c, 0, 64, 0
2, 15470, Note_on_c, 0, 47, 0
2, 15540, Note_on_c, 0, 64, 61
2, 15554, Note_on_c, 0, 59, 33
2, 15582, Note_on_c, 0, 47, 26
2, 15622, Note_on_c, 0, 63, 0
2, 15858, Note_on_c, 0, 56, 0
2, 15886, Note_on_c, 0, 64, 0
2, 15984, Note_on_c, 0, 66, 39
2, 15984, Note_on_c, 0, 61, 32
2, 15998, Note_on_c, 0, 57, 29
2, 16006, Note_on_c, 0, 35, 29
2, 16046, Note_on_c, 0, 59, 0
2, 16046, Note_on_c, 0, 47, 0
2, 16060, Control_c, 0, 64, 0
2, 16368, Control_c, 0, 64, 127
2, 16414, Note_on_c, 0, 66, 0
2, 16442, Note_on_c, 0, 63, 38
2, 16450, Note_on_c, 0, 47, 21
2, 16464, Note_on_c, 0, 61, 0
2, 16467, Note_on_c, 0, 59, 26
2, 16506, Control_c, 0, 64, 0
2, 16752, Control_c, 0, 64, 127
2, 16866, Note_on_c, 0, 57, 0
2, 16876, Note_on_c, 0, 61, 33
2, 16896, Note_on_c, 0, 57, 24
2, 16908, Note_on_c, 0, 35, 0
2, 16972, Note_on_c, 0, 63, 0
2, 17226, Note_on_c, 0, 47, 0
2, 17348, Note_on_c, 0, 63, 25
2, 17351, Control_c, 0, 64, 0
2, 17351, Note_on_c, 0, 47, 21
2, 17356, Note_on_c, 0, 59, 0
2, 17364, Note_on_c, 0, 59, 21
2, 17552, Note_on_c, 0, 61, 0
2, 17566, Control_c, 0, 64, 127
2, 17706, Note_on_c, 0, 57, 0
2, 17764, Note_on_c, 0, 63, 0
2, 17870, Note_on_c, 0, 47, 0
2, 17892, Note_on_c, 0, 61, 24
2, 17902, Note_on_c, 0, 57, 19
2, 17932, Note_on_c, 0, 35, 23
2, 18138, Note_on_c, 0, 59, 0
2, 18178, Note_on_c, 0, 61, 0
2, 18240, Note_on_c, 0, 57, 0
2, 18552, Note_on_c, 0, 68, 51
2, 18580, Note_on_c, 0, 47, 19
2, 18584, Note_on_c, 0, 63, 33
2, 18590, Note_on_c, 0, 59, 8
2, 18826, Note_on_c, 0, 35, 0
2, 18850, Note_on_c, 0, 68, 0
2, 18854, Note_on_c, 0, 47, 0
2, 19070, Note_on_c, 0, 68, 61
2, 19104, Note_on_c, 0, 57, 21
2, 19106, Note_on_c, 0, 61, 28
2, 19134, Control_c, 0, 64, 0
2, 19256, Note_on_c, 0, 63, 0
2, 19318, Control_c, 0, 64, 127
2, 19354, Note_on_c, 0, 59, 0
2, 19514, Note_on_c, 0, 68, 0
2, 19558, Note_on_c, 0, 66, 44
2, 19590, Note_on_c, 0, 59, 20
2, 19602, Note_on_c, 0, 63, 24
2, 19610, Control_c, 0, 64, 0
2, 19630, Note_on_c, 0, 47, 17
2, 19640, Note_on_c, 0, 57, 0
2, 19840, Control_c, 0, 64, 127
2, 19876, Note_on_c, 0, 61, 0
2, 19918, Note_on_c, 0, 66, 0
2, 19926, Note_on_c, 0, 59, 0
2, 20228, Note_on_c, 0, 63, 0
2, 20240, Note_on_c, 0, 56, 20
2, 20249, Note_on_c, 0, 64, 42
2, 20256, Note_on_c, 0, 40, 18
2, 20378, Control_c, 0, 64, 0
2, 20446, Note_on_c, 0, 47, 0
2, 20732, Control_c, 0, 64, 127
2, 20748, Note_on_c, 0, 56, 0
2, 20920, Note_on_c, 0, 59, 14
2, 20923, Note_on_c, 0, 47, 11
2, 21118, Note_on_c, 0, 64, 0
2, 21142, Note_on_c, 0, 40, 0
2, 21390, Note_on_c, 0, 56, 22
2, 21406, Note_on_c, 0, 59, 0
2, 21618, Note_on_c, 0, 47, 0
2, 21878, Note_on_c, 0, 47, 19
2, 21880, Note_on_c, 0, 59, 15
2, 22009, Note_on_c, 0, 56, 0
2, 22084, Note_on_c, 0, 47, 0
2, 22614, Note_on_c, 0, 68, 32
2, 22642, Note_on_c, 0, 62, 16
2, 22646, Note_on_c, 0, 59, 0
2, 22656, Note_on_c, 0, 40, 32
2, 23122, Note_on_c, 0, 68, 0
2, 23136, Note_on_c, 0, 69, 47
2, 23180, Note_on_c, 0, 64, 31
2, 23182, Note_on_c, 0, 52, 31
2, 23184, Note_on_c, 0, 62, 0
2, 23368, Note_on_c, 0, 40, 0
2, 23554, Note_on_c, 0, 66, 57
2, 23594, Note_on_c, 0, 62, 32
2, 23628, Note_on_c, 0, 69, 0
2, 23704, Note_on_c, 0, 64, 0
2, 23774, Note_on_c, 0, 52, 0
2, 23934, Note_on_c, 0, 68, 69
2, 23978, Note_on_c, 0, 52, 38
2, 23988, Note_on_c, 0, 64, 26
2, 24014, Note_on_c, 0, 66, 0
2, 24056, Note_on_c, 0, 62, 0
2, 24332, Note_on_c, 0, 69, 63
2, 24346, Note_on_c, 0, 61, 38
2, 24364, Note_on_c, 0, 45, 34
2, 24368, Note_on_c, 0, 68, 0
2, 24384, Note_on_c, 0, 52, 0
2, 24480, Control_c, 0, 64, 0
2, 24560, Note_on_c, 0, 64, 0
2, 24694, Control_c, 0, 64, 127
2, 24760, Note_on_c, 0, 71, 78
2, 24766, Note_on_c, 0, 69, 0
2, 24806, Note_on_c, 0, 52, 44
2, 24808, Note_on_c, 0, 64, 24
2, 24832, Note_on_c, 0, 61, 0
2, 24962, Note_on_c, 0, 45, 0
2, 25148, Note_on_c, 0, 68, 78
2, 25180, Note_on_c, 0, 61, 27
2, 25198, Note_on_c, 0, 71, 0
2, 25232, Note_on_c, 0, 52, 0
2, 25388, Note_on_c, 0, 64, 0
2, 25538, Note_on_c, 0, 69, 73
2, 25564, Note_on_c, 0, 64, 48
2, 25567, Note_on_c, 0, 52, 45
2, 25580, Note_on_c, 0, 68, 0
2, 25610, Note_on_c, 0, 61, 0
2, 25806, Note_on_c, 0, 69, 0
2, 25822, Note_on_c, 0, 64, 0
2, 26008, Note_on_c, 0, 73, 66
2, 26034, Note_on_c, 0, 61, 38
2, 26056, Note_on_c, 0, 45, 37
2, 26078, Control_c, 0, 64, 0
2, 26102, Note_on_c, 0, 52, 0
2, 26416, Control_c, 0, 64, 127
2, 26482, Note_on_c, 0, 73, 0
2, 26598, Note_on_c, 0, 54, 31
2, 26608, Note_on_c, 0, 64, 42
2, 26820, Note_on_c, 0, 61, 0
2, 26844, Note_on_c, 0, 45, 0
2, 27044, Note_on_c, 0, 66, 62
2, 27070, Note_on_c, 0, 61, 38
2, 27168, Note_on_c, 0, 54, 0
2, 27496, Note_on_c, 0, 64, 41
2, 27496, Note_on_c, 0, 54, 29
2, 27508, Note_on_c, 0, 64, 0
2, 27732, Note_on_c, 0, 66, 0
2, 27876, Note_on_c, 0, 61, 0
2, 27892, Note_on_c, 0, 47, 34
2, 27895, Note_on_c, 0, 59, 40
2, 27962, Note_on_c, 0, 64, 0
2, 27968, Control_c, 0, 64, 0
2, 28276, Control_c, 0, 64, 127
2, 28279, Note_on_c, 0, 64, 51
2, 28286, Note_on_c, 0, 54, 0
2, 28290, Note_on_c, 0, 54, 34
2, 28606, Note_on_c, 0, 70, 49
2, 28616, Note_on_c, 0, 47, 0
2, 28636, Note_on_c, 0, 59, 0
2, 28644, Note_on_c, 0, 68, 67
2, 28668, Note_on_c, 0, 59, 49
2, 28680, Note_on_c, 0, 64, 0
2, 28922, Note_on_c, 0, 54, 0
2, 29068, Note_on_c, 0, 70, 0
2, 29070, Note_on_c, 0, 66, 65
2, 29098, Note_on_c, 0, 54, 40
2, 29118, Note_on_c, 0, 64, 39
2, 29156, Note_on_c, 0, 68, 0
2, 29430, Note_on_c, 0, 59, 0
2, 29462, Note_on_c, 0, 49, 43
2, 29474, Note_on_c, 0, 58, 33
2, 29506, Note_on_c, 0, 66, 0
2, 29520, Control_c, 0, 64, 0
2, 29580, Note_on_c, 0, 54, 0
2, 29842, Control_c, 0, 64, 127
2, 29940, Note_on_c, 0, 54, 29
2, 29954, Note_on_c, 0, 64, 44
2, 30062, Note_on_c, 0, 64, 0
2, 30264, Note_on_c, 0, 49, 0
2, 30310, Note_on_c, 0, 70, 44
2, 30382, Note_on_c, 0, 68, 61
2, 30402, Note_on_c, 0, 58, 28
2, 30422, Note_on_c, 0, 58, 0
2, 30446, Note_on_c, 0, 54, 0
2, 30558, Note_on_c, 0, 64, 0
2, 30762, Note_on_c, 0, 70, 0
2, 30806, Note_on_c, 0, 66, 69
2, 30836, Note_on_c, 0, 54, 38
2, 30846, Note_on_c, 0, 64, 46
2, 30856, Note_on_c, 0, 68, 0
2, 30914, Note_on_c, 0, 58, 0
2, 31152, Note_on_c, 0, 66, 0
2, 31430, Note_on_c, 0, 71, 67
2, 31444, Note_on_c, 0, 54, 0
2, 31444, Note_on_c, 0, 63, 41
2, 31444, Note_on_c, 0, 57, 33
2, 31454, Control_c, 0, 64, 0
2, 31484, Note_on_c, 0, 47, 28
2, 31540, Note_on_c, 0, 64, 0
2, 31808, Control_c, 0, 64, 127
2, 31822, Note_on_c, 0, 71, 0
2, 32076, Note_on_c, 0, 59, 38
2, 32086, Note_on_c, 0, 54, 24
2, 32250, Note_on_c, 0, 63, 0
2, 32406, Note_on_c, 0, 57, 0
2, 32572, Note_on_c, 0, 57, 27
2, 32792, Note_on_c, 0, 47, 0
2, 33124, Note_on_c, 0, 59, 24
2, 33134, Note_on_c, 0, 54, 14
2, 33226, Note_on_c, 0, 59, 0
2, 33274, Note_on_c, 0, 54, 0
2, 33328, Note_on_c, 0, 57, 0
2, 33346, Note_on_c, 0, 59, 0
2, 33426, Note_on_c, 0, 54, 0
2, 33902, Note_on_c, 0, 68, 24
2, 33912, Note_on_c, 0, 56, 24
2, 33912, Note_on_c, 0, 64, 43
2, 33918, Note_on_c, 0, 40, 30
2, 34068, Control_c, 0, 64, 0
2, 34360, Control_c, 0, 64, 127
2, 34572, Note_on_c, 0, 68, 0
2, 34712, Note_on_c, 0, 59, 28
2, 34726, Note_on_c, 0, 47, 20
2, 34970, Note_on_c, 0, 56, 0
2, 35224, Note_on_c, 0, 63, 62
2, 35234, Note_on_c, 0, 64, 0
2, 35244, Note_on_c, 0, 56, 15
2, 35266, Note_on_c, 0, 40, 0
2, 35302, Note_on_c, 0, 59, 0
2, 35572, Note_on_c, 0, 47, 0
2, 35684, Note_on_c, 0, 64, 73
2, 35706, Note_on_c, 0, 59, 35
2, 35712, Note_on_c, 0, 47, 26
2, 35742, Note_on_c, 0, 63, 0
2, 35822, Note_on_c, 0, 56, 0
2, 35880, Note_on_c, 0, 64, 0
2, 36038, Note_on_c, 0, 59, 0
2, 36132, Note_on_c, 0, 66, 52
2, 36146, Note_on_c, 0, 63, 41
2, 36149, Note_on_c, 0, 57, 37
2, 36174, Note_on_c, 0, 35, 36
2, 36184, Note_on_c, 0, 47, 0
2, 36187, Control_c, 0, 64, 0
2, 36588, Control_c, 0, 64, 127
2, 36600, Note_on_c, 0, 66, 0
2, 36600, Note_on_c, 0, 59, 34
2, 36624, Note_on_c, 0, 47, 24
2, 36986, Note_on_c, 0, 63, 0
2, 37008, Note_on_c, 0, 57, 0
2, 37050, Note_on_c, 0, 57, 22
2, 37440, Note_on_c, 0, 35, 0
2, 37490, Note_on_c, 0, 59, 0
2, 37518, Note_on_c, 0, 47, 27
2, 37524, Note_on_c, 0, 59, 28
2, 37956, Note_on_c, 0, 47, 0
2, 38018, Note_on_c, 0, 57, 0
2, 38112, Note_on_c, 0, 57, 20
2, 38115, Note_on_c, 0, 35, 18
2, 38320, Note_on_c, 0, 47, 0
2, 38418, Note_on_c, 0, 59, 0
2, 38426, Note_on_c, 0, 57, 0
2, 38676, Note_on_c, 0, 68, 61
2, 38722, Note_on_c, 0, 47, 19
2, 38730, Note_on_c, 0, 59, 14
2, 38944, Note_on_c, 0, 35, 0
2, 38972, Note_on_c, 0, 68, 0
2, 39190, Note_on_c, 0, 68, 57
2, 39218, Note_on_c, 0, 57, 20
2, 39226, Note_on_c, 0, 63, 31
2, 39316, Note_on_c, 0, 47, 0
2, 39426, Note_on_c, 0, 59, 0
2, 39670, Note_on_c, 0, 66, 41
2, 39700, Note_on_c, 0, 59, 27
2, 39730, Note_on_c, 0, 47, 20
2, 39733, Note_on_c, 0, 68, 0
2, 39894, Note_on_c, 0, 57, 0
2, 39900, Note_on_c, 0, 63, 0
2, 40202, Note_on_c, 0, 66, 0
2, 40290, Note_on_c, 0, 59, 0
2, 40298, Note_on_c, 0, 68, 38
2, 40306, Note_on_c, 0, 56, 17
2, 40342, Note_on_c, 0, 64, 23
2, 40342, Note_on_c, 0, 40, 27
2, 40366, Note_on_c, 0, 47, 0
2, 40412, Control_c, 0, 64, 0
2, 40736, Control_c, 0, 64, 127
2, 40824, Note_on_c, 0, 68, 0
2, 40890, Note_on_c, 0, 56, 0
2, 40960, Note_on_c, 0, 47, 15
2, 40960, Note_on_c, 0, 59, 26
2, 41190, Note_on_c, 0, 64, 0
2, 41366, Note_on_c, 0, 40, 0
2, 41406, Note_on_c, 0, 56, 24
2, 41656, Note_on_c, 0, 47, 0
2, 41840, Note_on_c, 0, 59, 27
2, 41848, Note_on_c, 0, 47, 21
2, 42030, Note_on_c, 0, 59, 0
2, 42232, Note_on_c, 0, 56, 0
2, 42292, Note_on_c, 0, 56, 31
2, 42314, Note_on_c, 0, 40, 27
2, 42382, Note_on_c, 0, 59, 0
2, 42392, Note_on_c, 0, 47, 0
2, 42470, Note_on_c, 0, 56, 0
2, 42732, Note_on_c, 0, 69, 47
2, 42750, Note_on_c, 0, 47, 30
2, 42764, Note_on_c, 0, 64, 29
2, 42938, Note_on_c, 0, 40, 0
2, 42974, Note_on_c, 0, 69, 0
2, 43172, Note_on_c, 0, 69, 75
2, 43206, Note_on_c, 0, 59, 38
2, 43220, Note_on_c, 0, 47, 0
2, 43470, Note_on_c, 0, 64, 0
2, 43598, Note_on_c, 0, 68, 79
2, 43634, Note_on_c, 0, 64, 34
2, 43636, Note_on_c, 0, 47, 29
2, 43638, Note_on_c, 0, 69, 0
2, 43696, Note_on_c, 0, 59, 0
2, 43778, Note_on_c, 0, 68, 0
2, 43868, Note_on_c, 0, 64, 0
2, 43940, Note_on_c, 0, 47, 0
2, 44128, Note_on_c, 0, 73, 71
2, 44188, Note_on_c, 0, 63, 28
2, 44196, Note_on_c, 0, 35, 35
2, 44224, Control_c, 0, 64, 0
2, 44624, Control_c, 0, 64, 127
2, 44694, Note_on_c, 0, 73, 0
2, 44756, Note_on_c, 0, 69, 23
2, 44782, Note_on_c, 0, 47, 23
2, 44832, Note_on_c, 0, 63, 0
2, 44919, Note_on_c, 0, 35, 0
2, 45052, Note_on_c, 0, 69, 0
2, 45268, Note_on_c, 0, 59, 25
2, 45370, Note_on_c, 0, 47, 0
2, 45698, Note_on_c, 0, 71, 68
2, 45716, Note_on_c, 0, 63, 31
2, 45740, Note_on_c, 0, 47, 19
2, 45950, Note_on_c, 0, 59, 0
2, 46190, Note_on_c, 0, 69, 41
2, 46206, Note_on_c, 0, 71, 0
2, 46226, Note_on_c, 0, 59, 18
2, 46230, Note_on_c, 0, 40, 33
2, 46260, Note_on_c, 0, 63, 0
2, 46350, Note_on_c, 0, 47, 0
2, 46452, Control_c, 0, 64, 0
2, 46674, Note_on_c, 0, 68, 44
2, 46704, Note_on_c, 0, 47, 24
2, 46712, Note_on_c, 0, 64, 27
2, 46720, Note_on_c, 0, 69, 0
2, 46758, Note_on_c, 0, 59, 0
2, 46890, Note_on_c, 0, 40, 0
2, 46912, Control_c, 0, 64, 127
2, 46932, Note_on_c, 0, 68, 0
2, 47086, Note_on_c, 0, 63, 50
2, 47086, Note_on_c, 0, 56, 39
2, 47168, Note_on_c, 0, 47, 0
2, 47266, Note_on_c, 0, 64, 0
2, 47502, Note_on_c, 0, 64, 62
2, 47526, Note_on_c, 0, 63, 0
2, 47534, Note_on_c, 0, 59, 30
2, 47542, Note_on_c, 0, 47, 23
2, 47702, Note_on_c, 0, 56, 0
2, 47746, Note_on_c, 0, 64, 0
2, 47784, Note_on_c, 0, 59, 0
2, 47810, Note_on_c, 0, 47, 0
2, 47988, Note_on_c, 0, 66, 42
2, 48008, Note_on_c, 0, 57, 25
2, 48014, Note_on_c, 0, 61, 28
2, 48014, Note_on_c, 0, 35, 30
2, 48096, Control_c, 0, 64, 0
2, 48410, Note_on_c, 0, 66, 0
2, 48444, Note_on_c, 0, 63, 30
2, 48454, Note_on_c, 0, 57, 0
2, 48468, Note_on_c, 0, 59, 27
2, 48506, Note_on_c, 0, 47, 21
2, 48634, Control_c, 0, 64, 127
2, 48788, Note_on_c, 0, 61, 0
2, 48791, Note_on_c, 0, 35, 0
2, 48820, Note_on_c, 0, 63, 0
2, 48854, Note_on_c, 0, 61, 28
2, 48864, Note_on_c, 0, 57, 20
2, 49156, Note_on_c, 0, 59, 0
2, 49294, Note_on_c, 0, 47, 0
2, 49300, Note_on_c, 0, 63, 22
2, 49320, Note_on_c, 0, 59, 12
2, 49328, Note_on_c, 0, 47, 13
2, 49414, Note_on_c, 0, 61, 0
2, 49514, Note_on_c, 0, 57, 0
2, 49648, Note_on_c, 0, 63, 0
2, 49760, Note_on_c, 0, 59, 0
2, 49774, Note_on_c, 0, 61, 23
2, 49788, Note_on_c, 0, 57, 19
2, 49806, Note_on_c, 0, 35, 27
2, 49986, Note_on_c, 0, 47, 0
2, 50070, Note_on_c, 0, 61, 0
2, 50122, Note_on_c, 0, 57, 0
2, 50416, Note_on_c, 0, 68, 41
2, 50446, Note_on_c, 0, 47, 20
2, 50464, Note_on_c, 0, 63, 10
2, 50468, Note_on_c, 0, 59, 3
2, 50570, Control_c, 0, 64, 0
2, 50720, Note_on_c, 0, 35, 0
2, 50728, Note_on_c, 0, 68, 0
2, 50738, Control_c, 0, 64, 127
2, 50972, Note_on_c, 0, 68, 40
2, 50994, Note_on_c, 0, 47, 0
2, 50994, Note_on_c, 0, 61, 30
2, 51008, Note_on_c, 0, 63, 0
2, 51014, Note_on_c, 0, 57, 11
2, 51224, Note_on_c, 0, 59, 0
2, 51312, Note_on_c, 0, 68, 0
2, 51514, Note_on_c, 0, 66, 33
2, 51532, Note_on_c, 0, 61, 0
2, 51538, Control_c, 0, 64, 0
2, 51540, Note_on_c, 0, 63, 23
2, 51544, Note_on_c, 0, 47, 18
2, 51548, Note_on_c, 0, 59, 22
2, 51752, Control_c, 0, 64, 127
2, 51770, Note_on_c, 0, 57, 0
2, 51780, Note_on_c, 0, 66, 0
2, 51830, Note_on_c, 0, 63, 0
2, 52044, Note_on_c, 0, 47, 0
2, 52106, Note_on_c, 0, 64, 38
2, 52108, Note_on_c, 0, 56, 11
2, 52134, Note_on_c, 0, 40, 23
2, 52198, Control_c, 0, 64, 0
2, 52244, Note_on_c, 0, 59, 0
2, 52598, Control_c, 0, 64, 127
2, 52648, Note_on_c, 0, 64, 0
2, 52764, Note_on_c, 0, 47, 20
2, 52767, Note_on_c, 0, 59, 13
2, 52806, Note_on_c, 0, 56, 0
2, 52952, Note_on_c, 0, 40, 0
2, 53000, Note_on_c, 0, 47, 0
2, 53254, Note_on_c, 0, 56, 19
2, 53450, Note_on_c, 0, 59, 0
2, 53650, Note_on_c, 0, 56, 0
2, 53680, Note_on_c, 0, 59, 22
2, 53710, Note_on_c, 0, 47, 17
2, 53786, Note_on_c, 0, 59, 0
2, 53818, Note_on_c, 0, 47, 0
2, 54350, Note_on_c, 0, 71, 51
2, 54382, Note_on_c, 0, 62, 14
2, 54388, Note_on_c, 0, 40, 31
2, 54390, Note_on_c, 0, 66, 8
2, 54624, Note_on_c, 0, 71, 0
2, 54696, Note_on_c, 0, 62, 0
2, 54868, Note_on_c, 0, 73, 57
2, 54896, Note_on_c, 0, 64, 33
2, 54896, Note_on_c, 0, 68, 30
2, 54899, Note_on_c, 0, 52, 35
2, 54904, Note_on_c, 0, 40, 0
2, 55044, Note_on_c, 0, 66, 0
2, 55086, Note_on_c, 0, 73, 0
2, 55108, Note_on_c, 0, 64, 0
2, 55286, Note_on_c, 0, 73, 68
2, 55312, Note_on_c, 0, 62, 39
2, 55328, Note_on_c, 0, 66, 22
2, 55336, Note_on_c, 0, 68, 0
2, 55484, Note_on_c, 0, 52, 0
2, 55530, Note_on_c, 0, 73, 0
2, 55556, Note_on_c, 0, 62, 0
2, 55676, Note_on_c, 0, 71, 82
2, 55696, Note_on_c, 0, 68, 33
2, 55708, Note_on_c, 0, 64, 39
2, 55724, Note_on_c, 0, 52, 31
2, 55786, Note_on_c, 0, 66, 0
2, 55796, Note_on_c, 0, 71, 0
2, 56024, Note_on_c, 0, 68, 0
2, 56082, Note_on_c, 0, 69, 58
2, 56082, Note_on_c, 0, 61, 44
2, 56106, Note_on_c, 0, 45, 29
2, 56128, Note_on_c, 0, 64, 0
2, 56178, Control_c, 0, 64, 0
2, 56268, Note_on_c, 0, 52, 0
2, 56454, Control_c, 0, 64, 127
2, 56474, Note_on_c, 0, 69, 0
2, 56528, Note_on_c, 0, 71, 64
2, 56562, Note_on_c, 0, 64, 35
2, 56568, Note_on_c, 0, 52, 36
2, 56586, Note_on_c, 0, 61, 0
2, 56906, Note_on_c, 0, 45, 0
2, 56908, Note_on_c, 0, 68, 61
2, 56914, Note_on_c, 0, 71, 0
2, 56936, Note_on_c, 0, 61, 32
2, 56942, Note_on_c, 0, 64, 0
2, 57054, Note_on_c, 0, 52, 0
2, 57222, Note_on_c, 0, 68, 0
2, 57262, Note_on_c, 0, 61, 0
2, 57294, Note_on_c, 0, 69, 46
2, 57306, Note_on_c, 0, 52, 49
2, 57309, Note_on_c, 0, 64, 38
2, 57358, Note_on_c, 0, 69, 0
2, 57364, Note_on_c, 0, 52, 0
2, 57394, Note_on_c, 0, 64, 0
2, 57756, Note_on_c, 0, 75, 51
2, 57776, Note_on_c, 0, 44, 56
2, 57782, Note_on_c, 0, 66, 14
2, 57786, Note_on_c, 0, 72, 28
2, 57822, Control_c, 0, 64, 0
2, 58068, Control_c, 0, 64, 127
2, 58096, Note_on_c, 0, 75, 0
2, 58248, Note_on_c, 0, 76, 65
2, 58258, Note_on_c, 0, 68, 35
2, 58272, Note_on_c, 0, 44, 0
2, 58290, Note_on_c, 0, 66, 0
2, 58306, Note_on_c, 0, 56, 33
2, 58480, Note_on_c, 0, 72, 0
2, 58480, Note_on_c, 0, 76, 0
2, 58632, Note_on_c, 0, 76, 72
2, 58640, Note_on_c, 0, 66, 51
2, 58664, Note_on_c, 0, 70, 32
2, 58742, Note_on_c, 0, 68, 0
2, 58745, Note_on_c, 0, 56, 0
2, 58842, Note_on_c, 0, 76, 0
2, 59016, Note_on_c, 0, 75, 76
2, 59030, Note_on_c, 0, 68, 42
2, 59032, Note_on_c, 0, 56, 50
2, 59038, Note_on_c, 0, 72, 57
2, 59040, Note_on_c, 0, 66, 0
2, 59102, Note_on_c, 0, 70, 0
2, 59220, Note_on_c, 0, 75, 0
2, 59254, Note_on_c, 0, 68, 0
2, 59378, Note_on_c, 0, 73, 72
2, 59390, Note_on_c, 0, 49, 59
2, 59402, Note_on_c, 0, 64, 52
2, 59408, Note_on_c, 0, 56, 0
2, 59528, Control_c, 0, 64, 0
2, 59654, Note_on_c, 0, 72, 0
2, 59766, Note_on_c, 0, 75, 72
2, 59778, Note_on_c, 0, 68, 49
2, 59826, Note_on_c, 0, 73, 0
2, 59828, Note_on_c, 0, 56, 34
2, 59834, Control_c, 0, 64, 127
2, 59962, Note_on_c, 0, 49, 0
2, 60088, Note_on_c, 0, 64, 0
2, 60142, Note_on_c, 0, 72, 73
2, 60150, Note_on_c, 0, 75, 0
2, 60153, Note_on_c, 0, 64, 49
2, 60194, Note_on_c, 0, 68, 0
2, 60408, Note_on_c, 0, 56, 0
2, 60410, Note_on_c, 0, 72, 0
2, 60438, Note_on_c, 0, 64, 0
2, 60538, Note_on_c, 0, 73, 70
2, 60546, Note_on_c, 0, 68, 50
2, 60558, Note_on_c, 0, 56, 34
2, 60666, Note_on_c, 0, 73, 0
2, 60678, Note_on_c, 0, 68, 0
2, 60730, Note_on_c, 0, 56, 0
2, 61002, Control_c, 0, 64, 0
2, 61010, Note_on_c, 0, 76, 71
2, 61020, Note_on_c, 0, 58, 29
2, 61026, Note_on_c, 0, 64, 50
2, 61030, Note_on_c, 0, 49, 30
2, 61032, Note_on_c, 0, 70, 32
2, 61036, Note_on_c, 0, 52, 44
2, 61042, Note_on_c, 0, 54, 34
2, 61234, Control_c, 0, 64, 127
2, 61242, Note_on_c, 0, 76, 0
2, 61242, Note_on_c, 0, 58, 0
2, 61250, Note_on_c, 0, 64, 0
2, 61252, Note_on_c, 0, 49, 0
2, 61272, Note_on_c, 0, 70, 0
2, 61286, Note_on_c, 0, 52, 0
2, 61324, Note_on_c, 0, 54, 0
2, 61446, Note_on_c, 0, 78, 79
2, 61446, Note_on_c, 0, 70, 41
2, 61454, Note_on_c, 0, 66, 52
2, 61460, Note_on_c, 0, 54, 31
2, 61462, Note_on_c, 0, 49, 42
2, 61463, Note_on_c, 0, 52, 51
2, 61466, Note_on_c, 0, 58, 38
2, 61532, Note_on_c, 0, 78, 0
2, 61548, Note_on_c, 0, 70, 0
2, 61602, Note_on_c, 0, 66, 0
2, 61620, Note_on_c, 0, 54, 0
2, 61636, Note_on_c, 0, 49, 0
2, 61642, Note_on_c, 0, 52, 0
2, 61656, Note_on_c, 0, 58, 0
2, 61822, Note_on_c, 0, 75, 86
2, 61834, Note_on_c, 0, 63, 75
2, 61837, Note_on_c, 0, 70, 46
2, 61837, Note_on_c, 0, 58, 46
2, 61844, Note_on_c, 0, 49, 54
2, 61850, Note_on_c, 0, 54, 56
2, 61853, Note_on_c, 0, 52, 60
2, 61932, Note_on_c, 0, 75, 0
2, 61974, Note_on_c, 0, 63, 0
2, 61982, Note_on_c, 0, 70, 0
2, 61992, Note_on_c, 0, 58, 0
2, 62006, Note_on_c, 0, 49, 0
2, 62020, Note_on_c, 0, 54, 0
2, 62048, Note_on_c, 0, 52, 0
2, 62184, Note_on_c, 0, 76, 94
2, 62194, Note_on_c, 0, 58, 55
2, 62194, Note_on_c, 0, 64, 89
2, 62194, Note_on_c, 0, 70, 62
2, 62194, Note_on_c, 0, 49, 59
2, 62214, Note_on_c, 0, 54, 53
2, 62220, Note_on_c, 0, 52, 55
2, 62284, Note_on_c, 0, 76, 0
2, 62338, Note_on_c, 0, 58, 0
2, 62348, Note_on_c, 0, 64, 0
2, 62348, Note_on_c, 0, 70, 0
2, 62392, Note_on_c, 0, 49, 0
2, 62406, Note_on_c, 0, 54, 0
2, 62430, Note_on_c, 0, 52, 0
2, 62538, Note_on_c, 0, 78, 98
2, 62550, Note_on_c, 0, 66, 73
2, 62554, Note_on_c, 0, 58, 50
2, 62554, Note_on_c, 0, 48, 63
2, 62556, Note_on_c, 0, 70, 59
2, 62558, Note_on_c, 0, 54, 55
2, 62558, Note_on_c, 0, 52, 64
2, 62570, Control_c, 0, 64, 0
2, 62740, Note_on_c, 0, 78, 0
2, 62764, Note_on_c, 0, 66, 0
2, 62778, Note_on_c, 0, 58, 0
2, 62780, Note_on_c, 0, 48, 0
2, 62782, Note_on_c, 0, 70, 0
2, 62790, Note_on_c, 0, 54, 0
2, 62800, Control_c, 0, 64, 127
2, 62834, Note_on_c, 0, 52, 0
2, 62924, Note_on_c, 0, 80, 100
2, 62936, Note_on_c, 0, 70, 68
2, 62940, Note_on_c, 0, 68, 78
2, 62940, Note_on_c, 0, 58, 46
2, 62946, Note_on_c, 0, 48, 58
2, 62958, Note_on_c, 0, 52, 54
2, 62958, Note_on_c, 0, 54, 47
2, 63028, Note_on_c, 0, 80, 0
2, 63046, Note_on_c, 0, 70, 0
2, 63050, Note_on_c, 0, 68, 0
2, 63094, Note_on_c, 0, 58, 0
2, 63108, Note_on_c, 0, 48, 0
2, 63142, Note_on_c, 0, 52, 0
2, 63168, Note_on_c, 0, 54, 0
2, 63310, Note_on_c, 0, 76, 98
2, 63316, Note_on_c, 0, 58, 50
2, 63320, Note_on_c, 0, 64, 87
2, 63328, Note_on_c, 0, 48, 57
2, 63331, Note_on_c, 0, 70, 43
2, 63338, Note_on_c, 0, 52, 50
2, 63344, Note_on_c, 0, 54, 42
2, 63414, Control_c, 0, 64, 0
2, 63548, Note_on_c, 0, 76, 0
2, 63554, Note_on_c, 0, 58, 0
2, 63556, Note_on_c, 0, 64, 0
2, 63560, Note_on_c, 0, 48, 0
2, 63562, Note_on_c, 0, 70, 0
2, 63568, Note_on_c, 0, 52, 0
2, 63584, Control_c, 0, 64, 127
2, 63626, Note_on_c, 0, 54, 0
2, 63736, Note_on_c, 0, 78, 100
2, 63752, Note_on_c, 0, 58, 52
2, 63755, Note_on_c, 0, 66, 66
2, 63755, Note_on_c, 0, 48, 62
2, 63760, Note_on_c, 0, 54, 43
2, 63766, Note_on_c, 0, 52, 48
2, 63774, Note_on_c, 0, 70, 44
2, 63824, Note_on_c, 0, 78, 0
2, 63840, Note_on_c, 0, 58, 0
2, 63866, Note_on_c, 0, 66, 0
2, 63880, Note_on_c, 0, 48, 0
2, 63896, Note_on_c, 0, 54, 0
2, 63904, Note_on_c, 0, 52, 0
2, 64054, Note_on_c, 0, 70, 0
2, 64338, Note_on_c, 0, 59, 67
2, 64340, Note_on_c, 0, 80, 96
2, 64346, Note_on_c, 0, 76, 55
2, 64348, Note_on_c, 0, 68, 70
2, 64348, Note_on_c, 0, 56, 50
2, 64354, Note_on_c, 0, 47, 54
2, 64362, Note_on_c, 0, 52, 61
2, 64368, Control_c, 0, 64, 0
2, 64844, Control_c, 0, 64, 127
2, 64886, Note_on_c, 0, 59, 0
2, 64932, Note_on_c, 0, 71, 54
2, 65380, Note_on_c, 0, 80, 0
2, 65406, Note_on_c, 0, 68, 36
2, 65688, Note_on_c, 0, 76, 0
2, 65846, Note_on_c, 0, 71, 41
2, 66094, Note_on_c, 0, 68, 0
2, 66292, Note_on_c, 0, 68, 34
2, 66348, Note_on_c, 0, 56, 0
2, 66872, Note_on_c, 0, 78, 70
2, 66886, Note_on_c, 0, 47, 0
2, 66902, Note_on_c, 0, 52, 0
2, 66932, Note_on_c, 0, 71, 20
2, 67328, Note_on_c, 0, 76, 72
2, 67344, Note_on_c, 0, 68, 30
2, 67364, Note_on_c, 0, 71, 0
2, 67444, Note_on_c, 0, 68, 0
2, 67596, Note_on_c, 0, 71, 0
2, 67722, Note_on_c, 0, 73, 73
2, 67756, Note_on_c, 0, 71, 47
2, 67759, Note_on_c, 0, 68, 0
2, 67838, Note_on_c, 0, 78, 0
2, 67894, Note_on_c, 0, 71, 0
2, 68130, Note_on_c, 0, 76, 0
2, 68154, Note_on_c, 0, 68, 0
2, 68196, Note_on_c, 0, 75, 64
2, 68232, Note_on_c, 0, 54, 34
2, 68240, Control_c, 0, 64, 0
2, 68242, Note_on_c, 0, 63, 24
2, 68364, Note_on_c, 0, 73, 0
2, 68596, Note_on_c, 0, 71, 0
2, 68608, Control_c, 0, 64, 127
2, 68654, Note_on_c, 0, 75, 0
2, 68754, Note_on_c, 0, 59, 23
2, 68756, Note_on_c, 0, 66, 23
2, 68940, Note_on_c, 0, 54, 0
2, 69148, Note_on_c, 0, 63, 0
2, 69210, Note_on_c, 0, 63, 20
2, 69238, Note_on_c, 0, 59, 0
2, 69260, Note_on_c, 0, 47, 15
2, 69452, Note_on_c, 0, 66, 0
2, 69642, Note_on_c, 0, 66, 17
2, 69674, Note_on_c, 0, 59, 18
2, 69762, Note_on_c, 0, 63, 0
2, 69810, Note_on_c, 0, 47, 0
2, 69818, Note_on_c, 0, 66, 0
2, 69872, Note_on_c, 0, 59, 0
2, 70228, Note_on_c, 0, 76, 41
2, 70252, Note_on_c, 0, 49, 28
2, 70258, Note_on_c, 0, 64, 31
2, 70314, Control_c, 0, 64, 0
2, 70590, Control_c, 0, 64, 127
2, 70702, Note_on_c, 0, 76, 0
2, 70724, Note_on_c, 0, 75, 55
2, 70732, Note_on_c, 0, 68, 26
2, 70764, Note_on_c, 0, 56, 20
2, 70792, Note_on_c, 0, 49, 0
2, 70976, Note_on_c, 0, 64, 0
2, 70990, Note_on_c, 0, 75, 0
2, 71010, Note_on_c, 0, 68, 0
2, 71144, Note_on_c, 0, 73, 56
2, 71182, Note_on_c, 0, 44, 27
2, 71204, Note_on_c, 0, 64, 31
2, 71470, Note_on_c, 0, 56, 0
2, 71566, Note_on_c, 0, 68, 62
2, 71574, Note_on_c, 0, 73, 0
2, 71624, Note_on_c, 0, 56, 23
2, 71760, Note_on_c, 0, 44, 0
2, 71930, Note_on_c, 0, 64, 0
2, 72040, Note_on_c, 0, 71, 62
2, 72050, Control_c, 0, 64, 0
2, 72060, Note_on_c, 0, 59, 31
2, 72076, Note_on_c, 0, 68, 0
2, 72090, Note_on_c, 0, 51, 25
2, 72464, Control_c, 0, 64, 127
2, 72532, Note_on_c, 0, 56, 0
2, 72544, Note_on_c, 0, 63, 26
2, 72556, Note_on_c, 0, 71, 0
2, 72578, Note_on_c, 0, 56, 15
2, 72754, Note_on_c, 0, 59, 0
2, 72808, Note_on_c, 0, 51, 0
2, 72986, Note_on_c, 0, 59, 23
2, 72992, Note_on_c, 0, 44, 23
2, 73078, Note_on_c, 0, 63, 0
2, 73258, Note_on_c, 0, 56, 0
2, 73426, Note_on_c, 0, 63, 31
2, 73464, Note_on_c, 0, 56, 9
2, 73478, Note_on_c, 0, 59, 0
2, 73550, Note_on_c, 0, 44, 0
2, 73584, Note_on_c, 0, 63, 0
2, 73590, Note_on_c, 0, 56, 0
2, 74088, Note_on_c, 0, 73, 36
2, 74118, Note_on_c, 0, 61, 14
2, 74140, Note_on_c, 0, 45, 18
2, 74154, Control_c, 0, 64, 0
2, 74462, Control_c, 0, 64, 127
2, 74526, Note_on_c, 0, 73, 0
2, 74640, Note_on_c, 0, 61, 0
2, 74756, Note_on_c, 0, 71, 32
2, 74796, Note_on_c, 0, 52, 15
2, 74816, Note_on_c, 0, 64, 10
2, 74918, Note_on_c, 0, 45, 0
2, 74960, Note_on_c, 0, 71, 0
2, 75258, Note_on_c, 0, 61, 17
2, 75260, Note_on_c, 0, 69, 27
2, 75306, Note_on_c, 0, 40, 29
2, 75320, Note_on_c, 0, 52, 0
2, 75540, Note_on_c, 0, 64, 0
2, 75664, Note_on_c, 0, 61, 0
2, 75728, Note_on_c, 0, 64, 40
2, 75752, Note_on_c, 0, 52, 24
2, 75920, Note_on_c, 0, 69, 0
2, 76010, Note_on_c, 0, 40, 0
2, 76130, Note_on_c, 0, 64, 0
2, 76386, Note_on_c, 0, 68, 43
2, 76396, Note_on_c, 0, 56, 25
2, 76422, Note_on_c, 0, 47, 23
2, 76430, Control_c, 0, 64, 0
2, 77010, Note_on_c, 0, 52, 0
2, 77040, Note_on_c, 0, 59, 25
2, 77046, Note_on_c, 0, 52, 24
2, 77058, Control_c, 0, 64, 127
2, 77110, Note_on_c, 0, 68, 0
2, 77196, Note_on_c, 0, 56, 0
2, 77258, Note_on_c, 0, 47, 0
2, 77508, Note_on_c, 0, 59, 0
2, 77514, Note_on_c, 0, 56, 17
2, 77522, Note_on_c, 0, 40, 32
2, 77718, Note_on_c, 0, 52, 0
2, 77870, Note_on_c, 0, 56, 0
2, 77954, Note_on_c, 0, 59, 23
2, 77960, Note_on_c, 0, 52, 21
2, 78064, Note_on_c, 0, 40, 0
2, 78066, Note_on_c, 0, 59, 0
2, 78342, Note_on_c, 0, 56, 18
2, 78374, Note_on_c, 0, 47, 10
2, 78542, Note_on_c, 0, 52, 0
2, 78580, Note_on_c, 0, 56, 0
2, 78808, Note_on_c, 0, 59, 10
2, 78808, Note_on_c, 0, 52, 9
2, 78910, Note_on_c, 0, 47, 0
2, 78980, Note_on_c, 0, 59, 0
2, 79204, Note_on_c, 0, 56, 7
2, 79244, Note_on_c, 0, 40, 20
2, 79434, Note_on_c, 0, 52, 0
2, 79444, Note_on_c, 0, 56, 0
2, 79746, Note_on_c, 0, 59, 17
2, 79778, Note_on_c, 0, 47, 12
2, 79958, Note_on_c, 0, 40, 0
2, 79968, Note_on_c, 0, 59, 0
2, 80136, Note_on_c, 0, 47, 2
2, 80526, Note_on_c, 0, 56, 10
2, 80546, Note_on_c, 0, 52, 12
2, 80666, Note_on_c, 0, 40, 2
2, 80702, Note_on_c, 0, 47, 0
2, 81296, Note_on_c, 0, 68, 17
2, 81654, Note_on_c, 0, 47, 0
2, 81730, Note_on_c, 0, 66, 3
2, 81952, Note_on_c, 0, 56, 0
2, 82292, Note_on_c, 0, 64, 19
2, 83296, Note_on_c, 0, 52, 0
2, 83428, Note_on_c, 0, 40, 0
2, 83862, Note_on_c, 0, 68, 0
2, 83958, Note_on_c, 0, 66, 0
2, 83966, Note_on_c, 0, 64, 0
2, 84124, Note_on_c, 0, 68, 24
2, 84124, Note_on_c, 0, 76, 34
2, 84280, Control_c, 0, 64, 0
2, 84512, Note_on_c, 0, 75, 41
2, 84517, Note_on_c, 0, 68, 0
2, 84530, Note_on_c, 0, 76, 0
2, 84532, Note_on_c, 0, 66, 20
2, 84572, Control_c, 0, 64, 127
2, 84728, Note_on_c, 0, 75, 0
2, 84812, Note_on_c, 0, 68, 34
2, 84814, Note_on_c, 0, 66, 0
2, 84818, Note_on_c, 0, 76, 34
2, 85100, Note_on_c, 0, 68, 0
2, 85116, Note_on_c, 0, 71, 53
2, 85120, Note_on_c, 0, 76, 0
2, 85130, Note_on_c, 0, 63, 28
2, 85292, Note_on_c, 0, 71, 0
2, 85382, Note_on_c, 0, 63, 0
2, 85400, Note_on_c, 0, 75, 47
2, 85402, Control_c, 0, 64, 0
2, 85426, Note_on_c, 0, 42, 24
2, 85432, Note_on_c, 0, 66, 24
2, 85568, Note_on_c, 0, 75, 0
2, 85572, Control_c, 0, 64, 127
2, 85706, Note_on_c, 0, 73, 52
2, 85711, Note_on_c, 0, 42, 0
2, 85716, Note_on_c, 0, 64, 42
2, 85726, Note_on_c, 0, 58, 22
2, 85738, Note_on_c, 0, 66, 0
2, 85804, Note_on_c, 0, 73, 0
2, 85952, Note_on_c, 0, 64, 0
2, 85976, Note_on_c, 0, 75, 62
2, 85990, Note_on_c, 0, 58, 0
2, 85996, Note_on_c, 0, 66, 30
2, 86018, Note_on_c, 0, 42, 28
2, 86032, Control_c, 0, 64, 0
2, 86170, Control_c, 0, 64, 127
2, 86178, Note_on_c, 0, 75, 0
2, 86218, Note_on_c, 0, 66, 0
2, 86244, Note_on_c, 0, 68, 57
2, 86248, Note_on_c, 0, 63, 52
2, 86284, Note_on_c, 0, 59, 33
2, 86316, Note_on_c, 0, 42, 0
2, 86338, Note_on_c, 0, 68, 0
2, 86350, Note_on_c, 0, 63, 0
2, 86484, Note_on_c, 0, 71, 71
2, 86506, Note_on_c, 0, 64, 52
2, 86509, Control_c, 0, 64, 0
2, 86520, Note_on_c, 0, 59, 0
2, 86536, Note_on_c, 0, 42, 47
2, 86644, Note_on_c, 0, 71, 0
2, 86662, Control_c, 0, 64, 127
2, 86756, Note_on_c, 0, 70, 60
2, 86782, Note_on_c, 0, 61, 55
2, 86800, Note_on_c, 0, 64, 0
2, 86858, Note_on_c, 0, 42, 0
2, 86868, Note_on_c, 0, 70, 0
2, 87010, Note_on_c, 0, 73, 58
2, 87012, Note_on_c, 0, 68, 57
2, 87048, Note_on_c, 0, 59, 33
2, 87051, Note_on_c, 0, 61, 0
2, 87128, Note_on_c, 0, 73, 0
2, 87220, Note_on_c, 0, 68, 0
2, 87234, Note_on_c, 0, 59, 0
2, 87254, Note_on_c, 0, 66, 64
2, 87280, Note_on_c, 0, 58, 31
2, 87386, Note_on_c, 0, 66, 0
2, 87434, Note_on_c, 0, 58, 0
2, 87470, Note_on_c, 0, 70, 44
2, 87502, Note_on_c, 0, 68, 53
2, 87508, Control_c, 0, 64, 0
2, 87520, Note_on_c, 0, 64, 59
2, 87536, Note_on_c, 0, 47, 25
2, 87628, Note_on_c, 0, 70, 0
2, 87738, Note_on_c, 0, 68, 0
2, 87752, Control_c, 0, 64, 127
2, 87782, Note_on_c, 0, 63, 42
2, 87794, Note_on_c, 0, 66, 47
2, 87802, Note_on_c, 0, 64, 0
2, 87804, Note_on_c, 0, 54, 37
2, 87812, Note_on_c, 0, 47, 0
2, 87936, Note_on_c, 0, 63, 0
2, 88034, Note_on_c, 0, 66, 0
2, 88076, Note_on_c, 0, 70, 42
2, 88134, Note_on_c, 0, 54, 0
2, 88136, Control_c, 0, 64, 0
2, 88139, Note_on_c, 0, 68, 36
2, 88148, Note_on_c, 0, 64, 39
2, 88158, Note_on_c, 0, 59, 31
2, 88202, Note_on_c, 0, 70, 0
2, 88534, Note_on_c, 0, 68, 0
2, 88544, Note_on_c, 0, 64, 0
2, 88558, Note_on_c, 0, 66, 33
2, 88562, Note_on_c, 0, 63, 31
2, 88634, Note_on_c, 0, 59, 0
2, 88752, Control_c, 0, 64, 127
2, 88786, Note_on_c, 0, 66, 0
2, 88824, Note_on_c, 0, 63, 0
2, 89030, Note_on_c, 0, 76, 44
2, 89042, Note_on_c, 0, 68, 28
2, 89106, Control_c, 0, 64, 0
2, 89336, Control_c, 0, 64, 127
2, 89372, Note_on_c, 0, 76, 0
2, 89382, Note_on_c, 0, 75, 59
2, 89386, Note_on_c, 0, 66, 22
2, 89422, Note_on_c, 0, 68, 0
2, 89606, Note_on_c, 0, 75, 0
2, 89664, Note_on_c, 0, 68, 46
2, 89672, Note_on_c, 0, 66, 0
2, 89676, Note_on_c, 0, 76, 61
2, 89688, Control_c, 0, 64, 0
2, 89828, Control_c, 0, 64, 127
2, 89914, Note_on_c, 0, 68, 0
2, 89938, Note_on_c, 0, 63, 49
2, 89938, Note_on_c, 0, 71, 67
2, 89990, Note_on_c, 0, 76, 0
2, 90020, Note_on_c, 0, 63, 0
2, 90178, Note_on_c, 0, 71, 0
2, 90194, Note_on_c, 0, 75, 61
2, 90194, Control_c, 0, 64, 0
2, 90216, Note_on_c, 0, 66, 31
2, 90222, Note_on_c, 0, 42, 33
2, 90358, Note_on_c, 0, 75, 0
2, 90366, Control_c, 0, 64, 127
2, 90390, Note_on_c, 0, 66, 0
2, 90462, Note_on_c, 0, 73, 64
2, 90472, Note_on_c, 0, 64, 49
2, 90480, Note_on_c, 0, 58, 27
2, 90482, Note_on_c, 0, 42, 0
2, 90554, Note_on_c, 0, 73, 0
2, 90630, Note_on_c, 0, 64, 0
2, 90718, Note_on_c, 0, 75, 69
2, 90720, Control_c, 0, 64, 0
2, 90738, Note_on_c, 0, 58, 0
2, 90741, Note_on_c, 0, 66, 38
2, 90762, Note_on_c, 0, 42, 41
2, 90844, Note_on_c, 0, 75, 0
2, 90880, Note_on_c, 0, 66, 0
2, 90888, Control_c, 0, 64, 127
2, 90970, Note_on_c, 0, 68, 63
2, 90976, Note_on_c, 0, 63, 47
2, 90992, Note_on_c, 0, 59, 36
2, 91050, Note_on_c, 0, 42, 0
2, 91056, Note_on_c, 0, 68, 0
2, 91080, Note_on_c, 0, 63, 0
2, 91194, Control_c, 0, 64, 0
2, 91212, Note_on_c, 0, 71, 64
2, 91224, Note_on_c, 0, 64, 56
2, 91230, Note_on_c, 0, 42, 44
2, 91240, Note_on_c, 0, 59, 0
2, 91294, Note_on_c, 0, 71, 0
2, 91364, Control_c, 0, 64, 127
2, 91440, Note_on_c, 0, 64, 0
2, 91450, Note_on_c, 0, 70, 53
2, 91470, Note_on_c, 0, 42, 0
2, 91484, Note_on_c, 0, 61, 45
2, 91560, Note_on_c, 0, 70, 0
2, 91694, Note_on_c, 0, 61, 0
2, 91710, Note_on_c, 0, 68, 48
2, 91713, Note_on_c, 0, 73, 42
2, 91732, Control_c, 0, 64, 0
2, 91734, Note_on_c, 0, 59, 38
2, 91874, Note_on_c, 0, 68, 0
2, 91902, Control_c, 0, 64, 127
2, 91932, Note_on_c, 0, 73, 0
2, 91986, Note_on_c, 0, 59, 0
2, 92004, Note_on_c, 0, 66, 41
2, 92014, Note_on_c, 0, 58, 27
2, 92120, Note_on_c, 0, 66, 0
2, 92138, Note_on_c, 0, 58, 0
2, 92248, Note_on_c, 0, 70, 35
2, 92270, Control_c, 0, 64, 0
2, 92288, Note_on_c, 0, 68, 34
2, 92294, Note_on_c, 0, 64, 50
2, 92298, Note_on_c, 0, 47, 23
2, 92368, Note_on_c, 0, 70, 0
2, 92516, Control_c, 0, 64, 127
2, 92526, Note_on_c, 0, 68, 0
2, 92528, Note_on_c, 0, 64, 0
2, 92588, Note_on_c, 0, 47, 0
2, 92591, Note_on_c, 0, 63, 41
2, 92591, Control_c, 0, 64, 0
2, 92591, Note_on_c, 0, 66, 34
2, 92600, Note_on_c, 0, 54, 34
2, 92778, Control_c, 0, 64, 127
2, 92780, Note_on_c, 0, 63, 0
2, 92806, Note_on_c, 0, 66, 0
2, 92822, Note_on_c, 0, 54, 0
2, 92844, Note_on_c, 0, 70, 32
2, 92906, Note_on_c, 0, 68, 31
2, 92922, Note_on_c, 0, 70, 0
2, 92936, Note_on_c, 0, 64, 25
2, 92952, Note_on_c, 0, 59, 26
2, 92962, Control_c, 0, 64, 0
2, 93342, Note_on_c, 0, 68, 0
2, 93345, Note_on_c, 0, 64, 0
2, 93380, Note_on_c, 0, 59, 0
2, 93382, Note_on_c, 0, 63, 24
2, 93386, Note_on_c, 0, 66, 24
2, 93392, Control_c, 0, 64, 127
2, 93496, Note_on_c, 0, 63, 0
2, 93558, Note_on_c, 0, 66, 0
2, 93760, Control_c, 0, 64, 0
2, 93812, Note_on_c, 0, 78, 57
2, 93826, Note_on_c, 0, 69, 29
2, 93992, Control_c, 0, 64, 127
2, 94010, Note_on_c, 0, 78, 0
2, 94042, Note_on_c, 0, 69, 0
2, 94172, Note_on_c, 0, 68, 42
2, 94175, Note_on_c, 0, 76, 53
2, 94330, Control_c, 0, 64, 0
2, 94444, Note_on_c, 0, 68, 0
2, 94448, Note_on_c, 0, 78, 61
2, 94452, Control_c, 0, 64, 127
2, 94454, Note_on_c, 0, 76, 0
2, 94468, Note_on_c, 0, 69, 40
2, 94544, Note_on_c, 0, 78, 0
2, 94704, Note_on_c, 0, 69, 0
2, 94718, Note_on_c, 0, 73, 60
2, 94736, Note_on_c, 0, 64, 44
2, 94792, Note_on_c, 0, 73, 0
2, 94954, Note_on_c, 0, 64, 0
2, 94959, Control_c, 0, 64, 0
2, 94976, Note_on_c, 0, 76, 60
2, 94986, Note_on_c, 0, 68, 46
2, 95000, Note_on_c, 0, 44, 36
2, 95062, Note_on_c, 0, 76, 0
2, 95070, Note_on_c, 0, 68, 0
2, 95128, Control_c, 0, 64, 127
2, 95220, Note_on_c, 0, 75, 68
2, 95225, Note_on_c, 0, 66, 37
2, 95246, Note_on_c, 0, 44, 0
2, 95260, Note_on_c, 0, 60, 12
2, 95312, Note_on_c, 0, 75, 0
2, 95315, Note_on_c, 0, 66, 0
2, 95448, Note_on_c, 0, 76, 74
2, 95456, Note_on_c, 0, 68, 47
2, 95458, Control_c, 0, 64, 0
2, 95466, Note_on_c, 0, 60, 0
2, 95468, Note_on_c, 0, 44, 56
2, 95534, Note_on_c, 0, 76, 0
2, 95590, Note_on_c, 0, 68, 0
2, 95606, Note_on_c, 0, 44, 0
2, 95620, Control_c, 0, 64, 127
2, 95680, Note_on_c, 0, 70, 65
2, 95686, Note_on_c, 0, 64, 47
2, 95690, Note_on_c, 0, 61, 46
2, 95746, Note_on_c, 0, 70, 0
2, 95749, Note_on_c, 0, 64, 0
2, 95896, Control_c, 0, 64, 0
2, 95924, Note_on_c, 0, 73, 64
2, 95934, Note_on_c, 0, 66, 52
2, 95956, Note_on_c, 0, 61, 0
2, 95958, Note_on_c, 0, 44, 61
2, 96052, Note_on_c, 0, 73, 0
2, 96096, Control_c, 0, 64, 127
2, 96164, Note_on_c, 0, 72, 67
2, 96184, Note_on_c, 0, 66, 0
2, 96208, Note_on_c, 0, 63, 50
2, 96246, Note_on_c, 0, 44, 0
2, 96322, Note_on_c, 0, 72, 0
2, 96408, Note_on_c, 0, 75, 68
2, 96422, Note_on_c, 0, 63, 0
2, 96422, Note_on_c, 0, 69, 51
2, 96444, Note_on_c, 0, 61, 44
2, 96506, Note_on_c, 0, 75, 0
2, 96514, Note_on_c, 0, 69, 0
2, 96634, Note_on_c, 0, 61, 0
2, 96640, Note_on_c, 0, 68, 68
2, 96664, Note_on_c, 0, 60, 49
2, 96742, Note_on_c, 0, 68, 0
2, 96748, Note_on_c, 0, 60, 0
2, 96830, Note_on_c, 0, 71, 69
2, 96850, Control_c, 0, 64, 0
2, 96872, Note_on_c, 0, 66, 52
2, 96878, Note_on_c, 0, 69, 57
2, 96886, Note_on_c, 0, 49, 39
2, 96968, Note_on_c, 0, 71, 0
2, 97030, Note_on_c, 0, 66, 0
2, 97080, Control_c, 0, 64, 127
2, 97143, Note_on_c, 0, 68, 62
2, 97150, Note_on_c, 0, 64, 62
2, 97156, Note_on_c, 0, 56, 32
2, 97162, Note_on_c, 0, 69, 0
2, 97192, Note_on_c, 0, 49, 0
2, 97262, Note_on_c, 0, 68, 0
2, 97278, Note_on_c, 0, 64, 0
2, 97278, Note_on_c, 0, 56, 0
2, 97412, Note_on_c, 0, 71, 64
2, 97476, Note_on_c, 0, 61, 24
2, 97479, Note_on_c, 0, 66, 37
2, 97488, Note_on_c, 0, 71, 0
2, 97488, Note_on_c, 0, 69, 44
2, 97510, Control_c, 0, 64, 0
2, 97786, Control_c, 0, 64, 127
2, 97804, Note_on_c, 0, 61, 0
2, 97816, Note_on_c, 0, 68, 47
2, 97820, Note_on_c, 0, 66, 0
2, 97822, Note_on_c, 0, 64, 38
2, 97824, Note_on_c, 0, 69, 0
2, 97882, Note_on_c, 0, 68, 0
2, 97946, Note_on_c, 0, 64, 0
2, 98094, Control_c, 0, 64, 0
2, 98106, Note_on_c, 0, 78, 72
2, 98128, Note_on_c, 0, 69, 38
2, 98248, Control_c, 0, 64, 127
2, 98260, Note_on_c, 0, 78, 0
2, 98324, Note_on_c, 0, 69, 0
2, 98400, Note_on_c, 0, 68, 58
2, 98408, Note_on_c, 0, 76, 62
2, 98456, Note_on_c, 0, 68, 0
2, 98644, Note_on_c, 0, 78, 72
2, 98658, Note_on_c, 0, 69, 48
2, 98668, Note_on_c, 0, 76, 0
2, 98728, Note_on_c, 0, 78, 0
2, 98764, Note_on_c, 0, 69, 0
2, 98878, Note_on_c, 0, 73, 71
2, 98890, Note_on_c, 0, 64, 67
2, 98938, Note_on_c, 0, 73, 0
2, 99062, Note_on_c, 0, 64, 0
2, 99108, Control_c, 0, 64, 0
2, 99122, Note_on_c, 0, 68, 52
2, 99125, Note_on_c, 0, 76, 68
2, 99125, Note_on_c, 0, 44, 50
2, 99192, Note_on_c, 0, 68, 0
2, 99194, Note_on_c, 0, 76, 0
2, 99292, Control_c, 0, 64, 127
2, 99348, Note_on_c, 0, 75, 69
2, 99358, Note_on_c, 0, 66, 44
2, 99368, Note_on_c, 0, 60, 39
2, 99374, Note_on_c, 0, 44, 0
2, 99426, Note_on_c, 0, 75, 0
2, 99432, Note_on_c, 0, 66, 0
2, 99576, Note_on_c, 0, 76, 71
2, 99580, Note_on_c, 0, 68, 50
2, 99594, Note_on_c, 0, 60, 0
2, 99598, Note_on_c, 0, 44, 54
2, 99650, Note_on_c, 0, 76, 0
2, 99724, Note_on_c, 0, 68, 0
2, 99798, Note_on_c, 0, 44, 0
2, 99800, Note_on_c, 0, 70, 69
2, 99806, Note_on_c, 0, 61, 54
2, 99814, Note_on_c, 0, 64, 51
2, 99860, Note_on_c, 0, 70, 0
2, 99866, Note_on_c, 0, 61, 0
2, 100014, Control_c, 0, 64, 0
2, 100044, Note_on_c, 0, 73, 64
2, 100052, Note_on_c, 0, 66, 55
2, 100056, Note_on_c, 0, 44, 68
2, 100090, Note_on_c, 0, 64, 0
2, 100132, Note_on_c, 0, 73, 0
2, 100214, Control_c, 0, 64, 127
2, 100294, Note_on_c, 0, 72, 73
2, 100304, Note_on_c, 0, 63, 62
2, 100314, Note_on_c, 0, 66, 0
2, 100342, Note_on_c, 0, 44, 0
2, 100378, Note_on_c, 0, 72, 0
2, 100504, Note_on_c, 0, 63, 0
2, 100528, Note_on_c, 0, 75, 67
2, 100544, Note_on_c, 0, 69, 50
2, 100558, Note_on_c, 0, 61, 54
2, 100612, Note_on_c, 0, 75, 0
2, 100620, Note_on_c, 0, 69, 0
2, 100698, Note_on_c, 0, 61, 0
2, 100754, Note_on_c, 0, 68, 65
2, 100772, Note_on_c, 0, 60, 61
2, 100824, Note_on_c, 0, 68, 0
2, 100868, Note_on_c, 0, 60, 0
2, 100948, Note_on_c, 0, 71, 66
2, 100996, Note_on_c, 0, 69, 62
2, 100996, Control_c, 0, 64, 0
2, 101004, Note_on_c, 0, 66, 46
2, 101012, Note_on_c, 0, 49, 54
2, 101086, Note_on_c, 0, 71, 0
2, 101102, Note_on_c, 0, 69, 0
2, 101229, Control_c, 0, 64, 127
2, 101282, Note_on_c, 0, 68, 62
2, 101284, Note_on_c, 0, 64, 59
2, 101302, Note_on_c, 0, 66, 0
2, 101302, Note_on_c, 0, 56, 43
2, 101326, Note_on_c, 0, 49, 0
2, 101360, Note_on_c, 0, 68, 0
2, 101520, Note_on_c, 0, 64, 0
2, 101524, Note_on_c, 0, 71, 66
2, 101536, Note_on_c, 0, 56, 0
2, 101548, Note_on_c, 0, 69, 63
2, 101551, Note_on_c, 0, 66, 44
2, 101556, Note_on_c, 0, 61, 54
2, 101674, Note_on_c, 0, 71, 0
2, 101702, Note_on_c, 0, 69, 0
2, 101734, Note_on_c, 0, 66, 0
2, 101770, Note_on_c, 0, 68, 70
2, 101778, Note_on_c, 0, 64, 66
2, 101784, Note_on_c, 0, 49, 64
2, 101788, Note_on_c, 0, 61, 0
2, 101872, Note_on_c, 0, 68, 0
2, 101920, Note_on_c, 0, 64, 0
2, 101920, Note_on_c, 0, 49, 0
2, 101934, Control_c, 0, 64, 0
2, 101962, Note_on_c, 0, 71, 78
2, 101984, Note_on_c, 0, 69, 82
2, 102000, Note_on_c, 0, 66, 51
2, 102014, Note_on_c, 0, 47, 63
2, 102098, Note_on_c, 0, 71, 0
2, 102126, Note_on_c, 0, 69, 0
2, 102150, Control_c, 0, 64, 127
2, 102220, Note_on_c, 0, 66, 0
2, 102228, Note_on_c, 0, 68, 78
2, 102232, Note_on_c, 0, 64, 75
2, 102264, Note_on_c, 0, 62, 51
2, 102270, Note_on_c, 0, 47, 0
2, 102314, Note_on_c, 0, 68, 0
2, 102444, Note_on_c, 0, 64, 0
2, 102482, Note_on_c, 0, 69, 73
2, 102482, Note_on_c, 0, 66, 64
2, 102502, Note_on_c, 0, 52, 71
2, 102512, Note_on_c, 0, 62, 0
2, 102548, Note_on_c, 0, 69, 0
2, 102574, Note_on_c, 0, 66, 0
2, 102600, Note_on_c, 0, 52, 0
2, 102756, Note_on_c, 0, 68, 67
2, 102756, Note_on_c, 0, 71, 89
2, 102778, Note_on_c, 0, 47, 43
2, 102832, Note_on_c, 0, 68, 0
2, 102882, Note_on_c, 0, 71, 0
2, 102906, Note_on_c, 0, 47, 0
2, 103138, Note_on_c, 0, 69, 64
2, 103138, Note_on_c, 0, 73, 78
2, 103148, Control_c, 0, 64, 0
2, 103150, Note_on_c, 0, 45, 54
2, 103440, Control_c, 0, 64, 127
2, 103448, Note_on_c, 0, 61, 62
2, 103451, Note_on_c, 0, 64, 65
2, 103462, Note_on_c, 0, 69, 0
2, 103464, Note_on_c, 0, 52, 65
2, 103508, Note_on_c, 0, 73, 0
2, 103554, Note_on_c, 0, 45, 0
2, 103582, Note_on_c, 0, 61, 0
2, 103588, Note_on_c, 0, 64, 0
2, 103650, Note_on_c, 0, 52, 0
2, 103712, Note_on_c, 0, 66, 62
2, 103716, Note_on_c, 0, 62, 75
2, 103736, Note_on_c, 0, 52, 67
2, 103788, Note_on_c, 0, 66, 0
2, 103958, Note_on_c, 0, 73, 68
2, 103958, Note_on_c, 0, 69, 60
2, 103964, Note_on_c, 0, 40, 84
2, 104006, Note_on_c, 0, 62, 0
2, 104030, Note_on_c, 0, 52, 0
2, 104082, Note_on_c, 0, 73, 0
2, 104128, Note_on_c, 0, 69, 0
2, 104136, Note_on_c, 0, 40, 0
2, 104204, Note_on_c, 0, 71, 84
2, 104208, Note_on_c, 0, 68, 58
2, 104232, Note_on_c, 0, 47, 56
2, 104316, Control_c, 0, 64, 0
2, 104440, Note_on_c, 0, 66, 59
2, 104446, Note_on_c, 0, 62, 58
2, 104446, Note_on_c, 0, 52, 69
2, 104510, Note_on_c, 0, 71, 0
2, 104528, Note_on_c, 0, 68, 0
2, 104532, Control_c, 0, 64, 127
2, 104534, Note_on_c, 0, 47, 0
2, 104570, Note_on_c, 0, 66, 0
2, 104578, Note_on_c, 0, 62, 0
2, 104674, Note_on_c, 0, 52, 0
2, 104692, Note_on_c, 0, 64, 70
2, 104696, Note_on_c, 0, 62, 44
2, 104794, Note_on_c, 0, 64, 0
2, 104866, Note_on_c, 0, 62, 0
2, 104950, Note_on_c, 0, 71, 70
2, 104960, Note_on_c, 0, 68, 41
2, 104962, Note_on_c, 0, 40, 67
2, 105018, Note_on_c, 0, 71, 0
2, 105082, Note_on_c, 0, 68, 0
2, 105112, Note_on_c, 0, 40, 0
2, 105302, Note_on_c, 0, 69, 37
2, 105305, Note_on_c, 0, 72, 44
2, 105305, Note_on_c, 0, 45, 39
2, 105346, Control_c, 0, 64, 0
2, 105670, Note_on_c, 0, 64, 47
2, 105674, Note_on_c, 0, 60, 32
2, 105676, Note_on_c, 0, 52, 43
2, 105730, Control_c, 0, 64, 127
2, 105752, Note_on_c, 0, 69, 0
2, 105756, Note_on_c, 0, 72, 0
2, 105784, Note_on_c, 0, 45, 0
2, 105786, Note_on_c, 0, 64, 0
2, 105868, Note_on_c, 0, 60, 0
2, 105892, Note_on_c, 0, 52, 0
2, 106002, Note_on_c, 0, 62, 43
2, 106006, Note_on_c, 0, 65, 37
2, 106006, Note_on_c, 0, 52, 41
2, 106072, Note_on_c, 0, 62, 0
2, 106184, Note_on_c, 0, 65, 0
2, 106280, Note_on_c, 0, 72, 41
2, 106284, Note_on_c, 0, 69, 41
2, 106289, Note_on_c, 0, 40, 48
2, 106342, Note_on_c, 0, 52, 0
2, 106344, Note_on_c, 0, 72, 0
2, 106384, Note_on_c, 0, 69, 0
2, 106410, Note_on_c, 0, 40, 0
2, 106522, Note_on_c, 0, 71, 55
2, 106525, Note_on_c, 0, 68, 39
2, 106534, Note_on_c, 0, 47, 33
2, 106728, Control_c, 0, 64, 0
2, 106780, Note_on_c, 0, 65, 48
2, 106780, Note_on_c, 0, 62, 46
2, 106790, Note_on_c, 0, 52, 41
2, 106850, Note_on_c, 0, 71, 0
2, 106858, Note_on_c, 0, 68, 0
2, 106870, Note_on_c, 0, 47, 0
2, 106898, Control_c, 0, 64, 127
2, 106926, Note_on_c, 0, 65, 0
2, 106967, Note_on_c, 0, 62, 0
2, 106972, Note_on_c, 0, 52, 0
2, 107028, Note_on_c, 0, 64, 44
2, 107032, Note_on_c, 0, 52, 60
2, 107036, Note_on_c, 0, 62, 50
2, 107090, Note_on_c, 0, 64, 0
2, 107090, Note_on_c, 0, 52, 0
2, 107126, Note_on_c, 0, 62, 0
2, 107264, Note_on_c, 0, 71, 85
2, 107270, Note_on_c, 0, 68, 62
2, 107274, Note_on_c, 0, 40, 71
2, 107314, Note_on_c, 0, 71, 0
2, 107314, Note_on_c, 0, 68, 0
2, 107317, Note_on_c, 0, 40, 0
2, 107604, Control_c, 0, 64, 0
2, 107628, Note_on_c, 0, 73, 84
2, 107630, Note_on_c, 0, 55, 72
2, 107630, Note_on_c, 0, 61, 68
2, 107633, Note_on_c, 0, 64, 66
2, 107634, Note_on_c, 0, 71, 74
2, 107634, Note_on_c, 0, 43, 63
2, 107812, Note_on_c, 0, 73, 0
2, 107814, Note_on_c, 0, 55, 0
2, 107816, Note_on_c, 0, 61, 0
2, 107818, Note_on_c, 0, 64, 0
2, 107822, Note_on_c, 0, 71, 0
2, 107836, Control_c, 0, 64, 127
2, 107852, Note_on_c, 0, 43, 0
2, 107950, Note_on_c, 0, 76, 73
2, 107962, Note_on_c, 0, 73, 35
2, 107962, Note_on_c, 0, 59, 50
2, 107966, Note_on_c, 0, 55, 38
2, 108030, Note_on_c, 0, 76, 0
2, 108050, Note_on_c, 0, 73, 0
2, 108122, Note_on_c, 0, 59, 0
2, 108164, Note_on_c, 0, 55, 0
2, 108235, Note_on_c, 0, 71, 63
2, 108236, Note_on_c, 0, 67, 58
2, 108238, Note_on_c, 0, 61, 49
2, 108242, Note_on_c, 0, 64, 38
2, 108292, Note_on_c, 0, 71, 0
2, 108294, Note_on_c, 0, 67, 0
2, 108296, Note_on_c, 0, 61, 0
2, 108298, Note_on_c, 0, 64, 0
2, 108486, Note_on_c, 0, 73, 66
2, 108486, Note_on_c, 0, 67, 62
2, 108486, Note_on_c, 0, 71, 78
2, 108488, Note_on_c, 0, 64, 26
2, 108556, Note_on_c, 0, 73, 0
2, 108606, Note_on_c, 0, 67, 0
2, 108658, Note_on_c, 0, 71, 0
2, 108668, Note_on_c, 0, 64, 0
2, 108734, Note_on_c, 0, 61, 55
2, 108736, Note_on_c, 0, 79, 91
2, 108740, Note_on_c, 0, 76, 67
2, 108784, Note_on_c, 0, 61, 0
2, 108787, Note_on_c, 0, 79, 0
2, 108844, Note_on_c, 0, 76, 0
2, 108998, Note_on_c, 0, 83, 100
2, 109004, Note_on_c, 0, 79, 63
2, 109006, Note_on_c, 0, 61, 48
2, 109014, Note_on_c, 0, 64, 29
2, 109084, Note_on_c, 0, 83, 0
2, 109107, Note_on_c, 0, 79, 0
2, 109140, Note_on_c, 0, 61, 0
2, 109156, Note_on_c, 0, 64, 0
2, 109226, Note_on_c, 0, 76, 63
2, 109228, Note_on_c, 0, 73, 68
2, 109233, Note_on_c, 0, 67, 29
2, 109234, Note_on_c, 0, 71, 51
2, 109286, Note_on_c, 0, 76, 0
2, 109288, Note_on_c, 0, 73, 0
2, 109294, Note_on_c, 0, 67, 0
2, 109307, Note_on_c, 0, 71, 0
2, 109456, Note_on_c, 0, 73, 75
2, 109458, Note_on_c, 0, 71, 33
2, 109460, Note_on_c, 0, 79, 91
2, 109460, Note_on_c, 0, 76, 71
2, 109536, Note_on_c, 0, 73, 0
2, 109562, Note_on_c, 0, 71, 0
2, 109612, Note_on_c, 0, 79, 0
2, 109640, Note_on_c, 0, 76, 0
2, 109684, Note_on_c, 0, 67, 54
2, 109688, Note_on_c, 0, 85, 88
2, 109688, Note_on_c, 0, 83, 102
2, 109688, Note_on_c, 0, 64, 57
2, 109728, Note_on_c, 0, 67, 0
2, 109732, Note_on_c, 0, 85, 0
2, 109735, Note_on_c, 0, 83, 0
2, 109814, Note_on_c, 0, 64, 0
2, 109910, Note_on_c, 0, 67, 66
2, 109914, Note_on_c, 0, 88, 98
2, 109914, Note_on_c, 0, 71, 63
2, 109920, Note_on_c, 0, 85, 78
2, 109974, Note_on_c, 0, 67, 0
2, 110068, Note_on_c, 0, 88, 0
2, 110144, Note_on_c, 0, 71, 0
2, 110146, Note_on_c, 0, 83, 109
2, 110148, Note_on_c, 0, 79, 90
2, 110154, Note_on_c, 0, 73, 55
2, 110154, Note_on_c, 0, 76, 39
2, 110184, Note_on_c, 0, 85, 0
2, 110192, Note_on_c, 0, 83, 0
2, 110199, Note_on_c, 0, 79, 0
2, 110208, Note_on_c, 0, 73, 0
2, 110234, Note_on_c, 0, 76, 0
2, 110372, Note_on_c, 0, 85, 93
2, 110378, Note_on_c, 0, 83, 104
2, 110384, Note_on_c, 0, 79, 77
2, 110384, Note_on_c, 0, 76, 18
2, 110462, Note_on_c, 0, 85, 0
2, 110474, Note_on_c, 0, 83, 0
2, 110568, Note_on_c, 0, 79, 0
2, 110580, Note_on_c, 0, 76, 0
2, 110645, Note_on_c, 0, 73, 57
2, 110646, Note_on_c, 0, 91, 88
2, 110646, Note_on_c, 0, 88, 74
2, 110649, Note_on_c, 0, 71, 39
2, 110682, Note_on_c, 0, 73, 0
2, 110685, Note_on_c, 0, 91, 0
2, 110719, Note_on_c, 0, 88, 0
2, 110748, Note_on_c, 0, 71, 0
2, 111070, Note_on_c, 0, 79, 91
2, 111078, Note_on_c, 0, 70, 54
2, 111084, Note_on_c, 0, 64, 34
2, 111084, Note_on_c, 0, 61, 28
2, 111086, Note_on_c, 0, 54, 24
2, 111124, Control_c, 0, 64, 0
2, 111250, Note_on_c, 0, 79, 0
2, 111263, Note_on_c, 0, 70, 0
2, 111278, Note_on_c, 0, 64, 0
2, 111304, Note_on_c, 0, 61, 0
2, 111308, Control_c, 0, 64, 127
2, 111311, Note_on_c, 0, 54, 0
2, 111418, Note_on_c, 0, 78, 86
2, 111438, Note_on_c, 0, 54, 50
2, 111440, Note_on_c, 0, 64, 33
2, 111441, Note_on_c, 0, 70, 50
2, 111444, Note_on_c, 0, 61, 33
2, 111498, Note_on_c, 0, 78, 0
2, 111501, Note_on_c, 0, 54, 0
2, 111504, Note_on_c, 0, 64, 0
2, 111512, Note_on_c, 0, 70, 0
2, 111596, Note_on_c, 0, 61, 0
2, 111698, Note_on_c, 0, 76, 81
2, 111702, Note_on_c, 0, 70, 59
2, 111702, Note_on_c, 0, 64, 54
2, 111705, Note_on_c, 0, 54, 52
2, 111705, Note_on_c, 0, 61, 55
2, 111748, Note_on_c, 0, 76, 0
2, 111756, Note_on_c, 0, 70, 0
2, 111765, Note_on_c, 0, 64, 0
2, 111798, Note_on_c, 0, 54, 0
2, 111852, Note_on_c, 0, 61, 0
2, 112084, Note_on_c, 0, 75, 79
2, 112092, Note_on_c, 0, 71, 80
2, 112094, Note_on_c, 0, 59, 65
2, 112244, Control_c, 0, 64, 0
2, 112418, Note_on_c, 0, 66, 50
2, 112422, Note_on_c, 0, 63, 55
2, 112426, Note_on_c, 0, 54, 52
2, 112472, Note_on_c, 0, 75, 0
2, 112476, Control_c, 0, 64, 127
2, 112502, Note_on_c, 0, 71, 0
2, 112584, Note_on_c, 0, 59, 0
2, 112594, Note_on_c, 0, 66, 0
2, 112600, Note_on_c, 0, 63, 0
2, 112662, Note_on_c, 0, 54, 0
2, 112684, Note_on_c, 0, 68, 65
2, 112698, Note_on_c, 0, 54, 62
2, 112704, Note_on_c, 0, 64, 67
2, 112830, Note_on_c, 0, 68, 0
2, 112930, Note_on_c, 0, 75, 75
2, 112930, Note_on_c, 0, 42, 60
2, 112930, Note_on_c, 0, 71, 77
2, 112978, Note_on_c, 0, 54, 0
2, 113036, Note_on_c, 0, 64, 0
2, 113042, Note_on_c, 0, 75, 0
2, 113062, Note_on_c, 0, 42, 0
2, 113166, Note_on_c, 0, 73, 81
2, 113170, Note_on_c, 0, 70, 70
2, 113188, Note_on_c, 0, 49, 70
2, 113238, Note_on_c, 0, 71, 0
2, 113382, Control_c, 0, 64, 0
2, 113398, Note_on_c, 0, 54, 59
2, 113408, Note_on_c, 0, 68, 66
2, 113408, Note_on_c, 0, 64, 72
2, 113516, Note_on_c, 0, 73, 0
2, 113522, Note_on_c, 0, 70, 0
2, 113574, Note_on_c, 0, 49, 0
2, 113594, Control_c, 0, 64, 127
2, 113660, Note_on_c, 0, 54, 60
2, 113662, Note_on_c, 0, 54, 0
2, 113664, Note_on_c, 0, 64, 67
2, 113666, Note_on_c, 0, 66, 62
2, 113676, Note_on_c, 0, 68, 0
2, 113698, Note_on_c, 0, 64, 0
2, 113740, Note_on_c, 0, 54, 0
2, 113860, Note_on_c, 0, 64, 0
2, 113906, Note_on_c, 0, 70, 49
2, 113908, Note_on_c, 0, 73, 70
2, 113910, Note_on_c, 0, 42, 48
2, 113958, Note_on_c, 0, 66, 0
2, 114004, Note_on_c, 0, 70, 0
2, 114098, Note_on_c, 0, 73, 0
2, 114124, Note_on_c, 0, 42, 0
2, 114226, Control_c, 0, 64, 0
2, 114230, Note_on_c, 0, 74, 59
2, 114231, Note_on_c, 0, 71, 56
2, 114236, Note_on_c, 0, 47, 42
2, 114534, Control_c, 0, 64, 127
2, 114596, Note_on_c, 0, 54, 41
2, 114598, Note_on_c, 0, 66, 33
2, 114601, Note_on_c, 0, 62, 38
2, 114704, Note_on_c, 0, 74, 0
2, 114722, Note_on_c, 0, 71, 0
2, 114790, Note_on_c, 0, 47, 0
2, 114848, Note_on_c, 0, 54, 0
2, 114871, Note_on_c, 0, 66, 0
2, 114881, Note_on_c, 0, 62, 0
2, 114920, Note_on_c, 0, 54, 40
2, 114926, Note_on_c, 0, 67, 38
2, 114928, Note_on_c, 0, 64, 35
2, 114992, Note_on_c, 0, 54, 0
2, 115048, Note_on_c, 0, 67, 0
2, 115094, Note_on_c, 0, 64, 0
2, 115198, Note_on_c, 0, 42, 26
2, 115208, Note_on_c, 0, 71, 52
2, 115210, Note_on_c, 0, 74, 46
2, 115262, Note_on_c, 0, 42, 0
2, 115284, Note_on_c, 0, 71, 0
2, 115464, Note_on_c, 0, 73, 41
2, 115466, Note_on_c, 0, 70, 44
2, 115474, Note_on_c, 0, 49, 37
2, 115506, Note_on_c, 0, 74, 0
2, 115694, Note_on_c, 0, 54, 49
2, 115697, Note_on_c, 0, 64, 47
2, 115702, Control_c, 0, 64, 0
2, 115702, Note_on_c, 0, 67, 48
2, 115770, Note_on_c, 0, 73, 0
2, 115784, Note_on_c, 0, 70, 0
2, 115796, Note_on_c, 0, 49, 0
2, 115870, Control_c, 0, 64, 127
2, 115916, Note_on_c, 0, 66, 48
2, 115926, Note_on_c, 0, 54, 61
2, 115930, Note_on_c, 0, 64, 59
2, 115968, Note_on_c, 0, 54, 0
2, 116004, Note_on_c, 0, 64, 0
2, 116024, Note_on_c, 0, 67, 0
2, 116068, Note_on_c, 0, 66, 0
2, 116100, Note_on_c, 0, 54, 0
2, 116136, Note_on_c, 0, 42, 70
2, 116137, Note_on_c, 0, 70, 62
2, 116139, Note_on_c, 0, 73, 74
2, 116174, Note_on_c, 0, 64, 0
2, 116188, Note_on_c, 0, 42, 0
2, 116230, Note_on_c, 0, 70, 0
2, 116271, Note_on_c, 0, 73, 0
2, 116408, Control_c, 0, 64, 0
2, 116422, Note_on_c, 0, 57, 75
2, 116422, Note_on_c, 0, 75, 75
2, 116422, Note_on_c, 0, 63, 68
2, 116425, Note_on_c, 0, 73, 68
2, 116426, Note_on_c, 0, 45, 71
2, 116428, Note_on_c, 0, 66, 52
2, 116538, Note_on_c, 0, 57, 0
2, 116542, Note_on_c, 0, 75, 0
2, 116562, Note_on_c, 0, 63, 0
2, 116570, Note_on_c, 0, 73, 0
2, 116608, Control_c, 0, 64, 127
2, 116626, Note_on_c, 0, 45, 0
2, 116628, Note_on_c, 0, 66, 0
2, 116714, Note_on_c, 0, 75, 49
2, 116717, Note_on_c, 0, 78, 74
2, 116726, Note_on_c, 0, 61, 60
2, 116726, Note_on_c, 0, 57, 52
2, 116794, Note_on_c, 0, 75, 0
2, 116838, Note_on_c, 0, 78, 0
2, 116920, Note_on_c, 0, 61, 0
2, 116930, Note_on_c, 0, 57, 0
2, 116962, Note_on_c, 0, 63, 32
2, 116966, Note_on_c, 0, 66, 44
2, 116966, Note_on_c, 0, 69, 46
2, 116970, Note_on_c, 0, 73, 63
2, 117022, Note_on_c, 0, 63, 0
2, 117022, Note_on_c, 0, 66, 0
2, 117026, Note_on_c, 0, 69, 0
2, 117068, Note_on_c, 0, 73, 0
2, 117198, Note_on_c, 0, 75, 67
2, 117200, Note_on_c, 0, 66, 41
2, 117201, Note_on_c, 0, 73, 58
2, 117204, Note_on_c, 0, 69, 47
2, 117276, Note_on_c, 0, 75, 0
2, 117292, Note_on_c, 0, 66, 0
2, 117340, Note_on_c, 0, 73, 0
2, 117384, Note_on_c, 0, 69, 0
2, 117428, Note_on_c, 0, 78, 74
2, 117430, Note_on_c, 0, 81, 79
2, 117434, Note_on_c, 0, 63, 66
2, 117438, Note_on_c, 0, 61, 55
2, 117482, Note_on_c, 0, 78, 0
2, 117492, Note_on_c, 0, 81, 0
2, 117542, Note_on_c, 0, 63, 0
2, 117554, Note_on_c, 0, 61, 0
2, 117654, Note_on_c, 0, 85, 90
2, 117658, Note_on_c, 0, 81, 74
2, 117658, Note_on_c, 0, 66, 55
2, 117658, Note_on_c, 0, 63, 55
2, 117764, Note_on_c, 0, 85, 0
2, 117823, Note_on_c, 0, 81, 0
2, 117864, Note_on_c, 0, 78, 84
2, 117867, Note_on_c, 0, 75, 76
2, 117870, Note_on_c, 0, 73, 47
2, 117874, Note_on_c, 0, 69, 47
2, 117880, Note_on_c, 0, 66, 0
2, 117918, Note_on_c, 0, 63, 0
2, 117930, Note_on_c, 0, 78, 0
2, 117930, Note_on_c, 0, 75, 0
2, 117954, Note_on_c, 0, 73, 0
2, 117968, Note_on_c, 0, 69, 0
2, 118078, Note_on_c, 0, 78, 76
2, 118078, Note_on_c, 0, 81, 89
2, 118082, Note_on_c, 0, 73, 50
2, 118084, Note_on_c, 0, 75, 78
2, 118144, Note_on_c, 0, 78, 0
2, 118214, Note_on_c, 0, 81, 0
2, 118262, Note_on_c, 0, 73, 0
2, 118270, Note_on_c, 0, 75, 0
2, 118298, Note_on_c, 0, 85, 87
2, 118299, Note_on_c, 0, 87, 84
2, 118302, Note_on_c, 0, 69, 50
2, 118304, Note_on_c, 0, 66, 60
2, 118358, Note_on_c, 0, 85, 0
2, 118358, Note_on_c, 0, 87, 0
2, 118396, Note_on_c, 0, 69, 0
2, 118409, Note_on_c, 0, 66, 0
2, 118510, Note_on_c, 0, 90, 92
2, 118512, Note_on_c, 0, 87, 69
2, 118520, Note_on_c, 0, 69, 57
2, 118522, Note_on_c, 0, 73, 69
2, 118572, Note_on_c, 0, 90, 0
2, 118638, Note_on_c, 0, 87, 0
2, 118692, Note_on_c, 0, 69, 0
2, 118722, Note_on_c, 0, 85, 86
2, 118730, Note_on_c, 0, 81, 79
2, 118732, Note_on_c, 0, 78, 68
2, 118736, Note_on_c, 0, 75, 69
2, 118740, Note_on_c, 0, 73, 0
2, 118776, Note_on_c, 0, 85, 0
2, 118784, Note_on_c, 0, 81, 0
2, 118786, Note_on_c, 0, 78, 0
2, 118852, Note_on_c, 0, 75, 0
2, 118942, Note_on_c, 0, 85, 82
2, 118944, Note_on_c, 0, 87, 92
2, 118946, Note_on_c, 0, 81, 87
2, 118949, Note_on_c, 0, 78, 76
2, 119004, Note_on_c, 0, 85, 0
2, 119020, Note_on_c, 0, 87, 0
2, 119130, Note_on_c, 0, 81, 0
2, 119162, Note_on_c, 0, 78, 0
2, 119206, Note_on_c, 0, 93, 97
2, 119206, Note_on_c, 0, 90, 76
2, 119210, Note_on_c, 0, 75, 64
2, 119210, Note_on_c, 0, 73, 36
2, 119250, Note_on_c, 0, 93, 0
2, 119272, Note_on_c, 0, 90, 0
2, 119276, Note_on_c, 0, 75, 0
2, 119288, Note_on_c, 0, 73, 0
2, 119570, Note_on_c, 0, 81, 99
2, 119578, Note_on_c, 0, 66, 66
2, 119578, Note_on_c, 0, 56, 54
2, 119580, Note_on_c, 0, 72, 84
2, 119580, Note_on_c, 0, 63, 47
2, 119620, Control_c, 0, 64, 0
2, 119748, Note_on_c, 0, 81, 0
2, 119754, Note_on_c, 0, 66, 0
2, 119768, Note_on_c, 0, 56, 0
2, 119788, Note_on_c, 0, 72, 0
2, 119807, Control_c, 0, 64, 127
2, 119816, Note_on_c, 0, 63, 0
2, 119928, Note_on_c, 0, 80, 92
2, 119940, Note_on_c, 0, 72, 67
2, 119942, Note_on_c, 0, 63, 61
2, 119943, Note_on_c, 0, 66, 65
2, 119950, Note_on_c, 0, 56, 58
2, 120014, Note_on_c, 0, 80, 0
2, 120014, Note_on_c, 0, 72, 0
2, 120040, Note_on_c, 0, 63, 0
2, 120062, Note_on_c, 0, 66, 0
2, 120126, Note_on_c, 0, 56, 0
2, 120210, Note_on_c, 0, 72, 72
2, 120210, Note_on_c, 0, 78, 92
2, 120222, Note_on_c, 0, 66, 62
2, 120224, Note_on_c, 0, 63, 63
2, 120228, Note_on_c, 0, 56, 50
2, 120298, Note_on_c, 0, 72, 0
2, 120326, Note_on_c, 0, 78, 0
2, 120356, Note_on_c, 0, 66, 0
2, 120358, Note_on_c, 0, 63, 0
2, 120372, Note_on_c, 0, 56, 0
2, 120464, Note_on_c, 0, 71, 95
2, 120466, Note_on_c, 0, 62, 60
2, 120467, Note_on_c, 0, 65, 78
2, 120468, Note_on_c, 0, 56, 69
2, 120470, Note_on_c, 0, 77, 86
2, 120509, Note_on_c, 0, 71, 0
2, 120510, Note_on_c, 0, 62, 0
2, 120554, Note_on_c, 0, 65, 0
2, 120558, Note_on_c, 0, 56, 0
2, 120558, Note_on_c, 0, 77, 0
2, 120692, Note_on_c, 0, 74, 87
2, 120692, Note_on_c, 0, 68, 74
2, 120710, Note_on_c, 0, 59, 69
2, 120716, Note_on_c, 0, 53, 89
2, 120726, Control_c, 0, 64, 0
2, 120770, Note_on_c, 0, 74, 0
2, 120824, Note_on_c, 0, 68, 0
2, 120880, Note_on_c, 0, 67, 71
2, 120884, Note_on_c, 0, 59, 0
2, 120884, Note_on_c, 0, 73, 72
2, 120884, Note_on_c, 0, 58, 61
2, 120886, Note_on_c, 0, 53, 0
2, 120888, Note_on_c, 0, 52, 68
2, 120926, Control_c, 0, 64, 127
2, 120936, Note_on_c, 0, 67, 0
2, 120942, Note_on_c, 0, 73, 0
2, 120958, Note_on_c, 0, 58, 0
2, 120998, Note_on_c, 0, 52, 0
2, 121066, Note_on_c, 0, 78, 85
2, 121068, Note_on_c, 0, 72, 84
2, 121078, Note_on_c, 0, 57, 64
2, 121082, Note_on_c, 0, 51, 75
2, 121210, Note_on_c, 0, 78, 0
2, 121213, Note_on_c, 0, 72, 0
2, 121213, Note_on_c, 0, 57, 0
2, 121217, Control_c, 0, 64, 0
2, 121242, Note_on_c, 0, 51, 0
2, 121245, Note_on_c, 0, 71, 86
2, 121250, Note_on_c, 0, 77, 83
2, 121250, Note_on_c, 0, 56, 74
2, 121253, Note_on_c, 0, 50, 68
2, 121288, Note_on_c, 0, 71, 0
2, 121322, Note_on_c, 0, 77, 0
2, 121325, Note_on_c, 0, 56, 0
2, 121325, Control_c, 0, 64, 127
2, 121354, Note_on_c, 0, 50, 0
2, 121414, Note_on_c, 0, 82, 88
2, 121422, Note_on_c, 0, 76, 85
2, 121422, Note_on_c, 0, 55, 77
2, 121425, Note_on_c, 0, 49, 75
2, 121498, Note_on_c, 0, 82, 0
2, 121518, Note_on_c, 0, 76, 0
2, 121540, Note_on_c, 0, 55, 0
2, 121568, Note_on_c, 0, 81, 84
2, 121572, Note_on_c, 0, 49, 0
2, 121572, Note_on_c, 0, 75, 83
2, 121586, Note_on_c, 0, 54, 81
2, 121590, Note_on_c, 0, 48, 34
2, 121636, Note_on_c, 0, 81, 0
2, 121644, Note_on_c, 0, 75, 0
2, 121650, Note_on_c, 0, 54, 0
2, 121692, Note_on_c, 0, 48, 0
2, 121762, Note_on_c, 0, 53, 101
2, 121764, Note_on_c, 0, 47, 73
2, 121770, Note_on_c, 0, 86, 98
2, 121770, Note_on_c, 0, 80, 90
2, 121834, Note_on_c, 0, 53, 0
2, 121878, Note_on_c, 0, 47, 0
2, 121910, Control_c, 0, 64, 0
2, 121916, Note_on_c, 0, 86, 0
2, 121962, Note_on_c, 0, 46, 82
2, 121962, Note_on_c, 0, 52, 88
2, 121962, Note_on_c, 0, 79, 92
2, 121965, Note_on_c, 0, 85, 90
2, 122006, Note_on_c, 0, 80, 0
2, 122044, Note_on_c, 0, 46, 0
2, 122056, Note_on_c, 0, 52, 0
2, 122060, Note_on_c, 0, 79, 0
2, 122062, Control_c, 0, 64, 127
2, 122064, Note_on_c, 0, 85, 0
2, 122196, Note_on_c, 0, 73, 89
2, 122202, Note_on_c, 0, 67, 86
2, 122204, Note_on_c, 0, 58, 74
2, 122212, Note_on_c, 0, 52, 86
2, 122254, Note_on_c, 0, 73, 0
2, 122257, Note_on_c, 0, 67, 0
2, 122274, Note_on_c, 0, 58, 0
2, 122340, Note_on_c, 0, 52, 0
2, 122374, Note_on_c, 0, 72, 69
2, 122376, Note_on_c, 0, 66, 69
2, 122376, Note_on_c, 0, 57, 79
2, 122382, Note_on_c, 0, 51, 84
2, 122422, Note_on_c, 0, 72, 0
2, 122434, Note_on_c, 0, 66, 0
2, 122500, Note_on_c, 0, 57, 0
2, 122522, Note_on_c, 0, 51, 0
2, 122524, Control_c, 0, 64, 0
2, 122536, Note_on_c, 0, 77, 96
2, 122542, Note_on_c, 0, 56, 81
2, 122542, Note_on_c, 0, 71, 89
2, 122548, Note_on_c, 0, 50, 79
2, 122630, Note_on_c, 0, 77, 0
2, 122638, Note_on_c, 0, 56, 0
2, 122646, Note_on_c, 0, 71, 0
2, 122678, Note_on_c, 0, 50, 0
2, 122690, Note_on_c, 0, 70, 81
2, 122696, Note_on_c, 0, 76, 75
2, 122700, Note_on_c, 0, 55, 84
2, 122704, Note_on_c, 0, 49, 79
2, 122707, Control_c, 0, 64, 127
2, 122740, Note_on_c, 0, 70, 0
2, 122750, Note_on_c, 0, 76, 0
2, 122816, Note_on_c, 0, 55, 0
2, 122844, Note_on_c, 0, 49, 0
2, 122846, Note_on_c, 0, 81, 98
2, 122848, Note_on_c, 0, 54, 83
2, 122850, Note_on_c, 0, 75, 81
2, 122854, Note_on_c, 0, 48, 45
2, 122918, Note_on_c, 0, 81, 0
2, 122918, Note_on_c, 0, 54, 0
2, 122942, Note_on_c, 0, 75, 0
2, 122952, Note_on_c, 0, 48, 0
2, 123004, Note_on_c, 0, 80, 90
2, 123004, Note_on_c, 0, 53, 98
2, 123007, Note_on_c, 0, 74, 86
2, 123010, Note_on_c, 0, 47, 69
2, 123058, Note_on_c, 0, 80, 0
2, 123068, Note_on_c, 0, 53, 0
2, 123084, Note_on_c, 0, 74, 0
2, 123090, Note_on_c, 0, 47, 0
2, 123162, Note_on_c, 0, 85, 92
2, 123164, Note_on_c, 0, 79, 98
2, 123172, Note_on_c, 0, 52, 101
2, 123175, Note_on_c, 0, 46, 79
2, 123260, Note_on_c, 0, 85, 0
2, 123262, Control_c, 0, 64, 0
2, 123268, Note_on_c, 0, 79, 0
2, 123294, Note_on_c, 0, 52, 0
2, 123302, Note_on_c, 0, 46, 0
2, 123316, Note_on_c, 0, 78, 91
2, 123320, Note_on_c, 0, 84, 96
2, 123328, Note_on_c, 0, 45, 85
2, 123329, Note_on_c, 0, 51, 90
2, 123372, Note_on_c, 0, 78, 0
2, 123382, Note_on_c, 0, 84, 0
2, 123400, Note_on_c, 0, 45, 0
2, 123421, Note_on_c, 0, 51, 0
2, 123430, Control_c, 0, 64, 127
2, 123520, Note_on_c, 0, 66, 86
2, 123520, Note_on_c, 0, 57, 78
2, 123520, Note_on_c, 0, 72, 87
2, 123523, Note_on_c, 0, 51, 61
2, 123554, Control_c, 0, 64, 0
2, 123632, Note_on_c, 0, 66, 0
2, 123646, Note_on_c, 0, 57, 0
2, 123648, Note_on_c, 0, 72, 0
2, 123664, Note_on_c, 0, 50, 79
2, 123666, Note_on_c, 0, 56, 76
2, 123668, Note_on_c, 0, 65, 67
2, 123670, Note_on_c, 0, 71, 80
2, 123682, Note_on_c, 0, 51, 0
2, 123712, Note_on_c, 0, 50, 0
2, 123718, Note_on_c, 0, 56, 0
2, 123738, Control_c, 0, 64, 127
2, 123752, Note_on_c, 0, 65, 0
2, 123758, Note_on_c, 0, 71, 0
2, 123806, Note_on_c, 0, 49, 78
2, 123808, Note_on_c, 0, 55, 80
2, 123818, Note_on_c, 0, 70, 74
2, 123818, Note_on_c, 0, 76, 80
2, 123928, Note_on_c, 0, 49, 0
2, 123928, Note_on_c, 0, 55, 0
2, 123928, Note_on_c, 0, 70, 0
2, 123952, Note_on_c, 0, 76, 0
2, 123962, Note_on_c, 0, 69, 66
2, 123962, Note_on_c, 0, 54, 78
2, 123965, Note_on_c, 0, 75, 81
2, 123968, Note_on_c, 0, 48, 63
2, 124018, Note_on_c, 0, 69, 0
2, 124021, Note_on_c, 0, 54, 0
2, 124048, Note_on_c, 0, 75, 0
2, 124072, Note_on_c, 0, 48, 0
2, 124122, Note_on_c, 0, 47, 38
2, 124124, Note_on_c, 0, 53, 95
2, 124127, Note_on_c, 0, 74, 92
2, 124130, Note_on_c, 0, 80, 90
2, 124172, Note_on_c, 0, 47, 0
2, 124184, Note_on_c, 0, 53, 0
2, 124236, Note_on_c, 0, 74, 0
2, 124242, Note_on_c, 0, 80, 0
2, 124272, Note_on_c, 0, 73, 79
2, 124276, Note_on_c, 0, 46, 81
2, 124284, Note_on_c, 0, 52, 91
2, 124288, Note_on_c, 0, 79, 88
2, 124330, Note_on_c, 0, 73, 0
2, 124330, Note_on_c, 0, 46, 0
2, 124380, Note_on_c, 0, 52, 0
2, 124400, Note_on_c, 0, 79, 0
2, 124424, Note_on_c, 0, 51, 83
2, 124430, Note_on_c, 0, 45, 73
2, 124444, Note_on_c, 0, 78, 96
2, 124450, Note_on_c, 0, 84, 83
2, 124516, Note_on_c, 0, 51, 0
2, 124522, Control_c, 0, 64, 0
2, 124542, Note_on_c, 0, 45, 0
2, 124548, Note_on_c, 0, 78, 0
2, 124568, Note_on_c, 0, 50, 98
2, 124568, Note_on_c, 0, 44, 90
2, 124578, Note_on_c, 0, 84, 0
2, 124578, Note_on_c, 0, 83, 110
2, 124578, Note_on_c, 0, 77, 86
2, 124640, Note_on_c, 0, 50, 0
2, 124660, Note_on_c, 0, 44, 0
2, 124660, Control_c, 0, 64, 127
2, 124670, Note_on_c, 0, 83, 0
2, 124712, Note_on_c, 0, 49, 78
2, 124724, Note_on_c, 0, 43, 81
2, 124730, Note_on_c, 0, 88, 97
2, 124730, Note_on_c, 0, 82, 94
2, 124770, Note_on_c, 0, 77, 0
2, 124812, Note_on_c, 0, 49, 0
2, 124818, Note_on_c, 0, 43, 0
2, 124832, Note_on_c, 0, 88, 0
2, 124858, Note_on_c, 0, 48, 87
2, 124866, Note_on_c, 0, 82, 0
2, 124866, Note_on_c, 0, 81, 93
2, 124866, Note_on_c, 0, 41, 44
2, 124872, Note_on_c, 0, 87, 89
2, 124926, Note_on_c, 0, 48, 0
2, 124940, Note_on_c, 0, 81, 0
2, 124940, Note_on_c, 0, 41, 0
2, 124968, Note_on_c, 0, 87, 0
2, 125010, Note_on_c, 0, 47, 80
2, 125020, Note_on_c, 0, 41, 68
2, 125028, Note_on_c, 0, 92, 94
2, 125028, Note_on_c, 0, 86, 100
2, 125114, Note_on_c, 0, 47, 0
2, 125118, Note_on_c, 0, 41, 0
2, 125130, Note_on_c, 0, 92, 0
2, 125160, Note_on_c, 0, 46, 82
2, 125163, Note_on_c, 0, 85, 86
2, 125167, Note_on_c, 0, 40, 90
2, 125172, Note_on_c, 0, 91, 88
2, 125202, Note_on_c, 0, 86, 0
2, 125222, Note_on_c, 0, 46, 0
2, 125222, Note_on_c, 0, 85, 0
2, 125226, Note_on_c, 0, 40, 0
2, 125240, Note_on_c, 0, 91, 0
2, 125300, Note_on_c, 0, 45, 92
2, 125304, Note_on_c, 0, 39, 81
2, 125324, Note_on_c, 0, 90, 91
2, 125326, Note_on_c, 0, 96, 98
2, 125342, Note_on_c, 0, 45, 0
2, 125408, Note_on_c, 0, 39, 0
2, 125418, Note_on_c, 0, 90, 0
2, 125438, Note_on_c, 0, 96, 0
2, 125458, Note_on_c, 0, 44, 89
2, 125460, Note_on_c, 0, 38, 60
2, 125468, Note_on_c, 0, 89, 89
2, 125472, Note_on_c, 0, 95, 95
2, 125496, Note_on_c, 0, 44, 0
2, 125516, Note_on_c, 0, 38, 0
2, 125516, Note_on_c, 0, 43, 31
2, 125536, Note_on_c, 0, 89, 0
2, 125554, Note_on_c, 0, 95, 0
2, 125586, Note_on_c, 0, 43, 0
2, 125618, Note_on_c, 0, 43, 77
2, 125618, Note_on_c, 0, 37, 90
2, 125634, Note_on_c, 0, 100, 106
2, 125634, Note_on_c, 0, 94, 97
2, 125750, Note_on_c, 0, 43, 0
2, 125788, Note_on_c, 0, 37, 0
2, 125814, Note_on_c, 0, 100, 0
2, 125842, Control_c, 0, 64, 0
2, 125862, Note_on_c, 0, 95, 95
2, 125864, Note_on_c, 0, 42, 98
2, 125866, Note_on_c, 0, 35, 113
2, 125866, Note_on_c, 0, 99, 100
2, 125912, Note_on_c, 0, 94, 0
2, 125986, Note_on_c, 0, 95, 0
2, 125989, Note_on_c, 0, 42, 0
2, 126026, Note_on_c, 0, 35, 0
2, 126058, Control_c, 0, 64, 127
2, 126064, Note_on_c, 0, 99, 0
2, 126186, Note_on_c, 0, 95, 94
2, 126188, Note_on_c, 0, 87, 88
2, 126308, Note_on_c, 0, 95, 0
2, 126344, Note_on_c, 0, 87, 0
2, 126372, Note_on_c, 0, 90, 85
2, 126374, Note_on_c, 0, 81, 95
2, 126456, Note_on_c, 0, 90, 0
2, 126498, Note_on_c, 0, 81, 0
2, 126560, Note_on_c, 0, 83, 113
2, 126562, Note_on_c, 0, 75, 82
2, 126666, Note_on_c, 0, 83, 0
2, 126704, Note_on_c, 0, 75, 0
2, 126760, Note_on_c, 0, 69, 79
2, 126763, Note_on_c, 0, 78, 78
2, 126823, Note_on_c, 0, 69, 0
2, 126880, Note_on_c, 0, 78, 0
2, 126940, Note_on_c, 0, 71, 61
2, 126946, Note_on_c, 0, 63, 88
2, 126986, Note_on_c, 0, 71, 0
2, 127030, Note_on_c, 0, 63, 0
2, 127108, Note_on_c, 0, 66, 84
2, 127111, Note_on_c, 0, 57, 87
2, 127152, Note_on_c, 0, 66, 0
2, 127228, Note_on_c, 0, 57, 0
2, 127286, Note_on_c, 0, 51, 96
2, 127286, Note_on_c, 0, 59, 95
2, 127342, Note_on_c, 0, 51, 0
2, 127390, Note_on_c, 0, 59, 0
2, 127438, Note_on_c, 0, 54, 103
2, 127441, Note_on_c, 0, 45, 94
2, 127522, Note_on_c, 0, 54, 0
2, 127533, Note_on_c, 0, 45, 0
2, 127672, Control_c, 0, 64, 0
2, 127672, Note_on_c, 0, 69, 83
2, 127672, Note_on_c, 0, 66, 72
2, 127672, Note_on_c, 0, 48, 92
2, 127675, Note_on_c, 0, 57, 90
2, 127675, Note_on_c, 0, 64, 84
2, 127676, Note_on_c, 0, 36, 98
2, 127740, Note_on_c, 0, 69, 0
2, 127740, Note_on_c, 0, 66, 0
2, 127774, Note_on_c, 0, 48, 0
2, 127799, Note_on_c, 0, 57, 0
2, 127812, Note_on_c, 0, 64, 0
2, 127814, Note_on_c, 0, 36, 0
2, 127824, Control_c, 0, 64, 127
2, 127872, Note_on_c, 0, 71, 102
2, 127872, Note_on_c, 0, 47, 87
2, 127875, Note_on_c, 0, 64, 81
2, 127875, Note_on_c, 0, 66, 64
2, 127878, Note_on_c, 0, 59, 93
2, 127880, Note_on_c, 0, 35, 100
2, 127954, Note_on_c, 0, 71, 0
2, 127976, Note_on_c, 0, 47, 0
2, 127978, Note_on_c, 0, 64, 0
2, 127980, Note_on_c, 0, 66, 0
2, 128004, Note_on_c, 0, 59, 0
2, 128014, Note_on_c, 0, 35, 0
2, 128052, Note_on_c, 0, 45, 91
2, 128055, Note_on_c, 0, 33, 99
2, 128055, Note_on_c, 0, 72, 97
2, 128056, Note_on_c, 0, 66, 81
2, 128058, Note_on_c, 0, 64, 91
2, 128059, Note_on_c, 0, 60, 88
2, 128110, Note_on_c, 0, 45, 0
2, 128132, Note_on_c, 0, 33, 0
2, 128149, Note_on_c, 0, 72, 0
2, 128154, Note_on_c, 0, 66, 0
2, 128157, Note_on_c, 0, 64, 0
2, 128168, Note_on_c, 0, 60, 0
2, 128234, Note_on_c, 0, 64, 97
2, 128237, Note_on_c, 0, 66, 66
2, 128237, Note_on_c, 0, 71, 106
2, 128237, Note_on_c, 0, 59, 109
2, 128237, Note_on_c, 0, 47, 100
2, 128242, Note_on_c, 0, 35, 107
2, 128316, Note_on_c, 0, 64, 0
2, 128316, Note_on_c, 0, 66, 0
2, 128318, Note_on_c, 0, 71, 0
2, 128338, Note_on_c, 0, 59, 0
2, 128346, Control_c, 0, 64, 0
2, 128356, Note_on_c, 0, 47, 0
2, 128356, Note_on_c, 0, 35, 0
2, 128402, Note_on_c, 0, 48, 99
2, 128403, Note_on_c, 0, 69, 87
2, 128406, Note_on_c, 0, 66, 81
2, 128407, Note_on_c, 0, 64, 97
2, 128408, Note_on_c, 0, 36, 101
2, 128410, Note_on_c, 0, 57, 97
2, 128496, Note_on_c, 0, 48, 0
2, 128498, Note_on_c, 0, 69, 0
2, 128508, Note_on_c, 0, 66, 0
2, 128510, Note_on_c, 0, 64, 0
2, 128515, Note_on_c, 0, 36, 0
2, 128516, Control_c, 0, 64, 127
2, 128534, Note_on_c, 0, 57, 0
2, 128574, Note_on_c, 0, 71, 105
2, 128574, Note_on_c, 0, 66, 84
2, 128575, Note_on_c, 0, 64, 94
2, 128577, Note_on_c, 0, 47, 97
2, 128577, Control_c, 0, 64, 0
2, 128578, Note_on_c, 0, 59, 90
2, 128580, Note_on_c, 0, 35, 106
2, 128656, Note_on_c, 0, 71, 0
2, 128665, Note_on_c, 0, 66, 0
2, 128668, Note_on_c, 0, 64, 0
2, 128668, Note_on_c, 0, 47, 0
2, 128674, Note_on_c, 0, 59, 0
2, 128679, Note_on_c, 0, 35, 0
2, 128684, Control_c, 0, 64, 127
2, 128736, Note_on_c, 0, 45, 91
2, 128739, Note_on_c, 0, 60, 94
2, 128739, Note_on_c, 0, 33, 101
2, 128740, Note_on_c, 0, 64, 96
2, 128741, Note_on_c, 0, 72, 102
2, 128742, Note_on_c, 0, 66, 75
2, 128834, Note_on_c, 0, 45, 0
2, 128840, Control_c, 0, 64, 0
2, 128858, Note_on_c, 0, 60, 0
2, 128865, Note_on_c, 0, 33, 0
2, 128866, Note_on_c, 0, 64, 0
2, 128900, Note_on_c, 0, 72, 0
2, 128912, Note_on_c, 0, 66, 0
2, 128950, Note_on_c, 0, 47, 110
2, 128952, Note_on_c, 0, 71, 110
2, 128952, Note_on_c, 0, 35, 113
2, 128956, Note_on_c, 0, 59, 113
2, 128956, Note_on_c, 0, 63, 99
2, 128956, Note_on_c, 0, 66, 95
2, 129080, Note_on_c, 0, 47, 0
2, 129104, Note_on_c, 0, 71, 0
2, 129138, Note_on_c, 0, 35, 0
2, 129144, Note_on_c, 0, 59, 0
2, 129144, Control_c, 0, 64, 127
2, 129176, Note_on_c, 0, 63, 0
2, 129214, Note_on_c, 0, 66, 0
2, 129404, Note_on_c, 0, 99, 99
2, 129414, Note_on_c, 0, 93, 85
2, 129458, Note_on_c, 0, 99, 0
2, 129558, Note_on_c, 0, 93, 0
2, 129654, Note_on_c, 0, 87, 89
2, 129658, Note_on_c, 0, 95, 94
2, 129752, Note_on_c, 0, 87, 0
2, 129772, Note_on_c, 0, 95, 0
2, 129850, Note_on_c, 0, 87, 68
2, 129852, Note_on_c, 0, 78, 78
2, 129906, Note_on_c, 0, 87, 0
2, 129978, Note_on_c, 0, 78, 0
2, 130052, Note_on_c, 0, 81, 91
2, 130052, Note_on_c, 0, 71, 89
2, 130082, Note_on_c, 0, 81, 0
2, 130100, Note_on_c, 0, 71, 0
2, 130246, Note_on_c, 0, 75, 81
2, 130246, Note_on_c, 0, 69, 75
2, 130324, Note_on_c, 0, 75, 0
2, 130370, Note_on_c, 0, 69, 0
2, 130408, Note_on_c, 0, 63, 88
2, 130411, Note_on_c, 0, 71, 93
2, 130456, Note_on_c, 0, 63, 0
2, 130520, Note_on_c, 0, 71, 0
2, 130570, Note_on_c, 0, 63, 78
2, 130570, Note_on_c, 0, 54, 95
2, 130614, Note_on_c, 0, 63, 0
2, 130676, Note_on_c, 0, 54, 0
2, 130742, Note_on_c, 0, 57, 97
2, 130742, Note_on_c, 0, 47, 98
2, 130778, Note_on_c, 0, 57, 0
2, 130786, Note_on_c, 0, 47, 0
2, 130924, Note_on_c, 0, 66, 73
2, 130924, Note_on_c, 0, 69, 84
2, 130924, Note_on_c, 0, 57, 93
2, 130926, Note_on_c, 0, 64, 80
2, 130929, Note_on_c, 0, 36, 95
2, 130934, Note_on_c, 0, 48, 94
2, 130934, Note_on_c, 0, 38, 43
2, 130967, Note_on_c, 0, 66, 0
2, 130974, Note_on_c, 0, 69, 0
2, 131000, Note_on_c, 0, 57, 0
2, 131012, Note_on_c, 0, 64, 0
2, 131024, Note_on_c, 0, 36, 0
2, 131034, Note_on_c, 0, 48, 0
2, 131036, Control_c, 0, 64, 0
2, 131060, Note_on_c, 0, 38, 0
2, 131100, Note_on_c, 0, 66, 84
2, 131102, Note_on_c, 0, 64, 93
2, 131102, Note_on_c, 0, 71, 106
2, 131102, Note_on_c, 0, 59, 93
2, 131105, Note_on_c, 0, 47, 97
2, 131108, Note_on_c, 0, 35, 107
2, 131196, Note_on_c, 0, 66, 0
2, 131206, Note_on_c, 0, 64, 0
2, 131206, Control_c, 0, 64, 127
2, 131214, Note_on_c, 0, 71, 0
2, 131232, Note_on_c, 0, 59, 0
2, 131232, Note_on_c, 0, 47, 0
2, 131244, Note_on_c, 0, 35, 0
2, 131288, Note_on_c, 0, 45, 95
2, 131292, Note_on_c, 0, 33, 101
2, 131293, Note_on_c, 0, 72, 98
2, 131294, Note_on_c, 0, 66, 75
2, 131300, Note_on_c, 0, 60, 95
2, 131302, Note_on_c, 0, 64, 96
2, 131386, Note_on_c, 0, 45, 0
2, 131390, Note_on_c, 0, 33, 0
2, 131395, Note_on_c, 0, 72, 0
2, 131398, Note_on_c, 0, 66, 0
2, 131442, Note_on_c, 0, 60, 0
2, 131450, Note_on_c, 0, 64, 0
2, 131496, Control_c, 0, 64, 0
2, 131498, Note_on_c, 0, 47, 101
2, 131501, Note_on_c, 0, 59, 97
2, 131503, Note_on_c, 0, 69, 45
2, 131504, Note_on_c, 0, 71, 89
2, 131504, Note_on_c, 0, 66, 81
2, 131506, Note_on_c, 0, 35, 108
2, 131506, Note_on_c, 0, 64, 92
2, 131571, Note_on_c, 0, 47, 0
2, 131578, Note_on_c, 0, 59, 0
2, 131604, Note_on_c, 0, 69, 0
2, 131610, Note_on_c, 0, 71, 0
2, 131620, Control_c, 0, 64, 127
2, 131624, Note_on_c, 0, 66, 0
2, 131644, Note_on_c, 0, 35, 0
2, 131656, Note_on_c, 0, 64, 0
2, 131700, Note_on_c, 0, 69, 54
2, 131704, Note_on_c, 0, 48, 96
2, 131704, Note_on_c, 0, 57, 92
2, 131704, Note_on_c, 0, 66, 78
2, 131707, Note_on_c, 0, 64, 91
2, 131707, Note_on_c, 0, 36, 100
2, 131796, Note_on_c, 0, 69, 0
2, 131796, Note_on_c, 0, 48, 0
2, 131804, Note_on_c, 0, 57, 0
2, 131832, Note_on_c, 0, 66, 0
2, 131840, Note_on_c, 0, 64, 0
2, 131864, Note_on_c, 0, 36, 0
2, 131918, Note_on_c, 0, 66, 78
2, 131918, Note_on_c, 0, 47, 97
2, 131918, Note_on_c, 0, 35, 100
2, 131921, Note_on_c, 0, 71, 106
2, 131923, Note_on_c, 0, 64, 70
2, 131924, Note_on_c, 0, 59, 95
2, 131958, Note_on_c, 0, 66, 0
2, 131971, Note_on_c, 0, 47, 0
2, 132014, Note_on_c, 0, 35, 0
2, 132014, Note_on_c, 0, 71, 0
2, 132022, Note_on_c, 0, 64, 0
2, 132050, Note_on_c, 0, 59, 0
2, 132158, Control_c, 0, 64, 0
2, 132214, Note_on_c, 0, 45, 95
2, 132216, Note_on_c, 0, 78, 97
2, 132218, Note_on_c, 0, 33, 98
2, 132218, Note_on_c, 0, 76, 92
2, 132218, Note_on_c, 0, 66, 97
2, 132220, Note_on_c, 0, 72, 94
2, 132380, Note_on_c, 0, 45, 0
2, 132404, Note_on_c, 0, 78, 0
2, 132418, Control_c, 0, 64, 127
2, 132420, Note_on_c, 0, 33, 0
2, 132440, Note_on_c, 0, 76, 0
2, 132444, Note_on_c, 0, 66, 0
2, 132450, Note_on_c, 0, 72, 0
2, 132558, Control_c, 0, 64, 0
2, 132614, Note_on_c, 0, 78, 99
2, 132617, Note_on_c, 0, 75, 90
2, 132618, Note_on_c, 0, 45, 28
2, 132620, Note_on_c, 0, 71, 101
2, 132620, Note_on_c, 0, 66, 97
2, 132620, Note_on_c, 0, 47, 87
2, 132622, Note_on_c, 0, 35, 99
2, 132756, Note_on_c, 0, 78, 0
2, 132822, Note_on_c, 0, 75, 0
2, 132880, Control_c, 0, 64, 127
2, 132883, Note_on_c, 0, 45, 0
2, 132894, Note_on_c, 0, 71, 0
2, 132932, Note_on_c, 0, 66, 0
2, 132992, Note_on_c, 0, 47, 0
2, 133014, Note_on_c, 0, 35, 0
2, 133276, Note_on_c, 0, 86, 87
2, 133280, Note_on_c, 0, 71, 87
2, 133280, Note_on_c, 0, 62, 70
2, 133282, Note_on_c, 0, 95, 104
2, 133326, Control_c, 0, 64, 0
2, 133461, Note_on_c, 0, 86, 0
2, 133462, Note_on_c, 0, 71, 0
2, 133478, Control_c, 0, 64, 127
2, 133558, Note_on_c, 0, 89, 79
2, 133560, Note_on_c, 0, 80, 83
2, 133560, Note_on_c, 0, 68, 65
2, 133562, Note_on_c, 0, 77, 72
2, 133586, Note_on_c, 0, 62, 0
2, 133602, Note_on_c, 0, 95, 0
2, 133608, Note_on_c, 0, 89, 0
2, 133608, Note_on_c, 0, 80, 0
2, 133616, Note_on_c, 0, 68, 0
2, 133656, Note_on_c, 0, 77, 0
2, 133788, Note_on_c, 0, 65, 76
2, 133792, Note_on_c, 0, 86, 91
2, 133792, Note_on_c, 0, 74, 83
2, 133795, Note_on_c, 0, 77, 87
2, 133832, Note_on_c, 0, 65, 0
2, 133841, Note_on_c, 0, 86, 0
2, 133844, Note_on_c, 0, 74, 0
2, 133934, Note_on_c, 0, 77, 0
2, 133994, Note_on_c, 0, 83, 75
2, 133995, Note_on_c, 0, 92, 90
2, 134002, Note_on_c, 0, 59, 76
2, 134006, Note_on_c, 0, 68, 53
2, 134042, Note_on_c, 0, 83, 0
2, 134060, Note_on_c, 0, 92, 0
2, 134080, Note_on_c, 0, 59, 0
2, 134098, Note_on_c, 0, 68, 0
2, 134140, Control_c, 0, 64, 0
2, 134178, Note_on_c, 0, 69, 64
2, 134184, Note_on_c, 0, 93, 95
2, 134190, Note_on_c, 0, 84, 95
2, 134194, Note_on_c, 0, 60, 56
2, 134248, Note_on_c, 0, 69, 0
2, 134248, Note_on_c, 0, 93, 0
2, 134324, Control_c, 0, 64, 127
2, 134326, Note_on_c, 0, 84, 0
2, 134352, Note_on_c, 0, 60, 0
2, 134364, Note_on_c, 0, 78, 80
2, 134366, Note_on_c, 0, 87, 65
2, 134366, Note_on_c, 0, 66, 55
2, 134369, Note_on_c, 0, 75, 57
2, 134406, Note_on_c, 0, 78, 0
2, 134416, Note_on_c, 0, 87, 0
2, 134418, Note_on_c, 0, 66, 0
2, 134428, Note_on_c, 0, 75, 0
2, 134538, Note_on_c, 0, 84, 80
2, 134540, Note_on_c, 0, 75, 81
2, 134542, Note_on_c, 0, 72, 64
2, 134543, Note_on_c, 0, 63, 76
2, 134584, Note_on_c, 0, 84, 0
2, 134591, Note_on_c, 0, 75, 0
2, 134612, Note_on_c, 0, 72, 0
2, 134624, Note_on_c, 0, 63, 0
2, 134702, Note_on_c, 0, 90, 93
2, 134706, Note_on_c, 0, 57, 65
2, 134710, Note_on_c, 0, 66, 52
2, 134712, Note_on_c, 0, 81, 62
2, 134754, Note_on_c, 0, 90, 0
2, 134754, Note_on_c, 0, 57, 0
2, 134760, Note_on_c, 0, 66, 0
2, 134790, Note_on_c, 0, 81, 0
2, 134830, Control_c, 0, 64, 0
2, 134870, Note_on_c, 0, 93, 99
2, 134872, Note_on_c, 0, 69, 68
2, 134873, Note_on_c, 0, 84, 96
2, 134875, Note_on_c, 0, 60, 65
2, 134910, Note_on_c, 0, 93, 0
2, 134925, Note_on_c, 0, 69, 0
2, 134986, Control_c, 0, 64, 127
2, 135016, Note_on_c, 0, 84, 0
2, 135028, Note_on_c, 0, 60, 0
2, 135060, Note_on_c, 0, 87, 59
2, 135064, Note_on_c, 0, 78, 73
2, 135066, Note_on_c, 0, 75, 64
2, 135070, Note_on_c, 0, 66, 56
2, 135112, Note_on_c, 0, 87, 0
2, 135126, Note_on_c, 0, 78, 0
2, 135144, Note_on_c, 0, 75, 0
2, 135152, Note_on_c, 0, 66, 0
2, 135228, Note_on_c, 0, 65, 55
2, 135230, Note_on_c, 0, 86, 81
2, 135234, Note_on_c, 0, 77, 83
2, 135234, Note_on_c, 0, 74, 76
2, 135269, Note_on_c, 0, 65, 0
2, 135276, Note_on_c, 0, 86, 0
2, 135288, Note_on_c, 0, 77, 0
2, 135292, Note_on_c, 0, 74, 0
2, 135378, Note_on_c, 0, 68, 62
2, 135381, Note_on_c, 0, 92, 86
2, 135382, Note_on_c, 0, 86, 23
2, 135384, Note_on_c, 0, 59, 27
2, 135384, Note_on_c, 0, 83, 83
2, 135424, Note_on_c, 0, 68, 0
2, 135440, Note_on_c, 0, 92, 0
2, 135448, Note_on_c, 0, 86, 0
2, 135452, Note_on_c, 0, 59, 0
2, 135468, Note_on_c, 0, 83, 0
2, 135548, Note_on_c, 0, 58, 60
2, 135550, Note_on_c, 0, 91, 96
2, 135550, Note_on_c, 0, 82, 88
2, 135550, Note_on_c, 0, 67, 47
2, 135554, Control_c, 0, 64, 0
2, 135628, Note_on_c, 0, 58, 0
2, 135646, Note_on_c, 0, 91, 0
2, 135674, Note_on_c, 0, 82, 0
2, 135676, Control_c, 0, 64, 127
2, 135706, Note_on_c, 0, 67, 0
2, 135720, Note_on_c, 0, 85, 72
2, 135722, Note_on_c, 0, 64, 59
2, 135730, Note_on_c, 0, 76, 61
2, 135731, Note_on_c, 0, 73, 66
2, 135766, Note_on_c, 0, 85, 0
2, 135776, Note_on_c, 0, 64, 0
2, 135782, Note_on_c, 0, 76, 0
2, 135791, Note_on_c, 0, 73, 0
2, 135874, Note_on_c, 0, 75, 80
2, 135874, Note_on_c, 0, 84, 71
2, 135878, Note_on_c, 0, 63, 79
2, 135883, Note_on_c, 0, 72, 74
2, 135927, Note_on_c, 0, 75, 0
2, 135934, Note_on_c, 0, 84, 0
2, 135959, Note_on_c, 0, 63, 0
2, 135980, Note_on_c, 0, 72, 0
2, 136026, Note_on_c, 0, 66, 68
2, 136030, Note_on_c, 0, 90, 88
2, 136030, Note_on_c, 0, 57, 81
2, 136032, Note_on_c, 0, 81, 17
2, 136070, Note_on_c, 0, 66, 0
2, 136070, Note_on_c, 0, 90, 0
2, 136092, Note_on_c, 0, 57, 0
2, 136092, Note_on_c, 0, 81, 0
2, 136168, Control_c, 0, 64, 0
2, 136206, Note_on_c, 0, 69, 77
2, 136212, Note_on_c, 0, 93, 93
2, 136212, Note_on_c, 0, 84, 99
2, 136215, Note_on_c, 0, 60, 67
2, 136264, Note_on_c, 0, 69, 0
2, 136270, Note_on_c, 0, 93, 0
2, 136336, Control_c, 0, 64, 127
2, 136338, Note_on_c, 0, 84, 0
2, 136378, Note_on_c, 0, 60, 0
2, 136386, Note_on_c, 0, 87, 68
2, 136392, Note_on_c, 0, 78, 84
2, 136396, Note_on_c, 0, 66, 52
2, 136396, Note_on_c, 0, 75, 62
2, 136424, Note_on_c, 0, 87, 0
2, 136440, Note_on_c, 0, 78, 0
2, 136443, Note_on_c, 0, 66, 0
2, 136458, Note_on_c, 0, 75, 0
2, 136568, Note_on_c, 0, 63, 69
2, 136569, Note_on_c, 0, 75, 75
2, 136570, Note_on_c, 0, 84, 74
2, 136570, Note_on_c, 0, 72, 56
2, 136614, Note_on_c, 0, 63, 0
2, 136620, Note_on_c, 0, 75, 0
2, 136624, Note_on_c, 0, 84, 0
2, 136637, Note_on_c, 0, 72, 0
2, 136724, Note_on_c, 0, 90, 85
2, 136728, Note_on_c, 0, 81, 57
2, 136729, Note_on_c, 0, 57, 80
2, 136732, Note_on_c, 0, 66, 64
2, 136772, Note_on_c, 0, 90, 0
2, 136779, Note_on_c, 0, 81, 0
2, 136781, Note_on_c, 0, 57, 0
2, 136786, Note_on_c, 0, 66, 0
2, 136874, Control_c, 0, 64, 0
2, 136904, Note_on_c, 0, 92, 92
2, 136907, Note_on_c, 0, 83, 108
2, 136912, Note_on_c, 0, 68, 79
2, 136916, Note_on_c, 0, 59, 64
2, 136960, Note_on_c, 0, 92, 0
2, 137014, Control_c, 0, 64, 127
2, 137059, Note_on_c, 0, 83, 0
2, 137072, Note_on_c, 0, 68, 0
2, 137096, Note_on_c, 0, 86, 73
2, 137100, Note_on_c, 0, 65, 36
2, 137104, Note_on_c, 0, 74, 75
2, 137104, Note_on_c, 0, 77, 62
2, 137122, Note_on_c, 0, 59, 0
2, 137136, Note_on_c, 0, 86, 0
2, 137139, Note_on_c, 0, 65, 0
2, 137148, Note_on_c, 0, 74, 0
2, 137162, Note_on_c, 0, 77, 0
2, 137288, Note_on_c, 0, 71, 76
2, 137288, Note_on_c, 0, 62, 55
2, 137288, Note_on_c, 0, 83, 62
2, 137291, Note_on_c, 0, 74, 76
2, 137332, Note_on_c, 0, 71, 0
2, 137332, Note_on_c, 0, 62, 0
2, 137340, Note_on_c, 0, 83, 0
2, 137360, Note_on_c, 0, 74, 0
2, 137450, Note_on_c, 0, 56, 76
2, 137454, Note_on_c, 0, 80, 75
2, 137454, Note_on_c, 0, 89, 95
2, 137457, Note_on_c, 0, 65, 47
2, 137490, Note_on_c, 0, 56, 0
2, 137496, Note_on_c, 0, 80, 0
2, 137506, Note_on_c, 0, 89, 0
2, 137508, Note_on_c, 0, 65, 0
2, 137596, Control_c, 0, 64, 0
2, 137604, Note_on_c, 0, 92, 98
2, 137608, Note_on_c, 0, 83, 106
2, 137610, Note_on_c, 0, 68, 81
2, 137616, Note_on_c, 0, 59, 29
2, 137684, Note_on_c, 0, 92, 0
2, 137692, Note_on_c, 0, 83, 0
2, 137745, Note_on_c, 0, 68, 0
2, 137752, Control_c, 0, 64, 127
2, 137770, Note_on_c, 0, 77, 78
2, 137774, Note_on_c, 0, 86, 43
2, 137776, Note_on_c, 0, 74, 70
2, 137778, Note_on_c, 0, 65, 47
2, 137806, Note_on_c, 0, 59, 0
2, 137814, Note_on_c, 0, 77, 0
2, 137829, Note_on_c, 0, 86, 0
2, 137830, Note_on_c, 0, 74, 0
2, 137834, Note_on_c, 0, 65, 0
2, 137928, Note_on_c, 0, 85, 56
2, 137932, Note_on_c, 0, 76, 72
2, 137934, Note_on_c, 0, 73, 64
2, 137936, Note_on_c, 0, 64, 65
2, 137976, Note_on_c, 0, 85, 0
2, 137984, Note_on_c, 0, 76, 0
2, 137988, Note_on_c, 0, 73, 0
2, 138030, Note_on_c, 0, 64, 0
2, 138076, Note_on_c, 0, 82, 84
2, 138078, Note_on_c, 0, 67, 72
2, 138080, Note_on_c, 0, 91, 80
2, 138082, Note_on_c, 0, 58, 66
2, 138119, Note_on_c, 0, 82, 0
2, 138126, Note_on_c, 0, 67, 0
2, 138126, Note_on_c, 0, 89, 24
2, 138129, Note_on_c, 0, 91, 0
2, 138190, Note_on_c, 0, 58, 0
2, 138192, Note_on_c, 0, 89, 0
2, 138232, Note_on_c, 0, 81, 86
2, 138232, Note_on_c, 0, 90, 87
2, 138246, Note_on_c, 0, 57, 68
2, 138250, Note_on_c, 0, 66, 79
2, 138258, Control_c, 0, 64, 0
2, 138290, Note_on_c, 0, 81, 0
2, 138320, Note_on_c, 0, 90, 0
2, 138396, Note_on_c, 0, 84, 76
2, 138398, Note_on_c, 0, 63, 63
2, 138398, Note_on_c, 0, 72, 67
2, 138402, Note_on_c, 0, 75, 85
2, 138412, Control_c, 0, 64, 127
2, 138416, Note_on_c, 0, 57, 0
2, 138438, Note_on_c, 0, 66, 0
2, 138440, Note_on_c, 0, 84, 0
2, 138444, Note_on_c, 0, 63, 0
2, 138444, Note_on_c, 0, 72, 0
2, 138504, Note_on_c, 0, 75, 0
2, 138561, Note_on_c, 0, 83, 100
2, 138562, Note_on_c, 0, 71, 89
2, 138564, Note_on_c, 0, 74, 86
2, 138566, Note_on_c, 0, 62, 75
2, 138598, Note_on_c, 0, 83, 0
2, 138607, Note_on_c, 0, 71, 0
2, 138608, Note_on_c, 0, 74, 0
2, 138616, Note_on_c, 0, 62, 0
2, 138702, Note_on_c, 0, 89, 96
2, 138704, Note_on_c, 0, 56, 81
2, 138705, Note_on_c, 0, 65, 75
2, 138705, Note_on_c, 0, 80, 100
2, 138748, Note_on_c, 0, 89, 0
2, 138751, Note_on_c, 0, 56, 0
2, 138752, Note_on_c, 0, 65, 0
2, 138755, Note_on_c, 0, 80, 0
2, 138856, Control_c, 0, 64, 0
2, 138882, Note_on_c, 0, 92, 94
2, 138882, Note_on_c, 0, 68, 86
2, 138892, Note_on_c, 0, 83, 107
2, 138894, Note_on_c, 0, 59, 68
2, 138936, Note_on_c, 0, 92, 0
2, 139002, Note_on_c, 0, 68, 0
2, 139024, Note_on_c, 0, 83, 0
2, 139026, Control_c, 0, 64, 127
2, 139035, Note_on_c, 0, 65, 46
2, 139038, Note_on_c, 0, 59, 0
2, 139048, Note_on_c, 0, 86, 24
2, 139052, Note_on_c, 0, 74, 85
2, 139052, Note_on_c, 0, 77, 71
2, 139088, Note_on_c, 0, 65, 0
2, 139101, Note_on_c, 0, 86, 0
2, 139106, Note_on_c, 0, 74, 0
2, 139114, Note_on_c, 0, 77, 0
2, 139226, Note_on_c, 0, 62, 46
2, 139228, Note_on_c, 0, 71, 80
2, 139228, Note_on_c, 0, 74, 73
2, 139232, Note_on_c, 0, 83, 53
2, 139268, Note_on_c, 0, 62, 0
2, 139270, Note_on_c, 0, 71, 0
2, 139290, Note_on_c, 0, 74, 0
2, 139292, Note_on_c, 0, 83, 0
2, 139382, Note_on_c, 0, 56, 79
2, 139386, Note_on_c, 0, 89, 89
2, 139390, Note_on_c, 0, 65, 46
2, 139392, Note_on_c, 0, 80, 44
2, 139440, Note_on_c, 0, 56, 0
2, 139450, Note_on_c, 0, 89, 0
2, 139456, Note_on_c, 0, 65, 0
2, 139456, Note_on_c, 0, 80, 0
2, 139534, Control_c, 0, 64, 0
2, 139558, Note_on_c, 0, 81, 78
2, 139564, Note_on_c, 0, 90, 83
2, 139568, Note_on_c, 0, 66, 77
2, 139590, Note_on_c, 0, 57, 46
2, 139650, Note_on_c, 0, 81, 0
2, 139664, Note_on_c, 0, 90, 0
2, 139704, Control_c, 0, 64, 127
2, 139732, Note_on_c, 0, 75, 79
2, 139735, Note_on_c, 0, 84, 72
2, 139740, Note_on_c, 0, 66, 0
2, 139742, Note_on_c, 0, 63, 65
2, 139742, Note_on_c, 0, 72, 67
2, 139774, Note_on_c, 0, 57, 0
2, 139774, Note_on_c, 0, 75, 0
2, 139788, Note_on_c, 0, 84, 0
2, 139791, Note_on_c, 0, 63, 0
2, 139830, Note_on_c, 0, 72, 0
2, 139932, Note_on_c, 0, 81, 83
2, 139935, Note_on_c, 0, 72, 76
2, 139937, Note_on_c, 0, 69, 46
2, 139939, Note_on_c, 0, 60, 63
2, 139976, Note_on_c, 0, 81, 0
2, 139995, Note_on_c, 0, 72, 0
2, 139997, Note_on_c, 0, 69, 0
2, 140034, Note_on_c, 0, 60, 0
2, 140092, Note_on_c, 0, 54, 85
2, 140102, Note_on_c, 0, 87, 84
2, 140104, Note_on_c, 0, 63, 72
2, 140106, Note_on_c, 0, 78, 55
2, 140128, Note_on_c, 0, 54, 0
2, 140142, Note_on_c, 0, 87, 0
2, 140154, Note_on_c, 0, 63, 0
2, 140198, Note_on_c, 0, 78, 0
2, 140256, Control_c, 0, 64, 0
2, 140270, Note_on_c, 0, 90, 89
2, 140272, Note_on_c, 0, 66, 76
2, 140278, Note_on_c, 0, 81, 88
2, 140280, Note_on_c, 0, 57, 63
2, 140328, Note_on_c, 0, 90, 0
2, 140378, Control_c, 0, 64, 127
2, 140380, Note_on_c, 0, 66, 0
2, 140402, Note_on_c, 0, 81, 0
2, 140432, Note_on_c, 0, 63, 63
2, 140434, Note_on_c, 0, 72, 69
2, 140434, Note_on_c, 0, 75, 83
2, 140436, Note_on_c, 0, 84, 78
2, 140450, Note_on_c, 0, 57, 0
2, 140478, Note_on_c, 0, 63, 0
2, 140482, Note_on_c, 0, 72, 0
2, 140484, Note_on_c, 0, 75, 0
2, 140544, Note_on_c, 0, 84, 0
2, 140594, Note_on_c, 0, 83, 110
2, 140594, Note_on_c, 0, 71, 80
2, 140596, Note_on_c, 0, 74, 77
2, 140598, Note_on_c, 0, 62, 66
2, 140634, Note_on_c, 0, 83, 0
2, 140648, Note_on_c, 0, 71, 0
2, 140666, Note_on_c, 0, 74, 0
2, 140670, Note_on_c, 0, 62, 0
2, 140748, Note_on_c, 0, 56, 78
2, 140748, Note_on_c, 0, 89, 101
2, 140751, Note_on_c, 0, 80, 81
2, 140758, Note_on_c, 0, 65, 54
2, 140790, Note_on_c, 0, 56, 0
2, 140792, Note_on_c, 0, 89, 0
2, 140802, Note_on_c, 0, 80, 0
2, 140802, Note_on_c, 0, 65, 0
2, 140854, Control_c, 0, 64, 0
2, 140892, Note_on_c, 0, 88, 91
2, 140898, Note_on_c, 0, 64, 88
2, 140898, Note_on_c, 0, 79, 96
2, 140900, Note_on_c, 0, 55, 82
2, 140932, Note_on_c, 0, 88, 0
2, 140938, Note_on_c, 0, 64, 0
2, 140946, Note_on_c, 0, 82, 13
2, 141006, Note_on_c, 0, 79, 0
2, 141020, Control_c, 0, 64, 127
2, 141022, Note_on_c, 0, 55, 0
2, 141048, Note_on_c, 0, 61, 58
2, 141056, Note_on_c, 0, 73, 90
2, 141057, Note_on_c, 0, 70, 64
2, 141060, Note_on_c, 0, 82, 69
2, 141068, Note_on_c, 0, 82, 0
2, 141104, Note_on_c, 0, 61, 0
2, 141129, Note_on_c, 0, 73, 0
2, 141130, Note_on_c, 0, 70, 0
2, 141162, Note_on_c, 0, 82, 0
2, 141206, Note_on_c, 0, 69, 69
2, 141210, Note_on_c, 0, 60, 84
2, 141218, Note_on_c, 0, 72, 83
2, 141218, Note_on_c, 0, 81, 81
2, 141252, Note_on_c, 0, 69, 0
2, 141258, Note_on_c, 0, 60, 0
2, 141288, Note_on_c, 0, 72, 0
2, 141298, Note_on_c, 0, 81, 0
2, 141360, Note_on_c, 0, 54, 92
2, 141360, Note_on_c, 0, 87, 82
2, 141360, Note_on_c, 0, 78, 74
2, 141364, Note_on_c, 0, 63, 83
2, 141484, Control_c, 0, 64, 0
2, 141529, Note_on_c, 0, 54, 0
2, 141530, Note_on_c, 0, 87, 0
2, 141530, Note_on_c, 0, 86, 93
2, 141532, Note_on_c, 0, 53, 100
2, 141534, Note_on_c, 0, 78, 0
2, 141538, Note_on_c, 0, 77, 83
2, 141540, Note_on_c, 0, 62, 91
2, 141542, Note_on_c, 0, 63, 0
2, 141576, Note_on_c, 0, 86, 0
2, 141638, Control_c, 0, 64, 127
2, 141642, Note_on_c, 0, 53, 0
2, 141678, Note_on_c, 0, 77, 0
2, 141700, Note_on_c, 0, 62, 0
2, 141710, Note_on_c, 0, 68, 72
2, 141714, Note_on_c, 0, 59, 59
2, 141714, Note_on_c, 0, 80, 79
2, 141716, Note_on_c, 0, 71, 89
2, 141760, Note_on_c, 0, 68, 0
2, 141760, Note_on_c, 0, 59, 0
2, 141776, Note_on_c, 0, 80, 0
2, 141834, Note_on_c, 0, 71, 0
2, 141900, Control_c, 0, 64, 0
2, 141900, Note_on_c, 0, 79, 84
2, 141906, Note_on_c, 0, 70, 70
2, 141907, Note_on_c, 0, 67, 81
2, 141908, Note_on_c, 0, 58, 67
2, 142050, Note_on_c, 0, 79, 0
2, 142052, Control_c, 0, 64, 127
2, 142090, Note_on_c, 0, 70, 0
2, 142093, Note_on_c, 0, 85, 86
2, 142097, Note_on_c, 0, 67, 0
2, 142104, Note_on_c, 0, 76, 66
2, 142110, Note_on_c, 0, 58, 0
2, 142112, Note_on_c, 0, 61, 73
2, 142115, Note_on_c, 0, 52, 84
2, 142154, Note_on_c, 0, 85, 0
2, 142206, Note_on_c, 0, 76, 0
2, 142256, Note_on_c, 0, 61, 0
2, 142259, Note_on_c, 0, 52, 0
2, 142322, Note_on_c, 0, 79, 87
2, 142323, Note_on_c, 0, 58, 59
2, 142323, Note_on_c, 0, 67, 67
2, 142325, Note_on_c, 0, 70, 68
2, 142365, Note_on_c, 0, 79, 0
2, 142373, Note_on_c, 0, 58, 0
2, 142500, Note_on_c, 0, 67, 0
2, 142506, Note_on_c, 0, 85, 83
2, 142510, Note_on_c, 0, 70, 0
2, 142514, Note_on_c, 0, 61, 66
2, 142520, Note_on_c, 0, 52, 69
2, 142520, Note_on_c, 0, 76, 62
2, 142562, Note_on_c, 0, 85, 0
2, 142622, Note_on_c, 0, 61, 0
2, 142644, Note_on_c, 0, 52, 0
2, 142656, Note_on_c, 0, 76, 0
2, 142690, Note_on_c, 0, 79, 81
2, 142692, Note_on_c, 0, 67, 75
2, 142694, Note_on_c, 0, 70, 71
2, 142695, Note_on_c, 0, 58, 60
2, 142736, Note_on_c, 0, 79, 0
2, 142744, Note_on_c, 0, 67, 0
2, 142851, Note_on_c, 0, 70, 0
2, 142854, Note_on_c, 0, 60, 70
2, 142854, Note_on_c, 0, 84, 84
2, 142860, Note_on_c, 0, 58, 0
2, 142872, Note_on_c, 0, 76, 67
2, 142880, Note_on_c, 0, 52, 54
2, 142932, Note_on_c, 0, 60, 0
2, 142970, Note_on_c, 0, 84, 0
2, 142982, Note_on_c, 0, 76, 0
2, 143032, Note_on_c, 0, 58, 55
2, 143032, Note_on_c, 0, 70, 76
2, 143035, Note_on_c, 0, 66, 76
2, 143035, Note_on_c, 0, 78, 89
2, 143040, Note_on_c, 0, 52, 0
2, 143052, Control_c, 0, 64, 0
2, 143160, Control_c, 0, 64, 127
2, 143180, Note_on_c, 0, 58, 0
2, 143193, Note_on_c, 0, 70, 0
2, 143194, Note_on_c, 0, 66, 0
2, 143216, Note_on_c, 0, 84, 87
2, 143230, Note_on_c, 0, 60, 70
2, 143232, Note_on_c, 0, 52, 56
2, 143232, Note_on_c, 0, 76, 54
2, 143242, Note_on_c, 0, 78, 0
2, 143282, Note_on_c, 0, 84, 0
2, 143288, Note_on_c, 0, 60, 0
2, 143340, Note_on_c, 0, 52, 0
2, 143364, Note_on_c, 0, 76, 0
2, 143394, Note_on_c, 0, 78, 75
2, 143396, Note_on_c, 0, 70, 80
2, 143400, Note_on_c, 0, 66, 66
2, 143402, Note_on_c, 0, 58, 48
2, 143436, Control_c, 0, 64, 0
2, 143552, Note_on_c, 0, 78, 0
2, 143558, Control_c, 0, 64, 127
2, 143573, Note_on_c, 0, 70, 0
2, 143596, Note_on_c, 0, 66, 0
2, 143610, Note_on_c, 0, 84, 84
2, 143614, Note_on_c, 0, 76, 72
2, 143614, Note_on_c, 0, 60, 55
2, 143616, Note_on_c, 0, 52, 76
2, 143658, Note_on_c, 0, 58, 0
2, 143662, Note_on_c, 0, 84, 0
2, 143706, Note_on_c, 0, 76, 0
2, 143754, Note_on_c, 0, 60, 0
2, 143754, Note_on_c, 0, 52, 0
2, 143804, Note_on_c, 0, 78, 81
2, 143806, Note_on_c, 0, 66, 67
2, 143809, Note_on_c, 0, 69, 66
2, 143814, Note_on_c, 0, 57, 49
2, 144009, Note_on_c, 0, 78, 0
2, 144022, Note_on_c, 0, 76, 64
2, 144025, Note_on_c, 0, 84, 87
2, 144025, Note_on_c, 0, 52, 71
2, 144032, Note_on_c, 0, 60, 66
2, 144034, Control_c, 0, 64, 0
2, 144040, Note_on_c, 0, 66, 0
2, 144044, Note_on_c, 0, 69, 0
2, 144091, Note_on_c, 0, 57, 0
2, 144134, Note_on_c, 0, 76, 0
2, 144172, Control_c, 0, 64, 127
2, 144268, Note_on_c, 0, 84, 0
2, 144285, Note_on_c, 0, 66, 77
2, 144285, Note_on_c, 0, 78, 84
2, 144287, Note_on_c, 0, 69, 70
2, 144289, Note_on_c, 0, 57, 57
2, 144292, Note_on_c, 0, 52, 0
2, 144309, Note_on_c, 0, 60, 0
2, 144339, Note_on_c, 0, 66, 0
2, 144343, Note_on_c, 0, 78, 0
2, 144505, Note_on_c, 0, 69, 0
2, 144745, Note_on_c, 0, 83, 111
2, 144745, Note_on_c, 0, 75, 72
2, 144749, Note_on_c, 0, 59, 64
2, 144751, Note_on_c, 0, 47, 61
2, 144805, Control_c, 0, 64, 0
2, 144841, Note_on_c, 0, 57, 0
2, 145067, Control_c, 0, 64, 127
2, 145069, Note_on_c, 0, 83, 0
2, 145111, Note_on_c, 0, 75, 0
2, 145137, Note_on_c, 0, 59, 0
2, 145143, Note_on_c, 0, 47, 0
2, 145993, Note_on_c, 0, 71, 70
2, 146003, Note_on_c, 0, 62, 39
2, 146003, Note_on_c, 0, 52, 63
2, 146141, Control_c, 0, 64, 0
2, 146409, Note_on_c, 0, 68, 69
2, 146429, Note_on_c, 0, 64, 47
2, 146465, Note_on_c, 0, 71, 0
2, 146465, Control_c, 0, 64, 127
2, 146475, Note_on_c, 0, 62, 0
2, 146511, Note_on_c, 0, 52, 0
2, 146743, Note_on_c, 0, 61, 60
2, 146745, Note_on_c, 0, 71, 80
2, 146757, Note_on_c, 0, 45, 41
2, 146769, Note_on_c, 0, 68, 0
2, 146773, Control_c, 0, 64, 0
2, 146789, Note_on_c, 0, 64, 0
2, 147033, Control_c, 0, 64, 127
2, 147049, Note_on_c, 0, 61, 0
2, 147057, Note_on_c, 0, 69, 63
2, 147069, Note_on_c, 0, 64, 34
2, 147081, Note_on_c, 0, 71, 0
2, 147084, Note_on_c, 0, 45, 0
2, 147129, Note_on_c, 0, 69, 0
2, 147179, Note_on_c, 0, 64, 0
2, 147381, Note_on_c, 0, 66, 51
2, 147393, Note_on_c, 0, 48, 44
2, 147396, Note_on_c, 0, 57, 36
2, 147417, Control_c, 0, 64, 0
2, 147689, Note_on_c, 0, 66, 0
2, 147705, Note_on_c, 0, 64, 44
2, 147817, Control_c, 0, 64, 127
2, 148011, Note_on_c, 0, 57, 28
2, 148019, Note_on_c, 0, 48, 0
2, 148031, Note_on_c, 0, 47, 32
2, 148073, Note_on_c, 0, 57, 0
2, 148123, Control_c, 0, 64, 0
2, 148385, Control_c, 0, 64, 127
2, 148417, Note_on_c, 0, 63, 36
2, 148420, Note_on_c, 0, 64, 0
2, 148523, Note_on_c, 0, 57, 0
2, 148567, Note_on_c, 0, 47, 0
2, 148701, Note_on_c, 0, 63, 0
2, 148741, Note_on_c, 0, 71, 66
2, 148759, Note_on_c, 0, 62, 42
2, 148765, Note_on_c, 0, 52, 40
2, 148847, Control_c, 0, 64, 0
2, 149031, Control_c, 0, 64, 127
2, 149043, Note_on_c, 0, 71, 0
2, 149048, Note_on_c, 0, 68, 61
2, 149051, Note_on_c, 0, 54, 52
2, 149071, Note_on_c, 0, 62, 0
2, 149075, Note_on_c, 0, 52, 0
2, 149085, Note_on_c, 0, 64, 38
2, 149143, Note_on_c, 0, 68, 0
2, 149195, Note_on_c, 0, 54, 0
2, 149223, Note_on_c, 0, 52, 65
2, 149291, Note_on_c, 0, 64, 0
2, 149329, Note_on_c, 0, 71, 68
2, 149341, Note_on_c, 0, 61, 39
2, 149353, Note_on_c, 0, 52, 0
2, 149353, Control_c, 0, 64, 0
2, 149381, Note_on_c, 0, 45, 43
2, 149561, Note_on_c, 0, 71, 0
2, 149583, Control_c, 0, 64, 127
2, 149621, Note_on_c, 0, 69, 55
2, 149641, Note_on_c, 0, 61, 0
2, 149641, Note_on_c, 0, 64, 38
2, 149687, Note_on_c, 0, 45, 0
2, 149701, Note_on_c, 0, 69, 0
2, 149711, Note_on_c, 0, 64, 0
2, 149925, Note_on_c, 0, 66, 53
2, 149935, Note_on_c, 0, 57, 40
2, 149939, Note_on_c, 0, 48, 36
2, 150015, Control_c, 0, 64, 0
2, 150239, Note_on_c, 0, 66, 0
2, 150249, Note_on_c, 0, 64, 39
2, 150259, Control_c, 0, 64, 127
2, 150511, Note_on_c, 0, 57, 0
2, 150567, Control_c, 0, 64, 0
2, 150581, Note_on_c, 0, 57, 29
2, 150584, Note_on_c, 0, 47, 36
2, 150651, Note_on_c, 0, 48, 0
2, 150951, Note_on_c, 0, 63, 38
2, 150967, Control_c, 0, 64, 127
2, 151037, Note_on_c, 0, 64, 0
2, 151153, Note_on_c, 0, 57, 0
2, 151297, Note_on_c, 0, 68, 55
2, 151307, Note_on_c, 0, 47, 0
2, 151329, Note_on_c, 0, 57, 31
2, 151361, Note_on_c, 0, 35, 38
2, 151569, Note_on_c, 0, 63, 0
2, 151609, Note_on_c, 0, 68, 0
2, 151669, Note_on_c, 0, 66, 60
2, 151689, Note_on_c, 0, 59, 47
2, 151767, Note_on_c, 0, 57, 0
2, 151803, Note_on_c, 0, 35, 0
2, 151821, Note_on_c, 0, 66, 0
2, 151979, Note_on_c, 0, 66, 62
2, 151989, Note_on_c, 0, 56, 39
2, 152003, Note_on_c, 0, 40, 44
2, 152087, Note_on_c, 0, 59, 0
2, 152181, Control_c, 0, 64, 0
2, 152283, Note_on_c, 0, 64, 74
2, 152317, Note_on_c, 0, 59, 32
2, 152357, Note_on_c, 0, 66, 0
2, 152411, Control_c, 0, 64, 127
2, 152433, Note_on_c, 0, 56, 0
2, 152485, Note_on_c, 0, 40, 0
2, 152563, Note_on_c, 0, 64, 0
2, 152577, Note_on_c, 0, 61, 70
2, 152605, Note_on_c, 0, 55, 39
2, 152608, Note_on_c, 0, 47, 35
2, 152611, Control_c, 0, 64, 0
2, 152637, Note_on_c, 0, 59, 0
2, 152869, Note_on_c, 0, 59, 36
2, 152873, Control_c, 0, 64, 127
2, 152895, Note_on_c, 0, 61, 0
2, 152977, Note_on_c, 0, 55, 0
2, 153191, Note_on_c, 0, 64, 45
2, 153194, Note_on_c, 0, 54, 32
2, 153257, Note_on_c, 0, 47, 0
2, 153287, Control_c, 0, 64, 0
2, 153501, Control_c, 0, 64, 127
2, 153607, Note_on_c, 0, 63, 38
2, 153609, Note_on_c, 0, 59, 0
2, 153629, Note_on_c, 0, 59, 22
2, 153659, Note_on_c, 0, 64, 0
2, 153707, Note_on_c, 0, 54, 0
2, 153719, Note_on_c, 0, 63, 0
2, 153991, Note_on_c, 0, 68, 46
2, 154023, Note_on_c, 0, 57, 31
2, 154067, Note_on_c, 0, 35, 15
2, 154285, Note_on_c, 0, 59, 0
2, 154285, Note_on_c, 0, 37, 39
2, 154325, Note_on_c, 0, 66, 40
2, 154328, Note_on_c, 0, 68, 0
2, 154331, Note_on_c, 0, 57, 0
2, 154415, Note_on_c, 0, 59, 5
2, 154427, Note_on_c, 0, 35, 0
2, 154471, Note_on_c, 0, 37, 0
2, 154485, Note_on_c, 0, 35, 51
2, 154551, Note_on_c, 0, 66, 0
2, 154643, Note_on_c, 0, 59, 0
2, 154655, Note_on_c, 0, 66, 40
2, 154665, Note_on_c, 0, 56, 38
2, 154685, Control_c, 0, 64, 0
2, 154691, Note_on_c, 0, 35, 0
2, 154697, Note_on_c, 0, 40, 48
2, 154995, Note_on_c, 0, 64, 49
2, 155013, Note_on_c, 0, 59, 31
2, 155023, Control_c, 0, 64, 127
2, 155033, Note_on_c, 0, 66, 0
2, 155063, Note_on_c, 0, 56, 0
2, 155125, Note_on_c, 0, 40, 0
2, 155141, Note_on_c, 0, 64, 0
2, 155149, Note_on_c, 0, 59, 0
2, 155293, Note_on_c, 0, 61, 56
2, 155311, Note_on_c, 0, 47, 37
2, 155313, Note_on_c, 0, 55, 39
2, 155423, Control_c, 0, 64, 0
2, 155607, Note_on_c, 0, 59, 37
2, 155621, Note_on_c, 0, 61, 0
2, 155621, Control_c, 0, 64, 127
2, 155735, Note_on_c, 0, 47, 0
2, 155891, Note_on_c, 0, 54, 32
2, 155891, Note_on_c, 0, 64, 48
2, 155957, Note_on_c, 0, 55, 0
2, 156053, Control_c, 0, 64, 0
2, 156253, Control_c, 0, 64, 127
2, 156273, Note_on_c, 0, 63, 47
2, 156299, Note_on_c, 0, 59, 23
2, 156323, Note_on_c, 0, 59, 0
2, 156417, Note_on_c, 0, 54, 0
2, 156423, Note_on_c, 0, 64, 0
2, 156559, Note_on_c, 0, 55, 45
2, 156577, Note_on_c, 0, 40, 40
2, 156731, Note_on_c, 0, 63, 0
2, 156757, Note_on_c, 0, 42, 36
2, 156839, Note_on_c, 0, 61, 56
2, 156883, Note_on_c, 0, 59, 25
2, 156891, Note_on_c, 0, 59, 0
2, 156911, Note_on_c, 0, 55, 0
2, 156943, Note_on_c, 0, 40, 0
2, 156947, Note_on_c, 0, 40, 37
2, 157023, Note_on_c, 0, 42, 0
2, 157053, Note_on_c, 0, 61, 0
2, 157077, Note_on_c, 0, 59, 0
2, 157153, Note_on_c, 0, 54, 33
2, 157157, Note_on_c, 0, 64, 48
2, 157159, Note_on_c, 0, 35, 48
2, 157189, Control_c, 0, 64, 0
2, 157225, Note_on_c, 0, 40, 0
2, 157415, Note_on_c, 0, 54, 0
2, 157420, Control_c, 0, 64, 127
2, 157469, Note_on_c, 0, 63, 44
2, 157523, Note_on_c, 0, 64, 0
2, 157523, Note_on_c, 0, 59, 15
2, 157607, Note_on_c, 0, 35, 0
2, 157765, Note_on_c, 0, 55, 47
2, 157777, Note_on_c, 0, 47, 30
2, 157787, Note_on_c, 0, 63, 0
2, 158031, Note_on_c, 0, 61, 55
2, 158049, Note_on_c, 0, 59, 0
2, 158059, Note_on_c, 0, 55, 0
2, 158085, Note_on_c, 0, 59, 16
2, 158187, Note_on_c, 0, 47, 0
2, 158335, Note_on_c, 0, 54, 33
2, 158345, Note_on_c, 0, 64, 46
2, 158403, Note_on_c, 0, 61, 0
2, 158481, Control_c, 0, 64, 0
2, 158619, Control_c, 0, 64, 127
2, 158651, Note_on_c, 0, 63, 36
2, 158677, Note_on_c, 0, 59, 17
2, 158689, Note_on_c, 0, 59, 0
2, 158775, Note_on_c, 0, 54, 0
2, 158791, Note_on_c, 0, 64, 0
2, 158917, Note_on_c, 0, 55, 43
2, 158957, Control_c, 0, 64, 0
2, 158979, Note_on_c, 0, 40, 25
2, 159093, Note_on_c, 0, 63, 0
2, 159111, Note_on_c, 0, 59, 0
2, 159139, Note_on_c, 0, 42, 25
2, 159141, Control_c, 0, 64, 127
2, 159187, Note_on_c, 0, 61, 43
2, 159213, Note_on_c, 0, 59, 22
2, 159225, Note_on_c, 0, 55, 0
2, 159281, Note_on_c, 0, 40, 0
2, 159335, Note_on_c, 0, 42, 0
2, 159353, Note_on_c, 0, 61, 0
2, 159359, Note_on_c, 0, 40, 45
2, 159429, Note_on_c, 0, 59, 0
2, 159543, Note_on_c, 0, 54, 32
2, 159555, Control_c, 0, 64, 0
2, 159561, Note_on_c, 0, 64, 41
2, 159595, Note_on_c, 0, 47, 38
2, 159655, Note_on_c, 0, 40, 0
2, 159909, Control_c, 0, 64, 127
2, 159963, Note_on_c, 0, 63, 35
2, 159975, Note_on_c, 0, 54, 0
2, 159985, Note_on_c, 0, 59, 19
2, 160101, Note_on_c, 0, 64, 0
2, 160191, Note_on_c, 0, 47, 0
2, 160267, Note_on_c, 0, 55, 46
2, 160629, Note_on_c, 0, 61, 48
2, 160647, Note_on_c, 0, 59, 30
2, 160707, Note_on_c, 0, 63, 0
2, 161061, Control_c, 0, 64, 0
2, 161071, Note_on_c, 0, 54, 29
2, 161089, Note_on_c, 0, 59, 0
2, 161094, Note_on_c, 0, 64, 41
2, 161141, Note_on_c, 0, 55, 0
2, 161167, Note_on_c, 0, 61, 0
2, 161277, Note_on_c, 0, 59, 0
2, 161431, Control_c, 0, 64, 127
2, 161495, Note_on_c, 0, 63, 40
2, 161511, Note_on_c, 0, 54, 0
2, 161515, Note_on_c, 0, 59, 22
2, 161551, Note_on_c, 0, 64, 0
2, 161849, Note_on_c, 0, 54, 34
2, 161853, Note_on_c, 0, 63, 0
2, 161869, Note_on_c, 0, 64, 43
2, 161873, Note_on_c, 0, 59, 0
2, 162155, Note_on_c, 0, 54, 0
2, 162183, Note_on_c, 0, 64, 0
2, 162186, Note_on_c, 0, 63, 48
2, 162195, Note_on_c, 0, 59, 43
2, 162491, Note_on_c, 0, 54, 35
2, 162497, Note_on_c, 0, 64, 47
2, 162505, Note_on_c, 0, 63, 0
2, 162513, Note_on_c, 0, 59, 0
2, 162521, Control_c, 0, 64, 0
2, 162691, Control_c, 0, 64, 127
2, 162801, Note_on_c, 0, 54, 0
2, 162811, Note_on_c, 0, 63, 38
2, 162819, Note_on_c, 0, 61, 33
2, 162821, Note_on_c, 0, 64, 0
2, 163149, Note_on_c, 0, 54, 35
2, 163151, Control_c, 0, 64, 0
2, 163165, Note_on_c, 0, 63, 0
2, 163175, Note_on_c, 0, 42, 34
2, 163175, Note_on_c, 0, 64, 35
2, 163183, Note_on_c, 0, 61, 0
2, 163427, Control_c, 0, 64, 127
2, 163479, Note_on_c, 0, 54, 0
2, 163491, Note_on_c, 0, 44, 38
2, 163583, Note_on_c, 0, 42, 0
2, 163615, Note_on_c, 0, 63, 39
2, 163627, Note_on_c, 0, 64, 0
2, 163627, Control_c, 0, 64, 0
2, 163633, Note_on_c, 0, 61, 29
2, 163741, Note_on_c, 0, 42, 36
2, 163777, Note_on_c, 0, 44, 0
2, 163795, Control_c, 0, 64, 127
2, 164019, Note_on_c, 0, 63, 0
2, 164025, Note_on_c, 0, 61, 0
2, 164029, Note_on_c, 0, 42, 0
2, 164035, Note_on_c, 0, 54, 29
2, 164057, Control_c, 0, 64, 0
2, 164059, Note_on_c, 0, 64, 31
2, 164111, Note_on_c, 0, 35, 40
2, 164471, Note_on_c, 0, 63, 35
2, 164489, Note_on_c, 0, 54, 0
2, 164489, Note_on_c, 0, 64, 0
2, 164497, Note_on_c, 0, 57, 20
2, 164519, Control_c, 0, 64, 127
2, 164663, Note_on_c, 0, 35, 0
2, 164881, Note_on_c, 0, 64, 38
2, 164884, Note_on_c, 0, 54, 31
2, 164891, Note_on_c, 0, 63, 0
2, 164987, Note_on_c, 0, 57, 0
2, 165303, Note_on_c, 0, 63, 38
2, 165309, Note_on_c, 0, 64, 0
2, 165337, Note_on_c, 0, 57, 17
2, 165379, Control_c, 0, 64, 0
2, 165533, Control_c, 0, 64, 127
2, 165551, Note_on_c, 0, 54, 0
2, 165801, Note_on_c, 0, 64, 26
2, 165803, Note_on_c, 0, 54, 24
2, 165815, Note_on_c, 0, 63, 0
2, 165825, Control_c, 0, 64, 0
2, 166055, Control_c, 0, 64, 127
2, 166249, Note_on_c, 0, 57, 0
2, 166347, Note_on_c, 0, 63, 28
2, 166367, Note_on_c, 0, 64, 0
2, 166377, Control_c, 0, 64, 0
2, 166387, Note_on_c, 0, 59, 12
2, 166625, Control_c, 0, 64, 127
2, 166917, Note_on_c, 0, 54, 0
2, 166939, Note_on_c, 0, 63, 0
2, 166947, Note_on_c, 0, 61, 23
2, 166953, Note_on_c, 0, 54, 20
2, 167039, Control_c, 0, 64, 0
2, 167223, Control_c, 0, 64, 127
2, 167343, Note_on_c, 0, 59, 0
2, 167805, Note_on_c, 0, 63, 27
2, 167813, Note_on_c, 0, 61, 0
2, 167841, Note_on_c, 0, 59, 9
2, 167921, Note_on_c, 0, 54, 0
2, 168175, Control_c, 0, 64, 0
2, 168345, Control_c, 0, 64, 127
2, 168447, Note_on_c, 0, 63, 0
2, 168895, Note_on_c, 0, 64, 34
2, 168919, Note_on_c, 0, 56, 15
2, 168927, Note_on_c, 0, 40, 22
2, 168999, Note_on_c, 0, 59, 0
2, 169373, Control_c, 0, 64, 0
2, 169619, Control_c, 0, 64, 127
2, 169893, Note_on_c, 0, 47, 9
2, 169923, Note_on_c, 0, 59, 7
2, 169955, Note_on_c, 0, 64, 0
2, 170197, Note_on_c, 0, 56, 0
2, 170491, Note_on_c, 0, 63, 32
2, 170513, Note_on_c, 0, 56, 12
2, 170553, Note_on_c, 0, 40, 0
2, 170593, Note_on_c, 0, 47, 0
2, 170795, Note_on_c, 0, 59, 0
2, 171051, Note_on_c, 0, 64, 45
2, 171075, Note_on_c, 0, 47, 11
2, 171101, Note_on_c, 0, 59, 15
2, 171127, Note_on_c, 0, 63, 0
2, 171173, Control_c, 0, 64, 0
2, 171295, Control_c, 0, 64, 127
2, 171321, Note_on_c, 0, 56, 0
2, 171349, Note_on_c, 0, 64, 0
2, 171545, Note_on_c, 0, 66, 29
2, 171573, Note_on_c, 0, 47, 0
2, 171573, Note_on_c, 0, 35, 29
2, 171589, Note_on_c, 0, 57, 21
2, 171591, Note_on_c, 0, 59, 0
2, 171591, Note_on_c, 0, 63, 17
2, 171663, Control_c, 0, 64, 0
2, 171925, Control_c, 0, 64, 127
2, 172063, Note_on_c, 0, 66, 0
2, 172195, Note_on_c, 0, 47, 19
2, 172209, Note_on_c, 0, 59, 17
2, 172277, Control_c, 0, 64, 0
2, 172401, Control_c, 0, 64, 127
2, 172577, Note_on_c, 0, 35, 0
2, 172607, Note_on_c, 0, 57, 0
2, 172727, Note_on_c, 0, 57, 10
2, 173045, Note_on_c, 0, 63, 0
2, 173231, Note_on_c, 0, 59, 25
2, 173237, Note_on_c, 0, 47, 12
2, 173355, Note_on_c, 0, 47, 0
2, 173485, Note_on_c, 0, 59, 0
2, 173565, Note_on_c, 0, 57, 0
2, 173741, Note_on_c, 0, 57, 21
2, 173773, Note_on_c, 0, 35, 26
2, 173909, Note_on_c, 0, 59, 0
2, 174033, Note_on_c, 0, 47, 0
2, 174039, Note_on_c, 0, 57, 0
2, 174253, Note_on_c, 0, 68, 49
2, 174307, Note_on_c, 0, 47, 17
2, 174311, Note_on_c, 0, 59, 15
2, 174429, Note_on_c, 0, 35, 0
2, 174547, Note_on_c, 0, 68, 0
2, 174819, Note_on_c, 0, 68, 48
2, 174875, Note_on_c, 0, 57, 15
2, 174878, Note_on_c, 0, 63, 29
2, 174977, Note_on_c, 0, 47, 0
2, 175123, Note_on_c, 0, 59, 0
2, 175405, Note_on_c, 0, 66, 43
2, 175455, Note_on_c, 0, 47, 19
2, 175467, Note_on_c, 0, 59, 19
2, 175471, Note_on_c, 0, 68, 0
2, 175499, Note_on_c, 0, 57, 0
2, 175609, Note_on_c, 0, 63, 0
2, 175789, Note_on_c, 0, 66, 0
2, 175901, Note_on_c, 0, 47, 0
2, 176147, Note_on_c, 0, 68, 31
2, 176173, Note_on_c, 0, 40, 30
2, 176179, Note_on_c, 0, 56, 8
2, 176219, Note_on_c, 0, 64, 18
2, 176257, Note_on_c, 0, 59, 0
2, 176303, Control_c, 0, 64, 0
2, 176773, Note_on_c, 0, 68, 0
2, 176795, Control_c, 0, 64, 127
2, 176829, Note_on_c, 0, 59, 22
2, 176843, Note_on_c, 0, 47, 18
2, 177023, Note_on_c, 0, 40, 0
2, 177307, Note_on_c, 0, 56, 17
2, 177351, Note_on_c, 0, 56, 0
2, 177563, Note_on_c, 0, 64, 0
2, 177779, Note_on_c, 0, 47, 16
2, 177797, Note_on_c, 0, 59, 18
2, 177829, Note_on_c, 0, 59, 0
2, 177975, Note_on_c, 0, 47, 0
2, 178097, Note_on_c, 0, 56, 0
2, 178311, Note_on_c, 0, 56, 15
2, 178323, Note_on_c, 0, 40, 26
2, 178489, Note_on_c, 0, 47, 0
2, 178555, Note_on_c, 0, 59, 0
2, 178683, Note_on_c, 0, 56, 0
2, 179005, Note_on_c, 0, 69, 46
2, 179049, Note_on_c, 0, 47, 22
2, 179091, Note_on_c, 0, 64, 10
2, 179219, Note_on_c, 0, 40, 0
2, 179257, Note_on_c, 0, 69, 0
2, 179523, Note_on_c, 0, 69, 66
2, 179569, Note_on_c, 0, 59, 37
2, 179591, Note_on_c, 0, 47, 0
2, 179845, Note_on_c, 0, 64, 0
2, 179987, Note_on_c, 0, 68, 76
2, 180017, Note_on_c, 0, 47, 23
2, 180027, Note_on_c, 0, 69, 0
2, 180043, Note_on_c, 0, 64, 23
2, 180225, Note_on_c, 0, 59, 0
2, 180257, Note_on_c, 0, 68, 0
2, 180259, Note_on_c, 0, 47, 0
2, 180365, Note_on_c, 0, 64, 0
2, 180627, Note_on_c, 0, 73, 64
2, 180679, Note_on_c, 0, 63, 21
2, 180695, Note_on_c, 0, 35, 23
2, 180775, Control_c, 0, 64, 0
2, 181251, Note_on_c, 0, 47, 21
2, 181265, Note_on_c, 0, 69, 10
2, 181337, Note_on_c, 0, 73, 0
2, 181343, Control_c, 0, 64, 127
2, 181465, Note_on_c, 0, 63, 0
2, 181485, Note_on_c, 0, 35, 0
2, 181529, Note_on_c, 0, 47, 0
2, 181815, Note_on_c, 0, 59, 20
2, 181933, Note_on_c, 0, 69, 0
2, 182335, Note_on_c, 0, 71, 60
2, 182361, Note_on_c, 0, 63, 20
2, 182385, Note_on_c, 0, 47, 17
2, 182585, Note_on_c, 0, 59, 0
2, 182687, Note_on_c, 0, 71, 0
2, 182939, Note_on_c, 0, 69, 34
2, 182975, Note_on_c, 0, 40, 27
2, 183011, Note_on_c, 0, 63, 0
2, 183014, Note_on_c, 0, 59, 4
2, 183095, Control_c, 0, 64, 0
2, 183123, Note_on_c, 0, 47, 0
2, 183309, Control_c, 0, 64, 127
2, 183363, Note_on_c, 0, 69, 0
2, 183481, Note_on_c, 0, 40, 0
2, 183483, Note_on_c, 0, 68, 33
2, 183521, Note_on_c, 0, 47, 20
2, 183549, Note_on_c, 0, 64, 15
2, 183627, Note_on_c, 0, 59, 0
2, 183721, Note_on_c, 0, 68, 0
2, 183939, Note_on_c, 0, 63, 49
2, 183955, Note_on_c, 0, 56, 21
2, 184005, Note_on_c, 0, 47, 0
2, 184167, Note_on_c, 0, 64, 0
2, 184225, Note_on_c, 0, 63, 0
2, 184407, Note_on_c, 0, 64, 49
2, 184429, Note_on_c, 0, 47, 17
2, 184453, Note_on_c, 0, 59, 19
2, 184563, Note_on_c, 0, 56, 0
2, 184657, Note_on_c, 0, 64, 0
2, 184667, Note_on_c, 0, 47, 0
2, 184675, Note_on_c, 0, 59, 0
2, 184897, Note_on_c, 0, 66, 33
2, 184927, Note_on_c, 0, 57, 24
2, 184947, Note_on_c, 0, 61, 21
2, 184951, Note_on_c, 0, 35, 24
2, 185001, Control_c, 0, 64, 0
2, 185325, Note_on_c, 0, 66, 0
2, 185365, Note_on_c, 0, 63, 35
2, 185391, Note_on_c, 0, 57, 0
2, 185397, Note_on_c, 0, 59, 24
2, 185419, Note_on_c, 0, 47, 20
2, 185721, Control_c, 0, 64, 127
2, 185773, Note_on_c, 0, 61, 0
2, 185809, Note_on_c, 0, 35, 0
2, 185821, Note_on_c, 0, 61, 26
2, 185841, Note_on_c, 0, 57, 17
2, 185891, Control_c, 0, 64, 0
2, 186017, Note_on_c, 0, 63, 0
2, 186045, Control_c, 0, 64, 127
2, 186194, Note_on_c, 0, 59, 0
2, 186279, Note_on_c, 0, 47, 0
2, 186315, Note_on_c, 0, 47, 18
2, 186323, Note_on_c, 0, 59, 13
2, 186327, Note_on_c, 0, 63, 13
2, 186353, Control_c, 0, 64, 0
2, 186491, Note_on_c, 0, 61, 0
2, 186521, Control_c, 0, 64, 127
2, 186695, Note_on_c, 0, 57, 0
2, 186741, Note_on_c, 0, 47, 0
2, 186749, Note_on_c, 0, 59, 0
2, 186843, Note_on_c, 0, 61, 9
2, 186857, Note_on_c, 0, 57, 8
2, 186887, Note_on_c, 0, 35, 23
2, 187031, Note_on_c, 0, 63, 0
2, 187227, Note_on_c, 0, 61, 0
2, 187230, Note_on_c, 0, 57, 0
2, 187521, Note_on_c, 0, 68, 31
2, 187559, Note_on_c, 0, 47, 14
2, 187575, Note_on_c, 0, 59, 4
2, 187583, Note_on_c, 0, 63, 13
2, 187805, Note_on_c, 0, 35, 0
2, 187831, Note_on_c, 0, 68, 0
2, 187853, Note_on_c, 0, 47, 0
2, 188107, Note_on_c, 0, 59, 0
2, 188109, Note_on_c, 0, 68, 26
2, 188141, Note_on_c, 0, 61, 24
2, 188157, Note_on_c, 0, 57, 17
2, 188415, Note_on_c, 0, 63, 0
2, 188491, Note_on_c, 0, 68, 0
2, 188699, Note_on_c, 0, 61, 0
2, 188701, Note_on_c, 0, 66, 24
2, 188749, Note_on_c, 0, 47, 14
2, 188751, Note_on_c, 0, 59, 11
2, 188759, Note_on_c, 0, 63, 9
2, 188765, Control_c, 0, 64, 0
2, 188949, Control_c, 0, 64, 127
2, 189033, Note_on_c, 0, 57, 0
2, 189043, Note_on_c, 0, 66, 0
2, 189045, Note_on_c, 0, 47, 0
2, 189175, Note_on_c, 0, 59, 0
2, 189451, Note_on_c, 0, 56, 13
2, 189477, Note_on_c, 0, 64, 31
2, 189513, Note_on_c, 0, 40, 19
2, 189667, Note_on_c, 0, 63, 0
2, 189779, Control_c, 0, 64, 0
2, 189933, Control_c, 0, 64, 127
2, 189995, Control_c, 0, 64, 0
2, 190109, Note_on_c, 0, 47, 19
2, 190119, Note_on_c, 0, 59, 23
2, 190167, Note_on_c, 0, 56, 0
2, 190285, Control_c, 0, 64, 127
2, 190329, Note_on_c, 0, 64, 0
2, 190345, Note_on_c, 0, 40, 0
2, 190523, Note_on_c, 0, 47, 0
2, 190619, Note_on_c, 0, 56, 21
2, 190785, Note_on_c, 0, 59, 0
2, 191035, Note_on_c, 0, 56, 0
2, 191075, Note_on_c, 0, 59, 30
2, 191107, Note_on_c, 0, 47, 15
2, 191149, Note_on_c, 0, 59, 0
2, 191211, Note_on_c, 0, 47, 0
2, 191757, Note_on_c, 0, 71, 50
2, 191783, Note_on_c, 0, 62, 14
2, 191791, Note_on_c, 0, 66, 13
2, 191813, Note_on_c, 0, 40, 23
2, 192095, Note_on_c, 0, 71, 0
2, 192333, Note_on_c, 0, 62, 0
2, 192343, Note_on_c, 0, 73, 54
2, 192379, Note_on_c, 0, 64, 29
2, 192381, Note_on_c, 0, 68, 21
2, 192391, Note_on_c, 0, 52, 32
2, 192394, Note_on_c, 0, 66, 0
2, 192467, Control_c, 0, 64, 0
2, 192487, Note_on_c, 0, 40, 0
2, 192563, Note_on_c, 0, 68, 7
2, 192579, Note_on_c, 0, 73, 0
2, 192595, Control_c, 0, 64, 127
2, 192619, Note_on_c, 0, 64, 0
2, 192639, Note_on_c, 0, 68, 0
2, 192799, Note_on_c, 0, 73, 62
2, 192827, Note_on_c, 0, 62, 32
2, 192849, Note_on_c, 0, 66, 15
2, 192855, Note_on_c, 0, 52, 0
2, 192937, Note_on_c, 0, 68, 0
2, 193069, Note_on_c, 0, 73, 0
2, 193217, Note_on_c, 0, 71, 74
2, 193220, Note_on_c, 0, 68, 34
2, 193243, Note_on_c, 0, 64, 32
2, 193251, Note_on_c, 0, 62, 0
2, 193261, Note_on_c, 0, 52, 37
2, 193311, Control_c, 0, 64, 0
2, 193413, Note_on_c, 0, 66, 0
2, 193441, Control_c, 0, 64, 127
2, 193541, Note_on_c, 0, 71, 0
2, 193621, Note_on_c, 0, 68, 0
2, 193653, Note_on_c, 0, 69, 56
2, 193667, Note_on_c, 0, 61, 30
2, 193677, Note_on_c, 0, 45, 27
2, 193701, Note_on_c, 0, 64, 0
2, 193789, Control_c, 0, 64, 0
2, 193795, Note_on_c, 0, 52, 0
2, 193973, Control_c, 0, 64, 127
2, 194061, Note_on_c, 0, 69, 0
2, 194113, Note_on_c, 0, 71, 52
2, 194151, Note_on_c, 0, 64, 17
2, 194157, Note_on_c, 0, 52, 26
2, 194163, Note_on_c, 0, 61, 0
2, 194203, Control_c, 0, 64, 0
2, 194341, Control_c, 0, 64, 127
2, 194531, Note_on_c, 0, 45, 0
2, 194563, Note_on_c, 0, 68, 41
2, 194591, Note_on_c, 0, 71, 0
2, 194591, Note_on_c, 0, 61, 9
2, 194813, Note_on_c, 0, 64, 0
2, 194891, Note_on_c, 0, 52, 0
2, 194969, Note_on_c, 0, 68, 0
2, 195085, Note_on_c, 0, 61, 0
2, 195101, Note_on_c, 0, 69, 29
2, 195117, Note_on_c, 0, 64, 24
2, 195129, Note_on_c, 0, 52, 32
2, 195183, Note_on_c, 0, 69, 0
2, 195221, Note_on_c, 0, 64, 0
2, 195269, Note_on_c, 0, 52, 0
2, 195555, Note_on_c, 0, 75, 48
2, 195575, Note_on_c, 0, 44, 41
2, 195595, Note_on_c, 0, 72, 16
2, 195599, Note_on_c, 0, 66, 8
2, 195633, Control_c, 0, 64, 0
2, 195847, Control_c, 0, 64, 127
2, 195875, Note_on_c, 0, 75, 0
2, 196017, Note_on_c, 0, 76, 59
2, 196019, Note_on_c, 0, 68, 37
2, 196037, Note_on_c, 0, 56, 32
2, 196063, Note_on_c, 0, 44, 0
2, 196063, Note_on_c, 0, 72, 0
2, 196209, Note_on_c, 0, 66, 0
2, 196251, Note_on_c, 0, 76, 0
2, 196409, Note_on_c, 0, 76, 63
2, 196437, Note_on_c, 0, 66, 30
2, 196445, Note_on_c, 0, 70, 28
2, 196547, Note_on_c, 0, 68, 0
2, 196613, Note_on_c, 0, 56, 0
2, 196669, Note_on_c, 0, 76, 0
2, 196827, Note_on_c, 0, 75, 69
2, 196845, Note_on_c, 0, 66, 0
2, 196845, Note_on_c, 0, 68, 35
2, 196847, Note_on_c, 0, 56, 43
2, 196873, Note_on_c, 0, 72, 25
2, 196973, Note_on_c, 0, 70, 0
2, 197085, Note_on_c, 0, 75, 0
2, 197115, Note_on_c, 0, 68, 0
2, 197249, Note_on_c, 0, 73, 69
2, 197275, Note_on_c, 0, 49, 43
2, 197277, Note_on_c, 0, 64, 44
2, 197293, Note_on_c, 0, 56, 0
2, 197579, Note_on_c, 0, 72, 0
2, 197679, Note_on_c, 0, 75, 68
2, 197685, Note_on_c, 0, 68, 46
2, 197721, Note_on_c, 0, 56, 31
2, 197737, Control_c, 0, 64, 0
2, 197745, Note_on_c, 0, 73, 0
2, 197917, Note_on_c, 0, 49, 0
2, 197937, Control_c, 0, 64, 127
2, 198055, Note_on_c, 0, 64, 0
2, 198089, Note_on_c, 0, 72, 71
2, 198125, Note_on_c, 0, 75, 0
2, 198141, Note_on_c, 0, 64, 19
2, 198165, Note_on_c, 0, 68, 0
2, 198321, Note_on_c, 0, 56, 0
2, 198461, Note_on_c, 0, 72, 0
2, 198479, Note_on_c, 0, 64, 0
2, 198551, Note_on_c, 0, 73, 62
2, 198565, Note_on_c, 0, 68, 41
2, 198575, Note_on_c, 0, 56, 43
2, 198685, Note_on_c, 0, 73, 0
2, 198715, Note_on_c, 0, 68, 0
2, 198805, Note_on_c, 0, 56, 0
2, 199135, Note_on_c, 0, 76, 57
2, 199143, Note_on_c, 0, 58, 34
2, 199151, Note_on_c, 0, 70, 25
2, 199151, Control_c, 0, 64, 0
2, 199151, Note_on_c, 0, 49, 38
2, 199161, Note_on_c, 0, 64, 26
2, 199163, Note_on_c, 0, 54, 38
2, 199167, Note_on_c, 0, 52, 50
2, 199393, Note_on_c, 0, 76, 0
2, 199397, Control_c, 0, 64, 127
2, 199407, Note_on_c, 0, 58, 0
2, 199415, Note_on_c, 0, 70, 0
2, 199425, Note_on_c, 0, 49, 0
2, 199437, Note_on_c, 0, 64, 0
2, 199443, Note_on_c, 0, 54, 0
2, 199487, Note_on_c, 0, 52, 0
2, 199623, Note_on_c, 0, 78, 76
2, 199643, Note_on_c, 0, 66, 38
2, 199646, Note_on_c, 0, 70, 35
2, 199651, Note_on_c, 0, 49, 34
2, 199653, Note_on_c, 0, 58, 34
2, 199654, Note_on_c, 0, 54, 33
2, 199661, Note_on_c, 0, 52, 38
2, 199761, Note_on_c, 0, 78, 0
2, 199847, Note_on_c, 0, 66, 0
2, 199853, Note_on_c, 0, 70, 0
2, 199857, Note_on_c, 0, 49, 0
2, 199885, Note_on_c, 0, 58, 0
2, 199911, Note_on_c, 0, 54, 0
2, 199925, Note_on_c, 0, 52, 0
2, 200055, Note_on_c, 0, 75, 81
2, 200067, Note_on_c, 0, 58, 46
2, 200071, Note_on_c, 0, 63, 67
2, 200073, Note_on_c, 0, 49, 53
2, 200083, Note_on_c, 0, 70, 38
2, 200091, Note_on_c, 0, 52, 56
2, 200099, Note_on_c, 0, 54, 54
2, 200165, Note_on_c, 0, 75, 0
2, 200225, Note_on_c, 0, 58, 0
2, 200247, Note_on_c, 0, 63, 0
2, 200275, Note_on_c, 0, 49, 0
2, 200281, Note_on_c, 0, 70, 0
2, 200281, Note_on_c, 0, 52, 0
2, 200343, Note_on_c, 0, 54, 0
2, 200469, Note_on_c, 0, 76, 92
2, 200471, Note_on_c, 0, 58, 51
2, 200479, Note_on_c, 0, 49, 64
2, 200481, Note_on_c, 0, 70, 58
2, 200482, Note_on_c, 0, 54, 53
2, 200487, Note_on_c, 0, 64, 75
2, 200489, Note_on_c, 0, 52, 60
2, 200573, Note_on_c, 0, 76, 0
2, 200633, Note_on_c, 0, 58, 0
2, 200643, Note_on_c, 0, 49, 0
2, 200651, Note_on_c, 0, 70, 0
2, 200719, Note_on_c, 0, 54, 0
2, 200757, Note_on_c, 0, 64, 0
2, 200765, Note_on_c, 0, 52, 0
2, 200881, Note_on_c, 0, 78, 94
2, 200889, Note_on_c, 0, 66, 69
2, 200899, Note_on_c, 0, 70, 54
2, 200901, Note_on_c, 0, 58, 51
2, 200903, Note_on_c, 0, 48, 65
2, 200907, Note_on_c, 0, 54, 52
2, 200917, Note_on_c, 0, 52, 61
2, 200949, Control_c, 0, 64, 0
2, 201147, Note_on_c, 0, 78, 0
2, 201173, Note_on_c, 0, 66, 0
2, 201187, Note_on_c, 0, 70, 0
2, 201195, Note_on_c, 0, 58, 0
2, 201195, Control_c, 0, 64, 127
2, 201197, Note_on_c, 0, 48, 0
2, 201197, Note_on_c, 0, 54, 0
2, 201251, Note_on_c, 0, 52, 0
2, 201337, Note_on_c, 0, 80, 97
2, 201349, Note_on_c, 0, 58, 59
2, 201349, Note_on_c, 0, 48, 67
2, 201349, Note_on_c, 0, 68, 62
2, 201352, Note_on_c, 0, 70, 64
2, 201371, Note_on_c, 0, 54, 57
2, 201377, Note_on_c, 0, 52, 52
2, 201533, Note_on_c, 0, 80, 0
2, 201539, Note_on_c, 0, 58, 0
2, 201541, Note_on_c, 0, 48, 0
2, 201571, Note_on_c, 0, 68, 0
2, 201601, Note_on_c, 0, 70, 0
2, 201631, Note_on_c, 0, 54, 0
2, 201645, Note_on_c, 0, 52, 0
2, 201765, Note_on_c, 0, 76, 89
2, 201770, Note_on_c, 0, 58, 44
2, 201774, Note_on_c, 0, 48, 41
2, 201781, Note_on_c, 0, 52, 40
2, 201783, Note_on_c, 0, 54, 35
2, 201784, Note_on_c, 0, 64, 55
2, 201784, Note_on_c, 0, 70, 44
2, 201855, Control_c, 0, 64, 0
2, 201999, Note_on_c, 0, 76, 0
2, 202006, Note_on_c, 0, 58, 0
2, 202007, Note_on_c, 0, 48, 0
2, 202021, Note_on_c, 0, 52, 0
2, 202025, Control_c, 0, 64, 127
2, 202044, Note_on_c, 0, 54, 0
2, 202051, Note_on_c, 0, 64, 0
2, 202088, Note_on_c, 0, 70, 0
2, 202225, Note_on_c, 0, 78, 97
2, 202241, Note_on_c, 0, 48, 31
2, 202243, Note_on_c, 0, 58, 37
2, 202251, Note_on_c, 0, 66, 53
2, 202251, Note_on_c, 0, 70, 43
2, 202253, Note_on_c, 0, 54, 41
2, 202259, Note_on_c, 0, 52, 51
2, 202343, Note_on_c, 0, 78, 0
2, 202373, Note_on_c, 0, 48, 0
2, 202453, Note_on_c, 0, 58, 0
2, 202493, Note_on_c, 0, 66, 0
2, 202533, Note_on_c, 0, 70, 0
2, 202547, Note_on_c, 0, 54, 0
2, 202575, Note_on_c, 0, 52, 0
2, 202923, Note_on_c, 0, 80, 90
2, 202943, Note_on_c, 0, 68, 51
2, 202953, Note_on_c, 0, 59, 40
2, 202957, Note_on_c, 0, 47, 38
2, 202960, Note_on_c, 0, 52, 47
2, 202963, Note_on_c, 0, 56, 35
2, 202965, Note_on_c, 0, 76, 32
2, 203023, Control_c, 0, 64, 0
2, 203607, Control_c, 0, 64, 127
2, 203681, Note_on_c, 0, 71, 39
2, 203695, Note_on_c, 0, 80, 0
2, 203947, Note_on_c, 0, 68, 0
2, 204205, Note_on_c, 0, 68, 22
2, 204543, Note_on_c, 0, 59, 0
2, 204729, Note_on_c, 0, 71, 29
2, 204925, Note_on_c, 0, 47, 0
2, 205269, Note_on_c, 0, 68, 15
2, 205613, Note_on_c, 0, 52, 0
2, 205965, Note_on_c, 0, 78, 44
2, 206023, Note_on_c, 0, 56, 0
2, 206031, Note_on_c, 0, 71, 17
2, 206041, Note_on_c, 0, 76, 0
2, 206341, Note_on_c, 0, 71, 0
2, 206561, Note_on_c, 0, 76, 48
2, 206591, Note_on_c, 0, 68, 16
2, 206665, Note_on_c, 0, 68, 0
2, 206889, Note_on_c, 0, 71, 0
2, 207051, Note_on_c, 0, 73, 41
2, 207063, Note_on_c, 0, 68, 0
2, 207099, Note_on_c, 0, 71, 28
2, 207263, Note_on_c, 0, 78, 0
2, 207281, Note_on_c, 0, 71, 0
2, 207355, Note_on_c, 0, 76, 0
2, 207393, Note_on_c, 0, 68, 0
2, 207721, Note_on_c, 0, 75, 36
2, 207765, Note_on_c, 0, 54, 25
2, 207765, Note_on_c, 0, 63, 21
2, 207817, Control_c, 0, 64, 0
2, 207849, Note_on_c, 0, 73, 0
2, 208147, Note_on_c, 0, 71, 0
2, 208171, Control_c, 0, 64, 127
2, 208331, Note_on_c, 0, 75, 0
2, 208405, Note_on_c, 0, 66, 4
2, 208415, Note_on_c, 0, 59, 18
2, 208549, Note_on_c, 0, 54, 0
2, 208725, Note_on_c, 0, 63, 0
2, 208837, Note_on_c, 0, 66, 0
2, 208917, Note_on_c, 0, 63, 15
2, 208957, Note_on_c, 0, 47, 12
2, 209253, Note_on_c, 0, 59, 0
2, 209373, Note_on_c, 0, 63, 0
2, 209389, Note_on_c, 0, 66, 7
2, 209437, Note_on_c, 0, 59, 9
2, 209531, Note_on_c, 0, 47, 0
2, 209541, Note_on_c, 0, 66, 0
2, 209735, Note_on_c, 0, 59, 0
2, 209959, Note_on_c, 0, 76, 40
2, 209979, Note_on_c, 0, 64, 22
2, 209995, Note_on_c, 0, 49, 19
2, 210199, Control_c, 0, 64, 0
2, 210413, Control_c, 0, 64, 127
2, 210433, Note_on_c, 0, 76, 0
2, 210493, Note_on_c, 0, 75, 45
2, 210509, Note_on_c, 0, 68, 11
2, 210521, Note_on_c, 0, 56, 19
2, 210557, Note_on_c, 0, 64, 0
2, 210737, Note_on_c, 0, 49, 0
2, 210740, Note_on_c, 0, 75, 0
2, 210781, Note_on_c, 0, 68, 0
2, 210969, Note_on_c, 0, 73, 43
2, 211011, Note_on_c, 0, 44, 21
2, 211019, Note_on_c, 0, 64, 16
2, 211315, Note_on_c, 0, 56, 0
2, 211397, Note_on_c, 0, 73, 0
2, 211445, Note_on_c, 0, 68, 41
2, 211491, Note_on_c, 0, 56, 21
2, 211671, Note_on_c, 0, 44, 0
2, 211753, Note_on_c, 0, 64, 0
2, 212063, Note_on_c, 0, 71, 48
2, 212098, Note_on_c, 0, 59, 22
2, 212123, Note_on_c, 0, 51, 22
2, 212125, Note_on_c, 0, 68, 0
2, 212135, Control_c, 0, 64, 0
2, 212473, Control_c, 0, 64, 127
2, 212571, Note_on_c, 0, 56, 0
2, 212593, Note_on_c, 0, 71, 0
2, 212657, Note_on_c, 0, 63, 28
2, 212695, Note_on_c, 0, 56, 13
2, 212853, Note_on_c, 0, 59, 0
2, 212877, Note_on_c, 0, 51, 0
2, 213135, Note_on_c, 0, 44, 19
2, 213138, Note_on_c, 0, 59, 15
2, 213211, Note_on_c, 0, 63, 0
2, 213365, Note_on_c, 0, 56, 0
2, 213595, Note_on_c, 0, 44, 0
2, 213600, Note_on_c, 0, 63, 23
2, 213647, Note_on_c, 0, 56, 11
2, 213751, Note_on_c, 0, 59, 0
2, 213779, Note_on_c, 0, 63, 0
2, 213877, Note_on_c, 0, 56, 0
2, 214361, Note_on_c, 0, 73, 28
2, 214381, Note_on_c, 0, 61, 15
2, 214383, Note_on_c, 0, 45, 12
2, 214455, Control_c, 0, 64, 0
2, 214777, Control_c, 0, 64, 127
2, 214823, Note_on_c, 0, 73, 0
2, 214941, Note_on_c, 0, 61, 0
2, 215103, Note_on_c, 0, 71, 41
2, 215137, Note_on_c, 0, 52, 19
2, 215317, Note_on_c, 0, 45, 0
2, 215663, Note_on_c, 0, 69, 27
2, 215677, Note_on_c, 0, 71, 0
2, 215703, Note_on_c, 0, 61, 7
2, 215729, Note_on_c, 0, 40, 21
2, 215853, Control_c, 0, 64, 0
2, 216007, Control_c, 0, 64, 127
2, 216079, Note_on_c, 0, 52, 0
2, 216189, Note_on_c, 0, 64, 33
2, 216195, Note_on_c, 0, 69, 0
2, 216251, Note_on_c, 0, 52, 17
2, 216445, Note_on_c, 0, 61, 0
2, 216445, Note_on_c, 0, 40, 0
2, 216577, Note_on_c, 0, 64, 0
2, 216945, Note_on_c, 0, 68, 25
2, 217003, Note_on_c, 0, 56, 17
2, 217006, Note_on_c, 0, 47, 18
2, 217067, Control_c, 0, 64, 0
2, 217383, Note_on_c, 0, 52, 0
2, 217451, Control_c, 0, 64, 127
2, 217669, Note_on_c, 0, 68, 0
2, 217717, Note_on_c, 0, 59, 10
2, 217743, Note_on_c, 0, 52, 16
2, 217877, Note_on_c, 0, 56, 0
2, 217945, Note_on_c, 0, 47, 0
2, 218255, Note_on_c, 0, 56, 16
2, 218271, Note_on_c, 0, 40, 23
2, 218547, Note_on_c, 0, 59, 0
2, 218755, Note_on_c, 0, 59, 28
2, 218789, Note_on_c, 0, 52, 20
2, 218855, Note_on_c, 0, 52, 0
2, 218925, Note_on_c, 0, 56, 0
2, 218947, Note_on_c, 0, 40, 0
2, 219257, Note_on_c, 0, 57, 25
2, 219283, Note_on_c, 0, 48, 21
2, 219417, Control_c, 0, 64, 0
2, 219603, Control_c, 0, 64, 127
2, 219661, Note_on_c, 0, 59, 0
2, 219727, Note_on_c, 0, 66, 33
2, 219751, Note_on_c, 0, 60, 22
2, 219781, Note_on_c, 0, 52, 0
2, 219784, Note_on_c, 0, 52, 15
2, 219961, Note_on_c, 0, 57, 0
2, 220001, Note_on_c, 0, 48, 0
2, 220359, Note_on_c, 0, 64, 41
2, 220403, Note_on_c, 0, 40, 19
2, 220403, Note_on_c, 0, 57, 11
2, 220419, Note_on_c, 0, 66, 0
2, 220523, Control_c, 0, 64, 0
2, 220583, Note_on_c, 0, 60, 0
2, 220709, Control_c, 0, 64, 127
2, 220877, Note_on_c, 0, 60, 47
2, 220933, Note_on_c, 0, 52, 12
2, 220957, Note_on_c, 0, 52, 0
2, 221099, Note_on_c, 0, 64, 0
2, 221245, Note_on_c, 0, 40, 0
2, 221291, Note_on_c, 0, 57, 0
2, 221457, Note_on_c, 0, 60, 0
2, 221537, Note_on_c, 0, 68, 38
2, 221579, Note_on_c, 0, 56, 16
2, 221613, Note_on_c, 0, 47, 21
2, 221769, Control_c, 0, 64, 0
2, 222091, Control_c, 0, 64, 127
2, 222183, Note_on_c, 0, 52, 0
2, 222199, Note_on_c, 0, 68, 0
2, 222211, Note_on_c, 0, 59, 20
2, 222243, Note_on_c, 0, 52, 16
2, 222461, Note_on_c, 0, 56, 0
2, 222491, Note_on_c, 0, 47, 0
2, 222705, Note_on_c, 0, 56, 19
2, 222749, Note_on_c, 0, 40, 21
2, 222939, Note_on_c, 0, 59, 0
2, 223193, Note_on_c, 0, 59, 24
2, 223205, Note_on_c, 0, 52, 20
2, 223361, Note_on_c, 0, 52, 0
2, 223437, Note_on_c, 0, 56, 0
2, 223457, Note_on_c, 0, 40, 0
2, 223705, Control_c, 0, 64, 0
2, 223705, Note_on_c, 0, 57, 23
2, 223735, Note_on_c, 0, 48, 27
2, 224151, Control_c, 0, 64, 127
2, 224291, Note_on_c, 0, 59, 0
2, 224401, Note_on_c, 0, 66, 32
2, 224441, Note_on_c, 0, 60, 21
2, 224443, Note_on_c, 0, 52, 0
2, 224481, Note_on_c, 0, 52, 13
2, 224625, Note_on_c, 0, 57, 0
2, 224685, Note_on_c, 0, 48, 0
2, 224979, Note_on_c, 0, 64, 35
2, 225005, Note_on_c, 0, 57, 10
2, 225011, Note_on_c, 0, 66, 0
2, 225011, Note_on_c, 0, 40, 16
2, 225165, Control_c, 0, 64, 0
2, 225175, Note_on_c, 0, 60, 0
2, 225333, Control_c, 0, 64, 127
2, 225489, Note_on_c, 0, 60, 38
2, 225539, Note_on_c, 0, 52, 0
2, 225545, Note_on_c, 0, 52, 8
2, 225671, Control_c, 0, 64, 0
2, 225841, Control_c, 0, 64, 127
2, 225881, Note_on_c, 0, 64, 0
2, 225987, Note_on_c, 0, 57, 0
2, 225991, Note_on_c, 0, 40, 0
2, 226337, Note_on_c, 0, 60, 0
2, 226363, Note_on_c, 0, 68, 30
2, 226401, Note_on_c, 0, 56, 15
2, 226453, Note_on_c, 0, 47, 15
2, 226639, Control_c, 0, 64, 0
2, 226931, Control_c, 0, 64, 127
2, 227009, Note_on_c, 0, 52, 0
2, 227043, Note_on_c, 0, 68, 0
2, 227075, Note_on_c, 0, 59, 19
2, 227101, Note_on_c, 0, 52, 16
2, 227283, Note_on_c, 0, 56, 0
2, 227295, Note_on_c, 0, 47, 0
2, 227557, Note_on_c, 0, 59, 0
2, 227601, Note_on_c, 0, 56, 12
2, 227637, Note_on_c, 0, 40, 9
2, 227881, Note_on_c, 0, 52, 0
2, 228075, Note_on_c, 0, 52, 14
2, 228091, Note_on_c, 0, 59, 11
2, 228235, Note_on_c, 0, 56, 0
2, 228371, Note_on_c, 0, 40, 0
2, 228479, Note_on_c, 0, 52, 0
2, 228485, Note_on_c, 0, 56, 10
2, 228521, Note_on_c, 0, 47, 14
2, 228787, Note_on_c, 0, 59, 0
2, 228923, Note_on_c, 0, 56, 0
2, 228943, Note_on_c, 0, 52, 11
2, 228981, Note_on_c, 0, 59, 6
2, 229107, Note_on_c, 0, 47, 0
2, 229181, Note_on_c, 0, 52, 0
2, 229323, Note_on_c, 0, 56, 8
2, 229375, Note_on_c, 0, 40, 25
2, 229523, Note_on_c, 0, 59, 0
2, 229569, Note_on_c, 0, 56, 0
2, 229785, Note_on_c, 0, 59, 25
2, 229815, Note_on_c, 0, 52, 21
2, 229967, Note_on_c, 0, 40, 0
2, 230005, Note_on_c, 0, 59, 0
2, 230225, Note_on_c, 0, 56, 13
2, 230249, Note_on_c, 0, 47, 14
2, 230401, Note_on_c, 0, 52, 0
2, 230425, Note_on_c, 0, 56, 0
2, 230695, Note_on_c, 0, 52, 13
2, 230701, Note_on_c, 0, 59, 9
2, 230821, Note_on_c, 0, 47, 0
2, 230849, Note_on_c, 0, 52, 0
2, 231107, Note_on_c, 0, 56, 6
2, 231157, Note_on_c, 0, 40, 9
2, 231325, Note_on_c, 0, 59, 0
2, 231333, Note_on_c, 0, 56, 0
2, 231605, Note_on_c, 0, 59, 13
2, 231633, Note_on_c, 0, 52, 12
2, 231799, Note_on_c, 0, 40, 0
2, 231807, Note_on_c, 0, 59, 0
2, 232163, Note_on_c, 0, 56, 10
2, 232197, Note_on_c, 0, 47, 7
2, 232389, Note_on_c, 0, 52, 0
2, 232455, Note_on_c, 0, 56, 0
2, 232535, Note_on_c, 0, 47, 0
2, 232905, Note_on_c, 0, 66, 15
2, 232969, Note_on_c, 0, 59, 12
2, 232972, Note_on_c, 0, 52, 9
2, 233079, Note_on_c, 0, 66, 0
2, 233257, Note_on_c, 0, 59, 0
2, 233447, Note_on_c, 0, 52, 0
2, 233729, Note_on_c, 0, 56, 7
2, 233729, Note_on_c, 0, 64, 24
2, 233917, Note_on_c, 0, 47, 2
2, 234124, Note_on_c, 0, 56, 0
2, 234149, Note_on_c, 0, 64, 0
2, 234155, Note_on_c, 0, 47, 0
2, 234825, Note_on_c, 0, 59, 16
2, 235339, Note_on_c, 0, 59, 0
2, 235741, Note_on_c, 0, 47, 2
2, 237235, Note_on_c, 0, 56, 7
2, 237243, Note_on_c, 0, 40, 10
2, 237257, Note_on_c, 0, 64, 21
2, 243499, Note_on_c, 0, 47, 0
2, 243545, Note_on_c, 0, 56, 0
2, 243585, Note_on_c, 0, 40, 0
2, 244041, Note_on_c, 0, 64, 0
2, 245760, Control_c, 0, 64, 0
2, 245760, End_track
3, 0, Start_track
3, 0, Title_t, "Chopin - Etude Op.10 No.3"
3, 0, End_track
4, 0, Start_track
4, 0, Title_t, "Recorder: Eduardo D. Trindade"
4, 0, End_track
5, 0, Start_track
5, 0, Title_t, "edt@compuserv.com.br"
5, 0, End_track
0, 0, End_of_file