0, 0, Header, 1, 3, 480
1, 0, Start_track
1, 0, Copyright_t, "Copyright \251 1999 My Music Company"
1, 0, Tempo, 652033
1, 0, Time_signature, 4, 2, 24, 8
1, 0, Title_t, "Piano Solo"
1, 60960, Tempo, 1999873
1, 61440, Tempo, 652033
1, 90240, End_track
2, 0, Start_track
2, 0, Control_c, 0, 7, 80
2, 0, Control_c, 0, 0, 0
2, 0, Control_c, 0, 32, 0
2, 0, Program_c, 0, 0
2, 0, Control_c, 0, 1, 0
2, 0, Control_c, 0, 10, 64
2, 0, Control_c, 0, 91, 0
2, 0, Control_c, 0, 93, 0
2, 0, Key_signature, 1, "major"
2, 0, Key_signature, 1, "major"
2, 0, Title_t, "Piano"
2, 0, Note_on_c, 0, 59, 100
2, 0, Note_on_c, 0, 43, 100
2, 0, Note_on_c, 0, 50, 100
2, 36, Control_c, 0, 7, 81
2, 110, Control_c, 0, 7, 82
2, 184, Control_c, 0, 7, 83
2, 220, Control_c, 0, 7, 84
2, 240, Note_on_c, 0, 62, 100
2, 294, Control_c, 0, 7, 85
2, 331, Control_c, 0, 7, 86
2, 405, Control_c, 0, 7, 87
2, 468, Note_on_c, 0, 62, 0
2, 478, Control_c, 0, 7, 88
2, 480, Note_on_c, 0, 67, 100
2, 515, Control_c, 0, 7, 89
2, 588, Control_c, 0, 7, 90
2, 662, Control_c, 0, 7, 91
2, 699, Control_c, 0, 7, 92
2, 708, Note_on_c, 0, 67, 0
2, 708, Note_on_c, 0, 59, 0
2, 720, Note_on_c, 0, 57, 100
2, 720, Note_on_c, 0, 66, 100
2, 773, Control_c, 0, 7, 93
2, 846, Control_c, 0, 7, 94
2, 883, Control_c, 0, 7, 95
2, 948, Note_on_c, 0, 66, 0
2, 948, Note_on_c, 0, 57, 0
2, 957, Control_c, 0, 7, 96
2, 960, Note_on_c, 0, 60, 100
2, 960, Note_on_c, 0, 69, 100
2, 994, Control_c, 0, 7, 97
2, 1067, Control_c, 0, 7, 98
2, 1140, Control_c, 0, 7, 99
2, 1177, Control_c, 0, 7, 100
2, 1188, Note_on_c, 0, 69, 0
2, 1188, Note_on_c, 0, 60, 0
2, 1200, Note_on_c, 0, 67, 100
2, 1200, Note_on_c, 0, 59, 100
2, 1251, Control_c, 0, 7, 101
2, 1324, Control_c, 0, 7, 102
2, 1361, Control_c, 0, 7, 103
2, 1428, Note_on_c, 0, 59, 0
2, 1428, Note_on_c, 0, 67, 0
2, 1435, Control_c, 0, 7, 104
2, 1440, Note_on_c, 0, 64, 100
2, 1440, Note_on_c, 0, 72, 100
2, 1472, Control_c, 0, 7, 105
2, 1545, Control_c, 0, 7, 106
2, 1619, Control_c, 0, 7, 107
2, 1656, Control_c, 0, 7, 108
2, 1668, Note_on_c, 0, 72, 0
2, 1668, Note_on_c, 0, 64, 0
2, 1680, Note_on_c, 0, 71, 100
2, 1680, Note_on_c, 0, 62, 100
2, 1729, Control_c, 0, 7, 109
2, 1800, Control_c, 0, 7, 110
2, 1896, Note_on_c, 0, 50, 0
2, 1896, Note_on_c, 0, 43, 0
2, 1908, Note_on_c, 0, 62, 0
2, 1908, Note_on_c, 0, 71, 0
2, 1920, Note_on_c, 0, 50, 100
2, 1920, Note_on_c, 0, 38, 100
2, 1920, Note_on_c, 0, 57, 100
2, 1920, Note_on_c, 0, 69, 100
2, 1920, Note_on_c, 0, 66, 100
2, 1956, Control_c, 0, 7, 109
2, 2030, Control_c, 0, 7, 108
2, 2104, Control_c, 0, 7, 107
2, 2141, Control_c, 0, 7, 106
2, 2214, Control_c, 0, 7, 105
2, 2251, Control_c, 0, 7, 104
2, 2325, Control_c, 0, 7, 103
2, 2398, Control_c, 0, 7, 102
2, 2435, Control_c, 0, 7, 101
2, 2508, Control_c, 0, 7, 100
2, 2582, Control_c, 0, 7, 99
2, 2619, Control_c, 0, 7, 98
2, 2693, Control_c, 0, 7, 97
2, 2766, Control_c, 0, 7, 96
2, 2803, Control_c, 0, 7, 95
2, 2856, Note_on_c, 0, 69, 0
2, 2856, Note_on_c, 0, 57, 0
2, 2856, Note_on_c, 0, 38, 0
2, 2856, Note_on_c, 0, 50, 0
2, 2877, Control_c, 0, 7, 94
2, 2914, Control_c, 0, 7, 93
2, 2987, Control_c, 0, 7, 92
2, 3060, Control_c, 0, 7, 91
2, 3097, Control_c, 0, 7, 90
2, 3171, Control_c, 0, 7, 89
2, 3245, Control_c, 0, 7, 88
2, 3281, Control_c, 0, 7, 87
2, 3336, Note_on_c, 0, 66, 0
2, 3355, Control_c, 0, 7, 86
2, 3360, Note_on_c, 0, 65, 100
2, 3392, Control_c, 0, 7, 85
2, 3466, Control_c, 0, 7, 84
2, 3539, Control_c, 0, 7, 83
2, 3576, Control_c, 0, 7, 82
2, 3649, Control_c, 0, 7, 81
2, 3720, Control_c, 0, 7, 80
2, 3816, Note_on_c, 0, 65, 0
2, 3840, Note_on_c, 0, 48, 100
2, 3840, Note_on_c, 0, 41, 100
2, 3840, Note_on_c, 0, 57, 100
2, 3876, Control_c, 0, 7, 81
2, 3950, Control_c, 0, 7, 82
2, 4024, Control_c, 0, 7, 83
2, 4061, Control_c, 0, 7, 84
2, 4080, Note_on_c, 0, 60, 100
2, 4134, Control_c, 0, 7, 85
2, 4171, Control_c, 0, 7, 86
2, 4245, Control_c, 0, 7, 87
2, 4308, Note_on_c, 0, 60, 0
2, 4318, Control_c, 0, 7, 88
2, 4320, Note_on_c, 0, 65, 100
2, 4355, Control_c, 0, 7, 89
2, 4428, Control_c, 0, 7, 90
2, 4502, Control_c, 0, 7, 91
2, 4539, Control_c, 0, 7, 92
2, 4548, Note_on_c, 0, 65, 0
2, 4548, Note_on_c, 0, 57, 0
2, 4560, Note_on_c, 0, 55, 100
2, 4560, Note_on_c, 0, 64, 100
2, 4613, Control_c, 0, 7, 93
2, 4686, Control_c, 0, 7, 94
2, 4723, Control_c, 0, 7, 95
2, 4788, Note_on_c, 0, 64, 0
2, 4788, Note_on_c, 0, 55, 0
2, 4797, Control_c, 0, 7, 96
2, 4800, Note_on_c, 0, 58, 100
2, 4800, Note_on_c, 0, 67, 100
2, 4834, Control_c, 0, 7, 97
2, 4907, Control_c, 0, 7, 98
2, 4980, Control_c, 0, 7, 99
2, 5017, Control_c, 0, 7, 100
2, 5028, Note_on_c, 0, 67, 0
2, 5028, Note_on_c, 0, 58, 0
2, 5040, Note_on_c, 0, 65, 100
2, 5040, Note_on_c, 0, 57, 100
2, 5091, Control_c, 0, 7, 101
2, 5165, Control_c, 0, 7, 102
2, 5201, Control_c, 0, 7, 103
2, 5268, Note_on_c, 0, 57, 0
2, 5268, Note_on_c, 0, 65, 0
2, 5275, Control_c, 0, 7, 104
2, 5280, Note_on_c, 0, 62, 100
2, 5280, Note_on_c, 0, 70, 100
2, 5312, Control_c, 0, 7, 105
2, 5386, Control_c, 0, 7, 106
2, 5459, Control_c, 0, 7, 107
2, 5496, Control_c, 0, 7, 108
2, 5508, Note_on_c, 0, 70, 0
2, 5508, Note_on_c, 0, 62, 0
2, 5520, Note_on_c, 0, 69, 100
2, 5520, Note_on_c, 0, 60, 100
2, 5569, Control_c, 0, 7, 109
2, 5640, Control_c, 0, 7, 110
2, 5736, Note_on_c, 0, 41, 0
2, 5736, Note_on_c, 0, 48, 0
2, 5748, Note_on_c, 0, 60, 0
2, 5748, Note_on_c, 0, 69, 0
2, 5760, Note_on_c, 0, 48, 100
2, 5760, Note_on_c, 0, 36, 100
2, 5760, Note_on_c, 0, 67, 100
2, 5760, Note_on_c, 0, 64, 100
2, 5760, Note_on_c, 0, 55, 100
2, 5796, Control_c, 0, 7, 109
2, 5870, Control_c, 0, 7, 108
2, 5944, Control_c, 0, 7, 107
2, 5981, Control_c, 0, 7, 106
2, 6054, Control_c, 0, 7, 105
2, 6091, Control_c, 0, 7, 104
2, 6165, Control_c, 0, 7, 103
2, 6238, Control_c, 0, 7, 102
2, 6275, Control_c, 0, 7, 101
2, 6348, Control_c, 0, 7, 100
2, 6422, Control_c, 0, 7, 99
2, 6459, Control_c, 0, 7, 98
2, 6533, Control_c, 0, 7, 97
2, 6606, Control_c, 0, 7, 96
2, 6643, Control_c, 0, 7, 95
2, 6717, Control_c, 0, 7, 94
2, 6754, Control_c, 0, 7, 93
2, 6827, Control_c, 0, 7, 92
2, 6900, Control_c, 0, 7, 91
2, 6937, Control_c, 0, 7, 90
2, 7011, Control_c, 0, 7, 89
2, 7085, Control_c, 0, 7, 88
2, 7121, Control_c, 0, 7, 87
2, 7176, Note_on_c, 0, 55, 0
2, 7176, Note_on_c, 0, 64, 0
2, 7176, Note_on_c, 0, 67, 0
2, 7195, Control_c, 0, 7, 86
2, 7200, Note_on_c, 0, 57, 100
2, 7200, Note_on_c, 0, 64, 100
2, 7200, Note_on_c, 0, 66, 100
2, 7232, Control_c, 0, 7, 85
2, 7306, Control_c, 0, 7, 84
2, 7379, Control_c, 0, 7, 83
2, 7416, Control_c, 0, 7, 82
2, 7489, Control_c, 0, 7, 81
2, 7560, Control_c, 0, 7, 80
2, 7656, Note_on_c, 0, 36, 0
2, 7656, Note_on_c, 0, 48, 0
2, 7656, Note_on_c, 0, 66, 0
2, 7656, Note_on_c, 0, 64, 0
2, 7656, Note_on_c, 0, 57, 0
2, 7680, Note_on_c, 0, 47, 100
2, 7680, Note_on_c, 0, 35, 100
2, 7680, Note_on_c, 0, 57, 100
2, 7680, Note_on_c, 0, 63, 100
2, 7680, Note_on_c, 0, 69, 100
2, 8136, Note_on_c, 0, 69, 0
2, 8136, Note_on_c, 0, 63, 0
2, 8136, Note_on_c, 0, 57, 0
2, 8136, Note_on_c, 0, 35, 0
2, 8136, Note_on_c, 0, 47, 0
2, 11520, Control_c, 0, 7, 75
2, 11520, Note_on_c, 0, 35, 100
2, 11520, Note_on_c, 0, 47, 100
2, 11520, Note_on_c, 0, 59, 100
2, 11520, Note_on_c, 0, 64, 100
2, 11520, Note_on_c, 0, 67, 100
2, 13416, Note_on_c, 0, 67, 0
2, 13416, Note_on_c, 0, 64, 0
2, 13416, Note_on_c, 0, 59, 0
2, 13416, Note_on_c, 0, 47, 0
2, 13416, Note_on_c, 0, 35, 0
2, 13440, Note_on_c, 0, 35, 100
2, 13440, Note_on_c, 0, 47, 100
2, 13440, Note_on_c, 0, 57, 100
2, 13440, Note_on_c, 0, 66, 100
2, 14376, Note_on_c, 0, 66, 0
2, 14376, Note_on_c, 0, 57, 0
2, 14376, Note_on_c, 0, 47, 0
2, 14376, Note_on_c, 0, 35, 0
2, 15360, Note_on_c, 0, 36, 100
2, 15360, Note_on_c, 0, 48, 100
2, 15360, Note_on_c, 0, 64, 100
2, 15360, Note_on_c, 0, 55, 100
2, 16296, Note_on_c, 0, 55, 0
2, 16296, Note_on_c, 0, 64, 0
2, 16296, Note_on_c, 0, 48, 0
2, 16296, Note_on_c, 0, 36, 0
2, 18720, Note_on_c, 0, 48, 100
2, 18720, Note_on_c, 0, 54, 100
2, 18720, Note_on_c, 0, 64, 100
2, 19176, Note_on_c, 0, 64, 0
2, 19176, Note_on_c, 0, 54, 0
2, 19176, Note_on_c, 0, 48, 0
2, 19200, Note_on_c, 0, 59, 100
2, 19200, Note_on_c, 0, 47, 100
2, 19200, Note_on_c, 0, 64, 100
2, 19200, Note_on_c, 0, 68, 100
2, 19656, Note_on_c, 0, 68, 0
2, 19656, Note_on_c, 0, 64, 0
2, 19656, Note_on_c, 0, 47, 0
2, 19656, Note_on_c, 0, 59, 0
2, 21120, Note_on_c, 0, 57, 100
2, 21120, Note_on_c, 0, 47, 100
2, 21120, Note_on_c, 0, 59, 100
2, 21120, Note_on_c, 0, 63, 100
2, 21576, Note_on_c, 0, 63, 0
2, 21576, Note_on_c, 0, 59, 0
2, 21576, Note_on_c, 0, 47, 0
2, 21576, Note_on_c, 0, 57, 0
2, 23040, Note_on_c, 0, 40, 100
2, 23040, Note_on_c, 0, 56, 100
2, 23040, Note_on_c, 0, 59, 100
2, 23344, Note_on_c, 0, 59, 0
2, 23344, Note_on_c, 0, 56, 0
2, 23359, Note_on_c, 0, 56, 100
2, 23359, Note_on_c, 0, 59, 100
2, 23663, Note_on_c, 0, 59, 0
2, 23663, Note_on_c, 0, 56, 0
2, 23679, Note_on_c, 0, 56, 100
2, 23679, Note_on_c, 0, 59, 100
2, 23976, Note_on_c, 0, 40, 0
2, 23983, Note_on_c, 0, 59, 0
2, 23983, Note_on_c, 0, 56, 0
2, 24000, Note_on_c, 0, 47, 100
2, 24000, Note_on_c, 0, 56, 100
2, 24000, Note_on_c, 0, 59, 100
2, 24304, Note_on_c, 0, 59, 0
2, 24304, Note_on_c, 0, 56, 0
2, 24319, Note_on_c, 0, 56, 100
2, 24319, Note_on_c, 0, 59, 100
2, 24456, Note_on_c, 0, 47, 0
2, 24480, Note_on_c, 0, 40, 100
2, 24623, Note_on_c, 0, 59, 0
2, 24623, Note_on_c, 0, 56, 0
2, 24639, Note_on_c, 0, 56, 100
2, 24639, Note_on_c, 0, 59, 100
2, 24936, Note_on_c, 0, 40, 0
2, 24943, Note_on_c, 0, 59, 0
2, 24943, Note_on_c, 0, 56, 0
2, 24960, Note_on_c, 0, 47, 100
2, 24960, Note_on_c, 0, 56, 100
2, 24960, Note_on_c, 0, 59, 100
2, 25264, Note_on_c, 0, 59, 0
2, 25264, Note_on_c, 0, 56, 0
2, 25279, Note_on_c, 0, 56, 100
2, 25279, Note_on_c, 0, 59, 100
2, 25583, Note_on_c, 0, 59, 0
2, 25583, Note_on_c, 0, 56, 0
2, 25599, Note_on_c, 0, 56, 100
2, 25599, Note_on_c, 0, 59, 100
2, 25896, Note_on_c, 0, 47, 0
2, 25903, Note_on_c, 0, 59, 0
2, 25903, Note_on_c, 0, 56, 0
2, 25920, Note_on_c, 0, 40, 100
2, 25920, Note_on_c, 0, 56, 100
2, 25920, Note_on_c, 0, 59, 100
2, 26224, Note_on_c, 0, 59, 0
2, 26224, Note_on_c, 0, 56, 0
2, 26239, Note_on_c, 0, 56, 100
2, 26239, Note_on_c, 0, 59, 100
2, 26376, Note_on_c, 0, 40, 0
2, 26400, Note_on_c, 0, 47, 100
2, 26543, Note_on_c, 0, 59, 0
2, 26543, Note_on_c, 0, 56, 0
2, 26559, Note_on_c, 0, 56, 100
2, 26559, Note_on_c, 0, 59, 100
2, 26856, Note_on_c, 0, 47, 0
2, 26863, Note_on_c, 0, 59, 0
2, 26863, Note_on_c, 0, 56, 0
2, 26880, Note_on_c, 0, 39, 100
2, 26880, Note_on_c, 0, 56, 100
2, 26880, Note_on_c, 0, 59, 100
2, 27184, Note_on_c, 0, 59, 0
2, 27184, Note_on_c, 0, 56, 0
2, 27199, Note_on_c, 0, 56, 100
2, 27199, Note_on_c, 0, 59, 100
2, 27503, Note_on_c, 0, 59, 0
2, 27503, Note_on_c, 0, 56, 0
2, 27519, Note_on_c, 0, 56, 100
2, 27519, Note_on_c, 0, 59, 100
2, 27816, Note_on_c, 0, 39, 0
2, 27823, Note_on_c, 0, 59, 0
2, 27823, Note_on_c, 0, 56, 0
2, 27840, Note_on_c, 0, 47, 100
2, 27840, Note_on_c, 0, 56, 100
2, 27840, Note_on_c, 0, 59, 100
2, 28144, Note_on_c, 0, 59, 0
2, 28144, Note_on_c, 0, 56, 0
2, 28159, Note_on_c, 0, 56, 100
2, 28159, Note_on_c, 0, 59, 100
2, 28296, Note_on_c, 0, 47, 0
2, 28320, Note_on_c, 0, 39, 100
2, 28463, Note_on_c, 0, 59, 0
2, 28463, Note_on_c, 0, 56, 0
2, 28479, Note_on_c, 0, 56, 100
2, 28479, Note_on_c, 0, 59, 100
2, 28776, Note_on_c, 0, 39, 0
2, 28783, Note_on_c, 0, 59, 0
2, 28783, Note_on_c, 0, 56, 0
2, 28800, Note_on_c, 0, 47, 100
2, 28800, Note_on_c, 0, 56, 100
2, 28800, Note_on_c, 0, 59, 100
2, 29104, Note_on_c, 0, 59, 0
2, 29104, Note_on_c, 0, 56, 0
2, 29119, Note_on_c, 0, 56, 100
2, 29119, Note_on_c, 0, 59, 100
2, 29423, Note_on_c, 0, 59, 0
2, 29423, Note_on_c, 0, 56, 0
2, 29439, Note_on_c, 0, 56, 100
2, 29439, Note_on_c, 0, 59, 100
2, 29736, Note_on_c, 0, 47, 0
2, 29743, Note_on_c, 0, 59, 0
2, 29743, Note_on_c, 0, 56, 0
2, 29760, Note_on_c, 0, 38, 100
2, 29760, Note_on_c, 0, 56, 100
2, 29760, Note_on_c, 0, 59, 100
2, 30064, Note_on_c, 0, 59, 0
2, 30064, Note_on_c, 0, 56, 0
2, 30079, Note_on_c, 0, 56, 100
2, 30079, Note_on_c, 0, 59, 100
2, 30193, Control_c, 0, 7, 76
2, 30216, Note_on_c, 0, 38, 0
2, 30240, Note_on_c, 0, 50, 100
2, 30341, Control_c, 0, 7, 77
2, 30383, Note_on_c, 0, 59, 0
2, 30383, Note_on_c, 0, 56, 0
2, 30399, Note_on_c, 0, 56, 100
2, 30399, Note_on_c, 0, 59, 100
2, 30488, Control_c, 0, 7, 78
2, 30635, Control_c, 0, 7, 79
2, 30696, Note_on_c, 0, 50, 0
2, 30703, Note_on_c, 0, 59, 0
2, 30703, Note_on_c, 0, 56, 0
2, 30720, Note_on_c, 0, 51, 100
2, 30720, Note_on_c, 0, 56, 100
2, 30720, Note_on_c, 0, 63, 100
2, 30720, Note_on_c, 0, 60, 100
2, 30782, Control_c, 0, 7, 80
2, 30929, Control_c, 0, 7, 81
2, 31024, Note_on_c, 0, 60, 0
2, 31024, Note_on_c, 0, 63, 0
2, 31024, Note_on_c, 0, 56, 0
2, 31039, Note_on_c, 0, 56, 100
2, 31039, Note_on_c, 0, 63, 100
2, 31039, Note_on_c, 0, 60, 100
2, 31040, Control_c, 0, 7, 82
2, 31187, Control_c, 0, 7, 83
2, 31334, Control_c, 0, 7, 84
2, 31343, Note_on_c, 0, 60, 0
2, 31343, Note_on_c, 0, 63, 0
2, 31343, Note_on_c, 0, 56, 0
2, 31359, Note_on_c, 0, 56, 100
2, 31359, Note_on_c, 0, 63, 100
2, 31359, Note_on_c, 0, 60, 100
2, 31481, Control_c, 0, 7, 85
2, 31629, Control_c, 0, 7, 86
2, 31656, Note_on_c, 0, 51, 0
2, 31663, Note_on_c, 0, 60, 0
2, 31663, Note_on_c, 0, 63, 0
2, 31663, Note_on_c, 0, 56, 0
2, 31680, Note_on_c, 0, 51, 100
2, 31680, Note_on_c, 0, 56, 100
2, 31680, Note_on_c, 0, 63, 100
2, 31680, Note_on_c, 0, 60, 100
2, 31776, Control_c, 0, 7, 87
2, 31886, Control_c, 0, 7, 88
2, 31984, Note_on_c, 0, 60, 0
2, 31984, Note_on_c, 0, 63, 0
2, 31984, Note_on_c, 0, 56, 0
2, 31999, Note_on_c, 0, 56, 100
2, 31999, Note_on_c, 0, 63, 100
2, 31999, Note_on_c, 0, 60, 100
2, 32033, Control_c, 0, 7, 89
2, 32136, Note_on_c, 0, 51, 0
2, 32160, Note_on_c, 0, 39, 100
2, 32181, Control_c, 0, 7, 90
2, 32303, Note_on_c, 0, 60, 0
2, 32303, Note_on_c, 0, 63, 0
2, 32303, Note_on_c, 0, 56, 0
2, 32319, Note_on_c, 0, 56, 100
2, 32319, Note_on_c, 0, 63, 100
2, 32319, Note_on_c, 0, 60, 100
2, 32328, Control_c, 0, 7, 91
2, 32475, Control_c, 0, 7, 92
2, 32616, Note_on_c, 0, 39, 0
2, 32623, Note_on_c, 0, 60, 0
2, 32623, Note_on_c, 0, 63, 0
2, 32623, Note_on_c, 0, 56, 0
2, 32640, Note_on_c, 0, 51, 100
2, 32640, Note_on_c, 0, 55, 100
2, 32640, Note_on_c, 0, 63, 100
2, 32640, Note_on_c, 0, 61, 100
2, 32944, Note_on_c, 0, 61, 0
2, 32944, Note_on_c, 0, 63, 0
2, 32944, Note_on_c, 0, 55, 0
2, 32959, Note_on_c, 0, 55, 100
2, 32959, Note_on_c, 0, 63, 100
2, 32959, Note_on_c, 0, 61, 100
2, 33230, Control_c, 0, 7, 91
2, 33263, Note_on_c, 0, 61, 0
2, 33263, Note_on_c, 0, 63, 0
2, 33263, Note_on_c, 0, 55, 0
2, 33279, Note_on_c, 0, 55, 100
2, 33279, Note_on_c, 0, 63, 100
2, 33279, Note_on_c, 0, 61, 100
2, 33377, Control_c, 0, 7, 90
2, 33525, Control_c, 0, 7, 89
2, 33576, Note_on_c, 0, 51, 0
2, 33583, Note_on_c, 0, 61, 0
2, 33583, Note_on_c, 0, 63, 0
2, 33583, Note_on_c, 0, 55, 0
2, 33600, Note_on_c, 0, 39, 100
2, 33600, Note_on_c, 0, 55, 100
2, 33600, Note_on_c, 0, 63, 100
2, 33600, Note_on_c, 0, 61, 100
2, 33672, Control_c, 0, 7, 88
2, 33819, Control_c, 0, 7, 87
2, 33904, Note_on_c, 0, 61, 0
2, 33904, Note_on_c, 0, 63, 0
2, 33904, Note_on_c, 0, 55, 0
2, 33919, Note_on_c, 0, 55, 100
2, 33919, Note_on_c, 0, 63, 100
2, 33919, Note_on_c, 0, 61, 100
2, 34003, Control_c, 0, 7, 86
2, 34056, Note_on_c, 0, 39, 0
2, 34080, Note_on_c, 0, 51, 100
2, 34150, Control_c, 0, 7, 85
2, 34223, Note_on_c, 0, 61, 0
2, 34223, Note_on_c, 0, 63, 0
2, 34223, Note_on_c, 0, 55, 0
2, 34239, Note_on_c, 0, 55, 100
2, 34239, Note_on_c, 0, 63, 100
2, 34239, Note_on_c, 0, 61, 100
2, 34297, Control_c, 0, 7, 84
2, 34445, Control_c, 0, 7, 83
2, 34536, Note_on_c, 0, 51, 0
2, 34543, Note_on_c, 0, 61, 0
2, 34543, Note_on_c, 0, 63, 0
2, 34543, Note_on_c, 0, 55, 0
2, 34560, Note_on_c, 0, 44, 100
2, 34560, Note_on_c, 0, 67, 100
2, 34560, Note_on_c, 0, 61, 100
2, 34629, Control_c, 0, 7, 82
2, 34776, Control_c, 0, 7, 81
2, 34864, Note_on_c, 0, 61, 0
2, 34864, Note_on_c, 0, 67, 0
2, 34879, Note_on_c, 0, 67, 100
2, 34879, Note_on_c, 0, 61, 100
2, 34923, Control_c, 0, 7, 80
2, 35070, Control_c, 0, 7, 79
2, 35183, Note_on_c, 0, 61, 0
2, 35183, Note_on_c, 0, 67, 0
2, 35199, Note_on_c, 0, 67, 100
2, 35199, Note_on_c, 0, 61, 100
2, 35218, Control_c, 0, 7, 78
2, 35401, Control_c, 0, 7, 77
2, 35496, Note_on_c, 0, 44, 0
2, 35503, Note_on_c, 0, 61, 0
2, 35503, Note_on_c, 0, 67, 0
2, 35520, Note_on_c, 0, 51, 100
2, 35520, Note_on_c, 0, 67, 100
2, 35520, Note_on_c, 0, 61, 100
2, 35549, Control_c, 0, 7, 76
2, 35696, Control_c, 0, 7, 75
2, 35824, Note_on_c, 0, 61, 0
2, 35824, Note_on_c, 0, 67, 0
2, 35839, Note_on_c, 0, 67, 100
2, 35839, Note_on_c, 0, 61, 100
2, 35976, Note_on_c, 0, 51, 0
2, 36000, Note_on_c, 0, 44, 100
2, 36143, Note_on_c, 0, 61, 0
2, 36143, Note_on_c, 0, 67, 0
2, 36159, Note_on_c, 0, 67, 100
2, 36159, Note_on_c, 0, 61, 100
2, 36456, Note_on_c, 0, 44, 0
2, 36463, Note_on_c, 0, 61, 0
2, 36463, Note_on_c, 0, 67, 0
2, 36480, Note_on_c, 0, 44, 100
2, 36480, Note_on_c, 0, 68, 100
2, 36480, Note_on_c, 0, 60, 100
2, 36784, Note_on_c, 0, 60, 0
2, 36784, Note_on_c, 0, 68, 0
2, 36799, Note_on_c, 0, 68, 100
2, 36799, Note_on_c, 0, 60, 100
2, 37103, Note_on_c, 0, 60, 0
2, 37103, Note_on_c, 0, 68, 0
2, 37119, Note_on_c, 0, 68, 100
2, 37119, Note_on_c, 0, 60, 100
2, 37416, Note_on_c, 0, 44, 0
2, 37423, Note_on_c, 0, 60, 0
2, 37423, Note_on_c, 0, 68, 0
2, 37440, Note_on_c, 0, 51, 100
2, 37440, Note_on_c, 0, 68, 100
2, 37440, Note_on_c, 0, 60, 100
2, 37744, Note_on_c, 0, 60, 0
2, 37744, Note_on_c, 0, 68, 0
2, 37759, Note_on_c, 0, 68, 100
2, 37759, Note_on_c, 0, 60, 100
2, 37896, Note_on_c, 0, 51, 0
2, 37920, Note_on_c, 0, 44, 100
2, 38063, Note_on_c, 0, 60, 0
2, 38063, Note_on_c, 0, 68, 0
2, 38079, Note_on_c, 0, 68, 100
2, 38079, Note_on_c, 0, 60, 100
2, 38376, Note_on_c, 0, 44, 0
2, 38383, Note_on_c, 0, 60, 0
2, 38383, Note_on_c, 0, 68, 0
2, 38400, Note_on_c, 0, 37, 100
2, 38400, Note_on_c, 0, 56, 100
2, 38400, Note_on_c, 0, 65, 100
2, 38400, Note_on_c, 0, 61, 100
2, 38704, Note_on_c, 0, 61, 0
2, 38704, Note_on_c, 0, 65, 0
2, 38704, Note_on_c, 0, 56, 0
2, 38719, Note_on_c, 0, 56, 100
2, 38719, Note_on_c, 0, 65, 100
2, 38719, Note_on_c, 0, 61, 100
2, 39023, Note_on_c, 0, 61, 0
2, 39023, Note_on_c, 0, 65, 0
2, 39023, Note_on_c, 0, 56, 0
2, 39039, Note_on_c, 0, 56, 100
2, 39039, Note_on_c, 0, 65, 100
2, 39039, Note_on_c, 0, 61, 100
2, 39336, Note_on_c, 0, 37, 0
2, 39343, Note_on_c, 0, 61, 0
2, 39343, Note_on_c, 0, 65, 0
2, 39343, Note_on_c, 0, 56, 0
2, 39360, Note_on_c, 0, 44, 100
2, 39360, Note_on_c, 0, 56, 100
2, 39360, Note_on_c, 0, 65, 100
2, 39360, Note_on_c, 0, 61, 100
2, 39664, Note_on_c, 0, 61, 0
2, 39664, Note_on_c, 0, 65, 0
2, 39664, Note_on_c, 0, 56, 0
2, 39679, Note_on_c, 0, 56, 100
2, 39679, Note_on_c, 0, 65, 100
2, 39679, Note_on_c, 0, 61, 100
2, 39816, Note_on_c, 0, 44, 0
2, 39840, Note_on_c, 0, 37, 100
2, 39983, Note_on_c, 0, 61, 0
2, 39983, Note_on_c, 0, 65, 0
2, 39983, Note_on_c, 0, 56, 0
2, 39999, Note_on_c, 0, 56, 100
2, 39999, Note_on_c, 0, 65, 100
2, 39999, Note_on_c, 0, 61, 100
2, 40296, Note_on_c, 0, 37, 0
2, 40303, Note_on_c, 0, 61, 0
2, 40303, Note_on_c, 0, 65, 0
2, 40303, Note_on_c, 0, 56, 0
2, 40320, Note_on_c, 0, 44, 100
2, 40320, Note_on_c, 0, 56, 100
2, 40320, Note_on_c, 0, 64, 100
2, 40320, Note_on_c, 0, 61, 100
2, 40430, Control_c, 0, 7, 76
2, 40614, Control_c, 0, 7, 77
2, 40624, Note_on_c, 0, 61, 0
2, 40624, Note_on_c, 0, 64, 0
2, 40624, Note_on_c, 0, 56, 0
2, 40639, Note_on_c, 0, 56, 100
2, 40639, Note_on_c, 0, 64, 100
2, 40639, Note_on_c, 0, 61, 100
2, 40798, Control_c, 0, 7, 78
2, 40943, Note_on_c, 0, 61, 0
2, 40943, Note_on_c, 0, 64, 0
2, 40943, Note_on_c, 0, 56, 0
2, 40959, Note_on_c, 0, 56, 100
2, 40959, Note_on_c, 0, 64, 100
2, 40959, Note_on_c, 0, 61, 100
2, 40982, Control_c, 0, 7, 79
2, 41166, Control_c, 0, 7, 80
2, 41256, Note_on_c, 0, 44, 0
2, 41263, Note_on_c, 0, 61, 0
2, 41263, Note_on_c, 0, 64, 0
2, 41263, Note_on_c, 0, 56, 0
2, 41280, Note_on_c, 0, 37, 100
2, 41280, Note_on_c, 0, 56, 100
2, 41280, Note_on_c, 0, 64, 100
2, 41280, Note_on_c, 0, 61, 100
2, 41350, Control_c, 0, 7, 81
2, 41534, Control_c, 0, 7, 82
2, 41584, Note_on_c, 0, 61, 0
2, 41584, Note_on_c, 0, 64, 0
2, 41584, Note_on_c, 0, 56, 0
2, 41599, Note_on_c, 0, 56, 100
2, 41599, Note_on_c, 0, 64, 100
2, 41599, Note_on_c, 0, 61, 100
2, 41718, Control_c, 0, 7, 83
2, 41736, Note_on_c, 0, 37, 0
2, 41760, Note_on_c, 0, 44, 100
2, 41902, Control_c, 0, 7, 84
2, 41903, Note_on_c, 0, 61, 0
2, 41903, Note_on_c, 0, 64, 0
2, 41903, Note_on_c, 0, 56, 0
2, 41919, Note_on_c, 0, 56, 100
2, 41919, Note_on_c, 0, 64, 100
2, 41919, Note_on_c, 0, 61, 100
2, 42086, Control_c, 0, 7, 85
2, 42216, Note_on_c, 0, 44, 0
2, 42223, Note_on_c, 0, 61, 0
2, 42223, Note_on_c, 0, 64, 0
2, 42223, Note_on_c, 0, 56, 0
2, 42240, Note_on_c, 0, 36, 100
2, 42240, Note_on_c, 0, 56, 100
2, 42240, Note_on_c, 0, 64, 100
2, 42240, Note_on_c, 0, 60, 100
2, 42270, Control_c, 0, 7, 86
2, 42454, Control_c, 0, 7, 87
2, 42544, Note_on_c, 0, 60, 0
2, 42544, Note_on_c, 0, 64, 0
2, 42544, Note_on_c, 0, 56, 0
2, 42559, Note_on_c, 0, 55, 100
2, 42559, Note_on_c, 0, 64, 100
2, 42559, Note_on_c, 0, 60, 100
2, 42638, Control_c, 0, 7, 88
2, 42863, Note_on_c, 0, 60, 0
2, 42863, Note_on_c, 0, 64, 0
2, 42863, Note_on_c, 0, 55, 0
2, 42879, Note_on_c, 0, 55, 100
2, 42879, Note_on_c, 0, 64, 100
2, 42879, Note_on_c, 0, 60, 100
2, 43176, Note_on_c, 0, 36, 0
2, 43183, Note_on_c, 0, 60, 0
2, 43183, Note_on_c, 0, 64, 0
2, 43183, Note_on_c, 0, 55, 0
2, 43200, Note_on_c, 0, 48, 100
2, 43200, Note_on_c, 0, 55, 100
2, 43200, Note_on_c, 0, 64, 100
2, 43200, Note_on_c, 0, 60, 100
2, 43504, Note_on_c, 0, 60, 0
2, 43504, Note_on_c, 0, 64, 0
2, 43504, Note_on_c, 0, 55, 0
2, 43519, Note_on_c, 0, 55, 100
2, 43519, Note_on_c, 0, 64, 100
2, 43519, Note_on_c, 0, 60, 100
2, 43633, Control_c, 0, 7, 87
2, 43656, Note_on_c, 0, 48, 0
2, 43680, Note_on_c, 0, 36, 100
2, 43744, Control_c, 0, 7, 86
2, 43823, Note_on_c, 0, 60, 0
2, 43823, Note_on_c, 0, 64, 0
2, 43823, Note_on_c, 0, 55, 0
2, 43839, Note_on_c, 0, 55, 100
2, 43839, Note_on_c, 0, 64, 100
2, 43839, Note_on_c, 0, 60, 100
2, 43854, Control_c, 0, 7, 85
2, 43965, Control_c, 0, 7, 84
2, 44075, Control_c, 0, 7, 83
2, 44136, Note_on_c, 0, 36, 0
2, 44143, Note_on_c, 0, 60, 0
2, 44143, Note_on_c, 0, 64, 0
2, 44143, Note_on_c, 0, 55, 0
2, 44160, Note_on_c, 0, 48, 100
2, 44160, Note_on_c, 0, 55, 100
2, 44160, Note_on_c, 0, 64, 100
2, 44160, Note_on_c, 0, 60, 100
2, 44185, Control_c, 0, 7, 82
2, 44296, Control_c, 0, 7, 81
2, 44406, Control_c, 0, 7, 80
2, 44464, Note_on_c, 0, 60, 0
2, 44464, Note_on_c, 0, 64, 0
2, 44464, Note_on_c, 0, 55, 0
2, 44479, Note_on_c, 0, 55, 100
2, 44479, Note_on_c, 0, 64, 100
2, 44479, Note_on_c, 0, 60, 100
2, 44517, Control_c, 0, 7, 79
2, 44627, Control_c, 0, 7, 78
2, 44737, Control_c, 0, 7, 77
2, 44783, Note_on_c, 0, 60, 0
2, 44783, Note_on_c, 0, 64, 0
2, 44783, Note_on_c, 0, 55, 0
2, 44799, Note_on_c, 0, 55, 100
2, 44799, Note_on_c, 0, 64, 100
2, 44799, Note_on_c, 0, 60, 100
2, 44848, Control_c, 0, 7, 76
2, 44958, Control_c, 0, 7, 75
2, 45096, Note_on_c, 0, 48, 0
2, 45103, Note_on_c, 0, 60, 0
2, 45103, Note_on_c, 0, 64, 0
2, 45103, Note_on_c, 0, 55, 0
2, 45120, Note_on_c, 0, 36, 100
2, 45120, Note_on_c, 0, 55, 100
2, 45120, Note_on_c, 0, 64, 100
2, 45120, Note_on_c, 0, 60, 100
2, 45424, Note_on_c, 0, 60, 0
2, 45424, Note_on_c, 0, 64, 0
2, 45424, Note_on_c, 0, 55, 0
2, 45439, Note_on_c, 0, 55, 100
2, 45439, Note_on_c, 0, 64, 100
2, 45439, Note_on_c, 0, 60, 100
2, 45576, Note_on_c, 0, 36, 0
2, 45600, Note_on_c, 0, 48, 100
2, 45743, Note_on_c, 0, 60, 0
2, 45743, Note_on_c, 0, 64, 0
2, 45743, Note_on_c, 0, 55, 0
2, 45759, Note_on_c, 0, 55, 100
2, 45759, Note_on_c, 0, 64, 100
2, 45759, Note_on_c, 0, 60, 100
2, 46056, Note_on_c, 0, 48, 0
2, 46063, Note_on_c, 0, 60, 0
2, 46063, Note_on_c, 0, 64, 0
2, 46063, Note_on_c, 0, 55, 0
2, 46080, Note_on_c, 0, 47, 100
2, 46080, Note_on_c, 0, 35, 100
2, 46080, Note_on_c, 0, 64, 100
2, 46080, Note_on_c, 0, 59, 100
2, 46080, Note_on_c, 0, 55, 100
2, 46536, Note_on_c, 0, 55, 0
2, 46536, Note_on_c, 0, 59, 0
2, 46536, Note_on_c, 0, 64, 0
2, 46536, Note_on_c, 0, 35, 0
2, 46536, Note_on_c, 0, 47, 0
2, 51840, Note_on_c, 0, 45, 100
2, 51840, Note_on_c, 0, 33, 100
2, 51840, Note_on_c, 0, 54, 100
2, 51840, Note_on_c, 0, 60, 100
2, 51840, Note_on_c, 0, 64, 100
2, 52296, Note_on_c, 0, 64, 0
2, 52296, Note_on_c, 0, 60, 0
2, 52296, Note_on_c, 0, 54, 0
2, 52296, Note_on_c, 0, 33, 0
2, 52296, Note_on_c, 0, 45, 0
2, 55680, Note_on_c, 0, 47, 100
2, 55680, Note_on_c, 0, 35, 100
2, 55680, Note_on_c, 0, 55, 100
2, 55680, Note_on_c, 0, 59, 100
2, 55680, Note_on_c, 0, 64, 100
2, 56628, Note_on_c, 0, 64, 0
2, 56628, Note_on_c, 0, 59, 0
2, 56628, Note_on_c, 0, 55, 0
2, 56628, Note_on_c, 0, 35, 0
2, 56628, Note_on_c, 0, 47, 0
2, 59520, Control_c, 0, 7, 92
2, 59520, Note_on_c, 0, 49, 100
2, 59520, Note_on_c, 0, 37, 100
2, 59520, Note_on_c, 0, 64, 100
2, 59520, Note_on_c, 0, 67, 100
2, 59520, Note_on_c, 0, 58, 100
2, 60936, Note_on_c, 0, 58, 0
2, 60936, Note_on_c, 0, 67, 0
2, 60936, Note_on_c, 0, 64, 0
2, 60936, Note_on_c, 0, 37, 0
2, 60936, Note_on_c, 0, 49, 0
2, 61440, Note_on_c, 0, 47, 100
2, 61440, Note_on_c, 0, 35, 100
2, 61440, Note_on_c, 0, 55, 100
2, 61440, Note_on_c, 0, 59, 100
2, 61440, Note_on_c, 0, 64, 100
2, 61440, Note_on_c, 0, 67, 100
2, 63336, Note_on_c, 0, 67, 0
2, 63336, Note_on_c, 0, 64, 0
2, 63336, Note_on_c, 0, 59, 0
2, 63336, Note_on_c, 0, 55, 0
2, 63336, Note_on_c, 0, 35, 0
2, 63336, Note_on_c, 0, 47, 0
2, 67200, Control_c, 0, 7, 80
2, 67200, Note_on_c, 0, 57, 100
2, 67200, Note_on_c, 0, 63, 100
2, 67200, Note_on_c, 0, 47, 100
2, 67200, Note_on_c, 0, 35, 100
2, 68148, Note_on_c, 0, 35, 0
2, 68148, Note_on_c, 0, 47, 0
2, 68148, Note_on_c, 0, 63, 0
2, 68148, Note_on_c, 0, 57, 0
2, 69120, Control_c, 0, 7, 72
2, 69120, Note_on_c, 0, 55, 100
2, 69120, Note_on_c, 0, 60, 100
2, 69120, Note_on_c, 0, 64, 100
2, 69120, Note_on_c, 0, 46, 100
2, 69120, Note_on_c, 0, 34, 100
2, 70068, Note_on_c, 0, 34, 0
2, 70068, Note_on_c, 0, 46, 0
2, 70068, Note_on_c, 0, 64, 0
2, 70068, Note_on_c, 0, 60, 0
2, 70068, Note_on_c, 0, 55, 0
2, 72960, Control_c, 0, 7, 68
2, 72960, Note_on_c, 0, 53, 100
2, 72960, Note_on_c, 0, 60, 100
2, 72960, Note_on_c, 0, 65, 100
2, 72960, Note_on_c, 0, 44, 100
2, 72960, Note_on_c, 0, 32, 100
2, 74856, Note_on_c, 0, 32, 0
2, 74856, Note_on_c, 0, 44, 0
2, 74856, Note_on_c, 0, 65, 0
2, 74856, Note_on_c, 0, 60, 0
2, 74856, Note_on_c, 0, 53, 0
2, 74880, Note_on_c, 0, 49, 100
2, 74880, Note_on_c, 0, 37, 100
2, 74880, Note_on_c, 0, 61, 100
2, 74880, Note_on_c, 0, 56, 100
2, 74880, Note_on_c, 0, 65, 100
2, 75816, Note_on_c, 0, 61, 0
2, 75816, Note_on_c, 0, 37, 0
2, 75816, Note_on_c, 0, 49, 0
2, 75840, Note_on_c, 0, 62, 100
2, 75840, Note_on_c, 0, 36, 100
2, 75840, Note_on_c, 0, 48, 100
2, 76776, Note_on_c, 0, 48, 0
2, 76776, Note_on_c, 0, 36, 0
2, 76776, Note_on_c, 0, 62, 0
2, 76776, Note_on_c, 0, 65, 0
2, 76776, Note_on_c, 0, 56, 0
2, 76800, Note_on_c, 0, 63, 100
2, 76800, Note_on_c, 0, 35, 100
2, 76800, Note_on_c, 0, 47, 100
2, 76800, Note_on_c, 0, 57, 100
2, 76800, Note_on_c, 0, 66, 100
2, 77736, Note_on_c, 0, 66, 0
2, 77736, Note_on_c, 0, 57, 0
2, 77736, Note_on_c, 0, 47, 0
2, 77736, Note_on_c, 0, 35, 0
2, 77736, Note_on_c, 0, 63, 0
2, 84480, Note_on_c, 0, 40, 100
2, 84480, Note_on_c, 0, 47, 100
2, 84480, Note_on_c, 0, 55, 100
2, 84720, Note_on_c, 0, 59, 100
2, 84936, Note_on_c, 0, 55, 0
2, 84948, Note_on_c, 0, 59, 0
2, 84960, Note_on_c, 0, 55, 100
2, 84960, Note_on_c, 0, 64, 100
2, 85033, Control_c, 0, 7, 69
2, 85180, Control_c, 0, 7, 70
2, 85188, Note_on_c, 0, 64, 0
2, 85188, Note_on_c, 0, 55, 0
2, 85200, Note_on_c, 0, 54, 100
2, 85200, Note_on_c, 0, 63, 100
2, 85291, Control_c, 0, 7, 71
2, 85428, Note_on_c, 0, 63, 0
2, 85428, Note_on_c, 0, 54, 0
2, 85438, Control_c, 0, 7, 72
2, 85440, Note_on_c, 0, 57, 100
2, 85440, Note_on_c, 0, 66, 100
2, 85585, Control_c, 0, 7, 73
2, 85668, Note_on_c, 0, 66, 0
2, 85668, Note_on_c, 0, 57, 0
2, 85680, Note_on_c, 0, 55, 100
2, 85680, Note_on_c, 0, 64, 100
2, 85696, Control_c, 0, 7, 74
2, 85843, Control_c, 0, 7, 75
2, 85908, Note_on_c, 0, 64, 0
2, 85908, Note_on_c, 0, 55, 0
2, 85920, Note_on_c, 0, 60, 100
2, 85920, Note_on_c, 0, 69, 100
2, 85953, Control_c, 0, 7, 76
2, 86100, Control_c, 0, 7, 77
2, 86148, Note_on_c, 0, 69, 0
2, 86148, Note_on_c, 0, 60, 0
2, 86160, Note_on_c, 0, 59, 100
2, 86160, Note_on_c, 0, 67, 100
2, 86248, Control_c, 0, 7, 78
2, 86376, Note_on_c, 0, 47, 0
2, 86376, Note_on_c, 0, 40, 0
2, 86388, Note_on_c, 0, 67, 0
2, 86388, Note_on_c, 0, 59, 0
2, 86400, Note_on_c, 0, 47, 100
2, 86400, Note_on_c, 0, 35, 100
2, 86400, Note_on_c, 0, 57, 100
2, 86400, Note_on_c, 0, 59, 100
2, 86400, Note_on_c, 0, 66, 100
2, 86400, Note_on_c, 0, 63, 100
2, 86473, Control_c, 0, 7, 77
2, 86584, Control_c, 0, 7, 76
2, 86657, Control_c, 0, 7, 75
2, 86768, Control_c, 0, 7, 74
2, 86878, Control_c, 0, 7, 73
2, 86952, Control_c, 0, 7, 72
2, 87062, Control_c, 0, 7, 71
2, 87172, Control_c, 0, 7, 70
2, 87283, Control_c, 0, 7, 69
2, 87357, Control_c, 0, 7, 68
2, 87467, Control_c, 0, 7, 67
2, 87577, Control_c, 0, 7, 66
2, 87651, Control_c, 0, 7, 65
2, 87761, Control_c, 0, 7, 64
2, 87872, Control_c, 0, 7, 63
2, 87982, Control_c, 0, 7, 62
2, 88056, Control_c, 0, 7, 61
2, 88166, Control_c, 0, 7, 60
2, 88296, Note_on_c, 0, 63, 0
2, 88296, Note_on_c, 0, 66, 0
2, 88296, Note_on_c, 0, 59, 0
2, 88296, Note_on_c, 0, 57, 0
2, 88296, Note_on_c, 0, 35, 0
2, 88296, Note_on_c, 0, 47, 0
2, 88320, Note_on_c, 0, 47, 100
2, 88320, Note_on_c, 0, 40, 100
2, 88320, Note_on_c, 0, 55, 100
2, 88320, Note_on_c, 0, 59, 100
2, 88320, Note_on_c, 0, 64, 100
2, 90216, Note_on_c, 0, 64, 0
2, 90216, Note_on_c, 0, 59, 0
2, 90216, Note_on_c, 0, 55, 0
2, 90216, Note_on_c, 0, 40, 0
2, 90216, Note_on_c, 0, 47, 0
2, 90240, End_track
3, 0, Start_track
3, 0, Control_c, 1, 7, 127
3, 0, Control_c, 1, 0, 0
3, 0, Control_c, 1, 32, 0
3, 0, Program_c, 1, 53
3, 0, Control_c, 1, 1, 0
3, 0, Control_c, 1, 10, 64
3, 0, Control_c, 1, 91, 0
3, 0, Control_c, 1, 93, 0
3, 0, Key_signature, 1, "major"
3, 0, Title_t, "Voice"
3, 7680, Control_c, 1, 7, 110
3, 7680, Note_on_c, 1, 72, 100
3, 7790, Control_c, 1, 7, 109
3, 7974, Control_c, 1, 7, 108
3, 8158, Control_c, 1, 7, 107
3, 8342, Control_c, 1, 7, 106
3, 8526, Control_c, 1, 7, 105
3, 8616, Note_on_c, 1, 72, 0
3, 8640, Note_on_c, 1, 71, 100
3, 8673, Control_c, 1, 7, 104
3, 8857, Control_c, 1, 7, 103
3, 9041, Control_c, 1, 7, 102
3, 9096, Note_on_c, 1, 71, 0
3, 9120, Note_on_c, 1, 70, 100
3, 9225, Control_c, 1, 7, 101
3, 9409, Control_c, 1, 7, 100
3, 9576, Note_on_c, 1, 70, 0
3, 9600, Note_on_c, 1, 71, 100
3, 11016, Note_on_c, 1, 71, 0
3, 11040, Note_on_c, 1, 66, 100
3, 11496, Note_on_c, 1, 66, 0
3, 11520, Note_on_c, 1, 67, 100
3, 11630, Control_c, 1, 7, 101
3, 11777, Control_c, 1, 7, 102
3, 11961, Control_c, 1, 7, 103
3, 11976, Note_on_c, 1, 67, 0
3, 12000, Note_on_c, 1, 69, 100
3, 12108, Control_c, 1, 7, 104
3, 12292, Control_c, 1, 7, 105
3, 12440, Control_c, 1, 7, 106
3, 12456, Note_on_c, 1, 69, 0
3, 12480, Note_on_c, 1, 71, 100
3, 12587, Control_c, 1, 7, 107
3, 12771, Control_c, 1, 7, 108
3, 12918, Control_c, 1, 7, 109
3, 12936, Note_on_c, 1, 71, 0
3, 12960, Note_on_c, 1, 73, 100
3, 13102, Control_c, 1, 7, 110
3, 13249, Control_c, 1, 7, 111
3, 13416, Note_on_c, 1, 73, 0
3, 13433, Control_c, 1, 7, 112
3, 13440, Note_on_c, 1, 75, 100
3, 13505, Note_on_c, 1, 75, 0
3, 13507, Note_on_c, 1, 76, 100
3, 13572, Note_on_c, 1, 76, 0
3, 13577, Note_on_c, 1, 75, 100
3, 13581, Control_c, 1, 7, 113
3, 13642, Note_on_c, 1, 75, 0
3, 13644, Note_on_c, 1, 76, 100
3, 13709, Note_on_c, 1, 76, 0
3, 13714, Note_on_c, 1, 75, 100
3, 13764, Control_c, 1, 7, 114
3, 13778, Note_on_c, 1, 75, 0
3, 13781, Note_on_c, 1, 76, 100
3, 13846, Note_on_c, 1, 76, 0
3, 13850, Note_on_c, 1, 75, 100
3, 13912, Control_c, 1, 7, 115
3, 13915, Note_on_c, 1, 75, 0
3, 13920, Note_on_c, 1, 76, 100
3, 13985, Note_on_c, 1, 76, 0
3, 13987, Note_on_c, 1, 75, 100
3, 14052, Note_on_c, 1, 75, 0
3, 14057, Note_on_c, 1, 76, 100
3, 14096, Control_c, 1, 7, 116
3, 14122, Note_on_c, 1, 76, 0
3, 14124, Note_on_c, 1, 75, 100
3, 14189, Note_on_c, 1, 75, 0
3, 14194, Note_on_c, 1, 76, 100
3, 14243, Control_c, 1, 7, 117
3, 14258, Note_on_c, 1, 76, 0
3, 14261, Note_on_c, 1, 75, 100
3, 14326, Note_on_c, 1, 75, 0
3, 14330, Note_on_c, 1, 76, 100
3, 14390, Control_c, 1, 7, 118
3, 14395, Note_on_c, 1, 76, 0
3, 14400, Note_on_c, 1, 75, 100
3, 14465, Note_on_c, 1, 75, 0
3, 14467, Note_on_c, 1, 76, 100
3, 14532, Note_on_c, 1, 76, 0
3, 14537, Note_on_c, 1, 75, 100
3, 14574, Control_c, 1, 7, 119
3, 14602, Note_on_c, 1, 75, 0
3, 14604, Note_on_c, 1, 76, 100
3, 14669, Note_on_c, 1, 76, 0
3, 14674, Note_on_c, 1, 75, 100
3, 14721, Control_c, 1, 7, 120
3, 14738, Note_on_c, 1, 75, 0
3, 14741, Note_on_c, 1, 76, 100
3, 14806, Note_on_c, 1, 76, 0
3, 14810, Note_on_c, 1, 75, 100
3, 14875, Note_on_c, 1, 75, 0
3, 14880, Note_on_c, 1, 73, 100
3, 14905, Control_c, 1, 7, 121
3, 15052, Control_c, 1, 7, 122
3, 15108, Note_on_c, 1, 73, 0
3, 15120, Note_on_c, 1, 75, 100
3, 15237, Control_c, 1, 7, 123
3, 15348, Note_on_c, 1, 75, 0
3, 15360, Note_on_c, 1, 76, 100
3, 15876, Control_c, 1, 7, 122
3, 15950, Control_c, 1, 7, 121
3, 15987, Control_c, 1, 7, 120
3, 16061, Control_c, 1, 7, 119
3, 16097, Control_c, 1, 7, 118
3, 16134, Control_c, 1, 7, 117
3, 16208, Control_c, 1, 7, 116
3, 16245, Control_c, 1, 7, 115
3, 16296, Note_on_c, 1, 76, 0
3, 16318, Control_c, 1, 7, 114
3, 16320, Note_on_c, 1, 74, 100
3, 17028, Note_on_c, 1, 74, 0
3, 17040, Note_on_c, 1, 72, 100
3, 17268, Note_on_c, 1, 72, 0
3, 17280, Note_on_c, 1, 71, 100
3, 17736, Note_on_c, 1, 71, 0
3, 17760, Note_on_c, 1, 72, 100
3, 17870, Control_c, 1, 7, 113
3, 18091, Control_c, 1, 7, 112
3, 18170, Note_on_c, 1, 72, 0
3, 18240, Note_on_c, 1, 67, 100
3, 18312, Control_c, 1, 7, 111
3, 18533, Control_c, 1, 7, 110
3, 18696, Note_on_c, 1, 67, 0
3, 18720, Note_on_c, 1, 69, 100
3, 18754, Control_c, 1, 7, 109
3, 18974, Control_c, 1, 7, 108
3, 19158, Control_c, 1, 7, 107
3, 19176, Note_on_c, 1, 69, 0
3, 19200, Note_on_c, 1, 71, 100
3, 19379, Control_c, 1, 7, 106
3, 19600, Control_c, 1, 7, 105
3, 19656, Note_on_c, 1, 71, 0
3, 19680, Note_on_c, 1, 70, 100
3, 19821, Control_c, 1, 7, 104
3, 20041, Control_c, 1, 7, 103
3, 20090, Note_on_c, 1, 70, 0
3, 20160, Note_on_c, 1, 69, 100
3, 20262, Control_c, 1, 7, 102
3, 20483, Control_c, 1, 7, 101
3, 20616, Note_on_c, 1, 69, 0
3, 20640, Note_on_c, 1, 68, 100
3, 20667, Control_c, 1, 7, 100
3, 20888, Control_c, 1, 7, 99
3, 21096, Note_on_c, 1, 68, 0
3, 21108, Control_c, 1, 7, 98
3, 21120, Note_on_c, 1, 68, 100
3, 21329, Control_c, 1, 7, 97
3, 21550, Control_c, 1, 7, 96
3, 21771, Control_c, 1, 7, 95
3, 21955, Control_c, 1, 7, 94
3, 22176, Control_c, 1, 7, 93
3, 22397, Control_c, 1, 7, 92
3, 22536, Note_on_c, 1, 68, 0
3, 22560, Note_on_c, 1, 66, 100
3, 22618, Control_c, 1, 7, 91
3, 22838, Control_c, 1, 7, 90
3, 23016, Note_on_c, 1, 66, 0
3, 23040, Note_on_c, 1, 64, 100
3, 23496, Note_on_c, 1, 64, 0
3, 28320, Note_on_c, 1, 68, 100
3, 28776, Note_on_c, 1, 68, 0
3, 28800, Note_on_c, 1, 68, 100
3, 30193, Control_c, 1, 7, 91
3, 30216, Note_on_c, 1, 68, 0
3, 30240, Note_on_c, 1, 70, 100
3, 30304, Control_c, 1, 7, 92
3, 30414, Control_c, 1, 7, 93
3, 30525, Control_c, 1, 7, 94
3, 30635, Control_c, 1, 7, 95
3, 30696, Note_on_c, 1, 70, 0
3, 30720, Note_on_c, 1, 72, 100
3, 30782, Control_c, 1, 7, 96
3, 30893, Control_c, 1, 7, 97
3, 31003, Control_c, 1, 7, 98
3, 31114, Control_c, 1, 7, 99
3, 31224, Control_c, 1, 7, 100
3, 31334, Control_c, 1, 7, 101
3, 31445, Control_c, 1, 7, 102
3, 31555, Control_c, 1, 7, 103
3, 31666, Control_c, 1, 7, 104
3, 31812, Control_c, 1, 7, 105
3, 31923, Control_c, 1, 7, 106
3, 32033, Control_c, 1, 7, 107
3, 32136, Note_on_c, 1, 72, 0
3, 32144, Control_c, 1, 7, 108
3, 32160, Note_on_c, 1, 73, 100
3, 32254, Control_c, 1, 7, 109
3, 32364, Control_c, 1, 7, 110
3, 32475, Control_c, 1, 7, 111
3, 32616, Note_on_c, 1, 73, 0
3, 32640, Note_on_c, 1, 77, 100
3, 33096, Note_on_c, 1, 77, 0
3, 33120, Note_on_c, 1, 75, 100
3, 33193, Control_c, 1, 7, 110
3, 33341, Control_c, 1, 7, 109
3, 33451, Control_c, 1, 7, 108
3, 33562, Control_c, 1, 7, 107
3, 33576, Note_on_c, 1, 75, 0
3, 33600, Note_on_c, 1, 73, 100
3, 33708, Control_c, 1, 7, 106
3, 33819, Control_c, 1, 7, 105
3, 33966, Control_c, 1, 7, 104
3, 34056, Note_on_c, 1, 73, 0
3, 34077, Control_c, 1, 7, 103
3, 34080, Note_on_c, 1, 70, 100
3, 34224, Control_c, 1, 7, 102
3, 34334, Control_c, 1, 7, 101
3, 34445, Control_c, 1, 7, 100
3, 34536, Note_on_c, 1, 70, 0
3, 34560, Note_on_c, 1, 70, 100
3, 34592, Control_c, 1, 7, 99
3, 34702, Control_c, 1, 7, 98
3, 34849, Control_c, 1, 7, 97
3, 34960, Control_c, 1, 7, 96
3, 35070, Control_c, 1, 7, 95
3, 35218, Control_c, 1, 7, 94
3, 35328, Control_c, 1, 7, 93
3, 35475, Control_c, 1, 7, 92
3, 35585, Control_c, 1, 7, 91
3, 35733, Control_c, 1, 7, 90
3, 35976, Note_on_c, 1, 70, 0
3, 36000, Note_on_c, 1, 72, 100
3, 36456, Note_on_c, 1, 72, 0
3, 36480, Note_on_c, 1, 68, 100
3, 36936, Note_on_c, 1, 68, 0
3, 36960, Note_on_c, 1, 67, 100
3, 37416, Note_on_c, 1, 67, 0
3, 37440, Note_on_c, 1, 68, 100
3, 37896, Note_on_c, 1, 68, 0
3, 37920, Note_on_c, 1, 67, 100
3, 38376, Note_on_c, 1, 67, 0
3, 38400, Note_on_c, 1, 65, 100
3, 38510, Control_c, 1, 7, 91
3, 38731, Control_c, 1, 7, 92
3, 38915, Control_c, 1, 7, 93
3, 39136, Control_c, 1, 7, 94
3, 39320, Control_c, 1, 7, 95
3, 39336, Note_on_c, 1, 65, 0
3, 39360, Note_on_c, 1, 67, 100
3, 39504, Control_c, 1, 7, 96
3, 39725, Control_c, 1, 7, 97
3, 39816, Note_on_c, 1, 67, 0
3, 39840, Note_on_c, 1, 68, 100
3, 39909, Control_c, 1, 7, 98
3, 40129, Control_c, 1, 7, 99
3, 40296, Note_on_c, 1, 68, 0
3, 40313, Control_c, 1, 7, 100
3, 40320, Note_on_c, 1, 70, 100
3, 40534, Control_c, 1, 7, 101
3, 40718, Control_c, 1, 7, 102
3, 40902, Control_c, 1, 7, 103
3, 41123, Control_c, 1, 7, 104
3, 41256, Note_on_c, 1, 70, 0
3, 41280, Note_on_c, 1, 68, 100
3, 41307, Control_c, 1, 7, 105
3, 41528, Control_c, 1, 7, 106
3, 41712, Control_c, 1, 7, 107
3, 41736, Note_on_c, 1, 68, 0
3, 41760, Note_on_c, 1, 70, 100
3, 41933, Control_c, 1, 7, 108
3, 42117, Control_c, 1, 7, 109
3, 42216, Note_on_c, 1, 70, 0
3, 42240, Note_on_c, 1, 72, 100
3, 42300, Control_c, 1, 7, 110
3, 42521, Control_c, 1, 7, 111
3, 43633, Control_c, 1, 7, 110
3, 43656, Note_on_c, 1, 72, 0
3, 43680, Note_on_c, 1, 70, 100
3, 43707, Control_c, 1, 7, 109
3, 43781, Control_c, 1, 7, 108
3, 43854, Control_c, 1, 7, 107
3, 43908, Note_on_c, 1, 70, 0
3, 43920, Note_on_c, 1, 68, 100
3, 43928, Control_c, 1, 7, 106
3, 44002, Control_c, 1, 7, 105
3, 44075, Control_c, 1, 7, 104
3, 44148, Note_on_c, 1, 68, 0
3, 44148, Control_c, 1, 7, 103
3, 44160, Note_on_c, 1, 67, 100
3, 44222, Control_c, 1, 7, 102
3, 44296, Control_c, 1, 7, 101
3, 44369, Control_c, 1, 7, 100
3, 44443, Control_c, 1, 7, 99
3, 44517, Control_c, 1, 7, 98
3, 44590, Control_c, 1, 7, 97
3, 44664, Control_c, 1, 7, 96
3, 44737, Control_c, 1, 7, 95
3, 44811, Control_c, 1, 7, 94
3, 44885, Control_c, 1, 7, 93
3, 44958, Control_c, 1, 7, 92
3, 45032, Control_c, 1, 7, 91
3, 45096, Note_on_c, 1, 67, 0
3, 45106, Control_c, 1, 7, 90
3, 46080, Control_c, 1, 7, 95
3, 46080, Note_on_c, 1, 67, 100
3, 47016, Note_on_c, 1, 67, 0
3, 47040, Note_on_c, 1, 66, 100
3, 47496, Note_on_c, 1, 66, 0
3, 47520, Note_on_c, 1, 64, 100
3, 47976, Note_on_c, 1, 64, 0
3, 48000, Control_c, 1, 7, 100
3, 48000, Note_on_c, 1, 71, 100
3, 48110, Control_c, 1, 7, 99
3, 48257, Control_c, 1, 7, 98
3, 48405, Control_c, 1, 7, 97
3, 48552, Control_c, 1, 7, 96
3, 48699, Control_c, 1, 7, 95
3, 48846, Control_c, 1, 7, 94
3, 48994, Control_c, 1, 7, 93
3, 49140, Control_c, 1, 7, 92
3, 49288, Control_c, 1, 7, 91
3, 49416, Note_on_c, 1, 71, 0
3, 49435, Control_c, 1, 7, 90
3, 49440, Note_on_c, 1, 69, 100
3, 49582, Control_c, 1, 7, 89
3, 49729, Control_c, 1, 7, 88
3, 49896, Note_on_c, 1, 69, 0
3, 49920, Note_on_c, 1, 69, 100
3, 50376, Note_on_c, 1, 69, 0
3, 50400, Note_on_c, 1, 67, 100
3, 50856, Note_on_c, 1, 67, 0
3, 50880, Note_on_c, 1, 66, 100
3, 51336, Note_on_c, 1, 66, 0
3, 51360, Note_on_c, 1, 64, 100
3, 51816, Note_on_c, 1, 64, 0
3, 51840, Note_on_c, 1, 66, 100
3, 52776, Note_on_c, 1, 66, 0
3, 52800, Note_on_c, 1, 67, 100
3, 53256, Note_on_c, 1, 67, 0
3, 53760, Control_c, 1, 7, 95
3, 53760, Note_on_c, 1, 67, 100
3, 54696, Note_on_c, 1, 67, 0
3, 54720, Note_on_c, 1, 66, 100
3, 55176, Note_on_c, 1, 66, 0
3, 55200, Note_on_c, 1, 64, 100
3, 55656, Note_on_c, 1, 64, 0
3, 55680, Control_c, 1, 7, 100
3, 55680, Note_on_c, 1, 71, 100
3, 55790, Control_c, 1, 7, 99
3, 55937, Control_c, 1, 7, 98
3, 56085, Control_c, 1, 7, 97
3, 56232, Control_c, 1, 7, 96
3, 56379, Control_c, 1, 7, 95
3, 56526, Control_c, 1, 7, 94
3, 56674, Control_c, 1, 7, 93
3, 56820, Control_c, 1, 7, 92
3, 56968, Control_c, 1, 7, 91
3, 57096, Note_on_c, 1, 71, 0
3, 57115, Control_c, 1, 7, 90
3, 57120, Note_on_c, 1, 69, 100
3, 57262, Control_c, 1, 7, 89
3, 57409, Control_c, 1, 7, 88
3, 57576, Note_on_c, 1, 69, 0
3, 57600, Note_on_c, 1, 69, 100
3, 57996, Control_c, 1, 7, 89
3, 58056, Note_on_c, 1, 69, 0
3, 58070, Control_c, 1, 7, 90
3, 58080, Note_on_c, 1, 67, 100
3, 58144, Control_c, 1, 7, 91
3, 58181, Control_c, 1, 7, 92
3, 58254, Control_c, 1, 7, 93
3, 58291, Control_c, 1, 7, 94
3, 58365, Control_c, 1, 7, 95
3, 58438, Control_c, 1, 7, 96
3, 58475, Control_c, 1, 7, 97
3, 58536, Note_on_c, 1, 67, 0
3, 58548, Control_c, 1, 7, 98
3, 58560, Note_on_c, 1, 66, 100
3, 58622, Control_c, 1, 7, 99
3, 58659, Control_c, 1, 7, 100
3, 58733, Control_c, 1, 7, 101
3, 58806, Control_c, 1, 7, 102
3, 58843, Control_c, 1, 7, 103
3, 58917, Control_c, 1, 7, 104
3, 58954, Control_c, 1, 7, 105
3, 59016, Note_on_c, 1, 66, 0
3, 59027, Control_c, 1, 7, 106
3, 59040, Note_on_c, 1, 64, 100
3, 59100, Control_c, 1, 7, 107
3, 59137, Control_c, 1, 7, 108
3, 59211, Control_c, 1, 7, 109
3, 59285, Control_c, 1, 7, 110
3, 59321, Control_c, 1, 7, 111
3, 59395, Control_c, 1, 7, 112
3, 59496, Note_on_c, 1, 64, 0
3, 59520, Note_on_c, 1, 76, 100
3, 59593, Control_c, 1, 7, 111
3, 59667, Control_c, 1, 7, 110
3, 59777, Control_c, 1, 7, 109
3, 59888, Control_c, 1, 7, 108
3, 59962, Control_c, 1, 7, 107
3, 60072, Control_c, 1, 7, 106
3, 60145, Control_c, 1, 7, 105
3, 60256, Control_c, 1, 7, 104
3, 60366, Control_c, 1, 7, 103
3, 60440, Control_c, 1, 7, 102
3, 60456, Note_on_c, 1, 76, 0
3, 60480, Note_on_c, 1, 64, 100
3, 60550, Control_c, 1, 7, 101
3, 60624, Control_c, 1, 7, 100
3, 60734, Control_c, 1, 7, 99
3, 60845, Control_c, 1, 7, 98
3, 60918, Control_c, 1, 7, 97
3, 60936, Note_on_c, 1, 64, 0
3, 61440, Control_c, 1, 7, 112
3, 61440, Note_on_c, 1, 71, 100
3, 62353, Control_c, 1, 7, 111
3, 62376, Note_on_c, 1, 71, 0
3, 62400, Note_on_c, 1, 72, 100
3, 62427, Control_c, 1, 7, 110
3, 62537, Control_c, 1, 7, 109
3, 62648, Control_c, 1, 7, 108
3, 62721, Control_c, 1, 7, 107
3, 62832, Control_c, 1, 7, 106
3, 62856, Note_on_c, 1, 72, 0
3, 62880, Note_on_c, 1, 71, 100
3, 62905, Control_c, 1, 7, 105
3, 63016, Control_c, 1, 7, 104
3, 63126, Control_c, 1, 7, 103
3, 63200, Control_c, 1, 7, 102
3, 63336, Note_on_c, 1, 71, 0
3, 63360, Control_c, 1, 7, 115
3, 63360, Note_on_c, 1, 79, 100
3, 63433, Control_c, 1, 7, 114
3, 63544, Control_c, 1, 7, 113
3, 63617, Control_c, 1, 7, 112
3, 63728, Control_c, 1, 7, 111
3, 63816, Note_on_c, 1, 79, 0
3, 63838, Control_c, 1, 7, 110
3, 63840, Note_on_c, 1, 78, 100
3, 63912, Control_c, 1, 7, 109
3, 64022, Control_c, 1, 7, 108
3, 64132, Control_c, 1, 7, 107
3, 64243, Control_c, 1, 7, 106
3, 64296, Note_on_c, 1, 78, 0
3, 64317, Control_c, 1, 7, 105
3, 64320, Note_on_c, 1, 76, 100
3, 64427, Control_c, 1, 7, 104
3, 64537, Control_c, 1, 7, 103
3, 64611, Control_c, 1, 7, 102
3, 64707, Note_on_c, 1, 76, 0
3, 64721, Control_c, 1, 7, 101
3, 64800, Note_on_c, 1, 71, 100
3, 64832, Control_c, 1, 7, 100
3, 64942, Control_c, 1, 7, 99
3, 65016, Control_c, 1, 7, 98
3, 65126, Control_c, 1, 7, 97
3, 65256, Note_on_c, 1, 71, 0
3, 65280, Note_on_c, 1, 71, 100
3, 65736, Note_on_c, 1, 71, 0
3, 65760, Note_on_c, 1, 66, 100
3, 66216, Note_on_c, 1, 66, 0
3, 66240, Note_on_c, 1, 67, 100
3, 66627, Note_on_c, 1, 67, 0
3, 66720, Note_on_c, 1, 64, 100
3, 67176, Note_on_c, 1, 64, 0
3, 67200, Note_on_c, 1, 63, 100
3, 67656, Note_on_c, 1, 63, 0
3, 67680, Note_on_c, 1, 72, 100
3, 67753, Control_c, 1, 7, 96
3, 67864, Control_c, 1, 7, 95
3, 67937, Control_c, 1, 7, 94
3, 68048, Control_c, 1, 7, 93
3, 68136, Note_on_c, 1, 72, 0
3, 68158, Control_c, 1, 7, 92
3, 68160, Note_on_c, 1, 71, 100
3, 68268, Control_c, 1, 7, 91
3, 68342, Control_c, 1, 7, 90
3, 68452, Control_c, 1, 7, 89
3, 68563, Control_c, 1, 7, 88
3, 68616, Note_on_c, 1, 71, 0
3, 68640, Note_on_c, 1, 63, 100
3, 68673, Control_c, 1, 7, 87
3, 68747, Control_c, 1, 7, 86
3, 68857, Control_c, 1, 7, 85
3, 68968, Control_c, 1, 7, 84
3, 69096, Note_on_c, 1, 63, 0
3, 71040, Control_c, 1, 7, 95
3, 71040, Note_on_c, 1, 64, 100
3, 71113, Control_c, 1, 7, 94
3, 71187, Control_c, 1, 7, 93
3, 71260, Control_c, 1, 7, 92
3, 71371, Control_c, 1, 7, 91
3, 71445, Control_c, 1, 7, 90
3, 71496, Note_on_c, 1, 64, 0
3, 71520, Note_on_c, 1, 74, 100
3, 71555, Control_c, 1, 7, 89
3, 71628, Control_c, 1, 7, 88
3, 71702, Control_c, 1, 7, 87
3, 71812, Control_c, 1, 7, 86
3, 71886, Control_c, 1, 7, 85
3, 71976, Note_on_c, 1, 74, 0
3, 71997, Control_c, 1, 7, 84
3, 72000, Note_on_c, 1, 72, 100
3, 72070, Control_c, 1, 7, 83
3, 72144, Control_c, 1, 7, 82
3, 72254, Control_c, 1, 7, 81
3, 72328, Control_c, 1, 7, 80
3, 72456, Note_on_c, 1, 72, 0
3, 72480, Note_on_c, 1, 64, 100
3, 72936, Note_on_c, 1, 64, 0
3, 76800, Control_c, 1, 7, 85
3, 76800, Note_on_c, 1, 63, 100
3, 76873, Control_c, 1, 7, 86
3, 77020, Control_c, 1, 7, 87
3, 77168, Control_c, 1, 7, 88
3, 77315, Control_c, 1, 7, 89
3, 77425, Control_c, 1, 7, 90
3, 77572, Control_c, 1, 7, 91
3, 77720, Control_c, 1, 7, 92
3, 77736, Note_on_c, 1, 63, 0
3, 77760, Note_on_c, 1, 72, 100
3, 77867, Control_c, 1, 7, 93
3, 77977, Control_c, 1, 7, 94
3, 78124, Control_c, 1, 7, 95
3, 78272, Control_c, 1, 7, 96
3, 78419, Control_c, 1, 7, 97
3, 78566, Control_c, 1, 7, 98
3, 78696, Note_on_c, 1, 72, 0
3, 78720, Note_on_c, 1, 71, 100
3, 78793, Control_c, 1, 7, 97
3, 78940, Control_c, 1, 7, 96
3, 79088, Control_c, 1, 7, 95
3, 79235, Control_c, 1, 7, 94
3, 79345, Control_c, 1, 7, 93
3, 79492, Control_c, 1, 7, 92
3, 79640, Control_c, 1, 7, 91
3, 79656, Note_on_c, 1, 71, 0
3, 79680, Note_on_c, 1, 63, 100
3, 79787, Control_c, 1, 7, 90
3, 79897, Control_c, 1, 7, 89
3, 80044, Control_c, 1, 7, 88
3, 80192, Control_c, 1, 7, 87
3, 80339, Control_c, 1, 7, 86
3, 80486, Control_c, 1, 7, 85
3, 80616, Note_on_c, 1, 63, 0
3, 80640, Note_on_c, 1, 66, 100
3, 81576, Note_on_c, 1, 66, 0
3, 81600, Note_on_c, 1, 65, 100
3, 81673, Control_c, 1, 7, 86
3, 81784, Control_c, 1, 7, 87
3, 81894, Control_c, 1, 7, 88
3, 81968, Control_c, 1, 7, 89
3, 82056, Note_on_c, 1, 65, 0
3, 82078, Control_c, 1, 7, 90
3, 82080, Note_on_c, 1, 66, 100
3, 82188, Control_c, 1, 7, 91
3, 82299, Control_c, 1, 7, 92
3, 82409, Control_c, 1, 7, 93
3, 82520, Control_c, 1, 7, 94
3, 82536, Note_on_c, 1, 66, 0
3, 82560, Note_on_c, 1, 67, 100
3, 82593, Control_c, 1, 7, 95
3, 82704, Control_c, 1, 7, 96
3, 82814, Control_c, 1, 7, 97
3, 82924, Control_c, 1, 7, 98
3, 83016, Note_on_c, 1, 67, 0
3, 83035, Control_c, 1, 7, 99
3, 83040, Note_on_c, 1, 66, 100
3, 83109, Control_c, 1, 7, 100
3, 83496, Note_on_c, 1, 66, 0
3, 83520, Control_c, 1, 7, 113
3, 83520, Note_on_c, 1, 69, 100
3, 83556, Control_c, 1, 7, 112
3, 83630, Control_c, 1, 7, 111
3, 83667, Control_c, 1, 7, 110
3, 83704, Control_c, 1, 7, 109
3, 83740, Control_c, 1, 7, 108
3, 83777, Control_c, 1, 7, 107
3, 83851, Control_c, 1, 7, 106
3, 83888, Control_c, 1, 7, 105
3, 83925, Control_c, 1, 7, 104
3, 83961, Control_c, 1, 7, 103
3, 83976, Note_on_c, 1, 69, 0
3, 83998, Control_c, 1, 7, 102
3, 84000, Note_on_c, 1, 67, 100
3, 84035, Control_c, 1, 7, 101
3, 84108, Control_c, 1, 7, 100
3, 84145, Control_c, 1, 7, 99
3, 84182, Control_c, 1, 7, 98
3, 84219, Control_c, 1, 7, 97
3, 84256, Control_c, 1, 7, 96
3, 84292, Control_c, 1, 7, 95
3, 84366, Control_c, 1, 7, 94
3, 84403, Control_c, 1, 7, 93
3, 84440, Control_c, 1, 7, 92
3, 84456, Note_on_c, 1, 67, 0
3, 84477, Control_c, 1, 7, 91
3, 84480, Note_on_c, 1, 64, 100
3, 84513, Control_c, 1, 7, 90
3, 84550, Control_c, 1, 7, 89
3, 84624, Control_c, 1, 7, 88
3, 84660, Control_c, 1, 7, 87
3, 84697, Control_c, 1, 7, 86
3, 84734, Control_c, 1, 7, 85
3, 84771, Control_c, 1, 7, 84
3, 84844, Control_c, 1, 7, 83
3, 84881, Control_c, 1, 7, 82
3, 84918, Control_c, 1, 7, 81
3, 84936, Note_on_c, 1, 64, 0
3, 84955, Control_c, 1, 7, 80
3, 90240, End_track
0, 0, End_of_file