0, 0, Header, 1, 7, 120
1, 0, Start_track
1, 0, Time_signature, 3, 2, 24, 8
1, 0, Key_signature, -5, "major"
1, 0, Tempo, 430108
1, 365, Tempo, 430108
1, 720, Tempo, 393443
1, 1565, Tempo, 430108
1, 1682, Tempo, 461538
1, 1685, Tempo, 491803
1, 1917, Tempo, 481928
1, 2512, Tempo, 422535
1, 2820, Tempo, 422535
1, 2822, Tempo, 424028
1, 2825, Tempo, 425532
1, 3002, Tempo, 461538
1, 3245, Tempo, 474308
1, 3250, Tempo, 476190
1, 3962, Tempo, 431655
1, 4072, Tempo, 412371
1, 4095, Tempo, 410959
1, 4440, Tempo, 483871
1, 4445, Tempo, 489796
1, 4475, Tempo, 530973
1, 4480, Tempo, 528634
1, 4502, Tempo, 442804
1, 5045, Tempo, 465116
1, 5397, Tempo, 434783
1, 5877, Tempo, 506329
1, 5942, Tempo, 510638
1, 5945, Tempo, 512821
1, 5947, Tempo, 517241
1, 5950, Tempo, 524017
1, 5957, Tempo, 491803
1, 6020, Tempo, 489796
1, 6115, Tempo, 478088
1, 6357, Tempo, 463320
1, 6467, Tempo, 662983
1, 6525, Tempo, 670391
1, 6530, Tempo, 606061
1, 6580, Tempo, 533333
1, 6605, Tempo, 461538
1, 6845, Tempo, 433213
1, 7320, Tempo, 459770
1, 7322, Tempo, 547945
1, 7405, Tempo, 465116
1, 8165, Tempo, 431655
1, 8750, Tempo, 506329
1, 8830, Tempo, 489796
1, 8885, Tempo, 466926
1, 9037, Tempo, 466926
1, 9187, Tempo, 463320
1, 9337, Tempo, 606061
1, 9367, Tempo, 1212121
1, 9445, Tempo, 851064
1, 9477, Tempo, 754717
1, 9722, Tempo, 670391
1, 10075, Tempo, 603015
1, 10322, Tempo, 550459
1, 10555, Tempo, 641711
1, 10795, Tempo, 697674
1, 10820, Tempo, 701754
1, 10917, Tempo, 674157
1, 10920, Tempo, 641711
1, 11040, Tempo, 600000
1, 11155, Tempo, 547945
1, 11642, Tempo, 600000
1, 11997, Tempo, 666667
1, 12365, Tempo, 674157
1, 12597, Tempo, 606061
1, 12837, Tempo, 542986
1, 13200, Tempo, 506329
1, 13560, Tempo, 545455
1, 13682, Tempo, 547945
1, 13795, Tempo, 550459
1, 14032, Tempo, 506329
1, 14400, Tempo, 540541
1, 14762, Tempo, 594059
1, 15000, Tempo, 603015
1, 15002, Tempo, 670391
1, 15235, Tempo, 1008403
1, 15237, Tempo, 869565
1, 15240, Tempo, 869565
1, 15242, Tempo, 1025641
1, 15295, Tempo, 759494
1, 15327, Tempo, 759494
1, 15352, Tempo, 754717
1, 15357, Tempo, 666667
1, 15360, Tempo, 689655
1, 15365, Tempo, 674157
1, 15470, Tempo, 674157
1, 15482, Tempo, 628272
1, 15590, Tempo, 606061
1, 15715, Tempo, 555556
1, 15835, Tempo, 504202
1, 16085, Tempo, 461538
1, 16327, Tempo, 431655
1, 16440, Tempo, 416667
1, 17405, Tempo, 463320
1, 17515, Tempo, 502092
1, 18230, Tempo, 446097
1, 18350, Tempo, 424028
1, 18440, Tempo, 422535
1, 18470, Tempo, 421053
1, 18485, Tempo, 419580
1, 18492, Tempo, 418118
1, 18845, Tempo, 459770
1, 18960, Tempo, 480000
1, 19677, Tempo, 431655
1, 19802, Tempo, 415225
1, 19922, Tempo, 416667
1, 20242, Tempo, 483871
1, 20280, Tempo, 515021
1, 20400, Tempo, 489796
1, 20642, Tempo, 463320
1, 20660, Tempo, 461538
1, 20752, Tempo, 425532
1, 20990, Tempo, 427046
1, 21005, Tempo, 428571
1, 21030, Tempo, 430108
1, 21232, Tempo, 431655
1, 21235, Tempo, 400000
1, 21357, Tempo, 398671
1, 21722, Tempo, 497925
1, 21725, Tempo, 434783
1, 21727, Tempo, 500000
1, 22082, Tempo, 463320
1, 22197, Tempo, 465116
1, 22210, Tempo, 465116
1, 22230, Tempo, 478088
1, 22320, Tempo, 670391
1, 22440, Tempo, 508475
1, 22557, Tempo, 461538
1, 22560, Tempo, 504202
1, 22565, Tempo, 466926
1, 22670, Tempo, 466926
1, 22677, Tempo, 465116
1, 22680, Tempo, 431655
1, 22792, Tempo, 431655
1, 22797, Tempo, 404040
1, 22997, Tempo, 402685
1, 23120, Tempo, 430108
1, 23145, Tempo, 431655
1, 23187, Tempo, 430108
1, 23267, Tempo, 428571
1, 23280, Tempo, 427046
1, 23642, Tempo, 459770
1, 23767, Tempo, 428571
1, 23872, Tempo, 466926
1, 23910, Tempo, 480000
1, 23995, Tempo, 466926
1, 24020, Tempo, 468750
1, 24115, Tempo, 412371
1, 24362, Tempo, 415225
1, 24557, Tempo, 517241
1, 24705, Tempo, 517241
1, 24842, Tempo, 528634
1, 24882, Tempo, 530973
1, 24955, Tempo, 533333
1, 24967, Tempo, 585366
1, 25077, Tempo, 625000
1, 25160, Tempo, 652174
1, 25235, Tempo, 655738
1, 25317, Tempo, 662983
1, 25437, Tempo, 677966
1, 25440, Tempo, 800000
1, 25557, Tempo, 769231
1, 25572, Tempo, 759494
1, 25587, Tempo, 754717
1, 25617, Tempo, 750000
1, 25637, Tempo, 745342
1, 25640, Tempo, 740741
1, 25655, Tempo, 736196
1, 25660, Tempo, 731707
1, 25670, Tempo, 727273
1, 25675, Tempo, 722892
1, 25680, Tempo, 718563
1, 25685, Tempo, 714286
1, 25700, Tempo, 710059
1, 25705, Tempo, 701754
1, 25720, Tempo, 697674
1, 25727, Tempo, 689655
1, 25730, Tempo, 685714
1, 25745, Tempo, 681818
1, 25765, Tempo, 677966
1, 25767, Tempo, 674157
1, 25770, Tempo, 666667
1, 25775, Tempo, 659341
1, 25777, Tempo, 545455
1, 25895, Tempo, 547945
1, 25930, Tempo, 552995
1, 25930, End_track
2, 0, Start_track
2, 0, MIDI_port, 0
2, 0, Title_t, "R hand"
2, 0, Program_c, 0, 0
2, 0, Control_c, 0, 7, 120
2, 0, Control_c, 0, 10, 75
2, 0, MIDI_port, 0
2, 60, System_exclusive, 05, 7E, 7F, 09, 01, F7
2, 60, MIDI_port, 0
2, 180, Note_on_c, 0, 68, 45
2, 237, Note_on_c, 0, 68, 0
2, 240, Note_on_c, 0, 67, 50
2, 269, Note_on_c, 0, 67, 0
2, 270, Note_on_c, 0, 68, 49
2, 298, Note_on_c, 0, 68, 0
2, 300, Note_on_c, 0, 72, 53
2, 329, Note_on_c, 0, 72, 0
2, 330, Note_on_c, 0, 70, 50
2, 357, Note_on_c, 0, 70, 0
2, 360, Note_on_c, 0, 67, 54
2, 389, Note_on_c, 0, 67, 0
2, 390, Note_on_c, 0, 68, 51
2, 417, Note_on_c, 0, 68, 0
2, 420, Note_on_c, 0, 70, 57
2, 449, Note_on_c, 0, 70, 0
2, 450, Note_on_c, 0, 68, 55
2, 478, Note_on_c, 0, 68, 0
2, 480, Note_on_c, 0, 72, 60
2, 510, Note_on_c, 0, 72, 0
2, 510, Note_on_c, 0, 70, 56
2, 537, Note_on_c, 0, 70, 0
2, 540, Note_on_c, 0, 67, 57
2, 567, Note_on_c, 0, 67, 0
2, 570, Note_on_c, 0, 68, 61
2, 599, Note_on_c, 0, 68, 0
2, 600, Note_on_c, 0, 72, 61
2, 628, Note_on_c, 0, 72, 0
2, 630, Note_on_c, 0, 70, 65
2, 659, Note_on_c, 0, 70, 0
2, 660, Note_on_c, 0, 67, 62
2, 687, Note_on_c, 0, 67, 0
2, 690, Note_on_c, 0, 68, 66
2, 719, Note_on_c, 0, 68, 0
2, 720, Note_on_c, 0, 72, 63
2, 747, Note_on_c, 0, 72, 0
2, 750, Note_on_c, 0, 70, 69
2, 779, Note_on_c, 0, 70, 0
2, 780, Note_on_c, 0, 67, 67
2, 808, Note_on_c, 0, 67, 0
2, 810, Note_on_c, 0, 68, 72
2, 840, Note_on_c, 0, 68, 0
2, 840, Note_on_c, 0, 72, 68
2, 867, Note_on_c, 0, 72, 0
2, 870, Note_on_c, 0, 70, 69
2, 897, Note_on_c, 0, 70, 0
2, 900, Note_on_c, 0, 67, 73
2, 900, Control_c, 0, 64, 127
2, 929, Note_on_c, 0, 67, 0
2, 930, Note_on_c, 0, 68, 72
2, 958, Note_on_c, 0, 68, 0
2, 960, Note_on_c, 0, 72, 76
2, 960, Control_c, 0, 64, 0
2, 989, Note_on_c, 0, 72, 0
2, 990, Note_on_c, 0, 70, 73
2, 1017, Note_on_c, 0, 70, 0
2, 1020, Note_on_c, 0, 67, 77
2, 1049, Note_on_c, 0, 67, 0
2, 1050, Note_on_c, 0, 68, 74
2, 1077, Note_on_c, 0, 68, 0
2, 1080, Note_on_c, 0, 72, 80
2, 1080, Control_c, 0, 64, 127
2, 1109, Note_on_c, 0, 72, 0
2, 1110, Note_on_c, 0, 70, 79
2, 1138, Note_on_c, 0, 70, 0
2, 1140, Note_on_c, 0, 67, 84
2, 1140, Control_c, 0, 64, 0
2, 1170, Note_on_c, 0, 67, 0
2, 1170, Note_on_c, 0, 68, 80
2, 1197, Note_on_c, 0, 68, 0
2, 1200, Note_on_c, 0, 72, 81
2, 1227, Note_on_c, 0, 72, 0
2, 1230, Note_on_c, 0, 70, 85
2, 1259, Note_on_c, 0, 70, 0
2, 1260, Note_on_c, 0, 67, 84
2, 1260, Control_c, 0, 64, 127
2, 1288, Note_on_c, 0, 67, 0
2, 1290, Note_on_c, 0, 68, 88
2, 1319, Note_on_c, 0, 68, 0
2, 1320, Note_on_c, 0, 72, 85
2, 1320, Control_c, 0, 64, 0
2, 1347, Note_on_c, 0, 72, 0
2, 1350, Note_on_c, 0, 70, 89
2, 1379, Note_on_c, 0, 70, 0
2, 1380, Note_on_c, 0, 67, 86
2, 1407, Note_on_c, 0, 67, 0
2, 1410, Note_on_c, 0, 68, 92
2, 1439, Note_on_c, 0, 68, 0
2, 1440, Note_on_c, 0, 70, 90
2, 1440, Control_c, 0, 64, 127
2, 1468, Note_on_c, 0, 70, 0
2, 1470, Note_on_c, 0, 72, 95
2, 1500, Note_on_c, 0, 72, 0
2, 1500, Note_on_c, 0, 73, 91
2, 1500, Control_c, 0, 64, 0
2, 1527, Note_on_c, 0, 73, 0
2, 1530, Note_on_c, 0, 75, 92
2, 1557, Note_on_c, 0, 75, 0
2, 1560, Note_on_c, 0, 77, 96
2, 1589, Note_on_c, 0, 77, 0
2, 1590, Note_on_c, 0, 78, 95
2, 1618, Note_on_c, 0, 78, 0
2, 1620, Note_on_c, 0, 82, 100
2, 1620, Control_c, 0, 64, 127
2, 1709, Note_on_c, 0, 82, 0
2, 1710, Note_on_c, 0, 80, 84
2, 1737, Note_on_c, 0, 80, 0
2, 1740, Note_on_c, 0, 78, 83
2, 1740, Control_c, 0, 64, 0
2, 1769, Note_on_c, 0, 78, 0
2, 1770, Note_on_c, 0, 77, 75
2, 1797, Note_on_c, 0, 77, 0
2, 1800, Note_on_c, 0, 77, 76
2, 1829, Note_on_c, 0, 77, 0
2, 1830, Note_on_c, 0, 75, 69
2, 1858, Note_on_c, 0, 75, 0
2, 1860, Note_on_c, 0, 75, 69
2, 1870, Note_on_c, 0, 75, 0
2, 1870, Note_on_c, 0, 77, 63
2, 1877, Note_on_c, 0, 77, 0
2, 1880, Note_on_c, 0, 75, 62
2, 1887, Note_on_c, 0, 75, 0
2, 1890, Note_on_c, 0, 74, 63
2, 1919, Note_on_c, 0, 74, 0
2, 1920, Note_on_c, 0, 75, 92
2, 1978, Note_on_c, 0, 75, 0
2, 1980, Note_on_c, 0, 82, 90
2, 1980, Control_c, 0, 64, 127
2, 2069, Note_on_c, 0, 82, 0
2, 2070, Note_on_c, 0, 80, 77
2, 2097, Note_on_c, 0, 80, 0
2, 2100, Note_on_c, 0, 78, 77
2, 2129, Note_on_c, 0, 78, 0
2, 2130, Note_on_c, 0, 77, 70
2, 2157, Note_on_c, 0, 77, 0
2, 2160, Note_on_c, 0, 77, 73
2, 2160, Control_c, 0, 64, 0
2, 2189, Note_on_c, 0, 77, 0
2, 2190, Note_on_c, 0, 75, 67
2, 2198, Note_on_c, 0, 75, 0
2, 2200, Note_on_c, 0, 77, 70
2, 2210, Note_on_c, 0, 77, 0
2, 2210, Note_on_c, 0, 75, 64
2, 2217, Note_on_c, 0, 75, 0
2, 2220, Note_on_c, 0, 74, 63
2, 2247, Note_on_c, 0, 74, 0
2, 2250, Note_on_c, 0, 75, 63
2, 2279, Note_on_c, 0, 75, 0
2, 2280, Note_on_c, 0, 77, 58
2, 2308, Note_on_c, 0, 77, 0
2, 2310, Note_on_c, 0, 70, 58
2, 2339, Note_on_c, 0, 70, 0
2, 2340, Note_on_c, 0, 67, 56
2, 2340, Control_c, 0, 64, 127
2, 2367, Note_on_c, 0, 67, 0
2, 2370, Note_on_c, 0, 68, 60
2, 2399, Note_on_c, 0, 68, 0
2, 2400, Note_on_c, 0, 72, 58
2, 2400, Control_c, 0, 64, 0
2, 2427, Note_on_c, 0, 72, 0
2, 2430, Note_on_c, 0, 70, 65
2, 2459, Note_on_c, 0, 70, 0
2, 2460, Note_on_c, 0, 67, 63
2, 2488, Note_on_c, 0, 67, 0
2, 2490, Note_on_c, 0, 68, 69
2, 2520, Note_on_c, 0, 68, 0
2, 2520, Note_on_c, 0, 72, 66
2, 2520, Control_c, 0, 64, 127
2, 2547, Note_on_c, 0, 72, 0
2, 2550, Note_on_c, 0, 70, 67
2, 2577, Note_on_c, 0, 70, 0
2, 2580, Note_on_c, 0, 67, 72
2, 2580, Control_c, 0, 64, 0
2, 2609, Note_on_c, 0, 67, 0
2, 2610, Note_on_c, 0, 68, 72
2, 2638, Note_on_c, 0, 68, 0
2, 2640, Note_on_c, 0, 72, 76
2, 2669, Note_on_c, 0, 72, 0
2, 2670, Note_on_c, 0, 70, 74
2, 2697, Note_on_c, 0, 70, 0
2, 2700, Note_on_c, 0, 67, 79
2, 2700, Control_c, 0, 64, 127
2, 2729, Note_on_c, 0, 67, 0
2, 2730, Note_on_c, 0, 68, 76
2, 2757, Note_on_c, 0, 68, 0
2, 2760, Note_on_c, 0, 72, 83
2, 2760, Control_c, 0, 64, 0
2, 2789, Note_on_c, 0, 72, 0
2, 2790, Note_on_c, 0, 70, 82
2, 2818, Note_on_c, 0, 70, 0
2, 2820, Note_on_c, 0, 67, 87
2, 2850, Note_on_c, 0, 67, 0
2, 2850, Note_on_c, 0, 68, 84
2, 2877, Note_on_c, 0, 68, 0
2, 2880, Note_on_c, 0, 70, 86
2, 2880, Control_c, 0, 64, 127
2, 2907, Note_on_c, 0, 70, 0
2, 2910, Note_on_c, 0, 72, 90
2, 2939, Note_on_c, 0, 72, 0
2, 2940, Note_on_c, 0, 73, 90
2, 2940, Control_c, 0, 64, 0
2, 2968, Note_on_c, 0, 73, 0
2, 2970, Note_on_c, 0, 75, 95
2, 2999, Note_on_c, 0, 75, 0
2, 3000, Note_on_c, 0, 77, 92
2, 3027, Note_on_c, 0, 77, 0
2, 3030, Note_on_c, 0, 78, 97
2, 3059, Note_on_c, 0, 78, 0
2, 3060, Note_on_c, 0, 82, 95
2, 3060, Control_c, 0, 64, 127
2, 3147, Note_on_c, 0, 82, 0
2, 3150, Note_on_c, 0, 80, 94
2, 3179, Note_on_c, 0, 80, 0
2, 3180, Note_on_c, 0, 78, 89
2, 3180, Control_c, 0, 64, 0
2, 3208, Note_on_c, 0, 78, 0
2, 3210, Note_on_c, 0, 77, 90
2, 3240, Note_on_c, 0, 77, 0
2, 3240, Note_on_c, 0, 77, 83
2, 3267, Note_on_c, 0, 77, 0
2, 3270, Note_on_c, 0, 75, 81
2, 3297, Note_on_c, 0, 75, 0
2, 3300, Note_on_c, 0, 75, 82
2, 3309, Note_on_c, 0, 75, 0
2, 3310, Note_on_c, 0, 77, 79
2, 3318, Note_on_c, 0, 77, 0
2, 3320, Note_on_c, 0, 75, 81
2, 3329, Note_on_c, 0, 75, 0
2, 3330, Note_on_c, 0, 74, 76
2, 3357, Note_on_c, 0, 74, 0
2, 3360, Note_on_c, 0, 75, 77
2, 3419, Note_on_c, 0, 75, 0
2, 3420, Note_on_c, 0, 82, 69
2, 3420, Control_c, 0, 64, 127
2, 3507, Note_on_c, 0, 82, 0
2, 3510, Note_on_c, 0, 80, 67
2, 3539, Note_on_c, 0, 80, 0
2, 3540, Note_on_c, 0, 78, 62
2, 3540, Control_c, 0, 64, 0
2, 3568, Note_on_c, 0, 78, 0
2, 3570, Note_on_c, 0, 77, 64
2, 3600, Note_on_c, 0, 77, 0
2, 3600, Note_on_c, 0, 75, 56
2, 3627, Note_on_c, 0, 75, 0
2, 3630, Note_on_c, 0, 77, 57
2, 3657, Note_on_c, 0, 77, 0
2, 3660, Note_on_c, 0, 75, 61
2, 3689, Note_on_c, 0, 75, 0
2, 3690, Note_on_c, 0, 74, 61
2, 3718, Note_on_c, 0, 74, 0
2, 3720, Note_on_c, 0, 75, 65
2, 3749, Note_on_c, 0, 75, 0
2, 3750, Note_on_c, 0, 76, 63
2, 3777, Note_on_c, 0, 76, 0
2, 3780, Note_on_c, 0, 77, 67
2, 3780, Control_c, 0, 64, 127
2, 3799, Note_on_c, 0, 77, 0
2, 3800, Note_on_c, 0, 78, 64
2, 3817, Note_on_c, 0, 78, 0
2, 3820, Note_on_c, 0, 77, 70
2, 3839, Note_on_c, 0, 77, 0
2, 3840, Note_on_c, 0, 76, 68
2, 3840, Control_c, 0, 64, 0
2, 3868, Note_on_c, 0, 76, 0
2, 3870, Note_on_c, 0, 77, 73
2, 3900, Note_on_c, 0, 77, 0
2, 3900, Note_on_c, 0, 80, 70
2, 3927, Note_on_c, 0, 80, 0
2, 3930, Note_on_c, 0, 78, 71
2, 3957, Note_on_c, 0, 78, 0
2, 3960, Note_on_c, 0, 77, 76
2, 3960, Control_c, 0, 64, 127
2, 3989, Note_on_c, 0, 77, 0
2, 3990, Note_on_c, 0, 78, 75
2, 4018, Note_on_c, 0, 78, 0
2, 4020, Note_on_c, 0, 77, 80
2, 4020, Control_c, 0, 64, 0
2, 4049, Note_on_c, 0, 77, 0
2, 4050, Note_on_c, 0, 76, 77
2, 4077, Note_on_c, 0, 76, 0
2, 4080, Note_on_c, 0, 77, 81
2, 4109, Note_on_c, 0, 77, 0
2, 4110, Note_on_c, 0, 82, 79
2, 4137, Note_on_c, 0, 82, 0
2, 4140, Note_on_c, 0, 80, 85
2, 4140, Control_c, 0, 64, 127
2, 4159, Note_on_c, 0, 80, 0
2, 4160, Note_on_c, 0, 82, 83
2, 4178, Note_on_c, 0, 82, 0
2, 4180, Note_on_c, 0, 80, 88
2, 4200, Note_on_c, 0, 80, 0
2, 4200, Note_on_c, 0, 79, 84
2, 4200, Control_c, 0, 64, 0
2, 4227, Note_on_c, 0, 79, 0
2, 4230, Note_on_c, 0, 80, 86
2, 4257, Note_on_c, 0, 80, 0
2, 4260, Note_on_c, 0, 84, 90
2, 4289, Note_on_c, 0, 84, 0
2, 4290, Note_on_c, 0, 82, 89
2, 4318, Note_on_c, 0, 82, 0
2, 4320, Note_on_c, 0, 80, 94
2, 4320, Control_c, 0, 64, 127
2, 4349, Note_on_c, 0, 80, 0
2, 4350, Note_on_c, 0, 82, 91
2, 4377, Note_on_c, 0, 82, 0
2, 4380, Note_on_c, 0, 80, 96
2, 4380, Control_c, 0, 64, 0
2, 4409, Note_on_c, 0, 80, 0
2, 4410, Note_on_c, 0, 79, 93
2, 4437, Note_on_c, 0, 79, 0
2, 4440, Note_on_c, 0, 80, 100
2, 4469, Note_on_c, 0, 80, 0
2, 4470, Note_on_c, 0, 85, 98
2, 4498, Note_on_c, 0, 85, 0
2, 4500, Note_on_c, 0, 84, 101
2, 4500, Control_c, 0, 64, 127
2, 4530, Note_on_c, 0, 84, 0
2, 4530, Note_on_c, 0, 82, 94
2, 4557, Note_on_c, 0, 82, 0
2, 4560, Note_on_c, 0, 80, 91
2, 4560, Control_c, 0, 64, 0
2, 4587, Note_on_c, 0, 80, 0
2, 4590, Note_on_c, 0, 78, 92
2, 4619, Note_on_c, 0, 78, 0
2, 4620, Note_on_c, 0, 77, 87
2, 4648, Note_on_c, 0, 77, 0
2, 4650, Note_on_c, 0, 75, 88
2, 4679, Note_on_c, 0, 75, 0
2, 4680, Note_on_c, 0, 73, 81
2, 4680, Control_c, 0, 64, 127
2, 4707, Note_on_c, 0, 73, 0
2, 4710, Note_on_c, 0, 72, 81
2, 4739, Note_on_c, 0, 72, 0
2, 4740, Note_on_c, 0, 70, 75
2, 4740, Control_c, 0, 64, 0
2, 4767, Note_on_c, 0, 70, 0
2, 4770, Note_on_c, 0, 68, 77
2, 4799, Note_on_c, 0, 68, 0
2, 4800, Note_on_c, 0, 66, 72
2, 4828, Note_on_c, 0, 66, 0
2, 4830, Note_on_c, 0, 65, 73
2, 4860, Note_on_c, 0, 65, 0
2, 4860, Note_on_c, 0, 63, 66
2, 4860, Control_c, 0, 64, 127
2, 4887, Note_on_c, 0, 63, 0
2, 4890, Note_on_c, 0, 61, 63
2, 4917, Note_on_c, 0, 61, 0
2, 4920, Note_on_c, 0, 60, 61
2, 4920, Control_c, 0, 64, 0
2, 4949, Note_on_c, 0, 60, 0
2, 4950, Note_on_c, 0, 63, 60
2, 4978, Note_on_c, 0, 63, 0
2, 4980, Note_on_c, 0, 70, 64
2, 5009, Note_on_c, 0, 70, 0
2, 5010, Note_on_c, 0, 68, 61
2, 5037, Note_on_c, 0, 68, 0
2, 5040, Note_on_c, 0, 67, 66
2, 5040, Control_c, 0, 64, 127
2, 5069, Note_on_c, 0, 67, 0
2, 5070, Note_on_c, 0, 68, 63
2, 5097, Note_on_c, 0, 68, 0
2, 5100, Note_on_c, 0, 70, 69
2, 5100, Control_c, 0, 64, 0
2, 5129, Note_on_c, 0, 70, 0
2, 5130, Note_on_c, 0, 72, 68
2, 5158, Note_on_c, 0, 72, 0
2, 5160, Note_on_c, 0, 73, 73
2, 5190, Note_on_c, 0, 73, 0
2, 5190, Note_on_c, 0, 75, 69
2, 5217, Note_on_c, 0, 75, 0
2, 5220, Note_on_c, 0, 77, 71
2, 5237, Note_on_c, 0, 77, 0
2, 5240, Note_on_c, 0, 78, 75
2, 5259, Note_on_c, 0, 78, 0
2, 5260, Note_on_c, 0, 77, 74
2, 5278, Note_on_c, 0, 77, 0
2, 5280, Note_on_c, 0, 76, 77
2, 5309, Note_on_c, 0, 76, 0
2, 5310, Note_on_c, 0, 77, 75
2, 5337, Note_on_c, 0, 77, 0
2, 5340, Note_on_c, 0, 80, 79
2, 5369, Note_on_c, 0, 80, 0
2, 5370, Note_on_c, 0, 78, 76
2, 5397, Note_on_c, 0, 78, 0
2, 5400, Note_on_c, 0, 77, 83
2, 5429, Note_on_c, 0, 77, 0
2, 5430, Note_on_c, 0, 78, 81
2, 5458, Note_on_c, 0, 78, 0
2, 5460, Note_on_c, 0, 77, 86
2, 5490, Note_on_c, 0, 77, 0
2, 5490, Note_on_c, 0, 76, 83
2, 5517, Note_on_c, 0, 76, 0
2, 5520, Note_on_c, 0, 77, 84
2, 5547, Note_on_c, 0, 77, 0
2, 5550, Note_on_c, 0, 82, 88
2, 5579, Note_on_c, 0, 82, 0
2, 5580, Note_on_c, 0, 80, 88
2, 5598, Note_on_c, 0, 80, 0
2, 5600, Note_on_c, 0, 82, 92
2, 5619, Note_on_c, 0, 82, 0
2, 5620, Note_on_c, 0, 80, 88
2, 5637, Note_on_c, 0, 80, 0
2, 5640, Note_on_c, 0, 79, 92
2, 5669, Note_on_c, 0, 79, 0
2, 5670, Note_on_c, 0, 80, 90
2, 5697, Note_on_c, 0, 80, 0
2, 5700, Note_on_c, 0, 84, 96
2, 5729, Note_on_c, 0, 84, 0
2, 5730, Note_on_c, 0, 82, 94
2, 5758, Note_on_c, 0, 82, 0
2, 5760, Note_on_c, 0, 80, 100
2, 5790, Note_on_c, 0, 80, 0
2, 5790, Note_on_c, 0, 82, 96
2, 5817, Note_on_c, 0, 82, 0
2, 5820, Note_on_c, 0, 80, 97
2, 5847, Note_on_c, 0, 80, 0
2, 5850, Note_on_c, 0, 79, 102
2, 5879, Note_on_c, 0, 79, 0
2, 5880, Note_on_c, 0, 80, 101
2, 5908, Note_on_c, 0, 80, 0
2, 5910, Note_on_c, 0, 89, 105
2, 5939, Note_on_c, 0, 89, 0
2, 5940, Note_on_c, 0, 87, 101
2, 5940, Control_c, 0, 64, 127
2, 5967, Note_on_c, 0, 87, 0
2, 5970, Note_on_c, 0, 85, 102
2, 5999, Note_on_c, 0, 85, 0
2, 6000, Note_on_c, 0, 84, 96
2, 6027, Note_on_c, 0, 84, 0
2, 6030, Note_on_c, 0, 82, 99
2, 6059, Note_on_c, 0, 82, 0
2, 6060, Note_on_c, 0, 80, 94
2, 6060, Control_c, 0, 64, 0
2, 6088, Note_on_c, 0, 80, 0
2, 6090, Note_on_c, 0, 78, 96
2, 6120, Note_on_c, 0, 78, 0
2, 6120, Note_on_c, 0, 77, 88
2, 6120, Control_c, 0, 64, 127
2, 6147, Note_on_c, 0, 77, 0
2, 6150, Note_on_c, 0, 75, 86
2, 6177, Note_on_c, 0, 75, 0
2, 6180, Note_on_c, 0, 73, 87
2, 6180, Control_c, 0, 64, 0
2, 6209, Note_on_c, 0, 73, 0
2, 6210, Note_on_c, 0, 72, 83
2, 6238, Note_on_c, 0, 72, 0
2, 6240, Note_on_c, 0, 70, 84
2, 6269, Note_on_c, 0, 70, 0
2, 6270, Note_on_c, 0, 68, 78
2, 6297, Note_on_c, 0, 68, 0
2, 6300, Note_on_c, 0, 69, 78
2, 6329, Note_on_c, 0, 69, 0
2, 6330, Note_on_c, 0, 72, 72
2, 6357, Note_on_c, 0, 72, 0
2, 6360, Note_on_c, 0, 70, 75
2, 6389, Note_on_c, 0, 70, 0
2, 6390, Note_on_c, 0, 65, 70
2, 6418, Note_on_c, 0, 65, 0
2, 6420, Note_on_c, 0, 66, 72
2, 6450, Note_on_c, 0, 66, 0
2, 6450, Note_on_c, 0, 60, 65
2, 6477, Note_on_c, 0, 60, 0
2, 6480, Note_on_c, 0, 61, 66
2, 6480, Control_c, 0, 64, 127
2, 6537, Note_on_c, 0, 61, 0
2, 6540, Control_c, 0, 64, 0
2, 6600, Note_on_c, 0, 77, 73
2, 6660, Control_c, 0, 64, 127
2, 6679, Note_on_c, 0, 77, 0
2, 6680, Note_on_c, 0, 78, 74
2, 6698, Note_on_c, 0, 78, 0
2, 6700, Note_on_c, 0, 77, 78
2, 6719, Note_on_c, 0, 77, 0
2, 6720, Note_on_c, 0, 76, 75
2, 6720, Control_c, 0, 64, 0
2, 6747, Note_on_c, 0, 76, 0
2, 6750, Note_on_c, 0, 77, 79
2, 6779, Note_on_c, 0, 77, 0
2, 6780, Note_on_c, 0, 80, 76
2, 6807, Note_on_c, 0, 80, 0
2, 6810, Note_on_c, 0, 78, 82
2, 6839, Note_on_c, 0, 78, 0
2, 6840, Note_on_c, 0, 77, 81
2, 6840, Control_c, 0, 64, 127
2, 6868, Note_on_c, 0, 77, 0
2, 6870, Note_on_c, 0, 78, 86
2, 6900, Note_on_c, 0, 78, 0
2, 6900, Note_on_c, 0, 77, 82
2, 6900, Control_c, 0, 64, 0
2, 6927, Note_on_c, 0, 77, 0
2, 6930, Note_on_c, 0, 76, 83
2, 6957, Note_on_c, 0, 76, 0
2, 6960, Note_on_c, 0, 77, 87
2, 6989, Note_on_c, 0, 77, 0
2, 6990, Note_on_c, 0, 82, 86
2, 7018, Note_on_c, 0, 82, 0
2, 7020, Note_on_c, 0, 80, 91
2, 7020, Control_c, 0, 64, 127
2, 7039, Note_on_c, 0, 80, 0
2, 7040, Note_on_c, 0, 82, 87
2, 7057, Note_on_c, 0, 82, 0
2, 7060, Note_on_c, 0, 80, 91
2, 7079, Note_on_c, 0, 80, 0
2, 7080, Note_on_c, 0, 79, 88
2, 7080, Control_c, 0, 64, 0
2, 7107, Note_on_c, 0, 79, 0
2, 7110, Note_on_c, 0, 80, 94
2, 7139, Note_on_c, 0, 80, 0
2, 7140, Note_on_c, 0, 84, 92
2, 7168, Note_on_c, 0, 84, 0
2, 7170, Note_on_c, 0, 82, 97
2, 7200, Note_on_c, 0, 82, 0
2, 7200, Note_on_c, 0, 80, 94
2, 7200, Control_c, 0, 64, 127
2, 7227, Note_on_c, 0, 80, 0
2, 7230, Note_on_c, 0, 82, 95
2, 7257, Note_on_c, 0, 82, 0
2, 7260, Note_on_c, 0, 80, 99
2, 7260, Control_c, 0, 64, 0
2, 7289, Note_on_c, 0, 80, 0
2, 7290, Note_on_c, 0, 79, 98
2, 7318, Note_on_c, 0, 79, 0
2, 7320, Note_on_c, 0, 80, 102
2, 7349, Note_on_c, 0, 80, 0
2, 7350, Note_on_c, 0, 85, 99
2, 7377, Note_on_c, 0, 85, 0
2, 7380, Note_on_c, 0, 84, 104
2, 7380, Control_c, 0, 64, 127
2, 7409, Note_on_c, 0, 84, 0
2, 7410, Note_on_c, 0, 82, 98
2, 7437, Note_on_c, 0, 82, 0
2, 7440, Note_on_c, 0, 80, 101
2, 7440, Control_c, 0, 64, 0
2, 7469, Note_on_c, 0, 80, 0
2, 7470, Note_on_c, 0, 78, 95
2, 7498, Note_on_c, 0, 78, 0
2, 7500, Note_on_c, 0, 77, 97
2, 7530, Note_on_c, 0, 77, 0
2, 7530, Note_on_c, 0, 75, 89
2, 7557, Note_on_c, 0, 75, 0
2, 7560, Note_on_c, 0, 73, 87
2, 7560, Control_c, 0, 64, 127
2, 7587, Note_on_c, 0, 73, 0
2, 7590, Note_on_c, 0, 72, 87
2, 7619, Note_on_c, 0, 72, 0
2, 7620, Note_on_c, 0, 70, 83
2, 7620, Control_c, 0, 64, 0
2, 7648, Note_on_c, 0, 70, 0
2, 7650, Note_on_c, 0, 68, 84
2, 7679, Note_on_c, 0, 68, 0
2, 7680, Note_on_c, 0, 66, 77
2, 7707, Note_on_c, 0, 66, 0
2, 7710, Note_on_c, 0, 65, 78
2, 7739, Note_on_c, 0, 65, 0
2, 7740, Note_on_c, 0, 63, 71
2, 7740, Control_c, 0, 64, 127
2, 7767, Note_on_c, 0, 63, 0
2, 7770, Note_on_c, 0, 61, 74
2, 7799, Note_on_c, 0, 61, 0
2, 7800, Note_on_c, 0, 60, 69
2, 7800, Control_c, 0, 64, 0
2, 7828, Note_on_c, 0, 60, 0
2, 7830, Note_on_c, 0, 63, 74
2, 7860, Note_on_c, 0, 63, 0
2, 7860, Note_on_c, 0, 70, 70
2, 7887, Note_on_c, 0, 70, 0
2, 7890, Note_on_c, 0, 68, 71
2, 7917, Note_on_c, 0, 68, 0
2, 7920, Note_on_c, 0, 67, 75
2, 7920, Control_c, 0, 64, 127
2, 7949, Note_on_c, 0, 67, 0
2, 7950, Note_on_c, 0, 68, 74
2, 7978, Note_on_c, 0, 68, 0
2, 7980, Note_on_c, 0, 70, 78
2, 7980, Control_c, 0, 64, 0
2, 8009, Note_on_c, 0, 70, 0
2, 8010, Note_on_c, 0, 72, 75
2, 8037, Note_on_c, 0, 72, 0
2, 8040, Note_on_c, 0, 73, 79
2, 8069, Note_on_c, 0, 73, 0
2, 8070, Note_on_c, 0, 75, 76
2, 8097, Note_on_c, 0, 75, 0
2, 8100, Note_on_c, 0, 77, 82
2, 8119, Note_on_c, 0, 77, 0
2, 8120, Note_on_c, 0, 78, 80
2, 8138, Note_on_c, 0, 78, 0
2, 8140, Note_on_c, 0, 77, 85
2, 8160, Note_on_c, 0, 77, 0
2, 8160, Note_on_c, 0, 76, 80
2, 8187, Note_on_c, 0, 76, 0
2, 8190, Note_on_c, 0, 77, 81
2, 8217, Note_on_c, 0, 77, 0
2, 8220, Note_on_c, 0, 80, 85
2, 8249, Note_on_c, 0, 80, 0
2, 8250, Note_on_c, 0, 78, 84
2, 8278, Note_on_c, 0, 78, 0
2, 8280, Note_on_c, 0, 77, 88
2, 8309, Note_on_c, 0, 77, 0
2, 8310, Note_on_c, 0, 78, 86
2, 8337, Note_on_c, 0, 78, 0
2, 8340, Note_on_c, 0, 77, 90
2, 8369, Note_on_c, 0, 77, 0
2, 8370, Note_on_c, 0, 76, 87
2, 8397, Note_on_c, 0, 76, 0
2, 8400, Note_on_c, 0, 77, 93
2, 8429, Note_on_c, 0, 77, 0
2, 8430, Note_on_c, 0, 82, 91
2, 8458, Note_on_c, 0, 82, 0
2, 8460, Note_on_c, 0, 80, 96
2, 8480, Note_on_c, 0, 80, 0
2, 8480, Note_on_c, 0, 82, 92
2, 8497, Note_on_c, 0, 82, 0
2, 8500, Note_on_c, 0, 80, 92
2, 8517, Note_on_c, 0, 80, 0
2, 8520, Note_on_c, 0, 79, 96
2, 8549, Note_on_c, 0, 79, 0
2, 8550, Note_on_c, 0, 80, 95
2, 8578, Note_on_c, 0, 80, 0
2, 8580, Note_on_c, 0, 84, 99
2, 8609, Note_on_c, 0, 84, 0
2, 8610, Note_on_c, 0, 82, 96
2, 8637, Note_on_c, 0, 82, 0
2, 8640, Note_on_c, 0, 80, 100
2, 8669, Note_on_c, 0, 80, 0
2, 8670, Note_on_c, 0, 82, 97
2, 8697, Note_on_c, 0, 82, 0
2, 8700, Note_on_c, 0, 80, 103
2, 8729, Note_on_c, 0, 80, 0
2, 8730, Note_on_c, 0, 79, 101
2, 8758, Note_on_c, 0, 79, 0
2, 8760, Note_on_c, 0, 80, 106
2, 8790, Note_on_c, 0, 80, 0
2, 8790, Note_on_c, 0, 89, 102
2, 8817, Note_on_c, 0, 89, 0
2, 8820, Note_on_c, 0, 87, 103
2, 8847, Note_on_c, 0, 87, 0
2, 8850, Note_on_c, 0, 85, 105
2, 8879, Note_on_c, 0, 85, 0
2, 8880, Note_on_c, 0, 84, 102
2, 8908, Note_on_c, 0, 84, 0
2, 8910, Note_on_c, 0, 82, 103
2, 8939, Note_on_c, 0, 82, 0
2, 8940, Note_on_c, 0, 80, 98
2, 8967, Note_on_c, 0, 80, 0
2, 8970, Note_on_c, 0, 78, 100
2, 8999, Note_on_c, 0, 78, 0
2, 9000, Note_on_c, 0, 77, 94
2, 9000, Control_c, 0, 64, 127
2, 9027, Note_on_c, 0, 77, 0
2, 9030, Note_on_c, 0, 75, 98
2, 9059, Note_on_c, 0, 75, 0
2, 9060, Note_on_c, 0, 73, 94
2, 9060, Control_c, 0, 64, 0
2, 9088, Note_on_c, 0, 73, 0
2, 9090, Note_on_c, 0, 72, 96
2, 9120, Note_on_c, 0, 72, 0
2, 9120, Note_on_c, 0, 70, 90
2, 9147, Note_on_c, 0, 70, 0
2, 9150, Note_on_c, 0, 68, 89
2, 9177, Note_on_c, 0, 68, 0
2, 9180, Note_on_c, 0, 69, 90
2, 9209, Note_on_c, 0, 69, 0
2, 9210, Note_on_c, 0, 72, 87
2, 9238, Note_on_c, 0, 72, 0
2, 9240, Note_on_c, 0, 70, 89
2, 9269, Note_on_c, 0, 70, 0
2, 9270, Note_on_c, 0, 65, 83
2, 9297, Note_on_c, 0, 65, 0
2, 9300, Note_on_c, 0, 66, 85
2, 9329, Note_on_c, 0, 66, 0
2, 9330, Note_on_c, 0, 60, 80
2, 9357, Note_on_c, 0, 60, 0
2, 9360, Note_on_c, 0, 61, 83
2, 9419, Note_on_c, 0, 61, 0
2, 9480, Note_on_c, 0, 68, 75
2, 9540, Control_c, 0, 64, 127
2, 9657, Note_on_c, 0, 68, 0
2, 9660, Note_on_c, 0, 63, 71
2, 9720, Note_on_c, 0, 63, 0
2, 9720, Note_on_c, 0, 68, 63
2, 9780, Control_c, 0, 64, 0
2, 9837, Note_on_c, 0, 68, 0
2, 9840, Note_on_c, 0, 64, 66
2, 9897, Note_on_c, 0, 64, 0
2, 9900, Note_on_c, 0, 68, 71
2, 9900, Control_c, 0, 64, 127
2, 10019, Note_on_c, 0, 68, 0
2, 10020, Note_on_c, 0, 65, 73
2, 10020, Control_c, 0, 64, 0
2, 10078, Note_on_c, 0, 65, 0
2, 10080, Note_on_c, 0, 77, 78
2, 10080, Control_c, 0, 64, 127
2, 10198, Note_on_c, 0, 77, 0
2, 10200, Note_on_c, 0, 77, 78
2, 10200, Control_c, 0, 64, 0
2, 10260, Control_c, 0, 64, 127
2, 10377, Note_on_c, 0, 77, 0
2, 10380, Note_on_c, 0, 70, 87
2, 10380, Control_c, 0, 64, 0
2, 10439, Note_on_c, 0, 70, 0
2, 10440, Note_on_c, 0, 77, 85
2, 10440, Control_c, 0, 64, 127
2, 10557, Note_on_c, 0, 77, 0
2, 10560, Note_on_c, 0, 72, 87
2, 10560, Control_c, 0, 64, 0
2, 10619, Note_on_c, 0, 72, 0
2, 10620, Note_on_c, 0, 75, 82
2, 10620, Control_c, 0, 64, 127
2, 10738, Note_on_c, 0, 75, 0
2, 10740, Note_on_c, 0, 73, 82
2, 10800, Note_on_c, 0, 73, 0
2, 10800, Note_on_c, 0, 72, 76
2, 10800, Control_c, 0, 64, 0
2, 10842, Note_on_c, 0, 72, 0
2, 10845, Note_on_c, 0, 75, 74
2, 10887, Note_on_c, 0, 75, 0
2, 10890, Note_on_c, 0, 73, 76
2, 10933, Note_on_c, 0, 73, 0
2, 10935, Note_on_c, 0, 70, 72
2, 10977, Note_on_c, 0, 70, 0
2, 10980, Note_on_c, 0, 68, 74
2, 10980, Control_c, 0, 64, 127
2, 11099, Note_on_c, 0, 68, 0
2, 11100, Note_on_c, 0, 63, 63
2, 11100, Control_c, 0, 64, 0
2, 11157, Note_on_c, 0, 63, 0
2, 11160, Note_on_c, 0, 68, 67
2, 11160, Control_c, 0, 64, 127
2, 11279, Note_on_c, 0, 68, 0
2, 11280, Note_on_c, 0, 64, 67
2, 11280, Control_c, 0, 64, 0
2, 11337, Note_on_c, 0, 64, 0
2, 11340, Note_on_c, 0, 68, 74
2, 11340, Control_c, 0, 64, 127
2, 11459, Note_on_c, 0, 68, 0
2, 11460, Note_on_c, 0, 65, 75
2, 11460, Control_c, 0, 64, 0
2, 11518, Note_on_c, 0, 65, 0
2, 11520, Note_on_c, 0, 77, 81
2, 11520, Control_c, 0, 64, 127
2, 11640, Control_c, 0, 64, 0
2, 11684, Note_on_c, 0, 77, 0
2, 11700, Note_on_c, 0, 72, 82
2, 11700, Control_c, 0, 64, 127
2, 11709, Note_on_c, 0, 72, 0
2, 11712, Note_on_c, 0, 73, 82
2, 11721, Note_on_c, 0, 73, 0
2, 11724, Note_on_c, 0, 72, 86
2, 11734, Note_on_c, 0, 72, 0
2, 11736, Note_on_c, 0, 73, 84
2, 11745, Note_on_c, 0, 73, 0
2, 11748, Note_on_c, 0, 72, 87
2, 11759, Note_on_c, 0, 72, 0
2, 11760, Note_on_c, 0, 71, 84
2, 11817, Note_on_c, 0, 71, 0
2, 11820, Note_on_c, 0, 72, 89
2, 11820, Control_c, 0, 64, 0
2, 11879, Note_on_c, 0, 72, 0
2, 11880, Note_on_c, 0, 80, 87
2, 11880, Control_c, 0, 64, 127
2, 11937, Note_on_c, 0, 80, 0
2, 11940, Note_on_c, 0, 70, 90
2, 11999, Note_on_c, 0, 70, 0
2, 12000, Note_on_c, 0, 79, 85
2, 12000, Control_c, 0, 64, 0
2, 12058, Note_on_c, 0, 79, 0
2, 12060, Note_on_c, 0, 69, 86
2, 12060, Control_c, 0, 64, 127
2, 12120, Note_on_c, 0, 69, 0
2, 12120, Note_on_c, 0, 78, 79
2, 12177, Note_on_c, 0, 78, 0
2, 12180, Note_on_c, 0, 68, 77
2, 12237, Note_on_c, 0, 68, 0
2, 12240, Note_on_c, 0, 77, 77
2, 12240, Control_c, 0, 64, 0
2, 12299, Note_on_c, 0, 77, 0
2, 12300, Note_on_c, 0, 65, 73
2, 12358, Note_on_c, 0, 65, 0
2, 12360, Note_on_c, 0, 70, 74
2, 12419, Note_on_c, 0, 70, 0
2, 12420, Note_on_c, 0, 68, 87
2, 12420, Control_c, 0, 64, 127
2, 12537, Note_on_c, 0, 68, 0
2, 12540, Note_on_c, 0, 63, 90
2, 12540, Control_c, 0, 64, 0
2, 12599, Note_on_c, 0, 63, 0
2, 12600, Note_on_c, 0, 80, 86
2, 12600, Control_c, 0, 64, 127
2, 12608, Note_on_c, 0, 68, 91
2, 12627, Note_on_c, 0, 80, 0
2, 12720, Note_on_c, 0, 68, 0
2, 12720, Note_on_c, 0, 63, 88
2, 12720, Control_c, 0, 64, 0
2, 12778, Note_on_c, 0, 63, 0
2, 12780, Note_on_c, 0, 80, 92
2, 12780, Control_c, 0, 64, 127
2, 12787, Note_on_c, 0, 68, 87
2, 12810, Note_on_c, 0, 80, 0
2, 12898, Note_on_c, 0, 68, 0
2, 12900, Note_on_c, 0, 65, 88
2, 12900, Control_c, 0, 64, 0
2, 12957, Note_on_c, 0, 65, 0
2, 12960, Note_on_c, 0, 80, 91
2, 12960, Control_c, 0, 64, 127
2, 12968, Note_on_c, 0, 77, 89
2, 12989, Note_on_c, 0, 80, 0
2, 13075, Note_on_c, 0, 77, 0
2, 13080, Note_on_c, 0, 77, 92
2, 13080, Control_c, 0, 64, 0
2, 13139, Note_on_c, 0, 77, 0
2, 13140, Note_on_c, 0, 80, 88
2, 13140, Control_c, 0, 64, 127
2, 13148, Note_on_c, 0, 77, 91
2, 13167, Note_on_c, 0, 80, 0
2, 13258, Note_on_c, 0, 77, 0
2, 13260, Note_on_c, 0, 70, 87
2, 13260, Control_c, 0, 64, 0
2, 13316, Note_on_c, 0, 70, 0
2, 13320, Note_on_c, 0, 80, 91
2, 13320, Control_c, 0, 64, 127
2, 13328, Note_on_c, 0, 77, 88
2, 13334, Note_on_c, 0, 80, 0
2, 13429, Note_on_c, 0, 77, 0
2, 13440, Note_on_c, 0, 72, 92
2, 13440, Control_c, 0, 64, 0
2, 13499, Note_on_c, 0, 72, 0
2, 13500, Note_on_c, 0, 80, 87
2, 13500, Control_c, 0, 64, 127
2, 13507, Note_on_c, 0, 75, 87
2, 13512, Note_on_c, 0, 80, 0
2, 13558, Note_on_c, 0, 75, 0
2, 13560, Note_on_c, 0, 73, 90
2, 13619, Note_on_c, 0, 73, 0
2, 13620, Note_on_c, 0, 72, 87
2, 13620, Control_c, 0, 64, 0
2, 13678, Note_on_c, 0, 72, 0
2, 13680, Note_on_c, 0, 80, 90
2, 13680, Control_c, 0, 64, 127
2, 13687, Note_on_c, 0, 75, 86
2, 13709, Note_on_c, 0, 80, 0
2, 13738, Note_on_c, 0, 75, 0
2, 13740, Note_on_c, 0, 73, 89
2, 13800, Control_c, 0, 64, 0
2, 13828, Note_on_c, 0, 73, 0
2, 13830, Note_on_c, 0, 70, 85
2, 13857, Note_on_c, 0, 70, 0
2, 13860, Note_on_c, 0, 80, 90
2, 13860, Control_c, 0, 64, 127
2, 13867, Note_on_c, 0, 68, 87
2, 13889, Note_on_c, 0, 80, 0
2, 13978, Note_on_c, 0, 68, 0
2, 13980, Note_on_c, 0, 63, 90
2, 13980, Control_c, 0, 64, 0
2, 14040, Note_on_c, 0, 63, 0
2, 14040, Note_on_c, 0, 80, 85
2, 14040, Control_c, 0, 64, 127
2, 14047, Note_on_c, 0, 68, 85
2, 14067, Note_on_c, 0, 80, 0
2, 14157, Note_on_c, 0, 68, 0
2, 14160, Note_on_c, 0, 64, 88
2, 14160, Control_c, 0, 64, 0
2, 14219, Note_on_c, 0, 64, 0
2, 14220, Note_on_c, 0, 80, 85
2, 14220, Control_c, 0, 64, 127
2, 14227, Note_on_c, 0, 68, 88
2, 14248, Note_on_c, 0, 80, 0
2, 14340, Note_on_c, 0, 68, 0
2, 14340, Note_on_c, 0, 65, 87
2, 14340, Control_c, 0, 64, 0
2, 14397, Note_on_c, 0, 65, 0
2, 14400, Note_on_c, 0, 77, 91
2, 14400, Control_c, 0, 64, 127
2, 14520, Control_c, 0, 64, 0
2, 14578, Note_on_c, 0, 77, 0
2, 14580, Note_on_c, 0, 77, 92
2, 14580, Control_c, 0, 64, 127
2, 14697, Note_on_c, 0, 77, 0
2, 14700, Note_on_c, 0, 70, 93
2, 14700, Control_c, 0, 64, 0
2, 14759, Note_on_c, 0, 70, 0
2, 14760, Note_on_c, 0, 75, 88
2, 14877, Note_on_c, 0, 75, 0
2, 14880, Note_on_c, 0, 69, 88
2, 14940, Note_on_c, 0, 69, 0
2, 14940, Note_on_c, 0, 75, 80
2, 14997, Note_on_c, 0, 75, 0
2, 15000, Note_on_c, 0, 68, 82
2, 15057, Note_on_c, 0, 68, 0
2, 15060, Note_on_c, 0, 74, 88
2, 15119, Note_on_c, 0, 74, 0
2, 15120, Note_on_c, 0, 77, 88
2, 15178, Note_on_c, 0, 77, 0
2, 15180, Note_on_c, 0, 75, 94
2, 15239, Note_on_c, 0, 75, 0
2, 15240, Note_on_c, 0, 80, 93
2, 15297, Note_on_c, 0, 80, 0
2, 15300, Note_on_c, 0, 68, 54
2, 15313, Note_on_c, 0, 68, 0
2, 15315, Note_on_c, 0, 70, 51
2, 15326, Note_on_c, 0, 70, 0
2, 15330, Note_on_c, 0, 68, 56
2, 15344, Note_on_c, 0, 68, 0
2, 15345, Note_on_c, 0, 70, 54
2, 15357, Note_on_c, 0, 70, 0
2, 15360, Note_on_c, 0, 68, 60
2, 15374, Note_on_c, 0, 68, 0
2, 15375, Note_on_c, 0, 70, 57
2, 15387, Note_on_c, 0, 70, 0
2, 15390, Note_on_c, 0, 68, 58
2, 15402, Note_on_c, 0, 68, 0
2, 15405, Note_on_c, 0, 70, 62
2, 15418, Note_on_c, 0, 70, 0
2, 15420, Note_on_c, 0, 68, 62
2, 15432, Note_on_c, 0, 68, 0
2, 15435, Note_on_c, 0, 70, 66
2, 15449, Note_on_c, 0, 70, 0
2, 15450, Note_on_c, 0, 68, 63
2, 15462, Note_on_c, 0, 68, 0
2, 15465, Note_on_c, 0, 70, 67
2, 15478, Note_on_c, 0, 70, 0
2, 15480, Note_on_c, 0, 68, 63
2, 15491, Note_on_c, 0, 68, 0
2, 15495, Note_on_c, 0, 70, 70
2, 15509, Note_on_c, 0, 70, 0
2, 15510, Note_on_c, 0, 68, 66
2, 15522, Note_on_c, 0, 68, 0
2, 15525, Note_on_c, 0, 70, 72
2, 15539, Note_on_c, 0, 70, 0
2, 15540, Note_on_c, 0, 68, 66
2, 15552, Note_on_c, 0, 68, 0
2, 15555, Note_on_c, 0, 70, 68
2, 15567, Note_on_c, 0, 70, 0
2, 15570, Note_on_c, 0, 68, 71
2, 15583, Note_on_c, 0, 68, 0
2, 15585, Note_on_c, 0, 70, 70
2, 15597, Note_on_c, 0, 70, 0
2, 15600, Note_on_c, 0, 68, 72
2, 15614, Note_on_c, 0, 68, 0
2, 15615, Note_on_c, 0, 70, 69
2, 15627, Note_on_c, 0, 70, 0
2, 15630, Note_on_c, 0, 68, 72
2, 15643, Note_on_c, 0, 68, 0
2, 15645, Note_on_c, 0, 70, 69
2, 15656, Note_on_c, 0, 70, 0
2, 15660, Note_on_c, 0, 68, 74
2, 15674, Note_on_c, 0, 68, 0
2, 15675, Note_on_c, 0, 70, 72
2, 15687, Note_on_c, 0, 70, 0
2, 15690, Note_on_c, 0, 68, 76
2, 15704, Note_on_c, 0, 68, 0
2, 15705, Note_on_c, 0, 70, 73
2, 15717, Note_on_c, 0, 70, 0
2, 15720, Note_on_c, 0, 68, 72
2, 15732, Note_on_c, 0, 68, 0
2, 15735, Note_on_c, 0, 70, 75
2, 15748, Note_on_c, 0, 70, 0
2, 15750, Note_on_c, 0, 68, 75
2, 15762, Note_on_c, 0, 68, 0
2, 15765, Note_on_c, 0, 70, 77
2, 15779, Note_on_c, 0, 70, 0
2, 15780, Note_on_c, 0, 68, 75
2, 15792, Note_on_c, 0, 68, 0
2, 15795, Note_on_c, 0, 70, 77
2, 15808, Note_on_c, 0, 70, 0
2, 15810, Note_on_c, 0, 68, 72
2, 15821, Note_on_c, 0, 68, 0
2, 15825, Note_on_c, 0, 70, 77
2, 15839, Note_on_c, 0, 70, 0
2, 15840, Note_on_c, 0, 68, 75
2, 15852, Note_on_c, 0, 68, 0
2, 15855, Note_on_c, 0, 70, 79
2, 15869, Note_on_c, 0, 70, 0
2, 15870, Note_on_c, 0, 68, 75
2, 15882, Note_on_c, 0, 68, 0
2, 15885, Note_on_c, 0, 70, 77
2, 15897, Note_on_c, 0, 70, 0
2, 15900, Note_on_c, 0, 68, 78
2, 15913, Note_on_c, 0, 68, 0
2, 15915, Note_on_c, 0, 70, 79
2, 15927, Note_on_c, 0, 70, 0
2, 15930, Note_on_c, 0, 68, 81
2, 15944, Note_on_c, 0, 68, 0
2, 15945, Note_on_c, 0, 70, 79
2, 15957, Note_on_c, 0, 70, 0
2, 15960, Note_on_c, 0, 68, 81
2, 15973, Note_on_c, 0, 68, 0
2, 15975, Note_on_c, 0, 70, 78
2, 15986, Note_on_c, 0, 70, 0
2, 15990, Note_on_c, 0, 68, 83
2, 16004, Note_on_c, 0, 68, 0
2, 16005, Note_on_c, 0, 70, 81
2, 16017, Note_on_c, 0, 70, 0
2, 16020, Note_on_c, 0, 67, 85
2, 16049, Note_on_c, 0, 67, 0
2, 16050, Note_on_c, 0, 68, 81
2, 16077, Note_on_c, 0, 68, 0
2, 16080, Note_on_c, 0, 72, 81
2, 16107, Note_on_c, 0, 72, 0
2, 16110, Note_on_c, 0, 70, 86
2, 16138, Note_on_c, 0, 70, 0
2, 16140, Note_on_c, 0, 67, 84
2, 16167, Note_on_c, 0, 67, 0
2, 16170, Note_on_c, 0, 68, 89
2, 16199, Note_on_c, 0, 68, 0
2, 16200, Note_on_c, 0, 72, 84
2, 16227, Note_on_c, 0, 72, 0
2, 16230, Note_on_c, 0, 70, 89
2, 16258, Note_on_c, 0, 70, 0
2, 16260, Note_on_c, 0, 67, 85
2, 16286, Note_on_c, 0, 67, 0
2, 16290, Note_on_c, 0, 68, 92
2, 16319, Note_on_c, 0, 68, 0
2, 16320, Note_on_c, 0, 72, 89
2, 16347, Note_on_c, 0, 72, 0
2, 16350, Note_on_c, 0, 70, 94
2, 16379, Note_on_c, 0, 70, 0
2, 16380, Note_on_c, 0, 67, 89
2, 16407, Note_on_c, 0, 67, 0
2, 16410, Note_on_c, 0, 68, 91
2, 16437, Note_on_c, 0, 68, 0
2, 16440, Note_on_c, 0, 72, 94
2, 16468, Note_on_c, 0, 72, 0
2, 16470, Note_on_c, 0, 70, 94
2, 16497, Note_on_c, 0, 70, 0
2, 16500, Note_on_c, 0, 67, 96
2, 16529, Note_on_c, 0, 67, 0
2, 16530, Note_on_c, 0, 68, 94
2, 16557, Note_on_c, 0, 68, 0
2, 16560, Note_on_c, 0, 72, 97
2, 16588, Note_on_c, 0, 72, 0
2, 16590, Note_on_c, 0, 70, 95
2, 16616, Note_on_c, 0, 70, 0
2, 16620, Note_on_c, 0, 67, 99
2, 16649, Note_on_c, 0, 67, 0
2, 16650, Note_on_c, 0, 68, 100
2, 16677, Note_on_c, 0, 68, 0
2, 16680, Note_on_c, 0, 72, 101
2, 16709, Note_on_c, 0, 72, 0
2, 16710, Note_on_c, 0, 70, 97
2, 16737, Note_on_c, 0, 70, 0
2, 16740, Note_on_c, 0, 67, 98
2, 16740, Control_c, 0, 64, 127
2, 16767, Note_on_c, 0, 67, 0
2, 16770, Note_on_c, 0, 68, 101
2, 16798, Note_on_c, 0, 68, 0
2, 16800, Note_on_c, 0, 72, 100
2, 16800, Control_c, 0, 64, 0
2, 16827, Note_on_c, 0, 72, 0
2, 16830, Note_on_c, 0, 70, 104
2, 16859, Note_on_c, 0, 70, 0
2, 16860, Note_on_c, 0, 67, 101
2, 16887, Note_on_c, 0, 67, 0
2, 16890, Note_on_c, 0, 68, 105
2, 16918, Note_on_c, 0, 68, 0
2, 16920, Note_on_c, 0, 72, 98
2, 16920, Control_c, 0, 64, 127
2, 16946, Note_on_c, 0, 72, 0
2, 16950, Note_on_c, 0, 70, 103
2, 16979, Note_on_c, 0, 70, 0
2, 16980, Note_on_c, 0, 67, 100
2, 16980, Control_c, 0, 64, 0
2, 17007, Note_on_c, 0, 67, 0
2, 17010, Note_on_c, 0, 68, 105
2, 17039, Note_on_c, 0, 68, 0
2, 17040, Note_on_c, 0, 72, 100
2, 17067, Note_on_c, 0, 72, 0
2, 17070, Note_on_c, 0, 70, 100
2, 17097, Note_on_c, 0, 70, 0
2, 17100, Note_on_c, 0, 67, 104
2, 17100, Control_c, 0, 64, 127
2, 17128, Note_on_c, 0, 67, 0
2, 17130, Note_on_c, 0, 68, 102
2, 17157, Note_on_c, 0, 68, 0
2, 17160, Note_on_c, 0, 72, 106
2, 17160, Control_c, 0, 64, 0
2, 17189, Note_on_c, 0, 72, 0
2, 17190, Note_on_c, 0, 70, 102
2, 17217, Note_on_c, 0, 70, 0
2, 17220, Note_on_c, 0, 67, 105
2, 17248, Note_on_c, 0, 67, 0
2, 17250, Note_on_c, 0, 68, 102
2, 17276, Note_on_c, 0, 68, 0
2, 17280, Note_on_c, 0, 70, 107
2, 17280, Control_c, 0, 64, 127
2, 17309, Note_on_c, 0, 70, 0
2, 17310, Note_on_c, 0, 72, 105
2, 17337, Note_on_c, 0, 72, 0
2, 17340, Note_on_c, 0, 73, 109
2, 17340, Control_c, 0, 64, 0
2, 17369, Note_on_c, 0, 73, 0
2, 17370, Note_on_c, 0, 75, 104
2, 17397, Note_on_c, 0, 75, 0
2, 17400, Note_on_c, 0, 77, 105
2, 17427, Note_on_c, 0, 77, 0
2, 17430, Note_on_c, 0, 78, 108
2, 17458, Note_on_c, 0, 78, 0
2, 17460, Note_on_c, 0, 82, 105
2, 17460, Control_c, 0, 64, 127
2, 17520, Control_c, 0, 64, 0
2, 17548, Note_on_c, 0, 82, 0
2, 17550, Note_on_c, 0, 80, 103
2, 17579, Note_on_c, 0, 80, 0
2, 17580, Note_on_c, 0, 78, 97
2, 17607, Note_on_c, 0, 78, 0
2, 17610, Note_on_c, 0, 77, 98
2, 17639, Note_on_c, 0, 77, 0
2, 17640, Note_on_c, 0, 77, 93
2, 17640, Control_c, 0, 64, 127
2, 17667, Note_on_c, 0, 77, 0
2, 17670, Note_on_c, 0, 75, 96
2, 17699, Note_on_c, 0, 75, 0
2, 17700, Note_on_c, 0, 75, 91
2, 17700, Control_c, 0, 64, 0
2, 17708, Note_on_c, 0, 75, 0
2, 17710, Note_on_c, 0, 77, 94
2, 17720, Note_on_c, 0, 77, 0
2, 17720, Note_on_c, 0, 75, 89
2, 17727, Note_on_c, 0, 75, 0
2, 17730, Note_on_c, 0, 74, 88
2, 17757, Note_on_c, 0, 74, 0
2, 17760, Note_on_c, 0, 75, 89
2, 17818, Note_on_c, 0, 75, 0
2, 17820, Note_on_c, 0, 82, 100
2, 17820, Control_c, 0, 64, 127
2, 17908, Note_on_c, 0, 82, 0
2, 17910, Note_on_c, 0, 80, 100
2, 17939, Note_on_c, 0, 80, 0
2, 17940, Note_on_c, 0, 78, 94
2, 17940, Control_c, 0, 64, 0
2, 17967, Note_on_c, 0, 78, 0
2, 17970, Note_on_c, 0, 77, 96
2, 17999, Note_on_c, 0, 77, 0
2, 18000, Note_on_c, 0, 77, 91
2, 18027, Note_on_c, 0, 77, 0
2, 18030, Note_on_c, 0, 75, 95
2, 18039, Note_on_c, 0, 75, 0
2, 18040, Note_on_c, 0, 77, 91
2, 18048, Note_on_c, 0, 77, 0
2, 18050, Note_on_c, 0, 75, 95
2, 18060, Note_on_c, 0, 75, 0
2, 18060, Note_on_c, 0, 74, 89
2, 18087, Note_on_c, 0, 74, 0
2, 18090, Note_on_c, 0, 75, 88
2, 18117, Note_on_c, 0, 75, 0
2, 18120, Note_on_c, 0, 77, 90
2, 18149, Note_on_c, 0, 77, 0
2, 18150, Note_on_c, 0, 70, 87
2, 18178, Note_on_c, 0, 70, 0
2, 18180, Note_on_c, 0, 67, 83
2, 18180, Control_c, 0, 64, 127
2, 18209, Note_on_c, 0, 67, 0
2, 18210, Note_on_c, 0, 68, 79
2, 18237, Note_on_c, 0, 68, 0
2, 18240, Note_on_c, 0, 72, 83
2, 18240, Control_c, 0, 64, 0
2, 18268, Note_on_c, 0, 72, 0
2, 18270, Note_on_c, 0, 70, 80
2, 18296, Note_on_c, 0, 70, 0
2, 18300, Note_on_c, 0, 67, 86
2, 18329, Note_on_c, 0, 67, 0
2, 18330, Note_on_c, 0, 68, 84
2, 18357, Note_on_c, 0, 68, 0
2, 18360, Note_on_c, 0, 72, 89
2, 18389, Note_on_c, 0, 72, 0
2, 18390, Note_on_c, 0, 70, 85
2, 18417, Note_on_c, 0, 70, 0
2, 18420, Note_on_c, 0, 67, 86
2, 18447, Note_on_c, 0, 67, 0
2, 18450, Note_on_c, 0, 68, 89
2, 18478, Note_on_c, 0, 68, 0
2, 18480, Note_on_c, 0, 72, 88
2, 18507, Note_on_c, 0, 72, 0
2, 18510, Note_on_c, 0, 70, 92
2, 18539, Note_on_c, 0, 70, 0
2, 18540, Note_on_c, 0, 67, 89
2, 18567, Note_on_c, 0, 67, 0
2, 18570, Note_on_c, 0, 68, 93
2, 18598, Note_on_c, 0, 68, 0
2, 18600, Note_on_c, 0, 72, 90
2, 18626, Note_on_c, 0, 72, 0
2, 18630, Note_on_c, 0, 70, 96
2, 18659, Note_on_c, 0, 70, 0
2, 18660, Note_on_c, 0, 67, 94
2, 18687, Note_on_c, 0, 67, 0
2, 18690, Note_on_c, 0, 68, 98
2, 18719, Note_on_c, 0, 68, 0
2, 18720, Note_on_c, 0, 70, 94
2, 18747, Note_on_c, 0, 70, 0
2, 18750, Note_on_c, 0, 72, 95
2, 18777, Note_on_c, 0, 72, 0
2, 18780, Note_on_c, 0, 73, 99
2, 18808, Note_on_c, 0, 73, 0
2, 18810, Note_on_c, 0, 75, 98
2, 18837, Note_on_c, 0, 75, 0
2, 18840, Note_on_c, 0, 77, 102
2, 18869, Note_on_c, 0, 77, 0
2, 18870, Note_on_c, 0, 78, 99
2, 18897, Note_on_c, 0, 78, 0
2, 18900, Note_on_c, 0, 82, 103
2, 18988, Note_on_c, 0, 82, 0
2, 18990, Note_on_c, 0, 80, 93
2, 19016, Note_on_c, 0, 80, 0
2, 19020, Note_on_c, 0, 78, 96
2, 19049, Note_on_c, 0, 78, 0
2, 19050, Note_on_c, 0, 77, 91
2, 19077, Note_on_c, 0, 77, 0
2, 19080, Note_on_c, 0, 77, 93
2, 19109, Note_on_c, 0, 77, 0
2, 19110, Note_on_c, 0, 75, 86
2, 19137, Note_on_c, 0, 75, 0
2, 19140, Note_on_c, 0, 75, 84
2, 19147, Note_on_c, 0, 75, 0
2, 19150, Note_on_c, 0, 77, 87
2, 19159, Note_on_c, 0, 77, 0
2, 19160, Note_on_c, 0, 75, 84
2, 19168, Note_on_c, 0, 75, 0
2, 19170, Note_on_c, 0, 74, 86
2, 19199, Note_on_c, 0, 74, 0
2, 19200, Note_on_c, 0, 75, 80
2, 19257, Note_on_c, 0, 75, 0
2, 19260, Note_on_c, 0, 82, 99
2, 19349, Note_on_c, 0, 82, 0
2, 19350, Note_on_c, 0, 80, 87
2, 19377, Note_on_c, 0, 80, 0
2, 19380, Note_on_c, 0, 78, 90
2, 19409, Note_on_c, 0, 78, 0
2, 19410, Note_on_c, 0, 77, 84
2, 19438, Note_on_c, 0, 77, 0
2, 19440, Note_on_c, 0, 75, 81
2, 19470, Note_on_c, 0, 75, 0
2, 19470, Note_on_c, 0, 77, 76
2, 19497, Note_on_c, 0, 77, 0
2, 19500, Note_on_c, 0, 75, 77
2, 19507, Note_on_c, 0, 75, 0
2, 19510, Note_on_c, 0, 77, 81
2, 19519, Note_on_c, 0, 77, 0
2, 19520, Note_on_c, 0, 75, 79
2, 19528, Note_on_c, 0, 75, 0
2, 19530, Note_on_c, 0, 74, 82
2, 19559, Note_on_c, 0, 74, 0
2, 19560, Note_on_c, 0, 75, 79
2, 19587, Note_on_c, 0, 75, 0
2, 19590, Note_on_c, 0, 76, 83
2, 19619, Note_on_c, 0, 76, 0
2, 19620, Note_on_c, 0, 77, 80
2, 19637, Note_on_c, 0, 77, 0
2, 19640, Note_on_c, 0, 78, 86
2, 19659, Note_on_c, 0, 78, 0
2, 19660, Note_on_c, 0, 77, 84
2, 19678, Note_on_c, 0, 77, 0
2, 19680, Note_on_c, 0, 76, 88
2, 19710, Note_on_c, 0, 76, 0
2, 19710, Note_on_c, 0, 77, 84
2, 19737, Note_on_c, 0, 77, 0
2, 19740, Note_on_c, 0, 80, 85
2, 19767, Note_on_c, 0, 80, 0
2, 19770, Note_on_c, 0, 78, 89
2, 19799, Note_on_c, 0, 78, 0
2, 19800, Note_on_c, 0, 77, 88
2, 19828, Note_on_c, 0, 77, 0
2, 19830, Note_on_c, 0, 78, 92
2, 19859, Note_on_c, 0, 78, 0
2, 19860, Note_on_c, 0, 77, 89
2, 19887, Note_on_c, 0, 77, 0
2, 19890, Note_on_c, 0, 76, 93
2, 19919, Note_on_c, 0, 76, 0
2, 19920, Note_on_c, 0, 77, 90
2, 19947, Note_on_c, 0, 77, 0
2, 19950, Note_on_c, 0, 82, 96
2, 19979, Note_on_c, 0, 82, 0
2, 19980, Note_on_c, 0, 80, 94
2, 19998, Note_on_c, 0, 80, 0
2, 20000, Note_on_c, 0, 82, 99
2, 20020, Note_on_c, 0, 82, 0
2, 20020, Note_on_c, 0, 80, 94
2, 20037, Note_on_c, 0, 80, 0
2, 20040, Note_on_c, 0, 79, 95
2, 20067, Note_on_c, 0, 79, 0
2, 20070, Note_on_c, 0, 80, 99
2, 20099, Note_on_c, 0, 80, 0
2, 20100, Note_on_c, 0, 84, 98
2, 20128, Note_on_c, 0, 84, 0
2, 20130, Note_on_c, 0, 82, 102
2, 20159, Note_on_c, 0, 82, 0
2, 20160, Note_on_c, 0, 80, 99
2, 20187, Note_on_c, 0, 80, 0
2, 20190, Note_on_c, 0, 82, 103
2, 20219, Note_on_c, 0, 82, 0
2, 20220, Note_on_c, 0, 80, 100
2, 20247, Note_on_c, 0, 80, 0
2, 20250, Note_on_c, 0, 79, 106
2, 20279, Note_on_c, 0, 79, 0
2, 20280, Note_on_c, 0, 80, 104
2, 20308, Note_on_c, 0, 80, 0
2, 20310, Note_on_c, 0, 85, 109
2, 20340, Note_on_c, 0, 85, 0
2, 20340, Note_on_c, 0, 84, 105
2, 20367, Note_on_c, 0, 84, 0
2, 20370, Note_on_c, 0, 82, 103
2, 20397, Note_on_c, 0, 82, 0
2, 20400, Note_on_c, 0, 80, 104
2, 20429, Note_on_c, 0, 80, 0
2, 20430, Note_on_c, 0, 78, 100
2, 20458, Note_on_c, 0, 78, 0
2, 20460, Note_on_c, 0, 77, 101
2, 20489, Note_on_c, 0, 77, 0
2, 20490, Note_on_c, 0, 75, 95
2, 20517, Note_on_c, 0, 75, 0
2, 20520, Note_on_c, 0, 73, 96
2, 20549, Note_on_c, 0, 73, 0
2, 20550, Note_on_c, 0, 72, 90
2, 20577, Note_on_c, 0, 72, 0
2, 20580, Note_on_c, 0, 70, 93
2, 20609, Note_on_c, 0, 70, 0
2, 20610, Note_on_c, 0, 68, 88
2, 20638, Note_on_c, 0, 68, 0
2, 20640, Note_on_c, 0, 66, 90
2, 20670, Note_on_c, 0, 66, 0
2, 20670, Note_on_c, 0, 65, 83
2, 20697, Note_on_c, 0, 65, 0
2, 20700, Note_on_c, 0, 63, 81
2, 20727, Note_on_c, 0, 63, 0
2, 20730, Note_on_c, 0, 61, 82
2, 20759, Note_on_c, 0, 61, 0
2, 20760, Note_on_c, 0, 60, 79
2, 20788, Note_on_c, 0, 60, 0
2, 20790, Note_on_c, 0, 63, 82
2, 20819, Note_on_c, 0, 63, 0
2, 20820, Note_on_c, 0, 70, 79
2, 20847, Note_on_c, 0, 70, 0
2, 20850, Note_on_c, 0, 68, 83
2, 20879, Note_on_c, 0, 68, 0
2, 20880, Note_on_c, 0, 67, 80
2, 20907, Note_on_c, 0, 67, 0
2, 20910, Note_on_c, 0, 68, 85
2, 20939, Note_on_c, 0, 68, 0
2, 20940, Note_on_c, 0, 70, 83
2, 20968, Note_on_c, 0, 70, 0
2, 20970, Note_on_c, 0, 72, 88
2, 21000, Note_on_c, 0, 72, 0
2, 21000, Note_on_c, 0, 73, 84
2, 21027, Note_on_c, 0, 73, 0
2, 21030, Note_on_c, 0, 75, 85
2, 21057, Note_on_c, 0, 75, 0
2, 21060, Note_on_c, 0, 77, 88
2, 21079, Note_on_c, 0, 77, 0
2, 21080, Note_on_c, 0, 78, 87
2, 21098, Note_on_c, 0, 78, 0
2, 21100, Note_on_c, 0, 77, 91
2, 21119, Note_on_c, 0, 77, 0
2, 21120, Note_on_c, 0, 76, 87
2, 21147, Note_on_c, 0, 76, 0
2, 21150, Note_on_c, 0, 77, 91
2, 21179, Note_on_c, 0, 77, 0
2, 21180, Note_on_c, 0, 80, 88
2, 21207, Note_on_c, 0, 80, 0
2, 21210, Note_on_c, 0, 78, 93
2, 21239, Note_on_c, 0, 78, 0
2, 21240, Note_on_c, 0, 77, 91
2, 21268, Note_on_c, 0, 77, 0
2, 21270, Note_on_c, 0, 78, 96
2, 21300, Note_on_c, 0, 78, 0
2, 21300, Note_on_c, 0, 77, 92
2, 21327, Note_on_c, 0, 77, 0
2, 21330, Note_on_c, 0, 76, 93
2, 21357, Note_on_c, 0, 76, 0
2, 21360, Note_on_c, 0, 77, 96
2, 21389, Note_on_c, 0, 77, 0
2, 21390, Note_on_c, 0, 82, 95
2, 21418, Note_on_c, 0, 82, 0
2, 21420, Note_on_c, 0, 80, 99
2, 21439, Note_on_c, 0, 80, 0
2, 21440, Note_on_c, 0, 82, 96
2, 21457, Note_on_c, 0, 82, 0
2, 21460, Note_on_c, 0, 80, 99
2, 21479, Note_on_c, 0, 80, 0
2, 21480, Note_on_c, 0, 79, 96
2, 21507, Note_on_c, 0, 79, 0
2, 21510, Note_on_c, 0, 80, 101
2, 21539, Note_on_c, 0, 80, 0
2, 21540, Note_on_c, 0, 84, 99
2, 21568, Note_on_c, 0, 84, 0
2, 21570, Note_on_c, 0, 82, 104
2, 21600, Note_on_c, 0, 82, 0
2, 21600, Note_on_c, 0, 80, 100
2, 21627, Note_on_c, 0, 80, 0
2, 21630, Note_on_c, 0, 82, 101
2, 21657, Note_on_c, 0, 82, 0
2, 21660, Note_on_c, 0, 80, 104
2, 21689, Note_on_c, 0, 80, 0
2, 21690, Note_on_c, 0, 79, 103
2, 21718, Note_on_c, 0, 79, 0
2, 21720, Note_on_c, 0, 80, 107
2, 21749, Note_on_c, 0, 80, 0
2, 21750, Note_on_c, 0, 89, 104
2, 21777, Note_on_c, 0, 89, 0
2, 21780, Note_on_c, 0, 87, 108
2, 21780, Control_c, 0, 64, 127
2, 21809, Note_on_c, 0, 87, 0
2, 21810, Note_on_c, 0, 85, 103
2, 21837, Note_on_c, 0, 85, 0
2, 21840, Note_on_c, 0, 84, 106
2, 21869, Note_on_c, 0, 84, 0
2, 21870, Note_on_c, 0, 82, 101
2, 21898, Note_on_c, 0, 82, 0
2, 21900, Note_on_c, 0, 80, 103
2, 21900, Control_c, 0, 64, 0
2, 21930, Note_on_c, 0, 80, 0
2, 21930, Note_on_c, 0, 78, 97
2, 21957, Note_on_c, 0, 78, 0
2, 21960, Note_on_c, 0, 77, 95
2, 21987, Note_on_c, 0, 77, 0
2, 21990, Note_on_c, 0, 75, 96
2, 22019, Note_on_c, 0, 75, 0
2, 22020, Note_on_c, 0, 73, 92
2, 22048, Note_on_c, 0, 73, 0
2, 22050, Note_on_c, 0, 72, 94
2, 22079, Note_on_c, 0, 72, 0
2, 22080, Note_on_c, 0, 70, 88
2, 22107, Note_on_c, 0, 70, 0
2, 22110, Note_on_c, 0, 68, 89
2, 22139, Note_on_c, 0, 68, 0
2, 22140, Note_on_c, 0, 69, 83
2, 22167, Note_on_c, 0, 69, 0
2, 22170, Note_on_c, 0, 72, 87
2, 22199, Note_on_c, 0, 72, 0
2, 22200, Note_on_c, 0, 70, 82
2, 22228, Note_on_c, 0, 70, 0
2, 22230, Note_on_c, 0, 65, 84
2, 22260, Note_on_c, 0, 65, 0
2, 22260, Note_on_c, 0, 66, 84
2, 22287, Note_on_c, 0, 66, 0
2, 22290, Note_on_c, 0, 60, 84
2, 22317, Note_on_c, 0, 60, 0
2, 22320, Note_on_c, 0, 61, 88
2, 22379, Note_on_c, 0, 61, 0
2, 22440, Note_on_c, 0, 77, 88
2, 22518, Note_on_c, 0, 77, 0
2, 22520, Note_on_c, 0, 78, 93
2, 22539, Note_on_c, 0, 78, 0
2, 22540, Note_on_c, 0, 77, 90
2, 22557, Note_on_c, 0, 77, 0
2, 22560, Note_on_c, 0, 76, 93
2, 22589, Note_on_c, 0, 76, 0
2, 22590, Note_on_c, 0, 77, 90
2, 22617, Note_on_c, 0, 77, 0
2, 22620, Note_on_c, 0, 80, 95
2, 22649, Note_on_c, 0, 80, 0
2, 22650, Note_on_c, 0, 78, 93
2, 22678, Note_on_c, 0, 78, 0
2, 22680, Note_on_c, 0, 77, 98
2, 22710, Note_on_c, 0, 77, 0
2, 22710, Note_on_c, 0, 78, 93
2, 22737, Note_on_c, 0, 78, 0
2, 22740, Note_on_c, 0, 77, 94
2, 22767, Note_on_c, 0, 77, 0
2, 22770, Note_on_c, 0, 76, 98
2, 22799, Note_on_c, 0, 76, 0
2, 22800, Note_on_c, 0, 77, 96
2, 22828, Note_on_c, 0, 77, 0
2, 22830, Note_on_c, 0, 82, 100
2, 22859, Note_on_c, 0, 82, 0
2, 22860, Note_on_c, 0, 80, 97
2, 22877, Note_on_c, 0, 80, 0
2, 22880, Note_on_c, 0, 82, 100
2, 22899, Note_on_c, 0, 82, 0
2, 22900, Note_on_c, 0, 80, 97
2, 22917, Note_on_c, 0, 80, 0
2, 22920, Note_on_c, 0, 79, 102
2, 22949, Note_on_c, 0, 79, 0
2, 22950, Note_on_c, 0, 80, 100
2, 22978, Note_on_c, 0, 80, 0
2, 22980, Note_on_c, 0, 84, 104
2, 23010, Note_on_c, 0, 84, 0
2, 23010, Note_on_c, 0, 82, 100
2, 23037, Note_on_c, 0, 82, 0
2, 23040, Note_on_c, 0, 80, 101
2, 23067, Note_on_c, 0, 80, 0
2, 23070, Note_on_c, 0, 82, 104
2, 23099, Note_on_c, 0, 82, 0
2, 23100, Note_on_c, 0, 80, 103
2, 23128, Note_on_c, 0, 80, 0
2, 23130, Note_on_c, 0, 79, 107
2, 23159, Note_on_c, 0, 79, 0
2, 23160, Note_on_c, 0, 80, 103
2, 23187, Note_on_c, 0, 80, 0
2, 23190, Note_on_c, 0, 85, 107
2, 23219, Note_on_c, 0, 85, 0
2, 23220, Note_on_c, 0, 84, 104
2, 23247, Note_on_c, 0, 84, 0
2, 23250, Note_on_c, 0, 82, 108
2, 23279, Note_on_c, 0, 82, 0
2, 23280, Note_on_c, 0, 80, 103
2, 23308, Note_on_c, 0, 80, 0
2, 23310, Note_on_c, 0, 78, 106
2, 23340, Note_on_c, 0, 78, 0
2, 23340, Note_on_c, 0, 77, 99
2, 23367, Note_on_c, 0, 77, 0
2, 23370, Note_on_c, 0, 75, 98
2, 23397, Note_on_c, 0, 75, 0
2, 23400, Note_on_c, 0, 73, 99
2, 23429, Note_on_c, 0, 73, 0
2, 23430, Note_on_c, 0, 72, 96
2, 23458, Note_on_c, 0, 72, 0
2, 23460, Note_on_c, 0, 70, 97
2, 23489, Note_on_c, 0, 70, 0
2, 23490, Note_on_c, 0, 68, 92
2, 23517, Note_on_c, 0, 68, 0
2, 23520, Note_on_c, 0, 66, 93
2, 23549, Note_on_c, 0, 66, 0
2, 23550, Note_on_c, 0, 65, 88
2, 23577, Note_on_c, 0, 65, 0
2, 23580, Note_on_c, 0, 63, 91
2, 23609, Note_on_c, 0, 63, 0
2, 23610, Note_on_c, 0, 61, 87
2, 23638, Note_on_c, 0, 61, 0
2, 23640, Note_on_c, 0, 60, 85
2, 23670, Note_on_c, 0, 60, 0
2, 23670, Note_on_c, 0, 63, 80
2, 23697, Note_on_c, 0, 63, 0
2, 23700, Note_on_c, 0, 70, 81
2, 23727, Note_on_c, 0, 70, 0
2, 23730, Note_on_c, 0, 68, 85
2, 23759, Note_on_c, 0, 68, 0
2, 23760, Note_on_c, 0, 67, 84
2, 23788, Note_on_c, 0, 67, 0
2, 23790, Note_on_c, 0, 68, 88
2, 23819, Note_on_c, 0, 68, 0
2, 23820, Note_on_c, 0, 70, 85
2, 23847, Note_on_c, 0, 70, 0
2, 23850, Note_on_c, 0, 72, 88
2, 23879, Note_on_c, 0, 72, 0
2, 23880, Note_on_c, 0, 73, 85
2, 23907, Note_on_c, 0, 73, 0
2, 23910, Note_on_c, 0, 75, 91
2, 23939, Note_on_c, 0, 75, 0
2, 23940, Note_on_c, 0, 77, 89
2, 23958, Note_on_c, 0, 77, 0
2, 23960, Note_on_c, 0, 78, 92
2, 23980, Note_on_c, 0, 78, 0
2, 23980, Note_on_c, 0, 77, 89
2, 23997, Note_on_c, 0, 77, 0
2, 24000, Note_on_c, 0, 76, 90
2, 24027, Note_on_c, 0, 76, 0
2, 24030, Note_on_c, 0, 77, 94
2, 24059, Note_on_c, 0, 77, 0
2, 24060, Note_on_c, 0, 80, 92
2, 24088, Note_on_c, 0, 80, 0
2, 24090, Note_on_c, 0, 78, 96
2, 24119, Note_on_c, 0, 78, 0
2, 24120, Note_on_c, 0, 77, 93
2, 24147, Note_on_c, 0, 77, 0
2, 24150, Note_on_c, 0, 78, 97
2, 24179, Note_on_c, 0, 78, 0
2, 24180, Note_on_c, 0, 77, 94
2, 24207, Note_on_c, 0, 77, 0
2, 24210, Note_on_c, 0, 76, 100
2, 24239, Note_on_c, 0, 76, 0
2, 24240, Note_on_c, 0, 77, 98
2, 24268, Note_on_c, 0, 77, 0
2, 24270, Note_on_c, 0, 82, 102
2, 24300, Note_on_c, 0, 82, 0
2, 24300, Note_on_c, 0, 80, 98
2, 24317, Note_on_c, 0, 80, 0
2, 24320, Note_on_c, 0, 82, 99
2, 24337, Note_on_c, 0, 82, 0
2, 24340, Note_on_c, 0, 80, 102
2, 24359, Note_on_c, 0, 80, 0
2, 24360, Note_on_c, 0, 79, 101
2, 24388, Note_on_c, 0, 79, 0
2, 24390, Note_on_c, 0, 80, 105
2, 24419, Note_on_c, 0, 80, 0
2, 24420, Note_on_c, 0, 84, 102
2, 24447, Note_on_c, 0, 84, 0
2, 24450, Note_on_c, 0, 82, 106
2, 24479, Note_on_c, 0, 82, 0
2, 24480, Note_on_c, 0, 80, 102
2, 24507, Note_on_c, 0, 80, 0
2, 24510, Note_on_c, 0, 82, 108
2, 24539, Note_on_c, 0, 82, 0
2, 24540, Note_on_c, 0, 80, 106
2, 24568, Note_on_c, 0, 80, 0
2, 24570, Note_on_c, 0, 79, 111
2, 24600, Note_on_c, 0, 79, 0
2, 24600, Note_on_c, 0, 80, 107
2, 24627, Note_on_c, 0, 80, 0
2, 24630, Note_on_c, 0, 101, 109
2, 24657, Note_on_c, 0, 101, 0
2, 24660, Note_on_c, 0, 99, 114
2, 24660, Control_c, 0, 64, 127
2, 24681, Note_on_c, 0, 99, 0
2, 24682, Note_on_c, 0, 97, 114
2, 24702, Note_on_c, 0, 97, 0
2, 24705, Note_on_c, 0, 96, 113
2, 24727, Note_on_c, 0, 96, 0
2, 24727, Note_on_c, 0, 94, 105
2, 24747, Note_on_c, 0, 94, 0
2, 24750, Note_on_c, 0, 92, 106
2, 24771, Note_on_c, 0, 92, 0
2, 24772, Note_on_c, 0, 91, 101
2, 24780, Control_c, 0, 64, 0
2, 24791, Note_on_c, 0, 91, 0
2, 24795, Note_on_c, 0, 89, 104
2, 24817, Note_on_c, 0, 89, 0
2, 24817, Note_on_c, 0, 87, 100
2, 24837, Note_on_c, 0, 87, 0
2, 24840, Note_on_c, 0, 85, 102
2, 24862, Note_on_c, 0, 85, 0
2, 24862, Note_on_c, 0, 84, 95
2, 24882, Note_on_c, 0, 84, 0
2, 24885, Note_on_c, 0, 82, 94
2, 24905, Note_on_c, 0, 82, 0
2, 24907, Note_on_c, 0, 80, 95
2, 24928, Note_on_c, 0, 80, 0
2, 24930, Note_on_c, 0, 78, 92
2, 24950, Note_on_c, 0, 78, 0
2, 24952, Note_on_c, 0, 77, 93
2, 24974, Note_on_c, 0, 77, 0
2, 24975, Note_on_c, 0, 75, 88
2, 24995, Note_on_c, 0, 75, 0
2, 24997, Note_on_c, 0, 73, 89
2, 25018, Note_on_c, 0, 73, 0
2, 25020, Note_on_c, 0, 72, 88
2, 25020, Control_c, 0, 64, 127
2, 25039, Note_on_c, 0, 72, 0
2, 25042, Note_on_c, 0, 70, 94
2, 25063, Note_on_c, 0, 70, 0
2, 25065, Note_on_c, 0, 69, 92
2, 25085, Note_on_c, 0, 69, 0
2, 25087, Note_on_c, 0, 72, 97
2, 25109, Note_on_c, 0, 72, 0
2, 25110, Note_on_c, 0, 70, 94
2, 25129, Note_on_c, 0, 70, 0
2, 25132, Note_on_c, 0, 65, 95
2, 25140, Control_c, 0, 64, 0
2, 25151, Note_on_c, 0, 65, 0
2, 25155, Note_on_c, 0, 66, 99
2, 25176, Note_on_c, 0, 66, 0
2, 25178, Note_on_c, 0, 60, 98
2, 25198, Note_on_c, 0, 60, 0
2, 25200, Note_on_c, 0, 61, 103
2, 25200, Control_c, 0, 64, 127
2, 25340, Note_on_c, 0, 61, 0
2, 25571, Control_c, 0, 64, 0
2, 25571, End_track
3, 0, Start_track
3, 0, MIDI_port, 0
3, 0, Title_t, "L hand"
3, 0, Program_c, 1, 0
3, 0, Control_c, 1, 7, 116
3, 0, Control_c, 1, 10, 50
3, 900, Note_on_c, 1, 49, 49
3, 900, Control_c, 1, 64, 127
3, 949, Note_on_c, 1, 49, 0
3, 960, Note_on_c, 1, 65, 53
3, 960, Note_on_c, 1, 61, 51
3, 960, Note_on_c, 1, 56, 54
3, 960, Control_c, 1, 64, 0
3, 1009, Note_on_c, 1, 61, 0
3, 1010, Note_on_c, 1, 56, 0
3, 1010, Note_on_c, 1, 65, 0
3, 1020, Note_on_c, 1, 65, 51
3, 1020, Note_on_c, 1, 61, 54
3, 1020, Note_on_c, 1, 56, 50
3, 1068, Note_on_c, 1, 56, 0
3, 1068, Note_on_c, 1, 65, 0
3, 1070, Note_on_c, 1, 61, 0
3, 1080, Note_on_c, 1, 53, 56
3, 1080, Control_c, 1, 64, 127
3, 1130, Note_on_c, 1, 53, 0
3, 1140, Note_on_c, 1, 65, 54
3, 1140, Note_on_c, 1, 61, 58
3, 1140, Note_on_c, 1, 56, 53
3, 1140, Control_c, 1, 64, 0
3, 1188, Note_on_c, 1, 56, 0
3, 1189, Note_on_c, 1, 65, 0
3, 1191, Note_on_c, 1, 61, 0
3, 1200, Note_on_c, 1, 65, 54
3, 1200, Note_on_c, 1, 61, 57
3, 1200, Note_on_c, 1, 56, 55
3, 1248, Note_on_c, 1, 65, 0
3, 1249, Note_on_c, 1, 56, 0
3, 1250, Note_on_c, 1, 61, 0
3, 1260, Note_on_c, 1, 49, 59
3, 1260, Control_c, 1, 64, 127
3, 1310, Note_on_c, 1, 49, 0
3, 1320, Note_on_c, 1, 65, 56
3, 1320, Note_on_c, 1, 61, 59
3, 1320, Note_on_c, 1, 56, 55
3, 1320, Control_c, 1, 64, 0
3, 1368, Note_on_c, 1, 56, 0
3, 1368, Note_on_c, 1, 65, 0
3, 1370, Note_on_c, 1, 61, 0
3, 1380, Note_on_c, 1, 65, 61
3, 1380, Note_on_c, 1, 61, 58
3, 1380, Note_on_c, 1, 56, 62
3, 1429, Note_on_c, 1, 61, 0
3, 1430, Note_on_c, 1, 65, 0
3, 1431, Note_on_c, 1, 56, 0
3, 1440, Note_on_c, 1, 53, 58
3, 1440, Control_c, 1, 64, 127
3, 1488, Note_on_c, 1, 53, 0
3, 1500, Note_on_c, 1, 65, 59
3, 1500, Note_on_c, 1, 61, 62
3, 1500, Note_on_c, 1, 56, 60
3, 1500, Control_c, 1, 64, 0
3, 1548, Note_on_c, 1, 65, 0
3, 1549, Note_on_c, 1, 56, 0
3, 1550, Note_on_c, 1, 61, 0
3, 1560, Note_on_c, 1, 65, 64
3, 1560, Note_on_c, 1, 61, 60
3, 1560, Note_on_c, 1, 56, 63
3, 1608, Note_on_c, 1, 61, 0
3, 1610, Note_on_c, 1, 56, 0
3, 1610, Note_on_c, 1, 65, 0
3, 1620, Note_on_c, 1, 44, 60
3, 1620, Control_c, 1, 64, 127
3, 1668, Note_on_c, 1, 44, 0
3, 1680, Note_on_c, 1, 60, 61
3, 1680, Note_on_c, 1, 66, 58
3, 1680, Note_on_c, 1, 56, 62
3, 1729, Note_on_c, 1, 66, 0
3, 1730, Note_on_c, 1, 60, 0
3, 1731, Note_on_c, 1, 56, 0
3, 1740, Note_on_c, 1, 66, 53
3, 1740, Note_on_c, 1, 60, 53
3, 1740, Note_on_c, 1, 56, 56
3, 1740, Control_c, 1, 64, 0
3, 1788, Note_on_c, 1, 60, 0
3, 1788, Note_on_c, 1, 66, 0
3, 1790, Note_on_c, 1, 56, 0
3, 1800, Note_on_c, 1, 51, 50
3, 1849, Note_on_c, 1, 51, 0
3, 1860, Note_on_c, 1, 66, 49
3, 1860, Note_on_c, 1, 60, 45
3, 1860, Note_on_c, 1, 56, 48
3, 1908, Note_on_c, 1, 60, 0
3, 1910, Note_on_c, 1, 56, 0
3, 1910, Note_on_c, 1, 66, 0
3, 1920, Note_on_c, 1, 66, 60
3, 1920, Note_on_c, 1, 60, 65
3, 1920, Note_on_c, 1, 56, 62
3, 1968, Note_on_c, 1, 66, 0
3, 1969, Note_on_c, 1, 56, 0
3, 1970, Note_on_c, 1, 60, 0
3, 1980, Note_on_c, 1, 44, 64
3, 1980, Control_c, 1, 64, 127
3, 2031, Note_on_c, 1, 44, 0
3, 2040, Note_on_c, 1, 66, 56
3, 2040, Note_on_c, 1, 60, 56
3, 2088, Note_on_c, 1, 60, 0
3, 2088, Note_on_c, 1, 66, 0
3, 2100, Note_on_c, 1, 66, 56
3, 2100, Note_on_c, 1, 60, 54
3, 2149, Note_on_c, 1, 60, 0
3, 2150, Note_on_c, 1, 66, 0
3, 2160, Note_on_c, 1, 56, 54
3, 2160, Control_c, 1, 64, 0
3, 2210, Note_on_c, 1, 56, 0
3, 2220, Note_on_c, 1, 66, 47
3, 2220, Note_on_c, 1, 60, 50
3, 2268, Note_on_c, 1, 66, 0
3, 2270, Note_on_c, 1, 60, 0
3, 2280, Note_on_c, 1, 66, 43
3, 2280, Note_on_c, 1, 60, 48
3, 2328, Note_on_c, 1, 66, 0
3, 2330, Note_on_c, 1, 60, 0
3, 2340, Note_on_c, 1, 49, 42
3, 2340, Control_c, 1, 64, 127
3, 2389, Note_on_c, 1, 49, 0
3, 2400, Note_on_c, 1, 65, 47
3, 2400, Note_on_c, 1, 61, 42
3, 2400, Note_on_c, 1, 56, 42
3, 2400, Control_c, 1, 64, 0
3, 2448, Note_on_c, 1, 56, 0
3, 2448, Note_on_c, 1, 61, 0
3, 2451, Note_on_c, 1, 65, 0
3, 2460, Note_on_c, 1, 65, 47
3, 2460, Note_on_c, 1, 61, 45
3, 2460, Note_on_c, 1, 56, 48
3, 2509, Note_on_c, 1, 61, 0
3, 2510, Note_on_c, 1, 65, 0
3, 2511, Note_on_c, 1, 56, 0
3, 2520, Note_on_c, 1, 53, 46
3, 2520, Control_c, 1, 64, 127
3, 2569, Note_on_c, 1, 53, 0
3, 2580, Note_on_c, 1, 65, 50
3, 2580, Note_on_c, 1, 61, 46
3, 2580, Note_on_c, 1, 56, 51
3, 2580, Control_c, 1, 64, 0
3, 2629, Note_on_c, 1, 61, 0
3, 2631, Note_on_c, 1, 56, 0
3, 2631, Note_on_c, 1, 65, 0
3, 2640, Note_on_c, 1, 65, 50
3, 2640, Note_on_c, 1, 61, 54
3, 2640, Note_on_c, 1, 56, 49
3, 2689, Note_on_c, 1, 56, 0
3, 2690, Note_on_c, 1, 65, 0
3, 2692, Note_on_c, 1, 61, 0
3, 2700, Note_on_c, 1, 49, 51
3, 2700, Control_c, 1, 64, 127
3, 2749, Note_on_c, 1, 49, 0
3, 2760, Note_on_c, 1, 65, 55
3, 2760, Note_on_c, 1, 61, 53
3, 2760, Note_on_c, 1, 56, 56
3, 2760, Control_c, 1, 64, 0
3, 2811, Note_on_c, 1, 61, 0
3, 2812, Note_on_c, 1, 56, 0
3, 2812, Note_on_c, 1, 65, 0
3, 2820, Note_on_c, 1, 65, 54
3, 2820, Note_on_c, 1, 61, 57
3, 2820, Note_on_c, 1, 56, 53
3, 2870, Note_on_c, 1, 56, 0
3, 2870, Note_on_c, 1, 65, 0
3, 2872, Note_on_c, 1, 61, 0
3, 2880, Note_on_c, 1, 53, 60
3, 2880, Control_c, 1, 64, 127
3, 2932, Note_on_c, 1, 53, 0
3, 2940, Note_on_c, 1, 65, 58
3, 2940, Note_on_c, 1, 61, 62
3, 2940, Note_on_c, 1, 56, 57
3, 2940, Control_c, 1, 64, 0
3, 2990, Note_on_c, 1, 56, 0
3, 2991, Note_on_c, 1, 65, 0
3, 2993, Note_on_c, 1, 61, 0
3, 3000, Note_on_c, 1, 56, 59
3, 3000, Note_on_c, 1, 61, 62
3, 3000, Note_on_c, 1, 65, 60
3, 3050, Note_on_c, 1, 56, 0
3, 3051, Note_on_c, 1, 65, 0
3, 3052, Note_on_c, 1, 61, 0
3, 3060, Note_on_c, 1, 44, 65
3, 3060, Control_c, 1, 64, 127
3, 3112, Note_on_c, 1, 44, 0
3, 3120, Note_on_c, 1, 66, 59
3, 3120, Note_on_c, 1, 60, 62
3, 3120, Note_on_c, 1, 56, 58
3, 3170, Note_on_c, 1, 56, 0
3, 3170, Note_on_c, 1, 66, 0
3, 3172, Note_on_c, 1, 60, 0
3, 3180, Note_on_c, 1, 66, 61
3, 3180, Note_on_c, 1, 60, 58
3, 3180, Note_on_c, 1, 56, 62
3, 3180, Control_c, 1, 64, 0
3, 3231, Note_on_c, 1, 60, 0
3, 3232, Note_on_c, 1, 66, 0
3, 3233, Note_on_c, 1, 56, 0
3, 3240, Note_on_c, 1, 51, 55
3, 3290, Note_on_c, 1, 51, 0
3, 3300, Note_on_c, 1, 66, 53
3, 3300, Note_on_c, 1, 60, 56
3, 3300, Note_on_c, 1, 56, 54
3, 3350, Note_on_c, 1, 66, 0
3, 3351, Note_on_c, 1, 56, 0
3, 3352, Note_on_c, 1, 60, 0
3, 3360, Note_on_c, 1, 66, 54
3, 3360, Note_on_c, 1, 60, 50
3, 3360, Note_on_c, 1, 56, 53
3, 3410, Note_on_c, 1, 60, 0
3, 3412, Note_on_c, 1, 56, 0
3, 3412, Note_on_c, 1, 66, 0
3, 3420, Note_on_c, 1, 44, 47
3, 3420, Control_c, 1, 64, 127
3, 3470, Note_on_c, 1, 44, 0
3, 3480, Note_on_c, 1, 66, 50
3, 3480, Note_on_c, 1, 60, 47
3, 3480, Note_on_c, 1, 56, 51
3, 3531, Note_on_c, 1, 60, 0
3, 3532, Note_on_c, 1, 66, 0
3, 3533, Note_on_c, 1, 56, 0
3, 3540, Note_on_c, 1, 66, 44
3, 3540, Note_on_c, 1, 60, 44
3, 3540, Note_on_c, 1, 56, 47
3, 3540, Control_c, 1, 64, 0
3, 3590, Note_on_c, 1, 60, 0
3, 3590, Note_on_c, 1, 66, 0
3, 3592, Note_on_c, 1, 56, 0
3, 3600, Note_on_c, 1, 56, 43
3, 3651, Note_on_c, 1, 56, 0
3, 3660, Note_on_c, 1, 66, 47
3, 3660, Note_on_c, 1, 60, 43
3, 3710, Note_on_c, 1, 60, 0
3, 3712, Note_on_c, 1, 66, 0
3, 3720, Note_on_c, 1, 44, 57
3, 3775, Note_on_c, 1, 44, 0
3, 3780, Note_on_c, 1, 45, 65
3, 3780, Control_c, 1, 64, 127
3, 3834, Note_on_c, 1, 45, 0
3, 3840, Note_on_c, 1, 63, 51
3, 3840, Note_on_c, 1, 60, 48
3, 3840, Note_on_c, 1, 53, 52
3, 3840, Control_c, 1, 64, 0
3, 3891, Note_on_c, 1, 60, 0
3, 3892, Note_on_c, 1, 63, 0
3, 3893, Note_on_c, 1, 53, 0
3, 3900, Note_on_c, 1, 53, 49
3, 3900, Note_on_c, 1, 60, 49
3, 3900, Note_on_c, 1, 63, 52
3, 3950, Note_on_c, 1, 60, 0
3, 3950, Note_on_c, 1, 53, 0
3, 3952, Note_on_c, 1, 63, 0
3, 3960, Note_on_c, 1, 46, 51
3, 3960, Control_c, 1, 64, 127
3, 4011, Note_on_c, 1, 46, 0
3, 4020, Note_on_c, 1, 61, 55
3, 4020, Note_on_c, 1, 53, 51
3, 4020, Control_c, 1, 64, 0
3, 4070, Note_on_c, 1, 53, 0
3, 4072, Note_on_c, 1, 61, 0
3, 4080, Note_on_c, 1, 61, 56
3, 4080, Note_on_c, 1, 53, 52
3, 4130, Note_on_c, 1, 53, 0
3, 4132, Note_on_c, 1, 61, 0
3, 4140, Note_on_c, 1, 48, 58
3, 4140, Control_c, 1, 64, 127
3, 4192, Note_on_c, 1, 48, 0
3, 4200, Note_on_c, 1, 66, 57
3, 4200, Note_on_c, 1, 63, 61
3, 4200, Note_on_c, 1, 56, 56
3, 4200, Control_c, 1, 64, 0
3, 4250, Note_on_c, 1, 56, 0
3, 4251, Note_on_c, 1, 66, 0
3, 4253, Note_on_c, 1, 63, 0
3, 4260, Note_on_c, 1, 66, 57
3, 4260, Note_on_c, 1, 63, 60
3, 4260, Note_on_c, 1, 56, 58
3, 4310, Note_on_c, 1, 66, 0
3, 4311, Note_on_c, 1, 56, 0
3, 4312, Note_on_c, 1, 63, 0
3, 4320, Note_on_c, 1, 49, 62
3, 4320, Control_c, 1, 64, 127
3, 4372, Note_on_c, 1, 49, 0
3, 4380, Note_on_c, 1, 65, 67
3, 4380, Note_on_c, 1, 56, 66
3, 4380, Control_c, 1, 64, 0
3, 4439, Note_on_c, 1, 56, 0
3, 4439, Note_on_c, 1, 65, 0
3, 4500, Note_on_c, 1, 54, 60
3, 4500, Control_c, 1, 64, 127
3, 4550, Note_on_c, 1, 54, 0
3, 4560, Note_on_c, 1, 63, 67
3, 4560, Note_on_c, 1, 58, 64
3, 4560, Control_c, 1, 64, 0
3, 4618, Note_on_c, 1, 58, 0
3, 4619, Note_on_c, 1, 63, 0
3, 4680, Note_on_c, 1, 44, 59
3, 4680, Control_c, 1, 64, 127
3, 4733, Note_on_c, 1, 44, 0
3, 4740, Note_on_c, 1, 61, 51
3, 4740, Note_on_c, 1, 56, 51
3, 4740, Note_on_c, 1, 53, 54
3, 4740, Control_c, 1, 64, 0
3, 4790, Note_on_c, 1, 56, 0
3, 4790, Note_on_c, 1, 61, 0
3, 4792, Note_on_c, 1, 53, 0
3, 4860, Note_on_c, 1, 44, 47
3, 4860, Control_c, 1, 64, 127
3, 4911, Note_on_c, 1, 44, 0
3, 4920, Note_on_c, 1, 56, 48
3, 4920, Note_on_c, 1, 54, 44
3, 4920, Control_c, 1, 64, 0
3, 4970, Note_on_c, 1, 54, 0
3, 4972, Note_on_c, 1, 56, 0
3, 4980, Note_on_c, 1, 60, 48
3, 4980, Note_on_c, 1, 56, 44
3, 4980, Note_on_c, 1, 54, 49
3, 5030, Note_on_c, 1, 56, 0
3, 5032, Note_on_c, 1, 54, 0
3, 5032, Note_on_c, 1, 60, 0
3, 5040, Note_on_c, 1, 49, 51
3, 5040, Control_c, 1, 64, 127
3, 5097, Note_on_c, 1, 49, 0
3, 5100, Note_on_c, 1, 65, 58
3, 5100, Note_on_c, 1, 61, 57
3, 5100, Note_on_c, 1, 56, 57
3, 5100, Control_c, 1, 64, 0
3, 5158, Note_on_c, 1, 56, 0
3, 5159, Note_on_c, 1, 61, 0
3, 5159, Note_on_c, 1, 65, 0
3, 5220, Note_on_c, 1, 56, 52
3, 5280, Note_on_c, 1, 65, 52
3, 5280, Note_on_c, 1, 63, 55
3, 5331, Note_on_c, 1, 65, 0
3, 5332, Note_on_c, 1, 63, 0
3, 5340, Note_on_c, 1, 63, 52
3, 5340, Note_on_c, 1, 65, 55
3, 5390, Note_on_c, 1, 63, 0
3, 5392, Note_on_c, 1, 65, 0
3, 5392, Note_on_c, 1, 56, 0
3, 5400, Note_on_c, 1, 58, 52
3, 5460, Note_on_c, 1, 65, 58
3, 5460, Note_on_c, 1, 61, 55
3, 5511, Note_on_c, 1, 61, 0
3, 5512, Note_on_c, 1, 65, 0
3, 5520, Note_on_c, 1, 65, 60
3, 5520, Note_on_c, 1, 61, 55
3, 5570, Note_on_c, 1, 61, 0
3, 5570, Note_on_c, 1, 58, 0
3, 5573, Note_on_c, 1, 65, 0
3, 5580, Note_on_c, 1, 60, 56
3, 5630, Note_on_c, 1, 60, 0
3, 5640, Note_on_c, 1, 68, 61
3, 5640, Note_on_c, 1, 66, 59
3, 5691, Note_on_c, 1, 66, 0
3, 5692, Note_on_c, 1, 68, 0
3, 5700, Note_on_c, 1, 68, 63
3, 5700, Note_on_c, 1, 66, 59
3, 5750, Note_on_c, 1, 66, 0
3, 5752, Note_on_c, 1, 68, 0
3, 5760, Note_on_c, 1, 61, 63
3, 5812, Note_on_c, 1, 61, 0
3, 5820, Note_on_c, 1, 68, 60
3, 5820, Note_on_c, 1, 65, 65
3, 5870, Note_on_c, 1, 68, 0
3, 5872, Note_on_c, 1, 65, 0
3, 5940, Note_on_c, 1, 54, 63
3, 5940, Control_c, 1, 64, 127
3, 5991, Note_on_c, 1, 54, 0
3, 6000, Note_on_c, 1, 70, 65
3, 6000, Note_on_c, 1, 63, 60
3, 6000, Note_on_c, 1, 61, 60
3, 6050, Note_on_c, 1, 61, 0
3, 6050, Note_on_c, 1, 63, 0
3, 6053, Note_on_c, 1, 70, 0
3, 6060, Control_c, 1, 64, 0
3, 6120, Note_on_c, 1, 44, 59
3, 6120, Control_c, 1, 64, 127
3, 6172, Note_on_c, 1, 44, 0
3, 6180, Note_on_c, 1, 61, 55
3, 6180, Note_on_c, 1, 56, 58
3, 6180, Note_on_c, 1, 53, 54
3, 6180, Control_c, 1, 64, 0
3, 6230, Note_on_c, 1, 53, 0
3, 6231, Note_on_c, 1, 61, 0
3, 6232, Note_on_c, 1, 56, 0
3, 6300, Note_on_c, 1, 44, 53
3, 6352, Note_on_c, 1, 44, 0
3, 6360, Note_on_c, 1, 56, 47
3, 6360, Note_on_c, 1, 54, 52
3, 6410, Note_on_c, 1, 56, 0
3, 6412, Note_on_c, 1, 54, 0
3, 6420, Note_on_c, 1, 56, 47
3, 6420, Note_on_c, 1, 54, 51
3, 6471, Note_on_c, 1, 56, 0
3, 6473, Note_on_c, 1, 54, 0
3, 6480, Note_on_c, 1, 49, 43
3, 6480, Control_c, 1, 64, 127
3, 6530, Note_on_c, 1, 49, 0
3, 6540, Note_on_c, 1, 65, 44
3, 6540, Note_on_c, 1, 56, 47
3, 6540, Control_c, 1, 64, 0
3, 6590, Note_on_c, 1, 65, 0
3, 6592, Note_on_c, 1, 56, 0
3, 6660, Note_on_c, 1, 45, 48
3, 6660, Control_c, 1, 64, 127
3, 6711, Note_on_c, 1, 45, 0
3, 6720, Note_on_c, 1, 63, 52
3, 6720, Note_on_c, 1, 60, 48
3, 6720, Note_on_c, 1, 53, 51
3, 6720, Control_c, 1, 64, 0
3, 6770, Note_on_c, 1, 60, 0
3, 6772, Note_on_c, 1, 53, 0
3, 6772, Note_on_c, 1, 63, 0
3, 6780, Note_on_c, 1, 60, 48
3, 6780, Note_on_c, 1, 63, 53
3, 6780, Note_on_c, 1, 53, 50
3, 6830, Note_on_c, 1, 60, 0
3, 6831, Note_on_c, 1, 53, 0
3, 6832, Note_on_c, 1, 63, 0
3, 6840, Note_on_c, 1, 46, 56
3, 6840, Control_c, 1, 64, 127
3, 6893, Note_on_c, 1, 46, 0
3, 6900, Note_on_c, 1, 61, 52
3, 6900, Note_on_c, 1, 53, 52
3, 6900, Control_c, 1, 64, 0
3, 6950, Note_on_c, 1, 53, 0
3, 6950, Note_on_c, 1, 61, 0
3, 6960, Note_on_c, 1, 61, 56
3, 6960, Note_on_c, 1, 53, 54
3, 7011, Note_on_c, 1, 53, 0
3, 7012, Note_on_c, 1, 61, 0
3, 7020, Note_on_c, 1, 48, 59
3, 7020, Control_c, 1, 64, 127
3, 7072, Note_on_c, 1, 48, 0
3, 7080, Note_on_c, 1, 66, 56
3, 7080, Note_on_c, 1, 63, 59
3, 7080, Note_on_c, 1, 56, 55
3, 7080, Control_c, 1, 64, 0
3, 7130, Note_on_c, 1, 56, 0
3, 7130, Note_on_c, 1, 66, 0
3, 7132, Note_on_c, 1, 63, 0
3, 7140, Note_on_c, 1, 66, 61
3, 7140, Note_on_c, 1, 63, 58
3, 7140, Note_on_c, 1, 56, 62
3, 7191, Note_on_c, 1, 63, 0
3, 7192, Note_on_c, 1, 66, 0
3, 7193, Note_on_c, 1, 56, 0
3, 7200, Note_on_c, 1, 49, 59
3, 7200, Control_c, 1, 64, 127
3, 7250, Note_on_c, 1, 49, 0
3, 7260, Note_on_c, 1, 65, 60
3, 7260, Note_on_c, 1, 56, 63
3, 7260, Control_c, 1, 64, 0
3, 7310, Note_on_c, 1, 65, 0
3, 7312, Note_on_c, 1, 56, 0
3, 7380, Note_on_c, 1, 54, 63
3, 7380, Control_c, 1, 64, 127
3, 7431, Note_on_c, 1, 54, 0
3, 7440, Note_on_c, 1, 63, 64
3, 7440, Note_on_c, 1, 58, 60
3, 7440, Control_c, 1, 64, 0
3, 7490, Note_on_c, 1, 58, 0
3, 7492, Note_on_c, 1, 63, 0
3, 7560, Note_on_c, 1, 44, 57
3, 7560, Control_c, 1, 64, 127
3, 7612, Note_on_c, 1, 44, 0
3, 7620, Note_on_c, 1, 61, 50
3, 7620, Note_on_c, 1, 56, 55
3, 7620, Note_on_c, 1, 53, 52
3, 7620, Control_c, 1, 64, 0
3, 7670, Note_on_c, 1, 61, 0
3, 7671, Note_on_c, 1, 53, 0
3, 7672, Note_on_c, 1, 56, 0
3, 7740, Note_on_c, 1, 44, 50
3, 7740, Control_c, 1, 64, 127
3, 7793, Note_on_c, 1, 44, 0
3, 7800, Note_on_c, 1, 56, 42
3, 7800, Note_on_c, 1, 54, 42
3, 7800, Control_c, 1, 64, 0
3, 7850, Note_on_c, 1, 54, 0
3, 7850, Note_on_c, 1, 56, 0
3, 7860, Note_on_c, 1, 60, 46
3, 7860, Note_on_c, 1, 56, 44
3, 7860, Note_on_c, 1, 54, 47
3, 7911, Note_on_c, 1, 56, 0
3, 7912, Note_on_c, 1, 54, 0
3, 7912, Note_on_c, 1, 60, 0
3, 7920, Note_on_c, 1, 49, 44
3, 7920, Control_c, 1, 64, 127
3, 7970, Note_on_c, 1, 49, 0
3, 7980, Note_on_c, 1, 61, 48
3, 7980, Note_on_c, 1, 65, 44
3, 7980, Note_on_c, 1, 56, 49
3, 7980, Control_c, 1, 64, 0
3, 8030, Note_on_c, 1, 65, 0
3, 8032, Note_on_c, 1, 56, 0
3, 8032, Note_on_c, 1, 61, 0
3, 8100, Note_on_c, 1, 56, 49
3, 8160, Note_on_c, 1, 65, 54
3, 8160, Note_on_c, 1, 63, 49
3, 8210, Note_on_c, 1, 63, 0
3, 8213, Note_on_c, 1, 65, 0
3, 8220, Note_on_c, 1, 63, 50
3, 8220, Note_on_c, 1, 65, 53
3, 8270, Note_on_c, 1, 63, 0
3, 8271, Note_on_c, 1, 56, 0
3, 8272, Note_on_c, 1, 65, 0
3, 8280, Note_on_c, 1, 58, 52
3, 8340, Note_on_c, 1, 65, 57
3, 8340, Note_on_c, 1, 61, 53
3, 8390, Note_on_c, 1, 61, 0
3, 8392, Note_on_c, 1, 65, 0
3, 8400, Note_on_c, 1, 65, 57
3, 8400, Note_on_c, 1, 61, 53
3, 8450, Note_on_c, 1, 61, 0
3, 8451, Note_on_c, 1, 58, 0
3, 8452, Note_on_c, 1, 65, 0
3, 8460, Note_on_c, 1, 60, 59
3, 8520, Note_on_c, 1, 68, 57
3, 8520, Note_on_c, 1, 66, 61
3, 8571, Note_on_c, 1, 68, 0
3, 8573, Note_on_c, 1, 66, 0
3, 8580, Note_on_c, 1, 68, 58
3, 8580, Note_on_c, 1, 66, 58
3, 8630, Note_on_c, 1, 66, 0
3, 8630, Note_on_c, 1, 68, 0
3, 8633, Note_on_c, 1, 60, 0
3, 8640, Note_on_c, 1, 61, 62
3, 8692, Note_on_c, 1, 61, 0
3, 8700, Note_on_c, 1, 68, 61
3, 8700, Note_on_c, 1, 65, 64
3, 8751, Note_on_c, 1, 68, 0
3, 8752, Note_on_c, 1, 65, 0
3, 8820, Note_on_c, 1, 54, 63
3, 8870, Note_on_c, 1, 54, 0
3, 8880, Note_on_c, 1, 70, 65
3, 8880, Note_on_c, 1, 63, 61
3, 8880, Note_on_c, 1, 61, 66
3, 8930, Note_on_c, 1, 63, 0
3, 8932, Note_on_c, 1, 61, 0
3, 8932, Note_on_c, 1, 70, 0
3, 9000, Note_on_c, 1, 44, 60
3, 9000, Control_c, 1, 64, 127
3, 9051, Note_on_c, 1, 44, 0
3, 9060, Note_on_c, 1, 61, 63
3, 9060, Note_on_c, 1, 56, 58
3, 9060, Note_on_c, 1, 53, 58
3, 9060, Control_c, 1, 64, 0
3, 9110, Note_on_c, 1, 53, 0
3, 9110, Note_on_c, 1, 56, 0
3, 9113, Note_on_c, 1, 61, 0
3, 9180, Note_on_c, 1, 44, 58
3, 9232, Note_on_c, 1, 44, 0
3, 9240, Note_on_c, 1, 56, 54
3, 9240, Note_on_c, 1, 54, 57
3, 9291, Note_on_c, 1, 56, 0
3, 9292, Note_on_c, 1, 54, 0
3, 9300, Note_on_c, 1, 56, 52
3, 9300, Note_on_c, 1, 54, 55
3, 9350, Note_on_c, 1, 56, 0
3, 9352, Note_on_c, 1, 54, 0
3, 9360, Note_on_c, 1, 49, 49
3, 9410, Note_on_c, 1, 49, 0
3, 9420, Note_on_c, 1, 65, 53
3, 9420, Note_on_c, 1, 56, 50
3, 9471, Note_on_c, 1, 56, 0
3, 9472, Note_on_c, 1, 65, 0
3, 9540, Note_on_c, 1, 44, 51
3, 9540, Control_c, 1, 64, 127
3, 9593, Note_on_c, 1, 44, 0
3, 9600, Note_on_c, 1, 60, 44
3, 9600, Note_on_c, 1, 56, 44
3, 9600, Note_on_c, 1, 54, 47
3, 9651, Note_on_c, 1, 56, 0
3, 9651, Note_on_c, 1, 60, 0
3, 9652, Note_on_c, 1, 54, 0
3, 9660, Note_on_c, 1, 60, 44
3, 9660, Note_on_c, 1, 56, 47
3, 9660, Note_on_c, 1, 54, 43
3, 9711, Note_on_c, 1, 54, 0
3, 9711, Note_on_c, 1, 60, 0
3, 9713, Note_on_c, 1, 56, 0
3, 9720, Note_on_c, 1, 60, 46
3, 9720, Note_on_c, 1, 56, 42
3, 9720, Note_on_c, 1, 54, 47
3, 9770, Note_on_c, 1, 56, 0
3, 9772, Note_on_c, 1, 60, 0
3, 9773, Note_on_c, 1, 54, 0
3, 9780, Note_on_c, 1, 60, 45
3, 9780, Note_on_c, 1, 56, 49
3, 9780, Note_on_c, 1, 54, 44
3, 9780, Control_c, 1, 64, 0
3, 9831, Note_on_c, 1, 54, 0
3, 9831, Note_on_c, 1, 60, 0
3, 9833, Note_on_c, 1, 56, 0
3, 9840, Note_on_c, 1, 60, 46
3, 9840, Note_on_c, 1, 56, 49
3, 9840, Note_on_c, 1, 54, 47
3, 9891, Note_on_c, 1, 54, 0
3, 9891, Note_on_c, 1, 60, 0
3, 9892, Note_on_c, 1, 56, 0
3, 9900, Note_on_c, 1, 49, 51
3, 9900, Control_c, 1, 64, 127
3, 9953, Note_on_c, 1, 49, 0
3, 9960, Note_on_c, 1, 61, 49
3, 9960, Note_on_c, 1, 56, 52
3, 10011, Note_on_c, 1, 61, 0
3, 10012, Note_on_c, 1, 56, 0
3, 10020, Note_on_c, 1, 61, 49
3, 10020, Note_on_c, 1, 56, 54
3, 10020, Control_c, 1, 64, 0
3, 10070, Note_on_c, 1, 61, 0
3, 10073, Note_on_c, 1, 56, 0
3, 10080, Note_on_c, 1, 44, 53
3, 10080, Control_c, 1, 64, 127
3, 10131, Note_on_c, 1, 44, 0
3, 10140, Note_on_c, 1, 65, 58
3, 10140, Note_on_c, 1, 61, 53
3, 10140, Note_on_c, 1, 56, 53
3, 10191, Note_on_c, 1, 56, 0
3, 10191, Note_on_c, 1, 61, 0
3, 10193, Note_on_c, 1, 65, 0
3, 10200, Note_on_c, 1, 65, 58
3, 10200, Note_on_c, 1, 61, 56
3, 10200, Note_on_c, 1, 56, 59
3, 10200, Control_c, 1, 64, 0
3, 10251, Note_on_c, 1, 61, 0
3, 10252, Note_on_c, 1, 65, 0
3, 10253, Note_on_c, 1, 56, 0
3, 10260, Note_on_c, 1, 51, 56
3, 10260, Control_c, 1, 64, 127
3, 10311, Note_on_c, 1, 51, 0
3, 10320, Note_on_c, 1, 66, 61
3, 10320, Note_on_c, 1, 60, 57
3, 10320, Note_on_c, 1, 56, 62
3, 10370, Note_on_c, 1, 60, 0
3, 10372, Note_on_c, 1, 66, 0
3, 10373, Note_on_c, 1, 56, 0
3, 10380, Note_on_c, 1, 66, 60
3, 10380, Note_on_c, 1, 60, 64
3, 10380, Note_on_c, 1, 56, 59
3, 10380, Control_c, 1, 64, 0
3, 10431, Note_on_c, 1, 56, 0
3, 10431, Note_on_c, 1, 66, 0
3, 10433, Note_on_c, 1, 60, 0
3, 10440, Note_on_c, 1, 44, 61
3, 10440, Control_c, 1, 64, 127
3, 10491, Note_on_c, 1, 44, 0
3, 10500, Note_on_c, 1, 63, 63
3, 10500, Note_on_c, 1, 66, 61
3, 10500, Note_on_c, 1, 56, 64
3, 10551, Note_on_c, 1, 66, 0
3, 10552, Note_on_c, 1, 63, 0
3, 10553, Note_on_c, 1, 56, 0
3, 10560, Note_on_c, 1, 63, 59
3, 10560, Note_on_c, 1, 66, 62
3, 10560, Note_on_c, 1, 56, 58
3, 10560, Control_c, 1, 64, 0
3, 10610, Note_on_c, 1, 56, 0
3, 10611, Note_on_c, 1, 63, 0
3, 10612, Note_on_c, 1, 66, 0
3, 10620, Note_on_c, 1, 49, 61
3, 10620, Control_c, 1, 64, 127
3, 10673, Note_on_c, 1, 49, 0
3, 10680, Note_on_c, 1, 65, 57
3, 10680, Note_on_c, 1, 61, 61
3, 10680, Note_on_c, 1, 56, 56
3, 10731, Note_on_c, 1, 56, 0
3, 10731, Note_on_c, 1, 65, 0
3, 10733, Note_on_c, 1, 61, 0
3, 10740, Note_on_c, 1, 65, 55
3, 10740, Note_on_c, 1, 61, 58
3, 10740, Note_on_c, 1, 56, 56
3, 10791, Note_on_c, 1, 56, 0
3, 10791, Note_on_c, 1, 65, 0
3, 10792, Note_on_c, 1, 61, 0
3, 10800, Note_on_c, 1, 53, 57
3, 10800, Control_c, 1, 64, 0
3, 10853, Note_on_c, 1, 53, 0
3, 10860, Note_on_c, 1, 65, 52
3, 10860, Note_on_c, 1, 61, 55
3, 10860, Note_on_c, 1, 56, 51
3, 10910, Note_on_c, 1, 56, 0
3, 10911, Note_on_c, 1, 65, 0
3, 10912, Note_on_c, 1, 61, 0
3, 10920, Note_on_c, 1, 65, 55
3, 10920, Note_on_c, 1, 61, 52
3, 10920, Note_on_c, 1, 56, 56
3, 10971, Note_on_c, 1, 61, 0
3, 10973, Note_on_c, 1, 56, 0
3, 10973, Note_on_c, 1, 65, 0
3, 10980, Note_on_c, 1, 48, 49
3, 10980, Control_c, 1, 64, 127
3, 11031, Note_on_c, 1, 48, 0
3, 11040, Note_on_c, 1, 56, 48
3, 11040, Note_on_c, 1, 54, 51
3, 11091, Note_on_c, 1, 56, 0
3, 11092, Note_on_c, 1, 54, 0
3, 11100, Note_on_c, 1, 56, 47
3, 11100, Note_on_c, 1, 54, 50
3, 11100, Control_c, 1, 64, 0
3, 11151, Note_on_c, 1, 56, 0
3, 11153, Note_on_c, 1, 54, 0
3, 11160, Note_on_c, 1, 44, 47
3, 11160, Control_c, 1, 64, 127
3, 11211, Note_on_c, 1, 44, 0
3, 11220, Note_on_c, 1, 60, 51
3, 11220, Note_on_c, 1, 56, 47
3, 11220, Note_on_c, 1, 54, 52
3, 11270, Note_on_c, 1, 56, 0
3, 11272, Note_on_c, 1, 60, 0
3, 11273, Note_on_c, 1, 54, 0
3, 11280, Note_on_c, 1, 60, 50
3, 11280, Note_on_c, 1, 56, 54
3, 11280, Note_on_c, 1, 54, 49
3, 11280, Control_c, 1, 64, 0
3, 11331, Note_on_c, 1, 54, 0
3, 11331, Note_on_c, 1, 60, 0
3, 11333, Note_on_c, 1, 56, 0
3, 11340, Note_on_c, 1, 49, 50
3, 11340, Control_c, 1, 64, 127
3, 11391, Note_on_c, 1, 49, 0
3, 11400, Note_on_c, 1, 61, 54
3, 11400, Note_on_c, 1, 56, 52
3, 11451, Note_on_c, 1, 56, 0
3, 11452, Note_on_c, 1, 61, 0
3, 11460, Note_on_c, 1, 61, 56
3, 11460, Note_on_c, 1, 56, 52
3, 11460, Control_c, 1, 64, 0
3, 11511, Note_on_c, 1, 56, 0
3, 11513, Note_on_c, 1, 61, 0
3, 11520, Note_on_c, 1, 47, 57
3, 11520, Control_c, 1, 64, 127
3, 11572, Note_on_c, 1, 47, 0
3, 11580, Note_on_c, 1, 65, 54
3, 11580, Note_on_c, 1, 61, 59
3, 11580, Note_on_c, 1, 56, 56
3, 11630, Note_on_c, 1, 65, 0
3, 11631, Note_on_c, 1, 56, 0
3, 11633, Note_on_c, 1, 61, 0
3, 11640, Note_on_c, 1, 65, 61
3, 11640, Note_on_c, 1, 61, 56
3, 11640, Note_on_c, 1, 56, 56
3, 11640, Control_c, 1, 64, 0
3, 11691, Note_on_c, 1, 56, 0
3, 11691, Note_on_c, 1, 61, 0
3, 11693, Note_on_c, 1, 65, 0
3, 11700, Note_on_c, 1, 48, 60
3, 11700, Control_c, 1, 64, 127
3, 11752, Note_on_c, 1, 48, 0
3, 11760, Note_on_c, 1, 65, 59
3, 11760, Note_on_c, 1, 60, 62
3, 11760, Note_on_c, 1, 56, 58
3, 11811, Note_on_c, 1, 56, 0
3, 11811, Note_on_c, 1, 65, 0
3, 11813, Note_on_c, 1, 60, 0
3, 11820, Note_on_c, 1, 65, 62
3, 11820, Note_on_c, 1, 60, 58
3, 11820, Note_on_c, 1, 56, 63
3, 11820, Control_c, 1, 64, 0
3, 11870, Note_on_c, 1, 60, 0
3, 11872, Note_on_c, 1, 65, 0
3, 11873, Note_on_c, 1, 56, 0
3, 11880, Note_on_c, 1, 36, 71
3, 11880, Control_c, 1, 64, 127
3, 11938, Note_on_c, 1, 36, 0
3, 11940, Note_on_c, 1, 55, 66
3, 11940, Note_on_c, 1, 64, 61
3, 11940, Note_on_c, 1, 60, 61
3, 11991, Note_on_c, 1, 60, 0
3, 11991, Note_on_c, 1, 64, 0
3, 11993, Note_on_c, 1, 55, 0
3, 12000, Control_c, 1, 64, 0
3, 12060, Note_on_c, 1, 41, 61
3, 12060, Control_c, 1, 64, 127
3, 12119, Note_on_c, 1, 41, 0
3, 12180, Note_on_c, 1, 60, 61
3, 12180, Note_on_c, 1, 53, 62
3, 12238, Note_on_c, 1, 60, 0
3, 12239, Note_on_c, 1, 53, 0
3, 12240, Control_c, 1, 64, 0
3, 12420, Note_on_c, 1, 48, 51
3, 12420, Control_c, 1, 64, 127
3, 12471, Note_on_c, 1, 48, 0
3, 12480, Note_on_c, 1, 56, 54
3, 12480, Note_on_c, 1, 54, 50
3, 12530, Note_on_c, 1, 54, 0
3, 12532, Note_on_c, 1, 56, 0
3, 12540, Note_on_c, 1, 56, 55
3, 12540, Note_on_c, 1, 54, 52
3, 12540, Control_c, 1, 64, 0
3, 12591, Note_on_c, 1, 54, 0
3, 12593, Note_on_c, 1, 56, 0
3, 12600, Note_on_c, 1, 44, 56
3, 12600, Control_c, 1, 64, 127
3, 12653, Note_on_c, 1, 44, 0
3, 12660, Note_on_c, 1, 60, 52
3, 12660, Note_on_c, 1, 56, 52
3, 12660, Note_on_c, 1, 54, 55
3, 12711, Note_on_c, 1, 56, 0
3, 12711, Note_on_c, 1, 60, 0
3, 12712, Note_on_c, 1, 54, 0
3, 12720, Note_on_c, 1, 60, 53
3, 12720, Note_on_c, 1, 56, 56
3, 12720, Note_on_c, 1, 54, 52
3, 12720, Control_c, 1, 64, 0
3, 12771, Note_on_c, 1, 54, 0
3, 12771, Note_on_c, 1, 60, 0
3, 12773, Note_on_c, 1, 56, 0
3, 12780, Note_on_c, 1, 49, 55
3, 12780, Control_c, 1, 64, 127
3, 12832, Note_on_c, 1, 49, 0
3, 12840, Note_on_c, 1, 61, 51
3, 12840, Note_on_c, 1, 56, 56
3, 12890, Note_on_c, 1, 61, 0
3, 12893, Note_on_c, 1, 56, 0
3, 12900, Note_on_c, 1, 61, 54
3, 12900, Note_on_c, 1, 56, 58
3, 12900, Control_c, 1, 64, 0
3, 12951, Note_on_c, 1, 61, 0
3, 12953, Note_on_c, 1, 56, 0
3, 12960, Note_on_c, 1, 44, 53
3, 12960, Control_c, 1, 64, 127
3, 13011, Note_on_c, 1, 44, 0
3, 13020, Note_on_c, 1, 65, 53
3, 13020, Note_on_c, 1, 61, 56
3, 13020, Note_on_c, 1, 56, 54
3, 13071, Note_on_c, 1, 56, 0
3, 13071, Note_on_c, 1, 65, 0
3, 13072, Note_on_c, 1, 61, 0
3, 13080, Note_on_c, 1, 65, 57
3, 13080, Note_on_c, 1, 61, 53
3, 13080, Note_on_c, 1, 56, 56
3, 13080, Control_c, 1, 64, 0
3, 13131, Note_on_c, 1, 61, 0
3, 13132, Note_on_c, 1, 56, 0
3, 13133, Note_on_c, 1, 65, 0
3, 13140, Note_on_c, 1, 51, 53
3, 13140, Control_c, 1, 64, 127
3, 13190, Note_on_c, 1, 51, 0
3, 13200, Note_on_c, 1, 66, 58
3, 13200, Note_on_c, 1, 60, 55
3, 13200, Note_on_c, 1, 56, 59
3, 13251, Note_on_c, 1, 60, 0
3, 13253, Note_on_c, 1, 56, 0
3, 13253, Note_on_c, 1, 66, 0
3, 13260, Note_on_c, 1, 66, 54
3, 13260, Note_on_c, 1, 60, 54
3, 13260, Note_on_c, 1, 56, 57
3, 13260, Control_c, 1, 64, 0
3, 13311, Note_on_c, 1, 60, 0
3, 13311, Note_on_c, 1, 66, 0
3, 13312, Note_on_c, 1, 56, 0
3, 13320, Note_on_c, 1, 44, 56
3, 13320, Control_c, 1, 64, 127
3, 13371, Note_on_c, 1, 44, 0
3, 13380, Note_on_c, 1, 63, 59
3, 13380, Note_on_c, 1, 66, 55
3, 13380, Note_on_c, 1, 56, 58
3, 13431, Note_on_c, 1, 66, 0
3, 13432, Note_on_c, 1, 56, 0
3, 13433, Note_on_c, 1, 63, 0
3, 13440, Note_on_c, 1, 66, 54
3, 13440, Note_on_c, 1, 63, 59
3, 13440, Note_on_c, 1, 56, 56
3, 13440, Control_c, 1, 64, 0
3, 13490, Note_on_c, 1, 66, 0
3, 13491, Note_on_c, 1, 56, 0
3, 13493, Note_on_c, 1, 63, 0
3, 13500, Note_on_c, 1, 49, 59
3, 13500, Control_c, 1, 64, 127
3, 13553, Note_on_c, 1, 49, 0
3, 13560, Note_on_c, 1, 65, 54
3, 13560, Note_on_c, 1, 61, 54
3, 13560, Note_on_c, 1, 56, 57
3, 13611, Note_on_c, 1, 61, 0
3, 13611, Note_on_c, 1, 65, 0
3, 13612, Note_on_c, 1, 56, 0
3, 13620, Note_on_c, 1, 65, 55
3, 13620, Note_on_c, 1, 61, 58
3, 13620, Note_on_c, 1, 56, 54
3, 13620, Control_c, 1, 64, 0
3, 13671, Note_on_c, 1, 56, 0
3, 13671, Note_on_c, 1, 65, 0
3, 13673, Note_on_c, 1, 61, 0
3, 13680, Note_on_c, 1, 53, 56
3, 13680, Control_c, 1, 64, 127
3, 13732, Note_on_c, 1, 53, 0
3, 13740, Note_on_c, 1, 61, 52
3, 13740, Note_on_c, 1, 65, 57
3, 13740, Note_on_c, 1, 56, 54
3, 13790, Note_on_c, 1, 61, 0
3, 13791, Note_on_c, 1, 56, 0
3, 13793, Note_on_c, 1, 65, 0
3, 13800, Note_on_c, 1, 65, 58
3, 13800, Note_on_c, 1, 61, 53
3, 13800, Note_on_c, 1, 56, 53
3, 13800, Control_c, 1, 64, 0
3, 13851, Note_on_c, 1, 56, 0
3, 13851, Note_on_c, 1, 61, 0
3, 13853, Note_on_c, 1, 65, 0
3, 13860, Note_on_c, 1, 48, 55
3, 13860, Control_c, 1, 64, 127
3, 13920, Note_on_c, 1, 56, 53
3, 13920, Note_on_c, 1, 54, 56
3, 13971, Note_on_c, 1, 56, 0
3, 13973, Note_on_c, 1, 54, 0
3, 13980, Note_on_c, 1, 56, 52
3, 13980, Note_on_c, 1, 54, 55
3, 13980, Control_c, 1, 64, 0
3, 14031, Note_on_c, 1, 56, 0
3, 14032, Note_on_c, 1, 54, 0
3, 14032, Note_on_c, 1, 48, 0
3, 14040, Note_on_c, 1, 44, 50
3, 14040, Control_c, 1, 64, 127
3, 14090, Note_on_c, 1, 44, 0
3, 14100, Note_on_c, 1, 60, 55
3, 14100, Note_on_c, 1, 56, 52
3, 14100, Note_on_c, 1, 54, 56
3, 14151, Note_on_c, 1, 56, 0
3, 14153, Note_on_c, 1, 54, 0
3, 14153, Note_on_c, 1, 60, 0
3, 14160, Note_on_c, 1, 60, 51
3, 14160, Note_on_c, 1, 54, 51
3, 14160, Note_on_c, 1, 56, 54
3, 14160, Control_c, 1, 64, 0
3, 14211, Note_on_c, 1, 54, 0
3, 14211, Note_on_c, 1, 60, 0
3, 14212, Note_on_c, 1, 56, 0
3, 14220, Note_on_c, 1, 47, 51
3, 14220, Control_c, 1, 64, 127
3, 14271, Note_on_c, 1, 47, 0
3, 14280, Note_on_c, 1, 63, 55
3, 14280, Note_on_c, 1, 56, 51
3, 14280, Note_on_c, 1, 53, 54
3, 14331, Note_on_c, 1, 56, 0
3, 14332, Note_on_c, 1, 53, 0
3, 14333, Note_on_c, 1, 63, 0
3, 14340, Note_on_c, 1, 63, 52
3, 14340, Note_on_c, 1, 56, 57
3, 14340, Note_on_c, 1, 53, 54
3, 14340, Control_c, 1, 64, 0
3, 14390, Note_on_c, 1, 63, 0
3, 14391, Note_on_c, 1, 53, 0
3, 14393, Note_on_c, 1, 56, 0
3, 14400, Note_on_c, 1, 46, 59
3, 14400, Control_c, 1, 64, 127
3, 14453, Note_on_c, 1, 46, 0
3, 14460, Note_on_c, 1, 62, 56
3, 14460, Note_on_c, 1, 56, 56
3, 14460, Note_on_c, 1, 53, 59
3, 14511, Note_on_c, 1, 56, 0
3, 14511, Note_on_c, 1, 62, 0
3, 14512, Note_on_c, 1, 53, 0
3, 14520, Note_on_c, 1, 62, 58
3, 14520, Note_on_c, 1, 56, 61
3, 14520, Note_on_c, 1, 53, 57
3, 14520, Control_c, 1, 64, 0
3, 14571, Note_on_c, 1, 53, 0
3, 14571, Note_on_c, 1, 62, 0
3, 14573, Note_on_c, 1, 56, 0
3, 14580, Note_on_c, 1, 51, 62
3, 14580, Control_c, 1, 64, 127
3, 14632, Note_on_c, 1, 51, 0
3, 14640, Note_on_c, 1, 67, 57
3, 14640, Note_on_c, 1, 61, 62
3, 14690, Note_on_c, 1, 67, 0
3, 14693, Note_on_c, 1, 61, 0
3, 14700, Note_on_c, 1, 67, 57
3, 14700, Note_on_c, 1, 61, 61
3, 14700, Control_c, 1, 64, 0
3, 14751, Note_on_c, 1, 67, 0
3, 14753, Note_on_c, 1, 61, 0
3, 14820, Note_on_c, 1, 61, 52
3, 14820, Note_on_c, 1, 66, 52
3, 14871, Note_on_c, 1, 66, 0
3, 14871, Note_on_c, 1, 61, 0
3, 14880, Note_on_c, 1, 66, 53
3, 14880, Note_on_c, 1, 61, 51
3, 14931, Note_on_c, 1, 61, 0
3, 14932, Note_on_c, 1, 66, 0
3, 14940, Note_on_c, 1, 56, 52
3, 15000, Note_on_c, 1, 66, 50
3, 15000, Note_on_c, 1, 60, 53
3, 15051, Note_on_c, 1, 66, 0
3, 15052, Note_on_c, 1, 60, 0
3, 15053, Note_on_c, 1, 56, 0
3, 16740, Note_on_c, 1, 37, 62
3, 16740, Control_c, 1, 64, 127
3, 16790, Note_on_c, 1, 37, 0
3, 16800, Note_on_c, 1, 65, 67
3, 16800, Note_on_c, 1, 61, 64
3, 16800, Note_on_c, 1, 56, 68
3, 16800, Control_c, 1, 64, 0
3, 16849, Note_on_c, 1, 61, 0
3, 16851, Note_on_c, 1, 56, 0
3, 16851, Note_on_c, 1, 65, 0
3, 16860, Note_on_c, 1, 65, 64
3, 16860, Note_on_c, 1, 61, 64
3, 16860, Note_on_c, 1, 56, 67
3, 16909, Note_on_c, 1, 61, 0
3, 16909, Note_on_c, 1, 65, 0
3, 16910, Note_on_c, 1, 56, 0
3, 16920, Note_on_c, 1, 53, 66
3, 16920, Control_c, 1, 64, 127
3, 16969, Note_on_c, 1, 53, 0
3, 16980, Note_on_c, 1, 65, 69
3, 16980, Note_on_c, 1, 61, 65
3, 16980, Note_on_c, 1, 56, 68
3, 16980, Control_c, 1, 64, 0
3, 17029, Note_on_c, 1, 61, 0
3, 17030, Note_on_c, 1, 56, 0
3, 17031, Note_on_c, 1, 65, 0
3, 17040, Note_on_c, 1, 65, 64
3, 17040, Note_on_c, 1, 61, 69
3, 17040, Note_on_c, 1, 56, 66
3, 17088, Note_on_c, 1, 65, 0
3, 17089, Note_on_c, 1, 56, 0
3, 17091, Note_on_c, 1, 61, 0
3, 17100, Note_on_c, 1, 49, 70
3, 17100, Control_c, 1, 64, 127
3, 17151, Note_on_c, 1, 49, 0
3, 17160, Note_on_c, 1, 65, 65
3, 17160, Note_on_c, 1, 61, 65
3, 17160, Note_on_c, 1, 56, 68
3, 17160, Control_c, 1, 64, 0
3, 17209, Note_on_c, 1, 61, 0
3, 17209, Note_on_c, 1, 65, 0
3, 17210, Note_on_c, 1, 56, 0
3, 17220, Note_on_c, 1, 65, 65
3, 17220, Note_on_c, 1, 61, 68
3, 17220, Note_on_c, 1, 56, 64
3, 17269, Note_on_c, 1, 56, 0
3, 17269, Note_on_c, 1, 65, 0
3, 17271, Note_on_c, 1, 61, 0
3, 17280, Note_on_c, 1, 53, 67
3, 17280, Control_c, 1, 64, 127
3, 17330, Note_on_c, 1, 53, 0
3, 17340, Note_on_c, 1, 65, 63
3, 17340, Note_on_c, 1, 61, 68
3, 17340, Note_on_c, 1, 56, 65
3, 17340, Control_c, 1, 64, 0
3, 17388, Note_on_c, 1, 65, 0
3, 17389, Note_on_c, 1, 56, 0
3, 17391, Note_on_c, 1, 61, 0
3, 17400, Note_on_c, 1, 65, 69
3, 17400, Note_on_c, 1, 61, 64
3, 17400, Note_on_c, 1, 56, 64
3, 17449, Note_on_c, 1, 56, 0
3, 17449, Note_on_c, 1, 61, 0
3, 17451, Note_on_c, 1, 65, 0
3, 17460, Note_on_c, 1, 44, 67
3, 17460, Control_c, 1, 64, 127
3, 17510, Note_on_c, 1, 44, 0
3, 17520, Note_on_c, 1, 66, 63
3, 17520, Note_on_c, 1, 60, 66
3, 17520, Note_on_c, 1, 56, 62
3, 17520, Control_c, 1, 64, 0
3, 17569, Note_on_c, 1, 56, 0
3, 17569, Note_on_c, 1, 66, 0
3, 17571, Note_on_c, 1, 60, 0
3, 17580, Note_on_c, 1, 56, 62
3, 17580, Note_on_c, 1, 60, 58
3, 17580, Note_on_c, 1, 66, 63
3, 17628, Note_on_c, 1, 60, 0
3, 17630, Note_on_c, 1, 56, 0
3, 17631, Note_on_c, 1, 66, 0
3, 17640, Note_on_c, 1, 51, 58
3, 17640, Control_c, 1, 64, 127
3, 17689, Note_on_c, 1, 51, 0
3, 17700, Note_on_c, 1, 66, 59
3, 17700, Note_on_c, 1, 60, 54
3, 17700, Note_on_c, 1, 56, 54
3, 17700, Control_c, 1, 64, 0
3, 17749, Note_on_c, 1, 56, 0
3, 17749, Note_on_c, 1, 60, 0
3, 17751, Note_on_c, 1, 66, 0
3, 17760, Note_on_c, 1, 66, 54
3, 17760, Note_on_c, 1, 60, 52
3, 17760, Note_on_c, 1, 56, 55
3, 17809, Note_on_c, 1, 60, 0
3, 17810, Note_on_c, 1, 66, 0
3, 17811, Note_on_c, 1, 56, 0
3, 17820, Note_on_c, 1, 44, 64
3, 17820, Control_c, 1, 64, 127
3, 17869, Note_on_c, 1, 44, 0
3, 17880, Note_on_c, 1, 66, 65
3, 17880, Note_on_c, 1, 60, 61
3, 17928, Note_on_c, 1, 60, 0
3, 17930, Note_on_c, 1, 66, 0
3, 17940, Note_on_c, 1, 66, 64
3, 17940, Note_on_c, 1, 60, 61
3, 17940, Control_c, 1, 64, 0
3, 17989, Note_on_c, 1, 60, 0
3, 17991, Note_on_c, 1, 66, 0
3, 18000, Note_on_c, 1, 56, 63
3, 18051, Note_on_c, 1, 56, 0
3, 18060, Note_on_c, 1, 66, 56
3, 18060, Note_on_c, 1, 60, 56
3, 18109, Note_on_c, 1, 60, 0
3, 18109, Note_on_c, 1, 66, 0
3, 18120, Note_on_c, 1, 66, 57
3, 18120, Note_on_c, 1, 60, 55
3, 18169, Note_on_c, 1, 60, 0
3, 18170, Note_on_c, 1, 66, 0
3, 18180, Note_on_c, 1, 49, 55
3, 18180, Control_c, 1, 64, 127
3, 18231, Note_on_c, 1, 49, 0
3, 18240, Note_on_c, 1, 65, 51
3, 18240, Note_on_c, 1, 61, 54
3, 18240, Note_on_c, 1, 56, 50
3, 18240, Control_c, 1, 64, 0
3, 18288, Note_on_c, 1, 56, 0
3, 18289, Note_on_c, 1, 65, 0
3, 18290, Note_on_c, 1, 61, 0
3, 18300, Note_on_c, 1, 65, 56
3, 18300, Note_on_c, 1, 61, 53
3, 18300, Note_on_c, 1, 56, 57
3, 18349, Note_on_c, 1, 61, 0
3, 18351, Note_on_c, 1, 56, 0
3, 18351, Note_on_c, 1, 65, 0
3, 18360, Note_on_c, 1, 53, 53
3, 18409, Note_on_c, 1, 53, 0
3, 18420, Note_on_c, 1, 65, 54
3, 18420, Note_on_c, 1, 61, 57
3, 18420, Note_on_c, 1, 56, 55
3, 18469, Note_on_c, 1, 56, 0
3, 18469, Note_on_c, 1, 65, 0
3, 18470, Note_on_c, 1, 61, 0
3, 18480, Note_on_c, 1, 65, 59
3, 18480, Note_on_c, 1, 61, 55
3, 18480, Note_on_c, 1, 56, 58
3, 18529, Note_on_c, 1, 61, 0
3, 18530, Note_on_c, 1, 56, 0
3, 18531, Note_on_c, 1, 65, 0
3, 18540, Note_on_c, 1, 49, 55
3, 18588, Note_on_c, 1, 49, 0
3, 18600, Note_on_c, 1, 65, 61
3, 18600, Note_on_c, 1, 61, 58
3, 18600, Note_on_c, 1, 56, 62
3, 18649, Note_on_c, 1, 61, 0
3, 18651, Note_on_c, 1, 56, 0
3, 18651, Note_on_c, 1, 65, 0
3, 18660, Note_on_c, 1, 65, 58
3, 18660, Note_on_c, 1, 61, 58
3, 18660, Note_on_c, 1, 56, 61
3, 18709, Note_on_c, 1, 61, 0
3, 18709, Note_on_c, 1, 65, 0
3, 18710, Note_on_c, 1, 56, 0
3, 18720, Note_on_c, 1, 53, 60
3, 18769, Note_on_c, 1, 53, 0
3, 18780, Note_on_c, 1, 65, 64
3, 18780, Note_on_c, 1, 61, 60
3, 18780, Note_on_c, 1, 56, 63
3, 18829, Note_on_c, 1, 61, 0
3, 18830, Note_on_c, 1, 56, 0
3, 18831, Note_on_c, 1, 65, 0
3, 18840, Note_on_c, 1, 65, 60
3, 18840, Note_on_c, 1, 61, 65
3, 18840, Note_on_c, 1, 56, 62
3, 18888, Note_on_c, 1, 65, 0
3, 18889, Note_on_c, 1, 56, 0
3, 18891, Note_on_c, 1, 61, 0
3, 18900, Note_on_c, 1, 44, 67
3, 18951, Note_on_c, 1, 44, 0
3, 18960, Note_on_c, 1, 66, 61
3, 18960, Note_on_c, 1, 60, 61
3, 18960, Note_on_c, 1, 56, 64
3, 19009, Note_on_c, 1, 60, 0
3, 19009, Note_on_c, 1, 66, 0
3, 19010, Note_on_c, 1, 56, 0
3, 19020, Note_on_c, 1, 66, 59
3, 19020, Note_on_c, 1, 60, 62
3, 19020, Note_on_c, 1, 56, 58
3, 19069, Note_on_c, 1, 56, 0
3, 19069, Note_on_c, 1, 66, 0
3, 19071, Note_on_c, 1, 60, 0
3, 19080, Note_on_c, 1, 51, 58
3, 19130, Note_on_c, 1, 51, 0
3, 19140, Note_on_c, 1, 66, 51
3, 19140, Note_on_c, 1, 60, 56
3, 19140, Note_on_c, 1, 56, 53
3, 19188, Note_on_c, 1, 66, 0
3, 19189, Note_on_c, 1, 56, 0
3, 19191, Note_on_c, 1, 60, 0
3, 19200, Note_on_c, 1, 66, 54
3, 19200, Note_on_c, 1, 60, 49
3, 19200, Note_on_c, 1, 56, 49
3, 19249, Note_on_c, 1, 56, 0
3, 19249, Note_on_c, 1, 60, 0
3, 19251, Note_on_c, 1, 66, 0
3, 19260, Note_on_c, 1, 44, 64
3, 19310, Note_on_c, 1, 44, 0
3, 19320, Note_on_c, 1, 66, 58
3, 19320, Note_on_c, 1, 60, 61
3, 19320, Note_on_c, 1, 56, 57
3, 19369, Note_on_c, 1, 56, 0
3, 19369, Note_on_c, 1, 66, 0
3, 19371, Note_on_c, 1, 60, 0
3, 19380, Note_on_c, 1, 66, 56
3, 19380, Note_on_c, 1, 60, 52
3, 19380, Note_on_c, 1, 56, 57
3, 19428, Note_on_c, 1, 60, 0
3, 19430, Note_on_c, 1, 66, 0
3, 19431, Note_on_c, 1, 56, 0
3, 19440, Note_on_c, 1, 51, 51
3, 19489, Note_on_c, 1, 51, 0
3, 19500, Note_on_c, 1, 66, 55
3, 19500, Note_on_c, 1, 60, 50
3, 19500, Note_on_c, 1, 56, 50
3, 19548, Note_on_c, 1, 56, 0
3, 19548, Note_on_c, 1, 60, 0
3, 19551, Note_on_c, 1, 66, 0
3, 19560, Note_on_c, 1, 44, 54
3, 19610, Note_on_c, 1, 44, 0
3, 19620, Note_on_c, 1, 45, 53
3, 19669, Note_on_c, 1, 45, 0
3, 19680, Note_on_c, 1, 63, 57
3, 19680, Note_on_c, 1, 60, 53
3, 19680, Note_on_c, 1, 53, 56
3, 19729, Note_on_c, 1, 60, 0
3, 19730, Note_on_c, 1, 53, 0
3, 19731, Note_on_c, 1, 63, 0
3, 19740, Note_on_c, 1, 63, 53
3, 19740, Note_on_c, 1, 60, 58
3, 19740, Note_on_c, 1, 53, 55
3, 19788, Note_on_c, 1, 63, 0
3, 19790, Note_on_c, 1, 53, 0
3, 19791, Note_on_c, 1, 60, 0
3, 19800, Note_on_c, 1, 46, 60
3, 19852, Note_on_c, 1, 46, 0
3, 19860, Note_on_c, 1, 61, 56
3, 19860, Note_on_c, 1, 53, 56
3, 19910, Note_on_c, 1, 53, 0
3, 19910, Note_on_c, 1, 61, 0
3, 19920, Note_on_c, 1, 61, 60
3, 19920, Note_on_c, 1, 53, 58
3, 19970, Note_on_c, 1, 53, 0
3, 19971, Note_on_c, 1, 61, 0
3, 19980, Note_on_c, 1, 48, 62
3, 20032, Note_on_c, 1, 48, 0
3, 20040, Note_on_c, 1, 66, 59
3, 20040, Note_on_c, 1, 63, 62
3, 20040, Note_on_c, 1, 56, 58
3, 20089, Note_on_c, 1, 56, 0
3, 20090, Note_on_c, 1, 66, 0
3, 20091, Note_on_c, 1, 63, 0
3, 20100, Note_on_c, 1, 63, 64
3, 20100, Note_on_c, 1, 66, 61
3, 20100, Note_on_c, 1, 56, 65
3, 20150, Note_on_c, 1, 66, 0
3, 20152, Note_on_c, 1, 56, 0
3, 20152, Note_on_c, 1, 63, 0
3, 20160, Note_on_c, 1, 49, 61
3, 20210, Note_on_c, 1, 49, 0
3, 20220, Note_on_c, 1, 65, 62
3, 20220, Note_on_c, 1, 56, 65
3, 20270, Note_on_c, 1, 65, 0
3, 20271, Note_on_c, 1, 56, 0
3, 20340, Note_on_c, 1, 54, 63
3, 20390, Note_on_c, 1, 54, 0
3, 20400, Note_on_c, 1, 63, 64
3, 20400, Note_on_c, 1, 58, 60
3, 20450, Note_on_c, 1, 58, 0
3, 20452, Note_on_c, 1, 63, 0
3, 20520, Note_on_c, 1, 44, 59
3, 20571, Note_on_c, 1, 44, 0
3, 20580, Note_on_c, 1, 61, 53
3, 20580, Note_on_c, 1, 56, 58
3, 20580, Note_on_c, 1, 53, 55
3, 20629, Note_on_c, 1, 61, 0
3, 20630, Note_on_c, 1, 53, 0
3, 20632, Note_on_c, 1, 56, 0
3, 20700, Note_on_c, 1, 44, 55
3, 20752, Note_on_c, 1, 44, 0
3, 20760, Note_on_c, 1, 56, 48
3, 20760, Note_on_c, 1, 54, 48
3, 20810, Note_on_c, 1, 54, 0
3, 20810, Note_on_c, 1, 56, 0
3, 20820, Note_on_c, 1, 60, 51
3, 20820, Note_on_c, 1, 56, 49
3, 20820, Note_on_c, 1, 54, 52
3, 20870, Note_on_c, 1, 56, 0
3, 20871, Note_on_c, 1, 60, 0
3, 20872, Note_on_c, 1, 54, 0
3, 20880, Note_on_c, 1, 49, 49
3, 20930, Note_on_c, 1, 49, 0
3, 20940, Note_on_c, 1, 65, 53
3, 20940, Note_on_c, 1, 61, 49
3, 20940, Note_on_c, 1, 56, 54
3, 20990, Note_on_c, 1, 61, 0
3, 20992, Note_on_c, 1, 65, 0
3, 20993, Note_on_c, 1, 56, 0
3, 21060, Note_on_c, 1, 57, 53
3, 21120, Note_on_c, 1, 63, 58
3, 21120, Note_on_c, 1, 65, 53
3, 21170, Note_on_c, 1, 65, 0
3, 21173, Note_on_c, 1, 63, 0
3, 21180, Note_on_c, 1, 63, 54
3, 21180, Note_on_c, 1, 65, 57
3, 21230, Note_on_c, 1, 63, 0
3, 21231, Note_on_c, 1, 57, 0
3, 21232, Note_on_c, 1, 65, 0
3, 21240, Note_on_c, 1, 58, 56
3, 21300, Note_on_c, 1, 65, 59
3, 21300, Note_on_c, 1, 61, 55
3, 21351, Note_on_c, 1, 61, 0
3, 21353, Note_on_c, 1, 65, 0
3, 21360, Note_on_c, 1, 65, 59
3, 21360, Note_on_c, 1, 61, 55
3, 21410, Note_on_c, 1, 61, 0
3, 21411, Note_on_c, 1, 58, 0
3, 21412, Note_on_c, 1, 65, 0
3, 21420, Note_on_c, 1, 60, 61
3, 21473, Note_on_c, 1, 60, 0
3, 21480, Note_on_c, 1, 66, 59
3, 21480, Note_on_c, 1, 68, 63
3, 21531, Note_on_c, 1, 66, 0
3, 21533, Note_on_c, 1, 68, 0
3, 21540, Note_on_c, 1, 68, 59
3, 21540, Note_on_c, 1, 66, 59
3, 21591, Note_on_c, 1, 66, 0
3, 21591, Note_on_c, 1, 68, 0
3, 21600, Note_on_c, 1, 61, 63
3, 21652, Note_on_c, 1, 61, 0
3, 21660, Note_on_c, 1, 68, 62
3, 21660, Note_on_c, 1, 65, 65
3, 21711, Note_on_c, 1, 68, 0
3, 21713, Note_on_c, 1, 65, 0
3, 21780, Note_on_c, 1, 54, 62
3, 21780, Control_c, 1, 64, 127
3, 21831, Note_on_c, 1, 54, 0
3, 21840, Note_on_c, 1, 70, 64
3, 21840, Note_on_c, 1, 63, 60
3, 21840, Note_on_c, 1, 61, 65
3, 21890, Note_on_c, 1, 63, 0
3, 21892, Note_on_c, 1, 70, 0
3, 21893, Note_on_c, 1, 61, 0
3, 21900, Control_c, 1, 64, 0
3, 21960, Note_on_c, 1, 44, 59
3, 22011, Note_on_c, 1, 44, 0
3, 22020, Note_on_c, 1, 61, 61
3, 22020, Note_on_c, 1, 56, 56
3, 22020, Note_on_c, 1, 53, 56
3, 22071, Note_on_c, 1, 53, 0
3, 22071, Note_on_c, 1, 56, 0
3, 22073, Note_on_c, 1, 61, 0
3, 22140, Note_on_c, 1, 44, 56
3, 22192, Note_on_c, 1, 44, 0
3, 22200, Note_on_c, 1, 56, 52
3, 22200, Note_on_c, 1, 54, 55
3, 22251, Note_on_c, 1, 56, 0
3, 22253, Note_on_c, 1, 54, 0
3, 22260, Note_on_c, 1, 56, 49
3, 22260, Note_on_c, 1, 54, 52
3, 22311, Note_on_c, 1, 56, 0
3, 22312, Note_on_c, 1, 54, 0
3, 22320, Note_on_c, 1, 49, 48
3, 22370, Note_on_c, 1, 49, 0
3, 22380, Note_on_c, 1, 65, 54
3, 22380, Note_on_c, 1, 56, 51
3, 22431, Note_on_c, 1, 56, 0
3, 22433, Note_on_c, 1, 65, 0
3, 22500, Note_on_c, 1, 45, 57
3, 22553, Note_on_c, 1, 45, 0
3, 22560, Note_on_c, 1, 63, 53
3, 22560, Note_on_c, 1, 60, 53
3, 22560, Note_on_c, 1, 53, 56
3, 22611, Note_on_c, 1, 60, 0
3, 22611, Note_on_c, 1, 63, 0
3, 22612, Note_on_c, 1, 53, 0
3, 22620, Note_on_c, 1, 60, 54
3, 22620, Note_on_c, 1, 63, 57
3, 22620, Note_on_c, 1, 53, 53
3, 22671, Note_on_c, 1, 53, 0
3, 22671, Note_on_c, 1, 60, 0
3, 22673, Note_on_c, 1, 63, 0
3, 22680, Note_on_c, 1, 46, 57
3, 22732, Note_on_c, 1, 46, 0
3, 22740, Note_on_c, 1, 61, 54
3, 22740, Note_on_c, 1, 53, 59
3, 22790, Note_on_c, 1, 61, 0
3, 22793, Note_on_c, 1, 53, 0
3, 22800, Note_on_c, 1, 61, 57
3, 22800, Note_on_c, 1, 53, 61
3, 22851, Note_on_c, 1, 61, 0
3, 22853, Note_on_c, 1, 53, 0
3, 22860, Note_on_c, 1, 48, 57
3, 22911, Note_on_c, 1, 48, 0
3, 22920, Note_on_c, 1, 56, 57
3, 22920, Note_on_c, 1, 66, 60
3, 22920, Note_on_c, 1, 63, 58
3, 22971, Note_on_c, 1, 63, 0
3, 22971, Note_on_c, 1, 56, 0
3, 22972, Note_on_c, 1, 66, 0
3, 22980, Note_on_c, 1, 66, 62
3, 22980, Note_on_c, 1, 63, 58
3, 22980, Note_on_c, 1, 56, 61
3, 23031, Note_on_c, 1, 63, 0
3, 23032, Note_on_c, 1, 56, 0
3, 23033, Note_on_c, 1, 66, 0
3, 23040, Note_on_c, 1, 49, 58
3, 23090, Note_on_c, 1, 49, 0
3, 23100, Note_on_c, 1, 65, 64
3, 23100, Note_on_c, 1, 56, 61
3, 23151, Note_on_c, 1, 56, 0
3, 23153, Note_on_c, 1, 65, 0
3, 23220, Note_on_c, 1, 54, 66
3, 23273, Note_on_c, 1, 54, 0
3, 23280, Note_on_c, 1, 63, 60
3, 23280, Note_on_c, 1, 58, 60
3, 23331, Note_on_c, 1, 58, 0
3, 23331, Note_on_c, 1, 63, 0
3, 23400, Note_on_c, 1, 44, 60
3, 23452, Note_on_c, 1, 44, 0
3, 23460, Note_on_c, 1, 61, 57
3, 23460, Note_on_c, 1, 56, 60
3, 23460, Note_on_c, 1, 53, 56
3, 23511, Note_on_c, 1, 53, 0
3, 23511, Note_on_c, 1, 61, 0
3, 23513, Note_on_c, 1, 56, 0
3, 23580, Note_on_c, 1, 44, 56
3, 23632, Note_on_c, 1, 44, 0
3, 23640, Note_on_c, 1, 56, 49
3, 23640, Note_on_c, 1, 54, 54
3, 23690, Note_on_c, 1, 56, 0
3, 23693, Note_on_c, 1, 54, 0
3, 23700, Note_on_c, 1, 60, 51
3, 23700, Note_on_c, 1, 56, 55
3, 23700, Note_on_c, 1, 54, 50
3, 23751, Note_on_c, 1, 54, 0
3, 23751, Note_on_c, 1, 60, 0
3, 23753, Note_on_c, 1, 56, 0
3, 23760, Note_on_c, 1, 49, 51
3, 23811, Note_on_c, 1, 49, 0
3, 23820, Note_on_c, 1, 61, 55
3, 23820, Note_on_c, 1, 65, 53
3, 23820, Note_on_c, 1, 56, 56
3, 23871, Note_on_c, 1, 65, 0
3, 23872, Note_on_c, 1, 61, 0
3, 23873, Note_on_c, 1, 56, 0
3, 23940, Note_on_c, 1, 57, 53
3, 24000, Note_on_c, 1, 65, 57
3, 24000, Note_on_c, 1, 63, 53
3, 24050, Note_on_c, 1, 63, 0
3, 24052, Note_on_c, 1, 65, 0
3, 24060, Note_on_c, 1, 65, 59
3, 24060, Note_on_c, 1, 63, 56
3, 24111, Note_on_c, 1, 63, 0
3, 24111, Note_on_c, 1, 57, 0
3, 24113, Note_on_c, 1, 65, 0
3, 24120, Note_on_c, 1, 58, 61
3, 24180, Note_on_c, 1, 65, 56
3, 24180, Note_on_c, 1, 61, 56
3, 24231, Note_on_c, 1, 61, 0
3, 24231, Note_on_c, 1, 65, 0
3, 24240, Note_on_c, 1, 61, 60
3, 24240, Note_on_c, 1, 65, 58
3, 24291, Note_on_c, 1, 65, 0
3, 24292, Note_on_c, 1, 61, 0
3, 24293, Note_on_c, 1, 58, 0
3, 24300, Note_on_c, 1, 60, 62
3, 24360, Note_on_c, 1, 68, 59
3, 24360, Note_on_c, 1, 66, 62
3, 24411, Note_on_c, 1, 68, 0
3, 24412, Note_on_c, 1, 66, 0
3, 24420, Note_on_c, 1, 68, 58
3, 24420, Note_on_c, 1, 66, 63
3, 24470, Note_on_c, 1, 68, 0
3, 24473, Note_on_c, 1, 66, 0
3, 24473, Note_on_c, 1, 60, 0
3, 24480, Note_on_c, 1, 61, 61
3, 24531, Note_on_c, 1, 61, 0
3, 24540, Note_on_c, 1, 68, 66
3, 24540, Note_on_c, 1, 65, 61
3, 24591, Note_on_c, 1, 65, 0
3, 24593, Note_on_c, 1, 68, 0
3, 24660, Note_on_c, 1, 42, 64
3, 24660, Control_c, 1, 64, 127
3, 24711, Note_on_c, 1, 42, 0
3, 24720, Note_on_c, 1, 70, 65
3, 24720, Note_on_c, 1, 61, 63
3, 24720, Note_on_c, 1, 63, 66
3, 24771, Note_on_c, 1, 61, 0
3, 24772, Note_on_c, 1, 70, 0
3, 24773, Note_on_c, 1, 63, 0
3, 24780, Control_c, 1, 64, 0
3, 25020, Note_on_c, 1, 44, 52
3, 25020, Control_c, 1, 64, 127
3, 25071, Note_on_c, 1, 44, 0
3, 25080, Note_on_c, 1, 56, 57
3, 25080, Note_on_c, 1, 54, 53
3, 25130, Note_on_c, 1, 54, 0
3, 25132, Note_on_c, 1, 56, 0
3, 25140, Note_on_c, 1, 56, 60
3, 25140, Note_on_c, 1, 54, 57
3, 25140, Control_c, 1, 64, 0
3, 25191, Note_on_c, 1, 54, 0
3, 25193, Note_on_c, 1, 56, 0
3, 25200, Note_on_c, 1, 37, 63
3, 25200, Control_c, 1, 64, 127
3, 25259, Note_on_c, 1, 37, 0
3, 25260, Note_on_c, 1, 65, 60
3, 25260, Note_on_c, 1, 56, 60
3, 25260, Note_on_c, 1, 53, 63
3, 25331, Note_on_c, 1, 56, 0
3, 25334, Note_on_c, 1, 53, 0
3, 25337, Note_on_c, 1, 65, 0
3, 25571, Control_c, 1, 64, 0
3, 25571, End_track
4, 0, Start_track
4, 0, MIDI_port, 0
4, 0, Title_t, "        Chopin  "
4, 0, End_track
5, 0, Start_track
5, 0, MIDI_port, 0
5, 0, Title_t, "   Waltz Op.64.No.1."
5, 0, End_track
6, 0, Start_track
6, 0, MIDI_port, 0
6, 0, Title_t, " seq. by Les Winters"
6, 0, End_track
7, 0, Start_track
7, 0, MIDI_port, 0
7, 0, Title_t, "   lwinters@j51.com"
7, 0, End_track
0, 0, End_of_file