0, 0, Header, 1, 3, 480
1, 0, Start_track
1, 0, Tempo, 681729
1, 0, Time_signature, 4, 2, 24, 8
1, 0, Copyright_t, "Copyright \251 1999 My Music Company"
1, 0, Title_t, "Piano Solo"
1, 8424, Tempo, 684033
1, 8448, Tempo, 686593
1, 8472, Tempo, 688897
1, 8496, Tempo, 691457
1, 8520, Tempo, 694017
1, 8544, Tempo, 696577
1, 8568, Tempo, 698881
1, 8592, Tempo, 701441
1, 8616, Tempo, 704001
1, 8640, Tempo, 706561
1, 8664, Tempo, 709377
1, 8688, Tempo, 711937
1, 8712, Tempo, 714497
1, 8736, Tempo, 717313
1, 8760, Tempo, 719873
1, 8784, Tempo, 722689
1, 8808, Tempo, 725249
1, 8832, Tempo, 728065
1, 8856, Tempo, 730881
1, 8880, Tempo, 733441
1, 8904, Tempo, 736257
1, 8928, Tempo, 739073
1, 8952, Tempo, 742145
1, 8976, Tempo, 744961
1, 9000, Tempo, 747777
1, 9024, Tempo, 750593
1, 9048, Tempo, 753665
1, 9072, Tempo, 756481
1, 9096, Tempo, 759553
1, 9120, Tempo, 762625
1, 9144, Tempo, 765697
1, 9168, Tempo, 768769
1, 9192, Tempo, 771841
1, 9216, Tempo, 774913
1, 9240, Tempo, 777985
1, 9264, Tempo, 781057
1, 9288, Tempo, 784385
1, 9312, Tempo, 787457
1, 9336, Tempo, 790785
1, 9360, Tempo, 794113
1, 9384, Tempo, 797185
1, 9408, Tempo, 800513
1, 9432, Tempo, 803841
1, 9456, Tempo, 807169
1, 9480, Tempo, 810753
1, 9504, Tempo, 814081
1, 9528, Tempo, 817665
1, 9552, Tempo, 820993
1, 9576, Tempo, 824577
1, 9600, Tempo, 828161
1, 9624, Tempo, 831745
1, 9648, Tempo, 835329
1, 9672, Tempo, 838913
1, 9696, Tempo, 842497
1, 9720, Tempo, 846337
1, 9744, Tempo, 849921
1, 9768, Tempo, 853761
1, 9792, Tempo, 857601
1, 9816, Tempo, 861441
1, 9840, Tempo, 865281
1, 9864, Tempo, 869121
1, 9888, Tempo, 873217
1, 9912, Tempo, 877057
1, 9936, Tempo, 881153
1, 9960, Tempo, 884993
1, 9984, Tempo, 889089
1, 10008, Tempo, 893441
1, 10032, Tempo, 897537
1, 10056, Tempo, 901633
1, 10080, Tempo, 905985
1, 10104, Tempo, 910081
1, 10128, Tempo, 914433
1, 10152, Tempo, 918785
1, 10176, Tempo, 923137
1, 10200, Tempo, 927745
1, 10224, Tempo, 932097
1, 10248, Tempo, 936705
1, 10272, Tempo, 941313
1, 10296, Tempo, 945921
1, 10320, Tempo, 950529
1, 10344, Tempo, 955393
1, 10368, Tempo, 960001
1, 10392, Tempo, 964865
1, 10416, Tempo, 969729
1, 10440, Tempo, 974593
1, 10464, Tempo, 979457
1, 10488, Tempo, 984577
1, 10512, Tempo, 989697
1, 10536, Tempo, 994817
1, 10560, Tempo, 999937
1, 10560, Tempo, 999937
1, 10680, Tempo, 1499905
1, 11520, Tempo, 833281
1, 36504, Tempo, 837889
1, 36528, Tempo, 842497
1, 36552, Tempo, 847361
1, 36576, Tempo, 852225
1, 36600, Tempo, 857089
1, 36624, Tempo, 861953
1, 36648, Tempo, 866817
1, 36672, Tempo, 871937
1, 36696, Tempo, 877057
1, 36720, Tempo, 882177
1, 36744, Tempo, 887553
1, 36768, Tempo, 892673
1, 36792, Tempo, 898049
1, 36816, Tempo, 903425
1, 36840, Tempo, 909057
1, 36864, Tempo, 914433
1, 36888, Tempo, 920065
1, 36912, Tempo, 925697
1, 36936, Tempo, 931585
1, 36960, Tempo, 937473
1, 36984, Tempo, 943361
1, 37008, Tempo, 949249
1, 37032, Tempo, 955393
1, 37056, Tempo, 961537
1, 37080, Tempo, 967681
1, 37104, Tempo, 973825
1, 37128, Tempo, 980225
1, 37152, Tempo, 986625
1, 37176, Tempo, 993281
1, 37200, Tempo, 999937
1, 37224, Tempo, 1006593
1, 37248, Tempo, 1013505
1, 37272, Tempo, 1020417
1, 37296, Tempo, 1027329
1, 37320, Tempo, 1034497
1, 37344, Tempo, 1041665
1, 37368, Tempo, 1048833
1, 37392, Tempo, 1056257
1, 37416, Tempo, 1063681
1, 37440, Tempo, 1071361
1, 38400, Tempo, 833281
1, 40344, Tempo, 836097
1, 40368, Tempo, 838913
1, 40392, Tempo, 841729
1, 40416, Tempo, 844545
1, 40440, Tempo, 847361
1, 40464, Tempo, 850177
1, 40488, Tempo, 852993
1, 40512, Tempo, 856065
1, 40536, Tempo, 858881
1, 40560, Tempo, 861953
1, 40584, Tempo, 865025
1, 40608, Tempo, 867841
1, 40632, Tempo, 870913
1, 40656, Tempo, 873985
1, 40680, Tempo, 877057
1, 40704, Tempo, 880129
1, 40728, Tempo, 883201
1, 40752, Tempo, 886529
1, 40776, Tempo, 889601
1, 40800, Tempo, 892673
1, 40824, Tempo, 896001
1, 40848, Tempo, 899073
1, 40872, Tempo, 902401
1, 40896, Tempo, 905729
1, 40920, Tempo, 909057
1, 40944, Tempo, 912385
1, 40968, Tempo, 915713
1, 40992, Tempo, 919041
1, 41016, Tempo, 922369
1, 41040, Tempo, 925697
1, 41064, Tempo, 929281
1, 41088, Tempo, 932609
1, 41112, Tempo, 936193
1, 41136, Tempo, 939777
1, 41160, Tempo, 943361
1, 41184, Tempo, 946945
1, 41208, Tempo, 950529
1, 41232, Tempo, 954113
1, 41256, Tempo, 957697
1, 41280, Tempo, 961537
1, 41304, Tempo, 965121
1, 41328, Tempo, 968961
1, 41352, Tempo, 972545
1, 41376, Tempo, 976385
1, 41400, Tempo, 980225
1, 41424, Tempo, 984065
1, 41448, Tempo, 987905
1, 41472, Tempo, 992001
1, 41496, Tempo, 995841
1, 41520, Tempo, 999937
1, 41544, Tempo, 1003777
1, 41568, Tempo, 1007873
1, 41592, Tempo, 1011969
1, 41616, Tempo, 1016065
1, 41640, Tempo, 1020417
1, 41664, Tempo, 1024513
1, 41688, Tempo, 1028609
1, 41712, Tempo, 1032961
1, 41736, Tempo, 1037313
1, 41760, Tempo, 1041665
1, 41784, Tempo, 1046017
1, 41808, Tempo, 1050369
1, 41832, Tempo, 1054721
1, 41856, Tempo, 1059329
1, 41880, Tempo, 1063681
1, 41904, Tempo, 1068289
1, 41928, Tempo, 1072897
1, 41952, Tempo, 1077505
1, 41976, Tempo, 1082113
1, 42000, Tempo, 1086977
1, 42024, Tempo, 1091585
1, 42048, Tempo, 1096449
1, 42072, Tempo, 1101313
1, 42096, Tempo, 1106177
1, 42120, Tempo, 1111041
1, 42240, Tempo, 833281
1, 58080, Tempo, 2199041
1, 58560, Tempo, 833281
1, 69144, Tempo, 830465
1, 69168, Tempo, 827649
1, 69192, Tempo, 824833
1, 69216, Tempo, 822273
1, 69240, Tempo, 819457
1, 69264, Tempo, 816897
1, 69288, Tempo, 814081
1, 69312, Tempo, 811521
1, 69336, Tempo, 808961
1, 69360, Tempo, 806401
1, 69384, Tempo, 803841
1, 69408, Tempo, 801281
1, 69432, Tempo, 798465
1, 69456, Tempo, 796161
1, 69480, Tempo, 793601
1, 69504, Tempo, 791041
1, 69528, Tempo, 788481
1, 69552, Tempo, 785921
1, 69576, Tempo, 783617
1, 69600, Tempo, 781057
1, 69624, Tempo, 778753
1, 69648, Tempo, 776193
1, 69672, Tempo, 773889
1, 69696, Tempo, 771585
1, 69720, Tempo, 769025
1, 69744, Tempo, 766721
1, 69768, Tempo, 764417
1, 69792, Tempo, 762113
1, 69816, Tempo, 759809
1, 69840, Tempo, 757505
1, 69864, Tempo, 755201
1, 69888, Tempo, 752897
1, 69912, Tempo, 750593
1, 69936, Tempo, 748289
1, 69960, Tempo, 746241
1, 69984, Tempo, 743937
1, 70008, Tempo, 741633
1, 70032, Tempo, 739585
1, 70056, Tempo, 737281
1, 70080, Tempo, 735233
1, 70104, Tempo, 732929
1, 70128, Tempo, 730881
1, 70152, Tempo, 728833
1, 70176, Tempo, 726529
1, 70200, Tempo, 724481
1, 70224, Tempo, 722433
1, 70248, Tempo, 720385
1, 70272, Tempo, 718337
1, 70296, Tempo, 716289
1, 70320, Tempo, 714241
1, 70344, Tempo, 712193
1, 70368, Tempo, 710145
1, 70392, Tempo, 708097
1, 70416, Tempo, 706049
1, 70440, Tempo, 704001
1, 70464, Tempo, 702209
1, 70488, Tempo, 700161
1, 70512, Tempo, 698113
1, 70536, Tempo, 696321
1, 70560, Tempo, 694273
1, 70584, Tempo, 692481
1, 70608, Tempo, 690433
1, 70632, Tempo, 688641
1, 70656, Tempo, 686593
1, 70680, Tempo, 684801
1, 70704, Tempo, 683009
1, 70728, Tempo, 680961
1, 70752, Tempo, 679169
1, 70776, Tempo, 677377
1, 70800, Tempo, 675585
1, 70824, Tempo, 673793
1, 70848, Tempo, 672001
1, 70872, Tempo, 670209
1, 70896, Tempo, 668417
1, 70920, Tempo, 666625
1, 76824, Tempo, 667649
1, 76848, Tempo, 668673
1, 76872, Tempo, 669697
1, 76896, Tempo, 670721
1, 76920, Tempo, 672001
1, 76944, Tempo, 673025
1, 76968, Tempo, 674049
1, 76992, Tempo, 675073
1, 77016, Tempo, 676097
1, 77040, Tempo, 677377
1, 77064, Tempo, 678401
1, 77088, Tempo, 679425
1, 77112, Tempo, 680705
1, 77136, Tempo, 681729
1, 77160, Tempo, 682753
1, 77184, Tempo, 684033
1, 77208, Tempo, 685057
1, 77232, Tempo, 686081
1, 77256, Tempo, 687361
1, 77280, Tempo, 688385
1, 77304, Tempo, 689409
1, 77328, Tempo, 690689
1, 77352, Tempo, 691713
1, 77376, Tempo, 692993
1, 77400, Tempo, 694017
1, 77424, Tempo, 695297
1, 77448, Tempo, 696321
1, 77472, Tempo, 697601
1, 77496, Tempo, 698625
1, 77520, Tempo, 699905
1, 77544, Tempo, 700929
1, 77568, Tempo, 702209
1, 77592, Tempo, 703489
1, 77616, Tempo, 704513
1, 77640, Tempo, 705793
1, 77664, Tempo, 707073
1, 77688, Tempo, 708097
1, 77712, Tempo, 709377
1, 77736, Tempo, 710657
1, 77760, Tempo, 711681
1, 77784, Tempo, 712961
1, 77808, Tempo, 714241
1, 77832, Tempo, 715265
1, 77856, Tempo, 716545
1, 77880, Tempo, 717825
1, 77904, Tempo, 719105
1, 77928, Tempo, 720385
1, 77952, Tempo, 721409
1, 77976, Tempo, 722689
1, 78000, Tempo, 723969
1, 78024, Tempo, 725249
1, 78048, Tempo, 726529
1, 78072, Tempo, 727809
1, 78096, Tempo, 729089
1, 78120, Tempo, 730369
1, 78144, Tempo, 731649
1, 78168, Tempo, 732929
1, 78192, Tempo, 734209
1, 78216, Tempo, 735489
1, 78240, Tempo, 736769
1, 78264, Tempo, 738049
1, 78288, Tempo, 739329
1, 78312, Tempo, 740609
1, 78336, Tempo, 741889
1, 78360, Tempo, 743169
1, 78384, Tempo, 744449
1, 78408, Tempo, 745985
1, 78432, Tempo, 747265
1, 78456, Tempo, 748545
1, 78480, Tempo, 749825
1, 78744, Tempo, 754433
1, 78768, Tempo, 759041
1, 78792, Tempo, 763905
1, 78816, Tempo, 768513
1, 78840, Tempo, 773377
1, 78864, Tempo, 778241
1, 78888, Tempo, 783105
1, 78912, Tempo, 788225
1, 78936, Tempo, 793345
1, 78960, Tempo, 798465
1, 78984, Tempo, 803585
1, 79008, Tempo, 808705
1, 79032, Tempo, 814081
1, 79056, Tempo, 819457
1, 79080, Tempo, 825089
1, 79104, Tempo, 830465
1, 79128, Tempo, 836097
1, 79152, Tempo, 841985
1, 79176, Tempo, 847617
1, 79200, Tempo, 853505
1, 79224, Tempo, 859393
1, 79248, Tempo, 865537
1, 79272, Tempo, 871681
1, 79296, Tempo, 877825
1, 79320, Tempo, 883969
1, 79344, Tempo, 890369
1, 79368, Tempo, 897025
1, 79392, Tempo, 903425
1, 79416, Tempo, 910081
1, 79440, Tempo, 916993
1, 79464, Tempo, 923649
1, 79488, Tempo, 930817
1, 79512, Tempo, 937729
1, 79536, Tempo, 944897
1, 79560, Tempo, 952321
1, 79680, Tempo, 681729
1, 90240, End_track
2, 0, Start_track
2, 0, Title_t, "Piano"
2, 0, Control_c, 0, 7, 108
2, 0, Control_c, 0, 0, 0
2, 0, Control_c, 0, 32, 0
2, 0, Program_c, 0, 0
2, 0, Control_c, 0, 1, 0
2, 0, Control_c, 0, 10, 64
2, 0, Control_c, 0, 91, 0
2, 0, Control_c, 0, 93, 0
2, 0, Key_signature, -1, "major"
2, 0, Key_signature, -1, "major"
2, 0, Note_on_c, 0, 41, 100
2, 0, Note_on_c, 0, 48, 100
2, 0, Note_on_c, 0, 57, 100
2, 0, Note_on_c, 0, 60, 100
2, 0, Note_on_c, 0, 72, 100
2, 228, Note_on_c, 0, 72, 0
2, 240, Note_on_c, 0, 71, 100
2, 468, Note_on_c, 0, 71, 0
2, 480, Note_on_c, 0, 70, 100
2, 708, Note_on_c, 0, 70, 0
2, 720, Note_on_c, 0, 69, 100
2, 936, Note_on_c, 0, 60, 0
2, 936, Note_on_c, 0, 57, 0
2, 936, Note_on_c, 0, 48, 0
2, 936, Note_on_c, 0, 41, 0
2, 948, Note_on_c, 0, 69, 0
2, 960, Note_on_c, 0, 60, 100
2, 960, Note_on_c, 0, 53, 100
2, 960, Note_on_c, 0, 58, 100
2, 960, Note_on_c, 0, 67, 100
2, 1074, Note_on_c, 0, 67, 0
2, 1080, Note_on_c, 0, 65, 100
2, 1194, Note_on_c, 0, 65, 0
2, 1200, Note_on_c, 0, 64, 100
2, 1314, Note_on_c, 0, 64, 0
2, 1320, Note_on_c, 0, 62, 100
2, 1416, Note_on_c, 0, 60, 0
2, 1434, Note_on_c, 0, 62, 0
2, 1440, Note_on_c, 0, 60, 100
2, 1896, Note_on_c, 0, 60, 0
2, 1896, Note_on_c, 0, 58, 0
2, 1896, Note_on_c, 0, 53, 0
2, 1920, Control_c, 0, 7, 85
2, 1920, Note_on_c, 0, 41, 100
2, 1920, Note_on_c, 0, 48, 100
2, 1920, Note_on_c, 0, 57, 100
2, 1920, Note_on_c, 0, 60, 100
2, 1920, Note_on_c, 0, 72, 100
2, 2148, Note_on_c, 0, 72, 0
2, 2160, Note_on_c, 0, 71, 100
2, 2388, Note_on_c, 0, 71, 0
2, 2400, Note_on_c, 0, 70, 100
2, 2628, Note_on_c, 0, 70, 0
2, 2640, Note_on_c, 0, 69, 100
2, 2856, Note_on_c, 0, 60, 0
2, 2856, Note_on_c, 0, 57, 0
2, 2856, Note_on_c, 0, 48, 0
2, 2856, Note_on_c, 0, 41, 0
2, 2868, Note_on_c, 0, 69, 0
2, 2880, Note_on_c, 0, 53, 100
2, 2880, Note_on_c, 0, 58, 100
2, 2880, Note_on_c, 0, 60, 100
2, 2880, Note_on_c, 0, 67, 100
2, 2994, Note_on_c, 0, 67, 0
2, 3000, Note_on_c, 0, 65, 100
2, 3114, Note_on_c, 0, 65, 0
2, 3120, Note_on_c, 0, 64, 100
2, 3234, Note_on_c, 0, 64, 0
2, 3240, Note_on_c, 0, 62, 100
2, 3336, Note_on_c, 0, 60, 0
2, 3354, Note_on_c, 0, 62, 0
2, 3360, Note_on_c, 0, 60, 100
2, 3816, Note_on_c, 0, 60, 0
2, 3816, Note_on_c, 0, 58, 0
2, 3816, Note_on_c, 0, 53, 0
2, 3840, Control_c, 0, 7, 90
2, 3840, Note_on_c, 0, 60, 100
2, 3840, Note_on_c, 0, 65, 100
2, 3840, Note_on_c, 0, 53, 100
2, 3840, Note_on_c, 0, 57, 100
2, 3875, Control_c, 0, 7, 91
2, 3946, Control_c, 0, 7, 92
2, 4016, Control_c, 0, 7, 93
2, 4086, Control_c, 0, 7, 94
2, 4157, Control_c, 0, 7, 95
2, 4192, Control_c, 0, 7, 96
2, 4262, Control_c, 0, 7, 97
2, 4296, Note_on_c, 0, 57, 0
2, 4296, Note_on_c, 0, 53, 0
2, 4296, Note_on_c, 0, 65, 0
2, 4296, Note_on_c, 0, 60, 0
2, 4320, Note_on_c, 0, 62, 100
2, 4320, Note_on_c, 0, 65, 100
2, 4320, Note_on_c, 0, 50, 100
2, 4320, Note_on_c, 0, 57, 100
2, 4332, Control_c, 0, 7, 98
2, 4403, Control_c, 0, 7, 99
2, 4474, Control_c, 0, 7, 100
2, 4544, Control_c, 0, 7, 101
2, 4579, Control_c, 0, 7, 102
2, 4649, Control_c, 0, 7, 103
2, 4720, Control_c, 0, 7, 104
2, 4776, Note_on_c, 0, 57, 0
2, 4776, Note_on_c, 0, 50, 0
2, 4776, Note_on_c, 0, 65, 0
2, 4776, Note_on_c, 0, 62, 0
2, 4790, Control_c, 0, 7, 105
2, 4800, Note_on_c, 0, 43, 100
2, 4800, Note_on_c, 0, 50, 100
2, 4800, Note_on_c, 0, 55, 100
2, 4800, Note_on_c, 0, 58, 100
2, 4800, Note_on_c, 0, 62, 100
2, 4800, Note_on_c, 0, 67, 100
2, 5736, Note_on_c, 0, 67, 0
2, 5736, Note_on_c, 0, 62, 0
2, 5736, Note_on_c, 0, 58, 0
2, 5736, Note_on_c, 0, 55, 0
2, 5736, Note_on_c, 0, 50, 0
2, 5736, Note_on_c, 0, 43, 0
2, 5760, Note_on_c, 0, 55, 100
2, 5760, Note_on_c, 0, 60, 100
2, 5760, Note_on_c, 0, 64, 100
2, 5760, Note_on_c, 0, 67, 100
2, 5760, Note_on_c, 0, 48, 100
2, 6696, Note_on_c, 0, 48, 0
2, 6696, Note_on_c, 0, 67, 0
2, 6696, Note_on_c, 0, 64, 0
2, 6696, Note_on_c, 0, 60, 0
2, 6696, Note_on_c, 0, 55, 0
2, 6720, Note_on_c, 0, 43, 100
2, 6720, Note_on_c, 0, 50, 100
2, 6720, Note_on_c, 0, 55, 100
2, 6720, Note_on_c, 0, 59, 100
2, 6720, Note_on_c, 0, 62, 100
2, 6720, Note_on_c, 0, 67, 100
2, 6755, Control_c, 0, 7, 104
2, 6790, Control_c, 0, 7, 103
2, 6826, Control_c, 0, 7, 102
2, 6896, Control_c, 0, 7, 101
2, 6931, Control_c, 0, 7, 100
2, 6966, Control_c, 0, 7, 99
2, 7001, Control_c, 0, 7, 98
2, 7037, Control_c, 0, 7, 97
2, 7107, Control_c, 0, 7, 96
2, 7142, Control_c, 0, 7, 95
2, 7177, Control_c, 0, 7, 94
2, 7212, Control_c, 0, 7, 93
2, 7248, Control_c, 0, 7, 92
2, 7318, Control_c, 0, 7, 91
2, 7354, Control_c, 0, 7, 90
2, 7389, Control_c, 0, 7, 89
2, 7424, Control_c, 0, 7, 88
2, 7459, Control_c, 0, 7, 87
2, 7529, Control_c, 0, 7, 86
2, 7560, Control_c, 0, 7, 85
2, 7656, Note_on_c, 0, 67, 0
2, 7656, Note_on_c, 0, 62, 0
2, 7656, Note_on_c, 0, 59, 0
2, 7656, Note_on_c, 0, 55, 0
2, 7656, Note_on_c, 0, 50, 0
2, 7656, Note_on_c, 0, 43, 0
2, 7680, Note_on_c, 0, 48, 100
2, 7680, Note_on_c, 0, 55, 100
2, 7680, Note_on_c, 0, 64, 100
2, 7680, Note_on_c, 0, 60, 100
2, 7680, Note_on_c, 0, 67, 100
2, 7908, Note_on_c, 0, 67, 0
2, 7920, Note_on_c, 0, 67, 100
2, 8034, Note_on_c, 0, 67, 0
2, 8040, Note_on_c, 0, 71, 100
2, 8154, Note_on_c, 0, 71, 0
2, 8160, Note_on_c, 0, 72, 100
2, 8388, Note_on_c, 0, 72, 0
2, 8400, Note_on_c, 0, 67, 100
2, 8514, Note_on_c, 0, 67, 0
2, 8520, Note_on_c, 0, 71, 100
2, 8634, Note_on_c, 0, 71, 0
2, 8640, Note_on_c, 0, 72, 100
2, 8868, Note_on_c, 0, 72, 0
2, 8880, Note_on_c, 0, 67, 100
2, 8915, Control_c, 0, 7, 86
2, 8950, Control_c, 0, 7, 87
2, 8994, Note_on_c, 0, 67, 0
2, 9000, Note_on_c, 0, 71, 100
2, 9021, Control_c, 0, 7, 88
2, 9056, Control_c, 0, 7, 89
2, 9091, Control_c, 0, 7, 90
2, 9114, Note_on_c, 0, 71, 0
2, 9120, Note_on_c, 0, 72, 100
2, 9126, Control_c, 0, 7, 91
2, 9161, Control_c, 0, 7, 92
2, 9232, Control_c, 0, 7, 93
2, 9234, Note_on_c, 0, 72, 0
2, 9240, Note_on_c, 0, 67, 100
2, 9267, Control_c, 0, 7, 94
2, 9302, Control_c, 0, 7, 95
2, 9337, Control_c, 0, 7, 96
2, 9354, Note_on_c, 0, 67, 0
2, 9360, Note_on_c, 0, 69, 100
2, 9408, Control_c, 0, 7, 97
2, 9443, Control_c, 0, 7, 98
2, 9474, Note_on_c, 0, 69, 0
2, 9478, Control_c, 0, 7, 99
2, 9480, Note_on_c, 0, 67, 100
2, 9576, Note_on_c, 0, 60, 0
2, 9594, Note_on_c, 0, 67, 0
2, 9600, Note_on_c, 0, 60, 100
2, 10194, Note_on_c, 0, 60, 0
2, 10200, Note_on_c, 0, 67, 100
2, 10235, Control_c, 0, 7, 98
2, 10270, Control_c, 0, 7, 96
2, 10306, Control_c, 0, 7, 95
2, 10314, Note_on_c, 0, 67, 0
2, 10320, Note_on_c, 0, 69, 100
2, 10341, Control_c, 0, 7, 94
2, 10376, Control_c, 0, 7, 92
2, 10411, Control_c, 0, 7, 91
2, 10434, Note_on_c, 0, 69, 0
2, 10440, Note_on_c, 0, 67, 100
2, 10446, Control_c, 0, 7, 89
2, 10481, Control_c, 0, 7, 88
2, 10517, Control_c, 0, 7, 87
2, 10552, Control_c, 0, 7, 85
2, 10554, Note_on_c, 0, 67, 0
2, 10560, Note_on_c, 0, 60, 100
2, 11472, Note_on_c, 0, 64, 0
2, 11472, Note_on_c, 0, 55, 0
2, 11472, Note_on_c, 0, 48, 0
2, 11496, Note_on_c, 0, 60, 0
2, 11520, Note_on_c, 0, 65, 100
2, 11520, Note_on_c, 0, 69, 100
2, 11520, Note_on_c, 0, 53, 100
2, 11520, Note_on_c, 0, 41, 100
2, 11748, Note_on_c, 0, 69, 0
2, 11748, Note_on_c, 0, 65, 0
2, 11760, Note_on_c, 0, 60, 100
2, 11988, Note_on_c, 0, 60, 0
2, 12000, Note_on_c, 0, 65, 100
2, 12000, Note_on_c, 0, 69, 100
2, 12228, Note_on_c, 0, 69, 0
2, 12228, Note_on_c, 0, 65, 0
2, 12240, Note_on_c, 0, 60, 100
2, 12456, Note_on_c, 0, 41, 0
2, 12456, Note_on_c, 0, 53, 0
2, 12468, Note_on_c, 0, 60, 0
2, 12480, Note_on_c, 0, 48, 100
2, 12480, Note_on_c, 0, 64, 100
2, 12480, Note_on_c, 0, 67, 100
2, 12708, Note_on_c, 0, 67, 0
2, 12708, Note_on_c, 0, 64, 0
2, 12720, Note_on_c, 0, 60, 100
2, 12936, Note_on_c, 0, 48, 0
2, 12948, Note_on_c, 0, 60, 0
2, 12960, Note_on_c, 0, 53, 100
2, 12960, Note_on_c, 0, 65, 100
2, 12960, Note_on_c, 0, 69, 100
2, 13188, Note_on_c, 0, 69, 0
2, 13188, Note_on_c, 0, 65, 0
2, 13200, Note_on_c, 0, 60, 100
2, 13416, Note_on_c, 0, 53, 0
2, 13428, Note_on_c, 0, 60, 0
2, 13440, Note_on_c, 0, 67, 100
2, 13440, Note_on_c, 0, 70, 100
2, 13440, Note_on_c, 0, 52, 100
2, 13668, Note_on_c, 0, 70, 0
2, 13668, Note_on_c, 0, 67, 0
2, 13680, Note_on_c, 0, 60, 100
2, 13908, Note_on_c, 0, 60, 0
2, 13920, Note_on_c, 0, 72, 100
2, 13920, Note_on_c, 0, 69, 100
2, 14079, Note_on_c, 0, 60, 100
2, 14224, Note_on_c, 0, 69, 0
2, 14224, Note_on_c, 0, 72, 0
2, 14231, Note_on_c, 0, 60, 0
2, 14239, Note_on_c, 0, 67, 100
2, 14239, Note_on_c, 0, 70, 100
2, 14376, Note_on_c, 0, 52, 0
2, 14390, Note_on_c, 0, 70, 0
2, 14390, Note_on_c, 0, 67, 0
2, 14400, Note_on_c, 0, 65, 100
2, 14400, Note_on_c, 0, 69, 100
2, 14400, Note_on_c, 0, 53, 100
2, 14628, Note_on_c, 0, 69, 0
2, 14628, Note_on_c, 0, 65, 0
2, 14640, Note_on_c, 0, 60, 100
2, 14868, Note_on_c, 0, 60, 0
2, 14880, Note_on_c, 0, 65, 100
2, 14880, Note_on_c, 0, 69, 100
2, 15108, Note_on_c, 0, 69, 0
2, 15108, Note_on_c, 0, 65, 0
2, 15120, Note_on_c, 0, 60, 100
2, 15336, Note_on_c, 0, 53, 0
2, 15348, Note_on_c, 0, 60, 0
2, 15360, Note_on_c, 0, 48, 100
2, 15360, Note_on_c, 0, 64, 100
2, 15360, Note_on_c, 0, 67, 100
2, 15588, Note_on_c, 0, 67, 0
2, 15588, Note_on_c, 0, 64, 0
2, 15600, Note_on_c, 0, 55, 100
2, 15828, Note_on_c, 0, 55, 0
2, 15840, Note_on_c, 0, 60, 100
2, 15840, Note_on_c, 0, 64, 100
2, 16068, Note_on_c, 0, 64, 0
2, 16068, Note_on_c, 0, 60, 0
2, 16080, Note_on_c, 0, 55, 100
2, 16296, Note_on_c, 0, 48, 0
2, 16308, Note_on_c, 0, 55, 0
2, 16320, Note_on_c, 0, 36, 100
2, 16320, Note_on_c, 0, 62, 100
2, 16320, Note_on_c, 0, 65, 100
2, 16320, Note_on_c, 0, 59, 100
2, 16548, Note_on_c, 0, 59, 0
2, 16548, Note_on_c, 0, 65, 0
2, 16548, Note_on_c, 0, 62, 0
2, 16560, Note_on_c, 0, 55, 100
2, 16788, Note_on_c, 0, 55, 0
2, 16800, Note_on_c, 0, 65, 100
2, 16800, Note_on_c, 0, 62, 100
2, 16800, Note_on_c, 0, 59, 100
2, 17028, Note_on_c, 0, 59, 0
2, 17028, Note_on_c, 0, 62, 0
2, 17028, Note_on_c, 0, 65, 0
2, 17040, Note_on_c, 0, 55, 100
2, 17268, Note_on_c, 0, 55, 0
2, 17280, Note_on_c, 0, 48, 100
2, 17280, Note_on_c, 0, 61, 100
2, 17280, Note_on_c, 0, 65, 100
2, 17280, Note_on_c, 0, 58, 100
2, 17508, Note_on_c, 0, 58, 0
2, 17508, Note_on_c, 0, 65, 0
2, 17508, Note_on_c, 0, 61, 0
2, 17520, Note_on_c, 0, 55, 100
2, 17748, Note_on_c, 0, 55, 0
2, 17760, Note_on_c, 0, 64, 100
2, 17760, Note_on_c, 0, 60, 100
2, 17988, Note_on_c, 0, 60, 0
2, 17988, Note_on_c, 0, 64, 0
2, 18000, Note_on_c, 0, 58, 100
2, 18216, Note_on_c, 0, 36, 0
2, 18216, Note_on_c, 0, 48, 0
2, 18228, Note_on_c, 0, 58, 0
2, 18240, Note_on_c, 0, 65, 100
2, 18240, Note_on_c, 0, 57, 100
2, 18240, Note_on_c, 0, 41, 100
2, 18468, Note_on_c, 0, 57, 0
2, 18468, Note_on_c, 0, 65, 0
2, 18480, Note_on_c, 0, 60, 100
2, 18708, Note_on_c, 0, 60, 0
2, 18720, Note_on_c, 0, 57, 100
2, 18948, Note_on_c, 0, 57, 0
2, 18960, Note_on_c, 0, 60, 100
2, 19188, Note_on_c, 0, 60, 0
2, 19200, Note_on_c, 0, 53, 100
2, 19200, Note_on_c, 0, 65, 100
2, 19200, Note_on_c, 0, 69, 100
2, 19428, Note_on_c, 0, 69, 0
2, 19428, Note_on_c, 0, 65, 0
2, 19440, Note_on_c, 0, 60, 100
2, 19668, Note_on_c, 0, 60, 0
2, 19680, Note_on_c, 0, 65, 100
2, 19680, Note_on_c, 0, 69, 100
2, 19908, Note_on_c, 0, 69, 0
2, 19908, Note_on_c, 0, 65, 0
2, 19920, Note_on_c, 0, 60, 100
2, 20136, Note_on_c, 0, 41, 0
2, 20136, Note_on_c, 0, 53, 0
2, 20148, Note_on_c, 0, 60, 0
2, 20160, Note_on_c, 0, 64, 100
2, 20160, Note_on_c, 0, 67, 100
2, 20160, Note_on_c, 0, 48, 100
2, 20388, Note_on_c, 0, 67, 0
2, 20388, Note_on_c, 0, 64, 0
2, 20400, Note_on_c, 0, 60, 100
2, 20616, Note_on_c, 0, 48, 0
2, 20628, Note_on_c, 0, 60, 0
2, 20640, Note_on_c, 0, 69, 100
2, 20640, Note_on_c, 0, 65, 100
2, 20640, Note_on_c, 0, 53, 100
2, 20868, Note_on_c, 0, 65, 0
2, 20868, Note_on_c, 0, 69, 0
2, 20880, Note_on_c, 0, 60, 100
2, 21096, Note_on_c, 0, 53, 0
2, 21108, Note_on_c, 0, 60, 0
2, 21120, Note_on_c, 0, 52, 100
2, 21120, Note_on_c, 0, 70, 100
2, 21120, Note_on_c, 0, 67, 100
2, 21348, Note_on_c, 0, 67, 0
2, 21348, Note_on_c, 0, 70, 0
2, 21360, Note_on_c, 0, 60, 100
2, 21588, Note_on_c, 0, 60, 0
2, 21600, Note_on_c, 0, 72, 100
2, 21600, Note_on_c, 0, 69, 100
2, 21759, Note_on_c, 0, 60, 100
2, 21904, Note_on_c, 0, 69, 0
2, 21904, Note_on_c, 0, 72, 0
2, 21911, Note_on_c, 0, 60, 0
2, 21919, Note_on_c, 0, 67, 100
2, 21919, Note_on_c, 0, 70, 100
2, 22056, Note_on_c, 0, 52, 0
2, 22070, Note_on_c, 0, 70, 0
2, 22070, Note_on_c, 0, 67, 0
2, 22080, Note_on_c, 0, 53, 100
2, 22080, Note_on_c, 0, 65, 100
2, 22080, Note_on_c, 0, 69, 100
2, 22308, Note_on_c, 0, 69, 0
2, 22308, Note_on_c, 0, 65, 0
2, 22320, Note_on_c, 0, 60, 100
2, 22548, Note_on_c, 0, 60, 0
2, 22560, Note_on_c, 0, 65, 100
2, 22560, Note_on_c, 0, 69, 100
2, 22788, Note_on_c, 0, 69, 0
2, 22788, Note_on_c, 0, 65, 0
2, 22800, Note_on_c, 0, 60, 100
2, 23016, Note_on_c, 0, 53, 0
2, 23028, Note_on_c, 0, 60, 0
2, 23040, Note_on_c, 0, 48, 100
2, 23040, Note_on_c, 0, 64, 100
2, 23040, Note_on_c, 0, 67, 100
2, 23268, Note_on_c, 0, 67, 0
2, 23268, Note_on_c, 0, 64, 0
2, 23280, Note_on_c, 0, 55, 100
2, 23508, Note_on_c, 0, 55, 0
2, 23520, Note_on_c, 0, 60, 100
2, 23520, Note_on_c, 0, 64, 100
2, 23748, Note_on_c, 0, 64, 0
2, 23748, Note_on_c, 0, 60, 0
2, 23760, Note_on_c, 0, 55, 100
2, 23976, Note_on_c, 0, 48, 0
2, 23988, Note_on_c, 0, 55, 0
2, 24000, Note_on_c, 0, 36, 100
2, 24000, Note_on_c, 0, 62, 100
2, 24000, Note_on_c, 0, 65, 100
2, 24000, Note_on_c, 0, 59, 100
2, 24228, Note_on_c, 0, 59, 0
2, 24228, Note_on_c, 0, 65, 0
2, 24228, Note_on_c, 0, 62, 0
2, 24240, Note_on_c, 0, 55, 100
2, 24468, Note_on_c, 0, 55, 0
2, 24480, Note_on_c, 0, 65, 100
2, 24480, Note_on_c, 0, 62, 100
2, 24480, Note_on_c, 0, 59, 100
2, 24708, Note_on_c, 0, 59, 0
2, 24708, Note_on_c, 0, 62, 0
2, 24708, Note_on_c, 0, 65, 0
2, 24720, Note_on_c, 0, 55, 100
2, 24948, Note_on_c, 0, 55, 0
2, 24960, Note_on_c, 0, 48, 100
2, 24960, Note_on_c, 0, 61, 100
2, 24960, Note_on_c, 0, 65, 100
2, 24960, Note_on_c, 0, 58, 100
2, 25188, Note_on_c, 0, 58, 0
2, 25188, Note_on_c, 0, 65, 0
2, 25188, Note_on_c, 0, 61, 0
2, 25200, Note_on_c, 0, 55, 100
2, 25428, Note_on_c, 0, 55, 0
2, 25440, Note_on_c, 0, 64, 100
2, 25440, Note_on_c, 0, 60, 100
2, 25668, Note_on_c, 0, 60, 0
2, 25668, Note_on_c, 0, 64, 0
2, 25680, Note_on_c, 0, 58, 100
2, 25896, Note_on_c, 0, 48, 0
2, 25896, Note_on_c, 0, 36, 0
2, 25908, Note_on_c, 0, 58, 0
2, 25920, Note_on_c, 0, 65, 100
2, 25920, Note_on_c, 0, 57, 100
2, 25920, Note_on_c, 0, 41, 100
2, 25990, Control_c, 0, 7, 84
2, 26061, Control_c, 0, 7, 83
2, 26131, Control_c, 0, 7, 82
2, 26148, Note_on_c, 0, 57, 0
2, 26148, Note_on_c, 0, 65, 0
2, 26160, Note_on_c, 0, 57, 100
2, 26160, Note_on_c, 0, 69, 100
2, 26201, Control_c, 0, 7, 81
2, 26272, Control_c, 0, 7, 80
2, 26342, Control_c, 0, 7, 79
2, 26376, Note_on_c, 0, 41, 0
2, 26388, Note_on_c, 0, 69, 0
2, 26388, Note_on_c, 0, 57, 0
2, 26400, Note_on_c, 0, 57, 100
2, 26400, Note_on_c, 0, 69, 100
2, 26448, Control_c, 0, 7, 78
2, 26518, Control_c, 0, 7, 77
2, 26589, Control_c, 0, 7, 76
2, 26628, Note_on_c, 0, 69, 0
2, 26628, Note_on_c, 0, 57, 0
2, 26640, Note_on_c, 0, 57, 100
2, 26640, Note_on_c, 0, 69, 100
2, 26659, Control_c, 0, 7, 75
2, 26729, Control_c, 0, 7, 74
2, 26868, Note_on_c, 0, 69, 0
2, 26868, Note_on_c, 0, 57, 0
2, 26880, Note_on_c, 0, 62, 100
2, 26880, Note_on_c, 0, 65, 100
2, 26880, Note_on_c, 0, 69, 100
2, 27066, Note_on_c, 0, 69, 0
2, 27066, Note_on_c, 0, 65, 0
2, 27066, Note_on_c, 0, 62, 0
2, 27120, Note_on_c, 0, 62, 100
2, 27120, Note_on_c, 0, 65, 100
2, 27120, Note_on_c, 0, 69, 100
2, 27306, Note_on_c, 0, 69, 0
2, 27306, Note_on_c, 0, 65, 0
2, 27306, Note_on_c, 0, 62, 0
2, 27360, Note_on_c, 0, 62, 100
2, 27360, Note_on_c, 0, 65, 100
2, 27360, Note_on_c, 0, 69, 100
2, 27546, Note_on_c, 0, 69, 0
2, 27546, Note_on_c, 0, 65, 0
2, 27546, Note_on_c, 0, 62, 0
2, 27600, Note_on_c, 0, 62, 100
2, 27600, Note_on_c, 0, 65, 100
2, 27600, Note_on_c, 0, 69, 100
2, 27786, Note_on_c, 0, 69, 0
2, 27786, Note_on_c, 0, 65, 0
2, 27786, Note_on_c, 0, 62, 0
2, 27840, Note_on_c, 0, 62, 100
2, 27840, Note_on_c, 0, 65, 100
2, 27840, Note_on_c, 0, 69, 100
2, 28026, Note_on_c, 0, 69, 0
2, 28026, Note_on_c, 0, 65, 0
2, 28026, Note_on_c, 0, 62, 0
2, 28080, Note_on_c, 0, 62, 100
2, 28080, Note_on_c, 0, 65, 100
2, 28080, Note_on_c, 0, 69, 100
2, 28266, Note_on_c, 0, 69, 0
2, 28266, Note_on_c, 0, 65, 0
2, 28266, Note_on_c, 0, 62, 0
2, 28320, Note_on_c, 0, 62, 100
2, 28320, Note_on_c, 0, 65, 100
2, 28320, Note_on_c, 0, 69, 100
2, 28506, Note_on_c, 0, 69, 0
2, 28506, Note_on_c, 0, 65, 0
2, 28506, Note_on_c, 0, 62, 0
2, 28560, Note_on_c, 0, 62, 100
2, 28560, Note_on_c, 0, 65, 100
2, 28560, Note_on_c, 0, 69, 100
2, 28746, Note_on_c, 0, 69, 0
2, 28746, Note_on_c, 0, 65, 0
2, 28746, Note_on_c, 0, 62, 0
2, 28800, Note_on_c, 0, 64, 100
2, 28800, Note_on_c, 0, 69, 100
2, 28800, Note_on_c, 0, 57, 100
2, 28800, Note_on_c, 0, 60, 100
2, 28986, Note_on_c, 0, 60, 0
2, 28986, Note_on_c, 0, 57, 0
2, 28986, Note_on_c, 0, 69, 0
2, 28986, Note_on_c, 0, 64, 0
2, 29040, Note_on_c, 0, 64, 100
2, 29040, Note_on_c, 0, 69, 100
2, 29040, Note_on_c, 0, 57, 100
2, 29040, Note_on_c, 0, 60, 100
2, 29226, Note_on_c, 0, 60, 0
2, 29226, Note_on_c, 0, 57, 0
2, 29226, Note_on_c, 0, 69, 0
2, 29226, Note_on_c, 0, 64, 0
2, 29280, Note_on_c, 0, 64, 100
2, 29280, Note_on_c, 0, 69, 100
2, 29280, Note_on_c, 0, 57, 100
2, 29280, Note_on_c, 0, 60, 100
2, 29466, Note_on_c, 0, 60, 0
2, 29466, Note_on_c, 0, 57, 0
2, 29466, Note_on_c, 0, 69, 0
2, 29466, Note_on_c, 0, 64, 0
2, 29520, Note_on_c, 0, 64, 100
2, 29520, Note_on_c, 0, 69, 100
2, 29520, Note_on_c, 0, 57, 100
2, 29520, Note_on_c, 0, 60, 100
2, 29706, Note_on_c, 0, 60, 0
2, 29706, Note_on_c, 0, 57, 0
2, 29706, Note_on_c, 0, 69, 0
2, 29706, Note_on_c, 0, 64, 0
2, 29760, Note_on_c, 0, 60, 100
2, 29760, Note_on_c, 0, 64, 100
2, 29760, Note_on_c, 0, 67, 100
2, 29946, Note_on_c, 0, 67, 0
2, 29946, Note_on_c, 0, 64, 0
2, 29946, Note_on_c, 0, 60, 0
2, 30000, Note_on_c, 0, 60, 100
2, 30000, Note_on_c, 0, 64, 100
2, 30000, Note_on_c, 0, 67, 100
2, 30186, Note_on_c, 0, 67, 0
2, 30186, Note_on_c, 0, 64, 0
2, 30186, Note_on_c, 0, 60, 0
2, 30240, Note_on_c, 0, 60, 100
2, 30240, Note_on_c, 0, 64, 100
2, 30240, Note_on_c, 0, 67, 100
2, 30426, Note_on_c, 0, 67, 0
2, 30426, Note_on_c, 0, 64, 0
2, 30426, Note_on_c, 0, 60, 0
2, 30480, Note_on_c, 0, 60, 100
2, 30480, Note_on_c, 0, 64, 100
2, 30480, Note_on_c, 0, 67, 100
2, 30666, Note_on_c, 0, 67, 0
2, 30666, Note_on_c, 0, 64, 0
2, 30666, Note_on_c, 0, 60, 0
2, 30720, Note_on_c, 0, 63, 100
2, 30720, Note_on_c, 0, 67, 100
2, 30720, Note_on_c, 0, 60, 100
2, 30906, Note_on_c, 0, 60, 0
2, 30906, Note_on_c, 0, 67, 0
2, 30906, Note_on_c, 0, 63, 0
2, 30960, Note_on_c, 0, 63, 100
2, 30960, Note_on_c, 0, 67, 100
2, 30960, Note_on_c, 0, 60, 100
2, 31146, Note_on_c, 0, 60, 0
2, 31146, Note_on_c, 0, 67, 0
2, 31146, Note_on_c, 0, 63, 0
2, 31200, Note_on_c, 0, 63, 100
2, 31200, Note_on_c, 0, 67, 100
2, 31200, Note_on_c, 0, 60, 100
2, 31386, Note_on_c, 0, 60, 0
2, 31386, Note_on_c, 0, 67, 0
2, 31386, Note_on_c, 0, 63, 0
2, 31440, Note_on_c, 0, 63, 100
2, 31440, Note_on_c, 0, 67, 100
2, 31440, Note_on_c, 0, 60, 100
2, 31626, Note_on_c, 0, 60, 0
2, 31626, Note_on_c, 0, 67, 0
2, 31626, Note_on_c, 0, 63, 0
2, 31680, Control_c, 0, 7, 86
2, 31680, Note_on_c, 0, 53, 100
2, 31680, Note_on_c, 0, 63, 100
2, 31680, Note_on_c, 0, 60, 100
2, 31680, Note_on_c, 0, 69, 100
2, 31715, Control_c, 0, 7, 85
2, 31786, Control_c, 0, 7, 84
2, 31856, Control_c, 0, 7, 83
2, 31866, Note_on_c, 0, 69, 0
2, 31866, Note_on_c, 0, 60, 0
2, 31866, Note_on_c, 0, 63, 0
2, 31866, Note_on_c, 0, 53, 0
2, 31920, Note_on_c, 0, 53, 100
2, 31920, Note_on_c, 0, 63, 100
2, 31920, Note_on_c, 0, 60, 100
2, 31920, Note_on_c, 0, 69, 100
2, 31926, Control_c, 0, 7, 82
2, 31997, Control_c, 0, 7, 81
2, 32067, Control_c, 0, 7, 80
2, 32106, Note_on_c, 0, 69, 0
2, 32106, Note_on_c, 0, 60, 0
2, 32106, Note_on_c, 0, 63, 0
2, 32106, Note_on_c, 0, 53, 0
2, 32137, Control_c, 0, 7, 79
2, 32160, Note_on_c, 0, 53, 100
2, 32160, Note_on_c, 0, 63, 100
2, 32160, Note_on_c, 0, 60, 100
2, 32160, Note_on_c, 0, 69, 100
2, 32208, Control_c, 0, 7, 78
2, 32278, Control_c, 0, 7, 77
2, 32346, Note_on_c, 0, 69, 0
2, 32346, Note_on_c, 0, 60, 0
2, 32346, Note_on_c, 0, 63, 0
2, 32346, Note_on_c, 0, 53, 0
2, 32349, Control_c, 0, 7, 76
2, 32400, Note_on_c, 0, 53, 100
2, 32400, Note_on_c, 0, 63, 100
2, 32400, Note_on_c, 0, 60, 100
2, 32400, Note_on_c, 0, 69, 100
2, 32419, Control_c, 0, 7, 75
2, 32489, Control_c, 0, 7, 74
2, 32586, Note_on_c, 0, 69, 0
2, 32586, Note_on_c, 0, 60, 0
2, 32586, Note_on_c, 0, 63, 0
2, 32586, Note_on_c, 0, 53, 0
2, 32640, Note_on_c, 0, 62, 100
2, 32640, Note_on_c, 0, 70, 100
2, 32640, Note_on_c, 0, 58, 100
2, 32826, Note_on_c, 0, 58, 0
2, 32826, Note_on_c, 0, 70, 0
2, 32826, Note_on_c, 0, 62, 0
2, 32880, Note_on_c, 0, 62, 100
2, 32880, Note_on_c, 0, 70, 100
2, 32880, Note_on_c, 0, 58, 100
2, 33066, Note_on_c, 0, 58, 0
2, 33066, Note_on_c, 0, 70, 0
2, 33066, Note_on_c, 0, 62, 0
2, 33120, Note_on_c, 0, 62, 100
2, 33120, Note_on_c, 0, 70, 100
2, 33120, Note_on_c, 0, 58, 100
2, 33306, Note_on_c, 0, 58, 0
2, 33306, Note_on_c, 0, 70, 0
2, 33306, Note_on_c, 0, 62, 0
2, 33360, Note_on_c, 0, 62, 100
2, 33360, Note_on_c, 0, 70, 100
2, 33360, Note_on_c, 0, 58, 100
2, 33546, Note_on_c, 0, 58, 0
2, 33546, Note_on_c, 0, 70, 0
2, 33546, Note_on_c, 0, 62, 0
2, 33600, Note_on_c, 0, 62, 100
2, 33600, Note_on_c, 0, 65, 100
2, 33600, Note_on_c, 0, 58, 100
2, 33786, Note_on_c, 0, 58, 0
2, 33786, Note_on_c, 0, 65, 0
2, 33786, Note_on_c, 0, 62, 0
2, 33840, Note_on_c, 0, 62, 100
2, 33840, Note_on_c, 0, 65, 100
2, 33840, Note_on_c, 0, 58, 100
2, 34026, Note_on_c, 0, 58, 0
2, 34026, Note_on_c, 0, 65, 0
2, 34026, Note_on_c, 0, 62, 0
2, 34080, Note_on_c, 0, 62, 100
2, 34080, Note_on_c, 0, 65, 100
2, 34080, Note_on_c, 0, 57, 100
2, 34266, Note_on_c, 0, 57, 0
2, 34266, Note_on_c, 0, 65, 0
2, 34266, Note_on_c, 0, 62, 0
2, 34320, Note_on_c, 0, 62, 100
2, 34320, Note_on_c, 0, 65, 100
2, 34320, Note_on_c, 0, 57, 100
2, 34506, Note_on_c, 0, 57, 0
2, 34506, Note_on_c, 0, 65, 0
2, 34506, Note_on_c, 0, 62, 0
2, 34560, Note_on_c, 0, 55, 100
2, 34560, Note_on_c, 0, 62, 100
2, 34560, Note_on_c, 0, 64, 100
2, 34746, Note_on_c, 0, 64, 0
2, 34746, Note_on_c, 0, 62, 0
2, 34746, Note_on_c, 0, 55, 0
2, 34800, Note_on_c, 0, 55, 100
2, 34800, Note_on_c, 0, 62, 100
2, 34800, Note_on_c, 0, 64, 100
2, 34986, Note_on_c, 0, 64, 0
2, 34986, Note_on_c, 0, 62, 0
2, 34986, Note_on_c, 0, 55, 0
2, 35040, Note_on_c, 0, 55, 100
2, 35040, Note_on_c, 0, 62, 100
2, 35040, Note_on_c, 0, 64, 100
2, 35226, Note_on_c, 0, 64, 0
2, 35226, Note_on_c, 0, 62, 0
2, 35226, Note_on_c, 0, 55, 0
2, 35280, Note_on_c, 0, 55, 100
2, 35280, Note_on_c, 0, 62, 100
2, 35280, Note_on_c, 0, 64, 100
2, 35466, Note_on_c, 0, 64, 0
2, 35466, Note_on_c, 0, 62, 0
2, 35466, Note_on_c, 0, 55, 0
2, 35520, Note_on_c, 0, 55, 100
2, 35520, Note_on_c, 0, 61, 100
2, 35520, Note_on_c, 0, 64, 100
2, 35520, Note_on_c, 0, 57, 100
2, 35706, Note_on_c, 0, 57, 0
2, 35706, Note_on_c, 0, 64, 0
2, 35706, Note_on_c, 0, 61, 0
2, 35706, Note_on_c, 0, 55, 0
2, 35760, Note_on_c, 0, 55, 100
2, 35760, Note_on_c, 0, 61, 100
2, 35760, Note_on_c, 0, 64, 100
2, 35760, Note_on_c, 0, 57, 100
2, 35946, Note_on_c, 0, 57, 0
2, 35946, Note_on_c, 0, 64, 0
2, 35946, Note_on_c, 0, 61, 0
2, 35946, Note_on_c, 0, 55, 0
2, 36000, Note_on_c, 0, 53, 100
2, 36000, Note_on_c, 0, 62, 100
2, 36000, Note_on_c, 0, 65, 100
2, 36000, Note_on_c, 0, 57, 100
2, 36186, Note_on_c, 0, 57, 0
2, 36186, Note_on_c, 0, 65, 0
2, 36186, Note_on_c, 0, 62, 0
2, 36186, Note_on_c, 0, 53, 0
2, 36240, Note_on_c, 0, 53, 100
2, 36240, Note_on_c, 0, 62, 100
2, 36240, Note_on_c, 0, 65, 100
2, 36240, Note_on_c, 0, 57, 100
2, 36426, Note_on_c, 0, 57, 0
2, 36426, Note_on_c, 0, 65, 0
2, 36426, Note_on_c, 0, 62, 0
2, 36426, Note_on_c, 0, 53, 0
2, 36480, Control_c, 0, 7, 76
2, 36480, Note_on_c, 0, 52, 100
2, 36480, Note_on_c, 0, 62, 100
2, 36480, Note_on_c, 0, 67, 100
2, 36480, Note_on_c, 0, 58, 100
2, 36586, Control_c, 0, 7, 75
2, 36666, Note_on_c, 0, 58, 0
2, 36666, Note_on_c, 0, 67, 0
2, 36666, Note_on_c, 0, 62, 0
2, 36666, Note_on_c, 0, 52, 0
2, 36720, Note_on_c, 0, 52, 100
2, 36720, Note_on_c, 0, 62, 100
2, 36720, Note_on_c, 0, 67, 100
2, 36720, Note_on_c, 0, 58, 100
2, 36726, Control_c, 0, 7, 74
2, 36902, Control_c, 0, 7, 73
2, 36906, Note_on_c, 0, 58, 0
2, 36906, Note_on_c, 0, 67, 0
2, 36906, Note_on_c, 0, 62, 0
2, 36906, Note_on_c, 0, 52, 0
2, 36960, Note_on_c, 0, 45, 100
2, 36960, Note_on_c, 0, 61, 100
2, 36960, Note_on_c, 0, 67, 100
2, 36960, Note_on_c, 0, 57, 100
2, 37043, Control_c, 0, 7, 72
2, 37146, Note_on_c, 0, 57, 0
2, 37146, Note_on_c, 0, 67, 0
2, 37146, Note_on_c, 0, 61, 0
2, 37146, Note_on_c, 0, 45, 0
2, 37200, Note_on_c, 0, 45, 100
2, 37200, Note_on_c, 0, 61, 100
2, 37200, Note_on_c, 0, 67, 100
2, 37200, Note_on_c, 0, 57, 100
2, 37219, Control_c, 0, 7, 71
2, 37360, Control_c, 0, 7, 70
2, 37386, Note_on_c, 0, 57, 0
2, 37386, Note_on_c, 0, 67, 0
2, 37386, Note_on_c, 0, 61, 0
2, 37386, Note_on_c, 0, 45, 0
2, 37440, Note_on_c, 0, 62, 100
2, 37440, Note_on_c, 0, 65, 100
2, 37440, Note_on_c, 0, 50, 100
2, 37896, Note_on_c, 0, 50, 0
2, 37896, Note_on_c, 0, 65, 0
2, 37896, Note_on_c, 0, 62, 0
2, 38400, Control_c, 0, 7, 90
2, 38400, Note_on_c, 0, 46, 100
2, 38400, Note_on_c, 0, 34, 100
2, 38640, Note_on_c, 0, 52, 100
2, 38640, Note_on_c, 0, 56, 100
2, 38640, Note_on_c, 0, 62, 100
2, 38640, Note_on_c, 0, 64, 100
2, 38710, Control_c, 0, 7, 89
2, 38781, Control_c, 0, 7, 88
2, 38851, Control_c, 0, 7, 87
2, 38868, Note_on_c, 0, 64, 0
2, 38868, Note_on_c, 0, 62, 0
2, 38868, Note_on_c, 0, 56, 0
2, 38868, Note_on_c, 0, 52, 0
2, 38880, Note_on_c, 0, 52, 100
2, 38880, Note_on_c, 0, 56, 100
2, 38880, Note_on_c, 0, 62, 100
2, 38880, Note_on_c, 0, 64, 100
2, 38921, Control_c, 0, 7, 86
2, 38992, Control_c, 0, 7, 85
2, 39062, Control_c, 0, 7, 84
2, 39108, Note_on_c, 0, 34, 0
2, 39108, Note_on_c, 0, 46, 0
2, 39120, Note_on_c, 0, 46, 100
2, 39120, Note_on_c, 0, 34, 100
2, 39132, Control_c, 0, 7, 83
2, 39203, Control_c, 0, 7, 82
2, 39274, Control_c, 0, 7, 81
2, 39336, Note_on_c, 0, 64, 0
2, 39336, Note_on_c, 0, 62, 0
2, 39336, Note_on_c, 0, 56, 0
2, 39336, Note_on_c, 0, 52, 0
2, 39344, Control_c, 0, 7, 80
2, 39348, Note_on_c, 0, 34, 0
2, 39348, Note_on_c, 0, 46, 0
2, 39360, Note_on_c, 0, 45, 100
2, 39360, Note_on_c, 0, 33, 100
2, 39600, Note_on_c, 0, 52, 100
2, 39600, Note_on_c, 0, 57, 100
2, 39600, Note_on_c, 0, 61, 100
2, 39600, Note_on_c, 0, 64, 100
2, 39828, Note_on_c, 0, 64, 0
2, 39828, Note_on_c, 0, 61, 0
2, 39828, Note_on_c, 0, 57, 0
2, 39828, Note_on_c, 0, 52, 0
2, 39840, Note_on_c, 0, 52, 100
2, 39840, Note_on_c, 0, 57, 100
2, 39840, Note_on_c, 0, 61, 100
2, 39840, Note_on_c, 0, 64, 100
2, 39875, Control_c, 0, 7, 79
2, 39910, Control_c, 0, 7, 78
2, 39946, Control_c, 0, 7, 77
2, 39981, Control_c, 0, 7, 76
2, 40016, Control_c, 0, 7, 75
2, 40051, Control_c, 0, 7, 74
2, 40068, Note_on_c, 0, 33, 0
2, 40068, Note_on_c, 0, 45, 0
2, 40080, Note_on_c, 0, 45, 100
2, 40080, Note_on_c, 0, 33, 100
2, 40086, Control_c, 0, 7, 73
2, 40121, Control_c, 0, 7, 72
2, 40157, Control_c, 0, 7, 71
2, 40192, Control_c, 0, 7, 70
2, 40296, Note_on_c, 0, 64, 0
2, 40296, Note_on_c, 0, 61, 0
2, 40296, Note_on_c, 0, 57, 0
2, 40296, Note_on_c, 0, 52, 0
2, 40308, Note_on_c, 0, 33, 0
2, 40308, Note_on_c, 0, 45, 0
2, 40320, Note_on_c, 0, 46, 100
2, 40320, Note_on_c, 0, 34, 100
2, 40560, Note_on_c, 0, 52, 100
2, 40560, Note_on_c, 0, 56, 100
2, 40560, Note_on_c, 0, 62, 100
2, 40560, Note_on_c, 0, 64, 100
2, 40788, Note_on_c, 0, 64, 0
2, 40788, Note_on_c, 0, 62, 0
2, 40788, Note_on_c, 0, 56, 0
2, 40788, Note_on_c, 0, 52, 0
2, 40800, Note_on_c, 0, 52, 100
2, 40800, Note_on_c, 0, 56, 100
2, 40800, Note_on_c, 0, 62, 100
2, 40800, Note_on_c, 0, 64, 100
2, 41028, Note_on_c, 0, 34, 0
2, 41028, Note_on_c, 0, 46, 0
2, 41040, Note_on_c, 0, 46, 100
2, 41040, Note_on_c, 0, 34, 100
2, 41256, Note_on_c, 0, 64, 0
2, 41256, Note_on_c, 0, 62, 0
2, 41256, Note_on_c, 0, 56, 0
2, 41256, Note_on_c, 0, 52, 0
2, 41268, Note_on_c, 0, 34, 0
2, 41268, Note_on_c, 0, 46, 0
2, 41280, Note_on_c, 0, 45, 100
2, 41280, Note_on_c, 0, 33, 100
2, 41520, Note_on_c, 0, 52, 100
2, 41520, Note_on_c, 0, 57, 100
2, 41520, Note_on_c, 0, 61, 100
2, 41520, Note_on_c, 0, 64, 100
2, 41748, Note_on_c, 0, 64, 0
2, 41748, Note_on_c, 0, 61, 0
2, 41748, Note_on_c, 0, 57, 0
2, 41748, Note_on_c, 0, 52, 0
2, 41760, Note_on_c, 0, 52, 100
2, 41760, Note_on_c, 0, 57, 100
2, 41760, Note_on_c, 0, 61, 100
2, 41760, Note_on_c, 0, 64, 100
2, 41988, Note_on_c, 0, 33, 0
2, 41988, Note_on_c, 0, 45, 0
2, 42000, Note_on_c, 0, 45, 100
2, 42000, Note_on_c, 0, 33, 100
2, 42216, Note_on_c, 0, 64, 0
2, 42216, Note_on_c, 0, 61, 0
2, 42216, Note_on_c, 0, 57, 0
2, 42216, Note_on_c, 0, 52, 0
2, 42228, Note_on_c, 0, 33, 0
2, 42228, Note_on_c, 0, 45, 0
2, 42240, Control_c, 0, 7, 67
2, 42240, Note_on_c, 0, 45, 100
2, 42240, Note_on_c, 0, 60, 100
2, 42240, Note_on_c, 0, 63, 100
2, 42240, Note_on_c, 0, 65, 100
2, 42240, Note_on_c, 0, 53, 100
2, 42381, Control_c, 0, 7, 68
2, 42444, Note_on_c, 0, 53, 0
2, 42444, Note_on_c, 0, 65, 0
2, 42444, Note_on_c, 0, 63, 0
2, 42444, Note_on_c, 0, 60, 0
2, 42444, Note_on_c, 0, 45, 0
2, 42480, Note_on_c, 0, 45, 100
2, 42480, Note_on_c, 0, 60, 100
2, 42480, Note_on_c, 0, 63, 100
2, 42480, Note_on_c, 0, 65, 100
2, 42480, Note_on_c, 0, 53, 100
2, 42627, Control_c, 0, 7, 69
2, 42684, Note_on_c, 0, 53, 0
2, 42684, Note_on_c, 0, 65, 0
2, 42684, Note_on_c, 0, 63, 0
2, 42684, Note_on_c, 0, 60, 0
2, 42684, Note_on_c, 0, 45, 0
2, 42720, Note_on_c, 0, 45, 100
2, 42720, Note_on_c, 0, 60, 100
2, 42720, Note_on_c, 0, 63, 100
2, 42720, Note_on_c, 0, 65, 100
2, 42720, Note_on_c, 0, 53, 100
2, 42874, Control_c, 0, 7, 70
2, 42924, Note_on_c, 0, 53, 0
2, 42924, Note_on_c, 0, 65, 0
2, 42924, Note_on_c, 0, 63, 0
2, 42924, Note_on_c, 0, 60, 0
2, 42924, Note_on_c, 0, 45, 0
2, 42960, Note_on_c, 0, 45, 100
2, 42960, Note_on_c, 0, 60, 100
2, 42960, Note_on_c, 0, 63, 100
2, 42960, Note_on_c, 0, 65, 100
2, 42960, Note_on_c, 0, 53, 100
2, 43120, Control_c, 0, 7, 71
2, 43164, Note_on_c, 0, 53, 0
2, 43164, Note_on_c, 0, 65, 0
2, 43164, Note_on_c, 0, 63, 0
2, 43164, Note_on_c, 0, 60, 0
2, 43164, Note_on_c, 0, 45, 0
2, 43200, Note_on_c, 0, 46, 100
2, 43200, Note_on_c, 0, 62, 100
2, 43200, Note_on_c, 0, 65, 100
2, 43200, Note_on_c, 0, 53, 100
2, 43366, Control_c, 0, 7, 72
2, 43404, Note_on_c, 0, 53, 0
2, 43404, Note_on_c, 0, 65, 0
2, 43404, Note_on_c, 0, 62, 0
2, 43404, Note_on_c, 0, 46, 0
2, 43440, Note_on_c, 0, 46, 100
2, 43440, Note_on_c, 0, 62, 100
2, 43440, Note_on_c, 0, 65, 100
2, 43440, Note_on_c, 0, 53, 100
2, 43613, Control_c, 0, 7, 73
2, 43644, Note_on_c, 0, 53, 0
2, 43644, Note_on_c, 0, 65, 0
2, 43644, Note_on_c, 0, 62, 0
2, 43644, Note_on_c, 0, 46, 0
2, 43680, Note_on_c, 0, 46, 100
2, 43680, Note_on_c, 0, 62, 100
2, 43680, Note_on_c, 0, 65, 100
2, 43680, Note_on_c, 0, 53, 100
2, 43859, Control_c, 0, 7, 74
2, 43884, Note_on_c, 0, 53, 0
2, 43884, Note_on_c, 0, 65, 0
2, 43884, Note_on_c, 0, 62, 0
2, 43884, Note_on_c, 0, 46, 0
2, 43920, Note_on_c, 0, 46, 100
2, 43920, Note_on_c, 0, 62, 100
2, 43920, Note_on_c, 0, 66, 100
2, 43920, Note_on_c, 0, 54, 100
2, 44105, Control_c, 0, 7, 75
2, 44124, Note_on_c, 0, 54, 0
2, 44124, Note_on_c, 0, 66, 0
2, 44124, Note_on_c, 0, 62, 0
2, 44124, Note_on_c, 0, 46, 0
2, 44160, Note_on_c, 0, 47, 100
2, 44160, Note_on_c, 0, 62, 100
2, 44160, Note_on_c, 0, 65, 100
2, 44160, Note_on_c, 0, 67, 100
2, 44160, Note_on_c, 0, 55, 100
2, 44352, Control_c, 0, 7, 76
2, 44364, Note_on_c, 0, 55, 0
2, 44364, Note_on_c, 0, 67, 0
2, 44364, Note_on_c, 0, 65, 0
2, 44364, Note_on_c, 0, 62, 0
2, 44364, Note_on_c, 0, 47, 0
2, 44400, Note_on_c, 0, 47, 100
2, 44400, Note_on_c, 0, 62, 100
2, 44400, Note_on_c, 0, 65, 100
2, 44400, Note_on_c, 0, 67, 100
2, 44400, Note_on_c, 0, 55, 100
2, 44598, Control_c, 0, 7, 77
2, 44604, Note_on_c, 0, 55, 0
2, 44604, Note_on_c, 0, 67, 0
2, 44604, Note_on_c, 0, 65, 0
2, 44604, Note_on_c, 0, 62, 0
2, 44604, Note_on_c, 0, 47, 0
2, 44640, Note_on_c, 0, 47, 100
2, 44640, Note_on_c, 0, 62, 100
2, 44640, Note_on_c, 0, 65, 100
2, 44640, Note_on_c, 0, 67, 100
2, 44640, Note_on_c, 0, 55, 100
2, 44844, Note_on_c, 0, 55, 0
2, 44844, Note_on_c, 0, 67, 0
2, 44844, Note_on_c, 0, 65, 0
2, 44844, Note_on_c, 0, 62, 0
2, 44844, Note_on_c, 0, 47, 0
2, 44844, Control_c, 0, 7, 78
2, 44880, Note_on_c, 0, 47, 100
2, 44880, Note_on_c, 0, 62, 100
2, 44880, Note_on_c, 0, 65, 100
2, 44880, Note_on_c, 0, 67, 100
2, 44880, Note_on_c, 0, 55, 100
2, 45084, Note_on_c, 0, 55, 0
2, 45084, Note_on_c, 0, 67, 0
2, 45084, Note_on_c, 0, 65, 0
2, 45084, Note_on_c, 0, 62, 0
2, 45084, Note_on_c, 0, 47, 0
2, 45091, Control_c, 0, 7, 79
2, 45120, Note_on_c, 0, 48, 100
2, 45120, Note_on_c, 0, 64, 100
2, 45120, Note_on_c, 0, 67, 100
2, 45120, Note_on_c, 0, 55, 100
2, 45324, Note_on_c, 0, 55, 0
2, 45324, Note_on_c, 0, 67, 0
2, 45324, Note_on_c, 0, 64, 0
2, 45324, Note_on_c, 0, 48, 0
2, 45337, Control_c, 0, 7, 80
2, 45360, Note_on_c, 0, 48, 100
2, 45360, Note_on_c, 0, 64, 100
2, 45360, Note_on_c, 0, 67, 100
2, 45360, Note_on_c, 0, 55, 100
2, 45564, Note_on_c, 0, 55, 0
2, 45564, Note_on_c, 0, 67, 0
2, 45564, Note_on_c, 0, 64, 0
2, 45564, Note_on_c, 0, 48, 0
2, 45584, Control_c, 0, 7, 81
2, 45600, Note_on_c, 0, 48, 100
2, 45600, Note_on_c, 0, 64, 100
2, 45600, Note_on_c, 0, 67, 100
2, 45600, Note_on_c, 0, 55, 100
2, 45804, Note_on_c, 0, 55, 0
2, 45804, Note_on_c, 0, 67, 0
2, 45804, Note_on_c, 0, 64, 0
2, 45804, Note_on_c, 0, 48, 0
2, 45830, Control_c, 0, 7, 82
2, 45840, Note_on_c, 0, 48, 100
2, 45840, Note_on_c, 0, 64, 100
2, 45840, Note_on_c, 0, 68, 100
2, 45840, Note_on_c, 0, 56, 100
2, 46042, Control_c, 0, 7, 83
2, 46044, Note_on_c, 0, 56, 0
2, 46044, Note_on_c, 0, 68, 0
2, 46044, Note_on_c, 0, 64, 0
2, 46044, Note_on_c, 0, 48, 0
2, 46080, Note_on_c, 0, 37, 100
2, 46080, Note_on_c, 0, 64, 100
2, 46080, Note_on_c, 0, 67, 100
2, 46080, Note_on_c, 0, 69, 100
2, 46080, Note_on_c, 0, 57, 100
2, 46080, Note_on_c, 0, 49, 100
2, 46284, Note_on_c, 0, 49, 0
2, 46284, Note_on_c, 0, 57, 0
2, 46284, Note_on_c, 0, 69, 0
2, 46284, Note_on_c, 0, 67, 0
2, 46284, Note_on_c, 0, 64, 0
2, 46284, Note_on_c, 0, 37, 0
2, 46288, Control_c, 0, 7, 84
2, 46320, Note_on_c, 0, 37, 100
2, 46320, Note_on_c, 0, 64, 100
2, 46320, Note_on_c, 0, 67, 100
2, 46320, Note_on_c, 0, 69, 100
2, 46320, Note_on_c, 0, 57, 100
2, 46320, Note_on_c, 0, 49, 100
2, 46524, Note_on_c, 0, 49, 0
2, 46524, Note_on_c, 0, 57, 0
2, 46524, Note_on_c, 0, 69, 0
2, 46524, Note_on_c, 0, 67, 0
2, 46524, Note_on_c, 0, 64, 0
2, 46524, Note_on_c, 0, 37, 0
2, 46534, Control_c, 0, 7, 85
2, 46560, Note_on_c, 0, 37, 100
2, 46560, Note_on_c, 0, 64, 100
2, 46560, Note_on_c, 0, 67, 100
2, 46560, Note_on_c, 0, 69, 100
2, 46560, Note_on_c, 0, 57, 100
2, 46560, Note_on_c, 0, 49, 100
2, 46764, Note_on_c, 0, 49, 0
2, 46764, Note_on_c, 0, 57, 0
2, 46764, Note_on_c, 0, 69, 0
2, 46764, Note_on_c, 0, 67, 0
2, 46764, Note_on_c, 0, 64, 0
2, 46764, Note_on_c, 0, 37, 0
2, 46781, Control_c, 0, 7, 86
2, 46800, Note_on_c, 0, 37, 100
2, 46800, Note_on_c, 0, 64, 100
2, 46800, Note_on_c, 0, 67, 100
2, 46800, Note_on_c, 0, 69, 100
2, 46800, Note_on_c, 0, 57, 100
2, 46800, Note_on_c, 0, 49, 100
2, 47004, Note_on_c, 0, 49, 0
2, 47004, Note_on_c, 0, 57, 0
2, 47004, Note_on_c, 0, 69, 0
2, 47004, Note_on_c, 0, 67, 0
2, 47004, Note_on_c, 0, 64, 0
2, 47004, Note_on_c, 0, 37, 0
2, 47027, Control_c, 0, 7, 87
2, 47040, Note_on_c, 0, 62, 100
2, 47040, Note_on_c, 0, 65, 100
2, 47040, Note_on_c, 0, 69, 100
2, 47040, Note_on_c, 0, 57, 100
2, 47040, Note_on_c, 0, 38, 100
2, 47040, Note_on_c, 0, 50, 100
2, 47244, Note_on_c, 0, 50, 0
2, 47244, Note_on_c, 0, 38, 0
2, 47244, Note_on_c, 0, 57, 0
2, 47244, Note_on_c, 0, 69, 0
2, 47244, Note_on_c, 0, 65, 0
2, 47244, Note_on_c, 0, 62, 0
2, 47273, Control_c, 0, 7, 88
2, 47280, Note_on_c, 0, 62, 100
2, 47280, Note_on_c, 0, 65, 100
2, 47280, Note_on_c, 0, 69, 100
2, 47280, Note_on_c, 0, 57, 100
2, 47280, Note_on_c, 0, 38, 100
2, 47280, Note_on_c, 0, 50, 100
2, 47484, Note_on_c, 0, 50, 0
2, 47484, Note_on_c, 0, 38, 0
2, 47484, Note_on_c, 0, 57, 0
2, 47484, Note_on_c, 0, 69, 0
2, 47484, Note_on_c, 0, 65, 0
2, 47484, Note_on_c, 0, 62, 0
2, 47520, Control_c, 0, 7, 89
2, 47520, Note_on_c, 0, 60, 100
2, 47520, Note_on_c, 0, 66, 100
2, 47520, Note_on_c, 0, 69, 100
2, 47520, Note_on_c, 0, 57, 100
2, 47520, Note_on_c, 0, 39, 100
2, 47520, Note_on_c, 0, 51, 100
2, 47724, Note_on_c, 0, 51, 0
2, 47724, Note_on_c, 0, 39, 0
2, 47724, Note_on_c, 0, 57, 0
2, 47724, Note_on_c, 0, 69, 0
2, 47724, Note_on_c, 0, 66, 0
2, 47724, Note_on_c, 0, 60, 0
2, 47760, Note_on_c, 0, 60, 100
2, 47760, Note_on_c, 0, 64, 100
2, 47760, Note_on_c, 0, 69, 100
2, 47760, Note_on_c, 0, 57, 100
2, 47760, Note_on_c, 0, 40, 100
2, 47760, Note_on_c, 0, 52, 100
2, 47766, Control_c, 0, 7, 90
2, 47964, Note_on_c, 0, 52, 0
2, 47964, Note_on_c, 0, 40, 0
2, 47964, Note_on_c, 0, 57, 0
2, 47964, Note_on_c, 0, 69, 0
2, 47964, Note_on_c, 0, 64, 0
2, 47964, Note_on_c, 0, 60, 0
2, 48000, Note_on_c, 0, 60, 100
2, 48000, Note_on_c, 0, 63, 100
2, 48000, Note_on_c, 0, 69, 100
2, 48000, Note_on_c, 0, 57, 100
2, 48000, Note_on_c, 0, 41, 100
2, 48000, Note_on_c, 0, 53, 100
2, 48106, Control_c, 0, 7, 89
2, 48204, Note_on_c, 0, 53, 0
2, 48204, Note_on_c, 0, 41, 0
2, 48204, Note_on_c, 0, 57, 0
2, 48204, Note_on_c, 0, 69, 0
2, 48204, Note_on_c, 0, 63, 0
2, 48204, Note_on_c, 0, 60, 0
2, 48240, Note_on_c, 0, 60, 100
2, 48240, Note_on_c, 0, 63, 100
2, 48240, Note_on_c, 0, 69, 100
2, 48240, Note_on_c, 0, 57, 100
2, 48240, Note_on_c, 0, 41, 100
2, 48240, Note_on_c, 0, 53, 100
2, 48281, Control_c, 0, 7, 88
2, 48444, Note_on_c, 0, 53, 0
2, 48444, Note_on_c, 0, 41, 0
2, 48444, Note_on_c, 0, 57, 0
2, 48444, Note_on_c, 0, 69, 0
2, 48444, Note_on_c, 0, 63, 0
2, 48444, Note_on_c, 0, 60, 0
2, 48457, Control_c, 0, 7, 87
2, 48480, Note_on_c, 0, 41, 100
2, 48480, Note_on_c, 0, 53, 100
2, 48480, Note_on_c, 0, 60, 100
2, 48480, Note_on_c, 0, 63, 100
2, 48480, Note_on_c, 0, 69, 100
2, 48480, Note_on_c, 0, 57, 100
2, 48598, Control_c, 0, 7, 86
2, 48684, Note_on_c, 0, 57, 0
2, 48684, Note_on_c, 0, 69, 0
2, 48684, Note_on_c, 0, 63, 0
2, 48684, Note_on_c, 0, 60, 0
2, 48684, Note_on_c, 0, 53, 0
2, 48684, Note_on_c, 0, 41, 0
2, 48720, Note_on_c, 0, 41, 100
2, 48720, Note_on_c, 0, 53, 100
2, 48720, Note_on_c, 0, 60, 100
2, 48720, Note_on_c, 0, 63, 100
2, 48720, Note_on_c, 0, 69, 100
2, 48720, Note_on_c, 0, 57, 100
2, 48774, Control_c, 0, 7, 85
2, 48924, Note_on_c, 0, 57, 0
2, 48924, Note_on_c, 0, 69, 0
2, 48924, Note_on_c, 0, 63, 0
2, 48924, Note_on_c, 0, 60, 0
2, 48924, Note_on_c, 0, 53, 0
2, 48924, Note_on_c, 0, 41, 0
2, 48950, Control_c, 0, 7, 84
2, 48960, Note_on_c, 0, 60, 100
2, 48960, Note_on_c, 0, 63, 100
2, 48960, Note_on_c, 0, 69, 100
2, 48960, Note_on_c, 0, 41, 100
2, 48960, Note_on_c, 0, 53, 100
2, 49126, Control_c, 0, 7, 83
2, 49164, Note_on_c, 0, 53, 0
2, 49164, Note_on_c, 0, 41, 0
2, 49164, Note_on_c, 0, 69, 0
2, 49164, Note_on_c, 0, 63, 0
2, 49164, Note_on_c, 0, 60, 0
2, 49200, Note_on_c, 0, 60, 100
2, 49200, Note_on_c, 0, 63, 100
2, 49200, Note_on_c, 0, 69, 100
2, 49200, Note_on_c, 0, 41, 100
2, 49200, Note_on_c, 0, 53, 100
2, 49302, Control_c, 0, 7, 82
2, 49404, Note_on_c, 0, 53, 0
2, 49404, Note_on_c, 0, 41, 0
2, 49404, Note_on_c, 0, 69, 0
2, 49404, Note_on_c, 0, 63, 0
2, 49404, Note_on_c, 0, 60, 0
2, 49440, Note_on_c, 0, 59, 100
2, 49440, Note_on_c, 0, 63, 100
2, 49440, Note_on_c, 0, 69, 100
2, 49440, Note_on_c, 0, 41, 100
2, 49440, Note_on_c, 0, 53, 100
2, 49443, Control_c, 0, 7, 81
2, 49619, Control_c, 0, 7, 80
2, 49644, Note_on_c, 0, 53, 0
2, 49644, Note_on_c, 0, 41, 0
2, 49644, Note_on_c, 0, 69, 0
2, 49644, Note_on_c, 0, 63, 0
2, 49644, Note_on_c, 0, 59, 0
2, 49680, Note_on_c, 0, 59, 100
2, 49680, Note_on_c, 0, 63, 100
2, 49680, Note_on_c, 0, 69, 100
2, 49680, Note_on_c, 0, 41, 100
2, 49680, Note_on_c, 0, 53, 100
2, 49795, Control_c, 0, 7, 79
2, 49884, Note_on_c, 0, 53, 0
2, 49884, Note_on_c, 0, 41, 0
2, 49884, Note_on_c, 0, 69, 0
2, 49884, Note_on_c, 0, 63, 0
2, 49884, Note_on_c, 0, 59, 0
2, 49920, Note_on_c, 0, 40, 100
2, 49920, Note_on_c, 0, 52, 100
2, 49920, Note_on_c, 0, 59, 100
2, 49920, Note_on_c, 0, 64, 100
2, 49920, Note_on_c, 0, 69, 100
2, 49971, Control_c, 0, 7, 78
2, 50124, Note_on_c, 0, 69, 0
2, 50124, Note_on_c, 0, 64, 0
2, 50124, Note_on_c, 0, 59, 0
2, 50124, Note_on_c, 0, 52, 0
2, 50124, Note_on_c, 0, 40, 0
2, 50147, Control_c, 0, 7, 77
2, 50160, Note_on_c, 0, 40, 100
2, 50160, Note_on_c, 0, 52, 100
2, 50160, Note_on_c, 0, 59, 100
2, 50160, Note_on_c, 0, 64, 100
2, 50160, Note_on_c, 0, 69, 100
2, 50288, Control_c, 0, 7, 76
2, 50364, Note_on_c, 0, 69, 0
2, 50364, Note_on_c, 0, 64, 0
2, 50364, Note_on_c, 0, 59, 0
2, 50364, Note_on_c, 0, 52, 0
2, 50364, Note_on_c, 0, 40, 0
2, 50400, Note_on_c, 0, 40, 100
2, 50400, Note_on_c, 0, 52, 100
2, 50400, Note_on_c, 0, 59, 100
2, 50400, Note_on_c, 0, 64, 100
2, 50400, Note_on_c, 0, 69, 100
2, 50464, Control_c, 0, 7, 75
2, 50604, Note_on_c, 0, 69, 0
2, 50604, Note_on_c, 0, 64, 0
2, 50604, Note_on_c, 0, 59, 0
2, 50604, Note_on_c, 0, 52, 0
2, 50604, Note_on_c, 0, 40, 0
2, 50640, Control_c, 0, 7, 74
2, 50640, Note_on_c, 0, 40, 100
2, 50640, Note_on_c, 0, 52, 100
2, 50640, Note_on_c, 0, 59, 100
2, 50640, Note_on_c, 0, 64, 100
2, 50640, Note_on_c, 0, 69, 100
2, 50816, Control_c, 0, 7, 73
2, 50844, Note_on_c, 0, 69, 0
2, 50844, Note_on_c, 0, 64, 0
2, 50844, Note_on_c, 0, 59, 0
2, 50844, Note_on_c, 0, 52, 0
2, 50844, Note_on_c, 0, 40, 0
2, 50880, Note_on_c, 0, 40, 100
2, 50880, Note_on_c, 0, 52, 100
2, 50880, Note_on_c, 0, 59, 100
2, 50880, Note_on_c, 0, 64, 100
2, 50880, Note_on_c, 0, 68, 100
2, 50992, Control_c, 0, 7, 72
2, 51084, Note_on_c, 0, 68, 0
2, 51084, Note_on_c, 0, 64, 0
2, 51084, Note_on_c, 0, 59, 0
2, 51084, Note_on_c, 0, 52, 0
2, 51084, Note_on_c, 0, 40, 0
2, 51120, Note_on_c, 0, 40, 100
2, 51120, Note_on_c, 0, 52, 100
2, 51120, Note_on_c, 0, 59, 100
2, 51120, Note_on_c, 0, 64, 100
2, 51120, Note_on_c, 0, 68, 100
2, 51132, Control_c, 0, 7, 71
2, 51309, Control_c, 0, 7, 70
2, 51324, Note_on_c, 0, 68, 0
2, 51324, Note_on_c, 0, 64, 0
2, 51324, Note_on_c, 0, 59, 0
2, 51324, Note_on_c, 0, 52, 0
2, 51324, Note_on_c, 0, 40, 0
2, 51360, Note_on_c, 0, 40, 100
2, 51360, Note_on_c, 0, 52, 100
2, 51360, Note_on_c, 0, 59, 100
2, 51360, Note_on_c, 0, 64, 100
2, 51360, Note_on_c, 0, 68, 100
2, 51485, Control_c, 0, 7, 69
2, 51564, Note_on_c, 0, 68, 0
2, 51564, Note_on_c, 0, 64, 0
2, 51564, Note_on_c, 0, 59, 0
2, 51564, Note_on_c, 0, 52, 0
2, 51564, Note_on_c, 0, 40, 0
2, 51600, Note_on_c, 0, 40, 100
2, 51600, Note_on_c, 0, 52, 100
2, 51600, Note_on_c, 0, 59, 100
2, 51600, Note_on_c, 0, 64, 100
2, 51600, Note_on_c, 0, 68, 100
2, 51660, Control_c, 0, 7, 68
2, 51804, Note_on_c, 0, 68, 0
2, 51804, Note_on_c, 0, 64, 0
2, 51804, Note_on_c, 0, 59, 0
2, 51804, Note_on_c, 0, 52, 0
2, 51804, Note_on_c, 0, 40, 0
2, 51840, Note_on_c, 0, 60, 100
2, 51840, Note_on_c, 0, 69, 100
2, 51840, Note_on_c, 0, 45, 100
2, 51840, Note_on_c, 0, 52, 100
2, 51910, Control_c, 0, 7, 69
2, 52051, Control_c, 0, 7, 70
2, 52157, Control_c, 0, 7, 71
2, 52262, Control_c, 0, 7, 72
2, 52296, Note_on_c, 0, 52, 0
2, 52296, Note_on_c, 0, 45, 0
2, 52296, Note_on_c, 0, 69, 0
2, 52296, Note_on_c, 0, 60, 0
2, 52320, Note_on_c, 0, 45, 100
2, 52320, Note_on_c, 0, 52, 100
2, 52320, Note_on_c, 0, 60, 100
2, 52403, Control_c, 0, 7, 73
2, 52509, Control_c, 0, 7, 74
2, 52560, Note_on_c, 0, 76, 100
2, 52649, Control_c, 0, 7, 75
2, 52755, Control_c, 0, 7, 76
2, 52776, Note_on_c, 0, 60, 0
2, 52776, Note_on_c, 0, 52, 0
2, 52776, Note_on_c, 0, 45, 0
2, 52788, Note_on_c, 0, 76, 0
2, 52800, Note_on_c, 0, 45, 100
2, 52800, Note_on_c, 0, 52, 100
2, 52800, Note_on_c, 0, 60, 100
2, 52800, Note_on_c, 0, 77, 100
2, 52860, Control_c, 0, 7, 77
2, 53002, Control_c, 0, 7, 78
2, 53028, Note_on_c, 0, 77, 0
2, 53040, Note_on_c, 0, 76, 100
2, 53107, Control_c, 0, 7, 79
2, 53248, Control_c, 0, 7, 80
2, 53256, Note_on_c, 0, 60, 0
2, 53256, Note_on_c, 0, 52, 0
2, 53256, Note_on_c, 0, 45, 0
2, 53268, Note_on_c, 0, 76, 0
2, 53280, Note_on_c, 0, 45, 100
2, 53280, Note_on_c, 0, 52, 100
2, 53280, Note_on_c, 0, 59, 100
2, 53280, Note_on_c, 0, 75, 100
2, 53508, Note_on_c, 0, 75, 0
2, 53520, Note_on_c, 0, 71, 100
2, 53736, Note_on_c, 0, 59, 0
2, 53736, Note_on_c, 0, 52, 0
2, 53736, Note_on_c, 0, 45, 0
2, 53748, Note_on_c, 0, 71, 0
2, 53760, Note_on_c, 0, 45, 100
2, 53760, Note_on_c, 0, 52, 100
2, 53760, Note_on_c, 0, 59, 100
2, 53760, Note_on_c, 0, 74, 100
2, 54216, Note_on_c, 0, 74, 0
2, 54216, Note_on_c, 0, 59, 0
2, 54216, Note_on_c, 0, 52, 0
2, 54216, Note_on_c, 0, 45, 0
2, 54240, Note_on_c, 0, 45, 100
2, 54240, Note_on_c, 0, 52, 100
2, 54240, Note_on_c, 0, 60, 100
2, 54240, Note_on_c, 0, 72, 100
2, 54468, Note_on_c, 0, 72, 0
2, 54480, Note_on_c, 0, 64, 100
2, 54696, Note_on_c, 0, 60, 0
2, 54696, Note_on_c, 0, 52, 0
2, 54696, Note_on_c, 0, 45, 0
2, 54708, Note_on_c, 0, 64, 0
2, 54720, Note_on_c, 0, 45, 100
2, 54720, Note_on_c, 0, 52, 100
2, 54720, Note_on_c, 0, 60, 100
2, 54720, Note_on_c, 0, 69, 100
2, 54861, Control_c, 0, 7, 79
2, 55142, Control_c, 0, 7, 78
2, 55176, Note_on_c, 0, 60, 0
2, 55176, Note_on_c, 0, 52, 0
2, 55176, Note_on_c, 0, 45, 0
2, 55200, Note_on_c, 0, 45, 100
2, 55200, Note_on_c, 0, 52, 100
2, 55200, Note_on_c, 0, 60, 100
2, 55424, Control_c, 0, 7, 77
2, 55428, Note_on_c, 0, 69, 0
2, 55440, Note_on_c, 0, 76, 100
2, 55656, Note_on_c, 0, 60, 0
2, 55656, Note_on_c, 0, 52, 0
2, 55656, Note_on_c, 0, 45, 0
2, 55668, Note_on_c, 0, 76, 0
2, 55680, Note_on_c, 0, 45, 100
2, 55680, Note_on_c, 0, 52, 100
2, 55680, Note_on_c, 0, 60, 100
2, 55680, Note_on_c, 0, 77, 100
2, 55705, Control_c, 0, 7, 76
2, 55908, Note_on_c, 0, 77, 0
2, 55920, Note_on_c, 0, 76, 100
2, 55987, Control_c, 0, 7, 75
2, 56136, Note_on_c, 0, 60, 0
2, 56136, Note_on_c, 0, 52, 0
2, 56136, Note_on_c, 0, 45, 0
2, 56148, Note_on_c, 0, 76, 0
2, 56160, Note_on_c, 0, 45, 100
2, 56160, Note_on_c, 0, 52, 100
2, 56160, Note_on_c, 0, 59, 100
2, 56160, Note_on_c, 0, 75, 100
2, 56268, Control_c, 0, 7, 74
2, 56388, Note_on_c, 0, 75, 0
2, 56400, Note_on_c, 0, 71, 100
2, 56515, Control_c, 0, 7, 73
2, 56616, Note_on_c, 0, 59, 0
2, 56616, Note_on_c, 0, 52, 0
2, 56616, Note_on_c, 0, 45, 0
2, 56628, Note_on_c, 0, 71, 0
2, 56640, Note_on_c, 0, 45, 100
2, 56640, Note_on_c, 0, 52, 100
2, 56640, Note_on_c, 0, 59, 100
2, 56640, Note_on_c, 0, 74, 100
2, 56796, Control_c, 0, 7, 72
2, 57078, Control_c, 0, 7, 71
2, 57096, Note_on_c, 0, 74, 0
2, 57096, Note_on_c, 0, 59, 0
2, 57096, Note_on_c, 0, 52, 0
2, 57096, Note_on_c, 0, 45, 0
2, 57120, Note_on_c, 0, 45, 100
2, 57120, Note_on_c, 0, 52, 100
2, 57120, Note_on_c, 0, 60, 100
2, 57120, Note_on_c, 0, 72, 100
2, 57348, Note_on_c, 0, 72, 0
2, 57360, Control_c, 0, 7, 70
2, 57360, Note_on_c, 0, 64, 100
2, 57576, Note_on_c, 0, 60, 0
2, 57576, Note_on_c, 0, 52, 0
2, 57576, Note_on_c, 0, 45, 0
2, 57588, Note_on_c, 0, 64, 0
2, 57600, Note_on_c, 0, 69, 100
2, 57600, Note_on_c, 0, 45, 100
2, 57600, Note_on_c, 0, 52, 100
2, 57600, Note_on_c, 0, 60, 100
2, 58056, Note_on_c, 0, 60, 0
2, 58056, Note_on_c, 0, 52, 0
2, 58056, Note_on_c, 0, 45, 0
2, 58056, Note_on_c, 0, 69, 0
2, 58080, Note_on_c, 0, 36, 127
2, 58080, Note_on_c, 0, 48, 127
2, 58080, Note_on_c, 0, 55, 127
2, 58080, Note_on_c, 0, 58, 127
2, 58080, Note_on_c, 0, 60, 127
2, 58080, Note_on_c, 0, 64, 127
2, 59496, Note_on_c, 0, 64, 0
2, 59496, Note_on_c, 0, 60, 0
2, 59496, Note_on_c, 0, 58, 0
2, 59496, Note_on_c, 0, 55, 0
2, 59496, Note_on_c, 0, 48, 0
2, 59496, Note_on_c, 0, 36, 0
2, 59520, Note_on_c, 0, 65, 100
2, 59520, Note_on_c, 0, 69, 100
2, 59520, Note_on_c, 0, 53, 100
2, 59520, Note_on_c, 0, 41, 100
2, 59748, Note_on_c, 0, 69, 0
2, 59748, Note_on_c, 0, 65, 0
2, 59760, Note_on_c, 0, 60, 100
2, 59988, Note_on_c, 0, 60, 0
2, 60000, Note_on_c, 0, 65, 100
2, 60000, Note_on_c, 0, 69, 100
2, 60228, Note_on_c, 0, 69, 0
2, 60228, Note_on_c, 0, 65, 0
2, 60240, Note_on_c, 0, 60, 100
2, 60456, Note_on_c, 0, 41, 0
2, 60456, Note_on_c, 0, 53, 0
2, 60468, Note_on_c, 0, 60, 0
2, 60480, Note_on_c, 0, 48, 100
2, 60480, Note_on_c, 0, 64, 100
2, 60480, Note_on_c, 0, 67, 100
2, 60708, Note_on_c, 0, 67, 0
2, 60708, Note_on_c, 0, 64, 0
2, 60720, Note_on_c, 0, 60, 100
2, 60936, Note_on_c, 0, 48, 0
2, 60948, Note_on_c, 0, 60, 0
2, 60960, Note_on_c, 0, 53, 100
2, 60960, Note_on_c, 0, 65, 100
2, 60960, Note_on_c, 0, 69, 100
2, 61188, Note_on_c, 0, 69, 0
2, 61188, Note_on_c, 0, 65, 0
2, 61200, Note_on_c, 0, 60, 100
2, 61416, Note_on_c, 0, 53, 0
2, 61428, Note_on_c, 0, 60, 0
2, 61440, Note_on_c, 0, 67, 100
2, 61440, Note_on_c, 0, 70, 100
2, 61440, Note_on_c, 0, 52, 100
2, 61668, Note_on_c, 0, 70, 0
2, 61668, Note_on_c, 0, 67, 0
2, 61680, Note_on_c, 0, 60, 100
2, 61908, Note_on_c, 0, 60, 0
2, 61920, Note_on_c, 0, 67, 100
2, 61920, Note_on_c, 0, 70, 100
2, 62148, Note_on_c, 0, 70, 0
2, 62148, Note_on_c, 0, 67, 0
2, 62160, Note_on_c, 0, 60, 100
2, 62376, Note_on_c, 0, 52, 0
2, 62388, Note_on_c, 0, 60, 0
2, 62400, Note_on_c, 0, 65, 100
2, 62400, Note_on_c, 0, 69, 100
2, 62400, Note_on_c, 0, 53, 100
2, 62628, Note_on_c, 0, 69, 0
2, 62628, Note_on_c, 0, 65, 0
2, 62640, Note_on_c, 0, 60, 100
2, 62868, Note_on_c, 0, 60, 0
2, 62880, Note_on_c, 0, 65, 100
2, 62880, Note_on_c, 0, 69, 100
2, 63108, Note_on_c, 0, 69, 0
2, 63108, Note_on_c, 0, 65, 0
2, 63120, Note_on_c, 0, 60, 100
2, 63336, Note_on_c, 0, 53, 0
2, 63348, Note_on_c, 0, 60, 0
2, 63360, Note_on_c, 0, 48, 100
2, 63360, Note_on_c, 0, 64, 100
2, 63360, Note_on_c, 0, 67, 100
2, 63588, Note_on_c, 0, 67, 0
2, 63588, Note_on_c, 0, 64, 0
2, 63600, Note_on_c, 0, 55, 100
2, 63828, Note_on_c, 0, 55, 0
2, 63840, Note_on_c, 0, 60, 100
2, 63840, Note_on_c, 0, 64, 100
2, 64068, Note_on_c, 0, 64, 0
2, 64068, Note_on_c, 0, 60, 0
2, 64080, Note_on_c, 0, 55, 100
2, 64296, Note_on_c, 0, 48, 0
2, 64308, Note_on_c, 0, 55, 0
2, 64320, Note_on_c, 0, 36, 100
2, 64320, Note_on_c, 0, 62, 100
2, 64320, Note_on_c, 0, 65, 100
2, 64320, Note_on_c, 0, 59, 100
2, 64320, Note_on_c, 0, 48, 100
2, 64548, Note_on_c, 0, 59, 0
2, 64548, Note_on_c, 0, 65, 0
2, 64548, Note_on_c, 0, 62, 0
2, 64560, Note_on_c, 0, 55, 100
2, 64788, Note_on_c, 0, 55, 0
2, 64800, Note_on_c, 0, 65, 100
2, 64800, Note_on_c, 0, 62, 100
2, 64800, Note_on_c, 0, 59, 100
2, 65028, Note_on_c, 0, 59, 0
2, 65028, Note_on_c, 0, 62, 0
2, 65028, Note_on_c, 0, 65, 0
2, 65040, Note_on_c, 0, 55, 100
2, 65256, Note_on_c, 0, 48, 0
2, 65256, Note_on_c, 0, 36, 0
2, 65268, Note_on_c, 0, 55, 0
2, 65280, Note_on_c, 0, 48, 100
2, 65280, Note_on_c, 0, 61, 100
2, 65280, Note_on_c, 0, 65, 100
2, 65280, Note_on_c, 0, 36, 100
2, 65508, Note_on_c, 0, 65, 0
2, 65508, Note_on_c, 0, 61, 0
2, 65520, Note_on_c, 0, 55, 100
2, 65748, Note_on_c, 0, 55, 0
2, 65760, Note_on_c, 0, 64, 100
2, 65760, Note_on_c, 0, 60, 100
2, 65988, Note_on_c, 0, 60, 0
2, 65988, Note_on_c, 0, 64, 0
2, 66000, Note_on_c, 0, 58, 100
2, 66216, Note_on_c, 0, 36, 0
2, 66216, Note_on_c, 0, 48, 0
2, 66228, Note_on_c, 0, 58, 0
2, 66240, Note_on_c, 0, 65, 100
2, 66240, Note_on_c, 0, 57, 100
2, 66240, Note_on_c, 0, 41, 100
2, 66240, Note_on_c, 0, 53, 100
2, 66468, Note_on_c, 0, 57, 0
2, 66468, Note_on_c, 0, 65, 0
2, 66480, Note_on_c, 0, 60, 100
2, 66696, Note_on_c, 0, 53, 0
2, 66696, Note_on_c, 0, 41, 0
2, 66708, Note_on_c, 0, 60, 0
2, 66720, Note_on_c, 0, 57, 100
2, 66948, Note_on_c, 0, 57, 0
2, 66960, Note_on_c, 0, 60, 100
2, 67188, Note_on_c, 0, 60, 0
2, 67200, Note_on_c, 0, 50, 100
2, 67200, Note_on_c, 0, 38, 100
2, 67200, Note_on_c, 0, 60, 100
2, 67200, Note_on_c, 0, 66, 100
2, 67428, Note_on_c, 0, 66, 0
2, 67428, Note_on_c, 0, 60, 0
2, 67440, Note_on_c, 0, 62, 100
2, 67668, Note_on_c, 0, 62, 0
2, 67680, Note_on_c, 0, 60, 100
2, 67680, Note_on_c, 0, 66, 100
2, 67908, Note_on_c, 0, 66, 0
2, 67908, Note_on_c, 0, 60, 0
2, 67920, Note_on_c, 0, 62, 100
2, 68136, Note_on_c, 0, 38, 0
2, 68136, Note_on_c, 0, 50, 0
2, 68148, Note_on_c, 0, 62, 0
2, 68160, Note_on_c, 0, 55, 100
2, 68160, Note_on_c, 0, 43, 100
2, 68160, Note_on_c, 0, 58, 100
2, 68160, Note_on_c, 0, 67, 100
2, 68388, Note_on_c, 0, 67, 0
2, 68388, Note_on_c, 0, 58, 0
2, 68400, Note_on_c, 0, 62, 100
2, 68628, Note_on_c, 0, 62, 0
2, 68640, Note_on_c, 0, 58, 100
2, 68640, Note_on_c, 0, 67, 100
2, 68868, Note_on_c, 0, 67, 0
2, 68868, Note_on_c, 0, 58, 0
2, 68880, Note_on_c, 0, 62, 100
2, 69096, Note_on_c, 0, 43, 0
2, 69096, Note_on_c, 0, 55, 0
2, 69108, Note_on_c, 0, 62, 0
2, 69120, Note_on_c, 0, 53, 100
2, 69120, Note_on_c, 0, 41, 100
2, 69120, Note_on_c, 0, 63, 100
2, 69120, Note_on_c, 0, 69, 100
2, 69348, Note_on_c, 0, 69, 0
2, 69348, Note_on_c, 0, 63, 0
2, 69360, Note_on_c, 0, 65, 100
2, 69588, Note_on_c, 0, 65, 0
2, 69600, Note_on_c, 0, 63, 100
2, 69600, Note_on_c, 0, 69, 100
2, 69828, Note_on_c, 0, 69, 0
2, 69828, Note_on_c, 0, 63, 0
2, 69840, Note_on_c, 0, 65, 100
2, 70056, Note_on_c, 0, 41, 0
2, 70056, Note_on_c, 0, 53, 0
2, 70068, Note_on_c, 0, 65, 0
2, 70080, Note_on_c, 0, 58, 100
2, 70080, Note_on_c, 0, 46, 100
2, 70080, Note_on_c, 0, 53, 100
2, 70080, Note_on_c, 0, 62, 100
2, 70080, Note_on_c, 0, 65, 100
2, 70080, Note_on_c, 0, 70, 100
2, 71016, Note_on_c, 0, 70, 0
2, 71016, Note_on_c, 0, 65, 0
2, 71016, Note_on_c, 0, 62, 0
2, 71016, Note_on_c, 0, 53, 0
2, 71016, Note_on_c, 0, 46, 0
2, 71016, Note_on_c, 0, 58, 0
2, 71520, Note_on_c, 0, 49, 100
2, 71520, Note_on_c, 0, 55, 100
2, 71520, Note_on_c, 0, 58, 100
2, 71520, Note_on_c, 0, 65, 100
2, 71976, Note_on_c, 0, 65, 0
2, 71976, Note_on_c, 0, 58, 0
2, 71976, Note_on_c, 0, 55, 0
2, 71976, Note_on_c, 0, 49, 0
2, 72000, Note_on_c, 0, 49, 100
2, 72000, Note_on_c, 0, 58, 100
2, 72000, Note_on_c, 0, 55, 100
2, 72000, Note_on_c, 0, 65, 100
2, 72456, Note_on_c, 0, 65, 0
2, 72456, Note_on_c, 0, 55, 0
2, 72456, Note_on_c, 0, 58, 0
2, 72456, Note_on_c, 0, 49, 0
2, 73440, Note_on_c, 0, 50, 100
2, 73440, Note_on_c, 0, 55, 100
2, 73440, Note_on_c, 0, 59, 100
2, 73440, Note_on_c, 0, 65, 100
2, 73896, Note_on_c, 0, 65, 0
2, 73896, Note_on_c, 0, 59, 0
2, 73896, Note_on_c, 0, 55, 0
2, 73896, Note_on_c, 0, 50, 0
2, 73920, Note_on_c, 0, 50, 100
2, 73920, Note_on_c, 0, 59, 100
2, 73920, Note_on_c, 0, 55, 100
2, 73920, Note_on_c, 0, 65, 100
2, 74376, Note_on_c, 0, 65, 0
2, 74376, Note_on_c, 0, 55, 0
2, 74376, Note_on_c, 0, 59, 0
2, 74376, Note_on_c, 0, 50, 0
2, 74880, Note_on_c, 0, 65, 100
2, 74880, Note_on_c, 0, 59, 100
2, 74880, Note_on_c, 0, 55, 100
2, 74880, Note_on_c, 0, 50, 100
2, 74880, Note_on_c, 0, 43, 100
2, 75816, Note_on_c, 0, 43, 0
2, 75816, Note_on_c, 0, 50, 0
2, 75816, Note_on_c, 0, 55, 0
2, 75816, Note_on_c, 0, 59, 0
2, 75816, Note_on_c, 0, 65, 0
2, 76800, Note_on_c, 0, 48, 100
2, 77040, Note_on_c, 0, 58, 100
2, 77040, Note_on_c, 0, 64, 100
2, 77256, Note_on_c, 0, 48, 0
2, 77268, Note_on_c, 0, 64, 0
2, 77268, Note_on_c, 0, 58, 0
2, 77280, Note_on_c, 0, 49, 100
2, 77520, Note_on_c, 0, 58, 100
2, 77520, Note_on_c, 0, 64, 100
2, 77736, Note_on_c, 0, 49, 0
2, 77748, Note_on_c, 0, 64, 0
2, 77748, Note_on_c, 0, 58, 0
2, 77760, Note_on_c, 0, 50, 100
2, 78000, Note_on_c, 0, 57, 100
2, 78000, Note_on_c, 0, 65, 100
2, 78216, Note_on_c, 0, 50, 0
2, 78228, Note_on_c, 0, 65, 0
2, 78228, Note_on_c, 0, 57, 0
2, 78240, Note_on_c, 0, 45, 100
2, 78480, Note_on_c, 0, 60, 100
2, 78480, Note_on_c, 0, 53, 100
2, 78480, Note_on_c, 0, 65, 100
2, 78696, Note_on_c, 0, 45, 0
2, 78708, Note_on_c, 0, 65, 0
2, 78708, Note_on_c, 0, 53, 0
2, 78708, Note_on_c, 0, 60, 0
2, 78720, Note_on_c, 0, 43, 100
2, 78960, Note_on_c, 0, 58, 100
2, 78960, Note_on_c, 0, 61, 100
2, 78960, Note_on_c, 0, 65, 100
2, 79176, Note_on_c, 0, 43, 0
2, 79188, Note_on_c, 0, 65, 0
2, 79188, Note_on_c, 0, 61, 0
2, 79188, Note_on_c, 0, 58, 0
2, 79200, Note_on_c, 0, 48, 100
2, 79440, Note_on_c, 0, 58, 100
2, 79440, Note_on_c, 0, 60, 100
2, 79440, Note_on_c, 0, 64, 100
2, 79656, Note_on_c, 0, 48, 0
2, 79668, Note_on_c, 0, 64, 0
2, 79668, Note_on_c, 0, 60, 0
2, 79668, Note_on_c, 0, 58, 0
2, 79680, Note_on_c, 0, 41, 100
2, 79680, Note_on_c, 0, 48, 100
2, 79680, Note_on_c, 0, 57, 100
2, 79680, Note_on_c, 0, 60, 100
2, 79680, Note_on_c, 0, 72, 100
2, 79908, Note_on_c, 0, 72, 0
2, 79920, Note_on_c, 0, 71, 100
2, 80148, Note_on_c, 0, 71, 0
2, 80160, Note_on_c, 0, 70, 100
2, 80388, Note_on_c, 0, 70, 0
2, 80400, Note_on_c, 0, 69, 100
2, 80616, Note_on_c, 0, 60, 0
2, 80616, Note_on_c, 0, 57, 0
2, 80616, Note_on_c, 0, 48, 0
2, 80616, Note_on_c, 0, 41, 0
2, 80628, Note_on_c, 0, 69, 0
2, 80640, Note_on_c, 0, 53, 100
2, 80640, Note_on_c, 0, 58, 100
2, 80640, Note_on_c, 0, 60, 100
2, 80640, Note_on_c, 0, 67, 100
2, 80754, Note_on_c, 0, 67, 0
2, 80760, Note_on_c, 0, 65, 100
2, 80874, Note_on_c, 0, 65, 0
2, 80880, Note_on_c, 0, 64, 100
2, 80994, Note_on_c, 0, 64, 0
2, 81000, Note_on_c, 0, 62, 100
2, 81096, Note_on_c, 0, 60, 0
2, 81114, Note_on_c, 0, 62, 0
2, 81120, Note_on_c, 0, 60, 100
2, 81576, Note_on_c, 0, 60, 0
2, 81576, Note_on_c, 0, 58, 0
2, 81576, Note_on_c, 0, 53, 0
2, 81600, Note_on_c, 0, 60, 100
2, 81600, Note_on_c, 0, 72, 100
2, 81600, Note_on_c, 0, 41, 100
2, 81600, Note_on_c, 0, 48, 100
2, 81600, Note_on_c, 0, 57, 100
2, 81828, Note_on_c, 0, 72, 0
2, 81840, Note_on_c, 0, 71, 100
2, 82068, Note_on_c, 0, 71, 0
2, 82080, Note_on_c, 0, 70, 100
2, 82308, Note_on_c, 0, 70, 0
2, 82320, Note_on_c, 0, 69, 100
2, 82536, Note_on_c, 0, 57, 0
2, 82536, Note_on_c, 0, 48, 0
2, 82536, Note_on_c, 0, 41, 0
2, 82536, Note_on_c, 0, 60, 0
2, 82548, Note_on_c, 0, 69, 0
2, 82560, Note_on_c, 0, 60, 100
2, 82560, Note_on_c, 0, 67, 100
2, 82560, Note_on_c, 0, 53, 100
2, 82560, Note_on_c, 0, 58, 100
2, 82674, Note_on_c, 0, 67, 0
2, 82680, Note_on_c, 0, 65, 100
2, 82794, Note_on_c, 0, 65, 0
2, 82800, Note_on_c, 0, 64, 100
2, 82914, Note_on_c, 0, 64, 0
2, 82920, Note_on_c, 0, 62, 100
2, 83016, Note_on_c, 0, 60, 0
2, 83034, Note_on_c, 0, 62, 0
2, 83040, Note_on_c, 0, 60, 100
2, 83496, Note_on_c, 0, 60, 0
2, 83496, Note_on_c, 0, 58, 0
2, 83496, Note_on_c, 0, 53, 0
2, 83520, Note_on_c, 0, 60, 100
2, 83520, Note_on_c, 0, 65, 100
2, 83520, Note_on_c, 0, 53, 100
2, 83520, Note_on_c, 0, 57, 100
2, 83976, Note_on_c, 0, 57, 0
2, 83976, Note_on_c, 0, 53, 0
2, 83976, Note_on_c, 0, 65, 0
2, 83976, Note_on_c, 0, 60, 0
2, 84000, Note_on_c, 0, 62, 100
2, 84000, Note_on_c, 0, 65, 100
2, 84000, Note_on_c, 0, 50, 100
2, 84000, Note_on_c, 0, 57, 100
2, 84456, Note_on_c, 0, 57, 0
2, 84456, Note_on_c, 0, 50, 0
2, 84456, Note_on_c, 0, 65, 0
2, 84456, Note_on_c, 0, 62, 0
2, 84480, Note_on_c, 0, 43, 100
2, 84480, Note_on_c, 0, 55, 100
2, 84480, Note_on_c, 0, 58, 100
2, 84480, Note_on_c, 0, 62, 100
2, 84480, Note_on_c, 0, 67, 100
2, 85416, Note_on_c, 0, 67, 0
2, 85416, Note_on_c, 0, 62, 0
2, 85416, Note_on_c, 0, 58, 0
2, 85416, Note_on_c, 0, 55, 0
2, 85416, Note_on_c, 0, 43, 0
2, 85440, Note_on_c, 0, 60, 100
2, 85440, Note_on_c, 0, 64, 100
2, 85440, Note_on_c, 0, 67, 100
2, 85440, Note_on_c, 0, 58, 100
2, 85440, Note_on_c, 0, 48, 100
2, 86376, Note_on_c, 0, 48, 0
2, 86376, Note_on_c, 0, 58, 0
2, 86376, Note_on_c, 0, 67, 0
2, 86376, Note_on_c, 0, 64, 0
2, 86376, Note_on_c, 0, 60, 0
2, 86400, Note_on_c, 0, 41, 100
2, 86400, Note_on_c, 0, 53, 100
2, 86400, Note_on_c, 0, 57, 100
2, 86400, Note_on_c, 0, 60, 100
2, 86400, Note_on_c, 0, 65, 100
2, 90216, Note_on_c, 0, 65, 0
2, 90216, Note_on_c, 0, 60, 0
2, 90216, Note_on_c, 0, 57, 0
2, 90216, Note_on_c, 0, 53, 0
2, 90216, Note_on_c, 0, 41, 0
2, 90240, End_track
3, 0, Start_track
3, 0, Control_c, 1, 7, 95
3, 0, Control_c, 1, 0, 0
3, 0, Control_c, 1, 32, 0
3, 0, Program_c, 1, 53
3, 0, Control_c, 1, 1, 0
3, 0, Control_c, 1, 10, 64
3, 0, Control_c, 1, 91, 0
3, 0, Control_c, 1, 93, 0
3, 0, Key_signature, -1, "major"
3, 0, Title_t, "Voice"
3, 11520, Note_on_c, 1, 69, 100
3, 11976, Note_on_c, 1, 69, 0
3, 12000, Note_on_c, 1, 69, 100
3, 12342, Note_on_c, 1, 69, 0
3, 12360, Note_on_c, 1, 69, 100
3, 12430, Control_c, 1, 7, 96
3, 12474, Note_on_c, 1, 69, 0
3, 12480, Note_on_c, 1, 67, 100
3, 12571, Control_c, 1, 7, 97
3, 12712, Control_c, 1, 7, 98
3, 12852, Control_c, 1, 7, 99
3, 12936, Note_on_c, 1, 67, 0
3, 12960, Note_on_c, 1, 69, 100
3, 12994, Control_c, 1, 7, 100
3, 13134, Control_c, 1, 7, 101
3, 13188, Note_on_c, 1, 69, 0
3, 13200, Note_on_c, 1, 69, 100
3, 13275, Control_c, 1, 7, 102
3, 13428, Note_on_c, 1, 69, 0
3, 13440, Note_on_c, 1, 70, 100
3, 13896, Note_on_c, 1, 70, 0
3, 13920, Note_on_c, 1, 72, 100
3, 14148, Note_on_c, 1, 72, 0
3, 14160, Note_on_c, 1, 70, 100
3, 14388, Note_on_c, 1, 70, 0
3, 14400, Note_on_c, 1, 69, 100
3, 14856, Note_on_c, 1, 69, 0
3, 14880, Note_on_c, 1, 72, 100
3, 15108, Note_on_c, 1, 72, 0
3, 15360, Note_on_c, 1, 67, 100
3, 15816, Note_on_c, 1, 67, 0
3, 15840, Note_on_c, 1, 69, 100
3, 16068, Note_on_c, 1, 69, 0
3, 16080, Note_on_c, 1, 67, 100
3, 16308, Note_on_c, 1, 67, 0
3, 16320, Note_on_c, 1, 65, 100
3, 16472, Note_on_c, 1, 65, 0
3, 16479, Note_on_c, 1, 64, 100
3, 16631, Note_on_c, 1, 64, 0
3, 16639, Note_on_c, 1, 65, 100
3, 16790, Note_on_c, 1, 65, 0
3, 16800, Note_on_c, 1, 69, 100
3, 16952, Note_on_c, 1, 69, 0
3, 16959, Note_on_c, 1, 67, 100
3, 17111, Note_on_c, 1, 67, 0
3, 17119, Note_on_c, 1, 65, 100
3, 17270, Note_on_c, 1, 65, 0
3, 17280, Control_c, 1, 7, 110
3, 17280, Note_on_c, 1, 67, 100
3, 17315, Control_c, 1, 7, 109
3, 17386, Control_c, 1, 7, 108
3, 17456, Control_c, 1, 7, 107
3, 17526, Control_c, 1, 7, 106
3, 17597, Control_c, 1, 7, 105
3, 17632, Control_c, 1, 7, 104
3, 17702, Control_c, 1, 7, 103
3, 17772, Control_c, 1, 7, 102
3, 17843, Control_c, 1, 7, 101
3, 17914, Control_c, 1, 7, 100
3, 17984, Control_c, 1, 7, 99
3, 18019, Control_c, 1, 7, 98
3, 18089, Control_c, 1, 7, 97
3, 18160, Control_c, 1, 7, 96
3, 18216, Note_on_c, 1, 67, 0
3, 18230, Control_c, 1, 7, 95
3, 18240, Note_on_c, 1, 65, 100
3, 18696, Note_on_c, 1, 65, 0
3, 19200, Note_on_c, 1, 69, 100
3, 19656, Note_on_c, 1, 69, 0
3, 19680, Note_on_c, 1, 69, 100
3, 19908, Note_on_c, 1, 69, 0
3, 19920, Note_on_c, 1, 69, 100
3, 20148, Note_on_c, 1, 69, 0
3, 20160, Note_on_c, 1, 67, 100
3, 20616, Note_on_c, 1, 67, 0
3, 20640, Note_on_c, 1, 69, 100
3, 20868, Note_on_c, 1, 69, 0
3, 20880, Note_on_c, 1, 69, 100
3, 21108, Note_on_c, 1, 69, 0
3, 21120, Note_on_c, 1, 70, 100
3, 21576, Note_on_c, 1, 70, 0
3, 21600, Note_on_c, 1, 72, 100
3, 21828, Note_on_c, 1, 72, 0
3, 21840, Note_on_c, 1, 70, 100
3, 22068, Note_on_c, 1, 70, 0
3, 22080, Note_on_c, 1, 69, 100
3, 22536, Note_on_c, 1, 69, 0
3, 22560, Note_on_c, 1, 72, 100
3, 22788, Note_on_c, 1, 72, 0
3, 23040, Note_on_c, 1, 67, 100
3, 23496, Note_on_c, 1, 67, 0
3, 23520, Note_on_c, 1, 69, 100
3, 23748, Note_on_c, 1, 69, 0
3, 23760, Note_on_c, 1, 67, 100
3, 23988, Note_on_c, 1, 67, 0
3, 24000, Note_on_c, 1, 65, 100
3, 24152, Note_on_c, 1, 65, 0
3, 24159, Note_on_c, 1, 64, 100
3, 24311, Note_on_c, 1, 64, 0
3, 24319, Note_on_c, 1, 65, 100
3, 24470, Note_on_c, 1, 65, 0
3, 24480, Note_on_c, 1, 69, 100
3, 24632, Note_on_c, 1, 69, 0
3, 24639, Note_on_c, 1, 67, 100
3, 24791, Note_on_c, 1, 67, 0
3, 24799, Note_on_c, 1, 65, 100
3, 24950, Note_on_c, 1, 65, 0
3, 24960, Note_on_c, 1, 67, 100
3, 25896, Note_on_c, 1, 67, 0
3, 25920, Note_on_c, 1, 65, 100
3, 26376, Note_on_c, 1, 65, 0
3, 27360, Note_on_c, 1, 69, 100
3, 27588, Note_on_c, 1, 69, 0
3, 27600, Note_on_c, 1, 69, 100
3, 27828, Note_on_c, 1, 69, 0
3, 27840, Note_on_c, 1, 69, 100
3, 28068, Note_on_c, 1, 69, 0
3, 28080, Note_on_c, 1, 69, 100
3, 28308, Note_on_c, 1, 69, 0
3, 28320, Note_on_c, 1, 69, 100
3, 28548, Note_on_c, 1, 69, 0
3, 28560, Note_on_c, 1, 69, 100
3, 28788, Note_on_c, 1, 69, 0
3, 28800, Note_on_c, 1, 72, 100
3, 30216, Note_on_c, 1, 72, 0
3, 30240, Note_on_c, 1, 67, 100
3, 30696, Note_on_c, 1, 67, 0
3, 30720, Note_on_c, 1, 67, 100
3, 31428, Note_on_c, 1, 67, 0
3, 31440, Note_on_c, 1, 67, 100
3, 31668, Note_on_c, 1, 67, 0
3, 31680, Control_c, 1, 7, 110
3, 31680, Note_on_c, 1, 70, 100
3, 31715, Control_c, 1, 7, 109
3, 31786, Control_c, 1, 7, 108
3, 31821, Control_c, 1, 7, 107
3, 31891, Control_c, 1, 7, 106
3, 31908, Note_on_c, 1, 70, 0
3, 31920, Note_on_c, 1, 69, 100
3, 31961, Control_c, 1, 7, 105
3, 31997, Control_c, 1, 7, 104
3, 32067, Control_c, 1, 7, 103
3, 32102, Control_c, 1, 7, 102
3, 32148, Note_on_c, 1, 69, 0
3, 32160, Note_on_c, 1, 67, 100
3, 32172, Control_c, 1, 7, 101
3, 32243, Control_c, 1, 7, 100
3, 32278, Control_c, 1, 7, 99
3, 32349, Control_c, 1, 7, 98
3, 32384, Control_c, 1, 7, 97
3, 32388, Note_on_c, 1, 67, 0
3, 32400, Note_on_c, 1, 69, 100
3, 32454, Control_c, 1, 7, 96
3, 32520, Control_c, 1, 7, 95
3, 32628, Note_on_c, 1, 69, 0
3, 32640, Note_on_c, 1, 70, 100
3, 33576, Note_on_c, 1, 70, 0
3, 33600, Note_on_c, 1, 65, 100
3, 34056, Note_on_c, 1, 65, 0
3, 34560, Note_on_c, 1, 67, 100
3, 35016, Note_on_c, 1, 67, 0
3, 35040, Note_on_c, 1, 69, 100
3, 35268, Note_on_c, 1, 69, 0
3, 35280, Note_on_c, 1, 70, 100
3, 35508, Note_on_c, 1, 70, 0
3, 35520, Note_on_c, 1, 69, 100
3, 35976, Note_on_c, 1, 69, 0
3, 36000, Note_on_c, 1, 74, 100
3, 36456, Note_on_c, 1, 74, 0
3, 36480, Note_on_c, 1, 69, 100
3, 36708, Note_on_c, 1, 69, 0
3, 36720, Note_on_c, 1, 67, 100
3, 36948, Note_on_c, 1, 67, 0
3, 36960, Note_on_c, 1, 65, 100
3, 37188, Note_on_c, 1, 65, 0
3, 37200, Note_on_c, 1, 64, 100
3, 37428, Note_on_c, 1, 64, 0
3, 37440, Control_c, 1, 7, 106
3, 37440, Note_on_c, 1, 65, 100
3, 37475, Control_c, 1, 7, 105
3, 37546, Control_c, 1, 7, 104
3, 37616, Control_c, 1, 7, 103
3, 37686, Control_c, 1, 7, 102
3, 37757, Control_c, 1, 7, 101
3, 37827, Control_c, 1, 7, 100
3, 37896, Note_on_c, 1, 65, 0
3, 37897, Control_c, 1, 7, 99
3, 37920, Note_on_c, 1, 62, 100
3, 37932, Control_c, 1, 7, 98
3, 38003, Control_c, 1, 7, 97
3, 38074, Control_c, 1, 7, 96
3, 38144, Control_c, 1, 7, 95
3, 38148, Note_on_c, 1, 62, 0
3, 38400, Control_c, 1, 7, 118
3, 38640, Note_on_c, 1, 64, 100
3, 38868, Note_on_c, 1, 64, 0
3, 38880, Note_on_c, 1, 64, 100
3, 39108, Note_on_c, 1, 64, 0
3, 39120, Note_on_c, 1, 64, 100
3, 39348, Note_on_c, 1, 64, 0
3, 39360, Note_on_c, 1, 64, 100
3, 40068, Note_on_c, 1, 64, 0
3, 40080, Note_on_c, 1, 64, 100
3, 40308, Note_on_c, 1, 64, 0
3, 40560, Control_c, 1, 7, 90
3, 40560, Note_on_c, 1, 64, 100
3, 40788, Note_on_c, 1, 64, 0
3, 40800, Note_on_c, 1, 64, 100
3, 41028, Note_on_c, 1, 64, 0
3, 41040, Note_on_c, 1, 64, 100
3, 41268, Note_on_c, 1, 64, 0
3, 41280, Note_on_c, 1, 64, 100
3, 41988, Note_on_c, 1, 64, 0
3, 42000, Note_on_c, 1, 64, 100
3, 42228, Note_on_c, 1, 64, 0
3, 42240, Control_c, 1, 7, 100
3, 42720, Note_on_c, 1, 65, 100
3, 43062, Note_on_c, 1, 65, 0
3, 43080, Note_on_c, 1, 65, 100
3, 43194, Note_on_c, 1, 65, 0
3, 43200, Note_on_c, 1, 65, 100
3, 43908, Note_on_c, 1, 65, 0
3, 43920, Note_on_c, 1, 66, 100
3, 44148, Note_on_c, 1, 66, 0
3, 44640, Note_on_c, 1, 67, 100
3, 44710, Control_c, 1, 7, 101
3, 44851, Control_c, 1, 7, 102
3, 44868, Note_on_c, 1, 67, 0
3, 44880, Note_on_c, 1, 67, 100
3, 44992, Control_c, 1, 7, 103
3, 45108, Note_on_c, 1, 67, 0
3, 45120, Note_on_c, 1, 67, 100
3, 45132, Control_c, 1, 7, 104
3, 45238, Control_c, 1, 7, 105
3, 45379, Control_c, 1, 7, 106
3, 45520, Control_c, 1, 7, 107
3, 45660, Control_c, 1, 7, 108
3, 45766, Control_c, 1, 7, 109
3, 45828, Note_on_c, 1, 67, 0
3, 45840, Note_on_c, 1, 68, 100
3, 45907, Control_c, 1, 7, 110
3, 46068, Note_on_c, 1, 68, 0
3, 46080, Note_on_c, 1, 69, 100
3, 46256, Control_c, 1, 7, 111
3, 46308, Note_on_c, 1, 69, 0
3, 46320, Note_on_c, 1, 69, 100
3, 46537, Control_c, 1, 7, 112
3, 46548, Note_on_c, 1, 69, 0
3, 46560, Note_on_c, 1, 69, 100
3, 46854, Control_c, 1, 7, 113
3, 47016, Note_on_c, 1, 69, 0
3, 47040, Note_on_c, 1, 69, 100
3, 47136, Control_c, 1, 7, 114
3, 47453, Control_c, 1, 7, 115
3, 47734, Control_c, 1, 7, 116
3, 47748, Note_on_c, 1, 69, 0
3, 47760, Note_on_c, 1, 69, 100
3, 47988, Note_on_c, 1, 69, 0
3, 48000, Note_on_c, 1, 72, 100
3, 48070, Control_c, 1, 7, 115
3, 48176, Control_c, 1, 7, 114
3, 48246, Control_c, 1, 7, 113
3, 48352, Control_c, 1, 7, 112
3, 48457, Control_c, 1, 7, 111
3, 48563, Control_c, 1, 7, 110
3, 48669, Control_c, 1, 7, 109
3, 48739, Control_c, 1, 7, 108
3, 48845, Control_c, 1, 7, 107
3, 48936, Note_on_c, 1, 72, 0
3, 48950, Control_c, 1, 7, 106
3, 48960, Note_on_c, 1, 69, 100
3, 49056, Control_c, 1, 7, 105
3, 49416, Note_on_c, 1, 69, 0
3, 49440, Note_on_c, 1, 69, 100
3, 49896, Note_on_c, 1, 69, 0
3, 49920, Note_on_c, 1, 64, 100
3, 50026, Control_c, 1, 7, 104
3, 50201, Control_c, 1, 7, 103
3, 50376, Note_on_c, 1, 64, 0
3, 50377, Control_c, 1, 7, 102
3, 50400, Note_on_c, 1, 69, 100
3, 50554, Control_c, 1, 7, 101
3, 50765, Control_c, 1, 7, 100
3, 50787, Note_on_c, 1, 69, 0
3, 50880, Note_on_c, 1, 68, 100
3, 50940, Control_c, 1, 7, 99
3, 51117, Control_c, 1, 7, 98
3, 51293, Control_c, 1, 7, 97
3, 51336, Note_on_c, 1, 68, 0
3, 51360, Note_on_c, 1, 72, 100
3, 51468, Control_c, 1, 7, 96
3, 51645, Control_c, 1, 7, 95
3, 51816, Note_on_c, 1, 72, 0
3, 51840, Note_on_c, 1, 71, 100
3, 52296, Note_on_c, 1, 71, 0
3, 52320, Note_on_c, 1, 69, 100
3, 52776, Note_on_c, 1, 69, 0
3, 57600, Control_c, 1, 7, 115
3, 57600, Note_on_c, 1, 72, 100
3, 57670, Control_c, 1, 7, 114
3, 57776, Control_c, 1, 7, 113
3, 57846, Control_c, 1, 7, 112
3, 57952, Control_c, 1, 7, 111
3, 58057, Control_c, 1, 7, 110
3, 58128, Control_c, 1, 7, 109
3, 58234, Control_c, 1, 7, 108
3, 58339, Control_c, 1, 7, 107
3, 58409, Control_c, 1, 7, 106
3, 58515, Control_c, 1, 7, 105
3, 58536, Note_on_c, 1, 72, 0
3, 58560, Note_on_c, 1, 71, 100
3, 58620, Control_c, 1, 7, 104
3, 58691, Control_c, 1, 7, 103
3, 58797, Control_c, 1, 7, 102
3, 58902, Control_c, 1, 7, 101
3, 59008, Control_c, 1, 7, 100
3, 59016, Note_on_c, 1, 71, 0
3, 59040, Note_on_c, 1, 70, 100
3, 59078, Control_c, 1, 7, 99
3, 59184, Control_c, 1, 7, 98
3, 59290, Control_c, 1, 7, 97
3, 59360, Control_c, 1, 7, 96
3, 59496, Note_on_c, 1, 70, 0
3, 59520, Note_on_c, 1, 69, 100
3, 59976, Note_on_c, 1, 69, 0
3, 60000, Note_on_c, 1, 69, 100
3, 60228, Note_on_c, 1, 69, 0
3, 60240, Note_on_c, 1, 69, 100
3, 60468, Note_on_c, 1, 69, 0
3, 60480, Note_on_c, 1, 67, 100
3, 61188, Note_on_c, 1, 67, 0
3, 61200, Note_on_c, 1, 69, 100
3, 61428, Note_on_c, 1, 69, 0
3, 61440, Note_on_c, 1, 70, 100
3, 61668, Note_on_c, 1, 70, 0
3, 61680, Note_on_c, 1, 70, 100
3, 61908, Note_on_c, 1, 70, 0
3, 61920, Note_on_c, 1, 72, 100
3, 62262, Note_on_c, 1, 72, 0
3, 62280, Note_on_c, 1, 70, 100
3, 62394, Note_on_c, 1, 70, 0
3, 62400, Note_on_c, 1, 69, 100
3, 62856, Note_on_c, 1, 69, 0
3, 62880, Note_on_c, 1, 72, 100
3, 63108, Note_on_c, 1, 72, 0
3, 63120, Note_on_c, 1, 69, 100
3, 63348, Note_on_c, 1, 69, 0
3, 63360, Note_on_c, 1, 67, 100
3, 63588, Note_on_c, 1, 67, 0
3, 63600, Note_on_c, 1, 67, 100
3, 63828, Note_on_c, 1, 67, 0
3, 63840, Note_on_c, 1, 69, 100
3, 64068, Note_on_c, 1, 69, 0
3, 64080, Note_on_c, 1, 67, 100
3, 64308, Note_on_c, 1, 67, 0
3, 64320, Note_on_c, 1, 65, 100
3, 64355, Control_c, 1, 7, 97
3, 64426, Control_c, 1, 7, 98
3, 64496, Control_c, 1, 7, 99
3, 64531, Control_c, 1, 7, 100
3, 64548, Note_on_c, 1, 65, 0
3, 64560, Note_on_c, 1, 69, 100
3, 64601, Control_c, 1, 7, 101
3, 64672, Control_c, 1, 7, 102
3, 64742, Control_c, 1, 7, 103
3, 64777, Control_c, 1, 7, 104
3, 64788, Note_on_c, 1, 69, 0
3, 64800, Note_on_c, 1, 67, 100
3, 64848, Control_c, 1, 7, 105
3, 64918, Control_c, 1, 7, 106
3, 64954, Control_c, 1, 7, 107
3, 65024, Control_c, 1, 7, 108
3, 65028, Note_on_c, 1, 67, 0
3, 65040, Note_on_c, 1, 65, 100
3, 65094, Control_c, 1, 7, 109
3, 65160, Control_c, 1, 7, 110
3, 65268, Note_on_c, 1, 65, 0
3, 65280, Note_on_c, 1, 67, 100
3, 65350, Control_c, 1, 7, 109
3, 65456, Control_c, 1, 7, 108
3, 65561, Control_c, 1, 7, 107
3, 65667, Control_c, 1, 7, 106
3, 65772, Control_c, 1, 7, 105
3, 65878, Control_c, 1, 7, 104
3, 65949, Control_c, 1, 7, 103
3, 66054, Control_c, 1, 7, 102
3, 66160, Control_c, 1, 7, 101
3, 66216, Note_on_c, 1, 67, 0
3, 66240, Note_on_c, 1, 65, 100
3, 66265, Control_c, 1, 7, 100
3, 66371, Control_c, 1, 7, 99
3, 66477, Control_c, 1, 7, 98
3, 66582, Control_c, 1, 7, 97
3, 66688, Control_c, 1, 7, 96
3, 66696, Note_on_c, 1, 65, 0
3, 67200, Note_on_c, 1, 69, 100
3, 67428, Note_on_c, 1, 69, 0
3, 67440, Note_on_c, 1, 69, 100
3, 67668, Note_on_c, 1, 69, 0
3, 67680, Note_on_c, 1, 70, 100
3, 67908, Note_on_c, 1, 70, 0
3, 67920, Note_on_c, 1, 69, 100
3, 68148, Note_on_c, 1, 69, 0
3, 68160, Note_on_c, 1, 69, 100
3, 68868, Note_on_c, 1, 69, 0
3, 68880, Note_on_c, 1, 67, 100
3, 69108, Note_on_c, 1, 67, 0
3, 69120, Note_on_c, 1, 65, 100
3, 69226, Control_c, 1, 7, 97
3, 69348, Note_on_c, 1, 65, 0
3, 69360, Note_on_c, 1, 72, 100
3, 69401, Control_c, 1, 7, 98
3, 69577, Control_c, 1, 7, 99
3, 69588, Note_on_c, 1, 72, 0
3, 69600, Note_on_c, 1, 74, 100
3, 69754, Control_c, 1, 7, 100
3, 69828, Note_on_c, 1, 74, 0
3, 69840, Note_on_c, 1, 72, 100
3, 69929, Control_c, 1, 7, 101
3, 70068, Note_on_c, 1, 72, 0
3, 70080, Note_on_c, 1, 72, 100
3, 70105, Control_c, 1, 7, 102
3, 70282, Control_c, 1, 7, 103
3, 70457, Control_c, 1, 7, 104
3, 70536, Note_on_c, 1, 72, 0
3, 70560, Note_on_c, 1, 70, 100
3, 70633, Control_c, 1, 7, 105
3, 70788, Note_on_c, 1, 70, 0
3, 70800, Note_on_c, 1, 69, 100
3, 70810, Control_c, 1, 7, 106
3, 71021, Control_c, 1, 7, 107
3, 71028, Note_on_c, 1, 69, 0
3, 71040, Note_on_c, 1, 69, 100
3, 71196, Control_c, 1, 7, 108
3, 71373, Control_c, 1, 7, 109
3, 71496, Note_on_c, 1, 69, 0
3, 71520, Note_on_c, 1, 67, 100
3, 71549, Control_c, 1, 7, 110
3, 71724, Control_c, 1, 7, 111
3, 71901, Control_c, 1, 7, 112
3, 71976, Note_on_c, 1, 67, 0
3, 72077, Control_c, 1, 7, 113
3, 72252, Control_c, 1, 7, 114
3, 72429, Control_c, 1, 7, 115
3, 72605, Control_c, 1, 7, 116
3, 72720, Note_on_c, 1, 69, 100
3, 72780, Control_c, 1, 7, 117
3, 72948, Note_on_c, 1, 69, 0
3, 72957, Control_c, 1, 7, 118
3, 72960, Note_on_c, 1, 69, 100
3, 73133, Control_c, 1, 7, 119
3, 73308, Control_c, 1, 7, 120
3, 73416, Note_on_c, 1, 69, 0
3, 73440, Note_on_c, 1, 67, 100
3, 73485, Control_c, 1, 7, 121
3, 73661, Control_c, 1, 7, 122
3, 73836, Control_c, 1, 7, 123
3, 73896, Note_on_c, 1, 67, 0
3, 74880, Note_on_c, 1, 74, 100
3, 74950, Control_c, 1, 7, 122
3, 75091, Control_c, 1, 7, 121
3, 75232, Control_c, 1, 7, 120
3, 75372, Control_c, 1, 7, 119
3, 75478, Control_c, 1, 7, 118
3, 75619, Control_c, 1, 7, 117
3, 75760, Control_c, 1, 7, 116
3, 75816, Note_on_c, 1, 74, 0
3, 75840, Note_on_c, 1, 67, 100
3, 75865, Control_c, 1, 7, 115
3, 76006, Control_c, 1, 7, 114
3, 76147, Control_c, 1, 7, 113
3, 76288, Control_c, 1, 7, 112
3, 76393, Control_c, 1, 7, 111
3, 76534, Control_c, 1, 7, 110
3, 76675, Control_c, 1, 7, 109
3, 76776, Note_on_c, 1, 67, 0
3, 76800, Note_on_c, 1, 70, 100
3, 76816, Control_c, 1, 7, 108
3, 76921, Control_c, 1, 7, 107
3, 77062, Control_c, 1, 7, 106
3, 77142, Note_on_c, 1, 70, 0
3, 77160, Note_on_c, 1, 69, 100
3, 77203, Control_c, 1, 7, 105
3, 77274, Note_on_c, 1, 69, 0
3, 77280, Note_on_c, 1, 67, 100
3, 77309, Control_c, 1, 7, 104
3, 77449, Control_c, 1, 7, 103
3, 77508, Note_on_c, 1, 67, 0
3, 77520, Note_on_c, 1, 69, 100
3, 77590, Control_c, 1, 7, 102
3, 77731, Control_c, 1, 7, 101
3, 77748, Note_on_c, 1, 69, 0
3, 77760, Note_on_c, 1, 65, 100
3, 77837, Control_c, 1, 7, 100
3, 77977, Control_c, 1, 7, 99
3, 78118, Control_c, 1, 7, 98
3, 78216, Note_on_c, 1, 65, 0
3, 78240, Note_on_c, 1, 69, 100
3, 78259, Control_c, 1, 7, 97
3, 78365, Control_c, 1, 7, 96
3, 78505, Control_c, 1, 7, 95
3, 78646, Control_c, 1, 7, 94
3, 78696, Note_on_c, 1, 69, 0
3, 78720, Note_on_c, 1, 70, 100
3, 78752, Control_c, 1, 7, 93
3, 78893, Control_c, 1, 7, 92
3, 78948, Note_on_c, 1, 70, 0
3, 78960, Note_on_c, 1, 69, 100
3, 79033, Control_c, 1, 7, 91
3, 79174, Control_c, 1, 7, 90
3, 79188, Note_on_c, 1, 69, 0
3, 79200, Note_on_c, 1, 67, 100
3, 79280, Control_c, 1, 7, 89
3, 79421, Control_c, 1, 7, 88
3, 79428, Note_on_c, 1, 67, 0
3, 79440, Note_on_c, 1, 69, 100
3, 79561, Control_c, 1, 7, 87
3, 79668, Note_on_c, 1, 69, 0
3, 79680, Note_on_c, 1, 67, 100
3, 79702, Control_c, 1, 7, 86
3, 79808, Control_c, 1, 7, 85
3, 79949, Control_c, 1, 7, 84
3, 80089, Control_c, 1, 7, 83
3, 80195, Control_c, 1, 7, 82
3, 80336, Control_c, 1, 7, 81
3, 80388, Note_on_c, 1, 67, 0
3, 80400, Note_on_c, 1, 65, 100
3, 80477, Control_c, 1, 7, 80
3, 80628, Note_on_c, 1, 65, 0
3, 90240, End_track
0, 0, End_of_file