0, 0, Header, 1, 11, 384
1, 0, Start_track
1, 0, Time_signature, 4, 2, 96, 8
1, 0, Sequencer_specific, 03, 00, 00, 41
1, 0, Tempo, 431654
1, 33484, Tempo, 400000
1, 52644, Tempo, 400000
1, 56080, Tempo, 355029
1, 65616, Tempo, 344827
1, 75264, Tempo, 355029
1, 76800, Tempo, 355029
1, 76836, Tempo, 357142
1, 76872, Tempo, 359281
1, 76908, Tempo, 361445
1, 76944, Tempo, 363636
1, 76980, Tempo, 365853
1, 77016, Tempo, 368098
1, 77052, Tempo, 370370
1, 77088, Tempo, 372670
1, 77124, Tempo, 375000
1, 77160, Tempo, 377358
1, 77196, Tempo, 382165
1, 77232, Tempo, 384615
1, 77268, Tempo, 387096
1, 77304, Tempo, 389610
1, 77340, Tempo, 392156
1, 77376, Tempo, 394736
1, 77412, Tempo, 397350
1, 77448, Tempo, 400000
1, 77484, Tempo, 402684
1, 77520, Tempo, 405405
1, 77556, Tempo, 408163
1, 77592, Tempo, 410958
1, 77628, Tempo, 413793
1, 77664, Tempo, 416666
1, 77700, Tempo, 419580
1, 79388, Tempo, 428571
1, 115880, Tempo, 405405
1, 196676, Tempo, 368098
1, 237248, Tempo, 344827
1, 250368, Tempo, 344827
1, 250452, Tempo, 346820
1, 250536, Tempo, 348837
1, 250620, Tempo, 350877
1, 250704, Tempo, 352941
1, 250788, Tempo, 355029
1, 250872, Tempo, 357142
1, 250956, Tempo, 359281
1, 251040, Tempo, 361445
1, 251124, Tempo, 363636
1, 251208, Tempo, 365853
1, 251292, Tempo, 368098
1, 251376, Tempo, 370370
1, 251460, Tempo, 372670
1, 251544, Tempo, 375000
1, 251628, Tempo, 355029
1, 297508, Tempo, 377358
1, 314980, Tempo, 365853
1, 319792, Tempo, 344827
1, 325108, Tempo, 333333
1, 339456, Tempo, 333333
1, 339516, Tempo, 335195
1, 339576, Tempo, 337078
1, 339636, Tempo, 338983
1, 339696, Tempo, 340909
1, 339756, Tempo, 344827
1, 339816, Tempo, 346820
1, 339876, Tempo, 348837
1, 339936, Tempo, 350877
1, 339996, Tempo, 352941
1, 340056, Tempo, 355029
1, 340116, Tempo, 357142
1, 340176, Tempo, 359281
1, 340236, Tempo, 361445
1, 340296, Tempo, 363636
1, 340356, Tempo, 365853
1, 340416, Tempo, 368098
1, 340476, Tempo, 370370
1, 340536, Tempo, 372670
1, 340596, Tempo, 375000
1, 340656, Tempo, 377358
1, 340716, Tempo, 382165
1, 340776, Tempo, 384615
1, 340836, Tempo, 387096
1, 340896, Tempo, 389610
1, 340956, Tempo, 392156
1, 341016, Tempo, 394736
1, 341076, Tempo, 397350
1, 341136, Tempo, 400000
1, 341196, Tempo, 402684
1, 341256, Tempo, 405405
1, 345876, Tempo, 431654
1, 350060, Tempo, 451127
1, 389092, Tempo, 465116
1, 396516, Tempo, 410958
1, 410784, Tempo, 434782
1, 453728, Tempo, 397350
1, 470016, Tempo, 451127
1, 470016, End_track
2, 0, Start_track
2, 0, Title_t, "Chopin Sonata No. 3"
2, 0, Key_signature, 0, "major"
2, 964, Note_on_c, 0, 79, 87
2, 972, Control_c, 0, 64, 24
2, 984, Control_c, 0, 64, 88
2, 1000, Control_c, 0, 64, 127
2, 1064, Note_on_c, 0, 78, 85
2, 1096, Note_off_c, 0, 79, 0
2, 1180, Note_on_c, 0, 74, 87
2, 1212, Note_off_c, 0, 78, 0
2, 1252, Note_off_c, 0, 74, 0
2, 1276, Note_on_c, 0, 71, 89
2, 1356, Note_off_c, 0, 71, 0
2, 1404, Note_on_c, 0, 66, 85
2, 1464, Control_c, 0, 64, 56
2, 1480, Control_c, 0, 64, 0
2, 1576, Control_c, 0, 64, 104
2, 1592, Control_c, 0, 64, 127
2, 1808, Control_c, 0, 64, 40
2, 1816, Note_on_c, 0, 59, 44
2, 1820, Note_on_c, 0, 47, 54
2, 1820, Note_on_c, 0, 62, 51
2, 1820, Control_c, 0, 64, 0
2, 1884, Control_c, 0, 64, 40
2, 1888, Note_off_c, 0, 47, 0
2, 1900, Control_c, 0, 64, 104
2, 1904, Note_off_c, 0, 62, 0
2, 1916, Note_off_c, 0, 59, 0
2, 1916, Control_c, 0, 64, 127
2, 1956, Note_off_c, 0, 66, 0
2, 2216, Note_on_c, 0, 71, 90
2, 2224, Control_c, 0, 64, 116
2, 2232, Note_on_c, 0, 59, 66
2, 2232, Note_on_c, 0, 64, 74
2, 2236, Note_on_c, 0, 43, 67
2, 2244, Note_on_c, 0, 55, 51
2, 2244, Control_c, 0, 64, 0
2, 2276, Note_off_c, 0, 71, 0
2, 2288, Note_off_c, 0, 43, 0
2, 2288, Control_c, 0, 64, 24
2, 2292, Note_off_c, 0, 59, 0
2, 2296, Note_off_c, 0, 55, 0
2, 2304, Note_off_c, 0, 64, 0
2, 2304, Control_c, 0, 64, 88
2, 2660, Control_c, 0, 64, 127
2, 2660, Note_on_c, 0, 73, 93
2, 2660, Note_on_c, 0, 61, 60
2, 2660, Note_on_c, 0, 71, 57
2, 2660, Note_on_c, 0, 67, 60
2, 2660, Note_on_c, 0, 52, 61
2, 2660, Note_on_c, 0, 40, 66
2, 2660, Control_c, 0, 64, 40
2, 2676, Control_c, 0, 64, 0
2, 2748, Control_c, 0, 64, 88
2, 2768, Control_c, 0, 64, 127
2, 2824, Note_off_c, 0, 73, 0
2, 2828, Note_off_c, 0, 61, 0
2, 2828, Note_off_c, 0, 71, 0
2, 2836, Note_off_c, 0, 52, 0
2, 2836, Note_off_c, 0, 40, 0
2, 2840, Note_off_c, 0, 67, 0
2, 3128, Note_on_c, 0, 70, 89
2, 3128, Note_on_c, 0, 49, 58
2, 3128, Note_on_c, 0, 42, 63
2, 3128, Note_on_c, 0, 54, 60
2, 3128, Note_on_c, 0, 66, 61
2, 3128, Note_on_c, 0, 61, 62
2, 3128, Note_on_c, 0, 58, 63
2, 3216, Control_c, 0, 64, 104
2, 3232, Control_c, 0, 64, 0
2, 3340, Control_c, 0, 64, 127
2, 3344, Note_off_c, 0, 49, 0
2, 3348, Note_off_c, 0, 66, 0
2, 3352, Note_off_c, 0, 61, 0
2, 3356, Note_off_c, 0, 42, 0
2, 3356, Note_off_c, 0, 54, 0
2, 3360, Note_off_c, 0, 70, 0
2, 3380, Note_off_c, 0, 58, 0
2, 3740, Note_on_c, 0, 54, 71
2, 3740, Note_on_c, 0, 66, 91
2, 3740, Note_on_c, 0, 52, 77
2, 3740, Note_on_c, 0, 40, 70
2, 3740, Note_on_c, 0, 61, 25
2, 3740, Note_on_c, 0, 58, 62
2, 3768, Note_off_c, 0, 61, 0
2, 3784, Note_off_c, 0, 40, 0
2, 3788, Note_off_c, 0, 54, 0
2, 3792, Note_off_c, 0, 58, 0
2, 3796, Note_off_c, 0, 52, 0
2, 3812, Note_off_c, 0, 66, 0
2, 3852, Control_c, 0, 64, 104
2, 3864, Control_c, 0, 64, 72
2, 3884, Control_c, 0, 64, 56
2, 3900, Control_c, 0, 64, 24
2, 3916, Control_c, 0, 64, 0
2, 3944, Note_on_c, 0, 71, 96
2, 3948, Note_on_c, 0, 59, 70
2, 3956, Note_on_c, 0, 50, 75
2, 3956, Note_on_c, 0, 66, 61
2, 3980, Note_on_c, 0, 38, 65
2, 3988, Note_off_c, 0, 66, 0
2, 4004, Note_off_c, 0, 59, 0
2, 4008, Note_off_c, 0, 50, 0
2, 4012, Note_off_c, 0, 71, 0
2, 4012, Note_off_c, 0, 38, 0
2, 4140, Note_on_c, 0, 73, 95
2, 4140, Note_on_c, 0, 61, 77
2, 4140, Note_on_c, 0, 66, 69
2, 4148, Note_on_c, 0, 46, 76
2, 4148, Note_on_c, 0, 34, 71
2, 4192, Note_off_c, 0, 61, 0
2, 4192, Note_off_c, 0, 46, 0
2, 4192, Note_off_c, 0, 34, 0
2, 4224, Note_off_c, 0, 73, 0
2, 4248, Note_off_c, 0, 66, 0
2, 4340, Note_on_c, 0, 74, 96
2, 4340, Note_on_c, 0, 62, 79
2, 4344, Note_on_c, 0, 47, 65
2, 4348, Note_on_c, 0, 66, 51
2, 4360, Note_on_c, 0, 35, 71
2, 4384, Note_off_c, 0, 47, 0
2, 4392, Note_off_c, 0, 66, 0
2, 4392, Note_off_c, 0, 35, 0
2, 4396, Note_off_c, 0, 62, 0
2, 4412, Note_off_c, 0, 74, 0
2, 4540, Note_on_c, 0, 76, 96
2, 4540, Note_on_c, 0, 64, 87
2, 4548, Note_on_c, 0, 71, 80
2, 4548, Note_on_c, 0, 67, 73
2, 4556, Note_on_c, 0, 59, 82
2, 4556, Note_on_c, 0, 55, 82
2, 4556, Note_on_c, 0, 52, 70
2, 4560, Note_on_c, 0, 47, 74
2, 4572, Note_off_c, 0, 67, 0
2, 4576, Note_off_c, 0, 71, 0
2, 4576, Note_off_c, 0, 55, 0
2, 4584, Note_off_c, 0, 52, 0
2, 4588, Note_off_c, 0, 64, 0
2, 4592, Note_off_c, 0, 59, 0
2, 4604, Note_off_c, 0, 47, 0
2, 4616, Note_off_c, 0, 76, 0
2, 4788, Note_on_c, 0, 78, 97
2, 4792, Note_on_c, 0, 66, 88
2, 4792, Note_on_c, 0, 74, 84
2, 4800, Note_on_c, 0, 71, 76
2, 4800, Note_on_c, 0, 54, 69
2, 4804, Note_on_c, 0, 59, 75
2, 4804, Note_on_c, 0, 47, 70
2, 4808, Note_on_c, 0, 50, 72
2, 4828, Note_off_c, 0, 71, 0
2, 4936, Control_c, 0, 64, 56
2, 4952, Control_c, 0, 64, 127
2, 5040, Note_off_c, 0, 47, 0
2, 5048, Note_off_c, 0, 66, 0
2, 5068, Note_off_c, 0, 74, 0
2, 5068, Note_off_c, 0, 59, 0
2, 5068, Note_off_c, 0, 50, 0
2, 5080, Note_off_c, 0, 54, 0
2, 5096, Note_off_c, 0, 78, 0
2, 5656, Note_on_c, 0, 81, 102
2, 5664, Note_on_c, 0, 76, 88
2, 5668, Note_on_c, 0, 69, 88
2, 5668, Note_on_c, 0, 71, 82
2, 5676, Note_on_c, 0, 59, 74
2, 5680, Note_on_c, 0, 47, 74
2, 5680, Note_on_c, 0, 52, 70
2, 5680, Control_c, 0, 64, 24
2, 5688, Note_on_c, 0, 55, 70
2, 5696, Control_c, 0, 64, 0
2, 5756, Note_off_c, 0, 69, 0
2, 5760, Note_off_c, 0, 71, 0
2, 5776, Control_c, 0, 64, 104
2, 5788, Control_c, 0, 64, 127
2, 5792, Note_off_c, 0, 76, 0
2, 5824, Note_off_c, 0, 47, 0
2, 5836, Note_off_c, 0, 81, 0
2, 5852, Note_off_c, 0, 59, 0
2, 5852, Note_off_c, 0, 52, 0
2, 5864, Note_off_c, 0, 55, 0
2, 6296, Note_on_c, 0, 79, 95
2, 6300, Note_on_c, 0, 61, 65
2, 6300, Note_on_c, 0, 67, 80
2, 6308, Note_on_c, 0, 47, 70
2, 6316, Note_on_c, 0, 55, 63
2, 6316, Note_on_c, 0, 52, 55
2, 6316, Control_c, 0, 64, 40
2, 6324, Note_on_c, 0, 76, 68
2, 6328, Note_on_c, 0, 71, 62
2, 6332, Control_c, 0, 64, 0
2, 6340, Note_off_c, 0, 55, 0
2, 6352, Note_off_c, 0, 52, 0
2, 6352, Note_off_c, 0, 76, 0
2, 6356, Note_off_c, 0, 71, 0
2, 6364, Control_c, 0, 64, 24
2, 6376, Note_off_c, 0, 67, 0
2, 6376, Control_c, 0, 64, 88
2, 6384, Note_off_c, 0, 47, 0
2, 6392, Note_off_c, 0, 61, 0
2, 6392, Control_c, 0, 64, 127
2, 6396, Note_off_c, 0, 79, 0
2, 6460, Control_c, 0, 64, 0
2, 6496, Note_on_c, 0, 47, 76
2, 6500, Control_c, 0, 64, 24
2, 6516, Note_on_c, 0, 54, 51
2, 6516, Control_c, 0, 64, 0
2, 6544, Note_off_c, 0, 47, 0
2, 6560, Note_on_c, 0, 78, 101
2, 6564, Note_on_c, 0, 66, 73
2, 6576, Note_on_c, 0, 74, 75
2, 6580, Note_on_c, 0, 71, 66
2, 6580, Control_c, 0, 64, 127
2, 6584, Note_on_c, 0, 62, 70
2, 6592, Note_off_c, 0, 54, 0
2, 6600, Note_off_c, 0, 74, 0
2, 6604, Note_off_c, 0, 71, 0
2, 6612, Note_off_c, 0, 62, 0
2, 6620, Note_off_c, 0, 66, 0
2, 6672, Note_off_c, 0, 78, 0
2, 7480, Control_c, 0, 64, 104
2, 7496, Control_c, 0, 64, 40
2, 7508, Control_c, 0, 64, 0
2, 7612, Note_on_c, 0, 83, 80
2, 7832, Note_on_c, 0, 79, 79
2, 7836, Note_off_c, 0, 83, 0
2, 7920, Note_on_c, 0, 78, 83
2, 7944, Note_off_c, 0, 79, 0
2, 8032, Note_on_c, 0, 74, 85
2, 8040, Note_off_c, 0, 78, 0
2, 8112, Note_off_c, 0, 74, 0
2, 8124, Note_on_c, 0, 71, 86
2, 8196, Note_off_c, 0, 71, 0
2, 8236, Note_on_c, 0, 66, 86
2, 8436, Control_c, 0, 64, 40
2, 8452, Control_c, 0, 64, 56
2, 8468, Control_c, 0, 64, 72
2, 8488, Control_c, 0, 64, 88
2, 8500, Control_c, 0, 64, 104
2, 8564, Control_c, 0, 64, 127
2, 8620, Control_c, 0, 64, 72
2, 8636, Control_c, 0, 64, 0
2, 8660, Note_on_c, 0, 47, 60
2, 8660, Note_on_c, 0, 59, 40
2, 8676, Note_on_c, 0, 62, 45
2, 8732, Note_off_c, 0, 47, 0
2, 8732, Control_c, 0, 64, 24
2, 8748, Control_c, 0, 64, 88
2, 8752, Note_off_c, 0, 59, 0
2, 8752, Note_off_c, 0, 62, 0
2, 8764, Control_c, 0, 64, 127
2, 8824, Note_off_c, 0, 66, 0
2, 9060, Note_on_c, 0, 71, 89
2, 9060, Note_on_c, 0, 59, 63
2, 9060, Note_on_c, 0, 64, 68
2, 9060, Note_on_c, 0, 43, 65
2, 9060, Note_on_c, 0, 55, 68
2, 9072, Control_c, 0, 64, 56
2, 9088, Control_c, 0, 64, 0
2, 9124, Note_off_c, 0, 55, 0
2, 9128, Note_off_c, 0, 59, 0
2, 9128, Note_off_c, 0, 43, 0
2, 9136, Note_off_c, 0, 64, 0
2, 9152, Control_c, 0, 64, 56
2, 9164, Control_c, 0, 64, 127
2, 9176, Note_off_c, 0, 71, 0
2, 9488, Note_on_c, 0, 73, 91
2, 9488, Note_on_c, 0, 61, 73
2, 9488, Note_on_c, 0, 40, 64
2, 9488, Note_on_c, 0, 67, 70
2, 9488, Note_on_c, 0, 52, 77
2, 9488, Note_on_c, 0, 71, 74
2, 9492, Control_c, 0, 64, 88
2, 9508, Control_c, 0, 64, 0
2, 9544, Note_off_c, 0, 52, 0
2, 9548, Note_off_c, 0, 40, 0
2, 9552, Note_off_c, 0, 61, 0
2, 9552, Note_off_c, 0, 67, 0
2, 9564, Note_off_c, 0, 71, 0
2, 9568, Control_c, 0, 64, 72
2, 9588, Control_c, 0, 64, 127
2, 9612, Note_off_c, 0, 73, 0
2, 9948, Note_on_c, 0, 74, 90
2, 9956, Note_on_c, 0, 62, 70
2, 9960, Note_on_c, 0, 66, 56
2, 9964, Note_on_c, 0, 71, 66
2, 9968, Note_on_c, 0, 47, 70
2, 9968, Note_on_c, 0, 35, 64
2, 10036, Control_c, 0, 64, 24
2, 10052, Control_c, 0, 64, 0
2, 10116, Note_off_c, 0, 74, 0
2, 10128, Control_c, 0, 64, 104
2, 10132, Note_off_c, 0, 71, 0
2, 10132, Note_off_c, 0, 35, 0
2, 10144, Note_off_c, 0, 47, 0
2, 10144, Control_c, 0, 64, 127
2, 10156, Note_off_c, 0, 62, 0
2, 10168, Note_off_c, 0, 66, 0
2, 10564, Note_on_c, 0, 65, 81
2, 10576, Note_on_c, 0, 56, 62
2, 10580, Note_on_c, 0, 62, 64
2, 10592, Note_on_c, 0, 47, 63
2, 10596, Note_on_c, 0, 35, 68
2, 10608, Control_c, 0, 64, 88
2, 10616, Note_off_c, 0, 62, 0
2, 10624, Note_off_c, 0, 35, 0
2, 10624, Control_c, 0, 64, 56
2, 10636, Note_off_c, 0, 56, 0
2, 10636, Note_off_c, 0, 47, 0
2, 10636, Control_c, 0, 64, 0
2, 10644, Note_off_c, 0, 65, 0
2, 10768, Note_on_c, 0, 54, 76
2, 10768, Note_on_c, 0, 66, 87
2, 10776, Note_on_c, 0, 61, 67
2, 10780, Note_on_c, 0, 45, 75
2, 10808, Note_on_c, 0, 33, 34
2, 10812, Note_off_c, 0, 45, 0
2, 10828, Note_off_c, 0, 54, 0
2, 10836, Note_off_c, 0, 33, 0
2, 10852, Note_off_c, 0, 66, 0
2, 10860, Note_off_c, 0, 61, 0
2, 10956, Note_on_c, 0, 68, 90
2, 10964, Note_on_c, 0, 61, 73
2, 10964, Note_on_c, 0, 56, 80
2, 10964, Note_on_c, 0, 41, 81
2, 10968, Note_on_c, 0, 29, 79
2, 11012, Note_off_c, 0, 29, 0
2, 11016, Note_off_c, 0, 41, 0
2, 11032, Note_off_c, 0, 56, 0
2, 11060, Note_off_c, 0, 61, 0
2, 11076, Note_off_c, 0, 68, 0
2, 11156, Note_on_c, 0, 61, 72
2, 11160, Note_on_c, 0, 69, 96
2, 11164, Note_on_c, 0, 42, 89
2, 11164, Note_on_c, 0, 57, 74
2, 11168, Note_on_c, 0, 30, 79
2, 11208, Note_off_c, 0, 42, 0
2, 11216, Note_off_c, 0, 61, 0
2, 11216, Note_off_c, 0, 57, 0
2, 11216, Note_off_c, 0, 30, 0
2, 11240, Note_off_c, 0, 69, 0
2, 11348, Note_on_c, 0, 71, 94
2, 11352, Note_on_c, 0, 59, 82
2, 11352, Note_on_c, 0, 66, 76
2, 11364, Note_on_c, 0, 38, 94
2, 11372, Note_on_c, 0, 26, 86
2, 11400, Note_off_c, 0, 59, 0
2, 11400, Note_off_c, 0, 26, 0
2, 11408, Note_off_c, 0, 38, 0
2, 11424, Note_off_c, 0, 71, 0
2, 11424, Note_off_c, 0, 66, 0
2, 11576, Note_on_c, 0, 73, 100
2, 11580, Note_on_c, 0, 61, 91
2, 11588, Note_on_c, 0, 69, 89
2, 11592, Note_on_c, 0, 66, 73
2, 11596, Note_on_c, 0, 37, 99
2, 11604, Note_on_c, 0, 25, 86
2, 11628, Control_c, 0, 64, 40
2, 11632, Note_off_c, 0, 37, 0
2, 11632, Note_off_c, 0, 25, 0
2, 11636, Note_off_c, 0, 61, 0
2, 11644, Control_c, 0, 64, 127
2, 11648, Note_off_c, 0, 66, 0
2, 11656, Note_off_c, 0, 69, 0
2, 11676, Note_off_c, 0, 73, 0
2, 12424, Note_on_c, 0, 61, 88
2, 12428, Note_on_c, 0, 73, 102
2, 12436, Note_on_c, 0, 68, 80
2, 12436, Note_on_c, 0, 66, 77
2, 12440, Control_c, 0, 64, 72
2, 12444, Note_on_c, 0, 37, 73
2, 12452, Note_on_c, 0, 49, 92
2, 12452, Control_c, 0, 64, 0
2, 12532, Note_off_c, 0, 37, 0
2, 12536, Note_off_c, 0, 49, 0
2, 12544, Control_c, 0, 64, 72
2, 12552, Note_off_c, 0, 61, 0
2, 12560, Note_off_c, 0, 66, 0
2, 12560, Control_c, 0, 64, 127
2, 12572, Note_off_c, 0, 73, 0
2, 12576, Note_off_c, 0, 68, 0
2, 13008, Control_c, 0, 64, 88
2, 13020, Control_c, 0, 64, 0
2, 13036, Note_on_c, 0, 73, 92
2, 13044, Note_on_c, 0, 61, 85
2, 13044, Note_on_c, 0, 68, 79
2, 13048, Note_on_c, 0, 49, 81
2, 13056, Note_on_c, 0, 65, 75
2, 13056, Note_on_c, 0, 37, 70
2, 13072, Control_c, 0, 64, 24
2, 13084, Note_off_c, 0, 65, 0
2, 13088, Control_c, 0, 64, 88
2, 13100, Control_c, 0, 64, 127
2, 13108, Note_off_c, 0, 49, 0
2, 13112, Note_off_c, 0, 37, 0
2, 13120, Note_off_c, 0, 61, 0
2, 13144, Note_off_c, 0, 68, 0
2, 13164, Note_off_c, 0, 73, 0
2, 13180, Control_c, 0, 64, 104
2, 13196, Control_c, 0, 64, 0
2, 13232, Note_on_c, 0, 73, 96
2, 13232, Note_on_c, 0, 61, 95
2, 13240, Note_on_c, 0, 70, 83
2, 13244, Note_on_c, 0, 66, 79
2, 13252, Note_on_c, 0, 54, 96
2, 13252, Note_on_c, 0, 42, 86
2, 13260, Control_c, 0, 64, 72
2, 13272, Control_c, 0, 64, 127
2, 13288, Note_off_c, 0, 54, 0
2, 13300, Note_off_c, 0, 61, 0
2, 13300, Note_off_c, 0, 42, 0
2, 13308, Note_off_c, 0, 66, 0
2, 13328, Note_off_c, 0, 73, 0
2, 13336, Note_off_c, 0, 70, 0
2, 13472, Control_c, 0, 64, 56
2, 13488, Control_c, 0, 64, 0
2, 13712, Note_on_c, 0, 75, 96
2, 13712, Note_on_c, 0, 63, 86
2, 13720, Note_on_c, 0, 66, 73
2, 13724, Note_on_c, 0, 47, 82
2, 13724, Note_on_c, 0, 35, 70
2, 13724, Note_on_c, 0, 69, 82
2, 13732, Note_on_c, 0, 71, 74
2, 13752, Control_c, 0, 64, 104
2, 13768, Note_off_c, 0, 47, 0
2, 13768, Control_c, 0, 64, 127
2, 13772, Note_off_c, 0, 35, 0
2, 13776, Note_off_c, 0, 63, 0
2, 13792, Note_off_c, 0, 66, 0
2, 13804, Note_off_c, 0, 69, 0
2, 13804, Note_off_c, 0, 71, 0
2, 13832, Note_off_c, 0, 75, 0
2, 14204, Note_on_c, 0, 83, 99
2, 14212, Note_on_c, 0, 71, 79
2, 14276, Note_off_c, 0, 71, 0
2, 14308, Note_off_c, 0, 83, 0
2, 14776, Note_on_c, 0, 72, 64
2, 14836, Control_c, 0, 64, 88
2, 14852, Control_c, 0, 64, 0
2, 14872, Note_off_c, 0, 72, 0
2, 14872, Note_on_c, 0, 71, 75
2, 14960, Note_on_c, 0, 67, 70
2, 14980, Note_off_c, 0, 71, 0
2, 15048, Note_off_c, 0, 67, 0
2, 15056, Note_on_c, 0, 64, 78
2, 15128, Note_off_c, 0, 64, 0
2, 15168, Note_on_c, 0, 59, 70
2, 15580, Note_on_c, 0, 52, 52
2, 15596, Note_on_c, 0, 55, 44
2, 15596, Note_on_c, 0, 40, 45
2, 15684, Note_off_c, 0, 40, 0
2, 15704, Control_c, 0, 64, 40
2, 15708, Note_off_c, 0, 52, 0
2, 15720, Control_c, 0, 64, 72
2, 15724, Note_off_c, 0, 55, 0
2, 15736, Note_off_c, 0, 59, 0
2, 15736, Control_c, 0, 64, 88
2, 15752, Control_c, 0, 64, 104
2, 15780, Control_c, 0, 64, 127
2, 15996, Note_on_c, 0, 64, 71
2, 15996, Note_on_c, 0, 55, 56
2, 15996, Note_on_c, 0, 48, 49
2, 15996, Note_on_c, 0, 36, 49
2, 15996, Note_on_c, 0, 60, 46
2, 15996, Note_on_c, 0, 52, 50
2, 16016, Control_c, 0, 64, 56
2, 16032, Control_c, 0, 64, 0
2, 16068, Note_off_c, 0, 48, 0
2, 16076, Note_off_c, 0, 36, 0
2, 16092, Note_off_c, 0, 52, 0
2, 16100, Note_off_c, 0, 60, 0
2, 16104, Note_off_c, 0, 55, 0
2, 16108, Control_c, 0, 64, 24
2, 16124, Control_c, 0, 64, 88
2, 16136, Control_c, 0, 64, 127
2, 16148, Note_off_c, 0, 64, 0
2, 16428, Note_on_c, 0, 66, 74
2, 16428, Note_on_c, 0, 45, 55
2, 16428, Note_on_c, 0, 33, 58
2, 16428, Note_on_c, 0, 64, 52
2, 16428, Note_on_c, 0, 54, 45
2, 16460, Note_on_c, 0, 60, 47
2, 16464, Control_c, 0, 64, 72
2, 16480, Control_c, 0, 64, 0
2, 16500, Note_off_c, 0, 60, 0
2, 16520, Note_off_c, 0, 33, 0
2, 16524, Note_off_c, 0, 64, 0
2, 16536, Note_off_c, 0, 45, 0
2, 16560, Control_c, 0, 64, 24
2, 16576, Note_off_c, 0, 66, 0
2, 16576, Control_c, 0, 64, 88
2, 16588, Control_c, 0, 64, 127
2, 16592, Note_off_c, 0, 54, 0
2, 16888, Note_on_c, 0, 63, 66
2, 16904, Note_on_c, 0, 51, 50
2, 16908, Note_on_c, 0, 47, 47
2, 16912, Note_on_c, 0, 54, 42
2, 16916, Note_on_c, 0, 35, 41
2, 16916, Note_on_c, 0, 42, 38
2, 16920, Note_on_c, 0, 59, 41
2, 17024, Control_c, 0, 64, 40
2, 17040, Control_c, 0, 64, 0
2, 17144, Control_c, 0, 64, 72
2, 17160, Control_c, 0, 64, 127
2, 17176, Note_off_c, 0, 59, 0
2, 17212, Note_off_c, 0, 54, 0
2, 17220, Note_off_c, 0, 51, 0
2, 17228, Note_off_c, 0, 35, 0
2, 17252, Note_off_c, 0, 42, 0
2, 17264, Note_off_c, 0, 63, 0
2, 17276, Note_off_c, 0, 47, 0
2, 17512, Note_on_c, 0, 51, 56
2, 17516, Note_on_c, 0, 59, 65
2, 17520, Note_on_c, 0, 45, 63
2, 17528, Note_on_c, 0, 47, 53
2, 17532, Control_c, 0, 64, 104
2, 17548, Control_c, 0, 64, 56
2, 17556, Note_off_c, 0, 45, 0
2, 17560, Note_off_c, 0, 47, 0
2, 17564, Control_c, 0, 64, 24
2, 17580, Control_c, 0, 64, 0
2, 17596, Note_off_c, 0, 51, 0
2, 17604, Note_off_c, 0, 59, 0
2, 17716, Note_on_c, 0, 64, 75
2, 17720, Note_on_c, 0, 52, 61
2, 17728, Note_on_c, 0, 59, 59
2, 17736, Note_on_c, 0, 43, 61
2, 17740, Note_on_c, 0, 47, 46
2, 17748, Note_off_c, 0, 52, 0
2, 17756, Note_off_c, 0, 59, 0
2, 17768, Note_off_c, 0, 43, 0
2, 17776, Note_off_c, 0, 64, 0
2, 17776, Note_off_c, 0, 47, 0
2, 17912, Note_on_c, 0, 66, 75
2, 17916, Note_on_c, 0, 39, 62
2, 17920, Note_on_c, 0, 54, 50
2, 17920, Note_on_c, 0, 47, 75
2, 17928, Note_on_c, 0, 59, 55
2, 17956, Note_off_c, 0, 59, 0
2, 17972, Note_off_c, 0, 54, 0
2, 17972, Note_off_c, 0, 47, 0
2, 17980, Note_off_c, 0, 39, 0
2, 17988, Note_off_c, 0, 66, 0
2, 18104, Note_on_c, 0, 47, 70
2, 18112, Note_on_c, 0, 67, 82
2, 18112, Note_on_c, 0, 39, 62
2, 18116, Note_on_c, 0, 55, 66
2, 18152, Note_off_c, 0, 55, 0
2, 18160, Note_off_c, 0, 47, 0
2, 18172, Note_off_c, 0, 67, 0
2, 18172, Note_off_c, 0, 39, 0
2, 18268, Note_on_c, 0, 48, 79
2, 18324, Note_on_c, 0, 69, 82
2, 18324, Note_on_c, 0, 57, 70
2, 18328, Note_on_c, 0, 64, 69
2, 18364, Note_off_c, 0, 57, 0
2, 18372, Note_off_c, 0, 64, 0
2, 18396, Note_off_c, 0, 48, 0
2, 18396, Note_off_c, 0, 69, 0
2, 18456, Note_on_c, 0, 40, 60
2, 18516, Note_off_c, 0, 40, 0
2, 18564, Note_on_c, 0, 71, 86
2, 18564, Note_on_c, 0, 55, 70
2, 18572, Note_on_c, 0, 67, 66
2, 18576, Note_on_c, 0, 59, 64
2, 18580, Note_on_c, 0, 64, 58
2, 18620, Note_off_c, 0, 55, 0
2, 18632, Control_c, 0, 64, 88
2, 18648, Control_c, 0, 64, 127
2, 18868, Note_off_c, 0, 67, 0
2, 18916, Note_off_c, 0, 59, 0
2, 18948, Note_on_c, 0, 39, 71
2, 18956, Note_off_c, 0, 64, 0
2, 18984, Note_off_c, 0, 71, 0
2, 19028, Note_off_c, 0, 39, 0
2, 19068, Note_on_c, 0, 40, 73
2, 19152, Note_off_c, 0, 40, 0
2, 19168, Note_on_c, 0, 43, 75
2, 19252, Note_off_c, 0, 43, 0
2, 19260, Note_on_c, 0, 47, 77
2, 19360, Note_on_c, 0, 74, 92
2, 19360, Note_on_c, 0, 62, 67
2, 19360, Note_on_c, 0, 69, 78
2, 19360, Note_on_c, 0, 52, 80
2, 19360, Note_on_c, 0, 64, 74
2, 19360, Control_c, 0, 64, 56
2, 19376, Control_c, 0, 64, 0
2, 19384, Note_off_c, 0, 47, 0
2, 19444, Note_off_c, 0, 52, 0
2, 19516, Control_c, 0, 64, 127
2, 19740, Note_off_c, 0, 69, 0
2, 19744, Note_on_c, 0, 51, 68
2, 19756, Note_off_c, 0, 74, 0
2, 19756, Note_off_c, 0, 64, 0
2, 19784, Note_off_c, 0, 51, 0
2, 19800, Note_off_c, 0, 62, 0
2, 19860, Note_on_c, 0, 52, 70
2, 19952, Note_off_c, 0, 52, 0
2, 19956, Note_on_c, 0, 57, 72
2, 20020, Note_off_c, 0, 57, 0
2, 20092, Note_on_c, 0, 72, 87
2, 20092, Note_on_c, 0, 64, 50
2, 20092, Note_on_c, 0, 60, 74
2, 20092, Note_on_c, 0, 60, 73
2, 20124, Note_off_c, 0, 64, 0
2, 20124, Note_off_c, 0, 60, 0
2, 20156, Note_off_c, 0, 60, 0
2, 20172, Note_off_c, 0, 72, 0
2, 20268, Note_on_c, 0, 71, 78
2, 20276, Note_on_c, 0, 67, 56
2, 20280, Note_on_c, 0, 59, 66
2, 20296, Note_on_c, 0, 64, 46
2, 20384, Control_c, 0, 64, 104
2, 20400, Control_c, 0, 64, 56
2, 20416, Control_c, 0, 64, 0
2, 20976, Note_off_c, 0, 59, 0
2, 20976, Control_c, 0, 64, 40
2, 20988, Control_c, 0, 64, 72
2, 21004, Control_c, 0, 64, 104
2, 21016, Note_off_c, 0, 64, 0
2, 21020, Control_c, 0, 64, 127
2, 21032, Note_off_c, 0, 67, 0
2, 21068, Note_off_c, 0, 71, 0
2, 21284, Note_on_c, 0, 76, 76
2, 21292, Note_on_c, 0, 64, 52
2, 21296, Control_c, 0, 64, 88
2, 21312, Control_c, 0, 64, 0
2, 21392, Control_c, 0, 64, 56
2, 21408, Control_c, 0, 64, 127
2, 21424, Note_off_c, 0, 64, 0
2, 21460, Note_off_c, 0, 76, 0
2, 21512, Note_on_c, 0, 60, 46
2, 21532, Note_on_c, 0, 72, 73
2, 21600, Note_off_c, 0, 60, 0
2, 21608, Control_c, 0, 64, 104
2, 21612, Note_on_c, 0, 59, 56
2, 21616, Note_on_c, 0, 71, 79
2, 21620, Note_off_c, 0, 72, 0
2, 21624, Control_c, 0, 64, 24
2, 21636, Control_c, 0, 64, 0
2, 21696, Note_on_c, 0, 55, 68
2, 21704, Note_off_c, 0, 59, 0
2, 21704, Note_on_c, 0, 67, 66
2, 21716, Control_c, 0, 64, 40
2, 21728, Note_off_c, 0, 71, 0
2, 21732, Control_c, 0, 64, 88
2, 21748, Control_c, 0, 64, 127
2, 21788, Note_off_c, 0, 67, 0
2, 21792, Note_on_c, 0, 52, 66
2, 21796, Note_on_c, 0, 64, 82
2, 21804, Note_off_c, 0, 55, 0
2, 21836, Note_off_c, 0, 52, 0
2, 21864, Note_off_c, 0, 64, 0
2, 21916, Control_c, 0, 64, 104
2, 21920, Note_on_c, 0, 48, 76
2, 21928, Note_on_c, 0, 60, 82
2, 21932, Control_c, 0, 64, 88
2, 21948, Control_c, 0, 64, 72
2, 21964, Control_c, 0, 64, 40
2, 21980, Control_c, 0, 64, 0
2, 22136, Control_c, 0, 64, 40
2, 22148, Control_c, 0, 64, 72
2, 22164, Control_c, 0, 64, 104
2, 22228, Control_c, 0, 64, 88
2, 22244, Control_c, 0, 64, 72
2, 22276, Control_c, 0, 64, 56
2, 22288, Control_c, 0, 64, 40
2, 22304, Control_c, 0, 64, 0
2, 22356, Note_on_c, 0, 52, 53
2, 22360, Note_on_c, 0, 58, 42
2, 22372, Note_on_c, 0, 36, 58
2, 22464, Note_off_c, 0, 52, 0
2, 22580, Note_off_c, 0, 36, 0
2, 22656, Note_off_c, 0, 58, 0
2, 22804, Note_on_c, 0, 41, 46
2, 22804, Note_on_c, 0, 57, 38
2, 22804, Note_on_c, 0, 53, 45
2, 22856, Note_off_c, 0, 53, 0
2, 22880, Control_c, 0, 64, 24
2, 22896, Control_c, 0, 64, 72
2, 22908, Note_off_c, 0, 60, 0
2, 22908, Note_off_c, 0, 41, 0
2, 22908, Control_c, 0, 64, 127
2, 22912, Note_off_c, 0, 57, 0
2, 22920, Note_off_c, 0, 48, 0
2, 23080, Control_c, 0, 64, 104
2, 23096, Control_c, 0, 64, 72
2, 23108, Control_c, 0, 64, 24
2, 23124, Control_c, 0, 64, 0
2, 23148, Note_on_c, 0, 77, 77
2, 23148, Note_on_c, 0, 65, 64
2, 23180, Note_off_c, 0, 65, 0
2, 23240, Note_off_c, 0, 77, 0
2, 23240, Note_on_c, 0, 74, 78
2, 23240, Note_on_c, 0, 62, 64
2, 23332, Note_on_c, 0, 72, 76
2, 23332, Note_on_c, 0, 60, 59
2, 23344, Note_off_c, 0, 62, 0
2, 23348, Note_off_c, 0, 74, 0
2, 23424, Note_off_c, 0, 60, 0
2, 23428, Note_on_c, 0, 69, 70
2, 23428, Note_on_c, 0, 57, 64
2, 23472, Note_off_c, 0, 72, 0
2, 23512, Note_off_c, 0, 69, 0
2, 23520, Note_on_c, 0, 65, 67
2, 23520, Note_on_c, 0, 53, 57
2, 23532, Note_off_c, 0, 57, 0
2, 23548, Note_off_c, 0, 53, 0
2, 23584, Note_off_c, 0, 65, 0
2, 23660, Note_on_c, 0, 61, 81
2, 23660, Note_on_c, 0, 49, 68
2, 23808, Control_c, 0, 64, 24
2, 23824, Control_c, 0, 64, 72
2, 23840, Control_c, 0, 64, 88
2, 23852, Control_c, 0, 64, 127
2, 24040, Control_c, 0, 64, 104
2, 24056, Control_c, 0, 64, 88
2, 24072, Control_c, 0, 64, 40
2, 24080, Note_on_c, 0, 53, 59
2, 24088, Control_c, 0, 64, 0
2, 24104, Note_on_c, 0, 37, 47
2, 24116, Note_on_c, 0, 59, 42
2, 24196, Control_c, 0, 64, 40
2, 24208, Note_off_c, 0, 53, 0
2, 24208, Control_c, 0, 64, 72
2, 24228, Control_c, 0, 64, 127
2, 24328, Note_off_c, 0, 59, 0
2, 24380, Note_off_c, 0, 37, 0
2, 24476, Control_c, 0, 64, 72
2, 24488, Control_c, 0, 64, 0
2, 24520, Note_on_c, 0, 58, 48
2, 24520, Note_on_c, 0, 42, 39
2, 24520, Note_on_c, 0, 54, 49
2, 24580, Control_c, 0, 64, 40
2, 24592, Note_off_c, 0, 42, 64
2, 24592, Note_off_c, 0, 54, 64
2, 24600, Note_off_c, 0, 49, 64
2, 24600, Note_off_c, 0, 58, 0
2, 24600, Control_c, 0, 64, 104
2, 24616, Control_c, 0, 64, 127
2, 24620, Note_off_c, 0, 61, 0
2, 24844, Control_c, 0, 64, 56
2, 24860, Control_c, 0, 64, 0
2, 24872, Note_on_c, 0, 78, 68
2, 24872, Note_on_c, 0, 30, 31
2, 24908, Control_c, 0, 64, 56
2, 24924, Control_c, 0, 64, 127
2, 24972, Note_off_c, 0, 30, 0
2, 24992, Note_off_c, 0, 78, 0
2, 24992, Note_on_c, 0, 74, 69
2, 24992, Note_on_c, 0, 42, 60
2, 25084, Note_off_c, 0, 42, 0
2, 25084, Note_on_c, 0, 73, 68
2, 25084, Note_on_c, 0, 49, 60
2, 25096, Note_off_c, 0, 74, 0
2, 25176, Note_off_c, 0, 49, 0
2, 25180, Note_on_c, 0, 70, 69
2, 25180, Note_on_c, 0, 54, 69
2, 25236, Note_off_c, 0, 73, 0
2, 25240, Note_off_c, 0, 54, 0
2, 25264, Note_off_c, 0, 70, 0
2, 25264, Note_on_c, 0, 66, 74
2, 25264, Note_on_c, 0, 58, 58
2, 25324, Note_off_c, 0, 66, 0
2, 25344, Note_off_c, 0, 58, 0
2, 25408, Note_on_c, 0, 62, 76
2, 25420, Control_c, 0, 64, 72
2, 25424, Note_on_c, 0, 59, 57
2, 25436, Note_on_c, 0, 50, 65
2, 25436, Control_c, 0, 64, 0
2, 25476, Note_off_c, 0, 59, 0
2, 25512, Control_c, 0, 64, 56
2, 25524, Note_off_c, 0, 50, 0
2, 25528, Control_c, 0, 64, 127
2, 25532, Note_off_c, 0, 62, 0
2, 25748, Control_c, 0, 64, 72
2, 25760, Control_c, 0, 64, 0
2, 25776, Note_on_c, 0, 79, 92
2, 25776, Note_on_c, 0, 30, 56
2, 25808, Control_c, 0, 64, 56
2, 25824, Control_c, 0, 64, 104
2, 25836, Control_c, 0, 64, 127
2, 25876, Note_off_c, 0, 30, 0
2, 25888, Note_on_c, 0, 76, 80
2, 25888, Note_on_c, 0, 42, 64
2, 25904, Note_off_c, 0, 79, 0
2, 25940, Note_off_c, 0, 42, 0
2, 25968, Note_on_c, 0, 74, 79
2, 25968, Note_on_c, 0, 50, 75
2, 26008, Note_off_c, 0, 76, 0
2, 26060, Note_off_c, 0, 50, 64
2, 26064, Note_on_c, 0, 71, 74
2, 26064, Note_on_c, 0, 55, 77
2, 26132, Note_off_c, 0, 74, 0
2, 26144, Note_off_c, 0, 55, 0
2, 26168, Note_off_c, 0, 71, 0
2, 26172, Note_on_c, 0, 67, 79
2, 26172, Note_on_c, 0, 59, 65
2, 26208, Note_off_c, 0, 67, 0
2, 26232, Note_off_c, 0, 59, 0
2, 26292, Note_on_c, 0, 63, 87
2, 26292, Note_on_c, 0, 51, 89
2, 26292, Note_on_c, 0, 60, 84
2, 26304, Control_c, 0, 64, 24
2, 26316, Control_c, 0, 64, 0
2, 26320, Note_off_c, 0, 60, 0
2, 26396, Control_c, 0, 64, 72
2, 26412, Note_off_c, 0, 51, 0
2, 26412, Control_c, 0, 64, 127
2, 26432, Note_off_c, 0, 63, 0
2, 26628, Control_c, 0, 64, 40
2, 26644, Control_c, 0, 64, 0
2, 26648, Note_on_c, 0, 80, 90
2, 26648, Note_on_c, 0, 30, 69
2, 26676, Control_c, 0, 64, 24
2, 26688, Control_c, 0, 64, 88
2, 26704, Control_c, 0, 64, 127
2, 26756, Note_off_c, 0, 30, 0
2, 26756, Note_on_c, 0, 76, 78
2, 26756, Note_on_c, 0, 42, 71
2, 26784, Note_off_c, 0, 80, 0
2, 26808, Note_off_c, 0, 42, 0
2, 26848, Note_on_c, 0, 75, 82
2, 26848, Note_on_c, 0, 51, 80
2, 26884, Note_off_c, 0, 76, 0
2, 26932, Note_off_c, 0, 51, 0
2, 26948, Note_on_c, 0, 56, 61
2, 26952, Note_on_c, 0, 72, 82
2, 27020, Note_off_c, 0, 72, 0
2, 27024, Note_off_c, 0, 75, 0
2, 27024, Note_off_c, 0, 56, 0
2, 27040, Note_on_c, 0, 68, 87
2, 27040, Note_on_c, 0, 60, 62
2, 27084, Note_off_c, 0, 68, 0
2, 27104, Note_off_c, 0, 60, 0
2, 27164, Note_on_c, 0, 64, 102
2, 27164, Note_on_c, 0, 52, 86
2, 27164, Note_on_c, 0, 61, 81
2, 27172, Control_c, 0, 64, 56
2, 27188, Control_c, 0, 64, 0
2, 27216, Note_off_c, 0, 61, 0
2, 27252, Note_off_c, 0, 52, 0
2, 27264, Control_c, 0, 64, 56
2, 27280, Note_off_c, 0, 64, 0
2, 27280, Control_c, 0, 64, 127
2, 27528, Control_c, 0, 64, 56
2, 27536, Note_on_c, 0, 81, 94
2, 27536, Note_on_c, 0, 30, 77
2, 27544, Control_c, 0, 64, 0
2, 27576, Control_c, 0, 64, 40
2, 27588, Control_c, 0, 64, 88
2, 27604, Control_c, 0, 64, 127
2, 27640, Note_off_c, 0, 30, 0
2, 27644, Note_on_c, 0, 78, 86
2, 27644, Note_on_c, 0, 42, 70
2, 27664, Note_off_c, 0, 81, 0
2, 27700, Note_off_c, 0, 42, 64
2, 27748, Note_on_c, 0, 76, 84
2, 27748, Note_on_c, 0, 52, 65
2, 27788, Note_off_c, 0, 78, 0
2, 27828, Note_on_c, 0, 73, 83
2, 27828, Note_on_c, 0, 57, 65
2, 27836, Note_off_c, 0, 52, 0
2, 27876, Note_off_c, 0, 57, 0
2, 27896, Note_off_c, 0, 76, 0
2, 27920, Note_on_c, 0, 69, 84
2, 27920, Note_on_c, 0, 61, 65
2, 27932, Note_off_c, 0, 73, 0
2, 27968, Note_off_c, 0, 69, 0
2, 27984, Note_off_c, 0, 61, 0
2, 28064, Note_on_c, 0, 70, 95
2, 28064, Note_on_c, 0, 61, 75
2, 28064, Note_on_c, 0, 64, 78
2, 28064, Note_on_c, 0, 54, 77
2, 28084, Control_c, 0, 64, 56
2, 28092, Note_off_c, 0, 61, 0
2, 28100, Control_c, 0, 64, 0
2, 28124, Note_off_c, 0, 64, 0
2, 28148, Control_c, 0, 64, 56
2, 28152, Note_off_c, 0, 54, 0
2, 28160, Control_c, 0, 64, 127
2, 28212, Note_off_c, 0, 70, 0
2, 28424, Control_c, 0, 64, 72
2, 28440, Control_c, 0, 64, 0
2, 28452, Note_on_c, 0, 82, 92
2, 28452, Note_on_c, 0, 30, 78
2, 28488, Control_c, 0, 64, 56
2, 28504, Control_c, 0, 64, 127
2, 28552, Note_off_c, 0, 82, 0
2, 28552, Note_off_c, 0, 30, 0
2, 28580, Note_on_c, 0, 42, 76
2, 28580, Note_on_c, 0, 78, 87
2, 28624, Note_off_c, 0, 42, 0
2, 28684, Note_off_c, 0, 78, 0
2, 28688, Note_on_c, 0, 49, 55
2, 28688, Note_on_c, 0, 76, 92
2, 28716, Note_off_c, 0, 49, 0
2, 28788, Note_on_c, 0, 73, 80
2, 28788, Note_on_c, 0, 54, 65
2, 28800, Note_off_c, 0, 76, 0
2, 28848, Note_off_c, 0, 54, 0
2, 28892, Note_off_c, 0, 73, 0
2, 28900, Note_on_c, 0, 64, 70
2, 28900, Note_on_c, 0, 70, 88
2, 28976, Note_off_c, 0, 64, 0
2, 29000, Note_off_c, 0, 70, 0
2, 29076, Control_c, 0, 64, 72
2, 29092, Control_c, 0, 64, 0
2, 29116, Note_on_c, 0, 82, 95
2, 29124, Note_on_c, 0, 70, 87
2, 29128, Note_on_c, 0, 74, 80
2, 29128, Note_on_c, 0, 62, 70
2, 29140, Note_on_c, 0, 65, 75
2, 29140, Note_on_c, 0, 53, 70
2, 29184, Control_c, 0, 64, 56
2, 29200, Note_off_c, 0, 65, 0
2, 29200, Control_c, 0, 64, 127
2, 29208, Note_off_c, 0, 62, 0
2, 29216, Note_off_c, 0, 53, 0
2, 29216, Note_off_c, 0, 70, 0
2, 29224, Note_off_c, 0, 74, 0
2, 29232, Note_off_c, 0, 82, 0
2, 29320, Note_on_c, 0, 81, 94
2, 29320, Note_on_c, 0, 69, 82
2, 29372, Note_off_c, 0, 69, 0
2, 29380, Note_off_c, 0, 81, 0
2, 29456, Note_on_c, 0, 79, 103
2, 29460, Note_on_c, 0, 67, 86
2, 29520, Note_off_c, 0, 79, 0
2, 29520, Note_off_c, 0, 67, 0
2, 29592, Note_on_c, 0, 77, 105
2, 29600, Note_on_c, 0, 65, 89
2, 29604, Note_on_c, 0, 70, 79
2, 29624, Note_on_c, 0, 50, 58
2, 29644, Note_on_c, 0, 38, 44
2, 29728, Control_c, 0, 64, 104
2, 29744, Control_c, 0, 64, 0
2, 29852, Note_off_c, 0, 77, 0
2, 29868, Control_c, 0, 64, 72
2, 29884, Control_c, 0, 64, 127
2, 29892, Note_off_c, 0, 65, 0
2, 29900, Note_off_c, 0, 38, 0
2, 29920, Note_off_c, 0, 50, 0
2, 29960, Note_off_c, 0, 70, 0
2, 30056, Note_on_c, 0, 75, 99
2, 30068, Note_on_c, 0, 67, 77
2, 30068, Note_on_c, 0, 72, 89
2, 30084, Note_on_c, 0, 51, 68
2, 30092, Note_on_c, 0, 39, 60
2, 30100, Control_c, 0, 64, 72
2, 30116, Control_c, 0, 64, 0
2, 30224, Control_c, 0, 64, 127
2, 30252, Note_off_c, 0, 67, 0
2, 30256, Note_off_c, 0, 75, 0
2, 30308, Note_off_c, 0, 39, 0
2, 30332, Note_off_c, 0, 51, 0
2, 30356, Note_off_c, 0, 72, 0
2, 30428, Note_on_c, 0, 75, 77
2, 30480, Note_off_c, 0, 75, 0
2, 30528, Note_on_c, 0, 74, 94
2, 30532, Note_on_c, 0, 63, 67
2, 30532, Control_c, 0, 64, 88
2, 30544, Note_on_c, 0, 69, 73
2, 30548, Control_c, 0, 64, 0
2, 30560, Note_on_c, 0, 53, 70
2, 30568, Note_on_c, 0, 41, 71
2, 30640, Control_c, 0, 64, 56
2, 30656, Control_c, 0, 64, 127
2, 30684, Note_off_c, 0, 41, 0
2, 30740, Note_off_c, 0, 53, 0
2, 30752, Note_off_c, 0, 63, 0
2, 30784, Note_off_c, 0, 74, 0
2, 30804, Note_off_c, 0, 69, 0
2, 30864, Note_on_c, 0, 72, 93
2, 30960, Note_off_c, 0, 72, 0
2, 31000, Note_on_c, 0, 74, 96
2, 31008, Note_on_c, 0, 69, 78
2, 31012, Note_on_c, 0, 62, 77
2, 31012, Control_c, 0, 64, 24
2, 31020, Note_on_c, 0, 58, 75
2, 31028, Note_on_c, 0, 46, 69
2, 31032, Control_c, 0, 64, 0
2, 31076, Note_off_c, 0, 58, 0
2, 31088, Note_off_c, 0, 46, 0
2, 31104, Control_c, 0, 64, 88
2, 31124, Control_c, 0, 64, 127
2, 31140, Note_on_c, 0, 57, 78
2, 31168, Note_on_c, 0, 45, 68
2, 31192, Note_off_c, 0, 57, 0
2, 31192, Note_off_c, 0, 45, 0
2, 31220, Note_off_c, 0, 69, 0
2, 31268, Note_on_c, 0, 55, 90
2, 31288, Note_on_c, 0, 43, 68
2, 31292, Note_off_c, 0, 62, 0
2, 31300, Note_off_c, 0, 74, 0
2, 31316, Note_off_c, 0, 55, 0
2, 31328, Note_off_c, 0, 43, 0
2, 31468, Note_on_c, 0, 74, 94
2, 31472, Note_on_c, 0, 62, 80
2, 31484, Note_on_c, 0, 67, 74
2, 31500, Note_on_c, 0, 46, 78
2, 31500, Note_on_c, 0, 34, 69
2, 31572, Control_c, 0, 64, 72
2, 31588, Control_c, 0, 64, 0
2, 31672, Note_off_c, 0, 62, 0
2, 31680, Note_off_c, 0, 74, 0
2, 31680, Control_c, 0, 64, 72
2, 31696, Control_c, 0, 64, 127
2, 31712, Note_off_c, 0, 34, 0
2, 31720, Note_off_c, 0, 67, 0
2, 31728, Note_off_c, 0, 46, 0
2, 31928, Note_on_c, 0, 72, 97
2, 31936, Note_on_c, 0, 63, 74
2, 31940, Note_on_c, 0, 68, 65
2, 31964, Note_on_c, 0, 48, 77
2, 31968, Note_on_c, 0, 36, 65
2, 31976, Control_c, 0, 64, 56
2, 31992, Control_c, 0, 64, 0
2, 32016, Note_off_c, 0, 63, 0
2, 32068, Control_c, 0, 64, 56
2, 32084, Control_c, 0, 64, 127
2, 32140, Note_off_c, 0, 72, 0
2, 32144, Note_off_c, 0, 36, 0
2, 32196, Note_off_c, 0, 48, 0
2, 32240, Note_off_c, 0, 68, 0
2, 32336, Note_on_c, 0, 72, 88
2, 32388, Note_off_c, 0, 72, 0
2, 32420, Note_on_c, 0, 70, 89
2, 32420, Note_on_c, 0, 60, 80
2, 32420, Note_on_c, 0, 66, 79
2, 32440, Control_c, 0, 64, 104
2, 32448, Note_on_c, 0, 50, 76
2, 32456, Note_on_c, 0, 38, 64
2, 32456, Control_c, 0, 64, 0
2, 32548, Control_c, 0, 64, 56
2, 32564, Note_off_c, 0, 70, 0
2, 32564, Control_c, 0, 64, 127
2, 32572, Note_off_c, 0, 66, 0
2, 32616, Note_off_c, 0, 60, 0
2, 32624, Note_off_c, 0, 38, 0
2, 32640, Note_off_c, 0, 50, 0
2, 32824, Note_on_c, 0, 69, 93
2, 32880, Note_off_c, 0, 69, 0
2, 32960, Note_on_c, 0, 55, 77
2, 32960, Note_on_c, 0, 67, 93
2, 32968, Note_on_c, 0, 58, 65
2, 32968, Note_on_c, 0, 61, 68
2, 32984, Note_on_c, 0, 52, 82
2, 32984, Note_on_c, 0, 46, 65
2, 32984, Note_on_c, 0, 49, 61
2, 32992, Note_on_c, 0, 40, 70
2, 33040, Control_c, 0, 64, 88
2, 33056, Control_c, 0, 64, 0
2, 33172, Control_c, 0, 64, 40
2, 33184, Control_c, 0, 64, 72
2, 33192, Control_c, 0, 64, 104
2, 33204, Control_c, 0, 64, 127
2, 33276, Note_off_c, 0, 67, 0
2, 33296, Note_off_c, 0, 61, 0
2, 33304, Note_off_c, 0, 58, 0
2, 33368, Note_off_c, 0, 55, 0
2, 33480, Control_c, 0, 64, 104
2, 33488, Control_c, 0, 64, 56
2, 33492, Note_on_c, 0, 54, 84
2, 33500, Control_c, 0, 64, 24
2, 33540, Control_c, 0, 64, 72
2, 33552, Control_c, 0, 64, 104
2, 33560, Control_c, 0, 64, 127
2, 33568, Note_off_c, 0, 54, 0
2, 33604, Note_on_c, 0, 55, 88
2, 33616, Note_off_c, 0, 40, 0
2, 33620, Note_off_c, 0, 52, 0
2, 33636, Note_off_c, 0, 49, 0
2, 33644, Note_off_c, 0, 46, 0
2, 33680, Note_off_c, 0, 55, 0
2, 33712, Note_on_c, 0, 58, 88
2, 33716, Control_c, 0, 64, 88
2, 33724, Control_c, 0, 64, 40
2, 33736, Control_c, 0, 64, 0
2, 33776, Control_c, 0, 64, 24
2, 33784, Control_c, 0, 64, 72
2, 33788, Note_off_c, 0, 58, 0
2, 33796, Control_c, 0, 64, 127
2, 33816, Note_on_c, 0, 61, 89
2, 33928, Note_on_c, 0, 66, 90
2, 33940, Note_off_c, 0, 61, 0
2, 33968, Note_off_c, 0, 66, 0
2, 34032, Note_on_c, 0, 67, 91
2, 34084, Note_off_c, 0, 67, 0
2, 34148, Note_on_c, 0, 70, 92
2, 34192, Control_c, 0, 64, 104
2, 34200, Control_c, 0, 64, 40
2, 34212, Control_c, 0, 64, 0
2, 34244, Note_on_c, 0, 73, 93
2, 34256, Note_off_c, 0, 70, 0
2, 34256, Note_on_c, 0, 52, 58
2, 34276, Control_c, 0, 64, 24
2, 34284, Control_c, 0, 64, 88
2, 34292, Control_c, 0, 64, 127
2, 34304, Note_off_c, 0, 52, 0
2, 34304, Note_on_c, 0, 58, 57
2, 34324, Note_on_c, 0, 61, 59
2, 34368, Note_on_c, 0, 78, 94
2, 34384, Note_off_c, 0, 73, 0
2, 34404, Note_on_c, 0, 67, 69
2, 34408, Note_off_c, 0, 78, 0
2, 34496, Note_on_c, 0, 79, 96
2, 34612, Note_off_c, 0, 79, 0
2, 34632, Note_on_c, 0, 91, 99
2, 34648, Note_off_c, 0, 61, 0
2, 34676, Note_off_c, 0, 67, 0
2, 34700, Note_off_c, 0, 58, 0
2, 34796, Note_off_c, 0, 91, 0
2, 34860, Note_on_c, 0, 90, 98
2, 34916, Control_c, 0, 64, 88
2, 34924, Control_c, 0, 64, 24
2, 34928, Note_on_c, 0, 53, 65
2, 34936, Control_c, 0, 64, 0
2, 34952, Note_off_c, 0, 90, 0
2, 34952, Note_on_c, 0, 56, 64
2, 34968, Note_on_c, 0, 58, 61
2, 34980, Note_off_c, 0, 53, 0
2, 34980, Note_on_c, 0, 62, 63
2, 34988, Control_c, 0, 64, 24
2, 35000, Control_c, 0, 64, 104
2, 35008, Note_on_c, 0, 89, 98
2, 35008, Control_c, 0, 64, 127
2, 35032, Note_on_c, 0, 68, 73
2, 35036, Note_off_c, 0, 56, 0
2, 35060, Note_off_c, 0, 58, 0
2, 35068, Note_off_c, 0, 62, 0
2, 35068, Note_off_c, 0, 68, 0
2, 35080, Note_off_c, 0, 89, 0
2, 35132, Note_on_c, 0, 88, 96
2, 35216, Note_off_c, 0, 88, 0
2, 35248, Note_on_c, 0, 87, 95
2, 35324, Note_off_c, 0, 87, 0
2, 35364, Note_on_c, 0, 86, 94
2, 35408, Note_off_c, 0, 86, 0
2, 35456, Control_c, 0, 64, 88
2, 35468, Control_c, 0, 64, 40
2, 35476, Note_on_c, 0, 86, 94
2, 35476, Control_c, 0, 64, 24
2, 35496, Note_on_c, 0, 80, 62
2, 35500, Note_on_c, 0, 77, 67
2, 35500, Control_c, 0, 64, 56
2, 35508, Control_c, 0, 64, 104
2, 35520, Control_c, 0, 64, 127
2, 35536, Note_off_c, 0, 86, 0
2, 35548, Note_off_c, 0, 80, 0
2, 35552, Note_off_c, 0, 77, 0
2, 35600, Note_on_c, 0, 84, 93
2, 35608, Note_on_c, 0, 79, 66
2, 35608, Note_on_c, 0, 75, 64
2, 35628, Note_off_c, 0, 79, 0
2, 35648, Note_off_c, 0, 84, 0
2, 35652, Note_off_c, 0, 75, 0
2, 35728, Note_on_c, 0, 82, 93
2, 35728, Note_on_c, 0, 74, 64
2, 35728, Note_on_c, 0, 77, 64
2, 35764, Note_off_c, 0, 82, 0
2, 35776, Note_off_c, 0, 77, 0
2, 35780, Note_off_c, 0, 74, 0
2, 35848, Note_on_c, 0, 80, 92
2, 35848, Note_on_c, 0, 75, 70
2, 35852, Note_on_c, 0, 72, 65
2, 35896, Note_off_c, 0, 75, 0
2, 35900, Note_off_c, 0, 72, 0
2, 35904, Note_off_c, 0, 80, 0
2, 35948, Control_c, 0, 64, 72
2, 35956, Control_c, 0, 64, 40
2, 35968, Note_on_c, 0, 70, 61
2, 35968, Note_on_c, 0, 79, 91
2, 35968, Control_c, 0, 64, 24
2, 35972, Note_on_c, 0, 74, 70
2, 35976, Control_c, 0, 64, 40
2, 35988, Control_c, 0, 64, 72
2, 35996, Control_c, 0, 64, 104
2, 36008, Control_c, 0, 64, 127
2, 36024, Note_off_c, 0, 74, 0
2, 36036, Note_off_c, 0, 79, 0
2, 36064, Note_off_c, 0, 70, 0
2, 36088, Note_on_c, 0, 77, 90
2, 36092, Note_on_c, 0, 68, 64
2, 36092, Note_on_c, 0, 72, 71
2, 36132, Note_off_c, 0, 72, 0
2, 36140, Note_off_c, 0, 77, 0
2, 36152, Note_off_c, 0, 68, 0
2, 36208, Note_on_c, 0, 75, 89
2, 36208, Note_on_c, 0, 67, 65
2, 36212, Note_on_c, 0, 70, 68
2, 36248, Note_off_c, 0, 70, 0
2, 36268, Note_off_c, 0, 75, 0
2, 36280, Note_off_c, 0, 67, 0
2, 36316, Note_on_c, 0, 74, 88
2, 36332, Note_on_c, 0, 68, 62
2, 36332, Note_on_c, 0, 65, 63
2, 36380, Note_off_c, 0, 68, 0
2, 36396, Note_off_c, 0, 74, 0
2, 36400, Note_off_c, 0, 65, 0
2, 36416, Control_c, 0, 64, 88
2, 36428, Control_c, 0, 64, 56
2, 36444, Note_on_c, 0, 72, 87
2, 36448, Note_on_c, 0, 63, 61
2, 36456, Control_c, 0, 64, 104
2, 36464, Note_on_c, 0, 67, 61
2, 36464, Control_c, 0, 64, 127
2, 36480, Note_off_c, 0, 72, 0
2, 36488, Note_off_c, 0, 67, 0
2, 36508, Note_off_c, 0, 63, 0
2, 36560, Note_on_c, 0, 62, 60
2, 36560, Note_on_c, 0, 70, 86
2, 36568, Note_on_c, 0, 65, 60
2, 36600, Note_off_c, 0, 65, 0
2, 36624, Note_off_c, 0, 62, 0
2, 36628, Note_off_c, 0, 70, 0
2, 36640, Control_c, 0, 64, 104
2, 36652, Control_c, 0, 64, 72
2, 36676, Note_on_c, 0, 68, 85
2, 36680, Control_c, 0, 64, 104
2, 36684, Note_on_c, 0, 63, 59
2, 36684, Note_on_c, 0, 60, 59
2, 36692, Control_c, 0, 64, 127
2, 36740, Note_off_c, 0, 63, 0
2, 36744, Note_off_c, 0, 60, 0
2, 36748, Note_off_c, 0, 68, 0
2, 36764, Control_c, 0, 64, 104
2, 36772, Control_c, 0, 64, 127
2, 36796, Note_on_c, 0, 67, 84
2, 36796, Note_on_c, 0, 58, 58
2, 36796, Note_on_c, 0, 62, 58
2, 36844, Note_off_c, 0, 62, 0
2, 36860, Note_off_c, 0, 67, 0
2, 36880, Note_off_c, 0, 58, 64
2, 36904, Control_c, 0, 64, 104
2, 36916, Control_c, 0, 64, 40
2, 36920, Note_on_c, 0, 56, 60
2, 36920, Note_on_c, 0, 65, 83
2, 36928, Note_on_c, 0, 62, 63
2, 36928, Control_c, 0, 64, 0
2, 36988, Control_c, 0, 64, 56
2, 36996, Note_off_c, 0, 56, 0
2, 36996, Control_c, 0, 64, 104
2, 37008, Control_c, 0, 64, 127
2, 37044, Note_on_c, 0, 55, 59
2, 37108, Note_off_c, 0, 65, 0
2, 37116, Note_off_c, 0, 62, 0
2, 37120, Note_off_c, 0, 55, 0
2, 37160, Note_on_c, 0, 53, 63
2, 37236, Note_off_c, 0, 53, 0
2, 37260, Note_on_c, 0, 51, 69
2, 37376, Note_off_c, 0, 51, 0
2, 37384, Note_on_c, 0, 65, 82
2, 37384, Note_on_c, 0, 56, 67
2, 37384, Note_on_c, 0, 50, 63
2, 37384, Note_on_c, 0, 59, 66
2, 37396, Control_c, 0, 64, 104
2, 37404, Control_c, 0, 64, 56
2, 37416, Control_c, 0, 64, 0
2, 37468, Control_c, 0, 64, 56
2, 37476, Control_c, 0, 64, 104
2, 37488, Control_c, 0, 64, 127
2, 37504, Note_off_c, 0, 50, 0
2, 37516, Note_on_c, 0, 47, 63
2, 37596, Note_off_c, 0, 47, 0
2, 37620, Note_on_c, 0, 44, 63
2, 37728, Note_off_c, 0, 44, 0
2, 37740, Note_on_c, 0, 39, 65
2, 37764, Note_off_c, 0, 59, 0
2, 37872, Note_off_c, 0, 39, 0
2, 37872, Note_on_c, 0, 38, 74
2, 37872, Note_on_c, 0, 58, 71
2, 37884, Control_c, 0, 64, 72
2, 37896, Control_c, 0, 64, 24
2, 37904, Control_c, 0, 64, 0
2, 37936, Control_c, 0, 64, 40
2, 37944, Control_c, 0, 64, 88
2, 37952, Control_c, 0, 64, 127
2, 37956, Note_off_c, 0, 38, 0
2, 38004, Note_on_c, 0, 34, 61
2, 38108, Note_off_c, 0, 34, 0
2, 38124, Note_on_c, 0, 33, 63
2, 38228, Note_off_c, 0, 56, 0
2, 38232, Note_off_c, 0, 33, 0
2, 38244, Note_on_c, 0, 34, 74
2, 38292, Note_off_c, 0, 65, 0
2, 38396, Note_on_c, 0, 66, 83
2, 38412, Note_on_c, 0, 63, 58
2, 38420, Note_on_c, 0, 46, 68
2, 38444, Control_c, 0, 64, 104
2, 38456, Control_c, 0, 64, 56
2, 38464, Control_c, 0, 64, 0
2, 38548, Control_c, 0, 64, 40
2, 38556, Control_c, 0, 64, 104
2, 38568, Control_c, 0, 64, 127
2, 38612, Note_off_c, 0, 66, 0
2, 38612, Note_off_c, 0, 63, 0
2, 38692, Note_off_c, 0, 46, 0
2, 38748, Note_off_c, 0, 58, 0
2, 38792, Note_on_c, 0, 63, 78
2, 38804, Note_on_c, 0, 54, 62
2, 38808, Note_on_c, 0, 46, 54
2, 38824, Note_on_c, 0, 60, 60
2, 38848, Note_off_c, 0, 46, 0
2, 38852, Note_off_c, 0, 60, 0
2, 38880, Note_off_c, 0, 63, 0
2, 38928, Note_on_c, 0, 62, 82
2, 38944, Note_off_c, 0, 54, 0
2, 38948, Note_on_c, 0, 53, 74
2, 38948, Note_on_c, 0, 46, 46
2, 38956, Control_c, 0, 64, 104
2, 38964, Control_c, 0, 64, 88
2, 38976, Control_c, 0, 64, 40
2, 38984, Control_c, 0, 64, 0
2, 39108, Control_c, 0, 64, 72
2, 39120, Control_c, 0, 64, 127
2, 39312, Note_off_c, 0, 62, 0
2, 39324, Note_off_c, 0, 53, 0
2, 39328, Note_on_c, 0, 61, 77
2, 39388, Note_off_c, 0, 46, 0
2, 39408, Note_off_c, 0, 34, 0
2, 39428, Note_off_c, 0, 61, 0
2, 39456, Note_on_c, 0, 64, 84
2, 39468, Note_on_c, 0, 57, 64
2, 39472, Note_on_c, 0, 53, 57
2, 39472, Note_on_c, 0, 33, 54
2, 39568, Control_c, 0, 64, 72
2, 39580, Control_c, 0, 64, 0
2, 39636, Control_c, 0, 64, 56
2, 39648, Control_c, 0, 64, 127
2, 39764, Note_off_c, 0, 64, 0
2, 39808, Note_off_c, 0, 57, 0
2, 39824, Note_off_c, 0, 53, 0
2, 39832, Note_on_c, 0, 62, 83
2, 39912, Note_off_c, 0, 62, 0
2, 39952, Note_off_c, 0, 33, 0
2, 39984, Note_on_c, 0, 65, 89
2, 39992, Note_on_c, 0, 59, 64
2, 39992, Note_on_c, 0, 53, 62
2, 40000, Note_on_c, 0, 32, 54
2, 40088, Control_c, 0, 64, 88
2, 40096, Control_c, 0, 64, 0
2, 40168, Control_c, 0, 64, 127
2, 40280, Note_off_c, 0, 53, 0
2, 40332, Note_off_c, 0, 65, 0
2, 40340, Note_off_c, 0, 59, 0
2, 40368, Note_on_c, 0, 64, 84
2, 40416, Note_off_c, 0, 64, 0
2, 40572, Note_on_c, 0, 70, 86
2, 40580, Note_off_c, 0, 32, 0
2, 40584, Note_on_c, 0, 64, 63
2, 40584, Note_on_c, 0, 61, 35
2, 40596, Note_on_c, 0, 31, 43
2, 40680, Control_c, 0, 64, 104
2, 40688, Control_c, 0, 64, 24
2, 40700, Control_c, 0, 64, 0
2, 40780, Control_c, 0, 64, 88
2, 40792, Control_c, 0, 64, 127
2, 40924, Note_off_c, 0, 70, 0
2, 40944, Note_off_c, 0, 61, 0
2, 40952, Note_off_c, 0, 31, 0
2, 40956, Note_off_c, 0, 64, 0
2, 41056, Note_on_c, 0, 69, 86
2, 41100, Note_off_c, 0, 69, 0
2, 41312, Note_on_c, 0, 81, 80
2, 41324, Note_on_c, 0, 29, 55
2, 41324, Note_on_c, 0, 69, 50
2, 41328, Note_on_c, 0, 74, 56
2, 41364, Control_c, 0, 64, 104
2, 41372, Control_c, 0, 64, 56
2, 41380, Control_c, 0, 64, 0
2, 41484, Control_c, 0, 64, 88
2, 41492, Control_c, 0, 64, 127
2, 41544, Note_on_c, 0, 33, 61
2, 41552, Note_off_c, 0, 29, 0
2, 41640, Note_off_c, 0, 33, 0
2, 41648, Note_on_c, 0, 34, 62
2, 41764, Note_off_c, 0, 34, 0
2, 41772, Note_on_c, 0, 35, 69
2, 41868, Note_off_c, 0, 35, 0
2, 41868, Note_on_c, 0, 36, 69
2, 41924, Note_off_c, 0, 81, 0
2, 41964, Note_off_c, 0, 36, 0
2, 41988, Note_on_c, 0, 37, 53
2, 42076, Note_off_c, 0, 37, 0
2, 42096, Note_on_c, 0, 38, 63
2, 42196, Note_off_c, 0, 38, 0
2, 42196, Note_on_c, 0, 82, 82
2, 42196, Note_on_c, 0, 39, 57
2, 42236, Control_c, 0, 64, 56
2, 42248, Control_c, 0, 64, 0
2, 42308, Note_off_c, 0, 39, 0
2, 42312, Note_on_c, 0, 40, 57
2, 42312, Control_c, 0, 64, 72
2, 42320, Control_c, 0, 64, 127
2, 42340, Note_off_c, 0, 82, 0
2, 42384, Note_off_c, 0, 74, 0
2, 42388, Note_off_c, 0, 40, 0
2, 42400, Note_off_c, 0, 69, 0
2, 42408, Note_on_c, 0, 81, 93
2, 42420, Note_on_c, 0, 41, 49
2, 42492, Note_off_c, 0, 41, 0
2, 42520, Note_on_c, 0, 42, 40
2, 42604, Note_off_c, 0, 81, 0
2, 42608, Note_off_c, 0, 42, 0
2, 42632, Note_on_c, 0, 79, 89
2, 42640, Note_on_c, 0, 43, 51
2, 42700, Note_off_c, 0, 43, 0
2, 42724, Note_on_c, 0, 44, 53
2, 42816, Note_off_c, 0, 44, 0
2, 42840, Note_on_c, 0, 45, 58
2, 42844, Note_on_c, 0, 77, 95
2, 42864, Note_off_c, 0, 79, 0
2, 42908, Note_off_c, 0, 77, 0
2, 42932, Note_off_c, 0, 45, 0
2, 42936, Note_on_c, 0, 46, 60
2, 43036, Note_off_c, 0, 46, 0
2, 43056, Note_on_c, 0, 76, 86
2, 43064, Note_on_c, 0, 47, 47
2, 43064, Note_on_c, 0, 69, 66
2, 43104, Control_c, 0, 64, 88
2, 43116, Control_c, 0, 64, 24
2, 43124, Control_c, 0, 64, 0
2, 43132, Note_off_c, 0, 47, 0
2, 43164, Note_on_c, 0, 48, 62
2, 43176, Control_c, 0, 64, 24
2, 43188, Control_c, 0, 64, 104
2, 43196, Control_c, 0, 64, 127
2, 43244, Note_off_c, 0, 48, 0
2, 43272, Note_on_c, 0, 49, 55
2, 43276, Note_on_c, 0, 74, 89
2, 43280, Note_off_c, 0, 76, 0
2, 43348, Note_off_c, 0, 49, 0
2, 43384, Note_on_c, 0, 50, 58
2, 43460, Note_off_c, 0, 50, 0
2, 43472, Note_on_c, 0, 51, 60
2, 43488, Note_on_c, 0, 77, 84
2, 43492, Note_off_c, 0, 74, 0
2, 43592, Note_on_c, 0, 52, 58
2, 43608, Note_off_c, 0, 51, 0
2, 43660, Note_off_c, 0, 52, 0
2, 43684, Note_off_c, 0, 77, 0
2, 43692, Note_on_c, 0, 76, 84
2, 43692, Note_on_c, 0, 53, 60
2, 43768, Note_off_c, 0, 76, 0
2, 43784, Note_off_c, 0, 53, 0
2, 43796, Note_on_c, 0, 54, 51
2, 43880, Note_off_c, 0, 69, 0
2, 43896, Note_off_c, 0, 54, 0
2, 43924, Note_on_c, 0, 74, 82
2, 43928, Note_on_c, 0, 70, 68
2, 43932, Note_on_c, 0, 55, 59
2, 43960, Control_c, 0, 64, 72
2, 43972, Control_c, 0, 64, 0
2, 44000, Note_off_c, 0, 55, 0
2, 44028, Note_on_c, 0, 56, 51
2, 44036, Control_c, 0, 64, 56
2, 44044, Control_c, 0, 64, 127
2, 44084, Note_off_c, 0, 70, 0
2, 44112, Note_off_c, 0, 56, 0
2, 44140, Note_on_c, 0, 69, 80
2, 44152, Note_on_c, 0, 57, 57
2, 44232, Note_off_c, 0, 57, 0
2, 44240, Note_on_c, 0, 58, 56
2, 44336, Note_off_c, 0, 58, 0
2, 44360, Note_on_c, 0, 59, 59
2, 44372, Note_on_c, 0, 67, 79
2, 44380, Note_off_c, 0, 69, 0
2, 44448, Note_off_c, 0, 59, 0
2, 44464, Note_off_c, 0, 74, 0
2, 44468, Note_off_c, 0, 67, 0
2, 44484, Note_on_c, 0, 60, 53
2, 44580, Note_on_c, 0, 61, 51
2, 44588, Note_off_c, 0, 60, 0
2, 44608, Note_on_c, 0, 65, 79
2, 44672, Note_on_c, 0, 62, 74
2, 44680, Note_off_c, 0, 61, 0
2, 44680, Note_off_c, 0, 65, 0
2, 44688, Note_off_c, 0, 62, 0
2, 44788, Note_on_c, 0, 64, 71
2, 44816, Control_c, 0, 64, 56
2, 44828, Control_c, 0, 64, 0
2, 44844, Note_off_c, 0, 64, 0
2, 44848, Note_on_c, 0, 74, 81
2, 44868, Control_c, 0, 64, 40
2, 44880, Note_on_c, 0, 31, 51
2, 44880, Control_c, 0, 64, 127
2, 44912, Note_off_c, 0, 74, 0
2, 44972, Note_on_c, 0, 81, 83
2, 45016, Note_off_c, 0, 81, 0
2, 45172, Note_on_c, 0, 62, 77
2, 45272, Note_off_c, 0, 31, 0
2, 45272, Note_on_c, 0, 33, 64
2, 45356, Note_off_c, 0, 62, 0
2, 45360, Note_off_c, 0, 33, 0
2, 45380, Note_on_c, 0, 34, 60
2, 45380, Note_on_c, 0, 65, 79
2, 45400, Control_c, 0, 64, 104
2, 45408, Control_c, 0, 64, 56
2, 45420, Control_c, 0, 64, 0
2, 45440, Control_c, 0, 64, 24
2, 45452, Control_c, 0, 64, 56
2, 45464, Control_c, 0, 64, 104
2, 45472, Control_c, 0, 64, 127
2, 45476, Note_off_c, 0, 34, 0
2, 45496, Note_on_c, 0, 35, 63
2, 45568, Note_off_c, 0, 35, 0
2, 45584, Note_off_c, 0, 65, 0
2, 45600, Note_on_c, 0, 64, 79
2, 45608, Note_on_c, 0, 36, 58
2, 45668, Note_off_c, 0, 36, 0
2, 45708, Note_on_c, 0, 37, 52
2, 45724, Note_off_c, 0, 64, 0
2, 45728, Note_on_c, 0, 62, 68
2, 45744, Note_off_c, 0, 62, 0
2, 45792, Note_off_c, 0, 37, 0
2, 45836, Note_on_c, 0, 38, 59
2, 45852, Note_on_c, 0, 82, 88
2, 45868, Control_c, 0, 64, 104
2, 45880, Control_c, 0, 64, 56
2, 45888, Control_c, 0, 64, 24
2, 45920, Control_c, 0, 64, 104
2, 45928, Control_c, 0, 64, 127
2, 45944, Note_on_c, 0, 39, 62
2, 45956, Note_off_c, 0, 38, 0
2, 46004, Note_off_c, 0, 82, 0
2, 46036, Note_off_c, 0, 39, 0
2, 46068, Note_on_c, 0, 81, 91
2, 46068, Note_on_c, 0, 40, 50
2, 46132, Note_off_c, 0, 40, 0
2, 46176, Note_on_c, 0, 41, 63
2, 46236, Note_off_c, 0, 81, 0
2, 46268, Note_off_c, 0, 41, 0
2, 46280, Note_on_c, 0, 79, 78
2, 46292, Note_on_c, 0, 42, 57
2, 46368, Note_off_c, 0, 42, 0
2, 46392, Note_on_c, 0, 43, 62
2, 46456, Note_off_c, 0, 43, 0
2, 46488, Note_on_c, 0, 77, 91
2, 46500, Note_off_c, 0, 79, 0
2, 46500, Note_on_c, 0, 44, 50
2, 46552, Note_off_c, 0, 77, 0
2, 46568, Note_off_c, 0, 44, 0
2, 46600, Note_on_c, 0, 45, 70
2, 46676, Note_off_c, 0, 45, 0
2, 46716, Note_on_c, 0, 46, 56
2, 46724, Note_on_c, 0, 76, 88
2, 46724, Note_on_c, 0, 70, 63
2, 46748, Control_c, 0, 64, 104
2, 46756, Control_c, 0, 64, 56
2, 46768, Control_c, 0, 64, 0
2, 46836, Control_c, 0, 64, 56
2, 46844, Note_off_c, 0, 46, 0
2, 46844, Note_on_c, 0, 47, 58
2, 46848, Control_c, 0, 64, 127
2, 46904, Note_off_c, 0, 47, 0
2, 46948, Note_on_c, 0, 74, 84
2, 46952, Note_on_c, 0, 48, 59
2, 46988, Note_off_c, 0, 76, 0
2, 47024, Note_off_c, 0, 48, 0
2, 47040, Note_on_c, 0, 49, 61
2, 47136, Note_off_c, 0, 49, 0
2, 47160, Note_on_c, 0, 77, 90
2, 47160, Note_on_c, 0, 50, 66
2, 47180, Note_off_c, 0, 74, 0
2, 47232, Note_off_c, 0, 50, 0
2, 47264, Note_on_c, 0, 51, 52
2, 47352, Note_off_c, 0, 77, 0
2, 47352, Note_off_c, 0, 51, 0
2, 47356, Note_off_c, 0, 70, 0
2, 47380, Note_on_c, 0, 76, 80
2, 47392, Note_on_c, 0, 52, 60
2, 47468, Note_off_c, 0, 52, 0
2, 47488, Note_on_c, 0, 53, 64
2, 47584, Note_off_c, 0, 76, 0
2, 47588, Note_off_c, 0, 53, 0
2, 47608, Note_on_c, 0, 74, 90
2, 47612, Note_on_c, 0, 54, 50
2, 47616, Note_on_c, 0, 72, 74
2, 47632, Control_c, 0, 64, 72
2, 47644, Control_c, 0, 64, 0
2, 47692, Note_off_c, 0, 54, 0
2, 47704, Control_c, 0, 64, 56
2, 47716, Note_on_c, 0, 55, 59
2, 47716, Control_c, 0, 64, 127
2, 47768, Note_off_c, 0, 72, 0
2, 47784, Note_off_c, 0, 55, 0
2, 47828, Note_on_c, 0, 56, 50
2, 47832, Note_on_c, 0, 70, 68
2, 47904, Note_off_c, 0, 56, 0
2, 47920, Note_off_c, 0, 70, 0
2, 47936, Note_on_c, 0, 57, 60
2, 48016, Note_off_c, 0, 57, 0
2, 48052, Note_on_c, 0, 58, 48
2, 48060, Note_on_c, 0, 69, 79
2, 48160, Note_off_c, 0, 58, 0
2, 48172, Note_on_c, 0, 59, 59
2, 48180, Note_off_c, 0, 69, 0
2, 48240, Note_off_c, 0, 59, 0
2, 48280, Note_off_c, 0, 74, 0
2, 48284, Note_on_c, 0, 67, 80
2, 48288, Note_on_c, 0, 60, 61
2, 48380, Note_on_c, 0, 61, 69
2, 48384, Note_off_c, 0, 67, 0
2, 48384, Note_off_c, 0, 60, 0
2, 48412, Note_off_c, 0, 61, 0
2, 48564, Note_on_c, 0, 81, 90
2, 48564, Note_on_c, 0, 67, 64
2, 48576, Note_on_c, 0, 74, 67
2, 48592, Control_c, 0, 64, 72
2, 48596, Note_on_c, 0, 33, 68
2, 48600, Control_c, 0, 64, 0
2, 48664, Control_c, 0, 64, 40
2, 48676, Control_c, 0, 64, 127
2, 48696, Note_off_c, 0, 81, 0
2, 48708, Note_off_c, 0, 74, 0
2, 48712, Note_off_c, 0, 67, 0
2, 48816, Note_on_c, 0, 66, 73
2, 48900, Note_off_c, 0, 33, 0
2, 48904, Note_on_c, 0, 34, 63
2, 48988, Note_off_c, 0, 66, 0
2, 48992, Note_off_c, 0, 34, 0
2, 49028, Note_on_c, 0, 35, 48
2, 49028, Note_on_c, 0, 69, 80
2, 49072, Control_c, 0, 64, 40
2, 49080, Control_c, 0, 64, 0
2, 49108, Note_off_c, 0, 35, 0
2, 49124, Control_c, 0, 64, 40
2, 49132, Control_c, 0, 64, 104
2, 49136, Note_on_c, 0, 36, 58
2, 49144, Control_c, 0, 64, 127
2, 49212, Note_off_c, 0, 36, 0
2, 49212, Note_off_c, 0, 69, 0
2, 49232, Note_on_c, 0, 67, 70
2, 49240, Note_on_c, 0, 37, 57
2, 49304, Note_off_c, 0, 37, 0
2, 49336, Control_c, 0, 64, 72
2, 49344, Note_on_c, 0, 38, 60
2, 49348, Control_c, 0, 64, 56
2, 49356, Control_c, 0, 64, 72
2, 49364, Note_off_c, 0, 67, 0
2, 49368, Note_on_c, 0, 66, 75
2, 49368, Control_c, 0, 64, 104
2, 49380, Control_c, 0, 64, 127
2, 49416, Note_off_c, 0, 66, 0
2, 49428, Note_off_c, 0, 38, 0
2, 49452, Note_on_c, 0, 39, 57
2, 49492, Note_on_c, 0, 82, 93
2, 49572, Note_off_c, 0, 82, 0
2, 49580, Note_off_c, 0, 39, 0
2, 49592, Note_on_c, 0, 40, 64
2, 49672, Note_off_c, 0, 40, 0
2, 49708, Note_on_c, 0, 81, 94
2, 49708, Note_on_c, 0, 41, 51
2, 49804, Note_off_c, 0, 41, 0
2, 49820, Note_on_c, 0, 42, 59
2, 49900, Note_off_c, 0, 81, 0
2, 49904, Note_off_c, 0, 42, 0
2, 49924, Note_on_c, 0, 79, 92
2, 49932, Note_on_c, 0, 43, 66
2, 50000, Note_off_c, 0, 43, 0
2, 50036, Note_on_c, 0, 44, 59
2, 50108, Note_off_c, 0, 44, 0
2, 50132, Note_on_c, 0, 78, 93
2, 50144, Note_on_c, 0, 45, 69
2, 50156, Note_off_c, 0, 79, 0
2, 50220, Note_off_c, 0, 45, 0
2, 50236, Note_on_c, 0, 46, 62
2, 50296, Note_off_c, 0, 78, 0
2, 50360, Note_off_c, 0, 46, 0
2, 50372, Note_on_c, 0, 78, 84
2, 50376, Note_on_c, 0, 75, 79
2, 50392, Note_on_c, 0, 47, 50
2, 50396, Control_c, 0, 64, 104
2, 50408, Control_c, 0, 64, 56
2, 50416, Control_c, 0, 64, 0
2, 50468, Note_off_c, 0, 47, 0
2, 50480, Control_c, 0, 64, 72
2, 50488, Control_c, 0, 64, 127
2, 50496, Note_on_c, 0, 48, 62
2, 50524, Note_off_c, 0, 75, 0
2, 50564, Note_off_c, 0, 48, 0
2, 50600, Note_on_c, 0, 74, 79
2, 50604, Note_on_c, 0, 49, 52
2, 50676, Note_off_c, 0, 49, 0
2, 50708, Note_on_c, 0, 50, 69
2, 50800, Note_off_c, 0, 74, 0
2, 50804, Note_off_c, 0, 78, 0
2, 50804, Note_off_c, 0, 50, 0
2, 50812, Note_on_c, 0, 51, 68
2, 50816, Note_on_c, 0, 77, 83
2, 50920, Note_off_c, 0, 51, 0
2, 50924, Note_on_c, 0, 52, 71
2, 50996, Note_off_c, 0, 52, 0
2, 51024, Note_on_c, 0, 75, 89
2, 51032, Note_off_c, 0, 77, 0
2, 51032, Note_on_c, 0, 53, 64
2, 51100, Note_off_c, 0, 53, 0
2, 51128, Note_on_c, 0, 54, 61
2, 51212, Note_off_c, 0, 75, 0
2, 51232, Note_off_c, 0, 54, 0
2, 51252, Note_on_c, 0, 78, 85
2, 51256, Note_on_c, 0, 55, 69
2, 51260, Note_on_c, 0, 74, 83
2, 51272, Control_c, 0, 64, 88
2, 51284, Control_c, 0, 64, 0
2, 51348, Note_off_c, 0, 55, 0
2, 51352, Note_on_c, 0, 56, 66
2, 51356, Control_c, 0, 64, 56
2, 51368, Control_c, 0, 64, 127
2, 51444, Note_off_c, 0, 56, 0
2, 51448, Note_off_c, 0, 74, 0
2, 51464, Note_on_c, 0, 72, 89
2, 51468, Note_off_c, 0, 78, 0
2, 51472, Note_on_c, 0, 57, 67
2, 51572, Note_on_c, 0, 58, 67
2, 51592, Note_off_c, 0, 57, 0
2, 51616, Note_off_c, 0, 72, 0
2, 51684, Note_on_c, 0, 78, 84
2, 51692, Note_on_c, 0, 70, 75
2, 51696, Note_on_c, 0, 59, 72
2, 51712, Control_c, 0, 64, 88
2, 51724, Control_c, 0, 64, 0
2, 51764, Note_off_c, 0, 58, 0
2, 51780, Note_off_c, 0, 59, 0
2, 51784, Control_c, 0, 64, 88
2, 51796, Control_c, 0, 64, 127
2, 51800, Note_on_c, 0, 60, 72
2, 51892, Note_off_c, 0, 70, 0
2, 51912, Note_on_c, 0, 69, 81
2, 51916, Note_on_c, 0, 61, 60
2, 51924, Note_off_c, 0, 60, 0
2, 52004, Note_off_c, 0, 69, 0
2, 52008, Note_off_c, 0, 61, 0
2, 52020, Note_on_c, 0, 62, 80
2, 52032, Note_off_c, 0, 78, 0
2, 52112, Note_off_c, 0, 62, 0
2, 52192, Note_on_c, 0, 79, 88
2, 52196, Note_on_c, 0, 67, 68
2, 52208, Note_on_c, 0, 75, 52
2, 52208, Note_on_c, 0, 63, 79
2, 52296, Control_c, 0, 64, 104
2, 52304, Control_c, 0, 64, 24
2, 52316, Control_c, 0, 64, 0
2, 52384, Control_c, 0, 64, 40
2, 52396, Control_c, 0, 64, 104
2, 52408, Control_c, 0, 64, 127
2, 52448, Note_off_c, 0, 63, 0
2, 52564, Note_off_c, 0, 79, 0
2, 52576, Note_off_c, 0, 75, 0
2, 52584, Note_off_c, 0, 67, 0
2, 52644, Note_on_c, 0, 39, 69
2, 52712, Note_off_c, 0, 39, 0
2, 52812, Note_on_c, 0, 58, 71
2, 52820, Note_on_c, 0, 55, 69
2, 52864, Note_off_c, 0, 55, 0
2, 52912, Note_off_c, 0, 58, 0
2, 52956, Note_on_c, 0, 70, 77
2, 52968, Note_on_c, 0, 67, 67
2, 52972, Note_on_c, 0, 46, 53
2, 53056, Note_off_c, 0, 46, 0
2, 53068, Note_off_c, 0, 67, 0
2, 53084, Note_off_c, 0, 70, 0
2, 53108, Control_c, 0, 64, 56
2, 53120, Note_on_c, 0, 65, 83
2, 53120, Control_c, 0, 64, 0
2, 53128, Note_on_c, 0, 56, 60
2, 53140, Control_c, 0, 64, 24
2, 53152, Control_c, 0, 64, 72
2, 53160, Control_c, 0, 64, 127
2, 53184, Note_off_c, 0, 56, 0
2, 53220, Note_off_c, 0, 65, 0
2, 53268, Note_on_c, 0, 63, 73
2, 53284, Note_on_c, 0, 55, 70
2, 53356, Note_off_c, 0, 63, 0
2, 53400, Note_off_c, 0, 55, 0
2, 53416, Note_on_c, 0, 46, 62
2, 53416, Note_on_c, 0, 72, 91
2, 53420, Note_on_c, 0, 75, 89
2, 53528, Control_c, 0, 64, 88
2, 53540, Note_off_c, 0, 75, 0
2, 53540, Control_c, 0, 64, 0
2, 53556, Note_on_c, 0, 39, 72
2, 53564, Note_off_c, 0, 72, 0
2, 53564, Note_on_c, 0, 70, 81
2, 53568, Note_off_c, 0, 46, 0
2, 53588, Control_c, 0, 64, 72
2, 53596, Control_c, 0, 64, 127
2, 53664, Note_off_c, 0, 39, 0
2, 53672, Note_off_c, 0, 70, 0
2, 53716, Note_on_c, 0, 67, 77
2, 53724, Note_on_c, 0, 63, 71
2, 53792, Note_off_c, 0, 63, 0
2, 53800, Note_off_c, 0, 67, 0
2, 53852, Note_on_c, 0, 75, 80
2, 53856, Note_on_c, 0, 79, 92
2, 53868, Note_on_c, 0, 58, 52
2, 53940, Note_off_c, 0, 75, 0
2, 53952, Note_off_c, 0, 79, 0
2, 54008, Note_on_c, 0, 72, 96
2, 54028, Note_on_c, 0, 68, 75
2, 54068, Note_off_c, 0, 72, 0
2, 54076, Note_off_c, 0, 58, 0
2, 54084, Note_off_c, 0, 68, 0
2, 54160, Note_on_c, 0, 70, 83
2, 54168, Note_on_c, 0, 67, 75
2, 54248, Note_off_c, 0, 70, 0
2, 54300, Note_on_c, 0, 82, 84
2, 54304, Note_off_c, 0, 67, 0
2, 54304, Note_on_c, 0, 79, 84
2, 54304, Note_on_c, 0, 58, 53
2, 54432, Note_off_c, 0, 79, 0
2, 54436, Control_c, 0, 64, 40
2, 54444, Control_c, 0, 64, 0
2, 54456, Note_off_c, 0, 82, 0
2, 54456, Note_on_c, 0, 51, 73
2, 54456, Note_on_c, 0, 77, 99
2, 54480, Note_off_c, 0, 58, 0
2, 54496, Control_c, 0, 64, 40
2, 54504, Note_off_c, 0, 51, 0
2, 54508, Control_c, 0, 64, 127
2, 54584, Note_off_c, 0, 77, 0
2, 54604, Note_on_c, 0, 75, 81
2, 54616, Note_on_c, 0, 70, 80
2, 54640, Note_off_c, 0, 75, 0
2, 54768, Note_on_c, 0, 91, 105
2, 54768, Note_on_c, 0, 87, 88
2, 54772, Note_on_c, 0, 58, 69
2, 54808, Note_off_c, 0, 58, 0
2, 54812, Note_off_c, 0, 70, 0
2, 54832, Note_off_c, 0, 91, 0
2, 54832, Note_off_c, 0, 87, 0
2, 54940, Note_on_c, 0, 87, 96
2, 54948, Note_on_c, 0, 82, 86
2, 54956, Note_on_c, 0, 79, 72
2, 54992, Note_off_c, 0, 82, 0
2, 55016, Note_off_c, 0, 79, 0
2, 55048, Note_off_c, 0, 87, 0
2, 55100, Note_on_c, 0, 82, 90
2, 55104, Note_on_c, 0, 79, 81
2, 55108, Note_on_c, 0, 75, 80
2, 55148, Note_off_c, 0, 82, 0
2, 55148, Note_off_c, 0, 79, 0
2, 55172, Note_off_c, 0, 75, 0
2, 55260, Note_on_c, 0, 75, 81
2, 55260, Note_on_c, 0, 70, 75
2, 55264, Note_on_c, 0, 79, 86
2, 55316, Note_off_c, 0, 70, 0
2, 55320, Note_off_c, 0, 75, 0
2, 55320, Note_off_c, 0, 79, 0
2, 55428, Note_on_c, 0, 75, 83
2, 55436, Note_on_c, 0, 67, 81
2, 55436, Note_on_c, 0, 70, 70
2, 55492, Note_off_c, 0, 67, 0
2, 55516, Note_off_c, 0, 70, 0
2, 55560, Note_off_c, 0, 75, 0
2, 55612, Note_on_c, 0, 70, 73
2, 55616, Note_on_c, 0, 67, 70
2, 55620, Note_on_c, 0, 63, 63
2, 55652, Note_off_c, 0, 70, 0
2, 55656, Note_off_c, 0, 67, 0
2, 55672, Note_off_c, 0, 63, 0
2, 55812, Note_on_c, 0, 67, 71
2, 55812, Note_on_c, 0, 63, 51
2, 55812, Note_on_c, 0, 58, 52
2, 55860, Note_off_c, 0, 67, 0
2, 55868, Note_off_c, 0, 63, 0
2, 55868, Note_off_c, 0, 58, 0
2, 56080, Note_on_c, 0, 56, 68
2, 56088, Control_c, 0, 64, 104
2, 56096, Control_c, 0, 64, 24
2, 56108, Note_on_c, 0, 37, 63
2, 56108, Control_c, 0, 64, 0
2, 56212, Note_off_c, 0, 56, 0
2, 56216, Note_on_c, 0, 57, 63
2, 56268, Note_off_c, 0, 37, 0
2, 56352, Note_off_c, 0, 57, 0
2, 56384, Note_on_c, 0, 69, 86
2, 56392, Note_on_c, 0, 64, 68
2, 56392, Note_on_c, 0, 52, 52
2, 56404, Note_on_c, 0, 45, 41
2, 56516, Note_off_c, 0, 64, 0
2, 56524, Control_c, 0, 64, 24
2, 56532, Note_on_c, 0, 67, 63
2, 56532, Control_c, 0, 64, 40
2, 56544, Control_c, 0, 64, 56
2, 56556, Control_c, 0, 64, 72
2, 56564, Control_c, 0, 64, 88
2, 56600, Note_off_c, 0, 52, 0
2, 56608, Control_c, 0, 64, 104
2, 56620, Control_c, 0, 64, 88
2, 56632, Control_c, 0, 64, 72
2, 56640, Note_off_c, 0, 67, 0
2, 56640, Control_c, 0, 64, 24
2, 56656, Control_c, 0, 64, 0
2, 56660, Note_on_c, 0, 65, 63
2, 56684, Note_on_c, 0, 38, 55
2, 56688, Note_off_c, 0, 45, 0
2, 56720, Control_c, 0, 64, 24
2, 56732, Control_c, 0, 64, 56
2, 56740, Control_c, 0, 64, 88
2, 56752, Control_c, 0, 64, 127
2, 56772, Note_off_c, 0, 65, 0
2, 56808, Note_off_c, 0, 69, 0
2, 56808, Note_on_c, 0, 64, 69
2, 56888, Note_off_c, 0, 64, 0
2, 56928, Control_c, 0, 64, 104
2, 56940, Control_c, 0, 64, 40
2, 56952, Control_c, 0, 64, 0
2, 56960, Note_on_c, 0, 71, 87
2, 56968, Note_on_c, 0, 68, 60
2, 56968, Note_on_c, 0, 62, 60
2, 56976, Note_on_c, 0, 45, 58
2, 57012, Control_c, 0, 64, 24
2, 57028, Control_c, 0, 64, 72
2, 57032, Note_off_c, 0, 45, 0
2, 57036, Control_c, 0, 64, 127
2, 57052, Note_off_c, 0, 38, 0
2, 57068, Note_off_c, 0, 62, 0
2, 57084, Note_off_c, 0, 71, 0
2, 57088, Note_off_c, 0, 68, 0
2, 57100, Note_on_c, 0, 65, 67
2, 57180, Note_off_c, 0, 65, 0
2, 57236, Control_c, 0, 64, 72
2, 57248, Note_on_c, 0, 73, 92
2, 57248, Control_c, 0, 64, 0
2, 57256, Note_on_c, 0, 61, 65
2, 57264, Note_on_c, 0, 69, 60
2, 57268, Note_on_c, 0, 45, 55
2, 57272, Note_on_c, 0, 33, 59
2, 57324, Control_c, 0, 64, 24
2, 57332, Control_c, 0, 64, 72
2, 57344, Control_c, 0, 64, 127
2, 57352, Note_off_c, 0, 69, 0
2, 57368, Note_off_c, 0, 73, 0
2, 57368, Note_off_c, 0, 61, 0
2, 57380, Note_off_c, 0, 45, 0
2, 57396, Note_on_c, 0, 64, 67
2, 57436, Note_off_c, 0, 33, 0
2, 57472, Note_off_c, 0, 64, 0
2, 57532, Control_c, 0, 64, 88
2, 57544, Control_c, 0, 64, 40
2, 57552, Note_on_c, 0, 69, 91
2, 57552, Control_c, 0, 64, 0
2, 57564, Note_on_c, 0, 57, 63
2, 57568, Note_on_c, 0, 37, 56
2, 57568, Note_on_c, 0, 45, 50
2, 57620, Control_c, 0, 64, 56
2, 57628, Control_c, 0, 64, 104
2, 57636, Note_off_c, 0, 37, 0
2, 57640, Control_c, 0, 64, 127
2, 57648, Note_off_c, 0, 45, 0
2, 57692, Note_on_c, 0, 67, 70
2, 57728, Note_off_c, 0, 57, 0
2, 57804, Note_off_c, 0, 67, 0
2, 57808, Control_c, 0, 64, 104
2, 57816, Control_c, 0, 64, 40
2, 57828, Control_c, 0, 64, 0
2, 57840, Note_on_c, 0, 65, 59
2, 57856, Note_on_c, 0, 38, 58
2, 57892, Control_c, 0, 64, 24
2, 57904, Control_c, 0, 64, 72
2, 57916, Control_c, 0, 64, 127
2, 57924, Note_off_c, 0, 38, 0
2, 57944, Note_off_c, 0, 65, 0
2, 57972, Note_off_c, 0, 69, 0
2, 57980, Note_on_c, 0, 64, 69
2, 58068, Note_off_c, 0, 64, 0
2, 58124, Control_c, 0, 64, 56
2, 58136, Control_c, 0, 64, 0
2, 58140, Note_on_c, 0, 68, 56
2, 58140, Note_on_c, 0, 71, 86
2, 58152, Note_on_c, 0, 53, 59
2, 58156, Note_on_c, 0, 62, 50
2, 58204, Control_c, 0, 64, 56
2, 58212, Note_off_c, 0, 53, 0
2, 58212, Control_c, 0, 64, 88
2, 58224, Control_c, 0, 64, 127
2, 58236, Note_off_c, 0, 68, 0
2, 58252, Note_off_c, 0, 62, 0
2, 58284, Note_on_c, 0, 61, 62
2, 58304, Note_off_c, 0, 71, 0
2, 58388, Control_c, 0, 64, 72
2, 58400, Control_c, 0, 64, 0
2, 58412, Note_off_c, 0, 61, 0
2, 58432, Note_on_c, 0, 60, 70
2, 58444, Note_on_c, 0, 40, 57
2, 58476, Control_c, 0, 64, 40
2, 58488, Control_c, 0, 64, 88
2, 58500, Control_c, 0, 64, 127
2, 58508, Note_off_c, 0, 40, 0
2, 58548, Note_off_c, 0, 60, 0
2, 58576, Note_on_c, 0, 62, 69
2, 58624, Note_off_c, 0, 62, 0
2, 58728, Control_c, 0, 64, 104
2, 58740, Control_c, 0, 64, 40
2, 58752, Note_on_c, 0, 60, 84
2, 58752, Note_on_c, 0, 72, 93
2, 58752, Control_c, 0, 64, 0
2, 58756, Note_on_c, 0, 48, 63
2, 58756, Note_on_c, 0, 55, 58
2, 58804, Control_c, 0, 64, 40
2, 58816, Control_c, 0, 64, 104
2, 58828, Control_c, 0, 64, 127
2, 58836, Note_off_c, 0, 55, 0
2, 58852, Note_off_c, 0, 48, 0
2, 58908, Note_on_c, 0, 70, 57
2, 58992, Control_c, 0, 64, 72
2, 59000, Note_off_c, 0, 70, 0
2, 59004, Control_c, 0, 64, 0
2, 59040, Note_on_c, 0, 69, 61
2, 59048, Note_on_c, 0, 41, 60
2, 59068, Control_c, 0, 64, 72
2, 59080, Control_c, 0, 64, 127
2, 59088, Note_off_c, 0, 41, 0
2, 59132, Note_off_c, 0, 69, 0
2, 59140, Note_off_c, 0, 60, 0
2, 59168, Note_off_c, 0, 72, 0
2, 59176, Note_on_c, 0, 67, 66
2, 59244, Note_off_c, 0, 67, 0
2, 59312, Control_c, 0, 64, 104
2, 59320, Control_c, 0, 64, 40
2, 59328, Control_c, 0, 64, 0
2, 59332, Note_on_c, 0, 74, 88
2, 59340, Note_on_c, 0, 65, 67
2, 59344, Note_on_c, 0, 72, 70
2, 59348, Note_on_c, 0, 48, 67
2, 59352, Note_on_c, 0, 57, 51
2, 59396, Control_c, 0, 64, 72
2, 59400, Note_off_c, 0, 57, 0
2, 59408, Control_c, 0, 64, 127
2, 59412, Note_off_c, 0, 48, 0
2, 59440, Note_off_c, 0, 72, 0
2, 59456, Note_off_c, 0, 65, 0
2, 59468, Note_on_c, 0, 69, 64
2, 59500, Note_off_c, 0, 74, 0
2, 59516, Note_off_c, 0, 69, 0
2, 59564, Control_c, 0, 64, 88
2, 59572, Control_c, 0, 64, 40
2, 59584, Control_c, 0, 64, 0
2, 59612, Note_on_c, 0, 64, 65
2, 59620, Note_on_c, 0, 44, 65
2, 59660, Control_c, 0, 64, 40
2, 59672, Control_c, 0, 64, 104
2, 59676, Note_off_c, 0, 44, 0
2, 59684, Control_c, 0, 64, 127
2, 59732, Note_off_c, 0, 64, 0
2, 59744, Note_on_c, 0, 65, 67
2, 59772, Note_off_c, 0, 65, 0
2, 59904, Control_c, 0, 64, 88
2, 59912, Control_c, 0, 64, 24
2, 59920, Note_on_c, 0, 76, 99
2, 59920, Note_on_c, 0, 64, 83
2, 59924, Control_c, 0, 64, 0
2, 59928, Note_on_c, 0, 52, 63
2, 59932, Note_on_c, 0, 62, 63
2, 59932, Note_on_c, 0, 59, 60
2, 59980, Control_c, 0, 64, 56
2, 59992, Control_c, 0, 64, 127
2, 60008, Note_off_c, 0, 62, 0
2, 60008, Note_off_c, 0, 59, 0
2, 60020, Note_off_c, 0, 52, 0
2, 60072, Note_on_c, 0, 74, 67
2, 60164, Control_c, 0, 64, 88
2, 60176, Control_c, 0, 64, 0
2, 60192, Note_off_c, 0, 74, 0
2, 60208, Note_on_c, 0, 73, 54
2, 60216, Note_on_c, 0, 45, 67
2, 60232, Control_c, 0, 64, 40
2, 60240, Note_off_c, 0, 45, 0
2, 60240, Control_c, 0, 64, 88
2, 60252, Control_c, 0, 64, 127
2, 60284, Note_off_c, 0, 76, 0
2, 60312, Note_off_c, 0, 64, 0
2, 60324, Note_off_c, 0, 73, 0
2, 60336, Note_on_c, 0, 70, 56
2, 60408, Note_off_c, 0, 70, 0
2, 60440, Control_c, 0, 64, 72
2, 60452, Note_on_c, 0, 49, 67
2, 60452, Control_c, 0, 64, 0
2, 60488, Note_on_c, 0, 57, 60
2, 60496, Note_on_c, 0, 79, 105
2, 60504, Note_on_c, 0, 69, 83
2, 60504, Note_on_c, 0, 76, 67
2, 60508, Note_off_c, 0, 49, 0
2, 60516, Control_c, 0, 64, 24
2, 60528, Note_on_c, 0, 64, 55
2, 60528, Control_c, 0, 64, 88
2, 60540, Control_c, 0, 64, 127
2, 60556, Note_off_c, 0, 57, 0
2, 60584, Note_off_c, 0, 64, 0
2, 60604, Note_off_c, 0, 76, 0
2, 60620, Note_off_c, 0, 79, 0
2, 60620, Note_off_c, 0, 69, 0
2, 60648, Note_on_c, 0, 70, 64
2, 60748, Control_c, 0, 64, 104
2, 60760, Note_off_c, 0, 70, 0
2, 60760, Control_c, 0, 64, 56
2, 60772, Control_c, 0, 64, 0
2, 60780, Note_on_c, 0, 50, 58
2, 60800, Note_on_c, 0, 57, 70
2, 60824, Note_off_c, 0, 50, 0
2, 60836, Note_on_c, 0, 77, 110
2, 60848, Note_on_c, 0, 69, 70
2, 60848, Control_c, 0, 64, 56
2, 60852, Note_on_c, 0, 74, 74
2, 60856, Control_c, 0, 64, 127
2, 60860, Note_off_c, 0, 57, 0
2, 60860, Note_on_c, 0, 65, 69
2, 60916, Note_off_c, 0, 65, 0
2, 60920, Note_off_c, 0, 69, 0
2, 60936, Note_off_c, 0, 74, 0
2, 60940, Note_off_c, 0, 77, 0
2, 61340, Note_on_c, 0, 70, 92
2, 61340, Control_c, 0, 64, 56
2, 61344, Note_on_c, 0, 58, 65
2, 61352, Control_c, 0, 64, 0
2, 61360, Note_on_c, 0, 45, 71
2, 61360, Note_on_c, 0, 33, 73
2, 61392, Control_c, 0, 64, 24
2, 61404, Control_c, 0, 64, 88
2, 61416, Control_c, 0, 64, 127
2, 61428, Note_off_c, 0, 58, 0
2, 61440, Note_off_c, 0, 70, 0
2, 61512, Note_on_c, 0, 69, 70
2, 61512, Note_on_c, 0, 65, 59
2, 61528, Note_off_c, 0, 33, 0
2, 61564, Note_off_c, 0, 45, 0
2, 61576, Note_off_c, 0, 69, 0
2, 61576, Note_off_c, 0, 65, 0
2, 61632, Note_on_c, 0, 64, 51
2, 61636, Note_on_c, 0, 67, 68
2, 61676, Note_off_c, 0, 64, 0
2, 61716, Note_off_c, 0, 67, 0
2, 61764, Note_on_c, 0, 69, 70
2, 61772, Note_on_c, 0, 65, 60
2, 61828, Note_off_c, 0, 65, 0
2, 61884, Note_off_c, 0, 69, 0
2, 61908, Note_on_c, 0, 70, 72
2, 61912, Control_c, 0, 64, 104
2, 61920, Note_on_c, 0, 61, 58
2, 61920, Control_c, 0, 64, 56
2, 61924, Note_on_c, 0, 64, 55
2, 61928, Note_on_c, 0, 55, 62
2, 61932, Control_c, 0, 64, 24
2, 61976, Control_c, 0, 64, 72
2, 61988, Control_c, 0, 64, 104
2, 61996, Control_c, 0, 64, 127
2, 62004, Note_off_c, 0, 70, 0
2, 62016, Note_off_c, 0, 64, 0
2, 62044, Note_on_c, 0, 67, 68
2, 62052, Note_off_c, 0, 61, 0
2, 62060, Note_off_c, 0, 55, 0
2, 62084, Note_off_c, 0, 67, 0
2, 62184, Note_on_c, 0, 57, 72
2, 62276, Note_off_c, 0, 57, 0
2, 62304, Note_on_c, 0, 58, 71
2, 62360, Note_off_c, 0, 58, 0
2, 62460, Control_c, 0, 64, 88
2, 62468, Note_on_c, 0, 57, 83
2, 62468, Note_on_c, 0, 69, 94
2, 62468, Control_c, 0, 64, 24
2, 62480, Control_c, 0, 64, 0
2, 62484, Note_on_c, 0, 45, 71
2, 62484, Note_on_c, 0, 33, 59
2, 62536, Control_c, 0, 64, 40
2, 62548, Control_c, 0, 64, 104
2, 62552, Note_off_c, 0, 57, 0
2, 62556, Control_c, 0, 64, 127
2, 62584, Note_off_c, 0, 69, 0
2, 62616, Note_on_c, 0, 67, 70
2, 62628, Note_on_c, 0, 64, 61
2, 62692, Note_off_c, 0, 33, 0
2, 62708, Note_off_c, 0, 45, 0
2, 62708, Note_off_c, 0, 67, 0
2, 62712, Note_off_c, 0, 64, 0
2, 62764, Note_on_c, 0, 65, 69
2, 62768, Note_on_c, 0, 62, 47
2, 62848, Note_off_c, 0, 65, 0
2, 62852, Note_off_c, 0, 62, 0
2, 62884, Note_on_c, 0, 67, 70
2, 62900, Note_on_c, 0, 64, 49
2, 62928, Note_off_c, 0, 64, 0
2, 62940, Note_off_c, 0, 67, 0
2, 63016, Note_on_c, 0, 70, 72
2, 63020, Note_on_c, 0, 57, 68
2, 63020, Control_c, 0, 64, 104
2, 63028, Note_on_c, 0, 62, 58
2, 63028, Note_on_c, 0, 53, 55
2, 63052, Control_c, 0, 64, 127
2, 63096, Note_off_c, 0, 70, 0
2, 63096, Note_off_c, 0, 62, 0
2, 63100, Note_off_c, 0, 57, 0
2, 63120, Note_off_c, 0, 53, 0
2, 63144, Note_on_c, 0, 69, 68
2, 63152, Note_on_c, 0, 65, 57
2, 63172, Note_off_c, 0, 65, 0
2, 63188, Note_off_c, 0, 69, 0
2, 63288, Note_on_c, 0, 55, 87
2, 63388, Note_off_c, 0, 55, 0
2, 63416, Note_on_c, 0, 57, 74
2, 63464, Note_off_c, 0, 57, 0
2, 63556, Control_c, 0, 64, 88
2, 63564, Note_on_c, 0, 55, 82
2, 63564, Note_on_c, 0, 67, 92
2, 63568, Control_c, 0, 64, 40
2, 63576, Control_c, 0, 64, 0
2, 63588, Note_on_c, 0, 33, 49
2, 63596, Note_on_c, 0, 45, 30
2, 63644, Control_c, 0, 64, 72
2, 63656, Control_c, 0, 64, 127
2, 63672, Note_off_c, 0, 55, 0
2, 63692, Note_off_c, 0, 67, 0
2, 63700, Note_on_c, 0, 65, 70
2, 63724, Note_on_c, 0, 62, 56
2, 63796, Note_off_c, 0, 65, 0
2, 63808, Note_off_c, 0, 62, 0
2, 63844, Note_on_c, 0, 61, 57
2, 63864, Note_on_c, 0, 64, 69
2, 63884, Note_off_c, 0, 33, 0
2, 63912, Note_off_c, 0, 45, 0
2, 63920, Note_off_c, 0, 61, 0
2, 63940, Note_off_c, 0, 64, 0
2, 63980, Note_on_c, 0, 62, 68
2, 64088, Note_off_c, 0, 62, 0
2, 64132, Note_on_c, 0, 67, 70
2, 64132, Note_on_c, 0, 61, 61
2, 64136, Control_c, 0, 64, 88
2, 64148, Note_on_c, 0, 58, 57
2, 64148, Control_c, 0, 64, 24
2, 64160, Control_c, 0, 64, 0
2, 64164, Note_on_c, 0, 52, 58
2, 64204, Control_c, 0, 64, 40
2, 64216, Control_c, 0, 64, 88
2, 64228, Control_c, 0, 64, 127
2, 64232, Note_off_c, 0, 67, 0
2, 64232, Note_off_c, 0, 61, 0
2, 64264, Note_off_c, 0, 58, 0
2, 64268, Note_on_c, 0, 64, 68
2, 64276, Note_off_c, 0, 52, 0
2, 64316, Note_off_c, 0, 64, 0
2, 64396, Note_on_c, 0, 53, 84
2, 64484, Note_off_c, 0, 53, 0
2, 64528, Note_on_c, 0, 55, 82
2, 64580, Note_off_c, 0, 55, 0
2, 64692, Note_on_c, 0, 53, 68
2, 64692, Note_on_c, 0, 65, 91
2, 64696, Control_c, 0, 64, 104
2, 64708, Note_on_c, 0, 45, 61
2, 64708, Control_c, 0, 64, 72
2, 64716, Note_on_c, 0, 33, 45
2, 64720, Control_c, 0, 64, 0
2, 64808, Control_c, 0, 64, 40
2, 64820, Control_c, 0, 64, 104
2, 64828, Control_c, 0, 64, 127
2, 64832, Note_off_c, 0, 65, 0
2, 64832, Note_on_c, 0, 64, 74
2, 64836, Note_off_c, 0, 53, 0
2, 64844, Note_on_c, 0, 61, 55
2, 64904, Note_off_c, 0, 33, 0
2, 64932, Note_off_c, 0, 45, 0
2, 64952, Note_off_c, 0, 64, 0
2, 64956, Note_off_c, 0, 61, 0
2, 64988, Note_on_c, 0, 62, 72
2, 64996, Note_on_c, 0, 59, 60
2, 65092, Note_off_c, 0, 59, 0
2, 65096, Note_off_c, 0, 62, 0
2, 65120, Note_on_c, 0, 64, 74
2, 65124, Note_on_c, 0, 61, 63
2, 65188, Note_off_c, 0, 61, 0
2, 65256, Note_off_c, 0, 64, 0
2, 65276, Note_on_c, 0, 67, 77
2, 65284, Note_on_c, 0, 59, 58
2, 65288, Note_on_c, 0, 56, 53
2, 65324, Control_c, 0, 64, 104
2, 65336, Control_c, 0, 64, 56
2, 65344, Control_c, 0, 64, 0
2, 65416, Note_off_c, 0, 67, 0
2, 65424, Note_on_c, 0, 65, 74
2, 65432, Control_c, 0, 64, 72
2, 65436, Note_on_c, 0, 62, 63
2, 65444, Control_c, 0, 64, 127
2, 65500, Note_off_c, 0, 62, 0
2, 65612, Note_off_c, 0, 59, 0
2, 65616, Note_on_c, 0, 61, 72
2, 65620, Control_c, 0, 64, 104
2, 65628, Note_on_c, 0, 45, 69
2, 65632, Note_off_c, 0, 56, 0
2, 65632, Control_c, 0, 64, 72
2, 65640, Control_c, 0, 64, 40
2, 65652, Control_c, 0, 64, 0
2, 65764, Control_c, 0, 64, 24
2, 65772, Note_off_c, 0, 61, 0
2, 65772, Control_c, 0, 64, 88
2, 65784, Note_on_c, 0, 64, 71
2, 65784, Control_c, 0, 64, 127
2, 65932, Note_on_c, 0, 58, 39
2, 65936, Note_off_c, 0, 64, 0
2, 65944, Note_on_c, 0, 55, 70
2, 65948, Control_c, 0, 64, 88
2, 65952, Note_on_c, 0, 52, 42
2, 65960, Control_c, 0, 64, 24
2, 65968, Control_c, 0, 64, 0
2, 66036, Control_c, 0, 64, 56
2, 66048, Control_c, 0, 64, 104
2, 66060, Control_c, 0, 64, 127
2, 66068, Note_off_c, 0, 65, 0
2, 66080, Note_on_c, 0, 62, 69
2, 66204, Note_off_c, 0, 62, 0
2, 66228, Note_on_c, 0, 65, 68
2, 66340, Note_off_c, 0, 65, 0
2, 66368, Note_on_c, 0, 64, 67
2, 66468, Note_off_c, 0, 64, 0
2, 66500, Note_on_c, 0, 61, 66
2, 66568, Note_off_c, 0, 45, 0
2, 66580, Note_off_c, 0, 55, 0
2, 66608, Note_off_c, 0, 61, 0
2, 66636, Note_on_c, 0, 64, 65
2, 66644, Note_off_c, 0, 58, 0
2, 66708, Note_off_c, 0, 52, 0
2, 66732, Note_off_c, 0, 64, 0
2, 66760, Control_c, 0, 64, 104
2, 66772, Control_c, 0, 64, 56
2, 66780, Note_on_c, 0, 45, 66
2, 66784, Note_on_c, 0, 57, 71
2, 66784, Control_c, 0, 64, 0
2, 66848, Control_c, 0, 64, 24
2, 66860, Control_c, 0, 64, 72
2, 66868, Control_c, 0, 64, 104
2, 66880, Control_c, 0, 64, 127
2, 66888, Note_off_c, 0, 57, 0
2, 66912, Note_on_c, 0, 58, 71
2, 67012, Note_off_c, 0, 58, 0
2, 67072, Note_on_c, 0, 55, 70
2, 67072, Note_on_c, 0, 58, 71
2, 67080, Note_off_c, 0, 45, 0
2, 67080, Note_on_c, 0, 52, 66
2, 67132, Control_c, 0, 64, 88
2, 67144, Control_c, 0, 64, 40
2, 67156, Control_c, 0, 64, 0
2, 67212, Note_on_c, 0, 62, 69
2, 67212, Control_c, 0, 64, 24
2, 67220, Control_c, 0, 64, 72
2, 67232, Control_c, 0, 64, 127
2, 67312, Note_off_c, 0, 55, 0
2, 67328, Note_off_c, 0, 62, 0
2, 67348, Note_on_c, 0, 65, 67
2, 67432, Note_off_c, 0, 65, 0
2, 67480, Note_on_c, 0, 64, 66
2, 67564, Note_off_c, 0, 64, 0
2, 67604, Note_on_c, 0, 61, 65
2, 67712, Note_off_c, 0, 61, 0
2, 67740, Note_on_c, 0, 64, 64
2, 67804, Note_off_c, 0, 58, 0
2, 67844, Note_off_c, 0, 52, 0
2, 67848, Note_off_c, 0, 64, 0
2, 67900, Note_on_c, 0, 57, 71
2, 67912, Control_c, 0, 64, 104
2, 67920, Note_on_c, 0, 45, 51
2, 67924, Control_c, 0, 64, 72
2, 67936, Control_c, 0, 64, 0
2, 68008, Note_off_c, 0, 57, 0
2, 68024, Note_on_c, 0, 58, 70
2, 68032, Control_c, 0, 64, 40
2, 68044, Control_c, 0, 64, 104
2, 68056, Control_c, 0, 64, 127
2, 68156, Note_off_c, 0, 58, 0
2, 68164, Control_c, 0, 64, 104
2, 68172, Note_on_c, 0, 55, 70
2, 68176, Control_c, 0, 64, 72
2, 68184, Note_on_c, 0, 58, 48
2, 68184, Control_c, 0, 64, 24
2, 68200, Note_on_c, 0, 52, 49
2, 68200, Control_c, 0, 64, 0
2, 68308, Note_on_c, 0, 62, 69
2, 68320, Control_c, 0, 64, 104
2, 68328, Control_c, 0, 64, 127
2, 68420, Note_off_c, 0, 62, 0
2, 68436, Note_on_c, 0, 65, 68
2, 68516, Note_off_c, 0, 65, 0
2, 68564, Note_on_c, 0, 64, 67
2, 68652, Note_off_c, 0, 64, 0
2, 68704, Note_on_c, 0, 61, 66
2, 68740, Note_off_c, 0, 45, 0
2, 68780, Note_off_c, 0, 55, 0
2, 68820, Note_off_c, 0, 61, 0
2, 68836, Note_on_c, 0, 64, 65
2, 68888, Note_off_c, 0, 58, 0
2, 68924, Note_off_c, 0, 64, 0
2, 68940, Note_off_c, 0, 52, 0
2, 68996, Note_on_c, 0, 57, 71
2, 69004, Note_on_c, 0, 45, 52
2, 69012, Control_c, 0, 64, 72
2, 69020, Control_c, 0, 64, 0
2, 69120, Note_off_c, 0, 57, 0
2, 69120, Control_c, 0, 64, 72
2, 69128, Note_on_c, 0, 58, 71
2, 69132, Control_c, 0, 64, 127
2, 69236, Note_off_c, 0, 58, 0
2, 69268, Note_on_c, 0, 55, 70
2, 69268, Note_on_c, 0, 58, 43
2, 69284, Note_on_c, 0, 52, 55
2, 69296, Control_c, 0, 64, 88
2, 69308, Control_c, 0, 64, 24
2, 69316, Control_c, 0, 64, 0
2, 69396, Note_on_c, 0, 62, 69
2, 69396, Control_c, 0, 64, 40
2, 69408, Control_c, 0, 64, 104
2, 69416, Control_c, 0, 64, 127
2, 69464, Note_off_c, 0, 55, 0
2, 69508, Note_off_c, 0, 62, 0
2, 69528, Note_on_c, 0, 65, 68
2, 69612, Note_off_c, 0, 65, 0
2, 69660, Note_on_c, 0, 64, 68
2, 69752, Note_off_c, 0, 64, 0
2, 69796, Note_on_c, 0, 61, 67
2, 69884, Note_off_c, 0, 45, 0
2, 69928, Note_off_c, 0, 61, 0
2, 69928, Note_on_c, 0, 64, 66
2, 69952, Note_off_c, 0, 58, 0
2, 69960, Note_off_c, 0, 52, 0
2, 70084, Note_on_c, 0, 57, 70
2, 70084, Control_c, 0, 64, 88
2, 70088, Note_on_c, 0, 45, 56
2, 70096, Control_c, 0, 64, 40
2, 70108, Control_c, 0, 64, 0
2, 70172, Control_c, 0, 64, 56
2, 70180, Note_off_c, 0, 64, 0
2, 70180, Note_off_c, 0, 57, 0
2, 70184, Control_c, 0, 64, 104
2, 70196, Control_c, 0, 64, 127
2, 70208, Note_on_c, 0, 58, 70
2, 70296, Note_off_c, 0, 58, 0
2, 70344, Note_on_c, 0, 55, 70
2, 70348, Control_c, 0, 64, 88
2, 70352, Note_on_c, 0, 58, 50
2, 70360, Control_c, 0, 64, 40
2, 70364, Note_on_c, 0, 52, 50
2, 70372, Control_c, 0, 64, 0
2, 70416, Control_c, 0, 64, 40
2, 70424, Control_c, 0, 64, 88
2, 70436, Control_c, 0, 64, 127
2, 70476, Note_on_c, 0, 62, 70
2, 70532, Note_off_c, 0, 55, 0
2, 70576, Note_off_c, 0, 62, 0
2, 70604, Note_on_c, 0, 65, 68
2, 70696, Note_off_c, 0, 58, 0
2, 70696, Note_off_c, 0, 65, 0
2, 70728, Note_on_c, 0, 64, 66
2, 70792, Note_off_c, 0, 64, 0
2, 70872, Note_on_c, 0, 57, 49
2, 70876, Note_on_c, 0, 61, 75
2, 70880, Note_off_c, 0, 45, 0
2, 70952, Control_c, 0, 64, 104
2, 70964, Control_c, 0, 64, 56
2, 70976, Control_c, 0, 64, 0
2, 71000, Note_on_c, 0, 65, 64
2, 71024, Note_off_c, 0, 61, 0
2, 71040, Control_c, 0, 64, 40
2, 71048, Control_c, 0, 64, 88
2, 71064, Control_c, 0, 64, 127
2, 71120, Note_off_c, 0, 65, 0
2, 71140, Note_on_c, 0, 69, 65
2, 71252, Note_off_c, 0, 69, 0
2, 71272, Note_on_c, 0, 67, 66
2, 71380, Note_off_c, 0, 67, 0
2, 71408, Note_on_c, 0, 64, 67
2, 71436, Control_c, 0, 64, 104
2, 71444, Control_c, 0, 64, 72
2, 71456, Control_c, 0, 64, 40
2, 71488, Control_c, 0, 64, 104
2, 71504, Control_c, 0, 64, 127
2, 71544, Note_off_c, 0, 64, 0
2, 71544, Note_on_c, 0, 69, 68
2, 71664, Note_off_c, 0, 69, 0
2, 71676, Note_on_c, 0, 72, 69
2, 71700, Control_c, 0, 64, 88
2, 71708, Control_c, 0, 64, 56
2, 71720, Control_c, 0, 64, 24
2, 71756, Control_c, 0, 64, 88
2, 71764, Control_c, 0, 64, 127
2, 71808, Note_on_c, 0, 70, 70
2, 71816, Note_off_c, 0, 72, 0
2, 71864, Note_off_c, 0, 57, 0
2, 71896, Note_off_c, 0, 52, 0
2, 71916, Note_off_c, 0, 70, 0
2, 71944, Note_on_c, 0, 67, 71
2, 72044, Note_off_c, 0, 67, 0
2, 72076, Note_on_c, 0, 74, 72
2, 72208, Note_off_c, 0, 74, 0
2, 72212, Note_on_c, 0, 77, 73
2, 72228, Note_on_c, 0, 33, 68
2, 72256, Control_c, 0, 64, 88
2, 72268, Control_c, 0, 64, 40
2, 72280, Control_c, 0, 64, 0
2, 72352, Note_off_c, 0, 77, 0
2, 72352, Note_on_c, 0, 76, 74
2, 72356, Control_c, 0, 64, 40
2, 72368, Control_c, 0, 64, 104
2, 72380, Control_c, 0, 64, 127
2, 72464, Note_off_c, 0, 76, 0
2, 72480, Note_on_c, 0, 73, 75
2, 72584, Note_off_c, 0, 73, 0
2, 72612, Note_on_c, 0, 77, 76
2, 72740, Note_off_c, 0, 77, 0
2, 72752, Note_on_c, 0, 81, 77
2, 72880, Note_off_c, 0, 81, 0
2, 72884, Note_on_c, 0, 79, 78
2, 72960, Note_off_c, 0, 33, 0
2, 73012, Note_off_c, 0, 79, 0
2, 73036, Note_on_c, 0, 76, 79
2, 73152, Note_on_c, 0, 81, 80
2, 73192, Note_off_c, 0, 76, 0
2, 73288, Note_on_c, 0, 84, 81
2, 73320, Note_off_c, 0, 81, 0
2, 73416, Note_on_c, 0, 82, 82
2, 73420, Note_off_c, 0, 84, 0
2, 73540, Note_off_c, 0, 82, 0
2, 73552, Note_on_c, 0, 64, 76
2, 73560, Note_on_c, 0, 79, 83
2, 73652, Note_off_c, 0, 79, 0
2, 73696, Note_on_c, 0, 86, 84
2, 73824, Note_off_c, 0, 86, 0
2, 73832, Note_on_c, 0, 89, 85
2, 73844, Note_on_c, 0, 69, 67
2, 73944, Note_off_c, 0, 89, 0
2, 73964, Note_on_c, 0, 88, 86
2, 74068, Note_off_c, 0, 88, 0
2, 74092, Note_on_c, 0, 85, 87
2, 74112, Note_on_c, 0, 73, 60
2, 74136, Note_off_c, 0, 64, 0
2, 74196, Note_off_c, 0, 85, 0
2, 74224, Note_on_c, 0, 89, 88
2, 74352, Note_off_c, 0, 89, 0
2, 74368, Note_on_c, 0, 93, 89
2, 74376, Note_on_c, 0, 79, 59
2, 74476, Note_off_c, 0, 93, 0
2, 74500, Note_on_c, 0, 91, 90
2, 74616, Note_off_c, 0, 91, 0
2, 74644, Note_on_c, 0, 88, 91
2, 74776, Note_on_c, 0, 93, 92
2, 74920, Note_off_c, 0, 93, 0
2, 74952, Note_on_c, 0, 96, 93
2, 75068, Note_off_c, 0, 96, 0
2, 75096, Note_off_c, 0, 69, 0
2, 75096, Note_off_c, 0, 79, 0
2, 75100, Note_on_c, 0, 95, 92
2, 75144, Note_off_c, 0, 73, 0
2, 75164, Note_off_c, 0, 88, 0
2, 75200, Note_off_c, 0, 95, 0
2, 75236, Note_on_c, 0, 94, 91
2, 75348, Note_off_c, 0, 94, 0
2, 75368, Note_on_c, 0, 91, 90
2, 75500, Note_off_c, 0, 91, 0
2, 75512, Note_on_c, 0, 88, 89
2, 75576, Note_off_c, 0, 88, 0
2, 75660, Note_on_c, 0, 84, 88
2, 75724, Note_off_c, 0, 84, 0
2, 75788, Note_on_c, 0, 83, 87
2, 75896, Note_off_c, 0, 83, 0
2, 75924, Note_on_c, 0, 82, 86
2, 76036, Note_off_c, 0, 82, 0
2, 76064, Note_on_c, 0, 79, 85
2, 76204, Note_off_c, 0, 79, 0
2, 76212, Note_on_c, 0, 76, 84
2, 76268, Note_off_c, 0, 76, 0
2, 76368, Note_on_c, 0, 72, 83
2, 76428, Note_off_c, 0, 72, 0
2, 76492, Note_on_c, 0, 71, 82
2, 76612, Note_off_c, 0, 71, 0
2, 76640, Note_on_c, 0, 70, 81
2, 76648, Control_c, 0, 64, 104
2, 76660, Control_c, 0, 64, 56
2, 76668, Control_c, 0, 64, 0
2, 76724, Control_c, 0, 64, 56
2, 76736, Control_c, 0, 64, 104
2, 76744, Control_c, 0, 64, 127
2, 76756, Note_off_c, 0, 70, 0
2, 76772, Note_on_c, 0, 67, 80
2, 76868, Note_off_c, 0, 67, 0
2, 76908, Note_on_c, 0, 64, 79
2, 77004, Note_off_c, 0, 64, 0
2, 77036, Note_on_c, 0, 61, 78
2, 77144, Note_off_c, 0, 61, 0
2, 77176, Note_on_c, 0, 60, 77
2, 77196, Control_c, 0, 64, 88
2, 77208, Control_c, 0, 64, 40
2, 77216, Control_c, 0, 64, 0
2, 77292, Control_c, 0, 64, 40
2, 77304, Note_off_c, 0, 60, 0
2, 77308, Control_c, 0, 64, 88
2, 77316, Control_c, 0, 64, 127
2, 77328, Note_on_c, 0, 59, 76
2, 77444, Note_off_c, 0, 59, 0
2, 77464, Note_on_c, 0, 58, 75
2, 77572, Note_off_c, 0, 58, 0
2, 77596, Note_on_c, 0, 57, 74
2, 77720, Note_off_c, 0, 57, 0
2, 77744, Control_c, 0, 64, 104
2, 77748, Note_on_c, 0, 56, 73
2, 77756, Control_c, 0, 64, 56
2, 77764, Control_c, 0, 64, 0
2, 77832, Control_c, 0, 64, 56
2, 77844, Control_c, 0, 64, 104
2, 77852, Control_c, 0, 64, 127
2, 77856, Note_off_c, 0, 56, 0
2, 77880, Note_on_c, 0, 55, 73
2, 77972, Note_off_c, 0, 55, 0
2, 78032, Note_on_c, 0, 52, 72
2, 78152, Note_off_c, 0, 52, 0
2, 78192, Note_on_c, 0, 49, 71
2, 78340, Note_off_c, 0, 49, 0
2, 78356, Note_on_c, 0, 47, 70
2, 78368, Control_c, 0, 64, 88
2, 78380, Control_c, 0, 64, 40
2, 78392, Control_c, 0, 64, 0
2, 78448, Control_c, 0, 64, 40
2, 78460, Control_c, 0, 64, 88
2, 78468, Control_c, 0, 64, 127
2, 78524, Note_off_c, 0, 47, 0
2, 78524, Control_c, 0, 64, 104
2, 78536, Control_c, 0, 64, 72
2, 78544, Note_on_c, 0, 44, 65
2, 78544, Control_c, 0, 64, 24
2, 78556, Control_c, 0, 64, 0
2, 78612, Control_c, 0, 64, 56
2, 78620, Control_c, 0, 64, 104
2, 78632, Control_c, 0, 64, 127
2, 78752, Note_off_c, 0, 44, 0
2, 78764, Control_c, 0, 64, 88
2, 78772, Control_c, 0, 64, 24
2, 78776, Note_on_c, 0, 47, 61
2, 78788, Control_c, 0, 64, 0
2, 78852, Control_c, 0, 64, 56
2, 78864, Control_c, 0, 64, 104
2, 78872, Control_c, 0, 64, 127
2, 78968, Note_off_c, 0, 47, 0
2, 78996, Control_c, 0, 64, 104
2, 79008, Control_c, 0, 64, 88
2, 79016, Control_c, 0, 64, 56
2, 79028, Control_c, 0, 64, 24
2, 79036, Control_c, 0, 64, 0
2, 79048, Note_on_c, 0, 45, 57
2, 79388, Note_on_c, 0, 38, 56
2, 79404, Note_off_c, 0, 45, 0
2, 79476, Control_c, 0, 64, 72
2, 79488, Control_c, 0, 64, 127
2, 79524, Note_off_c, 0, 38, 0
2, 79656, Note_on_c, 0, 54, 59
2, 79788, Note_off_c, 0, 54, 0
2, 79816, Note_on_c, 0, 62, 59
2, 79904, Note_off_c, 0, 62, 0
2, 80004, Note_on_c, 0, 78, 91
2, 80028, Note_on_c, 0, 57, 61
2, 80184, Note_off_c, 0, 57, 0
2, 80184, Note_on_c, 0, 54, 56
2, 80308, Note_off_c, 0, 54, 0
2, 80340, Note_on_c, 0, 66, 57
2, 80364, Note_off_c, 0, 66, 0
2, 80532, Control_c, 0, 64, 72
2, 80544, Control_c, 0, 64, 0
2, 80548, Note_on_c, 0, 45, 60
2, 80608, Control_c, 0, 64, 56
2, 80620, Control_c, 0, 64, 127
2, 80680, Note_off_c, 0, 45, 0
2, 80704, Note_on_c, 0, 54, 56
2, 80820, Note_off_c, 0, 54, 0
2, 80848, Note_on_c, 0, 62, 69
2, 80944, Note_off_c, 0, 62, 0
2, 80980, Note_off_c, 0, 78, 0
2, 81004, Note_on_c, 0, 79, 90
2, 81028, Note_on_c, 0, 57, 55
2, 81180, Note_on_c, 0, 54, 51
2, 81256, Note_on_c, 0, 78, 89
2, 81260, Note_off_c, 0, 57, 0
2, 81292, Note_off_c, 0, 79, 0
2, 81360, Note_off_c, 0, 54, 0
2, 81360, Note_on_c, 0, 66, 56
2, 81416, Note_off_c, 0, 66, 0
2, 81536, Note_off_c, 0, 78, 0
2, 81536, Note_on_c, 0, 76, 91
2, 81536, Note_on_c, 0, 50, 55
2, 81608, Control_c, 0, 64, 104
2, 81624, Control_c, 0, 64, 72
2, 81636, Control_c, 0, 64, 24
2, 81648, Control_c, 0, 64, 0
2, 81704, Note_off_c, 0, 50, 0
2, 81712, Note_on_c, 0, 54, 48
2, 81728, Control_c, 0, 64, 40
2, 81740, Control_c, 0, 64, 104
2, 81756, Control_c, 0, 64, 127
2, 81848, Note_on_c, 0, 62, 58
2, 81892, Note_off_c, 0, 54, 0
2, 81948, Note_off_c, 0, 62, 0
2, 82028, Note_on_c, 0, 74, 75
2, 82040, Note_on_c, 0, 57, 46
2, 82048, Note_off_c, 0, 76, 0
2, 82180, Note_off_c, 0, 57, 0
2, 82196, Note_on_c, 0, 54, 36
2, 82324, Note_off_c, 0, 54, 0
2, 82332, Note_on_c, 0, 66, 59
2, 82360, Note_off_c, 0, 66, 0
2, 82508, Note_on_c, 0, 45, 62
2, 82544, Control_c, 0, 64, 88
2, 82556, Control_c, 0, 64, 40
2, 82572, Control_c, 0, 64, 0
2, 82632, Note_off_c, 0, 45, 0
2, 82636, Control_c, 0, 64, 56
2, 82648, Control_c, 0, 64, 127
2, 82668, Note_on_c, 0, 54, 50
2, 82768, Note_off_c, 0, 54, 0
2, 82808, Note_on_c, 0, 62, 52
2, 82904, Note_off_c, 0, 62, 0
2, 82956, Note_off_c, 0, 74, 0
2, 82964, Note_on_c, 0, 66, 79
2, 82992, Note_on_c, 0, 57, 45
2, 83136, Note_on_c, 0, 54, 37
2, 83168, Note_off_c, 0, 66, 0
2, 83220, Note_on_c, 0, 73, 86
2, 83248, Note_off_c, 0, 57, 0
2, 83328, Note_on_c, 0, 66, 34
2, 83340, Note_off_c, 0, 54, 0
2, 83352, Note_off_c, 0, 66, 0
2, 83504, Note_on_c, 0, 71, 83
2, 83504, Note_on_c, 0, 38, 57
2, 83520, Note_off_c, 0, 73, 0
2, 83572, Control_c, 0, 64, 104
2, 83584, Control_c, 0, 64, 40
2, 83596, Control_c, 0, 64, 0
2, 83612, Note_off_c, 0, 38, 0
2, 83664, Control_c, 0, 64, 104
2, 83680, Control_c, 0, 64, 127
2, 83740, Note_on_c, 0, 54, 57
2, 83796, Note_on_c, 0, 69, 80
2, 83824, Note_off_c, 0, 71, 0
2, 83908, Note_off_c, 0, 54, 0
2, 83956, Note_on_c, 0, 62, 62
2, 83972, Note_off_c, 0, 69, 0
2, 84044, Note_off_c, 0, 62, 0
2, 84064, Note_on_c, 0, 73, 83
2, 84124, Note_on_c, 0, 57, 59
2, 84236, Note_off_c, 0, 57, 0
2, 84244, Note_off_c, 0, 73, 0
2, 84248, Note_on_c, 0, 54, 49
2, 84312, Note_on_c, 0, 74, 86
2, 84356, Note_off_c, 0, 54, 0
2, 84380, Note_on_c, 0, 66, 53
2, 84432, Note_off_c, 0, 66, 0
2, 84512, Note_off_c, 0, 74, 0
2, 84556, Note_on_c, 0, 50, 61
2, 84556, Note_on_c, 0, 77, 91
2, 84664, Note_off_c, 0, 50, 0
2, 84672, Note_on_c, 0, 54, 62
2, 84728, Note_off_c, 0, 77, 0
2, 84792, Note_on_c, 0, 78, 94
2, 84796, Note_off_c, 0, 54, 0
2, 84840, Note_on_c, 0, 62, 62
2, 84944, Note_off_c, 0, 78, 0
2, 85052, Note_on_c, 0, 83, 95
2, 85052, Note_on_c, 0, 59, 63
2, 85072, Note_off_c, 0, 62, 0
2, 85100, Control_c, 0, 64, 104
2, 85112, Control_c, 0, 64, 56
2, 85124, Control_c, 0, 64, 0
2, 85184, Note_on_c, 0, 54, 59
2, 85208, Control_c, 0, 64, 40
2, 85220, Control_c, 0, 64, 127
2, 85348, Note_off_c, 0, 59, 0
2, 85396, Note_on_c, 0, 66, 58
2, 85456, Note_off_c, 0, 66, 0
2, 85500, Note_off_c, 0, 54, 0
2, 85532, Note_on_c, 0, 81, 83
2, 85556, Note_off_c, 0, 83, 0
2, 85664, Note_off_c, 0, 81, 0
2, 85720, Note_on_c, 0, 81, 88
2, 85756, Note_on_c, 0, 40, 61
2, 85784, Control_c, 0, 64, 104
2, 85796, Control_c, 0, 64, 24
2, 85808, Control_c, 0, 64, 0
2, 85864, Control_c, 0, 64, 56
2, 85876, Note_off_c, 0, 40, 0
2, 85876, Control_c, 0, 64, 127
2, 85984, Note_on_c, 0, 55, 50
2, 86096, Note_off_c, 0, 55, 0
2, 86132, Note_on_c, 0, 64, 48
2, 86232, Note_off_c, 0, 64, 0
2, 86264, Note_on_c, 0, 59, 68
2, 86404, Note_on_c, 0, 55, 62
2, 86492, Note_off_c, 0, 59, 0
2, 86516, Note_off_c, 0, 55, 0
2, 86540, Note_on_c, 0, 67, 44
2, 86604, Note_off_c, 0, 67, 0
2, 86704, Note_on_c, 0, 79, 77
2, 86744, Note_on_c, 0, 52, 31
2, 86756, Note_off_c, 0, 81, 0
2, 86848, Note_off_c, 0, 52, 0
2, 86868, Note_on_c, 0, 55, 58
2, 86968, Note_off_c, 0, 55, 0
2, 87004, Note_on_c, 0, 64, 56
2, 87176, Note_on_c, 0, 60, 65
2, 87180, Note_off_c, 0, 64, 0
2, 87284, Control_c, 0, 64, 40
2, 87300, Control_c, 0, 64, 0
2, 87352, Note_on_c, 0, 55, 60
2, 87352, Control_c, 0, 64, 56
2, 87364, Control_c, 0, 64, 127
2, 87568, Note_on_c, 0, 67, 42
2, 87632, Note_off_c, 0, 67, 0
2, 87648, Note_off_c, 0, 55, 0
2, 87648, Note_off_c, 0, 79, 0
2, 87652, Note_off_c, 0, 60, 0
2, 87864, Note_on_c, 0, 79, 94
2, 87892, Note_on_c, 0, 40, 58
2, 87904, Control_c, 0, 64, 72
2, 87916, Control_c, 0, 64, 0
2, 87964, Note_off_c, 0, 40, 0
2, 87968, Control_c, 0, 64, 40
2, 87984, Control_c, 0, 64, 127
2, 88096, Note_on_c, 0, 55, 64
2, 88196, Note_off_c, 0, 55, 0
2, 88240, Note_on_c, 0, 64, 42
2, 88352, Note_off_c, 0, 64, 0
2, 88368, Note_on_c, 0, 61, 52
2, 88532, Note_off_c, 0, 61, 0
2, 88532, Note_on_c, 0, 55, 58
2, 88640, Note_off_c, 0, 55, 0
2, 88664, Note_on_c, 0, 67, 57
2, 88724, Note_off_c, 0, 67, 0
2, 88812, Note_on_c, 0, 78, 84
2, 88836, Note_off_c, 0, 79, 0
2, 88896, Note_on_c, 0, 49, 55
2, 88932, Control_c, 0, 64, 72
2, 88944, Control_c, 0, 64, 0
2, 88996, Note_on_c, 0, 55, 53
2, 89008, Control_c, 0, 64, 40
2, 89024, Control_c, 0, 64, 127
2, 89040, Note_off_c, 0, 49, 0
2, 89068, Note_on_c, 0, 75, 91
2, 89100, Note_off_c, 0, 78, 0
2, 89144, Note_off_c, 0, 55, 0
2, 89172, Note_on_c, 0, 64, 52
2, 89272, Note_off_c, 0, 75, 0
2, 89280, Note_on_c, 0, 78, 86
2, 89292, Note_off_c, 0, 64, 0
2, 89296, Note_on_c, 0, 61, 44
2, 89424, Note_off_c, 0, 61, 0
2, 89452, Note_on_c, 0, 55, 58
2, 89456, Note_off_c, 0, 78, 0
2, 89484, Note_on_c, 0, 76, 95
2, 89580, Note_off_c, 0, 55, 0
2, 89596, Note_on_c, 0, 67, 64
2, 89604, Note_off_c, 0, 76, 0
2, 89640, Note_off_c, 0, 67, 0
2, 89740, Note_on_c, 0, 76, 90
2, 89796, Note_on_c, 0, 52, 55
2, 89828, Control_c, 0, 64, 104
2, 89840, Control_c, 0, 64, 40
2, 89852, Control_c, 0, 64, 0
2, 89920, Note_on_c, 0, 55, 60
2, 89920, Control_c, 0, 64, 40
2, 89928, Note_off_c, 0, 52, 0
2, 89932, Control_c, 0, 64, 127
2, 90012, Note_off_c, 0, 55, 0
2, 90040, Note_on_c, 0, 64, 64
2, 90124, Note_off_c, 0, 64, 0
2, 90176, Note_on_c, 0, 67, 72
2, 90188, Note_on_c, 0, 61, 51
2, 90304, Note_off_c, 0, 61, 0
2, 90320, Note_off_c, 0, 67, 0
2, 90336, Note_on_c, 0, 55, 64
2, 90420, Note_off_c, 0, 55, 0
2, 90468, Note_on_c, 0, 67, 58
2, 90496, Note_off_c, 0, 67, 0
2, 90620, Note_on_c, 0, 49, 62
2, 90644, Control_c, 0, 64, 104
2, 90656, Control_c, 0, 64, 72
2, 90684, Control_c, 0, 64, 104
2, 90696, Control_c, 0, 64, 127
2, 90748, Note_off_c, 0, 49, 0
2, 90772, Note_on_c, 0, 55, 52
2, 90860, Note_off_c, 0, 55, 0
2, 90900, Note_on_c, 0, 64, 57
2, 91028, Note_off_c, 0, 64, 0
2, 91052, Note_on_c, 0, 71, 80
2, 91068, Note_off_c, 0, 76, 0
2, 91080, Note_on_c, 0, 61, 44
2, 91244, Note_on_c, 0, 55, 61
2, 91328, Note_off_c, 0, 55, 0
2, 91364, Note_on_c, 0, 67, 49
2, 91388, Note_off_c, 0, 61, 0
2, 91392, Note_off_c, 0, 67, 0
2, 91420, Note_off_c, 0, 71, 0
2, 91508, Note_on_c, 0, 73, 80
2, 91632, Note_off_c, 0, 73, 0
2, 91640, Note_on_c, 0, 71, 80
2, 91652, Note_on_c, 0, 40, 58
2, 91680, Control_c, 0, 64, 72
2, 91696, Control_c, 0, 64, 0
2, 91740, Note_off_c, 0, 40, 0
2, 91748, Control_c, 0, 64, 56
2, 91764, Control_c, 0, 64, 127
2, 91848, Note_on_c, 0, 55, 70
2, 91928, Note_off_c, 0, 71, 0
2, 91940, Note_on_c, 0, 69, 94
2, 91996, Note_off_c, 0, 55, 0
2, 92024, Note_on_c, 0, 64, 56
2, 92104, Note_off_c, 0, 69, 0
2, 92132, Note_off_c, 0, 64, 0
2, 92144, Note_on_c, 0, 73, 93
2, 92152, Note_on_c, 0, 61, 55
2, 92308, Note_off_c, 0, 61, 0
2, 92316, Note_on_c, 0, 55, 60
2, 92336, Note_off_c, 0, 73, 0
2, 92348, Note_on_c, 0, 74, 103
2, 92396, Note_off_c, 0, 55, 0
2, 92400, Note_on_c, 0, 67, 56
2, 92448, Note_off_c, 0, 67, 0
2, 92536, Note_off_c, 0, 74, 0
2, 92556, Note_on_c, 0, 76, 101
2, 92608, Note_on_c, 0, 52, 63
2, 92632, Control_c, 0, 64, 40
2, 92644, Control_c, 0, 64, 0
2, 92700, Control_c, 0, 64, 88
2, 92712, Control_c, 0, 64, 127
2, 92728, Note_off_c, 0, 52, 0
2, 92736, Note_off_c, 0, 76, 0
2, 92736, Note_on_c, 0, 55, 52
2, 92772, Note_on_c, 0, 79, 105
2, 92828, Note_off_c, 0, 55, 0
2, 92844, Note_on_c, 0, 64, 60
2, 92888, Note_off_c, 0, 79, 0
2, 92968, Note_off_c, 0, 64, 0
2, 92976, Note_on_c, 0, 61, 46
2, 93008, Note_on_c, 0, 85, 101
2, 93120, Note_on_c, 0, 55, 64
2, 93140, Note_off_c, 0, 61, 0
2, 93204, Note_off_c, 0, 85, 0
2, 93256, Note_off_c, 0, 55, 0
2, 93272, Note_on_c, 0, 67, 63
2, 93308, Note_off_c, 0, 67, 0
2, 93412, Note_on_c, 0, 83, 94
2, 93520, Note_off_c, 0, 83, 0
2, 93548, Note_on_c, 0, 80, 85
2, 93568, Note_on_c, 0, 53, 63
2, 93648, Control_c, 0, 64, 40
2, 93660, Control_c, 0, 64, 0
2, 93708, Note_on_c, 0, 59, 50
2, 93736, Control_c, 0, 64, 88
2, 93752, Control_c, 0, 64, 127
2, 93824, Note_off_c, 0, 53, 0
2, 93840, Note_off_c, 0, 59, 0
2, 93852, Note_on_c, 0, 68, 68
2, 94000, Note_on_c, 0, 62, 60
2, 94096, Note_off_c, 0, 62, 0
2, 94140, Note_on_c, 0, 59, 49
2, 94212, Note_off_c, 0, 59, 0
2, 94216, Note_off_c, 0, 68, 0
2, 94296, Note_off_c, 0, 80, 0
2, 94300, Note_on_c, 0, 74, 67
2, 94500, Note_on_c, 0, 54, 55
2, 94544, Note_on_c, 0, 81, 85
2, 94556, Control_c, 0, 64, 104
2, 94568, Control_c, 0, 64, 0
2, 94672, Control_c, 0, 64, 127
2, 94688, Note_on_c, 0, 57, 40
2, 94696, Note_off_c, 0, 54, 0
2, 94784, Note_off_c, 0, 57, 0
2, 94844, Note_on_c, 0, 69, 57
2, 94964, Note_off_c, 0, 69, 0
2, 95016, Note_off_c, 0, 81, 0
2, 95024, Note_on_c, 0, 79, 82
2, 95040, Note_on_c, 0, 62, 50
2, 95180, Note_off_c, 0, 62, 0
2, 95220, Note_on_c, 0, 57, 47
2, 95380, Note_off_c, 0, 57, 0
2, 95404, Note_on_c, 0, 69, 49
2, 95476, Note_off_c, 0, 69, 0
2, 95484, Note_on_c, 0, 78, 79
2, 95488, Note_off_c, 0, 79, 0
2, 95552, Note_off_c, 0, 74, 0
2, 95552, Note_off_c, 0, 78, 0
2, 95664, Note_on_c, 0, 78, 82
2, 95696, Note_on_c, 0, 54, 50
2, 95740, Control_c, 0, 64, 104
2, 95756, Control_c, 0, 64, 24
2, 95764, Control_c, 0, 64, 0
2, 95832, Control_c, 0, 64, 40
2, 95844, Control_c, 0, 64, 127
2, 95848, Note_on_c, 0, 61, 51
2, 95852, Note_off_c, 0, 54, 0
2, 95992, Note_off_c, 0, 61, 0
2, 96004, Note_on_c, 0, 70, 47
2, 96116, Note_off_c, 0, 70, 0
2, 96168, Note_on_c, 0, 64, 45
2, 96288, Note_on_c, 0, 61, 41
2, 96296, Note_off_c, 0, 64, 0
2, 96352, Note_on_c, 0, 76, 81
2, 96368, Note_off_c, 0, 78, 0
2, 96440, Note_off_c, 0, 61, 0
2, 96456, Note_on_c, 0, 70, 56
2, 96568, Note_off_c, 0, 70, 0
2, 96624, Note_on_c, 0, 74, 78
2, 96644, Note_off_c, 0, 76, 0
2, 96664, Note_on_c, 0, 59, 58
2, 96740, Control_c, 0, 64, 56
2, 96756, Control_c, 0, 64, 0
2, 96808, Note_on_c, 0, 69, 60
2, 96848, Control_c, 0, 64, 104
2, 96860, Control_c, 0, 64, 127
2, 96968, Note_on_c, 0, 62, 53
2, 96976, Note_off_c, 0, 69, 0
2, 96996, Note_off_c, 0, 59, 0
2, 96996, Note_off_c, 0, 62, 0
2, 97180, Note_on_c, 0, 76, 81
2, 97200, Note_off_c, 0, 74, 0
2, 97208, Note_on_c, 0, 52, 63
2, 97216, Control_c, 0, 64, 72
2, 97228, Control_c, 0, 64, 0
2, 97284, Note_off_c, 0, 52, 0
2, 97296, Control_c, 0, 64, 104
2, 97308, Control_c, 0, 64, 127
2, 97372, Note_on_c, 0, 68, 41
2, 97496, Note_off_c, 0, 68, 0
2, 97496, Note_on_c, 0, 62, 52
2, 97580, Note_on_c, 0, 71, 83
2, 97608, Note_off_c, 0, 76, 0
2, 97644, Note_off_c, 0, 62, 0
2, 97752, Note_off_c, 0, 71, 0
2, 97756, Note_on_c, 0, 74, 80
2, 97780, Note_on_c, 0, 57, 55
2, 97848, Control_c, 0, 64, 104
2, 97860, Control_c, 0, 64, 24
2, 97872, Control_c, 0, 64, 0
2, 97916, Note_on_c, 0, 67, 47
2, 97952, Control_c, 0, 64, 127
2, 98004, Note_on_c, 0, 73, 89
2, 98040, Note_off_c, 0, 74, 0
2, 98104, Note_on_c, 0, 64, 56
2, 98112, Note_off_c, 0, 67, 0
2, 98136, Note_off_c, 0, 64, 0
2, 98148, Note_off_c, 0, 57, 0
2, 98168, Note_off_c, 0, 73, 0
2, 98324, Note_on_c, 0, 73, 69
2, 98360, Note_on_c, 0, 45, 55
2, 98376, Control_c, 0, 64, 72
2, 98388, Control_c, 0, 64, 0
2, 98444, Note_off_c, 0, 45, 0
2, 98452, Control_c, 0, 64, 127
2, 98568, Note_on_c, 0, 67, 52
2, 98572, Note_off_c, 0, 73, 0
2, 98572, Note_on_c, 0, 71, 73
2, 98668, Note_off_c, 0, 67, 0
2, 98736, Note_on_c, 0, 61, 42
2, 98764, Note_off_c, 0, 71, 0
2, 98776, Note_on_c, 0, 69, 79
2, 98784, Note_off_c, 0, 61, 0
2, 98864, Note_off_c, 0, 69, 0
2, 98948, Note_on_c, 0, 69, 70
2, 98992, Note_on_c, 0, 50, 56
2, 99020, Control_c, 0, 64, 56
2, 99032, Control_c, 0, 64, 0
2, 99124, Control_c, 0, 64, 127
2, 99136, Note_off_c, 0, 50, 0
2, 99152, Note_on_c, 0, 57, 49
2, 99232, Note_off_c, 0, 57, 0
2, 99288, Note_on_c, 0, 66, 49
2, 99332, Note_off_c, 0, 69, 0
2, 99388, Note_off_c, 0, 66, 0
2, 99448, Note_on_c, 0, 78, 85
2, 99472, Note_on_c, 0, 62, 57
2, 99604, Note_off_c, 0, 62, 0
2, 99624, Note_on_c, 0, 57, 51
2, 99784, Note_off_c, 0, 78, 0
2, 99804, Note_off_c, 0, 57, 0
2, 99812, Note_on_c, 0, 69, 66
2, 99896, Note_off_c, 0, 69, 0
2, 99924, Note_on_c, 0, 78, 97
2, 100016, Note_off_c, 0, 78, 0
2, 100104, Note_on_c, 0, 78, 94
2, 100128, Note_on_c, 0, 55, 58
2, 100192, Control_c, 0, 64, 40
2, 100204, Control_c, 0, 64, 0
2, 100284, Control_c, 0, 64, 127
2, 100300, Note_on_c, 0, 61, 48
2, 100324, Note_off_c, 0, 55, 0
2, 100468, Note_on_c, 0, 70, 47
2, 100476, Note_off_c, 0, 61, 0
2, 100596, Note_off_c, 0, 70, 0
2, 100620, Note_on_c, 0, 64, 56
2, 100760, Note_off_c, 0, 64, 0
2, 100764, Note_on_c, 0, 61, 44
2, 100812, Note_off_c, 0, 78, 0
2, 100820, Note_on_c, 0, 76, 91
2, 100940, Note_off_c, 0, 61, 0
2, 100944, Note_on_c, 0, 70, 50
2, 101016, Note_off_c, 0, 70, 0
2, 101124, Note_on_c, 0, 73, 80
2, 101152, Note_off_c, 0, 76, 0
2, 101168, Note_on_c, 0, 54, 48
2, 101192, Control_c, 0, 64, 72
2, 101208, Control_c, 0, 64, 0
2, 101284, Control_c, 0, 64, 104
2, 101292, Note_off_c, 0, 54, 0
2, 101296, Note_on_c, 0, 57, 58
2, 101300, Control_c, 0, 64, 127
2, 101372, Note_on_c, 0, 74, 95
2, 101388, Note_off_c, 0, 73, 0
2, 101456, Note_off_c, 0, 57, 0
2, 101492, Note_on_c, 0, 69, 61
2, 101600, Note_off_c, 0, 74, 0
2, 101604, Note_off_c, 0, 69, 0
2, 101604, Note_on_c, 0, 76, 95
2, 101652, Note_on_c, 0, 62, 59
2, 101752, Note_off_c, 0, 62, 0
2, 101792, Note_off_c, 0, 76, 0
2, 101792, Note_on_c, 0, 57, 51
2, 101800, Note_on_c, 0, 79, 90
2, 101932, Note_off_c, 0, 57, 0
2, 101936, Note_on_c, 0, 69, 57
2, 101944, Note_off_c, 0, 79, 0
2, 101968, Note_off_c, 0, 69, 0
2, 101976, Note_on_c, 0, 78, 84
2, 102144, Note_off_c, 0, 78, 0
2, 102208, Note_on_c, 0, 69, 79
2, 102232, Note_on_c, 0, 49, 48
2, 102232, Control_c, 0, 64, 88
2, 102244, Control_c, 0, 64, 24
2, 102260, Control_c, 0, 64, 0
2, 102368, Control_c, 0, 64, 88
2, 102380, Control_c, 0, 64, 127
2, 102396, Note_off_c, 0, 49, 0
2, 102416, Note_on_c, 0, 55, 48
2, 102540, Note_off_c, 0, 55, 0
2, 102552, Note_on_c, 0, 64, 52
2, 102716, Note_off_c, 0, 64, 0
2, 102720, Note_on_c, 0, 73, 79
2, 102752, Note_on_c, 0, 57, 49
2, 102880, Note_off_c, 0, 69, 0
2, 102908, Note_off_c, 0, 57, 0
2, 102928, Note_on_c, 0, 71, 80
2, 102936, Note_off_c, 0, 73, 0
2, 102936, Note_on_c, 0, 55, 31
2, 103100, Note_on_c, 0, 64, 51
2, 103112, Note_off_c, 0, 55, 0
2, 103156, Note_off_c, 0, 64, 0
2, 103192, Note_off_c, 0, 71, 0
2, 103216, Note_on_c, 0, 69, 72
2, 103288, Note_off_c, 0, 69, 0
2, 103344, Note_on_c, 0, 69, 68
2, 103344, Note_on_c, 0, 50, 50
2, 103432, Control_c, 0, 64, 88
2, 103444, Control_c, 0, 64, 24
2, 103456, Control_c, 0, 64, 0
2, 103536, Control_c, 0, 64, 40
2, 103548, Note_on_c, 0, 54, 34
2, 103552, Control_c, 0, 64, 127
2, 103676, Note_off_c, 0, 50, 0
2, 103712, Note_on_c, 0, 62, 53
2, 103720, Note_on_c, 0, 71, 71
2, 103756, Note_off_c, 0, 54, 0
2, 103816, Note_on_c, 0, 73, 71
2, 103828, Note_off_c, 0, 71, 0
2, 103908, Note_on_c, 0, 71, 77
2, 103908, Note_on_c, 0, 56, 48
2, 103924, Note_off_c, 0, 73, 0
2, 103932, Note_off_c, 0, 69, 0
2, 103972, Control_c, 0, 64, 24
2, 103984, Control_c, 0, 64, 0
2, 103996, Note_on_c, 0, 73, 78
2, 104004, Control_c, 0, 64, 40
2, 104016, Note_off_c, 0, 71, 0
2, 104024, Control_c, 0, 64, 127
2, 104036, Note_off_c, 0, 62, 0
2, 104068, Note_off_c, 0, 73, 0
2, 104084, Note_off_c, 0, 56, 0
2, 104084, Note_on_c, 0, 54, 66
2, 104084, Note_on_c, 0, 71, 77
2, 104148, Note_off_c, 0, 71, 0
2, 104172, Note_on_c, 0, 73, 78
2, 104236, Note_off_c, 0, 73, 0
2, 104260, Note_on_c, 0, 71, 77
2, 104344, Note_off_c, 0, 71, 0
2, 104348, Note_on_c, 0, 69, 75
2, 104380, Note_on_c, 0, 66, 70
2, 104416, Note_off_c, 0, 54, 0
2, 104440, Note_off_c, 0, 69, 64
2, 104468, Note_off_c, 0, 66, 0
2, 104484, Note_on_c, 0, 71, 77
2, 104600, Note_off_c, 0, 71, 0
2, 104652, Note_on_c, 0, 73, 79
2, 104660, Note_on_c, 0, 49, 47
2, 104696, Control_c, 0, 64, 104
2, 104708, Control_c, 0, 64, 24
2, 104724, Control_c, 0, 64, 0
2, 104800, Control_c, 0, 64, 88
2, 104804, Note_on_c, 0, 54, 42
2, 104816, Control_c, 0, 64, 127
2, 104880, Note_off_c, 0, 49, 0
2, 104952, Note_off_c, 0, 54, 0
2, 104964, Note_on_c, 0, 61, 62
2, 105140, Note_on_c, 0, 72, 93
2, 105152, Note_off_c, 0, 73, 0
2, 105160, Note_off_c, 0, 61, 0
2, 105160, Note_on_c, 0, 57, 47
2, 105280, Note_off_c, 0, 57, 0
2, 105300, Note_on_c, 0, 54, 50
2, 105428, Note_on_c, 0, 49, 63
2, 105432, Note_off_c, 0, 54, 0
2, 105512, Note_off_c, 0, 49, 0
2, 105520, Note_on_c, 0, 73, 94
2, 105540, Note_off_c, 0, 72, 0
2, 105640, Note_off_c, 0, 73, 0
2, 105652, Note_on_c, 0, 75, 94
2, 105680, Note_on_c, 0, 47, 58
2, 105708, Control_c, 0, 64, 40
2, 105724, Control_c, 0, 64, 0
2, 105792, Control_c, 0, 64, 88
2, 105804, Control_c, 0, 64, 127
2, 105808, Note_on_c, 0, 53, 67
2, 105824, Note_off_c, 0, 47, 0
2, 105892, Note_off_c, 0, 75, 0
2, 105904, Note_on_c, 0, 77, 96
2, 105968, Note_off_c, 0, 53, 0
2, 105996, Note_off_c, 0, 77, 0
2, 106000, Note_on_c, 0, 61, 74
2, 106128, Note_off_c, 0, 61, 0
2, 106152, Note_on_c, 0, 78, 95
2, 106164, Note_on_c, 0, 56, 56
2, 106272, Note_off_c, 0, 56, 0
2, 106288, Note_on_c, 0, 53, 70
2, 106352, Note_off_c, 0, 78, 0
2, 106388, Note_on_c, 0, 80, 99
2, 106468, Note_on_c, 0, 47, 74
2, 106476, Note_off_c, 0, 53, 0
2, 106524, Note_off_c, 0, 47, 0
2, 106624, Note_off_c, 0, 80, 0
2, 106688, Note_on_c, 0, 81, 96
2, 106712, Control_c, 0, 64, 24
2, 106724, Control_c, 0, 64, 0
2, 106732, Note_on_c, 0, 45, 84
2, 106804, Control_c, 0, 64, 56
2, 106816, Control_c, 0, 64, 127
2, 106820, Note_off_c, 0, 81, 0
2, 106892, Note_off_c, 0, 45, 0
2, 106904, Note_on_c, 0, 54, 61
2, 107036, Note_on_c, 0, 97, 106
2, 107148, Note_off_c, 0, 54, 0
2, 107164, Note_on_c, 0, 61, 68
2, 107352, Note_off_c, 0, 61, 0
2, 107424, Note_on_c, 0, 66, 72
2, 107512, Note_off_c, 0, 66, 0
2, 107652, Note_off_c, 0, 97, 0
2, 107656, Note_on_c, 0, 95, 95
2, 107884, Note_off_c, 0, 95, 0
2, 107896, Note_on_c, 0, 93, 102
2, 108036, Note_off_c, 0, 93, 0
2, 108060, Note_on_c, 0, 92, 91
2, 108184, Note_off_c, 0, 92, 0
2, 108192, Note_on_c, 0, 90, 86
2, 108332, Control_c, 0, 64, 72
2, 108336, Note_off_c, 0, 90, 0
2, 108336, Note_on_c, 0, 89, 95
2, 108336, Note_on_c, 0, 47, 70
2, 108344, Control_c, 0, 64, 0
2, 108420, Control_c, 0, 64, 127
2, 108448, Note_off_c, 0, 89, 0
2, 108516, Note_on_c, 0, 90, 77
2, 108640, Note_on_c, 0, 54, 62
2, 108644, Note_off_c, 0, 90, 0
2, 108644, Note_on_c, 0, 88, 74
2, 108684, Note_off_c, 0, 47, 0
2, 108736, Note_off_c, 0, 88, 0
2, 108752, Note_on_c, 0, 86, 81
2, 108840, Note_off_c, 0, 86, 0
2, 108856, Note_on_c, 0, 85, 84
2, 108856, Note_on_c, 0, 56, 58
2, 108952, Note_off_c, 0, 85, 0
2, 108960, Note_on_c, 0, 83, 80
2, 109044, Note_off_c, 0, 83, 0
2, 109092, Note_on_c, 0, 80, 84
2, 109096, Note_on_c, 0, 62, 63
2, 109192, Note_off_c, 0, 80, 0
2, 109212, Note_on_c, 0, 78, 74
2, 109308, Note_off_c, 0, 78, 0
2, 109332, Note_on_c, 0, 73, 77
2, 109436, Note_off_c, 0, 73, 0
2, 109444, Note_on_c, 0, 71, 80
2, 109536, Note_off_c, 0, 71, 0
2, 109584, Note_on_c, 0, 66, 68
2, 109592, Note_off_c, 0, 56, 0
2, 109612, Note_on_c, 0, 50, 57
2, 109640, Note_off_c, 0, 54, 0
2, 109644, Note_off_c, 0, 62, 0
2, 109680, Note_off_c, 0, 50, 0
2, 109692, Note_off_c, 0, 66, 0
2, 109712, Note_on_c, 0, 71, 77
2, 109856, Note_off_c, 0, 71, 0
2, 109868, Note_on_c, 0, 69, 75
2, 109912, Note_on_c, 0, 49, 55
2, 109952, Control_c, 0, 64, 88
2, 109964, Control_c, 0, 64, 24
2, 109980, Control_c, 0, 64, 0
2, 110080, Note_on_c, 0, 54, 57
2, 110108, Control_c, 0, 64, 88
2, 110120, Control_c, 0, 64, 127
2, 110256, Note_on_c, 0, 61, 59
2, 110260, Note_off_c, 0, 54, 0
2, 110388, Note_on_c, 0, 74, 79
2, 110504, Note_off_c, 0, 74, 0
2, 110520, Note_off_c, 0, 61, 0
2, 110532, Note_on_c, 0, 73, 72
2, 110564, Note_on_c, 0, 57, 59
2, 110572, Control_c, 0, 64, 56
2, 110584, Control_c, 0, 64, 0
2, 110648, Note_off_c, 0, 69, 0
2, 110648, Control_c, 0, 64, 56
2, 110664, Control_c, 0, 64, 127
2, 110696, Note_off_c, 0, 73, 64
2, 110760, Note_on_c, 0, 54, 52
2, 110964, Note_on_c, 0, 61, 49
2, 110976, Note_off_c, 0, 57, 0
2, 110980, Note_off_c, 0, 49, 0
2, 110996, Note_off_c, 0, 61, 0
2, 111008, Note_on_c, 0, 63, 50
2, 111012, Note_off_c, 0, 54, 0
2, 111100, Note_off_c, 0, 63, 0
2, 111108, Note_on_c, 0, 65, 59
2, 111192, Note_off_c, 0, 65, 0
2, 111204, Note_on_c, 0, 66, 61
2, 111244, Control_c, 0, 64, 88
2, 111252, Control_c, 0, 64, 40
2, 111264, Control_c, 0, 64, 0
2, 111272, Note_off_c, 0, 66, 0
2, 111284, Note_on_c, 0, 65, 73
2, 111292, Note_on_c, 0, 37, 55
2, 111332, Control_c, 0, 64, 88
2, 111348, Note_off_c, 0, 65, 0
2, 111348, Control_c, 0, 64, 127
2, 111356, Note_on_c, 0, 66, 62
2, 111380, Note_off_c, 0, 37, 0
2, 111416, Note_off_c, 0, 66, 0
2, 111424, Note_on_c, 0, 65, 48
2, 111468, Note_off_c, 0, 65, 0
2, 111476, Note_on_c, 0, 66, 48
2, 111532, Note_off_c, 0, 66, 0
2, 111536, Note_on_c, 0, 65, 62
2, 111588, Note_on_c, 0, 49, 55
2, 111596, Note_off_c, 0, 65, 0
2, 111604, Note_on_c, 0, 66, 52
2, 111648, Note_off_c, 0, 66, 0
2, 111656, Note_on_c, 0, 65, 70
2, 111732, Note_off_c, 0, 65, 0
2, 111732, Note_on_c, 0, 66, 69
2, 111796, Note_off_c, 0, 66, 0
2, 111796, Note_on_c, 0, 65, 63
2, 111868, Note_off_c, 0, 65, 0
2, 111872, Note_off_c, 0, 49, 0
2, 111872, Note_on_c, 0, 66, 63
2, 111884, Note_on_c, 0, 56, 60
2, 111928, Note_off_c, 0, 66, 0
2, 111928, Note_on_c, 0, 65, 60
2, 111996, Note_on_c, 0, 66, 61
2, 112000, Note_off_c, 0, 65, 0
2, 112056, Note_off_c, 0, 66, 0
2, 112056, Note_on_c, 0, 65, 61
2, 112124, Note_on_c, 0, 66, 51
2, 112132, Note_off_c, 0, 65, 0
2, 112152, Note_off_c, 0, 56, 0
2, 112176, Note_on_c, 0, 62, 63
2, 112184, Note_off_c, 0, 66, 0
2, 112184, Note_on_c, 0, 59, 51
2, 112184, Note_on_c, 0, 65, 60
2, 112252, Note_on_c, 0, 66, 48
2, 112260, Note_off_c, 0, 65, 0
2, 112300, Note_off_c, 0, 66, 0
2, 112312, Note_on_c, 0, 65, 63
2, 112364, Note_off_c, 0, 65, 0
2, 112380, Note_on_c, 0, 66, 56
2, 112416, Note_off_c, 0, 66, 0
2, 112428, Note_on_c, 0, 65, 60
2, 112448, Note_off_c, 0, 62, 0
2, 112492, Note_off_c, 0, 59, 0
2, 112492, Note_off_c, 0, 65, 0
2, 112500, Note_on_c, 0, 66, 60
2, 112536, Note_on_c, 0, 61, 58
2, 112548, Note_on_c, 0, 57, 45
2, 112568, Note_off_c, 0, 66, 0
2, 112576, Note_on_c, 0, 65, 56
2, 112672, Note_off_c, 0, 65, 0
2, 112672, Note_on_c, 0, 63, 60
2, 112752, Note_off_c, 0, 63, 0
2, 112772, Note_on_c, 0, 65, 72
2, 112864, Note_off_c, 0, 57, 0
2, 112876, Note_off_c, 0, 61, 0
2, 112896, Note_off_c, 0, 65, 0
2, 112940, Note_on_c, 0, 69, 71
2, 112940, Note_on_c, 0, 56, 40
2, 112940, Note_on_c, 0, 59, 53
2, 113020, Control_c, 0, 64, 72
2, 113036, Control_c, 0, 64, 0
2, 113112, Note_off_c, 0, 59, 0
2, 113124, Control_c, 0, 64, 72
2, 113140, Control_c, 0, 64, 127
2, 113148, Note_on_c, 0, 68, 67
2, 113156, Note_off_c, 0, 56, 0
2, 113160, Note_off_c, 0, 69, 0
2, 113276, Note_off_c, 0, 68, 0
2, 113300, Note_on_c, 0, 66, 64
2, 113388, Note_off_c, 0, 66, 0
2, 113476, Note_on_c, 0, 66, 60
2, 113480, Note_on_c, 0, 30, 50
2, 113548, Control_c, 0, 64, 104
2, 113560, Control_c, 0, 64, 40
2, 113572, Control_c, 0, 64, 0
2, 113640, Control_c, 0, 64, 40
2, 113652, Control_c, 0, 64, 127
2, 113668, Note_off_c, 0, 30, 64
2, 113668, Note_on_c, 0, 42, 47
2, 113700, Note_off_c, 0, 42, 0
2, 113856, Note_on_c, 0, 49, 48
2, 114024, Note_off_c, 0, 49, 0
2, 114028, Note_off_c, 0, 66, 0
2, 114044, Note_on_c, 0, 57, 50
2, 114044, Note_on_c, 0, 78, 79
2, 114132, Note_off_c, 0, 57, 0
2, 114248, Note_on_c, 0, 61, 52
2, 114316, Note_off_c, 0, 61, 0
2, 114420, Note_on_c, 0, 69, 52
2, 114532, Note_off_c, 0, 69, 0
2, 114608, Note_on_c, 0, 66, 52
2, 114700, Note_off_c, 0, 66, 0
2, 114744, Note_on_c, 0, 61, 38
2, 114868, Note_off_c, 0, 61, 0
2, 114880, Note_on_c, 0, 57, 57
2, 114952, Note_off_c, 0, 57, 0
2, 115036, Note_on_c, 0, 71, 58
2, 115052, Note_off_c, 0, 78, 0
2, 115192, Note_off_c, 0, 71, 0
2, 115216, Note_on_c, 0, 78, 74
2, 115224, Note_on_c, 0, 66, 46
2, 115320, Note_off_c, 0, 66, 0
2, 115368, Note_on_c, 0, 61, 45
2, 115496, Note_off_c, 0, 61, 0
2, 115572, Note_on_c, 0, 57, 44
2, 115732, Note_on_c, 0, 69, 54
2, 115760, Note_off_c, 0, 78, 0
2, 115860, Note_off_c, 0, 57, 0
2, 115868, Note_off_c, 0, 69, 0
2, 115880, Note_on_c, 0, 79, 81
2, 115900, Note_on_c, 0, 67, 53
2, 115924, Control_c, 0, 64, 56
2, 115936, Control_c, 0, 64, 0
2, 116000, Control_c, 0, 64, 40
2, 116008, Note_off_c, 0, 67, 0
2, 116012, Control_c, 0, 64, 127
2, 116036, Note_on_c, 0, 64, 50
2, 116112, Note_off_c, 0, 64, 0
2, 116152, Note_off_c, 0, 79, 0
2, 116188, Note_on_c, 0, 76, 78
2, 116204, Note_on_c, 0, 57, 52
2, 116248, Note_off_c, 0, 57, 0
2, 116264, Note_off_c, 0, 76, 0
2, 116332, Note_on_c, 0, 71, 44
2, 116376, Note_off_c, 0, 71, 0
2, 116480, Note_on_c, 0, 71, 74
2, 116500, Note_on_c, 0, 67, 53
2, 116500, Control_c, 0, 64, 104
2, 116516, Control_c, 0, 64, 40
2, 116528, Control_c, 0, 64, 0
2, 116552, Control_c, 0, 64, 72
2, 116564, Control_c, 0, 64, 127
2, 116584, Note_off_c, 0, 67, 0
2, 116612, Note_on_c, 0, 64, 39
2, 116648, Note_off_c, 0, 64, 0
2, 116732, Note_off_c, 0, 71, 0
2, 116744, Note_on_c, 0, 73, 82
2, 116748, Note_on_c, 0, 57, 52
2, 116884, Note_on_c, 0, 69, 56
2, 116928, Note_off_c, 0, 57, 0
2, 117008, Note_off_c, 0, 73, 0
2, 117024, Note_off_c, 0, 69, 0
2, 117024, Note_on_c, 0, 74, 82
2, 117028, Note_on_c, 0, 66, 50
2, 117064, Control_c, 0, 64, 104
2, 117080, Control_c, 0, 64, 40
2, 117092, Control_c, 0, 64, 0
2, 117144, Note_off_c, 0, 66, 0
2, 117164, Note_on_c, 0, 62, 49
2, 117164, Control_c, 0, 64, 24
2, 117176, Control_c, 0, 64, 127
2, 117280, Note_off_c, 0, 62, 0
2, 117296, Note_on_c, 0, 57, 59
2, 117352, Note_off_c, 0, 57, 0
2, 117420, Note_on_c, 0, 71, 71
2, 117564, Note_on_c, 0, 67, 52
2, 117568, Note_on_c, 0, 76, 84
2, 117580, Control_c, 0, 64, 72
2, 117592, Note_off_c, 0, 74, 0
2, 117592, Control_c, 0, 64, 0
2, 117652, Control_c, 0, 64, 56
2, 117668, Control_c, 0, 64, 127
2, 117676, Note_off_c, 0, 67, 0
2, 117684, Note_off_c, 0, 71, 0
2, 117684, Note_on_c, 0, 61, 56
2, 117772, Note_off_c, 0, 61, 0
2, 117844, Note_on_c, 0, 57, 44
2, 117932, Note_off_c, 0, 57, 0
2, 117956, Note_on_c, 0, 69, 67
2, 118064, Note_off_c, 0, 76, 0
2, 118072, Note_on_c, 0, 78, 85
2, 118080, Note_on_c, 0, 66, 60
2, 118104, Note_off_c, 0, 69, 0
2, 118116, Control_c, 0, 64, 104
2, 118128, Control_c, 0, 64, 72
2, 118140, Control_c, 0, 64, 40
2, 118152, Control_c, 0, 64, 0
2, 118212, Note_off_c, 0, 66, 0
2, 118216, Note_on_c, 0, 62, 59
2, 118244, Control_c, 0, 64, 88
2, 118256, Control_c, 0, 64, 127
2, 118328, Note_off_c, 0, 62, 0
2, 118356, Note_on_c, 0, 57, 63
2, 118496, Note_off_c, 0, 57, 0
2, 118500, Note_on_c, 0, 69, 68
2, 118616, Note_off_c, 0, 78, 0
2, 118652, Note_on_c, 0, 83, 97
2, 118664, Note_on_c, 0, 66, 63
2, 118744, Control_c, 0, 64, 88
2, 118756, Note_off_c, 0, 69, 0
2, 118756, Control_c, 0, 64, 40
2, 118768, Control_c, 0, 64, 0
2, 118800, Note_off_c, 0, 66, 0
2, 118808, Note_on_c, 0, 63, 48
2, 118844, Control_c, 0, 64, 88
2, 118856, Control_c, 0, 64, 127
2, 118912, Note_off_c, 0, 63, 0
2, 118948, Note_on_c, 0, 57, 44
2, 119012, Note_off_c, 0, 83, 0
2, 119076, Note_on_c, 0, 81, 92
2, 119096, Note_on_c, 0, 69, 59
2, 119220, Note_off_c, 0, 81, 0
2, 119248, Note_off_c, 0, 69, 0
2, 119268, Note_on_c, 0, 83, 89
2, 119276, Note_on_c, 0, 67, 45
2, 119308, Control_c, 0, 64, 56
2, 119320, Control_c, 0, 64, 0
2, 119332, Note_off_c, 0, 57, 0
2, 119368, Control_c, 0, 64, 56
2, 119384, Control_c, 0, 64, 127
2, 119388, Note_on_c, 0, 64, 48
2, 119392, Note_off_c, 0, 67, 0
2, 119428, Note_off_c, 0, 83, 0
2, 119460, Note_on_c, 0, 81, 85
2, 119512, Note_off_c, 0, 64, 0
2, 119536, Note_on_c, 0, 57, 63
2, 119544, Note_off_c, 0, 81, 0
2, 119600, Note_off_c, 0, 57, 0
2, 119660, Note_on_c, 0, 79, 93
2, 119672, Note_on_c, 0, 71, 57
2, 119724, Note_off_c, 0, 79, 0
2, 119816, Note_off_c, 0, 71, 0
2, 119816, Note_on_c, 0, 79, 90
2, 119820, Note_on_c, 0, 67, 41
2, 119820, Control_c, 0, 64, 72
2, 119832, Control_c, 0, 64, 24
2, 119844, Control_c, 0, 64, 0
2, 119856, Control_c, 0, 64, 40
2, 119868, Control_c, 0, 64, 104
2, 119884, Control_c, 0, 64, 127
2, 119940, Note_off_c, 0, 67, 0
2, 119964, Note_on_c, 0, 61, 42
2, 119968, Note_off_c, 0, 79, 0
2, 119980, Note_on_c, 0, 78, 92
2, 120060, Note_off_c, 0, 78, 0
2, 120064, Note_off_c, 0, 61, 0
2, 120112, Note_on_c, 0, 57, 66
2, 120220, Note_on_c, 0, 77, 92
2, 120264, Note_on_c, 0, 69, 61
2, 120296, Note_off_c, 0, 77, 0
2, 120400, Note_off_c, 0, 69, 0
2, 120400, Note_on_c, 0, 78, 82
2, 120408, Note_on_c, 0, 66, 42
2, 120484, Control_c, 0, 64, 88
2, 120496, Control_c, 0, 64, 40
2, 120508, Control_c, 0, 64, 0
2, 120512, Note_off_c, 0, 57, 0
2, 120532, Note_off_c, 0, 66, 0
2, 120556, Note_on_c, 0, 62, 47
2, 120584, Control_c, 0, 64, 56
2, 120596, Control_c, 0, 64, 127
2, 120660, Note_off_c, 0, 78, 0
2, 120668, Note_on_c, 0, 74, 77
2, 120680, Note_off_c, 0, 62, 0
2, 120704, Note_on_c, 0, 57, 53
2, 120728, Note_off_c, 0, 57, 0
2, 120748, Note_off_c, 0, 74, 0
2, 120808, Note_on_c, 0, 71, 52
2, 120884, Note_off_c, 0, 71, 0
2, 120952, Note_on_c, 0, 71, 70
2, 120960, Note_on_c, 0, 67, 57
2, 120996, Control_c, 0, 64, 88
2, 121008, Control_c, 0, 64, 24
2, 121024, Control_c, 0, 64, 0
2, 121060, Note_off_c, 0, 67, 0
2, 121060, Control_c, 0, 64, 88
2, 121072, Control_c, 0, 64, 127
2, 121088, Note_on_c, 0, 64, 50
2, 121128, Note_off_c, 0, 64, 0
2, 121208, Note_off_c, 0, 71, 0
2, 121220, Note_on_c, 0, 73, 75
2, 121232, Note_on_c, 0, 57, 52
2, 121356, Note_on_c, 0, 69, 56
2, 121496, Note_off_c, 0, 73, 0
2, 121496, Note_on_c, 0, 66, 52
2, 121500, Note_on_c, 0, 74, 81
2, 121504, Note_off_c, 0, 69, 0
2, 121512, Note_off_c, 0, 57, 0
2, 121536, Control_c, 0, 64, 72
2, 121548, Control_c, 0, 64, 0
2, 121612, Control_c, 0, 64, 24
2, 121620, Note_off_c, 0, 66, 0
2, 121620, Control_c, 0, 64, 104
2, 121632, Note_on_c, 0, 62, 52
2, 121636, Control_c, 0, 64, 127
2, 121776, Note_off_c, 0, 62, 0
2, 121784, Note_on_c, 0, 75, 90
2, 121792, Note_on_c, 0, 57, 37
2, 121804, Note_off_c, 0, 74, 0
2, 121856, Note_off_c, 0, 57, 0
2, 121916, Note_on_c, 0, 71, 49
2, 122028, Note_off_c, 0, 71, 0
2, 122040, Note_on_c, 0, 67, 55
2, 122040, Control_c, 0, 64, 88
2, 122052, Control_c, 0, 64, 24
2, 122064, Control_c, 0, 64, 0
2, 122076, Control_c, 0, 64, 40
2, 122088, Control_c, 0, 64, 104
2, 122100, Control_c, 0, 64, 127
2, 122136, Note_off_c, 0, 67, 0
2, 122156, Note_on_c, 0, 61, 57
2, 122172, Note_on_c, 0, 76, 93
2, 122176, Note_off_c, 0, 75, 0
2, 122276, Note_off_c, 0, 61, 0
2, 122316, Note_on_c, 0, 57, 46
2, 122388, Note_on_c, 0, 77, 101
2, 122408, Note_off_c, 0, 76, 0
2, 122452, Note_on_c, 0, 69, 58
2, 122584, Note_off_c, 0, 57, 0
2, 122596, Note_off_c, 0, 77, 0
2, 122596, Note_on_c, 0, 66, 50
2, 122596, Note_on_c, 0, 78, 91
2, 122652, Control_c, 0, 64, 104
2, 122656, Note_off_c, 0, 69, 0
2, 122664, Control_c, 0, 64, 40
2, 122676, Control_c, 0, 64, 0
2, 122736, Note_off_c, 0, 66, 0
2, 122740, Note_on_c, 0, 62, 56
2, 122740, Control_c, 0, 64, 88
2, 122748, Control_c, 0, 64, 127
2, 122856, Note_on_c, 0, 79, 93
2, 122860, Note_off_c, 0, 78, 0
2, 122860, Note_off_c, 0, 62, 0
2, 122892, Note_on_c, 0, 57, 58
2, 123000, Note_on_c, 0, 69, 68
2, 123104, Note_off_c, 0, 79, 0
2, 123112, Note_on_c, 0, 80, 97
2, 123120, Note_off_c, 0, 57, 0
2, 123136, Note_on_c, 0, 65, 61
2, 123148, Note_off_c, 0, 69, 0
2, 123152, Control_c, 0, 64, 40
2, 123164, Control_c, 0, 64, 0
2, 123216, Control_c, 0, 64, 40
2, 123228, Control_c, 0, 64, 127
2, 123236, Note_off_c, 0, 65, 0
2, 123252, Note_on_c, 0, 62, 60
2, 123300, Note_off_c, 0, 80, 0
2, 123316, Note_on_c, 0, 85, 104
2, 123368, Note_off_c, 0, 62, 0
2, 123396, Note_on_c, 0, 57, 47
2, 123484, Note_off_c, 0, 85, 0
2, 123500, Note_on_c, 0, 83, 99
2, 123508, Note_on_c, 0, 69, 52
2, 123656, Note_off_c, 0, 83, 0
2, 123656, Note_on_c, 0, 81, 89
2, 123664, Note_on_c, 0, 64, 64
2, 123692, Control_c, 0, 64, 104
2, 123704, Control_c, 0, 64, 24
2, 123716, Control_c, 0, 64, 0
2, 123764, Control_c, 0, 64, 72
2, 123776, Control_c, 0, 64, 127
2, 123796, Note_off_c, 0, 57, 0
2, 123796, Note_off_c, 0, 64, 0
2, 123796, Note_on_c, 0, 62, 63
2, 123816, Note_off_c, 0, 69, 0
2, 123928, Note_off_c, 0, 62, 0
2, 123932, Note_on_c, 0, 57, 67
2, 124072, Note_on_c, 0, 69, 70
2, 124212, Note_on_c, 0, 64, 73
2, 124216, Note_off_c, 0, 57, 0
2, 124268, Note_off_c, 0, 69, 0
2, 124268, Control_c, 0, 64, 104
2, 124280, Control_c, 0, 64, 0
2, 124340, Control_c, 0, 64, 56
2, 124344, Note_on_c, 0, 61, 64
2, 124352, Note_off_c, 0, 64, 0
2, 124352, Control_c, 0, 64, 127
2, 124436, Note_off_c, 0, 61, 0
2, 124456, Note_on_c, 0, 55, 68
2, 124568, Note_off_c, 0, 55, 0
2, 124576, Note_off_c, 0, 81, 0
2, 124632, Note_on_c, 0, 69, 80
2, 124704, Note_off_c, 0, 69, 0
2, 124868, Note_on_c, 0, 86, 101
2, 124876, Note_on_c, 0, 74, 82
2, 124876, Note_on_c, 0, 81, 83
2, 124908, Note_on_c, 0, 54, 63
2, 124944, Control_c, 0, 64, 88
2, 124956, Control_c, 0, 64, 0
2, 125052, Note_off_c, 0, 54, 0
2, 125056, Note_on_c, 0, 57, 58
2, 125060, Control_c, 0, 64, 72
2, 125072, Control_c, 0, 64, 127
2, 125156, Note_off_c, 0, 57, 0
2, 125192, Note_on_c, 0, 62, 60
2, 125200, Note_off_c, 0, 86, 0
2, 125212, Note_off_c, 0, 74, 0
2, 125304, Note_on_c, 0, 57, 50
2, 125448, Note_off_c, 0, 81, 0
2, 125452, Note_on_c, 0, 85, 99
2, 125464, Note_on_c, 0, 73, 80
2, 125480, Note_on_c, 0, 81, 24
2, 125484, Note_off_c, 0, 57, 0
2, 125492, Note_on_c, 0, 69, 62
2, 125512, Note_off_c, 0, 81, 0
2, 125584, Note_off_c, 0, 85, 0
2, 125592, Note_off_c, 0, 73, 0
2, 125664, Note_off_c, 0, 62, 0
2, 125664, Note_off_c, 0, 69, 0
2, 125840, Note_on_c, 0, 71, 78
2, 125844, Note_on_c, 0, 83, 99
2, 125880, Note_off_c, 0, 71, 0
2, 125900, Note_off_c, 0, 83, 0
2, 125996, Note_on_c, 0, 85, 96
2, 126000, Note_on_c, 0, 79, 78
2, 126000, Note_on_c, 0, 73, 73
2, 126004, Note_on_c, 0, 81, 71
2, 126024, Note_on_c, 0, 52, 59
2, 126024, Control_c, 0, 64, 56
2, 126036, Control_c, 0, 64, 0
2, 126096, Control_c, 0, 64, 56
2, 126100, Note_off_c, 0, 81, 0
2, 126108, Control_c, 0, 64, 127
2, 126116, Note_off_c, 0, 79, 0
2, 126128, Note_off_c, 0, 85, 0
2, 126128, Note_off_c, 0, 52, 0
2, 126140, Note_off_c, 0, 73, 0
2, 126140, Note_on_c, 0, 57, 53
2, 126220, Note_off_c, 0, 57, 0
2, 126252, Note_on_c, 0, 67, 53
2, 126272, Note_on_c, 0, 83, 95
2, 126284, Note_on_c, 0, 71, 52
2, 126336, Note_off_c, 0, 71, 0
2, 126364, Note_off_c, 0, 67, 0
2, 126372, Note_off_c, 0, 83, 0
2, 126384, Note_on_c, 0, 61, 50
2, 126504, Note_on_c, 0, 83, 88
2, 126504, Note_on_c, 0, 71, 42
2, 126532, Note_off_c, 0, 71, 0
2, 126548, Note_off_c, 0, 83, 0
2, 126580, Note_on_c, 0, 81, 90
2, 126584, Note_on_c, 0, 69, 77
2, 126588, Note_off_c, 0, 61, 0
2, 126648, Note_off_c, 0, 69, 0
2, 126788, Note_off_c, 0, 81, 0
2, 126852, Note_on_c, 0, 80, 89
2, 126860, Note_on_c, 0, 68, 66
2, 126956, Note_off_c, 0, 68, 0
2, 127064, Note_off_c, 0, 80, 0
2, 127156, Note_on_c, 0, 83, 86
2, 127160, Note_on_c, 0, 78, 59
2, 127164, Note_on_c, 0, 71, 59
2, 127172, Note_on_c, 0, 74, 61
2, 127204, Note_on_c, 0, 50, 52
2, 127248, Control_c, 0, 64, 72
2, 127260, Control_c, 0, 64, 0
2, 127332, Note_on_c, 0, 57, 60
2, 127352, Control_c, 0, 64, 72
2, 127360, Note_off_c, 0, 50, 0
2, 127364, Control_c, 0, 64, 127
2, 127380, Note_off_c, 0, 83, 0
2, 127420, Note_off_c, 0, 57, 0
2, 127432, Note_off_c, 0, 71, 0
2, 127456, Note_on_c, 0, 62, 47
2, 127472, Note_off_c, 0, 78, 0
2, 127524, Note_off_c, 0, 62, 0
2, 127532, Note_off_c, 0, 74, 0
2, 127564, Note_on_c, 0, 81, 88
2, 127568, Note_on_c, 0, 69, 72
2, 127636, Note_off_c, 0, 69, 0
2, 127652, Note_on_c, 0, 57, 27
2, 127676, Note_off_c, 0, 81, 0
2, 127728, Note_on_c, 0, 66, 62
2, 127816, Note_on_c, 0, 81, 96
2, 127828, Note_on_c, 0, 69, 72
2, 127832, Note_on_c, 0, 74, 72
2, 127892, Note_off_c, 0, 69, 0
2, 127924, Note_off_c, 0, 74, 0
2, 127928, Note_off_c, 0, 81, 0
2, 127948, Note_off_c, 0, 66, 0
2, 127964, Note_off_c, 0, 57, 0
2, 128028, Note_on_c, 0, 79, 95
2, 128028, Note_on_c, 0, 67, 82
2, 128072, Note_off_c, 0, 67, 0
2, 128092, Note_off_c, 0, 79, 0
2, 128176, Note_on_c, 0, 78, 95
2, 128180, Note_on_c, 0, 66, 84
2, 128220, Note_off_c, 0, 66, 0
2, 128244, Note_off_c, 0, 78, 0
2, 128304, Note_on_c, 0, 78, 82
2, 128308, Note_on_c, 0, 66, 60
2, 128324, Note_on_c, 0, 73, 53
2, 128324, Note_on_c, 0, 55, 63
2, 128328, Note_on_c, 0, 70, 53
2, 128340, Control_c, 0, 64, 88
2, 128348, Control_c, 0, 64, 40
2, 128364, Control_c, 0, 64, 0
2, 128440, Control_c, 0, 64, 72
2, 128448, Note_off_c, 0, 55, 0
2, 128448, Note_on_c, 0, 58, 41
2, 128452, Note_off_c, 0, 66, 0
2, 128452, Control_c, 0, 64, 127
2, 128456, Note_off_c, 0, 78, 0
2, 128536, Note_off_c, 0, 58, 0
2, 128560, Note_on_c, 0, 61, 49
2, 128636, Note_off_c, 0, 73, 0
2, 128652, Note_off_c, 0, 70, 0
2, 128716, Note_on_c, 0, 64, 75
2, 128724, Note_on_c, 0, 76, 90
2, 128736, Note_on_c, 0, 70, 58
2, 128768, Note_off_c, 0, 64, 0
2, 128788, Note_off_c, 0, 76, 0
2, 128804, Note_off_c, 0, 70, 0
2, 128856, Note_on_c, 0, 58, 1
2, 128888, Note_on_c, 0, 78, 82
2, 128888, Note_on_c, 0, 66, 75
2, 128892, Note_on_c, 0, 73, 70
2, 128920, Note_on_c, 0, 70, 53
2, 128936, Note_off_c, 0, 61, 0
2, 128972, Note_off_c, 0, 58, 0
2, 128976, Note_off_c, 0, 66, 0
2, 128980, Note_off_c, 0, 70, 0
2, 128988, Note_off_c, 0, 73, 0
2, 129044, Note_off_c, 0, 78, 0
2, 129300, Note_on_c, 0, 79, 81
2, 129308, Note_on_c, 0, 67, 59
2, 129356, Note_off_c, 0, 67, 0
2, 129372, Note_off_c, 0, 79, 0
2, 129512, Note_on_c, 0, 74, 80
2, 129540, Note_on_c, 0, 42, 69
2, 129564, Note_off_c, 0, 74, 0
2, 129592, Control_c, 0, 64, 40
2, 129604, Control_c, 0, 64, 104
2, 129608, Note_on_c, 0, 74, 82
2, 129616, Control_c, 0, 64, 127
2, 129688, Note_off_c, 0, 74, 0
2, 129708, Note_off_c, 0, 42, 0
2, 129716, Note_on_c, 0, 86, 97
2, 129716, Note_on_c, 0, 50, 58
2, 129716, Note_on_c, 0, 81, 81
2, 129776, Note_off_c, 0, 81, 0
2, 129804, Note_off_c, 0, 86, 0
2, 129828, Note_off_c, 0, 50, 0
2, 129868, Note_on_c, 0, 57, 61
2, 129948, Note_off_c, 0, 57, 0
2, 130024, Note_on_c, 0, 85, 88
2, 130024, Note_on_c, 0, 73, 83
2, 130024, Note_on_c, 0, 45, 60
2, 130044, Note_off_c, 0, 45, 0
2, 130072, Note_off_c, 0, 73, 0
2, 130112, Note_off_c, 0, 85, 0
2, 130164, Note_on_c, 0, 62, 67
2, 130164, Note_on_c, 0, 57, 62
2, 130164, Note_on_c, 0, 69, 69
2, 130164, Note_on_c, 0, 73, 80
2, 130164, Note_on_c, 0, 85, 84
2, 130164, Control_c, 0, 64, 88
2, 130172, Control_c, 0, 64, 24
2, 130192, Control_c, 0, 64, 0
2, 130204, Control_c, 0, 64, 40
2, 130216, Control_c, 0, 64, 72
2, 130228, Control_c, 0, 64, 127
2, 130232, Note_off_c, 0, 73, 0
2, 130240, Note_off_c, 0, 85, 0
2, 130284, Note_on_c, 0, 74, 64
2, 130288, Note_on_c, 0, 78, 73
2, 130308, Note_off_c, 0, 74, 0
2, 130368, Note_off_c, 0, 78, 0
2, 130376, Note_on_c, 0, 83, 77
2, 130376, Note_on_c, 0, 71, 72
2, 130388, Note_off_c, 0, 69, 0
2, 130412, Note_off_c, 0, 71, 0
2, 130436, Note_off_c, 0, 62, 0
2, 130436, Note_off_c, 0, 57, 0
2, 130440, Note_off_c, 0, 83, 0
2, 130648, Note_on_c, 0, 81, 81
2, 130648, Note_on_c, 0, 69, 75
2, 130692, Note_off_c, 0, 69, 0
2, 130716, Note_off_c, 0, 81, 0
2, 130792, Control_c, 0, 64, 88
2, 130804, Control_c, 0, 64, 24
2, 130812, Note_on_c, 0, 73, 90
2, 130816, Control_c, 0, 64, 0
2, 130820, Note_on_c, 0, 40, 69
2, 130856, Control_c, 0, 64, 40
2, 130868, Control_c, 0, 64, 88
2, 130880, Control_c, 0, 64, 127
2, 130916, Note_off_c, 0, 40, 0
2, 130924, Note_off_c, 0, 73, 0
2, 130936, Note_on_c, 0, 85, 89
2, 130944, Note_on_c, 0, 45, 68
2, 130948, Note_on_c, 0, 81, 75
2, 130960, Note_on_c, 0, 79, 58
2, 130968, Note_off_c, 0, 81, 0
2, 130984, Note_off_c, 0, 79, 0
2, 131004, Note_off_c, 0, 45, 0
2, 131016, Note_off_c, 0, 85, 0
2, 131080, Note_on_c, 0, 57, 62
2, 131164, Note_off_c, 0, 57, 0
2, 131180, Note_on_c, 0, 45, 69
2, 131200, Note_off_c, 0, 45, 0
2, 131208, Note_on_c, 0, 83, 93
2, 131208, Note_on_c, 0, 71, 83
2, 131260, Note_off_c, 0, 71, 0
2, 131272, Note_off_c, 0, 83, 0
2, 131348, Note_on_c, 0, 83, 90
2, 131348, Note_on_c, 0, 61, 58
2, 131356, Note_on_c, 0, 57, 63
2, 131356, Note_on_c, 0, 71, 69
2, 131356, Note_on_c, 0, 67, 62
2, 131416, Note_off_c, 0, 83, 0
2, 131448, Note_off_c, 0, 71, 0
2, 131464, Note_on_c, 0, 79, 70
2, 131464, Note_on_c, 0, 73, 60
2, 131528, Note_off_c, 0, 79, 0
2, 131544, Note_off_c, 0, 73, 0
2, 131544, Note_on_c, 0, 81, 85
2, 131556, Note_on_c, 0, 69, 69
2, 131580, Note_off_c, 0, 67, 0
2, 131580, Note_off_c, 0, 69, 0
2, 131600, Note_off_c, 0, 81, 0
2, 131612, Note_off_c, 0, 57, 0
2, 131632, Note_off_c, 0, 61, 0
2, 131816, Note_on_c, 0, 68, 79
2, 131824, Note_on_c, 0, 80, 84
2, 131880, Note_off_c, 0, 68, 0
2, 131956, Note_off_c, 0, 80, 0
2, 131976, Control_c, 0, 64, 72
2, 131988, Note_on_c, 0, 71, 90
2, 131992, Control_c, 0, 64, 0
2, 132004, Note_on_c, 0, 38, 67
2, 132056, Control_c, 0, 64, 40
2, 132068, Control_c, 0, 64, 104
2, 132080, Control_c, 0, 64, 127
2, 132108, Note_off_c, 0, 38, 0
2, 132136, Note_on_c, 0, 83, 90
2, 132136, Note_on_c, 0, 45, 67
2, 132136, Note_on_c, 0, 74, 53
2, 132136, Note_on_c, 0, 78, 52
2, 132188, Note_off_c, 0, 45, 0
2, 132196, Note_off_c, 0, 71, 0
2, 132204, Note_off_c, 0, 74, 0
2, 132220, Note_off_c, 0, 83, 0
2, 132232, Note_off_c, 0, 78, 0
2, 132284, Note_on_c, 0, 57, 66
2, 132356, Note_off_c, 0, 57, 0
2, 132416, Note_on_c, 0, 81, 90
2, 132416, Note_on_c, 0, 69, 82
2, 132416, Note_on_c, 0, 45, 69
2, 132468, Note_off_c, 0, 69, 0
2, 132468, Note_off_c, 0, 45, 0
2, 132480, Note_off_c, 0, 81, 0
2, 132568, Note_on_c, 0, 81, 90
2, 132568, Note_on_c, 0, 69, 71
2, 132568, Note_on_c, 0, 62, 19
2, 132568, Note_on_c, 0, 54, 44
2, 132568, Note_on_c, 0, 57, 53
2, 132640, Note_off_c, 0, 81, 0
2, 132656, Note_on_c, 0, 74, 63
2, 132664, Note_off_c, 0, 69, 0
2, 132740, Note_off_c, 0, 74, 0
2, 132764, Note_on_c, 0, 79, 86
2, 132772, Note_on_c, 0, 67, 64
2, 132832, Note_off_c, 0, 57, 0
2, 132832, Note_off_c, 0, 79, 0
2, 132836, Note_off_c, 0, 67, 0
2, 132896, Note_off_c, 0, 62, 0
2, 132960, Note_off_c, 0, 54, 0
2, 133052, Note_on_c, 0, 78, 86
2, 133060, Note_on_c, 0, 66, 71
2, 133124, Note_off_c, 0, 66, 0
2, 133136, Note_off_c, 0, 78, 0
2, 133220, Note_on_c, 0, 78, 79
2, 133236, Note_on_c, 0, 66, 67
2, 133248, Note_on_c, 0, 43, 58
2, 133256, Control_c, 0, 64, 72
2, 133268, Control_c, 0, 64, 0
2, 133348, Control_c, 0, 64, 56
2, 133360, Control_c, 0, 64, 127
2, 133364, Note_off_c, 0, 78, 0
2, 133372, Note_on_c, 0, 49, 51
2, 133372, Note_on_c, 0, 73, 71
2, 133380, Note_on_c, 0, 70, 62
2, 133396, Note_off_c, 0, 66, 0
2, 133500, Note_off_c, 0, 43, 0
2, 133512, Note_off_c, 0, 49, 0
2, 133524, Note_on_c, 0, 52, 58
2, 133548, Note_off_c, 0, 52, 0
2, 133636, Note_off_c, 0, 70, 0
2, 133640, Note_off_c, 0, 73, 0
2, 133656, Note_on_c, 0, 76, 90
2, 133664, Note_on_c, 0, 64, 57
2, 133668, Note_on_c, 0, 55, 63
2, 133696, Note_off_c, 0, 64, 0
2, 133724, Note_off_c, 0, 76, 0
2, 133812, Note_on_c, 0, 66, 78
2, 133812, Note_on_c, 0, 78, 94
2, 133812, Note_on_c, 0, 58, 46
2, 133828, Note_off_c, 0, 55, 0
2, 133908, Note_off_c, 0, 66, 0
2, 133956, Note_off_c, 0, 78, 0
2, 133956, Note_on_c, 0, 73, 71
2, 133960, Note_on_c, 0, 61, 63
2, 133964, Note_on_c, 0, 70, 63
2, 133976, Note_off_c, 0, 58, 0
2, 134104, Note_off_c, 0, 61, 0
2, 134112, Note_off_c, 0, 70, 0
2, 134112, Note_on_c, 0, 64, 66
2, 134176, Note_off_c, 0, 73, 0
2, 134188, Note_off_c, 0, 64, 0
2, 134264, Note_on_c, 0, 79, 90
2, 134268, Note_on_c, 0, 67, 74
2, 134272, Note_on_c, 0, 70, 75
2, 134308, Note_off_c, 0, 70, 0
2, 134324, Note_off_c, 0, 67, 0
2, 134336, Note_off_c, 0, 79, 0
2, 134544, Note_on_c, 0, 81, 94
2, 134556, Note_on_c, 0, 69, 70
2, 134560, Note_on_c, 0, 75, 70
2, 134564, Note_on_c, 0, 72, 74
2, 134568, Note_on_c, 0, 54, 50
2, 134572, Note_on_c, 0, 60, 59
2, 134572, Note_on_c, 0, 63, 48
2, 134624, Control_c, 0, 64, 88
2, 134640, Control_c, 0, 64, 56
2, 134652, Control_c, 0, 64, 0
2, 134832, Control_c, 0, 64, 72
2, 134844, Control_c, 0, 64, 127
2, 134856, Note_off_c, 0, 81, 0
2, 134876, Note_off_c, 0, 69, 0
2, 134876, Note_off_c, 0, 72, 0
2, 134888, Note_off_c, 0, 75, 0
2, 134888, Note_off_c, 0, 60, 0
2, 134892, Note_off_c, 0, 63, 0
2, 134896, Note_off_c, 0, 54, 0
2, 135240, Note_on_c, 0, 69, 74
2, 135240, Note_on_c, 0, 63, 56
2, 135240, Note_on_c, 0, 60, 63
2, 135240, Note_on_c, 0, 54, 51
2, 135316, Control_c, 0, 64, 88
2, 135328, Control_c, 0, 64, 40
2, 135340, Control_c, 0, 64, 0
2, 135444, Control_c, 0, 64, 72
2, 135456, Control_c, 0, 64, 127
2, 135492, Note_off_c, 0, 54, 0
2, 135532, Note_on_c, 0, 53, 66
2, 135656, Note_off_c, 0, 53, 0
2, 135656, Note_on_c, 0, 54, 67
2, 135772, Note_off_c, 0, 54, 0
2, 135792, Note_on_c, 0, 57, 69
2, 135904, Note_off_c, 0, 57, 0
2, 135908, Note_off_c, 0, 63, 0
2, 135940, Note_on_c, 0, 55, 68
2, 135956, Note_off_c, 0, 60, 0
2, 135992, Note_off_c, 0, 69, 0
2, 136100, Note_off_c, 0, 55, 0
2, 136120, Note_on_c, 0, 64, 52
2, 136124, Note_on_c, 0, 60, 46
2, 136136, Note_on_c, 0, 51, 64
2, 136212, Control_c, 0, 64, 104
2, 136228, Control_c, 0, 64, 56
2, 136240, Control_c, 0, 64, 0
2, 136296, Note_off_c, 0, 51, 0
2, 136296, Note_on_c, 0, 52, 62
2, 136320, Control_c, 0, 64, 24
2, 136332, Control_c, 0, 64, 88
2, 136344, Control_c, 0, 64, 127
2, 136432, Note_off_c, 0, 52, 0
2, 136452, Control_c, 0, 64, 72
2, 136464, Control_c, 0, 64, 0
2, 136468, Note_on_c, 0, 55, 59
2, 136516, Control_c, 0, 64, 24
2, 136528, Control_c, 0, 64, 104
2, 136540, Control_c, 0, 64, 127
2, 136644, Note_off_c, 0, 64, 0
2, 136672, Note_on_c, 0, 54, 57
2, 136684, Note_off_c, 0, 55, 0
2, 136724, Note_off_c, 0, 60, 0
2, 136736, Note_off_c, 0, 54, 0
2, 136944, Note_on_c, 0, 59, 59
2, 136968, Note_on_c, 0, 51, 47
2, 136968, Note_on_c, 0, 39, 52
2, 136972, Control_c, 0, 64, 104
2, 136984, Control_c, 0, 64, 40
2, 136996, Control_c, 0, 64, 0
2, 137076, Control_c, 0, 64, 88
2, 137088, Control_c, 0, 64, 127
2, 137100, Note_on_c, 0, 66, 50
2, 137148, Note_off_c, 0, 59, 0
2, 137148, Note_off_c, 0, 39, 0
2, 137184, Note_off_c, 0, 51, 0
2, 137224, Note_off_c, 0, 66, 0
2, 137228, Note_on_c, 0, 69, 69
2, 137256, Note_off_c, 0, 69, 0
2, 137360, Note_on_c, 0, 71, 73
2, 137420, Note_off_c, 0, 71, 0
2, 137520, Note_on_c, 0, 85, 94
2, 137528, Note_on_c, 0, 63, 47
2, 137528, Note_on_c, 0, 59, 49
2, 137536, Note_on_c, 0, 69, 47
2, 137628, Note_off_c, 0, 69, 0
2, 137644, Note_off_c, 0, 85, 0
2, 137668, Note_off_c, 0, 63, 0
2, 137672, Note_off_c, 0, 59, 0
2, 137672, Note_on_c, 0, 83, 74
2, 137740, Note_off_c, 0, 83, 0
2, 137796, Note_on_c, 0, 90, 90
2, 137804, Note_on_c, 0, 82, 77
2, 137892, Note_off_c, 0, 90, 0
2, 137900, Note_off_c, 0, 82, 0
2, 137928, Note_on_c, 0, 81, 66
2, 137992, Note_off_c, 0, 81, 0
2, 138060, Note_on_c, 0, 90, 92
2, 138072, Note_on_c, 0, 80, 77
2, 138080, Control_c, 0, 64, 104
2, 138088, Note_on_c, 0, 52, 49
2, 138092, Note_on_c, 0, 40, 53
2, 138092, Control_c, 0, 64, 40
2, 138104, Control_c, 0, 64, 0
2, 138172, Control_c, 0, 64, 72
2, 138184, Note_on_c, 0, 81, 71
2, 138184, Control_c, 0, 64, 127
2, 138208, Note_off_c, 0, 80, 0
2, 138228, Note_off_c, 0, 40, 0
2, 138236, Note_off_c, 0, 90, 0
2, 138284, Note_off_c, 0, 52, 0
2, 138296, Note_off_c, 0, 81, 0
2, 138328, Note_on_c, 0, 88, 85
2, 138332, Note_on_c, 0, 83, 63
2, 138384, Note_off_c, 0, 88, 0
2, 138392, Note_off_c, 0, 83, 0
2, 138448, Note_on_c, 0, 74, 60
2, 138508, Note_off_c, 0, 74, 0
2, 138604, Note_on_c, 0, 80, 82
2, 138628, Note_on_c, 0, 59, 38
2, 138632, Note_on_c, 0, 64, 45
2, 138632, Note_on_c, 0, 68, 37
2, 138736, Note_off_c, 0, 80, 0
2, 138736, Note_on_c, 0, 78, 80
2, 138748, Note_off_c, 0, 64, 0
2, 138756, Note_off_c, 0, 68, 0
2, 138780, Note_off_c, 0, 59, 0
2, 138832, Note_off_c, 0, 78, 0
2, 138864, Note_on_c, 0, 83, 86
2, 138880, Note_on_c, 0, 76, 70
2, 138960, Note_off_c, 0, 83, 0
2, 138960, Note_off_c, 0, 76, 0
2, 139000, Note_on_c, 0, 74, 69
2, 139052, Note_off_c, 0, 74, 0
2, 139136, Note_on_c, 0, 83, 92
2, 139136, Control_c, 0, 64, 104
2, 139148, Note_on_c, 0, 72, 66
2, 139148, Control_c, 0, 64, 40
2, 139152, Note_on_c, 0, 45, 48
2, 139160, Note_on_c, 0, 33, 53
2, 139160, Control_c, 0, 64, 0
2, 139216, Control_c, 0, 64, 72
2, 139220, Note_off_c, 0, 72, 0
2, 139228, Control_c, 0, 64, 127
2, 139260, Note_off_c, 0, 83, 0
2, 139260, Note_off_c, 0, 33, 0
2, 139288, Note_on_c, 0, 73, 68
2, 139304, Note_off_c, 0, 45, 0
2, 139380, Note_off_c, 0, 73, 0
2, 139420, Note_on_c, 0, 81, 81
2, 139436, Note_on_c, 0, 67, 64
2, 139504, Note_off_c, 0, 67, 0
2, 139540, Note_on_c, 0, 76, 85
2, 139584, Note_off_c, 0, 76, 0
2, 139592, Note_off_c, 0, 81, 0
2, 139692, Note_on_c, 0, 83, 93
2, 139708, Note_on_c, 0, 67, 49
2, 139712, Note_on_c, 0, 57, 48
2, 139716, Note_on_c, 0, 61, 29
2, 139800, Note_off_c, 0, 67, 0
2, 139804, Note_off_c, 0, 83, 0
2, 139816, Note_on_c, 0, 81, 89
2, 139832, Note_off_c, 0, 57, 0
2, 139848, Note_off_c, 0, 61, 0
2, 139896, Note_off_c, 0, 81, 0
2, 139948, Note_on_c, 0, 88, 91
2, 139952, Note_on_c, 0, 80, 66
2, 140052, Note_off_c, 0, 80, 0
2, 140056, Note_off_c, 0, 88, 0
2, 140072, Note_on_c, 0, 79, 75
2, 140148, Note_off_c, 0, 79, 0
2, 140220, Note_on_c, 0, 88, 97
2, 140220, Note_on_c, 0, 78, 56
2, 140220, Note_on_c, 0, 50, 49
2, 140220, Note_on_c, 0, 38, 56
2, 140244, Control_c, 0, 64, 72
2, 140256, Control_c, 0, 64, 0
2, 140320, Control_c, 0, 64, 56
2, 140332, Note_off_c, 0, 78, 0
2, 140336, Control_c, 0, 64, 127
2, 140340, Note_off_c, 0, 38, 0
2, 140348, Note_on_c, 0, 79, 79
2, 140380, Note_off_c, 0, 88, 0
2, 140408, Note_off_c, 0, 50, 0
2, 140468, Note_off_c, 0, 79, 0
2, 140484, Note_on_c, 0, 81, 70
2, 140484, Note_on_c, 0, 86, 80
2, 140544, Note_off_c, 0, 86, 0
2, 140548, Note_off_c, 0, 81, 0
2, 140624, Note_on_c, 0, 72, 58
2, 140684, Note_off_c, 0, 72, 0
2, 140764, Note_on_c, 0, 78, 84
2, 140780, Note_on_c, 0, 66, 39
2, 140792, Note_on_c, 0, 57, 42
2, 140796, Note_on_c, 0, 60, 49
2, 140888, Note_off_c, 0, 78, 0
2, 140908, Note_on_c, 0, 76, 73
2, 140924, Note_off_c, 0, 66, 0
2, 140928, Note_off_c, 0, 60, 0
2, 140936, Note_off_c, 0, 57, 0
2, 140996, Note_off_c, 0, 76, 0
2, 141044, Note_on_c, 0, 78, 79
2, 141076, Note_on_c, 0, 74, 50
2, 141140, Note_off_c, 0, 74, 0
2, 141164, Note_off_c, 0, 78, 0
2, 141188, Note_on_c, 0, 72, 75
2, 141276, Note_off_c, 0, 72, 0
2, 141376, Note_on_c, 0, 43, 45
2, 141384, Note_on_c, 0, 78, 83
2, 141396, Note_on_c, 0, 70, 63
2, 141420, Control_c, 0, 64, 88
2, 141432, Control_c, 0, 64, 24
2, 141444, Control_c, 0, 64, 0
2, 141488, Note_off_c, 0, 70, 0
2, 141496, Control_c, 0, 64, 56
2, 141508, Control_c, 0, 64, 127
2, 141520, Note_on_c, 0, 71, 67
2, 141616, Note_off_c, 0, 43, 0
2, 141620, Note_off_c, 0, 71, 0
2, 141644, Note_on_c, 0, 75, 71
2, 141652, Note_on_c, 0, 55, 55
2, 141676, Note_off_c, 0, 78, 0
2, 141712, Note_off_c, 0, 75, 0
2, 141764, Note_on_c, 0, 76, 74
2, 141808, Note_off_c, 0, 55, 0
2, 141852, Note_off_c, 0, 76, 0
2, 141896, Note_on_c, 0, 55, 24
2, 141900, Note_on_c, 0, 59, 45
2, 141908, Note_on_c, 0, 85, 85
2, 142012, Note_off_c, 0, 85, 0
2, 142032, Note_on_c, 0, 83, 82
2, 142152, Note_off_c, 0, 83, 0
2, 142168, Note_on_c, 0, 79, 84
2, 142172, Note_on_c, 0, 63, 62
2, 142244, Note_off_c, 0, 79, 0
2, 142296, Note_on_c, 0, 78, 83
2, 142324, Note_off_c, 0, 63, 0
2, 142420, Note_off_c, 0, 78, 0
2, 142440, Note_on_c, 0, 76, 86
2, 142464, Note_on_c, 0, 64, 57
2, 142472, Control_c, 0, 64, 104
2, 142488, Control_c, 0, 64, 24
2, 142500, Control_c, 0, 64, 0
2, 142564, Control_c, 0, 64, 40
2, 142576, Note_off_c, 0, 76, 0
2, 142576, Note_on_c, 0, 74, 83
2, 142580, Control_c, 0, 64, 127
2, 142620, Note_off_c, 0, 64, 0
2, 142668, Note_off_c, 0, 74, 0
2, 142700, Note_on_c, 0, 71, 80
2, 142756, Note_off_c, 0, 71, 0
2, 142832, Note_on_c, 0, 67, 75
2, 142880, Note_off_c, 0, 59, 0
2, 142896, Note_off_c, 0, 67, 0
2, 142976, Note_on_c, 0, 64, 72
2, 143092, Note_off_c, 0, 64, 0
2, 143100, Note_on_c, 0, 62, 71
2, 143208, Note_off_c, 0, 62, 0
2, 143224, Note_off_c, 0, 55, 0
2, 143236, Note_on_c, 0, 59, 70
2, 143292, Note_off_c, 0, 59, 0
2, 143376, Note_on_c, 0, 74, 83
2, 143432, Note_off_c, 0, 74, 0
2, 143600, Note_on_c, 0, 55, 42
2, 143600, Note_on_c, 0, 43, 44
2, 143600, Note_on_c, 0, 59, 58
2, 143600, Note_on_c, 0, 62, 64
2, 143600, Note_on_c, 0, 64, 84
2, 143752, Control_c, 0, 64, 88
2, 143764, Control_c, 0, 64, 24
2, 143776, Control_c, 0, 64, 0
2, 143856, Control_c, 0, 64, 40
2, 143868, Control_c, 0, 64, 104
2, 143884, Control_c, 0, 64, 127
2, 143892, Note_off_c, 0, 62, 0
2, 143924, Note_off_c, 0, 55, 0
2, 143924, Note_off_c, 0, 59, 0
2, 143928, Note_off_c, 0, 64, 0
2, 144112, Note_off_c, 0, 43, 0
2, 144212, Note_on_c, 0, 66, 83
2, 144228, Note_on_c, 0, 63, 61
2, 144228, Note_on_c, 0, 57, 58
2, 144236, Note_on_c, 0, 59, 50
2, 144244, Note_on_c, 0, 42, 58
2, 144352, Control_c, 0, 64, 104
2, 144364, Control_c, 0, 64, 40
2, 144376, Control_c, 0, 64, 0
2, 144456, Control_c, 0, 64, 40
2, 144468, Control_c, 0, 64, 104
2, 144484, Control_c, 0, 64, 127
2, 144536, Note_off_c, 0, 59, 0
2, 144544, Note_off_c, 0, 57, 0
2, 144576, Note_off_c, 0, 66, 0
2, 144580, Note_off_c, 0, 63, 0
2, 144732, Note_off_c, 0, 42, 0
2, 144768, Note_on_c, 0, 67, 75
2, 144776, Note_on_c, 0, 55, 52
2, 144792, Note_on_c, 0, 40, 49
2, 144792, Note_on_c, 0, 59, 44
2, 144796, Note_on_c, 0, 64, 41
2, 144884, Control_c, 0, 64, 104
2, 144900, Control_c, 0, 64, 56
2, 144912, Control_c, 0, 64, 0
2, 145016, Control_c, 0, 64, 72
2, 145028, Control_c, 0, 64, 127
2, 145072, Note_off_c, 0, 59, 0
2, 145116, Note_off_c, 0, 67, 0
2, 145144, Note_off_c, 0, 55, 0
2, 145192, Note_off_c, 0, 64, 0
2, 145224, Note_off_c, 0, 40, 0
2, 145368, Note_on_c, 0, 66, 72
2, 145368, Note_on_c, 0, 55, 52
2, 145368, Note_on_c, 0, 61, 46
2, 145368, Note_on_c, 0, 45, 56
2, 145536, Control_c, 0, 64, 88
2, 145552, Control_c, 0, 64, 24
2, 145564, Control_c, 0, 64, 0
2, 145640, Control_c, 0, 64, 72
2, 145652, Control_c, 0, 64, 127
2, 145700, Note_off_c, 0, 45, 0
2, 145776, Note_off_c, 0, 55, 0
2, 145824, Note_off_c, 0, 66, 0
2, 145840, Note_off_c, 0, 61, 0
2, 145900, Note_on_c, 0, 64, 62
2, 145988, Note_off_c, 0, 64, 0
2, 146104, Note_on_c, 0, 54, 58
2, 146136, Control_c, 0, 64, 72
2, 146144, Note_on_c, 0, 46, 33
2, 146144, Note_on_c, 0, 34, 37
2, 146152, Control_c, 0, 64, 0
2, 146188, Control_c, 0, 64, 24
2, 146204, Control_c, 0, 64, 88
2, 146216, Control_c, 0, 64, 127
2, 146244, Note_on_c, 0, 61, 46
2, 146252, Note_off_c, 0, 54, 0
2, 146280, Note_off_c, 0, 34, 0
2, 146316, Note_off_c, 0, 46, 0
2, 146392, Note_off_c, 0, 61, 0
2, 146392, Note_on_c, 0, 64, 66
2, 146424, Note_off_c, 0, 64, 0
2, 146524, Note_on_c, 0, 66, 57
2, 146556, Note_off_c, 0, 66, 0
2, 146664, Note_on_c, 0, 54, 41
2, 146676, Note_on_c, 0, 64, 40
2, 146680, Note_on_c, 0, 61, 33
2, 146712, Note_on_c, 0, 80, 88
2, 146788, Note_off_c, 0, 64, 0
2, 146808, Note_off_c, 0, 80, 0
2, 146816, Note_off_c, 0, 61, 0
2, 146824, Note_on_c, 0, 78, 84
2, 146840, Note_off_c, 0, 54, 0
2, 146924, Note_off_c, 0, 78, 0
2, 146968, Note_on_c, 0, 85, 88
2, 147064, Note_off_c, 0, 85, 0
2, 147100, Note_on_c, 0, 76, 66
2, 147172, Note_off_c, 0, 76, 0
2, 147232, Note_on_c, 0, 85, 88
2, 147240, Note_on_c, 0, 75, 75
2, 147248, Control_c, 0, 64, 56
2, 147256, Control_c, 0, 64, 0
2, 147260, Note_on_c, 0, 47, 38
2, 147268, Note_on_c, 0, 35, 42
2, 147324, Control_c, 0, 64, 40
2, 147336, Control_c, 0, 64, 127
2, 147356, Note_off_c, 0, 75, 0
2, 147360, Note_on_c, 0, 76, 70
2, 147368, Note_off_c, 0, 85, 0
2, 147424, Note_off_c, 0, 35, 0
2, 147460, Note_off_c, 0, 76, 0
2, 147472, Note_off_c, 0, 47, 0
2, 147492, Note_on_c, 0, 83, 75
2, 147500, Note_on_c, 0, 78, 50
2, 147548, Note_off_c, 0, 83, 0
2, 147564, Note_off_c, 0, 78, 0
2, 147628, Note_on_c, 0, 69, 48
2, 147688, Note_off_c, 0, 69, 0
2, 147756, Note_on_c, 0, 75, 83
2, 147780, Note_on_c, 0, 59, 42
2, 147784, Note_on_c, 0, 63, 35
2, 147868, Note_off_c, 0, 75, 0
2, 147884, Note_on_c, 0, 73, 73
2, 147900, Note_off_c, 0, 63, 0
2, 147912, Note_off_c, 0, 59, 0
2, 147968, Note_off_c, 0, 73, 0
2, 148008, Note_on_c, 0, 78, 81
2, 148040, Note_on_c, 0, 71, 47
2, 148088, Note_off_c, 0, 71, 0
2, 148112, Note_off_c, 0, 78, 0
2, 148140, Note_on_c, 0, 69, 69
2, 148184, Note_off_c, 0, 69, 0
2, 148280, Note_on_c, 0, 78, 89
2, 148300, Note_on_c, 0, 67, 63
2, 148300, Control_c, 0, 64, 40
2, 148308, Note_on_c, 0, 40, 58
2, 148316, Control_c, 0, 64, 0
2, 148320, Note_on_c, 0, 28, 46
2, 148364, Control_c, 0, 64, 56
2, 148380, Control_c, 0, 64, 127
2, 148424, Note_off_c, 0, 78, 0
2, 148424, Note_off_c, 0, 67, 0
2, 148424, Note_off_c, 0, 28, 0
2, 148440, Note_on_c, 0, 68, 49
2, 148484, Note_off_c, 0, 40, 0
2, 148540, Note_off_c, 0, 68, 0
2, 148564, Note_on_c, 0, 76, 90
2, 148580, Note_on_c, 0, 62, 51
2, 148640, Note_off_c, 0, 62, 0
2, 148692, Note_on_c, 0, 71, 81
2, 148712, Note_off_c, 0, 76, 0
2, 148744, Note_off_c, 0, 71, 0
2, 148832, Note_on_c, 0, 78, 85
2, 148852, Note_on_c, 0, 56, 38
2, 148852, Note_on_c, 0, 62, 40
2, 148864, Note_on_c, 0, 52, 37
2, 148928, Note_off_c, 0, 78, 0
2, 148944, Note_on_c, 0, 76, 79
2, 148952, Note_off_c, 0, 62, 0
2, 149008, Note_off_c, 0, 52, 0
2, 149008, Note_off_c, 0, 56, 0
2, 149032, Note_off_c, 0, 76, 0
2, 149088, Note_on_c, 0, 83, 92
2, 149088, Note_on_c, 0, 75, 73
2, 149192, Note_off_c, 0, 75, 0
2, 149200, Note_off_c, 0, 83, 0
2, 149220, Note_on_c, 0, 74, 74
2, 149308, Note_off_c, 0, 74, 0
2, 149376, Note_on_c, 0, 83, 92
2, 149376, Note_on_c, 0, 73, 70
2, 149384, Control_c, 0, 64, 88
2, 149396, Control_c, 0, 64, 24
2, 149400, Note_on_c, 0, 33, 52
2, 149404, Note_on_c, 0, 45, 48
2, 149412, Control_c, 0, 64, 0
2, 149476, Control_c, 0, 64, 72
2, 149488, Control_c, 0, 64, 127
2, 149508, Note_off_c, 0, 73, 0
2, 149508, Note_on_c, 0, 74, 79
2, 149536, Note_off_c, 0, 83, 0
2, 149544, Note_off_c, 0, 33, 0
2, 149588, Note_off_c, 0, 45, 0
2, 149624, Note_off_c, 0, 74, 0
2, 149660, Note_on_c, 0, 76, 80
2, 149688, Note_on_c, 0, 81, 72
2, 149748, Note_off_c, 0, 81, 0
2, 149764, Note_off_c, 0, 76, 0
2, 149800, Note_on_c, 0, 67, 75
2, 149888, Note_off_c, 0, 67, 0
2, 149932, Note_on_c, 0, 61, 42
2, 149944, Note_on_c, 0, 57, 40
2, 149952, Note_on_c, 0, 73, 80
2, 150020, Note_off_c, 0, 73, 0
2, 150072, Note_on_c, 0, 71, 83
2, 150188, Note_off_c, 0, 71, 0
2, 150212, Note_on_c, 0, 76, 90
2, 150224, Note_on_c, 0, 69, 69
2, 150284, Note_off_c, 0, 61, 0
2, 150284, Note_off_c, 0, 57, 0
2, 150292, Note_off_c, 0, 69, 0
2, 150320, Note_off_c, 0, 76, 0
2, 150340, Note_on_c, 0, 67, 72
2, 150400, Note_off_c, 0, 67, 0
2, 150492, Control_c, 0, 64, 72
2, 150500, Note_on_c, 0, 76, 91
2, 150504, Note_on_c, 0, 66, 70
2, 150504, Control_c, 0, 64, 0
2, 150524, Note_on_c, 0, 60, 48
2, 150524, Note_on_c, 0, 50, 59
2, 150584, Control_c, 0, 64, 56
2, 150592, Note_off_c, 0, 76, 0
2, 150596, Control_c, 0, 64, 127
2, 150636, Note_on_c, 0, 75, 88
2, 150740, Note_off_c, 0, 60, 0
2, 150744, Note_off_c, 0, 75, 0
2, 150784, Note_on_c, 0, 74, 88
2, 150788, Note_on_c, 0, 59, 46
2, 150860, Note_off_c, 0, 74, 0
2, 150864, Note_off_c, 0, 59, 0
2, 150896, Note_on_c, 0, 58, 47
2, 150900, Note_on_c, 0, 73, 84
2, 150976, Note_off_c, 0, 66, 0
2, 150988, Note_off_c, 0, 58, 0
2, 151000, Note_off_c, 0, 73, 0
2, 151028, Note_on_c, 0, 57, 49
2, 151036, Note_on_c, 0, 72, 89
2, 151120, Note_off_c, 0, 72, 0
2, 151152, Note_off_c, 0, 57, 0
2, 151164, Note_off_c, 0, 50, 0
2, 151164, Note_on_c, 0, 71, 85
2, 151168, Note_on_c, 0, 65, 53
2, 151172, Note_on_c, 0, 56, 50
2, 151236, Note_off_c, 0, 65, 0
2, 151280, Note_off_c, 0, 71, 0
2, 151304, Note_on_c, 0, 69, 81
2, 151304, Note_on_c, 0, 60, 56
2, 151372, Note_off_c, 0, 56, 0
2, 151376, Note_off_c, 0, 69, 0
2, 151420, Note_off_c, 0, 60, 0
2, 151424, Note_on_c, 0, 68, 74
2, 151424, Note_on_c, 0, 59, 59
2, 151512, Note_off_c, 0, 68, 0
2, 151584, Note_off_c, 0, 59, 0
2, 151604, Note_on_c, 0, 77, 93
2, 151612, Note_on_c, 0, 68, 61
2, 151616, Control_c, 0, 64, 104
2, 151620, Note_on_c, 0, 62, 51
2, 151628, Note_on_c, 0, 52, 52
2, 151628, Control_c, 0, 64, 40
2, 151640, Control_c, 0, 64, 0
2, 151716, Control_c, 0, 64, 40
2, 151720, Note_off_c, 0, 77, 0
2, 151732, Control_c, 0, 64, 127
2, 151748, Note_on_c, 0, 76, 81
2, 151760, Note_off_c, 0, 62, 0
2, 151760, Note_on_c, 0, 61, 62
2, 151848, Note_off_c, 0, 76, 0
2, 151852, Note_off_c, 0, 61, 0
2, 151872, Note_on_c, 0, 75, 77
2, 151892, Note_on_c, 0, 60, 63
2, 151936, Note_off_c, 0, 68, 0
2, 151944, Note_off_c, 0, 75, 0
2, 151988, Note_on_c, 0, 74, 84
2, 152008, Note_off_c, 0, 60, 0
2, 152008, Note_on_c, 0, 58, 49
2, 152076, Note_off_c, 0, 52, 0
2, 152096, Note_off_c, 0, 58, 0
2, 152128, Note_off_c, 0, 74, 0
2, 152140, Note_on_c, 0, 73, 89
2, 152160, Note_on_c, 0, 67, 59
2, 152172, Control_c, 0, 64, 88
2, 152184, Note_on_c, 0, 52, 16
2, 152188, Control_c, 0, 64, 24
2, 152196, Note_on_c, 0, 58, 29
2, 152200, Control_c, 0, 64, 0
2, 152236, Note_off_c, 0, 67, 0
2, 152264, Note_off_c, 0, 58, 0
2, 152264, Control_c, 0, 64, 88
2, 152280, Note_off_c, 0, 73, 0
2, 152280, Note_on_c, 0, 71, 89
2, 152280, Note_on_c, 0, 62, 61
2, 152280, Control_c, 0, 64, 127
2, 152328, Note_off_c, 0, 52, 0
2, 152392, Note_off_c, 0, 62, 0
2, 152404, Note_off_c, 0, 71, 0
2, 152412, Note_on_c, 0, 70, 79
2, 152412, Note_on_c, 0, 61, 47
2, 152536, Note_on_c, 0, 73, 89
2, 152552, Note_on_c, 0, 64, 61
2, 152624, Note_off_c, 0, 73, 0
2, 152652, Note_off_c, 0, 61, 0
2, 152696, Control_c, 0, 64, 88
2, 152704, Note_on_c, 0, 54, 51
2, 152708, Note_on_c, 0, 79, 99
2, 152708, Control_c, 0, 64, 0
2, 152800, Control_c, 0, 64, 104
2, 152808, Note_off_c, 0, 64, 0
2, 152808, Note_off_c, 0, 79, 0
2, 152816, Control_c, 0, 64, 127
2, 152828, Note_on_c, 0, 63, 53
2, 152840, Note_on_c, 0, 78, 86
2, 152916, Note_off_c, 0, 63, 0
2, 152924, Note_off_c, 0, 70, 0
2, 152940, Note_off_c, 0, 78, 0
2, 152956, Note_on_c, 0, 62, 62
2, 152972, Note_on_c, 0, 77, 93
2, 153052, Note_off_c, 0, 62, 0
2, 153064, Note_off_c, 0, 77, 0
2, 153088, Note_on_c, 0, 61, 57
2, 153092, Note_on_c, 0, 76, 84
2, 153164, Note_off_c, 0, 54, 0
2, 153196, Note_off_c, 0, 61, 0
2, 153220, Note_off_c, 0, 76, 0
2, 153244, Note_on_c, 0, 74, 83
2, 153248, Note_on_c, 0, 66, 40
2, 153256, Note_on_c, 0, 71, 60
2, 153284, Note_on_c, 0, 59, 45
2, 153320, Control_c, 0, 64, 88
2, 153332, Control_c, 0, 64, 0
2, 153372, Note_off_c, 0, 74, 0
2, 153388, Note_on_c, 0, 73, 84
2, 153416, Control_c, 0, 64, 40
2, 153428, Control_c, 0, 64, 127
2, 153516, Note_off_c, 0, 73, 0
2, 153528, Note_on_c, 0, 76, 88
2, 153596, Note_off_c, 0, 59, 0
2, 153628, Note_off_c, 0, 71, 0
2, 153632, Note_off_c, 0, 76, 0
2, 153644, Note_on_c, 0, 74, 89
2, 153684, Note_off_c, 0, 74, 0
2, 153688, Note_off_c, 0, 66, 0
2, 153768, Note_on_c, 0, 53, 53
2, 153824, Note_on_c, 0, 59, 35
2, 153832, Note_on_c, 0, 62, 27
2, 153860, Note_on_c, 0, 83, 94
2, 153872, Note_on_c, 0, 74, 77
2, 153892, Note_on_c, 0, 68, 49
2, 153896, Control_c, 0, 64, 56
2, 153908, Control_c, 0, 64, 0
2, 153956, Note_off_c, 0, 74, 0
2, 153984, Control_c, 0, 64, 72
2, 154000, Control_c, 0, 64, 127
2, 154012, Note_off_c, 0, 83, 0
2, 154060, Note_on_c, 0, 82, 80
2, 154064, Note_on_c, 0, 73, 70
2, 154128, Note_off_c, 0, 53, 0
2, 154136, Note_off_c, 0, 73, 0
2, 154188, Note_off_c, 0, 82, 0
2, 154232, Note_on_c, 0, 83, 90
2, 154232, Note_on_c, 0, 74, 69
2, 154304, Note_off_c, 0, 83, 0
2, 154304, Note_off_c, 0, 74, 0
2, 154388, Note_on_c, 0, 84, 99
2, 154396, Note_on_c, 0, 75, 71
2, 154448, Note_off_c, 0, 75, 0
2, 154476, Note_off_c, 0, 84, 0
2, 154488, Note_off_c, 0, 59, 0
2, 154504, Note_off_c, 0, 68, 0
2, 154556, Note_on_c, 0, 85, 92
2, 154568, Note_off_c, 0, 62, 0
2, 154572, Note_on_c, 0, 76, 72
2, 154604, Note_off_c, 0, 76, 0
2, 154680, Note_on_c, 0, 68, 70
2, 154692, Note_on_c, 0, 59, 58
2, 154700, Note_off_c, 0, 85, 0
2, 154768, Note_on_c, 0, 86, 96
2, 154776, Note_on_c, 0, 77, 81
2, 154828, Note_off_c, 0, 59, 0
2, 154828, Note_off_c, 0, 77, 0
2, 154876, Note_off_c, 0, 86, 0
2, 154924, Note_off_c, 0, 68, 0
2, 155068, Note_on_c, 0, 86, 95
2, 155076, Note_on_c, 0, 78, 71
2, 155096, Note_on_c, 0, 69, 61
2, 155096, Control_c, 0, 64, 88
2, 155104, Note_on_c, 0, 57, 64
2, 155108, Control_c, 0, 64, 24
2, 155120, Control_c, 0, 64, 0
2, 155184, Note_off_c, 0, 57, 0
2, 155200, Control_c, 0, 64, 72
2, 155212, Control_c, 0, 64, 127
2, 155216, Note_off_c, 0, 69, 0
2, 155256, Note_off_c, 0, 78, 0
2, 155264, Note_off_c, 0, 86, 0
2, 155324, Note_on_c, 0, 85, 84
2, 155344, Note_on_c, 0, 79, 74
2, 155348, Note_on_c, 0, 76, 62
2, 155368, Note_off_c, 0, 79, 0
2, 155464, Note_off_c, 0, 85, 0
2, 155476, Note_off_c, 0, 76, 0
2, 155520, Note_on_c, 0, 83, 91
2, 155532, Note_on_c, 0, 78, 39
2, 155544, Note_on_c, 0, 74, 49
2, 155560, Note_off_c, 0, 78, 0
2, 155636, Note_off_c, 0, 83, 0
2, 155668, Note_off_c, 0, 74, 0
2, 155692, Note_on_c, 0, 85, 86
2, 155712, Note_on_c, 0, 79, 74
2, 155720, Note_on_c, 0, 76, 63
2, 155756, Note_off_c, 0, 79, 0
2, 155828, Note_off_c, 0, 85, 0
2, 155848, Note_off_c, 0, 76, 0
2, 155880, Note_on_c, 0, 83, 88
2, 155888, Note_on_c, 0, 78, 56
2, 155892, Note_on_c, 0, 74, 59
2, 155904, Control_c, 0, 64, 72
2, 155916, Control_c, 0, 64, 56
2, 155932, Control_c, 0, 64, 88
2, 155944, Control_c, 0, 64, 127
2, 155948, Note_off_c, 0, 78, 0
2, 156012, Note_off_c, 0, 83, 0
2, 156024, Note_off_c, 0, 74, 0
2, 156056, Note_on_c, 0, 85, 84
2, 156060, Note_on_c, 0, 73, 50
2, 156076, Note_on_c, 0, 76, 71
2, 156124, Note_off_c, 0, 76, 0
2, 156192, Note_off_c, 0, 85, 0
2, 156236, Note_off_c, 0, 73, 0
2, 156244, Note_on_c, 0, 86, 81
2, 156260, Note_on_c, 0, 71, 51
2, 156260, Note_on_c, 0, 74, 58
2, 156300, Note_off_c, 0, 86, 0
2, 156328, Note_off_c, 0, 71, 0
2, 156360, Note_off_c, 0, 74, 0
2, 156456, Note_on_c, 0, 81, 74
2, 156464, Note_on_c, 0, 73, 46
2, 156468, Note_on_c, 0, 76, 67
2, 156492, Control_c, 0, 64, 104
2, 156504, Control_c, 0, 64, 56
2, 156516, Control_c, 0, 64, 0
2, 156572, Note_off_c, 0, 76, 0
2, 156596, Control_c, 0, 64, 88
2, 156608, Control_c, 0, 64, 127
2, 156624, Note_off_c, 0, 81, 0
2, 156648, Note_off_c, 0, 73, 0
2, 156656, Note_on_c, 0, 79, 72
2, 156668, Note_on_c, 0, 74, 64
2, 156676, Note_on_c, 0, 71, 50
2, 156736, Note_off_c, 0, 79, 0
2, 156756, Note_off_c, 0, 74, 0
2, 156792, Note_off_c, 0, 71, 0
2, 156848, Note_on_c, 0, 81, 74
2, 156860, Note_on_c, 0, 73, 44
2, 156868, Note_on_c, 0, 69, 42
2, 156916, Note_off_c, 0, 73, 0
2, 157012, Note_off_c, 0, 81, 0
2, 157020, Note_off_c, 0, 69, 0
2, 157048, Note_on_c, 0, 83, 84
2, 157064, Note_on_c, 0, 71, 59
2, 157072, Note_on_c, 0, 67, 31
2, 157128, Note_off_c, 0, 83, 0
2, 157132, Note_off_c, 0, 71, 0
2, 157236, Note_off_c, 0, 67, 0
2, 157268, Note_on_c, 0, 78, 73
2, 157284, Note_on_c, 0, 73, 53
2, 157296, Note_on_c, 0, 69, 57
2, 157312, Control_c, 0, 64, 56
2, 157324, Control_c, 0, 64, 0
2, 157388, Control_c, 0, 64, 40
2, 157404, Control_c, 0, 64, 127
2, 157436, Note_off_c, 0, 73, 0
2, 157468, Note_off_c, 0, 78, 0
2, 157476, Note_off_c, 0, 69, 0
2, 157500, Note_on_c, 0, 76, 81
2, 157500, Note_on_c, 0, 71, 64
2, 157508, Note_on_c, 0, 67, 52
2, 157556, Note_off_c, 0, 67, 0
2, 157568, Note_off_c, 0, 71, 0
2, 157580, Note_on_c, 0, 67, 20
2, 157612, Note_off_c, 0, 76, 0
2, 157684, Note_off_c, 0, 67, 0
2, 157752, Note_on_c, 0, 78, 71
2, 157764, Note_on_c, 0, 69, 50
2, 157768, Note_on_c, 0, 59, 50
2, 157768, Note_on_c, 0, 75, 50
2, 157780, Control_c, 0, 64, 72
2, 157796, Control_c, 0, 64, 0
2, 157860, Control_c, 0, 64, 56
2, 157868, Note_off_c, 0, 69, 0
2, 157872, Note_off_c, 0, 75, 0
2, 157872, Control_c, 0, 64, 127
2, 157940, Note_off_c, 0, 78, 0
2, 158044, Note_off_c, 0, 59, 0
2, 158064, Note_on_c, 0, 79, 71
2, 158064, Note_on_c, 0, 67, 48
2, 158076, Note_on_c, 0, 76, 59
2, 158088, Note_on_c, 0, 64, 48
2, 158108, Control_c, 0, 64, 56
2, 158116, Control_c, 0, 64, 0
2, 158176, Note_off_c, 0, 76, 0
2, 158184, Control_c, 0, 64, 56
2, 158196, Control_c, 0, 64, 127
2, 158228, Note_off_c, 0, 79, 0
2, 158404, Note_off_c, 0, 64, 0
2, 158408, Note_on_c, 0, 73, 69
2, 158432, Note_on_c, 0, 69, 51
2, 158436, Note_on_c, 0, 57, 30
2, 158460, Control_c, 0, 64, 104
2, 158472, Control_c, 0, 64, 24
2, 158484, Control_c, 0, 64, 0
2, 158536, Control_c, 0, 64, 72
2, 158548, Control_c, 0, 64, 127
2, 158556, Note_off_c, 0, 57, 0
2, 158616, Note_off_c, 0, 67, 0
2, 158692, Note_off_c, 0, 73, 0
2, 158744, Note_off_c, 0, 69, 0
2, 158820, Note_on_c, 0, 74, 64
2, 158832, Note_on_c, 0, 66, 50
2, 158860, Note_on_c, 0, 38, 53
2, 158864, Control_c, 0, 64, 72
2, 158876, Control_c, 0, 64, 24
2, 158888, Control_c, 0, 64, 0
2, 159024, Control_c, 0, 64, 40
2, 159032, Note_on_c, 0, 45, 52
2, 159040, Note_off_c, 0, 66, 0
2, 159040, Control_c, 0, 64, 104
2, 159044, Note_off_c, 0, 74, 0
2, 159052, Control_c, 0, 64, 127
2, 159056, Note_off_c, 0, 38, 0
2, 159140, Note_off_c, 0, 45, 0
2, 159172, Note_on_c, 0, 50, 46
2, 159204, Note_off_c, 0, 50, 0
2, 159320, Note_on_c, 0, 57, 55
2, 159516, Note_on_c, 0, 62, 46
2, 159524, Note_on_c, 0, 66, 66
2, 159668, Note_off_c, 0, 66, 0
2, 159680, Note_off_c, 0, 62, 0
2, 159680, Note_on_c, 0, 67, 68
2, 159716, Note_off_c, 0, 57, 0
2, 159800, Note_off_c, 0, 67, 0
2, 159836, Note_on_c, 0, 69, 71
2, 159968, Note_off_c, 0, 69, 0
2, 159992, Note_on_c, 0, 74, 80
2, 160132, Note_off_c, 0, 74, 0
2, 160168, Note_on_c, 0, 71, 74
2, 160192, Control_c, 0, 64, 88
2, 160196, Note_on_c, 0, 50, 50
2, 160204, Control_c, 0, 64, 0
2, 160312, Control_c, 0, 64, 88
2, 160328, Control_c, 0, 64, 127
2, 160352, Note_on_c, 0, 57, 48
2, 160372, Note_off_c, 0, 50, 0
2, 160448, Note_off_c, 0, 57, 0
2, 160496, Note_on_c, 0, 62, 60
2, 160612, Note_off_c, 0, 62, 0
2, 160632, Note_on_c, 0, 64, 61
2, 160780, Note_off_c, 0, 64, 0
2, 160808, Note_on_c, 0, 66, 69
2, 160904, Note_off_c, 0, 66, 0
2, 160944, Note_on_c, 0, 67, 73
2, 160964, Note_off_c, 0, 71, 0
2, 161068, Note_off_c, 0, 67, 0
2, 161080, Note_on_c, 0, 69, 79
2, 161196, Note_off_c, 0, 69, 0
2, 161240, Note_on_c, 0, 78, 90
2, 161416, Note_off_c, 0, 78, 0
2, 161472, Note_on_c, 0, 76, 82
2, 161504, Note_on_c, 0, 47, 40
2, 161536, Control_c, 0, 64, 72
2, 161548, Control_c, 0, 64, 0
2, 161652, Note_on_c, 0, 54, 60
2, 161668, Control_c, 0, 64, 127
2, 161700, Note_off_c, 0, 47, 0
2, 161776, Note_off_c, 0, 54, 0
2, 161808, Note_on_c, 0, 59, 50
2, 161940, Note_on_c, 0, 61, 59
2, 161956, Note_off_c, 0, 76, 0
2, 161968, Note_off_c, 0, 59, 0
2, 162076, Note_off_c, 0, 61, 0
2, 162096, Note_on_c, 0, 62, 66
2, 162236, Note_off_c, 0, 62, 0
2, 162260, Note_on_c, 0, 64, 69
2, 162324, Note_off_c, 0, 64, 0
2, 162412, Note_on_c, 0, 66, 72
2, 162572, Note_off_c, 0, 66, 0
2, 162580, Note_on_c, 0, 74, 82
2, 162740, Note_off_c, 0, 74, 0
2, 162816, Note_on_c, 0, 73, 79
2, 162840, Note_on_c, 0, 68, 55
2, 162844, Note_on_c, 0, 40, 46
2, 162892, Control_c, 0, 64, 88
2, 162904, Control_c, 0, 64, 0
2, 163012, Control_c, 0, 64, 104
2, 163024, Control_c, 0, 64, 127
2, 163032, Note_on_c, 0, 47, 47
2, 163116, Note_off_c, 0, 40, 0
2, 163144, Note_off_c, 0, 47, 0
2, 163172, Note_on_c, 0, 52, 61
2, 163248, Note_off_c, 0, 52, 0
2, 163352, Note_on_c, 0, 59, 60
2, 163492, Note_on_c, 0, 62, 60
2, 163664, Note_on_c, 0, 64, 62
2, 163744, Note_off_c, 0, 73, 0
2, 163788, Note_off_c, 0, 68, 0
2, 163852, Note_on_c, 0, 73, 73
2, 163872, Note_on_c, 0, 68, 55
2, 164064, Note_off_c, 0, 64, 0
2, 164068, Note_off_c, 0, 73, 0
2, 164080, Note_off_c, 0, 62, 0
2, 164084, Note_on_c, 0, 74, 88
2, 164116, Note_off_c, 0, 59, 0
2, 164216, Note_off_c, 0, 74, 0
2, 164224, Note_off_c, 0, 68, 0
2, 164244, Note_on_c, 0, 71, 85
2, 164324, Note_off_c, 0, 71, 0
2, 164448, Note_on_c, 0, 45, 50
2, 164516, Control_c, 0, 64, 56
2, 164524, Note_on_c, 0, 71, 78
2, 164532, Control_c, 0, 64, 0
2, 164536, Note_on_c, 0, 67, 69
2, 164680, Control_c, 0, 64, 127
2, 164720, Note_on_c, 0, 52, 48
2, 164804, Note_off_c, 0, 45, 0
2, 164820, Note_off_c, 0, 52, 0
2, 164860, Note_on_c, 0, 57, 50
2, 164992, Note_off_c, 0, 57, 0
2, 165000, Note_on_c, 0, 59, 55
2, 165040, Note_off_c, 0, 67, 0
2, 165148, Note_off_c, 0, 59, 0
2, 165148, Note_on_c, 0, 61, 59
2, 165288, Note_on_c, 0, 67, 64
2, 165292, Note_off_c, 0, 71, 0
2, 165328, Note_off_c, 0, 61, 0
2, 165436, Note_on_c, 0, 69, 81
2, 165580, Note_on_c, 0, 74, 88
2, 165628, Note_off_c, 0, 69, 0
2, 165752, Note_off_c, 0, 74, 0
2, 165752, Note_on_c, 0, 73, 84
2, 165772, Note_on_c, 0, 45, 48
2, 165820, Control_c, 0, 64, 88
2, 165832, Control_c, 0, 64, 0
2, 165928, Control_c, 0, 64, 104
2, 165932, Note_on_c, 0, 52, 55
2, 165940, Control_c, 0, 64, 127
2, 165968, Note_off_c, 0, 45, 0
2, 166036, Note_off_c, 0, 52, 0
2, 166056, Note_on_c, 0, 57, 66
2, 166092, Note_off_c, 0, 67, 0
2, 166116, Note_off_c, 0, 57, 0
2, 166192, Note_on_c, 0, 62, 70
2, 166364, Note_off_c, 0, 73, 0
2, 166364, Note_off_c, 0, 62, 0
2, 166384, Note_on_c, 0, 67, 74
2, 166412, Note_on_c, 0, 64, 34
2, 166580, Note_on_c, 0, 69, 83
2, 166584, Note_off_c, 0, 64, 0
2, 166736, Note_on_c, 0, 74, 85
2, 166848, Note_off_c, 0, 74, 0
2, 166872, Note_on_c, 0, 78, 86
2, 166948, Note_off_c, 0, 78, 0
2, 166996, Note_off_c, 0, 69, 0
2, 167080, Note_on_c, 0, 76, 91
2, 167084, Note_on_c, 0, 73, 58
2, 167136, Note_on_c, 0, 45, 42
2, 167160, Control_c, 0, 64, 88
2, 167172, Control_c, 0, 64, 24
2, 167184, Control_c, 0, 64, 0
2, 167256, Control_c, 0, 64, 40
2, 167268, Control_c, 0, 64, 127
2, 167284, Note_on_c, 0, 52, 46
2, 167380, Note_off_c, 0, 73, 0
2, 167380, Note_off_c, 0, 45, 0
2, 167396, Note_off_c, 0, 52, 0
2, 167412, Note_on_c, 0, 57, 57
2, 167416, Note_off_c, 0, 67, 0
2, 167472, Note_off_c, 0, 57, 0
2, 167576, Note_on_c, 0, 64, 66
2, 167688, Note_off_c, 0, 76, 0
2, 167716, Note_on_c, 0, 67, 75
2, 167824, Note_off_c, 0, 67, 0
2, 167864, Note_on_c, 0, 73, 83
2, 167980, Note_off_c, 0, 73, 0
2, 168036, Note_on_c, 0, 83, 97
2, 168188, Note_off_c, 0, 83, 0
2, 168208, Note_off_c, 0, 64, 0
2, 168244, Note_on_c, 0, 57, 56
2, 168352, Note_on_c, 0, 83, 88
2, 168440, Note_off_c, 0, 83, 0
2, 168560, Note_on_c, 0, 83, 93
2, 168572, Note_on_c, 0, 73, 56
2, 168576, Note_on_c, 0, 67, 44
2, 168596, Control_c, 0, 64, 56
2, 168612, Control_c, 0, 64, 0
2, 168664, Control_c, 0, 64, 56
2, 168680, Control_c, 0, 64, 127
2, 168724, Note_off_c, 0, 83, 0
2, 168800, Note_on_c, 0, 81, 86
2, 168808, Note_on_c, 0, 66, 59
2, 168816, Note_off_c, 0, 67, 0
2, 168948, Note_off_c, 0, 66, 0
2, 168964, Note_off_c, 0, 81, 0
2, 168996, Note_on_c, 0, 64, 40
2, 169012, Note_on_c, 0, 79, 84
2, 169048, Note_off_c, 0, 79, 0
2, 169100, Note_off_c, 0, 73, 0
2, 169248, Note_on_c, 0, 79, 74
2, 169268, Note_on_c, 0, 71, 45
2, 169352, Note_off_c, 0, 71, 0
2, 169448, Note_off_c, 0, 79, 0
2, 169464, Note_off_c, 0, 64, 0
2, 169476, Note_on_c, 0, 78, 68
2, 169500, Note_on_c, 0, 69, 44
2, 169600, Control_c, 0, 64, 40
2, 169612, Control_c, 0, 64, 0
2, 169684, Control_c, 0, 64, 88
2, 169696, Control_c, 0, 64, 127
2, 169720, Note_off_c, 0, 78, 0
2, 169724, Note_off_c, 0, 69, 0
2, 169736, Note_off_c, 0, 57, 0
2, 170004, Note_on_c, 0, 77, 70
2, 170004, Note_on_c, 0, 68, 55
2, 170052, Note_off_c, 0, 68, 0
2, 170092, Note_off_c, 0, 77, 0
2, 170204, Note_on_c, 0, 79, 72
2, 170204, Note_on_c, 0, 71, 51
2, 170204, Note_on_c, 0, 50, 47
2, 170204, Note_on_c, 0, 74, 56
2, 170264, Control_c, 0, 64, 40
2, 170280, Control_c, 0, 64, 0
2, 170360, Control_c, 0, 64, 127
2, 170388, Note_on_c, 0, 57, 47
2, 170448, Note_off_c, 0, 50, 0
2, 170480, Note_off_c, 0, 79, 0
2, 170488, Note_off_c, 0, 71, 0
2, 170496, Note_off_c, 0, 57, 0
2, 170532, Note_on_c, 0, 78, 68
2, 170544, Note_on_c, 0, 62, 52
2, 170556, Note_on_c, 0, 69, 52
2, 170560, Note_off_c, 0, 74, 64
2, 170668, Note_off_c, 0, 62, 0
2, 170672, Note_on_c, 0, 64, 60
2, 170720, Note_off_c, 0, 78, 0
2, 170744, Note_off_c, 0, 69, 0
2, 170800, Note_off_c, 0, 64, 0
2, 170828, Note_on_c, 0, 66, 63
2, 170916, Note_off_c, 0, 66, 0
2, 170968, Note_on_c, 0, 67, 67
2, 171076, Note_off_c, 0, 67, 0
2, 171112, Note_on_c, 0, 69, 72
2, 171236, Note_off_c, 0, 69, 0
2, 171264, Note_on_c, 0, 74, 74
2, 171276, Note_on_c, 0, 45, 68
2, 171352, Note_off_c, 0, 45, 0
2, 171396, Note_off_c, 0, 74, 0
2, 171452, Note_on_c, 0, 71, 71
2, 171464, Note_on_c, 0, 45, 68
2, 171472, Control_c, 0, 64, 72
2, 171484, Control_c, 0, 64, 0
2, 171568, Control_c, 0, 64, 88
2, 171580, Control_c, 0, 64, 127
2, 171608, Note_off_c, 0, 45, 0
2, 171636, Note_on_c, 0, 57, 53
2, 171692, Note_off_c, 0, 57, 0
2, 171772, Note_on_c, 0, 62, 66
2, 171864, Note_off_c, 0, 62, 0
2, 171904, Note_on_c, 0, 64, 68
2, 172020, Note_off_c, 0, 64, 0
2, 172056, Note_on_c, 0, 66, 70
2, 172140, Note_off_c, 0, 66, 0
2, 172196, Note_on_c, 0, 67, 72
2, 172232, Note_off_c, 0, 71, 0
2, 172336, Note_on_c, 0, 69, 79
2, 172344, Note_off_c, 0, 67, 0
2, 172436, Note_off_c, 0, 69, 0
2, 172472, Note_on_c, 0, 78, 84
2, 172616, Note_off_c, 0, 78, 0
2, 172664, Note_on_c, 0, 76, 79
2, 172684, Note_on_c, 0, 47, 60
2, 172692, Control_c, 0, 64, 104
2, 172708, Control_c, 0, 64, 0
2, 172824, Note_on_c, 0, 54, 61
2, 172856, Note_off_c, 0, 47, 0
2, 172856, Control_c, 0, 64, 127
2, 172932, Note_off_c, 0, 54, 0
2, 172968, Note_on_c, 0, 59, 60
2, 173096, Note_on_c, 0, 61, 61
2, 173116, Note_off_c, 0, 76, 0
2, 173124, Note_off_c, 0, 59, 0
2, 173204, Note_off_c, 0, 61, 0
2, 173240, Note_on_c, 0, 62, 63
2, 173364, Note_off_c, 0, 62, 0
2, 173392, Note_on_c, 0, 64, 67
2, 173440, Note_off_c, 0, 64, 0
2, 173520, Note_on_c, 0, 66, 62
2, 173696, Note_off_c, 0, 66, 0
2, 173700, Note_on_c, 0, 74, 83
2, 173720, Note_on_c, 0, 40, 57
2, 173792, Note_off_c, 0, 40, 0
2, 173816, Note_off_c, 0, 74, 0
2, 173916, Note_on_c, 0, 73, 80
2, 173932, Note_on_c, 0, 62, 57
2, 173940, Note_on_c, 0, 68, 46
2, 173952, Note_on_c, 0, 40, 49
2, 173968, Control_c, 0, 64, 88
2, 173980, Control_c, 0, 64, 0
2, 174104, Control_c, 0, 64, 127
2, 174112, Note_on_c, 0, 47, 52
2, 174168, Note_off_c, 0, 40, 0
2, 174188, Note_off_c, 0, 62, 0
2, 174236, Note_off_c, 0, 47, 0
2, 174252, Note_on_c, 0, 52, 61
2, 174296, Note_off_c, 0, 52, 0
2, 174392, Note_on_c, 0, 59, 66
2, 174552, Note_on_c, 0, 62, 64
2, 174664, Note_off_c, 0, 62, 0
2, 174712, Note_on_c, 0, 64, 64
2, 174760, Note_off_c, 0, 73, 0
2, 174760, Note_off_c, 0, 68, 0
2, 174848, Note_off_c, 0, 59, 0
2, 174852, Note_off_c, 0, 64, 0
2, 174884, Note_on_c, 0, 73, 78
2, 174892, Note_on_c, 0, 68, 51
2, 175080, Note_off_c, 0, 73, 0
2, 175080, Note_off_c, 0, 68, 0
2, 175096, Note_on_c, 0, 74, 86
2, 175192, Note_off_c, 0, 74, 0
2, 175240, Note_on_c, 0, 73, 84
2, 175336, Note_off_c, 0, 73, 0
2, 175364, Note_on_c, 0, 71, 78
2, 175444, Note_off_c, 0, 71, 0
2, 175472, Note_on_c, 0, 73, 91
2, 175616, Note_off_c, 0, 73, 0
2, 175640, Note_on_c, 0, 76, 88
2, 175728, Control_c, 0, 64, 72
2, 175744, Control_c, 0, 64, 40
2, 175756, Control_c, 0, 64, 24
2, 175772, Control_c, 0, 64, 40
2, 175784, Control_c, 0, 64, 88
2, 175796, Control_c, 0, 64, 127
2, 175856, Note_off_c, 0, 76, 0
2, 175868, Note_on_c, 0, 74, 77
2, 175956, Note_off_c, 0, 74, 0
2, 176136, Note_on_c, 0, 71, 72
2, 176136, Note_on_c, 0, 62, 55
2, 176216, Note_off_c, 0, 62, 0
2, 176220, Note_off_c, 0, 71, 0
2, 176376, Note_on_c, 0, 45, 49
2, 176420, Note_on_c, 0, 71, 74
2, 176436, Note_on_c, 0, 62, 50
2, 176444, Note_on_c, 0, 67, 55
2, 176448, Control_c, 0, 64, 40
2, 176460, Control_c, 0, 64, 0
2, 176560, Control_c, 0, 64, 88
2, 176572, Control_c, 0, 64, 127
2, 176600, Note_on_c, 0, 52, 49
2, 176640, Note_off_c, 0, 62, 0
2, 176664, Note_off_c, 0, 45, 0
2, 176696, Note_off_c, 0, 52, 0
2, 176744, Note_on_c, 0, 57, 55
2, 176776, Note_off_c, 0, 67, 0
2, 176852, Note_off_c, 0, 57, 0
2, 176868, Note_on_c, 0, 59, 53
2, 177000, Note_off_c, 0, 59, 0
2, 177028, Note_on_c, 0, 61, 56
2, 177060, Control_c, 0, 64, 72
2, 177072, Control_c, 0, 64, 56
2, 177084, Control_c, 0, 64, 72
2, 177100, Control_c, 0, 64, 127
2, 177172, Note_on_c, 0, 67, 67
2, 177212, Note_off_c, 0, 61, 0
2, 177316, Note_on_c, 0, 69, 73
2, 177320, Note_off_c, 0, 71, 0
2, 177456, Note_on_c, 0, 74, 80
2, 177484, Note_off_c, 0, 69, 0
2, 177592, Note_off_c, 0, 74, 0
2, 177616, Note_on_c, 0, 73, 77
2, 177640, Note_on_c, 0, 45, 52
2, 177640, Note_on_c, 0, 69, 34
2, 177640, Control_c, 0, 64, 56
2, 177656, Control_c, 0, 64, 0
2, 177692, Note_off_c, 0, 69, 0
2, 177748, Control_c, 0, 64, 127
2, 177784, Note_on_c, 0, 52, 61
2, 177836, Note_off_c, 0, 45, 0
2, 177896, Note_off_c, 0, 67, 0
2, 177896, Note_off_c, 0, 52, 0
2, 177920, Note_on_c, 0, 57, 64
2, 177988, Note_off_c, 0, 57, 0
2, 178060, Note_on_c, 0, 62, 74
2, 178220, Note_off_c, 0, 62, 0
2, 178224, Note_off_c, 0, 73, 0
2, 178240, Note_on_c, 0, 67, 77
2, 178256, Note_on_c, 0, 64, 41
2, 178428, Note_on_c, 0, 69, 86
2, 178460, Note_off_c, 0, 64, 0
2, 178580, Note_on_c, 0, 74, 85
2, 178688, Note_off_c, 0, 74, 0
2, 178720, Note_on_c, 0, 78, 97
2, 178812, Note_off_c, 0, 78, 0
2, 178844, Note_off_c, 0, 69, 0
2, 178848, Note_off_c, 0, 67, 0
2, 178924, Note_on_c, 0, 76, 90
2, 178928, Note_on_c, 0, 67, 39
2, 178936, Note_on_c, 0, 73, 61
2, 178940, Note_on_c, 0, 69, 45
2, 178976, Note_on_c, 0, 45, 45
2, 178984, Control_c, 0, 64, 72
2, 178996, Control_c, 0, 64, 0
2, 179088, Note_off_c, 0, 69, 0
2, 179092, Control_c, 0, 64, 72
2, 179104, Control_c, 0, 64, 127
2, 179120, Note_on_c, 0, 52, 56
2, 179192, Note_off_c, 0, 45, 0
2, 179204, Note_off_c, 0, 67, 0
2, 179212, Note_off_c, 0, 52, 0
2, 179228, Note_on_c, 0, 57, 61
2, 179256, Note_off_c, 0, 73, 0
2, 179268, Note_off_c, 0, 76, 0
2, 179276, Note_off_c, 0, 57, 0
2, 179372, Note_on_c, 0, 64, 73
2, 179444, Note_off_c, 0, 64, 0
2, 179536, Note_on_c, 0, 67, 77
2, 179668, Note_off_c, 0, 67, 0
2, 179668, Note_on_c, 0, 73, 84
2, 179800, Note_off_c, 0, 73, 0
2, 179832, Note_on_c, 0, 81, 94
2, 179916, Note_off_c, 0, 81, 0
2, 180004, Note_on_c, 0, 82, 96
2, 180020, Note_on_c, 0, 33, 62
2, 180028, Control_c, 0, 64, 104
2, 180040, Control_c, 0, 64, 56
2, 180056, Control_c, 0, 64, 24
2, 180068, Control_c, 0, 64, 40
2, 180080, Control_c, 0, 64, 88
2, 180096, Control_c, 0, 64, 127
2, 180180, Note_on_c, 0, 80, 72
2, 180180, Note_on_c, 0, 45, 72
2, 180184, Note_off_c, 0, 33, 0
2, 180224, Note_off_c, 0, 45, 0
2, 180352, Note_on_c, 0, 73, 74
2, 180360, Note_off_c, 0, 82, 0
2, 180360, Note_on_c, 0, 52, 57
2, 180452, Note_off_c, 0, 73, 0
2, 180484, Note_off_c, 0, 80, 0
2, 180516, Note_on_c, 0, 83, 92
2, 180520, Note_off_c, 0, 52, 0
2, 180532, Note_on_c, 0, 57, 59
2, 180580, Note_off_c, 0, 57, 0
2, 180668, Note_on_c, 0, 64, 61
2, 180832, Note_off_c, 0, 83, 0
2, 180836, Note_on_c, 0, 84, 103
2, 180852, Note_off_c, 0, 64, 0
2, 180856, Note_on_c, 0, 69, 67
2, 180956, Note_off_c, 0, 84, 0
2, 181020, Note_on_c, 0, 85, 93
2, 181020, Note_on_c, 0, 76, 60
2, 181024, Note_off_c, 0, 69, 0
2, 181108, Note_off_c, 0, 76, 0
2, 181136, Note_off_c, 0, 85, 0
2, 181260, Note_on_c, 0, 90, 97
2, 181272, Note_on_c, 0, 81, 82
2, 181356, Note_off_c, 0, 81, 0
2, 181384, Note_off_c, 0, 90, 0
2, 181508, Note_on_c, 0, 88, 96
2, 181528, Note_on_c, 0, 79, 74
2, 181564, Note_off_c, 0, 79, 0
2, 181604, Note_off_c, 0, 88, 0
2, 181740, Note_on_c, 0, 86, 82
2, 181740, Note_on_c, 0, 38, 65
2, 181740, Note_on_c, 0, 78, 80
2, 181804, Control_c, 0, 64, 104
2, 181820, Control_c, 0, 64, 40
2, 181832, Control_c, 0, 64, 0
2, 182020, Note_on_c, 0, 45, 52
2, 182020, Control_c, 0, 64, 127
2, 182108, Note_off_c, 0, 38, 0
2, 182140, Note_off_c, 0, 86, 0
2, 182144, Note_off_c, 0, 45, 0
2, 182160, Note_on_c, 0, 50, 52
2, 182188, Note_off_c, 0, 50, 0
2, 182324, Note_on_c, 0, 86, 90
2, 182336, Note_on_c, 0, 57, 41
2, 182448, Note_off_c, 0, 57, 0
2, 182464, Note_on_c, 0, 60, 77
2, 182480, Note_off_c, 0, 78, 0
2, 182528, Note_off_c, 0, 86, 0
2, 182592, Note_on_c, 0, 66, 61
2, 182740, Note_on_c, 0, 69, 60
2, 182888, Note_off_c, 0, 66, 0
2, 182888, Note_on_c, 0, 78, 88
2, 182912, Note_on_c, 0, 72, 62
2, 182936, Note_off_c, 0, 60, 0
2, 182940, Note_off_c, 0, 69, 0
2, 183488, Note_on_c, 0, 83, 93
2, 183708, Note_off_c, 0, 83, 0
2, 183836, Note_off_c, 0, 78, 0
2, 183924, Note_off_c, 0, 72, 0
2, 183928, Note_on_c, 0, 81, 90
2, 184012, Note_off_c, 0, 81, 0
2, 184116, Note_on_c, 0, 80, 90
2, 184128, Note_on_c, 0, 77, 84
2, 184136, Note_on_c, 0, 71, 69
2, 184144, Note_on_c, 0, 38, 57
2, 184204, Control_c, 0, 64, 40
2, 184216, Control_c, 0, 64, 0
2, 184340, Control_c, 0, 64, 127
2, 184388, Note_on_c, 0, 47, 39
2, 184436, Note_off_c, 0, 38, 0
2, 184464, Note_off_c, 0, 77, 0
2, 184500, Note_off_c, 0, 47, 0
2, 184512, Note_on_c, 0, 50, 68
2, 184544, Note_off_c, 0, 50, 0
2, 184660, Note_off_c, 0, 80, 0
2, 184668, Note_on_c, 0, 76, 91
2, 184668, Note_on_c, 0, 53, 68
2, 184816, Note_off_c, 0, 53, 0
2, 184816, Note_on_c, 0, 56, 48
2, 184932, Note_off_c, 0, 56, 0
2, 184956, Note_on_c, 0, 59, 53
2, 185040, Note_off_c, 0, 71, 0
2, 185060, Note_off_c, 0, 76, 0
2, 185064, Note_off_c, 0, 59, 0
2, 185096, Note_on_c, 0, 74, 91
2, 185100, Note_on_c, 0, 65, 58
2, 185176, Note_off_c, 0, 74, 0
2, 185192, Note_off_c, 0, 65, 0
2, 185296, Note_on_c, 0, 79, 90
2, 185308, Note_on_c, 0, 73, 61
2, 185312, Note_on_c, 0, 70, 49
2, 185320, Note_on_c, 0, 64, 46
2, 185396, Control_c, 0, 64, 88
2, 185412, Control_c, 0, 64, 0
2, 185588, Control_c, 0, 64, 104
2, 185600, Control_c, 0, 64, 127
2, 185652, Note_off_c, 0, 64, 0
2, 185740, Note_off_c, 0, 70, 0
2, 185844, Note_off_c, 0, 79, 0
2, 185848, Note_off_c, 0, 73, 0
2, 185916, Note_on_c, 0, 78, 73
2, 185928, Note_on_c, 0, 69, 66
2, 186144, Note_off_c, 0, 78, 0
2, 186176, Note_off_c, 0, 69, 0
2, 186408, Note_on_c, 0, 76, 74
2, 186416, Note_on_c, 0, 67, 66
2, 186480, Note_off_c, 0, 67, 0
2, 186540, Note_off_c, 0, 76, 0
2, 186628, Note_on_c, 0, 66, 62
2, 186632, Note_on_c, 0, 74, 75
2, 186668, Note_on_c, 0, 38, 55
2, 186696, Control_c, 0, 64, 56
2, 186712, Control_c, 0, 64, 0
2, 186844, Control_c, 0, 64, 104
2, 186860, Control_c, 0, 64, 127
2, 186908, Note_on_c, 0, 45, 48
2, 186916, Note_on_c, 0, 73, 74
2, 186924, Note_off_c, 0, 74, 0
2, 187024, Note_off_c, 0, 38, 0
2, 187036, Note_off_c, 0, 45, 0
2, 187052, Note_on_c, 0, 50, 50
2, 187080, Note_off_c, 0, 50, 0
2, 187132, Note_off_c, 0, 73, 0
2, 187160, Note_off_c, 0, 66, 0
2, 187212, Note_on_c, 0, 72, 73
2, 187212, Note_on_c, 0, 57, 52
2, 187324, Note_off_c, 0, 57, 0
2, 187336, Note_on_c, 0, 60, 53
2, 187440, Note_off_c, 0, 72, 0
2, 187452, Note_off_c, 0, 60, 0
2, 187476, Note_on_c, 0, 71, 72
2, 187480, Note_on_c, 0, 61, 54
2, 187608, Note_off_c, 0, 61, 0
2, 187616, Note_on_c, 0, 62, 56
2, 187760, Note_off_c, 0, 62, 0
2, 187772, Note_on_c, 0, 63, 58
2, 187784, Note_on_c, 0, 69, 70
2, 187812, Note_off_c, 0, 71, 0
2, 187836, Control_c, 0, 64, 40
2, 187852, Control_c, 0, 64, 0
2, 187892, Note_off_c, 0, 63, 0
2, 187912, Note_on_c, 0, 60, 57
2, 187932, Control_c, 0, 64, 104
2, 187944, Control_c, 0, 64, 127
2, 188028, Note_off_c, 0, 60, 0
2, 188060, Note_on_c, 0, 57, 55
2, 188148, Note_off_c, 0, 57, 0
2, 188156, Note_off_c, 0, 69, 0
2, 188192, Note_on_c, 0, 54, 53
2, 188344, Note_on_c, 0, 71, 73
2, 188360, Note_on_c, 0, 51, 52
2, 188364, Note_on_c, 0, 60, 59
2, 188368, Note_off_c, 0, 54, 0
2, 188436, Note_off_c, 0, 51, 0
2, 188492, Note_on_c, 0, 50, 51
2, 188608, Note_off_c, 0, 50, 0
2, 188640, Note_on_c, 0, 45, 50
2, 188756, Note_off_c, 0, 45, 0
2, 188764, Note_off_c, 0, 71, 0
2, 188788, Note_on_c, 0, 69, 70
2, 188796, Note_on_c, 0, 39, 49
2, 188864, Note_off_c, 0, 69, 0
2, 188872, Note_off_c, 0, 60, 0
2, 188896, Note_off_c, 0, 39, 0
2, 189000, Note_on_c, 0, 69, 74
2, 189008, Note_on_c, 0, 59, 57
2, 189012, Note_on_c, 0, 65, 59
2, 189032, Note_on_c, 0, 38, 49
2, 189072, Control_c, 0, 64, 88
2, 189084, Control_c, 0, 64, 0
2, 189232, Control_c, 0, 64, 127
2, 189280, Note_off_c, 0, 69, 0
2, 189312, Note_off_c, 0, 65, 0
2, 189328, Note_on_c, 0, 68, 73
2, 189344, Note_on_c, 0, 47, 50
2, 189412, Note_off_c, 0, 38, 0
2, 189460, Note_off_c, 0, 47, 0
2, 189472, Note_on_c, 0, 50, 52
2, 189612, Note_off_c, 0, 68, 0
2, 189628, Note_on_c, 0, 51, 54
2, 189632, Note_on_c, 0, 64, 72
2, 189652, Note_off_c, 0, 50, 0
2, 189756, Note_off_c, 0, 51, 0
2, 189768, Note_on_c, 0, 52, 56
2, 189840, Note_off_c, 0, 59, 0
2, 189888, Note_off_c, 0, 52, 0
2, 189920, Note_on_c, 0, 53, 58
2, 190012, Note_off_c, 0, 53, 0
2, 190076, Note_on_c, 0, 62, 66
2, 190084, Note_on_c, 0, 59, 59
2, 190128, Note_off_c, 0, 64, 0
2, 190172, Note_off_c, 0, 62, 0
2, 190188, Note_off_c, 0, 59, 0
2, 190308, Note_on_c, 0, 67, 70
2, 190316, Note_on_c, 0, 58, 57
2, 190324, Note_on_c, 0, 61, 49
2, 190428, Control_c, 0, 64, 56
2, 190440, Control_c, 0, 64, 0
2, 190548, Control_c, 0, 64, 104
2, 190560, Control_c, 0, 64, 127
2, 190740, Control_c, 0, 64, 24
2, 190752, Control_c, 0, 64, 0
2, 190820, Control_c, 0, 64, 127
2, 190932, Note_off_c, 0, 67, 0
2, 190964, Note_on_c, 0, 66, 68
2, 191052, Control_c, 0, 64, 24
2, 191064, Control_c, 0, 64, 0
2, 191144, Control_c, 0, 64, 127
2, 191340, Note_off_c, 0, 66, 0
2, 191408, Note_on_c, 0, 64, 67
2, 191424, Note_off_c, 0, 61, 0
2, 191472, Note_off_c, 0, 58, 0
2, 191516, Note_off_c, 0, 64, 0
2, 191580, Note_on_c, 0, 66, 72
2, 191592, Note_on_c, 0, 57, 53
2, 191596, Note_on_c, 0, 50, 55
2, 191596, Note_on_c, 0, 62, 53
2, 191648, Control_c, 0, 64, 56
2, 191660, Control_c, 0, 64, 0
2, 191852, Control_c, 0, 64, 127
2, 191904, Note_off_c, 0, 66, 0
2, 191972, Note_off_c, 0, 62, 0
2, 192168, Note_on_c, 0, 66, 70
2, 192216, Note_off_c, 0, 50, 0
2, 192332, Note_off_c, 0, 57, 0
2, 192736, Note_on_c, 0, 59, 56
2, 192760, Note_on_c, 0, 43, 51
2, 192828, Control_c, 0, 64, 24
2, 192840, Control_c, 0, 64, 0
2, 192964, Control_c, 0, 64, 104
2, 192976, Control_c, 0, 64, 127
2, 193000, Note_off_c, 0, 43, 0
2, 193028, Note_on_c, 0, 42, 53
2, 193132, Note_off_c, 0, 42, 0
2, 193152, Note_on_c, 0, 43, 71
2, 193272, Note_off_c, 0, 43, 0
2, 193312, Note_on_c, 0, 64, 69
2, 193312, Note_on_c, 0, 45, 57
2, 193316, Note_off_c, 0, 59, 0
2, 193328, Control_c, 0, 64, 104
2, 193344, Control_c, 0, 64, 24
2, 193356, Control_c, 0, 64, 0
2, 193408, Note_off_c, 0, 45, 0
2, 193424, Control_c, 0, 64, 88
2, 193436, Control_c, 0, 64, 127
2, 193444, Note_on_c, 0, 43, 63
2, 193564, Note_off_c, 0, 43, 0
2, 193584, Note_on_c, 0, 50, 68
2, 193692, Note_off_c, 0, 50, 0
2, 193724, Note_off_c, 0, 66, 0
2, 193732, Note_on_c, 0, 43, 56
2, 193740, Note_off_c, 0, 64, 0
2, 193748, Note_on_c, 0, 62, 75
2, 193836, Note_off_c, 0, 43, 0
2, 193920, Note_on_c, 0, 66, 70
2, 193940, Control_c, 0, 64, 88
2, 193944, Note_on_c, 0, 57, 51
2, 193952, Control_c, 0, 64, 24
2, 193960, Note_on_c, 0, 38, 56
2, 193968, Control_c, 0, 64, 0
2, 194168, Control_c, 0, 64, 127
2, 194220, Note_off_c, 0, 66, 0
2, 194548, Note_on_c, 0, 66, 70
2, 194572, Note_off_c, 0, 62, 0
2, 194700, Note_off_c, 0, 57, 0
2, 194700, Note_off_c, 0, 38, 0
2, 195168, Note_on_c, 0, 59, 52
2, 195184, Note_on_c, 0, 31, 45
2, 195212, Control_c, 0, 64, 104
2, 195224, Control_c, 0, 64, 24
2, 195240, Control_c, 0, 64, 0
2, 195388, Control_c, 0, 64, 88
2, 195404, Control_c, 0, 64, 127
2, 195440, Note_off_c, 0, 31, 0
2, 195460, Note_on_c, 0, 30, 45
2, 195556, Note_off_c, 0, 30, 0
2, 195584, Note_on_c, 0, 31, 52
2, 195716, Note_off_c, 0, 66, 0
2, 195716, Note_off_c, 0, 31, 0
2, 195748, Note_off_c, 0, 59, 0
2, 195752, Note_on_c, 0, 64, 61
2, 195764, Note_on_c, 0, 33, 37
2, 195872, Note_off_c, 0, 33, 0
2, 195896, Note_on_c, 0, 31, 48
2, 196032, Note_off_c, 0, 31, 0
2, 196052, Note_on_c, 0, 38, 53
2, 196212, Note_off_c, 0, 64, 0
2, 196232, Note_on_c, 0, 62, 61
2, 196248, Note_on_c, 0, 31, 46
2, 196252, Note_off_c, 0, 38, 0
2, 196336, Note_off_c, 0, 31, 0
2, 196488, Note_off_c, 0, 62, 0
2, 196564, Control_c, 0, 64, 0
2, 196636, Note_on_c, 0, 64, 62
2, 196636, Control_c, 0, 64, 100
2, 196656, Note_on_c, 0, 55, 50
2, 196676, Note_on_c, 0, 62, 46
2, 196676, Note_on_c, 0, 33, 49
2, 197336, Control_c, 0, 64, 40
2, 197348, Control_c, 0, 64, 56
2, 197364, Control_c, 0, 64, 72
2, 197376, Control_c, 0, 64, 88
2, 197404, Control_c, 0, 64, 104
2, 197428, Control_c, 0, 64, 127
2, 197456, Note_off_c, 0, 55, 0
2, 197556, Note_off_c, 0, 33, 0
2, 197560, Note_off_c, 0, 64, 0
2, 197572, Note_off_c, 0, 62, 0
2, 197688, Control_c, 0, 64, 104
2, 197700, Control_c, 0, 64, 56
2, 197708, Note_on_c, 0, 61, 65
2, 197712, Note_on_c, 0, 34, 59
2, 197716, Control_c, 0, 64, 0
2, 197796, Control_c, 0, 64, 24
2, 197808, Note_off_c, 0, 34, 0
2, 197808, Control_c, 0, 64, 72
2, 197820, Note_on_c, 0, 35, 56
2, 197824, Control_c, 0, 64, 127
2, 197896, Note_off_c, 0, 35, 0
2, 197924, Note_on_c, 0, 34, 53
2, 198028, Note_off_c, 0, 34, 0
2, 198052, Note_on_c, 0, 35, 53
2, 198112, Note_off_c, 0, 35, 0
2, 198144, Note_on_c, 0, 34, 53
2, 198260, Note_off_c, 0, 34, 0
2, 198272, Control_c, 0, 64, 88
2, 198276, Note_on_c, 0, 54, 63
2, 198284, Control_c, 0, 64, 40
2, 198300, Note_on_c, 0, 35, 51
2, 198300, Control_c, 0, 64, 24
2, 198312, Control_c, 0, 64, 40
2, 198324, Control_c, 0, 64, 72
2, 198332, Note_off_c, 0, 35, 0
2, 198340, Control_c, 0, 64, 127
2, 198356, Note_on_c, 0, 34, 51
2, 198444, Note_off_c, 0, 34, 0
2, 198460, Note_on_c, 0, 35, 52
2, 198496, Note_off_c, 0, 35, 0
2, 198536, Note_on_c, 0, 34, 51
2, 198644, Note_off_c, 0, 34, 0
2, 198664, Note_on_c, 0, 33, 52
2, 198736, Note_off_c, 0, 33, 0
2, 198752, Note_on_c, 0, 34, 53
2, 198892, Note_off_c, 0, 34, 0
2, 198908, Note_on_c, 0, 62, 74
2, 198924, Note_off_c, 0, 61, 0
2, 198924, Note_on_c, 0, 35, 63
2, 198988, Control_c, 0, 64, 104
2, 199004, Control_c, 0, 64, 56
2, 199016, Control_c, 0, 64, 0
2, 199136, Control_c, 0, 64, 56
2, 199152, Control_c, 0, 64, 104
2, 199164, Control_c, 0, 64, 127
2, 199440, Note_on_c, 0, 59, 74
2, 199448, Note_off_c, 0, 62, 0
2, 199492, Control_c, 0, 64, 104
2, 199504, Control_c, 0, 64, 56
2, 199516, Control_c, 0, 64, 0
2, 199572, Control_c, 0, 64, 40
2, 199588, Control_c, 0, 64, 88
2, 199600, Control_c, 0, 64, 127
2, 200024, Note_on_c, 0, 61, 69
2, 200040, Note_on_c, 0, 42, 42
2, 200072, Control_c, 0, 64, 104
2, 200088, Control_c, 0, 64, 56
2, 200100, Control_c, 0, 64, 0
2, 200108, Note_off_c, 0, 35, 0
2, 200208, Control_c, 0, 64, 56
2, 200224, Control_c, 0, 64, 104
2, 200236, Control_c, 0, 64, 127
2, 200304, Note_off_c, 0, 59, 0
2, 200420, Note_off_c, 0, 54, 0
2, 200564, Note_on_c, 0, 49, 64
2, 200564, Note_on_c, 0, 57, 60
2, 200672, Control_c, 0, 64, 72
2, 200680, Control_c, 0, 64, 0
2, 200780, Control_c, 0, 64, 72
2, 200792, Control_c, 0, 64, 127
2, 201080, Note_on_c, 0, 56, 65
2, 201084, Note_off_c, 0, 57, 0
2, 201092, Control_c, 0, 64, 88
2, 201104, Control_c, 0, 64, 24
2, 201116, Control_c, 0, 64, 0
2, 201184, Control_c, 0, 64, 24
2, 201196, Control_c, 0, 64, 88
2, 201212, Control_c, 0, 64, 127
2, 201336, Note_off_c, 0, 49, 0
2, 201552, Note_off_c, 0, 61, 0
2, 201600, Note_on_c, 0, 49, 73
2, 201660, Note_off_c, 0, 42, 0
2, 201868, Note_off_c, 0, 49, 0
2, 202120, Control_c, 0, 64, 104
2, 202124, Note_on_c, 0, 61, 71
2, 202132, Note_on_c, 0, 49, 65
2, 202132, Control_c, 0, 64, 40
2, 202144, Note_off_c, 0, 56, 0
2, 202148, Note_on_c, 0, 41, 58
2, 202148, Control_c, 0, 64, 0
2, 202216, Control_c, 0, 64, 40
2, 202232, Control_c, 0, 64, 88
2, 202244, Control_c, 0, 64, 127
2, 202324, Note_off_c, 0, 49, 0
2, 202396, Note_on_c, 0, 48, 66
2, 202480, Note_off_c, 0, 48, 0
2, 202496, Note_on_c, 0, 49, 65
2, 202596, Note_on_c, 0, 50, 67
2, 202600, Note_off_c, 0, 49, 0
2, 202636, Control_c, 0, 64, 88
2, 202648, Control_c, 0, 64, 40
2, 202660, Control_c, 0, 64, 0
2, 202700, Note_off_c, 0, 41, 0
2, 202700, Note_off_c, 0, 50, 0
2, 202704, Control_c, 0, 64, 56
2, 202712, Note_on_c, 0, 49, 66
2, 202716, Control_c, 0, 64, 104
2, 202732, Control_c, 0, 64, 127
2, 202824, Note_off_c, 0, 49, 0
2, 202848, Note_on_c, 0, 56, 67
2, 202940, Note_off_c, 0, 56, 0
2, 202968, Note_on_c, 0, 44, 62
2, 203120, Note_on_c, 0, 54, 74
2, 203136, Control_c, 0, 64, 24
2, 203152, Note_on_c, 0, 59, 52
2, 203152, Control_c, 0, 64, 0
2, 203232, Note_off_c, 0, 44, 0
2, 203232, Control_c, 0, 64, 40
2, 203248, Control_c, 0, 64, 104
2, 203260, Control_c, 0, 64, 127
2, 203372, Note_off_c, 0, 54, 0
2, 203372, Note_on_c, 0, 37, 45
2, 203648, Note_on_c, 0, 53, 79
2, 203668, Control_c, 0, 64, 72
2, 203680, Control_c, 0, 64, 0
2, 203776, Control_c, 0, 64, 56
2, 203788, Control_c, 0, 64, 127
2, 203792, Note_off_c, 0, 53, 0
2, 203800, Note_off_c, 0, 59, 0
2, 203800, Note_off_c, 0, 37, 0
2, 203852, Note_off_c, 0, 61, 0
2, 204064, Note_on_c, 0, 57, 63
2, 204136, Note_off_c, 0, 57, 0
2, 204192, Note_on_c, 0, 65, 74
2, 204200, Note_on_c, 0, 56, 61
2, 204292, Control_c, 0, 64, 104
2, 204304, Control_c, 0, 64, 40
2, 204316, Control_c, 0, 64, 0
2, 204424, Control_c, 0, 64, 88
2, 204440, Control_c, 0, 64, 127
2, 204640, Note_off_c, 0, 56, 0
2, 204704, Note_off_c, 0, 65, 0
2, 204712, Note_on_c, 0, 57, 55
2, 204720, Note_on_c, 0, 66, 70
2, 204736, Control_c, 0, 64, 88
2, 204752, Control_c, 0, 64, 0
2, 204832, Note_off_c, 0, 57, 0
2, 204832, Note_on_c, 0, 56, 61
2, 204832, Control_c, 0, 64, 72
2, 204848, Control_c, 0, 64, 127
2, 204936, Note_off_c, 0, 56, 0
2, 204960, Note_on_c, 0, 54, 63
2, 205040, Note_off_c, 0, 54, 0
2, 205100, Note_on_c, 0, 69, 86
2, 205104, Note_on_c, 0, 50, 66
2, 205128, Note_off_c, 0, 66, 0
2, 205180, Note_off_c, 0, 50, 0
2, 205200, Note_off_c, 0, 69, 0
2, 205268, Note_on_c, 0, 69, 90
2, 205284, Note_on_c, 0, 62, 59
2, 205292, Note_on_c, 0, 59, 44
2, 205308, Note_on_c, 0, 41, 68
2, 205376, Control_c, 0, 64, 56
2, 205388, Control_c, 0, 64, 0
2, 205512, Control_c, 0, 64, 56
2, 205524, Control_c, 0, 64, 104
2, 205540, Control_c, 0, 64, 127
2, 205592, Note_off_c, 0, 62, 0
2, 205836, Note_on_c, 0, 62, 80
2, 205928, Note_off_c, 0, 59, 0
2, 205928, Control_c, 0, 64, 56
2, 205944, Control_c, 0, 64, 0
2, 206000, Control_c, 0, 64, 56
2, 206012, Control_c, 0, 64, 127
2, 206040, Note_off_c, 0, 41, 0
2, 206136, Note_off_c, 0, 69, 0
2, 206376, Note_on_c, 0, 68, 77
2, 206380, Note_on_c, 0, 53, 70
2, 206392, Control_c, 0, 64, 104
2, 206404, Control_c, 0, 64, 40
2, 206420, Control_c, 0, 64, 0
2, 206488, Control_c, 0, 64, 40
2, 206500, Control_c, 0, 64, 104
2, 206516, Control_c, 0, 64, 127
2, 206620, Note_off_c, 0, 68, 0
2, 206648, Note_off_c, 0, 62, 0
2, 206656, Note_on_c, 0, 61, 64
2, 206752, Note_off_c, 0, 53, 0
2, 206764, Note_off_c, 0, 61, 0
2, 206772, Note_on_c, 0, 62, 71
2, 206892, Note_off_c, 0, 62, 0
2, 206900, Note_on_c, 0, 64, 66
2, 206908, Note_on_c, 0, 53, 73
2, 206920, Control_c, 0, 64, 88
2, 206936, Control_c, 0, 64, 40
2, 206948, Control_c, 0, 64, 0
2, 206996, Note_off_c, 0, 64, 0
2, 207016, Note_on_c, 0, 62, 71
2, 207028, Control_c, 0, 64, 40
2, 207040, Control_c, 0, 64, 88
2, 207056, Control_c, 0, 64, 127
2, 207108, Note_off_c, 0, 62, 0
2, 207128, Note_on_c, 0, 71, 69
2, 207216, Note_off_c, 0, 71, 0
2, 207244, Note_on_c, 0, 62, 71
2, 207380, Control_c, 0, 64, 104
2, 207396, Control_c, 0, 64, 56
2, 207404, Note_on_c, 0, 71, 77
2, 207408, Control_c, 0, 64, 0
2, 207412, Note_on_c, 0, 68, 49
2, 207476, Control_c, 0, 64, 24
2, 207492, Control_c, 0, 64, 88
2, 207504, Control_c, 0, 64, 127
2, 207624, Note_off_c, 0, 53, 0
2, 207668, Note_on_c, 0, 52, 64
2, 207780, Note_off_c, 0, 52, 0
2, 207780, Note_on_c, 0, 53, 74
2, 207876, Note_off_c, 0, 53, 0
2, 207896, Note_on_c, 0, 54, 58
2, 207912, Control_c, 0, 64, 72
2, 207924, Control_c, 0, 64, 24
2, 207932, Note_off_c, 0, 62, 0
2, 207936, Control_c, 0, 64, 0
2, 207976, Control_c, 0, 64, 72
2, 207992, Control_c, 0, 64, 127
2, 207996, Note_off_c, 0, 68, 0
2, 208000, Note_off_c, 0, 54, 0
2, 208008, Note_on_c, 0, 53, 65
2, 208052, Note_off_c, 0, 53, 0
2, 208140, Note_on_c, 0, 62, 63
2, 208228, Note_off_c, 0, 62, 0
2, 208264, Note_on_c, 0, 60, 64
2, 208340, Note_off_c, 0, 60, 0
2, 208412, Note_off_c, 0, 71, 0
2, 208416, Note_on_c, 0, 67, 70
2, 208432, Note_on_c, 0, 64, 60
2, 208452, Note_on_c, 0, 61, 26
2, 208480, Control_c, 0, 64, 72
2, 208496, Control_c, 0, 64, 0
2, 208576, Control_c, 0, 64, 24
2, 208588, Control_c, 0, 64, 72
2, 208600, Control_c, 0, 64, 127
2, 208684, Note_on_c, 0, 70, 71
2, 208784, Note_off_c, 0, 70, 0
2, 208800, Note_on_c, 0, 71, 79
2, 208912, Note_off_c, 0, 71, 0
2, 208940, Control_c, 0, 64, 88
2, 208944, Note_on_c, 0, 74, 82
2, 208956, Note_off_c, 0, 61, 0
2, 208956, Control_c, 0, 64, 40
2, 208960, Note_on_c, 0, 59, 51
2, 208968, Control_c, 0, 64, 0
2, 209048, Control_c, 0, 64, 24
2, 209060, Note_on_c, 0, 73, 80
2, 209064, Control_c, 0, 64, 72
2, 209068, Note_off_c, 0, 74, 0
2, 209076, Control_c, 0, 64, 127
2, 209200, Note_on_c, 0, 76, 74
2, 209232, Note_off_c, 0, 73, 0
2, 209316, Note_off_c, 0, 76, 0
2, 209316, Note_on_c, 0, 74, 78
2, 209352, Note_off_c, 0, 67, 0
2, 209388, Control_c, 0, 64, 104
2, 209400, Control_c, 0, 64, 56
2, 209416, Note_off_c, 0, 74, 0
2, 209416, Control_c, 0, 64, 0
2, 209440, Note_off_c, 0, 59, 0
2, 209444, Note_on_c, 0, 58, 52
2, 209452, Note_off_c, 0, 64, 0
2, 209456, Note_on_c, 0, 67, 39
2, 209456, Control_c, 0, 64, 24
2, 209468, Note_on_c, 0, 73, 80
2, 209472, Control_c, 0, 64, 56
2, 209484, Control_c, 0, 64, 104
2, 209496, Control_c, 0, 64, 127
2, 209544, Note_off_c, 0, 67, 0
2, 209560, Note_off_c, 0, 58, 0
2, 209560, Note_off_c, 0, 73, 0
2, 209596, Note_on_c, 0, 61, 59
2, 209600, Note_on_c, 0, 76, 88
2, 209604, Note_on_c, 0, 70, 61
2, 209660, Note_off_c, 0, 70, 0
2, 209676, Note_off_c, 0, 61, 0
2, 209700, Control_c, 0, 64, 56
2, 209716, Note_on_c, 0, 52, 66
2, 209716, Control_c, 0, 64, 0
2, 209768, Control_c, 0, 64, 24
2, 209784, Control_c, 0, 64, 56
2, 209796, Control_c, 0, 64, 104
2, 209800, Note_off_c, 0, 52, 0
2, 209808, Control_c, 0, 64, 127
2, 209824, Note_on_c, 0, 54, 67
2, 209940, Note_off_c, 0, 54, 0
2, 209956, Control_c, 0, 64, 104
2, 209968, Note_on_c, 0, 57, 64
2, 209972, Control_c, 0, 64, 40
2, 209984, Control_c, 0, 64, 0
2, 210056, Control_c, 0, 64, 40
2, 210068, Control_c, 0, 64, 88
2, 210076, Note_off_c, 0, 57, 0
2, 210080, Control_c, 0, 64, 127
2, 210092, Note_on_c, 0, 55, 64
2, 210180, Note_off_c, 0, 55, 0
2, 210204, Note_on_c, 0, 52, 63
2, 210320, Note_off_c, 0, 52, 0
2, 210332, Note_on_c, 0, 49, 70
2, 210348, Control_c, 0, 64, 104
2, 210368, Control_c, 0, 64, 72
2, 210380, Control_c, 0, 64, 40
2, 210392, Control_c, 0, 64, 0
2, 210444, Note_off_c, 0, 49, 0
2, 210460, Note_on_c, 0, 55, 68
2, 210496, Control_c, 0, 64, 24
2, 210516, Control_c, 0, 64, 72
2, 210524, Control_c, 0, 64, 104
2, 210540, Control_c, 0, 64, 127
2, 210556, Note_off_c, 0, 55, 0
2, 210576, Note_on_c, 0, 58, 70
2, 210636, Note_off_c, 0, 76, 0
2, 210664, Note_off_c, 0, 58, 0
2, 210712, Note_on_c, 0, 48, 73
2, 210784, Note_off_c, 0, 48, 0
2, 210808, Note_on_c, 0, 49, 73
2, 210936, Note_off_c, 0, 49, 0
2, 210948, Control_c, 0, 64, 72
2, 210960, Control_c, 0, 64, 24
2, 210964, Note_on_c, 0, 66, 74
2, 210968, Note_on_c, 0, 54, 65
2, 210972, Control_c, 0, 64, 0
2, 211032, Control_c, 0, 64, 24
2, 211044, Control_c, 0, 64, 56
2, 211056, Control_c, 0, 64, 104
2, 211072, Note_off_c, 0, 54, 0
2, 211072, Control_c, 0, 64, 127
2, 211080, Note_off_c, 0, 66, 0
2, 211096, Note_on_c, 0, 64, 76
2, 211104, Note_on_c, 0, 52, 64
2, 211180, Note_off_c, 0, 52, 0
2, 211216, Note_off_c, 0, 64, 0
2, 211228, Note_on_c, 0, 61, 78
2, 211228, Note_on_c, 0, 49, 61
2, 211324, Note_off_c, 0, 61, 0
2, 211352, Note_on_c, 0, 58, 80
2, 211356, Note_on_c, 0, 46, 60
2, 211360, Note_off_c, 0, 49, 0
2, 211408, Note_off_c, 0, 46, 0
2, 211492, Note_off_c, 0, 58, 0
2, 211520, Note_on_c, 0, 54, 84
2, 211528, Note_on_c, 0, 42, 75
2, 211584, Control_c, 0, 64, 104
2, 211600, Control_c, 0, 64, 72
2, 211612, Control_c, 0, 64, 40
2, 211624, Control_c, 0, 64, 0
2, 211828, Control_c, 0, 64, 24
2, 211844, Control_c, 0, 64, 40
2, 211856, Control_c, 0, 64, 56
2, 211936, Control_c, 0, 64, 72
2, 211952, Control_c, 0, 64, 88
2, 211976, Control_c, 0, 64, 104
2, 211992, Control_c, 0, 64, 127
2, 212216, Note_off_c, 0, 54, 0
2, 212384, Control_c, 0, 64, 0
2, 212388, Note_off_c, 0, 42, 0
2, 212400, Control_c, 0, 64, 0
2, 212412, Control_c, 0, 64, 0
2, 212460, Note_on_c, 0, 58, 75
2, 212460, Note_on_c, 0, 49, 69
2, 212464, Note_on_c, 0, 54, 60
2, 212464, Control_c, 0, 64, 24
2, 212480, Control_c, 0, 64, 52
2, 212484, Note_on_c, 0, 40, 59
2, 212492, Control_c, 0, 64, 32
2, 212540, Note_off_c, 0, 49, 0
2, 212568, Note_off_c, 0, 54, 0
2, 212576, Note_off_c, 0, 40, 0
2, 212636, Note_off_c, 0, 58, 0
2, 212696, Control_c, 0, 64, 56
2, 212712, Control_c, 0, 64, 0
2, 212724, Note_on_c, 0, 59, 78
2, 212724, Note_on_c, 0, 47, 53
2, 212724, Note_on_c, 0, 38, 60
2, 212724, Note_on_c, 0, 54, 55
2, 212768, Note_off_c, 0, 47, 0
2, 212776, Control_c, 0, 64, 40
2, 212792, Control_c, 0, 64, 88
2, 212804, Control_c, 0, 64, 127
2, 212808, Note_off_c, 0, 54, 0
2, 212816, Note_off_c, 0, 59, 0
2, 212844, Note_off_c, 0, 38, 0
2, 212968, Control_c, 0, 64, 72
2, 212984, Note_on_c, 0, 49, 72
2, 212984, Note_on_c, 0, 61, 83
2, 212984, Control_c, 0, 64, 24
2, 212992, Note_on_c, 0, 54, 65
2, 212996, Control_c, 0, 64, 0
2, 213000, Note_on_c, 0, 34, 56
2, 213036, Control_c, 0, 64, 56
2, 213052, Control_c, 0, 64, 104
2, 213060, Note_off_c, 0, 49, 0
2, 213064, Control_c, 0, 64, 127
2, 213072, Note_off_c, 0, 61, 0
2, 213092, Note_off_c, 0, 34, 0
2, 213224, Control_c, 0, 64, 88
2, 213240, Control_c, 0, 64, 24
2, 213244, Note_on_c, 0, 62, 85
2, 213248, Note_on_c, 0, 50, 76
2, 213252, Control_c, 0, 64, 0
2, 213256, Note_on_c, 0, 47, 61
2, 213256, Note_on_c, 0, 35, 59
2, 213304, Note_off_c, 0, 54, 0
2, 213308, Control_c, 0, 64, 40
2, 213316, Note_off_c, 0, 50, 0
2, 213320, Control_c, 0, 64, 88
2, 213328, Note_off_c, 0, 35, 0
2, 213336, Control_c, 0, 64, 127
2, 213344, Note_off_c, 0, 62, 0
2, 213356, Note_off_c, 0, 47, 0
2, 213524, Control_c, 0, 64, 88
2, 213528, Note_on_c, 0, 64, 87
2, 213528, Note_on_c, 0, 52, 70
2, 213528, Note_on_c, 0, 59, 68
2, 213528, Note_on_c, 0, 43, 67
2, 213540, Control_c, 0, 64, 24
2, 213552, Control_c, 0, 64, 0
2, 213580, Note_off_c, 0, 52, 0
2, 213592, Note_off_c, 0, 43, 0
2, 213596, Note_off_c, 0, 59, 0
2, 213620, Note_off_c, 0, 64, 0
2, 213632, Control_c, 0, 64, 72
2, 213648, Control_c, 0, 64, 127
2, 213848, Note_on_c, 0, 66, 90
2, 213856, Note_on_c, 0, 54, 62
2, 213864, Note_on_c, 0, 59, 64
2, 213880, Note_on_c, 0, 50, 64
2, 213888, Note_on_c, 0, 38, 59
2, 213932, Control_c, 0, 64, 104
2, 213944, Control_c, 0, 64, 72
2, 213960, Control_c, 0, 64, 24
2, 213972, Control_c, 0, 64, 0
2, 214080, Control_c, 0, 64, 56
2, 214092, Control_c, 0, 64, 104
2, 214108, Control_c, 0, 64, 127
2, 214132, Note_off_c, 0, 59, 0
2, 214204, Note_off_c, 0, 50, 0
2, 214216, Note_off_c, 0, 38, 0
2, 214420, Note_on_c, 0, 61, 74
2, 214456, Note_on_c, 0, 49, 57
2, 214464, Note_on_c, 0, 37, 47
2, 214472, Control_c, 0, 64, 104
2, 214488, Control_c, 0, 64, 40
2, 214500, Control_c, 0, 64, 0
2, 214584, Control_c, 0, 64, 56
2, 214596, Control_c, 0, 64, 127
2, 214652, Note_off_c, 0, 49, 0
2, 214692, Note_off_c, 0, 37, 0
2, 214716, Note_off_c, 0, 66, 0
2, 214724, Note_off_c, 0, 61, 0
2, 214832, Note_on_c, 0, 64, 62
2, 214852, Note_on_c, 0, 47, 59
2, 214856, Note_on_c, 0, 35, 53
2, 214864, Note_on_c, 0, 62, 79
2, 214888, Note_off_c, 0, 64, 0
2, 214888, Note_off_c, 0, 47, 0
2, 214896, Note_off_c, 0, 35, 0
2, 214924, Note_off_c, 0, 54, 0
2, 214964, Note_off_c, 0, 62, 0
2, 214980, Note_on_c, 0, 61, 83
2, 215004, Control_c, 0, 64, 88
2, 215012, Control_c, 0, 64, 40
2, 215028, Note_on_c, 0, 45, 65
2, 215028, Control_c, 0, 64, 0
2, 215044, Note_on_c, 0, 33, 46
2, 215112, Control_c, 0, 64, 24
2, 215124, Control_c, 0, 64, 88
2, 215136, Control_c, 0, 64, 127
2, 215232, Note_off_c, 0, 45, 0
2, 215264, Note_off_c, 0, 33, 0
2, 215380, Note_off_c, 0, 61, 0
2, 215560, Note_on_c, 0, 68, 90
2, 215572, Note_on_c, 0, 56, 62
2, 215580, Note_on_c, 0, 61, 54
2, 215588, Note_on_c, 0, 41, 66
2, 215608, Note_on_c, 0, 29, 34
2, 215664, Control_c, 0, 64, 104
2, 215676, Control_c, 0, 64, 40
2, 215692, Control_c, 0, 64, 0
2, 215760, Control_c, 0, 64, 40
2, 215776, Control_c, 0, 64, 127
2, 215868, Note_off_c, 0, 29, 0
2, 215872, Note_off_c, 0, 41, 0
2, 215908, Note_off_c, 0, 56, 0
2, 215980, Note_off_c, 0, 68, 0
2, 216192, Note_on_c, 0, 69, 95
2, 216192, Note_on_c, 0, 57, 74
2, 216192, Note_on_c, 0, 30, 56
2, 216192, Note_on_c, 0, 42, 62
2, 216316, Control_c, 0, 64, 24
2, 216332, Control_c, 0, 64, 0
2, 216424, Control_c, 0, 64, 104
2, 216440, Control_c, 0, 64, 127
2, 216464, Note_off_c, 0, 69, 0
2, 216488, Note_off_c, 0, 57, 0
2, 216504, Note_off_c, 0, 61, 0
2, 216776, Note_on_c, 0, 61, 77
2, 216776, Note_on_c, 0, 49, 73
2, 216832, Control_c, 0, 64, 56
2, 216844, Control_c, 0, 64, 0
2, 216916, Control_c, 0, 64, 56
2, 216928, Control_c, 0, 64, 127
2, 216964, Note_off_c, 0, 30, 0
2, 217000, Note_off_c, 0, 42, 0
2, 217244, Note_on_c, 0, 39, 60
2, 217252, Control_c, 0, 64, 56
2, 217268, Control_c, 0, 64, 24
2, 217280, Control_c, 0, 64, 40
2, 217296, Control_c, 0, 64, 72
2, 217308, Control_c, 0, 64, 127
2, 217332, Note_off_c, 0, 39, 0
2, 217356, Note_on_c, 0, 40, 54
2, 217420, Note_off_c, 0, 40, 0
2, 217428, Note_off_c, 0, 49, 0
2, 217444, Note_on_c, 0, 39, 48
2, 217448, Note_off_c, 0, 61, 0
2, 217516, Note_off_c, 0, 39, 0
2, 217532, Note_on_c, 0, 40, 41
2, 217584, Note_off_c, 0, 40, 0
2, 217608, Note_on_c, 0, 39, 50
2, 217636, Note_on_c, 0, 60, 80
2, 217648, Note_on_c, 0, 48, 64
2, 217672, Note_off_c, 0, 48, 0
2, 217676, Note_off_c, 0, 39, 0
2, 217696, Note_on_c, 0, 40, 40
2, 217704, Note_off_c, 0, 60, 0
2, 217748, Note_off_c, 0, 40, 0
2, 217760, Note_on_c, 0, 39, 53
2, 217768, Note_on_c, 0, 61, 75
2, 217772, Note_on_c, 0, 49, 60
2, 217812, Note_off_c, 0, 49, 0
2, 217828, Note_off_c, 0, 39, 0
2, 217852, Note_off_c, 0, 61, 0
2, 217860, Note_on_c, 0, 40, 39
2, 217904, Note_on_c, 0, 63, 70
2, 217916, Note_on_c, 0, 51, 44
2, 217924, Note_off_c, 0, 40, 0
2, 217932, Note_on_c, 0, 39, 48
2, 217944, Note_off_c, 0, 51, 0
2, 217956, Note_off_c, 0, 63, 0
2, 218000, Note_off_c, 0, 39, 0
2, 218024, Note_on_c, 0, 61, 75
2, 218028, Note_on_c, 0, 40, 49
2, 218028, Note_on_c, 0, 49, 55
2, 218048, Note_off_c, 0, 49, 0
2, 218064, Note_off_c, 0, 40, 0
2, 218092, Note_off_c, 0, 61, 0
2, 218100, Note_on_c, 0, 39, 48
2, 218164, Note_on_c, 0, 68, 81
2, 218168, Note_off_c, 0, 39, 0
2, 218180, Note_on_c, 0, 40, 55
2, 218184, Note_on_c, 0, 56, 35
2, 218208, Note_off_c, 0, 68, 0
2, 218208, Note_off_c, 0, 56, 0
2, 218240, Note_off_c, 0, 40, 0
2, 218256, Note_on_c, 0, 39, 56
2, 218328, Note_off_c, 0, 39, 0
2, 218340, Note_on_c, 0, 40, 54
2, 218420, Note_off_c, 0, 40, 0
2, 218424, Note_on_c, 0, 39, 48
2, 218436, Note_on_c, 0, 61, 81
2, 218444, Note_on_c, 0, 49, 75
2, 218468, Note_off_c, 0, 49, 0
2, 218476, Note_off_c, 0, 39, 0
2, 218484, Note_off_c, 0, 61, 0
2, 218536, Note_on_c, 0, 61, 83
2, 218540, Note_on_c, 0, 49, 60
2, 218544, Note_on_c, 0, 56, 55
2, 218552, Note_on_c, 0, 58, 42
2, 218564, Note_on_c, 0, 39, 53
2, 218596, Control_c, 0, 64, 88
2, 218608, Control_c, 0, 64, 24
2, 218624, Control_c, 0, 64, 0
2, 218716, Control_c, 0, 64, 72
2, 218732, Control_c, 0, 64, 127
2, 218848, Note_off_c, 0, 56, 0
2, 218864, Note_on_c, 0, 55, 74
2, 219112, Note_off_c, 0, 49, 0
2, 219144, Note_off_c, 0, 55, 0
2, 219164, Note_on_c, 0, 38, 70
2, 219268, Note_off_c, 0, 38, 0
2, 219284, Note_off_c, 0, 39, 0
2, 219284, Note_on_c, 0, 39, 71
2, 219428, Note_off_c, 0, 58, 0
2, 219428, Note_off_c, 0, 39, 0
2, 219432, Note_on_c, 0, 46, 71
2, 219544, Note_off_c, 0, 46, 0
2, 219560, Note_on_c, 0, 50, 72
2, 219608, Note_off_c, 0, 61, 0
2, 219684, Note_on_c, 0, 51, 83
2, 219712, Note_off_c, 0, 50, 0
2, 219804, Note_off_c, 0, 51, 0
2, 219804, Note_on_c, 0, 52, 80
2, 219928, Note_off_c, 0, 52, 0
2, 219940, Note_on_c, 0, 50, 74
2, 220064, Note_off_c, 0, 50, 0
2, 220064, Note_on_c, 0, 51, 86
2, 220164, Note_off_c, 0, 51, 0
2, 220192, Note_on_c, 0, 54, 67
2, 220328, Note_off_c, 0, 54, 0
2, 220328, Note_on_c, 0, 52, 77
2, 220448, Note_off_c, 0, 52, 0
2, 220448, Note_on_c, 0, 49, 72
2, 220560, Note_off_c, 0, 49, 0
2, 220568, Note_on_c, 0, 43, 78
2, 220620, Note_off_c, 0, 43, 0
2, 220636, Control_c, 0, 64, 24
2, 220648, Control_c, 0, 64, 56
2, 220720, Note_on_c, 0, 58, 78
2, 220760, Control_c, 0, 64, 24
2, 220772, Control_c, 0, 64, 0
2, 220912, Control_c, 0, 64, 40
2, 220924, Control_c, 0, 64, 72
2, 220940, Control_c, 0, 64, 88
2, 220952, Control_c, 0, 64, 104
2, 220968, Control_c, 0, 64, 127
2, 221068, Note_off_c, 0, 58, 0
2, 221300, Note_on_c, 0, 58, 73
2, 221300, Note_on_c, 0, 61, 47
2, 221300, Control_c, 0, 64, 104
2, 221312, Control_c, 0, 64, 88
2, 221324, Control_c, 0, 64, 72
2, 221340, Control_c, 0, 64, 56
2, 221352, Control_c, 0, 64, 24
2, 221368, Control_c, 0, 64, 0
2, 221464, Control_c, 0, 64, 24
2, 221476, Control_c, 0, 64, 56
2, 221488, Control_c, 0, 64, 88
2, 221504, Control_c, 0, 64, 104
2, 221516, Control_c, 0, 64, 127
2, 221688, Note_on_c, 0, 68, 53
2, 221816, Note_off_c, 0, 61, 0
2, 221820, Note_off_c, 0, 68, 0
2, 221828, Note_on_c, 0, 67, 75
2, 221848, Control_c, 0, 64, 104
2, 221864, Control_c, 0, 64, 72
2, 221876, Control_c, 0, 64, 40
2, 221888, Control_c, 0, 64, 0
2, 221988, Control_c, 0, 64, 40
2, 222004, Control_c, 0, 64, 72
2, 222012, Control_c, 0, 64, 104
2, 222028, Control_c, 0, 64, 127
2, 222104, Note_off_c, 0, 67, 0
2, 222108, Note_on_c, 0, 62, 64
2, 222204, Note_on_c, 0, 63, 71
2, 222344, Note_off_c, 0, 63, 0
2, 222348, Control_c, 0, 64, 88
2, 222352, Note_on_c, 0, 68, 69
2, 222360, Control_c, 0, 64, 40
2, 222372, Note_on_c, 0, 56, 68
2, 222376, Control_c, 0, 64, 0
2, 222396, Note_off_c, 0, 58, 0
2, 222492, Note_on_c, 0, 64, 76
2, 222500, Control_c, 0, 64, 56
2, 222512, Control_c, 0, 64, 104
2, 222524, Control_c, 0, 64, 127
2, 222596, Note_off_c, 0, 68, 0
2, 222604, Note_on_c, 0, 66, 69
2, 222624, Note_off_c, 0, 64, 0
2, 222712, Note_off_c, 0, 62, 0
2, 222716, Note_on_c, 0, 69, 83
2, 222740, Note_off_c, 0, 66, 0
2, 222820, Note_off_c, 0, 69, 0
2, 222880, Note_on_c, 0, 70, 79
2, 222888, Note_on_c, 0, 61, 46
2, 222896, Note_on_c, 0, 64, 54
2, 222900, Note_off_c, 0, 56, 0
2, 222904, Note_on_c, 0, 55, 64
2, 222940, Control_c, 0, 64, 104
2, 222952, Control_c, 0, 64, 88
2, 222968, Control_c, 0, 64, 72
2, 222984, Control_c, 0, 64, 40
2, 222996, Control_c, 0, 64, 24
2, 223012, Control_c, 0, 64, 0
2, 223176, Control_c, 0, 64, 40
2, 223188, Control_c, 0, 64, 72
2, 223204, Control_c, 0, 64, 88
2, 223220, Control_c, 0, 64, 104
2, 223236, Note_off_c, 0, 70, 0
2, 223248, Control_c, 0, 64, 127
2, 223432, Note_on_c, 0, 70, 85
2, 223536, Control_c, 0, 64, 88
2, 223552, Control_c, 0, 64, 24
2, 223564, Control_c, 0, 64, 0
2, 223648, Control_c, 0, 64, 24
2, 223656, Control_c, 0, 64, 72
2, 223672, Control_c, 0, 64, 104
2, 223688, Control_c, 0, 64, 127
2, 223828, Note_off_c, 0, 61, 0
2, 223984, Note_on_c, 0, 60, 70
2, 223992, Control_c, 0, 64, 104
2, 224004, Control_c, 0, 64, 72
2, 224016, Control_c, 0, 64, 24
2, 224032, Control_c, 0, 64, 0
2, 224144, Control_c, 0, 64, 56
2, 224156, Control_c, 0, 64, 88
2, 224168, Control_c, 0, 64, 104
2, 224184, Control_c, 0, 64, 127
2, 224280, Note_on_c, 0, 47, 64
2, 224316, Note_off_c, 0, 55, 0
2, 224384, Note_off_c, 0, 70, 0
2, 224388, Note_off_c, 0, 47, 0
2, 224396, Note_on_c, 0, 48, 70
2, 224500, Note_off_c, 0, 48, 0
2, 224528, Control_c, 0, 64, 72
2, 224532, Note_on_c, 0, 50, 70
2, 224544, Note_on_c, 0, 69, 81
2, 224544, Control_c, 0, 64, 24
2, 224560, Control_c, 0, 64, 0
2, 224584, Note_off_c, 0, 64, 0
2, 224640, Control_c, 0, 64, 24
2, 224656, Control_c, 0, 64, 72
2, 224660, Note_on_c, 0, 48, 70
2, 224664, Note_off_c, 0, 50, 0
2, 224664, Control_c, 0, 64, 127
2, 224748, Note_off_c, 0, 48, 0
2, 224784, Note_on_c, 0, 55, 72
2, 224828, Note_off_c, 0, 60, 0
2, 224884, Note_off_c, 0, 55, 0
2, 224924, Note_on_c, 0, 48, 81
2, 224936, Note_off_c, 0, 69, 0
2, 225088, Note_on_c, 0, 69, 92
2, 225104, Note_on_c, 0, 64, 64
2, 225128, Note_on_c, 0, 58, 56
2, 225152, Control_c, 0, 64, 104
2, 225164, Control_c, 0, 64, 72
2, 225176, Control_c, 0, 64, 24
2, 225192, Control_c, 0, 64, 0
2, 225332, Control_c, 0, 64, 104
2, 225344, Control_c, 0, 64, 127
2, 225656, Note_on_c, 0, 67, 79
2, 225688, Note_off_c, 0, 69, 0
2, 225700, Note_off_c, 0, 64, 0
2, 225732, Note_off_c, 0, 67, 0
2, 226080, Note_on_c, 0, 74, 88
2, 226172, Note_off_c, 0, 74, 0
2, 226212, Note_on_c, 0, 76, 90
2, 226228, Note_on_c, 0, 72, 76
2, 226232, Note_on_c, 0, 70, 51
2, 226396, Control_c, 0, 64, 40
2, 226408, Control_c, 0, 64, 0
2, 226476, Control_c, 0, 64, 72
2, 226492, Control_c, 0, 64, 127
2, 226716, Note_off_c, 0, 76, 0
2, 226744, Note_on_c, 0, 77, 92
2, 226800, Note_off_c, 0, 72, 0
2, 227056, Note_off_c, 0, 77, 0
2, 227148, Note_off_c, 0, 70, 0
2, 227164, Note_on_c, 0, 78, 91
2, 227256, Note_off_c, 0, 78, 0
2, 227308, Control_c, 0, 64, 72
2, 227312, Note_on_c, 0, 81, 103
2, 227316, Note_on_c, 0, 70, 79
2, 227320, Note_on_c, 0, 76, 81
2, 227320, Control_c, 0, 64, 0
2, 227388, Control_c, 0, 64, 40
2, 227404, Control_c, 0, 64, 127
2, 227412, Note_off_c, 0, 58, 0
2, 227428, Note_off_c, 0, 48, 0
2, 227624, Note_on_c, 0, 35, 58
2, 227708, Note_off_c, 0, 35, 0
2, 227720, Note_on_c, 0, 36, 62
2, 227844, Note_off_c, 0, 36, 0
2, 227876, Note_on_c, 0, 43, 72
2, 227988, Note_off_c, 0, 43, 0
2, 228012, Note_on_c, 0, 48, 70
2, 228116, Note_off_c, 0, 48, 0
2, 228148, Note_on_c, 0, 52, 64
2, 228228, Note_off_c, 0, 52, 0
2, 228268, Note_on_c, 0, 55, 67
2, 228360, Note_off_c, 0, 81, 0
2, 228364, Note_off_c, 0, 55, 0
2, 228408, Note_on_c, 0, 60, 64
2, 228412, Note_on_c, 0, 79, 87
2, 228500, Note_off_c, 0, 76, 0
2, 228556, Note_off_c, 0, 60, 0
2, 228560, Note_on_c, 0, 61, 66
2, 228700, Note_off_c, 0, 61, 0
2, 228704, Note_on_c, 0, 59, 64
2, 228792, Note_off_c, 0, 59, 0
2, 228800, Note_off_c, 0, 79, 0
2, 228812, Note_off_c, 0, 70, 0
2, 228816, Note_on_c, 0, 60, 68
2, 228888, Note_off_c, 0, 60, 0
2, 228976, Control_c, 0, 64, 88
2, 228984, Note_on_c, 0, 80, 88
2, 228988, Note_on_c, 0, 76, 82
2, 228992, Control_c, 0, 64, 24
2, 228996, Note_on_c, 0, 73, 71
2, 229004, Control_c, 0, 64, 0
2, 229012, Note_on_c, 0, 48, 64
2, 229012, Note_on_c, 0, 60, 58
2, 229088, Control_c, 0, 64, 88
2, 229100, Control_c, 0, 64, 127
2, 229116, Note_on_c, 0, 72, 78
2, 229120, Note_off_c, 0, 76, 0
2, 229140, Note_off_c, 0, 73, 0
2, 229160, Note_off_c, 0, 80, 0
2, 229188, Note_off_c, 0, 72, 0
2, 229268, Note_on_c, 0, 70, 68
2, 229348, Note_off_c, 0, 70, 0
2, 229360, Note_off_c, 0, 48, 0
2, 229376, Note_on_c, 0, 64, 69
2, 229388, Note_off_c, 0, 60, 0
2, 229404, Note_off_c, 0, 64, 0
2, 229560, Note_on_c, 0, 80, 100
2, 229568, Note_on_c, 0, 68, 81
2, 229572, Note_on_c, 0, 76, 82
2, 229572, Note_on_c, 0, 72, 75
2, 229572, Control_c, 0, 64, 88
2, 229584, Control_c, 0, 64, 40
2, 229596, Note_on_c, 0, 60, 63
2, 229600, Note_off_c, 0, 72, 0
2, 229600, Note_on_c, 0, 48, 64
2, 229600, Control_c, 0, 64, 0
2, 229628, Note_on_c, 0, 72, 18
2, 229680, Control_c, 0, 64, 56
2, 229696, Control_c, 0, 64, 127
2, 229716, Note_off_c, 0, 76, 0
2, 229724, Note_off_c, 0, 80, 0
2, 229732, Note_off_c, 0, 72, 0
2, 229768, Note_off_c, 0, 68, 0
2, 229888, Note_on_c, 0, 64, 62
2, 229952, Note_off_c, 0, 64, 0
2, 230016, Note_on_c, 0, 65, 72
2, 230084, Note_off_c, 0, 65, 0
2, 230140, Note_on_c, 0, 68, 67
2, 230284, Note_on_c, 0, 72, 64
2, 230288, Note_off_c, 0, 68, 0
2, 230332, Note_off_c, 0, 72, 0
2, 230416, Note_on_c, 0, 76, 79
2, 230516, Note_off_c, 0, 76, 0
2, 230540, Note_on_c, 0, 77, 83
2, 230560, Note_off_c, 0, 48, 0
2, 230580, Note_off_c, 0, 60, 0
2, 230596, Note_off_c, 0, 77, 0
2, 230708, Note_on_c, 0, 86, 94
2, 230708, Note_on_c, 0, 79, 79
2, 230732, Note_on_c, 0, 59, 65
2, 230732, Control_c, 0, 64, 56
2, 230736, Note_on_c, 0, 47, 68
2, 230744, Control_c, 0, 64, 0
2, 230828, Control_c, 0, 64, 56
2, 230844, Control_c, 0, 64, 127
2, 230848, Note_off_c, 0, 79, 0
2, 230852, Note_on_c, 0, 80, 80
2, 230960, Note_off_c, 0, 86, 0
2, 230976, Note_on_c, 0, 76, 77
2, 230984, Note_off_c, 0, 80, 0
2, 231072, Note_off_c, 0, 76, 0
2, 231100, Note_on_c, 0, 77, 80
2, 231144, Note_off_c, 0, 59, 0
2, 231164, Note_off_c, 0, 47, 0
2, 231188, Note_off_c, 0, 77, 0
2, 231256, Note_on_c, 0, 86, 96
2, 231256, Control_c, 0, 64, 88
2, 231264, Note_on_c, 0, 74, 90
2, 231264, Note_on_c, 0, 80, 82
2, 231268, Note_on_c, 0, 58, 68
2, 231272, Control_c, 0, 64, 24
2, 231280, Control_c, 0, 64, 0
2, 231352, Control_c, 0, 64, 72
2, 231368, Control_c, 0, 64, 127
2, 231376, Note_on_c, 0, 56, 65
2, 231380, Note_off_c, 0, 58, 0
2, 231512, Note_on_c, 0, 53, 64
2, 231516, Note_off_c, 0, 56, 0
2, 231644, Note_off_c, 0, 86, 0
2, 231648, Note_on_c, 0, 47, 71
2, 231656, Note_off_c, 0, 53, 0
2, 231680, Note_off_c, 0, 74, 0
2, 231704, Note_off_c, 0, 80, 0
2, 231716, Note_off_c, 0, 47, 0
2, 231836, Note_on_c, 0, 86, 96
2, 231840, Note_on_c, 0, 74, 83
2, 231840, Note_on_c, 0, 79, 85
2, 231844, Note_on_c, 0, 76, 82
2, 231844, Note_on_c, 0, 46, 81
2, 231864, Control_c, 0, 64, 104
2, 231880, Control_c, 0, 64, 40
2, 231892, Control_c, 0, 64, 0
2, 231988, Control_c, 0, 64, 40
2, 232004, Control_c, 0, 64, 104
2, 232016, Control_c, 0, 64, 127
2, 232092, Note_off_c, 0, 46, 0
2, 232140, Note_on_c, 0, 33, 64
2, 232220, Note_off_c, 0, 33, 0
2, 232264, Note_on_c, 0, 34, 66
2, 232400, Note_off_c, 0, 34, 0
2, 232404, Note_on_c, 0, 40, 68
2, 232504, Note_off_c, 0, 40, 0
2, 232508, Note_off_c, 0, 86, 0
2, 232524, Note_on_c, 0, 43, 70
2, 232588, Note_off_c, 0, 74, 0
2, 232636, Note_off_c, 0, 43, 0
2, 232660, Note_on_c, 0, 46, 72
2, 232692, Note_off_c, 0, 79, 0
2, 232772, Note_off_c, 0, 46, 0
2, 232784, Note_on_c, 0, 52, 74
2, 232804, Note_off_c, 0, 76, 0
2, 232848, Note_off_c, 0, 52, 0
2, 232924, Note_on_c, 0, 85, 91
2, 232936, Note_on_c, 0, 73, 77
2, 232936, Note_on_c, 0, 79, 87
2, 232940, Note_on_c, 0, 58, 75
2, 232992, Note_off_c, 0, 58, 0
2, 233068, Note_on_c, 0, 60, 70
2, 233148, Note_off_c, 0, 60, 0
2, 233188, Note_on_c, 0, 57, 69
2, 233248, Note_off_c, 0, 85, 0
2, 233280, Note_off_c, 0, 79, 0
2, 233292, Note_off_c, 0, 57, 0
2, 233304, Note_off_c, 0, 73, 0
2, 233308, Note_on_c, 0, 58, 75
2, 233344, Note_off_c, 0, 58, 0
2, 233456, Note_on_c, 0, 84, 99
2, 233464, Note_on_c, 0, 79, 86
2, 233464, Note_on_c, 0, 73, 71
2, 233468, Control_c, 0, 64, 88
2, 233480, Note_on_c, 0, 58, 69
2, 233480, Control_c, 0, 64, 24
2, 233484, Note_on_c, 0, 46, 70
2, 233496, Control_c, 0, 64, 0
2, 233564, Note_off_c, 0, 73, 0
2, 233568, Note_off_c, 0, 79, 0
2, 233576, Control_c, 0, 64, 88
2, 233588, Control_c, 0, 64, 127
2, 233596, Note_off_c, 0, 84, 0
2, 233608, Note_on_c, 0, 82, 86
2, 233752, Note_on_c, 0, 79, 83
2, 233784, Note_off_c, 0, 82, 0
2, 233836, Note_off_c, 0, 79, 0
2, 233880, Note_on_c, 0, 73, 80
2, 233892, Note_off_c, 0, 46, 0
2, 233900, Note_off_c, 0, 58, 0
2, 233928, Note_off_c, 0, 73, 0
2, 234032, Note_on_c, 0, 78, 91
2, 234040, Note_on_c, 0, 74, 84
2, 234040, Note_on_c, 0, 66, 81
2, 234052, Note_on_c, 0, 58, 67
2, 234056, Note_on_c, 0, 46, 71
2, 234072, Control_c, 0, 64, 72
2, 234088, Control_c, 0, 64, 0
2, 234196, Control_c, 0, 64, 104
2, 234212, Control_c, 0, 64, 127
2, 234220, Note_off_c, 0, 74, 0
2, 234252, Note_off_c, 0, 78, 0
2, 234264, Note_off_c, 0, 66, 0
2, 234368, Note_on_c, 0, 62, 58
2, 234428, Note_off_c, 0, 62, 0
2, 234488, Note_on_c, 0, 63, 69
2, 234576, Note_off_c, 0, 63, 0
2, 234620, Note_on_c, 0, 66, 72
2, 234748, Note_on_c, 0, 73, 77
2, 234756, Note_off_c, 0, 66, 0
2, 234820, Note_off_c, 0, 73, 0
2, 234900, Note_on_c, 0, 74, 81
2, 234984, Note_off_c, 0, 74, 0
2, 235020, Note_on_c, 0, 75, 80
2, 235036, Note_off_c, 0, 46, 0
2, 235060, Note_off_c, 0, 58, 0
2, 235080, Note_off_c, 0, 75, 0
2, 235176, Note_on_c, 0, 84, 92
2, 235176, Note_on_c, 0, 77, 89
2, 235176, Note_on_c, 0, 57, 59
2, 235176, Note_on_c, 0, 45, 60
2, 235204, Control_c, 0, 64, 72
2, 235220, Control_c, 0, 64, 0
2, 235304, Control_c, 0, 64, 24
2, 235316, Control_c, 0, 64, 88
2, 235328, Note_off_c, 0, 77, 0
2, 235328, Note_on_c, 0, 78, 82
2, 235332, Control_c, 0, 64, 127
2, 235472, Note_off_c, 0, 84, 0
2, 235472, Note_on_c, 0, 74, 80
2, 235504, Note_off_c, 0, 45, 0
2, 235512, Note_off_c, 0, 78, 0
2, 235580, Note_off_c, 0, 74, 0
2, 235584, Note_on_c, 0, 75, 78
2, 235664, Note_off_c, 0, 57, 0
2, 235680, Note_off_c, 0, 75, 0
2, 235732, Control_c, 0, 64, 56
2, 235736, Note_on_c, 0, 84, 96
2, 235736, Note_on_c, 0, 78, 79
2, 235740, Note_on_c, 0, 72, 83
2, 235748, Control_c, 0, 64, 0
2, 235752, Note_on_c, 0, 58, 73
2, 235816, Control_c, 0, 64, 40
2, 235828, Control_c, 0, 64, 104
2, 235844, Control_c, 0, 64, 127
2, 235876, Note_on_c, 0, 56, 70
2, 235892, Note_off_c, 0, 58, 0
2, 235940, Note_off_c, 0, 56, 0
2, 236024, Note_on_c, 0, 51, 72
2, 236124, Note_off_c, 0, 51, 0
2, 236160, Note_on_c, 0, 45, 73
2, 236180, Note_off_c, 0, 72, 0
2, 236220, Note_off_c, 0, 78, 0
2, 236228, Note_off_c, 0, 84, 0
2, 236284, Note_off_c, 0, 45, 0
2, 236308, Note_on_c, 0, 44, 70
2, 236316, Note_on_c, 0, 84, 92
2, 236324, Note_on_c, 0, 77, 80
2, 236328, Note_on_c, 0, 74, 70
2, 236328, Note_on_c, 0, 72, 69
2, 236340, Control_c, 0, 64, 88
2, 236352, Control_c, 0, 64, 24
2, 236368, Control_c, 0, 64, 0
2, 236436, Note_on_c, 0, 43, 69
2, 236448, Note_off_c, 0, 44, 0
2, 236452, Control_c, 0, 64, 72
2, 236464, Control_c, 0, 64, 127
2, 236532, Note_off_c, 0, 43, 0
2, 236584, Note_on_c, 0, 46, 70
2, 236620, Note_off_c, 0, 84, 0
2, 236652, Note_off_c, 0, 77, 0
2, 236684, Note_off_c, 0, 74, 0
2, 236684, Note_off_c, 0, 46, 0
2, 236692, Note_off_c, 0, 72, 0
2, 236716, Note_on_c, 0, 44, 68
2, 236852, Note_off_c, 0, 44, 0
2, 236864, Control_c, 0, 64, 88
2, 236876, Control_c, 0, 64, 40
2, 236884, Note_on_c, 0, 83, 69
2, 236884, Note_on_c, 0, 43, 58
2, 236892, Control_c, 0, 64, 0
2, 236900, Note_on_c, 0, 71, 62
2, 236904, Note_on_c, 0, 79, 66
2, 236908, Note_on_c, 0, 74, 60
2, 236948, Note_off_c, 0, 83, 0
2, 236948, Note_off_c, 0, 43, 0
2, 236960, Control_c, 0, 64, 56
2, 236964, Note_off_c, 0, 71, 0
2, 236968, Note_off_c, 0, 79, 0
2, 236968, Note_off_c, 0, 74, 0
2, 236976, Control_c, 0, 64, 127
2, 237024, Note_on_c, 0, 42, 63
2, 237096, Note_off_c, 0, 42, 0
2, 237196, Note_on_c, 0, 41, 60
2, 237196, Control_c, 0, 64, 104
2, 237212, Control_c, 0, 64, 40
2, 237216, Note_on_c, 0, 59, 71
2, 237216, Note_on_c, 0, 50, 53
2, 237216, Note_on_c, 0, 55, 47
2, 237220, Control_c, 0, 64, 0
2, 237308, Control_c, 0, 64, 88
2, 237316, Note_off_c, 0, 41, 0
2, 237320, Note_off_c, 0, 50, 0
2, 237320, Control_c, 0, 64, 127
2, 237340, Note_off_c, 0, 55, 0
2, 237356, Note_on_c, 0, 43, 62
2, 237380, Note_off_c, 0, 59, 0
2, 237448, Note_off_c, 0, 43, 0
2, 237516, Control_c, 0, 64, 72
2, 237524, Note_on_c, 0, 60, 78
2, 237524, Note_on_c, 0, 48, 62
2, 237524, Note_on_c, 0, 39, 63
2, 237524, Control_c, 0, 64, 0
2, 237536, Note_on_c, 0, 55, 58
2, 237612, Control_c, 0, 64, 24
2, 237616, Note_off_c, 0, 48, 0
2, 237624, Control_c, 0, 64, 88
2, 237628, Note_off_c, 0, 39, 0
2, 237640, Control_c, 0, 64, 127
2, 237660, Note_off_c, 0, 60, 0
2, 237660, Note_off_c, 0, 55, 0
2, 237672, Note_on_c, 0, 43, 63
2, 237764, Note_off_c, 0, 43, 0
2, 237804, Control_c, 0, 64, 88
2, 237812, Note_on_c, 0, 62, 83
2, 237820, Control_c, 0, 64, 24
2, 237824, Note_on_c, 0, 50, 67
2, 237832, Note_on_c, 0, 55, 68
2, 237832, Note_on_c, 0, 35, 63
2, 237832, Control_c, 0, 64, 0
2, 237872, Control_c, 0, 64, 56
2, 237888, Control_c, 0, 64, 104
2, 237900, Control_c, 0, 64, 127
2, 237916, Note_off_c, 0, 35, 0
2, 237944, Note_on_c, 0, 43, 62
2, 237956, Note_off_c, 0, 50, 0
2, 237976, Note_off_c, 0, 62, 0
2, 238028, Note_off_c, 0, 43, 0
2, 238032, Note_off_c, 0, 55, 0
2, 238108, Note_on_c, 0, 63, 80
2, 238108, Control_c, 0, 64, 72
2, 238116, Note_on_c, 0, 51, 70
2, 238120, Note_on_c, 0, 55, 69
2, 238120, Note_on_c, 0, 36, 64
2, 238120, Control_c, 0, 64, 0
2, 238204, Control_c, 0, 64, 56
2, 238212, Note_off_c, 0, 55, 0
2, 238212, Note_off_c, 0, 36, 0
2, 238220, Control_c, 0, 64, 127
2, 238232, Note_off_c, 0, 51, 0
2, 238240, Note_on_c, 0, 48, 63
2, 238284, Note_off_c, 0, 63, 0
2, 238340, Note_off_c, 0, 48, 0
2, 238408, Note_on_c, 0, 65, 83
2, 238412, Note_on_c, 0, 44, 64
2, 238420, Note_on_c, 0, 53, 69
2, 238424, Note_on_c, 0, 60, 74
2, 238428, Control_c, 0, 64, 72
2, 238440, Control_c, 0, 64, 0
2, 238524, Note_off_c, 0, 44, 0
2, 238524, Control_c, 0, 64, 24
2, 238528, Note_off_c, 0, 60, 0
2, 238536, Note_off_c, 0, 53, 0
2, 238536, Control_c, 0, 64, 88
2, 238552, Control_c, 0, 64, 127
2, 238560, Note_on_c, 0, 48, 62
2, 238588, Note_off_c, 0, 65, 0
2, 238632, Note_off_c, 0, 48, 0
2, 238720, Note_on_c, 0, 67, 85
2, 238736, Note_on_c, 0, 55, 69
2, 238740, Note_on_c, 0, 60, 70
2, 238744, Note_on_c, 0, 39, 63
2, 238788, Control_c, 0, 64, 104
2, 238800, Control_c, 0, 64, 56
2, 238812, Control_c, 0, 64, 0
2, 238908, Note_on_c, 0, 43, 62
2, 238908, Control_c, 0, 64, 40
2, 238924, Note_off_c, 0, 39, 0
2, 238924, Control_c, 0, 64, 104
2, 238936, Control_c, 0, 64, 127
2, 239004, Note_off_c, 0, 43, 0
2, 239032, Note_off_c, 0, 55, 0
2, 239044, Note_on_c, 0, 48, 65
2, 239076, Note_off_c, 0, 60, 0
2, 239124, Note_off_c, 0, 67, 0
2, 239160, Note_off_c, 0, 48, 0
2, 239192, Note_on_c, 0, 51, 67
2, 239244, Note_off_c, 0, 51, 0
2, 239336, Note_on_c, 0, 69, 86
2, 239336, Note_on_c, 0, 66, 61
2, 239336, Note_on_c, 0, 50, 70
2, 239336, Note_on_c, 0, 60, 69
2, 239352, Control_c, 0, 64, 88
2, 239364, Control_c, 0, 64, 24
2, 239380, Control_c, 0, 64, 0
2, 239436, Note_off_c, 0, 50, 0
2, 239464, Control_c, 0, 64, 56
2, 239472, Control_c, 0, 64, 104
2, 239488, Control_c, 0, 64, 127
2, 239500, Note_on_c, 0, 38, 68
2, 239564, Note_off_c, 0, 69, 0
2, 239584, Note_off_c, 0, 60, 0
2, 239640, Note_off_c, 0, 66, 0
2, 239640, Note_on_c, 0, 50, 65
2, 239656, Note_off_c, 0, 38, 0
2, 239724, Note_off_c, 0, 50, 0
2, 239740, Control_c, 0, 64, 56
2, 239752, Control_c, 0, 64, 0
2, 239760, Note_on_c, 0, 70, 81
2, 239760, Note_on_c, 0, 67, 77
2, 239760, Note_on_c, 0, 58, 68
2, 239780, Note_on_c, 0, 43, 64
2, 239796, Control_c, 0, 64, 40
2, 239804, Note_off_c, 0, 43, 0
2, 239804, Control_c, 0, 64, 88
2, 239816, Note_off_c, 0, 67, 0
2, 239820, Note_off_c, 0, 58, 0
2, 239820, Control_c, 0, 64, 127
2, 239840, Note_off_c, 0, 70, 0
2, 239932, Control_c, 0, 64, 104
2, 239944, Note_on_c, 0, 62, 94
2, 239944, Note_on_c, 0, 41, 66
2, 239944, Note_on_c, 0, 57, 60
2, 239944, Control_c, 0, 64, 40
2, 239960, Control_c, 0, 64, 0
2, 239972, Note_off_c, 0, 57, 0
2, 240036, Note_off_c, 0, 41, 0
2, 240056, Control_c, 0, 64, 56
2, 240068, Note_on_c, 0, 53, 66
2, 240072, Control_c, 0, 64, 127
2, 240176, Note_off_c, 0, 53, 0
2, 240216, Note_on_c, 0, 52, 64
2, 240304, Note_off_c, 0, 62, 0
2, 240308, Note_off_c, 0, 52, 0
2, 240364, Note_on_c, 0, 50, 62
2, 240464, Note_off_c, 0, 50, 0
2, 240484, Control_c, 0, 64, 88
2, 240500, Control_c, 0, 64, 72
2, 240512, Control_c, 0, 64, 24
2, 240520, Note_on_c, 0, 64, 84
2, 240520, Note_on_c, 0, 49, 63
2, 240520, Note_on_c, 0, 52, 62
2, 240528, Control_c, 0, 64, 0
2, 240536, Note_on_c, 0, 57, 66
2, 240608, Control_c, 0, 64, 24
2, 240620, Control_c, 0, 64, 88
2, 240636, Control_c, 0, 64, 127
2, 240664, Note_on_c, 0, 46, 62
2, 240688, Note_off_c, 0, 49, 0
2, 240740, Note_off_c, 0, 46, 0
2, 240800, Note_on_c, 0, 45, 63
2, 240868, Note_off_c, 0, 45, 0
2, 240876, Note_off_c, 0, 52, 0
2, 240924, Note_on_c, 0, 43, 63
2, 240952, Note_off_c, 0, 64, 0
2, 241020, Note_off_c, 0, 57, 0
2, 241036, Note_off_c, 0, 43, 0
2, 241068, Note_on_c, 0, 41, 63
2, 241072, Note_on_c, 0, 65, 82
2, 241080, Control_c, 0, 64, 88
2, 241084, Note_on_c, 0, 53, 70
2, 241084, Note_on_c, 0, 57, 70
2, 241092, Note_on_c, 0, 62, 64
2, 241092, Control_c, 0, 64, 24
2, 241104, Control_c, 0, 64, 0
2, 241188, Control_c, 0, 64, 40
2, 241204, Note_on_c, 0, 40, 63
2, 241204, Control_c, 0, 64, 88
2, 241216, Control_c, 0, 64, 127
2, 241220, Note_off_c, 0, 41, 0
2, 241264, Note_off_c, 0, 40, 0
2, 241304, Note_on_c, 0, 38, 64
2, 241424, Note_off_c, 0, 38, 0
2, 241448, Note_on_c, 0, 36, 64
2, 241484, Note_off_c, 0, 62, 0
2, 241524, Note_off_c, 0, 57, 0
2, 241544, Note_off_c, 0, 65, 0
2, 241580, Note_off_c, 0, 36, 0
2, 241620, Control_c, 0, 64, 56
2, 241624, Note_on_c, 0, 35, 67
2, 241632, Control_c, 0, 64, 0
2, 241700, Control_c, 0, 64, 24
2, 241716, Control_c, 0, 64, 88
2, 241728, Control_c, 0, 64, 127
2, 241760, Note_off_c, 0, 53, 0
2, 241772, Note_on_c, 0, 47, 62
2, 241832, Note_off_c, 0, 47, 0
2, 241920, Note_on_c, 0, 65, 88
2, 241920, Note_on_c, 0, 61, 68
2, 241920, Note_on_c, 0, 47, 63
2, 241924, Control_c, 0, 64, 72
2, 241936, Control_c, 0, 64, 24
2, 241948, Control_c, 0, 64, 0
2, 241968, Note_off_c, 0, 35, 0
2, 241992, Control_c, 0, 64, 56
2, 242000, Note_off_c, 0, 47, 0
2, 242004, Control_c, 0, 64, 88
2, 242020, Note_off_c, 0, 61, 0
2, 242020, Control_c, 0, 64, 127
2, 242040, Note_off_c, 0, 65, 0
2, 242048, Note_on_c, 0, 53, 67
2, 242100, Note_off_c, 0, 53, 0
2, 242184, Control_c, 0, 64, 56
2, 242196, Control_c, 0, 64, 0
2, 242204, Note_on_c, 0, 66, 82
2, 242204, Note_on_c, 0, 45, 64
2, 242204, Note_on_c, 0, 57, 67
2, 242204, Note_on_c, 0, 61, 69
2, 242264, Note_off_c, 0, 45, 0
2, 242276, Note_off_c, 0, 57, 0
2, 242280, Control_c, 0, 64, 72
2, 242296, Note_off_c, 0, 61, 0
2, 242296, Control_c, 0, 64, 127
2, 242340, Note_on_c, 0, 54, 39
2, 242352, Note_off_c, 0, 66, 0
2, 242404, Note_off_c, 0, 54, 0
2, 242448, Control_c, 0, 64, 104
2, 242460, Control_c, 0, 64, 40
2, 242472, Control_c, 0, 64, 0
2, 242476, Note_on_c, 0, 68, 84
2, 242496, Note_on_c, 0, 61, 67
2, 242500, Note_on_c, 0, 53, 65
2, 242504, Note_on_c, 0, 41, 54
2, 242556, Control_c, 0, 64, 40
2, 242568, Control_c, 0, 64, 104
2, 242584, Note_off_c, 0, 41, 0
2, 242588, Control_c, 0, 64, 127
2, 242596, Note_off_c, 0, 53, 0
2, 242604, Note_off_c, 0, 61, 0
2, 242620, Note_on_c, 0, 56, 60
2, 242688, Note_off_c, 0, 68, 0
2, 242708, Note_off_c, 0, 56, 0
2, 242752, Control_c, 0, 64, 104
2, 242760, Note_on_c, 0, 69, 85
2, 242764, Control_c, 0, 64, 40
2, 242768, Note_on_c, 0, 57, 71
2, 242780, Note_on_c, 0, 54, 68
2, 242780, Note_on_c, 0, 42, 64
2, 242780, Control_c, 0, 64, 0
2, 242848, Control_c, 0, 64, 56
2, 242860, Control_c, 0, 64, 104
2, 242876, Control_c, 0, 64, 127
2, 242892, Note_off_c, 0, 57, 0
2, 242900, Note_on_c, 0, 61, 65
2, 242908, Note_off_c, 0, 69, 0
2, 242936, Note_off_c, 0, 54, 0
2, 242968, Note_off_c, 0, 61, 0
2, 243000, Note_off_c, 0, 42, 0
2, 243056, Note_on_c, 0, 70, 86
2, 243056, Note_on_c, 0, 52, 66
2, 243056, Note_on_c, 0, 40, 53
2, 243056, Note_on_c, 0, 67, 85
2, 243056, Control_c, 0, 64, 104
2, 243068, Control_c, 0, 64, 40
2, 243084, Control_c, 0, 64, 0
2, 243164, Control_c, 0, 64, 40
2, 243168, Note_off_c, 0, 67, 0
2, 243172, Note_off_c, 0, 40, 0
2, 243180, Control_c, 0, 64, 104
2, 243192, Note_off_c, 0, 52, 0
2, 243192, Control_c, 0, 64, 127
2, 243196, Note_on_c, 0, 58, 64
2, 243284, Note_off_c, 0, 58, 0
2, 243300, Note_off_c, 0, 70, 0
2, 243368, Note_on_c, 0, 71, 90
2, 243368, Note_on_c, 0, 39, 53
2, 243368, Note_on_c, 0, 51, 67
2, 243368, Note_on_c, 0, 66, 71
2, 243388, Control_c, 0, 64, 104
2, 243400, Control_c, 0, 64, 56
2, 243412, Control_c, 0, 64, 0
2, 243508, Note_on_c, 0, 59, 62
2, 243532, Note_off_c, 0, 66, 0
2, 243536, Control_c, 0, 64, 72
2, 243552, Control_c, 0, 64, 127
2, 243616, Note_off_c, 0, 59, 0
2, 243656, Note_on_c, 0, 65, 64
2, 243708, Note_off_c, 0, 39, 0
2, 243740, Note_off_c, 0, 51, 0
2, 243744, Note_off_c, 0, 71, 0
2, 243748, Note_off_c, 0, 65, 0
2, 243788, Note_on_c, 0, 66, 67
2, 243884, Note_off_c, 0, 66, 0
2, 243928, Control_c, 0, 64, 88
2, 243940, Note_on_c, 0, 72, 89
2, 243940, Note_on_c, 0, 54, 65
2, 243940, Note_on_c, 0, 42, 68
2, 243940, Note_on_c, 0, 69, 77
2, 243940, Control_c, 0, 64, 24
2, 243952, Control_c, 0, 64, 0
2, 244020, Control_c, 0, 64, 24
2, 244036, Control_c, 0, 64, 72
2, 244048, Control_c, 0, 64, 127
2, 244068, Note_off_c, 0, 69, 0
2, 244088, Note_on_c, 0, 63, 63
2, 244176, Note_off_c, 0, 72, 0
2, 244212, Note_off_c, 0, 63, 0
2, 244232, Note_on_c, 0, 68, 67
2, 244252, Note_off_c, 0, 42, 0
2, 244260, Note_off_c, 0, 54, 0
2, 244324, Note_off_c, 0, 68, 0
2, 244336, Control_c, 0, 64, 88
2, 244352, Control_c, 0, 64, 24
2, 244356, Note_on_c, 0, 73, 86
2, 244356, Note_on_c, 0, 61, 69
2, 244356, Note_on_c, 0, 53, 64
2, 244356, Note_on_c, 0, 41, 67
2, 244368, Control_c, 0, 64, 0
2, 244376, Control_c, 0, 64, 24
2, 244392, Note_off_c, 0, 53, 0
2, 244396, Control_c, 0, 64, 56
2, 244404, Note_off_c, 0, 41, 0
2, 244408, Control_c, 0, 64, 88
2, 244412, Note_off_c, 0, 73, 0
2, 244412, Note_off_c, 0, 61, 0
2, 244420, Control_c, 0, 64, 127
2, 244532, Control_c, 0, 64, 104
2, 244536, Note_on_c, 0, 59, 83
2, 244536, Note_on_c, 0, 51, 65
2, 244536, Note_on_c, 0, 39, 67
2, 244544, Control_c, 0, 64, 40
2, 244560, Control_c, 0, 64, 0
2, 244644, Control_c, 0, 64, 56
2, 244656, Control_c, 0, 64, 104
2, 244660, Note_off_c, 0, 59, 0
2, 244668, Note_on_c, 0, 55, 67
2, 244672, Control_c, 0, 64, 127
2, 244776, Note_off_c, 0, 55, 0
2, 244812, Note_on_c, 0, 56, 68
2, 244832, Note_off_c, 0, 51, 0
2, 244900, Note_off_c, 0, 39, 0
2, 244908, Note_off_c, 0, 56, 0
2, 244952, Note_on_c, 0, 51, 66
2, 245020, Note_off_c, 0, 51, 0
2, 245100, Note_on_c, 0, 63, 73
2, 245100, Note_on_c, 0, 49, 73
2, 245100, Note_on_c, 0, 58, 63
2, 245100, Note_on_c, 0, 37, 66
2, 245112, Control_c, 0, 64, 104
2, 245120, Control_c, 0, 64, 72
2, 245140, Control_c, 0, 64, 24
2, 245152, Control_c, 0, 64, 0
2, 245244, Note_off_c, 0, 58, 0
2, 245248, Note_on_c, 0, 54, 68
2, 245264, Control_c, 0, 64, 56
2, 245280, Control_c, 0, 64, 104
2, 245292, Control_c, 0, 64, 127
2, 245360, Note_off_c, 0, 54, 0
2, 245408, Note_on_c, 0, 55, 70
2, 245484, Note_off_c, 0, 63, 0
2, 245488, Note_off_c, 0, 55, 0
2, 245496, Note_off_c, 0, 49, 0
2, 245504, Note_on_c, 0, 51, 66
2, 245552, Note_off_c, 0, 51, 0
2, 245568, Note_off_c, 0, 37, 0
2, 245708, Control_c, 0, 64, 88
2, 245716, Note_on_c, 0, 68, 78
2, 245720, Control_c, 0, 64, 24
2, 245724, Note_on_c, 0, 56, 69
2, 245736, Note_on_c, 0, 63, 61
2, 245736, Control_c, 0, 64, 0
2, 245740, Note_on_c, 0, 36, 64
2, 245872, Note_on_c, 0, 39, 63
2, 245888, Control_c, 0, 64, 104
2, 245896, Note_off_c, 0, 36, 0
2, 245900, Control_c, 0, 64, 127
2, 246000, Note_on_c, 0, 44, 65
2, 246004, Note_off_c, 0, 39, 0
2, 246100, Note_off_c, 0, 44, 0
2, 246128, Note_on_c, 0, 48, 69
2, 246196, Note_off_c, 0, 48, 0
2, 246216, Note_off_c, 0, 56, 0
2, 246260, Note_on_c, 0, 50, 71
2, 246276, Note_off_c, 0, 63, 0
2, 246368, Note_off_c, 0, 50, 0
2, 246396, Note_on_c, 0, 53, 73
2, 246432, Note_off_c, 0, 68, 0
2, 246456, Note_off_c, 0, 53, 0
2, 246520, Control_c, 0, 64, 88
2, 246536, Control_c, 0, 64, 24
2, 246544, Note_on_c, 0, 69, 85
2, 246552, Control_c, 0, 64, 0
2, 246560, Note_on_c, 0, 60, 69
2, 246560, Note_on_c, 0, 66, 65
2, 246560, Note_on_c, 0, 51, 72
2, 246632, Control_c, 0, 64, 40
2, 246648, Note_off_c, 0, 60, 0
2, 246648, Control_c, 0, 64, 88
2, 246660, Control_c, 0, 64, 127
2, 246672, Note_off_c, 0, 66, 0
2, 246684, Note_off_c, 0, 51, 0
2, 246700, Note_on_c, 0, 63, 73
2, 246748, Note_off_c, 0, 63, 0
2, 246752, Note_off_c, 0, 69, 0
2, 246824, Control_c, 0, 64, 88
2, 246840, Control_c, 0, 64, 24
2, 246844, Note_on_c, 0, 70, 87
2, 246844, Note_on_c, 0, 65, 74
2, 246844, Note_on_c, 0, 61, 73
2, 246852, Control_c, 0, 64, 0
2, 246908, Control_c, 0, 64, 24
2, 246924, Control_c, 0, 64, 72
2, 246936, Control_c, 0, 64, 127
2, 246944, Note_off_c, 0, 61, 0
2, 246972, Note_off_c, 0, 65, 0
2, 246988, Note_on_c, 0, 49, 63
2, 247048, Note_off_c, 0, 49, 0
2, 247092, Note_off_c, 0, 70, 0
2, 247136, Note_on_c, 0, 72, 92
2, 247136, Note_on_c, 0, 45, 75
2, 247144, Control_c, 0, 64, 40
2, 247152, Note_on_c, 0, 65, 73
2, 247156, Note_on_c, 0, 60, 69
2, 247160, Control_c, 0, 64, 0
2, 247240, Control_c, 0, 64, 40
2, 247248, Note_off_c, 0, 45, 0
2, 247256, Control_c, 0, 64, 104
2, 247268, Control_c, 0, 64, 127
2, 247276, Note_off_c, 0, 60, 0
2, 247292, Note_on_c, 0, 53, 61
2, 247308, Note_off_c, 0, 72, 0
2, 247328, Note_off_c, 0, 65, 0
2, 247328, Note_off_c, 0, 53, 0
2, 247432, Note_on_c, 0, 73, 91
2, 247432, Note_on_c, 0, 61, 79
2, 247432, Note_on_c, 0, 46, 62
2, 247432, Note_on_c, 0, 65, 75
2, 247432, Note_on_c, 0, 70, 69
2, 247448, Control_c, 0, 64, 104
2, 247460, Control_c, 0, 64, 24
2, 247476, Control_c, 0, 64, 0
2, 247532, Control_c, 0, 64, 24
2, 247540, Note_off_c, 0, 46, 0
2, 247544, Control_c, 0, 64, 72
2, 247552, Note_off_c, 0, 70, 0
2, 247560, Control_c, 0, 64, 127
2, 247572, Note_on_c, 0, 58, 64
2, 247588, Note_off_c, 0, 61, 0
2, 247592, Note_off_c, 0, 65, 0
2, 247624, Note_off_c, 0, 58, 0
2, 247632, Note_off_c, 0, 73, 0
2, 247728, Note_on_c, 0, 74, 96
2, 247728, Note_on_c, 0, 62, 80
2, 247728, Note_on_c, 0, 65, 70
2, 247728, Note_on_c, 0, 71, 72
2, 247728, Note_on_c, 0, 44, 67
2, 247736, Control_c, 0, 64, 24
2, 247752, Control_c, 0, 64, 0
2, 247824, Note_off_c, 0, 65, 0
2, 247824, Note_off_c, 0, 44, 0
2, 247836, Control_c, 0, 64, 88
2, 247848, Note_off_c, 0, 62, 0
2, 247848, Control_c, 0, 64, 127
2, 247860, Note_off_c, 0, 71, 0
2, 247876, Note_off_c, 0, 74, 0
2, 247876, Note_on_c, 0, 56, 51
2, 247952, Note_off_c, 0, 56, 0
2, 248036, Note_on_c, 0, 75, 93
2, 248036, Note_on_c, 0, 63, 82
2, 248036, Note_on_c, 0, 43, 70
2, 248036, Note_on_c, 0, 67, 67
2, 248036, Note_on_c, 0, 70, 73
2, 248084, Control_c, 0, 64, 104
2, 248096, Control_c, 0, 64, 24
2, 248108, Control_c, 0, 64, 0
2, 248156, Note_off_c, 0, 43, 0
2, 248204, Note_on_c, 0, 46, 67
2, 248224, Control_c, 0, 64, 104
2, 248232, Control_c, 0, 64, 127
2, 248308, Note_off_c, 0, 46, 0
2, 248336, Note_on_c, 0, 51, 70
2, 248404, Note_off_c, 0, 63, 0
2, 248404, Note_off_c, 0, 67, 0
2, 248420, Note_off_c, 0, 70, 0
2, 248424, Note_off_c, 0, 51, 0
2, 248452, Note_on_c, 0, 55, 73
2, 248456, Note_off_c, 0, 75, 0
2, 248512, Note_off_c, 0, 55, 0
2, 248612, Note_on_c, 0, 76, 95
2, 248616, Note_on_c, 0, 64, 75
2, 248620, Note_on_c, 0, 72, 79
2, 248620, Note_on_c, 0, 58, 75
2, 248624, Note_on_c, 0, 67, 64
2, 248624, Control_c, 0, 64, 40
2, 248636, Control_c, 0, 64, 0
2, 248716, Note_off_c, 0, 67, 0
2, 248732, Control_c, 0, 64, 72
2, 248736, Note_off_c, 0, 58, 0
2, 248744, Control_c, 0, 64, 127
2, 248772, Note_on_c, 0, 60, 62
2, 248780, Note_off_c, 0, 64, 0
2, 248804, Note_off_c, 0, 72, 0
2, 248844, Note_off_c, 0, 76, 0
2, 248860, Note_off_c, 0, 60, 0
2, 248904, Note_on_c, 0, 56, 53
2, 248996, Note_off_c, 0, 56, 0
2, 249040, Note_on_c, 0, 77, 99
2, 249044, Note_on_c, 0, 60, 63
2, 249048, Note_on_c, 0, 65, 75
2, 249048, Note_on_c, 0, 72, 83
2, 249092, Note_off_c, 0, 77, 0
2, 249096, Note_off_c, 0, 65, 0
2, 249100, Note_off_c, 0, 72, 0
2, 249116, Note_off_c, 0, 60, 0
2, 249196, Note_on_c, 0, 67, 88
2, 249196, Note_on_c, 0, 63, 69
2, 249204, Note_on_c, 0, 60, 63
2, 249204, Note_on_c, 0, 55, 54
2, 249208, Note_on_c, 0, 66, 31
2, 249216, Control_c, 0, 64, 56
2, 249228, Control_c, 0, 64, 0
2, 249236, Note_off_c, 0, 66, 0
2, 249292, Note_off_c, 0, 55, 0
2, 249320, Note_on_c, 0, 54, 62
2, 249340, Control_c, 0, 64, 72
2, 249352, Control_c, 0, 64, 127
2, 249428, Note_off_c, 0, 54, 0
2, 249464, Note_on_c, 0, 56, 61
2, 249544, Note_off_c, 0, 56, 0
2, 249552, Note_off_c, 0, 63, 0
2, 249596, Note_off_c, 0, 60, 0
2, 249628, Note_on_c, 0, 55, 63
2, 249696, Note_off_c, 0, 67, 0
2, 249712, Note_off_c, 0, 55, 0
2, 249752, Note_on_c, 0, 71, 86
2, 249756, Control_c, 0, 64, 104
2, 249760, Note_on_c, 0, 67, 47
2, 249764, Note_on_c, 0, 62, 59
2, 249764, Note_on_c, 0, 53, 60
2, 249764, Note_on_c, 0, 59, 48
2, 249772, Control_c, 0, 64, 72
2, 249784, Control_c, 0, 64, 0
2, 249864, Note_off_c, 0, 53, 0
2, 249892, Note_on_c, 0, 52, 70
2, 249904, Control_c, 0, 64, 56
2, 249920, Control_c, 0, 64, 104
2, 249936, Control_c, 0, 64, 127
2, 249980, Note_off_c, 0, 52, 0
2, 250024, Note_off_c, 0, 62, 0
2, 250024, Note_on_c, 0, 55, 66
2, 250116, Note_off_c, 0, 55, 0
2, 250120, Note_off_c, 0, 59, 0
2, 250160, Note_on_c, 0, 53, 74
2, 250204, Note_off_c, 0, 71, 0
2, 250204, Note_off_c, 0, 67, 0
2, 250292, Control_c, 0, 64, 72
2, 250308, Note_off_c, 0, 53, 0
2, 250308, Note_on_c, 0, 52, 70
2, 250308, Control_c, 0, 64, 0
2, 250312, Note_on_c, 0, 72, 92
2, 250320, Note_on_c, 0, 67, 57
2, 250320, Note_on_c, 0, 60, 66
2, 250324, Note_on_c, 0, 64, 62
2, 250392, Note_off_c, 0, 52, 0
2, 250392, Control_c, 0, 64, 24
2, 250404, Control_c, 0, 64, 72
2, 250420, Control_c, 0, 64, 127
2, 250468, Note_on_c, 0, 48, 80
2, 250552, Note_off_c, 0, 48, 0
2, 250568, Note_off_c, 0, 72, 0
2, 250572, Note_off_c, 0, 64, 0
2, 250588, Note_off_c, 0, 67, 0
2, 250604, Note_on_c, 0, 43, 68
2, 250612, Note_off_c, 0, 60, 0
2, 250732, Note_off_c, 0, 43, 0
2, 250732, Note_on_c, 0, 40, 72
2, 250792, Note_off_c, 0, 40, 0
2, 250888, Control_c, 0, 64, 72
2, 250900, Note_on_c, 0, 65, 81
2, 250900, Control_c, 0, 64, 0
2, 250908, Note_on_c, 0, 39, 71
2, 250912, Note_on_c, 0, 57, 67
2, 250920, Note_on_c, 0, 60, 68
2, 250956, Note_off_c, 0, 39, 0
2, 251016, Note_off_c, 0, 57, 0
2, 251028, Control_c, 0, 64, 72
2, 251036, Note_on_c, 0, 41, 60
2, 251040, Control_c, 0, 64, 127
2, 251060, Note_off_c, 0, 60, 0
2, 251088, Note_off_c, 0, 65, 0
2, 251128, Note_off_c, 0, 41, 0
2, 251160, Note_on_c, 0, 37, 65
2, 251264, Note_off_c, 0, 37, 0
2, 251316, Note_on_c, 0, 70, 78
2, 251324, Note_on_c, 0, 41, 54
2, 251328, Note_on_c, 0, 58, 73
2, 251348, Note_on_c, 0, 65, 33
2, 251372, Note_off_c, 0, 70, 0
2, 251380, Note_off_c, 0, 58, 0
2, 251380, Note_off_c, 0, 65, 0
2, 251472, Note_off_c, 0, 41, 0
2, 251476, Note_on_c, 0, 56, 84
2, 251484, Note_on_c, 0, 51, 76
2, 251488, Note_on_c, 0, 36, 60
2, 251512, Control_c, 0, 64, 24
2, 251524, Control_c, 0, 64, 0
2, 251588, Note_off_c, 0, 36, 0
2, 251604, Control_c, 0, 64, 24
2, 251620, Note_on_c, 0, 35, 69
2, 251620, Control_c, 0, 64, 72
2, 251632, Control_c, 0, 64, 127
2, 251720, Control_c, 0, 64, 104
2, 251732, Control_c, 0, 64, 24
2, 251744, Control_c, 0, 64, 0
2, 251760, Note_on_c, 0, 37, 68
2, 251768, Note_off_c, 0, 35, 0
2, 251812, Control_c, 0, 64, 40
2, 251828, Control_c, 0, 64, 88
2, 251840, Control_c, 0, 64, 127
2, 251872, Note_off_c, 0, 37, 0
2, 251900, Note_on_c, 0, 36, 77
2, 251992, Note_off_c, 0, 51, 0
2, 252000, Note_off_c, 0, 56, 0
2, 252072, Note_on_c, 0, 58, 77
2, 252076, Note_on_c, 0, 34, 61
2, 252080, Note_on_c, 0, 49, 73
2, 252084, Note_off_c, 0, 36, 0
2, 252088, Note_on_c, 0, 51, 58
2, 252092, Note_on_c, 0, 55, 68
2, 252120, Control_c, 0, 64, 104
2, 252128, Control_c, 0, 64, 40
2, 252144, Control_c, 0, 64, 0
2, 252216, Note_off_c, 0, 34, 0
2, 252228, Note_on_c, 0, 33, 74
2, 252256, Control_c, 0, 64, 72
2, 252268, Control_c, 0, 64, 127
2, 252372, Note_off_c, 0, 33, 0
2, 252384, Note_on_c, 0, 36, 67
2, 252484, Note_off_c, 0, 36, 0
2, 252540, Note_on_c, 0, 34, 73
2, 252548, Note_off_c, 0, 55, 0
2, 252604, Note_off_c, 0, 49, 0
2, 252624, Note_off_c, 0, 58, 0
2, 252652, Note_off_c, 0, 34, 0
2, 252684, Note_off_c, 0, 51, 0
2, 252760, Note_on_c, 0, 60, 83
2, 252760, Note_on_c, 0, 32, 80
2, 252760, Note_on_c, 0, 54, 60
2, 252760, Note_on_c, 0, 51, 64
2, 252824, Control_c, 0, 64, 104
2, 252828, Control_c, 0, 64, 127
2, 252836, Control_c, 0, 64, 40
2, 253132, Control_c, 0, 64, 72
2, 253140, Note_on_c, 0, 56, 66
2, 253148, Control_c, 0, 64, 40
2, 253164, Note_off_c, 0, 32, 0
2, 253164, Note_off_c, 0, 51, 0
2, 253168, Note_off_c, 0, 54, 0
2, 253192, Note_off_c, 0, 60, 0
2, 253192, Control_c, 0, 64, 72
2, 253212, Control_c, 0, 64, 104
2, 253228, Control_c, 0, 64, 127
2, 253292, Note_off_c, 0, 56, 0
2, 253308, Note_on_c, 0, 68, 50
2, 253348, Control_c, 0, 64, 56
2, 253364, Control_c, 0, 64, 0
2, 253408, Control_c, 0, 64, 40
2, 253424, Control_c, 0, 64, 72
2, 253456, Note_on_c, 0, 66, 55
2, 253456, Control_c, 0, 64, 56
2, 253472, Control_c, 0, 64, 24
2, 253484, Control_c, 0, 64, 0
2, 253512, Note_off_c, 0, 68, 0
2, 253532, Control_c, 0, 64, 40
2, 253548, Control_c, 0, 64, 88
2, 253564, Control_c, 0, 64, 127
2, 253580, Note_off_c, 0, 66, 0
2, 253600, Note_on_c, 0, 63, 43
2, 253736, Note_off_c, 0, 63, 0
2, 253772, Note_on_c, 0, 56, 46
2, 253908, Note_off_c, 0, 56, 0
2, 253936, Note_on_c, 0, 68, 55
2, 254080, Note_on_c, 0, 66, 55
2, 254092, Note_off_c, 0, 68, 0
2, 254192, Note_off_c, 0, 66, 0
2, 254228, Note_on_c, 0, 63, 32
2, 254348, Note_off_c, 0, 63, 0
2, 254400, Note_on_c, 0, 56, 43
2, 254496, Note_off_c, 0, 56, 0
2, 254556, Note_on_c, 0, 70, 58
2, 254712, Note_off_c, 0, 70, 0
2, 254712, Note_on_c, 0, 66, 46
2, 254856, Note_off_c, 0, 66, 0
2, 254888, Note_on_c, 0, 63, 36
2, 255008, Note_off_c, 0, 63, 0
2, 255036, Note_on_c, 0, 56, 40
2, 255168, Note_off_c, 0, 56, 0
2, 255196, Note_on_c, 0, 68, 54
2, 255340, Note_on_c, 0, 66, 46
2, 255344, Note_off_c, 0, 68, 0
2, 255464, Note_off_c, 0, 66, 0
2, 255508, Note_on_c, 0, 63, 35
2, 255620, Note_off_c, 0, 63, 0
2, 255660, Note_on_c, 0, 56, 47
2, 255768, Note_off_c, 0, 56, 0
2, 255832, Note_on_c, 0, 70, 59
2, 255988, Note_off_c, 0, 70, 0
2, 255988, Note_on_c, 0, 66, 45
2, 256108, Note_off_c, 0, 66, 0
2, 256144, Note_on_c, 0, 63, 34
2, 256288, Note_off_c, 0, 63, 0
2, 256320, Note_on_c, 0, 56, 42
2, 256492, Note_on_c, 0, 68, 54
2, 256604, Note_off_c, 0, 56, 0
2, 256644, Note_on_c, 0, 66, 43
2, 256656, Note_off_c, 0, 68, 0
2, 256780, Note_off_c, 0, 66, 0
2, 256808, Note_on_c, 0, 63, 37
2, 256936, Note_off_c, 0, 63, 0
2, 256952, Note_on_c, 0, 56, 46
2, 257056, Note_off_c, 0, 56, 0
2, 257100, Note_on_c, 0, 70, 59
2, 257336, Note_on_c, 0, 66, 37
2, 257368, Note_on_c, 0, 78, 73
2, 257452, Control_c, 0, 64, 56
2, 257468, Control_c, 0, 64, 0
2, 257500, Note_on_c, 0, 60, 43
2, 257516, Note_off_c, 0, 66, 0
2, 257560, Control_c, 0, 64, 56
2, 257576, Control_c, 0, 64, 127
2, 257592, Note_off_c, 0, 70, 0
2, 257712, Note_off_c, 0, 60, 0
2, 257716, Note_on_c, 0, 56, 48
2, 257904, Note_on_c, 0, 68, 48
2, 258008, Note_off_c, 0, 78, 0
2, 258076, Note_on_c, 0, 77, 81
2, 258120, Control_c, 0, 64, 104
2, 258128, Note_on_c, 0, 65, 39
2, 258132, Control_c, 0, 64, 24
2, 258136, Note_off_c, 0, 68, 0
2, 258148, Control_c, 0, 64, 0
2, 258224, Note_off_c, 0, 56, 0
2, 258228, Control_c, 0, 64, 56
2, 258244, Control_c, 0, 64, 127
2, 258256, Note_off_c, 0, 65, 0
2, 258284, Note_on_c, 0, 61, 40
2, 258396, Note_off_c, 0, 77, 0
2, 258416, Note_on_c, 0, 73, 70
2, 258432, Note_off_c, 0, 61, 0
2, 258480, Note_on_c, 0, 56, 43
2, 258520, Note_off_c, 0, 73, 0
2, 258548, Note_off_c, 0, 56, 0
2, 258600, Note_on_c, 0, 70, 50
2, 258676, Note_off_c, 0, 70, 0
2, 258764, Note_on_c, 0, 66, 50
2, 258776, Note_on_c, 0, 70, 73
2, 258788, Control_c, 0, 64, 104
2, 258800, Control_c, 0, 64, 24
2, 258816, Control_c, 0, 64, 0
2, 258864, Control_c, 0, 64, 72
2, 258880, Control_c, 0, 64, 127
2, 258900, Note_off_c, 0, 66, 0
2, 258936, Note_on_c, 0, 63, 42
2, 259000, Note_off_c, 0, 70, 0
2, 259048, Note_off_c, 0, 63, 0
2, 259096, Note_on_c, 0, 56, 50
2, 259188, Note_off_c, 0, 56, 0
2, 259240, Note_on_c, 0, 72, 73
2, 259260, Note_on_c, 0, 68, 56
2, 259396, Note_off_c, 0, 72, 0
2, 259428, Note_on_c, 0, 73, 73
2, 259444, Note_on_c, 0, 65, 50
2, 259464, Note_off_c, 0, 68, 0
2, 259500, Control_c, 0, 64, 104
2, 259516, Control_c, 0, 64, 40
2, 259528, Control_c, 0, 64, 0
2, 259568, Note_off_c, 0, 65, 0
2, 259580, Note_on_c, 0, 61, 37
2, 259620, Control_c, 0, 64, 56
2, 259636, Control_c, 0, 64, 127
2, 259752, Note_off_c, 0, 61, 0
2, 259752, Note_on_c, 0, 56, 44
2, 259840, Note_off_c, 0, 56, 0
2, 259896, Note_on_c, 0, 70, 63
2, 260060, Note_off_c, 0, 73, 0
2, 260068, Note_on_c, 0, 66, 54
2, 260080, Note_on_c, 0, 75, 79
2, 260132, Control_c, 0, 64, 40
2, 260148, Control_c, 0, 64, 0
2, 260244, Note_off_c, 0, 66, 0
2, 260244, Note_on_c, 0, 60, 55
2, 260244, Control_c, 0, 64, 127
2, 260252, Note_off_c, 0, 70, 0
2, 260392, Note_off_c, 0, 60, 0
2, 260420, Note_on_c, 0, 56, 52
2, 260548, Note_on_c, 0, 68, 55
2, 260564, Note_off_c, 0, 56, 0
2, 260676, Note_off_c, 0, 75, 0
2, 260720, Note_on_c, 0, 77, 86
2, 260748, Note_on_c, 0, 65, 49
2, 260748, Control_c, 0, 64, 88
2, 260768, Control_c, 0, 64, 24
2, 260784, Control_c, 0, 64, 0
2, 260876, Control_c, 0, 64, 40
2, 260884, Note_off_c, 0, 65, 0
2, 260888, Note_on_c, 0, 61, 38
2, 260892, Control_c, 0, 64, 127
2, 260956, Note_off_c, 0, 68, 0
2, 261040, Note_off_c, 0, 61, 0
2, 261076, Note_on_c, 0, 56, 43
2, 261244, Note_off_c, 0, 56, 0
2, 261248, Note_off_c, 0, 77, 0
2, 261272, Note_on_c, 0, 68, 29
2, 261372, Control_c, 0, 64, 104
2, 261384, Note_on_c, 0, 82, 79
2, 261388, Control_c, 0, 64, 24
2, 261404, Control_c, 0, 64, 0
2, 261424, Note_on_c, 0, 65, 54
2, 261476, Control_c, 0, 64, 72
2, 261496, Control_c, 0, 64, 127
2, 261560, Note_off_c, 0, 65, 0
2, 261568, Note_off_c, 0, 68, 0
2, 261592, Note_on_c, 0, 62, 42
2, 261704, Note_off_c, 0, 62, 0
2, 261756, Note_on_c, 0, 56, 42
2, 261852, Note_off_c, 0, 82, 0
2, 261900, Note_on_c, 0, 68, 47
2, 261968, Note_on_c, 0, 80, 80
2, 262100, Note_off_c, 0, 80, 0
2, 262124, Note_off_c, 0, 68, 0
2, 262128, Note_on_c, 0, 66, 39
2, 262148, Control_c, 0, 64, 104
2, 262152, Note_on_c, 0, 82, 78
2, 262164, Control_c, 0, 64, 24
2, 262180, Control_c, 0, 64, 0
2, 262256, Control_c, 0, 64, 88
2, 262260, Note_off_c, 0, 56, 0
2, 262268, Control_c, 0, 64, 127
2, 262272, Note_off_c, 0, 66, 0
2, 262324, Note_on_c, 0, 63, 42
2, 262336, Note_off_c, 0, 82, 0
2, 262388, Note_on_c, 0, 80, 77
2, 262484, Note_off_c, 0, 63, 0
2, 262484, Note_on_c, 0, 56, 52
2, 262580, Note_off_c, 0, 56, 0
2, 262608, Note_off_c, 0, 80, 0
2, 262640, Note_on_c, 0, 78, 73
2, 262656, Note_on_c, 0, 70, 53
2, 262708, Note_off_c, 0, 78, 0
2, 262800, Note_on_c, 0, 78, 81
2, 262804, Note_on_c, 0, 66, 43
2, 262828, Note_off_c, 0, 70, 0
2, 262960, Note_off_c, 0, 66, 0
2, 262968, Note_off_c, 0, 78, 0
2, 262992, Note_on_c, 0, 60, 43
2, 262996, Note_on_c, 0, 77, 74
2, 263084, Note_off_c, 0, 77, 0
2, 263124, Note_off_c, 0, 60, 0
2, 263172, Note_on_c, 0, 56, 47
2, 263336, Note_on_c, 0, 68, 49
2, 263348, Note_on_c, 0, 76, 73
2, 263480, Note_off_c, 0, 76, 0
2, 263496, Control_c, 0, 64, 104
2, 263504, Note_off_c, 0, 68, 0
2, 263504, Note_on_c, 0, 77, 81
2, 263512, Note_on_c, 0, 65, 45
2, 263516, Control_c, 0, 64, 40
2, 263532, Control_c, 0, 64, 0
2, 263564, Note_off_c, 0, 56, 0
2, 263624, Control_c, 0, 64, 56
2, 263640, Control_c, 0, 64, 127
2, 263656, Note_off_c, 0, 65, 0
2, 263664, Note_on_c, 0, 61, 40
2, 263740, Note_off_c, 0, 77, 0
2, 263792, Note_off_c, 0, 61, 0
2, 263796, Note_on_c, 0, 73, 67
2, 263816, Note_on_c, 0, 56, 46
2, 263876, Note_off_c, 0, 73, 0
2, 263892, Note_off_c, 0, 56, 0
2, 263956, Note_on_c, 0, 70, 53
2, 264040, Note_off_c, 0, 70, 0
2, 264120, Note_on_c, 0, 66, 51
2, 264132, Note_on_c, 0, 70, 69
2, 264148, Control_c, 0, 64, 56
2, 264164, Control_c, 0, 64, 0
2, 264208, Control_c, 0, 64, 56
2, 264224, Control_c, 0, 64, 127
2, 264248, Note_off_c, 0, 66, 0
2, 264276, Note_on_c, 0, 63, 43
2, 264324, Note_off_c, 0, 70, 0
2, 264372, Note_off_c, 0, 63, 0
2, 264436, Note_on_c, 0, 72, 76
2, 264452, Note_on_c, 0, 56, 39
2, 264568, Note_off_c, 0, 56, 0
2, 264604, Note_on_c, 0, 68, 48
2, 264744, Note_off_c, 0, 72, 0
2, 264764, Note_on_c, 0, 73, 71
2, 264780, Note_off_c, 0, 68, 0
2, 264792, Note_on_c, 0, 65, 44
2, 264800, Control_c, 0, 64, 104
2, 264816, Control_c, 0, 64, 40
2, 264832, Control_c, 0, 64, 0
2, 264884, Note_off_c, 0, 65, 0
2, 264900, Note_on_c, 0, 61, 42
2, 264908, Control_c, 0, 64, 72
2, 264924, Control_c, 0, 64, 127
2, 265056, Note_off_c, 0, 61, 0
2, 265080, Note_on_c, 0, 56, 29
2, 265096, Note_on_c, 0, 74, 74
2, 265100, Note_off_c, 0, 73, 0
2, 265184, Note_off_c, 0, 56, 0
2, 265256, Note_on_c, 0, 70, 57
2, 265376, Control_c, 0, 64, 104
2, 265388, Control_c, 0, 64, 40
2, 265404, Control_c, 0, 64, 24
2, 265408, Note_on_c, 0, 66, 47
2, 265420, Control_c, 0, 64, 56
2, 265436, Note_off_c, 0, 70, 0
2, 265436, Control_c, 0, 64, 104
2, 265452, Control_c, 0, 64, 127
2, 265572, Note_off_c, 0, 66, 0
2, 265584, Note_on_c, 0, 75, 83
2, 265608, Note_on_c, 0, 60, 41
2, 265616, Note_off_c, 0, 74, 0
2, 265748, Note_off_c, 0, 60, 0
2, 265772, Note_on_c, 0, 56, 47
2, 265788, Note_off_c, 0, 75, 0
2, 265832, Note_on_c, 0, 76, 87
2, 265944, Note_on_c, 0, 68, 51
2, 265960, Note_off_c, 0, 76, 0
2, 266092, Note_on_c, 0, 76, 74
2, 266132, Note_on_c, 0, 65, 50
2, 266132, Control_c, 0, 64, 88
2, 266148, Control_c, 0, 64, 0
2, 266240, Control_c, 0, 64, 88
2, 266252, Note_off_c, 0, 56, 0
2, 266256, Control_c, 0, 64, 127
2, 266276, Note_off_c, 0, 68, 0
2, 266276, Note_off_c, 0, 65, 0
2, 266280, Note_on_c, 0, 61, 43
2, 266408, Note_off_c, 0, 76, 0
2, 266424, Note_on_c, 0, 77, 75
2, 266464, Note_off_c, 0, 61, 0
2, 266472, Note_on_c, 0, 56, 35
2, 266596, Note_on_c, 0, 68, 51
2, 266736, Control_c, 0, 64, 56
2, 266752, Note_on_c, 0, 65, 52
2, 266752, Control_c, 0, 64, 0
2, 266780, Note_off_c, 0, 68, 0
2, 266780, Control_c, 0, 64, 40
2, 266796, Control_c, 0, 64, 88
2, 266812, Control_c, 0, 64, 127
2, 266856, Note_off_c, 0, 56, 0
2, 266888, Note_off_c, 0, 65, 0
2, 266896, Note_on_c, 0, 61, 46
2, 266964, Note_off_c, 0, 77, 0
2, 267056, Note_on_c, 0, 56, 55
2, 267064, Note_off_c, 0, 61, 0
2, 267220, Note_on_c, 0, 68, 52
2, 267352, Note_off_c, 0, 68, 0
2, 267372, Note_off_c, 0, 56, 0
2, 267372, Note_on_c, 0, 65, 50
2, 267480, Note_off_c, 0, 65, 0
2, 267500, Note_on_c, 0, 61, 45
2, 267668, Note_on_c, 0, 56, 46
2, 267684, Note_off_c, 0, 61, 0
2, 267724, Note_off_c, 0, 56, 0
2, 267824, Note_on_c, 0, 68, 51
2, 267948, Note_off_c, 0, 68, 0
2, 268004, Note_on_c, 0, 65, 48
2, 268144, Note_off_c, 0, 65, 0
2, 268176, Note_on_c, 0, 61, 47
2, 268272, Note_off_c, 0, 61, 0
2, 268304, Note_on_c, 0, 56, 45
2, 268412, Note_off_c, 0, 56, 0
2, 268500, Note_on_c, 0, 68, 53
2, 268664, Note_off_c, 0, 68, 0
2, 268740, Note_on_c, 0, 56, 62
2, 268752, Note_on_c, 0, 65, 49
2, 268768, Control_c, 0, 64, 104
2, 268784, Control_c, 0, 64, 40
2, 268796, Control_c, 0, 64, 0
2, 268856, Control_c, 0, 64, 40
2, 268872, Control_c, 0, 64, 104
2, 268888, Control_c, 0, 64, 127
2, 268900, Note_off_c, 0, 65, 0
2, 268940, Note_on_c, 0, 61, 30
2, 268980, Note_off_c, 0, 56, 0
2, 269032, Note_on_c, 0, 54, 69
2, 269048, Note_off_c, 0, 61, 0
2, 269080, Note_on_c, 0, 56, 49
2, 269208, Note_off_c, 0, 54, 0
2, 269232, Note_off_c, 0, 56, 0
2, 269260, Note_on_c, 0, 68, 57
2, 269272, Note_on_c, 0, 53, 73
2, 269348, Note_off_c, 0, 53, 0
2, 269424, Note_off_c, 0, 68, 0
2, 269444, Note_on_c, 0, 53, 71
2, 269472, Note_on_c, 0, 65, 58
2, 269512, Control_c, 0, 64, 56
2, 269524, Control_c, 0, 64, 0
2, 269624, Note_off_c, 0, 65, 0
2, 269632, Control_c, 0, 64, 56
2, 269648, Control_c, 0, 64, 104
2, 269664, Control_c, 0, 64, 127
2, 269668, Note_on_c, 0, 61, 34
2, 269692, Note_on_c, 0, 51, 72
2, 269712, Control_c, 0, 64, 104
2, 269720, Note_off_c, 0, 53, 0
2, 269724, Control_c, 0, 64, 56
2, 269740, Control_c, 0, 64, 0
2, 269756, Note_off_c, 0, 61, 0
2, 269804, Note_on_c, 0, 56, 33
2, 269820, Control_c, 0, 64, 56
2, 269832, Control_c, 0, 64, 104
2, 269852, Control_c, 0, 64, 127
2, 269888, Note_off_c, 0, 51, 0
2, 269980, Note_on_c, 0, 49, 71
2, 269984, Note_off_c, 0, 56, 0
2, 269988, Note_on_c, 0, 68, 48
2, 270064, Note_off_c, 0, 49, 0
2, 270112, Note_off_c, 0, 68, 0
2, 270144, Note_on_c, 0, 49, 60
2, 270172, Note_on_c, 0, 65, 50
2, 270208, Control_c, 0, 64, 72
2, 270224, Control_c, 0, 64, 24
2, 270240, Control_c, 0, 64, 0
2, 270344, Note_on_c, 0, 61, 33
2, 270352, Note_off_c, 0, 65, 0
2, 270376, Control_c, 0, 64, 24
2, 270392, Control_c, 0, 64, 88
2, 270408, Control_c, 0, 64, 127
2, 270428, Note_off_c, 0, 61, 0
2, 270460, Note_on_c, 0, 56, 37
2, 270592, Note_off_c, 0, 56, 0
2, 270612, Note_on_c, 0, 68, 58
2, 270732, Note_off_c, 0, 68, 0
2, 270780, Control_c, 0, 64, 56
2, 270788, Note_on_c, 0, 65, 56
2, 270796, Control_c, 0, 64, 0
2, 270840, Control_c, 0, 64, 40
2, 270856, Control_c, 0, 64, 88
2, 270872, Control_c, 0, 64, 127
2, 270888, Note_off_c, 0, 65, 0
2, 270944, Note_on_c, 0, 61, 45
2, 271040, Note_off_c, 0, 61, 0
2, 271088, Note_on_c, 0, 56, 32
2, 271192, Note_off_c, 0, 56, 0
2, 271212, Note_on_c, 0, 68, 51
2, 271356, Note_off_c, 0, 68, 0
2, 271388, Note_off_c, 0, 49, 0
2, 271420, Note_on_c, 0, 53, 65
2, 271440, Note_on_c, 0, 65, 47
2, 271460, Control_c, 0, 64, 72
2, 271476, Control_c, 0, 64, 0
2, 271568, Control_c, 0, 64, 40
2, 271576, Note_off_c, 0, 65, 0
2, 271584, Control_c, 0, 64, 88
2, 271600, Control_c, 0, 64, 127
2, 271604, Note_on_c, 0, 61, 42
2, 271668, Note_on_c, 0, 51, 70
2, 271696, Note_off_c, 0, 53, 0
2, 271708, Note_off_c, 0, 61, 0
2, 271772, Note_on_c, 0, 56, 42
2, 271852, Note_off_c, 0, 51, 0
2, 271912, Note_on_c, 0, 49, 69
2, 271948, Note_on_c, 0, 68, 40
2, 271992, Note_off_c, 0, 56, 0
2, 272000, Note_off_c, 0, 49, 0
2, 272044, Note_off_c, 0, 68, 0
2, 272096, Note_on_c, 0, 49, 65
2, 272096, Control_c, 0, 64, 88
2, 272112, Control_c, 0, 64, 24
2, 272128, Control_c, 0, 64, 0
2, 272144, Note_on_c, 0, 65, 39
2, 272204, Note_off_c, 0, 65, 0
2, 272220, Control_c, 0, 64, 24
2, 272236, Control_c, 0, 64, 72
2, 272252, Control_c, 0, 64, 127
2, 272312, Note_off_c, 0, 49, 0
2, 272312, Note_on_c, 0, 61, 34
2, 272320, Note_on_c, 0, 48, 67
2, 272344, Control_c, 0, 64, 88
2, 272360, Control_c, 0, 64, 40
2, 272376, Control_c, 0, 64, 24
2, 272388, Control_c, 0, 64, 40
2, 272404, Control_c, 0, 64, 72
2, 272424, Control_c, 0, 64, 104
2, 272440, Note_off_c, 0, 61, 0
2, 272440, Control_c, 0, 64, 127
2, 272468, Note_on_c, 0, 56, 36
2, 272520, Note_off_c, 0, 48, 0
2, 272600, Note_on_c, 0, 47, 66
2, 272636, Note_on_c, 0, 68, 43
2, 272676, Note_off_c, 0, 47, 0
2, 272704, Note_off_c, 0, 56, 0
2, 272720, Note_off_c, 0, 68, 0
2, 272776, Control_c, 0, 64, 104
2, 272780, Note_on_c, 0, 47, 64
2, 272796, Control_c, 0, 64, 88
2, 272812, Note_on_c, 0, 65, 51
2, 272812, Control_c, 0, 64, 56
2, 272824, Control_c, 0, 64, 0
2, 272948, Control_c, 0, 64, 40
2, 272956, Note_off_c, 0, 65, 0
2, 272964, Control_c, 0, 64, 88
2, 272980, Control_c, 0, 64, 127
2, 272996, Note_on_c, 0, 63, 34
2, 273088, Note_off_c, 0, 63, 0
2, 273160, Note_on_c, 0, 56, 38
2, 273308, Note_off_c, 0, 56, 0
2, 273316, Note_on_c, 0, 68, 51
2, 273452, Note_off_c, 0, 68, 0
2, 273520, Note_on_c, 0, 35, 59
2, 273532, Note_off_c, 0, 47, 0
2, 273540, Note_on_c, 0, 65, 46
2, 273600, Control_c, 0, 64, 104
2, 273616, Control_c, 0, 64, 56
2, 273632, Control_c, 0, 64, 24
2, 273648, Control_c, 0, 64, 0
2, 273728, Note_on_c, 0, 63, 40
2, 273740, Note_off_c, 0, 65, 0
2, 273740, Control_c, 0, 64, 72
2, 273752, Control_c, 0, 64, 127
2, 273868, Note_off_c, 0, 63, 0
2, 273900, Note_on_c, 0, 56, 39
2, 274068, Note_off_c, 0, 56, 0
2, 274104, Note_on_c, 0, 68, 47
2, 274164, Note_off_c, 0, 68, 0
2, 274388, Note_off_c, 0, 35, 0
2, 274496, Note_on_c, 0, 80, 69
2, 274532, Note_on_c, 0, 34, 55
2, 274576, Control_c, 0, 64, 104
2, 274588, Control_c, 0, 64, 40
2, 274604, Control_c, 0, 64, 0
2, 274700, Control_c, 0, 64, 40
2, 274716, Control_c, 0, 64, 104
2, 274732, Control_c, 0, 64, 127
2, 274748, Note_off_c, 0, 34, 0
2, 274952, Note_off_c, 0, 80, 0
2, 274984, Note_on_c, 0, 77, 74
2, 274984, Note_on_c, 0, 58, 47
2, 275092, Note_off_c, 0, 58, 0
2, 275160, Note_on_c, 0, 70, 59
2, 275312, Note_off_c, 0, 77, 0
2, 275316, Note_on_c, 0, 72, 68
2, 275328, Note_on_c, 0, 68, 56
2, 275336, Control_c, 0, 64, 104
2, 275348, Control_c, 0, 64, 40
2, 275360, Note_off_c, 0, 70, 0
2, 275368, Control_c, 0, 64, 0
2, 275412, Control_c, 0, 64, 24
2, 275428, Control_c, 0, 64, 72
2, 275444, Control_c, 0, 64, 127
2, 275452, Note_off_c, 0, 68, 0
2, 275480, Note_on_c, 0, 65, 44
2, 275596, Note_off_c, 0, 65, 0
2, 275640, Note_on_c, 0, 58, 53
2, 275764, Note_off_c, 0, 72, 0
2, 275764, Note_off_c, 0, 58, 0
2, 275788, Note_on_c, 0, 74, 81
2, 275820, Note_on_c, 0, 70, 51
2, 275968, Note_off_c, 0, 74, 0
2, 275968, Note_on_c, 0, 75, 85
2, 275984, Note_on_c, 0, 67, 54
2, 276016, Control_c, 0, 64, 104
2, 276032, Control_c, 0, 64, 24
2, 276048, Control_c, 0, 64, 0
2, 276100, Note_off_c, 0, 67, 0
2, 276100, Note_on_c, 0, 63, 40
2, 276140, Control_c, 0, 64, 72
2, 276148, Note_off_c, 0, 70, 0
2, 276156, Control_c, 0, 64, 127
2, 276276, Note_on_c, 0, 58, 47
2, 276284, Note_off_c, 0, 63, 0
2, 276324, Note_off_c, 0, 75, 0
2, 276364, Note_off_c, 0, 58, 0
2, 276428, Note_on_c, 0, 72, 72
2, 276596, Note_on_c, 0, 68, 55
2, 276604, Note_on_c, 0, 77, 78
2, 276636, Control_c, 0, 64, 88
2, 276648, Control_c, 0, 64, 0
2, 276772, Note_off_c, 0, 72, 0
2, 276776, Note_on_c, 0, 62, 56
2, 276788, Note_off_c, 0, 68, 0
2, 276804, Control_c, 0, 64, 127
2, 276920, Note_off_c, 0, 62, 0
2, 276948, Note_on_c, 0, 58, 46
2, 277104, Note_on_c, 0, 70, 56
2, 277184, Note_off_c, 0, 77, 0
2, 277256, Note_on_c, 0, 79, 74
2, 277288, Control_c, 0, 64, 104
2, 277292, Note_on_c, 0, 67, 42
2, 277304, Control_c, 0, 64, 40
2, 277308, Note_off_c, 0, 58, 0
2, 277320, Control_c, 0, 64, 0
2, 277384, Note_off_c, 0, 70, 0
2, 277424, Control_c, 0, 64, 72
2, 277428, Note_on_c, 0, 63, 39
2, 277440, Control_c, 0, 64, 127
2, 277452, Note_off_c, 0, 67, 0
2, 277572, Note_off_c, 0, 63, 0
2, 277592, Note_on_c, 0, 58, 45
2, 277732, Note_on_c, 0, 70, 58
2, 277912, Note_off_c, 0, 79, 0
2, 277920, Control_c, 0, 64, 72
2, 277928, Note_on_c, 0, 84, 88
2, 277928, Note_on_c, 0, 67, 51
2, 277936, Control_c, 0, 64, 0
2, 278008, Note_off_c, 0, 58, 0
2, 278056, Note_on_c, 0, 64, 54
2, 278060, Note_off_c, 0, 67, 0
2, 278060, Note_off_c, 0, 70, 0
2, 278060, Control_c, 0, 64, 56
2, 278076, Control_c, 0, 64, 127
2, 278196, Note_off_c, 0, 64, 0
2, 278220, Note_on_c, 0, 58, 42
2, 278400, Note_on_c, 0, 70, 46
2, 278524, Control_c, 0, 64, 72
2, 278540, Control_c, 0, 64, 0
2, 278544, Note_on_c, 0, 68, 36
2, 278596, Note_off_c, 0, 70, 0
2, 278648, Control_c, 0, 64, 72
2, 278652, Note_off_c, 0, 58, 0
2, 278664, Control_c, 0, 64, 127
2, 278696, Note_off_c, 0, 68, 0
2, 278696, Note_on_c, 0, 65, 47
2, 278856, Note_on_c, 0, 82, 77
2, 278880, Note_off_c, 0, 84, 0
2, 278908, Note_off_c, 0, 65, 0
2, 278916, Note_on_c, 0, 58, 42
2, 279080, Note_on_c, 0, 70, 44
2, 279220, Note_on_c, 0, 84, 82
2, 279224, Note_on_c, 0, 68, 53
2, 279228, Note_off_c, 0, 82, 0
2, 279256, Control_c, 0, 64, 40
2, 279268, Control_c, 0, 64, 0
2, 279312, Note_off_c, 0, 58, 0
2, 279360, Control_c, 0, 64, 72
2, 279376, Control_c, 0, 64, 127
2, 279408, Note_on_c, 0, 62, 49
2, 279428, Note_off_c, 0, 68, 0
2, 279452, Note_off_c, 0, 70, 0
2, 279540, Note_off_c, 0, 62, 0
2, 279560, Note_on_c, 0, 58, 48
2, 279712, Note_on_c, 0, 70, 56
2, 279828, Control_c, 0, 64, 88
2, 279840, Control_c, 0, 64, 72
2, 279860, Control_c, 0, 64, 40
2, 279876, Note_off_c, 0, 70, 0
2, 279876, Control_c, 0, 64, 0
2, 279884, Note_on_c, 0, 67, 53
2, 280000, Note_off_c, 0, 58, 0
2, 280012, Control_c, 0, 64, 24
2, 280028, Control_c, 0, 64, 88
2, 280040, Note_on_c, 0, 63, 46
2, 280044, Control_c, 0, 64, 127
2, 280048, Note_off_c, 0, 67, 0
2, 280184, Note_off_c, 0, 63, 0
2, 280204, Note_on_c, 0, 58, 38
2, 280348, Note_on_c, 0, 70, 45
2, 280432, Control_c, 0, 64, 72
2, 280448, Control_c, 0, 64, 0
2, 280516, Note_off_c, 0, 70, 0
2, 280516, Note_on_c, 0, 67, 44
2, 280540, Control_c, 0, 64, 72
2, 280552, Control_c, 0, 64, 127
2, 280620, Note_off_c, 0, 67, 0
2, 280628, Note_off_c, 0, 58, 0
2, 280660, Note_on_c, 0, 64, 44
2, 280772, Note_off_c, 0, 84, 0
2, 280792, Note_on_c, 0, 82, 73
2, 280808, Note_off_c, 0, 64, 0
2, 280844, Note_on_c, 0, 58, 40
2, 281004, Note_on_c, 0, 70, 49
2, 281112, Control_c, 0, 64, 88
2, 281124, Note_off_c, 0, 82, 0
2, 281128, Control_c, 0, 64, 24
2, 281144, Control_c, 0, 64, 0
2, 281168, Note_on_c, 0, 68, 49
2, 281180, Note_on_c, 0, 84, 79
2, 281236, Note_off_c, 0, 70, 0
2, 281236, Control_c, 0, 64, 88
2, 281252, Control_c, 0, 64, 127
2, 281308, Note_off_c, 0, 58, 0
2, 281364, Note_off_c, 0, 84, 0
2, 281372, Note_off_c, 0, 68, 0
2, 281388, Note_on_c, 0, 65, 47
2, 281428, Note_on_c, 0, 82, 77
2, 281536, Note_on_c, 0, 58, 49
2, 281548, Note_off_c, 0, 65, 0
2, 281652, Note_off_c, 0, 82, 0
2, 281652, Note_off_c, 0, 58, 0
2, 281692, Note_on_c, 0, 80, 77
2, 281732, Note_on_c, 0, 72, 60
2, 281780, Note_off_c, 0, 80, 0
2, 281856, Control_c, 0, 64, 72
2, 281860, Note_off_c, 0, 72, 0
2, 281864, Note_on_c, 0, 80, 85
2, 281872, Control_c, 0, 64, 0
2, 281880, Note_on_c, 0, 68, 53
2, 281920, Control_c, 0, 64, 56
2, 281932, Control_c, 0, 64, 104
2, 281948, Control_c, 0, 64, 127
2, 282032, Note_off_c, 0, 80, 0
2, 282048, Note_off_c, 0, 68, 0
2, 282072, Note_on_c, 0, 79, 81
2, 282076, Note_on_c, 0, 62, 42
2, 282168, Note_off_c, 0, 79, 0
2, 282196, Note_off_c, 0, 62, 0
2, 282232, Note_on_c, 0, 58, 46
2, 282388, Note_on_c, 0, 70, 38
2, 282404, Note_on_c, 0, 78, 78
2, 282508, Note_off_c, 0, 78, 0
2, 282568, Note_on_c, 0, 79, 77
2, 282572, Note_off_c, 0, 70, 0
2, 282572, Note_on_c, 0, 67, 39
2, 282584, Control_c, 0, 64, 56
2, 282596, Control_c, 0, 64, 0
2, 282676, Note_off_c, 0, 58, 0
2, 282708, Note_on_c, 0, 63, 40
2, 282724, Note_off_c, 0, 67, 0
2, 282724, Control_c, 0, 64, 88
2, 282740, Control_c, 0, 64, 127
2, 282860, Note_off_c, 0, 79, 0
2, 282872, Note_off_c, 0, 63, 0
2, 282896, Note_on_c, 0, 84, 78
2, 283020, Note_on_c, 0, 58, 1
2, 283064, Note_on_c, 0, 70, 48
2, 283192, Control_c, 0, 64, 72
2, 283204, Control_c, 0, 64, 0
2, 283208, Note_off_c, 0, 70, 0
2, 283220, Note_on_c, 0, 67, 54
2, 283244, Note_off_c, 0, 58, 0
2, 283296, Control_c, 0, 64, 56
2, 283312, Control_c, 0, 64, 127
2, 283340, Note_off_c, 0, 67, 0
2, 283368, Note_on_c, 0, 64, 49
2, 283472, Note_off_c, 0, 84, 0
2, 283520, Note_on_c, 0, 82, 72
2, 283528, Note_off_c, 0, 64, 0
2, 283556, Note_on_c, 0, 58, 42
2, 283716, Note_on_c, 0, 70, 56
2, 283736, Note_off_c, 0, 82, 0
2, 283824, Control_c, 0, 64, 104
2, 283840, Control_c, 0, 64, 24
2, 283852, Control_c, 0, 64, 0
2, 283872, Note_on_c, 0, 68, 49
2, 283880, Note_on_c, 0, 84, 80
2, 283892, Note_off_c, 0, 70, 0
2, 283932, Control_c, 0, 64, 40
2, 283948, Control_c, 0, 64, 104
2, 283964, Control_c, 0, 64, 127
2, 284008, Note_off_c, 0, 58, 0
2, 284052, Note_off_c, 0, 84, 0
2, 284064, Note_off_c, 0, 68, 0
2, 284068, Note_on_c, 0, 65, 45
2, 284140, Note_on_c, 0, 82, 74
2, 284196, Note_on_c, 0, 58, 50
2, 284308, Note_off_c, 0, 82, 0
2, 284316, Note_off_c, 0, 58, 0
2, 284336, Note_off_c, 0, 65, 0
2, 284388, Note_on_c, 0, 80, 77
2, 284396, Note_on_c, 0, 75, 58
2, 284468, Note_off_c, 0, 75, 0
2, 284476, Note_off_c, 0, 80, 0
2, 284596, Note_on_c, 0, 74, 61
2, 284596, Note_on_c, 0, 80, 71
2, 284612, Control_c, 0, 64, 72
2, 284632, Control_c, 0, 64, 0
2, 284692, Control_c, 0, 64, 40
2, 284708, Control_c, 0, 64, 88
2, 284724, Control_c, 0, 64, 127
2, 284736, Note_off_c, 0, 74, 0
2, 284744, Note_on_c, 0, 68, 55
2, 284872, Note_off_c, 0, 80, 0
2, 284892, Note_off_c, 0, 68, 0
2, 284928, Note_on_c, 0, 65, 56
2, 285044, Note_off_c, 0, 65, 0
2, 285064, Note_on_c, 0, 58, 57
2, 285128, Note_off_c, 0, 58, 0
2, 285212, Note_on_c, 0, 74, 70
2, 285316, Note_off_c, 0, 74, 0
2, 285360, Note_on_c, 0, 68, 54
2, 285484, Note_off_c, 0, 68, 0
2, 285536, Note_on_c, 0, 65, 55
2, 285600, Note_off_c, 0, 65, 0
2, 285676, Note_on_c, 0, 75, 72
2, 285780, Note_off_c, 0, 75, 0
2, 285844, Note_on_c, 0, 74, 68
2, 285900, Control_c, 0, 64, 88
2, 285916, Control_c, 0, 64, 24
2, 285932, Control_c, 0, 64, 0
2, 285952, Note_off_c, 0, 74, 0
2, 285988, Note_on_c, 0, 68, 40
2, 286008, Control_c, 0, 64, 24
2, 286024, Control_c, 0, 64, 72
2, 286040, Control_c, 0, 64, 127
2, 286120, Note_off_c, 0, 68, 0
2, 286120, Note_on_c, 0, 65, 49
2, 286212, Note_off_c, 0, 65, 0
2, 286288, Note_on_c, 0, 58, 45
2, 286396, Note_off_c, 0, 58, 0
2, 286456, Note_on_c, 0, 68, 59
2, 286504, Control_c, 0, 64, 104
2, 286520, Control_c, 0, 64, 56
2, 286536, Control_c, 0, 64, 40
2, 286552, Control_c, 0, 64, 56
2, 286568, Control_c, 0, 64, 72
2, 286580, Note_off_c, 0, 68, 0
2, 286584, Control_c, 0, 64, 127
2, 286620, Note_on_c, 0, 62, 53
2, 286716, Note_off_c, 0, 62, 0
2, 286768, Note_on_c, 0, 58, 50
2, 286884, Note_off_c, 0, 58, 0
2, 286928, Note_on_c, 0, 70, 56
2, 287008, Note_off_c, 0, 70, 0
2, 287076, Note_on_c, 0, 68, 51
2, 287168, Note_off_c, 0, 68, 0
2, 287248, Note_on_c, 0, 62, 45
2, 287368, Note_off_c, 0, 62, 0
2, 287400, Note_on_c, 0, 58, 46
2, 287432, Note_off_c, 0, 58, 0
2, 287540, Note_on_c, 0, 53, 47
2, 287572, Note_off_c, 0, 53, 0
2, 287700, Note_on_c, 0, 77, 75
2, 287700, Note_on_c, 0, 68, 54
2, 287800, Note_off_c, 0, 68, 0
2, 287804, Note_off_c, 0, 77, 0
2, 287844, Note_on_c, 0, 70, 61
2, 287844, Note_on_c, 0, 62, 53
2, 287948, Note_off_c, 0, 70, 0
2, 287952, Note_off_c, 0, 62, 0
2, 288008, Note_on_c, 0, 68, 48
2, 288008, Note_on_c, 0, 58, 38
2, 288056, Note_off_c, 0, 68, 0
2, 288064, Note_off_c, 0, 58, 0
2, 288164, Note_on_c, 0, 79, 73
2, 288164, Note_on_c, 0, 70, 56
2, 288212, Note_off_c, 0, 70, 0
2, 288236, Note_off_c, 0, 79, 0
2, 288336, Note_on_c, 0, 77, 81
2, 288336, Note_on_c, 0, 68, 53
2, 288364, Control_c, 0, 64, 72
2, 288380, Control_c, 0, 64, 0
2, 288412, Control_c, 0, 64, 24
2, 288416, Note_off_c, 0, 77, 0
2, 288428, Control_c, 0, 64, 56
2, 288440, Note_off_c, 0, 68, 0
2, 288440, Control_c, 0, 64, 104
2, 288456, Control_c, 0, 64, 127
2, 288492, Note_on_c, 0, 70, 57
2, 288492, Note_on_c, 0, 62, 54
2, 288580, Note_off_c, 0, 62, 0
2, 288588, Note_off_c, 0, 70, 0
2, 288640, Note_on_c, 0, 68, 54
2, 288640, Note_on_c, 0, 58, 48
2, 288720, Note_off_c, 0, 68, 0
2, 288744, Note_off_c, 0, 58, 0
2, 288784, Note_on_c, 0, 62, 52
2, 288784, Note_on_c, 0, 53, 48
2, 288856, Note_off_c, 0, 62, 0
2, 288860, Note_off_c, 0, 53, 0
2, 288936, Control_c, 0, 64, 104
2, 288956, Control_c, 0, 64, 56
2, 288960, Note_on_c, 0, 74, 64
2, 288960, Note_on_c, 0, 65, 52
2, 288968, Control_c, 0, 64, 0
2, 289012, Control_c, 0, 64, 40
2, 289028, Control_c, 0, 64, 88
2, 289044, Control_c, 0, 64, 127
2, 289052, Note_off_c, 0, 65, 0
2, 289056, Note_off_c, 0, 74, 0
2, 289096, Note_on_c, 0, 68, 58
2, 289096, Note_on_c, 0, 58, 46
2, 289192, Note_off_c, 0, 68, 0
2, 289224, Note_off_c, 0, 58, 0
2, 289248, Note_on_c, 0, 62, 56
2, 289248, Note_on_c, 0, 53, 62
2, 289308, Note_off_c, 0, 53, 0
2, 289316, Note_off_c, 0, 62, 0
2, 289416, Note_on_c, 0, 75, 74
2, 289416, Note_on_c, 0, 67, 59
2, 289484, Note_off_c, 0, 67, 0
2, 289528, Note_off_c, 0, 75, 0
2, 289568, Control_c, 0, 64, 72
2, 289596, Note_on_c, 0, 65, 59
2, 289596, Note_on_c, 0, 74, 69
2, 289596, Control_c, 0, 64, 24
2, 289604, Control_c, 0, 64, 0
2, 289632, Control_c, 0, 64, 24
2, 289648, Control_c, 0, 64, 56
2, 289652, Note_off_c, 0, 74, 0
2, 289664, Control_c, 0, 64, 104
2, 289680, Control_c, 0, 64, 127
2, 289696, Note_off_c, 0, 65, 0
2, 289748, Note_on_c, 0, 68, 60
2, 289752, Note_on_c, 0, 58, 47
2, 289856, Note_off_c, 0, 68, 0
2, 289876, Note_off_c, 0, 58, 0
2, 289920, Note_on_c, 0, 62, 58
2, 289924, Note_on_c, 0, 53, 65
2, 290024, Note_off_c, 0, 53, 0
2, 290032, Note_off_c, 0, 62, 0
2, 290092, Note_on_c, 0, 55, 68
2, 290096, Note_on_c, 0, 58, 46
2, 290208, Note_off_c, 0, 58, 0
2, 290228, Note_off_c, 0, 55, 0
2, 290284, Note_on_c, 0, 56, 60
2, 290284, Control_c, 0, 64, 88
2, 290300, Note_on_c, 0, 65, 62
2, 290300, Control_c, 0, 64, 24
2, 290316, Control_c, 0, 64, 0
2, 290408, Control_c, 0, 64, 56
2, 290412, Note_off_c, 0, 65, 0
2, 290424, Control_c, 0, 64, 88
2, 290440, Control_c, 0, 64, 127
2, 290468, Note_on_c, 0, 58, 44
2, 290492, Note_off_c, 0, 56, 0
2, 290520, Note_on_c, 0, 55, 71
2, 290588, Note_off_c, 0, 58, 0
2, 290652, Note_on_c, 0, 56, 61
2, 290708, Note_off_c, 0, 55, 0
2, 290736, Note_off_c, 0, 56, 0
2, 290784, Note_on_c, 0, 53, 69
2, 290840, Note_on_c, 0, 70, 57
2, 290868, Note_off_c, 0, 53, 0
2, 290948, Note_off_c, 0, 70, 0
2, 290976, Note_on_c, 0, 53, 77
2, 290984, Control_c, 0, 64, 88
2, 291000, Control_c, 0, 64, 0
2, 291004, Note_on_c, 0, 68, 52
2, 291092, Control_c, 0, 64, 56
2, 291104, Control_c, 0, 64, 104
2, 291120, Control_c, 0, 64, 127
2, 291128, Note_off_c, 0, 68, 0
2, 291172, Note_on_c, 0, 62, 58
2, 291184, Note_off_c, 0, 53, 0
2, 291220, Note_on_c, 0, 51, 71
2, 291296, Note_off_c, 0, 62, 0
2, 291356, Note_on_c, 0, 60, 52
2, 291384, Note_off_c, 0, 51, 0
2, 291436, Note_off_c, 0, 60, 0
2, 291452, Note_on_c, 0, 58, 55
2, 291496, Note_on_c, 0, 50, 67
2, 291536, Note_off_c, 0, 58, 0
2, 291576, Note_off_c, 0, 50, 0
2, 291676, Note_on_c, 0, 50, 67
2, 291700, Note_on_c, 0, 65, 52
2, 291728, Control_c, 0, 64, 104
2, 291740, Control_c, 0, 64, 56
2, 291756, Control_c, 0, 64, 0
2, 291848, Note_off_c, 0, 65, 0
2, 291864, Note_on_c, 0, 58, 50
2, 291912, Control_c, 0, 64, 56
2, 291928, Control_c, 0, 64, 104
2, 291940, Control_c, 0, 64, 127
2, 291972, Note_off_c, 0, 58, 0
2, 292020, Note_on_c, 0, 56, 48
2, 292076, Note_off_c, 0, 56, 0
2, 292172, Note_on_c, 0, 70, 54
2, 292260, Note_off_c, 0, 70, 0
2, 292324, Note_on_c, 0, 68, 63
2, 292432, Note_off_c, 0, 68, 0
2, 292476, Note_on_c, 0, 65, 61
2, 292552, Note_off_c, 0, 65, 0
2, 292656, Note_on_c, 0, 58, 37
2, 292728, Note_off_c, 0, 58, 0
2, 292776, Note_on_c, 0, 56, 44
2, 292808, Note_off_c, 0, 50, 0
2, 292880, Note_off_c, 0, 56, 0
2, 292932, Control_c, 0, 64, 88
2, 292936, Note_on_c, 0, 50, 59
2, 292948, Control_c, 0, 64, 24
2, 292964, Control_c, 0, 64, 0
2, 292972, Note_on_c, 0, 65, 51
2, 293056, Control_c, 0, 64, 56
2, 293068, Note_off_c, 0, 65, 0
2, 293072, Control_c, 0, 64, 88
2, 293088, Control_c, 0, 64, 127
2, 293132, Note_off_c, 0, 50, 0
2, 293156, Note_on_c, 0, 59, 41
2, 293160, Note_on_c, 0, 49, 67
2, 293240, Note_off_c, 0, 59, 0
2, 293304, Note_on_c, 0, 56, 49
2, 293320, Note_off_c, 0, 49, 0
2, 293384, Note_off_c, 0, 56, 0
2, 293436, Note_on_c, 0, 47, 58
2, 293472, Note_on_c, 0, 70, 55
2, 293516, Note_off_c, 0, 47, 0
2, 293572, Note_off_c, 0, 70, 0
2, 293600, Control_c, 0, 64, 104
2, 293612, Note_on_c, 0, 47, 64
2, 293616, Control_c, 0, 64, 40
2, 293628, Note_on_c, 0, 68, 58
2, 293628, Control_c, 0, 64, 0
2, 293708, Control_c, 0, 64, 40
2, 293724, Control_c, 0, 64, 88
2, 293732, Note_off_c, 0, 68, 0
2, 293740, Control_c, 0, 64, 127
2, 293812, Note_on_c, 0, 65, 52
2, 293836, Note_on_c, 0, 46, 72
2, 293844, Note_off_c, 0, 47, 0
2, 293908, Note_off_c, 0, 65, 0
2, 293980, Note_on_c, 0, 62, 55
2, 294064, Note_off_c, 0, 62, 0
2, 294068, Note_off_c, 0, 46, 0
2, 294112, Note_on_c, 0, 44, 59
2, 294120, Note_on_c, 0, 56, 50
2, 294196, Note_off_c, 0, 44, 0
2, 294208, Note_off_c, 0, 56, 0
2, 294292, Note_on_c, 0, 44, 64
2, 294300, Control_c, 0, 64, 88
2, 294312, Control_c, 0, 64, 24
2, 294328, Note_on_c, 0, 62, 63
2, 294328, Control_c, 0, 64, 0
2, 294404, Control_c, 0, 64, 56
2, 294420, Control_c, 0, 64, 104
2, 294424, Note_off_c, 0, 62, 0
2, 294436, Control_c, 0, 64, 127
2, 294476, Note_on_c, 0, 59, 56
2, 294548, Note_off_c, 0, 59, 0
2, 294632, Note_on_c, 0, 56, 43
2, 294660, Note_off_c, 0, 44, 0
2, 294684, Note_on_c, 0, 41, 58
2, 294692, Note_off_c, 0, 56, 0
2, 294812, Note_on_c, 0, 68, 58
2, 294932, Note_off_c, 0, 68, 0
2, 294980, Note_off_c, 0, 41, 0
2, 294988, Note_on_c, 0, 38, 56
2, 294996, Control_c, 0, 64, 104
2, 295012, Note_on_c, 0, 65, 58
2, 295012, Control_c, 0, 64, 40
2, 295016, Note_off_c, 0, 38, 0
2, 295028, Control_c, 0, 64, 0
2, 295048, Note_on_c, 0, 35, 54
2, 295084, Control_c, 0, 64, 24
2, 295104, Control_c, 0, 64, 72
2, 295120, Control_c, 0, 64, 127
2, 295136, Note_off_c, 0, 65, 0
2, 295188, Note_on_c, 0, 62, 63
2, 295292, Note_off_c, 0, 62, 0
2, 295360, Note_off_c, 0, 35, 0
2, 295376, Note_on_c, 0, 59, 65
2, 295384, Note_on_c, 0, 32, 52
2, 295480, Note_off_c, 0, 59, 0
2, 295612, Note_on_c, 0, 71, 67
2, 295692, Note_off_c, 0, 71, 0
2, 295772, Note_off_c, 0, 32, 0
2, 295972, Note_on_c, 0, 77, 71
2, 296016, Note_on_c, 0, 31, 56
2, 296112, Control_c, 0, 64, 88
2, 296128, Control_c, 0, 64, 24
2, 296140, Control_c, 0, 64, 0
2, 296296, Control_c, 0, 64, 72
2, 296312, Control_c, 0, 64, 127
2, 296368, Note_off_c, 0, 77, 0
2, 296380, Note_on_c, 0, 74, 71
2, 296452, Note_off_c, 0, 31, 0
2, 296708, Note_off_c, 0, 74, 0
2, 296712, Note_on_c, 0, 69, 72
2, 297056, Note_off_c, 0, 69, 0
2, 297064, Note_on_c, 0, 71, 73
2, 297068, Note_on_c, 0, 68, 49
2, 297148, Control_c, 0, 64, 72
2, 297164, Control_c, 0, 64, 0
2, 297256, Control_c, 0, 64, 56
2, 297272, Control_c, 0, 64, 104
2, 297288, Control_c, 0, 64, 127
2, 297428, Note_off_c, 0, 71, 0
2, 297456, Note_on_c, 0, 67, 45
2, 297456, Note_on_c, 0, 76, 77
2, 297460, Note_off_c, 0, 68, 0
2, 297520, Control_c, 0, 64, 104
2, 297532, Control_c, 0, 64, 56
2, 297548, Control_c, 0, 64, 0
2, 297552, Control_c, 0, 64, 104
2, 297568, Control_c, 0, 64, 127
2, 297576, Control_c, 0, 64, 40
2, 297596, Control_c, 0, 64, 72
2, 297616, Control_c, 0, 64, 104
2, 297632, Control_c, 0, 64, 127
2, 297720, Control_c, 0, 64, 88
2, 297736, Control_c, 0, 64, 24
2, 297752, Control_c, 0, 64, 0
2, 297796, Note_on_c, 0, 64, 43
2, 297796, Note_on_c, 0, 72, 75
2, 297840, Note_off_c, 0, 76, 0
2, 297844, Control_c, 0, 64, 24
2, 297860, Control_c, 0, 64, 72
2, 297880, Control_c, 0, 64, 104
2, 297896, Note_off_c, 0, 67, 64
2, 297896, Control_c, 0, 64, 127
2, 298100, Note_on_c, 0, 70, 70
2, 298104, Control_c, 0, 64, 88
2, 298116, Note_off_c, 0, 72, 0
2, 298124, Control_c, 0, 64, 24
2, 298140, Control_c, 0, 64, 0
2, 298144, Note_on_c, 0, 61, 38
2, 298160, Note_off_c, 0, 64, 0
2, 298228, Control_c, 0, 64, 56
2, 298248, Control_c, 0, 64, 104
2, 298264, Control_c, 0, 64, 127
2, 298360, Note_off_c, 0, 70, 0
2, 298404, Control_c, 0, 64, 88
2, 298420, Note_on_c, 0, 80, 85
2, 298420, Control_c, 0, 64, 24
2, 298436, Note_on_c, 0, 71, 67
2, 298440, Control_c, 0, 64, 0
2, 298456, Note_on_c, 0, 62, 63
2, 298472, Note_off_c, 0, 61, 0
2, 298528, Control_c, 0, 64, 24
2, 298544, Note_off_c, 0, 71, 0
2, 298544, Control_c, 0, 64, 72
2, 298560, Control_c, 0, 64, 127
2, 298668, Note_off_c, 0, 80, 0
2, 298816, Note_on_c, 0, 79, 83
2, 298816, Note_on_c, 0, 72, 63
2, 298816, Note_on_c, 0, 63, 51
2, 298824, Note_off_c, 0, 62, 0
2, 298896, Control_c, 0, 64, 88
2, 298912, Control_c, 0, 64, 40
2, 298932, Control_c, 0, 64, 0
2, 299052, Control_c, 0, 64, 56
2, 299072, Control_c, 0, 64, 104
2, 299092, Control_c, 0, 64, 127
2, 299144, Note_off_c, 0, 72, 0
2, 299188, Note_on_c, 0, 75, 73
2, 299188, Note_on_c, 0, 60, 51
2, 299196, Note_off_c, 0, 79, 0
2, 299196, Note_off_c, 0, 63, 0
2, 299484, Note_off_c, 0, 60, 0
2, 299492, Note_on_c, 0, 70, 65
2, 299496, Control_c, 0, 64, 104
2, 299508, Note_off_c, 0, 75, 0
2, 299512, Control_c, 0, 64, 40
2, 299532, Control_c, 0, 64, 0
2, 299540, Note_on_c, 0, 55, 51
2, 299600, Control_c, 0, 64, 24
2, 299616, Control_c, 0, 64, 72
2, 299636, Control_c, 0, 64, 127
2, 299756, Note_off_c, 0, 70, 0
2, 299792, Control_c, 0, 64, 72
2, 299800, Note_on_c, 0, 78, 80
2, 299808, Control_c, 0, 64, 0
2, 299820, Note_off_c, 0, 55, 0
2, 299820, Note_on_c, 0, 72, 68
2, 299832, Note_on_c, 0, 57, 51
2, 299912, Control_c, 0, 64, 56
2, 299936, Control_c, 0, 64, 104
2, 299952, Control_c, 0, 64, 127
2, 300004, Note_off_c, 0, 72, 0
2, 300044, Note_off_c, 0, 78, 0
2, 300152, Note_off_c, 0, 57, 0
2, 300220, Note_on_c, 0, 77, 76
2, 300232, Note_on_c, 0, 73, 52
2, 300232, Note_on_c, 0, 58, 40
2, 300284, Control_c, 0, 64, 88
2, 300300, Control_c, 0, 64, 56
2, 300316, Control_c, 0, 64, 0
2, 300460, Control_c, 0, 64, 40
2, 300476, Control_c, 0, 64, 88
2, 300496, Control_c, 0, 64, 127
2, 300592, Note_off_c, 0, 73, 0
2, 300604, Note_on_c, 0, 70, 56
2, 300908, Note_off_c, 0, 77, 0
2, 300916, Note_off_c, 0, 70, 0
2, 300932, Note_on_c, 0, 68, 57
2, 300940, Note_off_c, 0, 58, 0
2, 301104, Note_off_c, 0, 68, 0
2, 301284, Note_on_c, 0, 72, 82
2, 301284, Control_c, 0, 64, 104
2, 301304, Note_on_c, 0, 69, 58
2, 301304, Control_c, 0, 64, 56
2, 301320, Control_c, 0, 64, 0
2, 301328, Note_on_c, 0, 66, 42
2, 301444, Control_c, 0, 64, 56
2, 301460, Control_c, 0, 64, 104
2, 301476, Control_c, 0, 64, 127
2, 301548, Note_off_c, 0, 69, 0
2, 301596, Note_off_c, 0, 72, 0
2, 301600, Note_off_c, 0, 66, 0
2, 301640, Note_on_c, 0, 73, 71
2, 301656, Note_on_c, 0, 64, 48
2, 301656, Control_c, 0, 64, 56
2, 301672, Control_c, 0, 64, 0
2, 301676, Note_on_c, 0, 68, 45
2, 301760, Control_c, 0, 64, 40
2, 301776, Control_c, 0, 64, 88
2, 301796, Control_c, 0, 64, 127
2, 301984, Control_c, 0, 64, 88
2, 301992, Note_off_c, 0, 73, 0
2, 302000, Note_on_c, 0, 76, 83
2, 302004, Control_c, 0, 64, 24
2, 302016, Note_on_c, 0, 61, 43
2, 302024, Control_c, 0, 64, 0
2, 302092, Control_c, 0, 64, 56
2, 302112, Control_c, 0, 64, 104
2, 302128, Control_c, 0, 64, 127
2, 302292, Note_off_c, 0, 76, 0
2, 302312, Note_off_c, 0, 61, 0
2, 302336, Control_c, 0, 64, 104
2, 302344, Note_on_c, 0, 71, 78
2, 302348, Note_off_c, 0, 64, 0
2, 302356, Control_c, 0, 64, 40
2, 302368, Note_on_c, 0, 56, 39
2, 302372, Control_c, 0, 64, 0
2, 302464, Control_c, 0, 64, 56
2, 302480, Control_c, 0, 64, 127
2, 302508, Note_off_c, 0, 68, 0
2, 302588, Note_off_c, 0, 56, 0
2, 302592, Note_off_c, 0, 71, 0
2, 302688, Note_on_c, 0, 73, 77
2, 302688, Note_on_c, 0, 66, 39
2, 302688, Note_on_c, 0, 58, 38
2, 302708, Control_c, 0, 64, 104
2, 302724, Control_c, 0, 64, 40
2, 302740, Control_c, 0, 64, 0
2, 302828, Control_c, 0, 64, 40
2, 302848, Control_c, 0, 64, 104
2, 302868, Control_c, 0, 64, 127
2, 302876, Note_off_c, 0, 66, 0
2, 302948, Note_off_c, 0, 58, 0
2, 302956, Note_off_c, 0, 73, 0
2, 303052, Note_on_c, 0, 75, 77
2, 303072, Note_on_c, 0, 66, 45
2, 303072, Note_on_c, 0, 71, 32
2, 303072, Note_on_c, 0, 59, 48
2, 303072, Control_c, 0, 64, 88
2, 303096, Control_c, 0, 64, 0
2, 303216, Control_c, 0, 64, 72
2, 303232, Control_c, 0, 64, 127
2, 303304, Note_off_c, 0, 66, 0
2, 303324, Note_off_c, 0, 75, 0
2, 303328, Note_off_c, 0, 71, 0
2, 303404, Note_off_c, 0, 59, 0
2, 303440, Note_on_c, 0, 73, 70
2, 303440, Note_on_c, 0, 67, 45
2, 303440, Note_on_c, 0, 64, 50
2, 303492, Note_off_c, 0, 67, 0
2, 303496, Control_c, 0, 64, 104
2, 303516, Control_c, 0, 64, 24
2, 303532, Control_c, 0, 64, 0
2, 303620, Control_c, 0, 64, 40
2, 303636, Control_c, 0, 64, 104
2, 303656, Control_c, 0, 64, 127
2, 303756, Note_off_c, 0, 64, 0
2, 303772, Note_off_c, 0, 73, 0
2, 303872, Note_on_c, 0, 71, 66
2, 303872, Note_on_c, 0, 66, 42
2, 303872, Note_on_c, 0, 63, 40
2, 303900, Control_c, 0, 64, 72
2, 303920, Control_c, 0, 64, 0
2, 304008, Note_off_c, 0, 66, 0
2, 304028, Control_c, 0, 64, 40
2, 304032, Note_off_c, 0, 71, 0
2, 304040, Control_c, 0, 64, 104
2, 304060, Control_c, 0, 64, 127
2, 304132, Note_off_c, 0, 63, 0
2, 304236, Control_c, 0, 64, 88
2, 304248, Note_on_c, 0, 76, 70
2, 304248, Note_on_c, 0, 58, 50
2, 304252, Control_c, 0, 64, 40
2, 304260, Note_on_c, 0, 73, 47
2, 304272, Control_c, 0, 64, 56
2, 304276, Note_on_c, 0, 67, 40
2, 304288, Control_c, 0, 64, 72
2, 304304, Control_c, 0, 64, 127
2, 304328, Note_off_c, 0, 67, 0
2, 304352, Note_off_c, 0, 73, 0
2, 304364, Note_off_c, 0, 58, 0
2, 304372, Note_off_c, 0, 76, 0
2, 304464, Control_c, 0, 64, 104
2, 304480, Control_c, 0, 64, 40
2, 304500, Control_c, 0, 64, 0
2, 304532, Note_on_c, 0, 76, 78
2, 304544, Note_on_c, 0, 73, 56
2, 304552, Control_c, 0, 64, 56
2, 304560, Note_on_c, 0, 67, 36
2, 304560, Note_on_c, 0, 58, 51
2, 304572, Control_c, 0, 64, 104
2, 304588, Control_c, 0, 64, 127
2, 304604, Note_off_c, 0, 67, 0
2, 304652, Note_off_c, 0, 76, 0
2, 304684, Note_off_c, 0, 73, 0
2, 304708, Note_off_c, 0, 58, 0
2, 304756, Note_on_c, 0, 75, 76
2, 304768, Note_on_c, 0, 66, 47
2, 304776, Note_on_c, 0, 71, 54
2, 304780, Note_on_c, 0, 59, 54
2, 304780, Control_c, 0, 64, 104
2, 304796, Control_c, 0, 64, 72
2, 304812, Control_c, 0, 64, 24
2, 304816, Note_off_c, 0, 71, 0
2, 304832, Control_c, 0, 64, 0
2, 304844, Note_off_c, 0, 66, 0
2, 304844, Note_off_c, 0, 59, 0
2, 304852, Note_off_c, 0, 75, 0
2, 304956, Note_on_c, 0, 75, 74
2, 304972, Note_on_c, 0, 66, 51
2, 304976, Note_on_c, 0, 71, 65
2, 304980, Note_on_c, 0, 59, 53
2, 305032, Note_off_c, 0, 66, 0
2, 305040, Note_off_c, 0, 75, 0
2, 305040, Note_off_c, 0, 59, 0
2, 305056, Note_off_c, 0, 71, 0
2, 305152, Note_on_c, 0, 75, 83
2, 305164, Note_on_c, 0, 59, 70
2, 305164, Note_on_c, 0, 66, 65
2, 305184, Control_c, 0, 64, 88
2, 305200, Control_c, 0, 64, 127
2, 305268, Note_off_c, 0, 66, 0
2, 305276, Note_off_c, 0, 59, 0
2, 305280, Note_off_c, 0, 75, 0
2, 305352, Note_on_c, 0, 73, 85
2, 305360, Note_on_c, 0, 64, 66
2, 305360, Note_on_c, 0, 52, 63
2, 305368, Note_on_c, 0, 67, 63
2, 305380, Control_c, 0, 64, 72
2, 305384, Note_on_c, 0, 70, 37
2, 305396, Control_c, 0, 64, 24
2, 305404, Note_off_c, 0, 67, 0
2, 305412, Note_off_c, 0, 70, 0
2, 305412, Control_c, 0, 64, 0
2, 305424, Note_off_c, 0, 64, 0
2, 305432, Note_off_c, 0, 52, 0
2, 305436, Note_off_c, 0, 73, 0
2, 305536, Note_on_c, 0, 73, 86
2, 305544, Note_on_c, 0, 64, 70
2, 305544, Note_on_c, 0, 67, 68
2, 305560, Note_on_c, 0, 52, 49
2, 305560, Note_on_c, 0, 70, 42
2, 305588, Note_off_c, 0, 67, 0
2, 305588, Note_off_c, 0, 70, 0
2, 305604, Note_off_c, 0, 52, 0
2, 305616, Note_off_c, 0, 73, 0
2, 305616, Note_off_c, 0, 64, 0
2, 305720, Note_on_c, 0, 73, 91
2, 305740, Note_on_c, 0, 64, 70
2, 305740, Note_on_c, 0, 67, 63
2, 305748, Control_c, 0, 64, 56
2, 305756, Note_on_c, 0, 52, 60
2, 305764, Control_c, 0, 64, 127
2, 305772, Note_off_c, 0, 67, 0
2, 305788, Note_off_c, 0, 52, 0
2, 305812, Note_off_c, 0, 64, 0
2, 305840, Note_off_c, 0, 73, 0
2, 305904, Control_c, 0, 64, 104
2, 305920, Note_on_c, 0, 66, 76
2, 305920, Note_on_c, 0, 71, 85
2, 305920, Control_c, 0, 64, 56
2, 305940, Control_c, 0, 64, 0
2, 305944, Note_on_c, 0, 63, 68
2, 305944, Note_on_c, 0, 51, 70
2, 305984, Note_off_c, 0, 51, 0
2, 306000, Note_off_c, 0, 66, 0
2, 306004, Note_off_c, 0, 63, 0
2, 306052, Note_off_c, 0, 71, 0
2, 306108, Note_on_c, 0, 80, 95
2, 306116, Note_on_c, 0, 71, 70
2, 306116, Control_c, 0, 64, 72
2, 306124, Note_on_c, 0, 63, 85
2, 306124, Note_on_c, 0, 66, 67
2, 306136, Note_on_c, 0, 51, 80
2, 306136, Control_c, 0, 64, 127
2, 306188, Note_off_c, 0, 51, 0
2, 306192, Note_off_c, 0, 63, 0
2, 306216, Note_off_c, 0, 71, 0
2, 306224, Note_off_c, 0, 66, 0
2, 306228, Note_off_c, 0, 80, 0
2, 306324, Control_c, 0, 64, 40
2, 306344, Control_c, 0, 64, 0
2, 306356, Note_on_c, 0, 78, 99
2, 306364, Note_on_c, 0, 66, 73
2, 306368, Note_on_c, 0, 71, 82
2, 306376, Note_on_c, 0, 63, 88
2, 306384, Note_on_c, 0, 51, 85
2, 306436, Note_off_c, 0, 51, 0
2, 306452, Note_off_c, 0, 63, 0
2, 306452, Control_c, 0, 64, 72
2, 306464, Note_off_c, 0, 66, 0
2, 306464, Note_off_c, 0, 71, 0
2, 306468, Control_c, 0, 64, 127
2, 306492, Note_off_c, 0, 78, 0
2, 306800, Note_on_c, 0, 78, 100
2, 306800, Note_on_c, 0, 66, 84
2, 306800, Note_on_c, 0, 58, 78
2, 306800, Note_on_c, 0, 46, 79
2, 306800, Note_on_c, 0, 73, 77
2, 306872, Control_c, 0, 64, 104
2, 306888, Control_c, 0, 64, 24
2, 306908, Control_c, 0, 64, 0
2, 307028, Note_off_c, 0, 46, 0
2, 307036, Note_off_c, 0, 78, 0
2, 307048, Note_off_c, 0, 58, 0
2, 307048, Control_c, 0, 64, 88
2, 307064, Control_c, 0, 64, 127
2, 307100, Note_off_c, 0, 73, 0
2, 307124, Note_off_c, 0, 66, 0
2, 307272, Note_on_c, 0, 76, 90
2, 307272, Note_on_c, 0, 66, 77
2, 307272, Note_on_c, 0, 46, 64
2, 307272, Note_on_c, 0, 58, 67
2, 307272, Note_on_c, 0, 73, 63
2, 307300, Note_off_c, 0, 73, 0
2, 307304, Note_off_c, 0, 46, 0
2, 307320, Note_off_c, 0, 58, 0
2, 307328, Note_off_c, 0, 76, 0
2, 307332, Note_off_c, 0, 66, 0
2, 307396, Note_on_c, 0, 75, 95
2, 307396, Note_on_c, 0, 71, 84
2, 307396, Note_on_c, 0, 59, 71
2, 307396, Note_on_c, 0, 47, 73
2, 307396, Note_on_c, 0, 66, 72
2, 307452, Control_c, 0, 64, 40
2, 307468, Control_c, 0, 64, 0
2, 307644, Note_off_c, 0, 71, 0
2, 307652, Note_off_c, 0, 59, 0
2, 307680, Note_off_c, 0, 47, 0
2, 307680, Control_c, 0, 64, 88
2, 307696, Control_c, 0, 64, 127
2, 307736, Note_off_c, 0, 66, 0
2, 307744, Note_off_c, 0, 75, 0
2, 308000, Note_on_c, 0, 75, 97
2, 308012, Note_on_c, 0, 68, 73
2, 308016, Note_on_c, 0, 63, 71
2, 308036, Note_on_c, 0, 47, 66
2, 308048, Note_on_c, 0, 35, 70
2, 308120, Control_c, 0, 64, 104
2, 308136, Control_c, 0, 64, 0
2, 308240, Control_c, 0, 64, 56
2, 308260, Control_c, 0, 64, 127
2, 308272, Note_off_c, 0, 75, 0
2, 308304, Note_off_c, 0, 35, 0
2, 308324, Note_off_c, 0, 47, 0
2, 308364, Note_off_c, 0, 63, 0
2, 308416, Note_off_c, 0, 68, 0
2, 308584, Note_on_c, 0, 73, 92
2, 308592, Note_on_c, 0, 68, 67
2, 308600, Note_on_c, 0, 64, 75
2, 308612, Note_on_c, 0, 49, 69
2, 308616, Note_on_c, 0, 37, 73
2, 308644, Control_c, 0, 64, 56
2, 308664, Control_c, 0, 64, 0
2, 308768, Control_c, 0, 64, 88
2, 308784, Control_c, 0, 64, 127
2, 308828, Note_off_c, 0, 64, 0
2, 308836, Note_off_c, 0, 73, 0
2, 308896, Note_off_c, 0, 37, 0
2, 308908, Note_off_c, 0, 49, 0
2, 308964, Note_off_c, 0, 68, 0
2, 309032, Note_on_c, 0, 73, 81
2, 309092, Note_off_c, 0, 73, 0
2, 309140, Note_on_c, 0, 71, 90
2, 309164, Note_on_c, 0, 67, 69
2, 309164, Note_on_c, 0, 61, 56
2, 309176, Note_on_c, 0, 51, 69
2, 309180, Note_on_c, 0, 39, 60
2, 309240, Control_c, 0, 64, 72
2, 309260, Control_c, 0, 64, 0
2, 309384, Control_c, 0, 64, 88
2, 309396, Note_off_c, 0, 67, 0
2, 309400, Control_c, 0, 64, 127
2, 309460, Note_off_c, 0, 39, 0
2, 309468, Note_off_c, 0, 51, 0
2, 309528, Note_off_c, 0, 71, 0
2, 309560, Note_off_c, 0, 61, 0
2, 309604, Note_on_c, 0, 70, 86
2, 309704, Note_off_c, 0, 70, 0
2, 309788, Note_on_c, 0, 71, 92
2, 309788, Note_on_c, 0, 44, 64
2, 309788, Note_on_c, 0, 56, 71
2, 309788, Note_on_c, 0, 59, 66
2, 309788, Note_on_c, 0, 68, 67
2, 309840, Control_c, 0, 64, 0
2, 309960, Control_c, 0, 64, 104
2, 309968, Note_off_c, 0, 56, 0
2, 309980, Control_c, 0, 64, 127
2, 310016, Note_on_c, 0, 66, 79
2, 310024, Note_off_c, 0, 44, 0
2, 310044, Note_off_c, 0, 68, 0
2, 310072, Note_off_c, 0, 71, 0
2, 310080, Note_off_c, 0, 59, 0
2, 310144, Note_off_c, 0, 66, 0
2, 310168, Note_on_c, 0, 64, 92
2, 310284, Note_off_c, 0, 64, 0
2, 310376, Note_on_c, 0, 71, 97
2, 310384, Note_on_c, 0, 64, 77
2, 310388, Note_on_c, 0, 59, 68
2, 310420, Note_on_c, 0, 44, 68
2, 310428, Note_on_c, 0, 32, 57
2, 310504, Control_c, 0, 64, 40
2, 310528, Control_c, 0, 64, 0
2, 310664, Control_c, 0, 64, 127
2, 310692, Note_off_c, 0, 71, 0
2, 310708, Note_off_c, 0, 59, 0
2, 310728, Note_off_c, 0, 44, 0
2, 310748, Note_off_c, 0, 32, 0
2, 310792, Note_off_c, 0, 64, 0
2, 310892, Note_on_c, 0, 69, 90
2, 310908, Note_on_c, 0, 65, 74
2, 310916, Note_on_c, 0, 60, 67
2, 310936, Note_on_c, 0, 33, 61
2, 310940, Note_on_c, 0, 45, 65
2, 310960, Control_c, 0, 64, 104
2, 310984, Control_c, 0, 64, 0
2, 311084, Control_c, 0, 64, 104
2, 311104, Control_c, 0, 64, 127
2, 311224, Note_off_c, 0, 33, 0
2, 311248, Note_off_c, 0, 69, 0
2, 311256, Note_off_c, 0, 65, 0
2, 311256, Note_off_c, 0, 60, 0
2, 311280, Note_off_c, 0, 45, 0
2, 311384, Note_on_c, 0, 69, 81
2, 311448, Note_off_c, 0, 69, 0
2, 311484, Note_on_c, 0, 67, 88
2, 311484, Note_on_c, 0, 63, 71
2, 311484, Note_on_c, 0, 57, 63
2, 311484, Note_on_c, 0, 47, 63
2, 311484, Note_on_c, 0, 35, 55
2, 311484, Note_on_c, 0, 59, 48
2, 311560, Control_c, 0, 64, 24
2, 311576, Control_c, 0, 64, 0
2, 311664, Control_c, 0, 64, 40
2, 311684, Control_c, 0, 64, 127
2, 311748, Note_off_c, 0, 35, 0
2, 311780, Note_off_c, 0, 47, 0
2, 311816, Note_off_c, 0, 63, 0
2, 311848, Note_off_c, 0, 67, 0
2, 311852, Note_off_c, 0, 59, 0
2, 311868, Note_off_c, 0, 57, 0
2, 311956, Note_on_c, 0, 66, 75
2, 312028, Note_off_c, 0, 66, 0
2, 312088, Note_on_c, 0, 64, 90
2, 312088, Note_on_c, 0, 37, 61
2, 312088, Note_on_c, 0, 49, 71
2, 312088, Note_on_c, 0, 55, 67
2, 312088, Note_on_c, 0, 58, 67
2, 312212, Control_c, 0, 64, 104
2, 312228, Control_c, 0, 64, 0
2, 312320, Note_off_c, 0, 58, 0
2, 312368, Control_c, 0, 64, 127
2, 312404, Note_off_c, 0, 55, 0
2, 312476, Note_off_c, 0, 37, 0
2, 312500, Note_off_c, 0, 49, 0
2, 312560, Note_off_c, 0, 64, 0
2, 312628, Note_on_c, 0, 63, 67
2, 312720, Note_off_c, 0, 63, 0
2, 312780, Note_on_c, 0, 64, 79
2, 312888, Note_off_c, 0, 64, 0
2, 312896, Note_on_c, 0, 67, 85
2, 313020, Note_on_c, 0, 70, 87
2, 313024, Note_off_c, 0, 67, 0
2, 313060, Note_on_c, 0, 49, 51
2, 313072, Control_c, 0, 64, 40
2, 313088, Control_c, 0, 64, 0
2, 313108, Note_on_c, 0, 58, 53
2, 313120, Note_on_c, 0, 55, 60
2, 313148, Note_off_c, 0, 49, 0
2, 313160, Control_c, 0, 64, 40
2, 313168, Note_off_c, 0, 70, 0
2, 313172, Control_c, 0, 64, 127
2, 313180, Note_on_c, 0, 75, 92
2, 313200, Note_on_c, 0, 64, 63
2, 313204, Note_off_c, 0, 55, 0
2, 313208, Note_off_c, 0, 75, 0
2, 313228, Note_off_c, 0, 58, 0
2, 313236, Note_off_c, 0, 64, 0
2, 313316, Note_on_c, 0, 76, 96
2, 313388, Note_off_c, 0, 76, 64
2, 313428, Note_on_c, 0, 88, 102
2, 313512, Note_off_c, 0, 88, 0
2, 313564, Note_on_c, 0, 87, 96
2, 313652, Note_on_c, 0, 51, 60
2, 313664, Note_on_c, 0, 54, 52
2, 313684, Control_c, 0, 64, 104
2, 313688, Note_on_c, 0, 59, 54
2, 313704, Control_c, 0, 64, 24
2, 313708, Note_on_c, 0, 85, 93
2, 313720, Control_c, 0, 64, 0
2, 313728, Note_off_c, 0, 87, 0
2, 313740, Note_on_c, 0, 66, 67
2, 313788, Control_c, 0, 64, 40
2, 313808, Note_off_c, 0, 51, 0
2, 313812, Control_c, 0, 64, 127
2, 313840, Note_on_c, 0, 83, 92
2, 313848, Note_off_c, 0, 59, 0
2, 313872, Note_off_c, 0, 54, 0
2, 313892, Note_off_c, 0, 85, 0
2, 313908, Note_off_c, 0, 66, 0
2, 313908, Note_off_c, 0, 83, 0
2, 314028, Note_on_c, 0, 99, 96
2, 314076, Note_on_c, 0, 101, 32
2, 314100, Note_off_c, 0, 99, 0
2, 314108, Note_off_c, 0, 101, 0
2, 314160, Note_on_c, 0, 97, 85
2, 314264, Note_on_c, 0, 53, 64
2, 314308, Note_on_c, 0, 59, 44
2, 314320, Note_on_c, 0, 61, 48
2, 314328, Note_off_c, 0, 97, 0
2, 314336, Control_c, 0, 64, 56
2, 314348, Note_on_c, 0, 95, 80
2, 314352, Control_c, 0, 64, 0
2, 314408, Note_on_c, 0, 68, 58
2, 314420, Control_c, 0, 64, 40
2, 314436, Note_off_c, 0, 95, 0
2, 314436, Control_c, 0, 64, 104
2, 314460, Control_c, 0, 64, 127
2, 314504, Note_on_c, 0, 94, 85
2, 314576, Note_off_c, 0, 53, 0
2, 314620, Note_off_c, 0, 94, 0
2, 314624, Note_off_c, 0, 59, 0
2, 314632, Note_on_c, 0, 92, 82
2, 314636, Note_off_c, 0, 61, 0
2, 314644, Note_off_c, 0, 68, 0
2, 314792, Note_off_c, 0, 92, 0
2, 314800, Note_on_c, 0, 91, 77
2, 314836, Note_off_c, 0, 91, 0
2, 314948, Note_on_c, 0, 92, 86
2, 314960, Note_on_c, 0, 87, 71
2, 314972, Note_on_c, 0, 83, 58
2, 314984, Control_c, 0, 64, 24
2, 314996, Control_c, 0, 64, 40
2, 315004, Control_c, 0, 64, 56
2, 315036, Note_off_c, 0, 87, 0
2, 315040, Note_off_c, 0, 83, 0
2, 315056, Note_off_c, 0, 92, 0
2, 315124, Note_on_c, 0, 90, 73
2, 315124, Note_on_c, 0, 82, 52
2, 315124, Note_on_c, 0, 85, 72
2, 315124, Control_c, 0, 64, 40
2, 315184, Note_off_c, 0, 85, 0
2, 315192, Note_off_c, 0, 82, 0
2, 315236, Note_off_c, 0, 90, 0
2, 315276, Note_on_c, 0, 89, 82
2, 315280, Note_on_c, 0, 80, 50
2, 315288, Note_on_c, 0, 83, 60
2, 315324, Note_off_c, 0, 83, 0
2, 315356, Note_off_c, 0, 89, 0
2, 315364, Note_off_c, 0, 80, 0
2, 315416, Note_on_c, 0, 82, 69
2, 315420, Note_on_c, 0, 87, 71
2, 315424, Note_on_c, 0, 78, 49
2, 315484, Note_off_c, 0, 82, 0
2, 315484, Note_off_c, 0, 87, 0
2, 315484, Note_off_c, 0, 78, 0
2, 315504, Control_c, 0, 64, 0
2, 315572, Note_on_c, 0, 85, 85
2, 315576, Note_on_c, 0, 77, 61
2, 315580, Note_on_c, 0, 80, 77
2, 315600, Control_c, 0, 64, 24
2, 315612, Control_c, 0, 64, 40
2, 315636, Note_off_c, 0, 80, 0
2, 315640, Note_off_c, 0, 85, 0
2, 315640, Note_off_c, 0, 77, 0
2, 315672, Control_c, 0, 64, 24
2, 315680, Control_c, 0, 64, 0
2, 315716, Note_on_c, 0, 83, 81
2, 315728, Note_on_c, 0, 75, 55
2, 315728, Note_on_c, 0, 78, 62
2, 315756, Control_c, 0, 64, 40
2, 315796, Note_off_c, 0, 83, 0
2, 315796, Note_off_c, 0, 78, 0
2, 315800, Note_off_c, 0, 75, 0
2, 315812, Control_c, 0, 64, 24
2, 315872, Note_on_c, 0, 82, 71
2, 315872, Control_c, 0, 64, 40
2, 315876, Note_on_c, 0, 77, 72
2, 315884, Control_c, 0, 64, 56
2, 315888, Note_on_c, 0, 73, 49
2, 315932, Note_off_c, 0, 77, 0
2, 315932, Control_c, 0, 64, 72
2, 315940, Note_off_c, 0, 82, 0
2, 315944, Note_off_c, 0, 73, 0
2, 315980, Control_c, 0, 64, 56
2, 316020, Note_on_c, 0, 80, 82
2, 316024, Note_on_c, 0, 75, 77
2, 316028, Note_on_c, 0, 71, 58
2, 316064, Control_c, 0, 64, 72
2, 316096, Note_off_c, 0, 71, 0
2, 316108, Note_off_c, 0, 80, 0
2, 316120, Control_c, 0, 64, 24
2, 316124, Note_off_c, 0, 75, 0
2, 316136, Control_c, 0, 64, 0
2, 316168, Note_on_c, 0, 78, 72
2, 316168, Note_on_c, 0, 73, 69
2, 316180, Note_on_c, 0, 70, 58
2, 316216, Control_c, 0, 64, 40
2, 316228, Control_c, 0, 64, 56
2, 316240, Note_off_c, 0, 70, 0
2, 316244, Note_off_c, 0, 78, 0
2, 316244, Note_off_c, 0, 73, 0
2, 316276, Control_c, 0, 64, 0
2, 316312, Note_on_c, 0, 77, 81
2, 316320, Note_on_c, 0, 68, 55
2, 316324, Note_on_c, 0, 71, 73
2, 316324, Control_c, 0, 64, 24
2, 316336, Control_c, 0, 64, 40
2, 316348, Control_c, 0, 64, 56
2, 316360, Control_c, 0, 64, 72
2, 316392, Note_off_c, 0, 77, 0
2, 316408, Control_c, 0, 64, 40
2, 316412, Note_off_c, 0, 71, 0
2, 316416, Note_off_c, 0, 68, 0
2, 316456, Note_on_c, 0, 75, 73
2, 316456, Control_c, 0, 64, 56
2, 316460, Note_on_c, 0, 66, 54
2, 316460, Note_on_c, 0, 70, 72
2, 316468, Control_c, 0, 64, 72
2, 316500, Control_c, 0, 64, 88
2, 316516, Note_off_c, 0, 75, 0
2, 316520, Note_off_c, 0, 66, 0
2, 316528, Note_off_c, 0, 70, 0
2, 316604, Note_on_c, 0, 65, 52
2, 316604, Note_on_c, 0, 73, 79
2, 316608, Note_on_c, 0, 68, 73
2, 316656, Note_off_c, 0, 73, 0
2, 316656, Note_off_c, 0, 68, 0
2, 316672, Note_off_c, 0, 65, 0
2, 316716, Control_c, 0, 64, 56
2, 316728, Control_c, 0, 64, 40
2, 316740, Control_c, 0, 64, 0
2, 316764, Note_on_c, 0, 71, 79
2, 316776, Note_on_c, 0, 66, 63
2, 316776, Note_on_c, 0, 63, 46
2, 316820, Control_c, 0, 64, 24
2, 316836, Control_c, 0, 64, 56
2, 316848, Control_c, 0, 64, 88
2, 316860, Control_c, 0, 64, 104
2, 316876, Note_off_c, 0, 71, 0
2, 316880, Note_off_c, 0, 63, 0
2, 316896, Note_off_c, 0, 66, 0
2, 316908, Control_c, 0, 64, 127
2, 316972, Note_on_c, 0, 70, 69
2, 316972, Note_on_c, 0, 61, 47
2, 316976, Note_on_c, 0, 65, 58
2, 317008, Note_off_c, 0, 65, 0
2, 317036, Note_off_c, 0, 70, 0
2, 317044, Note_off_c, 0, 61, 0
2, 317060, Control_c, 0, 64, 72
2, 317072, Control_c, 0, 64, 40
2, 317084, Control_c, 0, 64, 0
2, 317104, Note_on_c, 0, 68, 77
2, 317112, Note_on_c, 0, 63, 63
2, 317112, Note_on_c, 0, 59, 48
2, 317132, Control_c, 0, 64, 24
2, 317144, Control_c, 0, 64, 56
2, 317156, Control_c, 0, 64, 72
2, 317168, Control_c, 0, 64, 88
2, 317176, Note_off_c, 0, 63, 0
2, 317184, Note_off_c, 0, 59, 0
2, 317200, Note_off_c, 0, 68, 0
2, 317228, Control_c, 0, 64, 40
2, 317240, Control_c, 0, 64, 24
2, 317252, Control_c, 0, 64, 0
2, 317260, Note_on_c, 0, 66, 76
2, 317264, Note_on_c, 0, 61, 53
2, 317268, Note_on_c, 0, 58, 51
2, 317284, Control_c, 0, 64, 24
2, 317296, Control_c, 0, 64, 56
2, 317308, Note_off_c, 0, 61, 0
2, 317312, Control_c, 0, 64, 72
2, 317332, Control_c, 0, 64, 88
2, 317344, Note_off_c, 0, 58, 0
2, 317360, Note_off_c, 0, 66, 0
2, 317408, Control_c, 0, 64, 40
2, 317416, Control_c, 0, 64, 0
2, 317424, Note_on_c, 0, 65, 76
2, 317428, Note_on_c, 0, 59, 60
2, 317440, Note_on_c, 0, 56, 48
2, 317512, Control_c, 0, 64, 24
2, 317524, Control_c, 0, 64, 56
2, 317536, Control_c, 0, 64, 88
2, 317560, Note_off_c, 0, 65, 0
2, 317560, Note_off_c, 0, 59, 0
2, 317560, Control_c, 0, 64, 104
2, 317588, Note_on_c, 0, 68, 73
2, 317608, Control_c, 0, 64, 127
2, 317720, Note_off_c, 0, 56, 0
2, 317740, Note_off_c, 0, 68, 0
2, 317740, Control_c, 0, 64, 88
2, 317744, Note_on_c, 0, 63, 70
2, 317748, Control_c, 0, 64, 40
2, 317760, Note_on_c, 0, 59, 44
2, 317760, Note_on_c, 0, 54, 47
2, 317760, Control_c, 0, 64, 0
2, 317832, Control_c, 0, 64, 24
2, 317844, Control_c, 0, 64, 72
2, 317856, Control_c, 0, 64, 104
2, 317868, Control_c, 0, 64, 127
2, 317876, Note_off_c, 0, 59, 0
2, 317880, Note_off_c, 0, 54, 0
2, 317912, Note_on_c, 0, 68, 69
2, 317940, Note_off_c, 0, 63, 0
2, 318072, Note_off_c, 0, 68, 0
2, 318076, Note_on_c, 0, 61, 64
2, 318092, Note_on_c, 0, 59, 33
2, 318092, Control_c, 0, 64, 104
2, 318096, Note_on_c, 0, 53, 46
2, 318104, Control_c, 0, 64, 88
2, 318116, Control_c, 0, 64, 40
2, 318128, Control_c, 0, 64, 0
2, 318224, Control_c, 0, 64, 56
2, 318236, Note_on_c, 0, 68, 67
2, 318236, Control_c, 0, 64, 104
2, 318248, Control_c, 0, 64, 127
2, 318276, Note_off_c, 0, 61, 0
2, 318288, Note_on_c, 0, 70, 70
2, 318332, Note_off_c, 0, 68, 0
2, 318340, Note_on_c, 0, 68, 68
2, 318352, Note_off_c, 0, 59, 0
2, 318368, Note_off_c, 0, 53, 0
2, 318396, Note_off_c, 0, 70, 0
2, 318396, Note_on_c, 0, 67, 80
2, 318420, Note_off_c, 0, 68, 0
2, 318480, Note_off_c, 0, 67, 0
2, 318556, Note_on_c, 0, 68, 85
2, 318624, Note_off_c, 0, 68, 0
2, 318724, Control_c, 0, 64, 104
2, 318736, Note_on_c, 0, 75, 80
2, 318736, Control_c, 0, 64, 88
2, 318748, Control_c, 0, 64, 72
2, 318756, Control_c, 0, 64, 56
2, 318768, Control_c, 0, 64, 24
2, 318776, Note_on_c, 0, 37, 38
2, 318784, Control_c, 0, 64, 0
2, 318856, Control_c, 0, 64, 24
2, 318868, Control_c, 0, 64, 88
2, 318872, Note_off_c, 0, 37, 0
2, 318880, Control_c, 0, 64, 127
2, 318888, Note_off_c, 0, 75, 0
2, 318912, Note_on_c, 0, 73, 79
2, 319008, Note_off_c, 0, 73, 0
2, 319072, Note_on_c, 0, 63, 73
2, 319092, Control_c, 0, 64, 56
2, 319104, Control_c, 0, 64, 0
2, 319108, Note_on_c, 0, 59, 39
2, 319124, Note_on_c, 0, 49, 42
2, 319168, Note_off_c, 0, 59, 0
2, 319172, Control_c, 0, 64, 72
2, 319188, Control_c, 0, 64, 127
2, 319192, Note_off_c, 0, 63, 0
2, 319200, Note_off_c, 0, 49, 0
2, 319220, Note_on_c, 0, 65, 70
2, 319272, Note_off_c, 0, 65, 0
2, 319408, Note_on_c, 0, 66, 69
2, 319412, Control_c, 0, 64, 104
2, 319416, Note_on_c, 0, 58, 53
2, 319424, Control_c, 0, 64, 56
2, 319436, Control_c, 0, 64, 0
2, 319440, Note_on_c, 0, 42, 51
2, 319532, Control_c, 0, 64, 72
2, 319544, Control_c, 0, 64, 127
2, 319572, Note_off_c, 0, 42, 0
2, 319572, Note_off_c, 0, 58, 0
2, 319572, Note_off_c, 0, 66, 0
2, 319760, Note_on_c, 0, 66, 79
2, 319776, Note_on_c, 0, 54, 60
2, 319792, Control_c, 0, 64, 88
2, 319800, Note_on_c, 0, 34, 35
2, 319800, Note_on_c, 0, 42, 29
2, 319804, Control_c, 0, 64, 24
2, 319816, Control_c, 0, 64, 0
2, 319888, Control_c, 0, 64, 24
2, 319900, Control_c, 0, 64, 88
2, 319912, Control_c, 0, 64, 127
2, 319948, Note_off_c, 0, 34, 0
2, 319952, Note_on_c, 0, 64, 62
2, 319996, Note_off_c, 0, 54, 0
2, 319996, Note_off_c, 0, 42, 0
2, 320052, Note_off_c, 0, 64, 0
2, 320088, Control_c, 0, 64, 88
2, 320100, Control_c, 0, 64, 24
2, 320112, Note_on_c, 0, 62, 59
2, 320112, Control_c, 0, 64, 0
2, 320128, Note_on_c, 0, 35, 46
2, 320172, Control_c, 0, 64, 24
2, 320184, Control_c, 0, 64, 88
2, 320196, Control_c, 0, 64, 127
2, 320220, Note_off_c, 0, 62, 0
2, 320220, Note_off_c, 0, 35, 0
2, 320248, Note_off_c, 0, 66, 0
2, 320260, Note_on_c, 0, 61, 58
2, 320340, Note_off_c, 0, 61, 0
2, 320412, Note_on_c, 0, 68, 75
2, 320424, Note_on_c, 0, 59, 67
2, 320424, Note_on_c, 0, 66, 53
2, 320432, Control_c, 0, 64, 72
2, 320440, Note_on_c, 0, 42, 38
2, 320444, Control_c, 0, 64, 0
2, 320460, Note_on_c, 0, 50, 33
2, 320492, Note_off_c, 0, 50, 0
2, 320492, Control_c, 0, 64, 24
2, 320504, Control_c, 0, 64, 88
2, 320512, Note_off_c, 0, 59, 0
2, 320516, Note_off_c, 0, 42, 0
2, 320516, Control_c, 0, 64, 127
2, 320540, Note_off_c, 0, 66, 0
2, 320572, Note_off_c, 0, 68, 0
2, 320588, Note_on_c, 0, 62, 58
2, 320664, Note_off_c, 0, 62, 0
2, 320716, Control_c, 0, 64, 88
2, 320728, Note_on_c, 0, 70, 81
2, 320732, Control_c, 0, 64, 0
2, 320740, Note_on_c, 0, 58, 57
2, 320748, Note_on_c, 0, 30, 47
2, 320804, Control_c, 0, 64, 72
2, 320816, Control_c, 0, 64, 127
2, 320856, Note_off_c, 0, 70, 0
2, 320872, Note_on_c, 0, 61, 58
2, 320876, Note_off_c, 0, 58, 0
2, 320880, Note_off_c, 0, 30, 0
2, 320968, Note_off_c, 0, 61, 0
2, 321048, Note_on_c, 0, 66, 85
2, 321056, Note_on_c, 0, 54, 60
2, 321072, Note_on_c, 0, 34, 40
2, 321100, Note_on_c, 0, 42, 19
2, 321108, Control_c, 0, 64, 72
2, 321124, Control_c, 0, 64, 0
2, 321192, Control_c, 0, 64, 104
2, 321204, Control_c, 0, 64, 127
2, 321216, Note_on_c, 0, 64, 63
2, 321236, Note_off_c, 0, 34, 0
2, 321256, Note_off_c, 0, 54, 0
2, 321312, Note_off_c, 0, 42, 0
2, 321328, Note_off_c, 0, 64, 0
2, 321372, Note_on_c, 0, 62, 54
2, 321372, Control_c, 0, 64, 104
2, 321384, Control_c, 0, 64, 24
2, 321392, Note_on_c, 0, 35, 61
2, 321392, Control_c, 0, 64, 0
2, 321456, Control_c, 0, 64, 72
2, 321460, Note_off_c, 0, 35, 0
2, 321468, Control_c, 0, 64, 127
2, 321480, Note_off_c, 0, 62, 0
2, 321508, Note_off_c, 0, 66, 0
2, 321512, Note_on_c, 0, 61, 57
2, 321632, Note_off_c, 0, 61, 0
2, 321680, Note_on_c, 0, 68, 78
2, 321680, Control_c, 0, 64, 72
2, 321692, Control_c, 0, 64, 0
2, 321700, Note_on_c, 0, 59, 66
2, 321712, Note_on_c, 0, 50, 55
2, 321764, Control_c, 0, 64, 56
2, 321776, Note_off_c, 0, 50, 0
2, 321776, Control_c, 0, 64, 127
2, 321788, Note_off_c, 0, 59, 0
2, 321828, Note_off_c, 0, 68, 0
2, 321840, Note_on_c, 0, 58, 62
2, 321908, Note_off_c, 0, 58, 0
2, 321976, Control_c, 0, 64, 88
2, 321988, Control_c, 0, 64, 24
2, 322000, Control_c, 0, 64, 0
2, 322004, Note_on_c, 0, 57, 70
2, 322004, Note_on_c, 0, 37, 52
2, 322084, Control_c, 0, 64, 88
2, 322096, Control_c, 0, 64, 127
2, 322108, Note_off_c, 0, 37, 0
2, 322124, Note_off_c, 0, 57, 0
2, 322156, Note_on_c, 0, 59, 56
2, 322196, Note_off_c, 0, 59, 0
2, 322328, Note_on_c, 0, 69, 89
2, 322336, Note_on_c, 0, 57, 64
2, 322344, Control_c, 0, 64, 56
2, 322356, Note_on_c, 0, 52, 45
2, 322356, Control_c, 0, 64, 0
2, 322360, Note_on_c, 0, 45, 46
2, 322420, Control_c, 0, 64, 40
2, 322432, Note_off_c, 0, 52, 0
2, 322432, Control_c, 0, 64, 104
2, 322436, Note_off_c, 0, 45, 0
2, 322440, Control_c, 0, 64, 127
2, 322508, Note_on_c, 0, 67, 54
2, 322600, Note_off_c, 0, 67, 0
2, 322608, Control_c, 0, 64, 72
2, 322620, Control_c, 0, 64, 0
2, 322644, Note_on_c, 0, 66, 48
2, 322648, Note_on_c, 0, 38, 55
2, 322664, Control_c, 0, 64, 40
2, 322676, Control_c, 0, 64, 104
2, 322692, Control_c, 0, 64, 127
2, 322736, Note_off_c, 0, 38, 0
2, 322744, Note_off_c, 0, 57, 0
2, 322784, Note_off_c, 0, 66, 0
2, 322800, Note_off_c, 0, 69, 0
2, 322804, Note_on_c, 0, 64, 59
2, 322892, Note_off_c, 0, 64, 0
2, 322952, Control_c, 0, 64, 104
2, 322956, Note_on_c, 0, 71, 76
2, 322964, Control_c, 0, 64, 40
2, 322968, Note_on_c, 0, 62, 58
2, 322972, Note_on_c, 0, 69, 58
2, 322972, Note_on_c, 0, 54, 40
2, 322976, Control_c, 0, 64, 0
2, 322980, Note_on_c, 0, 45, 53
2, 323012, Control_c, 0, 64, 56
2, 323024, Note_off_c, 0, 54, 0
2, 323024, Control_c, 0, 64, 104
2, 323032, Note_off_c, 0, 45, 0
2, 323036, Control_c, 0, 64, 127
2, 323040, Note_off_c, 0, 69, 0
2, 323084, Note_off_c, 0, 62, 0
2, 323096, Note_off_c, 0, 71, 0
2, 323128, Note_on_c, 0, 66, 54
2, 323188, Note_off_c, 0, 66, 0
2, 323248, Control_c, 0, 64, 88
2, 323260, Control_c, 0, 64, 24
2, 323268, Note_on_c, 0, 61, 73
2, 323272, Control_c, 0, 64, 0
2, 323296, Note_on_c, 0, 41, 53
2, 323340, Control_c, 0, 64, 40
2, 323352, Control_c, 0, 64, 104
2, 323364, Note_off_c, 0, 41, 0
2, 323364, Control_c, 0, 64, 127
2, 323412, Note_on_c, 0, 62, 68
2, 323424, Note_off_c, 0, 61, 0
2, 323432, Note_off_c, 0, 62, 0
2, 323592, Note_on_c, 0, 73, 89
2, 323600, Note_on_c, 0, 61, 79
2, 323604, Note_on_c, 0, 56, 48
2, 323616, Note_on_c, 0, 49, 52
2, 323616, Control_c, 0, 64, 56
2, 323628, Control_c, 0, 64, 0
2, 323676, Control_c, 0, 64, 40
2, 323688, Control_c, 0, 64, 104
2, 323700, Control_c, 0, 64, 127
2, 323708, Note_off_c, 0, 56, 0
2, 323708, Note_off_c, 0, 49, 0
2, 323764, Note_on_c, 0, 71, 62
2, 323864, Note_off_c, 0, 61, 0
2, 323880, Control_c, 0, 64, 104
2, 323892, Control_c, 0, 64, 40
2, 323900, Note_off_c, 0, 71, 0
2, 323904, Control_c, 0, 64, 0
2, 323912, Note_on_c, 0, 70, 62
2, 323912, Note_on_c, 0, 42, 55
2, 323948, Control_c, 0, 64, 56
2, 323960, Control_c, 0, 64, 104
2, 323972, Control_c, 0, 64, 127
2, 323976, Note_off_c, 0, 42, 0
2, 324000, Note_off_c, 0, 73, 0
2, 324044, Note_off_c, 0, 70, 0
2, 324072, Note_on_c, 0, 67, 52
2, 324140, Note_off_c, 0, 67, 0
2, 324140, Control_c, 0, 64, 88
2, 324152, Control_c, 0, 64, 0
2, 324156, Note_on_c, 0, 46, 61
2, 324188, Note_on_c, 0, 54, 58
2, 324208, Note_off_c, 0, 46, 0
2, 324208, Control_c, 0, 64, 56
2, 324224, Control_c, 0, 64, 127
2, 324248, Note_on_c, 0, 76, 95
2, 324260, Note_on_c, 0, 66, 65
2, 324264, Note_on_c, 0, 73, 57
2, 324264, Note_on_c, 0, 61, 54
2, 324284, Note_off_c, 0, 54, 0
2, 324292, Note_off_c, 0, 61, 0
2, 324368, Note_off_c, 0, 66, 0
2, 324388, Note_off_c, 0, 76, 0
2, 324396, Note_off_c, 0, 73, 0
2, 324424, Note_on_c, 0, 67, 61
2, 324504, Note_off_c, 0, 67, 0
2, 324556, Control_c, 0, 64, 56
2, 324564, Note_on_c, 0, 47, 64
2, 324568, Control_c, 0, 64, 0
2, 324588, Note_on_c, 0, 54, 60
2, 324608, Note_off_c, 0, 47, 0
2, 324636, Note_on_c, 0, 74, 94
2, 324644, Note_on_c, 0, 66, 73
2, 324652, Control_c, 0, 64, 104
2, 324656, Note_on_c, 0, 71, 70
2, 324664, Note_off_c, 0, 54, 0
2, 324664, Control_c, 0, 64, 127
2, 324668, Note_on_c, 0, 62, 65
2, 324676, Note_off_c, 0, 71, 0
2, 324700, Note_off_c, 0, 66, 0
2, 324700, Note_off_c, 0, 62, 0
2, 324728, Note_off_c, 0, 74, 0
2, 325076, Note_on_c, 0, 67, 88
2, 325092, Note_on_c, 0, 55, 63
2, 325112, Control_c, 0, 64, 56
2, 325116, Note_on_c, 0, 30, 60
2, 325116, Note_on_c, 0, 42, 55
2, 325124, Control_c, 0, 64, 0
2, 325180, Note_off_c, 0, 55, 0
2, 325184, Control_c, 0, 64, 40
2, 325196, Control_c, 0, 64, 104
2, 325208, Control_c, 0, 64, 127
2, 325228, Note_off_c, 0, 67, 0
2, 325236, Note_on_c, 0, 66, 62
2, 325260, Note_on_c, 0, 62, 60
2, 325296, Note_off_c, 0, 30, 0
2, 325312, Note_off_c, 0, 42, 0
2, 325336, Note_off_c, 0, 62, 0
2, 325364, Note_off_c, 0, 66, 0
2, 325404, Note_on_c, 0, 61, 54
2, 325428, Note_on_c, 0, 64, 53
2, 325492, Note_off_c, 0, 61, 0
2, 325500, Note_off_c, 0, 64, 0
2, 325552, Note_on_c, 0, 62, 64
2, 325648, Note_off_c, 0, 62, 0
2, 325712, Note_on_c, 0, 61, 65
2, 325720, Note_on_c, 0, 67, 70
2, 325740, Note_on_c, 0, 58, 43
2, 325748, Note_on_c, 0, 52, 46
2, 325764, Control_c, 0, 64, 72
2, 325776, Control_c, 0, 64, 0
2, 325840, Control_c, 0, 64, 40
2, 325852, Control_c, 0, 64, 104
2, 325860, Control_c, 0, 64, 127
2, 325868, Note_off_c, 0, 67, 0
2, 325872, Note_off_c, 0, 58, 0
2, 325872, Note_off_c, 0, 52, 0
2, 325872, Note_on_c, 0, 64, 63
2, 325896, Note_off_c, 0, 61, 0
2, 325912, Note_off_c, 0, 64, 0
2, 326024, Note_on_c, 0, 54, 79
2, 326120, Note_off_c, 0, 54, 0
2, 326176, Note_on_c, 0, 55, 87
2, 326216, Note_off_c, 0, 55, 0
2, 326336, Note_on_c, 0, 66, 89
2, 326344, Note_on_c, 0, 54, 68
2, 326364, Note_on_c, 0, 30, 54
2, 326408, Control_c, 0, 64, 72
2, 326420, Control_c, 0, 64, 0
2, 326504, Control_c, 0, 64, 104
2, 326508, Note_off_c, 0, 54, 0
2, 326516, Note_on_c, 0, 64, 67
2, 326516, Control_c, 0, 64, 127
2, 326520, Note_on_c, 0, 61, 55
2, 326532, Note_off_c, 0, 66, 0
2, 326600, Note_off_c, 0, 30, 0
2, 326636, Note_off_c, 0, 61, 0
2, 326640, Note_off_c, 0, 64, 0
2, 326680, Note_on_c, 0, 62, 67
2, 326688, Note_on_c, 0, 59, 45
2, 326760, Note_off_c, 0, 59, 0
2, 326776, Note_off_c, 0, 62, 0
2, 326820, Note_on_c, 0, 61, 63
2, 326824, Note_on_c, 0, 64, 70
2, 326880, Note_off_c, 0, 61, 0
2, 326908, Note_off_c, 0, 64, 0
2, 326972, Note_on_c, 0, 67, 75
2, 326980, Note_on_c, 0, 59, 50
2, 326996, Note_on_c, 0, 50, 59
2, 327024, Control_c, 0, 64, 104
2, 327036, Control_c, 0, 64, 24
2, 327048, Control_c, 0, 64, 0
2, 327100, Note_off_c, 0, 67, 0
2, 327108, Control_c, 0, 64, 40
2, 327116, Note_on_c, 0, 66, 64
2, 327120, Control_c, 0, 64, 104
2, 327132, Note_on_c, 0, 62, 66
2, 327132, Control_c, 0, 64, 127
2, 327140, Note_off_c, 0, 50, 0
2, 327148, Note_off_c, 0, 62, 0
2, 327160, Note_off_c, 0, 59, 0
2, 327176, Note_off_c, 0, 66, 0
2, 327272, Note_on_c, 0, 52, 83
2, 327384, Note_off_c, 0, 52, 0
2, 327408, Note_on_c, 0, 54, 76
2, 327464, Note_off_c, 0, 54, 0
2, 327584, Note_on_c, 0, 64, 88
2, 327592, Note_on_c, 0, 52, 68
2, 327616, Note_on_c, 0, 30, 54
2, 327632, Control_c, 0, 64, 72
2, 327644, Control_c, 0, 64, 0
2, 327724, Control_c, 0, 64, 56
2, 327728, Note_off_c, 0, 52, 0
2, 327740, Note_off_c, 0, 64, 0
2, 327740, Note_on_c, 0, 62, 66
2, 327740, Control_c, 0, 64, 127
2, 327768, Note_on_c, 0, 59, 63
2, 327852, Note_off_c, 0, 59, 0
2, 327880, Note_off_c, 0, 62, 0
2, 327896, Note_off_c, 0, 30, 0
2, 327904, Note_on_c, 0, 61, 61
2, 327908, Note_on_c, 0, 58, 61
2, 328004, Note_off_c, 0, 58, 0
2, 328024, Note_off_c, 0, 61, 0
2, 328048, Note_on_c, 0, 59, 74
2, 328184, Note_off_c, 0, 59, 0
2, 328220, Note_on_c, 0, 64, 70
2, 328220, Note_on_c, 0, 58, 51
2, 328240, Note_on_c, 0, 55, 41
2, 328244, Note_on_c, 0, 52, 47
2, 328260, Control_c, 0, 64, 104
2, 328272, Control_c, 0, 64, 56
2, 328284, Control_c, 0, 64, 0
2, 328356, Control_c, 0, 64, 40
2, 328364, Note_off_c, 0, 64, 0
2, 328368, Control_c, 0, 64, 127
2, 328376, Note_off_c, 0, 55, 0
2, 328380, Note_on_c, 0, 61, 62
2, 328388, Note_off_c, 0, 52, 0
2, 328392, Note_off_c, 0, 58, 0
2, 328432, Note_off_c, 0, 61, 0
2, 328532, Note_on_c, 0, 50, 70
2, 328616, Note_off_c, 0, 50, 0
2, 328676, Note_on_c, 0, 52, 78
2, 328720, Note_off_c, 0, 52, 0
2, 328852, Note_on_c, 0, 62, 84
2, 328856, Note_on_c, 0, 50, 60
2, 328876, Control_c, 0, 64, 104
2, 328880, Note_on_c, 0, 30, 54
2, 328892, Control_c, 0, 64, 56
2, 328904, Control_c, 0, 64, 0
2, 328940, Note_off_c, 0, 50, 0
2, 328996, Control_c, 0, 64, 88
2, 329008, Note_on_c, 0, 61, 80
2, 329008, Control_c, 0, 64, 127
2, 329020, Note_off_c, 0, 62, 0
2, 329024, Note_on_c, 0, 58, 56
2, 329104, Note_off_c, 0, 30, 0
2, 329120, Note_off_c, 0, 58, 0
2, 329128, Note_off_c, 0, 61, 0
2, 329164, Note_on_c, 0, 56, 50
2, 329164, Note_on_c, 0, 59, 77
2, 329264, Note_off_c, 0, 56, 0
2, 329280, Note_off_c, 0, 59, 0
2, 329320, Note_on_c, 0, 61, 78
2, 329320, Note_on_c, 0, 58, 56
2, 329384, Note_off_c, 0, 58, 0
2, 329444, Note_off_c, 0, 61, 0
2, 329492, Note_on_c, 0, 64, 80
2, 329520, Note_on_c, 0, 53, 40
2, 329524, Note_on_c, 0, 56, 32
2, 329524, Note_on_c, 0, 49, 34
2, 329556, Control_c, 0, 64, 88
2, 329568, Control_c, 0, 64, 40
2, 329580, Control_c, 0, 64, 0
2, 329648, Control_c, 0, 64, 40
2, 329660, Control_c, 0, 64, 104
2, 329672, Control_c, 0, 64, 127
2, 329676, Note_off_c, 0, 64, 0
2, 329684, Note_on_c, 0, 62, 75
2, 329708, Note_on_c, 0, 59, 40
2, 329736, Note_off_c, 0, 53, 0
2, 329744, Note_off_c, 0, 59, 0
2, 329768, Note_off_c, 0, 56, 0
2, 329784, Note_off_c, 0, 49, 0
2, 329904, Note_on_c, 0, 58, 56
2, 329940, Note_on_c, 0, 42, 54
2, 329956, Control_c, 0, 64, 56
2, 329968, Control_c, 0, 64, 0
2, 330044, Control_c, 0, 64, 88
2, 330056, Control_c, 0, 64, 127
2, 330076, Note_on_c, 0, 61, 64
2, 330084, Note_off_c, 0, 62, 0
2, 330088, Note_off_c, 0, 42, 0
2, 330096, Note_off_c, 0, 58, 0
2, 330236, Note_on_c, 0, 52, 53
2, 330256, Note_on_c, 0, 55, 42
2, 330256, Note_on_c, 0, 49, 37
2, 330280, Control_c, 0, 64, 72
2, 330292, Control_c, 0, 64, 0
2, 330312, Note_off_c, 0, 61, 0
2, 330352, Control_c, 0, 64, 88
2, 330364, Control_c, 0, 64, 127
2, 330388, Note_on_c, 0, 59, 62
2, 330412, Note_off_c, 0, 52, 0
2, 330504, Note_off_c, 0, 59, 0
2, 330536, Note_on_c, 0, 62, 65
2, 330620, Note_off_c, 0, 62, 0
2, 330688, Note_on_c, 0, 61, 63
2, 330800, Note_off_c, 0, 61, 0
2, 330836, Note_on_c, 0, 58, 61
2, 330948, Note_off_c, 0, 58, 0
2, 330972, Note_on_c, 0, 61, 60
2, 330984, Note_off_c, 0, 55, 0
2, 331040, Note_off_c, 0, 49, 0
2, 331080, Note_off_c, 0, 61, 0
2, 331120, Note_on_c, 0, 54, 69
2, 331132, Control_c, 0, 64, 104
2, 331148, Note_on_c, 0, 42, 54
2, 331148, Control_c, 0, 64, 72
2, 331160, Control_c, 0, 64, 0
2, 331252, Control_c, 0, 64, 72
2, 331264, Control_c, 0, 64, 127
2, 331268, Note_off_c, 0, 54, 0
2, 331280, Note_on_c, 0, 58, 49
2, 331380, Note_off_c, 0, 42, 0
2, 331416, Note_off_c, 0, 58, 0
2, 331444, Note_on_c, 0, 52, 64
2, 331452, Note_on_c, 0, 55, 56
2, 331464, Note_on_c, 0, 49, 52
2, 331492, Control_c, 0, 64, 88
2, 331504, Control_c, 0, 64, 24
2, 331512, Control_c, 0, 64, 0
2, 331572, Control_c, 0, 64, 56
2, 331584, Control_c, 0, 64, 127
2, 331600, Note_on_c, 0, 59, 60
2, 331660, Note_off_c, 0, 52, 0
2, 331728, Note_off_c, 0, 59, 0
2, 331744, Note_on_c, 0, 62, 65
2, 331836, Note_off_c, 0, 62, 0
2, 331872, Note_on_c, 0, 61, 64
2, 331996, Note_off_c, 0, 61, 0
2, 332016, Note_on_c, 0, 58, 62
2, 332112, Note_off_c, 0, 55, 0
2, 332128, Note_off_c, 0, 49, 0
2, 332132, Note_off_c, 0, 58, 0
2, 332144, Note_on_c, 0, 61, 62
2, 332264, Note_off_c, 0, 61, 0
2, 332300, Control_c, 0, 64, 104
2, 332308, Note_on_c, 0, 54, 64
2, 332312, Control_c, 0, 64, 0
2, 332324, Note_on_c, 0, 42, 45
2, 332384, Control_c, 0, 64, 24
2, 332396, Control_c, 0, 64, 72
2, 332408, Control_c, 0, 64, 127
2, 332456, Note_on_c, 0, 58, 55
2, 332468, Note_off_c, 0, 54, 0
2, 332484, Note_off_c, 0, 42, 0
2, 332560, Note_off_c, 0, 58, 0
2, 332604, Note_on_c, 0, 52, 66
2, 332616, Note_on_c, 0, 55, 52
2, 332620, Note_on_c, 0, 49, 46
2, 332636, Control_c, 0, 64, 72
2, 332648, Control_c, 0, 64, 0
2, 332716, Control_c, 0, 64, 56
2, 332728, Control_c, 0, 64, 127
2, 332736, Note_off_c, 0, 52, 0
2, 332744, Note_on_c, 0, 59, 62
2, 332848, Note_off_c, 0, 59, 0
2, 332892, Note_on_c, 0, 62, 61
2, 332980, Note_off_c, 0, 62, 0
2, 333020, Note_on_c, 0, 61, 58
2, 333088, Note_off_c, 0, 55, 0
2, 333088, Note_off_c, 0, 61, 0
2, 333160, Note_on_c, 0, 58, 40
2, 333168, Note_on_c, 0, 54, 48
2, 333204, Control_c, 0, 64, 72
2, 333216, Control_c, 0, 64, 40
2, 333228, Control_c, 0, 64, 0
2, 333292, Note_on_c, 0, 61, 67
2, 333312, Control_c, 0, 64, 24
2, 333324, Note_off_c, 0, 58, 0
2, 333324, Control_c, 0, 64, 72
2, 333332, Control_c, 0, 64, 127
2, 333412, Note_off_c, 0, 61, 0
2, 333432, Note_on_c, 0, 66, 62
2, 333556, Note_off_c, 0, 66, 0
2, 333580, Note_on_c, 0, 64, 68
2, 333676, Note_off_c, 0, 64, 0
2, 333712, Note_on_c, 0, 61, 64
2, 333848, Note_off_c, 0, 61, 0
2, 333848, Note_on_c, 0, 66, 68
2, 333968, Note_off_c, 0, 66, 0
2, 333996, Note_on_c, 0, 69, 77
2, 334072, Note_off_c, 0, 54, 0
2, 334124, Note_off_c, 0, 49, 0
2, 334132, Note_off_c, 0, 69, 0
2, 334148, Note_on_c, 0, 67, 80
2, 334244, Note_off_c, 0, 67, 0
2, 334280, Note_on_c, 0, 64, 70
2, 334380, Note_off_c, 0, 64, 0
2, 334420, Note_on_c, 0, 71, 82
2, 334552, Note_off_c, 0, 71, 0
2, 334572, Note_on_c, 0, 74, 81
2, 334572, Control_c, 0, 64, 104
2, 334584, Control_c, 0, 64, 72
2, 334592, Control_c, 0, 64, 24
2, 334596, Note_on_c, 0, 30, 57
2, 334604, Control_c, 0, 64, 0
2, 334700, Control_c, 0, 64, 72
2, 334712, Control_c, 0, 64, 127
2, 334716, Note_off_c, 0, 74, 0
2, 334720, Note_on_c, 0, 73, 73
2, 334816, Note_off_c, 0, 73, 0
2, 334856, Note_on_c, 0, 70, 71
2, 334980, Note_on_c, 0, 74, 69
2, 335016, Note_off_c, 0, 70, 0
2, 335108, Note_off_c, 0, 74, 0
2, 335120, Note_on_c, 0, 78, 75
2, 335244, Note_off_c, 0, 78, 0
2, 335264, Note_on_c, 0, 76, 83
2, 335368, Note_off_c, 0, 76, 0
2, 335392, Note_on_c, 0, 73, 74
2, 335504, Note_off_c, 0, 73, 0
2, 335516, Note_on_c, 0, 78, 73
2, 335608, Note_off_c, 0, 30, 0
2, 335644, Note_off_c, 0, 78, 0
2, 335664, Note_on_c, 0, 81, 80
2, 335808, Note_off_c, 0, 81, 0
2, 335808, Note_on_c, 0, 79, 81
2, 335912, Control_c, 0, 64, 104
2, 335924, Control_c, 0, 64, 56
2, 335932, Note_off_c, 0, 79, 0
2, 335936, Control_c, 0, 64, 24
2, 335948, Control_c, 0, 64, 0
2, 335952, Note_on_c, 0, 76, 78
2, 335968, Note_on_c, 0, 54, 56
2, 335984, Control_c, 0, 64, 56
2, 335996, Control_c, 0, 64, 104
2, 336008, Control_c, 0, 64, 127
2, 336060, Note_off_c, 0, 76, 0
2, 336088, Note_on_c, 0, 83, 86
2, 336212, Note_off_c, 0, 54, 0
2, 336216, Note_off_c, 0, 83, 0
2, 336224, Note_on_c, 0, 86, 82
2, 336232, Note_on_c, 0, 61, 60
2, 336360, Note_off_c, 0, 86, 0
2, 336360, Note_on_c, 0, 85, 81
2, 336468, Note_off_c, 0, 85, 0
2, 336492, Note_on_c, 0, 64, 70
2, 336492, Note_on_c, 0, 82, 74
2, 336600, Note_off_c, 0, 82, 0
2, 336620, Note_on_c, 0, 86, 76
2, 336752, Note_off_c, 0, 86, 0
2, 336764, Note_on_c, 0, 90, 75
2, 336776, Note_on_c, 0, 70, 70
2, 336900, Note_off_c, 0, 90, 0
2, 336908, Note_on_c, 0, 88, 81
2, 337000, Note_off_c, 0, 88, 0
2, 337040, Note_on_c, 0, 85, 77
2, 337172, Note_on_c, 0, 93, 90
2, 337292, Note_off_c, 0, 93, 0
2, 337312, Control_c, 0, 64, 88
2, 337320, Note_on_c, 0, 92, 87
2, 337324, Control_c, 0, 64, 56
2, 337360, Control_c, 0, 64, 127
2, 337420, Note_off_c, 0, 85, 0
2, 337440, Note_off_c, 0, 92, 0
2, 337464, Note_on_c, 0, 91, 83
2, 337564, Note_off_c, 0, 91, 0
2, 337608, Note_on_c, 0, 90, 80
2, 337632, Note_off_c, 0, 90, 0
2, 337740, Note_on_c, 0, 89, 78
2, 337876, Note_off_c, 0, 89, 0
2, 337892, Note_on_c, 0, 88, 77
2, 338020, Note_off_c, 0, 70, 0
2, 338032, Note_off_c, 0, 64, 0
2, 338048, Note_off_c, 0, 61, 0
2, 338052, Note_on_c, 0, 98, 88
2, 338116, Note_off_c, 0, 88, 0
2, 338168, Note_off_c, 0, 98, 0
2, 338196, Note_on_c, 0, 97, 85
2, 338316, Note_off_c, 0, 97, 0
2, 338336, Note_on_c, 0, 94, 80
2, 338452, Note_off_c, 0, 94, 0
2, 338476, Note_on_c, 0, 90, 77
2, 338612, Note_off_c, 0, 90, 0
2, 338624, Note_on_c, 0, 88, 74
2, 338672, Note_off_c, 0, 88, 0
2, 338764, Note_on_c, 0, 85, 71
2, 338840, Note_off_c, 0, 85, 0
2, 338920, Note_on_c, 0, 82, 71
2, 338972, Note_off_c, 0, 82, 0
2, 339036, Control_c, 0, 64, 104
2, 339048, Control_c, 0, 64, 88
2, 339056, Control_c, 0, 64, 72
2, 339064, Note_on_c, 0, 78, 69
2, 339072, Control_c, 0, 64, 104
2, 339084, Control_c, 0, 64, 127
2, 339204, Note_on_c, 0, 76, 70
2, 339208, Note_off_c, 0, 78, 0
2, 339284, Note_off_c, 0, 76, 0
2, 339344, Note_on_c, 0, 74, 69
2, 339456, Note_off_c, 0, 74, 0
2, 339484, Note_on_c, 0, 73, 68
2, 339604, Note_off_c, 0, 73, 0
2, 339628, Note_on_c, 0, 70, 67
2, 339768, Note_off_c, 0, 70, 0
2, 339768, Note_on_c, 0, 66, 66
2, 339872, Note_off_c, 0, 66, 0
2, 339908, Note_on_c, 0, 64, 64
2, 340032, Note_off_c, 0, 64, 0
2, 340052, Note_on_c, 0, 61, 63
2, 340168, Note_off_c, 0, 61, 0
2, 340196, Note_on_c, 0, 58, 62
2, 340320, Note_off_c, 0, 58, 0
2, 340340, Note_on_c, 0, 54, 61
2, 340468, Note_off_c, 0, 54, 0
2, 340484, Note_on_c, 0, 52, 60
2, 340612, Note_off_c, 0, 52, 0
2, 340636, Note_on_c, 0, 49, 59
2, 340784, Note_on_c, 0, 46, 58
2, 340788, Note_off_c, 0, 49, 0
2, 340828, Control_c, 0, 64, 88
2, 340840, Control_c, 0, 64, 40
2, 340852, Control_c, 0, 64, 0
2, 340924, Control_c, 0, 64, 40
2, 340936, Note_off_c, 0, 46, 0
2, 340936, Control_c, 0, 64, 88
2, 340940, Control_c, 0, 64, 127
2, 340956, Note_on_c, 0, 41, 56
2, 341136, Note_off_c, 0, 41, 0
2, 341140, Note_on_c, 0, 44, 57
2, 341204, Control_c, 0, 64, 104
2, 341216, Control_c, 0, 64, 88
2, 341236, Control_c, 0, 64, 56
2, 341244, Control_c, 0, 64, 0
2, 341244, Control_c, 0, 64, 24
2, 341320, Note_off_c, 0, 44, 0
2, 341364, Note_on_c, 0, 42, 53
2, 341568, Note_off_c, 0, 42, 0
2, 341672, Note_on_c, 0, 35, 47
2, 341728, Control_c, 0, 64, 72
2, 341748, Note_off_c, 0, 35, 0
2, 341748, Control_c, 0, 64, 127
2, 341892, Note_on_c, 0, 51, 54
2, 341956, Note_off_c, 0, 51, 0
2, 342096, Note_on_c, 0, 59, 42
2, 342216, Note_off_c, 0, 59, 0
2, 342284, Note_on_c, 0, 75, 77
2, 342440, Note_on_c, 0, 54, 22
2, 342552, Note_off_c, 0, 54, 0
2, 342572, Note_on_c, 0, 63, 38
2, 342700, Note_off_c, 0, 63, 0
2, 342720, Note_on_c, 0, 51, 36
2, 342744, Note_off_c, 0, 51, 0
2, 342856, Note_on_c, 0, 42, 53
2, 342968, Note_off_c, 0, 42, 0
2, 343008, Note_on_c, 0, 51, 45
2, 343108, Note_off_c, 0, 51, 0
2, 343148, Note_on_c, 0, 59, 56
2, 343240, Note_off_c, 0, 59, 0
2, 343280, Note_off_c, 0, 75, 0
2, 343308, Note_on_c, 0, 54, 47
2, 343312, Note_on_c, 0, 76, 83
2, 343416, Note_off_c, 0, 54, 0
2, 343464, Note_on_c, 0, 51, 42
2, 343596, Note_off_c, 0, 51, 0
2, 343604, Note_on_c, 0, 63, 44
2, 343616, Note_off_c, 0, 76, 0
2, 343664, Note_off_c, 0, 63, 0
2, 343724, Note_on_c, 0, 75, 82
2, 343860, Note_off_c, 0, 75, 0
2, 343876, Note_on_c, 0, 73, 71
2, 343920, Note_on_c, 0, 47, 54
2, 343956, Control_c, 0, 64, 88
2, 343972, Control_c, 0, 64, 56
2, 343988, Control_c, 0, 64, 0
2, 344040, Note_off_c, 0, 47, 0
2, 344040, Note_on_c, 0, 51, 50
2, 344088, Control_c, 0, 64, 88
2, 344100, Control_c, 0, 64, 127
2, 344172, Note_off_c, 0, 51, 0
2, 344184, Note_on_c, 0, 59, 42
2, 344284, Note_off_c, 0, 59, 0
2, 344336, Note_off_c, 0, 73, 0
2, 344356, Note_on_c, 0, 71, 66
2, 344356, Note_on_c, 0, 54, 39
2, 344460, Note_off_c, 0, 54, 0
2, 344492, Note_on_c, 0, 51, 40
2, 344628, Note_off_c, 0, 51, 0
2, 344656, Note_on_c, 0, 63, 45
2, 344680, Note_off_c, 0, 63, 0
2, 344840, Note_on_c, 0, 42, 51
2, 344884, Control_c, 0, 64, 72
2, 344900, Control_c, 0, 64, 0
2, 344952, Note_off_c, 0, 42, 0
2, 344984, Note_on_c, 0, 51, 53
2, 344984, Control_c, 0, 64, 56
2, 345000, Control_c, 0, 64, 127
2, 345084, Note_off_c, 0, 51, 0
2, 345128, Note_on_c, 0, 59, 42
2, 345192, Note_off_c, 0, 59, 0
2, 345256, Note_off_c, 0, 71, 0
2, 345276, Note_on_c, 0, 63, 67
2, 345300, Note_on_c, 0, 54, 42
2, 345424, Note_on_c, 0, 51, 44
2, 345428, Note_off_c, 0, 54, 0
2, 345452, Note_off_c, 0, 63, 0
2, 345532, Note_on_c, 0, 70, 68
2, 345604, Note_off_c, 0, 51, 0
2, 345612, Note_on_c, 0, 63, 44
2, 345636, Note_off_c, 0, 63, 0
2, 345824, Note_on_c, 0, 68, 63
2, 345828, Note_on_c, 0, 35, 53
2, 345852, Note_off_c, 0, 70, 0
2, 345880, Control_c, 0, 64, 104
2, 345896, Control_c, 0, 64, 24
2, 345904, Note_off_c, 0, 35, 0
2, 345912, Control_c, 0, 64, 0
2, 345968, Control_c, 0, 64, 56
2, 345984, Control_c, 0, 64, 127
2, 346068, Note_off_c, 0, 68, 0
2, 346068, Note_on_c, 0, 51, 50
2, 346088, Note_on_c, 0, 66, 79
2, 346224, Note_off_c, 0, 51, 0
2, 346224, Note_off_c, 0, 66, 0
2, 346232, Note_on_c, 0, 59, 42
2, 346304, Note_on_c, 0, 70, 80
2, 346332, Note_off_c, 0, 59, 0
2, 346372, Note_on_c, 0, 54, 50
2, 346484, Note_off_c, 0, 70, 0
2, 346492, Note_off_c, 0, 54, 0
2, 346512, Note_on_c, 0, 71, 82
2, 346516, Note_on_c, 0, 51, 38
2, 346584, Note_off_c, 0, 51, 0
2, 346704, Note_off_c, 0, 71, 0
2, 346728, Note_on_c, 0, 74, 94
2, 346776, Note_on_c, 0, 47, 52
2, 346880, Note_off_c, 0, 47, 0
2, 346908, Note_off_c, 0, 74, 0
2, 346940, Note_on_c, 0, 75, 93
2, 347016, Note_on_c, 0, 51, 32
2, 347072, Note_off_c, 0, 75, 0
2, 347088, Note_on_c, 0, 59, 48
2, 347256, Note_on_c, 0, 80, 84
2, 347292, Note_off_c, 0, 59, 0
2, 347308, Note_on_c, 0, 56, 46
2, 347316, Note_off_c, 0, 51, 0
2, 347356, Control_c, 0, 64, 72
2, 347372, Control_c, 0, 64, 0
2, 347456, Control_c, 0, 64, 104
2, 347460, Note_on_c, 0, 51, 48
2, 347472, Control_c, 0, 64, 127
2, 347492, Note_off_c, 0, 56, 0
2, 347608, Note_off_c, 0, 51, 0
2, 347628, Note_on_c, 0, 63, 55
2, 347708, Note_off_c, 0, 63, 0
2, 347720, Note_off_c, 0, 80, 0
2, 347752, Note_on_c, 0, 78, 78
2, 347848, Note_off_c, 0, 78, 0
2, 347932, Note_on_c, 0, 78, 81
2, 347972, Note_on_c, 0, 49, 34
2, 348008, Control_c, 0, 64, 72
2, 348024, Control_c, 0, 64, 0
2, 348120, Note_off_c, 0, 49, 0
2, 348124, Control_c, 0, 64, 72
2, 348128, Note_on_c, 0, 52, 41
2, 348136, Control_c, 0, 64, 127
2, 348228, Note_off_c, 0, 52, 0
2, 348236, Note_on_c, 0, 61, 42
2, 348388, Note_off_c, 0, 78, 0
2, 348404, Note_on_c, 0, 76, 71
2, 348420, Note_on_c, 0, 56, 55
2, 348492, Note_off_c, 0, 61, 0
2, 348552, Note_off_c, 0, 56, 0
2, 348560, Note_on_c, 0, 52, 42
2, 348648, Note_off_c, 0, 52, 0
2, 348712, Note_on_c, 0, 64, 54
2, 348744, Note_off_c, 0, 64, 0
2, 348876, Note_on_c, 0, 49, 43
2, 348976, Control_c, 0, 64, 72
2, 348988, Control_c, 0, 64, 0
2, 349036, Note_on_c, 0, 52, 50
2, 349092, Control_c, 0, 64, 104
2, 349108, Control_c, 0, 64, 127
2, 349160, Note_off_c, 0, 52, 0
2, 349172, Note_off_c, 0, 49, 0
2, 349176, Note_on_c, 0, 61, 41
2, 349328, Note_off_c, 0, 61, 0
2, 349372, Note_on_c, 0, 57, 60
2, 349532, Note_on_c, 0, 52, 44
2, 349708, Note_off_c, 0, 57, 0
2, 349724, Note_on_c, 0, 64, 52
2, 349756, Note_off_c, 0, 64, 0
2, 349768, Note_off_c, 0, 52, 0
2, 349776, Note_off_c, 0, 76, 0
2, 350032, Note_on_c, 0, 76, 82
2, 350032, Control_c, 0, 64, 104
2, 350044, Note_on_c, 0, 37, 57
2, 350048, Control_c, 0, 64, 24
2, 350064, Control_c, 0, 64, 0
2, 350108, Note_off_c, 0, 37, 0
2, 350132, Control_c, 0, 64, 56
2, 350148, Control_c, 0, 64, 127
2, 350244, Note_on_c, 0, 52, 60
2, 350392, Note_off_c, 0, 52, 0
2, 350396, Note_on_c, 0, 61, 39
2, 350496, Note_off_c, 0, 61, 0
2, 350528, Note_on_c, 0, 58, 52
2, 350672, Note_off_c, 0, 58, 0
2, 350680, Note_on_c, 0, 52, 68
2, 350792, Note_off_c, 0, 52, 0
2, 350984, Note_on_c, 0, 46, 53
2, 350984, Control_c, 0, 64, 88
2, 351000, Control_c, 0, 64, 0
2, 351056, Control_c, 0, 64, 40
2, 351072, Control_c, 0, 64, 104
2, 351076, Note_off_c, 0, 46, 0
2, 351088, Control_c, 0, 64, 127
2, 351112, Note_on_c, 0, 52, 45
2, 351196, Note_on_c, 0, 72, 87
2, 351204, Note_off_c, 0, 52, 0
2, 351224, Note_off_c, 0, 76, 0
2, 351236, Note_on_c, 0, 61, 37
2, 351360, Note_off_c, 0, 61, 0
2, 351384, Note_on_c, 0, 58, 38
2, 351420, Note_on_c, 0, 75, 84
2, 351428, Note_off_c, 0, 72, 0
2, 351508, Note_off_c, 0, 58, 0
2, 351516, Note_on_c, 0, 52, 48
2, 351632, Note_off_c, 0, 52, 0
2, 351640, Note_on_c, 0, 73, 83
2, 351652, Note_off_c, 0, 75, 0
2, 351664, Note_on_c, 0, 64, 50
2, 351704, Note_off_c, 0, 64, 0
2, 351744, Note_off_c, 0, 73, 0
2, 351868, Note_on_c, 0, 73, 67
2, 351912, Note_on_c, 0, 49, 53
2, 351940, Control_c, 0, 64, 56
2, 351956, Control_c, 0, 64, 0
2, 352020, Note_off_c, 0, 49, 0
2, 352040, Control_c, 0, 64, 40
2, 352048, Note_on_c, 0, 52, 53
2, 352056, Control_c, 0, 64, 127
2, 352132, Note_off_c, 0, 52, 0
2, 352160, Note_on_c, 0, 61, 56
2, 352256, Note_off_c, 0, 61, 0
2, 352300, Note_on_c, 0, 64, 66
2, 352336, Note_on_c, 0, 58, 37
2, 352400, Note_off_c, 0, 58, 0
2, 352404, Note_off_c, 0, 64, 0
2, 352476, Note_on_c, 0, 52, 54
2, 352568, Note_off_c, 0, 52, 0
2, 352608, Note_on_c, 0, 64, 65
2, 352636, Note_off_c, 0, 64, 0
2, 352748, Note_on_c, 0, 46, 62
2, 352780, Control_c, 0, 64, 88
2, 352792, Control_c, 0, 64, 40
2, 352808, Control_c, 0, 64, 24
2, 352820, Control_c, 0, 64, 56
2, 352840, Control_c, 0, 64, 127
2, 352872, Note_off_c, 0, 46, 0
2, 352908, Note_on_c, 0, 52, 48
2, 352996, Note_off_c, 0, 52, 0
2, 353028, Note_on_c, 0, 61, 54
2, 353132, Note_off_c, 0, 61, 0
2, 353184, Note_on_c, 0, 68, 72
2, 353196, Note_off_c, 0, 73, 0
2, 353216, Note_on_c, 0, 58, 44
2, 353348, Note_off_c, 0, 58, 0
2, 353360, Note_on_c, 0, 52, 55
2, 353440, Note_off_c, 0, 52, 0
2, 353444, Note_on_c, 0, 64, 58
2, 353472, Note_off_c, 0, 64, 0
2, 353512, Note_off_c, 0, 68, 0
2, 353576, Note_on_c, 0, 70, 67
2, 353668, Note_off_c, 0, 70, 0
2, 353688, Note_on_c, 0, 68, 71
2, 353692, Control_c, 0, 64, 104
2, 353704, Control_c, 0, 64, 24
2, 353708, Note_on_c, 0, 37, 53
2, 353720, Control_c, 0, 64, 0
2, 353764, Note_off_c, 0, 37, 0
2, 353792, Control_c, 0, 64, 88
2, 353804, Control_c, 0, 64, 127
2, 353896, Note_on_c, 0, 52, 55
2, 353916, Note_off_c, 0, 68, 0
2, 353936, Note_on_c, 0, 66, 78
2, 353976, Note_off_c, 0, 52, 0
2, 354020, Note_on_c, 0, 61, 48
2, 354076, Note_off_c, 0, 66, 0
2, 354108, Note_off_c, 0, 61, 0
2, 354140, Note_on_c, 0, 70, 83
2, 354160, Note_on_c, 0, 58, 37
2, 354284, Note_off_c, 0, 58, 0
2, 354292, Note_on_c, 0, 52, 53
2, 354308, Note_off_c, 0, 70, 0
2, 354336, Note_on_c, 0, 71, 86
2, 354372, Note_off_c, 0, 52, 0
2, 354388, Note_on_c, 0, 64, 59
2, 354424, Note_off_c, 0, 64, 0
2, 354508, Note_off_c, 0, 71, 0
2, 354548, Note_on_c, 0, 73, 88
2, 354576, Control_c, 0, 64, 104
2, 354588, Note_on_c, 0, 49, 53
2, 354588, Control_c, 0, 64, 24
2, 354604, Control_c, 0, 64, 0
2, 354676, Control_c, 0, 64, 56
2, 354688, Note_off_c, 0, 49, 0
2, 354688, Control_c, 0, 64, 127
2, 354716, Note_on_c, 0, 52, 46
2, 354728, Note_off_c, 0, 73, 0
2, 354764, Note_on_c, 0, 76, 90
2, 354816, Note_on_c, 0, 61, 44
2, 354824, Note_off_c, 0, 52, 0
2, 354920, Note_off_c, 0, 61, 0
2, 354944, Note_off_c, 0, 76, 0
2, 354984, Note_on_c, 0, 58, 50
2, 354984, Note_on_c, 0, 82, 89
2, 355132, Note_off_c, 0, 58, 0
2, 355140, Note_on_c, 0, 52, 57
2, 355252, Note_off_c, 0, 52, 0
2, 355268, Note_on_c, 0, 64, 62
2, 355304, Note_off_c, 0, 64, 0
2, 355348, Note_off_c, 0, 82, 0
2, 355376, Note_on_c, 0, 80, 89
2, 355548, Note_off_c, 0, 80, 0
2, 355556, Note_on_c, 0, 50, 56
2, 355596, Note_on_c, 0, 77, 88
2, 355616, Control_c, 0, 64, 56
2, 355628, Control_c, 0, 64, 0
2, 355748, Note_off_c, 0, 50, 0
2, 355760, Control_c, 0, 64, 127
2, 355764, Note_on_c, 0, 59, 51
2, 355848, Note_off_c, 0, 59, 0
2, 355884, Note_on_c, 0, 68, 59
2, 355892, Note_off_c, 0, 77, 0
2, 356020, Note_on_c, 0, 65, 60
2, 356124, Note_off_c, 0, 65, 0
2, 356164, Note_on_c, 0, 59, 56
2, 356240, Note_off_c, 0, 59, 0
2, 356296, Note_off_c, 0, 68, 0
2, 356296, Note_on_c, 0, 71, 70
2, 356432, Note_on_c, 0, 51, 56
2, 356552, Note_on_c, 0, 78, 82
2, 356580, Control_c, 0, 64, 104
2, 356596, Control_c, 0, 64, 24
2, 356612, Control_c, 0, 64, 0
2, 356692, Note_off_c, 0, 51, 0
2, 356700, Note_on_c, 0, 54, 45
2, 356744, Control_c, 0, 64, 104
2, 356756, Control_c, 0, 64, 127
2, 356848, Note_off_c, 0, 54, 0
2, 356852, Note_on_c, 0, 66, 47
2, 356952, Note_off_c, 0, 78, 0
2, 356988, Note_off_c, 0, 66, 0
2, 357028, Note_on_c, 0, 76, 78
2, 357052, Note_on_c, 0, 59, 44
2, 357200, Note_off_c, 0, 59, 0
2, 357220, Note_on_c, 0, 54, 46
2, 357392, Note_on_c, 0, 66, 46
2, 357408, Note_off_c, 0, 54, 0
2, 357436, Note_off_c, 0, 66, 0
2, 357464, Note_off_c, 0, 76, 0
2, 357500, Note_on_c, 0, 75, 77
2, 357524, Note_off_c, 0, 71, 0
2, 357572, Note_off_c, 0, 75, 0
2, 357652, Note_on_c, 0, 75, 74
2, 357688, Note_on_c, 0, 51, 38
2, 357712, Control_c, 0, 64, 40
2, 357728, Control_c, 0, 64, 0
2, 357808, Control_c, 0, 64, 56
2, 357824, Control_c, 0, 64, 127
2, 357832, Note_off_c, 0, 51, 0
2, 357832, Note_on_c, 0, 58, 36
2, 357960, Note_off_c, 0, 58, 0
2, 357980, Note_on_c, 0, 67, 44
2, 358112, Note_off_c, 0, 67, 0
2, 358112, Note_on_c, 0, 61, 53
2, 358224, Note_off_c, 0, 61, 0
2, 358264, Note_on_c, 0, 58, 40
2, 358352, Note_on_c, 0, 73, 79
2, 358392, Note_off_c, 0, 75, 0
2, 358452, Note_off_c, 0, 58, 0
2, 358472, Note_on_c, 0, 67, 51
2, 358564, Note_off_c, 0, 67, 0
2, 358636, Note_on_c, 0, 71, 68
2, 358640, Note_off_c, 0, 73, 0
2, 358672, Note_on_c, 0, 56, 44
2, 358708, Control_c, 0, 64, 104
2, 358724, Control_c, 0, 64, 0
2, 358812, Note_on_c, 0, 68, 51
2, 358824, Control_c, 0, 64, 88
2, 358840, Control_c, 0, 64, 127
2, 358932, Note_off_c, 0, 68, 0
2, 358956, Note_on_c, 0, 63, 50
2, 358984, Note_off_c, 0, 63, 0
2, 358988, Note_off_c, 0, 56, 0
2, 359088, Note_off_c, 0, 71, 0
2, 359116, Note_on_c, 0, 73, 78
2, 359164, Note_on_c, 0, 49, 54
2, 359188, Control_c, 0, 64, 24
2, 359200, Control_c, 0, 64, 0
2, 359240, Note_off_c, 0, 49, 0
2, 359244, Control_c, 0, 64, 72
2, 359260, Control_c, 0, 64, 127
2, 359348, Note_on_c, 0, 65, 36
2, 359476, Note_off_c, 0, 65, 0
2, 359476, Note_on_c, 0, 59, 48
2, 359532, Note_off_c, 0, 73, 0
2, 359540, Note_on_c, 0, 68, 65
2, 359564, Note_off_c, 0, 59, 0
2, 359652, Note_off_c, 0, 68, 0
2, 359664, Note_on_c, 0, 71, 68
2, 359724, Note_on_c, 0, 54, 40
2, 359748, Control_c, 0, 64, 72
2, 359764, Control_c, 0, 64, 0
2, 359856, Note_on_c, 0, 64, 48
2, 359868, Control_c, 0, 64, 104
2, 359880, Control_c, 0, 64, 127
2, 359928, Note_on_c, 0, 70, 71
2, 359932, Note_off_c, 0, 71, 0
2, 359996, Note_on_c, 0, 61, 53
2, 360004, Note_off_c, 0, 64, 0
2, 360012, Note_off_c, 0, 70, 0
2, 360024, Note_off_c, 0, 61, 0
2, 360048, Note_off_c, 0, 54, 0
2, 360128, Note_on_c, 0, 70, 67
2, 360192, Note_off_c, 0, 70, 0
2, 360220, Note_on_c, 0, 68, 69
2, 360256, Control_c, 0, 64, 72
2, 360272, Control_c, 0, 64, 0
2, 360284, Note_on_c, 0, 42, 55
2, 360344, Note_off_c, 0, 42, 0
2, 360356, Control_c, 0, 64, 127
2, 360464, Note_on_c, 0, 64, 27
2, 360536, Note_off_c, 0, 64, 0
2, 360536, Note_on_c, 0, 66, 73
2, 360548, Note_off_c, 0, 68, 0
2, 360640, Note_on_c, 0, 58, 51
2, 360676, Note_off_c, 0, 66, 0
2, 360704, Note_off_c, 0, 58, 0
2, 360788, Note_on_c, 0, 66, 72
2, 360880, Control_c, 0, 64, 104
2, 360884, Note_on_c, 0, 47, 53
2, 360892, Control_c, 0, 64, 0
2, 360996, Note_off_c, 0, 47, 0
2, 361008, Control_c, 0, 64, 127
2, 361012, Note_on_c, 0, 54, 56
2, 361084, Note_off_c, 0, 54, 0
2, 361164, Note_on_c, 0, 63, 50
2, 361264, Note_off_c, 0, 63, 0
2, 361332, Note_on_c, 0, 75, 83
2, 361356, Note_on_c, 0, 59, 46
2, 361364, Note_off_c, 0, 66, 0
2, 361516, Note_on_c, 0, 54, 50
2, 361548, Note_off_c, 0, 75, 0
2, 361568, Note_off_c, 0, 59, 0
2, 361672, Note_on_c, 0, 66, 60
2, 361692, Note_off_c, 0, 54, 0
2, 361732, Note_off_c, 0, 66, 0
2, 361828, Note_on_c, 0, 75, 91
2, 361916, Note_off_c, 0, 75, 0
2, 361964, Note_on_c, 0, 75, 73
2, 362008, Note_on_c, 0, 52, 54
2, 362048, Control_c, 0, 64, 104
2, 362064, Control_c, 0, 64, 24
2, 362076, Control_c, 0, 64, 0
2, 362140, Note_on_c, 0, 58, 44
2, 362168, Note_off_c, 0, 52, 0
2, 362180, Control_c, 0, 64, 104
2, 362196, Control_c, 0, 64, 127
2, 362300, Note_off_c, 0, 58, 0
2, 362308, Note_on_c, 0, 67, 54
2, 362408, Note_off_c, 0, 67, 0
2, 362456, Note_on_c, 0, 61, 49
2, 362572, Note_off_c, 0, 61, 0
2, 362620, Note_on_c, 0, 58, 39
2, 362724, Note_on_c, 0, 73, 77
2, 362756, Note_off_c, 0, 75, 0
2, 362836, Note_on_c, 0, 67, 45
2, 362844, Note_off_c, 0, 58, 0
2, 362884, Note_off_c, 0, 67, 0
2, 362996, Note_on_c, 0, 51, 60
2, 363060, Control_c, 0, 64, 72
2, 363076, Control_c, 0, 64, 0
2, 363160, Note_off_c, 0, 51, 0
2, 363160, Control_c, 0, 64, 72
2, 363176, Control_c, 0, 64, 127
2, 363184, Note_on_c, 0, 70, 76
2, 363192, Note_on_c, 0, 54, 43
2, 363208, Note_off_c, 0, 73, 0
2, 363376, Note_off_c, 0, 70, 0
2, 363376, Note_on_c, 0, 71, 93
2, 363412, Note_on_c, 0, 66, 32
2, 363424, Note_off_c, 0, 54, 0
2, 363528, Note_off_c, 0, 66, 0
2, 363548, Note_on_c, 0, 73, 82
2, 363552, Note_on_c, 0, 59, 46
2, 363576, Note_off_c, 0, 71, 0
2, 363664, Note_off_c, 0, 59, 0
2, 363700, Note_off_c, 0, 73, 0
2, 363708, Note_on_c, 0, 76, 83
2, 363724, Note_on_c, 0, 54, 43
2, 363828, Note_off_c, 0, 76, 0
2, 363836, Note_off_c, 0, 54, 0
2, 363856, Note_on_c, 0, 66, 51
2, 363860, Note_on_c, 0, 75, 86
2, 363900, Note_off_c, 0, 66, 0
2, 363948, Note_off_c, 0, 75, 0
2, 364084, Note_on_c, 0, 66, 71
2, 364136, Note_on_c, 0, 46, 56
2, 364144, Control_c, 0, 64, 104
2, 364160, Control_c, 0, 64, 40
2, 364176, Control_c, 0, 64, 0
2, 364264, Note_off_c, 0, 46, 0
2, 364280, Note_on_c, 0, 54, 53
2, 364292, Control_c, 0, 64, 127
2, 364388, Note_off_c, 0, 54, 0
2, 364432, Note_on_c, 0, 64, 68
2, 364612, Note_on_c, 0, 70, 69
2, 364628, Note_on_c, 0, 61, 44
2, 364632, Note_off_c, 0, 66, 0
2, 364736, Control_c, 0, 64, 88
2, 364752, Control_c, 0, 64, 0
2, 364800, Note_on_c, 0, 68, 67
2, 364812, Control_c, 0, 64, 40
2, 364824, Note_off_c, 0, 64, 0
2, 364824, Note_off_c, 0, 70, 0
2, 364824, Control_c, 0, 64, 127
2, 364828, Note_on_c, 0, 54, 47
2, 364960, Note_off_c, 0, 61, 0
2, 365016, Note_on_c, 0, 64, 56
2, 365044, Note_off_c, 0, 54, 0
2, 365048, Note_off_c, 0, 64, 0
2, 365112, Note_off_c, 0, 68, 0
2, 365120, Note_on_c, 0, 66, 67
2, 365188, Note_off_c, 0, 66, 0
2, 365240, Note_on_c, 0, 66, 60
2, 365304, Control_c, 0, 64, 88
2, 365312, Note_on_c, 0, 47, 52
2, 365320, Control_c, 0, 64, 0
2, 365404, Control_c, 0, 64, 88
2, 365420, Control_c, 0, 64, 127
2, 365432, Note_off_c, 0, 47, 0
2, 365444, Note_on_c, 0, 54, 59
2, 365548, Note_off_c, 0, 54, 0
2, 365608, Note_on_c, 0, 68, 69
2, 365624, Note_off_c, 0, 66, 0
2, 365628, Note_on_c, 0, 63, 52
2, 365716, Note_off_c, 0, 68, 0
2, 365716, Note_on_c, 0, 70, 69
2, 365812, Note_off_c, 0, 70, 0
2, 365816, Note_on_c, 0, 68, 67
2, 365828, Note_on_c, 0, 59, 53
2, 365840, Note_off_c, 0, 63, 0
2, 365880, Control_c, 0, 64, 40
2, 365888, Note_on_c, 0, 70, 55
2, 365896, Note_off_c, 0, 68, 0
2, 365896, Control_c, 0, 64, 0
2, 365924, Control_c, 0, 64, 56
2, 365940, Control_c, 0, 64, 127
2, 365968, Note_off_c, 0, 70, 0
2, 365968, Note_on_c, 0, 68, 60
2, 365996, Note_off_c, 0, 59, 0
2, 366040, Note_off_c, 0, 68, 0
2, 366040, Note_on_c, 0, 70, 60
2, 366044, Note_on_c, 0, 53, 53
2, 366112, Note_off_c, 0, 70, 0
2, 366152, Note_on_c, 0, 70, 62
2, 366216, Note_on_c, 0, 68, 65
2, 366248, Note_off_c, 0, 70, 0
2, 366300, Note_on_c, 0, 63, 33
2, 366304, Note_on_c, 0, 66, 64
2, 366308, Note_off_c, 0, 68, 0
2, 366384, Note_off_c, 0, 53, 0
2, 366388, Note_off_c, 0, 63, 0
2, 366412, Note_off_c, 0, 66, 0
2, 366428, Note_on_c, 0, 68, 74
2, 366580, Note_off_c, 0, 68, 0
2, 366592, Note_on_c, 0, 70, 72
2, 366660, Note_on_c, 0, 46, 53
2, 366664, Control_c, 0, 64, 72
2, 366680, Control_c, 0, 64, 0
2, 366780, Control_c, 0, 64, 72
2, 366792, Control_c, 0, 64, 127
2, 366796, Note_off_c, 0, 46, 0
2, 366808, Note_on_c, 0, 54, 52
2, 366920, Note_off_c, 0, 54, 0
2, 366964, Note_on_c, 0, 63, 59
2, 367132, Note_off_c, 0, 63, 0
2, 367144, Note_on_c, 0, 69, 83
2, 367148, Note_off_c, 0, 70, 0
2, 367148, Note_on_c, 0, 58, 47
2, 367288, Note_off_c, 0, 58, 0
2, 367304, Note_on_c, 0, 54, 53
2, 367376, Note_off_c, 0, 54, 0
2, 367452, Note_on_c, 0, 46, 65
2, 367516, Note_off_c, 0, 46, 0
2, 367556, Note_on_c, 0, 70, 85
2, 367576, Note_off_c, 0, 69, 0
2, 367708, Note_off_c, 0, 70, 0
2, 367716, Note_on_c, 0, 71, 88
2, 367736, Note_on_c, 0, 44, 64
2, 367748, Control_c, 0, 64, 40
2, 367764, Control_c, 0, 64, 0
2, 367864, Control_c, 0, 64, 104
2, 367876, Note_off_c, 0, 44, 0
2, 367876, Control_c, 0, 64, 127
2, 367900, Note_on_c, 0, 53, 55
2, 367952, Note_on_c, 0, 74, 90
2, 367956, Note_off_c, 0, 71, 0
2, 368008, Note_off_c, 0, 53, 0
2, 368076, Note_on_c, 0, 60, 42
2, 368084, Note_on_c, 0, 59, 33
2, 368120, Note_off_c, 0, 59, 0
2, 368148, Note_off_c, 0, 60, 0
2, 368192, Note_off_c, 0, 74, 0
2, 368192, Note_on_c, 0, 75, 91
2, 368212, Note_on_c, 0, 56, 58
2, 368344, Note_off_c, 0, 56, 0
2, 368348, Note_on_c, 0, 53, 68
2, 368372, Note_off_c, 0, 53, 0
2, 368416, Note_off_c, 0, 75, 0
2, 368428, Note_on_c, 0, 77, 99
2, 368544, Note_on_c, 0, 44, 60
2, 368616, Note_off_c, 0, 44, 0
2, 368708, Note_on_c, 0, 78, 86
2, 368720, Note_off_c, 0, 77, 0
2, 368756, Note_on_c, 0, 42, 52
2, 368788, Control_c, 0, 64, 24
2, 368804, Control_c, 0, 64, 0
2, 368888, Control_c, 0, 64, 56
2, 368900, Note_off_c, 0, 42, 0
2, 368900, Note_on_c, 0, 51, 60
2, 368900, Control_c, 0, 64, 127
2, 368972, Note_on_c, 0, 83, 88
2, 369000, Note_off_c, 0, 78, 0
2, 369040, Note_off_c, 0, 51, 0
2, 369236, Note_off_c, 0, 83, 0
2, 369272, Note_on_c, 0, 82, 77
2, 369328, Note_on_c, 0, 63, 54
2, 369356, Note_off_c, 0, 63, 0
2, 369528, Note_off_c, 0, 82, 0
2, 369528, Note_on_c, 0, 78, 82
2, 369772, Note_on_c, 0, 75, 72
2, 369784, Note_off_c, 0, 78, 0
2, 369804, Note_on_c, 0, 44, 51
2, 369832, Control_c, 0, 64, 56
2, 369844, Control_c, 0, 64, 0
2, 369932, Control_c, 0, 64, 72
2, 369944, Control_c, 0, 64, 127
2, 369948, Note_on_c, 0, 51, 52
2, 369952, Note_off_c, 0, 44, 0
2, 370012, Note_off_c, 0, 75, 0
2, 370012, Note_on_c, 0, 71, 78
2, 370088, Note_off_c, 0, 51, 0
2, 370104, Note_on_c, 0, 53, 50
2, 370124, Note_off_c, 0, 71, 0
2, 370220, Note_off_c, 0, 53, 0
2, 370248, Note_on_c, 0, 59, 50
2, 370268, Note_on_c, 0, 63, 73
2, 370332, Note_off_c, 0, 59, 0
2, 370492, Note_off_c, 0, 63, 0
2, 370508, Note_on_c, 0, 68, 74
2, 370720, Note_off_c, 0, 68, 0
2, 370760, Note_on_c, 0, 66, 64
2, 370800, Note_on_c, 0, 46, 46
2, 370828, Control_c, 0, 64, 104
2, 370840, Control_c, 0, 64, 0
2, 370944, Control_c, 0, 64, 72
2, 370960, Control_c, 0, 64, 127
2, 370968, Note_on_c, 0, 51, 42
2, 371096, Note_off_c, 0, 51, 0
2, 371104, Note_on_c, 0, 58, 42
2, 371212, Note_off_c, 0, 66, 0
2, 371212, Note_on_c, 0, 71, 64
2, 371352, Note_off_c, 0, 58, 0
2, 371356, Note_off_c, 0, 71, 0
2, 371360, Note_on_c, 0, 70, 64
2, 371376, Note_on_c, 0, 54, 43
2, 371436, Control_c, 0, 64, 24
2, 371448, Control_c, 0, 64, 0
2, 371496, Note_off_c, 0, 54, 0
2, 371520, Control_c, 0, 64, 56
2, 371532, Note_on_c, 0, 51, 51
2, 371536, Control_c, 0, 64, 127
2, 371700, Note_on_c, 0, 58, 47
2, 371708, Note_off_c, 0, 46, 0
2, 371708, Note_off_c, 0, 51, 0
2, 371732, Note_off_c, 0, 58, 0
2, 371940, Control_c, 0, 64, 72
2, 371944, Note_on_c, 0, 34, 61
2, 371956, Control_c, 0, 64, 0
2, 372056, Control_c, 0, 64, 88
2, 372072, Control_c, 0, 64, 127
2, 372168, Note_on_c, 0, 46, 57
2, 372180, Note_off_c, 0, 34, 0
2, 372220, Note_off_c, 0, 46, 0
2, 372320, Note_off_c, 0, 70, 0
2, 372368, Note_on_c, 0, 60, 64
2, 372368, Note_on_c, 0, 53, 54
2, 372448, Note_off_c, 0, 60, 0
2, 372468, Note_on_c, 0, 62, 64
2, 372536, Note_off_c, 0, 62, 0
2, 372540, Note_on_c, 0, 63, 60
2, 372584, Note_off_c, 0, 53, 0
2, 372612, Note_off_c, 0, 63, 0
2, 372620, Note_on_c, 0, 62, 68
2, 372620, Note_on_c, 0, 56, 47
2, 372620, Note_on_c, 0, 59, 51
2, 372680, Note_off_c, 0, 62, 0
2, 372692, Note_on_c, 0, 63, 60
2, 372748, Note_off_c, 0, 63, 0
2, 372748, Note_on_c, 0, 62, 68
2, 372764, Note_off_c, 0, 59, 0
2, 372812, Note_on_c, 0, 63, 62
2, 372816, Note_off_c, 0, 62, 0
2, 372864, Note_off_c, 0, 56, 0
2, 372884, Note_off_c, 0, 63, 0
2, 372896, Note_on_c, 0, 62, 63
2, 372896, Note_on_c, 0, 58, 47
2, 372896, Note_on_c, 0, 54, 47
2, 372956, Note_off_c, 0, 62, 0
2, 372972, Note_on_c, 0, 63, 60
2, 373036, Note_off_c, 0, 63, 0
2, 373060, Note_on_c, 0, 62, 60
2, 373116, Note_off_c, 0, 54, 0
2, 373120, Note_on_c, 0, 63, 56
2, 373132, Note_off_c, 0, 62, 0
2, 373148, Note_off_c, 0, 58, 0
2, 373188, Note_on_c, 0, 62, 58
2, 373188, Note_on_c, 0, 56, 50
2, 373188, Note_on_c, 0, 53, 46
2, 373208, Note_off_c, 0, 63, 0
2, 373236, Note_off_c, 0, 62, 64
2, 373264, Note_off_c, 0, 53, 0
2, 373276, Note_off_c, 0, 56, 64
2, 373276, Note_on_c, 0, 63, 56
2, 373364, Note_off_c, 0, 63, 0
2, 373376, Note_on_c, 0, 62, 64
2, 373464, Note_off_c, 0, 62, 0
2, 373476, Note_on_c, 0, 60, 65
2, 373564, Note_off_c, 0, 60, 0
2, 373576, Note_on_c, 0, 62, 68
2, 373700, Note_off_c, 0, 62, 0
2, 373724, Note_on_c, 0, 63, 72
2, 373736, Note_on_c, 0, 39, 42
2, 373748, Control_c, 0, 64, 104
2, 373764, Control_c, 0, 64, 24
2, 373776, Control_c, 0, 64, 0
2, 373896, Note_off_c, 0, 39, 0
2, 373904, Note_on_c, 0, 46, 47
2, 373908, Control_c, 0, 64, 104
2, 373924, Control_c, 0, 64, 127
2, 374036, Note_off_c, 0, 46, 0
2, 374052, Note_on_c, 0, 54, 46
2, 374096, Note_off_c, 0, 54, 0
2, 374216, Note_off_c, 0, 63, 0
2, 374216, Note_on_c, 0, 51, 39
2, 374236, Note_on_c, 0, 75, 74
2, 374392, Note_on_c, 0, 58, 44
2, 374404, Note_off_c, 0, 51, 0
2, 374536, Note_on_c, 0, 63, 34
2, 374540, Note_off_c, 0, 58, 0
2, 374588, Note_off_c, 0, 63, 0
2, 374684, Note_on_c, 0, 66, 56
2, 374792, Note_off_c, 0, 66, 0
2, 374800, Note_on_c, 0, 63, 51
2, 374900, Note_off_c, 0, 63, 0
2, 374932, Note_on_c, 0, 58, 38
2, 375048, Note_off_c, 0, 58, 0
2, 375056, Note_on_c, 0, 54, 54
2, 375080, Note_off_c, 0, 75, 0
2, 375128, Note_off_c, 0, 54, 0
2, 375188, Note_on_c, 0, 68, 60
2, 375352, Note_on_c, 0, 75, 67
2, 375360, Note_off_c, 0, 68, 0
2, 375360, Note_on_c, 0, 63, 39
2, 375480, Note_off_c, 0, 63, 0
2, 375512, Note_on_c, 0, 58, 35
2, 375632, Note_off_c, 0, 58, 0
2, 375664, Note_on_c, 0, 54, 45
2, 375776, Note_off_c, 0, 54, 0
2, 375812, Note_on_c, 0, 66, 54
2, 375980, Note_off_c, 0, 66, 0
2, 376012, Note_off_c, 0, 75, 0
2, 376036, Note_on_c, 0, 76, 68
2, 376036, Note_on_c, 0, 64, 39
2, 376080, Control_c, 0, 64, 88
2, 376092, Control_c, 0, 64, 24
2, 376108, Control_c, 0, 64, 0
2, 376136, Note_off_c, 0, 64, 0
2, 376160, Note_on_c, 0, 61, 36
2, 376192, Control_c, 0, 64, 40
2, 376208, Control_c, 0, 64, 104
2, 376220, Control_c, 0, 64, 127
2, 376272, Note_off_c, 0, 76, 0
2, 376280, Note_off_c, 0, 61, 0
2, 376320, Note_on_c, 0, 73, 65
2, 376332, Note_on_c, 0, 54, 38
2, 376384, Note_off_c, 0, 54, 0
2, 376408, Note_off_c, 0, 73, 0
2, 376432, Note_on_c, 0, 68, 57
2, 376508, Note_off_c, 0, 68, 0
2, 376556, Note_on_c, 0, 68, 71
2, 376564, Note_on_c, 0, 64, 54
2, 376636, Note_off_c, 0, 64, 0
2, 376676, Note_on_c, 0, 61, 39
2, 376688, Note_off_c, 0, 68, 0
2, 376736, Note_off_c, 0, 61, 0
2, 376784, Note_on_c, 0, 70, 74
2, 376796, Note_on_c, 0, 54, 39
2, 376872, Note_off_c, 0, 54, 0
2, 376900, Note_on_c, 0, 66, 43
2, 376972, Note_off_c, 0, 70, 0
2, 377012, Note_on_c, 0, 71, 74
2, 377040, Note_off_c, 0, 66, 0
2, 377040, Note_on_c, 0, 63, 40
2, 377060, Control_c, 0, 64, 56
2, 377076, Control_c, 0, 64, 0
2, 377124, Note_off_c, 0, 63, 0
2, 377160, Note_on_c, 0, 59, 40
2, 377160, Control_c, 0, 64, 88
2, 377176, Control_c, 0, 64, 127
2, 377264, Note_off_c, 0, 59, 0
2, 377268, Note_on_c, 0, 54, 37
2, 377336, Note_off_c, 0, 54, 0
2, 377384, Note_on_c, 0, 68, 50
2, 377500, Note_on_c, 0, 73, 81
2, 377520, Note_off_c, 0, 68, 0
2, 377524, Note_off_c, 0, 71, 0
2, 377540, Note_on_c, 0, 64, 43
2, 377568, Control_c, 0, 64, 56
2, 377580, Control_c, 0, 64, 0
2, 377628, Note_off_c, 0, 64, 0
2, 377652, Control_c, 0, 64, 40
2, 377660, Note_on_c, 0, 58, 38
2, 377668, Control_c, 0, 64, 127
2, 377736, Note_off_c, 0, 58, 0
2, 377800, Note_on_c, 0, 54, 37
2, 377924, Note_on_c, 0, 66, 23
2, 377976, Note_off_c, 0, 73, 0
2, 377988, Note_on_c, 0, 75, 80
2, 378028, Control_c, 0, 64, 88
2, 378032, Note_on_c, 0, 63, 44
2, 378044, Control_c, 0, 64, 24
2, 378060, Control_c, 0, 64, 0
2, 378064, Note_off_c, 0, 66, 0
2, 378084, Note_off_c, 0, 54, 0
2, 378124, Note_off_c, 0, 63, 0
2, 378132, Control_c, 0, 64, 104
2, 378148, Control_c, 0, 64, 127
2, 378176, Note_on_c, 0, 59, 27
2, 378224, Note_off_c, 0, 59, 0
2, 378248, Note_on_c, 0, 54, 31
2, 378336, Note_on_c, 0, 66, 43
2, 378408, Note_off_c, 0, 54, 0
2, 378460, Note_off_c, 0, 66, 0
2, 378460, Note_on_c, 0, 63, 37
2, 378512, Note_on_c, 0, 80, 84
2, 378532, Control_c, 0, 64, 72
2, 378544, Note_off_c, 0, 75, 0
2, 378548, Control_c, 0, 64, 0
2, 378596, Note_off_c, 0, 63, 0
2, 378620, Note_on_c, 0, 60, 47
2, 378624, Control_c, 0, 64, 104
2, 378636, Control_c, 0, 64, 127
2, 378716, Note_off_c, 0, 60, 0
2, 378748, Note_on_c, 0, 54, 37
2, 378836, Note_off_c, 0, 54, 0
2, 378856, Note_off_c, 0, 80, 0
2, 378868, Note_on_c, 0, 66, 45
2, 378896, Note_on_c, 0, 78, 85
2, 379004, Note_off_c, 0, 78, 0
2, 379084, Note_off_c, 0, 66, 0
2, 379088, Note_on_c, 0, 64, 39
2, 379100, Note_on_c, 0, 80, 88
2, 379116, Control_c, 0, 64, 104
2, 379128, Control_c, 0, 64, 0
2, 379172, Note_off_c, 0, 64, 0
2, 379188, Control_c, 0, 64, 24
2, 379192, Note_on_c, 0, 61, 33
2, 379200, Control_c, 0, 64, 104
2, 379216, Control_c, 0, 64, 127
2, 379228, Note_off_c, 0, 80, 0
2, 379276, Note_on_c, 0, 78, 80
2, 379296, Note_off_c, 0, 61, 0
2, 379332, Note_on_c, 0, 54, 50
2, 379384, Note_off_c, 0, 78, 0
2, 379412, Note_off_c, 0, 54, 0
2, 379496, Note_on_c, 0, 68, 38
2, 379500, Note_on_c, 0, 76, 87
2, 379552, Note_off_c, 0, 76, 0
2, 379612, Note_off_c, 0, 68, 0
2, 379624, Note_on_c, 0, 76, 80
2, 379632, Note_on_c, 0, 64, 44
2, 379648, Control_c, 0, 64, 56
2, 379664, Control_c, 0, 64, 0
2, 379720, Control_c, 0, 64, 72
2, 379736, Control_c, 0, 64, 127
2, 379740, Note_off_c, 0, 64, 0
2, 379760, Note_on_c, 0, 58, 46
2, 379784, Note_off_c, 0, 76, 0
2, 379788, Note_on_c, 0, 75, 85
2, 379872, Note_off_c, 0, 58, 0
2, 379880, Note_off_c, 0, 75, 0
2, 379920, Note_on_c, 0, 54, 59
2, 380032, Note_on_c, 0, 74, 83
2, 380048, Note_off_c, 0, 54, 0
2, 380068, Note_on_c, 0, 66, 44
2, 380108, Note_off_c, 0, 74, 0
2, 380168, Note_on_c, 0, 75, 81
2, 380172, Control_c, 0, 64, 72
2, 380184, Control_c, 0, 64, 0
2, 380192, Note_on_c, 0, 63, 42
2, 380196, Note_off_c, 0, 66, 0
2, 380268, Note_off_c, 0, 63, 0
2, 380272, Control_c, 0, 64, 72
2, 380280, Note_on_c, 0, 59, 48
2, 380284, Control_c, 0, 64, 127
2, 380348, Note_off_c, 0, 75, 0
2, 380380, Note_off_c, 0, 59, 0
2, 380384, Note_on_c, 0, 71, 77
2, 380420, Note_on_c, 0, 54, 37
2, 380460, Note_off_c, 0, 71, 0
2, 380464, Note_off_c, 0, 54, 0
2, 380524, Note_on_c, 0, 68, 57
2, 380596, Note_off_c, 0, 68, 0
2, 380644, Note_on_c, 0, 68, 71
2, 380676, Note_on_c, 0, 64, 33
2, 380692, Control_c, 0, 64, 88
2, 380704, Control_c, 0, 64, 0
2, 380740, Note_off_c, 0, 64, 0
2, 380764, Note_on_c, 0, 61, 48
2, 380764, Control_c, 0, 64, 72
2, 380780, Control_c, 0, 64, 127
2, 380832, Note_off_c, 0, 68, 0
2, 380844, Note_off_c, 0, 61, 0
2, 380872, Note_on_c, 0, 70, 69
2, 380896, Note_on_c, 0, 54, 53
2, 381008, Note_on_c, 0, 66, 58
2, 381068, Note_off_c, 0, 70, 0
2, 381116, Note_on_c, 0, 71, 71
2, 381140, Control_c, 0, 64, 24
2, 381148, Note_off_c, 0, 66, 0
2, 381148, Note_on_c, 0, 63, 47
2, 381156, Control_c, 0, 64, 0
2, 381200, Note_off_c, 0, 54, 0
2, 381228, Note_off_c, 0, 63, 0
2, 381228, Control_c, 0, 64, 104
2, 381240, Control_c, 0, 64, 127
2, 381252, Note_on_c, 0, 59, 38
2, 381328, Note_off_c, 0, 71, 0
2, 381332, Note_on_c, 0, 72, 86
2, 381360, Note_on_c, 0, 54, 45
2, 381364, Note_off_c, 0, 59, 0
2, 381440, Note_off_c, 0, 54, 0
2, 381488, Note_on_c, 0, 68, 58
2, 381588, Control_c, 0, 64, 56
2, 381600, Control_c, 0, 64, 0
2, 381604, Note_off_c, 0, 68, 0
2, 381612, Note_on_c, 0, 64, 60
2, 381660, Control_c, 0, 64, 72
2, 381676, Control_c, 0, 64, 127
2, 381700, Note_on_c, 0, 73, 88
2, 381704, Note_off_c, 0, 72, 0
2, 381704, Note_off_c, 0, 64, 0
2, 381740, Note_on_c, 0, 58, 43
2, 381844, Note_off_c, 0, 58, 0
2, 381860, Note_on_c, 0, 54, 47
2, 381896, Note_off_c, 0, 73, 0
2, 381908, Note_on_c, 0, 74, 92
2, 381976, Note_on_c, 0, 66, 46
2, 382096, Note_on_c, 0, 75, 93
2, 382100, Note_off_c, 0, 66, 0
2, 382108, Note_on_c, 0, 63, 40
2, 382116, Note_off_c, 0, 74, 0
2, 382120, Control_c, 0, 64, 72
2, 382136, Control_c, 0, 64, 0
2, 382164, Note_off_c, 0, 54, 0
2, 382196, Note_off_c, 0, 63, 0
2, 382212, Note_on_c, 0, 59, 42
2, 382224, Control_c, 0, 64, 127
2, 382316, Note_off_c, 0, 75, 0
2, 382324, Note_on_c, 0, 76, 96
2, 382328, Note_off_c, 0, 59, 0
2, 382332, Note_on_c, 0, 54, 30
2, 382436, Note_on_c, 0, 66, 59
2, 382536, Note_off_c, 0, 76, 0
2, 382556, Note_on_c, 0, 77, 94
2, 382580, Note_on_c, 0, 62, 53
2, 382588, Control_c, 0, 64, 24
2, 382600, Control_c, 0, 64, 0
2, 382616, Note_off_c, 0, 66, 0
2, 382628, Note_off_c, 0, 54, 0
2, 382672, Note_off_c, 0, 62, 0
2, 382672, Control_c, 0, 64, 104
2, 382688, Control_c, 0, 64, 127
2, 382696, Note_on_c, 0, 59, 54
2, 382708, Note_off_c, 0, 77, 0
2, 382740, Note_on_c, 0, 82, 84
2, 382820, Note_off_c, 0, 59, 0
2, 382840, Note_on_c, 0, 54, 39
2, 382896, Note_off_c, 0, 82, 0
2, 382912, Note_on_c, 0, 80, 89
2, 382948, Note_on_c, 0, 66, 56
2, 383056, Note_off_c, 0, 80, 0
2, 383072, Note_on_c, 0, 78, 88
2, 383092, Note_on_c, 0, 61, 60
2, 383104, Control_c, 0, 64, 56
2, 383120, Note_off_c, 0, 66, 0
2, 383124, Control_c, 0, 64, 0
2, 383196, Control_c, 0, 64, 56
2, 383208, Note_off_c, 0, 61, 0
2, 383208, Control_c, 0, 64, 127
2, 383228, Note_on_c, 0, 59, 49
2, 383232, Note_off_c, 0, 54, 0
2, 383340, Note_off_c, 0, 59, 0
2, 383360, Note_on_c, 0, 54, 50
2, 383472, Note_on_c, 0, 66, 63
2, 383584, Control_c, 0, 64, 24
2, 383600, Control_c, 0, 64, 0
2, 383628, Note_on_c, 0, 61, 63
2, 383652, Note_off_c, 0, 66, 0
2, 383672, Control_c, 0, 64, 127
2, 383708, Note_off_c, 0, 54, 0
2, 383740, Note_off_c, 0, 61, 0
2, 383756, Note_on_c, 0, 58, 57
2, 383856, Note_off_c, 0, 58, 0
2, 383888, Note_on_c, 0, 52, 64
2, 383996, Note_off_c, 0, 52, 0
2, 384044, Note_on_c, 0, 66, 75
2, 384096, Note_off_c, 0, 66, 0
2, 384264, Note_off_c, 0, 78, 0
2, 384320, Note_on_c, 0, 83, 99
2, 384320, Note_on_c, 0, 78, 72
2, 384324, Note_on_c, 0, 71, 75
2, 384364, Control_c, 0, 64, 88
2, 384372, Note_on_c, 0, 51, 65
2, 384380, Control_c, 0, 64, 24
2, 384392, Control_c, 0, 64, 0
2, 384504, Note_off_c, 0, 51, 0
2, 384508, Control_c, 0, 64, 104
2, 384520, Note_on_c, 0, 54, 49
2, 384524, Control_c, 0, 64, 127
2, 384608, Note_off_c, 0, 54, 0
2, 384636, Note_off_c, 0, 83, 0
2, 384648, Note_on_c, 0, 59, 54
2, 384668, Note_off_c, 0, 71, 0
2, 384748, Note_on_c, 0, 54, 49
2, 384788, Note_off_c, 0, 59, 0
2, 384880, Note_off_c, 0, 78, 0
2, 384908, Note_on_c, 0, 82, 84
2, 384924, Note_on_c, 0, 70, 72
2, 384928, Note_on_c, 0, 66, 54
2, 384992, Note_off_c, 0, 66, 0
2, 385008, Note_off_c, 0, 54, 0
2, 385176, Note_off_c, 0, 70, 0
2, 385188, Note_off_c, 0, 82, 0
2, 385304, Note_on_c, 0, 80, 84
2, 385304, Note_on_c, 0, 68, 73
2, 385364, Note_off_c, 0, 68, 0
2, 385412, Note_off_c, 0, 80, 0
2, 385472, Note_on_c, 0, 82, 86
2, 385476, Note_on_c, 0, 78, 69
2, 385484, Note_on_c, 0, 70, 59
2, 385500, Note_on_c, 0, 76, 49
2, 385528, Note_on_c, 0, 49, 43
2, 385536, Note_off_c, 0, 76, 0
2, 385536, Control_c, 0, 64, 104
2, 385552, Control_c, 0, 64, 0
2, 385640, Control_c, 0, 64, 56
2, 385648, Note_off_c, 0, 49, 0
2, 385652, Note_off_c, 0, 82, 0
2, 385652, Control_c, 0, 64, 127
2, 385664, Note_on_c, 0, 54, 46
2, 385680, Note_off_c, 0, 70, 0
2, 385716, Note_off_c, 0, 78, 0
2, 385780, Note_on_c, 0, 80, 87
2, 385780, Note_on_c, 0, 68, 74
2, 385804, Note_on_c, 0, 64, 53
2, 385840, Note_off_c, 0, 68, 0
2, 385844, Note_off_c, 0, 64, 0
2, 385852, Note_off_c, 0, 80, 0
2, 385944, Note_on_c, 0, 58, 49
2, 385964, Note_on_c, 0, 80, 85
2, 385968, Note_on_c, 0, 68, 69
2, 386016, Note_off_c, 0, 68, 0
2, 386020, Note_off_c, 0, 80, 0
2, 386064, Note_on_c, 0, 78, 86
2, 386064, Note_on_c, 0, 66, 73
2, 386072, Note_on_c, 0, 64, 50
2, 386128, Control_c, 0, 64, 72
2, 386144, Control_c, 0, 64, 0
2, 386172, Control_c, 0, 64, 40
2, 386180, Note_off_c, 0, 64, 0
2, 386188, Control_c, 0, 64, 88
2, 386200, Control_c, 0, 64, 127
2, 386212, Note_off_c, 0, 66, 0
2, 386220, Note_off_c, 0, 78, 0
2, 386236, Note_off_c, 0, 58, 0
2, 386248, Note_off_c, 0, 54, 0
2, 386332, Note_on_c, 0, 77, 92
2, 386340, Note_on_c, 0, 65, 72
2, 386400, Note_off_c, 0, 65, 0
2, 386424, Note_off_c, 0, 77, 0
2, 386556, Note_on_c, 0, 47, 56
2, 386636, Control_c, 0, 64, 72
2, 386644, Note_on_c, 0, 80, 85
2, 386652, Control_c, 0, 64, 0
2, 386656, Note_on_c, 0, 68, 53
2, 386656, Note_on_c, 0, 75, 63
2, 386672, Note_on_c, 0, 71, 60
2, 386752, Control_c, 0, 64, 40
2, 386764, Control_c, 0, 64, 127
2, 386768, Note_off_c, 0, 47, 0
2, 386784, Note_on_c, 0, 54, 54
2, 386852, Note_off_c, 0, 80, 0
2, 386876, Note_off_c, 0, 54, 0
2, 386884, Note_off_c, 0, 68, 0
2, 386936, Note_on_c, 0, 63, 42
2, 386980, Note_off_c, 0, 75, 0
2, 386988, Note_off_c, 0, 71, 0
2, 387032, Note_off_c, 0, 63, 0
2, 387048, Note_on_c, 0, 78, 83
2, 387060, Note_on_c, 0, 66, 65
2, 387080, Note_on_c, 0, 59, 48
2, 387128, Note_off_c, 0, 66, 0
2, 387148, Note_on_c, 0, 54, 56
2, 387164, Note_off_c, 0, 78, 0
2, 387264, Note_on_c, 0, 66, 42
2, 387272, Note_off_c, 0, 54, 0
2, 387284, Note_off_c, 0, 59, 0
2, 387288, Note_on_c, 0, 78, 85
2, 387372, Note_off_c, 0, 78, 0
2, 387376, Note_off_c, 0, 66, 0
2, 387508, Note_on_c, 0, 76, 86
2, 387516, Note_on_c, 0, 64, 73
2, 387568, Note_off_c, 0, 76, 0
2, 387568, Note_off_c, 0, 64, 0
2, 387644, Note_on_c, 0, 75, 88
2, 387656, Note_on_c, 0, 63, 75
2, 387704, Note_off_c, 0, 63, 0
2, 387716, Note_off_c, 0, 75, 0
2, 387808, Note_on_c, 0, 75, 80
2, 387816, Note_on_c, 0, 63, 60
2, 387824, Note_on_c, 0, 70, 52
2, 387836, Note_on_c, 0, 67, 48
2, 387840, Note_on_c, 0, 52, 58
2, 387864, Control_c, 0, 64, 40
2, 387872, Note_off_c, 0, 67, 0
2, 387880, Control_c, 0, 64, 0
2, 387948, Note_off_c, 0, 52, 0
2, 387960, Note_on_c, 0, 55, 54
2, 387980, Control_c, 0, 64, 72
2, 387996, Control_c, 0, 64, 127
2, 388032, Note_on_c, 0, 67, 1
2, 388036, Note_off_c, 0, 55, 0
2, 388072, Note_off_c, 0, 63, 0
2, 388072, Note_on_c, 0, 58, 51
2, 388128, Note_off_c, 0, 75, 0
2, 388148, Note_off_c, 0, 58, 0
2, 388168, Note_off_c, 0, 67, 0
2, 388188, Note_off_c, 0, 70, 0
2, 388228, Note_on_c, 0, 55, 45
2, 388236, Note_on_c, 0, 73, 82
2, 388236, Note_on_c, 0, 61, 67
2, 388264, Note_on_c, 0, 58, 4
2, 388288, Note_off_c, 0, 61, 0
2, 388336, Note_off_c, 0, 73, 0
2, 388396, Note_on_c, 0, 75, 85
2, 388396, Note_on_c, 0, 63, 57
2, 388400, Note_on_c, 0, 70, 61
2, 388472, Control_c, 0, 64, 72
2, 388488, Control_c, 0, 64, 0
2, 388500, Note_on_c, 0, 67, 2
2, 388560, Control_c, 0, 64, 88
2, 388576, Note_off_c, 0, 67, 0
2, 388576, Control_c, 0, 64, 127
2, 388608, Note_off_c, 0, 55, 0
2, 388620, Note_off_c, 0, 63, 0
2, 388640, Note_off_c, 0, 58, 0
2, 388664, Note_off_c, 0, 75, 0
2, 388688, Note_off_c, 0, 70, 0
2, 388772, Note_on_c, 0, 64, 66
2, 388776, Note_on_c, 0, 76, 87
2, 388808, Note_off_c, 0, 64, 0
2, 388864, Note_off_c, 0, 76, 0
2, 388964, Control_c, 0, 64, 104
2, 388972, Note_on_c, 0, 71, 90
2, 388980, Control_c, 0, 64, 0
2, 388996, Note_on_c, 0, 39, 60
2, 389020, Note_off_c, 0, 71, 0
2, 389036, Control_c, 0, 64, 88
2, 389048, Control_c, 0, 64, 127
2, 389064, Note_on_c, 0, 71, 85
2, 389116, Note_on_c, 0, 83, 81
2, 389116, Note_on_c, 0, 47, 59
2, 389116, Note_on_c, 0, 78, 58
2, 389140, Note_off_c, 0, 39, 0
2, 389152, Control_c, 0, 64, 24
2, 389164, Note_off_c, 0, 47, 0
2, 389164, Control_c, 0, 64, 72
2, 389168, Control_c, 0, 64, 127
2, 389184, Note_off_c, 0, 78, 0
2, 389192, Note_off_c, 0, 83, 0
2, 389228, Note_off_c, 0, 71, 0
2, 389264, Note_on_c, 0, 54, 60
2, 389352, Note_off_c, 0, 54, 0
2, 389412, Note_on_c, 0, 82, 80
2, 389412, Note_on_c, 0, 70, 69
2, 389412, Note_on_c, 0, 51, 60
2, 389464, Note_off_c, 0, 70, 0
2, 389500, Note_off_c, 0, 82, 0
2, 389500, Note_off_c, 0, 51, 0
2, 389544, Control_c, 0, 64, 88
2, 389556, Note_on_c, 0, 82, 71
2, 389556, Note_on_c, 0, 66, 55
2, 389556, Note_on_c, 0, 70, 67
2, 389560, Control_c, 0, 64, 24
2, 389572, Control_c, 0, 64, 0
2, 389580, Note_on_c, 0, 59, 57
2, 389580, Note_on_c, 0, 54, 58
2, 389624, Control_c, 0, 64, 40
2, 389628, Note_off_c, 0, 82, 0
2, 389636, Control_c, 0, 64, 104
2, 389652, Control_c, 0, 64, 127
2, 389660, Note_off_c, 0, 70, 0
2, 389672, Note_on_c, 0, 71, 58
2, 389676, Note_on_c, 0, 75, 69
2, 389700, Note_off_c, 0, 71, 0
2, 389752, Note_on_c, 0, 80, 89
2, 389756, Note_on_c, 0, 68, 69
2, 389760, Note_off_c, 0, 75, 0
2, 389784, Note_off_c, 0, 66, 0
2, 389808, Note_off_c, 0, 68, 0
2, 389816, Note_off_c, 0, 59, 0
2, 389828, Note_off_c, 0, 80, 0
2, 389844, Note_off_c, 0, 54, 0
2, 390016, Note_on_c, 0, 78, 84
2, 390020, Note_on_c, 0, 66, 67
2, 390064, Note_off_c, 0, 66, 0
2, 390108, Note_off_c, 0, 78, 0
2, 390172, Note_on_c, 0, 70, 83
2, 390184, Control_c, 0, 64, 56
2, 390192, Note_on_c, 0, 37, 50
2, 390196, Control_c, 0, 64, 0
2, 390264, Control_c, 0, 64, 24
2, 390276, Control_c, 0, 64, 104
2, 390288, Control_c, 0, 64, 127
2, 390312, Note_on_c, 0, 82, 83
2, 390316, Note_on_c, 0, 49, 54
2, 390320, Note_on_c, 0, 78, 60
2, 390324, Note_off_c, 0, 37, 0
2, 390336, Note_on_c, 0, 76, 49
2, 390360, Note_off_c, 0, 76, 0
2, 390364, Note_off_c, 0, 49, 0
2, 390372, Note_off_c, 0, 70, 0
2, 390372, Note_off_c, 0, 78, 0
2, 390388, Note_off_c, 0, 82, 0
2, 390452, Note_on_c, 0, 54, 67
2, 390524, Note_off_c, 0, 54, 0
2, 390576, Note_on_c, 0, 80, 85
2, 390576, Note_on_c, 0, 68, 73
2, 390592, Note_on_c, 0, 49, 61
2, 390632, Note_off_c, 0, 68, 0
2, 390648, Note_off_c, 0, 80, 0
2, 390656, Note_off_c, 0, 49, 0
2, 390712, Note_on_c, 0, 80, 81
2, 390712, Note_on_c, 0, 68, 69
2, 390712, Note_on_c, 0, 64, 55
2, 390712, Note_on_c, 0, 58, 50
2, 390712, Note_on_c, 0, 54, 56
2, 390792, Note_off_c, 0, 80, 0
2, 390796, Note_off_c, 0, 68, 0
2, 390804, Note_on_c, 0, 70, 40
2, 390816, Note_on_c, 0, 76, 66
2, 390868, Note_off_c, 0, 70, 0
2, 390888, Note_on_c, 0, 78, 85
2, 390888, Note_on_c, 0, 66, 55
2, 390908, Note_off_c, 0, 76, 0
2, 390920, Note_off_c, 0, 64, 0
2, 390968, Note_off_c, 0, 58, 0
2, 390984, Note_off_c, 0, 54, 0
2, 391028, Note_off_c, 0, 78, 0
2, 391036, Note_off_c, 0, 66, 0
2, 391160, Note_on_c, 0, 77, 86
2, 391172, Note_on_c, 0, 65, 60
2, 391196, Note_off_c, 0, 65, 0
2, 391228, Note_off_c, 0, 77, 0
2, 391344, Note_on_c, 0, 80, 88
2, 391348, Control_c, 0, 64, 88
2, 391352, Note_on_c, 0, 68, 73
2, 391360, Note_on_c, 0, 35, 51
2, 391360, Control_c, 0, 64, 0
2, 391428, Note_off_c, 0, 35, 0
2, 391452, Control_c, 0, 64, 72
2, 391464, Control_c, 0, 64, 127
2, 391484, Note_on_c, 0, 42, 48
2, 391496, Note_on_c, 0, 75, 62
2, 391512, Note_off_c, 0, 80, 0
2, 391512, Note_on_c, 0, 71, 49
2, 391556, Note_off_c, 0, 68, 0
2, 391564, Note_off_c, 0, 42, 0
2, 391628, Note_on_c, 0, 54, 60
2, 391664, Note_off_c, 0, 54, 0
2, 391712, Note_off_c, 0, 71, 0
2, 391736, Note_off_c, 0, 75, 0
2, 391752, Note_on_c, 0, 51, 62
2, 391764, Note_on_c, 0, 78, 77
2, 391772, Note_on_c, 0, 66, 67
2, 391828, Note_off_c, 0, 66, 0
2, 391840, Note_off_c, 0, 51, 0
2, 391856, Note_off_c, 0, 78, 0
2, 391908, Note_on_c, 0, 78, 75
2, 391920, Note_on_c, 0, 66, 64
2, 391932, Note_on_c, 0, 63, 53
2, 391936, Note_on_c, 0, 59, 49
2, 391952, Note_on_c, 0, 54, 58
2, 391992, Note_off_c, 0, 66, 0
2, 392004, Note_off_c, 0, 78, 0
2, 392012, Note_on_c, 0, 71, 64
2, 392048, Note_off_c, 0, 71, 0
2, 392096, Note_on_c, 0, 76, 90
2, 392108, Note_on_c, 0, 64, 67
2, 392164, Note_off_c, 0, 64, 0
2, 392172, Note_off_c, 0, 76, 0
2, 392224, Note_off_c, 0, 63, 0
2, 392240, Note_off_c, 0, 59, 0
2, 392276, Note_off_c, 0, 54, 0
2, 392416, Note_on_c, 0, 75, 75
2, 392424, Note_on_c, 0, 63, 67
2, 392472, Note_off_c, 0, 63, 0
2, 392500, Note_off_c, 0, 75, 0
2, 392576, Note_on_c, 0, 75, 81
2, 392588, Note_on_c, 0, 63, 64
2, 392600, Note_on_c, 0, 40, 55
2, 392600, Control_c, 0, 64, 88
2, 392612, Control_c, 0, 64, 24
2, 392624, Control_c, 0, 64, 0
2, 392704, Control_c, 0, 64, 40
2, 392716, Note_off_c, 0, 63, 0
2, 392716, Control_c, 0, 64, 104
2, 392728, Control_c, 0, 64, 127
2, 392736, Note_on_c, 0, 70, 53
2, 392736, Note_on_c, 0, 46, 48
2, 392756, Note_on_c, 0, 67, 42
2, 392768, Note_off_c, 0, 40, 0
2, 392864, Note_on_c, 0, 49, 70
2, 392876, Note_off_c, 0, 46, 0
2, 392908, Note_off_c, 0, 75, 0
2, 392944, Note_off_c, 0, 67, 0
2, 392972, Note_off_c, 0, 70, 0
2, 392996, Note_on_c, 0, 73, 77
2, 393000, Note_on_c, 0, 61, 74
2, 393004, Note_on_c, 0, 52, 59
2, 393012, Note_off_c, 0, 49, 0
2, 393032, Note_off_c, 0, 52, 0
2, 393052, Note_off_c, 0, 61, 0
2, 393120, Note_off_c, 0, 73, 0
2, 393152, Note_on_c, 0, 55, 52
2, 393172, Note_on_c, 0, 75, 81
2, 393172, Note_on_c, 0, 63, 70
2, 393248, Note_off_c, 0, 63, 0
2, 393276, Note_off_c, 0, 75, 0
2, 393296, Note_on_c, 0, 70, 64
2, 393300, Note_on_c, 0, 58, 47
2, 393316, Note_on_c, 0, 67, 37
2, 393344, Note_off_c, 0, 55, 0
2, 393352, Note_off_c, 0, 67, 0
2, 393452, Note_on_c, 0, 61, 53
2, 393456, Note_off_c, 0, 70, 0
2, 393560, Note_off_c, 0, 61, 0
2, 393564, Note_off_c, 0, 58, 0
2, 393588, Note_on_c, 0, 67, 70
2, 393600, Note_on_c, 0, 76, 84
2, 393604, Note_on_c, 0, 64, 70
2, 393636, Note_off_c, 0, 67, 0
2, 393636, Note_off_c, 0, 64, 0
2, 393648, Note_off_c, 0, 76, 0
2, 393824, Note_on_c, 0, 78, 79
2, 393824, Note_on_c, 0, 66, 58
2, 393844, Note_on_c, 0, 69, 62
2, 393852, Note_on_c, 0, 72, 58
2, 393852, Note_on_c, 0, 51, 50
2, 393856, Note_on_c, 0, 60, 56
2, 393856, Note_on_c, 0, 57, 47
2, 393868, Control_c, 0, 64, 104
2, 393880, Control_c, 0, 64, 40
2, 393892, Control_c, 0, 64, 0
2, 394072, Control_c, 0, 64, 127
2, 394112, Note_off_c, 0, 78, 0
2, 394120, Note_off_c, 0, 60, 0
2, 394124, Note_off_c, 0, 57, 0
2, 394128, Note_off_c, 0, 69, 0
2, 394132, Note_off_c, 0, 51, 0
2, 394136, Note_off_c, 0, 72, 0
2, 394144, Note_off_c, 0, 66, 0
2, 394604, Note_on_c, 0, 72, 78
2, 394612, Note_on_c, 0, 60, 68
2, 394616, Note_on_c, 0, 66, 45
2, 394616, Note_on_c, 0, 51, 55
2, 394624, Note_on_c, 0, 69, 63
2, 394708, Control_c, 0, 64, 72
2, 394724, Control_c, 0, 64, 0
2, 394852, Note_off_c, 0, 51, 0
2, 394864, Control_c, 0, 64, 72
2, 394876, Note_on_c, 0, 50, 56
2, 394876, Control_c, 0, 64, 127
2, 394964, Note_off_c, 0, 50, 0
2, 394984, Note_on_c, 0, 51, 57
2, 395116, Note_off_c, 0, 51, 0
2, 395136, Note_on_c, 0, 54, 59
2, 395156, Note_off_c, 0, 60, 0
2, 395200, Note_off_c, 0, 69, 0
2, 395256, Note_off_c, 0, 72, 0
2, 395272, Note_on_c, 0, 52, 57
2, 395276, Note_off_c, 0, 54, 0
2, 395288, Note_off_c, 0, 66, 0
2, 395428, Note_off_c, 0, 52, 0
2, 395436, Note_on_c, 0, 73, 69
2, 395440, Note_on_c, 0, 61, 54
2, 395456, Note_on_c, 0, 69, 54
2, 395456, Note_on_c, 0, 66, 39
2, 395476, Note_on_c, 0, 48, 55
2, 395528, Control_c, 0, 64, 104
2, 395540, Control_c, 0, 64, 72
2, 395552, Control_c, 0, 64, 24
2, 395556, Note_off_c, 0, 48, 0
2, 395568, Control_c, 0, 64, 0
2, 395584, Note_on_c, 0, 49, 56
2, 395696, Control_c, 0, 64, 88
2, 395708, Control_c, 0, 64, 127
2, 395752, Note_on_c, 0, 52, 59
2, 395788, Note_off_c, 0, 49, 0
2, 395920, Note_on_c, 0, 51, 57
2, 395924, Note_off_c, 0, 52, 0
2, 395960, Note_off_c, 0, 51, 0
2, 395972, Note_off_c, 0, 61, 0
2, 395976, Note_off_c, 0, 69, 0
2, 395992, Note_off_c, 0, 73, 0
2, 396056, Note_off_c, 0, 66, 0
2, 396208, Note_on_c, 0, 75, 73
2, 396216, Note_on_c, 0, 63, 45
2, 396224, Note_on_c, 0, 68, 47
2, 396228, Note_on_c, 0, 66, 38
2, 396244, Note_on_c, 0, 48, 52
2, 396248, Note_on_c, 0, 36, 54
2, 396268, Control_c, 0, 64, 104
2, 396284, Control_c, 0, 64, 0
2, 396356, Note_off_c, 0, 75, 0
2, 396360, Control_c, 0, 64, 40
2, 396372, Note_off_c, 0, 63, 0
2, 396372, Control_c, 0, 64, 127
2, 396384, Note_off_c, 0, 68, 0
2, 396392, Note_off_c, 0, 48, 0
2, 396396, Note_off_c, 0, 36, 0
2, 396396, Note_off_c, 0, 66, 0
2, 396488, Note_on_c, 0, 56, 57
2, 396564, Note_off_c, 0, 56, 0
2, 396592, Note_on_c, 0, 68, 65
2, 396640, Note_off_c, 0, 68, 0
2, 396732, Note_on_c, 0, 68, 74
2, 396784, Note_off_c, 0, 68, 0
2, 396908, Note_on_c, 0, 82, 85
2, 396924, Note_on_c, 0, 63, 38
2, 396924, Note_on_c, 0, 66, 37
2, 396928, Note_on_c, 0, 56, 38
2, 397028, Note_off_c, 0, 82, 0
2, 397052, Note_on_c, 0, 80, 67
2, 397088, Note_off_c, 0, 66, 0
2, 397092, Note_off_c, 0, 63, 0
2, 397116, Note_off_c, 0, 56, 0
2, 397136, Note_off_c, 0, 80, 0
2, 397188, Note_on_c, 0, 87, 88
2, 397204, Note_on_c, 0, 79, 77
2, 397240, Note_off_c, 0, 79, 0
2, 397332, Note_off_c, 0, 87, 0
2, 397360, Note_on_c, 0, 78, 30
2, 397384, Note_off_c, 0, 78, 0
2, 397496, Note_on_c, 0, 87, 89
2, 397508, Note_on_c, 0, 77, 67
2, 397516, Note_on_c, 0, 49, 37
2, 397516, Note_on_c, 0, 37, 38
2, 397544, Note_off_c, 0, 77, 0
2, 397548, Control_c, 0, 64, 72
2, 397560, Control_c, 0, 64, 0
2, 397608, Note_on_c, 0, 77, 22
2, 397636, Note_on_c, 0, 78, 67
2, 397648, Control_c, 0, 64, 127
2, 397676, Note_off_c, 0, 87, 0
2, 397676, Note_off_c, 0, 77, 0
2, 397720, Note_off_c, 0, 37, 0
2, 397756, Note_off_c, 0, 49, 0
2, 397764, Note_off_c, 0, 78, 0
2, 397772, Note_on_c, 0, 85, 77
2, 397780, Note_on_c, 0, 80, 68
2, 397828, Note_off_c, 0, 80, 0
2, 397840, Note_off_c, 0, 85, 0
2, 397896, Note_on_c, 0, 71, 49
2, 397956, Note_off_c, 0, 71, 0
2, 398036, Note_on_c, 0, 77, 82
2, 398068, Note_on_c, 0, 59, 41
2, 398080, Note_on_c, 0, 65, 43
2, 398080, Note_on_c, 0, 61, 33
2, 398172, Note_off_c, 0, 77, 0
2, 398176, Note_on_c, 0, 75, 61
2, 398188, Note_off_c, 0, 65, 0
2, 398232, Note_off_c, 0, 61, 0
2, 398236, Note_off_c, 0, 59, 0
2, 398276, Note_off_c, 0, 75, 0
2, 398316, Note_on_c, 0, 80, 79
2, 398332, Note_on_c, 0, 73, 60
2, 398424, Note_off_c, 0, 73, 0
2, 398460, Note_off_c, 0, 80, 0
2, 398476, Note_on_c, 0, 71, 55
2, 398512, Note_off_c, 0, 71, 0
2, 398616, Note_on_c, 0, 80, 79
2, 398628, Control_c, 0, 64, 104
2, 398636, Note_on_c, 0, 69, 68
2, 398636, Note_on_c, 0, 42, 34
2, 398640, Note_on_c, 0, 30, 38
2, 398644, Control_c, 0, 64, 40
2, 398656, Control_c, 0, 64, 0
2, 398720, Control_c, 0, 64, 72
2, 398732, Control_c, 0, 64, 127
2, 398760, Note_on_c, 0, 70, 69
2, 398768, Note_off_c, 0, 69, 0
2, 398796, Note_off_c, 0, 30, 0
2, 398804, Note_off_c, 0, 80, 0
2, 398816, Note_off_c, 0, 42, 0
2, 398844, Note_off_c, 0, 70, 0
2, 398904, Note_on_c, 0, 78, 73
2, 398912, Note_on_c, 0, 64, 63
2, 398976, Note_off_c, 0, 64, 0
2, 399020, Note_off_c, 0, 78, 0
2, 399044, Note_on_c, 0, 70, 69
2, 399100, Note_off_c, 0, 70, 0
2, 399192, Note_on_c, 0, 80, 82
2, 399216, Note_on_c, 0, 64, 47
2, 399216, Note_on_c, 0, 54, 35
2, 399224, Note_on_c, 0, 58, 34
2, 399308, Note_off_c, 0, 80, 0
2, 399320, Note_off_c, 0, 64, 0
2, 399320, Note_on_c, 0, 78, 73
2, 399356, Note_off_c, 0, 58, 0
2, 399360, Note_off_c, 0, 54, 0
2, 399432, Note_off_c, 0, 78, 0
2, 399460, Note_on_c, 0, 85, 85
2, 399480, Note_on_c, 0, 77, 76
2, 399564, Note_off_c, 0, 77, 0
2, 399604, Note_on_c, 0, 76, 68
2, 399612, Note_off_c, 0, 85, 0
2, 399672, Note_off_c, 0, 76, 0
2, 399744, Note_on_c, 0, 85, 84
2, 399752, Note_on_c, 0, 75, 74
2, 399768, Control_c, 0, 64, 72
2, 399772, Note_on_c, 0, 47, 51
2, 399780, Control_c, 0, 64, 0
2, 399784, Note_on_c, 0, 35, 37
2, 399856, Control_c, 0, 64, 56
2, 399872, Control_c, 0, 64, 127
2, 399876, Note_on_c, 0, 76, 72
2, 399880, Note_off_c, 0, 75, 0
2, 399892, Note_off_c, 0, 85, 0
2, 399928, Note_off_c, 0, 35, 0
2, 399984, Note_off_c, 0, 76, 0
2, 399988, Note_off_c, 0, 47, 0
2, 400020, Note_on_c, 0, 83, 71
2, 400028, Note_on_c, 0, 78, 55
2, 400072, Note_off_c, 0, 83, 0
2, 400092, Note_off_c, 0, 78, 0
2, 400164, Note_on_c, 0, 69, 42
2, 400212, Note_off_c, 0, 69, 0
2, 400312, Note_on_c, 0, 75, 77
2, 400336, Note_on_c, 0, 54, 34
2, 400340, Note_on_c, 0, 59, 39
2, 400344, Note_on_c, 0, 63, 27
2, 400456, Note_off_c, 0, 75, 0
2, 400456, Note_on_c, 0, 73, 65
2, 400552, Note_off_c, 0, 73, 0
2, 400600, Note_on_c, 0, 75, 75
2, 400616, Note_on_c, 0, 71, 62
2, 400628, Note_off_c, 0, 63, 0
2, 400636, Note_off_c, 0, 59, 0
2, 400676, Note_off_c, 0, 54, 0
2, 400696, Note_off_c, 0, 71, 0
2, 400744, Note_off_c, 0, 75, 0
2, 400756, Note_on_c, 0, 69, 68
2, 400812, Note_off_c, 0, 69, 0
2, 400936, Note_on_c, 0, 75, 76
2, 400940, Note_on_c, 0, 67, 62
2, 400968, Control_c, 0, 64, 72
2, 400976, Note_on_c, 0, 40, 53
2, 400980, Control_c, 0, 64, 0
2, 401032, Note_off_c, 0, 67, 0
2, 401056, Control_c, 0, 64, 88
2, 401072, Control_c, 0, 64, 127
2, 401084, Note_on_c, 0, 68, 56
2, 401196, Note_off_c, 0, 68, 0
2, 401228, Note_on_c, 0, 61, 68
2, 401236, Note_on_c, 0, 52, 52
2, 401264, Note_off_c, 0, 40, 0
2, 401308, Note_off_c, 0, 52, 0
2, 401320, Note_off_c, 0, 75, 0
2, 401348, Note_off_c, 0, 61, 0
2, 401360, Note_on_c, 0, 73, 73
2, 401400, Note_off_c, 0, 73, 0
2, 401520, Note_on_c, 0, 82, 85
2, 401524, Note_on_c, 0, 56, 56
2, 401660, Note_off_c, 0, 82, 0
2, 401660, Note_on_c, 0, 80, 80
2, 401784, Note_off_c, 0, 80, 0
2, 401792, Note_on_c, 0, 63, 55
2, 401804, Note_on_c, 0, 76, 75
2, 401908, Note_off_c, 0, 76, 0
2, 401940, Note_on_c, 0, 75, 79
2, 402088, Note_on_c, 0, 73, 69
2, 402096, Note_off_c, 0, 63, 0
2, 402096, Control_c, 0, 64, 104
2, 402108, Note_on_c, 0, 64, 60
2, 402108, Control_c, 0, 64, 24
2, 402112, Note_off_c, 0, 75, 0
2, 402120, Control_c, 0, 64, 0
2, 402156, Control_c, 0, 64, 104
2, 402172, Control_c, 0, 64, 127
2, 402216, Note_off_c, 0, 73, 0
2, 402228, Note_on_c, 0, 71, 64
2, 402288, Note_off_c, 0, 71, 0
2, 402320, Note_off_c, 0, 64, 0
2, 402360, Note_on_c, 0, 68, 62
2, 402364, Note_off_c, 0, 56, 0
2, 402456, Note_off_c, 0, 68, 0
2, 402500, Note_on_c, 0, 64, 67
2, 402612, Note_off_c, 0, 64, 0
2, 402644, Note_on_c, 0, 61, 61
2, 402760, Note_off_c, 0, 61, 0
2, 402784, Note_on_c, 0, 59, 67
2, 402928, Note_off_c, 0, 59, 0
2, 402932, Note_on_c, 0, 56, 50
2, 402956, Note_off_c, 0, 56, 0
2, 403100, Note_on_c, 0, 71, 68
2, 403148, Note_off_c, 0, 71, 0
2, 403308, Note_on_c, 0, 61, 70
2, 403312, Note_on_c, 0, 56, 47
2, 403340, Note_on_c, 0, 59, 29
2, 403348, Note_on_c, 0, 40, 41
2, 403472, Control_c, 0, 64, 104
2, 403488, Control_c, 0, 64, 24
2, 403500, Control_c, 0, 64, 0
2, 403616, Control_c, 0, 64, 127
2, 403688, Note_off_c, 0, 59, 0
2, 403728, Note_off_c, 0, 56, 0
2, 403776, Note_off_c, 0, 61, 0
2, 403792, Note_off_c, 0, 40, 0
2, 403940, Note_on_c, 0, 63, 77
2, 403948, Note_on_c, 0, 54, 59
2, 403956, Note_on_c, 0, 59, 51
2, 403964, Note_on_c, 0, 39, 44
2, 404024, Control_c, 0, 64, 104
2, 404036, Control_c, 0, 64, 0
2, 404204, Control_c, 0, 64, 127
2, 404340, Note_off_c, 0, 54, 0
2, 404364, Note_off_c, 0, 59, 0
2, 404440, Note_off_c, 0, 63, 0
2, 404548, Note_off_c, 0, 39, 0
2, 404596, Note_on_c, 0, 64, 74
2, 404608, Note_on_c, 0, 56, 47
2, 404616, Note_on_c, 0, 59, 49
2, 404620, Note_on_c, 0, 37, 46
2, 404688, Control_c, 0, 64, 40
2, 404700, Control_c, 0, 64, 0
2, 404840, Control_c, 0, 64, 127
2, 404932, Note_off_c, 0, 59, 0
2, 404948, Note_off_c, 0, 64, 0
2, 404996, Note_off_c, 0, 56, 0
2, 405104, Note_on_c, 0, 64, 76
2, 405176, Note_off_c, 0, 64, 0
2, 405204, Note_off_c, 0, 37, 0
2, 405240, Note_on_c, 0, 63, 73
2, 405244, Note_on_c, 0, 52, 43
2, 405256, Note_on_c, 0, 58, 38
2, 405272, Note_on_c, 0, 42, 46
2, 405340, Control_c, 0, 64, 40
2, 405352, Control_c, 0, 64, 0
2, 405544, Control_c, 0, 64, 104
2, 405556, Control_c, 0, 64, 127
2, 405688, Note_off_c, 0, 42, 0
2, 405700, Note_off_c, 0, 52, 0
2, 405720, Note_off_c, 0, 63, 0
2, 405784, Note_off_c, 0, 58, 0
2, 405792, Note_on_c, 0, 61, 60
2, 405872, Note_off_c, 0, 61, 0
2, 405984, Note_on_c, 0, 51, 64
2, 406000, Note_on_c, 0, 43, 49
2, 406008, Note_on_c, 0, 31, 54
2, 406016, Control_c, 0, 64, 88
2, 406032, Control_c, 0, 64, 0
2, 406112, Note_off_c, 0, 51, 0
2, 406120, Control_c, 0, 64, 104
2, 406128, Control_c, 0, 64, 127
2, 406136, Note_on_c, 0, 58, 54
2, 406180, Note_off_c, 0, 31, 0
2, 406212, Note_off_c, 0, 43, 0
2, 406232, Note_off_c, 0, 58, 0
2, 406272, Note_on_c, 0, 61, 54
2, 406384, Note_off_c, 0, 61, 0
2, 406416, Note_on_c, 0, 63, 53
2, 406436, Note_off_c, 0, 63, 0
2, 406600, Note_on_c, 0, 77, 87
2, 406604, Note_on_c, 0, 61, 43
2, 406608, Note_on_c, 0, 58, 37
2, 406608, Note_on_c, 0, 51, 42
2, 406712, Note_off_c, 0, 61, 0
2, 406712, Note_off_c, 0, 58, 0
2, 406724, Note_off_c, 0, 51, 0
2, 406728, Note_off_c, 0, 77, 0
2, 406744, Note_on_c, 0, 75, 64
2, 406840, Note_off_c, 0, 75, 0
2, 406884, Note_on_c, 0, 82, 75
2, 406884, Note_on_c, 0, 74, 56
2, 406932, Note_off_c, 0, 74, 0
2, 407048, Note_on_c, 0, 73, 54
2, 407064, Note_off_c, 0, 82, 0
2, 407112, Note_off_c, 0, 73, 0
2, 407200, Note_on_c, 0, 82, 77
2, 407208, Note_on_c, 0, 72, 69
2, 407216, Note_on_c, 0, 44, 44
2, 407216, Control_c, 0, 64, 72
2, 407220, Note_on_c, 0, 32, 51
2, 407228, Control_c, 0, 64, 0
2, 407308, Control_c, 0, 64, 56
2, 407320, Control_c, 0, 64, 127
2, 407344, Note_on_c, 0, 73, 64
2, 407360, Note_off_c, 0, 72, 0
2, 407372, Note_off_c, 0, 82, 0
2, 407416, Note_off_c, 0, 32, 0
2, 407444, Note_off_c, 0, 44, 0
2, 407460, Note_off_c, 0, 73, 0
2, 407484, Note_on_c, 0, 80, 81
2, 407484, Note_on_c, 0, 75, 65
2, 407540, Note_off_c, 0, 75, 0
2, 407552, Note_off_c, 0, 80, 0
2, 407624, Note_on_c, 0, 66, 66
2, 407684, Note_off_c, 0, 66, 0
2, 407768, Note_on_c, 0, 72, 82
2, 407796, Note_on_c, 0, 54, 42
2, 407800, Note_on_c, 0, 56, 38
2, 407804, Note_on_c, 0, 60, 41
2, 407908, Note_on_c, 0, 70, 67
2, 407912, Note_off_c, 0, 72, 0
2, 408020, Note_off_c, 0, 60, 0
2, 408024, Note_off_c, 0, 70, 0
2, 408060, Note_on_c, 0, 75, 81
2, 408068, Note_off_c, 0, 56, 0
2, 408072, Note_on_c, 0, 68, 65
2, 408080, Note_off_c, 0, 54, 0
2, 408144, Note_off_c, 0, 68, 0
2, 408184, Note_off_c, 0, 75, 0
2, 408192, Note_on_c, 0, 66, 59
2, 408260, Note_off_c, 0, 66, 0
2, 408356, Note_on_c, 0, 75, 76
2, 408356, Note_on_c, 0, 64, 66
2, 408356, Note_on_c, 0, 25, 52
2, 408356, Note_on_c, 0, 37, 48
2, 408356, Control_c, 0, 64, 72
2, 408364, Control_c, 0, 64, 0
2, 408448, Control_c, 0, 64, 88
2, 408460, Control_c, 0, 64, 127
2, 408488, Note_off_c, 0, 64, 0
2, 408504, Note_off_c, 0, 75, 0
2, 408516, Note_on_c, 0, 65, 68
2, 408520, Note_off_c, 0, 25, 0
2, 408548, Note_off_c, 0, 37, 0
2, 408588, Note_off_c, 0, 65, 0
2, 408660, Note_on_c, 0, 73, 83
2, 408660, Note_on_c, 0, 59, 60
2, 408712, Note_off_c, 0, 59, 0
2, 408780, Note_off_c, 0, 73, 0
2, 408796, Note_on_c, 0, 68, 67
2, 408848, Note_off_c, 0, 68, 0
2, 408960, Note_on_c, 0, 75, 82
2, 408960, Note_on_c, 0, 53, 40
2, 408960, Note_on_c, 0, 59, 40
2, 408960, Note_on_c, 0, 49, 42
2, 409036, Note_off_c, 0, 75, 0
2, 409084, Note_on_c, 0, 73, 73
2, 409196, Note_off_c, 0, 73, 0
2, 409216, Note_off_c, 0, 59, 0
2, 409220, Note_on_c, 0, 80, 82
2, 409220, Note_on_c, 0, 72, 74
2, 409244, Note_off_c, 0, 53, 0
2, 409284, Note_off_c, 0, 49, 0
2, 409312, Note_off_c, 0, 72, 0
2, 409348, Note_off_c, 0, 80, 0
2, 409360, Note_on_c, 0, 71, 63
2, 409416, Note_off_c, 0, 71, 0
2, 409516, Note_on_c, 0, 80, 77
2, 409516, Note_on_c, 0, 69, 70
2, 409516, Note_on_c, 0, 42, 47
2, 409516, Note_on_c, 0, 30, 53
2, 409528, Control_c, 0, 64, 88
2, 409544, Control_c, 0, 64, 24
2, 409552, Control_c, 0, 64, 0
2, 409620, Control_c, 0, 64, 56
2, 409632, Control_c, 0, 64, 127
2, 409648, Note_off_c, 0, 69, 0
2, 409656, Note_on_c, 0, 70, 69
2, 409700, Note_off_c, 0, 80, 0
2, 409780, Note_off_c, 0, 30, 0
2, 409780, Note_off_c, 0, 70, 0
2, 409800, Note_on_c, 0, 78, 81
2, 409804, Note_off_c, 0, 42, 0
2, 409812, Note_on_c, 0, 73, 65
2, 409880, Note_off_c, 0, 73, 0
2, 409888, Note_off_c, 0, 78, 0
2, 409956, Note_on_c, 0, 64, 63
2, 410000, Note_off_c, 0, 64, 0
2, 410108, Note_on_c, 0, 70, 67
2, 410108, Note_on_c, 0, 64, 44
2, 410108, Note_on_c, 0, 54, 41
2, 410108, Note_on_c, 0, 58, 38
2, 410244, Note_off_c, 0, 70, 0
2, 410256, Note_off_c, 0, 64, 0
2, 410260, Note_on_c, 0, 68, 58
2, 410364, Note_off_c, 0, 68, 0
2, 410400, Note_on_c, 0, 73, 69
2, 410400, Note_on_c, 0, 66, 57
2, 410500, Note_off_c, 0, 66, 0
2, 410564, Note_on_c, 0, 64, 54
2, 410640, Note_off_c, 0, 58, 0
2, 410644, Note_off_c, 0, 54, 0
2, 410648, Note_off_c, 0, 64, 0
2, 410648, Control_c, 0, 64, 88
2, 410660, Control_c, 0, 64, 72
2, 410676, Control_c, 0, 64, 56
2, 410684, Note_off_c, 0, 73, 0
2, 410688, Control_c, 0, 64, 40
2, 410700, Control_c, 0, 64, 0
2, 410740, Note_on_c, 0, 73, 74
2, 410764, Note_on_c, 0, 63, 46
2, 410772, Note_on_c, 0, 47, 47
2, 410776, Note_on_c, 0, 57, 39
2, 410868, Note_on_c, 0, 72, 77
2, 410876, Note_off_c, 0, 73, 0
2, 410968, Note_off_c, 0, 72, 0
2, 411020, Note_on_c, 0, 71, 66
2, 411032, Note_on_c, 0, 56, 40
2, 411044, Note_off_c, 0, 57, 0
2, 411104, Control_c, 0, 64, 88
2, 411140, Note_off_c, 0, 56, 0
2, 411156, Note_off_c, 0, 71, 0
2, 411156, Note_on_c, 0, 70, 69
2, 411160, Note_on_c, 0, 55, 55
2, 411252, Note_off_c, 0, 63, 0
2, 411264, Note_off_c, 0, 70, 0
2, 411264, Control_c, 0, 64, 104
2, 411288, Note_on_c, 0, 69, 72
2, 411304, Note_on_c, 0, 54, 49
2, 411308, Note_off_c, 0, 55, 0
2, 411396, Control_c, 0, 64, 56
2, 411408, Control_c, 0, 64, 24
2, 411420, Control_c, 0, 64, 0
2, 411432, Note_off_c, 0, 69, 0
2, 411436, Note_on_c, 0, 68, 69
2, 411440, Note_off_c, 0, 54, 0
2, 411452, Note_on_c, 0, 53, 58
2, 411456, Note_on_c, 0, 62, 59
2, 411512, Control_c, 0, 64, 24
2, 411524, Note_off_c, 0, 62, 0
2, 411528, Control_c, 0, 64, 56
2, 411540, Control_c, 0, 64, 88
2, 411552, Control_c, 0, 64, 104
2, 411580, Note_on_c, 0, 57, 45
2, 411584, Note_on_c, 0, 66, 69
2, 411600, Note_off_c, 0, 68, 0
2, 411604, Note_off_c, 0, 47, 0
2, 411604, Control_c, 0, 64, 127
2, 411672, Note_off_c, 0, 57, 0
2, 411684, Note_off_c, 0, 53, 0
2, 411708, Note_on_c, 0, 56, 48
2, 411716, Note_off_c, 0, 66, 0
2, 411720, Note_on_c, 0, 65, 76
2, 411804, Note_off_c, 0, 65, 0
2, 411844, Control_c, 0, 64, 72
2, 411856, Control_c, 0, 64, 0
2, 411864, Note_off_c, 0, 56, 0
2, 411884, Note_on_c, 0, 74, 84
2, 411884, Note_on_c, 0, 65, 56
2, 411896, Note_on_c, 0, 59, 49
2, 411900, Note_on_c, 0, 49, 44
2, 411944, Control_c, 0, 64, 40
2, 411956, Control_c, 0, 64, 72
2, 411972, Control_c, 0, 64, 104
2, 411988, Control_c, 0, 64, 127
2, 411996, Note_off_c, 0, 59, 0
2, 412016, Note_off_c, 0, 74, 0
2, 412024, Note_on_c, 0, 73, 73
2, 412028, Note_on_c, 0, 58, 45
2, 412128, Note_off_c, 0, 73, 0
2, 412128, Note_off_c, 0, 58, 0
2, 412160, Note_on_c, 0, 57, 50
2, 412172, Note_on_c, 0, 72, 74
2, 412284, Note_off_c, 0, 72, 0
2, 412296, Note_on_c, 0, 56, 53
2, 412296, Note_on_c, 0, 71, 75
2, 412304, Note_off_c, 0, 65, 0
2, 412304, Note_off_c, 0, 57, 0
2, 412364, Note_off_c, 0, 71, 0
2, 412420, Control_c, 0, 64, 88
2, 412432, Control_c, 0, 64, 40
2, 412436, Note_on_c, 0, 70, 73
2, 412444, Control_c, 0, 64, 0
2, 412448, Note_off_c, 0, 56, 0
2, 412452, Note_on_c, 0, 64, 61
2, 412460, Note_on_c, 0, 55, 58
2, 412500, Note_off_c, 0, 64, 0
2, 412528, Control_c, 0, 64, 40
2, 412540, Note_off_c, 0, 49, 0
2, 412540, Control_c, 0, 64, 88
2, 412552, Control_c, 0, 64, 127
2, 412588, Note_on_c, 0, 68, 75
2, 412604, Note_off_c, 0, 70, 0
2, 412616, Note_on_c, 0, 59, 71
2, 412708, Note_off_c, 0, 59, 0
2, 412736, Note_on_c, 0, 67, 82
2, 412748, Note_off_c, 0, 68, 0
2, 412756, Note_on_c, 0, 58, 36
2, 412836, Note_off_c, 0, 55, 0
2, 412880, Note_on_c, 0, 70, 78
2, 412896, Note_on_c, 0, 61, 47
2, 412904, Note_off_c, 0, 58, 0
2, 412920, Note_off_c, 0, 67, 0
2, 412956, Note_off_c, 0, 61, 0
2, 412976, Note_off_c, 0, 70, 0
2, 413024, Control_c, 0, 64, 104
2, 413040, Control_c, 0, 64, 40
2, 413044, Note_on_c, 0, 76, 85
2, 413052, Control_c, 0, 64, 0
2, 413056, Note_on_c, 0, 61, 47
2, 413056, Note_on_c, 0, 51, 61
2, 413064, Note_on_c, 0, 67, 51
2, 413132, Control_c, 0, 64, 56
2, 413144, Note_off_c, 0, 51, 0
2, 413144, Control_c, 0, 64, 127
2, 413184, Note_off_c, 0, 76, 0
2, 413188, Note_on_c, 0, 75, 82
2, 413204, Note_off_c, 0, 61, 0
2, 413204, Note_on_c, 0, 60, 54
2, 413296, Note_off_c, 0, 75, 0
2, 413296, Note_off_c, 0, 60, 0
2, 413332, Note_on_c, 0, 74, 82
2, 413340, Note_on_c, 0, 59, 44
2, 413404, Note_off_c, 0, 67, 0
2, 413448, Note_off_c, 0, 74, 0
2, 413456, Note_off_c, 0, 59, 0
2, 413460, Note_on_c, 0, 73, 81
2, 413608, Note_off_c, 0, 73, 0
2, 413624, Note_on_c, 0, 71, 74
2, 413632, Control_c, 0, 64, 88
2, 413636, Note_on_c, 0, 68, 58
2, 413636, Note_on_c, 0, 56, 46
2, 413640, Note_on_c, 0, 63, 44
2, 413648, Control_c, 0, 64, 40
2, 413656, Control_c, 0, 64, 0
2, 413704, Note_off_c, 0, 71, 0
2, 413752, Control_c, 0, 64, 56
2, 413764, Control_c, 0, 64, 104
2, 413780, Note_on_c, 0, 70, 73
2, 413780, Control_c, 0, 64, 127
2, 413916, Note_off_c, 0, 70, 0
2, 413920, Note_on_c, 0, 73, 75
2, 413988, Note_off_c, 0, 56, 0
2, 414036, Note_off_c, 0, 63, 0
2, 414048, Note_off_c, 0, 73, 0
2, 414048, Note_on_c, 0, 71, 84
2, 414064, Note_off_c, 0, 68, 0
2, 414100, Note_off_c, 0, 71, 0
2, 414168, Note_on_c, 0, 53, 58
2, 414200, Note_on_c, 0, 59, 39
2, 414252, Note_on_c, 0, 62, 12
2, 414264, Control_c, 0, 64, 104
2, 414276, Control_c, 0, 64, 88
2, 414288, Note_on_c, 0, 80, 86
2, 414292, Control_c, 0, 64, 40
2, 414300, Note_on_c, 0, 71, 59
2, 414304, Control_c, 0, 64, 0
2, 414320, Note_on_c, 0, 68, 44
2, 414396, Note_off_c, 0, 71, 0
2, 414408, Control_c, 0, 64, 56
2, 414424, Control_c, 0, 64, 127
2, 414464, Note_off_c, 0, 80, 0
2, 414508, Note_on_c, 0, 79, 88
2, 414516, Note_on_c, 0, 70, 64
2, 414584, Note_off_c, 0, 70, 0
2, 414604, Note_off_c, 0, 79, 0
2, 414680, Note_on_c, 0, 80, 79
2, 414696, Note_on_c, 0, 71, 60
2, 414756, Note_off_c, 0, 71, 0
2, 414812, Note_off_c, 0, 80, 0
2, 414860, Note_on_c, 0, 81, 85
2, 414868, Note_on_c, 0, 72, 68
2, 414920, Note_off_c, 0, 72, 0
2, 414952, Note_off_c, 0, 53, 0
2, 414952, Note_off_c, 0, 81, 0
2, 414984, Note_off_c, 0, 59, 0
2, 415036, Note_off_c, 0, 62, 0
2, 415044, Note_off_c, 0, 68, 0
2, 415044, Note_on_c, 0, 82, 85
2, 415048, Note_on_c, 0, 73, 74
2, 415168, Note_on_c, 0, 68, 63
2, 415172, Note_on_c, 0, 62, 49
2, 415180, Note_off_c, 0, 73, 0
2, 415180, Note_on_c, 0, 59, 56
2, 415204, Note_off_c, 0, 82, 0
2, 415260, Note_on_c, 0, 83, 89
2, 415272, Note_on_c, 0, 74, 69
2, 415288, Note_off_c, 0, 62, 0
2, 415300, Note_off_c, 0, 68, 0
2, 415336, Note_off_c, 0, 74, 0
2, 415376, Note_off_c, 0, 59, 0
2, 415388, Note_off_c, 0, 83, 0
2, 415528, Control_c, 0, 64, 104
2, 415540, Note_on_c, 0, 83, 82
2, 415544, Control_c, 0, 64, 56
2, 415548, Note_on_c, 0, 75, 62
2, 415556, Note_on_c, 0, 63, 44
2, 415556, Control_c, 0, 64, 0
2, 415564, Note_on_c, 0, 66, 37
2, 415564, Note_on_c, 0, 54, 44
2, 415648, Control_c, 0, 64, 40
2, 415660, Control_c, 0, 64, 104
2, 415672, Note_off_c, 0, 54, 0
2, 415676, Note_off_c, 0, 63, 0
2, 415676, Control_c, 0, 64, 127
2, 415692, Note_off_c, 0, 66, 0
2, 415760, Note_off_c, 0, 83, 0
2, 415772, Note_off_c, 0, 75, 0
2, 415804, Note_on_c, 0, 82, 73
2, 415820, Note_on_c, 0, 76, 65
2, 415832, Note_on_c, 0, 73, 55
2, 415848, Note_off_c, 0, 76, 0
2, 415944, Note_off_c, 0, 73, 0
2, 415988, Note_off_c, 0, 82, 0
2, 416004, Note_on_c, 0, 80, 82
2, 416016, Note_on_c, 0, 75, 62
2, 416028, Note_on_c, 0, 71, 44
2, 416068, Note_off_c, 0, 75, 0
2, 416144, Note_off_c, 0, 80, 0
2, 416164, Note_off_c, 0, 71, 0
2, 416188, Note_on_c, 0, 82, 76
2, 416204, Note_on_c, 0, 76, 70
2, 416204, Note_on_c, 0, 73, 54
2, 416264, Note_off_c, 0, 76, 0
2, 416348, Note_off_c, 0, 82, 0
2, 416372, Control_c, 0, 64, 56
2, 416376, Note_off_c, 0, 73, 0
2, 416376, Note_on_c, 0, 80, 79
2, 416384, Note_on_c, 0, 75, 60
2, 416384, Control_c, 0, 64, 0
2, 416400, Note_on_c, 0, 71, 43
2, 416424, Control_c, 0, 64, 24
2, 416436, Control_c, 0, 64, 72
2, 416444, Note_off_c, 0, 75, 0
2, 416452, Control_c, 0, 64, 127
2, 416524, Note_off_c, 0, 71, 0
2, 416528, Note_off_c, 0, 80, 0
2, 416556, Note_on_c, 0, 82, 78
2, 416560, Note_on_c, 0, 73, 67
2, 416564, Note_on_c, 0, 70, 46
2, 416580, Note_on_c, 0, 80, 32
2, 416608, Note_off_c, 0, 80, 0
2, 416632, Note_off_c, 0, 73, 0
2, 416700, Note_off_c, 0, 82, 0
2, 416740, Note_off_c, 0, 70, 0
2, 416760, Note_on_c, 0, 83, 82
2, 416764, Note_on_c, 0, 71, 65
2, 416776, Note_on_c, 0, 68, 40
2, 416836, Note_off_c, 0, 83, 0
2, 416860, Note_off_c, 0, 71, 0
2, 416916, Note_off_c, 0, 68, 0
2, 416952, Note_on_c, 0, 78, 76
2, 416964, Note_on_c, 0, 73, 65
2, 416964, Control_c, 0, 64, 104
2, 416968, Note_on_c, 0, 70, 50
2, 416980, Control_c, 0, 64, 40
2, 416992, Control_c, 0, 64, 0
2, 417056, Control_c, 0, 64, 56
2, 417072, Control_c, 0, 64, 104
2, 417084, Control_c, 0, 64, 127
2, 417092, Note_off_c, 0, 73, 0
2, 417120, Note_off_c, 0, 78, 0
2, 417148, Note_off_c, 0, 70, 0
2, 417148, Note_on_c, 0, 76, 80
2, 417152, Note_on_c, 0, 68, 44
2, 417156, Note_on_c, 0, 71, 51
2, 417180, Note_off_c, 0, 71, 0
2, 417248, Note_off_c, 0, 76, 0
2, 417284, Note_off_c, 0, 68, 0
2, 417328, Note_on_c, 0, 78, 73
2, 417332, Note_on_c, 0, 66, 37
2, 417336, Note_on_c, 0, 70, 62
2, 417416, Note_off_c, 0, 70, 0
2, 417520, Note_off_c, 0, 78, 0
2, 417524, Note_off_c, 0, 66, 0
2, 417540, Note_on_c, 0, 80, 77
2, 417552, Note_on_c, 0, 68, 54
2, 417560, Note_on_c, 0, 64, 42
2, 417624, Note_off_c, 0, 80, 0
2, 417640, Note_off_c, 0, 64, 0
2, 417672, Note_off_c, 0, 68, 0
2, 417768, Note_on_c, 0, 75, 69
2, 417780, Note_on_c, 0, 66, 50
2, 417788, Note_on_c, 0, 70, 51
2, 417808, Control_c, 0, 64, 72
2, 417820, Control_c, 0, 64, 0
2, 417888, Control_c, 0, 64, 24
2, 417900, Control_c, 0, 64, 88
2, 417908, Note_off_c, 0, 70, 0
2, 417912, Control_c, 0, 64, 127
2, 417980, Note_off_c, 0, 75, 0
2, 417992, Note_off_c, 0, 66, 0
2, 417992, Note_on_c, 0, 68, 50
2, 417992, Note_on_c, 0, 73, 73
2, 418008, Note_on_c, 0, 64, 52
2, 418064, Note_off_c, 0, 68, 0
2, 418160, Note_off_c, 0, 73, 0
2, 418244, Note_off_c, 0, 64, 0
2, 418244, Note_on_c, 0, 75, 70
2, 418248, Note_on_c, 0, 66, 49
2, 418256, Control_c, 0, 64, 88
2, 418264, Note_on_c, 0, 72, 58
2, 418268, Note_on_c, 0, 56, 50
2, 418272, Control_c, 0, 64, 40
2, 418280, Control_c, 0, 64, 0
2, 418336, Control_c, 0, 64, 56
2, 418348, Control_c, 0, 64, 104
2, 418364, Control_c, 0, 64, 127
2, 418384, Note_off_c, 0, 66, 0
2, 418388, Note_off_c, 0, 72, 0
2, 418464, Note_off_c, 0, 75, 0
2, 418552, Note_on_c, 0, 76, 70
2, 418560, Note_on_c, 0, 73, 55
2, 418564, Note_off_c, 0, 56, 0
2, 418568, Note_on_c, 0, 64, 40
2, 418580, Note_on_c, 0, 61, 43
2, 418584, Control_c, 0, 64, 88
2, 418596, Control_c, 0, 64, 24
2, 418612, Control_c, 0, 64, 0
2, 418660, Note_off_c, 0, 73, 0
2, 418664, Control_c, 0, 64, 56
2, 418680, Control_c, 0, 64, 127
2, 418696, Note_off_c, 0, 76, 0
2, 418892, Note_on_c, 0, 70, 62
2, 418904, Note_on_c, 0, 66, 51
2, 418912, Note_on_c, 0, 54, 40
2, 418932, Note_off_c, 0, 61, 0
2, 418968, Control_c, 0, 64, 72
2, 418980, Control_c, 0, 64, 0
2, 419060, Control_c, 0, 64, 24
2, 419072, Control_c, 0, 64, 88
2, 419084, Note_off_c, 0, 64, 0
2, 419088, Control_c, 0, 64, 127
2, 419168, Note_off_c, 0, 70, 0
2, 419344, Note_off_c, 0, 54, 0
2, 419344, Note_off_c, 0, 66, 0
2, 419372, Note_on_c, 0, 71, 59
2, 419392, Note_on_c, 0, 63, 28
2, 419400, Note_on_c, 0, 47, 41
2, 419440, Control_c, 0, 64, 72
2, 419456, Control_c, 0, 64, 0
2, 419560, Control_c, 0, 64, 88
2, 419572, Control_c, 0, 64, 127
2, 419600, Note_on_c, 0, 54, 40
2, 419624, Note_off_c, 0, 47, 0
2, 419716, Note_off_c, 0, 54, 0
2, 419732, Note_off_c, 0, 63, 0
2, 419748, Note_on_c, 0, 59, 46
2, 419868, Note_off_c, 0, 59, 0
2, 419880, Note_on_c, 0, 61, 54
2, 419984, Note_off_c, 0, 61, 0
2, 420028, Note_off_c, 0, 71, 0
2, 420032, Note_on_c, 0, 63, 61
2, 420188, Note_on_c, 0, 64, 70
2, 420228, Note_off_c, 0, 63, 0
2, 420336, Note_on_c, 0, 66, 67
2, 420460, Note_off_c, 0, 64, 0
2, 420476, Note_off_c, 0, 66, 0
2, 420496, Note_on_c, 0, 71, 68
2, 420636, Note_off_c, 0, 71, 0
2, 420664, Note_on_c, 0, 68, 67
2, 420692, Control_c, 0, 64, 72
2, 420704, Control_c, 0, 64, 0
2, 420708, Note_on_c, 0, 42, 43
2, 420784, Control_c, 0, 64, 24
2, 420796, Control_c, 0, 64, 104
2, 420812, Control_c, 0, 64, 127
2, 420840, Note_on_c, 0, 54, 53
2, 420864, Note_off_c, 0, 42, 0
2, 420900, Note_off_c, 0, 54, 0
2, 420980, Note_on_c, 0, 59, 56
2, 421108, Note_off_c, 0, 59, 0
2, 421144, Note_on_c, 0, 61, 58
2, 421228, Note_off_c, 0, 61, 0
2, 421292, Note_on_c, 0, 63, 62
2, 421300, Note_off_c, 0, 68, 0
2, 421436, Note_off_c, 0, 63, 0
2, 421448, Note_on_c, 0, 64, 74
2, 421580, Note_on_c, 0, 66, 73
2, 421588, Note_off_c, 0, 64, 0
2, 421740, Note_on_c, 0, 75, 82
2, 421744, Note_off_c, 0, 66, 0
2, 421964, Note_on_c, 0, 73, 75
2, 421988, Note_off_c, 0, 75, 0
2, 422000, Note_on_c, 0, 44, 35
2, 422008, Control_c, 0, 64, 104
2, 422024, Control_c, 0, 64, 56
2, 422036, Control_c, 0, 64, 0
2, 422144, Control_c, 0, 64, 56
2, 422152, Note_on_c, 0, 51, 55
2, 422156, Control_c, 0, 64, 127
2, 422204, Note_off_c, 0, 44, 0
2, 422264, Note_off_c, 0, 51, 0
2, 422292, Note_on_c, 0, 56, 49
2, 422400, Note_off_c, 0, 56, 0
2, 422400, Note_off_c, 0, 73, 0
2, 422436, Note_on_c, 0, 58, 38
2, 422580, Note_off_c, 0, 58, 0
2, 422588, Note_on_c, 0, 59, 69
2, 422728, Note_on_c, 0, 61, 61
2, 422752, Note_off_c, 0, 59, 0
2, 422860, Note_off_c, 0, 61, 0
2, 422884, Note_on_c, 0, 63, 64
2, 422964, Note_off_c, 0, 63, 0
2, 423048, Note_on_c, 0, 71, 79
2, 423212, Note_off_c, 0, 71, 0
2, 423260, Note_on_c, 0, 70, 73
2, 423260, Note_on_c, 0, 65, 41
2, 423260, Note_on_c, 0, 37, 51
2, 423300, Control_c, 0, 64, 88
2, 423312, Control_c, 0, 64, 24
2, 423324, Control_c, 0, 64, 0
2, 423404, Control_c, 0, 64, 40
2, 423420, Control_c, 0, 64, 127
2, 423432, Note_off_c, 0, 37, 0
2, 423440, Note_on_c, 0, 44, 44
2, 423564, Note_off_c, 0, 44, 0
2, 423620, Note_on_c, 0, 49, 48
2, 423756, Note_off_c, 0, 49, 0
2, 423800, Note_on_c, 0, 56, 50
2, 423848, Note_off_c, 0, 56, 0
2, 423932, Note_off_c, 0, 65, 0
2, 423956, Note_off_c, 0, 70, 0
2, 423980, Note_on_c, 0, 59, 53
2, 424160, Note_on_c, 0, 61, 56
2, 424272, Note_off_c, 0, 61, 0
2, 424316, Note_off_c, 0, 59, 0
2, 424340, Note_on_c, 0, 70, 77
2, 424340, Note_on_c, 0, 65, 58
2, 424444, Note_off_c, 0, 65, 0
2, 424508, Note_off_c, 0, 70, 0
2, 424572, Note_on_c, 0, 71, 77
2, 424684, Note_off_c, 0, 71, 0
2, 424724, Note_on_c, 0, 68, 74
2, 424832, Note_off_c, 0, 68, 0
2, 424952, Note_on_c, 0, 68, 64
2, 424968, Note_on_c, 0, 59, 43
2, 424976, Note_on_c, 0, 64, 41
2, 424996, Note_on_c, 0, 42, 42
2, 425000, Control_c, 0, 64, 88
2, 425012, Control_c, 0, 64, 40
2, 425028, Control_c, 0, 64, 0
2, 425132, Control_c, 0, 64, 72
2, 425144, Control_c, 0, 64, 127
2, 425164, Note_off_c, 0, 42, 0
2, 425168, Note_on_c, 0, 49, 45
2, 425244, Note_off_c, 0, 59, 0
2, 425300, Note_on_c, 0, 54, 49
2, 425312, Note_off_c, 0, 49, 0
2, 425384, Note_off_c, 0, 64, 0
2, 425452, Note_on_c, 0, 56, 50
2, 425596, Note_on_c, 0, 58, 49
2, 425652, Note_off_c, 0, 54, 0
2, 425688, Note_off_c, 0, 68, 0
2, 425704, Note_off_c, 0, 58, 0
2, 425752, Note_on_c, 0, 64, 63
2, 425840, Note_off_c, 0, 64, 0
2, 425884, Note_on_c, 0, 66, 65
2, 425936, Note_on_c, 0, 49, 1
2, 426040, Note_off_c, 0, 66, 0
2, 426052, Note_off_c, 0, 56, 0
2, 426052, Note_on_c, 0, 71, 75
2, 426172, Note_off_c, 0, 71, 0
2, 426232, Note_on_c, 0, 70, 72
2, 426260, Note_on_c, 0, 66, 34
2, 426268, Note_on_c, 0, 64, 35
2, 426276, Note_off_c, 0, 49, 0
2, 426288, Note_on_c, 0, 42, 37
2, 426292, Control_c, 0, 64, 104
2, 426304, Control_c, 0, 64, 56
2, 426316, Note_off_c, 0, 64, 0
2, 426316, Control_c, 0, 64, 0
2, 426396, Control_c, 0, 64, 88
2, 426408, Control_c, 0, 64, 127
2, 426412, Note_off_c, 0, 42, 0
2, 426412, Note_on_c, 0, 49, 48
2, 426504, Note_off_c, 0, 49, 0
2, 426540, Note_on_c, 0, 54, 57
2, 426580, Note_off_c, 0, 66, 0
2, 426668, Note_off_c, 0, 54, 0
2, 426692, Note_on_c, 0, 59, 72
2, 426820, Note_off_c, 0, 70, 0
2, 426884, Note_on_c, 0, 64, 70
2, 426888, Note_off_c, 0, 59, 0
2, 426888, Note_on_c, 0, 61, 51
2, 427052, Note_on_c, 0, 66, 71
2, 427208, Note_on_c, 0, 71, 75
2, 427348, Note_off_c, 0, 61, 0
2, 427348, Note_off_c, 0, 71, 0
2, 427368, Note_on_c, 0, 75, 82
2, 427552, Note_off_c, 0, 75, 0
2, 427616, Note_on_c, 0, 73, 76
2, 427624, Note_on_c, 0, 70, 60
2, 427672, Control_c, 0, 64, 104
2, 427684, Note_on_c, 0, 42, 43
2, 427684, Control_c, 0, 64, 56
2, 427700, Control_c, 0, 64, 0
2, 427776, Control_c, 0, 64, 24
2, 427792, Control_c, 0, 64, 104
2, 427804, Control_c, 0, 64, 127
2, 427808, Note_off_c, 0, 66, 0
2, 427816, Note_off_c, 0, 42, 0
2, 427828, Note_on_c, 0, 49, 51
2, 427852, Note_off_c, 0, 70, 0
2, 427880, Note_off_c, 0, 64, 0
2, 427940, Note_off_c, 0, 49, 0
2, 427968, Note_on_c, 0, 54, 56
2, 428128, Note_on_c, 0, 61, 67
2, 428172, Note_off_c, 0, 54, 0
2, 428272, Note_off_c, 0, 73, 0
2, 428280, Note_on_c, 0, 64, 74
2, 428408, Note_off_c, 0, 64, 0
2, 428436, Note_on_c, 0, 70, 79
2, 428548, Note_off_c, 0, 70, 0
2, 428616, Note_on_c, 0, 80, 91
2, 428792, Note_off_c, 0, 80, 0
2, 428820, Note_on_c, 0, 54, 58
2, 428852, Note_off_c, 0, 61, 0
2, 428916, Note_on_c, 0, 80, 89
2, 429024, Note_off_c, 0, 80, 0
2, 429124, Note_on_c, 0, 80, 85
2, 429136, Note_on_c, 0, 70, 54
2, 429148, Control_c, 0, 64, 56
2, 429156, Note_on_c, 0, 64, 54
2, 429160, Control_c, 0, 64, 0
2, 429224, Control_c, 0, 64, 24
2, 429240, Control_c, 0, 64, 88
2, 429252, Control_c, 0, 64, 127
2, 429316, Note_off_c, 0, 80, 0
2, 429372, Note_on_c, 0, 78, 83
2, 429376, Note_on_c, 0, 63, 53
2, 429460, Note_off_c, 0, 64, 0
2, 429492, Note_off_c, 0, 63, 0
2, 429504, Note_on_c, 0, 61, 56
2, 429580, Note_off_c, 0, 78, 0
2, 429616, Note_on_c, 0, 76, 87
2, 429680, Note_off_c, 0, 76, 0
2, 429768, Note_off_c, 0, 70, 0
2, 429808, Note_off_c, 0, 61, 0
2, 429840, Note_on_c, 0, 76, 82
2, 429844, Note_on_c, 0, 70, 50
2, 429856, Note_on_c, 0, 68, 55
2, 429856, Control_c, 0, 64, 104
2, 429868, Control_c, 0, 64, 40
2, 429884, Control_c, 0, 64, 0
2, 429936, Control_c, 0, 64, 40
2, 429952, Control_c, 0, 64, 104
2, 429964, Control_c, 0, 64, 127
2, 429988, Note_off_c, 0, 68, 0
2, 430040, Note_off_c, 0, 76, 0
2, 430084, Note_on_c, 0, 75, 77
2, 430096, Note_on_c, 0, 66, 55
2, 430096, Control_c, 0, 64, 72
2, 430108, Control_c, 0, 64, 0
2, 430148, Control_c, 0, 64, 24
2, 430160, Control_c, 0, 64, 88
2, 430176, Control_c, 0, 64, 127
2, 430212, Note_off_c, 0, 70, 0
2, 430224, Note_off_c, 0, 75, 0
2, 430264, Note_off_c, 0, 66, 0
2, 430280, Note_off_c, 0, 54, 0
2, 430536, Note_on_c, 0, 74, 71
2, 430544, Note_on_c, 0, 65, 58
2, 430592, Note_off_c, 0, 65, 0
2, 430648, Note_off_c, 0, 74, 0
2, 430744, Note_on_c, 0, 76, 73
2, 430756, Note_on_c, 0, 68, 47
2, 430768, Control_c, 0, 64, 72
2, 430772, Note_on_c, 0, 71, 44
2, 430780, Note_on_c, 0, 47, 46
2, 430780, Control_c, 0, 64, 24
2, 430796, Control_c, 0, 64, 0
2, 430884, Control_c, 0, 64, 40
2, 430900, Control_c, 0, 64, 127
2, 430928, Note_on_c, 0, 54, 52
2, 430952, Note_off_c, 0, 71, 0
2, 430996, Note_off_c, 0, 68, 0
2, 431028, Note_off_c, 0, 47, 0
2, 431060, Note_off_c, 0, 76, 0
2, 431060, Note_off_c, 0, 54, 0
2, 431096, Note_on_c, 0, 75, 69
2, 431108, Note_on_c, 0, 59, 40
2, 431112, Note_on_c, 0, 66, 40
2, 431200, Note_off_c, 0, 75, 0
2, 431220, Note_off_c, 0, 66, 0
2, 431248, Note_off_c, 0, 59, 0
2, 431248, Note_on_c, 0, 61, 54
2, 431324, Note_off_c, 0, 61, 0
2, 431408, Note_on_c, 0, 63, 59
2, 431536, Note_off_c, 0, 63, 0
2, 431548, Note_on_c, 0, 64, 70
2, 431676, Note_off_c, 0, 64, 0
2, 431692, Note_on_c, 0, 66, 69
2, 431816, Note_off_c, 0, 66, 0
2, 431848, Note_on_c, 0, 71, 71
2, 431856, Note_on_c, 0, 42, 61
2, 431932, Note_off_c, 0, 42, 0
2, 431976, Note_off_c, 0, 71, 0
2, 432060, Note_on_c, 0, 68, 60
2, 432060, Control_c, 0, 64, 72
2, 432068, Note_on_c, 0, 42, 64
2, 432072, Control_c, 0, 64, 0
2, 432148, Control_c, 0, 64, 40
2, 432164, Control_c, 0, 64, 127
2, 432220, Note_on_c, 0, 54, 58
2, 432232, Note_off_c, 0, 42, 0
2, 432276, Note_off_c, 0, 54, 0
2, 432372, Note_on_c, 0, 59, 62
2, 432496, Note_off_c, 0, 59, 0
2, 432536, Note_on_c, 0, 61, 62
2, 432704, Note_on_c, 0, 63, 61
2, 432716, Control_c, 0, 64, 56
2, 432724, Note_off_c, 0, 68, 0
2, 432728, Control_c, 0, 64, 0
2, 432784, Control_c, 0, 64, 72
2, 432796, Control_c, 0, 64, 127
2, 432840, Note_off_c, 0, 61, 0
2, 432856, Note_off_c, 0, 63, 0
2, 432864, Note_on_c, 0, 64, 73
2, 432980, Note_off_c, 0, 64, 0
2, 433008, Note_on_c, 0, 66, 71
2, 433128, Note_off_c, 0, 66, 0
2, 433164, Note_on_c, 0, 75, 74
2, 433344, Note_on_c, 0, 73, 68
2, 433348, Note_on_c, 0, 44, 54
2, 433348, Control_c, 0, 64, 104
2, 433360, Note_off_c, 0, 75, 0
2, 433364, Control_c, 0, 64, 56
2, 433376, Control_c, 0, 64, 0
2, 433452, Control_c, 0, 64, 24
2, 433468, Control_c, 0, 64, 104
2, 433480, Control_c, 0, 64, 127
2, 433508, Note_on_c, 0, 51, 59
2, 433580, Note_off_c, 0, 44, 0
2, 433652, Note_off_c, 0, 51, 0
2, 433656, Note_off_c, 0, 73, 0
2, 433668, Note_on_c, 0, 56, 57
2, 433796, Note_off_c, 0, 56, 0
2, 433812, Note_on_c, 0, 58, 49
2, 433980, Note_off_c, 0, 58, 0
2, 433980, Note_on_c, 0, 59, 73
2, 434100, Note_off_c, 0, 59, 0
2, 434112, Note_on_c, 0, 61, 61
2, 434264, Note_off_c, 0, 61, 0
2, 434288, Note_on_c, 0, 63, 69
2, 434372, Note_off_c, 0, 63, 0
2, 434452, Note_on_c, 0, 71, 78
2, 434468, Note_on_c, 0, 37, 55
2, 434536, Note_off_c, 0, 37, 0
2, 434556, Note_off_c, 0, 71, 0
2, 434664, Control_c, 0, 64, 88
2, 434676, Note_on_c, 0, 70, 70
2, 434680, Control_c, 0, 64, 56
2, 434688, Note_on_c, 0, 59, 51
2, 434692, Note_on_c, 0, 37, 45
2, 434692, Control_c, 0, 64, 0
2, 434696, Note_on_c, 0, 65, 53
2, 434808, Control_c, 0, 64, 88
2, 434824, Control_c, 0, 64, 127
2, 434876, Note_off_c, 0, 37, 0
2, 434892, Note_on_c, 0, 44, 44
2, 435020, Note_off_c, 0, 44, 0
2, 435036, Note_on_c, 0, 49, 58
2, 435100, Note_off_c, 0, 59, 0
2, 435184, Note_off_c, 0, 49, 0
2, 435200, Note_on_c, 0, 56, 58
2, 435328, Note_off_c, 0, 56, 0
2, 435396, Note_on_c, 0, 59, 63
2, 435552, Note_off_c, 0, 59, 0
2, 435560, Note_on_c, 0, 61, 61
2, 435624, Note_off_c, 0, 65, 0
2, 435628, Note_off_c, 0, 70, 0
2, 435660, Note_off_c, 0, 61, 0
2, 435724, Note_on_c, 0, 70, 62
2, 435744, Note_on_c, 0, 65, 44
2, 435840, Note_off_c, 0, 65, 0
2, 435900, Note_off_c, 0, 70, 0
2, 435908, Note_on_c, 0, 71, 78
2, 436000, Note_off_c, 0, 71, 0
2, 436052, Note_on_c, 0, 70, 74
2, 436148, Note_off_c, 0, 70, 0
2, 436164, Note_on_c, 0, 68, 73
2, 436256, Note_off_c, 0, 68, 0
2, 436272, Note_on_c, 0, 70, 78
2, 436420, Note_off_c, 0, 70, 0
2, 436456, Note_on_c, 0, 73, 73
2, 436508, Control_c, 0, 64, 104
2, 436524, Control_c, 0, 64, 72
2, 436536, Control_c, 0, 64, 88
2, 436548, Control_c, 0, 64, 127
2, 436636, Note_off_c, 0, 73, 0
2, 436680, Note_on_c, 0, 71, 72
2, 436748, Note_off_c, 0, 71, 0
2, 436884, Note_on_c, 0, 68, 67
2, 436888, Note_on_c, 0, 59, 58
2, 436960, Note_off_c, 0, 59, 0
2, 437000, Note_off_c, 0, 68, 0
2, 437188, Note_on_c, 0, 68, 67
2, 437204, Note_on_c, 0, 59, 41
2, 437208, Note_on_c, 0, 64, 48
2, 437216, Note_on_c, 0, 42, 48
2, 437220, Control_c, 0, 64, 104
2, 437232, Control_c, 0, 64, 88
2, 437248, Control_c, 0, 64, 56
2, 437260, Control_c, 0, 64, 0
2, 437352, Control_c, 0, 64, 56
2, 437368, Control_c, 0, 64, 127
2, 437384, Note_off_c, 0, 42, 0
2, 437384, Note_on_c, 0, 49, 51
2, 437468, Note_off_c, 0, 59, 0
2, 437520, Note_on_c, 0, 54, 52
2, 437524, Note_off_c, 0, 49, 0
2, 437676, Note_on_c, 0, 56, 54
2, 437720, Note_off_c, 0, 64, 0
2, 437812, Note_off_c, 0, 68, 0
2, 437844, Note_on_c, 0, 58, 57
2, 437908, Note_off_c, 0, 54, 0
2, 437940, Note_on_c, 0, 49, 1
2, 437964, Note_off_c, 0, 58, 0
2, 437992, Note_on_c, 0, 64, 68
2, 438096, Note_off_c, 0, 64, 0
2, 438112, Note_off_c, 0, 56, 0
2, 438136, Note_on_c, 0, 66, 62
2, 438148, Note_off_c, 0, 49, 0
2, 438260, Note_off_c, 0, 66, 0
2, 438296, Note_on_c, 0, 71, 70
2, 438404, Note_off_c, 0, 71, 0
2, 438468, Note_on_c, 0, 70, 69
2, 438472, Control_c, 0, 64, 104
2, 438484, Control_c, 0, 64, 40
2, 438488, Note_on_c, 0, 66, 43
2, 438496, Note_on_c, 0, 64, 48
2, 438496, Control_c, 0, 64, 0
2, 438504, Note_on_c, 0, 30, 39
2, 438564, Control_c, 0, 64, 56
2, 438576, Control_c, 0, 64, 127
2, 438632, Note_on_c, 0, 42, 45
2, 438648, Note_off_c, 0, 30, 0
2, 438664, Note_off_c, 0, 42, 0
2, 438772, Note_off_c, 0, 64, 0
2, 438784, Note_on_c, 0, 49, 67
2, 438932, Note_on_c, 0, 54, 62
2, 438980, Note_off_c, 0, 70, 0
2, 439000, Note_off_c, 0, 66, 0
2, 439104, Note_on_c, 0, 64, 78
2, 439120, Note_on_c, 0, 61, 43
2, 439252, Note_on_c, 0, 66, 75
2, 439408, Note_on_c, 0, 71, 77
2, 439536, Note_off_c, 0, 71, 0
2, 439556, Note_on_c, 0, 75, 85
2, 439572, Note_off_c, 0, 61, 0
2, 439596, Note_off_c, 0, 54, 0
2, 439604, Note_off_c, 0, 49, 0
2, 439708, Note_off_c, 0, 75, 0
2, 439724, Note_off_c, 0, 64, 0
2, 439724, Note_off_c, 0, 66, 0
2, 439784, Note_on_c, 0, 73, 84
2, 439792, Note_on_c, 0, 64, 41
2, 439796, Note_on_c, 0, 66, 47
2, 439796, Note_on_c, 0, 70, 62
2, 439828, Control_c, 0, 64, 104
2, 439832, Note_on_c, 0, 42, 44
2, 439840, Control_c, 0, 64, 56
2, 439852, Control_c, 0, 64, 0
2, 439928, Note_off_c, 0, 66, 0
2, 439948, Control_c, 0, 64, 40
2, 439960, Control_c, 0, 64, 104
2, 439968, Note_off_c, 0, 42, 0
2, 439972, Control_c, 0, 64, 127
2, 439976, Note_on_c, 0, 49, 54
2, 440012, Note_off_c, 0, 70, 0
2, 440072, Note_off_c, 0, 64, 0
2, 440116, Note_on_c, 0, 54, 58
2, 440284, Note_on_c, 0, 61, 64
2, 440392, Note_off_c, 0, 73, 0
2, 440436, Note_on_c, 0, 64, 76
2, 440516, Note_off_c, 0, 61, 0
2, 440576, Note_on_c, 0, 70, 75
2, 440580, Note_off_c, 0, 54, 0
2, 440592, Note_off_c, 0, 49, 0
2, 440596, Note_off_c, 0, 64, 0
2, 440720, Note_off_c, 0, 70, 0
2, 440748, Note_on_c, 0, 77, 85
2, 440840, Note_off_c, 0, 77, 0
2, 440928, Note_on_c, 0, 78, 96
2, 440944, Note_on_c, 0, 30, 47
2, 441044, Note_off_c, 0, 78, 0
2, 441116, Control_c, 0, 64, 72
2, 441128, Note_on_c, 0, 79, 94
2, 441132, Control_c, 0, 64, 24
2, 441148, Control_c, 0, 64, 0
2, 441156, Control_c, 0, 64, 40
2, 441164, Note_on_c, 0, 42, 64
2, 441172, Control_c, 0, 64, 88
2, 441184, Control_c, 0, 64, 127
2, 441200, Note_off_c, 0, 30, 0
2, 441220, Note_off_c, 0, 42, 0
2, 441304, Note_off_c, 0, 79, 0
2, 441304, Note_on_c, 0, 76, 78
2, 441368, Note_on_c, 0, 54, 69
2, 441440, Note_off_c, 0, 76, 0
2, 441488, Note_on_c, 0, 70, 67
2, 441508, Note_on_c, 0, 61, 56
2, 441628, Note_on_c, 0, 80, 91
2, 441680, Note_off_c, 0, 54, 0
2, 441680, Note_off_c, 0, 70, 0
2, 441764, Note_on_c, 0, 66, 64
2, 441780, Note_off_c, 0, 80, 0
2, 441788, Note_off_c, 0, 61, 0
2, 441840, Note_on_c, 0, 81, 87
2, 441916, Note_off_c, 0, 81, 0
2, 441952, Note_off_c, 0, 66, 0
2, 442016, Note_on_c, 0, 82, 96
2, 442028, Note_on_c, 0, 73, 62
2, 442080, Note_off_c, 0, 73, 0
2, 442120, Note_off_c, 0, 82, 0
2, 442240, Note_on_c, 0, 87, 95
2, 442260, Note_on_c, 0, 78, 68
2, 442312, Note_off_c, 0, 78, 0
2, 442400, Note_off_c, 0, 87, 0
2, 442456, Note_on_c, 0, 85, 89
2, 442476, Note_on_c, 0, 76, 74
2, 442540, Note_off_c, 0, 76, 0
2, 442576, Note_off_c, 0, 85, 0
2, 442744, Note_on_c, 0, 83, 92
2, 442752, Note_on_c, 0, 75, 64
2, 442792, Note_on_c, 0, 35, 48
2, 442820, Control_c, 0, 64, 72
2, 442832, Control_c, 0, 64, 0
2, 443000, Control_c, 0, 64, 88
2, 443016, Control_c, 0, 64, 127
2, 443076, Note_on_c, 0, 42, 35
2, 443212, Note_off_c, 0, 83, 0
2, 443224, Note_on_c, 0, 47, 63
2, 443228, Note_off_c, 0, 35, 0
2, 443240, Note_off_c, 0, 42, 0
2, 443256, Note_off_c, 0, 47, 0
2, 443400, Note_on_c, 0, 83, 92
2, 443408, Note_on_c, 0, 54, 30
2, 443528, Note_off_c, 0, 75, 0
2, 443548, Note_off_c, 0, 83, 0
2, 443552, Note_on_c, 0, 57, 56
2, 443608, Note_off_c, 0, 54, 0
2, 443684, Note_on_c, 0, 63, 58
2, 443832, Note_on_c, 0, 66, 61
2, 444000, Note_on_c, 0, 75, 85
2, 444044, Note_on_c, 0, 69, 28
2, 444592, Note_off_c, 0, 75, 0
2, 444600, Note_on_c, 0, 80, 86
2, 444792, Note_off_c, 0, 66, 0
2, 444844, Note_off_c, 0, 63, 0
2, 444860, Note_off_c, 0, 57, 0
2, 444980, Note_off_c, 0, 80, 0
2, 445056, Note_off_c, 0, 69, 0
2, 445060, Note_on_c, 0, 78, 89
2, 445168, Note_off_c, 0, 78, 0
2, 445244, Note_on_c, 0, 77, 85
2, 445252, Note_on_c, 0, 74, 60
2, 445252, Note_on_c, 0, 68, 55
2, 445284, Note_on_c, 0, 35, 33
2, 445320, Control_c, 0, 64, 88
2, 445332, Control_c, 0, 64, 0
2, 445440, Control_c, 0, 64, 127
2, 445512, Note_off_c, 0, 35, 0
2, 445512, Note_on_c, 0, 47, 60
2, 445540, Note_off_c, 0, 47, 0
2, 445644, Note_off_c, 0, 74, 0
2, 445688, Note_on_c, 0, 50, 33
2, 445700, Note_on_c, 0, 48, 25
2, 445720, Note_off_c, 0, 48, 0
2, 445800, Note_off_c, 0, 77, 0
2, 445816, Note_on_c, 0, 73, 81
2, 445836, Note_on_c, 0, 53, 55
2, 445872, Note_off_c, 0, 50, 0
2, 445960, Note_on_c, 0, 56, 55
2, 445992, Note_off_c, 0, 68, 0
2, 446008, Note_off_c, 0, 53, 0
2, 446116, Note_on_c, 0, 59, 66
2, 446264, Note_on_c, 0, 71, 82
2, 446272, Note_off_c, 0, 59, 0
2, 446280, Note_on_c, 0, 65, 50
2, 446284, Note_off_c, 0, 56, 0
2, 446296, Note_off_c, 0, 73, 0
2, 446344, Note_off_c, 0, 71, 0
2, 446344, Note_off_c, 0, 65, 0
2, 446492, Note_on_c, 0, 76, 83
2, 446504, Note_on_c, 0, 67, 54
2, 446508, Note_on_c, 0, 70, 50
2, 446648, Control_c, 0, 64, 104
2, 446664, Control_c, 0, 64, 0
2, 446756, Control_c, 0, 64, 127
2, 446896, Note_off_c, 0, 67, 0
2, 447048, Note_off_c, 0, 76, 0
2, 447092, Note_on_c, 0, 75, 71
2, 447100, Note_on_c, 0, 66, 44
2, 447176, Control_c, 0, 64, 104
2, 447188, Control_c, 0, 64, 40
2, 447204, Control_c, 0, 64, 0
2, 447232, Control_c, 0, 64, 56
2, 447244, Control_c, 0, 64, 104
2, 447256, Control_c, 0, 64, 127
2, 447396, Note_off_c, 0, 66, 0
2, 447496, Note_off_c, 0, 70, 0
2, 447500, Note_off_c, 0, 75, 0
2, 447584, Note_on_c, 0, 73, 71
2, 447592, Note_on_c, 0, 64, 64
2, 447644, Note_off_c, 0, 64, 0
2, 447676, Note_off_c, 0, 73, 0
2, 447804, Note_on_c, 0, 71, 67
2, 447804, Note_on_c, 0, 63, 55
2, 447836, Note_on_c, 0, 35, 47
2, 447888, Control_c, 0, 64, 56
2, 447900, Control_c, 0, 64, 0
2, 448008, Control_c, 0, 64, 72
2, 448020, Control_c, 0, 64, 127
2, 448064, Note_on_c, 0, 42, 36
2, 448108, Note_on_c, 0, 70, 76
2, 448112, Note_off_c, 0, 71, 0
2, 448200, Note_off_c, 0, 35, 0
2, 448220, Note_on_c, 0, 47, 53
2, 448224, Note_off_c, 0, 42, 0
2, 448248, Note_off_c, 0, 47, 0
2, 448260, Note_off_c, 0, 70, 0
2, 448352, Note_off_c, 0, 63, 0
2, 448376, Note_on_c, 0, 51, 52
2, 448396, Note_on_c, 0, 69, 70
2, 448528, Note_on_c, 0, 54, 51
2, 448672, Note_off_c, 0, 69, 0
2, 448688, Note_on_c, 0, 68, 64
2, 448700, Note_on_c, 0, 57, 49
2, 448716, Note_off_c, 0, 54, 0
2, 448752, Note_off_c, 0, 51, 0
2, 448836, Note_on_c, 0, 58, 49
2, 448876, Note_off_c, 0, 57, 0
2, 448924, Note_off_c, 0, 58, 0
2, 449000, Note_on_c, 0, 66, 64
2, 449016, Note_off_c, 0, 68, 0
2, 449020, Note_on_c, 0, 60, 47
2, 449100, Control_c, 0, 64, 104
2, 449112, Control_c, 0, 64, 40
2, 449124, Control_c, 0, 64, 0
2, 449168, Note_off_c, 0, 60, 0
2, 449172, Note_on_c, 0, 57, 51
2, 449204, Control_c, 0, 64, 104
2, 449220, Control_c, 0, 64, 127
2, 449276, Note_off_c, 0, 57, 0
2, 449316, Note_on_c, 0, 54, 53
2, 449468, Note_on_c, 0, 51, 61
2, 449484, Note_off_c, 0, 54, 0
2, 449560, Note_off_c, 0, 51, 0
2, 449624, Note_on_c, 0, 68, 69
2, 449648, Note_on_c, 0, 48, 60
2, 449668, Note_off_c, 0, 66, 0
2, 449796, Note_on_c, 0, 47, 55
2, 449800, Note_off_c, 0, 48, 0
2, 449896, Note_off_c, 0, 47, 0
2, 449928, Note_on_c, 0, 46, 56
2, 450052, Note_off_c, 0, 68, 0
2, 450060, Note_off_c, 0, 46, 0
2, 450092, Note_on_c, 0, 66, 72
2, 450108, Note_on_c, 0, 45, 51
2, 450176, Note_off_c, 0, 66, 0
2, 450320, Note_off_c, 0, 45, 0
2, 450356, Note_on_c, 0, 65, 74
2, 450356, Note_on_c, 0, 63, 59
2, 450368, Note_on_c, 0, 59, 49
2, 450372, Note_on_c, 0, 44, 40
2, 450404, Control_c, 0, 64, 88
2, 450416, Control_c, 0, 64, 24
2, 450432, Control_c, 0, 64, 0
2, 450560, Control_c, 0, 64, 88
2, 450576, Control_c, 0, 64, 127
2, 450652, Note_off_c, 0, 59, 0
2, 450656, Note_off_c, 0, 44, 0
2, 450656, Note_on_c, 0, 37, 42
2, 450680, Note_off_c, 0, 63, 0
2, 450800, Note_off_c, 0, 37, 0
2, 450800, Note_on_c, 0, 44, 50
2, 450972, Note_off_c, 0, 44, 0
2, 450988, Note_on_c, 0, 61, 59
2, 450996, Note_on_c, 0, 58, 46
2, 451000, Note_on_c, 0, 49, 44
2, 451128, Note_off_c, 0, 49, 0
2, 451156, Note_on_c, 0, 56, 53
2, 451160, Note_off_c, 0, 58, 0
2, 451184, Note_off_c, 0, 61, 0
2, 451232, Note_off_c, 0, 56, 0
2, 451320, Note_on_c, 0, 49, 49
2, 451328, Note_on_c, 0, 59, 65
2, 451336, Note_on_c, 0, 56, 54
2, 451444, Note_off_c, 0, 59, 0
2, 451456, Note_off_c, 0, 56, 0
2, 451468, Note_off_c, 0, 49, 0
2, 451476, Note_on_c, 0, 44, 40
2, 451484, Note_off_c, 0, 65, 0
2, 451508, Note_off_c, 0, 44, 0
2, 451608, Note_on_c, 0, 52, 62
2, 451656, Control_c, 0, 64, 40
2, 451668, Control_c, 0, 64, 0
2, 451700, Note_on_c, 0, 58, 56
2, 451712, Note_on_c, 0, 42, 46
2, 451732, Control_c, 0, 64, 40
2, 451748, Control_c, 0, 64, 127
2, 451776, Note_off_c, 0, 42, 0
2, 451808, Note_on_c, 0, 44, 30
2, 451848, Note_off_c, 0, 44, 0
2, 451868, Note_on_c, 0, 66, 77
2, 451884, Note_on_c, 0, 42, 38
2, 451932, Note_off_c, 0, 42, 0
2, 451960, Note_on_c, 0, 44, 38
2, 451996, Note_off_c, 0, 44, 0
2, 452032, Note_on_c, 0, 42, 35
2, 452084, Note_off_c, 0, 42, 0
2, 452096, Note_on_c, 0, 44, 35
2, 452148, Note_off_c, 0, 44, 0
2, 452168, Note_on_c, 0, 42, 40
2, 452204, Note_off_c, 0, 52, 0
2, 452220, Note_off_c, 0, 42, 0
2, 452232, Note_on_c, 0, 44, 33
2, 452244, Note_off_c, 0, 58, 0
2, 452288, Note_off_c, 0, 44, 0
2, 452304, Note_on_c, 0, 42, 39
2, 452308, Note_off_c, 0, 66, 0
2, 452360, Note_off_c, 0, 42, 0
2, 452380, Note_on_c, 0, 44, 38
2, 452424, Note_off_c, 0, 44, 0
2, 452436, Note_on_c, 0, 42, 37
2, 452496, Note_off_c, 0, 42, 0
2, 452508, Note_on_c, 0, 44, 47
2, 452576, Note_off_c, 0, 44, 0
2, 452600, Note_on_c, 0, 42, 45
2, 452612, Note_on_c, 0, 73, 85
2, 452620, Note_on_c, 0, 58, 48
2, 452636, Note_on_c, 0, 64, 58
2, 452672, Note_off_c, 0, 42, 0
2, 452680, Note_on_c, 0, 44, 48
2, 452744, Note_off_c, 0, 44, 0
2, 452764, Note_on_c, 0, 42, 36
2, 452824, Note_off_c, 0, 42, 0
2, 452832, Note_on_c, 0, 44, 45
2, 452896, Note_off_c, 0, 44, 0
2, 452908, Note_on_c, 0, 42, 46
2, 452972, Note_off_c, 0, 42, 0
2, 452984, Note_on_c, 0, 44, 47
2, 453048, Note_off_c, 0, 44, 0
2, 453060, Note_on_c, 0, 42, 46
2, 453164, Note_off_c, 0, 42, 0
2, 453172, Note_on_c, 0, 41, 53
2, 453232, Note_off_c, 0, 73, 0
2, 453288, Note_off_c, 0, 58, 0
2, 453300, Note_off_c, 0, 41, 0
2, 453312, Note_off_c, 0, 64, 0
2, 453324, Note_on_c, 0, 42, 45
2, 453348, Note_on_c, 0, 71, 73
2, 453464, Note_off_c, 0, 71, 0
2, 453476, Note_off_c, 0, 42, 0
2, 453684, Note_on_c, 0, 71, 68
2, 453684, Note_on_c, 0, 59, 36
2, 453684, Note_on_c, 0, 47, 35
2, 453684, Note_on_c, 0, 35, 38
2, 453684, Note_on_c, 0, 63, 40
2, 453740, Note_on_c, 0, 59, 28
2, 453744, Note_on_c, 0, 35, 39
2, 453748, Note_on_c, 0, 63, 29
2, 453768, Note_on_c, 0, 35, 30
2, 453772, Control_c, 0, 64, 24
2, 453784, Control_c, 0, 64, 56
2, 453800, Control_c, 0, 64, 72
2, 453812, Control_c, 0, 64, 88
2, 453884, Control_c, 0, 64, 127
2, 453896, Note_off_c, 0, 35, 0
2, 453896, Note_off_c, 0, 35, 0
2, 453924, Note_on_c, 0, 42, 30
2, 453988, Note_off_c, 0, 63, 0
2, 454028, Note_off_c, 0, 42, 0
2, 454036, Note_off_c, 0, 59, 0
2, 454072, Note_on_c, 0, 51, 45
2, 454140, Note_off_c, 0, 51, 0
2, 454216, Note_on_c, 0, 42, 40
2, 454224, Note_on_c, 0, 63, 59
2, 454356, Note_off_c, 0, 63, 0
2, 454356, Note_off_c, 0, 42, 0
2, 454356, Control_c, 0, 64, 72
2, 454368, Control_c, 0, 64, 0
2, 454384, Note_on_c, 0, 61, 59
2, 454396, Note_on_c, 0, 35, 50
2, 454452, Note_off_c, 0, 35, 0
2, 454456, Control_c, 0, 64, 40
2, 454468, Control_c, 0, 64, 88
2, 454480, Control_c, 0, 64, 127
2, 454488, Note_off_c, 0, 47, 0
2, 454500, Note_off_c, 0, 61, 0
2, 454512, Note_off_c, 0, 59, 0
2, 454512, Note_off_c, 0, 35, 0
2, 454524, Note_off_c, 0, 63, 0
2, 454540, Note_on_c, 0, 59, 60
2, 454552, Note_on_c, 0, 42, 47
2, 454572, Note_off_c, 0, 71, 0
2, 454652, Note_off_c, 0, 42, 0
2, 454672, Note_off_c, 0, 59, 0
2, 454704, Note_on_c, 0, 54, 69
2, 454704, Note_on_c, 0, 51, 50
2, 454772, Note_off_c, 0, 51, 0
2, 454824, Note_off_c, 0, 54, 0
2, 454856, Note_on_c, 0, 42, 44
2, 454864, Note_on_c, 0, 63, 68
2, 454924, Control_c, 0, 64, 88
2, 454936, Control_c, 0, 64, 40
2, 454948, Control_c, 0, 64, 0
2, 455028, Note_off_c, 0, 42, 0
2, 455036, Control_c, 0, 64, 56
2, 455040, Note_on_c, 0, 35, 63
2, 455048, Control_c, 0, 64, 127
2, 455124, Note_off_c, 0, 63, 0
2, 455152, Note_off_c, 0, 35, 0
2, 455204, Note_on_c, 0, 42, 44
2, 455312, Note_off_c, 0, 42, 0
2, 455356, Note_on_c, 0, 51, 58
2, 455420, Note_off_c, 0, 51, 0
2, 455492, Note_on_c, 0, 66, 67
2, 455496, Note_on_c, 0, 42, 50
2, 455648, Note_off_c, 0, 66, 0
2, 455648, Note_off_c, 0, 42, 0
2, 455656, Control_c, 0, 64, 88
2, 455664, Note_on_c, 0, 64, 76
2, 455668, Note_on_c, 0, 35, 48
2, 455668, Control_c, 0, 64, 24
2, 455680, Control_c, 0, 64, 0
2, 455732, Control_c, 0, 64, 24
2, 455744, Control_c, 0, 64, 72
2, 455756, Control_c, 0, 64, 127
2, 455792, Note_off_c, 0, 64, 0
2, 455800, Note_off_c, 0, 35, 0
2, 455808, Note_on_c, 0, 63, 72
2, 455816, Note_on_c, 0, 42, 54
2, 455924, Note_off_c, 0, 42, 0
2, 455944, Note_off_c, 0, 63, 0
2, 455972, Note_on_c, 0, 51, 55
2, 455972, Note_on_c, 0, 59, 71
2, 456044, Note_off_c, 0, 51, 0
2, 456096, Note_off_c, 0, 59, 0
2, 456112, Note_on_c, 0, 42, 51
2, 456124, Note_on_c, 0, 66, 71
2, 456200, Control_c, 0, 64, 88
2, 456212, Control_c, 0, 64, 24
2, 456228, Control_c, 0, 64, 0
2, 456268, Note_off_c, 0, 42, 0
2, 456296, Note_on_c, 0, 35, 70
2, 456300, Control_c, 0, 64, 88
2, 456316, Control_c, 0, 64, 127
2, 456388, Note_off_c, 0, 66, 0
2, 456408, Note_off_c, 0, 35, 0
2, 456444, Note_on_c, 0, 42, 48
2, 456564, Note_off_c, 0, 42, 0
2, 456600, Note_on_c, 0, 51, 58
2, 456676, Note_off_c, 0, 51, 0
2, 456728, Note_on_c, 0, 70, 73
2, 456732, Note_on_c, 0, 42, 49
2, 456860, Note_off_c, 0, 70, 0
2, 456872, Control_c, 0, 64, 104
2, 456880, Note_off_c, 0, 42, 0
2, 456880, Note_on_c, 0, 68, 73
2, 456884, Control_c, 0, 64, 56
2, 456896, Control_c, 0, 64, 0
2, 456904, Note_on_c, 0, 35, 53
2, 456936, Control_c, 0, 64, 24
2, 456948, Control_c, 0, 64, 72
2, 456960, Control_c, 0, 64, 127
2, 457012, Note_off_c, 0, 35, 0
2, 457036, Note_on_c, 0, 66, 70
2, 457036, Note_on_c, 0, 42, 58
2, 457076, Note_off_c, 0, 68, 0
2, 457124, Note_off_c, 0, 66, 0
2, 457136, Note_off_c, 0, 42, 0
2, 457196, Note_on_c, 0, 63, 68
2, 457208, Note_on_c, 0, 54, 54
2, 457320, Note_off_c, 0, 54, 0
2, 457324, Note_off_c, 0, 63, 0
2, 457336, Note_on_c, 0, 42, 57
2, 457336, Note_on_c, 0, 59, 66
2, 457388, Note_off_c, 0, 59, 0
2, 457392, Note_off_c, 0, 42, 0
2, 457468, Control_c, 0, 64, 104
2, 457480, Control_c, 0, 64, 56
2, 457488, Note_on_c, 0, 73, 77
2, 457492, Note_on_c, 0, 35, 60
2, 457492, Control_c, 0, 64, 0
2, 457556, Control_c, 0, 64, 40
2, 457568, Control_c, 0, 64, 127
2, 457592, Note_off_c, 0, 73, 0
2, 457592, Note_off_c, 0, 35, 0
2, 457632, Note_on_c, 0, 71, 74
2, 457648, Note_on_c, 0, 42, 57
2, 457712, Note_off_c, 0, 42, 0
2, 457768, Note_off_c, 0, 71, 0
2, 457776, Note_on_c, 0, 66, 72
2, 457796, Note_on_c, 0, 54, 56
2, 457872, Note_off_c, 0, 54, 0
2, 457888, Note_off_c, 0, 66, 0
2, 457920, Note_on_c, 0, 63, 70
2, 457940, Note_on_c, 0, 42, 58
2, 457984, Note_off_c, 0, 42, 0
2, 457992, Note_off_c, 0, 63, 0
2, 458072, Note_on_c, 0, 76, 89
2, 458072, Control_c, 0, 64, 72
2, 458076, Note_on_c, 0, 35, 64
2, 458088, Control_c, 0, 64, 0
2, 458160, Control_c, 0, 64, 72
2, 458172, Control_c, 0, 64, 127
2, 458184, Note_off_c, 0, 76, 0
2, 458200, Note_off_c, 0, 35, 0
2, 458216, Note_on_c, 0, 75, 80
2, 458228, Note_on_c, 0, 42, 61
2, 458300, Note_off_c, 0, 42, 0
2, 458344, Note_off_c, 0, 75, 0
2, 458364, Note_on_c, 0, 71, 74
2, 458376, Note_on_c, 0, 54, 60
2, 458444, Note_off_c, 0, 54, 0
2, 458464, Note_off_c, 0, 71, 0
2, 458492, Note_on_c, 0, 66, 68
2, 458512, Note_on_c, 0, 42, 54
2, 458552, Note_off_c, 0, 42, 0
2, 458568, Note_off_c, 0, 66, 0
2, 458644, Note_on_c, 0, 80, 92
2, 458660, Note_on_c, 0, 35, 54
2, 458668, Control_c, 0, 64, 72
2, 458680, Control_c, 0, 64, 24
2, 458720, Control_c, 0, 64, 104
2, 458732, Control_c, 0, 64, 127
2, 458768, Note_off_c, 0, 80, 0
2, 458772, Note_off_c, 0, 35, 0
2, 458796, Note_on_c, 0, 78, 84
2, 458808, Note_on_c, 0, 42, 64
2, 458896, Note_off_c, 0, 42, 0
2, 458936, Note_on_c, 0, 75, 74
2, 458956, Note_on_c, 0, 54, 57
2, 458972, Note_off_c, 0, 78, 0
2, 459016, Note_off_c, 0, 54, 0
2, 459060, Note_off_c, 0, 75, 0
2, 459068, Note_on_c, 0, 71, 81
2, 459100, Note_on_c, 0, 42, 54
2, 459120, Note_off_c, 0, 71, 0
2, 459232, Note_off_c, 0, 42, 0
2, 459236, Note_on_c, 0, 85, 96
2, 459244, Note_on_c, 0, 35, 64
2, 459332, Note_off_c, 0, 35, 0
2, 459352, Note_off_c, 0, 85, 0
2, 459388, Note_on_c, 0, 83, 87
2, 459392, Note_on_c, 0, 42, 69
2, 459480, Note_off_c, 0, 42, 0
2, 459516, Note_off_c, 0, 83, 0
2, 459524, Note_on_c, 0, 78, 85
2, 459536, Note_on_c, 0, 54, 62
2, 459612, Note_off_c, 0, 54, 0
2, 459636, Note_off_c, 0, 78, 0
2, 459660, Note_on_c, 0, 75, 84
2, 459680, Note_on_c, 0, 42, 64
2, 459760, Note_off_c, 0, 75, 0
2, 459812, Note_off_c, 0, 42, 0
2, 459816, Note_on_c, 0, 88, 99
2, 459820, Control_c, 0, 64, 104
2, 459824, Note_on_c, 0, 35, 67
2, 459832, Control_c, 0, 64, 40
2, 459844, Control_c, 0, 64, 0
2, 459884, Control_c, 0, 64, 56
2, 459896, Control_c, 0, 64, 127
2, 459908, Note_off_c, 0, 35, 0
2, 459920, Note_off_c, 0, 88, 0
2, 459956, Note_on_c, 0, 87, 87
2, 459960, Note_on_c, 0, 42, 67
2, 460072, Note_off_c, 0, 42, 0
2, 460084, Note_off_c, 0, 87, 0
2, 460100, Note_on_c, 0, 51, 73
2, 460108, Note_on_c, 0, 83, 82
2, 460200, Note_off_c, 0, 51, 0
2, 460212, Note_off_c, 0, 83, 0
2, 460228, Note_on_c, 0, 78, 85
2, 460244, Note_on_c, 0, 42, 63
2, 460320, Note_off_c, 0, 78, 0
2, 460380, Note_off_c, 0, 42, 0
2, 460388, Note_on_c, 0, 92, 105
2, 460396, Note_on_c, 0, 35, 64
2, 460484, Note_off_c, 0, 35, 0
2, 460500, Note_off_c, 0, 92, 0
2, 460532, Note_on_c, 0, 90, 88
2, 460540, Note_on_c, 0, 42, 77
2, 460644, Note_off_c, 0, 42, 0
2, 460680, Note_on_c, 0, 87, 77
2, 460692, Note_on_c, 0, 54, 61
2, 460732, Note_off_c, 0, 90, 0
2, 460772, Note_off_c, 0, 54, 0
2, 460816, Note_on_c, 0, 83, 89
2, 460820, Note_off_c, 0, 87, 0
2, 460836, Note_on_c, 0, 42, 64
2, 460876, Note_off_c, 0, 83, 0
2, 460972, Note_off_c, 0, 42, 0
2, 460984, Control_c, 0, 64, 56
2, 460988, Note_on_c, 0, 35, 75
2, 460988, Note_on_c, 0, 97, 100
2, 460996, Control_c, 0, 64, 0
2, 461060, Control_c, 0, 64, 104
2, 461072, Control_c, 0, 64, 127
2, 461084, Note_off_c, 0, 97, 0
2, 461092, Note_off_c, 0, 35, 0
2, 461136, Note_on_c, 0, 42, 67
2, 461144, Note_on_c, 0, 95, 97
2, 461240, Note_off_c, 0, 95, 0
2, 461248, Note_off_c, 0, 42, 0
2, 461280, Note_on_c, 0, 51, 75
2, 461288, Note_on_c, 0, 92, 87
2, 461360, Note_off_c, 0, 51, 0
2, 461396, Note_off_c, 0, 92, 0
2, 461424, Note_on_c, 0, 42, 61
2, 461432, Note_on_c, 0, 90, 80
2, 461556, Note_off_c, 0, 90, 0
2, 461572, Note_on_c, 0, 87, 81
2, 461576, Note_off_c, 0, 42, 0
2, 461580, Note_on_c, 0, 35, 75
2, 461580, Control_c, 0, 64, 88
2, 461592, Control_c, 0, 64, 24
2, 461604, Control_c, 0, 64, 0
2, 461656, Control_c, 0, 64, 56
2, 461668, Control_c, 0, 64, 127
2, 461692, Note_off_c, 0, 35, 0
2, 461712, Note_off_c, 0, 87, 0
2, 461716, Note_on_c, 0, 83, 84
2, 461716, Note_on_c, 0, 42, 71
2, 461800, Note_off_c, 0, 83, 0
2, 461828, Note_off_c, 0, 42, 0
2, 461868, Note_on_c, 0, 80, 76
2, 461876, Note_on_c, 0, 54, 72
2, 461952, Note_off_c, 0, 54, 0
2, 461988, Note_off_c, 0, 80, 0
2, 461996, Note_on_c, 0, 78, 84
2, 462004, Note_on_c, 0, 42, 70
2, 462124, Note_off_c, 0, 78, 0
2, 462136, Note_on_c, 0, 75, 73
2, 462148, Note_off_c, 0, 42, 0
2, 462148, Control_c, 0, 64, 88
2, 462164, Note_on_c, 0, 35, 77
2, 462164, Control_c, 0, 64, 24
2, 462172, Control_c, 0, 64, 0
2, 462212, Control_c, 0, 64, 24
2, 462224, Control_c, 0, 64, 88
2, 462236, Control_c, 0, 64, 127
2, 462256, Note_off_c, 0, 35, 0
2, 462284, Note_off_c, 0, 75, 0
2, 462288, Note_on_c, 0, 71, 74
2, 462304, Note_on_c, 0, 42, 64
2, 462360, Note_off_c, 0, 71, 0
2, 462412, Note_off_c, 0, 42, 0
2, 462436, Note_on_c, 0, 51, 79
2, 462444, Note_on_c, 0, 68, 72
2, 462524, Note_off_c, 0, 51, 0
2, 462560, Note_off_c, 0, 68, 0
2, 462580, Note_on_c, 0, 42, 64
2, 462584, Note_on_c, 0, 66, 67
2, 462708, Control_c, 0, 64, 104
2, 462716, Note_off_c, 0, 66, 0
2, 462720, Note_off_c, 0, 42, 0
2, 462720, Control_c, 0, 64, 24
2, 462724, Note_on_c, 0, 63, 76
2, 462732, Control_c, 0, 64, 0
2, 462736, Note_on_c, 0, 35, 66
2, 462780, Control_c, 0, 64, 56
2, 462796, Control_c, 0, 64, 127
2, 462816, Note_off_c, 0, 35, 0
2, 462868, Note_off_c, 0, 63, 0
2, 462876, Note_on_c, 0, 59, 80
2, 462884, Note_on_c, 0, 42, 65
2, 462960, Note_off_c, 0, 42, 0
2, 462968, Note_off_c, 0, 59, 0
2, 463032, Note_on_c, 0, 54, 62
2, 463032, Note_on_c, 0, 56, 83
2, 463088, Note_off_c, 0, 54, 0
2, 463140, Note_off_c, 0, 56, 0
2, 463160, Note_on_c, 0, 42, 69
2, 463176, Note_on_c, 0, 54, 71
2, 463200, Note_off_c, 0, 42, 0
2, 463288, Note_off_c, 0, 54, 0
2, 463360, Control_c, 0, 64, 104
2, 463376, Control_c, 0, 64, 0
2, 463388, Note_on_c, 0, 47, 74
2, 463388, Note_on_c, 0, 35, 66
2, 463452, Control_c, 0, 64, 56
2, 463464, Control_c, 0, 64, 127
2, 463492, Note_off_c, 0, 47, 0
2, 463516, Note_off_c, 0, 35, 0
2, 464008, Control_c, 0, 64, 88
2, 464020, Control_c, 0, 64, 56
2, 464036, Control_c, 0, 64, 24
2, 464048, Control_c, 0, 64, 0
2, 464424, Control_c, 0, 64, 40
2, 464440, Note_on_c, 0, 59, 99
2, 464440, Note_on_c, 0, 32, 79
2, 464440, Note_on_c, 0, 44, 89
2, 464440, Note_on_c, 0, 51, 79
2, 464440, Control_c, 0, 64, 88
2, 464452, Control_c, 0, 64, 127
2, 464484, Note_off_c, 0, 51, 0
2, 464488, Note_off_c, 0, 44, 0
2, 464492, Note_off_c, 0, 32, 0
2, 464544, Note_off_c, 0, 59, 0
2, 464932, Control_c, 0, 64, 88
2, 464944, Control_c, 0, 64, 56
2, 464956, Control_c, 0, 64, 24
2, 464972, Control_c, 0, 64, 0
2, 465044, Note_on_c, 0, 61, 91
2, 465044, Note_on_c, 0, 58, 72
2, 465044, Note_on_c, 0, 52, 78
2, 465044, Note_on_c, 0, 30, 69
2, 465044, Note_on_c, 0, 42, 84
2, 465084, Control_c, 0, 64, 40
2, 465092, Note_off_c, 0, 42, 0
2, 465100, Note_off_c, 0, 30, 0
2, 465100, Control_c, 0, 64, 104
2, 465104, Note_off_c, 0, 52, 0
2, 465108, Control_c, 0, 64, 127
2, 465144, Note_off_c, 0, 58, 0
2, 465168, Note_off_c, 0, 61, 0
2, 465684, Note_on_c, 0, 63, 85
2, 465684, Note_on_c, 0, 54, 64
2, 465684, Note_on_c, 0, 42, 52
2, 465684, Note_on_c, 0, 35, 63
2, 465684, Note_on_c, 0, 47, 68
2, 465684, Note_on_c, 0, 59, 63
2, 465684, Note_on_c, 0, 51, 75
2, 465744, Control_c, 0, 64, 72
2, 465756, Control_c, 0, 64, 24
2, 465768, Control_c, 0, 64, 0
2, 465968, Control_c, 0, 64, 127
2, 466036, Note_off_c, 0, 59, 0
2, 466048, Note_off_c, 0, 54, 0
2, 466048, Note_off_c, 0, 51, 0
2, 466088, Note_off_c, 0, 35, 0
2, 466116, Note_off_c, 0, 47, 0
2, 466132, Note_off_c, 0, 63, 0
2, 466132, Note_off_c, 0, 42, 0
2, 466904, Control_c, 0, 64, 104
2, 466920, Control_c, 0, 64, 56
2, 466932, Control_c, 0, 64, 0
2, 466964, Note_on_c, 0, 78, 95
2, 466964, Note_on_c, 0, 66, 83
2, 466964, Note_on_c, 0, 70, 77
2, 466964, Note_on_c, 0, 42, 80
2, 466964, Note_on_c, 0, 54, 79
2, 466964, Note_on_c, 0, 76, 82
2, 467160, Control_c, 0, 64, 127
2, 467208, Note_off_c, 0, 42, 0
2, 467216, Note_off_c, 0, 54, 0
2, 467260, Note_off_c, 0, 66, 0
2, 467264, Note_off_c, 0, 76, 0
2, 467272, Note_off_c, 0, 70, 0
2, 467288, Note_off_c, 0, 78, 0
2, 468320, Note_on_c, 0, 75, 93
2, 468320, Note_on_c, 0, 63, 75
2, 468320, Note_on_c, 0, 59, 71
2, 468320, Note_on_c, 0, 54, 61
2, 468320, Note_on_c, 0, 47, 78
2, 468320, Note_on_c, 0, 66, 71
2, 468320, Note_on_c, 0, 71, 81
2, 468412, Control_c, 0, 64, 72
2, 468424, Control_c, 0, 64, 0
2, 468444, Note_off_c, 0, 47, 0
2, 468564, Control_c, 0, 64, 127
2, 469020, Control_c, 0, 64, 104
2, 469032, Control_c, 0, 64, 127
2, 469276, Note_off_c, 0, 59, 0
2, 469276, Note_off_c, 0, 63, 0
2, 469280, Note_off_c, 0, 66, 0
2, 469280, Note_off_c, 0, 71, 0
2, 469284, Note_off_c, 0, 54, 0
2, 469292, Note_off_c, 0, 75, 0
2, 469880, Control_c, 0, 64, 88
2, 469892, Control_c, 0, 64, 56
2, 469904, Control_c, 0, 64, 0
2, 470344, Control_c, 0, 64, 104
2, 470360, Control_c, 0, 64, 72
2, 470372, Control_c, 0, 64, 40
2, 470384, Control_c, 0, 64, 0
2, 470384, End_track
3, 0, Start_track
3, 0, Title_t, "1st mov.  Allegro"
3, 0, Key_signature, 0, "major"
3, 0, End_track
4, 0, Start_track
4, 0, Title_t, "Robert Finley, piano"
4, 0, Key_signature, 0, "major"
4, 0, End_track
5, 0, Start_track
5, 0, Key_signature, 0, "major"
5, 0, End_track
6, 0, Start_track
6, 0, Key_signature, 0, "major"
6, 0, End_track
7, 0, Start_track
7, 0, Key_signature, 0, "major"
7, 0, End_track
8, 0, Start_track
8, 0, Key_signature, 0, "major"
8, 0, End_track
9, 0, Start_track
9, 0, Key_signature, 0, "major"
9, 0, End_track
10, 0, Start_track
10, 0, Key_signature, 0, "major"
10, 0, End_track
11, 0, Start_track
11, 0, Key_signature, 0, "major"
11, 0, End_track
0, 0, End_of_file