0, 0, Header, 1, 10, 480
1, 0, Start_track
1, 0, Title_t, "Chopin Prelude  No. 16, Opus 28"
1, 0, Copyright_t, "Copyright \251 2002 by Bernd Krueger "
1, 0, Text_t, "Frederic Chopin"
1, 0, Text_t, "Presto con fuoco"
1, 0, Text_t, "Fertiggestellt am 24.10.02\012"
1, 0, Text_t, "Normierung: 23.12.2002\012"
1, 0, Text_t, "Dauer: 1:03 Minuten\012"
1, 0, SMPTE_offset, 96, 0, 3, 0, 0
1, 0, Time_signature, 4, 2, 24, 8
1, 0, Key_signature, -5, "major"
1, 0, Tempo, 724463
1, 120, Tempo, 1232286
1, 320, Tempo, 632511
1, 720, Tempo, 528541
1, 960, Tempo, 477669
1, 1280, Tempo, 498504
1, 1680, Tempo, 3858521
1, 1920, Tempo, 330396
1, 2160, Tempo, 319030
1, 2360, Tempo, 318032
1, 2640, Tempo, 317058
1, 2880, Tempo, 322061
1, 3120, Tempo, 316022
1, 3360, Tempo, 314103
1, 3600, Tempo, 317007
1, 3840, Tempo, 319030
1, 4080, Tempo, 311219
1, 4320, Tempo, 310270
1, 4560, Tempo, 309342
1, 4800, Tempo, 315060
1, 5080, Tempo, 308388
1, 5320, Tempo, 309342
1, 5560, Tempo, 310270
1, 5760, Tempo, 316022
1, 6040, Tempo, 312191
1, 6280, Tempo, 313136
1, 6520, Tempo, 314103
1, 6720, Tempo, 321010
1, 7000, Tempo, 316022
1, 7240, Tempo, 317058
1, 7480, Tempo, 318032
1, 7640, Tempo, 320034
1, 7680, Tempo, 323922
1, 7920, Tempo, 319030
1, 8200, Tempo, 318032
1, 8400, Tempo, 322165
1, 8760, Tempo, 316022
1, 9040, Tempo, 315060
1, 9320, Tempo, 314103
1, 9360, Tempo, 318708
1, 9600, Tempo, 321010
1, 9840, Tempo, 313136
1, 10080, Tempo, 322061
1, 10320, Tempo, 321010
1, 10560, Tempo, 320034
1, 10800, Tempo, 319030
1, 11000, Tempo, 318032
1, 11240, Tempo, 317058
1, 11280, Tempo, 313136
1, 11480, Tempo, 316022
1, 11520, Tempo, 322061
1, 11720, Tempo, 315060
1, 11760, Tempo, 314103
1, 11920, Tempo, 314103
1, 12160, Tempo, 313136
1, 12400, Tempo, 312191
1, 12480, Tempo, 325715
1, 12640, Tempo, 317074
1, 12720, Tempo, 316239
1, 12800, Tempo, 315391
1, 12840, Tempo, 314564
1, 12920, Tempo, 313742
1, 12960, Tempo, 312924
1, 13000, Tempo, 311284
1, 13040, Tempo, 313742
1, 13080, Tempo, 316239
1, 13120, Tempo, 318759
1, 13160, Tempo, 320479
1, 13200, Tempo, 329290
1, 13240, Tempo, 338639
1, 13280, Tempo, 348493
1, 13320, Tempo, 358980
1, 13360, Tempo, 370073
1, 13400, Tempo, 381922
1, 13440, Tempo, 315060
1, 13680, Tempo, 307456
1, 13800, Tempo, 309342
1, 14160, Tempo, 310270
1, 14400, Tempo, 320034
1, 14640, Tempo, 311219
1, 14880, Tempo, 312191
1, 15240, Tempo, 313136
1, 15560, Tempo, 314103
1, 15920, Tempo, 315060
1, 16280, Tempo, 316022
1, 16640, Tempo, 317058
1, 17000, Tempo, 318032
1, 17280, Tempo, 318032
1, 17440, Tempo, 317058
1, 17600, Tempo, 316022
1, 17760, Tempo, 315060
1, 17880, Tempo, 314103
1, 18040, Tempo, 313136
1, 18200, Tempo, 312191
1, 18240, Tempo, 317058
1, 18480, Tempo, 312191
1, 18600, Tempo, 313136
1, 18720, Tempo, 314103
1, 18880, Tempo, 315060
1, 19000, Tempo, 316022
1, 19120, Tempo, 317058
1, 19160, Tempo, 316022
1, 19360, Tempo, 315060
1, 19560, Tempo, 314103
1, 19760, Tempo, 313136
1, 19960, Tempo, 312191
1, 20120, Tempo, 311219
1, 20160, Tempo, 320034
1, 20320, Tempo, 312191
1, 20400, Tempo, 312191
1, 20480, Tempo, 313136
1, 20680, Tempo, 314103
1, 20840, Tempo, 315060
1, 21000, Tempo, 316022
1, 21040, Tempo, 313136
1, 21120, Tempo, 312761
1, 21240, Tempo, 311915
1, 21360, Tempo, 311058
1, 21440, Tempo, 310222
1, 21560, Tempo, 309374
1, 21640, Tempo, 308547
1, 21760, Tempo, 307708
1, 21840, Tempo, 306890
1, 21960, Tempo, 306060
1, 22040, Tempo, 305235
1, 22080, Tempo, 314103
1, 22280, Tempo, 305235
1, 22400, Tempo, 306060
1, 22520, Tempo, 306890
1, 22640, Tempo, 307708
1, 22760, Tempo, 308547
1, 22880, Tempo, 309374
1, 23000, Tempo, 310222
1, 23160, Tempo, 309374
1, 23280, Tempo, 308547
1, 23440, Tempo, 307708
1, 23560, Tempo, 306890
1, 23720, Tempo, 306060
1, 23840, Tempo, 305235
1, 23960, Tempo, 304429
1, 24000, Tempo, 312191
1, 24200, Tempo, 304429
1, 24480, Tempo, 305235
1, 24560, Tempo, 306060
1, 24920, Tempo, 305235
1, 24960, Tempo, 309342
1, 25320, Tempo, 306513
1, 25440, Tempo, 303613
1, 25680, Tempo, 298849
1, 25920, Tempo, 312191
1, 26120, Tempo, 306513
1, 26160, Tempo, 302008
1, 26240, Tempo, 302816
1, 26320, Tempo, 303613
1, 26360, Tempo, 304429
1, 26440, Tempo, 305235
1, 26520, Tempo, 306060
1, 26560, Tempo, 306890
1, 26640, Tempo, 307708
1, 26720, Tempo, 308547
1, 26760, Tempo, 309374
1, 26840, Tempo, 312191
1, 26880, Tempo, 311915
1, 27000, Tempo, 311058
1, 27120, Tempo, 310222
1, 27200, Tempo, 309374
1, 27320, Tempo, 308547
1, 27400, Tempo, 307708
1, 27520, Tempo, 306890
1, 27600, Tempo, 306060
1, 27720, Tempo, 305235
1, 27800, Tempo, 304429
1, 27840, Tempo, 307456
1, 27880, Tempo, 314103
1, 28080, Tempo, 305235
1, 28160, Tempo, 306060
1, 28240, Tempo, 306890
1, 28280, Tempo, 307708
1, 28360, Tempo, 308547
1, 28400, Tempo, 309374
1, 28480, Tempo, 310222
1, 28560, Tempo, 311058
1, 28600, Tempo, 311915
1, 28680, Tempo, 312761
1, 28720, Tempo, 313627
1, 28760, Tempo, 316022
1, 28840, Tempo, 314103
1, 29000, Tempo, 313136
1, 29120, Tempo, 312191
1, 29240, Tempo, 311219
1, 29400, Tempo, 310270
1, 29520, Tempo, 309342
1, 29640, Tempo, 308388
1, 29760, Tempo, 307456
1, 29880, Tempo, 308388
1, 30000, Tempo, 309342
1, 30080, Tempo, 310270
1, 30200, Tempo, 311219
1, 30280, Tempo, 312191
1, 30400, Tempo, 313136
1, 30480, Tempo, 314103
1, 30600, Tempo, 315060
1, 30680, Tempo, 316022
1, 30720, Tempo, 323032
1, 31680, Tempo, 317847
1, 31800, Tempo, 318708
1, 31880, Tempo, 319557
1, 31960, Tempo, 320427
1, 32080, Tempo, 321285
1, 32120, Tempo, 320479
1, 32160, Tempo, 329290
1, 32200, Tempo, 339578
1, 32240, Tempo, 349528
1, 32280, Tempo, 361141
1, 32320, Tempo, 373552
1, 32360, Tempo, 385604
1, 32400, Tempo, 399787
1, 32440, Tempo, 413622
1, 32480, Tempo, 429984
1, 32520, Tempo, 447694
1, 32600, Tempo, 326602
1, 32640, Tempo, 330396
1, 32880, Tempo, 319030
1, 33080, Tempo, 318032
1, 33360, Tempo, 322165
1, 33600, Tempo, 323067
1, 33840, Tempo, 315060
1, 34080, Tempo, 314103
1, 34320, Tempo, 317847
1, 34560, Tempo, 318032
1, 34800, Tempo, 311219
1, 35040, Tempo, 310270
1, 35280, Tempo, 312842
1, 35520, Tempo, 314103
1, 35800, Tempo, 308388
1, 36040, Tempo, 309342
1, 36280, Tempo, 310270
1, 36480, Tempo, 317058
1, 36760, Tempo, 312191
1, 37000, Tempo, 313136
1, 37240, Tempo, 314103
1, 37480, Tempo, 315060
1, 37720, Tempo, 316022
1, 37960, Tempo, 317058
1, 38160, Tempo, 323922
1, 38360, Tempo, 320034
1, 38400, Tempo, 332982
1, 38640, Tempo, 319030
1, 38920, Tempo, 318032
1, 39200, Tempo, 317058
1, 39360, Tempo, 322061
1, 39760, Tempo, 315060
1, 40040, Tempo, 314103
1, 40320, Tempo, 320034
1, 40800, Tempo, 322061
1, 41040, Tempo, 321010
1, 41280, Tempo, 320034
1, 41520, Tempo, 319030
1, 41720, Tempo, 318032
1, 41960, Tempo, 317058
1, 42200, Tempo, 316022
1, 42240, Tempo, 323067
1, 42440, Tempo, 315060
1, 42480, Tempo, 314103
1, 42640, Tempo, 314103
1, 42880, Tempo, 313136
1, 43120, Tempo, 312191
1, 43200, Tempo, 320034
1, 43360, Tempo, 313742
1, 43440, Tempo, 312924
1, 43480, Tempo, 312094
1, 43520, Tempo, 311284
1, 43560, Tempo, 310495
1, 43600, Tempo, 309677
1, 43640, Tempo, 309677
1, 43680, Tempo, 312094
1, 43720, Tempo, 315391
1, 43760, Tempo, 317914
1, 43800, Tempo, 321320
1, 43840, Tempo, 323957
1, 43880, Tempo, 327493
1, 43920, Tempo, 330215
1, 43960, Tempo, 333908
1, 44000, Tempo, 336719
1, 44040, Tempo, 340561
1, 44080, Tempo, 344471
1, 44160, Tempo, 313136
1, 44520, Tempo, 309342
1, 44880, Tempo, 319557
1, 45120, Tempo, 317847
1, 45360, Tempo, 312842
1, 45600, Tempo, 312191
1, 45960, Tempo, 313136
1, 46080, Tempo, 321010
1, 46280, Tempo, 314103
1, 46640, Tempo, 315060
1, 47000, Tempo, 316022
1, 47360, Tempo, 317058
1, 47720, Tempo, 318032
1, 48000, Tempo, 315358
1, 48120, Tempo, 314498
1, 48240, Tempo, 313627
1, 48360, Tempo, 312761
1, 48440, Tempo, 311915
1, 48560, Tempo, 311058
1, 48680, Tempo, 310222
1, 48800, Tempo, 309374
1, 48880, Tempo, 308547
1, 48920, Tempo, 312191
1, 48960, Tempo, 317058
1, 49200, Tempo, 308547
1, 49360, Tempo, 309374
1, 49480, Tempo, 310222
1, 49640, Tempo, 311058
1, 49760, Tempo, 311915
1, 49880, Tempo, 312761
1, 49920, Tempo, 314498
1, 50040, Tempo, 313627
1, 50160, Tempo, 312761
1, 50280, Tempo, 311915
1, 50360, Tempo, 311058
1, 50480, Tempo, 310222
1, 50600, Tempo, 309374
1, 50720, Tempo, 308547
1, 50800, Tempo, 307708
1, 50840, Tempo, 312191
1, 50880, Tempo, 318032
1, 51120, Tempo, 308547
1, 51240, Tempo, 309374
1, 51320, Tempo, 310222
1, 51400, Tempo, 311058
1, 51520, Tempo, 311915
1, 51600, Tempo, 312761
1, 51680, Tempo, 313627
1, 51760, Tempo, 314498
1, 51920, Tempo, 313627
1, 52040, Tempo, 312761
1, 52160, Tempo, 311915
1, 52280, Tempo, 311058
1, 52400, Tempo, 310222
1, 52520, Tempo, 309374
1, 52640, Tempo, 308547
1, 52760, Tempo, 307708
1, 52800, Tempo, 320034
1, 53040, Tempo, 307708
1, 53160, Tempo, 308547
1, 53240, Tempo, 309374
1, 53320, Tempo, 310222
1, 53400, Tempo, 311058
1, 53520, Tempo, 311915
1, 53600, Tempo, 312761
1, 53680, Tempo, 313627
1, 53760, Tempo, 314498
1, 53920, Tempo, 317058
1, 54080, Tempo, 316022
1, 54240, Tempo, 315060
1, 54360, Tempo, 314103
1, 54520, Tempo, 313136
1, 54680, Tempo, 312191
1, 54720, Tempo, 320034
1, 54960, Tempo, 312191
1, 55080, Tempo, 313136
1, 55200, Tempo, 314103
1, 55360, Tempo, 315060
1, 55480, Tempo, 316022
1, 55600, Tempo, 317058
1, 55640, Tempo, 316022
1, 55680, Tempo, 333463
1, 56160, Tempo, 326602
1, 56640, Tempo, 320684
1, 56760, Tempo, 342603
1, 56920, Tempo, 319846
1, 57120, Tempo, 324009
1, 57360, Tempo, 327368
1, 57600, Tempo, 325698
1, 57720, Tempo, 342603
1, 57840, Tempo, 326531
1, 58080, Tempo, 319047
1, 58320, Tempo, 324009
1, 58560, Tempo, 318708
1, 58680, Tempo, 331712
1, 58800, Tempo, 317427
1, 58960, Tempo, 315325
1, 59000, Tempo, 317007
1, 59120, Tempo, 317847
1, 59240, Tempo, 318708
1, 59320, Tempo, 319557
1, 59440, Tempo, 320427
1, 59960, Tempo, 317007
1, 60080, Tempo, 317847
1, 60160, Tempo, 318708
1, 60240, Tempo, 319557
1, 60320, Tempo, 320427
1, 60400, Tempo, 321285
1, 60480, Tempo, 317007
1, 60560, Tempo, 317847
1, 60640, Tempo, 318708
1, 60720, Tempo, 319557
1, 60800, Tempo, 320427
1, 60880, Tempo, 321285
1, 60960, Tempo, 316172
1, 61040, Tempo, 317007
1, 61120, Tempo, 317847
1, 61200, Tempo, 318708
1, 61280, Tempo, 319557
1, 61360, Tempo, 320427
1, 61400, Tempo, 315391
1, 61480, Tempo, 316239
1, 61520, Tempo, 317074
1, 61560, Tempo, 317914
1, 61600, Tempo, 318759
1, 61640, Tempo, 319608
1, 61720, Tempo, 320479
1, 61760, Tempo, 321320
1, 61800, Tempo, 322200
1, 61840, Tempo, 323067
1, 61880, Tempo, 323957
1, 61920, Tempo, 319608
1, 62000, Tempo, 320479
1, 62080, Tempo, 321320
1, 62160, Tempo, 322200
1, 62240, Tempo, 323067
1, 62320, Tempo, 323957
1, 62360, Tempo, 324816
1, 62400, Tempo, 318759
1, 62480, Tempo, 319608
1, 62560, Tempo, 320479
1, 62640, Tempo, 321320
1, 62680, Tempo, 322200
1, 62760, Tempo, 323067
1, 62840, Tempo, 323957
1, 62880, Tempo, 324816
1, 62920, Tempo, 319608
1, 63000, Tempo, 320479
1, 63040, Tempo, 321320
1, 63080, Tempo, 322200
1, 63120, Tempo, 323067
1, 63200, Tempo, 323957
1, 63240, Tempo, 324816
1, 63280, Tempo, 325715
1, 63320, Tempo, 326602
1, 63360, Tempo, 318032
1, 63520, Tempo, 317058
1, 63680, Tempo, 316022
1, 63840, Tempo, 315060
1, 63960, Tempo, 314103
1, 64120, Tempo, 313136
1, 64280, Tempo, 312191
1, 64320, Tempo, 317058
1, 64560, Tempo, 312191
1, 64680, Tempo, 313136
1, 64800, Tempo, 314103
1, 64960, Tempo, 315060
1, 65080, Tempo, 316022
1, 65200, Tempo, 317058
1, 65240, Tempo, 316022
1, 65440, Tempo, 315060
1, 65640, Tempo, 314103
1, 65840, Tempo, 313136
1, 66040, Tempo, 312191
1, 66200, Tempo, 311219
1, 66240, Tempo, 320034
1, 66400, Tempo, 312191
1, 66480, Tempo, 312191
1, 66560, Tempo, 313136
1, 66760, Tempo, 314103
1, 66920, Tempo, 315060
1, 67080, Tempo, 316022
1, 67120, Tempo, 313136
1, 67200, Tempo, 315325
1, 67240, Tempo, 312761
1, 67400, Tempo, 311915
1, 67520, Tempo, 311058
1, 67640, Tempo, 310222
1, 67760, Tempo, 309374
1, 67880, Tempo, 308547
1, 67920, Tempo, 317007
1, 68120, Tempo, 311219
1, 68160, Tempo, 320034
1, 68320, Tempo, 310222
1, 68440, Tempo, 309374
1, 68520, Tempo, 308547
1, 68640, Tempo, 307708
1, 68720, Tempo, 306890
1, 68800, Tempo, 306060
1, 68840, Tempo, 308753
1, 68880, Tempo, 318708
1, 69120, Tempo, 315325
1, 69160, Tempo, 313627
1, 69280, Tempo, 312761
1, 69400, Tempo, 311915
1, 69480, Tempo, 311058
1, 69600, Tempo, 310222
1, 69720, Tempo, 309374
1, 69800, Tempo, 308547
1, 69840, Tempo, 317007
1, 70040, Tempo, 311219
1, 70080, Tempo, 320034
1, 70240, Tempo, 309582
1, 70280, Tempo, 306890
1, 70360, Tempo, 307708
1, 70440, Tempo, 308547
1, 70520, Tempo, 309374
1, 70560, Tempo, 310222
1, 70640, Tempo, 311058
1, 70720, Tempo, 311915
1, 70760, Tempo, 312761
1, 70800, Tempo, 318708
1, 71000, Tempo, 313627
1, 71160, Tempo, 312761
1, 71320, Tempo, 311915
1, 71480, Tempo, 311058
1, 71640, Tempo, 310222
1, 71800, Tempo, 309374
1, 71960, Tempo, 308547
1, 72000, Tempo, 317058
1, 72240, Tempo, 312191
1, 72280, Tempo, 309374
1, 72400, Tempo, 310222
1, 72480, Tempo, 311058
1, 72600, Tempo, 311915
1, 72680, Tempo, 312761
1, 72760, Tempo, 313627
1, 72880, Tempo, 317058
1, 72920, Tempo, 316022
1, 72960, Tempo, 314498
1, 73120, Tempo, 313627
1, 73280, Tempo, 312761
1, 73400, Tempo, 311915
1, 73560, Tempo, 311058
1, 73720, Tempo, 310222
1, 73840, Tempo, 309374
1, 73880, Tempo, 311219
1, 73920, Tempo, 320034
1, 74080, Tempo, 312191
1, 74120, Tempo, 309374
1, 74280, Tempo, 310222
1, 74440, Tempo, 311058
1, 74600, Tempo, 311915
1, 74720, Tempo, 312761
1, 74760, Tempo, 316022
1, 74800, Tempo, 313136
1, 74820, Tempo, 315325
1, 75020, Tempo, 314498
1, 75220, Tempo, 313660
1, 75840, Tempo, 320427
1, 78660, Tempo, 315325
1, 78720, Tempo, 318708
1, 79160, Tempo, 317847
1, 79600, Tempo, 317007
1, 80040, Tempo, 316172
1, 80480, Tempo, 315325
1, 80640, Tempo, 313627
1, 80960, Tempo, 312761
1, 81240, Tempo, 311915
1, 81520, Tempo, 311058
1, 81840, Tempo, 310222
1, 82120, Tempo, 309374
1, 82400, Tempo, 308547
1, 82720, Tempo, 307708
1, 83000, Tempo, 306890
1, 83280, Tempo, 306060
1, 83600, Tempo, 305235
1, 83880, Tempo, 304429
1, 84160, Tempo, 303613
1, 84440, Tempo, 302816
1, 84520, Tempo, 303613
1, 84600, Tempo, 304429
1, 84680, Tempo, 305235
1, 84720, Tempo, 306060
1, 84800, Tempo, 306890
1, 84880, Tempo, 307708
1, 84920, Tempo, 308547
1, 85000, Tempo, 309374
1, 85040, Tempo, 310222
1, 85120, Tempo, 311058
1, 85200, Tempo, 311915
1, 85240, Tempo, 312761
1, 85320, Tempo, 313627
1, 85360, Tempo, 314498
1, 85440, Tempo, 337705
1, 86160, Tempo, 353815
1, 86280, Tempo, 391032
1, 86400, Tempo, 343564
1, 86880, Tempo, 362384
1, 86894, Tempo, 345483
1, 87065, Tempo, 329942
1, 87066, Tempo, 346821
1, 88320, Tempo, 352941
1, 88320, End_track
2, 0, Start_track
2, 0, MIDI_port, 0
2, 0, Title_t, "Piano right"
2, 0, Program_c, 0, 0
2, 0, Control_c, 0, 7, 100
2, 0, Control_c, 0, 10, 64
2, 0, Text_t, "bdca426d104a26ac9dcb070447587523"
2, 1, Note_on_c, 0, 63, 81
2, 60, Note_on_c, 0, 69, 81
2, 120, Note_on_c, 0, 78, 96
2, 320, Note_on_c, 0, 69, 0
2, 320, Note_on_c, 0, 63, 0
2, 320, Note_on_c, 0, 69, 68
2, 320, Note_on_c, 0, 77, 80
2, 320, Note_on_c, 0, 63, 62
2, 340, Note_on_c, 0, 78, 0
2, 640, Note_on_c, 0, 69, 0
2, 640, Note_on_c, 0, 63, 0
2, 640, Note_on_c, 0, 63, 64
2, 640, Note_on_c, 0, 69, 67
2, 640, Note_on_c, 0, 76, 80
2, 660, Note_on_c, 0, 77, 0
2, 960, Note_on_c, 0, 63, 0
2, 960, Note_on_c, 0, 69, 0
2, 960, Note_on_c, 0, 69, 69
2, 960, Note_on_c, 0, 63, 63
2, 960, Note_on_c, 0, 75, 81
2, 980, Note_on_c, 0, 76, 0
2, 1280, Note_on_c, 0, 69, 0
2, 1280, Note_on_c, 0, 63, 0
2, 1280, Note_on_c, 0, 73, 83
2, 1280, Note_on_c, 0, 63, 62
2, 1280, Note_on_c, 0, 69, 69
2, 1300, Note_on_c, 0, 75, 0
2, 1600, Note_on_c, 0, 69, 0
2, 1600, Note_on_c, 0, 63, 0
2, 1600, Note_on_c, 0, 69, 65
2, 1600, Note_on_c, 0, 63, 58
2, 1600, Note_on_c, 0, 72, 78
2, 1620, Note_on_c, 0, 73, 0
2, 1900, Note_on_c, 0, 69, 0
2, 1900, Note_on_c, 0, 63, 0
2, 1900, Note_on_c, 0, 72, 0
2, 1920, Note_on_c, 0, 77, 47
2, 2040, Note_on_c, 0, 75, 48
2, 2060, Note_on_c, 0, 77, 0
2, 2160, Note_on_c, 0, 72, 49
2, 2180, Note_on_c, 0, 75, 0
2, 2280, Note_on_c, 0, 73, 50
2, 2300, Note_on_c, 0, 72, 0
2, 2400, Note_on_c, 0, 65, 51
2, 2420, Note_on_c, 0, 73, 0
2, 2520, Note_on_c, 0, 69, 53
2, 2540, Note_on_c, 0, 65, 0
2, 2640, Note_on_c, 0, 70, 54
2, 2660, Note_on_c, 0, 69, 0
2, 2760, Note_on_c, 0, 72, 55
2, 2780, Note_on_c, 0, 70, 0
2, 2880, Note_on_c, 0, 73, 57
2, 2900, Note_on_c, 0, 72, 0
2, 3000, Note_on_c, 0, 75, 58
2, 3020, Note_on_c, 0, 73, 0
2, 3120, Note_on_c, 0, 77, 60
2, 3140, Note_on_c, 0, 75, 0
2, 3240, Note_on_c, 0, 79, 61
2, 3260, Note_on_c, 0, 77, 0
2, 3360, Note_on_c, 0, 81, 62
2, 3380, Note_on_c, 0, 79, 0
2, 3480, Note_on_c, 0, 82, 63
2, 3500, Note_on_c, 0, 81, 0
2, 3600, Note_on_c, 0, 84, 64
2, 3620, Note_on_c, 0, 82, 0
2, 3720, Note_on_c, 0, 85, 66
2, 3740, Note_on_c, 0, 84, 0
2, 3840, Note_on_c, 0, 87, 67
2, 3860, Note_on_c, 0, 85, 0
2, 3960, Note_on_c, 0, 89, 68
2, 3980, Note_on_c, 0, 87, 0
2, 4080, Note_on_c, 0, 91, 69
2, 4100, Note_on_c, 0, 89, 0
2, 4200, Note_on_c, 0, 93, 70
2, 4220, Note_on_c, 0, 91, 0
2, 4320, Note_on_c, 0, 94, 72
2, 4340, Note_on_c, 0, 93, 0
2, 4440, Note_on_c, 0, 96, 74
2, 4460, Note_on_c, 0, 94, 0
2, 4560, Note_on_c, 0, 97, 76
2, 4580, Note_on_c, 0, 96, 0
2, 4680, Note_on_c, 0, 99, 77
2, 4700, Note_on_c, 0, 97, 0
2, 4800, Note_on_c, 0, 100, 79
2, 4820, Note_on_c, 0, 99, 0
2, 4920, Note_on_c, 0, 101, 77
2, 4940, Note_on_c, 0, 100, 0
2, 5040, Note_on_c, 0, 99, 77
2, 5060, Note_on_c, 0, 101, 0
2, 5160, Note_on_c, 0, 97, 75
2, 5180, Note_on_c, 0, 99, 0
2, 5280, Note_on_c, 0, 96, 74
2, 5300, Note_on_c, 0, 97, 0
2, 5400, Note_on_c, 0, 94, 72
2, 5420, Note_on_c, 0, 96, 0
2, 5520, Note_on_c, 0, 93, 71
2, 5540, Note_on_c, 0, 94, 0
2, 5640, Note_on_c, 0, 94, 70
2, 5660, Note_on_c, 0, 93, 0
2, 5760, Note_on_c, 0, 94, 0
2, 5760, Note_on_c, 0, 92, 69
2, 5880, Note_on_c, 0, 90, 68
2, 5900, Note_on_c, 0, 92, 0
2, 6000, Note_on_c, 0, 89, 67
2, 6020, Note_on_c, 0, 90, 0
2, 6120, Note_on_c, 0, 88, 67
2, 6140, Note_on_c, 0, 89, 0
2, 6240, Note_on_c, 0, 89, 65
2, 6260, Note_on_c, 0, 88, 0
2, 6360, Note_on_c, 0, 87, 64
2, 6380, Note_on_c, 0, 89, 0
2, 6480, Note_on_c, 0, 85, 63
2, 6500, Note_on_c, 0, 87, 0
2, 6600, Note_on_c, 0, 84, 62
2, 6620, Note_on_c, 0, 85, 0
2, 6720, Note_on_c, 0, 82, 61
2, 6740, Note_on_c, 0, 84, 0
2, 6840, Note_on_c, 0, 81, 59
2, 6860, Note_on_c, 0, 82, 0
2, 6960, Note_on_c, 0, 82, 58
2, 6980, Note_on_c, 0, 81, 0
2, 7080, Note_on_c, 0, 80, 58
2, 7100, Note_on_c, 0, 82, 0
2, 7200, Note_on_c, 0, 78, 57
2, 7220, Note_on_c, 0, 80, 0
2, 7320, Note_on_c, 0, 77, 57
2, 7340, Note_on_c, 0, 78, 0
2, 7440, Note_on_c, 0, 75, 55
2, 7460, Note_on_c, 0, 77, 0
2, 7560, Note_on_c, 0, 73, 54
2, 7580, Note_on_c, 0, 75, 0
2, 7680, Note_on_c, 0, 72, 54
2, 7700, Note_on_c, 0, 73, 0
2, 7800, Note_on_c, 0, 73, 54
2, 7820, Note_on_c, 0, 72, 0
2, 7920, Note_on_c, 0, 75, 54
2, 7940, Note_on_c, 0, 73, 0
2, 8040, Note_on_c, 0, 77, 55
2, 8060, Note_on_c, 0, 75, 0
2, 8160, Note_on_c, 0, 78, 56
2, 8180, Note_on_c, 0, 77, 0
2, 8280, Note_on_c, 0, 80, 56
2, 8300, Note_on_c, 0, 78, 0
2, 8400, Note_on_c, 0, 82, 57
2, 8420, Note_on_c, 0, 80, 0
2, 8520, Note_on_c, 0, 84, 58
2, 8540, Note_on_c, 0, 82, 0
2, 8640, Note_on_c, 0, 82, 57
2, 8660, Note_on_c, 0, 84, 0
2, 8760, Note_on_c, 0, 80, 57
2, 8780, Note_on_c, 0, 82, 0
2, 8880, Note_on_c, 0, 78, 58
2, 8900, Note_on_c, 0, 80, 0
2, 9000, Note_on_c, 0, 77, 58
2, 9020, Note_on_c, 0, 78, 0
2, 9120, Note_on_c, 0, 75, 59
2, 9140, Note_on_c, 0, 77, 0
2, 9240, Note_on_c, 0, 73, 60
2, 9260, Note_on_c, 0, 75, 0
2, 9360, Note_on_c, 0, 72, 60
2, 9380, Note_on_c, 0, 73, 0
2, 9480, Note_on_c, 0, 75, 61
2, 9500, Note_on_c, 0, 72, 0
2, 9600, Note_on_c, 0, 78, 61
2, 9620, Note_on_c, 0, 75, 0
2, 9720, Note_on_c, 0, 74, 57
2, 9740, Note_on_c, 0, 78, 0
2, 9840, Note_on_c, 0, 77, 60
2, 9860, Note_on_c, 0, 74, 0
2, 9960, Note_on_c, 0, 75, 53
2, 9980, Note_on_c, 0, 77, 0
2, 10080, Note_on_c, 0, 72, 54
2, 10100, Note_on_c, 0, 75, 0
2, 10200, Note_on_c, 0, 66, 51
2, 10220, Note_on_c, 0, 72, 0
2, 10320, Note_on_c, 0, 71, 52
2, 10340, Note_on_c, 0, 66, 0
2, 10440, Note_on_c, 0, 72, 53
2, 10460, Note_on_c, 0, 71, 0
2, 10560, Note_on_c, 0, 73, 54
2, 10580, Note_on_c, 0, 72, 0
2, 10680, Note_on_c, 0, 72, 55
2, 10700, Note_on_c, 0, 73, 0
2, 10800, Note_on_c, 0, 74, 57
2, 10820, Note_on_c, 0, 72, 0
2, 10920, Note_on_c, 0, 75, 57
2, 10940, Note_on_c, 0, 74, 0
2, 11040, Note_on_c, 0, 77, 57
2, 11060, Note_on_c, 0, 75, 0
2, 11160, Note_on_c, 0, 75, 59
2, 11180, Note_on_c, 0, 77, 0
2, 11280, Note_on_c, 0, 76, 60
2, 11300, Note_on_c, 0, 75, 0
2, 11400, Note_on_c, 0, 77, 61
2, 11420, Note_on_c, 0, 76, 0
2, 11520, Note_on_c, 0, 77, 0
2, 11520, Note_on_c, 0, 80, 62
2, 11640, Note_on_c, 0, 78, 63
2, 11660, Note_on_c, 0, 80, 0
2, 11760, Note_on_c, 0, 81, 65
2, 11780, Note_on_c, 0, 78, 0
2, 11880, Note_on_c, 0, 82, 66
2, 11900, Note_on_c, 0, 81, 0
2, 12000, Note_on_c, 0, 85, 67
2, 12020, Note_on_c, 0, 82, 0
2, 12120, Note_on_c, 0, 84, 69
2, 12140, Note_on_c, 0, 85, 0
2, 12240, Note_on_c, 0, 85, 70
2, 12260, Note_on_c, 0, 84, 0
2, 12360, Note_on_c, 0, 86, 71
2, 12380, Note_on_c, 0, 85, 0
2, 12480, Note_on_c, 0, 89, 72
2, 12500, Note_on_c, 0, 86, 0
2, 12600, Note_on_c, 0, 87, 73
2, 12620, Note_on_c, 0, 89, 0
2, 12720, Note_on_c, 0, 88, 74
2, 12740, Note_on_c, 0, 87, 0
2, 12840, Note_on_c, 0, 89, 75
2, 12860, Note_on_c, 0, 88, 0
2, 12960, Note_on_c, 0, 93, 76
2, 12980, Note_on_c, 0, 89, 0
2, 13080, Note_on_c, 0, 94, 77
2, 13100, Note_on_c, 0, 93, 0
2, 13200, Note_on_c, 0, 92, 79
2, 13220, Note_on_c, 0, 94, 0
2, 13320, Note_on_c, 0, 91, 80
2, 13340, Note_on_c, 0, 92, 0
2, 13440, Note_on_c, 0, 90, 79
2, 13460, Note_on_c, 0, 91, 0
2, 13560, Note_on_c, 0, 101, 78
2, 13580, Note_on_c, 0, 90, 0
2, 13680, Note_on_c, 0, 99, 78
2, 13700, Note_on_c, 0, 101, 0
2, 13800, Note_on_c, 0, 87, 77
2, 13820, Note_on_c, 0, 99, 0
2, 13920, Note_on_c, 0, 97, 75
2, 13940, Note_on_c, 0, 87, 0
2, 14040, Note_on_c, 0, 96, 74
2, 14060, Note_on_c, 0, 97, 0
2, 14160, Note_on_c, 0, 84, 74
2, 14180, Note_on_c, 0, 96, 0
2, 14280, Note_on_c, 0, 94, 72
2, 14300, Note_on_c, 0, 84, 0
2, 14400, Note_on_c, 0, 93, 71
2, 14420, Note_on_c, 0, 94, 0
2, 14520, Note_on_c, 0, 81, 70
2, 14540, Note_on_c, 0, 93, 0
2, 14640, Note_on_c, 0, 92, 68
2, 14660, Note_on_c, 0, 81, 0
2, 14760, Note_on_c, 0, 90, 68
2, 14780, Note_on_c, 0, 92, 0
2, 14880, Note_on_c, 0, 78, 67
2, 14900, Note_on_c, 0, 90, 0
2, 15000, Note_on_c, 0, 89, 66
2, 15020, Note_on_c, 0, 78, 0
2, 15120, Note_on_c, 0, 87, 65
2, 15140, Note_on_c, 0, 89, 0
2, 15240, Note_on_c, 0, 78, 64
2, 15260, Note_on_c, 0, 87, 0
2, 15360, Note_on_c, 0, 77, 64
2, 15380, Note_on_c, 0, 78, 0
2, 15480, Note_on_c, 0, 87, 62
2, 15500, Note_on_c, 0, 77, 0
2, 15600, Note_on_c, 0, 85, 61
2, 15620, Note_on_c, 0, 87, 0
2, 15720, Note_on_c, 0, 77, 60
2, 15740, Note_on_c, 0, 85, 0
2, 15840, Note_on_c, 0, 85, 59
2, 15860, Note_on_c, 0, 77, 0
2, 15960, Note_on_c, 0, 84, 59
2, 15980, Note_on_c, 0, 85, 0
2, 16080, Note_on_c, 0, 75, 58
2, 16100, Note_on_c, 0, 84, 0
2, 16200, Note_on_c, 0, 84, 56
2, 16220, Note_on_c, 0, 75, 0
2, 16320, Note_on_c, 0, 73, 55
2, 16340, Note_on_c, 0, 84, 0
2, 16440, Note_on_c, 0, 82, 55
2, 16460, Note_on_c, 0, 73, 0
2, 16560, Note_on_c, 0, 80, 54
2, 16580, Note_on_c, 0, 82, 0
2, 16680, Note_on_c, 0, 72, 53
2, 16700, Note_on_c, 0, 80, 0
2, 16800, Note_on_c, 0, 80, 52
2, 16820, Note_on_c, 0, 72, 0
2, 16920, Note_on_c, 0, 78, 50
2, 16940, Note_on_c, 0, 80, 0
2, 17040, Note_on_c, 0, 70, 50
2, 17060, Note_on_c, 0, 78, 0
2, 17160, Note_on_c, 0, 78, 50
2, 17180, Note_on_c, 0, 70, 0
2, 17280, Note_on_c, 0, 78, 0
2, 17280, Note_on_c, 0, 69, 48
2, 17400, Note_on_c, 0, 70, 50
2, 17420, Note_on_c, 0, 69, 0
2, 17520, Note_on_c, 0, 72, 50
2, 17540, Note_on_c, 0, 70, 0
2, 17640, Note_on_c, 0, 73, 52
2, 17660, Note_on_c, 0, 72, 0
2, 17760, Note_on_c, 0, 75, 54
2, 17780, Note_on_c, 0, 73, 0
2, 17880, Note_on_c, 0, 76, 55
2, 17900, Note_on_c, 0, 75, 0
2, 18000, Note_on_c, 0, 77, 56
2, 18020, Note_on_c, 0, 76, 0
2, 18120, Note_on_c, 0, 78, 57
2, 18140, Note_on_c, 0, 77, 0
2, 18240, Note_on_c, 0, 76, 60
2, 18260, Note_on_c, 0, 78, 0
2, 18360, Note_on_c, 0, 77, 58
2, 18380, Note_on_c, 0, 76, 0
2, 18480, Note_on_c, 0, 74, 56
2, 18500, Note_on_c, 0, 77, 0
2, 18600, Note_on_c, 0, 75, 55
2, 18620, Note_on_c, 0, 74, 0
2, 18720, Note_on_c, 0, 72, 54
2, 18740, Note_on_c, 0, 75, 0
2, 18840, Note_on_c, 0, 73, 52
2, 18860, Note_on_c, 0, 72, 0
2, 18960, Note_on_c, 0, 72, 51
2, 18980, Note_on_c, 0, 73, 0
2, 19080, Note_on_c, 0, 70, 49
2, 19100, Note_on_c, 0, 72, 0
2, 19200, Note_on_c, 0, 70, 0
2, 19200, Note_on_c, 0, 69, 47
2, 19320, Note_on_c, 0, 70, 49
2, 19340, Note_on_c, 0, 69, 0
2, 19440, Note_on_c, 0, 72, 50
2, 19460, Note_on_c, 0, 70, 0
2, 19560, Note_on_c, 0, 73, 52
2, 19580, Note_on_c, 0, 72, 0
2, 19680, Note_on_c, 0, 75, 54
2, 19700, Note_on_c, 0, 73, 0
2, 19800, Note_on_c, 0, 76, 56
2, 19820, Note_on_c, 0, 75, 0
2, 19920, Note_on_c, 0, 77, 58
2, 19940, Note_on_c, 0, 76, 0
2, 20040, Note_on_c, 0, 78, 59
2, 20060, Note_on_c, 0, 77, 0
2, 20160, Note_on_c, 0, 76, 60
2, 20180, Note_on_c, 0, 78, 0
2, 20280, Note_on_c, 0, 77, 59
2, 20300, Note_on_c, 0, 76, 0
2, 20400, Note_on_c, 0, 74, 57
2, 20420, Note_on_c, 0, 77, 0
2, 20520, Note_on_c, 0, 75, 57
2, 20540, Note_on_c, 0, 74, 0
2, 20640, Note_on_c, 0, 72, 55
2, 20660, Note_on_c, 0, 75, 0
2, 20760, Note_on_c, 0, 73, 53
2, 20780, Note_on_c, 0, 72, 0
2, 20880, Note_on_c, 0, 72, 53
2, 20900, Note_on_c, 0, 73, 0
2, 21000, Note_on_c, 0, 70, 51
2, 21020, Note_on_c, 0, 72, 0
2, 21120, Note_on_c, 0, 70, 0
2, 21120, Note_on_c, 0, 71, 49
2, 21240, Note_on_c, 0, 72, 50
2, 21260, Note_on_c, 0, 71, 0
2, 21360, Note_on_c, 0, 74, 52
2, 21380, Note_on_c, 0, 72, 0
2, 21480, Note_on_c, 0, 75, 54
2, 21500, Note_on_c, 0, 74, 0
2, 21600, Note_on_c, 0, 76, 57
2, 21620, Note_on_c, 0, 75, 0
2, 21720, Note_on_c, 0, 77, 59
2, 21740, Note_on_c, 0, 76, 0
2, 21840, Note_on_c, 0, 79, 61
2, 21860, Note_on_c, 0, 77, 0
2, 21960, Note_on_c, 0, 80, 63
2, 21980, Note_on_c, 0, 79, 0
2, 22080, Note_on_c, 0, 78, 64
2, 22100, Note_on_c, 0, 80, 0
2, 22200, Note_on_c, 0, 79, 62
2, 22220, Note_on_c, 0, 78, 0
2, 22320, Note_on_c, 0, 76, 61
2, 22340, Note_on_c, 0, 79, 0
2, 22440, Note_on_c, 0, 77, 57
2, 22460, Note_on_c, 0, 76, 0
2, 22560, Note_on_c, 0, 74, 57
2, 22580, Note_on_c, 0, 77, 0
2, 22680, Note_on_c, 0, 75, 57
2, 22700, Note_on_c, 0, 74, 0
2, 22800, Note_on_c, 0, 74, 55
2, 22820, Note_on_c, 0, 75, 0
2, 22920, Note_on_c, 0, 72, 54
2, 22940, Note_on_c, 0, 74, 0
2, 23040, Note_on_c, 0, 72, 0
2, 23040, Note_on_c, 0, 71, 51
2, 23160, Note_on_c, 0, 72, 52
2, 23180, Note_on_c, 0, 71, 0
2, 23280, Note_on_c, 0, 74, 54
2, 23300, Note_on_c, 0, 72, 0
2, 23400, Note_on_c, 0, 75, 56
2, 23420, Note_on_c, 0, 74, 0
2, 23520, Note_on_c, 0, 76, 58
2, 23540, Note_on_c, 0, 75, 0
2, 23640, Note_on_c, 0, 77, 60
2, 23660, Note_on_c, 0, 76, 0
2, 23760, Note_on_c, 0, 79, 63
2, 23780, Note_on_c, 0, 77, 0
2, 23880, Note_on_c, 0, 80, 64
2, 23900, Note_on_c, 0, 79, 0
2, 24000, Note_on_c, 0, 78, 68
2, 24020, Note_on_c, 0, 80, 0
2, 24120, Note_on_c, 0, 79, 66
2, 24140, Note_on_c, 0, 78, 0
2, 24240, Note_on_c, 0, 76, 64
2, 24260, Note_on_c, 0, 79, 0
2, 24360, Note_on_c, 0, 77, 60
2, 24380, Note_on_c, 0, 76, 0
2, 24480, Note_on_c, 0, 74, 61
2, 24500, Note_on_c, 0, 77, 0
2, 24600, Note_on_c, 0, 75, 60
2, 24620, Note_on_c, 0, 74, 0
2, 24720, Note_on_c, 0, 74, 58
2, 24740, Note_on_c, 0, 75, 0
2, 24840, Note_on_c, 0, 72, 57
2, 24860, Note_on_c, 0, 74, 0
2, 24960, Note_on_c, 0, 72, 0
2, 24960, Note_on_c, 0, 73, 55
2, 25080, Note_on_c, 0, 75, 54
2, 25100, Note_on_c, 0, 73, 0
2, 25200, Note_on_c, 0, 77, 56
2, 25220, Note_on_c, 0, 75, 0
2, 25320, Note_on_c, 0, 78, 58
2, 25340, Note_on_c, 0, 77, 0
2, 25440, Note_on_c, 0, 80, 59
2, 25460, Note_on_c, 0, 78, 0
2, 25560, Note_on_c, 0, 82, 61
2, 25580, Note_on_c, 0, 80, 0
2, 25680, Note_on_c, 0, 83, 63
2, 25700, Note_on_c, 0, 82, 0
2, 25800, Note_on_c, 0, 84, 65
2, 25820, Note_on_c, 0, 83, 0
2, 25920, Note_on_c, 0, 85, 67
2, 25940, Note_on_c, 0, 84, 0
2, 26040, Note_on_c, 0, 86, 68
2, 26060, Note_on_c, 0, 85, 0
2, 26160, Note_on_c, 0, 89, 69
2, 26180, Note_on_c, 0, 86, 0
2, 26280, Note_on_c, 0, 87, 67
2, 26300, Note_on_c, 0, 89, 0
2, 26400, Note_on_c, 0, 84, 66
2, 26420, Note_on_c, 0, 87, 0
2, 26520, Note_on_c, 0, 81, 64
2, 26540, Note_on_c, 0, 84, 0
2, 26640, Note_on_c, 0, 78, 63
2, 26660, Note_on_c, 0, 81, 0
2, 26760, Note_on_c, 0, 75, 61
2, 26780, Note_on_c, 0, 78, 0
2, 26880, Note_on_c, 0, 75, 0
2, 26880, Note_on_c, 0, 73, 57
2, 27000, Note_on_c, 0, 75, 60
2, 27020, Note_on_c, 0, 73, 0
2, 27120, Note_on_c, 0, 77, 61
2, 27140, Note_on_c, 0, 75, 0
2, 27240, Note_on_c, 0, 78, 63
2, 27260, Note_on_c, 0, 77, 0
2, 27360, Note_on_c, 0, 80, 65
2, 27380, Note_on_c, 0, 78, 0
2, 27480, Note_on_c, 0, 82, 67
2, 27500, Note_on_c, 0, 80, 0
2, 27600, Note_on_c, 0, 83, 69
2, 27620, Note_on_c, 0, 82, 0
2, 27720, Note_on_c, 0, 84, 69
2, 27740, Note_on_c, 0, 83, 0
2, 27840, Note_on_c, 0, 85, 71
2, 27860, Note_on_c, 0, 84, 0
2, 27960, Note_on_c, 0, 84, 73
2, 27980, Note_on_c, 0, 85, 0
2, 28080, Note_on_c, 0, 87, 75
2, 28100, Note_on_c, 0, 84, 0
2, 28200, Note_on_c, 0, 85, 71
2, 28220, Note_on_c, 0, 87, 0
2, 28320, Note_on_c, 0, 82, 69
2, 28340, Note_on_c, 0, 85, 0
2, 28440, Note_on_c, 0, 79, 67
2, 28460, Note_on_c, 0, 82, 0
2, 28560, Note_on_c, 0, 76, 65
2, 28580, Note_on_c, 0, 79, 0
2, 28680, Note_on_c, 0, 73, 62
2, 28700, Note_on_c, 0, 76, 0
2, 28800, Note_on_c, 0, 73, 0
2, 28800, Note_on_c, 0, 72, 66
2, 28920, Note_on_c, 0, 73, 67
2, 28940, Note_on_c, 0, 72, 0
2, 29040, Note_on_c, 0, 74, 68
2, 29060, Note_on_c, 0, 73, 0
2, 29160, Note_on_c, 0, 75, 70
2, 29180, Note_on_c, 0, 74, 0
2, 29280, Note_on_c, 0, 76, 71
2, 29300, Note_on_c, 0, 75, 0
2, 29400, Note_on_c, 0, 77, 72
2, 29420, Note_on_c, 0, 76, 0
2, 29520, Note_on_c, 0, 78, 72
2, 29540, Note_on_c, 0, 77, 0
2, 29640, Note_on_c, 0, 79, 74
2, 29660, Note_on_c, 0, 78, 0
2, 29760, Note_on_c, 0, 80, 74
2, 29780, Note_on_c, 0, 79, 0
2, 29880, Note_on_c, 0, 81, 73
2, 29900, Note_on_c, 0, 80, 0
2, 30000, Note_on_c, 0, 84, 72
2, 30020, Note_on_c, 0, 81, 0
2, 30120, Note_on_c, 0, 82, 72
2, 30140, Note_on_c, 0, 84, 0
2, 30240, Note_on_c, 0, 78, 70
2, 30260, Note_on_c, 0, 82, 0
2, 30360, Note_on_c, 0, 77, 69
2, 30380, Note_on_c, 0, 78, 0
2, 30480, Note_on_c, 0, 75, 68
2, 30500, Note_on_c, 0, 77, 0
2, 30600, Note_on_c, 0, 73, 67
2, 30620, Note_on_c, 0, 75, 0
2, 30720, Note_on_c, 0, 73, 0
2, 30720, Note_on_c, 0, 72, 66
2, 30840, Note_on_c, 0, 70, 65
2, 30860, Note_on_c, 0, 72, 0
2, 30960, Note_on_c, 0, 69, 65
2, 30980, Note_on_c, 0, 70, 0
2, 31080, Note_on_c, 0, 72, 65
2, 31100, Note_on_c, 0, 69, 0
2, 31200, Note_on_c, 0, 66, 64
2, 31220, Note_on_c, 0, 72, 0
2, 31320, Note_on_c, 0, 65, 65
2, 31340, Note_on_c, 0, 66, 0
2, 31440, Note_on_c, 0, 64, 67
2, 31460, Note_on_c, 0, 65, 0
2, 31560, Note_on_c, 0, 65, 69
2, 31580, Note_on_c, 0, 64, 0
2, 31680, Note_on_c, 0, 66, 70
2, 31700, Note_on_c, 0, 65, 0
2, 31800, Note_on_c, 0, 65, 68
2, 31820, Note_on_c, 0, 66, 0
2, 31920, Note_on_c, 0, 70, 72
2, 31940, Note_on_c, 0, 65, 0
2, 32040, Note_on_c, 0, 69, 71
2, 32060, Note_on_c, 0, 70, 0
2, 32160, Note_on_c, 0, 73, 74
2, 32180, Note_on_c, 0, 69, 0
2, 32280, Note_on_c, 0, 72, 71
2, 32300, Note_on_c, 0, 73, 0
2, 32400, Note_on_c, 0, 80, 74
2, 32420, Note_on_c, 0, 72, 0
2, 32520, Note_on_c, 0, 78, 75
2, 32540, Note_on_c, 0, 80, 0
2, 32640, Note_on_c, 0, 78, 0
2, 32640, Note_on_c, 0, 77, 77
2, 32760, Note_on_c, 0, 72, 77
2, 32780, Note_on_c, 0, 77, 0
2, 32880, Note_on_c, 0, 75, 78
2, 32900, Note_on_c, 0, 72, 0
2, 33000, Note_on_c, 0, 73, 79
2, 33020, Note_on_c, 0, 75, 0
2, 33120, Note_on_c, 0, 65, 79
2, 33140, Note_on_c, 0, 73, 0
2, 33240, Note_on_c, 0, 69, 80
2, 33260, Note_on_c, 0, 65, 0
2, 33360, Note_on_c, 0, 70, 81
2, 33380, Note_on_c, 0, 69, 0
2, 33480, Note_on_c, 0, 72, 81
2, 33500, Note_on_c, 0, 70, 0
2, 33600, Note_on_c, 0, 73, 82
2, 33620, Note_on_c, 0, 72, 0
2, 33720, Note_on_c, 0, 75, 83
2, 33740, Note_on_c, 0, 73, 0
2, 33840, Note_on_c, 0, 77, 84
2, 33860, Note_on_c, 0, 75, 0
2, 33960, Note_on_c, 0, 79, 84
2, 33980, Note_on_c, 0, 77, 0
2, 34080, Note_on_c, 0, 81, 85
2, 34100, Note_on_c, 0, 79, 0
2, 34200, Note_on_c, 0, 82, 86
2, 34220, Note_on_c, 0, 81, 0
2, 34320, Note_on_c, 0, 84, 86
2, 34340, Note_on_c, 0, 82, 0
2, 34440, Note_on_c, 0, 85, 87
2, 34460, Note_on_c, 0, 84, 0
2, 34560, Note_on_c, 0, 87, 88
2, 34580, Note_on_c, 0, 85, 0
2, 34680, Note_on_c, 0, 89, 89
2, 34700, Note_on_c, 0, 87, 0
2, 34800, Note_on_c, 0, 91, 89
2, 34820, Note_on_c, 0, 89, 0
2, 34920, Note_on_c, 0, 93, 90
2, 34940, Note_on_c, 0, 91, 0
2, 35040, Note_on_c, 0, 94, 91
2, 35060, Note_on_c, 0, 93, 0
2, 35160, Note_on_c, 0, 96, 91
2, 35180, Note_on_c, 0, 94, 0
2, 35280, Note_on_c, 0, 97, 92
2, 35300, Note_on_c, 0, 96, 0
2, 35400, Note_on_c, 0, 99, 93
2, 35420, Note_on_c, 0, 97, 0
2, 35520, Note_on_c, 0, 100, 94
2, 35540, Note_on_c, 0, 99, 0
2, 35640, Note_on_c, 0, 101, 92
2, 35660, Note_on_c, 0, 100, 0
2, 35760, Note_on_c, 0, 99, 92
2, 35780, Note_on_c, 0, 101, 0
2, 35880, Note_on_c, 0, 97, 91
2, 35900, Note_on_c, 0, 99, 0
2, 36000, Note_on_c, 0, 96, 90
2, 36020, Note_on_c, 0, 97, 0
2, 36120, Note_on_c, 0, 94, 88
2, 36140, Note_on_c, 0, 96, 0
2, 36240, Note_on_c, 0, 93, 87
2, 36260, Note_on_c, 0, 94, 0
2, 36360, Note_on_c, 0, 94, 86
2, 36380, Note_on_c, 0, 93, 0
2, 36480, Note_on_c, 0, 92, 86
2, 36500, Note_on_c, 0, 94, 0
2, 36600, Note_on_c, 0, 90, 85
2, 36620, Note_on_c, 0, 92, 0
2, 36720, Note_on_c, 0, 89, 84
2, 36740, Note_on_c, 0, 90, 0
2, 36840, Note_on_c, 0, 88, 84
2, 36860, Note_on_c, 0, 89, 0
2, 36960, Note_on_c, 0, 89, 82
2, 36980, Note_on_c, 0, 88, 0
2, 37080, Note_on_c, 0, 87, 81
2, 37100, Note_on_c, 0, 89, 0
2, 37200, Note_on_c, 0, 85, 80
2, 37220, Note_on_c, 0, 87, 0
2, 37320, Note_on_c, 0, 84, 79
2, 37340, Note_on_c, 0, 85, 0
2, 37440, Note_on_c, 0, 82, 78
2, 37460, Note_on_c, 0, 84, 0
2, 37560, Note_on_c, 0, 81, 76
2, 37580, Note_on_c, 0, 82, 0
2, 37680, Note_on_c, 0, 82, 75
2, 37700, Note_on_c, 0, 81, 0
2, 37800, Note_on_c, 0, 80, 75
2, 37820, Note_on_c, 0, 82, 0
2, 37920, Note_on_c, 0, 78, 75
2, 37940, Note_on_c, 0, 80, 0
2, 38040, Note_on_c, 0, 77, 74
2, 38060, Note_on_c, 0, 78, 0
2, 38160, Note_on_c, 0, 75, 73
2, 38180, Note_on_c, 0, 77, 0
2, 38280, Note_on_c, 0, 73, 72
2, 38300, Note_on_c, 0, 75, 0
2, 38400, Note_on_c, 0, 73, 0
2, 38400, Note_on_c, 0, 72, 72
2, 38520, Note_on_c, 0, 73, 72
2, 38540, Note_on_c, 0, 72, 0
2, 38640, Note_on_c, 0, 75, 73
2, 38660, Note_on_c, 0, 73, 0
2, 38760, Note_on_c, 0, 77, 74
2, 38780, Note_on_c, 0, 75, 0
2, 38880, Note_on_c, 0, 78, 75
2, 38900, Note_on_c, 0, 77, 0
2, 39000, Note_on_c, 0, 80, 75
2, 39020, Note_on_c, 0, 78, 0
2, 39120, Note_on_c, 0, 82, 76
2, 39140, Note_on_c, 0, 80, 0
2, 39240, Note_on_c, 0, 84, 78
2, 39260, Note_on_c, 0, 82, 0
2, 39360, Note_on_c, 0, 82, 77
2, 39380, Note_on_c, 0, 84, 0
2, 39480, Note_on_c, 0, 80, 77
2, 39500, Note_on_c, 0, 82, 0
2, 39600, Note_on_c, 0, 78, 78
2, 39620, Note_on_c, 0, 80, 0
2, 39720, Note_on_c, 0, 77, 79
2, 39740, Note_on_c, 0, 78, 0
2, 39840, Note_on_c, 0, 75, 79
2, 39860, Note_on_c, 0, 77, 0
2, 39960, Note_on_c, 0, 73, 76
2, 39980, Note_on_c, 0, 75, 0
2, 40080, Note_on_c, 0, 72, 74
2, 40100, Note_on_c, 0, 73, 0
2, 40200, Note_on_c, 0, 75, 74
2, 40220, Note_on_c, 0, 72, 0
2, 40320, Note_on_c, 0, 78, 77
2, 40340, Note_on_c, 0, 75, 0
2, 40440, Note_on_c, 0, 74, 68
2, 40460, Note_on_c, 0, 78, 0
2, 40560, Note_on_c, 0, 76, 74
2, 40580, Note_on_c, 0, 74, 0
2, 40680, Note_on_c, 0, 75, 66
2, 40700, Note_on_c, 0, 76, 0
2, 40800, Note_on_c, 0, 72, 72
2, 40820, Note_on_c, 0, 75, 0
2, 40920, Note_on_c, 0, 66, 68
2, 40940, Note_on_c, 0, 72, 0
2, 41040, Note_on_c, 0, 71, 69
2, 41060, Note_on_c, 0, 66, 0
2, 41160, Note_on_c, 0, 72, 70
2, 41180, Note_on_c, 0, 71, 0
2, 41280, Note_on_c, 0, 73, 72
2, 41300, Note_on_c, 0, 72, 0
2, 41400, Note_on_c, 0, 72, 73
2, 41420, Note_on_c, 0, 73, 0
2, 41520, Note_on_c, 0, 74, 74
2, 41540, Note_on_c, 0, 72, 0
2, 41640, Note_on_c, 0, 75, 74
2, 41660, Note_on_c, 0, 74, 0
2, 41760, Note_on_c, 0, 76, 75
2, 41780, Note_on_c, 0, 75, 0
2, 41880, Note_on_c, 0, 75, 76
2, 41900, Note_on_c, 0, 76, 0
2, 42000, Note_on_c, 0, 76, 78
2, 42020, Note_on_c, 0, 75, 0
2, 42120, Note_on_c, 0, 77, 79
2, 42140, Note_on_c, 0, 76, 0
2, 42240, Note_on_c, 0, 77, 0
2, 42240, Note_on_c, 0, 80, 80
2, 42360, Note_on_c, 0, 78, 81
2, 42380, Note_on_c, 0, 80, 0
2, 42480, Note_on_c, 0, 83, 82
2, 42500, Note_on_c, 0, 78, 0
2, 42600, Note_on_c, 0, 84, 84
2, 42620, Note_on_c, 0, 83, 0
2, 42720, Note_on_c, 0, 85, 85
2, 42740, Note_on_c, 0, 84, 0
2, 42840, Note_on_c, 0, 84, 86
2, 42860, Note_on_c, 0, 85, 0
2, 42960, Note_on_c, 0, 86, 87
2, 42980, Note_on_c, 0, 84, 0
2, 43080, Note_on_c, 0, 87, 88
2, 43100, Note_on_c, 0, 86, 0
2, 43200, Note_on_c, 0, 88, 90
2, 43220, Note_on_c, 0, 87, 0
2, 43320, Note_on_c, 0, 87, 91
2, 43340, Note_on_c, 0, 88, 0
2, 43440, Note_on_c, 0, 88, 92
2, 43460, Note_on_c, 0, 87, 0
2, 43560, Note_on_c, 0, 89, 92
2, 43580, Note_on_c, 0, 88, 0
2, 43680, Note_on_c, 0, 92, 93
2, 43700, Note_on_c, 0, 89, 0
2, 43800, Note_on_c, 0, 94, 94
2, 43820, Note_on_c, 0, 92, 0
2, 43920, Note_on_c, 0, 92, 96
2, 43940, Note_on_c, 0, 94, 0
2, 44040, Note_on_c, 0, 91, 97
2, 44060, Note_on_c, 0, 92, 0
2, 44160, Note_on_c, 0, 90, 95
2, 44180, Note_on_c, 0, 91, 0
2, 44280, Note_on_c, 0, 101, 95
2, 44300, Note_on_c, 0, 90, 0
2, 44400, Note_on_c, 0, 99, 94
2, 44420, Note_on_c, 0, 101, 0
2, 44520, Note_on_c, 0, 90, 93
2, 44540, Note_on_c, 0, 99, 0
2, 44640, Note_on_c, 0, 99, 92
2, 44660, Note_on_c, 0, 90, 0
2, 44760, Note_on_c, 0, 97, 91
2, 44780, Note_on_c, 0, 99, 0
2, 44880, Note_on_c, 0, 89, 90
2, 44900, Note_on_c, 0, 97, 0
2, 45000, Note_on_c, 0, 97, 89
2, 45020, Note_on_c, 0, 89, 0
2, 45120, Note_on_c, 0, 96, 88
2, 45140, Note_on_c, 0, 97, 0
2, 45240, Note_on_c, 0, 87, 87
2, 45260, Note_on_c, 0, 96, 0
2, 45360, Note_on_c, 0, 96, 86
2, 45380, Note_on_c, 0, 87, 0
2, 45480, Note_on_c, 0, 94, 85
2, 45500, Note_on_c, 0, 96, 0
2, 45600, Note_on_c, 0, 85, 84
2, 45620, Note_on_c, 0, 94, 0
2, 45720, Note_on_c, 0, 94, 83
2, 45740, Note_on_c, 0, 85, 0
2, 45840, Note_on_c, 0, 92, 82
2, 45860, Note_on_c, 0, 94, 0
2, 45960, Note_on_c, 0, 84, 81
2, 45980, Note_on_c, 0, 92, 0
2, 46080, Note_on_c, 0, 84, 0
2, 46080, Note_on_c, 0, 92, 80
2, 46200, Note_on_c, 0, 90, 79
2, 46220, Note_on_c, 0, 92, 0
2, 46320, Note_on_c, 0, 82, 77
2, 46340, Note_on_c, 0, 90, 0
2, 46440, Note_on_c, 0, 90, 76
2, 46460, Note_on_c, 0, 82, 0
2, 46560, Note_on_c, 0, 89, 74
2, 46580, Note_on_c, 0, 90, 0
2, 46680, Note_on_c, 0, 80, 72
2, 46700, Note_on_c, 0, 89, 0
2, 46800, Note_on_c, 0, 89, 71
2, 46820, Note_on_c, 0, 80, 0
2, 46920, Note_on_c, 0, 87, 70
2, 46940, Note_on_c, 0, 89, 0
2, 47040, Note_on_c, 0, 78, 68
2, 47060, Note_on_c, 0, 87, 0
2, 47160, Note_on_c, 0, 87, 67
2, 47180, Note_on_c, 0, 78, 0
2, 47280, Note_on_c, 0, 85, 65
2, 47300, Note_on_c, 0, 87, 0
2, 47400, Note_on_c, 0, 77, 64
2, 47420, Note_on_c, 0, 85, 0
2, 47520, Note_on_c, 0, 82, 63
2, 47540, Note_on_c, 0, 77, 0
2, 47640, Note_on_c, 0, 80, 61
2, 47660, Note_on_c, 0, 82, 0
2, 47760, Note_on_c, 0, 77, 60
2, 47780, Note_on_c, 0, 80, 0
2, 47880, Note_on_c, 0, 73, 59
2, 47900, Note_on_c, 0, 77, 0
2, 48000, Note_on_c, 0, 73, 0
2, 48000, Note_on_c, 0, 72, 57
2, 48120, Note_on_c, 0, 73, 58
2, 48140, Note_on_c, 0, 72, 0
2, 48240, Note_on_c, 0, 75, 59
2, 48260, Note_on_c, 0, 73, 0
2, 48360, Note_on_c, 0, 76, 61
2, 48380, Note_on_c, 0, 75, 0
2, 48480, Note_on_c, 0, 77, 62
2, 48500, Note_on_c, 0, 76, 0
2, 48600, Note_on_c, 0, 78, 63
2, 48620, Note_on_c, 0, 77, 0
2, 48720, Note_on_c, 0, 80, 63
2, 48740, Note_on_c, 0, 78, 0
2, 48840, Note_on_c, 0, 81, 65
2, 48860, Note_on_c, 0, 80, 0
2, 48960, Note_on_c, 0, 79, 64
2, 48980, Note_on_c, 0, 81, 0
2, 49080, Note_on_c, 0, 80, 63
2, 49100, Note_on_c, 0, 79, 0
2, 49200, Note_on_c, 0, 75, 63
2, 49220, Note_on_c, 0, 80, 0
2, 49320, Note_on_c, 0, 76, 61
2, 49340, Note_on_c, 0, 75, 0
2, 49440, Note_on_c, 0, 68, 60
2, 49460, Note_on_c, 0, 76, 0
2, 49560, Note_on_c, 0, 76, 59
2, 49580, Note_on_c, 0, 68, 0
2, 49680, Note_on_c, 0, 75, 57
2, 49700, Note_on_c, 0, 76, 0
2, 49800, Note_on_c, 0, 73, 56
2, 49820, Note_on_c, 0, 75, 0
2, 49920, Note_on_c, 0, 73, 0
2, 49920, Note_on_c, 0, 72, 54
2, 50040, Note_on_c, 0, 73, 56
2, 50060, Note_on_c, 0, 72, 0
2, 50160, Note_on_c, 0, 75, 57
2, 50180, Note_on_c, 0, 73, 0
2, 50280, Note_on_c, 0, 76, 59
2, 50300, Note_on_c, 0, 75, 0
2, 50400, Note_on_c, 0, 77, 60
2, 50420, Note_on_c, 0, 76, 0
2, 50520, Note_on_c, 0, 78, 62
2, 50540, Note_on_c, 0, 77, 0
2, 50640, Note_on_c, 0, 80, 63
2, 50660, Note_on_c, 0, 78, 0
2, 50760, Note_on_c, 0, 81, 63
2, 50780, Note_on_c, 0, 80, 0
2, 50880, Note_on_c, 0, 79, 65
2, 50900, Note_on_c, 0, 81, 0
2, 51000, Note_on_c, 0, 80, 63
2, 51020, Note_on_c, 0, 79, 0
2, 51120, Note_on_c, 0, 75, 63
2, 51140, Note_on_c, 0, 80, 0
2, 51240, Note_on_c, 0, 76, 62
2, 51260, Note_on_c, 0, 75, 0
2, 51360, Note_on_c, 0, 68, 61
2, 51380, Note_on_c, 0, 76, 0
2, 51480, Note_on_c, 0, 76, 60
2, 51500, Note_on_c, 0, 68, 0
2, 51600, Note_on_c, 0, 73, 59
2, 51620, Note_on_c, 0, 76, 0
2, 51720, Note_on_c, 0, 71, 57
2, 51740, Note_on_c, 0, 73, 0
2, 51840, Note_on_c, 0, 71, 0
2, 51840, Note_on_c, 0, 70, 56
2, 51960, Note_on_c, 0, 71, 57
2, 51980, Note_on_c, 0, 70, 0
2, 52080, Note_on_c, 0, 73, 59
2, 52100, Note_on_c, 0, 71, 0
2, 52200, Note_on_c, 0, 74, 60
2, 52220, Note_on_c, 0, 73, 0
2, 52320, Note_on_c, 0, 75, 61
2, 52340, Note_on_c, 0, 74, 0
2, 52440, Note_on_c, 0, 76, 63
2, 52460, Note_on_c, 0, 75, 0
2, 52560, Note_on_c, 0, 78, 63
2, 52580, Note_on_c, 0, 76, 0
2, 52680, Note_on_c, 0, 79, 64
2, 52700, Note_on_c, 0, 78, 0
2, 52800, Note_on_c, 0, 77, 65
2, 52820, Note_on_c, 0, 79, 0
2, 52920, Note_on_c, 0, 78, 64
2, 52940, Note_on_c, 0, 77, 0
2, 53040, Note_on_c, 0, 75, 63
2, 53060, Note_on_c, 0, 78, 0
2, 53160, Note_on_c, 0, 76, 63
2, 53180, Note_on_c, 0, 75, 0
2, 53280, Note_on_c, 0, 73, 62
2, 53300, Note_on_c, 0, 76, 0
2, 53400, Note_on_c, 0, 74, 60
2, 53420, Note_on_c, 0, 73, 0
2, 53520, Note_on_c, 0, 71, 59
2, 53540, Note_on_c, 0, 74, 0
2, 53640, Note_on_c, 0, 69, 58
2, 53660, Note_on_c, 0, 71, 0
2, 53760, Note_on_c, 0, 69, 0
2, 53760, Note_on_c, 0, 68, 57
2, 53880, Note_on_c, 0, 69, 58
2, 53900, Note_on_c, 0, 68, 0
2, 54000, Note_on_c, 0, 71, 59
2, 54020, Note_on_c, 0, 69, 0
2, 54120, Note_on_c, 0, 72, 60
2, 54140, Note_on_c, 0, 71, 0
2, 54240, Note_on_c, 0, 73, 62
2, 54260, Note_on_c, 0, 72, 0
2, 54360, Note_on_c, 0, 74, 63
2, 54380, Note_on_c, 0, 73, 0
2, 54480, Note_on_c, 0, 76, 63
2, 54500, Note_on_c, 0, 74, 0
2, 54600, Note_on_c, 0, 77, 65
2, 54620, Note_on_c, 0, 76, 0
2, 54720, Note_on_c, 0, 75, 66
2, 54740, Note_on_c, 0, 77, 0
2, 54840, Note_on_c, 0, 76, 63
2, 54860, Note_on_c, 0, 75, 0
2, 54960, Note_on_c, 0, 73, 64
2, 54980, Note_on_c, 0, 76, 0
2, 55080, Note_on_c, 0, 74, 62
2, 55100, Note_on_c, 0, 73, 0
2, 55200, Note_on_c, 0, 71, 63
2, 55220, Note_on_c, 0, 74, 0
2, 55320, Note_on_c, 0, 72, 61
2, 55340, Note_on_c, 0, 71, 0
2, 55440, Note_on_c, 0, 71, 60
2, 55460, Note_on_c, 0, 72, 0
2, 55560, Note_on_c, 0, 69, 59
2, 55580, Note_on_c, 0, 71, 0
2, 55680, Note_on_c, 0, 69, 0
2, 55680, Note_on_c, 0, 68, 63
2, 55800, Note_on_c, 0, 69, 57
2, 55820, Note_on_c, 0, 68, 0
2, 55920, Note_on_c, 0, 73, 63
2, 55940, Note_on_c, 0, 69, 0
2, 56040, Note_on_c, 0, 72, 61
2, 56060, Note_on_c, 0, 73, 0
2, 56160, Note_on_c, 0, 70, 61
2, 56180, Note_on_c, 0, 72, 0
2, 56280, Note_on_c, 0, 69, 59
2, 56300, Note_on_c, 0, 70, 0
2, 56400, Note_on_c, 0, 78, 63
2, 56420, Note_on_c, 0, 69, 0
2, 56520, Note_on_c, 0, 77, 61
2, 56540, Note_on_c, 0, 78, 0
2, 56640, Note_on_c, 0, 75, 61
2, 56660, Note_on_c, 0, 77, 0
2, 56760, Note_on_c, 0, 73, 63
2, 56780, Note_on_c, 0, 75, 0
2, 56880, Note_on_c, 0, 73, 0
2, 56880, Note_on_c, 0, 84, 68
2, 57000, Note_on_c, 0, 82, 66
2, 57020, Note_on_c, 0, 84, 0
2, 57120, Note_on_c, 0, 80, 65
2, 57140, Note_on_c, 0, 82, 0
2, 57240, Note_on_c, 0, 78, 64
2, 57260, Note_on_c, 0, 80, 0
2, 57360, Note_on_c, 0, 77, 63
2, 57380, Note_on_c, 0, 78, 0
2, 57480, Note_on_c, 0, 75, 63
2, 57500, Note_on_c, 0, 77, 0
2, 57600, Note_on_c, 0, 73, 63
2, 57620, Note_on_c, 0, 75, 0
2, 57720, Note_on_c, 0, 72, 57
2, 57740, Note_on_c, 0, 73, 0
2, 57840, Note_on_c, 0, 72, 0
2, 57840, Note_on_c, 0, 82, 61
2, 57960, Note_on_c, 0, 80, 60
2, 57980, Note_on_c, 0, 82, 0
2, 58080, Note_on_c, 0, 78, 59
2, 58100, Note_on_c, 0, 80, 0
2, 58200, Note_on_c, 0, 77, 58
2, 58220, Note_on_c, 0, 78, 0
2, 58320, Note_on_c, 0, 75, 57
2, 58340, Note_on_c, 0, 77, 0
2, 58440, Note_on_c, 0, 73, 61
2, 58460, Note_on_c, 0, 75, 0
2, 58560, Note_on_c, 0, 72, 61
2, 58580, Note_on_c, 0, 73, 0
2, 58680, Note_on_c, 0, 70, 58
2, 58700, Note_on_c, 0, 72, 0
2, 58800, Note_on_c, 0, 70, 0
2, 58800, Note_on_c, 0, 80, 62
2, 58920, Note_on_c, 0, 78, 61
2, 58940, Note_on_c, 0, 80, 0
2, 59040, Note_on_c, 0, 77, 60
2, 59060, Note_on_c, 0, 78, 0
2, 59160, Note_on_c, 0, 75, 59
2, 59180, Note_on_c, 0, 77, 0
2, 59280, Note_on_c, 0, 73, 58
2, 59300, Note_on_c, 0, 75, 0
2, 59400, Note_on_c, 0, 72, 57
2, 59420, Note_on_c, 0, 73, 0
2, 59520, Note_on_c, 0, 70, 64
2, 59540, Note_on_c, 0, 72, 0
2, 59640, Note_on_c, 0, 69, 62
2, 59660, Note_on_c, 0, 70, 0
2, 59760, Note_on_c, 0, 68, 59
2, 59780, Note_on_c, 0, 69, 0
2, 59880, Note_on_c, 0, 67, 57
2, 59900, Note_on_c, 0, 68, 0
2, 60000, Note_on_c, 0, 67, 0
2, 60000, Note_on_c, 0, 68, 64
2, 60120, Note_on_c, 0, 67, 61
2, 60140, Note_on_c, 0, 68, 0
2, 60240, Note_on_c, 0, 66, 58
2, 60260, Note_on_c, 0, 67, 0
2, 60360, Note_on_c, 0, 65, 56
2, 60380, Note_on_c, 0, 66, 0
2, 60480, Note_on_c, 0, 65, 0
2, 60480, Note_on_c, 0, 67, 63
2, 60600, Note_on_c, 0, 66, 60
2, 60620, Note_on_c, 0, 67, 0
2, 60720, Note_on_c, 0, 65, 58
2, 60740, Note_on_c, 0, 66, 0
2, 60840, Note_on_c, 0, 64, 55
2, 60860, Note_on_c, 0, 65, 0
2, 60960, Note_on_c, 0, 64, 0
2, 60960, Note_on_c, 0, 66, 63
2, 61080, Note_on_c, 0, 65, 60
2, 61100, Note_on_c, 0, 66, 0
2, 61200, Note_on_c, 0, 64, 57
2, 61220, Note_on_c, 0, 65, 0
2, 61320, Note_on_c, 0, 63, 55
2, 61340, Note_on_c, 0, 64, 0
2, 61440, Note_on_c, 0, 63, 0
2, 61440, Note_on_c, 0, 65, 64
2, 61560, Note_on_c, 0, 64, 62
2, 61580, Note_on_c, 0, 65, 0
2, 61680, Note_on_c, 0, 63, 58
2, 61700, Note_on_c, 0, 64, 0
2, 61800, Note_on_c, 0, 62, 56
2, 61820, Note_on_c, 0, 63, 0
2, 61920, Note_on_c, 0, 62, 0
2, 61920, Note_on_c, 0, 64, 62
2, 62040, Note_on_c, 0, 63, 59
2, 62060, Note_on_c, 0, 64, 0
2, 62160, Note_on_c, 0, 62, 56
2, 62180, Note_on_c, 0, 63, 0
2, 62280, Note_on_c, 0, 61, 53
2, 62300, Note_on_c, 0, 62, 0
2, 62400, Note_on_c, 0, 61, 0
2, 62400, Note_on_c, 0, 63, 59
2, 62520, Note_on_c, 0, 62, 57
2, 62540, Note_on_c, 0, 63, 0
2, 62640, Note_on_c, 0, 61, 54
2, 62660, Note_on_c, 0, 62, 0
2, 62760, Note_on_c, 0, 60, 51
2, 62780, Note_on_c, 0, 61, 0
2, 62880, Note_on_c, 0, 60, 0
2, 62880, Note_on_c, 0, 63, 58
2, 63000, Note_on_c, 0, 61, 55
2, 63020, Note_on_c, 0, 63, 0
2, 63120, Note_on_c, 0, 60, 52
2, 63140, Note_on_c, 0, 61, 0
2, 63240, Note_on_c, 0, 58, 50
2, 63260, Note_on_c, 0, 60, 0
2, 63360, Note_on_c, 0, 58, 0
2, 63360, Note_on_c, 0, 57, 48
2, 63480, Note_on_c, 0, 58, 50
2, 63500, Note_on_c, 0, 57, 0
2, 63600, Note_on_c, 0, 60, 50
2, 63620, Note_on_c, 0, 58, 0
2, 63720, Note_on_c, 0, 61, 52
2, 63740, Note_on_c, 0, 60, 0
2, 63840, Note_on_c, 0, 63, 54
2, 63860, Note_on_c, 0, 61, 0
2, 63960, Note_on_c, 0, 64, 55
2, 63980, Note_on_c, 0, 63, 0
2, 64080, Note_on_c, 0, 65, 56
2, 64100, Note_on_c, 0, 64, 0
2, 64200, Note_on_c, 0, 66, 57
2, 64220, Note_on_c, 0, 65, 0
2, 64320, Note_on_c, 0, 64, 60
2, 64340, Note_on_c, 0, 66, 0
2, 64440, Note_on_c, 0, 65, 58
2, 64460, Note_on_c, 0, 64, 0
2, 64560, Note_on_c, 0, 62, 56
2, 64580, Note_on_c, 0, 65, 0
2, 64680, Note_on_c, 0, 63, 55
2, 64700, Note_on_c, 0, 62, 0
2, 64800, Note_on_c, 0, 60, 54
2, 64820, Note_on_c, 0, 63, 0
2, 64920, Note_on_c, 0, 61, 52
2, 64940, Note_on_c, 0, 60, 0
2, 65040, Note_on_c, 0, 60, 51
2, 65060, Note_on_c, 0, 61, 0
2, 65160, Note_on_c, 0, 58, 49
2, 65180, Note_on_c, 0, 60, 0
2, 65280, Note_on_c, 0, 58, 0
2, 65280, Note_on_c, 0, 57, 47
2, 65400, Note_on_c, 0, 58, 49
2, 65420, Note_on_c, 0, 57, 0
2, 65520, Note_on_c, 0, 60, 50
2, 65540, Note_on_c, 0, 58, 0
2, 65640, Note_on_c, 0, 61, 52
2, 65660, Note_on_c, 0, 60, 0
2, 65760, Note_on_c, 0, 63, 54
2, 65780, Note_on_c, 0, 61, 0
2, 65880, Note_on_c, 0, 64, 56
2, 65900, Note_on_c, 0, 63, 0
2, 66000, Note_on_c, 0, 65, 58
2, 66020, Note_on_c, 0, 64, 0
2, 66120, Note_on_c, 0, 66, 60
2, 66140, Note_on_c, 0, 65, 0
2, 66240, Note_on_c, 0, 64, 60
2, 66260, Note_on_c, 0, 66, 0
2, 66360, Note_on_c, 0, 65, 59
2, 66380, Note_on_c, 0, 64, 0
2, 66480, Note_on_c, 0, 62, 57
2, 66500, Note_on_c, 0, 65, 0
2, 66600, Note_on_c, 0, 63, 57
2, 66620, Note_on_c, 0, 62, 0
2, 66720, Note_on_c, 0, 60, 55
2, 66740, Note_on_c, 0, 63, 0
2, 66840, Note_on_c, 0, 61, 53
2, 66860, Note_on_c, 0, 60, 0
2, 66960, Note_on_c, 0, 60, 53
2, 66980, Note_on_c, 0, 61, 0
2, 67080, Note_on_c, 0, 58, 51
2, 67100, Note_on_c, 0, 60, 0
2, 67200, Note_on_c, 0, 58, 0
2, 67200, Note_on_c, 0, 60, 47
2, 67320, Note_on_c, 0, 61, 49
2, 67340, Note_on_c, 0, 60, 0
2, 67440, Note_on_c, 0, 63, 50
2, 67460, Note_on_c, 0, 61, 0
2, 67560, Note_on_c, 0, 65, 52
2, 67580, Note_on_c, 0, 63, 0
2, 67680, Note_on_c, 0, 66, 54
2, 67700, Note_on_c, 0, 65, 0
2, 67800, Note_on_c, 0, 72, 56
2, 67820, Note_on_c, 0, 66, 0
2, 67920, Note_on_c, 0, 70, 54
2, 67940, Note_on_c, 0, 72, 0
2, 68040, Note_on_c, 0, 60, 56
2, 68060, Note_on_c, 0, 70, 0
2, 68160, Note_on_c, 0, 58, 47
2, 68180, Note_on_c, 0, 60, 0
2, 68280, Note_on_c, 0, 60, 49
2, 68300, Note_on_c, 0, 58, 0
2, 68400, Note_on_c, 0, 61, 51
2, 68420, Note_on_c, 0, 60, 0
2, 68520, Note_on_c, 0, 63, 53
2, 68540, Note_on_c, 0, 61, 0
2, 68640, Note_on_c, 0, 65, 56
2, 68660, Note_on_c, 0, 63, 0
2, 68760, Note_on_c, 0, 72, 58
2, 68780, Note_on_c, 0, 65, 0
2, 68880, Note_on_c, 0, 70, 56
2, 68900, Note_on_c, 0, 72, 0
2, 69000, Note_on_c, 0, 66, 57
2, 69020, Note_on_c, 0, 70, 0
2, 69120, Note_on_c, 0, 66, 0
2, 69120, Note_on_c, 0, 64, 47
2, 69240, Note_on_c, 0, 65, 49
2, 69260, Note_on_c, 0, 64, 0
2, 69360, Note_on_c, 0, 66, 50
2, 69380, Note_on_c, 0, 65, 0
2, 69480, Note_on_c, 0, 65, 52
2, 69500, Note_on_c, 0, 66, 0
2, 69600, Note_on_c, 0, 70, 56
2, 69620, Note_on_c, 0, 65, 0
2, 69720, Note_on_c, 0, 69, 54
2, 69740, Note_on_c, 0, 70, 0
2, 69840, Note_on_c, 0, 78, 64
2, 69860, Note_on_c, 0, 69, 0
2, 69960, Note_on_c, 0, 77, 62
2, 69980, Note_on_c, 0, 78, 0
2, 70080, Note_on_c, 0, 75, 66
2, 70100, Note_on_c, 0, 77, 0
2, 70200, Note_on_c, 0, 73, 63
2, 70220, Note_on_c, 0, 75, 0
2, 70320, Note_on_c, 0, 70, 61
2, 70340, Note_on_c, 0, 73, 0
2, 70440, Note_on_c, 0, 65, 56
2, 70460, Note_on_c, 0, 70, 0
2, 70560, Note_on_c, 0, 63, 56
2, 70580, Note_on_c, 0, 65, 0
2, 70680, Note_on_c, 0, 61, 54
2, 70700, Note_on_c, 0, 63, 0
2, 70800, Note_on_c, 0, 58, 52
2, 70820, Note_on_c, 0, 61, 0
2, 70920, Note_on_c, 0, 53, 50
2, 70940, Note_on_c, 0, 58, 0
2, 71040, Note_on_c, 0, 53, 0
2, 71040, Note_on_c, 0, 57, 48
2, 71160, Note_on_c, 0, 58, 50
2, 71180, Note_on_c, 0, 57, 0
2, 71280, Note_on_c, 0, 60, 50
2, 71300, Note_on_c, 0, 58, 0
2, 71400, Note_on_c, 0, 61, 52
2, 71420, Note_on_c, 0, 60, 0
2, 71520, Note_on_c, 0, 63, 54
2, 71540, Note_on_c, 0, 61, 0
2, 71640, Note_on_c, 0, 64, 55
2, 71660, Note_on_c, 0, 63, 0
2, 71760, Note_on_c, 0, 65, 56
2, 71780, Note_on_c, 0, 64, 0
2, 71880, Note_on_c, 0, 66, 57
2, 71900, Note_on_c, 0, 65, 0
2, 72000, Note_on_c, 0, 64, 60
2, 72020, Note_on_c, 0, 66, 0
2, 72120, Note_on_c, 0, 65, 58
2, 72140, Note_on_c, 0, 64, 0
2, 72240, Note_on_c, 0, 62, 56
2, 72260, Note_on_c, 0, 65, 0
2, 72360, Note_on_c, 0, 63, 55
2, 72380, Note_on_c, 0, 62, 0
2, 72480, Note_on_c, 0, 60, 54
2, 72500, Note_on_c, 0, 63, 0
2, 72600, Note_on_c, 0, 61, 52
2, 72620, Note_on_c, 0, 60, 0
2, 72720, Note_on_c, 0, 60, 51
2, 72740, Note_on_c, 0, 61, 0
2, 72840, Note_on_c, 0, 58, 49
2, 72860, Note_on_c, 0, 60, 0
2, 72960, Note_on_c, 0, 58, 0
2, 72960, Note_on_c, 0, 57, 47
2, 73080, Note_on_c, 0, 58, 49
2, 73100, Note_on_c, 0, 57, 0
2, 73200, Note_on_c, 0, 60, 50
2, 73220, Note_on_c, 0, 58, 0
2, 73320, Note_on_c, 0, 61, 52
2, 73340, Note_on_c, 0, 60, 0
2, 73440, Note_on_c, 0, 63, 54
2, 73460, Note_on_c, 0, 61, 0
2, 73560, Note_on_c, 0, 64, 56
2, 73580, Note_on_c, 0, 63, 0
2, 73680, Note_on_c, 0, 65, 58
2, 73700, Note_on_c, 0, 64, 0
2, 73800, Note_on_c, 0, 66, 60
2, 73820, Note_on_c, 0, 65, 0
2, 73920, Note_on_c, 0, 64, 60
2, 73940, Note_on_c, 0, 66, 0
2, 74040, Note_on_c, 0, 65, 59
2, 74060, Note_on_c, 0, 64, 0
2, 74160, Note_on_c, 0, 62, 57
2, 74180, Note_on_c, 0, 65, 0
2, 74280, Note_on_c, 0, 63, 57
2, 74300, Note_on_c, 0, 62, 0
2, 74400, Note_on_c, 0, 60, 55
2, 74420, Note_on_c, 0, 63, 0
2, 74520, Note_on_c, 0, 61, 53
2, 74540, Note_on_c, 0, 60, 0
2, 74640, Note_on_c, 0, 60, 53
2, 74660, Note_on_c, 0, 61, 0
2, 74760, Note_on_c, 0, 58, 51
2, 74780, Note_on_c, 0, 60, 0
2, 74880, Note_on_c, 0, 58, 0
2, 74880, Note_on_c, 0, 59, 52
2, 75000, Note_on_c, 0, 61, 53
2, 75020, Note_on_c, 0, 59, 0
2, 75120, Note_on_c, 0, 63, 55
2, 75140, Note_on_c, 0, 61, 0
2, 75240, Note_on_c, 0, 64, 56
2, 75260, Note_on_c, 0, 63, 0
2, 75360, Note_on_c, 0, 66, 58
2, 75380, Note_on_c, 0, 64, 0
2, 75480, Note_on_c, 0, 68, 60
2, 75500, Note_on_c, 0, 66, 0
2, 75600, Note_on_c, 0, 70, 62
2, 75620, Note_on_c, 0, 68, 0
2, 75720, Note_on_c, 0, 71, 63
2, 75740, Note_on_c, 0, 70, 0
2, 75840, Note_on_c, 0, 73, 66
2, 75860, Note_on_c, 0, 71, 0
2, 75960, Note_on_c, 0, 75, 68
2, 75980, Note_on_c, 0, 73, 0
2, 76080, Note_on_c, 0, 76, 70
2, 76100, Note_on_c, 0, 75, 0
2, 76200, Note_on_c, 0, 78, 72
2, 76220, Note_on_c, 0, 76, 0
2, 76320, Note_on_c, 0, 80, 73
2, 76340, Note_on_c, 0, 78, 0
2, 76440, Note_on_c, 0, 82, 76
2, 76460, Note_on_c, 0, 80, 0
2, 76560, Note_on_c, 0, 83, 77
2, 76580, Note_on_c, 0, 82, 0
2, 76680, Note_on_c, 0, 85, 80
2, 76700, Note_on_c, 0, 83, 0
2, 76800, Note_on_c, 0, 88, 81
2, 76820, Note_on_c, 0, 85, 0
2, 76920, Note_on_c, 0, 87, 80
2, 76940, Note_on_c, 0, 88, 0
2, 77040, Note_on_c, 0, 83, 79
2, 77060, Note_on_c, 0, 87, 0
2, 77160, Note_on_c, 0, 80, 78
2, 77180, Note_on_c, 0, 83, 0
2, 77280, Note_on_c, 0, 78, 76
2, 77300, Note_on_c, 0, 80, 0
2, 77400, Note_on_c, 0, 75, 75
2, 77420, Note_on_c, 0, 78, 0
2, 77520, Note_on_c, 0, 71, 74
2, 77540, Note_on_c, 0, 75, 0
2, 77640, Note_on_c, 0, 68, 73
2, 77660, Note_on_c, 0, 71, 0
2, 77760, Note_on_c, 0, 66, 71
2, 77780, Note_on_c, 0, 68, 0
2, 77880, Note_on_c, 0, 63, 70
2, 77900, Note_on_c, 0, 66, 0
2, 78000, Note_on_c, 0, 59, 69
2, 78020, Note_on_c, 0, 63, 0
2, 78120, Note_on_c, 0, 56, 68
2, 78140, Note_on_c, 0, 59, 0
2, 78240, Note_on_c, 0, 54, 66
2, 78260, Note_on_c, 0, 56, 0
2, 78360, Note_on_c, 0, 51, 65
2, 78380, Note_on_c, 0, 54, 0
2, 78480, Note_on_c, 0, 47, 64
2, 78500, Note_on_c, 0, 51, 0
2, 78600, Note_on_c, 0, 44, 63
2, 78620, Note_on_c, 0, 47, 0
2, 78720, Note_on_c, 0, 44, 0
2, 78720, Note_on_c, 0, 40, 66
2, 78840, Note_on_c, 0, 41, 66
2, 78860, Note_on_c, 0, 40, 0
2, 78960, Note_on_c, 0, 46, 66
2, 78980, Note_on_c, 0, 41, 0
2, 79080, Note_on_c, 0, 45, 67
2, 79100, Note_on_c, 0, 46, 0
2, 79200, Note_on_c, 0, 42, 67
2, 79220, Note_on_c, 0, 45, 0
2, 79320, Note_on_c, 0, 41, 67
2, 79340, Note_on_c, 0, 42, 0
2, 79440, Note_on_c, 0, 49, 68
2, 79460, Note_on_c, 0, 41, 0
2, 79560, Note_on_c, 0, 48, 68
2, 79580, Note_on_c, 0, 49, 0
2, 79680, Note_on_c, 0, 46, 68
2, 79700, Note_on_c, 0, 48, 0
2, 79800, Note_on_c, 0, 45, 69
2, 79820, Note_on_c, 0, 46, 0
2, 79920, Note_on_c, 0, 54, 69
2, 79940, Note_on_c, 0, 45, 0
2, 80040, Note_on_c, 0, 53, 70
2, 80060, Note_on_c, 0, 54, 0
2, 80160, Note_on_c, 0, 49, 70
2, 80180, Note_on_c, 0, 53, 0
2, 80280, Note_on_c, 0, 48, 70
2, 80300, Note_on_c, 0, 49, 0
2, 80400, Note_on_c, 0, 58, 71
2, 80420, Note_on_c, 0, 48, 0
2, 80520, Note_on_c, 0, 57, 71
2, 80540, Note_on_c, 0, 58, 0
2, 80640, Note_on_c, 0, 54, 71
2, 80660, Note_on_c, 0, 57, 0
2, 80760, Note_on_c, 0, 53, 72
2, 80780, Note_on_c, 0, 54, 0
2, 80880, Note_on_c, 0, 61, 72
2, 80900, Note_on_c, 0, 53, 0
2, 81000, Note_on_c, 0, 60, 72
2, 81020, Note_on_c, 0, 61, 0
2, 81120, Note_on_c, 0, 58, 73
2, 81140, Note_on_c, 0, 60, 0
2, 81240, Note_on_c, 0, 57, 73
2, 81260, Note_on_c, 0, 58, 0
2, 81360, Note_on_c, 0, 66, 73
2, 81380, Note_on_c, 0, 57, 0
2, 81480, Note_on_c, 0, 65, 74
2, 81500, Note_on_c, 0, 66, 0
2, 81600, Note_on_c, 0, 61, 74
2, 81620, Note_on_c, 0, 65, 0
2, 81720, Note_on_c, 0, 60, 75
2, 81740, Note_on_c, 0, 61, 0
2, 81840, Note_on_c, 0, 70, 75
2, 81860, Note_on_c, 0, 60, 0
2, 81960, Note_on_c, 0, 69, 75
2, 81980, Note_on_c, 0, 70, 0
2, 82080, Note_on_c, 0, 66, 76
2, 82100, Note_on_c, 0, 69, 0
2, 82200, Note_on_c, 0, 65, 76
2, 82220, Note_on_c, 0, 66, 0
2, 82320, Note_on_c, 0, 73, 76
2, 82340, Note_on_c, 0, 65, 0
2, 82440, Note_on_c, 0, 72, 77
2, 82460, Note_on_c, 0, 73, 0
2, 82560, Note_on_c, 0, 72, 0
2, 82560, Note_on_c, 0, 70, 77
2, 82680, Note_on_c, 0, 69, 77
2, 82700, Note_on_c, 0, 70, 0
2, 82800, Note_on_c, 0, 78, 78
2, 82820, Note_on_c, 0, 69, 0
2, 82920, Note_on_c, 0, 77, 78
2, 82940, Note_on_c, 0, 78, 0
2, 83040, Note_on_c, 0, 73, 79
2, 83060, Note_on_c, 0, 77, 0
2, 83160, Note_on_c, 0, 72, 79
2, 83180, Note_on_c, 0, 73, 0
2, 83280, Note_on_c, 0, 82, 79
2, 83300, Note_on_c, 0, 72, 0
2, 83400, Note_on_c, 0, 81, 80
2, 83420, Note_on_c, 0, 82, 0
2, 83520, Note_on_c, 0, 78, 80
2, 83540, Note_on_c, 0, 81, 0
2, 83640, Note_on_c, 0, 77, 80
2, 83660, Note_on_c, 0, 78, 0
2, 83760, Note_on_c, 0, 85, 81
2, 83780, Note_on_c, 0, 77, 0
2, 83880, Note_on_c, 0, 84, 81
2, 83900, Note_on_c, 0, 85, 0
2, 84000, Note_on_c, 0, 82, 81
2, 84020, Note_on_c, 0, 84, 0
2, 84120, Note_on_c, 0, 81, 82
2, 84140, Note_on_c, 0, 82, 0
2, 84240, Note_on_c, 0, 90, 82
2, 84260, Note_on_c, 0, 81, 0
2, 84360, Note_on_c, 0, 89, 82
2, 84380, Note_on_c, 0, 90, 0
2, 84480, Note_on_c, 0, 85, 83
2, 84500, Note_on_c, 0, 89, 0
2, 84600, Note_on_c, 0, 84, 83
2, 84620, Note_on_c, 0, 85, 0
2, 84720, Note_on_c, 0, 94, 84
2, 84740, Note_on_c, 0, 84, 0
2, 84840, Note_on_c, 0, 93, 84
2, 84860, Note_on_c, 0, 94, 0
2, 84960, Note_on_c, 0, 90, 84
2, 84980, Note_on_c, 0, 93, 0
2, 85080, Note_on_c, 0, 89, 85
2, 85100, Note_on_c, 0, 90, 0
2, 85200, Note_on_c, 0, 97, 85
2, 85220, Note_on_c, 0, 89, 0
2, 85320, Note_on_c, 0, 96, 85
2, 85340, Note_on_c, 0, 97, 0
2, 85440, Note_on_c, 0, 101, 93
2, 85460, Note_on_c, 0, 96, 0
2, 85580, Note_on_c, 0, 101, 0
2, 85920, Note_on_c, 0, 63, 85
2, 85920, Note_on_c, 0, 69, 85
2, 85920, Note_on_c, 0, 77, 100
2, 86040, Note_on_c, 0, 77, 0
2, 86040, Note_on_c, 0, 69, 0
2, 86040, Note_on_c, 0, 63, 0
2, 86400, Note_on_c, 0, 82, 113
2, 86400, Note_on_c, 0, 70, 100
2, 86640, Note_on_c, 0, 70, 0
2, 86640, Note_on_c, 0, 82, 0
2, 86640, End_track
3, 0, Start_track
3, 0, MIDI_port, 0
3, 0, Title_t, "Piano left"
3, 0, Program_c, 0, 0
3, 0, Control_c, 0, 7, 100
3, 0, Control_c, 0, 10, 64
3, 0, Control_c, 0, 64, 127
3, 0, Control_c, 0, 91, 127
3, 0, Control_c, 0, 91, 127
3, 120, Note_on_c, 0, 29, 70
3, 120, Note_on_c, 0, 41, 84
3, 320, Note_on_c, 0, 41, 0
3, 320, Note_on_c, 0, 29, 0
3, 320, Note_on_c, 0, 48, 47
3, 320, Note_on_c, 0, 53, 53
3, 320, Note_on_c, 0, 60, 71
3, 640, Note_on_c, 0, 60, 0
3, 640, Note_on_c, 0, 53, 0
3, 640, Note_on_c, 0, 48, 0
3, 640, Note_on_c, 0, 48, 46
3, 640, Note_on_c, 0, 53, 52
3, 640, Note_on_c, 0, 60, 70
3, 960, Note_on_c, 0, 60, 0
3, 960, Note_on_c, 0, 53, 0
3, 960, Note_on_c, 0, 48, 0
3, 960, Note_on_c, 0, 48, 47
3, 960, Note_on_c, 0, 53, 53
3, 960, Note_on_c, 0, 60, 72
3, 1280, Note_on_c, 0, 60, 0
3, 1280, Note_on_c, 0, 53, 0
3, 1280, Note_on_c, 0, 48, 0
3, 1280, Note_on_c, 0, 48, 48
3, 1280, Note_on_c, 0, 53, 55
3, 1280, Note_on_c, 0, 60, 74
3, 1600, Note_on_c, 0, 60, 0
3, 1600, Note_on_c, 0, 53, 0
3, 1600, Note_on_c, 0, 48, 0
3, 1600, Note_on_c, 0, 48, 46
3, 1600, Note_on_c, 0, 53, 52
3, 1600, Note_on_c, 0, 60, 70
3, 1888, Control_c, 0, 64, 0
3, 1900, Note_on_c, 0, 60, 0
3, 1900, Note_on_c, 0, 53, 0
3, 1900, Note_on_c, 0, 48, 0
3, 1920, Note_on_c, 0, 46, 63
3, 1983, Control_c, 0, 64, 127
3, 2160, Note_on_c, 0, 46, 0
3, 2160, Note_on_c, 0, 61, 35
3, 2160, Note_on_c, 0, 53, 28
3, 2223, Control_c, 0, 64, 0
3, 2280, Note_on_c, 0, 53, 0
3, 2280, Note_on_c, 0, 61, 0
3, 2640, Note_on_c, 0, 41, 48
3, 2880, Note_on_c, 0, 41, 0
3, 2880, Note_on_c, 0, 46, 68
3, 2931, Control_c, 0, 64, 127
3, 3120, Note_on_c, 0, 46, 0
3, 3120, Note_on_c, 0, 61, 40
3, 3120, Note_on_c, 0, 53, 32
3, 3211, Control_c, 0, 64, 0
3, 3240, Note_on_c, 0, 53, 0
3, 3240, Note_on_c, 0, 61, 0
3, 3600, Note_on_c, 0, 41, 56
3, 3840, Note_on_c, 0, 41, 0
3, 3840, Note_on_c, 0, 46, 77
3, 3846, Control_c, 0, 64, 127
3, 4080, Note_on_c, 0, 46, 0
3, 4080, Note_on_c, 0, 61, 42
3, 4080, Note_on_c, 0, 53, 34
3, 4183, Control_c, 0, 64, 0
3, 4200, Note_on_c, 0, 53, 0
3, 4200, Note_on_c, 0, 61, 0
3, 4560, Note_on_c, 0, 41, 59
3, 4800, Note_on_c, 0, 41, 0
3, 4800, Note_on_c, 0, 46, 81
3, 4840, Control_c, 0, 64, 127
3, 5040, Note_on_c, 0, 46, 0
3, 5040, Note_on_c, 0, 61, 49
3, 5040, Note_on_c, 0, 53, 41
3, 5160, Note_on_c, 0, 53, 0
3, 5160, Note_on_c, 0, 61, 0
3, 5200, Control_c, 0, 64, 0
3, 5520, Note_on_c, 0, 41, 55
3, 5760, Note_on_c, 0, 41, 0
3, 5760, Note_on_c, 0, 46, 71
3, 5771, Control_c, 0, 64, 127
3, 6000, Note_on_c, 0, 46, 0
3, 6000, Note_on_c, 0, 61, 45
3, 6000, Note_on_c, 0, 53, 38
3, 6091, Control_c, 0, 64, 0
3, 6120, Note_on_c, 0, 53, 0
3, 6120, Note_on_c, 0, 61, 0
3, 6480, Note_on_c, 0, 41, 50
3, 6720, Note_on_c, 0, 41, 0
3, 6720, Control_c, 0, 64, 127
3, 6720, Note_on_c, 0, 46, 64
3, 6960, Note_on_c, 0, 46, 0
3, 6960, Note_on_c, 0, 61, 40
3, 6960, Note_on_c, 0, 53, 33
3, 7080, Note_on_c, 0, 53, 0
3, 7080, Note_on_c, 0, 61, 0
3, 7194, Control_c, 0, 64, 0
3, 7440, Note_on_c, 0, 41, 47
3, 7680, Note_on_c, 0, 41, 0
3, 7680, Control_c, 0, 64, 127
3, 7680, Note_on_c, 0, 46, 60
3, 7920, Note_on_c, 0, 46, 0
3, 7920, Note_on_c, 0, 63, 33
3, 7920, Note_on_c, 0, 54, 27
3, 7920, Note_on_c, 0, 51, 27
3, 8040, Note_on_c, 0, 51, 0
3, 8040, Note_on_c, 0, 54, 0
3, 8040, Note_on_c, 0, 63, 0
3, 8315, Control_c, 0, 64, 0
3, 8400, Note_on_c, 0, 34, 51
3, 8640, Note_on_c, 0, 34, 0
3, 8640, Note_on_c, 0, 46, 70
3, 8682, Control_c, 0, 64, 127
3, 8880, Note_on_c, 0, 46, 0
3, 8880, Note_on_c, 0, 63, 42
3, 8880, Note_on_c, 0, 54, 35
3, 8880, Note_on_c, 0, 51, 35
3, 9000, Note_on_c, 0, 51, 0
3, 9000, Note_on_c, 0, 54, 0
3, 9000, Note_on_c, 0, 63, 0
3, 9176, Control_c, 0, 64, 0
3, 9360, Note_on_c, 0, 34, 47
3, 9600, Note_on_c, 0, 34, 0
3, 9600, Note_on_c, 0, 46, 66
3, 9606, Control_c, 0, 64, 127
3, 9840, Note_on_c, 0, 46, 0
3, 9840, Note_on_c, 0, 63, 37
3, 9840, Note_on_c, 0, 54, 31
3, 9840, Note_on_c, 0, 51, 31
3, 9960, Note_on_c, 0, 51, 0
3, 9960, Note_on_c, 0, 54, 0
3, 9960, Note_on_c, 0, 63, 0
3, 10074, Control_c, 0, 64, 0
3, 10320, Note_on_c, 0, 34, 44
3, 10560, Note_on_c, 0, 34, 0
3, 10560, Note_on_c, 0, 46, 60
3, 10589, Control_c, 0, 64, 127
3, 10800, Note_on_c, 0, 46, 0
3, 10800, Note_on_c, 0, 63, 35
3, 10800, Note_on_c, 0, 54, 29
3, 10800, Note_on_c, 0, 51, 29
3, 10920, Note_on_c, 0, 51, 0
3, 10920, Note_on_c, 0, 54, 0
3, 10920, Note_on_c, 0, 63, 0
3, 11029, Control_c, 0, 64, 0
3, 11280, Note_on_c, 0, 34, 51
3, 11520, Note_on_c, 0, 34, 0
3, 11520, Note_on_c, 0, 46, 70
3, 11549, Control_c, 0, 64, 127
3, 11760, Note_on_c, 0, 46, 0
3, 11760, Note_on_c, 0, 63, 39
3, 11760, Note_on_c, 0, 54, 33
3, 11760, Note_on_c, 0, 51, 33
3, 11880, Note_on_c, 0, 51, 0
3, 11880, Note_on_c, 0, 54, 0
3, 11880, Note_on_c, 0, 63, 0
3, 12046, Control_c, 0, 64, 0
3, 12240, Note_on_c, 0, 34, 67
3, 12480, Note_on_c, 0, 34, 0
3, 12480, Note_on_c, 0, 46, 81
3, 12503, Control_c, 0, 64, 127
3, 12720, Note_on_c, 0, 46, 0
3, 12720, Note_on_c, 0, 63, 43
3, 12720, Note_on_c, 0, 54, 35
3, 12720, Note_on_c, 0, 51, 35
3, 12840, Note_on_c, 0, 51, 0
3, 12840, Note_on_c, 0, 54, 0
3, 12840, Note_on_c, 0, 63, 0
3, 13029, Control_c, 0, 64, 0
3, 13200, Note_on_c, 0, 46, 70
3, 13440, Note_on_c, 0, 46, 0
3, 13440, Note_on_c, 0, 45, 87
3, 13457, Control_c, 0, 64, 127
3, 13680, Note_on_c, 0, 45, 0
3, 13680, Note_on_c, 0, 63, 51
3, 13680, Note_on_c, 0, 54, 43
3, 13800, Note_on_c, 0, 54, 0
3, 13800, Note_on_c, 0, 63, 0
3, 13983, Control_c, 0, 64, 0
3, 14160, Note_on_c, 0, 33, 55
3, 14400, Note_on_c, 0, 33, 0
3, 14400, Note_on_c, 0, 45, 71
3, 14429, Control_c, 0, 64, 127
3, 14640, Note_on_c, 0, 45, 0
3, 14640, Note_on_c, 0, 63, 44
3, 14640, Note_on_c, 0, 54, 37
3, 14760, Note_on_c, 0, 54, 0
3, 14760, Note_on_c, 0, 63, 0
3, 14937, Control_c, 0, 64, 0
3, 15120, Note_on_c, 0, 44, 48
3, 15360, Note_on_c, 0, 44, 0
3, 15360, Note_on_c, 0, 46, 65
3, 15409, Control_c, 0, 64, 127
3, 15600, Note_on_c, 0, 46, 0
3, 15600, Note_on_c, 0, 61, 41
3, 15600, Note_on_c, 0, 53, 34
3, 15706, Control_c, 0, 64, 0
3, 15720, Note_on_c, 0, 53, 0
3, 15720, Note_on_c, 0, 61, 0
3, 16080, Note_on_c, 0, 46, 46
3, 16320, Note_on_c, 0, 46, 0
3, 16320, Note_on_c, 0, 49, 58
3, 16369, Control_c, 0, 64, 127
3, 16560, Note_on_c, 0, 49, 0
3, 16560, Note_on_c, 0, 65, 35
3, 16560, Note_on_c, 0, 58, 30
3, 16560, Note_on_c, 0, 53, 30
3, 16680, Note_on_c, 0, 53, 0
3, 16680, Note_on_c, 0, 58, 0
3, 16680, Note_on_c, 0, 65, 0
3, 16708, Control_c, 0, 64, 0
3, 17040, Note_on_c, 0, 49, 39
3, 17280, Note_on_c, 0, 49, 0
3, 17280, Note_on_c, 0, 51, 49
3, 17297, Control_c, 0, 64, 127
3, 17520, Note_on_c, 0, 51, 0
3, 17520, Note_on_c, 0, 66, 30
3, 17520, Note_on_c, 0, 57, 24
3, 17640, Note_on_c, 0, 57, 0
3, 17640, Note_on_c, 0, 66, 0
3, 17674, Control_c, 0, 64, 0
3, 18000, Note_on_c, 0, 51, 42
3, 18240, Note_on_c, 0, 51, 0
3, 18240, Note_on_c, 0, 49, 58
3, 18257, Control_c, 0, 64, 127
3, 18480, Note_on_c, 0, 49, 0
3, 18480, Note_on_c, 0, 65, 34
3, 18480, Note_on_c, 0, 58, 22
3, 18480, Note_on_c, 0, 53, 22
3, 18600, Note_on_c, 0, 53, 0
3, 18600, Note_on_c, 0, 58, 0
3, 18600, Note_on_c, 0, 65, 0
3, 18737, Control_c, 0, 64, 0
3, 18960, Note_on_c, 0, 49, 48
3, 19200, Note_on_c, 0, 49, 0
3, 19200, Note_on_c, 0, 51, 59
3, 19234, Control_c, 0, 64, 127
3, 19440, Note_on_c, 0, 51, 0
3, 19440, Note_on_c, 0, 66, 32
3, 19440, Note_on_c, 0, 57, 26
3, 19560, Note_on_c, 0, 57, 0
3, 19560, Note_on_c, 0, 66, 0
3, 19646, Control_c, 0, 64, 0
3, 19920, Note_on_c, 0, 51, 43
3, 20160, Note_on_c, 0, 51, 0
3, 20160, Note_on_c, 0, 49, 61
3, 20183, Control_c, 0, 64, 127
3, 20400, Note_on_c, 0, 49, 0
3, 20400, Note_on_c, 0, 65, 35
3, 20400, Note_on_c, 0, 58, 29
3, 20400, Note_on_c, 0, 53, 29
3, 20520, Note_on_c, 0, 53, 0
3, 20520, Note_on_c, 0, 58, 0
3, 20520, Note_on_c, 0, 65, 0
3, 20674, Control_c, 0, 64, 0
3, 20880, Note_on_c, 0, 49, 43
3, 21120, Note_on_c, 0, 49, 0
3, 21120, Note_on_c, 0, 53, 50
3, 21137, Control_c, 0, 64, 127
3, 21360, Note_on_c, 0, 53, 0
3, 21360, Note_on_c, 0, 68, 34
3, 21360, Note_on_c, 0, 59, 28
3, 21480, Note_on_c, 0, 59, 0
3, 21480, Note_on_c, 0, 68, 0
3, 21509, Control_c, 0, 64, 0
3, 21840, Note_on_c, 0, 53, 47
3, 22080, Note_on_c, 0, 53, 0
3, 22080, Note_on_c, 0, 51, 64
3, 22114, Control_c, 0, 64, 127
3, 22320, Note_on_c, 0, 51, 0
3, 22320, Note_on_c, 0, 67, 38
3, 22320, Note_on_c, 0, 60, 31
3, 22320, Note_on_c, 0, 55, 31
3, 22440, Note_on_c, 0, 55, 0
3, 22440, Note_on_c, 0, 60, 0
3, 22440, Note_on_c, 0, 67, 0
3, 22594, Control_c, 0, 64, 0
3, 22800, Note_on_c, 0, 51, 42
3, 23040, Note_on_c, 0, 51, 0
3, 23040, Control_c, 0, 64, 127
3, 23040, Note_on_c, 0, 53, 50
3, 23280, Note_on_c, 0, 53, 0
3, 23280, Note_on_c, 0, 68, 34
3, 23280, Note_on_c, 0, 59, 28
3, 23366, Control_c, 0, 64, 0
3, 23400, Note_on_c, 0, 59, 0
3, 23400, Note_on_c, 0, 68, 0
3, 23760, Note_on_c, 0, 53, 45
3, 23971, Control_c, 0, 64, 127
3, 24000, Note_on_c, 0, 53, 0
3, 24000, Note_on_c, 0, 51, 62
3, 24240, Note_on_c, 0, 51, 0
3, 24240, Note_on_c, 0, 67, 38
3, 24240, Note_on_c, 0, 60, 31
3, 24240, Note_on_c, 0, 55, 31
3, 24360, Note_on_c, 0, 55, 0
3, 24360, Note_on_c, 0, 60, 0
3, 24360, Note_on_c, 0, 67, 0
3, 24463, Control_c, 0, 64, 0
3, 24720, Note_on_c, 0, 51, 53
3, 24960, Note_on_c, 0, 51, 0
3, 24960, Note_on_c, 0, 53, 65
3, 24971, Control_c, 0, 64, 127
3, 25200, Note_on_c, 0, 53, 0
3, 25200, Note_on_c, 0, 68, 34
3, 25200, Note_on_c, 0, 61, 28
3, 25200, Note_on_c, 0, 56, 28
3, 25320, Note_on_c, 0, 56, 0
3, 25320, Note_on_c, 0, 61, 0
3, 25320, Note_on_c, 0, 68, 0
3, 25463, Control_c, 0, 64, 0
3, 25680, Note_on_c, 0, 53, 48
3, 25920, Note_on_c, 0, 53, 0
3, 25920, Note_on_c, 0, 54, 65
3, 25949, Control_c, 0, 64, 127
3, 26160, Note_on_c, 0, 54, 0
3, 26160, Note_on_c, 0, 69, 40
3, 26160, Note_on_c, 0, 60, 33
3, 26160, Note_on_c, 0, 57, 33
3, 26280, Note_on_c, 0, 57, 0
3, 26280, Note_on_c, 0, 60, 0
3, 26280, Note_on_c, 0, 69, 0
3, 26434, Control_c, 0, 64, 0
3, 26640, Note_on_c, 0, 54, 47
3, 26880, Note_on_c, 0, 54, 0
3, 26880, Note_on_c, 0, 53, 60
3, 26903, Control_c, 0, 64, 127
3, 27120, Note_on_c, 0, 53, 0
3, 27120, Note_on_c, 0, 68, 36
3, 27120, Note_on_c, 0, 61, 32
3, 27120, Note_on_c, 0, 56, 32
3, 27240, Note_on_c, 0, 56, 0
3, 27240, Note_on_c, 0, 61, 0
3, 27240, Note_on_c, 0, 68, 0
3, 27331, Control_c, 0, 64, 0
3, 27600, Note_on_c, 0, 53, 54
3, 27840, Note_on_c, 0, 53, 0
3, 27840, Note_on_c, 0, 52, 70
3, 27863, Control_c, 0, 64, 127
3, 28080, Note_on_c, 0, 52, 0
3, 28080, Note_on_c, 0, 67, 40
3, 28080, Note_on_c, 0, 61, 35
3, 28080, Note_on_c, 0, 58, 35
3, 28200, Note_on_c, 0, 58, 0
3, 28200, Note_on_c, 0, 61, 0
3, 28200, Note_on_c, 0, 67, 0
3, 28354, Control_c, 0, 64, 0
3, 28560, Note_on_c, 0, 52, 58
3, 28800, Note_on_c, 0, 52, 0
3, 28800, Note_on_c, 0, 51, 76
3, 28840, Control_c, 0, 64, 127
3, 29040, Note_on_c, 0, 51, 0
3, 29040, Note_on_c, 0, 66, 44
3, 29040, Note_on_c, 0, 57, 36
3, 29160, Note_on_c, 0, 57, 0
3, 29160, Note_on_c, 0, 66, 0
3, 29291, Control_c, 0, 64, 0
3, 29520, Note_on_c, 0, 51, 65
3, 29760, Note_on_c, 0, 51, 0
3, 29760, Note_on_c, 0, 49, 78
3, 29766, Control_c, 0, 64, 127
3, 30000, Note_on_c, 0, 49, 0
3, 30000, Note_on_c, 0, 65, 44
3, 30000, Note_on_c, 0, 58, 36
3, 30000, Note_on_c, 0, 53, 36
3, 30120, Note_on_c, 0, 53, 0
3, 30120, Note_on_c, 0, 58, 0
3, 30120, Note_on_c, 0, 65, 0
3, 30246, Control_c, 0, 64, 0
3, 30720, Note_on_c, 0, 41, 91
3, 30737, Control_c, 0, 64, 127
3, 30960, Note_on_c, 0, 41, 0
3, 31200, Note_on_c, 0, 63, 81
3, 31200, Note_on_c, 0, 57, 68
3, 31200, Note_on_c, 0, 48, 68
3, 31200, Note_on_c, 0, 51, 68
3, 31680, Note_on_c, 0, 51, 0
3, 31680, Note_on_c, 0, 63, 0
3, 31680, Note_on_c, 0, 57, 0
3, 31680, Note_on_c, 0, 48, 0
3, 32640, Note_on_c, 0, 34, 67
3, 32640, Control_c, 0, 64, 0
3, 32640, Note_on_c, 0, 46, 84
3, 32703, Control_c, 0, 64, 127
3, 32880, Note_on_c, 0, 46, 0
3, 32880, Note_on_c, 0, 34, 0
3, 32880, Note_on_c, 0, 49, 43
3, 32880, Note_on_c, 0, 61, 62
3, 32880, Note_on_c, 0, 53, 51
3, 33000, Note_on_c, 0, 53, 0
3, 33000, Note_on_c, 0, 61, 0
3, 33000, Note_on_c, 0, 49, 0
3, 33051, Control_c, 0, 64, 0
3, 33360, Note_on_c, 0, 29, 53
3, 33360, Note_on_c, 0, 41, 69
3, 33600, Note_on_c, 0, 41, 0
3, 33600, Note_on_c, 0, 29, 0
3, 33600, Note_on_c, 0, 34, 68
3, 33600, Note_on_c, 0, 46, 86
3, 33651, Control_c, 0, 64, 127
3, 33840, Note_on_c, 0, 46, 0
3, 33840, Note_on_c, 0, 34, 0
3, 33840, Note_on_c, 0, 49, 42
3, 33840, Note_on_c, 0, 61, 62
3, 33840, Note_on_c, 0, 53, 50
3, 33960, Note_on_c, 0, 53, 0
3, 33960, Note_on_c, 0, 61, 0
3, 33960, Note_on_c, 0, 49, 0
3, 34046, Control_c, 0, 64, 0
3, 34320, Note_on_c, 0, 29, 61
3, 34320, Note_on_c, 0, 41, 77
3, 34560, Note_on_c, 0, 41, 0
3, 34560, Note_on_c, 0, 29, 0
3, 34560, Note_on_c, 0, 34, 73
3, 34560, Note_on_c, 0, 46, 93
3, 34566, Control_c, 0, 64, 127
3, 34800, Note_on_c, 0, 46, 0
3, 34800, Note_on_c, 0, 34, 0
3, 34800, Note_on_c, 0, 49, 44
3, 34800, Note_on_c, 0, 61, 63
3, 34800, Note_on_c, 0, 53, 52
3, 34920, Note_on_c, 0, 53, 0
3, 34920, Note_on_c, 0, 61, 0
3, 34920, Note_on_c, 0, 49, 0
3, 35114, Control_c, 0, 64, 0
3, 35280, Note_on_c, 0, 29, 62
3, 35280, Note_on_c, 0, 41, 79
3, 35520, Note_on_c, 0, 41, 0
3, 35520, Note_on_c, 0, 29, 0
3, 35520, Note_on_c, 0, 34, 79
3, 35520, Note_on_c, 0, 46, 96
3, 35560, Control_c, 0, 64, 127
3, 35760, Note_on_c, 0, 46, 0
3, 35760, Note_on_c, 0, 34, 0
3, 35760, Note_on_c, 0, 49, 51
3, 35760, Note_on_c, 0, 61, 72
3, 35760, Note_on_c, 0, 53, 60
3, 35880, Note_on_c, 0, 53, 0
3, 35880, Note_on_c, 0, 61, 0
3, 35880, Note_on_c, 0, 49, 0
3, 35920, Control_c, 0, 64, 0
3, 36240, Note_on_c, 0, 29, 56
3, 36240, Note_on_c, 0, 41, 74
3, 36480, Note_on_c, 0, 41, 0
3, 36480, Note_on_c, 0, 29, 0
3, 36480, Note_on_c, 0, 34, 70
3, 36480, Note_on_c, 0, 46, 92
3, 36491, Control_c, 0, 64, 127
3, 36720, Note_on_c, 0, 46, 0
3, 36720, Note_on_c, 0, 34, 0
3, 36720, Note_on_c, 0, 49, 50
3, 36720, Note_on_c, 0, 61, 69
3, 36720, Note_on_c, 0, 53, 59
3, 36840, Note_on_c, 0, 53, 0
3, 36840, Note_on_c, 0, 61, 0
3, 36840, Note_on_c, 0, 49, 0
3, 36949, Control_c, 0, 64, 0
3, 37200, Note_on_c, 0, 29, 52
3, 37200, Note_on_c, 0, 41, 69
3, 37440, Note_on_c, 0, 41, 0
3, 37440, Note_on_c, 0, 29, 0
3, 37440, Note_on_c, 0, 34, 67
3, 37440, Control_c, 0, 64, 127
3, 37440, Note_on_c, 0, 46, 83
3, 37680, Note_on_c, 0, 46, 0
3, 37680, Note_on_c, 0, 34, 0
3, 37680, Note_on_c, 0, 49, 45
3, 37680, Note_on_c, 0, 61, 63
3, 37680, Note_on_c, 0, 53, 53
3, 37800, Note_on_c, 0, 53, 0
3, 37800, Note_on_c, 0, 61, 0
3, 37800, Note_on_c, 0, 49, 0
3, 37914, Control_c, 0, 64, 0
3, 38160, Note_on_c, 0, 29, 52
3, 38160, Note_on_c, 0, 41, 68
3, 38400, Note_on_c, 0, 41, 0
3, 38400, Note_on_c, 0, 29, 0
3, 38400, Note_on_c, 0, 34, 67
3, 38400, Control_c, 0, 64, 127
3, 38400, Note_on_c, 0, 46, 79
3, 38640, Note_on_c, 0, 46, 0
3, 38640, Note_on_c, 0, 34, 0
3, 38640, Note_on_c, 0, 63, 55
3, 38640, Note_on_c, 0, 54, 46
3, 38640, Note_on_c, 0, 51, 39
3, 38760, Note_on_c, 0, 51, 0
3, 38760, Note_on_c, 0, 54, 0
3, 38760, Note_on_c, 0, 63, 0
3, 38944, Control_c, 0, 64, 0
3, 39120, Note_on_c, 0, 29, 53
3, 39120, Note_on_c, 0, 41, 69
3, 39360, Note_on_c, 0, 41, 0
3, 39360, Note_on_c, 0, 29, 0
3, 39360, Note_on_c, 0, 34, 70
3, 39360, Note_on_c, 0, 46, 83
3, 39402, Control_c, 0, 64, 127
3, 39600, Note_on_c, 0, 46, 0
3, 39600, Note_on_c, 0, 34, 0
3, 39600, Note_on_c, 0, 63, 61
3, 39600, Note_on_c, 0, 54, 50
3, 39600, Note_on_c, 0, 51, 42
3, 39720, Note_on_c, 0, 51, 0
3, 39720, Note_on_c, 0, 54, 0
3, 39720, Note_on_c, 0, 63, 0
3, 39896, Control_c, 0, 64, 0
3, 40080, Note_on_c, 0, 29, 53
3, 40080, Note_on_c, 0, 41, 69
3, 40320, Note_on_c, 0, 41, 0
3, 40320, Note_on_c, 0, 29, 0
3, 40320, Note_on_c, 0, 33, 69
3, 40320, Note_on_c, 0, 45, 89
3, 40326, Control_c, 0, 64, 127
3, 40560, Note_on_c, 0, 45, 0
3, 40560, Note_on_c, 0, 33, 0
3, 40560, Note_on_c, 0, 63, 61
3, 40560, Note_on_c, 0, 54, 50
3, 40560, Note_on_c, 0, 51, 42
3, 40680, Note_on_c, 0, 51, 0
3, 40680, Note_on_c, 0, 54, 0
3, 40680, Note_on_c, 0, 63, 0
3, 40794, Control_c, 0, 64, 0
3, 41040, Note_on_c, 0, 27, 48
3, 41040, Note_on_c, 0, 39, 63
3, 41280, Note_on_c, 0, 39, 0
3, 41280, Note_on_c, 0, 27, 0
3, 41280, Note_on_c, 0, 33, 61
3, 41280, Note_on_c, 0, 45, 81
3, 41309, Control_c, 0, 64, 127
3, 41520, Note_on_c, 0, 45, 0
3, 41520, Note_on_c, 0, 33, 0
3, 41520, Note_on_c, 0, 63, 57
3, 41520, Note_on_c, 0, 54, 47
3, 41520, Note_on_c, 0, 51, 39
3, 41640, Note_on_c, 0, 51, 0
3, 41640, Note_on_c, 0, 54, 0
3, 41640, Note_on_c, 0, 63, 0
3, 41749, Control_c, 0, 64, 0
3, 42000, Note_on_c, 0, 27, 56
3, 42000, Note_on_c, 0, 39, 72
3, 42240, Note_on_c, 0, 39, 0
3, 42240, Note_on_c, 0, 27, 0
3, 42240, Note_on_c, 0, 33, 68
3, 42240, Note_on_c, 0, 45, 86
3, 42269, Control_c, 0, 64, 127
3, 42480, Note_on_c, 0, 45, 0
3, 42480, Note_on_c, 0, 33, 0
3, 42480, Note_on_c, 0, 63, 61
3, 42480, Note_on_c, 0, 54, 50
3, 42480, Note_on_c, 0, 51, 42
3, 42600, Note_on_c, 0, 51, 0
3, 42600, Note_on_c, 0, 54, 0
3, 42600, Note_on_c, 0, 63, 0
3, 42766, Control_c, 0, 64, 0
3, 42960, Note_on_c, 0, 27, 57
3, 42960, Note_on_c, 0, 39, 77
3, 43200, Note_on_c, 0, 39, 0
3, 43200, Note_on_c, 0, 27, 0
3, 43200, Note_on_c, 0, 33, 74
3, 43200, Note_on_c, 0, 45, 93
3, 43223, Control_c, 0, 64, 127
3, 43440, Note_on_c, 0, 45, 0
3, 43440, Note_on_c, 0, 33, 0
3, 43440, Note_on_c, 0, 63, 66
3, 43440, Note_on_c, 0, 54, 55
3, 43440, Note_on_c, 0, 51, 46
3, 43560, Note_on_c, 0, 51, 0
3, 43560, Note_on_c, 0, 54, 0
3, 43560, Note_on_c, 0, 63, 0
3, 43749, Control_c, 0, 64, 0
3, 43920, Note_on_c, 0, 27, 62
3, 43920, Note_on_c, 0, 39, 82
3, 44160, Note_on_c, 0, 39, 0
3, 44160, Note_on_c, 0, 27, 0
3, 44160, Note_on_c, 0, 32, 76
3, 44160, Note_on_c, 0, 44, 99
3, 44177, Control_c, 0, 64, 127
3, 44400, Note_on_c, 0, 44, 0
3, 44400, Note_on_c, 0, 32, 0
3, 44400, Note_on_c, 0, 51, 52
3, 44400, Note_on_c, 0, 66, 74
3, 44400, Note_on_c, 0, 60, 62
3, 44520, Note_on_c, 0, 60, 0
3, 44520, Note_on_c, 0, 66, 0
3, 44520, Note_on_c, 0, 51, 0
3, 44703, Control_c, 0, 64, 0
3, 44880, Note_on_c, 0, 27, 56
3, 44880, Note_on_c, 0, 39, 73
3, 45120, Note_on_c, 0, 39, 0
3, 45120, Note_on_c, 0, 27, 0
3, 45120, Note_on_c, 0, 32, 68
3, 45120, Note_on_c, 0, 44, 89
3, 45149, Control_c, 0, 64, 127
3, 45360, Note_on_c, 0, 44, 0
3, 45360, Note_on_c, 0, 32, 0
3, 45360, Note_on_c, 0, 51, 48
3, 45360, Note_on_c, 0, 66, 68
3, 45360, Note_on_c, 0, 60, 57
3, 45480, Note_on_c, 0, 60, 0
3, 45480, Note_on_c, 0, 66, 0
3, 45480, Note_on_c, 0, 51, 0
3, 45657, Control_c, 0, 64, 0
3, 45840, Note_on_c, 0, 32, 67
3, 46080, Note_on_c, 0, 32, 0
3, 46080, Note_on_c, 0, 44, 86
3, 46129, Control_c, 0, 64, 127
3, 46320, Note_on_c, 0, 44, 0
3, 46320, Note_on_c, 0, 53, 51
3, 46320, Note_on_c, 0, 65, 62
3, 46320, Note_on_c, 0, 61, 51
3, 46440, Note_on_c, 0, 61, 0
3, 46440, Note_on_c, 0, 65, 0
3, 46440, Note_on_c, 0, 53, 0
3, 46645, Control_c, 0, 64, 0
3, 46800, Note_on_c, 0, 32, 61
3, 47040, Note_on_c, 0, 32, 0
3, 47040, Note_on_c, 0, 44, 69
3, 47089, Control_c, 0, 64, 127
3, 47280, Note_on_c, 0, 44, 0
3, 47280, Note_on_c, 0, 61, 53
3, 47280, Note_on_c, 0, 53, 45
3, 47400, Note_on_c, 0, 53, 0
3, 47400, Note_on_c, 0, 61, 0
3, 47576, Control_c, 0, 64, 0
3, 47760, Note_on_c, 0, 32, 50
3, 48000, Note_on_c, 0, 32, 0
3, 48000, Note_on_c, 0, 44, 58
3, 48017, Control_c, 0, 64, 127
3, 48240, Note_on_c, 0, 44, 0
3, 48240, Note_on_c, 0, 51, 36
3, 48240, Note_on_c, 0, 60, 44
3, 48240, Note_on_c, 0, 54, 36
3, 48360, Note_on_c, 0, 54, 0
3, 48360, Note_on_c, 0, 60, 0
3, 48360, Note_on_c, 0, 51, 0
3, 48390, Control_c, 0, 64, 0
3, 48720, Note_on_c, 0, 32, 50
3, 48960, Note_on_c, 0, 32, 0
3, 48960, Note_on_c, 0, 44, 60
3, 48977, Control_c, 0, 64, 127
3, 49200, Note_on_c, 0, 44, 0
3, 49200, Note_on_c, 0, 61, 45
3, 49200, Note_on_c, 0, 52, 29
3, 49320, Note_on_c, 0, 52, 0
3, 49320, Note_on_c, 0, 61, 0
3, 49330, Control_c, 0, 64, 0
3, 49680, Note_on_c, 0, 32, 53
3, 49920, Note_on_c, 0, 32, 0
3, 49920, Note_on_c, 0, 44, 58
3, 49937, Control_c, 0, 64, 127
3, 50160, Note_on_c, 0, 44, 0
3, 50160, Note_on_c, 0, 51, 36
3, 50160, Note_on_c, 0, 60, 44
3, 50160, Note_on_c, 0, 54, 36
3, 50280, Note_on_c, 0, 54, 0
3, 50280, Note_on_c, 0, 60, 0
3, 50280, Note_on_c, 0, 51, 0
3, 50280, Control_c, 0, 64, 0
3, 50640, Note_on_c, 0, 44, 50
3, 50880, Note_on_c, 0, 44, 0
3, 50880, Note_on_c, 0, 49, 60
3, 50897, Control_c, 0, 64, 127
3, 51120, Note_on_c, 0, 49, 0
3, 51120, Note_on_c, 0, 61, 45
3, 51120, Note_on_c, 0, 52, 29
3, 51235, Control_c, 0, 64, 0
3, 51240, Note_on_c, 0, 52, 0
3, 51240, Note_on_c, 0, 61, 0
3, 51600, Note_on_c, 0, 43, 53
3, 51840, Note_on_c, 0, 43, 0
3, 51840, Note_on_c, 0, 42, 58
3, 51857, Control_c, 0, 64, 127
3, 52080, Note_on_c, 0, 42, 0
3, 52080, Note_on_c, 0, 54, 36
3, 52080, Note_on_c, 0, 64, 44
3, 52080, Note_on_c, 0, 58, 36
3, 52200, Note_on_c, 0, 58, 0
3, 52200, Note_on_c, 0, 64, 0
3, 52200, Note_on_c, 0, 54, 0
3, 52240, Control_c, 0, 64, 0
3, 52560, Note_on_c, 0, 30, 50
3, 52800, Note_on_c, 0, 30, 0
3, 52800, Note_on_c, 0, 42, 60
3, 52817, Control_c, 0, 64, 127
3, 53040, Note_on_c, 0, 42, 0
3, 53040, Note_on_c, 0, 59, 29
3, 53040, Note_on_c, 0, 62, 45
3, 53040, Note_on_c, 0, 54, 29
3, 53160, Note_on_c, 0, 54, 0
3, 53160, Note_on_c, 0, 62, 0
3, 53160, Note_on_c, 0, 59, 0
3, 53183, Control_c, 0, 64, 0
3, 53520, Note_on_c, 0, 41, 53
3, 53760, Note_on_c, 0, 41, 0
3, 53760, Note_on_c, 0, 40, 58
3, 53777, Control_c, 0, 64, 127
3, 54000, Note_on_c, 0, 40, 0
3, 54000, Note_on_c, 0, 52, 36
3, 54000, Note_on_c, 0, 62, 44
3, 54000, Note_on_c, 0, 56, 36
3, 54120, Note_on_c, 0, 56, 0
3, 54120, Note_on_c, 0, 62, 0
3, 54120, Note_on_c, 0, 52, 0
3, 54160, Control_c, 0, 64, 0
3, 54480, Note_on_c, 0, 28, 50
3, 54720, Note_on_c, 0, 28, 0
3, 54720, Note_on_c, 0, 40, 60
3, 54737, Control_c, 0, 64, 127
3, 54960, Note_on_c, 0, 40, 0
3, 54960, Note_on_c, 0, 57, 29
3, 54960, Note_on_c, 0, 60, 45
3, 54960, Note_on_c, 0, 52, 29
3, 55080, Note_on_c, 0, 52, 0
3, 55080, Note_on_c, 0, 60, 0
3, 55080, Note_on_c, 0, 57, 0
3, 55103, Control_c, 0, 64, 0
3, 55440, Note_on_c, 0, 28, 45
3, 55440, Note_on_c, 0, 40, 53
3, 55680, Note_on_c, 0, 40, 0
3, 55680, Note_on_c, 0, 28, 0
3, 55680, Note_on_c, 0, 29, 48
3, 55680, Note_on_c, 0, 41, 57
3, 55703, Control_c, 0, 64, 127
3, 55920, Note_on_c, 0, 41, 0
3, 55920, Note_on_c, 0, 29, 0
3, 55980, Control_c, 0, 64, 0
3, 55994, Control_c, 0, 64, 127
3, 56040, Note_on_c, 0, 48, 41
3, 56100, Note_on_c, 0, 53, 41
3, 56160, Note_on_c, 0, 63, 49
3, 56202, Control_c, 0, 64, 0
3, 56224, Control_c, 0, 64, 127
3, 56421, Control_c, 0, 64, 0
3, 56442, Control_c, 0, 64, 127
3, 56520, Note_on_c, 0, 63, 0
3, 56520, Note_on_c, 0, 53, 0
3, 56520, Note_on_c, 0, 48, 0
3, 56520, Note_on_c, 0, 46, 44
3, 56580, Note_on_c, 0, 53, 44
3, 56640, Note_on_c, 0, 61, 52
3, 56663, Control_c, 0, 64, 0
3, 56709, Control_c, 0, 64, 127
3, 56915, Control_c, 0, 64, 0
3, 56929, Control_c, 0, 64, 127
3, 57000, Note_on_c, 0, 61, 0
3, 57000, Note_on_c, 0, 53, 0
3, 57000, Note_on_c, 0, 46, 0
3, 57000, Note_on_c, 0, 51, 40
3, 57060, Note_on_c, 0, 58, 40
3, 57120, Note_on_c, 0, 66, 47
3, 57154, Control_c, 0, 64, 0
3, 57200, Control_c, 0, 64, 127
3, 57480, Note_on_c, 0, 66, 0
3, 57480, Note_on_c, 0, 58, 0
3, 57480, Note_on_c, 0, 51, 0
3, 57480, Note_on_c, 0, 44, 48
3, 57540, Note_on_c, 0, 54, 48
3, 57600, Control_c, 0, 64, 0
3, 57600, Note_on_c, 0, 60, 57
3, 57640, Control_c, 0, 64, 127
3, 57872, Control_c, 0, 64, 0
3, 57900, Control_c, 0, 64, 127
3, 57960, Note_on_c, 0, 60, 0
3, 57960, Note_on_c, 0, 54, 0
3, 57960, Note_on_c, 0, 44, 0
3, 57960, Note_on_c, 0, 49, 41
3, 58020, Note_on_c, 0, 56, 41
3, 58069, Control_c, 0, 64, 0
3, 58080, Note_on_c, 0, 65, 49
3, 58120, Control_c, 0, 64, 127
3, 58440, Note_on_c, 0, 65, 0
3, 58440, Note_on_c, 0, 56, 0
3, 58440, Note_on_c, 0, 49, 0
3, 58440, Note_on_c, 0, 42, 44
3, 58500, Note_on_c, 0, 49, 44
3, 58560, Note_on_c, 0, 58, 52
3, 58583, Control_c, 0, 64, 0
3, 58629, Control_c, 0, 64, 127
3, 58821, Control_c, 0, 64, 0
3, 58849, Control_c, 0, 64, 127
3, 58920, Note_on_c, 0, 58, 0
3, 58920, Note_on_c, 0, 49, 0
3, 58920, Note_on_c, 0, 42, 0
3, 58920, Note_on_c, 0, 48, 40
3, 58980, Note_on_c, 0, 54, 40
3, 59040, Note_on_c, 0, 63, 47
3, 59080, Control_c, 0, 64, 0
3, 59120, Control_c, 0, 64, 127
3, 59400, Note_on_c, 0, 63, 0
3, 59400, Note_on_c, 0, 54, 0
3, 59400, Note_on_c, 0, 48, 0
3, 59520, Note_on_c, 0, 58, 40
3, 59520, Note_on_c, 0, 53, 40
3, 59520, Note_on_c, 0, 49, 40
3, 59520, Note_on_c, 0, 61, 47
3, 59520, Control_c, 0, 64, 0
3, 60000, Note_on_c, 0, 61, 0
3, 60000, Note_on_c, 0, 58, 0
3, 60000, Note_on_c, 0, 53, 0
3, 60000, Note_on_c, 0, 49, 0
3, 60000, Note_on_c, 0, 51, 40
3, 60000, Note_on_c, 0, 54, 40
3, 60000, Note_on_c, 0, 58, 40
3, 60000, Note_on_c, 0, 60, 47
3, 60480, Note_on_c, 0, 60, 0
3, 60480, Note_on_c, 0, 51, 0
3, 60480, Note_on_c, 0, 54, 0
3, 60480, Note_on_c, 0, 58, 0
3, 60960, Note_on_c, 0, 54, 53
3, 61080, Note_on_c, 0, 54, 0
3, 61080, Note_on_c, 0, 53, 51
3, 61200, Note_on_c, 0, 53, 0
3, 61200, Note_on_c, 0, 52, 48
3, 61320, Note_on_c, 0, 52, 0
3, 61320, Note_on_c, 0, 51, 46
3, 61440, Note_on_c, 0, 51, 0
3, 61440, Note_on_c, 0, 53, 54
3, 61560, Note_on_c, 0, 53, 0
3, 61560, Note_on_c, 0, 52, 52
3, 61680, Note_on_c, 0, 52, 0
3, 61680, Note_on_c, 0, 51, 49
3, 61800, Note_on_c, 0, 51, 0
3, 61800, Note_on_c, 0, 50, 47
3, 61920, Note_on_c, 0, 50, 0
3, 61920, Note_on_c, 0, 52, 52
3, 62040, Note_on_c, 0, 52, 0
3, 62040, Note_on_c, 0, 51, 49
3, 62160, Note_on_c, 0, 51, 0
3, 62160, Note_on_c, 0, 50, 47
3, 62280, Note_on_c, 0, 50, 0
3, 62280, Note_on_c, 0, 49, 45
3, 62400, Note_on_c, 0, 49, 0
3, 62400, Note_on_c, 0, 51, 50
3, 62520, Note_on_c, 0, 51, 0
3, 62520, Note_on_c, 0, 50, 48
3, 62640, Note_on_c, 0, 50, 0
3, 62640, Note_on_c, 0, 49, 46
3, 62760, Note_on_c, 0, 49, 0
3, 62760, Note_on_c, 0, 48, 43
3, 62880, Note_on_c, 0, 48, 0
3, 62880, Note_on_c, 0, 51, 49
3, 63000, Note_on_c, 0, 51, 0
3, 63000, Note_on_c, 0, 49, 46
3, 63120, Note_on_c, 0, 49, 0
3, 63120, Note_on_c, 0, 48, 44
3, 63240, Note_on_c, 0, 48, 0
3, 63240, Note_on_c, 0, 46, 41
3, 63360, Note_on_c, 0, 46, 0
3, 63360, Note_on_c, 0, 39, 47
3, 63600, Note_on_c, 0, 39, 0
3, 63600, Note_on_c, 0, 54, 34
3, 63600, Note_on_c, 0, 45, 28
3, 63720, Note_on_c, 0, 45, 0
3, 63720, Note_on_c, 0, 54, 0
3, 64080, Note_on_c, 0, 39, 50
3, 64320, Note_on_c, 0, 39, 0
3, 64320, Note_on_c, 0, 37, 64
3, 64560, Note_on_c, 0, 37, 0
3, 64560, Note_on_c, 0, 53, 38
3, 64560, Note_on_c, 0, 46, 25
3, 64680, Note_on_c, 0, 46, 0
3, 64680, Note_on_c, 0, 53, 0
3, 65040, Note_on_c, 0, 37, 41
3, 65280, Note_on_c, 0, 37, 0
3, 65280, Note_on_c, 0, 39, 49
3, 65520, Note_on_c, 0, 39, 0
3, 65520, Note_on_c, 0, 54, 35
3, 65520, Note_on_c, 0, 45, 30
3, 65640, Note_on_c, 0, 45, 0
3, 65640, Note_on_c, 0, 54, 0
3, 66000, Note_on_c, 0, 39, 50
3, 66240, Note_on_c, 0, 39, 0
3, 66240, Note_on_c, 0, 37, 66
3, 66480, Note_on_c, 0, 37, 0
3, 66480, Note_on_c, 0, 53, 39
3, 66480, Note_on_c, 0, 46, 33
3, 66600, Note_on_c, 0, 46, 0
3, 66600, Note_on_c, 0, 53, 0
3, 66960, Note_on_c, 0, 37, 43
3, 67200, Note_on_c, 0, 37, 0
3, 67200, Note_on_c, 0, 39, 47
3, 67440, Note_on_c, 0, 39, 0
3, 67440, Note_on_c, 0, 54, 35
3, 67440, Note_on_c, 0, 46, 30
3, 67560, Note_on_c, 0, 46, 0
3, 67560, Note_on_c, 0, 54, 0
3, 67920, Note_on_c, 0, 39, 49
3, 68160, Note_on_c, 0, 39, 0
3, 68160, Note_on_c, 0, 41, 58
3, 68400, Note_on_c, 0, 41, 0
3, 68400, Note_on_c, 0, 58, 36
3, 68400, Note_on_c, 0, 49, 31
3, 68520, Note_on_c, 0, 49, 0
3, 68520, Note_on_c, 0, 58, 0
3, 68880, Note_on_c, 0, 29, 45
3, 69120, Note_on_c, 0, 29, 0
3, 69120, Note_on_c, 0, 41, 46
3, 69360, Note_on_c, 0, 41, 0
3, 69360, Note_on_c, 0, 57, 35
3, 69360, Note_on_c, 0, 51, 30
3, 69480, Note_on_c, 0, 51, 0
3, 69480, Note_on_c, 0, 57, 0
3, 69840, Note_on_c, 0, 41, 48
3, 70080, Note_on_c, 0, 41, 0
3, 70080, Note_on_c, 0, 46, 68
3, 70320, Note_on_c, 0, 46, 0
3, 70320, Note_on_c, 0, 61, 39
3, 70320, Note_on_c, 0, 53, 33
3, 70440, Note_on_c, 0, 53, 0
3, 70440, Note_on_c, 0, 61, 0
3, 70800, Note_on_c, 0, 37, 43
3, 71040, Note_on_c, 0, 37, 0
3, 71040, Note_on_c, 0, 39, 51
3, 71280, Note_on_c, 0, 39, 0
3, 71280, Note_on_c, 0, 54, 34
3, 71280, Note_on_c, 0, 45, 28
3, 71400, Note_on_c, 0, 45, 0
3, 71400, Note_on_c, 0, 54, 0
3, 71760, Note_on_c, 0, 39, 50
3, 72000, Note_on_c, 0, 39, 0
3, 72000, Note_on_c, 0, 37, 66
3, 72240, Note_on_c, 0, 37, 0
3, 72240, Note_on_c, 0, 53, 38
3, 72240, Note_on_c, 0, 46, 25
3, 72360, Note_on_c, 0, 46, 0
3, 72360, Note_on_c, 0, 53, 0
3, 72720, Note_on_c, 0, 37, 41
3, 72960, Note_on_c, 0, 37, 0
3, 72960, Note_on_c, 0, 39, 48
3, 73200, Note_on_c, 0, 39, 0
3, 73200, Note_on_c, 0, 54, 35
3, 73200, Note_on_c, 0, 45, 30
3, 73320, Note_on_c, 0, 45, 0
3, 73320, Note_on_c, 0, 54, 0
3, 73680, Note_on_c, 0, 39, 43
3, 73920, Note_on_c, 0, 39, 0
3, 73920, Note_on_c, 0, 37, 63
3, 74160, Note_on_c, 0, 37, 0
3, 74160, Note_on_c, 0, 53, 39
3, 74160, Note_on_c, 0, 46, 33
3, 74280, Note_on_c, 0, 46, 0
3, 74280, Note_on_c, 0, 53, 0
3, 74640, Note_on_c, 0, 37, 43
3, 74880, Note_on_c, 0, 37, 0
3, 74880, Note_on_c, 0, 39, 48
3, 74880, Note_on_c, 0, 47, 48
3, 74880, Note_on_c, 0, 54, 57
3, 74920, Control_c, 0, 64, 127
3, 75354, Control_c, 0, 64, 0
3, 75360, Note_on_c, 0, 54, 0
3, 75360, Note_on_c, 0, 47, 0
3, 75360, Note_on_c, 0, 39, 0
3, 75411, Control_c, 0, 64, 127
3, 75840, Control_c, 0, 64, 0
3, 75840, Note_on_c, 0, 51, 52
3, 75840, Note_on_c, 0, 54, 52
3, 75840, Note_on_c, 0, 59, 52
3, 75840, Note_on_c, 0, 66, 61
3, 75886, Control_c, 0, 64, 127
3, 76314, Control_c, 0, 64, 0
3, 76320, Note_on_c, 0, 66, 0
3, 76320, Note_on_c, 0, 51, 0
3, 76320, Note_on_c, 0, 54, 0
3, 76320, Note_on_c, 0, 59, 0
3, 76320, Note_on_c, 0, 49, 46
3, 76320, Note_on_c, 0, 54, 46
3, 76320, Note_on_c, 0, 58, 46
3, 76320, Note_on_c, 0, 64, 55
3, 76366, Control_c, 0, 64, 127
3, 76800, Note_on_c, 0, 64, 0
3, 76800, Note_on_c, 0, 49, 0
3, 76800, Note_on_c, 0, 54, 0
3, 76800, Note_on_c, 0, 58, 0
3, 76800, Control_c, 0, 64, 0
3, 76800, Note_on_c, 0, 63, 65
3, 76800, Note_on_c, 0, 47, 55
3, 76800, Note_on_c, 0, 54, 55
3, 76851, Control_c, 0, 64, 127
3, 77280, Note_on_c, 0, 54, 0
3, 77280, Note_on_c, 0, 47, 0
3, 77760, Note_on_c, 0, 63, 0
3, 78240, Control_c, 0, 64, 0
3, 78720, Note_on_c, 0, 28, 52
3, 78840, Note_on_c, 0, 29, 52
3, 78860, Note_on_c, 0, 28, 0
3, 78960, Note_on_c, 0, 34, 52
3, 78980, Note_on_c, 0, 29, 0
3, 79080, Note_on_c, 0, 33, 53
3, 79100, Note_on_c, 0, 34, 0
3, 79200, Note_on_c, 0, 30, 53
3, 79220, Note_on_c, 0, 33, 0
3, 79320, Note_on_c, 0, 29, 53
3, 79340, Note_on_c, 0, 30, 0
3, 79440, Note_on_c, 0, 37, 54
3, 79460, Note_on_c, 0, 29, 0
3, 79560, Note_on_c, 0, 36, 54
3, 79580, Note_on_c, 0, 37, 0
3, 79680, Note_on_c, 0, 34, 54
3, 79700, Note_on_c, 0, 36, 0
3, 79800, Note_on_c, 0, 33, 55
3, 79820, Note_on_c, 0, 34, 0
3, 79920, Note_on_c, 0, 42, 55
3, 79940, Note_on_c, 0, 33, 0
3, 80040, Note_on_c, 0, 41, 56
3, 80060, Note_on_c, 0, 42, 0
3, 80160, Note_on_c, 0, 37, 56
3, 80180, Note_on_c, 0, 41, 0
3, 80280, Note_on_c, 0, 36, 56
3, 80300, Note_on_c, 0, 37, 0
3, 80400, Note_on_c, 0, 46, 56
3, 80420, Note_on_c, 0, 36, 0
3, 80520, Note_on_c, 0, 45, 56
3, 80540, Note_on_c, 0, 46, 0
3, 80640, Note_on_c, 0, 42, 56
3, 80660, Note_on_c, 0, 45, 0
3, 80760, Note_on_c, 0, 41, 57
3, 80780, Note_on_c, 0, 42, 0
3, 80880, Note_on_c, 0, 49, 57
3, 80900, Note_on_c, 0, 41, 0
3, 81000, Note_on_c, 0, 48, 57
3, 81020, Note_on_c, 0, 49, 0
3, 81120, Note_on_c, 0, 46, 58
3, 81140, Note_on_c, 0, 48, 0
3, 81240, Note_on_c, 0, 45, 58
3, 81260, Note_on_c, 0, 46, 0
3, 81360, Note_on_c, 0, 54, 58
3, 81380, Note_on_c, 0, 45, 0
3, 81480, Note_on_c, 0, 53, 59
3, 81500, Note_on_c, 0, 54, 0
3, 81600, Note_on_c, 0, 49, 59
3, 81620, Note_on_c, 0, 53, 0
3, 81720, Note_on_c, 0, 48, 60
3, 81740, Note_on_c, 0, 49, 0
3, 81840, Note_on_c, 0, 58, 60
3, 81860, Note_on_c, 0, 48, 0
3, 81960, Note_on_c, 0, 57, 60
3, 81980, Note_on_c, 0, 58, 0
3, 82080, Note_on_c, 0, 54, 60
3, 82100, Note_on_c, 0, 57, 0
3, 82200, Note_on_c, 0, 53, 60
3, 82220, Note_on_c, 0, 54, 0
3, 82320, Note_on_c, 0, 61, 60
3, 82340, Note_on_c, 0, 53, 0
3, 82440, Note_on_c, 0, 60, 61
3, 82460, Note_on_c, 0, 61, 0
3, 82560, Note_on_c, 0, 60, 0
3, 82560, Note_on_c, 0, 58, 61
3, 82680, Note_on_c, 0, 57, 61
3, 82700, Note_on_c, 0, 58, 0
3, 82800, Note_on_c, 0, 66, 62
3, 82820, Note_on_c, 0, 57, 0
3, 82920, Note_on_c, 0, 65, 62
3, 82940, Note_on_c, 0, 66, 0
3, 83040, Note_on_c, 0, 61, 63
3, 83060, Note_on_c, 0, 65, 0
3, 83160, Note_on_c, 0, 60, 63
3, 83180, Note_on_c, 0, 61, 0
3, 83280, Note_on_c, 0, 70, 63
3, 83300, Note_on_c, 0, 60, 0
3, 83400, Note_on_c, 0, 69, 64
3, 83420, Note_on_c, 0, 70, 0
3, 83520, Note_on_c, 0, 66, 64
3, 83540, Note_on_c, 0, 69, 0
3, 83640, Note_on_c, 0, 65, 64
3, 83660, Note_on_c, 0, 66, 0
3, 83760, Note_on_c, 0, 73, 64
3, 83780, Note_on_c, 0, 65, 0
3, 83880, Note_on_c, 0, 72, 64
3, 83900, Note_on_c, 0, 73, 0
3, 84000, Note_on_c, 0, 70, 64
3, 84020, Note_on_c, 0, 72, 0
3, 84120, Note_on_c, 0, 69, 65
3, 84140, Note_on_c, 0, 70, 0
3, 84240, Note_on_c, 0, 78, 65
3, 84260, Note_on_c, 0, 69, 0
3, 84360, Note_on_c, 0, 77, 65
3, 84380, Note_on_c, 0, 78, 0
3, 84480, Note_on_c, 0, 73, 66
3, 84500, Note_on_c, 0, 77, 0
3, 84600, Note_on_c, 0, 72, 66
3, 84620, Note_on_c, 0, 73, 0
3, 84720, Note_on_c, 0, 82, 67
3, 84740, Note_on_c, 0, 72, 0
3, 84840, Note_on_c, 0, 81, 67
3, 84860, Note_on_c, 0, 82, 0
3, 84960, Note_on_c, 0, 78, 67
3, 84980, Note_on_c, 0, 81, 0
3, 85080, Note_on_c, 0, 77, 68
3, 85100, Note_on_c, 0, 78, 0
3, 85200, Note_on_c, 0, 85, 68
3, 85220, Note_on_c, 0, 77, 0
3, 85320, Note_on_c, 0, 84, 68
3, 85340, Note_on_c, 0, 85, 0
3, 85440, Note_on_c, 0, 89, 74
3, 85460, Note_on_c, 0, 84, 0
3, 85580, Note_on_c, 0, 89, 0
3, 85920, Note_on_c, 0, 41, 64
3, 85920, Note_on_c, 0, 53, 75
3, 85949, Control_c, 0, 64, 127
3, 86040, Note_on_c, 0, 53, 0
3, 86040, Note_on_c, 0, 41, 0
3, 86120, Control_c, 0, 64, 0
3, 86280, Control_c, 0, 64, 127
3, 86280, Note_on_c, 0, 34, 91
3, 86400, Note_on_c, 0, 34, 0
3, 86400, Note_on_c, 0, 46, 72
3, 86400, Note_on_c, 0, 53, 72
3, 86400, Note_on_c, 0, 61, 86
3, 86640, Note_on_c, 0, 61, 0
3, 86640, Note_on_c, 0, 53, 0
3, 86640, Note_on_c, 0, 46, 0
3, 87064, Control_c, 0, 64, 0
3, 87064, End_track
4, 0, Start_track
4, 0, MIDI_port, 0
4, 0, Title_t, "Chopin: Prelude No.16 in Bb Minor Op. 28"
4, 0, End_track
5, 0, Start_track
5, 0, MIDI_port, 0
5, 0, Title_t, "Copyright \251 2002 by Bernd Krueger"
5, 0, End_track
6, 0, Start_track
6, 0, MIDI_port, 0
6, 0, Title_t, "email: bernd.krueger@piano-midi.de"
6, 0, End_track
7, 0, Start_track
7, 0, MIDI_port, 0
7, 0, Title_t, "http://www.piano-midi.de"
7, 0, End_track
8, 0, Start_track
8, 0, MIDI_port, 0
8, 0, Title_t, "Edition: 24.10.02"
8, 0, End_track
9, 0, Start_track
9, 0, MIDI_port, 0
9, 0, End_track
10, 0, Start_track
10, 0, MIDI_port, 0
10, 0, End_track
0, 0, End_of_file