0, 0, Header, 1, 4, 48
1, 0, Start_track
1, 0, Tempo, 500000
1, 0, Time_signature, 12, 3, 24, 8
1, 0, Key_signature, -3, "major"
1, 0, Title_t, "F.F.Chopin  Nocturne No.2 in E-flat major Op.9-2"
1, 0, Text_t, "CVS Ver5.05 Created"
1, 264, Tempo, 1621621
1, 288, Tempo, 1463414
1, 312, Tempo, 952380
1, 336, Tempo, 923076
1, 360, Tempo, 845070
1, 384, Tempo, 952380
1, 408, Tempo, 1153846
1, 432, Tempo, 1000000
1, 456, Tempo, 845070
1, 480, Tempo, 923076
1, 504, Tempo, 821917
1, 528, Tempo, 869565
1, 552, Tempo, 1153846
1, 576, Tempo, 895522
1, 600, Tempo, 800000
1, 624, Tempo, 1153846
1, 628, Tempo, 1111111
1, 632, Tempo, 1071428
1, 636, Tempo, 1153846
1, 640, Tempo, 2000000
1, 648, Tempo, 895522
1, 672, Tempo, 845070
1, 696, Tempo, 1071428
1, 720, Tempo, 952380
1, 744, Tempo, 800000
1, 768, Tempo, 845070
1, 792, Tempo, 869565
1, 816, Tempo, 845070
1, 840, Tempo, 1071428
1, 864, Tempo, 1000000
1, 888, Tempo, 800000
1, 912, Tempo, 845070
1, 936, Tempo, 895522
1, 960, Tempo, 845070
1, 984, Tempo, 1071428
1, 1008, Tempo, 895522
1, 1032, Tempo, 821917
1, 1056, Tempo, 800000
1, 1080, Tempo, 895522
1, 1104, Tempo, 952380
1, 1128, Tempo, 1250000
1, 1152, Tempo, 1304347
1, 1176, Tempo, 983606
1, 1200, Tempo, 1071428
1, 1224, Tempo, 1153846
1, 1236, Tempo, 983606
1, 1260, Tempo, 1153846
1, 1272, Tempo, 1034482
1, 1284, Tempo, 1463414
1, 1296, Tempo, 1000000
1, 1320, Tempo, 869565
1, 1344, Tempo, 895522
1, 1392, Tempo, 952380
1, 1416, Tempo, 1538461
1, 1440, Tempo, 1071428
1, 1464, Tempo, 923076
1, 1488, Tempo, 1250000
1, 1512, Tempo, 1153846
1, 1524, Tempo, 952380
1, 1536, Tempo, 1153846
1, 1548, Tempo, 1000000
1, 1560, Tempo, 895522
1, 1572, Tempo, 1153846
1, 1608, Tempo, 845070
1, 1632, Tempo, 800000
1, 1656, Tempo, 895522
1, 1668, Tempo, 952380
1, 1674, Tempo, 1000000
1, 1680, Tempo, 895522
1, 1692, Tempo, 800000
1, 1704, Tempo, 845070
1, 1716, Tempo, 1000000
1, 1728, Tempo, 1071428
1, 1740, Tempo, 923076
1, 1752, Tempo, 789473
1, 1776, Tempo, 800000
1, 1800, Tempo, 845070
1, 1812, Tempo, 869565
1, 1824, Tempo, 895522
1, 1836, Tempo, 1071428
1, 1860, Tempo, 1621621
1, 1872, Tempo, 1000000
1, 1896, Tempo, 845070
1, 1920, Tempo, 983606
1, 1944, Tempo, 869565
1, 1992, Tempo, 1071428
1, 2016, Tempo, 1463414
1, 2021, Tempo, 845070
1, 2026, Tempo, 769230
1, 2031, Tempo, 697674
1, 2066, Tempo, 714285
1, 2071, Tempo, 731707
1, 2076, Tempo, 952380
1, 2080, Tempo, 1250000
1, 2084, Tempo, 2727272
1, 2112, Tempo, 845070
1, 2136, Tempo, 952380
1, 2160, Tempo, 845070
1, 2184, Tempo, 800000
1, 2208, Tempo, 845070
1, 2256, Tempo, 923076
1, 2280, Tempo, 1304347
1, 2328, Tempo, 923076
1, 2352, Tempo, 1071428
1, 2376, Tempo, 1621621
1, 2388, Tempo, 1071428
1, 2400, Tempo, 952380
1, 2412, Tempo, 1333333
1, 2420, Tempo, 3333333
1, 2424, Tempo, 1333333
1, 2436, Tempo, 2142857
1, 2448, Tempo, 1333333
1, 2472, Tempo, 923076
1, 2496, Tempo, 895522
1, 2520, Tempo, 923076
1, 2544, Tempo, 1071428
1, 2568, Tempo, 1463414
1, 2592, Tempo, 1250000
1, 2616, Tempo, 895522
1, 2640, Tempo, 952380
1, 2664, Tempo, 869565
1, 2712, Tempo, 1621621
1, 2736, Tempo, 1153846
1, 2760, Tempo, 869565
1, 2784, Tempo, 845070
1, 2856, Tempo, 1333333
1, 2880, Tempo, 1153846
1, 2904, Tempo, 952380
1, 2928, Tempo, 1000000
1, 2952, Tempo, 1111111
1, 2976, Tempo, 1000000
1, 2988, Tempo, 1621621
1, 3000, Tempo, 1818181
1, 3018, Tempo, 2000000
1, 3024, Tempo, 1034482
1, 3048, Tempo, 845070
1, 3072, Tempo, 800000
1, 3120, Tempo, 869565
1, 3144, Tempo, 1250000
1, 3168, Tempo, 845070
1, 3192, Tempo, 750000
1, 3216, Tempo, 800000
1, 3240, Tempo, 769230
1, 3288, Tempo, 923076
1, 3312, Tempo, 769230
1, 3336, Tempo, 731707
1, 3360, Tempo, 769230
1, 3408, Tempo, 731707
1, 3432, Tempo, 895522
1, 3456, Tempo, 800000
1, 3480, Tempo, 769230
1, 3504, Tempo, 895522
1, 3528, Tempo, 869565
1, 3552, Tempo, 800000
1, 3576, Tempo, 983606
1, 3600, Tempo, 1463414
1, 3624, Tempo, 1071428
1, 3648, Tempo, 1034482
1, 3672, Tempo, 1071428
1, 3696, Tempo, 1463414
1, 3720, Tempo, 2142857
1, 3744, Tempo, 1304347
1, 3748, Tempo, 1333333
1, 3752, Tempo, 2307692
1, 3756, Tempo, 2727272
1, 3768, Tempo, 1333333
1, 3792, Tempo, 1153846
1, 3804, Tempo, 1200000
1, 3816, Tempo, 983606
1, 3828, Tempo, 923076
1, 3840, Tempo, 983606
1, 3852, Tempo, 1304347
1, 3864, Tempo, 1395348
1, 3882, Tempo, 1034482
1, 3888, Tempo, 1250000
1, 3912, Tempo, 952380
1, 3936, Tempo, 800000
1, 3960, Tempo, 895522
1, 3972, Tempo, 923076
1, 3978, Tempo, 983606
1, 3984, Tempo, 845070
1, 3996, Tempo, 800000
1, 4008, Tempo, 845070
1, 4020, Tempo, 983606
1, 4032, Tempo, 1071428
1, 4044, Tempo, 952380
1, 4056, Tempo, 769230
1, 4068, Tempo, 750000
1, 4080, Tempo, 769230
1, 4104, Tempo, 845070
1, 4116, Tempo, 869565
1, 4128, Tempo, 952380
1, 4140, Tempo, 1153846
1, 4152, Tempo, 1034482
1, 4164, Tempo, 1818181
1, 4176, Tempo, 1000000
1, 4200, Tempo, 845070
1, 4224, Tempo, 983606
1, 4248, Tempo, 869565
1, 4296, Tempo, 1071428
1, 4320, Tempo, 1463414
1, 4325, Tempo, 845070
1, 4330, Tempo, 769230
1, 4335, Tempo, 697674
1, 4370, Tempo, 714285
1, 4375, Tempo, 731707
1, 4380, Tempo, 952380
1, 4384, Tempo, 1071428
1, 4388, Tempo, 3333333
1, 4392, Tempo, 1000000
1, 4416, Tempo, 845070
1, 4440, Tempo, 895522
1, 4464, Tempo, 845070
1, 4488, Tempo, 800000
1, 4512, Tempo, 845070
1, 4560, Tempo, 895522
1, 4584, Tempo, 1153846
1, 4608, Tempo, 1304347
1, 4632, Tempo, 1071428
1, 4656, Tempo, 1250000
1, 4680, Tempo, 1621621
1, 4686, Tempo, 1153846
1, 4692, Tempo, 1000000
1, 4704, Tempo, 1071428
1, 4710, Tempo, 1153846
1, 4716, Tempo, 1333333
1, 4722, Tempo, 1463414
1, 4734, Tempo, 2307692
1, 4744, Tempo, 1463414
1, 4748, Tempo, 2727272
1, 4752, Tempo, 1333333
1, 4776, Tempo, 952380
1, 4800, Tempo, 923076
1, 4824, Tempo, 952380
1, 4848, Tempo, 1071428
1, 4872, Tempo, 1333333
1, 4896, Tempo, 1250000
1, 4920, Tempo, 869565
1, 4944, Tempo, 923076
1, 4968, Tempo, 845070
1, 5016, Tempo, 1000000
1, 5040, Tempo, 952380
1, 5064, Tempo, 845070
1, 5088, Tempo, 821917
1, 5112, Tempo, 800000
1, 5136, Tempo, 845070
1, 5160, Tempo, 1333333
1, 5184, Tempo, 1153846
1, 5202, Tempo, 845070
1, 5220, Tempo, 869565
1, 5238, Tempo, 1333333
1, 5256, Tempo, 1111111
1, 5280, Tempo, 1071428
1, 5292, Tempo, 1621621
1, 5304, Tempo, 1818181
1, 5322, Tempo, 1621621
1, 5328, Tempo, 1034482
1, 5352, Tempo, 845070
1, 5376, Tempo, 800000
1, 5424, Tempo, 869565
1, 5448, Tempo, 1250000
1, 5472, Tempo, 845070
1, 5496, Tempo, 750000
1, 5520, Tempo, 800000
1, 5544, Tempo, 769230
1, 5592, Tempo, 895522
1, 5616, Tempo, 769230
1, 5640, Tempo, 731707
1, 5664, Tempo, 769230
1, 5712, Tempo, 731707
1, 5736, Tempo, 895522
1, 5760, Tempo, 800000
1, 5784, Tempo, 821917
1, 5808, Tempo, 1071428
1, 5832, Tempo, 895522
1, 5856, Tempo, 800000
1, 5880, Tempo, 952380
1, 5904, Tempo, 1463414
1, 5928, Tempo, 1153846
1, 5952, Tempo, 1034482
1, 5976, Tempo, 1071428
1, 6000, Tempo, 1463414
1, 6024, Tempo, 4000000
1, 6036, Tempo, 1818181
1, 6040, Tempo, 1621621
1, 6044, Tempo, 3333333
1, 6048, Tempo, 1333333
1, 6072, Tempo, 1071428
1, 6096, Tempo, 1153846
1, 6108, Tempo, 1200000
1, 6120, Tempo, 983606
1, 6132, Tempo, 923076
1, 6144, Tempo, 983606
1, 6156, Tempo, 1463414
1, 6168, Tempo, 1538461
1, 6186, Tempo, 1034482
1, 6192, Tempo, 1250000
1, 6216, Tempo, 1000000
1, 6240, Tempo, 845070
1, 6264, Tempo, 895522
1, 6276, Tempo, 1000000
1, 6282, Tempo, 1071428
1, 6288, Tempo, 923076
1, 6300, Tempo, 869565
1, 6312, Tempo, 923076
1, 6324, Tempo, 1071428
1, 6348, Tempo, 952380
1, 6360, Tempo, 800000
1, 6372, Tempo, 789473
1, 6384, Tempo, 800000
1, 6408, Tempo, 923076
1, 6420, Tempo, 952380
1, 6432, Tempo, 1304347
1, 6444, Tempo, 1621621
1, 6456, Tempo, 1714285
1, 6468, Tempo, 1621621
1, 6474, Tempo, 3333333
1, 6480, Tempo, 1250000
1, 6504, Tempo, 923076
1, 6528, Tempo, 1000000
1, 6552, Tempo, 895522
1, 6576, Tempo, 923076
1, 6600, Tempo, 1250000
1, 6624, Tempo, 1463414
1, 6629, Tempo, 845070
1, 6634, Tempo, 769230
1, 6639, Tempo, 697674
1, 6674, Tempo, 714285
1, 6679, Tempo, 731707
1, 6684, Tempo, 952380
1, 6688, Tempo, 1071428
1, 6692, Tempo, 3333333
1, 6696, Tempo, 1034482
1, 6720, Tempo, 923076
1, 6744, Tempo, 983606
1, 6792, Tempo, 869565
1, 6816, Tempo, 983606
1, 6840, Tempo, 1000000
1, 6864, Tempo, 1034482
1, 6888, Tempo, 1395348
1, 6912, Tempo, 1818181
1, 6924, Tempo, 1621621
1, 6936, Tempo, 2000000
1, 6948, Tempo, 1818181
1, 6960, Tempo, 923076
1, 6978, Tempo, 3333333
1, 6984, Tempo, 1250000
1, 6996, Tempo, 1153846
1, 7008, Tempo, 1621621
1, 7013, Tempo, 1818181
1, 7018, Tempo, 1538461
1, 7028, Tempo, 1714285
1, 7032, Tempo, 2000000
1, 7038, Tempo, 3333333
1, 7044, Tempo, 2000000
1, 7050, Tempo, 1935483
1, 7056, Tempo, 3333333
1, 7062, Tempo, 1333333
1, 7086, Tempo, 923076
1, 7110, Tempo, 895522
1, 7134, Tempo, 923076
1, 7158, Tempo, 1111111
1, 7182, Tempo, 1818181
1, 7206, Tempo, 1621621
1, 7230, Tempo, 1250000
1, 7254, Tempo, 1463414
1, 7278, Tempo, 1153846
1, 7326, Tempo, 1463414
1, 7350, Tempo, 1333333
1, 7374, Tempo, 1000000
1, 7398, Tempo, 952380
1, 7422, Tempo, 923076
1, 7446, Tempo, 952380
1, 7470, Tempo, 1621621
1, 7494, Tempo, 1250000
1, 7518, Tempo, 1000000
1, 7542, Tempo, 1071428
1, 7566, Tempo, 1463414
1, 7578, Tempo, 1250000
1, 7590, Tempo, 952380
1, 7602, Tempo, 1000000
1, 7614, Tempo, 983606
1, 7626, Tempo, 1463414
1, 7638, Tempo, 1250000
1, 7686, Tempo, 2000000
1, 7690, Tempo, 1818181
1, 7694, Tempo, 1621621
1, 7698, Tempo, 1714285
1, 7702, Tempo, 2727272
1, 7710, Tempo, 1395348
1, 7734, Tempo, 1000000
1, 7758, Tempo, 1304347
1, 7782, Tempo, 1250000
1, 7806, Tempo, 1071428
1, 7830, Tempo, 983606
1, 7854, Tempo, 869565
1, 7878, Tempo, 895522
1, 7902, Tempo, 952380
1, 7926, Tempo, 1071428
1, 7950, Tempo, 1333333
1, 7956, Tempo, 1071428
1, 7962, Tempo, 845070
1, 7974, Tempo, 952380
1, 7986, Tempo, 2142857
1, 7990, Tempo, 2727272
1, 7998, Tempo, 1333333
1, 8022, Tempo, 1395348
1, 8034, Tempo, 1071428
1, 8046, Tempo, 1000000
1, 8058, Tempo, 1153846
1, 8070, Tempo, 1200000
1, 8094, Tempo, 1153846
1, 8118, Tempo, 1250000
1, 8142, Tempo, 1621621
1, 8154, Tempo, 1250000
1, 8166, Tempo, 1200000
1, 8178, Tempo, 1621621
1, 8190, Tempo, 2142857
1, 8208, Tempo, 1463414
1, 8214, Tempo, 1250000
1, 8238, Tempo, 983606
1, 8262, Tempo, 952380
1, 8286, Tempo, 923076
1, 8310, Tempo, 983606
1, 8334, Tempo, 1463414
1, 8358, Tempo, 1621621
1, 8382, Tempo, 1071428
1, 8430, Tempo, 2000000
1, 8439, Tempo, 1538461
1, 8448, Tempo, 1200000
1, 8457, Tempo, 1071428
1, 8466, Tempo, 1000000
1, 8475, Tempo, 1071428
1, 8484, Tempo, 1153846
1, 8493, Tempo, 2000000
1, 8502, Tempo, 1250000
1, 8526, Tempo, 952380
1, 8550, Tempo, 800000
1, 8574, Tempo, 821917
1, 8598, Tempo, 895522
1, 8622, Tempo, 1153846
1, 8646, Tempo, 1000000
1, 8670, Tempo, 952380
1, 8682, Tempo, 800000
1, 8706, Tempo, 731707
1, 8718, Tempo, 845070
1, 8730, Tempo, 731707
1, 8742, Tempo, 895522
1, 8754, Tempo, 845070
1, 8766, Tempo, 1071428
1, 8778, Tempo, 1333333
1, 8784, Tempo, 845070
1, 8790, Tempo, 1034482
1, 8814, Tempo, 1200000
1, 8838, Tempo, 952380
1, 8862, Tempo, 800000
1, 8886, Tempo, 769230
1, 8934, Tempo, 845070
1, 8958, Tempo, 697674
1, 8982, Tempo, 769230
1, 9006, Tempo, 666666
1, 9030, Tempo, 697674
1, 9054, Tempo, 821917
1, 9078, Tempo, 923076
1, 9102, Tempo, 769230
1, 9126, Tempo, 800000
1, 9150, Tempo, 845070
1, 9174, Tempo, 1034482
1, 9198, Tempo, 1621621
1, 9222, Tempo, 1250000
1, 9240, Tempo, 731707
1, 9258, Tempo, 594059
1, 9276, Tempo, 535714
1, 9294, Tempo, 545454
1, 9312, Tempo, 555555
1, 9330, Tempo, 666666
1, 9348, Tempo, 1071428
1, 9366, Tempo, 1395348
1, 9510, Tempo, 2142857
1, 9516, Tempo, 1304347
1, 9522, Tempo, 1153846
1, 9534, Tempo, 895522
1, 9546, Tempo, 845070
1, 9552, Tempo, 697674
1, 9558, Tempo, 666666
1, 9564, Tempo, 645161
1, 9570, Tempo, 618556
1, 9576, Tempo, 606060
1, 9582, Tempo, 594059
1, 9672, Tempo, 606060
1, 9684, Tempo, 618556
1, 9696, Tempo, 631578
1, 9708, Tempo, 645161
1, 9720, Tempo, 659340
1, 9726, Tempo, 666666
1, 9732, Tempo, 681818
1, 9738, Tempo, 697674
1, 9744, Tempo, 731707
1, 9750, Tempo, 769230
1, 9756, Tempo, 800000
1, 9762, Tempo, 845070
1, 9768, Tempo, 923076
1, 9774, Tempo, 1000000
1, 9780, Tempo, 1153846
1, 9786, Tempo, 1333333
1, 9792, Tempo, 2307692
1, 9798, Tempo, 2000000
1, 9804, Tempo, 3333333
1, 9810, Tempo, 2727272
1, 9816, Tempo, 2000000
1, 9822, Tempo, 1935483
1, 9834, Tempo, 2000000
1, 9840, Tempo, 2142857
1, 9846, Tempo, 2727272
1, 9852, Tempo, 3333333
1, 9858, Tempo, 3750000
1, 9864, Tempo, 4000000
1, 9870, Tempo, 3000000
1, 9882, Tempo, 4000000
1, 9894, Tempo, 4615384
1, 9906, Tempo, 3333333
1, 9930, Tempo, 1538461
1, 9954, Tempo, 1071428
1, 9978, Tempo, 952380
1, 10002, Tempo, 923076
1, 10026, Tempo, 952380
1, 10050, Tempo, 1000000
1, 10098, Tempo, 952380
1, 10122, Tempo, 1034482
1, 10146, Tempo, 1111111
1, 10170, Tempo, 1333333
1, 10194, Tempo, 2000000
1, 10218, Tempo, 1621621
1, 10290, Tempo, 2142857
1, 10362, Tempo, 2307692
1, 10362, End_track
2, 0, Start_track
2, 0, Title_t, "RIGHT HAND"
2, 0, MIDI_port, 0
2, 4, System_exclusive, 0A, 41, 10, 42, 12, 40, 00, 7F, 00, 41, F7
2, 6, System_exclusive, 0A, 41, 10, 42, 12, 40, 00, 04, 7F, 3D, F7
2, 10, System_exclusive, 0A, 41, 10, 42, 12, 40, 01, 30, 04, 0B, F7
2, 12, System_exclusive, 0A, 41, 10, 42, 12, 40, 01, 31, 03, 0B, F7
2, 14, System_exclusive, 0A, 41, 10, 42, 12, 40, 01, 33, 6E, 1E, F7
2, 16, System_exclusive, 0A, 41, 10, 42, 12, 40, 01, 34, 3C, 4F, F7
2, 18, System_exclusive, 0A, 41, 10, 42, 12, 40, 01, 38, 02, 05, F7
2, 20, System_exclusive, 0A, 41, 10, 42, 12, 40, 01, 3A, 64, 21, F7
2, 22, System_exclusive, 0A, 41, 10, 42, 12, 40, 01, 3D, 07, 7B, F7
2, 24, System_exclusive, 0A, 41, 10, 42, 12, 40, 01, 3E, 08, 79, F7
2, 26, Control_c, 0, 0, 0
2, 28, Control_c, 0, 32, 1
2, 30, Program_c, 0, 0
2, 32, Control_c, 0, 7, 120
2, 34, Control_c, 0, 11, 120
2, 36, Control_c, 0, 91, 40
2, 38, Control_c, 0, 93, 0
2, 40, Control_c, 0, 10, 64
2, 42, Control_c, 0, 99, 1
2, 44, Control_c, 0, 98, 8
2, 46, Control_c, 0, 6, 64
2, 48, Control_c, 0, 98, 9
2, 50, Control_c, 0, 6, 64
2, 52, Control_c, 0, 98, 10
2, 54, Control_c, 0, 6, 64
2, 56, Control_c, 0, 98, 32
2, 58, Control_c, 0, 6, 64
2, 60, Control_c, 0, 98, 33
2, 62, Control_c, 0, 6, 64
2, 64, Control_c, 0, 98, 99
2, 66, Control_c, 0, 6, 64
2, 68, Control_c, 0, 98, 100
2, 70, Control_c, 0, 6, 80
2, 72, Control_c, 0, 98, 102
2, 74, Control_c, 0, 6, 64
2, 264, Note_on_c, 0, 70, 42
2, 286, Note_on_c, 0, 70, 0
2, 288, Note_on_c, 0, 79, 56
2, 384, Note_on_c, 0, 79, 0
2, 384, Note_on_c, 0, 77, 58
2, 408, Note_on_c, 0, 77, 0
2, 408, Note_on_c, 0, 79, 68
2, 432, Note_on_c, 0, 79, 0
2, 432, Note_on_c, 0, 77, 56
2, 504, Note_on_c, 0, 77, 0
2, 504, Note_on_c, 0, 75, 50
2, 550, Note_on_c, 0, 75, 0
2, 552, Note_on_c, 0, 70, 64
2, 576, Note_on_c, 0, 70, 0
2, 576, Note_on_c, 0, 79, 66
2, 624, Note_on_c, 0, 79, 0
2, 624, Note_on_c, 0, 72, 58
2, 628, Note_on_c, 0, 72, 0
2, 628, Note_on_c, 0, 73, 60
2, 632, Note_on_c, 0, 73, 0
2, 632, Note_on_c, 0, 72, 58
2, 636, Note_on_c, 0, 72, 0
2, 636, Note_on_c, 0, 71, 56
2, 640, Note_on_c, 0, 71, 0
2, 640, Note_on_c, 0, 72, 58
2, 648, Note_on_c, 0, 72, 0
2, 648, Note_on_c, 0, 84, 72
2, 696, Note_on_c, 0, 84, 0
2, 696, Note_on_c, 0, 79, 72
2, 720, Note_on_c, 0, 79, 0
2, 720, Note_on_c, 0, 82, 56
2, 792, Note_on_c, 0, 82, 0
2, 792, Note_on_c, 0, 80, 54
2, 840, Note_on_c, 0, 80, 0
2, 840, Note_on_c, 0, 79, 54
2, 862, Note_on_c, 0, 79, 0
2, 864, Note_on_c, 0, 77, 66
2, 934, Note_on_c, 0, 77, 0
2, 936, Note_on_c, 0, 79, 62
2, 984, Note_on_c, 0, 79, 0
2, 984, Note_on_c, 0, 74, 68
2, 1006, Note_on_c, 0, 74, 0
2, 1008, Note_on_c, 0, 75, 60
2, 1078, Note_on_c, 0, 75, 0
2, 1080, Note_on_c, 0, 72, 62
2, 1150, Note_on_c, 0, 72, 0
2, 1152, Note_on_c, 0, 70, 60
2, 1176, Note_on_c, 0, 70, 0
2, 1176, Note_on_c, 0, 86, 78
2, 1198, Note_on_c, 0, 86, 0
2, 1200, Note_on_c, 0, 84, 72
2, 1224, Note_on_c, 0, 84, 0
2, 1224, Note_on_c, 0, 82, 70
2, 1236, Note_on_c, 0, 82, 0
2, 1236, Note_on_c, 0, 80, 67
2, 1248, Note_on_c, 0, 80, 0
2, 1248, Note_on_c, 0, 79, 64
2, 1260, Note_on_c, 0, 79, 0
2, 1260, Note_on_c, 0, 80, 64
2, 1270, Note_on_c, 0, 80, 0
2, 1272, Note_on_c, 0, 72, 56
2, 1284, Note_on_c, 0, 72, 0
2, 1284, Note_on_c, 0, 74, 56
2, 1296, Note_on_c, 0, 74, 0
2, 1296, Note_on_c, 0, 75, 48
2, 1366, Note_on_c, 0, 75, 0
2, 1416, Note_on_c, 0, 70, 44
2, 1440, Note_on_c, 0, 70, 0
2, 1440, Note_on_c, 0, 79, 46
2, 1510, Note_on_c, 0, 79, 0
2, 1512, Note_on_c, 0, 77, 36
2, 1524, Note_on_c, 0, 77, 0
2, 1524, Note_on_c, 0, 79, 38
2, 1530, Note_on_c, 0, 79, 0
2, 1530, Note_on_c, 0, 77, 44
2, 1533, Note_on_c, 0, 77, 0
2, 1533, Note_on_c, 0, 79, 47
2, 1536, Note_on_c, 0, 79, 0
2, 1536, Note_on_c, 0, 77, 44
2, 1548, Note_on_c, 0, 77, 0
2, 1548, Note_on_c, 0, 76, 42
2, 1558, Note_on_c, 0, 76, 0
2, 1560, Note_on_c, 0, 77, 40
2, 1570, Note_on_c, 0, 77, 0
2, 1572, Note_on_c, 0, 79, 38
2, 1582, Note_on_c, 0, 79, 0
2, 1584, Note_on_c, 0, 77, 40
2, 1606, Note_on_c, 0, 77, 0
2, 1608, Note_on_c, 0, 75, 60
2, 1666, Note_on_c, 0, 75, 0
2, 1668, Note_on_c, 0, 77, 60
2, 1674, Note_on_c, 0, 77, 0
2, 1674, Note_on_c, 0, 75, 62
2, 1677, Note_on_c, 0, 75, 0
2, 1677, Note_on_c, 0, 77, 64
2, 1680, Note_on_c, 0, 77, 0
2, 1680, Note_on_c, 0, 75, 62
2, 1690, Note_on_c, 0, 75, 0
2, 1692, Note_on_c, 0, 74, 64
2, 1702, Note_on_c, 0, 74, 0
2, 1704, Note_on_c, 0, 75, 64
2, 1714, Note_on_c, 0, 75, 0
2, 1716, Note_on_c, 0, 77, 60
2, 1726, Note_on_c, 0, 77, 0
2, 1728, Note_on_c, 0, 79, 54
2, 1738, Note_on_c, 0, 79, 0
2, 1740, Note_on_c, 0, 71, 58
2, 1750, Note_on_c, 0, 71, 0
2, 1752, Note_on_c, 0, 72, 62
2, 1762, Note_on_c, 0, 72, 0
2, 1764, Note_on_c, 0, 73, 66
2, 1776, Note_on_c, 0, 73, 0
2, 1776, Note_on_c, 0, 72, 64
2, 1786, Note_on_c, 0, 72, 0
2, 1788, Note_on_c, 0, 77, 70
2, 1800, Note_on_c, 0, 77, 0
2, 1800, Note_on_c, 0, 76, 68
2, 1810, Note_on_c, 0, 76, 0
2, 1812, Note_on_c, 0, 80, 74
2, 1824, Note_on_c, 0, 80, 0
2, 1824, Note_on_c, 0, 79, 66
2, 1834, Note_on_c, 0, 79, 0
2, 1836, Note_on_c, 0, 85, 77
2, 1848, Note_on_c, 0, 85, 0
2, 1848, Note_on_c, 0, 84, 74
2, 1860, Note_on_c, 0, 84, 0
2, 1860, Note_on_c, 0, 79, 70
2, 1872, Note_on_c, 0, 79, 0
2, 1872, Note_on_c, 0, 82, 62
2, 1942, Note_on_c, 0, 82, 0
2, 1944, Note_on_c, 0, 80, 54
2, 1990, Note_on_c, 0, 80, 0
2, 1992, Note_on_c, 0, 79, 54
2, 2014, Note_on_c, 0, 79, 0
2, 2016, Note_on_c, 0, 77, 60
2, 2021, Note_on_c, 0, 77, 0
2, 2021, Note_on_c, 0, 79, 54
2, 2026, Note_on_c, 0, 79, 0
2, 2026, Note_on_c, 0, 77, 50
2, 2031, Note_on_c, 0, 77, 0
2, 2031, Note_on_c, 0, 79, 49
2, 2036, Note_on_c, 0, 79, 0
2, 2036, Note_on_c, 0, 77, 48
2, 2041, Note_on_c, 0, 77, 0
2, 2041, Note_on_c, 0, 79, 50
2, 2046, Note_on_c, 0, 79, 0
2, 2046, Note_on_c, 0, 77, 49
2, 2051, Note_on_c, 0, 77, 0
2, 2051, Note_on_c, 0, 79, 52
2, 2056, Note_on_c, 0, 79, 0
2, 2056, Note_on_c, 0, 77, 49
2, 2061, Note_on_c, 0, 77, 0
2, 2061, Note_on_c, 0, 79, 50
2, 2066, Note_on_c, 0, 79, 0
2, 2066, Note_on_c, 0, 77, 47
2, 2071, Note_on_c, 0, 77, 0
2, 2071, Note_on_c, 0, 79, 48
2, 2076, Note_on_c, 0, 79, 0
2, 2076, Note_on_c, 0, 77, 46
2, 2080, Note_on_c, 0, 77, 0
2, 2080, Note_on_c, 0, 76, 60
2, 2084, Note_on_c, 0, 76, 0
2, 2084, Note_on_c, 0, 77, 60
2, 2088, Note_on_c, 0, 77, 0
2, 2088, Note_on_c, 0, 79, 56
2, 2100, Note_on_c, 0, 79, 0
2, 2112, Note_on_c, 0, 79, 58
2, 2136, Note_on_c, 0, 79, 0
2, 2136, Note_on_c, 0, 74, 66
2, 2158, Note_on_c, 0, 74, 0
2, 2160, Note_on_c, 0, 75, 64
2, 2232, Note_on_c, 0, 75, 0
2, 2232, Note_on_c, 0, 72, 62
2, 2302, Note_on_c, 0, 72, 0
2, 2304, Note_on_c, 0, 70, 60
2, 2328, Note_on_c, 0, 70, 0
2, 2328, Note_on_c, 0, 86, 74
2, 2352, Note_on_c, 0, 86, 0
2, 2352, Note_on_c, 0, 84, 70
2, 2364, Note_on_c, 0, 84, 0
2, 2376, Note_on_c, 0, 82, 68
2, 2386, Note_on_c, 0, 82, 0
2, 2388, Note_on_c, 0, 80, 65
2, 2394, Note_on_c, 0, 80, 0
2, 2400, Note_on_c, 0, 79, 62
2, 2406, Note_on_c, 0, 79, 0
2, 2412, Note_on_c, 0, 80, 60
2, 2418, Note_on_c, 0, 80, 0
2, 2420, Note_on_c, 0, 80, 50
2, 2424, Note_on_c, 0, 80, 0
2, 2424, Note_on_c, 0, 72, 42
2, 2436, Note_on_c, 0, 72, 0
2, 2436, Note_on_c, 0, 74, 42
2, 2446, Note_on_c, 0, 74, 0
2, 2448, Note_on_c, 0, 75, 40
2, 2542, Note_on_c, 0, 75, 0
2, 2544, Note_on_c, 0, 74, 47
2, 2566, Note_on_c, 0, 74, 0
2, 2568, Note_on_c, 0, 75, 48
2, 2590, Note_on_c, 0, 75, 0
2, 2592, Note_on_c, 0, 77, 50
2, 2662, Note_on_c, 0, 77, 0
2, 2664, Note_on_c, 0, 79, 50
2, 2712, Note_on_c, 0, 79, 0
2, 2712, Note_on_c, 0, 77, 44
2, 2734, Note_on_c, 0, 77, 0
2, 2736, Note_on_c, 0, 77, 34
2, 2808, Note_on_c, 0, 77, 0
2, 2808, Note_on_c, 0, 72, 34
2, 2878, Note_on_c, 0, 72, 0
2, 2880, Note_on_c, 0, 75, 44
2, 2892, Note_on_c, 0, 75, 0
2, 2904, Note_on_c, 0, 75, 60
2, 2916, Note_on_c, 0, 75, 0
2, 2928, Note_on_c, 0, 75, 68
2, 2940, Note_on_c, 0, 75, 0
2, 2952, Note_on_c, 0, 75, 62
2, 2974, Note_on_c, 0, 75, 0
2, 2976, Note_on_c, 0, 74, 59
2, 2988, Note_on_c, 0, 74, 0
2, 2988, Note_on_c, 0, 75, 58
2, 3000, Note_on_c, 0, 75, 0
2, 3000, Note_on_c, 0, 77, 50
2, 3018, Note_on_c, 0, 77, 0
2, 3018, Note_on_c, 0, 75, 46
2, 3024, Note_on_c, 0, 75, 0
2, 3024, Note_on_c, 0, 75, 46
2, 3094, Note_on_c, 0, 75, 0
2, 3096, Note_on_c, 0, 70, 44
2, 3166, Note_on_c, 0, 70, 0
2, 3168, Note_on_c, 0, 82, 78
2, 3238, Note_on_c, 0, 82, 0
2, 3240, Note_on_c, 0, 81, 76
2, 3286, Note_on_c, 0, 81, 0
2, 3288, Note_on_c, 0, 79, 68
2, 3310, Note_on_c, 0, 79, 0
2, 3312, Note_on_c, 0, 69, 56
2, 3312, Note_on_c, 0, 77, 70
2, 3382, Note_on_c, 0, 77, 0
2, 3382, Note_on_c, 0, 69, 0
2, 3384, Note_on_c, 0, 70, 48
2, 3384, Note_on_c, 0, 74, 58
2, 3454, Note_on_c, 0, 74, 0
2, 3454, Note_on_c, 0, 70, 0
2, 3456, Note_on_c, 0, 67, 54
2, 3456, Note_on_c, 0, 75, 64
2, 3526, Note_on_c, 0, 75, 0
2, 3526, Note_on_c, 0, 67, 0
2, 3528, Note_on_c, 0, 69, 46
2, 3528, Note_on_c, 0, 74, 58
2, 3540, Note_on_c, 0, 74, 0
2, 3540, Note_on_c, 0, 69, 0
2, 3552, Note_on_c, 0, 69, 47
2, 3552, Note_on_c, 0, 72, 59
2, 3564, Note_on_c, 0, 72, 0
2, 3564, Note_on_c, 0, 69, 0
2, 3576, Note_on_c, 0, 69, 46
2, 3576, Note_on_c, 0, 74, 58
2, 3588, Note_on_c, 0, 74, 0
2, 3588, Note_on_c, 0, 69, 0
2, 3600, Note_on_c, 0, 65, 40
2, 3600, Note_on_c, 0, 70, 50
2, 3612, Note_on_c, 0, 70, 0
2, 3612, Note_on_c, 0, 65, 0
2, 3624, Note_on_c, 0, 66, 34
2, 3624, Note_on_c, 0, 71, 42
2, 3636, Note_on_c, 0, 71, 0
2, 3636, Note_on_c, 0, 66, 0
2, 3648, Note_on_c, 0, 64, 46
2, 3648, Note_on_c, 0, 71, 58
2, 3660, Note_on_c, 0, 71, 0
2, 3660, Note_on_c, 0, 64, 0
2, 3672, Note_on_c, 0, 64, 54
2, 3672, Note_on_c, 0, 70, 58
2, 3672, Note_on_c, 0, 72, 66
2, 3684, Note_on_c, 0, 72, 0
2, 3684, Note_on_c, 0, 70, 0
2, 3684, Note_on_c, 0, 64, 0
2, 3696, Note_on_c, 0, 65, 60
2, 3696, Note_on_c, 0, 69, 64
2, 3696, Note_on_c, 0, 72, 72
2, 3708, Note_on_c, 0, 72, 0
2, 3708, Note_on_c, 0, 69, 0
2, 3708, Note_on_c, 0, 65, 0
2, 3720, Note_on_c, 0, 68, 62
2, 3720, Note_on_c, 0, 74, 74
2, 3732, Note_on_c, 0, 74, 0
2, 3732, Note_on_c, 0, 68, 0
2, 3744, Note_on_c, 0, 67, 50
2, 3748, Note_on_c, 0, 67, 0
2, 3748, Note_on_c, 0, 70, 54
2, 3752, Note_on_c, 0, 70, 0
2, 3752, Note_on_c, 0, 75, 58
2, 3756, Note_on_c, 0, 75, 0
2, 3756, Note_on_c, 0, 79, 72
2, 3792, Note_on_c, 0, 79, 0
2, 3792, Note_on_c, 0, 69, 50
2, 3804, Note_on_c, 0, 69, 0
2, 3804, Note_on_c, 0, 70, 52
2, 3816, Note_on_c, 0, 70, 0
2, 3816, Note_on_c, 0, 71, 56
2, 3828, Note_on_c, 0, 71, 0
2, 3828, Note_on_c, 0, 70, 63
2, 3840, Note_on_c, 0, 70, 0
2, 3840, Note_on_c, 0, 73, 62
2, 3852, Note_on_c, 0, 73, 0
2, 3852, Note_on_c, 0, 74, 60
2, 3864, Note_on_c, 0, 74, 0
2, 3864, Note_on_c, 0, 79, 50
2, 3882, Note_on_c, 0, 79, 0
2, 3882, Note_on_c, 0, 77, 48
2, 3888, Note_on_c, 0, 77, 0
2, 3888, Note_on_c, 0, 77, 48
2, 3934, Note_on_c, 0, 77, 0
2, 3936, Note_on_c, 0, 75, 50
2, 3970, Note_on_c, 0, 75, 0
2, 3972, Note_on_c, 0, 77, 60
2, 3978, Note_on_c, 0, 77, 0
2, 3978, Note_on_c, 0, 75, 62
2, 3981, Note_on_c, 0, 75, 0
2, 3981, Note_on_c, 0, 77, 64
2, 3984, Note_on_c, 0, 77, 0
2, 3984, Note_on_c, 0, 75, 62
2, 3994, Note_on_c, 0, 75, 0
2, 3996, Note_on_c, 0, 74, 64
2, 4006, Note_on_c, 0, 74, 0
2, 4008, Note_on_c, 0, 75, 64
2, 4018, Note_on_c, 0, 75, 0
2, 4020, Note_on_c, 0, 77, 60
2, 4030, Note_on_c, 0, 77, 0
2, 4032, Note_on_c, 0, 79, 54
2, 4042, Note_on_c, 0, 79, 0
2, 4044, Note_on_c, 0, 71, 58
2, 4054, Note_on_c, 0, 71, 0
2, 4056, Note_on_c, 0, 72, 62
2, 4066, Note_on_c, 0, 72, 0
2, 4068, Note_on_c, 0, 73, 66
2, 4080, Note_on_c, 0, 73, 0
2, 4080, Note_on_c, 0, 72, 64
2, 4090, Note_on_c, 0, 72, 0
2, 4092, Note_on_c, 0, 77, 70
2, 4104, Note_on_c, 0, 77, 0
2, 4104, Note_on_c, 0, 76, 68
2, 4114, Note_on_c, 0, 76, 0
2, 4116, Note_on_c, 0, 80, 74
2, 4128, Note_on_c, 0, 80, 0
2, 4128, Note_on_c, 0, 79, 66
2, 4138, Note_on_c, 0, 79, 0
2, 4140, Note_on_c, 0, 85, 77
2, 4152, Note_on_c, 0, 85, 0
2, 4152, Note_on_c, 0, 84, 72
2, 4164, Note_on_c, 0, 84, 0
2, 4164, Note_on_c, 0, 79, 68
2, 4176, Note_on_c, 0, 79, 0
2, 4176, Note_on_c, 0, 82, 70
2, 4246, Note_on_c, 0, 82, 0
2, 4248, Note_on_c, 0, 80, 54
2, 4294, Note_on_c, 0, 80, 0
2, 4296, Note_on_c, 0, 79, 52
2, 4318, Note_on_c, 0, 79, 0
2, 4320, Note_on_c, 0, 77, 50
2, 4325, Note_on_c, 0, 77, 0
2, 4325, Note_on_c, 0, 79, 46
2, 4330, Note_on_c, 0, 79, 0
2, 4330, Note_on_c, 0, 77, 45
2, 4335, Note_on_c, 0, 77, 0
2, 4335, Note_on_c, 0, 79, 47
2, 4340, Note_on_c, 0, 79, 0
2, 4340, Note_on_c, 0, 77, 46
2, 4345, Note_on_c, 0, 77, 0
2, 4345, Note_on_c, 0, 79, 48
2, 4350, Note_on_c, 0, 79, 0
2, 4350, Note_on_c, 0, 77, 47
2, 4355, Note_on_c, 0, 77, 0
2, 4355, Note_on_c, 0, 79, 50
2, 4360, Note_on_c, 0, 79, 0
2, 4360, Note_on_c, 0, 77, 47
2, 4365, Note_on_c, 0, 77, 0
2, 4365, Note_on_c, 0, 79, 48
2, 4370, Note_on_c, 0, 79, 0
2, 4370, Note_on_c, 0, 77, 47
2, 4375, Note_on_c, 0, 77, 0
2, 4375, Note_on_c, 0, 79, 48
2, 4380, Note_on_c, 0, 79, 0
2, 4380, Note_on_c, 0, 77, 46
2, 4384, Note_on_c, 0, 77, 0
2, 4384, Note_on_c, 0, 76, 52
2, 4388, Note_on_c, 0, 76, 0
2, 4388, Note_on_c, 0, 77, 56
2, 4392, Note_on_c, 0, 77, 0
2, 4392, Note_on_c, 0, 79, 60
2, 4404, Note_on_c, 0, 79, 0
2, 4416, Note_on_c, 0, 79, 62
2, 4440, Note_on_c, 0, 79, 0
2, 4440, Note_on_c, 0, 74, 68
2, 4462, Note_on_c, 0, 74, 0
2, 4464, Note_on_c, 0, 75, 64
2, 4536, Note_on_c, 0, 75, 0
2, 4536, Note_on_c, 0, 72, 70
2, 4606, Note_on_c, 0, 72, 0
2, 4608, Note_on_c, 0, 70, 68
2, 4632, Note_on_c, 0, 70, 0
2, 4632, Note_on_c, 0, 86, 78
2, 4656, Note_on_c, 0, 86, 0
2, 4656, Note_on_c, 0, 85, 76
2, 4668, Note_on_c, 0, 85, 0
2, 4680, Note_on_c, 0, 84, 68
2, 4684, Note_on_c, 0, 84, 0
2, 4686, Note_on_c, 0, 83, 70
2, 4690, Note_on_c, 0, 83, 0
2, 4692, Note_on_c, 0, 82, 72
2, 4696, Note_on_c, 0, 82, 0
2, 4698, Note_on_c, 0, 81, 71
2, 4702, Note_on_c, 0, 81, 0
2, 4704, Note_on_c, 0, 80, 69
2, 4708, Note_on_c, 0, 80, 0
2, 4710, Note_on_c, 0, 77, 66
2, 4714, Note_on_c, 0, 77, 0
2, 4716, Note_on_c, 0, 74, 62
2, 4720, Note_on_c, 0, 74, 0
2, 4722, Note_on_c, 0, 71, 56
2, 4728, Note_on_c, 0, 71, 0
2, 4728, Note_on_c, 0, 70, 50
2, 4734, Note_on_c, 0, 70, 0
2, 4734, Note_on_c, 0, 74, 48
2, 4740, Note_on_c, 0, 74, 0
2, 4740, Note_on_c, 0, 79, 44
2, 4744, Note_on_c, 0, 79, 0
2, 4744, Note_on_c, 0, 77, 47
2, 4748, Note_on_c, 0, 77, 0
2, 4748, Note_on_c, 0, 75, 46
2, 4752, Note_on_c, 0, 75, 0
2, 4752, Note_on_c, 0, 75, 42
2, 4846, Note_on_c, 0, 75, 0
2, 4848, Note_on_c, 0, 74, 50
2, 4870, Note_on_c, 0, 74, 0
2, 4872, Note_on_c, 0, 75, 46
2, 4894, Note_on_c, 0, 75, 0
2, 4896, Note_on_c, 0, 77, 52
2, 4966, Note_on_c, 0, 77, 0
2, 4968, Note_on_c, 0, 79, 54
2, 5016, Note_on_c, 0, 79, 0
2, 5016, Note_on_c, 0, 77, 52
2, 5038, Note_on_c, 0, 77, 0
2, 5040, Note_on_c, 0, 77, 55
2, 5112, Note_on_c, 0, 77, 0
2, 5112, Note_on_c, 0, 72, 46
2, 5182, Note_on_c, 0, 72, 0
2, 5184, Note_on_c, 0, 75, 44
2, 5202, Note_on_c, 0, 75, 0
2, 5202, Note_on_c, 0, 75, 62
2, 5220, Note_on_c, 0, 75, 0
2, 5220, Note_on_c, 0, 75, 68
2, 5238, Note_on_c, 0, 75, 0
2, 5238, Note_on_c, 0, 75, 65
2, 5256, Note_on_c, 0, 75, 0
2, 5256, Note_on_c, 0, 75, 64
2, 5278, Note_on_c, 0, 75, 0
2, 5280, Note_on_c, 0, 74, 60
2, 5292, Note_on_c, 0, 74, 0
2, 5292, Note_on_c, 0, 75, 60
2, 5304, Note_on_c, 0, 75, 0
2, 5304, Note_on_c, 0, 77, 56
2, 5322, Note_on_c, 0, 77, 0
2, 5322, Note_on_c, 0, 75, 54
2, 5328, Note_on_c, 0, 75, 0
2, 5328, Note_on_c, 0, 75, 50
2, 5398, Note_on_c, 0, 75, 0
2, 5400, Note_on_c, 0, 70, 60
2, 5470, Note_on_c, 0, 70, 0
2, 5472, Note_on_c, 0, 82, 78
2, 5542, Note_on_c, 0, 82, 0
2, 5544, Note_on_c, 0, 81, 76
2, 5590, Note_on_c, 0, 81, 0
2, 5592, Note_on_c, 0, 79, 68
2, 5614, Note_on_c, 0, 79, 0
2, 5616, Note_on_c, 0, 69, 60
2, 5616, Note_on_c, 0, 77, 74
2, 5686, Note_on_c, 0, 77, 0
2, 5686, Note_on_c, 0, 69, 0
2, 5688, Note_on_c, 0, 70, 52
2, 5688, Note_on_c, 0, 74, 62
2, 5758, Note_on_c, 0, 74, 0
2, 5758, Note_on_c, 0, 70, 0
2, 5760, Note_on_c, 0, 67, 58
2, 5760, Note_on_c, 0, 75, 68
2, 5830, Note_on_c, 0, 75, 0
2, 5830, Note_on_c, 0, 67, 0
2, 5832, Note_on_c, 0, 69, 40
2, 5832, Note_on_c, 0, 74, 52
2, 5844, Note_on_c, 0, 74, 0
2, 5844, Note_on_c, 0, 69, 0
2, 5856, Note_on_c, 0, 69, 41
2, 5856, Note_on_c, 0, 72, 53
2, 5868, Note_on_c, 0, 72, 0
2, 5868, Note_on_c, 0, 69, 0
2, 5880, Note_on_c, 0, 69, 40
2, 5880, Note_on_c, 0, 74, 52
2, 5892, Note_on_c, 0, 74, 0
2, 5892, Note_on_c, 0, 69, 0
2, 5904, Note_on_c, 0, 65, 40
2, 5904, Note_on_c, 0, 70, 50
2, 5916, Note_on_c, 0, 70, 0
2, 5916, Note_on_c, 0, 65, 0
2, 5928, Note_on_c, 0, 66, 34
2, 5928, Note_on_c, 0, 71, 42
2, 5940, Note_on_c, 0, 71, 0
2, 5940, Note_on_c, 0, 66, 0
2, 5952, Note_on_c, 0, 64, 46
2, 5952, Note_on_c, 0, 71, 58
2, 5964, Note_on_c, 0, 71, 0
2, 5964, Note_on_c, 0, 64, 0
2, 5976, Note_on_c, 0, 64, 54
2, 5976, Note_on_c, 0, 70, 58
2, 5976, Note_on_c, 0, 72, 66
2, 5988, Note_on_c, 0, 72, 0
2, 5988, Note_on_c, 0, 70, 0
2, 5988, Note_on_c, 0, 64, 0
2, 6000, Note_on_c, 0, 65, 62
2, 6000, Note_on_c, 0, 69, 66
2, 6000, Note_on_c, 0, 72, 74
2, 6012, Note_on_c, 0, 72, 0
2, 6012, Note_on_c, 0, 69, 0
2, 6012, Note_on_c, 0, 65, 0
2, 6024, Note_on_c, 0, 68, 64
2, 6024, Note_on_c, 0, 74, 76
2, 6036, Note_on_c, 0, 74, 0
2, 6036, Note_on_c, 0, 68, 0
2, 6036, Note_on_c, 0, 67, 56
2, 6040, Note_on_c, 0, 67, 0
2, 6040, Note_on_c, 0, 70, 60
2, 6044, Note_on_c, 0, 70, 0
2, 6044, Note_on_c, 0, 75, 64
2, 6048, Note_on_c, 0, 75, 0
2, 6048, Note_on_c, 0, 79, 72
2, 6096, Note_on_c, 0, 79, 0
2, 6096, Note_on_c, 0, 69, 50
2, 6108, Note_on_c, 0, 69, 0
2, 6108, Note_on_c, 0, 70, 52
2, 6120, Note_on_c, 0, 70, 0
2, 6120, Note_on_c, 0, 71, 56
2, 6132, Note_on_c, 0, 71, 0
2, 6132, Note_on_c, 0, 70, 63
2, 6144, Note_on_c, 0, 70, 0
2, 6144, Note_on_c, 0, 73, 61
2, 6156, Note_on_c, 0, 73, 0
2, 6156, Note_on_c, 0, 74, 55
2, 6168, Note_on_c, 0, 74, 0
2, 6168, Note_on_c, 0, 79, 54
2, 6186, Note_on_c, 0, 79, 0
2, 6186, Note_on_c, 0, 77, 46
2, 6192, Note_on_c, 0, 77, 0
2, 6192, Note_on_c, 0, 77, 46
2, 6238, Note_on_c, 0, 77, 0
2, 6240, Note_on_c, 0, 75, 50
2, 6274, Note_on_c, 0, 75, 0
2, 6276, Note_on_c, 0, 77, 60
2, 6282, Note_on_c, 0, 77, 0
2, 6282, Note_on_c, 0, 75, 62
2, 6285, Note_on_c, 0, 75, 0
2, 6285, Note_on_c, 0, 77, 64
2, 6288, Note_on_c, 0, 77, 0
2, 6288, Note_on_c, 0, 75, 62
2, 6298, Note_on_c, 0, 75, 0
2, 6300, Note_on_c, 0, 74, 64
2, 6310, Note_on_c, 0, 74, 0
2, 6312, Note_on_c, 0, 75, 64
2, 6322, Note_on_c, 0, 75, 0
2, 6324, Note_on_c, 0, 77, 60
2, 6334, Note_on_c, 0, 77, 0
2, 6336, Note_on_c, 0, 79, 54
2, 6346, Note_on_c, 0, 79, 0
2, 6348, Note_on_c, 0, 71, 58
2, 6358, Note_on_c, 0, 71, 0
2, 6360, Note_on_c, 0, 72, 62
2, 6370, Note_on_c, 0, 72, 0
2, 6372, Note_on_c, 0, 73, 66
2, 6384, Note_on_c, 0, 73, 0
2, 6384, Note_on_c, 0, 72, 64
2, 6394, Note_on_c, 0, 72, 0
2, 6396, Note_on_c, 0, 77, 70
2, 6408, Note_on_c, 0, 77, 0
2, 6408, Note_on_c, 0, 76, 68
2, 6418, Note_on_c, 0, 76, 0
2, 6420, Note_on_c, 0, 80, 64
2, 6432, Note_on_c, 0, 80, 0
2, 6432, Note_on_c, 0, 79, 54
2, 6442, Note_on_c, 0, 79, 0
2, 6444, Note_on_c, 0, 85, 50
2, 6456, Note_on_c, 0, 85, 0
2, 6456, Note_on_c, 0, 84, 48
2, 6468, Note_on_c, 0, 84, 0
2, 6468, Note_on_c, 0, 79, 40
2, 6474, Note_on_c, 0, 79, 0
2, 6474, Note_on_c, 0, 79, 46
2, 6480, Note_on_c, 0, 79, 0
2, 6480, Note_on_c, 0, 82, 50
2, 6550, Note_on_c, 0, 82, 0
2, 6552, Note_on_c, 0, 80, 50
2, 6598, Note_on_c, 0, 80, 0
2, 6600, Note_on_c, 0, 79, 48
2, 6622, Note_on_c, 0, 79, 0
2, 6624, Note_on_c, 0, 77, 50
2, 6629, Note_on_c, 0, 77, 0
2, 6629, Note_on_c, 0, 79, 46
2, 6634, Note_on_c, 0, 79, 0
2, 6634, Note_on_c, 0, 77, 45
2, 6639, Note_on_c, 0, 77, 0
2, 6639, Note_on_c, 0, 79, 47
2, 6644, Note_on_c, 0, 79, 0
2, 6644, Note_on_c, 0, 77, 46
2, 6649, Note_on_c, 0, 77, 0
2, 6649, Note_on_c, 0, 79, 48
2, 6654, Note_on_c, 0, 79, 0
2, 6654, Note_on_c, 0, 77, 47
2, 6659, Note_on_c, 0, 77, 0
2, 6659, Note_on_c, 0, 79, 50
2, 6664, Note_on_c, 0, 79, 0
2, 6664, Note_on_c, 0, 77, 47
2, 6669, Note_on_c, 0, 77, 0
2, 6669, Note_on_c, 0, 79, 48
2, 6674, Note_on_c, 0, 79, 0
2, 6674, Note_on_c, 0, 77, 47
2, 6679, Note_on_c, 0, 77, 0
2, 6679, Note_on_c, 0, 79, 48
2, 6684, Note_on_c, 0, 79, 0
2, 6684, Note_on_c, 0, 77, 46
2, 6688, Note_on_c, 0, 77, 0
2, 6688, Note_on_c, 0, 76, 52
2, 6692, Note_on_c, 0, 76, 0
2, 6692, Note_on_c, 0, 77, 56
2, 6696, Note_on_c, 0, 77, 0
2, 6696, Note_on_c, 0, 79, 60
2, 6708, Note_on_c, 0, 79, 0
2, 6720, Note_on_c, 0, 79, 62
2, 6744, Note_on_c, 0, 79, 0
2, 6744, Note_on_c, 0, 74, 68
2, 6766, Note_on_c, 0, 74, 0
2, 6768, Note_on_c, 0, 75, 64
2, 6840, Note_on_c, 0, 75, 0
2, 6840, Note_on_c, 0, 72, 70
2, 6910, Note_on_c, 0, 72, 0
2, 6912, Note_on_c, 0, 70, 68
2, 6924, Note_on_c, 0, 70, 0
2, 6924, Note_on_c, 0, 86, 76
2, 6948, Note_on_c, 0, 86, 0
2, 6948, Note_on_c, 0, 85, 66
2, 6956, Note_on_c, 0, 85, 0
2, 6960, Note_on_c, 0, 84, 64
2, 6970, Note_on_c, 0, 84, 0
2, 6978, Note_on_c, 0, 83, 62
2, 6982, Note_on_c, 0, 83, 0
2, 6984, Note_on_c, 0, 82, 56
2, 6992, Note_on_c, 0, 82, 0
2, 6996, Note_on_c, 0, 81, 58
2, 7004, Note_on_c, 0, 81, 0
2, 7008, Note_on_c, 0, 80, 54
2, 7013, Note_on_c, 0, 80, 0
2, 7013, Note_on_c, 0, 69, 50
2, 7018, Note_on_c, 0, 69, 0
2, 7018, Note_on_c, 0, 70, 49
2, 7023, Note_on_c, 0, 70, 0
2, 7023, Note_on_c, 0, 71, 48
2, 7028, Note_on_c, 0, 71, 0
2, 7028, Note_on_c, 0, 72, 47
2, 7032, Note_on_c, 0, 72, 0
2, 7032, Note_on_c, 0, 73, 46
2, 7038, Note_on_c, 0, 73, 0
2, 7038, Note_on_c, 0, 74, 44
2, 7044, Note_on_c, 0, 74, 0
2, 7044, Note_on_c, 0, 79, 36
2, 7050, Note_on_c, 0, 79, 0
2, 7050, Note_on_c, 0, 77, 35
2, 7056, Note_on_c, 0, 77, 0
2, 7056, Note_on_c, 0, 75, 34
2, 7062, Note_on_c, 0, 75, 0
2, 7062, Note_on_c, 0, 75, 38
2, 7204, Note_on_c, 0, 75, 0
2, 7206, Note_on_c, 0, 75, 52
2, 7276, Note_on_c, 0, 75, 0
2, 7278, Note_on_c, 0, 77, 46
2, 7302, Note_on_c, 0, 77, 0
2, 7302, Note_on_c, 0, 75, 50
2, 7326, Note_on_c, 0, 75, 0
2, 7326, Note_on_c, 0, 77, 46
2, 7350, Note_on_c, 0, 77, 0
2, 7350, Note_on_c, 0, 79, 42
2, 7492, Note_on_c, 0, 79, 0
2, 7494, Note_on_c, 0, 75, 62
2, 7578, Note_on_c, 0, 75, 0
2, 7578, Note_on_c, 0, 77, 54
2, 7590, Note_on_c, 0, 77, 0
2, 7590, Note_on_c, 0, 75, 52
2, 7600, Note_on_c, 0, 75, 0
2, 7602, Note_on_c, 0, 77, 58
2, 7614, Note_on_c, 0, 77, 0
2, 7614, Note_on_c, 0, 75, 54
2, 7626, Note_on_c, 0, 75, 0
2, 7626, Note_on_c, 0, 77, 52
2, 7638, Note_on_c, 0, 77, 0
2, 7638, Note_on_c, 0, 79, 50
2, 7684, Note_on_c, 0, 79, 0
2, 7686, Note_on_c, 0, 75, 40
2, 7690, Note_on_c, 0, 75, 0
2, 7690, Note_on_c, 0, 77, 44
2, 7694, Note_on_c, 0, 77, 0
2, 7694, Note_on_c, 0, 75, 46
2, 7698, Note_on_c, 0, 75, 0
2, 7698, Note_on_c, 0, 74, 48
2, 7702, Note_on_c, 0, 74, 0
2, 7702, Note_on_c, 0, 75, 50
2, 7710, Note_on_c, 0, 75, 0
2, 7710, Note_on_c, 0, 87, 60
2, 7732, Note_on_c, 0, 87, 0
2, 7734, Note_on_c, 0, 86, 64
2, 7756, Note_on_c, 0, 86, 0
2, 7758, Note_on_c, 0, 84, 62
2, 7780, Note_on_c, 0, 84, 0
2, 7782, Note_on_c, 0, 82, 56
2, 7828, Note_on_c, 0, 82, 0
2, 7830, Note_on_c, 0, 81, 58
2, 7854, Note_on_c, 0, 81, 0
2, 7854, Note_on_c, 0, 80, 62
2, 7876, Note_on_c, 0, 80, 0
2, 7878, Note_on_c, 0, 72, 56
2, 7900, Note_on_c, 0, 72, 0
2, 7902, Note_on_c, 0, 74, 58
2, 7924, Note_on_c, 0, 74, 0
2, 7926, Note_on_c, 0, 75, 62
2, 7948, Note_on_c, 0, 75, 0
2, 7950, Note_on_c, 0, 77, 60
2, 7956, Note_on_c, 0, 77, 0
2, 7956, Note_on_c, 0, 75, 64
2, 7959, Note_on_c, 0, 75, 0
2, 7959, Note_on_c, 0, 77, 66
2, 7962, Note_on_c, 0, 77, 0
2, 7962, Note_on_c, 0, 75, 64
2, 7974, Note_on_c, 0, 75, 0
2, 7974, Note_on_c, 0, 74, 64
2, 7986, Note_on_c, 0, 74, 0
2, 7986, Note_on_c, 0, 75, 66
2, 7990, Note_on_c, 0, 75, 0
2, 7990, Note_on_c, 0, 75, 68
2, 7998, Note_on_c, 0, 75, 0
2, 7998, Note_on_c, 0, 91, 82
2, 8010, Note_on_c, 0, 91, 0
2, 8022, Note_on_c, 0, 89, 70
2, 8028, Note_on_c, 0, 89, 0
2, 8034, Note_on_c, 0, 87, 74
2, 8040, Note_on_c, 0, 87, 0
2, 8046, Note_on_c, 0, 86, 71
2, 8052, Note_on_c, 0, 86, 0
2, 8058, Note_on_c, 0, 84, 68
2, 8064, Note_on_c, 0, 84, 0
2, 8070, Note_on_c, 0, 83, 62
2, 8094, Note_on_c, 0, 83, 0
2, 8094, Note_on_c, 0, 82, 60
2, 8118, Note_on_c, 0, 82, 0
2, 8118, Note_on_c, 0, 81, 50
2, 8140, Note_on_c, 0, 81, 0
2, 8142, Note_on_c, 0, 81, 48
2, 8154, Note_on_c, 0, 81, 0
2, 8154, Note_on_c, 0, 80, 52
2, 8164, Note_on_c, 0, 80, 0
2, 8166, Note_on_c, 0, 80, 50
2, 8178, Note_on_c, 0, 80, 0
2, 8178, Note_on_c, 0, 79, 48
2, 8188, Note_on_c, 0, 79, 0
2, 8190, Note_on_c, 0, 79, 42
2, 8208, Note_on_c, 0, 79, 0
2, 8208, Note_on_c, 0, 77, 38
2, 8214, Note_on_c, 0, 77, 0
2, 8214, Note_on_c, 0, 75, 36
2, 8356, Note_on_c, 0, 75, 0
2, 8358, Note_on_c, 0, 75, 62
2, 8437, Note_on_c, 0, 75, 0
2, 8439, Note_on_c, 0, 77, 44
2, 8448, Note_on_c, 0, 77, 0
2, 8448, Note_on_c, 0, 75, 50
2, 8457, Note_on_c, 0, 75, 0
2, 8457, Note_on_c, 0, 77, 52
2, 8466, Note_on_c, 0, 77, 0
2, 8466, Note_on_c, 0, 75, 51
2, 8473, Note_on_c, 0, 75, 0
2, 8475, Note_on_c, 0, 77, 57
2, 8484, Note_on_c, 0, 77, 0
2, 8484, Note_on_c, 0, 75, 54
2, 8493, Note_on_c, 0, 75, 0
2, 8493, Note_on_c, 0, 77, 50
2, 8500, Note_on_c, 0, 77, 0
2, 8502, Note_on_c, 0, 79, 44
2, 8572, Note_on_c, 0, 79, 0
2, 8646, Note_on_c, 0, 75, 78
2, 8658, Note_on_c, 0, 75, 0
2, 8670, Note_on_c, 0, 68, 56
2, 8682, Note_on_c, 0, 68, 0
2, 8682, Note_on_c, 0, 70, 54
2, 8688, Note_on_c, 0, 70, 0
2, 8688, Note_on_c, 0, 68, 54
2, 8691, Note_on_c, 0, 68, 0
2, 8691, Note_on_c, 0, 70, 56
2, 8694, Note_on_c, 0, 70, 0
2, 8694, Note_on_c, 0, 68, 54
2, 8706, Note_on_c, 0, 68, 0
2, 8706, Note_on_c, 0, 67, 58
2, 8718, Note_on_c, 0, 67, 0
2, 8718, Note_on_c, 0, 68, 70
2, 8730, Note_on_c, 0, 68, 0
2, 8730, Note_on_c, 0, 71, 66
2, 8742, Note_on_c, 0, 71, 0
2, 8742, Note_on_c, 0, 75, 74
2, 8754, Note_on_c, 0, 75, 0
2, 8754, Note_on_c, 0, 80, 72
2, 8766, Note_on_c, 0, 80, 0
2, 8766, Note_on_c, 0, 87, 80
2, 8776, Note_on_c, 0, 87, 0
2, 8784, Note_on_c, 0, 89, 86
2, 8790, Note_on_c, 0, 89, 0
2, 8790, Note_on_c, 0, 91, 82
2, 8814, Note_on_c, 0, 91, 0
2, 8814, Note_on_c, 0, 87, 86
2, 8838, Note_on_c, 0, 87, 0
2, 8838, Note_on_c, 0, 87, 92
2, 8838, Note_on_c, 0, 99, 102
2, 8884, Note_on_c, 0, 99, 0
2, 8884, Note_on_c, 0, 87, 0
2, 8886, Note_on_c, 0, 86, 80
2, 8886, Note_on_c, 0, 98, 90
2, 8908, Note_on_c, 0, 98, 0
2, 8908, Note_on_c, 0, 86, 0
2, 8910, Note_on_c, 0, 84, 76
2, 8910, Note_on_c, 0, 96, 86
2, 8932, Note_on_c, 0, 96, 0
2, 8932, Note_on_c, 0, 84, 0
2, 8934, Note_on_c, 0, 83, 82
2, 8934, Note_on_c, 0, 95, 92
2, 8956, Note_on_c, 0, 95, 0
2, 8956, Note_on_c, 0, 83, 0
2, 8958, Note_on_c, 0, 82, 78
2, 8958, Note_on_c, 0, 94, 88
2, 8980, Note_on_c, 0, 94, 0
2, 8980, Note_on_c, 0, 82, 0
2, 8982, Note_on_c, 0, 81, 76
2, 8982, Note_on_c, 0, 93, 86
2, 9004, Note_on_c, 0, 93, 0
2, 9004, Note_on_c, 0, 81, 0
2, 9006, Note_on_c, 0, 80, 78
2, 9006, Note_on_c, 0, 92, 88
2, 9028, Note_on_c, 0, 92, 0
2, 9028, Note_on_c, 0, 80, 0
2, 9030, Note_on_c, 0, 79, 72
2, 9030, Note_on_c, 0, 91, 82
2, 9052, Note_on_c, 0, 91, 0
2, 9052, Note_on_c, 0, 79, 0
2, 9054, Note_on_c, 0, 74, 76
2, 9054, Note_on_c, 0, 86, 86
2, 9076, Note_on_c, 0, 86, 0
2, 9076, Note_on_c, 0, 74, 0
2, 9078, Note_on_c, 0, 75, 84
2, 9078, Note_on_c, 0, 87, 94
2, 9100, Note_on_c, 0, 87, 0
2, 9100, Note_on_c, 0, 75, 0
2, 9102, Note_on_c, 0, 87, 92
2, 9102, Note_on_c, 0, 99, 102
2, 9172, Note_on_c, 0, 99, 0
2, 9172, Note_on_c, 0, 87, 0
2, 9174, Note_on_c, 0, 77, 84
2, 9174, Note_on_c, 0, 89, 94
2, 9196, Note_on_c, 0, 89, 0
2, 9196, Note_on_c, 0, 77, 0
2, 9198, Note_on_c, 0, 84, 88
2, 9198, Note_on_c, 0, 96, 98
2, 9220, Note_on_c, 0, 96, 0
2, 9220, Note_on_c, 0, 84, 0
2, 9222, Note_on_c, 0, 83, 86
2, 9222, Note_on_c, 0, 95, 96
2, 9364, Note_on_c, 0, 95, 0
2, 9364, Note_on_c, 0, 83, 0
2, 9366, Note_on_c, 0, 82, 70
2, 9366, Note_on_c, 0, 94, 80
2, 9508, Note_on_c, 0, 94, 0
2, 9508, Note_on_c, 0, 82, 0
2, 9510, Note_on_c, 0, 95, 34
2, 9516, Note_on_c, 0, 95, 0
2, 9516, Note_on_c, 0, 94, 36
2, 9522, Note_on_c, 0, 94, 0
2, 9522, Note_on_c, 0, 96, 40
2, 9528, Note_on_c, 0, 96, 0
2, 9528, Note_on_c, 0, 93, 38
2, 9534, Note_on_c, 0, 93, 0
2, 9534, Note_on_c, 0, 95, 49
2, 9540, Note_on_c, 0, 95, 0
2, 9540, Note_on_c, 0, 94, 45
2, 9546, Note_on_c, 0, 94, 0
2, 9546, Note_on_c, 0, 96, 50
2, 9552, Note_on_c, 0, 96, 0
2, 9552, Note_on_c, 0, 93, 48
2, 9558, Note_on_c, 0, 93, 0
2, 9558, Note_on_c, 0, 95, 57
2, 9564, Note_on_c, 0, 95, 0
2, 9564, Note_on_c, 0, 94, 53
2, 9570, Note_on_c, 0, 94, 0
2, 9570, Note_on_c, 0, 96, 58
2, 9576, Note_on_c, 0, 96, 0
2, 9576, Note_on_c, 0, 93, 56
2, 9582, Note_on_c, 0, 93, 0
2, 9582, Note_on_c, 0, 95, 65
2, 9588, Note_on_c, 0, 95, 0
2, 9588, Note_on_c, 0, 94, 59
2, 9594, Note_on_c, 0, 94, 0
2, 9594, Note_on_c, 0, 96, 63
2, 9600, Note_on_c, 0, 96, 0
2, 9600, Note_on_c, 0, 93, 58
2, 9606, Note_on_c, 0, 93, 0
2, 9606, Note_on_c, 0, 95, 69
2, 9612, Note_on_c, 0, 95, 0
2, 9612, Note_on_c, 0, 94, 63
2, 9618, Note_on_c, 0, 94, 0
2, 9618, Note_on_c, 0, 96, 66
2, 9624, Note_on_c, 0, 96, 0
2, 9624, Note_on_c, 0, 93, 61
2, 9630, Note_on_c, 0, 93, 0
2, 9630, Note_on_c, 0, 95, 70
2, 9636, Note_on_c, 0, 95, 0
2, 9636, Note_on_c, 0, 94, 63
2, 9642, Note_on_c, 0, 94, 0
2, 9642, Note_on_c, 0, 96, 65
2, 9648, Note_on_c, 0, 96, 0
2, 9648, Note_on_c, 0, 93, 61
2, 9654, Note_on_c, 0, 93, 0
2, 9654, Note_on_c, 0, 95, 68
2, 9660, Note_on_c, 0, 95, 0
2, 9660, Note_on_c, 0, 94, 65
2, 9666, Note_on_c, 0, 94, 0
2, 9666, Note_on_c, 0, 96, 64
2, 9672, Note_on_c, 0, 96, 0
2, 9672, Note_on_c, 0, 93, 62
2, 9678, Note_on_c, 0, 93, 0
2, 9678, Note_on_c, 0, 95, 66
2, 9684, Note_on_c, 0, 95, 0
2, 9684, Note_on_c, 0, 94, 63
2, 9690, Note_on_c, 0, 94, 0
2, 9690, Note_on_c, 0, 96, 62
2, 9696, Note_on_c, 0, 96, 0
2, 9696, Note_on_c, 0, 93, 60
2, 9702, Note_on_c, 0, 93, 0
2, 9702, Note_on_c, 0, 95, 66
2, 9708, Note_on_c, 0, 95, 0
2, 9708, Note_on_c, 0, 94, 60
2, 9714, Note_on_c, 0, 94, 0
2, 9714, Note_on_c, 0, 96, 59
2, 9720, Note_on_c, 0, 96, 0
2, 9720, Note_on_c, 0, 93, 57
2, 9726, Note_on_c, 0, 93, 0
2, 9726, Note_on_c, 0, 95, 63
2, 9732, Note_on_c, 0, 95, 0
2, 9732, Note_on_c, 0, 94, 56
2, 9738, Note_on_c, 0, 94, 0
2, 9738, Note_on_c, 0, 96, 56
2, 9744, Note_on_c, 0, 96, 0
2, 9744, Note_on_c, 0, 93, 51
2, 9750, Note_on_c, 0, 93, 0
2, 9750, Note_on_c, 0, 95, 57
2, 9756, Note_on_c, 0, 95, 0
2, 9756, Note_on_c, 0, 94, 50
2, 9762, Note_on_c, 0, 94, 0
2, 9762, Note_on_c, 0, 96, 50
2, 9768, Note_on_c, 0, 96, 0
2, 9768, Note_on_c, 0, 93, 45
2, 9774, Note_on_c, 0, 93, 0
2, 9774, Note_on_c, 0, 95, 54
2, 9780, Note_on_c, 0, 95, 0
2, 9780, Note_on_c, 0, 94, 44
2, 9786, Note_on_c, 0, 94, 0
2, 9786, Note_on_c, 0, 96, 44
2, 9792, Note_on_c, 0, 96, 0
2, 9792, Note_on_c, 0, 93, 39
2, 9798, Note_on_c, 0, 93, 0
2, 9798, Note_on_c, 0, 95, 50
2, 9804, Note_on_c, 0, 95, 0
2, 9804, Note_on_c, 0, 94, 53
2, 9810, Note_on_c, 0, 94, 0
2, 9810, Note_on_c, 0, 98, 48
2, 9816, Note_on_c, 0, 98, 0
2, 9816, Note_on_c, 0, 96, 51
2, 9822, Note_on_c, 0, 96, 0
2, 9822, Note_on_c, 0, 94, 44
2, 9828, Note_on_c, 0, 94, 0
2, 9828, Note_on_c, 0, 93, 46
2, 9834, Note_on_c, 0, 93, 0
2, 9834, Note_on_c, 0, 92, 50
2, 9840, Note_on_c, 0, 92, 0
2, 9840, Note_on_c, 0, 91, 48
2, 9846, Note_on_c, 0, 91, 0
2, 9846, Note_on_c, 0, 89, 46
2, 9852, Note_on_c, 0, 89, 0
2, 9852, Note_on_c, 0, 86, 41
2, 9858, Note_on_c, 0, 86, 0
2, 9858, Note_on_c, 0, 87, 45
2, 9864, Note_on_c, 0, 87, 0
2, 9864, Note_on_c, 0, 84, 40
2, 9870, Note_on_c, 0, 84, 0
2, 9870, Note_on_c, 0, 82, 38
2, 9882, Note_on_c, 0, 82, 0
2, 9882, Note_on_c, 0, 80, 36
2, 9894, Note_on_c, 0, 80, 0
2, 9894, Note_on_c, 0, 72, 33
2, 9906, Note_on_c, 0, 72, 0
2, 9906, Note_on_c, 0, 74, 30
2, 9926, Note_on_c, 0, 74, 0
2, 9930, Note_on_c, 0, 67, 24
2, 9930, Note_on_c, 0, 75, 36
2, 9954, Note_on_c, 0, 75, 0
2, 9954, Note_on_c, 0, 67, 0
2, 9954, Note_on_c, 0, 70, 29
2, 9978, Note_on_c, 0, 70, 0
2, 9978, Note_on_c, 0, 79, 31
2, 10002, Note_on_c, 0, 79, 0
2, 10002, Note_on_c, 0, 67, 26
2, 10002, Note_on_c, 0, 75, 38
2, 10026, Note_on_c, 0, 75, 0
2, 10026, Note_on_c, 0, 67, 0
2, 10026, Note_on_c, 0, 70, 32
2, 10050, Note_on_c, 0, 70, 0
2, 10050, Note_on_c, 0, 79, 34
2, 10074, Note_on_c, 0, 79, 0
2, 10074, Note_on_c, 0, 67, 28
2, 10074, Note_on_c, 0, 75, 40
2, 10098, Note_on_c, 0, 75, 0
2, 10098, Note_on_c, 0, 67, 0
2, 10098, Note_on_c, 0, 70, 30
2, 10122, Note_on_c, 0, 70, 0
2, 10122, Note_on_c, 0, 79, 30
2, 10146, Note_on_c, 0, 79, 0
2, 10146, Note_on_c, 0, 67, 24
2, 10146, Note_on_c, 0, 75, 36
2, 10170, Note_on_c, 0, 75, 0
2, 10170, Note_on_c, 0, 67, 0
2, 10170, Note_on_c, 0, 70, 26
2, 10194, Note_on_c, 0, 70, 0
2, 10194, Note_on_c, 0, 79, 30
2, 10218, Note_on_c, 0, 79, 0
2, 10218, Note_on_c, 0, 67, 22
2, 10218, Note_on_c, 0, 75, 30
2, 10288, Note_on_c, 0, 75, 0
2, 10288, Note_on_c, 0, 67, 0
2, 10290, Note_on_c, 0, 79, 26
2, 10290, Note_on_c, 0, 87, 40
2, 10360, Note_on_c, 0, 87, 0
2, 10360, Note_on_c, 0, 79, 0
2, 10362, Note_on_c, 0, 55, 20
2, 10362, Note_on_c, 0, 63, 26
2, 10504, Note_on_c, 0, 63, 0
2, 10504, Note_on_c, 0, 55, 0
2, 10506, End_track
3, 0, Start_track
3, 0, Title_t, "LEFT HAND"
3, 0, MIDI_port, 0
3, 288, Note_on_c, 0, 39, 26
3, 300, Note_on_c, 0, 39, 0
3, 312, Note_on_c, 0, 55, 24
3, 312, Note_on_c, 0, 63, 28
3, 336, Note_on_c, 0, 63, 0
3, 336, Note_on_c, 0, 55, 0
3, 336, Note_on_c, 0, 58, 20
3, 336, Note_on_c, 0, 63, 22
3, 336, Note_on_c, 0, 67, 24
3, 358, Note_on_c, 0, 67, 0
3, 358, Note_on_c, 0, 63, 0
3, 358, Note_on_c, 0, 58, 0
3, 360, Note_on_c, 0, 51, 28
3, 372, Note_on_c, 0, 51, 0
3, 384, Note_on_c, 0, 56, 30
3, 384, Note_on_c, 0, 62, 34
3, 408, Note_on_c, 0, 62, 0
3, 408, Note_on_c, 0, 56, 0
3, 408, Note_on_c, 0, 59, 32
3, 408, Note_on_c, 0, 62, 34
3, 408, Note_on_c, 0, 68, 36
3, 430, Note_on_c, 0, 68, 0
3, 430, Note_on_c, 0, 62, 0
3, 430, Note_on_c, 0, 59, 0
3, 432, Note_on_c, 0, 39, 26
3, 444, Note_on_c, 0, 39, 0
3, 456, Note_on_c, 0, 55, 24
3, 456, Note_on_c, 0, 63, 28
3, 480, Note_on_c, 0, 63, 0
3, 480, Note_on_c, 0, 55, 0
3, 480, Note_on_c, 0, 58, 22
3, 480, Note_on_c, 0, 63, 24
3, 480, Note_on_c, 0, 67, 26
3, 502, Note_on_c, 0, 67, 0
3, 502, Note_on_c, 0, 63, 0
3, 502, Note_on_c, 0, 58, 0
3, 504, Note_on_c, 0, 38, 28
3, 516, Note_on_c, 0, 38, 0
3, 528, Note_on_c, 0, 55, 32
3, 528, Note_on_c, 0, 63, 36
3, 552, Note_on_c, 0, 63, 0
3, 552, Note_on_c, 0, 55, 0
3, 552, Note_on_c, 0, 58, 36
3, 552, Note_on_c, 0, 63, 38
3, 552, Note_on_c, 0, 67, 40
3, 574, Note_on_c, 0, 67, 0
3, 574, Note_on_c, 0, 63, 0
3, 574, Note_on_c, 0, 58, 0
3, 576, Note_on_c, 0, 36, 26
3, 588, Note_on_c, 0, 36, 0
3, 600, Note_on_c, 0, 55, 28
3, 600, Note_on_c, 0, 64, 32
3, 624, Note_on_c, 0, 64, 0
3, 624, Note_on_c, 0, 55, 0
3, 624, Note_on_c, 0, 58, 28
3, 624, Note_on_c, 0, 64, 30
3, 624, Note_on_c, 0, 67, 32
3, 646, Note_on_c, 0, 67, 0
3, 646, Note_on_c, 0, 64, 0
3, 646, Note_on_c, 0, 58, 0
3, 648, Note_on_c, 0, 48, 30
3, 660, Note_on_c, 0, 48, 0
3, 672, Note_on_c, 0, 55, 34
3, 672, Note_on_c, 0, 64, 38
3, 696, Note_on_c, 0, 64, 0
3, 696, Note_on_c, 0, 55, 0
3, 696, Note_on_c, 0, 60, 32
3, 696, Note_on_c, 0, 64, 34
3, 696, Note_on_c, 0, 70, 36
3, 718, Note_on_c, 0, 70, 0
3, 718, Note_on_c, 0, 64, 0
3, 718, Note_on_c, 0, 60, 0
3, 720, Note_on_c, 0, 41, 30
3, 732, Note_on_c, 0, 41, 0
3, 744, Note_on_c, 0, 53, 24
3, 744, Note_on_c, 0, 61, 28
3, 768, Note_on_c, 0, 61, 0
3, 768, Note_on_c, 0, 53, 0
3, 768, Note_on_c, 0, 58, 22
3, 768, Note_on_c, 0, 61, 24
3, 768, Note_on_c, 0, 64, 26
3, 790, Note_on_c, 0, 64, 0
3, 790, Note_on_c, 0, 61, 0
3, 790, Note_on_c, 0, 58, 0
3, 792, Note_on_c, 0, 41, 30
3, 804, Note_on_c, 0, 41, 0
3, 816, Note_on_c, 0, 53, 22
3, 816, Note_on_c, 0, 60, 26
3, 840, Note_on_c, 0, 60, 0
3, 840, Note_on_c, 0, 53, 0
3, 840, Note_on_c, 0, 56, 18
3, 840, Note_on_c, 0, 60, 20
3, 840, Note_on_c, 0, 65, 22
3, 862, Note_on_c, 0, 65, 0
3, 862, Note_on_c, 0, 60, 0
3, 862, Note_on_c, 0, 56, 0
3, 864, Note_on_c, 0, 46, 32
3, 876, Note_on_c, 0, 46, 0
3, 888, Note_on_c, 0, 53, 28
3, 888, Note_on_c, 0, 62, 32
3, 912, Note_on_c, 0, 62, 0
3, 912, Note_on_c, 0, 53, 0
3, 912, Note_on_c, 0, 58, 32
3, 912, Note_on_c, 0, 62, 34
3, 912, Note_on_c, 0, 68, 36
3, 934, Note_on_c, 0, 68, 0
3, 934, Note_on_c, 0, 62, 0
3, 934, Note_on_c, 0, 58, 0
3, 936, Note_on_c, 0, 47, 36
3, 948, Note_on_c, 0, 47, 0
3, 960, Note_on_c, 0, 55, 32
3, 960, Note_on_c, 0, 65, 36
3, 984, Note_on_c, 0, 65, 0
3, 984, Note_on_c, 0, 55, 0
3, 984, Note_on_c, 0, 62, 34
3, 984, Note_on_c, 0, 65, 36
3, 984, Note_on_c, 0, 67, 38
3, 1006, Note_on_c, 0, 67, 0
3, 1006, Note_on_c, 0, 65, 0
3, 1006, Note_on_c, 0, 62, 0
3, 1008, Note_on_c, 0, 48, 34
3, 1020, Note_on_c, 0, 48, 0
3, 1032, Note_on_c, 0, 55, 34
3, 1032, Note_on_c, 0, 63, 38
3, 1056, Note_on_c, 0, 63, 0
3, 1056, Note_on_c, 0, 55, 0
3, 1056, Note_on_c, 0, 60, 34
3, 1056, Note_on_c, 0, 63, 36
3, 1056, Note_on_c, 0, 67, 38
3, 1078, Note_on_c, 0, 67, 0
3, 1078, Note_on_c, 0, 63, 0
3, 1078, Note_on_c, 0, 60, 0
3, 1080, Note_on_c, 0, 45, 38
3, 1092, Note_on_c, 0, 45, 0
3, 1104, Note_on_c, 0, 54, 40
3, 1104, Note_on_c, 0, 63, 44
3, 1128, Note_on_c, 0, 63, 0
3, 1128, Note_on_c, 0, 54, 0
3, 1128, Note_on_c, 0, 60, 42
3, 1128, Note_on_c, 0, 63, 44
3, 1128, Note_on_c, 0, 66, 46
3, 1150, Note_on_c, 0, 66, 0
3, 1150, Note_on_c, 0, 63, 0
3, 1150, Note_on_c, 0, 60, 0
3, 1152, Note_on_c, 0, 46, 40
3, 1164, Note_on_c, 0, 46, 0
3, 1176, Note_on_c, 0, 53, 40
3, 1176, Note_on_c, 0, 63, 44
3, 1200, Note_on_c, 0, 63, 0
3, 1200, Note_on_c, 0, 53, 0
3, 1200, Note_on_c, 0, 58, 40
3, 1200, Note_on_c, 0, 63, 42
3, 1200, Note_on_c, 0, 68, 44
3, 1222, Note_on_c, 0, 68, 0
3, 1222, Note_on_c, 0, 63, 0
3, 1222, Note_on_c, 0, 58, 0
3, 1224, Note_on_c, 0, 34, 40
3, 1236, Note_on_c, 0, 34, 0
3, 1248, Note_on_c, 0, 53, 40
3, 1248, Note_on_c, 0, 62, 44
3, 1272, Note_on_c, 0, 62, 0
3, 1272, Note_on_c, 0, 53, 0
3, 1272, Note_on_c, 0, 58, 32
3, 1272, Note_on_c, 0, 68, 36
3, 1294, Note_on_c, 0, 68, 0
3, 1294, Note_on_c, 0, 58, 0
3, 1296, Note_on_c, 0, 39, 32
3, 1308, Note_on_c, 0, 39, 0
3, 1320, Note_on_c, 0, 55, 28
3, 1320, Note_on_c, 0, 63, 32
3, 1344, Note_on_c, 0, 63, 0
3, 1344, Note_on_c, 0, 55, 0
3, 1344, Note_on_c, 0, 58, 26
3, 1344, Note_on_c, 0, 63, 28
3, 1344, Note_on_c, 0, 67, 30
3, 1366, Note_on_c, 0, 67, 0
3, 1366, Note_on_c, 0, 63, 0
3, 1366, Note_on_c, 0, 58, 0
3, 1368, Note_on_c, 0, 51, 30
3, 1380, Note_on_c, 0, 51, 0
3, 1392, Note_on_c, 0, 55, 24
3, 1392, Note_on_c, 0, 63, 28
3, 1416, Note_on_c, 0, 63, 0
3, 1416, Note_on_c, 0, 55, 0
3, 1416, Note_on_c, 0, 58, 20
3, 1416, Note_on_c, 0, 63, 22
3, 1416, Note_on_c, 0, 67, 24
3, 1438, Note_on_c, 0, 67, 0
3, 1438, Note_on_c, 0, 63, 0
3, 1438, Note_on_c, 0, 58, 0
3, 1440, Note_on_c, 0, 51, 22
3, 1452, Note_on_c, 0, 51, 0
3, 1464, Note_on_c, 0, 55, 20
3, 1464, Note_on_c, 0, 63, 24
3, 1488, Note_on_c, 0, 63, 0
3, 1488, Note_on_c, 0, 55, 0
3, 1488, Note_on_c, 0, 58, 18
3, 1488, Note_on_c, 0, 63, 20
3, 1488, Note_on_c, 0, 67, 22
3, 1510, Note_on_c, 0, 67, 0
3, 1510, Note_on_c, 0, 63, 0
3, 1510, Note_on_c, 0, 58, 0
3, 1512, Note_on_c, 0, 51, 20
3, 1524, Note_on_c, 0, 51, 0
3, 1536, Note_on_c, 0, 56, 18
3, 1536, Note_on_c, 0, 62, 22
3, 1560, Note_on_c, 0, 62, 0
3, 1560, Note_on_c, 0, 56, 0
3, 1560, Note_on_c, 0, 59, 16
3, 1560, Note_on_c, 0, 62, 18
3, 1560, Note_on_c, 0, 68, 20
3, 1582, Note_on_c, 0, 68, 0
3, 1582, Note_on_c, 0, 62, 0
3, 1582, Note_on_c, 0, 59, 0
3, 1584, Note_on_c, 0, 51, 20
3, 1596, Note_on_c, 0, 51, 0
3, 1608, Note_on_c, 0, 55, 20
3, 1608, Note_on_c, 0, 63, 24
3, 1632, Note_on_c, 0, 63, 0
3, 1632, Note_on_c, 0, 55, 0
3, 1632, Note_on_c, 0, 58, 30
3, 1632, Note_on_c, 0, 63, 32
3, 1632, Note_on_c, 0, 67, 34
3, 1654, Note_on_c, 0, 67, 0
3, 1654, Note_on_c, 0, 63, 0
3, 1654, Note_on_c, 0, 58, 0
3, 1656, Note_on_c, 0, 50, 30
3, 1668, Note_on_c, 0, 50, 0
3, 1680, Note_on_c, 0, 55, 32
3, 1680, Note_on_c, 0, 63, 36
3, 1704, Note_on_c, 0, 63, 0
3, 1704, Note_on_c, 0, 55, 0
3, 1704, Note_on_c, 0, 58, 30
3, 1704, Note_on_c, 0, 63, 32
3, 1704, Note_on_c, 0, 67, 34
3, 1726, Note_on_c, 0, 67, 0
3, 1726, Note_on_c, 0, 63, 0
3, 1726, Note_on_c, 0, 58, 0
3, 1728, Note_on_c, 0, 48, 28
3, 1740, Note_on_c, 0, 48, 0
3, 1752, Note_on_c, 0, 55, 28
3, 1752, Note_on_c, 0, 64, 32
3, 1776, Note_on_c, 0, 64, 0
3, 1776, Note_on_c, 0, 55, 0
3, 1776, Note_on_c, 0, 58, 34
3, 1776, Note_on_c, 0, 64, 36
3, 1776, Note_on_c, 0, 67, 38
3, 1798, Note_on_c, 0, 67, 0
3, 1798, Note_on_c, 0, 64, 0
3, 1798, Note_on_c, 0, 58, 0
3, 1800, Note_on_c, 0, 48, 34
3, 1812, Note_on_c, 0, 48, 0
3, 1824, Note_on_c, 0, 55, 34
3, 1824, Note_on_c, 0, 64, 38
3, 1848, Note_on_c, 0, 64, 0
3, 1848, Note_on_c, 0, 55, 0
3, 1848, Note_on_c, 0, 60, 36
3, 1848, Note_on_c, 0, 64, 38
3, 1848, Note_on_c, 0, 70, 40
3, 1870, Note_on_c, 0, 70, 0
3, 1870, Note_on_c, 0, 64, 0
3, 1870, Note_on_c, 0, 60, 0
3, 1872, Note_on_c, 0, 41, 46
3, 1884, Note_on_c, 0, 41, 0
3, 1896, Note_on_c, 0, 53, 30
3, 1896, Note_on_c, 0, 61, 34
3, 1920, Note_on_c, 0, 61, 0
3, 1920, Note_on_c, 0, 53, 0
3, 1920, Note_on_c, 0, 58, 28
3, 1920, Note_on_c, 0, 61, 30
3, 1920, Note_on_c, 0, 64, 32
3, 1942, Note_on_c, 0, 64, 0
3, 1942, Note_on_c, 0, 61, 0
3, 1942, Note_on_c, 0, 58, 0
3, 1944, Note_on_c, 0, 41, 36
3, 1956, Note_on_c, 0, 41, 0
3, 1968, Note_on_c, 0, 53, 28
3, 1968, Note_on_c, 0, 60, 32
3, 1992, Note_on_c, 0, 60, 0
3, 1992, Note_on_c, 0, 53, 0
3, 1992, Note_on_c, 0, 56, 28
3, 1992, Note_on_c, 0, 60, 30
3, 1992, Note_on_c, 0, 65, 32
3, 2014, Note_on_c, 0, 65, 0
3, 2014, Note_on_c, 0, 60, 0
3, 2014, Note_on_c, 0, 56, 0
3, 2016, Note_on_c, 0, 46, 34
3, 2028, Note_on_c, 0, 46, 0
3, 2039, Note_on_c, 0, 53, 32
3, 2039, Note_on_c, 0, 62, 36
3, 2065, Note_on_c, 0, 62, 0
3, 2065, Note_on_c, 0, 53, 0
3, 2065, Note_on_c, 0, 58, 34
3, 2065, Note_on_c, 0, 62, 36
3, 2065, Note_on_c, 0, 68, 38
3, 2086, Note_on_c, 0, 68, 0
3, 2086, Note_on_c, 0, 62, 0
3, 2086, Note_on_c, 0, 58, 0
3, 2088, Note_on_c, 0, 47, 34
3, 2100, Note_on_c, 0, 47, 0
3, 2112, Note_on_c, 0, 55, 32
3, 2112, Note_on_c, 0, 65, 36
3, 2136, Note_on_c, 0, 65, 0
3, 2136, Note_on_c, 0, 55, 0
3, 2136, Note_on_c, 0, 62, 32
3, 2136, Note_on_c, 0, 65, 34
3, 2136, Note_on_c, 0, 67, 36
3, 2158, Note_on_c, 0, 67, 0
3, 2158, Note_on_c, 0, 65, 0
3, 2158, Note_on_c, 0, 62, 0
3, 2160, Note_on_c, 0, 48, 36
3, 2172, Note_on_c, 0, 48, 0
3, 2184, Note_on_c, 0, 55, 36
3, 2184, Note_on_c, 0, 63, 40
3, 2208, Note_on_c, 0, 63, 0
3, 2208, Note_on_c, 0, 55, 0
3, 2208, Note_on_c, 0, 60, 36
3, 2208, Note_on_c, 0, 63, 38
3, 2208, Note_on_c, 0, 67, 40
3, 2230, Note_on_c, 0, 67, 0
3, 2230, Note_on_c, 0, 63, 0
3, 2230, Note_on_c, 0, 60, 0
3, 2232, Note_on_c, 0, 45, 38
3, 2244, Note_on_c, 0, 45, 0
3, 2256, Note_on_c, 0, 54, 36
3, 2256, Note_on_c, 0, 63, 40
3, 2280, Note_on_c, 0, 63, 0
3, 2280, Note_on_c, 0, 54, 0
3, 2280, Note_on_c, 0, 60, 34
3, 2280, Note_on_c, 0, 63, 36
3, 2280, Note_on_c, 0, 66, 38
3, 2302, Note_on_c, 0, 66, 0
3, 2302, Note_on_c, 0, 63, 0
3, 2302, Note_on_c, 0, 60, 0
3, 2304, Note_on_c, 0, 46, 32
3, 2316, Note_on_c, 0, 46, 0
3, 2328, Note_on_c, 0, 53, 32
3, 2328, Note_on_c, 0, 63, 36
3, 2352, Note_on_c, 0, 63, 0
3, 2352, Note_on_c, 0, 53, 0
3, 2352, Note_on_c, 0, 58, 34
3, 2352, Note_on_c, 0, 63, 36
3, 2352, Note_on_c, 0, 68, 38
3, 2374, Note_on_c, 0, 68, 0
3, 2374, Note_on_c, 0, 63, 0
3, 2374, Note_on_c, 0, 58, 0
3, 2376, Note_on_c, 0, 34, 36
3, 2388, Note_on_c, 0, 34, 0
3, 2400, Note_on_c, 0, 53, 28
3, 2400, Note_on_c, 0, 62, 32
3, 2424, Note_on_c, 0, 62, 0
3, 2424, Note_on_c, 0, 53, 0
3, 2424, Note_on_c, 0, 58, 22
3, 2424, Note_on_c, 0, 68, 26
3, 2446, Note_on_c, 0, 68, 0
3, 2446, Note_on_c, 0, 58, 0
3, 2448, Note_on_c, 0, 39, 28
3, 2460, Note_on_c, 0, 39, 0
3, 2472, Note_on_c, 0, 55, 20
3, 2472, Note_on_c, 0, 63, 24
3, 2496, Note_on_c, 0, 63, 0
3, 2496, Note_on_c, 0, 55, 0
3, 2496, Note_on_c, 0, 58, 20
3, 2496, Note_on_c, 0, 63, 22
3, 2496, Note_on_c, 0, 67, 24
3, 2518, Note_on_c, 0, 67, 0
3, 2518, Note_on_c, 0, 63, 0
3, 2518, Note_on_c, 0, 58, 0
3, 2520, Note_on_c, 0, 51, 24
3, 2532, Note_on_c, 0, 51, 0
3, 2544, Note_on_c, 0, 55, 20
3, 2544, Note_on_c, 0, 63, 24
3, 2568, Note_on_c, 0, 63, 0
3, 2568, Note_on_c, 0, 55, 0
3, 2568, Note_on_c, 0, 58, 20
3, 2568, Note_on_c, 0, 63, 22
3, 2568, Note_on_c, 0, 67, 24
3, 2590, Note_on_c, 0, 67, 0
3, 2590, Note_on_c, 0, 63, 0
3, 2590, Note_on_c, 0, 58, 0
3, 2592, Note_on_c, 0, 46, 24
3, 2604, Note_on_c, 0, 46, 0
3, 2616, Note_on_c, 0, 53, 20
3, 2616, Note_on_c, 0, 62, 24
3, 2640, Note_on_c, 0, 62, 0
3, 2640, Note_on_c, 0, 53, 0
3, 2640, Note_on_c, 0, 58, 18
3, 2640, Note_on_c, 0, 62, 20
3, 2640, Note_on_c, 0, 65, 22
3, 2662, Note_on_c, 0, 65, 0
3, 2662, Note_on_c, 0, 62, 0
3, 2662, Note_on_c, 0, 58, 0
3, 2664, Note_on_c, 0, 46, 24
3, 2676, Note_on_c, 0, 46, 0
3, 2688, Note_on_c, 0, 53, 20
3, 2688, Note_on_c, 0, 62, 24
3, 2712, Note_on_c, 0, 62, 0
3, 2712, Note_on_c, 0, 53, 0
3, 2712, Note_on_c, 0, 58, 18
3, 2712, Note_on_c, 0, 62, 20
3, 2712, Note_on_c, 0, 65, 22
3, 2734, Note_on_c, 0, 65, 0
3, 2734, Note_on_c, 0, 62, 0
3, 2734, Note_on_c, 0, 58, 0
3, 2736, Note_on_c, 0, 45, 20
3, 2748, Note_on_c, 0, 45, 0
3, 2760, Note_on_c, 0, 53, 18
3, 2760, Note_on_c, 0, 60, 22
3, 2784, Note_on_c, 0, 60, 0
3, 2784, Note_on_c, 0, 53, 0
3, 2784, Note_on_c, 0, 60, 16
3, 2784, Note_on_c, 0, 65, 20
3, 2806, Note_on_c, 0, 65, 0
3, 2806, Note_on_c, 0, 60, 0
3, 2808, Note_on_c, 0, 45, 20
3, 2820, Note_on_c, 0, 45, 0
3, 2832, Note_on_c, 0, 53, 18
3, 2832, Note_on_c, 0, 60, 22
3, 2856, Note_on_c, 0, 60, 0
3, 2856, Note_on_c, 0, 53, 0
3, 2856, Note_on_c, 0, 60, 16
3, 2856, Note_on_c, 0, 65, 20
3, 2878, Note_on_c, 0, 65, 0
3, 2878, Note_on_c, 0, 60, 0
3, 2880, Note_on_c, 0, 44, 26
3, 2902, Note_on_c, 0, 44, 0
3, 2904, Note_on_c, 0, 51, 24
3, 2904, Note_on_c, 0, 60, 28
3, 2926, Note_on_c, 0, 60, 0
3, 2926, Note_on_c, 0, 51, 0
3, 2928, Note_on_c, 0, 56, 30
3, 2928, Note_on_c, 0, 60, 32
3, 2928, Note_on_c, 0, 63, 34
3, 2950, Note_on_c, 0, 63, 0
3, 2950, Note_on_c, 0, 60, 0
3, 2950, Note_on_c, 0, 56, 0
3, 2952, Note_on_c, 0, 32, 36
3, 2974, Note_on_c, 0, 32, 0
3, 2976, Note_on_c, 0, 51, 30
3, 2976, Note_on_c, 0, 59, 34
3, 2998, Note_on_c, 0, 59, 0
3, 2998, Note_on_c, 0, 51, 0
3, 3000, Note_on_c, 0, 56, 28
3, 3000, Note_on_c, 0, 59, 30
3, 3000, Note_on_c, 0, 63, 32
3, 3022, Note_on_c, 0, 63, 0
3, 3022, Note_on_c, 0, 59, 0
3, 3022, Note_on_c, 0, 56, 0
3, 3024, Note_on_c, 0, 39, 26
3, 3036, Note_on_c, 0, 39, 0
3, 3048, Note_on_c, 0, 55, 24
3, 3048, Note_on_c, 0, 63, 28
3, 3072, Note_on_c, 0, 63, 0
3, 3072, Note_on_c, 0, 55, 0
3, 3072, Note_on_c, 0, 58, 26
3, 3072, Note_on_c, 0, 63, 28
3, 3072, Note_on_c, 0, 67, 30
3, 3094, Note_on_c, 0, 67, 0
3, 3094, Note_on_c, 0, 63, 0
3, 3094, Note_on_c, 0, 58, 0
3, 3096, Note_on_c, 0, 51, 32
3, 3108, Note_on_c, 0, 51, 0
3, 3120, Note_on_c, 0, 55, 36
3, 3120, Note_on_c, 0, 63, 40
3, 3144, Note_on_c, 0, 63, 0
3, 3144, Note_on_c, 0, 55, 0
3, 3144, Note_on_c, 0, 58, 42
3, 3144, Note_on_c, 0, 63, 44
3, 3144, Note_on_c, 0, 67, 46
3, 3166, Note_on_c, 0, 67, 0
3, 3166, Note_on_c, 0, 63, 0
3, 3166, Note_on_c, 0, 58, 0
3, 3168, Note_on_c, 0, 40, 40
3, 3190, Note_on_c, 0, 40, 0
3, 3192, Note_on_c, 0, 52, 34
3, 3192, Note_on_c, 0, 61, 38
3, 3214, Note_on_c, 0, 61, 0
3, 3214, Note_on_c, 0, 52, 0
3, 3216, Note_on_c, 0, 58, 36
3, 3216, Note_on_c, 0, 61, 38
3, 3216, Note_on_c, 0, 67, 40
3, 3238, Note_on_c, 0, 67, 0
3, 3238, Note_on_c, 0, 61, 0
3, 3238, Note_on_c, 0, 58, 0
3, 3240, Note_on_c, 0, 40, 42
3, 3262, Note_on_c, 0, 40, 0
3, 3264, Note_on_c, 0, 52, 34
3, 3264, Note_on_c, 0, 60, 38
3, 3286, Note_on_c, 0, 60, 0
3, 3286, Note_on_c, 0, 52, 0
3, 3288, Note_on_c, 0, 58, 34
3, 3288, Note_on_c, 0, 60, 36
3, 3288, Note_on_c, 0, 67, 38
3, 3310, Note_on_c, 0, 67, 0
3, 3310, Note_on_c, 0, 60, 0
3, 3310, Note_on_c, 0, 58, 0
3, 3312, Note_on_c, 0, 41, 40
3, 3334, Note_on_c, 0, 41, 0
3, 3336, Note_on_c, 0, 53, 34
3, 3336, Note_on_c, 0, 63, 38
3, 3358, Note_on_c, 0, 63, 0
3, 3358, Note_on_c, 0, 53, 0
3, 3360, Note_on_c, 0, 60, 34
3, 3360, Note_on_c, 0, 63, 36
3, 3360, Note_on_c, 0, 69, 38
3, 3382, Note_on_c, 0, 69, 0
3, 3382, Note_on_c, 0, 63, 0
3, 3382, Note_on_c, 0, 60, 0
3, 3384, Note_on_c, 0, 43, 44
3, 3406, Note_on_c, 0, 43, 0
3, 3408, Note_on_c, 0, 55, 38
3, 3408, Note_on_c, 0, 62, 42
3, 3430, Note_on_c, 0, 62, 0
3, 3430, Note_on_c, 0, 55, 0
3, 3432, Note_on_c, 0, 58, 42
3, 3432, Note_on_c, 0, 62, 44
3, 3432, Note_on_c, 0, 70, 60
3, 3454, Note_on_c, 0, 70, 0
3, 3454, Note_on_c, 0, 62, 0
3, 3454, Note_on_c, 0, 58, 0
3, 3456, Note_on_c, 0, 36, 40
3, 3478, Note_on_c, 0, 36, 0
3, 3480, Note_on_c, 0, 55, 36
3, 3480, Note_on_c, 0, 63, 40
3, 3502, Note_on_c, 0, 63, 0
3, 3502, Note_on_c, 0, 55, 0
3, 3504, Note_on_c, 0, 60, 34
3, 3504, Note_on_c, 0, 63, 36
3, 3504, Note_on_c, 0, 67, 38
3, 3526, Note_on_c, 0, 67, 0
3, 3526, Note_on_c, 0, 63, 0
3, 3526, Note_on_c, 0, 60, 0
3, 3528, Note_on_c, 0, 41, 40
3, 3540, Note_on_c, 0, 41, 0
3, 3552, Note_on_c, 0, 53, 40
3, 3552, Note_on_c, 0, 63, 44
3, 3564, Note_on_c, 0, 63, 0
3, 3564, Note_on_c, 0, 53, 0
3, 3576, Note_on_c, 0, 60, 42
3, 3576, Note_on_c, 0, 63, 44
3, 3576, Note_on_c, 0, 65, 46
3, 3588, Note_on_c, 0, 65, 0
3, 3588, Note_on_c, 0, 63, 0
3, 3588, Note_on_c, 0, 60, 0
3, 3600, Note_on_c, 0, 58, 36
3, 3600, Note_on_c, 0, 62, 40
3, 3612, Note_on_c, 0, 62, 0
3, 3612, Note_on_c, 0, 58, 0
3, 3624, Note_on_c, 0, 57, 26
3, 3624, Note_on_c, 0, 63, 30
3, 3636, Note_on_c, 0, 63, 0
3, 3636, Note_on_c, 0, 57, 0
3, 3648, Note_on_c, 0, 56, 44
3, 3660, Note_on_c, 0, 56, 0
3, 3672, Note_on_c, 0, 55, 50
3, 3684, Note_on_c, 0, 55, 0
3, 3696, Note_on_c, 0, 53, 44
3, 3696, Note_on_c, 0, 60, 48
3, 3696, Note_on_c, 0, 63, 52
3, 3708, Note_on_c, 0, 63, 0
3, 3708, Note_on_c, 0, 60, 0
3, 3708, Note_on_c, 0, 53, 0
3, 3720, Note_on_c, 0, 58, 52
3, 3720, Note_on_c, 0, 65, 56
3, 3732, Note_on_c, 0, 65, 0
3, 3732, Note_on_c, 0, 58, 0
3, 3744, Note_on_c, 0, 39, 44
3, 3766, Note_on_c, 0, 39, 0
3, 3768, Note_on_c, 0, 55, 26
3, 3768, Note_on_c, 0, 63, 30
3, 3792, Note_on_c, 0, 63, 0
3, 3792, Note_on_c, 0, 55, 0
3, 3792, Note_on_c, 0, 58, 24
3, 3792, Note_on_c, 0, 63, 26
3, 3792, Note_on_c, 0, 67, 28
3, 3814, Note_on_c, 0, 67, 0
3, 3814, Note_on_c, 0, 63, 0
3, 3814, Note_on_c, 0, 58, 0
3, 3816, Note_on_c, 0, 51, 26
3, 3828, Note_on_c, 0, 51, 0
3, 3840, Note_on_c, 0, 56, 24
3, 3840, Note_on_c, 0, 62, 28
3, 3864, Note_on_c, 0, 62, 0
3, 3864, Note_on_c, 0, 56, 0
3, 3864, Note_on_c, 0, 58, 20
3, 3864, Note_on_c, 0, 62, 22
3, 3864, Note_on_c, 0, 68, 24
3, 3886, Note_on_c, 0, 68, 0
3, 3886, Note_on_c, 0, 62, 0
3, 3886, Note_on_c, 0, 58, 0
3, 3888, Note_on_c, 0, 51, 25
3, 3900, Note_on_c, 0, 51, 0
3, 3912, Note_on_c, 0, 55, 24
3, 3912, Note_on_c, 0, 63, 28
3, 3936, Note_on_c, 0, 63, 0
3, 3936, Note_on_c, 0, 55, 0
3, 3936, Note_on_c, 0, 58, 22
3, 3936, Note_on_c, 0, 63, 24
3, 3936, Note_on_c, 0, 67, 26
3, 3958, Note_on_c, 0, 67, 0
3, 3958, Note_on_c, 0, 63, 0
3, 3958, Note_on_c, 0, 58, 0
3, 3960, Note_on_c, 0, 50, 34
3, 3972, Note_on_c, 0, 50, 0
3, 3984, Note_on_c, 0, 55, 34
3, 3984, Note_on_c, 0, 63, 38
3, 4008, Note_on_c, 0, 63, 0
3, 4008, Note_on_c, 0, 55, 0
3, 4008, Note_on_c, 0, 58, 34
3, 4008, Note_on_c, 0, 63, 36
3, 4008, Note_on_c, 0, 67, 38
3, 4030, Note_on_c, 0, 67, 0
3, 4030, Note_on_c, 0, 63, 0
3, 4030, Note_on_c, 0, 58, 0
3, 4032, Note_on_c, 0, 48, 28
3, 4044, Note_on_c, 0, 48, 0
3, 4056, Note_on_c, 0, 55, 28
3, 4056, Note_on_c, 0, 64, 32
3, 4080, Note_on_c, 0, 64, 0
3, 4080, Note_on_c, 0, 55, 0
3, 4080, Note_on_c, 0, 58, 34
3, 4080, Note_on_c, 0, 64, 36
3, 4080, Note_on_c, 0, 67, 38
3, 4102, Note_on_c, 0, 67, 0
3, 4102, Note_on_c, 0, 64, 0
3, 4102, Note_on_c, 0, 58, 0
3, 4104, Note_on_c, 0, 48, 34
3, 4116, Note_on_c, 0, 48, 0
3, 4128, Note_on_c, 0, 55, 34
3, 4128, Note_on_c, 0, 64, 38
3, 4152, Note_on_c, 0, 64, 0
3, 4152, Note_on_c, 0, 55, 0
3, 4152, Note_on_c, 0, 60, 36
3, 4152, Note_on_c, 0, 64, 38
3, 4152, Note_on_c, 0, 70, 40
3, 4174, Note_on_c, 0, 70, 0
3, 4174, Note_on_c, 0, 64, 0
3, 4174, Note_on_c, 0, 60, 0
3, 4176, Note_on_c, 0, 41, 46
3, 4188, Note_on_c, 0, 41, 0
3, 4200, Note_on_c, 0, 53, 30
3, 4200, Note_on_c, 0, 61, 34
3, 4224, Note_on_c, 0, 61, 0
3, 4224, Note_on_c, 0, 53, 0
3, 4224, Note_on_c, 0, 58, 28
3, 4224, Note_on_c, 0, 61, 30
3, 4224, Note_on_c, 0, 64, 32
3, 4246, Note_on_c, 0, 64, 0
3, 4246, Note_on_c, 0, 61, 0
3, 4246, Note_on_c, 0, 58, 0
3, 4248, Note_on_c, 0, 41, 36
3, 4260, Note_on_c, 0, 41, 0
3, 4272, Note_on_c, 0, 53, 28
3, 4272, Note_on_c, 0, 60, 32
3, 4296, Note_on_c, 0, 60, 0
3, 4296, Note_on_c, 0, 53, 0
3, 4296, Note_on_c, 0, 56, 28
3, 4296, Note_on_c, 0, 60, 30
3, 4296, Note_on_c, 0, 65, 32
3, 4318, Note_on_c, 0, 65, 0
3, 4318, Note_on_c, 0, 60, 0
3, 4318, Note_on_c, 0, 56, 0
3, 4320, Note_on_c, 0, 46, 30
3, 4332, Note_on_c, 0, 46, 0
3, 4343, Note_on_c, 0, 53, 28
3, 4343, Note_on_c, 0, 62, 32
3, 4368, Note_on_c, 0, 62, 0
3, 4368, Note_on_c, 0, 53, 0
3, 4368, Note_on_c, 0, 58, 30
3, 4368, Note_on_c, 0, 62, 32
3, 4368, Note_on_c, 0, 68, 34
3, 4390, Note_on_c, 0, 68, 0
3, 4390, Note_on_c, 0, 62, 0
3, 4390, Note_on_c, 0, 58, 0
3, 4392, Note_on_c, 0, 47, 30
3, 4404, Note_on_c, 0, 47, 0
3, 4416, Note_on_c, 0, 55, 28
3, 4416, Note_on_c, 0, 65, 32
3, 4440, Note_on_c, 0, 65, 0
3, 4440, Note_on_c, 0, 55, 0
3, 4440, Note_on_c, 0, 62, 28
3, 4440, Note_on_c, 0, 65, 30
3, 4440, Note_on_c, 0, 67, 32
3, 4462, Note_on_c, 0, 67, 0
3, 4462, Note_on_c, 0, 65, 0
3, 4462, Note_on_c, 0, 62, 0
3, 4464, Note_on_c, 0, 48, 34
3, 4476, Note_on_c, 0, 48, 0
3, 4488, Note_on_c, 0, 55, 34
3, 4488, Note_on_c, 0, 63, 38
3, 4512, Note_on_c, 0, 63, 0
3, 4512, Note_on_c, 0, 55, 0
3, 4512, Note_on_c, 0, 60, 34
3, 4512, Note_on_c, 0, 63, 36
3, 4512, Note_on_c, 0, 67, 38
3, 4534, Note_on_c, 0, 67, 0
3, 4534, Note_on_c, 0, 63, 0
3, 4534, Note_on_c, 0, 60, 0
3, 4536, Note_on_c, 0, 45, 40
3, 4548, Note_on_c, 0, 45, 0
3, 4560, Note_on_c, 0, 54, 38
3, 4560, Note_on_c, 0, 63, 42
3, 4584, Note_on_c, 0, 63, 0
3, 4584, Note_on_c, 0, 54, 0
3, 4584, Note_on_c, 0, 60, 42
3, 4584, Note_on_c, 0, 63, 44
3, 4584, Note_on_c, 0, 66, 46
3, 4606, Note_on_c, 0, 66, 0
3, 4606, Note_on_c, 0, 63, 0
3, 4606, Note_on_c, 0, 60, 0
3, 4608, Note_on_c, 0, 46, 34
3, 4620, Note_on_c, 0, 46, 0
3, 4632, Note_on_c, 0, 53, 34
3, 4632, Note_on_c, 0, 63, 38
3, 4656, Note_on_c, 0, 63, 0
3, 4656, Note_on_c, 0, 53, 0
3, 4656, Note_on_c, 0, 58, 36
3, 4656, Note_on_c, 0, 63, 38
3, 4656, Note_on_c, 0, 68, 40
3, 4678, Note_on_c, 0, 68, 0
3, 4678, Note_on_c, 0, 63, 0
3, 4678, Note_on_c, 0, 58, 0
3, 4680, Note_on_c, 0, 34, 42
3, 4692, Note_on_c, 0, 34, 0
3, 4704, Note_on_c, 0, 53, 32
3, 4704, Note_on_c, 0, 62, 36
3, 4728, Note_on_c, 0, 62, 0
3, 4728, Note_on_c, 0, 53, 0
3, 4728, Note_on_c, 0, 58, 26
3, 4728, Note_on_c, 0, 68, 30
3, 4750, Note_on_c, 0, 68, 0
3, 4750, Note_on_c, 0, 58, 0
3, 4752, Note_on_c, 0, 39, 30
3, 4764, Note_on_c, 0, 39, 0
3, 4776, Note_on_c, 0, 55, 20
3, 4776, Note_on_c, 0, 63, 24
3, 4800, Note_on_c, 0, 63, 0
3, 4800, Note_on_c, 0, 55, 0
3, 4800, Note_on_c, 0, 58, 20
3, 4800, Note_on_c, 0, 63, 22
3, 4800, Note_on_c, 0, 67, 24
3, 4822, Note_on_c, 0, 67, 0
3, 4822, Note_on_c, 0, 63, 0
3, 4822, Note_on_c, 0, 58, 0
3, 4824, Note_on_c, 0, 51, 24
3, 4836, Note_on_c, 0, 51, 0
3, 4848, Note_on_c, 0, 55, 20
3, 4848, Note_on_c, 0, 63, 24
3, 4872, Note_on_c, 0, 63, 0
3, 4872, Note_on_c, 0, 55, 0
3, 4872, Note_on_c, 0, 58, 20
3, 4872, Note_on_c, 0, 63, 22
3, 4872, Note_on_c, 0, 67, 24
3, 4894, Note_on_c, 0, 67, 0
3, 4894, Note_on_c, 0, 63, 0
3, 4894, Note_on_c, 0, 58, 0
3, 4896, Note_on_c, 0, 46, 24
3, 4908, Note_on_c, 0, 46, 0
3, 4920, Note_on_c, 0, 53, 20
3, 4920, Note_on_c, 0, 62, 24
3, 4944, Note_on_c, 0, 62, 0
3, 4944, Note_on_c, 0, 53, 0
3, 4944, Note_on_c, 0, 58, 16
3, 4944, Note_on_c, 0, 62, 21
3, 4944, Note_on_c, 0, 65, 23
3, 4966, Note_on_c, 0, 65, 0
3, 4966, Note_on_c, 0, 62, 0
3, 4966, Note_on_c, 0, 58, 0
3, 4968, Note_on_c, 0, 46, 27
3, 4980, Note_on_c, 0, 46, 0
3, 4992, Note_on_c, 0, 53, 24
3, 4992, Note_on_c, 0, 62, 28
3, 5016, Note_on_c, 0, 62, 0
3, 5016, Note_on_c, 0, 53, 0
3, 5016, Note_on_c, 0, 58, 22
3, 5016, Note_on_c, 0, 62, 24
3, 5016, Note_on_c, 0, 65, 26
3, 5038, Note_on_c, 0, 65, 0
3, 5038, Note_on_c, 0, 62, 0
3, 5038, Note_on_c, 0, 58, 0
3, 5040, Note_on_c, 0, 45, 27
3, 5052, Note_on_c, 0, 45, 0
3, 5064, Note_on_c, 0, 53, 25
3, 5064, Note_on_c, 0, 60, 29
3, 5088, Note_on_c, 0, 60, 0
3, 5088, Note_on_c, 0, 53, 0
3, 5088, Note_on_c, 0, 60, 24
3, 5088, Note_on_c, 0, 65, 28
3, 5110, Note_on_c, 0, 65, 0
3, 5110, Note_on_c, 0, 60, 0
3, 5112, Note_on_c, 0, 45, 30
3, 5124, Note_on_c, 0, 45, 0
3, 5136, Note_on_c, 0, 53, 26
3, 5136, Note_on_c, 0, 60, 30
3, 5160, Note_on_c, 0, 60, 0
3, 5160, Note_on_c, 0, 53, 0
3, 5160, Note_on_c, 0, 60, 30
3, 5160, Note_on_c, 0, 65, 34
3, 5182, Note_on_c, 0, 65, 0
3, 5182, Note_on_c, 0, 60, 0
3, 5184, Note_on_c, 0, 44, 26
3, 5206, Note_on_c, 0, 44, 0
3, 5208, Note_on_c, 0, 51, 24
3, 5208, Note_on_c, 0, 60, 28
3, 5230, Note_on_c, 0, 60, 0
3, 5230, Note_on_c, 0, 51, 0
3, 5232, Note_on_c, 0, 56, 30
3, 5232, Note_on_c, 0, 60, 32
3, 5232, Note_on_c, 0, 63, 34
3, 5254, Note_on_c, 0, 63, 0
3, 5254, Note_on_c, 0, 60, 0
3, 5254, Note_on_c, 0, 56, 0
3, 5256, Note_on_c, 0, 32, 36
3, 5278, Note_on_c, 0, 32, 0
3, 5280, Note_on_c, 0, 51, 30
3, 5280, Note_on_c, 0, 59, 34
3, 5302, Note_on_c, 0, 59, 0
3, 5302, Note_on_c, 0, 51, 0
3, 5304, Note_on_c, 0, 56, 28
3, 5304, Note_on_c, 0, 59, 30
3, 5304, Note_on_c, 0, 63, 32
3, 5326, Note_on_c, 0, 63, 0
3, 5326, Note_on_c, 0, 59, 0
3, 5326, Note_on_c, 0, 56, 0
3, 5328, Note_on_c, 0, 39, 26
3, 5340, Note_on_c, 0, 39, 0
3, 5352, Note_on_c, 0, 55, 24
3, 5352, Note_on_c, 0, 63, 28
3, 5376, Note_on_c, 0, 63, 0
3, 5376, Note_on_c, 0, 55, 0
3, 5376, Note_on_c, 0, 58, 26
3, 5376, Note_on_c, 0, 63, 28
3, 5376, Note_on_c, 0, 67, 30
3, 5398, Note_on_c, 0, 67, 0
3, 5398, Note_on_c, 0, 63, 0
3, 5398, Note_on_c, 0, 58, 0
3, 5400, Note_on_c, 0, 51, 32
3, 5412, Note_on_c, 0, 51, 0
3, 5424, Note_on_c, 0, 55, 36
3, 5424, Note_on_c, 0, 63, 40
3, 5448, Note_on_c, 0, 63, 0
3, 5448, Note_on_c, 0, 55, 0
3, 5448, Note_on_c, 0, 58, 42
3, 5448, Note_on_c, 0, 63, 44
3, 5448, Note_on_c, 0, 67, 46
3, 5470, Note_on_c, 0, 67, 0
3, 5470, Note_on_c, 0, 63, 0
3, 5470, Note_on_c, 0, 58, 0
3, 5472, Note_on_c, 0, 40, 42
3, 5494, Note_on_c, 0, 40, 0
3, 5496, Note_on_c, 0, 52, 34
3, 5496, Note_on_c, 0, 61, 38
3, 5518, Note_on_c, 0, 61, 0
3, 5518, Note_on_c, 0, 52, 0
3, 5520, Note_on_c, 0, 58, 36
3, 5520, Note_on_c, 0, 61, 38
3, 5520, Note_on_c, 0, 67, 40
3, 5542, Note_on_c, 0, 67, 0
3, 5542, Note_on_c, 0, 61, 0
3, 5542, Note_on_c, 0, 58, 0
3, 5544, Note_on_c, 0, 40, 42
3, 5566, Note_on_c, 0, 40, 0
3, 5568, Note_on_c, 0, 52, 34
3, 5568, Note_on_c, 0, 60, 38
3, 5590, Note_on_c, 0, 60, 0
3, 5590, Note_on_c, 0, 52, 0
3, 5592, Note_on_c, 0, 58, 34
3, 5592, Note_on_c, 0, 60, 36
3, 5592, Note_on_c, 0, 67, 38
3, 5614, Note_on_c, 0, 67, 0
3, 5614, Note_on_c, 0, 60, 0
3, 5614, Note_on_c, 0, 58, 0
3, 5616, Note_on_c, 0, 41, 40
3, 5638, Note_on_c, 0, 41, 0
3, 5640, Note_on_c, 0, 53, 34
3, 5640, Note_on_c, 0, 63, 38
3, 5662, Note_on_c, 0, 63, 0
3, 5662, Note_on_c, 0, 53, 0
3, 5664, Note_on_c, 0, 60, 34
3, 5664, Note_on_c, 0, 63, 36
3, 5664, Note_on_c, 0, 69, 38
3, 5686, Note_on_c, 0, 69, 0
3, 5686, Note_on_c, 0, 63, 0
3, 5686, Note_on_c, 0, 60, 0
3, 5688, Note_on_c, 0, 43, 40
3, 5710, Note_on_c, 0, 43, 0
3, 5712, Note_on_c, 0, 55, 38
3, 5712, Note_on_c, 0, 62, 42
3, 5734, Note_on_c, 0, 62, 0
3, 5734, Note_on_c, 0, 55, 0
3, 5736, Note_on_c, 0, 58, 42
3, 5736, Note_on_c, 0, 62, 44
3, 5736, Note_on_c, 0, 70, 60
3, 5758, Note_on_c, 0, 70, 0
3, 5758, Note_on_c, 0, 62, 0
3, 5758, Note_on_c, 0, 58, 0
3, 5760, Note_on_c, 0, 36, 40
3, 5782, Note_on_c, 0, 36, 0
3, 5784, Note_on_c, 0, 55, 34
3, 5784, Note_on_c, 0, 63, 38
3, 5806, Note_on_c, 0, 63, 0
3, 5806, Note_on_c, 0, 55, 0
3, 5808, Note_on_c, 0, 60, 24
3, 5808, Note_on_c, 0, 63, 26
3, 5808, Note_on_c, 0, 67, 28
3, 5830, Note_on_c, 0, 67, 0
3, 5830, Note_on_c, 0, 63, 0
3, 5830, Note_on_c, 0, 60, 0
3, 5832, Note_on_c, 0, 41, 38
3, 5844, Note_on_c, 0, 41, 0
3, 5856, Note_on_c, 0, 53, 36
3, 5856, Note_on_c, 0, 63, 40
3, 5868, Note_on_c, 0, 63, 0
3, 5868, Note_on_c, 0, 53, 0
3, 5880, Note_on_c, 0, 60, 38
3, 5880, Note_on_c, 0, 63, 40
3, 5880, Note_on_c, 0, 65, 42
3, 5892, Note_on_c, 0, 65, 0
3, 5892, Note_on_c, 0, 63, 0
3, 5892, Note_on_c, 0, 60, 0
3, 5904, Note_on_c, 0, 58, 36
3, 5904, Note_on_c, 0, 62, 40
3, 5916, Note_on_c, 0, 62, 0
3, 5916, Note_on_c, 0, 58, 0
3, 5928, Note_on_c, 0, 57, 26
3, 5928, Note_on_c, 0, 63, 30
3, 5940, Note_on_c, 0, 63, 0
3, 5940, Note_on_c, 0, 57, 0
3, 5952, Note_on_c, 0, 56, 44
3, 5964, Note_on_c, 0, 56, 0
3, 5976, Note_on_c, 0, 55, 50
3, 5988, Note_on_c, 0, 55, 0
3, 6000, Note_on_c, 0, 53, 46
3, 6000, Note_on_c, 0, 60, 50
3, 6000, Note_on_c, 0, 63, 54
3, 6012, Note_on_c, 0, 63, 0
3, 6012, Note_on_c, 0, 60, 0
3, 6012, Note_on_c, 0, 53, 0
3, 6024, Note_on_c, 0, 58, 56
3, 6024, Note_on_c, 0, 65, 60
3, 6036, Note_on_c, 0, 65, 0
3, 6036, Note_on_c, 0, 58, 0
3, 6048, Note_on_c, 0, 39, 44
3, 6060, Note_on_c, 0, 39, 0
3, 6072, Note_on_c, 0, 55, 26
3, 6072, Note_on_c, 0, 63, 30
3, 6096, Note_on_c, 0, 63, 0
3, 6096, Note_on_c, 0, 55, 0
3, 6096, Note_on_c, 0, 58, 24
3, 6096, Note_on_c, 0, 63, 26
3, 6096, Note_on_c, 0, 67, 28
3, 6118, Note_on_c, 0, 67, 0
3, 6118, Note_on_c, 0, 63, 0
3, 6118, Note_on_c, 0, 58, 0
3, 6120, Note_on_c, 0, 51, 26
3, 6132, Note_on_c, 0, 51, 0
3, 6144, Note_on_c, 0, 56, 22
3, 6144, Note_on_c, 0, 62, 26
3, 6168, Note_on_c, 0, 62, 0
3, 6168, Note_on_c, 0, 56, 0
3, 6168, Note_on_c, 0, 58, 20
3, 6168, Note_on_c, 0, 62, 22
3, 6168, Note_on_c, 0, 68, 24
3, 6190, Note_on_c, 0, 68, 0
3, 6190, Note_on_c, 0, 62, 0
3, 6190, Note_on_c, 0, 58, 0
3, 6192, Note_on_c, 0, 51, 25
3, 6204, Note_on_c, 0, 51, 0
3, 6216, Note_on_c, 0, 55, 26
3, 6216, Note_on_c, 0, 63, 28
3, 6240, Note_on_c, 0, 63, 0
3, 6240, Note_on_c, 0, 55, 0
3, 6240, Note_on_c, 0, 58, 22
3, 6240, Note_on_c, 0, 63, 24
3, 6240, Note_on_c, 0, 67, 26
3, 6262, Note_on_c, 0, 67, 0
3, 6262, Note_on_c, 0, 63, 0
3, 6262, Note_on_c, 0, 58, 0
3, 6264, Note_on_c, 0, 50, 34
3, 6276, Note_on_c, 0, 50, 0
3, 6288, Note_on_c, 0, 55, 34
3, 6288, Note_on_c, 0, 63, 38
3, 6312, Note_on_c, 0, 63, 0
3, 6312, Note_on_c, 0, 55, 0
3, 6312, Note_on_c, 0, 58, 34
3, 6312, Note_on_c, 0, 63, 36
3, 6312, Note_on_c, 0, 67, 38
3, 6334, Note_on_c, 0, 67, 0
3, 6334, Note_on_c, 0, 63, 0
3, 6334, Note_on_c, 0, 58, 0
3, 6336, Note_on_c, 0, 48, 28
3, 6348, Note_on_c, 0, 48, 0
3, 6360, Note_on_c, 0, 55, 28
3, 6360, Note_on_c, 0, 64, 32
3, 6384, Note_on_c, 0, 64, 0
3, 6384, Note_on_c, 0, 55, 0
3, 6384, Note_on_c, 0, 58, 34
3, 6384, Note_on_c, 0, 64, 36
3, 6384, Note_on_c, 0, 67, 38
3, 6406, Note_on_c, 0, 67, 0
3, 6406, Note_on_c, 0, 64, 0
3, 6406, Note_on_c, 0, 58, 0
3, 6408, Note_on_c, 0, 48, 34
3, 6420, Note_on_c, 0, 48, 0
3, 6432, Note_on_c, 0, 55, 32
3, 6432, Note_on_c, 0, 64, 36
3, 6456, Note_on_c, 0, 64, 0
3, 6456, Note_on_c, 0, 55, 0
3, 6456, Note_on_c, 0, 60, 26
3, 6456, Note_on_c, 0, 64, 28
3, 6456, Note_on_c, 0, 70, 30
3, 6478, Note_on_c, 0, 70, 0
3, 6478, Note_on_c, 0, 64, 0
3, 6478, Note_on_c, 0, 60, 0
3, 6480, Note_on_c, 0, 41, 36
3, 6502, Note_on_c, 0, 41, 0
3, 6504, Note_on_c, 0, 53, 30
3, 6504, Note_on_c, 0, 61, 34
3, 6526, Note_on_c, 0, 61, 0
3, 6526, Note_on_c, 0, 53, 0
3, 6528, Note_on_c, 0, 58, 28
3, 6528, Note_on_c, 0, 61, 30
3, 6528, Note_on_c, 0, 64, 32
3, 6550, Note_on_c, 0, 64, 0
3, 6550, Note_on_c, 0, 61, 0
3, 6550, Note_on_c, 0, 58, 0
3, 6552, Note_on_c, 0, 41, 36
3, 6574, Note_on_c, 0, 41, 0
3, 6576, Note_on_c, 0, 53, 28
3, 6576, Note_on_c, 0, 60, 32
3, 6598, Note_on_c, 0, 60, 0
3, 6598, Note_on_c, 0, 53, 0
3, 6600, Note_on_c, 0, 56, 28
3, 6600, Note_on_c, 0, 60, 30
3, 6600, Note_on_c, 0, 65, 32
3, 6622, Note_on_c, 0, 65, 0
3, 6622, Note_on_c, 0, 60, 0
3, 6622, Note_on_c, 0, 56, 0
3, 6624, Note_on_c, 0, 46, 30
3, 6645, Note_on_c, 0, 46, 0
3, 6647, Note_on_c, 0, 53, 28
3, 6647, Note_on_c, 0, 62, 32
3, 6670, Note_on_c, 0, 62, 0
3, 6670, Note_on_c, 0, 53, 0
3, 6672, Note_on_c, 0, 58, 30
3, 6672, Note_on_c, 0, 62, 32
3, 6672, Note_on_c, 0, 68, 34
3, 6694, Note_on_c, 0, 68, 0
3, 6694, Note_on_c, 0, 62, 0
3, 6694, Note_on_c, 0, 58, 0
3, 6696, Note_on_c, 0, 47, 30
3, 6718, Note_on_c, 0, 47, 0
3, 6720, Note_on_c, 0, 55, 28
3, 6720, Note_on_c, 0, 65, 32
3, 6742, Note_on_c, 0, 65, 0
3, 6742, Note_on_c, 0, 55, 0
3, 6744, Note_on_c, 0, 62, 28
3, 6744, Note_on_c, 0, 65, 30
3, 6744, Note_on_c, 0, 67, 32
3, 6766, Note_on_c, 0, 67, 0
3, 6766, Note_on_c, 0, 65, 0
3, 6766, Note_on_c, 0, 62, 0
3, 6768, Note_on_c, 0, 48, 34
3, 6790, Note_on_c, 0, 48, 0
3, 6792, Note_on_c, 0, 55, 34
3, 6792, Note_on_c, 0, 63, 38
3, 6814, Note_on_c, 0, 63, 0
3, 6814, Note_on_c, 0, 55, 0
3, 6816, Note_on_c, 0, 60, 34
3, 6816, Note_on_c, 0, 63, 36
3, 6816, Note_on_c, 0, 67, 38
3, 6838, Note_on_c, 0, 67, 0
3, 6838, Note_on_c, 0, 63, 0
3, 6838, Note_on_c, 0, 60, 0
3, 6840, Note_on_c, 0, 45, 40
3, 6862, Note_on_c, 0, 45, 0
3, 6864, Note_on_c, 0, 54, 38
3, 6864, Note_on_c, 0, 63, 42
3, 6886, Note_on_c, 0, 63, 0
3, 6886, Note_on_c, 0, 54, 0
3, 6888, Note_on_c, 0, 60, 42
3, 6888, Note_on_c, 0, 63, 44
3, 6888, Note_on_c, 0, 66, 46
3, 6910, Note_on_c, 0, 66, 0
3, 6910, Note_on_c, 0, 63, 0
3, 6910, Note_on_c, 0, 60, 0
3, 6912, Note_on_c, 0, 46, 34
3, 6934, Note_on_c, 0, 46, 0
3, 6936, Note_on_c, 0, 53, 34
3, 6936, Note_on_c, 0, 63, 38
3, 6958, Note_on_c, 0, 63, 0
3, 6958, Note_on_c, 0, 53, 0
3, 6960, Note_on_c, 0, 58, 36
3, 6960, Note_on_c, 0, 63, 38
3, 6960, Note_on_c, 0, 68, 40
3, 6982, Note_on_c, 0, 68, 0
3, 6982, Note_on_c, 0, 63, 0
3, 6982, Note_on_c, 0, 58, 0
3, 6984, Note_on_c, 0, 34, 42
3, 7006, Note_on_c, 0, 34, 0
3, 7008, Note_on_c, 0, 53, 32
3, 7008, Note_on_c, 0, 62, 36
3, 7030, Note_on_c, 0, 62, 0
3, 7030, Note_on_c, 0, 53, 0
3, 7032, Note_on_c, 0, 58, 26
3, 7032, Note_on_c, 0, 68, 30
3, 7060, Note_on_c, 0, 68, 0
3, 7060, Note_on_c, 0, 58, 0
3, 7062, Note_on_c, 0, 39, 30
3, 7084, Note_on_c, 0, 39, 0
3, 7086, Note_on_c, 0, 55, 20
3, 7086, Note_on_c, 0, 63, 24
3, 7108, Note_on_c, 0, 63, 0
3, 7108, Note_on_c, 0, 55, 0
3, 7110, Note_on_c, 0, 58, 20
3, 7110, Note_on_c, 0, 63, 22
3, 7110, Note_on_c, 0, 67, 24
3, 7132, Note_on_c, 0, 67, 0
3, 7132, Note_on_c, 0, 63, 0
3, 7132, Note_on_c, 0, 58, 0
3, 7134, Note_on_c, 0, 51, 24
3, 7156, Note_on_c, 0, 51, 0
3, 7158, Note_on_c, 0, 55, 20
3, 7158, Note_on_c, 0, 63, 24
3, 7180, Note_on_c, 0, 63, 0
3, 7180, Note_on_c, 0, 55, 0
3, 7182, Note_on_c, 0, 58, 20
3, 7182, Note_on_c, 0, 63, 22
3, 7182, Note_on_c, 0, 67, 24
3, 7204, Note_on_c, 0, 67, 0
3, 7204, Note_on_c, 0, 63, 0
3, 7204, Note_on_c, 0, 58, 0
3, 7206, Note_on_c, 0, 39, 28
3, 7228, Note_on_c, 0, 39, 0
3, 7230, Note_on_c, 0, 56, 24
3, 7230, Note_on_c, 0, 59, 26
3, 7230, Note_on_c, 0, 63, 28
3, 7252, Note_on_c, 0, 63, 0
3, 7252, Note_on_c, 0, 59, 0
3, 7252, Note_on_c, 0, 56, 0
3, 7254, Note_on_c, 0, 59, 18
3, 7254, Note_on_c, 0, 63, 20
3, 7254, Note_on_c, 0, 68, 22
3, 7276, Note_on_c, 0, 68, 0
3, 7276, Note_on_c, 0, 63, 0
3, 7276, Note_on_c, 0, 59, 0
3, 7278, Note_on_c, 0, 51, 26
3, 7300, Note_on_c, 0, 51, 0
3, 7302, Note_on_c, 0, 56, 26
3, 7302, Note_on_c, 0, 59, 28
3, 7302, Note_on_c, 0, 63, 30
3, 7324, Note_on_c, 0, 63, 0
3, 7324, Note_on_c, 0, 59, 0
3, 7324, Note_on_c, 0, 56, 0
3, 7326, Note_on_c, 0, 59, 22
3, 7326, Note_on_c, 0, 63, 24
3, 7326, Note_on_c, 0, 68, 26
3, 7348, Note_on_c, 0, 68, 0
3, 7348, Note_on_c, 0, 63, 0
3, 7348, Note_on_c, 0, 59, 0
3, 7350, Note_on_c, 0, 39, 30
3, 7362, Note_on_c, 0, 39, 0
3, 7374, Note_on_c, 0, 55, 26
3, 7374, Note_on_c, 0, 63, 30
3, 7398, Note_on_c, 0, 63, 0
3, 7398, Note_on_c, 0, 55, 0
3, 7398, Note_on_c, 0, 58, 28
3, 7398, Note_on_c, 0, 63, 30
3, 7398, Note_on_c, 0, 67, 32
3, 7420, Note_on_c, 0, 67, 0
3, 7420, Note_on_c, 0, 63, 0
3, 7420, Note_on_c, 0, 58, 0
3, 7422, Note_on_c, 0, 51, 38
3, 7434, Note_on_c, 0, 51, 0
3, 7446, Note_on_c, 0, 55, 32
3, 7446, Note_on_c, 0, 63, 36
3, 7470, Note_on_c, 0, 63, 0
3, 7470, Note_on_c, 0, 55, 0
3, 7470, Note_on_c, 0, 58, 30
3, 7470, Note_on_c, 0, 63, 32
3, 7470, Note_on_c, 0, 67, 34
3, 7492, Note_on_c, 0, 67, 0
3, 7492, Note_on_c, 0, 63, 0
3, 7492, Note_on_c, 0, 58, 0
3, 7494, Note_on_c, 0, 39, 34
3, 7506, Note_on_c, 0, 39, 0
3, 7518, Note_on_c, 0, 56, 26
3, 7518, Note_on_c, 0, 59, 28
3, 7518, Note_on_c, 0, 63, 30
3, 7542, Note_on_c, 0, 63, 0
3, 7542, Note_on_c, 0, 59, 0
3, 7542, Note_on_c, 0, 56, 0
3, 7542, Note_on_c, 0, 59, 22
3, 7542, Note_on_c, 0, 63, 24
3, 7542, Note_on_c, 0, 68, 26
3, 7564, Note_on_c, 0, 68, 0
3, 7564, Note_on_c, 0, 63, 0
3, 7564, Note_on_c, 0, 59, 0
3, 7566, Note_on_c, 0, 51, 30
3, 7578, Note_on_c, 0, 51, 0
3, 7590, Note_on_c, 0, 56, 28
3, 7590, Note_on_c, 0, 59, 30
3, 7590, Note_on_c, 0, 63, 32
3, 7614, Note_on_c, 0, 63, 0
3, 7614, Note_on_c, 0, 59, 0
3, 7614, Note_on_c, 0, 56, 0
3, 7614, Note_on_c, 0, 59, 24
3, 7614, Note_on_c, 0, 63, 26
3, 7614, Note_on_c, 0, 68, 28
3, 7636, Note_on_c, 0, 68, 0
3, 7636, Note_on_c, 0, 63, 0
3, 7636, Note_on_c, 0, 59, 0
3, 7638, Note_on_c, 0, 39, 38
3, 7650, Note_on_c, 0, 39, 0
3, 7662, Note_on_c, 0, 55, 22
3, 7662, Note_on_c, 0, 58, 24
3, 7662, Note_on_c, 0, 63, 26
3, 7686, Note_on_c, 0, 63, 0
3, 7686, Note_on_c, 0, 58, 0
3, 7686, Note_on_c, 0, 55, 0
3, 7686, Note_on_c, 0, 58, 20
3, 7686, Note_on_c, 0, 63, 22
3, 7686, Note_on_c, 0, 67, 24
3, 7708, Note_on_c, 0, 67, 0
3, 7708, Note_on_c, 0, 63, 0
3, 7708, Note_on_c, 0, 58, 0
3, 7710, Note_on_c, 0, 51, 26
3, 7722, Note_on_c, 0, 51, 0
3, 7734, Note_on_c, 0, 55, 26
3, 7734, Note_on_c, 0, 63, 30
3, 7758, Note_on_c, 0, 63, 0
3, 7758, Note_on_c, 0, 55, 0
3, 7758, Note_on_c, 0, 58, 24
3, 7758, Note_on_c, 0, 63, 26
3, 7758, Note_on_c, 0, 67, 28
3, 7780, Note_on_c, 0, 67, 0
3, 7780, Note_on_c, 0, 63, 0
3, 7780, Note_on_c, 0, 58, 0
3, 7782, Note_on_c, 0, 51, 26
3, 7804, Note_on_c, 0, 51, 0
3, 7806, Note_on_c, 0, 53, 28
3, 7806, Note_on_c, 0, 62, 32
3, 7828, Note_on_c, 0, 62, 0
3, 7828, Note_on_c, 0, 53, 0
3, 7830, Note_on_c, 0, 58, 26
3, 7830, Note_on_c, 0, 68, 30
3, 7852, Note_on_c, 0, 68, 0
3, 7852, Note_on_c, 0, 58, 0
3, 7854, Note_on_c, 0, 51, 32
3, 7876, Note_on_c, 0, 51, 0
3, 7878, Note_on_c, 0, 53, 34
3, 7878, Note_on_c, 0, 62, 38
3, 7900, Note_on_c, 0, 62, 0
3, 7900, Note_on_c, 0, 53, 0
3, 7902, Note_on_c, 0, 58, 38
3, 7902, Note_on_c, 0, 68, 42
3, 7924, Note_on_c, 0, 68, 0
3, 7924, Note_on_c, 0, 58, 0
3, 7926, Note_on_c, 0, 51, 38
3, 7948, Note_on_c, 0, 51, 0
3, 7950, Note_on_c, 0, 55, 32
3, 7950, Note_on_c, 0, 63, 36
3, 7972, Note_on_c, 0, 63, 0
3, 7972, Note_on_c, 0, 55, 0
3, 7974, Note_on_c, 0, 58, 30
3, 7974, Note_on_c, 0, 67, 34
3, 7996, Note_on_c, 0, 67, 0
3, 7996, Note_on_c, 0, 58, 0
3, 7998, Note_on_c, 0, 45, 32
3, 8020, Note_on_c, 0, 45, 0
3, 8022, Note_on_c, 0, 53, 28
3, 8022, Note_on_c, 0, 63, 32
3, 8044, Note_on_c, 0, 63, 0
3, 8044, Note_on_c, 0, 53, 0
3, 8046, Note_on_c, 0, 60, 26
3, 8046, Note_on_c, 0, 63, 28
3, 8046, Note_on_c, 0, 65, 30
3, 8068, Note_on_c, 0, 65, 0
3, 8068, Note_on_c, 0, 63, 0
3, 8068, Note_on_c, 0, 60, 0
3, 8070, Note_on_c, 0, 46, 32
3, 8092, Note_on_c, 0, 46, 0
3, 8094, Note_on_c, 0, 53, 28
3, 8094, Note_on_c, 0, 63, 32
3, 8116, Note_on_c, 0, 63, 0
3, 8116, Note_on_c, 0, 53, 0
3, 8118, Note_on_c, 0, 58, 22
3, 8118, Note_on_c, 0, 63, 24
3, 8118, Note_on_c, 0, 68, 26
3, 8140, Note_on_c, 0, 68, 0
3, 8140, Note_on_c, 0, 63, 0
3, 8140, Note_on_c, 0, 58, 0
3, 8142, Note_on_c, 0, 34, 34
3, 8164, Note_on_c, 0, 34, 0
3, 8166, Note_on_c, 0, 53, 26
3, 8166, Note_on_c, 0, 62, 30
3, 8188, Note_on_c, 0, 62, 0
3, 8188, Note_on_c, 0, 53, 0
3, 8190, Note_on_c, 0, 58, 22
3, 8190, Note_on_c, 0, 62, 24
3, 8190, Note_on_c, 0, 68, 26
3, 8212, Note_on_c, 0, 68, 0
3, 8212, Note_on_c, 0, 62, 0
3, 8212, Note_on_c, 0, 58, 0
3, 8214, Note_on_c, 0, 39, 28
3, 8236, Note_on_c, 0, 39, 0
3, 8238, Note_on_c, 0, 55, 24
3, 8238, Note_on_c, 0, 63, 28
3, 8260, Note_on_c, 0, 63, 0
3, 8260, Note_on_c, 0, 55, 0
3, 8262, Note_on_c, 0, 58, 24
3, 8262, Note_on_c, 0, 63, 26
3, 8262, Note_on_c, 0, 67, 28
3, 8284, Note_on_c, 0, 67, 0
3, 8284, Note_on_c, 0, 63, 0
3, 8284, Note_on_c, 0, 58, 0
3, 8286, Note_on_c, 0, 51, 30
3, 8308, Note_on_c, 0, 51, 0
3, 8310, Note_on_c, 0, 55, 24
3, 8310, Note_on_c, 0, 63, 28
3, 8332, Note_on_c, 0, 63, 0
3, 8332, Note_on_c, 0, 55, 0
3, 8334, Note_on_c, 0, 58, 22
3, 8334, Note_on_c, 0, 63, 24
3, 8334, Note_on_c, 0, 67, 26
3, 8356, Note_on_c, 0, 67, 0
3, 8356, Note_on_c, 0, 63, 0
3, 8356, Note_on_c, 0, 58, 0
3, 8358, Note_on_c, 0, 32, 28
3, 8380, Note_on_c, 0, 32, 0
3, 8382, Note_on_c, 0, 51, 26
3, 8382, Note_on_c, 0, 56, 28
3, 8382, Note_on_c, 0, 59, 30
3, 8404, Note_on_c, 0, 59, 0
3, 8404, Note_on_c, 0, 56, 0
3, 8404, Note_on_c, 0, 51, 0
3, 8406, Note_on_c, 0, 56, 28
3, 8406, Note_on_c, 0, 59, 30
3, 8406, Note_on_c, 0, 63, 32
3, 8428, Note_on_c, 0, 63, 0
3, 8428, Note_on_c, 0, 59, 0
3, 8428, Note_on_c, 0, 56, 0
3, 8430, Note_on_c, 0, 59, 32
3, 8430, Note_on_c, 0, 63, 34
3, 8430, Note_on_c, 0, 68, 36
3, 8452, Note_on_c, 0, 68, 0
3, 8452, Note_on_c, 0, 63, 0
3, 8452, Note_on_c, 0, 59, 0
3, 8454, Note_on_c, 0, 56, 28
3, 8454, Note_on_c, 0, 59, 30
3, 8454, Note_on_c, 0, 63, 32
3, 8478, Note_on_c, 0, 63, 0
3, 8478, Note_on_c, 0, 59, 0
3, 8478, Note_on_c, 0, 56, 0
3, 8480, Note_on_c, 0, 51, 26
3, 8480, Note_on_c, 0, 56, 28
3, 8480, Note_on_c, 0, 59, 30
3, 8500, Note_on_c, 0, 59, 0
3, 8500, Note_on_c, 0, 56, 0
3, 8500, Note_on_c, 0, 51, 0
3, 8502, Note_on_c, 0, 39, 30
3, 8524, Note_on_c, 0, 39, 0
3, 8526, Note_on_c, 0, 55, 28
3, 8526, Note_on_c, 0, 63, 32
3, 8548, Note_on_c, 0, 63, 0
3, 8548, Note_on_c, 0, 55, 0
3, 8550, Note_on_c, 0, 58, 34
3, 8550, Note_on_c, 0, 63, 36
3, 8550, Note_on_c, 0, 67, 38
3, 8572, Note_on_c, 0, 67, 0
3, 8572, Note_on_c, 0, 63, 0
3, 8572, Note_on_c, 0, 58, 0
3, 8574, Note_on_c, 0, 51, 38
3, 8596, Note_on_c, 0, 51, 0
3, 8598, Note_on_c, 0, 55, 38
3, 8598, Note_on_c, 0, 63, 42
3, 8620, Note_on_c, 0, 63, 0
3, 8620, Note_on_c, 0, 55, 0
3, 8622, Note_on_c, 0, 58, 44
3, 8622, Note_on_c, 0, 63, 46
3, 8622, Note_on_c, 0, 67, 48
3, 8644, Note_on_c, 0, 67, 0
3, 8644, Note_on_c, 0, 63, 0
3, 8644, Note_on_c, 0, 58, 0
3, 8646, Note_on_c, 0, 32, 44
3, 8668, Note_on_c, 0, 32, 0
3, 8670, Note_on_c, 0, 51, 32
3, 8670, Note_on_c, 0, 56, 34
3, 8670, Note_on_c, 0, 59, 36
3, 8692, Note_on_c, 0, 59, 0
3, 8692, Note_on_c, 0, 56, 0
3, 8692, Note_on_c, 0, 51, 0
3, 8694, Note_on_c, 0, 56, 36
3, 8694, Note_on_c, 0, 59, 38
3, 8694, Note_on_c, 0, 63, 40
3, 8716, Note_on_c, 0, 63, 0
3, 8716, Note_on_c, 0, 59, 0
3, 8716, Note_on_c, 0, 56, 0
3, 8718, Note_on_c, 0, 51, 33
3, 8718, Note_on_c, 0, 56, 35
3, 8718, Note_on_c, 0, 59, 37
3, 8740, Note_on_c, 0, 59, 0
3, 8740, Note_on_c, 0, 56, 0
3, 8740, Note_on_c, 0, 51, 0
3, 8742, Note_on_c, 0, 56, 38
3, 8742, Note_on_c, 0, 59, 40
3, 8742, Note_on_c, 0, 63, 42
3, 8764, Note_on_c, 0, 63, 0
3, 8764, Note_on_c, 0, 59, 0
3, 8764, Note_on_c, 0, 56, 0
3, 8766, Note_on_c, 0, 51, 30
3, 8766, Note_on_c, 0, 56, 32
3, 8766, Note_on_c, 0, 59, 34
3, 8788, Note_on_c, 0, 59, 0
3, 8788, Note_on_c, 0, 56, 0
3, 8788, Note_on_c, 0, 51, 0
3, 8790, Note_on_c, 0, 39, 46
3, 8812, Note_on_c, 0, 39, 0
3, 8814, Note_on_c, 0, 55, 38
3, 8814, Note_on_c, 0, 63, 42
3, 8836, Note_on_c, 0, 63, 0
3, 8836, Note_on_c, 0, 55, 0
3, 8838, Note_on_c, 0, 58, 42
3, 8838, Note_on_c, 0, 63, 44
3, 8838, Note_on_c, 0, 67, 46
3, 8860, Note_on_c, 0, 67, 0
3, 8860, Note_on_c, 0, 63, 0
3, 8860, Note_on_c, 0, 58, 0
3, 8862, Note_on_c, 0, 45, 52
3, 8884, Note_on_c, 0, 45, 0
3, 8886, Note_on_c, 0, 53, 48
3, 8886, Note_on_c, 0, 63, 52
3, 8908, Note_on_c, 0, 63, 0
3, 8908, Note_on_c, 0, 53, 0
3, 8910, Note_on_c, 0, 60, 48
3, 8910, Note_on_c, 0, 63, 50
3, 8910, Note_on_c, 0, 65, 52
3, 8932, Note_on_c, 0, 65, 0
3, 8932, Note_on_c, 0, 63, 0
3, 8932, Note_on_c, 0, 60, 0
3, 8934, Note_on_c, 0, 46, 48
3, 8956, Note_on_c, 0, 46, 0
3, 8958, Note_on_c, 0, 53, 40
3, 8958, Note_on_c, 0, 58, 42
3, 8958, Note_on_c, 0, 63, 44
3, 8980, Note_on_c, 0, 63, 0
3, 8980, Note_on_c, 0, 58, 0
3, 8980, Note_on_c, 0, 53, 0
3, 8982, Note_on_c, 0, 58, 40
3, 8982, Note_on_c, 0, 63, 42
3, 8982, Note_on_c, 0, 68, 44
3, 9004, Note_on_c, 0, 68, 0
3, 9004, Note_on_c, 0, 63, 0
3, 9004, Note_on_c, 0, 58, 0
3, 9006, Note_on_c, 0, 47, 49
3, 9028, Note_on_c, 0, 47, 0
3, 9030, Note_on_c, 0, 55, 42
3, 9030, Note_on_c, 0, 65, 46
3, 9052, Note_on_c, 0, 65, 0
3, 9052, Note_on_c, 0, 55, 0
3, 9054, Note_on_c, 0, 62, 40
3, 9054, Note_on_c, 0, 65, 42
3, 9054, Note_on_c, 0, 67, 44
3, 9076, Note_on_c, 0, 67, 0
3, 9076, Note_on_c, 0, 65, 0
3, 9076, Note_on_c, 0, 62, 0
3, 9078, Note_on_c, 0, 48, 50
3, 9100, Note_on_c, 0, 48, 0
3, 9102, Note_on_c, 0, 55, 46
3, 9102, Note_on_c, 0, 63, 50
3, 9124, Note_on_c, 0, 63, 0
3, 9124, Note_on_c, 0, 55, 0
3, 9126, Note_on_c, 0, 60, 44
3, 9126, Note_on_c, 0, 67, 48
3, 9148, Note_on_c, 0, 67, 0
3, 9148, Note_on_c, 0, 60, 0
3, 9150, Note_on_c, 0, 45, 51
3, 9162, Note_on_c, 0, 45, 0
3, 9174, Note_on_c, 0, 53, 46
3, 9174, Note_on_c, 0, 60, 48
3, 9174, Note_on_c, 0, 63, 50
3, 9196, Note_on_c, 0, 63, 0
3, 9196, Note_on_c, 0, 60, 0
3, 9198, Note_on_c, 0, 60, 44
3, 9198, Note_on_c, 0, 63, 46
3, 9198, Note_on_c, 0, 65, 48
3, 9220, Note_on_c, 0, 65, 0
3, 9220, Note_on_c, 0, 63, 0
3, 9220, Note_on_c, 0, 60, 0
3, 9220, Note_on_c, 0, 53, 0
3, 9222, Note_on_c, 0, 34, 54
3, 9240, Note_on_c, 0, 34, 0
3, 9240, Note_on_c, 0, 46, 46
3, 9258, Note_on_c, 0, 46, 0
3, 9258, Note_on_c, 0, 53, 50
3, 9276, Note_on_c, 0, 53, 0
3, 9276, Note_on_c, 0, 56, 54
3, 9294, Note_on_c, 0, 56, 0
3, 9294, Note_on_c, 0, 62, 52
3, 9312, Note_on_c, 0, 62, 0
3, 9312, Note_on_c, 0, 58, 54
3, 9330, Note_on_c, 0, 58, 0
3, 9330, Note_on_c, 0, 65, 52
3, 9348, Note_on_c, 0, 65, 0
3, 9348, Note_on_c, 0, 68, 50
3, 9366, Note_on_c, 0, 68, 0
3, 9366, Note_on_c, 0, 74, 48
3, 9508, Note_on_c, 0, 74, 0
3, 9930, Note_on_c, 0, 39, 28
3, 9954, Note_on_c, 0, 39, 0
3, 9954, Note_on_c, 0, 58, 24
3, 9978, Note_on_c, 0, 58, 0
3, 9978, Note_on_c, 0, 46, 24
3, 10002, Note_on_c, 0, 46, 0
3, 10002, Note_on_c, 0, 51, 26
3, 10026, Note_on_c, 0, 51, 0
3, 10026, Note_on_c, 0, 58, 26
3, 10050, Note_on_c, 0, 58, 0
3, 10050, Note_on_c, 0, 46, 30
3, 10072, Note_on_c, 0, 46, 0
3, 10074, Note_on_c, 0, 39, 32
3, 10098, Note_on_c, 0, 39, 0
3, 10098, Note_on_c, 0, 58, 24
3, 10122, Note_on_c, 0, 58, 0
3, 10122, Note_on_c, 0, 46, 22
3, 10146, Note_on_c, 0, 46, 0
3, 10146, Note_on_c, 0, 51, 24
3, 10170, Note_on_c, 0, 51, 0
3, 10170, Note_on_c, 0, 58, 22
3, 10194, Note_on_c, 0, 46, 20
3, 10216, Note_on_c, 0, 46, 0
3, 10218, Note_on_c, 0, 51, 18
3, 10288, Note_on_c, 0, 58, 0
3, 10288, Note_on_c, 0, 51, 0
3, 10290, Note_on_c, 0, 63, 22
3, 10290, Note_on_c, 0, 70, 24
3, 10360, Note_on_c, 0, 70, 0
3, 10360, Note_on_c, 0, 63, 0
3, 10362, Note_on_c, 0, 39, 16
3, 10362, Note_on_c, 0, 46, 18
3, 10504, Note_on_c, 0, 46, 0
3, 10504, Note_on_c, 0, 39, 0
3, 10506, End_track
4, 0, Start_track
4, 0, Title_t, "PEDAL"
4, 0, MIDI_port, 0
4, 264, Control_c, 0, 64, 127
4, 288, Control_c, 0, 64, 127
4, 290, Control_c, 0, 64, 0
4, 296, Control_c, 0, 64, 127
4, 362, Control_c, 0, 64, 0
4, 368, Control_c, 0, 64, 127
4, 434, Control_c, 0, 64, 0
4, 440, Control_c, 0, 64, 127
4, 506, Control_c, 0, 64, 0
4, 512, Control_c, 0, 64, 127
4, 576, Control_c, 0, 64, 127
4, 578, Control_c, 0, 64, 0
4, 584, Control_c, 0, 64, 127
4, 650, Control_c, 0, 64, 0
4, 656, Control_c, 0, 64, 127
4, 722, Control_c, 0, 64, 0
4, 728, Control_c, 0, 64, 127
4, 794, Control_c, 0, 64, 0
4, 800, Control_c, 0, 64, 127
4, 864, Control_c, 0, 64, 127
4, 866, Control_c, 0, 64, 0
4, 872, Control_c, 0, 64, 127
4, 938, Control_c, 0, 64, 0
4, 944, Control_c, 0, 64, 127
4, 1010, Control_c, 0, 64, 0
4, 1016, Control_c, 0, 64, 127
4, 1082, Control_c, 0, 64, 0
4, 1088, Control_c, 0, 64, 127
4, 1152, Control_c, 0, 64, 127
4, 1154, Control_c, 0, 64, 0
4, 1160, Control_c, 0, 64, 127
4, 1226, Control_c, 0, 64, 0
4, 1232, Control_c, 0, 64, 127
4, 1272, Control_c, 0, 64, 0
4, 1304, Control_c, 0, 64, 127
4, 1440, Control_c, 0, 64, 127
4, 1514, Control_c, 0, 64, 0
4, 1544, Control_c, 0, 64, 127
4, 1586, Control_c, 0, 64, 0
4, 1592, Control_c, 0, 64, 127
4, 1658, Control_c, 0, 64, 0
4, 1688, Control_c, 0, 64, 127
4, 1728, Control_c, 0, 64, 127
4, 1730, Control_c, 0, 64, 0
4, 1736, Control_c, 0, 64, 127
4, 1874, Control_c, 0, 64, 0
4, 1880, Control_c, 0, 64, 127
4, 1946, Control_c, 0, 64, 0
4, 1952, Control_c, 0, 64, 127
4, 2016, Control_c, 0, 64, 127
4, 2018, Control_c, 0, 64, 0
4, 2024, Control_c, 0, 64, 127
4, 2086, Control_c, 0, 64, 0
4, 2096, Control_c, 0, 64, 127
4, 2162, Control_c, 0, 64, 0
4, 2168, Control_c, 0, 64, 127
4, 2234, Control_c, 0, 64, 0
4, 2240, Control_c, 0, 64, 127
4, 2304, Control_c, 0, 64, 127
4, 2306, Control_c, 0, 64, 0
4, 2312, Control_c, 0, 64, 127
4, 2378, Control_c, 0, 64, 0
4, 2384, Control_c, 0, 64, 127
4, 2424, Control_c, 0, 64, 0
4, 2448, Control_c, 0, 64, 127
4, 2592, Control_c, 0, 64, 127
4, 2594, Control_c, 0, 64, 0
4, 2600, Control_c, 0, 64, 127
4, 2738, Control_c, 0, 64, 0
4, 2744, Control_c, 0, 64, 127
4, 2880, Control_c, 0, 64, 127
4, 2882, Control_c, 0, 64, 0
4, 2888, Control_c, 0, 64, 127
4, 3026, Control_c, 0, 64, 0
4, 3032, Control_c, 0, 64, 127
4, 3168, Control_c, 0, 64, 127
4, 3170, Control_c, 0, 64, 0
4, 3176, Control_c, 0, 64, 127
4, 3242, Control_c, 0, 64, 0
4, 3248, Control_c, 0, 64, 127
4, 3314, Control_c, 0, 64, 0
4, 3320, Control_c, 0, 64, 127
4, 3386, Control_c, 0, 64, 0
4, 3392, Control_c, 0, 64, 127
4, 3456, Control_c, 0, 64, 127
4, 3458, Control_c, 0, 64, 0
4, 3464, Control_c, 0, 64, 127
4, 3530, Control_c, 0, 64, 0
4, 3536, Control_c, 0, 64, 127
4, 3602, Control_c, 0, 64, 0
4, 3608, Control_c, 0, 64, 127
4, 3626, Control_c, 0, 64, 0
4, 3632, Control_c, 0, 64, 127
4, 3650, Control_c, 0, 64, 0
4, 3656, Control_c, 0, 64, 127
4, 3674, Control_c, 0, 64, 0
4, 3680, Control_c, 0, 64, 127
4, 3698, Control_c, 0, 64, 0
4, 3704, Control_c, 0, 64, 127
4, 3722, Control_c, 0, 64, 0
4, 3728, Control_c, 0, 64, 127
4, 3744, Control_c, 0, 64, 127
4, 3758, Control_c, 0, 64, 0
4, 3764, Control_c, 0, 64, 127
4, 3818, Control_c, 0, 64, 0
4, 3824, Control_c, 0, 64, 127
4, 3890, Control_c, 0, 64, 0
4, 3896, Control_c, 0, 64, 127
4, 3962, Control_c, 0, 64, 0
4, 3968, Control_c, 0, 64, 127
4, 4032, Control_c, 0, 64, 127
4, 4034, Control_c, 0, 64, 0
4, 4040, Control_c, 0, 64, 127
4, 4106, Control_c, 0, 64, 0
4, 4112, Control_c, 0, 64, 127
4, 4178, Control_c, 0, 64, 0
4, 4184, Control_c, 0, 64, 127
4, 4250, Control_c, 0, 64, 0
4, 4256, Control_c, 0, 64, 127
4, 4320, Control_c, 0, 64, 127
4, 4322, Control_c, 0, 64, 0
4, 4328, Control_c, 0, 64, 127
4, 4394, Control_c, 0, 64, 0
4, 4400, Control_c, 0, 64, 127
4, 4466, Control_c, 0, 64, 0
4, 4472, Control_c, 0, 64, 127
4, 4538, Control_c, 0, 64, 0
4, 4544, Control_c, 0, 64, 127
4, 4608, Control_c, 0, 64, 127
4, 4610, Control_c, 0, 64, 0
4, 4616, Control_c, 0, 64, 127
4, 4682, Control_c, 0, 64, 0
4, 4688, Control_c, 0, 64, 127
4, 4728, Control_c, 0, 64, 0
4, 4760, Control_c, 0, 64, 127
4, 4896, Control_c, 0, 64, 127
4, 4898, Control_c, 0, 64, 0
4, 4904, Control_c, 0, 64, 127
4, 5042, Control_c, 0, 64, 0
4, 5048, Control_c, 0, 64, 127
4, 5184, Control_c, 0, 64, 127
4, 5186, Control_c, 0, 64, 0
4, 5192, Control_c, 0, 64, 127
4, 5330, Control_c, 0, 64, 0
4, 5336, Control_c, 0, 64, 127
4, 5472, Control_c, 0, 64, 127
4, 5474, Control_c, 0, 64, 0
4, 5480, Control_c, 0, 64, 127
4, 5546, Control_c, 0, 64, 0
4, 5552, Control_c, 0, 64, 127
4, 5618, Control_c, 0, 64, 0
4, 5624, Control_c, 0, 64, 127
4, 5690, Control_c, 0, 64, 0
4, 5696, Control_c, 0, 64, 127
4, 5760, Control_c, 0, 64, 127
4, 5762, Control_c, 0, 64, 0
4, 5768, Control_c, 0, 64, 127
4, 5834, Control_c, 0, 64, 0
4, 5840, Control_c, 0, 64, 127
4, 5906, Control_c, 0, 64, 0
4, 5912, Control_c, 0, 64, 127
4, 5930, Control_c, 0, 64, 0
4, 5936, Control_c, 0, 64, 127
4, 5954, Control_c, 0, 64, 0
4, 5960, Control_c, 0, 64, 127
4, 5978, Control_c, 0, 64, 0
4, 5984, Control_c, 0, 64, 127
4, 6002, Control_c, 0, 64, 0
4, 6008, Control_c, 0, 64, 127
4, 6026, Control_c, 0, 64, 0
4, 6032, Control_c, 0, 64, 127
4, 6046, Control_c, 0, 64, 0
4, 6048, Control_c, 0, 64, 0
4, 6050, Control_c, 0, 64, 127
4, 6122, Control_c, 0, 64, 0
4, 6128, Control_c, 0, 64, 127
4, 6194, Control_c, 0, 64, 0
4, 6200, Control_c, 0, 64, 127
4, 6266, Control_c, 0, 64, 0
4, 6272, Control_c, 0, 64, 127
4, 6336, Control_c, 0, 64, 127
4, 6338, Control_c, 0, 64, 0
4, 6344, Control_c, 0, 64, 127
4, 6410, Control_c, 0, 64, 0
4, 6416, Control_c, 0, 64, 127
4, 6482, Control_c, 0, 64, 0
4, 6488, Control_c, 0, 64, 127
4, 6554, Control_c, 0, 64, 0
4, 6560, Control_c, 0, 64, 127
4, 6624, Control_c, 0, 64, 127
4, 6626, Control_c, 0, 64, 0
4, 6632, Control_c, 0, 64, 127
4, 6698, Control_c, 0, 64, 0
4, 6704, Control_c, 0, 64, 127
4, 6770, Control_c, 0, 64, 0
4, 6776, Control_c, 0, 64, 127
4, 6842, Control_c, 0, 64, 0
4, 6848, Control_c, 0, 64, 127
4, 6912, Control_c, 0, 64, 127
4, 6914, Control_c, 0, 64, 0
4, 6920, Control_c, 0, 64, 127
4, 6986, Control_c, 0, 64, 0
4, 6992, Control_c, 0, 64, 127
4, 7032, Control_c, 0, 64, 0
4, 7070, Control_c, 0, 64, 127
4, 7206, Control_c, 0, 64, 127
4, 7208, Control_c, 0, 64, 0
4, 7214, Control_c, 0, 64, 127
4, 7352, Control_c, 0, 64, 0
4, 7358, Control_c, 0, 64, 127
4, 7494, Control_c, 0, 64, 127
4, 7496, Control_c, 0, 64, 0
4, 7502, Control_c, 0, 64, 127
4, 7640, Control_c, 0, 64, 0
4, 7646, Control_c, 0, 64, 127
4, 7782, Control_c, 0, 64, 127
4, 7784, Control_c, 0, 64, 0
4, 7790, Control_c, 0, 64, 127
4, 7928, Control_c, 0, 64, 0
4, 7934, Control_c, 0, 64, 127
4, 8000, Control_c, 0, 64, 0
4, 8006, Control_c, 0, 64, 127
4, 8070, Control_c, 0, 64, 127
4, 8072, Control_c, 0, 64, 0
4, 8078, Control_c, 0, 64, 127
4, 8096, Control_c, 0, 64, 0
4, 8102, Control_c, 0, 64, 127
4, 8120, Control_c, 0, 64, 0
4, 8126, Control_c, 0, 64, 127
4, 8144, Control_c, 0, 64, 0
4, 8150, Control_c, 0, 64, 127
4, 8216, Control_c, 0, 64, 0
4, 8222, Control_c, 0, 64, 127
4, 8358, Control_c, 0, 64, 127
4, 8360, Control_c, 0, 64, 0
4, 8366, Control_c, 0, 64, 127
4, 8504, Control_c, 0, 64, 0
4, 8510, Control_c, 0, 64, 127
4, 8646, Control_c, 0, 64, 127
4, 8648, Control_c, 0, 64, 0
4, 8654, Control_c, 0, 64, 127
4, 8792, Control_c, 0, 64, 0
4, 8798, Control_c, 0, 64, 127
4, 8864, Control_c, 0, 64, 0
4, 8870, Control_c, 0, 64, 127
4, 8934, Control_c, 0, 64, 127
4, 8936, Control_c, 0, 64, 0
4, 8942, Control_c, 0, 64, 127
4, 9008, Control_c, 0, 64, 0
4, 9014, Control_c, 0, 64, 127
4, 9080, Control_c, 0, 64, 0
4, 9086, Control_c, 0, 64, 127
4, 9152, Control_c, 0, 64, 0
4, 9158, Control_c, 0, 64, 127
4, 9222, Control_c, 0, 64, 127
4, 9224, Control_c, 0, 64, 0
4, 9230, Control_c, 0, 64, 127
4, 9366, Control_c, 0, 64, 127
4, 9510, Control_c, 0, 64, 127
4, 9702, Control_c, 0, 64, 127
4, 9894, Control_c, 0, 64, 127
4, 9930, Control_c, 0, 64, 127
4, 9932, Control_c, 0, 64, 0
4, 9938, Control_c, 0, 64, 127
4, 10074, Control_c, 0, 64, 127
4, 10218, Control_c, 0, 64, 127
4, 10362, Control_c, 0, 64, 127
4, 10504, Control_c, 0, 64, 0
4, 10506, End_track
0, 0, End_of_file