0, 0, Header, 1, 11, 384
1, 0, Start_track
1, 0, Time_signature, 4, 2, 96, 8
1, 0, Sequencer_specific, 03, 00, 00, 41
1, 0, Tempo, 568181
1, 0, End_track
2, 0, Start_track
2, 0, Title_t, "REVOLUTIONARY ETUDE"
2, 0, Control_c, 0, 0, 0
2, 0, Program_c, 0, 0
2, 0, Control_c, 0, 91, 36
2, 0, Control_c, 0, 93, 38
2, 0, Key_signature, -3, "major"
2, 0, Note_on_c, 0, 71, 125
2, 0, Note_on_c, 0, 74, 125
2, 0, Note_on_c, 0, 77, 125
2, 0, Note_on_c, 0, 79, 125
2, 0, Note_on_c, 0, 83, 125
2, 0, Note_on_c, 0, 55, 125
2, 64, Note_off_c, 0, 55, 80
2, 512, Note_off_c, 0, 71, 80
2, 512, Note_off_c, 0, 74, 80
2, 512, Note_off_c, 0, 77, 80
2, 512, Note_off_c, 0, 79, 80
2, 512, Note_off_c, 0, 83, 80
2, 2688, Note_on_c, 0, 68, 125
2, 2688, Note_on_c, 0, 75, 125
2, 2688, Note_on_c, 0, 77, 125
2, 2688, Note_on_c, 0, 80, 125
2, 2880, Note_off_c, 0, 68, 80
2, 2880, Note_off_c, 0, 75, 80
2, 2880, Note_off_c, 0, 77, 80
2, 2880, Note_off_c, 0, 80, 80
2, 2976, Note_on_c, 0, 67, 125
2, 2976, Note_on_c, 0, 79, 125
2, 3040, Note_off_c, 0, 67, 80
2, 3040, Note_off_c, 0, 79, 80
2, 3072, Note_on_c, 0, 86, 125
2, 3072, Note_on_c, 0, 79, 125
2, 3072, Note_on_c, 0, 77, 125
2, 3072, Note_on_c, 0, 74, 125
2, 3264, Note_on_c, 0, 55, 125
2, 3328, Note_off_c, 0, 55, 80
2, 3584, Note_off_c, 0, 86, 80
2, 3584, Note_off_c, 0, 79, 80
2, 3584, Note_off_c, 0, 77, 80
2, 3584, Note_off_c, 0, 74, 80
2, 5760, Note_on_c, 0, 68, 125
2, 5760, Note_on_c, 0, 75, 125
2, 5760, Note_on_c, 0, 77, 125
2, 5760, Note_on_c, 0, 80, 125
2, 5952, Note_off_c, 0, 68, 80
2, 5952, Note_off_c, 0, 75, 80
2, 5952, Note_off_c, 0, 77, 80
2, 5952, Note_off_c, 0, 80, 80
2, 6048, Note_on_c, 0, 67, 125
2, 6048, Note_on_c, 0, 79, 125
2, 6112, Note_off_c, 0, 67, 80
2, 6112, Note_off_c, 0, 79, 80
2, 6144, Note_on_c, 0, 89, 125
2, 6144, Note_on_c, 0, 86, 125
2, 6144, Note_on_c, 0, 79, 125
2, 6144, Note_on_c, 0, 77, 125
2, 6272, Note_off_c, 0, 89, 80
2, 6272, Note_off_c, 0, 86, 80
2, 6272, Note_off_c, 0, 79, 80
2, 6272, Note_off_c, 0, 77, 80
2, 6336, Note_on_c, 0, 92, 125
2, 6336, Note_on_c, 0, 80, 125
2, 6400, Note_off_c, 0, 92, 80
2, 6400, Note_off_c, 0, 80, 80
2, 6432, Note_on_c, 0, 91, 125
2, 6432, Note_on_c, 0, 79, 125
2, 6496, Note_off_c, 0, 91, 80
2, 6496, Note_off_c, 0, 79, 80
2, 6528, Note_on_c, 0, 89, 125
2, 6528, Note_on_c, 0, 77, 125
2, 6592, Note_off_c, 0, 89, 80
2, 6592, Note_off_c, 0, 77, 80
2, 6624, Note_on_c, 0, 86, 125
2, 6624, Note_on_c, 0, 74, 125
2, 6688, Note_off_c, 0, 86, 80
2, 6688, Note_off_c, 0, 74, 80
2, 6720, Note_on_c, 0, 87, 125
2, 6720, Note_on_c, 0, 75, 125
2, 6784, Note_off_c, 0, 87, 80
2, 6784, Note_off_c, 0, 75, 80
2, 6816, Note_on_c, 0, 86, 125
2, 6816, Note_on_c, 0, 74, 125
2, 6880, Note_off_c, 0, 86, 80
2, 6880, Note_off_c, 0, 74, 80
2, 6912, Note_on_c, 0, 83, 125
2, 6912, Note_on_c, 0, 71, 125
2, 6976, Note_off_c, 0, 83, 80
2, 6976, Note_off_c, 0, 71, 80
2, 7008, Note_on_c, 0, 79, 125
2, 7008, Note_on_c, 0, 67, 125
2, 7072, Note_off_c, 0, 79, 80
2, 7072, Note_off_c, 0, 67, 80
2, 7104, Note_on_c, 0, 80, 125
2, 7104, Note_on_c, 0, 68, 125
2, 7168, Note_off_c, 0, 80, 80
2, 7168, Note_off_c, 0, 68, 80
2, 7200, Note_on_c, 0, 79, 125
2, 7200, Note_on_c, 0, 67, 125
2, 7264, Note_off_c, 0, 79, 80
2, 7264, Note_off_c, 0, 67, 80
2, 7296, Note_on_c, 0, 77, 125
2, 7296, Note_on_c, 0, 65, 125
2, 7360, Note_off_c, 0, 77, 80
2, 7360, Note_off_c, 0, 65, 80
2, 7392, Note_on_c, 0, 74, 125
2, 7392, Note_on_c, 0, 62, 125
2, 7456, Note_off_c, 0, 74, 80
2, 7456, Note_off_c, 0, 62, 80
2, 7488, Note_on_c, 0, 75, 125
2, 7488, Note_on_c, 0, 63, 125
2, 7552, Note_off_c, 0, 75, 80
2, 7552, Note_off_c, 0, 63, 80
2, 7584, Note_on_c, 0, 74, 125
2, 7584, Note_on_c, 0, 62, 125
2, 7648, Note_off_c, 0, 74, 80
2, 7648, Note_off_c, 0, 62, 80
2, 7680, Note_on_c, 0, 71, 125
2, 7744, Note_off_c, 0, 71, 80
2, 7776, Note_on_c, 0, 67, 125
2, 7840, Note_off_c, 0, 67, 80
2, 7872, Note_on_c, 0, 68, 125
2, 7936, Note_off_c, 0, 68, 80
2, 7968, Note_on_c, 0, 67, 125
2, 8032, Note_off_c, 0, 67, 80
2, 8064, Note_on_c, 0, 65, 125
2, 8128, Note_off_c, 0, 65, 80
2, 8160, Note_on_c, 0, 62, 125
2, 8224, Note_off_c, 0, 62, 80
2, 8256, Note_on_c, 0, 63, 125
2, 8320, Note_off_c, 0, 63, 80
2, 8352, Note_on_c, 0, 62, 125
2, 8416, Note_off_c, 0, 62, 80
2, 14880, Note_on_c, 0, 72, 125
2, 14880, Note_on_c, 0, 84, 125
2, 14944, Note_off_c, 0, 72, 80
2, 14944, Note_off_c, 0, 84, 80
2, 14976, Note_on_c, 0, 74, 125
2, 14976, Note_on_c, 0, 86, 125
2, 15168, Note_off_c, 0, 74, 80
2, 15168, Note_off_c, 0, 86, 80
2, 15264, Note_on_c, 0, 75, 125
2, 15264, Note_on_c, 0, 87, 125
2, 15328, Note_off_c, 0, 75, 80
2, 15328, Note_off_c, 0, 87, 80
2, 15360, Note_on_c, 0, 75, 125
2, 15360, Note_on_c, 0, 87, 125
2, 15872, Note_off_c, 0, 75, 80
2, 15872, Note_off_c, 0, 87, 80
2, 16416, Note_on_c, 0, 67, 125
2, 16416, Note_on_c, 0, 72, 125
2, 16416, Note_on_c, 0, 75, 125
2, 16416, Note_on_c, 0, 79, 125
2, 16480, Note_off_c, 0, 67, 80
2, 16480, Note_off_c, 0, 72, 80
2, 16480, Note_off_c, 0, 75, 80
2, 16480, Note_off_c, 0, 79, 80
2, 16512, Note_on_c, 0, 67, 125
2, 16512, Note_on_c, 0, 72, 125
2, 16512, Note_on_c, 0, 75, 125
2, 16512, Note_on_c, 0, 79, 125
2, 16704, Note_off_c, 0, 67, 80
2, 16704, Note_off_c, 0, 72, 80
2, 16704, Note_off_c, 0, 75, 80
2, 16704, Note_off_c, 0, 79, 80
2, 16800, Note_on_c, 0, 67, 125
2, 16800, Note_on_c, 0, 79, 125
2, 16800, Note_on_c, 0, 75, 125
2, 16800, Note_on_c, 0, 72, 125
2, 16864, Note_off_c, 0, 67, 80
2, 16864, Note_off_c, 0, 79, 80
2, 16864, Note_off_c, 0, 75, 80
2, 16864, Note_off_c, 0, 72, 80
2, 16896, Note_on_c, 0, 68, 125
2, 16896, Note_on_c, 0, 72, 125
2, 16896, Note_on_c, 0, 75, 125
2, 16896, Note_on_c, 0, 80, 125
2, 17408, Note_off_c, 0, 68, 80
2, 17408, Note_off_c, 0, 72, 80
2, 17408, Note_off_c, 0, 75, 80
2, 17408, Note_off_c, 0, 80, 80
2, 17664, Note_on_c, 0, 67, 125
2, 17664, Note_on_c, 0, 72, 125
2, 17664, Note_on_c, 0, 75, 125
2, 17664, Note_on_c, 0, 79, 125
2, 17792, Note_off_c, 0, 67, 80
2, 17792, Note_off_c, 0, 72, 80
2, 17792, Note_off_c, 0, 75, 80
2, 17792, Note_off_c, 0, 79, 80
2, 17952, Note_on_c, 0, 72, 125
2, 17952, Note_on_c, 0, 84, 125
2, 18016, Note_off_c, 0, 72, 80
2, 18016, Note_off_c, 0, 84, 80
2, 18048, Note_on_c, 0, 74, 125
2, 18048, Note_on_c, 0, 86, 125
2, 18240, Note_off_c, 0, 74, 80
2, 18240, Note_off_c, 0, 86, 80
2, 18336, Note_on_c, 0, 75, 125
2, 18336, Note_on_c, 0, 87, 125
2, 18400, Note_off_c, 0, 75, 80
2, 18400, Note_off_c, 0, 87, 80
2, 18432, Note_on_c, 0, 75, 125
2, 18432, Note_on_c, 0, 87, 125
2, 18944, Note_off_c, 0, 75, 80
2, 18944, Note_off_c, 0, 87, 80
2, 19488, Note_on_c, 0, 67, 125
2, 19488, Note_on_c, 0, 72, 125
2, 19488, Note_on_c, 0, 75, 125
2, 19488, Note_on_c, 0, 79, 125
2, 19552, Note_off_c, 0, 67, 80
2, 19552, Note_off_c, 0, 72, 80
2, 19552, Note_off_c, 0, 75, 80
2, 19552, Note_off_c, 0, 79, 80
2, 19584, Note_on_c, 0, 67, 125
2, 19584, Note_on_c, 0, 72, 125
2, 19584, Note_on_c, 0, 75, 125
2, 19584, Note_on_c, 0, 79, 125
2, 19776, Note_off_c, 0, 67, 80
2, 19776, Note_off_c, 0, 72, 80
2, 19776, Note_off_c, 0, 75, 80
2, 19776, Note_off_c, 0, 79, 80
2, 19872, Note_on_c, 0, 67, 125
2, 19872, Note_on_c, 0, 72, 125
2, 19872, Note_on_c, 0, 75, 125
2, 19872, Note_on_c, 0, 79, 125
2, 19936, Note_off_c, 0, 67, 80
2, 19936, Note_off_c, 0, 72, 80
2, 19936, Note_off_c, 0, 75, 80
2, 19936, Note_off_c, 0, 79, 80
2, 19968, Note_on_c, 0, 81, 125
2, 19968, Note_on_c, 0, 75, 125
2, 19968, Note_on_c, 0, 72, 125
2, 19968, Note_on_c, 0, 69, 125
2, 20996, Note_off_c, 0, 81, 80
2, 20996, Note_off_c, 0, 75, 80
2, 20996, Note_off_c, 0, 72, 80
2, 20996, Note_off_c, 0, 69, 80
2, 21504, Note_on_c, 0, 74, 125
2, 21504, Note_on_c, 0, 81, 125
2, 21504, Note_on_c, 0, 86, 125
2, 21632, Note_off_c, 0, 74, 80
2, 21632, Note_off_c, 0, 81, 80
2, 21632, Note_off_c, 0, 86, 80
2, 21888, Note_on_c, 0, 67, 125
2, 21888, Note_on_c, 0, 74, 125
2, 21888, Note_on_c, 0, 79, 125
2, 22144, Note_off_c, 0, 67, 80
2, 22144, Note_off_c, 0, 74, 80
2, 22144, Note_off_c, 0, 79, 80
2, 22560, Note_on_c, 0, 67, 125
2, 22560, Note_on_c, 0, 73, 125
2, 22560, Note_on_c, 0, 79, 125
2, 22624, Note_off_c, 0, 67, 80
2, 22624, Note_off_c, 0, 73, 80
2, 22624, Note_off_c, 0, 79, 80
2, 22656, Note_on_c, 0, 68, 125
2, 22656, Note_on_c, 0, 73, 125
2, 22656, Note_on_c, 0, 80, 125
2, 22848, Note_off_c, 0, 68, 80
2, 22848, Note_off_c, 0, 73, 80
2, 22848, Note_off_c, 0, 80, 80
2, 22944, Note_on_c, 0, 79, 125
2, 22944, Note_on_c, 0, 73, 125
2, 22944, Note_on_c, 0, 67, 125
2, 23008, Note_off_c, 0, 79, 80
2, 23008, Note_off_c, 0, 73, 80
2, 23008, Note_off_c, 0, 67, 80
2, 23040, Note_on_c, 0, 67, 125
2, 23040, Note_on_c, 0, 72, 125
2, 23040, Note_on_c, 0, 79, 125
2, 23168, Note_off_c, 0, 67, 80
2, 23168, Note_off_c, 0, 72, 80
2, 23168, Note_off_c, 0, 79, 80
2, 23232, Note_on_c, 0, 72, 125
2, 23232, Note_on_c, 0, 84, 125
2, 23296, Note_off_c, 0, 72, 80
2, 23296, Note_off_c, 0, 84, 80
2, 23424, Note_on_c, 0, 65, 125
2, 23424, Note_on_c, 0, 72, 125
2, 23424, Note_on_c, 0, 77, 125
2, 23680, Note_off_c, 0, 65, 80
2, 23680, Note_off_c, 0, 72, 80
2, 23680, Note_off_c, 0, 77, 80
2, 24096, Note_on_c, 0, 65, 125
2, 24096, Note_on_c, 0, 72, 125
2, 24096, Note_on_c, 0, 77, 125
2, 24160, Note_off_c, 0, 65, 80
2, 24160, Note_off_c, 0, 72, 80
2, 24160, Note_off_c, 0, 77, 80
2, 24192, Note_on_c, 0, 67, 125
2, 24192, Note_on_c, 0, 72, 125
2, 24192, Note_on_c, 0, 79, 125
2, 24384, Note_off_c, 0, 67, 80
2, 24384, Note_off_c, 0, 72, 80
2, 24384, Note_off_c, 0, 79, 80
2, 24480, Note_on_c, 0, 65, 125
2, 24480, Note_on_c, 0, 72, 125
2, 24480, Note_on_c, 0, 77, 125
2, 24544, Note_off_c, 0, 65, 80
2, 24544, Note_off_c, 0, 72, 80
2, 24544, Note_off_c, 0, 77, 80
2, 24576, Note_on_c, 0, 64, 125
2, 24576, Note_on_c, 0, 72, 125
2, 24576, Note_on_c, 0, 76, 125
2, 25344, Note_off_c, 0, 64, 80
2, 25344, Note_off_c, 0, 72, 80
2, 25344, Note_off_c, 0, 76, 80
2, 25728, Note_on_c, 0, 64, 125
2, 25728, Note_on_c, 0, 72, 125
2, 25728, Note_on_c, 0, 76, 125
2, 25920, Note_off_c, 0, 64, 80
2, 25920, Note_off_c, 0, 72, 80
2, 25920, Note_off_c, 0, 76, 80
2, 26016, Note_on_c, 0, 63, 125
2, 26016, Note_on_c, 0, 75, 125
2, 26080, Note_off_c, 0, 63, 80
2, 26080, Note_off_c, 0, 75, 80
2, 26112, Note_on_c, 0, 75, 125
2, 26112, Note_on_c, 0, 63, 125
2, 26112, Note_on_c, 0, 71, 125
2, 26368, Note_off_c, 0, 75, 80
2, 26368, Note_off_c, 0, 63, 80
2, 26496, Note_on_c, 0, 62, 125
2, 26496, Note_on_c, 0, 74, 125
2, 26624, Note_off_c, 0, 71, 80
2, 26752, Note_off_c, 0, 62, 80
2, 26752, Note_off_c, 0, 74, 80
2, 30240, Note_on_c, 0, 72, 125
2, 30240, Note_on_c, 0, 84, 125
2, 30304, Note_off_c, 0, 72, 80
2, 30304, Note_off_c, 0, 84, 80
2, 30336, Note_on_c, 0, 74, 125
2, 30336, Note_on_c, 0, 86, 125
2, 30528, Note_off_c, 0, 74, 80
2, 30528, Note_off_c, 0, 86, 80
2, 30624, Note_on_c, 0, 75, 125
2, 30624, Note_on_c, 0, 87, 125
2, 30688, Note_off_c, 0, 75, 80
2, 30688, Note_off_c, 0, 87, 80
2, 30720, Note_on_c, 0, 75, 125
2, 30720, Note_on_c, 0, 87, 125
2, 31232, Note_off_c, 0, 75, 80
2, 31232, Note_off_c, 0, 87, 80
2, 31776, Note_on_c, 0, 67, 125
2, 31776, Note_on_c, 0, 72, 125
2, 31776, Note_on_c, 0, 75, 125
2, 31776, Note_on_c, 0, 79, 125
2, 31840, Note_off_c, 0, 67, 80
2, 31840, Note_off_c, 0, 72, 80
2, 31840, Note_off_c, 0, 75, 80
2, 31840, Note_off_c, 0, 79, 80
2, 31872, Note_on_c, 0, 67, 125
2, 31872, Note_on_c, 0, 72, 125
2, 31872, Note_on_c, 0, 75, 125
2, 31872, Note_on_c, 0, 79, 125
2, 32064, Note_off_c, 0, 67, 80
2, 32064, Note_off_c, 0, 72, 80
2, 32064, Note_off_c, 0, 75, 80
2, 32064, Note_off_c, 0, 79, 80
2, 32160, Note_on_c, 0, 67, 125
2, 32160, Note_on_c, 0, 72, 125
2, 32160, Note_on_c, 0, 75, 125
2, 32160, Note_on_c, 0, 79, 125
2, 32224, Note_off_c, 0, 67, 80
2, 32224, Note_off_c, 0, 72, 80
2, 32224, Note_off_c, 0, 75, 80
2, 32224, Note_off_c, 0, 79, 80
2, 32256, Note_on_c, 0, 68, 125
2, 32256, Note_on_c, 0, 72, 125
2, 32256, Note_on_c, 0, 75, 125
2, 32256, Note_on_c, 0, 80, 125
2, 32768, Note_off_c, 0, 68, 80
2, 32768, Note_off_c, 0, 72, 80
2, 32768, Note_off_c, 0, 75, 80
2, 32768, Note_off_c, 0, 80, 80
2, 33024, Note_on_c, 0, 67, 125
2, 33024, Note_on_c, 0, 72, 125
2, 33024, Note_on_c, 0, 75, 125
2, 33024, Note_on_c, 0, 79, 125
2, 33152, Note_off_c, 0, 67, 80
2, 33152, Note_off_c, 0, 72, 80
2, 33152, Note_off_c, 0, 75, 80
2, 33152, Note_off_c, 0, 79, 80
2, 33312, Note_on_c, 0, 72, 125
2, 33312, Note_on_c, 0, 84, 125
2, 33376, Note_off_c, 0, 72, 80
2, 33376, Note_off_c, 0, 84, 80
2, 33408, Note_on_c, 0, 74, 125
2, 33408, Note_on_c, 0, 86, 125
2, 33600, Note_off_c, 0, 74, 80
2, 33600, Note_off_c, 0, 86, 80
2, 33696, Note_on_c, 0, 75, 125
2, 33696, Note_on_c, 0, 87, 125
2, 33760, Note_off_c, 0, 75, 80
2, 33760, Note_off_c, 0, 87, 80
2, 33792, Note_on_c, 0, 75, 125
2, 33792, Note_on_c, 0, 87, 125
2, 34304, Note_off_c, 0, 75, 80
2, 34304, Note_off_c, 0, 87, 80
2, 34848, Note_on_c, 0, 67, 125
2, 34848, Note_on_c, 0, 72, 125
2, 34848, Note_on_c, 0, 75, 125
2, 34848, Note_on_c, 0, 79, 125
2, 34912, Note_off_c, 0, 67, 80
2, 34912, Note_off_c, 0, 72, 80
2, 34912, Note_off_c, 0, 75, 80
2, 34912, Note_off_c, 0, 79, 80
2, 34944, Note_on_c, 0, 67, 125
2, 34944, Note_on_c, 0, 72, 125
2, 34944, Note_on_c, 0, 75, 125
2, 34944, Note_on_c, 0, 79, 125
2, 35136, Note_off_c, 0, 67, 80
2, 35136, Note_off_c, 0, 72, 80
2, 35136, Note_off_c, 0, 75, 80
2, 35136, Note_off_c, 0, 79, 80
2, 35232, Note_on_c, 0, 67, 125
2, 35232, Note_on_c, 0, 72, 125
2, 35232, Note_on_c, 0, 75, 125
2, 35232, Note_on_c, 0, 79, 125
2, 35296, Note_off_c, 0, 67, 80
2, 35296, Note_off_c, 0, 72, 80
2, 35296, Note_off_c, 0, 75, 80
2, 35296, Note_off_c, 0, 79, 80
2, 35328, Note_on_c, 0, 69, 125
2, 35328, Note_on_c, 0, 77, 125
2, 35328, Note_on_c, 0, 81, 125
2, 35328, Note_on_c, 0, 75, 125
2, 36356, Note_off_c, 0, 69, 80
2, 36356, Note_off_c, 0, 77, 80
2, 36356, Note_off_c, 0, 81, 80
2, 36356, Note_off_c, 0, 75, 80
2, 36864, Note_on_c, 0, 70, 125
2, 36864, Note_on_c, 0, 77, 125
2, 36864, Note_on_c, 0, 82, 125
2, 37248, Note_off_c, 0, 70, 80
2, 37248, Note_off_c, 0, 77, 80
2, 37248, Note_off_c, 0, 82, 80
2, 37440, Note_on_c, 0, 70, 125
2, 37440, Note_on_c, 0, 77, 125
2, 37440, Note_on_c, 0, 82, 125
2, 37696, Note_off_c, 0, 70, 80
2, 37696, Note_off_c, 0, 77, 80
2, 37696, Note_off_c, 0, 82, 80
2, 37824, Note_on_c, 0, 70, 125
2, 37824, Note_on_c, 0, 79, 125
2, 37824, Note_on_c, 0, 82, 125
2, 38080, Note_off_c, 0, 70, 80
2, 38080, Note_off_c, 0, 79, 80
2, 38080, Note_off_c, 0, 82, 80
2, 38208, Note_on_c, 0, 71, 125
2, 38208, Note_on_c, 0, 79, 125
2, 38208, Note_on_c, 0, 83, 125
2, 38336, Note_off_c, 0, 71, 80
2, 38336, Note_off_c, 0, 79, 80
2, 38336, Note_off_c, 0, 83, 80
2, 38400, Note_on_c, 0, 71, 125
2, 38400, Note_on_c, 0, 83, 125
2, 38400, Note_on_c, 0, 79, 125
2, 38528, Note_off_c, 0, 71, 80
2, 38528, Note_off_c, 0, 83, 80
2, 38528, Note_off_c, 0, 79, 80
2, 38592, Note_on_c, 0, 72, 125
2, 38592, Note_on_c, 0, 79, 125
2, 38592, Note_on_c, 0, 82, 125
2, 38592, Note_on_c, 0, 84, 125
2, 38848, Note_off_c, 0, 72, 80
2, 38848, Note_off_c, 0, 79, 80
2, 38848, Note_off_c, 0, 82, 80
2, 38848, Note_off_c, 0, 84, 80
2, 38976, Note_on_c, 0, 73, 125
2, 38976, Note_on_c, 0, 82, 125
2, 38976, Note_on_c, 0, 85, 125
2, 39232, Note_off_c, 0, 73, 80
2, 39232, Note_off_c, 0, 82, 80
2, 39232, Note_off_c, 0, 85, 80
2, 39360, Note_on_c, 0, 74, 125
2, 39360, Note_on_c, 0, 82, 125
2, 39360, Note_on_c, 0, 86, 125
2, 39488, Note_off_c, 0, 74, 80
2, 39488, Note_off_c, 0, 82, 80
2, 39488, Note_off_c, 0, 86, 80
2, 39552, Note_on_c, 0, 75, 125
2, 39552, Note_on_c, 0, 82, 125
2, 39552, Note_on_c, 0, 87, 125
2, 39680, Note_off_c, 0, 75, 80
2, 39680, Note_off_c, 0, 82, 80
2, 39680, Note_off_c, 0, 87, 80
2, 39744, Note_on_c, 0, 76, 125
2, 39744, Note_on_c, 0, 82, 125
2, 39744, Note_on_c, 0, 88, 125
2, 39872, Note_off_c, 0, 76, 80
2, 39872, Note_off_c, 0, 82, 80
2, 39872, Note_off_c, 0, 88, 80
2, 39936, Note_on_c, 0, 77, 125
2, 39936, Note_on_c, 0, 82, 125
2, 39936, Note_on_c, 0, 86, 125
2, 39936, Note_on_c, 0, 89, 125
2, 40448, Note_off_c, 0, 77, 80
2, 40448, Note_off_c, 0, 82, 80
2, 40448, Note_off_c, 0, 86, 80
2, 40448, Note_off_c, 0, 89, 80
2, 40704, Note_on_c, 0, 74, 125
2, 40704, Note_on_c, 0, 77, 125
2, 40704, Note_on_c, 0, 82, 125
2, 40704, Note_on_c, 0, 86, 125
2, 40960, Note_off_c, 0, 74, 80
2, 40960, Note_off_c, 0, 77, 80
2, 40960, Note_off_c, 0, 82, 80
2, 40960, Note_off_c, 0, 86, 80
2, 41088, Note_on_c, 0, 75, 125
2, 41088, Note_on_c, 0, 77, 125
2, 41088, Note_on_c, 0, 81, 125
2, 41088, Note_on_c, 0, 86, 125
2, 41280, Note_off_c, 0, 86, 80
2, 41344, Note_off_c, 0, 75, 80
2, 41344, Note_off_c, 0, 77, 80
2, 41344, Note_off_c, 0, 81, 80
2, 41376, Note_on_c, 0, 84, 125
2, 41440, Note_off_c, 0, 84, 80
2, 41472, Note_on_c, 0, 74, 125
2, 41472, Note_on_c, 0, 77, 125
2, 41472, Note_on_c, 0, 82, 125
2, 41600, Note_off_c, 0, 74, 80
2, 41600, Note_off_c, 0, 77, 80
2, 41600, Note_off_c, 0, 82, 80
2, 43008, Note_on_c, 0, 71, 125
2, 43008, Note_on_c, 0, 75, 125
2, 43008, Note_on_c, 0, 80, 125
2, 43008, Note_on_c, 0, 83, 125
2, 43776, Note_off_c, 0, 71, 80
2, 43776, Note_off_c, 0, 75, 80
2, 43776, Note_off_c, 0, 80, 80
2, 43776, Note_off_c, 0, 83, 80
2, 44160, Note_on_c, 0, 63, 125
2, 44160, Note_on_c, 0, 68, 125
2, 44160, Note_on_c, 0, 71, 125
2, 44160, Note_on_c, 0, 75, 125
2, 44352, Note_off_c, 0, 63, 80
2, 44352, Note_off_c, 0, 68, 80
2, 44352, Note_off_c, 0, 71, 80
2, 44352, Note_off_c, 0, 75, 80
2, 44448, Note_on_c, 0, 65, 125
2, 44448, Note_on_c, 0, 77, 125
2, 44512, Note_off_c, 0, 65, 80
2, 44512, Note_off_c, 0, 77, 80
2, 44544, Note_on_c, 0, 66, 125
2, 44544, Note_on_c, 0, 70, 125
2, 44544, Note_on_c, 0, 75, 125
2, 44544, Note_on_c, 0, 78, 125
2, 45312, Note_off_c, 0, 66, 80
2, 45312, Note_off_c, 0, 70, 80
2, 45312, Note_off_c, 0, 75, 80
2, 45312, Note_off_c, 0, 78, 80
2, 45696, Note_on_c, 0, 66, 125
2, 45696, Note_on_c, 0, 78, 125
2, 45888, Note_off_c, 0, 66, 80
2, 45888, Note_off_c, 0, 78, 80
2, 45984, Note_on_c, 0, 68, 125
2, 45984, Note_on_c, 0, 80, 125
2, 46048, Note_off_c, 0, 68, 80
2, 46048, Note_off_c, 0, 80, 80
2, 46080, Note_on_c, 0, 69, 125
2, 46080, Note_on_c, 0, 73, 125
2, 46080, Note_on_c, 0, 78, 125
2, 46080, Note_on_c, 0, 81, 125
2, 46848, Note_off_c, 0, 69, 80
2, 46848, Note_off_c, 0, 73, 80
2, 46848, Note_off_c, 0, 78, 80
2, 46848, Note_off_c, 0, 81, 80
2, 47232, Note_on_c, 0, 61, 125
2, 47232, Note_on_c, 0, 66, 125
2, 47232, Note_on_c, 0, 69, 125
2, 47232, Note_on_c, 0, 73, 125
2, 47424, Note_off_c, 0, 61, 80
2, 47424, Note_off_c, 0, 66, 80
2, 47424, Note_off_c, 0, 69, 80
2, 47424, Note_off_c, 0, 73, 80
2, 47520, Note_on_c, 0, 63, 125
2, 47520, Note_on_c, 0, 75, 125
2, 47584, Note_off_c, 0, 63, 80
2, 47584, Note_off_c, 0, 75, 80
2, 47616, Note_on_c, 0, 64, 125
2, 47616, Note_on_c, 0, 68, 125
2, 47616, Note_on_c, 0, 73, 125
2, 47616, Note_on_c, 0, 76, 125
2, 48384, Note_off_c, 0, 64, 80
2, 48384, Note_off_c, 0, 68, 80
2, 48384, Note_off_c, 0, 73, 80
2, 48384, Note_off_c, 0, 76, 80
2, 48768, Note_on_c, 0, 64, 125
2, 48768, Note_on_c, 0, 76, 125
2, 48960, Note_off_c, 0, 64, 80
2, 48960, Note_off_c, 0, 76, 80
2, 49056, Note_on_c, 0, 66, 125
2, 49056, Note_on_c, 0, 78, 125
2, 49120, Note_off_c, 0, 66, 80
2, 49120, Note_off_c, 0, 78, 80
2, 49152, Note_on_c, 0, 68, 125
2, 49152, Note_on_c, 0, 75, 125
2, 49152, Note_on_c, 0, 78, 125
2, 49152, Note_on_c, 0, 80, 125
2, 49920, Note_off_c, 0, 68, 80
2, 49920, Note_off_c, 0, 75, 80
2, 49920, Note_off_c, 0, 78, 80
2, 49920, Note_off_c, 0, 80, 80
2, 50304, Note_on_c, 0, 68, 125
2, 50304, Note_on_c, 0, 75, 125
2, 50304, Note_on_c, 0, 78, 125
2, 50304, Note_on_c, 0, 80, 125
2, 50496, Note_off_c, 0, 68, 80
2, 50496, Note_off_c, 0, 75, 80
2, 50496, Note_off_c, 0, 78, 80
2, 50496, Note_off_c, 0, 80, 80
2, 50592, Note_on_c, 0, 69, 125
2, 50592, Note_on_c, 0, 81, 125
2, 50656, Note_off_c, 0, 69, 80
2, 50656, Note_off_c, 0, 81, 80
2, 50688, Note_on_c, 0, 71, 125
2, 50688, Note_on_c, 0, 77, 125
2, 50688, Note_on_c, 0, 80, 125
2, 50688, Note_on_c, 0, 83, 125
2, 50944, Note_off_c, 0, 71, 80
2, 50944, Note_off_c, 0, 77, 80
2, 50944, Note_off_c, 0, 80, 80
2, 50944, Note_off_c, 0, 83, 80
2, 51072, Note_on_c, 0, 70, 125
2, 51072, Note_on_c, 0, 77, 125
2, 51072, Note_on_c, 0, 80, 125
2, 51072, Note_on_c, 0, 82, 125
2, 51584, Note_off_c, 0, 70, 80
2, 51584, Note_off_c, 0, 77, 80
2, 51584, Note_off_c, 0, 80, 80
2, 51584, Note_off_c, 0, 82, 80
2, 51840, Note_on_c, 0, 70, 125
2, 51840, Note_on_c, 0, 77, 125
2, 51840, Note_on_c, 0, 80, 125
2, 51840, Note_on_c, 0, 82, 125
2, 52032, Note_off_c, 0, 70, 80
2, 52032, Note_off_c, 0, 77, 80
2, 52032, Note_off_c, 0, 80, 80
2, 52032, Note_off_c, 0, 82, 80
2, 52128, Note_on_c, 0, 72, 125
2, 52128, Note_on_c, 0, 84, 125
2, 52192, Note_off_c, 0, 72, 80
2, 52192, Note_off_c, 0, 84, 80
2, 52224, Note_on_c, 0, 73, 125
2, 52224, Note_on_c, 0, 79, 125
2, 52224, Note_on_c, 0, 82, 125
2, 52224, Note_on_c, 0, 85, 125
2, 52480, Note_off_c, 0, 73, 80
2, 52480, Note_off_c, 0, 79, 80
2, 52480, Note_off_c, 0, 82, 80
2, 52480, Note_off_c, 0, 85, 80
2, 52608, Note_on_c, 0, 72, 125
2, 52608, Note_on_c, 0, 79, 125
2, 52608, Note_on_c, 0, 82, 125
2, 52608, Note_on_c, 0, 84, 125
2, 52864, Note_off_c, 0, 72, 80
2, 52864, Note_off_c, 0, 79, 80
2, 52864, Note_off_c, 0, 82, 80
2, 52864, Note_off_c, 0, 84, 80
2, 55296, Note_on_c, 0, 92, 125
2, 55296, Note_on_c, 0, 89, 125
2, 55296, Note_on_c, 0, 80, 125
2, 55296, Note_on_c, 0, 84, 125
2, 55808, Note_off_c, 0, 92, 80
2, 55808, Note_off_c, 0, 89, 80
2, 55808, Note_off_c, 0, 80, 80
2, 55808, Note_off_c, 0, 84, 80
2, 56064, Note_on_c, 0, 77, 125
2, 56064, Note_on_c, 0, 84, 125
2, 56064, Note_on_c, 0, 89, 125
2, 56320, Note_off_c, 0, 77, 80
2, 56320, Note_off_c, 0, 84, 80
2, 56320, Note_off_c, 0, 89, 80
2, 56448, Note_on_c, 0, 67, 125
2, 56448, Note_on_c, 0, 72, 125
2, 56448, Note_on_c, 0, 77, 125
2, 56448, Note_on_c, 0, 84, 125
2, 56512, Note_off_c, 0, 67, 80
2, 56704, Note_off_c, 0, 72, 80
2, 56704, Note_off_c, 0, 77, 80
2, 56704, Note_off_c, 0, 84, 80
2, 56832, Note_on_c, 0, 70, 125
2, 56832, Note_on_c, 0, 77, 125
2, 56832, Note_on_c, 0, 82, 125
2, 57344, Note_off_c, 0, 70, 80
2, 57344, Note_off_c, 0, 77, 80
2, 57344, Note_off_c, 0, 82, 80
2, 57600, Note_on_c, 0, 68, 125
2, 57600, Note_on_c, 0, 77, 125
2, 57600, Note_on_c, 0, 80, 125
2, 57856, Note_off_c, 0, 68, 80
2, 57856, Note_off_c, 0, 77, 80
2, 57856, Note_off_c, 0, 80, 80
2, 58368, Note_on_c, 0, 92, 125
2, 58368, Note_on_c, 0, 89, 125
2, 58368, Note_on_c, 0, 84, 125
2, 58368, Note_on_c, 0, 80, 125
2, 58880, Note_off_c, 0, 92, 80
2, 58880, Note_off_c, 0, 89, 80
2, 58880, Note_off_c, 0, 84, 80
2, 58880, Note_off_c, 0, 80, 80
2, 59136, Note_on_c, 0, 77, 125
2, 59136, Note_on_c, 0, 84, 125
2, 59136, Note_on_c, 0, 89, 125
2, 59392, Note_off_c, 0, 77, 80
2, 59392, Note_off_c, 0, 84, 80
2, 59392, Note_off_c, 0, 89, 80
2, 59520, Note_on_c, 0, 55, 125
2, 59584, Note_off_c, 0, 55, 80
2, 59616, Note_on_c, 0, 68, 125
2, 59616, Note_on_c, 0, 77, 125
2, 59616, Note_on_c, 0, 84, 125
2, 59872, Note_off_c, 0, 68, 80
2, 59872, Note_off_c, 0, 77, 80
2, 59872, Note_off_c, 0, 84, 80
2, 59904, Note_on_c, 0, 72, 125
2, 59904, Note_on_c, 0, 77, 125
2, 59904, Note_on_c, 0, 84, 125
2, 60672, Note_off_c, 0, 72, 80
2, 60672, Note_off_c, 0, 77, 80
2, 60672, Note_off_c, 0, 84, 80
2, 61056, Note_on_c, 0, 71, 125
2, 61056, Note_on_c, 0, 77, 125
2, 61056, Note_on_c, 0, 83, 125
2, 61248, Note_off_c, 0, 71, 80
2, 61248, Note_off_c, 0, 77, 80
2, 61248, Note_off_c, 0, 83, 80
2, 61344, Note_on_c, 0, 84, 125
2, 61344, Note_on_c, 0, 72, 125
2, 61408, Note_off_c, 0, 84, 80
2, 61408, Note_off_c, 0, 72, 80
2, 61440, Note_on_c, 0, 74, 125
2, 61440, Note_on_c, 0, 77, 125
2, 61440, Note_on_c, 0, 83, 125
2, 61440, Note_on_c, 0, 86, 125
2, 61632, Note_on_c, 0, 55, 125
2, 61696, Note_off_c, 0, 55, 80
2, 61952, Note_off_c, 0, 74, 80
2, 61952, Note_off_c, 0, 77, 80
2, 61952, Note_off_c, 0, 83, 80
2, 61952, Note_off_c, 0, 86, 80
2, 64128, Note_on_c, 0, 68, 125
2, 64128, Note_on_c, 0, 75, 125
2, 64128, Note_on_c, 0, 77, 125
2, 64128, Note_on_c, 0, 80, 125
2, 64320, Note_off_c, 0, 68, 80
2, 64320, Note_off_c, 0, 75, 80
2, 64320, Note_off_c, 0, 77, 80
2, 64320, Note_off_c, 0, 80, 80
2, 64416, Note_on_c, 0, 79, 125
2, 64416, Note_on_c, 0, 67, 125
2, 64480, Note_off_c, 0, 79, 80
2, 64480, Note_off_c, 0, 67, 80
2, 64512, Note_on_c, 0, 77, 125
2, 64512, Note_on_c, 0, 79, 125
2, 64512, Note_on_c, 0, 86, 125
2, 64512, Note_on_c, 0, 89, 125
2, 65024, Note_off_c, 0, 77, 80
2, 65024, Note_off_c, 0, 79, 80
2, 65024, Note_off_c, 0, 86, 80
2, 65024, Note_off_c, 0, 89, 80
2, 67200, Note_on_c, 0, 68, 125
2, 67200, Note_on_c, 0, 75, 125
2, 67200, Note_on_c, 0, 77, 125
2, 67200, Note_on_c, 0, 80, 125
2, 67392, Note_off_c, 0, 68, 80
2, 67392, Note_off_c, 0, 75, 80
2, 67392, Note_off_c, 0, 77, 80
2, 67392, Note_off_c, 0, 80, 80
2, 67488, Note_on_c, 0, 67, 125
2, 67488, Note_on_c, 0, 79, 125
2, 67552, Note_off_c, 0, 67, 80
2, 67552, Note_off_c, 0, 79, 80
2, 67584, Note_on_c, 0, 91, 125
2, 67584, Note_on_c, 0, 77, 125
2, 67584, Note_on_c, 0, 79, 125
2, 67584, Note_on_c, 0, 86, 125
2, 67712, Note_off_c, 0, 91, 80
2, 67712, Note_off_c, 0, 77, 80
2, 67712, Note_off_c, 0, 79, 80
2, 67712, Note_off_c, 0, 86, 80
2, 67776, Note_on_c, 0, 92, 125
2, 67776, Note_on_c, 0, 80, 125
2, 67840, Note_off_c, 0, 92, 80
2, 67872, Note_on_c, 0, 91, 125
2, 67872, Note_on_c, 0, 79, 125
2, 67904, Note_off_c, 0, 80, 80
2, 67936, Note_off_c, 0, 91, 80
2, 67968, Note_on_c, 0, 89, 125
2, 67968, Note_on_c, 0, 77, 125
2, 68000, Note_off_c, 0, 79, 80
2, 68032, Note_off_c, 0, 89, 80
2, 68064, Note_on_c, 0, 91, 125
2, 68064, Note_on_c, 0, 79, 125
2, 68096, Note_off_c, 0, 77, 80
2, 68128, Note_off_c, 0, 79, 80
2, 68160, Note_on_c, 0, 89, 125
2, 68160, Note_on_c, 0, 77, 125
2, 68192, Note_off_c, 0, 91, 80
2, 68224, Note_off_c, 0, 77, 80
2, 68256, Note_on_c, 0, 86, 125
2, 68256, Note_on_c, 0, 74, 125
2, 68288, Note_off_c, 0, 89, 80
2, 68352, Note_on_c, 0, 83, 125
2, 68352, Note_on_c, 0, 71, 125
2, 68384, Note_off_c, 0, 86, 80
2, 68384, Note_off_c, 0, 74, 80
2, 68448, Note_on_c, 0, 79, 125
2, 68448, Note_on_c, 0, 67, 125
2, 68480, Note_off_c, 0, 83, 80
2, 68480, Note_off_c, 0, 71, 80
2, 68544, Note_on_c, 0, 80, 125
2, 68544, Note_on_c, 0, 68, 125
2, 68576, Note_off_c, 0, 79, 80
2, 68576, Note_off_c, 0, 67, 80
2, 68640, Note_on_c, 0, 79, 125
2, 68640, Note_on_c, 0, 67, 125
2, 68672, Note_off_c, 0, 80, 80
2, 68672, Note_off_c, 0, 68, 80
2, 68704, Note_off_c, 0, 67, 80
2, 68736, Note_on_c, 0, 77, 125
2, 68736, Note_on_c, 0, 65, 125
2, 68768, Note_off_c, 0, 79, 80
2, 68800, Note_off_c, 0, 65, 80
2, 68832, Note_on_c, 0, 74, 125
2, 68832, Note_on_c, 0, 62, 125
2, 68864, Note_off_c, 0, 77, 80
2, 68896, Note_off_c, 0, 62, 80
2, 68928, Note_on_c, 0, 75, 125
2, 68928, Note_on_c, 0, 63, 125
2, 68960, Note_off_c, 0, 74, 80
2, 68992, Note_off_c, 0, 63, 80
2, 69024, Note_on_c, 0, 74, 125
2, 69024, Note_on_c, 0, 62, 125
2, 69056, Note_off_c, 0, 75, 80
2, 69088, Note_off_c, 0, 62, 80
2, 69120, Note_on_c, 0, 71, 125
2, 69152, Note_off_c, 0, 74, 80
2, 69184, Note_off_c, 0, 71, 80
2, 69216, Note_on_c, 0, 67, 125
2, 69280, Note_off_c, 0, 67, 80
2, 69312, Note_on_c, 0, 68, 125
2, 69376, Note_off_c, 0, 68, 80
2, 69408, Note_on_c, 0, 67, 125
2, 69472, Note_off_c, 0, 67, 80
2, 69504, Note_on_c, 0, 65, 125
2, 69568, Note_off_c, 0, 65, 80
2, 69600, Note_on_c, 0, 62, 125
2, 69664, Note_off_c, 0, 62, 80
2, 69696, Note_on_c, 0, 63, 125
2, 69760, Note_off_c, 0, 63, 80
2, 69792, Note_on_c, 0, 62, 125
2, 69856, Note_off_c, 0, 62, 80
2, 76320, Note_on_c, 0, 84, 125
2, 76320, Note_on_c, 0, 72, 125
2, 76384, Note_off_c, 0, 84, 80
2, 76384, Note_off_c, 0, 72, 80
2, 76416, Note_on_c, 0, 85, 125
2, 76416, Note_on_c, 0, 73, 125
2, 76512, Note_on_c, 0, 74, 125
2, 76512, Note_on_c, 0, 86, 125
2, 76544, Note_off_c, 0, 85, 80
2, 76544, Note_off_c, 0, 73, 80
2, 76704, Note_off_c, 0, 74, 80
2, 76704, Note_off_c, 0, 86, 80
2, 76704, Note_on_c, 0, 75, 125
2, 76704, Note_on_c, 0, 87, 125
2, 76768, Note_off_c, 0, 75, 80
2, 76768, Note_off_c, 0, 87, 80
2, 76800, Note_on_c, 0, 87, 125
2, 76800, Note_on_c, 0, 75, 125
2, 77568, Note_off_c, 0, 87, 80
2, 77568, Note_off_c, 0, 75, 80
2, 77856, Note_on_c, 0, 67, 125
2, 77856, Note_on_c, 0, 72, 125
2, 77856, Note_on_c, 0, 75, 125
2, 77856, Note_on_c, 0, 79, 125
2, 77920, Note_off_c, 0, 67, 80
2, 77920, Note_off_c, 0, 72, 80
2, 77920, Note_off_c, 0, 75, 80
2, 77920, Note_off_c, 0, 79, 80
2, 77952, Note_on_c, 0, 67, 125
2, 77952, Note_on_c, 0, 72, 125
2, 77952, Note_on_c, 0, 75, 125
2, 77952, Note_on_c, 0, 79, 125
2, 78144, Note_off_c, 0, 67, 80
2, 78144, Note_off_c, 0, 72, 80
2, 78144, Note_off_c, 0, 75, 80
2, 78144, Note_off_c, 0, 79, 80
2, 78240, Note_on_c, 0, 67, 125
2, 78240, Note_on_c, 0, 72, 125
2, 78240, Note_on_c, 0, 75, 125
2, 78240, Note_on_c, 0, 79, 125
2, 78304, Note_off_c, 0, 67, 80
2, 78304, Note_off_c, 0, 72, 80
2, 78304, Note_off_c, 0, 75, 80
2, 78304, Note_off_c, 0, 79, 80
2, 78336, Note_on_c, 0, 68, 125
2, 78336, Note_on_c, 0, 72, 125
2, 78336, Note_on_c, 0, 75, 125
2, 78336, Note_on_c, 0, 80, 125
2, 78848, Note_off_c, 0, 68, 80
2, 78848, Note_off_c, 0, 72, 80
2, 78848, Note_off_c, 0, 75, 80
2, 78848, Note_off_c, 0, 80, 80
2, 79104, Note_on_c, 0, 67, 125
2, 79104, Note_on_c, 0, 72, 125
2, 79104, Note_on_c, 0, 75, 125
2, 79104, Note_on_c, 0, 79, 125
2, 79200, Note_on_c, 0, 71, 125
2, 79200, Note_on_c, 0, 83, 125
2, 79232, Note_off_c, 0, 67, 80
2, 79232, Note_off_c, 0, 72, 80
2, 79232, Note_off_c, 0, 75, 80
2, 79232, Note_off_c, 0, 79, 80
2, 79328, Note_off_c, 0, 71, 80
2, 79328, Note_off_c, 0, 83, 80
2, 79392, Note_on_c, 0, 72, 125
2, 79392, Note_on_c, 0, 84, 125
2, 79488, Note_on_c, 0, 73, 125
2, 79488, Note_on_c, 0, 85, 125
2, 79520, Note_off_c, 0, 72, 80
2, 79520, Note_off_c, 0, 84, 80
2, 79584, Note_on_c, 0, 74, 125
2, 79584, Note_on_c, 0, 86, 125
2, 79616, Note_off_c, 0, 73, 80
2, 79616, Note_off_c, 0, 85, 80
2, 79712, Note_off_c, 0, 74, 80
2, 79712, Note_off_c, 0, 86, 80
2, 79776, Note_on_c, 0, 75, 125
2, 79776, Note_on_c, 0, 87, 125
2, 79840, Note_off_c, 0, 75, 80
2, 79840, Note_off_c, 0, 87, 80
2, 79872, Note_on_c, 0, 75, 125
2, 79872, Note_on_c, 0, 87, 125
2, 80384, Note_off_c, 0, 75, 80
2, 80384, Note_off_c, 0, 87, 80
2, 81024, Note_on_c, 0, 67, 125
2, 81024, Note_on_c, 0, 72, 125
2, 81024, Note_on_c, 0, 75, 125
2, 81024, Note_on_c, 0, 79, 125
2, 81088, Note_off_c, 0, 67, 80
2, 81088, Note_off_c, 0, 72, 80
2, 81088, Note_off_c, 0, 75, 80
2, 81088, Note_off_c, 0, 79, 80
2, 81120, Note_on_c, 0, 67, 125
2, 81120, Note_on_c, 0, 72, 125
2, 81120, Note_on_c, 0, 75, 125
2, 81120, Note_on_c, 0, 79, 125
2, 81312, Note_off_c, 0, 67, 80
2, 81312, Note_off_c, 0, 72, 80
2, 81312, Note_off_c, 0, 75, 80
2, 81312, Note_off_c, 0, 79, 80
2, 81312, Note_on_c, 0, 67, 125
2, 81312, Note_on_c, 0, 72, 125
2, 81312, Note_on_c, 0, 75, 125
2, 81312, Note_on_c, 0, 79, 125
2, 81376, Note_off_c, 0, 67, 80
2, 81376, Note_off_c, 0, 72, 80
2, 81376, Note_off_c, 0, 75, 80
2, 81376, Note_off_c, 0, 79, 80
2, 81408, Note_on_c, 0, 69, 125
2, 81408, Note_on_c, 0, 72, 125
2, 81408, Note_on_c, 0, 75, 125
2, 81408, Note_on_c, 0, 81, 125
2, 82436, Note_off_c, 0, 69, 80
2, 82436, Note_off_c, 0, 72, 80
2, 82436, Note_off_c, 0, 75, 80
2, 82436, Note_off_c, 0, 81, 80
2, 82944, Note_on_c, 0, 69, 125
2, 82944, Note_on_c, 0, 74, 125
2, 82944, Note_on_c, 0, 81, 125
2, 82944, Note_on_c, 0, 86, 125
2, 83072, Note_off_c, 0, 69, 80
2, 83072, Note_off_c, 0, 74, 80
2, 83072, Note_off_c, 0, 81, 80
2, 83072, Note_off_c, 0, 86, 80
2, 83328, Note_on_c, 0, 67, 125
2, 83328, Note_on_c, 0, 74, 125
2, 83328, Note_on_c, 0, 79, 125
2, 83584, Note_off_c, 0, 67, 80
2, 83584, Note_off_c, 0, 74, 80
2, 83584, Note_off_c, 0, 79, 80
2, 83808, Note_on_c, 0, 67, 125
2, 83808, Note_on_c, 0, 73, 125
2, 83808, Note_on_c, 0, 79, 125
2, 83904, Note_on_c, 0, 67, 125
2, 83904, Note_on_c, 0, 73, 125
2, 83904, Note_on_c, 0, 79, 125
2, 83936, Note_off_c, 0, 67, 80
2, 83936, Note_off_c, 0, 73, 80
2, 83936, Note_off_c, 0, 79, 80
2, 84032, Note_off_c, 0, 67, 80
2, 84032, Note_off_c, 0, 73, 80
2, 84032, Note_off_c, 0, 79, 80
2, 84096, Note_on_c, 0, 69, 125
2, 84096, Note_on_c, 0, 73, 125
2, 84096, Note_on_c, 0, 79, 125
2, 84192, Note_on_c, 0, 68, 125
2, 84192, Note_on_c, 0, 73, 125
2, 84192, Note_on_c, 0, 80, 125
2, 84224, Note_off_c, 0, 69, 80
2, 84224, Note_off_c, 0, 73, 80
2, 84224, Note_off_c, 0, 79, 80
2, 84320, Note_off_c, 0, 68, 80
2, 84320, Note_off_c, 0, 73, 80
2, 84320, Note_off_c, 0, 80, 80
2, 84384, Note_on_c, 0, 67, 125
2, 84384, Note_on_c, 0, 73, 125
2, 84384, Note_on_c, 0, 79, 125
2, 84448, Note_off_c, 0, 67, 80
2, 84448, Note_off_c, 0, 73, 80
2, 84448, Note_off_c, 0, 79, 80
2, 84480, Note_on_c, 0, 67, 125
2, 84480, Note_on_c, 0, 72, 125
2, 84480, Note_on_c, 0, 79, 125
2, 84544, Note_off_c, 0, 67, 80
2, 84544, Note_off_c, 0, 72, 80
2, 84544, Note_off_c, 0, 79, 80
2, 84576, Note_on_c, 0, 72, 125
2, 84576, Note_on_c, 0, 84, 125
2, 84640, Note_off_c, 0, 72, 80
2, 84640, Note_off_c, 0, 84, 80
2, 84864, Note_on_c, 0, 65, 125
2, 84864, Note_on_c, 0, 72, 125
2, 84864, Note_on_c, 0, 77, 125
2, 85120, Note_off_c, 0, 65, 80
2, 85120, Note_off_c, 0, 72, 80
2, 85120, Note_off_c, 0, 77, 80
2, 85344, Note_on_c, 0, 65, 125
2, 85344, Note_on_c, 0, 72, 125
2, 85344, Note_on_c, 0, 77, 125
2, 85472, Note_off_c, 0, 65, 80
2, 85472, Note_off_c, 0, 72, 80
2, 85472, Note_off_c, 0, 77, 80
2, 85536, Note_on_c, 0, 65, 125
2, 85536, Note_on_c, 0, 72, 125
2, 85536, Note_on_c, 0, 77, 125
2, 85632, Note_on_c, 0, 64, 125
2, 85632, Note_on_c, 0, 72, 125
2, 85632, Note_on_c, 0, 76, 125
2, 85664, Note_off_c, 0, 65, 80
2, 85664, Note_off_c, 0, 72, 80
2, 85664, Note_off_c, 0, 77, 80
2, 85696, Note_off_c, 0, 64, 80
2, 85696, Note_off_c, 0, 72, 80
2, 85696, Note_off_c, 0, 76, 80
2, 85728, Note_on_c, 0, 77, 125
2, 85728, Note_on_c, 0, 72, 125
2, 85728, Note_on_c, 0, 65, 125
2, 85792, Note_off_c, 0, 77, 80
2, 85792, Note_off_c, 0, 72, 80
2, 85792, Note_off_c, 0, 65, 80
2, 85824, Note_on_c, 0, 67, 125
2, 85824, Note_on_c, 0, 72, 125
2, 85824, Note_on_c, 0, 79, 125
2, 85888, Note_off_c, 0, 67, 80
2, 85888, Note_off_c, 0, 72, 80
2, 85888, Note_off_c, 0, 79, 80
2, 85920, Note_on_c, 0, 65, 125
2, 85920, Note_on_c, 0, 72, 125
2, 85920, Note_on_c, 0, 77, 125
2, 85984, Note_off_c, 0, 65, 80
2, 85984, Note_off_c, 0, 72, 80
2, 85984, Note_off_c, 0, 77, 80
2, 86016, Note_on_c, 0, 64, 125
2, 86016, Note_on_c, 0, 72, 125
2, 86016, Note_on_c, 0, 76, 125
2, 86272, Note_off_c, 0, 64, 80
2, 86272, Note_off_c, 0, 72, 80
2, 86272, Note_off_c, 0, 76, 80
2, 86400, Note_on_c, 0, 63, 125
2, 86400, Note_on_c, 0, 75, 125
2, 86400, Note_on_c, 0, 72, 125
2, 86912, Note_off_c, 0, 63, 80
2, 86912, Note_off_c, 0, 75, 80
2, 87168, Note_off_c, 0, 72, 80
2, 87168, Note_on_c, 0, 63, 125
2, 87168, Note_on_c, 0, 75, 125
2, 87360, Note_off_c, 0, 63, 80
2, 87360, Note_off_c, 0, 75, 80
2, 87456, Note_on_c, 0, 63, 125
2, 87456, Note_on_c, 0, 75, 125
2, 87520, Note_off_c, 0, 63, 80
2, 87520, Note_off_c, 0, 75, 80
2, 87552, Note_on_c, 0, 63, 125
2, 87552, Note_on_c, 0, 75, 125
2, 87552, Note_on_c, 0, 71, 125
2, 87808, Note_off_c, 0, 63, 80
2, 87808, Note_off_c, 0, 75, 80
2, 87936, Note_on_c, 0, 62, 125
2, 87936, Note_on_c, 0, 74, 125
2, 88064, Note_off_c, 0, 71, 80
2, 88192, Note_off_c, 0, 62, 80
2, 88192, Note_off_c, 0, 74, 80
2, 91488, Note_on_c, 0, 71, 125
2, 91488, Note_on_c, 0, 83, 125
2, 91616, Note_off_c, 0, 71, 80
2, 91616, Note_off_c, 0, 83, 80
2, 91680, Note_on_c, 0, 73, 125
2, 91680, Note_on_c, 0, 85, 125
2, 91776, Note_on_c, 0, 73, 125
2, 91776, Note_on_c, 0, 85, 125
2, 91808, Note_off_c, 0, 73, 80
2, 91808, Note_off_c, 0, 85, 80
2, 91872, Note_on_c, 0, 74, 125
2, 91872, Note_on_c, 0, 86, 125
2, 91904, Note_off_c, 0, 73, 80
2, 91904, Note_off_c, 0, 85, 80
2, 92000, Note_off_c, 0, 74, 80
2, 92000, Note_off_c, 0, 86, 80
2, 92064, Note_on_c, 0, 75, 125
2, 92064, Note_on_c, 0, 87, 125
2, 92128, Note_off_c, 0, 75, 80
2, 92128, Note_off_c, 0, 87, 80
2, 92160, Note_on_c, 0, 75, 125
2, 92160, Note_on_c, 0, 87, 125
2, 92672, Note_off_c, 0, 75, 80
2, 92672, Note_off_c, 0, 87, 80
2, 93216, Note_on_c, 0, 67, 125
2, 93216, Note_on_c, 0, 72, 125
2, 93216, Note_on_c, 0, 75, 125
2, 93216, Note_on_c, 0, 79, 125
2, 93280, Note_off_c, 0, 67, 80
2, 93280, Note_off_c, 0, 72, 80
2, 93280, Note_off_c, 0, 75, 80
2, 93280, Note_off_c, 0, 79, 80
2, 93312, Note_on_c, 0, 67, 125
2, 93312, Note_on_c, 0, 72, 125
2, 93312, Note_on_c, 0, 75, 125
2, 93312, Note_on_c, 0, 79, 125
2, 93504, Note_off_c, 0, 67, 80
2, 93504, Note_off_c, 0, 72, 80
2, 93504, Note_off_c, 0, 75, 80
2, 93504, Note_off_c, 0, 79, 80
2, 93600, Note_on_c, 0, 67, 125
2, 93600, Note_on_c, 0, 72, 125
2, 93600, Note_on_c, 0, 75, 125
2, 93600, Note_on_c, 0, 79, 125
2, 93664, Note_off_c, 0, 67, 80
2, 93664, Note_off_c, 0, 72, 80
2, 93664, Note_off_c, 0, 75, 80
2, 93664, Note_off_c, 0, 79, 80
2, 93696, Note_on_c, 0, 80, 125
2, 93696, Note_on_c, 0, 75, 125
2, 93696, Note_on_c, 0, 72, 125
2, 93696, Note_on_c, 0, 68, 125
2, 94208, Note_off_c, 0, 80, 80
2, 94208, Note_off_c, 0, 75, 80
2, 94208, Note_off_c, 0, 72, 80
2, 94208, Note_off_c, 0, 68, 80
2, 94464, Note_on_c, 0, 67, 125
2, 94464, Note_on_c, 0, 72, 125
2, 94464, Note_on_c, 0, 75, 125
2, 94464, Note_on_c, 0, 79, 125
2, 94560, Note_on_c, 0, 71, 125
2, 94560, Note_on_c, 0, 83, 125
2, 94592, Note_off_c, 0, 67, 80
2, 94592, Note_off_c, 0, 72, 80
2, 94592, Note_off_c, 0, 75, 80
2, 94592, Note_off_c, 0, 79, 80
2, 94688, Note_off_c, 0, 71, 80
2, 94688, Note_off_c, 0, 83, 80
2, 94752, Note_on_c, 0, 72, 125
2, 94752, Note_on_c, 0, 84, 125
2, 94848, Note_on_c, 0, 73, 125
2, 94848, Note_on_c, 0, 85, 125
2, 94880, Note_off_c, 0, 72, 80
2, 94880, Note_off_c, 0, 84, 80
2, 94912, Note_off_c, 0, 73, 80
2, 94912, Note_off_c, 0, 85, 80
2, 94944, Note_on_c, 0, 74, 125
2, 94944, Note_on_c, 0, 86, 125
2, 95008, Note_off_c, 0, 74, 80
2, 95008, Note_off_c, 0, 86, 80
2, 95040, Note_on_c, 0, 77, 125
2, 95040, Note_on_c, 0, 89, 125
2, 95104, Note_off_c, 0, 77, 80
2, 95104, Note_off_c, 0, 89, 80
2, 95136, Note_on_c, 0, 75, 125
2, 95136, Note_on_c, 0, 87, 125
2, 95200, Note_off_c, 0, 75, 80
2, 95200, Note_off_c, 0, 87, 80
2, 95232, Note_on_c, 0, 75, 125
2, 95232, Note_on_c, 0, 87, 125
2, 95744, Note_off_c, 0, 75, 80
2, 95744, Note_off_c, 0, 87, 80
2, 96288, Note_on_c, 0, 67, 125
2, 96288, Note_on_c, 0, 72, 125
2, 96288, Note_on_c, 0, 75, 125
2, 96288, Note_on_c, 0, 79, 125
2, 96352, Note_off_c, 0, 67, 80
2, 96352, Note_off_c, 0, 72, 80
2, 96352, Note_off_c, 0, 75, 80
2, 96352, Note_off_c, 0, 79, 80
2, 96384, Note_on_c, 0, 67, 125
2, 96384, Note_on_c, 0, 72, 125
2, 96384, Note_on_c, 0, 75, 125
2, 96384, Note_on_c, 0, 79, 125
2, 96576, Note_off_c, 0, 67, 80
2, 96576, Note_off_c, 0, 72, 80
2, 96576, Note_off_c, 0, 75, 80
2, 96576, Note_off_c, 0, 79, 80
2, 96672, Note_on_c, 0, 67, 125
2, 96672, Note_on_c, 0, 72, 125
2, 96672, Note_on_c, 0, 72, 125
2, 96672, Note_on_c, 0, 75, 125
2, 96672, Note_on_c, 0, 79, 125
2, 96736, Note_off_c, 0, 67, 80
2, 96736, Note_off_c, 0, 72, 80
2, 96736, Note_off_c, 0, 72, 80
2, 96736, Note_off_c, 0, 75, 80
2, 96736, Note_off_c, 0, 79, 80
2, 96768, Note_on_c, 0, 69, 125
2, 96768, Note_on_c, 0, 75, 125
2, 96768, Note_on_c, 0, 81, 125
2, 97796, Note_off_c, 0, 69, 80
2, 97796, Note_off_c, 0, 75, 80
2, 97796, Note_off_c, 0, 81, 80
2, 98304, Note_on_c, 0, 82, 125
2, 98304, Note_on_c, 0, 73, 125
2, 98304, Note_on_c, 0, 70, 125
2, 98816, Note_off_c, 0, 82, 80
2, 98816, Note_off_c, 0, 73, 80
2, 98816, Note_off_c, 0, 70, 80
2, 99072, Note_on_c, 0, 68, 125
2, 99072, Note_on_c, 0, 70, 125
2, 99072, Note_on_c, 0, 73, 125
2, 99072, Note_on_c, 0, 80, 125
2, 99328, Note_off_c, 0, 68, 80
2, 99328, Note_off_c, 0, 70, 80
2, 99328, Note_off_c, 0, 73, 80
2, 99328, Note_off_c, 0, 80, 80
2, 99456, Note_on_c, 0, 66, 125
2, 99456, Note_on_c, 0, 70, 125
2, 99456, Note_on_c, 0, 73, 125
2, 99456, Note_on_c, 0, 78, 125
2, 99648, Note_off_c, 0, 66, 80
2, 99648, Note_off_c, 0, 70, 80
2, 99648, Note_off_c, 0, 73, 80
2, 99648, Note_off_c, 0, 78, 80
2, 99744, Note_on_c, 0, 65, 125
2, 99744, Note_on_c, 0, 70, 125
2, 99744, Note_on_c, 0, 73, 125
2, 99744, Note_on_c, 0, 77, 125
2, 99808, Note_off_c, 0, 65, 80
2, 99808, Note_off_c, 0, 70, 80
2, 99808, Note_off_c, 0, 73, 80
2, 99808, Note_off_c, 0, 77, 80
2, 99840, Note_on_c, 0, 65, 125
2, 99840, Note_on_c, 0, 70, 125
2, 99840, Note_on_c, 0, 73, 125
2, 99840, Note_on_c, 0, 77, 125
2, 100352, Note_off_c, 0, 65, 80
2, 100352, Note_off_c, 0, 70, 80
2, 100352, Note_off_c, 0, 73, 80
2, 100352, Note_off_c, 0, 77, 80
2, 100608, Note_on_c, 0, 64, 125
2, 100608, Note_on_c, 0, 70, 125
2, 100608, Note_on_c, 0, 76, 125
2, 100864, Note_off_c, 0, 64, 80
2, 100864, Note_off_c, 0, 70, 80
2, 100864, Note_off_c, 0, 76, 80
2, 101376, Note_on_c, 0, 68, 125
2, 101376, Note_on_c, 0, 71, 125
2, 101376, Note_on_c, 0, 76, 125
2, 101376, Note_on_c, 0, 80, 125
2, 101888, Note_off_c, 0, 68, 80
2, 101888, Note_off_c, 0, 71, 80
2, 101888, Note_off_c, 0, 76, 80
2, 101888, Note_off_c, 0, 80, 80
2, 102144, Note_on_c, 0, 66, 125
2, 102144, Note_on_c, 0, 68, 125
2, 102144, Note_on_c, 0, 71, 125
2, 102144, Note_on_c, 0, 78, 125
2, 102400, Note_off_c, 0, 66, 80
2, 102400, Note_off_c, 0, 68, 80
2, 102400, Note_off_c, 0, 71, 80
2, 102400, Note_off_c, 0, 78, 80
2, 102528, Note_on_c, 0, 64, 125
2, 102528, Note_on_c, 0, 68, 125
2, 102528, Note_on_c, 0, 76, 125
2, 102528, Note_on_c, 0, 71, 125
2, 102720, Note_off_c, 0, 64, 80
2, 102720, Note_off_c, 0, 68, 80
2, 102720, Note_off_c, 0, 76, 80
2, 102720, Note_off_c, 0, 71, 80
2, 102816, Note_on_c, 0, 63, 125
2, 102816, Note_on_c, 0, 68, 125
2, 102816, Note_on_c, 0, 71, 125
2, 102816, Note_on_c, 0, 75, 125
2, 102880, Note_off_c, 0, 63, 80
2, 102880, Note_off_c, 0, 68, 80
2, 102880, Note_off_c, 0, 71, 80
2, 102880, Note_off_c, 0, 75, 80
2, 102912, Note_on_c, 0, 63, 125
2, 102912, Note_on_c, 0, 68, 125
2, 102912, Note_on_c, 0, 71, 125
2, 102912, Note_on_c, 0, 75, 125
2, 103424, Note_off_c, 0, 63, 80
2, 103424, Note_off_c, 0, 68, 80
2, 103424, Note_off_c, 0, 71, 80
2, 103424, Note_off_c, 0, 75, 80
2, 103680, Note_on_c, 0, 62, 125
2, 103680, Note_on_c, 0, 68, 125
2, 103680, Note_on_c, 0, 74, 125
2, 103936, Note_off_c, 0, 62, 80
2, 103936, Note_off_c, 0, 68, 80
2, 103936, Note_off_c, 0, 74, 80
2, 104448, Note_on_c, 0, 67, 125
2, 104448, Note_on_c, 0, 75, 125
2, 104448, Note_on_c, 0, 79, 125
2, 105476, Note_off_c, 0, 67, 80
2, 105476, Note_off_c, 0, 75, 80
2, 105476, Note_off_c, 0, 79, 80
2, 105984, Note_on_c, 0, 67, 125
2, 105984, Note_on_c, 0, 79, 125
2, 105984, Note_on_c, 0, 74, 125
2, 106496, Note_off_c, 0, 67, 80
2, 106496, Note_off_c, 0, 79, 80
2, 106752, Note_on_c, 0, 67, 125
2, 106752, Note_on_c, 0, 79, 125
2, 107012, Note_off_c, 0, 74, 80
2, 107136, Note_off_c, 0, 79, 80
2, 107264, Note_off_c, 0, 67, 80
2, 107328, Note_on_c, 0, 77, 125
2, 107456, Note_off_c, 0, 77, 80
2, 107520, Note_on_c, 0, 77, 125
2, 107520, Note_on_c, 0, 72, 125
2, 107520, Note_on_c, 0, 67, 125
2, 108032, Note_off_c, 0, 77, 80
2, 108288, Note_on_c, 0, 75, 125
2, 108548, Note_off_c, 0, 72, 80
2, 108548, Note_off_c, 0, 67, 80
2, 108800, Note_off_c, 0, 75, 80
2, 109056, Note_on_c, 0, 65, 125
2, 109056, Note_on_c, 0, 65, 125
2, 109056, Note_on_c, 0, 68, 125
2, 109056, Note_on_c, 0, 75, 125
2, 109184, Note_off_c, 0, 75, 80
2, 109248, Note_on_c, 0, 77, 125
2, 109344, Note_on_c, 0, 75, 125
2, 109376, Note_off_c, 0, 77, 80
2, 109408, Note_off_c, 0, 75, 80
2, 109440, Note_on_c, 0, 73, 125
2, 109632, Note_off_c, 0, 73, 80
2, 109728, Note_on_c, 0, 75, 125
2, 109792, Note_off_c, 0, 75, 80
2, 109824, Note_on_c, 0, 77, 125
2, 110080, Note_off_c, 0, 77, 80
2, 110084, Note_off_c, 0, 65, 80
2, 110084, Note_off_c, 0, 65, 80
2, 110084, Note_off_c, 0, 68, 80
2, 110208, Note_on_c, 0, 68, 125
2, 110464, Note_off_c, 0, 68, 80
2, 110592, Note_on_c, 0, 63, 125
2, 110592, Note_on_c, 0, 72, 125
2, 111620, Note_off_c, 0, 63, 80
2, 111620, Note_off_c, 0, 72, 80
2, 112128, Note_on_c, 0, 63, 125
2, 112128, Note_on_c, 0, 72, 125
2, 113156, Note_off_c, 0, 63, 80
2, 113156, Note_off_c, 0, 72, 80
2, 113664, Note_on_c, 0, 72, 125
2, 113664, Note_on_c, 0, 65, 125
2, 113664, Note_on_c, 0, 62, 125
2, 114048, Note_off_c, 0, 72, 80
2, 114240, Note_on_c, 0, 71, 125
2, 114368, Note_off_c, 0, 71, 80
2, 114432, Note_off_c, 0, 65, 80
2, 114432, Note_off_c, 0, 62, 80
2, 114432, Note_on_c, 0, 74, 125
2, 114688, Note_off_c, 0, 74, 80
2, 116736, Note_on_c, 0, 72, 125
2, 116736, Note_on_c, 0, 60, 125
2, 116864, Note_off_c, 0, 60, 80
2, 117764, Note_off_c, 0, 72, 80
2, 118272, Note_on_c, 0, 72, 125
2, 118272, Note_on_c, 0, 68, 125
2, 118272, Note_on_c, 0, 65, 125
2, 118784, Note_off_c, 0, 72, 80
2, 119040, Note_on_c, 0, 74, 125
2, 119300, Note_off_c, 0, 68, 80
2, 119300, Note_off_c, 0, 65, 80
2, 119552, Note_off_c, 0, 74, 80
2, 119808, Note_on_c, 0, 76, 125
2, 119808, Note_on_c, 0, 67, 125
2, 119808, Note_on_c, 0, 64, 125
2, 120836, Note_off_c, 0, 76, 80
2, 120836, Note_off_c, 0, 67, 80
2, 120836, Note_off_c, 0, 64, 80
2, 121344, Note_on_c, 0, 60, 125
2, 121344, Note_on_c, 0, 68, 125
2, 121344, Note_on_c, 0, 67, 125
2, 121344, Note_on_c, 0, 72, 125
2, 121856, Note_off_c, 0, 67, 80
2, 122112, Note_off_c, 0, 72, 80
2, 122112, Note_on_c, 0, 65, 125
2, 122372, Note_off_c, 0, 60, 80
2, 122372, Note_off_c, 0, 68, 80
2, 122496, Note_on_c, 0, 74, 125
2, 122496, Note_on_c, 0, 71, 125
2, 122624, Note_off_c, 0, 65, 80
2, 122752, Note_off_c, 0, 74, 80
2, 122752, Note_off_c, 0, 71, 80
2, 122880, Note_on_c, 0, 76, 125
2, 122880, Note_on_c, 0, 72, 125
2, 122880, Note_on_c, 0, 67, 125
2, 122880, Note_on_c, 0, 64, 125
2, 123008, Note_off_c, 0, 76, 80
2, 123008, Note_off_c, 0, 72, 80
2, 123008, Note_off_c, 0, 67, 80
2, 123008, Note_off_c, 0, 64, 80
2, 123072, Note_on_c, 0, 92, 125
2, 123072, Note_on_c, 0, 80, 125
2, 123136, Note_off_c, 0, 92, 80
2, 123136, Note_off_c, 0, 80, 80
2, 123168, Note_on_c, 0, 91, 125
2, 123168, Note_on_c, 0, 79, 125
2, 123232, Note_off_c, 0, 91, 80
2, 123232, Note_off_c, 0, 79, 80
2, 123264, Note_on_c, 0, 88, 125
2, 123264, Note_on_c, 0, 76, 125
2, 123328, Note_off_c, 0, 88, 80
2, 123328, Note_off_c, 0, 76, 80
2, 123360, Note_on_c, 0, 84, 125
2, 123360, Note_on_c, 0, 72, 125
2, 123424, Note_off_c, 0, 84, 80
2, 123424, Note_off_c, 0, 72, 80
2, 123456, Note_on_c, 0, 85, 125
2, 123456, Note_on_c, 0, 73, 125
2, 123520, Note_off_c, 0, 85, 80
2, 123520, Note_off_c, 0, 73, 80
2, 123552, Note_on_c, 0, 84, 125
2, 123552, Note_on_c, 0, 72, 125
2, 123616, Note_off_c, 0, 84, 80
2, 123616, Note_off_c, 0, 72, 80
2, 123648, Note_on_c, 0, 82, 125
2, 123648, Note_on_c, 0, 70, 125
2, 123712, Note_off_c, 0, 82, 80
2, 123712, Note_off_c, 0, 70, 80
2, 123744, Note_on_c, 0, 79, 125
2, 123744, Note_on_c, 0, 67, 125
2, 123808, Note_off_c, 0, 79, 80
2, 123808, Note_off_c, 0, 67, 80
2, 123840, Note_on_c, 0, 80, 125
2, 123840, Note_on_c, 0, 68, 125
2, 123904, Note_off_c, 0, 80, 80
2, 123904, Note_off_c, 0, 68, 80
2, 123936, Note_on_c, 0, 79, 125
2, 123936, Note_on_c, 0, 67, 125
2, 124000, Note_off_c, 0, 79, 80
2, 124000, Note_off_c, 0, 67, 80
2, 124032, Note_on_c, 0, 76, 125
2, 124032, Note_on_c, 0, 64, 125
2, 124096, Note_off_c, 0, 76, 80
2, 124096, Note_off_c, 0, 64, 80
2, 124128, Note_on_c, 0, 72, 125
2, 124128, Note_on_c, 0, 60, 125
2, 124192, Note_off_c, 0, 72, 80
2, 124192, Note_off_c, 0, 60, 80
2, 124224, Note_on_c, 0, 73, 125
2, 124224, Note_on_c, 0, 61, 125
2, 124288, Note_off_c, 0, 73, 80
2, 124288, Note_off_c, 0, 61, 80
2, 124320, Note_on_c, 0, 72, 125
2, 124320, Note_on_c, 0, 60, 125
2, 124384, Note_off_c, 0, 72, 80
2, 124384, Note_off_c, 0, 60, 80
2, 124416, Note_on_c, 0, 70, 125
2, 124480, Note_off_c, 0, 70, 80
2, 124512, Note_on_c, 0, 67, 125
2, 124576, Note_off_c, 0, 67, 80
2, 124608, Note_on_c, 0, 68, 125
2, 124672, Note_off_c, 0, 68, 80
2, 124704, Note_on_c, 0, 67, 125
2, 124768, Note_off_c, 0, 67, 80
2, 124800, Note_on_c, 0, 64, 125
2, 124864, Note_off_c, 0, 64, 80
2, 124896, Note_on_c, 0, 60, 125
2, 124960, Note_off_c, 0, 60, 80
2, 124992, Note_on_c, 0, 61, 125
2, 125056, Note_off_c, 0, 61, 80
2, 125088, Note_on_c, 0, 60, 125
2, 125152, Note_off_c, 0, 60, 80
2, 125152, End_track
3, 0, Start_track
3, 0, Title_t, "FREDERICK CHOPIN"
3, 0, Control_c, 1, 0, 0
3, 0, Program_c, 1, 0
3, 0, Control_c, 1, 91, 36
3, 0, Control_c, 1, 93, 39
3, 0, Key_signature, -3, "major"
3, 96, Note_on_c, 1, 67, 118
3, 160, Note_off_c, 1, 67, 75
3, 192, Note_on_c, 1, 65, 118
3, 256, Note_off_c, 1, 65, 75
3, 288, Note_on_c, 1, 62, 118
3, 352, Note_off_c, 1, 62, 75
3, 384, Note_on_c, 1, 63, 118
3, 448, Note_off_c, 1, 63, 75
3, 480, Note_on_c, 1, 62, 118
3, 544, Note_off_c, 1, 62, 75
3, 576, Note_on_c, 1, 59, 118
3, 640, Note_off_c, 1, 59, 75
3, 672, Note_on_c, 1, 55, 118
3, 736, Note_off_c, 1, 55, 75
3, 768, Note_on_c, 1, 56, 118
3, 832, Note_off_c, 1, 56, 75
3, 864, Note_on_c, 1, 55, 118
3, 928, Note_off_c, 1, 55, 75
3, 960, Note_on_c, 1, 53, 118
3, 1024, Note_off_c, 1, 53, 75
3, 1056, Note_on_c, 1, 50, 118
3, 1120, Note_off_c, 1, 50, 75
3, 1152, Note_on_c, 1, 51, 118
3, 1216, Note_off_c, 1, 51, 75
3, 1248, Note_on_c, 1, 50, 118
3, 1312, Note_off_c, 1, 50, 75
3, 1344, Note_on_c, 1, 48, 118
3, 1408, Note_off_c, 1, 48, 75
3, 1440, Note_on_c, 1, 46, 118
3, 1504, Note_off_c, 1, 46, 75
3, 1536, Note_on_c, 1, 47, 118
3, 1600, Note_off_c, 1, 47, 75
3, 1632, Note_on_c, 1, 43, 118
3, 1696, Note_off_c, 1, 43, 75
3, 1728, Note_on_c, 1, 44, 118
3, 1792, Note_off_c, 1, 44, 75
3, 1824, Note_on_c, 1, 43, 118
3, 1888, Note_off_c, 1, 43, 75
3, 1920, Note_on_c, 1, 41, 118
3, 1984, Note_off_c, 1, 41, 75
3, 2016, Note_on_c, 1, 38, 118
3, 2080, Note_off_c, 1, 38, 75
3, 2112, Note_on_c, 1, 39, 118
3, 2176, Note_off_c, 1, 39, 75
3, 2208, Note_on_c, 1, 38, 118
3, 2272, Note_off_c, 1, 38, 75
3, 2304, Note_on_c, 1, 36, 118
3, 2368, Note_off_c, 1, 36, 75
3, 2400, Note_on_c, 1, 31, 118
3, 2464, Note_off_c, 1, 31, 75
3, 2496, Note_on_c, 1, 36, 118
3, 2560, Note_off_c, 1, 36, 75
3, 2592, Note_on_c, 1, 31, 118
3, 2656, Note_off_c, 1, 31, 75
3, 2688, Note_on_c, 1, 36, 118
3, 2752, Note_off_c, 1, 36, 75
3, 2784, Note_on_c, 1, 31, 118
3, 2848, Note_off_c, 1, 31, 75
3, 2880, Note_on_c, 1, 36, 118
3, 2944, Note_off_c, 1, 36, 75
3, 2976, Note_on_c, 1, 31, 118
3, 3040, Note_off_c, 1, 31, 75
3, 3072, Note_on_c, 1, 35, 118
3, 3200, Note_off_c, 1, 35, 75
3, 3360, Note_on_c, 1, 67, 118
3, 3424, Note_off_c, 1, 67, 75
3, 3456, Note_on_c, 1, 65, 118
3, 3520, Note_off_c, 1, 65, 75
3, 3552, Note_on_c, 1, 62, 118
3, 3616, Note_off_c, 1, 62, 75
3, 3648, Note_on_c, 1, 63, 118
3, 3712, Note_off_c, 1, 63, 75
3, 3744, Note_on_c, 1, 62, 118
3, 3808, Note_off_c, 1, 62, 75
3, 3840, Note_on_c, 1, 59, 118
3, 3904, Note_off_c, 1, 59, 75
3, 3936, Note_on_c, 1, 55, 118
3, 4000, Note_off_c, 1, 55, 75
3, 4032, Note_on_c, 1, 56, 118
3, 4096, Note_off_c, 1, 56, 75
3, 4128, Note_on_c, 1, 55, 118
3, 4192, Note_off_c, 1, 55, 75
3, 4224, Note_on_c, 1, 53, 118
3, 4288, Note_off_c, 1, 53, 75
3, 4320, Note_on_c, 1, 50, 118
3, 4384, Note_off_c, 1, 50, 75
3, 4416, Note_on_c, 1, 51, 118
3, 4480, Note_off_c, 1, 51, 75
3, 4512, Note_on_c, 1, 50, 118
3, 4576, Note_off_c, 1, 50, 75
3, 4608, Note_on_c, 1, 47, 118
3, 4672, Note_off_c, 1, 47, 75
3, 4704, Note_on_c, 1, 43, 118
3, 4768, Note_off_c, 1, 43, 75
3, 4800, Note_on_c, 1, 44, 118
3, 4864, Note_off_c, 1, 44, 75
3, 4896, Note_on_c, 1, 43, 118
3, 4960, Note_off_c, 1, 43, 75
3, 4992, Note_on_c, 1, 41, 118
3, 5056, Note_off_c, 1, 41, 75
3, 5088, Note_on_c, 1, 38, 118
3, 5152, Note_off_c, 1, 38, 75
3, 5184, Note_on_c, 1, 39, 118
3, 5248, Note_off_c, 1, 39, 75
3, 5280, Note_on_c, 1, 38, 118
3, 5344, Note_off_c, 1, 38, 75
3, 5376, Note_on_c, 1, 36, 118
3, 5440, Note_off_c, 1, 36, 75
3, 5472, Note_on_c, 1, 31, 118
3, 5536, Note_off_c, 1, 31, 75
3, 5568, Note_on_c, 1, 36, 118
3, 5632, Note_off_c, 1, 36, 75
3, 5664, Note_on_c, 1, 31, 118
3, 5728, Note_off_c, 1, 31, 75
3, 5760, Note_on_c, 1, 36, 118
3, 5824, Note_off_c, 1, 36, 75
3, 5856, Note_on_c, 1, 31, 118
3, 5920, Note_off_c, 1, 31, 75
3, 5952, Note_on_c, 1, 36, 118
3, 6016, Note_off_c, 1, 36, 75
3, 6048, Note_on_c, 1, 31, 118
3, 6112, Note_off_c, 1, 31, 75
3, 6144, Note_on_c, 1, 35, 118
3, 6272, Note_off_c, 1, 35, 75
3, 7680, Note_on_c, 1, 59, 118
3, 7744, Note_off_c, 1, 59, 75
3, 7776, Note_on_c, 1, 55, 118
3, 7840, Note_off_c, 1, 55, 75
3, 7872, Note_on_c, 1, 56, 118
3, 7936, Note_off_c, 1, 56, 75
3, 7968, Note_on_c, 1, 55, 118
3, 8032, Note_off_c, 1, 55, 75
3, 8064, Note_on_c, 1, 53, 118
3, 8128, Note_off_c, 1, 53, 75
3, 8160, Note_on_c, 1, 50, 118
3, 8224, Note_off_c, 1, 50, 75
3, 8256, Note_on_c, 1, 51, 118
3, 8320, Note_off_c, 1, 51, 75
3, 8352, Note_on_c, 1, 50, 118
3, 8416, Note_off_c, 1, 50, 75
3, 8448, Note_on_c, 1, 47, 118
3, 8448, Note_on_c, 1, 59, 118
3, 8512, Note_off_c, 1, 47, 75
3, 8512, Note_off_c, 1, 59, 75
3, 8544, Note_on_c, 1, 43, 118
3, 8544, Note_on_c, 1, 55, 118
3, 8608, Note_off_c, 1, 43, 75
3, 8608, Note_off_c, 1, 55, 75
3, 8640, Note_on_c, 1, 44, 118
3, 8640, Note_on_c, 1, 56, 118
3, 8704, Note_off_c, 1, 44, 75
3, 8704, Note_off_c, 1, 56, 75
3, 8736, Note_on_c, 1, 43, 118
3, 8736, Note_on_c, 1, 55, 118
3, 8800, Note_off_c, 1, 43, 75
3, 8800, Note_off_c, 1, 55, 75
3, 8832, Note_on_c, 1, 41, 118
3, 8832, Note_on_c, 1, 53, 118
3, 8896, Note_off_c, 1, 41, 75
3, 8896, Note_off_c, 1, 53, 75
3, 8928, Note_on_c, 1, 38, 118
3, 8928, Note_on_c, 1, 50, 118
3, 8992, Note_off_c, 1, 38, 75
3, 8992, Note_off_c, 1, 50, 75
3, 9024, Note_on_c, 1, 39, 118
3, 9024, Note_on_c, 1, 51, 118
3, 9088, Note_off_c, 1, 39, 75
3, 9088, Note_off_c, 1, 51, 75
3, 9120, Note_on_c, 1, 38, 118
3, 9120, Note_on_c, 1, 50, 118
3, 9184, Note_off_c, 1, 38, 75
3, 9184, Note_off_c, 1, 50, 75
3, 9216, Note_on_c, 1, 36, 118
3, 9216, Note_on_c, 1, 48, 118
3, 9280, Note_off_c, 1, 36, 75
3, 9280, Note_off_c, 1, 48, 75
3, 9312, Note_on_c, 1, 35, 118
3, 9312, Note_on_c, 1, 47, 118
3, 9376, Note_off_c, 1, 35, 75
3, 9376, Note_off_c, 1, 47, 75
3, 9408, Note_on_c, 1, 43, 118
3, 9408, Note_on_c, 1, 55, 118
3, 9472, Note_off_c, 1, 43, 75
3, 9472, Note_off_c, 1, 55, 75
3, 9504, Note_on_c, 1, 41, 118
3, 9504, Note_on_c, 1, 53, 118
3, 9568, Note_off_c, 1, 41, 75
3, 9568, Note_off_c, 1, 53, 75
3, 9600, Note_on_c, 1, 39, 118
3, 9600, Note_on_c, 1, 51, 118
3, 9664, Note_off_c, 1, 39, 75
3, 9664, Note_off_c, 1, 51, 75
3, 9696, Note_on_c, 1, 38, 118
3, 9696, Note_on_c, 1, 50, 118
3, 9760, Note_off_c, 1, 38, 75
3, 9760, Note_off_c, 1, 50, 75
3, 9792, Note_on_c, 1, 39, 118
3, 9792, Note_on_c, 1, 51, 118
3, 9856, Note_off_c, 1, 39, 75
3, 9856, Note_off_c, 1, 51, 75
3, 9888, Note_on_c, 1, 38, 118
3, 9888, Note_on_c, 1, 50, 118
3, 9952, Note_off_c, 1, 38, 75
3, 9952, Note_off_c, 1, 50, 75
3, 9984, Note_on_c, 1, 36, 118
3, 9984, Note_on_c, 1, 48, 118
3, 10048, Note_off_c, 1, 36, 75
3, 10048, Note_off_c, 1, 48, 75
3, 10080, Note_on_c, 1, 35, 118
3, 10080, Note_on_c, 1, 47, 118
3, 10144, Note_off_c, 1, 35, 75
3, 10144, Note_off_c, 1, 47, 75
3, 10176, Note_on_c, 1, 46, 118
3, 10176, Note_on_c, 1, 58, 118
3, 10240, Note_off_c, 1, 46, 75
3, 10240, Note_off_c, 1, 58, 75
3, 10272, Note_on_c, 1, 44, 118
3, 10272, Note_on_c, 1, 56, 118
3, 10336, Note_off_c, 1, 44, 75
3, 10336, Note_off_c, 1, 56, 75
3, 10368, Note_on_c, 1, 43, 118
3, 10368, Note_on_c, 1, 55, 118
3, 10432, Note_off_c, 1, 43, 75
3, 10432, Note_off_c, 1, 55, 75
3, 10464, Note_on_c, 1, 41, 118
3, 10464, Note_on_c, 1, 53, 118
3, 10528, Note_off_c, 1, 41, 75
3, 10528, Note_off_c, 1, 53, 75
3, 10560, Note_on_c, 1, 43, 118
3, 10560, Note_on_c, 1, 55, 118
3, 10624, Note_off_c, 1, 43, 75
3, 10624, Note_off_c, 1, 55, 75
3, 10656, Note_on_c, 1, 41, 118
3, 10656, Note_on_c, 1, 53, 118
3, 10720, Note_off_c, 1, 41, 75
3, 10720, Note_off_c, 1, 53, 75
3, 10752, Note_on_c, 1, 39, 118
3, 10752, Note_on_c, 1, 51, 118
3, 10816, Note_off_c, 1, 39, 75
3, 10816, Note_off_c, 1, 51, 75
3, 10848, Note_on_c, 1, 38, 118
3, 10848, Note_on_c, 1, 50, 118
3, 10912, Note_off_c, 1, 38, 75
3, 10912, Note_off_c, 1, 50, 75
3, 10944, Note_on_c, 1, 51, 118
3, 10944, Note_on_c, 1, 63, 118
3, 11008, Note_off_c, 1, 51, 75
3, 11008, Note_off_c, 1, 63, 75
3, 11040, Note_on_c, 1, 50, 118
3, 11040, Note_on_c, 1, 62, 118
3, 11104, Note_off_c, 1, 50, 75
3, 11104, Note_off_c, 1, 62, 75
3, 11136, Note_on_c, 1, 48, 118
3, 11136, Note_on_c, 1, 60, 118
3, 11200, Note_off_c, 1, 48, 75
3, 11200, Note_off_c, 1, 60, 75
3, 11232, Note_on_c, 1, 47, 118
3, 11232, Note_on_c, 1, 59, 118
3, 11296, Note_off_c, 1, 47, 75
3, 11296, Note_off_c, 1, 59, 75
3, 11328, Note_on_c, 1, 48, 118
3, 11328, Note_on_c, 1, 60, 118
3, 11392, Note_off_c, 1, 48, 75
3, 11392, Note_off_c, 1, 60, 75
3, 11424, Note_on_c, 1, 47, 118
3, 11424, Note_on_c, 1, 59, 118
3, 11488, Note_off_c, 1, 47, 75
3, 11488, Note_off_c, 1, 59, 75
3, 11520, Note_on_c, 1, 44, 118
3, 11520, Note_on_c, 1, 56, 118
3, 11584, Note_off_c, 1, 44, 75
3, 11584, Note_off_c, 1, 56, 75
3, 11616, Note_on_c, 1, 43, 118
3, 11616, Note_on_c, 1, 55, 118
3, 11680, Note_off_c, 1, 43, 75
3, 11680, Note_off_c, 1, 55, 75
3, 11712, Note_on_c, 1, 44, 118
3, 11712, Note_on_c, 1, 56, 118
3, 11776, Note_off_c, 1, 44, 75
3, 11776, Note_off_c, 1, 56, 75
3, 11808, Note_on_c, 1, 43, 118
3, 11808, Note_on_c, 1, 55, 118
3, 11872, Note_off_c, 1, 43, 75
3, 11872, Note_off_c, 1, 55, 75
3, 11904, Note_on_c, 1, 41, 118
3, 11904, Note_on_c, 1, 53, 118
3, 11968, Note_off_c, 1, 41, 75
3, 11968, Note_off_c, 1, 53, 75
3, 12000, Note_on_c, 1, 39, 118
3, 12000, Note_on_c, 1, 51, 118
3, 12064, Note_off_c, 1, 39, 75
3, 12064, Note_off_c, 1, 51, 75
3, 12096, Note_on_c, 1, 41, 118
3, 12096, Note_on_c, 1, 53, 118
3, 12160, Note_off_c, 1, 41, 75
3, 12160, Note_off_c, 1, 53, 75
3, 12192, Note_on_c, 1, 39, 118
3, 12192, Note_on_c, 1, 51, 118
3, 12256, Note_off_c, 1, 39, 75
3, 12256, Note_off_c, 1, 51, 75
3, 12288, Note_on_c, 1, 36, 118
3, 12288, Note_on_c, 1, 48, 118
3, 12352, Note_off_c, 1, 36, 75
3, 12352, Note_off_c, 1, 48, 75
3, 12384, Note_on_c, 1, 43, 118
3, 12448, Note_off_c, 1, 43, 75
3, 12480, Note_on_c, 1, 48, 118
3, 12544, Note_off_c, 1, 48, 75
3, 12576, Note_on_c, 1, 50, 118
3, 12640, Note_off_c, 1, 50, 75
3, 12672, Note_on_c, 1, 51, 118
3, 12736, Note_off_c, 1, 51, 75
3, 12768, Note_on_c, 1, 55, 118
3, 12832, Note_off_c, 1, 55, 75
3, 12864, Note_on_c, 1, 60, 118
3, 12928, Note_off_c, 1, 60, 75
3, 12960, Note_on_c, 1, 62, 118
3, 13024, Note_off_c, 1, 62, 75
3, 13056, Note_on_c, 1, 63, 118
3, 13120, Note_off_c, 1, 63, 75
3, 13152, Note_on_c, 1, 62, 118
3, 13216, Note_off_c, 1, 62, 75
3, 13248, Note_on_c, 1, 60, 118
3, 13312, Note_off_c, 1, 60, 75
3, 13344, Note_on_c, 1, 55, 118
3, 13408, Note_off_c, 1, 55, 75
3, 13440, Note_on_c, 1, 51, 118
3, 13504, Note_off_c, 1, 51, 75
3, 13536, Note_on_c, 1, 50, 118
3, 13600, Note_off_c, 1, 50, 75
3, 13632, Note_on_c, 1, 48, 118
3, 13696, Note_off_c, 1, 48, 75
3, 13728, Note_on_c, 1, 43, 118
3, 13792, Note_off_c, 1, 43, 75
3, 13824, Note_on_c, 1, 36, 118
3, 13888, Note_off_c, 1, 36, 75
3, 13920, Note_on_c, 1, 43, 118
3, 13984, Note_off_c, 1, 43, 75
3, 14016, Note_on_c, 1, 48, 118
3, 14080, Note_off_c, 1, 48, 75
3, 14112, Note_on_c, 1, 50, 118
3, 14176, Note_off_c, 1, 50, 75
3, 14208, Note_on_c, 1, 51, 118
3, 14272, Note_off_c, 1, 51, 75
3, 14304, Note_on_c, 1, 50, 118
3, 14368, Note_off_c, 1, 50, 75
3, 14400, Note_on_c, 1, 48, 118
3, 14464, Note_off_c, 1, 48, 75
3, 14496, Note_on_c, 1, 43, 118
3, 14560, Note_off_c, 1, 43, 75
3, 14592, Note_on_c, 1, 36, 118
3, 14656, Note_off_c, 1, 36, 75
3, 14688, Note_on_c, 1, 43, 118
3, 14752, Note_off_c, 1, 43, 75
3, 14784, Note_on_c, 1, 48, 118
3, 14848, Note_off_c, 1, 48, 75
3, 14880, Note_on_c, 1, 50, 118
3, 14944, Note_off_c, 1, 50, 75
3, 14976, Note_on_c, 1, 51, 118
3, 15040, Note_off_c, 1, 51, 75
3, 15072, Note_on_c, 1, 50, 118
3, 15136, Note_off_c, 1, 50, 75
3, 15168, Note_on_c, 1, 48, 118
3, 15232, Note_off_c, 1, 48, 75
3, 15264, Note_on_c, 1, 43, 118
3, 15328, Note_off_c, 1, 43, 75
3, 15360, Note_on_c, 1, 36, 118
3, 15424, Note_off_c, 1, 36, 75
3, 15456, Note_on_c, 1, 43, 118
3, 15520, Note_off_c, 1, 43, 75
3, 15552, Note_on_c, 1, 48, 118
3, 15616, Note_off_c, 1, 48, 75
3, 15648, Note_on_c, 1, 50, 118
3, 15712, Note_off_c, 1, 50, 75
3, 15744, Note_on_c, 1, 51, 118
3, 15808, Note_off_c, 1, 51, 75
3, 15840, Note_on_c, 1, 55, 118
3, 15904, Note_off_c, 1, 55, 75
3, 15936, Note_on_c, 1, 60, 118
3, 16000, Note_off_c, 1, 60, 75
3, 16032, Note_on_c, 1, 62, 118
3, 16096, Note_off_c, 1, 62, 75
3, 16128, Note_on_c, 1, 63, 118
3, 16192, Note_off_c, 1, 63, 75
3, 16224, Note_on_c, 1, 62, 118
3, 16288, Note_off_c, 1, 62, 75
3, 16320, Note_on_c, 1, 60, 118
3, 16384, Note_off_c, 1, 60, 75
3, 16416, Note_on_c, 1, 55, 118
3, 16480, Note_off_c, 1, 55, 75
3, 16512, Note_on_c, 1, 51, 118
3, 16576, Note_off_c, 1, 51, 75
3, 16608, Note_on_c, 1, 50, 118
3, 16672, Note_off_c, 1, 50, 75
3, 16704, Note_on_c, 1, 48, 118
3, 16768, Note_off_c, 1, 48, 75
3, 16800, Note_on_c, 1, 43, 118
3, 16864, Note_off_c, 1, 43, 75
3, 16896, Note_on_c, 1, 36, 118
3, 16960, Note_off_c, 1, 36, 75
3, 16992, Note_on_c, 1, 43, 118
3, 17056, Note_off_c, 1, 43, 75
3, 17088, Note_on_c, 1, 48, 118
3, 17152, Note_off_c, 1, 48, 75
3, 17184, Note_on_c, 1, 50, 118
3, 17248, Note_off_c, 1, 50, 75
3, 17280, Note_on_c, 1, 51, 118
3, 17344, Note_off_c, 1, 51, 75
3, 17376, Note_on_c, 1, 50, 118
3, 17440, Note_off_c, 1, 50, 75
3, 17472, Note_on_c, 1, 48, 118
3, 17536, Note_off_c, 1, 48, 75
3, 17568, Note_on_c, 1, 43, 118
3, 17632, Note_off_c, 1, 43, 75
3, 17664, Note_on_c, 1, 36, 118
3, 17728, Note_off_c, 1, 36, 75
3, 17760, Note_on_c, 1, 43, 118
3, 17824, Note_off_c, 1, 43, 75
3, 17856, Note_on_c, 1, 48, 118
3, 17920, Note_off_c, 1, 48, 75
3, 17952, Note_on_c, 1, 50, 118
3, 18016, Note_off_c, 1, 50, 75
3, 18048, Note_on_c, 1, 51, 118
3, 18112, Note_off_c, 1, 51, 75
3, 18144, Note_on_c, 1, 50, 118
3, 18208, Note_off_c, 1, 50, 75
3, 18240, Note_on_c, 1, 48, 118
3, 18304, Note_off_c, 1, 48, 75
3, 18336, Note_on_c, 1, 43, 118
3, 18400, Note_off_c, 1, 43, 75
3, 18432, Note_on_c, 1, 36, 118
3, 18496, Note_off_c, 1, 36, 75
3, 18528, Note_on_c, 1, 43, 118
3, 18592, Note_off_c, 1, 43, 75
3, 18624, Note_on_c, 1, 48, 118
3, 18688, Note_off_c, 1, 48, 75
3, 18720, Note_on_c, 1, 50, 118
3, 18784, Note_off_c, 1, 50, 75
3, 18816, Note_on_c, 1, 51, 118
3, 18880, Note_off_c, 1, 51, 75
3, 18912, Note_on_c, 1, 55, 118
3, 18976, Note_off_c, 1, 55, 75
3, 19008, Note_on_c, 1, 60, 118
3, 19072, Note_off_c, 1, 60, 75
3, 19104, Note_on_c, 1, 62, 118
3, 19168, Note_off_c, 1, 62, 75
3, 19200, Note_on_c, 1, 63, 118
3, 19264, Note_off_c, 1, 63, 75
3, 19296, Note_on_c, 1, 62, 118
3, 19360, Note_off_c, 1, 62, 75
3, 19392, Note_on_c, 1, 62, 118
3, 19456, Note_off_c, 1, 62, 75
3, 19488, Note_on_c, 1, 55, 118
3, 19552, Note_off_c, 1, 55, 75
3, 19584, Note_on_c, 1, 51, 118
3, 19648, Note_off_c, 1, 51, 75
3, 19680, Note_on_c, 1, 50, 118
3, 19744, Note_off_c, 1, 50, 75
3, 19776, Note_on_c, 1, 48, 118
3, 19840, Note_off_c, 1, 48, 75
3, 19872, Note_on_c, 1, 43, 118
3, 19936, Note_off_c, 1, 43, 75
3, 19968, Note_on_c, 1, 36, 118
3, 20032, Note_off_c, 1, 36, 75
3, 20064, Note_on_c, 1, 41, 118
3, 20128, Note_off_c, 1, 41, 75
3, 20160, Note_on_c, 1, 48, 118
3, 20224, Note_off_c, 1, 48, 75
3, 20256, Note_on_c, 1, 50, 118
3, 20320, Note_off_c, 1, 50, 75
3, 20352, Note_on_c, 1, 51, 118
3, 20416, Note_off_c, 1, 51, 75
3, 20448, Note_on_c, 1, 50, 118
3, 20512, Note_off_c, 1, 50, 75
3, 20544, Note_on_c, 1, 48, 118
3, 20608, Note_off_c, 1, 48, 75
3, 20640, Note_on_c, 1, 41, 118
3, 20704, Note_off_c, 1, 41, 75
3, 20736, Note_on_c, 1, 36, 118
3, 20800, Note_off_c, 1, 36, 75
3, 20832, Note_on_c, 1, 41, 118
3, 20896, Note_off_c, 1, 41, 75
3, 20928, Note_on_c, 1, 48, 118
3, 20992, Note_off_c, 1, 48, 75
3, 21024, Note_on_c, 1, 50, 118
3, 21088, Note_off_c, 1, 50, 75
3, 21120, Note_on_c, 1, 51, 118
3, 21184, Note_off_c, 1, 51, 75
3, 21216, Note_on_c, 1, 50, 118
3, 21280, Note_off_c, 1, 50, 75
3, 21312, Note_on_c, 1, 48, 118
3, 21376, Note_off_c, 1, 48, 75
3, 21408, Note_on_c, 1, 41, 118
3, 21472, Note_off_c, 1, 41, 75
3, 21504, Note_on_c, 1, 35, 118
3, 21568, Note_off_c, 1, 35, 75
3, 21600, Note_on_c, 1, 47, 118
3, 21664, Note_off_c, 1, 47, 75
3, 21696, Note_on_c, 1, 50, 118
3, 21760, Note_off_c, 1, 50, 75
3, 21792, Note_on_c, 1, 55, 118
3, 21856, Note_off_c, 1, 55, 75
3, 21888, Note_on_c, 1, 62, 118
3, 21952, Note_off_c, 1, 62, 75
3, 21984, Note_on_c, 1, 55, 118
3, 22048, Note_off_c, 1, 55, 75
3, 22080, Note_on_c, 1, 50, 118
3, 22144, Note_off_c, 1, 50, 75
3, 22176, Note_on_c, 1, 47, 118
3, 22240, Note_off_c, 1, 47, 75
3, 22272, Note_on_c, 1, 34, 118
3, 22336, Note_off_c, 1, 34, 75
3, 22368, Note_on_c, 1, 46, 118
3, 22432, Note_off_c, 1, 46, 75
3, 22464, Note_on_c, 1, 49, 118
3, 22528, Note_off_c, 1, 49, 75
3, 22560, Note_on_c, 1, 55, 118
3, 22624, Note_off_c, 1, 55, 75
3, 22656, Note_on_c, 1, 61, 118
3, 22720, Note_off_c, 1, 61, 75
3, 22752, Note_on_c, 1, 55, 118
3, 22816, Note_off_c, 1, 55, 75
3, 22848, Note_on_c, 1, 49, 118
3, 22912, Note_off_c, 1, 49, 75
3, 22944, Note_on_c, 1, 46, 118
3, 23008, Note_off_c, 1, 46, 75
3, 23040, Note_on_c, 1, 33, 118
3, 23104, Note_off_c, 1, 33, 75
3, 23136, Note_on_c, 1, 45, 118
3, 23200, Note_off_c, 1, 45, 75
3, 23232, Note_on_c, 1, 48, 118
3, 23296, Note_off_c, 1, 48, 75
3, 23328, Note_on_c, 1, 53, 118
3, 23392, Note_off_c, 1, 53, 75
3, 23424, Note_on_c, 1, 60, 118
3, 23488, Note_off_c, 1, 60, 75
3, 23520, Note_on_c, 1, 53, 118
3, 23520, Note_on_c, 1, 53, 118
3, 23584, Note_off_c, 1, 53, 75
3, 23584, Note_off_c, 1, 53, 75
3, 23616, Note_on_c, 1, 48, 118
3, 23680, Note_off_c, 1, 48, 75
3, 23712, Note_on_c, 1, 45, 118
3, 23776, Note_off_c, 1, 45, 75
3, 23808, Note_on_c, 1, 32, 118
3, 23872, Note_off_c, 1, 32, 75
3, 23904, Note_on_c, 1, 44, 118
3, 23968, Note_off_c, 1, 44, 75
3, 24000, Note_on_c, 1, 48, 118
3, 24064, Note_off_c, 1, 48, 75
3, 24096, Note_on_c, 1, 53, 118
3, 24160, Note_off_c, 1, 53, 75
3, 24192, Note_on_c, 1, 60, 118
3, 24256, Note_off_c, 1, 60, 75
3, 24288, Note_on_c, 1, 53, 118
3, 24352, Note_off_c, 1, 53, 75
3, 24384, Note_on_c, 1, 48, 118
3, 24448, Note_off_c, 1, 48, 75
3, 24480, Note_on_c, 1, 44, 118
3, 24544, Note_off_c, 1, 44, 75
3, 24576, Note_on_c, 1, 31, 118
3, 24640, Note_off_c, 1, 31, 75
3, 24672, Note_on_c, 1, 43, 118
3, 24736, Note_off_c, 1, 43, 75
3, 24768, Note_on_c, 1, 48, 118
3, 24832, Note_off_c, 1, 48, 75
3, 24864, Note_on_c, 1, 47, 118
3, 24928, Note_off_c, 1, 47, 75
3, 24960, Note_on_c, 1, 49, 118
3, 25024, Note_off_c, 1, 49, 75
3, 25056, Note_on_c, 1, 48, 118
3, 25120, Note_off_c, 1, 48, 75
3, 25152, Note_on_c, 1, 50, 118
3, 25216, Note_off_c, 1, 50, 75
3, 25248, Note_on_c, 1, 49, 118
3, 25312, Note_off_c, 1, 49, 75
3, 25344, Note_on_c, 1, 51, 118
3, 25408, Note_off_c, 1, 51, 75
3, 25440, Note_on_c, 1, 50, 118
3, 25504, Note_off_c, 1, 50, 75
3, 25536, Note_on_c, 1, 52, 118
3, 25600, Note_off_c, 1, 52, 75
3, 25632, Note_on_c, 1, 51, 118
3, 25696, Note_off_c, 1, 51, 75
3, 25728, Note_on_c, 1, 53, 118
3, 25792, Note_off_c, 1, 53, 75
3, 25824, Note_on_c, 1, 52, 118
3, 25888, Note_off_c, 1, 52, 75
3, 25920, Note_on_c, 1, 54, 118
3, 25984, Note_off_c, 1, 54, 75
3, 26016, Note_on_c, 1, 53, 118
3, 26080, Note_off_c, 1, 53, 75
3, 26112, Note_on_c, 1, 55, 118
3, 26176, Note_off_c, 1, 55, 75
3, 26208, Note_on_c, 1, 54, 118
3, 26272, Note_off_c, 1, 54, 75
3, 26304, Note_on_c, 1, 56, 118
3, 26368, Note_off_c, 1, 56, 75
3, 26400, Note_on_c, 1, 55, 118
3, 26400, Note_on_c, 1, 55, 118
3, 26464, Note_off_c, 1, 55, 75
3, 26464, Note_off_c, 1, 55, 75
3, 26496, Note_on_c, 1, 58, 118
3, 26560, Note_off_c, 1, 58, 75
3, 26592, Note_on_c, 1, 56, 118
3, 26656, Note_off_c, 1, 56, 75
3, 26688, Note_on_c, 1, 55, 118
3, 26752, Note_off_c, 1, 55, 75
3, 26784, Note_on_c, 1, 53, 118
3, 26848, Note_off_c, 1, 53, 75
3, 26880, Note_on_c, 1, 51, 118
3, 26944, Note_off_c, 1, 51, 75
3, 26976, Note_on_c, 1, 50, 118
3, 27040, Note_off_c, 1, 50, 75
3, 27072, Note_on_c, 1, 48, 118
3, 27136, Note_off_c, 1, 48, 75
3, 27168, Note_on_c, 1, 47, 118
3, 27232, Note_off_c, 1, 47, 75
3, 27264, Note_on_c, 1, 44, 118
3, 27328, Note_off_c, 1, 44, 75
3, 27360, Note_on_c, 1, 43, 118
3, 27360, Note_on_c, 1, 43, 118
3, 27424, Note_off_c, 1, 43, 75
3, 27424, Note_off_c, 1, 43, 75
3, 27456, Note_on_c, 1, 41, 118
3, 27520, Note_off_c, 1, 41, 75
3, 27552, Note_on_c, 1, 38, 118
3, 27616, Note_off_c, 1, 38, 75
3, 27648, Note_on_c, 1, 36, 118
3, 27712, Note_off_c, 1, 36, 75
3, 27744, Note_on_c, 1, 43, 118
3, 27808, Note_off_c, 1, 43, 75
3, 27840, Note_on_c, 1, 48, 118
3, 27904, Note_off_c, 1, 48, 75
3, 27936, Note_on_c, 1, 50, 118
3, 28000, Note_off_c, 1, 50, 75
3, 28032, Note_on_c, 1, 51, 118
3, 28096, Note_off_c, 1, 51, 75
3, 28128, Note_on_c, 1, 55, 118
3, 28192, Note_off_c, 1, 55, 75
3, 28224, Note_on_c, 1, 60, 118
3, 28288, Note_off_c, 1, 60, 75
3, 28320, Note_on_c, 1, 62, 118
3, 28384, Note_off_c, 1, 62, 75
3, 28416, Note_on_c, 1, 63, 118
3, 28480, Note_off_c, 1, 63, 75
3, 28512, Note_on_c, 1, 62, 118
3, 28576, Note_off_c, 1, 62, 75
3, 28608, Note_on_c, 1, 60, 118
3, 28672, Note_off_c, 1, 60, 75
3, 28704, Note_on_c, 1, 55, 118
3, 28768, Note_off_c, 1, 55, 75
3, 28800, Note_on_c, 1, 51, 118
3, 28864, Note_off_c, 1, 51, 75
3, 28896, Note_on_c, 1, 50, 118
3, 28960, Note_off_c, 1, 50, 75
3, 28992, Note_on_c, 1, 48, 118
3, 29056, Note_off_c, 1, 48, 75
3, 29088, Note_on_c, 1, 43, 118
3, 29152, Note_off_c, 1, 43, 75
3, 29184, Note_on_c, 1, 36, 118
3, 29248, Note_off_c, 1, 36, 75
3, 29280, Note_on_c, 1, 43, 118
3, 29344, Note_off_c, 1, 43, 75
3, 29376, Note_on_c, 1, 48, 118
3, 29440, Note_off_c, 1, 48, 75
3, 29472, Note_on_c, 1, 50, 118
3, 29536, Note_off_c, 1, 50, 75
3, 29568, Note_on_c, 1, 51, 118
3, 29632, Note_off_c, 1, 51, 75
3, 29664, Note_on_c, 1, 50, 118
3, 29728, Note_off_c, 1, 50, 75
3, 29760, Note_on_c, 1, 48, 118
3, 29824, Note_off_c, 1, 48, 75
3, 29856, Note_on_c, 1, 43, 118
3, 29920, Note_off_c, 1, 43, 75
3, 29952, Note_on_c, 1, 36, 118
3, 30016, Note_off_c, 1, 36, 75
3, 30048, Note_on_c, 1, 43, 118
3, 30112, Note_off_c, 1, 43, 75
3, 30144, Note_on_c, 1, 48, 118
3, 30208, Note_off_c, 1, 48, 75
3, 30240, Note_on_c, 1, 50, 118
3, 30304, Note_off_c, 1, 50, 75
3, 30336, Note_on_c, 1, 51, 118
3, 30400, Note_off_c, 1, 51, 75
3, 30432, Note_on_c, 1, 50, 118
3, 30496, Note_off_c, 1, 50, 75
3, 30528, Note_on_c, 1, 48, 118
3, 30592, Note_off_c, 1, 48, 75
3, 30624, Note_on_c, 1, 43, 118
3, 30688, Note_off_c, 1, 43, 75
3, 30720, Note_on_c, 1, 36, 118
3, 30784, Note_off_c, 1, 36, 75
3, 30816, Note_on_c, 1, 43, 118
3, 30880, Note_off_c, 1, 43, 75
3, 30912, Note_on_c, 1, 48, 118
3, 30976, Note_off_c, 1, 48, 75
3, 31008, Note_on_c, 1, 50, 118
3, 31072, Note_off_c, 1, 50, 75
3, 31104, Note_on_c, 1, 51, 118
3, 31168, Note_off_c, 1, 51, 75
3, 31200, Note_on_c, 1, 55, 118
3, 31264, Note_off_c, 1, 55, 75
3, 31296, Note_on_c, 1, 60, 118
3, 31360, Note_off_c, 1, 60, 75
3, 31392, Note_on_c, 1, 62, 118
3, 31456, Note_off_c, 1, 62, 75
3, 31488, Note_on_c, 1, 63, 118
3, 31552, Note_off_c, 1, 63, 75
3, 31584, Note_on_c, 1, 62, 118
3, 31648, Note_off_c, 1, 62, 75
3, 31680, Note_on_c, 1, 60, 118
3, 31744, Note_off_c, 1, 60, 75
3, 31776, Note_on_c, 1, 55, 118
3, 31840, Note_off_c, 1, 55, 75
3, 31872, Note_on_c, 1, 51, 118
3, 31936, Note_off_c, 1, 51, 75
3, 31968, Note_on_c, 1, 50, 118
3, 32032, Note_off_c, 1, 50, 75
3, 32064, Note_on_c, 1, 48, 118
3, 32128, Note_off_c, 1, 48, 75
3, 32160, Note_on_c, 1, 43, 118
3, 32224, Note_off_c, 1, 43, 75
3, 32256, Note_on_c, 1, 36, 118
3, 32320, Note_off_c, 1, 36, 75
3, 32352, Note_on_c, 1, 43, 118
3, 32416, Note_off_c, 1, 43, 75
3, 32448, Note_on_c, 1, 48, 118
3, 32512, Note_off_c, 1, 48, 75
3, 32544, Note_on_c, 1, 50, 118
3, 32608, Note_off_c, 1, 50, 75
3, 32640, Note_on_c, 1, 51, 118
3, 32704, Note_off_c, 1, 51, 75
3, 32736, Note_on_c, 1, 50, 118
3, 32800, Note_off_c, 1, 50, 75
3, 32832, Note_on_c, 1, 48, 118
3, 32896, Note_off_c, 1, 48, 75
3, 32928, Note_on_c, 1, 43, 118
3, 32992, Note_off_c, 1, 43, 75
3, 33024, Note_on_c, 1, 36, 118
3, 33088, Note_off_c, 1, 36, 75
3, 33120, Note_on_c, 1, 43, 118
3, 33184, Note_off_c, 1, 43, 75
3, 33216, Note_on_c, 1, 48, 118
3, 33280, Note_off_c, 1, 48, 75
3, 33312, Note_on_c, 1, 50, 118
3, 33376, Note_off_c, 1, 50, 75
3, 33408, Note_on_c, 1, 51, 118
3, 33472, Note_off_c, 1, 51, 75
3, 33504, Note_on_c, 1, 50, 118
3, 33568, Note_off_c, 1, 50, 75
3, 33600, Note_on_c, 1, 48, 118
3, 33664, Note_off_c, 1, 48, 75
3, 33696, Note_on_c, 1, 43, 118
3, 33760, Note_off_c, 1, 43, 75
3, 33792, Note_on_c, 1, 36, 118
3, 33856, Note_off_c, 1, 36, 75
3, 33888, Note_on_c, 1, 43, 118
3, 33952, Note_off_c, 1, 43, 75
3, 33984, Note_on_c, 1, 48, 118
3, 34048, Note_off_c, 1, 48, 75
3, 34080, Note_on_c, 1, 50, 118
3, 34144, Note_off_c, 1, 50, 75
3, 34176, Note_on_c, 1, 51, 118
3, 34240, Note_off_c, 1, 51, 75
3, 34272, Note_on_c, 1, 55, 118
3, 34336, Note_off_c, 1, 55, 75
3, 34368, Note_on_c, 1, 60, 118
3, 34432, Note_off_c, 1, 60, 75
3, 34464, Note_on_c, 1, 62, 118
3, 34528, Note_off_c, 1, 62, 75
3, 34560, Note_on_c, 1, 63, 118
3, 34624, Note_off_c, 1, 63, 75
3, 34656, Note_on_c, 1, 62, 118
3, 34720, Note_off_c, 1, 62, 75
3, 34752, Note_on_c, 1, 60, 118
3, 34816, Note_off_c, 1, 60, 75
3, 34848, Note_on_c, 1, 55, 118
3, 34912, Note_off_c, 1, 55, 75
3, 34944, Note_on_c, 1, 51, 118
3, 35008, Note_off_c, 1, 51, 75
3, 35040, Note_on_c, 1, 50, 118
3, 35104, Note_off_c, 1, 50, 75
3, 35136, Note_on_c, 1, 48, 118
3, 35200, Note_off_c, 1, 48, 75
3, 35232, Note_on_c, 1, 43, 118
3, 35296, Note_off_c, 1, 43, 75
3, 35328, Note_on_c, 1, 36, 118
3, 35392, Note_off_c, 1, 36, 75
3, 35424, Note_on_c, 1, 41, 118
3, 35488, Note_off_c, 1, 41, 75
3, 35520, Note_on_c, 1, 48, 118
3, 35584, Note_off_c, 1, 48, 75
3, 35616, Note_on_c, 1, 50, 118
3, 35680, Note_off_c, 1, 50, 75
3, 35712, Note_on_c, 1, 51, 118
3, 35776, Note_off_c, 1, 51, 75
3, 35808, Note_on_c, 1, 50, 118
3, 35872, Note_off_c, 1, 50, 75
3, 35904, Note_on_c, 1, 48, 118
3, 35968, Note_off_c, 1, 48, 75
3, 36000, Note_on_c, 1, 41, 118
3, 36064, Note_off_c, 1, 41, 75
3, 36096, Note_on_c, 1, 36, 118
3, 36160, Note_off_c, 1, 36, 75
3, 36192, Note_on_c, 1, 41, 118
3, 36256, Note_off_c, 1, 41, 75
3, 36288, Note_on_c, 1, 48, 118
3, 36352, Note_off_c, 1, 48, 75
3, 36384, Note_on_c, 1, 50, 118
3, 36448, Note_off_c, 1, 50, 75
3, 36480, Note_on_c, 1, 51, 118
3, 36544, Note_off_c, 1, 51, 75
3, 36576, Note_on_c, 1, 50, 118
3, 36640, Note_off_c, 1, 50, 75
3, 36672, Note_on_c, 1, 48, 118
3, 36736, Note_off_c, 1, 48, 75
3, 36768, Note_on_c, 1, 41, 118
3, 36832, Note_off_c, 1, 41, 75
3, 36864, Note_on_c, 1, 39, 118
3, 36928, Note_off_c, 1, 39, 75
3, 36960, Note_on_c, 1, 46, 118
3, 37024, Note_off_c, 1, 46, 75
3, 37056, Note_on_c, 1, 47, 118
3, 37120, Note_off_c, 1, 47, 75
3, 37152, Note_on_c, 1, 46, 118
3, 37216, Note_off_c, 1, 46, 75
3, 37248, Note_on_c, 1, 58, 118
3, 37312, Note_off_c, 1, 58, 75
3, 37344, Note_on_c, 1, 46, 118
3, 37408, Note_off_c, 1, 46, 75
3, 37440, Note_on_c, 1, 47, 118
3, 37504, Note_off_c, 1, 47, 75
3, 37536, Note_on_c, 1, 46, 118
3, 37600, Note_off_c, 1, 46, 75
3, 37632, Note_on_c, 1, 39, 118
3, 37696, Note_off_c, 1, 39, 75
3, 37728, Note_on_c, 1, 46, 118
3, 37792, Note_off_c, 1, 46, 75
3, 37824, Note_on_c, 1, 47, 118
3, 37888, Note_off_c, 1, 47, 75
3, 37920, Note_on_c, 1, 46, 118
3, 37984, Note_off_c, 1, 46, 75
3, 38016, Note_on_c, 1, 58, 118
3, 38080, Note_off_c, 1, 58, 75
3, 38112, Note_on_c, 1, 46, 118
3, 38176, Note_off_c, 1, 46, 75
3, 38208, Note_on_c, 1, 48, 118
3, 38272, Note_off_c, 1, 48, 75
3, 38304, Note_on_c, 1, 46, 118
3, 38368, Note_off_c, 1, 46, 75
3, 38400, Note_on_c, 1, 40, 118
3, 38464, Note_off_c, 1, 40, 75
3, 38496, Note_on_c, 1, 46, 118
3, 38560, Note_off_c, 1, 46, 75
3, 38592, Note_on_c, 1, 48, 118
3, 38656, Note_off_c, 1, 48, 75
3, 38688, Note_on_c, 1, 46, 118
3, 38752, Note_off_c, 1, 46, 75
3, 38784, Note_on_c, 1, 58, 118
3, 38848, Note_off_c, 1, 58, 75
3, 38880, Note_on_c, 1, 46, 118
3, 38944, Note_off_c, 1, 46, 75
3, 38976, Note_on_c, 1, 48, 118
3, 39040, Note_off_c, 1, 48, 75
3, 39072, Note_on_c, 1, 46, 118
3, 39136, Note_off_c, 1, 46, 75
3, 39168, Note_on_c, 1, 41, 118
3, 39232, Note_off_c, 1, 41, 75
3, 39264, Note_on_c, 1, 46, 118
3, 39328, Note_off_c, 1, 46, 75
3, 39360, Note_on_c, 1, 58, 118
3, 39424, Note_off_c, 1, 58, 75
3, 39456, Note_on_c, 1, 46, 118
3, 39520, Note_off_c, 1, 46, 75
3, 39552, Note_on_c, 1, 42, 118
3, 39616, Note_off_c, 1, 42, 75
3, 39648, Note_on_c, 1, 46, 118
3, 39712, Note_off_c, 1, 46, 75
3, 39744, Note_on_c, 1, 58, 118
3, 39808, Note_off_c, 1, 58, 75
3, 39840, Note_on_c, 1, 46, 118
3, 39904, Note_off_c, 1, 46, 75
3, 39936, Note_on_c, 1, 41, 118
3, 40000, Note_off_c, 1, 41, 75
3, 40032, Note_on_c, 1, 46, 118
3, 40096, Note_off_c, 1, 46, 75
3, 40128, Note_on_c, 1, 50, 118
3, 40192, Note_off_c, 1, 50, 75
3, 40224, Note_on_c, 1, 53, 118
3, 40288, Note_off_c, 1, 53, 75
3, 40320, Note_on_c, 1, 58, 118
3, 40384, Note_off_c, 1, 58, 75
3, 40416, Note_on_c, 1, 62, 118
3, 40480, Note_off_c, 1, 62, 75
3, 40512, Note_on_c, 1, 67, 118
3, 40576, Note_off_c, 1, 67, 75
3, 40608, Note_on_c, 1, 65, 118
3, 40672, Note_off_c, 1, 65, 75
3, 40704, Note_on_c, 1, 65, 118
3, 40768, Note_off_c, 1, 65, 75
3, 40800, Note_on_c, 1, 62, 118
3, 40864, Note_off_c, 1, 62, 75
3, 40896, Note_on_c, 1, 58, 118
3, 40960, Note_off_c, 1, 58, 75
3, 40992, Note_on_c, 1, 55, 118
3, 41056, Note_off_c, 1, 55, 75
3, 41088, Note_on_c, 1, 53, 118
3, 41152, Note_off_c, 1, 53, 75
3, 41184, Note_on_c, 1, 51, 118
3, 41248, Note_off_c, 1, 51, 75
3, 41280, Note_on_c, 1, 48, 118
3, 41344, Note_off_c, 1, 48, 75
3, 41376, Note_on_c, 1, 41, 118
3, 41440, Note_off_c, 1, 41, 75
3, 41472, Note_on_c, 1, 34, 118
3, 41536, Note_off_c, 1, 34, 75
3, 41568, Note_on_c, 1, 49, 118
3, 41632, Note_off_c, 1, 49, 75
3, 41664, Note_on_c, 1, 48, 118
3, 41728, Note_off_c, 1, 48, 75
3, 41760, Note_on_c, 1, 47, 118
3, 41824, Note_off_c, 1, 47, 75
3, 41856, Note_on_c, 1, 46, 118
3, 41920, Note_off_c, 1, 46, 75
3, 41952, Note_on_c, 1, 48, 118
3, 42016, Note_off_c, 1, 48, 75
3, 42048, Note_on_c, 1, 47, 118
3, 42112, Note_off_c, 1, 47, 75
3, 42144, Note_on_c, 1, 46, 118
3, 42208, Note_off_c, 1, 46, 75
3, 42240, Note_on_c, 1, 45, 118
3, 42304, Note_off_c, 1, 45, 75
3, 42336, Note_on_c, 1, 47, 118
3, 42400, Note_off_c, 1, 47, 75
3, 42432, Note_on_c, 1, 46, 118
3, 42496, Note_off_c, 1, 46, 75
3, 42528, Note_on_c, 1, 45, 118
3, 42592, Note_off_c, 1, 45, 75
3, 42624, Note_on_c, 1, 44, 118
3, 42688, Note_off_c, 1, 44, 75
3, 42720, Note_on_c, 1, 46, 118
3, 42784, Note_off_c, 1, 46, 75
3, 42816, Note_on_c, 1, 45, 118
3, 42880, Note_off_c, 1, 45, 75
3, 42912, Note_on_c, 1, 44, 118
3, 42976, Note_off_c, 1, 44, 75
3, 43008, Note_on_c, 1, 32, 118
3, 43136, Note_off_c, 1, 32, 75
3, 43200, Note_on_c, 1, 43, 118
3, 43264, Note_off_c, 1, 43, 75
3, 43296, Note_on_c, 1, 44, 118
3, 43360, Note_off_c, 1, 44, 75
3, 43392, Note_on_c, 1, 47, 118
3, 43456, Note_off_c, 1, 47, 75
3, 43488, Note_on_c, 1, 51, 118
3, 43552, Note_off_c, 1, 51, 75
3, 43584, Note_on_c, 1, 46, 118
3, 43648, Note_off_c, 1, 46, 75
3, 43680, Note_on_c, 1, 47, 118
3, 43744, Note_off_c, 1, 47, 75
3, 43776, Note_on_c, 1, 51, 118
3, 43840, Note_off_c, 1, 51, 75
3, 43872, Note_on_c, 1, 56, 118
3, 43936, Note_off_c, 1, 56, 75
3, 43968, Note_on_c, 1, 50, 118
3, 44032, Note_off_c, 1, 50, 75
3, 44064, Note_on_c, 1, 51, 118
3, 44128, Note_off_c, 1, 51, 75
3, 44160, Note_on_c, 1, 56, 118
3, 44224, Note_off_c, 1, 56, 75
3, 44256, Note_on_c, 1, 59, 118
3, 44320, Note_off_c, 1, 59, 75
3, 44352, Note_on_c, 1, 55, 118
3, 44416, Note_off_c, 1, 55, 75
3, 44448, Note_on_c, 1, 56, 118
3, 44512, Note_off_c, 1, 56, 75
3, 44544, Note_on_c, 1, 39, 118
3, 44608, Note_off_c, 1, 39, 75
3, 44640, Note_on_c, 1, 63, 118
3, 44704, Note_off_c, 1, 63, 75
3, 44736, Note_on_c, 1, 53, 118
3, 44800, Note_off_c, 1, 53, 75
3, 44832, Note_on_c, 1, 54, 118
3, 44896, Note_off_c, 1, 54, 75
3, 44928, Note_on_c, 1, 58, 118
3, 44992, Note_off_c, 1, 58, 75
3, 45024, Note_on_c, 1, 63, 118
3, 45088, Note_off_c, 1, 63, 75
3, 45120, Note_on_c, 1, 50, 118
3, 45184, Note_off_c, 1, 50, 75
3, 45216, Note_on_c, 1, 51, 118
3, 45280, Note_off_c, 1, 51, 75
3, 45312, Note_on_c, 1, 54, 118
3, 45376, Note_off_c, 1, 54, 75
3, 45408, Note_on_c, 1, 58, 118
3, 45472, Note_off_c, 1, 58, 75
3, 45504, Note_on_c, 1, 45, 118
3, 45568, Note_off_c, 1, 45, 75
3, 45600, Note_on_c, 1, 46, 118
3, 45664, Note_off_c, 1, 46, 75
3, 45696, Note_on_c, 1, 51, 118
3, 45760, Note_off_c, 1, 51, 75
3, 45792, Note_on_c, 1, 54, 118
3, 45856, Note_off_c, 1, 54, 75
3, 45888, Note_on_c, 1, 41, 118
3, 45952, Note_off_c, 1, 41, 75
3, 45984, Note_on_c, 1, 42, 118
3, 46048, Note_off_c, 1, 42, 75
3, 46080, Note_on_c, 1, 30, 118
3, 46208, Note_off_c, 1, 30, 75
3, 46272, Note_on_c, 1, 40, 118
3, 46336, Note_off_c, 1, 40, 75
3, 46368, Note_on_c, 1, 42, 118
3, 46432, Note_off_c, 1, 42, 75
3, 46464, Note_on_c, 1, 45, 118
3, 46528, Note_off_c, 1, 45, 75
3, 46560, Note_on_c, 1, 49, 118
3, 46624, Note_off_c, 1, 49, 75
3, 46656, Note_on_c, 1, 44, 118
3, 46720, Note_off_c, 1, 44, 75
3, 46752, Note_on_c, 1, 45, 118
3, 46816, Note_off_c, 1, 45, 75
3, 46848, Note_on_c, 1, 49, 118
3, 46912, Note_off_c, 1, 49, 75
3, 46944, Note_on_c, 1, 54, 118
3, 47008, Note_off_c, 1, 54, 75
3, 47040, Note_on_c, 1, 47, 118
3, 47104, Note_off_c, 1, 47, 75
3, 47136, Note_on_c, 1, 49, 118
3, 47200, Note_off_c, 1, 49, 75
3, 47232, Note_on_c, 1, 54, 118
3, 47296, Note_off_c, 1, 54, 75
3, 47328, Note_on_c, 1, 57, 118
3, 47392, Note_off_c, 1, 57, 75
3, 47424, Note_on_c, 1, 52, 118
3, 47488, Note_off_c, 1, 52, 75
3, 47520, Note_on_c, 1, 54, 118
3, 47584, Note_off_c, 1, 54, 75
3, 47616, Note_on_c, 1, 37, 118
3, 47680, Note_off_c, 1, 37, 75
3, 47712, Note_on_c, 1, 61, 118
3, 47776, Note_off_c, 1, 61, 75
3, 47808, Note_on_c, 1, 51, 118
3, 47872, Note_off_c, 1, 51, 75
3, 47904, Note_on_c, 1, 52, 118
3, 47968, Note_off_c, 1, 52, 75
3, 48000, Note_on_c, 1, 56, 118
3, 48064, Note_off_c, 1, 56, 75
3, 48096, Note_on_c, 1, 61, 118
3, 48160, Note_off_c, 1, 61, 75
3, 48192, Note_on_c, 1, 48, 118
3, 48256, Note_off_c, 1, 48, 75
3, 48288, Note_on_c, 1, 49, 118
3, 48352, Note_off_c, 1, 49, 75
3, 48384, Note_on_c, 1, 52, 118
3, 48448, Note_off_c, 1, 52, 75
3, 48480, Note_on_c, 1, 56, 118
3, 48544, Note_off_c, 1, 56, 75
3, 48576, Note_on_c, 1, 43, 118
3, 48640, Note_off_c, 1, 43, 75
3, 48672, Note_on_c, 1, 44, 118
3, 48736, Note_off_c, 1, 44, 75
3, 48768, Note_on_c, 1, 49, 118
3, 48832, Note_off_c, 1, 49, 75
3, 48864, Note_on_c, 1, 52, 118
3, 48928, Note_off_c, 1, 52, 75
3, 48960, Note_on_c, 1, 39, 118
3, 49024, Note_off_c, 1, 39, 75
3, 49056, Note_on_c, 1, 40, 118
3, 49120, Note_off_c, 1, 40, 75
3, 49152, Note_on_c, 1, 36, 118
3, 49216, Note_off_c, 1, 36, 75
3, 49248, Note_on_c, 1, 63, 118
3, 49312, Note_off_c, 1, 63, 75
3, 49344, Note_on_c, 1, 55, 118
3, 49408, Note_off_c, 1, 55, 75
3, 49440, Note_on_c, 1, 56, 118
3, 49504, Note_off_c, 1, 56, 75
3, 49536, Note_on_c, 1, 57, 118
3, 49600, Note_off_c, 1, 57, 75
3, 49632, Note_on_c, 1, 56, 118
3, 49696, Note_off_c, 1, 56, 75
3, 49728, Note_on_c, 1, 54, 118
3, 49792, Note_off_c, 1, 54, 75
3, 49824, Note_on_c, 1, 52, 118
3, 49888, Note_off_c, 1, 52, 75
3, 49920, Note_on_c, 1, 51, 118
3, 49984, Note_off_c, 1, 51, 75
3, 50016, Note_on_c, 1, 49, 118
3, 50080, Note_off_c, 1, 49, 75
3, 50112, Note_on_c, 1, 47, 118
3, 50176, Note_off_c, 1, 47, 75
3, 50208, Note_on_c, 1, 45, 118
3, 50272, Note_off_c, 1, 45, 75
3, 50304, Note_on_c, 1, 43, 118
3, 50368, Note_off_c, 1, 43, 75
3, 50400, Note_on_c, 1, 44, 118
3, 50464, Note_off_c, 1, 44, 75
3, 50496, Note_on_c, 1, 39, 118
3, 50560, Note_off_c, 1, 39, 75
3, 50592, Note_on_c, 1, 44, 118
3, 50656, Note_off_c, 1, 44, 75
3, 50688, Note_on_c, 1, 38, 118
3, 50752, Note_off_c, 1, 38, 75
3, 50784, Note_on_c, 1, 65, 118
3, 50848, Note_off_c, 1, 65, 75
3, 50880, Note_on_c, 1, 57, 118
3, 50944, Note_off_c, 1, 57, 75
3, 50976, Note_on_c, 1, 58, 118
3, 51040, Note_off_c, 1, 58, 75
3, 51072, Note_on_c, 1, 59, 118
3, 51136, Note_off_c, 1, 59, 75
3, 51168, Note_on_c, 1, 58, 118
3, 51232, Note_off_c, 1, 58, 75
3, 51264, Note_on_c, 1, 56, 118
3, 51328, Note_off_c, 1, 56, 75
3, 51360, Note_on_c, 1, 54, 118
3, 51424, Note_off_c, 1, 54, 75
3, 51456, Note_on_c, 1, 53, 118
3, 51520, Note_off_c, 1, 53, 75
3, 51552, Note_on_c, 1, 51, 118
3, 51616, Note_off_c, 1, 51, 75
3, 51648, Note_on_c, 1, 50, 118
3, 51712, Note_off_c, 1, 50, 75
3, 51744, Note_on_c, 1, 47, 118
3, 51808, Note_off_c, 1, 47, 75
3, 51840, Note_on_c, 1, 45, 118
3, 51904, Note_off_c, 1, 45, 75
3, 51936, Note_on_c, 1, 46, 118
3, 52000, Note_off_c, 1, 46, 75
3, 52032, Note_on_c, 1, 41, 118
3, 52096, Note_off_c, 1, 41, 75
3, 52128, Note_on_c, 1, 46, 118
3, 52192, Note_off_c, 1, 46, 75
3, 52224, Note_on_c, 1, 40, 118
3, 52288, Note_off_c, 1, 40, 75
3, 52320, Note_on_c, 1, 67, 118
3, 52384, Note_off_c, 1, 67, 75
3, 52416, Note_on_c, 1, 59, 118
3, 52480, Note_off_c, 1, 59, 75
3, 52512, Note_on_c, 1, 60, 118
3, 52576, Note_off_c, 1, 60, 75
3, 52608, Note_on_c, 1, 61, 118
3, 52672, Note_off_c, 1, 61, 75
3, 52704, Note_on_c, 1, 60, 118
3, 52768, Note_off_c, 1, 60, 75
3, 52800, Note_on_c, 1, 58, 118
3, 52864, Note_off_c, 1, 58, 75
3, 52896, Note_on_c, 1, 56, 118
3, 52960, Note_off_c, 1, 56, 75
3, 52992, Note_on_c, 1, 55, 118
3, 53056, Note_off_c, 1, 55, 75
3, 53088, Note_on_c, 1, 53, 118
3, 53152, Note_off_c, 1, 53, 75
3, 53184, Note_on_c, 1, 52, 118
3, 53248, Note_off_c, 1, 52, 75
3, 53280, Note_on_c, 1, 55, 118
3, 53344, Note_off_c, 1, 55, 75
3, 53376, Note_on_c, 1, 53, 118
3, 53440, Note_off_c, 1, 53, 75
3, 53472, Note_on_c, 1, 52, 118
3, 53536, Note_off_c, 1, 52, 75
3, 53568, Note_on_c, 1, 49, 118
3, 53632, Note_off_c, 1, 49, 75
3, 53664, Note_on_c, 1, 48, 118
3, 53728, Note_off_c, 1, 48, 75
3, 53760, Note_on_c, 1, 47, 118
3, 53824, Note_off_c, 1, 47, 75
3, 53856, Note_on_c, 1, 48, 118
3, 53920, Note_off_c, 1, 48, 75
3, 53952, Note_on_c, 1, 49, 118
3, 54016, Note_off_c, 1, 49, 75
3, 54048, Note_on_c, 1, 48, 118
3, 54112, Note_off_c, 1, 48, 75
3, 54144, Note_on_c, 1, 46, 118
3, 54208, Note_off_c, 1, 46, 75
3, 54240, Note_on_c, 1, 44, 118
3, 54304, Note_off_c, 1, 44, 75
3, 54336, Note_on_c, 1, 43, 118
3, 54400, Note_off_c, 1, 43, 75
3, 54432, Note_on_c, 1, 41, 118
3, 54496, Note_off_c, 1, 41, 75
3, 54528, Note_on_c, 1, 40, 118
3, 54592, Note_off_c, 1, 40, 75
3, 54624, Note_on_c, 1, 37, 118
3, 54688, Note_off_c, 1, 37, 75
3, 54720, Note_on_c, 1, 36, 118
3, 54784, Note_off_c, 1, 36, 75
3, 54816, Note_on_c, 1, 35, 118
3, 54880, Note_off_c, 1, 35, 75
3, 54912, Note_on_c, 1, 36, 118
3, 54976, Note_off_c, 1, 36, 75
3, 55008, Note_on_c, 1, 34, 118
3, 55072, Note_off_c, 1, 34, 75
3, 55104, Note_on_c, 1, 32, 118
3, 55168, Note_off_c, 1, 32, 75
3, 55200, Note_on_c, 1, 31, 118
3, 55264, Note_off_c, 1, 31, 75
3, 55296, Note_on_c, 1, 29, 118
3, 55360, Note_off_c, 1, 29, 75
3, 55392, Note_on_c, 1, 36, 118
3, 55456, Note_off_c, 1, 36, 75
3, 55488, Note_on_c, 1, 41, 118
3, 55552, Note_off_c, 1, 41, 75
3, 55584, Note_on_c, 1, 43, 118
3, 55648, Note_off_c, 1, 43, 75
3, 55680, Note_on_c, 1, 44, 118
3, 55744, Note_off_c, 1, 44, 75
3, 55776, Note_on_c, 1, 48, 118
3, 55840, Note_off_c, 1, 48, 75
3, 55872, Note_on_c, 1, 53, 118
3, 55936, Note_off_c, 1, 53, 75
3, 55968, Note_on_c, 1, 55, 118
3, 56032, Note_off_c, 1, 55, 75
3, 56064, Note_on_c, 1, 56, 118
3, 56128, Note_off_c, 1, 56, 75
3, 56160, Note_on_c, 1, 60, 118
3, 56224, Note_off_c, 1, 60, 75
3, 56256, Note_on_c, 1, 65, 118
3, 56320, Note_off_c, 1, 65, 75
3, 56352, Note_on_c, 1, 67, 118
3, 56416, Note_off_c, 1, 67, 75
3, 56544, Note_on_c, 1, 67, 118
3, 56608, Note_off_c, 1, 67, 75
3, 56640, Note_on_c, 1, 65, 118
3, 56704, Note_off_c, 1, 65, 75
3, 56736, Note_on_c, 1, 60, 118
3, 56800, Note_off_c, 1, 60, 75
3, 56832, Note_on_c, 1, 61, 118
3, 56896, Note_off_c, 1, 61, 75
3, 56928, Note_on_c, 1, 65, 118
3, 56992, Note_off_c, 1, 65, 75
3, 57024, Note_on_c, 1, 61, 118
3, 57088, Note_off_c, 1, 61, 75
3, 57120, Note_on_c, 1, 56, 118
3, 57184, Note_off_c, 1, 56, 75
3, 57216, Note_on_c, 1, 53, 118
3, 57280, Note_off_c, 1, 53, 75
3, 57312, Note_on_c, 1, 49, 118
3, 57376, Note_off_c, 1, 49, 75
3, 57408, Note_on_c, 1, 44, 118
3, 57472, Note_off_c, 1, 44, 75
3, 57504, Note_on_c, 1, 41, 118
3, 57568, Note_off_c, 1, 41, 75
3, 57600, Note_on_c, 1, 37, 118
3, 57664, Note_off_c, 1, 37, 75
3, 57696, Note_on_c, 1, 32, 118
3, 57760, Note_off_c, 1, 32, 75
3, 57792, Note_on_c, 1, 37, 118
3, 57856, Note_off_c, 1, 37, 75
3, 57888, Note_on_c, 1, 41, 118
3, 57952, Note_off_c, 1, 41, 75
3, 57984, Note_on_c, 1, 37, 118
3, 58048, Note_off_c, 1, 37, 75
3, 58080, Note_on_c, 1, 32, 118
3, 58144, Note_off_c, 1, 32, 75
3, 58176, Note_on_c, 1, 37, 118
3, 58240, Note_off_c, 1, 37, 75
3, 58272, Note_on_c, 1, 41, 118
3, 58336, Note_off_c, 1, 41, 75
3, 58368, Note_on_c, 1, 29, 118
3, 58432, Note_off_c, 1, 29, 75
3, 58464, Note_on_c, 1, 36, 118
3, 58528, Note_off_c, 1, 36, 75
3, 58560, Note_on_c, 1, 41, 118
3, 58624, Note_off_c, 1, 41, 75
3, 58656, Note_on_c, 1, 43, 118
3, 58720, Note_off_c, 1, 43, 75
3, 58752, Note_on_c, 1, 44, 118
3, 58816, Note_off_c, 1, 44, 75
3, 58848, Note_on_c, 1, 48, 118
3, 58912, Note_off_c, 1, 48, 75
3, 58944, Note_on_c, 1, 53, 118
3, 59008, Note_off_c, 1, 53, 75
3, 59040, Note_on_c, 1, 55, 118
3, 59104, Note_off_c, 1, 55, 75
3, 59136, Note_on_c, 1, 56, 118
3, 59200, Note_off_c, 1, 56, 75
3, 59232, Note_on_c, 1, 60, 118
3, 59296, Note_off_c, 1, 60, 75
3, 59328, Note_on_c, 1, 65, 118
3, 59392, Note_off_c, 1, 65, 75
3, 59424, Note_on_c, 1, 67, 118
3, 59488, Note_off_c, 1, 67, 75
3, 59616, Note_on_c, 1, 67, 118
3, 59680, Note_off_c, 1, 67, 75
3, 59712, Note_on_c, 1, 65, 118
3, 59776, Note_off_c, 1, 65, 75
3, 59808, Note_on_c, 1, 60, 118
3, 59872, Note_off_c, 1, 60, 75
3, 59904, Note_on_c, 1, 62, 118
3, 59968, Note_off_c, 1, 62, 75
3, 60000, Note_on_c, 1, 65, 118
3, 60064, Note_off_c, 1, 65, 75
3, 60096, Note_on_c, 1, 62, 118
3, 60160, Note_off_c, 1, 62, 75
3, 60192, Note_on_c, 1, 60, 118
3, 60256, Note_off_c, 1, 60, 75
3, 60288, Note_on_c, 1, 56, 118
3, 60352, Note_off_c, 1, 56, 75
3, 60384, Note_on_c, 1, 53, 118
3, 60448, Note_off_c, 1, 53, 75
3, 60480, Note_on_c, 1, 50, 118
3, 60544, Note_off_c, 1, 50, 75
3, 60576, Note_on_c, 1, 48, 118
3, 60640, Note_off_c, 1, 48, 75
3, 60672, Note_on_c, 1, 44, 118
3, 60736, Note_off_c, 1, 44, 75
3, 60768, Note_on_c, 1, 41, 118
3, 60832, Note_off_c, 1, 41, 75
3, 60864, Note_on_c, 1, 38, 118
3, 60928, Note_off_c, 1, 38, 75
3, 60960, Note_on_c, 1, 36, 118
3, 61024, Note_off_c, 1, 36, 75
3, 61056, Note_on_c, 1, 32, 118
3, 61120, Note_off_c, 1, 32, 75
3, 61152, Note_on_c, 1, 36, 118
3, 61216, Note_off_c, 1, 36, 75
3, 61248, Note_on_c, 1, 38, 118
3, 61312, Note_off_c, 1, 38, 75
3, 61344, Note_on_c, 1, 44, 118
3, 61408, Note_off_c, 1, 44, 75
3, 61440, Note_on_c, 1, 31, 118
3, 61440, Note_on_c, 1, 43, 118
3, 61568, Note_off_c, 1, 31, 75
3, 61568, Note_off_c, 1, 43, 75
3, 61728, Note_on_c, 1, 67, 118
3, 61792, Note_off_c, 1, 67, 75
3, 61824, Note_on_c, 1, 65, 118
3, 61888, Note_off_c, 1, 65, 75
3, 61920, Note_on_c, 1, 62, 118
3, 61984, Note_off_c, 1, 62, 75
3, 62016, Note_on_c, 1, 63, 118
3, 62080, Note_off_c, 1, 63, 75
3, 62112, Note_on_c, 1, 62, 118
3, 62176, Note_off_c, 1, 62, 75
3, 62208, Note_on_c, 1, 59, 118
3, 62272, Note_off_c, 1, 59, 75
3, 62304, Note_on_c, 1, 55, 118
3, 62368, Note_off_c, 1, 55, 75
3, 62400, Note_on_c, 1, 56, 118
3, 62464, Note_off_c, 1, 56, 75
3, 62496, Note_on_c, 1, 55, 118
3, 62560, Note_off_c, 1, 55, 75
3, 62592, Note_on_c, 1, 53, 118
3, 62656, Note_off_c, 1, 53, 75
3, 62688, Note_on_c, 1, 50, 118
3, 62752, Note_off_c, 1, 50, 75
3, 62784, Note_on_c, 1, 51, 118
3, 62848, Note_off_c, 1, 51, 75
3, 62880, Note_on_c, 1, 50, 118
3, 62944, Note_off_c, 1, 50, 75
3, 62976, Note_on_c, 1, 47, 118
3, 63040, Note_off_c, 1, 47, 75
3, 63072, Note_on_c, 1, 43, 118
3, 63136, Note_off_c, 1, 43, 75
3, 63168, Note_on_c, 1, 44, 118
3, 63232, Note_off_c, 1, 44, 75
3, 63264, Note_on_c, 1, 43, 118
3, 63328, Note_off_c, 1, 43, 75
3, 63360, Note_on_c, 1, 41, 118
3, 63424, Note_off_c, 1, 41, 75
3, 63456, Note_on_c, 1, 38, 118
3, 63520, Note_off_c, 1, 38, 75
3, 63552, Note_on_c, 1, 39, 118
3, 63616, Note_off_c, 1, 39, 75
3, 63648, Note_on_c, 1, 38, 118
3, 63712, Note_off_c, 1, 38, 75
3, 63744, Note_on_c, 1, 36, 118
3, 63808, Note_off_c, 1, 36, 75
3, 63840, Note_on_c, 1, 31, 118
3, 63904, Note_off_c, 1, 31, 75
3, 63936, Note_on_c, 1, 36, 118
3, 64000, Note_off_c, 1, 36, 75
3, 64032, Note_on_c, 1, 31, 118
3, 64096, Note_off_c, 1, 31, 75
3, 64128, Note_on_c, 1, 36, 118
3, 64192, Note_off_c, 1, 36, 75
3, 64224, Note_on_c, 1, 31, 118
3, 64288, Note_off_c, 1, 31, 75
3, 64320, Note_on_c, 1, 36, 118
3, 64384, Note_off_c, 1, 36, 75
3, 64416, Note_on_c, 1, 31, 118
3, 64480, Note_off_c, 1, 31, 75
3, 64512, Note_on_c, 1, 35, 118
3, 64640, Note_off_c, 1, 35, 75
3, 64704, Note_on_c, 1, 68, 118
3, 64768, Note_off_c, 1, 68, 75
3, 64800, Note_on_c, 1, 67, 118
3, 64864, Note_off_c, 1, 67, 75
3, 64896, Note_on_c, 1, 65, 118
3, 64960, Note_off_c, 1, 65, 75
3, 64992, Note_on_c, 1, 62, 118
3, 65056, Note_off_c, 1, 62, 75
3, 65088, Note_on_c, 1, 63, 118
3, 65152, Note_off_c, 1, 63, 75
3, 65184, Note_on_c, 1, 62, 118
3, 65248, Note_off_c, 1, 62, 75
3, 65280, Note_on_c, 1, 59, 118
3, 65344, Note_off_c, 1, 59, 75
3, 65376, Note_on_c, 1, 55, 118
3, 65440, Note_off_c, 1, 55, 75
3, 65472, Note_on_c, 1, 56, 118
3, 65536, Note_off_c, 1, 56, 75
3, 65568, Note_on_c, 1, 55, 118
3, 65632, Note_off_c, 1, 55, 75
3, 65664, Note_on_c, 1, 53, 118
3, 65728, Note_off_c, 1, 53, 75
3, 65760, Note_on_c, 1, 50, 118
3, 65824, Note_off_c, 1, 50, 75
3, 65856, Note_on_c, 1, 51, 118
3, 65920, Note_off_c, 1, 51, 75
3, 65952, Note_on_c, 1, 50, 118
3, 66016, Note_off_c, 1, 50, 75
3, 66048, Note_on_c, 1, 47, 118
3, 66112, Note_off_c, 1, 47, 75
3, 66144, Note_on_c, 1, 43, 118
3, 66208, Note_off_c, 1, 43, 75
3, 66240, Note_on_c, 1, 44, 118
3, 66304, Note_off_c, 1, 44, 75
3, 66336, Note_on_c, 1, 43, 118
3, 66400, Note_off_c, 1, 43, 75
3, 66432, Note_on_c, 1, 41, 118
3, 66496, Note_off_c, 1, 41, 75
3, 66528, Note_on_c, 1, 38, 118
3, 66592, Note_off_c, 1, 38, 75
3, 66624, Note_on_c, 1, 39, 118
3, 66688, Note_off_c, 1, 39, 75
3, 66720, Note_on_c, 1, 38, 118
3, 66784, Note_off_c, 1, 38, 75
3, 66816, Note_on_c, 1, 36, 118
3, 66880, Note_off_c, 1, 36, 75
3, 66912, Note_on_c, 1, 31, 118
3, 66976, Note_off_c, 1, 31, 75
3, 67008, Note_on_c, 1, 36, 118
3, 67072, Note_off_c, 1, 36, 75
3, 67104, Note_on_c, 1, 31, 118
3, 67168, Note_off_c, 1, 31, 75
3, 67200, Note_on_c, 1, 36, 118
3, 67264, Note_off_c, 1, 36, 75
3, 67296, Note_on_c, 1, 31, 118
3, 67360, Note_off_c, 1, 31, 75
3, 67392, Note_on_c, 1, 36, 118
3, 67456, Note_off_c, 1, 36, 75
3, 67488, Note_on_c, 1, 31, 118
3, 67552, Note_off_c, 1, 31, 75
3, 67584, Note_on_c, 1, 47, 118
3, 67712, Note_off_c, 1, 47, 75
3, 69120, Note_on_c, 1, 59, 118
3, 69184, Note_off_c, 1, 59, 75
3, 69216, Note_on_c, 1, 55, 118
3, 69280, Note_off_c, 1, 55, 75
3, 69312, Note_on_c, 1, 56, 118
3, 69376, Note_off_c, 1, 56, 75
3, 69408, Note_on_c, 1, 55, 118
3, 69472, Note_off_c, 1, 55, 75
3, 69504, Note_on_c, 1, 53, 118
3, 69568, Note_off_c, 1, 53, 75
3, 69600, Note_on_c, 1, 50, 118
3, 69664, Note_off_c, 1, 50, 75
3, 69696, Note_on_c, 1, 51, 118
3, 69760, Note_off_c, 1, 51, 75
3, 69792, Note_on_c, 1, 50, 118
3, 69856, Note_off_c, 1, 50, 75
3, 69888, Note_on_c, 1, 47, 118
3, 69888, Note_on_c, 1, 59, 118
3, 69952, Note_off_c, 1, 47, 75
3, 69952, Note_off_c, 1, 59, 75
3, 69984, Note_on_c, 1, 43, 118
3, 69984, Note_on_c, 1, 55, 118
3, 70048, Note_off_c, 1, 43, 75
3, 70048, Note_off_c, 1, 55, 75
3, 70080, Note_on_c, 1, 44, 118
3, 70080, Note_on_c, 1, 56, 118
3, 70144, Note_off_c, 1, 44, 75
3, 70144, Note_off_c, 1, 56, 75
3, 70176, Note_on_c, 1, 43, 118
3, 70176, Note_on_c, 1, 55, 118
3, 70240, Note_off_c, 1, 43, 75
3, 70240, Note_off_c, 1, 55, 75
3, 70272, Note_on_c, 1, 41, 118
3, 70272, Note_on_c, 1, 53, 118
3, 70336, Note_off_c, 1, 41, 75
3, 70336, Note_off_c, 1, 53, 75
3, 70368, Note_on_c, 1, 38, 118
3, 70368, Note_on_c, 1, 50, 118
3, 70432, Note_off_c, 1, 38, 75
3, 70432, Note_off_c, 1, 50, 75
3, 70464, Note_on_c, 1, 39, 118
3, 70464, Note_on_c, 1, 51, 118
3, 70528, Note_off_c, 1, 39, 75
3, 70528, Note_off_c, 1, 51, 75
3, 70560, Note_on_c, 1, 38, 118
3, 70560, Note_on_c, 1, 50, 118
3, 70624, Note_off_c, 1, 38, 75
3, 70624, Note_off_c, 1, 50, 75
3, 70656, Note_on_c, 1, 36, 118
3, 70656, Note_on_c, 1, 48, 118
3, 70720, Note_off_c, 1, 36, 75
3, 70720, Note_off_c, 1, 48, 75
3, 70752, Note_on_c, 1, 35, 118
3, 70752, Note_on_c, 1, 47, 118
3, 70816, Note_off_c, 1, 35, 75
3, 70816, Note_off_c, 1, 47, 75
3, 70848, Note_on_c, 1, 43, 118
3, 70848, Note_on_c, 1, 55, 118
3, 70912, Note_off_c, 1, 43, 75
3, 70912, Note_off_c, 1, 55, 75
3, 70944, Note_on_c, 1, 41, 118
3, 70944, Note_on_c, 1, 53, 118
3, 71008, Note_off_c, 1, 41, 75
3, 71008, Note_off_c, 1, 53, 75
3, 71040, Note_on_c, 1, 39, 118
3, 71040, Note_on_c, 1, 51, 118
3, 71104, Note_off_c, 1, 39, 75
3, 71104, Note_off_c, 1, 51, 75
3, 71136, Note_on_c, 1, 38, 118
3, 71136, Note_on_c, 1, 50, 118
3, 71200, Note_off_c, 1, 38, 75
3, 71200, Note_off_c, 1, 50, 75
3, 71232, Note_on_c, 1, 39, 118
3, 71232, Note_on_c, 1, 51, 118
3, 71296, Note_off_c, 1, 39, 75
3, 71296, Note_off_c, 1, 51, 75
3, 71328, Note_on_c, 1, 38, 118
3, 71328, Note_on_c, 1, 50, 118
3, 71392, Note_off_c, 1, 38, 75
3, 71392, Note_off_c, 1, 50, 75
3, 71424, Note_on_c, 1, 36, 118
3, 71424, Note_on_c, 1, 48, 118
3, 71488, Note_off_c, 1, 36, 75
3, 71488, Note_off_c, 1, 48, 75
3, 71520, Note_on_c, 1, 35, 118
3, 71520, Note_on_c, 1, 47, 118
3, 71584, Note_off_c, 1, 35, 75
3, 71584, Note_off_c, 1, 47, 75
3, 71616, Note_on_c, 1, 46, 118
3, 71616, Note_on_c, 1, 58, 118
3, 71680, Note_off_c, 1, 46, 75
3, 71680, Note_off_c, 1, 58, 75
3, 71712, Note_on_c, 1, 44, 118
3, 71712, Note_on_c, 1, 56, 118
3, 71776, Note_off_c, 1, 44, 75
3, 71776, Note_off_c, 1, 56, 75
3, 71808, Note_on_c, 1, 43, 118
3, 71808, Note_on_c, 1, 55, 118
3, 71872, Note_off_c, 1, 43, 75
3, 71872, Note_off_c, 1, 55, 75
3, 71904, Note_on_c, 1, 41, 118
3, 71904, Note_on_c, 1, 53, 118
3, 71968, Note_off_c, 1, 41, 75
3, 71968, Note_off_c, 1, 53, 75
3, 72000, Note_on_c, 1, 43, 118
3, 72000, Note_on_c, 1, 55, 118
3, 72064, Note_off_c, 1, 43, 75
3, 72064, Note_off_c, 1, 55, 75
3, 72096, Note_on_c, 1, 41, 118
3, 72096, Note_on_c, 1, 53, 118
3, 72160, Note_off_c, 1, 41, 75
3, 72160, Note_off_c, 1, 53, 75
3, 72192, Note_on_c, 1, 39, 118
3, 72192, Note_on_c, 1, 51, 118
3, 72256, Note_off_c, 1, 39, 75
3, 72256, Note_off_c, 1, 51, 75
3, 72288, Note_on_c, 1, 50, 118
3, 72288, Note_on_c, 1, 38, 118
3, 72352, Note_off_c, 1, 50, 75
3, 72352, Note_off_c, 1, 38, 75
3, 72384, Note_on_c, 1, 51, 118
3, 72384, Note_on_c, 1, 63, 118
3, 72448, Note_off_c, 1, 51, 75
3, 72448, Note_off_c, 1, 63, 75
3, 72480, Note_on_c, 1, 50, 118
3, 72480, Note_on_c, 1, 62, 118
3, 72544, Note_off_c, 1, 50, 75
3, 72544, Note_off_c, 1, 62, 75
3, 72576, Note_on_c, 1, 60, 118
3, 72576, Note_on_c, 1, 48, 118
3, 72640, Note_off_c, 1, 60, 75
3, 72640, Note_off_c, 1, 48, 75
3, 72672, Note_on_c, 1, 47, 118
3, 72672, Note_on_c, 1, 59, 118
3, 72736, Note_off_c, 1, 47, 75
3, 72736, Note_off_c, 1, 59, 75
3, 72768, Note_on_c, 1, 48, 118
3, 72768, Note_on_c, 1, 60, 118
3, 72832, Note_off_c, 1, 48, 75
3, 72832, Note_off_c, 1, 60, 75
3, 72864, Note_on_c, 1, 47, 118
3, 72864, Note_on_c, 1, 59, 118
3, 72928, Note_off_c, 1, 47, 75
3, 72928, Note_off_c, 1, 59, 75
3, 72960, Note_on_c, 1, 44, 118
3, 72960, Note_on_c, 1, 56, 118
3, 73024, Note_off_c, 1, 44, 75
3, 73024, Note_off_c, 1, 56, 75
3, 73056, Note_on_c, 1, 43, 118
3, 73056, Note_on_c, 1, 55, 118
3, 73120, Note_off_c, 1, 43, 75
3, 73120, Note_off_c, 1, 55, 75
3, 73152, Note_on_c, 1, 44, 118
3, 73152, Note_on_c, 1, 56, 118
3, 73216, Note_off_c, 1, 44, 75
3, 73216, Note_off_c, 1, 56, 75
3, 73248, Note_on_c, 1, 43, 118
3, 73248, Note_on_c, 1, 55, 118
3, 73312, Note_off_c, 1, 43, 75
3, 73312, Note_off_c, 1, 55, 75
3, 73344, Note_on_c, 1, 41, 118
3, 73344, Note_on_c, 1, 53, 118
3, 73408, Note_off_c, 1, 41, 75
3, 73408, Note_off_c, 1, 53, 75
3, 73440, Note_on_c, 1, 39, 118
3, 73440, Note_on_c, 1, 51, 118
3, 73504, Note_off_c, 1, 39, 75
3, 73504, Note_off_c, 1, 51, 75
3, 73536, Note_on_c, 1, 41, 118
3, 73536, Note_on_c, 1, 53, 118
3, 73600, Note_off_c, 1, 41, 75
3, 73600, Note_off_c, 1, 53, 75
3, 73632, Note_on_c, 1, 39, 118
3, 73632, Note_on_c, 1, 51, 118
3, 73696, Note_off_c, 1, 39, 75
3, 73696, Note_off_c, 1, 51, 75
3, 73728, Note_on_c, 1, 48, 118
3, 73728, Note_on_c, 1, 36, 118
3, 73792, Note_off_c, 1, 36, 75
3, 73824, Note_on_c, 1, 44, 118
3, 73856, Note_off_c, 1, 48, 75
3, 73888, Note_off_c, 1, 44, 75
3, 73920, Note_on_c, 1, 48, 118
3, 73984, Note_off_c, 1, 48, 75
3, 74016, Note_on_c, 1, 50, 118
3, 74080, Note_off_c, 1, 50, 75
3, 74112, Note_on_c, 1, 51, 118
3, 74176, Note_off_c, 1, 51, 75
3, 74208, Note_on_c, 1, 55, 118
3, 74272, Note_off_c, 1, 55, 75
3, 74304, Note_on_c, 1, 60, 118
3, 74368, Note_off_c, 1, 60, 75
3, 74400, Note_on_c, 1, 62, 118
3, 74464, Note_off_c, 1, 62, 75
3, 74496, Note_on_c, 1, 63, 118
3, 74560, Note_off_c, 1, 63, 75
3, 74592, Note_on_c, 1, 62, 118
3, 74656, Note_off_c, 1, 62, 75
3, 74688, Note_on_c, 1, 60, 118
3, 74752, Note_off_c, 1, 60, 75
3, 74784, Note_on_c, 1, 55, 118
3, 74848, Note_off_c, 1, 55, 75
3, 74880, Note_on_c, 1, 51, 118
3, 74944, Note_off_c, 1, 51, 75
3, 74976, Note_on_c, 1, 50, 118
3, 75040, Note_off_c, 1, 50, 75
3, 75072, Note_on_c, 1, 48, 118
3, 75136, Note_off_c, 1, 48, 75
3, 75168, Note_on_c, 1, 43, 118
3, 75232, Note_off_c, 1, 43, 75
3, 75264, Note_on_c, 1, 36, 118
3, 75328, Note_off_c, 1, 36, 75
3, 75360, Note_on_c, 1, 43, 118
3, 75424, Note_off_c, 1, 43, 75
3, 75456, Note_on_c, 1, 48, 118
3, 75520, Note_off_c, 1, 48, 75
3, 75552, Note_on_c, 1, 50, 118
3, 75616, Note_off_c, 1, 50, 75
3, 75648, Note_on_c, 1, 51, 118
3, 75712, Note_off_c, 1, 51, 75
3, 75744, Note_on_c, 1, 50, 118
3, 75808, Note_off_c, 1, 50, 75
3, 75840, Note_on_c, 1, 48, 118
3, 75904, Note_off_c, 1, 48, 75
3, 75936, Note_on_c, 1, 43, 118
3, 76000, Note_off_c, 1, 43, 75
3, 76032, Note_on_c, 1, 36, 118
3, 76096, Note_off_c, 1, 36, 75
3, 76128, Note_on_c, 1, 43, 118
3, 76192, Note_off_c, 1, 43, 75
3, 76224, Note_on_c, 1, 48, 118
3, 76288, Note_off_c, 1, 48, 75
3, 76320, Note_on_c, 1, 50, 118
3, 76384, Note_off_c, 1, 50, 75
3, 76416, Note_on_c, 1, 51, 118
3, 76480, Note_off_c, 1, 51, 75
3, 76512, Note_on_c, 1, 50, 118
3, 76576, Note_off_c, 1, 50, 75
3, 76608, Note_on_c, 1, 48, 118
3, 76672, Note_off_c, 1, 48, 75
3, 76704, Note_on_c, 1, 43, 118
3, 76768, Note_off_c, 1, 43, 75
3, 76800, Note_on_c, 1, 36, 118
3, 76864, Note_off_c, 1, 36, 75
3, 76896, Note_on_c, 1, 43, 118
3, 76960, Note_off_c, 1, 43, 75
3, 76992, Note_on_c, 1, 48, 118
3, 77056, Note_off_c, 1, 48, 75
3, 77088, Note_on_c, 1, 50, 118
3, 77152, Note_off_c, 1, 50, 75
3, 77184, Note_on_c, 1, 51, 118
3, 77248, Note_off_c, 1, 51, 75
3, 77280, Note_on_c, 1, 55, 118
3, 77344, Note_off_c, 1, 55, 75
3, 77376, Note_on_c, 1, 60, 118
3, 77440, Note_off_c, 1, 60, 75
3, 77472, Note_on_c, 1, 62, 118
3, 77536, Note_off_c, 1, 62, 75
3, 77568, Note_on_c, 1, 63, 118
3, 77632, Note_off_c, 1, 63, 75
3, 77664, Note_on_c, 1, 62, 118
3, 77728, Note_off_c, 1, 62, 75
3, 77760, Note_on_c, 1, 60, 118
3, 77824, Note_off_c, 1, 60, 75
3, 77856, Note_on_c, 1, 55, 118
3, 77920, Note_off_c, 1, 55, 75
3, 77952, Note_on_c, 1, 51, 118
3, 78016, Note_off_c, 1, 51, 75
3, 78048, Note_on_c, 1, 50, 118
3, 78112, Note_off_c, 1, 50, 75
3, 78144, Note_on_c, 1, 48, 118
3, 78208, Note_off_c, 1, 48, 75
3, 78240, Note_on_c, 1, 43, 118
3, 78304, Note_off_c, 1, 43, 75
3, 78336, Note_on_c, 1, 36, 118
3, 78400, Note_off_c, 1, 36, 75
3, 78432, Note_on_c, 1, 43, 118
3, 78496, Note_off_c, 1, 43, 75
3, 78528, Note_on_c, 1, 48, 118
3, 78592, Note_off_c, 1, 48, 75
3, 78624, Note_on_c, 1, 50, 118
3, 78688, Note_off_c, 1, 50, 75
3, 78720, Note_on_c, 1, 51, 118
3, 78784, Note_off_c, 1, 51, 75
3, 78816, Note_on_c, 1, 50, 118
3, 78880, Note_off_c, 1, 50, 75
3, 78912, Note_on_c, 1, 48, 118
3, 78976, Note_off_c, 1, 48, 75
3, 79008, Note_on_c, 1, 43, 118
3, 79072, Note_off_c, 1, 43, 75
3, 79104, Note_on_c, 1, 36, 118
3, 79168, Note_off_c, 1, 36, 75
3, 79200, Note_on_c, 1, 43, 118
3, 79264, Note_off_c, 1, 43, 75
3, 79296, Note_on_c, 1, 48, 118
3, 79360, Note_off_c, 1, 48, 75
3, 79392, Note_on_c, 1, 50, 118
3, 79456, Note_off_c, 1, 50, 75
3, 79488, Note_on_c, 1, 51, 118
3, 79552, Note_off_c, 1, 51, 75
3, 79584, Note_on_c, 1, 50, 118
3, 79648, Note_off_c, 1, 50, 75
3, 79680, Note_on_c, 1, 48, 118
3, 79744, Note_off_c, 1, 48, 75
3, 79776, Note_on_c, 1, 43, 118
3, 79840, Note_off_c, 1, 43, 75
3, 79872, Note_on_c, 1, 36, 118
3, 79936, Note_off_c, 1, 36, 75
3, 79968, Note_on_c, 1, 43, 118
3, 80032, Note_off_c, 1, 43, 75
3, 80064, Note_on_c, 1, 48, 118
3, 80128, Note_off_c, 1, 48, 75
3, 80160, Note_on_c, 1, 50, 118
3, 80224, Note_off_c, 1, 50, 75
3, 80256, Note_on_c, 1, 51, 118
3, 80320, Note_off_c, 1, 51, 75
3, 80352, Note_on_c, 1, 55, 118
3, 80416, Note_off_c, 1, 55, 75
3, 80448, Note_on_c, 1, 60, 118
3, 80512, Note_off_c, 1, 60, 75
3, 80544, Note_on_c, 1, 62, 118
3, 80608, Note_off_c, 1, 62, 75
3, 80640, Note_on_c, 1, 63, 118
3, 80704, Note_off_c, 1, 63, 75
3, 80736, Note_on_c, 1, 62, 118
3, 80800, Note_off_c, 1, 62, 75
3, 80832, Note_on_c, 1, 60, 118
3, 80896, Note_off_c, 1, 60, 75
3, 80928, Note_on_c, 1, 55, 118
3, 80992, Note_off_c, 1, 55, 75
3, 81024, Note_on_c, 1, 51, 118
3, 81088, Note_off_c, 1, 51, 75
3, 81120, Note_on_c, 1, 50, 118
3, 81184, Note_off_c, 1, 50, 75
3, 81216, Note_on_c, 1, 48, 118
3, 81280, Note_off_c, 1, 48, 75
3, 81312, Note_on_c, 1, 43, 118
3, 81376, Note_off_c, 1, 43, 75
3, 81408, Note_on_c, 1, 36, 118
3, 81472, Note_off_c, 1, 36, 75
3, 81504, Note_on_c, 1, 42, 118
3, 81568, Note_off_c, 1, 42, 75
3, 81600, Note_on_c, 1, 48, 118
3, 81664, Note_off_c, 1, 48, 75
3, 81696, Note_on_c, 1, 50, 118
3, 81760, Note_off_c, 1, 50, 75
3, 81792, Note_on_c, 1, 51, 118
3, 81856, Note_off_c, 1, 51, 75
3, 81888, Note_on_c, 1, 50, 118
3, 81952, Note_off_c, 1, 50, 75
3, 81984, Note_on_c, 1, 48, 118
3, 82048, Note_off_c, 1, 48, 75
3, 82080, Note_on_c, 1, 42, 118
3, 82144, Note_off_c, 1, 42, 75
3, 82176, Note_on_c, 1, 36, 118
3, 82240, Note_off_c, 1, 36, 75
3, 82272, Note_on_c, 1, 42, 118
3, 82336, Note_off_c, 1, 42, 75
3, 82368, Note_on_c, 1, 48, 118
3, 82432, Note_off_c, 1, 48, 75
3, 82464, Note_on_c, 1, 50, 118
3, 82528, Note_off_c, 1, 50, 75
3, 82560, Note_on_c, 1, 51, 118
3, 82624, Note_off_c, 1, 51, 75
3, 82656, Note_on_c, 1, 50, 118
3, 82720, Note_off_c, 1, 50, 75
3, 82752, Note_on_c, 1, 48, 118
3, 82816, Note_off_c, 1, 48, 75
3, 82848, Note_on_c, 1, 42, 118
3, 82912, Note_off_c, 1, 42, 75
3, 82944, Note_on_c, 1, 35, 118
3, 83008, Note_off_c, 1, 35, 75
3, 83040, Note_on_c, 1, 47, 118
3, 83104, Note_off_c, 1, 47, 75
3, 83136, Note_on_c, 1, 50, 118
3, 83200, Note_off_c, 1, 50, 75
3, 83232, Note_on_c, 1, 55, 118
3, 83296, Note_off_c, 1, 55, 75
3, 83328, Note_on_c, 1, 62, 118
3, 83392, Note_off_c, 1, 62, 75
3, 83424, Note_on_c, 1, 55, 118
3, 83488, Note_off_c, 1, 55, 75
3, 83520, Note_on_c, 1, 50, 118
3, 83584, Note_off_c, 1, 50, 75
3, 83616, Note_on_c, 1, 47, 118
3, 83680, Note_off_c, 1, 47, 75
3, 83712, Note_on_c, 1, 34, 118
3, 83776, Note_off_c, 1, 34, 75
3, 83808, Note_on_c, 1, 46, 118
3, 83872, Note_off_c, 1, 46, 75
3, 83904, Note_on_c, 1, 49, 118
3, 83968, Note_off_c, 1, 49, 75
3, 84000, Note_on_c, 1, 55, 118
3, 84064, Note_off_c, 1, 55, 75
3, 84096, Note_on_c, 1, 61, 118
3, 84160, Note_off_c, 1, 61, 75
3, 84192, Note_on_c, 1, 55, 118
3, 84256, Note_off_c, 1, 55, 75
3, 84288, Note_on_c, 1, 49, 118
3, 84352, Note_off_c, 1, 49, 75
3, 84384, Note_on_c, 1, 46, 118
3, 84448, Note_off_c, 1, 46, 75
3, 84480, Note_on_c, 1, 33, 118
3, 84544, Note_off_c, 1, 33, 75
3, 84576, Note_on_c, 1, 45, 118
3, 84640, Note_off_c, 1, 45, 75
3, 84672, Note_on_c, 1, 48, 118
3, 84736, Note_off_c, 1, 48, 75
3, 84768, Note_on_c, 1, 53, 118
3, 84832, Note_off_c, 1, 53, 75
3, 84864, Note_on_c, 1, 60, 118
3, 84928, Note_off_c, 1, 60, 75
3, 84960, Note_on_c, 1, 53, 118
3, 85024, Note_off_c, 1, 53, 75
3, 85056, Note_on_c, 1, 48, 118
3, 85120, Note_off_c, 1, 48, 75
3, 85152, Note_on_c, 1, 45, 118
3, 85216, Note_off_c, 1, 45, 75
3, 85248, Note_on_c, 1, 32, 118
3, 85312, Note_off_c, 1, 32, 75
3, 85344, Note_on_c, 1, 44, 118
3, 85408, Note_off_c, 1, 44, 75
3, 85440, Note_on_c, 1, 48, 118
3, 85504, Note_off_c, 1, 48, 75
3, 85536, Note_on_c, 1, 53, 118
3, 85600, Note_off_c, 1, 53, 75
3, 85632, Note_on_c, 1, 60, 118
3, 85696, Note_off_c, 1, 60, 75
3, 85728, Note_on_c, 1, 53, 118
3, 85792, Note_off_c, 1, 53, 75
3, 85824, Note_on_c, 1, 48, 118
3, 85888, Note_off_c, 1, 48, 75
3, 85920, Note_on_c, 1, 44, 118
3, 85984, Note_off_c, 1, 44, 75
3, 86016, Note_on_c, 1, 31, 118
3, 86080, Note_off_c, 1, 31, 75
3, 86112, Note_on_c, 1, 43, 118
3, 86176, Note_off_c, 1, 43, 75
3, 86208, Note_on_c, 1, 48, 118
3, 86272, Note_off_c, 1, 48, 75
3, 86304, Note_on_c, 1, 47, 118
3, 86368, Note_off_c, 1, 47, 75
3, 86400, Note_on_c, 1, 49, 118
3, 86464, Note_off_c, 1, 49, 75
3, 86496, Note_on_c, 1, 48, 118
3, 86560, Note_off_c, 1, 48, 75
3, 86592, Note_on_c, 1, 50, 118
3, 86656, Note_off_c, 1, 50, 75
3, 86688, Note_on_c, 1, 49, 118
3, 86752, Note_off_c, 1, 49, 75
3, 86784, Note_on_c, 1, 51, 118
3, 86848, Note_off_c, 1, 51, 75
3, 86880, Note_on_c, 1, 50, 118
3, 86944, Note_off_c, 1, 50, 75
3, 86976, Note_on_c, 1, 52, 118
3, 87040, Note_off_c, 1, 52, 75
3, 87072, Note_on_c, 1, 51, 118
3, 87136, Note_off_c, 1, 51, 75
3, 87168, Note_on_c, 1, 53, 118
3, 87232, Note_off_c, 1, 53, 75
3, 87264, Note_on_c, 1, 52, 118
3, 87328, Note_off_c, 1, 52, 75
3, 87360, Note_on_c, 1, 54, 118
3, 87424, Note_off_c, 1, 54, 75
3, 87456, Note_on_c, 1, 53, 118
3, 87520, Note_off_c, 1, 53, 75
3, 87552, Note_on_c, 1, 55, 118
3, 87616, Note_off_c, 1, 55, 75
3, 87648, Note_on_c, 1, 54, 118
3, 87712, Note_off_c, 1, 54, 75
3, 87744, Note_on_c, 1, 56, 118
3, 87808, Note_off_c, 1, 56, 75
3, 87840, Note_on_c, 1, 55, 118
3, 87904, Note_off_c, 1, 55, 75
3, 87936, Note_on_c, 1, 58, 118
3, 88000, Note_off_c, 1, 58, 75
3, 88032, Note_on_c, 1, 56, 118
3, 88096, Note_off_c, 1, 56, 75
3, 88128, Note_on_c, 1, 55, 118
3, 88192, Note_off_c, 1, 55, 75
3, 88224, Note_on_c, 1, 53, 118
3, 88288, Note_off_c, 1, 53, 75
3, 88320, Note_on_c, 1, 51, 118
3, 88384, Note_off_c, 1, 51, 75
3, 88416, Note_on_c, 1, 50, 118
3, 88480, Note_off_c, 1, 50, 75
3, 88512, Note_on_c, 1, 48, 118
3, 88576, Note_off_c, 1, 48, 75
3, 88608, Note_on_c, 1, 47, 118
3, 88672, Note_off_c, 1, 47, 75
3, 88704, Note_on_c, 1, 44, 118
3, 88768, Note_off_c, 1, 44, 75
3, 88800, Note_on_c, 1, 43, 118
3, 88864, Note_off_c, 1, 43, 75
3, 88896, Note_on_c, 1, 41, 118
3, 88960, Note_off_c, 1, 41, 75
3, 88992, Note_on_c, 1, 38, 118
3, 89056, Note_off_c, 1, 38, 75
3, 89088, Note_on_c, 1, 36, 118
3, 89152, Note_off_c, 1, 36, 75
3, 89184, Note_on_c, 1, 43, 118
3, 89248, Note_off_c, 1, 43, 75
3, 89280, Note_on_c, 1, 48, 118
3, 89344, Note_off_c, 1, 48, 75
3, 89376, Note_on_c, 1, 50, 118
3, 89440, Note_off_c, 1, 50, 75
3, 89472, Note_on_c, 1, 51, 118
3, 89536, Note_off_c, 1, 51, 75
3, 89568, Note_on_c, 1, 55, 118
3, 89632, Note_off_c, 1, 55, 75
3, 89664, Note_on_c, 1, 60, 118
3, 89728, Note_off_c, 1, 60, 75
3, 89760, Note_on_c, 1, 62, 118
3, 89824, Note_off_c, 1, 62, 75
3, 89856, Note_on_c, 1, 63, 118
3, 89920, Note_off_c, 1, 63, 75
3, 89952, Note_on_c, 1, 62, 118
3, 90016, Note_off_c, 1, 62, 75
3, 90048, Note_on_c, 1, 60, 118
3, 90112, Note_off_c, 1, 60, 75
3, 90144, Note_on_c, 1, 55, 118
3, 90208, Note_off_c, 1, 55, 75
3, 90240, Note_on_c, 1, 51, 118
3, 90304, Note_off_c, 1, 51, 75
3, 90336, Note_on_c, 1, 50, 118
3, 90400, Note_off_c, 1, 50, 75
3, 90432, Note_on_c, 1, 48, 118
3, 90496, Note_off_c, 1, 48, 75
3, 90528, Note_on_c, 1, 43, 118
3, 90592, Note_off_c, 1, 43, 75
3, 90624, Note_on_c, 1, 36, 118
3, 90688, Note_off_c, 1, 36, 75
3, 90720, Note_on_c, 1, 43, 118
3, 90784, Note_off_c, 1, 43, 75
3, 90816, Note_on_c, 1, 48, 118
3, 90880, Note_off_c, 1, 48, 75
3, 90912, Note_on_c, 1, 50, 118
3, 90976, Note_off_c, 1, 50, 75
3, 91008, Note_on_c, 1, 51, 118
3, 91072, Note_off_c, 1, 51, 75
3, 91104, Note_on_c, 1, 50, 118
3, 91168, Note_off_c, 1, 50, 75
3, 91200, Note_on_c, 1, 48, 118
3, 91264, Note_off_c, 1, 48, 75
3, 91296, Note_on_c, 1, 43, 118
3, 91360, Note_off_c, 1, 43, 75
3, 91392, Note_on_c, 1, 36, 118
3, 91456, Note_off_c, 1, 36, 75
3, 91488, Note_on_c, 1, 43, 118
3, 91552, Note_off_c, 1, 43, 75
3, 91584, Note_on_c, 1, 48, 118
3, 91648, Note_off_c, 1, 48, 75
3, 91680, Note_on_c, 1, 50, 118
3, 91744, Note_off_c, 1, 50, 75
3, 91776, Note_on_c, 1, 51, 118
3, 91840, Note_off_c, 1, 51, 75
3, 91872, Note_on_c, 1, 50, 118
3, 91936, Note_off_c, 1, 50, 75
3, 91968, Note_on_c, 1, 48, 118
3, 92032, Note_off_c, 1, 48, 75
3, 92064, Note_on_c, 1, 43, 118
3, 92128, Note_off_c, 1, 43, 75
3, 92160, Note_on_c, 1, 36, 118
3, 92224, Note_off_c, 1, 36, 75
3, 92256, Note_on_c, 1, 43, 118
3, 92320, Note_off_c, 1, 43, 75
3, 92352, Note_on_c, 1, 48, 118
3, 92416, Note_off_c, 1, 48, 75
3, 92448, Note_on_c, 1, 50, 118
3, 92512, Note_off_c, 1, 50, 75
3, 92544, Note_on_c, 1, 51, 118
3, 92608, Note_off_c, 1, 51, 75
3, 92640, Note_on_c, 1, 55, 118
3, 92704, Note_off_c, 1, 55, 75
3, 92736, Note_on_c, 1, 60, 118
3, 92800, Note_off_c, 1, 60, 75
3, 92832, Note_on_c, 1, 62, 118
3, 92896, Note_off_c, 1, 62, 75
3, 92928, Note_on_c, 1, 63, 118
3, 92992, Note_off_c, 1, 63, 75
3, 93024, Note_on_c, 1, 62, 118
3, 93088, Note_off_c, 1, 62, 75
3, 93120, Note_on_c, 1, 60, 118
3, 93184, Note_off_c, 1, 60, 75
3, 93216, Note_on_c, 1, 55, 118
3, 93280, Note_off_c, 1, 55, 75
3, 93312, Note_on_c, 1, 51, 118
3, 93376, Note_off_c, 1, 51, 75
3, 93408, Note_on_c, 1, 50, 118
3, 93472, Note_off_c, 1, 50, 75
3, 93504, Note_on_c, 1, 48, 118
3, 93568, Note_off_c, 1, 48, 75
3, 93600, Note_on_c, 1, 43, 118
3, 93664, Note_off_c, 1, 43, 75
3, 93696, Note_on_c, 1, 36, 118
3, 93760, Note_off_c, 1, 36, 75
3, 93792, Note_on_c, 1, 43, 118
3, 93856, Note_off_c, 1, 43, 75
3, 93888, Note_on_c, 1, 48, 118
3, 93952, Note_off_c, 1, 48, 75
3, 93984, Note_on_c, 1, 50, 118
3, 94048, Note_off_c, 1, 50, 75
3, 94080, Note_on_c, 1, 51, 118
3, 94144, Note_off_c, 1, 51, 75
3, 94176, Note_on_c, 1, 50, 118
3, 94240, Note_off_c, 1, 50, 75
3, 94272, Note_on_c, 1, 48, 118
3, 94336, Note_off_c, 1, 48, 75
3, 94368, Note_on_c, 1, 43, 118
3, 94432, Note_off_c, 1, 43, 75
3, 94464, Note_on_c, 1, 36, 118
3, 94528, Note_off_c, 1, 36, 75
3, 94560, Note_on_c, 1, 43, 118
3, 94624, Note_off_c, 1, 43, 75
3, 94656, Note_on_c, 1, 48, 118
3, 94720, Note_off_c, 1, 48, 75
3, 94752, Note_on_c, 1, 50, 118
3, 94816, Note_off_c, 1, 50, 75
3, 94848, Note_on_c, 1, 51, 118
3, 94912, Note_off_c, 1, 51, 75
3, 94944, Note_on_c, 1, 50, 118
3, 95008, Note_off_c, 1, 50, 75
3, 95040, Note_on_c, 1, 48, 118
3, 95104, Note_off_c, 1, 48, 75
3, 95136, Note_on_c, 1, 43, 118
3, 95200, Note_off_c, 1, 43, 75
3, 95232, Note_on_c, 1, 36, 118
3, 95296, Note_off_c, 1, 36, 75
3, 95328, Note_on_c, 1, 43, 118
3, 95392, Note_off_c, 1, 43, 75
3, 95424, Note_on_c, 1, 48, 118
3, 95488, Note_off_c, 1, 48, 75
3, 95520, Note_on_c, 1, 50, 118
3, 95584, Note_off_c, 1, 50, 75
3, 95616, Note_on_c, 1, 51, 118
3, 95680, Note_off_c, 1, 51, 75
3, 95712, Note_on_c, 1, 55, 118
3, 95776, Note_off_c, 1, 55, 75
3, 95808, Note_on_c, 1, 60, 118
3, 95872, Note_off_c, 1, 60, 75
3, 95904, Note_on_c, 1, 62, 118
3, 95968, Note_off_c, 1, 62, 75
3, 96000, Note_on_c, 1, 63, 118
3, 96064, Note_off_c, 1, 63, 75
3, 96096, Note_on_c, 1, 62, 118
3, 96160, Note_off_c, 1, 62, 75
3, 96192, Note_on_c, 1, 60, 118
3, 96256, Note_off_c, 1, 60, 75
3, 96288, Note_on_c, 1, 55, 118
3, 96352, Note_off_c, 1, 55, 75
3, 96384, Note_on_c, 1, 51, 118
3, 96448, Note_off_c, 1, 51, 75
3, 96480, Note_on_c, 1, 50, 118
3, 96544, Note_off_c, 1, 50, 75
3, 96576, Note_on_c, 1, 48, 118
3, 96640, Note_off_c, 1, 48, 75
3, 96672, Note_on_c, 1, 43, 118
3, 96736, Note_off_c, 1, 43, 75
3, 96768, Note_on_c, 1, 36, 118
3, 96832, Note_off_c, 1, 36, 75
3, 96864, Note_on_c, 1, 42, 118
3, 96928, Note_off_c, 1, 42, 75
3, 96960, Note_on_c, 1, 48, 118
3, 97024, Note_off_c, 1, 48, 75
3, 97056, Note_on_c, 1, 50, 118
3, 97120, Note_off_c, 1, 50, 75
3, 97152, Note_on_c, 1, 51, 118
3, 97216, Note_off_c, 1, 51, 75
3, 97248, Note_on_c, 1, 50, 118
3, 97312, Note_off_c, 1, 50, 75
3, 97344, Note_on_c, 1, 48, 118
3, 97408, Note_off_c, 1, 48, 75
3, 97440, Note_on_c, 1, 42, 118
3, 97504, Note_off_c, 1, 42, 75
3, 97536, Note_on_c, 1, 36, 118
3, 97600, Note_off_c, 1, 36, 75
3, 97632, Note_on_c, 1, 42, 118
3, 97696, Note_off_c, 1, 42, 75
3, 97728, Note_on_c, 1, 48, 118
3, 97792, Note_off_c, 1, 48, 75
3, 97824, Note_on_c, 1, 50, 118
3, 97888, Note_off_c, 1, 50, 75
3, 97920, Note_on_c, 1, 51, 118
3, 97984, Note_off_c, 1, 51, 75
3, 98016, Note_on_c, 1, 50, 118
3, 98080, Note_off_c, 1, 50, 75
3, 98112, Note_on_c, 1, 48, 118
3, 98176, Note_off_c, 1, 48, 75
3, 98208, Note_on_c, 1, 42, 118
3, 98272, Note_off_c, 1, 42, 75
3, 98304, Note_on_c, 1, 37, 118
3, 98368, Note_off_c, 1, 37, 75
3, 98400, Note_on_c, 1, 49, 118
3, 98464, Note_off_c, 1, 49, 75
3, 98496, Note_on_c, 1, 54, 118
3, 98560, Note_off_c, 1, 54, 75
3, 98592, Note_on_c, 1, 56, 118
3, 98656, Note_off_c, 1, 56, 75
3, 98688, Note_on_c, 1, 58, 118
3, 98752, Note_off_c, 1, 58, 75
3, 98784, Note_on_c, 1, 56, 118
3, 98848, Note_off_c, 1, 56, 75
3, 98880, Note_on_c, 1, 54, 118
3, 98944, Note_off_c, 1, 54, 75
3, 98976, Note_on_c, 1, 49, 118
3, 99040, Note_off_c, 1, 49, 75
3, 99072, Note_on_c, 1, 37, 118
3, 99136, Note_off_c, 1, 37, 75
3, 99168, Note_on_c, 1, 49, 118
3, 99232, Note_off_c, 1, 49, 75
3, 99264, Note_on_c, 1, 54, 118
3, 99328, Note_off_c, 1, 54, 75
3, 99360, Note_on_c, 1, 56, 118
3, 99424, Note_off_c, 1, 56, 75
3, 99456, Note_on_c, 1, 58, 118
3, 99520, Note_off_c, 1, 58, 75
3, 99552, Note_on_c, 1, 56, 118
3, 99616, Note_off_c, 1, 56, 75
3, 99648, Note_on_c, 1, 54, 118
3, 99712, Note_off_c, 1, 54, 75
3, 99744, Note_on_c, 1, 49, 118
3, 99808, Note_off_c, 1, 49, 75
3, 99840, Note_on_c, 1, 37, 118
3, 99904, Note_off_c, 1, 37, 75
3, 99936, Note_on_c, 1, 49, 118
3, 100000, Note_off_c, 1, 49, 75
3, 100032, Note_on_c, 1, 55, 118
3, 100096, Note_off_c, 1, 55, 75
3, 100128, Note_on_c, 1, 58, 118
3, 100192, Note_off_c, 1, 58, 75
3, 100224, Note_on_c, 1, 61, 118
3, 100288, Note_off_c, 1, 61, 75
3, 100320, Note_on_c, 1, 60, 118
3, 100384, Note_off_c, 1, 60, 75
3, 100416, Note_on_c, 1, 58, 118
3, 100480, Note_off_c, 1, 58, 75
3, 100512, Note_on_c, 1, 56, 118
3, 100576, Note_off_c, 1, 56, 75
3, 100608, Note_on_c, 1, 55, 118
3, 100672, Note_off_c, 1, 55, 75
3, 100704, Note_on_c, 1, 53, 118
3, 100768, Note_off_c, 1, 53, 75
3, 100800, Note_on_c, 1, 52, 118
3, 100864, Note_off_c, 1, 52, 75
3, 100896, Note_on_c, 1, 49, 118
3, 100960, Note_off_c, 1, 49, 75
3, 100992, Note_on_c, 1, 48, 118
3, 101056, Note_off_c, 1, 48, 75
3, 101088, Note_on_c, 1, 48, 118
3, 101152, Note_off_c, 1, 48, 75
3, 101184, Note_on_c, 1, 44, 118
3, 101248, Note_off_c, 1, 44, 75
3, 101280, Note_on_c, 1, 43, 118
3, 101344, Note_off_c, 1, 43, 75
3, 101376, Note_on_c, 1, 35, 118
3, 101440, Note_off_c, 1, 35, 75
3, 101472, Note_on_c, 1, 47, 118
3, 101536, Note_off_c, 1, 47, 75
3, 101568, Note_on_c, 1, 52, 118
3, 101632, Note_off_c, 1, 52, 75
3, 101664, Note_on_c, 1, 54, 118
3, 101728, Note_off_c, 1, 54, 75
3, 101760, Note_on_c, 1, 56, 118
3, 101824, Note_off_c, 1, 56, 75
3, 101856, Note_on_c, 1, 54, 118
3, 101920, Note_off_c, 1, 54, 75
3, 101952, Note_on_c, 1, 52, 118
3, 102016, Note_off_c, 1, 52, 75
3, 102048, Note_on_c, 1, 47, 118
3, 102112, Note_off_c, 1, 47, 75
3, 102144, Note_on_c, 1, 35, 118
3, 102208, Note_off_c, 1, 35, 75
3, 102240, Note_on_c, 1, 47, 118
3, 102304, Note_off_c, 1, 47, 75
3, 102336, Note_on_c, 1, 52, 118
3, 102400, Note_off_c, 1, 52, 75
3, 102432, Note_on_c, 1, 54, 118
3, 102496, Note_off_c, 1, 54, 75
3, 102528, Note_on_c, 1, 56, 118
3, 102592, Note_off_c, 1, 56, 75
3, 102624, Note_on_c, 1, 54, 118
3, 102688, Note_off_c, 1, 54, 75
3, 102720, Note_on_c, 1, 52, 118
3, 102784, Note_off_c, 1, 52, 75
3, 102816, Note_on_c, 1, 47, 118
3, 102880, Note_off_c, 1, 47, 75
3, 102912, Note_on_c, 1, 35, 118
3, 102976, Note_off_c, 1, 35, 75
3, 103008, Note_on_c, 1, 47, 118
3, 103072, Note_off_c, 1, 47, 75
3, 103104, Note_on_c, 1, 53, 118
3, 103168, Note_off_c, 1, 53, 75
3, 103200, Note_on_c, 1, 56, 118
3, 103264, Note_off_c, 1, 56, 75
3, 103296, Note_on_c, 1, 59, 118
3, 103360, Note_off_c, 1, 59, 75
3, 103392, Note_on_c, 1, 58, 118
3, 103456, Note_off_c, 1, 58, 75
3, 103488, Note_on_c, 1, 56, 118
3, 103552, Note_off_c, 1, 56, 75
3, 103584, Note_on_c, 1, 54, 118
3, 103648, Note_off_c, 1, 54, 75
3, 103680, Note_on_c, 1, 53, 118
3, 103744, Note_off_c, 1, 53, 75
3, 103776, Note_on_c, 1, 51, 118
3, 103840, Note_off_c, 1, 51, 75
3, 103872, Note_on_c, 1, 50, 118
3, 103936, Note_off_c, 1, 50, 75
3, 103968, Note_on_c, 1, 47, 118
3, 104032, Note_off_c, 1, 47, 75
3, 104064, Note_on_c, 1, 46, 118
3, 104128, Note_off_c, 1, 46, 75
3, 104160, Note_on_c, 1, 44, 118
3, 104224, Note_off_c, 1, 44, 75
3, 104256, Note_on_c, 1, 42, 118
3, 104320, Note_off_c, 1, 42, 75
3, 104352, Note_on_c, 1, 41, 118
3, 104416, Note_off_c, 1, 41, 75
3, 104448, Note_on_c, 1, 34, 118
3, 104512, Note_off_c, 1, 34, 75
3, 104544, Note_on_c, 1, 46, 118
3, 104608, Note_off_c, 1, 46, 75
3, 104640, Note_on_c, 1, 51, 118
3, 104704, Note_off_c, 1, 51, 75
3, 104736, Note_on_c, 1, 53, 118
3, 104800, Note_off_c, 1, 53, 75
3, 104832, Note_on_c, 1, 55, 118
3, 104896, Note_off_c, 1, 55, 75
3, 104928, Note_on_c, 1, 53, 118
3, 104992, Note_off_c, 1, 53, 75
3, 105024, Note_on_c, 1, 51, 118
3, 105088, Note_off_c, 1, 51, 75
3, 105120, Note_on_c, 1, 46, 118
3, 105184, Note_off_c, 1, 46, 75
3, 105216, Note_on_c, 1, 34, 118
3, 105280, Note_off_c, 1, 34, 75
3, 105312, Note_on_c, 1, 46, 118
3, 105376, Note_off_c, 1, 46, 75
3, 105408, Note_on_c, 1, 51, 118
3, 105472, Note_off_c, 1, 51, 75
3, 105504, Note_on_c, 1, 53, 118
3, 105568, Note_off_c, 1, 53, 75
3, 105600, Note_on_c, 1, 55, 118
3, 105664, Note_off_c, 1, 55, 75
3, 105696, Note_on_c, 1, 53, 118
3, 105760, Note_off_c, 1, 53, 75
3, 105792, Note_on_c, 1, 51, 118
3, 105856, Note_off_c, 1, 51, 75
3, 105888, Note_on_c, 1, 46, 118
3, 105952, Note_off_c, 1, 46, 75
3, 105984, Note_on_c, 1, 35, 118
3, 106048, Note_off_c, 1, 35, 75
3, 106080, Note_on_c, 1, 47, 118
3, 106144, Note_off_c, 1, 47, 75
3, 106176, Note_on_c, 1, 50, 118
3, 106240, Note_off_c, 1, 50, 75
3, 106272, Note_on_c, 1, 55, 118
3, 106336, Note_off_c, 1, 55, 75
3, 106368, Note_on_c, 1, 62, 118
3, 106432, Note_off_c, 1, 62, 75
3, 106464, Note_on_c, 1, 55, 118
3, 106528, Note_off_c, 1, 55, 75
3, 106560, Note_on_c, 1, 50, 118
3, 106624, Note_off_c, 1, 50, 75
3, 106656, Note_on_c, 1, 47, 118
3, 106720, Note_off_c, 1, 47, 75
3, 106752, Note_on_c, 1, 35, 118
3, 106816, Note_off_c, 1, 35, 75
3, 106848, Note_on_c, 1, 47, 118
3, 106912, Note_off_c, 1, 47, 75
3, 106944, Note_on_c, 1, 50, 118
3, 107008, Note_off_c, 1, 50, 75
3, 107040, Note_on_c, 1, 55, 118
3, 107104, Note_off_c, 1, 55, 75
3, 107136, Note_on_c, 1, 62, 118
3, 107200, Note_off_c, 1, 62, 75
3, 107232, Note_on_c, 1, 55, 118
3, 107296, Note_off_c, 1, 55, 75
3, 107328, Note_on_c, 1, 50, 118
3, 107392, Note_off_c, 1, 50, 75
3, 107424, Note_on_c, 1, 47, 118
3, 107488, Note_off_c, 1, 47, 75
3, 107520, Note_on_c, 1, 36, 118
3, 107584, Note_off_c, 1, 36, 75
3, 107616, Note_on_c, 1, 43, 118
3, 107616, Note_on_c, 1, 44, 118
3, 107680, Note_off_c, 1, 43, 75
3, 107680, Note_off_c, 1, 44, 75
3, 107712, Note_on_c, 1, 48, 118
3, 107776, Note_off_c, 1, 48, 75
3, 107808, Note_on_c, 1, 50, 118
3, 107872, Note_off_c, 1, 50, 75
3, 107904, Note_on_c, 1, 51, 118
3, 107968, Note_off_c, 1, 51, 75
3, 108000, Note_on_c, 1, 55, 118
3, 108064, Note_off_c, 1, 55, 75
3, 108096, Note_on_c, 1, 60, 118
3, 108160, Note_off_c, 1, 60, 75
3, 108192, Note_on_c, 1, 62, 118
3, 108256, Note_off_c, 1, 62, 75
3, 108288, Note_on_c, 1, 63, 118
3, 108352, Note_off_c, 1, 63, 75
3, 108384, Note_on_c, 1, 62, 118
3, 108448, Note_off_c, 1, 62, 75
3, 108480, Note_on_c, 1, 60, 118
3, 108544, Note_off_c, 1, 60, 75
3, 108576, Note_on_c, 1, 55, 118
3, 108640, Note_off_c, 1, 55, 75
3, 108672, Note_on_c, 1, 51, 118
3, 108736, Note_off_c, 1, 51, 75
3, 108768, Note_on_c, 1, 50, 118
3, 108832, Note_off_c, 1, 50, 75
3, 108864, Note_on_c, 1, 48, 118
3, 108928, Note_off_c, 1, 48, 75
3, 108960, Note_on_c, 1, 43, 118
3, 109024, Note_off_c, 1, 43, 75
3, 109056, Note_on_c, 1, 29, 118
3, 109120, Note_off_c, 1, 29, 75
3, 109152, Note_on_c, 1, 37, 118
3, 109216, Note_off_c, 1, 37, 75
3, 109248, Note_on_c, 1, 41, 118
3, 109312, Note_off_c, 1, 41, 75
3, 109344, Note_on_c, 1, 43, 118
3, 109408, Note_off_c, 1, 43, 75
3, 109440, Note_on_c, 1, 44, 118
3, 109504, Note_off_c, 1, 44, 75
3, 109536, Note_on_c, 1, 49, 118
3, 109600, Note_off_c, 1, 49, 75
3, 109632, Note_on_c, 1, 53, 118
3, 109696, Note_off_c, 1, 53, 75
3, 109728, Note_on_c, 1, 55, 118
3, 109792, Note_off_c, 1, 55, 75
3, 109824, Note_on_c, 1, 56, 118
3, 109888, Note_off_c, 1, 56, 75
3, 109920, Note_on_c, 1, 55, 118
3, 109984, Note_off_c, 1, 55, 75
3, 110016, Note_on_c, 1, 53, 118
3, 110080, Note_off_c, 1, 53, 75
3, 110112, Note_on_c, 1, 49, 118
3, 110176, Note_off_c, 1, 49, 75
3, 110208, Note_on_c, 1, 44, 118
3, 110272, Note_off_c, 1, 44, 75
3, 110304, Note_on_c, 1, 41, 118
3, 110368, Note_off_c, 1, 41, 75
3, 110400, Note_on_c, 1, 37, 118
3, 110464, Note_off_c, 1, 37, 75
3, 110496, Note_on_c, 1, 32, 118
3, 110560, Note_off_c, 1, 32, 75
3, 110592, Note_on_c, 1, 31, 118
3, 110720, Note_off_c, 1, 31, 75
3, 110784, Note_on_c, 1, 40, 118
3, 110848, Note_off_c, 1, 40, 75
3, 110880, Note_on_c, 1, 39, 118
3, 110944, Note_off_c, 1, 39, 75
3, 110976, Note_on_c, 1, 41, 118
3, 111040, Note_off_c, 1, 41, 75
3, 111072, Note_on_c, 1, 40, 118
3, 111136, Note_off_c, 1, 40, 75
3, 111168, Note_on_c, 1, 42, 118
3, 111232, Note_off_c, 1, 42, 75
3, 111264, Note_on_c, 1, 41, 118
3, 111328, Note_off_c, 1, 41, 75
3, 111360, Note_on_c, 1, 43, 118
3, 111424, Note_off_c, 1, 43, 75
3, 111456, Note_on_c, 1, 42, 118
3, 111520, Note_off_c, 1, 42, 75
3, 111552, Note_on_c, 1, 44, 118
3, 111616, Note_off_c, 1, 44, 75
3, 111648, Note_on_c, 1, 43, 118
3, 111712, Note_off_c, 1, 43, 75
3, 111744, Note_on_c, 1, 45, 118
3, 111808, Note_off_c, 1, 45, 75
3, 111840, Note_on_c, 1, 44, 118
3, 111904, Note_off_c, 1, 44, 75
3, 111936, Note_on_c, 1, 46, 118
3, 112000, Note_off_c, 1, 46, 75
3, 112032, Note_on_c, 1, 45, 118
3, 112096, Note_off_c, 1, 45, 75
3, 112128, Note_on_c, 1, 47, 118
3, 112192, Note_off_c, 1, 47, 75
3, 112224, Note_on_c, 1, 46, 118
3, 112288, Note_off_c, 1, 46, 75
3, 112320, Note_on_c, 1, 48, 118
3, 112384, Note_off_c, 1, 48, 75
3, 112416, Note_on_c, 1, 47, 118
3, 112480, Note_off_c, 1, 47, 75
3, 112512, Note_on_c, 1, 49, 118
3, 112576, Note_off_c, 1, 49, 75
3, 112608, Note_on_c, 1, 48, 118
3, 112672, Note_off_c, 1, 48, 75
3, 112704, Note_on_c, 1, 50, 118
3, 112768, Note_off_c, 1, 50, 75
3, 112800, Note_on_c, 1, 49, 118
3, 112864, Note_off_c, 1, 49, 75
3, 112896, Note_on_c, 1, 51, 118
3, 112960, Note_off_c, 1, 51, 75
3, 112992, Note_on_c, 1, 50, 118
3, 113056, Note_off_c, 1, 50, 75
3, 113088, Note_on_c, 1, 52, 118
3, 113152, Note_off_c, 1, 52, 75
3, 113184, Note_on_c, 1, 51, 118
3, 113248, Note_off_c, 1, 51, 75
3, 113280, Note_on_c, 1, 53, 118
3, 113344, Note_off_c, 1, 53, 75
3, 113376, Note_on_c, 1, 52, 118
3, 113440, Note_off_c, 1, 52, 75
3, 113472, Note_on_c, 1, 54, 118
3, 113536, Note_off_c, 1, 54, 75
3, 113568, Note_on_c, 1, 53, 118
3, 113632, Note_off_c, 1, 53, 75
3, 113664, Note_on_c, 1, 55, 118
3, 113728, Note_off_c, 1, 55, 75
3, 113760, Note_on_c, 1, 54, 118
3, 113824, Note_off_c, 1, 54, 75
3, 113856, Note_on_c, 1, 56, 118
3, 113920, Note_off_c, 1, 56, 75
3, 113952, Note_on_c, 1, 55, 118
3, 114016, Note_off_c, 1, 55, 75
3, 114048, Note_on_c, 1, 58, 118
3, 114112, Note_off_c, 1, 58, 75
3, 114144, Note_on_c, 1, 56, 118
3, 114208, Note_off_c, 1, 56, 75
3, 114240, Note_on_c, 1, 55, 118
3, 114304, Note_off_c, 1, 55, 75
3, 114336, Note_on_c, 1, 53, 118
3, 114400, Note_off_c, 1, 53, 75
3, 114432, Note_on_c, 1, 51, 118
3, 114496, Note_off_c, 1, 51, 75
3, 114528, Note_on_c, 1, 50, 118
3, 114592, Note_off_c, 1, 50, 75
3, 114624, Note_on_c, 1, 53, 118
3, 114688, Note_off_c, 1, 53, 75
3, 114720, Note_on_c, 1, 51, 118
3, 114784, Note_off_c, 1, 51, 75
3, 114816, Note_on_c, 1, 55, 118
3, 114880, Note_off_c, 1, 55, 75
3, 114912, Note_on_c, 1, 53, 118
3, 114976, Note_off_c, 1, 53, 75
3, 115008, Note_on_c, 1, 51, 118
3, 115072, Note_off_c, 1, 51, 75
3, 115104, Note_on_c, 1, 50, 118
3, 115168, Note_off_c, 1, 50, 75
3, 115200, Note_on_c, 1, 48, 118
3, 115264, Note_off_c, 1, 48, 75
3, 115296, Note_on_c, 1, 47, 118
3, 115360, Note_off_c, 1, 47, 75
3, 115392, Note_on_c, 1, 50, 118
3, 115456, Note_off_c, 1, 50, 75
3, 115488, Note_on_c, 1, 48, 118
3, 115552, Note_off_c, 1, 48, 75
3, 115584, Note_on_c, 1, 47, 118
3, 115648, Note_off_c, 1, 47, 75
3, 115680, Note_on_c, 1, 44, 118
3, 115744, Note_off_c, 1, 44, 75
3, 115776, Note_on_c, 1, 43, 118
3, 115840, Note_off_c, 1, 43, 75
3, 115872, Note_on_c, 1, 42, 118
3, 115936, Note_off_c, 1, 42, 75
3, 115968, Note_on_c, 1, 43, 118
3, 116032, Note_off_c, 1, 43, 75
3, 116064, Note_on_c, 1, 44, 118
3, 116128, Note_off_c, 1, 44, 75
3, 116160, Note_on_c, 1, 41, 118
3, 116224, Note_off_c, 1, 41, 75
3, 116256, Note_on_c, 1, 43, 118
3, 116320, Note_off_c, 1, 43, 75
3, 116352, Note_on_c, 1, 39, 118
3, 116416, Note_off_c, 1, 39, 75
3, 116448, Note_on_c, 1, 41, 118
3, 116512, Note_off_c, 1, 41, 75
3, 116544, Note_on_c, 1, 38, 118
3, 116608, Note_off_c, 1, 38, 75
3, 116640, Note_on_c, 1, 39, 118
3, 116704, Note_off_c, 1, 39, 75
3, 116736, Note_on_c, 1, 36, 118
3, 116864, Note_off_c, 1, 36, 75
3, 116928, Note_on_c, 1, 61, 118
3, 116992, Note_off_c, 1, 61, 75
3, 117024, Note_on_c, 1, 60, 118
3, 117088, Note_off_c, 1, 60, 75
3, 117120, Note_on_c, 1, 58, 118
3, 117184, Note_off_c, 1, 58, 75
3, 117216, Note_on_c, 1, 55, 118
3, 117280, Note_off_c, 1, 55, 75
3, 117312, Note_on_c, 1, 56, 118
3, 117376, Note_off_c, 1, 56, 75
3, 117408, Note_on_c, 1, 55, 118
3, 117472, Note_off_c, 1, 55, 75
3, 117504, Note_on_c, 1, 52, 118
3, 117568, Note_off_c, 1, 52, 75
3, 117600, Note_on_c, 1, 48, 118
3, 117664, Note_off_c, 1, 48, 75
3, 117696, Note_on_c, 1, 49, 118
3, 117760, Note_off_c, 1, 49, 75
3, 117792, Note_on_c, 1, 48, 118
3, 117856, Note_off_c, 1, 48, 75
3, 117888, Note_on_c, 1, 46, 118
3, 117952, Note_off_c, 1, 46, 75
3, 117984, Note_on_c, 1, 43, 118
3, 118048, Note_off_c, 1, 43, 75
3, 118080, Note_on_c, 1, 44, 118
3, 118144, Note_off_c, 1, 44, 75
3, 118176, Note_on_c, 1, 43, 118
3, 118240, Note_off_c, 1, 43, 75
3, 118272, Note_on_c, 1, 41, 118
3, 118336, Note_off_c, 1, 41, 75
3, 118368, Note_on_c, 1, 36, 118
3, 118432, Note_off_c, 1, 36, 75
3, 118464, Note_on_c, 1, 41, 118
3, 118528, Note_off_c, 1, 41, 75
3, 118560, Note_on_c, 1, 36, 118
3, 118624, Note_off_c, 1, 36, 75
3, 118656, Note_on_c, 1, 41, 118
3, 118720, Note_off_c, 1, 41, 75
3, 118752, Note_on_c, 1, 36, 118
3, 118816, Note_off_c, 1, 36, 75
3, 118848, Note_on_c, 1, 41, 118
3, 118912, Note_off_c, 1, 41, 75
3, 118944, Note_on_c, 1, 36, 118
3, 119008, Note_off_c, 1, 36, 75
3, 119040, Note_on_c, 1, 41, 118
3, 119104, Note_off_c, 1, 41, 75
3, 119136, Note_on_c, 1, 36, 118
3, 119200, Note_off_c, 1, 36, 75
3, 119232, Note_on_c, 1, 41, 118
3, 119296, Note_off_c, 1, 41, 75
3, 119328, Note_on_c, 1, 36, 118
3, 119392, Note_off_c, 1, 36, 75
3, 119424, Note_on_c, 1, 41, 118
3, 119488, Note_off_c, 1, 41, 75
3, 119520, Note_on_c, 1, 36, 118
3, 119584, Note_off_c, 1, 36, 75
3, 119616, Note_on_c, 1, 41, 118
3, 119680, Note_off_c, 1, 41, 75
3, 119712, Note_on_c, 1, 36, 118
3, 119776, Note_off_c, 1, 36, 75
3, 119808, Note_on_c, 1, 48, 118
3, 119936, Note_off_c, 1, 48, 75
3, 120000, Note_on_c, 1, 61, 118
3, 120064, Note_off_c, 1, 61, 75
3, 120096, Note_on_c, 1, 60, 118
3, 120160, Note_off_c, 1, 60, 75
3, 120192, Note_on_c, 1, 58, 118
3, 120256, Note_off_c, 1, 58, 75
3, 120288, Note_on_c, 1, 55, 118
3, 120352, Note_off_c, 1, 55, 75
3, 120384, Note_on_c, 1, 56, 118
3, 120448, Note_off_c, 1, 56, 75
3, 120480, Note_on_c, 1, 55, 118
3, 120544, Note_off_c, 1, 55, 75
3, 120576, Note_on_c, 1, 52, 118
3, 120640, Note_off_c, 1, 52, 75
3, 120672, Note_on_c, 1, 48, 118
3, 120736, Note_off_c, 1, 48, 75
3, 120768, Note_on_c, 1, 49, 118
3, 120832, Note_off_c, 1, 49, 75
3, 120864, Note_on_c, 1, 48, 118
3, 120928, Note_off_c, 1, 48, 75
3, 120960, Note_on_c, 1, 46, 118
3, 121024, Note_off_c, 1, 46, 75
3, 121056, Note_on_c, 1, 43, 118
3, 121120, Note_off_c, 1, 43, 75
3, 121152, Note_on_c, 1, 44, 118
3, 121216, Note_off_c, 1, 44, 75
3, 121248, Note_on_c, 1, 43, 118
3, 121312, Note_off_c, 1, 43, 75
3, 121344, Note_on_c, 1, 41, 118
3, 121408, Note_off_c, 1, 41, 75
3, 121440, Note_on_c, 1, 36, 118
3, 121504, Note_off_c, 1, 36, 75
3, 121536, Note_on_c, 1, 41, 118
3, 121600, Note_off_c, 1, 41, 75
3, 121632, Note_on_c, 1, 36, 118
3, 121696, Note_off_c, 1, 36, 75
3, 121728, Note_on_c, 1, 41, 118
3, 121792, Note_off_c, 1, 41, 75
3, 121824, Note_on_c, 1, 36, 118
3, 121888, Note_off_c, 1, 36, 75
3, 121920, Note_on_c, 1, 41, 118
3, 121984, Note_off_c, 1, 41, 75
3, 122016, Note_on_c, 1, 36, 118
3, 122080, Note_off_c, 1, 36, 75
3, 122112, Note_on_c, 1, 41, 118
3, 122176, Note_off_c, 1, 41, 75
3, 122208, Note_on_c, 1, 36, 118
3, 122272, Note_off_c, 1, 36, 75
3, 122304, Note_on_c, 1, 41, 118
3, 122368, Note_off_c, 1, 41, 75
3, 122400, Note_on_c, 1, 36, 118
3, 122464, Note_off_c, 1, 36, 75
3, 122496, Note_on_c, 1, 41, 118
3, 122560, Note_off_c, 1, 41, 75
3, 122592, Note_on_c, 1, 36, 118
3, 122656, Note_off_c, 1, 36, 75
3, 122688, Note_on_c, 1, 41, 118
3, 122752, Note_off_c, 1, 41, 75
3, 122784, Note_on_c, 1, 36, 118
3, 122848, Note_off_c, 1, 36, 75
3, 122880, Note_on_c, 1, 48, 118
3, 123008, Note_off_c, 1, 48, 75
3, 124416, Note_on_c, 1, 58, 118
3, 124480, Note_off_c, 1, 58, 75
3, 124512, Note_on_c, 1, 55, 118
3, 124576, Note_off_c, 1, 55, 75
3, 124608, Note_on_c, 1, 56, 118
3, 124672, Note_off_c, 1, 56, 75
3, 124704, Note_on_c, 1, 55, 118
3, 124768, Note_off_c, 1, 55, 75
3, 124800, Note_on_c, 1, 52, 118
3, 124864, Note_off_c, 1, 52, 75
3, 124896, Note_on_c, 1, 48, 118
3, 124960, Note_off_c, 1, 48, 75
3, 124992, Note_on_c, 1, 49, 118
3, 125056, Note_off_c, 1, 49, 75
3, 125088, Note_on_c, 1, 48, 118
3, 125152, Note_off_c, 1, 48, 75
3, 125184, Note_on_c, 1, 58, 118
3, 125184, Note_on_c, 1, 46, 118
3, 125248, Note_off_c, 1, 58, 75
3, 125248, Note_off_c, 1, 46, 75
3, 125280, Note_on_c, 1, 55, 118
3, 125280, Note_on_c, 1, 43, 118
3, 125344, Note_off_c, 1, 55, 75
3, 125344, Note_off_c, 1, 43, 75
3, 125376, Note_on_c, 1, 56, 118
3, 125376, Note_on_c, 1, 44, 118
3, 125440, Note_off_c, 1, 56, 75
3, 125440, Note_off_c, 1, 44, 75
3, 125472, Note_on_c, 1, 55, 118
3, 125472, Note_on_c, 1, 43, 118
3, 125536, Note_off_c, 1, 55, 75
3, 125536, Note_off_c, 1, 43, 75
3, 125568, Note_on_c, 1, 52, 118
3, 125568, Note_on_c, 1, 40, 118
3, 125632, Note_off_c, 1, 52, 75
3, 125632, Note_off_c, 1, 40, 75
3, 125664, Note_on_c, 1, 48, 118
3, 125664, Note_on_c, 1, 36, 118
3, 125728, Note_off_c, 1, 48, 75
3, 125728, Note_off_c, 1, 36, 75
3, 125760, Note_on_c, 1, 49, 118
3, 125760, Note_on_c, 1, 37, 118
3, 125824, Note_off_c, 1, 49, 75
3, 125824, Note_off_c, 1, 37, 75
3, 125856, Note_on_c, 1, 48, 118
3, 125856, Note_on_c, 1, 36, 118
3, 125920, Note_off_c, 1, 48, 75
3, 125920, Note_off_c, 1, 36, 75
3, 125952, Note_on_c, 1, 29, 118
3, 125952, Note_on_c, 1, 60, 118
3, 125952, Note_on_c, 1, 57, 118
3, 125952, Note_on_c, 1, 53, 118
3, 125952, Note_on_c, 1, 48, 118
3, 125952, Note_on_c, 1, 41, 118
3, 126464, Note_off_c, 1, 29, 75
3, 126464, Note_off_c, 1, 60, 75
3, 126464, Note_off_c, 1, 57, 75
3, 126464, Note_off_c, 1, 53, 75
3, 126464, Note_off_c, 1, 48, 75
3, 126464, Note_off_c, 1, 41, 75
3, 126720, Note_on_c, 1, 29, 118
3, 126720, Note_on_c, 1, 60, 118
3, 126720, Note_on_c, 1, 56, 118
3, 126720, Note_on_c, 1, 53, 118
3, 126720, Note_on_c, 1, 48, 118
3, 126720, Note_on_c, 1, 41, 118
3, 127232, Note_off_c, 1, 29, 75
3, 127232, Note_off_c, 1, 60, 75
3, 127232, Note_off_c, 1, 56, 75
3, 127232, Note_off_c, 1, 53, 75
3, 127232, Note_off_c, 1, 48, 75
3, 127232, Note_off_c, 1, 41, 75
3, 127488, Note_on_c, 1, 24, 118
3, 127488, Note_on_c, 1, 60, 118
3, 127488, Note_on_c, 1, 55, 118
3, 127488, Note_on_c, 1, 53, 118
3, 127488, Note_on_c, 1, 48, 118
3, 127488, Note_on_c, 1, 36, 118
3, 127744, Note_off_c, 1, 24, 75
3, 127744, Note_off_c, 1, 60, 75
3, 127744, Note_off_c, 1, 55, 75
3, 127744, Note_off_c, 1, 53, 75
3, 127744, Note_off_c, 1, 48, 75
3, 127744, Note_off_c, 1, 36, 75
3, 127872, Note_on_c, 1, 24, 118
3, 127872, Note_on_c, 1, 60, 118
3, 127872, Note_on_c, 1, 36, 118
3, 127872, Note_on_c, 1, 55, 118
3, 127872, Note_on_c, 1, 52, 118
3, 127872, Note_on_c, 1, 48, 118
3, 128128, Note_off_c, 1, 24, 75
3, 128128, Note_off_c, 1, 60, 75
3, 128128, Note_off_c, 1, 36, 75
3, 128128, Note_off_c, 1, 55, 75
3, 128128, Note_off_c, 1, 52, 75
3, 128128, Note_off_c, 1, 48, 75
3, 128128, End_track
4, 0, Start_track
4, 0, Title_t, "VicWaldo-Pianist"
4, 0, Key_signature, 0, "major"
4, 0, End_track
5, 0, Start_track
5, 0, Key_signature, 0, "major"
5, 0, End_track
6, 0, Start_track
6, 0, Key_signature, 0, "major"
6, 0, End_track
7, 0, Start_track
7, 0, Key_signature, 0, "major"
7, 0, End_track
8, 0, Start_track
8, 0, Key_signature, 0, "major"
8, 0, End_track
9, 0, Start_track
9, 0, Key_signature, 0, "major"
9, 0, End_track
10, 0, Start_track
10, 0, Key_signature, 0, "major"
10, 0, End_track
11, 0, Start_track
11, 0, Key_signature, 0, "major"
11, 0, End_track
0, 0, End_of_file