0, 0, Header, 1, 3, 480
1, 0, Start_track
1, 0, Tempo, 416513
1, 0, Time_signature, 6, 3, 24, 8
1, 0, Title_t, "untitled"
1, 9360, Tempo, 352769
1, 10080, Tempo, 307457
1, 10800, Tempo, 295425
1, 11520, Tempo, 285697
1, 20880, Tempo, 293889
1, 21600, Tempo, 295425
1, 23040, Tempo, 333313
1, 25200, Tempo, 327681
1, 25920, Tempo, 324097
1, 26640, Tempo, 327681
1, 27360, Tempo, 571393
1, 28800, Tempo, 333313
1, 29520, Tempo, 340737
1, 30960, Tempo, 335105
1, 31680, Tempo, 333313
1, 33120, Tempo, 338945
1, 33840, Tempo, 335105
1, 34560, Tempo, 333313
1, 35280, Tempo, 340737
1, 36720, Tempo, 335105
1, 37440, Tempo, 333313
1, 40320, Tempo, 340737
1, 41040, Tempo, 335105
1, 41760, Tempo, 333313
1, 42480, Tempo, 312321
1, 43200, Tempo, 302849
1, 50400, Tempo, 295425
1, 51120, Tempo, 304385
1, 51840, Tempo, 314113
1, 53280, Tempo, 295425
1, 55440, Tempo, 327681
1, 56160, Tempo, 324097
1, 56880, Tempo, 327681
1, 57600, Tempo, 571393
1, 59040, Tempo, 333313
1, 59760, Tempo, 340737
1, 61200, Tempo, 335105
1, 61920, Tempo, 333313
1, 63360, Tempo, 338945
1, 64080, Tempo, 335105
1, 64800, Tempo, 333313
1, 65520, Tempo, 340737
1, 66960, Tempo, 335105
1, 67680, Tempo, 333313
1, 70560, Tempo, 340737
1, 71280, Tempo, 335105
1, 72000, Tempo, 333313
1, 72720, Tempo, 312321
1, 73440, Tempo, 302849
1, 80640, Tempo, 295425
1, 81360, Tempo, 304385
1, 82080, Tempo, 314113
1, 83520, Tempo, 333313
1, 85680, Tempo, 327681
1, 86400, Tempo, 324097
1, 87120, Tempo, 327681
1, 87840, Tempo, 571393
1, 89280, Tempo, 333313
1, 90000, Tempo, 340737
1, 91440, Tempo, 335105
1, 92160, Tempo, 333313
1, 93600, Tempo, 338945
1, 94320, Tempo, 335105
1, 95040, Tempo, 333313
1, 95760, Tempo, 340737
1, 97200, Tempo, 335105
1, 97920, Tempo, 333313
1, 100800, Tempo, 340737
1, 101520, Tempo, 335105
1, 102240, Tempo, 333313
1, 102960, Tempo, 312321
1, 103680, Tempo, 302849
1, 110880, Tempo, 295425
1, 111600, Tempo, 304385
1, 112320, Tempo, 314113
1, 113760, Tempo, 333313
1, 115920, Tempo, 327681
1, 116640, Tempo, 324097
1, 117360, Tempo, 327681
1, 118080, Tempo, 571393
1, 119520, Tempo, 333313
1, 122400, Tempo, 318977
1, 130320, Tempo, 317441
1, 131040, Tempo, 318977
1, 131760, Tempo, 329473
1, 132480, Tempo, 333313
1, 133200, Tempo, 312321
1, 133920, Tempo, 295425
1, 140400, Tempo, 289793
1, 141120, Tempo, 295425
1, 141840, Tempo, 289793
1, 142560, Tempo, 295425
1, 143280, Tempo, 289793
1, 144000, Tempo, 293889
1, 144720, Tempo, 286977
1, 145440, Tempo, 291073
1, 146160, Tempo, 285697
1, 146880, Tempo, 289793
1, 147600, Tempo, 282881
1, 148320, Tempo, 286977
1, 149040, Tempo, 281601
1, 158400, End_track
2, 0, Start_track
2, 0, Control_c, 0, 0, 0
2, 0, Control_c, 0, 32, 0
2, 0, Program_c, 0, 0
2, 0, Control_c, 0, 1, 0
2, 0, Control_c, 0, 7, 127
2, 0, Control_c, 0, 10, 64
2, 0, Control_c, 0, 91, 0
2, 0, Control_c, 0, 93, 0
2, 0, Key_signature, -4, "major"
2, 0, Title_t, "Piano"
2, 0, Note_on_c, 0, 63, 105
2, 0, Note_on_c, 0, 70, 105
2, 288, Note_on_c, 0, 70, 0
2, 288, Note_on_c, 0, 63, 0
2, 360, Note_on_c, 0, 63, 105
2, 360, Note_on_c, 0, 70, 105
2, 456, Note_on_c, 0, 70, 0
2, 456, Note_on_c, 0, 63, 0
2, 480, Note_on_c, 0, 63, 105
2, 480, Note_on_c, 0, 70, 105
2, 672, Note_on_c, 0, 70, 0
2, 672, Note_on_c, 0, 63, 0
2, 720, Note_on_c, 0, 68, 105
2, 720, Note_on_c, 0, 72, 105
2, 1008, Note_on_c, 0, 72, 0
2, 1008, Note_on_c, 0, 68, 0
2, 1080, Note_on_c, 0, 63, 105
2, 1080, Note_on_c, 0, 70, 105
2, 1176, Note_on_c, 0, 70, 0
2, 1176, Note_on_c, 0, 63, 0
2, 1200, Note_on_c, 0, 60, 105
2, 1200, Note_on_c, 0, 68, 105
2, 1392, Note_on_c, 0, 68, 0
2, 1392, Note_on_c, 0, 60, 0
2, 1440, Note_on_c, 0, 70, 105
2, 1440, Note_on_c, 0, 63, 105
2, 1464, Note_on_c, 0, 63, 0
2, 1464, Note_on_c, 0, 70, 0
2, 1470, Note_on_c, 0, 75, 125
2, 2688, Note_on_c, 0, 75, 0
2, 2880, Note_on_c, 0, 70, 72
2, 2880, Note_on_c, 0, 63, 72
2, 3168, Note_on_c, 0, 63, 0
2, 3168, Note_on_c, 0, 70, 0
2, 3240, Note_on_c, 0, 70, 72
2, 3240, Note_on_c, 0, 63, 72
2, 3336, Note_on_c, 0, 63, 0
2, 3336, Note_on_c, 0, 70, 0
2, 3360, Note_on_c, 0, 70, 72
2, 3360, Note_on_c, 0, 63, 72
2, 3552, Note_on_c, 0, 63, 0
2, 3552, Note_on_c, 0, 70, 0
2, 3600, Note_on_c, 0, 68, 72
2, 3600, Note_on_c, 0, 72, 72
2, 3888, Note_on_c, 0, 72, 0
2, 3888, Note_on_c, 0, 68, 0
2, 3960, Note_on_c, 0, 63, 72
2, 3960, Note_on_c, 0, 70, 72
2, 4056, Note_on_c, 0, 70, 0
2, 4056, Note_on_c, 0, 63, 0
2, 4080, Note_on_c, 0, 60, 72
2, 4080, Note_on_c, 0, 68, 72
2, 4272, Note_on_c, 0, 68, 0
2, 4272, Note_on_c, 0, 60, 0
2, 4320, Note_on_c, 0, 70, 72
2, 4320, Note_on_c, 0, 63, 72
2, 4344, Note_on_c, 0, 63, 0
2, 4344, Note_on_c, 0, 70, 0
2, 4350, Note_on_c, 0, 75, 92
2, 5568, Note_on_c, 0, 75, 0
2, 5760, Note_on_c, 0, 70, 72
2, 5760, Note_on_c, 0, 63, 72
2, 6048, Note_on_c, 0, 63, 0
2, 6048, Note_on_c, 0, 70, 0
2, 6120, Note_on_c, 0, 70, 72
2, 6120, Note_on_c, 0, 63, 72
2, 6216, Note_on_c, 0, 63, 0
2, 6216, Note_on_c, 0, 70, 0
2, 6240, Note_on_c, 0, 70, 72
2, 6240, Note_on_c, 0, 63, 72
2, 6432, Note_on_c, 0, 63, 0
2, 6432, Note_on_c, 0, 70, 0
2, 6480, Note_on_c, 0, 68, 72
2, 6480, Note_on_c, 0, 72, 72
2, 6768, Note_on_c, 0, 72, 0
2, 6768, Note_on_c, 0, 68, 0
2, 6840, Note_on_c, 0, 63, 72
2, 6840, Note_on_c, 0, 70, 72
2, 6936, Note_on_c, 0, 70, 0
2, 6936, Note_on_c, 0, 63, 0
2, 6960, Note_on_c, 0, 60, 72
2, 6960, Note_on_c, 0, 68, 72
2, 7152, Note_on_c, 0, 68, 0
2, 7152, Note_on_c, 0, 60, 0
2, 7200, Note_on_c, 0, 70, 85
2, 7200, Note_on_c, 0, 63, 85
2, 7488, Note_on_c, 0, 63, 0
2, 7488, Note_on_c, 0, 70, 0
2, 7560, Note_on_c, 0, 70, 85
2, 7560, Note_on_c, 0, 63, 85
2, 7656, Note_on_c, 0, 63, 0
2, 7656, Note_on_c, 0, 70, 0
2, 7680, Note_on_c, 0, 70, 85
2, 7680, Note_on_c, 0, 63, 85
2, 7872, Note_on_c, 0, 63, 0
2, 7872, Note_on_c, 0, 70, 0
2, 7920, Note_on_c, 0, 68, 85
2, 7920, Note_on_c, 0, 72, 85
2, 8208, Note_on_c, 0, 72, 0
2, 8208, Note_on_c, 0, 68, 0
2, 8280, Note_on_c, 0, 63, 85
2, 8280, Note_on_c, 0, 70, 85
2, 8376, Note_on_c, 0, 70, 0
2, 8376, Note_on_c, 0, 63, 0
2, 8400, Note_on_c, 0, 60, 85
2, 8400, Note_on_c, 0, 68, 85
2, 8592, Note_on_c, 0, 68, 0
2, 8592, Note_on_c, 0, 60, 0
2, 8640, Note_on_c, 0, 70, 94
2, 8640, Note_on_c, 0, 61, 94
2, 8640, Note_on_c, 0, 63, 94
2, 8640, Note_on_c, 0, 67, 94
2, 8640, Note_on_c, 0, 58, 94
2, 8640, Note_on_c, 0, 51, 94
2, 8832, Note_on_c, 0, 51, 0
2, 8832, Note_on_c, 0, 58, 0
2, 8832, Note_on_c, 0, 67, 0
2, 8832, Note_on_c, 0, 63, 0
2, 8832, Note_on_c, 0, 61, 0
2, 8832, Note_on_c, 0, 70, 0
2, 9120, Note_on_c, 0, 67, 94
2, 9120, Note_on_c, 0, 70, 94
2, 9120, Note_on_c, 0, 63, 94
2, 9120, Note_on_c, 0, 61, 94
2, 9120, Note_on_c, 0, 51, 94
2, 9120, Note_on_c, 0, 58, 94
2, 9312, Note_on_c, 0, 58, 0
2, 9312, Note_on_c, 0, 51, 0
2, 9312, Note_on_c, 0, 61, 0
2, 9312, Note_on_c, 0, 63, 0
2, 9312, Note_on_c, 0, 70, 0
2, 9312, Note_on_c, 0, 67, 0
2, 9360, Note_on_c, 0, 67, 94
2, 9360, Note_on_c, 0, 70, 94
2, 9360, Note_on_c, 0, 63, 94
2, 9360, Note_on_c, 0, 61, 94
2, 9360, Note_on_c, 0, 58, 94
2, 9360, Note_on_c, 0, 51, 94
2, 9552, Note_on_c, 0, 51, 0
2, 9552, Note_on_c, 0, 58, 0
2, 9552, Note_on_c, 0, 61, 0
2, 9552, Note_on_c, 0, 63, 0
2, 9552, Note_on_c, 0, 70, 0
2, 9552, Note_on_c, 0, 67, 0
2, 9840, Note_on_c, 0, 70, 94
2, 9840, Note_on_c, 0, 67, 94
2, 9840, Note_on_c, 0, 63, 94
2, 9840, Note_on_c, 0, 61, 94
2, 9840, Note_on_c, 0, 58, 94
2, 9840, Note_on_c, 0, 51, 94
2, 10032, Note_on_c, 0, 51, 0
2, 10032, Note_on_c, 0, 58, 0
2, 10032, Note_on_c, 0, 61, 0
2, 10032, Note_on_c, 0, 63, 0
2, 10032, Note_on_c, 0, 67, 0
2, 10032, Note_on_c, 0, 70, 0
2, 10080, Note_on_c, 0, 70, 105
2, 10080, Note_on_c, 0, 61, 105
2, 10080, Note_on_c, 0, 63, 105
2, 10080, Note_on_c, 0, 67, 105
2, 10080, Note_on_c, 0, 51, 105
2, 10080, Note_on_c, 0, 39, 105
2, 10272, Note_on_c, 0, 39, 0
2, 10272, Note_on_c, 0, 51, 0
2, 10272, Note_on_c, 0, 67, 0
2, 10272, Note_on_c, 0, 63, 0
2, 10272, Note_on_c, 0, 61, 0
2, 10272, Note_on_c, 0, 70, 0
2, 10560, Note_on_c, 0, 71, 105
2, 10560, Note_on_c, 0, 67, 105
2, 10560, Note_on_c, 0, 63, 105
2, 10560, Note_on_c, 0, 61, 105
2, 10560, Note_on_c, 0, 51, 105
2, 10560, Note_on_c, 0, 39, 105
2, 10752, Note_on_c, 0, 39, 0
2, 10752, Note_on_c, 0, 51, 0
2, 10752, Note_on_c, 0, 61, 0
2, 10752, Note_on_c, 0, 63, 0
2, 10752, Note_on_c, 0, 67, 0
2, 10752, Note_on_c, 0, 71, 0
2, 10800, Note_on_c, 0, 72, 105
2, 10800, Note_on_c, 0, 63, 105
2, 10800, Note_on_c, 0, 61, 105
2, 10800, Note_on_c, 0, 67, 105
2, 10800, Note_on_c, 0, 39, 105
2, 10800, Note_on_c, 0, 51, 105
2, 10992, Note_on_c, 0, 51, 0
2, 10992, Note_on_c, 0, 39, 0
2, 11040, Note_on_c, 0, 51, 105
2, 11040, Note_on_c, 0, 39, 105
2, 11184, Note_on_c, 0, 67, 0
2, 11184, Note_on_c, 0, 61, 0
2, 11184, Note_on_c, 0, 63, 0
2, 11184, Note_on_c, 0, 72, 0
2, 11232, Note_on_c, 0, 39, 0
2, 11232, Note_on_c, 0, 51, 0
2, 11280, Note_on_c, 0, 70, 105
2, 11280, Note_on_c, 0, 67, 105
2, 11280, Note_on_c, 0, 63, 105
2, 11280, Note_on_c, 0, 61, 105
2, 11280, Note_on_c, 0, 39, 105
2, 11280, Note_on_c, 0, 51, 105
2, 11472, Note_on_c, 0, 51, 0
2, 11472, Note_on_c, 0, 39, 0
2, 11472, Note_on_c, 0, 61, 0
2, 11472, Note_on_c, 0, 63, 0
2, 11472, Note_on_c, 0, 67, 0
2, 11472, Note_on_c, 0, 70, 0
2, 11520, Note_on_c, 0, 68, 116
2, 11520, Note_on_c, 0, 60, 116
2, 11520, Note_on_c, 0, 44, 116
2, 11712, Note_on_c, 0, 44, 0
2, 11760, Note_on_c, 0, 56, 116
2, 11904, Note_on_c, 0, 60, 0
2, 11904, Note_on_c, 0, 68, 0
2, 11952, Note_on_c, 0, 56, 0
2, 12000, Note_on_c, 0, 63, 116
2, 12000, Note_on_c, 0, 51, 116
2, 12192, Note_on_c, 0, 51, 0
2, 12192, Note_on_c, 0, 63, 0
2, 12240, Note_on_c, 0, 60, 72
2, 12240, Note_on_c, 0, 44, 72
2, 12432, Note_on_c, 0, 44, 0
2, 12432, Note_on_c, 0, 60, 0
2, 12480, Note_on_c, 0, 63, 72
2, 12480, Note_on_c, 0, 56, 72
2, 12576, Note_on_c, 0, 63, 0
2, 12600, Note_on_c, 0, 63, 72
2, 12672, Note_on_c, 0, 56, 0
2, 12696, Note_on_c, 0, 63, 0
2, 12720, Note_on_c, 0, 63, 72
2, 12720, Note_on_c, 0, 51, 72
2, 12912, Note_on_c, 0, 51, 0
2, 12912, Note_on_c, 0, 63, 0
2, 12960, Note_on_c, 0, 60, 72
2, 12960, Note_on_c, 0, 44, 72
2, 13152, Note_on_c, 0, 44, 0
2, 13152, Note_on_c, 0, 60, 0
2, 13200, Note_on_c, 0, 65, 72
2, 13200, Note_on_c, 0, 56, 72
2, 13392, Note_on_c, 0, 56, 0
2, 13392, Note_on_c, 0, 65, 0
2, 13440, Note_on_c, 0, 63, 72
2, 13440, Note_on_c, 0, 51, 72
2, 13632, Note_on_c, 0, 51, 0
2, 13632, Note_on_c, 0, 63, 0
2, 13680, Note_on_c, 0, 60, 85
2, 13680, Note_on_c, 0, 44, 85
2, 13872, Note_on_c, 0, 44, 0
2, 13872, Note_on_c, 0, 60, 0
2, 13920, Note_on_c, 0, 63, 85
2, 13920, Note_on_c, 0, 56, 85
2, 14016, Note_on_c, 0, 63, 0
2, 14040, Note_on_c, 0, 63, 85
2, 14112, Note_on_c, 0, 56, 0
2, 14136, Note_on_c, 0, 63, 0
2, 14160, Note_on_c, 0, 63, 85
2, 14160, Note_on_c, 0, 51, 85
2, 14352, Note_on_c, 0, 51, 0
2, 14352, Note_on_c, 0, 63, 0
2, 14400, Note_on_c, 0, 60, 94
2, 14400, Note_on_c, 0, 44, 94
2, 14592, Note_on_c, 0, 44, 0
2, 14592, Note_on_c, 0, 60, 0
2, 14640, Note_on_c, 0, 63, 94
2, 14640, Note_on_c, 0, 56, 94
2, 14736, Note_on_c, 0, 63, 0
2, 14760, Note_on_c, 0, 63, 94
2, 14832, Note_on_c, 0, 56, 0
2, 14856, Note_on_c, 0, 63, 0
2, 14880, Note_on_c, 0, 63, 94
2, 14880, Note_on_c, 0, 51, 94
2, 15072, Note_on_c, 0, 51, 0
2, 15072, Note_on_c, 0, 63, 0
2, 15120, Note_on_c, 0, 60, 105
2, 15120, Note_on_c, 0, 68, 105
2, 15120, Note_on_c, 0, 44, 105
2, 15312, Note_on_c, 0, 44, 0
2, 15312, Note_on_c, 0, 68, 0
2, 15312, Note_on_c, 0, 60, 0
2, 15360, Note_on_c, 0, 63, 105
2, 15360, Note_on_c, 0, 56, 105
2, 15552, Note_on_c, 0, 56, 0
2, 15552, Note_on_c, 0, 63, 0
2, 15600, Note_on_c, 0, 72, 105
2, 15600, Note_on_c, 0, 51, 105
2, 15792, Note_on_c, 0, 51, 0
2, 15792, Note_on_c, 0, 72, 0
2, 15840, Note_on_c, 0, 70, 116
2, 15840, Note_on_c, 0, 61, 116
2, 15840, Note_on_c, 0, 44, 116
2, 16032, Note_on_c, 0, 44, 0
2, 16032, Note_on_c, 0, 61, 0
2, 16032, Note_on_c, 0, 70, 0
2, 16080, Note_on_c, 0, 63, 116
2, 16080, Note_on_c, 0, 55, 116
2, 16272, Note_on_c, 0, 55, 0
2, 16272, Note_on_c, 0, 63, 0
2, 16320, Note_on_c, 0, 75, 116
2, 16320, Note_on_c, 0, 51, 116
2, 16512, Note_on_c, 0, 51, 0
2, 16512, Note_on_c, 0, 75, 0
2, 16560, Note_on_c, 0, 75, 127
2, 16560, Note_on_c, 0, 72, 127
2, 16560, Note_on_c, 0, 63, 127
2, 16560, Note_on_c, 0, 44, 116
2, 16752, Note_on_c, 0, 44, 0
2, 16800, Note_on_c, 0, 56, 116
2, 16944, Note_on_c, 0, 63, 0
2, 16944, Note_on_c, 0, 72, 0
2, 16944, Note_on_c, 0, 75, 0
2, 16992, Note_on_c, 0, 56, 0
2, 17040, Note_on_c, 0, 63, 116
2, 17040, Note_on_c, 0, 51, 116
2, 17232, Note_on_c, 0, 51, 0
2, 17232, Note_on_c, 0, 63, 0
2, 17280, Note_on_c, 0, 60, 72
2, 17280, Note_on_c, 0, 44, 72
2, 17472, Note_on_c, 0, 44, 0
2, 17472, Note_on_c, 0, 60, 0
2, 17520, Note_on_c, 0, 65, 72
2, 17520, Note_on_c, 0, 56, 72
2, 17712, Note_on_c, 0, 56, 0
2, 17712, Note_on_c, 0, 65, 0
2, 17760, Note_on_c, 0, 63, 72
2, 17760, Note_on_c, 0, 51, 72
2, 17952, Note_on_c, 0, 51, 0
2, 17952, Note_on_c, 0, 63, 0
2, 18000, Note_on_c, 0, 60, 72
2, 18000, Note_on_c, 0, 44, 72
2, 18192, Note_on_c, 0, 44, 0
2, 18192, Note_on_c, 0, 60, 0
2, 18240, Note_on_c, 0, 63, 72
2, 18240, Note_on_c, 0, 56, 72
2, 18336, Note_on_c, 0, 63, 0
2, 18360, Note_on_c, 0, 63, 72
2, 18432, Note_on_c, 0, 56, 0
2, 18456, Note_on_c, 0, 63, 0
2, 18480, Note_on_c, 0, 63, 72
2, 18480, Note_on_c, 0, 51, 72
2, 18672, Note_on_c, 0, 51, 0
2, 18672, Note_on_c, 0, 63, 0
2, 18720, Note_on_c, 0, 60, 85
2, 18720, Note_on_c, 0, 44, 85
2, 18912, Note_on_c, 0, 44, 0
2, 18912, Note_on_c, 0, 60, 0
2, 18960, Note_on_c, 0, 65, 85
2, 18960, Note_on_c, 0, 56, 85
2, 19152, Note_on_c, 0, 56, 0
2, 19152, Note_on_c, 0, 65, 0
2, 19200, Note_on_c, 0, 63, 85
2, 19200, Note_on_c, 0, 51, 85
2, 19392, Note_on_c, 0, 51, 0
2, 19392, Note_on_c, 0, 63, 0
2, 19440, Note_on_c, 0, 60, 94
2, 19440, Note_on_c, 0, 44, 94
2, 19632, Note_on_c, 0, 44, 0
2, 19632, Note_on_c, 0, 60, 0
2, 19680, Note_on_c, 0, 63, 94
2, 19680, Note_on_c, 0, 56, 94
2, 19776, Note_on_c, 0, 63, 0
2, 19800, Note_on_c, 0, 63, 94
2, 19872, Note_on_c, 0, 56, 0
2, 19896, Note_on_c, 0, 63, 0
2, 19920, Note_on_c, 0, 63, 94
2, 19920, Note_on_c, 0, 51, 94
2, 20112, Note_on_c, 0, 51, 0
2, 20112, Note_on_c, 0, 63, 0
2, 20160, Note_on_c, 0, 60, 105
2, 20160, Note_on_c, 0, 44, 105
2, 20352, Note_on_c, 0, 44, 0
2, 20352, Note_on_c, 0, 60, 0
2, 20400, Note_on_c, 0, 63, 105
2, 20400, Note_on_c, 0, 56, 105
2, 20496, Note_on_c, 0, 63, 0
2, 20520, Note_on_c, 0, 63, 105
2, 20592, Note_on_c, 0, 56, 0
2, 20616, Note_on_c, 0, 63, 0
2, 20640, Note_on_c, 0, 63, 105
2, 20640, Note_on_c, 0, 51, 105
2, 20832, Note_on_c, 0, 51, 0
2, 20832, Note_on_c, 0, 63, 0
2, 20880, Note_on_c, 0, 68, 116
2, 20880, Note_on_c, 0, 60, 116
2, 20880, Note_on_c, 0, 44, 116
2, 21072, Note_on_c, 0, 44, 0
2, 21072, Note_on_c, 0, 60, 0
2, 21072, Note_on_c, 0, 68, 0
2, 21120, Note_on_c, 0, 63, 116
2, 21120, Note_on_c, 0, 56, 116
2, 21312, Note_on_c, 0, 56, 0
2, 21312, Note_on_c, 0, 63, 0
2, 21360, Note_on_c, 0, 72, 116
2, 21360, Note_on_c, 0, 51, 116
2, 21552, Note_on_c, 0, 51, 0
2, 21552, Note_on_c, 0, 72, 0
2, 21600, Note_on_c, 0, 70, 105
2, 21600, Note_on_c, 0, 61, 105
2, 21600, Note_on_c, 0, 44, 105
2, 21792, Note_on_c, 0, 44, 0
2, 21792, Note_on_c, 0, 61, 0
2, 21792, Note_on_c, 0, 70, 0
2, 21840, Note_on_c, 0, 63, 105
2, 21840, Note_on_c, 0, 56, 105
2, 22032, Note_on_c, 0, 56, 0
2, 22032, Note_on_c, 0, 63, 0
2, 22080, Note_on_c, 0, 72, 105
2, 22080, Note_on_c, 0, 51, 105
2, 22272, Note_on_c, 0, 51, 0
2, 22272, Note_on_c, 0, 72, 0
2, 22320, Note_on_c, 0, 61, 94
2, 22320, Note_on_c, 0, 70, 94
2, 22320, Note_on_c, 0, 44, 94
2, 22512, Note_on_c, 0, 44, 0
2, 22512, Note_on_c, 0, 70, 0
2, 22512, Note_on_c, 0, 61, 0
2, 22560, Note_on_c, 0, 63, 94
2, 22560, Note_on_c, 0, 56, 94
2, 22752, Note_on_c, 0, 56, 0
2, 22752, Note_on_c, 0, 63, 0
2, 22800, Note_on_c, 0, 72, 85
2, 22800, Note_on_c, 0, 51, 85
2, 22992, Note_on_c, 0, 51, 0
2, 22992, Note_on_c, 0, 72, 0
2, 23040, Note_on_c, 0, 60, 85
2, 23040, Note_on_c, 0, 68, 85
2, 23040, Note_on_c, 0, 44, 85
2, 23232, Note_on_c, 0, 44, 0
2, 23232, Note_on_c, 0, 68, 0
2, 23232, Note_on_c, 0, 60, 0
2, 23280, Note_on_c, 0, 63, 85
2, 23280, Note_on_c, 0, 56, 85
2, 23472, Note_on_c, 0, 56, 0
2, 23472, Note_on_c, 0, 63, 0
2, 23520, Note_on_c, 0, 72, 85
2, 23520, Note_on_c, 0, 51, 85
2, 23712, Note_on_c, 0, 51, 0
2, 23712, Note_on_c, 0, 72, 0
2, 23760, Note_on_c, 0, 68, 85
2, 23760, Note_on_c, 0, 61, 85
2, 23760, Note_on_c, 0, 49, 85
2, 23952, Note_on_c, 0, 49, 0
2, 23952, Note_on_c, 0, 61, 0
2, 23952, Note_on_c, 0, 68, 0
2, 24000, Note_on_c, 0, 65, 85
2, 24000, Note_on_c, 0, 56, 85
2, 24192, Note_on_c, 0, 56, 0
2, 24192, Note_on_c, 0, 65, 0
2, 24240, Note_on_c, 0, 73, 85
2, 24240, Note_on_c, 0, 53, 85
2, 24432, Note_on_c, 0, 53, 0
2, 24432, Note_on_c, 0, 73, 0
2, 24480, Note_on_c, 0, 61, 94
2, 24480, Note_on_c, 0, 70, 94
2, 24480, Note_on_c, 0, 46, 94
2, 24672, Note_on_c, 0, 46, 0
2, 24672, Note_on_c, 0, 70, 0
2, 24672, Note_on_c, 0, 61, 0
2, 24720, Note_on_c, 0, 65, 94
2, 24720, Note_on_c, 0, 58, 94
2, 24912, Note_on_c, 0, 58, 0
2, 24912, Note_on_c, 0, 65, 0
2, 24960, Note_on_c, 0, 73, 94
2, 24960, Note_on_c, 0, 53, 94
2, 25152, Note_on_c, 0, 53, 0
2, 25152, Note_on_c, 0, 73, 0
2, 25200, Note_on_c, 0, 70, 94
2, 25200, Note_on_c, 0, 63, 94
2, 25200, Note_on_c, 0, 51, 94
2, 25392, Note_on_c, 0, 51, 0
2, 25392, Note_on_c, 0, 63, 0
2, 25392, Note_on_c, 0, 70, 0
2, 25440, Note_on_c, 0, 67, 94
2, 25440, Note_on_c, 0, 58, 94
2, 25632, Note_on_c, 0, 58, 0
2, 25632, Note_on_c, 0, 67, 0
2, 25680, Note_on_c, 0, 75, 94
2, 25680, Note_on_c, 0, 55, 94
2, 25872, Note_on_c, 0, 55, 0
2, 25872, Note_on_c, 0, 75, 0
2, 25920, Note_on_c, 0, 63, 105
2, 25920, Note_on_c, 0, 72, 105
2, 25920, Note_on_c, 0, 48, 105
2, 26112, Note_on_c, 0, 48, 0
2, 26112, Note_on_c, 0, 72, 0
2, 26112, Note_on_c, 0, 63, 0
2, 26160, Note_on_c, 0, 67, 105
2, 26160, Note_on_c, 0, 60, 105
2, 26352, Note_on_c, 0, 60, 0
2, 26352, Note_on_c, 0, 67, 0
2, 26400, Note_on_c, 0, 75, 105
2, 26400, Note_on_c, 0, 55, 105
2, 26592, Note_on_c, 0, 55, 0
2, 26592, Note_on_c, 0, 75, 0
2, 26640, Note_on_c, 0, 72, 116
2, 26640, Note_on_c, 0, 65, 116
2, 26640, Note_on_c, 0, 53, 116
2, 26832, Note_on_c, 0, 53, 0
2, 26832, Note_on_c, 0, 65, 0
2, 26832, Note_on_c, 0, 72, 0
2, 26880, Note_on_c, 0, 68, 116
2, 26880, Note_on_c, 0, 60, 116
2, 27072, Note_on_c, 0, 60, 0
2, 27072, Note_on_c, 0, 68, 0
2, 27120, Note_on_c, 0, 77, 116
2, 27120, Note_on_c, 0, 56, 116
2, 27312, Note_on_c, 0, 56, 0
2, 27312, Note_on_c, 0, 77, 0
2, 27360, Note_on_c, 0, 64, 116
2, 27360, Note_on_c, 0, 76, 116
2, 27360, Note_on_c, 0, 68, 116
2, 27360, Note_on_c, 0, 70, 116
2, 27360, Note_on_c, 0, 56, 116
2, 27360, Note_on_c, 0, 52, 116
2, 27360, Note_on_c, 0, 61, 116
2, 27360, Note_on_c, 0, 46, 116
2, 27936, Note_on_c, 0, 46, 0
2, 27936, Note_on_c, 0, 61, 0
2, 27936, Note_on_c, 0, 52, 0
2, 27936, Note_on_c, 0, 56, 0
2, 27936, Note_on_c, 0, 70, 0
2, 27936, Note_on_c, 0, 68, 0
2, 27936, Note_on_c, 0, 76, 0
2, 27936, Note_on_c, 0, 64, 0
2, 28800, Note_on_c, 0, 51, 72
2, 29040, Note_on_c, 0, 70, 72
2, 29040, Note_on_c, 0, 75, 72
2, 29040, Note_on_c, 0, 67, 72
2, 29184, Note_on_c, 0, 51, 0
2, 29232, Note_on_c, 0, 67, 0
2, 29232, Note_on_c, 0, 75, 0
2, 29232, Note_on_c, 0, 70, 0
2, 29280, Note_on_c, 0, 63, 72
2, 29472, Note_on_c, 0, 63, 0
2, 29520, Note_on_c, 0, 56, 72
2, 29760, Note_on_c, 0, 68, 72
2, 29760, Note_on_c, 0, 66, 72
2, 29760, Note_on_c, 0, 72, 72
2, 29904, Note_on_c, 0, 56, 0
2, 29952, Note_on_c, 0, 72, 0
2, 29952, Note_on_c, 0, 66, 0
2, 29952, Note_on_c, 0, 68, 0
2, 30000, Note_on_c, 0, 63, 72
2, 30192, Note_on_c, 0, 63, 0
2, 30240, Note_on_c, 0, 49, 72
2, 30480, Note_on_c, 0, 68, 72
2, 30480, Note_on_c, 0, 73, 72
2, 30480, Note_on_c, 0, 65, 72
2, 30624, Note_on_c, 0, 49, 0
2, 30672, Note_on_c, 0, 65, 0
2, 30672, Note_on_c, 0, 73, 0
2, 30672, Note_on_c, 0, 68, 0
2, 30720, Note_on_c, 0, 61, 72
2, 30912, Note_on_c, 0, 61, 0
2, 30960, Note_on_c, 0, 49, 85
2, 31200, Note_on_c, 0, 70, 85
2, 31200, Note_on_c, 0, 64, 85
2, 31200, Note_on_c, 0, 73, 85
2, 31344, Note_on_c, 0, 49, 0
2, 31392, Note_on_c, 0, 73, 0
2, 31392, Note_on_c, 0, 64, 0
2, 31392, Note_on_c, 0, 70, 0
2, 31440, Note_on_c, 0, 61, 85
2, 31632, Note_on_c, 0, 61, 0
2, 31680, Note_on_c, 0, 51, 94
2, 31920, Note_on_c, 0, 63, 94
2, 31920, Note_on_c, 0, 72, 94
2, 31920, Note_on_c, 0, 68, 94
2, 32064, Note_on_c, 0, 51, 0
2, 32112, Note_on_c, 0, 68, 0
2, 32112, Note_on_c, 0, 72, 0
2, 32112, Note_on_c, 0, 63, 0
2, 32160, Note_on_c, 0, 60, 94
2, 32352, Note_on_c, 0, 60, 0
2, 32400, Note_on_c, 0, 51, 105
2, 32640, Note_on_c, 0, 63, 105
2, 32640, Note_on_c, 0, 67, 105
2, 32640, Note_on_c, 0, 70, 105
2, 32784, Note_on_c, 0, 51, 0
2, 32832, Note_on_c, 0, 70, 0
2, 32832, Note_on_c, 0, 67, 0
2, 32832, Note_on_c, 0, 63, 0
2, 32880, Note_on_c, 0, 58, 105
2, 33072, Note_on_c, 0, 58, 0
2, 33120, Note_on_c, 0, 38, 105
2, 33120, Note_on_c, 0, 50, 105
2, 33312, Note_on_c, 0, 50, 0
2, 33312, Note_on_c, 0, 38, 0
2, 33360, Note_on_c, 0, 68, 105
2, 33360, Note_on_c, 0, 65, 105
2, 33360, Note_on_c, 0, 70, 105
2, 33360, Note_on_c, 0, 58, 105
2, 33360, Note_on_c, 0, 50, 105
2, 33552, Note_on_c, 0, 50, 0
2, 33552, Note_on_c, 0, 58, 0
2, 33552, Note_on_c, 0, 70, 0
2, 33552, Note_on_c, 0, 65, 0
2, 33552, Note_on_c, 0, 68, 0
2, 33600, Note_on_c, 0, 70, 105
2, 33600, Note_on_c, 0, 68, 105
2, 33600, Note_on_c, 0, 65, 105
2, 33600, Note_on_c, 0, 58, 105
2, 33600, Note_on_c, 0, 50, 105
2, 33792, Note_on_c, 0, 50, 0
2, 33792, Note_on_c, 0, 58, 0
2, 33792, Note_on_c, 0, 65, 0
2, 33792, Note_on_c, 0, 68, 0
2, 33792, Note_on_c, 0, 70, 0
2, 33840, Note_on_c, 0, 70, 105
2, 33840, Note_on_c, 0, 65, 105
2, 33840, Note_on_c, 0, 68, 105
2, 33840, Note_on_c, 0, 58, 105
2, 33840, Note_on_c, 0, 50, 105
2, 34032, Note_on_c, 0, 50, 0
2, 34032, Note_on_c, 0, 58, 0
2, 34032, Note_on_c, 0, 68, 0
2, 34032, Note_on_c, 0, 65, 0
2, 34032, Note_on_c, 0, 70, 0
2, 34080, Note_on_c, 0, 68, 94
2, 34080, Note_on_c, 0, 65, 94
2, 34080, Note_on_c, 0, 70, 94
2, 34080, Note_on_c, 0, 50, 94
2, 34080, Note_on_c, 0, 58, 94
2, 34272, Note_on_c, 0, 58, 0
2, 34272, Note_on_c, 0, 50, 0
2, 34272, Note_on_c, 0, 70, 0
2, 34272, Note_on_c, 0, 65, 0
2, 34272, Note_on_c, 0, 68, 0
2, 34320, Note_on_c, 0, 65, 94
2, 34320, Note_on_c, 0, 68, 94
2, 34320, Note_on_c, 0, 70, 94
2, 34320, Note_on_c, 0, 58, 94
2, 34320, Note_on_c, 0, 50, 94
2, 34512, Note_on_c, 0, 50, 0
2, 34512, Note_on_c, 0, 58, 0
2, 34512, Note_on_c, 0, 70, 0
2, 34512, Note_on_c, 0, 68, 0
2, 34512, Note_on_c, 0, 65, 0
2, 34560, Note_on_c, 0, 51, 72
2, 34800, Note_on_c, 0, 63, 72
2, 34800, Note_on_c, 0, 67, 72
2, 34800, Note_on_c, 0, 70, 72
2, 34944, Note_on_c, 0, 51, 0
2, 34992, Note_on_c, 0, 70, 0
2, 34992, Note_on_c, 0, 67, 0
2, 34992, Note_on_c, 0, 63, 0
2, 35040, Note_on_c, 0, 61, 72
2, 35232, Note_on_c, 0, 61, 0
2, 35280, Note_on_c, 0, 44, 72
2, 35520, Note_on_c, 0, 72, 72
2, 35520, Note_on_c, 0, 68, 72
2, 35520, Note_on_c, 0, 66, 72
2, 35664, Note_on_c, 0, 44, 0
2, 35712, Note_on_c, 0, 66, 0
2, 35712, Note_on_c, 0, 68, 0
2, 35712, Note_on_c, 0, 72, 0
2, 35760, Note_on_c, 0, 63, 72
2, 35952, Note_on_c, 0, 63, 0
2, 36000, Note_on_c, 0, 49, 72
2, 36240, Note_on_c, 0, 65, 72
2, 36240, Note_on_c, 0, 68, 72
2, 36240, Note_on_c, 0, 73, 72
2, 36432, Note_on_c, 0, 73, 0
2, 36432, Note_on_c, 0, 68, 0
2, 36432, Note_on_c, 0, 65, 0
2, 36480, Note_on_c, 0, 61, 72
2, 36576, Note_on_c, 0, 49, 0
2, 36672, Note_on_c, 0, 61, 0
2, 36720, Note_on_c, 0, 49, 85
2, 36960, Note_on_c, 0, 73, 85
2, 36960, Note_on_c, 0, 64, 85
2, 36960, Note_on_c, 0, 68, 85
2, 37152, Note_on_c, 0, 68, 0
2, 37152, Note_on_c, 0, 64, 0
2, 37152, Note_on_c, 0, 73, 0
2, 37200, Note_on_c, 0, 61, 85
2, 37296, Note_on_c, 0, 49, 0
2, 37392, Note_on_c, 0, 61, 0
2, 37440, Note_on_c, 0, 51, 94
2, 37680, Note_on_c, 0, 63, 94
2, 37680, Note_on_c, 0, 72, 94
2, 37680, Note_on_c, 0, 68, 94
2, 37872, Note_on_c, 0, 68, 0
2, 37872, Note_on_c, 0, 72, 0
2, 37872, Note_on_c, 0, 63, 0
2, 37920, Note_on_c, 0, 60, 94
2, 38016, Note_on_c, 0, 51, 0
2, 38112, Note_on_c, 0, 60, 0
2, 38160, Note_on_c, 0, 51, 94
2, 38400, Note_on_c, 0, 63, 94
2, 38400, Note_on_c, 0, 67, 94
2, 38400, Note_on_c, 0, 72, 94
2, 38592, Note_on_c, 0, 72, 0
2, 38592, Note_on_c, 0, 67, 0
2, 38592, Note_on_c, 0, 63, 0
2, 38640, Note_on_c, 0, 61, 94
2, 38736, Note_on_c, 0, 51, 0
2, 38832, Note_on_c, 0, 61, 0
2, 38880, Note_on_c, 0, 68, 105
2, 38880, Note_on_c, 0, 60, 105
2, 38880, Note_on_c, 0, 63, 105
2, 38880, Note_on_c, 0, 51, 105
2, 39072, Note_on_c, 0, 51, 0
2, 39072, Note_on_c, 0, 63, 0
2, 39072, Note_on_c, 0, 60, 0
2, 39072, Note_on_c, 0, 68, 0
2, 39120, Note_on_c, 0, 63, 105
2, 39120, Note_on_c, 0, 68, 105
2, 39120, Note_on_c, 0, 60, 105
2, 39120, Note_on_c, 0, 51, 105
2, 39312, Note_on_c, 0, 51, 0
2, 39312, Note_on_c, 0, 60, 0
2, 39312, Note_on_c, 0, 68, 0
2, 39312, Note_on_c, 0, 63, 0
2, 39360, Note_on_c, 0, 68, 105
2, 39360, Note_on_c, 0, 63, 105
2, 39360, Note_on_c, 0, 60, 105
2, 39360, Note_on_c, 0, 51, 105
2, 39552, Note_on_c, 0, 51, 0
2, 39552, Note_on_c, 0, 60, 0
2, 39552, Note_on_c, 0, 63, 0
2, 39552, Note_on_c, 0, 68, 0
2, 39600, Note_on_c, 0, 63, 116
2, 39600, Note_on_c, 0, 60, 116
2, 39600, Note_on_c, 0, 69, 116
2, 39600, Note_on_c, 0, 66, 116
2, 39600, Note_on_c, 0, 51, 105
2, 39792, Note_on_c, 0, 51, 0
2, 39792, Note_on_c, 0, 66, 0
2, 39792, Note_on_c, 0, 69, 0
2, 39792, Note_on_c, 0, 60, 0
2, 39792, Note_on_c, 0, 63, 0
2, 39840, Note_on_c, 0, 69, 116
2, 39840, Note_on_c, 0, 63, 116
2, 39840, Note_on_c, 0, 60, 116
2, 39840, Note_on_c, 0, 66, 116
2, 39840, Note_on_c, 0, 51, 116
2, 40032, Note_on_c, 0, 51, 0
2, 40032, Note_on_c, 0, 66, 0
2, 40032, Note_on_c, 0, 60, 0
2, 40032, Note_on_c, 0, 63, 0
2, 40032, Note_on_c, 0, 69, 0
2, 40080, Note_on_c, 0, 66, 116
2, 40080, Note_on_c, 0, 60, 116
2, 40080, Note_on_c, 0, 69, 116
2, 40080, Note_on_c, 0, 63, 116
2, 40080, Note_on_c, 0, 51, 116
2, 40272, Note_on_c, 0, 51, 0
2, 40272, Note_on_c, 0, 63, 0
2, 40272, Note_on_c, 0, 69, 0
2, 40272, Note_on_c, 0, 60, 0
2, 40272, Note_on_c, 0, 66, 0
2, 40320, Note_on_c, 0, 70, 116
2, 40320, Note_on_c, 0, 67, 116
2, 40320, Note_on_c, 0, 63, 116
2, 40320, Note_on_c, 0, 61, 116
2, 40320, Note_on_c, 0, 51, 116
2, 40320, Note_on_c, 0, 39, 116
2, 40512, Note_on_c, 0, 39, 0
2, 40512, Note_on_c, 0, 51, 0
2, 40512, Note_on_c, 0, 61, 0
2, 40512, Note_on_c, 0, 63, 0
2, 40512, Note_on_c, 0, 67, 0
2, 40512, Note_on_c, 0, 70, 0
2, 40560, Note_on_c, 0, 67, 116
2, 40560, Note_on_c, 0, 61, 116
2, 40560, Note_on_c, 0, 70, 116
2, 40560, Note_on_c, 0, 63, 116
2, 40560, Note_on_c, 0, 39, 116
2, 40560, Note_on_c, 0, 51, 116
2, 40752, Note_on_c, 0, 51, 0
2, 40752, Note_on_c, 0, 39, 0
2, 40752, Note_on_c, 0, 63, 0
2, 40752, Note_on_c, 0, 70, 0
2, 40752, Note_on_c, 0, 61, 0
2, 40752, Note_on_c, 0, 67, 0
2, 40800, Note_on_c, 0, 70, 116
2, 40800, Note_on_c, 0, 63, 116
2, 40800, Note_on_c, 0, 67, 116
2, 40800, Note_on_c, 0, 61, 116
2, 40800, Note_on_c, 0, 51, 116
2, 40800, Note_on_c, 0, 39, 105
2, 40992, Note_on_c, 0, 39, 0
2, 40992, Note_on_c, 0, 51, 0
2, 40992, Note_on_c, 0, 61, 0
2, 40992, Note_on_c, 0, 67, 0
2, 40992, Note_on_c, 0, 63, 0
2, 40992, Note_on_c, 0, 70, 0
2, 41040, Note_on_c, 0, 61, 105
2, 41040, Note_on_c, 0, 63, 105
2, 41040, Note_on_c, 0, 70, 105
2, 41040, Note_on_c, 0, 67, 105
2, 41040, Note_on_c, 0, 51, 105
2, 41040, Note_on_c, 0, 39, 105
2, 41232, Note_on_c, 0, 39, 0
2, 41232, Note_on_c, 0, 51, 0
2, 41232, Note_on_c, 0, 67, 0
2, 41232, Note_on_c, 0, 70, 0
2, 41232, Note_on_c, 0, 63, 0
2, 41232, Note_on_c, 0, 61, 0
2, 41280, Note_on_c, 0, 70, 105
2, 41280, Note_on_c, 0, 67, 94
2, 41280, Note_on_c, 0, 63, 94
2, 41280, Note_on_c, 0, 61, 94
2, 41280, Note_on_c, 0, 51, 105
2, 41280, Note_on_c, 0, 39, 94
2, 41472, Note_on_c, 0, 39, 0
2, 41472, Note_on_c, 0, 51, 0
2, 41472, Note_on_c, 0, 61, 0
2, 41472, Note_on_c, 0, 63, 0
2, 41472, Note_on_c, 0, 67, 0
2, 41472, Note_on_c, 0, 70, 0
2, 41520, Note_on_c, 0, 70, 94
2, 41520, Note_on_c, 0, 61, 94
2, 41520, Note_on_c, 0, 63, 94
2, 41520, Note_on_c, 0, 67, 94
2, 41520, Note_on_c, 0, 51, 94
2, 41520, Note_on_c, 0, 39, 94
2, 41712, Note_on_c, 0, 39, 0
2, 41712, Note_on_c, 0, 51, 0
2, 41712, Note_on_c, 0, 67, 0
2, 41712, Note_on_c, 0, 63, 0
2, 41712, Note_on_c, 0, 61, 0
2, 41712, Note_on_c, 0, 70, 0
2, 41760, Note_on_c, 0, 60, 105
2, 41760, Note_on_c, 0, 68, 105
2, 41760, Note_on_c, 0, 44, 105
2, 41952, Note_on_c, 0, 44, 0
2, 42000, Note_on_c, 0, 56, 105
2, 42144, Note_on_c, 0, 68, 0
2, 42144, Note_on_c, 0, 60, 0
2, 42192, Note_on_c, 0, 56, 0
2, 42240, Note_on_c, 0, 63, 105
2, 42240, Note_on_c, 0, 51, 105
2, 42432, Note_on_c, 0, 51, 0
2, 42432, Note_on_c, 0, 63, 0
2, 42480, Note_on_c, 0, 60, 72
2, 42480, Note_on_c, 0, 44, 72
2, 42672, Note_on_c, 0, 44, 0
2, 42672, Note_on_c, 0, 60, 0
2, 42720, Note_on_c, 0, 63, 72
2, 42720, Note_on_c, 0, 56, 72
2, 42816, Note_on_c, 0, 63, 0
2, 42840, Note_on_c, 0, 63, 72
2, 42912, Note_on_c, 0, 56, 0
2, 42936, Note_on_c, 0, 63, 0
2, 42960, Note_on_c, 0, 63, 72
2, 42960, Note_on_c, 0, 51, 72
2, 43152, Note_on_c, 0, 51, 0
2, 43152, Note_on_c, 0, 63, 0
2, 43200, Note_on_c, 0, 60, 72
2, 43200, Note_on_c, 0, 44, 72
2, 43392, Note_on_c, 0, 44, 0
2, 43392, Note_on_c, 0, 60, 0
2, 43440, Note_on_c, 0, 65, 72
2, 43440, Note_on_c, 0, 56, 72
2, 43632, Note_on_c, 0, 56, 0
2, 43632, Note_on_c, 0, 65, 0
2, 43680, Note_on_c, 0, 63, 72
2, 43680, Note_on_c, 0, 51, 72
2, 43872, Note_on_c, 0, 51, 0
2, 43872, Note_on_c, 0, 63, 0
2, 43920, Note_on_c, 0, 60, 85
2, 43920, Note_on_c, 0, 44, 85
2, 44112, Note_on_c, 0, 44, 0
2, 44112, Note_on_c, 0, 60, 0
2, 44160, Note_on_c, 0, 63, 85
2, 44160, Note_on_c, 0, 56, 85
2, 44256, Note_on_c, 0, 63, 0
2, 44280, Note_on_c, 0, 63, 85
2, 44352, Note_on_c, 0, 56, 0
2, 44376, Note_on_c, 0, 63, 0
2, 44400, Note_on_c, 0, 63, 85
2, 44400, Note_on_c, 0, 51, 85
2, 44592, Note_on_c, 0, 51, 0
2, 44592, Note_on_c, 0, 63, 0
2, 44640, Note_on_c, 0, 60, 94
2, 44640, Note_on_c, 0, 44, 94
2, 44832, Note_on_c, 0, 44, 0
2, 44832, Note_on_c, 0, 60, 0
2, 44880, Note_on_c, 0, 63, 94
2, 44880, Note_on_c, 0, 56, 94
2, 44976, Note_on_c, 0, 63, 0
2, 45000, Note_on_c, 0, 63, 94
2, 45072, Note_on_c, 0, 56, 0
2, 45096, Note_on_c, 0, 63, 0
2, 45120, Note_on_c, 0, 63, 94
2, 45120, Note_on_c, 0, 51, 94
2, 45312, Note_on_c, 0, 51, 0
2, 45312, Note_on_c, 0, 63, 0
2, 45360, Note_on_c, 0, 60, 105
2, 45360, Note_on_c, 0, 68, 105
2, 45360, Note_on_c, 0, 44, 105
2, 45552, Note_on_c, 0, 44, 0
2, 45552, Note_on_c, 0, 68, 0
2, 45552, Note_on_c, 0, 60, 0
2, 45600, Note_on_c, 0, 63, 105
2, 45600, Note_on_c, 0, 56, 105
2, 45792, Note_on_c, 0, 56, 0
2, 45792, Note_on_c, 0, 63, 0
2, 45840, Note_on_c, 0, 72, 105
2, 45840, Note_on_c, 0, 51, 105
2, 46032, Note_on_c, 0, 51, 0
2, 46032, Note_on_c, 0, 72, 0
2, 46080, Note_on_c, 0, 61, 116
2, 46080, Note_on_c, 0, 70, 116
2, 46080, Note_on_c, 0, 44, 116
2, 46272, Note_on_c, 0, 44, 0
2, 46272, Note_on_c, 0, 70, 0
2, 46272, Note_on_c, 0, 61, 0
2, 46320, Note_on_c, 0, 63, 116
2, 46320, Note_on_c, 0, 55, 116
2, 46512, Note_on_c, 0, 55, 0
2, 46512, Note_on_c, 0, 63, 0
2, 46560, Note_on_c, 0, 75, 116
2, 46560, Note_on_c, 0, 51, 116
2, 46752, Note_on_c, 0, 51, 0
2, 46752, Note_on_c, 0, 75, 0
2, 46800, Note_on_c, 0, 75, 127
2, 46800, Note_on_c, 0, 72, 127
2, 46800, Note_on_c, 0, 63, 127
2, 46800, Note_on_c, 0, 44, 116
2, 46992, Note_on_c, 0, 44, 0
2, 47040, Note_on_c, 0, 56, 116
2, 47184, Note_on_c, 0, 63, 0
2, 47184, Note_on_c, 0, 72, 0
2, 47184, Note_on_c, 0, 75, 0
2, 47232, Note_on_c, 0, 56, 0
2, 47280, Note_on_c, 0, 63, 116
2, 47280, Note_on_c, 0, 51, 116
2, 47472, Note_on_c, 0, 51, 0
2, 47472, Note_on_c, 0, 63, 0
2, 47520, Note_on_c, 0, 60, 72
2, 47520, Note_on_c, 0, 44, 72
2, 47712, Note_on_c, 0, 44, 0
2, 47712, Note_on_c, 0, 60, 0
2, 47760, Note_on_c, 0, 65, 72
2, 47760, Note_on_c, 0, 56, 72
2, 47952, Note_on_c, 0, 56, 0
2, 47952, Note_on_c, 0, 65, 0
2, 48000, Note_on_c, 0, 63, 72
2, 48000, Note_on_c, 0, 51, 72
2, 48192, Note_on_c, 0, 51, 0
2, 48192, Note_on_c, 0, 63, 0
2, 48240, Note_on_c, 0, 60, 72
2, 48240, Note_on_c, 0, 44, 72
2, 48432, Note_on_c, 0, 44, 0
2, 48432, Note_on_c, 0, 60, 0
2, 48480, Note_on_c, 0, 63, 72
2, 48480, Note_on_c, 0, 56, 72
2, 48576, Note_on_c, 0, 63, 0
2, 48600, Note_on_c, 0, 63, 72
2, 48672, Note_on_c, 0, 56, 0
2, 48696, Note_on_c, 0, 63, 0
2, 48720, Note_on_c, 0, 63, 72
2, 48720, Note_on_c, 0, 51, 72
2, 48912, Note_on_c, 0, 51, 0
2, 48912, Note_on_c, 0, 63, 0
2, 48960, Note_on_c, 0, 60, 85
2, 48960, Note_on_c, 0, 44, 85
2, 49152, Note_on_c, 0, 44, 0
2, 49152, Note_on_c, 0, 60, 0
2, 49200, Note_on_c, 0, 65, 85
2, 49200, Note_on_c, 0, 56, 85
2, 49392, Note_on_c, 0, 56, 0
2, 49392, Note_on_c, 0, 65, 0
2, 49440, Note_on_c, 0, 63, 85
2, 49440, Note_on_c, 0, 51, 85
2, 49632, Note_on_c, 0, 51, 0
2, 49632, Note_on_c, 0, 63, 0
2, 49680, Note_on_c, 0, 60, 85
2, 49680, Note_on_c, 0, 44, 85
2, 49872, Note_on_c, 0, 44, 0
2, 49872, Note_on_c, 0, 60, 0
2, 49920, Note_on_c, 0, 63, 85
2, 49920, Note_on_c, 0, 56, 85
2, 50016, Note_on_c, 0, 63, 0
2, 50040, Note_on_c, 0, 63, 85
2, 50112, Note_on_c, 0, 56, 0
2, 50136, Note_on_c, 0, 63, 0
2, 50160, Note_on_c, 0, 63, 85
2, 50160, Note_on_c, 0, 51, 85
2, 50352, Note_on_c, 0, 51, 0
2, 50352, Note_on_c, 0, 63, 0
2, 50400, Note_on_c, 0, 60, 85
2, 50400, Note_on_c, 0, 44, 85
2, 50592, Note_on_c, 0, 44, 0
2, 50592, Note_on_c, 0, 60, 0
2, 50640, Note_on_c, 0, 63, 90
2, 50640, Note_on_c, 0, 56, 90
2, 50736, Note_on_c, 0, 63, 0
2, 50760, Note_on_c, 0, 63, 92
2, 50832, Note_on_c, 0, 56, 0
2, 50856, Note_on_c, 0, 63, 0
2, 50880, Note_on_c, 0, 63, 95
2, 50880, Note_on_c, 0, 51, 95
2, 51072, Note_on_c, 0, 51, 0
2, 51072, Note_on_c, 0, 63, 0
2, 51120, Note_on_c, 0, 68, 100
2, 51120, Note_on_c, 0, 60, 100
2, 51120, Note_on_c, 0, 44, 100
2, 51312, Note_on_c, 0, 44, 0
2, 51312, Note_on_c, 0, 60, 0
2, 51312, Note_on_c, 0, 68, 0
2, 51360, Note_on_c, 0, 63, 106
2, 51360, Note_on_c, 0, 56, 106
2, 51552, Note_on_c, 0, 56, 0
2, 51552, Note_on_c, 0, 63, 0
2, 51600, Note_on_c, 0, 72, 111
2, 51600, Note_on_c, 0, 51, 111
2, 51792, Note_on_c, 0, 51, 0
2, 51792, Note_on_c, 0, 72, 0
2, 51840, Note_on_c, 0, 61, 94
2, 51840, Note_on_c, 0, 70, 94
2, 51840, Note_on_c, 0, 44, 94
2, 52032, Note_on_c, 0, 44, 0
2, 52032, Note_on_c, 0, 70, 0
2, 52032, Note_on_c, 0, 61, 0
2, 52080, Note_on_c, 0, 63, 89
2, 52080, Note_on_c, 0, 56, 89
2, 52272, Note_on_c, 0, 56, 0
2, 52272, Note_on_c, 0, 63, 0
2, 52320, Note_on_c, 0, 72, 83
2, 52320, Note_on_c, 0, 51, 83
2, 52512, Note_on_c, 0, 51, 0
2, 52512, Note_on_c, 0, 72, 0
2, 52560, Note_on_c, 0, 61, 78
2, 52560, Note_on_c, 0, 70, 78
2, 52560, Note_on_c, 0, 44, 78
2, 52752, Note_on_c, 0, 44, 0
2, 52752, Note_on_c, 0, 70, 0
2, 52752, Note_on_c, 0, 61, 0
2, 52800, Note_on_c, 0, 63, 72
2, 52800, Note_on_c, 0, 56, 72
2, 52992, Note_on_c, 0, 56, 0
2, 52992, Note_on_c, 0, 63, 0
2, 53040, Note_on_c, 0, 72, 67
2, 53040, Note_on_c, 0, 51, 66
2, 53232, Note_on_c, 0, 51, 0
2, 53232, Note_on_c, 0, 72, 0
2, 53280, Note_on_c, 0, 60, 85
2, 53280, Note_on_c, 0, 68, 85
2, 53280, Note_on_c, 0, 44, 85
2, 53472, Note_on_c, 0, 44, 0
2, 53472, Note_on_c, 0, 68, 0
2, 53472, Note_on_c, 0, 60, 0
2, 53520, Note_on_c, 0, 63, 85
2, 53520, Note_on_c, 0, 56, 85
2, 53712, Note_on_c, 0, 56, 0
2, 53712, Note_on_c, 0, 63, 0
2, 53760, Note_on_c, 0, 72, 85
2, 53760, Note_on_c, 0, 51, 85
2, 53952, Note_on_c, 0, 51, 0
2, 53952, Note_on_c, 0, 72, 0
2, 54000, Note_on_c, 0, 68, 85
2, 54000, Note_on_c, 0, 61, 85
2, 54000, Note_on_c, 0, 49, 85
2, 54192, Note_on_c, 0, 49, 0
2, 54192, Note_on_c, 0, 61, 0
2, 54192, Note_on_c, 0, 68, 0
2, 54240, Note_on_c, 0, 65, 85
2, 54240, Note_on_c, 0, 56, 85
2, 54432, Note_on_c, 0, 56, 0
2, 54432, Note_on_c, 0, 65, 0
2, 54480, Note_on_c, 0, 73, 85
2, 54480, Note_on_c, 0, 53, 85
2, 54672, Note_on_c, 0, 53, 0
2, 54672, Note_on_c, 0, 73, 0
2, 54720, Note_on_c, 0, 61, 94
2, 54720, Note_on_c, 0, 70, 94
2, 54720, Note_on_c, 0, 46, 94
2, 54912, Note_on_c, 0, 46, 0
2, 54912, Note_on_c, 0, 70, 0
2, 54912, Note_on_c, 0, 61, 0
2, 54960, Note_on_c, 0, 65, 94
2, 54960, Note_on_c, 0, 58, 94
2, 55152, Note_on_c, 0, 58, 0
2, 55152, Note_on_c, 0, 65, 0
2, 55200, Note_on_c, 0, 73, 94
2, 55200, Note_on_c, 0, 53, 94
2, 55392, Note_on_c, 0, 53, 0
2, 55392, Note_on_c, 0, 73, 0
2, 55440, Note_on_c, 0, 70, 94
2, 55440, Note_on_c, 0, 63, 94
2, 55440, Note_on_c, 0, 51, 94
2, 55632, Note_on_c, 0, 51, 0
2, 55632, Note_on_c, 0, 63, 0
2, 55632, Note_on_c, 0, 70, 0
2, 55680, Note_on_c, 0, 67, 94
2, 55680, Note_on_c, 0, 58, 94
2, 55872, Note_on_c, 0, 58, 0
2, 55872, Note_on_c, 0, 67, 0
2, 55920, Note_on_c, 0, 75, 94
2, 55920, Note_on_c, 0, 55, 94
2, 56112, Note_on_c, 0, 55, 0
2, 56112, Note_on_c, 0, 75, 0
2, 56160, Note_on_c, 0, 63, 105
2, 56160, Note_on_c, 0, 72, 105
2, 56160, Note_on_c, 0, 48, 105
2, 56352, Note_on_c, 0, 48, 0
2, 56352, Note_on_c, 0, 72, 0
2, 56352, Note_on_c, 0, 63, 0
2, 56400, Note_on_c, 0, 67, 105
2, 56400, Note_on_c, 0, 60, 105
2, 56592, Note_on_c, 0, 60, 0
2, 56592, Note_on_c, 0, 67, 0
2, 56640, Note_on_c, 0, 75, 105
2, 56640, Note_on_c, 0, 55, 105
2, 56832, Note_on_c, 0, 55, 0
2, 56832, Note_on_c, 0, 75, 0
2, 56880, Note_on_c, 0, 72, 116
2, 56880, Note_on_c, 0, 65, 116
2, 56880, Note_on_c, 0, 53, 116
2, 57072, Note_on_c, 0, 53, 0
2, 57072, Note_on_c, 0, 65, 0
2, 57072, Note_on_c, 0, 72, 0
2, 57120, Note_on_c, 0, 68, 116
2, 57120, Note_on_c, 0, 60, 116
2, 57312, Note_on_c, 0, 60, 0
2, 57312, Note_on_c, 0, 68, 0
2, 57360, Note_on_c, 0, 77, 116
2, 57360, Note_on_c, 0, 56, 116
2, 57552, Note_on_c, 0, 56, 0
2, 57552, Note_on_c, 0, 77, 0
2, 57600, Note_on_c, 0, 64, 116
2, 57600, Note_on_c, 0, 76, 116
2, 57600, Note_on_c, 0, 68, 116
2, 57600, Note_on_c, 0, 70, 116
2, 57600, Note_on_c, 0, 56, 116
2, 57600, Note_on_c, 0, 52, 116
2, 57600, Note_on_c, 0, 61, 116
2, 57600, Note_on_c, 0, 46, 116
2, 58176, Note_on_c, 0, 46, 0
2, 58176, Note_on_c, 0, 61, 0
2, 58176, Note_on_c, 0, 52, 0
2, 58176, Note_on_c, 0, 56, 0
2, 58176, Note_on_c, 0, 70, 0
2, 58176, Note_on_c, 0, 68, 0
2, 58176, Note_on_c, 0, 76, 0
2, 58176, Note_on_c, 0, 64, 0
2, 59040, Note_on_c, 0, 51, 72
2, 59280, Note_on_c, 0, 70, 72
2, 59280, Note_on_c, 0, 75, 72
2, 59280, Note_on_c, 0, 67, 72
2, 59424, Note_on_c, 0, 51, 0
2, 59472, Note_on_c, 0, 67, 0
2, 59472, Note_on_c, 0, 75, 0
2, 59472, Note_on_c, 0, 70, 0
2, 59520, Note_on_c, 0, 63, 72
2, 59712, Note_on_c, 0, 63, 0
2, 59760, Note_on_c, 0, 56, 72
2, 60000, Note_on_c, 0, 68, 72
2, 60000, Note_on_c, 0, 66, 72
2, 60000, Note_on_c, 0, 72, 72
2, 60144, Note_on_c, 0, 56, 0
2, 60192, Note_on_c, 0, 72, 0
2, 60192, Note_on_c, 0, 66, 0
2, 60192, Note_on_c, 0, 68, 0
2, 60240, Note_on_c, 0, 63, 72
2, 60432, Note_on_c, 0, 63, 0
2, 60480, Note_on_c, 0, 49, 72
2, 60720, Note_on_c, 0, 68, 72
2, 60720, Note_on_c, 0, 73, 72
2, 60720, Note_on_c, 0, 65, 72
2, 60864, Note_on_c, 0, 49, 0
2, 60912, Note_on_c, 0, 65, 0
2, 60912, Note_on_c, 0, 73, 0
2, 60912, Note_on_c, 0, 68, 0
2, 60960, Note_on_c, 0, 61, 72
2, 61152, Note_on_c, 0, 61, 0
2, 61200, Note_on_c, 0, 49, 85
2, 61440, Note_on_c, 0, 70, 85
2, 61440, Note_on_c, 0, 64, 85
2, 61440, Note_on_c, 0, 73, 85
2, 61584, Note_on_c, 0, 49, 0
2, 61632, Note_on_c, 0, 73, 0
2, 61632, Note_on_c, 0, 64, 0
2, 61632, Note_on_c, 0, 70, 0
2, 61680, Note_on_c, 0, 61, 85
2, 61872, Note_on_c, 0, 61, 0
2, 61920, Note_on_c, 0, 51, 94
2, 62160, Note_on_c, 0, 63, 94
2, 62160, Note_on_c, 0, 72, 94
2, 62160, Note_on_c, 0, 68, 94
2, 62304, Note_on_c, 0, 51, 0
2, 62352, Note_on_c, 0, 68, 0
2, 62352, Note_on_c, 0, 72, 0
2, 62352, Note_on_c, 0, 63, 0
2, 62400, Note_on_c, 0, 60, 94
2, 62592, Note_on_c, 0, 60, 0
2, 62640, Note_on_c, 0, 51, 105
2, 62880, Note_on_c, 0, 63, 105
2, 62880, Note_on_c, 0, 67, 105
2, 62880, Note_on_c, 0, 70, 105
2, 63024, Note_on_c, 0, 51, 0
2, 63072, Note_on_c, 0, 70, 0
2, 63072, Note_on_c, 0, 67, 0
2, 63072, Note_on_c, 0, 63, 0
2, 63120, Note_on_c, 0, 58, 105
2, 63312, Note_on_c, 0, 58, 0
2, 63360, Note_on_c, 0, 38, 105
2, 63360, Note_on_c, 0, 50, 105
2, 63552, Note_on_c, 0, 50, 0
2, 63552, Note_on_c, 0, 38, 0
2, 63600, Note_on_c, 0, 68, 105
2, 63600, Note_on_c, 0, 65, 105
2, 63600, Note_on_c, 0, 70, 105
2, 63600, Note_on_c, 0, 58, 105
2, 63600, Note_on_c, 0, 50, 105
2, 63792, Note_on_c, 0, 50, 0
2, 63792, Note_on_c, 0, 58, 0
2, 63792, Note_on_c, 0, 70, 0
2, 63792, Note_on_c, 0, 65, 0
2, 63792, Note_on_c, 0, 68, 0
2, 63840, Note_on_c, 0, 70, 105
2, 63840, Note_on_c, 0, 68, 105
2, 63840, Note_on_c, 0, 65, 105
2, 63840, Note_on_c, 0, 58, 105
2, 63840, Note_on_c, 0, 50, 105
2, 64032, Note_on_c, 0, 50, 0
2, 64032, Note_on_c, 0, 58, 0
2, 64032, Note_on_c, 0, 65, 0
2, 64032, Note_on_c, 0, 68, 0
2, 64032, Note_on_c, 0, 70, 0
2, 64080, Note_on_c, 0, 70, 105
2, 64080, Note_on_c, 0, 65, 105
2, 64080, Note_on_c, 0, 68, 105
2, 64080, Note_on_c, 0, 58, 105
2, 64080, Note_on_c, 0, 50, 105
2, 64272, Note_on_c, 0, 50, 0
2, 64272, Note_on_c, 0, 58, 0
2, 64272, Note_on_c, 0, 68, 0
2, 64272, Note_on_c, 0, 65, 0
2, 64272, Note_on_c, 0, 70, 0
2, 64320, Note_on_c, 0, 68, 94
2, 64320, Note_on_c, 0, 65, 94
2, 64320, Note_on_c, 0, 70, 94
2, 64320, Note_on_c, 0, 50, 94
2, 64320, Note_on_c, 0, 58, 94
2, 64512, Note_on_c, 0, 58, 0
2, 64512, Note_on_c, 0, 50, 0
2, 64512, Note_on_c, 0, 70, 0
2, 64512, Note_on_c, 0, 65, 0
2, 64512, Note_on_c, 0, 68, 0
2, 64560, Note_on_c, 0, 65, 94
2, 64560, Note_on_c, 0, 68, 94
2, 64560, Note_on_c, 0, 70, 94
2, 64560, Note_on_c, 0, 58, 94
2, 64560, Note_on_c, 0, 50, 94
2, 64752, Note_on_c, 0, 50, 0
2, 64752, Note_on_c, 0, 58, 0
2, 64752, Note_on_c, 0, 70, 0
2, 64752, Note_on_c, 0, 68, 0
2, 64752, Note_on_c, 0, 65, 0
2, 64800, Note_on_c, 0, 51, 72
2, 65040, Note_on_c, 0, 63, 72
2, 65040, Note_on_c, 0, 67, 72
2, 65040, Note_on_c, 0, 70, 72
2, 65184, Note_on_c, 0, 51, 0
2, 65232, Note_on_c, 0, 70, 0
2, 65232, Note_on_c, 0, 67, 0
2, 65232, Note_on_c, 0, 63, 0
2, 65280, Note_on_c, 0, 61, 72
2, 65472, Note_on_c, 0, 61, 0
2, 65520, Note_on_c, 0, 44, 72
2, 65760, Note_on_c, 0, 72, 72
2, 65760, Note_on_c, 0, 68, 72
2, 65760, Note_on_c, 0, 66, 72
2, 65904, Note_on_c, 0, 44, 0
2, 65952, Note_on_c, 0, 66, 0
2, 65952, Note_on_c, 0, 68, 0
2, 65952, Note_on_c, 0, 72, 0
2, 66000, Note_on_c, 0, 63, 72
2, 66192, Note_on_c, 0, 63, 0
2, 66240, Note_on_c, 0, 49, 72
2, 66480, Note_on_c, 0, 65, 72
2, 66480, Note_on_c, 0, 68, 72
2, 66480, Note_on_c, 0, 73, 72
2, 66672, Note_on_c, 0, 73, 0
2, 66672, Note_on_c, 0, 68, 0
2, 66672, Note_on_c, 0, 65, 0
2, 66720, Note_on_c, 0, 61, 72
2, 66816, Note_on_c, 0, 49, 0
2, 66912, Note_on_c, 0, 61, 0
2, 66960, Note_on_c, 0, 49, 85
2, 67200, Note_on_c, 0, 73, 85
2, 67200, Note_on_c, 0, 64, 85
2, 67200, Note_on_c, 0, 68, 85
2, 67392, Note_on_c, 0, 68, 0
2, 67392, Note_on_c, 0, 64, 0
2, 67392, Note_on_c, 0, 73, 0
2, 67440, Note_on_c, 0, 61, 85
2, 67536, Note_on_c, 0, 49, 0
2, 67632, Note_on_c, 0, 61, 0
2, 67680, Note_on_c, 0, 51, 94
2, 67920, Note_on_c, 0, 63, 94
2, 67920, Note_on_c, 0, 72, 94
2, 67920, Note_on_c, 0, 68, 94
2, 68112, Note_on_c, 0, 68, 0
2, 68112, Note_on_c, 0, 72, 0
2, 68112, Note_on_c, 0, 63, 0
2, 68160, Note_on_c, 0, 60, 94
2, 68256, Note_on_c, 0, 51, 0
2, 68352, Note_on_c, 0, 60, 0
2, 68400, Note_on_c, 0, 51, 94
2, 68640, Note_on_c, 0, 63, 94
2, 68640, Note_on_c, 0, 67, 94
2, 68640, Note_on_c, 0, 72, 94
2, 68832, Note_on_c, 0, 72, 0
2, 68832, Note_on_c, 0, 67, 0
2, 68832, Note_on_c, 0, 63, 0
2, 68880, Note_on_c, 0, 61, 94
2, 68976, Note_on_c, 0, 51, 0
2, 69072, Note_on_c, 0, 61, 0
2, 69120, Note_on_c, 0, 68, 105
2, 69120, Note_on_c, 0, 60, 105
2, 69120, Note_on_c, 0, 63, 105
2, 69120, Note_on_c, 0, 51, 105
2, 69312, Note_on_c, 0, 51, 0
2, 69312, Note_on_c, 0, 63, 0
2, 69312, Note_on_c, 0, 60, 0
2, 69312, Note_on_c, 0, 68, 0
2, 69360, Note_on_c, 0, 63, 105
2, 69360, Note_on_c, 0, 68, 105
2, 69360, Note_on_c, 0, 60, 105
2, 69360, Note_on_c, 0, 51, 105
2, 69552, Note_on_c, 0, 51, 0
2, 69552, Note_on_c, 0, 60, 0
2, 69552, Note_on_c, 0, 68, 0
2, 69552, Note_on_c, 0, 63, 0
2, 69600, Note_on_c, 0, 68, 105
2, 69600, Note_on_c, 0, 63, 105
2, 69600, Note_on_c, 0, 60, 105
2, 69600, Note_on_c, 0, 51, 105
2, 69792, Note_on_c, 0, 51, 0
2, 69792, Note_on_c, 0, 60, 0
2, 69792, Note_on_c, 0, 63, 0
2, 69792, Note_on_c, 0, 68, 0
2, 69840, Note_on_c, 0, 63, 116
2, 69840, Note_on_c, 0, 60, 116
2, 69840, Note_on_c, 0, 69, 116
2, 69840, Note_on_c, 0, 66, 116
2, 69840, Note_on_c, 0, 51, 105
2, 70032, Note_on_c, 0, 51, 0
2, 70032, Note_on_c, 0, 66, 0
2, 70032, Note_on_c, 0, 69, 0
2, 70032, Note_on_c, 0, 60, 0
2, 70032, Note_on_c, 0, 63, 0
2, 70080, Note_on_c, 0, 69, 116
2, 70080, Note_on_c, 0, 63, 116
2, 70080, Note_on_c, 0, 60, 116
2, 70080, Note_on_c, 0, 66, 116
2, 70080, Note_on_c, 0, 51, 116
2, 70272, Note_on_c, 0, 51, 0
2, 70272, Note_on_c, 0, 66, 0
2, 70272, Note_on_c, 0, 60, 0
2, 70272, Note_on_c, 0, 63, 0
2, 70272, Note_on_c, 0, 69, 0
2, 70320, Note_on_c, 0, 66, 116
2, 70320, Note_on_c, 0, 60, 116
2, 70320, Note_on_c, 0, 69, 116
2, 70320, Note_on_c, 0, 63, 116
2, 70320, Note_on_c, 0, 51, 116
2, 70512, Note_on_c, 0, 51, 0
2, 70512, Note_on_c, 0, 63, 0
2, 70512, Note_on_c, 0, 69, 0
2, 70512, Note_on_c, 0, 60, 0
2, 70512, Note_on_c, 0, 66, 0
2, 70560, Note_on_c, 0, 70, 116
2, 70560, Note_on_c, 0, 67, 116
2, 70560, Note_on_c, 0, 63, 116
2, 70560, Note_on_c, 0, 61, 116
2, 70560, Note_on_c, 0, 51, 116
2, 70560, Note_on_c, 0, 39, 116
2, 70752, Note_on_c, 0, 39, 0
2, 70752, Note_on_c, 0, 51, 0
2, 70752, Note_on_c, 0, 61, 0
2, 70752, Note_on_c, 0, 63, 0
2, 70752, Note_on_c, 0, 67, 0
2, 70752, Note_on_c, 0, 70, 0
2, 70800, Note_on_c, 0, 67, 116
2, 70800, Note_on_c, 0, 61, 116
2, 70800, Note_on_c, 0, 70, 116
2, 70800, Note_on_c, 0, 63, 116
2, 70800, Note_on_c, 0, 39, 116
2, 70800, Note_on_c, 0, 51, 116
2, 70992, Note_on_c, 0, 51, 0
2, 70992, Note_on_c, 0, 39, 0
2, 70992, Note_on_c, 0, 63, 0
2, 70992, Note_on_c, 0, 70, 0
2, 70992, Note_on_c, 0, 61, 0
2, 70992, Note_on_c, 0, 67, 0
2, 71040, Note_on_c, 0, 70, 116
2, 71040, Note_on_c, 0, 63, 116
2, 71040, Note_on_c, 0, 67, 116
2, 71040, Note_on_c, 0, 61, 116
2, 71040, Note_on_c, 0, 51, 116
2, 71040, Note_on_c, 0, 39, 105
2, 71232, Note_on_c, 0, 39, 0
2, 71232, Note_on_c, 0, 51, 0
2, 71232, Note_on_c, 0, 61, 0
2, 71232, Note_on_c, 0, 67, 0
2, 71232, Note_on_c, 0, 63, 0
2, 71232, Note_on_c, 0, 70, 0
2, 71280, Note_on_c, 0, 61, 105
2, 71280, Note_on_c, 0, 63, 105
2, 71280, Note_on_c, 0, 70, 105
2, 71280, Note_on_c, 0, 67, 105
2, 71280, Note_on_c, 0, 51, 105
2, 71280, Note_on_c, 0, 39, 105
2, 71472, Note_on_c, 0, 39, 0
2, 71472, Note_on_c, 0, 51, 0
2, 71472, Note_on_c, 0, 67, 0
2, 71472, Note_on_c, 0, 70, 0
2, 71472, Note_on_c, 0, 63, 0
2, 71472, Note_on_c, 0, 61, 0
2, 71520, Note_on_c, 0, 70, 105
2, 71520, Note_on_c, 0, 67, 94
2, 71520, Note_on_c, 0, 63, 94
2, 71520, Note_on_c, 0, 61, 94
2, 71520, Note_on_c, 0, 51, 105
2, 71520, Note_on_c, 0, 39, 94
2, 71712, Note_on_c, 0, 39, 0
2, 71712, Note_on_c, 0, 51, 0
2, 71712, Note_on_c, 0, 61, 0
2, 71712, Note_on_c, 0, 63, 0
2, 71712, Note_on_c, 0, 67, 0
2, 71712, Note_on_c, 0, 70, 0
2, 71760, Note_on_c, 0, 70, 94
2, 71760, Note_on_c, 0, 61, 94
2, 71760, Note_on_c, 0, 63, 94
2, 71760, Note_on_c, 0, 67, 94
2, 71760, Note_on_c, 0, 51, 94
2, 71760, Note_on_c, 0, 39, 94
2, 71952, Note_on_c, 0, 39, 0
2, 71952, Note_on_c, 0, 51, 0
2, 71952, Note_on_c, 0, 67, 0
2, 71952, Note_on_c, 0, 63, 0
2, 71952, Note_on_c, 0, 61, 0
2, 71952, Note_on_c, 0, 70, 0
2, 72000, Note_on_c, 0, 60, 105
2, 72000, Note_on_c, 0, 68, 105
2, 72000, Note_on_c, 0, 44, 105
2, 72192, Note_on_c, 0, 44, 0
2, 72240, Note_on_c, 0, 56, 105
2, 72384, Note_on_c, 0, 68, 0
2, 72384, Note_on_c, 0, 60, 0
2, 72432, Note_on_c, 0, 56, 0
2, 72480, Note_on_c, 0, 63, 105
2, 72480, Note_on_c, 0, 51, 105
2, 72672, Note_on_c, 0, 51, 0
2, 72672, Note_on_c, 0, 63, 0
2, 72720, Note_on_c, 0, 60, 72
2, 72720, Note_on_c, 0, 44, 72
2, 72912, Note_on_c, 0, 44, 0
2, 72912, Note_on_c, 0, 60, 0
2, 72960, Note_on_c, 0, 63, 72
2, 72960, Note_on_c, 0, 56, 72
2, 73056, Note_on_c, 0, 63, 0
2, 73080, Note_on_c, 0, 63, 72
2, 73152, Note_on_c, 0, 56, 0
2, 73176, Note_on_c, 0, 63, 0
2, 73200, Note_on_c, 0, 63, 72
2, 73200, Note_on_c, 0, 51, 72
2, 73392, Note_on_c, 0, 51, 0
2, 73392, Note_on_c, 0, 63, 0
2, 73440, Note_on_c, 0, 60, 72
2, 73440, Note_on_c, 0, 44, 72
2, 73632, Note_on_c, 0, 44, 0
2, 73632, Note_on_c, 0, 60, 0
2, 73680, Note_on_c, 0, 65, 72
2, 73680, Note_on_c, 0, 56, 72
2, 73872, Note_on_c, 0, 56, 0
2, 73872, Note_on_c, 0, 65, 0
2, 73920, Note_on_c, 0, 63, 72
2, 73920, Note_on_c, 0, 51, 72
2, 74112, Note_on_c, 0, 51, 0
2, 74112, Note_on_c, 0, 63, 0
2, 74160, Note_on_c, 0, 60, 85
2, 74160, Note_on_c, 0, 44, 85
2, 74352, Note_on_c, 0, 44, 0
2, 74352, Note_on_c, 0, 60, 0
2, 74400, Note_on_c, 0, 63, 85
2, 74400, Note_on_c, 0, 56, 85
2, 74496, Note_on_c, 0, 63, 0
2, 74520, Note_on_c, 0, 63, 85
2, 74592, Note_on_c, 0, 56, 0
2, 74616, Note_on_c, 0, 63, 0
2, 74640, Note_on_c, 0, 63, 85
2, 74640, Note_on_c, 0, 51, 85
2, 74832, Note_on_c, 0, 51, 0
2, 74832, Note_on_c, 0, 63, 0
2, 74880, Note_on_c, 0, 60, 94
2, 74880, Note_on_c, 0, 44, 94
2, 75072, Note_on_c, 0, 44, 0
2, 75072, Note_on_c, 0, 60, 0
2, 75120, Note_on_c, 0, 63, 94
2, 75120, Note_on_c, 0, 56, 94
2, 75216, Note_on_c, 0, 63, 0
2, 75240, Note_on_c, 0, 63, 94
2, 75312, Note_on_c, 0, 56, 0
2, 75336, Note_on_c, 0, 63, 0
2, 75360, Note_on_c, 0, 63, 94
2, 75360, Note_on_c, 0, 51, 94
2, 75552, Note_on_c, 0, 51, 0
2, 75552, Note_on_c, 0, 63, 0
2, 75600, Note_on_c, 0, 60, 105
2, 75600, Note_on_c, 0, 68, 105
2, 75600, Note_on_c, 0, 44, 105
2, 75792, Note_on_c, 0, 44, 0
2, 75792, Note_on_c, 0, 68, 0
2, 75792, Note_on_c, 0, 60, 0
2, 75840, Note_on_c, 0, 63, 105
2, 75840, Note_on_c, 0, 56, 105
2, 76032, Note_on_c, 0, 56, 0
2, 76032, Note_on_c, 0, 63, 0
2, 76080, Note_on_c, 0, 72, 105
2, 76080, Note_on_c, 0, 51, 105
2, 76272, Note_on_c, 0, 51, 0
2, 76272, Note_on_c, 0, 72, 0
2, 76320, Note_on_c, 0, 61, 116
2, 76320, Note_on_c, 0, 70, 116
2, 76320, Note_on_c, 0, 44, 116
2, 76512, Note_on_c, 0, 44, 0
2, 76512, Note_on_c, 0, 70, 0
2, 76512, Note_on_c, 0, 61, 0
2, 76560, Note_on_c, 0, 63, 116
2, 76560, Note_on_c, 0, 55, 116
2, 76752, Note_on_c, 0, 55, 0
2, 76752, Note_on_c, 0, 63, 0
2, 76800, Note_on_c, 0, 75, 116
2, 76800, Note_on_c, 0, 51, 116
2, 76992, Note_on_c, 0, 51, 0
2, 76992, Note_on_c, 0, 75, 0
2, 77040, Note_on_c, 0, 75, 127
2, 77040, Note_on_c, 0, 72, 127
2, 77040, Note_on_c, 0, 63, 127
2, 77040, Note_on_c, 0, 44, 116
2, 77232, Note_on_c, 0, 44, 0
2, 77280, Note_on_c, 0, 56, 116
2, 77424, Note_on_c, 0, 63, 0
2, 77424, Note_on_c, 0, 72, 0
2, 77424, Note_on_c, 0, 75, 0
2, 77472, Note_on_c, 0, 56, 0
2, 77520, Note_on_c, 0, 63, 116
2, 77520, Note_on_c, 0, 51, 116
2, 77712, Note_on_c, 0, 51, 0
2, 77712, Note_on_c, 0, 63, 0
2, 77760, Note_on_c, 0, 60, 72
2, 77760, Note_on_c, 0, 44, 72
2, 77952, Note_on_c, 0, 44, 0
2, 77952, Note_on_c, 0, 60, 0
2, 78000, Note_on_c, 0, 65, 72
2, 78000, Note_on_c, 0, 56, 72
2, 78192, Note_on_c, 0, 56, 0
2, 78192, Note_on_c, 0, 65, 0
2, 78240, Note_on_c, 0, 63, 72
2, 78240, Note_on_c, 0, 51, 72
2, 78432, Note_on_c, 0, 51, 0
2, 78432, Note_on_c, 0, 63, 0
2, 78480, Note_on_c, 0, 60, 72
2, 78480, Note_on_c, 0, 44, 72
2, 78672, Note_on_c, 0, 44, 0
2, 78672, Note_on_c, 0, 60, 0
2, 78720, Note_on_c, 0, 63, 72
2, 78720, Note_on_c, 0, 56, 72
2, 78816, Note_on_c, 0, 63, 0
2, 78840, Note_on_c, 0, 63, 72
2, 78912, Note_on_c, 0, 56, 0
2, 78936, Note_on_c, 0, 63, 0
2, 78960, Note_on_c, 0, 63, 72
2, 78960, Note_on_c, 0, 51, 72
2, 79152, Note_on_c, 0, 51, 0
2, 79152, Note_on_c, 0, 63, 0
2, 79200, Note_on_c, 0, 60, 85
2, 79200, Note_on_c, 0, 44, 85
2, 79392, Note_on_c, 0, 44, 0
2, 79392, Note_on_c, 0, 60, 0
2, 79440, Note_on_c, 0, 65, 85
2, 79440, Note_on_c, 0, 56, 85
2, 79632, Note_on_c, 0, 56, 0
2, 79632, Note_on_c, 0, 65, 0
2, 79680, Note_on_c, 0, 63, 85
2, 79680, Note_on_c, 0, 51, 85
2, 79872, Note_on_c, 0, 51, 0
2, 79872, Note_on_c, 0, 63, 0
2, 79920, Note_on_c, 0, 60, 85
2, 79920, Note_on_c, 0, 44, 85
2, 80112, Note_on_c, 0, 44, 0
2, 80112, Note_on_c, 0, 60, 0
2, 80160, Note_on_c, 0, 63, 85
2, 80160, Note_on_c, 0, 56, 85
2, 80256, Note_on_c, 0, 63, 0
2, 80280, Note_on_c, 0, 63, 85
2, 80352, Note_on_c, 0, 56, 0
2, 80376, Note_on_c, 0, 63, 0
2, 80400, Note_on_c, 0, 63, 85
2, 80400, Note_on_c, 0, 51, 85
2, 80592, Note_on_c, 0, 51, 0
2, 80592, Note_on_c, 0, 63, 0
2, 80640, Note_on_c, 0, 60, 85
2, 80640, Note_on_c, 0, 44, 85
2, 80832, Note_on_c, 0, 44, 0
2, 80832, Note_on_c, 0, 60, 0
2, 80880, Note_on_c, 0, 63, 90
2, 80880, Note_on_c, 0, 56, 90
2, 80976, Note_on_c, 0, 63, 0
2, 81000, Note_on_c, 0, 63, 92
2, 81072, Note_on_c, 0, 56, 0
2, 81096, Note_on_c, 0, 63, 0
2, 81120, Note_on_c, 0, 63, 95
2, 81120, Note_on_c, 0, 51, 95
2, 81312, Note_on_c, 0, 51, 0
2, 81312, Note_on_c, 0, 63, 0
2, 81360, Note_on_c, 0, 68, 100
2, 81360, Note_on_c, 0, 60, 100
2, 81360, Note_on_c, 0, 44, 100
2, 81552, Note_on_c, 0, 44, 0
2, 81552, Note_on_c, 0, 60, 0
2, 81552, Note_on_c, 0, 68, 0
2, 81600, Note_on_c, 0, 63, 106
2, 81600, Note_on_c, 0, 56, 106
2, 81792, Note_on_c, 0, 56, 0
2, 81792, Note_on_c, 0, 63, 0
2, 81840, Note_on_c, 0, 72, 111
2, 81840, Note_on_c, 0, 51, 111
2, 82032, Note_on_c, 0, 51, 0
2, 82032, Note_on_c, 0, 72, 0
2, 82080, Note_on_c, 0, 61, 94
2, 82080, Note_on_c, 0, 70, 94
2, 82080, Note_on_c, 0, 44, 94
2, 82272, Note_on_c, 0, 44, 0
2, 82272, Note_on_c, 0, 70, 0
2, 82272, Note_on_c, 0, 61, 0
2, 82320, Note_on_c, 0, 63, 89
2, 82320, Note_on_c, 0, 56, 89
2, 82512, Note_on_c, 0, 56, 0
2, 82512, Note_on_c, 0, 63, 0
2, 82560, Note_on_c, 0, 72, 83
2, 82560, Note_on_c, 0, 51, 83
2, 82752, Note_on_c, 0, 51, 0
2, 82752, Note_on_c, 0, 72, 0
2, 82800, Note_on_c, 0, 61, 78
2, 82800, Note_on_c, 0, 70, 78
2, 82800, Note_on_c, 0, 44, 78
2, 82992, Note_on_c, 0, 44, 0
2, 82992, Note_on_c, 0, 70, 0
2, 82992, Note_on_c, 0, 61, 0
2, 83040, Note_on_c, 0, 63, 72
2, 83040, Note_on_c, 0, 56, 72
2, 83232, Note_on_c, 0, 56, 0
2, 83232, Note_on_c, 0, 63, 0
2, 83280, Note_on_c, 0, 72, 67
2, 83280, Note_on_c, 0, 51, 66
2, 83472, Note_on_c, 0, 51, 0
2, 83472, Note_on_c, 0, 72, 0
2, 83520, Note_on_c, 0, 60, 85
2, 83520, Note_on_c, 0, 68, 85
2, 83520, Note_on_c, 0, 44, 85
2, 83712, Note_on_c, 0, 44, 0
2, 83712, Note_on_c, 0, 68, 0
2, 83712, Note_on_c, 0, 60, 0
2, 83760, Note_on_c, 0, 63, 85
2, 83760, Note_on_c, 0, 56, 85
2, 83952, Note_on_c, 0, 56, 0
2, 83952, Note_on_c, 0, 63, 0
2, 84000, Note_on_c, 0, 72, 85
2, 84000, Note_on_c, 0, 51, 85
2, 84192, Note_on_c, 0, 51, 0
2, 84192, Note_on_c, 0, 72, 0
2, 84240, Note_on_c, 0, 68, 85
2, 84240, Note_on_c, 0, 61, 85
2, 84240, Note_on_c, 0, 49, 85
2, 84432, Note_on_c, 0, 49, 0
2, 84432, Note_on_c, 0, 61, 0
2, 84432, Note_on_c, 0, 68, 0
2, 84480, Note_on_c, 0, 65, 85
2, 84480, Note_on_c, 0, 56, 85
2, 84672, Note_on_c, 0, 56, 0
2, 84672, Note_on_c, 0, 65, 0
2, 84720, Note_on_c, 0, 73, 85
2, 84720, Note_on_c, 0, 53, 85
2, 84912, Note_on_c, 0, 53, 0
2, 84912, Note_on_c, 0, 73, 0
2, 84960, Note_on_c, 0, 61, 94
2, 84960, Note_on_c, 0, 70, 94
2, 84960, Note_on_c, 0, 46, 94
2, 85152, Note_on_c, 0, 46, 0
2, 85152, Note_on_c, 0, 70, 0
2, 85152, Note_on_c, 0, 61, 0
2, 85200, Note_on_c, 0, 65, 94
2, 85200, Note_on_c, 0, 58, 94
2, 85392, Note_on_c, 0, 58, 0
2, 85392, Note_on_c, 0, 65, 0
2, 85440, Note_on_c, 0, 73, 94
2, 85440, Note_on_c, 0, 53, 94
2, 85632, Note_on_c, 0, 53, 0
2, 85632, Note_on_c, 0, 73, 0
2, 85680, Note_on_c, 0, 70, 94
2, 85680, Note_on_c, 0, 63, 94
2, 85680, Note_on_c, 0, 51, 94
2, 85872, Note_on_c, 0, 51, 0
2, 85872, Note_on_c, 0, 63, 0
2, 85872, Note_on_c, 0, 70, 0
2, 85920, Note_on_c, 0, 67, 94
2, 85920, Note_on_c, 0, 58, 94
2, 86112, Note_on_c, 0, 58, 0
2, 86112, Note_on_c, 0, 67, 0
2, 86160, Note_on_c, 0, 75, 94
2, 86160, Note_on_c, 0, 55, 94
2, 86352, Note_on_c, 0, 55, 0
2, 86352, Note_on_c, 0, 75, 0
2, 86400, Note_on_c, 0, 63, 105
2, 86400, Note_on_c, 0, 72, 105
2, 86400, Note_on_c, 0, 48, 105
2, 86592, Note_on_c, 0, 48, 0
2, 86592, Note_on_c, 0, 72, 0
2, 86592, Note_on_c, 0, 63, 0
2, 86640, Note_on_c, 0, 67, 105
2, 86640, Note_on_c, 0, 60, 105
2, 86832, Note_on_c, 0, 60, 0
2, 86832, Note_on_c, 0, 67, 0
2, 86880, Note_on_c, 0, 75, 105
2, 86880, Note_on_c, 0, 55, 105
2, 87072, Note_on_c, 0, 55, 0
2, 87072, Note_on_c, 0, 75, 0
2, 87120, Note_on_c, 0, 72, 116
2, 87120, Note_on_c, 0, 65, 116
2, 87120, Note_on_c, 0, 53, 116
2, 87312, Note_on_c, 0, 53, 0
2, 87312, Note_on_c, 0, 65, 0
2, 87312, Note_on_c, 0, 72, 0
2, 87360, Note_on_c, 0, 68, 116
2, 87360, Note_on_c, 0, 60, 116
2, 87552, Note_on_c, 0, 60, 0
2, 87552, Note_on_c, 0, 68, 0
2, 87600, Note_on_c, 0, 77, 116
2, 87600, Note_on_c, 0, 56, 116
2, 87792, Note_on_c, 0, 56, 0
2, 87792, Note_on_c, 0, 77, 0
2, 87840, Note_on_c, 0, 64, 116
2, 87840, Note_on_c, 0, 76, 116
2, 87840, Note_on_c, 0, 68, 116
2, 87840, Note_on_c, 0, 70, 116
2, 87840, Note_on_c, 0, 56, 116
2, 87840, Note_on_c, 0, 52, 116
2, 87840, Note_on_c, 0, 61, 116
2, 87840, Note_on_c, 0, 46, 116
2, 88416, Note_on_c, 0, 46, 0
2, 88416, Note_on_c, 0, 61, 0
2, 88416, Note_on_c, 0, 52, 0
2, 88416, Note_on_c, 0, 56, 0
2, 88416, Note_on_c, 0, 70, 0
2, 88416, Note_on_c, 0, 68, 0
2, 88416, Note_on_c, 0, 76, 0
2, 88416, Note_on_c, 0, 64, 0
2, 89280, Note_on_c, 0, 51, 72
2, 89520, Note_on_c, 0, 70, 72
2, 89520, Note_on_c, 0, 75, 72
2, 89520, Note_on_c, 0, 67, 72
2, 89664, Note_on_c, 0, 51, 0
2, 89712, Note_on_c, 0, 67, 0
2, 89712, Note_on_c, 0, 75, 0
2, 89712, Note_on_c, 0, 70, 0
2, 89760, Note_on_c, 0, 63, 72
2, 89952, Note_on_c, 0, 63, 0
2, 90000, Note_on_c, 0, 56, 72
2, 90240, Note_on_c, 0, 68, 72
2, 90240, Note_on_c, 0, 66, 72
2, 90240, Note_on_c, 0, 72, 72
2, 90384, Note_on_c, 0, 56, 0
2, 90432, Note_on_c, 0, 72, 0
2, 90432, Note_on_c, 0, 66, 0
2, 90432, Note_on_c, 0, 68, 0
2, 90480, Note_on_c, 0, 63, 72
2, 90672, Note_on_c, 0, 63, 0
2, 90720, Note_on_c, 0, 49, 72
2, 90960, Note_on_c, 0, 68, 72
2, 90960, Note_on_c, 0, 73, 72
2, 90960, Note_on_c, 0, 65, 72
2, 91104, Note_on_c, 0, 49, 0
2, 91152, Note_on_c, 0, 65, 0
2, 91152, Note_on_c, 0, 73, 0
2, 91152, Note_on_c, 0, 68, 0
2, 91200, Note_on_c, 0, 61, 72
2, 91392, Note_on_c, 0, 61, 0
2, 91440, Note_on_c, 0, 49, 85
2, 91680, Note_on_c, 0, 70, 85
2, 91680, Note_on_c, 0, 64, 85
2, 91680, Note_on_c, 0, 73, 85
2, 91824, Note_on_c, 0, 49, 0
2, 91872, Note_on_c, 0, 73, 0
2, 91872, Note_on_c, 0, 64, 0
2, 91872, Note_on_c, 0, 70, 0
2, 91920, Note_on_c, 0, 61, 85
2, 92112, Note_on_c, 0, 61, 0
2, 92160, Note_on_c, 0, 51, 94
2, 92400, Note_on_c, 0, 63, 94
2, 92400, Note_on_c, 0, 72, 94
2, 92400, Note_on_c, 0, 68, 94
2, 92544, Note_on_c, 0, 51, 0
2, 92592, Note_on_c, 0, 68, 0
2, 92592, Note_on_c, 0, 72, 0
2, 92592, Note_on_c, 0, 63, 0
2, 92640, Note_on_c, 0, 60, 94
2, 92832, Note_on_c, 0, 60, 0
2, 92880, Note_on_c, 0, 51, 105
2, 93120, Note_on_c, 0, 63, 105
2, 93120, Note_on_c, 0, 67, 105
2, 93120, Note_on_c, 0, 70, 105
2, 93264, Note_on_c, 0, 51, 0
2, 93312, Note_on_c, 0, 70, 0
2, 93312, Note_on_c, 0, 67, 0
2, 93312, Note_on_c, 0, 63, 0
2, 93360, Note_on_c, 0, 58, 105
2, 93552, Note_on_c, 0, 58, 0
2, 93600, Note_on_c, 0, 38, 105
2, 93600, Note_on_c, 0, 50, 105
2, 93792, Note_on_c, 0, 50, 0
2, 93792, Note_on_c, 0, 38, 0
2, 93840, Note_on_c, 0, 68, 105
2, 93840, Note_on_c, 0, 65, 105
2, 93840, Note_on_c, 0, 70, 105
2, 93840, Note_on_c, 0, 58, 105
2, 93840, Note_on_c, 0, 50, 105
2, 94032, Note_on_c, 0, 50, 0
2, 94032, Note_on_c, 0, 58, 0
2, 94032, Note_on_c, 0, 70, 0
2, 94032, Note_on_c, 0, 65, 0
2, 94032, Note_on_c, 0, 68, 0
2, 94080, Note_on_c, 0, 70, 105
2, 94080, Note_on_c, 0, 68, 105
2, 94080, Note_on_c, 0, 65, 105
2, 94080, Note_on_c, 0, 58, 105
2, 94080, Note_on_c, 0, 50, 105
2, 94272, Note_on_c, 0, 50, 0
2, 94272, Note_on_c, 0, 58, 0
2, 94272, Note_on_c, 0, 65, 0
2, 94272, Note_on_c, 0, 68, 0
2, 94272, Note_on_c, 0, 70, 0
2, 94320, Note_on_c, 0, 70, 105
2, 94320, Note_on_c, 0, 65, 105
2, 94320, Note_on_c, 0, 68, 105
2, 94320, Note_on_c, 0, 58, 105
2, 94320, Note_on_c, 0, 50, 105
2, 94512, Note_on_c, 0, 50, 0
2, 94512, Note_on_c, 0, 58, 0
2, 94512, Note_on_c, 0, 68, 0
2, 94512, Note_on_c, 0, 65, 0
2, 94512, Note_on_c, 0, 70, 0
2, 94560, Note_on_c, 0, 68, 94
2, 94560, Note_on_c, 0, 65, 94
2, 94560, Note_on_c, 0, 70, 94
2, 94560, Note_on_c, 0, 50, 94
2, 94560, Note_on_c, 0, 58, 94
2, 94752, Note_on_c, 0, 58, 0
2, 94752, Note_on_c, 0, 50, 0
2, 94752, Note_on_c, 0, 70, 0
2, 94752, Note_on_c, 0, 65, 0
2, 94752, Note_on_c, 0, 68, 0
2, 94800, Note_on_c, 0, 65, 94
2, 94800, Note_on_c, 0, 68, 94
2, 94800, Note_on_c, 0, 70, 94
2, 94800, Note_on_c, 0, 58, 94
2, 94800, Note_on_c, 0, 50, 94
2, 94992, Note_on_c, 0, 50, 0
2, 94992, Note_on_c, 0, 58, 0
2, 94992, Note_on_c, 0, 70, 0
2, 94992, Note_on_c, 0, 68, 0
2, 94992, Note_on_c, 0, 65, 0
2, 95040, Note_on_c, 0, 51, 72
2, 95280, Note_on_c, 0, 63, 72
2, 95280, Note_on_c, 0, 67, 72
2, 95280, Note_on_c, 0, 70, 72
2, 95424, Note_on_c, 0, 51, 0
2, 95472, Note_on_c, 0, 70, 0
2, 95472, Note_on_c, 0, 67, 0
2, 95472, Note_on_c, 0, 63, 0
2, 95520, Note_on_c, 0, 61, 72
2, 95712, Note_on_c, 0, 61, 0
2, 95760, Note_on_c, 0, 44, 72
2, 96000, Note_on_c, 0, 72, 72
2, 96000, Note_on_c, 0, 68, 72
2, 96000, Note_on_c, 0, 66, 72
2, 96144, Note_on_c, 0, 44, 0
2, 96192, Note_on_c, 0, 66, 0
2, 96192, Note_on_c, 0, 68, 0
2, 96192, Note_on_c, 0, 72, 0
2, 96240, Note_on_c, 0, 63, 72
2, 96432, Note_on_c, 0, 63, 0
2, 96480, Note_on_c, 0, 49, 72
2, 96720, Note_on_c, 0, 65, 72
2, 96720, Note_on_c, 0, 68, 72
2, 96720, Note_on_c, 0, 73, 72
2, 96912, Note_on_c, 0, 73, 0
2, 96912, Note_on_c, 0, 68, 0
2, 96912, Note_on_c, 0, 65, 0
2, 96960, Note_on_c, 0, 61, 72
2, 97056, Note_on_c, 0, 49, 0
2, 97152, Note_on_c, 0, 61, 0
2, 97200, Note_on_c, 0, 49, 85
2, 97440, Note_on_c, 0, 73, 85
2, 97440, Note_on_c, 0, 64, 85
2, 97440, Note_on_c, 0, 68, 85
2, 97632, Note_on_c, 0, 68, 0
2, 97632, Note_on_c, 0, 64, 0
2, 97632, Note_on_c, 0, 73, 0
2, 97680, Note_on_c, 0, 61, 85
2, 97776, Note_on_c, 0, 49, 0
2, 97872, Note_on_c, 0, 61, 0
2, 97920, Note_on_c, 0, 51, 94
2, 98160, Note_on_c, 0, 63, 94
2, 98160, Note_on_c, 0, 72, 94
2, 98160, Note_on_c, 0, 68, 94
2, 98352, Note_on_c, 0, 68, 0
2, 98352, Note_on_c, 0, 72, 0
2, 98352, Note_on_c, 0, 63, 0
2, 98400, Note_on_c, 0, 60, 94
2, 98496, Note_on_c, 0, 51, 0
2, 98592, Note_on_c, 0, 60, 0
2, 98640, Note_on_c, 0, 51, 94
2, 98880, Note_on_c, 0, 63, 94
2, 98880, Note_on_c, 0, 67, 94
2, 98880, Note_on_c, 0, 72, 94
2, 99072, Note_on_c, 0, 72, 0
2, 99072, Note_on_c, 0, 67, 0
2, 99072, Note_on_c, 0, 63, 0
2, 99120, Note_on_c, 0, 61, 94
2, 99216, Note_on_c, 0, 51, 0
2, 99312, Note_on_c, 0, 61, 0
2, 99360, Note_on_c, 0, 68, 105
2, 99360, Note_on_c, 0, 60, 105
2, 99360, Note_on_c, 0, 63, 105
2, 99360, Note_on_c, 0, 51, 105
2, 99552, Note_on_c, 0, 51, 0
2, 99552, Note_on_c, 0, 63, 0
2, 99552, Note_on_c, 0, 60, 0
2, 99552, Note_on_c, 0, 68, 0
2, 99600, Note_on_c, 0, 63, 105
2, 99600, Note_on_c, 0, 68, 105
2, 99600, Note_on_c, 0, 60, 105
2, 99600, Note_on_c, 0, 51, 105
2, 99792, Note_on_c, 0, 51, 0
2, 99792, Note_on_c, 0, 60, 0
2, 99792, Note_on_c, 0, 68, 0
2, 99792, Note_on_c, 0, 63, 0
2, 99840, Note_on_c, 0, 68, 105
2, 99840, Note_on_c, 0, 63, 105
2, 99840, Note_on_c, 0, 60, 105
2, 99840, Note_on_c, 0, 51, 105
2, 100032, Note_on_c, 0, 51, 0
2, 100032, Note_on_c, 0, 60, 0
2, 100032, Note_on_c, 0, 63, 0
2, 100032, Note_on_c, 0, 68, 0
2, 100080, Note_on_c, 0, 63, 116
2, 100080, Note_on_c, 0, 60, 116
2, 100080, Note_on_c, 0, 69, 116
2, 100080, Note_on_c, 0, 66, 116
2, 100080, Note_on_c, 0, 51, 105
2, 100272, Note_on_c, 0, 51, 0
2, 100272, Note_on_c, 0, 66, 0
2, 100272, Note_on_c, 0, 69, 0
2, 100272, Note_on_c, 0, 60, 0
2, 100272, Note_on_c, 0, 63, 0
2, 100320, Note_on_c, 0, 69, 116
2, 100320, Note_on_c, 0, 63, 116
2, 100320, Note_on_c, 0, 60, 116
2, 100320, Note_on_c, 0, 66, 116
2, 100320, Note_on_c, 0, 51, 116
2, 100512, Note_on_c, 0, 51, 0
2, 100512, Note_on_c, 0, 66, 0
2, 100512, Note_on_c, 0, 60, 0
2, 100512, Note_on_c, 0, 63, 0
2, 100512, Note_on_c, 0, 69, 0
2, 100560, Note_on_c, 0, 66, 116
2, 100560, Note_on_c, 0, 60, 116
2, 100560, Note_on_c, 0, 69, 116
2, 100560, Note_on_c, 0, 63, 116
2, 100560, Note_on_c, 0, 51, 116
2, 100752, Note_on_c, 0, 51, 0
2, 100752, Note_on_c, 0, 63, 0
2, 100752, Note_on_c, 0, 69, 0
2, 100752, Note_on_c, 0, 60, 0
2, 100752, Note_on_c, 0, 66, 0
2, 100800, Note_on_c, 0, 70, 116
2, 100800, Note_on_c, 0, 67, 116
2, 100800, Note_on_c, 0, 63, 116
2, 100800, Note_on_c, 0, 61, 116
2, 100800, Note_on_c, 0, 51, 116
2, 100800, Note_on_c, 0, 39, 116
2, 100992, Note_on_c, 0, 39, 0
2, 100992, Note_on_c, 0, 51, 0
2, 100992, Note_on_c, 0, 61, 0
2, 100992, Note_on_c, 0, 63, 0
2, 100992, Note_on_c, 0, 67, 0
2, 100992, Note_on_c, 0, 70, 0
2, 101040, Note_on_c, 0, 67, 116
2, 101040, Note_on_c, 0, 61, 116
2, 101040, Note_on_c, 0, 70, 116
2, 101040, Note_on_c, 0, 63, 116
2, 101040, Note_on_c, 0, 39, 116
2, 101040, Note_on_c, 0, 51, 116
2, 101232, Note_on_c, 0, 51, 0
2, 101232, Note_on_c, 0, 39, 0
2, 101232, Note_on_c, 0, 63, 0
2, 101232, Note_on_c, 0, 70, 0
2, 101232, Note_on_c, 0, 61, 0
2, 101232, Note_on_c, 0, 67, 0
2, 101280, Note_on_c, 0, 70, 116
2, 101280, Note_on_c, 0, 63, 116
2, 101280, Note_on_c, 0, 67, 116
2, 101280, Note_on_c, 0, 61, 116
2, 101280, Note_on_c, 0, 51, 116
2, 101280, Note_on_c, 0, 39, 105
2, 101472, Note_on_c, 0, 39, 0
2, 101472, Note_on_c, 0, 51, 0
2, 101472, Note_on_c, 0, 61, 0
2, 101472, Note_on_c, 0, 67, 0
2, 101472, Note_on_c, 0, 63, 0
2, 101472, Note_on_c, 0, 70, 0
2, 101520, Note_on_c, 0, 61, 105
2, 101520, Note_on_c, 0, 63, 105
2, 101520, Note_on_c, 0, 70, 105
2, 101520, Note_on_c, 0, 67, 105
2, 101520, Note_on_c, 0, 51, 105
2, 101520, Note_on_c, 0, 39, 105
2, 101712, Note_on_c, 0, 39, 0
2, 101712, Note_on_c, 0, 51, 0
2, 101712, Note_on_c, 0, 67, 0
2, 101712, Note_on_c, 0, 70, 0
2, 101712, Note_on_c, 0, 63, 0
2, 101712, Note_on_c, 0, 61, 0
2, 101760, Note_on_c, 0, 70, 105
2, 101760, Note_on_c, 0, 67, 94
2, 101760, Note_on_c, 0, 63, 94
2, 101760, Note_on_c, 0, 61, 94
2, 101760, Note_on_c, 0, 51, 105
2, 101760, Note_on_c, 0, 39, 94
2, 101952, Note_on_c, 0, 39, 0
2, 101952, Note_on_c, 0, 51, 0
2, 101952, Note_on_c, 0, 61, 0
2, 101952, Note_on_c, 0, 63, 0
2, 101952, Note_on_c, 0, 67, 0
2, 101952, Note_on_c, 0, 70, 0
2, 102000, Note_on_c, 0, 70, 94
2, 102000, Note_on_c, 0, 61, 94
2, 102000, Note_on_c, 0, 63, 94
2, 102000, Note_on_c, 0, 67, 94
2, 102000, Note_on_c, 0, 51, 94
2, 102000, Note_on_c, 0, 39, 94
2, 102192, Note_on_c, 0, 39, 0
2, 102192, Note_on_c, 0, 51, 0
2, 102192, Note_on_c, 0, 67, 0
2, 102192, Note_on_c, 0, 63, 0
2, 102192, Note_on_c, 0, 61, 0
2, 102192, Note_on_c, 0, 70, 0
2, 102240, Note_on_c, 0, 60, 105
2, 102240, Note_on_c, 0, 68, 105
2, 102240, Note_on_c, 0, 44, 105
2, 102432, Note_on_c, 0, 44, 0
2, 102480, Note_on_c, 0, 56, 105
2, 102624, Note_on_c, 0, 68, 0
2, 102624, Note_on_c, 0, 60, 0
2, 102672, Note_on_c, 0, 56, 0
2, 102720, Note_on_c, 0, 63, 105
2, 102720, Note_on_c, 0, 51, 105
2, 102912, Note_on_c, 0, 51, 0
2, 102912, Note_on_c, 0, 63, 0
2, 102960, Note_on_c, 0, 60, 72
2, 102960, Note_on_c, 0, 44, 72
2, 103152, Note_on_c, 0, 44, 0
2, 103152, Note_on_c, 0, 60, 0
2, 103200, Note_on_c, 0, 63, 72
2, 103200, Note_on_c, 0, 56, 72
2, 103296, Note_on_c, 0, 63, 0
2, 103320, Note_on_c, 0, 63, 72
2, 103392, Note_on_c, 0, 56, 0
2, 103416, Note_on_c, 0, 63, 0
2, 103440, Note_on_c, 0, 63, 72
2, 103440, Note_on_c, 0, 51, 72
2, 103632, Note_on_c, 0, 51, 0
2, 103632, Note_on_c, 0, 63, 0
2, 103680, Note_on_c, 0, 60, 72
2, 103680, Note_on_c, 0, 44, 72
2, 103872, Note_on_c, 0, 44, 0
2, 103872, Note_on_c, 0, 60, 0
2, 103920, Note_on_c, 0, 65, 72
2, 103920, Note_on_c, 0, 56, 72
2, 104112, Note_on_c, 0, 56, 0
2, 104112, Note_on_c, 0, 65, 0
2, 104160, Note_on_c, 0, 63, 72
2, 104160, Note_on_c, 0, 51, 72
2, 104352, Note_on_c, 0, 51, 0
2, 104352, Note_on_c, 0, 63, 0
2, 104400, Note_on_c, 0, 60, 85
2, 104400, Note_on_c, 0, 44, 85
2, 104592, Note_on_c, 0, 44, 0
2, 104592, Note_on_c, 0, 60, 0
2, 104640, Note_on_c, 0, 63, 85
2, 104640, Note_on_c, 0, 56, 85
2, 104736, Note_on_c, 0, 63, 0
2, 104760, Note_on_c, 0, 63, 85
2, 104832, Note_on_c, 0, 56, 0
2, 104856, Note_on_c, 0, 63, 0
2, 104880, Note_on_c, 0, 63, 85
2, 104880, Note_on_c, 0, 51, 85
2, 105072, Note_on_c, 0, 51, 0
2, 105072, Note_on_c, 0, 63, 0
2, 105120, Note_on_c, 0, 60, 94
2, 105120, Note_on_c, 0, 44, 94
2, 105312, Note_on_c, 0, 44, 0
2, 105312, Note_on_c, 0, 60, 0
2, 105360, Note_on_c, 0, 63, 94
2, 105360, Note_on_c, 0, 56, 94
2, 105456, Note_on_c, 0, 63, 0
2, 105480, Note_on_c, 0, 63, 94
2, 105552, Note_on_c, 0, 56, 0
2, 105576, Note_on_c, 0, 63, 0
2, 105600, Note_on_c, 0, 63, 94
2, 105600, Note_on_c, 0, 51, 94
2, 105792, Note_on_c, 0, 51, 0
2, 105792, Note_on_c, 0, 63, 0
2, 105840, Note_on_c, 0, 60, 105
2, 105840, Note_on_c, 0, 68, 105
2, 105840, Note_on_c, 0, 44, 105
2, 106032, Note_on_c, 0, 44, 0
2, 106032, Note_on_c, 0, 68, 0
2, 106032, Note_on_c, 0, 60, 0
2, 106080, Note_on_c, 0, 63, 105
2, 106080, Note_on_c, 0, 56, 105
2, 106272, Note_on_c, 0, 56, 0
2, 106272, Note_on_c, 0, 63, 0
2, 106320, Note_on_c, 0, 72, 105
2, 106320, Note_on_c, 0, 51, 105
2, 106512, Note_on_c, 0, 51, 0
2, 106512, Note_on_c, 0, 72, 0
2, 106560, Note_on_c, 0, 61, 116
2, 106560, Note_on_c, 0, 70, 116
2, 106560, Note_on_c, 0, 44, 116
2, 106752, Note_on_c, 0, 44, 0
2, 106752, Note_on_c, 0, 70, 0
2, 106752, Note_on_c, 0, 61, 0
2, 106800, Note_on_c, 0, 63, 116
2, 106800, Note_on_c, 0, 55, 116
2, 106992, Note_on_c, 0, 55, 0
2, 106992, Note_on_c, 0, 63, 0
2, 107040, Note_on_c, 0, 75, 116
2, 107040, Note_on_c, 0, 51, 116
2, 107232, Note_on_c, 0, 51, 0
2, 107232, Note_on_c, 0, 75, 0
2, 107280, Note_on_c, 0, 75, 127
2, 107280, Note_on_c, 0, 72, 127
2, 107280, Note_on_c, 0, 63, 127
2, 107280, Note_on_c, 0, 44, 116
2, 107472, Note_on_c, 0, 44, 0
2, 107520, Note_on_c, 0, 56, 116
2, 107664, Note_on_c, 0, 63, 0
2, 107664, Note_on_c, 0, 72, 0
2, 107664, Note_on_c, 0, 75, 0
2, 107712, Note_on_c, 0, 56, 0
2, 107760, Note_on_c, 0, 63, 116
2, 107760, Note_on_c, 0, 51, 116
2, 107952, Note_on_c, 0, 51, 0
2, 107952, Note_on_c, 0, 63, 0
2, 108000, Note_on_c, 0, 60, 72
2, 108000, Note_on_c, 0, 44, 72
2, 108192, Note_on_c, 0, 44, 0
2, 108192, Note_on_c, 0, 60, 0
2, 108240, Note_on_c, 0, 65, 72
2, 108240, Note_on_c, 0, 56, 72
2, 108432, Note_on_c, 0, 56, 0
2, 108432, Note_on_c, 0, 65, 0
2, 108480, Note_on_c, 0, 63, 72
2, 108480, Note_on_c, 0, 51, 72
2, 108672, Note_on_c, 0, 51, 0
2, 108672, Note_on_c, 0, 63, 0
2, 108720, Note_on_c, 0, 60, 72
2, 108720, Note_on_c, 0, 44, 72
2, 108912, Note_on_c, 0, 44, 0
2, 108912, Note_on_c, 0, 60, 0
2, 108960, Note_on_c, 0, 63, 72
2, 108960, Note_on_c, 0, 56, 72
2, 109056, Note_on_c, 0, 63, 0
2, 109080, Note_on_c, 0, 63, 72
2, 109152, Note_on_c, 0, 56, 0
2, 109176, Note_on_c, 0, 63, 0
2, 109200, Note_on_c, 0, 63, 72
2, 109200, Note_on_c, 0, 51, 72
2, 109392, Note_on_c, 0, 51, 0
2, 109392, Note_on_c, 0, 63, 0
2, 109440, Note_on_c, 0, 60, 85
2, 109440, Note_on_c, 0, 44, 85
2, 109632, Note_on_c, 0, 44, 0
2, 109632, Note_on_c, 0, 60, 0
2, 109680, Note_on_c, 0, 65, 85
2, 109680, Note_on_c, 0, 56, 85
2, 109872, Note_on_c, 0, 56, 0
2, 109872, Note_on_c, 0, 65, 0
2, 109920, Note_on_c, 0, 63, 85
2, 109920, Note_on_c, 0, 51, 85
2, 110112, Note_on_c, 0, 51, 0
2, 110112, Note_on_c, 0, 63, 0
2, 110160, Note_on_c, 0, 60, 85
2, 110160, Note_on_c, 0, 44, 85
2, 110352, Note_on_c, 0, 44, 0
2, 110352, Note_on_c, 0, 60, 0
2, 110400, Note_on_c, 0, 63, 85
2, 110400, Note_on_c, 0, 56, 85
2, 110496, Note_on_c, 0, 63, 0
2, 110520, Note_on_c, 0, 63, 85
2, 110592, Note_on_c, 0, 56, 0
2, 110616, Note_on_c, 0, 63, 0
2, 110640, Note_on_c, 0, 63, 85
2, 110640, Note_on_c, 0, 51, 85
2, 110832, Note_on_c, 0, 51, 0
2, 110832, Note_on_c, 0, 63, 0
2, 110880, Note_on_c, 0, 60, 85
2, 110880, Note_on_c, 0, 44, 85
2, 111072, Note_on_c, 0, 44, 0
2, 111072, Note_on_c, 0, 60, 0
2, 111120, Note_on_c, 0, 63, 90
2, 111120, Note_on_c, 0, 56, 90
2, 111216, Note_on_c, 0, 63, 0
2, 111240, Note_on_c, 0, 63, 92
2, 111312, Note_on_c, 0, 56, 0
2, 111336, Note_on_c, 0, 63, 0
2, 111360, Note_on_c, 0, 63, 95
2, 111360, Note_on_c, 0, 51, 95
2, 111552, Note_on_c, 0, 51, 0
2, 111552, Note_on_c, 0, 63, 0
2, 111600, Note_on_c, 0, 68, 100
2, 111600, Note_on_c, 0, 60, 100
2, 111600, Note_on_c, 0, 44, 100
2, 111792, Note_on_c, 0, 44, 0
2, 111792, Note_on_c, 0, 60, 0
2, 111792, Note_on_c, 0, 68, 0
2, 111840, Note_on_c, 0, 63, 106
2, 111840, Note_on_c, 0, 56, 106
2, 112032, Note_on_c, 0, 56, 0
2, 112032, Note_on_c, 0, 63, 0
2, 112080, Note_on_c, 0, 72, 111
2, 112080, Note_on_c, 0, 51, 111
2, 112272, Note_on_c, 0, 51, 0
2, 112272, Note_on_c, 0, 72, 0
2, 112320, Note_on_c, 0, 61, 94
2, 112320, Note_on_c, 0, 70, 94
2, 112320, Note_on_c, 0, 44, 94
2, 112512, Note_on_c, 0, 44, 0
2, 112512, Note_on_c, 0, 70, 0
2, 112512, Note_on_c, 0, 61, 0
2, 112560, Note_on_c, 0, 63, 89
2, 112560, Note_on_c, 0, 56, 89
2, 112752, Note_on_c, 0, 56, 0
2, 112752, Note_on_c, 0, 63, 0
2, 112800, Note_on_c, 0, 72, 83
2, 112800, Note_on_c, 0, 51, 83
2, 112992, Note_on_c, 0, 51, 0
2, 112992, Note_on_c, 0, 72, 0
2, 113040, Note_on_c, 0, 61, 78
2, 113040, Note_on_c, 0, 70, 78
2, 113040, Note_on_c, 0, 44, 78
2, 113232, Note_on_c, 0, 44, 0
2, 113232, Note_on_c, 0, 70, 0
2, 113232, Note_on_c, 0, 61, 0
2, 113280, Note_on_c, 0, 63, 72
2, 113280, Note_on_c, 0, 56, 72
2, 113472, Note_on_c, 0, 56, 0
2, 113472, Note_on_c, 0, 63, 0
2, 113520, Note_on_c, 0, 72, 67
2, 113520, Note_on_c, 0, 51, 66
2, 113712, Note_on_c, 0, 51, 0
2, 113712, Note_on_c, 0, 72, 0
2, 113760, Note_on_c, 0, 60, 72
2, 113760, Note_on_c, 0, 68, 72
2, 113760, Note_on_c, 0, 44, 72
2, 113952, Note_on_c, 0, 44, 0
2, 113952, Note_on_c, 0, 68, 0
2, 113952, Note_on_c, 0, 60, 0
2, 114000, Note_on_c, 0, 63, 72
2, 114000, Note_on_c, 0, 56, 72
2, 114192, Note_on_c, 0, 56, 0
2, 114192, Note_on_c, 0, 63, 0
2, 114240, Note_on_c, 0, 72, 72
2, 114240, Note_on_c, 0, 51, 72
2, 114432, Note_on_c, 0, 51, 0
2, 114432, Note_on_c, 0, 72, 0
2, 114480, Note_on_c, 0, 68, 72
2, 114480, Note_on_c, 0, 61, 72
2, 114480, Note_on_c, 0, 49, 72
2, 114672, Note_on_c, 0, 49, 0
2, 114672, Note_on_c, 0, 61, 0
2, 114672, Note_on_c, 0, 68, 0
2, 114720, Note_on_c, 0, 65, 72
2, 114720, Note_on_c, 0, 56, 72
2, 114912, Note_on_c, 0, 56, 0
2, 114912, Note_on_c, 0, 65, 0
2, 114960, Note_on_c, 0, 73, 72
2, 114960, Note_on_c, 0, 53, 72
2, 115152, Note_on_c, 0, 53, 0
2, 115152, Note_on_c, 0, 73, 0
2, 115200, Note_on_c, 0, 61, 72
2, 115200, Note_on_c, 0, 70, 72
2, 115200, Note_on_c, 0, 46, 72
2, 115392, Note_on_c, 0, 46, 0
2, 115392, Note_on_c, 0, 70, 0
2, 115392, Note_on_c, 0, 61, 0
2, 115440, Note_on_c, 0, 65, 72
2, 115440, Note_on_c, 0, 58, 72
2, 115632, Note_on_c, 0, 58, 0
2, 115632, Note_on_c, 0, 65, 0
2, 115680, Note_on_c, 0, 73, 72
2, 115680, Note_on_c, 0, 53, 72
2, 115872, Note_on_c, 0, 53, 0
2, 115872, Note_on_c, 0, 73, 0
2, 115920, Note_on_c, 0, 70, 85
2, 115920, Note_on_c, 0, 63, 85
2, 115920, Note_on_c, 0, 51, 85
2, 116112, Note_on_c, 0, 51, 0
2, 116112, Note_on_c, 0, 63, 0
2, 116112, Note_on_c, 0, 70, 0
2, 116160, Note_on_c, 0, 67, 85
2, 116160, Note_on_c, 0, 58, 85
2, 116352, Note_on_c, 0, 58, 0
2, 116352, Note_on_c, 0, 67, 0
2, 116400, Note_on_c, 0, 75, 85
2, 116400, Note_on_c, 0, 55, 85
2, 116592, Note_on_c, 0, 55, 0
2, 116592, Note_on_c, 0, 75, 0
2, 116640, Note_on_c, 0, 63, 94
2, 116640, Note_on_c, 0, 72, 94
2, 116640, Note_on_c, 0, 48, 94
2, 116832, Note_on_c, 0, 48, 0
2, 116832, Note_on_c, 0, 72, 0
2, 116832, Note_on_c, 0, 63, 0
2, 116880, Note_on_c, 0, 67, 94
2, 116880, Note_on_c, 0, 60, 94
2, 117072, Note_on_c, 0, 60, 0
2, 117072, Note_on_c, 0, 67, 0
2, 117120, Note_on_c, 0, 75, 94
2, 117120, Note_on_c, 0, 55, 94
2, 117312, Note_on_c, 0, 55, 0
2, 117312, Note_on_c, 0, 75, 0
2, 117360, Note_on_c, 0, 72, 105
2, 117360, Note_on_c, 0, 65, 105
2, 117360, Note_on_c, 0, 53, 105
2, 117552, Note_on_c, 0, 53, 0
2, 117552, Note_on_c, 0, 65, 0
2, 117552, Note_on_c, 0, 72, 0
2, 117600, Note_on_c, 0, 68, 105
2, 117600, Note_on_c, 0, 60, 105
2, 117792, Note_on_c, 0, 60, 0
2, 117792, Note_on_c, 0, 68, 0
2, 117840, Note_on_c, 0, 77, 105
2, 117840, Note_on_c, 0, 56, 105
2, 118032, Note_on_c, 0, 56, 0
2, 118032, Note_on_c, 0, 77, 0
2, 118080, Note_on_c, 0, 68, 116
2, 118080, Note_on_c, 0, 76, 116
2, 118080, Note_on_c, 0, 70, 116
2, 118080, Note_on_c, 0, 64, 116
2, 118080, Note_on_c, 0, 52, 116
2, 118080, Note_on_c, 0, 61, 116
2, 118080, Note_on_c, 0, 56, 116
2, 118080, Note_on_c, 0, 46, 116
2, 118656, Note_on_c, 0, 46, 0
2, 118656, Note_on_c, 0, 56, 0
2, 118656, Note_on_c, 0, 61, 0
2, 118656, Note_on_c, 0, 52, 0
2, 118656, Note_on_c, 0, 64, 0
2, 118656, Note_on_c, 0, 70, 0
2, 118656, Note_on_c, 0, 76, 0
2, 118656, Note_on_c, 0, 68, 0
2, 119520, Note_on_c, 0, 61, 105
2, 119520, Note_on_c, 0, 73, 105
2, 119520, Note_on_c, 0, 70, 105
2, 119520, Note_on_c, 0, 67, 105
2, 119520, Note_on_c, 0, 51, 105
2, 119520, Note_on_c, 0, 39, 105
2, 119904, Note_on_c, 0, 39, 0
2, 119904, Note_on_c, 0, 51, 0
2, 119904, Note_on_c, 0, 67, 0
2, 119904, Note_on_c, 0, 70, 0
2, 119904, Note_on_c, 0, 73, 0
2, 119904, Note_on_c, 0, 61, 0
2, 121680, Note_on_c, 0, 60, 105
2, 121680, Note_on_c, 0, 72, 105
2, 121680, Note_on_c, 0, 67, 105
2, 121680, Note_on_c, 0, 40, 105
2, 121680, Note_on_c, 0, 52, 105
2, 122064, Note_on_c, 0, 52, 0
2, 122064, Note_on_c, 0, 40, 0
2, 122064, Note_on_c, 0, 67, 0
2, 122064, Note_on_c, 0, 72, 0
2, 122064, Note_on_c, 0, 60, 0
2, 122400, Note_on_c, 0, 72, 116
2, 122400, Note_on_c, 0, 69, 116
2, 122400, Note_on_c, 0, 65, 116
2, 122400, Note_on_c, 0, 41, 116
2, 122592, Note_on_c, 0, 41, 0
2, 122592, Note_on_c, 0, 65, 0
2, 122592, Note_on_c, 0, 69, 0
2, 122592, Note_on_c, 0, 72, 0
2, 122640, Note_on_c, 0, 60, 116
2, 122640, Note_on_c, 0, 57, 116
2, 122832, Note_on_c, 0, 57, 0
2, 122832, Note_on_c, 0, 60, 0
2, 122880, Note_on_c, 0, 72, 116
2, 122880, Note_on_c, 0, 69, 116
2, 122880, Note_on_c, 0, 65, 116
2, 122880, Note_on_c, 0, 48, 116
2, 123072, Note_on_c, 0, 48, 0
2, 123072, Note_on_c, 0, 65, 0
2, 123072, Note_on_c, 0, 69, 0
2, 123072, Note_on_c, 0, 72, 0
2, 123120, Note_on_c, 0, 72, 116
2, 123120, Note_on_c, 0, 65, 116
2, 123120, Note_on_c, 0, 69, 116
2, 123120, Note_on_c, 0, 41, 116
2, 123312, Note_on_c, 0, 41, 0
2, 123312, Note_on_c, 0, 69, 0
2, 123312, Note_on_c, 0, 65, 0
2, 123312, Note_on_c, 0, 72, 0
2, 123360, Note_on_c, 0, 60, 116
2, 123360, Note_on_c, 0, 57, 116
2, 123552, Note_on_c, 0, 57, 0
2, 123552, Note_on_c, 0, 60, 0
2, 123600, Note_on_c, 0, 72, 116
2, 123600, Note_on_c, 0, 65, 116
2, 123600, Note_on_c, 0, 69, 116
2, 123600, Note_on_c, 0, 48, 116
2, 123792, Note_on_c, 0, 48, 0
2, 123792, Note_on_c, 0, 69, 0
2, 123792, Note_on_c, 0, 65, 0
2, 123792, Note_on_c, 0, 72, 0
2, 123840, Note_on_c, 0, 65, 116
2, 123840, Note_on_c, 0, 69, 116
2, 123840, Note_on_c, 0, 72, 116
2, 123840, Note_on_c, 0, 41, 116
2, 124032, Note_on_c, 0, 41, 0
2, 124032, Note_on_c, 0, 72, 0
2, 124032, Note_on_c, 0, 69, 0
2, 124032, Note_on_c, 0, 65, 0
2, 124080, Note_on_c, 0, 60, 116
2, 124080, Note_on_c, 0, 57, 116
2, 124272, Note_on_c, 0, 57, 0
2, 124272, Note_on_c, 0, 60, 0
2, 124320, Note_on_c, 0, 65, 116
2, 124320, Note_on_c, 0, 69, 116
2, 124320, Note_on_c, 0, 72, 116
2, 124320, Note_on_c, 0, 48, 116
2, 124512, Note_on_c, 0, 48, 0
2, 124512, Note_on_c, 0, 72, 0
2, 124512, Note_on_c, 0, 69, 0
2, 124512, Note_on_c, 0, 65, 0
2, 124560, Note_on_c, 0, 72, 116
2, 124560, Note_on_c, 0, 65, 116
2, 124560, Note_on_c, 0, 69, 116
2, 124560, Note_on_c, 0, 41, 116
2, 124752, Note_on_c, 0, 41, 0
2, 124752, Note_on_c, 0, 69, 0
2, 124752, Note_on_c, 0, 65, 0
2, 124752, Note_on_c, 0, 72, 0
2, 124800, Note_on_c, 0, 60, 116
2, 124800, Note_on_c, 0, 57, 116
2, 124992, Note_on_c, 0, 57, 0
2, 124992, Note_on_c, 0, 60, 0
2, 125040, Note_on_c, 0, 72, 116
2, 125040, Note_on_c, 0, 65, 116
2, 125040, Note_on_c, 0, 69, 116
2, 125040, Note_on_c, 0, 48, 116
2, 125232, Note_on_c, 0, 48, 0
2, 125232, Note_on_c, 0, 69, 0
2, 125232, Note_on_c, 0, 65, 0
2, 125232, Note_on_c, 0, 72, 0
2, 125280, Note_on_c, 0, 72, 116
2, 125280, Note_on_c, 0, 65, 116
2, 125280, Note_on_c, 0, 69, 116
2, 125280, Note_on_c, 0, 41, 116
2, 125472, Note_on_c, 0, 41, 0
2, 125472, Note_on_c, 0, 69, 0
2, 125472, Note_on_c, 0, 65, 0
2, 125472, Note_on_c, 0, 72, 0
2, 125520, Note_on_c, 0, 60, 116
2, 125520, Note_on_c, 0, 57, 116
2, 125712, Note_on_c, 0, 57, 0
2, 125712, Note_on_c, 0, 60, 0
2, 125760, Note_on_c, 0, 65, 116
2, 125760, Note_on_c, 0, 69, 116
2, 125760, Note_on_c, 0, 72, 116
2, 125760, Note_on_c, 0, 48, 116
2, 125952, Note_on_c, 0, 48, 0
2, 125952, Note_on_c, 0, 72, 0
2, 125952, Note_on_c, 0, 69, 0
2, 125952, Note_on_c, 0, 65, 0
2, 126000, Note_on_c, 0, 72, 116
2, 126000, Note_on_c, 0, 65, 116
2, 126000, Note_on_c, 0, 69, 116
2, 126000, Note_on_c, 0, 41, 116
2, 126192, Note_on_c, 0, 41, 0
2, 126192, Note_on_c, 0, 69, 0
2, 126192, Note_on_c, 0, 65, 0
2, 126192, Note_on_c, 0, 72, 0
2, 126240, Note_on_c, 0, 60, 116
2, 126240, Note_on_c, 0, 57, 116
2, 126432, Note_on_c, 0, 57, 0
2, 126432, Note_on_c, 0, 60, 0
2, 126480, Note_on_c, 0, 72, 116
2, 126480, Note_on_c, 0, 65, 116
2, 126480, Note_on_c, 0, 69, 116
2, 126480, Note_on_c, 0, 48, 116
2, 126672, Note_on_c, 0, 48, 0
2, 126672, Note_on_c, 0, 69, 0
2, 126672, Note_on_c, 0, 65, 0
2, 126672, Note_on_c, 0, 72, 0
2, 126720, Note_on_c, 0, 72, 116
2, 126720, Note_on_c, 0, 65, 116
2, 126720, Note_on_c, 0, 69, 116
2, 126720, Note_on_c, 0, 41, 116
2, 126912, Note_on_c, 0, 41, 0
2, 126912, Note_on_c, 0, 69, 0
2, 126912, Note_on_c, 0, 65, 0
2, 126912, Note_on_c, 0, 72, 0
2, 126960, Note_on_c, 0, 60, 116
2, 126960, Note_on_c, 0, 57, 116
2, 127152, Note_on_c, 0, 57, 0
2, 127152, Note_on_c, 0, 60, 0
2, 127200, Note_on_c, 0, 72, 116
2, 127200, Note_on_c, 0, 65, 116
2, 127200, Note_on_c, 0, 69, 116
2, 127200, Note_on_c, 0, 48, 116
2, 127392, Note_on_c, 0, 48, 0
2, 127392, Note_on_c, 0, 69, 0
2, 127392, Note_on_c, 0, 65, 0
2, 127392, Note_on_c, 0, 72, 0
2, 127440, Note_on_c, 0, 65, 116
2, 127440, Note_on_c, 0, 72, 116
2, 127440, Note_on_c, 0, 69, 116
2, 127440, Note_on_c, 0, 41, 116
2, 127632, Note_on_c, 0, 41, 0
2, 127632, Note_on_c, 0, 69, 0
2, 127632, Note_on_c, 0, 72, 0
2, 127632, Note_on_c, 0, 65, 0
2, 127680, Note_on_c, 0, 60, 116
2, 127680, Note_on_c, 0, 57, 116
2, 127872, Note_on_c, 0, 57, 0
2, 127872, Note_on_c, 0, 60, 0
2, 127920, Note_on_c, 0, 69, 116
2, 127920, Note_on_c, 0, 65, 116
2, 127920, Note_on_c, 0, 72, 116
2, 127920, Note_on_c, 0, 48, 116
2, 128112, Note_on_c, 0, 48, 0
2, 128112, Note_on_c, 0, 72, 0
2, 128112, Note_on_c, 0, 65, 0
2, 128112, Note_on_c, 0, 69, 0
2, 128160, Note_on_c, 0, 72, 116
2, 128160, Note_on_c, 0, 65, 116
2, 128160, Note_on_c, 0, 69, 116
2, 128160, Note_on_c, 0, 41, 116
2, 128352, Note_on_c, 0, 41, 0
2, 128352, Note_on_c, 0, 69, 0
2, 128352, Note_on_c, 0, 65, 0
2, 128352, Note_on_c, 0, 72, 0
2, 128400, Note_on_c, 0, 60, 116
2, 128400, Note_on_c, 0, 57, 116
2, 128592, Note_on_c, 0, 57, 0
2, 128592, Note_on_c, 0, 60, 0
2, 128640, Note_on_c, 0, 65, 116
2, 128640, Note_on_c, 0, 69, 116
2, 128640, Note_on_c, 0, 72, 116
2, 128640, Note_on_c, 0, 48, 116
2, 128832, Note_on_c, 0, 48, 0
2, 128832, Note_on_c, 0, 72, 0
2, 128832, Note_on_c, 0, 69, 0
2, 128832, Note_on_c, 0, 65, 0
2, 128880, Note_on_c, 0, 72, 116
2, 128880, Note_on_c, 0, 65, 116
2, 128880, Note_on_c, 0, 69, 116
2, 128880, Note_on_c, 0, 41, 116
2, 129072, Note_on_c, 0, 41, 0
2, 129072, Note_on_c, 0, 69, 0
2, 129072, Note_on_c, 0, 65, 0
2, 129072, Note_on_c, 0, 72, 0
2, 129120, Note_on_c, 0, 60, 116
2, 129120, Note_on_c, 0, 57, 116
2, 129312, Note_on_c, 0, 57, 0
2, 129312, Note_on_c, 0, 60, 0
2, 129360, Note_on_c, 0, 72, 116
2, 129360, Note_on_c, 0, 65, 116
2, 129360, Note_on_c, 0, 69, 116
2, 129360, Note_on_c, 0, 48, 116
2, 129552, Note_on_c, 0, 48, 0
2, 129552, Note_on_c, 0, 69, 0
2, 129552, Note_on_c, 0, 65, 0
2, 129552, Note_on_c, 0, 72, 0
2, 129600, Note_on_c, 0, 72, 116
2, 129600, Note_on_c, 0, 65, 116
2, 129600, Note_on_c, 0, 68, 116
2, 129600, Note_on_c, 0, 41, 116
2, 129792, Note_on_c, 0, 41, 0
2, 129792, Note_on_c, 0, 68, 0
2, 129792, Note_on_c, 0, 65, 0
2, 129792, Note_on_c, 0, 72, 0
2, 129840, Note_on_c, 0, 60, 116
2, 129840, Note_on_c, 0, 56, 116
2, 130032, Note_on_c, 0, 56, 0
2, 130032, Note_on_c, 0, 60, 0
2, 130080, Note_on_c, 0, 65, 116
2, 130080, Note_on_c, 0, 72, 116
2, 130080, Note_on_c, 0, 68, 116
2, 130080, Note_on_c, 0, 48, 116
2, 130272, Note_on_c, 0, 48, 0
2, 130272, Note_on_c, 0, 68, 0
2, 130272, Note_on_c, 0, 72, 0
2, 130272, Note_on_c, 0, 65, 0
2, 130320, Note_on_c, 0, 74, 124
2, 130320, Note_on_c, 0, 68, 124
2, 130320, Note_on_c, 0, 70, 124
2, 130320, Note_on_c, 0, 41, 124
2, 130512, Note_on_c, 0, 41, 0
2, 130512, Note_on_c, 0, 70, 0
2, 130512, Note_on_c, 0, 68, 0
2, 130512, Note_on_c, 0, 74, 0
2, 130560, Note_on_c, 0, 60, 124
2, 130560, Note_on_c, 0, 56, 124
2, 130752, Note_on_c, 0, 56, 0
2, 130752, Note_on_c, 0, 60, 0
2, 130800, Note_on_c, 0, 74, 124
2, 130800, Note_on_c, 0, 70, 124
2, 130800, Note_on_c, 0, 68, 124
2, 130800, Note_on_c, 0, 46, 124
2, 130992, Note_on_c, 0, 46, 0
2, 130992, Note_on_c, 0, 68, 0
2, 130992, Note_on_c, 0, 70, 0
2, 130992, Note_on_c, 0, 74, 0
2, 131040, Note_on_c, 0, 68, 116
2, 131040, Note_on_c, 0, 75, 116
2, 131040, Note_on_c, 0, 72, 116
2, 131040, Note_on_c, 0, 39, 116
2, 131232, Note_on_c, 0, 39, 0
2, 131232, Note_on_c, 0, 72, 0
2, 131232, Note_on_c, 0, 75, 0
2, 131232, Note_on_c, 0, 68, 0
2, 131280, Note_on_c, 0, 63, 116
2, 131280, Note_on_c, 0, 60, 116
2, 131472, Note_on_c, 0, 60, 0
2, 131472, Note_on_c, 0, 63, 0
2, 131520, Note_on_c, 0, 75, 116
2, 131520, Note_on_c, 0, 68, 116
2, 131520, Note_on_c, 0, 72, 116
2, 131520, Note_on_c, 0, 51, 116
2, 131712, Note_on_c, 0, 51, 0
2, 131712, Note_on_c, 0, 72, 0
2, 131712, Note_on_c, 0, 68, 0
2, 131712, Note_on_c, 0, 75, 0
2, 131760, Note_on_c, 0, 73, 116
2, 131760, Note_on_c, 0, 67, 116
2, 131760, Note_on_c, 0, 70, 116
2, 131760, Note_on_c, 0, 75, 116
2, 131760, Note_on_c, 0, 39, 116
2, 131952, Note_on_c, 0, 39, 0
2, 131952, Note_on_c, 0, 75, 0
2, 131952, Note_on_c, 0, 70, 0
2, 131952, Note_on_c, 0, 67, 0
2, 131952, Note_on_c, 0, 73, 0
2, 132000, Note_on_c, 0, 63, 116
2, 132000, Note_on_c, 0, 61, 116
2, 132192, Note_on_c, 0, 61, 0
2, 132192, Note_on_c, 0, 63, 0
2, 132240, Note_on_c, 0, 73, 116
2, 132240, Note_on_c, 0, 75, 116
2, 132240, Note_on_c, 0, 67, 116
2, 132240, Note_on_c, 0, 70, 116
2, 132240, Note_on_c, 0, 51, 116
2, 132432, Note_on_c, 0, 51, 0
2, 132432, Note_on_c, 0, 70, 0
2, 132432, Note_on_c, 0, 67, 0
2, 132432, Note_on_c, 0, 75, 0
2, 132432, Note_on_c, 0, 73, 0
2, 132480, Note_on_c, 0, 60, 116
2, 132480, Note_on_c, 0, 68, 116
2, 132480, Note_on_c, 0, 44, 116
2, 132672, Note_on_c, 0, 44, 0
2, 132720, Note_on_c, 0, 56, 116
2, 132864, Note_on_c, 0, 68, 0
2, 132864, Note_on_c, 0, 60, 0
2, 132912, Note_on_c, 0, 56, 0
2, 132960, Note_on_c, 0, 63, 116
2, 132960, Note_on_c, 0, 51, 116
2, 133152, Note_on_c, 0, 51, 0
2, 133152, Note_on_c, 0, 63, 0
2, 133200, Note_on_c, 0, 60, 116
2, 133200, Note_on_c, 0, 44, 116
2, 133392, Note_on_c, 0, 44, 0
2, 133392, Note_on_c, 0, 60, 0
2, 133440, Note_on_c, 0, 63, 116
2, 133440, Note_on_c, 0, 56, 116
2, 133536, Note_on_c, 0, 63, 0
2, 133560, Note_on_c, 0, 63, 116
2, 133632, Note_on_c, 0, 56, 0
2, 133656, Note_on_c, 0, 63, 0
2, 133680, Note_on_c, 0, 63, 116
2, 133680, Note_on_c, 0, 51, 116
2, 133872, Note_on_c, 0, 51, 0
2, 133872, Note_on_c, 0, 63, 0
2, 133920, Note_on_c, 0, 60, 116
2, 133920, Note_on_c, 0, 44, 116
2, 134112, Note_on_c, 0, 44, 0
2, 134112, Note_on_c, 0, 60, 0
2, 134160, Note_on_c, 0, 65, 116
2, 134160, Note_on_c, 0, 56, 116
2, 134352, Note_on_c, 0, 56, 0
2, 134352, Note_on_c, 0, 65, 0
2, 134400, Note_on_c, 0, 63, 116
2, 134400, Note_on_c, 0, 51, 116
2, 134592, Note_on_c, 0, 51, 0
2, 134592, Note_on_c, 0, 63, 0
2, 134640, Note_on_c, 0, 60, 116
2, 134640, Note_on_c, 0, 44, 116
2, 134832, Note_on_c, 0, 44, 0
2, 134832, Note_on_c, 0, 60, 0
2, 134880, Note_on_c, 0, 63, 116
2, 134880, Note_on_c, 0, 56, 116
2, 134976, Note_on_c, 0, 63, 0
2, 135000, Note_on_c, 0, 63, 116
2, 135072, Note_on_c, 0, 56, 0
2, 135096, Note_on_c, 0, 63, 0
2, 135120, Note_on_c, 0, 63, 116
2, 135120, Note_on_c, 0, 51, 116
2, 135312, Note_on_c, 0, 51, 0
2, 135312, Note_on_c, 0, 63, 0
2, 135360, Note_on_c, 0, 60, 116
2, 135360, Note_on_c, 0, 44, 116
2, 135552, Note_on_c, 0, 44, 0
2, 135552, Note_on_c, 0, 60, 0
2, 135600, Note_on_c, 0, 63, 116
2, 135600, Note_on_c, 0, 56, 116
2, 135696, Note_on_c, 0, 63, 0
2, 135720, Note_on_c, 0, 63, 116
2, 135792, Note_on_c, 0, 56, 0
2, 135816, Note_on_c, 0, 63, 0
2, 135840, Note_on_c, 0, 63, 116
2, 135840, Note_on_c, 0, 51, 116
2, 136032, Note_on_c, 0, 51, 0
2, 136032, Note_on_c, 0, 63, 0
2, 136080, Note_on_c, 0, 60, 116
2, 136080, Note_on_c, 0, 68, 116
2, 136080, Note_on_c, 0, 44, 116
2, 136272, Note_on_c, 0, 44, 0
2, 136272, Note_on_c, 0, 68, 0
2, 136272, Note_on_c, 0, 60, 0
2, 136320, Note_on_c, 0, 63, 116
2, 136320, Note_on_c, 0, 56, 116
2, 136512, Note_on_c, 0, 56, 0
2, 136512, Note_on_c, 0, 63, 0
2, 136560, Note_on_c, 0, 72, 116
2, 136560, Note_on_c, 0, 51, 116
2, 136752, Note_on_c, 0, 51, 0
2, 136752, Note_on_c, 0, 72, 0
2, 136800, Note_on_c, 0, 61, 116
2, 136800, Note_on_c, 0, 70, 116
2, 136800, Note_on_c, 0, 44, 116
2, 136992, Note_on_c, 0, 44, 0
2, 136992, Note_on_c, 0, 70, 0
2, 136992, Note_on_c, 0, 61, 0
2, 137040, Note_on_c, 0, 63, 116
2, 137040, Note_on_c, 0, 55, 116
2, 137232, Note_on_c, 0, 55, 0
2, 137232, Note_on_c, 0, 63, 0
2, 137280, Note_on_c, 0, 75, 116
2, 137280, Note_on_c, 0, 51, 116
2, 137472, Note_on_c, 0, 51, 0
2, 137472, Note_on_c, 0, 75, 0
2, 137520, Note_on_c, 0, 75, 127
2, 137520, Note_on_c, 0, 72, 127
2, 137520, Note_on_c, 0, 63, 127
2, 137520, Note_on_c, 0, 44, 116
2, 137712, Note_on_c, 0, 44, 0
2, 137760, Note_on_c, 0, 56, 116
2, 137904, Note_on_c, 0, 63, 0
2, 137904, Note_on_c, 0, 72, 0
2, 137904, Note_on_c, 0, 75, 0
2, 137952, Note_on_c, 0, 56, 0
2, 138000, Note_on_c, 0, 63, 116
2, 138000, Note_on_c, 0, 51, 116
2, 138192, Note_on_c, 0, 51, 0
2, 138192, Note_on_c, 0, 63, 0
2, 138240, Note_on_c, 0, 60, 116
2, 138240, Note_on_c, 0, 44, 116
2, 138432, Note_on_c, 0, 44, 0
2, 138432, Note_on_c, 0, 60, 0
2, 138480, Note_on_c, 0, 65, 116
2, 138480, Note_on_c, 0, 56, 116
2, 138672, Note_on_c, 0, 56, 0
2, 138672, Note_on_c, 0, 65, 0
2, 138720, Note_on_c, 0, 63, 116
2, 138720, Note_on_c, 0, 51, 116
2, 138912, Note_on_c, 0, 51, 0
2, 138912, Note_on_c, 0, 63, 0
2, 138960, Note_on_c, 0, 60, 116
2, 138960, Note_on_c, 0, 44, 116
2, 139152, Note_on_c, 0, 44, 0
2, 139152, Note_on_c, 0, 60, 0
2, 139200, Note_on_c, 0, 63, 116
2, 139200, Note_on_c, 0, 56, 116
2, 139296, Note_on_c, 0, 63, 0
2, 139320, Note_on_c, 0, 63, 116
2, 139392, Note_on_c, 0, 56, 0
2, 139416, Note_on_c, 0, 63, 0
2, 139440, Note_on_c, 0, 63, 116
2, 139440, Note_on_c, 0, 51, 116
2, 139632, Note_on_c, 0, 51, 0
2, 139632, Note_on_c, 0, 63, 0
2, 139680, Note_on_c, 0, 60, 116
2, 139680, Note_on_c, 0, 44, 116
2, 139872, Note_on_c, 0, 44, 0
2, 139872, Note_on_c, 0, 60, 0
2, 139920, Note_on_c, 0, 65, 116
2, 139920, Note_on_c, 0, 56, 116
2, 140112, Note_on_c, 0, 56, 0
2, 140112, Note_on_c, 0, 65, 0
2, 140160, Note_on_c, 0, 63, 116
2, 140160, Note_on_c, 0, 51, 116
2, 140352, Note_on_c, 0, 51, 0
2, 140352, Note_on_c, 0, 63, 0
2, 140400, Note_on_c, 0, 60, 116
2, 140400, Note_on_c, 0, 44, 116
2, 140592, Note_on_c, 0, 44, 0
2, 140592, Note_on_c, 0, 60, 0
2, 140640, Note_on_c, 0, 63, 116
2, 140640, Note_on_c, 0, 56, 116
2, 140736, Note_on_c, 0, 63, 0
2, 140760, Note_on_c, 0, 63, 116
2, 140832, Note_on_c, 0, 56, 0
2, 140856, Note_on_c, 0, 63, 0
2, 140880, Note_on_c, 0, 63, 116
2, 140880, Note_on_c, 0, 51, 116
2, 141072, Note_on_c, 0, 51, 0
2, 141072, Note_on_c, 0, 63, 0
2, 141120, Note_on_c, 0, 60, 116
2, 141120, Note_on_c, 0, 44, 116
2, 141312, Note_on_c, 0, 44, 0
2, 141312, Note_on_c, 0, 60, 0
2, 141360, Note_on_c, 0, 63, 116
2, 141360, Note_on_c, 0, 56, 116
2, 141456, Note_on_c, 0, 63, 0
2, 141480, Note_on_c, 0, 63, 116
2, 141552, Note_on_c, 0, 56, 0
2, 141576, Note_on_c, 0, 63, 0
2, 141600, Note_on_c, 0, 63, 116
2, 141600, Note_on_c, 0, 51, 116
2, 141792, Note_on_c, 0, 51, 0
2, 141792, Note_on_c, 0, 63, 0
2, 141840, Note_on_c, 0, 68, 116
2, 141840, Note_on_c, 0, 60, 116
2, 141840, Note_on_c, 0, 44, 116
2, 142032, Note_on_c, 0, 44, 0
2, 142032, Note_on_c, 0, 60, 0
2, 142032, Note_on_c, 0, 68, 0
2, 142080, Note_on_c, 0, 63, 116
2, 142080, Note_on_c, 0, 56, 116
2, 142272, Note_on_c, 0, 56, 0
2, 142272, Note_on_c, 0, 63, 0
2, 142320, Note_on_c, 0, 72, 116
2, 142320, Note_on_c, 0, 51, 116
2, 142512, Note_on_c, 0, 51, 0
2, 142512, Note_on_c, 0, 72, 0
2, 142560, Note_on_c, 0, 70, 116
2, 142560, Note_on_c, 0, 64, 116
2, 142560, Note_on_c, 0, 44, 116
2, 142752, Note_on_c, 0, 44, 0
2, 142752, Note_on_c, 0, 64, 0
2, 142752, Note_on_c, 0, 70, 0
2, 142800, Note_on_c, 0, 67, 116
2, 142800, Note_on_c, 0, 55, 116
2, 142992, Note_on_c, 0, 55, 0
2, 142992, Note_on_c, 0, 67, 0
2, 143040, Note_on_c, 0, 76, 116
2, 143040, Note_on_c, 0, 52, 116
2, 143232, Note_on_c, 0, 52, 0
2, 143232, Note_on_c, 0, 76, 0
2, 143280, Note_on_c, 0, 76, 125
2, 143280, Note_on_c, 0, 64, 125
2, 143280, Note_on_c, 0, 44, 105
2, 143472, Note_on_c, 0, 44, 0
2, 143520, Note_on_c, 0, 58, 105
2, 143664, Note_on_c, 0, 64, 0
2, 143664, Note_on_c, 0, 76, 0
2, 143712, Note_on_c, 0, 58, 0
2, 143760, Note_on_c, 0, 67, 105
2, 143760, Note_on_c, 0, 61, 105
2, 143760, Note_on_c, 0, 52, 105
2, 143952, Note_on_c, 0, 52, 0
2, 143952, Note_on_c, 0, 61, 0
2, 143952, Note_on_c, 0, 67, 0
2, 144000, Note_on_c, 0, 68, 105
2, 144000, Note_on_c, 0, 60, 105
2, 144000, Note_on_c, 0, 44, 105
2, 144192, Note_on_c, 0, 44, 0
2, 144192, Note_on_c, 0, 60, 0
2, 144192, Note_on_c, 0, 68, 0
2, 144240, Note_on_c, 0, 63, 105
2, 144240, Note_on_c, 0, 56, 105
2, 144432, Note_on_c, 0, 56, 0
2, 144432, Note_on_c, 0, 63, 0
2, 144480, Note_on_c, 0, 76, 105
2, 144480, Note_on_c, 0, 51, 105
2, 144672, Note_on_c, 0, 51, 0
2, 144672, Note_on_c, 0, 76, 0
2, 144720, Note_on_c, 0, 76, 125
2, 144720, Note_on_c, 0, 64, 125
2, 144720, Note_on_c, 0, 44, 105
2, 144912, Note_on_c, 0, 44, 0
2, 144960, Note_on_c, 0, 58, 105
2, 145104, Note_on_c, 0, 64, 0
2, 145104, Note_on_c, 0, 76, 0
2, 145152, Note_on_c, 0, 58, 0
2, 145200, Note_on_c, 0, 67, 105
2, 145200, Note_on_c, 0, 61, 105
2, 145200, Note_on_c, 0, 52, 105
2, 145392, Note_on_c, 0, 52, 0
2, 145392, Note_on_c, 0, 61, 0
2, 145392, Note_on_c, 0, 67, 0
2, 145440, Note_on_c, 0, 68, 105
2, 145440, Note_on_c, 0, 60, 105
2, 145440, Note_on_c, 0, 44, 105
2, 145632, Note_on_c, 0, 44, 0
2, 145632, Note_on_c, 0, 60, 0
2, 145632, Note_on_c, 0, 68, 0
2, 145680, Note_on_c, 0, 63, 105
2, 145680, Note_on_c, 0, 56, 105
2, 145872, Note_on_c, 0, 56, 0
2, 145872, Note_on_c, 0, 63, 0
2, 145920, Note_on_c, 0, 76, 105
2, 145920, Note_on_c, 0, 51, 105
2, 146112, Note_on_c, 0, 51, 0
2, 146112, Note_on_c, 0, 76, 0
2, 146160, Note_on_c, 0, 64, 125
2, 146160, Note_on_c, 0, 76, 125
2, 146160, Note_on_c, 0, 44, 105
2, 146352, Note_on_c, 0, 44, 0
2, 146400, Note_on_c, 0, 58, 105
2, 146544, Note_on_c, 0, 76, 0
2, 146544, Note_on_c, 0, 64, 0
2, 146592, Note_on_c, 0, 58, 0
2, 146640, Note_on_c, 0, 67, 105
2, 146640, Note_on_c, 0, 61, 105
2, 146640, Note_on_c, 0, 52, 105
2, 146832, Note_on_c, 0, 52, 0
2, 146832, Note_on_c, 0, 61, 0
2, 146832, Note_on_c, 0, 67, 0
2, 146880, Note_on_c, 0, 68, 105
2, 146880, Note_on_c, 0, 60, 105
2, 146880, Note_on_c, 0, 44, 105
2, 147072, Note_on_c, 0, 44, 0
2, 147072, Note_on_c, 0, 60, 0
2, 147072, Note_on_c, 0, 68, 0
2, 147120, Note_on_c, 0, 63, 105
2, 147120, Note_on_c, 0, 56, 105
2, 147312, Note_on_c, 0, 56, 0
2, 147312, Note_on_c, 0, 63, 0
2, 147360, Note_on_c, 0, 76, 105
2, 147360, Note_on_c, 0, 51, 105
2, 147552, Note_on_c, 0, 51, 0
2, 147552, Note_on_c, 0, 76, 0
2, 147600, Note_on_c, 0, 64, 125
2, 147600, Note_on_c, 0, 76, 125
2, 147600, Note_on_c, 0, 44, 105
2, 147792, Note_on_c, 0, 44, 0
2, 147840, Note_on_c, 0, 58, 105
2, 147984, Note_on_c, 0, 76, 0
2, 147984, Note_on_c, 0, 64, 0
2, 148032, Note_on_c, 0, 58, 0
2, 148080, Note_on_c, 0, 67, 105
2, 148080, Note_on_c, 0, 61, 105
2, 148080, Note_on_c, 0, 52, 105
2, 148272, Note_on_c, 0, 52, 0
2, 148272, Note_on_c, 0, 61, 0
2, 148272, Note_on_c, 0, 67, 0
2, 148320, Note_on_c, 0, 68, 105
2, 148320, Note_on_c, 0, 60, 105
2, 148320, Note_on_c, 0, 44, 105
2, 148512, Note_on_c, 0, 44, 0
2, 148512, Note_on_c, 0, 60, 0
2, 148512, Note_on_c, 0, 68, 0
2, 148560, Note_on_c, 0, 63, 105
2, 148560, Note_on_c, 0, 56, 105
2, 148752, Note_on_c, 0, 56, 0
2, 148752, Note_on_c, 0, 63, 0
2, 148800, Note_on_c, 0, 76, 105
2, 148800, Note_on_c, 0, 51, 105
2, 148992, Note_on_c, 0, 51, 0
2, 148992, Note_on_c, 0, 76, 0
2, 149040, Note_on_c, 0, 64, 125
2, 149040, Note_on_c, 0, 76, 125
2, 149040, Note_on_c, 0, 44, 105
2, 149232, Note_on_c, 0, 44, 0
2, 149280, Note_on_c, 0, 58, 105
2, 149424, Note_on_c, 0, 76, 0
2, 149424, Note_on_c, 0, 64, 0
2, 149472, Note_on_c, 0, 58, 0
2, 149520, Note_on_c, 0, 67, 105
2, 149520, Note_on_c, 0, 61, 105
2, 149520, Note_on_c, 0, 52, 105
2, 149712, Note_on_c, 0, 52, 0
2, 149712, Note_on_c, 0, 61, 0
2, 149712, Note_on_c, 0, 67, 0
2, 149760, Note_on_c, 0, 68, 105
2, 149760, Note_on_c, 0, 60, 105
2, 149760, Note_on_c, 0, 44, 105
2, 149952, Note_on_c, 0, 44, 0
2, 149952, Note_on_c, 0, 60, 0
2, 149952, Note_on_c, 0, 68, 0
2, 150000, Note_on_c, 0, 63, 105
2, 150000, Note_on_c, 0, 56, 105
2, 150192, Note_on_c, 0, 56, 0
2, 150192, Note_on_c, 0, 63, 0
2, 150240, Note_on_c, 0, 72, 105
2, 150240, Note_on_c, 0, 51, 105
2, 150432, Note_on_c, 0, 51, 0
2, 150432, Note_on_c, 0, 72, 0
2, 150480, Note_on_c, 0, 61, 105
2, 150480, Note_on_c, 0, 68, 105
2, 150480, Note_on_c, 0, 49, 105
2, 150672, Note_on_c, 0, 49, 0
2, 150672, Note_on_c, 0, 68, 0
2, 150672, Note_on_c, 0, 61, 0
2, 150720, Note_on_c, 0, 64, 105
2, 150720, Note_on_c, 0, 56, 105
2, 150912, Note_on_c, 0, 56, 0
2, 150912, Note_on_c, 0, 64, 0
2, 150960, Note_on_c, 0, 73, 105
2, 150960, Note_on_c, 0, 52, 105
2, 151152, Note_on_c, 0, 52, 0
2, 151152, Note_on_c, 0, 73, 0
2, 151200, Note_on_c, 0, 60, 94
2, 151200, Note_on_c, 0, 68, 94
2, 151200, Note_on_c, 0, 44, 94
2, 151392, Note_on_c, 0, 44, 0
2, 151392, Note_on_c, 0, 68, 0
2, 151392, Note_on_c, 0, 60, 0
2, 151440, Note_on_c, 0, 63, 94
2, 151440, Note_on_c, 0, 56, 94
2, 151632, Note_on_c, 0, 56, 0
2, 151632, Note_on_c, 0, 63, 0
2, 151680, Note_on_c, 0, 72, 94
2, 151680, Note_on_c, 0, 51, 94
2, 151872, Note_on_c, 0, 51, 0
2, 151872, Note_on_c, 0, 72, 0
2, 151920, Note_on_c, 0, 61, 94
2, 151920, Note_on_c, 0, 68, 94
2, 151920, Note_on_c, 0, 49, 94
2, 152112, Note_on_c, 0, 49, 0
2, 152112, Note_on_c, 0, 68, 0
2, 152112, Note_on_c, 0, 61, 0
2, 152160, Note_on_c, 0, 64, 94
2, 152160, Note_on_c, 0, 56, 94
2, 152352, Note_on_c, 0, 56, 0
2, 152352, Note_on_c, 0, 64, 0
2, 152400, Note_on_c, 0, 73, 94
2, 152400, Note_on_c, 0, 52, 94
2, 152592, Note_on_c, 0, 52, 0
2, 152592, Note_on_c, 0, 73, 0
2, 152640, Note_on_c, 0, 60, 85
2, 152640, Note_on_c, 0, 68, 85
2, 152640, Note_on_c, 0, 44, 85
2, 152832, Note_on_c, 0, 44, 0
2, 152832, Note_on_c, 0, 68, 0
2, 152832, Note_on_c, 0, 60, 0
2, 152880, Note_on_c, 0, 63, 85
2, 152880, Note_on_c, 0, 56, 85
2, 153072, Note_on_c, 0, 56, 0
2, 153072, Note_on_c, 0, 63, 0
2, 153120, Note_on_c, 0, 72, 85
2, 153120, Note_on_c, 0, 51, 85
2, 153312, Note_on_c, 0, 51, 0
2, 153312, Note_on_c, 0, 72, 0
2, 153360, Note_on_c, 0, 61, 85
2, 153360, Note_on_c, 0, 68, 85
2, 153360, Note_on_c, 0, 49, 85
2, 153552, Note_on_c, 0, 49, 0
2, 153552, Note_on_c, 0, 68, 0
2, 153552, Note_on_c, 0, 61, 0
2, 153600, Note_on_c, 0, 64, 85
2, 153600, Note_on_c, 0, 56, 85
2, 153792, Note_on_c, 0, 56, 0
2, 153792, Note_on_c, 0, 64, 0
2, 153840, Note_on_c, 0, 73, 85
2, 153840, Note_on_c, 0, 52, 85
2, 154032, Note_on_c, 0, 52, 0
2, 154032, Note_on_c, 0, 73, 0
2, 154080, Note_on_c, 0, 60, 72
2, 154080, Note_on_c, 0, 68, 72
2, 154080, Note_on_c, 0, 44, 72
2, 154272, Note_on_c, 0, 44, 0
2, 154272, Note_on_c, 0, 68, 0
2, 154272, Note_on_c, 0, 60, 0
2, 154320, Note_on_c, 0, 63, 72
2, 154320, Note_on_c, 0, 56, 72
2, 154512, Note_on_c, 0, 56, 0
2, 154512, Note_on_c, 0, 63, 0
2, 154560, Note_on_c, 0, 72, 72
2, 154560, Note_on_c, 0, 51, 72
2, 154752, Note_on_c, 0, 51, 0
2, 154752, Note_on_c, 0, 72, 0
2, 154800, Note_on_c, 0, 61, 72
2, 154800, Note_on_c, 0, 68, 72
2, 154800, Note_on_c, 0, 49, 72
2, 154992, Note_on_c, 0, 49, 0
2, 154992, Note_on_c, 0, 68, 0
2, 154992, Note_on_c, 0, 61, 0
2, 155040, Note_on_c, 0, 64, 72
2, 155040, Note_on_c, 0, 56, 72
2, 155232, Note_on_c, 0, 56, 0
2, 155232, Note_on_c, 0, 64, 0
2, 155280, Note_on_c, 0, 73, 72
2, 155280, Note_on_c, 0, 52, 72
2, 155472, Note_on_c, 0, 52, 0
2, 155472, Note_on_c, 0, 73, 0
2, 155520, Note_on_c, 0, 68, 72
2, 155520, Note_on_c, 0, 72, 72
2, 155520, Note_on_c, 0, 75, 72
2, 155520, Note_on_c, 0, 80, 72
2, 155520, Note_on_c, 0, 32, 72
2, 155520, Note_on_c, 0, 44, 72
2, 157106, Note_on_c, 0, 44, 0
2, 157106, Note_on_c, 0, 32, 0
2, 157106, Note_on_c, 0, 80, 0
2, 157106, Note_on_c, 0, 75, 0
2, 157106, Note_on_c, 0, 72, 0
2, 157106, Note_on_c, 0, 68, 0
2, 158400, End_track
3, 0, Start_track
3, 0, Control_c, 1, 7, 127
3, 0, Control_c, 1, 0, 0
3, 0, Control_c, 1, 32, 0
3, 0, Program_c, 1, 53
3, 0, Control_c, 1, 1, 0
3, 0, Control_c, 1, 10, 64
3, 0, Control_c, 1, 91, 0
3, 0, Control_c, 1, 93, 0
3, 0, Key_signature, -4, "major"
3, 0, Title_t, "Voice"
3, 23040, Note_on_c, 1, 68, 85
3, 23424, Note_on_c, 1, 68, 0
3, 23520, Note_on_c, 1, 68, 85
3, 23712, Note_on_c, 1, 68, 0
3, 23760, Note_on_c, 1, 67, 85
3, 24144, Note_on_c, 1, 67, 0
3, 24240, Note_on_c, 1, 65, 85
3, 24432, Note_on_c, 1, 65, 0
3, 24480, Note_on_c, 1, 70, 94
3, 24864, Note_on_c, 1, 70, 0
3, 24960, Note_on_c, 1, 70, 94
3, 25152, Note_on_c, 1, 70, 0
3, 25200, Note_on_c, 1, 68, 94
3, 25584, Note_on_c, 1, 68, 0
3, 25680, Note_on_c, 1, 67, 94
3, 25872, Note_on_c, 1, 67, 0
3, 25920, Note_on_c, 1, 72, 105
3, 26304, Note_on_c, 1, 72, 0
3, 26400, Note_on_c, 1, 72, 105
3, 26592, Note_on_c, 1, 72, 0
3, 26640, Note_on_c, 1, 70, 116
3, 27024, Note_on_c, 1, 70, 0
3, 27120, Note_on_c, 1, 68, 116
3, 27312, Note_on_c, 1, 68, 0
3, 27360, Note_on_c, 1, 73, 116
3, 27936, Note_on_c, 1, 73, 0
3, 28800, Note_on_c, 1, 70, 72
3, 29184, Note_on_c, 1, 70, 0
3, 29280, Note_on_c, 1, 70, 72
3, 29472, Note_on_c, 1, 70, 0
3, 29520, Note_on_c, 1, 72, 72
3, 29904, Note_on_c, 1, 72, 0
3, 30000, Note_on_c, 1, 72, 72
3, 30192, Note_on_c, 1, 72, 0
3, 30240, Note_on_c, 1, 73, 72
3, 30624, Note_on_c, 1, 73, 0
3, 30720, Note_on_c, 1, 65, 72
3, 30912, Note_on_c, 1, 65, 0
3, 30960, Note_on_c, 1, 72, 85
3, 31344, Note_on_c, 1, 72, 0
3, 31440, Note_on_c, 1, 70, 85
3, 31632, Note_on_c, 1, 70, 0
3, 31680, Note_on_c, 1, 68, 94
3, 31872, Note_on_c, 1, 68, 0
3, 31920, Note_on_c, 1, 67, 94
3, 32112, Note_on_c, 1, 67, 0
3, 32160, Note_on_c, 1, 68, 94
3, 32352, Note_on_c, 1, 68, 0
3, 32400, Note_on_c, 1, 69, 94
3, 32784, Note_on_c, 1, 69, 0
3, 32880, Note_on_c, 1, 70, 105
3, 33072, Note_on_c, 1, 70, 0
3, 33120, Note_on_c, 1, 77, 116
3, 34272, Note_on_c, 1, 77, 0
3, 34560, Note_on_c, 1, 70, 72
3, 34944, Note_on_c, 1, 70, 0
3, 35040, Note_on_c, 1, 70, 72
3, 35232, Note_on_c, 1, 70, 0
3, 35280, Note_on_c, 1, 72, 72
3, 35664, Note_on_c, 1, 72, 0
3, 35760, Note_on_c, 1, 72, 72
3, 35952, Note_on_c, 1, 72, 0
3, 36000, Note_on_c, 1, 73, 72
3, 36384, Note_on_c, 1, 73, 0
3, 36480, Note_on_c, 1, 65, 72
3, 36672, Note_on_c, 1, 65, 0
3, 36720, Note_on_c, 1, 72, 85
3, 37104, Note_on_c, 1, 72, 0
3, 37200, Note_on_c, 1, 70, 85
3, 37392, Note_on_c, 1, 70, 0
3, 37440, Note_on_c, 1, 68, 94
3, 37632, Note_on_c, 1, 68, 0
3, 37680, Note_on_c, 1, 67, 94
3, 37872, Note_on_c, 1, 67, 0
3, 37920, Note_on_c, 1, 68, 94
3, 38112, Note_on_c, 1, 68, 0
3, 38160, Note_on_c, 1, 72, 94
3, 38544, Note_on_c, 1, 72, 0
3, 38640, Note_on_c, 1, 70, 94
3, 38832, Note_on_c, 1, 70, 0
3, 38880, Note_on_c, 1, 75, 116
3, 40224, Note_on_c, 1, 75, 0
3, 40320, Note_on_c, 1, 77, 127
3, 40704, Note_on_c, 1, 77, 0
3, 40800, Note_on_c, 1, 75, 116
3, 40992, Note_on_c, 1, 75, 0
3, 41040, Note_on_c, 1, 73, 105
3, 41232, Note_on_c, 1, 73, 0
3, 41280, Note_on_c, 1, 72, 105
3, 41472, Note_on_c, 1, 72, 0
3, 41520, Note_on_c, 1, 70, 94
3, 41712, Note_on_c, 1, 70, 0
3, 41760, Note_on_c, 1, 68, 105
3, 42336, Note_on_c, 1, 68, 0
3, 53280, Note_on_c, 1, 68, 85
3, 53664, Note_on_c, 1, 68, 0
3, 53760, Note_on_c, 1, 68, 85
3, 53952, Note_on_c, 1, 68, 0
3, 54000, Note_on_c, 1, 67, 85
3, 54384, Note_on_c, 1, 67, 0
3, 54480, Note_on_c, 1, 65, 85
3, 54672, Note_on_c, 1, 65, 0
3, 54720, Note_on_c, 1, 70, 94
3, 55104, Note_on_c, 1, 70, 0
3, 55200, Note_on_c, 1, 70, 94
3, 55392, Note_on_c, 1, 70, 0
3, 55440, Note_on_c, 1, 68, 94
3, 55824, Note_on_c, 1, 68, 0
3, 55920, Note_on_c, 1, 67, 94
3, 56112, Note_on_c, 1, 67, 0
3, 56160, Note_on_c, 1, 72, 105
3, 56544, Note_on_c, 1, 72, 0
3, 56640, Note_on_c, 1, 72, 105
3, 56832, Note_on_c, 1, 72, 0
3, 56880, Note_on_c, 1, 70, 116
3, 57264, Note_on_c, 1, 70, 0
3, 57360, Note_on_c, 1, 68, 116
3, 57552, Note_on_c, 1, 68, 0
3, 57600, Note_on_c, 1, 73, 116
3, 58176, Note_on_c, 1, 73, 0
3, 59040, Note_on_c, 1, 70, 72
3, 59424, Note_on_c, 1, 70, 0
3, 59520, Note_on_c, 1, 70, 72
3, 59712, Note_on_c, 1, 70, 0
3, 59760, Note_on_c, 1, 72, 72
3, 60144, Note_on_c, 1, 72, 0
3, 60240, Note_on_c, 1, 72, 72
3, 60432, Note_on_c, 1, 72, 0
3, 60480, Note_on_c, 1, 73, 72
3, 60864, Note_on_c, 1, 73, 0
3, 60960, Note_on_c, 1, 65, 72
3, 61152, Note_on_c, 1, 65, 0
3, 61200, Note_on_c, 1, 72, 85
3, 61584, Note_on_c, 1, 72, 0
3, 61680, Note_on_c, 1, 70, 85
3, 61872, Note_on_c, 1, 70, 0
3, 61920, Note_on_c, 1, 68, 94
3, 62112, Note_on_c, 1, 68, 0
3, 62160, Note_on_c, 1, 67, 94
3, 62352, Note_on_c, 1, 67, 0
3, 62400, Note_on_c, 1, 68, 94
3, 62592, Note_on_c, 1, 68, 0
3, 62640, Note_on_c, 1, 69, 94
3, 63024, Note_on_c, 1, 69, 0
3, 63120, Note_on_c, 1, 70, 105
3, 63312, Note_on_c, 1, 70, 0
3, 63360, Note_on_c, 1, 77, 116
3, 64512, Note_on_c, 1, 77, 0
3, 64800, Note_on_c, 1, 70, 72
3, 65184, Note_on_c, 1, 70, 0
3, 65280, Note_on_c, 1, 70, 72
3, 65472, Note_on_c, 1, 70, 0
3, 65520, Note_on_c, 1, 72, 72
3, 65904, Note_on_c, 1, 72, 0
3, 66000, Note_on_c, 1, 72, 72
3, 66192, Note_on_c, 1, 72, 0
3, 66240, Note_on_c, 1, 73, 72
3, 66624, Note_on_c, 1, 73, 0
3, 66720, Note_on_c, 1, 65, 72
3, 66912, Note_on_c, 1, 65, 0
3, 66960, Note_on_c, 1, 72, 85
3, 67344, Note_on_c, 1, 72, 0
3, 67440, Note_on_c, 1, 70, 85
3, 67632, Note_on_c, 1, 70, 0
3, 67680, Note_on_c, 1, 68, 94
3, 67872, Note_on_c, 1, 68, 0
3, 67920, Note_on_c, 1, 67, 94
3, 68112, Note_on_c, 1, 67, 0
3, 68160, Note_on_c, 1, 68, 94
3, 68352, Note_on_c, 1, 68, 0
3, 68400, Note_on_c, 1, 72, 94
3, 68784, Note_on_c, 1, 72, 0
3, 68880, Note_on_c, 1, 70, 94
3, 69072, Note_on_c, 1, 70, 0
3, 69120, Note_on_c, 1, 75, 116
3, 70464, Note_on_c, 1, 75, 0
3, 70560, Note_on_c, 1, 77, 127
3, 70944, Note_on_c, 1, 77, 0
3, 71040, Note_on_c, 1, 75, 116
3, 71232, Note_on_c, 1, 75, 0
3, 71280, Note_on_c, 1, 73, 105
3, 71472, Note_on_c, 1, 73, 0
3, 71520, Note_on_c, 1, 72, 105
3, 71712, Note_on_c, 1, 72, 0
3, 71760, Note_on_c, 1, 70, 94
3, 71952, Note_on_c, 1, 70, 0
3, 72000, Note_on_c, 1, 68, 105
3, 72576, Note_on_c, 1, 68, 0
3, 83520, Note_on_c, 1, 68, 85
3, 83904, Note_on_c, 1, 68, 0
3, 84000, Note_on_c, 1, 68, 85
3, 84192, Note_on_c, 1, 68, 0
3, 84240, Note_on_c, 1, 67, 85
3, 84624, Note_on_c, 1, 67, 0
3, 84720, Note_on_c, 1, 65, 85
3, 84912, Note_on_c, 1, 65, 0
3, 84960, Note_on_c, 1, 70, 94
3, 85344, Note_on_c, 1, 70, 0
3, 85440, Note_on_c, 1, 70, 94
3, 85632, Note_on_c, 1, 70, 0
3, 85680, Note_on_c, 1, 68, 94
3, 86064, Note_on_c, 1, 68, 0
3, 86160, Note_on_c, 1, 67, 94
3, 86352, Note_on_c, 1, 67, 0
3, 86400, Note_on_c, 1, 72, 105
3, 86784, Note_on_c, 1, 72, 0
3, 86880, Note_on_c, 1, 72, 105
3, 87072, Note_on_c, 1, 72, 0
3, 87120, Note_on_c, 1, 70, 116
3, 87504, Note_on_c, 1, 70, 0
3, 87600, Note_on_c, 1, 68, 116
3, 87792, Note_on_c, 1, 68, 0
3, 87840, Note_on_c, 1, 73, 116
3, 88416, Note_on_c, 1, 73, 0
3, 89280, Note_on_c, 1, 70, 72
3, 89664, Note_on_c, 1, 70, 0
3, 89760, Note_on_c, 1, 70, 72
3, 89952, Note_on_c, 1, 70, 0
3, 90000, Note_on_c, 1, 72, 72
3, 90384, Note_on_c, 1, 72, 0
3, 90480, Note_on_c, 1, 72, 72
3, 90672, Note_on_c, 1, 72, 0
3, 90720, Note_on_c, 1, 73, 72
3, 91104, Note_on_c, 1, 73, 0
3, 91200, Note_on_c, 1, 65, 72
3, 91392, Note_on_c, 1, 65, 0
3, 91440, Note_on_c, 1, 72, 85
3, 91824, Note_on_c, 1, 72, 0
3, 91920, Note_on_c, 1, 70, 85
3, 92112, Note_on_c, 1, 70, 0
3, 92160, Note_on_c, 1, 68, 94
3, 92352, Note_on_c, 1, 68, 0
3, 92400, Note_on_c, 1, 67, 94
3, 92592, Note_on_c, 1, 67, 0
3, 92640, Note_on_c, 1, 68, 94
3, 92832, Note_on_c, 1, 68, 0
3, 92880, Note_on_c, 1, 69, 94
3, 93264, Note_on_c, 1, 69, 0
3, 93360, Note_on_c, 1, 70, 105
3, 93552, Note_on_c, 1, 70, 0
3, 93600, Note_on_c, 1, 77, 116
3, 94752, Note_on_c, 1, 77, 0
3, 95040, Note_on_c, 1, 70, 72
3, 95424, Note_on_c, 1, 70, 0
3, 95520, Note_on_c, 1, 70, 72
3, 95712, Note_on_c, 1, 70, 0
3, 95760, Note_on_c, 1, 72, 72
3, 96144, Note_on_c, 1, 72, 0
3, 96240, Note_on_c, 1, 72, 72
3, 96432, Note_on_c, 1, 72, 0
3, 96480, Note_on_c, 1, 73, 72
3, 96864, Note_on_c, 1, 73, 0
3, 96960, Note_on_c, 1, 65, 72
3, 97152, Note_on_c, 1, 65, 0
3, 97200, Note_on_c, 1, 72, 85
3, 97584, Note_on_c, 1, 72, 0
3, 97680, Note_on_c, 1, 70, 85
3, 97872, Note_on_c, 1, 70, 0
3, 97920, Note_on_c, 1, 68, 94
3, 98112, Note_on_c, 1, 68, 0
3, 98160, Note_on_c, 1, 67, 94
3, 98352, Note_on_c, 1, 67, 0
3, 98400, Note_on_c, 1, 68, 94
3, 98592, Note_on_c, 1, 68, 0
3, 98640, Note_on_c, 1, 72, 94
3, 99024, Note_on_c, 1, 72, 0
3, 99120, Note_on_c, 1, 70, 94
3, 99312, Note_on_c, 1, 70, 0
3, 99360, Note_on_c, 1, 75, 116
3, 100704, Note_on_c, 1, 75, 0
3, 100800, Note_on_c, 1, 77, 127
3, 101184, Note_on_c, 1, 77, 0
3, 101280, Note_on_c, 1, 75, 116
3, 101472, Note_on_c, 1, 75, 0
3, 101520, Note_on_c, 1, 73, 105
3, 101712, Note_on_c, 1, 73, 0
3, 101760, Note_on_c, 1, 72, 105
3, 101952, Note_on_c, 1, 72, 0
3, 102000, Note_on_c, 1, 70, 94
3, 102192, Note_on_c, 1, 70, 0
3, 102240, Note_on_c, 1, 68, 105
3, 102816, Note_on_c, 1, 68, 0
3, 113760, Note_on_c, 1, 68, 72
3, 114144, Note_on_c, 1, 68, 0
3, 114240, Note_on_c, 1, 68, 72
3, 114432, Note_on_c, 1, 68, 0
3, 114480, Note_on_c, 1, 67, 72
3, 114864, Note_on_c, 1, 67, 0
3, 114960, Note_on_c, 1, 65, 72
3, 115152, Note_on_c, 1, 65, 0
3, 115200, Note_on_c, 1, 70, 72
3, 115584, Note_on_c, 1, 70, 0
3, 115680, Note_on_c, 1, 70, 72
3, 115872, Note_on_c, 1, 70, 0
3, 115920, Note_on_c, 1, 68, 85
3, 116304, Note_on_c, 1, 68, 0
3, 116400, Note_on_c, 1, 67, 85
3, 116592, Note_on_c, 1, 67, 0
3, 116640, Note_on_c, 1, 72, 94
3, 117024, Note_on_c, 1, 72, 0
3, 117120, Note_on_c, 1, 72, 94
3, 117312, Note_on_c, 1, 72, 0
3, 117360, Note_on_c, 1, 70, 105
3, 117744, Note_on_c, 1, 70, 0
3, 117840, Note_on_c, 1, 68, 105
3, 118032, Note_on_c, 1, 68, 0
3, 118080, Note_on_c, 1, 73, 116
3, 118656, Note_on_c, 1, 73, 0
3, 119520, Note_on_c, 1, 72, 116
3, 119712, Note_on_c, 1, 72, 0
3, 119760, Note_on_c, 1, 70, 116
3, 119952, Note_on_c, 1, 70, 0
3, 121680, Note_on_c, 1, 72, 116
3, 122064, Note_on_c, 1, 72, 0
3, 122160, Note_on_c, 1, 72, 116
3, 122352, Note_on_c, 1, 72, 0
3, 122400, Note_on_c, 1, 72, 116
3, 122784, Note_on_c, 1, 72, 0
3, 122880, Note_on_c, 1, 72, 116
3, 123072, Note_on_c, 1, 72, 0
3, 123120, Note_on_c, 1, 72, 116
3, 123504, Note_on_c, 1, 72, 0
3, 123600, Note_on_c, 1, 72, 116
3, 123792, Note_on_c, 1, 72, 0
3, 123840, Note_on_c, 1, 72, 116
3, 124224, Note_on_c, 1, 72, 0
3, 124320, Note_on_c, 1, 72, 116
3, 124512, Note_on_c, 1, 72, 0
3, 124560, Note_on_c, 1, 72, 116
3, 124944, Note_on_c, 1, 72, 0
3, 125040, Note_on_c, 1, 72, 116
3, 125232, Note_on_c, 1, 72, 0
3, 125280, Note_on_c, 1, 77, 127
3, 126432, Note_on_c, 1, 77, 0
3, 126720, Note_on_c, 1, 72, 116
3, 127104, Note_on_c, 1, 72, 0
3, 127200, Note_on_c, 1, 72, 116
3, 127392, Note_on_c, 1, 72, 0
3, 127440, Note_on_c, 1, 72, 116
3, 127824, Note_on_c, 1, 72, 0
3, 127920, Note_on_c, 1, 72, 116
3, 128112, Note_on_c, 1, 72, 0
3, 128160, Note_on_c, 1, 77, 127
3, 131424, Note_on_c, 1, 77, 0
3, 131520, Note_on_c, 1, 75, 124
3, 131712, Note_on_c, 1, 75, 0
3, 131760, Note_on_c, 1, 75, 124
3, 131952, Note_on_c, 1, 75, 0
3, 132000, Note_on_c, 1, 73, 124
3, 132192, Note_on_c, 1, 73, 0
3, 132240, Note_on_c, 1, 70, 124
3, 132432, Note_on_c, 1, 70, 0
3, 132480, Note_on_c, 1, 68, 124
3, 133056, Note_on_c, 1, 68, 0
3, 158400, End_track
0, 0, End_of_file