0, 0, Header, 1, 6, 120
1, 0, Start_track
1, 0, Title_t, "untitled"
1, 0, SMPTE_offset, 96, 0, 3, 0, 0
1, 0, MIDI_port, 0
1, 0, System_exclusive, 0A, 41, 10, 42, 12, 40, 00, 7F, 00, 41, F7
1, 0, MIDI_port, 0
1, 0, System_exclusive, 0A, 41, 10, 42, 12, 40, 01, 30, 03, 0C, F7
1, 0, MIDI_port, 0
1, 0, Time_signature, 12, 4, 6, 8
1, 0, Key_signature, -4, "major"
1, 0, Tempo, 434783
1, 690, Tempo, 1200000
1, 720, Tempo, 447761
1, 2160, Tempo, 451128
1, 3240, Tempo, 476190
1, 3242, Tempo, 472441
1, 3318, Tempo, 508475
1, 3386, Tempo, 535714
1, 3438, Tempo, 606061
1, 3494, Tempo, 681818
1, 3544, Tempo, 810811
1, 3570, Tempo, 952381
1, 3602, Tempo, 545455
1, 3680, Tempo, 517241
1, 3756, Tempo, 491803
1, 3812, Tempo, 458015
1, 3870, Tempo, 428571
1, 4320, Tempo, 444444
1, 4500, Tempo, 458015
1, 4682, Tempo, 444444
1, 4862, Tempo, 465116
1, 4980, Tempo, 491803
1, 5040, Tempo, 428571
1, 5882, Tempo, 437956
1, 6002, Tempo, 447761
1, 6062, Tempo, 476190
1, 6122, Tempo, 517241
1, 6208, Tempo, 545455
1, 6300, Tempo, 571429
1, 6360, Tempo, 625000
1, 6422, Tempo, 714286
1, 6480, Key_signature, 4, "major"
1, 6480, Tempo, 652174
1, 6542, Tempo, 618557
1, 6602, Tempo, 571429
1, 6660, Tempo, 526316
1, 7108, Tempo, 512821
1, 7290, Tempo, 495868
1, 7440, Tempo, 476190
1, 7498, Tempo, 512821
1, 7562, Tempo, 528634
1, 7624, Tempo, 497925
1, 7682, Tempo, 481928
1, 7740, Tempo, 495868
1, 7802, Tempo, 568720
1, 7860, Tempo, 615385
1, 7894, Tempo, 693642
1, 7922, Tempo, 952381
1, 7947, Tempo, 727273
1, 7966, Tempo, 638298
1, 8024, Tempo, 582524
1, 8076, Tempo, 545455
1, 8118, Tempo, 530973
1, 8222, Tempo, 500000
1, 8372, Tempo, 468750
1, 8522, Tempo, 493827
1, 8580, Tempo, 526316
1, 8640, Key_signature, -4, "major"
1, 8642, Tempo, 483871
1, 9122, Tempo, 504202
1, 9182, Tempo, 566038
1, 9242, Tempo, 655738
1, 9302, Tempo, 789474
1, 9360, Tempo, 693642
1, 9392, Tempo, 606061
1, 9456, Tempo, 526316
1, 9534, Tempo, 560748
1, 9602, Tempo, 579710
1, 9960, Tempo, 697674
1, 10020, Tempo, 916031
1, 10052, Tempo, 727273
1, 10082, Tempo, 597015
1, 10320, Tempo, 705882
1, 10380, Tempo, 764331
1, 10442, Tempo, 638298
1, 10680, Tempo, 789474
1, 10740, Tempo, 875912
1, 10800, Tempo, 609137
1, 10860, Tempo, 697674
1, 10920, Tempo, 603015
1, 10984, Tempo, 638298
1, 11042, Tempo, 560748
1, 11100, Tempo, 600000
1, 11162, Tempo, 574163
1, 11220, Tempo, 606061
1, 11284, Tempo, 558140
1, 11340, Tempo, 576923
1, 11400, Tempo, 526316
1, 11460, Tempo, 550459
1, 11518, Tempo, 502092
1, 11582, Tempo, 489796
1, 11700, Tempo, 476190
1, 11820, Tempo, 459770
1, 11882, Tempo, 495868
1, 11942, Tempo, 571429
1, 12000, Tempo, 542986
1, 12062, Tempo, 662983
1, 12120, Tempo, 638298
1, 12180, Tempo, 731707
1, 12242, Tempo, 638298
1, 12294, Tempo, 582524
1, 12368, Tempo, 545455
1, 12450, Tempo, 508475
1, 12670, Tempo, 491803
1, 12764, Tempo, 526316
1, 12960, Tempo, 547945
1, 13142, Tempo, 535714
1, 13230, Tempo, 526316
1, 13382, Tempo, 517241
1, 13468, Tempo, 510638
1, 13470, Tempo, 512821
1, 13560, Tempo, 550459
1, 13622, Tempo, 689655
1, 13682, Tempo, 666667
1, 13742, Tempo, 634921
1, 13744, Tempo, 631579
1, 13804, Tempo, 591133
1, 13862, Tempo, 563380
1, 13864, Tempo, 560748
1, 13982, Tempo, 524017
1, 14042, Tempo, 481928
1, 14220, Tempo, 502092
1, 14280, Tempo, 603015
1, 14340, Tempo, 710059
1, 14402, Tempo, 648649
1, 14460, Tempo, 621762
1, 14522, Tempo, 576923
1, 14580, Tempo, 555556
1, 14642, Tempo, 535714
1, 14762, Tempo, 558140
1, 14882, Tempo, 648649
1, 14940, Tempo, 585366
1, 15000, Tempo, 545455
1, 15060, Tempo, 521739
1, 15120, Tempo, 491803
1, 15300, Tempo, 480000
1, 15602, Tempo, 515021
1, 15664, Tempo, 489796
1, 15720, Tempo, 510638
1, 15782, Tempo, 478088
1, 16380, Tempo, 508475
1, 16500, Tempo, 493827
1, 17822, Tempo, 524017
1, 17880, Tempo, 576923
1, 17940, Tempo, 681818
1, 18004, Tempo, 714286
1, 18030, Tempo, 628272
1, 18090, Tempo, 495868
1, 18180, Tempo, 478088
1, 18360, Tempo, 476190
1, 18462, Tempo, 478088
1, 18564, Tempo, 480000
1, 18572, Tempo, 491803
1, 18594, Tempo, 493827
1, 18616, Tempo, 495868
1, 18638, Tempo, 497925
1, 18660, Tempo, 500000
1, 18682, Tempo, 502092
1, 18704, Tempo, 504202
1, 18720, Tempo, 519481
1, 18754, Tempo, 521739
1, 18786, Tempo, 524017
1, 18820, Tempo, 526316
1, 18852, Tempo, 528634
1, 18886, Tempo, 530973
1, 18902, Tempo, 510638
1, 18938, Tempo, 512821
1, 18974, Tempo, 515021
1, 19010, Tempo, 517241
1, 19046, Tempo, 519481
1, 19078, Tempo, 524017
1, 19080, Tempo, 504202
1, 19104, Tempo, 506329
1, 19128, Tempo, 508475
1, 19152, Tempo, 510638
1, 19176, Tempo, 512821
1, 19198, Tempo, 515021
1, 19222, Tempo, 517241
1, 19246, Tempo, 519481
1, 19270, Tempo, 521739
1, 19294, Tempo, 524017
1, 19316, Tempo, 526316
1, 19340, Tempo, 528634
1, 19364, Tempo, 530973
1, 19388, Tempo, 533333
1, 19412, Tempo, 535714
1, 19434, Tempo, 538117
1, 19436, Tempo, 542986
1, 19442, Tempo, 588235
1, 19532, Tempo, 631579
1, 19622, Tempo, 697674
1, 19714, Tempo, 722892
1, 19890, Tempo, 770119
1, 19892, Tempo, 765209
1, 19980, Tempo, 800000
1, 20040, Tempo, 882742
1, 20102, Tempo, 1290323
1, 20134, Tempo, 2000000
1, 20160, Tempo, 905797
1, 20190, Tempo, 854457
1, 20218, Tempo, 722892
1, 20252, Tempo, 655738
1, 20310, Tempo, 594059
1, 20370, Tempo, 560748
1, 20430, Tempo, 526316
1, 20518, Tempo, 508475
1, 20882, Tempo, 491803
1, 21600, Tempo, 481928
1, 21662, Tempo, 472441
1, 21722, Tempo, 465116
1, 22322, Tempo, 481928
1, 22380, Tempo, 497925
1, 22442, Tempo, 566038
1, 22502, Tempo, 524017
1, 22556, Tempo, 574163
1, 22558, Tempo, 576923
1, 22618, Tempo, 652174
1, 22682, Tempo, 634921
1, 22740, Tempo, 571429
1, 22800, Tempo, 540541
1, 22862, Tempo, 521739
1, 23042, Tempo, 500000
1, 23100, Tempo, 515021
1, 23158, Tempo, 530973
1, 23220, Tempo, 566038
1, 23282, Tempo, 609137
1, 23340, Tempo, 745342
1, 23402, Tempo, 821918
1, 23430, Tempo, 714286
1, 23460, Tempo, 714286
1, 23476, Tempo, 652174
1, 23522, Tempo, 659341
1, 23582, Tempo, 710059
1, 23584, Tempo, 631579
1, 23640, Tempo, 612245
1, 23702, Tempo, 552995
1, 23762, Tempo, 508475
1, 23820, Tempo, 461538
1, 23880, Tempo, 433213
1, 24210, Tempo, 449438
1, 24302, Tempo, 478088
1, 24392, Tempo, 526316
1, 24436, Tempo, 655738
1, 24482, Tempo, 515021
1, 24538, Tempo, 500000
1, 24600, Tempo, 533333
1, 24660, Tempo, 609137
1, 24718, Tempo, 576923
1, 24780, Tempo, 568720
1, 24840, Tempo, 588235
1, 24898, Tempo, 571429
1, 24962, Tempo, 588235
1, 25020, Tempo, 659341
1, 25080, Tempo, 750000
1, 25138, Tempo, 857143
1, 25200, Tempo, 566038
1, 25262, Tempo, 481928
1, 25320, Tempo, 442804
1, 25560, Tempo, 447761
1, 25920, Tempo, 459770
1, 26102, Tempo, 474308
1, 26280, Tempo, 452830
1, 26340, Tempo, 474308
1, 26400, Tempo, 502092
1, 26462, Tempo, 472441
1, 26518, Tempo, 512821
1, 26580, Tempo, 555556
1, 26640, Tempo, 481928
1, 27000, Tempo, 489796
1, 27060, Tempo, 502092
1, 27122, Tempo, 510638
1, 27180, Tempo, 524017
1, 27242, Tempo, 535714
1, 27304, Tempo, 547945
1, 27362, Tempo, 579710
1, 27420, Tempo, 606061
1, 27484, Tempo, 634921
1, 27540, Tempo, 677966
1, 27768, Tempo, 615385
1, 28082, Tempo, 645161
1, 28376, Tempo, 689655
1, 28378, Tempo, 774194
1, 28466, Tempo, 863309
1, 28602, Tempo, 960000
1, 28602, End_track
2, 0, Start_track
2, 0, MIDI_port, 0
2, 0, Title_t, "Etude No. 10"
2, 30, Control_c, 0, 0, 0
2, 32, Program_c, 0, 0
2, 33, Control_c, 0, 7, 127
2, 120, Control_c, 0, 93, 20
2, 120, Control_c, 0, 91, 64
2, 120, Control_c, 0, 0, 0
2, 690, Note_on_c, 0, 63, 73
2, 717, Control_c, 0, 64, 127
2, 719, Note_on_c, 0, 63, 0
2, 720, Note_on_c, 0, 68, 77
2, 720, Note_on_c, 0, 44, 61
2, 739, Note_on_c, 0, 44, 0
2, 747, Note_on_c, 0, 68, 0
2, 750, Note_on_c, 0, 72, 76
2, 750, Note_on_c, 0, 80, 78
2, 750, Note_on_c, 0, 60, 62
2, 779, Note_on_c, 0, 60, 0
2, 779, Note_on_c, 0, 80, 0
2, 779, Note_on_c, 0, 72, 0
2, 780, Note_on_c, 0, 70, 77
2, 780, Note_on_c, 0, 56, 62
2, 807, Note_on_c, 0, 70, 0
2, 809, Note_on_c, 0, 56, 0
2, 810, Note_on_c, 0, 73, 65
2, 810, Note_on_c, 0, 82, 69
2, 810, Note_on_c, 0, 51, 58
2, 839, Note_on_c, 0, 82, 0
2, 839, Note_on_c, 0, 73, 0
2, 840, Note_on_c, 0, 71, 69
2, 840, Note_on_c, 0, 63, 62
2, 867, Note_on_c, 0, 71, 0
2, 869, Note_on_c, 0, 63, 0
2, 870, Note_on_c, 0, 83, 85
2, 870, Note_on_c, 0, 74, 78
2, 870, Note_on_c, 0, 56, 59
2, 872, Control_c, 0, 64, 0
2, 889, Note_on_c, 0, 56, 0
2, 899, Note_on_c, 0, 74, 0
2, 899, Note_on_c, 0, 83, 0
2, 900, Note_on_c, 0, 72, 71
2, 900, Note_on_c, 0, 44, 59
2, 904, Control_c, 0, 64, 127
2, 919, Note_on_c, 0, 44, 0
2, 920, Note_on_c, 0, 51, 0
2, 927, Note_on_c, 0, 72, 0
2, 930, Note_on_c, 0, 84, 80
2, 930, Note_on_c, 0, 75, 65
2, 930, Note_on_c, 0, 60, 60
2, 959, Note_on_c, 0, 60, 0
2, 959, Note_on_c, 0, 75, 0
2, 959, Note_on_c, 0, 84, 0
2, 960, Note_on_c, 0, 73, 58
2, 960, Note_on_c, 0, 56, 62
2, 987, Note_on_c, 0, 73, 0
2, 989, Note_on_c, 0, 56, 0
2, 990, Note_on_c, 0, 76, 78
2, 990, Note_on_c, 0, 85, 74
2, 990, Note_on_c, 0, 51, 58
2, 1019, Note_on_c, 0, 85, 0
2, 1019, Note_on_c, 0, 76, 0
2, 1020, Note_on_c, 0, 74, 62
2, 1020, Note_on_c, 0, 63, 56
2, 1047, Note_on_c, 0, 74, 0
2, 1049, Note_on_c, 0, 63, 0
2, 1050, Note_on_c, 0, 86, 82
2, 1050, Note_on_c, 0, 77, 67
2, 1050, Note_on_c, 0, 56, 57
2, 1055, Control_c, 0, 64, 0
2, 1069, Note_on_c, 0, 56, 0
2, 1074, Control_c, 0, 64, 127
2, 1079, Note_on_c, 0, 77, 0
2, 1079, Note_on_c, 0, 86, 0
2, 1080, Note_on_c, 0, 75, 67
2, 1080, Note_on_c, 0, 44, 60
2, 1093, Note_on_c, 0, 51, 0
2, 1099, Note_on_c, 0, 44, 0
2, 1107, Note_on_c, 0, 75, 0
2, 1110, Note_on_c, 0, 79, 74
2, 1110, Note_on_c, 0, 87, 73
2, 1110, Note_on_c, 0, 61, 60
2, 1139, Note_on_c, 0, 61, 0
2, 1139, Note_on_c, 0, 87, 0
2, 1139, Note_on_c, 0, 79, 0
2, 1140, Note_on_c, 0, 77, 76
2, 1140, Note_on_c, 0, 55, 56
2, 1167, Note_on_c, 0, 77, 0
2, 1169, Note_on_c, 0, 55, 0
2, 1170, Note_on_c, 0, 80, 70
2, 1170, Note_on_c, 0, 89, 80
2, 1170, Note_on_c, 0, 51, 60
2, 1199, Note_on_c, 0, 89, 0
2, 1199, Note_on_c, 0, 80, 0
2, 1200, Note_on_c, 0, 75, 69
2, 1200, Note_on_c, 0, 63, 55
2, 1227, Note_on_c, 0, 75, 0
2, 1227, Control_c, 0, 64, 0
2, 1229, Note_on_c, 0, 63, 0
2, 1230, Note_on_c, 0, 79, 58
2, 1230, Note_on_c, 0, 87, 71
2, 1230, Note_on_c, 0, 55, 55
2, 1249, Note_on_c, 0, 55, 0
2, 1258, Control_c, 0, 64, 127
2, 1259, Note_on_c, 0, 87, 0
2, 1259, Note_on_c, 0, 79, 0
2, 1260, Note_on_c, 0, 72, 61
2, 1260, Note_on_c, 0, 44, 58
2, 1275, Note_on_c, 0, 51, 0
2, 1279, Note_on_c, 0, 44, 0
2, 1287, Note_on_c, 0, 72, 0
2, 1290, Note_on_c, 0, 75, 67
2, 1290, Note_on_c, 0, 84, 70
2, 1290, Note_on_c, 0, 60, 58
2, 1319, Note_on_c, 0, 60, 0
2, 1319, Note_on_c, 0, 84, 0
2, 1319, Note_on_c, 0, 75, 0
2, 1320, Note_on_c, 0, 70, 68
2, 1320, Note_on_c, 0, 56, 59
2, 1347, Note_on_c, 0, 70, 0
2, 1349, Note_on_c, 0, 56, 0
2, 1350, Note_on_c, 0, 74, 63
2, 1350, Note_on_c, 0, 82, 65
2, 1350, Note_on_c, 0, 51, 60
2, 1379, Note_on_c, 0, 82, 0
2, 1379, Note_on_c, 0, 74, 0
2, 1380, Note_on_c, 0, 72, 74
2, 1380, Note_on_c, 0, 63, 59
2, 1398, Control_c, 0, 64, 0
2, 1407, Note_on_c, 0, 72, 0
2, 1409, Note_on_c, 0, 63, 0
2, 1410, Note_on_c, 0, 84, 80
2, 1410, Note_on_c, 0, 75, 75
2, 1410, Note_on_c, 0, 56, 63
2, 1429, Note_on_c, 0, 56, 0
2, 1437, Control_c, 0, 64, 127
2, 1439, Note_on_c, 0, 75, 0
2, 1439, Note_on_c, 0, 84, 0
2, 1440, Note_on_c, 0, 70, 68
2, 1440, Note_on_c, 0, 44, 69
2, 1456, Note_on_c, 0, 51, 0
2, 1459, Note_on_c, 0, 44, 0
2, 1467, Note_on_c, 0, 70, 0
2, 1470, Note_on_c, 0, 82, 81
2, 1470, Note_on_c, 0, 74, 72
2, 1470, Note_on_c, 0, 61, 59
2, 1499, Note_on_c, 0, 61, 0
2, 1499, Note_on_c, 0, 74, 0
2, 1499, Note_on_c, 0, 82, 0
2, 1500, Note_on_c, 0, 72, 73
2, 1500, Note_on_c, 0, 55, 64
2, 1527, Note_on_c, 0, 72, 0
2, 1529, Note_on_c, 0, 55, 0
2, 1530, Note_on_c, 0, 84, 80
2, 1530, Note_on_c, 0, 75, 75
2, 1530, Note_on_c, 0, 51, 58
2, 1559, Note_on_c, 0, 75, 0
2, 1559, Note_on_c, 0, 84, 0
2, 1559, Control_c, 0, 64, 0
2, 1560, Note_on_c, 0, 67, 64
2, 1560, Note_on_c, 0, 63, 59
2, 1587, Note_on_c, 0, 67, 0
2, 1589, Note_on_c, 0, 63, 0
2, 1590, Note_on_c, 0, 70, 70
2, 1590, Note_on_c, 0, 79, 89
2, 1590, Note_on_c, 0, 55, 65
2, 1609, Note_on_c, 0, 55, 0
2, 1618, Control_c, 0, 64, 127
2, 1619, Note_on_c, 0, 79, 0
2, 1619, Note_on_c, 0, 70, 0
2, 1620, Note_on_c, 0, 68, 74
2, 1620, Note_on_c, 0, 44, 67
2, 1639, Note_on_c, 0, 44, 0
2, 1640, Note_on_c, 0, 51, 0
2, 1647, Note_on_c, 0, 68, 0
2, 1650, Note_on_c, 0, 72, 66
2, 1650, Note_on_c, 0, 80, 77
2, 1650, Note_on_c, 0, 60, 63
2, 1679, Note_on_c, 0, 60, 0
2, 1679, Note_on_c, 0, 80, 0
2, 1679, Note_on_c, 0, 72, 0
2, 1680, Note_on_c, 0, 67, 64
2, 1680, Note_on_c, 0, 56, 67
2, 1707, Note_on_c, 0, 67, 0
2, 1709, Note_on_c, 0, 56, 0
2, 1710, Note_on_c, 0, 70, 60
2, 1710, Note_on_c, 0, 79, 69
2, 1710, Note_on_c, 0, 51, 62
2, 1739, Note_on_c, 0, 79, 0
2, 1739, Note_on_c, 0, 70, 0
2, 1739, Control_c, 0, 64, 0
2, 1740, Note_on_c, 0, 68, 68
2, 1740, Note_on_c, 0, 63, 58
2, 1767, Note_on_c, 0, 68, 0
2, 1769, Note_on_c, 0, 63, 0
2, 1770, Note_on_c, 0, 80, 71
2, 1770, Note_on_c, 0, 72, 65
2, 1770, Note_on_c, 0, 56, 60
2, 1789, Note_on_c, 0, 56, 0
2, 1799, Note_on_c, 0, 72, 0
2, 1799, Note_on_c, 0, 80, 0
2, 1800, Note_on_c, 0, 65, 62
2, 1800, Note_on_c, 0, 46, 59
2, 1801, Control_c, 0, 64, 127
2, 1816, Note_on_c, 0, 51, 0
2, 1819, Note_on_c, 0, 46, 0
2, 1827, Note_on_c, 0, 65, 0
2, 1830, Note_on_c, 0, 68, 66
2, 1830, Note_on_c, 0, 77, 66
2, 1830, Note_on_c, 0, 62, 57
2, 1859, Note_on_c, 0, 62, 0
2, 1859, Note_on_c, 0, 77, 0
2, 1859, Note_on_c, 0, 68, 0
2, 1860, Note_on_c, 0, 67, 64
2, 1860, Note_on_c, 0, 58, 61
2, 1887, Note_on_c, 0, 67, 0
2, 1889, Note_on_c, 0, 58, 0
2, 1890, Note_on_c, 0, 79, 71
2, 1890, Note_on_c, 0, 70, 63
2, 1890, Note_on_c, 0, 56, 65
2, 1917, Control_c, 0, 64, 0
2, 1919, Note_on_c, 0, 70, 0
2, 1919, Note_on_c, 0, 79, 0
2, 1920, Note_on_c, 0, 65, 65
2, 1920, Note_on_c, 0, 62, 60
2, 1947, Note_on_c, 0, 65, 0
2, 1949, Note_on_c, 0, 62, 0
2, 1949, Note_on_c, 0, 56, 0
2, 1950, Note_on_c, 0, 68, 75
2, 1950, Note_on_c, 0, 77, 65
2, 1950, Note_on_c, 0, 58, 55
2, 1964, Note_on_c, 0, 58, 0
2, 1973, Control_c, 0, 64, 127
2, 1979, Note_on_c, 0, 77, 0
2, 1979, Note_on_c, 0, 68, 0
2, 1980, Note_on_c, 0, 64, 55
2, 1980, Note_on_c, 0, 39, 56
2, 1990, Note_on_c, 0, 39, 0
2, 2007, Note_on_c, 0, 64, 0
2, 2010, Note_on_c, 0, 67, 62
2, 2010, Note_on_c, 0, 76, 68
2, 2010, Note_on_c, 0, 61, 59
2, 2039, Note_on_c, 0, 61, 0
2, 2039, Note_on_c, 0, 76, 0
2, 2039, Note_on_c, 0, 67, 0
2, 2040, Note_on_c, 0, 63, 62
2, 2040, Note_on_c, 0, 58, 59
2, 2067, Note_on_c, 0, 63, 0
2, 2069, Note_on_c, 0, 58, 0
2, 2070, Note_on_c, 0, 75, 75
2, 2070, Note_on_c, 0, 67, 61
2, 2070, Note_on_c, 0, 51, 70
2, 2091, Control_c, 0, 64, 0
2, 2099, Note_on_c, 0, 51, 0
2, 2099, Note_on_c, 0, 67, 0
2, 2099, Note_on_c, 0, 75, 0
2, 2100, Note_on_c, 0, 67, 61
2, 2100, Note_on_c, 0, 61, 58
2, 2127, Note_on_c, 0, 67, 0
2, 2129, Note_on_c, 0, 61, 0
2, 2130, Note_on_c, 0, 79, 72
2, 2130, Note_on_c, 0, 70, 61
2, 2130, Note_on_c, 0, 58, 60
2, 2149, Note_on_c, 0, 58, 0
2, 2154, Control_c, 0, 64, 127
2, 2159, Note_on_c, 0, 70, 0
2, 2159, Note_on_c, 0, 79, 0
2, 2160, Note_on_c, 0, 68, 68
2, 2160, Note_on_c, 0, 44, 70
2, 2179, Note_on_c, 0, 44, 0
2, 2187, Note_on_c, 0, 68, 0
2, 2190, Note_on_c, 0, 80, 79
2, 2190, Note_on_c, 0, 72, 69
2, 2190, Note_on_c, 0, 60, 64
2, 2219, Note_on_c, 0, 60, 0
2, 2219, Note_on_c, 0, 72, 0
2, 2219, Note_on_c, 0, 80, 0
2, 2220, Note_on_c, 0, 70, 75
2, 2220, Note_on_c, 0, 56, 68
2, 2247, Note_on_c, 0, 70, 0
2, 2249, Note_on_c, 0, 56, 0
2, 2250, Note_on_c, 0, 73, 67
2, 2250, Note_on_c, 0, 82, 88
2, 2250, Note_on_c, 0, 51, 71
2, 2279, Note_on_c, 0, 82, 0
2, 2279, Note_on_c, 0, 73, 0
2, 2280, Note_on_c, 0, 71, 76
2, 2280, Note_on_c, 0, 63, 70
2, 2288, Control_c, 0, 64, 0
2, 2307, Note_on_c, 0, 71, 0
2, 2309, Note_on_c, 0, 63, 0
2, 2310, Note_on_c, 0, 74, 70
2, 2310, Note_on_c, 0, 83, 79
2, 2310, Note_on_c, 0, 56, 69
2, 2329, Note_on_c, 0, 56, 0
2, 2339, Note_on_c, 0, 83, 0
2, 2339, Note_on_c, 0, 74, 0
2, 2340, Note_on_c, 0, 72, 71
2, 2340, Note_on_c, 0, 44, 72
2, 2346, Control_c, 0, 64, 127
2, 2359, Note_on_c, 0, 44, 0
2, 2359, Note_on_c, 0, 51, 0
2, 2367, Note_on_c, 0, 72, 0
2, 2370, Note_on_c, 0, 75, 64
2, 2370, Note_on_c, 0, 84, 81
2, 2370, Note_on_c, 0, 60, 71
2, 2399, Note_on_c, 0, 60, 0
2, 2399, Note_on_c, 0, 84, 0
2, 2399, Note_on_c, 0, 75, 0
2, 2400, Note_on_c, 0, 73, 72
2, 2400, Note_on_c, 0, 56, 71
2, 2427, Note_on_c, 0, 73, 0
2, 2429, Note_on_c, 0, 56, 0
2, 2430, Note_on_c, 0, 85, 81
2, 2430, Note_on_c, 0, 76, 69
2, 2430, Note_on_c, 0, 51, 69
2, 2459, Note_on_c, 0, 76, 0
2, 2459, Note_on_c, 0, 85, 0
2, 2460, Note_on_c, 0, 74, 70
2, 2460, Note_on_c, 0, 63, 69
2, 2483, Control_c, 0, 64, 0
2, 2487, Note_on_c, 0, 74, 0
2, 2489, Note_on_c, 0, 63, 0
2, 2490, Note_on_c, 0, 86, 81
2, 2490, Note_on_c, 0, 77, 57
2, 2490, Note_on_c, 0, 56, 67
2, 2509, Note_on_c, 0, 56, 0
2, 2519, Note_on_c, 0, 77, 0
2, 2519, Note_on_c, 0, 86, 0
2, 2520, Note_on_c, 0, 75, 72
2, 2520, Note_on_c, 0, 44, 67
2, 2530, Control_c, 0, 64, 127
2, 2534, Note_on_c, 0, 51, 0
2, 2539, Note_on_c, 0, 44, 0
2, 2547, Note_on_c, 0, 75, 0
2, 2550, Note_on_c, 0, 87, 81
2, 2550, Note_on_c, 0, 79, 57
2, 2550, Note_on_c, 0, 61, 66
2, 2579, Note_on_c, 0, 61, 0
2, 2579, Note_on_c, 0, 79, 0
2, 2579, Note_on_c, 0, 87, 0
2, 2580, Note_on_c, 0, 77, 78
2, 2580, Note_on_c, 0, 55, 68
2, 2607, Note_on_c, 0, 77, 0
2, 2609, Note_on_c, 0, 55, 0
2, 2610, Note_on_c, 0, 89, 81
2, 2610, Note_on_c, 0, 80, 68
2, 2610, Note_on_c, 0, 51, 68
2, 2639, Note_on_c, 0, 80, 0
2, 2639, Note_on_c, 0, 89, 0
2, 2640, Note_on_c, 0, 75, 72
2, 2640, Note_on_c, 0, 63, 69
2, 2667, Note_on_c, 0, 75, 0
2, 2669, Note_on_c, 0, 63, 0
2, 2670, Note_on_c, 0, 79, 66
2, 2670, Note_on_c, 0, 87, 78
2, 2670, Note_on_c, 0, 55, 67
2, 2680, Control_c, 0, 64, 0
2, 2689, Note_on_c, 0, 55, 0
2, 2699, Note_on_c, 0, 87, 0
2, 2699, Note_on_c, 0, 79, 0
2, 2700, Note_on_c, 0, 72, 69
2, 2700, Note_on_c, 0, 44, 69
2, 2715, Control_c, 0, 64, 127
2, 2719, Note_on_c, 0, 44, 0
2, 2720, Note_on_c, 0, 51, 0
2, 2727, Note_on_c, 0, 72, 0
2, 2730, Note_on_c, 0, 84, 82
2, 2730, Note_on_c, 0, 75, 66
2, 2730, Note_on_c, 0, 60, 69
2, 2759, Note_on_c, 0, 60, 0
2, 2759, Note_on_c, 0, 75, 0
2, 2759, Note_on_c, 0, 84, 0
2, 2760, Note_on_c, 0, 70, 67
2, 2760, Note_on_c, 0, 56, 69
2, 2787, Note_on_c, 0, 70, 0
2, 2789, Note_on_c, 0, 56, 0
2, 2790, Note_on_c, 0, 73, 68
2, 2790, Note_on_c, 0, 82, 84
2, 2790, Note_on_c, 0, 51, 65
2, 2819, Note_on_c, 0, 82, 0
2, 2819, Note_on_c, 0, 73, 0
2, 2820, Note_on_c, 0, 72, 76
2, 2820, Note_on_c, 0, 63, 64
2, 2847, Note_on_c, 0, 72, 0
2, 2849, Note_on_c, 0, 63, 0
2, 2850, Note_on_c, 0, 84, 81
2, 2850, Note_on_c, 0, 75, 54
2, 2850, Note_on_c, 0, 56, 64
2, 2862, Control_c, 0, 64, 0
2, 2869, Note_on_c, 0, 56, 0
2, 2879, Note_on_c, 0, 75, 0
2, 2879, Note_on_c, 0, 84, 0
2, 2880, Note_on_c, 0, 70, 72
2, 2880, Note_on_c, 0, 46, 63
2, 2893, Note_on_c, 0, 46, 0
2, 2894, Control_c, 0, 64, 127
2, 2895, Note_on_c, 0, 51, 0
2, 2907, Note_on_c, 0, 70, 0
2, 2910, Note_on_c, 0, 82, 83
2, 2910, Note_on_c, 0, 74, 69
2, 2910, Note_on_c, 0, 62, 58
2, 2939, Note_on_c, 0, 62, 0
2, 2939, Note_on_c, 0, 74, 0
2, 2939, Note_on_c, 0, 82, 0
2, 2940, Note_on_c, 0, 72, 75
2, 2940, Note_on_c, 0, 58, 58
2, 2967, Note_on_c, 0, 72, 0
2, 2969, Note_on_c, 0, 58, 0
2, 2970, Note_on_c, 0, 84, 84
2, 2970, Note_on_c, 0, 75, 65
2, 2970, Note_on_c, 0, 56, 55
2, 2999, Note_on_c, 0, 75, 0
2, 2999, Note_on_c, 0, 84, 0
2, 3000, Note_on_c, 0, 74, 70
2, 3000, Note_on_c, 0, 62, 65
2, 3020, Note_on_c, 0, 56, 0
2, 3027, Note_on_c, 0, 74, 0
2, 3029, Note_on_c, 0, 62, 0
2, 3030, Note_on_c, 0, 86, 81
2, 3030, Note_on_c, 0, 77, 62
2, 3030, Note_on_c, 0, 58, 70
2, 3039, Control_c, 0, 64, 0
2, 3059, Note_on_c, 0, 58, 0
2, 3059, Note_on_c, 0, 77, 0
2, 3059, Note_on_c, 0, 86, 0
2, 3060, Note_on_c, 0, 75, 70
2, 3060, Note_on_c, 0, 51, 59
2, 3069, Control_c, 0, 64, 127
2, 3072, Note_on_c, 0, 51, 0
2, 3087, Note_on_c, 0, 75, 0
2, 3090, Note_on_c, 0, 87, 80
2, 3090, Note_on_c, 0, 79, 55
2, 3090, Note_on_c, 0, 67, 59
2, 3119, Note_on_c, 0, 67, 0
2, 3119, Note_on_c, 0, 79, 0
2, 3119, Note_on_c, 0, 87, 0
2, 3120, Note_on_c, 0, 77, 75
2, 3120, Note_on_c, 0, 63, 62
2, 3129, Control_c, 0, 64, 0
2, 3147, Note_on_c, 0, 77, 0
2, 3149, Note_on_c, 0, 63, 0
2, 3150, Note_on_c, 0, 80, 72
2, 3150, Control_c, 0, 64, 127
2, 3150, Note_on_c, 0, 89, 84
2, 3150, Note_on_c, 0, 60, 65
2, 3179, Note_on_c, 0, 60, 0
2, 3179, Note_on_c, 0, 89, 0
2, 3179, Note_on_c, 0, 80, 0
2, 3180, Note_on_c, 0, 78, 75
2, 3180, Note_on_c, 0, 69, 64
2, 3207, Note_on_c, 0, 78, 0
2, 3209, Note_on_c, 0, 69, 0
2, 3210, Note_on_c, 0, 90, 82
2, 3210, Note_on_c, 0, 81, 70
2, 3210, Note_on_c, 0, 63, 62
2, 3217, Control_c, 0, 64, 0
2, 3239, Note_on_c, 0, 63, 0
2, 3239, Note_on_c, 0, 81, 0
2, 3239, Note_on_c, 0, 90, 0
2, 3240, Note_on_c, 0, 79, 73
2, 3240, Note_on_c, 0, 58, 68
2, 3243, Control_c, 0, 64, 127
2, 3267, Note_on_c, 0, 79, 0
2, 3269, Note_on_c, 0, 58, 0
2, 3270, Note_on_c, 0, 82, 68
2, 3270, Note_on_c, 0, 91, 81
2, 3270, Note_on_c, 0, 70, 57
2, 3299, Note_on_c, 0, 70, 0
2, 3299, Note_on_c, 0, 91, 0
2, 3299, Note_on_c, 0, 82, 0
2, 3300, Note_on_c, 0, 80, 70
2, 3300, Note_on_c, 0, 63, 70
2, 3313, Control_c, 0, 64, 0
2, 3327, Note_on_c, 0, 80, 0
2, 3329, Note_on_c, 0, 63, 0
2, 3330, Note_on_c, 0, 92, 82
2, 3330, Note_on_c, 0, 84, 69
2, 3330, Note_on_c, 0, 58, 60
2, 3336, Control_c, 0, 64, 127
2, 3359, Note_on_c, 0, 58, 0
2, 3359, Note_on_c, 0, 84, 0
2, 3359, Note_on_c, 0, 92, 0
2, 3360, Note_on_c, 0, 74, 67
2, 3360, Note_on_c, 0, 68, 57
2, 3387, Note_on_c, 0, 74, 0
2, 3389, Note_on_c, 0, 68, 0
2, 3390, Note_on_c, 0, 77, 57
2, 3390, Note_on_c, 0, 86, 82
2, 3390, Note_on_c, 0, 62, 56
2, 3396, Control_c, 0, 64, 0
2, 3409, Note_on_c, 0, 62, 0
2, 3413, Note_on_c, 0, 77, 0
2, 3418, Control_c, 0, 64, 127
2, 3419, Note_on_c, 0, 86, 0
2, 3420, Note_on_c, 0, 77, 72
2, 3420, Note_on_c, 0, 51, 56
2, 3439, Note_on_c, 0, 51, 0
2, 3447, Note_on_c, 0, 77, 0
2, 3450, Note_on_c, 0, 89, 82
2, 3450, Note_on_c, 0, 80, 66
2, 3450, Note_on_c, 0, 67, 58
2, 3479, Note_on_c, 0, 67, 0
2, 3479, Note_on_c, 0, 80, 0
2, 3479, Note_on_c, 0, 89, 0
2, 3480, Note_on_c, 0, 76, 68
2, 3480, Note_on_c, 0, 63, 58
2, 3507, Note_on_c, 0, 76, 0
2, 3509, Note_on_c, 0, 63, 0
2, 3510, Note_on_c, 0, 79, 65
2, 3510, Note_on_c, 0, 88, 82
2, 3510, Note_on_c, 0, 61, 59
2, 3539, Note_on_c, 0, 88, 0
2, 3539, Note_on_c, 0, 79, 0
2, 3540, Note_on_c, 0, 75, 68
2, 3540, Note_on_c, 0, 67, 57
2, 3567, Note_on_c, 0, 75, 0
2, 3569, Note_on_c, 0, 67, 0
2, 3570, Note_on_c, 0, 87, 81
2, 3570, Note_on_c, 0, 79, 57
2, 3570, Note_on_c, 0, 63, 59
2, 3577, Control_c, 0, 64, 0
2, 3599, Note_on_c, 0, 63, 0
2, 3599, Note_on_c, 0, 61, 0
2, 3599, Note_on_c, 0, 87, 0
2, 3599, Note_on_c, 0, 79, 0
2, 3600, Note_on_c, 0, 75, 67
2, 3600, Note_on_c, 0, 44, 65
2, 3616, Control_c, 0, 64, 127
2, 3619, Note_on_c, 0, 44, 0
2, 3627, Note_on_c, 0, 75, 0
2, 3630, Note_on_c, 0, 80, 70
2, 3630, Note_on_c, 0, 72, 70
2, 3630, Note_on_c, 0, 60, 58
2, 3657, Note_on_c, 0, 72, 0
2, 3657, Note_on_c, 0, 80, 0
2, 3659, Note_on_c, 0, 60, 0
2, 3660, Note_on_c, 0, 56, 57
2, 3662, Note_on_c, 0, 70, 79
2, 3689, Note_on_c, 0, 56, 0
2, 3690, Note_on_c, 0, 82, 59
2, 3690, Note_on_c, 0, 73, 59
2, 3690, Note_on_c, 0, 51, 53
2, 3710, Note_on_c, 0, 70, 0
2, 3714, Note_on_c, 0, 82, 0
2, 3714, Note_on_c, 0, 73, 0
2, 3719, Note_on_c, 0, 51, 0
2, 3720, Note_on_c, 0, 63, 58
2, 3721, Note_on_c, 0, 71, 76
2, 3732, Control_c, 0, 64, 0
2, 3749, Note_on_c, 0, 63, 0
2, 3750, Note_on_c, 0, 74, 64
2, 3750, Note_on_c, 0, 83, 64
2, 3750, Note_on_c, 0, 56, 57
2, 3765, Control_c, 0, 64, 127
2, 3769, Note_on_c, 0, 56, 0
2, 3772, Note_on_c, 0, 71, 0
2, 3774, Note_on_c, 0, 83, 0
2, 3774, Note_on_c, 0, 74, 0
2, 3780, Note_on_c, 0, 44, 59
2, 3781, Note_on_c, 0, 72, 80
2, 3799, Note_on_c, 0, 44, 0
2, 3810, Note_on_c, 0, 75, 61
2, 3810, Note_on_c, 0, 84, 61
2, 3810, Note_on_c, 0, 60, 61
2, 3827, Note_on_c, 0, 72, 0
2, 3834, Note_on_c, 0, 75, 0
2, 3834, Note_on_c, 0, 84, 0
2, 3839, Note_on_c, 0, 60, 0
2, 3840, Note_on_c, 0, 56, 61
2, 3841, Note_on_c, 0, 73, 74
2, 3869, Note_on_c, 0, 56, 0
2, 3870, Note_on_c, 0, 85, 61
2, 3870, Note_on_c, 0, 76, 61
2, 3870, Note_on_c, 0, 51, 60
2, 3885, Note_on_c, 0, 73, 0
2, 3894, Note_on_c, 0, 85, 0
2, 3894, Note_on_c, 0, 76, 0
2, 3899, Note_on_c, 0, 51, 0
2, 3900, Control_c, 0, 64, 0
2, 3900, Note_on_c, 0, 63, 60
2, 3901, Note_on_c, 0, 74, 74
2, 3929, Note_on_c, 0, 63, 0
2, 3930, Note_on_c, 0, 77, 58
2, 3930, Note_on_c, 0, 86, 58
2, 3930, Note_on_c, 0, 56, 62
2, 3942, Control_c, 0, 64, 127
2, 3949, Note_on_c, 0, 56, 0
2, 3949, Note_on_c, 0, 74, 0
2, 3954, Note_on_c, 0, 86, 0
2, 3954, Note_on_c, 0, 77, 0
2, 3960, Note_on_c, 0, 44, 73
2, 3961, Note_on_c, 0, 75, 86
2, 3979, Note_on_c, 0, 44, 0
2, 3990, Note_on_c, 0, 79, 68
2, 3990, Note_on_c, 0, 87, 68
2, 3990, Note_on_c, 0, 61, 57
2, 4004, Note_on_c, 0, 75, 0
2, 4014, Note_on_c, 0, 79, 0
2, 4014, Note_on_c, 0, 87, 0
2, 4019, Note_on_c, 0, 61, 0
2, 4020, Note_on_c, 0, 55, 64
2, 4022, Note_on_c, 0, 77, 87
2, 4049, Note_on_c, 0, 55, 0
2, 4050, Note_on_c, 0, 89, 73
2, 4050, Note_on_c, 0, 80, 73
2, 4050, Note_on_c, 0, 51, 61
2, 4059, Note_on_c, 0, 77, 0
2, 4074, Note_on_c, 0, 89, 0
2, 4074, Note_on_c, 0, 80, 0
2, 4079, Note_on_c, 0, 51, 0
2, 4080, Note_on_c, 0, 63, 60
2, 4081, Note_on_c, 0, 75, 83
2, 4094, Control_c, 0, 64, 0
2, 4109, Note_on_c, 0, 63, 0
2, 4110, Note_on_c, 0, 79, 68
2, 4110, Note_on_c, 0, 87, 68
2, 4110, Note_on_c, 0, 55, 64
2, 4124, Note_on_c, 0, 75, 0
2, 4129, Note_on_c, 0, 55, 0
2, 4130, Control_c, 0, 64, 127
2, 4134, Note_on_c, 0, 87, 0
2, 4134, Note_on_c, 0, 79, 0
2, 4140, Note_on_c, 0, 44, 70
2, 4142, Note_on_c, 0, 72, 83
2, 4159, Note_on_c, 0, 44, 0
2, 4170, Note_on_c, 0, 75, 63
2, 4170, Note_on_c, 0, 84, 63
2, 4170, Note_on_c, 0, 60, 62
2, 4179, Note_on_c, 0, 72, 0
2, 4194, Note_on_c, 0, 75, 0
2, 4194, Note_on_c, 0, 84, 0
2, 4199, Note_on_c, 0, 60, 0
2, 4200, Note_on_c, 0, 56, 61
2, 4201, Note_on_c, 0, 70, 78
2, 4229, Note_on_c, 0, 56, 0
2, 4230, Note_on_c, 0, 73, 66
2, 4230, Note_on_c, 0, 82, 66
2, 4230, Note_on_c, 0, 51, 53
2, 4237, Note_on_c, 0, 70, 0
2, 4254, Note_on_c, 0, 73, 0
2, 4254, Note_on_c, 0, 82, 0
2, 4259, Note_on_c, 0, 51, 0
2, 4260, Note_on_c, 0, 63, 63
2, 4261, Note_on_c, 0, 72, 88
2, 4268, Control_c, 0, 64, 0
2, 4289, Note_on_c, 0, 63, 0
2, 4290, Note_on_c, 0, 84, 71
2, 4290, Note_on_c, 0, 75, 71
2, 4290, Note_on_c, 0, 56, 61
2, 4297, Note_on_c, 0, 72, 0
2, 4308, Control_c, 0, 64, 127
2, 4309, Note_on_c, 0, 56, 0
2, 4314, Note_on_c, 0, 75, 0
2, 4314, Note_on_c, 0, 84, 0
2, 4320, Note_on_c, 0, 44, 67
2, 4321, Note_on_c, 0, 70, 87
2, 4339, Note_on_c, 0, 44, 0
2, 4350, Note_on_c, 0, 73, 70
2, 4350, Note_on_c, 0, 82, 70
2, 4350, Note_on_c, 0, 61, 58
2, 4359, Note_on_c, 0, 70, 0
2, 4374, Note_on_c, 0, 73, 0
2, 4374, Note_on_c, 0, 82, 0
2, 4379, Note_on_c, 0, 61, 0
2, 4380, Note_on_c, 0, 55, 68
2, 4382, Note_on_c, 0, 72, 86
2, 4409, Note_on_c, 0, 55, 0
2, 4410, Note_on_c, 0, 84, 69
2, 4410, Note_on_c, 0, 75, 69
2, 4410, Note_on_c, 0, 51, 69
2, 4418, Note_on_c, 0, 72, 0
2, 4434, Note_on_c, 0, 84, 0
2, 4434, Note_on_c, 0, 75, 0
2, 4439, Note_on_c, 0, 51, 0
2, 4440, Note_on_c, 0, 63, 58
2, 4441, Control_c, 0, 64, 0
2, 4442, Note_on_c, 0, 67, 78
2, 4469, Note_on_c, 0, 63, 0
2, 4470, Note_on_c, 0, 79, 67
2, 4470, Note_on_c, 0, 70, 67
2, 4470, Note_on_c, 0, 55, 55
2, 4482, Control_c, 0, 64, 127
2, 4489, Note_on_c, 0, 55, 0
2, 4490, Note_on_c, 0, 67, 0
2, 4494, Note_on_c, 0, 70, 0
2, 4494, Note_on_c, 0, 79, 0
2, 4500, Note_on_c, 0, 44, 70
2, 4502, Note_on_c, 0, 68, 84
2, 4519, Note_on_c, 0, 44, 0
2, 4530, Note_on_c, 0, 80, 75
2, 4530, Note_on_c, 0, 72, 66
2, 4530, Note_on_c, 0, 60, 57
2, 4543, Note_on_c, 0, 68, 0
2, 4554, Note_on_c, 0, 80, 0
2, 4554, Note_on_c, 0, 72, 0
2, 4559, Note_on_c, 0, 60, 0
2, 4560, Note_on_c, 0, 56, 63
2, 4562, Note_on_c, 0, 67, 78
2, 4589, Note_on_c, 0, 56, 0
2, 4590, Note_on_c, 0, 70, 56
2, 4590, Note_on_c, 0, 79, 53
2, 4590, Note_on_c, 0, 51, 56
2, 4602, Note_on_c, 0, 67, 0
2, 4609, Control_c, 0, 64, 0
2, 4614, Note_on_c, 0, 70, 0
2, 4614, Note_on_c, 0, 79, 0
2, 4619, Note_on_c, 0, 51, 0
2, 4620, Note_on_c, 0, 63, 58
2, 4621, Note_on_c, 0, 68, 83
2, 4649, Note_on_c, 0, 63, 0
2, 4650, Note_on_c, 0, 80, 74
2, 4650, Note_on_c, 0, 72, 63
2, 4650, Note_on_c, 0, 56, 58
2, 4658, Note_on_c, 0, 68, 0
2, 4669, Note_on_c, 0, 56, 0
2, 4669, Control_c, 0, 64, 127
2, 4674, Note_on_c, 0, 72, 0
2, 4674, Note_on_c, 0, 80, 0
2, 4680, Note_on_c, 0, 46, 59
2, 4681, Note_on_c, 0, 65, 79
2, 4699, Note_on_c, 0, 46, 0
2, 4710, Note_on_c, 0, 77, 66
2, 4710, Note_on_c, 0, 68, 66
2, 4710, Note_on_c, 0, 62, 59
2, 4722, Note_on_c, 0, 65, 0
2, 4734, Note_on_c, 0, 77, 0
2, 4734, Note_on_c, 0, 68, 0
2, 4739, Note_on_c, 0, 62, 0
2, 4740, Note_on_c, 0, 58, 61
2, 4741, Note_on_c, 0, 67, 84
2, 4769, Note_on_c, 0, 58, 0
2, 4770, Note_on_c, 0, 79, 64
2, 4770, Note_on_c, 0, 70, 64
2, 4770, Note_on_c, 0, 56, 58
2, 4781, Note_on_c, 0, 67, 0
2, 4794, Note_on_c, 0, 79, 0
2, 4794, Note_on_c, 0, 70, 0
2, 4794, Control_c, 0, 64, 0
2, 4799, Note_on_c, 0, 56, 0
2, 4800, Note_on_c, 0, 62, 64
2, 4801, Note_on_c, 0, 65, 80
2, 4829, Note_on_c, 0, 62, 0
2, 4830, Note_on_c, 0, 68, 63
2, 4830, Note_on_c, 0, 77, 63
2, 4830, Note_on_c, 0, 58, 59
2, 4835, Note_on_c, 0, 65, 0
2, 4843, Control_c, 0, 64, 127
2, 4844, Note_on_c, 0, 58, 0
2, 4854, Note_on_c, 0, 77, 0
2, 4854, Note_on_c, 0, 68, 0
2, 4860, Note_on_c, 0, 39, 62
2, 4861, Note_on_c, 0, 64, 82
2, 4874, Note_on_c, 0, 39, 0
2, 4890, Note_on_c, 0, 67, 66
2, 4890, Note_on_c, 0, 76, 66
2, 4890, Note_on_c, 0, 61, 53
2, 4909, Note_on_c, 0, 64, 0
2, 4914, Note_on_c, 0, 67, 0
2, 4914, Note_on_c, 0, 76, 0
2, 4919, Note_on_c, 0, 61, 0
2, 4920, Note_on_c, 0, 58, 38
2, 4922, Note_on_c, 0, 63, 82
2, 4949, Note_on_c, 0, 58, 0
2, 4950, Note_on_c, 0, 67, 56
2, 4950, Note_on_c, 0, 75, 70
2, 4950, Note_on_c, 0, 51, 57
2, 4962, Note_on_c, 0, 63, 0
2, 4974, Note_on_c, 0, 67, 0
2, 4974, Note_on_c, 0, 75, 0
2, 4979, Note_on_c, 0, 51, 0
2, 4980, Note_on_c, 0, 61, 56
2, 4982, Note_on_c, 0, 67, 84
2, 5009, Note_on_c, 0, 61, 0
2, 5010, Note_on_c, 0, 70, 66
2, 5010, Note_on_c, 0, 79, 64
2, 5010, Note_on_c, 0, 58, 44
2, 5014, Note_on_c, 0, 67, 0
2, 5034, Note_on_c, 0, 70, 0
2, 5034, Note_on_c, 0, 79, 0
2, 5039, Note_on_c, 0, 58, 0
2, 5040, Note_on_c, 0, 68, 72
2, 5040, Note_on_c, 0, 44, 61
2, 5046, Control_c, 0, 64, 0
2, 5051, Note_on_c, 0, 44, 0
2, 5051, Note_on_c, 0, 68, 0
2, 5070, Note_on_c, 0, 72, 65
2, 5070, Note_on_c, 0, 80, 68
2, 5070, Note_on_c, 0, 60, 62
2, 5081, Note_on_c, 0, 60, 0
2, 5081, Note_on_c, 0, 80, 0
2, 5081, Note_on_c, 0, 72, 0
2, 5100, Note_on_c, 0, 70, 84
2, 5100, Note_on_c, 0, 56, 65
2, 5111, Note_on_c, 0, 56, 0
2, 5111, Note_on_c, 0, 70, 0
2, 5130, Note_on_c, 0, 73, 64
2, 5130, Note_on_c, 0, 82, 82
2, 5130, Note_on_c, 0, 51, 67
2, 5141, Note_on_c, 0, 51, 0
2, 5141, Note_on_c, 0, 82, 0
2, 5141, Note_on_c, 0, 73, 0
2, 5160, Note_on_c, 0, 71, 74
2, 5160, Note_on_c, 0, 63, 67
2, 5171, Note_on_c, 0, 63, 0
2, 5171, Note_on_c, 0, 71, 0
2, 5190, Note_on_c, 0, 74, 72
2, 5190, Note_on_c, 0, 83, 80
2, 5190, Note_on_c, 0, 56, 65
2, 5201, Note_on_c, 0, 56, 0
2, 5201, Note_on_c, 0, 83, 0
2, 5201, Note_on_c, 0, 74, 0
2, 5220, Note_on_c, 0, 72, 74
2, 5220, Note_on_c, 0, 44, 67
2, 5231, Note_on_c, 0, 44, 0
2, 5231, Note_on_c, 0, 72, 0
2, 5250, Note_on_c, 0, 75, 69
2, 5250, Note_on_c, 0, 84, 84
2, 5250, Note_on_c, 0, 60, 68
2, 5261, Note_on_c, 0, 60, 0
2, 5261, Note_on_c, 0, 84, 0
2, 5261, Note_on_c, 0, 75, 0
2, 5280, Note_on_c, 0, 73, 75
2, 5280, Note_on_c, 0, 56, 70
2, 5291, Note_on_c, 0, 56, 0
2, 5291, Note_on_c, 0, 73, 0
2, 5310, Note_on_c, 0, 85, 73
2, 5310, Note_on_c, 0, 76, 51
2, 5310, Note_on_c, 0, 51, 71
2, 5321, Note_on_c, 0, 51, 0
2, 5321, Note_on_c, 0, 76, 0
2, 5321, Note_on_c, 0, 85, 0
2, 5340, Note_on_c, 0, 74, 78
2, 5340, Note_on_c, 0, 63, 72
2, 5351, Note_on_c, 0, 63, 0
2, 5351, Note_on_c, 0, 74, 0
2, 5370, Note_on_c, 0, 77, 67
2, 5370, Note_on_c, 0, 86, 78
2, 5370, Note_on_c, 0, 56, 71
2, 5381, Note_on_c, 0, 56, 0
2, 5381, Note_on_c, 0, 86, 0
2, 5381, Note_on_c, 0, 77, 0
2, 5400, Note_on_c, 0, 75, 77
2, 5400, Note_on_c, 0, 44, 76
2, 5411, Note_on_c, 0, 44, 0
2, 5411, Note_on_c, 0, 75, 0
2, 5430, Note_on_c, 0, 87, 76
2, 5430, Note_on_c, 0, 79, 65
2, 5430, Note_on_c, 0, 61, 72
2, 5441, Note_on_c, 0, 61, 0
2, 5441, Note_on_c, 0, 79, 0
2, 5441, Note_on_c, 0, 87, 0
2, 5460, Note_on_c, 0, 77, 80
2, 5460, Note_on_c, 0, 55, 73
2, 5471, Note_on_c, 0, 55, 0
2, 5471, Note_on_c, 0, 77, 0
2, 5490, Note_on_c, 0, 89, 64
2, 5490, Note_on_c, 0, 80, 62
2, 5490, Note_on_c, 0, 51, 76
2, 5501, Note_on_c, 0, 51, 0
2, 5501, Note_on_c, 0, 80, 0
2, 5501, Note_on_c, 0, 89, 0
2, 5520, Note_on_c, 0, 75, 79
2, 5520, Note_on_c, 0, 63, 74
2, 5531, Note_on_c, 0, 63, 0
2, 5531, Note_on_c, 0, 75, 0
2, 5550, Note_on_c, 0, 79, 63
2, 5550, Note_on_c, 0, 87, 72
2, 5550, Note_on_c, 0, 55, 72
2, 5561, Note_on_c, 0, 55, 0
2, 5561, Note_on_c, 0, 87, 0
2, 5561, Note_on_c, 0, 79, 0
2, 5580, Note_on_c, 0, 72, 76
2, 5580, Note_on_c, 0, 44, 74
2, 5591, Note_on_c, 0, 44, 0
2, 5591, Note_on_c, 0, 72, 0
2, 5610, Note_on_c, 0, 75, 68
2, 5610, Note_on_c, 0, 84, 71
2, 5610, Note_on_c, 0, 60, 73
2, 5621, Note_on_c, 0, 60, 0
2, 5621, Note_on_c, 0, 84, 0
2, 5621, Note_on_c, 0, 75, 0
2, 5640, Note_on_c, 0, 70, 75
2, 5640, Note_on_c, 0, 56, 70
2, 5651, Note_on_c, 0, 56, 0
2, 5651, Note_on_c, 0, 70, 0
2, 5670, Note_on_c, 0, 73, 59
2, 5670, Note_on_c, 0, 82, 80
2, 5670, Note_on_c, 0, 54, 69
2, 5681, Note_on_c, 0, 54, 0
2, 5681, Note_on_c, 0, 82, 0
2, 5681, Note_on_c, 0, 73, 0
2, 5700, Note_on_c, 0, 72, 78
2, 5700, Note_on_c, 0, 63, 71
2, 5711, Note_on_c, 0, 63, 0
2, 5711, Note_on_c, 0, 72, 0
2, 5730, Note_on_c, 0, 84, 66
2, 5730, Note_on_c, 0, 75, 68
2, 5730, Note_on_c, 0, 56, 65
2, 5741, Note_on_c, 0, 56, 0
2, 5741, Note_on_c, 0, 75, 0
2, 5741, Note_on_c, 0, 84, 0
2, 5760, Note_on_c, 0, 73, 73
2, 5760, Note_on_c, 0, 49, 65
2, 5771, Note_on_c, 0, 49, 0
2, 5771, Note_on_c, 0, 73, 0
2, 5790, Note_on_c, 0, 77, 69
2, 5790, Note_on_c, 0, 85, 64
2, 5790, Note_on_c, 0, 65, 64
2, 5801, Note_on_c, 0, 65, 0
2, 5801, Note_on_c, 0, 85, 0
2, 5801, Note_on_c, 0, 77, 0
2, 5820, Note_on_c, 0, 75, 75
2, 5820, Note_on_c, 0, 61, 70
2, 5831, Note_on_c, 0, 61, 0
2, 5831, Note_on_c, 0, 75, 0
2, 5850, Note_on_c, 0, 79, 68
2, 5850, Note_on_c, 0, 87, 76
2, 5850, Note_on_c, 0, 56, 71
2, 5861, Note_on_c, 0, 56, 0
2, 5861, Note_on_c, 0, 87, 0
2, 5861, Note_on_c, 0, 79, 0
2, 5880, Note_on_c, 0, 77, 80
2, 5880, Note_on_c, 0, 65, 66
2, 5891, Note_on_c, 0, 65, 0
2, 5891, Note_on_c, 0, 77, 0
2, 5910, Note_on_c, 0, 89, 76
2, 5910, Note_on_c, 0, 80, 63
2, 5910, Note_on_c, 0, 61, 65
2, 5921, Note_on_c, 0, 61, 0
2, 5921, Note_on_c, 0, 80, 0
2, 5921, Note_on_c, 0, 89, 0
2, 5940, Note_on_c, 0, 79, 76
2, 5940, Note_on_c, 0, 49, 68
2, 5951, Note_on_c, 0, 49, 0
2, 5951, Note_on_c, 0, 79, 0
2, 5955, Control_c, 0, 64, 127
2, 5970, Note_on_c, 0, 91, 76
2, 5970, Note_on_c, 0, 82, 63
2, 5970, Note_on_c, 0, 64, 68
2, 5981, Note_on_c, 0, 64, 0
2, 5981, Note_on_c, 0, 82, 0
2, 5981, Note_on_c, 0, 91, 0
2, 6000, Note_on_c, 0, 80, 83
2, 6000, Note_on_c, 0, 61, 70
2, 6011, Note_on_c, 0, 61, 0
2, 6011, Note_on_c, 0, 80, 0
2, 6030, Note_on_c, 0, 92, 75
2, 6030, Note_on_c, 0, 83, 62
2, 6030, Note_on_c, 0, 56, 70
2, 6041, Note_on_c, 0, 56, 0
2, 6041, Note_on_c, 0, 83, 0
2, 6041, Note_on_c, 0, 92, 0
2, 6060, Note_on_c, 0, 81, 84
2, 6060, Note_on_c, 0, 64, 70
2, 6071, Note_on_c, 0, 64, 0
2, 6071, Note_on_c, 0, 81, 0
2, 6086, Control_c, 0, 64, 0
2, 6090, Note_on_c, 0, 93, 78
2, 6090, Note_on_c, 0, 84, 64
2, 6090, Note_on_c, 0, 61, 70
2, 6101, Note_on_c, 0, 61, 0
2, 6101, Note_on_c, 0, 84, 0
2, 6101, Note_on_c, 0, 93, 0
2, 6120, Note_on_c, 0, 82, 82
2, 6120, Note_on_c, 0, 51, 74
2, 6122, Control_c, 0, 64, 127
2, 6131, Note_on_c, 0, 51, 0
2, 6131, Note_on_c, 0, 82, 0
2, 6150, Note_on_c, 0, 94, 85
2, 6150, Note_on_c, 0, 85, 75
2, 6150, Note_on_c, 0, 67, 74
2, 6161, Note_on_c, 0, 67, 0
2, 6161, Note_on_c, 0, 85, 0
2, 6161, Note_on_c, 0, 94, 0
2, 6180, Note_on_c, 0, 84, 98
2, 6180, Note_on_c, 0, 63, 72
2, 6191, Note_on_c, 0, 63, 0
2, 6191, Note_on_c, 0, 84, 0
2, 6210, Note_on_c, 0, 96, 92
2, 6210, Note_on_c, 0, 87, 80
2, 6210, Note_on_c, 0, 61, 71
2, 6221, Note_on_c, 0, 61, 0
2, 6221, Note_on_c, 0, 87, 0
2, 6221, Note_on_c, 0, 96, 0
2, 6240, Note_on_c, 0, 79, 93
2, 6240, Note_on_c, 0, 67, 75
2, 6251, Note_on_c, 0, 67, 0
2, 6251, Note_on_c, 0, 79, 0
2, 6252, Control_c, 0, 64, 0
2, 6270, Note_on_c, 0, 82, 85
2, 6270, Note_on_c, 0, 91, 104
2, 6270, Note_on_c, 0, 63, 75
2, 6281, Note_on_c, 0, 63, 0
2, 6281, Note_on_c, 0, 91, 0
2, 6281, Note_on_c, 0, 82, 0
2, 6296, Control_c, 0, 64, 127
2, 6300, Note_on_c, 0, 80, 88
2, 6300, Note_on_c, 0, 44, 75
2, 6319, Note_on_c, 0, 44, 0
2, 6328, Note_on_c, 0, 80, 0
2, 6330, Note_on_c, 0, 92, 83
2, 6330, Note_on_c, 0, 84, 97
2, 6330, Note_on_c, 0, 60, 73
2, 6358, Note_on_c, 0, 84, 0
2, 6358, Note_on_c, 0, 92, 0
2, 6359, Note_on_c, 0, 60, 0
2, 6360, Note_on_c, 0, 80, 100
2, 6360, Note_on_c, 0, 56, 74
2, 6388, Note_on_c, 0, 80, 0
2, 6389, Note_on_c, 0, 56, 0
2, 6390, Note_on_c, 0, 72, 101
2, 6390, Note_on_c, 0, 80, 97
2, 6390, Note_on_c, 0, 51, 79
2, 6418, Note_on_c, 0, 80, 0
2, 6418, Note_on_c, 0, 72, 0
2, 6419, Note_on_c, 0, 51, 0
2, 6420, Note_on_c, 0, 68, 97
2, 6420, Note_on_c, 0, 63, 80
2, 6430, Control_c, 0, 64, 0
2, 6448, Note_on_c, 0, 68, 0
2, 6449, Note_on_c, 0, 63, 0
2, 6450, Note_on_c, 0, 80, 80
2, 6450, Note_on_c, 0, 72, 90
2, 6450, Note_on_c, 0, 56, 79
2, 6478, Note_on_c, 0, 72, 0
2, 6478, Note_on_c, 0, 80, 0
2, 6479, Note_on_c, 0, 56, 0
2, 6480, Note_on_c, 0, 68, 96
2, 6480, Note_on_c, 0, 40, 83
2, 6494, Note_on_c, 0, 40, 0
2, 6499, Control_c, 0, 64, 127
2, 6508, Note_on_c, 0, 68, 0
2, 6510, Note_on_c, 0, 80, 83
2, 6510, Note_on_c, 0, 71, 80
2, 6510, Note_on_c, 0, 59, 84
2, 6538, Note_on_c, 0, 71, 0
2, 6538, Note_on_c, 0, 80, 0
2, 6539, Note_on_c, 0, 59, 0
2, 6540, Note_on_c, 0, 69, 97
2, 6540, Note_on_c, 0, 52, 84
2, 6568, Note_on_c, 0, 69, 0
2, 6569, Note_on_c, 0, 52, 0
2, 6570, Note_on_c, 0, 81, 107
2, 6570, Note_on_c, 0, 73, 68
2, 6570, Note_on_c, 0, 47, 83
2, 6588, Control_c, 0, 64, 0
2, 6598, Note_on_c, 0, 73, 0
2, 6598, Note_on_c, 0, 81, 0
2, 6599, Note_on_c, 0, 47, 0
2, 6600, Note_on_c, 0, 68, 90
2, 6600, Note_on_c, 0, 59, 80
2, 6626, Control_c, 0, 64, 127
2, 6628, Note_on_c, 0, 68, 0
2, 6629, Note_on_c, 0, 59, 0
2, 6630, Note_on_c, 0, 80, 80
2, 6630, Note_on_c, 0, 71, 79
2, 6630, Note_on_c, 0, 52, 84
2, 6649, Note_on_c, 0, 52, 0
2, 6658, Note_on_c, 0, 71, 0
2, 6658, Note_on_c, 0, 80, 0
2, 6660, Note_on_c, 0, 66, 89
2, 6660, Note_on_c, 0, 40, 88
2, 6671, Note_on_c, 0, 40, 0
2, 6688, Note_on_c, 0, 66, 0
2, 6690, Note_on_c, 0, 78, 77
2, 6690, Note_on_c, 0, 70, 80
2, 6690, Note_on_c, 0, 58, 82
2, 6718, Note_on_c, 0, 70, 0
2, 6718, Note_on_c, 0, 78, 0
2, 6719, Note_on_c, 0, 58, 0
2, 6720, Note_on_c, 0, 61, 88
2, 6720, Note_on_c, 0, 54, 83
2, 6748, Note_on_c, 0, 61, 0
2, 6749, Note_on_c, 0, 54, 0
2, 6750, Note_on_c, 0, 73, 83
2, 6750, Note_on_c, 0, 64, 97
2, 6750, Note_on_c, 0, 49, 81
2, 6769, Control_c, 0, 64, 0
2, 6778, Note_on_c, 0, 64, 0
2, 6778, Note_on_c, 0, 73, 0
2, 6779, Note_on_c, 0, 49, 0
2, 6780, Note_on_c, 0, 63, 81
2, 6780, Note_on_c, 0, 58, 82
2, 6808, Note_on_c, 0, 63, 0
2, 6809, Note_on_c, 0, 58, 0
2, 6810, Note_on_c, 0, 75, 80
2, 6810, Note_on_c, 0, 66, 64
2, 6810, Note_on_c, 0, 54, 86
2, 6814, Control_c, 0, 64, 127
2, 6818, Note_on_c, 0, 54, 0
2, 6838, Note_on_c, 0, 66, 0
2, 6838, Note_on_c, 0, 75, 0
2, 6840, Note_on_c, 0, 64, 90
2, 6840, Note_on_c, 0, 40, 86
2, 6850, Note_on_c, 0, 40, 0
2, 6868, Note_on_c, 0, 64, 0
2, 6870, Note_on_c, 0, 68, 86
2, 6870, Note_on_c, 0, 76, 82
2, 6870, Note_on_c, 0, 57, 84
2, 6898, Note_on_c, 0, 76, 0
2, 6898, Note_on_c, 0, 68, 0
2, 6899, Note_on_c, 0, 57, 0
2, 6900, Note_on_c, 0, 68, 96
2, 6900, Note_on_c, 0, 51, 81
2, 6928, Note_on_c, 0, 68, 0
2, 6929, Note_on_c, 0, 51, 0
2, 6930, Note_on_c, 0, 71, 87
2, 6930, Note_on_c, 0, 80, 102
2, 6930, Note_on_c, 0, 47, 87
2, 6958, Note_on_c, 0, 80, 0
2, 6958, Note_on_c, 0, 71, 0
2, 6958, Control_c, 0, 64, 0
2, 6959, Note_on_c, 0, 47, 0
2, 6960, Note_on_c, 0, 66, 82
2, 6960, Note_on_c, 0, 57, 84
2, 6988, Note_on_c, 0, 66, 0
2, 6989, Note_on_c, 0, 57, 0
2, 6990, Note_on_c, 0, 69, 87
2, 6990, Note_on_c, 0, 78, 88
2, 6990, Note_on_c, 0, 51, 82
2, 6995, Control_c, 0, 64, 127
2, 7004, Note_on_c, 0, 51, 0
2, 7018, Note_on_c, 0, 78, 0
2, 7018, Note_on_c, 0, 69, 0
2, 7020, Note_on_c, 0, 64, 89
2, 7020, Note_on_c, 0, 40, 85
2, 7031, Note_on_c, 0, 40, 0
2, 7048, Note_on_c, 0, 64, 0
2, 7050, Note_on_c, 0, 68, 83
2, 7050, Note_on_c, 0, 76, 81
2, 7050, Note_on_c, 0, 56, 85
2, 7078, Note_on_c, 0, 76, 0
2, 7078, Note_on_c, 0, 68, 0
2, 7079, Note_on_c, 0, 56, 0
2, 7080, Note_on_c, 0, 59, 93
2, 7080, Note_on_c, 0, 52, 83
2, 7108, Note_on_c, 0, 59, 0
2, 7109, Note_on_c, 0, 52, 0
2, 7110, Note_on_c, 0, 63, 102
2, 7110, Note_on_c, 0, 71, 89
2, 7110, Note_on_c, 0, 47, 83
2, 7111, Control_c, 0, 64, 0
2, 7138, Note_on_c, 0, 71, 0
2, 7138, Note_on_c, 0, 63, 0
2, 7139, Note_on_c, 0, 47, 0
2, 7140, Note_on_c, 0, 61, 96
2, 7140, Note_on_c, 0, 59, 84
2, 7168, Note_on_c, 0, 61, 0
2, 7169, Note_on_c, 0, 59, 0
2, 7170, Note_on_c, 0, 64, 80
2, 7170, Note_on_c, 0, 73, 82
2, 7170, Note_on_c, 0, 52, 85
2, 7179, Control_c, 0, 64, 127
2, 7184, Note_on_c, 0, 52, 0
2, 7198, Note_on_c, 0, 73, 0
2, 7198, Note_on_c, 0, 64, 0
2, 7200, Note_on_c, 0, 64, 88
2, 7200, Note_on_c, 0, 40, 85
2, 7210, Note_on_c, 0, 40, 0
2, 7228, Note_on_c, 0, 64, 0
2, 7230, Note_on_c, 0, 68, 80
2, 7230, Note_on_c, 0, 76, 76
2, 7230, Note_on_c, 0, 57, 72
2, 7258, Note_on_c, 0, 76, 0
2, 7258, Note_on_c, 0, 68, 0
2, 7259, Note_on_c, 0, 57, 0
2, 7260, Note_on_c, 0, 63, 93
2, 7260, Note_on_c, 0, 54, 79
2, 7288, Note_on_c, 0, 63, 0
2, 7289, Note_on_c, 0, 54, 0
2, 7290, Note_on_c, 0, 75, 103
2, 7290, Note_on_c, 0, 66, 83
2, 7290, Note_on_c, 0, 47, 80
2, 7313, Control_c, 0, 64, 0
2, 7318, Note_on_c, 0, 66, 0
2, 7318, Note_on_c, 0, 75, 0
2, 7319, Note_on_c, 0, 47, 0
2, 7320, Note_on_c, 0, 64, 94
2, 7320, Note_on_c, 0, 59, 77
2, 7348, Note_on_c, 0, 64, 0
2, 7349, Note_on_c, 0, 59, 0
2, 7350, Note_on_c, 0, 76, 89
2, 7350, Note_on_c, 0, 68, 84
2, 7350, Note_on_c, 0, 54, 82
2, 7359, Control_c, 0, 64, 127
2, 7369, Note_on_c, 0, 54, 0
2, 7378, Note_on_c, 0, 68, 0
2, 7378, Note_on_c, 0, 76, 0
2, 7380, Note_on_c, 0, 68, 97
2, 7380, Note_on_c, 0, 40, 83
2, 7399, Note_on_c, 0, 40, 0
2, 7408, Note_on_c, 0, 68, 0
2, 7410, Note_on_c, 0, 80, 92
2, 7410, Note_on_c, 0, 71, 77
2, 7410, Note_on_c, 0, 57, 81
2, 7438, Note_on_c, 0, 71, 0
2, 7438, Note_on_c, 0, 80, 0
2, 7439, Note_on_c, 0, 57, 0
2, 7440, Note_on_c, 0, 66, 90
2, 7440, Note_on_c, 0, 51, 81
2, 7468, Note_on_c, 0, 66, 0
2, 7469, Note_on_c, 0, 51, 0
2, 7470, Note_on_c, 0, 78, 104
2, 7470, Note_on_c, 0, 69, 72
2, 7470, Note_on_c, 0, 47, 82
2, 7478, Control_c, 0, 64, 0
2, 7498, Note_on_c, 0, 69, 0
2, 7498, Note_on_c, 0, 78, 0
2, 7499, Note_on_c, 0, 47, 0
2, 7500, Note_on_c, 0, 68, 94
2, 7500, Note_on_c, 0, 59, 81
2, 7521, Control_c, 0, 64, 127
2, 7528, Note_on_c, 0, 68, 0
2, 7529, Note_on_c, 0, 59, 0
2, 7530, Note_on_c, 0, 80, 82
2, 7530, Note_on_c, 0, 71, 80
2, 7530, Note_on_c, 0, 51, 80
2, 7549, Note_on_c, 0, 51, 0
2, 7558, Note_on_c, 0, 71, 0
2, 7558, Note_on_c, 0, 80, 0
2, 7560, Note_on_c, 0, 71, 101
2, 7560, Note_on_c, 0, 40, 78
2, 7579, Note_on_c, 0, 40, 0
2, 7588, Note_on_c, 0, 71, 0
2, 7590, Note_on_c, 0, 83, 77
2, 7590, Note_on_c, 0, 75, 83
2, 7590, Note_on_c, 0, 57, 76
2, 7618, Note_on_c, 0, 75, 0
2, 7618, Note_on_c, 0, 83, 0
2, 7619, Note_on_c, 0, 57, 0
2, 7620, Note_on_c, 0, 69, 97
2, 7620, Note_on_c, 0, 54, 76
2, 7646, Control_c, 0, 64, 0
2, 7648, Note_on_c, 0, 69, 0
2, 7649, Note_on_c, 0, 54, 0
2, 7650, Note_on_c, 0, 73, 82
2, 7650, Note_on_c, 0, 81, 90
2, 7650, Note_on_c, 0, 47, 77
2, 7678, Note_on_c, 0, 81, 0
2, 7678, Note_on_c, 0, 73, 0
2, 7679, Note_on_c, 0, 47, 0
2, 7680, Note_on_c, 0, 71, 101
2, 7680, Note_on_c, 0, 59, 72
2, 7708, Note_on_c, 0, 71, 0
2, 7708, Control_c, 0, 64, 127
2, 7709, Note_on_c, 0, 59, 0
2, 7710, Note_on_c, 0, 83, 83
2, 7710, Note_on_c, 0, 75, 79
2, 7710, Note_on_c, 0, 54, 72
2, 7729, Note_on_c, 0, 54, 0
2, 7738, Note_on_c, 0, 75, 0
2, 7738, Note_on_c, 0, 83, 0
2, 7740, Note_on_c, 0, 75, 92
2, 7740, Note_on_c, 0, 40, 73
2, 7759, Note_on_c, 0, 40, 0
2, 7768, Note_on_c, 0, 75, 0
2, 7770, Note_on_c, 0, 78, 83
2, 7770, Note_on_c, 0, 87, 92
2, 7770, Note_on_c, 0, 57, 74
2, 7798, Note_on_c, 0, 87, 0
2, 7798, Note_on_c, 0, 78, 0
2, 7799, Note_on_c, 0, 57, 0
2, 7800, Note_on_c, 0, 73, 87
2, 7800, Note_on_c, 0, 51, 76
2, 7828, Note_on_c, 0, 73, 0
2, 7829, Note_on_c, 0, 51, 0
2, 7830, Note_on_c, 0, 85, 94
2, 7830, Note_on_c, 0, 76, 80
2, 7830, Note_on_c, 0, 47, 79
2, 7834, Control_c, 0, 64, 0
2, 7858, Note_on_c, 0, 76, 0
2, 7858, Note_on_c, 0, 85, 0
2, 7859, Note_on_c, 0, 47, 0
2, 7860, Note_on_c, 0, 71, 97
2, 7860, Note_on_c, 0, 59, 79
2, 7879, Control_c, 0, 64, 127
2, 7888, Note_on_c, 0, 71, 0
2, 7889, Note_on_c, 0, 59, 0
2, 7890, Note_on_c, 0, 75, 81
2, 7890, Note_on_c, 0, 83, 78
2, 7890, Note_on_c, 0, 54, 79
2, 7918, Note_on_c, 0, 83, 0
2, 7918, Note_on_c, 0, 75, 0
2, 7919, Note_on_c, 0, 54, 0
2, 7920, Note_on_c, 0, 40, 53
2, 7921, Note_on_c, 0, 68, 79
2, 7939, Note_on_c, 0, 40, 0
2, 7950, Note_on_c, 0, 80, 62
2, 7950, Note_on_c, 0, 71, 62
2, 7950, Note_on_c, 0, 59, 58
2, 7969, Note_on_c, 0, 68, 0
2, 7974, Note_on_c, 0, 80, 0
2, 7974, Note_on_c, 0, 71, 0
2, 7979, Note_on_c, 0, 59, 0
2, 7980, Note_on_c, 0, 52, 64
2, 7981, Note_on_c, 0, 69, 82
2, 8006, Control_c, 0, 64, 0
2, 8009, Note_on_c, 0, 52, 0
2, 8010, Note_on_c, 0, 81, 63
2, 8010, Note_on_c, 0, 72, 63
2, 8010, Note_on_c, 0, 47, 58
2, 8025, Note_on_c, 0, 69, 0
2, 8034, Note_on_c, 0, 81, 0
2, 8034, Note_on_c, 0, 72, 0
2, 8039, Note_on_c, 0, 47, 0
2, 8040, Note_on_c, 0, 59, 57
2, 8041, Note_on_c, 0, 68, 81
2, 8046, Control_c, 0, 64, 127
2, 8069, Note_on_c, 0, 59, 0
2, 8070, Note_on_c, 0, 71, 64
2, 8070, Note_on_c, 0, 80, 64
2, 8070, Note_on_c, 0, 52, 68
2, 8083, Note_on_c, 0, 68, 0
2, 8089, Note_on_c, 0, 52, 0
2, 8094, Note_on_c, 0, 80, 0
2, 8094, Note_on_c, 0, 71, 0
2, 8099, Note_on_c, 0, 66, 89
2, 8100, Note_on_c, 0, 40, 64
2, 8119, Note_on_c, 0, 40, 0
2, 8130, Note_on_c, 0, 69, 65
2, 8130, Note_on_c, 0, 78, 65
2, 8130, Note_on_c, 0, 57, 65
2, 8134, Note_on_c, 0, 66, 0
2, 8154, Note_on_c, 0, 69, 0
2, 8154, Note_on_c, 0, 78, 0
2, 8159, Note_on_c, 0, 57, 0
2, 8159, Note_on_c, 0, 60, 85
2, 8160, Note_on_c, 0, 52, 63
2, 8188, Control_c, 0, 64, 0
2, 8189, Note_on_c, 0, 52, 0
2, 8190, Note_on_c, 0, 72, 64
2, 8190, Note_on_c, 0, 64, 64
2, 8190, Note_on_c, 0, 48, 66
2, 8202, Note_on_c, 0, 60, 0
2, 8214, Note_on_c, 0, 72, 0
2, 8214, Note_on_c, 0, 64, 0
2, 8219, Note_on_c, 0, 48, 0
2, 8219, Note_on_c, 0, 64, 80
2, 8220, Note_on_c, 0, 57, 57
2, 8249, Note_on_c, 0, 57, 0
2, 8250, Note_on_c, 0, 68, 66
2, 8250, Note_on_c, 0, 76, 66
2, 8250, Note_on_c, 0, 52, 65
2, 8265, Note_on_c, 0, 64, 0
2, 8269, Note_on_c, 0, 52, 0
2, 8274, Note_on_c, 0, 76, 0
2, 8274, Note_on_c, 0, 68, 0
2, 8274, Control_c, 0, 64, 127
2, 8280, Note_on_c, 0, 66, 83
2, 8280, Note_on_c, 0, 40, 63
2, 8299, Note_on_c, 0, 40, 0
2, 8310, Note_on_c, 0, 78, 71
2, 8310, Note_on_c, 0, 69, 71
2, 8310, Note_on_c, 0, 57, 57
2, 8319, Note_on_c, 0, 66, 0
2, 8334, Note_on_c, 0, 78, 0
2, 8334, Note_on_c, 0, 69, 0
2, 8339, Note_on_c, 0, 57, 0
2, 8339, Note_on_c, 0, 68, 88
2, 8340, Note_on_c, 0, 51, 58
2, 8369, Note_on_c, 0, 51, 0
2, 8370, Note_on_c, 0, 80, 68
2, 8370, Note_on_c, 0, 71, 68
2, 8370, Note_on_c, 0, 47, 62
2, 8383, Note_on_c, 0, 68, 0
2, 8394, Note_on_c, 0, 80, 0
2, 8394, Note_on_c, 0, 71, 0
2, 8399, Note_on_c, 0, 47, 0
2, 8399, Note_on_c, 0, 66, 84
2, 8400, Note_on_c, 0, 59, 59
2, 8401, Control_c, 0, 64, 0
2, 8429, Note_on_c, 0, 59, 0
2, 8430, Note_on_c, 0, 78, 68
2, 8430, Note_on_c, 0, 69, 68
2, 8430, Note_on_c, 0, 51, 65
2, 8439, Note_on_c, 0, 66, 0
2, 8439, Control_c, 0, 64, 127
2, 8449, Note_on_c, 0, 51, 0
2, 8454, Note_on_c, 0, 69, 0
2, 8454, Note_on_c, 0, 78, 0
2, 8459, Note_on_c, 0, 64, 84
2, 8460, Note_on_c, 0, 40, 61
2, 8479, Note_on_c, 0, 40, 0
2, 8490, Note_on_c, 0, 68, 64
2, 8490, Note_on_c, 0, 76, 64
2, 8490, Note_on_c, 0, 56, 58
2, 8494, Note_on_c, 0, 64, 0
2, 8514, Note_on_c, 0, 68, 0
2, 8514, Note_on_c, 0, 76, 0
2, 8519, Note_on_c, 0, 56, 0
2, 8520, Note_on_c, 0, 63, 85
2, 8520, Note_on_c, 0, 52, 61
2, 8549, Note_on_c, 0, 52, 0
2, 8550, Note_on_c, 0, 68, 66
2, 8550, Note_on_c, 0, 75, 66
2, 8550, Note_on_c, 0, 47, 58
2, 8563, Note_on_c, 0, 63, 0
2, 8574, Note_on_c, 0, 68, 0
2, 8574, Note_on_c, 0, 75, 0
2, 8579, Note_on_c, 0, 47, 0
2, 8580, Note_on_c, 0, 59, 54
2, 8581, Note_on_c, 0, 62, 86
2, 8592, Control_c, 0, 64, 0
2, 8609, Note_on_c, 0, 59, 0
2, 8610, Note_on_c, 0, 74, 62
2, 8610, Note_on_c, 0, 68, 62
2, 8610, Note_on_c, 0, 52, 54
2, 8627, Note_on_c, 0, 62, 0
2, 8628, Control_c, 0, 64, 127
2, 8629, Note_on_c, 0, 52, 0
2, 8634, Note_on_c, 0, 68, 0
2, 8634, Note_on_c, 0, 74, 0
2, 8640, Note_on_c, 0, 39, 65
2, 8641, Note_on_c, 0, 63, 92
2, 8654, Note_on_c, 0, 39, 0
2, 8670, Note_on_c, 0, 67, 73
2, 8670, Note_on_c, 0, 75, 73
2, 8670, Note_on_c, 0, 61, 66
2, 8685, Note_on_c, 0, 63, 0
2, 8694, Note_on_c, 0, 67, 0
2, 8694, Note_on_c, 0, 75, 0
2, 8699, Note_on_c, 0, 61, 0
2, 8700, Note_on_c, 0, 55, 65
2, 8701, Note_on_c, 0, 65, 93
2, 8729, Note_on_c, 0, 55, 0
2, 8730, Note_on_c, 0, 68, 73
2, 8730, Note_on_c, 0, 77, 73
2, 8730, Note_on_c, 0, 51, 68
2, 8745, Note_on_c, 0, 65, 0
2, 8754, Note_on_c, 0, 68, 0
2, 8754, Note_on_c, 0, 77, 0
2, 8759, Note_on_c, 0, 51, 0
2, 8760, Note_on_c, 0, 63, 69
2, 8761, Note_on_c, 0, 66, 91
2, 8789, Note_on_c, 0, 63, 0
2, 8789, Control_c, 0, 64, 0
2, 8790, Note_on_c, 0, 69, 71
2, 8790, Note_on_c, 0, 78, 71
2, 8790, Note_on_c, 0, 55, 69
2, 8804, Note_on_c, 0, 55, 0
2, 8806, Note_on_c, 0, 66, 0
2, 8806, Control_c, 0, 64, 127
2, 8814, Note_on_c, 0, 78, 0
2, 8814, Note_on_c, 0, 69, 0
2, 8820, Note_on_c, 0, 39, 70
2, 8821, Note_on_c, 0, 67, 90
2, 8834, Note_on_c, 0, 39, 0
2, 8850, Note_on_c, 0, 79, 71
2, 8850, Note_on_c, 0, 70, 71
2, 8850, Note_on_c, 0, 61, 71
2, 8866, Note_on_c, 0, 67, 0
2, 8874, Note_on_c, 0, 79, 0
2, 8874, Note_on_c, 0, 70, 0
2, 8879, Note_on_c, 0, 61, 0
2, 8880, Note_on_c, 0, 55, 69
2, 8881, Note_on_c, 0, 68, 91
2, 8909, Note_on_c, 0, 55, 0
2, 8910, Note_on_c, 0, 72, 73
2, 8910, Note_on_c, 0, 81, 73
2, 8910, Note_on_c, 0, 51, 68
2, 8925, Note_on_c, 0, 68, 0
2, 8934, Note_on_c, 0, 72, 0
2, 8934, Note_on_c, 0, 81, 0
2, 8939, Note_on_c, 0, 51, 0
2, 8940, Note_on_c, 0, 63, 72
2, 8941, Note_on_c, 0, 70, 95
2, 8964, Control_c, 0, 64, 0
2, 8969, Note_on_c, 0, 63, 0
2, 8970, Note_on_c, 0, 73, 74
2, 8970, Note_on_c, 0, 82, 74
2, 8970, Note_on_c, 0, 55, 72
2, 8984, Note_on_c, 0, 55, 0
2, 8984, Control_c, 0, 64, 127
2, 8986, Note_on_c, 0, 70, 0
2, 8994, Note_on_c, 0, 82, 0
2, 8994, Note_on_c, 0, 73, 0
2, 9000, Note_on_c, 0, 44, 74
2, 9001, Note_on_c, 0, 72, 93
2, 9019, Note_on_c, 0, 44, 0
2, 9030, Note_on_c, 0, 84, 74
2, 9030, Note_on_c, 0, 75, 74
2, 9030, Note_on_c, 0, 60, 74
2, 9043, Note_on_c, 0, 72, 0
2, 9054, Note_on_c, 0, 84, 0
2, 9054, Note_on_c, 0, 75, 0
2, 9059, Note_on_c, 0, 60, 0
2, 9060, Note_on_c, 0, 56, 74
2, 9061, Note_on_c, 0, 73, 95
2, 9089, Note_on_c, 0, 56, 0
2, 9090, Note_on_c, 0, 76, 78
2, 9090, Note_on_c, 0, 85, 78
2, 9090, Note_on_c, 0, 54, 74
2, 9102, Note_on_c, 0, 73, 0
2, 9114, Note_on_c, 0, 76, 0
2, 9114, Note_on_c, 0, 85, 0
2, 9119, Note_on_c, 0, 54, 0
2, 9120, Note_on_c, 0, 63, 74
2, 9121, Note_on_c, 0, 74, 97
2, 9143, Control_c, 0, 64, 0
2, 9149, Note_on_c, 0, 63, 0
2, 9150, Note_on_c, 0, 86, 81
2, 9150, Note_on_c, 0, 77, 81
2, 9150, Note_on_c, 0, 56, 76
2, 9161, Control_c, 0, 64, 127
2, 9163, Note_on_c, 0, 74, 0
2, 9169, Note_on_c, 0, 56, 0
2, 9174, Note_on_c, 0, 77, 0
2, 9174, Note_on_c, 0, 86, 0
2, 9180, Note_on_c, 0, 44, 75
2, 9181, Note_on_c, 0, 75, 97
2, 9199, Note_on_c, 0, 44, 0
2, 9210, Note_on_c, 0, 87, 77
2, 9210, Note_on_c, 0, 78, 77
2, 9210, Note_on_c, 0, 60, 76
2, 9222, Note_on_c, 0, 75, 0
2, 9234, Note_on_c, 0, 87, 0
2, 9234, Note_on_c, 0, 78, 0
2, 9239, Note_on_c, 0, 60, 0
2, 9240, Note_on_c, 0, 56, 76
2, 9241, Note_on_c, 0, 77, 93
2, 9269, Note_on_c, 0, 56, 0
2, 9270, Note_on_c, 0, 89, 79
2, 9270, Note_on_c, 0, 80, 79
2, 9270, Note_on_c, 0, 54, 76
2, 9284, Note_on_c, 0, 77, 0
2, 9293, Control_c, 0, 64, 0
2, 9294, Note_on_c, 0, 89, 0
2, 9294, Note_on_c, 0, 80, 0
2, 9299, Note_on_c, 0, 54, 0
2, 9300, Note_on_c, 0, 63, 75
2, 9301, Note_on_c, 0, 78, 95
2, 9327, Control_c, 0, 64, 127
2, 9329, Note_on_c, 0, 63, 0
2, 9330, Note_on_c, 0, 90, 80
2, 9330, Note_on_c, 0, 82, 80
2, 9330, Note_on_c, 0, 56, 75
2, 9344, Note_on_c, 0, 56, 0
2, 9345, Note_on_c, 0, 78, 0
2, 9354, Note_on_c, 0, 82, 0
2, 9354, Note_on_c, 0, 90, 0
2, 9360, Note_on_c, 0, 37, 78
2, 9361, Note_on_c, 0, 78, 103
2, 9374, Note_on_c, 0, 37, 0
2, 9390, Note_on_c, 0, 90, 77
2, 9390, Note_on_c, 0, 82, 77
2, 9390, Note_on_c, 0, 65, 76
2, 9398, Note_on_c, 0, 78, 0
2, 9414, Note_on_c, 0, 90, 0
2, 9414, Note_on_c, 0, 82, 0
2, 9419, Note_on_c, 0, 65, 0
2, 9420, Note_on_c, 0, 61, 79
2, 9421, Note_on_c, 0, 77, 95
2, 9449, Note_on_c, 0, 61, 0
2, 9450, Note_on_c, 0, 89, 79
2, 9450, Note_on_c, 0, 80, 70
2, 9450, Note_on_c, 0, 56, 79
2, 9463, Note_on_c, 0, 77, 0
2, 9474, Note_on_c, 0, 89, 0
2, 9474, Note_on_c, 0, 80, 0
2, 9479, Note_on_c, 0, 56, 0
2, 9480, Note_on_c, 0, 65, 77
2, 9481, Note_on_c, 0, 72, 92
2, 9489, Control_c, 0, 64, 0
2, 9509, Note_on_c, 0, 65, 0
2, 9510, Note_on_c, 0, 84, 69
2, 9510, Note_on_c, 0, 75, 63
2, 9510, Note_on_c, 0, 61, 77
2, 9519, Control_c, 0, 64, 127
2, 9524, Note_on_c, 0, 61, 0
2, 9530, Note_on_c, 0, 72, 0
2, 9534, Note_on_c, 0, 75, 0
2, 9534, Note_on_c, 0, 84, 0
2, 9540, Note_on_c, 0, 43, 75
2, 9541, Note_on_c, 0, 75, 101
2, 9554, Note_on_c, 0, 43, 0
2, 9570, Note_on_c, 0, 87, 70
2, 9570, Note_on_c, 0, 78, 73
2, 9570, Note_on_c, 0, 61, 74
2, 9579, Note_on_c, 0, 75, 0
2, 9594, Note_on_c, 0, 87, 0
2, 9594, Note_on_c, 0, 78, 0
2, 9599, Note_on_c, 0, 61, 0
2, 9600, Note_on_c, 0, 58, 72
2, 9601, Note_on_c, 0, 73, 83
2, 9629, Note_on_c, 0, 58, 0
2, 9630, Note_on_c, 0, 85, 77
2, 9630, Note_on_c, 0, 76, 69
2, 9630, Note_on_c, 0, 52, 71
2, 9645, Note_on_c, 0, 73, 0
2, 9654, Note_on_c, 0, 85, 0
2, 9654, Note_on_c, 0, 76, 0
2, 9659, Note_on_c, 0, 52, 0
2, 9660, Note_on_c, 0, 61, 69
2, 9661, Note_on_c, 0, 70, 86
2, 9686, Control_c, 0, 64, 0
2, 9689, Note_on_c, 0, 61, 0
2, 9690, Note_on_c, 0, 82, 62
2, 9690, Note_on_c, 0, 73, 68
2, 9690, Note_on_c, 0, 58, 67
2, 9705, Note_on_c, 0, 70, 0
2, 9709, Note_on_c, 0, 58, 0
2, 9711, Control_c, 0, 64, 127
2, 9714, Note_on_c, 0, 73, 0
2, 9714, Note_on_c, 0, 82, 0
2, 9720, Note_on_c, 0, 44, 60
2, 9721, Note_on_c, 0, 70, 86
2, 9739, Note_on_c, 0, 44, 0
2, 9750, Note_on_c, 0, 82, 63
2, 9750, Note_on_c, 0, 73, 53
2, 9750, Note_on_c, 0, 61, 54
2, 9758, Note_on_c, 0, 70, 0
2, 9774, Note_on_c, 0, 82, 0
2, 9774, Note_on_c, 0, 73, 0
2, 9779, Note_on_c, 0, 61, 0
2, 9780, Note_on_c, 0, 56, 63
2, 9781, Note_on_c, 0, 69, 83
2, 9809, Note_on_c, 0, 56, 0
2, 9810, Note_on_c, 0, 81, 76
2, 9810, Note_on_c, 0, 73, 54
2, 9810, Note_on_c, 0, 53, 63
2, 9820, Note_on_c, 0, 69, 0
2, 9834, Note_on_c, 0, 81, 0
2, 9834, Note_on_c, 0, 73, 0
2, 9839, Note_on_c, 0, 53, 0
2, 9840, Note_on_c, 0, 61, 58
2, 9841, Note_on_c, 0, 68, 85
2, 9869, Note_on_c, 0, 61, 0
2, 9870, Note_on_c, 0, 73, 55
2, 9870, Note_on_c, 0, 80, 74
2, 9870, Note_on_c, 0, 56, 64
2, 9880, Control_c, 0, 64, 0
2, 9882, Note_on_c, 0, 68, 0
2, 9889, Note_on_c, 0, 56, 0
2, 9894, Note_on_c, 0, 80, 0
2, 9894, Note_on_c, 0, 73, 0
2, 9900, Note_on_c, 0, 44, 67
2, 9901, Note_on_c, 0, 67, 84
2, 9902, Control_c, 0, 64, 127
2, 9919, Note_on_c, 0, 44, 0
2, 9930, Note_on_c, 0, 72, 57
2, 9930, Note_on_c, 0, 79, 73
2, 9930, Note_on_c, 0, 60, 63
2, 9939, Note_on_c, 0, 67, 0
2, 9954, Note_on_c, 0, 72, 0
2, 9954, Note_on_c, 0, 79, 0
2, 9959, Note_on_c, 0, 60, 0
2, 9960, Note_on_c, 0, 56, 63
2, 9961, Note_on_c, 0, 66, 84
2, 9989, Note_on_c, 0, 56, 0
2, 9990, Note_on_c, 0, 78, 70
2, 9990, Note_on_c, 0, 72, 66
2, 9990, Note_on_c, 0, 54, 67
2, 10001, Note_on_c, 0, 66, 0
2, 10014, Note_on_c, 0, 78, 0
2, 10014, Note_on_c, 0, 72, 0
2, 10019, Note_on_c, 0, 54, 0
2, 10020, Note_on_c, 0, 60, 66
2, 10021, Note_on_c, 0, 63, 81
2, 10041, Control_c, 0, 64, 0
2, 10049, Note_on_c, 0, 60, 0
2, 10050, Note_on_c, 0, 75, 70
2, 10050, Note_on_c, 0, 66, 61
2, 10050, Note_on_c, 0, 56, 63
2, 10062, Note_on_c, 0, 63, 0
2, 10064, Note_on_c, 0, 56, 0
2, 10071, Control_c, 0, 64, 127
2, 10074, Note_on_c, 0, 66, 0
2, 10074, Note_on_c, 0, 75, 0
2, 10080, Note_on_c, 0, 37, 72
2, 10081, Note_on_c, 0, 61, 81
2, 10094, Note_on_c, 0, 37, 0
2, 10110, Note_on_c, 0, 73, 62
2, 10110, Note_on_c, 0, 65, 63
2, 10110, Note_on_c, 0, 56, 65
2, 10127, Note_on_c, 0, 61, 0
2, 10129, Note_on_c, 0, 73, 0
2, 10129, Note_on_c, 0, 65, 0
2, 10139, Note_on_c, 0, 56, 0
2, 10140, Note_on_c, 0, 61, 54
2, 10140, Note_on_c, 0, 49, 62
2, 10169, Note_on_c, 0, 49, 0
2, 10169, Note_on_c, 0, 61, 0
2, 10170, Note_on_c, 0, 65, 61
2, 10170, Note_on_c, 0, 73, 58
2, 10170, Note_on_c, 0, 44, 73
2, 10189, Note_on_c, 0, 73, 0
2, 10189, Note_on_c, 0, 65, 0
2, 10199, Note_on_c, 0, 44, 0
2, 10200, Note_on_c, 0, 61, 67
2, 10200, Note_on_c, 0, 56, 59
2, 10229, Note_on_c, 0, 56, 0
2, 10229, Note_on_c, 0, 61, 0
2, 10230, Note_on_c, 0, 65, 57
2, 10230, Note_on_c, 0, 73, 61
2, 10230, Note_on_c, 0, 49, 57
2, 10249, Note_on_c, 0, 49, 0
2, 10249, Note_on_c, 0, 73, 0
2, 10249, Note_on_c, 0, 65, 0
2, 10260, Note_on_c, 0, 61, 68
2, 10260, Note_on_c, 0, 37, 67
2, 10279, Note_on_c, 0, 37, 0
2, 10289, Note_on_c, 0, 61, 0
2, 10290, Note_on_c, 0, 65, 61
2, 10290, Note_on_c, 0, 73, 66
2, 10290, Note_on_c, 0, 56, 60
2, 10319, Note_on_c, 0, 56, 0
2, 10319, Note_on_c, 0, 73, 0
2, 10319, Note_on_c, 0, 65, 0
2, 10320, Note_on_c, 0, 61, 64
2, 10320, Note_on_c, 0, 49, 60
2, 10349, Note_on_c, 0, 49, 0
2, 10349, Note_on_c, 0, 61, 0
2, 10350, Note_on_c, 0, 65, 76
2, 10350, Note_on_c, 0, 73, 79
2, 10350, Note_on_c, 0, 44, 72
2, 10379, Note_on_c, 0, 44, 0
2, 10379, Note_on_c, 0, 73, 0
2, 10379, Note_on_c, 0, 65, 0
2, 10380, Note_on_c, 0, 61, 66
2, 10380, Note_on_c, 0, 56, 61
2, 10409, Note_on_c, 0, 56, 0
2, 10409, Note_on_c, 0, 61, 0
2, 10410, Note_on_c, 0, 65, 63
2, 10410, Note_on_c, 0, 73, 62
2, 10410, Note_on_c, 0, 49, 57
2, 10429, Note_on_c, 0, 49, 0
2, 10429, Note_on_c, 0, 73, 0
2, 10429, Note_on_c, 0, 65, 0
2, 10430, Control_c, 0, 64, 0
2, 10440, Note_on_c, 0, 61, 63
2, 10440, Note_on_c, 0, 37, 66
2, 10446, Control_c, 0, 64, 127
2, 10459, Note_on_c, 0, 37, 0
2, 10469, Note_on_c, 0, 61, 0
2, 10470, Note_on_c, 0, 64, 66
2, 10470, Note_on_c, 0, 73, 60
2, 10470, Note_on_c, 0, 56, 59
2, 10489, Note_on_c, 0, 73, 0
2, 10489, Note_on_c, 0, 64, 0
2, 10499, Note_on_c, 0, 56, 0
2, 10500, Note_on_c, 0, 61, 64
2, 10500, Note_on_c, 0, 49, 51
2, 10529, Note_on_c, 0, 49, 0
2, 10529, Note_on_c, 0, 61, 0
2, 10530, Note_on_c, 0, 73, 63
2, 10530, Note_on_c, 0, 64, 64
2, 10530, Note_on_c, 0, 44, 70
2, 10549, Note_on_c, 0, 64, 0
2, 10549, Note_on_c, 0, 73, 0
2, 10559, Note_on_c, 0, 44, 0
2, 10560, Note_on_c, 0, 61, 65
2, 10560, Note_on_c, 0, 56, 61
2, 10589, Note_on_c, 0, 56, 0
2, 10589, Note_on_c, 0, 61, 0
2, 10590, Note_on_c, 0, 73, 68
2, 10590, Note_on_c, 0, 64, 66
2, 10590, Note_on_c, 0, 49, 67
2, 10609, Note_on_c, 0, 49, 0
2, 10609, Note_on_c, 0, 64, 0
2, 10609, Note_on_c, 0, 73, 0
2, 10620, Note_on_c, 0, 61, 68
2, 10620, Note_on_c, 0, 37, 64
2, 10639, Note_on_c, 0, 37, 0
2, 10649, Note_on_c, 0, 61, 0
2, 10650, Note_on_c, 0, 64, 67
2, 10650, Note_on_c, 0, 73, 55
2, 10650, Note_on_c, 0, 56, 59
2, 10679, Note_on_c, 0, 56, 0
2, 10679, Note_on_c, 0, 73, 0
2, 10679, Note_on_c, 0, 64, 0
2, 10680, Note_on_c, 0, 61, 78
2, 10680, Note_on_c, 0, 49, 51
2, 10709, Note_on_c, 0, 49, 0
2, 10709, Note_on_c, 0, 61, 0
2, 10710, Note_on_c, 0, 64, 62
2, 10710, Note_on_c, 0, 73, 72
2, 10710, Note_on_c, 0, 44, 67
2, 10721, Control_c, 0, 64, 0
2, 10729, Note_on_c, 0, 73, 0
2, 10729, Note_on_c, 0, 64, 0
2, 10739, Note_on_c, 0, 44, 0
2, 10740, Note_on_c, 0, 73, 77
2, 10740, Note_on_c, 0, 56, 60
2, 10756, Control_c, 0, 64, 127
2, 10769, Note_on_c, 0, 56, 0
2, 10769, Note_on_c, 0, 73, 0
2, 10770, Note_on_c, 0, 85, 70
2, 10770, Note_on_c, 0, 76, 81
2, 10770, Note_on_c, 0, 49, 66
2, 10799, Note_on_c, 0, 49, 0
2, 10799, Note_on_c, 0, 76, 0
2, 10799, Note_on_c, 0, 85, 0
2, 10800, Note_on_c, 0, 73, 63
2, 10800, Note_on_c, 0, 45, 57
2, 10818, Note_on_c, 0, 45, 0
2, 10829, Note_on_c, 0, 73, 0
2, 10830, Note_on_c, 0, 76, 53
2, 10830, Note_on_c, 0, 85, 60
2, 10830, Note_on_c, 0, 64, 57
2, 10857, Note_on_c, 0, 85, 0
2, 10857, Note_on_c, 0, 76, 0
2, 10859, Note_on_c, 0, 64, 0
2, 10860, Note_on_c, 0, 74, 70
2, 10860, Note_on_c, 0, 59, 61
2, 10889, Note_on_c, 0, 59, 0
2, 10889, Note_on_c, 0, 74, 0
2, 10890, Note_on_c, 0, 86, 68
2, 10890, Note_on_c, 0, 78, 61
2, 10890, Note_on_c, 0, 52, 57
2, 10917, Note_on_c, 0, 78, 0
2, 10917, Note_on_c, 0, 86, 0
2, 10919, Note_on_c, 0, 52, 0
2, 10920, Note_on_c, 0, 73, 65
2, 10920, Note_on_c, 0, 64, 57
2, 10949, Note_on_c, 0, 64, 0
2, 10949, Note_on_c, 0, 73, 0
2, 10950, Note_on_c, 0, 76, 58
2, 10950, Note_on_c, 0, 85, 71
2, 10950, Note_on_c, 0, 57, 48
2, 10955, Control_c, 0, 64, 0
2, 10967, Control_c, 0, 64, 127
2, 10968, Note_on_c, 0, 57, 0
2, 10977, Note_on_c, 0, 85, 0
2, 10977, Note_on_c, 0, 76, 0
2, 10980, Note_on_c, 0, 71, 67
2, 10980, Note_on_c, 0, 45, 54
2, 10998, Note_on_c, 0, 45, 0
2, 11009, Note_on_c, 0, 71, 0
2, 11010, Note_on_c, 0, 83, 62
2, 11010, Note_on_c, 0, 75, 63
2, 11010, Note_on_c, 0, 63, 54
2, 11037, Note_on_c, 0, 75, 0
2, 11037, Note_on_c, 0, 83, 0
2, 11039, Note_on_c, 0, 63, 0
2, 11040, Note_on_c, 0, 66, 61
2, 11040, Note_on_c, 0, 57, 50
2, 11069, Note_on_c, 0, 57, 0
2, 11069, Note_on_c, 0, 66, 0
2, 11070, Note_on_c, 0, 78, 68
2, 11070, Note_on_c, 0, 69, 62
2, 11070, Note_on_c, 0, 54, 53
2, 11097, Note_on_c, 0, 69, 0
2, 11097, Note_on_c, 0, 78, 0
2, 11099, Note_on_c, 0, 54, 0
2, 11100, Note_on_c, 0, 68, 66
2, 11100, Note_on_c, 0, 63, 57
2, 11129, Note_on_c, 0, 63, 0
2, 11129, Note_on_c, 0, 68, 0
2, 11130, Note_on_c, 0, 80, 66
2, 11130, Note_on_c, 0, 71, 62
2, 11130, Note_on_c, 0, 57, 48
2, 11148, Note_on_c, 0, 57, 0
2, 11150, Control_c, 0, 64, 0
2, 11157, Note_on_c, 0, 71, 0
2, 11157, Note_on_c, 0, 80, 0
2, 11160, Note_on_c, 0, 69, 59
2, 11160, Note_on_c, 0, 45, 53
2, 11165, Control_c, 0, 64, 127
2, 11178, Note_on_c, 0, 45, 0
2, 11189, Note_on_c, 0, 69, 0
2, 11190, Note_on_c, 0, 73, 45
2, 11190, Note_on_c, 0, 81, 66
2, 11190, Note_on_c, 0, 62, 55
2, 11217, Note_on_c, 0, 81, 0
2, 11217, Note_on_c, 0, 73, 0
2, 11219, Note_on_c, 0, 62, 0
2, 11220, Note_on_c, 0, 73, 63
2, 11220, Note_on_c, 0, 56, 60
2, 11249, Note_on_c, 0, 56, 0
2, 11249, Note_on_c, 0, 73, 0
2, 11250, Note_on_c, 0, 85, 65
2, 11250, Note_on_c, 0, 76, 65
2, 11250, Note_on_c, 0, 52, 58
2, 11277, Note_on_c, 0, 76, 0
2, 11277, Note_on_c, 0, 85, 0
2, 11279, Note_on_c, 0, 52, 0
2, 11280, Note_on_c, 0, 71, 72
2, 11280, Note_on_c, 0, 62, 59
2, 11309, Note_on_c, 0, 62, 0
2, 11309, Note_on_c, 0, 71, 0
2, 11310, Note_on_c, 0, 83, 64
2, 11310, Note_on_c, 0, 74, 64
2, 11310, Note_on_c, 0, 56, 51
2, 11323, Control_c, 0, 64, 0
2, 11328, Note_on_c, 0, 56, 0
2, 11337, Note_on_c, 0, 74, 0
2, 11337, Note_on_c, 0, 83, 0
2, 11338, Control_c, 0, 64, 127
2, 11340, Note_on_c, 0, 69, 66
2, 11340, Note_on_c, 0, 45, 55
2, 11358, Note_on_c, 0, 45, 0
2, 11369, Note_on_c, 0, 69, 0
2, 11370, Note_on_c, 0, 81, 69
2, 11370, Note_on_c, 0, 73, 61
2, 11370, Note_on_c, 0, 61, 57
2, 11397, Note_on_c, 0, 73, 0
2, 11397, Note_on_c, 0, 81, 0
2, 11399, Note_on_c, 0, 61, 0
2, 11400, Note_on_c, 0, 64, 65
2, 11400, Note_on_c, 0, 57, 56
2, 11429, Note_on_c, 0, 57, 0
2, 11429, Note_on_c, 0, 64, 0
2, 11430, Note_on_c, 0, 76, 64
2, 11430, Note_on_c, 0, 68, 53
2, 11430, Note_on_c, 0, 52, 56
2, 11457, Note_on_c, 0, 68, 0
2, 11457, Note_on_c, 0, 76, 0
2, 11459, Note_on_c, 0, 52, 0
2, 11460, Note_on_c, 0, 66, 65
2, 11460, Note_on_c, 0, 61, 57
2, 11489, Note_on_c, 0, 61, 0
2, 11489, Note_on_c, 0, 66, 0
2, 11490, Note_on_c, 0, 69, 60
2, 11490, Note_on_c, 0, 78, 62
2, 11490, Note_on_c, 0, 57, 46
2, 11501, Control_c, 0, 64, 0
2, 11508, Note_on_c, 0, 57, 0
2, 11517, Note_on_c, 0, 78, 0
2, 11517, Note_on_c, 0, 69, 0
2, 11520, Note_on_c, 0, 69, 70
2, 11520, Control_c, 0, 64, 127
2, 11520, Note_on_c, 0, 45, 54
2, 11538, Note_on_c, 0, 45, 0
2, 11549, Note_on_c, 0, 69, 0
2, 11550, Note_on_c, 0, 81, 62
2, 11550, Note_on_c, 0, 73, 48
2, 11550, Note_on_c, 0, 62, 54
2, 11577, Note_on_c, 0, 73, 0
2, 11577, Note_on_c, 0, 81, 0
2, 11579, Note_on_c, 0, 62, 0
2, 11580, Note_on_c, 0, 68, 66
2, 11580, Note_on_c, 0, 59, 63
2, 11609, Note_on_c, 0, 59, 0
2, 11609, Note_on_c, 0, 68, 0
2, 11610, Note_on_c, 0, 80, 63
2, 11610, Note_on_c, 0, 71, 59
2, 11610, Note_on_c, 0, 52, 65
2, 11637, Note_on_c, 0, 71, 0
2, 11637, Note_on_c, 0, 80, 0
2, 11639, Note_on_c, 0, 52, 0
2, 11640, Note_on_c, 0, 69, 64
2, 11640, Note_on_c, 0, 64, 57
2, 11669, Note_on_c, 0, 64, 0
2, 11669, Note_on_c, 0, 69, 0
2, 11670, Note_on_c, 0, 81, 64
2, 11670, Note_on_c, 0, 73, 50
2, 11670, Note_on_c, 0, 59, 46
2, 11685, Control_c, 0, 64, 0
2, 11688, Note_on_c, 0, 59, 0
2, 11697, Note_on_c, 0, 73, 0
2, 11697, Note_on_c, 0, 81, 0
2, 11700, Note_on_c, 0, 73, 63
2, 11700, Note_on_c, 0, 45, 53
2, 11705, Control_c, 0, 64, 127
2, 11718, Note_on_c, 0, 45, 0
2, 11729, Note_on_c, 0, 73, 0
2, 11730, Note_on_c, 0, 85, 61
2, 11730, Note_on_c, 0, 76, 56
2, 11730, Note_on_c, 0, 62, 60
2, 11757, Note_on_c, 0, 76, 0
2, 11757, Note_on_c, 0, 85, 0
2, 11759, Note_on_c, 0, 62, 0
2, 11760, Note_on_c, 0, 71, 69
2, 11760, Note_on_c, 0, 56, 58
2, 11789, Note_on_c, 0, 56, 0
2, 11789, Note_on_c, 0, 71, 0
2, 11790, Note_on_c, 0, 83, 70
2, 11790, Note_on_c, 0, 74, 58
2, 11790, Note_on_c, 0, 52, 62
2, 11817, Note_on_c, 0, 74, 0
2, 11817, Note_on_c, 0, 83, 0
2, 11819, Note_on_c, 0, 52, 0
2, 11820, Note_on_c, 0, 73, 65
2, 11820, Note_on_c, 0, 64, 58
2, 11849, Note_on_c, 0, 64, 0
2, 11849, Note_on_c, 0, 73, 0
2, 11850, Note_on_c, 0, 76, 65
2, 11850, Note_on_c, 0, 85, 72
2, 11850, Note_on_c, 0, 56, 58
2, 11861, Control_c, 0, 64, 0
2, 11868, Note_on_c, 0, 56, 0
2, 11877, Note_on_c, 0, 85, 0
2, 11877, Note_on_c, 0, 76, 0
2, 11879, Control_c, 0, 64, 127
2, 11880, Note_on_c, 0, 76, 68
2, 11880, Note_on_c, 0, 45, 55
2, 11898, Note_on_c, 0, 45, 0
2, 11909, Note_on_c, 0, 76, 0
2, 11910, Note_on_c, 0, 80, 54
2, 11910, Note_on_c, 0, 88, 68
2, 11910, Note_on_c, 0, 62, 50
2, 11937, Note_on_c, 0, 88, 0
2, 11937, Note_on_c, 0, 80, 0
2, 11939, Note_on_c, 0, 62, 0
2, 11940, Note_on_c, 0, 74, 70
2, 11940, Note_on_c, 0, 59, 55
2, 11969, Note_on_c, 0, 59, 0
2, 11969, Note_on_c, 0, 74, 0
2, 11970, Note_on_c, 0, 86, 74
2, 11970, Note_on_c, 0, 78, 50
2, 11970, Note_on_c, 0, 52, 55
2, 11997, Note_on_c, 0, 78, 0
2, 11997, Note_on_c, 0, 86, 0
2, 11999, Note_on_c, 0, 52, 0
2, 12000, Note_on_c, 0, 76, 63
2, 12000, Note_on_c, 0, 64, 58
2, 12029, Note_on_c, 0, 64, 0
2, 12029, Note_on_c, 0, 76, 0
2, 12030, Note_on_c, 0, 88, 65
2, 12030, Note_on_c, 0, 80, 59
2, 12030, Note_on_c, 0, 59, 51
2, 12048, Note_on_c, 0, 59, 0
2, 12057, Note_on_c, 0, 80, 0
2, 12057, Note_on_c, 0, 88, 0
2, 12060, Note_on_c, 0, 80, 69
2, 12060, Note_on_c, 0, 45, 51
2, 12078, Note_on_c, 0, 45, 0
2, 12089, Note_on_c, 0, 80, 0
2, 12090, Note_on_c, 0, 92, 63
2, 12090, Note_on_c, 0, 83, 62
2, 12090, Note_on_c, 0, 62, 55
2, 12117, Note_on_c, 0, 83, 0
2, 12117, Note_on_c, 0, 92, 0
2, 12119, Note_on_c, 0, 62, 0
2, 12120, Note_on_c, 0, 78, 70
2, 12120, Note_on_c, 0, 56, 57
2, 12149, Note_on_c, 0, 56, 0
2, 12149, Note_on_c, 0, 78, 0
2, 12150, Note_on_c, 0, 81, 61
2, 12150, Note_on_c, 0, 90, 62
2, 12150, Note_on_c, 0, 52, 61
2, 12177, Note_on_c, 0, 90, 0
2, 12177, Note_on_c, 0, 81, 0
2, 12179, Note_on_c, 0, 52, 0
2, 12180, Note_on_c, 0, 76, 62
2, 12180, Note_on_c, 0, 64, 57
2, 12209, Note_on_c, 0, 64, 0
2, 12209, Note_on_c, 0, 76, 0
2, 12210, Note_on_c, 0, 88, 66
2, 12210, Note_on_c, 0, 80, 56
2, 12210, Note_on_c, 0, 59, 54
2, 12223, Control_c, 0, 64, 0
2, 12228, Note_on_c, 0, 59, 0
2, 12237, Note_on_c, 0, 80, 0
2, 12237, Note_on_c, 0, 88, 0
2, 12239, Control_c, 0, 64, 127
2, 12240, Note_on_c, 0, 45, 57
2, 12242, Note_on_c, 0, 73, 77
2, 12258, Note_on_c, 0, 45, 0
2, 12270, Note_on_c, 0, 85, 68
2, 12270, Note_on_c, 0, 76, 68
2, 12270, Note_on_c, 0, 64, 59
2, 12283, Note_on_c, 0, 73, 0
2, 12297, Note_on_c, 0, 85, 0
2, 12297, Note_on_c, 0, 76, 0
2, 12299, Note_on_c, 0, 64, 0
2, 12300, Note_on_c, 0, 59, 67
2, 12301, Note_on_c, 0, 74, 80
2, 12329, Note_on_c, 0, 59, 0
2, 12330, Note_on_c, 0, 86, 66
2, 12330, Note_on_c, 0, 77, 66
2, 12330, Note_on_c, 0, 52, 60
2, 12338, Note_on_c, 0, 74, 0
2, 12357, Note_on_c, 0, 86, 0
2, 12357, Note_on_c, 0, 77, 0
2, 12359, Note_on_c, 0, 52, 0
2, 12359, Note_on_c, 0, 73, 75
2, 12360, Note_on_c, 0, 64, 61
2, 12389, Note_on_c, 0, 64, 0
2, 12390, Note_on_c, 0, 85, 65
2, 12390, Note_on_c, 0, 76, 65
2, 12390, Note_on_c, 0, 57, 53
2, 12397, Control_c, 0, 64, 0
2, 12404, Note_on_c, 0, 73, 0
2, 12408, Note_on_c, 0, 57, 0
2, 12414, Control_c, 0, 64, 127
2, 12417, Note_on_c, 0, 76, 0
2, 12417, Note_on_c, 0, 85, 0
2, 12419, Note_on_c, 0, 71, 78
2, 12420, Note_on_c, 0, 45, 59
2, 12438, Note_on_c, 0, 45, 0
2, 12450, Note_on_c, 0, 74, 64
2, 12450, Note_on_c, 0, 83, 64
2, 12450, Note_on_c, 0, 62, 65
2, 12459, Note_on_c, 0, 71, 0
2, 12477, Note_on_c, 0, 74, 0
2, 12477, Note_on_c, 0, 83, 0
2, 12478, Note_on_c, 0, 65, 74
2, 12479, Note_on_c, 0, 62, 0
2, 12480, Note_on_c, 0, 57, 68
2, 12509, Note_on_c, 0, 57, 0
2, 12510, Note_on_c, 0, 69, 65
2, 12510, Note_on_c, 0, 77, 65
2, 12510, Note_on_c, 0, 53, 75
2, 12521, Note_on_c, 0, 65, 0
2, 12537, Note_on_c, 0, 69, 0
2, 12537, Note_on_c, 0, 77, 0
2, 12539, Note_on_c, 0, 53, 0
2, 12539, Note_on_c, 0, 69, 75
2, 12540, Note_on_c, 0, 62, 66
2, 12569, Note_on_c, 0, 62, 0
2, 12570, Note_on_c, 0, 81, 66
2, 12570, Note_on_c, 0, 73, 66
2, 12570, Note_on_c, 0, 57, 55
2, 12579, Note_on_c, 0, 69, 0
2, 12587, Control_c, 0, 64, 0
2, 12588, Note_on_c, 0, 57, 0
2, 12597, Note_on_c, 0, 73, 0
2, 12597, Note_on_c, 0, 81, 0
2, 12600, Note_on_c, 0, 71, 81
2, 12600, Note_on_c, 0, 45, 60
2, 12604, Control_c, 0, 64, 127
2, 12618, Note_on_c, 0, 45, 0
2, 12630, Note_on_c, 0, 83, 61
2, 12630, Note_on_c, 0, 74, 61
2, 12630, Note_on_c, 0, 62, 65
2, 12643, Note_on_c, 0, 71, 0
2, 12657, Note_on_c, 0, 83, 0
2, 12657, Note_on_c, 0, 74, 0
2, 12659, Note_on_c, 0, 62, 0
2, 12659, Note_on_c, 0, 73, 80
2, 12660, Note_on_c, 0, 56, 68
2, 12689, Note_on_c, 0, 56, 0
2, 12690, Note_on_c, 0, 76, 65
2, 12690, Note_on_c, 0, 85, 65
2, 12690, Note_on_c, 0, 52, 69
2, 12700, Note_on_c, 0, 73, 0
2, 12717, Note_on_c, 0, 76, 0
2, 12717, Note_on_c, 0, 85, 0
2, 12719, Note_on_c, 0, 52, 0
2, 12719, Note_on_c, 0, 71, 84
2, 12720, Note_on_c, 0, 62, 68
2, 12749, Note_on_c, 0, 62, 0
2, 12750, Note_on_c, 0, 74, 63
2, 12750, Note_on_c, 0, 83, 63
2, 12750, Note_on_c, 0, 56, 54
2, 12763, Note_on_c, 0, 71, 0
2, 12768, Note_on_c, 0, 56, 0
2, 12771, Control_c, 0, 64, 0
2, 12777, Note_on_c, 0, 83, 0
2, 12777, Note_on_c, 0, 74, 0
2, 12779, Note_on_c, 0, 69, 80
2, 12780, Note_on_c, 0, 45, 56
2, 12786, Control_c, 0, 64, 127
2, 12798, Note_on_c, 0, 45, 0
2, 12810, Note_on_c, 0, 73, 66
2, 12810, Note_on_c, 0, 81, 66
2, 12810, Note_on_c, 0, 61, 60
2, 12824, Note_on_c, 0, 69, 0
2, 12837, Note_on_c, 0, 73, 0
2, 12837, Note_on_c, 0, 81, 0
2, 12839, Note_on_c, 0, 61, 0
2, 12839, Note_on_c, 0, 68, 84
2, 12840, Note_on_c, 0, 57, 56
2, 12869, Note_on_c, 0, 57, 0
2, 12870, Note_on_c, 0, 73, 68
2, 12870, Note_on_c, 0, 80, 68
2, 12870, Note_on_c, 0, 52, 62
2, 12880, Note_on_c, 0, 68, 0
2, 12897, Note_on_c, 0, 73, 0
2, 12897, Note_on_c, 0, 80, 0
2, 12899, Note_on_c, 0, 52, 0
2, 12900, Note_on_c, 0, 67, 79
2, 12900, Note_on_c, 0, 64, 61
2, 12929, Note_on_c, 0, 64, 0
2, 12930, Note_on_c, 0, 73, 70
2, 12930, Note_on_c, 0, 79, 70
2, 12930, Note_on_c, 0, 59, 52
2, 12935, Control_c, 0, 64, 0
2, 12936, Note_on_c, 0, 67, 0
2, 12948, Note_on_c, 0, 59, 0
2, 12957, Note_on_c, 0, 79, 0
2, 12957, Note_on_c, 0, 73, 0
2, 12959, Control_c, 0, 64, 127
2, 12960, Note_on_c, 0, 44, 59
2, 12961, Note_on_c, 0, 68, 80
2, 12978, Note_on_c, 0, 44, 0
2, 12990, Note_on_c, 0, 80, 72
2, 12990, Note_on_c, 0, 72, 61
2, 12990, Note_on_c, 0, 60, 59
2, 13009, Note_on_c, 0, 68, 0
2, 13017, Note_on_c, 0, 80, 0
2, 13017, Note_on_c, 0, 72, 0
2, 13019, Note_on_c, 0, 60, 0
2, 13020, Note_on_c, 0, 56, 67
2, 13021, Note_on_c, 0, 70, 85
2, 13049, Note_on_c, 0, 56, 0
2, 13050, Note_on_c, 0, 73, 78
2, 13050, Note_on_c, 0, 82, 78
2, 13050, Note_on_c, 0, 54, 75
2, 13066, Note_on_c, 0, 70, 0
2, 13077, Note_on_c, 0, 73, 0
2, 13077, Note_on_c, 0, 82, 0
2, 13079, Note_on_c, 0, 54, 0
2, 13080, Note_on_c, 0, 63, 72
2, 13081, Note_on_c, 0, 71, 89
2, 13103, Control_c, 0, 64, 0
2, 13109, Note_on_c, 0, 63, 0
2, 13110, Note_on_c, 0, 74, 71
2, 13110, Note_on_c, 0, 83, 71
2, 13110, Note_on_c, 0, 56, 57
2, 13126, Control_c, 0, 64, 127
2, 13128, Note_on_c, 0, 56, 0
2, 13129, Note_on_c, 0, 71, 0
2, 13137, Note_on_c, 0, 83, 0
2, 13137, Note_on_c, 0, 74, 0
2, 13140, Note_on_c, 0, 44, 60
2, 13141, Note_on_c, 0, 72, 88
2, 13158, Note_on_c, 0, 44, 0
2, 13170, Note_on_c, 0, 75, 77
2, 13170, Note_on_c, 0, 84, 77
2, 13170, Note_on_c, 0, 60, 66
2, 13185, Note_on_c, 0, 72, 0
2, 13197, Note_on_c, 0, 75, 0
2, 13197, Note_on_c, 0, 84, 0
2, 13199, Note_on_c, 0, 60, 0
2, 13200, Note_on_c, 0, 56, 74
2, 13201, Note_on_c, 0, 73, 88
2, 13229, Note_on_c, 0, 56, 0
2, 13230, Note_on_c, 0, 85, 72
2, 13230, Note_on_c, 0, 77, 66
2, 13230, Note_on_c, 0, 54, 60
2, 13241, Note_on_c, 0, 73, 0
2, 13257, Note_on_c, 0, 85, 0
2, 13257, Note_on_c, 0, 77, 0
2, 13259, Note_on_c, 0, 54, 0
2, 13260, Note_on_c, 0, 63, 65
2, 13261, Note_on_c, 0, 75, 90
2, 13289, Note_on_c, 0, 63, 0
2, 13290, Note_on_c, 0, 78, 80
2, 13290, Note_on_c, 0, 87, 80
2, 13290, Note_on_c, 0, 56, 65
2, 13292, Control_c, 0, 64, 0
2, 13299, Note_on_c, 0, 75, 0
2, 13308, Note_on_c, 0, 56, 0
2, 13317, Note_on_c, 0, 87, 0
2, 13317, Note_on_c, 0, 78, 0
2, 13320, Control_c, 0, 64, 127
2, 13320, Note_on_c, 0, 49, 71
2, 13322, Note_on_c, 0, 77, 93
2, 13338, Note_on_c, 0, 49, 0
2, 13350, Note_on_c, 0, 89, 77
2, 13350, Note_on_c, 0, 80, 77
2, 13350, Note_on_c, 0, 65, 66
2, 13359, Note_on_c, 0, 77, 0
2, 13377, Note_on_c, 0, 89, 0
2, 13377, Note_on_c, 0, 80, 0
2, 13379, Note_on_c, 0, 65, 0
2, 13380, Note_on_c, 0, 61, 73
2, 13381, Note_on_c, 0, 78, 93
2, 13409, Note_on_c, 0, 61, 0
2, 13410, Note_on_c, 0, 90, 71
2, 13410, Note_on_c, 0, 81, 71
2, 13410, Note_on_c, 0, 59, 74
2, 13419, Note_on_c, 0, 78, 0
2, 13437, Note_on_c, 0, 90, 0
2, 13437, Note_on_c, 0, 81, 0
2, 13439, Note_on_c, 0, 59, 0
2, 13440, Note_on_c, 0, 68, 73
2, 13441, Note_on_c, 0, 79, 95
2, 13469, Note_on_c, 0, 68, 0
2, 13470, Note_on_c, 0, 82, 66
2, 13470, Note_on_c, 0, 91, 76
2, 13470, Note_on_c, 0, 61, 71
2, 13473, Control_c, 0, 64, 0
2, 13478, Note_on_c, 0, 79, 0
2, 13488, Note_on_c, 0, 61, 0
2, 13497, Note_on_c, 0, 91, 0
2, 13497, Note_on_c, 0, 82, 0
2, 13500, Note_on_c, 0, 49, 82
2, 13501, Note_on_c, 0, 80, 92
2, 13502, Control_c, 0, 64, 127
2, 13518, Note_on_c, 0, 49, 0
2, 13530, Note_on_c, 0, 83, 74
2, 13530, Note_on_c, 0, 92, 80
2, 13530, Note_on_c, 0, 65, 78
2, 13536, Note_on_c, 0, 80, 0
2, 13557, Note_on_c, 0, 83, 0
2, 13557, Note_on_c, 0, 92, 0
2, 13559, Note_on_c, 0, 65, 0
2, 13560, Note_on_c, 0, 61, 75
2, 13561, Note_on_c, 0, 82, 94
2, 13589, Note_on_c, 0, 61, 0
2, 13590, Note_on_c, 0, 94, 72
2, 13590, Note_on_c, 0, 85, 64
2, 13590, Note_on_c, 0, 59, 75
2, 13602, Note_on_c, 0, 82, 0
2, 13617, Note_on_c, 0, 94, 0
2, 13617, Note_on_c, 0, 85, 0
2, 13619, Note_on_c, 0, 59, 0
2, 13620, Note_on_c, 0, 68, 80
2, 13621, Note_on_c, 0, 83, 96
2, 13649, Note_on_c, 0, 68, 0
2, 13650, Note_on_c, 0, 95, 78
2, 13650, Note_on_c, 0, 87, 75
2, 13650, Note_on_c, 0, 65, 71
2, 13651, Control_c, 0, 64, 0
2, 13662, Note_on_c, 0, 83, 0
2, 13668, Note_on_c, 0, 65, 0
2, 13672, Control_c, 0, 64, 127
2, 13677, Note_on_c, 0, 87, 0
2, 13677, Note_on_c, 0, 95, 0
2, 13680, Note_on_c, 0, 54, 76
2, 13681, Note_on_c, 0, 83, 91
2, 13709, Note_on_c, 0, 54, 0
2, 13710, Note_on_c, 0, 95, 68
2, 13710, Note_on_c, 0, 87, 71
2, 13710, Note_on_c, 0, 66, 79
2, 13720, Note_on_c, 0, 83, 0
2, 13737, Note_on_c, 0, 95, 0
2, 13737, Note_on_c, 0, 87, 0
2, 13739, Note_on_c, 0, 66, 0
2, 13740, Note_on_c, 0, 61, 72
2, 13741, Note_on_c, 0, 82, 86
2, 13769, Note_on_c, 0, 61, 0
2, 13770, Note_on_c, 0, 94, 79
2, 13770, Note_on_c, 0, 85, 68
2, 13770, Note_on_c, 0, 58, 75
2, 13780, Note_on_c, 0, 82, 0
2, 13797, Note_on_c, 0, 94, 0
2, 13797, Note_on_c, 0, 85, 0
2, 13799, Note_on_c, 0, 58, 0
2, 13800, Note_on_c, 0, 70, 74
2, 13801, Note_on_c, 0, 77, 79
2, 13829, Note_on_c, 0, 70, 0
2, 13830, Note_on_c, 0, 89, 77
2, 13830, Note_on_c, 0, 80, 60
2, 13830, Control_c, 0, 64, 0
2, 13830, Note_on_c, 0, 61, 74
2, 13848, Note_on_c, 0, 77, 0
2, 13849, Note_on_c, 0, 61, 0
2, 13852, Control_c, 0, 64, 127
2, 13857, Note_on_c, 0, 80, 0
2, 13857, Note_on_c, 0, 89, 0
2, 13860, Note_on_c, 0, 47, 74
2, 13861, Note_on_c, 0, 80, 86
2, 13879, Note_on_c, 0, 47, 0
2, 13890, Note_on_c, 0, 92, 78
2, 13890, Note_on_c, 0, 83, 57
2, 13890, Note_on_c, 0, 63, 76
2, 13903, Note_on_c, 0, 80, 0
2, 13917, Note_on_c, 0, 92, 0
2, 13917, Note_on_c, 0, 83, 0
2, 13919, Note_on_c, 0, 63, 0
2, 13920, Note_on_c, 0, 59, 73
2, 13921, Note_on_c, 0, 78, 80
2, 13949, Note_on_c, 0, 59, 0
2, 13950, Note_on_c, 0, 90, 78
2, 13950, Note_on_c, 0, 83, 59
2, 13950, Note_on_c, 0, 56, 72
2, 13957, Note_on_c, 0, 78, 0
2, 13977, Note_on_c, 0, 90, 0
2, 13977, Note_on_c, 0, 83, 0
2, 13979, Note_on_c, 0, 56, 0
2, 13980, Note_on_c, 0, 66, 72
2, 13981, Note_on_c, 0, 75, 85
2, 14009, Note_on_c, 0, 66, 0
2, 14009, Control_c, 0, 64, 0
2, 14010, Note_on_c, 0, 87, 70
2, 14010, Note_on_c, 0, 78, 62
2, 14010, Note_on_c, 0, 59, 71
2, 14020, Note_on_c, 0, 75, 0
2, 14037, Note_on_c, 0, 87, 0
2, 14037, Note_on_c, 0, 78, 0
2, 14037, Control_c, 0, 64, 127
2, 14039, Note_on_c, 0, 59, 0
2, 14040, Note_on_c, 0, 49, 72
2, 14041, Note_on_c, 0, 75, 83
2, 14069, Note_on_c, 0, 49, 0
2, 14070, Note_on_c, 0, 87, 69
2, 14070, Note_on_c, 0, 78, 69
2, 14070, Note_on_c, 0, 61, 70
2, 14081, Note_on_c, 0, 75, 0
2, 14097, Note_on_c, 0, 87, 0
2, 14097, Note_on_c, 0, 78, 0
2, 14099, Note_on_c, 0, 61, 0
2, 14100, Note_on_c, 0, 58, 68
2, 14101, Note_on_c, 0, 74, 84
2, 14129, Note_on_c, 0, 58, 0
2, 14130, Note_on_c, 0, 86, 64
2, 14130, Note_on_c, 0, 78, 64
2, 14130, Note_on_c, 0, 54, 69
2, 14142, Note_on_c, 0, 74, 0
2, 14157, Note_on_c, 0, 86, 0
2, 14157, Note_on_c, 0, 78, 0
2, 14159, Note_on_c, 0, 54, 0
2, 14160, Note_on_c, 0, 66, 70
2, 14161, Note_on_c, 0, 73, 79
2, 14189, Note_on_c, 0, 66, 0
2, 14190, Note_on_c, 0, 85, 60
2, 14190, Note_on_c, 0, 78, 60
2, 14190, Note_on_c, 0, 58, 67
2, 14195, Control_c, 0, 64, 0
2, 14201, Note_on_c, 0, 73, 0
2, 14217, Note_on_c, 0, 85, 0
2, 14217, Note_on_c, 0, 78, 0
2, 14219, Note_on_c, 0, 58, 0
2, 14220, Control_c, 0, 64, 127
2, 14220, Note_on_c, 0, 49, 68
2, 14221, Note_on_c, 0, 73, 78
2, 14239, Note_on_c, 0, 49, 0
2, 14250, Note_on_c, 0, 85, 60
2, 14250, Note_on_c, 0, 77, 60
2, 14250, Note_on_c, 0, 65, 63
2, 14256, Note_on_c, 0, 73, 0
2, 14277, Note_on_c, 0, 85, 0
2, 14277, Note_on_c, 0, 77, 0
2, 14279, Note_on_c, 0, 65, 0
2, 14280, Note_on_c, 0, 59, 65
2, 14281, Note_on_c, 0, 72, 76
2, 14309, Note_on_c, 0, 59, 0
2, 14310, Note_on_c, 0, 84, 61
2, 14310, Note_on_c, 0, 77, 61
2, 14310, Note_on_c, 0, 56, 62
2, 14318, Note_on_c, 0, 72, 0
2, 14337, Note_on_c, 0, 84, 0
2, 14337, Note_on_c, 0, 77, 0
2, 14339, Note_on_c, 0, 56, 0
2, 14340, Note_on_c, 0, 68, 64
2, 14341, Note_on_c, 0, 71, 78
2, 14364, Control_c, 0, 64, 0
2, 14369, Note_on_c, 0, 68, 0
2, 14370, Note_on_c, 0, 83, 62
2, 14370, Note_on_c, 0, 77, 62
2, 14370, Note_on_c, 0, 59, 67
2, 14378, Note_on_c, 0, 71, 0
2, 14387, Control_c, 0, 64, 127
2, 14389, Note_on_c, 0, 59, 0
2, 14397, Note_on_c, 0, 77, 0
2, 14397, Note_on_c, 0, 83, 0
2, 14400, Note_on_c, 0, 50, 63
2, 14401, Note_on_c, 0, 70, 75
2, 14419, Note_on_c, 0, 50, 0
2, 14430, Note_on_c, 0, 82, 67
2, 14430, Note_on_c, 0, 74, 67
2, 14430, Note_on_c, 0, 65, 60
2, 14451, Note_on_c, 0, 70, 0
2, 14457, Note_on_c, 0, 82, 0
2, 14457, Note_on_c, 0, 74, 0
2, 14459, Note_on_c, 0, 65, 0
2, 14460, Note_on_c, 0, 58, 58
2, 14462, Note_on_c, 0, 72, 77
2, 14489, Note_on_c, 0, 58, 0
2, 14490, Note_on_c, 0, 84, 66
2, 14490, Note_on_c, 0, 75, 66
2, 14490, Note_on_c, 0, 56, 64
2, 14504, Note_on_c, 0, 72, 0
2, 14517, Note_on_c, 0, 84, 0
2, 14517, Note_on_c, 0, 75, 0
2, 14519, Note_on_c, 0, 56, 0
2, 14520, Note_on_c, 0, 68, 57
2, 14521, Note_on_c, 0, 73, 77
2, 14540, Control_c, 0, 64, 0
2, 14549, Note_on_c, 0, 68, 0
2, 14550, Note_on_c, 0, 76, 65
2, 14550, Note_on_c, 0, 85, 65
2, 14550, Note_on_c, 0, 58, 63
2, 14563, Note_on_c, 0, 73, 0
2, 14564, Control_c, 0, 64, 127
2, 14569, Note_on_c, 0, 58, 0
2, 14577, Note_on_c, 0, 85, 0
2, 14577, Note_on_c, 0, 76, 0
2, 14580, Note_on_c, 0, 46, 65
2, 14581, Note_on_c, 0, 74, 78
2, 14599, Note_on_c, 0, 46, 0
2, 14610, Note_on_c, 0, 77, 64
2, 14610, Note_on_c, 0, 86, 64
2, 14610, Note_on_c, 0, 62, 58
2, 14622, Note_on_c, 0, 74, 0
2, 14637, Note_on_c, 0, 77, 0
2, 14637, Note_on_c, 0, 86, 0
2, 14639, Note_on_c, 0, 62, 0
2, 14640, Note_on_c, 0, 58, 68
2, 14641, Note_on_c, 0, 75, 77
2, 14669, Note_on_c, 0, 58, 0
2, 14670, Note_on_c, 0, 79, 65
2, 14670, Note_on_c, 0, 87, 65
2, 14670, Note_on_c, 0, 56, 67
2, 14682, Note_on_c, 0, 75, 0
2, 14697, Note_on_c, 0, 79, 0
2, 14697, Note_on_c, 0, 87, 0
2, 14699, Note_on_c, 0, 56, 0
2, 14700, Note_on_c, 0, 68, 67
2, 14701, Note_on_c, 0, 77, 77
2, 14720, Control_c, 0, 64, 0
2, 14729, Note_on_c, 0, 68, 0
2, 14730, Note_on_c, 0, 82, 68
2, 14730, Note_on_c, 0, 89, 68
2, 14730, Note_on_c, 0, 58, 50
2, 14740, Note_on_c, 0, 77, 0
2, 14741, Control_c, 0, 64, 127
2, 14757, Note_on_c, 0, 82, 0
2, 14757, Note_on_c, 0, 89, 0
2, 14759, Note_on_c, 0, 58, 0
2, 14760, Note_on_c, 0, 51, 67
2, 14761, Note_on_c, 0, 80, 85
2, 14789, Note_on_c, 0, 51, 0
2, 14790, Note_on_c, 0, 84, 64
2, 14790, Note_on_c, 0, 92, 64
2, 14790, Note_on_c, 0, 63, 60
2, 14799, Note_on_c, 0, 80, 0
2, 14817, Note_on_c, 0, 84, 0
2, 14817, Note_on_c, 0, 92, 0
2, 14819, Note_on_c, 0, 63, 0
2, 14819, Note_on_c, 0, 79, 85
2, 14820, Note_on_c, 0, 58, 64
2, 14849, Note_on_c, 0, 58, 0
2, 14850, Note_on_c, 0, 82, 65
2, 14850, Note_on_c, 0, 91, 65
2, 14850, Note_on_c, 0, 55, 69
2, 14856, Note_on_c, 0, 79, 0
2, 14877, Note_on_c, 0, 82, 0
2, 14877, Note_on_c, 0, 91, 0
2, 14879, Note_on_c, 0, 55, 0
2, 14880, Note_on_c, 0, 67, 59
2, 14881, Note_on_c, 0, 74, 82
2, 14895, Control_c, 0, 64, 0
2, 14909, Note_on_c, 0, 67, 0
2, 14910, Note_on_c, 0, 86, 63
2, 14910, Note_on_c, 0, 77, 63
2, 14910, Note_on_c, 0, 58, 65
2, 14915, Control_c, 0, 64, 127
2, 14927, Note_on_c, 0, 74, 0
2, 14929, Note_on_c, 0, 58, 0
2, 14937, Note_on_c, 0, 77, 0
2, 14937, Note_on_c, 0, 86, 0
2, 14940, Note_on_c, 0, 45, 68
2, 14941, Note_on_c, 0, 77, 98
2, 14959, Note_on_c, 0, 45, 0
2, 14970, Note_on_c, 0, 89, 68
2, 14970, Note_on_c, 0, 81, 68
2, 14970, Note_on_c, 0, 63, 61
2, 14982, Note_on_c, 0, 77, 0
2, 14997, Note_on_c, 0, 89, 0
2, 14997, Note_on_c, 0, 81, 0
2, 14999, Note_on_c, 0, 63, 0
2, 15000, Note_on_c, 0, 60, 61
2, 15001, Note_on_c, 0, 75, 84
2, 15029, Note_on_c, 0, 60, 0
2, 15030, Note_on_c, 0, 87, 73
2, 15030, Note_on_c, 0, 78, 73
2, 15030, Note_on_c, 0, 54, 69
2, 15047, Note_on_c, 0, 75, 0
2, 15057, Note_on_c, 0, 87, 0
2, 15057, Note_on_c, 0, 78, 0
2, 15059, Note_on_c, 0, 54, 0
2, 15060, Note_on_c, 0, 66, 60
2, 15061, Note_on_c, 0, 72, 86
2, 15089, Note_on_c, 0, 66, 0
2, 15090, Note_on_c, 0, 84, 72
2, 15090, Note_on_c, 0, 75, 72
2, 15090, Note_on_c, 0, 60, 61
2, 15098, Note_on_c, 0, 72, 0
2, 15109, Note_on_c, 0, 60, 0
2, 15117, Note_on_c, 0, 75, 0
2, 15117, Note_on_c, 0, 84, 0
2, 15119, Control_c, 0, 64, 0
2, 15120, Note_on_c, 0, 72, 97
2, 15120, Note_on_c, 0, 46, 76
2, 15133, Control_c, 0, 64, 127
2, 15139, Note_on_c, 0, 46, 0
2, 15149, Note_on_c, 0, 72, 0
2, 15150, Note_on_c, 0, 84, 72
2, 15150, Note_on_c, 0, 75, 72
2, 15150, Note_on_c, 0, 63, 63
2, 15179, Note_on_c, 0, 63, 0
2, 15179, Note_on_c, 0, 75, 0
2, 15179, Note_on_c, 0, 84, 0
2, 15180, Note_on_c, 0, 71, 85
2, 15180, Note_on_c, 0, 58, 67
2, 15209, Note_on_c, 0, 58, 0
2, 15209, Note_on_c, 0, 71, 0
2, 15210, Note_on_c, 0, 75, 71
2, 15210, Note_on_c, 0, 83, 71
2, 15210, Note_on_c, 0, 55, 71
2, 15239, Note_on_c, 0, 55, 0
2, 15239, Note_on_c, 0, 83, 0
2, 15239, Note_on_c, 0, 75, 0
2, 15240, Note_on_c, 0, 70, 86
2, 15240, Note_on_c, 0, 67, 66
2, 15269, Note_on_c, 0, 67, 0
2, 15269, Note_on_c, 0, 70, 0
2, 15270, Note_on_c, 0, 75, 71
2, 15270, Note_on_c, 0, 82, 71
2, 15270, Note_on_c, 0, 58, 71
2, 15280, Control_c, 0, 64, 0
2, 15289, Note_on_c, 0, 58, 0
2, 15297, Note_on_c, 0, 82, 0
2, 15297, Note_on_c, 0, 75, 0
2, 15300, Note_on_c, 0, 72, 96
2, 15300, Control_c, 0, 64, 127
2, 15300, Note_on_c, 0, 46, 70
2, 15319, Note_on_c, 0, 46, 0
2, 15329, Note_on_c, 0, 72, 0
2, 15330, Note_on_c, 0, 84, 71
2, 15330, Note_on_c, 0, 76, 71
2, 15330, Note_on_c, 0, 64, 65
2, 15359, Note_on_c, 0, 64, 0
2, 15359, Note_on_c, 0, 76, 0
2, 15359, Note_on_c, 0, 84, 0
2, 15360, Note_on_c, 0, 71, 92
2, 15360, Note_on_c, 0, 60, 66
2, 15389, Note_on_c, 0, 60, 0
2, 15389, Note_on_c, 0, 71, 0
2, 15390, Note_on_c, 0, 83, 74
2, 15390, Note_on_c, 0, 76, 74
2, 15390, Note_on_c, 0, 55, 69
2, 15419, Note_on_c, 0, 55, 0
2, 15419, Note_on_c, 0, 76, 0
2, 15419, Note_on_c, 0, 83, 0
2, 15420, Note_on_c, 0, 70, 92
2, 15420, Note_on_c, 0, 67, 69
2, 15449, Note_on_c, 0, 67, 0
2, 15449, Note_on_c, 0, 70, 0
2, 15450, Note_on_c, 0, 82, 77
2, 15450, Note_on_c, 0, 76, 77
2, 15450, Note_on_c, 0, 60, 66
2, 15457, Control_c, 0, 64, 0
2, 15469, Note_on_c, 0, 60, 0
2, 15477, Note_on_c, 0, 76, 0
2, 15477, Note_on_c, 0, 82, 0
2, 15479, Control_c, 0, 64, 127
2, 15480, Note_on_c, 0, 72, 102
2, 15480, Note_on_c, 0, 46, 62
2, 15499, Note_on_c, 0, 46, 0
2, 15509, Note_on_c, 0, 72, 0
2, 15510, Note_on_c, 0, 77, 73
2, 15510, Note_on_c, 0, 84, 73
2, 15510, Note_on_c, 0, 65, 66
2, 15539, Note_on_c, 0, 65, 0
2, 15539, Note_on_c, 0, 84, 0
2, 15539, Note_on_c, 0, 77, 0
2, 15540, Note_on_c, 0, 71, 91
2, 15540, Note_on_c, 0, 62, 65
2, 15569, Note_on_c, 0, 62, 0
2, 15569, Note_on_c, 0, 71, 0
2, 15570, Note_on_c, 0, 77, 69
2, 15570, Note_on_c, 0, 83, 64
2, 15570, Note_on_c, 0, 56, 70
2, 15599, Note_on_c, 0, 56, 0
2, 15599, Note_on_c, 0, 83, 0
2, 15599, Note_on_c, 0, 77, 0
2, 15600, Note_on_c, 0, 70, 91
2, 15600, Note_on_c, 0, 68, 72
2, 15622, Control_c, 0, 64, 0
2, 15629, Note_on_c, 0, 68, 0
2, 15629, Note_on_c, 0, 70, 0
2, 15630, Note_on_c, 0, 82, 75
2, 15630, Note_on_c, 0, 77, 75
2, 15630, Note_on_c, 0, 62, 73
2, 15649, Note_on_c, 0, 62, 0
2, 15651, Control_c, 0, 64, 127
2, 15657, Note_on_c, 0, 77, 0
2, 15657, Note_on_c, 0, 82, 0
2, 15660, Note_on_c, 0, 70, 103
2, 15660, Note_on_c, 0, 46, 76
2, 15679, Note_on_c, 0, 46, 0
2, 15689, Note_on_c, 0, 70, 0
2, 15690, Note_on_c, 0, 82, 78
2, 15690, Note_on_c, 0, 74, 78
2, 15690, Note_on_c, 0, 62, 74
2, 15719, Note_on_c, 0, 62, 0
2, 15719, Note_on_c, 0, 74, 0
2, 15719, Note_on_c, 0, 82, 0
2, 15720, Note_on_c, 0, 79, 106
2, 15720, Note_on_c, 0, 58, 76
2, 15749, Note_on_c, 0, 58, 0
2, 15749, Note_on_c, 0, 79, 0
2, 15750, Note_on_c, 0, 91, 78
2, 15750, Note_on_c, 0, 82, 78
2, 15750, Note_on_c, 0, 56, 75
2, 15779, Note_on_c, 0, 56, 0
2, 15779, Note_on_c, 0, 82, 0
2, 15779, Note_on_c, 0, 91, 0
2, 15780, Note_on_c, 0, 77, 110
2, 15780, Note_on_c, 0, 62, 70
2, 15786, Control_c, 0, 64, 0
2, 15809, Note_on_c, 0, 62, 0
2, 15809, Note_on_c, 0, 77, 0
2, 15810, Note_on_c, 0, 89, 79
2, 15810, Note_on_c, 0, 80, 79
2, 15810, Note_on_c, 0, 58, 75
2, 15839, Note_on_c, 0, 58, 0
2, 15839, Note_on_c, 0, 80, 0
2, 15839, Note_on_c, 0, 89, 0
2, 15839, Control_c, 0, 64, 127
2, 15840, Note_on_c, 0, 75, 103
2, 15844, Note_on_c, 0, 51, 79
2, 15845, Note_on_c, 0, 63, 82
2, 15846, Note_on_c, 0, 55, 96
2, 15862, Note_on_c, 0, 55, 0
2, 15863, Note_on_c, 0, 51, 0
2, 15869, Note_on_c, 0, 63, 0
2, 15869, Note_on_c, 0, 75, 0
2, 15870, Note_on_c, 0, 87, 67
2, 15870, Note_on_c, 0, 79, 74
2, 15892, Control_c, 0, 64, 0
2, 15899, Note_on_c, 0, 79, 0
2, 15899, Note_on_c, 0, 87, 0
2, 15900, Note_on_c, 0, 76, 84
2, 15929, Note_on_c, 0, 76, 0
2, 15930, Note_on_c, 0, 88, 71
2, 15930, Note_on_c, 0, 80, 65
2, 15934, Note_on_c, 0, 51, 82
2, 15934, Note_on_c, 0, 59, 87
2, 15935, Note_on_c, 0, 56, 90
2, 15935, Note_on_c, 0, 62, 84
2, 15950, Control_c, 0, 64, 127
2, 15959, Note_on_c, 0, 80, 0
2, 15959, Note_on_c, 0, 88, 0
2, 15960, Note_on_c, 0, 88, 80
2, 15989, Note_on_c, 0, 88, 0
2, 15990, Note_on_c, 0, 100, 73
2, 15990, Note_on_c, 0, 92, 67
2, 16019, Note_on_c, 0, 92, 0
2, 16019, Note_on_c, 0, 100, 0
2, 16020, Note_on_c, 0, 88, 70
2, 16035, Note_on_c, 0, 62, 0
2, 16038, Note_on_c, 0, 59, 0
2, 16041, Note_on_c, 0, 56, 0
2, 16042, Note_on_c, 0, 51, 0
2, 16049, Note_on_c, 0, 88, 0
2, 16050, Note_on_c, 0, 80, 70
2, 16050, Note_on_c, 0, 88, 73
2, 16079, Note_on_c, 0, 88, 0
2, 16079, Note_on_c, 0, 80, 0
2, 16080, Note_on_c, 0, 76, 78
2, 16108, Note_on_c, 0, 39, 90
2, 16109, Note_on_c, 0, 76, 0
2, 16110, Note_on_c, 0, 68, 70
2, 16110, Note_on_c, 0, 76, 74
2, 16122, Note_on_c, 0, 39, 0
2, 16139, Note_on_c, 0, 76, 0
2, 16139, Note_on_c, 0, 68, 0
2, 16140, Note_on_c, 0, 64, 71
2, 16169, Note_on_c, 0, 64, 0
2, 16170, Note_on_c, 0, 68, 65
2, 16170, Note_on_c, 0, 76, 63
2, 16182, Control_c, 0, 64, 0
2, 16197, Note_on_c, 0, 51, 83
2, 16197, Note_on_c, 0, 58, 82
2, 16198, Note_on_c, 0, 55, 92
2, 16199, Note_on_c, 0, 76, 0
2, 16199, Note_on_c, 0, 68, 0
2, 16200, Note_on_c, 0, 63, 88
2, 16200, Control_c, 0, 64, 127
2, 16215, Note_on_c, 0, 58, 0
2, 16215, Note_on_c, 0, 55, 0
2, 16218, Note_on_c, 0, 51, 0
2, 16229, Note_on_c, 0, 63, 0
2, 16230, Note_on_c, 0, 75, 59
2, 16230, Note_on_c, 0, 67, 74
2, 16243, Control_c, 0, 64, 0
2, 16259, Note_on_c, 0, 67, 0
2, 16259, Note_on_c, 0, 75, 0
2, 16260, Note_on_c, 0, 64, 76
2, 16288, Note_on_c, 0, 51, 76
2, 16289, Note_on_c, 0, 64, 0
2, 16289, Note_on_c, 0, 59, 84
2, 16289, Note_on_c, 0, 56, 89
2, 16290, Note_on_c, 0, 68, 72
2, 16290, Note_on_c, 0, 76, 73
2, 16290, Note_on_c, 0, 62, 81
2, 16294, Control_c, 0, 64, 127
2, 16319, Note_on_c, 0, 76, 0
2, 16319, Note_on_c, 0, 68, 0
2, 16320, Note_on_c, 0, 76, 80
2, 16329, Note_on_c, 0, 62, 0
2, 16332, Note_on_c, 0, 59, 0
2, 16334, Note_on_c, 0, 51, 0
2, 16334, Note_on_c, 0, 56, 0
2, 16349, Note_on_c, 0, 76, 0
2, 16350, Note_on_c, 0, 88, 73
2, 16350, Note_on_c, 0, 80, 70
2, 16379, Note_on_c, 0, 80, 0
2, 16379, Note_on_c, 0, 88, 0
2, 16380, Note_on_c, 0, 88, 68
2, 16381, Note_on_c, 0, 39, 100
2, 16398, Note_on_c, 0, 39, 0
2, 16409, Note_on_c, 0, 88, 0
2, 16410, Note_on_c, 0, 92, 73
2, 16410, Note_on_c, 0, 100, 77
2, 16439, Note_on_c, 0, 100, 0
2, 16439, Note_on_c, 0, 92, 0
2, 16440, Note_on_c, 0, 88, 66
2, 16469, Note_on_c, 0, 88, 0
2, 16469, Note_on_c, 0, 56, 85
2, 16469, Note_on_c, 0, 59, 78
2, 16470, Note_on_c, 0, 80, 64
2, 16470, Note_on_c, 0, 88, 72
2, 16470, Note_on_c, 0, 51, 68
2, 16471, Note_on_c, 0, 62, 76
2, 16499, Note_on_c, 0, 88, 0
2, 16499, Note_on_c, 0, 80, 0
2, 16500, Note_on_c, 0, 76, 80
2, 16506, Control_c, 0, 64, 0
2, 16509, Note_on_c, 0, 51, 0
2, 16509, Note_on_c, 0, 59, 0
2, 16512, Note_on_c, 0, 56, 0
2, 16512, Note_on_c, 0, 62, 0
2, 16529, Note_on_c, 0, 76, 0
2, 16530, Note_on_c, 0, 68, 69
2, 16530, Note_on_c, 0, 76, 72
2, 16557, Note_on_c, 0, 51, 87
2, 16557, Note_on_c, 0, 58, 91
2, 16559, Note_on_c, 0, 76, 0
2, 16559, Note_on_c, 0, 68, 0
2, 16559, Note_on_c, 0, 55, 89
2, 16560, Note_on_c, 0, 63, 91
2, 16573, Note_on_c, 0, 55, 0
2, 16573, Note_on_c, 0, 58, 0
2, 16575, Note_on_c, 0, 51, 0
2, 16577, Control_c, 0, 64, 127
2, 16589, Note_on_c, 0, 63, 0
2, 16590, Note_on_c, 0, 75, 72
2, 16590, Note_on_c, 0, 67, 80
2, 16601, Note_on_c, 0, 39, 96
2, 16607, Note_on_c, 0, 39, 0
2, 16619, Note_on_c, 0, 67, 0
2, 16619, Note_on_c, 0, 75, 0
2, 16620, Note_on_c, 0, 75, 72
2, 16649, Note_on_c, 0, 75, 0
2, 16650, Note_on_c, 0, 87, 76
2, 16650, Note_on_c, 0, 79, 80
2, 16676, Control_c, 0, 64, 0
2, 16679, Note_on_c, 0, 79, 0
2, 16679, Note_on_c, 0, 87, 0
2, 16680, Note_on_c, 0, 75, 80
2, 16696, Note_on_c, 0, 58, 93
2, 16696, Note_on_c, 0, 51, 75
2, 16708, Note_on_c, 0, 51, 0
2, 16709, Note_on_c, 0, 75, 0
2, 16710, Note_on_c, 0, 75, 66
2, 16710, Note_on_c, 0, 67, 73
2, 16711, Note_on_c, 0, 58, 0
2, 16732, Control_c, 0, 64, 127
2, 16739, Note_on_c, 0, 67, 0
2, 16739, Note_on_c, 0, 75, 0
2, 16740, Note_on_c, 0, 66, 96
2, 16740, Note_on_c, 0, 51, 79
2, 16742, Note_on_c, 0, 60, 89
2, 16751, Note_on_c, 0, 60, 0
2, 16753, Note_on_c, 0, 51, 0
2, 16769, Note_on_c, 0, 66, 0
2, 16770, Note_on_c, 0, 78, 70
2, 16770, Note_on_c, 0, 69, 84
2, 16781, Note_on_c, 0, 39, 99
2, 16791, Note_on_c, 0, 39, 0
2, 16799, Note_on_c, 0, 69, 0
2, 16799, Note_on_c, 0, 78, 0
2, 16800, Note_on_c, 0, 78, 74
2, 16829, Note_on_c, 0, 78, 0
2, 16830, Note_on_c, 0, 81, 87
2, 16830, Note_on_c, 0, 90, 86
2, 16859, Note_on_c, 0, 90, 0
2, 16859, Note_on_c, 0, 81, 0
2, 16860, Note_on_c, 0, 78, 72
2, 16867, Control_c, 0, 64, 0
2, 16877, Note_on_c, 0, 60, 95
2, 16878, Note_on_c, 0, 51, 72
2, 16889, Note_on_c, 0, 78, 0
2, 16890, Note_on_c, 0, 69, 80
2, 16890, Note_on_c, 0, 78, 76
2, 16892, Note_on_c, 0, 51, 0
2, 16896, Note_on_c, 0, 60, 0
2, 16907, Control_c, 0, 64, 127
2, 16918, Note_on_c, 0, 51, 76
2, 16919, Note_on_c, 0, 69, 0
2, 16919, Note_on_c, 0, 78, 0
2, 16919, Note_on_c, 0, 59, 92
2, 16920, Note_on_c, 0, 65, 98
2, 16929, Note_on_c, 0, 59, 0
2, 16931, Note_on_c, 0, 51, 0
2, 16949, Note_on_c, 0, 65, 0
2, 16950, Note_on_c, 0, 68, 75
2, 16950, Note_on_c, 0, 77, 78
2, 16958, Note_on_c, 0, 39, 100
2, 16965, Note_on_c, 0, 39, 0
2, 16979, Note_on_c, 0, 77, 0
2, 16979, Note_on_c, 0, 68, 0
2, 16980, Note_on_c, 0, 77, 78
2, 17009, Note_on_c, 0, 77, 0
2, 17010, Note_on_c, 0, 80, 75
2, 17010, Note_on_c, 0, 89, 75
2, 17039, Note_on_c, 0, 89, 0
2, 17039, Note_on_c, 0, 80, 0
2, 17040, Note_on_c, 0, 77, 76
2, 17052, Control_c, 0, 64, 0
2, 17055, Note_on_c, 0, 51, 71
2, 17056, Note_on_c, 0, 59, 95
2, 17069, Note_on_c, 0, 77, 0
2, 17070, Note_on_c, 0, 51, 0
2, 17070, Note_on_c, 0, 77, 73
2, 17070, Note_on_c, 0, 68, 75
2, 17074, Note_on_c, 0, 59, 0
2, 17092, Control_c, 0, 64, 127
2, 17097, Note_on_c, 0, 51, 87
2, 17099, Note_on_c, 0, 68, 0
2, 17099, Note_on_c, 0, 77, 0
2, 17099, Note_on_c, 0, 62, 92
2, 17100, Note_on_c, 0, 68, 95
2, 17109, Note_on_c, 0, 62, 0
2, 17111, Note_on_c, 0, 51, 0
2, 17129, Note_on_c, 0, 68, 0
2, 17130, Note_on_c, 0, 80, 80
2, 17130, Note_on_c, 0, 71, 80
2, 17141, Note_on_c, 0, 39, 100
2, 17144, Note_on_c, 0, 39, 0
2, 17159, Note_on_c, 0, 71, 0
2, 17159, Note_on_c, 0, 80, 0
2, 17160, Note_on_c, 0, 80, 85
2, 17189, Note_on_c, 0, 80, 0
2, 17190, Note_on_c, 0, 92, 75
2, 17190, Note_on_c, 0, 83, 81
2, 17219, Note_on_c, 0, 83, 0
2, 17219, Note_on_c, 0, 92, 0
2, 17220, Note_on_c, 0, 80, 79
2, 17236, Note_on_c, 0, 62, 91
2, 17237, Note_on_c, 0, 51, 83
2, 17249, Note_on_c, 0, 80, 0
2, 17250, Note_on_c, 0, 51, 0
2, 17250, Note_on_c, 0, 62, 0
2, 17250, Note_on_c, 0, 80, 70
2, 17250, Note_on_c, 0, 71, 84
2, 17253, Control_c, 0, 64, 0
2, 17275, Note_on_c, 0, 51, 81
2, 17276, Note_on_c, 0, 61, 96
2, 17277, Control_c, 0, 64, 127
2, 17279, Note_on_c, 0, 71, 0
2, 17279, Note_on_c, 0, 80, 0
2, 17280, Note_on_c, 0, 67, 93
2, 17286, Note_on_c, 0, 61, 0
2, 17288, Note_on_c, 0, 51, 0
2, 17309, Note_on_c, 0, 67, 0
2, 17310, Note_on_c, 0, 70, 75
2, 17310, Note_on_c, 0, 79, 76
2, 17319, Note_on_c, 0, 39, 96
2, 17326, Note_on_c, 0, 39, 0
2, 17339, Note_on_c, 0, 79, 0
2, 17339, Note_on_c, 0, 70, 0
2, 17340, Note_on_c, 0, 79, 76
2, 17369, Note_on_c, 0, 79, 0
2, 17370, Note_on_c, 0, 91, 79
2, 17370, Note_on_c, 0, 82, 75
2, 17399, Note_on_c, 0, 82, 0
2, 17399, Note_on_c, 0, 91, 0
2, 17400, Note_on_c, 0, 79, 77
2, 17417, Note_on_c, 0, 51, 80
2, 17418, Note_on_c, 0, 61, 93
2, 17428, Note_on_c, 0, 51, 0
2, 17429, Note_on_c, 0, 79, 0
2, 17430, Note_on_c, 0, 70, 95
2, 17430, Note_on_c, 0, 79, 69
2, 17432, Note_on_c, 0, 61, 0
2, 17432, Control_c, 0, 64, 0
2, 17452, Control_c, 0, 64, 127
2, 17453, Note_on_c, 0, 51, 83
2, 17455, Note_on_c, 0, 64, 91
2, 17459, Note_on_c, 0, 79, 0
2, 17459, Note_on_c, 0, 70, 0
2, 17460, Note_on_c, 0, 70, 75
2, 17467, Note_on_c, 0, 51, 0
2, 17467, Note_on_c, 0, 64, 0
2, 17489, Note_on_c, 0, 70, 0
2, 17490, Note_on_c, 0, 82, 73
2, 17490, Note_on_c, 0, 74, 84
2, 17501, Note_on_c, 0, 39, 98
2, 17506, Note_on_c, 0, 39, 0
2, 17519, Note_on_c, 0, 74, 0
2, 17519, Note_on_c, 0, 82, 0
2, 17520, Note_on_c, 0, 82, 81
2, 17549, Note_on_c, 0, 82, 0
2, 17550, Note_on_c, 0, 86, 78
2, 17550, Note_on_c, 0, 94, 73
2, 17579, Note_on_c, 0, 94, 0
2, 17579, Note_on_c, 0, 86, 0
2, 17580, Note_on_c, 0, 82, 71
2, 17597, Note_on_c, 0, 64, 94
2, 17597, Note_on_c, 0, 51, 79
2, 17607, Control_c, 0, 64, 0
2, 17609, Note_on_c, 0, 82, 0
2, 17610, Note_on_c, 0, 64, 0
2, 17610, Note_on_c, 0, 82, 75
2, 17610, Note_on_c, 0, 74, 83
2, 17612, Note_on_c, 0, 51, 0
2, 17630, Control_c, 0, 64, 127
2, 17636, Note_on_c, 0, 51, 90
2, 17637, Note_on_c, 0, 63, 95
2, 17639, Note_on_c, 0, 74, 0
2, 17639, Note_on_c, 0, 82, 0
2, 17640, Note_on_c, 0, 69, 92
2, 17646, Note_on_c, 0, 63, 0
2, 17648, Note_on_c, 0, 51, 0
2, 17669, Note_on_c, 0, 69, 0
2, 17670, Note_on_c, 0, 72, 67
2, 17670, Note_on_c, 0, 81, 69
2, 17683, Note_on_c, 0, 39, 100
2, 17691, Note_on_c, 0, 39, 0
2, 17699, Note_on_c, 0, 81, 0
2, 17699, Note_on_c, 0, 72, 0
2, 17700, Note_on_c, 0, 81, 76
2, 17729, Note_on_c, 0, 81, 0
2, 17730, Note_on_c, 0, 93, 81
2, 17730, Note_on_c, 0, 84, 68
2, 17759, Note_on_c, 0, 84, 0
2, 17759, Note_on_c, 0, 93, 0
2, 17760, Note_on_c, 0, 81, 80
2, 17775, Note_on_c, 0, 51, 79
2, 17776, Note_on_c, 0, 63, 95
2, 17778, Control_c, 0, 64, 0
2, 17784, Note_on_c, 0, 51, 0
2, 17786, Note_on_c, 0, 63, 0
2, 17789, Note_on_c, 0, 81, 0
2, 17790, Note_on_c, 0, 72, 74
2, 17790, Note_on_c, 0, 81, 69
2, 17806, Control_c, 0, 64, 127
2, 17813, Note_on_c, 0, 66, 97
2, 17814, Note_on_c, 0, 51, 85
2, 17819, Note_on_c, 0, 81, 0
2, 17819, Note_on_c, 0, 72, 0
2, 17820, Note_on_c, 0, 72, 95
2, 17822, Note_on_c, 0, 66, 0
2, 17826, Note_on_c, 0, 51, 0
2, 17849, Note_on_c, 0, 72, 0
2, 17850, Note_on_c, 0, 84, 65
2, 17850, Note_on_c, 0, 75, 72
2, 17858, Note_on_c, 0, 39, 102
2, 17866, Note_on_c, 0, 39, 0
2, 17879, Note_on_c, 0, 75, 0
2, 17879, Note_on_c, 0, 84, 0
2, 17880, Note_on_c, 0, 84, 76
2, 17909, Note_on_c, 0, 84, 0
2, 17910, Note_on_c, 0, 96, 73
2, 17910, Note_on_c, 0, 87, 70
2, 17933, Control_c, 0, 64, 0
2, 17939, Note_on_c, 0, 87, 0
2, 17939, Note_on_c, 0, 96, 0
2, 17940, Note_on_c, 0, 84, 76
2, 17951, Note_on_c, 0, 66, 99
2, 17952, Note_on_c, 0, 51, 70
2, 17960, Note_on_c, 0, 51, 0
2, 17964, Note_on_c, 0, 66, 0
2, 17969, Note_on_c, 0, 84, 0
2, 17970, Note_on_c, 0, 75, 62
2, 17970, Note_on_c, 0, 84, 73
2, 17982, Note_on_c, 0, 51, 82
2, 17989, Note_on_c, 0, 58, 86
2, 17992, Control_c, 0, 64, 127
2, 17994, Note_on_c, 0, 61, 83
2, 17997, Note_on_c, 0, 51, 0
2, 17999, Note_on_c, 0, 75, 0
2, 17999, Note_on_c, 0, 84, 0
2, 18000, Note_on_c, 0, 73, 84
2, 18005, Note_on_c, 0, 67, 99
2, 18006, Note_on_c, 0, 58, 0
2, 18013, Note_on_c, 0, 61, 0
2, 18016, Note_on_c, 0, 67, 0
2, 18029, Note_on_c, 0, 73, 0
2, 18030, Note_on_c, 0, 75, 74
2, 18030, Note_on_c, 0, 85, 70
2, 18059, Note_on_c, 0, 85, 0
2, 18059, Note_on_c, 0, 75, 0
2, 18060, Note_on_c, 0, 85, 75
2, 18087, Note_on_c, 0, 79, 83
2, 18087, Note_on_c, 0, 70, 87
2, 18087, Note_on_c, 0, 73, 82
2, 18089, Note_on_c, 0, 85, 0
2, 18090, Note_on_c, 0, 87, 80
2, 18090, Note_on_c, 0, 97, 90
2, 18119, Note_on_c, 0, 97, 0
2, 18119, Note_on_c, 0, 87, 0
2, 18120, Note_on_c, 0, 85, 79
2, 18149, Note_on_c, 0, 85, 0
2, 18150, Note_on_c, 0, 97, 71
2, 18150, Note_on_c, 0, 87, 75
2, 18179, Note_on_c, 0, 87, 0
2, 18179, Note_on_c, 0, 97, 0
2, 18180, Note_on_c, 0, 85, 75
2, 18209, Note_on_c, 0, 85, 0
2, 18210, Note_on_c, 0, 97, 68
2, 18210, Note_on_c, 0, 87, 75
2, 18233, Note_on_c, 0, 79, 0
2, 18235, Note_on_c, 0, 73, 0
2, 18236, Note_on_c, 0, 70, 0
2, 18239, Note_on_c, 0, 97, 0
2, 18239, Note_on_c, 0, 87, 0
2, 18240, Note_on_c, 0, 85, 70
2, 18269, Note_on_c, 0, 85, 0
2, 18270, Note_on_c, 0, 97, 90
2, 18270, Note_on_c, 0, 87, 86
2, 18270, Note_on_c, 0, 78, 70
2, 18271, Note_on_c, 0, 73, 75
2, 18271, Note_on_c, 0, 69, 75
2, 18299, Note_on_c, 0, 87, 0
2, 18299, Note_on_c, 0, 97, 0
2, 18300, Note_on_c, 0, 85, 80
2, 18329, Note_on_c, 0, 85, 0
2, 18330, Note_on_c, 0, 97, 62
2, 18330, Note_on_c, 0, 87, 66
2, 18345, Note_on_c, 0, 78, 0
2, 18359, Note_on_c, 0, 97, 0
2, 18359, Note_on_c, 0, 87, 0
2, 18360, Note_on_c, 0, 85, 65
2, 18364, Note_on_c, 0, 70, 78
2, 18365, Note_on_c, 0, 79, 75
2, 18367, Note_on_c, 0, 69, 0
2, 18381, Control_c, 0, 64, 0
2, 18389, Note_on_c, 0, 85, 0
2, 18390, Note_on_c, 0, 87, 72
2, 18390, Note_on_c, 0, 97, 64
2, 18391, Note_on_c, 0, 70, 0
2, 18394, Note_on_c, 0, 79, 0
2, 18395, Note_on_c, 0, 73, 0
2, 18419, Note_on_c, 0, 97, 0
2, 18419, Note_on_c, 0, 87, 0
2, 18420, Note_on_c, 0, 85, 61
2, 18449, Note_on_c, 0, 85, 0
2, 18449, Control_c, 0, 64, 127
2, 18450, Note_on_c, 0, 87, 68
2, 18450, Note_on_c, 0, 97, 86
2, 18451, Note_on_c, 0, 78, 72
2, 18452, Note_on_c, 0, 73, 79
2, 18453, Note_on_c, 0, 69, 75
2, 18479, Note_on_c, 0, 97, 0
2, 18479, Note_on_c, 0, 87, 0
2, 18480, Note_on_c, 0, 85, 74
2, 18509, Note_on_c, 0, 85, 0
2, 18510, Note_on_c, 0, 87, 78
2, 18510, Note_on_c, 0, 97, 66
2, 18511, Note_on_c, 0, 78, 0
2, 18538, Note_on_c, 0, 70, 82
2, 18539, Note_on_c, 0, 87, 0
2, 18539, Note_on_c, 0, 97, 0
2, 18539, Note_on_c, 0, 69, 0
2, 18539, Note_on_c, 0, 79, 73
2, 18540, Note_on_c, 0, 85, 74
2, 18567, Note_on_c, 0, 70, 0
2, 18569, Note_on_c, 0, 85, 0
2, 18570, Note_on_c, 0, 73, 0
2, 18570, Note_on_c, 0, 97, 62
2, 18570, Note_on_c, 0, 87, 72
2, 18571, Note_on_c, 0, 79, 0
2, 18573, Control_c, 0, 64, 0
2, 18599, Note_on_c, 0, 87, 0
2, 18599, Note_on_c, 0, 97, 0
2, 18600, Note_on_c, 0, 85, 69
2, 18624, Control_c, 0, 64, 127
2, 18629, Note_on_c, 0, 85, 0
2, 18630, Note_on_c, 0, 97, 85
2, 18630, Note_on_c, 0, 87, 75
2, 18634, Note_on_c, 0, 73, 83
2, 18635, Note_on_c, 0, 69, 80
2, 18635, Note_on_c, 0, 78, 81
2, 18659, Note_on_c, 0, 87, 0
2, 18659, Note_on_c, 0, 97, 0
2, 18660, Note_on_c, 0, 85, 68
2, 18689, Note_on_c, 0, 85, 0
2, 18690, Note_on_c, 0, 87, 72
2, 18690, Note_on_c, 0, 97, 64
2, 18693, Note_on_c, 0, 78, 0
2, 18719, Note_on_c, 0, 87, 0
2, 18719, Note_on_c, 0, 97, 0
2, 18720, Note_on_c, 0, 85, 68
2, 18725, Note_on_c, 0, 75, 75
2, 18725, Note_on_c, 0, 78, 74
2, 18749, Note_on_c, 0, 85, 0
2, 18750, Note_on_c, 0, 97, 63
2, 18750, Note_on_c, 0, 87, 64
2, 18761, Note_on_c, 0, 69, 0
2, 18773, Note_on_c, 0, 73, 0
2, 18777, Control_c, 0, 64, 0
2, 18779, Note_on_c, 0, 97, 0
2, 18779, Note_on_c, 0, 87, 0
2, 18780, Note_on_c, 0, 85, 63
2, 18794, Control_c, 0, 64, 127
2, 18809, Note_on_c, 0, 85, 0
2, 18810, Note_on_c, 0, 96, 67
2, 18810, Note_on_c, 0, 87, 60
2, 18814, Note_on_c, 0, 68, 78
2, 18839, Note_on_c, 0, 87, 0
2, 18839, Note_on_c, 0, 96, 0
2, 18840, Note_on_c, 0, 84, 76
2, 18857, Note_on_c, 0, 75, 0
2, 18869, Note_on_c, 0, 84, 0
2, 18870, Note_on_c, 0, 87, 73
2, 18870, Note_on_c, 0, 96, 70
2, 18874, Note_on_c, 0, 78, 0
2, 18875, Control_c, 0, 64, 0
2, 18891, Control_c, 0, 64, 127
2, 18898, Note_on_c, 0, 74, 77
2, 18899, Note_on_c, 0, 96, 0
2, 18899, Note_on_c, 0, 87, 0
2, 18899, Note_on_c, 0, 77, 64
2, 18900, Note_on_c, 0, 84, 77
2, 18929, Note_on_c, 0, 84, 0
2, 18930, Note_on_c, 0, 96, 56
2, 18930, Note_on_c, 0, 86, 70
2, 18959, Note_on_c, 0, 86, 0
2, 18959, Note_on_c, 0, 96, 0
2, 18960, Note_on_c, 0, 84, 71
2, 18964, Note_on_c, 0, 68, 0
2, 18971, Control_c, 0, 64, 0
2, 18984, Control_c, 0, 64, 127
2, 18987, Note_on_c, 0, 67, 76
2, 18989, Note_on_c, 0, 84, 0
2, 18990, Note_on_c, 0, 95, 67
2, 18990, Note_on_c, 0, 86, 58
2, 19000, Note_on_c, 0, 77, 0
2, 19004, Note_on_c, 0, 74, 0
2, 19019, Note_on_c, 0, 95, 0
2, 19019, Note_on_c, 0, 86, 0
2, 19020, Note_on_c, 0, 83, 71
2, 19049, Note_on_c, 0, 83, 0
2, 19050, Note_on_c, 0, 86, 68
2, 19050, Note_on_c, 0, 95, 61
2, 19060, Control_c, 0, 64, 0
2, 19072, Control_c, 0, 64, 127
2, 19072, Note_on_c, 0, 73, 72
2, 19073, Note_on_c, 0, 76, 71
2, 19079, Note_on_c, 0, 95, 0
2, 19079, Note_on_c, 0, 86, 0
2, 19080, Note_on_c, 0, 83, 74
2, 19109, Note_on_c, 0, 83, 0
2, 19110, Note_on_c, 0, 95, 69
2, 19110, Note_on_c, 0, 85, 64
2, 19127, Note_on_c, 0, 67, 0
2, 19139, Note_on_c, 0, 95, 0
2, 19139, Note_on_c, 0, 85, 0
2, 19140, Note_on_c, 0, 83, 71
2, 19144, Control_c, 0, 64, 0
2, 19160, Control_c, 0, 64, 127
2, 19164, Note_on_c, 0, 66, 64
2, 19169, Note_on_c, 0, 83, 0
2, 19169, Note_on_c, 0, 73, 0
2, 19170, Note_on_c, 0, 85, 64
2, 19170, Note_on_c, 0, 94, 70
2, 19179, Note_on_c, 0, 76, 0
2, 19199, Note_on_c, 0, 94, 0
2, 19199, Note_on_c, 0, 85, 0
2, 19200, Note_on_c, 0, 82, 72
2, 19229, Note_on_c, 0, 82, 0
2, 19230, Note_on_c, 0, 94, 65
2, 19230, Note_on_c, 0, 85, 67
2, 19236, Control_c, 0, 64, 0
2, 19251, Control_c, 0, 64, 127
2, 19252, Note_on_c, 0, 75, 58
2, 19253, Note_on_c, 0, 72, 71
2, 19259, Note_on_c, 0, 85, 0
2, 19259, Note_on_c, 0, 94, 0
2, 19260, Note_on_c, 0, 82, 64
2, 19289, Note_on_c, 0, 82, 0
2, 19290, Note_on_c, 0, 94, 68
2, 19290, Note_on_c, 0, 84, 71
2, 19309, Note_on_c, 0, 66, 0
2, 19319, Note_on_c, 0, 94, 0
2, 19319, Note_on_c, 0, 84, 0
2, 19320, Note_on_c, 0, 82, 72
2, 19324, Control_c, 0, 64, 0
2, 19340, Control_c, 0, 64, 127
2, 19344, Note_on_c, 0, 65, 65
2, 19349, Note_on_c, 0, 82, 0
2, 19349, Note_on_c, 0, 75, 0
2, 19350, Note_on_c, 0, 84, 82
2, 19350, Note_on_c, 0, 93, 69
2, 19359, Note_on_c, 0, 72, 0
2, 19379, Note_on_c, 0, 93, 0
2, 19379, Note_on_c, 0, 84, 0
2, 19380, Note_on_c, 0, 81, 80
2, 19409, Note_on_c, 0, 81, 0
2, 19410, Note_on_c, 0, 84, 69
2, 19410, Note_on_c, 0, 93, 64
2, 19413, Control_c, 0, 64, 0
2, 19429, Control_c, 0, 64, 127
2, 19436, Note_on_c, 0, 71, 66
2, 19437, Note_on_c, 0, 74, 60
2, 19439, Note_on_c, 0, 93, 0
2, 19439, Note_on_c, 0, 84, 0
2, 19440, Note_on_c, 0, 81, 70
2, 19463, Note_on_c, 0, 65, 0
2, 19469, Note_on_c, 0, 81, 0
2, 19470, Note_on_c, 0, 83, 72
2, 19470, Note_on_c, 0, 93, 70
2, 19499, Note_on_c, 0, 93, 0
2, 19499, Note_on_c, 0, 83, 0
2, 19500, Note_on_c, 0, 80, 74
2, 19505, Control_c, 0, 64, 0
2, 19523, Control_c, 0, 64, 127
2, 19524, Note_on_c, 0, 64, 65
2, 19529, Note_on_c, 0, 80, 0
2, 19530, Note_on_c, 0, 83, 80
2, 19530, Note_on_c, 0, 92, 66
2, 19546, Note_on_c, 0, 71, 0
2, 19546, Note_on_c, 0, 74, 0
2, 19547, Note_on_c, 0, 64, 0
2, 19559, Note_on_c, 0, 92, 0
2, 19559, Note_on_c, 0, 83, 0
2, 19560, Note_on_c, 0, 80, 72
2, 19589, Note_on_c, 0, 80, 0
2, 19590, Note_on_c, 0, 83, 77
2, 19590, Note_on_c, 0, 92, 63
2, 19619, Note_on_c, 0, 92, 0
2, 19619, Note_on_c, 0, 83, 0
2, 19620, Note_on_c, 0, 80, 70
2, 19649, Note_on_c, 0, 80, 0
2, 19650, Note_on_c, 0, 83, 81
2, 19650, Note_on_c, 0, 92, 65
2, 19679, Note_on_c, 0, 92, 0
2, 19679, Note_on_c, 0, 83, 0
2, 19680, Note_on_c, 0, 80, 69
2, 19709, Note_on_c, 0, 80, 0
2, 19710, Note_on_c, 0, 83, 77
2, 19710, Note_on_c, 0, 92, 69
2, 19739, Note_on_c, 0, 92, 0
2, 19739, Note_on_c, 0, 83, 0
2, 19740, Note_on_c, 0, 80, 62
2, 19769, Note_on_c, 0, 80, 0
2, 19770, Note_on_c, 0, 92, 50
2, 19770, Note_on_c, 0, 83, 74
2, 19770, Control_c, 0, 64, 0
2, 19799, Note_on_c, 0, 83, 0
2, 19799, Note_on_c, 0, 92, 0
2, 19800, Note_on_c, 0, 80, 70
2, 19800, Control_c, 0, 64, 127
2, 19800, Control_c, 0, 67, 127
2, 19800, Note_on_c, 0, 40, 59
2, 19829, Note_on_c, 0, 80, 0
2, 19830, Note_on_c, 0, 83, 71
2, 19830, Note_on_c, 0, 92, 63
2, 19842, Note_on_c, 0, 40, 0
2, 19859, Note_on_c, 0, 92, 0
2, 19859, Note_on_c, 0, 83, 0
2, 19860, Note_on_c, 0, 78, 68
2, 19864, Note_on_c, 0, 47, 59
2, 19881, Note_on_c, 0, 47, 0
2, 19887, Note_on_c, 0, 50, 62
2, 19889, Note_on_c, 0, 78, 0
2, 19890, Note_on_c, 0, 81, 71
2, 19890, Note_on_c, 0, 90, 65
2, 19901, Note_on_c, 0, 50, 0
2, 19912, Note_on_c, 0, 56, 64
2, 19919, Note_on_c, 0, 90, 0
2, 19919, Note_on_c, 0, 81, 0
2, 19920, Note_on_c, 0, 76, 68
2, 19945, Note_on_c, 0, 62, 66
2, 19947, Note_on_c, 0, 56, 0
2, 19949, Note_on_c, 0, 76, 0
2, 19950, Note_on_c, 0, 88, 59
2, 19950, Note_on_c, 0, 80, 66
2, 19976, Note_on_c, 0, 62, 0
2, 19979, Note_on_c, 0, 80, 0
2, 19979, Note_on_c, 0, 88, 0
2, 19979, Note_on_c, 0, 68, 73
2, 19980, Note_on_c, 0, 74, 67
2, 20009, Note_on_c, 0, 74, 0
2, 20010, Note_on_c, 0, 86, 56
2, 20010, Note_on_c, 0, 78, 56
2, 20039, Note_on_c, 0, 78, 0
2, 20039, Note_on_c, 0, 86, 0
2, 20040, Note_on_c, 0, 71, 56
2, 20056, Note_on_c, 0, 68, 0
2, 20069, Note_on_c, 0, 71, 0
2, 20070, Note_on_c, 0, 83, 65
2, 20070, Note_on_c, 0, 74, 56
2, 20099, Note_on_c, 0, 74, 0
2, 20099, Note_on_c, 0, 83, 0
2, 20100, Note_on_c, 0, 68, 59
2, 20129, Note_on_c, 0, 68, 0
2, 20130, Note_on_c, 0, 80, 61
2, 20130, Control_c, 0, 64, 0
2, 20130, Note_on_c, 0, 71, 62
2, 20158, Control_c, 0, 67, 0
2, 20159, Note_on_c, 0, 71, 0
2, 20159, Note_on_c, 0, 80, 0
2, 20160, Control_c, 0, 64, 127
2, 20160, Note_on_c, 0, 68, 71
2, 20160, Note_on_c, 0, 39, 65
2, 20178, Note_on_c, 0, 39, 0
2, 20184, Note_on_c, 0, 68, 0
2, 20190, Note_on_c, 0, 72, 78
2, 20190, Note_on_c, 0, 80, 78
2, 20190, Note_on_c, 0, 60, 64
2, 20219, Note_on_c, 0, 60, 0
2, 20220, Note_on_c, 0, 80, 0
2, 20220, Note_on_c, 0, 72, 0
2, 20220, Note_on_c, 0, 70, 74
2, 20220, Note_on_c, 0, 56, 68
2, 20244, Note_on_c, 0, 70, 0
2, 20249, Note_on_c, 0, 56, 0
2, 20250, Note_on_c, 0, 73, 77
2, 20250, Note_on_c, 0, 82, 77
2, 20250, Note_on_c, 0, 51, 71
2, 20279, Note_on_c, 0, 51, 0
2, 20280, Note_on_c, 0, 82, 0
2, 20280, Note_on_c, 0, 73, 0
2, 20280, Note_on_c, 0, 71, 75
2, 20280, Note_on_c, 0, 63, 63
2, 20304, Note_on_c, 0, 71, 0
2, 20309, Note_on_c, 0, 63, 0
2, 20310, Note_on_c, 0, 83, 79
2, 20310, Note_on_c, 0, 74, 79
2, 20310, Note_on_c, 0, 56, 56
2, 20324, Control_c, 0, 64, 0
2, 20328, Note_on_c, 0, 56, 0
2, 20340, Note_on_c, 0, 74, 0
2, 20340, Note_on_c, 0, 83, 0
2, 20340, Note_on_c, 0, 72, 73
2, 20340, Note_on_c, 0, 39, 62
2, 20344, Control_c, 0, 64, 127
2, 20358, Note_on_c, 0, 39, 0
2, 20364, Note_on_c, 0, 72, 0
2, 20370, Note_on_c, 0, 84, 76
2, 20370, Note_on_c, 0, 75, 76
2, 20370, Note_on_c, 0, 60, 66
2, 20399, Note_on_c, 0, 60, 0
2, 20400, Note_on_c, 0, 75, 0
2, 20400, Note_on_c, 0, 84, 0
2, 20400, Note_on_c, 0, 73, 67
2, 20400, Note_on_c, 0, 56, 67
2, 20424, Note_on_c, 0, 73, 0
2, 20429, Note_on_c, 0, 56, 0
2, 20430, Note_on_c, 0, 76, 75
2, 20430, Note_on_c, 0, 85, 75
2, 20430, Note_on_c, 0, 51, 67
2, 20459, Note_on_c, 0, 51, 0
2, 20460, Note_on_c, 0, 85, 0
2, 20460, Note_on_c, 0, 76, 0
2, 20460, Note_on_c, 0, 74, 78
2, 20460, Note_on_c, 0, 63, 68
2, 20484, Note_on_c, 0, 74, 0
2, 20489, Note_on_c, 0, 63, 0
2, 20490, Note_on_c, 0, 86, 77
2, 20490, Note_on_c, 0, 77, 77
2, 20490, Note_on_c, 0, 56, 54
2, 20508, Note_on_c, 0, 56, 0
2, 20511, Control_c, 0, 64, 0
2, 20520, Note_on_c, 0, 77, 0
2, 20520, Note_on_c, 0, 86, 0
2, 20520, Note_on_c, 0, 75, 76
2, 20520, Note_on_c, 0, 39, 65
2, 20535, Control_c, 0, 64, 127
2, 20538, Note_on_c, 0, 39, 0
2, 20544, Note_on_c, 0, 75, 0
2, 20550, Note_on_c, 0, 87, 81
2, 20550, Note_on_c, 0, 79, 81
2, 20550, Note_on_c, 0, 61, 67
2, 20579, Note_on_c, 0, 61, 0
2, 20580, Note_on_c, 0, 79, 0
2, 20580, Note_on_c, 0, 87, 0
2, 20580, Note_on_c, 0, 77, 80
2, 20580, Note_on_c, 0, 55, 67
2, 20604, Note_on_c, 0, 77, 0
2, 20609, Note_on_c, 0, 55, 0
2, 20610, Note_on_c, 0, 80, 79
2, 20610, Note_on_c, 0, 89, 79
2, 20610, Note_on_c, 0, 51, 68
2, 20639, Note_on_c, 0, 51, 0
2, 20640, Note_on_c, 0, 89, 0
2, 20640, Note_on_c, 0, 80, 0
2, 20640, Note_on_c, 0, 75, 76
2, 20640, Note_on_c, 0, 63, 65
2, 20664, Note_on_c, 0, 75, 0
2, 20669, Note_on_c, 0, 63, 0
2, 20670, Note_on_c, 0, 79, 81
2, 20670, Note_on_c, 0, 87, 81
2, 20670, Note_on_c, 0, 55, 56
2, 20679, Control_c, 0, 64, 0
2, 20688, Note_on_c, 0, 55, 0
2, 20695, Control_c, 0, 64, 127
2, 20700, Note_on_c, 0, 87, 0
2, 20700, Note_on_c, 0, 79, 0
2, 20700, Note_on_c, 0, 72, 74
2, 20700, Note_on_c, 0, 44, 60
2, 20718, Note_on_c, 0, 44, 0
2, 20724, Note_on_c, 0, 72, 0
2, 20730, Note_on_c, 0, 84, 79
2, 20730, Note_on_c, 0, 75, 79
2, 20730, Note_on_c, 0, 60, 66
2, 20759, Note_on_c, 0, 60, 0
2, 20760, Note_on_c, 0, 75, 0
2, 20760, Note_on_c, 0, 84, 0
2, 20760, Note_on_c, 0, 70, 75
2, 20760, Note_on_c, 0, 56, 68
2, 20784, Note_on_c, 0, 70, 0
2, 20789, Note_on_c, 0, 56, 0
2, 20790, Note_on_c, 0, 82, 82
2, 20790, Note_on_c, 0, 73, 82
2, 20790, Note_on_c, 0, 51, 66
2, 20819, Note_on_c, 0, 51, 0
2, 20820, Note_on_c, 0, 73, 0
2, 20820, Note_on_c, 0, 82, 0
2, 20820, Note_on_c, 0, 72, 73
2, 20820, Note_on_c, 0, 63, 65
2, 20827, Control_c, 0, 64, 0
2, 20844, Note_on_c, 0, 72, 0
2, 20849, Note_on_c, 0, 63, 0
2, 20850, Note_on_c, 0, 84, 79
2, 20850, Note_on_c, 0, 75, 79
2, 20850, Control_c, 0, 64, 127
2, 20850, Note_on_c, 0, 56, 56
2, 20868, Note_on_c, 0, 56, 0
2, 20880, Note_on_c, 0, 75, 0
2, 20880, Note_on_c, 0, 84, 0
2, 20880, Note_on_c, 0, 70, 74
2, 20880, Note_on_c, 0, 44, 67
2, 20898, Note_on_c, 0, 44, 0
2, 20904, Note_on_c, 0, 70, 0
2, 20910, Note_on_c, 0, 82, 78
2, 20910, Note_on_c, 0, 73, 78
2, 20910, Note_on_c, 0, 61, 56
2, 20939, Note_on_c, 0, 61, 0
2, 20940, Note_on_c, 0, 73, 0
2, 20940, Note_on_c, 0, 82, 0
2, 20940, Note_on_c, 0, 72, 73
2, 20940, Note_on_c, 0, 55, 60
2, 20964, Note_on_c, 0, 72, 0
2, 20969, Note_on_c, 0, 55, 0
2, 20970, Note_on_c, 0, 75, 78
2, 20970, Note_on_c, 0, 84, 78
2, 20970, Note_on_c, 0, 51, 67
2, 20999, Note_on_c, 0, 51, 0
2, 21000, Note_on_c, 0, 84, 0
2, 21000, Note_on_c, 0, 75, 0
2, 21000, Note_on_c, 0, 67, 66
2, 21000, Control_c, 0, 64, 0
2, 21000, Note_on_c, 0, 63, 65
2, 21024, Note_on_c, 0, 67, 0
2, 21028, Control_c, 0, 64, 127
2, 21029, Note_on_c, 0, 63, 0
2, 21030, Note_on_c, 0, 70, 81
2, 21030, Note_on_c, 0, 79, 81
2, 21030, Note_on_c, 0, 55, 57
2, 21048, Note_on_c, 0, 55, 0
2, 21060, Note_on_c, 0, 79, 0
2, 21060, Note_on_c, 0, 70, 0
2, 21060, Note_on_c, 0, 68, 79
2, 21060, Note_on_c, 0, 44, 60
2, 21078, Note_on_c, 0, 44, 0
2, 21084, Note_on_c, 0, 68, 0
2, 21090, Note_on_c, 0, 72, 80
2, 21090, Note_on_c, 0, 80, 80
2, 21090, Note_on_c, 0, 60, 66
2, 21119, Note_on_c, 0, 60, 0
2, 21120, Note_on_c, 0, 80, 0
2, 21120, Note_on_c, 0, 72, 0
2, 21120, Note_on_c, 0, 67, 68
2, 21120, Note_on_c, 0, 56, 67
2, 21144, Note_on_c, 0, 67, 0
2, 21149, Note_on_c, 0, 56, 0
2, 21150, Note_on_c, 0, 79, 82
2, 21150, Note_on_c, 0, 70, 82
2, 21150, Note_on_c, 0, 51, 64
2, 21179, Note_on_c, 0, 51, 0
2, 21180, Note_on_c, 0, 70, 0
2, 21180, Note_on_c, 0, 79, 0
2, 21180, Note_on_c, 0, 68, 75
2, 21180, Note_on_c, 0, 63, 65
2, 21183, Control_c, 0, 64, 0
2, 21204, Note_on_c, 0, 68, 0
2, 21208, Control_c, 0, 64, 127
2, 21209, Note_on_c, 0, 63, 0
2, 21210, Note_on_c, 0, 80, 77
2, 21210, Note_on_c, 0, 72, 77
2, 21210, Note_on_c, 0, 56, 54
2, 21228, Note_on_c, 0, 56, 0
2, 21240, Note_on_c, 0, 72, 0
2, 21240, Note_on_c, 0, 80, 0
2, 21240, Note_on_c, 0, 65, 74
2, 21240, Note_on_c, 0, 46, 61
2, 21258, Note_on_c, 0, 46, 0
2, 21264, Note_on_c, 0, 65, 0
2, 21270, Note_on_c, 0, 77, 77
2, 21270, Note_on_c, 0, 68, 77
2, 21270, Note_on_c, 0, 62, 71
2, 21299, Note_on_c, 0, 62, 0
2, 21300, Note_on_c, 0, 68, 0
2, 21300, Note_on_c, 0, 77, 0
2, 21300, Note_on_c, 0, 67, 68
2, 21300, Note_on_c, 0, 58, 70
2, 21324, Note_on_c, 0, 67, 0
2, 21329, Note_on_c, 0, 58, 0
2, 21330, Note_on_c, 0, 79, 76
2, 21330, Note_on_c, 0, 70, 76
2, 21330, Note_on_c, 0, 56, 67
2, 21359, Note_on_c, 0, 56, 0
2, 21360, Note_on_c, 0, 70, 0
2, 21360, Note_on_c, 0, 79, 0
2, 21360, Note_on_c, 0, 65, 71
2, 21360, Note_on_c, 0, 62, 75
2, 21374, Control_c, 0, 64, 0
2, 21384, Note_on_c, 0, 65, 0
2, 21389, Note_on_c, 0, 62, 0
2, 21390, Note_on_c, 0, 77, 80
2, 21390, Note_on_c, 0, 68, 80
2, 21390, Note_on_c, 0, 58, 53
2, 21394, Control_c, 0, 64, 127
2, 21408, Note_on_c, 0, 58, 0
2, 21420, Note_on_c, 0, 68, 0
2, 21420, Note_on_c, 0, 77, 0
2, 21420, Note_on_c, 0, 64, 74
2, 21420, Note_on_c, 0, 39, 64
2, 21438, Note_on_c, 0, 39, 0
2, 21444, Note_on_c, 0, 64, 0
2, 21450, Note_on_c, 0, 67, 80
2, 21450, Note_on_c, 0, 76, 80
2, 21450, Note_on_c, 0, 61, 70
2, 21479, Note_on_c, 0, 61, 0
2, 21480, Note_on_c, 0, 76, 0
2, 21480, Note_on_c, 0, 67, 0
2, 21480, Note_on_c, 0, 63, 70
2, 21480, Note_on_c, 0, 58, 70
2, 21504, Note_on_c, 0, 63, 0
2, 21509, Note_on_c, 0, 58, 0
2, 21510, Note_on_c, 0, 67, 77
2, 21510, Note_on_c, 0, 75, 77
2, 21510, Note_on_c, 0, 51, 65
2, 21535, Control_c, 0, 64, 0
2, 21536, Note_on_c, 0, 67, 0
2, 21539, Note_on_c, 0, 51, 0
2, 21540, Note_on_c, 0, 75, 0
2, 21540, Note_on_c, 0, 67, 69
2, 21540, Note_on_c, 0, 61, 71
2, 21564, Note_on_c, 0, 67, 0
2, 21569, Note_on_c, 0, 61, 0
2, 21570, Note_on_c, 0, 79, 67
2, 21570, Note_on_c, 0, 70, 67
2, 21570, Note_on_c, 0, 58, 53
2, 21573, Control_c, 0, 64, 127
2, 21588, Note_on_c, 0, 58, 0
2, 21600, Note_on_c, 0, 70, 0
2, 21600, Note_on_c, 0, 79, 0
2, 21600, Note_on_c, 0, 68, 66
2, 21600, Note_on_c, 0, 44, 55
2, 21618, Note_on_c, 0, 44, 0
2, 21630, Note_on_c, 0, 68, 0
2, 21630, Note_on_c, 0, 80, 71
2, 21630, Note_on_c, 0, 72, 58
2, 21630, Note_on_c, 0, 60, 61
2, 21654, Note_on_c, 0, 72, 0
2, 21654, Note_on_c, 0, 80, 0
2, 21659, Note_on_c, 0, 60, 0
2, 21660, Note_on_c, 0, 70, 75
2, 21660, Note_on_c, 0, 56, 62
2, 21689, Note_on_c, 0, 56, 0
2, 21690, Note_on_c, 0, 70, 0
2, 21690, Note_on_c, 0, 73, 70
2, 21690, Note_on_c, 0, 82, 75
2, 21690, Note_on_c, 0, 51, 62
2, 21714, Note_on_c, 0, 82, 0
2, 21714, Note_on_c, 0, 73, 0
2, 21719, Note_on_c, 0, 51, 0
2, 21720, Note_on_c, 0, 71, 74
2, 21720, Note_on_c, 0, 63, 62
2, 21726, Control_c, 0, 64, 0
2, 21749, Note_on_c, 0, 63, 0
2, 21750, Note_on_c, 0, 71, 0
2, 21750, Note_on_c, 0, 83, 71
2, 21750, Note_on_c, 0, 74, 70
2, 21750, Note_on_c, 0, 56, 60
2, 21762, Control_c, 0, 64, 127
2, 21768, Note_on_c, 0, 56, 0
2, 21774, Note_on_c, 0, 74, 0
2, 21774, Note_on_c, 0, 83, 0
2, 21780, Note_on_c, 0, 72, 77
2, 21780, Note_on_c, 0, 44, 62
2, 21798, Note_on_c, 0, 44, 0
2, 21810, Note_on_c, 0, 72, 0
2, 21810, Note_on_c, 0, 75, 68
2, 21810, Note_on_c, 0, 84, 78
2, 21810, Note_on_c, 0, 60, 64
2, 21834, Note_on_c, 0, 84, 0
2, 21834, Note_on_c, 0, 75, 0
2, 21839, Note_on_c, 0, 60, 0
2, 21840, Note_on_c, 0, 73, 70
2, 21840, Note_on_c, 0, 56, 63
2, 21869, Note_on_c, 0, 56, 0
2, 21870, Note_on_c, 0, 73, 0
2, 21870, Note_on_c, 0, 85, 69
2, 21870, Note_on_c, 0, 76, 67
2, 21870, Note_on_c, 0, 51, 63
2, 21894, Note_on_c, 0, 76, 0
2, 21894, Note_on_c, 0, 85, 0
2, 21899, Note_on_c, 0, 51, 0
2, 21899, Control_c, 0, 64, 0
2, 21900, Note_on_c, 0, 74, 74
2, 21900, Note_on_c, 0, 63, 64
2, 21929, Note_on_c, 0, 63, 0
2, 21930, Note_on_c, 0, 74, 0
2, 21930, Note_on_c, 0, 77, 62
2, 21930, Note_on_c, 0, 86, 74
2, 21930, Note_on_c, 0, 56, 67
2, 21941, Control_c, 0, 64, 127
2, 21948, Note_on_c, 0, 56, 0
2, 21954, Note_on_c, 0, 86, 0
2, 21954, Note_on_c, 0, 77, 0
2, 21960, Note_on_c, 0, 75, 74
2, 21960, Note_on_c, 0, 44, 68
2, 21978, Note_on_c, 0, 44, 0
2, 21990, Note_on_c, 0, 75, 0
2, 21990, Note_on_c, 0, 87, 76
2, 21990, Note_on_c, 0, 79, 62
2, 21990, Note_on_c, 0, 61, 64
2, 22014, Note_on_c, 0, 79, 0
2, 22014, Note_on_c, 0, 87, 0
2, 22019, Note_on_c, 0, 61, 0
2, 22020, Note_on_c, 0, 77, 68
2, 22020, Note_on_c, 0, 55, 63
2, 22049, Note_on_c, 0, 55, 0
2, 22050, Note_on_c, 0, 77, 0
2, 22050, Note_on_c, 0, 80, 67
2, 22050, Note_on_c, 0, 89, 66
2, 22050, Note_on_c, 0, 51, 64
2, 22074, Note_on_c, 0, 89, 0
2, 22074, Note_on_c, 0, 80, 0
2, 22079, Note_on_c, 0, 51, 0
2, 22080, Note_on_c, 0, 75, 72
2, 22080, Note_on_c, 0, 63, 61
2, 22095, Control_c, 0, 64, 0
2, 22109, Note_on_c, 0, 63, 0
2, 22110, Note_on_c, 0, 75, 0
2, 22110, Note_on_c, 0, 87, 74
2, 22110, Note_on_c, 0, 79, 66
2, 22110, Note_on_c, 0, 55, 61
2, 22123, Control_c, 0, 64, 127
2, 22128, Note_on_c, 0, 55, 0
2, 22134, Note_on_c, 0, 79, 0
2, 22134, Note_on_c, 0, 87, 0
2, 22140, Note_on_c, 0, 72, 67
2, 22140, Note_on_c, 0, 44, 60
2, 22158, Note_on_c, 0, 44, 0
2, 22170, Note_on_c, 0, 72, 0
2, 22170, Note_on_c, 0, 75, 65
2, 22170, Note_on_c, 0, 84, 67
2, 22170, Note_on_c, 0, 60, 58
2, 22194, Note_on_c, 0, 84, 0
2, 22194, Note_on_c, 0, 75, 0
2, 22199, Note_on_c, 0, 60, 0
2, 22200, Note_on_c, 0, 70, 72
2, 22200, Note_on_c, 0, 56, 57
2, 22229, Note_on_c, 0, 56, 0
2, 22230, Note_on_c, 0, 70, 0
2, 22230, Note_on_c, 0, 82, 79
2, 22230, Note_on_c, 0, 73, 62
2, 22230, Note_on_c, 0, 54, 62
2, 22254, Note_on_c, 0, 73, 0
2, 22254, Note_on_c, 0, 82, 0
2, 22259, Note_on_c, 0, 54, 0
2, 22260, Note_on_c, 0, 72, 71
2, 22260, Note_on_c, 0, 63, 62
2, 22280, Control_c, 0, 64, 0
2, 22289, Note_on_c, 0, 63, 0
2, 22290, Note_on_c, 0, 72, 0
2, 22290, Note_on_c, 0, 75, 68
2, 22290, Note_on_c, 0, 84, 66
2, 22290, Note_on_c, 0, 56, 58
2, 22308, Note_on_c, 0, 56, 0
2, 22312, Control_c, 0, 64, 127
2, 22314, Note_on_c, 0, 84, 0
2, 22314, Note_on_c, 0, 75, 0
2, 22320, Note_on_c, 0, 73, 65
2, 22320, Note_on_c, 0, 49, 56
2, 22338, Note_on_c, 0, 49, 0
2, 22347, Note_on_c, 0, 73, 0
2, 22350, Note_on_c, 0, 77, 62
2, 22350, Note_on_c, 0, 85, 72
2, 22350, Note_on_c, 0, 65, 57
2, 22377, Note_on_c, 0, 85, 0
2, 22377, Note_on_c, 0, 77, 0
2, 22379, Note_on_c, 0, 65, 0
2, 22380, Note_on_c, 0, 75, 75
2, 22380, Note_on_c, 0, 61, 59
2, 22407, Note_on_c, 0, 75, 0
2, 22409, Note_on_c, 0, 61, 0
2, 22410, Note_on_c, 0, 87, 78
2, 22410, Note_on_c, 0, 79, 68
2, 22410, Note_on_c, 0, 56, 59
2, 22437, Note_on_c, 0, 79, 0
2, 22437, Note_on_c, 0, 87, 0
2, 22439, Note_on_c, 0, 56, 0
2, 22440, Note_on_c, 0, 77, 71
2, 22440, Note_on_c, 0, 65, 59
2, 22453, Control_c, 0, 64, 0
2, 22467, Note_on_c, 0, 77, 0
2, 22469, Note_on_c, 0, 65, 0
2, 22470, Note_on_c, 0, 80, 66
2, 22470, Note_on_c, 0, 89, 62
2, 22470, Note_on_c, 0, 61, 60
2, 22485, Control_c, 0, 64, 127
2, 22488, Note_on_c, 0, 61, 0
2, 22497, Note_on_c, 0, 89, 0
2, 22497, Note_on_c, 0, 80, 0
2, 22500, Note_on_c, 0, 76, 71
2, 22500, Note_on_c, 0, 48, 60
2, 22518, Note_on_c, 0, 48, 0
2, 22527, Note_on_c, 0, 76, 0
2, 22530, Note_on_c, 0, 91, 63
2, 22530, Note_on_c, 0, 82, 68
2, 22530, Note_on_c, 0, 64, 62
2, 22557, Note_on_c, 0, 82, 0
2, 22557, Note_on_c, 0, 91, 0
2, 22559, Note_on_c, 0, 64, 0
2, 22560, Note_on_c, 0, 77, 74
2, 22560, Note_on_c, 0, 60, 64
2, 22587, Note_on_c, 0, 77, 0
2, 22589, Note_on_c, 0, 60, 0
2, 22590, Note_on_c, 0, 92, 73
2, 22590, Note_on_c, 0, 84, 61
2, 22590, Note_on_c, 0, 58, 66
2, 22617, Note_on_c, 0, 84, 0
2, 22617, Note_on_c, 0, 92, 0
2, 22619, Note_on_c, 0, 58, 0
2, 22620, Note_on_c, 0, 79, 68
2, 22620, Note_on_c, 0, 67, 63
2, 22621, Control_c, 0, 64, 0
2, 22647, Note_on_c, 0, 79, 0
2, 22649, Note_on_c, 0, 67, 0
2, 22650, Note_on_c, 0, 94, 59
2, 22650, Note_on_c, 0, 85, 60
2, 22650, Note_on_c, 0, 60, 64
2, 22652, Control_c, 0, 64, 127
2, 22668, Note_on_c, 0, 60, 0
2, 22677, Note_on_c, 0, 85, 0
2, 22677, Note_on_c, 0, 94, 0
2, 22680, Note_on_c, 0, 79, 76
2, 22680, Note_on_c, 0, 53, 67
2, 22698, Note_on_c, 0, 53, 0
2, 22707, Note_on_c, 0, 79, 0
2, 22710, Note_on_c, 0, 94, 73
2, 22710, Note_on_c, 0, 85, 56
2, 22710, Note_on_c, 0, 65, 67
2, 22737, Note_on_c, 0, 85, 0
2, 22737, Note_on_c, 0, 94, 0
2, 22739, Note_on_c, 0, 65, 0
2, 22740, Note_on_c, 0, 80, 77
2, 22740, Note_on_c, 0, 60, 64
2, 22767, Note_on_c, 0, 80, 0
2, 22769, Note_on_c, 0, 60, 0
2, 22770, Note_on_c, 0, 92, 75
2, 22770, Note_on_c, 0, 84, 61
2, 22770, Note_on_c, 0, 56, 63
2, 22797, Note_on_c, 0, 84, 0
2, 22797, Note_on_c, 0, 92, 0
2, 22799, Note_on_c, 0, 56, 0
2, 22800, Note_on_c, 0, 76, 70
2, 22800, Note_on_c, 0, 68, 60
2, 22811, Control_c, 0, 64, 0
2, 22827, Note_on_c, 0, 76, 0
2, 22829, Note_on_c, 0, 68, 0
2, 22830, Note_on_c, 0, 88, 74
2, 22830, Note_on_c, 0, 79, 62
2, 22830, Note_on_c, 0, 60, 57
2, 22837, Control_c, 0, 64, 127
2, 22848, Note_on_c, 0, 60, 0
2, 22857, Note_on_c, 0, 79, 0
2, 22857, Note_on_c, 0, 88, 0
2, 22860, Note_on_c, 0, 79, 69
2, 22860, Note_on_c, 0, 49, 58
2, 22878, Note_on_c, 0, 49, 0
2, 22887, Note_on_c, 0, 79, 0
2, 22890, Note_on_c, 0, 91, 69
2, 22890, Note_on_c, 0, 82, 68
2, 22890, Note_on_c, 0, 65, 57
2, 22917, Note_on_c, 0, 82, 0
2, 22917, Note_on_c, 0, 91, 0
2, 22919, Note_on_c, 0, 65, 0
2, 22920, Note_on_c, 0, 77, 75
2, 22920, Note_on_c, 0, 58, 58
2, 22947, Note_on_c, 0, 77, 0
2, 22949, Note_on_c, 0, 58, 0
2, 22950, Note_on_c, 0, 80, 65
2, 22950, Note_on_c, 0, 89, 66
2, 22950, Note_on_c, 0, 56, 57
2, 22977, Note_on_c, 0, 89, 0
2, 22977, Note_on_c, 0, 80, 0
2, 22979, Note_on_c, 0, 56, 0
2, 22980, Note_on_c, 0, 73, 67
2, 22980, Note_on_c, 0, 65, 58
2, 23004, Control_c, 0, 64, 0
2, 23007, Note_on_c, 0, 73, 0
2, 23009, Note_on_c, 0, 65, 0
2, 23010, Note_on_c, 0, 77, 62
2, 23010, Note_on_c, 0, 85, 65
2, 23010, Note_on_c, 0, 58, 57
2, 23028, Note_on_c, 0, 58, 0
2, 23033, Control_c, 0, 64, 127
2, 23037, Note_on_c, 0, 85, 0
2, 23037, Note_on_c, 0, 77, 0
2, 23040, Note_on_c, 0, 77, 76
2, 23040, Note_on_c, 0, 51, 56
2, 23058, Note_on_c, 0, 51, 0
2, 23067, Note_on_c, 0, 77, 0
2, 23070, Note_on_c, 0, 89, 66
2, 23070, Note_on_c, 0, 80, 70
2, 23070, Note_on_c, 0, 63, 54
2, 23097, Note_on_c, 0, 80, 0
2, 23097, Note_on_c, 0, 89, 0
2, 23099, Note_on_c, 0, 63, 0
2, 23100, Note_on_c, 0, 76, 73
2, 23100, Note_on_c, 0, 60, 61
2, 23127, Note_on_c, 0, 76, 0
2, 23129, Note_on_c, 0, 60, 0
2, 23130, Note_on_c, 0, 88, 69
2, 23130, Note_on_c, 0, 80, 75
2, 23130, Note_on_c, 0, 56, 64
2, 23157, Note_on_c, 0, 80, 0
2, 23157, Note_on_c, 0, 88, 0
2, 23159, Note_on_c, 0, 56, 0
2, 23160, Note_on_c, 0, 75, 68
2, 23160, Note_on_c, 0, 68, 65
2, 23187, Note_on_c, 0, 75, 0
2, 23189, Note_on_c, 0, 68, 0
2, 23190, Note_on_c, 0, 80, 72
2, 23190, Note_on_c, 0, 87, 74
2, 23190, Note_on_c, 0, 60, 56
2, 23194, Control_c, 0, 64, 0
2, 23208, Note_on_c, 0, 60, 0
2, 23211, Control_c, 0, 64, 127
2, 23217, Note_on_c, 0, 87, 0
2, 23217, Note_on_c, 0, 80, 0
2, 23220, Note_on_c, 0, 75, 72
2, 23220, Note_on_c, 0, 51, 58
2, 23238, Note_on_c, 0, 51, 0
2, 23247, Note_on_c, 0, 75, 0
2, 23250, Note_on_c, 0, 79, 63
2, 23250, Note_on_c, 0, 87, 82
2, 23250, Note_on_c, 0, 67, 59
2, 23277, Note_on_c, 0, 87, 0
2, 23277, Note_on_c, 0, 79, 0
2, 23279, Note_on_c, 0, 67, 0
2, 23280, Note_on_c, 0, 74, 70
2, 23280, Note_on_c, 0, 61, 60
2, 23307, Note_on_c, 0, 74, 0
2, 23309, Note_on_c, 0, 61, 0
2, 23310, Note_on_c, 0, 79, 62
2, 23310, Note_on_c, 0, 86, 80
2, 23310, Note_on_c, 0, 58, 64
2, 23337, Note_on_c, 0, 86, 0
2, 23337, Note_on_c, 0, 79, 0
2, 23339, Note_on_c, 0, 58, 0
2, 23340, Note_on_c, 0, 73, 67
2, 23340, Note_on_c, 0, 67, 65
2, 23360, Control_c, 0, 64, 0
2, 23367, Note_on_c, 0, 73, 0
2, 23369, Note_on_c, 0, 67, 0
2, 23370, Note_on_c, 0, 85, 67
2, 23370, Note_on_c, 0, 79, 63
2, 23370, Note_on_c, 0, 61, 68
2, 23386, Control_c, 0, 64, 127
2, 23388, Note_on_c, 0, 61, 0
2, 23397, Note_on_c, 0, 79, 0
2, 23397, Note_on_c, 0, 85, 0
2, 23400, Note_on_c, 0, 85, 86
2, 23400, Note_on_c, 0, 53, 70
2, 23418, Note_on_c, 0, 53, 0
2, 23427, Note_on_c, 0, 85, 0
2, 23430, Note_on_c, 0, 89, 60
2, 23430, Note_on_c, 0, 97, 60
2, 23430, Note_on_c, 0, 65, 68
2, 23457, Note_on_c, 0, 97, 0
2, 23457, Note_on_c, 0, 89, 0
2, 23459, Note_on_c, 0, 65, 0
2, 23460, Note_on_c, 0, 84, 80
2, 23460, Note_on_c, 0, 60, 67
2, 23487, Note_on_c, 0, 84, 0
2, 23489, Note_on_c, 0, 60, 0
2, 23490, Note_on_c, 0, 96, 64
2, 23490, Note_on_c, 0, 89, 66
2, 23490, Note_on_c, 0, 56, 64
2, 23517, Note_on_c, 0, 89, 0
2, 23517, Note_on_c, 0, 96, 0
2, 23519, Note_on_c, 0, 56, 0
2, 23520, Note_on_c, 0, 79, 74
2, 23520, Note_on_c, 0, 68, 61
2, 23539, Control_c, 0, 64, 0
2, 23547, Note_on_c, 0, 79, 0
2, 23549, Note_on_c, 0, 68, 0
2, 23550, Note_on_c, 0, 91, 67
2, 23550, Note_on_c, 0, 82, 60
2, 23550, Note_on_c, 0, 60, 61
2, 23567, Control_c, 0, 64, 127
2, 23568, Note_on_c, 0, 60, 0
2, 23577, Note_on_c, 0, 82, 0
2, 23577, Note_on_c, 0, 91, 0
2, 23580, Note_on_c, 0, 82, 85
2, 23580, Note_on_c, 0, 50, 59
2, 23598, Note_on_c, 0, 50, 0
2, 23607, Note_on_c, 0, 82, 0
2, 23610, Note_on_c, 0, 94, 70
2, 23610, Note_on_c, 0, 85, 54
2, 23610, Note_on_c, 0, 65, 59
2, 23637, Note_on_c, 0, 85, 0
2, 23637, Note_on_c, 0, 94, 0
2, 23639, Note_on_c, 0, 65, 0
2, 23640, Note_on_c, 0, 80, 83
2, 23640, Note_on_c, 0, 59, 57
2, 23667, Note_on_c, 0, 80, 0
2, 23669, Note_on_c, 0, 59, 0
2, 23670, Note_on_c, 0, 83, 66
2, 23670, Note_on_c, 0, 92, 72
2, 23670, Note_on_c, 0, 56, 57
2, 23697, Note_on_c, 0, 92, 0
2, 23697, Note_on_c, 0, 83, 0
2, 23699, Note_on_c, 0, 56, 0
2, 23700, Note_on_c, 0, 77, 78
2, 23700, Note_on_c, 0, 68, 56
2, 23727, Note_on_c, 0, 77, 0
2, 23729, Note_on_c, 0, 68, 0
2, 23730, Note_on_c, 0, 89, 68
2, 23730, Note_on_c, 0, 80, 63
2, 23730, Note_on_c, 0, 58, 54
2, 23743, Control_c, 0, 64, 0
2, 23748, Note_on_c, 0, 58, 0
2, 23757, Note_on_c, 0, 80, 0
2, 23757, Note_on_c, 0, 89, 0
2, 23760, Note_on_c, 0, 77, 80
2, 23760, Note_on_c, 0, 51, 65
2, 23763, Control_c, 0, 64, 127
2, 23778, Note_on_c, 0, 51, 0
2, 23787, Note_on_c, 0, 77, 0
2, 23790, Note_on_c, 0, 89, 75
2, 23790, Note_on_c, 0, 80, 64
2, 23790, Note_on_c, 0, 68, 66
2, 23817, Note_on_c, 0, 80, 0
2, 23817, Note_on_c, 0, 89, 0
2, 23819, Note_on_c, 0, 68, 0
2, 23820, Note_on_c, 0, 76, 69
2, 23820, Note_on_c, 0, 63, 63
2, 23847, Note_on_c, 0, 76, 0
2, 23849, Note_on_c, 0, 63, 0
2, 23850, Note_on_c, 0, 88, 73
2, 23850, Note_on_c, 0, 80, 72
2, 23850, Note_on_c, 0, 60, 61
2, 23877, Note_on_c, 0, 80, 0
2, 23877, Note_on_c, 0, 88, 0
2, 23879, Note_on_c, 0, 60, 0
2, 23880, Note_on_c, 0, 75, 75
2, 23880, Note_on_c, 0, 68, 60
2, 23907, Note_on_c, 0, 75, 0
2, 23909, Note_on_c, 0, 68, 0
2, 23910, Note_on_c, 0, 87, 76
2, 23910, Note_on_c, 0, 80, 72
2, 23910, Note_on_c, 0, 63, 57
2, 23928, Note_on_c, 0, 63, 0
2, 23928, Control_c, 0, 64, 0
2, 23937, Note_on_c, 0, 80, 0
2, 23937, Note_on_c, 0, 87, 0
2, 23940, Note_on_c, 0, 77, 84
2, 23940, Note_on_c, 0, 51, 65
2, 23954, Control_c, 0, 64, 127
2, 23958, Note_on_c, 0, 51, 0
2, 23967, Note_on_c, 0, 77, 0
2, 23970, Note_on_c, 0, 89, 77
2, 23970, Note_on_c, 0, 81, 77
2, 23970, Note_on_c, 0, 69, 62
2, 23997, Note_on_c, 0, 81, 0
2, 23997, Note_on_c, 0, 89, 0
2, 23999, Note_on_c, 0, 69, 0
2, 24000, Note_on_c, 0, 76, 76
2, 24000, Note_on_c, 0, 63, 60
2, 24027, Note_on_c, 0, 76, 0
2, 24029, Note_on_c, 0, 63, 0
2, 24030, Note_on_c, 0, 88, 73
2, 24030, Note_on_c, 0, 81, 62
2, 24030, Note_on_c, 0, 60, 57
2, 24057, Note_on_c, 0, 81, 0
2, 24057, Note_on_c, 0, 88, 0
2, 24059, Note_on_c, 0, 60, 0
2, 24060, Note_on_c, 0, 75, 74
2, 24060, Note_on_c, 0, 69, 56
2, 24087, Note_on_c, 0, 75, 0
2, 24089, Note_on_c, 0, 69, 0
2, 24090, Note_on_c, 0, 87, 68
2, 24090, Note_on_c, 0, 81, 63
2, 24090, Note_on_c, 0, 63, 53
2, 24100, Control_c, 0, 64, 0
2, 24108, Note_on_c, 0, 63, 0
2, 24117, Note_on_c, 0, 81, 0
2, 24117, Note_on_c, 0, 87, 0
2, 24120, Note_on_c, 0, 77, 83
2, 24120, Note_on_c, 0, 51, 62
2, 24125, Control_c, 0, 64, 127
2, 24138, Note_on_c, 0, 51, 0
2, 24147, Note_on_c, 0, 77, 0
2, 24150, Note_on_c, 0, 89, 71
2, 24150, Note_on_c, 0, 82, 62
2, 24150, Note_on_c, 0, 67, 60
2, 24177, Note_on_c, 0, 82, 0
2, 24177, Note_on_c, 0, 89, 0
2, 24179, Note_on_c, 0, 67, 0
2, 24180, Note_on_c, 0, 76, 71
2, 24180, Note_on_c, 0, 63, 59
2, 24207, Note_on_c, 0, 76, 0
2, 24209, Note_on_c, 0, 63, 0
2, 24210, Note_on_c, 0, 88, 76
2, 24210, Note_on_c, 0, 82, 64
2, 24210, Note_on_c, 0, 61, 58
2, 24237, Note_on_c, 0, 82, 0
2, 24237, Note_on_c, 0, 88, 0
2, 24239, Note_on_c, 0, 61, 0
2, 24240, Note_on_c, 0, 75, 73
2, 24240, Note_on_c, 0, 70, 57
2, 24267, Note_on_c, 0, 75, 0
2, 24269, Note_on_c, 0, 70, 0
2, 24270, Note_on_c, 0, 82, 64
2, 24270, Note_on_c, 0, 87, 75
2, 24270, Note_on_c, 0, 63, 52
2, 24280, Control_c, 0, 64, 0
2, 24288, Note_on_c, 0, 63, 0
2, 24297, Note_on_c, 0, 87, 0
2, 24297, Note_on_c, 0, 82, 0
2, 24300, Note_on_c, 0, 75, 79
2, 24300, Note_on_c, 0, 51, 54
2, 24310, Control_c, 0, 64, 127
2, 24318, Note_on_c, 0, 51, 0
2, 24327, Note_on_c, 0, 75, 0
2, 24330, Note_on_c, 0, 84, 80
2, 24330, Note_on_c, 0, 87, 62
2, 24330, Note_on_c, 0, 67, 59
2, 24357, Note_on_c, 0, 87, 0
2, 24357, Note_on_c, 0, 84, 0
2, 24359, Note_on_c, 0, 67, 0
2, 24360, Note_on_c, 0, 75, 71
2, 24360, Note_on_c, 0, 63, 60
2, 24387, Note_on_c, 0, 75, 0
2, 24389, Note_on_c, 0, 63, 0
2, 24390, Note_on_c, 0, 85, 82
2, 24390, Note_on_c, 0, 87, 65
2, 24390, Note_on_c, 0, 61, 58
2, 24417, Note_on_c, 0, 87, 0
2, 24417, Note_on_c, 0, 85, 0
2, 24419, Note_on_c, 0, 61, 0
2, 24420, Note_on_c, 0, 75, 69
2, 24420, Note_on_c, 0, 67, 59
2, 24447, Note_on_c, 0, 75, 0
2, 24449, Note_on_c, 0, 67, 0
2, 24450, Note_on_c, 0, 87, 65
2, 24450, Note_on_c, 0, 79, 83
2, 24450, Note_on_c, 0, 63, 52
2, 24466, Control_c, 0, 64, 0
2, 24468, Note_on_c, 0, 63, 0
2, 24477, Note_on_c, 0, 79, 0
2, 24477, Note_on_c, 0, 87, 0
2, 24480, Note_on_c, 0, 77, 88
2, 24480, Note_on_c, 0, 51, 64
2, 24488, Control_c, 0, 64, 127
2, 24498, Note_on_c, 0, 51, 0
2, 24507, Note_on_c, 0, 77, 0
2, 24510, Note_on_c, 0, 80, 67
2, 24510, Note_on_c, 0, 89, 73
2, 24510, Note_on_c, 0, 68, 66
2, 24537, Note_on_c, 0, 89, 0
2, 24537, Note_on_c, 0, 80, 0
2, 24539, Note_on_c, 0, 68, 0
2, 24540, Note_on_c, 0, 76, 75
2, 24540, Note_on_c, 0, 63, 64
2, 24567, Note_on_c, 0, 76, 0
2, 24569, Note_on_c, 0, 63, 0
2, 24570, Note_on_c, 0, 88, 69
2, 24570, Note_on_c, 0, 80, 72
2, 24570, Note_on_c, 0, 60, 60
2, 24597, Note_on_c, 0, 80, 0
2, 24597, Note_on_c, 0, 88, 0
2, 24599, Note_on_c, 0, 60, 0
2, 24600, Note_on_c, 0, 75, 67
2, 24600, Note_on_c, 0, 68, 57
2, 24613, Control_c, 0, 64, 0
2, 24627, Note_on_c, 0, 75, 0
2, 24629, Note_on_c, 0, 68, 0
2, 24630, Note_on_c, 0, 87, 72
2, 24630, Note_on_c, 0, 80, 71
2, 24630, Note_on_c, 0, 63, 56
2, 24638, Control_c, 0, 64, 127
2, 24648, Note_on_c, 0, 63, 0
2, 24657, Note_on_c, 0, 80, 0
2, 24657, Note_on_c, 0, 87, 0
2, 24660, Note_on_c, 0, 77, 90
2, 24660, Note_on_c, 0, 51, 63
2, 24678, Note_on_c, 0, 51, 0
2, 24687, Note_on_c, 0, 77, 0
2, 24690, Note_on_c, 0, 81, 66
2, 24690, Note_on_c, 0, 89, 71
2, 24690, Note_on_c, 0, 69, 60
2, 24717, Note_on_c, 0, 89, 0
2, 24717, Note_on_c, 0, 81, 0
2, 24719, Note_on_c, 0, 69, 0
2, 24720, Note_on_c, 0, 76, 70
2, 24720, Note_on_c, 0, 63, 59
2, 24747, Note_on_c, 0, 76, 0
2, 24749, Note_on_c, 0, 63, 0
2, 24750, Note_on_c, 0, 81, 63
2, 24750, Note_on_c, 0, 88, 68
2, 24750, Note_on_c, 0, 60, 57
2, 24777, Note_on_c, 0, 88, 0
2, 24777, Note_on_c, 0, 81, 0
2, 24779, Note_on_c, 0, 60, 0
2, 24780, Note_on_c, 0, 75, 72
2, 24780, Note_on_c, 0, 69, 57
2, 24784, Control_c, 0, 64, 0
2, 24807, Note_on_c, 0, 75, 0
2, 24809, Note_on_c, 0, 69, 0
2, 24810, Note_on_c, 0, 81, 62
2, 24810, Note_on_c, 0, 87, 75
2, 24810, Note_on_c, 0, 63, 53
2, 24824, Control_c, 0, 64, 127
2, 24828, Note_on_c, 0, 63, 0
2, 24837, Note_on_c, 0, 87, 0
2, 24837, Note_on_c, 0, 81, 0
2, 24840, Note_on_c, 0, 74, 77
2, 24840, Note_on_c, 0, 51, 53
2, 24858, Note_on_c, 0, 51, 0
2, 24867, Note_on_c, 0, 74, 0
2, 24870, Note_on_c, 0, 80, 68
2, 24870, Note_on_c, 0, 89, 74
2, 24870, Note_on_c, 0, 68, 55
2, 24897, Note_on_c, 0, 89, 0
2, 24897, Note_on_c, 0, 80, 0
2, 24899, Note_on_c, 0, 68, 0
2, 24900, Note_on_c, 0, 79, 76
2, 24900, Note_on_c, 0, 62, 55
2, 24927, Note_on_c, 0, 79, 0
2, 24929, Note_on_c, 0, 62, 0
2, 24930, Note_on_c, 0, 91, 64
2, 24930, Note_on_c, 0, 82, 70
2, 24930, Note_on_c, 0, 58, 57
2, 24957, Note_on_c, 0, 82, 0
2, 24957, Note_on_c, 0, 91, 0
2, 24959, Note_on_c, 0, 58, 0
2, 24960, Note_on_c, 0, 77, 80
2, 24960, Note_on_c, 0, 68, 57
2, 24987, Note_on_c, 0, 77, 0
2, 24988, Control_c, 0, 64, 0
2, 24989, Note_on_c, 0, 68, 0
2, 24990, Note_on_c, 0, 84, 66
2, 24990, Note_on_c, 0, 92, 71
2, 24990, Note_on_c, 0, 61, 60
2, 25005, Control_c, 0, 64, 127
2, 25008, Note_on_c, 0, 61, 0
2, 25017, Note_on_c, 0, 92, 0
2, 25017, Note_on_c, 0, 84, 0
2, 25020, Note_on_c, 0, 75, 75
2, 25020, Note_on_c, 0, 51, 69
2, 25038, Note_on_c, 0, 51, 0
2, 25047, Note_on_c, 0, 75, 0
2, 25050, Note_on_c, 0, 85, 65
2, 25050, Note_on_c, 0, 94, 73
2, 25050, Note_on_c, 0, 67, 64
2, 25077, Note_on_c, 0, 94, 0
2, 25077, Note_on_c, 0, 85, 0
2, 25079, Note_on_c, 0, 67, 0
2, 25080, Note_on_c, 0, 84, 78
2, 25080, Note_on_c, 0, 63, 61
2, 25107, Note_on_c, 0, 84, 0
2, 25109, Note_on_c, 0, 63, 0
2, 25110, Note_on_c, 0, 96, 54
2, 25110, Note_on_c, 0, 87, 62
2, 25110, Note_on_c, 0, 61, 64
2, 25137, Note_on_c, 0, 87, 0
2, 25137, Note_on_c, 0, 96, 0
2, 25139, Note_on_c, 0, 61, 0
2, 25140, Note_on_c, 0, 82, 75
2, 25140, Note_on_c, 0, 67, 64
2, 25167, Note_on_c, 0, 82, 0
2, 25169, Note_on_c, 0, 67, 0
2, 25170, Note_on_c, 0, 91, 74
2, 25170, Note_on_c, 0, 85, 62
2, 25170, Note_on_c, 0, 63, 60
2, 25185, Control_c, 0, 64, 0
2, 25188, Note_on_c, 0, 63, 0
2, 25197, Note_on_c, 0, 85, 0
2, 25197, Note_on_c, 0, 91, 0
2, 25200, Note_on_c, 0, 80, 65
2, 25200, Note_on_c, 0, 44, 52
2, 25208, Control_c, 0, 64, 127
2, 25218, Note_on_c, 0, 44, 0
2, 25230, Note_on_c, 0, 80, 0
2, 25230, Note_on_c, 0, 92, 65
2, 25230, Note_on_c, 0, 84, 56
2, 25230, Note_on_c, 0, 60, 53
2, 25260, Note_on_c, 0, 60, 0
2, 25260, Note_on_c, 0, 84, 0
2, 25260, Note_on_c, 0, 92, 0
2, 25260, Note_on_c, 0, 82, 72
2, 25260, Note_on_c, 0, 56, 59
2, 25290, Note_on_c, 0, 56, 0
2, 25290, Note_on_c, 0, 82, 0
2, 25290, Note_on_c, 0, 85, 54
2, 25290, Note_on_c, 0, 94, 73
2, 25290, Note_on_c, 0, 51, 60
2, 25320, Note_on_c, 0, 51, 0
2, 25320, Note_on_c, 0, 94, 0
2, 25320, Note_on_c, 0, 85, 0
2, 25320, Note_on_c, 0, 83, 65
2, 25320, Note_on_c, 0, 63, 60
2, 25350, Note_on_c, 0, 63, 0
2, 25350, Note_on_c, 0, 83, 0
2, 25350, Note_on_c, 0, 86, 62
2, 25350, Note_on_c, 0, 95, 70
2, 25350, Note_on_c, 0, 56, 55
2, 25368, Note_on_c, 0, 56, 0
2, 25380, Note_on_c, 0, 95, 0
2, 25380, Note_on_c, 0, 86, 0
2, 25380, Note_on_c, 0, 84, 65
2, 25380, Note_on_c, 0, 44, 54
2, 25398, Note_on_c, 0, 44, 0
2, 25410, Note_on_c, 0, 84, 0
2, 25410, Note_on_c, 0, 87, 63
2, 25410, Note_on_c, 0, 96, 72
2, 25410, Note_on_c, 0, 60, 60
2, 25440, Note_on_c, 0, 60, 0
2, 25440, Note_on_c, 0, 96, 0
2, 25440, Note_on_c, 0, 87, 0
2, 25440, Note_on_c, 0, 85, 65
2, 25440, Note_on_c, 0, 56, 59
2, 25470, Note_on_c, 0, 56, 0
2, 25470, Note_on_c, 0, 85, 0
2, 25470, Note_on_c, 0, 97, 67
2, 25470, Note_on_c, 0, 88, 64
2, 25470, Note_on_c, 0, 51, 60
2, 25500, Note_on_c, 0, 51, 0
2, 25500, Note_on_c, 0, 88, 0
2, 25500, Note_on_c, 0, 97, 0
2, 25500, Note_on_c, 0, 86, 66
2, 25500, Note_on_c, 0, 63, 62
2, 25530, Note_on_c, 0, 63, 0
2, 25530, Note_on_c, 0, 86, 0
2, 25530, Note_on_c, 0, 98, 76
2, 25530, Note_on_c, 0, 89, 60
2, 25530, Note_on_c, 0, 56, 51
2, 25548, Note_on_c, 0, 56, 0
2, 25552, Control_c, 0, 64, 0
2, 25560, Note_on_c, 0, 89, 0
2, 25560, Note_on_c, 0, 98, 0
2, 25560, Note_on_c, 0, 87, 70
2, 25560, Note_on_c, 0, 44, 51
2, 25571, Control_c, 0, 64, 127
2, 25578, Note_on_c, 0, 44, 0
2, 25590, Note_on_c, 0, 87, 0
2, 25590, Note_on_c, 0, 99, 76
2, 25590, Note_on_c, 0, 91, 66
2, 25590, Note_on_c, 0, 61, 60
2, 25620, Note_on_c, 0, 61, 0
2, 25620, Note_on_c, 0, 91, 0
2, 25620, Note_on_c, 0, 99, 0
2, 25620, Note_on_c, 0, 89, 66
2, 25620, Note_on_c, 0, 55, 60
2, 25650, Note_on_c, 0, 55, 0
2, 25650, Note_on_c, 0, 89, 0
2, 25650, Note_on_c, 0, 101, 65
2, 25650, Note_on_c, 0, 92, 65
2, 25650, Note_on_c, 0, 51, 61
2, 25680, Note_on_c, 0, 51, 0
2, 25680, Note_on_c, 0, 92, 0
2, 25680, Note_on_c, 0, 101, 0
2, 25680, Note_on_c, 0, 87, 73
2, 25680, Note_on_c, 0, 63, 58
2, 25710, Note_on_c, 0, 63, 0
2, 25710, Note_on_c, 0, 87, 0
2, 25710, Note_on_c, 0, 99, 76
2, 25710, Note_on_c, 0, 91, 62
2, 25710, Note_on_c, 0, 55, 49
2, 25728, Note_on_c, 0, 55, 0
2, 25740, Note_on_c, 0, 91, 0
2, 25740, Note_on_c, 0, 99, 0
2, 25740, Note_on_c, 0, 84, 67
2, 25740, Note_on_c, 0, 44, 51
2, 25746, Control_c, 0, 64, 0
2, 25758, Note_on_c, 0, 44, 0
2, 25768, Control_c, 0, 64, 127
2, 25770, Note_on_c, 0, 84, 0
2, 25770, Note_on_c, 0, 87, 61
2, 25770, Note_on_c, 0, 96, 63
2, 25770, Note_on_c, 0, 60, 64
2, 25800, Note_on_c, 0, 60, 0
2, 25800, Note_on_c, 0, 96, 0
2, 25800, Note_on_c, 0, 87, 0
2, 25800, Note_on_c, 0, 82, 68
2, 25800, Note_on_c, 0, 56, 59
2, 25830, Note_on_c, 0, 56, 0
2, 25830, Note_on_c, 0, 82, 0
2, 25830, Note_on_c, 0, 85, 53
2, 25830, Note_on_c, 0, 94, 74
2, 25830, Note_on_c, 0, 51, 59
2, 25860, Note_on_c, 0, 51, 0
2, 25860, Note_on_c, 0, 94, 0
2, 25860, Note_on_c, 0, 85, 0
2, 25860, Note_on_c, 0, 84, 70
2, 25860, Note_on_c, 0, 63, 58
2, 25890, Note_on_c, 0, 63, 0
2, 25890, Note_on_c, 0, 84, 0
2, 25890, Note_on_c, 0, 96, 65
2, 25890, Note_on_c, 0, 87, 60
2, 25890, Note_on_c, 0, 56, 54
2, 25908, Note_on_c, 0, 56, 0
2, 25916, Control_c, 0, 64, 0
2, 25920, Note_on_c, 0, 87, 0
2, 25920, Note_on_c, 0, 96, 0
2, 25920, Note_on_c, 0, 82, 66
2, 25920, Note_on_c, 0, 44, 57
2, 25938, Note_on_c, 0, 44, 0
2, 25938, Control_c, 0, 64, 127
2, 25950, Note_on_c, 0, 82, 0
2, 25950, Note_on_c, 0, 85, 62
2, 25950, Note_on_c, 0, 94, 68
2, 25950, Note_on_c, 0, 61, 59
2, 25980, Note_on_c, 0, 61, 0
2, 25980, Note_on_c, 0, 94, 0
2, 25980, Note_on_c, 0, 85, 0
2, 25980, Note_on_c, 0, 84, 66
2, 25980, Note_on_c, 0, 55, 60
2, 26010, Note_on_c, 0, 55, 0
2, 26010, Note_on_c, 0, 84, 0
2, 26010, Note_on_c, 0, 87, 67
2, 26010, Note_on_c, 0, 96, 65
2, 26010, Note_on_c, 0, 51, 62
2, 26040, Note_on_c, 0, 51, 0
2, 26040, Note_on_c, 0, 96, 0
2, 26040, Note_on_c, 0, 87, 0
2, 26040, Note_on_c, 0, 79, 54
2, 26040, Note_on_c, 0, 63, 60
2, 26070, Note_on_c, 0, 63, 0
2, 26070, Note_on_c, 0, 79, 0
2, 26070, Note_on_c, 0, 82, 57
2, 26070, Note_on_c, 0, 91, 69
2, 26070, Note_on_c, 0, 55, 54
2, 26088, Note_on_c, 0, 55, 0
2, 26096, Control_c, 0, 64, 0
2, 26100, Note_on_c, 0, 91, 0
2, 26100, Note_on_c, 0, 82, 0
2, 26100, Note_on_c, 0, 80, 71
2, 26100, Note_on_c, 0, 44, 54
2, 26115, Control_c, 0, 64, 127
2, 26118, Note_on_c, 0, 44, 0
2, 26130, Note_on_c, 0, 80, 0
2, 26130, Note_on_c, 0, 84, 62
2, 26130, Note_on_c, 0, 92, 70
2, 26130, Note_on_c, 0, 60, 59
2, 26160, Note_on_c, 0, 60, 0
2, 26160, Note_on_c, 0, 92, 0
2, 26160, Note_on_c, 0, 84, 0
2, 26160, Note_on_c, 0, 79, 60
2, 26160, Note_on_c, 0, 56, 57
2, 26190, Note_on_c, 0, 56, 0
2, 26190, Note_on_c, 0, 79, 0
2, 26190, Note_on_c, 0, 91, 64
2, 26190, Note_on_c, 0, 82, 57
2, 26190, Note_on_c, 0, 51, 59
2, 26220, Note_on_c, 0, 51, 0
2, 26220, Note_on_c, 0, 82, 0
2, 26220, Note_on_c, 0, 91, 0
2, 26220, Note_on_c, 0, 80, 70
2, 26220, Note_on_c, 0, 63, 57
2, 26250, Note_on_c, 0, 63, 0
2, 26250, Note_on_c, 0, 80, 0
2, 26250, Note_on_c, 0, 84, 47
2, 26250, Note_on_c, 0, 92, 65
2, 26250, Note_on_c, 0, 56, 57
2, 26252, Control_c, 0, 64, 0
2, 26268, Note_on_c, 0, 56, 0
2, 26280, Note_on_c, 0, 92, 0
2, 26280, Note_on_c, 0, 84, 0
2, 26280, Note_on_c, 0, 75, 60
2, 26280, Note_on_c, 0, 44, 52
2, 26284, Control_c, 0, 64, 127
2, 26298, Note_on_c, 0, 44, 0
2, 26310, Note_on_c, 0, 75, 0
2, 26310, Note_on_c, 0, 79, 59
2, 26310, Note_on_c, 0, 87, 64
2, 26310, Note_on_c, 0, 61, 61
2, 26340, Note_on_c, 0, 61, 0
2, 26340, Note_on_c, 0, 87, 0
2, 26340, Note_on_c, 0, 79, 0
2, 26340, Note_on_c, 0, 77, 68
2, 26340, Note_on_c, 0, 55, 63
2, 26370, Note_on_c, 0, 55, 0
2, 26370, Note_on_c, 0, 77, 0
2, 26370, Note_on_c, 0, 80, 64
2, 26370, Note_on_c, 0, 89, 66
2, 26370, Note_on_c, 0, 51, 66
2, 26400, Note_on_c, 0, 51, 0
2, 26400, Note_on_c, 0, 89, 0
2, 26400, Note_on_c, 0, 80, 0
2, 26400, Note_on_c, 0, 75, 62
2, 26400, Note_on_c, 0, 63, 61
2, 26430, Note_on_c, 0, 63, 0
2, 26430, Note_on_c, 0, 75, 0
2, 26430, Note_on_c, 0, 87, 57
2, 26430, Note_on_c, 0, 79, 51
2, 26430, Note_on_c, 0, 55, 63
2, 26446, Control_c, 0, 64, 0
2, 26448, Note_on_c, 0, 55, 0
2, 26460, Note_on_c, 0, 79, 0
2, 26460, Note_on_c, 0, 87, 0
2, 26460, Note_on_c, 0, 72, 63
2, 26460, Note_on_c, 0, 44, 51
2, 26468, Control_c, 0, 64, 127
2, 26478, Note_on_c, 0, 44, 0
2, 26490, Note_on_c, 0, 72, 0
2, 26490, Note_on_c, 0, 84, 55
2, 26490, Note_on_c, 0, 75, 60
2, 26490, Note_on_c, 0, 60, 64
2, 26520, Note_on_c, 0, 60, 0
2, 26520, Note_on_c, 0, 75, 0
2, 26520, Note_on_c, 0, 84, 0
2, 26520, Note_on_c, 0, 70, 55
2, 26520, Note_on_c, 0, 56, 64
2, 26550, Note_on_c, 0, 56, 0
2, 26550, Note_on_c, 0, 70, 0
2, 26550, Note_on_c, 0, 82, 69
2, 26550, Note_on_c, 0, 73, 51
2, 26550, Note_on_c, 0, 51, 59
2, 26580, Note_on_c, 0, 51, 0
2, 26580, Note_on_c, 0, 73, 0
2, 26580, Note_on_c, 0, 82, 0
2, 26580, Note_on_c, 0, 72, 64
2, 26580, Note_on_c, 0, 63, 61
2, 26606, Control_c, 0, 64, 0
2, 26610, Note_on_c, 0, 63, 0
2, 26610, Note_on_c, 0, 72, 0
2, 26610, Note_on_c, 0, 84, 62
2, 26610, Note_on_c, 0, 75, 63
2, 26610, Note_on_c, 0, 56, 62
2, 26628, Note_on_c, 0, 56, 0
2, 26628, Control_c, 0, 64, 127
2, 26640, Note_on_c, 0, 75, 0
2, 26640, Note_on_c, 0, 84, 0
2, 26640, Note_on_c, 0, 70, 61
2, 26640, Note_on_c, 0, 44, 57
2, 26658, Note_on_c, 0, 44, 0
2, 26670, Note_on_c, 0, 70, 0
2, 26670, Note_on_c, 0, 73, 57
2, 26670, Note_on_c, 0, 82, 73
2, 26670, Note_on_c, 0, 61, 58
2, 26700, Note_on_c, 0, 61, 0
2, 26700, Note_on_c, 0, 82, 0
2, 26700, Note_on_c, 0, 73, 0
2, 26700, Note_on_c, 0, 72, 63
2, 26700, Note_on_c, 0, 55, 54
2, 26730, Note_on_c, 0, 55, 0
2, 26730, Note_on_c, 0, 72, 0
2, 26730, Note_on_c, 0, 75, 66
2, 26730, Note_on_c, 0, 84, 68
2, 26730, Note_on_c, 0, 51, 64
2, 26760, Note_on_c, 0, 51, 0
2, 26760, Note_on_c, 0, 84, 0
2, 26760, Note_on_c, 0, 75, 0
2, 26760, Note_on_c, 0, 67, 59
2, 26760, Note_on_c, 0, 63, 61
2, 26780, Control_c, 0, 64, 0
2, 26790, Note_on_c, 0, 63, 0
2, 26790, Note_on_c, 0, 67, 0
2, 26790, Note_on_c, 0, 70, 56
2, 26790, Note_on_c, 0, 79, 69
2, 26790, Note_on_c, 0, 55, 51
2, 26808, Note_on_c, 0, 55, 0
2, 26811, Control_c, 0, 64, 127
2, 26820, Note_on_c, 0, 79, 0
2, 26820, Note_on_c, 0, 70, 0
2, 26820, Note_on_c, 0, 68, 60
2, 26820, Note_on_c, 0, 44, 53
2, 26838, Note_on_c, 0, 44, 0
2, 26850, Note_on_c, 0, 68, 0
2, 26850, Note_on_c, 0, 80, 67
2, 26850, Note_on_c, 0, 72, 63
2, 26850, Note_on_c, 0, 60, 58
2, 26880, Note_on_c, 0, 60, 0
2, 26880, Note_on_c, 0, 72, 0
2, 26880, Note_on_c, 0, 80, 0
2, 26880, Note_on_c, 0, 73, 67
2, 26880, Note_on_c, 0, 56, 61
2, 26910, Note_on_c, 0, 56, 0
2, 26910, Note_on_c, 0, 73, 0
2, 26910, Note_on_c, 0, 85, 65
2, 26910, Note_on_c, 0, 77, 69
2, 26910, Note_on_c, 0, 51, 59
2, 26940, Note_on_c, 0, 51, 0
2, 26940, Note_on_c, 0, 77, 0
2, 26940, Note_on_c, 0, 85, 0
2, 26940, Note_on_c, 0, 72, 63
2, 26940, Note_on_c, 0, 63, 57
2, 26970, Note_on_c, 0, 63, 0
2, 26970, Note_on_c, 0, 72, 0
2, 26970, Note_on_c, 0, 75, 64
2, 26970, Note_on_c, 0, 84, 79
2, 26970, Note_on_c, 0, 56, 49
2, 26988, Note_on_c, 0, 56, 0
2, 27000, Note_on_c, 0, 84, 0
2, 27000, Note_on_c, 0, 75, 0
2, 27000, Note_on_c, 0, 68, 63
2, 27000, Note_on_c, 0, 44, 46
2, 27018, Note_on_c, 0, 44, 0
2, 27030, Note_on_c, 0, 68, 0
2, 27030, Note_on_c, 0, 72, 68
2, 27030, Note_on_c, 0, 80, 67
2, 27030, Note_on_c, 0, 60, 60
2, 27060, Note_on_c, 0, 60, 0
2, 27060, Note_on_c, 0, 80, 0
2, 27060, Note_on_c, 0, 72, 0
2, 27060, Note_on_c, 0, 73, 67
2, 27060, Note_on_c, 0, 56, 58
2, 27090, Note_on_c, 0, 56, 0
2, 27090, Note_on_c, 0, 73, 0
2, 27090, Note_on_c, 0, 85, 65
2, 27090, Note_on_c, 0, 77, 69
2, 27090, Note_on_c, 0, 51, 56
2, 27120, Note_on_c, 0, 51, 0
2, 27120, Note_on_c, 0, 77, 0
2, 27120, Note_on_c, 0, 85, 0
2, 27120, Note_on_c, 0, 72, 72
2, 27120, Note_on_c, 0, 63, 58
2, 27150, Note_on_c, 0, 63, 0
2, 27150, Note_on_c, 0, 72, 0
2, 27150, Note_on_c, 0, 75, 59
2, 27150, Note_on_c, 0, 84, 72
2, 27150, Note_on_c, 0, 56, 51
2, 27168, Note_on_c, 0, 56, 0
2, 27180, Note_on_c, 0, 84, 0
2, 27180, Note_on_c, 0, 75, 0
2, 27180, Note_on_c, 0, 68, 63
2, 27180, Note_on_c, 0, 44, 47
2, 27198, Note_on_c, 0, 44, 0
2, 27210, Note_on_c, 0, 68, 0
2, 27210, Note_on_c, 0, 80, 72
2, 27210, Note_on_c, 0, 72, 52
2, 27210, Note_on_c, 0, 60, 60
2, 27240, Note_on_c, 0, 60, 0
2, 27240, Note_on_c, 0, 72, 0
2, 27240, Note_on_c, 0, 80, 0
2, 27240, Note_on_c, 0, 73, 66
2, 27240, Note_on_c, 0, 56, 59
2, 27270, Note_on_c, 0, 56, 0
2, 27270, Note_on_c, 0, 73, 0
2, 27270, Note_on_c, 0, 85, 63
2, 27270, Note_on_c, 0, 77, 70
2, 27270, Note_on_c, 0, 51, 60
2, 27300, Note_on_c, 0, 51, 0
2, 27300, Note_on_c, 0, 77, 0
2, 27300, Note_on_c, 0, 85, 0
2, 27300, Note_on_c, 0, 72, 72
2, 27300, Note_on_c, 0, 63, 58
2, 27330, Note_on_c, 0, 63, 0
2, 27330, Note_on_c, 0, 72, 0
2, 27330, Note_on_c, 0, 84, 63
2, 27330, Note_on_c, 0, 75, 50
2, 27330, Note_on_c, 0, 56, 49
2, 27348, Note_on_c, 0, 56, 0
2, 27353, Note_on_c, 0, 75, 0
2, 27353, Note_on_c, 0, 84, 0
2, 27366, Note_on_c, 0, 68, 70
2, 27368, Control_c, 0, 64, 0
2, 27369, Note_on_c, 0, 44, 65
2, 27385, Control_c, 0, 64, 127
2, 27396, Note_on_c, 0, 80, 68
2, 27397, Note_on_c, 0, 72, 54
2, 27402, Note_on_c, 0, 68, 0
2, 27405, Note_on_c, 0, 72, 0
2, 27411, Note_on_c, 0, 80, 0
2, 27429, Note_on_c, 0, 80, 72
2, 27460, Note_on_c, 0, 92, 74
2, 27461, Note_on_c, 0, 84, 66
2, 27468, Note_on_c, 0, 80, 0
2, 27491, Note_on_c, 0, 92, 0
2, 27491, Note_on_c, 0, 80, 74
2, 27495, Note_on_c, 0, 84, 0
2, 27501, Note_on_c, 0, 80, 0
2, 27527, Note_on_c, 0, 80, 72
2, 27527, Note_on_c, 0, 72, 66
2, 27528, Note_on_c, 0, 44, 0
2, 27557, Note_on_c, 0, 80, 0
2, 27557, Note_on_c, 0, 68, 72
2, 27563, Note_on_c, 0, 72, 0
2, 27566, Note_on_c, 0, 68, 0
2, 27589, Note_on_c, 0, 60, 64
2, 27590, Note_on_c, 0, 68, 74
2, 27619, Note_on_c, 0, 56, 76
2, 27621, Note_on_c, 0, 68, 0
2, 27627, Note_on_c, 0, 60, 0
2, 27629, Note_on_c, 0, 56, 0
2, 27654, Note_on_c, 0, 61, 73
2, 27654, Note_on_c, 0, 37, 63
2, 27654, Note_on_c, 0, 49, 67
2, 27655, Note_on_c, 0, 68, 81
2, 27656, Note_on_c, 0, 64, 72
2, 27656, Control_c, 0, 64, 0
2, 27660, Control_c, 0, 64, 127
2, 27667, Note_on_c, 0, 61, 0
2, 27669, Note_on_c, 0, 64, 0
2, 27673, Note_on_c, 0, 68, 0
2, 27693, Note_on_c, 0, 68, 82
2, 27738, Note_on_c, 0, 80, 85
2, 27740, Note_on_c, 0, 76, 71
2, 27741, Note_on_c, 0, 73, 70
2, 27749, Note_on_c, 0, 68, 0
2, 27753, Note_on_c, 0, 73, 0
2, 27757, Note_on_c, 0, 49, 0
2, 27758, Note_on_c, 0, 76, 0
2, 27759, Note_on_c, 0, 37, 0
2, 27761, Note_on_c, 0, 80, 0
2, 27776, Control_c, 0, 64, 0
2, 27776, Note_on_c, 0, 68, 79
2, 27776, Note_on_c, 0, 32, 65
2, 27776, Note_on_c, 0, 44, 65
2, 27788, Control_c, 0, 64, 127
2, 27823, Note_on_c, 0, 80, 76
2, 27823, Note_on_c, 0, 75, 65
2, 27824, Note_on_c, 0, 72, 62
2, 27831, Note_on_c, 0, 68, 0
2, 27834, Note_on_c, 0, 72, 0
2, 27841, Note_on_c, 0, 75, 0
2, 27845, Note_on_c, 0, 80, 0
2, 27869, Note_on_c, 0, 80, 71
2, 27919, Note_on_c, 0, 92, 74
2, 27920, Note_on_c, 0, 87, 65
2, 27921, Note_on_c, 0, 84, 64
2, 27930, Note_on_c, 0, 80, 0
2, 27965, Note_on_c, 0, 92, 0
2, 27967, Note_on_c, 0, 87, 0
2, 27968, Note_on_c, 0, 84, 0
2, 27968, Note_on_c, 0, 80, 73
2, 27980, Note_on_c, 0, 80, 0
2, 28025, Note_on_c, 0, 80, 66
2, 28026, Note_on_c, 0, 75, 63
2, 28027, Note_on_c, 0, 72, 62
2, 28077, Note_on_c, 0, 80, 0
2, 28082, Note_on_c, 0, 68, 77
2, 28086, Note_on_c, 0, 75, 0
2, 28087, Note_on_c, 0, 72, 0
2, 28097, Note_on_c, 0, 68, 0
2, 28148, Note_on_c, 0, 68, 86
2, 28205, Note_on_c, 0, 63, 75
2, 28206, Note_on_c, 0, 60, 60
2, 28248, Note_on_c, 0, 60, 0
2, 28253, Note_on_c, 0, 63, 0
2, 28279, Note_on_c, 0, 56, 60
2, 28280, Note_on_c, 0, 60, 74
2, 28323, Note_on_c, 0, 60, 0
2, 28324, Note_on_c, 0, 56, 0
2, 28345, Note_on_c, 0, 63, 68
2, 28362, Note_on_c, 0, 58, 55
2, 28362, Note_on_c, 0, 61, 65
2, 28378, Note_on_c, 0, 63, 0
2, 28380, Control_c, 0, 64, 0
2, 28444, Note_on_c, 0, 58, 0
2, 28455, Note_on_c, 0, 61, 0
2, 28468, Note_on_c, 0, 56, 51
2, 28468, Note_on_c, 0, 60, 61
2, 28553, Note_on_c, 0, 56, 0
2, 28585, Note_on_c, 0, 60, 0
2, 28595, Note_on_c, 0, 58, 42
2, 28595, Note_on_c, 0, 61, 54
2, 28699, Note_on_c, 0, 58, 0
2, 28737, Note_on_c, 0, 61, 0
2, 28753, Note_on_c, 0, 60, 38
2, 28753, Note_on_c, 0, 63, 46
2, 28798, Control_c, 0, 64, 127
2, 29205, Note_on_c, 0, 60, 0
2, 29208, Note_on_c, 0, 44, 0
2, 29208, Note_on_c, 0, 32, 0
2, 29209, Note_on_c, 0, 68, 0
2, 29210, Note_on_c, 0, 63, 0
2, 29255, Control_c, 0, 64, 0
2, 29255, End_track
3, 0, Start_track
3, 0, MIDI_port, 0
3, 0, Title_t, "in Ab Major"
3, 0, End_track
4, 0, Start_track
4, 0, MIDI_port, 0
4, 0, Title_t, "Op. 10, No. 10"
4, 0, End_track
5, 0, Start_track
5, 0, MIDI_port, 0
5, 0, Title_t, "Chopin, Frederic"
5, 0, End_track
6, 0, Start_track
6, 0, MIDI_port, 0
6, 0, Title_t, "Sequenced by Anousone Kitisa"
6, 0, End_track
0, 0, End_of_file