0, 0, Header, 1, 4, 48
1, 0, Start_track
1, 0, Tempo, 500000
1, 0, Time_signature, 4, 2, 24, 8
1, 0, Key_signature, 4, "major"
1, 0, Title_t, "F.F.Chopin  Nocturne No.18 in E major Op.62-2"
1, 0, Text_t, "CVS Ver5.05 Created"
1, 144, Tempo, 1034482
1, 192, Tempo, 923076
1, 240, Tempo, 800000
1, 264, Tempo, 952380
1, 288, Tempo, 821917
1, 312, Tempo, 895522
1, 336, Tempo, 845070
1, 360, Tempo, 1000000
1, 384, Tempo, 923076
1, 432, Tempo, 821917
1, 480, Tempo, 789473
1, 528, Tempo, 821917
1, 576, Tempo, 769230
1, 624, Tempo, 800000
1, 672, Tempo, 750000
1, 696, Tempo, 697674
1, 720, Tempo, 750000
1, 744, Tempo, 895522
1, 768, Tempo, 731707
1, 816, Tempo, 789473
1, 864, Tempo, 845070
1, 888, Tempo, 1000000
1, 912, Tempo, 895522
1, 936, Tempo, 1071428
1, 960, Tempo, 895522
1, 1008, Tempo, 731707
1, 1056, Tempo, 800000
1, 1080, Tempo, 845070
1, 1104, Tempo, 895522
1, 1120, Tempo, 800000
1, 1144, Tempo, 1153846
1, 1152, Tempo, 869565
1, 1200, Tempo, 750000
1, 1248, Tempo, 769230
1, 1272, Tempo, 697674
1, 1296, Tempo, 714285
1, 1320, Tempo, 845070
1, 1344, Tempo, 731707
1, 1392, Tempo, 750000
1, 1416, Tempo, 895522
1, 1440, Tempo, 952380
1, 1456, Tempo, 769230
1, 1472, Tempo, 750000
1, 1488, Tempo, 845070
1, 1504, Tempo, 800000
1, 1520, Tempo, 1333333
1, 1536, Tempo, 800000
1, 1584, Tempo, 952380
1, 1632, Tempo, 1304347
1, 1672, Tempo, 1621621
1, 1680, Tempo, 1304347
1, 1696, Tempo, 1071428
1, 1712, Tempo, 1714285
1, 1728, Tempo, 845070
1, 1776, Tempo, 895522
1, 1800, Tempo, 952380
1, 1824, Tempo, 1250000
1, 1836, Tempo, 1034482
1, 1848, Tempo, 983606
1, 1860, Tempo, 952380
1, 1872, Tempo, 1153846
1, 1880, Tempo, 952380
1, 1888, Tempo, 895522
1, 1896, Tempo, 923076
1, 1904, Tempo, 1034482
1, 1912, Tempo, 1621621
1, 1920, Tempo, 800000
1, 1968, Tempo, 750000
1, 2016, Tempo, 789473
1, 2064, Tempo, 800000
1, 2088, Tempo, 952380
1, 2112, Tempo, 769230
1, 2160, Tempo, 666666
1, 2184, Tempo, 731707
1, 2256, Tempo, 750000
1, 2280, Tempo, 845070
1, 2304, Tempo, 731707
1, 2352, Tempo, 681818
1, 2400, Tempo, 769230
1, 2448, Tempo, 750000
1, 2472, Tempo, 1250000
1, 2484, Tempo, 1333333
1, 2488, Tempo, 1463414
1, 2492, Tempo, 1621621
1, 2496, Tempo, 769230
1, 2544, Tempo, 697674
1, 2592, Tempo, 731707
1, 2616, Tempo, 666666
1, 2640, Tempo, 697674
1, 2664, Tempo, 845070
1, 2688, Tempo, 714285
1, 2736, Tempo, 750000
1, 2760, Tempo, 731707
1, 2772, Tempo, 1071428
1, 2778, Tempo, 1333333
1, 2784, Tempo, 845070
1, 2808, Tempo, 952380
1, 2820, Tempo, 1200000
1, 2826, Tempo, 1714285
1, 2832, Tempo, 1538461
1, 2868, Tempo, 1153846
1, 2880, Tempo, 952380
1, 2928, Tempo, 800000
1, 2976, Tempo, 895522
1, 3000, Tempo, 1153846
1, 3024, Tempo, 1250000
1, 3060, Tempo, 983606
1, 3072, Tempo, 869565
1, 3120, Tempo, 845070
1, 3168, Tempo, 1000000
1, 3216, Tempo, 1250000
1, 3264, Tempo, 895522
1, 3312, Tempo, 845070
1, 3336, Tempo, 895522
1, 3360, Tempo, 731707
1, 3384, Tempo, 800000
1, 3408, Tempo, 789473
1, 3432, Tempo, 952380
1, 3456, Tempo, 697674
1, 3504, Tempo, 681818
1, 3552, Tempo, 659340
1, 3600, Tempo, 697674
1, 3648, Tempo, 645161
1, 3696, Tempo, 594059
1, 3720, Tempo, 800000
1, 3744, Tempo, 731707
1, 3768, Tempo, 800000
1, 3792, Tempo, 789473
1, 3816, Tempo, 1153846
1, 3840, Tempo, 697674
1, 3888, Tempo, 666666
1, 3936, Tempo, 895522
1, 3960, Tempo, 731707
1, 3984, Tempo, 645161
1, 4008, Tempo, 697674
1, 4032, Tempo, 594059
1, 4080, Tempo, 645161
1, 4128, Tempo, 666666
1, 4152, Tempo, 800000
1, 4176, Tempo, 769230
1, 4200, Tempo, 895522
1, 4224, Tempo, 731707
1, 4272, Tempo, 1333333
1, 4290, Tempo, 845070
1, 4296, Tempo, 535714
1, 4308, Tempo, 500000
1, 4320, Tempo, 697674
1, 4368, Tempo, 731707
1, 4392, Tempo, 895522
1, 4416, Tempo, 1463414
1, 4424, Tempo, 666666
1, 4464, Tempo, 1333333
1, 4472, Tempo, 952380
1, 4480, Tempo, 845070
1, 4488, Tempo, 800000
1, 4496, Tempo, 895522
1, 4504, Tempo, 1333333
1, 4516, Tempo, 1153846
1, 4520, Tempo, 1000000
1, 4524, Tempo, 983606
1, 4536, Tempo, 1000000
1, 4540, Tempo, 1071428
1, 4544, Tempo, 1333333
1, 4548, Tempo, 1818181
1, 4554, Tempo, 3333333
1, 4560, Tempo, 1333333
1, 4584, Tempo, 1621621
1, 4596, Tempo, 1333333
1, 4608, Tempo, 869565
1, 4656, Tempo, 923076
1, 4704, Tempo, 952380
1, 4728, Tempo, 1153846
1, 4752, Tempo, 1333333
1, 4776, Tempo, 1463414
1, 4788, Tempo, 2307692
1, 4800, Tempo, 1111111
1, 4848, Tempo, 895522
1, 4872, Tempo, 1071428
1, 4896, Tempo, 1818181
1, 4902, Tempo, 1200000
1, 4908, Tempo, 923076
1, 4914, Tempo, 983606
1, 4920, Tempo, 731707
1, 4926, Tempo, 666666
1, 4938, Tempo, 697674
1, 4944, Tempo, 681818
1, 4950, Tempo, 697674
1, 4956, Tempo, 800000
1, 4962, Tempo, 952380
1, 4968, Tempo, 1071428
1, 4974, Tempo, 1153846
1, 4980, Tempo, 1304347
1, 4986, Tempo, 1463414
1, 4992, Tempo, 1538461
1, 4998, Tempo, 2500000
1, 5004, Tempo, 952380
1, 5052, Tempo, 1000000
1, 5100, Tempo, 1153846
1, 5148, Tempo, 1200000
1, 5172, Tempo, 1818181
1, 5196, Tempo, 1071428
1, 5244, Tempo, 895522
1, 5268, Tempo, 1071428
1, 5292, Tempo, 895522
1, 5340, Tempo, 923076
1, 5364, Tempo, 1071428
1, 5388, Tempo, 952380
1, 5436, Tempo, 845070
1, 5484, Tempo, 789473
1, 5532, Tempo, 821917
1, 5556, Tempo, 1000000
1, 5580, Tempo, 800000
1, 5628, Tempo, 769230
1, 5676, Tempo, 731707
1, 5700, Tempo, 714285
1, 5724, Tempo, 697674
1, 5748, Tempo, 800000
1, 5820, Tempo, 895522
1, 5868, Tempo, 800000
1, 5916, Tempo, 1000000
1, 5964, Tempo, 1071428
1, 5976, Tempo, 800000
1, 5996, Tempo, 769230
1, 6004, Tempo, 800000
1, 6012, Tempo, 1333333
1, 6016, Tempo, 1621621
1, 6020, Tempo, 2307692
1, 6024, Tempo, 2000000
1, 6028, Tempo, 1621621
1, 6032, Tempo, 1463414
1, 6036, Tempo, 1395348
1, 6040, Tempo, 1463414
1, 6044, Tempo, 1621621
1, 6048, Tempo, 1818181
1, 6052, Tempo, 1304347
1, 6060, Tempo, 1621621
1, 6064, Tempo, 1071428
1, 6068, Tempo, 1000000
1, 6088, Tempo, 1034482
1, 6092, Tempo, 1200000
1, 6096, Tempo, 1153846
1, 6102, Tempo, 2307692
1, 6108, Tempo, 1621621
1, 6144, Tempo, 2000000
1, 6156, Tempo, 1463414
1, 6180, Tempo, 1250000
1, 6192, Tempo, 1153846
1, 6204, Tempo, 1000000
1, 6240, Tempo, 983606
1, 6264, Tempo, 1000000
1, 6276, Tempo, 1034482
1, 6288, Tempo, 1250000
1, 6300, Tempo, 1034482
1, 6312, Tempo, 1071428
1, 6324, Tempo, 1200000
1, 6336, Tempo, 1463414
1, 6348, Tempo, 1333333
1, 6372, Tempo, 1153846
1, 6384, Tempo, 1034482
1, 6396, Tempo, 1000000
1, 6408, Tempo, 895522
1, 6420, Tempo, 923076
1, 6432, Tempo, 869565
1, 6444, Tempo, 821917
1, 6456, Tempo, 845070
1, 6468, Tempo, 952380
1, 6480, Tempo, 1071428
1, 6492, Tempo, 895522
1, 6504, Tempo, 1071428
1, 6516, Tempo, 1200000
1, 6528, Tempo, 1395348
1, 6540, Tempo, 952380
1, 6564, Tempo, 845070
1, 6576, Tempo, 789473
1, 6588, Tempo, 769230
1, 6612, Tempo, 800000
1, 6624, Tempo, 952380
1, 6636, Tempo, 895522
1, 6660, Tempo, 800000
1, 6672, Tempo, 769230
1, 6684, Tempo, 845070
1, 6696, Tempo, 869565
1, 6708, Tempo, 983606
1, 6720, Tempo, 1333333
1, 6732, Tempo, 952380
1, 6744, Tempo, 800000
1, 6756, Tempo, 789473
1, 6768, Tempo, 895522
1, 6780, Tempo, 845070
1, 6792, Tempo, 821917
1, 6804, Tempo, 869565
1, 6816, Tempo, 1000000
1, 6828, Tempo, 952380
1, 6840, Tempo, 923076
1, 6852, Tempo, 952380
1, 6864, Tempo, 983606
1, 6876, Tempo, 1071428
1, 6888, Tempo, 1333333
1, 6900, Tempo, 1250000
1, 6912, Tempo, 1818181
1, 6924, Tempo, 1333333
1, 6948, Tempo, 1000000
1, 6960, Tempo, 895522
1, 6972, Tempo, 821917
1, 6984, Tempo, 789473
1, 6996, Tempo, 769230
1, 7008, Tempo, 750000
1, 7020, Tempo, 769230
1, 7032, Tempo, 845070
1, 7044, Tempo, 869565
1, 7056, Tempo, 895522
1, 7068, Tempo, 845070
1, 7080, Tempo, 800000
1, 7092, Tempo, 869565
1, 7104, Tempo, 1153846
1, 7116, Tempo, 1071428
1, 7140, Tempo, 952380
1, 7152, Tempo, 1250000
1, 7164, Tempo, 1153846
1, 7176, Tempo, 1000000
1, 7188, Tempo, 1071428
1, 7212, Tempo, 1153846
1, 7224, Tempo, 1463414
1, 7236, Tempo, 1153846
1, 7248, Tempo, 1250000
1, 7260, Tempo, 1200000
1, 7272, Tempo, 1000000
1, 7284, Tempo, 983606
1, 7296, Tempo, 1333333
1, 7308, Tempo, 666666
1, 7312, Tempo, 645161
1, 7316, Tempo, 3333333
1, 7320, Tempo, 952380
1, 7344, Tempo, 895522
1, 7356, Tempo, 1000000
1, 7368, Tempo, 1250000
1, 7380, Tempo, 895522
1, 7392, Tempo, 845070
1, 7404, Tempo, 1071428
1, 7428, Tempo, 789473
1, 7440, Tempo, 750000
1, 7452, Tempo, 769230
1, 7464, Tempo, 869565
1, 7476, Tempo, 800000
1, 7488, Tempo, 789473
1, 7500, Tempo, 1000000
1, 7512, Tempo, 952380
1, 7524, Tempo, 731707
1, 7536, Tempo, 769230
1, 7548, Tempo, 1071428
1, 7560, Tempo, 845070
1, 7572, Tempo, 800000
1, 7584, Tempo, 952380
1, 7602, Tempo, 1463414
1, 7608, Tempo, 1250000
1, 7620, Tempo, 923076
1, 7632, Tempo, 845070
1, 7644, Tempo, 895522
1, 7656, Tempo, 952380
1, 7668, Tempo, 1034482
1, 7680, Tempo, 1250000
1, 7692, Tempo, 1538461
1, 7704, Tempo, 1250000
1, 7716, Tempo, 952380
1, 7728, Tempo, 923076
1, 7740, Tempo, 1000000
1, 7752, Tempo, 923076
1, 7764, Tempo, 895522
1, 7776, Tempo, 952380
1, 7788, Tempo, 1250000
1, 7812, Tempo, 895522
1, 7824, Tempo, 845070
1, 7836, Tempo, 983606
1, 7848, Tempo, 869565
1, 7860, Tempo, 821917
1, 7872, Tempo, 869565
1, 7884, Tempo, 1071428
1, 7908, Tempo, 845070
1, 7920, Tempo, 800000
1, 7932, Tempo, 869565
1, 7944, Tempo, 821917
1, 7956, Tempo, 789473
1, 7968, Tempo, 845070
1, 7980, Tempo, 895522
1, 7992, Tempo, 952380
1, 8004, Tempo, 895522
1, 8016, Tempo, 983606
1, 8028, Tempo, 1250000
1, 8040, Tempo, 1071428
1, 8052, Tempo, 923076
1, 8064, Tempo, 1000000
1, 8076, Tempo, 1250000
1, 8088, Tempo, 1071428
1, 8100, Tempo, 1000000
1, 8112, Tempo, 821917
1, 8124, Tempo, 895522
1, 8136, Tempo, 800000
1, 8148, Tempo, 821917
1, 8160, Tempo, 869565
1, 8172, Tempo, 923076
1, 8184, Tempo, 895522
1, 8196, Tempo, 821917
1, 8208, Tempo, 845070
1, 8220, Tempo, 869565
1, 8232, Tempo, 821917
1, 8244, Tempo, 800000
1, 8256, Tempo, 821917
1, 8268, Tempo, 1071428
1, 8280, Tempo, 923076
1, 8292, Tempo, 952380
1, 8304, Tempo, 769230
1, 8316, Tempo, 845070
1, 8328, Tempo, 869565
1, 8340, Tempo, 845070
1, 8352, Tempo, 895522
1, 8364, Tempo, 952380
1, 8376, Tempo, 983606
1, 8388, Tempo, 895522
1, 8400, Tempo, 845070
1, 8412, Tempo, 1250000
1, 8424, Tempo, 952380
1, 8436, Tempo, 845070
1, 8448, Tempo, 869565
1, 8460, Tempo, 1071428
1, 8484, Tempo, 895522
1, 8496, Tempo, 845070
1, 8508, Tempo, 923076
1, 8520, Tempo, 869565
1, 8532, Tempo, 895522
1, 8544, Tempo, 869565
1, 8556, Tempo, 923076
1, 8568, Tempo, 952380
1, 8580, Tempo, 1153846
1, 8588, Tempo, 1250000
1, 8592, Tempo, 1000000
1, 8604, Tempo, 1250000
1, 8616, Tempo, 1071428
1, 8628, Tempo, 983606
1, 8640, Tempo, 1000000
1, 8652, Tempo, 1250000
1, 8664, Tempo, 1000000
1, 8676, Tempo, 1111111
1, 8688, Tempo, 983606
1, 8700, Tempo, 1153846
1, 8712, Tempo, 1250000
1, 8724, Tempo, 1000000
1, 8736, Tempo, 952380
1, 8748, Tempo, 1111111
1, 8760, Tempo, 1000000
1, 8772, Tempo, 952380
1, 8796, Tempo, 869565
1, 8808, Tempo, 1000000
1, 8820, Tempo, 952380
1, 8832, Tempo, 983606
1, 8844, Tempo, 1000000
1, 8856, Tempo, 1071428
1, 8868, Tempo, 1333333
1, 8880, Tempo, 1071428
1, 8892, Tempo, 1034482
1, 8904, Tempo, 1000000
1, 8916, Tempo, 952380
1, 8952, Tempo, 1000000
1, 8964, Tempo, 1034482
1, 8976, Tempo, 1153846
1, 8988, Tempo, 1304347
1, 9000, Tempo, 1250000
1, 9012, Tempo, 1818181
1, 9024, Tempo, 1714285
1, 9036, Tempo, 2000000
1, 9048, Tempo, 1463414
1, 9060, Tempo, 1000000
1, 9072, Tempo, 923076
1, 9084, Tempo, 983606
1, 9096, Tempo, 1071428
1, 9108, Tempo, 895522
1, 9120, Tempo, 800000
1, 9132, Tempo, 845070
1, 9144, Tempo, 895522
1, 9156, Tempo, 821917
1, 9168, Tempo, 769230
1, 9180, Tempo, 800000
1, 9204, Tempo, 769230
1, 9216, Tempo, 750000
1, 9228, Tempo, 845070
1, 9240, Tempo, 895522
1, 9252, Tempo, 750000
1, 9264, Tempo, 845070
1, 9276, Tempo, 952380
1, 9288, Tempo, 1000000
1, 9300, Tempo, 1034482
1, 9312, Tempo, 1153846
1, 9324, Tempo, 1463414
1, 9336, Tempo, 1250000
1, 9348, Tempo, 1000000
1, 9360, Tempo, 895522
1, 9372, Tempo, 800000
1, 9384, Tempo, 845070
1, 9396, Tempo, 895522
1, 9408, Tempo, 1153846
1, 9411, Tempo, 952380
1, 9414, Tempo, 895522
1, 9423, Tempo, 952380
1, 9426, Tempo, 1000000
1, 9429, Tempo, 1463414
1, 9432, Tempo, 2307692
1, 9436, Tempo, 1250000
1, 9448, Tempo, 952380
1, 9460, Tempo, 845070
1, 9472, Tempo, 895522
1, 9484, Tempo, 869565
1, 9496, Tempo, 789473
1, 9508, Tempo, 845070
1, 9520, Tempo, 952380
1, 9532, Tempo, 923076
1, 9544, Tempo, 821917
1, 9556, Tempo, 789473
1, 9568, Tempo, 845070
1, 9580, Tempo, 800000
1, 9592, Tempo, 789473
1, 9604, Tempo, 821917
1, 9616, Tempo, 1153846
1, 9624, Tempo, 1071428
1, 9626, Tempo, 1000000
1, 9628, Tempo, 937500
1, 9630, Tempo, 882352
1, 9632, Tempo, 833333
1, 9634, Tempo, 789473
1, 9636, Tempo, 750000
1, 9638, Tempo, 714285
1, 9640, Tempo, 952380
1, 9652, Tempo, 800000
1, 9664, Tempo, 845070
1, 9676, Tempo, 869565
1, 9688, Tempo, 845070
1, 9700, Tempo, 869565
1, 9712, Tempo, 1071428
1, 9736, Tempo, 1153846
1, 9748, Tempo, 1071428
1, 9760, Tempo, 1935483
1, 9772, Tempo, 1463414
1, 9784, Tempo, 1111111
1, 9796, Tempo, 1071428
1, 9808, Tempo, 1621621
1, 9820, Tempo, 1333333
1, 9832, Tempo, 1071428
1, 9844, Tempo, 983606
1, 9856, Tempo, 952380
1, 9868, Tempo, 869565
1, 9880, Tempo, 895522
1, 9904, Tempo, 983606
1, 9916, Tempo, 1071428
1, 9928, Tempo, 952380
1, 9940, Tempo, 845070
1, 9952, Tempo, 952380
1, 9964, Tempo, 845070
1, 9988, Tempo, 869565
1, 10000, Tempo, 1034482
1, 10012, Tempo, 1250000
1, 10024, Tempo, 983606
1, 10036, Tempo, 923076
1, 10048, Tempo, 1000000
1, 10060, Tempo, 983606
1, 10072, Tempo, 952380
1, 10084, Tempo, 983606
1, 10096, Tempo, 1071428
1, 10108, Tempo, 1333333
1, 10120, Tempo, 1000000
1, 10132, Tempo, 1111111
1, 10144, Tempo, 1538461
1, 10156, Tempo, 1463414
1, 10168, Tempo, 1111111
1, 10180, Tempo, 1071428
1, 10192, Tempo, 1250000
1, 10204, Tempo, 1034482
1, 10216, Tempo, 983606
1, 10240, Tempo, 1034482
1, 10252, Tempo, 1071428
1, 10264, Tempo, 1000000
1, 10288, Tempo, 1071428
1, 10300, Tempo, 895522
1, 10300, Tempo, 1153846
1, 10312, Tempo, 1621621
1, 10320, Tempo, 1071428
1, 10324, Tempo, 1250000
1, 10336, Tempo, 1333333
1, 10348, Tempo, 1200000
1, 10360, Tempo, 1071428
1, 10384, Tempo, 1250000
1, 10396, Tempo, 1071428
1, 10408, Tempo, 1153846
1, 10420, Tempo, 1111111
1, 10432, Tempo, 1333333
1, 10444, Tempo, 1463414
1, 10456, Tempo, 1304347
1, 10468, Tempo, 1153846
1, 10480, Tempo, 1333333
1, 10492, Tempo, 1071428
1, 10504, Tempo, 1034482
1, 10516, Tempo, 1000000
1, 10528, Tempo, 1071428
1, 10540, Tempo, 1200000
1, 10552, Tempo, 1250000
1, 10564, Tempo, 1463414
1, 10576, Tempo, 1818181
1, 10588, Tempo, 1621621
1, 10600, Tempo, 1935483
1, 10612, Tempo, 1621621
1, 10624, Tempo, 1463414
1, 10636, Tempo, 1304347
1, 10648, Tempo, 1071428
1, 10660, Tempo, 1111111
1, 10672, Tempo, 1153846
1, 10684, Tempo, 1000000
1, 10696, Tempo, 1071428
1, 10708, Tempo, 1000000
1, 10720, Tempo, 1071428
1, 10732, Tempo, 1153846
1, 10744, Tempo, 1463414
1, 10756, Tempo, 1935483
1, 10768, Tempo, 2727272
1, 10780, Tempo, 3000000
1, 10792, Tempo, 1395348
1, 10804, Tempo, 1153846
1, 10816, Tempo, 1250000
1, 10828, Tempo, 1621621
1, 10840, Tempo, 1000000
1, 10852, Tempo, 983606
1, 10864, Tempo, 1071428
1, 10888, Tempo, 869565
1, 10900, Tempo, 845070
1, 10912, Tempo, 895522
1, 10924, Tempo, 1000000
1, 10936, Tempo, 895522
1, 10948, Tempo, 952380
1, 10960, Tempo, 1071428
1, 10972, Tempo, 1200000
1, 10984, Tempo, 1071428
1, 11008, Tempo, 1111111
1, 11020, Tempo, 1200000
1, 11032, Tempo, 1250000
1, 11044, Tempo, 1621621
1, 11056, Tempo, 1818181
1, 11068, Tempo, 1463414
1, 11080, Tempo, 1395348
1, 11092, Tempo, 1463414
1, 11104, Tempo, 1621621
1, 11116, Tempo, 1818181
1, 11128, Tempo, 2142857
1, 11140, Tempo, 3333333
1, 11176, Tempo, 1333333
1, 11224, Tempo, 1071428
1, 11248, Tempo, 1111111
1, 11272, Tempo, 923076
1, 11296, Tempo, 952380
1, 11320, Tempo, 983606
1, 11344, Tempo, 1153846
1, 11368, Tempo, 1034482
1, 11416, Tempo, 1111111
1, 11464, Tempo, 1463414
1, 11512, Tempo, 1621621
1, 11560, Tempo, 1153846
1, 11608, Tempo, 1111111
1, 11680, Tempo, 1034482
1, 11728, Tempo, 1200000
1, 11752, Tempo, 1034482
1, 11800, Tempo, 983606
1, 11896, Tempo, 1153846
1, 11920, Tempo, 1250000
1, 11944, Tempo, 895522
1, 11992, Tempo, 869565
1, 12040, Tempo, 821917
1, 12064, Tempo, 769230
1, 12088, Tempo, 750000
1, 12112, Tempo, 895522
1, 12136, Tempo, 789473
1, 12184, Tempo, 731707
1, 12280, Tempo, 750000
1, 12328, Tempo, 681818
1, 12376, Tempo, 731707
1, 12424, Tempo, 800000
1, 12472, Tempo, 952380
1, 12520, Tempo, 1200000
1, 12540, Tempo, 1818181
1, 12544, Tempo, 1538461
1, 12548, Tempo, 1463414
1, 12552, Tempo, 1395348
1, 12556, Tempo, 1333333
1, 12560, Tempo, 2727272
1, 12568, Tempo, 1250000
1, 12604, Tempo, 1153846
1, 12616, Tempo, 895522
1, 12664, Tempo, 983606
1, 12700, Tempo, 869565
1, 12712, Tempo, 769230
1, 12760, Tempo, 800000
1, 12784, Tempo, 923076
1, 12808, Tempo, 769230
1, 12856, Tempo, 800000
1, 12880, Tempo, 952380
1, 12904, Tempo, 845070
1, 12952, Tempo, 750000
1, 13000, Tempo, 845070
1, 13024, Tempo, 800000
1, 13048, Tempo, 845070
1, 13064, Tempo, 800000
1, 13080, Tempo, 1000000
1, 13096, Tempo, 895522
1, 13120, Tempo, 952380
1, 13144, Tempo, 895522
1, 13160, Tempo, 821917
1, 13176, Tempo, 789473
1, 13192, Tempo, 769230
1, 13208, Tempo, 789473
1, 13224, Tempo, 952380
1, 13240, Tempo, 983606
1, 13256, Tempo, 895522
1, 13272, Tempo, 1000000
1, 13288, Tempo, 1034482
1, 13304, Tempo, 983606
1, 13320, Tempo, 952380
1, 13336, Tempo, 1153846
1, 13352, Tempo, 1200000
1, 13368, Tempo, 1463414
1, 13384, Tempo, 2307692
1, 13388, Tempo, 1250000
1, 13392, Tempo, 1071428
1, 13396, Tempo, 1034482
1, 13400, Tempo, 1000000
1, 13412, Tempo, 1034482
1, 13416, Tempo, 1200000
1, 13420, Tempo, 1153846
1, 13426, Tempo, 2727272
1, 13432, Tempo, 1621621
1, 13456, Tempo, 2000000
1, 13468, Tempo, 2307692
1, 13480, Tempo, 1621621
1, 13504, Tempo, 1463414
1, 13516, Tempo, 1333333
1, 13528, Tempo, 1200000
1, 13540, Tempo, 1153846
1, 13552, Tempo, 1111111
1, 13564, Tempo, 1071428
1, 13588, Tempo, 1111111
1, 13600, Tempo, 1153846
1, 13612, Tempo, 1621621
1, 13624, Tempo, 1395348
1, 13636, Tempo, 1200000
1, 13648, Tempo, 1333333
1, 13660, Tempo, 1935483
1, 13672, Tempo, 1463414
1, 13696, Tempo, 1333333
1, 13708, Tempo, 1200000
1, 13720, Tempo, 1071428
1, 13732, Tempo, 895522
1, 13744, Tempo, 923076
1, 13756, Tempo, 869565
1, 13768, Tempo, 845070
1, 13780, Tempo, 869565
1, 13792, Tempo, 895522
1, 13804, Tempo, 952380
1, 13828, Tempo, 1071428
1, 13840, Tempo, 1200000
1, 13852, Tempo, 1250000
1, 13856, Tempo, 3000000
1, 13864, Tempo, 952380
1, 13888, Tempo, 895522
1, 13900, Tempo, 800000
1, 13912, Tempo, 769230
1, 13924, Tempo, 750000
1, 13936, Tempo, 769230
1, 13948, Tempo, 923076
1, 13960, Tempo, 895522
1, 13984, Tempo, 800000
1, 13996, Tempo, 789473
1, 14008, Tempo, 923076
1, 14020, Tempo, 983606
1, 14032, Tempo, 1200000
1, 14044, Tempo, 2000000
1, 14056, Tempo, 1395348
1, 14068, Tempo, 983606
1, 14080, Tempo, 869565
1, 14092, Tempo, 845070
1, 14104, Tempo, 800000
1, 14116, Tempo, 789473
1, 14128, Tempo, 821917
1, 14140, Tempo, 952380
1, 14152, Tempo, 895522
1, 14164, Tempo, 869565
1, 14176, Tempo, 923076
1, 14188, Tempo, 1153846
1, 14200, Tempo, 1071428
1, 14212, Tempo, 1463414
1, 14224, Tempo, 1621621
1, 14232, Tempo, 1071428
1, 14236, Tempo, 2307692
1, 14248, Tempo, 1818181
1, 14272, Tempo, 1333333
1, 14284, Tempo, 1250000
1, 14296, Tempo, 952380
1, 14308, Tempo, 895522
1, 14320, Tempo, 869565
1, 14332, Tempo, 895522
1, 14344, Tempo, 1000000
1, 14356, Tempo, 983606
1, 14368, Tempo, 1071428
1, 14380, Tempo, 1000000
1, 14392, Tempo, 1200000
1, 14404, Tempo, 1463414
1, 14416, Tempo, 1621621
1, 14428, Tempo, 2000000
1, 14434, Tempo, 3333333
1, 14440, Tempo, 1818181
1, 14464, Tempo, 1463414
1, 14476, Tempo, 2000000
1, 14488, Tempo, 1818181
1, 14500, Tempo, 1395348
1, 14512, Tempo, 1304347
1, 14524, Tempo, 1463414
1, 14536, Tempo, 1250000
1, 14548, Tempo, 1153846
1, 14560, Tempo, 1111111
1, 14572, Tempo, 1250000
1, 14584, Tempo, 1304347
1, 14596, Tempo, 1395348
1, 14608, Tempo, 1463414
1, 14620, Tempo, 1621621
1, 14626, Tempo, 1153846
1, 14632, Tempo, 1071428
1, 14636, Tempo, 1153846
1, 14640, Tempo, 2000000
1, 14644, Tempo, 1818181
1, 14656, Tempo, 983606
1, 14668, Tempo, 869565
1, 14680, Tempo, 845070
1, 14692, Tempo, 895522
1, 14704, Tempo, 923076
1, 14716, Tempo, 1333333
1, 14728, Tempo, 1000000
1, 14752, Tempo, 895522
1, 14764, Tempo, 952380
1, 14776, Tempo, 1000000
1, 14788, Tempo, 1071428
1, 14800, Tempo, 1153846
1, 14812, Tempo, 1621621
1, 14836, Tempo, 983606
1, 14848, Tempo, 952380
1, 14860, Tempo, 1071428
1, 14872, Tempo, 1000000
1, 14884, Tempo, 983606
1, 14896, Tempo, 1071428
1, 14908, Tempo, 1250000
1, 14920, Tempo, 1395348
1, 14932, Tempo, 1538461
1, 14944, Tempo, 1621621
1, 14956, Tempo, 2500000
1, 14968, Tempo, 3333333
1, 14980, Tempo, 2500000
1, 14992, Tempo, 3750000
1, 15004, Tempo, 4615384
1, 15016, Tempo, 1621621
1, 15018, Tempo, 4000000
1, 15028, Tempo, 2500000
1, 15040, Tempo, 1935483
1, 15052, Tempo, 1818181
1, 15064, Tempo, 2000000
1, 15076, Tempo, 2142857
1, 15088, Tempo, 1935483
1, 15100, Tempo, 1714285
1, 15112, Tempo, 1395348
1, 15124, Tempo, 1304347
1, 15136, Tempo, 1395348
1, 15148, Tempo, 1463414
1, 15160, Tempo, 1621621
1, 15172, Tempo, 1714285
1, 15184, Tempo, 2000000
1, 15196, Tempo, 4000000
1, 15208, Tempo, 1818181
1, 15256, Tempo, 1714285
1, 15304, Tempo, 1621621
1, 15352, Tempo, 2142857
1, 15400, Tempo, 2727272
1, 15436, Tempo, 1621621
1, 15448, Tempo, 3000000
1, 15464, Tempo, 1538461
1, 15480, Tempo, 1935483
1, 15496, Tempo, 1818181
1, 15544, Tempo, 2307692
1, 15580, Tempo, 2500000
1, 15592, Tempo, 2000000
1, 15596, Tempo, 1818181
1, 15600, Tempo, 1621621
1, 15604, Tempo, 3333333
1, 15612, Tempo, 1463414
1, 15708, Tempo, 2000000
1, 15756, Tempo, 3333333
1, 15772, Tempo, 4000000
1, 15796, Tempo, 4615384
1, 15820, Tempo, 2727272
1, 15820, End_track
2, 0, Start_track
2, 0, Title_t, "RIGHT HAND"
2, 0, MIDI_port, 0
2, 4, System_exclusive, 0A, 41, 10, 42, 12, 40, 00, 7F, 00, 41, F7
2, 6, System_exclusive, 0A, 41, 10, 42, 12, 40, 00, 04, 7F, 3D, F7
2, 10, System_exclusive, 0A, 41, 10, 42, 12, 40, 01, 30, 04, 0B, F7
2, 12, System_exclusive, 0A, 41, 10, 42, 12, 40, 01, 31, 03, 0B, F7
2, 14, System_exclusive, 0A, 41, 10, 42, 12, 40, 01, 33, 6E, 1E, F7
2, 16, System_exclusive, 0A, 41, 10, 42, 12, 40, 01, 34, 3C, 4F, F7
2, 18, System_exclusive, 0A, 41, 10, 42, 12, 40, 01, 38, 02, 05, F7
2, 20, System_exclusive, 0A, 41, 10, 42, 12, 40, 01, 3A, 64, 21, F7
2, 22, System_exclusive, 0A, 41, 10, 42, 12, 40, 01, 3D, 07, 7B, F7
2, 24, System_exclusive, 0A, 41, 10, 42, 12, 40, 01, 3E, 08, 79, F7
2, 26, Control_c, 0, 0, 0
2, 28, Control_c, 0, 32, 1
2, 30, Program_c, 0, 0
2, 32, Control_c, 0, 7, 120
2, 34, Control_c, 0, 11, 120
2, 36, Control_c, 0, 91, 40
2, 38, Control_c, 0, 93, 0
2, 40, Control_c, 0, 10, 64
2, 42, Control_c, 0, 99, 1
2, 44, Control_c, 0, 98, 8
2, 46, Control_c, 0, 6, 64
2, 48, Control_c, 0, 98, 9
2, 50, Control_c, 0, 6, 64
2, 52, Control_c, 0, 98, 10
2, 54, Control_c, 0, 6, 64
2, 56, Control_c, 0, 98, 32
2, 58, Control_c, 0, 6, 64
2, 60, Control_c, 0, 98, 33
2, 62, Control_c, 0, 6, 64
2, 64, Control_c, 0, 98, 99
2, 66, Control_c, 0, 6, 64
2, 68, Control_c, 0, 98, 100
2, 70, Control_c, 0, 6, 80
2, 72, Control_c, 0, 98, 102
2, 74, Control_c, 0, 6, 64
2, 144, Note_on_c, 0, 59, 46
2, 192, Note_on_c, 0, 59, 0
2, 192, Note_on_c, 0, 68, 54
2, 264, Note_on_c, 0, 68, 0
2, 264, Note_on_c, 0, 69, 52
2, 288, Note_on_c, 0, 69, 0
2, 288, Note_on_c, 0, 71, 61
2, 312, Note_on_c, 0, 71, 0
2, 312, Note_on_c, 0, 75, 74
2, 336, Note_on_c, 0, 75, 0
2, 336, Note_on_c, 0, 76, 70
2, 360, Note_on_c, 0, 76, 0
2, 360, Note_on_c, 0, 73, 60
2, 384, Note_on_c, 0, 73, 0
2, 384, Note_on_c, 0, 71, 54
2, 480, Note_on_c, 0, 71, 0
2, 480, Note_on_c, 0, 66, 50
2, 552, Note_on_c, 0, 66, 0
2, 552, Note_on_c, 0, 68, 56
2, 576, Note_on_c, 0, 68, 0
2, 576, Note_on_c, 0, 64, 54
2, 672, Note_on_c, 0, 64, 0
2, 672, Note_on_c, 0, 66, 58
2, 696, Note_on_c, 0, 66, 0
2, 696, Note_on_c, 0, 68, 64
2, 720, Note_on_c, 0, 68, 0
2, 720, Note_on_c, 0, 69, 66
2, 744, Note_on_c, 0, 69, 0
2, 744, Note_on_c, 0, 71, 66
2, 768, Note_on_c, 0, 71, 0
2, 768, Note_on_c, 0, 73, 60
2, 862, Note_on_c, 0, 73, 0
2, 888, Note_on_c, 0, 73, 60
2, 936, Note_on_c, 0, 73, 0
2, 936, Note_on_c, 0, 71, 53
2, 960, Note_on_c, 0, 71, 0
2, 960, Note_on_c, 0, 71, 42
2, 1008, Note_on_c, 0, 71, 0
2, 1008, Note_on_c, 0, 69, 38
2, 1054, Note_on_c, 0, 69, 0
2, 1080, Note_on_c, 0, 68, 50
2, 1104, Note_on_c, 0, 68, 0
2, 1104, Note_on_c, 0, 68, 57
2, 1120, Note_on_c, 0, 68, 0
2, 1120, Note_on_c, 0, 66, 60
2, 1144, Note_on_c, 0, 66, 0
2, 1144, Note_on_c, 0, 65, 58
2, 1151, Note_on_c, 0, 65, 0
2, 1152, Note_on_c, 0, 65, 66
2, 1200, Note_on_c, 0, 65, 0
2, 1200, Note_on_c, 0, 66, 46
2, 1246, Note_on_c, 0, 66, 0
2, 1272, Note_on_c, 0, 58, 54
2, 1296, Note_on_c, 0, 58, 0
2, 1296, Note_on_c, 0, 59, 67
2, 1320, Note_on_c, 0, 59, 0
2, 1320, Note_on_c, 0, 69, 70
2, 1344, Note_on_c, 0, 69, 0
2, 1344, Note_on_c, 0, 68, 60
2, 1392, Note_on_c, 0, 68, 0
2, 1392, Note_on_c, 0, 63, 61
2, 1416, Note_on_c, 0, 63, 0
2, 1416, Note_on_c, 0, 64, 58
2, 1440, Note_on_c, 0, 64, 0
2, 1440, Note_on_c, 0, 63, 52
2, 1456, Note_on_c, 0, 63, 0
2, 1456, Note_on_c, 0, 64, 53
2, 1472, Note_on_c, 0, 64, 0
2, 1472, Note_on_c, 0, 63, 51
2, 1488, Note_on_c, 0, 63, 0
2, 1488, Note_on_c, 0, 64, 48
2, 1504, Note_on_c, 0, 64, 0
2, 1504, Note_on_c, 0, 66, 46
2, 1520, Note_on_c, 0, 66, 0
2, 1520, Note_on_c, 0, 61, 44
2, 1536, Note_on_c, 0, 61, 0
2, 1536, Note_on_c, 0, 64, 40
2, 1632, Note_on_c, 0, 64, 0
2, 1632, Note_on_c, 0, 63, 38
2, 1646, Note_on_c, 0, 63, 0
2, 1648, Note_on_c, 0, 75, 42
2, 1672, Note_on_c, 0, 75, 0
2, 1672, Note_on_c, 0, 73, 40
2, 1680, Note_on_c, 0, 73, 0
2, 1680, Note_on_c, 0, 73, 40
2, 1696, Note_on_c, 0, 73, 0
2, 1696, Note_on_c, 0, 71, 44
2, 1712, Note_on_c, 0, 71, 0
2, 1712, Note_on_c, 0, 69, 42
2, 1728, Note_on_c, 0, 69, 0
2, 1728, Note_on_c, 0, 68, 40
2, 1798, Note_on_c, 0, 68, 0
2, 1800, Note_on_c, 0, 69, 39
2, 1824, Note_on_c, 0, 69, 0
2, 1824, Note_on_c, 0, 71, 38
2, 1836, Note_on_c, 0, 71, 0
2, 1836, Note_on_c, 0, 76, 40
2, 1848, Note_on_c, 0, 76, 0
2, 1848, Note_on_c, 0, 78, 45
2, 1860, Note_on_c, 0, 78, 0
2, 1860, Note_on_c, 0, 80, 47
2, 1872, Note_on_c, 0, 80, 0
2, 1872, Note_on_c, 0, 78, 42
2, 1880, Note_on_c, 0, 78, 0
2, 1880, Note_on_c, 0, 76, 40
2, 1888, Note_on_c, 0, 76, 0
2, 1888, Note_on_c, 0, 71, 38
2, 1896, Note_on_c, 0, 71, 0
2, 1896, Note_on_c, 0, 73, 42
2, 1904, Note_on_c, 0, 73, 0
2, 1904, Note_on_c, 0, 68, 40
2, 1912, Note_on_c, 0, 68, 0
2, 1912, Note_on_c, 0, 73, 44
2, 1920, Note_on_c, 0, 73, 0
2, 1920, Note_on_c, 0, 71, 48
2, 2016, Note_on_c, 0, 71, 0
2, 2016, Note_on_c, 0, 66, 52
2, 2086, Note_on_c, 0, 66, 0
2, 2088, Note_on_c, 0, 68, 58
2, 2112, Note_on_c, 0, 68, 0
2, 2112, Note_on_c, 0, 64, 60
2, 2160, Note_on_c, 0, 64, 0
2, 2160, Note_on_c, 0, 63, 65
2, 2184, Note_on_c, 0, 63, 0
2, 2184, Note_on_c, 0, 64, 69
2, 2208, Note_on_c, 0, 64, 0
2, 2208, Note_on_c, 0, 66, 68
2, 2244, Note_on_c, 0, 66, 0
2, 2244, Note_on_c, 0, 68, 67
2, 2256, Note_on_c, 0, 68, 0
2, 2256, Note_on_c, 0, 69, 74
2, 2280, Note_on_c, 0, 69, 0
2, 2280, Note_on_c, 0, 71, 73
2, 2304, Note_on_c, 0, 71, 0
2, 2304, Note_on_c, 0, 73, 76
2, 2398, Note_on_c, 0, 73, 0
2, 2424, Note_on_c, 0, 73, 74
2, 2472, Note_on_c, 0, 73, 0
2, 2472, Note_on_c, 0, 71, 66
2, 2484, Note_on_c, 0, 71, 0
2, 2484, Note_on_c, 0, 70, 60
2, 2488, Note_on_c, 0, 70, 0
2, 2488, Note_on_c, 0, 71, 57
2, 2492, Note_on_c, 0, 71, 0
2, 2492, Note_on_c, 0, 73, 62
2, 2496, Note_on_c, 0, 73, 0
2, 2496, Note_on_c, 0, 71, 68
2, 2544, Note_on_c, 0, 71, 0
2, 2544, Note_on_c, 0, 70, 65
2, 2616, Note_on_c, 0, 70, 0
2, 2616, Note_on_c, 0, 71, 70
2, 2640, Note_on_c, 0, 71, 0
2, 2640, Note_on_c, 0, 73, 75
2, 2664, Note_on_c, 0, 73, 0
2, 2664, Note_on_c, 0, 74, 72
2, 2688, Note_on_c, 0, 74, 0
2, 2688, Note_on_c, 0, 75, 73
2, 2760, Note_on_c, 0, 75, 0
2, 2760, Note_on_c, 0, 73, 68
2, 2782, Note_on_c, 0, 73, 0
2, 2784, Note_on_c, 0, 70, 66
2, 2808, Note_on_c, 0, 70, 0
2, 2808, Note_on_c, 0, 71, 69
2, 2832, Note_on_c, 0, 71, 0
2, 2832, Note_on_c, 0, 61, 74
2, 2854, Note_on_c, 0, 61, 0
2, 2868, Note_on_c, 0, 80, 68
2, 2880, Note_on_c, 0, 80, 0
2, 2880, Note_on_c, 0, 80, 70
2, 2928, Note_on_c, 0, 80, 0
2, 2928, Note_on_c, 0, 66, 62
2, 3000, Note_on_c, 0, 66, 0
2, 3000, Note_on_c, 0, 71, 56
2, 3024, Note_on_c, 0, 71, 0
2, 3024, Note_on_c, 0, 75, 52
2, 3060, Note_on_c, 0, 75, 0
2, 3060, Note_on_c, 0, 73, 46
2, 3072, Note_on_c, 0, 73, 0
2, 3072, Note_on_c, 0, 70, 44
2, 3168, Note_on_c, 0, 70, 0
2, 3168, Note_on_c, 0, 71, 40
2, 3214, Note_on_c, 0, 71, 0
2, 3264, Note_on_c, 0, 68, 40
2, 3336, Note_on_c, 0, 68, 0
2, 3336, Note_on_c, 0, 69, 38
2, 3360, Note_on_c, 0, 69, 0
2, 3360, Note_on_c, 0, 71, 40
2, 3384, Note_on_c, 0, 71, 0
2, 3384, Note_on_c, 0, 73, 44
2, 3408, Note_on_c, 0, 73, 0
2, 3408, Note_on_c, 0, 76, 49
2, 3432, Note_on_c, 0, 76, 0
2, 3432, Note_on_c, 0, 74, 47
2, 3456, Note_on_c, 0, 74, 0
2, 3456, Note_on_c, 0, 65, 42
2, 3552, Note_on_c, 0, 65, 0
2, 3552, Note_on_c, 0, 66, 43
2, 3598, Note_on_c, 0, 66, 0
2, 3648, Note_on_c, 0, 70, 62
2, 3720, Note_on_c, 0, 70, 0
2, 3720, Note_on_c, 0, 71, 66
2, 3744, Note_on_c, 0, 71, 0
2, 3744, Note_on_c, 0, 73, 72
2, 3768, Note_on_c, 0, 73, 0
2, 3768, Note_on_c, 0, 75, 72
2, 3792, Note_on_c, 0, 75, 0
2, 3792, Note_on_c, 0, 78, 78
2, 3816, Note_on_c, 0, 78, 0
2, 3816, Note_on_c, 0, 76, 74
2, 3840, Note_on_c, 0, 76, 0
2, 3840, Note_on_c, 0, 67, 62
2, 3936, Note_on_c, 0, 67, 0
2, 3936, Note_on_c, 0, 68, 62
2, 3960, Note_on_c, 0, 68, 0
2, 3960, Note_on_c, 0, 69, 66
2, 3984, Note_on_c, 0, 69, 0
2, 3984, Note_on_c, 0, 73, 72
2, 4008, Note_on_c, 0, 73, 0
2, 4008, Note_on_c, 0, 71, 70
2, 4032, Note_on_c, 0, 71, 0
2, 4032, Note_on_c, 0, 65, 70
2, 4126, Note_on_c, 0, 65, 0
2, 4128, Note_on_c, 0, 66, 74
2, 4152, Note_on_c, 0, 66, 0
2, 4152, Note_on_c, 0, 67, 74
2, 4176, Note_on_c, 0, 67, 0
2, 4176, Note_on_c, 0, 71, 79
2, 4200, Note_on_c, 0, 71, 0
2, 4200, Note_on_c, 0, 69, 77
2, 4224, Note_on_c, 0, 69, 0
2, 4224, Note_on_c, 0, 69, 82
2, 4272, Note_on_c, 0, 69, 0
2, 4272, Note_on_c, 0, 67, 82
2, 4290, Note_on_c, 0, 67, 0
2, 4290, Note_on_c, 0, 66, 78
2, 4296, Note_on_c, 0, 66, 0
2, 4296, Note_on_c, 0, 64, 80
2, 4308, Note_on_c, 0, 64, 0
2, 4308, Note_on_c, 0, 63, 84
2, 4320, Note_on_c, 0, 63, 0
2, 4320, Note_on_c, 0, 63, 86
2, 4414, Note_on_c, 0, 63, 0
2, 4416, Note_on_c, 0, 64, 78
2, 4424, Note_on_c, 0, 64, 0
2, 4424, Note_on_c, 0, 79, 100
2, 4472, Note_on_c, 0, 79, 0
2, 4472, Note_on_c, 0, 76, 84
2, 4480, Note_on_c, 0, 76, 0
2, 4480, Note_on_c, 0, 72, 74
2, 4488, Note_on_c, 0, 72, 0
2, 4488, Note_on_c, 0, 67, 70
2, 4496, Note_on_c, 0, 67, 0
2, 4496, Note_on_c, 0, 64, 68
2, 4504, Note_on_c, 0, 64, 0
2, 4504, Note_on_c, 0, 60, 74
2, 4510, Note_on_c, 0, 60, 0
2, 4512, Note_on_c, 0, 55, 68
2, 4516, Note_on_c, 0, 57, 64
2, 4517, Note_on_c, 0, 55, 0
2, 4520, Note_on_c, 0, 55, 62
2, 4521, Note_on_c, 0, 57, 0
2, 4524, Note_on_c, 0, 57, 59
2, 4525, Note_on_c, 0, 55, 0
2, 4528, Note_on_c, 0, 55, 60
2, 4529, Note_on_c, 0, 57, 0
2, 4532, Note_on_c, 0, 57, 58
2, 4533, Note_on_c, 0, 55, 0
2, 4536, Note_on_c, 0, 55, 60
2, 4537, Note_on_c, 0, 57, 0
2, 4540, Note_on_c, 0, 57, 58
2, 4541, Note_on_c, 0, 55, 0
2, 4544, Note_on_c, 0, 55, 60
2, 4545, Note_on_c, 0, 57, 0
2, 4548, Note_on_c, 0, 54, 68
2, 4549, Note_on_c, 0, 55, 0
2, 4554, Note_on_c, 0, 54, 0
2, 4554, Note_on_c, 0, 52, 68
2, 4560, Note_on_c, 0, 52, 0
2, 4560, Note_on_c, 0, 67, 64
2, 4572, Note_on_c, 0, 67, 0
2, 4596, Note_on_c, 0, 58, 60
2, 4608, Note_on_c, 0, 58, 0
2, 4608, Note_on_c, 0, 59, 54
2, 4702, Note_on_c, 0, 59, 0
2, 4704, Note_on_c, 0, 61, 45
2, 4728, Note_on_c, 0, 61, 0
2, 4728, Note_on_c, 0, 63, 52
2, 4752, Note_on_c, 0, 63, 0
2, 4752, Note_on_c, 0, 64, 48
2, 4788, Note_on_c, 0, 64, 0
2, 4788, Note_on_c, 0, 66, 44
2, 4800, Note_on_c, 0, 66, 0
2, 4800, Note_on_c, 0, 68, 42
2, 4872, Note_on_c, 0, 68, 0
2, 4872, Note_on_c, 0, 69, 41
2, 4894, Note_on_c, 0, 69, 0
2, 4896, Note_on_c, 0, 71, 38
2, 4902, Note_on_c, 0, 71, 0
2, 4902, Note_on_c, 0, 76, 44
2, 4908, Note_on_c, 0, 76, 0
2, 4908, Note_on_c, 0, 78, 46
2, 4914, Note_on_c, 0, 78, 0
2, 4914, Note_on_c, 0, 80, 48
2, 4920, Note_on_c, 0, 80, 0
2, 4920, Note_on_c, 0, 83, 48
2, 4926, Note_on_c, 0, 83, 0
2, 4926, Note_on_c, 0, 88, 48
2, 4932, Note_on_c, 0, 88, 0
2, 4932, Note_on_c, 0, 90, 49
2, 4938, Note_on_c, 0, 90, 0
2, 4938, Note_on_c, 0, 92, 50
2, 4944, Note_on_c, 0, 92, 0
2, 4944, Note_on_c, 0, 90, 49
2, 4950, Note_on_c, 0, 90, 0
2, 4950, Note_on_c, 0, 88, 48
2, 4956, Note_on_c, 0, 88, 0
2, 4956, Note_on_c, 0, 83, 46
2, 4962, Note_on_c, 0, 83, 0
2, 4962, Note_on_c, 0, 80, 45
2, 4968, Note_on_c, 0, 80, 0
2, 4968, Note_on_c, 0, 78, 44
2, 4974, Note_on_c, 0, 78, 0
2, 4974, Note_on_c, 0, 76, 45
2, 4980, Note_on_c, 0, 76, 0
2, 4980, Note_on_c, 0, 71, 47
2, 4986, Note_on_c, 0, 71, 0
2, 4986, Note_on_c, 0, 73, 45
2, 4992, Note_on_c, 0, 73, 0
2, 4992, Note_on_c, 0, 68, 49
2, 4998, Note_on_c, 0, 68, 0
2, 4998, Note_on_c, 0, 73, 46
2, 5004, Note_on_c, 0, 73, 0
2, 5004, Note_on_c, 0, 71, 48
2, 5100, Note_on_c, 0, 71, 0
2, 5100, Note_on_c, 0, 66, 47
2, 5172, Note_on_c, 0, 66, 0
2, 5172, Note_on_c, 0, 67, 40
2, 5196, Note_on_c, 0, 67, 0
2, 5196, Note_on_c, 0, 64, 38
2, 5268, Note_on_c, 0, 64, 0
2, 5268, Note_on_c, 0, 65, 38
2, 5292, Note_on_c, 0, 65, 0
2, 5292, Note_on_c, 0, 67, 42
2, 5316, Note_on_c, 0, 67, 0
2, 5316, Note_on_c, 0, 71, 50
2, 5340, Note_on_c, 0, 71, 0
2, 5340, Note_on_c, 0, 72, 52
2, 5364, Note_on_c, 0, 72, 0
2, 5364, Note_on_c, 0, 69, 46
2, 5388, Note_on_c, 0, 69, 0
2, 5388, Note_on_c, 0, 67, 48
2, 5484, Note_on_c, 0, 67, 0
2, 5484, Note_on_c, 0, 62, 47
2, 5556, Note_on_c, 0, 62, 0
2, 5556, Note_on_c, 0, 64, 54
2, 5580, Note_on_c, 0, 64, 0
2, 5580, Note_on_c, 0, 61, 56
2, 5700, Note_on_c, 0, 61, 0
2, 5700, Note_on_c, 0, 63, 60
2, 5724, Note_on_c, 0, 63, 0
2, 5724, Note_on_c, 0, 64, 64
2, 5748, Note_on_c, 0, 64, 0
2, 5748, Note_on_c, 0, 65, 65
2, 5772, Note_on_c, 0, 65, 0
2, 5772, Note_on_c, 0, 66, 66
2, 5818, Note_on_c, 0, 66, 0
2, 5820, Note_on_c, 0, 59, 72
2, 5868, Note_on_c, 0, 59, 0
2, 5868, Note_on_c, 0, 68, 72
2, 5965, Note_on_c, 0, 68, 0
2, 5976, Note_on_c, 0, 61, 65
2, 5988, Note_on_c, 0, 61, 0
2, 5988, Note_on_c, 0, 68, 72
2, 5996, Note_on_c, 0, 68, 0
2, 5996, Note_on_c, 0, 66, 70
2, 6004, Note_on_c, 0, 66, 0
2, 6004, Note_on_c, 0, 73, 74
2, 6012, Note_on_c, 0, 73, 0
2, 6012, Note_on_c, 0, 80, 78
2, 6016, Note_on_c, 0, 80, 0
2, 6016, Note_on_c, 0, 78, 76
2, 6020, Note_on_c, 0, 78, 0
2, 6020, Note_on_c, 0, 85, 74
2, 6024, Note_on_c, 0, 85, 0
2, 6024, Note_on_c, 0, 92, 72
2, 6028, Note_on_c, 0, 92, 0
2, 6028, Note_on_c, 0, 90, 66
2, 6032, Note_on_c, 0, 90, 0
2, 6032, Note_on_c, 0, 85, 65
2, 6036, Note_on_c, 0, 85, 0
2, 6036, Note_on_c, 0, 81, 64
2, 6040, Note_on_c, 0, 81, 0
2, 6040, Note_on_c, 0, 78, 63
2, 6044, Note_on_c, 0, 78, 0
2, 6044, Note_on_c, 0, 73, 62
2, 6048, Note_on_c, 0, 73, 0
2, 6048, Note_on_c, 0, 69, 58
2, 6052, Note_on_c, 0, 69, 0
2, 6052, Note_on_c, 0, 68, 54
2, 6060, Note_on_c, 0, 68, 0
2, 6060, Note_on_c, 0, 66, 58
2, 6064, Note_on_c, 0, 68, 52
2, 6065, Note_on_c, 0, 66, 0
2, 6068, Note_on_c, 0, 66, 51
2, 6069, Note_on_c, 0, 68, 0
2, 6072, Note_on_c, 0, 68, 49
2, 6073, Note_on_c, 0, 66, 0
2, 6076, Note_on_c, 0, 66, 50
2, 6077, Note_on_c, 0, 68, 0
2, 6080, Note_on_c, 0, 68, 48
2, 6081, Note_on_c, 0, 66, 0
2, 6084, Note_on_c, 0, 66, 50
2, 6085, Note_on_c, 0, 68, 0
2, 6088, Note_on_c, 0, 68, 48
2, 6089, Note_on_c, 0, 66, 0
2, 6092, Note_on_c, 0, 66, 50
2, 6093, Note_on_c, 0, 68, 0
2, 6096, Note_on_c, 0, 65, 54
2, 6097, Note_on_c, 0, 66, 0
2, 6102, Note_on_c, 0, 65, 0
2, 6102, Note_on_c, 0, 66, 52
2, 6108, Note_on_c, 0, 66, 0
2, 6108, Note_on_c, 0, 68, 48
2, 6130, Note_on_c, 0, 68, 0
2, 6144, Note_on_c, 0, 59, 46
2, 6156, Note_on_c, 0, 59, 0
2, 6156, Note_on_c, 0, 56, 36
2, 6156, Note_on_c, 0, 64, 42
2, 6202, Note_on_c, 0, 64, 0
2, 6202, Note_on_c, 0, 56, 0
2, 6300, Note_on_c, 0, 64, 51
2, 6336, Note_on_c, 0, 64, 0
2, 6336, Note_on_c, 0, 66, 52
2, 6348, Note_on_c, 0, 66, 0
2, 6348, Note_on_c, 0, 56, 42
2, 6348, Note_on_c, 0, 64, 40
2, 6348, Note_on_c, 0, 68, 54
2, 6490, Note_on_c, 0, 68, 0
2, 6490, Note_on_c, 0, 64, 0
2, 6490, Note_on_c, 0, 56, 0
2, 6492, Note_on_c, 0, 61, 46
2, 6492, Note_on_c, 0, 64, 55
2, 6516, Note_on_c, 0, 64, 0
2, 6516, Note_on_c, 0, 66, 56
2, 6528, Note_on_c, 0, 66, 0
2, 6528, Note_on_c, 0, 68, 56
2, 6538, Note_on_c, 0, 61, 0
2, 6540, Note_on_c, 0, 68, 0
2, 6540, Note_on_c, 0, 58, 44
2, 6540, Note_on_c, 0, 64, 42
2, 6540, Note_on_c, 0, 68, 54
2, 6636, Note_on_c, 0, 68, 0
2, 6636, Note_on_c, 0, 64, 0
2, 6636, Note_on_c, 0, 63, 44
2, 6636, Note_on_c, 0, 66, 52
2, 6684, Note_on_c, 0, 66, 0
2, 6684, Note_on_c, 0, 63, 0
2, 6684, Note_on_c, 0, 61, 36
2, 6684, Note_on_c, 0, 64, 48
2, 6730, Note_on_c, 0, 64, 0
2, 6730, Note_on_c, 0, 61, 0
2, 6730, Note_on_c, 0, 58, 0
2, 6732, Note_on_c, 0, 66, 46
2, 6732, Note_on_c, 0, 73, 60
2, 6780, Note_on_c, 0, 73, 0
2, 6780, Note_on_c, 0, 71, 52
2, 6826, Note_on_c, 0, 66, 0
2, 6828, Note_on_c, 0, 71, 0
2, 6828, Note_on_c, 0, 64, 51
2, 6876, Note_on_c, 0, 64, 0
2, 6876, Note_on_c, 0, 63, 42
2, 6876, Note_on_c, 0, 66, 50
2, 6900, Note_on_c, 0, 66, 0
2, 6900, Note_on_c, 0, 68, 46
2, 6912, Note_on_c, 0, 68, 0
2, 6912, Note_on_c, 0, 69, 44
2, 6922, Note_on_c, 0, 63, 0
2, 6924, Note_on_c, 0, 69, 0
2, 6924, Note_on_c, 0, 61, 34
2, 6924, Note_on_c, 0, 64, 32
2, 6924, Note_on_c, 0, 69, 44
2, 6948, Note_on_c, 0, 69, 0
2, 6948, Note_on_c, 0, 61, 0
2, 6948, Note_on_c, 0, 59, 28
2, 6948, Note_on_c, 0, 68, 38
2, 6970, Note_on_c, 0, 68, 0
2, 6970, Note_on_c, 0, 59, 0
2, 6970, Note_on_c, 0, 64, 0
2, 7044, Note_on_c, 0, 64, 62
2, 7068, Note_on_c, 0, 68, 56
2, 7068, Note_on_c, 0, 76, 78
2, 7104, Note_on_c, 0, 76, 0
2, 7104, Note_on_c, 0, 76, 80
2, 7114, Note_on_c, 0, 68, 0
2, 7114, Note_on_c, 0, 64, 0
2, 7116, Note_on_c, 0, 76, 0
2, 7116, Note_on_c, 0, 64, 58
2, 7116, Note_on_c, 0, 68, 56
2, 7116, Note_on_c, 0, 76, 78
2, 7162, Note_on_c, 0, 68, 0
2, 7162, Note_on_c, 0, 64, 0
2, 7164, Note_on_c, 0, 76, 0
2, 7164, Note_on_c, 0, 78, 70
2, 7176, Note_on_c, 0, 78, 0
2, 7176, Note_on_c, 0, 76, 68
2, 7188, Note_on_c, 0, 76, 0
2, 7188, Note_on_c, 0, 73, 61
2, 7200, Note_on_c, 0, 73, 0
2, 7200, Note_on_c, 0, 68, 61
2, 7212, Note_on_c, 0, 68, 0
2, 7212, Note_on_c, 0, 61, 50
2, 7212, Note_on_c, 0, 68, 62
2, 7236, Note_on_c, 0, 68, 0
2, 7236, Note_on_c, 0, 66, 58
2, 7248, Note_on_c, 0, 66, 0
2, 7248, Note_on_c, 0, 64, 60
2, 7258, Note_on_c, 0, 61, 0
2, 7260, Note_on_c, 0, 64, 0
2, 7260, Note_on_c, 0, 61, 54
2, 7260, Note_on_c, 0, 63, 58
2, 7272, Note_on_c, 0, 63, 0
2, 7272, Note_on_c, 0, 64, 60
2, 7284, Note_on_c, 0, 64, 0
2, 7284, Note_on_c, 0, 66, 72
2, 7294, Note_on_c, 0, 61, 0
2, 7296, Note_on_c, 0, 66, 0
2, 7296, Note_on_c, 0, 57, 64
2, 7296, Note_on_c, 0, 64, 60
2, 7296, Note_on_c, 0, 67, 74
2, 7306, Note_on_c, 0, 64, 0
2, 7306, Note_on_c, 0, 57, 0
2, 7308, Note_on_c, 0, 67, 0
2, 7308, Note_on_c, 0, 67, 52
2, 7312, Note_on_c, 0, 67, 0
2, 7312, Note_on_c, 0, 60, 58
2, 7316, Note_on_c, 0, 63, 60
2, 7320, Note_on_c, 0, 68, 68
2, 7332, Note_on_c, 0, 63, 0
2, 7332, Note_on_c, 0, 60, 0
2, 7344, Note_on_c, 0, 68, 0
2, 7380, Note_on_c, 0, 64, 66
2, 7392, Note_on_c, 0, 69, 77
2, 7402, Note_on_c, 0, 64, 0
2, 7404, Note_on_c, 0, 69, 0
2, 7404, Note_on_c, 0, 73, 68
2, 7404, Note_on_c, 0, 76, 78
2, 7416, Note_on_c, 0, 76, 0
2, 7416, Note_on_c, 0, 73, 0
2, 7416, Note_on_c, 0, 72, 70
2, 7416, Note_on_c, 0, 75, 78
2, 7440, Note_on_c, 0, 75, 0
2, 7440, Note_on_c, 0, 72, 0
2, 7440, Note_on_c, 0, 63, 52
2, 7440, Note_on_c, 0, 68, 62
2, 7462, Note_on_c, 0, 68, 0
2, 7462, Note_on_c, 0, 63, 0
2, 7476, Note_on_c, 0, 64, 80
2, 7488, Note_on_c, 0, 64, 0
2, 7488, Note_on_c, 0, 69, 82
2, 7500, Note_on_c, 0, 69, 0
2, 7500, Note_on_c, 0, 73, 74
2, 7500, Note_on_c, 0, 76, 84
2, 7512, Note_on_c, 0, 76, 0
2, 7512, Note_on_c, 0, 73, 0
2, 7512, Note_on_c, 0, 72, 72
2, 7512, Note_on_c, 0, 75, 84
2, 7534, Note_on_c, 0, 75, 0
2, 7534, Note_on_c, 0, 72, 0
2, 7536, Note_on_c, 0, 63, 72
2, 7560, Note_on_c, 0, 63, 0
2, 7560, Note_on_c, 0, 66, 78
2, 7572, Note_on_c, 0, 66, 0
2, 7572, Note_on_c, 0, 69, 80
2, 7584, Note_on_c, 0, 69, 0
2, 7584, Note_on_c, 0, 72, 76
2, 7602, Note_on_c, 0, 72, 0
2, 7602, Note_on_c, 0, 81, 86
2, 7608, Note_on_c, 0, 81, 0
2, 7608, Note_on_c, 0, 81, 84
2, 7620, Note_on_c, 0, 81, 0
2, 7620, Note_on_c, 0, 75, 79
2, 7632, Note_on_c, 0, 75, 0
2, 7632, Note_on_c, 0, 78, 78
2, 7644, Note_on_c, 0, 78, 0
2, 7644, Note_on_c, 0, 69, 72
2, 7656, Note_on_c, 0, 69, 0
2, 7656, Note_on_c, 0, 75, 73
2, 7668, Note_on_c, 0, 75, 0
2, 7668, Note_on_c, 0, 66, 68
2, 7680, Note_on_c, 0, 66, 0
2, 7680, Note_on_c, 0, 69, 72
2, 7692, Note_on_c, 0, 69, 0
2, 7692, Note_on_c, 0, 61, 76
2, 7702, Note_on_c, 0, 61, 0
2, 7704, Note_on_c, 0, 64, 66
2, 7716, Note_on_c, 0, 54, 46
2, 7716, Note_on_c, 0, 57, 46
2, 7728, Note_on_c, 0, 63, 70
2, 7738, Note_on_c, 0, 57, 0
2, 7738, Note_on_c, 0, 54, 0
2, 7740, Note_on_c, 0, 63, 0
2, 7740, Note_on_c, 0, 54, 52
2, 7740, Note_on_c, 0, 57, 52
2, 7740, Note_on_c, 0, 61, 69
2, 7752, Note_on_c, 0, 61, 0
2, 7752, Note_on_c, 0, 64, 0
2, 7752, Note_on_c, 0, 60, 68
2, 7762, Note_on_c, 0, 57, 0
2, 7762, Note_on_c, 0, 54, 0
2, 7764, Note_on_c, 0, 54, 55
2, 7764, Note_on_c, 0, 57, 55
2, 7776, Note_on_c, 0, 60, 0
2, 7776, Note_on_c, 0, 61, 71
2, 7786, Note_on_c, 0, 57, 0
2, 7786, Note_on_c, 0, 54, 0
2, 7788, Note_on_c, 0, 61, 0
2, 7788, Note_on_c, 0, 54, 52
2, 7788, Note_on_c, 0, 57, 52
2, 7788, Note_on_c, 0, 63, 73
2, 7798, Note_on_c, 0, 63, 0
2, 7798, Note_on_c, 0, 57, 0
2, 7800, Note_on_c, 0, 63, 68
2, 7810, Note_on_c, 0, 54, 0
2, 7812, Note_on_c, 0, 54, 58
2, 7822, Note_on_c, 0, 63, 0
2, 7824, Note_on_c, 0, 55, 64
2, 7834, Note_on_c, 0, 54, 0
2, 7836, Note_on_c, 0, 55, 0
2, 7836, Note_on_c, 0, 54, 56
2, 7836, Note_on_c, 0, 56, 66
2, 7848, Note_on_c, 0, 56, 0
2, 7848, Note_on_c, 0, 58, 68
2, 7858, Note_on_c, 0, 54, 0
2, 7860, Note_on_c, 0, 58, 0
2, 7860, Note_on_c, 0, 54, 60
2, 7860, Note_on_c, 0, 60, 74
2, 7872, Note_on_c, 0, 60, 0
2, 7872, Note_on_c, 0, 61, 76
2, 7882, Note_on_c, 0, 54, 0
2, 7884, Note_on_c, 0, 61, 0
2, 7884, Note_on_c, 0, 54, 58
2, 7884, Note_on_c, 0, 60, 58
2, 7884, Note_on_c, 0, 63, 72
2, 7896, Note_on_c, 0, 63, 0
2, 7896, Note_on_c, 0, 64, 71
2, 7906, Note_on_c, 0, 60, 0
2, 7906, Note_on_c, 0, 54, 0
2, 7908, Note_on_c, 0, 52, 54
2, 7908, Note_on_c, 0, 61, 54
2, 7918, Note_on_c, 0, 64, 0
2, 7920, Note_on_c, 0, 63, 74
2, 7930, Note_on_c, 0, 61, 0
2, 7930, Note_on_c, 0, 52, 0
2, 7932, Note_on_c, 0, 63, 0
2, 7932, Note_on_c, 0, 56, 54
2, 7932, Note_on_c, 0, 61, 54
2, 7932, Note_on_c, 0, 64, 73
2, 7942, Note_on_c, 0, 61, 0
2, 7942, Note_on_c, 0, 56, 0
2, 7944, Note_on_c, 0, 64, 0
2, 7944, Note_on_c, 0, 66, 74
2, 7956, Note_on_c, 0, 66, 0
2, 7956, Note_on_c, 0, 57, 60
2, 7956, Note_on_c, 0, 61, 60
2, 7956, Note_on_c, 0, 68, 75
2, 7968, Note_on_c, 0, 68, 0
2, 7968, Note_on_c, 0, 64, 74
2, 7978, Note_on_c, 0, 61, 0
2, 7978, Note_on_c, 0, 57, 0
2, 7980, Note_on_c, 0, 64, 0
2, 7980, Note_on_c, 0, 57, 58
2, 7980, Note_on_c, 0, 61, 58
2, 7980, Note_on_c, 0, 66, 72
2, 7992, Note_on_c, 0, 66, 0
2, 7992, Note_on_c, 0, 68, 70
2, 8002, Note_on_c, 0, 61, 0
2, 8002, Note_on_c, 0, 57, 0
2, 8004, Note_on_c, 0, 56, 70
2, 8004, Note_on_c, 0, 61, 55
2, 8004, Note_on_c, 0, 64, 50
2, 8026, Note_on_c, 0, 64, 0
2, 8026, Note_on_c, 0, 61, 0
2, 8026, Note_on_c, 0, 56, 0
2, 8028, Note_on_c, 0, 56, 48
2, 8028, Note_on_c, 0, 61, 48
2, 8028, Note_on_c, 0, 64, 48
2, 8038, Note_on_c, 0, 64, 0
2, 8038, Note_on_c, 0, 61, 0
2, 8038, Note_on_c, 0, 56, 0
2, 8040, Note_on_c, 0, 68, 0
2, 8040, Note_on_c, 0, 71, 68
2, 8052, Note_on_c, 0, 57, 40
2, 8052, Note_on_c, 0, 59, 40
2, 8052, Note_on_c, 0, 66, 40
2, 8074, Note_on_c, 0, 66, 0
2, 8074, Note_on_c, 0, 59, 0
2, 8074, Note_on_c, 0, 57, 0
2, 8076, Note_on_c, 0, 57, 38
2, 8076, Note_on_c, 0, 59, 38
2, 8076, Note_on_c, 0, 63, 38
2, 8076, Note_on_c, 0, 66, 38
2, 8086, Note_on_c, 0, 66, 0
2, 8088, Note_on_c, 0, 71, 0
2, 8088, Note_on_c, 0, 68, 64
2, 8098, Note_on_c, 0, 63, 0
2, 8098, Note_on_c, 0, 59, 0
2, 8098, Note_on_c, 0, 57, 0
2, 8100, Note_on_c, 0, 57, 44
2, 8100, Note_on_c, 0, 59, 44
2, 8112, Note_on_c, 0, 66, 72
2, 8122, Note_on_c, 0, 59, 0
2, 8122, Note_on_c, 0, 57, 0
2, 8124, Note_on_c, 0, 66, 0
2, 8124, Note_on_c, 0, 57, 45
2, 8124, Note_on_c, 0, 59, 45
2, 8124, Note_on_c, 0, 64, 68
2, 8136, Note_on_c, 0, 64, 0
2, 8136, Note_on_c, 0, 68, 0
2, 8136, Note_on_c, 0, 63, 74
2, 8146, Note_on_c, 0, 59, 0
2, 8146, Note_on_c, 0, 57, 0
2, 8148, Note_on_c, 0, 57, 44
2, 8148, Note_on_c, 0, 59, 44
2, 8160, Note_on_c, 0, 63, 0
2, 8160, Note_on_c, 0, 64, 66
2, 8170, Note_on_c, 0, 59, 0
2, 8170, Note_on_c, 0, 57, 0
2, 8172, Note_on_c, 0, 64, 0
2, 8172, Note_on_c, 0, 57, 44
2, 8172, Note_on_c, 0, 59, 44
2, 8172, Note_on_c, 0, 66, 64
2, 8182, Note_on_c, 0, 66, 0
2, 8182, Note_on_c, 0, 59, 0
2, 8184, Note_on_c, 0, 66, 74
2, 8194, Note_on_c, 0, 57, 0
2, 8196, Note_on_c, 0, 66, 0
2, 8196, Note_on_c, 0, 57, 46
2, 8196, Note_on_c, 0, 59, 64
2, 8208, Note_on_c, 0, 59, 0
2, 8208, Note_on_c, 0, 61, 72
2, 8218, Note_on_c, 0, 57, 0
2, 8220, Note_on_c, 0, 61, 0
2, 8220, Note_on_c, 0, 57, 50
2, 8220, Note_on_c, 0, 59, 70
2, 8232, Note_on_c, 0, 59, 0
2, 8232, Note_on_c, 0, 61, 78
2, 8242, Note_on_c, 0, 57, 0
2, 8244, Note_on_c, 0, 61, 0
2, 8244, Note_on_c, 0, 59, 53
2, 8244, Note_on_c, 0, 57, 53
2, 8244, Note_on_c, 0, 63, 79
2, 8256, Note_on_c, 0, 63, 0
2, 8256, Note_on_c, 0, 64, 76
2, 8266, Note_on_c, 0, 57, 0
2, 8266, Note_on_c, 0, 59, 0
2, 8268, Note_on_c, 0, 64, 0
2, 8268, Note_on_c, 0, 57, 54
2, 8268, Note_on_c, 0, 59, 54
2, 8268, Note_on_c, 0, 63, 54
2, 8268, Note_on_c, 0, 66, 74
2, 8278, Note_on_c, 0, 63, 0
2, 8278, Note_on_c, 0, 59, 0
2, 8278, Note_on_c, 0, 57, 0
2, 8280, Note_on_c, 0, 66, 0
2, 8280, Note_on_c, 0, 68, 76
2, 8292, Note_on_c, 0, 56, 48
2, 8292, Note_on_c, 0, 62, 48
2, 8302, Note_on_c, 0, 68, 0
2, 8304, Note_on_c, 0, 67, 74
2, 8314, Note_on_c, 0, 62, 0
2, 8314, Note_on_c, 0, 56, 0
2, 8316, Note_on_c, 0, 67, 0
2, 8316, Note_on_c, 0, 56, 50
2, 8316, Note_on_c, 0, 62, 50
2, 8316, Note_on_c, 0, 68, 76
2, 8326, Note_on_c, 0, 62, 0
2, 8326, Note_on_c, 0, 56, 0
2, 8328, Note_on_c, 0, 68, 0
2, 8328, Note_on_c, 0, 70, 77
2, 8340, Note_on_c, 0, 70, 0
2, 8340, Note_on_c, 0, 61, 49
2, 8340, Note_on_c, 0, 63, 49
2, 8340, Note_on_c, 0, 71, 78
2, 8352, Note_on_c, 0, 71, 0
2, 8352, Note_on_c, 0, 68, 75
2, 8362, Note_on_c, 0, 63, 0
2, 8362, Note_on_c, 0, 61, 0
2, 8364, Note_on_c, 0, 68, 0
2, 8364, Note_on_c, 0, 61, 48
2, 8364, Note_on_c, 0, 63, 48
2, 8364, Note_on_c, 0, 70, 76
2, 8376, Note_on_c, 0, 70, 0
2, 8376, Note_on_c, 0, 71, 77
2, 8386, Note_on_c, 0, 63, 0
2, 8386, Note_on_c, 0, 61, 0
2, 8388, Note_on_c, 0, 63, 52
2, 8388, Note_on_c, 0, 68, 52
2, 8410, Note_on_c, 0, 68, 0
2, 8410, Note_on_c, 0, 63, 0
2, 8412, Note_on_c, 0, 59, 51
2, 8412, Note_on_c, 0, 68, 51
2, 8422, Note_on_c, 0, 68, 0
2, 8422, Note_on_c, 0, 59, 0
2, 8424, Note_on_c, 0, 71, 0
2, 8424, Note_on_c, 0, 75, 80
2, 8436, Note_on_c, 0, 61, 46
2, 8436, Note_on_c, 0, 70, 46
2, 8458, Note_on_c, 0, 70, 0
2, 8458, Note_on_c, 0, 61, 0
2, 8460, Note_on_c, 0, 61, 42
2, 8460, Note_on_c, 0, 67, 42
2, 8460, Note_on_c, 0, 70, 42
2, 8470, Note_on_c, 0, 70, 0
2, 8470, Note_on_c, 0, 67, 0
2, 8470, Note_on_c, 0, 61, 0
2, 8472, Note_on_c, 0, 75, 0
2, 8472, Note_on_c, 0, 71, 72
2, 8484, Note_on_c, 0, 59, 43
2, 8484, Note_on_c, 0, 63, 43
2, 8496, Note_on_c, 0, 71, 0
2, 8496, Note_on_c, 0, 70, 68
2, 8506, Note_on_c, 0, 63, 0
2, 8506, Note_on_c, 0, 59, 0
2, 8508, Note_on_c, 0, 70, 0
2, 8508, Note_on_c, 0, 59, 43
2, 8508, Note_on_c, 0, 63, 43
2, 8508, Note_on_c, 0, 68, 64
2, 8518, Note_on_c, 0, 63, 0
2, 8518, Note_on_c, 0, 59, 0
2, 8520, Note_on_c, 0, 68, 0
2, 8520, Note_on_c, 0, 70, 66
2, 8532, Note_on_c, 0, 61, 45
2, 8532, Note_on_c, 0, 63, 45
2, 8544, Note_on_c, 0, 70, 0
2, 8544, Note_on_c, 0, 71, 73
2, 8554, Note_on_c, 0, 63, 0
2, 8554, Note_on_c, 0, 61, 0
2, 8556, Note_on_c, 0, 71, 0
2, 8556, Note_on_c, 0, 61, 46
2, 8556, Note_on_c, 0, 63, 46
2, 8556, Note_on_c, 0, 67, 70
2, 8566, Note_on_c, 0, 63, 0
2, 8566, Note_on_c, 0, 61, 0
2, 8568, Note_on_c, 0, 67, 0
2, 8568, Note_on_c, 0, 68, 65
2, 8580, Note_on_c, 0, 59, 44
2, 8580, Note_on_c, 0, 63, 44
2, 8602, Note_on_c, 0, 63, 0
2, 8602, Note_on_c, 0, 59, 0
2, 8604, Note_on_c, 0, 59, 43
2, 8604, Note_on_c, 0, 63, 43
2, 8614, Note_on_c, 0, 63, 0
2, 8614, Note_on_c, 0, 59, 0
2, 8616, Note_on_c, 0, 68, 0
2, 8616, Note_on_c, 0, 70, 63
2, 8628, Note_on_c, 0, 61, 42
2, 8628, Note_on_c, 0, 63, 42
2, 8628, Note_on_c, 0, 67, 42
2, 8650, Note_on_c, 0, 67, 0
2, 8650, Note_on_c, 0, 63, 0
2, 8650, Note_on_c, 0, 61, 0
2, 8652, Note_on_c, 0, 61, 39
2, 8652, Note_on_c, 0, 63, 39
2, 8662, Note_on_c, 0, 63, 0
2, 8662, Note_on_c, 0, 61, 0
2, 8664, Note_on_c, 0, 70, 0
2, 8664, Note_on_c, 0, 71, 66
2, 8676, Note_on_c, 0, 59, 44
2, 8676, Note_on_c, 0, 63, 44
2, 8688, Note_on_c, 0, 71, 0
2, 8688, Note_on_c, 0, 70, 71
2, 8698, Note_on_c, 0, 63, 0
2, 8698, Note_on_c, 0, 59, 0
2, 8700, Note_on_c, 0, 70, 0
2, 8700, Note_on_c, 0, 59, 40
2, 8700, Note_on_c, 0, 63, 40
2, 8700, Note_on_c, 0, 68, 64
2, 8710, Note_on_c, 0, 63, 0
2, 8710, Note_on_c, 0, 59, 0
2, 8712, Note_on_c, 0, 68, 0
2, 8712, Note_on_c, 0, 70, 64
2, 8724, Note_on_c, 0, 70, 0
2, 8724, Note_on_c, 0, 61, 43
2, 8724, Note_on_c, 0, 63, 43
2, 8724, Note_on_c, 0, 73, 67
2, 8736, Note_on_c, 0, 73, 0
2, 8736, Note_on_c, 0, 71, 65
2, 8746, Note_on_c, 0, 63, 0
2, 8746, Note_on_c, 0, 61, 0
2, 8748, Note_on_c, 0, 71, 0
2, 8748, Note_on_c, 0, 61, 39
2, 8748, Note_on_c, 0, 63, 39
2, 8748, Note_on_c, 0, 67, 63
2, 8758, Note_on_c, 0, 63, 0
2, 8758, Note_on_c, 0, 61, 0
2, 8760, Note_on_c, 0, 67, 0
2, 8760, Note_on_c, 0, 68, 60
2, 8772, Note_on_c, 0, 59, 42
2, 8772, Note_on_c, 0, 63, 42
2, 8784, Note_on_c, 0, 68, 0
2, 8784, Note_on_c, 0, 71, 69
2, 8794, Note_on_c, 0, 63, 0
2, 8794, Note_on_c, 0, 59, 0
2, 8796, Note_on_c, 0, 71, 0
2, 8796, Note_on_c, 0, 61, 40
2, 8796, Note_on_c, 0, 63, 40
2, 8796, Note_on_c, 0, 67, 62
2, 8808, Note_on_c, 0, 67, 0
2, 8808, Note_on_c, 0, 68, 58
2, 8818, Note_on_c, 0, 63, 0
2, 8818, Note_on_c, 0, 61, 0
2, 8820, Note_on_c, 0, 59, 38
2, 8820, Note_on_c, 0, 63, 38
2, 8832, Note_on_c, 0, 68, 0
2, 8832, Note_on_c, 0, 71, 62
2, 8842, Note_on_c, 0, 63, 0
2, 8842, Note_on_c, 0, 59, 0
2, 8844, Note_on_c, 0, 71, 0
2, 8844, Note_on_c, 0, 61, 36
2, 8844, Note_on_c, 0, 63, 36
2, 8844, Note_on_c, 0, 67, 56
2, 8854, Note_on_c, 0, 63, 0
2, 8854, Note_on_c, 0, 61, 0
2, 8856, Note_on_c, 0, 67, 0
2, 8856, Note_on_c, 0, 68, 50
2, 8868, Note_on_c, 0, 59, 35
2, 8868, Note_on_c, 0, 63, 35
2, 8880, Note_on_c, 0, 68, 0
2, 8880, Note_on_c, 0, 69, 50
2, 8890, Note_on_c, 0, 63, 0
2, 8890, Note_on_c, 0, 59, 0
2, 8892, Note_on_c, 0, 69, 0
2, 8892, Note_on_c, 0, 59, 36
2, 8892, Note_on_c, 0, 61, 36
2, 8892, Note_on_c, 0, 65, 55
2, 8904, Note_on_c, 0, 65, 0
2, 8904, Note_on_c, 0, 66, 56
2, 8914, Note_on_c, 0, 61, 0
2, 8914, Note_on_c, 0, 59, 0
2, 8916, Note_on_c, 0, 57, 37
2, 8916, Note_on_c, 0, 61, 37
2, 8928, Note_on_c, 0, 66, 0
2, 8928, Note_on_c, 0, 69, 56
2, 8938, Note_on_c, 0, 61, 0
2, 8938, Note_on_c, 0, 57, 0
2, 8940, Note_on_c, 0, 69, 0
2, 8940, Note_on_c, 0, 59, 36
2, 8940, Note_on_c, 0, 61, 36
2, 8940, Note_on_c, 0, 65, 57
2, 8950, Note_on_c, 0, 61, 0
2, 8950, Note_on_c, 0, 59, 0
2, 8952, Note_on_c, 0, 65, 0
2, 8952, Note_on_c, 0, 66, 58
2, 8964, Note_on_c, 0, 57, 36
2, 8964, Note_on_c, 0, 61, 36
2, 8976, Note_on_c, 0, 66, 0
2, 8976, Note_on_c, 0, 69, 52
2, 8986, Note_on_c, 0, 61, 0
2, 8986, Note_on_c, 0, 57, 0
2, 8988, Note_on_c, 0, 69, 0
2, 8988, Note_on_c, 0, 59, 35
2, 8988, Note_on_c, 0, 61, 35
2, 8988, Note_on_c, 0, 65, 54
2, 9000, Note_on_c, 0, 65, 0
2, 9000, Note_on_c, 0, 66, 50
2, 9010, Note_on_c, 0, 61, 0
2, 9010, Note_on_c, 0, 59, 0
2, 9012, Note_on_c, 0, 57, 35
2, 9012, Note_on_c, 0, 61, 35
2, 9024, Note_on_c, 0, 66, 0
2, 9024, Note_on_c, 0, 67, 47
2, 9034, Note_on_c, 0, 61, 0
2, 9034, Note_on_c, 0, 57, 0
2, 9036, Note_on_c, 0, 67, 0
2, 9036, Note_on_c, 0, 57, 33
2, 9036, Note_on_c, 0, 63, 45
2, 9046, Note_on_c, 0, 57, 0
2, 9048, Note_on_c, 0, 63, 0
2, 9048, Note_on_c, 0, 55, 36
2, 9048, Note_on_c, 0, 60, 36
2, 9048, Note_on_c, 0, 64, 50
2, 9070, Note_on_c, 0, 64, 0
2, 9070, Note_on_c, 0, 60, 0
2, 9070, Note_on_c, 0, 55, 0
2, 9108, Note_on_c, 0, 57, 75
2, 9120, Note_on_c, 0, 60, 74
2, 9130, Note_on_c, 0, 57, 0
2, 9132, Note_on_c, 0, 60, 0
2, 9132, Note_on_c, 0, 63, 61
2, 9132, Note_on_c, 0, 66, 71
2, 9144, Note_on_c, 0, 66, 0
2, 9144, Note_on_c, 0, 63, 0
2, 9144, Note_on_c, 0, 64, 60
2, 9144, Note_on_c, 0, 67, 70
2, 9168, Note_on_c, 0, 67, 0
2, 9168, Note_on_c, 0, 64, 0
2, 9168, Note_on_c, 0, 55, 58
2, 9168, Note_on_c, 0, 60, 68
2, 9190, Note_on_c, 0, 60, 0
2, 9190, Note_on_c, 0, 55, 0
2, 9204, Note_on_c, 0, 57, 90
2, 9216, Note_on_c, 0, 60, 92
2, 9226, Note_on_c, 0, 57, 0
2, 9228, Note_on_c, 0, 60, 0
2, 9228, Note_on_c, 0, 63, 74
2, 9228, Note_on_c, 0, 66, 84
2, 9240, Note_on_c, 0, 66, 0
2, 9240, Note_on_c, 0, 63, 0
2, 9240, Note_on_c, 0, 64, 70
2, 9240, Note_on_c, 0, 67, 80
2, 9264, Note_on_c, 0, 67, 0
2, 9264, Note_on_c, 0, 64, 0
2, 9264, Note_on_c, 0, 55, 70
2, 9264, Note_on_c, 0, 60, 80
2, 9286, Note_on_c, 0, 60, 0
2, 9286, Note_on_c, 0, 55, 0
2, 9300, Note_on_c, 0, 64, 97
2, 9312, Note_on_c, 0, 64, 0
2, 9312, Note_on_c, 0, 67, 98
2, 9324, Note_on_c, 0, 67, 0
2, 9324, Note_on_c, 0, 76, 100
2, 9336, Note_on_c, 0, 76, 0
2, 9336, Note_on_c, 0, 75, 94
2, 9348, Note_on_c, 0, 75, 0
2, 9348, Note_on_c, 0, 74, 86
2, 9360, Note_on_c, 0, 74, 0
2, 9360, Note_on_c, 0, 73, 82
2, 9372, Note_on_c, 0, 73, 0
2, 9372, Note_on_c, 0, 72, 82
2, 9384, Note_on_c, 0, 72, 0
2, 9384, Note_on_c, 0, 71, 84
2, 9396, Note_on_c, 0, 71, 0
2, 9396, Note_on_c, 0, 62, 68
2, 9396, Note_on_c, 0, 67, 68
2, 9396, Note_on_c, 0, 70, 88
2, 9408, Note_on_c, 0, 70, 0
2, 9408, Note_on_c, 0, 67, 0
2, 9408, Note_on_c, 0, 62, 0
2, 9408, Note_on_c, 0, 69, 86
2, 9422, Note_on_c, 0, 69, 0
2, 9422, Note_on_c, 0, 60, 72
2, 9422, Note_on_c, 0, 66, 72
2, 9422, Note_on_c, 0, 68, 80
2, 9434, Note_on_c, 0, 68, 0
2, 9434, Note_on_c, 0, 66, 0
2, 9435, Note_on_c, 0, 67, 85
2, 9446, Note_on_c, 0, 60, 0
2, 9448, Note_on_c, 0, 55, 65
2, 9448, Note_on_c, 0, 60, 65
2, 9460, Note_on_c, 0, 66, 76
2, 9470, Note_on_c, 0, 60, 0
2, 9470, Note_on_c, 0, 55, 0
2, 9472, Note_on_c, 0, 66, 0
2, 9472, Note_on_c, 0, 55, 64
2, 9472, Note_on_c, 0, 60, 64
2, 9472, Note_on_c, 0, 64, 74
2, 9484, Note_on_c, 0, 64, 0
2, 9484, Note_on_c, 0, 67, 0
2, 9484, Note_on_c, 0, 63, 80
2, 9494, Note_on_c, 0, 60, 0
2, 9494, Note_on_c, 0, 55, 0
2, 9496, Note_on_c, 0, 57, 63
2, 9496, Note_on_c, 0, 60, 63
2, 9508, Note_on_c, 0, 63, 0
2, 9508, Note_on_c, 0, 64, 75
2, 9518, Note_on_c, 0, 60, 0
2, 9518, Note_on_c, 0, 57, 0
2, 9520, Note_on_c, 0, 64, 0
2, 9520, Note_on_c, 0, 57, 62
2, 9520, Note_on_c, 0, 60, 62
2, 9520, Note_on_c, 0, 66, 77
2, 9530, Note_on_c, 0, 66, 0
2, 9530, Note_on_c, 0, 60, 0
2, 9532, Note_on_c, 0, 66, 82
2, 9542, Note_on_c, 0, 57, 0
2, 9544, Note_on_c, 0, 57, 63
2, 9554, Note_on_c, 0, 66, 0
2, 9556, Note_on_c, 0, 60, 75
2, 9566, Note_on_c, 0, 57, 0
2, 9568, Note_on_c, 0, 60, 0
2, 9568, Note_on_c, 0, 57, 64
2, 9568, Note_on_c, 0, 59, 74
2, 9580, Note_on_c, 0, 59, 0
2, 9580, Note_on_c, 0, 61, 79
2, 9590, Note_on_c, 0, 57, 0
2, 9592, Note_on_c, 0, 61, 0
2, 9592, Note_on_c, 0, 57, 65
2, 9592, Note_on_c, 0, 59, 65
2, 9592, Note_on_c, 0, 63, 81
2, 9602, Note_on_c, 0, 63, 0
2, 9604, Note_on_c, 0, 64, 82
2, 9610, Note_on_c, 0, 64, 0
2, 9614, Note_on_c, 0, 59, 0
2, 9614, Note_on_c, 0, 57, 0
2, 9616, Note_on_c, 0, 57, 68
2, 9616, Note_on_c, 0, 63, 68
2, 9616, Note_on_c, 0, 66, 88
2, 9628, Note_on_c, 0, 66, 0
2, 9628, Note_on_c, 0, 67, 80
2, 9629, Note_on_c, 0, 63, 0
2, 9629, Note_on_c, 0, 57, 0
2, 9640, Note_on_c, 0, 67, 0
2, 9640, Note_on_c, 0, 59, 58
2, 9640, Note_on_c, 0, 64, 64
2, 9652, Note_on_c, 0, 66, 76
2, 9662, Note_on_c, 0, 64, 0
2, 9662, Note_on_c, 0, 59, 0
2, 9664, Note_on_c, 0, 66, 0
2, 9664, Note_on_c, 0, 59, 60
2, 9664, Note_on_c, 0, 64, 60
2, 9664, Note_on_c, 0, 67, 78
2, 9674, Note_on_c, 0, 64, 0
2, 9674, Note_on_c, 0, 59, 0
2, 9676, Note_on_c, 0, 67, 0
2, 9676, Note_on_c, 0, 69, 84
2, 9688, Note_on_c, 0, 69, 0
2, 9688, Note_on_c, 0, 64, 66
2, 9688, Note_on_c, 0, 71, 80
2, 9700, Note_on_c, 0, 71, 0
2, 9700, Note_on_c, 0, 67, 78
2, 9710, Note_on_c, 0, 64, 0
2, 9712, Note_on_c, 0, 67, 0
2, 9712, Note_on_c, 0, 60, 62
2, 9712, Note_on_c, 0, 64, 62
2, 9712, Note_on_c, 0, 69, 77
2, 9724, Note_on_c, 0, 69, 0
2, 9724, Note_on_c, 0, 71, 74
2, 9734, Note_on_c, 0, 64, 0
2, 9734, Note_on_c, 0, 60, 0
2, 9736, Note_on_c, 0, 64, 52
2, 9736, Note_on_c, 0, 67, 52
2, 9758, Note_on_c, 0, 67, 0
2, 9758, Note_on_c, 0, 64, 0
2, 9760, Note_on_c, 0, 59, 47
2, 9760, Note_on_c, 0, 64, 47
2, 9760, Note_on_c, 0, 67, 47
2, 9770, Note_on_c, 0, 67, 0
2, 9770, Note_on_c, 0, 64, 0
2, 9770, Note_on_c, 0, 59, 0
2, 9772, Note_on_c, 0, 71, 0
2, 9772, Note_on_c, 0, 74, 66
2, 9784, Note_on_c, 0, 60, 36
2, 9784, Note_on_c, 0, 62, 36
2, 9784, Note_on_c, 0, 69, 36
2, 9806, Note_on_c, 0, 69, 0
2, 9806, Note_on_c, 0, 62, 0
2, 9806, Note_on_c, 0, 60, 0
2, 9808, Note_on_c, 0, 60, 35
2, 9808, Note_on_c, 0, 62, 35
2, 9820, Note_on_c, 0, 74, 0
2, 9820, Note_on_c, 0, 71, 66
2, 9830, Note_on_c, 0, 62, 0
2, 9830, Note_on_c, 0, 60, 0
2, 9832, Note_on_c, 0, 60, 36
2, 9832, Note_on_c, 0, 62, 36
2, 9844, Note_on_c, 0, 69, 62
2, 9854, Note_on_c, 0, 62, 0
2, 9854, Note_on_c, 0, 60, 0
2, 9856, Note_on_c, 0, 69, 0
2, 9856, Note_on_c, 0, 60, 38
2, 9856, Note_on_c, 0, 62, 38
2, 9856, Note_on_c, 0, 67, 61
2, 9868, Note_on_c, 0, 67, 0
2, 9868, Note_on_c, 0, 71, 0
2, 9868, Note_on_c, 0, 66, 63
2, 9878, Note_on_c, 0, 62, 0
2, 9878, Note_on_c, 0, 60, 0
2, 9880, Note_on_c, 0, 62, 40
2, 9880, Note_on_c, 0, 60, 40
2, 9892, Note_on_c, 0, 66, 0
2, 9892, Note_on_c, 0, 67, 61
2, 9902, Note_on_c, 0, 60, 0
2, 9902, Note_on_c, 0, 62, 0
2, 9904, Note_on_c, 0, 67, 0
2, 9904, Note_on_c, 0, 60, 39
2, 9904, Note_on_c, 0, 62, 39
2, 9904, Note_on_c, 0, 69, 62
2, 9914, Note_on_c, 0, 69, 0
2, 9916, Note_on_c, 0, 69, 62
2, 9926, Note_on_c, 0, 62, 0
2, 9926, Note_on_c, 0, 60, 0
2, 9928, Note_on_c, 0, 69, 0
2, 9928, Note_on_c, 0, 60, 44
2, 9928, Note_on_c, 0, 62, 58
2, 9940, Note_on_c, 0, 64, 63
2, 9950, Note_on_c, 0, 62, 0
2, 9950, Note_on_c, 0, 60, 0
2, 9952, Note_on_c, 0, 64, 0
2, 9952, Note_on_c, 0, 60, 50
2, 9952, Note_on_c, 0, 62, 62
2, 9964, Note_on_c, 0, 64, 67
2, 9974, Note_on_c, 0, 62, 0
2, 9974, Note_on_c, 0, 60, 0
2, 9976, Note_on_c, 0, 64, 0
2, 9976, Note_on_c, 0, 60, 53
2, 9976, Note_on_c, 0, 62, 53
2, 9976, Note_on_c, 0, 66, 70
2, 9988, Note_on_c, 0, 66, 0
2, 9988, Note_on_c, 0, 67, 69
2, 9998, Note_on_c, 0, 62, 0
2, 9998, Note_on_c, 0, 60, 0
2, 10000, Note_on_c, 0, 67, 0
2, 10000, Note_on_c, 0, 60, 55
2, 10000, Note_on_c, 0, 62, 55
2, 10000, Note_on_c, 0, 69, 70
2, 10010, Note_on_c, 0, 62, 0
2, 10010, Note_on_c, 0, 60, 0
2, 10012, Note_on_c, 0, 69, 0
2, 10012, Note_on_c, 0, 71, 70
2, 10024, Note_on_c, 0, 62, 57
2, 10034, Note_on_c, 0, 71, 0
2, 10036, Note_on_c, 0, 70, 66
2, 10046, Note_on_c, 0, 62, 0
2, 10048, Note_on_c, 0, 70, 0
2, 10048, Note_on_c, 0, 59, 53
2, 10048, Note_on_c, 0, 64, 53
2, 10048, Note_on_c, 0, 71, 68
2, 10058, Note_on_c, 0, 64, 0
2, 10058, Note_on_c, 0, 59, 0
2, 10060, Note_on_c, 0, 71, 0
2, 10060, Note_on_c, 0, 73, 76
2, 10072, Note_on_c, 0, 73, 0
2, 10072, Note_on_c, 0, 64, 58
2, 10072, Note_on_c, 0, 70, 58
2, 10072, Note_on_c, 0, 74, 74
2, 10084, Note_on_c, 0, 74, 0
2, 10084, Note_on_c, 0, 71, 76
2, 10094, Note_on_c, 0, 70, 0
2, 10094, Note_on_c, 0, 64, 0
2, 10096, Note_on_c, 0, 71, 0
2, 10096, Note_on_c, 0, 64, 55
2, 10096, Note_on_c, 0, 70, 55
2, 10096, Note_on_c, 0, 73, 77
2, 10108, Note_on_c, 0, 73, 0
2, 10108, Note_on_c, 0, 74, 74
2, 10118, Note_on_c, 0, 70, 0
2, 10118, Note_on_c, 0, 64, 0
2, 10120, Note_on_c, 0, 62, 56
2, 10120, Note_on_c, 0, 66, 56
2, 10120, Note_on_c, 0, 71, 56
2, 10142, Note_on_c, 0, 71, 0
2, 10142, Note_on_c, 0, 66, 0
2, 10142, Note_on_c, 0, 62, 0
2, 10144, Note_on_c, 0, 62, 52
2, 10144, Note_on_c, 0, 66, 52
2, 10154, Note_on_c, 0, 66, 0
2, 10154, Note_on_c, 0, 62, 0
2, 10156, Note_on_c, 0, 74, 0
2, 10156, Note_on_c, 0, 78, 76
2, 10168, Note_on_c, 0, 64, 44
2, 10168, Note_on_c, 0, 70, 44
2, 10190, Note_on_c, 0, 70, 0
2, 10190, Note_on_c, 0, 64, 0
2, 10192, Note_on_c, 0, 64, 40
2, 10192, Note_on_c, 0, 70, 40
2, 10192, Note_on_c, 0, 73, 40
2, 10202, Note_on_c, 0, 73, 0
2, 10202, Note_on_c, 0, 70, 0
2, 10202, Note_on_c, 0, 64, 0
2, 10204, Note_on_c, 0, 78, 0
2, 10204, Note_on_c, 0, 74, 70
2, 10216, Note_on_c, 0, 62, 43
2, 10216, Note_on_c, 0, 66, 43
2, 10228, Note_on_c, 0, 74, 0
2, 10228, Note_on_c, 0, 73, 68
2, 10238, Note_on_c, 0, 66, 0
2, 10238, Note_on_c, 0, 62, 0
2, 10240, Note_on_c, 0, 73, 0
2, 10240, Note_on_c, 0, 62, 44
2, 10240, Note_on_c, 0, 66, 44
2, 10240, Note_on_c, 0, 71, 66
2, 10250, Note_on_c, 0, 66, 0
2, 10250, Note_on_c, 0, 62, 0
2, 10252, Note_on_c, 0, 71, 0
2, 10252, Note_on_c, 0, 73, 70
2, 10264, Note_on_c, 0, 64, 46
2, 10264, Note_on_c, 0, 66, 46
2, 10276, Note_on_c, 0, 73, 0
2, 10276, Note_on_c, 0, 74, 71
2, 10286, Note_on_c, 0, 66, 0
2, 10286, Note_on_c, 0, 64, 0
2, 10288, Note_on_c, 0, 74, 0
2, 10288, Note_on_c, 0, 64, 46
2, 10288, Note_on_c, 0, 66, 46
2, 10288, Note_on_c, 0, 70, 65
2, 10298, Note_on_c, 0, 66, 0
2, 10298, Note_on_c, 0, 64, 0
2, 10300, Note_on_c, 0, 70, 0
2, 10300, Note_on_c, 0, 71, 62
2, 10312, Note_on_c, 0, 62, 47
2, 10312, Note_on_c, 0, 66, 47
2, 10334, Note_on_c, 0, 66, 0
2, 10334, Note_on_c, 0, 62, 0
2, 10336, Note_on_c, 0, 62, 43
2, 10336, Note_on_c, 0, 66, 43
2, 10346, Note_on_c, 0, 66, 0
2, 10346, Note_on_c, 0, 62, 0
2, 10348, Note_on_c, 0, 71, 0
2, 10348, Note_on_c, 0, 73, 66
2, 10360, Note_on_c, 0, 64, 38
2, 10360, Note_on_c, 0, 66, 38
2, 10360, Note_on_c, 0, 70, 38
2, 10382, Note_on_c, 0, 70, 0
2, 10382, Note_on_c, 0, 66, 0
2, 10382, Note_on_c, 0, 64, 0
2, 10384, Note_on_c, 0, 64, 38
2, 10384, Note_on_c, 0, 66, 38
2, 10394, Note_on_c, 0, 66, 0
2, 10394, Note_on_c, 0, 64, 0
2, 10396, Note_on_c, 0, 73, 0
2, 10396, Note_on_c, 0, 74, 66
2, 10408, Note_on_c, 0, 62, 37
2, 10408, Note_on_c, 0, 66, 37
2, 10420, Note_on_c, 0, 74, 0
2, 10420, Note_on_c, 0, 73, 63
2, 10430, Note_on_c, 0, 66, 0
2, 10430, Note_on_c, 0, 62, 0
2, 10432, Note_on_c, 0, 73, 0
2, 10432, Note_on_c, 0, 62, 35
2, 10432, Note_on_c, 0, 66, 35
2, 10432, Note_on_c, 0, 71, 62
2, 10442, Note_on_c, 0, 66, 0
2, 10442, Note_on_c, 0, 62, 0
2, 10444, Note_on_c, 0, 71, 0
2, 10444, Note_on_c, 0, 73, 65
2, 10456, Note_on_c, 0, 73, 0
2, 10456, Note_on_c, 0, 64, 38
2, 10456, Note_on_c, 0, 66, 38
2, 10456, Note_on_c, 0, 76, 64
2, 10468, Note_on_c, 0, 76, 0
2, 10468, Note_on_c, 0, 74, 63
2, 10478, Note_on_c, 0, 66, 0
2, 10478, Note_on_c, 0, 64, 0
2, 10480, Note_on_c, 0, 74, 0
2, 10480, Note_on_c, 0, 64, 36
2, 10480, Note_on_c, 0, 66, 36
2, 10480, Note_on_c, 0, 70, 58
2, 10490, Note_on_c, 0, 66, 0
2, 10490, Note_on_c, 0, 64, 0
2, 10492, Note_on_c, 0, 70, 0
2, 10492, Note_on_c, 0, 71, 57
2, 10504, Note_on_c, 0, 62, 36
2, 10504, Note_on_c, 0, 66, 36
2, 10516, Note_on_c, 0, 71, 0
2, 10516, Note_on_c, 0, 74, 66
2, 10526, Note_on_c, 0, 66, 0
2, 10526, Note_on_c, 0, 62, 0
2, 10528, Note_on_c, 0, 74, 0
2, 10528, Note_on_c, 0, 64, 34
2, 10528, Note_on_c, 0, 66, 34
2, 10528, Note_on_c, 0, 70, 64
2, 10540, Note_on_c, 0, 70, 0
2, 10540, Note_on_c, 0, 71, 61
2, 10550, Note_on_c, 0, 66, 0
2, 10550, Note_on_c, 0, 64, 0
2, 10552, Note_on_c, 0, 62, 35
2, 10552, Note_on_c, 0, 66, 35
2, 10564, Note_on_c, 0, 71, 0
2, 10564, Note_on_c, 0, 74, 62
2, 10574, Note_on_c, 0, 66, 0
2, 10574, Note_on_c, 0, 62, 0
2, 10576, Note_on_c, 0, 74, 0
2, 10576, Note_on_c, 0, 64, 33
2, 10576, Note_on_c, 0, 66, 33
2, 10576, Note_on_c, 0, 70, 60
2, 10588, Note_on_c, 0, 70, 0
2, 10588, Note_on_c, 0, 71, 56
2, 10598, Note_on_c, 0, 66, 0
2, 10598, Note_on_c, 0, 64, 0
2, 10600, Note_on_c, 0, 62, 38
2, 10610, Note_on_c, 0, 62, 0
2, 10612, Note_on_c, 0, 71, 0
2, 10612, Note_on_c, 0, 72, 55
2, 10624, Note_on_c, 0, 72, 0
2, 10624, Note_on_c, 0, 62, 35
2, 10624, Note_on_c, 0, 68, 52
2, 10636, Note_on_c, 0, 68, 0
2, 10636, Note_on_c, 0, 69, 48
2, 10646, Note_on_c, 0, 62, 0
2, 10648, Note_on_c, 0, 60, 36
2, 10660, Note_on_c, 0, 69, 0
2, 10660, Note_on_c, 0, 72, 58
2, 10670, Note_on_c, 0, 60, 0
2, 10672, Note_on_c, 0, 72, 0
2, 10672, Note_on_c, 0, 62, 38
2, 10672, Note_on_c, 0, 68, 57
2, 10684, Note_on_c, 0, 68, 0
2, 10684, Note_on_c, 0, 69, 53
2, 10694, Note_on_c, 0, 62, 0
2, 10696, Note_on_c, 0, 60, 36
2, 10708, Note_on_c, 0, 69, 0
2, 10708, Note_on_c, 0, 72, 48
2, 10718, Note_on_c, 0, 60, 0
2, 10720, Note_on_c, 0, 72, 0
2, 10720, Note_on_c, 0, 62, 37
2, 10720, Note_on_c, 0, 68, 46
2, 10732, Note_on_c, 0, 68, 0
2, 10732, Note_on_c, 0, 69, 44
2, 10742, Note_on_c, 0, 62, 0
2, 10744, Note_on_c, 0, 60, 34
2, 10756, Note_on_c, 0, 69, 0
2, 10756, Note_on_c, 0, 72, 42
2, 10766, Note_on_c, 0, 60, 0
2, 10768, Note_on_c, 0, 72, 0
2, 10768, Note_on_c, 0, 62, 33
2, 10768, Note_on_c, 0, 68, 40
2, 10778, Note_on_c, 0, 62, 0
2, 10780, Note_on_c, 0, 68, 0
2, 10780, Note_on_c, 0, 60, 36
2, 10780, Note_on_c, 0, 69, 42
2, 10802, Note_on_c, 0, 69, 0
2, 10802, Note_on_c, 0, 60, 0
2, 10840, Note_on_c, 0, 62, 56
2, 10852, Note_on_c, 0, 65, 59
2, 10862, Note_on_c, 0, 62, 0
2, 10864, Note_on_c, 0, 65, 0
2, 10864, Note_on_c, 0, 68, 52
2, 10864, Note_on_c, 0, 71, 62
2, 10876, Note_on_c, 0, 71, 0
2, 10876, Note_on_c, 0, 68, 0
2, 10876, Note_on_c, 0, 69, 54
2, 10876, Note_on_c, 0, 72, 64
2, 10900, Note_on_c, 0, 72, 0
2, 10900, Note_on_c, 0, 69, 0
2, 10900, Note_on_c, 0, 60, 40
2, 10900, Note_on_c, 0, 65, 50
2, 10922, Note_on_c, 0, 65, 0
2, 10922, Note_on_c, 0, 60, 0
2, 10936, Note_on_c, 0, 62, 82
2, 10948, Note_on_c, 0, 65, 79
2, 10958, Note_on_c, 0, 62, 0
2, 10960, Note_on_c, 0, 65, 0
2, 10960, Note_on_c, 0, 68, 67
2, 10960, Note_on_c, 0, 71, 77
2, 10972, Note_on_c, 0, 71, 0
2, 10972, Note_on_c, 0, 68, 0
2, 10972, Note_on_c, 0, 69, 70
2, 10972, Note_on_c, 0, 72, 80
2, 11018, Note_on_c, 0, 72, 0
2, 11018, Note_on_c, 0, 69, 0
2, 11176, Note_on_c, 0, 68, 54
2, 11248, Note_on_c, 0, 68, 0
2, 11248, Note_on_c, 0, 69, 55
2, 11272, Note_on_c, 0, 69, 0
2, 11272, Note_on_c, 0, 71, 64
2, 11296, Note_on_c, 0, 71, 0
2, 11296, Note_on_c, 0, 75, 72
2, 11320, Note_on_c, 0, 75, 0
2, 11320, Note_on_c, 0, 76, 68
2, 11344, Note_on_c, 0, 76, 0
2, 11344, Note_on_c, 0, 73, 62
2, 11368, Note_on_c, 0, 73, 0
2, 11368, Note_on_c, 0, 71, 56
2, 11464, Note_on_c, 0, 71, 0
2, 11464, Note_on_c, 0, 66, 52
2, 11632, Note_on_c, 0, 66, 0
2, 11632, Note_on_c, 0, 67, 47
2, 11656, Note_on_c, 0, 67, 0
2, 11656, Note_on_c, 0, 69, 46
2, 11680, Note_on_c, 0, 69, 0
2, 11680, Note_on_c, 0, 73, 50
2, 11704, Note_on_c, 0, 73, 0
2, 11704, Note_on_c, 0, 74, 51
2, 11728, Note_on_c, 0, 74, 0
2, 11728, Note_on_c, 0, 71, 49
2, 11752, Note_on_c, 0, 71, 0
2, 11752, Note_on_c, 0, 69, 44
2, 11848, Note_on_c, 0, 69, 0
2, 11848, Note_on_c, 0, 64, 52
2, 11920, Note_on_c, 0, 64, 0
2, 11920, Note_on_c, 0, 66, 60
2, 11944, Note_on_c, 0, 66, 0
2, 11944, Note_on_c, 0, 63, 62
2, 12064, Note_on_c, 0, 63, 0
2, 12064, Note_on_c, 0, 65, 56
2, 12088, Note_on_c, 0, 65, 0
2, 12088, Note_on_c, 0, 66, 68
2, 12112, Note_on_c, 0, 66, 0
2, 12112, Note_on_c, 0, 67, 69
2, 12136, Note_on_c, 0, 67, 0
2, 12136, Note_on_c, 0, 68, 70
2, 12184, Note_on_c, 0, 68, 0
2, 12184, Note_on_c, 0, 61, 72
2, 12232, Note_on_c, 0, 61, 0
2, 12232, Note_on_c, 0, 69, 78
2, 12328, Note_on_c, 0, 69, 0
2, 12328, Note_on_c, 0, 71, 82
2, 12376, Note_on_c, 0, 71, 0
2, 12376, Note_on_c, 0, 64, 86
2, 12424, Note_on_c, 0, 64, 0
2, 12424, Note_on_c, 0, 73, 90
2, 12520, Note_on_c, 0, 73, 0
2, 12520, Note_on_c, 0, 75, 96
2, 12538, Note_on_c, 0, 75, 0
2, 12540, Note_on_c, 0, 55, 70
2, 12544, Note_on_c, 0, 55, 0
2, 12544, Note_on_c, 0, 56, 76
2, 12548, Note_on_c, 0, 56, 0
2, 12548, Note_on_c, 0, 60, 84
2, 12552, Note_on_c, 0, 60, 0
2, 12552, Note_on_c, 0, 63, 82
2, 12556, Note_on_c, 0, 63, 0
2, 12556, Note_on_c, 0, 68, 80
2, 12560, Note_on_c, 0, 68, 0
2, 12560, Note_on_c, 0, 68, 78
2, 12568, Note_on_c, 0, 68, 0
2, 12568, Note_on_c, 0, 80, 100
2, 12604, Note_on_c, 0, 80, 0
2, 12604, Note_on_c, 0, 78, 86
2, 12616, Note_on_c, 0, 78, 0
2, 12616, Note_on_c, 0, 78, 84
2, 12664, Note_on_c, 0, 78, 0
2, 12664, Note_on_c, 0, 76, 86
2, 12700, Note_on_c, 0, 76, 0
2, 12700, Note_on_c, 0, 75, 82
2, 12712, Note_on_c, 0, 75, 0
2, 12712, Note_on_c, 0, 75, 78
2, 12784, Note_on_c, 0, 75, 0
2, 12784, Note_on_c, 0, 73, 62
2, 12808, Note_on_c, 0, 73, 0
2, 12808, Note_on_c, 0, 72, 60
2, 12832, Note_on_c, 0, 72, 0
2, 12832, Note_on_c, 0, 73, 62
2, 12856, Note_on_c, 0, 73, 0
2, 12856, Note_on_c, 0, 75, 63
2, 12880, Note_on_c, 0, 75, 0
2, 12880, Note_on_c, 0, 76, 61
2, 12904, Note_on_c, 0, 76, 0
2, 12904, Note_on_c, 0, 76, 62
2, 12952, Note_on_c, 0, 76, 0
2, 12952, Note_on_c, 0, 69, 64
2, 13024, Note_on_c, 0, 69, 0
2, 13024, Note_on_c, 0, 68, 58
2, 13048, Note_on_c, 0, 68, 0
2, 13048, Note_on_c, 0, 71, 64
2, 13064, Note_on_c, 0, 71, 0
2, 13064, Note_on_c, 0, 69, 68
2, 13080, Note_on_c, 0, 69, 0
2, 13080, Note_on_c, 0, 68, 66
2, 13096, Note_on_c, 0, 68, 0
2, 13096, Note_on_c, 0, 68, 68
2, 13120, Note_on_c, 0, 68, 0
2, 13120, Note_on_c, 0, 61, 72
2, 13144, Note_on_c, 0, 61, 0
2, 13144, Note_on_c, 0, 68, 68
2, 13160, Note_on_c, 0, 68, 0
2, 13160, Note_on_c, 0, 66, 70
2, 13176, Note_on_c, 0, 66, 0
2, 13176, Note_on_c, 0, 73, 74
2, 13192, Note_on_c, 0, 73, 0
2, 13192, Note_on_c, 0, 80, 80
2, 13208, Note_on_c, 0, 80, 0
2, 13208, Note_on_c, 0, 78, 82
2, 13224, Note_on_c, 0, 78, 0
2, 13224, Note_on_c, 0, 85, 74
2, 13240, Note_on_c, 0, 85, 0
2, 13240, Note_on_c, 0, 92, 68
2, 13256, Note_on_c, 0, 92, 0
2, 13256, Note_on_c, 0, 90, 70
2, 13272, Note_on_c, 0, 90, 0
2, 13272, Note_on_c, 0, 85, 64
2, 13288, Note_on_c, 0, 85, 0
2, 13288, Note_on_c, 0, 80, 60
2, 13304, Note_on_c, 0, 80, 0
2, 13304, Note_on_c, 0, 78, 59
2, 13320, Note_on_c, 0, 78, 0
2, 13320, Note_on_c, 0, 76, 58
2, 13336, Note_on_c, 0, 76, 0
2, 13336, Note_on_c, 0, 73, 55
2, 13352, Note_on_c, 0, 73, 0
2, 13352, Note_on_c, 0, 68, 49
2, 13368, Note_on_c, 0, 68, 0
2, 13368, Note_on_c, 0, 66, 46
2, 13384, Note_on_c, 0, 66, 0
2, 13384, Note_on_c, 0, 66, 48
2, 13388, Note_on_c, 0, 68, 46
2, 13389, Note_on_c, 0, 66, 0
2, 13392, Note_on_c, 0, 66, 43
2, 13393, Note_on_c, 0, 68, 0
2, 13396, Note_on_c, 0, 68, 45
2, 13397, Note_on_c, 0, 66, 0
2, 13400, Note_on_c, 0, 66, 42
2, 13401, Note_on_c, 0, 68, 0
2, 13404, Note_on_c, 0, 68, 45
2, 13405, Note_on_c, 0, 66, 0
2, 13408, Note_on_c, 0, 66, 42
2, 13409, Note_on_c, 0, 68, 0
2, 13412, Note_on_c, 0, 68, 45
2, 13413, Note_on_c, 0, 66, 0
2, 13416, Note_on_c, 0, 66, 42
2, 13417, Note_on_c, 0, 68, 0
2, 13420, Note_on_c, 0, 65, 48
2, 13421, Note_on_c, 0, 66, 0
2, 13426, Note_on_c, 0, 65, 0
2, 13426, Note_on_c, 0, 66, 48
2, 13432, Note_on_c, 0, 66, 0
2, 13432, Note_on_c, 0, 68, 44
2, 13454, Note_on_c, 0, 68, 0
2, 13468, Note_on_c, 0, 59, 46
2, 13480, Note_on_c, 0, 59, 0
2, 13480, Note_on_c, 0, 56, 36
2, 13480, Note_on_c, 0, 64, 42
2, 13526, Note_on_c, 0, 64, 0
2, 13526, Note_on_c, 0, 56, 0
2, 13624, Note_on_c, 0, 64, 50
2, 13660, Note_on_c, 0, 64, 0
2, 13660, Note_on_c, 0, 66, 46
2, 13672, Note_on_c, 0, 66, 0
2, 13672, Note_on_c, 0, 56, 36
2, 13672, Note_on_c, 0, 64, 34
2, 13672, Note_on_c, 0, 68, 48
2, 13814, Note_on_c, 0, 68, 0
2, 13814, Note_on_c, 0, 64, 0
2, 13814, Note_on_c, 0, 56, 0
2, 13816, Note_on_c, 0, 61, 40
2, 13816, Note_on_c, 0, 64, 48
2, 13840, Note_on_c, 0, 64, 0
2, 13840, Note_on_c, 0, 66, 52
2, 13856, Note_on_c, 0, 66, 0
2, 13856, Note_on_c, 0, 59, 34
2, 13856, Note_on_c, 0, 64, 36
2, 13856, Note_on_c, 0, 68, 48
2, 13862, Note_on_c, 0, 61, 0
2, 13864, Note_on_c, 0, 68, 0
2, 13864, Note_on_c, 0, 64, 0
2, 13864, Note_on_c, 0, 59, 0
2, 13864, Note_on_c, 0, 58, 40
2, 13864, Note_on_c, 0, 64, 38
2, 13864, Note_on_c, 0, 68, 50
2, 13960, Note_on_c, 0, 68, 0
2, 13960, Note_on_c, 0, 64, 0
2, 13960, Note_on_c, 0, 63, 40
2, 13960, Note_on_c, 0, 66, 48
2, 14032, Note_on_c, 0, 66, 0
2, 14032, Note_on_c, 0, 63, 0
2, 14032, Note_on_c, 0, 61, 38
2, 14032, Note_on_c, 0, 64, 46
2, 14054, Note_on_c, 0, 58, 0
2, 14056, Note_on_c, 0, 64, 0
2, 14056, Note_on_c, 0, 61, 0
2, 14056, Note_on_c, 0, 66, 42
2, 14056, Note_on_c, 0, 73, 58
2, 14104, Note_on_c, 0, 73, 0
2, 14104, Note_on_c, 0, 71, 50
2, 14150, Note_on_c, 0, 66, 0
2, 14152, Note_on_c, 0, 71, 0
2, 14152, Note_on_c, 0, 64, 47
2, 14200, Note_on_c, 0, 64, 0
2, 14200, Note_on_c, 0, 63, 38
2, 14200, Note_on_c, 0, 66, 46
2, 14224, Note_on_c, 0, 66, 0
2, 14224, Note_on_c, 0, 68, 42
2, 14232, Note_on_c, 0, 68, 0
2, 14232, Note_on_c, 0, 71, 42
2, 14236, Note_on_c, 0, 71, 0
2, 14236, Note_on_c, 0, 69, 40
2, 14246, Note_on_c, 0, 63, 0
2, 14248, Note_on_c, 0, 69, 0
2, 14248, Note_on_c, 0, 61, 30
2, 14248, Note_on_c, 0, 64, 28
2, 14248, Note_on_c, 0, 69, 40
2, 14272, Note_on_c, 0, 69, 0
2, 14272, Note_on_c, 0, 61, 0
2, 14272, Note_on_c, 0, 59, 24
2, 14272, Note_on_c, 0, 68, 34
2, 14294, Note_on_c, 0, 68, 0
2, 14294, Note_on_c, 0, 59, 0
2, 14294, Note_on_c, 0, 64, 0
2, 14356, Note_on_c, 0, 61, 40
2, 14368, Note_on_c, 0, 61, 0
2, 14368, Note_on_c, 0, 64, 52
2, 14380, Note_on_c, 0, 64, 0
2, 14380, Note_on_c, 0, 63, 54
2, 14392, Note_on_c, 0, 63, 0
2, 14392, Note_on_c, 0, 66, 60
2, 14404, Note_on_c, 0, 66, 0
2, 14404, Note_on_c, 0, 64, 58
2, 14416, Note_on_c, 0, 68, 56
2, 14416, Note_on_c, 0, 76, 70
2, 14434, Note_on_c, 0, 76, 0
2, 14434, Note_on_c, 0, 76, 72
2, 14440, Note_on_c, 0, 76, 0
2, 14440, Note_on_c, 0, 68, 0
2, 14440, Note_on_c, 0, 64, 0
2, 14440, Note_on_c, 0, 64, 40
2, 14440, Note_on_c, 0, 68, 40
2, 14440, Note_on_c, 0, 76, 70
2, 14488, Note_on_c, 0, 76, 0
2, 14488, Note_on_c, 0, 78, 60
2, 14500, Note_on_c, 0, 78, 0
2, 14500, Note_on_c, 0, 76, 65
2, 14512, Note_on_c, 0, 76, 0
2, 14512, Note_on_c, 0, 68, 0
2, 14512, Note_on_c, 0, 73, 66
2, 14524, Note_on_c, 0, 73, 0
2, 14524, Note_on_c, 0, 68, 63
2, 14534, Note_on_c, 0, 64, 0
2, 14536, Note_on_c, 0, 68, 0
2, 14536, Note_on_c, 0, 60, 50
2, 14536, Note_on_c, 0, 68, 63
2, 14548, Note_on_c, 0, 60, 0
2, 14548, Note_on_c, 0, 61, 54
2, 14560, Note_on_c, 0, 61, 0
2, 14560, Note_on_c, 0, 64, 58
2, 14572, Note_on_c, 0, 64, 0
2, 14572, Note_on_c, 0, 63, 56
2, 14584, Note_on_c, 0, 63, 0
2, 14584, Note_on_c, 0, 68, 0
2, 14584, Note_on_c, 0, 61, 50
2, 14584, Note_on_c, 0, 66, 66
2, 14596, Note_on_c, 0, 66, 0
2, 14596, Note_on_c, 0, 64, 65
2, 14608, Note_on_c, 0, 64, 0
2, 14608, Note_on_c, 0, 66, 68
2, 14620, Note_on_c, 0, 66, 0
2, 14620, Note_on_c, 0, 68, 64
2, 14626, Note_on_c, 0, 61, 0
2, 14626, Note_on_c, 0, 59, 48
2, 14632, Note_on_c, 0, 59, 0
2, 14632, Note_on_c, 0, 68, 0
2, 14632, Note_on_c, 0, 59, 48
2, 14636, Note_on_c, 0, 59, 0
2, 14636, Note_on_c, 0, 58, 50
2, 14640, Note_on_c, 0, 64, 46
2, 14644, Note_on_c, 0, 68, 60
2, 14704, Note_on_c, 0, 68, 0
2, 14704, Note_on_c, 0, 70, 62
2, 14716, Note_on_c, 0, 70, 0
2, 14716, Note_on_c, 0, 68, 60
2, 14726, Note_on_c, 0, 64, 0
2, 14728, Note_on_c, 0, 68, 0
2, 14728, Note_on_c, 0, 63, 56
2, 14728, Note_on_c, 0, 66, 66
2, 14800, Note_on_c, 0, 66, 0
2, 14800, Note_on_c, 0, 63, 0
2, 14800, Note_on_c, 0, 61, 46
2, 14800, Note_on_c, 0, 64, 56
2, 14822, Note_on_c, 0, 58, 0
2, 14824, Note_on_c, 0, 64, 0
2, 14824, Note_on_c, 0, 61, 0
2, 14824, Note_on_c, 0, 57, 44
2, 14824, Note_on_c, 0, 60, 44
2, 14824, Note_on_c, 0, 66, 58
2, 14872, Note_on_c, 0, 66, 0
2, 14872, Note_on_c, 0, 60, 0
2, 14872, Note_on_c, 0, 57, 0
2, 14872, Note_on_c, 0, 59, 56
2, 14872, Note_on_c, 0, 65, 56
2, 14872, Note_on_c, 0, 68, 72
2, 14920, Note_on_c, 0, 68, 0
2, 14920, Note_on_c, 0, 65, 0
2, 14920, Note_on_c, 0, 59, 0
2, 14920, Note_on_c, 0, 57, 56
2, 14920, Note_on_c, 0, 64, 56
2, 14920, Note_on_c, 0, 69, 74
2, 14932, Note_on_c, 0, 64, 0
2, 14932, Note_on_c, 0, 65, 62
2, 14944, Note_on_c, 0, 65, 0
2, 14944, Note_on_c, 0, 60, 68
2, 14956, Note_on_c, 0, 60, 0
2, 14956, Note_on_c, 0, 64, 62
2, 14968, Note_on_c, 0, 64, 0
2, 14968, Note_on_c, 0, 69, 0
2, 14968, Note_on_c, 0, 57, 0
2, 14968, Note_on_c, 0, 57, 50
2, 14968, Note_on_c, 0, 63, 60
2, 14980, Note_on_c, 0, 63, 0
2, 14980, Note_on_c, 0, 57, 0
2, 14980, Note_on_c, 0, 73, 62
2, 15004, Note_on_c, 0, 73, 0
2, 15004, Note_on_c, 0, 63, 50
2, 15016, Note_on_c, 0, 63, 0
2, 15016, Note_on_c, 0, 56, 30
2, 15018, Note_on_c, 0, 63, 48
2, 15064, Note_on_c, 0, 56, 0
2, 15088, Note_on_c, 0, 63, 0
2, 15088, Note_on_c, 0, 64, 49
2, 15100, Note_on_c, 0, 64, 0
2, 15100, Note_on_c, 0, 66, 51
2, 15112, Note_on_c, 0, 66, 0
2, 15112, Note_on_c, 0, 69, 53
2, 15124, Note_on_c, 0, 69, 0
2, 15124, Note_on_c, 0, 68, 56
2, 15136, Note_on_c, 0, 68, 0
2, 15136, Note_on_c, 0, 73, 52
2, 15148, Note_on_c, 0, 73, 0
2, 15148, Note_on_c, 0, 71, 46
2, 15160, Note_on_c, 0, 71, 0
2, 15160, Note_on_c, 0, 76, 44
2, 15172, Note_on_c, 0, 76, 0
2, 15172, Note_on_c, 0, 78, 43
2, 15184, Note_on_c, 0, 78, 0
2, 15184, Note_on_c, 0, 80, 42
2, 15196, Note_on_c, 0, 80, 0
2, 15196, Note_on_c, 0, 83, 34
2, 15208, Note_on_c, 0, 83, 0
2, 15208, Note_on_c, 0, 92, 54
2, 15254, Note_on_c, 0, 92, 0
2, 15304, Note_on_c, 0, 71, 44
2, 15352, Note_on_c, 0, 71, 0
2, 15352, Note_on_c, 0, 71, 58
2, 15400, Note_on_c, 0, 71, 0
2, 15400, Note_on_c, 0, 71, 54
2, 15448, Note_on_c, 0, 63, 38
2, 15464, Note_on_c, 0, 71, 0
2, 15464, Note_on_c, 0, 69, 46
2, 15480, Note_on_c, 0, 69, 0
2, 15480, Note_on_c, 0, 68, 42
2, 15494, Note_on_c, 0, 63, 0
2, 15496, Note_on_c, 0, 68, 0
2, 15496, Note_on_c, 0, 59, 30
2, 15496, Note_on_c, 0, 64, 30
2, 15496, Note_on_c, 0, 68, 44
2, 15542, Note_on_c, 0, 68, 0
2, 15542, Note_on_c, 0, 64, 0
2, 15542, Note_on_c, 0, 59, 0
2, 15544, Note_on_c, 0, 61, 46
2, 15544, Note_on_c, 0, 68, 56
2, 15580, Note_on_c, 0, 68, 0
2, 15580, Note_on_c, 0, 68, 48
2, 15598, Note_on_c, 0, 61, 0
2, 15600, Note_on_c, 0, 68, 0
2, 15600, Note_on_c, 0, 56, 50
2, 15604, Note_on_c, 0, 61, 46
2, 15612, Note_on_c, 0, 68, 48
2, 15706, Note_on_c, 0, 61, 0
2, 15708, Note_on_c, 0, 59, 38
2, 15756, Note_on_c, 0, 68, 0
2, 15756, Note_on_c, 0, 68, 32
2, 15772, Note_on_c, 0, 68, 0
2, 15772, Note_on_c, 0, 66, 32
2, 15796, Note_on_c, 0, 66, 0
2, 15796, Note_on_c, 0, 64, 30
2, 15820, Note_on_c, 0, 64, 0
2, 15820, Note_on_c, 0, 64, 28
2, 15914, Note_on_c, 0, 64, 0
2, 15914, Note_on_c, 0, 59, 0
2, 15914, Note_on_c, 0, 56, 0
2, 15916, End_track
3, 0, Start_track
3, 0, Title_t, "LEFT HAND"
3, 0, MIDI_port, 0
3, 192, Note_on_c, 0, 40, 38
3, 238, Note_on_c, 0, 40, 0
3, 240, Note_on_c, 0, 52, 28
3, 240, Note_on_c, 0, 56, 30
3, 240, Note_on_c, 0, 61, 32
3, 288, Note_on_c, 0, 61, 0
3, 288, Note_on_c, 0, 56, 0
3, 288, Note_on_c, 0, 52, 0
3, 288, Note_on_c, 0, 47, 32
3, 288, Note_on_c, 0, 56, 34
3, 288, Note_on_c, 0, 59, 36
3, 334, Note_on_c, 0, 59, 0
3, 334, Note_on_c, 0, 56, 0
3, 334, Note_on_c, 0, 47, 0
3, 336, Note_on_c, 0, 59, 22
3, 336, Note_on_c, 0, 64, 24
3, 336, Note_on_c, 0, 68, 26
3, 382, Note_on_c, 0, 68, 0
3, 382, Note_on_c, 0, 64, 0
3, 382, Note_on_c, 0, 59, 0
3, 384, Note_on_c, 0, 35, 34
3, 430, Note_on_c, 0, 35, 0
3, 432, Note_on_c, 0, 54, 34
3, 432, Note_on_c, 0, 63, 38
3, 480, Note_on_c, 0, 63, 0
3, 480, Note_on_c, 0, 54, 0
3, 480, Note_on_c, 0, 57, 36
3, 480, Note_on_c, 0, 63, 38
3, 528, Note_on_c, 0, 63, 0
3, 528, Note_on_c, 0, 57, 0
3, 528, Note_on_c, 0, 47, 34
3, 528, Note_on_c, 0, 57, 36
3, 574, Note_on_c, 0, 57, 0
3, 574, Note_on_c, 0, 47, 0
3, 576, Note_on_c, 0, 37, 28
3, 576, Note_on_c, 0, 49, 28
3, 622, Note_on_c, 0, 49, 0
3, 622, Note_on_c, 0, 37, 0
3, 624, Note_on_c, 0, 52, 30
3, 624, Note_on_c, 0, 56, 32
3, 624, Note_on_c, 0, 61, 34
3, 670, Note_on_c, 0, 61, 0
3, 670, Note_on_c, 0, 56, 0
3, 670, Note_on_c, 0, 52, 0
3, 672, Note_on_c, 0, 35, 30
3, 672, Note_on_c, 0, 47, 30
3, 718, Note_on_c, 0, 47, 0
3, 718, Note_on_c, 0, 35, 0
3, 720, Note_on_c, 0, 52, 27
3, 720, Note_on_c, 0, 56, 29
3, 720, Note_on_c, 0, 62, 31
3, 766, Note_on_c, 0, 62, 0
3, 766, Note_on_c, 0, 56, 0
3, 766, Note_on_c, 0, 52, 0
3, 768, Note_on_c, 0, 33, 28
3, 768, Note_on_c, 0, 45, 28
3, 814, Note_on_c, 0, 45, 0
3, 814, Note_on_c, 0, 33, 0
3, 816, Note_on_c, 0, 52, 32
3, 816, Note_on_c, 0, 61, 36
3, 862, Note_on_c, 0, 61, 0
3, 862, Note_on_c, 0, 52, 0
3, 864, Note_on_c, 0, 32, 28
3, 864, Note_on_c, 0, 44, 28
3, 910, Note_on_c, 0, 44, 0
3, 910, Note_on_c, 0, 32, 0
3, 912, Note_on_c, 0, 53, 22
3, 912, Note_on_c, 0, 59, 24
3, 912, Note_on_c, 0, 61, 26
3, 958, Note_on_c, 0, 61, 0
3, 958, Note_on_c, 0, 59, 0
3, 958, Note_on_c, 0, 53, 0
3, 960, Note_on_c, 0, 30, 26
3, 960, Note_on_c, 0, 42, 26
3, 1006, Note_on_c, 0, 42, 0
3, 1006, Note_on_c, 0, 30, 0
3, 1008, Note_on_c, 0, 49, 22
3, 1008, Note_on_c, 0, 61, 26
3, 1056, Note_on_c, 0, 61, 0
3, 1056, Note_on_c, 0, 49, 0
3, 1056, Note_on_c, 0, 53, 28
3, 1056, Note_on_c, 0, 59, 30
3, 1056, Note_on_c, 0, 62, 32
3, 1104, Note_on_c, 0, 62, 0
3, 1104, Note_on_c, 0, 53, 0
3, 1104, Note_on_c, 0, 49, 22
3, 1104, Note_on_c, 0, 61, 26
3, 1150, Note_on_c, 0, 61, 0
3, 1150, Note_on_c, 0, 49, 0
3, 1150, Note_on_c, 0, 59, 0
3, 1152, Note_on_c, 0, 42, 38
3, 1198, Note_on_c, 0, 42, 0
3, 1200, Note_on_c, 0, 49, 28
3, 1200, Note_on_c, 0, 57, 32
3, 1246, Note_on_c, 0, 57, 0
3, 1246, Note_on_c, 0, 49, 0
3, 1248, Note_on_c, 0, 39, 38
3, 1294, Note_on_c, 0, 39, 0
3, 1296, Note_on_c, 0, 47, 30
3, 1296, Note_on_c, 0, 54, 32
3, 1296, Note_on_c, 0, 57, 34
3, 1342, Note_on_c, 0, 57, 0
3, 1342, Note_on_c, 0, 54, 0
3, 1342, Note_on_c, 0, 47, 0
3, 1344, Note_on_c, 0, 40, 36
3, 1390, Note_on_c, 0, 40, 0
3, 1392, Note_on_c, 0, 47, 32
3, 1392, Note_on_c, 0, 56, 36
3, 1438, Note_on_c, 0, 56, 0
3, 1438, Note_on_c, 0, 47, 0
3, 1440, Note_on_c, 0, 37, 28
3, 1486, Note_on_c, 0, 37, 0
3, 1488, Note_on_c, 0, 52, 22
3, 1488, Note_on_c, 0, 54, 24
3, 1488, Note_on_c, 0, 58, 26
3, 1534, Note_on_c, 0, 58, 0
3, 1534, Note_on_c, 0, 54, 0
3, 1534, Note_on_c, 0, 52, 0
3, 1536, Note_on_c, 0, 35, 24
3, 1582, Note_on_c, 0, 35, 0
3, 1584, Note_on_c, 0, 56, 18
3, 1584, Note_on_c, 0, 59, 22
3, 1632, Note_on_c, 0, 56, 0
3, 1632, Note_on_c, 0, 54, 20
3, 1678, Note_on_c, 0, 54, 0
3, 1678, Note_on_c, 0, 59, 0
3, 1680, Note_on_c, 0, 59, 16
3, 1680, Note_on_c, 0, 63, 18
3, 1680, Note_on_c, 0, 69, 20
3, 1726, Note_on_c, 0, 69, 0
3, 1726, Note_on_c, 0, 63, 0
3, 1726, Note_on_c, 0, 59, 0
3, 1728, Note_on_c, 0, 40, 28
3, 1774, Note_on_c, 0, 40, 0
3, 1776, Note_on_c, 0, 52, 18
3, 1776, Note_on_c, 0, 56, 20
3, 1776, Note_on_c, 0, 61, 22
3, 1824, Note_on_c, 0, 61, 0
3, 1824, Note_on_c, 0, 56, 0
3, 1824, Note_on_c, 0, 52, 0
3, 1824, Note_on_c, 0, 47, 24
3, 1824, Note_on_c, 0, 56, 26
3, 1824, Note_on_c, 0, 59, 28
3, 1870, Note_on_c, 0, 59, 0
3, 1872, Note_on_c, 0, 56, 0
3, 1872, Note_on_c, 0, 47, 0
3, 1872, Note_on_c, 0, 59, 16
3, 1872, Note_on_c, 0, 64, 18
3, 1872, Note_on_c, 0, 68, 20
3, 1918, Note_on_c, 0, 68, 0
3, 1918, Note_on_c, 0, 64, 0
3, 1918, Note_on_c, 0, 59, 0
3, 1920, Note_on_c, 0, 35, 30
3, 1966, Note_on_c, 0, 35, 0
3, 1968, Note_on_c, 0, 54, 30
3, 1968, Note_on_c, 0, 63, 34
3, 2016, Note_on_c, 0, 54, 0
3, 2016, Note_on_c, 0, 57, 36
3, 2062, Note_on_c, 0, 63, 0
3, 2062, Note_on_c, 0, 57, 0
3, 2064, Note_on_c, 0, 36, 38
3, 2064, Note_on_c, 0, 48, 42
3, 2112, Note_on_c, 0, 48, 0
3, 2112, Note_on_c, 0, 36, 0
3, 2112, Note_on_c, 0, 37, 32
3, 2112, Note_on_c, 0, 49, 36
3, 2158, Note_on_c, 0, 49, 0
3, 2158, Note_on_c, 0, 37, 0
3, 2160, Note_on_c, 0, 52, 34
3, 2160, Note_on_c, 0, 56, 36
3, 2160, Note_on_c, 0, 61, 38
3, 2206, Note_on_c, 0, 61, 0
3, 2206, Note_on_c, 0, 56, 0
3, 2206, Note_on_c, 0, 52, 0
3, 2208, Note_on_c, 0, 35, 36
3, 2208, Note_on_c, 0, 47, 36
3, 2254, Note_on_c, 0, 47, 0
3, 2254, Note_on_c, 0, 35, 0
3, 2256, Note_on_c, 0, 52, 36
3, 2256, Note_on_c, 0, 56, 38
3, 2256, Note_on_c, 0, 62, 40
3, 2302, Note_on_c, 0, 62, 0
3, 2302, Note_on_c, 0, 56, 0
3, 2302, Note_on_c, 0, 52, 0
3, 2304, Note_on_c, 0, 33, 40
3, 2304, Note_on_c, 0, 45, 40
3, 2350, Note_on_c, 0, 45, 0
3, 2350, Note_on_c, 0, 33, 0
3, 2352, Note_on_c, 0, 52, 44
3, 2352, Note_on_c, 0, 61, 48
3, 2398, Note_on_c, 0, 61, 0
3, 2398, Note_on_c, 0, 52, 0
3, 2400, Note_on_c, 0, 31, 44
3, 2400, Note_on_c, 0, 43, 44
3, 2446, Note_on_c, 0, 43, 0
3, 2446, Note_on_c, 0, 31, 0
3, 2448, Note_on_c, 0, 52, 30
3, 2448, Note_on_c, 0, 59, 32
3, 2448, Note_on_c, 0, 64, 34
3, 2494, Note_on_c, 0, 64, 0
3, 2494, Note_on_c, 0, 59, 0
3, 2494, Note_on_c, 0, 52, 0
3, 2496, Note_on_c, 0, 30, 38
3, 2496, Note_on_c, 0, 42, 38
3, 2542, Note_on_c, 0, 42, 0
3, 2542, Note_on_c, 0, 30, 0
3, 2544, Note_on_c, 0, 54, 36
3, 2544, Note_on_c, 0, 61, 39
3, 2544, Note_on_c, 0, 64, 42
3, 2590, Note_on_c, 0, 64, 0
3, 2590, Note_on_c, 0, 61, 0
3, 2590, Note_on_c, 0, 54, 0
3, 2592, Note_on_c, 0, 28, 46
3, 2592, Note_on_c, 0, 40, 46
3, 2638, Note_on_c, 0, 40, 0
3, 2638, Note_on_c, 0, 28, 0
3, 2640, Note_on_c, 0, 56, 38
3, 2640, Note_on_c, 0, 61, 38
3, 2640, Note_on_c, 0, 68, 38
3, 2686, Note_on_c, 0, 68, 0
3, 2686, Note_on_c, 0, 61, 0
3, 2686, Note_on_c, 0, 56, 0
3, 2688, Note_on_c, 0, 27, 46
3, 2688, Note_on_c, 0, 39, 46
3, 2734, Note_on_c, 0, 39, 0
3, 2734, Note_on_c, 0, 27, 0
3, 2736, Note_on_c, 0, 58, 36
3, 2736, Note_on_c, 0, 61, 38
3, 2736, Note_on_c, 0, 67, 40
3, 2770, Note_on_c, 0, 67, 0
3, 2770, Note_on_c, 0, 61, 0
3, 2770, Note_on_c, 0, 58, 0
3, 2772, Note_on_c, 0, 44, 47
3, 2778, Note_on_c, 0, 51, 42
3, 2784, Note_on_c, 0, 59, 40
3, 2818, Note_on_c, 0, 59, 0
3, 2818, Note_on_c, 0, 51, 0
3, 2818, Note_on_c, 0, 44, 0
3, 2820, Note_on_c, 0, 41, 47
3, 2826, Note_on_c, 0, 49, 42
3, 2832, Note_on_c, 0, 59, 46
3, 2878, Note_on_c, 0, 59, 0
3, 2878, Note_on_c, 0, 49, 0
3, 2878, Note_on_c, 0, 41, 0
3, 2880, Note_on_c, 0, 30, 34
3, 2880, Note_on_c, 0, 42, 34
3, 2926, Note_on_c, 0, 42, 0
3, 2926, Note_on_c, 0, 30, 0
3, 2928, Note_on_c, 0, 54, 30
3, 2928, Note_on_c, 0, 59, 32
3, 2928, Note_on_c, 0, 64, 34
3, 2974, Note_on_c, 0, 64, 0
3, 2974, Note_on_c, 0, 59, 0
3, 2974, Note_on_c, 0, 54, 0
3, 2976, Note_on_c, 0, 42, 42
3, 3022, Note_on_c, 0, 42, 0
3, 3024, Note_on_c, 0, 54, 26
3, 3024, Note_on_c, 0, 58, 28
3, 3024, Note_on_c, 0, 64, 30
3, 3070, Note_on_c, 0, 64, 0
3, 3070, Note_on_c, 0, 58, 0
3, 3070, Note_on_c, 0, 54, 0
3, 3072, Note_on_c, 0, 47, 28
3, 3118, Note_on_c, 0, 47, 0
3, 3120, Note_on_c, 0, 54, 22
3, 3120, Note_on_c, 0, 61, 24
3, 3120, Note_on_c, 0, 64, 26
3, 3166, Note_on_c, 0, 64, 0
3, 3166, Note_on_c, 0, 61, 0
3, 3166, Note_on_c, 0, 54, 0
3, 3168, Note_on_c, 0, 47, 28
3, 3214, Note_on_c, 0, 47, 0
3, 3216, Note_on_c, 0, 54, 18
3, 3216, Note_on_c, 0, 59, 20
3, 3216, Note_on_c, 0, 63, 22
3, 3262, Note_on_c, 0, 63, 0
3, 3262, Note_on_c, 0, 59, 0
3, 3262, Note_on_c, 0, 54, 0
3, 3264, Note_on_c, 0, 50, 26
3, 3310, Note_on_c, 0, 50, 0
3, 3312, Note_on_c, 0, 54, 18
3, 3312, Note_on_c, 0, 59, 20
3, 3312, Note_on_c, 0, 62, 22
3, 3358, Note_on_c, 0, 62, 0
3, 3358, Note_on_c, 0, 59, 0
3, 3358, Note_on_c, 0, 54, 0
3, 3360, Note_on_c, 0, 44, 30
3, 3406, Note_on_c, 0, 44, 0
3, 3408, Note_on_c, 0, 54, 22
3, 3408, Note_on_c, 0, 59, 24
3, 3408, Note_on_c, 0, 66, 26
3, 3454, Note_on_c, 0, 66, 0
3, 3454, Note_on_c, 0, 59, 0
3, 3454, Note_on_c, 0, 54, 0
3, 3456, Note_on_c, 0, 37, 24
3, 3456, Note_on_c, 0, 49, 24
3, 3502, Note_on_c, 0, 49, 0
3, 3502, Note_on_c, 0, 37, 0
3, 3504, Note_on_c, 0, 49, 24
3, 3504, Note_on_c, 0, 56, 26
3, 3504, Note_on_c, 0, 59, 28
3, 3550, Note_on_c, 0, 59, 0
3, 3550, Note_on_c, 0, 56, 0
3, 3550, Note_on_c, 0, 49, 0
3, 3552, Note_on_c, 0, 30, 30
3, 3552, Note_on_c, 0, 42, 30
3, 3598, Note_on_c, 0, 42, 0
3, 3598, Note_on_c, 0, 30, 0
3, 3600, Note_on_c, 0, 49, 36
3, 3600, Note_on_c, 0, 54, 38
3, 3600, Note_on_c, 0, 57, 40
3, 3646, Note_on_c, 0, 57, 0
3, 3646, Note_on_c, 0, 54, 0
3, 3646, Note_on_c, 0, 49, 0
3, 3648, Note_on_c, 0, 40, 32
3, 3648, Note_on_c, 0, 52, 32
3, 3694, Note_on_c, 0, 52, 0
3, 3694, Note_on_c, 0, 40, 0
3, 3696, Note_on_c, 0, 56, 38
3, 3696, Note_on_c, 0, 61, 42
3, 3742, Note_on_c, 0, 61, 0
3, 3742, Note_on_c, 0, 56, 0
3, 3744, Note_on_c, 0, 34, 36
3, 3744, Note_on_c, 0, 46, 36
3, 3790, Note_on_c, 0, 46, 0
3, 3790, Note_on_c, 0, 34, 0
3, 3792, Note_on_c, 0, 56, 34
3, 3792, Note_on_c, 0, 61, 38
3, 3838, Note_on_c, 0, 61, 0
3, 3838, Note_on_c, 0, 56, 0
3, 3840, Note_on_c, 0, 39, 36
3, 3840, Note_on_c, 0, 51, 36
3, 3886, Note_on_c, 0, 51, 0
3, 3886, Note_on_c, 0, 39, 0
3, 3888, Note_on_c, 0, 58, 40
3, 3888, Note_on_c, 0, 61, 44
3, 3934, Note_on_c, 0, 61, 0
3, 3934, Note_on_c, 0, 58, 0
3, 3936, Note_on_c, 0, 38, 44
3, 3936, Note_on_c, 0, 50, 44
3, 3982, Note_on_c, 0, 38, 0
3, 3984, Note_on_c, 0, 54, 44
3, 3984, Note_on_c, 0, 59, 48
3, 4030, Note_on_c, 0, 59, 0
3, 4030, Note_on_c, 0, 54, 0
3, 4030, Note_on_c, 0, 50, 0
3, 4032, Note_on_c, 0, 37, 48
3, 4032, Note_on_c, 0, 49, 48
3, 4078, Note_on_c, 0, 37, 0
3, 4080, Note_on_c, 0, 56, 50
3, 4080, Note_on_c, 0, 59, 54
3, 4126, Note_on_c, 0, 59, 0
3, 4126, Note_on_c, 0, 56, 0
3, 4126, Note_on_c, 0, 49, 0
3, 4128, Note_on_c, 0, 36, 52
3, 4128, Note_on_c, 0, 48, 52
3, 4174, Note_on_c, 0, 36, 0
3, 4176, Note_on_c, 0, 52, 52
3, 4176, Note_on_c, 0, 57, 56
3, 4222, Note_on_c, 0, 57, 0
3, 4222, Note_on_c, 0, 52, 0
3, 4222, Note_on_c, 0, 48, 0
3, 4224, Note_on_c, 0, 35, 60
3, 4224, Note_on_c, 0, 47, 60
3, 4270, Note_on_c, 0, 35, 0
3, 4272, Note_on_c, 0, 54, 72
3, 4272, Note_on_c, 0, 57, 76
3, 4318, Note_on_c, 0, 47, 0
3, 4320, Note_on_c, 0, 57, 0
3, 4320, Note_on_c, 0, 54, 0
3, 4320, Note_on_c, 0, 57, 64
3, 4320, Note_on_c, 0, 60, 68
3, 4368, Note_on_c, 0, 60, 0
3, 4368, Note_on_c, 0, 57, 0
3, 4368, Note_on_c, 0, 55, 68
3, 4368, Note_on_c, 0, 59, 72
3, 4392, Note_on_c, 0, 59, 0
3, 4392, Note_on_c, 0, 55, 0
3, 4392, Note_on_c, 0, 54, 68
3, 4392, Note_on_c, 0, 57, 72
3, 4414, Note_on_c, 0, 57, 0
3, 4414, Note_on_c, 0, 54, 0
3, 4416, Note_on_c, 0, 35, 64
3, 4462, Note_on_c, 0, 35, 0
3, 4464, Note_on_c, 0, 47, 58
3, 4464, Note_on_c, 0, 55, 64
3, 4510, Note_on_c, 0, 55, 0
3, 4510, Note_on_c, 0, 47, 0
3, 4512, Note_on_c, 0, 58, 52
3, 4512, Note_on_c, 0, 64, 58
3, 4558, Note_on_c, 0, 64, 0
3, 4558, Note_on_c, 0, 58, 0
3, 4560, Note_on_c, 0, 47, 42
3, 4606, Note_on_c, 0, 47, 0
3, 4608, Note_on_c, 0, 35, 40
3, 4632, Note_on_c, 0, 35, 0
3, 4656, Note_on_c, 0, 54, 38
3, 4656, Note_on_c, 0, 63, 42
3, 4702, Note_on_c, 0, 63, 0
3, 4704, Note_on_c, 0, 57, 34
3, 4752, Note_on_c, 0, 54, 0
3, 4752, Note_on_c, 0, 49, 30
3, 4776, Note_on_c, 0, 49, 0
3, 4776, Note_on_c, 0, 47, 30
3, 4798, Note_on_c, 0, 47, 0
3, 4798, Note_on_c, 0, 57, 0
3, 4800, Note_on_c, 0, 40, 30
3, 4846, Note_on_c, 0, 40, 0
3, 4848, Note_on_c, 0, 52, 26
3, 4848, Note_on_c, 0, 56, 28
3, 4848, Note_on_c, 0, 61, 30
3, 4896, Note_on_c, 0, 61, 0
3, 4896, Note_on_c, 0, 56, 0
3, 4896, Note_on_c, 0, 52, 0
3, 4896, Note_on_c, 0, 47, 32
3, 4896, Note_on_c, 0, 56, 34
3, 4896, Note_on_c, 0, 59, 36
3, 4948, Note_on_c, 0, 59, 0
3, 4948, Note_on_c, 0, 56, 0
3, 4948, Note_on_c, 0, 47, 0
3, 4950, Note_on_c, 0, 59, 22
3, 4950, Note_on_c, 0, 64, 24
3, 4950, Note_on_c, 0, 68, 26
3, 5002, Note_on_c, 0, 68, 0
3, 5002, Note_on_c, 0, 64, 0
3, 5002, Note_on_c, 0, 59, 0
3, 5004, Note_on_c, 0, 35, 34
3, 5050, Note_on_c, 0, 35, 0
3, 5052, Note_on_c, 0, 47, 34
3, 5052, Note_on_c, 0, 57, 36
3, 5100, Note_on_c, 0, 57, 0
3, 5100, Note_on_c, 0, 47, 0
3, 5100, Note_on_c, 0, 57, 32
3, 5100, Note_on_c, 0, 63, 36
3, 5146, Note_on_c, 0, 63, 0
3, 5146, Note_on_c, 0, 57, 0
3, 5148, Note_on_c, 0, 35, 34
3, 5194, Note_on_c, 0, 35, 0
3, 5196, Note_on_c, 0, 36, 32
3, 5242, Note_on_c, 0, 36, 0
3, 5244, Note_on_c, 0, 52, 28
3, 5244, Note_on_c, 0, 57, 32
3, 5292, Note_on_c, 0, 57, 0
3, 5292, Note_on_c, 0, 52, 0
3, 5292, Note_on_c, 0, 43, 32
3, 5292, Note_on_c, 0, 55, 36
3, 5340, Note_on_c, 0, 55, 0
3, 5340, Note_on_c, 0, 43, 0
3, 5340, Note_on_c, 0, 55, 26
3, 5340, Note_on_c, 0, 64, 30
3, 5386, Note_on_c, 0, 64, 0
3, 5386, Note_on_c, 0, 55, 0
3, 5388, Note_on_c, 0, 31, 38
3, 5434, Note_on_c, 0, 31, 0
3, 5436, Note_on_c, 0, 43, 34
3, 5436, Note_on_c, 0, 53, 38
3, 5484, Note_on_c, 0, 53, 0
3, 5484, Note_on_c, 0, 43, 0
3, 5484, Note_on_c, 0, 53, 34
3, 5484, Note_on_c, 0, 59, 38
3, 5530, Note_on_c, 0, 59, 0
3, 5530, Note_on_c, 0, 53, 0
3, 5532, Note_on_c, 0, 43, 42
3, 5580, Note_on_c, 0, 31, 40
3, 5626, Note_on_c, 0, 43, 0
3, 5626, Note_on_c, 0, 31, 0
3, 5628, Note_on_c, 0, 52, 40
3, 5628, Note_on_c, 0, 58, 44
3, 5674, Note_on_c, 0, 58, 0
3, 5674, Note_on_c, 0, 52, 0
3, 5676, Note_on_c, 0, 30, 46
3, 5676, Note_on_c, 0, 42, 46
3, 5724, Note_on_c, 0, 42, 0
3, 5724, Note_on_c, 0, 30, 0
3, 5724, Note_on_c, 0, 28, 44
3, 5724, Note_on_c, 0, 40, 44
3, 5772, Note_on_c, 0, 40, 0
3, 5772, Note_on_c, 0, 28, 0
3, 5772, Note_on_c, 0, 27, 42
3, 5772, Note_on_c, 0, 39, 42
3, 5818, Note_on_c, 0, 39, 0
3, 5818, Note_on_c, 0, 27, 0
3, 5820, Note_on_c, 0, 47, 44
3, 5820, Note_on_c, 0, 57, 48
3, 5866, Note_on_c, 0, 57, 0
3, 5866, Note_on_c, 0, 47, 0
3, 5868, Note_on_c, 0, 28, 46
3, 5868, Note_on_c, 0, 40, 50
3, 5914, Note_on_c, 0, 40, 0
3, 5914, Note_on_c, 0, 28, 0
3, 5916, Note_on_c, 0, 52, 50
3, 5916, Note_on_c, 0, 56, 52
3, 5916, Note_on_c, 0, 62, 54
3, 5962, Note_on_c, 0, 62, 0
3, 5962, Note_on_c, 0, 56, 0
3, 5962, Note_on_c, 0, 52, 0
3, 5964, Note_on_c, 0, 33, 56
3, 5964, Note_on_c, 0, 45, 56
3, 6022, Note_on_c, 0, 45, 0
3, 6022, Note_on_c, 0, 33, 0
3, 6024, Note_on_c, 0, 54, 46
3, 6024, Note_on_c, 0, 61, 48
3, 6024, Note_on_c, 0, 64, 50
3, 6058, Note_on_c, 0, 64, 0
3, 6058, Note_on_c, 0, 61, 0
3, 6058, Note_on_c, 0, 54, 0
3, 6060, Note_on_c, 0, 35, 46
3, 6060, Note_on_c, 0, 47, 46
3, 6106, Note_on_c, 0, 47, 0
3, 6106, Note_on_c, 0, 35, 0
3, 6108, Note_on_c, 0, 57, 32
3, 6108, Note_on_c, 0, 63, 36
3, 6154, Note_on_c, 0, 63, 0
3, 6154, Note_on_c, 0, 57, 0
3, 6156, Note_on_c, 0, 40, 32
3, 6180, Note_on_c, 0, 40, 0
3, 6180, Note_on_c, 0, 49, 34
3, 6192, Note_on_c, 0, 49, 0
3, 6192, Note_on_c, 0, 46, 33
3, 6204, Note_on_c, 0, 46, 0
3, 6204, Note_on_c, 0, 49, 37
3, 6216, Note_on_c, 0, 49, 0
3, 6216, Note_on_c, 0, 47, 36
3, 6228, Note_on_c, 0, 47, 0
3, 6228, Note_on_c, 0, 52, 42
3, 6240, Note_on_c, 0, 52, 0
3, 6240, Note_on_c, 0, 51, 42
3, 6252, Note_on_c, 0, 51, 0
3, 6252, Note_on_c, 0, 54, 45
3, 6264, Note_on_c, 0, 54, 0
3, 6264, Note_on_c, 0, 52, 44
3, 6276, Note_on_c, 0, 52, 0
3, 6276, Note_on_c, 0, 56, 47
3, 6288, Note_on_c, 0, 56, 0
3, 6288, Note_on_c, 0, 55, 46
3, 6300, Note_on_c, 0, 55, 0
3, 6300, Note_on_c, 0, 57, 38
3, 6312, Note_on_c, 0, 57, 0
3, 6312, Note_on_c, 0, 56, 37
3, 6324, Note_on_c, 0, 56, 0
3, 6324, Note_on_c, 0, 54, 35
3, 6336, Note_on_c, 0, 54, 0
3, 6336, Note_on_c, 0, 52, 33
3, 6348, Note_on_c, 0, 52, 0
3, 6348, Note_on_c, 0, 51, 32
3, 6372, Note_on_c, 0, 37, 36
3, 6384, Note_on_c, 0, 37, 0
3, 6384, Note_on_c, 0, 44, 36
3, 6394, Note_on_c, 0, 51, 0
3, 6396, Note_on_c, 0, 44, 0
3, 6396, Note_on_c, 0, 49, 38
3, 6408, Note_on_c, 0, 49, 0
3, 6408, Note_on_c, 0, 48, 38
3, 6420, Note_on_c, 0, 48, 0
3, 6420, Note_on_c, 0, 51, 42
3, 6432, Note_on_c, 0, 51, 0
3, 6432, Note_on_c, 0, 49, 44
3, 6444, Note_on_c, 0, 49, 0
3, 6444, Note_on_c, 0, 52, 48
3, 6456, Note_on_c, 0, 52, 0
3, 6456, Note_on_c, 0, 51, 46
3, 6468, Note_on_c, 0, 51, 0
3, 6468, Note_on_c, 0, 54, 48
3, 6480, Note_on_c, 0, 54, 0
3, 6480, Note_on_c, 0, 52, 46
3, 6492, Note_on_c, 0, 52, 0
3, 6492, Note_on_c, 0, 57, 40
3, 6504, Note_on_c, 0, 57, 0
3, 6504, Note_on_c, 0, 56, 40
3, 6516, Note_on_c, 0, 56, 0
3, 6516, Note_on_c, 0, 54, 38
3, 6528, Note_on_c, 0, 54, 0
3, 6528, Note_on_c, 0, 52, 36
3, 6540, Note_on_c, 0, 52, 0
3, 6540, Note_on_c, 0, 42, 34
3, 6562, Note_on_c, 0, 42, 0
3, 6564, Note_on_c, 0, 48, 32
3, 6576, Note_on_c, 0, 48, 0
3, 6576, Note_on_c, 0, 49, 36
3, 6588, Note_on_c, 0, 49, 0
3, 6588, Note_on_c, 0, 52, 41
3, 6600, Note_on_c, 0, 52, 0
3, 6600, Note_on_c, 0, 51, 39
3, 6612, Note_on_c, 0, 51, 0
3, 6612, Note_on_c, 0, 54, 40
3, 6624, Note_on_c, 0, 54, 0
3, 6624, Note_on_c, 0, 52, 36
3, 6636, Note_on_c, 0, 52, 0
3, 6636, Note_on_c, 0, 56, 34
3, 6658, Note_on_c, 0, 56, 0
3, 6660, Note_on_c, 0, 49, 32
3, 6672, Note_on_c, 0, 49, 0
3, 6672, Note_on_c, 0, 51, 34
3, 6684, Note_on_c, 0, 51, 0
3, 6684, Note_on_c, 0, 54, 36
3, 6696, Note_on_c, 0, 54, 0
3, 6696, Note_on_c, 0, 52, 34
3, 6708, Note_on_c, 0, 52, 0
3, 6708, Note_on_c, 0, 56, 33
3, 6720, Note_on_c, 0, 56, 0
3, 6720, Note_on_c, 0, 54, 32
3, 6732, Note_on_c, 0, 54, 0
3, 6732, Note_on_c, 0, 52, 36
3, 6732, Note_on_c, 0, 57, 46
3, 6744, Note_on_c, 0, 52, 0
3, 6744, Note_on_c, 0, 51, 34
3, 6756, Note_on_c, 0, 51, 0
3, 6756, Note_on_c, 0, 49, 32
3, 6768, Note_on_c, 0, 49, 0
3, 6768, Note_on_c, 0, 52, 37
3, 6780, Note_on_c, 0, 52, 0
3, 6780, Note_on_c, 0, 51, 35
3, 6792, Note_on_c, 0, 51, 0
3, 6792, Note_on_c, 0, 49, 34
3, 6804, Note_on_c, 0, 49, 0
3, 6804, Note_on_c, 0, 47, 33
3, 6816, Note_on_c, 0, 47, 0
3, 6816, Note_on_c, 0, 51, 38
3, 6828, Note_on_c, 0, 51, 0
3, 6828, Note_on_c, 0, 49, 36
3, 6840, Note_on_c, 0, 49, 0
3, 6840, Note_on_c, 0, 47, 34
3, 6852, Note_on_c, 0, 47, 0
3, 6852, Note_on_c, 0, 46, 32
3, 6864, Note_on_c, 0, 46, 0
3, 6864, Note_on_c, 0, 49, 36
3, 6876, Note_on_c, 0, 49, 0
3, 6876, Note_on_c, 0, 47, 34
3, 6888, Note_on_c, 0, 47, 0
3, 6888, Note_on_c, 0, 42, 32
3, 6900, Note_on_c, 0, 42, 0
3, 6900, Note_on_c, 0, 37, 30
3, 6912, Note_on_c, 0, 37, 0
3, 6912, Note_on_c, 0, 35, 28
3, 6922, Note_on_c, 0, 57, 0
3, 6924, Note_on_c, 0, 35, 0
3, 6924, Note_on_c, 0, 28, 30
3, 6936, Note_on_c, 0, 28, 0
3, 6960, Note_on_c, 0, 47, 32
3, 6972, Note_on_c, 0, 47, 0
3, 6972, Note_on_c, 0, 51, 35
3, 6984, Note_on_c, 0, 51, 0
3, 6984, Note_on_c, 0, 49, 37
3, 6996, Note_on_c, 0, 49, 0
3, 6996, Note_on_c, 0, 52, 41
3, 7008, Note_on_c, 0, 52, 0
3, 7008, Note_on_c, 0, 51, 43
3, 7020, Note_on_c, 0, 51, 0
3, 7020, Note_on_c, 0, 54, 47
3, 7032, Note_on_c, 0, 54, 0
3, 7032, Note_on_c, 0, 52, 46
3, 7044, Note_on_c, 0, 52, 0
3, 7044, Note_on_c, 0, 56, 48
3, 7056, Note_on_c, 0, 56, 0
3, 7056, Note_on_c, 0, 54, 50
3, 7068, Note_on_c, 0, 54, 0
3, 7068, Note_on_c, 0, 57, 52
3, 7080, Note_on_c, 0, 57, 0
3, 7080, Note_on_c, 0, 56, 53
3, 7092, Note_on_c, 0, 56, 0
3, 7092, Note_on_c, 0, 54, 52
3, 7104, Note_on_c, 0, 54, 0
3, 7104, Note_on_c, 0, 52, 50
3, 7116, Note_on_c, 0, 52, 0
3, 7116, Note_on_c, 0, 51, 48
3, 7138, Note_on_c, 0, 51, 0
3, 7140, Note_on_c, 0, 37, 48
3, 7152, Note_on_c, 0, 37, 0
3, 7152, Note_on_c, 0, 44, 46
3, 7164, Note_on_c, 0, 44, 0
3, 7164, Note_on_c, 0, 51, 42
3, 7176, Note_on_c, 0, 51, 0
3, 7176, Note_on_c, 0, 49, 43
3, 7188, Note_on_c, 0, 49, 0
3, 7188, Note_on_c, 0, 52, 44
3, 7200, Note_on_c, 0, 52, 0
3, 7200, Note_on_c, 0, 51, 41
3, 7212, Note_on_c, 0, 51, 0
3, 7212, Note_on_c, 0, 54, 40
3, 7224, Note_on_c, 0, 54, 0
3, 7224, Note_on_c, 0, 52, 42
3, 7236, Note_on_c, 0, 52, 0
3, 7236, Note_on_c, 0, 57, 44
3, 7248, Note_on_c, 0, 57, 0
3, 7248, Note_on_c, 0, 56, 45
3, 7260, Note_on_c, 0, 56, 0
3, 7260, Note_on_c, 0, 55, 46
3, 7272, Note_on_c, 0, 55, 0
3, 7272, Note_on_c, 0, 56, 50
3, 7284, Note_on_c, 0, 56, 0
3, 7284, Note_on_c, 0, 52, 52
3, 7296, Note_on_c, 0, 52, 0
3, 7296, Note_on_c, 0, 49, 54
3, 7306, Note_on_c, 0, 49, 0
3, 7308, Note_on_c, 0, 44, 56
3, 7332, Note_on_c, 0, 44, 0
3, 7332, Note_on_c, 0, 51, 60
3, 7344, Note_on_c, 0, 51, 0
3, 7344, Note_on_c, 0, 56, 66
3, 7356, Note_on_c, 0, 56, 0
3, 7356, Note_on_c, 0, 60, 68
3, 7368, Note_on_c, 0, 60, 0
3, 7368, Note_on_c, 0, 67, 54
3, 7368, Note_on_c, 0, 61, 64
3, 7390, Note_on_c, 0, 61, 0
3, 7390, Note_on_c, 0, 67, 0
3, 7416, Note_on_c, 0, 44, 62
3, 7428, Note_on_c, 0, 44, 0
3, 7428, Note_on_c, 0, 51, 66
3, 7440, Note_on_c, 0, 51, 0
3, 7440, Note_on_c, 0, 56, 74
3, 7452, Note_on_c, 0, 56, 0
3, 7452, Note_on_c, 0, 60, 78
3, 7464, Note_on_c, 0, 60, 0
3, 7464, Note_on_c, 0, 67, 72
3, 7464, Note_on_c, 0, 61, 78
3, 7486, Note_on_c, 0, 61, 0
3, 7486, Note_on_c, 0, 67, 0
3, 7512, Note_on_c, 0, 32, 64
3, 7524, Note_on_c, 0, 32, 0
3, 7524, Note_on_c, 0, 44, 69
3, 7536, Note_on_c, 0, 44, 0
3, 7536, Note_on_c, 0, 51, 71
3, 7548, Note_on_c, 0, 51, 0
3, 7548, Note_on_c, 0, 60, 72
3, 7558, Note_on_c, 0, 60, 0
3, 7752, Note_on_c, 0, 39, 56
3, 7776, Note_on_c, 0, 39, 0
3, 7776, Note_on_c, 0, 37, 53
3, 7800, Note_on_c, 0, 37, 0
3, 7800, Note_on_c, 0, 36, 56
3, 7812, Note_on_c, 0, 36, 0
3, 7812, Note_on_c, 0, 44, 54
3, 7836, Note_on_c, 0, 44, 0
3, 7836, Note_on_c, 0, 44, 52
3, 7848, Note_on_c, 0, 44, 0
3, 7848, Note_on_c, 0, 32, 60
3, 7860, Note_on_c, 0, 32, 0
3, 7860, Note_on_c, 0, 44, 52
3, 7872, Note_on_c, 0, 44, 0
3, 7872, Note_on_c, 0, 45, 54
3, 7884, Note_on_c, 0, 45, 0
3, 7884, Note_on_c, 0, 44, 50
3, 7894, Note_on_c, 0, 44, 0
3, 7896, Note_on_c, 0, 37, 54
3, 7908, Note_on_c, 0, 37, 0
3, 7908, Note_on_c, 0, 44, 58
3, 7920, Note_on_c, 0, 44, 0
3, 7920, Note_on_c, 0, 48, 62
3, 7932, Note_on_c, 0, 48, 0
3, 7932, Note_on_c, 0, 49, 60
3, 7942, Note_on_c, 0, 49, 0
3, 7944, Note_on_c, 0, 42, 54
3, 7956, Note_on_c, 0, 42, 0
3, 7956, Note_on_c, 0, 49, 58
3, 7968, Note_on_c, 0, 49, 0
3, 7968, Note_on_c, 0, 56, 64
3, 7980, Note_on_c, 0, 56, 0
3, 7980, Note_on_c, 0, 54, 62
3, 7990, Note_on_c, 0, 54, 0
3, 7992, Note_on_c, 0, 37, 58
3, 8004, Note_on_c, 0, 37, 0
3, 8016, Note_on_c, 0, 54, 78
3, 8028, Note_on_c, 0, 54, 0
3, 8028, Note_on_c, 0, 52, 76
3, 8040, Note_on_c, 0, 52, 0
3, 8040, Note_on_c, 0, 51, 48
3, 8052, Note_on_c, 0, 51, 0
3, 8052, Note_on_c, 0, 49, 50
3, 8064, Note_on_c, 0, 49, 0
3, 8064, Note_on_c, 0, 47, 48
3, 8076, Note_on_c, 0, 47, 0
3, 8076, Note_on_c, 0, 42, 52
3, 8086, Note_on_c, 0, 42, 0
3, 8088, Note_on_c, 0, 35, 54
3, 8100, Note_on_c, 0, 35, 0
3, 8100, Note_on_c, 0, 52, 50
3, 8112, Note_on_c, 0, 52, 0
3, 8112, Note_on_c, 0, 51, 48
3, 8124, Note_on_c, 0, 51, 0
3, 8124, Note_on_c, 0, 56, 55
3, 8136, Note_on_c, 0, 56, 0
3, 8136, Note_on_c, 0, 56, 56
3, 8160, Note_on_c, 0, 56, 0
3, 8160, Note_on_c, 0, 54, 52
3, 8172, Note_on_c, 0, 54, 0
3, 8172, Note_on_c, 0, 52, 50
3, 8182, Note_on_c, 0, 52, 0
3, 8184, Note_on_c, 0, 51, 50
3, 8208, Note_on_c, 0, 51, 0
3, 8208, Note_on_c, 0, 52, 53
3, 8220, Note_on_c, 0, 52, 0
3, 8220, Note_on_c, 0, 54, 58
3, 8232, Note_on_c, 0, 54, 0
3, 8232, Note_on_c, 0, 54, 60
3, 8244, Note_on_c, 0, 54, 0
3, 8244, Note_on_c, 0, 47, 54
3, 8256, Note_on_c, 0, 47, 0
3, 8256, Note_on_c, 0, 49, 56
3, 8268, Note_on_c, 0, 49, 0
3, 8268, Note_on_c, 0, 47, 53
3, 8278, Note_on_c, 0, 47, 0
3, 8280, Note_on_c, 0, 40, 56
3, 8292, Note_on_c, 0, 40, 0
3, 8292, Note_on_c, 0, 47, 54
3, 8304, Note_on_c, 0, 47, 0
3, 8304, Note_on_c, 0, 52, 53
3, 8316, Note_on_c, 0, 52, 0
3, 8316, Note_on_c, 0, 40, 53
3, 8326, Note_on_c, 0, 40, 0
3, 8328, Note_on_c, 0, 39, 54
3, 8340, Note_on_c, 0, 39, 0
3, 8340, Note_on_c, 0, 56, 58
3, 8352, Note_on_c, 0, 56, 0
3, 8352, Note_on_c, 0, 53, 56
3, 8364, Note_on_c, 0, 53, 0
3, 8364, Note_on_c, 0, 55, 58
3, 8374, Note_on_c, 0, 55, 0
3, 8376, Note_on_c, 0, 44, 64
3, 8388, Note_on_c, 0, 44, 0
3, 8388, Note_on_c, 0, 59, 70
3, 8400, Note_on_c, 0, 59, 0
3, 8400, Note_on_c, 0, 58, 74
3, 8412, Note_on_c, 0, 58, 0
3, 8412, Note_on_c, 0, 56, 72
3, 8424, Note_on_c, 0, 56, 0
3, 8424, Note_on_c, 0, 55, 66
3, 8436, Note_on_c, 0, 55, 0
3, 8436, Note_on_c, 0, 52, 64
3, 8448, Note_on_c, 0, 52, 0
3, 8448, Note_on_c, 0, 51, 62
3, 8460, Note_on_c, 0, 51, 0
3, 8460, Note_on_c, 0, 39, 60
3, 8470, Note_on_c, 0, 39, 0
3, 8472, Note_on_c, 0, 44, 50
3, 8484, Note_on_c, 0, 51, 56
3, 8508, Note_on_c, 0, 51, 0
3, 8508, Note_on_c, 0, 51, 48
3, 8518, Note_on_c, 0, 51, 0
3, 8518, Note_on_c, 0, 44, 0
3, 8520, Note_on_c, 0, 39, 54
3, 8532, Note_on_c, 0, 51, 56
3, 8556, Note_on_c, 0, 51, 0
3, 8556, Note_on_c, 0, 51, 48
3, 8566, Note_on_c, 0, 51, 0
3, 8566, Note_on_c, 0, 39, 0
3, 8568, Note_on_c, 0, 44, 56
3, 8580, Note_on_c, 0, 44, 0
3, 8580, Note_on_c, 0, 51, 68
3, 8588, Note_on_c, 0, 51, 0
3, 8588, Note_on_c, 0, 54, 60
3, 8592, Note_on_c, 0, 54, 0
3, 8592, Note_on_c, 0, 52, 58
3, 8604, Note_on_c, 0, 52, 0
3, 8604, Note_on_c, 0, 51, 56
3, 8616, Note_on_c, 0, 51, 0
3, 8616, Note_on_c, 0, 50, 52
3, 8628, Note_on_c, 0, 50, 0
3, 8628, Note_on_c, 0, 51, 54
3, 8640, Note_on_c, 0, 51, 0
3, 8640, Note_on_c, 0, 39, 54
3, 8652, Note_on_c, 0, 39, 0
3, 8652, Note_on_c, 0, 51, 50
3, 8662, Note_on_c, 0, 51, 0
3, 8664, Note_on_c, 0, 44, 48
3, 8676, Note_on_c, 0, 51, 54
3, 8700, Note_on_c, 0, 51, 0
3, 8700, Note_on_c, 0, 51, 48
3, 8710, Note_on_c, 0, 51, 0
3, 8710, Note_on_c, 0, 44, 0
3, 8712, Note_on_c, 0, 39, 50
3, 8724, Note_on_c, 0, 51, 54
3, 8748, Note_on_c, 0, 51, 0
3, 8748, Note_on_c, 0, 51, 48
3, 8758, Note_on_c, 0, 51, 0
3, 8758, Note_on_c, 0, 39, 0
3, 8760, Note_on_c, 0, 44, 48
3, 8772, Note_on_c, 0, 44, 0
3, 8772, Note_on_c, 0, 51, 44
3, 8784, Note_on_c, 0, 51, 0
3, 8784, Note_on_c, 0, 39, 46
3, 8796, Note_on_c, 0, 39, 0
3, 8796, Note_on_c, 0, 51, 44
3, 8808, Note_on_c, 0, 51, 0
3, 8808, Note_on_c, 0, 44, 48
3, 8820, Note_on_c, 0, 44, 0
3, 8820, Note_on_c, 0, 51, 43
3, 8832, Note_on_c, 0, 51, 0
3, 8832, Note_on_c, 0, 39, 46
3, 8844, Note_on_c, 0, 39, 0
3, 8844, Note_on_c, 0, 51, 42
3, 8856, Note_on_c, 0, 51, 0
3, 8856, Note_on_c, 0, 44, 43
3, 8868, Note_on_c, 0, 44, 0
3, 8868, Note_on_c, 0, 51, 42
3, 8880, Note_on_c, 0, 51, 0
3, 8880, Note_on_c, 0, 37, 45
3, 8892, Note_on_c, 0, 37, 0
3, 8892, Note_on_c, 0, 49, 41
3, 8904, Note_on_c, 0, 49, 0
3, 8904, Note_on_c, 0, 42, 42
3, 8916, Note_on_c, 0, 42, 0
3, 8916, Note_on_c, 0, 49, 41
3, 8928, Note_on_c, 0, 49, 0
3, 8928, Note_on_c, 0, 37, 43
3, 8940, Note_on_c, 0, 37, 0
3, 8940, Note_on_c, 0, 49, 40
3, 8952, Note_on_c, 0, 49, 0
3, 8952, Note_on_c, 0, 42, 40
3, 8964, Note_on_c, 0, 42, 0
3, 8964, Note_on_c, 0, 49, 39
3, 8976, Note_on_c, 0, 49, 0
3, 8976, Note_on_c, 0, 37, 42
3, 8988, Note_on_c, 0, 37, 0
3, 8988, Note_on_c, 0, 49, 38
3, 9000, Note_on_c, 0, 49, 0
3, 9000, Note_on_c, 0, 42, 39
3, 9012, Note_on_c, 0, 42, 0
3, 9012, Note_on_c, 0, 49, 38
3, 9024, Note_on_c, 0, 49, 0
3, 9024, Note_on_c, 0, 35, 40
3, 9036, Note_on_c, 0, 35, 0
3, 9036, Note_on_c, 0, 47, 36
3, 9046, Note_on_c, 0, 47, 0
3, 9048, Note_on_c, 0, 34, 42
3, 9060, Note_on_c, 0, 34, 0
3, 9060, Note_on_c, 0, 46, 54
3, 9072, Note_on_c, 0, 46, 0
3, 9072, Note_on_c, 0, 52, 62
3, 9084, Note_on_c, 0, 52, 0
3, 9084, Note_on_c, 0, 55, 60
3, 9096, Note_on_c, 0, 55, 0
3, 9096, Note_on_c, 0, 54, 58
3, 9118, Note_on_c, 0, 54, 0
3, 9144, Note_on_c, 0, 34, 76
3, 9156, Note_on_c, 0, 34, 0
3, 9156, Note_on_c, 0, 46, 70
3, 9168, Note_on_c, 0, 46, 0
3, 9168, Note_on_c, 0, 52, 74
3, 9180, Note_on_c, 0, 52, 0
3, 9180, Note_on_c, 0, 55, 80
3, 9192, Note_on_c, 0, 55, 0
3, 9192, Note_on_c, 0, 54, 76
3, 9214, Note_on_c, 0, 54, 0
3, 9240, Note_on_c, 0, 34, 88
3, 9252, Note_on_c, 0, 34, 0
3, 9252, Note_on_c, 0, 46, 84
3, 9264, Note_on_c, 0, 46, 0
3, 9264, Note_on_c, 0, 52, 90
3, 9276, Note_on_c, 0, 52, 0
3, 9276, Note_on_c, 0, 55, 93
3, 9288, Note_on_c, 0, 55, 0
3, 9288, Note_on_c, 0, 60, 100
3, 9310, Note_on_c, 0, 60, 0
3, 9336, Note_on_c, 0, 35, 68
3, 9372, Note_on_c, 0, 35, 0
3, 9372, Note_on_c, 0, 36, 62
3, 9384, Note_on_c, 0, 36, 0
3, 9384, Note_on_c, 0, 37, 69
3, 9396, Note_on_c, 0, 37, 0
3, 9396, Note_on_c, 0, 38, 72
3, 9408, Note_on_c, 0, 38, 0
3, 9408, Note_on_c, 0, 39, 58
3, 9411, Note_on_c, 0, 39, 0
3, 9411, Note_on_c, 0, 40, 54
3, 9414, Note_on_c, 0, 40, 0
3, 9414, Note_on_c, 0, 39, 58
3, 9417, Note_on_c, 0, 39, 0
3, 9417, Note_on_c, 0, 40, 54
3, 9420, Note_on_c, 0, 40, 0
3, 9420, Note_on_c, 0, 39, 58
3, 9423, Note_on_c, 0, 39, 0
3, 9423, Note_on_c, 0, 40, 54
3, 9426, Note_on_c, 0, 40, 0
3, 9426, Note_on_c, 0, 39, 54
3, 9429, Note_on_c, 0, 39, 0
3, 9429, Note_on_c, 0, 38, 66
3, 9432, Note_on_c, 0, 38, 0
3, 9432, Note_on_c, 0, 39, 62
3, 9436, Note_on_c, 0, 39, 0
3, 9436, Note_on_c, 0, 40, 70
3, 9448, Note_on_c, 0, 48, 55
3, 9470, Note_on_c, 0, 48, 0
3, 9472, Note_on_c, 0, 48, 54
3, 9482, Note_on_c, 0, 40, 0
3, 9484, Note_on_c, 0, 43, 66
3, 9494, Note_on_c, 0, 48, 0
3, 9496, Note_on_c, 0, 48, 53
3, 9508, Note_on_c, 0, 43, 0
3, 9508, Note_on_c, 0, 42, 64
3, 9518, Note_on_c, 0, 48, 0
3, 9520, Note_on_c, 0, 42, 0
3, 9520, Note_on_c, 0, 40, 62
3, 9532, Note_on_c, 0, 40, 0
3, 9532, Note_on_c, 0, 39, 60
3, 9544, Note_on_c, 0, 47, 52
3, 9556, Note_on_c, 0, 39, 0
3, 9556, Note_on_c, 0, 40, 63
3, 9566, Note_on_c, 0, 47, 0
3, 9568, Note_on_c, 0, 40, 0
3, 9568, Note_on_c, 0, 42, 66
3, 9568, Note_on_c, 0, 47, 53
3, 9580, Note_on_c, 0, 42, 0
3, 9580, Note_on_c, 0, 42, 68
3, 9590, Note_on_c, 0, 47, 0
3, 9592, Note_on_c, 0, 47, 55
3, 9604, Note_on_c, 0, 42, 0
3, 9604, Note_on_c, 0, 36, 64
3, 9614, Note_on_c, 0, 47, 0
3, 9616, Note_on_c, 0, 36, 0
3, 9616, Note_on_c, 0, 35, 62
3, 9616, Note_on_c, 0, 47, 58
3, 9626, Note_on_c, 0, 47, 0
3, 9626, Note_on_c, 0, 35, 0
3, 9628, Note_on_c, 0, 40, 56
3, 9640, Note_on_c, 0, 40, 0
3, 9640, Note_on_c, 0, 55, 64
3, 9652, Note_on_c, 0, 55, 0
3, 9652, Note_on_c, 0, 54, 62
3, 9664, Note_on_c, 0, 54, 0
3, 9664, Note_on_c, 0, 52, 60
3, 9674, Note_on_c, 0, 52, 0
3, 9676, Note_on_c, 0, 45, 54
3, 9688, Note_on_c, 0, 45, 0
3, 9688, Note_on_c, 0, 60, 68
3, 9700, Note_on_c, 0, 60, 0
3, 9700, Note_on_c, 0, 59, 66
3, 9712, Note_on_c, 0, 59, 0
3, 9712, Note_on_c, 0, 57, 64
3, 9722, Note_on_c, 0, 57, 0
3, 9724, Note_on_c, 0, 40, 60
3, 9736, Note_on_c, 0, 40, 0
3, 9736, Note_on_c, 0, 59, 76
3, 9748, Note_on_c, 0, 59, 0
3, 9748, Note_on_c, 0, 57, 75
3, 9760, Note_on_c, 0, 57, 0
3, 9760, Note_on_c, 0, 55, 70
3, 9772, Note_on_c, 0, 55, 0
3, 9772, Note_on_c, 0, 54, 56
3, 9784, Note_on_c, 0, 54, 0
3, 9784, Note_on_c, 0, 52, 54
3, 9796, Note_on_c, 0, 52, 0
3, 9796, Note_on_c, 0, 50, 52
3, 9808, Note_on_c, 0, 50, 0
3, 9808, Note_on_c, 0, 45, 50
3, 9820, Note_on_c, 0, 45, 0
3, 9820, Note_on_c, 0, 38, 40
3, 9830, Note_on_c, 0, 38, 0
3, 9832, Note_on_c, 0, 55, 44
3, 9844, Note_on_c, 0, 55, 0
3, 9844, Note_on_c, 0, 54, 43
3, 9856, Note_on_c, 0, 54, 0
3, 9856, Note_on_c, 0, 59, 46
3, 9868, Note_on_c, 0, 59, 0
3, 9868, Note_on_c, 0, 59, 46
3, 9892, Note_on_c, 0, 59, 0
3, 9892, Note_on_c, 0, 57, 42
3, 9904, Note_on_c, 0, 57, 0
3, 9904, Note_on_c, 0, 55, 41
3, 9914, Note_on_c, 0, 55, 0
3, 9916, Note_on_c, 0, 54, 40
3, 9940, Note_on_c, 0, 54, 0
3, 9940, Note_on_c, 0, 55, 42
3, 9952, Note_on_c, 0, 55, 0
3, 9952, Note_on_c, 0, 57, 44
3, 9962, Note_on_c, 0, 57, 0
3, 9964, Note_on_c, 0, 57, 46
3, 9976, Note_on_c, 0, 57, 0
3, 9976, Note_on_c, 0, 50, 44
3, 9988, Note_on_c, 0, 50, 0
3, 9988, Note_on_c, 0, 52, 46
3, 10000, Note_on_c, 0, 52, 0
3, 10000, Note_on_c, 0, 50, 44
3, 10012, Note_on_c, 0, 50, 0
3, 10012, Note_on_c, 0, 43, 50
3, 10022, Note_on_c, 0, 43, 0
3, 10024, Note_on_c, 0, 59, 54
3, 10036, Note_on_c, 0, 59, 0
3, 10036, Note_on_c, 0, 57, 56
3, 10048, Note_on_c, 0, 57, 0
3, 10048, Note_on_c, 0, 55, 57
3, 10060, Note_on_c, 0, 55, 0
3, 10060, Note_on_c, 0, 54, 55
3, 10072, Note_on_c, 0, 54, 0
3, 10072, Note_on_c, 0, 53, 53
3, 10084, Note_on_c, 0, 53, 0
3, 10084, Note_on_c, 0, 54, 54
3, 10096, Note_on_c, 0, 54, 0
3, 10096, Note_on_c, 0, 42, 53
3, 10108, Note_on_c, 0, 42, 0
3, 10108, Note_on_c, 0, 35, 54
3, 10118, Note_on_c, 0, 35, 0
3, 10120, Note_on_c, 0, 62, 64
3, 10132, Note_on_c, 0, 62, 0
3, 10132, Note_on_c, 0, 61, 66
3, 10144, Note_on_c, 0, 61, 0
3, 10144, Note_on_c, 0, 59, 62
3, 10156, Note_on_c, 0, 59, 0
3, 10156, Note_on_c, 0, 58, 54
3, 10168, Note_on_c, 0, 58, 0
3, 10168, Note_on_c, 0, 55, 56
3, 10180, Note_on_c, 0, 55, 0
3, 10180, Note_on_c, 0, 54, 60
3, 10192, Note_on_c, 0, 54, 0
3, 10192, Note_on_c, 0, 42, 56
3, 10202, Note_on_c, 0, 42, 0
3, 10204, Note_on_c, 0, 47, 50
3, 10216, Note_on_c, 0, 54, 50
3, 10240, Note_on_c, 0, 54, 0
3, 10240, Note_on_c, 0, 54, 50
3, 10250, Note_on_c, 0, 54, 0
3, 10250, Note_on_c, 0, 47, 0
3, 10252, Note_on_c, 0, 42, 50
3, 10264, Note_on_c, 0, 54, 50
3, 10288, Note_on_c, 0, 54, 0
3, 10288, Note_on_c, 0, 54, 50
3, 10298, Note_on_c, 0, 54, 0
3, 10298, Note_on_c, 0, 42, 0
3, 10300, Note_on_c, 0, 47, 58
3, 10312, Note_on_c, 0, 47, 0
3, 10312, Note_on_c, 0, 54, 60
3, 10320, Note_on_c, 0, 54, 0
3, 10320, Note_on_c, 0, 57, 54
3, 10324, Note_on_c, 0, 57, 0
3, 10324, Note_on_c, 0, 55, 52
3, 10336, Note_on_c, 0, 55, 0
3, 10336, Note_on_c, 0, 54, 54
3, 10348, Note_on_c, 0, 54, 0
3, 10348, Note_on_c, 0, 53, 48
3, 10360, Note_on_c, 0, 53, 0
3, 10360, Note_on_c, 0, 54, 54
3, 10372, Note_on_c, 0, 54, 0
3, 10372, Note_on_c, 0, 42, 56
3, 10384, Note_on_c, 0, 42, 0
3, 10384, Note_on_c, 0, 54, 62
3, 10394, Note_on_c, 0, 54, 0
3, 10396, Note_on_c, 0, 47, 38
3, 10408, Note_on_c, 0, 54, 48
3, 10432, Note_on_c, 0, 54, 0
3, 10432, Note_on_c, 0, 54, 40
3, 10442, Note_on_c, 0, 54, 0
3, 10442, Note_on_c, 0, 47, 0
3, 10444, Note_on_c, 0, 42, 40
3, 10456, Note_on_c, 0, 54, 47
3, 10480, Note_on_c, 0, 54, 0
3, 10480, Note_on_c, 0, 54, 39
3, 10490, Note_on_c, 0, 54, 0
3, 10490, Note_on_c, 0, 42, 0
3, 10492, Note_on_c, 0, 47, 39
3, 10504, Note_on_c, 0, 47, 0
3, 10504, Note_on_c, 0, 54, 38
3, 10516, Note_on_c, 0, 54, 0
3, 10516, Note_on_c, 0, 42, 43
3, 10528, Note_on_c, 0, 42, 0
3, 10528, Note_on_c, 0, 54, 40
3, 10540, Note_on_c, 0, 54, 0
3, 10540, Note_on_c, 0, 47, 41
3, 10552, Note_on_c, 0, 47, 0
3, 10552, Note_on_c, 0, 54, 38
3, 10564, Note_on_c, 0, 54, 0
3, 10564, Note_on_c, 0, 42, 42
3, 10576, Note_on_c, 0, 42, 0
3, 10576, Note_on_c, 0, 54, 37
3, 10588, Note_on_c, 0, 54, 0
3, 10588, Note_on_c, 0, 47, 40
3, 10600, Note_on_c, 0, 47, 0
3, 10600, Note_on_c, 0, 54, 38
3, 10612, Note_on_c, 0, 54, 0
3, 10612, Note_on_c, 0, 40, 42
3, 10624, Note_on_c, 0, 40, 0
3, 10624, Note_on_c, 0, 52, 38
3, 10636, Note_on_c, 0, 52, 0
3, 10636, Note_on_c, 0, 45, 41
3, 10648, Note_on_c, 0, 45, 0
3, 10648, Note_on_c, 0, 52, 39
3, 10660, Note_on_c, 0, 52, 0
3, 10660, Note_on_c, 0, 40, 44
3, 10672, Note_on_c, 0, 40, 0
3, 10672, Note_on_c, 0, 52, 40
3, 10684, Note_on_c, 0, 52, 0
3, 10684, Note_on_c, 0, 45, 38
3, 10696, Note_on_c, 0, 45, 0
3, 10696, Note_on_c, 0, 52, 35
3, 10708, Note_on_c, 0, 52, 0
3, 10708, Note_on_c, 0, 40, 38
3, 10720, Note_on_c, 0, 40, 0
3, 10720, Note_on_c, 0, 52, 34
3, 10732, Note_on_c, 0, 52, 0
3, 10732, Note_on_c, 0, 45, 35
3, 10744, Note_on_c, 0, 45, 0
3, 10744, Note_on_c, 0, 52, 33
3, 10756, Note_on_c, 0, 52, 0
3, 10756, Note_on_c, 0, 40, 36
3, 10768, Note_on_c, 0, 40, 0
3, 10768, Note_on_c, 0, 52, 32
3, 10778, Note_on_c, 0, 52, 0
3, 10780, Note_on_c, 0, 39, 46
3, 10792, Note_on_c, 0, 39, 0
3, 10792, Note_on_c, 0, 48, 38
3, 10804, Note_on_c, 0, 48, 0
3, 10804, Note_on_c, 0, 53, 44
3, 10816, Note_on_c, 0, 53, 0
3, 10816, Note_on_c, 0, 57, 52
3, 10828, Note_on_c, 0, 57, 0
3, 10828, Note_on_c, 0, 56, 44
3, 10828, Note_on_c, 0, 59, 54
3, 10850, Note_on_c, 0, 59, 0
3, 10850, Note_on_c, 0, 56, 0
3, 10876, Note_on_c, 0, 39, 62
3, 10888, Note_on_c, 0, 39, 0
3, 10888, Note_on_c, 0, 48, 60
3, 10900, Note_on_c, 0, 48, 0
3, 10900, Note_on_c, 0, 53, 64
3, 10912, Note_on_c, 0, 53, 0
3, 10912, Note_on_c, 0, 57, 66
3, 10924, Note_on_c, 0, 57, 0
3, 10924, Note_on_c, 0, 56, 58
3, 10924, Note_on_c, 0, 59, 66
3, 10946, Note_on_c, 0, 59, 0
3, 10946, Note_on_c, 0, 56, 0
3, 10972, Note_on_c, 0, 39, 68
3, 10984, Note_on_c, 0, 39, 0
3, 10984, Note_on_c, 0, 48, 66
3, 10996, Note_on_c, 0, 48, 0
3, 10996, Note_on_c, 0, 53, 72
3, 11008, Note_on_c, 0, 53, 0
3, 11008, Note_on_c, 0, 57, 76
3, 11020, Note_on_c, 0, 57, 0
3, 11020, Note_on_c, 0, 60, 74
3, 11032, Note_on_c, 0, 60, 0
3, 11032, Note_on_c, 0, 65, 80
3, 11044, Note_on_c, 0, 65, 0
3, 11044, Note_on_c, 0, 69, 82
3, 11056, Note_on_c, 0, 69, 0
3, 11056, Note_on_c, 0, 81, 90
3, 11068, Note_on_c, 0, 81, 0
3, 11068, Note_on_c, 0, 77, 85
3, 11080, Note_on_c, 0, 77, 0
3, 11080, Note_on_c, 0, 72, 76
3, 11092, Note_on_c, 0, 72, 0
3, 11092, Note_on_c, 0, 69, 72
3, 11104, Note_on_c, 0, 69, 0
3, 11104, Note_on_c, 0, 65, 71
3, 11116, Note_on_c, 0, 65, 0
3, 11116, Note_on_c, 0, 60, 70
3, 11128, Note_on_c, 0, 60, 0
3, 11128, Note_on_c, 0, 53, 68
3, 11140, Note_on_c, 0, 53, 0
3, 11140, Note_on_c, 0, 48, 62
3, 11152, Note_on_c, 0, 48, 0
3, 11152, Note_on_c, 0, 36, 54
3, 11176, Note_on_c, 0, 36, 0
3, 11176, Note_on_c, 0, 35, 45
3, 11222, Note_on_c, 0, 35, 0
3, 11224, Note_on_c, 0, 52, 30
3, 11224, Note_on_c, 0, 56, 32
3, 11224, Note_on_c, 0, 61, 34
3, 11272, Note_on_c, 0, 61, 0
3, 11272, Note_on_c, 0, 56, 0
3, 11272, Note_on_c, 0, 52, 0
3, 11272, Note_on_c, 0, 47, 34
3, 11272, Note_on_c, 0, 56, 36
3, 11272, Note_on_c, 0, 59, 38
3, 11318, Note_on_c, 0, 59, 0
3, 11318, Note_on_c, 0, 56, 0
3, 11318, Note_on_c, 0, 47, 0
3, 11320, Note_on_c, 0, 59, 33
3, 11320, Note_on_c, 0, 68, 37
3, 11366, Note_on_c, 0, 68, 0
3, 11366, Note_on_c, 0, 59, 0
3, 11368, Note_on_c, 0, 35, 38
3, 11414, Note_on_c, 0, 35, 0
3, 11416, Note_on_c, 0, 54, 34
3, 11416, Note_on_c, 0, 59, 36
3, 11416, Note_on_c, 0, 63, 38
3, 11464, Note_on_c, 0, 63, 0
3, 11464, Note_on_c, 0, 59, 0
3, 11464, Note_on_c, 0, 54, 0
3, 11464, Note_on_c, 0, 51, 33
3, 11464, Note_on_c, 0, 54, 35
3, 11464, Note_on_c, 0, 59, 37
3, 11510, Note_on_c, 0, 59, 0
3, 11510, Note_on_c, 0, 54, 0
3, 11510, Note_on_c, 0, 51, 0
3, 11512, Note_on_c, 0, 50, 26
3, 11512, Note_on_c, 0, 54, 28
3, 11512, Note_on_c, 0, 62, 30
3, 11558, Note_on_c, 0, 62, 0
3, 11558, Note_on_c, 0, 54, 0
3, 11558, Note_on_c, 0, 50, 0
3, 11560, Note_on_c, 0, 33, 34
3, 11560, Note_on_c, 0, 45, 32
3, 11606, Note_on_c, 0, 45, 0
3, 11606, Note_on_c, 0, 33, 0
3, 11608, Note_on_c, 0, 50, 26
3, 11608, Note_on_c, 0, 54, 28
3, 11608, Note_on_c, 0, 59, 30
3, 11656, Note_on_c, 0, 59, 0
3, 11656, Note_on_c, 0, 54, 0
3, 11656, Note_on_c, 0, 50, 0
3, 11656, Note_on_c, 0, 45, 30
3, 11656, Note_on_c, 0, 54, 32
3, 11656, Note_on_c, 0, 57, 34
3, 11702, Note_on_c, 0, 57, 0
3, 11702, Note_on_c, 0, 54, 0
3, 11702, Note_on_c, 0, 45, 0
3, 11704, Note_on_c, 0, 57, 26
3, 11704, Note_on_c, 0, 62, 28
3, 11704, Note_on_c, 0, 66, 30
3, 11750, Note_on_c, 0, 66, 0
3, 11750, Note_on_c, 0, 62, 0
3, 11750, Note_on_c, 0, 57, 0
3, 11752, Note_on_c, 0, 33, 32
3, 11798, Note_on_c, 0, 33, 0
3, 11800, Note_on_c, 0, 52, 26
3, 11800, Note_on_c, 0, 57, 28
3, 11800, Note_on_c, 0, 61, 30
3, 11848, Note_on_c, 0, 61, 0
3, 11848, Note_on_c, 0, 57, 0
3, 11848, Note_on_c, 0, 52, 0
3, 11848, Note_on_c, 0, 49, 28
3, 11848, Note_on_c, 0, 52, 30
3, 11848, Note_on_c, 0, 57, 32
3, 11896, Note_on_c, 0, 57, 0
3, 11896, Note_on_c, 0, 52, 0
3, 11896, Note_on_c, 0, 49, 0
3, 11896, Note_on_c, 0, 48, 36
3, 11896, Note_on_c, 0, 52, 38
3, 11896, Note_on_c, 0, 60, 40
3, 11942, Note_on_c, 0, 60, 0
3, 11942, Note_on_c, 0, 52, 0
3, 11942, Note_on_c, 0, 48, 0
3, 11944, Note_on_c, 0, 33, 34
3, 11944, Note_on_c, 0, 45, 34
3, 11990, Note_on_c, 0, 45, 0
3, 11990, Note_on_c, 0, 33, 0
3, 11992, Note_on_c, 0, 51, 38
3, 11992, Note_on_c, 0, 54, 40
3, 11992, Note_on_c, 0, 60, 42
3, 12038, Note_on_c, 0, 60, 0
3, 12038, Note_on_c, 0, 54, 0
3, 12038, Note_on_c, 0, 51, 0
3, 12040, Note_on_c, 0, 32, 44
3, 12040, Note_on_c, 0, 44, 44
3, 12088, Note_on_c, 0, 44, 0
3, 12088, Note_on_c, 0, 32, 0
3, 12088, Note_on_c, 0, 30, 46
3, 12088, Note_on_c, 0, 42, 46
3, 12136, Note_on_c, 0, 42, 0
3, 12136, Note_on_c, 0, 30, 0
3, 12136, Note_on_c, 0, 29, 44
3, 12136, Note_on_c, 0, 41, 44
3, 12182, Note_on_c, 0, 41, 0
3, 12182, Note_on_c, 0, 29, 0
3, 12184, Note_on_c, 0, 49, 40
3, 12184, Note_on_c, 0, 56, 42
3, 12184, Note_on_c, 0, 59, 44
3, 12230, Note_on_c, 0, 59, 0
3, 12230, Note_on_c, 0, 56, 0
3, 12230, Note_on_c, 0, 49, 0
3, 12232, Note_on_c, 0, 30, 40
3, 12232, Note_on_c, 0, 42, 40
3, 12278, Note_on_c, 0, 42, 0
3, 12278, Note_on_c, 0, 30, 0
3, 12280, Note_on_c, 0, 49, 54
3, 12280, Note_on_c, 0, 54, 56
3, 12280, Note_on_c, 0, 57, 58
3, 12326, Note_on_c, 0, 57, 0
3, 12326, Note_on_c, 0, 54, 0
3, 12326, Note_on_c, 0, 49, 0
3, 12328, Note_on_c, 0, 32, 48
3, 12328, Note_on_c, 0, 44, 48
3, 12374, Note_on_c, 0, 44, 0
3, 12374, Note_on_c, 0, 32, 0
3, 12376, Note_on_c, 0, 52, 54
3, 12376, Note_on_c, 0, 59, 56
3, 12376, Note_on_c, 0, 62, 58
3, 12422, Note_on_c, 0, 62, 0
3, 12422, Note_on_c, 0, 59, 0
3, 12422, Note_on_c, 0, 52, 0
3, 12424, Note_on_c, 0, 33, 46
3, 12424, Note_on_c, 0, 45, 46
3, 12470, Note_on_c, 0, 45, 0
3, 12470, Note_on_c, 0, 33, 0
3, 12472, Note_on_c, 0, 52, 64
3, 12472, Note_on_c, 0, 57, 66
3, 12472, Note_on_c, 0, 61, 68
3, 12518, Note_on_c, 0, 61, 0
3, 12518, Note_on_c, 0, 57, 0
3, 12518, Note_on_c, 0, 52, 0
3, 12520, Note_on_c, 0, 36, 62
3, 12520, Note_on_c, 0, 48, 62
3, 12566, Note_on_c, 0, 48, 0
3, 12566, Note_on_c, 0, 36, 0
3, 12568, Note_on_c, 0, 56, 60
3, 12568, Note_on_c, 0, 63, 62
3, 12568, Note_on_c, 0, 66, 64
3, 12614, Note_on_c, 0, 66, 0
3, 12614, Note_on_c, 0, 63, 0
3, 12614, Note_on_c, 0, 56, 0
3, 12616, Note_on_c, 0, 37, 50
3, 12616, Note_on_c, 0, 49, 50
3, 12662, Note_on_c, 0, 49, 0
3, 12662, Note_on_c, 0, 37, 0
3, 12664, Note_on_c, 0, 52, 50
3, 12664, Note_on_c, 0, 56, 52
3, 12664, Note_on_c, 0, 61, 52
3, 12664, Note_on_c, 0, 64, 54
3, 12710, Note_on_c, 0, 64, 0
3, 12710, Note_on_c, 0, 61, 0
3, 12710, Note_on_c, 0, 56, 0
3, 12710, Note_on_c, 0, 52, 0
3, 12712, Note_on_c, 0, 33, 46
3, 12712, Note_on_c, 0, 45, 46
3, 12758, Note_on_c, 0, 45, 0
3, 12758, Note_on_c, 0, 33, 0
3, 12760, Note_on_c, 0, 54, 42
3, 12760, Note_on_c, 0, 61, 44
3, 12760, Note_on_c, 0, 64, 46
3, 12806, Note_on_c, 0, 64, 0
3, 12806, Note_on_c, 0, 61, 0
3, 12806, Note_on_c, 0, 54, 0
3, 12904, Note_on_c, 0, 37, 40
3, 12904, Note_on_c, 0, 49, 40
3, 12950, Note_on_c, 0, 49, 0
3, 12950, Note_on_c, 0, 37, 0
3, 12952, Note_on_c, 0, 52, 40
3, 12952, Note_on_c, 0, 57, 42
3, 12952, Note_on_c, 0, 64, 44
3, 12998, Note_on_c, 0, 64, 0
3, 12998, Note_on_c, 0, 57, 0
3, 12998, Note_on_c, 0, 52, 0
3, 13000, Note_on_c, 0, 35, 52
3, 13000, Note_on_c, 0, 47, 52
3, 13046, Note_on_c, 0, 47, 0
3, 13046, Note_on_c, 0, 35, 0
3, 13048, Note_on_c, 0, 52, 46
3, 13048, Note_on_c, 0, 59, 48
3, 13048, Note_on_c, 0, 64, 50
3, 13094, Note_on_c, 0, 64, 0
3, 13094, Note_on_c, 0, 59, 0
3, 13094, Note_on_c, 0, 52, 0
3, 13096, Note_on_c, 0, 34, 50
3, 13096, Note_on_c, 0, 46, 50
3, 13142, Note_on_c, 0, 46, 0
3, 13142, Note_on_c, 0, 34, 0
3, 13144, Note_on_c, 0, 54, 50
3, 13144, Note_on_c, 0, 61, 52
3, 13144, Note_on_c, 0, 64, 54
3, 13190, Note_on_c, 0, 64, 0
3, 13190, Note_on_c, 0, 61, 0
3, 13190, Note_on_c, 0, 54, 0
3, 13288, Note_on_c, 0, 30, 40
3, 13288, Note_on_c, 0, 42, 40
3, 13334, Note_on_c, 0, 42, 0
3, 13334, Note_on_c, 0, 30, 0
3, 13336, Note_on_c, 0, 54, 34
3, 13336, Note_on_c, 0, 58, 36
3, 13336, Note_on_c, 0, 64, 38
3, 13382, Note_on_c, 0, 64, 0
3, 13382, Note_on_c, 0, 58, 0
3, 13382, Note_on_c, 0, 54, 0
3, 13384, Note_on_c, 0, 35, 38
3, 13384, Note_on_c, 0, 47, 38
3, 13430, Note_on_c, 0, 47, 0
3, 13430, Note_on_c, 0, 35, 0
3, 13432, Note_on_c, 0, 57, 30
3, 13432, Note_on_c, 0, 63, 34
3, 13478, Note_on_c, 0, 63, 0
3, 13478, Note_on_c, 0, 57, 0
3, 13480, Note_on_c, 0, 40, 32
3, 13504, Note_on_c, 0, 40, 0
3, 13504, Note_on_c, 0, 49, 34
3, 13516, Note_on_c, 0, 49, 0
3, 13516, Note_on_c, 0, 46, 35
3, 13528, Note_on_c, 0, 46, 0
3, 13528, Note_on_c, 0, 49, 40
3, 13540, Note_on_c, 0, 49, 0
3, 13540, Note_on_c, 0, 47, 44
3, 13552, Note_on_c, 0, 47, 0
3, 13552, Note_on_c, 0, 52, 45
3, 13564, Note_on_c, 0, 52, 0
3, 13564, Note_on_c, 0, 51, 44
3, 13576, Note_on_c, 0, 51, 0
3, 13576, Note_on_c, 0, 54, 45
3, 13588, Note_on_c, 0, 54, 0
3, 13588, Note_on_c, 0, 52, 44
3, 13600, Note_on_c, 0, 52, 0
3, 13600, Note_on_c, 0, 56, 47
3, 13612, Note_on_c, 0, 56, 0
3, 13612, Note_on_c, 0, 55, 46
3, 13624, Note_on_c, 0, 55, 0
3, 13624, Note_on_c, 0, 57, 38
3, 13636, Note_on_c, 0, 57, 0
3, 13636, Note_on_c, 0, 56, 37
3, 13648, Note_on_c, 0, 56, 0
3, 13648, Note_on_c, 0, 54, 35
3, 13660, Note_on_c, 0, 54, 0
3, 13660, Note_on_c, 0, 52, 33
3, 13672, Note_on_c, 0, 52, 0
3, 13672, Note_on_c, 0, 51, 32
3, 13696, Note_on_c, 0, 37, 36
3, 13708, Note_on_c, 0, 37, 0
3, 13708, Note_on_c, 0, 44, 36
3, 13718, Note_on_c, 0, 51, 0
3, 13720, Note_on_c, 0, 44, 0
3, 13720, Note_on_c, 0, 49, 40
3, 13732, Note_on_c, 0, 49, 0
3, 13732, Note_on_c, 0, 48, 42
3, 13744, Note_on_c, 0, 48, 0
3, 13744, Note_on_c, 0, 51, 46
3, 13756, Note_on_c, 0, 51, 0
3, 13756, Note_on_c, 0, 49, 46
3, 13768, Note_on_c, 0, 49, 0
3, 13768, Note_on_c, 0, 52, 48
3, 13780, Note_on_c, 0, 52, 0
3, 13780, Note_on_c, 0, 51, 46
3, 13792, Note_on_c, 0, 51, 0
3, 13792, Note_on_c, 0, 54, 48
3, 13804, Note_on_c, 0, 54, 0
3, 13804, Note_on_c, 0, 52, 46
3, 13816, Note_on_c, 0, 52, 0
3, 13816, Note_on_c, 0, 57, 40
3, 13828, Note_on_c, 0, 57, 0
3, 13828, Note_on_c, 0, 56, 40
3, 13840, Note_on_c, 0, 56, 0
3, 13840, Note_on_c, 0, 54, 38
3, 13852, Note_on_c, 0, 54, 0
3, 13852, Note_on_c, 0, 52, 36
3, 13864, Note_on_c, 0, 52, 0
3, 13864, Note_on_c, 0, 42, 36
3, 13886, Note_on_c, 0, 42, 0
3, 13888, Note_on_c, 0, 48, 36
3, 13900, Note_on_c, 0, 48, 0
3, 13900, Note_on_c, 0, 49, 38
3, 13912, Note_on_c, 0, 49, 0
3, 13912, Note_on_c, 0, 52, 42
3, 13924, Note_on_c, 0, 52, 0
3, 13924, Note_on_c, 0, 51, 41
3, 13936, Note_on_c, 0, 51, 0
3, 13936, Note_on_c, 0, 54, 44
3, 13948, Note_on_c, 0, 54, 0
3, 13948, Note_on_c, 0, 52, 42
3, 13960, Note_on_c, 0, 52, 0
3, 13960, Note_on_c, 0, 56, 43
3, 13982, Note_on_c, 0, 56, 0
3, 13984, Note_on_c, 0, 49, 40
3, 13996, Note_on_c, 0, 49, 0
3, 13996, Note_on_c, 0, 51, 42
3, 14008, Note_on_c, 0, 51, 0
3, 14008, Note_on_c, 0, 54, 42
3, 14020, Note_on_c, 0, 54, 0
3, 14020, Note_on_c, 0, 52, 38
3, 14032, Note_on_c, 0, 52, 0
3, 14032, Note_on_c, 0, 56, 38
3, 14044, Note_on_c, 0, 56, 0
3, 14044, Note_on_c, 0, 54, 35
3, 14056, Note_on_c, 0, 54, 0
3, 14056, Note_on_c, 0, 52, 34
3, 14056, Note_on_c, 0, 57, 42
3, 14068, Note_on_c, 0, 52, 0
3, 14068, Note_on_c, 0, 51, 36
3, 14080, Note_on_c, 0, 51, 0
3, 14080, Note_on_c, 0, 49, 35
3, 14092, Note_on_c, 0, 49, 0
3, 14092, Note_on_c, 0, 52, 40
3, 14104, Note_on_c, 0, 52, 0
3, 14104, Note_on_c, 0, 51, 42
3, 14116, Note_on_c, 0, 51, 0
3, 14116, Note_on_c, 0, 49, 43
3, 14128, Note_on_c, 0, 49, 0
3, 14128, Note_on_c, 0, 47, 42
3, 14140, Note_on_c, 0, 47, 0
3, 14140, Note_on_c, 0, 51, 45
3, 14152, Note_on_c, 0, 51, 0
3, 14152, Note_on_c, 0, 49, 44
3, 14164, Note_on_c, 0, 49, 0
3, 14164, Note_on_c, 0, 47, 42
3, 14176, Note_on_c, 0, 47, 0
3, 14176, Note_on_c, 0, 46, 38
3, 14188, Note_on_c, 0, 46, 0
3, 14188, Note_on_c, 0, 49, 39
3, 14200, Note_on_c, 0, 49, 0
3, 14200, Note_on_c, 0, 47, 38
3, 14212, Note_on_c, 0, 47, 0
3, 14212, Note_on_c, 0, 42, 36
3, 14224, Note_on_c, 0, 42, 0
3, 14224, Note_on_c, 0, 37, 34
3, 14236, Note_on_c, 0, 37, 0
3, 14236, Note_on_c, 0, 35, 34
3, 14246, Note_on_c, 0, 57, 0
3, 14248, Note_on_c, 0, 35, 0
3, 14248, Note_on_c, 0, 28, 38
3, 14270, Note_on_c, 0, 28, 0
3, 14284, Note_on_c, 0, 47, 40
3, 14296, Note_on_c, 0, 47, 0
3, 14296, Note_on_c, 0, 51, 42
3, 14308, Note_on_c, 0, 51, 0
3, 14308, Note_on_c, 0, 49, 41
3, 14320, Note_on_c, 0, 49, 0
3, 14320, Note_on_c, 0, 52, 44
3, 14332, Note_on_c, 0, 52, 0
3, 14332, Note_on_c, 0, 51, 43
3, 14344, Note_on_c, 0, 51, 0
3, 14344, Note_on_c, 0, 54, 46
3, 14356, Note_on_c, 0, 54, 0
3, 14356, Note_on_c, 0, 52, 47
3, 14368, Note_on_c, 0, 52, 0
3, 14368, Note_on_c, 0, 56, 50
3, 14380, Note_on_c, 0, 56, 0
3, 14380, Note_on_c, 0, 54, 49
3, 14392, Note_on_c, 0, 54, 0
3, 14392, Note_on_c, 0, 57, 52
3, 14404, Note_on_c, 0, 57, 0
3, 14404, Note_on_c, 0, 56, 51
3, 14416, Note_on_c, 0, 56, 0
3, 14416, Note_on_c, 0, 54, 50
3, 14428, Note_on_c, 0, 54, 0
3, 14428, Note_on_c, 0, 52, 48
3, 14440, Note_on_c, 0, 52, 0
3, 14440, Note_on_c, 0, 51, 46
3, 14462, Note_on_c, 0, 51, 0
3, 14464, Note_on_c, 0, 37, 42
3, 14476, Note_on_c, 0, 37, 0
3, 14476, Note_on_c, 0, 44, 40
3, 14488, Note_on_c, 0, 44, 0
3, 14488, Note_on_c, 0, 51, 38
3, 14500, Note_on_c, 0, 51, 0
3, 14500, Note_on_c, 0, 49, 37
3, 14512, Note_on_c, 0, 49, 0
3, 14512, Note_on_c, 0, 52, 40
3, 14524, Note_on_c, 0, 52, 0
3, 14524, Note_on_c, 0, 51, 39
3, 14536, Note_on_c, 0, 51, 0
3, 14536, Note_on_c, 0, 54, 43
3, 14548, Note_on_c, 0, 54, 0
3, 14548, Note_on_c, 0, 52, 44
3, 14560, Note_on_c, 0, 52, 0
3, 14560, Note_on_c, 0, 56, 48
3, 14572, Note_on_c, 0, 56, 0
3, 14572, Note_on_c, 0, 54, 47
3, 14584, Note_on_c, 0, 54, 0
3, 14584, Note_on_c, 0, 57, 48
3, 14596, Note_on_c, 0, 57, 0
3, 14596, Note_on_c, 0, 56, 47
3, 14608, Note_on_c, 0, 56, 0
3, 14608, Note_on_c, 0, 54, 46
3, 14620, Note_on_c, 0, 54, 0
3, 14620, Note_on_c, 0, 52, 45
3, 14632, Note_on_c, 0, 52, 0
3, 14632, Note_on_c, 0, 42, 40
3, 14654, Note_on_c, 0, 42, 0
3, 14656, Note_on_c, 0, 48, 38
3, 14668, Note_on_c, 0, 48, 0
3, 14668, Note_on_c, 0, 49, 42
3, 14680, Note_on_c, 0, 49, 0
3, 14680, Note_on_c, 0, 52, 46
3, 14692, Note_on_c, 0, 52, 0
3, 14692, Note_on_c, 0, 51, 47
3, 14704, Note_on_c, 0, 51, 0
3, 14704, Note_on_c, 0, 54, 48
3, 14716, Note_on_c, 0, 54, 0
3, 14716, Note_on_c, 0, 52, 46
3, 14728, Note_on_c, 0, 52, 0
3, 14728, Note_on_c, 0, 56, 44
3, 14750, Note_on_c, 0, 56, 0
3, 14752, Note_on_c, 0, 49, 44
3, 14764, Note_on_c, 0, 49, 0
3, 14764, Note_on_c, 0, 51, 46
3, 14776, Note_on_c, 0, 51, 0
3, 14776, Note_on_c, 0, 54, 48
3, 14788, Note_on_c, 0, 54, 0
3, 14788, Note_on_c, 0, 52, 46
3, 14800, Note_on_c, 0, 52, 0
3, 14800, Note_on_c, 0, 56, 42
3, 14812, Note_on_c, 0, 56, 0
3, 14812, Note_on_c, 0, 54, 40
3, 14824, Note_on_c, 0, 54, 0
3, 14824, Note_on_c, 0, 52, 40
3, 14836, Note_on_c, 0, 52, 0
3, 14836, Note_on_c, 0, 51, 46
3, 14848, Note_on_c, 0, 51, 0
3, 14848, Note_on_c, 0, 50, 50
3, 14860, Note_on_c, 0, 50, 0
3, 14860, Note_on_c, 0, 51, 52
3, 14872, Note_on_c, 0, 51, 0
3, 14872, Note_on_c, 0, 50, 56
3, 14884, Note_on_c, 0, 50, 0
3, 14884, Note_on_c, 0, 49, 60
3, 14896, Note_on_c, 0, 49, 0
3, 14896, Note_on_c, 0, 48, 66
3, 14908, Note_on_c, 0, 48, 0
3, 14908, Note_on_c, 0, 49, 68
3, 14920, Note_on_c, 0, 49, 0
3, 14920, Note_on_c, 0, 48, 66
3, 14932, Note_on_c, 0, 48, 0
3, 14932, Note_on_c, 0, 41, 62
3, 14944, Note_on_c, 0, 41, 0
3, 14944, Note_on_c, 0, 45, 62
3, 14956, Note_on_c, 0, 45, 0
3, 14956, Note_on_c, 0, 36, 52
3, 14968, Note_on_c, 0, 36, 0
3, 14968, Note_on_c, 0, 35, 46
3, 14978, Note_on_c, 0, 35, 0
3, 14980, Note_on_c, 0, 47, 38
3, 14990, Note_on_c, 0, 47, 0
3, 14992, Note_on_c, 0, 54, 40
3, 15002, Note_on_c, 0, 54, 0
3, 15004, Note_on_c, 0, 57, 38
3, 15014, Note_on_c, 0, 57, 0
3, 15016, Note_on_c, 0, 28, 50
3, 15028, Note_on_c, 0, 28, 0
3, 15028, Note_on_c, 0, 40, 44
3, 15040, Note_on_c, 0, 40, 0
3, 15040, Note_on_c, 0, 47, 46
3, 15052, Note_on_c, 0, 47, 0
3, 15052, Note_on_c, 0, 52, 48
3, 15064, Note_on_c, 0, 52, 0
3, 15064, Note_on_c, 0, 56, 50
3, 15076, Note_on_c, 0, 56, 0
3, 15076, Note_on_c, 0, 59, 46
3, 15088, Note_on_c, 0, 59, 0
3, 15436, Note_on_c, 0, 47, 32
3, 15440, Note_on_c, 0, 54, 34
3, 15444, Note_on_c, 0, 59, 36
3, 15494, Note_on_c, 0, 59, 0
3, 15494, Note_on_c, 0, 54, 0
3, 15494, Note_on_c, 0, 47, 0
3, 15496, Note_on_c, 0, 52, 34
3, 15544, Note_on_c, 0, 45, 40
3, 15590, Note_on_c, 0, 52, 0
3, 15592, Note_on_c, 0, 45, 0
3, 15592, Note_on_c, 0, 40, 46
3, 15596, Note_on_c, 0, 52, 52
3, 15914, Note_on_c, 0, 52, 0
3, 15914, Note_on_c, 0, 40, 0
3, 15916, End_track
4, 0, Start_track
4, 0, Title_t, "PEDAL"
4, 0, MIDI_port, 0
4, 192, Control_c, 0, 64, 0
4, 200, Control_c, 0, 64, 127
4, 290, Control_c, 0, 64, 0
4, 296, Control_c, 0, 64, 127
4, 338, Control_c, 0, 64, 0
4, 344, Control_c, 0, 64, 127
4, 384, Control_c, 0, 64, 127
4, 386, Control_c, 0, 64, 0
4, 392, Control_c, 0, 64, 127
4, 576, Control_c, 0, 64, 127
4, 578, Control_c, 0, 64, 0
4, 584, Control_c, 0, 64, 127
4, 674, Control_c, 0, 64, 0
4, 680, Control_c, 0, 64, 127
4, 768, Control_c, 0, 64, 127
4, 770, Control_c, 0, 64, 0
4, 776, Control_c, 0, 64, 127
4, 866, Control_c, 0, 64, 0
4, 872, Control_c, 0, 64, 127
4, 960, Control_c, 0, 64, 127
4, 962, Control_c, 0, 64, 0
4, 968, Control_c, 0, 64, 127
4, 1058, Control_c, 0, 64, 0
4, 1152, Control_c, 0, 64, 0
4, 1160, Control_c, 0, 64, 127
4, 1202, Control_c, 0, 64, 0
4, 1208, Control_c, 0, 64, 0
4, 1250, Control_c, 0, 64, 0
4, 1256, Control_c, 0, 64, 127
4, 1344, Control_c, 0, 64, 127
4, 1346, Control_c, 0, 64, 0
4, 1352, Control_c, 0, 64, 127
4, 1442, Control_c, 0, 64, 0
4, 1448, Control_c, 0, 64, 127
4, 1536, Control_c, 0, 64, 127
4, 1538, Control_c, 0, 64, 0
4, 1544, Control_c, 0, 64, 127
4, 1634, Control_c, 0, 64, 0
4, 1728, Control_c, 0, 64, 0
4, 1736, Control_c, 0, 64, 127
4, 1826, Control_c, 0, 64, 0
4, 1832, Control_c, 0, 64, 127
4, 1874, Control_c, 0, 64, 0
4, 1880, Control_c, 0, 64, 127
4, 1920, Control_c, 0, 64, 127
4, 1922, Control_c, 0, 64, 0
4, 1928, Control_c, 0, 64, 127
4, 2018, Control_c, 0, 64, 0
4, 2112, Control_c, 0, 64, 0
4, 2120, Control_c, 0, 64, 127
4, 2210, Control_c, 0, 64, 0
4, 2216, Control_c, 0, 64, 127
4, 2304, Control_c, 0, 64, 127
4, 2306, Control_c, 0, 64, 0
4, 2312, Control_c, 0, 64, 127
4, 2402, Control_c, 0, 64, 0
4, 2408, Control_c, 0, 64, 127
4, 2496, Control_c, 0, 64, 127
4, 2498, Control_c, 0, 64, 0
4, 2504, Control_c, 0, 64, 127
4, 2594, Control_c, 0, 64, 0
4, 2600, Control_c, 0, 64, 127
4, 2688, Control_c, 0, 64, 127
4, 2690, Control_c, 0, 64, 0
4, 2696, Control_c, 0, 64, 127
4, 2786, Control_c, 0, 64, 0
4, 2792, Control_c, 0, 64, 127
4, 2834, Control_c, 0, 64, 0
4, 2840, Control_c, 0, 64, 127
4, 2880, Control_c, 0, 64, 127
4, 2882, Control_c, 0, 64, 0
4, 2888, Control_c, 0, 64, 127
4, 3024, Control_c, 0, 64, 0
4, 3072, Control_c, 0, 64, 0
4, 3080, Control_c, 0, 64, 127
4, 3170, Control_c, 0, 64, 0
4, 3176, Control_c, 0, 64, 127
4, 3264, Control_c, 0, 64, 127
4, 3266, Control_c, 0, 64, 0
4, 3272, Control_c, 0, 64, 127
4, 3362, Control_c, 0, 64, 0
4, 3368, Control_c, 0, 64, 127
4, 3456, Control_c, 0, 64, 127
4, 3458, Control_c, 0, 64, 0
4, 3464, Control_c, 0, 64, 127
4, 3554, Control_c, 0, 64, 0
4, 3560, Control_c, 0, 64, 127
4, 3648, Control_c, 0, 64, 127
4, 3650, Control_c, 0, 64, 0
4, 3656, Control_c, 0, 64, 127
4, 3746, Control_c, 0, 64, 0
4, 3752, Control_c, 0, 64, 127
4, 3840, Control_c, 0, 64, 127
4, 3842, Control_c, 0, 64, 0
4, 3848, Control_c, 0, 64, 127
4, 3938, Control_c, 0, 64, 0
4, 3944, Control_c, 0, 64, 127
4, 4032, Control_c, 0, 64, 127
4, 4034, Control_c, 0, 64, 0
4, 4040, Control_c, 0, 64, 127
4, 4130, Control_c, 0, 64, 0
4, 4136, Control_c, 0, 64, 127
4, 4224, Control_c, 0, 64, 127
4, 4226, Control_c, 0, 64, 0
4, 4232, Control_c, 0, 64, 127
4, 4322, Control_c, 0, 64, 0
4, 4416, Control_c, 0, 64, 0
4, 4424, Control_c, 0, 64, 127
4, 4548, Control_c, 0, 64, 0
4, 4562, Control_c, 0, 64, 127
4, 4598, Control_c, 0, 64, 0
4, 4608, Control_c, 0, 64, 0
4, 4616, Control_c, 0, 64, 127
4, 4752, Control_c, 0, 64, 0
4, 4800, Control_c, 0, 64, 0
4, 4808, Control_c, 0, 64, 127
4, 4898, Control_c, 0, 64, 0
4, 4904, Control_c, 0, 64, 127
4, 5004, Control_c, 0, 64, 127
4, 5006, Control_c, 0, 64, 0
4, 5012, Control_c, 0, 64, 127
4, 5102, Control_c, 0, 64, 0
4, 5196, Control_c, 0, 64, 0
4, 5204, Control_c, 0, 64, 127
4, 5294, Control_c, 0, 64, 0
4, 5300, Control_c, 0, 64, 127
4, 5388, Control_c, 0, 64, 127
4, 5390, Control_c, 0, 64, 0
4, 5396, Control_c, 0, 64, 127
4, 5486, Control_c, 0, 64, 0
4, 5580, Control_c, 0, 64, 0
4, 5588, Control_c, 0, 64, 127
4, 5724, Control_c, 0, 64, 0
4, 5772, Control_c, 0, 64, 0
4, 5780, Control_c, 0, 64, 127
4, 5870, Control_c, 0, 64, 0
4, 5876, Control_c, 0, 64, 127
4, 5964, Control_c, 0, 64, 127
4, 5966, Control_c, 0, 64, 0
4, 5972, Control_c, 0, 64, 127
4, 6062, Control_c, 0, 64, 0
4, 6068, Control_c, 0, 64, 127
4, 6156, Control_c, 0, 64, 127
4, 6158, Control_c, 0, 64, 0
4, 6348, Control_c, 0, 64, 0
4, 6540, Control_c, 0, 64, 0
4, 6732, Control_c, 0, 64, 0
4, 6924, Control_c, 0, 64, 0
4, 7116, Control_c, 0, 64, 0
4, 7308, Control_c, 0, 64, 0
4, 7328, Control_c, 0, 64, 127
4, 7370, Control_c, 0, 64, 0
4, 7376, Control_c, 0, 64, 127
4, 7418, Control_c, 0, 64, 0
4, 7424, Control_c, 0, 64, 127
4, 7466, Control_c, 0, 64, 0
4, 7472, Control_c, 0, 64, 127
4, 7512, Control_c, 0, 64, 127
4, 7514, Control_c, 0, 64, 0
4, 7520, Control_c, 0, 64, 127
4, 7704, Control_c, 0, 64, 0
4, 7896, Control_c, 0, 64, 0
4, 8000, Control_c, 0, 64, 127
4, 8018, Control_c, 0, 64, 0
4, 8084, Control_c, 0, 64, 127
4, 8088, Control_c, 0, 64, 127
4, 8102, Control_c, 0, 64, 0
4, 8280, Control_c, 0, 64, 0
4, 8288, Control_c, 0, 64, 127
4, 8294, Control_c, 0, 64, 0
4, 8336, Control_c, 0, 64, 127
4, 8354, Control_c, 0, 64, 0
4, 8384, Control_c, 0, 64, 127
4, 8402, Control_c, 0, 64, 0
4, 8472, Control_c, 0, 64, 0
4, 8480, Control_c, 0, 64, 127
4, 8498, Control_c, 0, 64, 0
4, 8528, Control_c, 0, 64, 127
4, 8546, Control_c, 0, 64, 0
4, 8664, Control_c, 0, 64, 0
4, 8672, Control_c, 0, 64, 127
4, 8690, Control_c, 0, 64, 0
4, 8720, Control_c, 0, 64, 127
4, 8762, Control_c, 0, 64, 0
4, 8856, Control_c, 0, 64, 0
4, 9048, Control_c, 0, 64, 0
4, 9056, Control_c, 0, 64, 127
4, 9098, Control_c, 0, 64, 0
4, 9104, Control_c, 0, 64, 127
4, 9146, Control_c, 0, 64, 0
4, 9152, Control_c, 0, 64, 127
4, 9194, Control_c, 0, 64, 0
4, 9200, Control_c, 0, 64, 127
4, 9240, Control_c, 0, 64, 127
4, 9242, Control_c, 0, 64, 0
4, 9248, Control_c, 0, 64, 127
4, 9338, Control_c, 0, 64, 0
4, 9410, Control_c, 0, 64, 127
4, 9436, Control_c, 0, 64, 127
4, 9438, Control_c, 0, 64, 0
4, 9630, Control_c, 0, 64, 0
4, 9636, Control_c, 0, 64, 127
4, 9666, Control_c, 0, 64, 0
4, 9684, Control_c, 0, 64, 127
4, 9726, Control_c, 0, 64, 0
4, 9732, Control_c, 0, 64, 127
4, 9762, Control_c, 0, 64, 0
4, 9820, Control_c, 0, 64, 0
4, 9828, Control_c, 0, 64, 127
4, 9834, Control_c, 0, 64, 0
4, 10012, Control_c, 0, 64, 0
4, 10020, Control_c, 0, 64, 127
4, 10038, Control_c, 0, 64, 0
4, 10110, Control_c, 0, 64, 127
4, 10140, Control_c, 0, 64, 0
4, 10204, Control_c, 0, 64, 0
4, 10212, Control_c, 0, 64, 127
4, 10254, Control_c, 0, 64, 0
4, 10260, Control_c, 0, 64, 127
4, 10302, Control_c, 0, 64, 0
4, 10396, Control_c, 0, 64, 0
4, 10404, Control_c, 0, 64, 127
4, 10446, Control_c, 0, 64, 0
4, 10452, Control_c, 0, 64, 127
4, 10494, Control_c, 0, 64, 0
4, 10588, Control_c, 0, 64, 0
4, 10780, Control_c, 0, 64, 0
4, 10788, Control_c, 0, 64, 127
4, 10830, Control_c, 0, 64, 0
4, 10836, Control_c, 0, 64, 127
4, 10878, Control_c, 0, 64, 0
4, 10884, Control_c, 0, 64, 127
4, 10972, Control_c, 0, 64, 127
4, 10974, Control_c, 0, 64, 0
4, 10980, Control_c, 0, 64, 127
4, 11154, Control_c, 0, 64, 0
4, 11176, Control_c, 0, 64, 0
4, 11184, Control_c, 0, 64, 127
4, 11274, Control_c, 0, 64, 0
4, 11280, Control_c, 0, 64, 127
4, 11368, Control_c, 0, 64, 127
4, 11370, Control_c, 0, 64, 0
4, 11376, Control_c, 0, 64, 127
4, 11512, Control_c, 0, 64, 0
4, 11560, Control_c, 0, 64, 0
4, 11568, Control_c, 0, 64, 127
4, 11658, Control_c, 0, 64, 0
4, 11664, Control_c, 0, 64, 127
4, 11752, Control_c, 0, 64, 127
4, 11754, Control_c, 0, 64, 0
4, 11760, Control_c, 0, 64, 127
4, 11896, Control_c, 0, 64, 0
4, 11944, Control_c, 0, 64, 0
4, 11952, Control_c, 0, 64, 127
4, 12042, Control_c, 0, 64, 0
4, 12136, Control_c, 0, 64, 0
4, 12144, Control_c, 0, 64, 127
4, 12234, Control_c, 0, 64, 0
4, 12240, Control_c, 0, 64, 127
4, 12328, Control_c, 0, 64, 127
4, 12330, Control_c, 0, 64, 0
4, 12336, Control_c, 0, 64, 127
4, 12426, Control_c, 0, 64, 0
4, 12432, Control_c, 0, 64, 127
4, 12520, Control_c, 0, 64, 127
4, 12522, Control_c, 0, 64, 0
4, 12528, Control_c, 0, 64, 127
4, 12618, Control_c, 0, 64, 0
4, 12624, Control_c, 0, 64, 127
4, 12712, Control_c, 0, 64, 127
4, 12714, Control_c, 0, 64, 0
4, 12720, Control_c, 0, 64, 127
4, 12810, Control_c, 0, 64, 0
4, 12904, Control_c, 0, 64, 0
4, 12912, Control_c, 0, 64, 127
4, 13002, Control_c, 0, 64, 0
4, 13008, Control_c, 0, 64, 127
4, 13096, Control_c, 0, 64, 127
4, 13098, Control_c, 0, 64, 0
4, 13104, Control_c, 0, 64, 127
4, 13192, Control_c, 0, 64, 0
4, 13288, Control_c, 0, 64, 0
4, 13296, Control_c, 0, 64, 127
4, 13386, Control_c, 0, 64, 0
4, 13392, Control_c, 0, 64, 127
4, 13456, Control_c, 0, 64, 0
4, 13480, Control_c, 0, 64, 0
4, 13672, Control_c, 0, 64, 0
4, 13864, Control_c, 0, 64, 0
4, 14056, Control_c, 0, 64, 0
4, 14248, Control_c, 0, 64, 0
4, 14256, Control_c, 0, 64, 127
4, 14298, Control_c, 0, 64, 0
4, 14440, Control_c, 0, 64, 0
4, 14632, Control_c, 0, 64, 0
4, 14824, Control_c, 0, 64, 0
4, 14976, Control_c, 0, 64, 127
4, 15016, Control_c, 0, 64, 127
4, 15018, Control_c, 0, 64, 0
4, 15024, Control_c, 0, 64, 127
4, 15090, Control_c, 0, 64, 0
4, 15096, Control_c, 0, 64, 127
4, 15208, Control_c, 0, 64, 127
4, 15400, Control_c, 0, 64, 127
4, 15430, Control_c, 0, 64, 0
4, 15436, Control_c, 0, 64, 127
4, 15498, Control_c, 0, 64, 0
4, 15504, Control_c, 0, 64, 127
4, 15546, Control_c, 0, 64, 0
4, 15552, Control_c, 0, 64, 127
4, 15596, Control_c, 0, 64, 0
4, 15602, Control_c, 0, 64, 127
4, 15612, Control_c, 0, 64, 127
4, 15710, Control_c, 0, 64, 0
4, 15916, End_track
0, 0, End_of_file