0, 0, Header, 0, 1, 240
1, 0, Start_track
1, 0, Time_signature, 1, 2, 24, 8
1, 0, Tempo, 606061
1, 0, Program_c, 0, 0
1, 0, Control_c, 0, 7, 120
1, 0, Program_c, 1, 0
1, 0, Control_c, 1, 7, 108
1, 0, Marker_t, "Quasi Beethoven: Reflections on an AEolian Harp (Chopin), Jerry A. Enfield"
1, 0, Note_on_c, 0, 75, 79
1, 0, Control_c, 0, 91, 14
1, 0, Control_c, 0, 10, 72
1, 0, Control_c, 0, 1, 0
1, 0, Channel_aftertouch_c, 0, 0
1, 0, Control_c, 0, 93, 16
1, 0, Control_c, 1, 10, 56
1, 0, Control_c, 1, 93, 8
1, 0, Control_c, 1, 91, 16
1, 225, Note_off_c, 0, 75, 68
1, 238, Note_on_c, 0, 75, 76
1, 240, Time_signature, 4, 2, 24, 8
1, 240, Tempo, 582524
1, 240, Note_on_c, 1, 56, 79
1, 240, Control_c, 1, 64, 127
1, 287, Note_off_c, 1, 56, 58
1, 298, Note_on_c, 1, 63, 78
1, 345, Note_off_c, 1, 63, 58
1, 358, Note_on_c, 1, 60, 76
1, 405, Note_off_c, 1, 60, 59
1, 420, Note_on_c, 1, 63, 78
1, 460, Control_c, 1, 64, 0
1, 467, Note_off_c, 1, 63, 58
1, 482, Note_on_c, 1, 56, 78
1, 529, Note_off_c, 1, 56, 58
1, 542, Note_on_c, 1, 63, 81
1, 576, Note_off_c, 0, 75, 68
1, 589, Note_off_c, 1, 63, 59
1, 598, Note_on_c, 1, 60, 76
1, 601, Note_on_c, 0, 75, 80
1, 645, Note_off_c, 1, 60, 59
1, 662, Note_on_c, 1, 63, 77
1, 709, Note_off_c, 1, 63, 58
1, 713, Note_off_c, 0, 75, 68
1, 718, Note_on_c, 1, 56, 76
1, 722, Note_on_c, 0, 75, 81
1, 765, Note_off_c, 1, 56, 59
1, 778, Note_on_c, 1, 63, 77
1, 825, Note_off_c, 1, 63, 58
1, 839, Note_on_c, 1, 60, 79
1, 886, Note_off_c, 1, 60, 58
1, 899, Note_on_c, 1, 63, 80
1, 946, Note_off_c, 1, 63, 59
1, 947, Note_off_c, 0, 75, 68
1, 959, Note_on_c, 0, 75, 76
1, 961, Note_on_c, 1, 56, 80
1, 1008, Note_off_c, 1, 56, 58
1, 1022, Note_on_c, 1, 63, 76
1, 1069, Note_off_c, 1, 63, 58
1, 1081, Note_on_c, 1, 60, 77
1, 1128, Note_off_c, 1, 60, 58
1, 1142, Note_on_c, 1, 63, 79
1, 1184, Note_off_c, 0, 75, 69
1, 1189, Note_off_c, 1, 63, 59
1, 1199, Note_on_c, 0, 77, 75
1, 1200, Control_c, 1, 64, 127
1, 1202, Note_on_c, 1, 56, 75
1, 1249, Note_off_c, 1, 56, 58
1, 1258, Note_on_c, 1, 63, 80
1, 1305, Note_off_c, 1, 63, 58
1, 1319, Note_on_c, 1, 60, 75
1, 1366, Note_off_c, 1, 60, 58
1, 1381, Note_on_c, 1, 63, 76
1, 1420, Control_c, 1, 64, 0
1, 1424, Note_off_c, 0, 77, 69
1, 1428, Note_off_c, 1, 63, 58
1, 1440, Note_on_c, 0, 75, 78
1, 1441, Note_on_c, 1, 56, 79
1, 1488, Note_off_c, 1, 56, 58
1, 1501, Note_on_c, 1, 63, 79
1, 1548, Note_off_c, 1, 63, 58
1, 1560, Note_on_c, 1, 60, 76
1, 1607, Note_off_c, 1, 60, 58
1, 1620, Note_on_c, 1, 63, 79
1, 1665, Note_off_c, 0, 75, 68
1, 1667, Note_off_c, 1, 63, 58
1, 1679, Note_on_c, 1, 56, 79
1, 1682, Note_on_c, 0, 75, 82
1, 1726, Note_off_c, 1, 56, 58
1, 1738, Note_on_c, 1, 63, 80
1, 1785, Note_off_c, 1, 63, 58
1, 1799, Note_on_c, 1, 60, 79
1, 1846, Note_off_c, 1, 60, 59
1, 1859, Note_on_c, 1, 63, 82
1, 1906, Note_off_c, 1, 63, 58
1, 1918, Note_on_c, 1, 56, 81
1, 1965, Note_off_c, 1, 56, 58
1, 1981, Note_on_c, 1, 63, 79
1, 2020, Note_off_c, 0, 75, 68
1, 2028, Note_off_c, 1, 63, 58
1, 2038, Note_on_c, 1, 60, 79
1, 2040, Note_on_c, 0, 75, 82
1, 2085, Note_off_c, 1, 60, 58
1, 2099, Note_on_c, 1, 63, 79
1, 2146, Note_off_c, 1, 63, 59
1, 2152, Note_off_c, 0, 75, 69
1, 2159, Note_on_c, 0, 75, 79
1, 2160, Note_on_c, 1, 55, 79
1, 2160, Control_c, 1, 64, 127
1, 2207, Note_off_c, 1, 55, 58
1, 2218, Note_on_c, 1, 61, 82
1, 2265, Note_off_c, 1, 61, 58
1, 2282, Note_on_c, 1, 58, 81
1, 2329, Note_off_c, 1, 58, 59
1, 2342, Note_on_c, 1, 61, 82
1, 2380, Control_c, 1, 64, 0
1, 2384, Note_off_c, 0, 75, 69
1, 2389, Note_off_c, 1, 61, 58
1, 2400, Note_on_c, 0, 75, 80
1, 2401, Note_on_c, 1, 55, 81
1, 2448, Note_off_c, 1, 55, 58
1, 2461, Note_on_c, 1, 61, 85
1, 2508, Note_off_c, 1, 61, 58
1, 2520, Note_on_c, 1, 58, 81
1, 2567, Note_off_c, 1, 58, 59
1, 2581, Note_on_c, 1, 61, 83
1, 2625, Note_off_c, 0, 75, 68
1, 2628, Note_off_c, 1, 61, 58
1, 2638, Note_on_c, 1, 55, 85
1, 2641, Note_on_c, 0, 77, 84
1, 2685, Note_off_c, 1, 55, 58
1, 2701, Note_on_c, 1, 61, 85
1, 2748, Note_off_c, 1, 61, 58
1, 2758, Note_on_c, 1, 58, 81
1, 2805, Note_off_c, 1, 58, 58
1, 2820, Note_on_c, 1, 61, 85
1, 2866, Note_off_c, 0, 77, 68
1, 2867, Note_off_c, 1, 61, 58
1, 2878, Note_on_c, 1, 55, 81
1, 2880, Note_on_c, 0, 75, 84
1, 2925, Note_off_c, 1, 55, 58
1, 2938, Note_on_c, 1, 61, 81
1, 2985, Note_off_c, 1, 61, 58
1, 3002, Note_on_c, 1, 58, 81
1, 3049, Note_off_c, 1, 58, 58
1, 3059, Note_on_c, 1, 61, 81
1, 3105, Note_off_c, 0, 75, 68
1, 3106, Note_off_c, 1, 61, 58
1, 3118, Note_on_c, 1, 56, 86
1, 3120, Control_c, 1, 64, 127
1, 3122, Note_on_c, 0, 82, 84
1, 3165, Note_off_c, 1, 56, 58
1, 3179, Note_on_c, 1, 63, 84
1, 3226, Note_off_c, 1, 63, 58
1, 3240, Note_on_c, 1, 60, 84
1, 3287, Note_off_c, 1, 60, 58
1, 3301, Note_on_c, 1, 63, 86
1, 3340, Control_c, 1, 64, 0
1, 3348, Note_off_c, 1, 63, 58
1, 3358, Note_on_c, 1, 56, 85
1, 3405, Note_off_c, 1, 56, 58
1, 3420, Note_on_c, 1, 63, 84
1, 3460, Note_off_c, 0, 82, 68
1, 3467, Note_off_c, 1, 63, 58
1, 3480, Note_on_c, 0, 80, 87
1, 3481, Note_on_c, 1, 60, 88
1, 3528, Note_off_c, 1, 60, 58
1, 3542, Note_on_c, 1, 63, 86
1, 3589, Note_off_c, 1, 63, 58
1, 3592, Note_off_c, 0, 80, 68
1, 3601, Note_on_c, 1, 56, 86
1, 3602, Note_on_c, 0, 80, 86
1, 3648, Note_off_c, 1, 56, 58
1, 3660, Note_on_c, 1, 64, 83
1, 3707, Note_off_c, 1, 64, 58
1, 3720, Note_on_c, 1, 60, 88
1, 3767, Note_off_c, 1, 60, 58
1, 3780, Note_on_c, 1, 64, 86
1, 3827, Note_off_c, 1, 64, 58
1, 3827, Note_off_c, 0, 80, 68
1, 3841, Note_on_c, 0, 80, 87
1, 3841, Note_on_c, 1, 56, 88
1, 3888, Note_off_c, 1, 56, 58
1, 3902, Note_on_c, 1, 64, 85
1, 3949, Note_off_c, 1, 64, 58
1, 3958, Note_on_c, 1, 60, 86
1, 4005, Note_off_c, 1, 60, 58
1, 4022, Note_on_c, 1, 64, 86
1, 4066, Note_off_c, 0, 80, 68
1, 4069, Note_off_c, 1, 64, 58
1, 4078, Note_on_c, 1, 56, 87
1, 4080, Control_c, 1, 64, 127
1, 4082, Note_on_c, 0, 80, 90
1, 4125, Note_off_c, 1, 56, 58
1, 4138, Note_on_c, 1, 65, 92
1, 4185, Note_off_c, 1, 65, 58
1, 4200, Note_on_c, 1, 61, 85
1, 4247, Note_off_c, 1, 61, 58
1, 4258, Note_on_c, 1, 65, 85
1, 4300, Control_c, 1, 64, 0
1, 4305, Note_off_c, 1, 65, 58
1, 4322, Note_on_c, 1, 56, 85
1, 4369, Note_off_c, 1, 56, 58
1, 4378, Note_on_c, 1, 65, 89
1, 4420, Note_off_c, 0, 80, 68
1, 4425, Note_off_c, 1, 65, 58
1, 4440, Note_on_c, 0, 80, 85
1, 4440, Note_on_c, 1, 61, 87
1, 4487, Note_off_c, 1, 61, 58
1, 4501, Note_on_c, 1, 65, 84
1, 4548, Note_off_c, 1, 65, 58
1, 4552, Note_off_c, 0, 80, 68
1, 4559, Note_on_c, 0, 80, 84
1, 4562, Note_on_c, 1, 56, 89
1, 4609, Note_off_c, 1, 56, 58
1, 4619, Note_on_c, 1, 65, 85
1, 4666, Note_off_c, 1, 65, 59
1, 4678, Note_on_c, 1, 61, 85
1, 4725, Note_off_c, 1, 61, 58
1, 4738, Note_on_c, 1, 65, 86
1, 4784, Note_off_c, 0, 80, 68
1, 4785, Note_off_c, 1, 65, 58
1, 4799, Note_on_c, 0, 82, 81
1, 4799, Note_on_c, 1, 56, 84
1, 4846, Note_off_c, 1, 56, 58
1, 4858, Note_on_c, 1, 65, 87
1, 4905, Note_off_c, 1, 65, 58
1, 4919, Note_on_c, 1, 58, 81
1, 4966, Note_off_c, 1, 58, 58
1, 4978, Note_on_c, 1, 65, 80
1, 5024, Note_off_c, 0, 82, 68
1, 5025, Note_off_c, 1, 65, 58
1, 5038, Note_on_c, 1, 55, 80
1, 5040, Note_on_c, 0, 84, 86
1, 5040, Control_c, 1, 64, 127
1, 5085, Note_off_c, 1, 55, 58
1, 5099, Note_on_c, 1, 65, 83
1, 5146, Note_off_c, 1, 65, 58
1, 5162, Note_on_c, 1, 60, 85
1, 5209, Note_off_c, 1, 60, 58
1, 5222, Note_on_c, 1, 65, 79
1, 5260, Control_c, 1, 64, 0
1, 5269, Note_off_c, 1, 65, 58
1, 5279, Note_on_c, 1, 55, 79
1, 5326, Note_off_c, 1, 55, 59
1, 5340, Note_on_c, 1, 64, 83
1, 5378, Note_off_c, 0, 84, 68
1, 5387, Note_off_c, 1, 64, 58
1, 5398, Note_on_c, 0, 82, 78
1, 5399, Note_on_c, 1, 60, 84
1, 5446, Note_off_c, 1, 60, 58
1, 5458, Note_on_c, 1, 64, 78
1, 5505, Note_off_c, 1, 64, 58
1, 5510, Note_off_c, 0, 82, 68
1, 5518, Note_on_c, 1, 56, 82
1, 5521, Note_on_c, 0, 80, 82
1, 5565, Note_off_c, 1, 56, 58
1, 5580, Note_on_c, 1, 65, 77
1, 5627, Note_off_c, 1, 65, 58
1, 5640, Note_on_c, 1, 60, 82
1, 5687, Note_off_c, 1, 60, 58
1, 5698, Note_on_c, 1, 65, 80
1, 5745, Note_off_c, 1, 65, 58
1, 5746, Note_off_c, 0, 80, 69
1, 5758, Note_on_c, 0, 77, 79
1, 5759, Note_on_c, 1, 59, 80
1, 5806, Note_off_c, 1, 59, 58
1, 5821, Note_on_c, 1, 65, 77
1, 5868, Note_off_c, 1, 65, 58
1, 5878, Note_on_c, 1, 53, 80
1, 5925, Note_off_c, 1, 53, 58
1, 5942, Note_on_c, 1, 63, 76
1, 5983, Note_off_c, 0, 77, 68
1, 5989, Note_off_c, 1, 63, 58
1, 5998, Note_on_c, 0, 77, 74
1, 5998, Note_on_c, 1, 53, 78
1, 6000, Control_c, 1, 64, 127
1, 6045, Note_off_c, 1, 53, 58
1, 6059, Note_on_c, 1, 63, 80
1, 6106, Note_off_c, 1, 63, 58
1, 6118, Note_on_c, 1, 56, 76
1, 6165, Note_off_c, 1, 56, 58
1, 6179, Note_on_c, 1, 63, 73
1, 6220, Control_c, 1, 64, 0
1, 6226, Note_off_c, 1, 63, 58
1, 6241, Note_on_c, 1, 53, 78
1, 6288, Note_off_c, 1, 53, 58
1, 6298, Note_on_c, 1, 63, 74
1, 6336, Note_off_c, 0, 77, 68
1, 6345, Note_off_c, 1, 63, 58
1, 6361, Note_on_c, 0, 79, 73
1, 6361, Note_on_c, 1, 56, 73
1, 6408, Note_off_c, 1, 56, 58
1, 6422, Note_on_c, 1, 63, 72
1, 6469, Note_off_c, 1, 63, 58
1, 6473, Note_off_c, 0, 79, 69
1, 6480, Note_on_c, 1, 53, 71
1, 6481, Note_on_c, 0, 80, 75
1, 6527, Note_off_c, 1, 53, 59
1, 6538, Note_on_c, 1, 62, 74
1, 6585, Note_off_c, 1, 62, 58
1, 6602, Note_on_c, 1, 56, 76
1, 6649, Note_off_c, 1, 56, 58
1, 6659, Note_on_c, 1, 62, 75
1, 6706, Note_off_c, 1, 62, 58
1, 6706, Note_off_c, 0, 80, 68
1, 6718, Note_on_c, 1, 53, 70
1, 6719, Note_on_c, 0, 70, 72
1, 6765, Note_off_c, 1, 53, 59
1, 6782, Note_on_c, 1, 62, 72
1, 6829, Note_off_c, 1, 62, 58
1, 6841, Note_on_c, 1, 56, 70
1, 6888, Note_off_c, 1, 56, 58
1, 6898, Note_on_c, 1, 62, 72
1, 6944, Note_off_c, 0, 70, 68
1, 6945, Note_off_c, 1, 62, 58
1, 6959, Note_on_c, 0, 70, 70
1, 6960, Control_c, 1, 64, 127
1, 6962, Note_on_c, 1, 51, 73
1, 7009, Note_off_c, 1, 51, 59
1, 7018, Note_on_c, 1, 61, 73
1, 7065, Note_off_c, 1, 61, 58
1, 7078, Note_on_c, 1, 58, 70
1, 7125, Note_off_c, 1, 58, 58
1, 7140, Note_on_c, 1, 61, 71
1, 7180, Control_c, 1, 64, 0
1, 7184, Note_off_c, 0, 70, 68
1, 7187, Note_off_c, 1, 61, 59
1, 7202, Note_on_c, 0, 68, 67
1, 7202, Note_on_c, 1, 56, 72
1, 7249, Note_off_c, 1, 56, 58
1, 7261, Note_on_c, 1, 63, 68
1, 7308, Note_off_c, 1, 63, 58
1, 7321, Note_on_c, 1, 58, 70
1, 7368, Note_off_c, 1, 58, 58
1, 7381, Note_on_c, 1, 63, 69
1, 7427, Note_off_c, 0, 68, 68
1, 7428, Note_off_c, 1, 63, 58
1, 7441, Note_on_c, 0, 73, 71
1, 7442, Note_on_c, 1, 55, 67
1, 7489, Note_off_c, 1, 55, 58
1, 7502, Note_on_c, 1, 63, 67
1, 7549, Note_off_c, 1, 63, 58
1, 7561, Note_on_c, 1, 58, 65
1, 7608, Note_off_c, 1, 58, 59
1, 7621, Note_on_c, 1, 63, 66
1, 7668, Note_off_c, 1, 63, 58
1, 7679, Note_on_c, 1, 55, 68
1, 7726, Note_off_c, 1, 55, 58
1, 7740, Note_on_c, 1, 63, 63
1, 7779, Note_off_c, 0, 73, 68
1, 7787, Note_off_c, 1, 63, 58
1, 7801, Note_on_c, 0, 63, 67
1, 7801, Note_on_c, 1, 58, 67
1, 7848, Note_off_c, 1, 58, 58
1, 7862, Note_on_c, 1, 63, 66
1, 7909, Note_off_c, 1, 63, 58
1, 7913, Note_off_c, 0, 63, 68
1, 7919, Note_on_c, 0, 75, 62
1, 7919, Note_on_c, 1, 56, 63
1, 7920, Control_c, 1, 64, 127
1, 7966, Note_off_c, 1, 56, 58
1, 7981, Note_on_c, 1, 63, 64
1, 8028, Note_off_c, 1, 63, 58
1, 8041, Note_on_c, 1, 60, 63
1, 8088, Note_off_c, 1, 60, 58
1, 8101, Note_on_c, 1, 63, 64
1, 8140, Control_c, 1, 64, 0
1, 8144, Note_off_c, 0, 75, 68
1, 8148, Note_off_c, 1, 63, 58
1, 8160, Note_on_c, 1, 56, 67
1, 8162, Note_on_c, 0, 75, 66
1, 8207, Note_off_c, 1, 56, 58
1, 8219, Note_on_c, 1, 63, 66
1, 8266, Note_off_c, 1, 63, 59
1, 8281, Note_on_c, 1, 60, 70
1, 8328, Note_off_c, 1, 60, 58
1, 8340, Note_on_c, 1, 63, 66
1, 8387, Note_off_c, 1, 63, 58
1, 8387, Note_off_c, 0, 75, 69
1, 8398, Note_on_c, 0, 75, 67
1, 8401, Note_on_c, 1, 56, 70
1, 8448, Note_off_c, 1, 56, 59
1, 8460, Note_on_c, 1, 63, 66
1, 8507, Note_off_c, 1, 63, 58
1, 8519, Note_on_c, 1, 60, 64
1, 8566, Note_off_c, 1, 60, 58
1, 8579, Note_on_c, 1, 63, 67
1, 8626, Note_off_c, 1, 63, 58
1, 8642, Note_on_c, 1, 56, 71
1, 8689, Note_off_c, 1, 56, 58
1, 8701, Note_on_c, 1, 63, 71
1, 8736, Note_off_c, 0, 75, 68
1, 8748, Note_off_c, 1, 63, 58
1, 8758, Note_on_c, 1, 60, 65
1, 8761, Note_on_c, 0, 75, 67
1, 8805, Note_off_c, 1, 60, 59
1, 8820, Note_on_c, 1, 63, 69
1, 8867, Note_off_c, 1, 63, 58
1, 8873, Note_off_c, 0, 75, 68
1, 8878, Note_on_c, 0, 77, 70
1, 8880, Note_on_c, 1, 56, 66
1, 8880, Control_c, 1, 64, 127
1, 8927, Note_off_c, 1, 56, 58
1, 8938, Note_on_c, 1, 63, 67
1, 8985, Note_off_c, 1, 63, 58
1, 9001, Note_on_c, 1, 60, 69
1, 9048, Note_off_c, 1, 60, 59
1, 9061, Note_on_c, 1, 63, 73
1, 9100, Control_c, 1, 64, 0
1, 9103, Note_off_c, 0, 77, 68
1, 9108, Note_off_c, 1, 63, 58
1, 9118, Note_on_c, 0, 75, 69
1, 9121, Note_on_c, 1, 56, 73
1, 9168, Note_off_c, 1, 56, 59
1, 9180, Note_on_c, 1, 63, 71
1, 9227, Note_off_c, 1, 63, 58
1, 9239, Note_on_c, 1, 60, 69
1, 9286, Note_off_c, 1, 60, 58
1, 9301, Note_on_c, 1, 63, 73
1, 9343, Note_off_c, 0, 75, 68
1, 9348, Note_off_c, 1, 63, 58
1, 9359, Note_on_c, 1, 56, 73
1, 9361, Note_on_c, 0, 75, 74
1, 9406, Note_off_c, 1, 56, 58
1, 9420, Note_on_c, 1, 63, 72
1, 9467, Note_off_c, 1, 63, 58
1, 9481, Note_on_c, 1, 60, 68
1, 9528, Note_off_c, 1, 60, 58
1, 9539, Note_on_c, 1, 63, 74
1, 9586, Note_off_c, 1, 63, 58
1, 9586, Note_off_c, 0, 75, 68
1, 9599, Note_on_c, 0, 75, 74
1, 9599, Note_on_c, 1, 56, 72
1, 9646, Note_off_c, 1, 56, 58
1, 9662, Note_on_c, 1, 63, 70
1, 9709, Note_off_c, 1, 63, 58
1, 9718, Note_on_c, 1, 60, 71
1, 9765, Note_off_c, 1, 60, 58
1, 9778, Note_on_c, 1, 63, 73
1, 9824, Note_off_c, 0, 75, 68
1, 9825, Note_off_c, 1, 63, 58
1, 9838, Note_on_c, 1, 55, 71
1, 9839, Note_on_c, 0, 75, 71
1, 9840, Control_c, 1, 64, 127
1, 9885, Note_off_c, 1, 55, 58
1, 9901, Note_on_c, 1, 61, 72
1, 9948, Note_off_c, 1, 61, 58
1, 9962, Note_on_c, 1, 58, 74
1, 10009, Note_off_c, 1, 58, 58
1, 10019, Note_on_c, 1, 61, 77
1, 10060, Control_c, 1, 64, 0
1, 10066, Note_off_c, 1, 61, 58
1, 10081, Note_on_c, 1, 55, 74
1, 10128, Note_off_c, 1, 55, 58
1, 10138, Note_on_c, 1, 61, 73
1, 10177, Note_off_c, 0, 75, 68
1, 10185, Note_off_c, 1, 61, 58
1, 10198, Note_on_c, 0, 82, 78
1, 10202, Note_on_c, 1, 58, 72
1, 10249, Note_off_c, 1, 58, 59
1, 10259, Note_on_c, 1, 61, 74
1, 10306, Note_off_c, 1, 61, 59
1, 10310, Note_off_c, 0, 82, 69
1, 10320, Note_on_c, 0, 84, 74
1, 10320, Note_on_c, 1, 55, 73
1, 10367, Note_off_c, 1, 55, 58
1, 10379, Note_on_c, 1, 61, 74
1, 10426, Note_off_c, 1, 61, 58
1, 10441, Note_on_c, 1, 58, 76
1, 10488, Note_off_c, 1, 58, 58
1, 10502, Note_on_c, 1, 61, 73
1, 10545, Note_off_c, 0, 84, 68
1, 10549, Note_off_c, 1, 61, 58
1, 10558, Note_on_c, 1, 55, 78
1, 10559, Note_on_c, 0, 79, 74
1, 10605, Note_off_c, 1, 55, 58
1, 10622, Note_on_c, 1, 61, 79
1, 10669, Note_off_c, 1, 61, 58
1, 10679, Note_on_c, 1, 58, 76
1, 10726, Note_off_c, 1, 58, 59
1, 10740, Note_on_c, 1, 61, 79
1, 10784, Note_off_c, 0, 79, 68
1, 10787, Note_off_c, 1, 61, 58
1, 10798, Note_on_c, 0, 82, 74
1, 10800, Note_on_c, 1, 56, 77
1, 10800, Control_c, 1, 64, 127
1, 10847, Note_off_c, 1, 56, 59
1, 10859, Note_on_c, 1, 63, 76
1, 10906, Note_off_c, 1, 63, 58
1, 10921, Note_on_c, 1, 60, 77
1, 10968, Note_off_c, 1, 60, 58
1, 10980, Note_on_c, 1, 63, 81
1, 11020, Control_c, 1, 64, 0
1, 11023, Note_off_c, 0, 82, 69
1, 11027, Note_off_c, 1, 63, 59
1, 11040, Note_on_c, 0, 80, 76
1, 11042, Note_on_c, 1, 56, 79
1, 11089, Note_off_c, 1, 56, 58
1, 11099, Note_on_c, 1, 63, 82
1, 11146, Note_off_c, 1, 63, 58
1, 11161, Note_on_c, 1, 60, 80
1, 11208, Note_off_c, 1, 60, 58
1, 11219, Note_on_c, 1, 63, 80
1, 11265, Note_off_c, 0, 80, 68
1, 11266, Note_off_c, 1, 63, 58
1, 11279, Note_on_c, 1, 56, 79
1, 11280, Note_on_c, 0, 80, 78
1, 11326, Note_off_c, 1, 56, 59
1, 11341, Note_on_c, 1, 64, 78
1, 11388, Note_off_c, 1, 64, 58
1, 11402, Note_on_c, 1, 60, 77
1, 11449, Note_off_c, 1, 60, 58
1, 11462, Note_on_c, 1, 64, 77
1, 11505, Note_off_c, 0, 80, 68
1, 11509, Note_off_c, 1, 64, 58
1, 11518, Note_on_c, 0, 80, 79
1, 11519, Note_on_c, 1, 56, 80
1, 11566, Note_off_c, 1, 56, 58
1, 11581, Note_on_c, 1, 64, 79
1, 11628, Note_off_c, 1, 64, 58
1, 11642, Note_on_c, 1, 60, 81
1, 11689, Note_off_c, 1, 60, 58
1, 11702, Note_on_c, 1, 64, 81
1, 11743, Note_off_c, 0, 80, 68
1, 11749, Note_off_c, 1, 64, 58
1, 11758, Note_on_c, 1, 56, 80
1, 11760, Control_c, 1, 64, 127
1, 11761, Note_on_c, 0, 80, 81
1, 11805, Note_off_c, 1, 56, 58
1, 11820, Note_on_c, 1, 65, 83
1, 11867, Note_off_c, 1, 65, 58
1, 11881, Note_on_c, 1, 61, 85
1, 11928, Note_off_c, 1, 61, 59
1, 11942, Note_on_c, 1, 65, 83
1, 11980, Control_c, 1, 64, 0
1, 11989, Note_off_c, 1, 65, 58
1, 12002, Note_on_c, 1, 56, 83
1, 12049, Note_off_c, 1, 56, 58
1, 12060, Note_on_c, 1, 65, 84
1, 12099, Note_off_c, 0, 80, 68
1, 12107, Note_off_c, 1, 65, 59
1, 12119, Note_on_c, 1, 61, 82
1, 12120, Note_on_c, 0, 80, 83
1, 12166, Note_off_c, 1, 61, 58
1, 12180, Note_on_c, 1, 65, 84
1, 12227, Note_off_c, 1, 65, 58
1, 12232, Note_off_c, 0, 80, 68
1, 12238, Note_on_c, 0, 80, 86
1, 12242, Note_on_c, 1, 56, 84
1, 12289, Note_off_c, 1, 56, 59
1, 12300, Note_on_c, 1, 65, 85
1, 12347, Note_off_c, 1, 65, 58
1, 12359, Note_on_c, 1, 61, 81
1, 12406, Note_off_c, 1, 61, 58
1, 12420, Note_on_c, 1, 65, 80
1, 12463, Note_off_c, 0, 80, 68
1, 12467, Note_off_c, 1, 65, 58
1, 12478, Note_on_c, 0, 82, 83
1, 12479, Note_on_c, 1, 55, 81
1, 12526, Note_off_c, 1, 55, 58
1, 12540, Note_on_c, 1, 65, 81
1, 12587, Note_off_c, 1, 65, 58
1, 12600, Note_on_c, 1, 55, 82
1, 12647, Note_off_c, 1, 55, 58
1, 12662, Note_on_c, 1, 61, 87
1, 12703, Note_off_c, 0, 82, 69
1, 12709, Note_off_c, 1, 61, 58
1, 12718, Note_on_c, 0, 84, 85
1, 12720, Control_c, 1, 64, 127
1, 12721, Note_on_c, 1, 55, 82
1, 12768, Note_off_c, 1, 55, 58
1, 12780, Note_on_c, 1, 65, 88
1, 12827, Note_off_c, 1, 65, 58
1, 12842, Note_on_c, 1, 60, 87
1, 12889, Note_off_c, 1, 60, 58
1, 12898, Note_on_c, 1, 65, 88
1, 12940, Control_c, 1, 64, 0
1, 12943, Note_off_c, 0, 84, 68
1, 12945, Note_off_c, 1, 65, 58
1, 12960, Note_on_c, 1, 55, 83
1, 12962, Note_on_c, 0, 79, 85
1, 13007, Note_off_c, 1, 55, 58
1, 13020, Note_on_c, 1, 65, 85
1, 13067, Note_off_c, 1, 65, 58
1, 13079, Note_on_c, 1, 60, 85
1, 13126, Note_off_c, 1, 60, 58
1, 13142, Note_on_c, 1, 65, 85
1, 13187, Note_off_c, 0, 79, 69
1, 13189, Note_off_c, 1, 65, 58
1, 13201, Note_on_c, 0, 79, 86
1, 13202, Note_on_c, 1, 55, 85
1, 13249, Note_off_c, 1, 55, 58
1, 13261, Note_on_c, 1, 64, 86
1, 13308, Note_off_c, 1, 64, 58
1, 13318, Note_on_c, 1, 60, 88
1, 13365, Note_off_c, 1, 60, 58
1, 13379, Note_on_c, 1, 64, 87
1, 13426, Note_off_c, 1, 64, 58
1, 13426, Note_off_c, 0, 79, 68
1, 13438, Note_on_c, 1, 55, 90
1, 13440, Note_on_c, 0, 79, 86
1, 13485, Note_off_c, 1, 55, 59
1, 13502, Note_on_c, 1, 64, 90
1, 13549, Note_off_c, 1, 64, 58
1, 13559, Note_on_c, 1, 60, 86
1, 13606, Note_off_c, 1, 60, 58
1, 13621, Note_on_c, 1, 64, 90
1, 13665, Note_off_c, 0, 79, 68
1, 13668, Note_off_c, 1, 64, 59
1, 13679, Note_on_c, 0, 79, 88
1, 13680, Control_c, 1, 64, 127
1, 13681, Note_on_c, 1, 50, 86
1, 13728, Note_off_c, 1, 50, 58
1, 13741, Note_on_c, 1, 59, 91
1, 13788, Note_off_c, 1, 59, 58
1, 13801, Note_on_c, 1, 55, 86
1, 13848, Note_off_c, 1, 55, 58
1, 13858, Note_on_c, 1, 59, 84
1, 13900, Control_c, 1, 64, 0
1, 13904, Note_off_c, 0, 79, 68
1, 13905, Note_off_c, 1, 59, 59
1, 13918, Note_on_c, 1, 50, 85
1, 13919, Note_on_c, 0, 79, 90
1, 13965, Note_off_c, 1, 50, 58
1, 13978, Note_on_c, 1, 59, 86
1, 14025, Note_off_c, 1, 59, 58
1, 14038, Note_on_c, 1, 55, 86
1, 14085, Note_off_c, 1, 55, 58
1, 14098, Note_on_c, 1, 59, 86
1, 14144, Note_off_c, 0, 79, 68
1, 14145, Note_off_c, 1, 59, 58
1, 14158, Note_on_c, 1, 55, 89
1, 14162, Note_on_c, 0, 79, 88
1, 14205, Note_off_c, 1, 55, 58
1, 14218, Note_on_c, 1, 62, 86
1, 14265, Note_off_c, 1, 62, 59
1, 14280, Note_on_c, 1, 59, 83
1, 14327, Note_off_c, 1, 59, 58
1, 14338, Note_on_c, 1, 62, 84
1, 14385, Note_off_c, 1, 62, 58
1, 14387, Note_off_c, 0, 79, 68
1, 14399, Note_on_c, 0, 79, 85
1, 14401, Note_on_c, 1, 55, 81
1, 14448, Note_off_c, 1, 55, 58
1, 14461, Note_on_c, 1, 62, 86
1, 14508, Note_off_c, 1, 62, 58
1, 14522, Note_on_c, 1, 59, 85
1, 14569, Note_off_c, 1, 59, 58
1, 14578, Note_on_c, 1, 62, 85
1, 14624, Note_off_c, 0, 79, 68
1, 14625, Note_off_c, 1, 62, 58
1, 14638, Note_on_c, 1, 55, 80
1, 14640, Control_c, 1, 64, 127
1, 14642, Note_on_c, 0, 74, 81
1, 14685, Note_off_c, 1, 55, 58
1, 14701, Note_on_c, 1, 65, 79
1, 14748, Note_off_c, 1, 65, 58
1, 14761, Note_on_c, 1, 60, 80
1, 14808, Note_off_c, 1, 60, 58
1, 14820, Note_on_c, 1, 65, 78
1, 14860, Control_c, 1, 64, 0
1, 14867, Note_off_c, 1, 65, 59
1, 14880, Note_on_c, 1, 55, 80
1, 14927, Note_off_c, 1, 55, 59
1, 14942, Note_on_c, 1, 64, 80
1, 14980, Note_off_c, 0, 74, 68
1, 14989, Note_off_c, 1, 64, 58
1, 14998, Note_on_c, 0, 72, 81
1, 14999, Note_on_c, 1, 60, 83
1, 15046, Note_off_c, 1, 60, 58
1, 15062, Note_on_c, 1, 64, 76
1, 15109, Note_off_c, 1, 64, 58
1, 15110, Note_off_c, 0, 72, 68
1, 15120, Note_on_c, 0, 72, 80
1, 15122, Note_on_c, 1, 55, 77
1, 15169, Note_off_c, 1, 55, 58
1, 15182, Note_on_c, 1, 62, 82
1, 15229, Note_off_c, 1, 62, 58
1, 15238, Note_on_c, 1, 60, 82
1, 15285, Note_off_c, 1, 60, 58
1, 15301, Note_on_c, 1, 62, 75
1, 15345, Note_off_c, 0, 72, 68
1, 15348, Note_off_c, 1, 62, 58
1, 15359, Note_on_c, 1, 55, 80
1, 15361, Note_on_c, 0, 72, 81
1, 15406, Note_off_c, 1, 55, 58
1, 15422, Note_on_c, 1, 64, 80
1, 15469, Note_off_c, 1, 64, 58
1, 15480, Note_on_c, 1, 60, 78
1, 15527, Note_off_c, 1, 60, 58
1, 15541, Note_on_c, 1, 64, 75
1, 15586, Note_off_c, 0, 72, 69
1, 15588, Note_off_c, 1, 64, 58
1, 15599, Note_on_c, 0, 72, 75
1, 15600, Control_c, 1, 64, 127
1, 15601, Note_on_c, 1, 52, 78
1, 15648, Note_off_c, 1, 52, 58
1, 15659, Note_on_c, 1, 60, 79
1, 15706, Note_off_c, 1, 60, 58
1, 15718, Note_on_c, 1, 58, 73
1, 15765, Note_off_c, 1, 58, 58
1, 15781, Note_on_c, 1, 60, 79
1, 15820, Control_c, 1, 64, 0
1, 15828, Note_off_c, 1, 60, 59
1, 15838, Note_on_c, 1, 52, 75
1, 15885, Note_off_c, 1, 52, 58
1, 15898, Note_on_c, 1, 60, 77
1, 15937, Note_off_c, 0, 72, 68
1, 15945, Note_off_c, 1, 60, 58
1, 15958, Note_on_c, 1, 58, 79
1, 15961, Note_on_c, 0, 72, 74
1, 16005, Note_off_c, 1, 58, 58
1, 16020, Note_on_c, 1, 60, 79
1, 16067, Note_off_c, 1, 60, 58
1, 16073, Note_off_c, 0, 72, 68
1, 16079, Note_on_c, 0, 73, 73
1, 16080, Note_on_c, 1, 52, 73
1, 16127, Note_off_c, 1, 52, 59
1, 16139, Note_on_c, 1, 60, 77
1, 16186, Note_off_c, 1, 60, 58
1, 16200, Note_on_c, 1, 58, 73
1, 16247, Note_off_c, 1, 58, 58
1, 16258, Note_on_c, 1, 60, 74
1, 16304, Note_off_c, 0, 73, 68
1, 16305, Note_off_c, 1, 60, 58
1, 16318, Note_on_c, 0, 72, 79
1, 16319, Note_on_c, 1, 52, 75
1, 16366, Note_off_c, 1, 52, 58
1, 16380, Note_on_c, 1, 60, 78
1, 16427, Note_off_c, 1, 60, 58
1, 16439, Note_on_c, 1, 58, 77
1, 16486, Note_off_c, 1, 58, 58
1, 16500, Note_on_c, 1, 60, 79
1, 16543, Note_off_c, 0, 72, 69
1, 16547, Note_off_c, 1, 60, 58
1, 16559, Note_on_c, 0, 72, 73
1, 16560, Control_c, 1, 64, 127
1, 16562, Note_on_c, 1, 53, 79
1, 16609, Note_off_c, 1, 53, 58
1, 16619, Note_on_c, 1, 60, 73
1, 16666, Note_off_c, 1, 60, 58
1, 16679, Note_on_c, 1, 58, 73
1, 16726, Note_off_c, 1, 58, 58
1, 16740, Note_on_c, 1, 60, 79
1, 16780, Control_c, 1, 64, 0
1, 16784, Note_off_c, 0, 72, 69
1, 16787, Note_off_c, 1, 60, 58
1, 16799, Note_on_c, 1, 53, 78
1, 16802, Note_on_c, 0, 74, 79
1, 16846, Note_off_c, 1, 53, 58
1, 16860, Note_on_c, 1, 60, 77
1, 16907, Note_off_c, 1, 60, 58
1, 16919, Note_on_c, 1, 57, 77
1, 16966, Note_off_c, 1, 57, 58
1, 16982, Note_on_c, 1, 60, 78
1, 17027, Note_off_c, 0, 74, 68
1, 17029, Note_off_c, 1, 60, 58
1, 17039, Note_on_c, 1, 53, 75
1, 17042, Note_on_c, 0, 76, 78
1, 17086, Note_off_c, 1, 53, 58
1, 17101, Note_on_c, 1, 60, 79
1, 17148, Note_off_c, 1, 60, 58
1, 17161, Note_on_c, 1, 55, 74
1, 17208, Note_off_c, 1, 55, 58
1, 17221, Note_on_c, 1, 60, 74
1, 17267, Note_off_c, 0, 76, 68
1, 17268, Note_off_c, 1, 60, 58
1, 17278, Note_on_c, 0, 77, 79
1, 17281, Note_on_c, 1, 53, 78
1, 17328, Note_off_c, 1, 53, 59
1, 17338, Note_on_c, 1, 60, 76
1, 17385, Note_off_c, 1, 60, 58
1, 17401, Note_on_c, 1, 53, 78
1, 17448, Note_off_c, 1, 53, 58
1, 17461, Note_on_c, 1, 60, 76
1, 17503, Note_off_c, 0, 77, 68
1, 17508, Note_off_c, 1, 60, 58
1, 17519, Note_on_c, 1, 51, 86
1, 17520, Control_c, 1, 64, 127
1, 17521, Note_on_c, 0, 75, 91
1, 17566, Note_off_c, 1, 51, 58
1, 17581, Note_on_c, 1, 61, 87
1, 17628, Note_off_c, 1, 61, 58
1, 17638, Note_on_c, 1, 55, 87
1, 17685, Note_off_c, 1, 55, 58
1, 17702, Note_on_c, 1, 61, 90
1, 17740, Control_c, 1, 64, 0
1, 17749, Note_off_c, 1, 61, 58
1, 17758, Note_on_c, 1, 51, 90
1, 17805, Note_off_c, 1, 51, 58
1, 17822, Note_on_c, 1, 61, 88
1, 17859, Note_off_c, 0, 75, 68
1, 17869, Note_off_c, 1, 61, 58
1, 17879, Note_on_c, 1, 55, 87
1, 17882, Note_on_c, 0, 75, 86
1, 17926, Note_off_c, 1, 55, 58
1, 17941, Note_on_c, 1, 61, 86
1, 17988, Note_off_c, 1, 61, 58
1, 17994, Note_off_c, 0, 75, 68
1, 17998, Note_on_c, 0, 77, 89
1, 18000, Note_on_c, 1, 51, 91
1, 18047, Note_off_c, 1, 51, 58
1, 18058, Note_on_c, 1, 61, 92
1, 18105, Note_off_c, 1, 61, 59
1, 18118, Note_on_c, 1, 55, 89
1, 18165, Note_off_c, 1, 55, 58
1, 18180, Note_on_c, 1, 61, 89
1, 18223, Note_off_c, 0, 77, 68
1, 18227, Note_off_c, 1, 61, 58
1, 18238, Note_on_c, 0, 75, 86
1, 18239, Note_on_c, 1, 51, 92
1, 18286, Note_off_c, 1, 51, 59
1, 18299, Note_on_c, 1, 61, 88
1, 18346, Note_off_c, 1, 61, 58
1, 18362, Note_on_c, 1, 55, 86
1, 18409, Note_off_c, 1, 55, 58
1, 18422, Note_on_c, 1, 61, 86
1, 18463, Note_off_c, 0, 75, 68
1, 18469, Note_off_c, 1, 61, 58
1, 18479, Note_on_c, 0, 75, 87
1, 18480, Control_c, 1, 64, 127
1, 18482, Note_on_c, 1, 51, 87
1, 18529, Note_off_c, 1, 51, 58
1, 18540, Note_on_c, 1, 61, 86
1, 18587, Note_off_c, 1, 61, 59
1, 18598, Note_on_c, 1, 56, 92
1, 18645, Note_off_c, 1, 56, 58
1, 18661, Note_on_c, 1, 61, 91
1, 18700, Control_c, 1, 64, 0
1, 18704, Note_off_c, 0, 75, 68
1, 18708, Note_off_c, 1, 61, 59
1, 18721, Note_on_c, 1, 51, 91
1, 18722, Note_on_c, 0, 77, 90
1, 18768, Note_off_c, 1, 51, 58
1, 18782, Note_on_c, 1, 60, 86
1, 18829, Note_off_c, 1, 60, 58
1, 18840, Note_on_c, 1, 56, 87
1, 18887, Note_off_c, 1, 56, 58
1, 18900, Note_on_c, 1, 60, 88
1, 18947, Note_off_c, 1, 60, 58
1, 18947, Note_off_c, 0, 77, 68
1, 18960, Note_on_c, 0, 79, 86
1, 18961, Note_on_c, 1, 51, 91
1, 19008, Note_off_c, 1, 51, 58
1, 19018, Note_on_c, 1, 58, 87
1, 19065, Note_off_c, 1, 58, 59
1, 19078, Note_on_c, 1, 55, 92
1, 19125, Note_off_c, 1, 55, 59
1, 19140, Note_on_c, 1, 58, 88
1, 19185, Note_off_c, 0, 79, 68
1, 19187, Note_off_c, 1, 58, 59
1, 19200, Note_on_c, 1, 51, 86
1, 19201, Note_on_c, 0, 80, 90
1, 19247, Note_off_c, 1, 51, 59
1, 19259, Note_on_c, 1, 56, 89
1, 19306, Note_off_c, 1, 56, 58
1, 19320, Note_on_c, 1, 51, 87
1, 19367, Note_off_c, 1, 51, 58
1, 19379, Note_on_c, 1, 56, 91
1, 19426, Note_off_c, 1, 56, 58
1, 19426, Note_off_c, 0, 80, 68
1, 19440, Note_on_c, 0, 79, 65
1, 19440, Note_on_c, 1, 52, 67
1, 19440, Control_c, 1, 64, 127
1, 19487, Note_off_c, 1, 52, 58
1, 19499, Note_on_c, 1, 60, 66
1, 19546, Note_off_c, 1, 60, 58
1, 19559, Note_on_c, 1, 55, 69
1, 19606, Note_off_c, 1, 55, 58
1, 19618, Note_on_c, 1, 60, 65
1, 19660, Control_c, 1, 64, 0
1, 19665, Note_off_c, 1, 60, 59
1, 19680, Note_on_c, 1, 50, 69
1, 19727, Note_off_c, 1, 50, 58
1, 19739, Note_on_c, 1, 59, 66
1, 19778, Note_off_c, 0, 79, 69
1, 19786, Note_off_c, 1, 59, 58
1, 19798, Note_on_c, 0, 79, 68
1, 19798, Note_on_c, 1, 56, 66
1, 19845, Note_off_c, 1, 56, 58
1, 19861, Note_on_c, 1, 59, 66
1, 19908, Note_off_c, 1, 59, 58
1, 19910, Note_off_c, 0, 79, 68
1, 19919, Note_on_c, 0, 80, 66
1, 19920, Note_on_c, 1, 53, 64
1, 19967, Note_off_c, 1, 53, 58
1, 19982, Note_on_c, 1, 62, 68
1, 20029, Note_off_c, 1, 62, 58
1, 20039, Note_on_c, 1, 55, 66
1, 20086, Note_off_c, 1, 55, 58
1, 20102, Note_on_c, 1, 62, 70
1, 20144, Note_off_c, 0, 80, 68
1, 20149, Note_off_c, 1, 62, 58
1, 20160, Note_on_c, 0, 77, 65
1, 20162, Note_on_c, 1, 52, 68
1, 20209, Note_off_c, 1, 52, 58
1, 20222, Note_on_c, 1, 61, 65
1, 20269, Note_off_c, 1, 61, 58
1, 20279, Note_on_c, 1, 55, 69
1, 20326, Note_off_c, 1, 55, 58
1, 20339, Note_on_c, 1, 61, 72
1, 20385, Note_off_c, 0, 77, 68
1, 20386, Note_off_c, 1, 61, 58
1, 20398, Note_on_c, 1, 52, 71
1, 20399, Note_on_c, 0, 76, 66
1, 20400, Control_c, 1, 64, 127
1, 20445, Note_off_c, 1, 52, 58
1, 20462, Note_on_c, 1, 61, 70
1, 20509, Note_off_c, 1, 61, 58
1, 20521, Note_on_c, 1, 57, 68
1, 20568, Note_off_c, 1, 57, 58
1, 20580, Note_on_c, 1, 61, 70
1, 20620, Control_c, 1, 64, 0
1, 20627, Note_off_c, 1, 61, 58
1, 20640, Note_on_c, 1, 53, 70
1, 20687, Note_off_c, 1, 53, 59
1, 20701, Note_on_c, 1, 59, 69
1, 20737, Note_off_c, 0, 76, 68
1, 20748, Note_off_c, 1, 59, 59
1, 20758, Note_on_c, 0, 74, 68
1, 20761, Note_on_c, 1, 57, 68
1, 20808, Note_off_c, 1, 57, 58
1, 20820, Note_on_c, 1, 59, 74
1, 20867, Note_off_c, 1, 59, 58
1, 20870, Note_off_c, 0, 74, 69
1, 20880, Note_on_c, 0, 77, 70
1, 20882, Note_on_c, 1, 53, 73
1, 20929, Note_off_c, 1, 53, 58
1, 20941, Note_on_c, 1, 62, 72
1, 20988, Note_off_c, 1, 62, 58
1, 21001, Note_on_c, 1, 57, 74
1, 21048, Note_off_c, 1, 57, 58
1, 21061, Note_on_c, 1, 62, 69
1, 21108, Note_off_c, 1, 62, 59
1, 21122, Note_on_c, 1, 52, 72
1, 21169, Note_off_c, 1, 52, 59
1, 21179, Note_on_c, 1, 62, 72
1, 21218, Note_off_c, 0, 77, 68
1, 21226, Note_off_c, 1, 62, 58
1, 21239, Note_on_c, 0, 76, 73
1, 21241, Note_on_c, 1, 56, 70
1, 21288, Note_off_c, 1, 56, 58
1, 21299, Note_on_c, 1, 62, 73
1, 21346, Note_off_c, 1, 62, 58
1, 21351, Note_off_c, 0, 76, 68
1, 21359, Note_on_c, 0, 76, 71
1, 21360, Control_c, 1, 64, 127
1, 21362, Note_on_c, 1, 52, 73
1, 21409, Note_off_c, 1, 52, 58
1, 21421, Note_on_c, 1, 60, 76
1, 21468, Note_off_c, 1, 60, 59
1, 21479, Note_on_c, 1, 55, 73
1, 21526, Note_off_c, 1, 55, 58
1, 21541, Note_on_c, 1, 60, 76
1, 21580, Control_c, 1, 64, 0
1, 21588, Note_off_c, 1, 60, 58
1, 21598, Note_on_c, 1, 53, 76
1, 21645, Note_off_c, 1, 53, 58
1, 21662, Note_on_c, 1, 59, 73
1, 21697, Note_off_c, 0, 76, 68
1, 21709, Note_off_c, 1, 59, 58
1, 21720, Note_on_c, 0, 74, 76
1, 21720, Note_on_c, 1, 56, 73
1, 21767, Note_off_c, 1, 56, 58
1, 21778, Note_on_c, 1, 59, 74
1, 21825, Note_off_c, 1, 59, 58
1, 21832, Note_off_c, 0, 74, 68
1, 21841, Note_on_c, 1, 53, 75
1, 21842, Note_on_c, 0, 77, 74
1, 21888, Note_off_c, 1, 53, 59
1, 21899, Note_on_c, 1, 62, 73
1, 21946, Note_off_c, 1, 62, 58
1, 21962, Note_on_c, 1, 55, 73
1, 22009, Note_off_c, 1, 55, 58
1, 22020, Note_on_c, 1, 62, 75
1, 22067, Note_off_c, 1, 62, 58
1, 22080, Note_on_c, 1, 52, 75
1, 22127, Note_off_c, 1, 52, 58
1, 22139, Note_on_c, 1, 62, 75
1, 22180, Note_off_c, 0, 77, 68
1, 22186, Note_off_c, 1, 62, 58
1, 22198, Note_on_c, 0, 76, 76
1, 22201, Note_on_c, 1, 55, 73
1, 22248, Note_off_c, 1, 55, 58
1, 22260, Note_on_c, 1, 62, 79
1, 22307, Note_off_c, 1, 62, 58
1, 22310, Note_off_c, 0, 76, 68
1, 22320, Control_c, 1, 64, 127
1, 22321, Note_on_c, 1, 52, 76
1, 22322, Note_on_c, 0, 76, 76
1, 22368, Note_off_c, 1, 52, 58
1, 22378, Note_on_c, 1, 61, 75
1, 22425, Note_off_c, 1, 61, 59
1, 22438, Note_on_c, 1, 57, 77
1, 22485, Note_off_c, 1, 57, 59
1, 22500, Note_on_c, 1, 61, 76
1, 22540, Control_c, 1, 64, 0
1, 22547, Note_off_c, 1, 61, 58
1, 22559, Note_on_c, 1, 54, 76
1, 22606, Note_off_c, 1, 54, 58
1, 22622, Note_on_c, 1, 59, 78
1, 22660, Note_off_c, 0, 76, 68
1, 22669, Note_off_c, 1, 59, 59
1, 22679, Note_on_c, 0, 74, 78
1, 22681, Note_on_c, 1, 57, 79
1, 22728, Note_off_c, 1, 57, 59
1, 22738, Note_on_c, 1, 59, 76
1, 22785, Note_off_c, 1, 59, 58
1, 22791, Note_off_c, 0, 74, 68
1, 22800, Note_on_c, 1, 54, 78
1, 22801, Note_on_c, 0, 78, 77
1, 22847, Note_off_c, 1, 54, 58
1, 22862, Note_on_c, 1, 62, 80
1, 22909, Note_off_c, 1, 62, 59
1, 22919, Note_on_c, 1, 57, 79
1, 22966, Note_off_c, 1, 57, 58
1, 22979, Note_on_c, 1, 62, 82
1, 23026, Note_off_c, 1, 62, 59
1, 23041, Note_on_c, 1, 52, 83
1, 23088, Note_off_c, 1, 52, 58
1, 23101, Note_on_c, 1, 62, 83
1, 23139, Note_off_c, 0, 78, 68
1, 23148, Note_off_c, 1, 62, 58
1, 23160, Note_on_c, 0, 76, 82
1, 23161, Note_on_c, 1, 56, 81
1, 23208, Note_off_c, 1, 56, 58
1, 23220, Note_on_c, 1, 62, 78
1, 23267, Note_off_c, 1, 62, 58
1, 23272, Note_off_c, 0, 76, 68
1, 23279, Note_on_c, 0, 76, 84
1, 23280, Control_c, 1, 64, 127
1, 23281, Note_on_c, 1, 52, 83
1, 23328, Note_off_c, 1, 52, 58
1, 23341, Note_on_c, 1, 61, 78
1, 23388, Note_off_c, 1, 61, 59
1, 23399, Note_on_c, 1, 57, 79
1, 23446, Note_off_c, 1, 57, 58
1, 23461, Note_on_c, 1, 61, 85
1, 23500, Control_c, 1, 64, 0
1, 23508, Note_off_c, 1, 61, 58
1, 23518, Note_on_c, 1, 52, 82
1, 23565, Note_off_c, 1, 52, 58
1, 23578, Note_on_c, 1, 61, 82
1, 23617, Note_off_c, 0, 76, 68
1, 23625, Note_off_c, 1, 61, 58
1, 23640, Note_on_c, 0, 81, 84
1, 23642, Note_on_c, 1, 57, 81
1, 23689, Note_off_c, 1, 57, 58
1, 23701, Note_on_c, 1, 61, 80
1, 23748, Note_off_c, 1, 61, 58
1, 23752, Note_off_c, 0, 81, 69
1, 23761, Note_on_c, 1, 51, 83
1, 23762, Note_on_c, 0, 83, 84
1, 23808, Note_off_c, 1, 51, 59
1, 23821, Note_on_c, 1, 60, 85
1, 23868, Note_off_c, 1, 60, 58
1, 23880, Note_on_c, 1, 54, 84
1, 23927, Note_off_c, 1, 54, 58
1, 23941, Note_on_c, 1, 60, 85
1, 23988, Note_off_c, 1, 60, 59
1, 24001, Note_on_c, 1, 51, 87
1, 24048, Note_off_c, 1, 51, 58
1, 24059, Note_on_c, 1, 60, 84
1, 24100, Note_off_c, 0, 83, 68
1, 24106, Note_off_c, 1, 60, 58
1, 24119, Note_on_c, 0, 84, 83
1, 24120, Note_on_c, 1, 54, 87
1, 24167, Note_off_c, 1, 54, 58
1, 24180, Note_on_c, 1, 60, 88
1, 24227, Note_off_c, 1, 60, 58
1, 24231, Note_off_c, 0, 84, 68
1, 24239, Note_on_c, 1, 56, 83
1, 24240, Note_on_c, 0, 84, 88
1, 24240, Control_c, 1, 64, 127
1, 24286, Note_off_c, 1, 56, 58
1, 24302, Note_on_c, 1, 61, 87
1, 24349, Note_off_c, 1, 61, 59
1, 24359, Note_on_c, 1, 58, 83
1, 24406, Note_off_c, 1, 58, 58
1, 24421, Note_on_c, 1, 61, 88
1, 24460, Control_c, 1, 64, 0
1, 24468, Note_off_c, 1, 61, 58
1, 24481, Note_on_c, 1, 56, 84
1, 24528, Note_off_c, 1, 56, 58
1, 24542, Note_on_c, 1, 61, 88
1, 24578, Note_off_c, 0, 84, 68
1, 24589, Note_off_c, 1, 61, 58
1, 24598, Note_on_c, 1, 58, 88
1, 24602, Note_on_c, 0, 82, 84
1, 24645, Note_off_c, 1, 58, 58
1, 24662, Note_on_c, 1, 61, 85
1, 24709, Note_off_c, 1, 61, 58
1, 24714, Note_off_c, 0, 82, 68
1, 24719, Note_on_c, 1, 56, 89
1, 24720, Note_on_c, 0, 85, 84
1, 24766, Note_off_c, 1, 56, 59
1, 24780, Note_on_c, 1, 61, 86
1, 24827, Note_off_c, 1, 61, 58
1, 24842, Note_on_c, 1, 58, 89
1, 24889, Note_off_c, 1, 58, 58
1, 24902, Note_on_c, 1, 61, 87
1, 24945, Note_off_c, 0, 85, 68
1, 24949, Note_off_c, 1, 61, 58
1, 24959, Note_on_c, 1, 56, 87
1, 24961, Note_on_c, 0, 77, 89
1, 25006, Note_off_c, 1, 56, 58
1, 25021, Note_on_c, 1, 61, 87
1, 25068, Note_off_c, 1, 61, 58
1, 25078, Note_on_c, 1, 58, 90
1, 25125, Note_off_c, 1, 58, 58
1, 25138, Note_on_c, 1, 61, 88
1, 25185, Note_off_c, 1, 61, 58
1, 25186, Note_off_c, 0, 77, 68
1, 25199, Note_on_c, 1, 51, 60
1, 25200, Control_c, 1, 64, 127
1, 25201, Note_on_c, 0, 82, 70
1, 25246, Note_off_c, 1, 51, 59
1, 25259, Note_on_c, 1, 60, 58
1, 25306, Note_off_c, 1, 60, 59
1, 25319, Note_on_c, 1, 56, 60
1, 25366, Note_off_c, 1, 56, 58
1, 25380, Note_on_c, 1, 60, 63
1, 25420, Control_c, 1, 64, 0
1, 25427, Note_off_c, 1, 60, 58
1, 25440, Note_on_c, 1, 51, 59
1, 25487, Note_off_c, 1, 51, 58
1, 25501, Note_on_c, 1, 60, 59
1, 25539, Note_off_c, 0, 82, 68
1, 25548, Note_off_c, 1, 60, 58
1, 25559, Note_on_c, 1, 56, 58
1, 25560, Note_on_c, 0, 80, 67
1, 25606, Note_off_c, 1, 56, 58
1, 25621, Note_on_c, 1, 60, 58
1, 25668, Note_off_c, 1, 60, 58
1, 25672, Note_off_c, 0, 80, 69
1, 25680, Note_on_c, 0, 84, 71
1, 25680, Note_on_c, 1, 51, 61
1, 25727, Note_off_c, 1, 51, 58
1, 25742, Note_on_c, 1, 60, 62
1, 25789, Note_off_c, 1, 60, 59
1, 25800, Note_on_c, 1, 56, 59
1, 25847, Note_off_c, 1, 56, 58
1, 25860, Note_on_c, 1, 60, 62
1, 25905, Note_off_c, 0, 84, 68
1, 25907, Note_off_c, 1, 60, 58
1, 25918, Note_on_c, 1, 51, 63
1, 25921, Note_on_c, 0, 75, 65
1, 25965, Note_off_c, 1, 51, 58
1, 25982, Note_on_c, 1, 60, 61
1, 26029, Note_off_c, 1, 60, 59
1, 26039, Note_on_c, 1, 56, 62
1, 26086, Note_off_c, 1, 56, 58
1, 26098, Note_on_c, 1, 60, 59
1, 26145, Note_off_c, 1, 60, 58
1, 26146, Note_off_c, 0, 75, 68
1, 26159, Note_on_c, 0, 75, 78
1, 26160, Control_c, 1, 64, 127
1, 26162, Note_on_c, 1, 51, 74
1, 26209, Note_off_c, 1, 51, 58
1, 26220, Note_on_c, 1, 63, 73
1, 26267, Note_off_c, 1, 63, 58
1, 26278, Note_on_c, 1, 55, 74
1, 26325, Note_off_c, 1, 55, 58
1, 26341, Note_on_c, 1, 63, 73
1, 26380, Control_c, 1, 64, 0
1, 26384, Note_off_c, 0, 75, 69
1, 26388, Note_off_c, 1, 63, 59
1, 26398, Note_on_c, 1, 51, 73
1, 26401, Note_on_c, 0, 76, 75
1, 26445, Note_off_c, 1, 51, 58
1, 26462, Note_on_c, 1, 63, 75
1, 26509, Note_off_c, 1, 63, 58
1, 26521, Note_on_c, 1, 55, 73
1, 26568, Note_off_c, 1, 55, 59
1, 26578, Note_on_c, 1, 63, 74
1, 26625, Note_off_c, 1, 63, 58
1, 26626, Note_off_c, 0, 76, 68
1, 26640, Note_on_c, 1, 51, 76
1, 26642, Note_on_c, 0, 77, 77
1, 26687, Note_off_c, 1, 51, 59
1, 26702, Note_on_c, 1, 63, 75
1, 26749, Note_off_c, 1, 63, 58
1, 26761, Note_on_c, 1, 55, 76
1, 26808, Note_off_c, 1, 55, 58
1, 26819, Note_on_c, 1, 63, 76
1, 26866, Note_off_c, 1, 63, 58
1, 26867, Note_off_c, 0, 77, 68
1, 26879, Note_on_c, 0, 75, 77
1, 26880, Note_on_c, 1, 51, 79
1, 26927, Note_off_c, 1, 51, 58
1, 26938, Note_on_c, 1, 63, 75
1, 26985, Note_off_c, 1, 63, 59
1, 26998, Note_on_c, 1, 55, 77
1, 27045, Note_off_c, 1, 55, 59
1, 27060, Note_on_c, 1, 63, 78
1, 27104, Note_off_c, 0, 75, 68
1, 27107, Note_off_c, 1, 63, 58
1, 27118, Note_on_c, 1, 53, 86
1, 27120, Control_c, 1, 64, 127
1, 27121, Note_on_c, 0, 73, 88
1, 27165, Note_off_c, 1, 53, 59
1, 27182, Note_on_c, 1, 65, 87
1, 27229, Note_off_c, 1, 65, 58
1, 27242, Note_on_c, 1, 56, 83
1, 27289, Note_off_c, 1, 56, 58
1, 27299, Note_on_c, 1, 65, 85
1, 27340, Control_c, 1, 64, 0
1, 27346, Note_off_c, 1, 65, 58
1, 27346, Note_off_c, 0, 73, 68
1, 27358, Note_on_c, 0, 72, 82
1, 27360, Note_on_c, 1, 53, 84
1, 27407, Note_off_c, 1, 53, 58
1, 27422, Note_on_c, 1, 65, 85
1, 27469, Note_off_c, 1, 65, 58
1, 27479, Note_on_c, 1, 56, 77
1, 27526, Note_off_c, 1, 56, 58
1, 27539, Note_on_c, 1, 65, 79
1, 27583, Note_off_c, 0, 72, 68
1, 27586, Note_off_c, 1, 65, 59
1, 27600, Note_on_c, 1, 53, 80
1, 27601, Note_on_c, 0, 72, 75
1, 27647, Note_off_c, 1, 53, 58
1, 27662, Note_on_c, 1, 65, 78
1, 27709, Note_off_c, 1, 65, 58
1, 27718, Note_on_c, 1, 57, 73
1, 27765, Note_off_c, 1, 57, 58
1, 27780, Note_on_c, 1, 65, 75
1, 27826, Note_off_c, 0, 72, 68
1, 27827, Note_off_c, 1, 65, 58
1, 27841, Note_on_c, 0, 84, 74
1, 27842, Note_on_c, 1, 53, 71
1, 27889, Note_off_c, 1, 53, 58
1, 27901, Note_on_c, 1, 65, 67
1, 27948, Note_off_c, 1, 65, 59
1, 27960, Note_on_c, 1, 57, 70
1, 28007, Note_off_c, 1, 57, 58
1, 28021, Note_on_c, 1, 65, 64
1, 28066, Note_off_c, 0, 84, 68
1, 28068, Note_off_c, 1, 65, 59
1, 28080, Note_on_c, 1, 53, 75
1, 28080, Control_c, 1, 64, 127
1, 28081, Note_on_c, 0, 84, 76
1, 28127, Note_off_c, 1, 53, 58
1, 28140, Note_on_c, 1, 61, 77
1, 28187, Note_off_c, 1, 61, 58
1, 28201, Note_on_c, 1, 58, 78
1, 28248, Note_off_c, 1, 58, 58
1, 28258, Note_on_c, 1, 61, 77
1, 28300, Control_c, 1, 64, 0
1, 28305, Note_off_c, 1, 61, 58
1, 28306, Note_off_c, 0, 84, 68
1, 28319, Note_on_c, 0, 82, 78
1, 28322, Note_on_c, 1, 53, 79
1, 28369, Note_off_c, 1, 53, 58
1, 28380, Note_on_c, 1, 61, 79
1, 28427, Note_off_c, 1, 61, 58
1, 28441, Note_on_c, 1, 58, 75
1, 28488, Note_off_c, 1, 58, 58
1, 28501, Note_on_c, 1, 61, 76
1, 28544, Note_off_c, 0, 82, 68
1, 28548, Note_off_c, 1, 61, 58
1, 28560, Note_on_c, 0, 85, 78
1, 28561, Note_on_c, 1, 52, 75
1, 28608, Note_off_c, 1, 52, 58
1, 28621, Note_on_c, 1, 61, 74
1, 28668, Note_off_c, 1, 61, 58
1, 28679, Note_on_c, 1, 56, 79
1, 28726, Note_off_c, 1, 56, 58
1, 28738, Note_on_c, 1, 61, 78
1, 28785, Note_off_c, 1, 61, 58
1, 28800, Note_on_c, 1, 52, 77
1, 28847, Note_off_c, 1, 52, 59
1, 28861, Note_on_c, 1, 61, 74
1, 28898, Note_off_c, 0, 85, 68
1, 28908, Note_off_c, 1, 61, 58
1, 28918, Note_on_c, 0, 76, 74
1, 28922, Note_on_c, 1, 56, 75
1, 28969, Note_off_c, 1, 56, 58
1, 28980, Note_on_c, 1, 61, 78
1, 29027, Note_off_c, 1, 61, 58
1, 29030, Note_off_c, 0, 76, 68
1, 29038, Note_on_c, 1, 56, 76
1, 29039, Note_on_c, 0, 82, 74
1, 29040, Control_c, 1, 64, 127
1, 29085, Note_off_c, 1, 56, 58
1, 29099, Note_on_c, 1, 63, 75
1, 29146, Note_off_c, 1, 63, 58
1, 29159, Note_on_c, 1, 60, 79
1, 29206, Note_off_c, 1, 60, 58
1, 29220, Note_on_c, 1, 63, 75
1, 29260, Control_c, 1, 64, 0
1, 29264, Note_off_c, 0, 82, 68
1, 29267, Note_off_c, 1, 63, 58
1, 29279, Note_on_c, 1, 56, 74
1, 29280, Note_on_c, 0, 80, 78
1, 29326, Note_off_c, 1, 56, 58
1, 29341, Note_on_c, 1, 63, 75
1, 29388, Note_off_c, 1, 63, 58
1, 29402, Note_on_c, 1, 60, 78
1, 29449, Note_off_c, 1, 60, 58
1, 29459, Note_on_c, 1, 63, 77
1, 29505, Note_off_c, 0, 80, 68
1, 29506, Note_off_c, 1, 63, 58
1, 29518, Note_on_c, 1, 56, 77
1, 29522, Note_on_c, 0, 84, 78
1, 29565, Note_off_c, 1, 56, 58
1, 29581, Note_on_c, 1, 63, 73
1, 29628, Note_off_c, 1, 63, 59
1, 29640, Note_on_c, 1, 60, 76
1, 29687, Note_off_c, 1, 60, 58
1, 29699, Note_on_c, 1, 63, 78
1, 29746, Note_off_c, 1, 63, 58
1, 29758, Note_on_c, 1, 56, 77
1, 29805, Note_off_c, 1, 56, 58
1, 29822, Note_on_c, 1, 63, 74
1, 29860, Note_off_c, 0, 84, 68
1, 29869, Note_off_c, 1, 63, 59
1, 29878, Note_on_c, 0, 75, 78
1, 29882, Note_on_c, 1, 60, 77
1, 29929, Note_off_c, 1, 60, 58
1, 29939, Note_on_c, 1, 63, 78
1, 29986, Note_off_c, 1, 63, 58
1, 29990, Note_off_c, 0, 75, 69
1, 30000, Note_on_c, 1, 57, 77
1, 30000, Control_c, 1, 64, 127
1, 30001, Note_on_c, 0, 75, 74
1, 30047, Note_off_c, 1, 57, 58
1, 30060, Note_on_c, 1, 63, 74
1, 30107, Note_off_c, 1, 63, 58
1, 30119, Note_on_c, 1, 60, 76
1, 30166, Note_off_c, 1, 60, 59
1, 30179, Note_on_c, 1, 63, 76
1, 30220, Control_c, 1, 64, 0
1, 30226, Note_off_c, 1, 63, 58
1, 30241, Note_on_c, 1, 57, 77
1, 30288, Note_off_c, 1, 57, 58
1, 30301, Note_on_c, 1, 63, 77
1, 30339, Note_off_c, 0, 75, 68
1, 30348, Note_off_c, 1, 63, 58
1, 30361, Note_on_c, 0, 77, 79
1, 30362, Note_on_c, 1, 60, 79
1, 30409, Note_off_c, 1, 60, 58
1, 30420, Note_on_c, 1, 63, 79
1, 30467, Note_off_c, 1, 63, 58
1, 30473, Note_off_c, 0, 77, 68
1, 30478, Note_on_c, 0, 78, 79
1, 30480, Note_on_c, 1, 57, 78
1, 30527, Note_off_c, 1, 57, 58
1, 30542, Note_on_c, 1, 63, 76
1, 30589, Note_off_c, 1, 63, 58
1, 30602, Note_on_c, 1, 60, 78
1, 30649, Note_off_c, 1, 60, 58
1, 30658, Note_on_c, 1, 63, 73
1, 30703, Note_off_c, 0, 78, 68
1, 30705, Note_off_c, 1, 63, 58
1, 30719, Note_on_c, 1, 57, 76
1, 30720, Note_on_c, 0, 77, 76
1, 30766, Note_off_c, 1, 57, 58
1, 30779, Note_on_c, 1, 63, 79
1, 30826, Note_off_c, 1, 63, 58
1, 30838, Note_on_c, 1, 61, 75
1, 30885, Note_off_c, 1, 61, 58
1, 30900, Note_on_c, 1, 63, 79
1, 30945, Note_off_c, 0, 77, 69
1, 30947, Note_off_c, 1, 63, 58
1, 30959, Note_on_c, 1, 58, 90
1, 30960, Control_c, 1, 64, 127
1, 30962, Note_on_c, 0, 77, 87
1, 31006, Note_off_c, 1, 58, 59
1, 31022, Note_on_c, 1, 65, 89
1, 31069, Note_off_c, 1, 65, 58
1, 31079, Note_on_c, 1, 63, 89
1, 31126, Note_off_c, 1, 63, 58
1, 31139, Note_on_c, 1, 65, 90
1, 31180, Control_c, 1, 64, 0
1, 31186, Note_off_c, 1, 65, 58
1, 31187, Note_off_c, 0, 77, 68
1, 31201, Note_on_c, 1, 51, 87
1, 31202, Note_on_c, 0, 79, 91
1, 31248, Note_off_c, 1, 51, 59
1, 31258, Note_on_c, 1, 61, 86
1, 31305, Note_off_c, 1, 61, 58
1, 31321, Note_on_c, 1, 58, 87
1, 31368, Note_off_c, 1, 58, 58
1, 31381, Note_on_c, 1, 61, 90
1, 31427, Note_off_c, 0, 79, 68
1, 31428, Note_off_c, 1, 61, 58
1, 31440, Note_on_c, 1, 55, 90
1, 31442, Note_on_c, 0, 80, 86
1, 31487, Note_off_c, 1, 55, 59
1, 31500, Note_on_c, 1, 62, 92
1, 31547, Note_off_c, 1, 62, 58
1, 31559, Note_on_c, 1, 59, 86
1, 31606, Note_off_c, 1, 59, 58
1, 31622, Note_on_c, 1, 62, 87
1, 31667, Note_off_c, 0, 80, 68
1, 31669, Note_off_c, 1, 62, 58
1, 31680, Note_on_c, 0, 79, 86
1, 31682, Note_on_c, 1, 55, 92
1, 31729, Note_off_c, 1, 55, 58
1, 31742, Note_on_c, 1, 62, 88
1, 31789, Note_off_c, 1, 62, 58
1, 31802, Note_on_c, 1, 59, 88
1, 31849, Note_off_c, 1, 59, 58
1, 31859, Note_on_c, 1, 62, 91
1, 31905, Note_off_c, 0, 79, 68
1, 31906, Note_off_c, 1, 62, 58
1, 31920, Note_on_c, 0, 79, 86
1, 31920, Control_c, 1, 64, 127
1, 31921, Note_on_c, 1, 55, 87
1, 31968, Note_off_c, 1, 55, 58
1, 31980, Note_on_c, 1, 63, 89
1, 32027, Note_off_c, 1, 63, 59
1, 32042, Note_on_c, 1, 60, 87
1, 32089, Note_off_c, 1, 60, 58
1, 32100, Note_on_c, 1, 63, 90
1, 32140, Control_c, 1, 64, 0
1, 32147, Note_off_c, 1, 63, 58
1, 32162, Note_on_c, 1, 55, 88
1, 32209, Note_off_c, 1, 55, 58
1, 32220, Note_on_c, 1, 63, 89
1, 32258, Note_off_c, 0, 79, 68
1, 32267, Note_off_c, 1, 63, 58
1, 32281, Note_on_c, 0, 80, 86
1, 32282, Note_on_c, 1, 60, 88
1, 32329, Note_off_c, 1, 60, 58
1, 32338, Note_on_c, 1, 63, 90
1, 32385, Note_off_c, 1, 63, 58
1, 32393, Note_off_c, 0, 80, 68
1, 32398, Note_on_c, 0, 81, 89
1, 32402, Note_on_c, 1, 57, 88
1, 32449, Note_off_c, 1, 57, 58
1, 32462, Note_on_c, 1, 63, 91
1, 32509, Note_off_c, 1, 63, 58
1, 32521, Note_on_c, 1, 60, 92
1, 32568, Note_off_c, 1, 60, 58
1, 32580, Note_on_c, 1, 63, 90
1, 32623, Note_off_c, 0, 81, 68
1, 32627, Note_off_c, 1, 63, 58
1, 32639, Note_on_c, 1, 57, 90
1, 32641, Note_on_c, 0, 90, 86
1, 32686, Note_off_c, 1, 57, 58
1, 32700, Note_on_c, 1, 65, 90
1, 32747, Note_off_c, 1, 65, 58
1, 32759, Note_on_c, 1, 60, 89
1, 32806, Note_off_c, 1, 60, 58
1, 32821, Note_on_c, 1, 65, 89
1, 32866, Note_off_c, 0, 90, 68
1, 32868, Note_off_c, 1, 65, 58
1, 32879, Note_on_c, 1, 56, 86
1, 32880, Marker_t, "email: jaenfield@worldnet.att.net"
1, 32880, Control_c, 1, 64, 127
1, 32882, Note_on_c, 0, 89, 86
1, 32926, Note_off_c, 1, 56, 58
1, 32940, Note_on_c, 1, 61, 88
1, 32987, Note_off_c, 1, 61, 58
1, 32998, Note_on_c, 1, 59, 89
1, 33045, Note_off_c, 1, 59, 58
1, 33059, Note_on_c, 1, 61, 82
1, 33100, Control_c, 1, 64, 0
1, 33106, Note_off_c, 1, 61, 58
1, 33107, Note_off_c, 0, 89, 68
1, 33121, Note_on_c, 0, 82, 85
1, 33121, Note_on_c, 1, 51, 81
1, 33168, Note_off_c, 1, 51, 58
1, 33178, Note_on_c, 1, 61, 79
1, 33225, Note_off_c, 1, 61, 58
1, 33241, Note_on_c, 1, 58, 77
1, 33288, Note_off_c, 1, 58, 58
1, 33299, Note_on_c, 1, 61, 79
1, 33346, Note_off_c, 1, 61, 58
1, 33346, Note_off_c, 0, 82, 69
1, 33360, Note_on_c, 0, 85, 80
1, 33361, Note_on_c, 1, 51, 75
1, 33408, Note_off_c, 1, 51, 58
1, 33422, Note_on_c, 1, 61, 78
1, 33469, Note_off_c, 1, 61, 58
1, 33481, Note_on_c, 1, 58, 74
1, 33528, Note_off_c, 1, 58, 58
1, 33542, Note_on_c, 1, 61, 71
1, 33589, Note_off_c, 1, 61, 59
1, 33600, Note_on_c, 1, 51, 71
1, 33647, Note_off_c, 1, 51, 58
1, 33662, Note_on_c, 1, 61, 69
1, 33698, Note_off_c, 0, 85, 69
1, 33709, Note_off_c, 1, 61, 58
1, 33719, Note_on_c, 1, 58, 70
1, 33721, Note_on_c, 0, 79, 70
1, 33766, Note_off_c, 1, 58, 58
1, 33779, Note_on_c, 1, 61, 67
1, 33826, Note_off_c, 1, 61, 58
1, 33833, Note_off_c, 0, 79, 69
1, 33840, Control_c, 1, 64, 127
1, 33841, Note_on_c, 0, 80, 66
1, 33842, Note_on_c, 1, 51, 62
1, 33889, Note_off_c, 1, 51, 58
1, 33899, Note_on_c, 1, 60, 67
1, 33946, Note_off_c, 1, 60, 58
1, 33962, Note_on_c, 1, 56, 64
1, 34009, Note_off_c, 1, 56, 58
1, 34021, Note_on_c, 1, 60, 63
1, 34060, Control_c, 1, 64, 0
1, 34068, Note_off_c, 1, 60, 58
1, 34080, Note_on_c, 1, 51, 68
1, 34127, Note_off_c, 1, 51, 59
1, 34138, Note_on_c, 1, 60, 65
1, 34179, Note_off_c, 0, 80, 68
1, 34185, Note_off_c, 1, 60, 59
1, 34200, Note_on_c, 0, 75, 66
1, 34202, Note_on_c, 1, 56, 70
1, 34249, Note_off_c, 1, 56, 58
1, 34262, Note_on_c, 1, 60, 65
1, 34309, Note_off_c, 1, 60, 58
1, 34312, Note_off_c, 0, 75, 68
1, 34318, Note_on_c, 1, 51, 66
1, 34319, Note_on_c, 0, 75, 69
1, 34365, Note_off_c, 1, 51, 58
1, 34382, Note_on_c, 1, 60, 69
1, 34429, Note_off_c, 1, 60, 58
1, 34438, Note_on_c, 1, 56, 68
1, 34485, Note_off_c, 1, 56, 58
1, 34500, Note_on_c, 1, 60, 72
1, 34544, Note_off_c, 0, 75, 68
1, 34547, Note_off_c, 1, 60, 58
1, 34560, Note_on_c, 0, 75, 73
1, 34561, Note_on_c, 1, 51, 67
1, 34608, Note_off_c, 1, 51, 58
1, 34619, Note_on_c, 1, 60, 72
1, 34666, Note_off_c, 1, 60, 58
1, 34682, Note_on_c, 1, 56, 72
1, 34729, Note_off_c, 1, 56, 58
1, 34738, Note_on_c, 1, 60, 69
1, 34785, Note_off_c, 1, 60, 59
1, 34785, Note_off_c, 0, 75, 68
1, 34799, Note_on_c, 1, 51, 69
1, 34800, Control_c, 1, 64, 127
1, 34802, Note_on_c, 0, 77, 69
1, 34846, Note_off_c, 1, 51, 58
1, 34859, Note_on_c, 1, 61, 72
1, 34906, Note_off_c, 1, 61, 58
1, 34918, Note_on_c, 1, 55, 71
1, 34965, Note_off_c, 1, 55, 58
1, 34981, Note_on_c, 1, 61, 75
1, 35020, Control_c, 1, 64, 0
1, 35027, Note_off_c, 0, 77, 68
1, 35028, Note_off_c, 1, 61, 59
1, 35038, Note_on_c, 0, 75, 75
1, 35039, Note_on_c, 1, 51, 72
1, 35086, Note_off_c, 1, 51, 59
1, 35102, Note_on_c, 1, 61, 72
1, 35149, Note_off_c, 1, 61, 58
1, 35162, Note_on_c, 1, 55, 72
1, 35209, Note_off_c, 1, 55, 59
1, 35218, Note_on_c, 1, 61, 71
1, 35263, Note_off_c, 0, 75, 68
1, 35265, Note_off_c, 1, 61, 58
1, 35278, Note_on_c, 0, 84, 76
1, 35278, Note_on_c, 1, 51, 72
1, 35325, Note_off_c, 1, 51, 58
1, 35339, Note_on_c, 1, 61, 74
1, 35386, Note_off_c, 1, 61, 58
1, 35400, Note_on_c, 1, 55, 76
1, 35447, Note_off_c, 1, 55, 58
1, 35461, Note_on_c, 1, 61, 74
1, 35503, Note_off_c, 0, 84, 68
1, 35508, Note_off_c, 1, 61, 59
1, 35518, Note_on_c, 0, 79, 72
1, 35521, Note_on_c, 1, 51, 75
1, 35568, Note_off_c, 1, 51, 58
1, 35579, Note_on_c, 1, 61, 73
1, 35626, Note_off_c, 1, 61, 58
1, 35641, Note_on_c, 1, 55, 78
1, 35688, Note_off_c, 1, 55, 58
1, 35700, Note_on_c, 1, 61, 79
1, 35743, Note_off_c, 0, 79, 69
1, 35747, Note_off_c, 1, 61, 59
1, 35760, Note_on_c, 1, 51, 77
1, 35760, Control_c, 1, 64, 127
1, 35762, Note_on_c, 0, 80, 75
1, 35807, Note_off_c, 1, 51, 58
1, 35819, Note_on_c, 1, 60, 76
1, 35866, Note_off_c, 1, 60, 58
1, 35879, Note_on_c, 1, 56, 81
1, 35926, Note_off_c, 1, 56, 58
1, 35939, Note_on_c, 1, 60, 79
1, 35980, Control_c, 1, 64, 0
1, 35986, Note_off_c, 1, 60, 58
1, 35998, Note_on_c, 1, 51, 77
1, 36045, Note_off_c, 1, 51, 59
1, 36061, Note_on_c, 1, 60, 78
1, 36100, Note_off_c, 0, 80, 68
1, 36108, Note_off_c, 1, 60, 58
1, 36120, Note_on_c, 1, 56, 82
1, 36122, Note_on_c, 0, 75, 80
1, 36167, Note_off_c, 1, 56, 58
1, 36180, Note_on_c, 1, 60, 78
1, 36227, Note_off_c, 1, 60, 58
1, 36234, Note_off_c, 0, 75, 68
1, 36242, Note_on_c, 0, 75, 80
1, 36242, Note_on_c, 1, 51, 81
1, 36289, Note_off_c, 1, 51, 58
1, 36300, Note_on_c, 1, 60, 80
1, 36347, Note_off_c, 1, 60, 58
1, 36358, Note_on_c, 1, 56, 81
1, 36405, Note_off_c, 1, 56, 58
1, 36418, Note_on_c, 1, 60, 81
1, 36465, Note_off_c, 1, 60, 58
1, 36467, Note_off_c, 0, 75, 69
1, 36479, Note_on_c, 0, 75, 81
1, 36481, Note_on_c, 1, 51, 81
1, 36528, Note_off_c, 1, 51, 58
1, 36542, Note_on_c, 1, 60, 79
1, 36589, Note_off_c, 1, 60, 58
1, 36600, Note_on_c, 1, 56, 80
1, 36647, Note_off_c, 1, 56, 58
1, 36662, Note_on_c, 1, 60, 86
1, 36704, Note_off_c, 0, 75, 68
1, 36709, Note_off_c, 1, 60, 58
1, 36719, Note_on_c, 1, 51, 81
1, 36720, Control_c, 1, 64, 127
1, 36721, Note_on_c, 0, 77, 84
1, 36766, Note_off_c, 1, 51, 58
1, 36782, Note_on_c, 1, 61, 83
1, 36829, Note_off_c, 1, 61, 58
1, 36841, Note_on_c, 1, 55, 86
1, 36888, Note_off_c, 1, 55, 58
1, 36898, Note_on_c, 1, 61, 82
1, 36940, Control_c, 1, 64, 0
1, 36945, Note_off_c, 1, 61, 58
1, 36946, Note_off_c, 0, 77, 68
1, 36960, Note_on_c, 1, 51, 81
1, 36961, Note_on_c, 0, 75, 81
1, 37007, Note_off_c, 1, 51, 58
1, 37018, Note_on_c, 1, 61, 84
1, 37065, Note_off_c, 1, 61, 58
1, 37078, Note_on_c, 1, 55, 85
1, 37125, Note_off_c, 1, 55, 59
1, 37142, Note_on_c, 1, 61, 88
1, 37186, Note_off_c, 0, 75, 68
1, 37189, Note_off_c, 1, 61, 59
1, 37200, Note_on_c, 0, 89, 89
1, 37202, Note_on_c, 1, 51, 83
1, 37249, Note_off_c, 1, 51, 58
1, 37259, Note_on_c, 1, 61, 84
1, 37306, Note_off_c, 1, 61, 59
1, 37320, Note_on_c, 1, 55, 85
1, 37367, Note_off_c, 1, 55, 59
1, 37380, Note_on_c, 1, 61, 85
1, 37427, Note_off_c, 1, 61, 58
1, 37442, Note_on_c, 1, 51, 87
1, 37489, Note_off_c, 1, 51, 58
1, 37498, Note_on_c, 1, 61, 85
1, 37538, Note_off_c, 0, 89, 68
1, 37545, Note_off_c, 1, 61, 58
1, 37558, Note_on_c, 0, 79, 86
1, 37560, Note_on_c, 1, 55, 87
1, 37607, Note_off_c, 1, 55, 58
1, 37618, Note_on_c, 1, 61, 92
1, 37665, Note_off_c, 1, 61, 58
1, 37670, Note_off_c, 0, 79, 68
1, 37680, Note_on_c, 0, 80, 87
1, 37680, Note_on_c, 1, 51, 89
1, 37680, Control_c, 1, 64, 127
1, 37727, Note_off_c, 1, 51, 58
1, 37742, Note_on_c, 1, 60, 88
1, 37789, Note_off_c, 1, 60, 58
1, 37801, Note_on_c, 1, 56, 86
1, 37848, Note_off_c, 1, 56, 58
1, 37862, Note_on_c, 1, 60, 85
1, 37900, Control_c, 1, 64, 0
1, 37909, Note_off_c, 1, 60, 58
1, 37918, Note_on_c, 1, 51, 87
1, 37965, Note_off_c, 1, 51, 58
1, 37981, Note_on_c, 1, 60, 89
1, 38018, Note_off_c, 0, 80, 68
1, 38028, Note_off_c, 1, 60, 58
1, 38039, Note_on_c, 0, 75, 87
1, 38042, Note_on_c, 1, 56, 86
1, 38089, Note_off_c, 1, 56, 58
1, 38099, Note_on_c, 1, 60, 84
1, 38146, Note_off_c, 1, 60, 59
1, 38151, Note_off_c, 0, 75, 68
1, 38158, Note_on_c, 1, 51, 86
1, 38161, Note_on_c, 0, 77, 90
1, 38205, Note_off_c, 1, 51, 58
1, 38218, Note_on_c, 1, 60, 88
1, 38265, Note_off_c, 1, 60, 58
1, 38280, Note_on_c, 1, 56, 84
1, 38327, Note_off_c, 1, 56, 58
1, 38342, Note_on_c, 1, 60, 85
1, 38386, Note_off_c, 0, 77, 68
1, 38389, Note_off_c, 1, 60, 58
1, 38400, Note_on_c, 0, 75, 86
1, 38401, Note_on_c, 1, 51, 84
1, 38448, Note_off_c, 1, 51, 58
1, 38459, Note_on_c, 1, 60, 88
1, 38506, Note_off_c, 1, 60, 59
1, 38519, Note_on_c, 1, 56, 86
1, 38566, Note_off_c, 1, 56, 58
1, 38581, Note_on_c, 1, 60, 81
1, 38625, Note_off_c, 0, 75, 69
1, 38628, Note_off_c, 1, 60, 58
1, 38640, Note_on_c, 0, 73, 86
1, 38640, Note_on_c, 1, 51, 85
1, 38640, Control_c, 1, 64, 127
1, 38687, Note_off_c, 1, 51, 58
1, 38698, Note_on_c, 1, 56, 84
1, 38745, Note_off_c, 1, 56, 58
1, 38759, Note_on_c, 1, 51, 86
1, 38806, Note_off_c, 1, 51, 58
1, 38821, Note_on_c, 1, 56, 83
1, 38860, Control_c, 1, 64, 0
1, 38868, Note_off_c, 1, 56, 58
1, 38882, Note_on_c, 1, 51, 81
1, 38929, Note_off_c, 1, 51, 58
1, 38940, Note_on_c, 1, 56, 81
1, 38978, Note_off_c, 0, 73, 68
1, 38987, Note_off_c, 1, 56, 58
1, 38998, Note_on_c, 0, 72, 81
1, 39001, Note_on_c, 1, 51, 80
1, 39048, Note_off_c, 1, 51, 58
1, 39061, Note_on_c, 1, 56, 83
1, 39108, Note_off_c, 1, 56, 58
1, 39110, Note_off_c, 0, 72, 68
1, 39121, Note_on_c, 0, 73, 81
1, 39122, Note_on_c, 1, 51, 85
1, 39169, Note_off_c, 1, 51, 58
1, 39180, Note_on_c, 1, 56, 82
1, 39227, Note_off_c, 1, 56, 58
1, 39241, Note_on_c, 1, 51, 79
1, 39288, Note_off_c, 1, 51, 59
1, 39300, Note_on_c, 1, 56, 78
1, 39346, Note_off_c, 0, 73, 69
1, 39347, Note_off_c, 1, 56, 58
1, 39360, Note_on_c, 0, 72, 81
1, 39362, Note_on_c, 1, 51, 77
1, 39409, Note_off_c, 1, 51, 58
1, 39418, Note_on_c, 1, 56, 83
1, 39465, Note_off_c, 1, 56, 58
1, 39480, Note_on_c, 1, 51, 83
1, 39527, Note_off_c, 1, 51, 58
1, 39538, Note_on_c, 1, 56, 81
1, 39585, Note_off_c, 1, 56, 58
1, 39585, Note_off_c, 0, 72, 68
1, 39599, Note_on_c, 0, 70, 79
1, 39600, Control_c, 1, 64, 127
1, 39601, Note_on_c, 1, 51, 77
1, 39648, Note_off_c, 1, 51, 58
1, 39660, Note_on_c, 1, 58, 78
1, 39707, Note_off_c, 1, 58, 59
1, 39718, Note_on_c, 1, 51, 80
1, 39765, Note_off_c, 1, 51, 59
1, 39782, Note_on_c, 1, 58, 76
1, 39820, Control_c, 1, 64, 0
1, 39829, Note_off_c, 1, 58, 58
1, 39838, Note_on_c, 1, 51, 75
1, 39885, Note_off_c, 1, 51, 58
1, 39899, Note_on_c, 1, 58, 77
1, 39937, Note_off_c, 0, 70, 69
1, 39946, Note_off_c, 1, 58, 58
1, 39958, Note_on_c, 0, 68, 79
1, 39962, Note_on_c, 1, 51, 81
1, 40009, Note_off_c, 1, 51, 58
1, 40018, Note_on_c, 1, 58, 78
1, 40065, Note_off_c, 1, 58, 59
1, 40070, Note_off_c, 0, 68, 68
1, 40078, Note_on_c, 0, 70, 77
1, 40080, Note_on_c, 1, 51, 77
1, 40127, Note_off_c, 1, 51, 58
1, 40141, Note_on_c, 1, 58, 80
1, 40188, Note_off_c, 1, 58, 58
1, 40201, Note_on_c, 1, 51, 74
1, 40248, Note_off_c, 1, 51, 59
1, 40258, Note_on_c, 1, 58, 76
1, 40303, Note_off_c, 0, 70, 68
1, 40305, Note_off_c, 1, 58, 58
1, 40318, Note_on_c, 0, 68, 75
1, 40318, Note_on_c, 1, 51, 75
1, 40365, Note_off_c, 1, 51, 58
1, 40380, Note_on_c, 1, 58, 75
1, 40427, Note_off_c, 1, 58, 58
1, 40442, Note_on_c, 1, 51, 77
1, 40489, Note_off_c, 1, 51, 58
1, 40501, Note_on_c, 1, 58, 77
1, 40543, Note_off_c, 0, 68, 68
1, 40548, Note_off_c, 1, 58, 58
1, 40559, Note_on_c, 0, 67, 76
1, 40560, Control_c, 1, 64, 127
1, 40562, Note_on_c, 1, 51, 73
1, 40609, Note_off_c, 1, 51, 58
1, 40619, Note_on_c, 1, 61, 77
1, 40666, Note_off_c, 1, 61, 58
1, 40681, Note_on_c, 1, 55, 76
1, 40728, Note_off_c, 1, 55, 58
1, 40738, Note_on_c, 1, 61, 73
1, 40780, Control_c, 1, 64, 0
1, 40785, Note_off_c, 1, 61, 58
1, 40798, Note_on_c, 1, 51, 74
1, 40845, Note_off_c, 1, 51, 58
1, 40861, Note_on_c, 1, 61, 74
1, 40897, Note_off_c, 0, 67, 69
1, 40908, Note_off_c, 1, 61, 58
1, 40921, Note_on_c, 0, 65, 75
1, 40922, Note_on_c, 1, 55, 71
1, 40969, Note_off_c, 1, 55, 58
1, 40982, Note_on_c, 1, 61, 73
1, 41029, Note_off_c, 1, 61, 58
1, 41033, Note_off_c, 0, 65, 68
1, 41039, Note_on_c, 1, 51, 73
1, 41042, Note_on_c, 0, 67, 69
1, 41086, Note_off_c, 1, 51, 58
1, 41099, Note_on_c, 1, 61, 74
1, 41146, Note_off_c, 1, 61, 58
1, 41162, Note_on_c, 1, 55, 72
1, 41209, Note_off_c, 1, 55, 59
1, 41218, Note_on_c, 1, 61, 73
1, 41265, Note_off_c, 1, 61, 58
1, 41267, Note_off_c, 0, 67, 68
1, 41278, Note_on_c, 0, 75, 68
1, 41282, Note_on_c, 1, 51, 69
1, 41329, Note_off_c, 1, 51, 58
1, 41338, Note_on_c, 1, 61, 68
1, 41385, Note_off_c, 1, 61, 58
1, 41400, Note_on_c, 1, 55, 71
1, 41447, Note_off_c, 1, 55, 59
1, 41461, Note_on_c, 1, 61, 67
1, 41503, Note_off_c, 0, 75, 68
1, 41508, Note_off_c, 1, 61, 58
1, 41518, Note_on_c, 1, 51, 70
1, 41518, Note_on_c, 1, 56, 73
1, 41519, Note_on_c, 1, 48, 67
1, 41520, Tempo, 606061
1, 41521, Note_on_c, 1, 44, 67
1, 41522, Note_on_c, 0, 68, 70
1, 42278, Note_off_c, 1, 56, 68
1, 42278, Note_off_c, 1, 51, 69
1, 42279, Note_off_c, 1, 48, 68
1, 42281, Note_off_c, 1, 44, 68
1, 42424, Note_off_c, 0, 68, 68
1, 42478, Note_on_c, 1, 32, 58
1, 42480, Tempo, 357143
1, 42480, Control_c, 0, 1, 0
1, 42480, Channel_aftertouch_c, 0, 0
1, 42541, Note_on_c, 0, 51, 76
1, 42573, Note_off_c, 1, 32, 58
1, 42588, Note_off_c, 0, 51, 60
1, 42600, Note_on_c, 0, 56, 81
1, 42601, Note_on_c, 1, 39, 77
1, 42647, Note_off_c, 0, 56, 61
1, 42661, Note_on_c, 0, 59, 79
1, 42696, Note_off_c, 1, 39, 58
1, 42708, Note_off_c, 0, 59, 61
1, 42718, Note_on_c, 0, 63, 80
1, 42720, Note_on_c, 1, 32, 78
1, 42765, Note_off_c, 0, 63, 61
1, 42780, Note_on_c, 0, 56, 81
1, 42815, Note_off_c, 1, 32, 58
1, 42827, Note_off_c, 0, 56, 61
1, 42838, Note_on_c, 1, 39, 81
1, 42840, Note_on_c, 0, 59, 82
1, 42887, Note_off_c, 0, 59, 61
1, 42898, Note_on_c, 0, 63, 78
1, 42933, Note_off_c, 1, 39, 58
1, 42945, Note_off_c, 0, 63, 60
1, 42961, Note_on_c, 1, 32, 84
1, 42962, Note_on_c, 0, 68, 82
1, 43009, Note_off_c, 0, 68, 60
1, 43019, Note_on_c, 0, 59, 77
1, 43056, Note_off_c, 1, 32, 58
1, 43066, Note_off_c, 0, 59, 61
1, 43079, Note_on_c, 0, 63, 83
1, 43082, Note_on_c, 1, 39, 84
1, 43126, Note_off_c, 0, 63, 61
1, 43141, Note_on_c, 0, 68, 83
1, 43177, Note_off_c, 1, 39, 58
1, 43188, Note_off_c, 0, 68, 61
1, 43199, Note_on_c, 0, 71, 92
1, 43199, Note_on_c, 1, 32, 82
1, 43246, Note_off_c, 0, 71, 61
1, 43259, Note_on_c, 0, 63, 78
1, 43294, Note_off_c, 1, 32, 58
1, 43306, Note_off_c, 0, 63, 60
1, 43319, Note_on_c, 0, 68, 79
1, 43320, Note_on_c, 1, 39, 80
1, 43366, Note_off_c, 0, 68, 61
1, 43379, Note_on_c, 0, 71, 83
1, 43415, Note_off_c, 1, 39, 58
1, 43426, Note_off_c, 0, 71, 61
1, 43440, Note_on_c, 0, 75, 89
1, 43440, Note_on_c, 1, 32, 85
1, 43487, Note_off_c, 0, 75, 61
1, 43498, Note_on_c, 0, 68, 76
1, 43535, Note_off_c, 1, 32, 58
1, 43545, Note_off_c, 0, 68, 61
1, 43560, Note_on_c, 1, 39, 89
1, 43562, Note_on_c, 0, 71, 86
1, 43609, Note_off_c, 0, 71, 61
1, 43622, Note_on_c, 0, 75, 79
1, 43655, Note_off_c, 1, 39, 58
1, 43669, Note_off_c, 0, 75, 60
1, 43678, Note_on_c, 0, 80, 86
1, 43679, Note_on_c, 1, 32, 79
1, 43725, Note_off_c, 0, 80, 61
1, 43742, Note_on_c, 0, 71, 91
1, 43774, Note_off_c, 1, 32, 58
1, 43789, Note_off_c, 0, 71, 61
1, 43800, Note_on_c, 0, 75, 83
1, 43800, Note_on_c, 1, 39, 106
1, 43847, Note_off_c, 0, 75, 61
1, 43860, Note_on_c, 0, 80, 83
1, 43895, Note_off_c, 1, 39, 59
1, 43907, Note_off_c, 0, 80, 61
1, 43919, Note_on_c, 1, 32, 80
1, 43921, Note_on_c, 0, 83, 85
1, 43968, Note_off_c, 0, 83, 60
1, 43980, Note_on_c, 0, 75, 83
1, 44014, Note_off_c, 1, 32, 58
1, 44027, Note_off_c, 0, 75, 60
1, 44041, Note_on_c, 0, 80, 79
1, 44042, Note_on_c, 1, 39, 82
1, 44088, Note_off_c, 0, 80, 61
1, 44102, Note_on_c, 0, 83, 93
1, 44137, Note_off_c, 1, 39, 58
1, 44149, Note_off_c, 0, 83, 60
1, 44158, Note_on_c, 0, 87, 121
1, 44158, Note_on_c, 0, 75, 123
1, 44159, Note_on_c, 0, 83, 120
1, 44160, Note_on_c, 1, 44, 118
1, 44160, Note_on_c, 1, 32, 122
1, 44162, Note_on_c, 0, 80, 121
1, 44253, Note_off_c, 0, 75, 68
1, 44253, Note_off_c, 0, 87, 68
1, 44254, Note_off_c, 0, 83, 69
1, 44255, Note_off_c, 1, 32, 58
1, 44255, Note_off_c, 1, 44, 58
1, 44257, Note_off_c, 0, 80, 68
1, 44278, Note_on_c, 1, 39, 118
1, 44279, Note_on_c, 0, 87, 119
1, 44280, Note_on_c, 0, 83, 123
1, 44280, Note_on_c, 0, 75, 123
1, 44281, Note_on_c, 0, 80, 119
1, 44373, Note_off_c, 1, 39, 58
1, 44374, Note_off_c, 0, 87, 69
1, 44375, Note_off_c, 0, 75, 69
1, 44375, Note_off_c, 0, 83, 68
1, 44376, Note_off_c, 0, 80, 68
1, 44398, Note_on_c, 1, 31, 80
1, 44458, Note_on_c, 0, 55, 71
1, 44493, Note_off_c, 1, 31, 58
1, 44505, Note_off_c, 0, 55, 60
1, 44518, Note_on_c, 0, 58, 81
1, 44522, Note_on_c, 1, 39, 84
1, 44565, Note_off_c, 0, 58, 61
1, 44580, Note_on_c, 0, 61, 76
1, 44617, Note_off_c, 1, 39, 59
1, 44627, Note_off_c, 0, 61, 61
1, 44641, Note_on_c, 1, 31, 83
1, 44642, Note_on_c, 0, 67, 85
1, 44689, Note_off_c, 0, 67, 61
1, 44701, Note_on_c, 0, 58, 82
1, 44736, Note_off_c, 1, 31, 58
1, 44748, Note_off_c, 0, 58, 61
1, 44758, Note_on_c, 0, 61, 78
1, 44760, Note_on_c, 1, 39, 83
1, 44805, Note_off_c, 0, 61, 61
1, 44820, Note_on_c, 0, 67, 85
1, 44855, Note_off_c, 1, 39, 58
1, 44867, Note_off_c, 0, 67, 60
1, 44878, Note_on_c, 1, 31, 83
1, 44880, Note_on_c, 0, 70, 78
1, 44927, Note_off_c, 0, 70, 60
1, 44938, Note_on_c, 0, 61, 79
1, 44973, Note_off_c, 1, 31, 58
1, 44985, Note_off_c, 0, 61, 61
1, 44998, Note_on_c, 0, 67, 82
1, 45000, Note_on_c, 1, 39, 81
1, 45045, Note_off_c, 0, 67, 60
1, 45058, Note_on_c, 0, 70, 83
1, 45095, Note_off_c, 1, 39, 59
1, 45105, Note_off_c, 0, 70, 61
1, 45118, Note_on_c, 0, 73, 84
1, 45121, Note_on_c, 1, 31, 80
1, 45165, Note_off_c, 0, 73, 61
1, 45182, Note_on_c, 0, 67, 79
1, 45216, Note_off_c, 1, 31, 58
1, 45229, Note_off_c, 0, 67, 61
1, 45239, Note_on_c, 1, 39, 80
1, 45242, Note_on_c, 0, 70, 82
1, 45289, Note_off_c, 0, 70, 61
1, 45302, Note_on_c, 0, 73, 83
1, 45334, Note_off_c, 1, 39, 58
1, 45349, Note_off_c, 0, 73, 61
1, 45361, Note_on_c, 1, 31, 80
1, 45362, Note_on_c, 0, 79, 85
1, 45409, Note_off_c, 0, 79, 60
1, 45422, Note_on_c, 0, 70, 78
1, 45456, Note_off_c, 1, 31, 59
1, 45469, Note_off_c, 0, 70, 61
1, 45479, Note_on_c, 1, 39, 76
1, 45480, Note_on_c, 0, 73, 72
1, 45527, Note_off_c, 0, 73, 61
1, 45539, Note_on_c, 0, 79, 87
1, 45574, Note_off_c, 1, 39, 58
1, 45586, Note_off_c, 0, 79, 61
1, 45600, Note_on_c, 0, 82, 88
1, 45601, Note_on_c, 1, 31, 81
1, 45647, Note_off_c, 0, 82, 60
1, 45658, Note_on_c, 0, 73, 81
1, 45696, Note_off_c, 1, 31, 59
1, 45705, Note_off_c, 0, 73, 61
1, 45719, Note_on_c, 0, 79, 91
1, 45720, Note_on_c, 1, 39, 78
1, 45766, Note_off_c, 0, 79, 60
1, 45781, Note_on_c, 0, 82, 82
1, 45815, Note_off_c, 1, 39, 58
1, 45828, Note_off_c, 0, 82, 61
1, 45842, Note_on_c, 0, 85, 88
1, 45842, Note_on_c, 1, 31, 86
1, 45889, Note_off_c, 0, 85, 60
1, 45902, Note_on_c, 0, 79, 90
1, 45937, Note_off_c, 1, 31, 58
1, 45949, Note_off_c, 0, 79, 61
1, 45960, Note_on_c, 0, 82, 82
1, 45962, Note_on_c, 1, 39, 84
1, 46007, Note_off_c, 0, 82, 61
1, 46019, Note_on_c, 0, 85, 81
1, 46057, Note_off_c, 1, 39, 58
1, 46066, Note_off_c, 0, 85, 60
1, 46079, Note_on_c, 0, 82, 119
1, 46079, Note_on_c, 0, 79, 123
1, 46080, Note_on_c, 0, 87, 123
1, 46081, Note_on_c, 0, 85, 122
1, 46081, Note_on_c, 1, 43, 124
1, 46082, Note_on_c, 0, 75, 121
1, 46082, Note_on_c, 1, 31, 123
1, 46174, Note_off_c, 0, 79, 68
1, 46174, Note_off_c, 0, 82, 68
1, 46175, Note_off_c, 0, 87, 68
1, 46176, Note_off_c, 1, 43, 58
1, 46176, Note_off_c, 0, 85, 68
1, 46177, Note_off_c, 1, 31, 58
1, 46177, Note_off_c, 0, 75, 69
1, 46198, Note_on_c, 0, 82, 124
1, 46198, Note_on_c, 1, 39, 122
1, 46200, Note_on_c, 0, 75, 123
1, 46201, Note_on_c, 0, 87, 123
1, 46201, Note_on_c, 0, 85, 119
1, 46201, Note_on_c, 0, 79, 118
1, 46293, Note_off_c, 1, 39, 58
1, 46293, Note_off_c, 0, 82, 68
1, 46295, Note_off_c, 0, 75, 68
1, 46296, Note_off_c, 0, 79, 68
1, 46296, Note_off_c, 0, 85, 69
1, 46296, Note_off_c, 0, 87, 68
1, 46321, Note_on_c, 1, 30, 76
1, 46379, Note_on_c, 0, 54, 103
1, 46416, Note_off_c, 1, 30, 58
1, 46426, Note_off_c, 0, 54, 60
1, 46438, Note_on_c, 0, 57, 84
1, 46438, Note_on_c, 1, 39, 80
1, 46485, Note_off_c, 0, 57, 61
1, 46499, Note_on_c, 0, 60, 77
1, 46533, Note_off_c, 1, 39, 58
1, 46546, Note_off_c, 0, 60, 61
1, 46560, Note_on_c, 0, 66, 89
1, 46561, Note_on_c, 1, 30, 76
1, 46607, Note_off_c, 0, 66, 60
1, 46622, Note_on_c, 0, 57, 89
1, 46656, Note_off_c, 1, 30, 58
1, 46669, Note_off_c, 0, 57, 61
1, 46678, Note_on_c, 0, 60, 89
1, 46681, Note_on_c, 1, 39, 74
1, 46725, Note_off_c, 0, 60, 61
1, 46741, Note_on_c, 0, 66, 82
1, 46776, Note_off_c, 1, 39, 58
1, 46788, Note_off_c, 0, 66, 61
1, 46798, Note_on_c, 1, 30, 75
1, 46801, Note_on_c, 0, 69, 88
1, 46848, Note_off_c, 0, 69, 61
1, 46860, Note_on_c, 0, 60, 87
1, 46893, Note_off_c, 1, 30, 58
1, 46907, Note_off_c, 0, 60, 61
1, 46921, Note_on_c, 0, 66, 79
1, 46922, Note_on_c, 1, 39, 80
1, 46968, Note_off_c, 0, 66, 61
1, 46981, Note_on_c, 0, 69, 88
1, 47017, Note_off_c, 1, 39, 58
1, 47028, Note_off_c, 0, 69, 61
1, 47038, Note_on_c, 1, 30, 77
1, 47042, Note_on_c, 0, 72, 87
1, 47089, Note_off_c, 0, 72, 60
1, 47101, Note_on_c, 0, 66, 86
1, 47133, Note_off_c, 1, 30, 58
1, 47148, Note_off_c, 0, 66, 61
1, 47160, Note_on_c, 1, 39, 81
1, 47161, Note_on_c, 0, 69, 90
1, 47208, Note_off_c, 0, 69, 61
1, 47222, Note_on_c, 0, 72, 89
1, 47255, Note_off_c, 1, 39, 59
1, 47269, Note_off_c, 0, 72, 61
1, 47279, Note_on_c, 0, 78, 107
1, 47280, Note_on_c, 1, 30, 80
1, 47326, Note_off_c, 0, 78, 61
1, 47341, Note_on_c, 0, 69, 71
1, 47375, Note_off_c, 1, 30, 59
1, 47388, Note_off_c, 0, 69, 60
1, 47400, Note_on_c, 1, 39, 84
1, 47401, Note_on_c, 0, 72, 78
1, 47448, Note_off_c, 0, 72, 60
1, 47459, Note_on_c, 0, 78, 85
1, 47495, Note_off_c, 1, 39, 58
1, 47506, Note_off_c, 0, 78, 61
1, 47520, Note_on_c, 1, 30, 81
1, 47521, Note_on_c, 0, 81, 88
1, 47568, Note_off_c, 0, 81, 61
1, 47581, Note_on_c, 0, 72, 76
1, 47615, Note_off_c, 1, 30, 58
1, 47628, Note_off_c, 0, 72, 61
1, 47638, Note_on_c, 1, 39, 82
1, 47641, Note_on_c, 0, 78, 85
1, 47688, Note_off_c, 0, 78, 61
1, 47698, Note_on_c, 0, 81, 92
1, 47733, Note_off_c, 1, 39, 58
1, 47745, Note_off_c, 0, 81, 61
1, 47759, Note_on_c, 1, 30, 81
1, 47762, Note_on_c, 0, 84, 94
1, 47809, Note_off_c, 0, 84, 61
1, 47821, Note_on_c, 0, 78, 81
1, 47854, Note_off_c, 1, 30, 58
1, 47868, Note_off_c, 0, 78, 61
1, 47879, Note_on_c, 0, 81, 86
1, 47880, Note_on_c, 1, 39, 84
1, 47926, Note_off_c, 0, 81, 61
1, 47941, Note_on_c, 0, 84, 90
1, 47975, Note_off_c, 1, 39, 58
1, 47988, Note_off_c, 0, 84, 60
1, 47998, Note_on_c, 0, 84, 123
1, 47998, Note_on_c, 0, 81, 122
1, 47998, Note_on_c, 0, 78, 118
1, 47998, Note_on_c, 1, 42, 118
1, 47999, Note_on_c, 1, 30, 123
1, 48002, Note_on_c, 0, 90, 124
1, 48093, Note_off_c, 1, 42, 58
1, 48093, Note_off_c, 0, 78, 68
1, 48093, Note_off_c, 0, 81, 68
1, 48093, Note_off_c, 0, 84, 69
1, 48094, Note_off_c, 1, 30, 58
1, 48097, Note_off_c, 0, 90, 68
1, 48119, Note_on_c, 0, 90, 123
1, 48119, Note_on_c, 0, 84, 118
1, 48119, Note_on_c, 0, 78, 124
1, 48120, Note_on_c, 1, 39, 121
1, 48122, Note_on_c, 0, 81, 124
1, 48214, Note_off_c, 0, 78, 69
1, 48214, Note_off_c, 0, 84, 68
1, 48214, Note_off_c, 0, 90, 68
1, 48215, Note_off_c, 1, 39, 59
1, 48217, Note_off_c, 0, 81, 68
1, 48241, Note_on_c, 1, 31, 83
1, 48301, Note_on_c, 0, 55, 86
1, 48336, Note_off_c, 1, 31, 58
1, 48348, Note_off_c, 0, 55, 61
1, 48359, Note_on_c, 0, 58, 80
1, 48362, Note_on_c, 1, 38, 89
1, 48406, Note_off_c, 0, 58, 60
1, 48422, Note_on_c, 0, 62, 81
1, 48457, Note_off_c, 1, 38, 58
1, 48469, Note_off_c, 0, 62, 61
1, 48479, Note_on_c, 0, 67, 82
1, 48480, Note_on_c, 1, 31, 82
1, 48526, Note_off_c, 0, 67, 61
1, 48538, Note_on_c, 0, 67, 83
1, 48575, Note_off_c, 1, 31, 58
1, 48585, Note_off_c, 0, 67, 60
1, 48598, Note_on_c, 0, 70, 81
1, 48598, Note_on_c, 1, 38, 89
1, 48645, Note_off_c, 0, 70, 61
1, 48659, Note_on_c, 0, 74, 82
1, 48693, Note_off_c, 1, 38, 58
1, 48706, Note_off_c, 0, 74, 61
1, 48718, Note_on_c, 0, 79, 94
1, 48719, Note_on_c, 1, 31, 85
1, 48765, Note_off_c, 0, 79, 61
1, 48782, Note_on_c, 0, 79, 82
1, 48814, Note_off_c, 1, 31, 58
1, 48829, Note_off_c, 0, 79, 60
1, 48839, Note_on_c, 0, 82, 77
1, 48841, Note_on_c, 1, 38, 92
1, 48886, Note_off_c, 0, 82, 61
1, 48900, Note_on_c, 0, 86, 85
1, 48936, Note_off_c, 1, 38, 58
1, 48947, Note_off_c, 0, 86, 60
1, 48958, Note_on_c, 1, 31, 123
1, 48959, Note_on_c, 0, 86, 119
1, 48960, Note_on_c, 0, 82, 123
1, 48961, Note_on_c, 0, 91, 122
1, 48961, Note_on_c, 0, 79, 121
1, 48962, Note_on_c, 1, 43, 122
1, 49053, Note_off_c, 1, 31, 58
1, 49054, Note_off_c, 0, 86, 68
1, 49055, Note_off_c, 0, 82, 69
1, 49056, Note_off_c, 0, 79, 68
1, 49056, Note_off_c, 0, 91, 68
1, 49057, Note_off_c, 1, 43, 58
1, 49078, Note_on_c, 0, 86, 122
1, 49081, Note_on_c, 0, 91, 123
1, 49081, Note_on_c, 0, 82, 123
1, 49081, Note_on_c, 1, 38, 120
1, 49082, Note_on_c, 0, 79, 123
1, 49173, Note_off_c, 0, 86, 68
1, 49176, Note_off_c, 1, 38, 58
1, 49176, Note_off_c, 0, 82, 68
1, 49176, Note_off_c, 0, 91, 68
1, 49177, Note_off_c, 0, 79, 69
1, 49202, Note_on_c, 1, 31, 90
1, 49262, Note_on_c, 0, 55, 83
1, 49297, Note_off_c, 1, 31, 58
1, 49309, Note_off_c, 0, 55, 60
1, 49321, Note_on_c, 0, 58, 78
1, 49321, Note_on_c, 1, 37, 88
1, 49368, Note_off_c, 0, 58, 60
1, 49380, Note_on_c, 0, 61, 86
1, 49416, Note_off_c, 1, 37, 58
1, 49427, Note_off_c, 0, 61, 60
1, 49442, Note_on_c, 0, 67, 86
1, 49442, Note_on_c, 1, 31, 84
1, 49489, Note_off_c, 0, 67, 60
1, 49501, Note_on_c, 0, 67, 88
1, 49537, Note_off_c, 1, 31, 58
1, 49548, Note_off_c, 0, 67, 61
1, 49560, Note_on_c, 1, 37, 92
1, 49561, Note_on_c, 0, 70, 86
1, 49608, Note_off_c, 0, 70, 60
1, 49622, Note_on_c, 0, 73, 80
1, 49655, Note_off_c, 1, 37, 58
1, 49669, Note_off_c, 0, 73, 61
1, 49679, Note_on_c, 1, 31, 81
1, 49681, Note_on_c, 0, 79, 91
1, 49728, Note_off_c, 0, 79, 61
1, 49740, Note_on_c, 0, 79, 90
1, 49774, Note_off_c, 1, 31, 58
1, 49787, Note_off_c, 0, 79, 61
1, 49798, Note_on_c, 0, 82, 84
1, 49799, Note_on_c, 1, 37, 88
1, 49845, Note_off_c, 0, 82, 61
1, 49861, Note_on_c, 0, 85, 87
1, 49894, Note_off_c, 1, 37, 58
1, 49908, Note_off_c, 0, 85, 60
1, 49918, Note_on_c, 0, 82, 118
1, 49919, Note_on_c, 1, 31, 118
1, 49920, Note_on_c, 0, 85, 120
1, 49920, Note_on_c, 0, 79, 124
1, 49921, Note_on_c, 0, 91, 124
1, 49922, Note_on_c, 1, 43, 124
1, 50013, Note_off_c, 0, 82, 69
1, 50014, Note_off_c, 1, 31, 59
1, 50015, Note_off_c, 0, 79, 68
1, 50015, Note_off_c, 0, 85, 68
1, 50016, Note_off_c, 0, 91, 68
1, 50017, Note_off_c, 1, 43, 58
1, 50038, Note_on_c, 0, 85, 119
1, 50040, Note_on_c, 0, 91, 123
1, 50041, Note_on_c, 1, 37, 123
1, 50042, Note_on_c, 0, 82, 122
1, 50042, Note_on_c, 0, 79, 119
1, 50133, Note_off_c, 0, 85, 68
1, 50135, Note_off_c, 0, 91, 68
1, 50136, Note_off_c, 1, 37, 59
1, 50137, Note_off_c, 0, 79, 68
1, 50137, Note_off_c, 0, 82, 69
1, 50158, Note_on_c, 0, 91, 99
1, 50181, Note_off_c, 0, 91, 61
1, 50188, Note_on_c, 0, 92, 97
1, 50211, Note_off_c, 0, 92, 61
1, 50221, Note_on_c, 0, 91, 98
1, 50244, Note_off_c, 0, 91, 60
1, 50250, Note_on_c, 0, 92, 96
1, 50273, Note_off_c, 0, 92, 61
1, 50282, Note_on_c, 0, 91, 98
1, 50305, Note_off_c, 0, 91, 61
1, 50309, Note_on_c, 0, 92, 93
1, 50332, Note_off_c, 0, 92, 61
1, 50341, Note_on_c, 0, 91, 97
1, 50364, Note_off_c, 0, 91, 60
1, 50371, Note_on_c, 0, 92, 95
1, 50394, Note_off_c, 0, 92, 61
1, 50398, Note_on_c, 0, 91, 92
1, 50399, Note_on_c, 1, 67, 114
1, 50401, Note_on_c, 1, 55, 112
1, 50421, Note_off_c, 0, 91, 60
1, 50431, Note_on_c, 0, 92, 92
1, 50454, Note_off_c, 0, 92, 61
1, 50458, Note_on_c, 0, 91, 90
1, 50481, Note_off_c, 0, 91, 61
1, 50489, Note_on_c, 0, 92, 95
1, 50512, Note_off_c, 0, 92, 61
1, 50521, Note_on_c, 0, 91, 92
1, 50544, Note_off_c, 0, 91, 61
1, 50549, Note_on_c, 0, 92, 89
1, 50572, Note_off_c, 0, 92, 60
1, 50582, Note_on_c, 0, 91, 90
1, 50589, Note_off_c, 1, 67, 58
1, 50591, Note_off_c, 1, 55, 58
1, 50605, Note_off_c, 0, 91, 61
1, 50612, Note_on_c, 0, 92, 88
1, 50635, Note_off_c, 0, 92, 61
1, 50638, Note_on_c, 0, 91, 92
1, 50639, Note_on_c, 1, 68, 110
1, 50641, Note_on_c, 1, 56, 111
1, 50661, Note_off_c, 0, 91, 61
1, 50669, Note_on_c, 0, 92, 88
1, 50692, Note_off_c, 0, 92, 61
1, 50700, Note_on_c, 0, 91, 86
1, 50723, Note_off_c, 0, 91, 61
1, 50728, Note_on_c, 0, 92, 87
1, 50751, Note_off_c, 0, 92, 61
1, 50760, Note_on_c, 0, 91, 87
1, 50783, Note_off_c, 0, 91, 60
1, 50792, Note_on_c, 0, 92, 87
1, 50815, Note_off_c, 0, 92, 61
1, 50821, Note_on_c, 0, 91, 85
1, 50829, Note_off_c, 1, 68, 58
1, 50831, Note_off_c, 1, 56, 59
1, 50844, Note_off_c, 0, 91, 61
1, 50848, Note_on_c, 0, 92, 87
1, 50871, Note_off_c, 0, 92, 61
1, 50878, Note_on_c, 1, 49, 102
1, 50879, Note_on_c, 0, 91, 87
1, 50881, Note_on_c, 1, 61, 102
1, 50902, Note_off_c, 0, 91, 61
1, 50911, Note_on_c, 0, 92, 83
1, 50934, Note_off_c, 0, 92, 61
1, 50940, Note_on_c, 0, 91, 85
1, 50963, Note_off_c, 0, 91, 61
1, 50969, Note_on_c, 0, 92, 87
1, 50992, Note_off_c, 0, 92, 61
1, 51002, Note_on_c, 0, 91, 81
1, 51025, Note_off_c, 0, 91, 61
1, 51028, Note_on_c, 0, 92, 81
1, 51051, Note_off_c, 0, 92, 61
1, 51060, Note_on_c, 0, 91, 85
1, 51068, Note_off_c, 1, 49, 58
1, 51071, Note_off_c, 1, 61, 58
1, 51083, Note_off_c, 0, 91, 61
1, 51091, Note_on_c, 0, 92, 80
1, 51114, Note_off_c, 0, 92, 61
1, 51118, Note_on_c, 1, 60, 99
1, 51120, Note_on_c, 0, 91, 96
1, 51120, Note_on_c, 1, 48, 97
1, 51167, Note_off_c, 0, 91, 60
1, 51182, Note_on_c, 0, 89, 99
1, 51229, Note_off_c, 0, 89, 61
1, 51242, Note_on_c, 0, 87, 95
1, 51289, Note_off_c, 0, 87, 61
1, 51302, Note_on_c, 0, 85, 95
1, 51308, Note_off_c, 1, 60, 58
1, 51310, Note_off_c, 1, 48, 58
1, 51349, Note_off_c, 0, 85, 61
1, 51361, Note_on_c, 0, 87, 92
1, 51362, Note_on_c, 1, 55, 90
1, 51362, Note_on_c, 1, 43, 93
1, 51408, Note_off_c, 0, 87, 61
1, 51422, Note_on_c, 0, 85, 92
1, 51469, Note_off_c, 0, 85, 61
1, 51479, Note_on_c, 0, 84, 93
1, 51526, Note_off_c, 0, 84, 60
1, 51541, Note_on_c, 0, 82, 91
1, 51552, Note_off_c, 1, 43, 58
1, 51552, Note_off_c, 1, 55, 58
1, 51588, Note_off_c, 0, 82, 61
1, 51599, Note_on_c, 1, 42, 87
1, 51600, Note_on_c, 0, 84, 89
1, 51600, Note_on_c, 1, 54, 90
1, 51647, Note_off_c, 0, 84, 61
1, 51660, Note_on_c, 0, 82, 85
1, 51707, Note_off_c, 0, 82, 61
1, 51720, Note_on_c, 0, 80, 87
1, 51767, Note_off_c, 0, 80, 61
1, 51780, Note_on_c, 0, 79, 85
1, 51789, Note_off_c, 1, 42, 58
1, 51790, Note_off_c, 1, 54, 58
1, 51827, Note_off_c, 0, 79, 61
1, 51839, Note_on_c, 1, 41, 80
1, 51842, Note_on_c, 0, 80, 80
1, 51842, Note_on_c, 1, 53, 81
1, 51889, Note_off_c, 0, 80, 61
1, 51900, Note_on_c, 0, 79, 78
1, 51947, Note_off_c, 0, 79, 60
1, 51958, Note_on_c, 0, 77, 81
1, 52005, Note_off_c, 0, 77, 61
1, 52019, Note_on_c, 0, 76, 77
1, 52029, Note_off_c, 1, 41, 58
1, 52032, Note_off_c, 1, 53, 58
1, 52066, Note_off_c, 0, 76, 60
1, 52079, Note_on_c, 1, 60, 75
1, 52080, Note_on_c, 0, 77, 63
1, 52127, Note_off_c, 0, 77, 61
1, 52139, Note_on_c, 0, 84, 62
1, 52186, Note_off_c, 0, 84, 61
1, 52198, Note_on_c, 0, 81, 63
1, 52245, Note_off_c, 0, 81, 60
1, 52258, Note_on_c, 0, 84, 64
1, 52305, Note_off_c, 0, 84, 61
1, 52320, Note_on_c, 0, 77, 61
1, 52367, Note_off_c, 0, 77, 61
1, 52378, Note_on_c, 0, 84, 61
1, 52425, Note_off_c, 0, 84, 60
1, 52428, Note_off_c, 1, 60, 59
1, 52440, Note_on_c, 1, 60, 77
1, 52442, Note_on_c, 0, 81, 62
1, 52489, Note_off_c, 0, 81, 61
1, 52502, Note_on_c, 0, 84, 64
1, 52549, Note_off_c, 0, 84, 61
1, 52556, Note_off_c, 1, 60, 58
1, 52562, Note_on_c, 0, 77, 64
1, 52562, Note_on_c, 1, 60, 76
1, 52609, Note_off_c, 0, 77, 60
1, 52618, Note_on_c, 0, 84, 64
1, 52665, Note_off_c, 0, 84, 60
1, 52678, Note_on_c, 0, 81, 62
1, 52725, Note_off_c, 0, 81, 61
1, 52742, Note_on_c, 0, 84, 60
1, 52789, Note_off_c, 0, 84, 61
1, 52794, Note_off_c, 1, 60, 59
1, 52801, Note_on_c, 1, 60, 75
1, 52802, Note_on_c, 0, 77, 61
1, 52849, Note_off_c, 0, 77, 61
1, 52859, Note_on_c, 0, 84, 63
1, 52906, Note_off_c, 0, 84, 61
1, 52922, Note_on_c, 0, 81, 61
1, 52969, Note_off_c, 0, 81, 60
1, 52978, Note_on_c, 0, 84, 58
1, 53025, Note_off_c, 0, 84, 61
1, 53033, Note_off_c, 1, 60, 58
1, 53038, Note_on_c, 0, 77, 63
1, 53041, Note_on_c, 1, 62, 77
1, 53085, Note_off_c, 0, 77, 61
1, 53100, Note_on_c, 0, 84, 61
1, 53147, Note_off_c, 0, 84, 61
1, 53159, Note_on_c, 0, 81, 61
1, 53206, Note_off_c, 0, 81, 61
1, 53219, Note_on_c, 0, 84, 62
1, 53266, Note_off_c, 0, 84, 61
1, 53273, Note_off_c, 1, 62, 58
1, 53278, Note_on_c, 0, 77, 59
1, 53279, Note_on_c, 1, 60, 73
1, 53325, Note_off_c, 0, 77, 61
1, 53340, Note_on_c, 0, 84, 64
1, 53387, Note_off_c, 0, 84, 61
1, 53398, Note_on_c, 0, 81, 64
1, 53445, Note_off_c, 0, 81, 61
1, 53459, Note_on_c, 0, 84, 61
1, 53506, Note_off_c, 0, 84, 60
1, 53511, Note_off_c, 1, 60, 58
1, 53518, Note_on_c, 1, 60, 79
1, 53521, Note_on_c, 0, 77, 62
1, 53568, Note_off_c, 0, 77, 60
1, 53579, Note_on_c, 0, 84, 62
1, 53626, Note_off_c, 0, 84, 61
1, 53640, Note_on_c, 0, 81, 61
1, 53687, Note_off_c, 0, 81, 61
1, 53702, Note_on_c, 0, 84, 63
1, 53749, Note_off_c, 0, 84, 61
1, 53759, Note_on_c, 0, 77, 61
1, 53806, Note_off_c, 0, 77, 61
1, 53822, Note_on_c, 0, 84, 62
1, 53867, Note_off_c, 1, 60, 58
1, 53869, Note_off_c, 0, 84, 60
1, 53878, Note_on_c, 0, 81, 64
1, 53881, Note_on_c, 1, 60, 75
1, 53925, Note_off_c, 0, 81, 61
1, 53938, Note_on_c, 0, 84, 62
1, 53985, Note_off_c, 0, 84, 61
1, 53997, Note_off_c, 1, 60, 58
1, 53999, Note_on_c, 0, 76, 60
1, 53999, Note_on_c, 1, 60, 77
1, 54046, Note_off_c, 0, 76, 61
1, 54062, Note_on_c, 0, 82, 62
1, 54109, Note_off_c, 0, 82, 61
1, 54121, Note_on_c, 0, 79, 59
1, 54168, Note_off_c, 0, 79, 60
1, 54180, Note_on_c, 0, 82, 60
1, 54227, Note_off_c, 0, 82, 61
1, 54231, Note_off_c, 1, 60, 58
1, 54239, Note_on_c, 0, 76, 59
1, 54242, Note_on_c, 1, 60, 77
1, 54286, Note_off_c, 0, 76, 61
1, 54298, Note_on_c, 0, 82, 60
1, 54345, Note_off_c, 0, 82, 61
1, 54362, Note_on_c, 0, 79, 62
1, 54409, Note_off_c, 0, 79, 61
1, 54420, Note_on_c, 0, 82, 62
1, 54467, Note_off_c, 0, 82, 61
1, 54474, Note_off_c, 1, 60, 58
1, 54479, Note_on_c, 1, 62, 73
1, 54482, Note_on_c, 0, 76, 64
1, 54529, Note_off_c, 0, 76, 61
1, 54540, Note_on_c, 0, 82, 59
1, 54587, Note_off_c, 0, 82, 61
1, 54602, Note_on_c, 0, 79, 62
1, 54649, Note_off_c, 0, 79, 60
1, 54660, Note_on_c, 0, 82, 61
1, 54707, Note_off_c, 0, 82, 61
1, 54711, Note_off_c, 1, 62, 58
1, 54718, Note_on_c, 1, 60, 73
1, 54722, Note_on_c, 0, 76, 62
1, 54769, Note_off_c, 0, 76, 61
1, 54782, Note_on_c, 0, 82, 63
1, 54829, Note_off_c, 0, 82, 61
1, 54842, Note_on_c, 0, 79, 62
1, 54889, Note_off_c, 0, 79, 61
1, 54900, Note_on_c, 0, 82, 60
1, 54947, Note_off_c, 0, 82, 61
1, 54950, Note_off_c, 1, 60, 58
1, 54960, Note_on_c, 0, 77, 61
1, 54962, Note_on_c, 1, 67, 76
1, 55007, Note_off_c, 0, 77, 61
1, 55021, Note_on_c, 0, 84, 62
1, 55068, Note_off_c, 0, 84, 61
1, 55081, Note_on_c, 0, 81, 60
1, 55128, Note_off_c, 0, 81, 61
1, 55142, Note_on_c, 0, 84, 58
1, 55189, Note_off_c, 0, 84, 61
1, 55201, Note_on_c, 0, 77, 61
1, 55248, Note_off_c, 0, 77, 61
1, 55259, Note_on_c, 0, 84, 64
1, 55306, Note_off_c, 0, 84, 61
1, 55311, Note_off_c, 1, 67, 59
1, 55320, Note_on_c, 0, 81, 58
1, 55322, Note_on_c, 1, 65, 79
1, 55367, Note_off_c, 0, 81, 61
1, 55379, Note_on_c, 0, 84, 61
1, 55426, Note_off_c, 0, 84, 61
1, 55438, Note_off_c, 1, 65, 58
1, 55439, Note_on_c, 0, 77, 58
1, 55442, Note_on_c, 1, 65, 75
1, 55486, Note_off_c, 0, 77, 61
1, 55499, Note_on_c, 0, 85, 60
1, 55546, Note_off_c, 0, 85, 61
1, 55561, Note_on_c, 0, 81, 64
1, 55608, Note_off_c, 0, 81, 61
1, 55621, Note_on_c, 0, 85, 59
1, 55668, Note_off_c, 0, 85, 61
1, 55674, Note_off_c, 1, 65, 58
1, 55679, Note_on_c, 0, 77, 58
1, 55682, Note_on_c, 1, 65, 78
1, 55726, Note_off_c, 0, 77, 61
1, 55738, Note_on_c, 0, 85, 63
1, 55785, Note_off_c, 0, 85, 60
1, 55799, Note_on_c, 0, 81, 60
1, 55846, Note_off_c, 0, 81, 60
1, 55861, Note_on_c, 0, 85, 62
1, 55908, Note_off_c, 0, 85, 61
1, 55914, Note_off_c, 1, 65, 58
1, 55920, Note_on_c, 1, 65, 73
1, 55921, Note_on_c, 0, 77, 62
1, 55968, Note_off_c, 0, 77, 61
1, 55979, Note_on_c, 0, 86, 58
1, 56026, Note_off_c, 0, 86, 61
1, 56040, Note_on_c, 0, 82, 60
1, 56087, Note_off_c, 0, 82, 61
1, 56100, Note_on_c, 0, 86, 64
1, 56147, Note_off_c, 0, 86, 60
1, 56160, Note_on_c, 0, 77, 59
1, 56207, Note_off_c, 0, 77, 61
1, 56221, Note_on_c, 0, 86, 63
1, 56268, Note_off_c, 0, 86, 61
1, 56269, Note_off_c, 1, 65, 58
1, 56278, Note_on_c, 1, 65, 75
1, 56280, Note_on_c, 0, 82, 63
1, 56327, Note_off_c, 0, 82, 61
1, 56339, Note_on_c, 0, 86, 63
1, 56386, Note_off_c, 0, 86, 61
1, 56394, Note_off_c, 1, 65, 58
1, 56399, Note_on_c, 0, 77, 60
1, 56402, Note_on_c, 1, 65, 76
1, 56446, Note_off_c, 0, 77, 61
1, 56460, Note_on_c, 0, 86, 58
1, 56507, Note_off_c, 0, 86, 61
1, 56519, Note_on_c, 0, 82, 60
1, 56566, Note_off_c, 0, 82, 61
1, 56581, Note_on_c, 0, 86, 58
1, 56628, Note_off_c, 0, 86, 61
1, 56634, Note_off_c, 1, 65, 58
1, 56640, Note_on_c, 0, 77, 61
1, 56641, Note_on_c, 1, 67, 74
1, 56687, Note_off_c, 0, 77, 60
1, 56699, Note_on_c, 0, 86, 62
1, 56746, Note_off_c, 0, 86, 60
1, 56760, Note_on_c, 0, 79, 60
1, 56807, Note_off_c, 0, 79, 61
1, 56822, Note_on_c, 0, 86, 58
1, 56869, Note_off_c, 0, 86, 61
1, 56873, Note_off_c, 1, 67, 58
1, 56881, Note_on_c, 0, 76, 59
1, 56882, Note_on_c, 1, 69, 75
1, 56928, Note_off_c, 0, 76, 61
1, 56942, Note_on_c, 0, 86, 60
1, 56989, Note_off_c, 0, 86, 61
1, 57000, Note_on_c, 0, 81, 64
1, 57047, Note_off_c, 0, 81, 61
1, 57060, Note_on_c, 0, 86, 60
1, 57107, Note_off_c, 0, 86, 61
1, 57120, Note_on_c, 0, 76, 64
1, 57167, Note_off_c, 0, 76, 61
1, 57179, Note_on_c, 0, 85, 61
1, 57226, Note_off_c, 0, 85, 61
1, 57231, Note_off_c, 1, 69, 58
1, 57238, Note_on_c, 0, 81, 64
1, 57241, Note_on_c, 1, 67, 79
1, 57285, Note_off_c, 0, 81, 61
1, 57300, Note_on_c, 0, 85, 64
1, 57347, Note_off_c, 0, 85, 60
1, 57357, Note_off_c, 1, 67, 58
1, 57359, Note_on_c, 1, 65, 74
1, 57361, Note_on_c, 0, 77, 61
1, 57408, Note_off_c, 0, 77, 61
1, 57421, Note_on_c, 0, 86, 64
1, 57468, Note_off_c, 0, 86, 61
1, 57478, Note_on_c, 0, 81, 63
1, 57525, Note_off_c, 0, 81, 61
1, 57540, Note_on_c, 0, 86, 63
1, 57587, Note_off_c, 0, 86, 60
1, 57591, Note_off_c, 1, 65, 58
1, 57599, Note_on_c, 1, 62, 77
1, 57601, Note_on_c, 0, 80, 59
1, 57648, Note_off_c, 0, 80, 61
1, 57661, Note_on_c, 0, 86, 61
1, 57708, Note_off_c, 0, 86, 61
1, 57721, Note_on_c, 0, 74, 61
1, 57768, Note_off_c, 0, 74, 60
1, 57778, Note_on_c, 0, 84, 63
1, 57825, Note_off_c, 0, 84, 60
1, 57831, Note_off_c, 1, 62, 58
1, 57839, Note_on_c, 0, 77, 75
1, 57841, Note_on_c, 1, 48, 76
1, 57886, Note_off_c, 0, 77, 60
1, 57898, Note_on_c, 0, 84, 76
1, 57945, Note_off_c, 0, 84, 60
1, 57960, Note_on_c, 0, 81, 79
1, 58007, Note_off_c, 0, 81, 60
1, 58019, Note_on_c, 0, 84, 74
1, 58066, Note_off_c, 0, 84, 61
1, 58082, Note_on_c, 0, 77, 77
1, 58129, Note_off_c, 0, 77, 60
1, 58140, Note_on_c, 0, 84, 75
1, 58187, Note_off_c, 0, 84, 61
1, 58190, Note_off_c, 1, 48, 58
1, 58201, Note_on_c, 1, 48, 77
1, 58202, Note_on_c, 0, 81, 78
1, 58249, Note_off_c, 0, 81, 61
1, 58261, Note_on_c, 0, 84, 81
1, 58308, Note_off_c, 0, 84, 61
1, 58317, Note_off_c, 1, 48, 58
1, 58320, Note_on_c, 0, 77, 80
1, 58322, Note_on_c, 1, 48, 76
1, 58367, Note_off_c, 0, 77, 60
1, 58382, Note_on_c, 0, 84, 78
1, 58429, Note_off_c, 0, 84, 61
1, 58442, Note_on_c, 0, 81, 79
1, 58489, Note_off_c, 0, 81, 60
1, 58502, Note_on_c, 0, 84, 78
1, 58549, Note_off_c, 0, 84, 60
1, 58554, Note_off_c, 1, 48, 58
1, 58559, Note_on_c, 1, 48, 77
1, 58561, Note_on_c, 0, 77, 82
1, 58608, Note_off_c, 0, 77, 61
1, 58622, Note_on_c, 0, 84, 77
1, 58669, Note_off_c, 0, 84, 61
1, 58678, Note_on_c, 0, 81, 77
1, 58725, Note_off_c, 0, 81, 61
1, 58740, Note_on_c, 0, 84, 76
1, 58787, Note_off_c, 0, 84, 61
1, 58791, Note_off_c, 1, 48, 58
1, 58798, Note_on_c, 1, 50, 76
1, 58801, Note_on_c, 0, 77, 77
1, 58848, Note_off_c, 0, 77, 61
1, 58858, Note_on_c, 0, 84, 79
1, 58905, Note_off_c, 0, 84, 61
1, 58918, Note_on_c, 0, 81, 78
1, 58965, Note_off_c, 0, 81, 61
1, 58980, Note_on_c, 0, 84, 77
1, 59027, Note_off_c, 0, 84, 61
1, 59030, Note_off_c, 1, 50, 58
1, 59038, Note_on_c, 1, 48, 82
1, 59039, Note_on_c, 0, 77, 77
1, 59086, Note_off_c, 0, 77, 61
1, 59098, Note_on_c, 0, 84, 83
1, 59145, Note_off_c, 0, 84, 61
1, 59162, Note_on_c, 0, 81, 81
1, 59209, Note_off_c, 0, 81, 61
1, 59219, Note_on_c, 0, 84, 79
1, 59266, Note_off_c, 0, 84, 60
1, 59270, Note_off_c, 1, 48, 58
1, 59278, Note_on_c, 1, 48, 80
1, 59282, Note_on_c, 0, 77, 79
1, 59329, Note_off_c, 0, 77, 61
1, 59339, Note_on_c, 0, 84, 81
1, 59386, Note_off_c, 0, 84, 61
1, 59401, Note_on_c, 0, 81, 79
1, 59448, Note_off_c, 0, 81, 61
1, 59459, Note_on_c, 0, 84, 80
1, 59506, Note_off_c, 0, 84, 60
1, 59520, Note_on_c, 0, 77, 80
1, 59567, Note_off_c, 0, 77, 61
1, 59581, Note_on_c, 0, 84, 84
1, 59627, Note_off_c, 1, 48, 59
1, 59628, Note_off_c, 0, 84, 60
1, 59638, Note_on_c, 1, 48, 84
1, 59642, Note_on_c, 0, 81, 80
1, 59689, Note_off_c, 0, 81, 61
1, 59698, Note_on_c, 0, 84, 82
1, 59745, Note_off_c, 0, 84, 61
1, 59754, Note_off_c, 1, 48, 58
1, 59758, Note_on_c, 1, 48, 81
1, 59761, Note_on_c, 0, 76, 82
1, 59808, Note_off_c, 0, 76, 61
1, 59818, Note_on_c, 0, 82, 80
1, 59865, Note_off_c, 0, 82, 60
1, 59882, Note_on_c, 0, 79, 84
1, 59929, Note_off_c, 0, 79, 61
1, 59942, Note_on_c, 0, 82, 83
1, 59989, Note_off_c, 0, 82, 61
1, 59990, Note_off_c, 1, 48, 58
1, 59998, Note_on_c, 0, 76, 82
1, 60002, Note_on_c, 1, 48, 85
1, 60045, Note_off_c, 0, 76, 61
1, 60059, Note_on_c, 0, 82, 80
1, 60106, Note_off_c, 0, 82, 61
1, 60119, Note_on_c, 0, 79, 83
1, 60166, Note_off_c, 0, 79, 61
1, 60180, Note_on_c, 0, 82, 85
1, 60227, Note_off_c, 0, 82, 60
1, 60234, Note_off_c, 1, 48, 58
1, 60238, Note_on_c, 0, 76, 83
1, 60241, Note_on_c, 1, 50, 81
1, 60285, Note_off_c, 0, 76, 61
1, 60299, Note_on_c, 0, 82, 81
1, 60346, Note_off_c, 0, 82, 61
1, 60360, Note_on_c, 0, 79, 88
1, 60407, Note_off_c, 0, 79, 61
1, 60418, Note_on_c, 0, 82, 85
1, 60465, Note_off_c, 0, 82, 61
1, 60473, Note_off_c, 1, 50, 58
1, 60478, Note_on_c, 0, 76, 85
1, 60479, Note_on_c, 1, 48, 82
1, 60525, Note_off_c, 0, 76, 61
1, 60542, Note_on_c, 0, 82, 88
1, 60589, Note_off_c, 0, 82, 61
1, 60598, Note_on_c, 0, 79, 84
1, 60645, Note_off_c, 0, 79, 61
1, 60659, Note_on_c, 0, 82, 88
1, 60706, Note_off_c, 0, 82, 61
1, 60711, Note_off_c, 1, 48, 59
1, 60721, Note_on_c, 0, 77, 88
1, 60722, Note_on_c, 1, 55, 87
1, 60768, Note_off_c, 0, 77, 61
1, 60780, Note_on_c, 0, 84, 83
1, 60827, Note_off_c, 0, 84, 61
1, 60842, Note_on_c, 0, 81, 90
1, 60889, Note_off_c, 0, 81, 60
1, 60901, Note_on_c, 0, 84, 89
1, 60948, Note_off_c, 0, 84, 60
1, 60962, Note_on_c, 0, 77, 88
1, 61009, Note_off_c, 0, 77, 61
1, 61021, Note_on_c, 0, 84, 89
1, 61068, Note_off_c, 0, 84, 60
1, 61071, Note_off_c, 1, 55, 58
1, 61079, Note_on_c, 1, 53, 84
1, 61081, Note_on_c, 0, 81, 87
1, 61128, Note_off_c, 0, 81, 61
1, 61141, Note_on_c, 0, 84, 89
1, 61188, Note_off_c, 0, 84, 60
1, 61195, Note_off_c, 1, 53, 58
1, 61199, Note_on_c, 1, 53, 88
1, 61201, Note_on_c, 0, 77, 84
1, 61248, Note_off_c, 0, 77, 61
1, 61259, Note_on_c, 0, 85, 86
1, 61306, Note_off_c, 0, 85, 61
1, 61319, Note_on_c, 0, 81, 86
1, 61366, Note_off_c, 0, 81, 60
1, 61382, Note_on_c, 0, 85, 86
1, 61429, Note_off_c, 0, 85, 61
1, 61431, Note_off_c, 1, 53, 58
1, 61439, Note_on_c, 0, 77, 86
1, 61440, Note_on_c, 1, 53, 89
1, 61486, Note_off_c, 0, 77, 61
1, 61499, Note_on_c, 0, 85, 90
1, 61546, Note_off_c, 0, 85, 61
1, 61558, Note_on_c, 0, 81, 91
1, 61605, Note_off_c, 0, 81, 61
1, 61618, Note_on_c, 0, 85, 91
1, 61665, Note_off_c, 0, 85, 61
1, 61672, Note_off_c, 1, 53, 58
1, 61679, Note_on_c, 0, 77, 92
1, 61679, Note_on_c, 1, 53, 92
1, 61726, Note_off_c, 0, 77, 61
1, 61740, Note_on_c, 0, 86, 92
1, 61787, Note_off_c, 0, 86, 60
1, 61802, Note_on_c, 0, 82, 91
1, 61849, Note_off_c, 0, 82, 61
1, 61858, Note_on_c, 0, 86, 87
1, 61905, Note_off_c, 0, 86, 61
1, 61919, Note_on_c, 0, 77, 88
1, 61966, Note_off_c, 0, 77, 61
1, 61981, Note_on_c, 0, 86, 92
1, 62028, Note_off_c, 0, 86, 60
1, 62028, Note_off_c, 1, 53, 58
1, 62040, Note_on_c, 0, 82, 90
1, 62040, Note_on_c, 1, 53, 90
1, 62087, Note_off_c, 0, 82, 61
1, 62098, Note_on_c, 0, 86, 93
1, 62145, Note_off_c, 0, 86, 60
1, 62156, Note_off_c, 1, 53, 58
1, 62158, Note_on_c, 1, 53, 89
1, 62162, Note_on_c, 0, 77, 93
1, 62209, Note_off_c, 0, 77, 60
1, 62222, Note_on_c, 0, 86, 89
1, 62269, Note_off_c, 0, 86, 61
1, 62280, Note_on_c, 0, 82, 89
1, 62327, Note_off_c, 0, 82, 61
1, 62340, Note_on_c, 0, 86, 90
1, 62387, Note_off_c, 0, 86, 61
1, 62390, Note_off_c, 1, 53, 58
1, 62398, Note_on_c, 1, 55, 91
1, 62399, Note_on_c, 0, 77, 91
1, 62446, Note_off_c, 0, 77, 60
1, 62458, Note_on_c, 0, 86, 88
1, 62505, Note_off_c, 0, 86, 61
1, 62521, Note_on_c, 0, 79, 90
1, 62568, Note_off_c, 0, 79, 61
1, 62581, Note_on_c, 0, 86, 91
1, 62628, Note_off_c, 0, 86, 60
1, 62630, Note_off_c, 1, 55, 58
1, 62640, Note_on_c, 1, 57, 94
1, 62642, Note_on_c, 0, 76, 89
1, 62689, Note_off_c, 0, 76, 61
1, 62699, Note_on_c, 0, 86, 93
1, 62746, Note_off_c, 0, 86, 61
1, 62761, Note_on_c, 0, 81, 92
1, 62808, Note_off_c, 0, 81, 61
1, 62821, Note_on_c, 0, 86, 92
1, 62868, Note_off_c, 0, 86, 61
1, 62881, Note_on_c, 0, 76, 93
1, 62928, Note_off_c, 0, 76, 61
1, 62940, Note_on_c, 0, 85, 91
1, 62987, Note_off_c, 0, 85, 61
1, 62989, Note_off_c, 1, 57, 59
1, 62998, Note_on_c, 1, 55, 93
1, 62999, Note_on_c, 0, 81, 92
1, 63046, Note_off_c, 0, 81, 61
1, 63059, Note_on_c, 0, 85, 93
1, 63106, Note_off_c, 0, 85, 61
1, 63114, Note_off_c, 1, 55, 58
1, 63118, Note_on_c, 0, 77, 97
1, 63121, Note_on_c, 1, 53, 96
1, 63165, Note_off_c, 0, 77, 60
1, 63181, Note_on_c, 0, 86, 92
1, 63228, Note_off_c, 0, 86, 60
1, 63242, Note_on_c, 0, 81, 93
1, 63289, Note_off_c, 0, 81, 61
1, 63302, Note_on_c, 0, 86, 98
1, 63349, Note_off_c, 0, 86, 61
1, 63353, Note_off_c, 1, 53, 58
1, 63358, Note_on_c, 0, 80, 98
1, 63359, Note_on_c, 1, 50, 97
1, 63405, Note_off_c, 0, 80, 61
1, 63421, Note_on_c, 0, 86, 93
1, 63468, Note_off_c, 0, 86, 61
1, 63478, Note_on_c, 0, 74, 94
1, 63525, Note_off_c, 0, 74, 61
1, 63538, Note_on_c, 0, 84, 98
1, 63585, Note_off_c, 0, 84, 61
1, 63591, Note_off_c, 1, 50, 58
1, 63598, Note_on_c, 1, 50, 94
1, 63602, Note_on_c, 0, 74, 93
1, 63649, Note_off_c, 0, 74, 61
1, 63659, Note_on_c, 0, 83, 97
1, 63706, Note_off_c, 0, 83, 61
1, 63718, Note_on_c, 0, 79, 94
1, 63765, Note_off_c, 0, 79, 61
1, 63778, Note_on_c, 0, 83, 98
1, 63825, Note_off_c, 0, 83, 60
1, 63840, Note_on_c, 0, 74, 94
1, 63887, Note_off_c, 0, 74, 61
1, 63901, Note_on_c, 0, 83, 97
1, 63947, Note_off_c, 1, 50, 58
1, 63948, Note_off_c, 0, 83, 60
1, 63961, Note_on_c, 1, 50, 97
1, 63962, Note_on_c, 0, 79, 99
1, 64009, Note_off_c, 0, 79, 61
1, 64019, Note_on_c, 0, 83, 95
1, 64066, Note_off_c, 0, 83, 61
1, 64077, Note_off_c, 1, 50, 58
1, 64078, Note_on_c, 0, 74, 100
1, 64078, Note_on_c, 1, 50, 98
1, 64125, Note_off_c, 0, 74, 61
1, 64140, Note_on_c, 0, 83, 100
1, 64187, Note_off_c, 0, 83, 61
1, 64198, Note_on_c, 0, 79, 98
1, 64245, Note_off_c, 0, 79, 61
1, 64261, Note_on_c, 0, 83, 95
1, 64308, Note_off_c, 0, 83, 61
1, 64310, Note_off_c, 1, 50, 58
1, 64321, Note_on_c, 0, 74, 96
1, 64321, Note_on_c, 1, 52, 101
1, 64368, Note_off_c, 0, 74, 60
1, 64379, Note_on_c, 0, 83, 96
1, 64426, Note_off_c, 0, 83, 60
1, 64440, Note_on_c, 0, 76, 102
1, 64487, Note_off_c, 0, 76, 61
1, 64502, Note_on_c, 0, 83, 98
1, 64549, Note_off_c, 0, 83, 61
1, 64553, Note_off_c, 1, 52, 59
1, 64562, Note_on_c, 0, 73, 101
1, 64562, Note_on_c, 1, 54, 101
1, 64609, Note_off_c, 0, 73, 61
1, 64620, Note_on_c, 0, 83, 97
1, 64667, Note_off_c, 0, 83, 61
1, 64682, Note_on_c, 0, 78, 96
1, 64729, Note_off_c, 0, 78, 61
1, 64741, Note_on_c, 0, 83, 102
1, 64788, Note_off_c, 0, 83, 60
1, 64798, Note_on_c, 0, 73, 100
1, 64845, Note_off_c, 0, 73, 61
1, 64859, Note_on_c, 0, 82, 98
1, 64906, Note_off_c, 0, 82, 61
1, 64911, Note_off_c, 1, 54, 58
1, 64918, Note_on_c, 0, 78, 97
1, 64918, Note_on_c, 1, 52, 103
1, 64965, Note_off_c, 0, 78, 60
1, 64978, Note_on_c, 0, 82, 100
1, 65025, Note_off_c, 0, 82, 61
1, 65034, Note_off_c, 1, 52, 58
1, 65038, Note_on_c, 0, 74, 98
1, 65041, Note_on_c, 1, 50, 100
1, 65085, Note_off_c, 0, 74, 60
1, 65100, Note_on_c, 0, 83, 99
1, 65147, Note_off_c, 0, 83, 61
1, 65160, Note_on_c, 0, 78, 103
1, 65207, Note_off_c, 0, 78, 61
1, 65222, Note_on_c, 0, 83, 103
1, 65269, Note_off_c, 0, 83, 61
1, 65273, Note_off_c, 1, 50, 59
1, 65279, Note_on_c, 0, 77, 101
1, 65279, Note_on_c, 1, 47, 102
1, 65326, Note_off_c, 0, 77, 61
1, 65338, Note_on_c, 0, 83, 98
1, 65385, Note_off_c, 0, 83, 60
1, 65402, Note_on_c, 0, 71, 99
1, 65449, Note_off_c, 0, 71, 60
1, 65461, Note_on_c, 0, 81, 101
1, 65508, Note_off_c, 0, 81, 60
1, 65511, Note_off_c, 1, 47, 58
1, 65518, Note_on_c, 0, 71, 101
1, 65519, Note_on_c, 1, 47, 99
1, 65565, Note_off_c, 0, 71, 61
1, 65581, Note_on_c, 0, 80, 104
1, 65628, Note_off_c, 0, 80, 61
1, 65642, Note_on_c, 0, 76, 103
1, 65689, Note_off_c, 0, 76, 60
1, 65701, Note_on_c, 0, 80, 104
1, 65748, Note_off_c, 0, 80, 60
1, 65759, Note_on_c, 0, 71, 106
1, 65806, Note_off_c, 0, 71, 61
1, 65819, Note_on_c, 0, 80, 105
1, 65866, Note_off_c, 0, 80, 61
1, 65868, Note_off_c, 1, 47, 58
1, 65878, Note_on_c, 0, 76, 105
1, 65882, Note_on_c, 1, 47, 106
1, 65925, Note_off_c, 0, 76, 60
1, 65942, Note_on_c, 0, 80, 101
1, 65989, Note_off_c, 0, 80, 61
1, 65998, Note_off_c, 1, 47, 58
1, 65998, Note_on_c, 1, 47, 106
1, 65999, Note_on_c, 0, 71, 104
1, 66046, Note_off_c, 0, 71, 61
1, 66060, Note_on_c, 0, 80, 102
1, 66107, Note_off_c, 0, 80, 60
1, 66121, Note_on_c, 0, 76, 105
1, 66168, Note_off_c, 0, 76, 61
1, 66178, Note_on_c, 0, 80, 106
1, 66225, Note_off_c, 0, 80, 60
1, 66230, Note_off_c, 1, 47, 58
1, 66240, Note_on_c, 1, 49, 106
1, 66241, Note_on_c, 0, 71, 104
1, 66288, Note_off_c, 0, 71, 61
1, 66299, Note_on_c, 0, 80, 106
1, 66346, Note_off_c, 0, 80, 61
1, 66358, Note_on_c, 0, 73, 106
1, 66405, Note_off_c, 0, 73, 61
1, 66422, Note_on_c, 0, 80, 104
1, 66469, Note_off_c, 0, 80, 61
1, 66472, Note_off_c, 1, 49, 59
1, 66481, Note_on_c, 0, 70, 104
1, 66481, Note_on_c, 1, 51, 108
1, 66528, Note_off_c, 0, 70, 61
1, 66538, Note_on_c, 0, 80, 108
1, 66585, Note_off_c, 0, 80, 61
1, 66598, Note_on_c, 0, 75, 105
1, 66645, Note_off_c, 0, 75, 61
1, 66658, Note_on_c, 0, 80, 107
1, 66705, Note_off_c, 0, 80, 61
1, 66721, Note_on_c, 0, 70, 103
1, 66768, Note_off_c, 0, 70, 60
1, 66780, Note_on_c, 0, 79, 105
1, 66827, Note_off_c, 0, 79, 61
1, 66830, Note_off_c, 1, 51, 58
1, 66838, Note_on_c, 0, 75, 106
1, 66842, Note_on_c, 1, 49, 110
1, 66885, Note_off_c, 0, 75, 61
1, 66898, Note_on_c, 0, 79, 107
1, 66945, Note_off_c, 0, 79, 61
1, 66958, Note_off_c, 1, 49, 58
1, 66959, Note_on_c, 0, 71, 107
1, 66959, Note_on_c, 1, 47, 108
1, 67006, Note_off_c, 0, 71, 61
1, 67021, Note_on_c, 0, 80, 110
1, 67068, Note_off_c, 0, 80, 60
1, 67079, Note_on_c, 0, 75, 104
1, 67126, Note_off_c, 0, 75, 60
1, 67138, Note_on_c, 0, 80, 110
1, 67185, Note_off_c, 0, 80, 61
1, 67191, Note_off_c, 1, 47, 59
1, 67200, Note_on_c, 1, 44, 107
1, 67201, Note_on_c, 0, 74, 108
1, 67248, Note_off_c, 0, 74, 60
1, 67258, Note_on_c, 0, 80, 110
1, 67305, Note_off_c, 0, 80, 61
1, 67320, Note_on_c, 0, 68, 107
1, 67367, Note_off_c, 0, 68, 61
1, 67379, Note_on_c, 0, 78, 105
1, 67426, Note_off_c, 0, 78, 61
1, 67432, Note_off_c, 1, 44, 58
1, 67438, Note_on_c, 1, 44, 111
1, 67441, Note_on_c, 0, 68, 111
1, 67488, Note_off_c, 0, 68, 60
1, 67498, Note_on_c, 0, 77, 109
1, 67545, Note_off_c, 0, 77, 60
1, 67559, Note_on_c, 0, 73, 108
1, 67606, Note_off_c, 0, 73, 61
1, 67621, Note_on_c, 0, 77, 106
1, 67668, Note_off_c, 0, 77, 60
1, 67680, Note_on_c, 0, 68, 107
1, 67727, Note_off_c, 0, 68, 61
1, 67741, Note_on_c, 0, 77, 107
1, 67787, Note_off_c, 1, 44, 58
1, 67788, Note_off_c, 0, 77, 61
1, 67798, Note_on_c, 1, 44, 111
1, 67802, Note_on_c, 0, 73, 111
1, 67849, Note_off_c, 0, 73, 61
1, 67858, Note_on_c, 0, 77, 112
1, 67905, Note_off_c, 0, 77, 61
1, 67914, Note_off_c, 1, 44, 58
1, 67918, Note_on_c, 0, 68, 109
1, 67919, Note_on_c, 1, 44, 113
1, 67965, Note_off_c, 0, 68, 61
1, 67982, Note_on_c, 0, 77, 113
1, 68029, Note_off_c, 0, 77, 60
1, 68039, Note_on_c, 0, 73, 109
1, 68086, Note_off_c, 0, 73, 61
1, 68100, Note_on_c, 0, 77, 110
1, 68147, Note_off_c, 0, 77, 61
1, 68151, Note_off_c, 1, 44, 58
1, 68161, Note_on_c, 1, 46, 108
1, 68162, Note_on_c, 0, 68, 108
1, 68209, Note_off_c, 0, 68, 61
1, 68221, Note_on_c, 0, 77, 111
1, 68268, Note_off_c, 0, 77, 60
1, 68282, Note_on_c, 0, 70, 109
1, 68329, Note_off_c, 0, 70, 60
1, 68341, Note_on_c, 0, 77, 110
1, 68388, Note_off_c, 0, 77, 61
1, 68393, Note_off_c, 1, 46, 58
1, 68399, Note_on_c, 1, 48, 109
1, 68402, Note_on_c, 0, 67, 114
1, 68449, Note_off_c, 0, 67, 61
1, 68458, Note_on_c, 0, 77, 113
1, 68505, Note_off_c, 0, 77, 61
1, 68520, Note_on_c, 0, 72, 109
1, 68567, Note_off_c, 0, 72, 60
1, 68581, Note_on_c, 0, 77, 109
1, 68628, Note_off_c, 0, 77, 61
1, 68638, Note_on_c, 0, 67, 109
1, 68685, Note_off_c, 0, 67, 61
1, 68699, Note_on_c, 0, 76, 112
1, 68746, Note_off_c, 0, 76, 61
1, 68748, Note_off_c, 1, 48, 58
1, 68758, Note_on_c, 0, 72, 116
1, 68759, Note_on_c, 1, 46, 114
1, 68805, Note_off_c, 0, 72, 61
1, 68818, Note_on_c, 0, 76, 116
1, 68865, Note_off_c, 0, 76, 60
1, 68875, Note_off_c, 1, 46, 59
1, 68879, Note_on_c, 0, 68, 113
1, 68881, Note_on_c, 1, 44, 112
1, 68926, Note_off_c, 0, 68, 61
1, 68940, Note_on_c, 0, 77, 114
1, 68987, Note_off_c, 0, 77, 60
1, 69001, Note_on_c, 0, 72, 115
1, 69048, Note_off_c, 0, 72, 61
1, 69061, Note_on_c, 0, 77, 111
1, 69108, Note_off_c, 0, 77, 61
1, 69113, Note_off_c, 1, 44, 58
1, 69118, Note_on_c, 0, 71, 113
1, 69118, Note_on_c, 1, 41, 115
1, 69165, Note_off_c, 0, 71, 61
1, 69180, Note_on_c, 0, 77, 113
1, 69227, Note_off_c, 0, 77, 61
1, 69242, Note_on_c, 0, 65, 113
1, 69289, Note_off_c, 0, 65, 61
1, 69301, Note_on_c, 0, 75, 115
1, 69348, Note_off_c, 0, 75, 61
1, 69350, Note_off_c, 1, 41, 58
1, 69358, Note_on_c, 1, 49, 123
1, 69359, Note_on_c, 1, 37, 118
1, 69361, Note_on_c, 0, 73, 122
1, 69548, Note_off_c, 1, 49, 58
1, 69549, Note_off_c, 1, 37, 58
1, 69551, Note_off_c, 0, 73, 68
1, 69600, Tempo, 361446
1, 69600, Note_on_c, 0, 65, 118
1, 69601, Note_on_c, 1, 41, 122
1, 69601, Note_on_c, 1, 29, 120
1, 69840, Tempo, 365854
1, 70080, Tempo, 370370
1, 70170, Note_off_c, 0, 65, 68
1, 70171, Note_off_c, 1, 29, 58
1, 70171, Note_off_c, 1, 41, 58
1, 70319, Note_on_c, 1, 41, 120
1, 70319, Note_on_c, 1, 53, 123
1, 70320, Tempo, 375000
1, 70322, Note_on_c, 0, 65, 120
1, 70509, Note_off_c, 1, 53, 58
1, 70509, Note_off_c, 1, 41, 59
1, 70512, Note_off_c, 0, 65, 68
1, 70558, Note_on_c, 0, 56, 121
1, 70558, Note_on_c, 1, 44, 121
1, 70559, Note_on_c, 1, 32, 124
1, 70560, Tempo, 379747
1, 70800, Tempo, 384615
1, 71040, Tempo, 389610
1, 71128, Note_off_c, 1, 44, 58
1, 71128, Note_off_c, 0, 56, 68
1, 71129, Note_off_c, 1, 32, 58
1, 71278, Note_on_c, 1, 41, 90
1, 71280, Tempo, 397351
1, 71280, Note_on_c, 0, 65, 85
1, 71280, Note_on_c, 1, 53, 89
1, 71468, Note_off_c, 1, 41, 59
1, 71470, Note_off_c, 1, 53, 58
1, 71470, Note_off_c, 0, 65, 68
1, 71519, Note_on_c, 0, 56, 96
1, 71520, Tempo, 402685
1, 71521, Note_on_c, 1, 32, 90
1, 71522, Note_on_c, 1, 44, 90
1, 71709, Note_off_c, 0, 56, 68
1, 71711, Note_off_c, 1, 32, 58
1, 71712, Note_off_c, 1, 44, 58
1, 71758, Note_on_c, 1, 53, 96
1, 71760, Tempo, 408163
1, 71761, Note_on_c, 0, 65, 90
1, 71761, Note_on_c, 1, 41, 98
1, 71948, Note_off_c, 1, 53, 58
1, 71951, Note_off_c, 1, 41, 58
1, 71951, Note_off_c, 0, 65, 68
1, 71999, Note_on_c, 0, 56, 90
1, 71999, Note_on_c, 1, 32, 83
1, 72000, Tempo, 413793
1, 72002, Note_on_c, 1, 44, 87
1, 72240, Tempo, 419580
1, 72480, Tempo, 425532
1, 72720, Tempo, 431655
1, 72960, Tempo, 437956
1, 72996, Note_off_c, 1, 32, 58
1, 72996, Note_off_c, 0, 56, 68
1, 72999, Note_off_c, 1, 44, 59
1, 73200, Tempo, 357143
1, 73202, Note_on_c, 1, 32, 59
1, 73258, Note_on_c, 0, 51, 76
1, 73297, Note_off_c, 1, 32, 59
1, 73305, Note_off_c, 0, 51, 61
1, 73320, Note_on_c, 0, 56, 84
1, 73322, Note_on_c, 1, 39, 82
1, 73367, Note_off_c, 0, 56, 61
1, 73378, Note_on_c, 0, 59, 81
1, 73417, Note_off_c, 1, 39, 58
1, 73425, Note_off_c, 0, 59, 61
1, 73440, Note_on_c, 1, 32, 80
1, 73442, Note_on_c, 0, 63, 85
1, 73489, Note_off_c, 0, 63, 61
1, 73502, Note_on_c, 0, 56, 83
1, 73535, Note_off_c, 1, 32, 58
1, 73549, Note_off_c, 0, 56, 60
1, 73558, Note_on_c, 0, 59, 84
1, 73560, Note_on_c, 1, 39, 77
1, 73605, Note_off_c, 0, 59, 60
1, 73618, Note_on_c, 0, 63, 82
1, 73655, Note_off_c, 1, 39, 59
1, 73665, Note_off_c, 0, 63, 60
1, 73681, Note_on_c, 1, 32, 82
1, 73682, Note_on_c, 0, 68, 80
1, 73729, Note_off_c, 0, 68, 61
1, 73741, Note_on_c, 0, 59, 78
1, 73776, Note_off_c, 1, 32, 58
1, 73788, Note_off_c, 0, 59, 61
1, 73798, Note_on_c, 0, 63, 83
1, 73800, Note_on_c, 1, 39, 84
1, 73845, Note_off_c, 0, 63, 61
1, 73862, Note_on_c, 0, 68, 81
1, 73895, Note_off_c, 1, 39, 58
1, 73909, Note_off_c, 0, 68, 61
1, 73920, Note_on_c, 0, 71, 90
1, 73922, Note_on_c, 1, 32, 76
1, 73967, Note_off_c, 0, 71, 61
1, 73979, Note_on_c, 0, 63, 78
1, 74017, Note_off_c, 1, 32, 58
1, 74026, Note_off_c, 0, 63, 61
1, 74041, Note_on_c, 0, 68, 78
1, 74042, Note_on_c, 1, 39, 78
1, 74088, Note_off_c, 0, 68, 61
1, 74100, Note_on_c, 0, 71, 83
1, 74137, Note_off_c, 1, 39, 58
1, 74147, Note_off_c, 0, 71, 61
1, 74159, Note_on_c, 1, 32, 86
1, 74162, Note_on_c, 0, 75, 87
1, 74209, Note_off_c, 0, 75, 61
1, 74222, Note_on_c, 0, 68, 78
1, 74254, Note_off_c, 1, 32, 58
1, 74269, Note_off_c, 0, 68, 60
1, 74281, Note_on_c, 0, 71, 85
1, 74281, Note_on_c, 1, 39, 88
1, 74328, Note_off_c, 0, 71, 61
1, 74339, Note_on_c, 0, 75, 83
1, 74376, Note_off_c, 1, 39, 58
1, 74386, Note_off_c, 0, 75, 61
1, 74401, Note_on_c, 1, 32, 83
1, 74402, Note_on_c, 0, 80, 89
1, 74449, Note_off_c, 0, 80, 61
1, 74462, Note_on_c, 0, 71, 90
1, 74496, Note_off_c, 1, 32, 58
1, 74509, Note_off_c, 0, 71, 60
1, 74520, Note_on_c, 1, 39, 107
1, 74522, Note_on_c, 0, 75, 79
1, 74569, Note_off_c, 0, 75, 61
1, 74581, Note_on_c, 0, 80, 81
1, 74615, Note_off_c, 1, 39, 58
1, 74628, Note_off_c, 0, 80, 61
1, 74638, Note_on_c, 0, 83, 88
1, 74641, Note_on_c, 1, 32, 78
1, 74685, Note_off_c, 0, 83, 61
1, 74701, Note_on_c, 0, 75, 81
1, 74736, Note_off_c, 1, 32, 58
1, 74748, Note_off_c, 0, 75, 61
1, 74760, Note_on_c, 0, 80, 82
1, 74762, Note_on_c, 1, 39, 86
1, 74807, Note_off_c, 0, 80, 60
1, 74818, Note_on_c, 0, 83, 93
1, 74857, Note_off_c, 1, 39, 58
1, 74865, Note_off_c, 0, 83, 61
1, 74878, Note_on_c, 0, 83, 124
1, 74878, Note_on_c, 0, 75, 122
1, 74879, Note_on_c, 1, 32, 123
1, 74880, Note_on_c, 1, 44, 119
1, 74881, Note_on_c, 0, 87, 119
1, 74882, Note_on_c, 0, 80, 122
1, 74973, Note_off_c, 0, 75, 68
1, 74973, Note_off_c, 0, 83, 68
1, 74974, Note_off_c, 1, 32, 58
1, 74975, Note_off_c, 1, 44, 58
1, 74976, Note_off_c, 0, 87, 68
1, 74977, Note_off_c, 0, 80, 68
1, 74998, Note_on_c, 1, 39, 121
1, 74999, Note_on_c, 0, 87, 119
1, 75002, Note_on_c, 0, 83, 118
1, 75002, Note_on_c, 0, 80, 122
1, 75002, Note_on_c, 0, 75, 119
1, 75093, Note_off_c, 1, 39, 58
1, 75094, Note_off_c, 0, 87, 69
1, 75097, Note_off_c, 0, 75, 68
1, 75097, Note_off_c, 0, 80, 68
1, 75097, Note_off_c, 0, 83, 68
1, 75119, Note_on_c, 1, 31, 83
1, 75181, Note_on_c, 0, 55, 72
1, 75214, Note_off_c, 1, 31, 58
1, 75228, Note_off_c, 0, 55, 61
1, 75238, Note_on_c, 0, 58, 84
1, 75240, Note_on_c, 1, 39, 84
1, 75285, Note_off_c, 0, 58, 61
1, 75298, Note_on_c, 0, 61, 78
1, 75335, Note_off_c, 1, 39, 58
1, 75345, Note_off_c, 0, 61, 60
1, 75361, Note_on_c, 0, 67, 83
1, 75361, Note_on_c, 1, 31, 85
1, 75408, Note_off_c, 0, 67, 61
1, 75418, Note_on_c, 0, 58, 84
1, 75456, Note_off_c, 1, 31, 58
1, 75465, Note_off_c, 0, 58, 61
1, 75479, Note_on_c, 0, 61, 81
1, 75480, Note_on_c, 1, 39, 78
1, 75526, Note_off_c, 0, 61, 60
1, 75541, Note_on_c, 0, 67, 88
1, 75575, Note_off_c, 1, 39, 58
1, 75588, Note_off_c, 0, 67, 61
1, 75601, Note_on_c, 0, 70, 79
1, 75602, Note_on_c, 1, 31, 83
1, 75648, Note_off_c, 0, 70, 61
1, 75661, Note_on_c, 0, 61, 81
1, 75697, Note_off_c, 1, 31, 58
1, 75708, Note_off_c, 0, 61, 61
1, 75720, Note_on_c, 1, 39, 80
1, 75722, Note_on_c, 0, 67, 82
1, 75769, Note_off_c, 0, 67, 60
1, 75780, Note_on_c, 0, 70, 82
1, 75815, Note_off_c, 1, 39, 59
1, 75827, Note_off_c, 0, 70, 61
1, 75839, Note_on_c, 0, 73, 83
1, 75841, Note_on_c, 1, 31, 81
1, 75886, Note_off_c, 0, 73, 60
1, 75901, Note_on_c, 0, 67, 82
1, 75936, Note_off_c, 1, 31, 58
1, 75948, Note_off_c, 0, 67, 61
1, 75958, Note_on_c, 0, 70, 79
1, 75959, Note_on_c, 1, 39, 82
1, 76005, Note_off_c, 0, 70, 61
1, 76019, Note_on_c, 0, 73, 84
1, 76054, Note_off_c, 1, 39, 59
1, 76066, Note_off_c, 0, 73, 61
1, 76080, Note_on_c, 0, 79, 80
1, 76080, Note_on_c, 1, 31, 84
1, 76127, Note_off_c, 0, 79, 61
1, 76138, Note_on_c, 0, 70, 81
1, 76175, Note_off_c, 1, 31, 58
1, 76185, Note_off_c, 0, 70, 60
1, 76198, Note_on_c, 1, 39, 82
1, 76200, Note_on_c, 0, 73, 77
1, 76247, Note_off_c, 0, 73, 61
1, 76258, Note_on_c, 0, 79, 89
1, 76293, Note_off_c, 1, 39, 59
1, 76305, Note_off_c, 0, 79, 61
1, 76319, Note_on_c, 0, 82, 86
1, 76322, Note_on_c, 1, 31, 82
1, 76366, Note_off_c, 0, 82, 60
1, 76378, Note_on_c, 0, 73, 77
1, 76417, Note_off_c, 1, 31, 59
1, 76425, Note_off_c, 0, 73, 60
1, 76440, Note_on_c, 0, 79, 86
1, 76441, Note_on_c, 1, 39, 81
1, 76487, Note_off_c, 0, 79, 60
1, 76500, Note_on_c, 0, 82, 85
1, 76536, Note_off_c, 1, 39, 58
1, 76547, Note_off_c, 0, 82, 60
1, 76558, Note_on_c, 1, 31, 84
1, 76561, Note_on_c, 0, 85, 87
1, 76608, Note_off_c, 0, 85, 61
1, 76621, Note_on_c, 0, 79, 89
1, 76653, Note_off_c, 1, 31, 58
1, 76668, Note_off_c, 0, 79, 61
1, 76679, Note_on_c, 0, 82, 84
1, 76680, Note_on_c, 1, 39, 83
1, 76726, Note_off_c, 0, 82, 60
1, 76739, Note_on_c, 0, 85, 82
1, 76775, Note_off_c, 1, 39, 58
1, 76786, Note_off_c, 0, 85, 61
1, 76798, Note_on_c, 1, 43, 122
1, 76799, Note_on_c, 0, 85, 120
1, 76800, Note_on_c, 0, 87, 120
1, 76800, Note_on_c, 1, 31, 123
1, 76801, Note_on_c, 0, 79, 120
1, 76802, Note_on_c, 0, 82, 118
1, 76802, Note_on_c, 0, 75, 121
1, 76893, Note_off_c, 1, 43, 58
1, 76894, Note_off_c, 0, 85, 69
1, 76895, Note_off_c, 1, 31, 58
1, 76895, Note_off_c, 0, 87, 68
1, 76896, Note_off_c, 0, 79, 68
1, 76897, Note_off_c, 0, 75, 68
1, 76897, Note_off_c, 0, 82, 68
1, 76918, Note_on_c, 0, 75, 122
1, 76920, Note_on_c, 0, 85, 120
1, 76920, Note_on_c, 0, 79, 122
1, 76921, Note_on_c, 0, 87, 122
1, 76921, Note_on_c, 1, 39, 123
1, 76922, Note_on_c, 0, 82, 119
1, 77013, Note_off_c, 0, 75, 68
1, 77015, Note_off_c, 0, 79, 68
1, 77015, Note_off_c, 0, 85, 68
1, 77016, Note_off_c, 1, 39, 58
1, 77016, Note_off_c, 0, 87, 68
1, 77017, Note_off_c, 0, 82, 68
1, 77042, Note_on_c, 1, 30, 75
1, 77101, Note_on_c, 0, 54, 103
1, 77137, Note_off_c, 1, 30, 58
1, 77148, Note_off_c, 0, 54, 61
1, 77159, Note_on_c, 0, 57, 79
1, 77161, Note_on_c, 1, 39, 81
1, 77206, Note_off_c, 0, 57, 61
1, 77219, Note_on_c, 0, 60, 72
1, 77256, Note_off_c, 1, 39, 58
1, 77266, Note_off_c, 0, 60, 61
1, 77279, Note_on_c, 1, 30, 74
1, 77280, Note_on_c, 0, 66, 86
1, 77327, Note_off_c, 0, 66, 61
1, 77340, Note_on_c, 0, 57, 93
1, 77374, Note_off_c, 1, 30, 58
1, 77387, Note_off_c, 0, 57, 60
1, 77400, Note_on_c, 0, 60, 94
1, 77400, Note_on_c, 1, 39, 72
1, 77447, Note_off_c, 0, 60, 60
1, 77458, Note_on_c, 0, 66, 82
1, 77495, Note_off_c, 1, 39, 58
1, 77505, Note_off_c, 0, 66, 61
1, 77519, Note_on_c, 0, 69, 92
1, 77519, Note_on_c, 1, 30, 76
1, 77566, Note_off_c, 0, 69, 61
1, 77582, Note_on_c, 0, 60, 88
1, 77614, Note_off_c, 1, 30, 58
1, 77629, Note_off_c, 0, 60, 61
1, 77640, Note_on_c, 0, 66, 78
1, 77641, Note_on_c, 1, 39, 78
1, 77687, Note_off_c, 0, 66, 61
1, 77700, Note_on_c, 0, 69, 87
1, 77736, Note_off_c, 1, 39, 58
1, 77747, Note_off_c, 0, 69, 60
1, 77758, Note_on_c, 0, 72, 92
1, 77761, Note_on_c, 1, 30, 75
1, 77805, Note_off_c, 0, 72, 60
1, 77818, Note_on_c, 0, 66, 89
1, 77856, Note_off_c, 1, 30, 59
1, 77865, Note_off_c, 0, 66, 61
1, 77878, Note_on_c, 1, 39, 75
1, 77881, Note_on_c, 0, 69, 93
1, 77928, Note_off_c, 0, 69, 60
1, 77941, Note_on_c, 0, 72, 89
1, 77973, Note_off_c, 1, 39, 59
1, 77988, Note_off_c, 0, 72, 61
1, 78001, Note_on_c, 1, 30, 81
1, 78002, Note_on_c, 0, 78, 108
1, 78049, Note_off_c, 0, 78, 60
1, 78062, Note_on_c, 0, 69, 73
1, 78096, Note_off_c, 1, 30, 58
1, 78109, Note_off_c, 0, 69, 61
1, 78119, Note_on_c, 1, 39, 79
1, 78122, Note_on_c, 0, 72, 79
1, 78169, Note_off_c, 0, 72, 60
1, 78181, Note_on_c, 0, 78, 82
1, 78214, Note_off_c, 1, 39, 58
1, 78228, Note_off_c, 0, 78, 61
1, 78240, Note_on_c, 0, 81, 92
1, 78241, Note_on_c, 1, 30, 83
1, 78287, Note_off_c, 0, 81, 61
1, 78299, Note_on_c, 0, 72, 76
1, 78336, Note_off_c, 1, 30, 58
1, 78346, Note_off_c, 0, 72, 61
1, 78358, Note_on_c, 1, 39, 83
1, 78362, Note_on_c, 0, 78, 85
1, 78409, Note_off_c, 0, 78, 61
1, 78421, Note_on_c, 0, 81, 91
1, 78453, Note_off_c, 1, 39, 58
1, 78468, Note_off_c, 0, 81, 61
1, 78479, Note_on_c, 1, 30, 85
1, 78481, Note_on_c, 0, 84, 93
1, 78528, Note_off_c, 0, 84, 61
1, 78541, Note_on_c, 0, 78, 84
1, 78574, Note_off_c, 1, 30, 58
1, 78588, Note_off_c, 0, 78, 61
1, 78598, Note_on_c, 0, 81, 85
1, 78602, Note_on_c, 1, 39, 80
1, 78645, Note_off_c, 0, 81, 61
1, 78659, Note_on_c, 0, 84, 91
1, 78697, Note_off_c, 1, 39, 58
1, 78706, Note_off_c, 0, 84, 60
1, 78718, Note_on_c, 0, 84, 119
1, 78718, Note_on_c, 0, 81, 120
1, 78719, Note_on_c, 0, 90, 123
1, 78721, Note_on_c, 1, 30, 123
1, 78722, Note_on_c, 0, 78, 119
1, 78722, Note_on_c, 1, 42, 118
1, 78813, Note_off_c, 0, 81, 68
1, 78813, Note_off_c, 0, 84, 68
1, 78814, Note_off_c, 0, 90, 68
1, 78816, Note_off_c, 1, 30, 58
1, 78817, Note_off_c, 1, 42, 58
1, 78817, Note_off_c, 0, 78, 68
1, 78839, Note_on_c, 0, 78, 122
1, 78840, Note_on_c, 0, 84, 120
1, 78840, Note_on_c, 0, 81, 122
1, 78840, Note_on_c, 1, 39, 121
1, 78841, Note_on_c, 0, 90, 120
1, 78934, Note_off_c, 0, 78, 69
1, 78935, Note_off_c, 1, 39, 58
1, 78935, Note_off_c, 0, 81, 68
1, 78935, Note_off_c, 0, 84, 68
1, 78936, Note_off_c, 0, 90, 68
1, 78960, Note_on_c, 1, 31, 84
1, 79020, Note_on_c, 0, 55, 86
1, 79055, Note_off_c, 1, 31, 58
1, 79067, Note_off_c, 0, 55, 61
1, 79079, Note_on_c, 1, 38, 85
1, 79080, Note_on_c, 0, 58, 82
1, 79127, Note_off_c, 0, 58, 61
1, 79142, Note_on_c, 0, 62, 85
1, 79174, Note_off_c, 1, 38, 58
1, 79189, Note_off_c, 0, 62, 61
1, 79199, Note_on_c, 0, 67, 85
1, 79199, Note_on_c, 1, 31, 79
1, 79246, Note_off_c, 0, 67, 60
1, 79261, Note_on_c, 0, 67, 80
1, 79294, Note_off_c, 1, 31, 58
1, 79308, Note_off_c, 0, 67, 61
1, 79320, Note_on_c, 0, 70, 85
1, 79321, Note_on_c, 1, 38, 88
1, 79367, Note_off_c, 0, 70, 61
1, 79382, Note_on_c, 0, 74, 85
1, 79416, Note_off_c, 1, 38, 59
1, 79429, Note_off_c, 0, 74, 61
1, 79439, Note_on_c, 1, 31, 80
1, 79441, Note_on_c, 0, 79, 91
1, 79488, Note_off_c, 0, 79, 60
1, 79498, Note_on_c, 0, 79, 87
1, 79534, Note_off_c, 1, 31, 58
1, 79545, Note_off_c, 0, 79, 61
1, 79559, Note_on_c, 0, 82, 76
1, 79559, Note_on_c, 1, 38, 89
1, 79606, Note_off_c, 0, 82, 61
1, 79618, Note_on_c, 0, 86, 87
1, 79654, Note_off_c, 1, 38, 58
1, 79665, Note_off_c, 0, 86, 61
1, 79679, Note_on_c, 0, 82, 124
1, 79680, Note_on_c, 0, 79, 119
1, 79680, Note_on_c, 1, 43, 123
1, 79681, Note_on_c, 0, 91, 120
1, 79681, Note_on_c, 0, 86, 121
1, 79682, Note_on_c, 1, 31, 120
1, 79774, Note_off_c, 0, 82, 68
1, 79775, Note_off_c, 1, 43, 58
1, 79775, Note_off_c, 0, 79, 68
1, 79776, Note_off_c, 0, 86, 68
1, 79776, Note_off_c, 0, 91, 69
1, 79777, Note_off_c, 1, 31, 58
1, 79798, Note_on_c, 0, 86, 119
1, 79798, Note_on_c, 0, 79, 121
1, 79801, Note_on_c, 0, 91, 119
1, 79801, Note_on_c, 0, 82, 118
1, 79802, Note_on_c, 1, 38, 121
1, 79893, Note_off_c, 0, 79, 68
1, 79893, Note_off_c, 0, 86, 68
1, 79896, Note_off_c, 0, 82, 68
1, 79896, Note_off_c, 0, 91, 68
1, 79897, Note_off_c, 1, 38, 59
1, 79918, Note_on_c, 1, 31, 88
1, 79978, Note_on_c, 0, 55, 87
1, 80013, Note_off_c, 1, 31, 58
1, 80025, Note_off_c, 0, 55, 60
1, 80042, Note_on_c, 0, 58, 81
1, 80042, Note_on_c, 1, 37, 90
1, 80089, Note_off_c, 0, 58, 61
1, 80098, Note_on_c, 0, 61, 84
1, 80137, Note_off_c, 1, 37, 58
1, 80145, Note_off_c, 0, 61, 61
1, 80158, Note_on_c, 0, 67, 90
1, 80162, Note_on_c, 1, 31, 82
1, 80205, Note_off_c, 0, 67, 61
1, 80219, Note_on_c, 0, 67, 91
1, 80257, Note_off_c, 1, 31, 58
1, 80266, Note_off_c, 0, 67, 61
1, 80278, Note_on_c, 1, 37, 93
1, 80282, Note_on_c, 0, 70, 87
1, 80329, Note_off_c, 0, 70, 61
1, 80338, Note_on_c, 0, 73, 82
1, 80373, Note_off_c, 1, 37, 58
1, 80385, Note_off_c, 0, 73, 61
1, 80398, Note_on_c, 1, 31, 86
1, 80401, Note_on_c, 0, 79, 89
1, 80448, Note_off_c, 0, 79, 61
1, 80461, Note_on_c, 0, 79, 88
1, 80493, Note_off_c, 1, 31, 58
1, 80508, Note_off_c, 0, 79, 60
1, 80520, Note_on_c, 1, 37, 89
1, 80521, Note_on_c, 0, 82, 81
1, 80568, Note_off_c, 0, 82, 60
1, 80578, Note_on_c, 0, 85, 86
1, 80615, Note_off_c, 1, 37, 58
1, 80625, Note_off_c, 0, 85, 61
1, 80638, Note_on_c, 0, 82, 118
1, 80638, Note_on_c, 0, 79, 123
1, 80639, Note_on_c, 0, 85, 121
1, 80639, Note_on_c, 1, 43, 124
1, 80640, Note_on_c, 0, 91, 119
1, 80640, Note_on_c, 1, 31, 124
1, 80733, Note_off_c, 0, 79, 68
1, 80733, Note_off_c, 0, 82, 68
1, 80734, Note_off_c, 1, 43, 58
1, 80734, Note_off_c, 0, 85, 68
1, 80735, Note_off_c, 1, 31, 58
1, 80735, Note_off_c, 0, 91, 69
1, 80758, Note_on_c, 0, 91, 121
1, 80758, Note_on_c, 1, 37, 120
1, 80759, Note_on_c, 0, 82, 121
1, 80761, Note_on_c, 0, 85, 119
1, 80762, Note_on_c, 0, 79, 118
1, 80853, Note_off_c, 1, 37, 58
1, 80853, Note_off_c, 0, 91, 68
1, 80854, Note_off_c, 0, 82, 68
1, 80856, Note_off_c, 0, 85, 69
1, 80857, Note_off_c, 0, 79, 68
1, 80879, Note_on_c, 1, 38, 88
1, 80941, Note_on_c, 0, 50, 84
1, 80974, Note_off_c, 1, 38, 58
1, 80988, Note_off_c, 0, 50, 61
1, 81001, Note_on_c, 0, 54, 95
1, 81001, Note_on_c, 1, 50, 90
1, 81048, Note_off_c, 0, 54, 61
1, 81058, Note_on_c, 0, 60, 90
1, 81096, Note_off_c, 1, 50, 58
1, 81105, Note_off_c, 0, 60, 60
1, 81121, Note_on_c, 0, 62, 89
1, 81121, Note_on_c, 1, 42, 91
1, 81168, Note_off_c, 0, 62, 60
1, 81182, Note_on_c, 0, 54, 93
1, 81216, Note_off_c, 1, 42, 59
1, 81229, Note_off_c, 0, 54, 61
1, 81240, Note_on_c, 0, 60, 96
1, 81241, Note_on_c, 1, 50, 81
1, 81287, Note_off_c, 0, 60, 61
1, 81302, Note_on_c, 0, 62, 94
1, 81336, Note_off_c, 1, 50, 58
1, 81349, Note_off_c, 0, 62, 61
1, 81360, Note_on_c, 1, 38, 85
1, 81362, Note_on_c, 0, 66, 88
1, 81409, Note_off_c, 0, 66, 61
1, 81421, Note_on_c, 0, 60, 92
1, 81455, Note_off_c, 1, 38, 59
1, 81468, Note_off_c, 0, 60, 60
1, 81482, Note_on_c, 0, 62, 93
1, 81482, Note_on_c, 1, 50, 87
1, 81529, Note_off_c, 0, 62, 61
1, 81538, Note_on_c, 0, 66, 80
1, 81577, Note_off_c, 1, 50, 58
1, 81585, Note_off_c, 0, 66, 61
1, 81598, Note_on_c, 1, 42, 88
1, 81601, Note_on_c, 0, 72, 87
1, 81648, Note_off_c, 0, 72, 61
1, 81661, Note_on_c, 0, 62, 94
1, 81693, Note_off_c, 1, 42, 58
1, 81708, Note_off_c, 0, 62, 61
1, 81719, Note_on_c, 1, 50, 88
1, 81722, Note_on_c, 0, 66, 80
1, 81769, Note_off_c, 0, 66, 61
1, 81781, Note_on_c, 0, 72, 84
1, 81814, Note_off_c, 1, 50, 58
1, 81828, Note_off_c, 0, 72, 61
1, 81839, Note_on_c, 0, 74, 88
1, 81842, Note_on_c, 1, 38, 84
1, 81886, Note_off_c, 0, 74, 61
1, 81900, Note_on_c, 0, 66, 88
1, 81937, Note_off_c, 1, 38, 58
1, 81947, Note_off_c, 0, 66, 61
1, 81961, Note_on_c, 1, 50, 87
1, 81962, Note_on_c, 0, 72, 90
1, 82009, Note_off_c, 0, 72, 61
1, 82019, Note_on_c, 0, 74, 93
1, 82056, Note_off_c, 1, 50, 58
1, 82066, Note_off_c, 0, 74, 61
1, 82080, Note_on_c, 1, 42, 87
1, 82081, Note_on_c, 0, 78, 100
1, 82128, Note_off_c, 0, 78, 61
1, 82140, Note_on_c, 0, 72, 88
1, 82175, Note_off_c, 1, 42, 58
1, 82187, Note_off_c, 0, 72, 61
1, 82200, Note_on_c, 1, 50, 93
1, 82202, Note_on_c, 0, 74, 93
1, 82249, Note_off_c, 0, 74, 61
1, 82262, Note_on_c, 0, 78, 78
1, 82295, Note_off_c, 1, 50, 58
1, 82309, Note_off_c, 0, 78, 61
1, 82320, Note_on_c, 0, 84, 95
1, 82320, Note_on_c, 1, 38, 89
1, 82367, Note_off_c, 0, 84, 60
1, 82379, Note_on_c, 0, 74, 84
1, 82415, Note_off_c, 1, 38, 58
1, 82426, Note_off_c, 0, 74, 61
1, 82439, Note_on_c, 0, 78, 83
1, 82439, Note_on_c, 1, 50, 88
1, 82486, Note_off_c, 0, 78, 61
1, 82500, Note_on_c, 0, 84, 84
1, 82534, Note_off_c, 1, 50, 59
1, 82547, Note_off_c, 0, 84, 60
1, 82558, Note_on_c, 0, 86, 87
1, 82562, Note_on_c, 1, 42, 89
1, 82605, Note_off_c, 0, 86, 61
1, 82618, Note_on_c, 0, 84, 86
1, 82657, Note_off_c, 1, 42, 58
1, 82665, Note_off_c, 0, 84, 61
1, 82678, Note_on_c, 1, 50, 87
1, 82680, Note_on_c, 0, 78, 85
1, 82727, Note_off_c, 0, 78, 60
1, 82742, Note_on_c, 0, 74, 81
1, 82773, Note_off_c, 1, 50, 58
1, 82789, Note_off_c, 0, 74, 61
1, 82799, Note_on_c, 1, 42, 85
1, 82800, Note_on_c, 0, 84, 81
1, 82847, Note_off_c, 0, 84, 60
1, 82859, Note_on_c, 0, 78, 80
1, 82894, Note_off_c, 1, 42, 58
1, 82906, Note_off_c, 0, 78, 60
1, 82920, Note_on_c, 1, 50, 92
1, 82921, Note_on_c, 0, 74, 93
1, 82968, Note_off_c, 0, 74, 61
1, 82978, Note_on_c, 0, 72, 82
1, 83015, Note_off_c, 1, 50, 58
1, 83025, Note_off_c, 0, 72, 61
1, 83039, Note_on_c, 0, 78, 88
1, 83041, Note_on_c, 1, 42, 84
1, 83086, Note_off_c, 0, 78, 61
1, 83100, Note_on_c, 0, 74, 90
1, 83136, Note_off_c, 1, 42, 58
1, 83147, Note_off_c, 0, 74, 60
1, 83159, Note_on_c, 0, 72, 92
1, 83162, Note_on_c, 1, 50, 85
1, 83206, Note_off_c, 0, 72, 61
1, 83222, Note_on_c, 0, 66, 77
1, 83257, Note_off_c, 1, 50, 59
1, 83269, Note_off_c, 0, 66, 60
1, 83278, Note_on_c, 0, 74, 88
1, 83281, Note_on_c, 1, 42, 84
1, 83325, Note_off_c, 0, 74, 61
1, 83339, Note_on_c, 0, 72, 90
1, 83376, Note_off_c, 1, 42, 59
1, 83386, Note_off_c, 0, 72, 60
1, 83398, Note_on_c, 0, 66, 86
1, 83400, Note_on_c, 1, 50, 91
1, 83445, Note_off_c, 0, 66, 60
1, 83458, Note_on_c, 0, 62, 83
1, 83495, Note_off_c, 1, 50, 58
1, 83505, Note_off_c, 0, 62, 60
1, 83520, Note_on_c, 0, 72, 89
1, 83520, Note_on_c, 1, 42, 97
1, 83567, Note_off_c, 0, 72, 61
1, 83578, Note_on_c, 0, 66, 81
1, 83615, Note_off_c, 1, 42, 58
1, 83625, Note_off_c, 0, 66, 60
1, 83639, Note_on_c, 1, 50, 92
1, 83640, Note_on_c, 0, 62, 87
1, 83687, Note_off_c, 0, 62, 61
1, 83699, Note_on_c, 0, 60, 90
1, 83734, Note_off_c, 1, 50, 58
1, 83746, Note_off_c, 0, 60, 60
1, 83758, Note_on_c, 0, 62, 78
1, 83759, Note_on_c, 1, 55, 78
1, 83806, Note_off_c, 1, 55, 58
1, 83820, Note_on_c, 1, 62, 80
1, 83867, Note_off_c, 1, 62, 58
1, 83876, Note_off_c, 0, 62, 69
1, 83882, Note_on_c, 0, 62, 90
1, 83882, Note_on_c, 1, 59, 80
1, 83929, Note_off_c, 1, 59, 58
1, 83940, Note_on_c, 1, 62, 80
1, 83987, Note_off_c, 1, 62, 58
1, 83999, Note_on_c, 1, 55, 79
1, 84046, Note_off_c, 1, 55, 58
1, 84060, Note_on_c, 1, 62, 81
1, 84107, Note_off_c, 1, 62, 58
1, 84119, Note_off_c, 0, 62, 69
1, 84122, Note_on_c, 0, 62, 84
1, 84122, Note_on_c, 1, 59, 84
1, 84169, Note_off_c, 1, 59, 59
1, 84180, Note_on_c, 1, 62, 83
1, 84227, Note_off_c, 1, 62, 59
1, 84238, Note_on_c, 0, 64, 88
1, 84240, Note_off_c, 0, 62, 68
1, 84242, Note_on_c, 1, 55, 81
1, 84289, Note_off_c, 1, 55, 58
1, 84300, Note_on_c, 1, 64, 83
1, 84347, Note_off_c, 1, 64, 58
1, 84360, Note_on_c, 1, 59, 83
1, 84407, Note_off_c, 1, 59, 58
1, 84418, Note_on_c, 1, 64, 80
1, 84465, Note_off_c, 1, 64, 59
1, 84475, Note_off_c, 0, 64, 68
1, 84478, Note_on_c, 1, 55, 83
1, 84481, Note_on_c, 0, 62, 80
1, 84525, Note_off_c, 1, 55, 58
1, 84542, Note_on_c, 1, 62, 79
1, 84589, Note_off_c, 1, 62, 58
1, 84598, Note_on_c, 1, 59, 82
1, 84645, Note_off_c, 1, 59, 58
1, 84660, Note_on_c, 1, 62, 81
1, 84707, Note_off_c, 1, 62, 58
1, 84718, Note_off_c, 0, 62, 68
1, 84718, Note_on_c, 1, 55, 83
1, 84720, Note_on_c, 0, 69, 84
1, 84765, Note_off_c, 1, 55, 58
1, 84779, Note_on_c, 1, 60, 87
1, 84826, Note_off_c, 1, 60, 58
1, 84839, Note_on_c, 1, 57, 84
1, 84886, Note_off_c, 1, 57, 59
1, 84900, Note_on_c, 1, 60, 86
1, 84947, Note_off_c, 1, 60, 58
1, 84957, Note_off_c, 0, 69, 68
1, 84959, Note_on_c, 1, 55, 86
1, 84961, Note_on_c, 0, 67, 78
1, 85006, Note_off_c, 1, 55, 58
1, 85022, Note_on_c, 1, 62, 84
1, 85069, Note_off_c, 1, 62, 59
1, 85078, Note_on_c, 1, 59, 88
1, 85125, Note_off_c, 1, 59, 58
1, 85138, Note_on_c, 1, 62, 86
1, 85185, Note_off_c, 1, 62, 58
1, 85198, Note_off_c, 0, 67, 68
1, 85201, Note_on_c, 1, 55, 81
1, 85202, Note_on_c, 0, 67, 86
1, 85248, Note_off_c, 1, 55, 59
1, 85260, Note_on_c, 1, 62, 80
1, 85307, Note_off_c, 1, 62, 58
1, 85320, Note_on_c, 1, 59, 85
1, 85367, Note_off_c, 1, 59, 58
1, 85380, Note_on_c, 1, 62, 86
1, 85427, Note_off_c, 1, 62, 58
1, 85439, Note_off_c, 0, 67, 68
1, 85440, Note_on_c, 0, 67, 89
1, 85441, Note_on_c, 1, 55, 86
1, 85488, Note_off_c, 1, 55, 58
1, 85500, Note_on_c, 1, 62, 81
1, 85547, Note_off_c, 1, 62, 58
1, 85559, Note_on_c, 1, 59, 87
1, 85606, Note_off_c, 1, 59, 58
1, 85619, Note_on_c, 1, 62, 83
1, 85666, Note_off_c, 1, 62, 59
1, 85677, Note_off_c, 0, 67, 68
1, 85681, Note_on_c, 0, 67, 89
1, 85681, Note_on_c, 1, 55, 76
1, 85728, Note_off_c, 1, 55, 58
1, 85738, Note_on_c, 1, 62, 82
1, 85785, Note_off_c, 1, 62, 58
1, 85802, Note_on_c, 1, 60, 86
1, 85849, Note_off_c, 1, 60, 59
1, 85859, Note_on_c, 1, 62, 78
1, 85906, Note_off_c, 1, 62, 58
1, 85918, Note_off_c, 0, 67, 68
1, 85919, Note_on_c, 0, 67, 89
1, 85920, Note_on_c, 1, 55, 80
1, 85967, Note_off_c, 1, 55, 58
1, 85979, Note_on_c, 1, 62, 83
1, 86026, Note_off_c, 1, 62, 58
1, 86040, Note_on_c, 1, 60, 75
1, 86087, Note_off_c, 1, 60, 58
1, 86101, Note_on_c, 1, 62, 86
1, 86148, Note_off_c, 1, 62, 58
1, 86156, Note_off_c, 0, 67, 68
1, 86159, Note_on_c, 1, 55, 85
1, 86160, Note_on_c, 0, 67, 83
1, 86206, Note_off_c, 1, 55, 58
1, 86220, Note_on_c, 1, 62, 86
1, 86267, Note_off_c, 1, 62, 58
1, 86281, Note_on_c, 1, 60, 79
1, 86328, Note_off_c, 1, 60, 58
1, 86340, Note_on_c, 1, 62, 80
1, 86387, Note_off_c, 1, 62, 58
1, 86397, Note_off_c, 0, 67, 68
1, 86399, Note_on_c, 0, 69, 79
1, 86402, Note_on_c, 1, 55, 81
1, 86449, Note_off_c, 1, 55, 58
1, 86460, Note_on_c, 1, 60, 83
1, 86507, Note_off_c, 1, 60, 58
1, 86522, Note_on_c, 1, 57, 74
1, 86569, Note_off_c, 1, 57, 58
1, 86580, Note_on_c, 1, 60, 83
1, 86627, Note_off_c, 1, 60, 58
1, 86636, Note_off_c, 0, 69, 68
1, 86640, Note_on_c, 0, 71, 86
1, 86642, Note_on_c, 1, 55, 83
1, 86689, Note_off_c, 1, 55, 58
1, 86701, Note_on_c, 1, 62, 76
1, 86748, Note_off_c, 1, 62, 58
1, 86760, Note_on_c, 1, 59, 85
1, 86807, Note_off_c, 1, 59, 58
1, 86819, Note_on_c, 1, 62, 79
1, 86866, Note_off_c, 1, 62, 58
1, 86877, Note_off_c, 0, 71, 68
1, 86878, Note_on_c, 0, 69, 86
1, 86879, Note_on_c, 1, 55, 86
1, 86926, Note_off_c, 1, 55, 58
1, 86941, Note_on_c, 1, 62, 80
1, 86988, Note_off_c, 1, 62, 59
1, 86999, Note_on_c, 1, 57, 84
1, 87046, Note_off_c, 1, 57, 58
1, 87061, Note_on_c, 1, 62, 84
1, 87108, Note_off_c, 1, 62, 58
1, 87115, Note_off_c, 0, 69, 68
1, 87119, Note_on_c, 1, 55, 85
1, 87120, Note_on_c, 0, 67, 79
1, 87166, Note_off_c, 1, 55, 58
1, 87181, Note_on_c, 1, 62, 83
1, 87228, Note_off_c, 1, 62, 58
1, 87242, Note_on_c, 1, 59, 82
1, 87289, Note_off_c, 1, 59, 58
1, 87300, Note_on_c, 1, 64, 72
1, 87347, Note_off_c, 1, 64, 58
1, 87357, Note_off_c, 0, 67, 68
1, 87359, Note_on_c, 1, 55, 89
1, 87362, Note_on_c, 0, 64, 89
1, 87406, Note_off_c, 1, 55, 59
1, 87419, Note_on_c, 1, 64, 83
1, 87466, Note_off_c, 1, 64, 58
1, 87479, Note_on_c, 1, 60, 86
1, 87526, Note_off_c, 1, 60, 58
1, 87538, Note_on_c, 1, 64, 84
1, 87585, Note_off_c, 1, 64, 58
1, 87599, Note_off_c, 0, 64, 68
1, 87599, Note_on_c, 0, 64, 87
1, 87599, Note_on_c, 1, 55, 78
1, 87646, Note_off_c, 1, 55, 58
1, 87662, Note_on_c, 1, 64, 81
1, 87709, Note_off_c, 1, 64, 58
1, 87718, Note_on_c, 1, 60, 86
1, 87765, Note_off_c, 1, 60, 58
1, 87782, Note_on_c, 1, 64, 84
1, 87829, Note_off_c, 1, 64, 58
1, 87836, Note_off_c, 0, 64, 68
1, 87841, Note_on_c, 0, 66, 82
1, 87841, Note_on_c, 1, 54, 80
1, 87888, Note_off_c, 1, 54, 58
1, 87900, Note_on_c, 1, 64, 82
1, 87947, Note_off_c, 1, 64, 58
1, 87959, Note_on_c, 1, 60, 81
1, 88006, Note_off_c, 1, 60, 58
1, 88021, Note_on_c, 1, 64, 84
1, 88068, Note_off_c, 1, 64, 58
1, 88078, Note_off_c, 0, 66, 68
1, 88080, Note_on_c, 0, 67, 81
1, 88080, Note_on_c, 1, 55, 84
1, 88127, Note_off_c, 1, 55, 59
1, 88140, Note_on_c, 1, 64, 80
1, 88187, Note_off_c, 1, 64, 58
1, 88198, Note_on_c, 1, 60, 71
1, 88245, Note_off_c, 1, 60, 58
1, 88262, Note_on_c, 1, 64, 86
1, 88309, Note_off_c, 1, 64, 58
1, 88317, Note_off_c, 0, 67, 68
1, 88318, Note_on_c, 1, 54, 82
1, 88322, Note_on_c, 0, 57, 82
1, 88365, Note_off_c, 1, 54, 58
1, 88380, Note_on_c, 1, 60, 80
1, 88427, Note_off_c, 1, 60, 59
1, 88439, Note_on_c, 1, 57, 81
1, 88486, Note_off_c, 1, 57, 59
1, 88502, Note_on_c, 1, 60, 83
1, 88549, Note_off_c, 1, 60, 58
1, 88558, Note_on_c, 1, 54, 90
1, 88559, Note_off_c, 0, 57, 69
1, 88560, Note_on_c, 0, 69, 77
1, 88605, Note_off_c, 1, 54, 58
1, 88620, Note_on_c, 1, 57, 85
1, 88667, Note_off_c, 1, 57, 58
1, 88681, Note_on_c, 1, 55, 88
1, 88728, Note_off_c, 1, 55, 59
1, 88742, Note_on_c, 1, 57, 86
1, 88789, Note_off_c, 1, 57, 58
1, 88797, Note_off_c, 0, 69, 68
1, 88798, Note_on_c, 0, 67, 83
1, 88798, Note_on_c, 1, 54, 78
1, 88845, Note_off_c, 1, 54, 58
1, 88860, Note_on_c, 1, 60, 85
1, 88907, Note_off_c, 1, 60, 58
1, 88918, Note_on_c, 1, 54, 82
1, 88965, Note_off_c, 1, 54, 58
1, 88979, Note_on_c, 1, 57, 86
1, 89026, Note_off_c, 1, 57, 58
1, 89035, Note_off_c, 0, 67, 68
1, 89040, Note_on_c, 0, 72, 77
1, 89040, Note_on_c, 1, 55, 84
1, 89087, Note_off_c, 1, 55, 58
1, 89098, Note_on_c, 1, 62, 87
1, 89145, Note_off_c, 1, 62, 58
1, 89160, Note_on_c, 1, 59, 84
1, 89207, Note_off_c, 1, 59, 58
1, 89219, Note_on_c, 1, 62, 87
1, 89266, Note_off_c, 1, 62, 59
1, 89277, Note_off_c, 0, 72, 68
1, 89279, Note_on_c, 1, 55, 74
1, 89280, Note_on_c, 0, 74, 78
1, 89326, Note_off_c, 1, 55, 59
1, 89338, Note_on_c, 1, 62, 82
1, 89385, Note_off_c, 1, 62, 58
1, 89399, Note_on_c, 1, 59, 80
1, 89446, Note_off_c, 1, 59, 58
1, 89461, Note_on_c, 1, 62, 86
1, 89508, Note_off_c, 1, 62, 58
1, 89517, Note_off_c, 0, 74, 68
1, 89521, Note_on_c, 1, 56, 78
1, 89522, Note_on_c, 0, 75, 78
1, 89568, Note_off_c, 1, 56, 59
1, 89582, Note_on_c, 1, 63, 76
1, 89629, Note_off_c, 1, 63, 59
1, 89640, Note_on_c, 1, 60, 76
1, 89687, Note_off_c, 1, 60, 58
1, 89699, Note_on_c, 1, 63, 75
1, 89746, Note_off_c, 1, 63, 59
1, 89762, Note_on_c, 1, 56, 76
1, 89809, Note_off_c, 1, 56, 58
1, 89820, Note_on_c, 1, 63, 75
1, 89867, Note_off_c, 1, 63, 59
1, 89878, Note_off_c, 0, 75, 68
1, 89879, Note_on_c, 1, 60, 73
1, 89881, Note_on_c, 0, 75, 79
1, 89926, Note_off_c, 1, 60, 58
1, 89939, Note_on_c, 1, 63, 75
1, 89986, Note_off_c, 1, 63, 58
1, 89999, Note_off_c, 0, 75, 68
1, 89999, Note_on_c, 1, 56, 75
1, 90002, Note_on_c, 0, 75, 75
1, 90046, Note_off_c, 1, 56, 58
1, 90058, Note_on_c, 1, 63, 75
1, 90105, Note_off_c, 1, 63, 58
1, 90121, Note_on_c, 1, 60, 78
1, 90168, Note_off_c, 1, 60, 58
1, 90182, Note_on_c, 1, 63, 77
1, 90229, Note_off_c, 1, 63, 58
1, 90239, Note_off_c, 0, 75, 68
1, 90241, Note_on_c, 0, 75, 75
1, 90242, Note_on_c, 1, 56, 76
1, 90289, Note_off_c, 1, 56, 58
1, 90298, Note_on_c, 1, 63, 75
1, 90345, Note_off_c, 1, 63, 58
1, 90358, Note_on_c, 1, 60, 75
1, 90405, Note_off_c, 1, 60, 59
1, 90421, Note_on_c, 1, 63, 79
1, 90468, Note_off_c, 1, 63, 58
1, 90478, Note_off_c, 0, 75, 68
1, 90479, Note_on_c, 1, 56, 74
1, 90482, Note_on_c, 0, 77, 75
1, 90526, Note_off_c, 1, 56, 58
1, 90538, Note_on_c, 1, 63, 76
1, 90585, Note_off_c, 1, 63, 58
1, 90602, Note_on_c, 1, 60, 79
1, 90649, Note_off_c, 1, 60, 58
1, 90661, Note_on_c, 1, 63, 73
1, 90708, Note_off_c, 1, 63, 59
1, 90719, Note_off_c, 0, 77, 68
1, 90719, Note_on_c, 1, 56, 75
1, 90721, Note_on_c, 0, 75, 75
1, 90766, Note_off_c, 1, 56, 58
1, 90779, Note_on_c, 1, 63, 75
1, 90826, Note_off_c, 1, 63, 58
1, 90840, Note_on_c, 1, 60, 77
1, 90887, Note_off_c, 1, 60, 58
1, 90900, Note_on_c, 1, 63, 76
1, 90947, Note_off_c, 1, 63, 58
1, 90958, Note_off_c, 0, 75, 68
1, 90958, Note_on_c, 0, 75, 77
1, 90960, Note_on_c, 1, 56, 76
1, 91007, Note_off_c, 1, 56, 58
1, 91021, Note_on_c, 1, 63, 75
1, 91068, Note_off_c, 1, 63, 59
1, 91079, Note_on_c, 1, 60, 76
1, 91126, Note_off_c, 1, 60, 58
1, 91138, Note_on_c, 1, 63, 75
1, 91185, Note_off_c, 1, 63, 58
1, 91198, Note_on_c, 1, 56, 76
1, 91245, Note_off_c, 1, 56, 59
1, 91258, Note_on_c, 1, 63, 78
1, 91305, Note_off_c, 1, 63, 58
1, 91314, Note_off_c, 0, 75, 68
1, 91318, Note_on_c, 0, 75, 74
1, 91318, Note_on_c, 1, 60, 78
1, 91365, Note_off_c, 1, 60, 58
1, 91381, Note_on_c, 1, 63, 76
1, 91428, Note_off_c, 1, 63, 58
1, 91436, Note_off_c, 0, 75, 68
1, 91439, Note_on_c, 1, 55, 74
1, 91440, Note_on_c, 0, 75, 75
1, 91486, Note_off_c, 1, 55, 59
1, 91502, Note_on_c, 1, 61, 73
1, 91549, Note_off_c, 1, 61, 59
1, 91560, Note_on_c, 1, 58, 79
1, 91607, Note_off_c, 1, 58, 58
1, 91621, Note_on_c, 1, 61, 78
1, 91668, Note_off_c, 1, 61, 58
1, 91677, Note_off_c, 0, 75, 68
1, 91680, Note_on_c, 1, 55, 79
1, 91682, Note_on_c, 0, 75, 79
1, 91727, Note_off_c, 1, 55, 58
1, 91742, Note_on_c, 1, 61, 74
1, 91789, Note_off_c, 1, 61, 58
1, 91800, Note_on_c, 1, 58, 76
1, 91847, Note_off_c, 1, 58, 58
1, 91860, Note_on_c, 1, 61, 79
1, 91907, Note_off_c, 1, 61, 58
1, 91919, Note_off_c, 0, 75, 68
1, 91920, Note_on_c, 1, 55, 73
1, 91922, Note_on_c, 0, 77, 78
1, 91967, Note_off_c, 1, 55, 58
1, 91978, Note_on_c, 1, 61, 75
1, 92025, Note_off_c, 1, 61, 58
1, 92042, Note_on_c, 1, 58, 75
1, 92089, Note_off_c, 1, 58, 59
1, 92102, Note_on_c, 1, 61, 75
1, 92149, Note_off_c, 1, 61, 58
1, 92158, Note_on_c, 0, 75, 77
1, 92159, Note_off_c, 0, 77, 69
1, 92162, Note_on_c, 1, 55, 73
1, 92209, Note_off_c, 1, 55, 58
1, 92221, Note_on_c, 1, 61, 78
1, 92268, Note_off_c, 1, 61, 58
1, 92278, Note_on_c, 1, 58, 77
1, 92325, Note_off_c, 1, 58, 59
1, 92340, Note_on_c, 1, 61, 77
1, 92387, Note_off_c, 1, 61, 58
1, 92395, Note_off_c, 0, 75, 68
1, 92400, Note_on_c, 0, 82, 74
1, 92401, Note_on_c, 1, 56, 76
1, 92448, Note_off_c, 1, 56, 58
1, 92459, Note_on_c, 1, 63, 75
1, 92506, Note_off_c, 1, 63, 58
1, 92518, Note_on_c, 1, 60, 73
1, 92565, Note_off_c, 1, 60, 58
1, 92578, Note_on_c, 1, 63, 76
1, 92625, Note_off_c, 1, 63, 58
1, 92639, Note_on_c, 1, 56, 76
1, 92686, Note_off_c, 1, 56, 58
1, 92698, Note_on_c, 1, 63, 76
1, 92745, Note_off_c, 1, 63, 58
1, 92756, Note_off_c, 0, 82, 68
1, 92761, Note_on_c, 0, 80, 76
1, 92761, Note_on_c, 1, 60, 77
1, 92808, Note_off_c, 1, 60, 59
1, 92819, Note_on_c, 1, 63, 75
1, 92866, Note_off_c, 1, 63, 58
1, 92879, Note_off_c, 0, 80, 68
1, 92880, Note_on_c, 0, 80, 80
1, 92880, Note_on_c, 1, 56, 78
1, 92927, Note_off_c, 1, 56, 58
1, 92938, Note_on_c, 1, 64, 76
1, 92985, Note_off_c, 1, 64, 58
1, 92999, Note_on_c, 1, 60, 75
1, 93046, Note_off_c, 1, 60, 58
1, 93061, Note_on_c, 1, 64, 74
1, 93108, Note_off_c, 1, 64, 58
1, 93117, Note_off_c, 0, 80, 68
1, 93119, Note_on_c, 1, 56, 79
1, 93122, Note_on_c, 0, 80, 80
1, 93166, Note_off_c, 1, 56, 58
1, 93182, Note_on_c, 1, 64, 79
1, 93229, Note_off_c, 1, 64, 58
1, 93241, Note_on_c, 1, 60, 80
1, 93288, Note_off_c, 1, 60, 58
1, 93298, Note_on_c, 1, 64, 79
1, 93345, Note_off_c, 1, 64, 58
1, 93359, Note_off_c, 0, 80, 69
1, 93361, Note_on_c, 0, 80, 78
1, 93361, Note_on_c, 1, 56, 76
1, 93408, Note_off_c, 1, 56, 58
1, 93420, Note_on_c, 1, 65, 81
1, 93467, Note_off_c, 1, 65, 58
1, 93479, Note_on_c, 1, 61, 78
1, 93526, Note_off_c, 1, 61, 58
1, 93538, Note_on_c, 1, 65, 80
1, 93585, Note_off_c, 1, 65, 58
1, 93601, Note_on_c, 1, 56, 77
1, 93648, Note_off_c, 1, 56, 58
1, 93662, Note_on_c, 1, 65, 76
1, 93709, Note_off_c, 1, 65, 58
1, 93717, Note_off_c, 0, 80, 68
1, 93720, Note_on_c, 0, 80, 76
1, 93722, Note_on_c, 1, 61, 80
1, 93769, Note_off_c, 1, 61, 59
1, 93780, Note_on_c, 1, 65, 77
1, 93827, Note_off_c, 1, 65, 58
1, 93838, Note_off_c, 0, 80, 68
1, 93841, Note_on_c, 1, 56, 81
1, 93842, Note_on_c, 0, 80, 77
1, 93888, Note_off_c, 1, 56, 58
1, 93902, Note_on_c, 1, 65, 81
1, 93949, Note_off_c, 1, 65, 58
1, 93958, Note_on_c, 1, 61, 80
1, 94005, Note_off_c, 1, 61, 58
1, 94019, Note_on_c, 1, 65, 77
1, 94066, Note_off_c, 1, 65, 58
1, 94079, Note_off_c, 0, 80, 68
1, 94081, Note_on_c, 1, 56, 82
1, 94082, Note_on_c, 0, 82, 77
1, 94128, Note_off_c, 1, 56, 58
1, 94138, Note_on_c, 1, 65, 77
1, 94185, Note_off_c, 1, 65, 58
1, 94198, Note_on_c, 1, 58, 77
1, 94245, Note_off_c, 1, 58, 58
1, 94259, Note_on_c, 1, 65, 77
1, 94306, Note_off_c, 1, 65, 58
1, 94319, Note_off_c, 0, 82, 68
1, 94319, Note_on_c, 1, 55, 77
1, 94321, Note_on_c, 0, 84, 78
1, 94366, Note_off_c, 1, 55, 58
1, 94382, Note_on_c, 1, 65, 82
1, 94429, Note_off_c, 1, 65, 59
1, 94440, Note_on_c, 1, 60, 81
1, 94487, Note_off_c, 1, 60, 58
1, 94498, Note_on_c, 1, 65, 80
1, 94545, Note_off_c, 1, 65, 58
1, 94560, Note_on_c, 1, 55, 83
1, 94607, Note_off_c, 1, 55, 58
1, 94621, Note_on_c, 1, 64, 80
1, 94668, Note_off_c, 1, 64, 58
1, 94677, Note_off_c, 0, 84, 68
1, 94681, Note_on_c, 1, 60, 79
1, 94682, Note_on_c, 0, 82, 78
1, 94728, Note_off_c, 1, 60, 58
1, 94740, Note_on_c, 1, 64, 78
1, 94787, Note_off_c, 1, 64, 58
1, 94799, Note_on_c, 1, 56, 82
1, 94800, Note_off_c, 0, 82, 68
1, 94802, Note_on_c, 0, 80, 82
1, 94846, Note_off_c, 1, 56, 58
1, 94862, Note_on_c, 1, 65, 81
1, 94909, Note_off_c, 1, 65, 58
1, 94918, Note_on_c, 1, 60, 81
1, 94965, Note_off_c, 1, 60, 58
1, 94981, Note_on_c, 1, 65, 80
1, 95028, Note_off_c, 1, 65, 58
1, 95039, Note_off_c, 0, 80, 68
1, 95040, Note_on_c, 1, 59, 84
1, 95042, Note_on_c, 0, 77, 78
1, 95087, Note_off_c, 1, 59, 58
1, 95100, Note_on_c, 1, 65, 83
1, 95147, Note_off_c, 1, 65, 58
1, 95161, Note_on_c, 1, 53, 83
1, 95208, Note_off_c, 1, 53, 58
1, 95218, Note_on_c, 1, 63, 81
1, 95265, Note_off_c, 1, 63, 58
1, 95279, Note_off_c, 0, 77, 68
1, 95281, Note_on_c, 0, 77, 82
1, 95282, Note_on_c, 1, 53, 82
1, 95329, Note_off_c, 1, 53, 58
1, 95340, Note_on_c, 1, 63, 80
1, 95387, Note_off_c, 1, 63, 58
1, 95398, Note_on_c, 1, 56, 82
1, 95445, Note_off_c, 1, 56, 59
1, 95461, Note_on_c, 1, 63, 81
1, 95508, Note_off_c, 1, 63, 58
1, 95520, Note_on_c, 1, 53, 85
1, 95567, Note_off_c, 1, 53, 58
1, 95578, Note_on_c, 1, 63, 83
1, 95625, Note_off_c, 1, 63, 58
1, 95637, Note_off_c, 0, 77, 69
1, 95639, Note_on_c, 0, 79, 81
1, 95640, Note_on_c, 1, 56, 79
1, 95687, Note_off_c, 1, 56, 58
1, 95700, Note_on_c, 1, 63, 79
1, 95747, Note_off_c, 1, 63, 58
1, 95757, Note_off_c, 0, 79, 68
1, 95759, Note_on_c, 0, 80, 85
1, 95762, Note_on_c, 1, 53, 84
1, 95809, Note_off_c, 1, 53, 58
1, 95818, Note_on_c, 1, 62, 83
1, 95865, Note_off_c, 1, 62, 58
1, 95881, Note_on_c, 1, 56, 80
1, 95928, Note_off_c, 1, 56, 58
1, 95942, Note_on_c, 1, 62, 81
1, 95989, Note_off_c, 1, 62, 58
1, 95996, Note_off_c, 0, 80, 68
1, 96001, Note_on_c, 0, 70, 82
1, 96001, Note_on_c, 1, 53, 80
1, 96048, Note_off_c, 1, 53, 58
1, 96059, Note_on_c, 1, 62, 83
1, 96106, Note_off_c, 1, 62, 58
1, 96118, Note_on_c, 1, 56, 86
1, 96165, Note_off_c, 1, 56, 58
1, 96178, Note_on_c, 1, 62, 86
1, 96225, Note_off_c, 1, 62, 58
1, 96238, Note_off_c, 0, 70, 68
1, 96238, Note_on_c, 1, 51, 80
1, 96239, Note_on_c, 0, 70, 82
1, 96285, Note_off_c, 1, 51, 59
1, 96302, Note_on_c, 1, 61, 83
1, 96349, Note_off_c, 1, 61, 58
1, 96361, Note_on_c, 1, 58, 82
1, 96408, Note_off_c, 1, 58, 58
1, 96418, Note_on_c, 1, 61, 81
1, 96465, Note_off_c, 1, 61, 58
1, 96476, Note_off_c, 0, 70, 69
1, 96480, Note_on_c, 0, 68, 85
1, 96482, Note_on_c, 1, 56, 85
1, 96529, Note_off_c, 1, 56, 58
1, 96540, Note_on_c, 1, 63, 82
1, 96587, Note_off_c, 1, 63, 58
1, 96602, Note_on_c, 1, 58, 80
1, 96649, Note_off_c, 1, 58, 58
1, 96660, Note_on_c, 1, 63, 83
1, 96707, Note_off_c, 1, 63, 58
1, 96717, Note_off_c, 0, 68, 68
1, 96719, Note_on_c, 0, 73, 83
1, 96721, Note_on_c, 1, 55, 82
1, 96768, Note_off_c, 1, 55, 58
1, 96779, Note_on_c, 1, 63, 85
1, 96826, Note_off_c, 1, 63, 58
1, 96839, Note_on_c, 1, 58, 86
1, 96886, Note_off_c, 1, 58, 58
1, 96898, Note_on_c, 1, 63, 81
1, 96945, Note_off_c, 1, 63, 59
1, 96959, Note_on_c, 1, 55, 82
1, 97006, Note_off_c, 1, 55, 58
1, 97019, Note_on_c, 1, 63, 84
1, 97066, Note_off_c, 1, 63, 58
1, 97075, Note_off_c, 0, 73, 68
1, 97078, Note_on_c, 1, 58, 87
1, 97081, Note_on_c, 0, 63, 82
1, 97125, Note_off_c, 1, 58, 58
1, 97141, Note_on_c, 1, 63, 81
1, 97188, Note_off_c, 1, 63, 58
1, 97199, Note_off_c, 0, 63, 68
1, 97201, Note_on_c, 0, 75, 86
1, 97202, Note_on_c, 1, 56, 82
1, 97249, Note_off_c, 1, 56, 58
1, 97258, Note_on_c, 0, 77, 85
1, 97258, Note_on_c, 1, 63, 84
1, 97260, Note_off_c, 0, 75, 61
1, 97305, Note_off_c, 1, 63, 58
1, 97317, Note_off_c, 0, 77, 61
1, 97319, Note_on_c, 1, 60, 81
1, 97320, Note_on_c, 0, 79, 84
1, 97366, Note_off_c, 1, 60, 58
1, 97379, Note_off_c, 0, 79, 61
1, 97379, Note_on_c, 0, 80, 81
1, 97382, Note_on_c, 1, 63, 85
1, 97429, Note_off_c, 1, 63, 58
1, 97438, Note_off_c, 0, 80, 61
1, 97438, Note_on_c, 1, 56, 82
1, 97442, Note_on_c, 0, 79, 88
1, 97485, Note_off_c, 1, 56, 58
1, 97501, Note_off_c, 0, 79, 61
1, 97501, Note_on_c, 1, 63, 86
1, 97502, Note_on_c, 0, 80, 83
1, 97548, Note_off_c, 1, 63, 59
1, 97561, Note_off_c, 0, 80, 61
1, 97561, Note_on_c, 1, 60, 85
1, 97562, Note_on_c, 0, 82, 88
1, 97608, Note_off_c, 1, 60, 58
1, 97618, Note_on_c, 0, 84, 86
1, 97618, Note_on_c, 1, 63, 86
1, 97621, Note_off_c, 0, 82, 61
1, 97665, Note_off_c, 1, 63, 58
1, 97677, Note_off_c, 0, 84, 61
1, 97678, Note_on_c, 0, 82, 84
1, 97680, Note_on_c, 1, 56, 84
1, 97727, Note_off_c, 1, 56, 58
1, 97737, Note_off_c, 0, 82, 61
1, 97740, Note_on_c, 0, 84, 82
1, 97740, Note_on_c, 1, 63, 87
1, 97787, Note_off_c, 1, 63, 59
1, 97799, Note_off_c, 0, 84, 61
1, 97799, Note_on_c, 1, 60, 82
1, 97801, Note_on_c, 0, 85, 83
1, 97846, Note_off_c, 1, 60, 58
1, 97859, Note_on_c, 0, 87, 85
1, 97860, Note_off_c, 0, 85, 61
1, 97862, Note_on_c, 1, 63, 88
1, 97909, Note_off_c, 1, 63, 59
1, 97918, Note_off_c, 0, 87, 60
1, 97918, Note_on_c, 1, 56, 89
1, 97920, Note_on_c, 0, 85, 85
1, 97965, Note_off_c, 1, 56, 58
1, 97979, Note_off_c, 0, 85, 61
1, 97981, Note_on_c, 0, 87, 89
1, 97982, Note_on_c, 1, 63, 85
1, 98029, Note_off_c, 1, 63, 58
1, 98040, Note_off_c, 0, 87, 61
1, 98040, Note_on_c, 0, 89, 88
1, 98040, Note_on_c, 1, 60, 83
1, 98087, Note_off_c, 1, 60, 58
1, 98099, Note_off_c, 0, 89, 60
1, 98100, Note_on_c, 0, 91, 85
1, 98101, Note_on_c, 1, 63, 83
1, 98148, Note_off_c, 1, 63, 58
1, 98158, Note_on_c, 1, 56, 89
1, 98159, Note_off_c, 0, 91, 61
1, 98160, Note_on_c, 0, 77, 86
1, 98205, Note_off_c, 1, 56, 59
1, 98221, Note_on_c, 1, 63, 88
1, 98268, Note_off_c, 1, 63, 58
1, 98280, Note_on_c, 1, 60, 89
1, 98327, Note_off_c, 1, 60, 58
1, 98341, Note_on_c, 1, 63, 85
1, 98388, Note_off_c, 1, 63, 58
1, 98397, Note_off_c, 0, 77, 69
1, 98398, Note_on_c, 0, 75, 90
1, 98400, Note_on_c, 1, 56, 86
1, 98447, Note_off_c, 1, 56, 58
1, 98459, Note_on_c, 1, 63, 86
1, 98506, Note_off_c, 1, 63, 58
1, 98519, Note_on_c, 1, 60, 85
1, 98566, Note_off_c, 1, 60, 59
1, 98581, Note_on_c, 1, 63, 86
1, 98628, Note_off_c, 1, 63, 58
1, 98635, Note_off_c, 0, 75, 69
1, 98639, Note_on_c, 1, 56, 85
1, 98640, Note_on_c, 0, 75, 89
1, 98686, Note_off_c, 1, 56, 58
1, 98698, Note_on_c, 1, 63, 86
1, 98745, Note_off_c, 1, 63, 58
1, 98758, Note_on_c, 1, 60, 88
1, 98805, Note_off_c, 1, 60, 58
1, 98818, Note_on_c, 1, 63, 84
1, 98865, Note_off_c, 1, 63, 59
1, 98877, Note_off_c, 0, 75, 68
1, 98880, Note_on_c, 1, 56, 88
1, 98881, Note_on_c, 0, 75, 88
1, 98927, Note_off_c, 1, 56, 58
1, 98940, Note_on_c, 1, 63, 87
1, 98987, Note_off_c, 1, 63, 58
1, 98999, Note_on_c, 1, 60, 86
1, 99046, Note_off_c, 1, 60, 58
1, 99060, Note_on_c, 1, 63, 86
1, 99107, Note_off_c, 1, 63, 59
1, 99118, Note_off_c, 0, 75, 69
1, 99119, Note_on_c, 0, 75, 85
1, 99122, Note_on_c, 1, 55, 87
1, 99169, Note_off_c, 1, 55, 58
1, 99178, Note_off_c, 0, 75, 61
1, 99178, Note_on_c, 1, 61, 85
1, 99182, Note_on_c, 0, 77, 89
1, 99225, Note_off_c, 1, 61, 58
1, 99239, Note_on_c, 1, 58, 85
1, 99241, Note_off_c, 0, 77, 61
1, 99242, Note_on_c, 0, 79, 86
1, 99286, Note_off_c, 1, 58, 58
1, 99298, Note_on_c, 1, 61, 86
1, 99299, Note_on_c, 0, 80, 85
1, 99301, Note_off_c, 0, 79, 61
1, 99345, Note_off_c, 1, 61, 58
1, 99358, Note_off_c, 0, 80, 61
1, 99358, Note_on_c, 1, 55, 88
1, 99362, Note_on_c, 0, 79, 88
1, 99405, Note_off_c, 1, 55, 58
1, 99418, Note_on_c, 1, 61, 87
1, 99421, Note_off_c, 0, 79, 61
1, 99421, Note_on_c, 0, 80, 89
1, 99465, Note_off_c, 1, 61, 58
1, 99478, Note_on_c, 0, 82, 91
1, 99478, Note_on_c, 1, 58, 88
1, 99480, Note_off_c, 0, 80, 61
1, 99525, Note_off_c, 1, 58, 58
1, 99537, Note_off_c, 0, 82, 60
1, 99539, Note_on_c, 0, 84, 87
1, 99542, Note_on_c, 1, 61, 86
1, 99589, Note_off_c, 1, 61, 58
1, 99598, Note_off_c, 0, 84, 61
1, 99599, Note_on_c, 1, 55, 88
1, 99600, Note_on_c, 0, 82, 87
1, 99646, Note_off_c, 1, 55, 58
1, 99658, Note_on_c, 1, 61, 89
1, 99659, Note_off_c, 0, 82, 61
1, 99659, Note_on_c, 0, 84, 85
1, 99705, Note_off_c, 1, 61, 58
1, 99718, Note_off_c, 0, 84, 61
1, 99721, Note_on_c, 1, 58, 85
1, 99722, Note_on_c, 0, 85, 88
1, 99768, Note_off_c, 1, 58, 59
1, 99778, Note_on_c, 0, 87, 89
1, 99780, Note_on_c, 1, 61, 88
1, 99781, Note_off_c, 0, 85, 61
1, 99827, Note_off_c, 1, 61, 59
1, 99837, Note_off_c, 0, 87, 61
1, 99841, Note_on_c, 0, 85, 88
1, 99841, Note_on_c, 1, 55, 89
1, 99888, Note_off_c, 1, 55, 58
1, 99900, Note_off_c, 0, 85, 60
1, 99900, Note_on_c, 1, 61, 92
1, 99901, Note_on_c, 0, 87, 89
1, 99947, Note_off_c, 1, 61, 58
1, 99960, Note_off_c, 0, 87, 61
1, 99960, Note_on_c, 1, 58, 90
1, 99961, Note_on_c, 0, 89, 91
1, 100007, Note_off_c, 1, 58, 58
1, 100019, Note_on_c, 0, 91, 90
1, 100020, Note_off_c, 0, 89, 61
1, 100021, Note_on_c, 1, 61, 91
1, 100068, Note_off_c, 1, 61, 59
1, 100078, Note_off_c, 0, 91, 61
1, 100080, Note_on_c, 0, 82, 89
1, 100082, Note_on_c, 1, 56, 90
1, 100129, Note_off_c, 1, 56, 58
1, 100141, Note_on_c, 1, 63, 86
1, 100188, Note_off_c, 1, 63, 59
1, 100201, Note_on_c, 1, 60, 87
1, 100248, Note_off_c, 1, 60, 58
1, 100261, Note_on_c, 1, 63, 88
1, 100270, Note_off_c, 0, 82, 68
1, 100308, Note_off_c, 1, 63, 58
1, 100320, Note_on_c, 0, 80, 87
1, 100321, Note_on_c, 1, 56, 92
1, 100368, Note_off_c, 1, 56, 58
1, 100378, Note_on_c, 1, 63, 92
1, 100425, Note_off_c, 1, 63, 58
1, 100439, Note_on_c, 1, 60, 87
1, 100486, Note_off_c, 1, 60, 58
1, 100498, Note_on_c, 1, 63, 91
1, 100510, Note_off_c, 0, 80, 68
1, 100545, Note_off_c, 1, 63, 58
1, 100560, Note_on_c, 0, 80, 89
1, 100562, Note_on_c, 1, 56, 91
1, 100609, Note_off_c, 1, 56, 58
1, 100621, Note_on_c, 1, 64, 88
1, 100668, Note_off_c, 1, 64, 58
1, 100681, Note_on_c, 1, 60, 93
1, 100728, Note_off_c, 1, 60, 58
1, 100738, Note_on_c, 1, 64, 92
1, 100750, Note_off_c, 0, 80, 69
1, 100785, Note_off_c, 1, 64, 58
1, 100800, Note_on_c, 1, 56, 88
1, 100802, Note_on_c, 0, 80, 90
1, 100847, Note_off_c, 1, 56, 58
1, 100861, Note_on_c, 1, 64, 88
1, 100908, Note_off_c, 1, 64, 58
1, 100918, Note_on_c, 1, 60, 93
1, 100965, Note_off_c, 1, 60, 58
1, 100979, Note_on_c, 1, 64, 91
1, 100992, Note_off_c, 0, 80, 68
1, 101026, Note_off_c, 1, 64, 59
1, 101039, Note_on_c, 1, 56, 91
1, 101042, Note_on_c, 0, 80, 91
1, 101086, Note_off_c, 1, 56, 59
1, 101100, Note_on_c, 0, 82, 90
1, 101101, Note_off_c, 0, 80, 61
1, 101102, Note_on_c, 1, 65, 93
1, 101149, Note_off_c, 1, 65, 58
1, 101159, Note_off_c, 0, 82, 61
1, 101159, Note_on_c, 0, 84, 92
1, 101160, Note_on_c, 1, 61, 91
1, 101207, Note_off_c, 1, 61, 58
1, 101218, Note_off_c, 0, 84, 60
1, 101218, Note_on_c, 0, 85, 92
1, 101220, Note_on_c, 1, 65, 94
1, 101267, Note_off_c, 1, 65, 58
1, 101277, Note_off_c, 0, 85, 60
1, 101278, Note_on_c, 0, 84, 91
1, 101280, Note_on_c, 1, 56, 92
1, 101327, Note_off_c, 1, 56, 58
1, 101337, Note_off_c, 0, 84, 61
1, 101342, Note_on_c, 0, 85, 94
1, 101342, Note_on_c, 1, 65, 93
1, 101389, Note_off_c, 1, 65, 58
1, 101400, Note_on_c, 1, 61, 92
1, 101401, Note_off_c, 0, 85, 61
1, 101402, Note_on_c, 0, 87, 91
1, 101447, Note_off_c, 1, 61, 58
1, 101458, Note_on_c, 1, 65, 88
1, 101460, Note_on_c, 0, 89, 91
1, 101461, Note_off_c, 0, 87, 61
1, 101505, Note_off_c, 1, 65, 59
1, 101519, Note_off_c, 0, 89, 61
1, 101519, Note_on_c, 0, 87, 88
1, 101521, Note_on_c, 1, 56, 89
1, 101568, Note_off_c, 1, 56, 58
1, 101578, Note_off_c, 0, 87, 61
1, 101579, Note_on_c, 0, 89, 89
1, 101581, Note_on_c, 1, 65, 90
1, 101628, Note_off_c, 1, 65, 58
1, 101638, Note_off_c, 0, 89, 61
1, 101640, Note_on_c, 0, 91, 94
1, 101641, Note_on_c, 1, 61, 90
1, 101688, Note_off_c, 1, 61, 58
1, 101699, Note_off_c, 0, 91, 61
1, 101702, Note_on_c, 0, 92, 94
1, 101702, Note_on_c, 1, 65, 91
1, 101749, Note_off_c, 1, 65, 58
1, 101760, Note_on_c, 0, 91, 95
1, 101760, Note_on_c, 1, 55, 89
1, 101761, Note_off_c, 0, 92, 60
1, 101807, Note_off_c, 1, 55, 58
1, 101818, Note_on_c, 1, 65, 93
1, 101819, Note_off_c, 0, 91, 60
1, 101819, Note_on_c, 0, 92, 89
1, 101865, Note_off_c, 1, 65, 59
1, 101878, Note_off_c, 0, 92, 61
1, 101880, Note_on_c, 0, 94, 89
1, 101882, Note_on_c, 1, 55, 94
1, 101929, Note_off_c, 1, 55, 59
1, 101939, Note_off_c, 0, 94, 61
1, 101939, Note_on_c, 0, 96, 91
1, 101941, Note_on_c, 1, 61, 91
1, 101988, Note_off_c, 1, 61, 58
1, 101998, Note_off_c, 0, 96, 61
1, 101999, Note_on_c, 1, 55, 93
1, 102001, Note_on_c, 0, 84, 90
1, 102046, Note_off_c, 1, 55, 59
1, 102062, Note_on_c, 1, 65, 90
1, 102109, Note_off_c, 1, 65, 59
1, 102120, Note_on_c, 1, 60, 95
1, 102167, Note_off_c, 1, 60, 58
1, 102182, Note_on_c, 1, 65, 92
1, 102229, Note_off_c, 1, 65, 59
1, 102233, Note_off_c, 0, 84, 68
1, 102238, Note_on_c, 0, 79, 92
1, 102241, Note_on_c, 1, 55, 92
1, 102288, Note_off_c, 1, 55, 58
1, 102300, Note_on_c, 1, 65, 92
1, 102347, Note_off_c, 1, 65, 58
1, 102358, Note_on_c, 1, 60, 95
1, 102405, Note_off_c, 1, 60, 58
1, 102421, Note_on_c, 1, 65, 91
1, 102468, Note_off_c, 1, 65, 59
1, 102470, Note_off_c, 0, 79, 68
1, 102480, Note_on_c, 0, 79, 96
1, 102481, Note_on_c, 1, 55, 94
1, 102528, Note_off_c, 1, 55, 58
1, 102542, Note_on_c, 1, 64, 91
1, 102589, Note_off_c, 1, 64, 58
1, 102599, Note_on_c, 1, 60, 90
1, 102646, Note_off_c, 1, 60, 58
1, 102661, Note_on_c, 1, 64, 90
1, 102708, Note_off_c, 1, 64, 58
1, 102712, Note_off_c, 0, 79, 69
1, 102719, Note_on_c, 0, 79, 97
1, 102720, Note_on_c, 1, 55, 94
1, 102767, Note_off_c, 1, 55, 58
1, 102781, Note_on_c, 1, 64, 96
1, 102828, Note_off_c, 1, 64, 58
1, 102841, Note_on_c, 1, 60, 95
1, 102888, Note_off_c, 1, 60, 59
1, 102898, Note_on_c, 1, 64, 91
1, 102945, Note_off_c, 1, 64, 59
1, 102951, Note_off_c, 0, 79, 68
1, 102961, Note_on_c, 0, 79, 91
1, 102961, Note_on_c, 1, 50, 97
1, 103008, Note_off_c, 1, 50, 58
1, 103020, Note_off_c, 0, 79, 61
1, 103021, Note_on_c, 0, 80, 93
1, 103022, Note_on_c, 1, 59, 95
1, 103069, Note_off_c, 1, 59, 58
1, 103080, Note_off_c, 0, 80, 61
1, 103082, Note_on_c, 0, 82, 91
1, 103082, Note_on_c, 1, 55, 93
1, 103129, Note_off_c, 1, 55, 58
1, 103139, Note_on_c, 1, 59, 95
1, 103140, Note_on_c, 0, 84, 94
1, 103141, Note_off_c, 0, 82, 61
1, 103186, Note_off_c, 1, 59, 58
1, 103198, Note_on_c, 0, 82, 94
1, 103199, Note_off_c, 0, 84, 61
1, 103201, Note_on_c, 1, 50, 92
1, 103248, Note_off_c, 1, 50, 59
1, 103257, Note_off_c, 0, 82, 60
1, 103258, Note_on_c, 1, 59, 94
1, 103260, Note_on_c, 0, 84, 96
1, 103305, Note_off_c, 1, 59, 58
1, 103318, Note_on_c, 1, 55, 93
1, 103319, Note_off_c, 0, 84, 60
1, 103320, Note_on_c, 0, 85, 97
1, 103365, Note_off_c, 1, 55, 58
1, 103378, Note_on_c, 0, 87, 93
1, 103378, Note_on_c, 1, 59, 92
1, 103379, Note_off_c, 0, 85, 61
1, 103425, Note_off_c, 1, 59, 58
1, 103437, Note_off_c, 0, 87, 61
1, 103438, Note_on_c, 1, 55, 98
1, 103439, Note_on_c, 0, 85, 97
1, 103485, Note_off_c, 1, 55, 58
1, 103498, Note_off_c, 0, 85, 61
1, 103499, Note_on_c, 1, 62, 95
1, 103500, Note_on_c, 0, 87, 94
1, 103546, Note_off_c, 1, 62, 58
1, 103558, Note_on_c, 0, 89, 95
1, 103559, Note_off_c, 0, 87, 61
1, 103562, Note_on_c, 1, 59, 92
1, 103609, Note_off_c, 1, 59, 58
1, 103617, Note_off_c, 0, 89, 61
1, 103618, Note_on_c, 0, 91, 96
1, 103621, Note_on_c, 1, 62, 92
1, 103668, Note_off_c, 1, 62, 59
1, 103677, Note_off_c, 0, 91, 61
1, 103678, Note_on_c, 0, 89, 94
1, 103679, Note_on_c, 1, 55, 94
1, 103726, Note_off_c, 1, 55, 58
1, 103737, Note_off_c, 0, 89, 61
1, 103739, Note_on_c, 1, 62, 97
1, 103740, Note_on_c, 0, 91, 95
1, 103786, Note_off_c, 1, 62, 58
1, 103799, Note_off_c, 0, 91, 60
1, 103800, Note_on_c, 1, 59, 92
1, 103802, Note_on_c, 0, 92, 95
1, 103847, Note_off_c, 1, 59, 58
1, 103858, Note_on_c, 1, 62, 98
1, 103861, Note_off_c, 0, 92, 61
1, 103862, Note_on_c, 0, 94, 95
1, 103905, Note_off_c, 1, 62, 58
1, 103921, Note_off_c, 0, 94, 61
1, 103921, Note_on_c, 0, 74, 95
1, 103922, Note_on_c, 1, 55, 94
1, 103969, Note_off_c, 1, 55, 58
1, 103981, Note_on_c, 1, 65, 94
1, 104028, Note_off_c, 1, 65, 59
1, 104042, Note_on_c, 1, 60, 92
1, 104089, Note_off_c, 1, 60, 58
1, 104098, Note_on_c, 1, 65, 96
1, 104145, Note_off_c, 1, 65, 58
1, 104160, Note_on_c, 1, 55, 95
1, 104207, Note_off_c, 1, 55, 58
1, 104218, Note_on_c, 1, 64, 95
1, 104265, Note_off_c, 1, 64, 58
1, 104270, Note_off_c, 0, 74, 68
1, 104278, Note_on_c, 1, 60, 95
1, 104280, Note_on_c, 0, 72, 93
1, 104325, Note_off_c, 1, 60, 58
1, 104338, Note_on_c, 1, 64, 93
1, 104385, Note_off_c, 1, 64, 58
1, 104396, Note_off_c, 0, 72, 68
1, 104402, Note_on_c, 0, 72, 93
1, 104402, Note_on_c, 1, 55, 98
1, 104449, Note_off_c, 1, 55, 58
1, 104461, Note_on_c, 1, 62, 95
1, 104508, Note_off_c, 1, 62, 59
1, 104520, Note_on_c, 1, 60, 93
1, 104567, Note_off_c, 1, 60, 58
1, 104582, Note_on_c, 1, 62, 99
1, 104629, Note_off_c, 1, 62, 58
1, 104634, Note_off_c, 0, 72, 68
1, 104638, Note_on_c, 1, 55, 94
1, 104639, Note_on_c, 0, 72, 100
1, 104685, Note_off_c, 1, 55, 58
1, 104699, Note_on_c, 1, 64, 94
1, 104746, Note_off_c, 1, 64, 58
1, 104761, Note_on_c, 1, 60, 97
1, 104808, Note_off_c, 1, 60, 58
1, 104821, Note_on_c, 1, 64, 94
1, 104868, Note_off_c, 1, 64, 59
1, 104871, Note_off_c, 0, 72, 68
1, 104878, Note_on_c, 0, 72, 100
1, 104878, Note_on_c, 1, 52, 99
1, 104925, Note_off_c, 1, 52, 59
1, 104925, Note_off_c, 0, 72, 61
1, 104938, Note_on_c, 1, 60, 95
1, 104942, Note_on_c, 0, 84, 97
1, 104985, Note_off_c, 1, 60, 58
1, 104989, Note_off_c, 0, 84, 60
1, 104998, Note_on_c, 0, 72, 94
1, 104998, Note_on_c, 1, 58, 94
1, 105045, Note_off_c, 1, 58, 58
1, 105045, Note_off_c, 0, 72, 61
1, 105061, Note_on_c, 0, 84, 95
1, 105061, Note_on_c, 1, 60, 95
1, 105108, Note_off_c, 1, 60, 58
1, 105108, Note_off_c, 0, 84, 61
1, 105119, Note_on_c, 0, 72, 98
1, 105121, Note_on_c, 1, 52, 97
1, 105166, Note_off_c, 0, 72, 61
1, 105168, Note_off_c, 1, 52, 59
1, 105179, Note_on_c, 0, 84, 96
1, 105182, Note_on_c, 1, 60, 97
1, 105226, Note_off_c, 0, 84, 60
1, 105229, Note_off_c, 1, 60, 58
1, 105238, Note_on_c, 1, 58, 96
1, 105239, Note_on_c, 0, 72, 96
1, 105285, Note_off_c, 1, 58, 58
1, 105286, Note_off_c, 0, 72, 60
1, 105298, Note_on_c, 0, 84, 100
1, 105300, Note_on_c, 1, 60, 98
1, 105345, Note_off_c, 0, 84, 61
1, 105347, Note_off_c, 1, 60, 58
1, 105358, Note_on_c, 0, 73, 96
1, 105358, Note_on_c, 1, 52, 95
1, 105405, Note_off_c, 1, 52, 58
1, 105405, Note_off_c, 0, 73, 61
1, 105420, Note_on_c, 0, 85, 99
1, 105421, Note_on_c, 1, 60, 99
1, 105467, Note_off_c, 0, 85, 61
1, 105468, Note_off_c, 1, 60, 58
1, 105479, Note_on_c, 1, 58, 99
1, 105482, Note_on_c, 0, 73, 100
1, 105526, Note_off_c, 1, 58, 58
1, 105529, Note_off_c, 0, 73, 60
1, 105541, Note_on_c, 0, 85, 99
1, 105541, Note_on_c, 1, 60, 96
1, 105588, Note_off_c, 1, 60, 58
1, 105588, Note_off_c, 0, 85, 60
1, 105598, Note_on_c, 0, 72, 96
1, 105602, Note_on_c, 1, 52, 97
1, 105645, Note_off_c, 0, 72, 61
1, 105649, Note_off_c, 1, 52, 58
1, 105660, Note_on_c, 1, 60, 100
1, 105661, Note_on_c, 0, 84, 97
1, 105707, Note_off_c, 1, 60, 58
1, 105708, Note_off_c, 0, 84, 61
1, 105720, Note_on_c, 0, 72, 96
1, 105720, Note_on_c, 1, 58, 96
1, 105767, Note_off_c, 1, 58, 58
1, 105767, Note_off_c, 0, 72, 61
1, 105778, Note_on_c, 0, 84, 99
1, 105782, Note_on_c, 1, 60, 98
1, 105825, Note_off_c, 0, 84, 60
1, 105829, Note_off_c, 1, 60, 58
1, 105838, Note_on_c, 1, 53, 96
1, 105841, Note_on_c, 0, 72, 98
1, 105885, Note_off_c, 1, 53, 58
1, 105888, Note_off_c, 0, 72, 60
1, 105899, Note_on_c, 0, 84, 102
1, 105900, Note_on_c, 1, 60, 97
1, 105946, Note_off_c, 0, 84, 61
1, 105947, Note_off_c, 1, 60, 58
1, 105960, Note_on_c, 0, 72, 102
1, 105962, Note_on_c, 1, 58, 97
1, 106007, Note_off_c, 0, 72, 60
1, 106009, Note_off_c, 1, 58, 58
1, 106019, Note_on_c, 1, 60, 102
1, 106020, Note_on_c, 0, 84, 96
1, 106066, Note_off_c, 1, 60, 59
1, 106067, Note_off_c, 0, 84, 61
1, 106080, Note_on_c, 0, 74, 101
1, 106082, Note_on_c, 1, 53, 98
1, 106127, Note_off_c, 0, 74, 60
1, 106129, Note_off_c, 1, 53, 58
1, 106140, Note_on_c, 0, 86, 100
1, 106142, Note_on_c, 1, 60, 102
1, 106187, Note_off_c, 0, 86, 61
1, 106189, Note_off_c, 1, 60, 58
1, 106198, Note_on_c, 1, 57, 98
1, 106199, Note_on_c, 0, 74, 96
1, 106245, Note_off_c, 1, 57, 58
1, 106246, Note_off_c, 0, 74, 61
1, 106261, Note_on_c, 0, 86, 98
1, 106261, Note_on_c, 1, 60, 99
1, 106308, Note_off_c, 1, 60, 58
1, 106308, Note_off_c, 0, 86, 61
1, 106320, Note_on_c, 1, 53, 96
1, 106322, Note_on_c, 0, 76, 102
1, 106367, Note_off_c, 1, 53, 58
1, 106369, Note_off_c, 0, 76, 61
1, 106379, Note_on_c, 1, 60, 97
1, 106382, Note_on_c, 0, 88, 98
1, 106426, Note_off_c, 1, 60, 58
1, 106429, Note_off_c, 0, 88, 61
1, 106438, Note_on_c, 1, 55, 98
1, 106440, Note_on_c, 0, 76, 100
1, 106485, Note_off_c, 1, 55, 58
1, 106487, Note_off_c, 0, 76, 61
1, 106500, Note_on_c, 0, 88, 102
1, 106500, Note_on_c, 1, 60, 100
1, 106547, Note_off_c, 1, 60, 59
1, 106547, Note_off_c, 0, 88, 61
1, 106558, Note_on_c, 0, 77, 101
1, 106558, Note_on_c, 1, 53, 98
1, 106605, Note_off_c, 1, 53, 58
1, 106605, Note_off_c, 0, 77, 61
1, 106620, Note_on_c, 1, 60, 99
1, 106621, Note_on_c, 0, 89, 98
1, 106667, Note_off_c, 1, 60, 58
1, 106668, Note_off_c, 0, 89, 60
1, 106678, Note_on_c, 1, 53, 99
1, 106681, Note_on_c, 0, 77, 100
1, 106725, Note_off_c, 1, 53, 58
1, 106728, Note_off_c, 0, 77, 60
1, 106739, Note_on_c, 0, 89, 102
1, 106742, Note_on_c, 1, 60, 103
1, 106786, Note_off_c, 0, 89, 61
1, 106789, Note_off_c, 1, 60, 58
1, 106801, Note_on_c, 0, 75, 100
1, 106801, Note_on_c, 1, 51, 102
1, 106848, Note_off_c, 1, 51, 58
1, 106858, Note_on_c, 1, 61, 103
1, 106905, Note_off_c, 1, 61, 59
1, 106919, Note_on_c, 1, 55, 101
1, 106966, Note_off_c, 1, 55, 58
1, 106981, Note_on_c, 1, 61, 101
1, 107028, Note_off_c, 1, 61, 58
1, 107040, Note_on_c, 1, 51, 99
1, 107087, Note_off_c, 1, 51, 58
1, 107102, Note_on_c, 1, 61, 101
1, 107149, Note_off_c, 1, 61, 58
1, 107150, Note_off_c, 0, 75, 68
1, 107159, Note_on_c, 0, 75, 98
1, 107160, Note_on_c, 1, 55, 101
1, 107207, Note_off_c, 1, 55, 58
1, 107221, Note_on_c, 1, 61, 99
1, 107268, Note_off_c, 1, 61, 58
1, 107275, Note_off_c, 0, 75, 68
1, 107280, Note_on_c, 0, 77, 100
1, 107281, Note_on_c, 1, 51, 101
1, 107328, Note_off_c, 1, 51, 58
1, 107338, Note_on_c, 1, 61, 104
1, 107385, Note_off_c, 1, 61, 58
1, 107398, Note_on_c, 1, 55, 98
1, 107445, Note_off_c, 1, 55, 58
1, 107458, Note_on_c, 1, 61, 99
1, 107505, Note_off_c, 1, 61, 58
1, 107512, Note_off_c, 0, 77, 68
1, 107519, Note_on_c, 1, 51, 101
1, 107520, Note_on_c, 0, 75, 103
1, 107566, Note_off_c, 1, 51, 58
1, 107582, Note_on_c, 1, 61, 100
1, 107629, Note_off_c, 1, 61, 58
1, 107638, Note_on_c, 1, 55, 105
1, 107685, Note_off_c, 1, 55, 58
1, 107701, Note_on_c, 1, 61, 102
1, 107748, Note_off_c, 1, 61, 58
1, 107752, Note_off_c, 0, 75, 68
1, 107760, Note_on_c, 0, 75, 105
1, 107761, Note_on_c, 1, 51, 100
1, 107808, Note_off_c, 1, 51, 58
1, 107819, Note_on_c, 1, 61, 100
1, 107866, Note_off_c, 1, 61, 58
1, 107879, Note_on_c, 1, 56, 104
1, 107926, Note_off_c, 1, 56, 58
1, 107940, Note_on_c, 1, 61, 99
1, 107987, Note_off_c, 1, 61, 58
1, 107992, Note_off_c, 0, 75, 68
1, 107998, Note_on_c, 0, 77, 106
1, 107999, Note_on_c, 1, 51, 102
1, 108046, Note_off_c, 1, 51, 58
1, 108059, Note_on_c, 1, 60, 105
1, 108106, Note_off_c, 1, 60, 59
1, 108121, Note_on_c, 1, 56, 102
1, 108168, Note_off_c, 1, 56, 58
1, 108180, Note_on_c, 1, 60, 103
1, 108227, Note_off_c, 1, 60, 58
1, 108230, Note_off_c, 0, 77, 68
1, 108239, Note_on_c, 0, 79, 101
1, 108241, Note_on_c, 1, 51, 106
1, 108288, Note_off_c, 1, 51, 58
1, 108298, Note_on_c, 1, 58, 106
1, 108345, Note_off_c, 1, 58, 58
1, 108360, Note_on_c, 1, 55, 103
1, 108407, Note_off_c, 1, 55, 58
1, 108422, Note_on_c, 1, 58, 106
1, 108469, Note_off_c, 1, 58, 58
1, 108471, Note_off_c, 0, 79, 68
1, 108478, Note_on_c, 0, 80, 101
1, 108481, Note_on_c, 1, 51, 103
1, 108528, Note_off_c, 1, 51, 58
1, 108542, Note_on_c, 1, 56, 106
1, 108589, Note_off_c, 1, 56, 58
1, 108599, Note_on_c, 1, 51, 101
1, 108646, Note_off_c, 1, 51, 58
1, 108661, Note_on_c, 1, 56, 103
1, 108708, Note_off_c, 1, 56, 58
1, 108710, Note_off_c, 0, 80, 68
1, 108720, Note_on_c, 0, 79, 102
1, 108722, Note_on_c, 1, 52, 106
1, 108767, Note_off_c, 0, 79, 61
1, 108769, Note_off_c, 1, 52, 58
1, 108780, Note_on_c, 0, 91, 106
1, 108782, Note_on_c, 1, 60, 100
1, 108827, Note_off_c, 0, 91, 60
1, 108829, Note_off_c, 1, 60, 58
1, 108839, Note_on_c, 0, 79, 100
1, 108841, Note_on_c, 1, 55, 105
1, 108886, Note_off_c, 0, 79, 60
1, 108888, Note_off_c, 1, 55, 58
1, 108901, Note_on_c, 0, 91, 106
1, 108902, Note_on_c, 1, 60, 100
1, 108948, Note_off_c, 0, 91, 61
1, 108949, Note_off_c, 1, 60, 58
1, 108958, Note_on_c, 0, 79, 107
1, 108959, Note_on_c, 1, 50, 101
1, 109005, Note_off_c, 0, 79, 61
1, 109006, Note_off_c, 1, 50, 58
1, 109018, Note_on_c, 0, 91, 104
1, 109019, Note_on_c, 1, 59, 107
1, 109065, Note_off_c, 0, 91, 61
1, 109066, Note_off_c, 1, 59, 58
1, 109078, Note_on_c, 0, 79, 103
1, 109082, Note_on_c, 1, 56, 106
1, 109125, Note_off_c, 0, 79, 61
1, 109129, Note_off_c, 1, 56, 59
1, 109138, Note_on_c, 1, 59, 105
1, 109139, Note_on_c, 0, 91, 103
1, 109185, Note_off_c, 1, 59, 58
1, 109186, Note_off_c, 0, 91, 61
1, 109198, Note_on_c, 0, 80, 102
1, 109201, Note_on_c, 1, 53, 107
1, 109245, Note_off_c, 0, 80, 61
1, 109248, Note_off_c, 1, 53, 58
1, 109259, Note_on_c, 1, 62, 107
1, 109261, Note_on_c, 0, 92, 103
1, 109306, Note_off_c, 1, 62, 58
1, 109308, Note_off_c, 0, 92, 61
1, 109318, Note_on_c, 1, 55, 103
1, 109319, Note_on_c, 0, 80, 104
1, 109365, Note_off_c, 1, 55, 58
1, 109366, Note_off_c, 0, 80, 60
1, 109379, Note_on_c, 1, 62, 107
1, 109380, Note_on_c, 0, 92, 106
1, 109426, Note_off_c, 1, 62, 58
1, 109427, Note_off_c, 0, 92, 60
1, 109442, Note_on_c, 0, 77, 105
1, 109442, Note_on_c, 1, 52, 102
1, 109489, Note_off_c, 1, 52, 58
1, 109489, Note_off_c, 0, 77, 60
1, 109499, Note_on_c, 0, 89, 106
1, 109500, Note_on_c, 1, 61, 108
1, 109546, Note_off_c, 0, 89, 61
1, 109547, Note_off_c, 1, 61, 58
1, 109559, Note_on_c, 1, 55, 108
1, 109560, Note_on_c, 0, 77, 102
1, 109606, Note_off_c, 1, 55, 58
1, 109607, Note_off_c, 0, 77, 60
1, 109622, Note_on_c, 0, 89, 106
1, 109622, Note_on_c, 1, 61, 103
1, 109669, Note_off_c, 1, 61, 58
1, 109669, Note_off_c, 0, 89, 60
1, 109679, Note_on_c, 0, 76, 103
1, 109682, Note_on_c, 1, 52, 103
1, 109729, Note_off_c, 1, 52, 58
1, 109740, Note_on_c, 1, 61, 107
1, 109787, Note_off_c, 1, 61, 58
1, 109800, Note_on_c, 1, 57, 106
1, 109847, Note_off_c, 1, 57, 58
1, 109862, Note_on_c, 1, 61, 103
1, 109909, Note_off_c, 1, 61, 58
1, 109922, Note_on_c, 1, 53, 105
1, 109969, Note_off_c, 1, 53, 59
1, 109980, Note_on_c, 1, 59, 104
1, 110027, Note_off_c, 1, 59, 58
1, 110028, Note_off_c, 0, 76, 68
1, 110038, Note_on_c, 0, 74, 106
1, 110038, Note_on_c, 1, 57, 105
1, 110085, Note_off_c, 1, 57, 58
1, 110100, Note_on_c, 1, 59, 105
1, 110147, Note_off_c, 1, 59, 58
1, 110154, Note_off_c, 0, 74, 68
1, 110161, Note_on_c, 0, 77, 105
1, 110161, Note_on_c, 1, 53, 107
1, 110208, Note_off_c, 1, 53, 58
1, 110222, Note_on_c, 1, 62, 109
1, 110269, Note_off_c, 1, 62, 58
1, 110279, Note_on_c, 1, 57, 109
1, 110326, Note_off_c, 1, 57, 58
1, 110342, Note_on_c, 1, 62, 103
1, 110389, Note_off_c, 1, 62, 58
1, 110398, Note_on_c, 1, 52, 106
1, 110445, Note_off_c, 1, 52, 58
1, 110461, Note_on_c, 1, 62, 109
1, 110508, Note_off_c, 1, 62, 58
1, 110510, Note_off_c, 0, 77, 68
1, 110520, Note_on_c, 1, 56, 107
1, 110521, Note_on_c, 0, 76, 110
1, 110567, Note_off_c, 1, 56, 58
1, 110580, Note_on_c, 1, 62, 104
1, 110627, Note_off_c, 1, 62, 58
1, 110637, Note_off_c, 0, 76, 68
1, 110638, Note_on_c, 0, 76, 109
1, 110642, Note_on_c, 1, 52, 106
1, 110689, Note_off_c, 1, 52, 58
1, 110698, Note_on_c, 1, 60, 105
1, 110745, Note_off_c, 1, 60, 58
1, 110758, Note_on_c, 1, 55, 104
1, 110805, Note_off_c, 1, 55, 58
1, 110821, Note_on_c, 1, 60, 110
1, 110868, Note_off_c, 1, 60, 58
1, 110879, Note_on_c, 1, 53, 109
1, 110926, Note_off_c, 1, 53, 59
1, 110938, Note_on_c, 1, 59, 105
1, 110985, Note_off_c, 1, 59, 58
1, 110987, Note_off_c, 0, 76, 68
1, 110998, Note_on_c, 1, 56, 106
1, 111001, Note_on_c, 0, 74, 105
1, 111045, Note_off_c, 1, 56, 59
1, 111058, Note_on_c, 1, 59, 110
1, 111105, Note_off_c, 1, 59, 58
1, 111117, Note_off_c, 0, 74, 68
1, 111121, Note_on_c, 0, 77, 107
1, 111121, Note_on_c, 1, 53, 106
1, 111168, Note_off_c, 1, 53, 58
1, 111181, Note_on_c, 1, 62, 104
1, 111228, Note_off_c, 1, 62, 58
1, 111238, Note_on_c, 1, 55, 105
1, 111285, Note_off_c, 1, 55, 58
1, 111302, Note_on_c, 1, 62, 104
1, 111349, Note_off_c, 1, 62, 59
1, 111360, Note_on_c, 1, 52, 108
1, 111407, Note_off_c, 1, 52, 58
1, 111418, Note_on_c, 1, 62, 108
1, 111465, Note_off_c, 1, 62, 58
1, 111470, Note_off_c, 0, 77, 68
1, 111482, Note_on_c, 0, 76, 106
1, 111482, Note_on_c, 1, 55, 110
1, 111529, Note_off_c, 1, 55, 58
1, 111538, Note_on_c, 1, 62, 105
1, 111585, Note_off_c, 1, 62, 58
1, 111598, Note_off_c, 0, 76, 68
1, 111602, Note_on_c, 0, 76, 110
1, 111602, Note_on_c, 1, 52, 109
1, 111649, Note_off_c, 1, 52, 58
1, 111660, Note_on_c, 1, 61, 107
1, 111707, Note_off_c, 1, 61, 58
1, 111721, Note_on_c, 1, 57, 107
1, 111768, Note_off_c, 1, 57, 58
1, 111779, Note_on_c, 1, 61, 111
1, 111826, Note_off_c, 1, 61, 58
1, 111842, Note_on_c, 1, 54, 107
1, 111889, Note_off_c, 1, 54, 58
1, 111899, Note_on_c, 1, 59, 108
1, 111946, Note_off_c, 1, 59, 58
1, 111951, Note_off_c, 0, 76, 68
1, 111959, Note_on_c, 1, 57, 110
1, 111960, Note_on_c, 0, 74, 109
1, 112006, Note_off_c, 1, 57, 58
1, 112019, Note_on_c, 1, 59, 109
1, 112066, Note_off_c, 1, 59, 58
1, 112076, Note_off_c, 0, 74, 68
1, 112079, Note_on_c, 1, 54, 109
1, 112081, Note_on_c, 0, 78, 112
1, 112126, Note_off_c, 1, 54, 58
1, 112141, Note_on_c, 1, 62, 107
1, 112188, Note_off_c, 1, 62, 58
1, 112198, Note_on_c, 1, 57, 109
1, 112245, Note_off_c, 1, 57, 58
1, 112261, Note_on_c, 1, 62, 107
1, 112308, Note_off_c, 1, 62, 58
1, 112321, Note_on_c, 1, 52, 107
1, 112368, Note_off_c, 1, 52, 58
1, 112379, Note_on_c, 1, 62, 108
1, 112426, Note_off_c, 1, 62, 58
1, 112430, Note_off_c, 0, 78, 68
1, 112441, Note_on_c, 0, 76, 109
1, 112442, Note_on_c, 1, 56, 107
1, 112489, Note_off_c, 1, 56, 58
1, 112499, Note_on_c, 1, 62, 109
1, 112546, Note_off_c, 1, 62, 59
1, 112557, Note_off_c, 0, 76, 68
1, 112558, Note_on_c, 0, 76, 107
1, 112560, Note_on_c, 1, 52, 111
1, 112607, Note_off_c, 1, 52, 58
1, 112621, Note_on_c, 1, 61, 112
1, 112668, Note_off_c, 1, 61, 59
1, 112682, Note_on_c, 1, 57, 107
1, 112729, Note_off_c, 1, 57, 58
1, 112740, Note_on_c, 1, 61, 113
1, 112787, Note_off_c, 1, 61, 59
1, 112802, Note_on_c, 1, 52, 114
1, 112849, Note_off_c, 1, 52, 58
1, 112859, Note_on_c, 1, 61, 111
1, 112906, Note_off_c, 1, 61, 58
1, 112907, Note_off_c, 0, 76, 68
1, 112920, Note_on_c, 1, 57, 110
1, 112921, Note_on_c, 0, 81, 108
1, 112967, Note_off_c, 1, 57, 59
1, 112978, Note_on_c, 1, 61, 111
1, 113025, Note_off_c, 1, 61, 58
1, 113037, Note_off_c, 0, 81, 68
1, 113038, Note_on_c, 0, 83, 111
1, 113039, Note_on_c, 1, 51, 109
1, 113086, Note_off_c, 1, 51, 58
1, 113101, Note_on_c, 1, 60, 111
1, 113148, Note_off_c, 1, 60, 58
1, 113159, Note_on_c, 1, 54, 113
1, 113206, Note_off_c, 1, 54, 58
1, 113218, Note_on_c, 1, 60, 112
1, 113265, Note_off_c, 1, 60, 58
1, 113279, Note_on_c, 1, 51, 112
1, 113326, Note_off_c, 1, 51, 58
1, 113341, Note_on_c, 1, 60, 109
1, 113387, Note_off_c, 0, 83, 69
1, 113388, Note_off_c, 1, 60, 58
1, 113398, Note_on_c, 0, 84, 113
1, 113402, Note_on_c, 1, 54, 114
1, 113449, Note_off_c, 1, 54, 58
1, 113461, Note_on_c, 1, 60, 114
1, 113508, Note_off_c, 1, 60, 58
1, 113514, Note_off_c, 0, 84, 69
1, 113518, Note_on_c, 0, 84, 113
1, 113519, Note_on_c, 1, 56, 113
1, 113566, Note_off_c, 1, 56, 58
1, 113578, Note_on_c, 1, 61, 113
1, 113625, Note_off_c, 1, 61, 58
1, 113640, Note_on_c, 1, 58, 109
1, 113687, Note_off_c, 1, 58, 58
1, 113699, Note_on_c, 1, 61, 112
1, 113746, Note_off_c, 1, 61, 58
1, 113758, Note_on_c, 1, 56, 113
1, 113805, Note_off_c, 1, 56, 58
1, 113818, Note_on_c, 1, 61, 115
1, 113865, Note_off_c, 1, 61, 58
1, 113867, Note_off_c, 0, 84, 68
1, 113878, Note_on_c, 1, 58, 109
1, 113882, Note_on_c, 0, 82, 111
1, 113925, Note_off_c, 1, 58, 59
1, 113940, Note_on_c, 1, 61, 110
1, 113987, Note_off_c, 1, 61, 58
1, 113998, Note_off_c, 0, 82, 68
1, 113998, Note_on_c, 0, 85, 110
1, 113999, Note_on_c, 1, 56, 115
1, 114046, Note_off_c, 1, 56, 58
1, 114060, Note_on_c, 1, 61, 112
1, 114107, Note_off_c, 1, 61, 58
1, 114118, Note_on_c, 1, 58, 115
1, 114165, Note_off_c, 1, 58, 58
1, 114179, Note_on_c, 1, 61, 115
1, 114226, Note_off_c, 1, 61, 58
1, 114230, Note_off_c, 0, 85, 68
1, 114238, Note_on_c, 0, 77, 110
1, 114241, Note_on_c, 1, 56, 114
1, 114288, Note_off_c, 1, 56, 58
1, 114302, Note_on_c, 1, 61, 115
1, 114349, Note_off_c, 1, 61, 58
1, 114358, Note_on_c, 1, 58, 116
1, 114405, Note_off_c, 1, 58, 58
1, 114419, Note_on_c, 1, 61, 110
1, 114466, Note_off_c, 1, 61, 59
1, 114470, Note_off_c, 0, 77, 68
1, 114478, Note_on_c, 0, 82, 116
1, 114482, Note_on_c, 1, 51, 111
1, 114529, Note_off_c, 1, 51, 58
1, 114538, Note_on_c, 1, 60, 115
1, 114585, Note_off_c, 1, 60, 58
1, 114600, Note_on_c, 1, 56, 114
1, 114647, Note_off_c, 1, 56, 58
1, 114660, Note_on_c, 1, 60, 116
1, 114707, Note_off_c, 1, 60, 58
1, 114722, Note_on_c, 1, 51, 113
1, 114769, Note_off_c, 1, 51, 58
1, 114778, Note_on_c, 1, 60, 112
1, 114825, Note_off_c, 1, 60, 58
1, 114827, Note_off_c, 0, 82, 69
1, 114838, Note_on_c, 1, 56, 116
1, 114842, Note_on_c, 0, 80, 115
1, 114885, Note_off_c, 1, 56, 58
1, 114901, Note_on_c, 1, 60, 117
1, 114948, Note_off_c, 1, 60, 59
1, 114958, Note_off_c, 0, 80, 68
1, 114960, Note_on_c, 1, 51, 117
1, 114961, Note_on_c, 0, 84, 111
1, 115007, Note_off_c, 1, 51, 58
1, 115022, Note_on_c, 1, 60, 115
1, 115069, Note_off_c, 1, 60, 58
1, 115081, Note_on_c, 1, 56, 113
1, 115128, Note_off_c, 1, 56, 58
1, 115141, Note_on_c, 1, 60, 111
1, 115188, Note_off_c, 1, 60, 58
1, 115193, Note_off_c, 0, 84, 68
1, 115199, Note_on_c, 0, 75, 113
1, 115200, Note_on_c, 1, 51, 116
1, 115247, Note_off_c, 1, 51, 58
1, 115260, Note_on_c, 1, 60, 112
1, 115307, Note_off_c, 1, 60, 58
1, 115321, Note_on_c, 1, 56, 118
1, 115368, Note_off_c, 1, 56, 58
1, 115378, Note_on_c, 1, 60, 118
1, 115425, Note_off_c, 1, 60, 58
1, 115431, Note_off_c, 0, 75, 69
1, 115440, Note_on_c, 0, 75, 93
1, 115442, Note_on_c, 1, 51, 114
1, 115487, Note_off_c, 0, 75, 61
1, 115489, Note_off_c, 1, 51, 58
1, 115498, Note_on_c, 0, 87, 111
1, 115501, Note_on_c, 1, 63, 117
1, 115545, Note_off_c, 0, 87, 61
1, 115548, Note_off_c, 1, 63, 58
1, 115559, Note_on_c, 1, 55, 118
1, 115560, Note_on_c, 0, 75, 109
1, 115606, Note_off_c, 1, 55, 58
1, 115607, Note_off_c, 0, 75, 61
1, 115621, Note_on_c, 0, 87, 108
1, 115621, Note_on_c, 1, 63, 112
1, 115668, Note_off_c, 1, 63, 58
1, 115668, Note_off_c, 0, 87, 61
1, 115679, Note_on_c, 0, 76, 107
1, 115679, Note_on_c, 1, 51, 112
1, 115726, Note_off_c, 1, 51, 58
1, 115726, Note_off_c, 0, 76, 60
1, 115739, Note_on_c, 0, 88, 109
1, 115741, Note_on_c, 1, 63, 114
1, 115786, Note_off_c, 0, 88, 61
1, 115788, Note_off_c, 1, 63, 59
1, 115800, Note_on_c, 0, 76, 108
1, 115801, Note_on_c, 1, 55, 112
1, 115847, Note_off_c, 0, 76, 61
1, 115848, Note_off_c, 1, 55, 58
1, 115859, Note_on_c, 0, 88, 112
1, 115861, Note_on_c, 1, 63, 118
1, 115906, Note_off_c, 0, 88, 60
1, 115908, Note_off_c, 1, 63, 59
1, 115919, Note_on_c, 0, 77, 114
1, 115919, Note_on_c, 1, 51, 113
1, 115966, Note_off_c, 1, 51, 58
1, 115966, Note_off_c, 0, 77, 61
1, 115981, Note_on_c, 0, 89, 113
1, 115981, Note_on_c, 1, 63, 118
1, 116028, Note_off_c, 1, 63, 58
1, 116028, Note_off_c, 0, 89, 60
1, 116042, Note_on_c, 0, 77, 112
1, 116042, Note_on_c, 1, 55, 113
1, 116089, Note_off_c, 1, 55, 59
1, 116089, Note_off_c, 0, 77, 61
1, 116099, Note_on_c, 1, 63, 112
1, 116101, Note_on_c, 0, 89, 122
1, 116146, Note_off_c, 1, 63, 59
1, 116148, Note_off_c, 0, 89, 61
1, 116159, Note_on_c, 1, 51, 117
1, 116162, Note_on_c, 0, 75, 114
1, 116206, Note_off_c, 1, 51, 58
1, 116209, Note_off_c, 0, 75, 61
1, 116218, Note_on_c, 1, 63, 114
1, 116220, Note_on_c, 0, 87, 98
1, 116265, Note_off_c, 1, 63, 58
1, 116267, Note_off_c, 0, 87, 61
1, 116278, Note_on_c, 1, 55, 115
1, 116279, Note_on_c, 0, 75, 101
1, 116325, Note_off_c, 1, 55, 58
1, 116326, Note_off_c, 0, 75, 61
1, 116339, Note_on_c, 1, 63, 119
1, 116340, Note_on_c, 0, 87, 108
1, 116386, Note_off_c, 1, 63, 58
1, 116387, Note_off_c, 0, 87, 61
1, 116401, Note_on_c, 0, 73, 101
1, 116402, Note_on_c, 1, 53, 119
1, 116448, Note_off_c, 0, 73, 61
1, 116449, Note_off_c, 1, 53, 59
1, 116459, Note_on_c, 1, 65, 118
1, 116461, Note_on_c, 0, 85, 103
1, 116506, Note_off_c, 1, 65, 58
1, 116508, Note_off_c, 0, 85, 60
1, 116519, Note_on_c, 0, 73, 107
1, 116521, Note_on_c, 1, 56, 113
1, 116566, Note_off_c, 0, 73, 61
1, 116568, Note_off_c, 1, 56, 59
1, 116578, Note_on_c, 0, 85, 107
1, 116581, Note_on_c, 1, 65, 119
1, 116625, Note_off_c, 0, 85, 61
1, 116628, Note_off_c, 1, 65, 59
1, 116642, Note_on_c, 0, 72, 112
1, 116642, Note_on_c, 1, 53, 119
1, 116689, Note_off_c, 1, 53, 58
1, 116689, Note_off_c, 0, 72, 61
1, 116699, Note_on_c, 0, 84, 127
1, 116702, Note_on_c, 1, 65, 119
1, 116746, Note_off_c, 0, 84, 61
1, 116749, Note_off_c, 1, 65, 58
1, 116758, Note_on_c, 0, 72, 110
1, 116758, Note_on_c, 1, 56, 115
1, 116805, Note_off_c, 1, 56, 58
1, 116805, Note_off_c, 0, 72, 61
1, 116820, Note_on_c, 0, 84, 114
1, 116822, Note_on_c, 1, 65, 117
1, 116867, Note_off_c, 0, 84, 61
1, 116869, Note_off_c, 1, 65, 58
1, 116879, Note_on_c, 0, 72, 114
1, 116881, Note_on_c, 1, 53, 115
1, 116926, Note_off_c, 0, 72, 61
1, 116928, Note_off_c, 1, 53, 58
1, 116942, Note_on_c, 0, 84, 105
1, 116942, Note_on_c, 1, 65, 115
1, 116989, Note_off_c, 1, 65, 58
1, 116989, Note_off_c, 0, 84, 61
1, 117000, Note_on_c, 0, 72, 117
1, 117002, Note_on_c, 1, 57, 114
1, 117047, Note_off_c, 0, 72, 61
1, 117049, Note_off_c, 1, 57, 58
1, 117058, Note_on_c, 0, 84, 119
1, 117060, Note_on_c, 1, 65, 120
1, 117105, Note_off_c, 0, 84, 61
1, 117107, Note_off_c, 1, 65, 59
1, 117118, Note_on_c, 0, 84, 108
1, 117118, Note_on_c, 1, 53, 116
1, 117165, Note_off_c, 1, 53, 58
1, 117165, Note_off_c, 0, 84, 61
1, 117178, Note_on_c, 1, 65, 115
1, 117180, Note_on_c, 0, 96, 119
1, 117225, Note_off_c, 1, 65, 58
1, 117227, Note_off_c, 0, 96, 61
1, 117239, Note_on_c, 0, 84, 115
1, 117239, Note_on_c, 1, 57, 116
1, 117286, Note_off_c, 1, 57, 58
1, 117286, Note_off_c, 0, 84, 61
1, 117299, Note_on_c, 0, 96, 121
1, 117301, Note_on_c, 1, 65, 120
1, 117346, Note_off_c, 0, 96, 60
1, 117348, Note_off_c, 1, 65, 58
1, 117358, Note_on_c, 0, 84, 118
1, 117360, Note_on_c, 1, 53, 115
1, 117407, Note_off_c, 1, 53, 59
1, 117418, Note_on_c, 1, 61, 116
1, 117465, Note_off_c, 1, 61, 58
1, 117478, Note_on_c, 1, 58, 119
1, 117525, Note_off_c, 1, 58, 58
1, 117539, Note_on_c, 1, 61, 119
1, 117586, Note_off_c, 1, 61, 58
1, 117590, Note_off_c, 0, 84, 68
1, 117598, Note_on_c, 1, 53, 118
1, 117602, Note_on_c, 0, 82, 116
1, 117645, Note_off_c, 1, 53, 58
1, 117662, Note_on_c, 1, 61, 119
1, 117709, Note_off_c, 1, 61, 59
1, 117718, Note_on_c, 1, 58, 116
1, 117765, Note_off_c, 1, 58, 58
1, 117781, Note_on_c, 1, 61, 120
1, 117828, Note_off_c, 1, 61, 58
1, 117834, Note_off_c, 0, 82, 68
1, 117840, Note_on_c, 1, 52, 116
1, 117842, Note_on_c, 0, 85, 122
1, 117887, Note_off_c, 1, 52, 59
1, 117898, Note_on_c, 1, 61, 119
1, 117945, Note_off_c, 1, 61, 58
1, 117962, Note_on_c, 1, 56, 118
1, 118009, Note_off_c, 1, 56, 58
1, 118021, Note_on_c, 1, 61, 121
1, 118068, Note_off_c, 1, 61, 58
1, 118080, Note_on_c, 1, 52, 118
1, 118127, Note_off_c, 1, 52, 58
1, 118141, Note_on_c, 1, 61, 117
1, 118188, Note_off_c, 1, 61, 58
1, 118191, Note_off_c, 0, 85, 69
1, 118200, Note_on_c, 0, 76, 121
1, 118202, Note_on_c, 1, 56, 121
1, 118249, Note_off_c, 1, 56, 58
1, 118261, Note_on_c, 1, 61, 121
1, 118308, Note_off_c, 1, 61, 58
1, 118316, Note_off_c, 0, 76, 69
1, 118319, Note_on_c, 0, 82, 120
1, 118319, Note_on_c, 1, 56, 121
1, 118366, Note_off_c, 1, 56, 58
1, 118379, Note_on_c, 1, 63, 118
1, 118426, Note_off_c, 1, 63, 58
1, 118438, Note_on_c, 1, 60, 119
1, 118485, Note_off_c, 1, 60, 58
1, 118501, Note_on_c, 1, 63, 120
1, 118548, Note_off_c, 1, 63, 58
1, 118551, Note_off_c, 0, 82, 68
1, 118558, Note_on_c, 0, 80, 117
1, 118559, Note_on_c, 1, 56, 118
1, 118606, Note_off_c, 1, 56, 58
1, 118622, Note_on_c, 1, 63, 121
1, 118669, Note_off_c, 1, 63, 58
1, 118681, Note_on_c, 1, 60, 121
1, 118728, Note_off_c, 1, 60, 58
1, 118740, Note_on_c, 1, 63, 122
1, 118787, Note_off_c, 1, 63, 58
1, 118790, Note_off_c, 0, 80, 68
1, 118799, Note_on_c, 0, 84, 119
1, 118802, Note_on_c, 1, 56, 117
1, 118849, Note_off_c, 1, 56, 58
1, 118861, Note_on_c, 1, 63, 117
1, 118908, Note_off_c, 1, 63, 58
1, 118922, Note_on_c, 1, 60, 122
1, 118969, Note_off_c, 1, 60, 59
1, 118978, Note_on_c, 1, 63, 117
1, 119025, Note_off_c, 1, 63, 58
1, 119039, Note_on_c, 1, 56, 122
1, 119086, Note_off_c, 1, 56, 58
1, 119099, Note_on_c, 1, 63, 119
1, 119146, Note_off_c, 1, 63, 59
1, 119148, Note_off_c, 0, 84, 68
1, 119158, Note_on_c, 1, 60, 119
1, 119160, Note_on_c, 0, 75, 123
1, 119205, Note_off_c, 1, 60, 58
1, 119222, Note_on_c, 1, 63, 120
1, 119269, Note_off_c, 1, 63, 58
1, 119276, Note_off_c, 0, 75, 68
1, 119281, Note_on_c, 0, 75, 124
1, 119282, Note_on_c, 1, 57, 118
1, 119329, Note_off_c, 1, 57, 58
1, 119338, Note_on_c, 1, 63, 123
1, 119385, Note_off_c, 1, 63, 58
1, 119400, Note_on_c, 1, 60, 123
1, 119447, Note_off_c, 1, 60, 58
1, 119459, Note_on_c, 1, 63, 121
1, 119506, Note_off_c, 1, 63, 58
1, 119520, Note_on_c, 1, 57, 121
1, 119567, Note_off_c, 1, 57, 59
1, 119580, Note_on_c, 1, 63, 124
1, 119627, Note_off_c, 1, 63, 58
1, 119630, Note_off_c, 0, 75, 68
1, 119639, Note_on_c, 0, 77, 122
1, 119641, Note_on_c, 1, 60, 119
1, 119688, Note_off_c, 1, 60, 58
1, 119701, Note_on_c, 1, 63, 121
1, 119748, Note_off_c, 1, 63, 58
1, 119755, Note_off_c, 0, 77, 68
1, 119759, Note_on_c, 1, 57, 123
1, 119761, Note_on_c, 0, 78, 119
1, 119806, Note_off_c, 1, 57, 58
1, 119822, Note_on_c, 1, 63, 122
1, 119869, Note_off_c, 1, 63, 58
1, 119879, Note_on_c, 1, 60, 121
1, 119926, Note_off_c, 1, 60, 59
1, 119938, Note_on_c, 1, 63, 124
1, 119985, Note_off_c, 1, 63, 58
1, 119993, Note_off_c, 0, 78, 68
1, 120000, Note_on_c, 0, 77, 118
1, 120002, Note_on_c, 1, 57, 122
1, 120049, Note_off_c, 1, 57, 58
1, 120060, Note_on_c, 1, 63, 123
1, 120107, Note_off_c, 1, 63, 58
1, 120122, Note_on_c, 1, 61, 119
1, 120169, Note_off_c, 1, 61, 58
1, 120181, Note_on_c, 1, 63, 124
1, 120228, Note_off_c, 1, 63, 58
1, 120232, Note_off_c, 0, 77, 68
1, 120240, Note_on_c, 1, 58, 118
1, 120241, Note_on_c, 0, 77, 121
1, 120287, Note_off_c, 1, 58, 58
1, 120288, Note_off_c, 0, 77, 60
1, 120300, Note_on_c, 0, 89, 118
1, 120300, Note_on_c, 1, 65, 120
1, 120347, Note_off_c, 1, 65, 59
1, 120347, Note_off_c, 0, 89, 61
1, 120359, Note_on_c, 0, 77, 122
1, 120359, Note_on_c, 1, 63, 124
1, 120406, Note_off_c, 1, 63, 58
1, 120406, Note_off_c, 0, 77, 61
1, 120418, Note_on_c, 1, 65, 120
1, 120419, Note_on_c, 0, 89, 122
1, 120465, Note_off_c, 1, 65, 58
1, 120466, Note_off_c, 0, 89, 61
1, 120479, Note_on_c, 1, 51, 124
1, 120482, Note_on_c, 0, 79, 121
1, 120526, Note_off_c, 1, 51, 58
1, 120529, Note_off_c, 0, 79, 61
1, 120540, Note_on_c, 0, 91, 121
1, 120541, Note_on_c, 1, 61, 122
1, 120587, Note_off_c, 0, 91, 61
1, 120588, Note_off_c, 1, 61, 59
1, 120599, Note_on_c, 0, 79, 123
1, 120601, Note_on_c, 1, 58, 122
1, 120646, Note_off_c, 0, 79, 60
1, 120648, Note_off_c, 1, 58, 58
1, 120659, Note_on_c, 0, 91, 120
1, 120659, Note_on_c, 1, 61, 124
1, 120706, Note_off_c, 1, 61, 58
1, 120706, Note_off_c, 0, 91, 61
1, 120719, Note_on_c, 0, 80, 118
1, 120721, Note_on_c, 1, 55, 120
1, 120766, Note_off_c, 0, 80, 60
1, 120768, Note_off_c, 1, 55, 58
1, 120781, Note_on_c, 1, 62, 123
1, 120782, Note_on_c, 0, 92, 118
1, 120828, Note_off_c, 1, 62, 58
1, 120829, Note_off_c, 0, 92, 61
1, 120839, Note_on_c, 0, 80, 119
1, 120841, Note_on_c, 1, 59, 122
1, 120886, Note_off_c, 0, 80, 61
1, 120888, Note_off_c, 1, 59, 58
1, 120899, Note_on_c, 1, 62, 121
1, 120902, Note_on_c, 0, 92, 122
1, 120946, Note_off_c, 1, 62, 58
1, 120949, Note_off_c, 0, 92, 61
1, 120959, Note_on_c, 0, 79, 124
1, 120959, Note_on_c, 1, 55, 124
1, 121006, Note_off_c, 1, 55, 59
1, 121006, Note_off_c, 0, 79, 60
1, 121018, Note_on_c, 0, 91, 120
1, 121021, Note_on_c, 1, 62, 118
1, 121065, Note_off_c, 0, 91, 61
1, 121068, Note_off_c, 1, 62, 58
1, 121078, Note_on_c, 0, 79, 118
1, 121079, Note_on_c, 1, 59, 119
1, 121125, Note_off_c, 0, 79, 61
1, 121126, Note_off_c, 1, 59, 58
1, 121139, Note_on_c, 1, 62, 121
1, 121142, Note_on_c, 0, 91, 119
1, 121186, Note_off_c, 1, 62, 58
1, 121189, Note_off_c, 0, 91, 60
1, 121201, Note_on_c, 1, 55, 120
1, 121202, Note_on_c, 0, 79, 122
1, 121248, Note_off_c, 1, 55, 58
1, 121260, Note_on_c, 1, 63, 120
1, 121307, Note_off_c, 1, 63, 58
1, 121318, Note_on_c, 1, 60, 123
1, 121365, Note_off_c, 1, 60, 58
1, 121381, Note_on_c, 1, 63, 124
1, 121428, Note_off_c, 1, 63, 58
1, 121442, Note_on_c, 1, 55, 122
1, 121489, Note_off_c, 1, 55, 58
1, 121498, Note_on_c, 1, 63, 119
1, 121545, Note_off_c, 1, 63, 58
1, 121551, Note_off_c, 0, 79, 68
1, 121559, Note_on_c, 1, 60, 121
1, 121561, Note_on_c, 0, 80, 123
1, 121606, Note_off_c, 1, 60, 58
1, 121622, Note_on_c, 1, 63, 119
1, 121669, Note_off_c, 1, 63, 58
1, 121677, Note_off_c, 0, 80, 69
1, 121679, Note_on_c, 1, 57, 124
1, 121680, Note_on_c, 0, 81, 123
1, 121726, Note_off_c, 1, 57, 58
1, 121742, Note_on_c, 1, 63, 122
1, 121789, Note_off_c, 1, 63, 58
1, 121802, Note_on_c, 1, 60, 124
1, 121849, Note_off_c, 1, 60, 58
1, 121862, Note_on_c, 1, 63, 121
1, 121909, Note_off_c, 1, 63, 58
1, 121912, Note_off_c, 0, 81, 68
1, 121919, Note_on_c, 0, 90, 118
1, 121921, Note_on_c, 1, 57, 120
1, 121968, Note_off_c, 1, 57, 58
1, 121978, Note_on_c, 1, 65, 123
1, 122025, Note_off_c, 1, 65, 58
1, 122041, Note_on_c, 1, 60, 123
1, 122088, Note_off_c, 1, 60, 58
1, 122098, Note_on_c, 1, 65, 123
1, 122145, Note_off_c, 1, 65, 58
1, 122151, Note_off_c, 0, 90, 68
1, 122160, Note_on_c, 0, 89, 123
1, 122162, Note_on_c, 1, 56, 123
1, 122207, Note_off_c, 0, 89, 61
1, 122209, Note_off_c, 1, 56, 58
1, 122222, Note_on_c, 0, 77, 120
1, 122222, Note_on_c, 1, 61, 120
1, 122269, Note_off_c, 1, 61, 58
1, 122269, Note_off_c, 0, 77, 60
1, 122282, Note_on_c, 0, 89, 124
1, 122282, Note_on_c, 1, 59, 120
1, 122329, Note_off_c, 1, 59, 59
1, 122329, Note_off_c, 0, 89, 61
1, 122340, Note_on_c, 0, 77, 123
1, 122341, Note_on_c, 1, 61, 118
1, 122387, Note_off_c, 0, 77, 61
1, 122388, Note_off_c, 1, 61, 58
1, 122400, Note_on_c, 0, 82, 121
1, 122401, Note_on_c, 1, 51, 121
1, 122447, Note_off_c, 0, 82, 60
1, 122448, Note_off_c, 1, 51, 58
1, 122460, Note_on_c, 0, 70, 123
1, 122461, Note_on_c, 1, 61, 122
1, 122507, Note_off_c, 0, 70, 61
1, 122508, Note_off_c, 1, 61, 58
1, 122520, Note_on_c, 1, 58, 124
1, 122521, Note_on_c, 0, 82, 124
1, 122567, Note_off_c, 1, 58, 58
1, 122568, Note_off_c, 0, 82, 61
1, 122579, Note_on_c, 1, 61, 118
1, 122582, Note_on_c, 0, 70, 121
1, 122626, Note_off_c, 1, 61, 58
1, 122629, Note_off_c, 0, 70, 60
1, 122638, Note_on_c, 0, 85, 123
1, 122640, Note_on_c, 1, 51, 120
1, 122685, Note_off_c, 0, 85, 60
1, 122687, Note_off_c, 1, 51, 58
1, 122698, Note_on_c, 1, 61, 122
1, 122700, Note_on_c, 0, 73, 120
1, 122745, Note_off_c, 1, 61, 58
1, 122747, Note_off_c, 0, 73, 60
1, 122758, Note_on_c, 1, 58, 121
1, 122762, Note_on_c, 0, 85, 120
1, 122805, Note_off_c, 1, 58, 58
1, 122809, Note_off_c, 0, 85, 60
1, 122820, Note_on_c, 1, 61, 121
1, 122822, Note_on_c, 0, 73, 123
1, 122867, Note_off_c, 1, 61, 58
1, 122869, Note_off_c, 0, 73, 61
1, 122878, Note_on_c, 1, 51, 120
1, 122882, Note_on_c, 0, 79, 121
1, 122925, Note_off_c, 1, 51, 58
1, 122929, Note_off_c, 0, 79, 61
1, 122941, Note_on_c, 0, 67, 123
1, 122941, Note_on_c, 1, 61, 121
1, 122988, Note_off_c, 1, 61, 58
1, 122988, Note_off_c, 0, 67, 61
1, 122999, Note_on_c, 1, 58, 119
1, 123001, Note_on_c, 0, 79, 119
1, 123046, Note_off_c, 1, 58, 59
1, 123048, Note_off_c, 0, 79, 61
1, 123059, Note_on_c, 1, 61, 124
1, 123061, Note_on_c, 0, 67, 123
1, 123106, Note_off_c, 1, 61, 59
1, 123108, Note_off_c, 0, 67, 61
1, 123121, Note_on_c, 0, 80, 119
1, 123122, Note_on_c, 1, 51, 121
1, 123169, Note_off_c, 1, 51, 58
1, 123181, Note_on_c, 1, 60, 121
1, 123228, Note_off_c, 1, 60, 58
1, 123239, Note_on_c, 1, 56, 122
1, 123286, Note_off_c, 1, 56, 58
1, 123299, Note_on_c, 1, 60, 119
1, 123346, Note_off_c, 1, 60, 59
1, 123359, Note_on_c, 1, 51, 122
1, 123406, Note_off_c, 1, 51, 58
1, 123422, Note_on_c, 1, 60, 116
1, 123469, Note_off_c, 1, 60, 58
1, 123470, Note_off_c, 0, 80, 68
1, 123478, Note_on_c, 0, 75, 116
1, 123481, Note_on_c, 1, 56, 119
1, 123528, Note_off_c, 1, 56, 58
1, 123539, Note_on_c, 1, 60, 121
1, 123586, Note_off_c, 1, 60, 58
1, 123594, Note_off_c, 0, 75, 68
1, 123599, Note_on_c, 1, 51, 116
1, 123601, Note_on_c, 0, 75, 120
1, 123646, Note_off_c, 1, 51, 58
1, 123659, Note_on_c, 1, 60, 119
1, 123706, Note_off_c, 1, 60, 58
1, 123721, Note_on_c, 1, 56, 121
1, 123768, Note_off_c, 1, 56, 58
1, 123782, Note_on_c, 1, 60, 120
1, 123829, Note_off_c, 1, 60, 58
1, 123833, Note_off_c, 0, 75, 68
1, 123839, Note_on_c, 1, 51, 118
1, 123840, Note_on_c, 0, 75, 119
1, 123886, Note_off_c, 1, 51, 58
1, 123901, Note_on_c, 1, 60, 119
1, 123948, Note_off_c, 1, 60, 58
1, 123961, Note_on_c, 1, 56, 118
1, 124008, Note_off_c, 1, 56, 59
1, 124020, Note_on_c, 1, 60, 117
1, 124067, Note_off_c, 1, 60, 58
1, 124072, Note_off_c, 0, 75, 68
1, 124078, Note_on_c, 1, 51, 112
1, 124081, Note_on_c, 0, 77, 118
1, 124125, Note_off_c, 1, 51, 58
1, 124128, Note_off_c, 0, 77, 60
1, 124139, Note_on_c, 0, 89, 116
1, 124139, Note_on_c, 1, 61, 112
1, 124186, Note_off_c, 1, 61, 58
1, 124186, Note_off_c, 0, 89, 61
1, 124199, Note_on_c, 0, 77, 115
1, 124202, Note_on_c, 1, 55, 117
1, 124246, Note_off_c, 0, 77, 60
1, 124249, Note_off_c, 1, 55, 59
1, 124260, Note_on_c, 1, 61, 112
1, 124261, Note_on_c, 0, 89, 113
1, 124307, Note_off_c, 1, 61, 58
1, 124308, Note_off_c, 0, 89, 61
1, 124319, Note_on_c, 1, 51, 113
1, 124320, Note_on_c, 0, 75, 111
1, 124366, Note_off_c, 1, 51, 58
1, 124367, Note_off_c, 0, 75, 61
1, 124378, Note_on_c, 1, 61, 115
1, 124379, Note_on_c, 0, 87, 115
1, 124425, Note_off_c, 1, 61, 58
1, 124426, Note_off_c, 0, 87, 61
1, 124439, Note_on_c, 0, 75, 115
1, 124440, Note_on_c, 1, 55, 110
1, 124486, Note_off_c, 0, 75, 60
1, 124487, Note_off_c, 1, 55, 58
1, 124500, Note_on_c, 1, 61, 110
1, 124501, Note_on_c, 0, 87, 113
1, 124547, Note_off_c, 1, 61, 58
1, 124548, Note_off_c, 0, 87, 61
1, 124561, Note_on_c, 0, 84, 114
1, 124562, Note_on_c, 1, 51, 115
1, 124608, Note_off_c, 0, 84, 60
1, 124609, Note_off_c, 1, 51, 59
1, 124619, Note_on_c, 1, 61, 114
1, 124622, Note_on_c, 0, 96, 110
1, 124666, Note_off_c, 1, 61, 58
1, 124669, Note_off_c, 0, 96, 61
1, 124681, Note_on_c, 1, 55, 115
1, 124682, Note_on_c, 0, 84, 115
1, 124728, Note_off_c, 1, 55, 58
1, 124729, Note_off_c, 0, 84, 61
1, 124738, Note_on_c, 1, 61, 111
1, 124740, Note_on_c, 0, 96, 110
1, 124785, Note_off_c, 1, 61, 58
1, 124787, Note_off_c, 0, 96, 61
1, 124798, Note_on_c, 1, 51, 112
1, 124800, Note_on_c, 0, 79, 109
1, 124845, Note_off_c, 1, 51, 59
1, 124847, Note_off_c, 0, 79, 61
1, 124861, Note_on_c, 0, 91, 113
1, 124862, Note_on_c, 1, 61, 112
1, 124908, Note_off_c, 0, 91, 61
1, 124909, Note_off_c, 1, 61, 59
1, 124922, Note_on_c, 0, 79, 109
1, 124922, Note_on_c, 1, 55, 114
1, 124969, Note_off_c, 1, 55, 58
1, 124969, Note_off_c, 0, 79, 61
1, 124978, Note_on_c, 0, 91, 110
1, 124982, Note_on_c, 1, 61, 112
1, 125025, Note_off_c, 0, 91, 61
1, 125029, Note_off_c, 1, 61, 58
1, 125038, Note_on_c, 1, 51, 107
1, 125042, Note_on_c, 0, 80, 108
1, 125085, Note_off_c, 1, 51, 58
1, 125099, Note_on_c, 1, 60, 107
1, 125146, Note_off_c, 1, 60, 58
1, 125162, Note_on_c, 1, 56, 110
1, 125209, Note_off_c, 1, 56, 58
1, 125221, Note_on_c, 1, 60, 108
1, 125268, Note_off_c, 1, 60, 58
1, 125280, Note_on_c, 1, 51, 108
1, 125327, Note_off_c, 1, 51, 58
1, 125338, Note_on_c, 1, 60, 107
1, 125385, Note_off_c, 1, 60, 58
1, 125391, Note_off_c, 0, 80, 68
1, 125399, Note_on_c, 1, 56, 109
1, 125400, Note_on_c, 0, 75, 110
1, 125446, Note_off_c, 1, 56, 58
1, 125461, Note_on_c, 1, 60, 110
1, 125508, Note_off_c, 1, 60, 58
1, 125516, Note_off_c, 0, 75, 68
1, 125518, Note_on_c, 1, 51, 109
1, 125520, Note_on_c, 0, 75, 104
1, 125565, Note_off_c, 1, 51, 58
1, 125578, Note_on_c, 1, 60, 104
1, 125625, Note_off_c, 1, 60, 58
1, 125639, Note_on_c, 1, 56, 107
1, 125686, Note_off_c, 1, 56, 58
1, 125701, Note_on_c, 1, 60, 104
1, 125748, Note_off_c, 1, 60, 58
1, 125752, Note_off_c, 0, 75, 69
1, 125759, Note_on_c, 1, 51, 103
1, 125761, Note_on_c, 0, 75, 105
1, 125806, Note_off_c, 1, 51, 58
1, 125818, Note_on_c, 1, 60, 102
1, 125865, Note_off_c, 1, 60, 58
1, 125878, Note_on_c, 1, 56, 102
1, 125925, Note_off_c, 1, 56, 58
1, 125938, Note_on_c, 1, 60, 107
1, 125985, Note_off_c, 1, 60, 59
1, 125993, Note_off_c, 0, 75, 68
1, 125998, Note_on_c, 0, 77, 102
1, 125999, Note_on_c, 1, 51, 103
1, 126045, Note_off_c, 0, 77, 61
1, 126046, Note_off_c, 1, 51, 58
1, 126059, Note_on_c, 1, 61, 107
1, 126060, Note_on_c, 0, 89, 101
1, 126106, Note_off_c, 1, 61, 58
1, 126107, Note_off_c, 0, 89, 61
1, 126118, Note_on_c, 0, 77, 101
1, 126119, Note_on_c, 1, 55, 102
1, 126165, Note_off_c, 0, 77, 61
1, 126166, Note_off_c, 1, 55, 58
1, 126179, Note_on_c, 0, 89, 102
1, 126182, Note_on_c, 1, 61, 100
1, 126226, Note_off_c, 0, 89, 61
1, 126229, Note_off_c, 1, 61, 58
1, 126239, Note_on_c, 0, 75, 101
1, 126239, Note_on_c, 1, 51, 104
1, 126286, Note_off_c, 1, 51, 58
1, 126286, Note_off_c, 0, 75, 61
1, 126298, Note_on_c, 1, 61, 106
1, 126299, Note_on_c, 0, 79, 101
1, 126345, Note_off_c, 1, 61, 59
1, 126346, Note_off_c, 0, 79, 61
1, 126359, Note_on_c, 0, 82, 100
1, 126360, Note_on_c, 1, 55, 103
1, 126406, Note_off_c, 0, 82, 61
1, 126407, Note_off_c, 1, 55, 58
1, 126421, Note_on_c, 0, 87, 101
1, 126421, Note_on_c, 1, 61, 100
1, 126468, Note_off_c, 1, 61, 59
1, 126468, Note_off_c, 0, 87, 61
1, 126479, Note_on_c, 0, 89, 104
1, 126480, Note_on_c, 1, 51, 99
1, 126526, Note_off_c, 0, 89, 61
1, 126527, Note_off_c, 1, 51, 58
1, 126538, Note_on_c, 1, 61, 102
1, 126541, Note_on_c, 0, 77, 102
1, 126585, Note_off_c, 1, 61, 59
1, 126588, Note_off_c, 0, 77, 61
1, 126601, Note_on_c, 1, 55, 99
1, 126602, Note_on_c, 0, 89, 99
1, 126648, Note_off_c, 1, 55, 58
1, 126649, Note_off_c, 0, 89, 61
1, 126660, Note_on_c, 1, 61, 100
1, 126661, Note_on_c, 0, 77, 100
1, 126707, Note_off_c, 1, 61, 58
1, 126708, Note_off_c, 0, 77, 61
1, 126719, Note_on_c, 1, 51, 100
1, 126722, Note_on_c, 0, 89, 103
1, 126766, Note_off_c, 1, 51, 58
1, 126769, Note_off_c, 0, 89, 61
1, 126780, Note_on_c, 0, 87, 101
1, 126782, Note_on_c, 1, 61, 96
1, 126827, Note_off_c, 0, 87, 61
1, 126829, Note_off_c, 1, 61, 58
1, 126838, Note_on_c, 1, 55, 97
1, 126839, Note_on_c, 0, 85, 98
1, 126885, Note_off_c, 1, 55, 58
1, 126886, Note_off_c, 0, 85, 61
1, 126901, Note_on_c, 1, 61, 101
1, 126902, Note_on_c, 0, 82, 101
1, 126948, Note_off_c, 1, 61, 58
1, 126949, Note_off_c, 0, 82, 61
1, 126959, Note_on_c, 0, 80, 100
1, 126959, Note_on_c, 1, 51, 102
1, 127006, Note_off_c, 1, 51, 58
1, 127022, Note_on_c, 1, 60, 99
1, 127069, Note_off_c, 1, 60, 58
1, 127080, Note_on_c, 1, 56, 96
1, 127127, Note_off_c, 1, 56, 58
1, 127142, Note_on_c, 1, 60, 97
1, 127189, Note_off_c, 1, 60, 58
1, 127198, Note_on_c, 1, 51, 98
1, 127245, Note_off_c, 1, 51, 59
1, 127261, Note_on_c, 1, 60, 94
1, 127308, Note_off_c, 1, 60, 58
1, 127308, Note_off_c, 0, 80, 69
1, 127319, Note_on_c, 0, 75, 98
1, 127319, Note_on_c, 1, 56, 99
1, 127366, Note_off_c, 1, 56, 58
1, 127379, Note_on_c, 1, 60, 95
1, 127426, Note_off_c, 1, 60, 58
1, 127435, Note_off_c, 0, 75, 69
1, 127438, Note_on_c, 0, 77, 92
1, 127438, Note_on_c, 1, 51, 96
1, 127485, Note_off_c, 1, 51, 58
1, 127499, Note_on_c, 1, 60, 98
1, 127546, Note_off_c, 1, 60, 58
1, 127560, Note_on_c, 1, 56, 94
1, 127607, Note_off_c, 1, 56, 58
1, 127622, Note_on_c, 1, 60, 97
1, 127669, Note_off_c, 1, 60, 58
1, 127670, Note_off_c, 0, 77, 68
1, 127679, Note_on_c, 1, 51, 98
1, 127682, Note_on_c, 0, 75, 96
1, 127726, Note_off_c, 1, 51, 58
1, 127742, Note_on_c, 1, 60, 93
1, 127789, Note_off_c, 1, 60, 58
1, 127800, Note_on_c, 1, 56, 93
1, 127847, Note_off_c, 1, 56, 58
1, 127859, Note_on_c, 1, 60, 94
1, 127906, Note_off_c, 1, 60, 59
1, 127914, Note_off_c, 0, 75, 68
1, 127920, Note_on_c, 1, 51, 95
1, 127921, Note_on_c, 0, 73, 94
1, 127967, Note_off_c, 1, 51, 58
1, 127980, Note_on_c, 1, 56, 96
1, 128027, Note_off_c, 1, 56, 58
1, 128042, Note_on_c, 1, 51, 91
1, 128089, Note_off_c, 1, 51, 58
1, 128102, Note_on_c, 1, 56, 91
1, 128149, Note_off_c, 1, 56, 58
1, 128159, Note_on_c, 1, 51, 94
1, 128206, Note_off_c, 1, 51, 58
1, 128222, Note_on_c, 1, 56, 93
1, 128269, Note_off_c, 1, 56, 58
1, 128270, Note_off_c, 0, 73, 69
1, 128279, Note_on_c, 1, 51, 90
1, 128280, Note_on_c, 0, 72, 92
1, 128326, Note_off_c, 1, 51, 58
1, 128341, Note_on_c, 1, 56, 89
1, 128388, Note_off_c, 1, 56, 58
1, 128396, Note_off_c, 0, 72, 68
1, 128398, Note_on_c, 0, 73, 91
1, 128398, Note_on_c, 1, 51, 88
1, 128445, Note_off_c, 1, 51, 58
1, 128460, Note_on_c, 1, 56, 93
1, 128507, Note_off_c, 1, 56, 58
1, 128520, Note_on_c, 1, 51, 92
1, 128567, Note_off_c, 1, 51, 58
1, 128582, Note_on_c, 1, 56, 88
1, 128629, Note_off_c, 1, 56, 59
1, 128630, Note_off_c, 0, 73, 68
1, 128638, Note_on_c, 0, 72, 88
1, 128641, Note_on_c, 1, 51, 90
1, 128688, Note_off_c, 1, 51, 58
1, 128698, Note_on_c, 1, 56, 89
1, 128745, Note_off_c, 1, 56, 58
1, 128758, Note_on_c, 1, 51, 85
1, 128805, Note_off_c, 1, 51, 58
1, 128819, Note_on_c, 1, 56, 84
1, 128866, Note_off_c, 1, 56, 58
1, 128870, Note_off_c, 0, 72, 69
1, 128881, Note_on_c, 0, 70, 87
1, 128882, Note_on_c, 1, 51, 89
1, 128929, Note_off_c, 1, 51, 58
1, 128939, Note_on_c, 1, 58, 85
1, 128986, Note_off_c, 1, 58, 58
1, 129001, Note_on_c, 1, 51, 88
1, 129048, Note_off_c, 1, 51, 59
1, 129062, Note_on_c, 1, 58, 90
1, 129109, Note_off_c, 1, 58, 58
1, 129121, Note_on_c, 1, 51, 86
1, 129168, Note_off_c, 1, 51, 58
1, 129180, Note_on_c, 1, 58, 86
1, 129223, Note_off_c, 0, 70, 68
1, 129227, Note_off_c, 1, 58, 58
1, 129238, Note_on_c, 0, 68, 84
1, 129241, Note_on_c, 1, 51, 85
1, 129288, Note_off_c, 1, 51, 58
1, 129302, Note_on_c, 1, 58, 86
1, 129349, Note_off_c, 1, 58, 58
1, 129351, Note_off_c, 0, 68, 68
1, 129359, Note_on_c, 1, 51, 82
1, 129360, Note_on_c, 0, 70, 86
1, 129406, Note_off_c, 1, 51, 58
1, 129421, Note_on_c, 1, 58, 84
1, 129468, Note_off_c, 1, 58, 58
1, 129482, Note_on_c, 1, 51, 81
1, 129529, Note_off_c, 1, 51, 58
1, 129542, Note_on_c, 1, 58, 86
1, 129587, Note_off_c, 0, 70, 68
1, 129589, Note_off_c, 1, 58, 58
1, 129601, Note_on_c, 1, 51, 85
1, 129602, Note_on_c, 0, 68, 86
1, 129648, Note_off_c, 1, 51, 58
1, 129661, Note_on_c, 1, 58, 80
1, 129708, Note_off_c, 1, 58, 58
1, 129722, Note_on_c, 1, 51, 81
1, 129769, Note_off_c, 1, 51, 58
1, 129778, Note_on_c, 1, 58, 85
1, 129825, Note_off_c, 1, 58, 59
1, 129829, Note_off_c, 0, 68, 68
1, 129841, Note_on_c, 1, 51, 83
1, 129842, Note_on_c, 0, 67, 82
1, 129888, Note_off_c, 1, 51, 58
1, 129901, Note_on_c, 1, 61, 79
1, 129948, Note_off_c, 1, 61, 58
1, 129958, Note_on_c, 1, 55, 79
1, 130005, Note_off_c, 1, 55, 58
1, 130022, Note_on_c, 1, 61, 81
1, 130069, Note_off_c, 1, 61, 58
1, 130080, Note_on_c, 1, 51, 82
1, 130127, Note_off_c, 1, 51, 58
1, 130127, Note_off_c, 0, 67, 69
1, 130140, Note_on_c, 1, 61, 83
1, 130187, Note_off_c, 1, 61, 58
1, 130199, Note_on_c, 1, 55, 77
1, 130200, Note_on_c, 0, 65, 81
1, 130246, Note_off_c, 1, 55, 58
1, 130260, Note_on_c, 1, 61, 82
1, 130295, Note_off_c, 0, 65, 69
1, 130307, Note_off_c, 1, 61, 58
1, 130319, Note_on_c, 0, 67, 77
1, 130322, Note_on_c, 1, 51, 79
1, 130369, Note_off_c, 1, 51, 59
1, 130381, Note_on_c, 1, 61, 76
1, 130428, Note_off_c, 1, 61, 58
1, 130441, Note_on_c, 1, 55, 77
1, 130488, Note_off_c, 1, 55, 58
1, 130500, Note_on_c, 1, 61, 77
1, 130509, Note_off_c, 0, 67, 68
1, 130547, Note_off_c, 1, 61, 58
1, 130558, Note_on_c, 1, 51, 81
1, 130561, Note_on_c, 0, 75, 75
1, 130605, Note_off_c, 1, 51, 58
1, 130622, Note_on_c, 1, 61, 76
1, 130669, Note_off_c, 1, 61, 59
1, 130679, Note_on_c, 1, 55, 74
1, 130726, Note_off_c, 1, 55, 58
1, 130738, Note_on_c, 1, 61, 75
1, 130751, Note_off_c, 0, 75, 68
1, 130785, Note_off_c, 1, 61, 58
1, 130798, Note_on_c, 0, 63, 78
1, 130799, Note_on_c, 0, 60, 78
1, 130801, Note_on_c, 0, 68, 74
1, 130802, Note_on_c, 0, 56, 77
1, 130893, Note_off_c, 0, 63, 68
1, 130894, Note_off_c, 0, 60, 68
1, 130896, Note_off_c, 0, 68, 69
1, 130897, Note_off_c, 0, 56, 68
1, 130918, Note_on_c, 0, 56, 77
1, 130920, Note_on_c, 0, 63, 79
1, 130920, Note_on_c, 0, 60, 77
1, 130922, Note_on_c, 0, 68, 77
1, 131013, Note_off_c, 0, 56, 68
1, 131015, Note_off_c, 0, 60, 69
1, 131015, Note_off_c, 0, 63, 68
1, 131017, Note_off_c, 0, 68, 68
1, 131040, Note_on_c, 0, 68, 77
1, 131041, Note_on_c, 0, 60, 79
1, 131042, Note_on_c, 0, 63, 78
1, 131042, Note_on_c, 0, 56, 80
1, 131135, Note_off_c, 0, 68, 68
1, 131136, Note_off_c, 0, 60, 68
1, 131137, Note_off_c, 0, 56, 68
1, 131137, Note_off_c, 0, 63, 68
1, 131158, Note_on_c, 0, 60, 76
1, 131160, Note_on_c, 0, 68, 82
1, 131160, Note_on_c, 0, 63, 79
1, 131161, Note_on_c, 0, 56, 79
1, 131253, Note_off_c, 0, 60, 69
1, 131255, Note_off_c, 0, 63, 68
1, 131255, Note_off_c, 0, 68, 69
1, 131256, Note_off_c, 0, 56, 68
1, 131280, Note_on_c, 0, 68, 76
1, 131280, Note_on_c, 0, 65, 77
1, 131280, Note_on_c, 0, 60, 79
1, 131280, Note_on_c, 0, 56, 80
1, 131375, Note_off_c, 0, 56, 68
1, 131375, Note_off_c, 0, 60, 68
1, 131375, Note_off_c, 0, 65, 68
1, 131375, Note_off_c, 0, 68, 69
1, 131399, Note_on_c, 0, 56, 83
1, 131400, Note_on_c, 0, 68, 80
1, 131401, Note_on_c, 0, 63, 83
1, 131402, Note_on_c, 0, 60, 77
1, 131494, Note_off_c, 0, 56, 68
1, 131495, Note_off_c, 0, 68, 68
1, 131496, Note_off_c, 0, 63, 68
1, 131497, Note_off_c, 0, 60, 68
1, 131518, Note_on_c, 0, 63, 78
1, 131519, Note_on_c, 0, 60, 84
1, 131521, Note_on_c, 0, 68, 79
1, 131521, Note_on_c, 0, 56, 81
1, 131613, Note_off_c, 0, 63, 68
1, 131614, Note_off_c, 0, 60, 68
1, 131616, Note_off_c, 0, 56, 68
1, 131616, Note_off_c, 0, 68, 68
1, 131638, Note_on_c, 0, 63, 84
1, 131638, Note_on_c, 0, 56, 82
1, 131642, Note_on_c, 0, 68, 81
1, 131642, Note_on_c, 0, 60, 79
1, 131733, Note_off_c, 0, 56, 68
1, 131733, Note_off_c, 0, 63, 68
1, 131737, Note_off_c, 0, 60, 68
1, 131737, Note_off_c, 0, 68, 68
1, 131758, Note_on_c, 0, 56, 85
1, 131760, Note_on_c, 0, 63, 82
1, 131760, Note_on_c, 0, 68, 81
1, 131762, Note_on_c, 0, 60, 85
1, 131853, Note_off_c, 0, 56, 68
1, 131855, Note_off_c, 0, 68, 68
1, 131855, Note_off_c, 0, 63, 68
1, 131857, Note_off_c, 0, 60, 68
1, 131879, Note_on_c, 0, 68, 82
1, 131879, Note_on_c, 0, 60, 83
1, 131879, Note_on_c, 0, 56, 86
1, 131882, Note_on_c, 0, 63, 81
1, 131974, Note_off_c, 0, 56, 68
1, 131974, Note_off_c, 0, 60, 69
1, 131974, Note_off_c, 0, 68, 68
1, 131977, Note_off_c, 0, 63, 68
1, 131998, Note_on_c, 0, 68, 83
1, 131998, Note_on_c, 0, 65, 84
1, 132001, Note_on_c, 0, 60, 87
1, 132001, Note_on_c, 0, 56, 82
1, 132093, Note_off_c, 0, 65, 68
1, 132093, Note_off_c, 0, 68, 69
1, 132096, Note_off_c, 0, 56, 68
1, 132096, Note_off_c, 0, 60, 68
1, 132118, Note_on_c, 0, 63, 87
1, 132118, Note_on_c, 0, 56, 84
1, 132119, Note_on_c, 0, 68, 84
1, 132121, Note_on_c, 0, 60, 84
1, 132213, Note_off_c, 0, 56, 68
1, 132213, Note_off_c, 0, 63, 68
1, 132214, Note_off_c, 0, 68, 68
1, 132216, Note_off_c, 0, 60, 69
1, 132239, Note_on_c, 0, 70, 88
1, 132239, Note_on_c, 0, 56, 85
1, 132242, Note_on_c, 0, 58, 86
1, 132334, Note_off_c, 0, 56, 68
1, 132334, Note_off_c, 0, 70, 68
1, 132337, Note_off_c, 0, 58, 68
1, 132359, Note_on_c, 0, 68, 86
1, 132360, Note_on_c, 0, 60, 89
1, 132361, Note_on_c, 0, 56, 88
1, 132454, Note_off_c, 0, 68, 68
1, 132455, Note_off_c, 0, 60, 69
1, 132456, Note_off_c, 0, 56, 68
1, 132478, Note_on_c, 0, 68, 86
1, 132480, Note_on_c, 0, 60, 90
1, 132480, Note_on_c, 0, 56, 89
1, 132573, Note_off_c, 0, 68, 68
1, 132575, Note_off_c, 0, 56, 68
1, 132575, Note_off_c, 0, 60, 68
1, 132599, Note_on_c, 0, 56, 86
1, 132600, Note_on_c, 0, 68, 86
1, 132600, Note_on_c, 0, 60, 85
1, 132694, Note_off_c, 0, 56, 69
1, 132695, Note_off_c, 0, 60, 68
1, 132695, Note_off_c, 0, 68, 68
1, 132722, Note_on_c, 0, 68, 87
1, 132722, Note_on_c, 0, 60, 92
1, 132722, Note_on_c, 0, 56, 92
1, 132817, Note_off_c, 0, 56, 68
1, 132817, Note_off_c, 0, 60, 68
1, 132817, Note_off_c, 0, 68, 68
1, 132838, Note_on_c, 0, 60, 88
1, 132839, Note_on_c, 0, 68, 87
1, 132842, Note_on_c, 0, 56, 92
1, 132933, Note_off_c, 0, 60, 68
1, 132934, Note_off_c, 0, 68, 68
1, 132937, Note_off_c, 0, 56, 69
1, 132958, Note_on_c, 0, 68, 90
1, 132959, Note_on_c, 0, 60, 91
1, 132961, Note_on_c, 0, 56, 89
1, 133053, Note_off_c, 0, 68, 68
1, 133054, Note_off_c, 0, 60, 68
1, 133056, Note_off_c, 0, 56, 68
1, 133080, Note_on_c, 0, 58, 93
1, 133080, Note_on_c, 0, 56, 88
1, 133082, Note_on_c, 0, 70, 94
1, 133175, Note_off_c, 0, 56, 68
1, 133175, Note_off_c, 0, 58, 68
1, 133177, Note_off_c, 0, 70, 68
1, 133199, Note_on_c, 0, 60, 95
1, 133201, Note_on_c, 0, 55, 89
1, 133202, Note_on_c, 0, 72, 94
1, 133202, Note_on_c, 0, 64, 90
1, 133294, Note_off_c, 0, 60, 68
1, 133296, Note_off_c, 0, 55, 68
1, 133297, Note_off_c, 0, 64, 68
1, 133297, Note_off_c, 0, 72, 68
1, 133319, Note_on_c, 0, 55, 90
1, 133320, Note_on_c, 0, 70, 93
1, 133320, Note_on_c, 0, 64, 96
1, 133320, Note_on_c, 0, 60, 90
1, 133414, Note_off_c, 0, 55, 68
1, 133415, Note_off_c, 0, 60, 68
1, 133415, Note_off_c, 0, 64, 68
1, 133415, Note_off_c, 0, 70, 68
1, 133440, Note_on_c, 0, 68, 93
1, 133440, Note_on_c, 0, 65, 92
1, 133441, Note_on_c, 0, 60, 94
1, 133441, Note_on_c, 0, 56, 96
1, 133535, Note_off_c, 0, 65, 68
1, 133535, Note_off_c, 0, 68, 68
1, 133536, Note_off_c, 0, 56, 68
1, 133536, Note_off_c, 0, 60, 68
1, 133559, Note_on_c, 0, 65, 95
1, 133561, Note_on_c, 0, 60, 98
1, 133561, Note_on_c, 0, 53, 93
1, 133562, Note_on_c, 0, 56, 97
1, 133654, Note_off_c, 0, 65, 68
1, 133656, Note_off_c, 0, 53, 68
1, 133656, Note_off_c, 0, 60, 68
1, 133657, Note_off_c, 0, 56, 68
1, 133679, Note_on_c, 0, 62, 97
1, 133680, Note_on_c, 0, 59, 96
1, 133681, Note_on_c, 0, 56, 94
1, 133682, Note_on_c, 0, 65, 96
1, 133774, Note_off_c, 0, 62, 68
1, 133775, Note_off_c, 0, 59, 68
1, 133776, Note_off_c, 0, 56, 68
1, 133777, Note_off_c, 0, 65, 68
1, 133798, Note_on_c, 0, 65, 94
1, 133800, Note_on_c, 0, 62, 94
1, 133801, Note_on_c, 0, 59, 95
1, 133801, Note_on_c, 0, 56, 96
1, 133893, Note_off_c, 0, 65, 68
1, 133895, Note_off_c, 0, 62, 68
1, 133896, Note_off_c, 0, 56, 68
1, 133896, Note_off_c, 0, 59, 68
1, 133918, Note_on_c, 0, 60, 99
1, 133920, Note_on_c, 0, 63, 94
1, 133921, Note_on_c, 0, 66, 97
1, 133922, Note_on_c, 0, 57, 100
1, 134013, Note_off_c, 0, 60, 68
1, 134015, Note_off_c, 0, 63, 68
1, 134016, Note_off_c, 0, 66, 68
1, 134017, Note_off_c, 0, 57, 68
1, 134039, Note_on_c, 0, 51, 96
1, 134039, Note_on_c, 0, 39, 100
1, 134134, Note_off_c, 0, 39, 68
1, 134134, Note_off_c, 0, 51, 68
1, 134159, Note_on_c, 0, 60, 100
1, 134159, Note_on_c, 0, 57, 97
1, 134160, Note_on_c, 0, 63, 98
1, 134162, Note_on_c, 0, 66, 100
1, 134254, Note_off_c, 0, 57, 68
1, 134254, Note_off_c, 0, 60, 68
1, 134255, Note_off_c, 0, 63, 68
1, 134257, Note_off_c, 0, 66, 68
1, 134278, Note_on_c, 0, 66, 96
1, 134278, Note_on_c, 0, 60, 98
1, 134279, Note_on_c, 0, 57, 96
1, 134281, Note_on_c, 0, 63, 101
1, 134373, Note_off_c, 0, 60, 68
1, 134373, Note_off_c, 0, 66, 68
1, 134374, Note_off_c, 0, 57, 68
1, 134376, Note_off_c, 0, 63, 68
1, 134398, Note_on_c, 0, 64, 103
1, 134399, Note_on_c, 0, 61, 102
1, 134400, Note_on_c, 0, 67, 102
1, 134402, Note_on_c, 0, 58, 102
1, 134493, Note_off_c, 0, 64, 68
1, 134494, Note_off_c, 0, 61, 68
1, 134495, Note_off_c, 0, 67, 68
1, 134497, Note_off_c, 0, 58, 68
1, 134518, Note_on_c, 0, 51, 101
1, 134518, Note_on_c, 0, 39, 98
1, 134613, Note_off_c, 0, 39, 68
1, 134613, Note_off_c, 0, 51, 68
1, 134638, Note_on_c, 0, 58, 105
1, 134639, Note_on_c, 0, 61, 103
1, 134639, Note_on_c, 0, 64, 103
1, 134641, Note_on_c, 0, 67, 101
1, 134733, Note_off_c, 0, 58, 68
1, 134734, Note_off_c, 0, 64, 69
1, 134734, Note_off_c, 0, 61, 68
1, 134736, Note_off_c, 0, 67, 68
1, 134758, Note_on_c, 0, 67, 105
1, 134759, Note_on_c, 0, 64, 102
1, 134760, Note_on_c, 0, 58, 104
1, 134762, Note_on_c, 0, 61, 102
1, 134853, Note_off_c, 0, 67, 69
1, 134854, Note_off_c, 0, 64, 68
1, 134855, Note_off_c, 0, 58, 69
1, 134857, Note_off_c, 0, 61, 68
1, 134878, Note_on_c, 0, 59, 104
1, 134880, Note_on_c, 0, 65, 102
1, 134881, Note_on_c, 0, 62, 104
1, 134882, Note_on_c, 0, 68, 101
1, 134973, Note_off_c, 0, 59, 68
1, 134975, Note_off_c, 0, 65, 68
1, 134976, Note_off_c, 0, 62, 68
1, 134977, Note_off_c, 0, 68, 68
1, 134999, Note_on_c, 0, 51, 105
1, 135002, Note_on_c, 0, 39, 107
1, 135094, Note_off_c, 0, 51, 69
1, 135097, Note_off_c, 0, 39, 68
1, 135118, Note_on_c, 0, 68, 104
1, 135118, Note_on_c, 0, 65, 108
1, 135118, Note_on_c, 0, 62, 107
1, 135118, Note_on_c, 0, 59, 103
1, 135213, Note_off_c, 0, 59, 68
1, 135213, Note_off_c, 0, 62, 68
1, 135213, Note_off_c, 0, 65, 68
1, 135213, Note_off_c, 0, 68, 68
1, 135238, Note_on_c, 0, 59, 105
1, 135241, Note_on_c, 0, 62, 109
1, 135242, Note_on_c, 0, 68, 109
1, 135242, Note_on_c, 0, 65, 107
1, 135333, Note_off_c, 0, 59, 68
1, 135336, Note_off_c, 0, 62, 68
1, 135337, Note_off_c, 0, 65, 68
1, 135337, Note_off_c, 0, 68, 68
1, 135360, Note_on_c, 0, 66, 108
1, 135360, Note_on_c, 0, 63, 109
1, 135361, Note_on_c, 0, 69, 105
1, 135362, Note_on_c, 0, 60, 105
1, 135455, Note_off_c, 0, 63, 68
1, 135455, Note_off_c, 0, 66, 68
1, 135456, Note_off_c, 0, 69, 68
1, 135457, Note_off_c, 0, 60, 69
1, 135478, Note_on_c, 0, 39, 108
1, 135480, Note_on_c, 0, 51, 110
1, 135573, Note_off_c, 0, 39, 68
1, 135575, Note_off_c, 0, 51, 68
1, 135598, Note_on_c, 0, 60, 111
1, 135598, Note_on_c, 0, 63, 108
1, 135598, Note_on_c, 0, 66, 111
1, 135600, Time_signature, 8, 2, 24, 8
1, 135601, Note_on_c, 0, 69, 105
1, 135719, Note_on_c, 1, 51, 119
1, 135719, Note_on_c, 1, 39, 123
1, 135788, Note_off_c, 0, 66, 69
1, 135788, Note_off_c, 0, 63, 68
1, 135788, Note_off_c, 0, 60, 68
1, 135791, Note_off_c, 0, 69, 68
1, 135823, Note_off_c, 1, 39, 58
1, 135823, Note_off_c, 1, 51, 58
1, 135838, Note_on_c, 0, 66, 107
1, 135839, Note_on_c, 0, 63, 112
1, 135839, Note_on_c, 0, 60, 109
1, 135842, Note_on_c, 0, 69, 112
1, 135959, Note_on_c, 1, 39, 124
1, 135960, Note_on_c, 1, 51, 123
1, 136028, Note_off_c, 0, 66, 68
1, 136029, Note_off_c, 0, 60, 69
1, 136029, Note_off_c, 0, 63, 68
1, 136032, Note_off_c, 0, 69, 68
1, 136063, Note_off_c, 1, 39, 59
1, 136064, Note_off_c, 1, 51, 58
1, 136078, Note_on_c, 0, 67, 113
1, 136079, Note_on_c, 0, 61, 114
1, 136080, Note_on_c, 0, 70, 110
1, 136082, Note_on_c, 0, 64, 110
1, 136199, Note_on_c, 1, 38, 118
1, 136200, Note_on_c, 1, 50, 120
1, 136268, Note_off_c, 0, 67, 68
1, 136269, Note_off_c, 0, 61, 68
1, 136270, Note_off_c, 0, 70, 68
1, 136272, Note_off_c, 0, 64, 68
1, 136303, Note_off_c, 1, 38, 58
1, 136304, Note_off_c, 1, 50, 58
1, 136319, Note_on_c, 0, 68, 113
1, 136320, Note_on_c, 0, 71, 110
1, 136322, Note_on_c, 0, 65, 112
1, 136322, Note_on_c, 0, 62, 114
1, 136439, Note_on_c, 1, 49, 122
1, 136441, Note_on_c, 1, 37, 118
1, 136509, Note_off_c, 0, 68, 68
1, 136510, Note_off_c, 0, 71, 69
1, 136512, Note_off_c, 0, 62, 68
1, 136512, Note_off_c, 0, 65, 68
1, 136543, Note_off_c, 1, 49, 58
1, 136545, Note_off_c, 1, 37, 58
1, 136558, Note_on_c, 0, 69, 116
1, 136559, Note_on_c, 0, 72, 117
1, 136559, Note_on_c, 0, 66, 115
1, 136561, Note_on_c, 0, 63, 118
1, 136678, Note_on_c, 1, 36, 124
1, 136682, Note_on_c, 1, 48, 120
1, 136748, Note_off_c, 0, 69, 69
1, 136749, Note_off_c, 0, 66, 68
1, 136749, Note_off_c, 0, 72, 68
1, 136751, Note_off_c, 0, 63, 68
1, 136782, Note_off_c, 1, 36, 58
1, 136786, Note_off_c, 1, 48, 58
1, 136799, Note_on_c, 0, 73, 116
1, 136800, Note_on_c, 0, 70, 115
1, 136802, Note_on_c, 0, 67, 118
1, 136802, Note_on_c, 0, 64, 114
1, 136919, Note_on_c, 1, 46, 120
1, 136920, Note_on_c, 1, 34, 120
1, 136989, Note_off_c, 0, 73, 68
1, 136990, Note_off_c, 0, 70, 68
1, 136992, Note_off_c, 0, 64, 69
1, 136992, Note_off_c, 0, 67, 68
1, 137023, Note_off_c, 1, 46, 58
1, 137024, Note_off_c, 1, 34, 58
1, 137038, Note_on_c, 0, 71, 118
1, 137040, Note_on_c, 0, 65, 120
1, 137042, Note_on_c, 0, 74, 119
1, 137042, Note_on_c, 0, 68, 118
1, 137161, Note_on_c, 1, 45, 119
1, 137161, Note_on_c, 1, 33, 120
1, 137228, Note_off_c, 0, 71, 69
1, 137230, Note_off_c, 0, 65, 68
1, 137232, Note_off_c, 0, 68, 68
1, 137232, Note_off_c, 0, 74, 68
1, 137265, Note_off_c, 1, 33, 58
1, 137265, Note_off_c, 1, 45, 58
1, 137278, Note_on_c, 0, 75, 119
1, 137278, Note_on_c, 0, 72, 121
1, 137279, Note_on_c, 0, 66, 122
1, 137281, Note_on_c, 0, 69, 116
1, 137398, Note_on_c, 1, 44, 118
1, 137398, Note_on_c, 1, 32, 121
1, 137468, Note_off_c, 0, 72, 68
1, 137468, Note_off_c, 0, 75, 68
1, 137469, Note_off_c, 0, 66, 68
1, 137471, Note_off_c, 0, 69, 68
1, 137502, Note_off_c, 1, 32, 58
1, 137502, Note_off_c, 1, 44, 58
1, 137520, Time_signature, 4, 2, 24, 8
1, 137521, Note_on_c, 1, 44, 80
1, 137521, Note_on_c, 1, 32, 85
1, 137582, Note_on_c, 0, 51, 110
1, 137632, Note_off_c, 1, 32, 59
1, 137632, Note_off_c, 1, 44, 58
1, 137636, Note_off_c, 0, 51, 61
1, 137642, Note_on_c, 0, 56, 107
1, 137642, Note_on_c, 1, 39, 104
1, 137696, Note_off_c, 0, 56, 60
1, 137698, Note_on_c, 0, 60, 111
1, 137752, Note_off_c, 0, 60, 61
1, 137753, Note_off_c, 1, 39, 58
1, 137759, Note_on_c, 0, 63, 109
1, 137759, Note_on_c, 1, 32, 105
1, 137813, Note_off_c, 0, 63, 61
1, 137819, Note_on_c, 0, 56, 109
1, 137870, Note_off_c, 1, 32, 58
1, 137873, Note_off_c, 0, 56, 61
1, 137878, Note_on_c, 0, 60, 112
1, 137882, Note_on_c, 1, 39, 110
1, 137932, Note_off_c, 0, 60, 61
1, 137941, Note_on_c, 0, 63, 111
1, 137993, Note_off_c, 1, 39, 58
1, 137995, Note_off_c, 0, 63, 61
1, 137999, Note_on_c, 1, 32, 112
1, 138001, Note_on_c, 0, 68, 114
1, 138055, Note_off_c, 0, 68, 60
1, 138060, Note_on_c, 0, 60, 114
1, 138110, Note_off_c, 1, 32, 58
1, 138114, Note_off_c, 0, 60, 61
1, 138118, Note_on_c, 1, 39, 114
1, 138119, Note_on_c, 0, 63, 113
1, 138173, Note_off_c, 0, 63, 61
1, 138179, Note_on_c, 0, 68, 112
1, 138229, Note_off_c, 1, 39, 58
1, 138233, Note_off_c, 0, 68, 61
1, 138238, Note_on_c, 1, 32, 109
1, 138240, Note_on_c, 0, 72, 112
1, 138294, Note_off_c, 0, 72, 61
1, 138300, Note_on_c, 0, 63, 116
1, 138349, Note_off_c, 1, 32, 58
1, 138354, Note_off_c, 0, 63, 61
1, 138360, Note_on_c, 1, 39, 110
1, 138361, Note_on_c, 0, 68, 116
1, 138415, Note_off_c, 0, 68, 61
1, 138419, Note_on_c, 0, 72, 118
1, 138471, Note_off_c, 1, 39, 58
1, 138473, Note_off_c, 0, 72, 61
1, 138482, Note_on_c, 0, 75, 118
1, 138482, Note_on_c, 1, 32, 108
1, 138536, Note_off_c, 0, 75, 60
1, 138541, Note_on_c, 0, 68, 115
1, 138593, Note_off_c, 1, 32, 58
1, 138595, Note_off_c, 0, 68, 60
1, 138598, Note_on_c, 0, 72, 118
1, 138600, Note_on_c, 1, 39, 120
1, 138652, Note_off_c, 0, 72, 60
1, 138660, Note_on_c, 0, 75, 114
1, 138711, Note_off_c, 1, 39, 59
1, 138714, Note_off_c, 0, 75, 60
1, 138718, Note_on_c, 0, 80, 116
1, 138720, Note_on_c, 1, 32, 114
1, 138772, Note_off_c, 0, 80, 61
1, 138781, Note_on_c, 0, 72, 118
1, 138831, Note_off_c, 1, 32, 58
1, 138835, Note_off_c, 0, 72, 60
1, 138841, Note_on_c, 0, 75, 116
1, 138841, Note_on_c, 1, 39, 125
1, 138895, Note_off_c, 0, 75, 61
1, 138899, Note_on_c, 0, 80, 120
1, 138952, Note_off_c, 1, 39, 58
1, 138953, Note_off_c, 0, 80, 61
1, 138962, Note_on_c, 0, 84, 117
1, 138962, Note_on_c, 1, 32, 107
1, 139016, Note_off_c, 0, 84, 60
1, 139020, Note_on_c, 0, 75, 116
1, 139073, Note_off_c, 1, 32, 59
1, 139074, Note_off_c, 0, 75, 61
1, 139079, Note_on_c, 0, 80, 117
1, 139082, Note_on_c, 1, 39, 113
1, 139133, Note_off_c, 0, 80, 61
1, 139141, Note_on_c, 0, 84, 121
1, 139193, Note_off_c, 1, 39, 58
1, 139195, Note_off_c, 0, 84, 61
1, 139199, Note_on_c, 1, 44, 125
1, 139199, Note_on_c, 1, 32, 127
1, 139200, Note_on_c, 0, 80, 116
1, 139201, Note_on_c, 0, 87, 120
1, 139201, Note_on_c, 0, 84, 121
1, 139201, Note_on_c, 0, 75, 118
1, 139308, Note_off_c, 0, 80, 68
1, 139309, Note_off_c, 0, 75, 68
1, 139309, Note_off_c, 0, 84, 68
1, 139309, Note_off_c, 0, 87, 68
1, 139310, Note_off_c, 1, 32, 59
1, 139310, Note_off_c, 1, 44, 58
1, 139318, Note_on_c, 0, 80, 118
1, 139319, Note_on_c, 0, 87, 122
1, 139319, Note_on_c, 0, 84, 119
1, 139321, Note_on_c, 0, 75, 117
1, 139321, Note_on_c, 1, 39, 127
1, 139426, Note_off_c, 0, 80, 68
1, 139427, Note_off_c, 0, 84, 68
1, 139427, Note_off_c, 0, 87, 68
1, 139429, Note_off_c, 0, 75, 68
1, 139432, Note_off_c, 1, 39, 58
1, 139438, Note_on_c, 1, 31, 109
1, 139498, Note_on_c, 0, 55, 74
1, 139549, Note_off_c, 1, 31, 58
1, 139552, Note_off_c, 0, 55, 61
1, 139559, Note_on_c, 1, 39, 114
1, 139562, Note_on_c, 0, 58, 78
1, 139616, Note_off_c, 0, 58, 60
1, 139620, Note_on_c, 0, 61, 79
1, 139670, Note_off_c, 1, 39, 59
1, 139674, Note_off_c, 0, 61, 61
1, 139680, Note_on_c, 0, 67, 83
1, 139681, Note_on_c, 1, 31, 111
1, 139734, Note_off_c, 0, 67, 60
1, 139741, Note_on_c, 0, 58, 84
1, 139792, Note_off_c, 1, 31, 58
1, 139795, Note_off_c, 0, 58, 60
1, 139800, Note_on_c, 0, 61, 80
1, 139802, Note_on_c, 1, 39, 110
1, 139854, Note_off_c, 0, 61, 61
1, 139858, Note_on_c, 0, 67, 89
1, 139912, Note_off_c, 0, 67, 61
1, 139913, Note_off_c, 1, 39, 58
1, 139922, Note_on_c, 0, 70, 83
1, 139922, Note_on_c, 1, 31, 112
1, 139976, Note_off_c, 0, 70, 61
1, 139978, Note_on_c, 0, 61, 82
1, 140032, Note_off_c, 0, 61, 61
1, 140033, Note_off_c, 1, 31, 58
1, 140039, Note_on_c, 0, 67, 81
1, 140039, Note_on_c, 1, 39, 107
1, 140093, Note_off_c, 0, 67, 61
1, 140098, Note_on_c, 0, 70, 80
1, 140150, Note_off_c, 1, 39, 58
1, 140152, Note_off_c, 0, 70, 61
1, 140158, Note_on_c, 0, 73, 79
1, 140162, Note_on_c, 1, 31, 107
1, 140212, Note_off_c, 0, 73, 61
1, 140221, Note_on_c, 0, 67, 81
1, 140273, Note_off_c, 1, 31, 58
1, 140275, Note_off_c, 0, 67, 61
1, 140280, Note_on_c, 0, 70, 76
1, 140281, Note_on_c, 1, 39, 107
1, 140334, Note_off_c, 0, 70, 61
1, 140341, Note_on_c, 0, 73, 83
1, 140392, Note_off_c, 1, 39, 58
1, 140395, Note_off_c, 0, 73, 61
1, 140399, Note_on_c, 0, 79, 80
1, 140399, Note_on_c, 1, 31, 112
1, 140453, Note_off_c, 0, 79, 60
1, 140459, Note_on_c, 0, 70, 78
1, 140510, Note_off_c, 1, 31, 58
1, 140513, Note_off_c, 0, 70, 61
1, 140519, Note_on_c, 1, 39, 104
1, 140520, Note_on_c, 0, 73, 76
1, 140574, Note_off_c, 0, 73, 61
1, 140580, Note_on_c, 0, 79, 90
1, 140630, Note_off_c, 1, 39, 58
1, 140634, Note_off_c, 0, 79, 61
1, 140638, Note_on_c, 0, 82, 87
1, 140639, Note_on_c, 1, 31, 107
1, 140692, Note_off_c, 0, 82, 60
1, 140698, Note_on_c, 0, 73, 80
1, 140750, Note_off_c, 1, 31, 58
1, 140752, Note_off_c, 0, 73, 61
1, 140758, Note_on_c, 0, 79, 87
1, 140760, Note_on_c, 1, 39, 104
1, 140812, Note_off_c, 0, 79, 61
1, 140820, Note_on_c, 0, 82, 81
1, 140871, Note_off_c, 1, 39, 58
1, 140874, Note_off_c, 0, 82, 61
1, 140879, Note_on_c, 0, 85, 85
1, 140881, Note_on_c, 1, 31, 112
1, 140933, Note_off_c, 0, 85, 60
1, 140938, Note_on_c, 0, 79, 88
1, 140992, Note_off_c, 0, 79, 61
1, 140992, Note_off_c, 1, 31, 58
1, 141000, Note_on_c, 0, 82, 84
1, 141000, Note_on_c, 1, 39, 111
1, 141054, Note_off_c, 0, 82, 61
1, 141060, Note_on_c, 0, 85, 81
1, 141111, Note_off_c, 1, 39, 58
1, 141114, Note_off_c, 0, 85, 61
1, 141118, Note_on_c, 0, 87, 122
1, 141118, Note_on_c, 0, 79, 123
1, 141118, Note_on_c, 0, 75, 118
1, 141118, Note_on_c, 1, 43, 127
1, 141119, Note_on_c, 0, 85, 122
1, 141119, Note_on_c, 0, 82, 118
1, 141121, Note_on_c, 1, 31, 127
1, 141226, Note_off_c, 0, 75, 68
1, 141226, Note_off_c, 0, 79, 68
1, 141226, Note_off_c, 0, 87, 68
1, 141227, Note_off_c, 0, 82, 68
1, 141227, Note_off_c, 0, 85, 68
1, 141229, Note_off_c, 1, 43, 59
1, 141232, Note_off_c, 1, 31, 58
1, 141238, Note_on_c, 1, 39, 125
1, 141239, Note_on_c, 0, 85, 123
1, 141239, Note_on_c, 0, 75, 124
1, 141240, Note_on_c, 0, 87, 124
1, 141241, Note_on_c, 0, 79, 120
1, 141242, Note_on_c, 0, 82, 124
1, 141347, Note_off_c, 0, 75, 68
1, 141347, Note_off_c, 0, 85, 68
1, 141348, Note_off_c, 0, 87, 68
1, 141349, Note_off_c, 0, 79, 68
1, 141349, Note_off_c, 1, 39, 59
1, 141350, Note_off_c, 0, 82, 68
1, 141360, Note_on_c, 1, 30, 96
1, 141422, Note_on_c, 0, 54, 105
1, 141471, Note_off_c, 1, 30, 58
1, 141476, Note_off_c, 0, 54, 61
1, 141478, Note_on_c, 0, 57, 85
1, 141479, Note_on_c, 1, 39, 111
1, 141532, Note_off_c, 0, 57, 61
1, 141539, Note_on_c, 0, 60, 77
1, 141590, Note_off_c, 1, 39, 58
1, 141593, Note_off_c, 0, 60, 61
1, 141600, Note_on_c, 1, 30, 97
1, 141601, Note_on_c, 0, 66, 88
1, 141655, Note_off_c, 0, 66, 60
1, 141658, Note_on_c, 0, 57, 87
1, 141711, Note_off_c, 1, 30, 58
1, 141712, Note_off_c, 0, 57, 61
1, 141719, Note_on_c, 1, 39, 103
1, 141722, Note_on_c, 0, 60, 93
1, 141776, Note_off_c, 0, 60, 61
1, 141779, Note_on_c, 0, 66, 82
1, 141830, Note_off_c, 1, 39, 59
1, 141833, Note_off_c, 0, 66, 61
1, 141839, Note_on_c, 1, 30, 106
1, 141840, Note_on_c, 0, 69, 92
1, 141894, Note_off_c, 0, 69, 60
1, 141901, Note_on_c, 0, 60, 84
1, 141950, Note_off_c, 1, 30, 59
1, 141955, Note_off_c, 0, 60, 61
1, 141961, Note_on_c, 1, 39, 104
1, 141962, Note_on_c, 0, 66, 77
1, 142016, Note_off_c, 0, 66, 61
1, 142022, Note_on_c, 0, 69, 90
1, 142072, Note_off_c, 1, 39, 58
1, 142076, Note_off_c, 0, 69, 60
1, 142079, Note_on_c, 0, 72, 89
1, 142081, Note_on_c, 1, 30, 104
1, 142133, Note_off_c, 0, 72, 61
1, 142141, Note_on_c, 0, 66, 89
1, 142192, Note_off_c, 1, 30, 58
1, 142195, Note_off_c, 0, 66, 61
1, 142200, Note_on_c, 1, 39, 106
1, 142201, Note_on_c, 0, 69, 91
1, 142255, Note_off_c, 0, 69, 61
1, 142262, Note_on_c, 0, 72, 89
1, 142311, Note_off_c, 1, 39, 58
1, 142316, Note_off_c, 0, 72, 60
1, 142320, Note_on_c, 0, 78, 105
1, 142321, Note_on_c, 1, 30, 104
1, 142374, Note_off_c, 0, 78, 61
1, 142379, Note_on_c, 0, 69, 71
1, 142432, Note_off_c, 1, 30, 59
1, 142433, Note_off_c, 0, 69, 60
1, 142441, Note_on_c, 0, 72, 78
1, 142442, Note_on_c, 1, 39, 113
1, 142495, Note_off_c, 0, 72, 61
1, 142502, Note_on_c, 0, 78, 86
1, 142553, Note_off_c, 1, 39, 59
1, 142556, Note_off_c, 0, 78, 61
1, 142560, Note_on_c, 1, 30, 111
1, 142561, Note_on_c, 0, 81, 89
1, 142615, Note_off_c, 0, 81, 61
1, 142622, Note_on_c, 0, 72, 77
1, 142671, Note_off_c, 1, 30, 58
1, 142676, Note_off_c, 0, 72, 61
1, 142681, Note_on_c, 0, 78, 83
1, 142682, Note_on_c, 1, 39, 108
1, 142735, Note_off_c, 0, 78, 60
1, 142739, Note_on_c, 0, 81, 94
1, 142793, Note_off_c, 0, 81, 61
1, 142793, Note_off_c, 1, 39, 58
1, 142799, Note_on_c, 0, 84, 90
1, 142800, Note_on_c, 1, 30, 108
1, 142853, Note_off_c, 0, 84, 60
1, 142862, Note_on_c, 0, 78, 83
1, 142911, Note_off_c, 1, 30, 58
1, 142916, Note_off_c, 0, 78, 60
1, 142919, Note_on_c, 1, 39, 108
1, 142920, Note_on_c, 0, 81, 87
1, 142974, Note_off_c, 0, 81, 60
1, 142980, Note_on_c, 0, 84, 93
1, 143030, Note_off_c, 1, 39, 59
1, 143034, Note_off_c, 0, 84, 61
1, 143038, Note_on_c, 0, 81, 119
1, 143038, Note_on_c, 1, 42, 127
1, 143040, Note_on_c, 0, 84, 122
1, 143041, Note_on_c, 0, 78, 121
1, 143041, Note_on_c, 1, 30, 125
1, 143042, Note_on_c, 0, 90, 124
1, 143146, Note_off_c, 0, 81, 68
1, 143148, Note_off_c, 0, 84, 68
1, 143149, Note_off_c, 0, 78, 69
1, 143149, Note_off_c, 1, 42, 58
1, 143150, Note_off_c, 0, 90, 68
1, 143152, Note_off_c, 1, 30, 58
1, 143161, Note_on_c, 0, 84, 124
1, 143161, Note_on_c, 0, 81, 120
1, 143162, Note_on_c, 0, 90, 122
1, 143162, Note_on_c, 0, 78, 118
1, 143162, Note_on_c, 1, 39, 127
1, 143269, Note_off_c, 0, 81, 68
1, 143269, Note_off_c, 0, 84, 69
1, 143270, Note_off_c, 0, 78, 68
1, 143270, Note_off_c, 0, 90, 68
1, 143273, Note_off_c, 1, 39, 58
1, 143280, Note_on_c, 1, 31, 108
1, 143340, Note_on_c, 0, 55, 85
1, 143391, Note_off_c, 1, 31, 58
1, 143394, Note_off_c, 0, 55, 61
1, 143398, Note_on_c, 0, 58, 85
1, 143401, Note_on_c, 1, 38, 117
1, 143452, Note_off_c, 0, 58, 61
1, 143461, Note_on_c, 0, 62, 84
1, 143512, Note_off_c, 1, 38, 58
1, 143515, Note_off_c, 0, 62, 61
1, 143519, Note_on_c, 1, 31, 108
1, 143520, Note_on_c, 0, 67, 83
1, 143574, Note_off_c, 0, 67, 60
1, 143581, Note_on_c, 0, 67, 82
1, 143630, Note_off_c, 1, 31, 58
1, 143635, Note_off_c, 0, 67, 61
1, 143638, Note_on_c, 0, 70, 85
1, 143640, Note_on_c, 1, 38, 123
1, 143692, Note_off_c, 0, 70, 61
1, 143698, Note_on_c, 0, 74, 85
1, 143751, Note_off_c, 1, 38, 59
1, 143752, Note_off_c, 0, 74, 61
1, 143759, Note_on_c, 1, 31, 111
1, 143761, Note_on_c, 0, 79, 88
1, 143815, Note_off_c, 0, 79, 60
1, 143818, Note_on_c, 0, 79, 85
1, 143870, Note_off_c, 1, 31, 58
1, 143872, Note_off_c, 0, 79, 61
1, 143878, Note_on_c, 1, 38, 119
1, 143881, Note_on_c, 0, 82, 82
1, 143935, Note_off_c, 0, 82, 60
1, 143940, Note_on_c, 0, 86, 85
1, 143989, Note_off_c, 1, 38, 58
1, 143994, Note_off_c, 0, 86, 60
1, 143998, Note_on_c, 0, 79, 123
1, 144001, Note_on_c, 0, 82, 122
1, 144001, Note_on_c, 1, 43, 126
1, 144002, Note_on_c, 0, 91, 118
1, 144002, Note_on_c, 0, 86, 124
1, 144002, Note_on_c, 1, 31, 126
1, 144106, Note_off_c, 0, 79, 68
1, 144109, Note_off_c, 0, 82, 68
1, 144110, Note_off_c, 0, 86, 68
1, 144110, Note_off_c, 0, 91, 69
1, 144112, Note_off_c, 1, 43, 58
1, 144113, Note_off_c, 1, 31, 58
1, 144118, Note_on_c, 0, 79, 121
1, 144119, Note_on_c, 0, 86, 121
1, 144121, Note_on_c, 0, 91, 121
1, 144121, Note_on_c, 0, 82, 123
1, 144121, Note_on_c, 1, 38, 127
1, 144226, Note_off_c, 0, 79, 68
1, 144227, Note_off_c, 0, 86, 68
1, 144229, Note_off_c, 0, 82, 68
1, 144229, Note_off_c, 0, 91, 68
1, 144232, Note_off_c, 1, 38, 58
1, 144239, Note_on_c, 1, 31, 121
1, 144299, Note_on_c, 0, 55, 87
1, 144350, Note_off_c, 1, 31, 58
1, 144353, Note_off_c, 0, 55, 60
1, 144359, Note_on_c, 0, 58, 79
1, 144362, Note_on_c, 1, 37, 122
1, 144413, Note_off_c, 0, 58, 61
1, 144421, Note_on_c, 0, 61, 88
1, 144473, Note_off_c, 1, 37, 58
1, 144475, Note_off_c, 0, 61, 60
1, 144478, Note_on_c, 1, 31, 111
1, 144482, Note_on_c, 0, 67, 89
1, 144536, Note_off_c, 0, 67, 61
1, 144539, Note_on_c, 0, 67, 85
1, 144589, Note_off_c, 1, 31, 58
1, 144593, Note_off_c, 0, 67, 61
1, 144599, Note_on_c, 0, 70, 90
1, 144601, Note_on_c, 1, 37, 124
1, 144653, Note_off_c, 0, 70, 61
1, 144662, Note_on_c, 0, 73, 81
1, 144712, Note_off_c, 1, 37, 59
1, 144716, Note_off_c, 0, 73, 61
1, 144718, Note_on_c, 1, 31, 112
1, 144719, Note_on_c, 0, 79, 90
1, 144773, Note_off_c, 0, 79, 61
1, 144782, Note_on_c, 0, 79, 92
1, 144829, Note_off_c, 1, 31, 58
1, 144836, Note_off_c, 0, 79, 60
1, 144839, Note_on_c, 0, 82, 81
1, 144842, Note_on_c, 1, 37, 119
1, 144893, Note_off_c, 0, 82, 61
1, 144901, Note_on_c, 0, 85, 84
1, 144953, Note_off_c, 1, 37, 58
1, 144955, Note_off_c, 0, 85, 61
1, 144958, Note_on_c, 0, 79, 122
1, 144959, Note_on_c, 0, 85, 118
1, 144960, Note_on_c, 0, 91, 121
1, 144960, Note_on_c, 1, 43, 125
1, 144961, Note_on_c, 0, 82, 120
1, 144961, Note_on_c, 1, 31, 125
1, 145066, Note_off_c, 0, 79, 68
1, 145067, Note_off_c, 0, 85, 68
1, 145068, Note_off_c, 0, 91, 68
1, 145069, Note_off_c, 0, 82, 68
1, 145071, Note_off_c, 1, 43, 58
1, 145072, Note_off_c, 1, 31, 59
1, 145079, Note_on_c, 0, 79, 120
1, 145080, Note_on_c, 0, 82, 118
1, 145081, Note_on_c, 0, 91, 122
1, 145081, Note_on_c, 1, 37, 127
1, 145082, Note_on_c, 0, 85, 119
1, 145187, Note_off_c, 0, 79, 68
1, 145188, Note_off_c, 0, 82, 68
1, 145189, Note_off_c, 0, 91, 68
1, 145190, Note_off_c, 0, 85, 68
1, 145192, Note_off_c, 1, 37, 58
1, 145202, Note_on_c, 0, 91, 120
1, 145202, Note_on_c, 1, 31, 119
1, 145297, Note_off_c, 1, 31, 58
1, 145319, Note_on_c, 1, 37, 121
1, 145392, Note_off_c, 0, 91, 68
1, 145414, Note_off_c, 1, 37, 58
1, 145439, Note_on_c, 0, 91, 119
1, 145440, Note_on_c, 1, 31, 117
1, 145470, Note_off_c, 0, 91, 60
1, 145479, Note_on_c, 0, 92, 119
1, 145510, Note_off_c, 0, 92, 61
1, 145520, Note_on_c, 0, 91, 113
1, 145535, Note_off_c, 1, 31, 58
1, 145551, Note_off_c, 0, 91, 61
1, 145561, Note_on_c, 1, 41, 118
1, 145562, Note_on_c, 0, 89, 114
1, 145593, Note_off_c, 0, 89, 61
1, 145600, Note_on_c, 0, 85, 113
1, 145631, Note_off_c, 0, 85, 61
1, 145639, Note_on_c, 0, 82, 118
1, 145656, Note_off_c, 1, 41, 58
1, 145670, Note_off_c, 0, 82, 61
1, 145682, Note_on_c, 0, 89, 111
1, 145682, Note_on_c, 1, 31, 112
1, 145713, Note_off_c, 0, 89, 60
1, 145722, Note_on_c, 0, 91, 115
1, 145753, Note_off_c, 0, 91, 61
1, 145762, Note_on_c, 0, 89, 112
1, 145777, Note_off_c, 1, 31, 58
1, 145793, Note_off_c, 0, 89, 61
1, 145799, Note_on_c, 0, 85, 113
1, 145799, Note_on_c, 1, 37, 111
1, 145830, Note_off_c, 0, 85, 61
1, 145840, Note_on_c, 0, 82, 114
1, 145871, Note_off_c, 0, 82, 60
1, 145878, Note_on_c, 0, 79, 110
1, 145894, Note_off_c, 1, 37, 58
1, 145909, Note_off_c, 0, 79, 61
1, 145918, Note_on_c, 0, 85, 111
1, 145918, Note_on_c, 1, 31, 109
1, 145949, Note_off_c, 0, 85, 60
1, 145961, Note_on_c, 0, 87, 108
1, 145992, Note_off_c, 0, 87, 61
1, 145998, Note_on_c, 0, 85, 112
1, 146013, Note_off_c, 1, 31, 58
1, 146029, Note_off_c, 0, 85, 61
1, 146038, Note_on_c, 1, 46, 112
1, 146042, Note_on_c, 0, 82, 108
1, 146073, Note_off_c, 0, 82, 60
1, 146081, Note_on_c, 0, 79, 109
1, 146112, Note_off_c, 0, 79, 60
1, 146120, Note_on_c, 0, 77, 108
1, 146133, Note_off_c, 1, 46, 58
1, 146151, Note_off_c, 0, 77, 61
1, 146159, Note_on_c, 0, 82, 110
1, 146159, Note_on_c, 1, 31, 106
1, 146190, Note_off_c, 0, 82, 61
1, 146200, Note_on_c, 0, 84, 109
1, 146231, Note_off_c, 0, 84, 61
1, 146242, Note_on_c, 0, 82, 105
1, 146254, Note_off_c, 1, 31, 58
1, 146273, Note_off_c, 0, 82, 61
1, 146280, Note_on_c, 0, 79, 109
1, 146280, Note_on_c, 1, 43, 108
1, 146311, Note_off_c, 0, 79, 60
1, 146322, Note_on_c, 0, 75, 106
1, 146353, Note_off_c, 0, 75, 61
1, 146361, Note_on_c, 0, 73, 105
1, 146375, Note_off_c, 1, 43, 58
1, 146392, Note_off_c, 0, 73, 61
1, 146401, Note_on_c, 0, 79, 106
1, 146401, Note_on_c, 1, 31, 101
1, 146432, Note_off_c, 0, 79, 60
1, 146441, Note_on_c, 0, 80, 104
1, 146472, Note_off_c, 0, 80, 61
1, 146480, Note_on_c, 0, 79, 100
1, 146496, Note_off_c, 1, 31, 58
1, 146511, Note_off_c, 0, 79, 61
1, 146520, Note_on_c, 0, 75, 104
1, 146520, Note_on_c, 1, 39, 100
1, 146551, Note_off_c, 0, 75, 61
1, 146559, Note_on_c, 0, 73, 104
1, 146590, Note_off_c, 0, 73, 61
1, 146599, Note_on_c, 0, 70, 101
1, 146615, Note_off_c, 1, 39, 58
1, 146630, Note_off_c, 0, 70, 61
1, 146640, Note_on_c, 0, 75, 98
1, 146640, Note_on_c, 1, 31, 102
1, 146671, Note_off_c, 0, 75, 61
1, 146680, Note_on_c, 0, 77, 101
1, 146711, Note_off_c, 0, 77, 61
1, 146719, Note_on_c, 0, 75, 97
1, 146735, Note_off_c, 1, 31, 58
1, 146750, Note_off_c, 0, 75, 61
1, 146758, Note_on_c, 1, 37, 99
1, 146762, Note_on_c, 0, 73, 101
1, 146793, Note_off_c, 0, 73, 61
1, 146799, Note_on_c, 0, 70, 101
1, 146830, Note_off_c, 0, 70, 61
1, 146838, Note_on_c, 0, 67, 100
1, 146853, Note_off_c, 1, 37, 58
1, 146869, Note_off_c, 0, 67, 60
1, 146878, Note_on_c, 0, 73, 99
1, 146878, Note_on_c, 1, 31, 99
1, 146909, Note_off_c, 0, 73, 61
1, 146921, Note_on_c, 0, 75, 98
1, 146952, Note_off_c, 0, 75, 60
1, 146959, Note_on_c, 0, 73, 96
1, 146973, Note_off_c, 1, 31, 58
1, 146990, Note_off_c, 0, 73, 61
1, 147002, Note_on_c, 0, 70, 95
1, 147002, Note_on_c, 1, 46, 94
1, 147033, Note_off_c, 0, 70, 61
1, 147041, Note_on_c, 0, 67, 93
1, 147072, Note_off_c, 0, 67, 61
1, 147081, Note_on_c, 0, 63, 92
1, 147097, Note_off_c, 1, 46, 59
1, 147112, Note_off_c, 0, 63, 61
1, 147119, Note_on_c, 0, 70, 93
1, 147120, Note_on_c, 1, 31, 91
1, 147150, Note_off_c, 0, 70, 61
1, 147162, Note_on_c, 0, 72, 93
1, 147193, Note_off_c, 0, 72, 61
1, 147199, Note_on_c, 0, 70, 95
1, 147215, Note_off_c, 1, 31, 58
1, 147230, Note_off_c, 0, 70, 61
1, 147241, Note_on_c, 1, 43, 94
1, 147242, Note_on_c, 0, 67, 92
1, 147273, Note_off_c, 0, 67, 61
1, 147279, Note_on_c, 0, 63, 91
1, 147310, Note_off_c, 0, 63, 61
1, 147321, Note_on_c, 0, 61, 92
1, 147336, Note_off_c, 1, 43, 58
1, 147352, Note_off_c, 0, 61, 61
1, 147360, Note_on_c, 0, 67, 88
1, 147360, Note_on_c, 1, 31, 88
1, 147391, Note_off_c, 0, 67, 61
1, 147400, Note_on_c, 0, 68, 89
1, 147431, Note_off_c, 0, 68, 61
1, 147442, Note_on_c, 0, 67, 87
1, 147455, Note_off_c, 1, 31, 58
1, 147473, Note_off_c, 0, 67, 61
1, 147478, Note_on_c, 1, 39, 87
1, 147482, Note_on_c, 0, 63, 85
1, 147513, Note_off_c, 0, 63, 61
1, 147519, Note_on_c, 0, 61, 84
1, 147550, Note_off_c, 0, 61, 60
1, 147559, Note_on_c, 0, 58, 86
1, 147573, Note_off_c, 1, 39, 59
1, 147590, Note_off_c, 0, 58, 60
1, 147598, Note_on_c, 0, 63, 84
1, 147602, Note_on_c, 1, 31, 90
1, 147629, Note_off_c, 0, 63, 61
1, 147641, Note_on_c, 0, 65, 85
1, 147672, Note_off_c, 0, 65, 61
1, 147678, Note_on_c, 0, 63, 83
1, 147697, Note_off_c, 1, 31, 58
1, 147709, Note_off_c, 0, 63, 61
1, 147719, Note_on_c, 1, 37, 84
1, 147720, Note_on_c, 0, 61, 82
1, 147751, Note_off_c, 0, 61, 61
1, 147760, Note_on_c, 0, 58, 81
1, 147791, Note_off_c, 0, 58, 61
1, 147801, Note_on_c, 0, 55, 80
1, 147814, Note_off_c, 1, 37, 59
1, 147832, Note_off_c, 0, 55, 61
1, 147840, Note_on_c, 0, 61, 81
1, 147841, Note_on_c, 1, 31, 80
1, 147871, Note_off_c, 0, 61, 60
1, 147882, Note_on_c, 0, 63, 86
1, 147913, Note_off_c, 0, 63, 60
1, 147920, Note_on_c, 0, 61, 80
1, 147936, Note_off_c, 1, 31, 58
1, 147951, Note_off_c, 0, 61, 60
1, 147958, Note_on_c, 1, 46, 81
1, 147961, Note_on_c, 0, 58, 79
1, 147992, Note_off_c, 0, 58, 61
1, 147998, Note_on_c, 0, 55, 83
1, 148029, Note_off_c, 0, 55, 61
1, 148042, Note_on_c, 0, 51, 80
1, 148053, Note_off_c, 1, 46, 58
1, 148073, Note_off_c, 0, 51, 61
1, 148081, Note_on_c, 1, 31, 81
1, 148082, Note_on_c, 0, 58, 79
1, 148113, Note_off_c, 0, 58, 61
1, 148121, Note_on_c, 0, 60, 79
1, 148152, Note_off_c, 0, 60, 61
1, 148161, Note_on_c, 0, 58, 79
1, 148176, Note_off_c, 1, 31, 58
1, 148192, Note_off_c, 0, 58, 61
1, 148199, Note_on_c, 0, 55, 76
1, 148201, Note_on_c, 1, 43, 77
1, 148230, Note_off_c, 0, 55, 61
1, 148238, Note_on_c, 0, 51, 78
1, 148269, Note_off_c, 0, 51, 61
1, 148280, Note_on_c, 0, 49, 76
1, 148296, Note_off_c, 1, 43, 58
1, 148311, Note_off_c, 0, 49, 61
1, 148318, Note_on_c, 0, 50, 73
1, 148322, Note_on_c, 1, 31, 79
1, 148349, Note_off_c, 0, 50, 60
1, 148358, Note_on_c, 0, 51, 78
1, 148389, Note_off_c, 0, 51, 61
1, 148399, Note_on_c, 0, 52, 82
1, 148417, Note_off_c, 1, 31, 58
1, 148430, Note_off_c, 0, 52, 60
1, 148438, Note_on_c, 1, 41, 82
1, 148442, Note_on_c, 0, 53, 80
1, 148473, Note_off_c, 0, 53, 61
1, 148478, Note_on_c, 0, 54, 80
1, 148509, Note_off_c, 0, 54, 61
1, 148520, Note_on_c, 0, 55, 85
1, 148533, Note_off_c, 1, 41, 58
1, 148551, Note_off_c, 0, 55, 61
1, 148560, Note_on_c, 0, 56, 81
1, 148562, Note_on_c, 1, 31, 80
1, 148591, Note_off_c, 0, 56, 61
1, 148598, Note_on_c, 0, 57, 83
1, 148629, Note_off_c, 0, 57, 60
1, 148638, Note_on_c, 0, 58, 88
1, 148657, Note_off_c, 1, 31, 58
1, 148669, Note_off_c, 0, 58, 61
1, 148678, Note_on_c, 0, 59, 89
1, 148681, Note_on_c, 1, 35, 85
1, 148709, Note_off_c, 0, 59, 60
1, 148720, Note_on_c, 0, 60, 85
1, 148751, Note_off_c, 0, 60, 61
1, 148760, Note_on_c, 0, 61, 88
1, 148776, Note_off_c, 1, 35, 58
1, 148791, Note_off_c, 0, 61, 61
1, 148801, Note_on_c, 0, 62, 87
1, 148802, Note_on_c, 1, 31, 91
1, 148832, Note_off_c, 0, 62, 61
1, 148842, Note_on_c, 0, 63, 88
1, 148873, Note_off_c, 0, 63, 61
1, 148882, Note_on_c, 0, 64, 93
1, 148897, Note_off_c, 1, 31, 58
1, 148913, Note_off_c, 0, 64, 60
1, 148918, Note_on_c, 1, 41, 92
1, 148922, Note_on_c, 0, 65, 95
1, 148953, Note_off_c, 0, 65, 61
1, 148962, Note_on_c, 0, 66, 90
1, 148993, Note_off_c, 0, 66, 61
1, 148998, Note_on_c, 0, 67, 92
1, 149013, Note_off_c, 1, 41, 58
1, 149029, Note_off_c, 0, 67, 61
1, 149038, Note_on_c, 1, 31, 94
1, 149041, Note_on_c, 0, 68, 97
1, 149072, Note_off_c, 0, 68, 61
1, 149082, Note_on_c, 0, 69, 99
1, 149113, Note_off_c, 0, 69, 61
1, 149118, Note_on_c, 0, 70, 97
1, 149133, Note_off_c, 1, 31, 59
1, 149149, Note_off_c, 0, 70, 61
1, 149158, Note_on_c, 0, 71, 101
1, 149160, Note_on_c, 1, 35, 102
1, 149189, Note_off_c, 0, 71, 61
1, 149202, Note_on_c, 0, 72, 97
1, 149233, Note_off_c, 0, 72, 61
1, 149242, Note_on_c, 0, 73, 102
1, 149255, Note_off_c, 1, 35, 58
1, 149273, Note_off_c, 0, 73, 60
1, 149278, Note_on_c, 1, 31, 103
1, 149281, Note_on_c, 0, 74, 99
1, 149312, Note_off_c, 0, 74, 61
1, 149318, Note_on_c, 0, 75, 106
1, 149349, Note_off_c, 0, 75, 60
1, 149359, Note_on_c, 0, 76, 106
1, 149373, Note_off_c, 1, 31, 58
1, 149390, Note_off_c, 0, 76, 61
1, 149402, Note_on_c, 0, 77, 106
1, 149402, Note_on_c, 1, 41, 108
1, 149433, Note_off_c, 0, 77, 61
1, 149439, Note_on_c, 0, 78, 105
1, 149470, Note_off_c, 0, 78, 61
1, 149478, Note_on_c, 0, 79, 110
1, 149497, Note_off_c, 1, 41, 58
1, 149509, Note_off_c, 0, 79, 61
1, 149518, Note_on_c, 1, 31, 107
1, 149519, Note_on_c, 0, 80, 107
1, 149550, Note_off_c, 0, 80, 61
1, 149562, Note_on_c, 0, 81, 107
1, 149593, Note_off_c, 0, 81, 61
1, 149602, Note_on_c, 0, 82, 107
1, 149613, Note_off_c, 1, 31, 58
1, 149633, Note_off_c, 0, 82, 61
1, 149641, Note_on_c, 0, 83, 112
1, 149642, Note_on_c, 1, 35, 109
1, 149672, Note_off_c, 0, 83, 61
1, 149680, Note_on_c, 0, 84, 111
1, 149711, Note_off_c, 0, 84, 61
1, 149718, Note_on_c, 0, 85, 116
1, 149737, Note_off_c, 1, 35, 58
1, 149749, Note_off_c, 0, 85, 61
1, 149758, Note_on_c, 1, 31, 116
1, 149759, Note_on_c, 0, 86, 115
1, 149790, Note_off_c, 0, 86, 61
1, 149799, Note_on_c, 0, 87, 115
1, 149830, Note_off_c, 0, 87, 60
1, 149841, Note_on_c, 0, 88, 114
1, 149853, Note_off_c, 1, 31, 58
1, 149872, Note_off_c, 0, 88, 61
1, 149879, Note_on_c, 1, 41, 116
1, 149880, Note_on_c, 0, 89, 119
1, 149911, Note_off_c, 0, 89, 60
1, 149920, Note_on_c, 0, 90, 119
1, 149951, Note_off_c, 0, 90, 60
1, 149959, Note_on_c, 0, 91, 120
1, 149974, Note_off_c, 1, 41, 58
1, 149990, Note_off_c, 0, 91, 60
1, 149999, Note_on_c, 1, 44, 118
1, 150000, Control_c, 0, 64, 127
1, 150000, Control_c, 1, 64, 127
1, 150001, Note_on_c, 0, 92, 121
1, 150054, Note_off_c, 1, 44, 58
1, 150055, Note_off_c, 0, 92, 61
1, 150058, Note_on_c, 0, 63, 118
1, 150059, Note_on_c, 1, 51, 117
1, 150112, Note_off_c, 0, 63, 61
1, 150114, Note_off_c, 1, 51, 58
1, 150121, Note_on_c, 0, 68, 119
1, 150122, Note_on_c, 1, 56, 117
1, 150175, Note_off_c, 0, 68, 61
1, 150177, Note_off_c, 1, 56, 58
1, 150180, Note_on_c, 1, 60, 120
1, 150182, Note_on_c, 0, 72, 118
1, 150235, Note_off_c, 1, 60, 58
1, 150236, Note_off_c, 0, 72, 61
1, 150239, Note_on_c, 0, 75, 116
1, 150241, Note_on_c, 1, 63, 122
1, 150293, Note_off_c, 0, 75, 60
1, 150296, Note_off_c, 1, 63, 59
1, 150298, Note_on_c, 1, 56, 115
1, 150299, Note_on_c, 0, 68, 116
1, 150353, Note_off_c, 0, 68, 61
1, 150353, Note_off_c, 1, 56, 58
1, 150359, Note_on_c, 0, 72, 120
1, 150359, Note_on_c, 1, 60, 119
1, 150413, Note_off_c, 0, 72, 61
1, 150414, Note_off_c, 1, 60, 58
1, 150421, Note_on_c, 0, 75, 116
1, 150421, Note_on_c, 1, 63, 117
1, 150475, Note_off_c, 0, 75, 61
1, 150476, Note_off_c, 1, 63, 58
1, 150480, Note_on_c, 1, 68, 113
1, 150482, Note_on_c, 0, 80, 116
1, 150535, Note_off_c, 1, 68, 58
1, 150536, Note_off_c, 0, 80, 61
1, 150539, Note_on_c, 0, 72, 117
1, 150540, Note_on_c, 1, 60, 115
1, 150593, Note_off_c, 0, 72, 60
1, 150595, Note_off_c, 1, 60, 58
1, 150601, Note_on_c, 0, 75, 113
1, 150602, Note_on_c, 1, 63, 113
1, 150655, Note_off_c, 0, 75, 61
1, 150657, Note_off_c, 1, 63, 58
1, 150658, Note_on_c, 1, 68, 111
1, 150662, Note_on_c, 0, 80, 114
1, 150713, Note_off_c, 1, 68, 59
1, 150716, Note_off_c, 0, 80, 61
1, 150718, Note_on_c, 0, 84, 110
1, 150720, Note_on_c, 1, 72, 111
1, 150772, Note_off_c, 0, 84, 60
1, 150775, Note_off_c, 1, 72, 59
1, 150781, Note_on_c, 1, 63, 114
1, 150782, Note_on_c, 0, 75, 115
1, 150836, Note_off_c, 0, 75, 61
1, 150836, Note_off_c, 1, 63, 58
1, 150840, Note_on_c, 0, 80, 113
1, 150842, Note_on_c, 1, 68, 108
1, 150894, Note_off_c, 0, 80, 60
1, 150897, Note_off_c, 1, 68, 58
1, 150901, Note_on_c, 0, 84, 113
1, 150902, Note_on_c, 1, 72, 113
1, 150955, Note_off_c, 0, 84, 61
1, 150957, Note_off_c, 1, 72, 59
1, 150960, Note_on_c, 1, 75, 112
1, 150961, Note_on_c, 0, 87, 113
1, 151015, Note_off_c, 0, 87, 61
1, 151015, Note_off_c, 1, 75, 59
1, 151020, Note_on_c, 1, 68, 109
1, 151021, Note_on_c, 0, 80, 107
1, 151075, Note_off_c, 0, 80, 60
1, 151075, Note_off_c, 1, 68, 58
1, 151079, Note_on_c, 1, 72, 110
1, 151082, Note_on_c, 0, 84, 111
1, 151134, Note_off_c, 1, 72, 58
1, 151136, Note_off_c, 0, 84, 61
1, 151138, Note_on_c, 0, 87, 109
1, 151138, Note_on_c, 1, 75, 105
1, 151192, Note_off_c, 0, 87, 61
1, 151193, Note_off_c, 1, 75, 58
1, 151199, Note_on_c, 1, 80, 109
1, 151201, Note_on_c, 0, 92, 107
1, 151254, Note_off_c, 1, 80, 58
1, 151255, Note_off_c, 0, 92, 61
1, 151259, Note_on_c, 0, 87, 105
1, 151260, Note_on_c, 1, 75, 104
1, 151313, Note_off_c, 0, 87, 61
1, 151315, Note_off_c, 1, 75, 58
1, 151318, Note_on_c, 1, 72, 108
1, 151322, Note_on_c, 0, 84, 108
1, 151373, Note_off_c, 1, 72, 59
1, 151376, Note_off_c, 0, 84, 61
1, 151378, Note_on_c, 1, 68, 107
1, 151380, Note_on_c, 0, 80, 105
1, 151433, Note_off_c, 1, 68, 58
1, 151434, Note_off_c, 0, 80, 61
1, 151439, Note_on_c, 1, 75, 104
1, 151441, Note_on_c, 0, 87, 107
1, 151494, Note_off_c, 1, 75, 58
1, 151495, Note_off_c, 0, 87, 61
1, 151499, Note_on_c, 0, 84, 102
1, 151502, Note_on_c, 1, 72, 107
1, 151553, Note_off_c, 0, 84, 61
1, 151557, Note_off_c, 1, 72, 58
1, 151558, Note_on_c, 0, 80, 105
1, 151561, Note_on_c, 1, 68, 105
1, 151612, Note_off_c, 0, 80, 61
1, 151616, Note_off_c, 1, 68, 58
1, 151619, Note_on_c, 0, 75, 104
1, 151620, Note_on_c, 1, 63, 105
1, 151673, Note_off_c, 0, 75, 60
1, 151675, Note_off_c, 1, 63, 58
1, 151678, Note_on_c, 0, 84, 104
1, 151680, Note_on_c, 1, 72, 101
1, 151732, Note_off_c, 0, 84, 61
1, 151735, Note_off_c, 1, 72, 58
1, 151739, Note_on_c, 1, 68, 100
1, 151742, Note_on_c, 0, 80, 99
1, 151794, Note_off_c, 1, 68, 58
1, 151796, Note_off_c, 0, 80, 61
1, 151798, Note_on_c, 0, 75, 98
1, 151801, Note_on_c, 1, 63, 102
1, 151852, Note_off_c, 0, 75, 61
1, 151856, Note_off_c, 1, 63, 58
1, 151859, Note_on_c, 0, 72, 101
1, 151861, Note_on_c, 1, 60, 101
1, 151913, Note_off_c, 0, 72, 61
1, 151916, Note_off_c, 1, 60, 58
1, 151918, Note_on_c, 1, 68, 96
1, 151922, Note_on_c, 0, 80, 101
1, 151973, Note_off_c, 1, 68, 58
1, 151976, Note_off_c, 0, 80, 61
1, 151982, Note_on_c, 0, 75, 99
1, 151982, Note_on_c, 1, 63, 96
1, 152036, Note_off_c, 0, 75, 60
1, 152037, Note_off_c, 1, 63, 58
1, 152040, Note_on_c, 0, 72, 98
1, 152040, Note_on_c, 1, 60, 98
1, 152094, Note_off_c, 0, 72, 60
1, 152095, Note_off_c, 1, 60, 58
1, 152100, Note_on_c, 0, 68, 97
1, 152102, Note_on_c, 1, 56, 96
1, 152154, Note_off_c, 0, 68, 61
1, 152157, Note_off_c, 1, 56, 58
1, 152159, Note_on_c, 0, 75, 94
1, 152161, Note_on_c, 1, 63, 96
1, 152213, Note_off_c, 0, 75, 60
1, 152216, Note_off_c, 1, 63, 58
1, 152220, Note_on_c, 1, 60, 95
1, 152222, Note_on_c, 0, 72, 96
1, 152275, Note_off_c, 1, 60, 58
1, 152276, Note_off_c, 0, 72, 60
1, 152278, Note_on_c, 0, 68, 96
1, 152281, Note_on_c, 1, 56, 95
1, 152332, Note_off_c, 0, 68, 61
1, 152336, Note_off_c, 1, 56, 58
1, 152338, Note_on_c, 1, 51, 98
1, 152342, Note_on_c, 0, 63, 97
1, 152393, Note_off_c, 1, 51, 59
1, 152396, Note_off_c, 0, 63, 60
1, 152398, Note_on_c, 0, 72, 92
1, 152398, Note_on_c, 1, 60, 95
1, 152452, Note_off_c, 0, 72, 60
1, 152453, Note_off_c, 1, 60, 58
1, 152458, Note_on_c, 1, 56, 93
1, 152459, Note_on_c, 0, 68, 96
1, 152513, Note_off_c, 0, 68, 61
1, 152513, Note_off_c, 1, 56, 59
1, 152518, Note_on_c, 1, 51, 94
1, 152522, Note_on_c, 0, 63, 94
1, 152573, Note_off_c, 1, 51, 58
1, 152576, Note_off_c, 0, 63, 61
1, 152580, Note_on_c, 1, 48, 91
1, 152582, Note_on_c, 0, 60, 90
1, 152635, Note_off_c, 1, 48, 58
1, 152636, Note_off_c, 0, 60, 61
1, 152638, Note_on_c, 1, 56, 94
1, 152639, Note_on_c, 0, 68, 93
1, 152693, Note_off_c, 0, 68, 61
1, 152693, Note_off_c, 1, 56, 58
1, 152700, Note_on_c, 1, 51, 94
1, 152701, Note_on_c, 0, 63, 89
1, 152755, Note_off_c, 0, 63, 61
1, 152755, Note_off_c, 1, 51, 58
1, 152762, Note_on_c, 0, 60, 90
1, 152762, Note_on_c, 1, 48, 93
1, 152816, Note_off_c, 0, 60, 61
1, 152817, Note_off_c, 1, 48, 58
1, 152818, Note_on_c, 0, 56, 89
1, 152821, Note_on_c, 1, 44, 88
1, 152844, Control_c, 0, 64, 0
1, 152856, Control_c, 1, 64, 0
1, 152872, Note_off_c, 0, 56, 61
1, 152876, Note_off_c, 1, 44, 58
1, 152880, Note_on_c, 0, 63, 91
1, 152881, Note_on_c, 1, 51, 87
1, 152927, Note_off_c, 0, 63, 61
1, 152936, Note_off_c, 1, 51, 59
1, 152941, Note_on_c, 0, 60, 91
1, 152941, Note_on_c, 1, 48, 88
1, 152988, Note_off_c, 0, 60, 61
1, 152996, Note_off_c, 1, 48, 58
1, 152999, Note_on_c, 1, 44, 90
1, 153001, Note_on_c, 0, 56, 85
1, 153048, Note_off_c, 0, 56, 61
1, 153054, Note_off_c, 1, 44, 58
1, 153058, Note_on_c, 0, 51, 90
1, 153061, Note_on_c, 1, 39, 88
1, 153105, Note_off_c, 0, 51, 61
1, 153116, Note_off_c, 1, 39, 58
1, 153118, Note_on_c, 1, 51, 83
1, 153122, Note_on_c, 0, 63, 85
1, 153169, Note_off_c, 0, 63, 61
1, 153173, Note_off_c, 1, 51, 58
1, 153178, Note_on_c, 1, 49, 86
1, 153181, Note_on_c, 0, 61, 84
1, 153228, Note_off_c, 0, 61, 61
1, 153233, Note_off_c, 1, 49, 58
1, 153239, Note_on_c, 0, 58, 85
1, 153242, Note_on_c, 1, 46, 82
1, 153286, Note_off_c, 0, 58, 61
1, 153297, Note_off_c, 1, 46, 58
1, 153298, Note_on_c, 1, 43, 82
1, 153301, Note_on_c, 0, 55, 86
1, 153348, Note_off_c, 0, 55, 61
1, 153353, Note_off_c, 1, 43, 58
1, 153358, Note_on_c, 0, 63, 81
1, 153359, Note_on_c, 1, 51, 81
1, 153405, Note_off_c, 0, 63, 61
1, 153414, Note_off_c, 1, 51, 58
1, 153420, Note_on_c, 0, 55, 84
1, 153420, Note_on_c, 1, 43, 83
1, 153467, Note_off_c, 0, 55, 60
1, 153475, Note_off_c, 1, 43, 58
1, 153478, Note_on_c, 0, 58, 84
1, 153482, Note_on_c, 1, 46, 84
1, 153525, Note_off_c, 0, 58, 60
1, 153537, Note_off_c, 1, 46, 58
1, 153539, Note_on_c, 0, 61, 83
1, 153539, Note_on_c, 1, 49, 78
1, 153586, Note_off_c, 0, 61, 61
1, 153594, Note_off_c, 1, 49, 59
1, 153598, Note_on_c, 1, 48, 78
1, 153602, Note_on_c, 0, 60, 77
1, 153649, Note_off_c, 0, 60, 61
1, 153653, Note_off_c, 1, 48, 58
1, 153659, Note_on_c, 0, 55, 82
1, 153659, Note_on_c, 1, 43, 81
1, 153706, Note_off_c, 0, 55, 60
1, 153714, Note_off_c, 1, 43, 58
1, 153721, Note_on_c, 0, 51, 79
1, 153722, Note_on_c, 1, 39, 81
1, 153768, Note_off_c, 0, 51, 61
1, 153777, Note_off_c, 1, 39, 58
1, 153779, Note_on_c, 1, 43, 79
1, 153780, Note_on_c, 0, 55, 79
1, 153827, Note_off_c, 0, 55, 61
1, 153834, Note_off_c, 1, 43, 58
1, 153839, Note_on_c, 1, 44, 77
1, 153840, Note_on_c, 0, 56, 79
1, 154058, Note_off_c, 0, 56, 68
1, 154062, Note_off_c, 1, 44, 58
1, 154318, Note_on_c, 0, 84, 123
1, 154318, Note_on_c, 0, 80, 124
1, 154318, Note_on_c, 0, 75, 119
1, 154319, Note_on_c, 1, 56, 124
1, 154320, Note_on_c, 1, 60, 119
1, 154320, Note_on_c, 1, 48, 121
1, 154322, Note_on_c, 0, 72, 118
1, 154322, Note_on_c, 1, 51, 122
1, 154536, Note_off_c, 0, 75, 68
1, 154536, Note_off_c, 0, 80, 68
1, 154536, Note_off_c, 0, 84, 68
1, 154540, Note_off_c, 0, 72, 68
1, 154542, Note_off_c, 1, 56, 58
1, 154543, Note_off_c, 1, 48, 59
1, 154543, Note_off_c, 1, 60, 58
1, 154545, Note_off_c, 1, 51, 58
1, 154798, Note_on_c, 1, 48, 122
1, 154799, Note_on_c, 0, 72, 118
1, 154799, Note_on_c, 0, 80, 121
1, 154800, Note_on_c, 1, 56, 123
1, 154800, Note_on_c, 1, 51, 120
1, 154801, Note_on_c, 0, 75, 118
1, 154801, Note_on_c, 1, 44, 120
1, 154802, Note_on_c, 0, 68, 121
1, 155017, Note_off_c, 0, 80, 68
1, 155017, Note_off_c, 0, 72, 68
1, 155019, Note_off_c, 0, 75, 68
1, 155020, Note_off_c, 0, 68, 69
1, 155021, Note_off_c, 1, 48, 58
1, 155023, Note_off_c, 1, 51, 58
1, 155023, Note_off_c, 1, 56, 58
1, 155024, Note_off_c, 1, 44, 58
1, 155036, Control_c, 0, 93, 0
1, 155036, Control_c, 1, 91, 0
1, 155036, End_track
0, 0, End_of_file