0, 0, Header, 1, 15, 384
1, 0, Start_track
1, 0, Sequencer_specific, 03, 00, 00, 41
1, 0, Time_signature, 4, 2, 24, 8
1, 0, Key_signature, 0, "major"
1, 0, Tempo, 444444
1, 4676, Tempo, 454545
1, 13346, Tempo, 480000
1, 16422, Tempo, 480000
1, 16942, Tempo, 491803
1, 17474, Tempo, 487805
1, 19612, Tempo, 458015
1, 22072, Tempo, 461538
1, 24868, Tempo, 451128
1, 25132, Tempo, 461538
1, 25936, Tempo, 483871
1, 28920, Tempo, 451128
1, 34316, Tempo, 483871
1, 49952, Tempo, 451128
1, 53472, Tempo, 437956
1, 63956, Tempo, 461538
1, 64262, Tempo, 465116
1, 64568, Tempo, 468750
1, 64874, Tempo, 472441
1, 65180, Tempo, 476190
1, 65181, Tempo, 425532
1, 68836, Tempo, 431655
1, 72488, Tempo, 419580
1, 74348, Tempo, 425532
1, 79824, Tempo, 419580
1, 87240, Tempo, 422535
1, 94556, Tempo, 408163
1, 111762, Tempo, 400000
1, 114359, Tempo, 389610
1, 116178, Tempo, 408163
1, 120462, Tempo, 419580
1, 120571, Tempo, 422535
1, 120681, Tempo, 425532
1, 120790, Tempo, 428571
1, 120900, Tempo, 431655
1, 121010, Tempo, 434783
1, 121119, Tempo, 437956
1, 121229, Tempo, 441176
1, 121338, Tempo, 444444
1, 121448, Tempo, 447761
1, 121558, Tempo, 451128
1, 121667, Tempo, 454545
1, 121777, Tempo, 458015
1, 121886, Tempo, 461538
1, 121996, Tempo, 465116
1, 122106, Tempo, 468750
1, 122215, Tempo, 472441
1, 122325, Tempo, 476190
1, 122434, Tempo, 480000
1, 122544, Tempo, 483871
1, 122654, Tempo, 487805
1, 122655, Tempo, 405405
1, 126900, Tempo, 431655
1, 158580, Tempo, 480000
1, 160612, Tempo, 500000
1, 186108, Tempo, 487805
1, 205060, Tempo, 491803
1, 212656, Tempo, 508475
1, 213648, Tempo, 504202
1, 218304, Tempo, 521739
1, 219120, Tempo, 508475
1, 222332, Tempo, 521739
1, 223196, Tempo, 526316
1, 226484, Tempo, 508475
1, 231280, Tempo, 500000
1, 232932, Tempo, 504202
1, 245732, Tempo, 491803
1, 250820, Tempo, 500000
1, 250832, Tempo, 483871
1, 252196, Tempo, 491803
1, 252260, Tempo, 500000
1, 281352, Tempo, 491803
1, 281419, Tempo, 495868
1, 281486, Tempo, 500000
1, 281553, Tempo, 504202
1, 281620, Tempo, 508475
1, 281687, Tempo, 512821
1, 281754, Tempo, 517241
1, 281821, Tempo, 521739
1, 281888, Tempo, 526316
1, 281956, Tempo, 530973
1, 282023, Tempo, 535714
1, 282090, Tempo, 540541
1, 282157, Tempo, 545455
1, 282224, Tempo, 550459
1, 282291, Tempo, 555556
1, 282358, Tempo, 560748
1, 282425, Tempo, 566038
1, 282492, Tempo, 571429
1, 282560, Tempo, 576923
1, 282627, Tempo, 582524
1, 282694, Tempo, 588235
1, 282761, Tempo, 594059
1, 282828, Tempo, 600000
1, 282895, Tempo, 606061
1, 282962, Tempo, 612245
1, 283029, Tempo, 618557
1, 283096, Tempo, 625000
1, 283164, Tempo, 631579
1, 283165, Tempo, 454545
1, 294886, Tempo, 483871
1, 297830, Tempo, 480000
1, 298210, Tempo, 483871
1, 300970, Tempo, 465116
1, 304560, Tempo, 476190
1, 331236, Tempo, 487805
1, 342189, Tempo, 491803
1, 342246, Tempo, 495868
1, 342304, Tempo, 500000
1, 342361, Tempo, 504202
1, 342419, Tempo, 508475
1, 342477, Tempo, 512821
1, 342534, Tempo, 517241
1, 342592, Tempo, 521739
1, 342650, Tempo, 526316
1, 342707, Tempo, 530973
1, 342765, Tempo, 535714
1, 342822, Tempo, 540541
1, 342880, Tempo, 545455
1, 342938, Tempo, 550459
1, 342995, Tempo, 555556
1, 343053, Tempo, 560748
1, 343111, Tempo, 566038
1, 343168, Tempo, 571429
1, 343226, Tempo, 576923
1, 343283, Tempo, 582524
1, 343341, Tempo, 588235
1, 343399, Tempo, 594059
1, 343456, Tempo, 600000
1, 343514, Tempo, 606061
1, 343572, Tempo, 612245
1, 343629, Tempo, 618557
1, 343687, Tempo, 625000
1, 343745, Tempo, 631579
1, 343746, Tempo, 491803
1, 345197, Tempo, 476190
1, 346041, Tempo, 491803
1, 347757, Tempo, 480000
1, 348673, Tempo, 447761
1, 369577, Tempo, 468750
1, 376317, Tempo, 451128
1, 419653, Tempo, 454545
1, 422346, Tempo, 431655
1, 431181, Tempo, 431655
1, 437740, Tempo, 444444
1, 437740, End_track
2, 0, Start_track
2, 0, MIDI_port, 0
2, 0, Title_t, "Piano Solo"
2, 0, Program_c, 0, 0
2, 0, Control_c, 0, 7, 127
2, 0, Control_c, 0, 10, 64
2, 1153, Control_c, 0, 91, 127
2, 1328, Note_on_c, 0, 72, 70
2, 1360, Control_c, 0, 64, 24
2, 1372, Control_c, 0, 64, 56
2, 1380, Note_on_c, 0, 72, 0
2, 1384, Control_c, 0, 64, 72
2, 1396, Control_c, 0, 64, 88
2, 1412, Control_c, 0, 64, 104
2, 1436, Control_c, 0, 64, 127
2, 1588, Control_c, 0, 64, 88
2, 1604, Control_c, 0, 64, 24
2, 1616, Control_c, 0, 64, 0
2, 1624, Note_on_c, 0, 72, 71
2, 1648, Note_on_c, 0, 53, 44
2, 1680, Control_c, 0, 64, 88
2, 1688, Note_on_c, 0, 53, 0
2, 1692, Control_c, 0, 64, 127
2, 1860, Note_on_c, 0, 72, 0
2, 1896, Note_on_c, 0, 74, 76
2, 1900, Note_on_c, 0, 68, 37
2, 1912, Note_on_c, 0, 60, 45
2, 1964, Note_on_c, 0, 68, 0
2, 1992, Note_on_c, 0, 74, 0
2, 2008, Note_on_c, 0, 76, 85
2, 2012, Note_on_c, 0, 60, 0
2, 2056, Note_on_c, 0, 76, 0
2, 2112, Note_on_c, 0, 65, 56
2, 2124, Note_on_c, 0, 77, 82
2, 2124, Note_on_c, 0, 56, 32
2, 2172, Note_on_c, 0, 56, 0
2, 2172, Note_on_c, 0, 65, 0
2, 2196, Note_on_c, 0, 77, 0
2, 2240, Note_on_c, 0, 79, 92
2, 2348, Note_on_c, 0, 79, 0
2, 2368, Note_on_c, 0, 80, 90
2, 2392, Control_c, 0, 64, 104
2, 2400, Note_on_c, 0, 48, 57
2, 2408, Control_c, 0, 64, 24
2, 2420, Control_c, 0, 64, 0
2, 2424, Note_on_c, 0, 48, 0
2, 2484, Control_c, 0, 64, 72
2, 2496, Control_c, 0, 64, 127
2, 2608, Note_on_c, 0, 80, 0
2, 2632, Note_on_c, 0, 82, 79
2, 2652, Note_on_c, 0, 55, 47
2, 2664, Note_on_c, 0, 64, 40
2, 2708, Note_on_c, 0, 64, 0
2, 2716, Note_on_c, 0, 82, 0
2, 2744, Note_on_c, 0, 80, 78
2, 2756, Note_on_c, 0, 55, 0
2, 2856, Note_on_c, 0, 80, 0
2, 2868, Note_on_c, 0, 58, 39
2, 2868, Note_on_c, 0, 67, 48
2, 2876, Note_on_c, 0, 79, 78
2, 2900, Note_on_c, 0, 67, 0
2, 2920, Note_on_c, 0, 58, 0
2, 2928, Note_on_c, 0, 79, 0
2, 3068, Note_on_c, 0, 72, 72
2, 3112, Control_c, 0, 64, 40
2, 3124, Control_c, 0, 64, 0
2, 3136, Note_on_c, 0, 72, 0
2, 3144, Note_on_c, 0, 84, 93
2, 3168, Note_on_c, 0, 53, 44
2, 3200, Control_c, 0, 64, 72
2, 3212, Control_c, 0, 64, 127
2, 3224, Note_on_c, 0, 53, 0
2, 3356, Note_on_c, 0, 84, 0
2, 3408, Note_on_c, 0, 82, 74
2, 3408, Note_on_c, 0, 68, 45
2, 3424, Note_on_c, 0, 60, 53
2, 3480, Note_on_c, 0, 68, 0
2, 3492, Note_on_c, 0, 82, 0
2, 3512, Note_on_c, 0, 80, 79
2, 3516, Note_on_c, 0, 60, 0
2, 3616, Note_on_c, 0, 80, 0
2, 3632, Note_on_c, 0, 79, 82
2, 3636, Note_on_c, 0, 56, 44
2, 3636, Note_on_c, 0, 65, 55
2, 3672, Note_on_c, 0, 65, 0
2, 3684, Note_on_c, 0, 56, 0
2, 3708, Note_on_c, 0, 79, 0
2, 3736, Note_on_c, 0, 77, 79
2, 3820, Note_on_c, 0, 77, 0
2, 3880, Note_on_c, 0, 80, 81
2, 3892, Note_on_c, 0, 76, 69
2, 3900, Control_c, 0, 64, 40
2, 3916, Control_c, 0, 64, 0
2, 3920, Note_on_c, 0, 48, 56
2, 3952, Note_on_c, 0, 48, 0
2, 3956, Note_on_c, 0, 76, 0
2, 3992, Control_c, 0, 64, 72
2, 4004, Control_c, 0, 64, 127
2, 4124, Note_on_c, 0, 80, 0
2, 4156, Note_on_c, 0, 82, 74
2, 4176, Note_on_c, 0, 55, 51
2, 4180, Note_on_c, 0, 64, 47
2, 4208, Note_on_c, 0, 55, 0
2, 4220, Note_on_c, 0, 64, 0
2, 4240, Note_on_c, 0, 82, 0
2, 4268, Note_on_c, 0, 80, 77
2, 4356, Note_on_c, 0, 80, 0
2, 4404, Note_on_c, 0, 79, 75
2, 4404, Note_on_c, 0, 67, 46
2, 4408, Note_on_c, 0, 70, 54
2, 4416, Note_on_c, 0, 60, 51
2, 4436, Note_on_c, 0, 67, 0
2, 4440, Note_on_c, 0, 60, 0
2, 4460, Note_on_c, 0, 70, 0
2, 4484, Note_on_c, 0, 79, 0
2, 4668, Control_c, 0, 64, 104
2, 4676, Note_on_c, 0, 77, 87
2, 4680, Note_on_c, 0, 68, 69
2, 4684, Control_c, 0, 64, 24
2, 4688, Note_on_c, 0, 56, 47
2, 4696, Note_on_c, 0, 65, 41
2, 4696, Control_c, 0, 64, 0
2, 4708, Note_on_c, 0, 53, 42
2, 4720, Note_on_c, 0, 68, 0
2, 4760, Note_on_c, 0, 77, 0
2, 4772, Control_c, 0, 64, 56
2, 4784, Control_c, 0, 64, 127
2, 4924, Note_on_c, 0, 53, 0
2, 4928, Note_on_c, 0, 89, 85
2, 4940, Control_c, 0, 64, 104
2, 4952, Note_on_c, 0, 56, 0
2, 4952, Note_on_c, 0, 55, 56
2, 4952, Note_on_c, 0, 58, 45
2, 4952, Control_c, 0, 64, 0
2, 5000, Control_c, 0, 64, 40
2, 5016, Control_c, 0, 64, 104
2, 5028, Control_c, 0, 64, 127
2, 5032, Note_on_c, 0, 55, 0
2, 5064, Note_on_c, 0, 58, 0
2, 5140, Note_on_c, 0, 89, 0
2, 5184, Note_on_c, 0, 88, 84
2, 5188, Note_on_c, 0, 60, 60
2, 5188, Note_on_c, 0, 65, 46
2, 5208, Note_on_c, 0, 57, 48
2, 5252, Note_on_c, 0, 65, 0
2, 5252, Note_on_c, 0, 60, 0
2, 5276, Note_on_c, 0, 57, 0
2, 5284, Note_on_c, 0, 88, 0
2, 5292, Note_on_c, 0, 87, 82
2, 5400, Note_on_c, 0, 87, 0
2, 5416, Note_on_c, 0, 86, 79
2, 5432, Note_on_c, 0, 58, 40
2, 5436, Note_on_c, 0, 61, 44
2, 5448, Control_c, 0, 64, 104
2, 5460, Control_c, 0, 64, 24
2, 5476, Control_c, 0, 64, 0
2, 5508, Note_on_c, 0, 86, 0
2, 5532, Note_on_c, 0, 85, 71
2, 5540, Control_c, 0, 64, 40
2, 5552, Control_c, 0, 64, 104
2, 5564, Control_c, 0, 64, 127
2, 5620, Note_on_c, 0, 85, 0
2, 5648, Note_on_c, 0, 84, 83
2, 5748, Note_on_c, 0, 84, 0
2, 5764, Note_on_c, 0, 83, 85
2, 5876, Note_on_c, 0, 82, 79
2, 5880, Note_on_c, 0, 83, 0
2, 5972, Note_on_c, 0, 82, 0
2, 5992, Note_on_c, 0, 65, 0
2, 5992, Note_on_c, 0, 81, 78
2, 6016, Note_on_c, 0, 58, 0
2, 6024, Note_on_c, 0, 61, 0
2, 6076, Note_on_c, 0, 81, 0
2, 6116, Control_c, 0, 64, 88
2, 6124, Note_on_c, 0, 80, 75
2, 6128, Note_on_c, 0, 66, 50
2, 6128, Control_c, 0, 64, 0
2, 6132, Note_on_c, 0, 58, 39
2, 6132, Note_on_c, 0, 61, 37
2, 6188, Note_on_c, 0, 80, 0
2, 6192, Control_c, 0, 64, 40
2, 6204, Control_c, 0, 64, 104
2, 6216, Control_c, 0, 64, 127
2, 6220, Note_on_c, 0, 78, 85
2, 6264, Note_on_c, 0, 78, 0
2, 6316, Note_on_c, 0, 66, 0
2, 6316, Note_on_c, 0, 78, 75
2, 6376, Note_on_c, 0, 78, 0
2, 6396, Note_on_c, 0, 87, 85
2, 6396, Control_c, 0, 64, 56
2, 6408, Control_c, 0, 64, 0
2, 6432, Note_on_c, 0, 68, 37
2, 6448, Control_c, 0, 64, 56
2, 6460, Control_c, 0, 64, 104
2, 6472, Control_c, 0, 64, 127
2, 6492, Note_on_c, 0, 87, 0
2, 6544, Note_on_c, 0, 85, 85
2, 6564, Note_on_c, 0, 68, 0
2, 6580, Note_on_c, 0, 61, 0
2, 6600, Note_on_c, 0, 58, 0
2, 6636, Note_on_c, 0, 85, 0
2, 6656, Note_on_c, 0, 82, 74
2, 6676, Note_on_c, 0, 70, 50
2, 6728, Note_on_c, 0, 70, 0
2, 6756, Note_on_c, 0, 82, 0
2, 6772, Note_on_c, 0, 78, 81
2, 6844, Note_on_c, 0, 78, 0
2, 6912, Note_on_c, 0, 77, 81
2, 6920, Note_on_c, 0, 68, 39
2, 6936, Note_on_c, 0, 60, 42
2, 6980, Control_c, 0, 64, 88
2, 6996, Control_c, 0, 64, 0
2, 7124, Control_c, 0, 64, 24
2, 7136, Control_c, 0, 64, 56
2, 7148, Control_c, 0, 64, 88
2, 7184, Note_on_c, 0, 68, 0
2, 7200, Note_on_c, 0, 77, 0
2, 7204, Note_on_c, 0, 76, 66
2, 7212, Control_c, 0, 64, 0
2, 7240, Note_on_c, 0, 67, 38
2, 7328, Control_c, 0, 64, 40
2, 7332, Note_on_c, 0, 60, 0
2, 7340, Note_on_c, 0, 67, 0
2, 7340, Control_c, 0, 64, 56
2, 7348, Note_on_c, 0, 76, 0
2, 7404, Control_c, 0, 64, 0
2, 7472, Note_on_c, 0, 72, 74
2, 7492, Control_c, 0, 64, 24
2, 7508, Control_c, 0, 64, 72
2, 7520, Control_c, 0, 64, 104
2, 7532, Control_c, 0, 64, 127
2, 7552, Note_on_c, 0, 72, 0
2, 7624, Note_on_c, 0, 73, 58
2, 7660, Note_on_c, 0, 73, 0
2, 7676, Note_on_c, 0, 75, 61
2, 7700, Control_c, 0, 64, 104
2, 7704, Note_on_c, 0, 73, 65
2, 7712, Note_on_c, 0, 75, 0
2, 7712, Control_c, 0, 64, 24
2, 7724, Control_c, 0, 64, 0
2, 7748, Note_on_c, 0, 53, 51
2, 7784, Note_on_c, 0, 53, 0
2, 7800, Control_c, 0, 64, 56
2, 7812, Control_c, 0, 64, 104
2, 7824, Control_c, 0, 64, 127
2, 7856, Note_on_c, 0, 73, 0
2, 7856, Note_on_c, 0, 72, 86
2, 7948, Note_on_c, 0, 72, 0
2, 7976, Note_on_c, 0, 71, 74
2, 7980, Note_on_c, 0, 68, 37
2, 8000, Note_on_c, 0, 60, 43
2, 8036, Note_on_c, 0, 71, 0
2, 8040, Note_on_c, 0, 60, 0
2, 8056, Note_on_c, 0, 68, 0
2, 8084, Note_on_c, 0, 72, 86
2, 8164, Note_on_c, 0, 72, 0
2, 8192, Note_on_c, 0, 65, 46
2, 8200, Note_on_c, 0, 56, 42
2, 8208, Note_on_c, 0, 77, 84
2, 8228, Note_on_c, 0, 65, 0
2, 8244, Note_on_c, 0, 56, 0
2, 8288, Note_on_c, 0, 77, 0
2, 8316, Note_on_c, 0, 79, 85
2, 8400, Note_on_c, 0, 79, 0
2, 8448, Note_on_c, 0, 80, 85
2, 8460, Note_on_c, 0, 76, 70
2, 8464, Control_c, 0, 64, 88
2, 8476, Control_c, 0, 64, 0
2, 8484, Note_on_c, 0, 48, 60
2, 8508, Note_on_c, 0, 48, 0
2, 8516, Note_on_c, 0, 76, 0
2, 8556, Control_c, 0, 64, 40
2, 8568, Control_c, 0, 64, 104
2, 8580, Control_c, 0, 64, 127
2, 8684, Note_on_c, 0, 80, 0
2, 8708, Note_on_c, 0, 82, 74
2, 8740, Note_on_c, 0, 64, 46
2, 8748, Note_on_c, 0, 55, 45
2, 8780, Note_on_c, 0, 55, 0
2, 8784, Note_on_c, 0, 64, 0
2, 8788, Note_on_c, 0, 82, 0
2, 8820, Note_on_c, 0, 80, 77
2, 8912, Note_on_c, 0, 80, 0
2, 8936, Note_on_c, 0, 79, 75
2, 8952, Note_on_c, 0, 67, 47
2, 8956, Note_on_c, 0, 60, 50
2, 8980, Note_on_c, 0, 60, 0
2, 8980, Note_on_c, 0, 67, 0
2, 9020, Note_on_c, 0, 79, 0
2, 9132, Note_on_c, 0, 68, 55
2, 9148, Note_on_c, 0, 77, 60
2, 9152, Control_c, 0, 64, 56
2, 9160, Note_on_c, 0, 68, 0
2, 9168, Control_c, 0, 64, 0
2, 9196, Note_on_c, 0, 56, 37
2, 9200, Note_on_c, 0, 77, 0
2, 9200, Note_on_c, 0, 65, 41
2, 9208, Note_on_c, 0, 53, 48
2, 9232, Control_c, 0, 64, 24
2, 9236, Note_on_c, 0, 84, 92
2, 9244, Control_c, 0, 64, 88
2, 9256, Control_c, 0, 64, 127
2, 9292, Note_on_c, 0, 53, 0
2, 9296, Note_on_c, 0, 56, 0
2, 9304, Note_on_c, 0, 84, 0
2, 9332, Note_on_c, 0, 65, 0
2, 9344, Note_on_c, 0, 83, 87
2, 9412, Note_on_c, 0, 83, 0
2, 9456, Note_on_c, 0, 82, 77
2, 9468, Note_on_c, 0, 68, 44
2, 9484, Note_on_c, 0, 60, 45
2, 9520, Note_on_c, 0, 82, 0
2, 9564, Note_on_c, 0, 68, 0
2, 9572, Note_on_c, 0, 80, 83
2, 9624, Note_on_c, 0, 60, 0
2, 9648, Note_on_c, 0, 80, 0
2, 9684, Note_on_c, 0, 79, 82
2, 9696, Note_on_c, 0, 65, 50
2, 9700, Note_on_c, 0, 56, 43
2, 9728, Note_on_c, 0, 65, 0
2, 9740, Note_on_c, 0, 56, 0
2, 9764, Note_on_c, 0, 79, 0
2, 9792, Note_on_c, 0, 77, 87
2, 9872, Note_on_c, 0, 77, 0
2, 9924, Note_on_c, 0, 80, 85
2, 9936, Note_on_c, 0, 76, 76
2, 9936, Control_c, 0, 64, 56
2, 9948, Control_c, 0, 64, 0
2, 9964, Note_on_c, 0, 48, 65
2, 9984, Note_on_c, 0, 76, 0
2, 9988, Note_on_c, 0, 48, 0
2, 10024, Control_c, 0, 64, 40
2, 10036, Control_c, 0, 64, 127
2, 10164, Note_on_c, 0, 80, 0
2, 10192, Note_on_c, 0, 82, 74
2, 10212, Note_on_c, 0, 55, 50
2, 10212, Note_on_c, 0, 64, 40
2, 10240, Note_on_c, 0, 55, 0
2, 10256, Note_on_c, 0, 64, 0
2, 10272, Note_on_c, 0, 82, 0
2, 10304, Note_on_c, 0, 80, 77
2, 10392, Note_on_c, 0, 80, 0
2, 10428, Note_on_c, 0, 79, 85
2, 10428, Note_on_c, 0, 67, 49
2, 10432, Note_on_c, 0, 60, 59
2, 10440, Note_on_c, 0, 70, 46
2, 10456, Note_on_c, 0, 60, 0
2, 10456, Note_on_c, 0, 67, 0
2, 10464, Note_on_c, 0, 70, 0
2, 10512, Note_on_c, 0, 79, 0
2, 10688, Control_c, 0, 64, 56
2, 10692, Note_on_c, 0, 68, 84
2, 10696, Note_on_c, 0, 77, 89
2, 10700, Control_c, 0, 64, 100
2, 10712, Note_on_c, 0, 56, 53
2, 10716, Note_on_c, 0, 65, 58
2, 10732, Note_on_c, 0, 53, 48
2, 10752, Note_on_c, 0, 68, 0
2, 10766, Note_on_c, 0, 77, 0
2, 10776, Control_c, 0, 64, 40
2, 10792, Control_c, 0, 64, 104
2, 10804, Control_c, 0, 64, 127
2, 10968, Note_on_c, 0, 101, 103
2, 10972, Note_on_c, 0, 89, 94
2, 11000, Note_on_c, 0, 53, 0
2, 11016, Note_on_c, 0, 101, 0
2, 11016, Note_on_c, 0, 56, 0
2, 11020, Note_on_c, 0, 89, 0
2, 11032, Note_on_c, 0, 65, 0
2, 11220, Note_on_c, 0, 85, 85
2, 11224, Control_c, 0, 64, 104
2, 11228, Note_on_c, 0, 73, 70
2, 11252, Control_c, 0, 64, 88
2, 11288, Control_c, 0, 64, 72
2, 11304, Note_on_c, 0, 85, 0
2, 11308, Note_on_c, 0, 73, 0
2, 11328, Note_on_c, 0, 84, 92
2, 11344, Note_on_c, 0, 72, 64
2, 11412, Note_on_c, 0, 72, 0
2, 11416, Control_c, 0, 64, 40
2, 11428, Control_c, 0, 64, 0
2, 11432, Note_on_c, 0, 84, 0
2, 11448, Note_on_c, 0, 83, 88
2, 11452, Note_on_c, 0, 71, 67
2, 11552, Note_on_c, 0, 83, 0
2, 11564, Note_on_c, 0, 77, 87
2, 11568, Note_on_c, 0, 71, 0
2, 11576, Note_on_c, 0, 65, 66
2, 11668, Note_on_c, 0, 77, 0
2, 11676, Note_on_c, 0, 65, 0
2, 11676, Note_on_c, 0, 76, 78
2, 11692, Note_on_c, 0, 64, 66
2, 11760, Note_on_c, 0, 76, 0
2, 11772, Note_on_c, 0, 64, 0
2, 11796, Note_on_c, 0, 79, 87
2, 11800, Note_on_c, 0, 67, 53
2, 11888, Note_on_c, 0, 67, 0
2, 11896, Note_on_c, 0, 79, 0
2, 11912, Note_on_c, 0, 84, 86
2, 11912, Note_on_c, 0, 72, 62
2, 12004, Note_on_c, 0, 72, 0
2, 12004, Note_on_c, 0, 84, 0
2, 12032, Note_on_c, 0, 81, 79
2, 12040, Note_on_c, 0, 69, 54
2, 12128, Note_on_c, 0, 81, 0
2, 12132, Note_on_c, 0, 69, 0
2, 12140, Note_on_c, 0, 78, 79
2, 12152, Note_on_c, 0, 66, 52
2, 12244, Note_on_c, 0, 78, 0
2, 12256, Note_on_c, 0, 75, 87
2, 12268, Note_on_c, 0, 63, 58
2, 12280, Note_on_c, 0, 66, 0
2, 12364, Note_on_c, 0, 63, 0
2, 12376, Note_on_c, 0, 74, 92
2, 12384, Note_on_c, 0, 75, 0
2, 12408, Note_on_c, 0, 62, 67
2, 12480, Note_on_c, 0, 74, 0
2, 12488, Note_on_c, 0, 62, 0
2, 12496, Note_on_c, 0, 61, 61
2, 12500, Note_on_c, 0, 82, 80
2, 12504, Note_on_c, 0, 73, 75
2, 12588, Note_on_c, 0, 61, 0
2, 12612, Note_on_c, 0, 82, 0
2, 12624, Note_on_c, 0, 73, 0
2, 12624, Note_on_c, 0, 60, 70
2, 12624, Note_on_c, 0, 72, 88
2, 12708, Note_on_c, 0, 72, 0
2, 12716, Note_on_c, 0, 60, 0
2, 12736, Note_on_c, 0, 70, 69
2, 12740, Note_on_c, 0, 76, 86
2, 12760, Note_on_c, 0, 48, 63
2, 12820, Note_on_c, 0, 70, 0
2, 12868, Note_on_c, 0, 76, 0
2, 12876, Note_on_c, 0, 48, 0
2, 12884, Note_on_c, 0, 77, 96
2, 12892, Note_on_c, 0, 68, 71
2, 12912, Note_on_c, 0, 53, 59
2, 13028, Control_c, 0, 64, 56
2, 13040, Note_on_c, 0, 53, 0
2, 13040, Control_c, 0, 64, 88
2, 13052, Control_c, 0, 64, 127
2, 13148, Note_on_c, 0, 68, 0
2, 13192, Note_on_c, 0, 77, 0
2, 13192, Control_c, 0, 64, 104
2, 13208, Control_c, 0, 64, 88
2, 13220, Control_c, 0, 64, 56
2, 13232, Control_c, 0, 64, 24
2, 13244, Control_c, 0, 64, 0
2, 19612, Note_on_c, 0, 72, 80
2, 19856, Note_on_c, 0, 53, 45
2, 19864, Control_c, 0, 64, 24
2, 19876, Control_c, 0, 64, 56
2, 19888, Control_c, 0, 64, 72
2, 19892, Note_on_c, 0, 53, 0
2, 19900, Control_c, 0, 64, 88
2, 19912, Control_c, 0, 64, 104
2, 19940, Control_c, 0, 64, 127
2, 19964, Note_on_c, 0, 72, 0
2, 19992, Note_on_c, 0, 73, 67
2, 20036, Note_on_c, 0, 73, 0
2, 20040, Control_c, 0, 64, 104
2, 20052, Control_c, 0, 64, 72
2, 20056, Note_on_c, 0, 75, 52
2, 20068, Control_c, 0, 64, 40
2, 20080, Note_on_c, 0, 73, 64
2, 20080, Control_c, 0, 64, 0
2, 20088, Note_on_c, 0, 75, 0
2, 20092, Note_on_c, 0, 68, 45
2, 20108, Note_on_c, 0, 60, 56
2, 20168, Control_c, 0, 64, 56
2, 20176, Note_on_c, 0, 73, 0
2, 20180, Control_c, 0, 64, 88
2, 20184, Note_on_c, 0, 68, 0
2, 20196, Control_c, 0, 64, 127
2, 20200, Note_on_c, 0, 72, 82
2, 20248, Note_on_c, 0, 60, 0
2, 20296, Note_on_c, 0, 72, 0
2, 20296, Control_c, 0, 64, 104
2, 20308, Control_c, 0, 64, 72
2, 20324, Note_on_c, 0, 77, 85
2, 20324, Control_c, 0, 64, 40
2, 20332, Note_on_c, 0, 56, 49
2, 20344, Note_on_c, 0, 65, 39
2, 20376, Note_on_c, 0, 65, 0
2, 20376, Control_c, 0, 64, 88
2, 20388, Note_on_c, 0, 56, 0
2, 20388, Control_c, 0, 64, 104
2, 20404, Note_on_c, 0, 77, 0
2, 20432, Note_on_c, 0, 79, 86
2, 20436, Control_c, 0, 64, 127
2, 20520, Note_on_c, 0, 79, 0
2, 20552, Control_c, 0, 64, 104
2, 20564, Control_c, 0, 64, 72
2, 20568, Note_on_c, 0, 80, 88
2, 20576, Control_c, 0, 64, 24
2, 20588, Note_on_c, 0, 76, 60
2, 20592, Control_c, 0, 64, 0
2, 20604, Note_on_c, 0, 48, 61
2, 20608, Note_on_c, 0, 76, 0
2, 20632, Note_on_c, 0, 48, 0
2, 20668, Control_c, 0, 64, 40
2, 20680, Control_c, 0, 64, 88
2, 20692, Control_c, 0, 64, 127
2, 20792, Note_on_c, 0, 80, 0
2, 20824, Note_on_c, 0, 82, 72
2, 20856, Note_on_c, 0, 55, 51
2, 20872, Note_on_c, 0, 64, 35
2, 20892, Note_on_c, 0, 55, 0
2, 20912, Note_on_c, 0, 64, 0
2, 20912, Note_on_c, 0, 82, 0
2, 20940, Note_on_c, 0, 80, 76
2, 21028, Note_on_c, 0, 80, 0
2, 21068, Note_on_c, 0, 79, 81
2, 21068, Note_on_c, 0, 70, 50
2, 21072, Note_on_c, 0, 67, 42
2, 21076, Note_on_c, 0, 60, 48
2, 21096, Note_on_c, 0, 67, 0
2, 21104, Note_on_c, 0, 60, 0
2, 21108, Note_on_c, 0, 70, 0
2, 21144, Note_on_c, 0, 79, 0
2, 21240, Note_on_c, 0, 68, 64
2, 21240, Control_c, 0, 64, 88
2, 21252, Control_c, 0, 64, 40
2, 21268, Note_on_c, 0, 77, 62
2, 21268, Control_c, 0, 64, 0
2, 21288, Note_on_c, 0, 68, 0
2, 21304, Note_on_c, 0, 77, 0
2, 21328, Note_on_c, 0, 53, 54
2, 21344, Control_c, 0, 64, 40
2, 21352, Note_on_c, 0, 84, 90
2, 21356, Note_on_c, 0, 53, 0
2, 21356, Control_c, 0, 64, 72
2, 21372, Control_c, 0, 64, 104
2, 21384, Control_c, 0, 64, 127
2, 21416, Note_on_c, 0, 84, 0
2, 21452, Note_on_c, 0, 83, 87
2, 21528, Note_on_c, 0, 83, 0
2, 21556, Note_on_c, 0, 82, 79
2, 21568, Note_on_c, 0, 68, 44
2, 21592, Note_on_c, 0, 60, 40
2, 21632, Note_on_c, 0, 60, 0
2, 21632, Note_on_c, 0, 82, 0
2, 21652, Note_on_c, 0, 68, 0
2, 21656, Note_on_c, 0, 84, 80
2, 21720, Note_on_c, 0, 84, 0
2, 21732, Note_on_c, 0, 80, 77
2, 21796, Note_on_c, 0, 65, 51
2, 21800, Note_on_c, 0, 56, 42
2, 21820, Note_on_c, 0, 80, 0
2, 21820, Note_on_c, 0, 79, 83
2, 21836, Note_on_c, 0, 65, 0
2, 21856, Note_on_c, 0, 56, 0
2, 21896, Note_on_c, 0, 79, 0
2, 21904, Note_on_c, 0, 84, 80
2, 21980, Note_on_c, 0, 84, 0
2, 21984, Note_on_c, 0, 77, 80
2, 22036, Note_on_c, 0, 77, 0
2, 22048, Control_c, 0, 64, 104
2, 22060, Control_c, 0, 64, 72
2, 22072, Note_on_c, 0, 76, 79
2, 22072, Control_c, 0, 64, 0
2, 22076, Note_on_c, 0, 80, 87
2, 22096, Note_on_c, 0, 48, 61
2, 22124, Note_on_c, 0, 48, 0
2, 22136, Note_on_c, 0, 76, 0
2, 22160, Control_c, 0, 64, 56
2, 22176, Control_c, 0, 64, 104
2, 22188, Control_c, 0, 64, 127
2, 22272, Note_on_c, 0, 80, 0
2, 22320, Note_on_c, 0, 82, 75
2, 22348, Note_on_c, 0, 55, 48
2, 22356, Note_on_c, 0, 64, 34
2, 22396, Note_on_c, 0, 82, 0
2, 22400, Note_on_c, 0, 64, 0
2, 22400, Note_on_c, 0, 55, 0
2, 22424, Note_on_c, 0, 80, 79
2, 22516, Note_on_c, 0, 80, 0
2, 22552, Note_on_c, 0, 79, 88
2, 22564, Note_on_c, 0, 70, 43
2, 22568, Note_on_c, 0, 67, 32
2, 22576, Note_on_c, 0, 60, 40
2, 22592, Note_on_c, 0, 67, 0
2, 22592, Note_on_c, 0, 70, 0
2, 22604, Note_on_c, 0, 60, 0
2, 22628, Note_on_c, 0, 79, 0
2, 22776, Control_c, 0, 64, 88
2, 22788, Control_c, 0, 64, 56
2, 22800, Control_c, 0, 64, 0
2, 22820, Note_on_c, 0, 77, 96
2, 22820, Note_on_c, 0, 68, 74
2, 22840, Note_on_c, 0, 56, 57
2, 22844, Note_on_c, 0, 65, 56
2, 22856, Note_on_c, 0, 53, 52
2, 22860, Note_on_c, 0, 68, 0
2, 22884, Note_on_c, 0, 77, 0
2, 22892, Control_c, 0, 64, 24
2, 22904, Control_c, 0, 64, 72
2, 22916, Control_c, 0, 64, 127
2, 22924, Note_on_c, 0, 65, 0
2, 22924, Note_on_c, 0, 53, 0
2, 22928, Note_on_c, 0, 56, 0
2, 23092, Note_on_c, 0, 101, 96
2, 23100, Note_on_c, 0, 89, 92
2, 23144, Note_on_c, 0, 101, 0
2, 23148, Note_on_c, 0, 89, 0
2, 23336, Note_on_c, 0, 85, 82
2, 23352, Note_on_c, 0, 73, 64
2, 23408, Note_on_c, 0, 85, 0
2, 23412, Note_on_c, 0, 73, 0
2, 23440, Note_on_c, 0, 84, 97
2, 23456, Note_on_c, 0, 72, 59
2, 23480, Note_on_c, 0, 72, 0
2, 23556, Note_on_c, 0, 84, 0
2, 23556, Control_c, 0, 64, 72
2, 23568, Control_c, 0, 64, 24
2, 23576, Note_on_c, 0, 83, 99
2, 23580, Control_c, 0, 64, 0
2, 23596, Note_on_c, 0, 71, 59
2, 23600, Note_on_c, 0, 65, 55
2, 23604, Note_on_c, 0, 62, 56
2, 23656, Control_c, 0, 64, 56
2, 23660, Note_on_c, 0, 83, 0
2, 23672, Control_c, 0, 64, 127
2, 23772, Note_on_c, 0, 71, 0
2, 23848, Note_on_c, 0, 101, 93
2, 23856, Note_on_c, 0, 62, 0
2, 23856, Note_on_c, 0, 89, 83
2, 23872, Note_on_c, 0, 65, 0
2, 23900, Note_on_c, 0, 101, 0
2, 23916, Note_on_c, 0, 89, 0
2, 24096, Note_on_c, 0, 84, 87
2, 24108, Note_on_c, 0, 72, 60
2, 24180, Note_on_c, 0, 72, 0
2, 24180, Note_on_c, 0, 84, 0
2, 24208, Note_on_c, 0, 83, 97
2, 24320, Note_on_c, 0, 83, 0
2, 24336, Control_c, 0, 64, 104
2, 24344, Note_on_c, 0, 82, 90
2, 24348, Control_c, 0, 64, 56
2, 24360, Control_c, 0, 64, 0
2, 24364, Note_on_c, 0, 65, 44
2, 24364, Note_on_c, 0, 70, 45
2, 24372, Note_on_c, 0, 61, 46
2, 24432, Note_on_c, 0, 82, 0
2, 24436, Control_c, 0, 64, 40
2, 24448, Control_c, 0, 64, 104
2, 24464, Control_c, 0, 64, 127
2, 24596, Note_on_c, 0, 61, 0
2, 24600, Note_on_c, 0, 70, 0
2, 24612, Note_on_c, 0, 101, 87
2, 24620, Note_on_c, 0, 89, 81
2, 24644, Note_on_c, 0, 65, 0
2, 24664, Note_on_c, 0, 101, 0
2, 24684, Note_on_c, 0, 89, 0
2, 24868, Note_on_c, 0, 84, 84
2, 24880, Note_on_c, 0, 72, 54
2, 24948, Note_on_c, 0, 72, 0
2, 24952, Note_on_c, 0, 84, 0
2, 24980, Note_on_c, 0, 70, 58
2, 24984, Note_on_c, 0, 82, 86
2, 25032, Note_on_c, 0, 70, 0
2, 25132, Note_on_c, 0, 80, 90
2, 25136, Note_on_c, 0, 82, 0
2, 25140, Control_c, 0, 64, 88
2, 25152, Control_c, 0, 64, 24
2, 25156, Note_on_c, 0, 68, 46
2, 25160, Note_on_c, 0, 65, 51
2, 25164, Control_c, 0, 64, 0
2, 25176, Note_on_c, 0, 60, 46
2, 25220, Note_on_c, 0, 80, 0
2, 25244, Control_c, 0, 64, 88
2, 25256, Control_c, 0, 64, 127
2, 25428, Note_on_c, 0, 101, 85
2, 25432, Note_on_c, 0, 89, 74
2, 25468, Note_on_c, 0, 60, 0
2, 25480, Note_on_c, 0, 101, 0
2, 25496, Note_on_c, 0, 89, 0
2, 25496, Note_on_c, 0, 65, 0
2, 25504, Note_on_c, 0, 68, 0
2, 25704, Control_c, 0, 64, 56
2, 25708, Note_on_c, 0, 82, 77
2, 25712, Note_on_c, 0, 70, 44
2, 25712, Control_c, 0, 64, 0
2, 25808, Note_on_c, 0, 82, 0
2, 25808, Note_on_c, 0, 68, 62
2, 25808, Note_on_c, 0, 80, 86
2, 25812, Note_on_c, 0, 70, 0
2, 25924, Note_on_c, 0, 80, 0
2, 25936, Note_on_c, 0, 79, 92
2, 25940, Note_on_c, 0, 68, 0
2, 25952, Note_on_c, 0, 67, 64
2, 26188, Note_on_c, 0, 79, 0
2, 26192, Note_on_c, 0, 80, 85
2, 26200, Note_on_c, 0, 67, 0
2, 26212, Note_on_c, 0, 68, 50
2, 26296, Note_on_c, 0, 80, 0
2, 26300, Note_on_c, 0, 68, 0
2, 26304, Note_on_c, 0, 79, 82
2, 26316, Note_on_c, 0, 67, 45
2, 26420, Note_on_c, 0, 79, 0
2, 26424, Note_on_c, 0, 67, 0
2, 26436, Note_on_c, 0, 77, 82
2, 26448, Note_on_c, 0, 65, 53
2, 26664, Note_on_c, 0, 65, 0
2, 26668, Note_on_c, 0, 79, 82
2, 26676, Note_on_c, 0, 77, 0
2, 26684, Note_on_c, 0, 67, 59
2, 26776, Note_on_c, 0, 70, 54
2, 26780, Note_on_c, 0, 67, 0
2, 26792, Note_on_c, 0, 79, 0
2, 26796, Note_on_c, 0, 82, 69
2, 26840, Note_on_c, 0, 70, 0
2, 26860, Note_on_c, 0, 68, 55
2, 26868, Note_on_c, 0, 82, 0
2, 26888, Note_on_c, 0, 80, 67
2, 26908, Note_on_c, 0, 68, 0
2, 26916, Note_on_c, 0, 70, 53
2, 26928, Note_on_c, 0, 80, 0
2, 26928, Note_on_c, 0, 82, 20
2, 26956, Note_on_c, 0, 68, 60
2, 26964, Note_on_c, 0, 80, 85
2, 26968, Note_on_c, 0, 70, 0
2, 26988, Note_on_c, 0, 82, 0
2, 27060, Note_on_c, 0, 68, 0
2, 27064, Note_on_c, 0, 80, 0
2, 27072, Note_on_c, 0, 79, 88
2, 27076, Note_on_c, 0, 67, 60
2, 27196, Note_on_c, 0, 79, 0
2, 27204, Note_on_c, 0, 67, 0
2, 27204, Note_on_c, 0, 77, 79
2, 27224, Note_on_c, 0, 65, 46
2, 27444, Note_on_c, 0, 79, 82
2, 27452, Note_on_c, 0, 77, 0
2, 27464, Note_on_c, 0, 65, 0
2, 27468, Note_on_c, 0, 67, 57
2, 27704, Note_on_c, 0, 79, 0
2, 27704, Note_on_c, 0, 80, 75
2, 27708, Note_on_c, 0, 67, 0
2, 27716, Note_on_c, 0, 68, 51
2, 27800, Note_on_c, 0, 68, 0
2, 27812, Note_on_c, 0, 80, 0
2, 27820, Note_on_c, 0, 79, 82
2, 27824, Note_on_c, 0, 67, 53
2, 27936, Note_on_c, 0, 79, 0
2, 27940, Note_on_c, 0, 67, 0
2, 27944, Note_on_c, 0, 77, 80
2, 27964, Note_on_c, 0, 65, 49
2, 28060, Note_on_c, 0, 84, 85
2, 28064, Note_on_c, 0, 77, 0
2, 28080, Note_on_c, 0, 65, 0
2, 28096, Note_on_c, 0, 72, 48
2, 28180, Note_on_c, 0, 72, 0
2, 28180, Note_on_c, 0, 79, 76
2, 28196, Note_on_c, 0, 84, 0
2, 28200, Note_on_c, 0, 67, 50
2, 28272, Note_on_c, 0, 67, 0
2, 28276, Note_on_c, 0, 79, 0
2, 28284, Note_on_c, 0, 82, 69
2, 28288, Note_on_c, 0, 70, 49
2, 28336, Note_on_c, 0, 70, 0
2, 28352, Note_on_c, 0, 82, 0
2, 28368, Note_on_c, 0, 68, 60
2, 28400, Note_on_c, 0, 80, 62
2, 28420, Note_on_c, 0, 68, 0
2, 28420, Note_on_c, 0, 70, 62
2, 28428, Note_on_c, 0, 82, 66
2, 28444, Note_on_c, 0, 80, 0
2, 28464, Note_on_c, 0, 80, 75
2, 28484, Note_on_c, 0, 70, 0
2, 28484, Note_on_c, 0, 68, 49
2, 28492, Note_on_c, 0, 82, 0
2, 28556, Note_on_c, 0, 80, 0
2, 28576, Note_on_c, 0, 79, 85
2, 28580, Note_on_c, 0, 68, 0
2, 28592, Note_on_c, 0, 67, 63
2, 28688, Note_on_c, 0, 67, 0
2, 28696, Note_on_c, 0, 80, 77
2, 28700, Note_on_c, 0, 68, 49
2, 28708, Note_on_c, 0, 79, 0
2, 28788, Note_on_c, 0, 80, 0
2, 28800, Note_on_c, 0, 77, 78
2, 28816, Note_on_c, 0, 68, 0
2, 28832, Note_on_c, 0, 65, 48
2, 28884, Note_on_c, 0, 77, 0
2, 28920, Note_on_c, 0, 76, 71
2, 28928, Note_on_c, 0, 65, 0
2, 28940, Note_on_c, 0, 64, 51
2, 29016, Note_on_c, 0, 76, 0
2, 29036, Note_on_c, 0, 64, 0
2, 29036, Note_on_c, 0, 79, 83
2, 29056, Note_on_c, 0, 67, 62
2, 29124, Note_on_c, 0, 79, 0
2, 29148, Note_on_c, 0, 67, 0
2, 29164, Note_on_c, 0, 75, 83
2, 29224, Note_on_c, 0, 63, 49
2, 29264, Note_on_c, 0, 75, 0
2, 29280, Note_on_c, 0, 84, 85
2, 29340, Note_on_c, 0, 63, 0
2, 29376, Note_on_c, 0, 84, 0
2, 29404, Note_on_c, 0, 74, 85
2, 29432, Note_on_c, 0, 62, 68
2, 29508, Note_on_c, 0, 74, 0
2, 29516, Note_on_c, 0, 62, 0
2, 29520, Note_on_c, 0, 82, 79
2, 29532, Note_on_c, 0, 70, 57
2, 29612, Note_on_c, 0, 70, 0
2, 29648, Note_on_c, 0, 73, 73
2, 29648, Note_on_c, 0, 61, 53
2, 29688, Note_on_c, 0, 82, 0
2, 29740, Note_on_c, 0, 61, 0
2, 29748, Note_on_c, 0, 73, 0
2, 29760, Note_on_c, 0, 77, 86
2, 29764, Note_on_c, 0, 65, 56
2, 29876, Note_on_c, 0, 65, 0
2, 29876, Note_on_c, 0, 77, 0
2, 29880, Note_on_c, 0, 72, 82
2, 29896, Note_on_c, 0, 60, 60
2, 29972, Note_on_c, 0, 60, 0
2, 29988, Note_on_c, 0, 72, 0
2, 29992, Note_on_c, 0, 68, 45
2, 30000, Note_on_c, 0, 80, 81
2, 30088, Note_on_c, 0, 68, 0
2, 30108, Note_on_c, 0, 80, 0
2, 30116, Note_on_c, 0, 70, 77
2, 30120, Note_on_c, 0, 58, 49
2, 30208, Note_on_c, 0, 58, 0
2, 30228, Note_on_c, 0, 70, 0
2, 30228, Note_on_c, 0, 67, 57
2, 30232, Note_on_c, 0, 79, 84
2, 30304, Note_on_c, 0, 67, 0
2, 30312, Note_on_c, 0, 79, 0
2, 30348, Note_on_c, 0, 56, 55
2, 30352, Note_on_c, 0, 68, 73
2, 30440, Note_on_c, 0, 56, 0
2, 30448, Note_on_c, 0, 68, 0
2, 30468, Note_on_c, 0, 72, 85
2, 30468, Note_on_c, 0, 60, 55
2, 30568, Note_on_c, 0, 60, 0
2, 30572, Note_on_c, 0, 72, 0
2, 30588, Note_on_c, 0, 67, 82
2, 30596, Note_on_c, 0, 55, 61
2, 30672, Note_on_c, 0, 55, 0
2, 30692, Note_on_c, 0, 64, 59
2, 30696, Note_on_c, 0, 67, 0
2, 30696, Note_on_c, 0, 76, 86
2, 30780, Note_on_c, 0, 64, 0
2, 30820, Note_on_c, 0, 76, 0
2, 30820, Note_on_c, 0, 65, 82
2, 30828, Note_on_c, 0, 53, 60
2, 30904, Note_on_c, 0, 53, 0
2, 30936, Note_on_c, 0, 65, 0
2, 30936, Note_on_c, 0, 61, 50
2, 30940, Note_on_c, 0, 73, 81
2, 31028, Note_on_c, 0, 73, 0
2, 31028, Note_on_c, 0, 61, 0
2, 31052, Note_on_c, 0, 64, 82
2, 31064, Note_on_c, 0, 52, 62
2, 31120, Control_c, 0, 64, 24
2, 31140, Note_on_c, 0, 52, 0
2, 31148, Control_c, 0, 64, 40
2, 31156, Note_on_c, 0, 64, 0
2, 31160, Control_c, 0, 64, 56
2, 31164, Note_on_c, 0, 55, 61
2, 31168, Note_on_c, 0, 67, 77
2, 31224, Control_c, 0, 64, 24
2, 31236, Control_c, 0, 64, 0
2, 31244, Note_on_c, 0, 55, 0
2, 31276, Note_on_c, 0, 67, 0
2, 31288, Note_on_c, 0, 63, 75
2, 31292, Note_on_c, 0, 51, 67
2, 31312, Control_c, 0, 64, 40
2, 31328, Control_c, 0, 64, 56
2, 31340, Control_c, 0, 64, 72
2, 31380, Note_on_c, 0, 51, 0
2, 31388, Control_c, 0, 64, 88
2, 31400, Note_on_c, 0, 63, 0
2, 31404, Note_on_c, 0, 72, 83
2, 31408, Note_on_c, 0, 60, 56
2, 31464, Control_c, 0, 64, 56
2, 31480, Note_on_c, 0, 60, 0
2, 31480, Control_c, 0, 64, 24
2, 31492, Note_on_c, 0, 72, 0
2, 31492, Control_c, 0, 64, 0
2, 31520, Note_on_c, 0, 62, 82
2, 31528, Control_c, 0, 64, 24
2, 31536, Note_on_c, 0, 50, 58
2, 31540, Control_c, 0, 64, 40
2, 31556, Control_c, 0, 64, 56
2, 31568, Control_c, 0, 64, 72
2, 31580, Control_c, 0, 64, 88
2, 31604, Note_on_c, 0, 50, 0
2, 31632, Note_on_c, 0, 70, 70
2, 31636, Note_on_c, 0, 58, 35
2, 31644, Note_on_c, 0, 62, 0
2, 31664, Note_on_c, 0, 58, 0
2, 31692, Note_on_c, 0, 70, 0
2, 31736, Control_c, 0, 64, 56
2, 31748, Control_c, 0, 64, 24
2, 31760, Control_c, 0, 64, 0
2, 31776, Note_on_c, 0, 58, 82
2, 31780, Note_on_c, 0, 49, 61
2, 31888, Control_c, 0, 64, 24
2, 31900, Control_c, 0, 64, 40
2, 31936, Note_on_c, 0, 49, 0
2, 31940, Control_c, 0, 64, 56
2, 31948, Note_on_c, 0, 58, 0
2, 31952, Note_on_c, 0, 61, 74
2, 31952, Note_on_c, 0, 53, 68
2, 32004, Note_on_c, 0, 61, 0
2, 32016, Note_on_c, 0, 53, 0
2, 32040, Note_on_c, 0, 65, 87
2, 32048, Note_on_c, 0, 55, 70
2, 32068, Control_c, 0, 64, 40
2, 32104, Control_c, 0, 64, 24
2, 32116, Note_on_c, 0, 65, 0
2, 32128, Note_on_c, 0, 55, 0
2, 32152, Note_on_c, 0, 67, 90
2, 32164, Note_on_c, 0, 58, 58
2, 32236, Note_on_c, 0, 67, 0
2, 32252, Note_on_c, 0, 58, 0
2, 32260, Control_c, 0, 64, 56
2, 32264, Note_on_c, 0, 70, 83
2, 32268, Note_on_c, 0, 61, 60
2, 32272, Control_c, 0, 64, 72
2, 32284, Control_c, 0, 64, 88
2, 32364, Note_on_c, 0, 61, 0
2, 32372, Note_on_c, 0, 73, 81
2, 32388, Note_on_c, 0, 65, 68
2, 32408, Note_on_c, 0, 70, 0
2, 32428, Note_on_c, 0, 73, 0
2, 32436, Control_c, 0, 64, 104
2, 32468, Note_on_c, 0, 65, 0
2, 32492, Note_on_c, 0, 77, 96
2, 32500, Note_on_c, 0, 67, 61
2, 32564, Note_on_c, 0, 77, 0
2, 32580, Note_on_c, 0, 67, 0
2, 32604, Note_on_c, 0, 79, 93
2, 32620, Note_on_c, 0, 70, 62
2, 32688, Note_on_c, 0, 70, 0
2, 32708, Note_on_c, 0, 79, 0
2, 32712, Note_on_c, 0, 82, 81
2, 32716, Note_on_c, 0, 73, 64
2, 32796, Note_on_c, 0, 73, 0
2, 32824, Note_on_c, 0, 85, 80
2, 32828, Note_on_c, 0, 77, 59
2, 32860, Note_on_c, 0, 82, 0
2, 32872, Note_on_c, 0, 85, 0
2, 32892, Note_on_c, 0, 77, 0
2, 32932, Note_on_c, 0, 89, 93
2, 32932, Note_on_c, 0, 79, 59
2, 33004, Note_on_c, 0, 89, 0
2, 33008, Note_on_c, 0, 79, 0
2, 33036, Note_on_c, 0, 91, 100
2, 33036, Note_on_c, 0, 82, 60
2, 33088, Control_c, 0, 64, 127
2, 33104, Note_on_c, 0, 82, 0
2, 33136, Note_on_c, 0, 91, 0
2, 33140, Control_c, 0, 64, 72
2, 33152, Note_on_c, 0, 94, 95
2, 33152, Control_c, 0, 64, 0
2, 33160, Note_on_c, 0, 85, 83
2, 33244, Control_c, 0, 64, 24
2, 33256, Control_c, 0, 64, 72
2, 33268, Control_c, 0, 64, 127
2, 33272, Note_on_c, 0, 85, 0
2, 33304, Note_on_c, 0, 94, 0
2, 33316, Note_on_c, 0, 92, 87
2, 33320, Note_on_c, 0, 84, 76
2, 33388, Note_on_c, 0, 84, 0
2, 33412, Note_on_c, 0, 92, 0
2, 33416, Note_on_c, 0, 91, 94
2, 33424, Note_on_c, 0, 82, 65
2, 33520, Note_on_c, 0, 82, 0
2, 33524, Note_on_c, 0, 89, 94
2, 33528, Note_on_c, 0, 91, 0
2, 33536, Note_on_c, 0, 80, 63
2, 33608, Note_on_c, 0, 80, 0
2, 33608, Note_on_c, 0, 89, 0
2, 33612, Control_c, 0, 64, 88
2, 33624, Control_c, 0, 64, 40
2, 33632, Note_on_c, 0, 79, 76
2, 33640, Note_on_c, 0, 88, 94
2, 33640, Control_c, 0, 64, 0
2, 33688, Control_c, 0, 64, 24
2, 33704, Control_c, 0, 64, 56
2, 33712, Note_on_c, 0, 79, 0
2, 33716, Control_c, 0, 64, 88
2, 33728, Note_on_c, 0, 88, 0
2, 33728, Control_c, 0, 64, 104
2, 33740, Control_c, 0, 64, 127
2, 33748, Note_on_c, 0, 85, 86
2, 33752, Note_on_c, 0, 77, 70
2, 33836, Note_on_c, 0, 77, 0
2, 33852, Note_on_c, 0, 85, 0
2, 33860, Note_on_c, 0, 84, 88
2, 33868, Note_on_c, 0, 76, 68
2, 33944, Note_on_c, 0, 84, 0
2, 33968, Note_on_c, 0, 76, 0
2, 33968, Note_on_c, 0, 82, 82
2, 33972, Note_on_c, 0, 73, 60
2, 34048, Note_on_c, 0, 73, 0
2, 34072, Note_on_c, 0, 82, 0
2, 34084, Note_on_c, 0, 80, 85
2, 34088, Note_on_c, 0, 72, 60
2, 34164, Control_c, 0, 64, 72
2, 34168, Note_on_c, 0, 72, 0
2, 34176, Control_c, 0, 64, 24
2, 34184, Note_on_c, 0, 80, 0
2, 34188, Control_c, 0, 64, 0
2, 34192, Note_on_c, 0, 79, 86
2, 34200, Note_on_c, 0, 70, 58
2, 34248, Note_on_c, 0, 70, 0
2, 34252, Control_c, 0, 64, 24
2, 34260, Note_on_c, 0, 79, 0
2, 34264, Control_c, 0, 64, 72
2, 34276, Control_c, 0, 64, 104
2, 34288, Control_c, 0, 64, 127
2, 34380, Control_c, 0, 64, 104
2, 34392, Control_c, 0, 64, 88
2, 34404, Control_c, 0, 64, 72
2, 34420, Control_c, 0, 64, 56
2, 34432, Control_c, 0, 64, 40
2, 34444, Control_c, 0, 64, 24
2, 34456, Control_c, 0, 64, 0
2, 49952, Note_on_c, 0, 65, 50
2, 50000, Note_on_c, 0, 65, 0
2, 50016, Control_c, 0, 64, 40
2, 50024, Note_on_c, 0, 72, 68
2, 50028, Control_c, 0, 64, 88
2, 50040, Control_c, 0, 64, 127
2, 50084, Note_on_c, 0, 72, 0
2, 50120, Note_on_c, 0, 80, 77
2, 50128, Note_on_c, 0, 101, 99
2, 50136, Note_on_c, 0, 89, 92
2, 50192, Note_on_c, 0, 80, 0
2, 50284, Note_on_c, 0, 101, 0
2, 50372, Note_on_c, 0, 82, 64
2, 50384, Note_on_c, 0, 97, 79
2, 50428, Note_on_c, 0, 89, 0
2, 50452, Note_on_c, 0, 97, 0
2, 50460, Note_on_c, 0, 82, 0
2, 50472, Note_on_c, 0, 80, 71
2, 50476, Note_on_c, 0, 96, 82
2, 50536, Note_on_c, 0, 80, 0
2, 50560, Note_on_c, 0, 96, 0
2, 50560, Note_on_c, 0, 77, 85
2, 50568, Note_on_c, 0, 92, 82
2, 50640, Note_on_c, 0, 77, 0
2, 50652, Note_on_c, 0, 92, 0
2, 50652, Note_on_c, 0, 89, 83
2, 50656, Note_on_c, 0, 72, 82
2, 50696, Note_on_c, 0, 89, 0
2, 50744, Note_on_c, 0, 72, 0
2, 50744, Note_on_c, 0, 85, 75
2, 50744, Note_on_c, 0, 70, 64
2, 50816, Note_on_c, 0, 85, 0
2, 50828, Note_on_c, 0, 68, 61
2, 50832, Note_on_c, 0, 84, 82
2, 50860, Note_on_c, 0, 70, 0
2, 50888, Note_on_c, 0, 68, 0
2, 50912, Note_on_c, 0, 84, 0
2, 50920, Note_on_c, 0, 80, 85
2, 50920, Note_on_c, 0, 65, 78
2, 50996, Note_on_c, 0, 65, 0
2, 51004, Note_on_c, 0, 80, 0
2, 51004, Note_on_c, 0, 77, 87
2, 51008, Note_on_c, 0, 60, 74
2, 51060, Note_on_c, 0, 77, 0
2, 51096, Note_on_c, 0, 73, 85
2, 51100, Note_on_c, 0, 60, 0
2, 51100, Note_on_c, 0, 58, 63
2, 51120, Control_c, 0, 64, 72
2, 51132, Control_c, 0, 64, 0
2, 51160, Note_on_c, 0, 73, 0
2, 51188, Note_on_c, 0, 56, 63
2, 51192, Note_on_c, 0, 72, 82
2, 51204, Note_on_c, 0, 58, 0
2, 51240, Note_on_c, 0, 56, 0
2, 51288, Note_on_c, 0, 68, 80
2, 51288, Note_on_c, 0, 53, 82
2, 51304, Note_on_c, 0, 72, 0
2, 51372, Note_on_c, 0, 48, 82
2, 51372, Note_on_c, 0, 65, 83
2, 51376, Note_on_c, 0, 68, 0
2, 51388, Note_on_c, 0, 53, 0
2, 51432, Note_on_c, 0, 65, 0
2, 51472, Note_on_c, 0, 61, 83
2, 51472, Note_on_c, 0, 46, 69
2, 51484, Note_on_c, 0, 48, 0
2, 51552, Note_on_c, 0, 61, 0
2, 51564, Note_on_c, 0, 44, 67
2, 51568, Note_on_c, 0, 60, 85
2, 51600, Note_on_c, 0, 46, 0
2, 51624, Note_on_c, 0, 44, 0
2, 51652, Note_on_c, 0, 56, 80
2, 51660, Note_on_c, 0, 41, 81
2, 51668, Note_on_c, 0, 60, 0
2, 51756, Note_on_c, 0, 53, 90
2, 51764, Note_on_c, 0, 41, 0
2, 51764, Note_on_c, 0, 56, 0
2, 51768, Note_on_c, 0, 29, 75
2, 51812, Note_on_c, 0, 29, 0
2, 51836, Note_on_c, 0, 53, 0
2, 52028, Note_on_c, 0, 48, 92
2, 52032, Note_on_c, 0, 36, 79
2, 52092, Note_on_c, 0, 36, 0
2, 52092, Note_on_c, 0, 48, 0
2, 52296, Note_on_c, 0, 55, 74
2, 52308, Note_on_c, 0, 43, 74
2, 52352, Note_on_c, 0, 55, 0
2, 52364, Note_on_c, 0, 43, 0
2, 52364, Note_on_c, 0, 56, 67
2, 52396, Note_on_c, 0, 44, 58
2, 52404, Note_on_c, 0, 55, 68
2, 52420, Note_on_c, 0, 44, 0
2, 52460, Note_on_c, 0, 56, 0
2, 52464, Note_on_c, 0, 55, 0
2, 52464, Note_on_c, 0, 53, 84
2, 52512, Note_on_c, 0, 55, 79
2, 52520, Note_on_c, 0, 41, 67
2, 52524, Note_on_c, 0, 53, 0
2, 52580, Note_on_c, 0, 43, 74
2, 52584, Note_on_c, 0, 41, 0
2, 52588, Note_on_c, 0, 56, 88
2, 52604, Note_on_c, 0, 44, 85
2, 52608, Note_on_c, 0, 55, 0
2, 52628, Note_on_c, 0, 43, 0
2, 52652, Note_on_c, 0, 44, 0
2, 52744, Note_on_c, 0, 56, 0
2, 52908, Note_on_c, 0, 53, 84
2, 52912, Note_on_c, 0, 41, 73
2, 53060, Note_on_c, 0, 41, 0
2, 53124, Note_on_c, 0, 53, 0
2, 53472, Note_on_c, 0, 61, 82
2, 53476, Note_on_c, 0, 49, 78
2, 53488, Note_on_c, 0, 53, 74
2, 53496, Note_on_c, 0, 34, 55
2, 53496, Note_on_c, 0, 46, 56
2, 53500, Note_on_c, 0, 58, 40
2, 53500, Note_on_c, 0, 41, 59
2, 53508, Note_on_c, 0, 53, 0
2, 53508, Control_c, 0, 64, 24
2, 53520, Note_on_c, 0, 49, 0
2, 53524, Control_c, 0, 64, 72
2, 53528, Note_on_c, 0, 58, 0
2, 53536, Control_c, 0, 64, 104
2, 53540, Note_on_c, 0, 41, 0
2, 53548, Note_on_c, 0, 34, 0
2, 53548, Control_c, 0, 64, 127
2, 53552, Note_on_c, 0, 46, 0
2, 53580, Note_on_c, 0, 61, 0
2, 53752, Control_c, 0, 64, 104
2, 53764, Control_c, 0, 64, 56
2, 53776, Control_c, 0, 64, 0
2, 53780, Note_on_c, 0, 73, 93
2, 53788, Note_on_c, 0, 61, 78
2, 53792, Note_on_c, 0, 65, 77
2, 53800, Note_on_c, 0, 58, 55
2, 53800, Note_on_c, 0, 46, 59
2, 53804, Note_on_c, 0, 53, 67
2, 53804, Note_on_c, 0, 70, 49
2, 53816, Note_on_c, 0, 65, 0
2, 53824, Note_on_c, 0, 53, 0
2, 53824, Note_on_c, 0, 70, 0
2, 53832, Note_on_c, 0, 61, 0
2, 53840, Control_c, 0, 64, 40
2, 53852, Note_on_c, 0, 46, 0
2, 53852, Control_c, 0, 64, 88
2, 53860, Note_on_c, 0, 58, 0
2, 53860, Control_c, 0, 64, 127
2, 53880, Note_on_c, 0, 73, 0
2, 54056, Control_c, 0, 64, 56
2, 54060, Note_on_c, 0, 85, 95
2, 54064, Note_on_c, 0, 73, 87
2, 54068, Control_c, 0, 64, 0
2, 54072, Note_on_c, 0, 77, 87
2, 54072, Note_on_c, 0, 82, 71
2, 54076, Note_on_c, 0, 65, 69
2, 54076, Note_on_c, 0, 70, 58
2, 54088, Note_on_c, 0, 58, 46
2, 54116, Note_on_c, 0, 65, 0
2, 54116, Control_c, 0, 64, 56
2, 54128, Control_c, 0, 64, 104
2, 54136, Note_on_c, 0, 77, 0
2, 54140, Note_on_c, 0, 58, 0
2, 54140, Control_c, 0, 64, 127
2, 54148, Note_on_c, 0, 73, 0
2, 54160, Note_on_c, 0, 70, 0
2, 54164, Note_on_c, 0, 82, 0
2, 54188, Note_on_c, 0, 85, 0
2, 54356, Note_on_c, 0, 85, 94
2, 54364, Note_on_c, 0, 73, 85
2, 54368, Note_on_c, 0, 76, 84
2, 54372, Note_on_c, 0, 70, 59
2, 54372, Note_on_c, 0, 82, 67
2, 54372, Control_c, 0, 64, 104
2, 54380, Note_on_c, 0, 67, 62
2, 54384, Note_on_c, 0, 61, 57
2, 54384, Note_on_c, 0, 58, 34
2, 54384, Control_c, 0, 64, 40
2, 54396, Control_c, 0, 64, 0
2, 54456, Note_on_c, 0, 67, 0
2, 54456, Control_c, 0, 64, 56
2, 54464, Note_on_c, 0, 61, 0
2, 54468, Control_c, 0, 64, 127
2, 54484, Note_on_c, 0, 58, 0
2, 54484, Note_on_c, 0, 70, 0
2, 54492, Note_on_c, 0, 76, 0
2, 54536, Note_on_c, 0, 73, 0
2, 54552, Note_on_c, 0, 82, 0
2, 54576, Note_on_c, 0, 85, 0
2, 54700, Note_on_c, 0, 84, 85
2, 54716, Note_on_c, 0, 72, 64
2, 54716, Note_on_c, 0, 77, 64
2, 54724, Note_on_c, 0, 65, 54
2, 54724, Note_on_c, 0, 68, 40
2, 54728, Note_on_c, 0, 56, 43
2, 54824, Control_c, 0, 64, 88
2, 54832, Control_c, 0, 64, 56
2, 54844, Control_c, 0, 64, 0
2, 54948, Note_on_c, 0, 84, 0
2, 54964, Control_c, 0, 64, 56
2, 54976, Note_on_c, 0, 68, 0
2, 54980, Note_on_c, 0, 77, 0
2, 54980, Control_c, 0, 64, 104
2, 54988, Note_on_c, 0, 65, 0
2, 54992, Control_c, 0, 64, 127
2, 55004, Note_on_c, 0, 56, 0
2, 55008, Note_on_c, 0, 72, 0
2, 55184, Note_on_c, 0, 68, 64
2, 55244, Note_on_c, 0, 68, 0
2, 55284, Control_c, 0, 64, 104
2, 55292, Control_c, 0, 64, 72
2, 55308, Note_on_c, 0, 68, 67
2, 55308, Control_c, 0, 64, 40
2, 55316, Control_c, 0, 64, 0
2, 55324, Note_on_c, 0, 65, 58
2, 55332, Note_on_c, 0, 56, 43
2, 55336, Note_on_c, 0, 49, 43
2, 55388, Note_on_c, 0, 68, 0
2, 55396, Note_on_c, 0, 70, 69
2, 55480, Note_on_c, 0, 70, 0
2, 55484, Note_on_c, 0, 72, 72
2, 55552, Note_on_c, 0, 72, 0
2, 55564, Note_on_c, 0, 70, 70
2, 55584, Note_on_c, 0, 56, 0
2, 55632, Note_on_c, 0, 70, 0
2, 55640, Note_on_c, 0, 72, 71
2, 55648, Note_on_c, 0, 55, 56
2, 55708, Note_on_c, 0, 72, 0
2, 55720, Note_on_c, 0, 70, 70
2, 55792, Note_on_c, 0, 70, 0
2, 55800, Note_on_c, 0, 72, 74
2, 55876, Note_on_c, 0, 70, 72
2, 55880, Note_on_c, 0, 72, 0
2, 55960, Note_on_c, 0, 70, 0
2, 55960, Note_on_c, 0, 72, 76
2, 55980, Note_on_c, 0, 53, 61
2, 55996, Note_on_c, 0, 55, 0
2, 56040, Note_on_c, 0, 70, 74
2, 56048, Note_on_c, 0, 72, 0
2, 56112, Note_on_c, 0, 53, 0
2, 56116, Note_on_c, 0, 70, 0
2, 56120, Note_on_c, 0, 68, 74
2, 56128, Note_on_c, 0, 65, 0
2, 56156, Note_on_c, 0, 49, 0
2, 56204, Note_on_c, 0, 70, 75
2, 56212, Note_on_c, 0, 68, 0
2, 56304, Note_on_c, 0, 70, 0
2, 56308, Note_on_c, 0, 72, 77
2, 56320, Note_on_c, 0, 64, 59
2, 56320, Note_on_c, 0, 55, 45
2, 56320, Note_on_c, 0, 48, 53
2, 56508, Control_c, 0, 64, 24
2, 56544, Control_c, 0, 64, 40
2, 56588, Note_on_c, 0, 64, 0
2, 56592, Control_c, 0, 64, 56
2, 56676, Control_c, 0, 64, 40
2, 56680, Note_on_c, 0, 60, 52
2, 56700, Control_c, 0, 64, 24
2, 56724, Control_c, 0, 64, 0
2, 56908, Control_c, 0, 64, 40
2, 56920, Control_c, 0, 64, 88
2, 56932, Control_c, 0, 64, 127
2, 56944, Note_on_c, 0, 60, 0
2, 56944, Note_on_c, 0, 48, 0
2, 56976, Note_on_c, 0, 55, 0
2, 56996, Note_on_c, 0, 72, 0
2, 57224, Control_c, 0, 64, 72
2, 57236, Control_c, 0, 64, 24
2, 57248, Control_c, 0, 64, 0
2, 57300, Note_on_c, 0, 63, 58
2, 57328, Note_on_c, 0, 66, 52
2, 57332, Control_c, 0, 64, 88
2, 57344, Control_c, 0, 64, 127
2, 57352, Note_on_c, 0, 63, 0
2, 57388, Note_on_c, 0, 70, 64
2, 57408, Note_on_c, 0, 66, 0
2, 57420, Note_on_c, 0, 99, 102
2, 57428, Note_on_c, 0, 87, 90
2, 57452, Note_on_c, 0, 75, 69
2, 57456, Note_on_c, 0, 70, 0
2, 57504, Note_on_c, 0, 75, 0
2, 57520, Note_on_c, 0, 87, 0
2, 57528, Note_on_c, 0, 99, 0
2, 57708, Note_on_c, 0, 80, 65
2, 57712, Note_on_c, 0, 95, 88
2, 57776, Note_on_c, 0, 95, 0
2, 57800, Note_on_c, 0, 80, 0
2, 57804, Note_on_c, 0, 94, 79
2, 57812, Note_on_c, 0, 78, 69
2, 57880, Note_on_c, 0, 94, 0
2, 57904, Note_on_c, 0, 90, 80
2, 57908, Note_on_c, 0, 75, 64
2, 57912, Note_on_c, 0, 78, 0
2, 57976, Note_on_c, 0, 75, 0
2, 57984, Control_c, 0, 64, 56
2, 57996, Note_on_c, 0, 87, 78
2, 58000, Control_c, 0, 64, 0
2, 58004, Note_on_c, 0, 71, 60
2, 58028, Note_on_c, 0, 71, 0
2, 58060, Note_on_c, 0, 90, 0
2, 58060, Control_c, 0, 64, 40
2, 58072, Control_c, 0, 64, 72
2, 58084, Control_c, 0, 64, 104
2, 58088, Note_on_c, 0, 87, 0
2, 58088, Note_on_c, 0, 83, 79
2, 58096, Note_on_c, 0, 68, 69
2, 58096, Control_c, 0, 64, 127
2, 58148, Note_on_c, 0, 83, 0
2, 58180, Note_on_c, 0, 82, 82
2, 58192, Note_on_c, 0, 66, 62
2, 58192, Control_c, 0, 64, 104
2, 58208, Note_on_c, 0, 68, 0
2, 58228, Control_c, 0, 64, 88
2, 58244, Control_c, 0, 64, 72
2, 58248, Note_on_c, 0, 82, 0
2, 58268, Control_c, 0, 64, 56
2, 58276, Note_on_c, 0, 78, 82
2, 58292, Note_on_c, 0, 63, 67
2, 58292, Control_c, 0, 64, 40
2, 58304, Note_on_c, 0, 66, 0
2, 58316, Control_c, 0, 64, 24
2, 58352, Control_c, 0, 64, 0
2, 58360, Note_on_c, 0, 63, 0
2, 58372, Note_on_c, 0, 75, 83
2, 58396, Note_on_c, 0, 59, 74
2, 58408, Note_on_c, 0, 78, 0
2, 58464, Note_on_c, 0, 75, 0
2, 58464, Note_on_c, 0, 71, 71
2, 58476, Note_on_c, 0, 56, 71
2, 58484, Note_on_c, 0, 59, 0
2, 58524, Note_on_c, 0, 71, 0
2, 58556, Note_on_c, 0, 70, 84
2, 58572, Note_on_c, 0, 54, 75
2, 58588, Note_on_c, 0, 56, 0
2, 58632, Note_on_c, 0, 70, 0
2, 58656, Note_on_c, 0, 66, 77
2, 58660, Note_on_c, 0, 51, 73
2, 58680, Note_on_c, 0, 54, 0
2, 58720, Note_on_c, 0, 51, 0
2, 58748, Note_on_c, 0, 63, 77
2, 58760, Note_on_c, 0, 47, 84
2, 58784, Note_on_c, 0, 66, 0
2, 58832, Note_on_c, 0, 63, 0
2, 58844, Note_on_c, 0, 59, 73
2, 58848, Note_on_c, 0, 44, 72
2, 58852, Note_on_c, 0, 47, 0
2, 58920, Note_on_c, 0, 59, 0
2, 58936, Control_c, 0, 64, 24
2, 58940, Note_on_c, 0, 58, 81
2, 58948, Note_on_c, 0, 44, 0
2, 58960, Note_on_c, 0, 42, 71
2, 58972, Control_c, 0, 64, 40
2, 59020, Control_c, 0, 64, 56
2, 59040, Note_on_c, 0, 39, 71
2, 59044, Note_on_c, 0, 58, 0
2, 59044, Control_c, 0, 64, 72
2, 59056, Note_on_c, 0, 42, 0
2, 59060, Note_on_c, 0, 54, 82
2, 59080, Control_c, 0, 64, 88
2, 59100, Note_on_c, 0, 39, 0
2, 59120, Note_on_c, 0, 54, 0
2, 59128, Control_c, 0, 64, 40
2, 59140, Control_c, 0, 64, 0
2, 59160, Note_on_c, 0, 51, 86
2, 59172, Note_on_c, 0, 39, 83
2, 59216, Note_on_c, 0, 39, 0
2, 59224, Control_c, 0, 64, 24
2, 59236, Note_on_c, 0, 51, 0
2, 59236, Control_c, 0, 64, 72
2, 59248, Control_c, 0, 64, 88
2, 59288, Control_c, 0, 64, 56
2, 59296, Control_c, 0, 64, 24
2, 59308, Control_c, 0, 64, 0
2, 59440, Note_on_c, 0, 46, 79
2, 59448, Note_on_c, 0, 34, 74
2, 59492, Control_c, 0, 64, 56
2, 59504, Control_c, 0, 64, 88
2, 59516, Note_on_c, 0, 34, 0
2, 59516, Control_c, 0, 64, 104
2, 59520, Note_on_c, 0, 46, 0
2, 59564, Control_c, 0, 64, 88
2, 59576, Control_c, 0, 64, 72
2, 59588, Control_c, 0, 64, 56
2, 59600, Control_c, 0, 64, 24
2, 59612, Control_c, 0, 64, 0
2, 59712, Note_on_c, 0, 53, 66
2, 59724, Note_on_c, 0, 41, 77
2, 59768, Note_on_c, 0, 53, 0
2, 59776, Note_on_c, 0, 54, 67
2, 59812, Note_on_c, 0, 41, 0
2, 59828, Note_on_c, 0, 53, 68
2, 59868, Note_on_c, 0, 54, 0
2, 59888, Note_on_c, 0, 53, 0
2, 59888, Note_on_c, 0, 51, 87
2, 59904, Note_on_c, 0, 39, 49
2, 59940, Note_on_c, 0, 53, 82
2, 59944, Note_on_c, 0, 51, 0
2, 59996, Note_on_c, 0, 39, 0
2, 59996, Note_on_c, 0, 42, 76
2, 60004, Note_on_c, 0, 54, 86
2, 60032, Note_on_c, 0, 53, 0
2, 60084, Note_on_c, 0, 42, 0
2, 60128, Note_on_c, 0, 54, 0
2, 60340, Note_on_c, 0, 51, 80
2, 60348, Note_on_c, 0, 39, 60
2, 60404, Control_c, 0, 64, 40
2, 60416, Control_c, 0, 64, 72
2, 60428, Control_c, 0, 64, 104
2, 60440, Control_c, 0, 64, 127
2, 60500, Note_on_c, 0, 39, 0
2, 60512, Note_on_c, 0, 51, 0
2, 60644, Control_c, 0, 64, 104
2, 60656, Control_c, 0, 64, 88
2, 60668, Control_c, 0, 64, 72
2, 60680, Control_c, 0, 64, 56
2, 60692, Control_c, 0, 64, 40
2, 60704, Control_c, 0, 64, 24
2, 60716, Control_c, 0, 64, 0
2, 61008, Control_c, 0, 64, 24
2, 61020, Note_on_c, 0, 60, 94
2, 61020, Control_c, 0, 64, 56
2, 61024, Note_on_c, 0, 48, 82
2, 61024, Note_on_c, 0, 54, 71
2, 61024, Note_on_c, 0, 51, 69
2, 61032, Note_on_c, 0, 39, 43
2, 61032, Control_c, 0, 64, 104
2, 61036, Note_on_c, 0, 33, 57
2, 61040, Note_on_c, 0, 42, 34
2, 61044, Note_on_c, 0, 45, 32
2, 61044, Control_c, 0, 64, 127
2, 61060, Note_on_c, 0, 33, 0
2, 61060, Note_on_c, 0, 48, 0
2, 61068, Note_on_c, 0, 42, 0
2, 61072, Note_on_c, 0, 51, 0
2, 61080, Note_on_c, 0, 39, 0
2, 61084, Note_on_c, 0, 45, 0
2, 61084, Note_on_c, 0, 54, 0
2, 61112, Note_on_c, 0, 60, 0
2, 61300, Control_c, 0, 64, 72
2, 61312, Control_c, 0, 64, 0
2, 61320, Note_on_c, 0, 72, 100
2, 61324, Note_on_c, 0, 60, 82
2, 61328, Note_on_c, 0, 66, 67
2, 61328, Note_on_c, 0, 63, 65
2, 61332, Note_on_c, 0, 45, 62
2, 61332, Note_on_c, 0, 51, 60
2, 61332, Note_on_c, 0, 57, 59
2, 61332, Note_on_c, 0, 54, 53
2, 61360, Note_on_c, 0, 45, 0
2, 61364, Note_on_c, 0, 60, 0
2, 61372, Control_c, 0, 64, 24
2, 61376, Note_on_c, 0, 63, 0
2, 61380, Note_on_c, 0, 54, 0
2, 61384, Note_on_c, 0, 51, 0
2, 61384, Control_c, 0, 64, 88
2, 61392, Note_on_c, 0, 66, 0
2, 61396, Note_on_c, 0, 57, 0
2, 61396, Control_c, 0, 64, 127
2, 61420, Note_on_c, 0, 72, 0
2, 61616, Note_on_c, 0, 84, 102
2, 61616, Control_c, 0, 64, 88
2, 61624, Note_on_c, 0, 72, 86
2, 61624, Note_on_c, 0, 78, 75
2, 61628, Note_on_c, 0, 75, 72
2, 61628, Control_c, 0, 64, 24
2, 61632, Note_on_c, 0, 63, 54
2, 61636, Note_on_c, 0, 69, 57
2, 61636, Note_on_c, 0, 57, 57
2, 61636, Note_on_c, 0, 66, 48
2, 61640, Control_c, 0, 64, 0
2, 61688, Control_c, 0, 64, 24
2, 61700, Note_on_c, 0, 57, 0
2, 61700, Control_c, 0, 64, 104
2, 61712, Control_c, 0, 64, 127
2, 61716, Note_on_c, 0, 66, 0
2, 61724, Note_on_c, 0, 72, 0
2, 61728, Note_on_c, 0, 63, 0
2, 61732, Note_on_c, 0, 75, 0
2, 61732, Note_on_c, 0, 69, 0
2, 61736, Note_on_c, 0, 78, 0
2, 61764, Note_on_c, 0, 84, 0
2, 61944, Note_on_c, 0, 85, 95
2, 61960, Note_on_c, 0, 73, 70
2, 61964, Note_on_c, 0, 77, 79
2, 61964, Note_on_c, 0, 70, 58
2, 61968, Note_on_c, 0, 65, 60
2, 61972, Note_on_c, 0, 58, 45
2, 62004, Control_c, 0, 64, 88
2, 62016, Control_c, 0, 64, 24
2, 62028, Control_c, 0, 64, 0
2, 62088, Control_c, 0, 64, 88
2, 62100, Control_c, 0, 64, 127
2, 62120, Note_on_c, 0, 58, 0
2, 62124, Note_on_c, 0, 65, 0
2, 62132, Note_on_c, 0, 70, 0
2, 62136, Note_on_c, 0, 77, 0
2, 62172, Note_on_c, 0, 73, 0
2, 62192, Note_on_c, 0, 85, 0
2, 62300, Note_on_c, 0, 84, 84
2, 62316, Note_on_c, 0, 72, 63
2, 62324, Note_on_c, 0, 77, 56
2, 62324, Note_on_c, 0, 65, 50
2, 62324, Note_on_c, 0, 68, 36
2, 62328, Note_on_c, 0, 56, 39
2, 62416, Control_c, 0, 64, 104
2, 62428, Control_c, 0, 64, 56
2, 62440, Control_c, 0, 64, 0
2, 62548, Control_c, 0, 64, 72
2, 62556, Note_on_c, 0, 84, 0
2, 62560, Control_c, 0, 64, 127
2, 62564, Note_on_c, 0, 68, 0
2, 62576, Note_on_c, 0, 65, 0
2, 62584, Note_on_c, 0, 56, 0
2, 62588, Note_on_c, 0, 77, 0
2, 62612, Note_on_c, 0, 72, 0
2, 62832, Note_on_c, 0, 68, 68
2, 62888, Note_on_c, 0, 68, 0
2, 62952, Note_on_c, 0, 68, 62
2, 62960, Control_c, 0, 64, 104
2, 62964, Note_on_c, 0, 65, 53
2, 62976, Note_on_c, 0, 56, 51
2, 62976, Control_c, 0, 64, 72
2, 62988, Note_on_c, 0, 49, 44
2, 62988, Control_c, 0, 64, 40
2, 63000, Control_c, 0, 64, 0
2, 63020, Note_on_c, 0, 68, 0
2, 63040, Note_on_c, 0, 70, 65
2, 63116, Note_on_c, 0, 70, 0
2, 63120, Note_on_c, 0, 72, 70
2, 63196, Note_on_c, 0, 72, 0
2, 63200, Note_on_c, 0, 70, 69
2, 63272, Note_on_c, 0, 70, 0
2, 63280, Note_on_c, 0, 56, 0
2, 63284, Note_on_c, 0, 72, 72
2, 63316, Note_on_c, 0, 55, 56
2, 63356, Note_on_c, 0, 72, 0
2, 63364, Note_on_c, 0, 70, 70
2, 63432, Note_on_c, 0, 70, 0
2, 63436, Note_on_c, 0, 72, 74
2, 63512, Note_on_c, 0, 70, 72
2, 63516, Note_on_c, 0, 72, 0
2, 63592, Note_on_c, 0, 70, 0
2, 63600, Note_on_c, 0, 72, 76
2, 63644, Note_on_c, 0, 53, 59
2, 63660, Note_on_c, 0, 55, 0
2, 63680, Note_on_c, 0, 70, 75
2, 63684, Note_on_c, 0, 72, 0
2, 63760, Note_on_c, 0, 70, 0
2, 63764, Note_on_c, 0, 68, 75
2, 63788, Note_on_c, 0, 65, 0
2, 63796, Note_on_c, 0, 53, 0
2, 63852, Note_on_c, 0, 70, 72
2, 63856, Note_on_c, 0, 49, 0
2, 63856, Note_on_c, 0, 68, 0
2, 63956, Note_on_c, 0, 70, 0
2, 63956, Note_on_c, 0, 72, 70
2, 63968, Note_on_c, 0, 64, 51
2, 63972, Note_on_c, 0, 55, 48
2, 63984, Note_on_c, 0, 48, 60
2, 64208, Note_on_c, 0, 72, 0
2, 64332, Note_on_c, 0, 72, 68
2, 64552, Note_on_c, 0, 72, 0
2, 64728, Note_on_c, 0, 72, 59
2, 65008, Note_on_c, 0, 48, 0
2, 65020, Note_on_c, 0, 55, 0
2, 65044, Note_on_c, 0, 64, 0
2, 65056, Note_on_c, 0, 72, 0
2, 65176, Note_on_c, 0, 44, 55
2, 65176, Control_c, 0, 64, 127
2, 65180, Note_on_c, 0, 72, 66
2, 65228, Note_on_c, 0, 44, 0
2, 65264, Note_on_c, 0, 72, 0
2, 65272, Note_on_c, 0, 73, 64
2, 65344, Note_on_c, 0, 73, 0
2, 65364, Note_on_c, 0, 74, 72
2, 65452, Note_on_c, 0, 74, 0
2, 65472, Note_on_c, 0, 77, 79
2, 65484, Note_on_c, 0, 51, 53
2, 65536, Note_on_c, 0, 77, 0
2, 65556, Note_on_c, 0, 51, 0
2, 65572, Note_on_c, 0, 75, 79
2, 65636, Note_on_c, 0, 75, 0
2, 65676, Note_on_c, 0, 79, 77
2, 65744, Note_on_c, 0, 79, 0
2, 65776, Note_on_c, 0, 80, 81
2, 65784, Note_on_c, 0, 68, 61
2, 65800, Note_on_c, 0, 60, 58
2, 65824, Note_on_c, 0, 60, 0
2, 65840, Note_on_c, 0, 68, 0
2, 65852, Note_on_c, 0, 80, 0
2, 65884, Note_on_c, 0, 82, 77
2, 65984, Note_on_c, 0, 84, 85
2, 66004, Note_on_c, 0, 82, 0
2, 66064, Note_on_c, 0, 84, 0
2, 66088, Control_c, 0, 64, 56
2, 66092, Note_on_c, 0, 73, 75
2, 66100, Control_c, 0, 64, 0
2, 66104, Note_on_c, 0, 68, 77
2, 66120, Note_on_c, 0, 61, 57
2, 66124, Note_on_c, 0, 58, 56
2, 66152, Note_on_c, 0, 73, 0
2, 66196, Note_on_c, 0, 84, 85
2, 66196, Control_c, 0, 64, 56
2, 66208, Control_c, 0, 64, 104
2, 66220, Control_c, 0, 64, 127
2, 66268, Note_on_c, 0, 84, 0
2, 66272, Note_on_c, 0, 68, 0
2, 66296, Note_on_c, 0, 82, 70
2, 66372, Control_c, 0, 64, 88
2, 66380, Note_on_c, 0, 82, 0
2, 66384, Control_c, 0, 64, 24
2, 66392, Note_on_c, 0, 67, 57
2, 66396, Note_on_c, 0, 80, 80
2, 66400, Control_c, 0, 64, 0
2, 66432, Note_on_c, 0, 67, 0
2, 66440, Control_c, 0, 64, 24
2, 66452, Note_on_c, 0, 61, 0
2, 66452, Control_c, 0, 64, 56
2, 66460, Note_on_c, 0, 58, 0
2, 66464, Control_c, 0, 64, 88
2, 66476, Note_on_c, 0, 80, 0
2, 66480, Control_c, 0, 64, 127
2, 66496, Note_on_c, 0, 79, 82
2, 66592, Note_on_c, 0, 82, 71
2, 66620, Note_on_c, 0, 79, 0
2, 66656, Control_c, 0, 64, 72
2, 66668, Control_c, 0, 64, 40
2, 66684, Control_c, 0, 64, 24
2, 66692, Note_on_c, 0, 82, 0
2, 66700, Note_on_c, 0, 77, 75
2, 66704, Note_on_c, 0, 51, 53
2, 66724, Control_c, 0, 64, 56
2, 66736, Control_c, 0, 64, 72
2, 66764, Note_on_c, 0, 51, 0
2, 66768, Note_on_c, 0, 77, 0
2, 66792, Control_c, 0, 64, 88
2, 66800, Note_on_c, 0, 75, 72
2, 66860, Control_c, 0, 64, 104
2, 66876, Note_on_c, 0, 75, 0
2, 66900, Note_on_c, 0, 73, 67
2, 66952, Control_c, 0, 64, 40
2, 66964, Control_c, 0, 64, 0
2, 66992, Note_on_c, 0, 73, 0
2, 66996, Note_on_c, 0, 72, 69
2, 67008, Note_on_c, 0, 44, 50
2, 67072, Note_on_c, 0, 44, 0
2, 67072, Note_on_c, 0, 72, 0
2, 67076, Control_c, 0, 64, 40
2, 67088, Control_c, 0, 64, 88
2, 67092, Note_on_c, 0, 73, 69
2, 67104, Control_c, 0, 64, 104
2, 67116, Control_c, 0, 64, 127
2, 67180, Note_on_c, 0, 73, 0
2, 67188, Note_on_c, 0, 74, 77
2, 67284, Note_on_c, 0, 74, 0
2, 67288, Note_on_c, 0, 77, 76
2, 67308, Note_on_c, 0, 51, 56
2, 67356, Note_on_c, 0, 77, 0
2, 67388, Note_on_c, 0, 51, 0
2, 67388, Note_on_c, 0, 75, 83
2, 67460, Note_on_c, 0, 75, 0
2, 67488, Note_on_c, 0, 79, 86
2, 67560, Note_on_c, 0, 79, 0
2, 67592, Note_on_c, 0, 80, 84
2, 67616, Note_on_c, 0, 68, 65
2, 67624, Note_on_c, 0, 60, 65
2, 67652, Note_on_c, 0, 60, 0
2, 67672, Note_on_c, 0, 68, 0
2, 67672, Note_on_c, 0, 80, 0
2, 67692, Note_on_c, 0, 82, 74
2, 67800, Note_on_c, 0, 82, 0
2, 67800, Note_on_c, 0, 84, 85
2, 67884, Note_on_c, 0, 84, 0
2, 67908, Note_on_c, 0, 73, 80
2, 67920, Note_on_c, 0, 68, 80
2, 67928, Note_on_c, 0, 61, 62
2, 67928, Note_on_c, 0, 58, 53
2, 67932, Control_c, 0, 64, 88
2, 67944, Control_c, 0, 64, 40
2, 67956, Control_c, 0, 64, 0
2, 67972, Note_on_c, 0, 73, 0
2, 68024, Note_on_c, 0, 84, 74
2, 68040, Control_c, 0, 64, 40
2, 68052, Control_c, 0, 64, 88
2, 68064, Control_c, 0, 64, 127
2, 68092, Note_on_c, 0, 84, 0
2, 68116, Note_on_c, 0, 68, 0
2, 68120, Note_on_c, 0, 82, 68
2, 68212, Note_on_c, 0, 82, 0
2, 68216, Control_c, 0, 64, 40
2, 68224, Note_on_c, 0, 67, 66
2, 68228, Note_on_c, 0, 80, 71
2, 68228, Control_c, 0, 64, 0
2, 68276, Note_on_c, 0, 67, 0
2, 68280, Note_on_c, 0, 58, 0
2, 68292, Note_on_c, 0, 61, 0
2, 68296, Control_c, 0, 64, 24
2, 68308, Note_on_c, 0, 80, 0
2, 68312, Control_c, 0, 64, 56
2, 68324, Control_c, 0, 64, 88
2, 68332, Note_on_c, 0, 79, 74
2, 68336, Control_c, 0, 64, 127
2, 68424, Note_on_c, 0, 82, 68
2, 68456, Note_on_c, 0, 79, 0
2, 68520, Note_on_c, 0, 82, 0
2, 68524, Note_on_c, 0, 77, 74
2, 68524, Note_on_c, 0, 51, 54
2, 68576, Note_on_c, 0, 51, 0
2, 68592, Note_on_c, 0, 77, 0
2, 68620, Note_on_c, 0, 75, 65
2, 68696, Note_on_c, 0, 75, 0
2, 68720, Note_on_c, 0, 73, 63
2, 68772, Control_c, 0, 64, 88
2, 68784, Control_c, 0, 64, 24
2, 68796, Control_c, 0, 64, 0
2, 68808, Note_on_c, 0, 73, 0
2, 68820, Note_on_c, 0, 44, 53
2, 68836, Note_on_c, 0, 72, 71
2, 68880, Note_on_c, 0, 44, 0
2, 68880, Control_c, 0, 64, 24
2, 68892, Control_c, 0, 64, 72
2, 68904, Control_c, 0, 64, 104
2, 68908, Note_on_c, 0, 72, 0
2, 68920, Control_c, 0, 64, 127
2, 68932, Note_on_c, 0, 73, 67
2, 69032, Note_on_c, 0, 73, 0
2, 69032, Note_on_c, 0, 74, 77
2, 69128, Note_on_c, 0, 74, 0
2, 69128, Note_on_c, 0, 77, 74
2, 69132, Note_on_c, 0, 51, 54
2, 69180, Note_on_c, 0, 77, 0
2, 69228, Note_on_c, 0, 75, 65
2, 69300, Note_on_c, 0, 75, 0
2, 69316, Note_on_c, 0, 51, 0
2, 69324, Note_on_c, 0, 79, 82
2, 69396, Control_c, 0, 64, 72
2, 69408, Control_c, 0, 64, 24
2, 69420, Control_c, 0, 64, 0
2, 69428, Note_on_c, 0, 79, 0
2, 69436, Note_on_c, 0, 82, 77
2, 69444, Note_on_c, 0, 56, 54
2, 69476, Control_c, 0, 64, 40
2, 69488, Control_c, 0, 64, 88
2, 69496, Note_on_c, 0, 82, 0
2, 69504, Control_c, 0, 64, 127
2, 69528, Note_on_c, 0, 80, 74
2, 69608, Note_on_c, 0, 80, 0
2, 69624, Note_on_c, 0, 83, 76
2, 69736, Note_on_c, 0, 85, 80
2, 69748, Note_on_c, 0, 83, 0
2, 69756, Note_on_c, 0, 68, 65
2, 69756, Note_on_c, 0, 60, 64
2, 69796, Note_on_c, 0, 85, 0
2, 69844, Note_on_c, 0, 84, 81
2, 69928, Note_on_c, 0, 84, 0
2, 69940, Note_on_c, 0, 86, 81
2, 70032, Note_on_c, 0, 89, 82
2, 70040, Note_on_c, 0, 86, 0
2, 70096, Note_on_c, 0, 89, 0
2, 70132, Note_on_c, 0, 87, 77
2, 70148, Note_on_c, 0, 68, 0
2, 70168, Note_on_c, 0, 60, 0
2, 70216, Note_on_c, 0, 89, 79
2, 70220, Note_on_c, 0, 87, 0
2, 70224, Note_on_c, 0, 56, 0
2, 70300, Note_on_c, 0, 89, 0
2, 70316, Note_on_c, 0, 92, 81
2, 70384, Note_on_c, 0, 92, 0
2, 70420, Note_on_c, 0, 90, 78
2, 70492, Note_on_c, 0, 90, 0
2, 70516, Note_on_c, 0, 93, 86
2, 70576, Control_c, 0, 64, 88
2, 70584, Control_c, 0, 64, 24
2, 70600, Note_on_c, 0, 93, 0
2, 70600, Control_c, 0, 64, 0
2, 70612, Note_on_c, 0, 32, 61
2, 70624, Note_on_c, 0, 96, 91
2, 70668, Control_c, 0, 64, 72
2, 70680, Control_c, 0, 64, 127
2, 70688, Note_on_c, 0, 96, 0
2, 70716, Note_on_c, 0, 32, 0
2, 70720, Note_on_c, 0, 94, 85
2, 70808, Note_on_c, 0, 94, 0
2, 70824, Note_on_c, 0, 90, 83
2, 70928, Note_on_c, 0, 87, 78
2, 70952, Note_on_c, 0, 51, 53
2, 70980, Note_on_c, 0, 90, 0
2, 71020, Note_on_c, 0, 87, 0
2, 71020, Note_on_c, 0, 84, 78
2, 71072, Note_on_c, 0, 84, 0
2, 71120, Note_on_c, 0, 82, 71
2, 71160, Note_on_c, 0, 51, 0
2, 71196, Note_on_c, 0, 82, 0
2, 71224, Note_on_c, 0, 78, 72
2, 71240, Note_on_c, 0, 56, 47
2, 71312, Note_on_c, 0, 78, 0
2, 71324, Note_on_c, 0, 75, 67
2, 71408, Note_on_c, 0, 75, 0
2, 71424, Note_on_c, 0, 72, 56
2, 71480, Note_on_c, 0, 72, 0
2, 71532, Note_on_c, 0, 70, 73
2, 71532, Note_on_c, 0, 66, 53
2, 71540, Note_on_c, 0, 60, 56
2, 71560, Control_c, 0, 64, 104
2, 71576, Control_c, 0, 64, 40
2, 71588, Control_c, 0, 64, 0
2, 71612, Note_on_c, 0, 70, 0
2, 71636, Note_on_c, 0, 72, 66
2, 71684, Control_c, 0, 64, 40
2, 71696, Control_c, 0, 64, 72
2, 71708, Control_c, 0, 64, 88
2, 71724, Note_on_c, 0, 70, 67
2, 71732, Note_on_c, 0, 72, 0
2, 71808, Note_on_c, 0, 70, 0
2, 71824, Note_on_c, 0, 66, 0
2, 71836, Note_on_c, 0, 69, 68
2, 71904, Note_on_c, 0, 69, 0
2, 71928, Note_on_c, 0, 70, 65
2, 71956, Control_c, 0, 64, 40
2, 71968, Control_c, 0, 64, 0
2, 72032, Note_on_c, 0, 70, 0
2, 72036, Note_on_c, 0, 68, 64
2, 72036, Control_c, 0, 64, 24
2, 72048, Control_c, 0, 64, 56
2, 72076, Control_c, 0, 64, 72
2, 72096, Note_on_c, 0, 60, 0
2, 72116, Control_c, 0, 64, 88
2, 72124, Note_on_c, 0, 68, 0
2, 72152, Note_on_c, 0, 67, 63
2, 72160, Note_on_c, 0, 56, 0
2, 72224, Note_on_c, 0, 67, 0
2, 72252, Note_on_c, 0, 68, 56
2, 72308, Control_c, 0, 64, 104
2, 72328, Note_on_c, 0, 68, 0
2, 72364, Note_on_c, 0, 66, 60
2, 72456, Note_on_c, 0, 66, 0
2, 72468, Control_c, 0, 64, 40
2, 72484, Control_c, 0, 64, 0
2, 72488, Note_on_c, 0, 65, 60
2, 72500, Note_on_c, 0, 37, 50
2, 72556, Note_on_c, 0, 37, 0
2, 72564, Note_on_c, 0, 65, 0
2, 72564, Control_c, 0, 64, 56
2, 72580, Control_c, 0, 64, 104
2, 72588, Note_on_c, 0, 66, 61
2, 72592, Control_c, 0, 64, 127
2, 72680, Note_on_c, 0, 66, 0
2, 72696, Note_on_c, 0, 67, 73
2, 72784, Note_on_c, 0, 67, 0
2, 72804, Note_on_c, 0, 70, 69
2, 72804, Note_on_c, 0, 44, 56
2, 72868, Note_on_c, 0, 44, 0
2, 72868, Note_on_c, 0, 70, 0
2, 72900, Note_on_c, 0, 68, 76
2, 72980, Note_on_c, 0, 68, 0
2, 73004, Note_on_c, 0, 72, 84
2, 73080, Note_on_c, 0, 72, 0
2, 73108, Note_on_c, 0, 73, 74
2, 73108, Note_on_c, 0, 61, 66
2, 73108, Control_c, 0, 64, 104
2, 73120, Note_on_c, 0, 53, 63
2, 73148, Note_on_c, 0, 53, 0
2, 73156, Note_on_c, 0, 61, 0
2, 73176, Control_c, 0, 64, 127
2, 73188, Note_on_c, 0, 73, 0
2, 73208, Note_on_c, 0, 75, 75
2, 73316, Note_on_c, 0, 75, 0
2, 73316, Note_on_c, 0, 77, 82
2, 73396, Note_on_c, 0, 77, 0
2, 73416, Note_on_c, 0, 66, 73
2, 73428, Note_on_c, 0, 61, 77
2, 73432, Control_c, 0, 64, 56
2, 73436, Note_on_c, 0, 51, 56
2, 73440, Note_on_c, 0, 54, 57
2, 73444, Control_c, 0, 64, 0
2, 73484, Note_on_c, 0, 66, 0
2, 73516, Note_on_c, 0, 77, 82
2, 73528, Control_c, 0, 64, 24
2, 73540, Control_c, 0, 64, 56
2, 73556, Control_c, 0, 64, 88
2, 73568, Control_c, 0, 64, 104
2, 73584, Note_on_c, 0, 61, 0
2, 73596, Note_on_c, 0, 77, 0
2, 73624, Note_on_c, 0, 75, 75
2, 73648, Control_c, 0, 64, 127
2, 73716, Control_c, 0, 64, 56
2, 73724, Note_on_c, 0, 75, 0
2, 73728, Note_on_c, 0, 73, 73
2, 73728, Control_c, 0, 64, 0
2, 73736, Note_on_c, 0, 60, 64
2, 73788, Note_on_c, 0, 60, 0
2, 73796, Note_on_c, 0, 54, 0
2, 73804, Note_on_c, 0, 51, 0
2, 73812, Note_on_c, 0, 73, 0
2, 73812, Control_c, 0, 64, 40
2, 73828, Note_on_c, 0, 72, 84
2, 73828, Control_c, 0, 64, 72
2, 73840, Control_c, 0, 64, 88
2, 73852, Control_c, 0, 64, 104
2, 73908, Control_c, 0, 64, 127
2, 73932, Note_on_c, 0, 75, 71
2, 73960, Note_on_c, 0, 72, 0
2, 74000, Control_c, 0, 64, 24
2, 74016, Control_c, 0, 64, 0
2, 74032, Note_on_c, 0, 75, 0
2, 74032, Note_on_c, 0, 70, 71
2, 74044, Note_on_c, 0, 44, 49
2, 74084, Control_c, 0, 64, 24
2, 74096, Control_c, 0, 64, 56
2, 74108, Note_on_c, 0, 70, 0
2, 74112, Control_c, 0, 64, 88
2, 74124, Control_c, 0, 64, 104
2, 74132, Note_on_c, 0, 44, 0
2, 74132, Note_on_c, 0, 68, 67
2, 74180, Control_c, 0, 64, 127
2, 74208, Note_on_c, 0, 68, 0
2, 74232, Note_on_c, 0, 66, 64
2, 74288, Control_c, 0, 64, 72
2, 74300, Control_c, 0, 64, 0
2, 74324, Note_on_c, 0, 66, 0
2, 74348, Note_on_c, 0, 65, 68
2, 74376, Note_on_c, 0, 37, 53
2, 74420, Note_on_c, 0, 65, 0
2, 74420, Control_c, 0, 64, 56
2, 74436, Control_c, 0, 64, 88
2, 74440, Note_on_c, 0, 37, 0
2, 74440, Note_on_c, 0, 66, 60
2, 74452, Control_c, 0, 64, 104
2, 74464, Control_c, 0, 64, 127
2, 74528, Note_on_c, 0, 66, 0
2, 74540, Note_on_c, 0, 67, 74
2, 74620, Note_on_c, 0, 67, 0
2, 74648, Note_on_c, 0, 70, 70
2, 74656, Note_on_c, 0, 44, 55
2, 74712, Note_on_c, 0, 70, 0
2, 74736, Note_on_c, 0, 44, 0
2, 74740, Note_on_c, 0, 68, 74
2, 74816, Note_on_c, 0, 68, 0
2, 74832, Note_on_c, 0, 72, 85
2, 74908, Note_on_c, 0, 72, 0
2, 74936, Note_on_c, 0, 73, 74
2, 74944, Note_on_c, 0, 61, 70
2, 74952, Note_on_c, 0, 53, 68
2, 75008, Note_on_c, 0, 53, 0
2, 75016, Note_on_c, 0, 61, 0
2, 75016, Note_on_c, 0, 73, 0
2, 75028, Note_on_c, 0, 75, 73
2, 75128, Note_on_c, 0, 77, 75
2, 75148, Note_on_c, 0, 75, 0
2, 75212, Note_on_c, 0, 77, 0
2, 75236, Control_c, 0, 64, 104
2, 75240, Note_on_c, 0, 61, 86
2, 75240, Note_on_c, 0, 54, 67
2, 75244, Note_on_c, 0, 66, 65
2, 75244, Note_on_c, 0, 51, 62
2, 75248, Control_c, 0, 64, 72
2, 75264, Control_c, 0, 64, 0
2, 75312, Note_on_c, 0, 66, 0
2, 75348, Note_on_c, 0, 77, 79
2, 75356, Control_c, 0, 64, 56
2, 75372, Control_c, 0, 64, 88
2, 75384, Control_c, 0, 64, 127
2, 75420, Note_on_c, 0, 77, 0
2, 75440, Note_on_c, 0, 61, 0
2, 75448, Note_on_c, 0, 75, 74
2, 75536, Control_c, 0, 64, 104
2, 75544, Note_on_c, 0, 75, 0
2, 75548, Control_c, 0, 64, 40
2, 75552, Note_on_c, 0, 60, 80
2, 75560, Control_c, 0, 64, 0
2, 75564, Note_on_c, 0, 73, 62
2, 75624, Note_on_c, 0, 54, 0
2, 75628, Note_on_c, 0, 60, 0
2, 75632, Note_on_c, 0, 51, 0
2, 75644, Control_c, 0, 64, 56
2, 75652, Note_on_c, 0, 73, 0
2, 75652, Note_on_c, 0, 72, 73
2, 75656, Control_c, 0, 64, 88
2, 75668, Control_c, 0, 64, 127
2, 75764, Note_on_c, 0, 75, 70
2, 75776, Note_on_c, 0, 72, 0
2, 75844, Note_on_c, 0, 75, 0
2, 75856, Note_on_c, 0, 44, 65
2, 75860, Note_on_c, 0, 70, 64
2, 75932, Note_on_c, 0, 70, 0
2, 75932, Note_on_c, 0, 44, 0
2, 75952, Note_on_c, 0, 68, 64
2, 76028, Note_on_c, 0, 68, 0
2, 76060, Note_on_c, 0, 66, 57
2, 76116, Control_c, 0, 64, 104
2, 76132, Control_c, 0, 64, 72
2, 76144, Control_c, 0, 64, 0
2, 76152, Note_on_c, 0, 66, 0
2, 76164, Note_on_c, 0, 65, 70
2, 76172, Note_on_c, 0, 37, 48
2, 76204, Note_on_c, 0, 37, 0
2, 76228, Control_c, 0, 64, 24
2, 76240, Note_on_c, 0, 65, 0
2, 76240, Control_c, 0, 64, 72
2, 76252, Control_c, 0, 64, 104
2, 76260, Note_on_c, 0, 66, 61
2, 76268, Control_c, 0, 64, 127
2, 76356, Note_on_c, 0, 66, 0
2, 76360, Note_on_c, 0, 67, 68
2, 76448, Note_on_c, 0, 67, 0
2, 76464, Note_on_c, 0, 70, 65
2, 76476, Note_on_c, 0, 49, 50
2, 76528, Note_on_c, 0, 70, 0
2, 76560, Note_on_c, 0, 68, 67
2, 76644, Note_on_c, 0, 68, 0
2, 76652, Note_on_c, 0, 72, 81
2, 76660, Control_c, 0, 64, 104
2, 76672, Control_c, 0, 64, 56
2, 76688, Control_c, 0, 64, 0
2, 76708, Note_on_c, 0, 49, 0
2, 76752, Note_on_c, 0, 75, 75
2, 76756, Note_on_c, 0, 72, 0
2, 76756, Note_on_c, 0, 56, 58
2, 76756, Control_c, 0, 64, 24
2, 76768, Control_c, 0, 64, 56
2, 76784, Control_c, 0, 64, 104
2, 76796, Control_c, 0, 64, 127
2, 76820, Note_on_c, 0, 75, 0
2, 76848, Note_on_c, 0, 73, 68
2, 76916, Note_on_c, 0, 73, 0
2, 76944, Note_on_c, 0, 76, 80
2, 77012, Control_c, 0, 64, 88
2, 77028, Control_c, 0, 64, 24
2, 77036, Note_on_c, 0, 76, 0
2, 77040, Control_c, 0, 64, 0
2, 77044, Note_on_c, 0, 79, 81
2, 77060, Note_on_c, 0, 65, 68
2, 77060, Note_on_c, 0, 58, 53
2, 77108, Note_on_c, 0, 79, 0
2, 77108, Control_c, 0, 64, 56
2, 77120, Control_c, 0, 64, 127
2, 77128, Note_on_c, 0, 56, 0
2, 77132, Note_on_c, 0, 65, 0
2, 77132, Note_on_c, 0, 58, 0
2, 77148, Note_on_c, 0, 77, 79
2, 77232, Note_on_c, 0, 77, 0
2, 77240, Note_on_c, 0, 81, 77
2, 77336, Note_on_c, 0, 84, 74
2, 77340, Note_on_c, 0, 81, 0
2, 77396, Note_on_c, 0, 84, 0
2, 77436, Note_on_c, 0, 82, 61
2, 77508, Note_on_c, 0, 82, 0
2, 77524, Note_on_c, 0, 84, 79
2, 77612, Note_on_c, 0, 84, 0
2, 77620, Note_on_c, 0, 87, 81
2, 77712, Note_on_c, 0, 87, 0
2, 77728, Note_on_c, 0, 85, 78
2, 77804, Note_on_c, 0, 85, 0
2, 77812, Note_on_c, 0, 88, 84
2, 77908, Note_on_c, 0, 88, 0
2, 77932, Control_c, 0, 64, 88
2, 77940, Note_on_c, 0, 91, 85
2, 77944, Control_c, 0, 64, 24
2, 77952, Note_on_c, 0, 39, 55
2, 77960, Control_c, 0, 64, 0
2, 78020, Note_on_c, 0, 39, 0
2, 78028, Note_on_c, 0, 91, 0
2, 78040, Control_c, 0, 64, 88
2, 78052, Note_on_c, 0, 89, 72
2, 78056, Control_c, 0, 64, 127
2, 78156, Note_on_c, 0, 89, 0
2, 78160, Note_on_c, 0, 85, 71
2, 78256, Note_on_c, 0, 82, 65
2, 78256, Note_on_c, 0, 51, 55
2, 78320, Note_on_c, 0, 85, 0
2, 78348, Note_on_c, 0, 82, 0
2, 78352, Note_on_c, 0, 79, 68
2, 78384, Note_on_c, 0, 79, 0
2, 78448, Note_on_c, 0, 77, 79
2, 78516, Note_on_c, 0, 77, 0
2, 78544, Note_on_c, 0, 73, 63
2, 78564, Note_on_c, 0, 55, 60
2, 78644, Note_on_c, 0, 73, 0
2, 78668, Note_on_c, 0, 70, 65
2, 78752, Note_on_c, 0, 70, 0
2, 78760, Note_on_c, 0, 67, 64
2, 78844, Note_on_c, 0, 67, 0
2, 78872, Note_on_c, 0, 61, 69
2, 78876, Note_on_c, 0, 68, 71
2, 78892, Control_c, 0, 64, 88
2, 78904, Control_c, 0, 64, 40
2, 78920, Control_c, 0, 64, 0
2, 78956, Note_on_c, 0, 68, 0
2, 78980, Note_on_c, 0, 67, 58
2, 78984, Note_on_c, 0, 69, 57
2, 79004, Note_on_c, 0, 67, 0
2, 79036, Note_on_c, 0, 69, 0
2, 79084, Note_on_c, 0, 72, 76
2, 79144, Note_on_c, 0, 72, 0
2, 79184, Note_on_c, 0, 70, 64
2, 79216, Control_c, 0, 64, 24
2, 79236, Note_on_c, 0, 51, 0
2, 79272, Control_c, 0, 64, 0
2, 79284, Note_on_c, 0, 68, 69
2, 79292, Note_on_c, 0, 70, 0
2, 79380, Control_c, 0, 64, 24
2, 79396, Note_on_c, 0, 67, 70
2, 79396, Control_c, 0, 64, 40
2, 79436, Control_c, 0, 64, 56
2, 79444, Note_on_c, 0, 55, 0
2, 79460, Note_on_c, 0, 68, 0
2, 79468, Note_on_c, 0, 67, 0
2, 79472, Note_on_c, 0, 61, 0
2, 79476, Control_c, 0, 64, 72
2, 79488, Note_on_c, 0, 65, 70
2, 79532, Control_c, 0, 64, 88
2, 79556, Note_on_c, 0, 65, 0
2, 79600, Note_on_c, 0, 63, 58
2, 79612, Control_c, 0, 64, 104
2, 79660, Note_on_c, 0, 63, 0
2, 79668, Control_c, 0, 64, 127
2, 79692, Note_on_c, 0, 61, 67
2, 79760, Note_on_c, 0, 61, 0
2, 79788, Control_c, 0, 64, 56
2, 79800, Control_c, 0, 64, 0
2, 79824, Note_on_c, 0, 60, 67
2, 79848, Note_on_c, 0, 40, 56
2, 79884, Note_on_c, 0, 40, 0
2, 79888, Note_on_c, 0, 60, 0
2, 79896, Control_c, 0, 64, 24
2, 79908, Control_c, 0, 64, 56
2, 79924, Control_c, 0, 64, 88
2, 79936, Control_c, 0, 64, 127
2, 79952, Note_on_c, 0, 67, 65
2, 80040, Note_on_c, 0, 67, 0
2, 80040, Note_on_c, 0, 70, 65
2, 80076, Note_on_c, 0, 70, 0
2, 80144, Note_on_c, 0, 72, 78
2, 80168, Note_on_c, 0, 64, 45
2, 80204, Note_on_c, 0, 72, 0
2, 80240, Note_on_c, 0, 79, 80
2, 80288, Note_on_c, 0, 64, 0
2, 80336, Note_on_c, 0, 84, 83
2, 80344, Note_on_c, 0, 79, 0
2, 80400, Note_on_c, 0, 84, 0
2, 80400, Control_c, 0, 64, 104
2, 80412, Control_c, 0, 64, 56
2, 80424, Control_c, 0, 64, 0
2, 80440, Note_on_c, 0, 85, 85
2, 80440, Note_on_c, 0, 70, 73
2, 80448, Note_on_c, 0, 65, 69
2, 80480, Control_c, 0, 64, 24
2, 80492, Control_c, 0, 64, 56
2, 80504, Control_c, 0, 64, 88
2, 80508, Note_on_c, 0, 70, 0
2, 80520, Control_c, 0, 64, 127
2, 80532, Note_on_c, 0, 65, 0
2, 80532, Note_on_c, 0, 85, 0
2, 80548, Note_on_c, 0, 79, 74
2, 80632, Note_on_c, 0, 79, 0
2, 80652, Note_on_c, 0, 73, 70
2, 80708, Note_on_c, 0, 73, 0
2, 80736, Control_c, 0, 64, 88
2, 80752, Control_c, 0, 64, 40
2, 80756, Note_on_c, 0, 72, 84
2, 80756, Note_on_c, 0, 70, 76
2, 80760, Note_on_c, 0, 65, 73
2, 80764, Control_c, 0, 64, 0
2, 80864, Note_on_c, 0, 79, 66
2, 80900, Note_on_c, 0, 72, 0
2, 80900, Control_c, 0, 64, 24
2, 80912, Control_c, 0, 64, 56
2, 80928, Control_c, 0, 64, 88
2, 80940, Control_c, 0, 64, 104
2, 80952, Note_on_c, 0, 82, 65
2, 80956, Control_c, 0, 64, 127
2, 80976, Note_on_c, 0, 79, 0
2, 81008, Note_on_c, 0, 82, 0
2, 81056, Note_on_c, 0, 65, 0
2, 81056, Note_on_c, 0, 64, 60
2, 81072, Note_on_c, 0, 84, 82
2, 81096, Note_on_c, 0, 64, 0
2, 81120, Note_on_c, 0, 70, 0
2, 81144, Note_on_c, 0, 84, 0
2, 81164, Note_on_c, 0, 91, 82
2, 81252, Note_on_c, 0, 91, 0
2, 81256, Note_on_c, 0, 96, 83
2, 81308, Control_c, 0, 64, 104
2, 81320, Control_c, 0, 64, 56
2, 81324, Note_on_c, 0, 96, 0
2, 81332, Control_c, 0, 64, 0
2, 81372, Note_on_c, 0, 97, 88
2, 81380, Note_on_c, 0, 82, 87
2, 81384, Note_on_c, 0, 77, 83
2, 81400, Control_c, 0, 64, 24
2, 81416, Control_c, 0, 64, 72
2, 81428, Control_c, 0, 64, 104
2, 81444, Control_c, 0, 64, 127
2, 81468, Note_on_c, 0, 97, 0
2, 81472, Note_on_c, 0, 91, 83
2, 81540, Note_on_c, 0, 77, 0
2, 81564, Note_on_c, 0, 91, 0
2, 81572, Note_on_c, 0, 85, 79
2, 81580, Note_on_c, 0, 82, 0
2, 81636, Note_on_c, 0, 85, 0
2, 81688, Note_on_c, 0, 82, 91
2, 81688, Note_on_c, 0, 84, 82
2, 81688, Control_c, 0, 64, 56
2, 81692, Note_on_c, 0, 77, 84
2, 81700, Control_c, 0, 64, 0
2, 81780, Note_on_c, 0, 91, 81
2, 81780, Control_c, 0, 64, 40
2, 81792, Control_c, 0, 64, 72
2, 81808, Control_c, 0, 64, 104
2, 81820, Control_c, 0, 64, 127
2, 81828, Note_on_c, 0, 84, 0
2, 81872, Note_on_c, 0, 91, 0
2, 81872, Note_on_c, 0, 96, 94
2, 81932, Control_c, 0, 64, 104
2, 81944, Control_c, 0, 64, 56
2, 81956, Control_c, 0, 64, 40
2, 81972, Note_on_c, 0, 96, 0
2, 81976, Note_on_c, 0, 77, 0
2, 81992, Note_on_c, 0, 94, 77
2, 82000, Note_on_c, 0, 76, 69
2, 82000, Control_c, 0, 64, 88
2, 82008, Note_on_c, 0, 82, 0
2, 82012, Control_c, 0, 64, 127
2, 82024, Note_on_c, 0, 76, 0
2, 82100, Note_on_c, 0, 91, 77
2, 82172, Note_on_c, 0, 94, 0
2, 82188, Note_on_c, 0, 91, 0
2, 82188, Note_on_c, 0, 84, 77
2, 82228, Note_on_c, 0, 84, 0
2, 82268, Control_c, 0, 64, 56
2, 82284, Control_c, 0, 64, 0
2, 82304, Note_on_c, 0, 84, 78
2, 82304, Note_on_c, 0, 48, 86
2, 82312, Note_on_c, 0, 36, 74
2, 82324, Control_c, 0, 64, 24
2, 82336, Control_c, 0, 64, 56
2, 82352, Control_c, 0, 64, 104
2, 82364, Control_c, 0, 64, 127
2, 82372, Note_on_c, 0, 84, 0
2, 82408, Note_on_c, 0, 82, 60
2, 82424, Note_on_c, 0, 36, 0
2, 82484, Note_on_c, 0, 48, 0
2, 82508, Note_on_c, 0, 79, 63
2, 82580, Note_on_c, 0, 79, 0
2, 82580, Note_on_c, 0, 82, 0
2, 82580, Control_c, 0, 64, 88
2, 82596, Control_c, 0, 64, 56
2, 82604, Note_on_c, 0, 72, 73
2, 82608, Note_on_c, 0, 50, 81
2, 82608, Control_c, 0, 64, 0
2, 82616, Note_on_c, 0, 38, 64
2, 82648, Note_on_c, 0, 72, 0
2, 82648, Control_c, 0, 64, 56
2, 82664, Control_c, 0, 64, 88
2, 82676, Control_c, 0, 64, 127
2, 82712, Note_on_c, 0, 72, 72
2, 82764, Note_on_c, 0, 50, 0
2, 82772, Note_on_c, 0, 72, 0
2, 82796, Note_on_c, 0, 38, 0
2, 82804, Note_on_c, 0, 70, 65
2, 82880, Control_c, 0, 64, 88
2, 82892, Control_c, 0, 64, 24
2, 82908, Control_c, 0, 64, 0
2, 82912, Note_on_c, 0, 39, 61
2, 82912, Note_on_c, 0, 67, 66
2, 82912, Note_on_c, 0, 51, 72
2, 82944, Note_on_c, 0, 70, 0
2, 82960, Control_c, 0, 64, 40
2, 82976, Control_c, 0, 64, 72
2, 82988, Control_c, 0, 64, 104
2, 82992, Note_on_c, 0, 67, 0
2, 83004, Control_c, 0, 64, 127
2, 83012, Note_on_c, 0, 60, 61
2, 83028, Note_on_c, 0, 39, 0
2, 83032, Note_on_c, 0, 51, 0
2, 83048, Note_on_c, 0, 60, 0
2, 83100, Note_on_c, 0, 60, 76
2, 83152, Control_c, 0, 64, 88
2, 83164, Control_c, 0, 64, 40
2, 83176, Note_on_c, 0, 60, 0
2, 83180, Control_c, 0, 64, 0
2, 83212, Note_on_c, 0, 58, 61
2, 83228, Note_on_c, 0, 52, 72
2, 83240, Note_on_c, 0, 40, 63
2, 83260, Control_c, 0, 64, 56
2, 83272, Note_on_c, 0, 52, 0
2, 83272, Control_c, 0, 64, 88
2, 83284, Note_on_c, 0, 40, 0
2, 83288, Control_c, 0, 64, 104
2, 83316, Note_on_c, 0, 58, 0
2, 83320, Note_on_c, 0, 55, 68
2, 83396, Note_on_c, 0, 55, 0
2, 83412, Note_on_c, 0, 60, 62
2, 83436, Control_c, 0, 64, 88
2, 83448, Control_c, 0, 64, 56
2, 83464, Control_c, 0, 64, 24
2, 83476, Control_c, 0, 64, 0
2, 83496, Note_on_c, 0, 60, 0
2, 83524, Note_on_c, 0, 53, 79
2, 83536, Note_on_c, 0, 41, 60
2, 83600, Control_c, 0, 64, 40
2, 83604, Note_on_c, 0, 41, 0
2, 83616, Note_on_c, 0, 53, 0
2, 83616, Control_c, 0, 64, 88
2, 83628, Control_c, 0, 64, 127
2, 83648, Note_on_c, 0, 60, 63
2, 83740, Note_on_c, 0, 63, 63
2, 83756, Note_on_c, 0, 60, 0
2, 83784, Note_on_c, 0, 63, 0
2, 83852, Note_on_c, 0, 65, 76
2, 83852, Note_on_c, 0, 57, 56
2, 83928, Note_on_c, 0, 65, 0
2, 83952, Note_on_c, 0, 72, 83
2, 84024, Note_on_c, 0, 57, 0
2, 84044, Note_on_c, 0, 77, 77
2, 84052, Note_on_c, 0, 72, 0
2, 84100, Note_on_c, 0, 77, 0
2, 84100, Control_c, 0, 64, 72
2, 84116, Control_c, 0, 64, 24
2, 84128, Control_c, 0, 64, 0
2, 84144, Note_on_c, 0, 78, 83
2, 84144, Note_on_c, 0, 63, 70
2, 84148, Note_on_c, 0, 58, 61
2, 84184, Control_c, 0, 64, 40
2, 84200, Note_on_c, 0, 63, 0
2, 84200, Control_c, 0, 64, 72
2, 84204, Note_on_c, 0, 58, 0
2, 84212, Control_c, 0, 64, 104
2, 84224, Control_c, 0, 64, 127
2, 84240, Note_on_c, 0, 78, 0
2, 84244, Note_on_c, 0, 72, 85
2, 84324, Note_on_c, 0, 72, 0
2, 84332, Note_on_c, 0, 66, 71
2, 84404, Note_on_c, 0, 66, 0
2, 84428, Control_c, 0, 64, 72
2, 84440, Note_on_c, 0, 63, 72
2, 84444, Note_on_c, 0, 65, 82
2, 84444, Control_c, 0, 64, 0
2, 84448, Note_on_c, 0, 58, 64
2, 84544, Note_on_c, 0, 72, 75
2, 84564, Control_c, 0, 64, 56
2, 84576, Control_c, 0, 64, 88
2, 84584, Note_on_c, 0, 65, 0
2, 84592, Control_c, 0, 64, 127
2, 84640, Note_on_c, 0, 75, 69
2, 84664, Note_on_c, 0, 72, 0
2, 84700, Note_on_c, 0, 75, 0
2, 84732, Note_on_c, 0, 58, 0
2, 84740, Note_on_c, 0, 57, 63
2, 84756, Note_on_c, 0, 77, 90
2, 84768, Control_c, 0, 64, 72
2, 84780, Control_c, 0, 64, 0
2, 84836, Note_on_c, 0, 57, 0
2, 84840, Note_on_c, 0, 77, 0
2, 84848, Note_on_c, 0, 84, 83
2, 84848, Control_c, 0, 64, 24
2, 84864, Control_c, 0, 64, 88
2, 84868, Note_on_c, 0, 63, 0
2, 84876, Control_c, 0, 64, 127
2, 84944, Note_on_c, 0, 89, 88
2, 84964, Note_on_c, 0, 84, 0
2, 85000, Note_on_c, 0, 89, 0
2, 85012, Control_c, 0, 64, 88
2, 85024, Control_c, 0, 64, 24
2, 85040, Control_c, 0, 64, 0
2, 85044, Note_on_c, 0, 90, 89
2, 85056, Note_on_c, 0, 75, 85
2, 85068, Note_on_c, 0, 70, 79
2, 85092, Control_c, 0, 64, 56
2, 85108, Control_c, 0, 64, 127
2, 85148, Note_on_c, 0, 90, 0
2, 85156, Note_on_c, 0, 84, 84
2, 85248, Note_on_c, 0, 84, 0
2, 85256, Note_on_c, 0, 75, 0
2, 85256, Note_on_c, 0, 78, 73
2, 85272, Note_on_c, 0, 70, 0
2, 85324, Note_on_c, 0, 78, 0
2, 85364, Control_c, 0, 64, 88
2, 85376, Note_on_c, 0, 77, 87
2, 85376, Note_on_c, 0, 75, 97
2, 85376, Control_c, 0, 64, 24
2, 85380, Note_on_c, 0, 70, 85
2, 85392, Control_c, 0, 64, 0
2, 85432, Control_c, 0, 64, 40
2, 85444, Control_c, 0, 64, 104
2, 85460, Control_c, 0, 64, 127
2, 85472, Note_on_c, 0, 84, 83
2, 85552, Note_on_c, 0, 77, 0
2, 85568, Note_on_c, 0, 89, 87
2, 85572, Note_on_c, 0, 84, 0
2, 85660, Control_c, 0, 64, 56
2, 85668, Note_on_c, 0, 89, 0
2, 85676, Note_on_c, 0, 87, 78
2, 85676, Control_c, 0, 64, 0
2, 85680, Note_on_c, 0, 69, 81
2, 85700, Note_on_c, 0, 75, 0
2, 85728, Note_on_c, 0, 69, 0
2, 85732, Note_on_c, 0, 70, 0
2, 85744, Control_c, 0, 64, 72
2, 85756, Control_c, 0, 64, 127
2, 85796, Note_on_c, 0, 84, 79
2, 85884, Note_on_c, 0, 87, 0
2, 85892, Note_on_c, 0, 84, 0
2, 85900, Note_on_c, 0, 77, 78
2, 85944, Note_on_c, 0, 77, 0
2, 85972, Control_c, 0, 64, 104
2, 85988, Control_c, 0, 64, 40
2, 85996, Note_on_c, 0, 29, 68
2, 86000, Note_on_c, 0, 41, 77
2, 86004, Control_c, 0, 64, 0
2, 86016, Note_on_c, 0, 77, 71
2, 86056, Control_c, 0, 64, 56
2, 86068, Control_c, 0, 64, 104
2, 86076, Note_on_c, 0, 77, 0
2, 86084, Control_c, 0, 64, 127
2, 86100, Note_on_c, 0, 29, 0
2, 86112, Note_on_c, 0, 75, 63
2, 86152, Note_on_c, 0, 41, 0
2, 86216, Note_on_c, 0, 72, 72
2, 86264, Note_on_c, 0, 75, 0
2, 86272, Control_c, 0, 64, 88
2, 86284, Control_c, 0, 64, 24
2, 86288, Note_on_c, 0, 72, 0
2, 86300, Control_c, 0, 64, 0
2, 86304, Note_on_c, 0, 65, 70
2, 86308, Note_on_c, 0, 43, 82
2, 86316, Note_on_c, 0, 31, 65
2, 86340, Control_c, 0, 64, 24
2, 86352, Control_c, 0, 64, 56
2, 86360, Note_on_c, 0, 65, 0
2, 86368, Control_c, 0, 64, 104
2, 86380, Control_c, 0, 64, 127
2, 86404, Note_on_c, 0, 65, 66
2, 86448, Note_on_c, 0, 31, 0
2, 86452, Note_on_c, 0, 43, 0
2, 86480, Note_on_c, 0, 65, 0
2, 86488, Note_on_c, 0, 63, 63
2, 86572, Control_c, 0, 64, 88
2, 86584, Control_c, 0, 64, 24
2, 86596, Note_on_c, 0, 60, 67
2, 86596, Control_c, 0, 64, 0
2, 86604, Note_on_c, 0, 44, 72
2, 86604, Note_on_c, 0, 32, 67
2, 86644, Note_on_c, 0, 63, 0
2, 86652, Control_c, 0, 64, 56
2, 86664, Control_c, 0, 64, 88
2, 86680, Note_on_c, 0, 60, 0
2, 86680, Control_c, 0, 64, 127
2, 86696, Note_on_c, 0, 32, 0
2, 86700, Note_on_c, 0, 53, 78
2, 86764, Note_on_c, 0, 53, 0
2, 86776, Note_on_c, 0, 44, 0
2, 86800, Note_on_c, 0, 53, 71
2, 86840, Control_c, 0, 64, 72
2, 86856, Control_c, 0, 64, 24
2, 86868, Control_c, 0, 64, 0
2, 86872, Note_on_c, 0, 53, 0
2, 86892, Note_on_c, 0, 51, 72
2, 86908, Note_on_c, 0, 45, 74
2, 86924, Note_on_c, 0, 33, 64
2, 86936, Control_c, 0, 64, 40
2, 86952, Control_c, 0, 64, 72
2, 86964, Control_c, 0, 64, 104
2, 86976, Control_c, 0, 64, 127
2, 86992, Note_on_c, 0, 48, 75
2, 87008, Note_on_c, 0, 45, 0
2, 87032, Note_on_c, 0, 51, 0
2, 87040, Note_on_c, 0, 33, 0
2, 87080, Note_on_c, 0, 48, 0
2, 87092, Note_on_c, 0, 53, 68
2, 87140, Note_on_c, 0, 53, 0
2, 87140, Control_c, 0, 64, 56
2, 87152, Control_c, 0, 64, 0
2, 87220, Note_on_c, 0, 34, 61
2, 87240, Note_on_c, 0, 61, 73
2, 87260, Control_c, 0, 64, 56
2, 87276, Control_c, 0, 64, 88
2, 87288, Control_c, 0, 64, 127
2, 87292, Note_on_c, 0, 34, 0
2, 87340, Note_on_c, 0, 63, 69
2, 87348, Note_on_c, 0, 61, 0
2, 87400, Note_on_c, 0, 63, 0
2, 87440, Note_on_c, 0, 64, 78
2, 87464, Control_c, 0, 64, 104
2, 87480, Control_c, 0, 64, 56
2, 87492, Control_c, 0, 64, 24
2, 87512, Note_on_c, 0, 64, 0
2, 87532, Note_on_c, 0, 66, 74
2, 87532, Control_c, 0, 64, 56
2, 87544, Note_on_c, 0, 53, 64
2, 87548, Control_c, 0, 64, 72
2, 87560, Control_c, 0, 64, 88
2, 87572, Control_c, 0, 64, 104
2, 87584, Note_on_c, 0, 66, 0
2, 87588, Control_c, 0, 64, 127
2, 87624, Note_on_c, 0, 65, 78
2, 87696, Note_on_c, 0, 65, 0
2, 87720, Note_on_c, 0, 69, 76
2, 87776, Control_c, 0, 64, 72
2, 87784, Note_on_c, 0, 53, 0
2, 87792, Control_c, 0, 64, 24
2, 87796, Note_on_c, 0, 69, 0
2, 87804, Control_c, 0, 64, 0
2, 87828, Note_on_c, 0, 70, 75
2, 87836, Note_on_c, 0, 53, 54
2, 87836, Note_on_c, 0, 58, 53
2, 87848, Note_on_c, 0, 49, 49
2, 87860, Control_c, 0, 64, 24
2, 87872, Control_c, 0, 64, 56
2, 87884, Control_c, 0, 64, 72
2, 87900, Control_c, 0, 64, 88
2, 87908, Note_on_c, 0, 70, 0
2, 87912, Control_c, 0, 64, 104
2, 87920, Note_on_c, 0, 53, 0
2, 87924, Control_c, 0, 64, 127
2, 87932, Note_on_c, 0, 72, 76
2, 87956, Note_on_c, 0, 49, 0
2, 87972, Note_on_c, 0, 58, 0
2, 88028, Note_on_c, 0, 72, 0
2, 88040, Note_on_c, 0, 73, 75
2, 88076, Control_c, 0, 64, 88
2, 88088, Control_c, 0, 64, 40
2, 88104, Note_on_c, 0, 73, 0
2, 88104, Control_c, 0, 64, 0
2, 88120, Note_on_c, 0, 58, 62
2, 88140, Note_on_c, 0, 48, 69
2, 88140, Note_on_c, 0, 63, 77
2, 88140, Note_on_c, 0, 53, 61
2, 88172, Control_c, 0, 64, 24
2, 88184, Control_c, 0, 64, 56
2, 88196, Control_c, 0, 64, 88
2, 88208, Note_on_c, 0, 63, 0
2, 88212, Control_c, 0, 64, 104
2, 88224, Control_c, 0, 64, 127
2, 88232, Note_on_c, 0, 73, 73
2, 88296, Note_on_c, 0, 73, 0
2, 88336, Note_on_c, 0, 72, 73
2, 88356, Note_on_c, 0, 58, 0
2, 88360, Control_c, 0, 64, 104
2, 88376, Control_c, 0, 64, 72
2, 88388, Control_c, 0, 64, 24
2, 88400, Control_c, 0, 64, 0
2, 88412, Note_on_c, 0, 72, 0
2, 88432, Note_on_c, 0, 57, 59
2, 88432, Note_on_c, 0, 70, 70
2, 88440, Control_c, 0, 64, 24
2, 88456, Control_c, 0, 64, 56
2, 88468, Control_c, 0, 64, 72
2, 88484, Control_c, 0, 64, 104
2, 88504, Note_on_c, 0, 53, 0
2, 88508, Note_on_c, 0, 57, 0
2, 88508, Control_c, 0, 64, 127
2, 88524, Note_on_c, 0, 69, 78
2, 88532, Note_on_c, 0, 48, 0
2, 88560, Note_on_c, 0, 70, 0
2, 88584, Note_on_c, 0, 69, 0
2, 88624, Note_on_c, 0, 72, 73
2, 88660, Control_c, 0, 64, 104
2, 88672, Control_c, 0, 64, 72
2, 88688, Note_on_c, 0, 72, 0
2, 88688, Control_c, 0, 64, 24
2, 88700, Control_c, 0, 64, 0
2, 88724, Note_on_c, 0, 66, 67
2, 88752, Note_on_c, 0, 41, 65
2, 88768, Control_c, 0, 64, 40
2, 88780, Control_c, 0, 64, 72
2, 88808, Note_on_c, 0, 66, 0
2, 88808, Control_c, 0, 64, 88
2, 88816, Note_on_c, 0, 65, 72
2, 88820, Note_on_c, 0, 41, 0
2, 88820, Control_c, 0, 64, 104
2, 88872, Control_c, 0, 64, 127
2, 88892, Note_on_c, 0, 65, 0
2, 88908, Note_on_c, 0, 63, 69
2, 88996, Note_on_c, 0, 63, 0
2, 89012, Control_c, 0, 64, 88
2, 89016, Note_on_c, 0, 61, 71
2, 89024, Control_c, 0, 64, 40
2, 89036, Control_c, 0, 64, 0
2, 89052, Note_on_c, 0, 34, 54
2, 89120, Note_on_c, 0, 63, 67
2, 89120, Control_c, 0, 64, 24
2, 89128, Note_on_c, 0, 34, 0
2, 89132, Control_c, 0, 64, 72
2, 89136, Note_on_c, 0, 61, 0
2, 89144, Control_c, 0, 64, 127
2, 89184, Note_on_c, 0, 63, 0
2, 89216, Note_on_c, 0, 64, 81
2, 89300, Note_on_c, 0, 64, 0
2, 89320, Note_on_c, 0, 66, 72
2, 89336, Note_on_c, 0, 53, 60
2, 89380, Note_on_c, 0, 66, 0
2, 89424, Note_on_c, 0, 65, 83
2, 89508, Note_on_c, 0, 65, 0
2, 89520, Note_on_c, 0, 69, 88
2, 89556, Note_on_c, 0, 53, 0
2, 89596, Note_on_c, 0, 69, 0
2, 89620, Note_on_c, 0, 70, 79
2, 89620, Note_on_c, 0, 53, 74
2, 89628, Note_on_c, 0, 58, 68
2, 89636, Note_on_c, 0, 49, 57
2, 89704, Note_on_c, 0, 70, 0
2, 89724, Note_on_c, 0, 72, 83
2, 89812, Note_on_c, 0, 58, 0
2, 89828, Note_on_c, 0, 72, 0
2, 89832, Note_on_c, 0, 73, 81
2, 89852, Note_on_c, 0, 53, 0
2, 89852, Note_on_c, 0, 49, 0
2, 89892, Control_c, 0, 64, 72
2, 89904, Control_c, 0, 64, 24
2, 89916, Control_c, 0, 64, 0
2, 89924, Note_on_c, 0, 73, 0
2, 89936, Note_on_c, 0, 58, 77
2, 89940, Note_on_c, 0, 63, 77
2, 89940, Note_on_c, 0, 53, 71
2, 89944, Note_on_c, 0, 48, 76
2, 90008, Note_on_c, 0, 63, 0
2, 90012, Control_c, 0, 64, 56
2, 90028, Control_c, 0, 64, 88
2, 90040, Note_on_c, 0, 73, 79
2, 90040, Control_c, 0, 64, 127
2, 90112, Note_on_c, 0, 73, 0
2, 90136, Note_on_c, 0, 72, 64
2, 90152, Note_on_c, 0, 58, 0
2, 90188, Control_c, 0, 64, 88
2, 90204, Control_c, 0, 64, 24
2, 90216, Note_on_c, 0, 72, 0
2, 90216, Control_c, 0, 64, 0
2, 90236, Note_on_c, 0, 70, 71
2, 90240, Note_on_c, 0, 57, 69
2, 90292, Note_on_c, 0, 53, 0
2, 90300, Control_c, 0, 64, 40
2, 90308, Note_on_c, 0, 48, 0
2, 90312, Control_c, 0, 64, 72
2, 90316, Note_on_c, 0, 57, 0
2, 90324, Control_c, 0, 64, 88
2, 90340, Control_c, 0, 64, 104
2, 90344, Note_on_c, 0, 69, 70
2, 90384, Note_on_c, 0, 70, 0
2, 90392, Control_c, 0, 64, 127
2, 90408, Note_on_c, 0, 69, 0
2, 90436, Note_on_c, 0, 72, 67
2, 90472, Control_c, 0, 64, 72
2, 90488, Control_c, 0, 64, 24
2, 90500, Control_c, 0, 64, 0
2, 90516, Note_on_c, 0, 72, 0
2, 90536, Note_on_c, 0, 41, 60
2, 90544, Note_on_c, 0, 66, 69
2, 90544, Control_c, 0, 64, 24
2, 90556, Control_c, 0, 64, 56
2, 90572, Control_c, 0, 64, 88
2, 90584, Control_c, 0, 64, 104
2, 90596, Control_c, 0, 64, 127
2, 90616, Note_on_c, 0, 66, 0
2, 90640, Note_on_c, 0, 65, 69
2, 90708, Note_on_c, 0, 65, 0
2, 90740, Note_on_c, 0, 63, 67
2, 90780, Note_on_c, 0, 41, 0
2, 90820, Note_on_c, 0, 63, 0
2, 90824, Control_c, 0, 64, 104
2, 90840, Control_c, 0, 64, 72
2, 90852, Control_c, 0, 64, 0
2, 90856, Note_on_c, 0, 62, 83
2, 90872, Note_on_c, 0, 44, 67
2, 90948, Note_on_c, 0, 62, 0
2, 90976, Control_c, 0, 64, 24
2, 90980, Note_on_c, 0, 65, 62
2, 90988, Control_c, 0, 64, 88
2, 91004, Control_c, 0, 64, 127
2, 91060, Note_on_c, 0, 68, 62
2, 91100, Note_on_c, 0, 65, 0
2, 91164, Note_on_c, 0, 72, 68
2, 91200, Note_on_c, 0, 68, 0
2, 91216, Note_on_c, 0, 72, 0
2, 91264, Note_on_c, 0, 44, 0
2, 91272, Note_on_c, 0, 74, 73
2, 91356, Note_on_c, 0, 74, 0
2, 91356, Note_on_c, 0, 77, 80
2, 91444, Note_on_c, 0, 80, 71
2, 91456, Note_on_c, 0, 77, 0
2, 91492, Note_on_c, 0, 80, 0
2, 91548, Note_on_c, 0, 84, 86
2, 91636, Note_on_c, 0, 86, 85
2, 91636, Note_on_c, 0, 53, 45
2, 91684, Note_on_c, 0, 60, 64
2, 91692, Note_on_c, 0, 53, 0
2, 91736, Note_on_c, 0, 86, 0
2, 91748, Note_on_c, 0, 60, 0
2, 91756, Note_on_c, 0, 96, 99
2, 91756, Note_on_c, 0, 68, 71
2, 91788, Note_on_c, 0, 68, 0
2, 91800, Note_on_c, 0, 84, 0
2, 91860, Note_on_c, 0, 92, 93
2, 91888, Note_on_c, 0, 96, 0
2, 91980, Note_on_c, 0, 89, 78
2, 92052, Note_on_c, 0, 92, 0
2, 92072, Note_on_c, 0, 86, 74
2, 92076, Note_on_c, 0, 89, 0
2, 92124, Note_on_c, 0, 86, 0
2, 92168, Note_on_c, 0, 84, 79
2, 92252, Note_on_c, 0, 84, 0
2, 92260, Note_on_c, 0, 80, 71
2, 92368, Note_on_c, 0, 77, 74
2, 92420, Note_on_c, 0, 80, 0
2, 92440, Note_on_c, 0, 77, 0
2, 92472, Note_on_c, 0, 74, 69
2, 92520, Note_on_c, 0, 74, 0
2, 92568, Note_on_c, 0, 72, 76
2, 92624, Note_on_c, 0, 72, 0
2, 92644, Control_c, 0, 64, 88
2, 92656, Control_c, 0, 64, 0
2, 92680, Note_on_c, 0, 71, 73
2, 92696, Note_on_c, 0, 43, 63
2, 92744, Note_on_c, 0, 71, 0
2, 92752, Note_on_c, 0, 43, 0
2, 92752, Control_c, 0, 64, 24
2, 92764, Control_c, 0, 64, 88
2, 92776, Control_c, 0, 64, 127
2, 92784, Note_on_c, 0, 72, 82
2, 92872, Note_on_c, 0, 72, 0
2, 92884, Note_on_c, 0, 73, 65
2, 92956, Note_on_c, 0, 73, 0
2, 92980, Note_on_c, 0, 74, 82
2, 93004, Note_on_c, 0, 55, 58
2, 93072, Note_on_c, 0, 74, 0
2, 93084, Note_on_c, 0, 75, 78
2, 93156, Note_on_c, 0, 75, 0
2, 93188, Note_on_c, 0, 76, 81
2, 93272, Note_on_c, 0, 76, 0
2, 93280, Control_c, 0, 64, 104
2, 93284, Note_on_c, 0, 77, 88
2, 93292, Control_c, 0, 64, 56
2, 93296, Note_on_c, 0, 65, 78
2, 93304, Note_on_c, 0, 68, 67
2, 93308, Control_c, 0, 64, 0
2, 93372, Note_on_c, 0, 77, 0
2, 93388, Control_c, 0, 64, 56
2, 93396, Note_on_c, 0, 65, 0
2, 93396, Note_on_c, 0, 78, 74
2, 93400, Control_c, 0, 64, 88
2, 93416, Control_c, 0, 64, 104
2, 93428, Control_c, 0, 64, 127
2, 93456, Note_on_c, 0, 68, 0
2, 93480, Note_on_c, 0, 78, 0
2, 93496, Note_on_c, 0, 79, 78
2, 93552, Control_c, 0, 64, 72
2, 93564, Control_c, 0, 64, 24
2, 93572, Note_on_c, 0, 79, 0
2, 93580, Control_c, 0, 64, 0
2, 93588, Note_on_c, 0, 68, 70
2, 93592, Note_on_c, 0, 80, 87
2, 93596, Note_on_c, 0, 65, 67
2, 93644, Control_c, 0, 64, 24
2, 93660, Control_c, 0, 64, 72
2, 93672, Control_c, 0, 64, 127
2, 93676, Note_on_c, 0, 80, 0
2, 93688, Note_on_c, 0, 82, 78
2, 93692, Note_on_c, 0, 65, 0
2, 93752, Note_on_c, 0, 68, 0
2, 93792, Note_on_c, 0, 80, 83
2, 93820, Note_on_c, 0, 82, 0
2, 93880, Note_on_c, 0, 80, 0
2, 93904, Control_c, 0, 64, 88
2, 93912, Note_on_c, 0, 63, 51
2, 93912, Note_on_c, 0, 79, 76
2, 93916, Note_on_c, 0, 67, 56
2, 93916, Control_c, 0, 64, 40
2, 93932, Control_c, 0, 64, 0
2, 93972, Note_on_c, 0, 79, 0
2, 93984, Control_c, 0, 64, 40
2, 94000, Control_c, 0, 64, 72
2, 94008, Note_on_c, 0, 67, 0
2, 94012, Control_c, 0, 64, 88
2, 94016, Note_on_c, 0, 80, 74
2, 94024, Control_c, 0, 64, 104
2, 94040, Control_c, 0, 64, 127
2, 94104, Note_on_c, 0, 80, 0
2, 94132, Note_on_c, 0, 63, 0
2, 94132, Note_on_c, 0, 79, 74
2, 94176, Control_c, 0, 64, 72
2, 94188, Control_c, 0, 64, 24
2, 94192, Note_on_c, 0, 79, 0
2, 94200, Control_c, 0, 64, 0
2, 94212, Note_on_c, 0, 65, 52
2, 94224, Note_on_c, 0, 62, 50
2, 94232, Note_on_c, 0, 78, 67
2, 94252, Note_on_c, 0, 62, 0
2, 94252, Note_on_c, 0, 65, 0
2, 94256, Control_c, 0, 64, 40
2, 94268, Control_c, 0, 64, 72
2, 94284, Note_on_c, 0, 78, 0
2, 94284, Control_c, 0, 64, 104
2, 94296, Control_c, 0, 64, 127
2, 94316, Note_on_c, 0, 55, 0
2, 94344, Note_on_c, 0, 79, 68
2, 94432, Note_on_c, 0, 79, 0
2, 94448, Note_on_c, 0, 77, 64
2, 94504, Note_on_c, 0, 77, 0
2, 94516, Control_c, 0, 64, 88
2, 94528, Control_c, 0, 64, 24
2, 94540, Control_c, 0, 64, 0
2, 94556, Note_on_c, 0, 75, 67
2, 94568, Note_on_c, 0, 36, 55
2, 94616, Control_c, 0, 64, 56
2, 94624, Note_on_c, 0, 36, 0
2, 94624, Control_c, 0, 64, 56
2, 94628, Control_c, 0, 64, 88
2, 94644, Control_c, 0, 64, 104
2, 94656, Control_c, 0, 64, 127
2, 94660, Note_on_c, 0, 75, 0
2, 94660, Note_on_c, 0, 77, 66
2, 94752, Note_on_c, 0, 78, 64
2, 94768, Note_on_c, 0, 77, 0
2, 94860, Note_on_c, 0, 80, 71
2, 94884, Note_on_c, 0, 78, 0
2, 94884, Note_on_c, 0, 55, 57
2, 94912, Note_on_c, 0, 55, 0
2, 94912, Note_on_c, 0, 80, 0
2, 94960, Note_on_c, 0, 79, 79
2, 95032, Note_on_c, 0, 79, 0
2, 95060, Note_on_c, 0, 83, 80
2, 95144, Note_on_c, 0, 83, 0
2, 95172, Note_on_c, 0, 84, 81
2, 95180, Note_on_c, 0, 72, 62
2, 95184, Note_on_c, 0, 63, 43
2, 95252, Note_on_c, 0, 72, 0
2, 95264, Note_on_c, 0, 84, 0
2, 95276, Note_on_c, 0, 86, 76
2, 95284, Note_on_c, 0, 63, 0
2, 95292, Control_c, 0, 64, 104
2, 95368, Note_on_c, 0, 86, 0
2, 95384, Note_on_c, 0, 87, 80
2, 95432, Control_c, 0, 64, 72
2, 95448, Control_c, 0, 64, 56
2, 95460, Control_c, 0, 64, 40
2, 95464, Note_on_c, 0, 87, 0
2, 95476, Control_c, 0, 64, 0
2, 95496, Note_on_c, 0, 77, 83
2, 95500, Note_on_c, 0, 72, 70
2, 95504, Note_on_c, 0, 62, 50
2, 95504, Note_on_c, 0, 65, 51
2, 95576, Note_on_c, 0, 77, 0
2, 95584, Control_c, 0, 64, 40
2, 95596, Note_on_c, 0, 87, 76
2, 95600, Control_c, 0, 64, 88
2, 95616, Control_c, 0, 64, 127
2, 95632, Note_on_c, 0, 72, 0
2, 95660, Note_on_c, 0, 87, 0
2, 95700, Note_on_c, 0, 86, 77
2, 95780, Note_on_c, 0, 62, 0
2, 95780, Note_on_c, 0, 65, 0
2, 95788, Note_on_c, 0, 86, 0
2, 95804, Note_on_c, 0, 84, 87
2, 95808, Note_on_c, 0, 71, 58
2, 95852, Note_on_c, 0, 71, 0
2, 95892, Note_on_c, 0, 84, 0
2, 95908, Note_on_c, 0, 83, 88
2, 95984, Note_on_c, 0, 83, 0
2, 96012, Note_on_c, 0, 86, 82
2, 96096, Note_on_c, 0, 86, 0
2, 96116, Note_on_c, 0, 80, 81
2, 96128, Note_on_c, 0, 55, 51
2, 96164, Note_on_c, 0, 55, 0
2, 96200, Note_on_c, 0, 80, 0
2, 96224, Note_on_c, 0, 79, 82
2, 96308, Note_on_c, 0, 79, 0
2, 96320, Note_on_c, 0, 77, 80
2, 96332, Control_c, 0, 64, 104
2, 96344, Control_c, 0, 64, 88
2, 96376, Control_c, 0, 64, 56
2, 96388, Control_c, 0, 64, 0
2, 96432, Note_on_c, 0, 77, 0
2, 96432, Note_on_c, 0, 75, 69
2, 96432, Note_on_c, 0, 48, 62
2, 96480, Note_on_c, 0, 48, 0
2, 96500, Control_c, 0, 64, 56
2, 96516, Control_c, 0, 64, 104
2, 96528, Note_on_c, 0, 75, 0
2, 96528, Control_c, 0, 64, 127
2, 96536, Note_on_c, 0, 77, 80
2, 96632, Note_on_c, 0, 78, 77
2, 96636, Note_on_c, 0, 77, 0
2, 96736, Note_on_c, 0, 80, 75
2, 96768, Note_on_c, 0, 78, 0
2, 96768, Note_on_c, 0, 55, 55
2, 96804, Note_on_c, 0, 80, 0
2, 96812, Note_on_c, 0, 55, 0
2, 96844, Note_on_c, 0, 79, 87
2, 96916, Note_on_c, 0, 79, 0
2, 96948, Note_on_c, 0, 83, 82
2, 97024, Note_on_c, 0, 83, 0
2, 97052, Control_c, 0, 64, 72
2, 97056, Note_on_c, 0, 84, 87
2, 97064, Control_c, 0, 64, 24
2, 97080, Note_on_c, 0, 72, 63
2, 97080, Note_on_c, 0, 63, 56
2, 97080, Control_c, 0, 64, 0
2, 97136, Note_on_c, 0, 84, 0
2, 97136, Control_c, 0, 64, 40
2, 97148, Control_c, 0, 64, 72
2, 97160, Note_on_c, 0, 86, 77
2, 97164, Note_on_c, 0, 72, 0
2, 97164, Control_c, 0, 64, 104
2, 97176, Control_c, 0, 64, 127
2, 97180, Note_on_c, 0, 63, 0
2, 97248, Note_on_c, 0, 86, 0
2, 97272, Note_on_c, 0, 87, 77
2, 97332, Control_c, 0, 64, 104
2, 97344, Note_on_c, 0, 87, 0
2, 97344, Control_c, 0, 64, 72
2, 97360, Control_c, 0, 64, 24
2, 97372, Note_on_c, 0, 77, 79
2, 97376, Control_c, 0, 64, 0
2, 97384, Note_on_c, 0, 72, 80
2, 97392, Note_on_c, 0, 65, 63
2, 97396, Note_on_c, 0, 62, 61
2, 97456, Note_on_c, 0, 77, 0
2, 97460, Control_c, 0, 64, 56
2, 97472, Control_c, 0, 64, 104
2, 97488, Control_c, 0, 64, 127
2, 97492, Note_on_c, 0, 87, 74
2, 97564, Note_on_c, 0, 87, 0
2, 97572, Note_on_c, 0, 72, 0
2, 97596, Note_on_c, 0, 86, 75
2, 97612, Control_c, 0, 64, 88
2, 97628, Control_c, 0, 64, 40
2, 97640, Control_c, 0, 64, 0
2, 97668, Note_on_c, 0, 65, 0
2, 97668, Note_on_c, 0, 62, 0
2, 97680, Control_c, 0, 64, 40
2, 97692, Note_on_c, 0, 71, 64
2, 97696, Control_c, 0, 64, 88
2, 97704, Note_on_c, 0, 84, 73
2, 97712, Control_c, 0, 64, 127
2, 97720, Note_on_c, 0, 86, 0
2, 97752, Note_on_c, 0, 71, 0
2, 97808, Note_on_c, 0, 83, 72
2, 97844, Note_on_c, 0, 84, 0
2, 97888, Note_on_c, 0, 83, 0
2, 97920, Note_on_c, 0, 86, 75
2, 98000, Note_on_c, 0, 86, 0
2, 98016, Note_on_c, 0, 80, 75
2, 98020, Note_on_c, 0, 55, 60
2, 98060, Note_on_c, 0, 55, 0
2, 98116, Note_on_c, 0, 80, 0
2, 98124, Note_on_c, 0, 79, 73
2, 98196, Note_on_c, 0, 79, 0
2, 98216, Note_on_c, 0, 77, 74
2, 98288, Control_c, 0, 64, 104
2, 98300, Control_c, 0, 64, 72
2, 98308, Note_on_c, 0, 77, 0
2, 98316, Control_c, 0, 64, 0
2, 98332, Note_on_c, 0, 75, 69
2, 98360, Note_on_c, 0, 36, 56
2, 98392, Note_on_c, 0, 75, 0
2, 98412, Note_on_c, 0, 36, 0
2, 98416, Control_c, 0, 64, 56
2, 98432, Note_on_c, 0, 76, 82
2, 98432, Control_c, 0, 64, 127
2, 98516, Note_on_c, 0, 76, 0
2, 98536, Note_on_c, 0, 79, 84
2, 98632, Note_on_c, 0, 82, 73
2, 98640, Note_on_c, 0, 79, 0
2, 98668, Note_on_c, 0, 55, 61
2, 98744, Note_on_c, 0, 85, 71
2, 98768, Note_on_c, 0, 82, 0
2, 98788, Note_on_c, 0, 85, 0
2, 98832, Note_on_c, 0, 88, 87
2, 98856, Note_on_c, 0, 55, 0
2, 98900, Note_on_c, 0, 88, 0
2, 98936, Note_on_c, 0, 91, 89
2, 98952, Note_on_c, 0, 58, 53
2, 99020, Note_on_c, 0, 91, 0
2, 99048, Note_on_c, 0, 97, 78
2, 99048, Note_on_c, 0, 94, 75
2, 99116, Note_on_c, 0, 94, 0
2, 99120, Note_on_c, 0, 97, 0
2, 99152, Note_on_c, 0, 87, 77
2, 99220, Note_on_c, 0, 87, 0
2, 99232, Note_on_c, 0, 70, 56
2, 99240, Note_on_c, 0, 64, 59
2, 99252, Note_on_c, 0, 88, 82
2, 99332, Note_on_c, 0, 88, 0
2, 99360, Note_on_c, 0, 94, 77
2, 99360, Note_on_c, 0, 91, 79
2, 99420, Note_on_c, 0, 91, 0
2, 99452, Note_on_c, 0, 94, 0
2, 99464, Note_on_c, 0, 84, 81
2, 99484, Note_on_c, 0, 70, 0
2, 99492, Note_on_c, 0, 64, 0
2, 99496, Note_on_c, 0, 58, 0
2, 99536, Note_on_c, 0, 84, 0
2, 99564, Note_on_c, 0, 85, 82
2, 99648, Note_on_c, 0, 85, 0
2, 99676, Note_on_c, 0, 91, 70
2, 99676, Note_on_c, 0, 88, 69
2, 99732, Note_on_c, 0, 91, 0
2, 99740, Note_on_c, 0, 88, 0
2, 99756, Note_on_c, 0, 81, 79
2, 99840, Note_on_c, 0, 81, 0
2, 99860, Note_on_c, 0, 82, 78
2, 99944, Note_on_c, 0, 82, 0
2, 99964, Note_on_c, 0, 85, 73
2, 99972, Note_on_c, 0, 88, 75
2, 100028, Note_on_c, 0, 88, 0
2, 100032, Control_c, 0, 64, 88
2, 100044, Note_on_c, 0, 85, 0
2, 100048, Control_c, 0, 64, 40
2, 100060, Control_c, 0, 64, 0
2, 100064, Note_on_c, 0, 78, 78
2, 100104, Note_on_c, 0, 48, 63
2, 100136, Note_on_c, 0, 48, 0
2, 100144, Note_on_c, 0, 55, 47
2, 100148, Note_on_c, 0, 58, 44
2, 100156, Note_on_c, 0, 78, 0
2, 100160, Control_c, 0, 64, 40
2, 100176, Note_on_c, 0, 79, 81
2, 100176, Control_c, 0, 64, 88
2, 100188, Control_c, 0, 64, 127
2, 100196, Note_on_c, 0, 64, 66
2, 100204, Note_on_c, 0, 55, 0
2, 100208, Note_on_c, 0, 58, 0
2, 100220, Note_on_c, 0, 64, 0
2, 100268, Note_on_c, 0, 79, 0
2, 100288, Note_on_c, 0, 82, 71
2, 100300, Note_on_c, 0, 85, 74
2, 100364, Note_on_c, 0, 82, 0
2, 100368, Note_on_c, 0, 85, 0
2, 100384, Note_on_c, 0, 75, 76
2, 100448, Note_on_c, 0, 75, 0
2, 100480, Note_on_c, 0, 76, 82
2, 100556, Note_on_c, 0, 76, 0
2, 100584, Note_on_c, 0, 79, 74
2, 100588, Note_on_c, 0, 82, 68
2, 100644, Note_on_c, 0, 79, 0
2, 100664, Note_on_c, 0, 82, 0
2, 100688, Note_on_c, 0, 72, 79
2, 100760, Note_on_c, 0, 72, 0
2, 100792, Note_on_c, 0, 73, 75
2, 100880, Note_on_c, 0, 73, 0
2, 100896, Note_on_c, 0, 79, 74
2, 100904, Note_on_c, 0, 76, 66
2, 100960, Note_on_c, 0, 79, 0
2, 100972, Note_on_c, 0, 76, 0
2, 100988, Note_on_c, 0, 69, 76
2, 101064, Note_on_c, 0, 69, 0
2, 101096, Note_on_c, 0, 70, 74
2, 101168, Note_on_c, 0, 70, 0
2, 101196, Note_on_c, 0, 73, 65
2, 101200, Note_on_c, 0, 76, 79
2, 101260, Note_on_c, 0, 76, 0
2, 101288, Control_c, 0, 64, 88
2, 101292, Note_on_c, 0, 72, 87
2, 101300, Control_c, 0, 64, 56
2, 101312, Note_on_c, 0, 73, 0
2, 101312, Control_c, 0, 64, 24
2, 101328, Control_c, 0, 64, 0
2, 101400, Note_on_c, 0, 70, 77
2, 101440, Control_c, 0, 64, 24
2, 101448, Note_on_c, 0, 72, 0
2, 101468, Control_c, 0, 64, 40
2, 101500, Note_on_c, 0, 70, 0
2, 101500, Note_on_c, 0, 67, 77
2, 101552, Note_on_c, 0, 67, 0
2, 101600, Note_on_c, 0, 64, 84
2, 101624, Control_c, 0, 64, 56
2, 101680, Note_on_c, 0, 64, 0
2, 101704, Note_on_c, 0, 61, 72
2, 101728, Note_on_c, 0, 61, 0
2, 101808, Note_on_c, 0, 60, 75
2, 101836, Control_c, 0, 64, 40
2, 101888, Note_on_c, 0, 60, 0
2, 101908, Note_on_c, 0, 58, 69
2, 101960, Control_c, 0, 64, 24
2, 101992, Note_on_c, 0, 58, 0
2, 102072, Note_on_c, 0, 41, 53
2, 102072, Note_on_c, 0, 53, 65
2, 102156, Note_on_c, 0, 53, 0
2, 102160, Note_on_c, 0, 41, 0
2, 102176, Note_on_c, 0, 56, 65
2, 102180, Note_on_c, 0, 44, 50
2, 102264, Note_on_c, 0, 56, 0
2, 102284, Note_on_c, 0, 59, 66
2, 102288, Note_on_c, 0, 44, 0
2, 102288, Note_on_c, 0, 47, 63
2, 102392, Note_on_c, 0, 47, 0
2, 102396, Note_on_c, 0, 49, 56
2, 102396, Note_on_c, 0, 61, 65
2, 102424, Note_on_c, 0, 49, 0
2, 102428, Note_on_c, 0, 59, 0
2, 102464, Note_on_c, 0, 61, 0
2, 102480, Note_on_c, 0, 48, 66
2, 102500, Note_on_c, 0, 60, 80
2, 102580, Note_on_c, 0, 60, 0
2, 102592, Note_on_c, 0, 48, 0
2, 102600, Note_on_c, 0, 64, 78
2, 102600, Note_on_c, 0, 52, 63
2, 102676, Note_on_c, 0, 64, 0
2, 102688, Note_on_c, 0, 52, 0
2, 102700, Note_on_c, 0, 53, 76
2, 102708, Note_on_c, 0, 65, 74
2, 102788, Note_on_c, 0, 65, 0
2, 102788, Note_on_c, 0, 53, 0
2, 102812, Note_on_c, 0, 55, 61
2, 102816, Note_on_c, 0, 67, 73
2, 102896, Note_on_c, 0, 55, 0
2, 102912, Note_on_c, 0, 56, 68
2, 102916, Note_on_c, 0, 68, 80
2, 102924, Note_on_c, 0, 67, 0
2, 102992, Note_on_c, 0, 56, 0
2, 103000, Note_on_c, 0, 68, 0
2, 103032, Note_on_c, 0, 58, 71
2, 103064, Note_on_c, 0, 46, 40
2, 103112, Note_on_c, 0, 46, 0
2, 103116, Note_on_c, 0, 58, 0
2, 103136, Note_on_c, 0, 61, 75
2, 103140, Note_on_c, 0, 49, 70
2, 103212, Note_on_c, 0, 61, 0
2, 103236, Note_on_c, 0, 49, 0
2, 103236, Note_on_c, 0, 64, 82
2, 103240, Note_on_c, 0, 52, 74
2, 103340, Note_on_c, 0, 52, 0
2, 103344, Note_on_c, 0, 68, 73
2, 103348, Note_on_c, 0, 56, 65
2, 103364, Note_on_c, 0, 64, 0
2, 103400, Note_on_c, 0, 56, 0
2, 103416, Note_on_c, 0, 68, 0
2, 103440, Note_on_c, 0, 67, 80
2, 103448, Note_on_c, 0, 55, 53
2, 103520, Note_on_c, 0, 67, 0
2, 103528, Note_on_c, 0, 55, 0
2, 103548, Note_on_c, 0, 69, 79
2, 103556, Note_on_c, 0, 57, 61
2, 103620, Note_on_c, 0, 69, 0
2, 103632, Note_on_c, 0, 57, 0
2, 103648, Note_on_c, 0, 70, 77
2, 103648, Note_on_c, 0, 58, 67
2, 103728, Note_on_c, 0, 70, 0
2, 103752, Note_on_c, 0, 72, 80
2, 103756, Note_on_c, 0, 58, 0
2, 103760, Note_on_c, 0, 60, 65
2, 103852, Note_on_c, 0, 72, 0
2, 103852, Note_on_c, 0, 73, 80
2, 103904, Note_on_c, 0, 60, 0
2, 103936, Note_on_c, 0, 73, 0
2, 103956, Note_on_c, 0, 63, 81
2, 103964, Note_on_c, 0, 51, 75
2, 104048, Note_on_c, 0, 63, 0
2, 104060, Note_on_c, 0, 66, 77
2, 104064, Note_on_c, 0, 51, 0
2, 104064, Note_on_c, 0, 54, 64
2, 104140, Note_on_c, 0, 66, 0
2, 104164, Note_on_c, 0, 69, 84
2, 104168, Note_on_c, 0, 57, 66
2, 104172, Note_on_c, 0, 54, 0
2, 104264, Note_on_c, 0, 57, 0
2, 104276, Note_on_c, 0, 73, 77
2, 104280, Note_on_c, 0, 61, 69
2, 104296, Note_on_c, 0, 69, 0
2, 104332, Note_on_c, 0, 61, 0
2, 104340, Note_on_c, 0, 73, 0
2, 104372, Note_on_c, 0, 72, 85
2, 104376, Note_on_c, 0, 60, 76
2, 104452, Note_on_c, 0, 72, 0
2, 104468, Note_on_c, 0, 73, 73
2, 104472, Note_on_c, 0, 60, 0
2, 104476, Note_on_c, 0, 61, 71
2, 104544, Note_on_c, 0, 73, 0
2, 104564, Note_on_c, 0, 61, 0
2, 104576, Note_on_c, 0, 75, 84
2, 104592, Note_on_c, 0, 63, 67
2, 104656, Note_on_c, 0, 75, 0
2, 104676, Note_on_c, 0, 77, 81
2, 104712, Note_on_c, 0, 65, 68
2, 104716, Note_on_c, 0, 63, 0
2, 104776, Note_on_c, 0, 77, 0
2, 104780, Note_on_c, 0, 78, 79
2, 104796, Note_on_c, 0, 66, 69
2, 104800, Note_on_c, 0, 65, 0
2, 104856, Note_on_c, 0, 78, 0
2, 104864, Note_on_c, 0, 66, 0
2, 104884, Note_on_c, 0, 70, 75
2, 104896, Note_on_c, 0, 58, 65
2, 104968, Note_on_c, 0, 70, 0
2, 104984, Note_on_c, 0, 73, 80
2, 104996, Note_on_c, 0, 61, 61
2, 105004, Note_on_c, 0, 58, 0
2, 105072, Note_on_c, 0, 73, 0
2, 105088, Note_on_c, 0, 76, 84
2, 105096, Note_on_c, 0, 61, 0
2, 105104, Note_on_c, 0, 64, 73
2, 105188, Note_on_c, 0, 64, 0
2, 105188, Note_on_c, 0, 78, 80
2, 105200, Note_on_c, 0, 66, 64
2, 105220, Note_on_c, 0, 76, 0
2, 105244, Note_on_c, 0, 66, 0
2, 105260, Note_on_c, 0, 78, 0
2, 105296, Note_on_c, 0, 77, 85
2, 105300, Note_on_c, 0, 65, 70
2, 105376, Note_on_c, 0, 65, 0
2, 105376, Note_on_c, 0, 77, 0
2, 105396, Note_on_c, 0, 69, 58
2, 105404, Note_on_c, 0, 81, 78
2, 105468, Note_on_c, 0, 81, 0
2, 105484, Note_on_c, 0, 69, 0
2, 105496, Note_on_c, 0, 70, 69
2, 105500, Note_on_c, 0, 82, 77
2, 105576, Note_on_c, 0, 82, 0
2, 105584, Note_on_c, 0, 70, 0
2, 105596, Note_on_c, 0, 72, 75
2, 105600, Note_on_c, 0, 84, 80
2, 105692, Note_on_c, 0, 73, 77
2, 105696, Note_on_c, 0, 72, 0
2, 105704, Note_on_c, 0, 85, 88
2, 105732, Note_on_c, 0, 84, 0
2, 105764, Note_on_c, 0, 85, 0
2, 105784, Note_on_c, 0, 73, 0
2, 105804, Note_on_c, 0, 82, 78
2, 105808, Note_on_c, 0, 70, 67
2, 105888, Note_on_c, 0, 82, 0
2, 105908, Note_on_c, 0, 85, 80
2, 105916, Note_on_c, 0, 73, 61
2, 105940, Note_on_c, 0, 70, 0
2, 105996, Note_on_c, 0, 85, 0
2, 106012, Note_on_c, 0, 88, 84
2, 106032, Note_on_c, 0, 73, 0
2, 106032, Note_on_c, 0, 76, 70
2, 106116, Note_on_c, 0, 76, 0
2, 106116, Note_on_c, 0, 92, 84
2, 106132, Note_on_c, 0, 80, 68
2, 106136, Note_on_c, 0, 88, 0
2, 106188, Note_on_c, 0, 92, 0
2, 106192, Note_on_c, 0, 80, 0
2, 106216, Note_on_c, 0, 91, 84
2, 106220, Note_on_c, 0, 79, 77
2, 106308, Note_on_c, 0, 91, 0
2, 106312, Note_on_c, 0, 79, 0
2, 106320, Note_on_c, 0, 92, 89
2, 106328, Note_on_c, 0, 80, 73
2, 106404, Note_on_c, 0, 92, 0
2, 106420, Note_on_c, 0, 80, 0
2, 106420, Note_on_c, 0, 94, 84
2, 106432, Note_on_c, 0, 82, 76
2, 106512, Note_on_c, 0, 94, 0
2, 106520, Note_on_c, 0, 82, 0
2, 106528, Note_on_c, 0, 96, 86
2, 106536, Note_on_c, 0, 84, 81
2, 106624, Note_on_c, 0, 96, 0
2, 106628, Note_on_c, 0, 85, 85
2, 106632, Note_on_c, 0, 84, 0
2, 106632, Note_on_c, 0, 97, 88
2, 106720, Note_on_c, 0, 97, 0
2, 106724, Note_on_c, 0, 85, 0
2, 106744, Note_on_c, 0, 84, 82
2, 106748, Note_on_c, 0, 96, 87
2, 106840, Note_on_c, 0, 84, 0
2, 106844, Note_on_c, 0, 94, 85
2, 106848, Note_on_c, 0, 82, 70
2, 106864, Note_on_c, 0, 96, 0
2, 106952, Note_on_c, 0, 92, 88
2, 106952, Note_on_c, 0, 80, 71
2, 106964, Note_on_c, 0, 82, 0
2, 107044, Note_on_c, 0, 80, 0
2, 107052, Note_on_c, 0, 94, 0
2, 107056, Note_on_c, 0, 92, 0
2, 107056, Note_on_c, 0, 91, 85
2, 107064, Note_on_c, 0, 79, 73
2, 107128, Note_on_c, 0, 91, 0
2, 107156, Note_on_c, 0, 89, 82
2, 107160, Note_on_c, 0, 79, 0
2, 107168, Note_on_c, 0, 77, 76
2, 107260, Note_on_c, 0, 87, 76
2, 107264, Note_on_c, 0, 77, 0
2, 107268, Note_on_c, 0, 89, 0
2, 107268, Note_on_c, 0, 75, 65
2, 107372, Note_on_c, 0, 87, 0
2, 107376, Note_on_c, 0, 85, 83
2, 107380, Note_on_c, 0, 73, 57
2, 107416, Note_on_c, 0, 75, 0
2, 107464, Note_on_c, 0, 73, 0
2, 107480, Note_on_c, 0, 84, 86
2, 107480, Note_on_c, 0, 72, 69
2, 107484, Note_on_c, 0, 85, 0
2, 107568, Note_on_c, 0, 84, 0
2, 107576, Note_on_c, 0, 82, 76
2, 107580, Note_on_c, 0, 72, 0
2, 107588, Note_on_c, 0, 70, 62
2, 107688, Note_on_c, 0, 80, 81
2, 107696, Note_on_c, 0, 68, 58
2, 107704, Note_on_c, 0, 70, 0
2, 107704, Note_on_c, 0, 82, 0
2, 107776, Note_on_c, 0, 68, 0
2, 107780, Note_on_c, 0, 67, 70
2, 107796, Note_on_c, 0, 80, 0
2, 107796, Note_on_c, 0, 79, 83
2, 107892, Note_on_c, 0, 79, 0
2, 107892, Note_on_c, 0, 67, 0
2, 107892, Note_on_c, 0, 65, 66
2, 107904, Note_on_c, 0, 77, 83
2, 108004, Note_on_c, 0, 77, 0
2, 108004, Note_on_c, 0, 65, 0
2, 108004, Note_on_c, 0, 63, 60
2, 108008, Note_on_c, 0, 75, 80
2, 108104, Note_on_c, 0, 75, 0
2, 108112, Note_on_c, 0, 73, 75
2, 108128, Note_on_c, 0, 61, 53
2, 108164, Note_on_c, 0, 63, 0
2, 108208, Note_on_c, 0, 61, 0
2, 108216, Note_on_c, 0, 73, 0
2, 108220, Note_on_c, 0, 72, 86
2, 108228, Note_on_c, 0, 60, 64
2, 108296, Note_on_c, 0, 72, 0
2, 108312, Note_on_c, 0, 60, 0
2, 108316, Note_on_c, 0, 70, 69
2, 108324, Note_on_c, 0, 58, 53
2, 108420, Note_on_c, 0, 68, 69
2, 108424, Note_on_c, 0, 70, 0
2, 108432, Note_on_c, 0, 56, 62
2, 108436, Note_on_c, 0, 58, 0
2, 108520, Note_on_c, 0, 56, 0
2, 108524, Note_on_c, 0, 68, 0
2, 108528, Note_on_c, 0, 67, 74
2, 108532, Note_on_c, 0, 55, 70
2, 108616, Note_on_c, 0, 67, 0
2, 108632, Note_on_c, 0, 55, 0
2, 108640, Note_on_c, 0, 53, 68
2, 108640, Note_on_c, 0, 65, 73
2, 108724, Note_on_c, 0, 65, 0
2, 108732, Note_on_c, 0, 53, 0
2, 108732, Note_on_c, 0, 51, 63
2, 108740, Note_on_c, 0, 63, 70
2, 108840, Note_on_c, 0, 63, 0
2, 108848, Note_on_c, 0, 61, 68
2, 108848, Note_on_c, 0, 49, 55
2, 108884, Note_on_c, 0, 51, 0
2, 108924, Note_on_c, 0, 49, 0
2, 108936, Note_on_c, 0, 61, 0
2, 108952, Note_on_c, 0, 60, 70
2, 108956, Note_on_c, 0, 48, 56
2, 109052, Note_on_c, 0, 48, 0
2, 109052, Note_on_c, 0, 46, 51
2, 109060, Note_on_c, 0, 60, 0
2, 109060, Note_on_c, 0, 58, 64
2, 109148, Note_on_c, 0, 58, 0
2, 109164, Note_on_c, 0, 56, 63
2, 109164, Note_on_c, 0, 44, 55
2, 109256, Note_on_c, 0, 44, 0
2, 109256, Note_on_c, 0, 56, 0
2, 109260, Note_on_c, 0, 46, 0
2, 109264, Note_on_c, 0, 46, 64
2, 109272, Note_on_c, 0, 58, 70
2, 109356, Note_on_c, 0, 58, 0
2, 109356, Note_on_c, 0, 46, 0
2, 109376, Note_on_c, 0, 51, 66
2, 109380, Note_on_c, 0, 63, 68
2, 109476, Note_on_c, 0, 51, 0
2, 109484, Note_on_c, 0, 55, 67
2, 109496, Note_on_c, 0, 67, 71
2, 109500, Note_on_c, 0, 63, 0
2, 109520, Note_on_c, 0, 55, 0
2, 109580, Note_on_c, 0, 67, 0
2, 109632, Note_on_c, 0, 51, 69
2, 109644, Note_on_c, 0, 39, 48
2, 109876, Note_on_c, 0, 39, 0
2, 109884, Note_on_c, 0, 51, 0
2, 126900, Note_on_c, 0, 56, 54
2, 126900, Control_c, 0, 64, 56
2, 126908, Note_on_c, 0, 44, 47
2, 126912, Control_c, 0, 64, 72
2, 126924, Control_c, 0, 64, 88
2, 126948, Note_on_c, 0, 56, 0
2, 126952, Control_c, 0, 64, 104
2, 126964, Control_c, 0, 64, 127
2, 126976, Note_on_c, 0, 44, 0
2, 127000, Note_on_c, 0, 63, 62
2, 127020, Note_on_c, 0, 51, 45
2, 127052, Note_on_c, 0, 51, 0
2, 127080, Note_on_c, 0, 63, 0
2, 127100, Note_on_c, 0, 68, 59
2, 127104, Note_on_c, 0, 56, 44
2, 127172, Note_on_c, 0, 56, 0
2, 127204, Note_on_c, 0, 68, 0
2, 127208, Note_on_c, 0, 72, 69
2, 127212, Note_on_c, 0, 60, 51
2, 127260, Control_c, 0, 64, 104
2, 127272, Control_c, 0, 64, 72
2, 127284, Control_c, 0, 64, 40
2, 127296, Control_c, 0, 64, 0
2, 127424, Control_c, 0, 64, 24
2, 127436, Control_c, 0, 64, 72
2, 127452, Control_c, 0, 64, 104
2, 127464, Control_c, 0, 64, 127
2, 127624, Note_on_c, 0, 72, 0
2, 127664, Note_on_c, 0, 60, 0
2, 127692, Note_on_c, 0, 68, 64
2, 127692, Note_on_c, 0, 56, 45
2, 127720, Control_c, 0, 64, 104
2, 127732, Control_c, 0, 64, 88
2, 127744, Control_c, 0, 64, 56
2, 127756, Control_c, 0, 64, 40
2, 127768, Note_on_c, 0, 56, 0
2, 127768, Control_c, 0, 64, 0
2, 127788, Note_on_c, 0, 68, 0
2, 127812, Note_on_c, 0, 63, 71
2, 127816, Note_on_c, 0, 51, 66
2, 127884, Note_on_c, 0, 51, 0
2, 127884, Control_c, 0, 64, 40
2, 127900, Control_c, 0, 64, 88
2, 127908, Note_on_c, 0, 63, 0
2, 127912, Control_c, 0, 64, 127
2, 127988, Control_c, 0, 64, 104
2, 128000, Control_c, 0, 64, 88
2, 128012, Control_c, 0, 64, 56
2, 128024, Control_c, 0, 64, 24
2, 128036, Control_c, 0, 64, 0
2, 128104, Note_on_c, 0, 70, 64
2, 128116, Note_on_c, 0, 58, 45
2, 128164, Note_on_c, 0, 58, 0
2, 128168, Note_on_c, 0, 70, 0
2, 128220, Note_on_c, 0, 73, 69
2, 128224, Note_on_c, 0, 61, 56
2, 128292, Note_on_c, 0, 61, 0
2, 128304, Note_on_c, 0, 73, 0
2, 128308, Note_on_c, 0, 77, 75
2, 128324, Note_on_c, 0, 65, 40
2, 128408, Note_on_c, 0, 77, 0
2, 128416, Note_on_c, 0, 75, 77
2, 128436, Note_on_c, 0, 65, 0
2, 128448, Note_on_c, 0, 63, 38
2, 128472, Note_on_c, 0, 63, 0
2, 128496, Note_on_c, 0, 75, 0
2, 128496, Control_c, 0, 64, 40
2, 128512, Control_c, 0, 64, 72
2, 128524, Control_c, 0, 64, 104
2, 128536, Control_c, 0, 64, 127
2, 128624, Control_c, 0, 64, 88
2, 128640, Control_c, 0, 64, 72
2, 128652, Control_c, 0, 64, 40
2, 128664, Control_c, 0, 64, 0
2, 128716, Note_on_c, 0, 56, 64
2, 128716, Note_on_c, 0, 44, 52
2, 128776, Note_on_c, 0, 56, 0
2, 128804, Note_on_c, 0, 44, 0
2, 128812, Note_on_c, 0, 51, 54
2, 128820, Note_on_c, 0, 63, 76
2, 128900, Note_on_c, 0, 51, 0
2, 128908, Note_on_c, 0, 56, 44
2, 128908, Note_on_c, 0, 68, 65
2, 128936, Note_on_c, 0, 63, 0
2, 129024, Note_on_c, 0, 68, 0
2, 129036, Note_on_c, 0, 56, 0
2, 129036, Note_on_c, 0, 72, 75
2, 129040, Note_on_c, 0, 60, 51
2, 129544, Note_on_c, 0, 72, 0
2, 129552, Note_on_c, 0, 68, 65
2, 129560, Note_on_c, 0, 56, 43
2, 129584, Note_on_c, 0, 60, 0
2, 129708, Note_on_c, 0, 63, 72
2, 129712, Note_on_c, 0, 68, 0
2, 129716, Note_on_c, 0, 51, 63
2, 129772, Note_on_c, 0, 56, 0
2, 129788, Control_c, 0, 64, 24
2, 129800, Note_on_c, 0, 51, 0
2, 129800, Control_c, 0, 64, 56
2, 129836, Note_on_c, 0, 63, 0
2, 129876, Control_c, 0, 64, 0
2, 130008, Note_on_c, 0, 70, 62
2, 130024, Note_on_c, 0, 58, 47
2, 130056, Control_c, 0, 64, 24
2, 130080, Note_on_c, 0, 70, 0
2, 130084, Note_on_c, 0, 58, 0
2, 130108, Control_c, 0, 64, 40
2, 130120, Note_on_c, 0, 73, 64
2, 130124, Note_on_c, 0, 61, 58
2, 130184, Note_on_c, 0, 61, 0
2, 130204, Note_on_c, 0, 73, 0
2, 130208, Note_on_c, 0, 77, 78
2, 130216, Note_on_c, 0, 65, 50
2, 130288, Control_c, 0, 64, 0
2, 130292, Note_on_c, 0, 77, 0
2, 130304, Note_on_c, 0, 65, 0
2, 130328, Note_on_c, 0, 75, 75
2, 130336, Note_on_c, 0, 63, 58
2, 130376, Note_on_c, 0, 63, 0
2, 130400, Note_on_c, 0, 75, 0
2, 130404, Control_c, 0, 64, 56
2, 130416, Control_c, 0, 64, 72
2, 130428, Control_c, 0, 64, 88
2, 130440, Control_c, 0, 64, 104
2, 130480, Control_c, 0, 64, 127
2, 130556, Control_c, 0, 64, 72
2, 130568, Control_c, 0, 64, 40
2, 130580, Control_c, 0, 64, 0
2, 130620, Note_on_c, 0, 44, 52
2, 130640, Note_on_c, 0, 56, 25
2, 130644, Control_c, 0, 64, 24
2, 130656, Control_c, 0, 64, 56
2, 130668, Note_on_c, 0, 56, 0
2, 130672, Control_c, 0, 64, 72
2, 130680, Control_c, 0, 64, 88
2, 130688, Note_on_c, 0, 44, 0
2, 130728, Note_on_c, 0, 63, 73
2, 130736, Note_on_c, 0, 51, 67
2, 130736, Control_c, 0, 64, 104
2, 130796, Note_on_c, 0, 63, 0
2, 130804, Note_on_c, 0, 51, 0
2, 130840, Note_on_c, 0, 68, 69
2, 130840, Note_on_c, 0, 56, 62
2, 130912, Control_c, 0, 64, 56
2, 130924, Control_c, 0, 64, 0
2, 130936, Note_on_c, 0, 56, 0
2, 130956, Note_on_c, 0, 72, 83
2, 130960, Note_on_c, 0, 60, 61
2, 130968, Note_on_c, 0, 68, 0
2, 131004, Control_c, 0, 64, 56
2, 131016, Control_c, 0, 64, 72
2, 131028, Note_on_c, 0, 72, 0
2, 131028, Control_c, 0, 64, 88
2, 131040, Control_c, 0, 64, 104
2, 131072, Note_on_c, 0, 60, 0
2, 131092, Control_c, 0, 64, 72
2, 131104, Control_c, 0, 64, 24
2, 131116, Note_on_c, 0, 74, 77
2, 131116, Note_on_c, 0, 62, 60
2, 131116, Control_c, 0, 64, 0
2, 131168, Control_c, 0, 64, 24
2, 131208, Control_c, 0, 64, 0
2, 131232, Note_on_c, 0, 62, 0
2, 131236, Note_on_c, 0, 74, 0
2, 131264, Note_on_c, 0, 75, 75
2, 131268, Note_on_c, 0, 63, 54
2, 131308, Control_c, 0, 64, 40
2, 131372, Control_c, 0, 64, 24
2, 131380, Note_on_c, 0, 75, 0
2, 131392, Note_on_c, 0, 72, 81
2, 131412, Control_c, 0, 64, 0
2, 131432, Note_on_c, 0, 63, 0
2, 131436, Note_on_c, 0, 60, 56
2, 131440, Note_on_c, 0, 72, 0
2, 131448, Note_on_c, 0, 74, 69
2, 131504, Note_on_c, 0, 74, 0
2, 131504, Note_on_c, 0, 72, 82
2, 131616, Note_on_c, 0, 70, 73
2, 131624, Note_on_c, 0, 72, 0
2, 131628, Note_on_c, 0, 60, 0
2, 131640, Note_on_c, 0, 58, 40
2, 131808, Control_c, 0, 64, 40
2, 131820, Control_c, 0, 64, 56
2, 131832, Control_c, 0, 64, 72
2, 131872, Control_c, 0, 64, 88
2, 131916, Note_on_c, 0, 70, 0
2, 131948, Note_on_c, 0, 58, 0
2, 131948, Note_on_c, 0, 75, 82
2, 131960, Note_on_c, 0, 63, 43
2, 131960, Control_c, 0, 64, 40
2, 131972, Control_c, 0, 64, 0
2, 132036, Control_c, 0, 64, 24
2, 132048, Control_c, 0, 64, 40
2, 132064, Control_c, 0, 64, 56
2, 132076, Control_c, 0, 64, 72
2, 132080, Note_on_c, 0, 75, 0
2, 132108, Note_on_c, 0, 77, 89
2, 132112, Note_on_c, 0, 63, 0
2, 132140, Note_on_c, 0, 65, 40
2, 132228, Control_c, 0, 64, 88
2, 132268, Note_on_c, 0, 65, 0
2, 132288, Note_on_c, 0, 79, 81
2, 132304, Note_on_c, 0, 77, 0
2, 132316, Note_on_c, 0, 67, 35
2, 132332, Control_c, 0, 64, 72
2, 132344, Control_c, 0, 64, 56
2, 132356, Control_c, 0, 64, 24
2, 132368, Control_c, 0, 64, 0
2, 132520, Control_c, 0, 64, 40
2, 132536, Control_c, 0, 64, 88
2, 132548, Control_c, 0, 64, 127
2, 132612, Note_on_c, 0, 79, 0
2, 132668, Note_on_c, 0, 67, 0
2, 132844, Note_on_c, 0, 80, 74
2, 132860, Note_on_c, 0, 68, 47
2, 133000, Note_on_c, 0, 80, 0
2, 133012, Note_on_c, 0, 68, 0
2, 133068, Note_on_c, 0, 77, 70
2, 133092, Note_on_c, 0, 65, 40
2, 133212, Control_c, 0, 64, 72
2, 133224, Control_c, 0, 64, 0
2, 133328, Control_c, 0, 64, 40
2, 133340, Control_c, 0, 64, 88
2, 133344, Note_on_c, 0, 77, 0
2, 133352, Control_c, 0, 64, 127
2, 133428, Note_on_c, 0, 65, 0
2, 133576, Note_on_c, 0, 70, 67
2, 133596, Note_on_c, 0, 58, 34
2, 133660, Control_c, 0, 64, 88
2, 133668, Note_on_c, 0, 70, 0
2, 133672, Control_c, 0, 64, 40
2, 133676, Note_on_c, 0, 58, 0
2, 133684, Control_c, 0, 64, 0
2, 133704, Note_on_c, 0, 63, 60
2, 133708, Note_on_c, 0, 75, 73
2, 133776, Control_c, 0, 64, 56
2, 133784, Note_on_c, 0, 63, 0
2, 133788, Control_c, 0, 64, 88
2, 133796, Note_on_c, 0, 75, 0
2, 133800, Control_c, 0, 64, 104
2, 133816, Note_on_c, 0, 67, 54
2, 133816, Note_on_c, 0, 79, 81
2, 133840, Control_c, 0, 64, 127
2, 133872, Note_on_c, 0, 67, 0
2, 133876, Note_on_c, 0, 79, 0
2, 133908, Note_on_c, 0, 70, 76
2, 133920, Note_on_c, 0, 58, 51
2, 133992, Note_on_c, 0, 58, 0
2, 134008, Note_on_c, 0, 70, 0
2, 134068, Note_on_c, 0, 51, 48
2, 134068, Note_on_c, 0, 63, 66
2, 134068, Control_c, 0, 64, 104
2, 134092, Control_c, 0, 64, 88
2, 134104, Control_c, 0, 64, 56
2, 134120, Control_c, 0, 64, 24
2, 134132, Control_c, 0, 64, 0
2, 134260, Control_c, 0, 64, 40
2, 134272, Control_c, 0, 64, 72
2, 134284, Control_c, 0, 64, 88
2, 134300, Control_c, 0, 64, 127
2, 134344, Note_on_c, 0, 63, 0
2, 134372, Note_on_c, 0, 51, 0
2, 134516, Control_c, 0, 64, 104
2, 134528, Control_c, 0, 64, 88
2, 134540, Control_c, 0, 64, 72
2, 134556, Control_c, 0, 64, 40
2, 134568, Control_c, 0, 64, 24
2, 134580, Control_c, 0, 64, 0
2, 134748, Note_on_c, 0, 56, 65
2, 134760, Note_on_c, 0, 44, 58
2, 134760, Control_c, 0, 64, 56
2, 134772, Control_c, 0, 64, 104
2, 134784, Control_c, 0, 64, 127
2, 134808, Note_on_c, 0, 56, 0
2, 134828, Note_on_c, 0, 44, 0
2, 134856, Note_on_c, 0, 63, 73
2, 134856, Note_on_c, 0, 51, 60
2, 134928, Note_on_c, 0, 51, 0
2, 134932, Note_on_c, 0, 63, 0
2, 134960, Note_on_c, 0, 56, 57
2, 134960, Note_on_c, 0, 68, 64
2, 135032, Note_on_c, 0, 56, 0
2, 135052, Control_c, 0, 64, 104
2, 135056, Note_on_c, 0, 68, 0
2, 135080, Note_on_c, 0, 60, 52
2, 135080, Control_c, 0, 64, 88
2, 135084, Note_on_c, 0, 72, 69
2, 135104, Control_c, 0, 64, 72
2, 135144, Control_c, 0, 64, 56
2, 135168, Control_c, 0, 64, 40
2, 135180, Control_c, 0, 64, 24
2, 135192, Control_c, 0, 64, 0
2, 135332, Control_c, 0, 64, 24
2, 135344, Control_c, 0, 64, 56
2, 135360, Control_c, 0, 64, 72
2, 135372, Control_c, 0, 64, 88
2, 135384, Control_c, 0, 64, 104
2, 135424, Control_c, 0, 64, 127
2, 135512, Control_c, 0, 64, 88
2, 135524, Note_on_c, 0, 72, 0
2, 135524, Control_c, 0, 64, 72
2, 135540, Control_c, 0, 64, 56
2, 135556, Note_on_c, 0, 60, 0
2, 135572, Note_on_c, 0, 68, 63
2, 135572, Note_on_c, 0, 56, 46
2, 135588, Control_c, 0, 64, 40
2, 135616, Control_c, 0, 64, 24
2, 135628, Control_c, 0, 64, 0
2, 135644, Note_on_c, 0, 56, 0
2, 135656, Note_on_c, 0, 68, 0
2, 135720, Note_on_c, 0, 51, 67
2, 135720, Note_on_c, 0, 63, 70
2, 135792, Control_c, 0, 64, 40
2, 135808, Note_on_c, 0, 51, 0
2, 135808, Control_c, 0, 64, 88
2, 135812, Note_on_c, 0, 63, 0
2, 135820, Control_c, 0, 64, 104
2, 135832, Control_c, 0, 64, 127
2, 135908, Control_c, 0, 64, 72
2, 135920, Control_c, 0, 64, 40
2, 135932, Control_c, 0, 64, 0
2, 136036, Note_on_c, 0, 70, 61
2, 136036, Note_on_c, 0, 58, 50
2, 136104, Note_on_c, 0, 58, 0
2, 136112, Note_on_c, 0, 70, 0
2, 136136, Note_on_c, 0, 61, 60
2, 136140, Note_on_c, 0, 73, 67
2, 136220, Note_on_c, 0, 61, 0
2, 136232, Note_on_c, 0, 73, 0
2, 136240, Note_on_c, 0, 77, 74
2, 136244, Note_on_c, 0, 65, 53
2, 136332, Note_on_c, 0, 77, 0
2, 136360, Note_on_c, 0, 75, 72
2, 136364, Note_on_c, 0, 65, 0
2, 136372, Note_on_c, 0, 63, 49
2, 136432, Control_c, 0, 64, 24
2, 136436, Note_on_c, 0, 63, 0
2, 136444, Control_c, 0, 64, 40
2, 136452, Note_on_c, 0, 75, 0
2, 136496, Control_c, 0, 64, 56
2, 136548, Control_c, 0, 64, 0
2, 136636, Control_c, 0, 64, 24
2, 136652, Control_c, 0, 64, 72
2, 136664, Note_on_c, 0, 56, 71
2, 136664, Note_on_c, 0, 44, 57
2, 136664, Control_c, 0, 64, 104
2, 136676, Control_c, 0, 64, 127
2, 136724, Note_on_c, 0, 56, 0
2, 136756, Note_on_c, 0, 44, 0
2, 136764, Note_on_c, 0, 63, 68
2, 136764, Note_on_c, 0, 51, 58
2, 136848, Note_on_c, 0, 51, 0
2, 136860, Note_on_c, 0, 63, 0
2, 136864, Note_on_c, 0, 68, 65
2, 136864, Note_on_c, 0, 56, 61
2, 136940, Note_on_c, 0, 56, 0
2, 136964, Note_on_c, 0, 68, 0
2, 136988, Note_on_c, 0, 72, 71
2, 137000, Note_on_c, 0, 60, 52
2, 137072, Control_c, 0, 64, 88
2, 137084, Control_c, 0, 64, 72
2, 137096, Control_c, 0, 64, 56
2, 137112, Control_c, 0, 64, 40
2, 137124, Control_c, 0, 64, 0
2, 137240, Control_c, 0, 64, 40
2, 137252, Control_c, 0, 64, 72
2, 137264, Control_c, 0, 64, 88
2, 137452, Control_c, 0, 64, 0
2, 137464, Note_on_c, 0, 72, 0
2, 137476, Note_on_c, 0, 60, 0
2, 137492, Note_on_c, 0, 68, 58
2, 137492, Note_on_c, 0, 56, 51
2, 137612, Note_on_c, 0, 56, 0
2, 137612, Note_on_c, 0, 68, 0
2, 137632, Note_on_c, 0, 63, 70
2, 137640, Note_on_c, 0, 51, 60
2, 137712, Control_c, 0, 64, 24
2, 137724, Control_c, 0, 64, 56
2, 137736, Control_c, 0, 64, 72
2, 137744, Note_on_c, 0, 63, 0
2, 137748, Control_c, 0, 64, 88
2, 137760, Note_on_c, 0, 51, 0
2, 137824, Control_c, 0, 64, 56
2, 137836, Control_c, 0, 64, 40
2, 137848, Control_c, 0, 64, 0
2, 137928, Note_on_c, 0, 70, 62
2, 137932, Note_on_c, 0, 58, 51
2, 137964, Control_c, 0, 64, 24
2, 137996, Note_on_c, 0, 58, 0
2, 137996, Note_on_c, 0, 70, 0
2, 138032, Note_on_c, 0, 73, 71
2, 138036, Note_on_c, 0, 61, 57
2, 138120, Note_on_c, 0, 73, 0
2, 138124, Note_on_c, 0, 61, 0
2, 138144, Note_on_c, 0, 77, 76
2, 138144, Note_on_c, 0, 65, 52
2, 138208, Control_c, 0, 64, 0
2, 138244, Note_on_c, 0, 65, 0
2, 138248, Note_on_c, 0, 77, 0
2, 138260, Note_on_c, 0, 63, 45
2, 138264, Note_on_c, 0, 75, 69
2, 138360, Control_c, 0, 64, 24
2, 138372, Control_c, 0, 64, 40
2, 138388, Control_c, 0, 64, 72
2, 138400, Note_on_c, 0, 63, 0
2, 138400, Control_c, 0, 64, 88
2, 138424, Control_c, 0, 64, 104
2, 138428, Note_on_c, 0, 75, 0
2, 138476, Control_c, 0, 64, 127
2, 138592, Control_c, 0, 64, 104
2, 138604, Control_c, 0, 64, 72
2, 138616, Control_c, 0, 64, 40
2, 138620, Note_on_c, 0, 68, 60
2, 138632, Control_c, 0, 64, 0
2, 138652, Note_on_c, 0, 56, 40
2, 138732, Control_c, 0, 64, 40
2, 138744, Control_c, 0, 64, 88
2, 138756, Control_c, 0, 64, 127
2, 138760, Note_on_c, 0, 56, 0
2, 138760, Note_on_c, 0, 68, 0
2, 138996, Note_on_c, 0, 80, 74
2, 139020, Note_on_c, 0, 68, 54
2, 139088, Note_on_c, 0, 68, 0
2, 139108, Note_on_c, 0, 80, 0
2, 139212, Note_on_c, 0, 80, 84
2, 139216, Note_on_c, 0, 68, 67
2, 139292, Note_on_c, 0, 68, 0
2, 139336, Note_on_c, 0, 80, 0
2, 139448, Note_on_c, 0, 68, 55
2, 139448, Note_on_c, 0, 80, 73
2, 139552, Control_c, 0, 64, 104
2, 139576, Control_c, 0, 64, 88
2, 139588, Control_c, 0, 64, 72
2, 139600, Control_c, 0, 64, 24
2, 139612, Control_c, 0, 64, 0
2, 139716, Control_c, 0, 64, 24
2, 139728, Control_c, 0, 64, 72
2, 139744, Control_c, 0, 64, 104
2, 139756, Control_c, 0, 64, 127
2, 140056, Note_on_c, 0, 80, 0
2, 140064, Note_on_c, 0, 68, 0
2, 140260, Note_on_c, 0, 82, 67
2, 140280, Note_on_c, 0, 70, 40
2, 140400, Note_on_c, 0, 68, 44
2, 140404, Note_on_c, 0, 70, 0
2, 140404, Note_on_c, 0, 80, 74
2, 140424, Note_on_c, 0, 68, 0
2, 140436, Note_on_c, 0, 82, 0
2, 140508, Note_on_c, 0, 80, 0
2, 140524, Note_on_c, 0, 79, 75
2, 140528, Control_c, 0, 64, 104
2, 140540, Control_c, 0, 64, 72
2, 140544, Note_on_c, 0, 67, 49
2, 140552, Control_c, 0, 64, 40
2, 140564, Control_c, 0, 64, 0
2, 140580, Note_on_c, 0, 79, 0
2, 140592, Note_on_c, 0, 67, 0
2, 140592, Note_on_c, 0, 80, 65
2, 140608, Note_on_c, 0, 68, 57
2, 140652, Note_on_c, 0, 79, 74
2, 140652, Note_on_c, 0, 67, 55
2, 140656, Note_on_c, 0, 80, 0
2, 140660, Note_on_c, 0, 68, 0
2, 140800, Note_on_c, 0, 67, 0
2, 140824, Note_on_c, 0, 77, 73
2, 140828, Note_on_c, 0, 79, 0
2, 140832, Note_on_c, 0, 65, 54
2, 140832, Control_c, 0, 64, 56
2, 140848, Control_c, 0, 64, 88
2, 140860, Note_on_c, 0, 65, 0
2, 140860, Control_c, 0, 64, 104
2, 140872, Note_on_c, 0, 77, 0
2, 140872, Control_c, 0, 64, 127
2, 141000, Control_c, 0, 64, 88
2, 141012, Control_c, 0, 64, 72
2, 141016, Note_on_c, 0, 70, 69
2, 141016, Note_on_c, 0, 58, 38
2, 141024, Control_c, 0, 64, 24
2, 141036, Control_c, 0, 64, 0
2, 141140, Control_c, 0, 64, 24
2, 141152, Control_c, 0, 64, 56
2, 141164, Control_c, 0, 64, 72
2, 141180, Control_c, 0, 64, 88
2, 141200, Note_on_c, 0, 58, 0
2, 141212, Note_on_c, 0, 70, 0
2, 141216, Control_c, 0, 64, 104
2, 141276, Note_on_c, 0, 72, 68
2, 141288, Note_on_c, 0, 60, 58
2, 141332, Control_c, 0, 64, 72
2, 141344, Control_c, 0, 64, 40
2, 141348, Note_on_c, 0, 72, 0
2, 141356, Control_c, 0, 64, 0
2, 141360, Note_on_c, 0, 60, 0
2, 141368, Note_on_c, 0, 73, 69
2, 141376, Note_on_c, 0, 61, 46
2, 141520, Note_on_c, 0, 73, 0
2, 141524, Note_on_c, 0, 61, 0
2, 141524, Note_on_c, 0, 77, 79
2, 141540, Note_on_c, 0, 65, 56
2, 141688, Note_on_c, 0, 77, 0
2, 141696, Note_on_c, 0, 75, 69
2, 141716, Note_on_c, 0, 63, 44
2, 141720, Note_on_c, 0, 65, 0
2, 141776, Note_on_c, 0, 63, 0
2, 141844, Note_on_c, 0, 75, 0
2, 141980, Note_on_c, 0, 63, 54
2, 141984, Note_on_c, 0, 75, 65
2, 142052, Note_on_c, 0, 68, 64
2, 142060, Note_on_c, 0, 75, 0
2, 142072, Note_on_c, 0, 56, 46
2, 142088, Note_on_c, 0, 63, 0
2, 142808, Note_on_c, 0, 56, 0
2, 142840, Note_on_c, 0, 68, 0
2, 142840, Control_c, 0, 64, 24
2, 142852, Control_c, 0, 64, 40
2, 142864, Control_c, 0, 64, 56
2, 142888, Control_c, 0, 64, 72
2, 142992, Control_c, 0, 64, 24
2, 143004, Control_c, 0, 64, 0
2, 143024, Note_on_c, 0, 75, 71
2, 143036, Note_on_c, 0, 71, 57
2, 143040, Note_on_c, 0, 59, 46
2, 143040, Note_on_c, 0, 56, 37
2, 143072, Note_on_c, 0, 71, 0
2, 143096, Control_c, 0, 64, 40
2, 143108, Control_c, 0, 64, 56
2, 143112, Note_on_c, 0, 75, 0
2, 143120, Control_c, 0, 64, 72
2, 143132, Note_on_c, 0, 76, 74
2, 143132, Control_c, 0, 64, 88
2, 143224, Note_on_c, 0, 76, 0
2, 143224, Note_on_c, 0, 75, 75
2, 143264, Note_on_c, 0, 59, 0
2, 143264, Note_on_c, 0, 56, 0
2, 143308, Note_on_c, 0, 75, 0
2, 143312, Control_c, 0, 64, 24
2, 143324, Control_c, 0, 64, 0
2, 143340, Note_on_c, 0, 73, 69
2, 143340, Note_on_c, 0, 70, 53
2, 143340, Note_on_c, 0, 61, 44
2, 143348, Note_on_c, 0, 58, 37
2, 143388, Control_c, 0, 64, 24
2, 143400, Control_c, 0, 64, 56
2, 143408, Note_on_c, 0, 70, 0
2, 143416, Control_c, 0, 64, 88
2, 143428, Control_c, 0, 64, 127
2, 143572, Note_on_c, 0, 73, 0
2, 143572, Note_on_c, 0, 61, 0
2, 143592, Control_c, 0, 64, 104
2, 143604, Control_c, 0, 64, 56
2, 143616, Note_on_c, 0, 58, 0
2, 143616, Control_c, 0, 64, 0
2, 143644, Note_on_c, 0, 75, 72
2, 143656, Note_on_c, 0, 71, 54
2, 143668, Note_on_c, 0, 59, 44
2, 143668, Note_on_c, 0, 63, 31
2, 143708, Note_on_c, 0, 59, 0
2, 143720, Note_on_c, 0, 71, 0
2, 143720, Control_c, 0, 64, 40
2, 143728, Note_on_c, 0, 63, 0
2, 143732, Control_c, 0, 64, 72
2, 143744, Note_on_c, 0, 75, 0
2, 143784, Control_c, 0, 64, 88
2, 143836, Control_c, 0, 64, 104
2, 143900, Control_c, 0, 64, 56
2, 143912, Control_c, 0, 64, 40
2, 143924, Control_c, 0, 64, 0
2, 143952, Note_on_c, 0, 76, 80
2, 143952, Note_on_c, 0, 73, 45
2, 143968, Note_on_c, 0, 64, 56
2, 143968, Note_on_c, 0, 61, 38
2, 143988, Note_on_c, 0, 73, 0
2, 143992, Note_on_c, 0, 64, 0
2, 144004, Note_on_c, 0, 61, 0
2, 144028, Note_on_c, 0, 76, 0
2, 144220, Note_on_c, 0, 78, 70
2, 144224, Note_on_c, 0, 75, 60
2, 144228, Note_on_c, 0, 63, 51
2, 144232, Note_on_c, 0, 66, 43
2, 144268, Note_on_c, 0, 75, 0
2, 144276, Note_on_c, 0, 66, 0
2, 144284, Note_on_c, 0, 78, 0
2, 144292, Note_on_c, 0, 63, 0
2, 144316, Note_on_c, 0, 80, 74
2, 144324, Note_on_c, 0, 76, 78
2, 144328, Note_on_c, 0, 68, 54
2, 144344, Note_on_c, 0, 64, 49
2, 144400, Note_on_c, 0, 76, 0
2, 144692, Control_c, 0, 64, 40
2, 144704, Control_c, 0, 64, 72
2, 144716, Control_c, 0, 64, 88
2, 144732, Note_on_c, 0, 64, 0
2, 144732, Control_c, 0, 64, 104
2, 144740, Note_on_c, 0, 68, 0
2, 144756, Note_on_c, 0, 80, 0
2, 144820, Control_c, 0, 64, 127
2, 144948, Control_c, 0, 64, 88
2, 144960, Control_c, 0, 64, 40
2, 144968, Note_on_c, 0, 75, 73
2, 144972, Note_on_c, 0, 63, 29
2, 144972, Control_c, 0, 64, 0
2, 144988, Note_on_c, 0, 59, 41
2, 144992, Note_on_c, 0, 71, 49
2, 145020, Note_on_c, 0, 71, 0
2, 145052, Note_on_c, 0, 75, 0
2, 145072, Note_on_c, 0, 76, 75
2, 145076, Control_c, 0, 64, 40
2, 145088, Control_c, 0, 64, 56
2, 145100, Control_c, 0, 64, 72
2, 145168, Note_on_c, 0, 76, 0
2, 145168, Note_on_c, 0, 75, 79
2, 145244, Note_on_c, 0, 59, 0
2, 145244, Note_on_c, 0, 63, 0
2, 145252, Note_on_c, 0, 75, 0
2, 145256, Control_c, 0, 64, 24
2, 145268, Control_c, 0, 64, 0
2, 145272, Note_on_c, 0, 73, 65
2, 145276, Note_on_c, 0, 70, 54
2, 145280, Note_on_c, 0, 58, 35
2, 145284, Note_on_c, 0, 61, 38
2, 145352, Note_on_c, 0, 70, 0
2, 145356, Control_c, 0, 64, 24
2, 145368, Control_c, 0, 64, 40
2, 145384, Control_c, 0, 64, 72
2, 145404, Note_on_c, 0, 73, 0
2, 145440, Note_on_c, 0, 58, 0
2, 145448, Note_on_c, 0, 61, 0
2, 145548, Control_c, 0, 64, 40
2, 145560, Control_c, 0, 64, 0
2, 145580, Note_on_c, 0, 75, 69
2, 145600, Note_on_c, 0, 63, 42
2, 145600, Note_on_c, 0, 71, 47
2, 145608, Note_on_c, 0, 59, 47
2, 145636, Note_on_c, 0, 71, 0
2, 145644, Note_on_c, 0, 59, 0
2, 145656, Note_on_c, 0, 63, 0
2, 145664, Note_on_c, 0, 75, 0
2, 145664, Control_c, 0, 64, 24
2, 145676, Control_c, 0, 64, 56
2, 145688, Control_c, 0, 64, 72
2, 145700, Control_c, 0, 64, 88
2, 145712, Control_c, 0, 64, 104
2, 145764, Control_c, 0, 64, 127
2, 145868, Control_c, 0, 64, 72
2, 145880, Control_c, 0, 64, 24
2, 145892, Control_c, 0, 64, 0
2, 145904, Note_on_c, 0, 73, 58
2, 145904, Note_on_c, 0, 76, 70
2, 145916, Note_on_c, 0, 64, 55
2, 145916, Note_on_c, 0, 61, 44
2, 145956, Note_on_c, 0, 64, 0
2, 145960, Note_on_c, 0, 73, 0
2, 145968, Note_on_c, 0, 76, 0
2, 145968, Note_on_c, 0, 61, 0
2, 145968, Control_c, 0, 64, 24
2, 145984, Control_c, 0, 64, 56
2, 145996, Control_c, 0, 64, 88
2, 146008, Control_c, 0, 64, 104
2, 146060, Control_c, 0, 64, 127
2, 146268, Note_on_c, 0, 73, 74
2, 146272, Note_on_c, 0, 68, 51
2, 146276, Note_on_c, 0, 61, 42
2, 146304, Note_on_c, 0, 52, 44
2, 146312, Control_c, 0, 64, 104
2, 146328, Control_c, 0, 64, 72
2, 146340, Control_c, 0, 64, 40
2, 146352, Control_c, 0, 64, 0
2, 146456, Control_c, 0, 64, 24
2, 146468, Control_c, 0, 64, 56
2, 146480, Control_c, 0, 64, 88
2, 146492, Control_c, 0, 64, 104
2, 146520, Control_c, 0, 64, 127
2, 146740, Note_on_c, 0, 52, 0
2, 146784, Note_on_c, 0, 68, 0
2, 146784, Note_on_c, 0, 54, 48
2, 146792, Note_on_c, 0, 73, 0
2, 146808, Note_on_c, 0, 54, 0
2, 146828, Note_on_c, 0, 61, 0
2, 146904, Control_c, 0, 64, 104
2, 146916, Control_c, 0, 64, 88
2, 146928, Control_c, 0, 64, 40
2, 146940, Control_c, 0, 64, 0
2, 146948, Note_on_c, 0, 75, 76
2, 146960, Note_on_c, 0, 71, 57
2, 146964, Note_on_c, 0, 59, 38
2, 146964, Note_on_c, 0, 56, 47
2, 147000, Note_on_c, 0, 71, 0
2, 147028, Note_on_c, 0, 75, 0
2, 147044, Control_c, 0, 64, 24
2, 147052, Note_on_c, 0, 76, 78
2, 147056, Control_c, 0, 64, 40
2, 147068, Control_c, 0, 64, 56
2, 147080, Control_c, 0, 64, 72
2, 147132, Note_on_c, 0, 75, 81
2, 147152, Note_on_c, 0, 76, 0
2, 147172, Control_c, 0, 64, 40
2, 147184, Control_c, 0, 64, 0
2, 147220, Note_on_c, 0, 75, 0
2, 147232, Note_on_c, 0, 56, 0
2, 147236, Note_on_c, 0, 73, 77
2, 147240, Note_on_c, 0, 59, 0
2, 147240, Note_on_c, 0, 61, 57
2, 147240, Note_on_c, 0, 70, 59
2, 147240, Note_on_c, 0, 58, 49
2, 147296, Note_on_c, 0, 58, 0
2, 147296, Note_on_c, 0, 61, 0
2, 147304, Note_on_c, 0, 70, 0
2, 147352, Control_c, 0, 64, 24
2, 147412, Control_c, 0, 64, 0
2, 147508, Note_on_c, 0, 73, 0
2, 147552, Note_on_c, 0, 75, 77
2, 147560, Note_on_c, 0, 63, 47
2, 147560, Note_on_c, 0, 71, 62
2, 147568, Note_on_c, 0, 59, 51
2, 147592, Note_on_c, 0, 59, 0
2, 147592, Note_on_c, 0, 71, 0
2, 147612, Note_on_c, 0, 63, 0
2, 147628, Control_c, 0, 64, 24
2, 147636, Note_on_c, 0, 75, 0
2, 147708, Control_c, 0, 64, 40
2, 147720, Control_c, 0, 64, 56
2, 147732, Control_c, 0, 64, 72
2, 147772, Control_c, 0, 64, 88
2, 147848, Control_c, 0, 64, 56
2, 147860, Control_c, 0, 64, 0
2, 147876, Note_on_c, 0, 76, 82
2, 147880, Note_on_c, 0, 73, 49
2, 147884, Note_on_c, 0, 64, 57
2, 147896, Note_on_c, 0, 61, 39
2, 147936, Note_on_c, 0, 61, 0
2, 147936, Note_on_c, 0, 64, 0
2, 147936, Note_on_c, 0, 73, 0
2, 147948, Control_c, 0, 64, 40
2, 147964, Control_c, 0, 64, 72
2, 147968, Note_on_c, 0, 76, 0
2, 147976, Control_c, 0, 64, 104
2, 147988, Control_c, 0, 64, 127
2, 148196, Note_on_c, 0, 78, 77
2, 148204, Note_on_c, 0, 66, 49
2, 148204, Note_on_c, 0, 63, 45
2, 148208, Note_on_c, 0, 75, 57
2, 148236, Note_on_c, 0, 75, 0
2, 148236, Note_on_c, 0, 66, 0
2, 148248, Note_on_c, 0, 63, 0
2, 148272, Note_on_c, 0, 78, 0
2, 148320, Note_on_c, 0, 80, 82
2, 148332, Note_on_c, 0, 68, 52
2, 148340, Note_on_c, 0, 76, 59
2, 148348, Note_on_c, 0, 64, 41
2, 148368, Note_on_c, 0, 76, 0
2, 148436, Control_c, 0, 64, 104
2, 148448, Control_c, 0, 64, 72
2, 148460, Control_c, 0, 64, 24
2, 148476, Control_c, 0, 64, 0
2, 148564, Control_c, 0, 64, 40
2, 148576, Control_c, 0, 64, 104
2, 148588, Control_c, 0, 64, 127
2, 148640, Note_on_c, 0, 64, 0
2, 148640, Note_on_c, 0, 68, 0
2, 148704, Note_on_c, 0, 80, 0
2, 148896, Control_c, 0, 64, 104
2, 148908, Note_on_c, 0, 51, 60
2, 148908, Control_c, 0, 64, 24
2, 148920, Control_c, 0, 64, 0
2, 148976, Note_on_c, 0, 51, 0
2, 148984, Note_on_c, 0, 61, 46
2, 148984, Control_c, 0, 64, 104
2, 148996, Control_c, 0, 64, 127
2, 149020, Note_on_c, 0, 61, 0
2, 149028, Note_on_c, 0, 58, 59
2, 149100, Note_on_c, 0, 58, 0
2, 149108, Note_on_c, 0, 70, 53
2, 149116, Note_on_c, 0, 67, 31
2, 149156, Note_on_c, 0, 67, 0
2, 149172, Note_on_c, 0, 70, 0
2, 149172, Note_on_c, 0, 73, 56
2, 149216, Note_on_c, 0, 75, 60
2, 149228, Note_on_c, 0, 73, 0
2, 149248, Note_on_c, 0, 79, 66
2, 149260, Note_on_c, 0, 75, 0
2, 149328, Note_on_c, 0, 82, 77
2, 149332, Note_on_c, 0, 79, 0
2, 149808, Note_on_c, 0, 39, 32
2, 149936, Note_on_c, 0, 82, 0
2, 149952, Note_on_c, 0, 39, 0
2, 151348, Control_c, 0, 64, 88
2, 151360, Control_c, 0, 64, 56
2, 151376, Control_c, 0, 64, 0
2, 151460, Control_c, 0, 64, 24
2, 151476, Control_c, 0, 64, 72
2, 151488, Control_c, 0, 64, 127
2, 151948, Control_c, 0, 64, 104
2, 151960, Control_c, 0, 64, 88
2, 151988, Control_c, 0, 64, 72
2, 152012, Control_c, 0, 64, 56
2, 152036, Control_c, 0, 64, 40
2, 152052, Control_c, 0, 64, 24
2, 152064, Control_c, 0, 64, 0
2, 152240, Note_on_c, 0, 75, 62
2, 152272, Note_on_c, 0, 63, 38
2, 152292, Control_c, 0, 64, 56
2, 152304, Control_c, 0, 64, 88
2, 152320, Control_c, 0, 64, 127
2, 152356, Note_on_c, 0, 75, 0
2, 152576, Note_on_c, 0, 63, 0
2, 152624, Note_on_c, 0, 84, 82
2, 152632, Note_on_c, 0, 72, 62
2, 152792, Control_c, 0, 64, 88
2, 152804, Control_c, 0, 64, 56
2, 152816, Control_c, 0, 64, 0
2, 152956, Control_c, 0, 64, 56
2, 152972, Control_c, 0, 64, 88
2, 152984, Control_c, 0, 64, 127
2, 153048, Control_c, 0, 64, 88
2, 153060, Control_c, 0, 64, 40
2, 153072, Control_c, 0, 64, 0
2, 153236, Note_on_c, 0, 72, 0
2, 153240, Note_on_c, 0, 84, 0
2, 153240, Note_on_c, 0, 80, 68
2, 153252, Note_on_c, 0, 68, 48
2, 153316, Control_c, 0, 64, 40
2, 153328, Control_c, 0, 64, 72
2, 153340, Control_c, 0, 64, 88
2, 153368, Control_c, 0, 64, 104
2, 153432, Control_c, 0, 64, 88
2, 153436, Note_on_c, 0, 68, 0
2, 153444, Note_on_c, 0, 80, 0
2, 153444, Control_c, 0, 64, 72
2, 153456, Control_c, 0, 64, 40
2, 153468, Note_on_c, 0, 74, 63
2, 153468, Control_c, 0, 64, 24
2, 153484, Note_on_c, 0, 62, 48
2, 153484, Control_c, 0, 64, 0
2, 153552, Note_on_c, 0, 74, 0
2, 153560, Note_on_c, 0, 62, 0
2, 153572, Note_on_c, 0, 65, 59
2, 153576, Note_on_c, 0, 77, 79
2, 153640, Note_on_c, 0, 65, 0
2, 153656, Note_on_c, 0, 77, 0
2, 153664, Note_on_c, 0, 67, 51
2, 153668, Note_on_c, 0, 79, 78
2, 153740, Note_on_c, 0, 67, 0
2, 153752, Note_on_c, 0, 65, 54
2, 153764, Note_on_c, 0, 79, 0
2, 153764, Note_on_c, 0, 77, 79
2, 153868, Note_on_c, 0, 65, 0
2, 153884, Note_on_c, 0, 77, 0
2, 153884, Note_on_c, 0, 75, 81
2, 153892, Note_on_c, 0, 63, 57
2, 153956, Note_on_c, 0, 63, 0
2, 153964, Note_on_c, 0, 75, 0
2, 154228, Note_on_c, 0, 87, 80
2, 154240, Note_on_c, 0, 75, 61
2, 154284, Note_on_c, 0, 75, 0
2, 154292, Note_on_c, 0, 87, 0
2, 154588, Note_on_c, 0, 84, 76
2, 154600, Note_on_c, 0, 72, 58
2, 154836, Control_c, 0, 64, 24
2, 154848, Control_c, 0, 64, 40
2, 154860, Control_c, 0, 64, 56
2, 154928, Control_c, 0, 64, 24
2, 154940, Control_c, 0, 64, 0
2, 155052, Control_c, 0, 64, 24
2, 155068, Control_c, 0, 64, 40
2, 155116, Control_c, 0, 64, 56
2, 155168, Control_c, 0, 64, 72
2, 155212, Note_on_c, 0, 84, 0
2, 155220, Note_on_c, 0, 72, 0
2, 155228, Note_on_c, 0, 80, 64
2, 155232, Note_on_c, 0, 68, 49
2, 155284, Control_c, 0, 64, 56
2, 155336, Control_c, 0, 64, 40
2, 155360, Control_c, 0, 64, 24
2, 155372, Control_c, 0, 64, 0
2, 155416, Note_on_c, 0, 80, 0
2, 155420, Note_on_c, 0, 68, 0
2, 155440, Note_on_c, 0, 74, 68
2, 155464, Note_on_c, 0, 62, 51
2, 155536, Note_on_c, 0, 74, 0
2, 155544, Note_on_c, 0, 62, 0
2, 155564, Note_on_c, 0, 77, 76
2, 155572, Note_on_c, 0, 65, 43
2, 155632, Note_on_c, 0, 65, 0
2, 155640, Note_on_c, 0, 77, 0
2, 155660, Note_on_c, 0, 67, 47
2, 155660, Note_on_c, 0, 79, 73
2, 155740, Note_on_c, 0, 67, 0
2, 155752, Note_on_c, 0, 79, 0
2, 155756, Note_on_c, 0, 77, 72
2, 155760, Note_on_c, 0, 65, 54
2, 155880, Note_on_c, 0, 77, 0
2, 155880, Note_on_c, 0, 75, 69
2, 155884, Note_on_c, 0, 65, 0
2, 155896, Note_on_c, 0, 63, 45
2, 155956, Note_on_c, 0, 63, 0
2, 155960, Note_on_c, 0, 75, 0
2, 156216, Note_on_c, 0, 63, 62
2, 156232, Note_on_c, 0, 51, 39
2, 156256, Note_on_c, 0, 51, 0
2, 156256, Control_c, 0, 64, 24
2, 156268, Control_c, 0, 64, 40
2, 156280, Note_on_c, 0, 63, 0
2, 156280, Control_c, 0, 64, 56
2, 156292, Control_c, 0, 64, 72
2, 156332, Control_c, 0, 64, 88
2, 156588, Note_on_c, 0, 84, 70
2, 156588, Control_c, 0, 64, 72
2, 156616, Note_on_c, 0, 72, 46
2, 156624, Control_c, 0, 64, 56
2, 156664, Control_c, 0, 64, 40
2, 156676, Control_c, 0, 64, 24
2, 156688, Control_c, 0, 64, 0
2, 157204, Note_on_c, 0, 84, 0
2, 157212, Note_on_c, 0, 72, 0
2, 157212, Note_on_c, 0, 68, 50
2, 157216, Note_on_c, 0, 80, 67
2, 157360, Note_on_c, 0, 80, 0
2, 157380, Note_on_c, 0, 68, 0
2, 157380, Note_on_c, 0, 74, 67
2, 157396, Note_on_c, 0, 62, 44
2, 157520, Note_on_c, 0, 62, 0
2, 157520, Note_on_c, 0, 74, 0
2, 157544, Note_on_c, 0, 77, 73
2, 157552, Note_on_c, 0, 65, 53
2, 157628, Note_on_c, 0, 65, 0
2, 157648, Note_on_c, 0, 77, 0
2, 157660, Note_on_c, 0, 79, 74
2, 157664, Note_on_c, 0, 67, 48
2, 157740, Note_on_c, 0, 67, 0
2, 157756, Note_on_c, 0, 79, 0
2, 157756, Note_on_c, 0, 77, 81
2, 157764, Note_on_c, 0, 65, 47
2, 157852, Note_on_c, 0, 65, 0
2, 157868, Note_on_c, 0, 77, 0
2, 157872, Note_on_c, 0, 75, 74
2, 157880, Note_on_c, 0, 63, 54
2, 157936, Note_on_c, 0, 63, 0
2, 157960, Note_on_c, 0, 75, 0
2, 158212, Note_on_c, 0, 87, 78
2, 158236, Note_on_c, 0, 75, 53
2, 158288, Control_c, 0, 64, 24
2, 158300, Control_c, 0, 64, 40
2, 158304, Note_on_c, 0, 75, 0
2, 158312, Control_c, 0, 64, 72
2, 158316, Note_on_c, 0, 87, 0
2, 158324, Control_c, 0, 64, 88
2, 158336, Control_c, 0, 64, 104
2, 158348, Control_c, 0, 64, 127
2, 158580, Note_on_c, 0, 84, 80
2, 158600, Note_on_c, 0, 72, 53
2, 158696, Control_c, 0, 64, 104
2, 158708, Control_c, 0, 64, 88
2, 158720, Control_c, 0, 64, 56
2, 158732, Control_c, 0, 64, 24
2, 158748, Control_c, 0, 64, 0
2, 158872, Control_c, 0, 64, 40
2, 158888, Control_c, 0, 64, 56
2, 158900, Control_c, 0, 64, 72
2, 158912, Control_c, 0, 64, 88
2, 158948, Control_c, 0, 64, 104
2, 159040, Control_c, 0, 64, 127
2, 159116, Control_c, 0, 64, 72
2, 159128, Control_c, 0, 64, 40
2, 159144, Control_c, 0, 64, 0
2, 159184, Note_on_c, 0, 80, 74
2, 159192, Note_on_c, 0, 68, 45
2, 159200, Note_on_c, 0, 84, 0
2, 159208, Note_on_c, 0, 72, 0
2, 159232, Control_c, 0, 64, 40
2, 159244, Control_c, 0, 64, 56
2, 159256, Control_c, 0, 64, 72
2, 159268, Control_c, 0, 64, 88
2, 159320, Control_c, 0, 64, 0
2, 159324, Note_on_c, 0, 68, 0
2, 159328, Note_on_c, 0, 80, 0
2, 159332, Note_on_c, 0, 74, 69
2, 159332, Note_on_c, 0, 62, 49
2, 159452, Note_on_c, 0, 62, 0
2, 159508, Note_on_c, 0, 74, 0
2, 159520, Note_on_c, 0, 77, 71
2, 159532, Note_on_c, 0, 65, 49
2, 159636, Note_on_c, 0, 77, 0
2, 159644, Note_on_c, 0, 65, 0
2, 159660, Note_on_c, 0, 79, 68
2, 159668, Note_on_c, 0, 67, 42
2, 159692, Control_c, 0, 64, 24
2, 159704, Control_c, 0, 64, 40
2, 159748, Note_on_c, 0, 67, 0
2, 159752, Note_on_c, 0, 79, 0
2, 159772, Note_on_c, 0, 77, 68
2, 159776, Note_on_c, 0, 65, 50
2, 159884, Note_on_c, 0, 65, 0
2, 159892, Note_on_c, 0, 77, 0
2, 159908, Control_c, 0, 64, 24
2, 159912, Note_on_c, 0, 75, 62
2, 159936, Note_on_c, 0, 63, 46
2, 159936, Control_c, 0, 64, 0
2, 160452, Note_on_c, 0, 63, 0
2, 160500, Note_on_c, 0, 75, 0
2, 160612, Control_c, 0, 64, 127
2, 160624, Note_on_c, 0, 68, 44
2, 160624, Note_on_c, 0, 75, 63
2, 160628, Note_on_c, 0, 44, 47
2, 160656, Note_on_c, 0, 68, 0
2, 160688, Note_on_c, 0, 44, 0
2, 160688, Note_on_c, 0, 75, 0
2, 160720, Note_on_c, 0, 79, 68
2, 160796, Note_on_c, 0, 80, 75
2, 160816, Note_on_c, 0, 79, 0
2, 160844, Note_on_c, 0, 80, 0
2, 160888, Note_on_c, 0, 87, 86
2, 160900, Note_on_c, 0, 60, 33
2, 160900, Note_on_c, 0, 51, 34
2, 160920, Note_on_c, 0, 87, 0
2, 160952, Note_on_c, 0, 51, 0
2, 160952, Note_on_c, 0, 60, 0
2, 161144, Note_on_c, 0, 60, 45
2, 161152, Note_on_c, 0, 51, 36
2, 161188, Note_on_c, 0, 60, 0
2, 161200, Note_on_c, 0, 51, 0
2, 161372, Control_c, 0, 64, 56
2, 161380, Control_c, 0, 64, 0
2, 161400, Note_on_c, 0, 87, 80
2, 161404, Note_on_c, 0, 82, 71
2, 161412, Note_on_c, 0, 44, 48
2, 161436, Control_c, 0, 64, 40
2, 161448, Control_c, 0, 64, 127
2, 161472, Note_on_c, 0, 44, 0
2, 161484, Note_on_c, 0, 87, 0
2, 161528, Note_on_c, 0, 82, 0
2, 161576, Note_on_c, 0, 80, 65
2, 161640, Note_on_c, 0, 80, 0
2, 161660, Note_on_c, 0, 82, 67
2, 161680, Note_on_c, 0, 60, 28
2, 161692, Note_on_c, 0, 51, 25
2, 161736, Note_on_c, 0, 82, 0
2, 161736, Note_on_c, 0, 80, 70
2, 161740, Note_on_c, 0, 60, 0
2, 161744, Note_on_c, 0, 51, 0
2, 161808, Note_on_c, 0, 80, 0
2, 161824, Note_on_c, 0, 75, 69
2, 161896, Note_on_c, 0, 75, 0
2, 161904, Note_on_c, 0, 68, 64
2, 161928, Note_on_c, 0, 60, 40
2, 161936, Note_on_c, 0, 51, 33
2, 161960, Note_on_c, 0, 60, 0
2, 161972, Note_on_c, 0, 51, 0
2, 161976, Note_on_c, 0, 68, 0
2, 162108, Control_c, 0, 64, 72
2, 162120, Control_c, 0, 64, 0
2, 162160, Note_on_c, 0, 68, 42
2, 162164, Note_on_c, 0, 75, 64
2, 162164, Note_on_c, 0, 44, 47
2, 162184, Control_c, 0, 64, 72
2, 162188, Note_on_c, 0, 68, 0
2, 162196, Control_c, 0, 64, 127
2, 162220, Note_on_c, 0, 44, 0
2, 162240, Note_on_c, 0, 79, 66
2, 162248, Note_on_c, 0, 75, 0
2, 162308, Note_on_c, 0, 80, 71
2, 162332, Note_on_c, 0, 79, 0
2, 162356, Note_on_c, 0, 80, 0
2, 162404, Note_on_c, 0, 87, 87
2, 162408, Note_on_c, 0, 60, 38
2, 162416, Note_on_c, 0, 51, 34
2, 162436, Note_on_c, 0, 87, 0
2, 162468, Note_on_c, 0, 51, 0
2, 162468, Note_on_c, 0, 60, 0
2, 162660, Note_on_c, 0, 60, 47
2, 162668, Note_on_c, 0, 51, 40
2, 162688, Note_on_c, 0, 60, 0
2, 162708, Note_on_c, 0, 51, 0
2, 162880, Control_c, 0, 64, 72
2, 162888, Control_c, 0, 64, 0
2, 162916, Note_on_c, 0, 87, 81
2, 162916, Note_on_c, 0, 82, 67
2, 162924, Note_on_c, 0, 44, 48
2, 162952, Control_c, 0, 64, 56
2, 162964, Control_c, 0, 64, 127
2, 162988, Note_on_c, 0, 44, 0
2, 162996, Note_on_c, 0, 87, 0
2, 163012, Note_on_c, 0, 82, 0
2, 163076, Note_on_c, 0, 80, 64
2, 163144, Note_on_c, 0, 80, 0
2, 163160, Note_on_c, 0, 82, 70
2, 163196, Note_on_c, 0, 60, 36
2, 163196, Note_on_c, 0, 51, 27
2, 163232, Note_on_c, 0, 60, 0
2, 163232, Note_on_c, 0, 82, 0
2, 163236, Note_on_c, 0, 51, 0
2, 163240, Note_on_c, 0, 80, 61
2, 163304, Note_on_c, 0, 80, 0
2, 163324, Note_on_c, 0, 75, 72
2, 163396, Note_on_c, 0, 75, 0
2, 163412, Note_on_c, 0, 68, 55
2, 163448, Note_on_c, 0, 60, 41
2, 163448, Note_on_c, 0, 51, 40
2, 163472, Note_on_c, 0, 51, 0
2, 163472, Note_on_c, 0, 60, 0
2, 163480, Note_on_c, 0, 68, 0
2, 163604, Control_c, 0, 64, 40
2, 163616, Control_c, 0, 64, 0
2, 163648, Note_on_c, 0, 75, 70
2, 163652, Note_on_c, 0, 68, 40
2, 163676, Note_on_c, 0, 44, 48
2, 163680, Control_c, 0, 64, 104
2, 163684, Note_on_c, 0, 68, 0
2, 163692, Control_c, 0, 64, 127
2, 163736, Note_on_c, 0, 44, 0
2, 163748, Note_on_c, 0, 79, 68
2, 163764, Note_on_c, 0, 75, 0
2, 163816, Note_on_c, 0, 80, 69
2, 163840, Note_on_c, 0, 79, 0
2, 163860, Note_on_c, 0, 80, 0
2, 163904, Note_on_c, 0, 87, 78
2, 163916, Note_on_c, 0, 51, 39
2, 163916, Note_on_c, 0, 60, 37
2, 163932, Note_on_c, 0, 87, 0
2, 163968, Note_on_c, 0, 60, 0
2, 163972, Note_on_c, 0, 51, 0
2, 164164, Note_on_c, 0, 51, 38
2, 164168, Note_on_c, 0, 60, 31
2, 164200, Note_on_c, 0, 60, 0
2, 164220, Note_on_c, 0, 51, 0
2, 164376, Control_c, 0, 64, 72
2, 164388, Control_c, 0, 64, 0
2, 164396, Note_on_c, 0, 82, 74
2, 164400, Note_on_c, 0, 87, 74
2, 164416, Note_on_c, 0, 44, 43
2, 164452, Control_c, 0, 64, 40
2, 164464, Control_c, 0, 64, 127
2, 164496, Note_on_c, 0, 44, 0
2, 164500, Note_on_c, 0, 87, 0
2, 164516, Note_on_c, 0, 82, 0
2, 164564, Note_on_c, 0, 80, 65
2, 164636, Note_on_c, 0, 80, 0
2, 164640, Note_on_c, 0, 82, 67
2, 164680, Note_on_c, 0, 60, 40
2, 164688, Note_on_c, 0, 51, 40
2, 164716, Note_on_c, 0, 80, 69
2, 164724, Note_on_c, 0, 51, 0
2, 164728, Note_on_c, 0, 82, 0
2, 164736, Note_on_c, 0, 60, 0
2, 164780, Note_on_c, 0, 80, 0
2, 164792, Note_on_c, 0, 75, 76
2, 164824, Note_on_c, 0, 75, 0
2, 164880, Note_on_c, 0, 92, 86
2, 164912, Note_on_c, 0, 60, 36
2, 164916, Note_on_c, 0, 51, 37
2, 164920, Note_on_c, 0, 92, 0
2, 164948, Note_on_c, 0, 60, 0
2, 164956, Note_on_c, 0, 51, 0
2, 165124, Control_c, 0, 64, 40
2, 165128, Note_on_c, 0, 87, 82
2, 165128, Note_on_c, 0, 82, 74
2, 165136, Control_c, 0, 64, 0
2, 165156, Note_on_c, 0, 44, 45
2, 165200, Control_c, 0, 64, 88
2, 165212, Control_c, 0, 64, 127
2, 165228, Note_on_c, 0, 87, 0
2, 165232, Note_on_c, 0, 44, 0
2, 165244, Note_on_c, 0, 82, 0
2, 165292, Note_on_c, 0, 80, 74
2, 165360, Note_on_c, 0, 80, 0
2, 165360, Note_on_c, 0, 82, 61
2, 165396, Note_on_c, 0, 51, 40
2, 165404, Note_on_c, 0, 60, 35
2, 165432, Note_on_c, 0, 80, 64
2, 165444, Note_on_c, 0, 82, 0
2, 165452, Note_on_c, 0, 60, 0
2, 165464, Note_on_c, 0, 51, 0
2, 165508, Note_on_c, 0, 80, 0
2, 165508, Note_on_c, 0, 75, 69
2, 165544, Note_on_c, 0, 75, 0
2, 165600, Note_on_c, 0, 92, 89
2, 165648, Note_on_c, 0, 92, 0
2, 165648, Note_on_c, 0, 51, 26
2, 165648, Note_on_c, 0, 60, 24
2, 165672, Note_on_c, 0, 60, 0
2, 165676, Note_on_c, 0, 51, 0
2, 165780, Note_on_c, 0, 80, 80
2, 165784, Control_c, 0, 64, 104
2, 165796, Control_c, 0, 64, 24
2, 165808, Control_c, 0, 64, 0
2, 165832, Note_on_c, 0, 80, 0
2, 165852, Control_c, 0, 64, 88
2, 165860, Control_c, 0, 64, 127
2, 165872, Note_on_c, 0, 44, 50
2, 165912, Note_on_c, 0, 96, 87
2, 165960, Note_on_c, 0, 44, 0
2, 165964, Note_on_c, 0, 96, 0
2, 166156, Note_on_c, 0, 60, 32
2, 166164, Note_on_c, 0, 51, 32
2, 166216, Note_on_c, 0, 60, 0
2, 166220, Note_on_c, 0, 51, 0
2, 166416, Note_on_c, 0, 60, 42
2, 166416, Note_on_c, 0, 51, 42
2, 166444, Note_on_c, 0, 60, 0
2, 166472, Note_on_c, 0, 51, 0
2, 166632, Control_c, 0, 64, 72
2, 166644, Control_c, 0, 64, 0
2, 166652, Note_on_c, 0, 44, 44
2, 166652, Note_on_c, 0, 94, 72
2, 166684, Control_c, 0, 64, 56
2, 166696, Control_c, 0, 64, 127
2, 166712, Note_on_c, 0, 44, 0
2, 166716, Note_on_c, 0, 94, 0
2, 166736, Note_on_c, 0, 96, 83
2, 166796, Note_on_c, 0, 96, 0
2, 166804, Note_on_c, 0, 94, 72
2, 166888, Note_on_c, 0, 94, 0
2, 166896, Note_on_c, 0, 93, 80
2, 166904, Note_on_c, 0, 61, 41
2, 166912, Note_on_c, 0, 51, 40
2, 166968, Note_on_c, 0, 93, 0
2, 166972, Note_on_c, 0, 94, 77
2, 166980, Note_on_c, 0, 51, 0
2, 166992, Note_on_c, 0, 61, 0
2, 167032, Note_on_c, 0, 94, 0
2, 167052, Note_on_c, 0, 90, 73
2, 167128, Note_on_c, 0, 90, 0
2, 167128, Note_on_c, 0, 92, 73
2, 167156, Note_on_c, 0, 61, 38
2, 167168, Note_on_c, 0, 51, 38
2, 167184, Note_on_c, 0, 92, 0
2, 167188, Note_on_c, 0, 91, 72
2, 167196, Note_on_c, 0, 61, 0
2, 167208, Note_on_c, 0, 51, 0
2, 167244, Note_on_c, 0, 91, 0
2, 167260, Note_on_c, 0, 94, 77
2, 167304, Note_on_c, 0, 94, 0
2, 167348, Note_on_c, 0, 94, 73
2, 167380, Control_c, 0, 64, 104
2, 167388, Control_c, 0, 64, 40
2, 167396, Note_on_c, 0, 87, 68
2, 167400, Note_on_c, 0, 94, 0
2, 167400, Control_c, 0, 64, 0
2, 167412, Note_on_c, 0, 44, 45
2, 167488, Control_c, 0, 64, 88
2, 167500, Control_c, 0, 64, 127
2, 167508, Note_on_c, 0, 44, 0
2, 167588, Note_on_c, 0, 87, 0
2, 167660, Note_on_c, 0, 60, 51
2, 167668, Note_on_c, 0, 51, 40
2, 167724, Note_on_c, 0, 60, 0
2, 167728, Note_on_c, 0, 51, 0
2, 167744, Note_on_c, 0, 89, 65
2, 167804, Note_on_c, 0, 89, 0
2, 167824, Note_on_c, 0, 91, 79
2, 167884, Note_on_c, 0, 91, 0
2, 167908, Note_on_c, 0, 92, 75
2, 167912, Note_on_c, 0, 60, 52
2, 167920, Note_on_c, 0, 51, 44
2, 167940, Note_on_c, 0, 60, 0
2, 167964, Note_on_c, 0, 51, 0
2, 167972, Note_on_c, 0, 92, 0
2, 167992, Note_on_c, 0, 94, 71
2, 168060, Note_on_c, 0, 94, 0
2, 168076, Note_on_c, 0, 96, 79
2, 168128, Note_on_c, 0, 96, 0
2, 168140, Control_c, 0, 64, 56
2, 168148, Control_c, 0, 64, 0
2, 168164, Note_on_c, 0, 94, 77
2, 168172, Note_on_c, 0, 44, 47
2, 168204, Control_c, 0, 64, 40
2, 168216, Control_c, 0, 64, 127
2, 168220, Note_on_c, 0, 44, 0
2, 168224, Note_on_c, 0, 94, 0
2, 168248, Note_on_c, 0, 96, 82
2, 168304, Note_on_c, 0, 96, 0
2, 168324, Note_on_c, 0, 94, 77
2, 168396, Note_on_c, 0, 94, 0
2, 168412, Note_on_c, 0, 93, 76
2, 168420, Note_on_c, 0, 61, 40
2, 168432, Note_on_c, 0, 51, 41
2, 168472, Note_on_c, 0, 93, 0
2, 168488, Note_on_c, 0, 94, 69
2, 168492, Note_on_c, 0, 51, 0
2, 168496, Note_on_c, 0, 61, 0
2, 168544, Note_on_c, 0, 94, 0
2, 168568, Note_on_c, 0, 90, 73
2, 168636, Note_on_c, 0, 90, 0
2, 168644, Note_on_c, 0, 92, 68
2, 168660, Note_on_c, 0, 61, 46
2, 168676, Note_on_c, 0, 51, 37
2, 168696, Note_on_c, 0, 92, 0
2, 168700, Note_on_c, 0, 61, 0
2, 168704, Note_on_c, 0, 51, 0
2, 168712, Note_on_c, 0, 91, 69
2, 168776, Note_on_c, 0, 91, 0
2, 168784, Note_on_c, 0, 94, 70
2, 168856, Note_on_c, 0, 94, 0
2, 168864, Control_c, 0, 64, 88
2, 168876, Note_on_c, 0, 87, 77
2, 168876, Control_c, 0, 64, 0
2, 168904, Note_on_c, 0, 44, 44
2, 168940, Control_c, 0, 64, 56
2, 168952, Control_c, 0, 64, 127
2, 168980, Note_on_c, 0, 44, 0
2, 168992, Note_on_c, 0, 87, 0
2, 169116, Note_on_c, 0, 60, 57
2, 169128, Note_on_c, 0, 51, 42
2, 169164, Note_on_c, 0, 60, 0
2, 169176, Note_on_c, 0, 51, 0
2, 169212, Note_on_c, 0, 89, 76
2, 169280, Note_on_c, 0, 89, 0
2, 169284, Note_on_c, 0, 87, 72
2, 169356, Note_on_c, 0, 87, 0
2, 169360, Note_on_c, 0, 84, 67
2, 169372, Note_on_c, 0, 44, 46
2, 169392, Note_on_c, 0, 44, 0
2, 169436, Note_on_c, 0, 84, 0
2, 169444, Note_on_c, 0, 85, 71
2, 169516, Note_on_c, 0, 85, 0
2, 169520, Note_on_c, 0, 86, 79
2, 169588, Note_on_c, 0, 86, 0
2, 169592, Control_c, 0, 64, 88
2, 169604, Control_c, 0, 64, 0
2, 169616, Note_on_c, 0, 54, 54
2, 169620, Note_on_c, 0, 87, 77
2, 169668, Control_c, 0, 64, 72
2, 169680, Control_c, 0, 64, 127
2, 169688, Note_on_c, 0, 87, 0
2, 169700, Note_on_c, 0, 54, 0
2, 169708, Note_on_c, 0, 89, 84
2, 169784, Note_on_c, 0, 89, 0
2, 169784, Note_on_c, 0, 87, 76
2, 169860, Note_on_c, 0, 68, 48
2, 169864, Note_on_c, 0, 87, 0
2, 169864, Note_on_c, 0, 86, 76
2, 169888, Note_on_c, 0, 63, 39
2, 169892, Note_on_c, 0, 60, 38
2, 169932, Note_on_c, 0, 86, 0
2, 169936, Note_on_c, 0, 60, 0
2, 169940, Note_on_c, 0, 87, 67
2, 170000, Note_on_c, 0, 87, 0
2, 170024, Note_on_c, 0, 83, 74
2, 170028, Note_on_c, 0, 68, 0
2, 170092, Note_on_c, 0, 83, 0
2, 170096, Note_on_c, 0, 85, 73
2, 170112, Note_on_c, 0, 68, 44
2, 170112, Note_on_c, 0, 63, 40
2, 170112, Note_on_c, 0, 60, 40
2, 170124, Note_on_c, 0, 63, 0
2, 170160, Note_on_c, 0, 85, 0
2, 170160, Note_on_c, 0, 63, 0
2, 170160, Note_on_c, 0, 60, 0
2, 170164, Note_on_c, 0, 68, 0
2, 170172, Note_on_c, 0, 84, 70
2, 170228, Note_on_c, 0, 84, 0
2, 170236, Note_on_c, 0, 87, 72
2, 170284, Note_on_c, 0, 87, 0
2, 170320, Control_c, 0, 64, 40
2, 170332, Note_on_c, 0, 87, 73
2, 170332, Control_c, 0, 64, 0
2, 170364, Note_on_c, 0, 53, 60
2, 170380, Note_on_c, 0, 80, 83
2, 170384, Note_on_c, 0, 87, 0
2, 170396, Control_c, 0, 64, 104
2, 170404, Control_c, 0, 64, 127
2, 170432, Note_on_c, 0, 53, 0
2, 170596, Note_on_c, 0, 68, 47
2, 170612, Note_on_c, 0, 61, 36
2, 170620, Note_on_c, 0, 56, 31
2, 170636, Note_on_c, 0, 80, 0
2, 170684, Note_on_c, 0, 82, 68
2, 170724, Note_on_c, 0, 82, 0
2, 170732, Note_on_c, 0, 68, 0
2, 170740, Note_on_c, 0, 56, 0
2, 170756, Note_on_c, 0, 84, 70
2, 170816, Note_on_c, 0, 53, 56
2, 170820, Note_on_c, 0, 84, 0
2, 170828, Note_on_c, 0, 85, 73
2, 170844, Note_on_c, 0, 53, 0
2, 170860, Note_on_c, 0, 61, 0
2, 170904, Note_on_c, 0, 85, 0
2, 170908, Note_on_c, 0, 87, 77
2, 170980, Note_on_c, 0, 87, 0
2, 170992, Note_on_c, 0, 89, 82
2, 171044, Control_c, 0, 64, 40
2, 171048, Note_on_c, 0, 89, 0
2, 171056, Control_c, 0, 64, 0
2, 171072, Note_on_c, 0, 87, 82
2, 171080, Note_on_c, 0, 54, 61
2, 171112, Control_c, 0, 64, 40
2, 171120, Control_c, 0, 64, 104
2, 171132, Control_c, 0, 64, 127
2, 171136, Note_on_c, 0, 87, 0
2, 171160, Note_on_c, 0, 89, 85
2, 171180, Note_on_c, 0, 54, 0
2, 171220, Note_on_c, 0, 89, 0
2, 171236, Note_on_c, 0, 87, 77
2, 171312, Note_on_c, 0, 87, 0
2, 171328, Note_on_c, 0, 86, 74
2, 171332, Note_on_c, 0, 68, 32
2, 171368, Note_on_c, 0, 63, 17
2, 171376, Note_on_c, 0, 60, 24
2, 171392, Note_on_c, 0, 86, 0
2, 171396, Note_on_c, 0, 87, 71
2, 171460, Note_on_c, 0, 87, 0
2, 171460, Note_on_c, 0, 60, 0
2, 171476, Note_on_c, 0, 68, 0
2, 171484, Note_on_c, 0, 83, 72
2, 171548, Note_on_c, 0, 85, 67
2, 171548, Note_on_c, 0, 54, 55
2, 171556, Note_on_c, 0, 83, 0
2, 171560, Note_on_c, 0, 63, 0
2, 171604, Note_on_c, 0, 54, 0
2, 171620, Note_on_c, 0, 85, 0
2, 171628, Note_on_c, 0, 84, 71
2, 171684, Note_on_c, 0, 84, 0
2, 171692, Note_on_c, 0, 87, 69
2, 171752, Control_c, 0, 64, 56
2, 171760, Note_on_c, 0, 87, 0
2, 171760, Control_c, 0, 64, 0
2, 171788, Note_on_c, 0, 80, 82
2, 171796, Note_on_c, 0, 53, 55
2, 171828, Control_c, 0, 64, 104
2, 171836, Control_c, 0, 64, 127
2, 171908, Note_on_c, 0, 53, 0
2, 171928, Note_on_c, 0, 80, 0
2, 171936, Note_on_c, 0, 82, 68
2, 171984, Note_on_c, 0, 82, 0
2, 172004, Note_on_c, 0, 84, 75
2, 172068, Note_on_c, 0, 68, 43
2, 172076, Note_on_c, 0, 56, 40
2, 172080, Note_on_c, 0, 85, 82
2, 172080, Note_on_c, 0, 61, 45
2, 172092, Note_on_c, 0, 84, 0
2, 172156, Note_on_c, 0, 87, 77
2, 172172, Note_on_c, 0, 85, 0
2, 172184, Note_on_c, 0, 68, 0
2, 172212, Note_on_c, 0, 87, 0
2, 172228, Note_on_c, 0, 89, 81
2, 172272, Note_on_c, 0, 56, 0
2, 172308, Note_on_c, 0, 89, 0
2, 172308, Note_on_c, 0, 90, 81
2, 172332, Note_on_c, 0, 53, 55
2, 172352, Note_on_c, 0, 61, 0
2, 172380, Note_on_c, 0, 90, 0
2, 172388, Note_on_c, 0, 53, 0
2, 172388, Note_on_c, 0, 91, 84
2, 172456, Note_on_c, 0, 92, 90
2, 172460, Note_on_c, 0, 91, 0
2, 172544, Control_c, 0, 64, 88
2, 172548, Note_on_c, 0, 92, 0
2, 172552, Control_c, 0, 64, 0
2, 172584, Note_on_c, 0, 98, 99
2, 172592, Note_on_c, 0, 52, 71
2, 172620, Control_c, 0, 64, 56
2, 172628, Control_c, 0, 64, 127
2, 172664, Note_on_c, 0, 52, 0
2, 172728, Note_on_c, 0, 98, 0
2, 172740, Note_on_c, 0, 97, 83
2, 172824, Note_on_c, 0, 97, 0
2, 172824, Note_on_c, 0, 95, 85
2, 172908, Note_on_c, 0, 95, 0
2, 172912, Note_on_c, 0, 68, 57
2, 172912, Note_on_c, 0, 93, 87
2, 172920, Note_on_c, 0, 62, 59
2, 172928, Note_on_c, 0, 59, 49
2, 172960, Note_on_c, 0, 59, 0
2, 172976, Note_on_c, 0, 93, 0
2, 173000, Note_on_c, 0, 92, 78
2, 173080, Note_on_c, 0, 90, 77
2, 173084, Note_on_c, 0, 92, 0
2, 173144, Note_on_c, 0, 68, 0
2, 173148, Note_on_c, 0, 62, 0
2, 173164, Note_on_c, 0, 90, 0
2, 173164, Note_on_c, 0, 88, 78
2, 173236, Note_on_c, 0, 88, 0
2, 173248, Note_on_c, 0, 86, 77
2, 173312, Note_on_c, 0, 86, 0
2, 173324, Note_on_c, 0, 85, 76
2, 173392, Note_on_c, 0, 85, 0
2, 173412, Note_on_c, 0, 83, 80
2, 173480, Note_on_c, 0, 83, 0
2, 173496, Note_on_c, 0, 81, 70
2, 173548, Note_on_c, 0, 81, 0
2, 173580, Note_on_c, 0, 80, 59
2, 173644, Note_on_c, 0, 80, 0
2, 173664, Note_on_c, 0, 78, 62
2, 173740, Note_on_c, 0, 78, 0
2, 173740, Note_on_c, 0, 76, 74
2, 173812, Note_on_c, 0, 76, 0
2, 173828, Note_on_c, 0, 74, 73
2, 173900, Note_on_c, 0, 74, 0
2, 173912, Note_on_c, 0, 73, 68
2, 173992, Note_on_c, 0, 73, 0
2, 173992, Note_on_c, 0, 71, 66
2, 174052, Note_on_c, 0, 71, 0
2, 174072, Note_on_c, 0, 69, 63
2, 174152, Note_on_c, 0, 69, 0
2, 174188, Note_on_c, 0, 68, 64
2, 174196, Note_on_c, 0, 52, 41
2, 174200, Note_on_c, 0, 59, 43
2, 174268, Control_c, 0, 64, 72
2, 174276, Control_c, 0, 64, 0
2, 174384, Control_c, 0, 64, 72
2, 174396, Control_c, 0, 64, 127
2, 174412, Note_on_c, 0, 68, 0
2, 174596, Note_on_c, 0, 74, 51
2, 174620, Note_on_c, 0, 74, 0
2, 174668, Note_on_c, 0, 74, 64
2, 174724, Note_on_c, 0, 74, 0
2, 174740, Note_on_c, 0, 75, 69
2, 174756, Note_on_c, 0, 52, 0
2, 174808, Note_on_c, 0, 59, 0
2, 174812, Note_on_c, 0, 74, 82
2, 174836, Note_on_c, 0, 75, 0
2, 174880, Note_on_c, 0, 74, 0
2, 174896, Note_on_c, 0, 73, 72
2, 174968, Note_on_c, 0, 73, 0
2, 174972, Note_on_c, 0, 74, 82
2, 175036, Note_on_c, 0, 74, 0
2, 175096, Note_on_c, 0, 77, 86
2, 175104, Note_on_c, 0, 68, 46
2, 175112, Control_c, 0, 64, 72
2, 175124, Control_c, 0, 64, 0
2, 175128, Note_on_c, 0, 60, 43
2, 175132, Note_on_c, 0, 51, 44
2, 175252, Control_c, 0, 64, 72
2, 175264, Control_c, 0, 64, 104
2, 175276, Control_c, 0, 64, 127
2, 175360, Note_on_c, 0, 68, 0
2, 175368, Note_on_c, 0, 77, 0
2, 175372, Note_on_c, 0, 75, 78
2, 175512, Note_on_c, 0, 60, 0
2, 175596, Note_on_c, 0, 75, 0
2, 175612, Note_on_c, 0, 67, 66
2, 175624, Control_c, 0, 64, 104
2, 175632, Note_on_c, 0, 61, 43
2, 175632, Control_c, 0, 64, 0
2, 175636, Note_on_c, 0, 58, 34
2, 175708, Control_c, 0, 64, 56
2, 175720, Control_c, 0, 64, 127
2, 175732, Note_on_c, 0, 58, 0
2, 175732, Note_on_c, 0, 61, 0
2, 175736, Note_on_c, 0, 67, 0
2, 175752, Note_on_c, 0, 51, 0
2, 175892, Note_on_c, 0, 68, 57
2, 175928, Note_on_c, 0, 44, 47
2, 175936, Control_c, 0, 64, 72
2, 175948, Control_c, 0, 64, 0
2, 176024, Control_c, 0, 64, 104
2, 176032, Control_c, 0, 64, 127
2, 176072, Note_on_c, 0, 68, 0
2, 176092, Note_on_c, 0, 44, 0
2, 176152, Note_on_c, 0, 51, 40
2, 176156, Note_on_c, 0, 60, 50
2, 176192, Note_on_c, 0, 60, 0
2, 176208, Note_on_c, 0, 51, 0
2, 176252, Note_on_c, 0, 63, 59
2, 176256, Note_on_c, 0, 56, 49
2, 176332, Note_on_c, 0, 56, 0
2, 176356, Note_on_c, 0, 63, 0
2, 176356, Note_on_c, 0, 68, 58
2, 176356, Note_on_c, 0, 60, 59
2, 176396, Note_on_c, 0, 68, 0
2, 176408, Note_on_c, 0, 60, 0
2, 176460, Note_on_c, 0, 72, 75
2, 176472, Note_on_c, 0, 63, 44
2, 176516, Note_on_c, 0, 72, 0
2, 176524, Note_on_c, 0, 63, 0
2, 176564, Note_on_c, 0, 75, 77
2, 176568, Note_on_c, 0, 68, 53
2, 176644, Note_on_c, 0, 75, 0
2, 176652, Note_on_c, 0, 68, 0
2, 176668, Note_on_c, 0, 80, 73
2, 176676, Note_on_c, 0, 72, 59
2, 176736, Note_on_c, 0, 80, 0
2, 176744, Note_on_c, 0, 72, 0
2, 176776, Note_on_c, 0, 75, 77
2, 176792, Note_on_c, 0, 68, 46
2, 176840, Note_on_c, 0, 75, 0
2, 176860, Note_on_c, 0, 68, 0
2, 176876, Note_on_c, 0, 80, 75
2, 176896, Note_on_c, 0, 72, 58
2, 176960, Note_on_c, 0, 72, 0
2, 176992, Note_on_c, 0, 82, 73
2, 177000, Note_on_c, 0, 73, 57
2, 177016, Note_on_c, 0, 80, 0
2, 177044, Note_on_c, 0, 82, 0
2, 177064, Note_on_c, 0, 73, 0
2, 177096, Note_on_c, 0, 84, 84
2, 177104, Note_on_c, 0, 75, 64
2, 177192, Note_on_c, 0, 84, 0
2, 177216, Note_on_c, 0, 75, 0
2, 177228, Note_on_c, 0, 85, 86
2, 177244, Note_on_c, 0, 77, 58
2, 177248, Control_c, 0, 64, 40
2, 177260, Control_c, 0, 64, 0
2, 177324, Control_c, 0, 64, 40
2, 177336, Control_c, 0, 64, 127
2, 177368, Note_on_c, 0, 85, 0
2, 177460, Note_on_c, 0, 92, 84
2, 177468, Note_on_c, 0, 84, 85
2, 177480, Note_on_c, 0, 77, 0
2, 177488, Note_on_c, 0, 75, 48
2, 177516, Note_on_c, 0, 84, 0
2, 177552, Note_on_c, 0, 85, 77
2, 177624, Note_on_c, 0, 84, 82
2, 177628, Note_on_c, 0, 92, 0
2, 177644, Note_on_c, 0, 85, 0
2, 177696, Note_on_c, 0, 84, 0
2, 177704, Note_on_c, 0, 87, 81
2, 177708, Note_on_c, 0, 82, 62
2, 177720, Note_on_c, 0, 75, 0
2, 177724, Note_on_c, 0, 73, 34
2, 177904, Note_on_c, 0, 82, 0
2, 177944, Note_on_c, 0, 73, 0
2, 177952, Note_on_c, 0, 80, 71
2, 177976, Control_c, 0, 64, 72
2, 177988, Control_c, 0, 64, 0
2, 177992, Note_on_c, 0, 72, 36
2, 178040, Control_c, 0, 64, 40
2, 178052, Note_on_c, 0, 80, 0
2, 178052, Control_c, 0, 64, 104
2, 178064, Control_c, 0, 64, 127
2, 178096, Note_on_c, 0, 87, 0
2, 178200, Note_on_c, 0, 87, 78
2, 178200, Note_on_c, 0, 79, 79
2, 178212, Note_on_c, 0, 72, 0
2, 178216, Control_c, 0, 64, 88
2, 178220, Note_on_c, 0, 70, 45
2, 178224, Control_c, 0, 64, 40
2, 178236, Control_c, 0, 64, 0
2, 178244, Note_on_c, 0, 79, 0
2, 178268, Control_c, 0, 64, 56
2, 178280, Control_c, 0, 64, 104
2, 178284, Note_on_c, 0, 80, 70
2, 178292, Control_c, 0, 64, 127
2, 178360, Note_on_c, 0, 80, 0
2, 178360, Note_on_c, 0, 79, 77
2, 178400, Note_on_c, 0, 87, 0
2, 178424, Note_on_c, 0, 79, 0
2, 178444, Note_on_c, 0, 82, 80
2, 178448, Note_on_c, 0, 77, 70
2, 178468, Note_on_c, 0, 70, 0
2, 178472, Note_on_c, 0, 68, 34
2, 178612, Note_on_c, 0, 68, 0
2, 178664, Note_on_c, 0, 77, 0
2, 178708, Note_on_c, 0, 75, 73
2, 178724, Note_on_c, 0, 82, 0
2, 178732, Note_on_c, 0, 67, 44
2, 178768, Control_c, 0, 64, 40
2, 178780, Control_c, 0, 64, 0
2, 178844, Control_c, 0, 64, 72
2, 178856, Control_c, 0, 64, 127
2, 178868, Note_on_c, 0, 75, 0
2, 178872, Note_on_c, 0, 67, 0
2, 178948, Note_on_c, 0, 75, 73
2, 178960, Note_on_c, 0, 73, 44
2, 178980, Note_on_c, 0, 73, 0
2, 179004, Note_on_c, 0, 75, 0
2, 179020, Note_on_c, 0, 67, 69
2, 179084, Note_on_c, 0, 67, 0
2, 179112, Note_on_c, 0, 75, 67
2, 179124, Note_on_c, 0, 73, 31
2, 179156, Note_on_c, 0, 73, 0
2, 179196, Note_on_c, 0, 75, 0
2, 179196, Note_on_c, 0, 82, 78
2, 179236, Note_on_c, 0, 82, 0
2, 179436, Note_on_c, 0, 87, 73
2, 179440, Note_on_c, 0, 39, 57
2, 179448, Note_on_c, 0, 85, 54
2, 179492, Note_on_c, 0, 85, 0
2, 179496, Note_on_c, 0, 39, 0
2, 179504, Note_on_c, 0, 87, 0
2, 179520, Note_on_c, 0, 79, 73
2, 179600, Note_on_c, 0, 79, 0
2, 179608, Note_on_c, 0, 87, 61
2, 179616, Note_on_c, 0, 85, 38
2, 179648, Note_on_c, 0, 85, 0
2, 179680, Note_on_c, 0, 87, 0
2, 179692, Note_on_c, 0, 94, 77
2, 179696, Note_on_c, 0, 63, 71
2, 179732, Note_on_c, 0, 94, 0
2, 179948, Note_on_c, 0, 75, 75
2, 179964, Note_on_c, 0, 73, 51
2, 179972, Note_on_c, 0, 51, 46
2, 180188, Note_on_c, 0, 73, 0
2, 180192, Note_on_c, 0, 75, 0
2, 180208, Note_on_c, 0, 67, 64
2, 180216, Note_on_c, 0, 61, 38
2, 180216, Note_on_c, 0, 58, 35
2, 180256, Note_on_c, 0, 63, 0
2, 180296, Control_c, 0, 64, 56
2, 180308, Control_c, 0, 64, 0
2, 180372, Note_on_c, 0, 67, 0
2, 180384, Control_c, 0, 64, 104
2, 180392, Control_c, 0, 64, 127
2, 180448, Note_on_c, 0, 75, 57
2, 180456, Note_on_c, 0, 73, 42
2, 180476, Note_on_c, 0, 73, 0
2, 180492, Note_on_c, 0, 75, 0
2, 180516, Note_on_c, 0, 67, 71
2, 180572, Note_on_c, 0, 67, 0
2, 180600, Note_on_c, 0, 61, 0
2, 180600, Note_on_c, 0, 75, 73
2, 180608, Note_on_c, 0, 58, 0
2, 180632, Note_on_c, 0, 73, 20
2, 180636, Note_on_c, 0, 51, 0
2, 180652, Note_on_c, 0, 73, 0
2, 180680, Note_on_c, 0, 75, 0
2, 180684, Note_on_c, 0, 82, 79
2, 180724, Note_on_c, 0, 82, 0
2, 180912, Note_on_c, 0, 39, 60
2, 180912, Note_on_c, 0, 87, 70
2, 180920, Note_on_c, 0, 85, 60
2, 180968, Note_on_c, 0, 39, 0
2, 180972, Note_on_c, 0, 85, 0
2, 180984, Note_on_c, 0, 87, 0
2, 181000, Note_on_c, 0, 79, 74
2, 181076, Note_on_c, 0, 79, 0
2, 181084, Note_on_c, 0, 87, 65
2, 181092, Note_on_c, 0, 85, 43
2, 181116, Note_on_c, 0, 85, 0
2, 181160, Note_on_c, 0, 87, 0
2, 181172, Note_on_c, 0, 94, 77
2, 181176, Note_on_c, 0, 63, 58
2, 181208, Note_on_c, 0, 94, 0
2, 181416, Note_on_c, 0, 63, 0
2, 181420, Note_on_c, 0, 75, 71
2, 181428, Note_on_c, 0, 61, 42
2, 181432, Note_on_c, 0, 58, 39
2, 181432, Note_on_c, 0, 73, 60
2, 181440, Note_on_c, 0, 51, 45
2, 181476, Note_on_c, 0, 61, 0
2, 181484, Note_on_c, 0, 58, 0
2, 181500, Note_on_c, 0, 51, 0
2, 181596, Note_on_c, 0, 73, 0
2, 181620, Note_on_c, 0, 75, 0
2, 181684, Note_on_c, 0, 80, 73
2, 181700, Note_on_c, 0, 72, 59
2, 181700, Note_on_c, 0, 44, 56
2, 181716, Control_c, 0, 64, 56
2, 181728, Control_c, 0, 64, 0
2, 181776, Note_on_c, 0, 80, 0
2, 181788, Note_on_c, 0, 72, 0
2, 181804, Control_c, 0, 64, 72
2, 181816, Control_c, 0, 64, 127
2, 181892, Note_on_c, 0, 44, 0
2, 181948, Note_on_c, 0, 51, 54
2, 181956, Note_on_c, 0, 60, 70
2, 181988, Control_c, 0, 64, 104
2, 182000, Control_c, 0, 64, 88
2, 182012, Note_on_c, 0, 51, 0
2, 182012, Control_c, 0, 64, 72
2, 182020, Note_on_c, 0, 60, 0
2, 182032, Note_on_c, 0, 53, 68
2, 182032, Control_c, 0, 64, 56
2, 182036, Note_on_c, 0, 61, 71
2, 182056, Control_c, 0, 64, 40
2, 182064, Control_c, 0, 64, 24
2, 182076, Control_c, 0, 64, 0
2, 182084, Note_on_c, 0, 53, 0
2, 182120, Note_on_c, 0, 61, 0
2, 182120, Note_on_c, 0, 63, 67
2, 182120, Note_on_c, 0, 55, 70
2, 182168, Note_on_c, 0, 63, 0
2, 182196, Note_on_c, 0, 55, 0
2, 182200, Note_on_c, 0, 65, 74
2, 182208, Note_on_c, 0, 56, 64
2, 182260, Note_on_c, 0, 65, 0
2, 182288, Note_on_c, 0, 67, 79
2, 182288, Note_on_c, 0, 58, 57
2, 182292, Note_on_c, 0, 56, 0
2, 182352, Note_on_c, 0, 58, 0
2, 182356, Note_on_c, 0, 67, 0
2, 182368, Note_on_c, 0, 68, 70
2, 182376, Note_on_c, 0, 60, 68
2, 182452, Note_on_c, 0, 60, 0
2, 182456, Note_on_c, 0, 70, 73
2, 182460, Note_on_c, 0, 61, 62
2, 182492, Note_on_c, 0, 68, 0
2, 182508, Note_on_c, 0, 70, 0
2, 182532, Note_on_c, 0, 61, 0
2, 182536, Note_on_c, 0, 63, 47
2, 182548, Note_on_c, 0, 72, 82
2, 182608, Note_on_c, 0, 63, 0
2, 182620, Note_on_c, 0, 72, 0
2, 182620, Note_on_c, 0, 65, 59
2, 182624, Note_on_c, 0, 73, 75
2, 182680, Note_on_c, 0, 65, 0
2, 182696, Note_on_c, 0, 67, 64
2, 182700, Note_on_c, 0, 75, 74
2, 182708, Note_on_c, 0, 73, 0
2, 182748, Note_on_c, 0, 75, 0
2, 182768, Note_on_c, 0, 67, 0
2, 182776, Note_on_c, 0, 77, 84
2, 182784, Note_on_c, 0, 68, 53
2, 182840, Note_on_c, 0, 77, 0
2, 182848, Note_on_c, 0, 68, 0
2, 182864, Note_on_c, 0, 79, 86
2, 182864, Note_on_c, 0, 70, 65
2, 182928, Note_on_c, 0, 70, 0
2, 182936, Note_on_c, 0, 80, 82
2, 182952, Note_on_c, 0, 72, 74
2, 182968, Note_on_c, 0, 79, 0
2, 183024, Note_on_c, 0, 82, 73
2, 183032, Note_on_c, 0, 72, 0
2, 183032, Note_on_c, 0, 73, 71
2, 183052, Note_on_c, 0, 80, 0
2, 183060, Note_on_c, 0, 82, 0
2, 183096, Note_on_c, 0, 73, 0
2, 183108, Note_on_c, 0, 84, 66
2, 183116, Note_on_c, 0, 75, 71
2, 183172, Note_on_c, 0, 84, 0
2, 183200, Note_on_c, 0, 85, 83
2, 183208, Note_on_c, 0, 75, 0
2, 183220, Note_on_c, 0, 77, 77
2, 183300, Control_c, 0, 64, 24
2, 183312, Note_on_c, 0, 85, 0
2, 183312, Control_c, 0, 64, 72
2, 183324, Control_c, 0, 64, 127
2, 183408, Note_on_c, 0, 77, 0
2, 183444, Note_on_c, 0, 92, 78
2, 183448, Note_on_c, 0, 75, 63
2, 183452, Note_on_c, 0, 84, 79
2, 183492, Note_on_c, 0, 84, 0
2, 183504, Note_on_c, 0, 75, 0
2, 183524, Note_on_c, 0, 77, 70
2, 183528, Note_on_c, 0, 85, 76
2, 183580, Note_on_c, 0, 77, 0
2, 183596, Note_on_c, 0, 75, 64
2, 183612, Note_on_c, 0, 85, 0
2, 183616, Note_on_c, 0, 84, 80
2, 183672, Note_on_c, 0, 92, 0
2, 183680, Note_on_c, 0, 75, 0
2, 183684, Note_on_c, 0, 84, 0
2, 183692, Control_c, 0, 64, 72
2, 183696, Note_on_c, 0, 87, 74
2, 183696, Note_on_c, 0, 82, 58
2, 183704, Note_on_c, 0, 73, 58
2, 183704, Control_c, 0, 64, 24
2, 183712, Control_c, 0, 64, 0
2, 183744, Control_c, 0, 64, 40
2, 183756, Control_c, 0, 64, 72
2, 183768, Control_c, 0, 64, 127
2, 183784, Note_on_c, 0, 82, 0
2, 183788, Note_on_c, 0, 84, 78
2, 183856, Note_on_c, 0, 84, 0
2, 183860, Note_on_c, 0, 82, 69
2, 183900, Note_on_c, 0, 87, 0
2, 183924, Note_on_c, 0, 82, 0
2, 183948, Note_on_c, 0, 73, 0
2, 183948, Note_on_c, 0, 87, 47
2, 183948, Note_on_c, 0, 80, 79
2, 183952, Control_c, 0, 64, 88
2, 183964, Control_c, 0, 64, 40
2, 183972, Note_on_c, 0, 72, 56
2, 183972, Control_c, 0, 64, 24
2, 183984, Control_c, 0, 64, 40
2, 183996, Control_c, 0, 64, 72
2, 184008, Control_c, 0, 64, 104
2, 184016, Control_c, 0, 64, 127
2, 184024, Note_on_c, 0, 80, 0
2, 184032, Note_on_c, 0, 82, 64
2, 184092, Note_on_c, 0, 87, 0
2, 184108, Note_on_c, 0, 80, 73
2, 184112, Note_on_c, 0, 82, 0
2, 184156, Note_on_c, 0, 80, 0
2, 184192, Note_on_c, 0, 72, 0
2, 184200, Note_on_c, 0, 87, 77
2, 184200, Control_c, 0, 64, 56
2, 184204, Note_on_c, 0, 70, 48
2, 184208, Note_on_c, 0, 79, 82
2, 184212, Control_c, 0, 64, 0
2, 184252, Note_on_c, 0, 79, 0
2, 184256, Control_c, 0, 64, 40
2, 184268, Note_on_c, 0, 70, 0
2, 184268, Control_c, 0, 64, 88
2, 184276, Control_c, 0, 64, 127
2, 184288, Note_on_c, 0, 80, 76
2, 184288, Note_on_c, 0, 72, 60
2, 184344, Note_on_c, 0, 87, 0
2, 184348, Note_on_c, 0, 72, 0
2, 184348, Note_on_c, 0, 70, 45
2, 184372, Note_on_c, 0, 80, 0
2, 184372, Note_on_c, 0, 79, 82
2, 184420, Control_c, 0, 64, 88
2, 184428, Control_c, 0, 64, 40
2, 184440, Control_c, 0, 64, 0
2, 184444, Note_on_c, 0, 79, 0
2, 184456, Note_on_c, 0, 82, 76
2, 184460, Note_on_c, 0, 70, 0
2, 184460, Note_on_c, 0, 77, 76
2, 184464, Note_on_c, 0, 68, 51
2, 184472, Control_c, 0, 64, 40
2, 184484, Control_c, 0, 64, 72
2, 184496, Control_c, 0, 64, 127
2, 184528, Note_on_c, 0, 77, 0
2, 184540, Note_on_c, 0, 79, 76
2, 184600, Note_on_c, 0, 79, 0
2, 184616, Note_on_c, 0, 77, 74
2, 184636, Note_on_c, 0, 82, 0
2, 184668, Note_on_c, 0, 77, 0
2, 184688, Note_on_c, 0, 68, 0
2, 184716, Note_on_c, 0, 75, 68
2, 184732, Note_on_c, 0, 67, 48
2, 184744, Control_c, 0, 64, 72
2, 184756, Control_c, 0, 64, 0
2, 184840, Control_c, 0, 64, 56
2, 184852, Control_c, 0, 64, 127
2, 184884, Note_on_c, 0, 67, 0
2, 184892, Note_on_c, 0, 75, 0
2, 184988, Note_on_c, 0, 75, 77
2, 185004, Note_on_c, 0, 73, 35
2, 185024, Note_on_c, 0, 73, 0
2, 185048, Note_on_c, 0, 75, 0
2, 185060, Note_on_c, 0, 67, 75
2, 185124, Note_on_c, 0, 67, 0
2, 185148, Note_on_c, 0, 75, 69
2, 185232, Note_on_c, 0, 75, 0
2, 185236, Note_on_c, 0, 82, 81
2, 185280, Note_on_c, 0, 82, 0
2, 185468, Note_on_c, 0, 87, 82
2, 185472, Note_on_c, 0, 39, 53
2, 185476, Note_on_c, 0, 85, 69
2, 185528, Note_on_c, 0, 85, 0
2, 185540, Note_on_c, 0, 39, 0
2, 185540, Note_on_c, 0, 87, 0
2, 185552, Note_on_c, 0, 79, 70
2, 185632, Note_on_c, 0, 79, 0
2, 185640, Note_on_c, 0, 87, 77
2, 185656, Note_on_c, 0, 85, 50
2, 185704, Note_on_c, 0, 85, 0
2, 185712, Note_on_c, 0, 87, 0
2, 185728, Note_on_c, 0, 94, 78
2, 185736, Note_on_c, 0, 63, 62
2, 185776, Note_on_c, 0, 94, 0
2, 186000, Note_on_c, 0, 75, 72
2, 186008, Note_on_c, 0, 61, 37
2, 186020, Note_on_c, 0, 73, 45
2, 186020, Note_on_c, 0, 58, 39
2, 186028, Note_on_c, 0, 51, 44
2, 186040, Note_on_c, 0, 63, 0
2, 186064, Note_on_c, 0, 61, 0
2, 186068, Note_on_c, 0, 58, 0
2, 186076, Note_on_c, 0, 51, 0
2, 186244, Note_on_c, 0, 73, 0
2, 186264, Note_on_c, 0, 75, 0
2, 186268, Note_on_c, 0, 68, 70
2, 186272, Note_on_c, 0, 41, 60
2, 186296, Control_c, 0, 64, 56
2, 186304, Control_c, 0, 64, 0
2, 186344, Note_on_c, 0, 41, 0
2, 186380, Control_c, 0, 64, 88
2, 186392, Control_c, 0, 64, 127
2, 186492, Note_on_c, 0, 68, 0
2, 186524, Note_on_c, 0, 75, 67
2, 186528, Note_on_c, 0, 63, 74
2, 186536, Note_on_c, 0, 73, 45
2, 186564, Note_on_c, 0, 73, 0
2, 186588, Note_on_c, 0, 75, 0
2, 186600, Note_on_c, 0, 70, 68
2, 186672, Note_on_c, 0, 70, 0
2, 186684, Note_on_c, 0, 75, 62
2, 186692, Note_on_c, 0, 73, 45
2, 186732, Note_on_c, 0, 73, 0
2, 186784, Note_on_c, 0, 82, 75
2, 186792, Note_on_c, 0, 75, 0
2, 186800, Note_on_c, 0, 58, 40
2, 186800, Note_on_c, 0, 61, 38
2, 186816, Note_on_c, 0, 53, 38
2, 186820, Note_on_c, 0, 61, 0
2, 186828, Note_on_c, 0, 58, 0
2, 186832, Note_on_c, 0, 63, 0
2, 186836, Note_on_c, 0, 82, 0
2, 186844, Note_on_c, 0, 53, 0
2, 187036, Note_on_c, 0, 87, 78
2, 187040, Note_on_c, 0, 43, 66
2, 187044, Note_on_c, 0, 85, 65
2, 187048, Control_c, 0, 64, 40
2, 187060, Control_c, 0, 64, 0
2, 187096, Note_on_c, 0, 85, 0
2, 187100, Note_on_c, 0, 43, 0
2, 187112, Control_c, 0, 64, 56
2, 187116, Note_on_c, 0, 87, 0
2, 187124, Control_c, 0, 64, 127
2, 187128, Note_on_c, 0, 82, 75
2, 187216, Note_on_c, 0, 82, 0
2, 187216, Note_on_c, 0, 87, 72
2, 187220, Note_on_c, 0, 85, 50
2, 187276, Note_on_c, 0, 85, 0
2, 187296, Note_on_c, 0, 87, 0
2, 187304, Note_on_c, 0, 94, 82
2, 187308, Note_on_c, 0, 63, 73
2, 187340, Note_on_c, 0, 94, 0
2, 187552, Note_on_c, 0, 75, 72
2, 187556, Note_on_c, 0, 73, 60
2, 187560, Note_on_c, 0, 63, 0
2, 187560, Note_on_c, 0, 61, 50
2, 187568, Note_on_c, 0, 58, 47
2, 187576, Note_on_c, 0, 51, 47
2, 187604, Note_on_c, 0, 73, 0
2, 187616, Note_on_c, 0, 61, 0
2, 187620, Note_on_c, 0, 75, 0
2, 187620, Note_on_c, 0, 58, 0
2, 187636, Note_on_c, 0, 51, 0
2, 187820, Control_c, 0, 64, 72
2, 187824, Note_on_c, 0, 84, 83
2, 187828, Control_c, 0, 64, 0
2, 187832, Note_on_c, 0, 72, 61
2, 187836, Note_on_c, 0, 44, 69
2, 187876, Note_on_c, 0, 72, 0
2, 187896, Note_on_c, 0, 44, 0
2, 187896, Control_c, 0, 64, 56
2, 187904, Control_c, 0, 64, 127
2, 187920, Note_on_c, 0, 84, 0
2, 188092, Note_on_c, 0, 95, 83
2, 188112, Note_on_c, 0, 64, 70
2, 188116, Note_on_c, 0, 60, 52
2, 188120, Note_on_c, 0, 56, 38
2, 188160, Note_on_c, 0, 95, 0
2, 188180, Note_on_c, 0, 96, 82
2, 188264, Note_on_c, 0, 91, 83
2, 188284, Note_on_c, 0, 96, 0
2, 188348, Note_on_c, 0, 91, 0
2, 188356, Note_on_c, 0, 89, 82
2, 188380, Note_on_c, 0, 65, 77
2, 188388, Note_on_c, 0, 64, 0
2, 188412, Note_on_c, 0, 60, 0
2, 188416, Note_on_c, 0, 89, 0
2, 188420, Note_on_c, 0, 56, 0
2, 188436, Note_on_c, 0, 87, 71
2, 188516, Note_on_c, 0, 87, 0
2, 188516, Note_on_c, 0, 86, 82
2, 188592, Note_on_c, 0, 86, 0
2, 188608, Note_on_c, 0, 65, 0
2, 188628, Note_on_c, 0, 84, 72
2, 188644, Note_on_c, 0, 62, 66
2, 188644, Note_on_c, 0, 56, 46
2, 188652, Note_on_c, 0, 58, 43
2, 188708, Note_on_c, 0, 84, 0
2, 188728, Control_c, 0, 64, 56
2, 188736, Note_on_c, 0, 82, 61
2, 188740, Control_c, 0, 64, 0
2, 188796, Control_c, 0, 64, 40
2, 188808, Control_c, 0, 64, 104
2, 188812, Note_on_c, 0, 80, 73
2, 188816, Note_on_c, 0, 82, 0
2, 188816, Control_c, 0, 64, 127
2, 188896, Note_on_c, 0, 79, 79
2, 188900, Note_on_c, 0, 80, 0
2, 188952, Note_on_c, 0, 79, 0
2, 188956, Note_on_c, 0, 77, 76
2, 189000, Note_on_c, 0, 56, 0
2, 189020, Note_on_c, 0, 62, 0
2, 189032, Note_on_c, 0, 77, 0
2, 189032, Note_on_c, 0, 79, 72
2, 189084, Note_on_c, 0, 79, 0
2, 189104, Note_on_c, 0, 77, 70
2, 189164, Note_on_c, 0, 77, 0
2, 189164, Control_c, 0, 64, 104
2, 189176, Note_on_c, 0, 63, 64
2, 189176, Control_c, 0, 64, 24
2, 189184, Note_on_c, 0, 75, 72
2, 189184, Note_on_c, 0, 55, 57
2, 189184, Control_c, 0, 64, 0
2, 189212, Note_on_c, 0, 55, 0
2, 189216, Control_c, 0, 64, 24
2, 189228, Note_on_c, 0, 63, 0
2, 189232, Control_c, 0, 64, 72
2, 189240, Control_c, 0, 64, 127
2, 189244, Note_on_c, 0, 58, 0
2, 189264, Note_on_c, 0, 75, 0
2, 189276, Note_on_c, 0, 82, 71
2, 189332, Note_on_c, 0, 82, 0
2, 189348, Note_on_c, 0, 70, 61
2, 189396, Note_on_c, 0, 70, 0
2, 189444, Note_on_c, 0, 42, 70
2, 189448, Control_c, 0, 64, 72
2, 189456, Control_c, 0, 64, 0
2, 189492, Note_on_c, 0, 42, 0
2, 189500, Control_c, 0, 64, 56
2, 189512, Control_c, 0, 64, 127
2, 189672, Note_on_c, 0, 93, 82
2, 189692, Note_on_c, 0, 62, 68
2, 189696, Note_on_c, 0, 58, 56
2, 189700, Note_on_c, 0, 54, 56
2, 189744, Note_on_c, 0, 93, 0
2, 189764, Note_on_c, 0, 94, 71
2, 189840, Note_on_c, 0, 94, 0
2, 189844, Note_on_c, 0, 89, 78
2, 189912, Note_on_c, 0, 89, 0
2, 189924, Note_on_c, 0, 62, 0
2, 189936, Note_on_c, 0, 63, 75
2, 189940, Note_on_c, 0, 87, 71
2, 190024, Note_on_c, 0, 87, 0
2, 190028, Note_on_c, 0, 85, 73
2, 190060, Note_on_c, 0, 54, 0
2, 190072, Note_on_c, 0, 58, 0
2, 190100, Note_on_c, 0, 85, 0
2, 190108, Note_on_c, 0, 84, 76
2, 190124, Note_on_c, 0, 63, 0
2, 190160, Note_on_c, 0, 84, 0
2, 190208, Note_on_c, 0, 54, 52
2, 190208, Note_on_c, 0, 82, 55
2, 190212, Note_on_c, 0, 60, 63
2, 190216, Note_on_c, 0, 56, 55
2, 190236, Note_on_c, 0, 60, 0
2, 190280, Control_c, 0, 64, 56
2, 190292, Note_on_c, 0, 82, 0
2, 190292, Control_c, 0, 64, 0
2, 190296, Note_on_c, 0, 80, 60
2, 190348, Control_c, 0, 64, 40
2, 190356, Control_c, 0, 64, 127
2, 190384, Note_on_c, 0, 78, 67
2, 190392, Note_on_c, 0, 80, 0
2, 190452, Note_on_c, 0, 78, 0
2, 190468, Note_on_c, 0, 77, 63
2, 190488, Note_on_c, 0, 54, 0
2, 190520, Note_on_c, 0, 77, 0
2, 190532, Note_on_c, 0, 75, 65
2, 190600, Note_on_c, 0, 75, 0
2, 190608, Note_on_c, 0, 77, 53
2, 190664, Note_on_c, 0, 75, 67
2, 190672, Note_on_c, 0, 77, 0
2, 190724, Control_c, 0, 64, 88
2, 190732, Note_on_c, 0, 61, 65
2, 190736, Note_on_c, 0, 75, 0
2, 190736, Note_on_c, 0, 73, 69
2, 190736, Control_c, 0, 64, 0
2, 190744, Note_on_c, 0, 53, 54
2, 190792, Note_on_c, 0, 61, 0
2, 190792, Control_c, 0, 64, 56
2, 190796, Note_on_c, 0, 56, 0
2, 190800, Control_c, 0, 64, 127
2, 190804, Note_on_c, 0, 53, 0
2, 190808, Note_on_c, 0, 73, 0
2, 190824, Note_on_c, 0, 80, 65
2, 190892, Note_on_c, 0, 68, 67
2, 190924, Note_on_c, 0, 68, 0
2, 190940, Note_on_c, 0, 80, 0
2, 190996, Control_c, 0, 64, 56
2, 191000, Note_on_c, 0, 41, 72
2, 191008, Control_c, 0, 64, 0
2, 191060, Note_on_c, 0, 41, 0
2, 191060, Control_c, 0, 64, 56
2, 191072, Control_c, 0, 64, 127
2, 191228, Note_on_c, 0, 90, 77
2, 191252, Note_on_c, 0, 59, 68
2, 191256, Note_on_c, 0, 53, 56
2, 191264, Note_on_c, 0, 55, 51
2, 191292, Note_on_c, 0, 90, 0
2, 191324, Note_on_c, 0, 91, 82
2, 191376, Note_on_c, 0, 91, 0
2, 191404, Note_on_c, 0, 89, 81
2, 191476, Note_on_c, 0, 89, 0
2, 191488, Note_on_c, 0, 87, 75
2, 191508, Note_on_c, 0, 62, 74
2, 191576, Note_on_c, 0, 86, 79
2, 191588, Note_on_c, 0, 55, 0
2, 191592, Note_on_c, 0, 87, 0
2, 191604, Note_on_c, 0, 53, 0
2, 191644, Note_on_c, 0, 62, 0
2, 191648, Note_on_c, 0, 86, 0
2, 191660, Note_on_c, 0, 84, 80
2, 191672, Note_on_c, 0, 59, 0
2, 191716, Note_on_c, 0, 84, 0
2, 191764, Note_on_c, 0, 83, 76
2, 191768, Note_on_c, 0, 62, 81
2, 191776, Note_on_c, 0, 55, 65
2, 191776, Note_on_c, 0, 51, 61
2, 191832, Note_on_c, 0, 83, 0
2, 191832, Control_c, 0, 64, 72
2, 191840, Control_c, 0, 64, 0
2, 191860, Note_on_c, 0, 80, 69
2, 191928, Control_c, 0, 64, 72
2, 191940, Note_on_c, 0, 80, 0
2, 191940, Control_c, 0, 64, 127
2, 191948, Note_on_c, 0, 79, 72
2, 192016, Note_on_c, 0, 79, 0
2, 192032, Note_on_c, 0, 77, 72
2, 192092, Note_on_c, 0, 77, 0
2, 192108, Note_on_c, 0, 75, 68
2, 192188, Note_on_c, 0, 75, 0
2, 192200, Note_on_c, 0, 74, 77
2, 192212, Control_c, 0, 64, 88
2, 192224, Control_c, 0, 64, 0
2, 192268, Note_on_c, 0, 74, 0
2, 192268, Note_on_c, 0, 60, 54
2, 192276, Control_c, 0, 64, 24
2, 192284, Note_on_c, 0, 72, 78
2, 192288, Control_c, 0, 64, 88
2, 192296, Control_c, 0, 64, 127
2, 192300, Note_on_c, 0, 62, 0
2, 192312, Note_on_c, 0, 60, 0
2, 192320, Note_on_c, 0, 55, 0
2, 192348, Note_on_c, 0, 51, 0
2, 192356, Note_on_c, 0, 72, 0
2, 192372, Note_on_c, 0, 79, 73
2, 192436, Note_on_c, 0, 79, 0
2, 192464, Note_on_c, 0, 67, 47
2, 192512, Note_on_c, 0, 67, 0
2, 192536, Control_c, 0, 64, 56
2, 192544, Note_on_c, 0, 56, 62
2, 192548, Note_on_c, 0, 72, 85
2, 192548, Note_on_c, 0, 44, 56
2, 192548, Control_c, 0, 64, 0
2, 192592, Control_c, 0, 64, 24
2, 192604, Control_c, 0, 64, 88
2, 192612, Control_c, 0, 64, 127
2, 192616, Note_on_c, 0, 72, 0
2, 192628, Note_on_c, 0, 79, 70
2, 192688, Note_on_c, 0, 79, 0
2, 192700, Note_on_c, 0, 67, 69
2, 192760, Note_on_c, 0, 67, 0
2, 192788, Control_c, 0, 64, 72
2, 192792, Note_on_c, 0, 72, 81
2, 192796, Control_c, 0, 64, 24
2, 192828, Control_c, 0, 64, 88
2, 192840, Control_c, 0, 64, 127
2, 192860, Note_on_c, 0, 72, 0
2, 192876, Note_on_c, 0, 77, 78
2, 192928, Note_on_c, 0, 44, 0
2, 192932, Note_on_c, 0, 77, 0
2, 192948, Note_on_c, 0, 65, 69
2, 192976, Note_on_c, 0, 56, 0
2, 193016, Control_c, 0, 64, 72
2, 193024, Control_c, 0, 64, 0
2, 193036, Note_on_c, 0, 65, 0
2, 193036, Note_on_c, 0, 67, 76
2, 193048, Note_on_c, 0, 55, 68
2, 193056, Note_on_c, 0, 43, 60
2, 193056, Control_c, 0, 64, 24
2, 193068, Control_c, 0, 64, 56
2, 193080, Control_c, 0, 64, 104
2, 193088, Control_c, 0, 64, 127
2, 193108, Note_on_c, 0, 67, 0
2, 193116, Note_on_c, 0, 75, 68
2, 193152, Note_on_c, 0, 43, 0
2, 193156, Note_on_c, 0, 55, 0
2, 193184, Note_on_c, 0, 75, 0
2, 193192, Note_on_c, 0, 63, 65
2, 193256, Note_on_c, 0, 63, 0
2, 193280, Note_on_c, 0, 68, 70
2, 193296, Control_c, 0, 64, 40
2, 193300, Note_on_c, 0, 53, 64
2, 193304, Note_on_c, 0, 41, 61
2, 193308, Control_c, 0, 64, 0
2, 193356, Note_on_c, 0, 68, 0
2, 193364, Note_on_c, 0, 75, 75
2, 193372, Control_c, 0, 64, 56
2, 193384, Control_c, 0, 64, 104
2, 193392, Control_c, 0, 64, 127
2, 193440, Note_on_c, 0, 75, 0
2, 193448, Note_on_c, 0, 63, 65
2, 193528, Note_on_c, 0, 68, 65
2, 193532, Note_on_c, 0, 63, 0
2, 193604, Note_on_c, 0, 68, 0
2, 193612, Note_on_c, 0, 74, 74
2, 193676, Note_on_c, 0, 74, 0
2, 193680, Note_on_c, 0, 41, 0
2, 193696, Note_on_c, 0, 62, 72
2, 193716, Note_on_c, 0, 53, 0
2, 193764, Note_on_c, 0, 62, 0
2, 193776, Note_on_c, 0, 68, 75
2, 193784, Control_c, 0, 64, 72
2, 193792, Note_on_c, 0, 53, 63
2, 193796, Control_c, 0, 64, 0
2, 193808, Note_on_c, 0, 41, 57
2, 193828, Control_c, 0, 64, 24
2, 193840, Control_c, 0, 64, 56
2, 193848, Control_c, 0, 64, 104
2, 193860, Note_on_c, 0, 68, 0
2, 193860, Control_c, 0, 64, 127
2, 193868, Note_on_c, 0, 72, 78
2, 193932, Note_on_c, 0, 72, 0
2, 193948, Note_on_c, 0, 60, 75
2, 193952, Note_on_c, 0, 41, 0
2, 193956, Note_on_c, 0, 53, 0
2, 194000, Note_on_c, 0, 60, 0
2, 194012, Control_c, 0, 64, 72
2, 194024, Control_c, 0, 64, 24
2, 194028, Note_on_c, 0, 53, 59
2, 194036, Note_on_c, 0, 41, 57
2, 194036, Control_c, 0, 64, 0
2, 194044, Note_on_c, 0, 68, 76
2, 194044, Control_c, 0, 64, 24
2, 194056, Control_c, 0, 64, 56
2, 194064, Note_on_c, 0, 53, 0
2, 194068, Control_c, 0, 64, 88
2, 194076, Control_c, 0, 64, 127
2, 194096, Note_on_c, 0, 41, 0
2, 194112, Note_on_c, 0, 68, 0
2, 194132, Note_on_c, 0, 72, 74
2, 194184, Note_on_c, 0, 72, 0
2, 194204, Note_on_c, 0, 60, 64
2, 194252, Note_on_c, 0, 60, 0
2, 194284, Control_c, 0, 64, 88
2, 194296, Note_on_c, 0, 68, 77
2, 194296, Note_on_c, 0, 47, 61
2, 194296, Control_c, 0, 64, 0
2, 194300, Note_on_c, 0, 35, 56
2, 194328, Control_c, 0, 64, 40
2, 194336, Control_c, 0, 64, 88
2, 194348, Note_on_c, 0, 68, 0
2, 194348, Control_c, 0, 64, 127
2, 194368, Note_on_c, 0, 35, 0
2, 194372, Note_on_c, 0, 74, 78
2, 194404, Note_on_c, 0, 47, 0
2, 194432, Note_on_c, 0, 74, 0
2, 194464, Note_on_c, 0, 77, 88
2, 194528, Note_on_c, 0, 77, 0
2, 194532, Control_c, 0, 64, 40
2, 194544, Control_c, 0, 64, 0
2, 194548, Note_on_c, 0, 75, 73
2, 194552, Note_on_c, 0, 48, 70
2, 194556, Note_on_c, 0, 36, 58
2, 194576, Control_c, 0, 64, 56
2, 194588, Control_c, 0, 64, 104
2, 194600, Note_on_c, 0, 36, 0
2, 194600, Control_c, 0, 64, 127
2, 194624, Note_on_c, 0, 48, 0
2, 194624, Note_on_c, 0, 75, 0
2, 194628, Note_on_c, 0, 72, 75
2, 194672, Note_on_c, 0, 72, 0
2, 194700, Note_on_c, 0, 63, 73
2, 194756, Note_on_c, 0, 63, 0
2, 194784, Control_c, 0, 64, 72
2, 194792, Control_c, 0, 64, 0
2, 194796, Note_on_c, 0, 70, 72
2, 194800, Note_on_c, 0, 55, 65
2, 194812, Note_on_c, 0, 43, 60
2, 194824, Control_c, 0, 64, 56
2, 194836, Control_c, 0, 64, 104
2, 194840, Note_on_c, 0, 55, 0
2, 194848, Control_c, 0, 64, 127
2, 194860, Note_on_c, 0, 43, 0
2, 194860, Note_on_c, 0, 70, 0
2, 194880, Note_on_c, 0, 74, 71
2, 194932, Note_on_c, 0, 74, 0
2, 194956, Note_on_c, 0, 62, 64
2, 195012, Note_on_c, 0, 62, 0
2, 195032, Control_c, 0, 64, 40
2, 195044, Note_on_c, 0, 70, 81
2, 195044, Control_c, 0, 64, 0
2, 195056, Note_on_c, 0, 49, 72
2, 195064, Note_on_c, 0, 37, 65
2, 195084, Control_c, 0, 64, 40
2, 195096, Control_c, 0, 64, 104
2, 195108, Note_on_c, 0, 70, 0
2, 195108, Control_c, 0, 64, 127
2, 195128, Note_on_c, 0, 76, 83
2, 195192, Note_on_c, 0, 76, 0
2, 195220, Note_on_c, 0, 79, 82
2, 195224, Note_on_c, 0, 37, 0
2, 195240, Note_on_c, 0, 49, 0
2, 195260, Control_c, 0, 64, 56
2, 195272, Control_c, 0, 64, 0
2, 195276, Note_on_c, 0, 79, 0
2, 195300, Note_on_c, 0, 77, 81
2, 195312, Note_on_c, 0, 50, 71
2, 195312, Note_on_c, 0, 38, 62
2, 195336, Note_on_c, 0, 38, 0
2, 195336, Control_c, 0, 64, 72
2, 195348, Control_c, 0, 64, 127
2, 195372, Note_on_c, 0, 50, 0
2, 195380, Note_on_c, 0, 77, 0
2, 195380, Note_on_c, 0, 74, 70
2, 195440, Note_on_c, 0, 74, 0
2, 195464, Note_on_c, 0, 65, 66
2, 195516, Note_on_c, 0, 65, 0
2, 195532, Control_c, 0, 64, 56
2, 195540, Control_c, 0, 64, 0
2, 195552, Note_on_c, 0, 57, 68
2, 195556, Note_on_c, 0, 72, 88
2, 195568, Note_on_c, 0, 45, 48
2, 195584, Control_c, 0, 64, 56
2, 195596, Control_c, 0, 64, 104
2, 195604, Note_on_c, 0, 45, 0
2, 195604, Note_on_c, 0, 57, 0
2, 195608, Control_c, 0, 64, 127
2, 195624, Note_on_c, 0, 72, 0
2, 195640, Note_on_c, 0, 76, 79
2, 195716, Note_on_c, 0, 76, 0
2, 195732, Note_on_c, 0, 64, 73
2, 195792, Note_on_c, 0, 64, 0
2, 195792, Control_c, 0, 64, 56
2, 195804, Control_c, 0, 64, 0
2, 195808, Note_on_c, 0, 51, 76
2, 195808, Note_on_c, 0, 72, 83
2, 195812, Note_on_c, 0, 39, 60
2, 195824, Control_c, 0, 64, 40
2, 195836, Control_c, 0, 64, 88
2, 195844, Control_c, 0, 64, 127
2, 195880, Note_on_c, 0, 72, 0
2, 195896, Note_on_c, 0, 78, 75
2, 195936, Note_on_c, 0, 39, 0
2, 195956, Note_on_c, 0, 78, 0
2, 195968, Note_on_c, 0, 51, 0
2, 195984, Note_on_c, 0, 81, 79
2, 196036, Note_on_c, 0, 81, 0
2, 196052, Control_c, 0, 64, 104
2, 196064, Control_c, 0, 64, 24
2, 196072, Note_on_c, 0, 79, 82
2, 196072, Note_on_c, 0, 40, 62
2, 196072, Note_on_c, 0, 52, 64
2, 196072, Control_c, 0, 64, 0
2, 196108, Control_c, 0, 64, 40
2, 196116, Control_c, 0, 64, 88
2, 196120, Note_on_c, 0, 40, 0
2, 196128, Control_c, 0, 64, 127
2, 196152, Note_on_c, 0, 76, 72
2, 196156, Note_on_c, 0, 52, 0
2, 196156, Note_on_c, 0, 79, 0
2, 196204, Note_on_c, 0, 76, 0
2, 196228, Note_on_c, 0, 67, 66
2, 196272, Note_on_c, 0, 67, 0
2, 196316, Note_on_c, 0, 61, 59
2, 196320, Note_on_c, 0, 54, 51
2, 196320, Note_on_c, 0, 64, 59
2, 196324, Note_on_c, 0, 66, 78
2, 196332, Control_c, 0, 64, 72
2, 196344, Control_c, 0, 64, 0
2, 196384, Note_on_c, 0, 66, 0
2, 196408, Note_on_c, 0, 70, 74
2, 196408, Control_c, 0, 64, 56
2, 196420, Control_c, 0, 64, 127
2, 196488, Note_on_c, 0, 73, 70
2, 196500, Note_on_c, 0, 70, 0
2, 196584, Note_on_c, 0, 76, 68
2, 196616, Note_on_c, 0, 73, 0
2, 196628, Note_on_c, 0, 76, 0
2, 196672, Note_on_c, 0, 78, 73
2, 196728, Note_on_c, 0, 78, 0
2, 196748, Note_on_c, 0, 64, 0
2, 196748, Note_on_c, 0, 82, 67
2, 196808, Note_on_c, 0, 82, 0
2, 196816, Note_on_c, 0, 54, 0
2, 196820, Note_on_c, 0, 61, 0
2, 196836, Note_on_c, 0, 83, 83
2, 196844, Note_on_c, 0, 62, 63
2, 196844, Control_c, 0, 64, 104
2, 196856, Control_c, 0, 64, 24
2, 196860, Note_on_c, 0, 59, 50
2, 196864, Control_c, 0, 64, 0
2, 196908, Note_on_c, 0, 83, 0
2, 196916, Note_on_c, 0, 78, 73
2, 196920, Control_c, 0, 64, 56
2, 196928, Note_on_c, 0, 59, 0
2, 196928, Control_c, 0, 64, 127
2, 196932, Note_on_c, 0, 62, 0
2, 196988, Note_on_c, 0, 78, 0
2, 197004, Note_on_c, 0, 71, 63
2, 197060, Control_c, 0, 64, 88
2, 197072, Control_c, 0, 64, 0
2, 197076, Note_on_c, 0, 71, 0
2, 197100, Note_on_c, 0, 74, 75
2, 197100, Note_on_c, 0, 59, 68
2, 197104, Note_on_c, 0, 47, 60
2, 197124, Control_c, 0, 64, 24
2, 197136, Control_c, 0, 64, 72
2, 197148, Control_c, 0, 64, 127
2, 197156, Note_on_c, 0, 59, 0
2, 197160, Note_on_c, 0, 47, 0
2, 197168, Note_on_c, 0, 78, 69
2, 197172, Note_on_c, 0, 74, 0
2, 197236, Note_on_c, 0, 78, 0
2, 197248, Note_on_c, 0, 66, 69
2, 197296, Note_on_c, 0, 66, 0
2, 197332, Control_c, 0, 64, 72
2, 197340, Note_on_c, 0, 74, 81
2, 197344, Control_c, 0, 64, 0
2, 197360, Note_on_c, 0, 53, 70
2, 197364, Note_on_c, 0, 41, 60
2, 197396, Control_c, 0, 64, 40
2, 197400, Note_on_c, 0, 74, 0
2, 197408, Control_c, 0, 64, 104
2, 197416, Note_on_c, 0, 80, 72
2, 197420, Control_c, 0, 64, 127
2, 197468, Note_on_c, 0, 53, 0
2, 197484, Note_on_c, 0, 80, 0
2, 197508, Note_on_c, 0, 83, 82
2, 197524, Note_on_c, 0, 41, 0
2, 197568, Note_on_c, 0, 83, 0
2, 197580, Control_c, 0, 64, 56
2, 197592, Control_c, 0, 64, 0
2, 197600, Note_on_c, 0, 81, 74
2, 197600, Note_on_c, 0, 54, 69
2, 197600, Note_on_c, 0, 42, 57
2, 197624, Control_c, 0, 64, 40
2, 197636, Control_c, 0, 64, 88
2, 197640, Note_on_c, 0, 42, 0
2, 197644, Control_c, 0, 64, 127
2, 197660, Note_on_c, 0, 54, 0
2, 197668, Note_on_c, 0, 81, 0
2, 197668, Note_on_c, 0, 78, 67
2, 197736, Note_on_c, 0, 78, 0
2, 197752, Note_on_c, 0, 69, 70
2, 197808, Control_c, 0, 64, 88
2, 197816, Note_on_c, 0, 69, 0
2, 197820, Control_c, 0, 64, 0
2, 197840, Note_on_c, 0, 61, 81
2, 197848, Note_on_c, 0, 76, 80
2, 197852, Note_on_c, 0, 49, 61
2, 197864, Control_c, 0, 64, 24
2, 197872, Control_c, 0, 64, 72
2, 197884, Control_c, 0, 64, 127
2, 197900, Note_on_c, 0, 61, 0
2, 197904, Note_on_c, 0, 49, 0
2, 197928, Note_on_c, 0, 80, 73
2, 197932, Note_on_c, 0, 76, 0
2, 198028, Note_on_c, 0, 68, 65
2, 198032, Note_on_c, 0, 80, 0
2, 198080, Control_c, 0, 64, 104
2, 198092, Note_on_c, 0, 55, 86
2, 198092, Control_c, 0, 64, 40
2, 198096, Note_on_c, 0, 43, 79
2, 198100, Control_c, 0, 64, 0
2, 198108, Note_on_c, 0, 68, 0
2, 198112, Note_on_c, 0, 76, 73
2, 198136, Control_c, 0, 64, 24
2, 198144, Control_c, 0, 64, 72
2, 198156, Control_c, 0, 64, 127
2, 198180, Note_on_c, 0, 76, 0
2, 198192, Note_on_c, 0, 82, 70
2, 198244, Note_on_c, 0, 82, 0
2, 198248, Note_on_c, 0, 55, 0
2, 198272, Note_on_c, 0, 85, 72
2, 198292, Note_on_c, 0, 43, 0
2, 198320, Note_on_c, 0, 85, 0
2, 198340, Control_c, 0, 64, 72
2, 198352, Note_on_c, 0, 56, 71
2, 198352, Note_on_c, 0, 44, 67
2, 198352, Control_c, 0, 64, 0
2, 198360, Note_on_c, 0, 83, 83
2, 198384, Control_c, 0, 64, 40
2, 198396, Control_c, 0, 64, 88
2, 198404, Control_c, 0, 64, 127
2, 198424, Note_on_c, 0, 44, 0
2, 198440, Note_on_c, 0, 56, 0
2, 198448, Note_on_c, 0, 80, 71
2, 198508, Note_on_c, 0, 80, 0
2, 198512, Note_on_c, 0, 83, 0
2, 198524, Note_on_c, 0, 71, 62
2, 198572, Note_on_c, 0, 71, 0
2, 198580, Control_c, 0, 64, 88
2, 198592, Control_c, 0, 64, 0
2, 198600, Note_on_c, 0, 63, 73
2, 198608, Note_on_c, 0, 78, 81
2, 198616, Note_on_c, 0, 51, 58
2, 198632, Control_c, 0, 64, 24
2, 198644, Control_c, 0, 64, 88
2, 198656, Control_c, 0, 64, 127
2, 198664, Note_on_c, 0, 63, 0
2, 198668, Note_on_c, 0, 51, 0
2, 198680, Note_on_c, 0, 78, 0
2, 198692, Note_on_c, 0, 82, 65
2, 198752, Note_on_c, 0, 82, 0
2, 198764, Note_on_c, 0, 70, 77
2, 198820, Note_on_c, 0, 70, 0
2, 198840, Control_c, 0, 64, 104
2, 198852, Note_on_c, 0, 78, 82
2, 198852, Control_c, 0, 64, 40
2, 198856, Note_on_c, 0, 57, 73
2, 198860, Control_c, 0, 64, 0
2, 198864, Note_on_c, 0, 45, 65
2, 198888, Note_on_c, 0, 45, 0
2, 198892, Control_c, 0, 64, 56
2, 198904, Control_c, 0, 64, 104
2, 198916, Note_on_c, 0, 78, 0
2, 198916, Control_c, 0, 64, 127
2, 198936, Note_on_c, 0, 84, 74
2, 198968, Note_on_c, 0, 57, 0
2, 199000, Note_on_c, 0, 84, 0
2, 199028, Note_on_c, 0, 87, 59
2, 199036, Note_on_c, 0, 85, 39
2, 199060, Note_on_c, 0, 85, 0
2, 199060, Note_on_c, 0, 87, 0
2, 199100, Control_c, 0, 64, 104
2, 199112, Note_on_c, 0, 85, 77
2, 199112, Control_c, 0, 64, 24
2, 199116, Note_on_c, 0, 58, 71
2, 199120, Note_on_c, 0, 46, 67
2, 199120, Control_c, 0, 64, 0
2, 199152, Control_c, 0, 64, 24
2, 199164, Control_c, 0, 64, 72
2, 199176, Control_c, 0, 64, 127
2, 199188, Note_on_c, 0, 82, 61
2, 199200, Note_on_c, 0, 46, 0
2, 199208, Note_on_c, 0, 85, 0
2, 199228, Note_on_c, 0, 58, 0
2, 199248, Note_on_c, 0, 82, 0
2, 199256, Note_on_c, 0, 73, 67
2, 199320, Note_on_c, 0, 73, 0
2, 199364, Note_on_c, 0, 72, 83
2, 199380, Control_c, 0, 64, 104
2, 199388, Note_on_c, 0, 70, 47
2, 199392, Control_c, 0, 64, 0
2, 199396, Note_on_c, 0, 60, 55
2, 199396, Note_on_c, 0, 67, 37
2, 199448, Note_on_c, 0, 76, 82
2, 199456, Note_on_c, 0, 72, 0
2, 199480, Control_c, 0, 64, 56
2, 199488, Control_c, 0, 64, 104
2, 199500, Control_c, 0, 64, 127
2, 199536, Note_on_c, 0, 79, 78
2, 199544, Note_on_c, 0, 76, 0
2, 199576, Note_on_c, 0, 79, 0
2, 199620, Note_on_c, 0, 84, 85
2, 199684, Note_on_c, 0, 70, 0
2, 199688, Note_on_c, 0, 84, 0
2, 199696, Note_on_c, 0, 88, 72
2, 199768, Note_on_c, 0, 88, 0
2, 199776, Note_on_c, 0, 60, 0
2, 199776, Note_on_c, 0, 91, 72
2, 199820, Note_on_c, 0, 91, 0
2, 199828, Note_on_c, 0, 67, 0
2, 199852, Note_on_c, 0, 89, 87
2, 199852, Note_on_c, 0, 68, 58
2, 199856, Control_c, 0, 64, 88
2, 199864, Note_on_c, 0, 65, 58
2, 199872, Control_c, 0, 64, 24
2, 199880, Control_c, 0, 64, 0
2, 199920, Note_on_c, 0, 89, 0
2, 199924, Control_c, 0, 64, 72
2, 199928, Note_on_c, 0, 96, 82
2, 199936, Control_c, 0, 64, 127
2, 199940, Note_on_c, 0, 65, 0
2, 199964, Note_on_c, 0, 68, 0
2, 200000, Note_on_c, 0, 96, 0
2, 200008, Note_on_c, 0, 84, 80
2, 200048, Note_on_c, 0, 84, 0
2, 200116, Control_c, 0, 64, 56
2, 200120, Note_on_c, 0, 95, 89
2, 200128, Note_on_c, 0, 89, 74
2, 200132, Control_c, 0, 64, 0
2, 200144, Note_on_c, 0, 73, 57
2, 200148, Note_on_c, 0, 85, 64
2, 200152, Note_on_c, 0, 89, 0
2, 200172, Control_c, 0, 64, 24
2, 200184, Control_c, 0, 64, 88
2, 200196, Control_c, 0, 64, 127
2, 200216, Note_on_c, 0, 91, 87
2, 200240, Note_on_c, 0, 85, 0
2, 200248, Note_on_c, 0, 95, 0
2, 200256, Note_on_c, 0, 73, 0
2, 200296, Note_on_c, 0, 89, 75
2, 200300, Note_on_c, 0, 91, 0
2, 200348, Note_on_c, 0, 89, 0
2, 200368, Control_c, 0, 64, 56
2, 200372, Note_on_c, 0, 96, 88
2, 200376, Note_on_c, 0, 84, 68
2, 200380, Control_c, 0, 64, 0
2, 200392, Note_on_c, 0, 89, 48
2, 200396, Note_on_c, 0, 73, 25
2, 200400, Note_on_c, 0, 88, 40
2, 200400, Note_on_c, 0, 72, 38
2, 200420, Note_on_c, 0, 89, 0
2, 200424, Control_c, 0, 64, 40
2, 200432, Control_c, 0, 64, 104
2, 200444, Note_on_c, 0, 88, 0
2, 200444, Control_c, 0, 64, 127
2, 200456, Note_on_c, 0, 84, 0
2, 200480, Note_on_c, 0, 91, 66
2, 200484, Note_on_c, 0, 72, 0
2, 200528, Note_on_c, 0, 91, 0
2, 200532, Note_on_c, 0, 73, 0
2, 200532, Note_on_c, 0, 88, 71
2, 200552, Note_on_c, 0, 96, 0
2, 200580, Note_on_c, 0, 88, 0
2, 200628, Control_c, 0, 64, 56
2, 200632, Note_on_c, 0, 93, 74
2, 200636, Note_on_c, 0, 87, 79
2, 200640, Note_on_c, 0, 77, 68
2, 200640, Control_c, 0, 64, 0
2, 200672, Control_c, 0, 64, 24
2, 200684, Control_c, 0, 64, 72
2, 200696, Control_c, 0, 64, 127
2, 200700, Note_on_c, 0, 87, 0
2, 200704, Note_on_c, 0, 77, 0
2, 200724, Note_on_c, 0, 89, 83
2, 200724, Note_on_c, 0, 84, 56
2, 200792, Note_on_c, 0, 84, 0
2, 200796, Note_on_c, 0, 87, 62
2, 200808, Note_on_c, 0, 89, 0
2, 200808, Note_on_c, 0, 77, 60
2, 200824, Note_on_c, 0, 77, 0
2, 200840, Note_on_c, 0, 93, 0
2, 200856, Note_on_c, 0, 87, 0
2, 200884, Note_on_c, 0, 94, 82
2, 200888, Note_on_c, 0, 82, 60
2, 200892, Note_on_c, 0, 86, 77
2, 200900, Note_on_c, 0, 70, 50
2, 200900, Control_c, 0, 64, 72
2, 200912, Control_c, 0, 64, 24
2, 200924, Control_c, 0, 64, 0
2, 200932, Control_c, 0, 64, 40
2, 200944, Control_c, 0, 64, 72
2, 200956, Control_c, 0, 64, 127
2, 200964, Note_on_c, 0, 86, 0
2, 200980, Note_on_c, 0, 89, 61
2, 201032, Note_on_c, 0, 89, 0
2, 201036, Note_on_c, 0, 94, 0
2, 201036, Note_on_c, 0, 86, 69
2, 201088, Note_on_c, 0, 86, 0
2, 201096, Note_on_c, 0, 82, 0
2, 201100, Note_on_c, 0, 70, 0
2, 201128, Note_on_c, 0, 85, 76
2, 201128, Note_on_c, 0, 91, 81
2, 201128, Control_c, 0, 64, 88
2, 201140, Control_c, 0, 64, 24
2, 201144, Note_on_c, 0, 75, 71
2, 201152, Control_c, 0, 64, 0
2, 201172, Control_c, 0, 64, 24
2, 201184, Control_c, 0, 64, 56
2, 201192, Note_on_c, 0, 85, 0
2, 201192, Control_c, 0, 64, 127
2, 201208, Note_on_c, 0, 75, 0
2, 201220, Note_on_c, 0, 87, 71
2, 201228, Note_on_c, 0, 82, 59
2, 201236, Note_on_c, 0, 91, 0
2, 201296, Note_on_c, 0, 85, 77
2, 201304, Note_on_c, 0, 87, 0
2, 201312, Note_on_c, 0, 82, 0
2, 201316, Note_on_c, 0, 75, 70
2, 201364, Note_on_c, 0, 75, 0
2, 201368, Note_on_c, 0, 85, 0
2, 201388, Note_on_c, 0, 80, 62
2, 201388, Control_c, 0, 64, 40
2, 201392, Note_on_c, 0, 92, 84
2, 201396, Note_on_c, 0, 84, 82
2, 201400, Control_c, 0, 64, 0
2, 201408, Note_on_c, 0, 68, 63
2, 201444, Control_c, 0, 64, 56
2, 201452, Control_c, 0, 64, 127
2, 201460, Note_on_c, 0, 84, 0
2, 201476, Note_on_c, 0, 87, 69
2, 201556, Note_on_c, 0, 84, 64
2, 201580, Note_on_c, 0, 80, 0
2, 201584, Note_on_c, 0, 68, 0
2, 201588, Note_on_c, 0, 87, 0
2, 201592, Note_on_c, 0, 92, 0
2, 201608, Note_on_c, 0, 84, 0
2, 201636, Control_c, 0, 64, 104
2, 201648, Control_c, 0, 64, 24
2, 201656, Note_on_c, 0, 89, 77
2, 201656, Note_on_c, 0, 73, 72
2, 201660, Control_c, 0, 64, 0
2, 201664, Note_on_c, 0, 83, 73
2, 201704, Control_c, 0, 64, 56
2, 201708, Note_on_c, 0, 73, 0
2, 201712, Control_c, 0, 64, 88
2, 201724, Note_on_c, 0, 83, 0
2, 201724, Control_c, 0, 64, 127
2, 201732, Note_on_c, 0, 80, 58
2, 201752, Note_on_c, 0, 85, 68
2, 201804, Note_on_c, 0, 80, 0
2, 201812, Note_on_c, 0, 73, 61
2, 201820, Note_on_c, 0, 89, 0
2, 201824, Note_on_c, 0, 83, 66
2, 201832, Note_on_c, 0, 85, 0
2, 201868, Note_on_c, 0, 73, 0
2, 201880, Note_on_c, 0, 83, 0
2, 201904, Note_on_c, 0, 78, 68
2, 201908, Note_on_c, 0, 90, 77
2, 201908, Control_c, 0, 64, 88
2, 201916, Note_on_c, 0, 82, 77
2, 201920, Note_on_c, 0, 66, 54
2, 201920, Control_c, 0, 64, 24
2, 201932, Control_c, 0, 64, 0
2, 201964, Control_c, 0, 64, 24
2, 201976, Control_c, 0, 64, 72
2, 201984, Control_c, 0, 64, 127
2, 201992, Note_on_c, 0, 82, 0
2, 202004, Note_on_c, 0, 85, 61
2, 202076, Note_on_c, 0, 82, 61
2, 202084, Note_on_c, 0, 85, 0
2, 202112, Note_on_c, 0, 90, 0
2, 202124, Note_on_c, 0, 66, 0
2, 202124, Note_on_c, 0, 78, 0
2, 202144, Note_on_c, 0, 82, 0
2, 202160, Control_c, 0, 64, 56
2, 202164, Note_on_c, 0, 87, 74
2, 202168, Note_on_c, 0, 81, 71
2, 202168, Control_c, 0, 64, 0
2, 202176, Note_on_c, 0, 71, 62
2, 202204, Control_c, 0, 64, 40
2, 202212, Control_c, 0, 64, 88
2, 202216, Note_on_c, 0, 81, 0
2, 202224, Control_c, 0, 64, 127
2, 202232, Note_on_c, 0, 71, 0
2, 202256, Note_on_c, 0, 78, 64
2, 202268, Note_on_c, 0, 83, 52
2, 202272, Note_on_c, 0, 87, 0
2, 202340, Note_on_c, 0, 83, 0
2, 202344, Note_on_c, 0, 81, 66
2, 202348, Note_on_c, 0, 78, 0
2, 202356, Note_on_c, 0, 71, 41
2, 202380, Note_on_c, 0, 71, 0
2, 202384, Note_on_c, 0, 81, 0
2, 202420, Control_c, 0, 64, 88
2, 202424, Note_on_c, 0, 88, 81
2, 202424, Note_on_c, 0, 76, 70
2, 202432, Control_c, 0, 64, 24
2, 202436, Note_on_c, 0, 64, 69
2, 202436, Note_on_c, 0, 80, 71
2, 202440, Control_c, 0, 64, 0
2, 202472, Control_c, 0, 64, 40
2, 202484, Control_c, 0, 64, 88
2, 202496, Note_on_c, 0, 80, 0
2, 202496, Control_c, 0, 64, 127
2, 202520, Note_on_c, 0, 83, 78
2, 202536, Note_on_c, 0, 88, 0
2, 202584, Note_on_c, 0, 80, 65
2, 202608, Note_on_c, 0, 83, 0
2, 202624, Note_on_c, 0, 76, 0
2, 202636, Note_on_c, 0, 64, 0
2, 202648, Note_on_c, 0, 80, 0
2, 202668, Control_c, 0, 64, 104
2, 202676, Note_on_c, 0, 85, 71
2, 202680, Note_on_c, 0, 69, 62
2, 202680, Control_c, 0, 64, 56
2, 202688, Note_on_c, 0, 79, 76
2, 202692, Control_c, 0, 64, 0
2, 202724, Control_c, 0, 64, 72
2, 202736, Control_c, 0, 64, 127
2, 202748, Note_on_c, 0, 79, 0
2, 202752, Note_on_c, 0, 69, 0
2, 202764, Note_on_c, 0, 81, 73
2, 202772, Note_on_c, 0, 76, 60
2, 202780, Note_on_c, 0, 85, 0
2, 202836, Note_on_c, 0, 81, 0
2, 202840, Note_on_c, 0, 79, 78
2, 202844, Note_on_c, 0, 76, 0
2, 202856, Note_on_c, 0, 69, 45
2, 202880, Note_on_c, 0, 69, 0
2, 202900, Note_on_c, 0, 79, 0
2, 202932, Note_on_c, 0, 86, 82
2, 202932, Note_on_c, 0, 74, 63
2, 202940, Note_on_c, 0, 78, 73
2, 202940, Control_c, 0, 64, 72
2, 202952, Note_on_c, 0, 62, 59
2, 202952, Control_c, 0, 64, 24
2, 202960, Control_c, 0, 64, 0
2, 202980, Note_on_c, 0, 62, 0
2, 202996, Control_c, 0, 64, 40
2, 203004, Control_c, 0, 64, 88
2, 203016, Control_c, 0, 64, 127
2, 203020, Note_on_c, 0, 78, 0
2, 203020, Note_on_c, 0, 86, 0
2, 203024, Note_on_c, 0, 81, 63
2, 203060, Note_on_c, 0, 62, 1
2, 203100, Note_on_c, 0, 78, 67
2, 203124, Note_on_c, 0, 81, 0
2, 203128, Note_on_c, 0, 74, 0
2, 203148, Note_on_c, 0, 62, 0
2, 203172, Note_on_c, 0, 78, 0
2, 203188, Note_on_c, 0, 77, 77
2, 203188, Control_c, 0, 64, 72
2, 203196, Note_on_c, 0, 67, 60
2, 203196, Note_on_c, 0, 83, 74
2, 203200, Control_c, 0, 64, 0
2, 203220, Control_c, 0, 64, 24
2, 203232, Control_c, 0, 64, 56
2, 203244, Control_c, 0, 64, 88
2, 203256, Control_c, 0, 64, 127
2, 203260, Note_on_c, 0, 77, 0
2, 203272, Note_on_c, 0, 67, 0
2, 203280, Note_on_c, 0, 79, 82
2, 203284, Note_on_c, 0, 74, 60
2, 203296, Note_on_c, 0, 83, 0
2, 203352, Note_on_c, 0, 74, 0
2, 203360, Note_on_c, 0, 79, 0
2, 203360, Note_on_c, 0, 77, 81
2, 203360, Note_on_c, 0, 67, 48
2, 203404, Note_on_c, 0, 67, 0
2, 203412, Note_on_c, 0, 77, 0
2, 203440, Control_c, 0, 64, 104
2, 203448, Note_on_c, 0, 84, 84
2, 203448, Control_c, 0, 64, 40
2, 203456, Note_on_c, 0, 72, 62
2, 203456, Note_on_c, 0, 76, 70
2, 203460, Control_c, 0, 64, 0
2, 203476, Note_on_c, 0, 60, 46
2, 203492, Control_c, 0, 64, 40
2, 203504, Control_c, 0, 64, 88
2, 203516, Control_c, 0, 64, 127
2, 203532, Note_on_c, 0, 76, 0
2, 203540, Note_on_c, 0, 79, 74
2, 203592, Note_on_c, 0, 79, 0
2, 203608, Note_on_c, 0, 76, 67
2, 203652, Note_on_c, 0, 84, 0
2, 203656, Note_on_c, 0, 72, 0
2, 203668, Note_on_c, 0, 60, 0
2, 203676, Note_on_c, 0, 76, 0
2, 203700, Control_c, 0, 64, 88
2, 203708, Note_on_c, 0, 81, 63
2, 203712, Note_on_c, 0, 65, 59
2, 203712, Control_c, 0, 64, 24
2, 203720, Control_c, 0, 64, 0
2, 203728, Note_on_c, 0, 75, 63
2, 203752, Control_c, 0, 64, 40
2, 203764, Control_c, 0, 64, 88
2, 203772, Note_on_c, 0, 65, 0
2, 203776, Control_c, 0, 64, 127
2, 203796, Note_on_c, 0, 75, 0
2, 203808, Note_on_c, 0, 77, 77
2, 203808, Note_on_c, 0, 72, 59
2, 203844, Note_on_c, 0, 81, 0
2, 203868, Note_on_c, 0, 75, 58
2, 203880, Note_on_c, 0, 65, 42
2, 203884, Note_on_c, 0, 72, 0
2, 203884, Note_on_c, 0, 77, 0
2, 203908, Note_on_c, 0, 65, 0
2, 203932, Note_on_c, 0, 75, 0
2, 203964, Note_on_c, 0, 82, 75
2, 203968, Note_on_c, 0, 70, 60
2, 203972, Control_c, 0, 64, 104
2, 203976, Note_on_c, 0, 74, 78
2, 203980, Control_c, 0, 64, 56
2, 203988, Note_on_c, 0, 58, 39
2, 203992, Control_c, 0, 64, 0
2, 204024, Control_c, 0, 64, 40
2, 204032, Note_on_c, 0, 74, 0
2, 204036, Control_c, 0, 64, 104
2, 204048, Control_c, 0, 64, 127
2, 204056, Note_on_c, 0, 77, 65
2, 204096, Note_on_c, 0, 82, 0
2, 204112, Note_on_c, 0, 77, 0
2, 204112, Note_on_c, 0, 74, 67
2, 204164, Note_on_c, 0, 74, 0
2, 204184, Note_on_c, 0, 70, 0
2, 204204, Note_on_c, 0, 73, 70
2, 204208, Note_on_c, 0, 79, 79
2, 204220, Control_c, 0, 64, 72
2, 204224, Note_on_c, 0, 63, 58
2, 204232, Control_c, 0, 64, 24
2, 204236, Note_on_c, 0, 58, 0
2, 204240, Control_c, 0, 64, 0
2, 204252, Control_c, 0, 64, 24
2, 204264, Control_c, 0, 64, 56
2, 204276, Note_on_c, 0, 73, 0
2, 204276, Control_c, 0, 64, 104
2, 204280, Note_on_c, 0, 63, 0
2, 204284, Control_c, 0, 64, 127
2, 204292, Note_on_c, 0, 79, 0
2, 204292, Note_on_c, 0, 75, 68
2, 204304, Note_on_c, 0, 70, 53
2, 204364, Note_on_c, 0, 73, 63
2, 204372, Note_on_c, 0, 75, 0
2, 204384, Note_on_c, 0, 70, 0
2, 204392, Note_on_c, 0, 63, 54
2, 204432, Note_on_c, 0, 73, 0
2, 204440, Note_on_c, 0, 63, 0
2, 204456, Note_on_c, 0, 80, 80
2, 204460, Note_on_c, 0, 72, 77
2, 204460, Note_on_c, 0, 68, 56
2, 204460, Control_c, 0, 64, 72
2, 204468, Control_c, 0, 64, 0
2, 204484, Note_on_c, 0, 56, 51
2, 204512, Control_c, 0, 64, 56
2, 204520, Note_on_c, 0, 72, 0
2, 204524, Control_c, 0, 64, 104
2, 204536, Control_c, 0, 64, 127
2, 204540, Note_on_c, 0, 75, 61
2, 204608, Note_on_c, 0, 75, 0
2, 204608, Note_on_c, 0, 72, 60
2, 204652, Note_on_c, 0, 80, 0
2, 204660, Note_on_c, 0, 72, 0
2, 204684, Note_on_c, 0, 68, 0
2, 204708, Note_on_c, 0, 77, 80
2, 204708, Control_c, 0, 64, 88
2, 204720, Note_on_c, 0, 71, 67
2, 204720, Note_on_c, 0, 61, 64
2, 204720, Control_c, 0, 64, 0
2, 204724, Note_on_c, 0, 56, 0
2, 204764, Control_c, 0, 64, 24
2, 204772, Control_c, 0, 64, 72
2, 204776, Note_on_c, 0, 71, 0
2, 204784, Control_c, 0, 64, 127
2, 204792, Note_on_c, 0, 61, 0
2, 204804, Note_on_c, 0, 73, 63
2, 204808, Note_on_c, 0, 68, 55
2, 204856, Note_on_c, 0, 77, 0
2, 204880, Note_on_c, 0, 73, 0
2, 204880, Note_on_c, 0, 71, 62
2, 204888, Note_on_c, 0, 68, 0
2, 204916, Note_on_c, 0, 61, 43
2, 204932, Note_on_c, 0, 71, 0
2, 204940, Note_on_c, 0, 61, 0
2, 204964, Note_on_c, 0, 78, 77
2, 204968, Control_c, 0, 64, 72
2, 204972, Note_on_c, 0, 70, 76
2, 204976, Note_on_c, 0, 66, 57
2, 204980, Control_c, 0, 64, 0
2, 204996, Note_on_c, 0, 54, 48
2, 205024, Control_c, 0, 64, 24
2, 205032, Control_c, 0, 64, 72
2, 205040, Note_on_c, 0, 70, 0
2, 205044, Control_c, 0, 64, 127
2, 205060, Note_on_c, 0, 73, 62
2, 205092, Note_on_c, 0, 73, 0
2, 205116, Note_on_c, 0, 66, 0
2, 205132, Note_on_c, 0, 64, 68
2, 205140, Note_on_c, 0, 78, 0
2, 205184, Note_on_c, 0, 54, 0
2, 205196, Note_on_c, 0, 64, 0
2, 205244, Note_on_c, 0, 58, 70
2, 205268, Control_c, 0, 64, 40
2, 205280, Control_c, 0, 64, 72
2, 205292, Control_c, 0, 64, 88
2, 205304, Control_c, 0, 64, 104
2, 205328, Note_on_c, 0, 58, 0
2, 205332, Note_on_c, 0, 61, 67
2, 205368, Control_c, 0, 64, 88
2, 205376, Note_on_c, 0, 61, 0
2, 205400, Control_c, 0, 64, 127
2, 205420, Note_on_c, 0, 64, 68
2, 205468, Note_on_c, 0, 64, 0
2, 205504, Note_on_c, 0, 66, 68
2, 205552, Note_on_c, 0, 66, 0
2, 205592, Note_on_c, 0, 70, 71
2, 205680, Note_on_c, 0, 73, 69
2, 205700, Note_on_c, 0, 70, 0
2, 205716, Note_on_c, 0, 73, 0
2, 205764, Note_on_c, 0, 76, 82
2, 205812, Note_on_c, 0, 76, 0
2, 205844, Note_on_c, 0, 78, 79
2, 205932, Note_on_c, 0, 82, 71
2, 205944, Note_on_c, 0, 78, 0
2, 206016, Note_on_c, 0, 85, 71
2, 206024, Note_on_c, 0, 82, 0
2, 206056, Note_on_c, 0, 85, 0
2, 206096, Note_on_c, 0, 88, 82
2, 206152, Note_on_c, 0, 88, 0
2, 206180, Note_on_c, 0, 100, 90
2, 206256, Note_on_c, 0, 100, 0
2, 206276, Note_on_c, 0, 99, 83
2, 206280, Note_on_c, 0, 42, 62
2, 206336, Note_on_c, 0, 42, 0
2, 206372, Note_on_c, 0, 97, 79
2, 206376, Note_on_c, 0, 99, 0
2, 206452, Note_on_c, 0, 97, 0
2, 206464, Note_on_c, 0, 95, 67
2, 206508, Note_on_c, 0, 95, 0
2, 206536, Note_on_c, 0, 94, 73
2, 206540, Note_on_c, 0, 54, 61
2, 206596, Note_on_c, 0, 54, 0
2, 206612, Note_on_c, 0, 94, 0
2, 206624, Note_on_c, 0, 92, 79
2, 206708, Note_on_c, 0, 92, 0
2, 206712, Note_on_c, 0, 90, 75
2, 206788, Note_on_c, 0, 90, 0
2, 206804, Note_on_c, 0, 88, 74
2, 206804, Note_on_c, 0, 70, 54
2, 206808, Note_on_c, 0, 64, 54
2, 206836, Note_on_c, 0, 61, 41
2, 206876, Note_on_c, 0, 88, 0
2, 206880, Note_on_c, 0, 92, 78
2, 206948, Note_on_c, 0, 92, 0
2, 206964, Note_on_c, 0, 90, 77
2, 207004, Note_on_c, 0, 70, 0
2, 207020, Note_on_c, 0, 64, 0
2, 207052, Note_on_c, 0, 90, 0
2, 207056, Note_on_c, 0, 71, 66
2, 207060, Note_on_c, 0, 63, 51
2, 207060, Note_on_c, 0, 88, 74
2, 207064, Note_on_c, 0, 61, 0
2, 207128, Note_on_c, 0, 88, 0
2, 207148, Note_on_c, 0, 87, 67
2, 207188, Control_c, 0, 64, 104
2, 207200, Control_c, 0, 64, 56
2, 207212, Control_c, 0, 64, 0
2, 207224, Note_on_c, 0, 87, 0
2, 207224, Note_on_c, 0, 85, 71
2, 207264, Control_c, 0, 64, 40
2, 207276, Control_c, 0, 64, 104
2, 207288, Control_c, 0, 64, 127
2, 207296, Note_on_c, 0, 85, 0
2, 207316, Note_on_c, 0, 83, 70
2, 207372, Note_on_c, 0, 83, 0
2, 207396, Note_on_c, 0, 82, 63
2, 207472, Note_on_c, 0, 71, 0
2, 207476, Note_on_c, 0, 82, 0
2, 207484, Note_on_c, 0, 80, 71
2, 207516, Note_on_c, 0, 63, 0
2, 207568, Note_on_c, 0, 80, 0
2, 207580, Note_on_c, 0, 78, 72
2, 207648, Note_on_c, 0, 78, 0
2, 207788, Control_c, 0, 64, 104
2, 207796, Control_c, 0, 64, 56
2, 207808, Control_c, 0, 64, 0
2, 207824, Note_on_c, 0, 42, 57
2, 207824, Note_on_c, 0, 76, 66
2, 207864, Control_c, 0, 64, 72
2, 207872, Control_c, 0, 64, 127
2, 207876, Note_on_c, 0, 76, 0
2, 207896, Note_on_c, 0, 42, 0
2, 207908, Note_on_c, 0, 82, 70
2, 207984, Note_on_c, 0, 82, 0
2, 207984, Note_on_c, 0, 87, 71
2, 208076, Note_on_c, 0, 85, 78
2, 208080, Note_on_c, 0, 54, 51
2, 208100, Note_on_c, 0, 87, 0
2, 208116, Note_on_c, 0, 85, 0
2, 208128, Note_on_c, 0, 54, 0
2, 208168, Note_on_c, 0, 88, 85
2, 208228, Note_on_c, 0, 88, 0
2, 208252, Note_on_c, 0, 94, 82
2, 208324, Note_on_c, 0, 94, 0
2, 208348, Note_on_c, 0, 99, 85
2, 208348, Note_on_c, 0, 70, 56
2, 208352, Note_on_c, 0, 61, 49
2, 208360, Note_on_c, 0, 64, 47
2, 208404, Note_on_c, 0, 99, 0
2, 208440, Note_on_c, 0, 97, 77
2, 208444, Note_on_c, 0, 64, 0
2, 208464, Note_on_c, 0, 61, 0
2, 208504, Note_on_c, 0, 97, 0
2, 208508, Note_on_c, 0, 70, 0
2, 208520, Note_on_c, 0, 88, 74
2, 208580, Note_on_c, 0, 88, 0
2, 208588, Control_c, 0, 64, 104
2, 208600, Control_c, 0, 64, 40
2, 208612, Control_c, 0, 64, 0
2, 208616, Note_on_c, 0, 97, 78
2, 208620, Note_on_c, 0, 71, 58
2, 208628, Note_on_c, 0, 63, 48
2, 208632, Note_on_c, 0, 59, 48
2, 208652, Control_c, 0, 64, 40
2, 208664, Control_c, 0, 64, 88
2, 208672, Note_on_c, 0, 97, 0
2, 208676, Control_c, 0, 64, 127
2, 208712, Note_on_c, 0, 95, 78
2, 208756, Note_on_c, 0, 71, 0
2, 208756, Note_on_c, 0, 59, 0
2, 208772, Note_on_c, 0, 95, 0
2, 208780, Note_on_c, 0, 63, 0
2, 208788, Note_on_c, 0, 87, 61
2, 208848, Note_on_c, 0, 87, 0
2, 208872, Control_c, 0, 64, 104
2, 208876, Note_on_c, 0, 95, 83
2, 208880, Note_on_c, 0, 71, 55
2, 208880, Control_c, 0, 64, 56
2, 208884, Note_on_c, 0, 65, 55
2, 208888, Note_on_c, 0, 61, 40
2, 208892, Control_c, 0, 64, 24
2, 208924, Control_c, 0, 64, 72
2, 208936, Control_c, 0, 64, 127
2, 208940, Note_on_c, 0, 95, 0
2, 208964, Note_on_c, 0, 94, 72
2, 209028, Note_on_c, 0, 71, 0
2, 209040, Note_on_c, 0, 94, 0
2, 209056, Note_on_c, 0, 85, 65
2, 209088, Note_on_c, 0, 85, 0
2, 209152, Note_on_c, 0, 87, 64
2, 209164, Note_on_c, 0, 68, 54
2, 209208, Note_on_c, 0, 87, 0
2, 209236, Note_on_c, 0, 65, 0
2, 209236, Note_on_c, 0, 85, 67
2, 209296, Note_on_c, 0, 85, 0
2, 209320, Note_on_c, 0, 77, 68
2, 209332, Note_on_c, 0, 68, 0
2, 209380, Note_on_c, 0, 77, 0
2, 209420, Note_on_c, 0, 78, 74
2, 209424, Note_on_c, 0, 61, 0
2, 209424, Note_on_c, 0, 70, 51
2, 209432, Note_on_c, 0, 66, 47
2, 209436, Control_c, 0, 64, 88
2, 209444, Control_c, 0, 64, 24
2, 209456, Control_c, 0, 64, 0
2, 209492, Note_on_c, 0, 78, 0
2, 209500, Control_c, 0, 64, 40
2, 209504, Note_on_c, 0, 87, 73
2, 209508, Control_c, 0, 64, 88
2, 209520, Control_c, 0, 64, 127
2, 209580, Note_on_c, 0, 87, 0
2, 209592, Note_on_c, 0, 85, 62
2, 209664, Note_on_c, 0, 85, 0
2, 209684, Note_on_c, 0, 83, 68
2, 209700, Note_on_c, 0, 70, 0
2, 209728, Note_on_c, 0, 83, 0
2, 209728, Note_on_c, 0, 66, 0
2, 209764, Note_on_c, 0, 82, 69
2, 209836, Note_on_c, 0, 82, 0
2, 209848, Note_on_c, 0, 80, 80
2, 209944, Note_on_c, 0, 80, 0
2, 209948, Note_on_c, 0, 78, 77
2, 209956, Note_on_c, 0, 64, 54
2, 209956, Note_on_c, 0, 54, 48
2, 209956, Control_c, 0, 64, 104
2, 209960, Note_on_c, 0, 58, 47
2, 209964, Control_c, 0, 64, 72
2, 209976, Control_c, 0, 64, 40
2, 209988, Control_c, 0, 64, 24
2, 210020, Control_c, 0, 64, 72
2, 210028, Note_on_c, 0, 78, 0
2, 210028, Control_c, 0, 64, 104
2, 210036, Note_on_c, 0, 80, 71
2, 210040, Control_c, 0, 64, 127
2, 210108, Note_on_c, 0, 80, 0
2, 210124, Note_on_c, 0, 78, 76
2, 210136, Note_on_c, 0, 64, 0
2, 210188, Note_on_c, 0, 58, 0
2, 210204, Note_on_c, 0, 78, 0
2, 210228, Note_on_c, 0, 76, 70
2, 210228, Note_on_c, 0, 63, 48
2, 210240, Note_on_c, 0, 59, 49
2, 210292, Control_c, 0, 64, 88
2, 210300, Note_on_c, 0, 76, 0
2, 210300, Control_c, 0, 64, 40
2, 210312, Note_on_c, 0, 75, 70
2, 210312, Control_c, 0, 64, 0
2, 210384, Note_on_c, 0, 75, 0
2, 210388, Control_c, 0, 64, 56
2, 210400, Control_c, 0, 64, 127
2, 210404, Note_on_c, 0, 73, 67
2, 210468, Note_on_c, 0, 73, 0
2, 210488, Note_on_c, 0, 71, 68
2, 210548, Note_on_c, 0, 71, 0
2, 210576, Note_on_c, 0, 70, 68
2, 210652, Note_on_c, 0, 70, 0
2, 210660, Note_on_c, 0, 68, 70
2, 210716, Control_c, 0, 64, 104
2, 210724, Control_c, 0, 64, 56
2, 210736, Control_c, 0, 64, 0
2, 210764, Note_on_c, 0, 66, 68
2, 210768, Note_on_c, 0, 68, 0
2, 210844, Control_c, 0, 64, 56
2, 210848, Note_on_c, 0, 59, 0
2, 210848, Note_on_c, 0, 63, 0
2, 210856, Control_c, 0, 64, 127
2, 210864, Note_on_c, 0, 66, 0
2, 210868, Note_on_c, 0, 54, 0
2, 210996, Control_c, 0, 64, 88
2, 211008, Control_c, 0, 64, 0
2, 211024, Note_on_c, 0, 64, 70
2, 211028, Note_on_c, 0, 42, 62
2, 211060, Control_c, 0, 64, 56
2, 211072, Control_c, 0, 64, 127
2, 211076, Note_on_c, 0, 42, 0
2, 211076, Note_on_c, 0, 64, 0
2, 211116, Note_on_c, 0, 70, 72
2, 211180, Note_on_c, 0, 70, 0
2, 211200, Note_on_c, 0, 75, 77
2, 211284, Note_on_c, 0, 73, 73
2, 211292, Note_on_c, 0, 54, 58
2, 211308, Note_on_c, 0, 75, 0
2, 211324, Note_on_c, 0, 73, 0
2, 211336, Note_on_c, 0, 54, 0
2, 211376, Note_on_c, 0, 76, 79
2, 211424, Note_on_c, 0, 76, 0
2, 211456, Note_on_c, 0, 82, 77
2, 211536, Note_on_c, 0, 82, 0
2, 211552, Note_on_c, 0, 87, 81
2, 211560, Control_c, 0, 64, 56
2, 211564, Note_on_c, 0, 64, 60
2, 211564, Note_on_c, 0, 55, 58
2, 211572, Note_on_c, 0, 58, 46
2, 211572, Control_c, 0, 64, 0
2, 211628, Control_c, 0, 64, 56
2, 211636, Note_on_c, 0, 87, 0
2, 211636, Control_c, 0, 64, 104
2, 211640, Note_on_c, 0, 55, 0
2, 211640, Note_on_c, 0, 85, 77
2, 211648, Control_c, 0, 64, 127
2, 211692, Note_on_c, 0, 58, 0
2, 211704, Note_on_c, 0, 85, 0
2, 211704, Note_on_c, 0, 64, 0
2, 211732, Note_on_c, 0, 76, 71
2, 211796, Note_on_c, 0, 76, 0
2, 211824, Note_on_c, 0, 63, 57
2, 211828, Note_on_c, 0, 85, 78
2, 211828, Note_on_c, 0, 59, 59
2, 211832, Note_on_c, 0, 56, 52
2, 211852, Control_c, 0, 64, 72
2, 211864, Control_c, 0, 64, 0
2, 211904, Note_on_c, 0, 85, 0
2, 211924, Note_on_c, 0, 83, 79
2, 211940, Control_c, 0, 64, 56
2, 211952, Control_c, 0, 64, 127
2, 211992, Note_on_c, 0, 83, 0
2, 212008, Note_on_c, 0, 75, 71
2, 212012, Note_on_c, 0, 63, 0
2, 212072, Note_on_c, 0, 75, 0
2, 212104, Note_on_c, 0, 65, 67
2, 212104, Note_on_c, 0, 82, 78
2, 212156, Control_c, 0, 64, 88
2, 212168, Control_c, 0, 64, 0
2, 212180, Note_on_c, 0, 82, 0
2, 212196, Note_on_c, 0, 80, 75
2, 212232, Control_c, 0, 64, 40
2, 212244, Control_c, 0, 64, 88
2, 212256, Control_c, 0, 64, 127
2, 212276, Note_on_c, 0, 80, 0
2, 212296, Note_on_c, 0, 74, 62
2, 212340, Control_c, 0, 64, 88
2, 212352, Control_c, 0, 64, 56
2, 212360, Note_on_c, 0, 74, 0
2, 212364, Control_c, 0, 64, 0
2, 212380, Note_on_c, 0, 82, 72
2, 212384, Control_c, 0, 64, 24
2, 212396, Control_c, 0, 64, 56
2, 212408, Control_c, 0, 64, 88
2, 212416, Control_c, 0, 64, 127
2, 212452, Note_on_c, 0, 82, 0
2, 212476, Note_on_c, 0, 59, 0
2, 212476, Note_on_c, 0, 80, 69
2, 212480, Note_on_c, 0, 65, 0
2, 212496, Note_on_c, 0, 56, 0
2, 212536, Note_on_c, 0, 80, 0
2, 212564, Note_on_c, 0, 73, 57
2, 212600, Note_on_c, 0, 73, 0
2, 212636, Control_c, 0, 64, 72
2, 212644, Control_c, 0, 64, 0
2, 212656, Note_on_c, 0, 78, 73
2, 212656, Note_on_c, 0, 66, 51
2, 212660, Note_on_c, 0, 58, 46
2, 212664, Note_on_c, 0, 54, 52
2, 212712, Control_c, 0, 64, 24
2, 212720, Control_c, 0, 64, 72
2, 212724, Note_on_c, 0, 78, 0
2, 212732, Control_c, 0, 64, 127
2, 212744, Note_on_c, 0, 82, 59
2, 212812, Note_on_c, 0, 82, 0
2, 212824, Note_on_c, 0, 78, 67
2, 212860, Note_on_c, 0, 58, 0
2, 212864, Note_on_c, 0, 78, 0
2, 212904, Control_c, 0, 64, 104
2, 212916, Control_c, 0, 64, 56
2, 212920, Note_on_c, 0, 80, 77
2, 212928, Note_on_c, 0, 59, 58
2, 212928, Control_c, 0, 64, 24
2, 212940, Note_on_c, 0, 56, 48
2, 212940, Control_c, 0, 64, 0
2, 212948, Control_c, 0, 64, 24
2, 212960, Control_c, 0, 64, 56
2, 212972, Control_c, 0, 64, 104
2, 212980, Control_c, 0, 64, 127
2, 212984, Note_on_c, 0, 80, 0
2, 213012, Note_on_c, 0, 83, 75
2, 213072, Note_on_c, 0, 83, 0
2, 213084, Note_on_c, 0, 59, 0
2, 213092, Note_on_c, 0, 80, 73
2, 213132, Note_on_c, 0, 80, 0
2, 213144, Control_c, 0, 64, 104
2, 213156, Control_c, 0, 64, 72
2, 213164, Control_c, 0, 64, 40
2, 213192, Note_on_c, 0, 82, 81
2, 213196, Note_on_c, 0, 56, 0
2, 213196, Note_on_c, 0, 58, 50
2, 213200, Note_on_c, 0, 61, 59
2, 213200, Control_c, 0, 64, 88
2, 213208, Control_c, 0, 64, 127
2, 213252, Note_on_c, 0, 82, 0
2, 213252, Note_on_c, 0, 66, 0
2, 213276, Note_on_c, 0, 85, 65
2, 213300, Note_on_c, 0, 58, 0
2, 213340, Note_on_c, 0, 61, 0
2, 213356, Note_on_c, 0, 85, 0
2, 213360, Note_on_c, 0, 82, 67
2, 213416, Note_on_c, 0, 82, 0
2, 213416, Control_c, 0, 64, 72
2, 213428, Control_c, 0, 64, 24
2, 213436, Control_c, 0, 64, 0
2, 213444, Note_on_c, 0, 62, 74
2, 213444, Note_on_c, 0, 83, 59
2, 213448, Note_on_c, 0, 59, 76
2, 213468, Control_c, 0, 64, 40
2, 213480, Control_c, 0, 64, 88
2, 213492, Control_c, 0, 64, 127
2, 213504, Note_on_c, 0, 83, 0
2, 213508, Note_on_c, 0, 62, 0
2, 213528, Note_on_c, 0, 86, 73
2, 213548, Note_on_c, 0, 59, 0
2, 213588, Note_on_c, 0, 86, 0
2, 213620, Note_on_c, 0, 83, 69
2, 213648, Note_on_c, 0, 64, 70
2, 213648, Note_on_c, 0, 61, 60
2, 213664, Note_on_c, 0, 83, 0
2, 213676, Note_on_c, 0, 64, 0
2, 213692, Note_on_c, 0, 61, 0
2, 213716, Note_on_c, 0, 66, 85
2, 213724, Note_on_c, 0, 86, 80
2, 213724, Note_on_c, 0, 62, 82
2, 213732, Control_c, 0, 64, 88
2, 213740, Control_c, 0, 64, 40
2, 213752, Control_c, 0, 64, 0
2, 213760, Note_on_c, 0, 62, 51
2, 213792, Note_on_c, 0, 86, 0
2, 213820, Note_on_c, 0, 90, 64
2, 213848, Control_c, 0, 64, 72
2, 213860, Control_c, 0, 64, 127
2, 213884, Note_on_c, 0, 90, 0
2, 213908, Note_on_c, 0, 86, 74
2, 213924, Note_on_c, 0, 62, 0
2, 213968, Note_on_c, 0, 86, 0
2, 213996, Note_on_c, 0, 83, 74
2, 214060, Note_on_c, 0, 83, 0
2, 214084, Note_on_c, 0, 66, 0
2, 214088, Note_on_c, 0, 86, 69
2, 214096, Note_on_c, 0, 62, 0
2, 214132, Note_on_c, 0, 54, 0
2, 214144, Note_on_c, 0, 86, 0
2, 214168, Note_on_c, 0, 83, 70
2, 214232, Note_on_c, 0, 83, 0
2, 214252, Note_on_c, 0, 61, 57
2, 214256, Note_on_c, 0, 82, 75
2, 214260, Note_on_c, 0, 58, 50
2, 214268, Note_on_c, 0, 54, 53
2, 214284, Control_c, 0, 64, 104
2, 214292, Control_c, 0, 64, 40
2, 214304, Control_c, 0, 64, 0
2, 214320, Note_on_c, 0, 82, 0
2, 214344, Note_on_c, 0, 85, 72
2, 214372, Control_c, 0, 64, 56
2, 214380, Control_c, 0, 64, 104
2, 214392, Control_c, 0, 64, 127
2, 214424, Note_on_c, 0, 85, 0
2, 214424, Note_on_c, 0, 82, 71
2, 214444, Note_on_c, 0, 58, 0
2, 214480, Note_on_c, 0, 61, 0
2, 214492, Note_on_c, 0, 82, 0
2, 214508, Note_on_c, 0, 80, 78
2, 214512, Control_c, 0, 64, 104
2, 214520, Control_c, 0, 64, 56
2, 214524, Note_on_c, 0, 56, 54
2, 214528, Note_on_c, 0, 59, 63
2, 214532, Control_c, 0, 64, 24
2, 214544, Control_c, 0, 64, 0
2, 214556, Control_c, 0, 64, 24
2, 214564, Control_c, 0, 64, 56
2, 214568, Note_on_c, 0, 80, 0
2, 214576, Control_c, 0, 64, 72
2, 214588, Control_c, 0, 64, 104
2, 214596, Control_c, 0, 64, 127
2, 214604, Note_on_c, 0, 83, 79
2, 214668, Note_on_c, 0, 83, 0
2, 214680, Note_on_c, 0, 80, 73
2, 214712, Note_on_c, 0, 59, 0
2, 214740, Control_c, 0, 64, 88
2, 214748, Note_on_c, 0, 80, 0
2, 214748, Control_c, 0, 64, 40
2, 214760, Control_c, 0, 64, 0
2, 214772, Note_on_c, 0, 82, 80
2, 214776, Note_on_c, 0, 61, 64
2, 214784, Note_on_c, 0, 58, 56
2, 214792, Control_c, 0, 64, 72
2, 214804, Control_c, 0, 64, 104
2, 214816, Control_c, 0, 64, 127
2, 214836, Note_on_c, 0, 54, 0
2, 214840, Note_on_c, 0, 82, 0
2, 214852, Note_on_c, 0, 56, 0
2, 214860, Note_on_c, 0, 85, 73
2, 214900, Note_on_c, 0, 61, 0
2, 214928, Note_on_c, 0, 58, 0
2, 214932, Note_on_c, 0, 85, 0
2, 214932, Note_on_c, 0, 82, 62
2, 214980, Note_on_c, 0, 82, 0
2, 215000, Control_c, 0, 64, 104
2, 215012, Control_c, 0, 64, 40
2, 215020, Control_c, 0, 64, 0
2, 215028, Note_on_c, 0, 83, 88
2, 215036, Note_on_c, 0, 62, 65
2, 215036, Note_on_c, 0, 59, 56
2, 215044, Note_on_c, 0, 53, 59
2, 215064, Control_c, 0, 64, 26
2, 215076, Control_c, 0, 64, 88
2, 215084, Control_c, 0, 64, 127
2, 215088, Note_on_c, 0, 59, 0
2, 215092, Note_on_c, 0, 53, 0
2, 215100, Note_on_c, 0, 83, 0
2, 215104, Note_on_c, 0, 62, 0
2, 215128, Note_on_c, 0, 86, 76
2, 215176, Note_on_c, 0, 86, 0
2, 215204, Note_on_c, 0, 83, 86
2, 215276, Note_on_c, 0, 83, 0
2, 215296, Note_on_c, 0, 68, 79
2, 215300, Note_on_c, 0, 82, 82
2, 215300, Note_on_c, 0, 62, 73
2, 215396, Note_on_c, 0, 82, 0
2, 215396, Note_on_c, 0, 86, 69
2, 215456, Note_on_c, 0, 86, 0
2, 215480, Note_on_c, 0, 81, 69
2, 215552, Note_on_c, 0, 81, 0
2, 215568, Note_on_c, 0, 80, 69
2, 215636, Note_on_c, 0, 80, 0
2, 215640, Note_on_c, 0, 62, 0
2, 215644, Note_on_c, 0, 86, 70
2, 215648, Note_on_c, 0, 68, 0
2, 215720, Note_on_c, 0, 86, 0
2, 215732, Note_on_c, 0, 79, 68
2, 215792, Note_on_c, 0, 79, 0
2, 215836, Note_on_c, 0, 78, 72
2, 215848, Note_on_c, 0, 54, 60
2, 215856, Control_c, 0, 64, 104
2, 215868, Control_c, 0, 64, 56
2, 215876, Control_c, 0, 64, 0
2, 215920, Note_on_c, 0, 78, 0
2, 215932, Note_on_c, 0, 82, 60
2, 215952, Control_c, 0, 64, 40
2, 215964, Control_c, 0, 64, 88
2, 215976, Control_c, 0, 64, 127
2, 216008, Note_on_c, 0, 82, 0
2, 216008, Note_on_c, 0, 78, 65
2, 216048, Note_on_c, 0, 78, 0
2, 216084, Control_c, 0, 64, 88
2, 216096, Control_c, 0, 64, 24
2, 216104, Note_on_c, 0, 80, 74
2, 216104, Note_on_c, 0, 56, 53
2, 216104, Control_c, 0, 64, 0
2, 216116, Note_on_c, 0, 59, 60
2, 216148, Control_c, 0, 64, 40
2, 216160, Control_c, 0, 64, 88
2, 216172, Note_on_c, 0, 80, 0
2, 216172, Control_c, 0, 64, 127
2, 216196, Note_on_c, 0, 83, 67
2, 216252, Note_on_c, 0, 80, 71
2, 216256, Note_on_c, 0, 83, 0
2, 216292, Note_on_c, 0, 59, 0
2, 216296, Note_on_c, 0, 80, 0
2, 216324, Control_c, 0, 64, 104
2, 216332, Control_c, 0, 64, 56
2, 216344, Control_c, 0, 64, 0
2, 216348, Note_on_c, 0, 58, 53
2, 216352, Note_on_c, 0, 61, 59
2, 216356, Note_on_c, 0, 82, 73
2, 216376, Control_c, 0, 64, 24
2, 216388, Note_on_c, 0, 56, 0
2, 216388, Control_c, 0, 64, 56
2, 216396, Control_c, 0, 64, 104
2, 216408, Control_c, 0, 64, 127
2, 216420, Note_on_c, 0, 82, 0
2, 216444, Note_on_c, 0, 85, 69
2, 216520, Note_on_c, 0, 82, 75
2, 216532, Note_on_c, 0, 85, 0
2, 216552, Note_on_c, 0, 61, 0
2, 216564, Note_on_c, 0, 58, 0
2, 216576, Note_on_c, 0, 82, 0
2, 216616, Note_on_c, 0, 83, 79
2, 216616, Control_c, 0, 64, 104
2, 216624, Note_on_c, 0, 62, 66
2, 216628, Note_on_c, 0, 59, 58
2, 216628, Control_c, 0, 64, 40
2, 216636, Control_c, 0, 64, 0
2, 216680, Note_on_c, 0, 83, 0
2, 216680, Control_c, 0, 64, 24
2, 216692, Control_c, 0, 64, 56
2, 216704, Control_c, 0, 64, 104
2, 216708, Note_on_c, 0, 59, 0
2, 216708, Note_on_c, 0, 86, 76
2, 216712, Control_c, 0, 64, 127
2, 216724, Note_on_c, 0, 62, 0
2, 216768, Note_on_c, 0, 86, 0
2, 216796, Note_on_c, 0, 83, 78
2, 216812, Note_on_c, 0, 61, 73
2, 216824, Note_on_c, 0, 64, 69
2, 216844, Note_on_c, 0, 83, 0
2, 216860, Note_on_c, 0, 64, 0
2, 216864, Note_on_c, 0, 61, 0
2, 216888, Note_on_c, 0, 86, 84
2, 216900, Note_on_c, 0, 66, 83
2, 216912, Note_on_c, 0, 62, 66
2, 216940, Control_c, 0, 64, 88
2, 216952, Note_on_c, 0, 86, 0
2, 216952, Control_c, 0, 64, 0
2, 216980, Note_on_c, 0, 90, 65
2, 217040, Control_c, 0, 64, 72
2, 217048, Control_c, 0, 64, 127
2, 217056, Note_on_c, 0, 90, 0
2, 217068, Note_on_c, 0, 86, 74
2, 217136, Note_on_c, 0, 86, 0
2, 217156, Note_on_c, 0, 83, 75
2, 217228, Note_on_c, 0, 83, 0
2, 217248, Note_on_c, 0, 86, 74
2, 217256, Note_on_c, 0, 66, 0
2, 217272, Note_on_c, 0, 62, 0
2, 217316, Note_on_c, 0, 54, 0
2, 217316, Note_on_c, 0, 86, 0
2, 217332, Note_on_c, 0, 83, 75
2, 217396, Note_on_c, 0, 83, 0
2, 217424, Note_on_c, 0, 82, 77
2, 217424, Note_on_c, 0, 61, 57
2, 217428, Note_on_c, 0, 58, 49
2, 217440, Note_on_c, 0, 54, 53
2, 217452, Control_c, 0, 64, 72
2, 217460, Control_c, 0, 64, 24
2, 217472, Control_c, 0, 64, 0
2, 217496, Note_on_c, 0, 82, 0
2, 217508, Note_on_c, 0, 85, 71
2, 217516, Control_c, 0, 64, 24
2, 217524, Control_c, 0, 64, 56
2, 217536, Control_c, 0, 64, 104
2, 217548, Control_c, 0, 64, 127
2, 217592, Note_on_c, 0, 85, 0
2, 217596, Note_on_c, 0, 82, 67
2, 217612, Note_on_c, 0, 58, 0
2, 217652, Note_on_c, 0, 61, 0
2, 217664, Note_on_c, 0, 82, 0
2, 217680, Control_c, 0, 64, 72
2, 217684, Note_on_c, 0, 80, 69
2, 217688, Control_c, 0, 64, 56
2, 217692, Note_on_c, 0, 59, 60
2, 217692, Note_on_c, 0, 56, 51
2, 217720, Control_c, 0, 64, 88
2, 217732, Control_c, 0, 64, 104
2, 217744, Control_c, 0, 64, 127
2, 217748, Note_on_c, 0, 80, 0
2, 217776, Note_on_c, 0, 83, 75
2, 217832, Note_on_c, 0, 83, 0
2, 217856, Note_on_c, 0, 80, 71
2, 217880, Note_on_c, 0, 59, 0
2, 217884, Control_c, 0, 64, 88
2, 217896, Control_c, 0, 64, 40
2, 217908, Control_c, 0, 64, 0
2, 217920, Note_on_c, 0, 80, 0
2, 217940, Control_c, 0, 64, 40
2, 217944, Note_on_c, 0, 61, 62
2, 217948, Note_on_c, 0, 82, 78
2, 217948, Control_c, 0, 64, 72
2, 217956, Note_on_c, 0, 58, 49
2, 217960, Control_c, 0, 64, 104
2, 217972, Control_c, 0, 64, 127
2, 217984, Note_on_c, 0, 54, 0
2, 218012, Note_on_c, 0, 82, 0
2, 218020, Note_on_c, 0, 56, 0
2, 218036, Note_on_c, 0, 85, 72
2, 218068, Note_on_c, 0, 58, 0
2, 218084, Note_on_c, 0, 61, 0
2, 218120, Note_on_c, 0, 85, 0
2, 218120, Note_on_c, 0, 82, 72
2, 218176, Note_on_c, 0, 82, 0
2, 218208, Control_c, 0, 64, 72
2, 218212, Note_on_c, 0, 83, 77
2, 218220, Note_on_c, 0, 62, 62
2, 218220, Note_on_c, 0, 59, 51
2, 218220, Control_c, 0, 64, 0
2, 218232, Note_on_c, 0, 53, 54
2, 218272, Control_c, 0, 64, 40
2, 218276, Note_on_c, 0, 83, 0
2, 218284, Control_c, 0, 64, 104
2, 218296, Control_c, 0, 64, 127
2, 218300, Note_on_c, 0, 59, 0
2, 218304, Note_on_c, 0, 86, 80
2, 218308, Note_on_c, 0, 53, 0
2, 218320, Note_on_c, 0, 62, 0
2, 218356, Note_on_c, 0, 86, 0
2, 218388, Note_on_c, 0, 83, 88
2, 218464, Note_on_c, 0, 83, 0
2, 218492, Note_on_c, 0, 86, 85
2, 218504, Note_on_c, 0, 68, 65
2, 218512, Note_on_c, 0, 62, 59
2, 218576, Note_on_c, 0, 86, 0
2, 218592, Note_on_c, 0, 95, 82
2, 218664, Note_on_c, 0, 95, 0
2, 218688, Note_on_c, 0, 83, 79
2, 218744, Note_on_c, 0, 83, 0
2, 218776, Note_on_c, 0, 80, 78
2, 218852, Note_on_c, 0, 80, 0
2, 218872, Note_on_c, 0, 83, 79
2, 218884, Note_on_c, 0, 62, 0
2, 218912, Note_on_c, 0, 68, 0
2, 218952, Note_on_c, 0, 83, 0
2, 218976, Note_on_c, 0, 80, 77
2, 219032, Note_on_c, 0, 80, 0
2, 219036, Note_on_c, 0, 54, 50
2, 219036, Control_c, 0, 64, 40
2, 219044, Control_c, 0, 64, 0
2, 219064, Note_on_c, 0, 61, 50
2, 219068, Note_on_c, 0, 54, 0
2, 219100, Control_c, 0, 64, 88
2, 219108, Control_c, 0, 64, 127
2, 219116, Note_on_c, 0, 61, 0
2, 219120, Note_on_c, 0, 78, 71
2, 219124, Note_on_c, 0, 70, 56
2, 219152, Note_on_c, 0, 70, 0
2, 219204, Note_on_c, 0, 78, 0
2, 219220, Note_on_c, 0, 82, 61
2, 219288, Note_on_c, 0, 82, 0
2, 219308, Note_on_c, 0, 78, 67
2, 219380, Note_on_c, 0, 78, 0
2, 219396, Note_on_c, 0, 73, 69
2, 219404, Note_on_c, 0, 42, 50
2, 219460, Note_on_c, 0, 73, 0
2, 219484, Note_on_c, 0, 42, 0
2, 219488, Note_on_c, 0, 78, 64
2, 219544, Note_on_c, 0, 78, 0
2, 219572, Note_on_c, 0, 73, 55
2, 219624, Note_on_c, 0, 73, 0
2, 219660, Note_on_c, 0, 78, 65
2, 219716, Note_on_c, 0, 78, 0
2, 219744, Note_on_c, 0, 85, 64
2, 219796, Note_on_c, 0, 85, 0
2, 219832, Note_on_c, 0, 78, 69
2, 219892, Note_on_c, 0, 78, 0
2, 219924, Note_on_c, 0, 85, 74
2, 219992, Note_on_c, 0, 85, 0
2, 220012, Note_on_c, 0, 90, 70
2, 220104, Note_on_c, 0, 90, 0
2, 220108, Note_on_c, 0, 85, 63
2, 220168, Note_on_c, 0, 85, 0
2, 220188, Note_on_c, 0, 78, 60
2, 220256, Note_on_c, 0, 78, 0
2, 220280, Note_on_c, 0, 85, 56
2, 220348, Note_on_c, 0, 85, 0
2, 220364, Note_on_c, 0, 78, 61
2, 220408, Note_on_c, 0, 78, 0
2, 220460, Note_on_c, 0, 73, 65
2, 220508, Note_on_c, 0, 73, 0
2, 220544, Note_on_c, 0, 78, 55
2, 220604, Note_on_c, 0, 78, 0
2, 220616, Note_on_c, 0, 73, 58
2, 220616, Control_c, 0, 64, 104
2, 220628, Control_c, 0, 64, 24
2, 220640, Note_on_c, 0, 54, 51
2, 220640, Control_c, 0, 64, 0
2, 220648, Note_on_c, 0, 73, 0
2, 220672, Note_on_c, 0, 61, 49
2, 220680, Note_on_c, 0, 54, 0
2, 220684, Control_c, 0, 64, 56
2, 220692, Control_c, 0, 64, 127
2, 220704, Note_on_c, 0, 61, 0
2, 220728, Note_on_c, 0, 78, 71
2, 220740, Note_on_c, 0, 70, 54
2, 220772, Note_on_c, 0, 78, 0
2, 220792, Note_on_c, 0, 70, 0
2, 220820, Note_on_c, 0, 82, 55
2, 220876, Note_on_c, 0, 82, 0
2, 220904, Note_on_c, 0, 78, 65
2, 220972, Note_on_c, 0, 78, 0
2, 220992, Note_on_c, 0, 42, 55
2, 220996, Note_on_c, 0, 73, 65
2, 221056, Note_on_c, 0, 73, 0
2, 221064, Note_on_c, 0, 42, 0
2, 221084, Note_on_c, 0, 78, 62
2, 221148, Note_on_c, 0, 78, 0
2, 221176, Note_on_c, 0, 73, 63
2, 221228, Note_on_c, 0, 73, 0
2, 221264, Note_on_c, 0, 78, 69
2, 221328, Note_on_c, 0, 78, 0
2, 221352, Note_on_c, 0, 85, 67
2, 221412, Note_on_c, 0, 85, 0
2, 221436, Note_on_c, 0, 78, 67
2, 221500, Note_on_c, 0, 78, 0
2, 221528, Note_on_c, 0, 85, 69
2, 221592, Note_on_c, 0, 85, 0
2, 221616, Note_on_c, 0, 90, 65
2, 221684, Note_on_c, 0, 90, 0
2, 221700, Note_on_c, 0, 85, 63
2, 221764, Note_on_c, 0, 85, 0
2, 221788, Note_on_c, 0, 78, 65
2, 221856, Note_on_c, 0, 78, 0
2, 221876, Note_on_c, 0, 85, 68
2, 221932, Note_on_c, 0, 85, 0
2, 221960, Note_on_c, 0, 78, 69
2, 222024, Note_on_c, 0, 78, 0
2, 222044, Note_on_c, 0, 85, 73
2, 222116, Note_on_c, 0, 85, 0
2, 222136, Note_on_c, 0, 90, 64
2, 222216, Note_on_c, 0, 78, 62
2, 222264, Note_on_c, 0, 78, 0
2, 222300, Control_c, 0, 64, 56
2, 222308, Control_c, 0, 64, 0
2, 222328, Note_on_c, 0, 61, 49
2, 222332, Note_on_c, 0, 54, 46
2, 222332, Note_on_c, 0, 85, 70
2, 222344, Note_on_c, 0, 90, 0
2, 222364, Control_c, 0, 64, 72
2, 222376, Control_c, 0, 64, 127
2, 222388, Note_on_c, 0, 85, 0
2, 222392, Note_on_c, 0, 61, 0
2, 222396, Note_on_c, 0, 54, 0
2, 222408, Note_on_c, 0, 87, 67
2, 222428, Note_on_c, 0, 65, 53
2, 222456, Note_on_c, 0, 87, 0
2, 222472, Note_on_c, 0, 85, 67
2, 222488, Note_on_c, 0, 65, 0
2, 222512, Note_on_c, 0, 66, 57
2, 222524, Note_on_c, 0, 85, 0
2, 222528, Note_on_c, 0, 87, 68
2, 222584, Note_on_c, 0, 87, 0
2, 222588, Note_on_c, 0, 85, 68
2, 222612, Note_on_c, 0, 66, 0
2, 222636, Note_on_c, 0, 73, 76
2, 222644, Note_on_c, 0, 85, 0
2, 222648, Note_on_c, 0, 87, 69
2, 222704, Note_on_c, 0, 87, 0
2, 222704, Note_on_c, 0, 85, 67
2, 222752, Note_on_c, 0, 87, 54
2, 222756, Note_on_c, 0, 85, 0
2, 222808, Note_on_c, 0, 87, 0
2, 222816, Note_on_c, 0, 85, 63
2, 222856, Note_on_c, 0, 87, 58
2, 222860, Note_on_c, 0, 85, 0
2, 222908, Note_on_c, 0, 87, 0
2, 222920, Note_on_c, 0, 85, 65
2, 222952, Note_on_c, 0, 87, 54
2, 222956, Note_on_c, 0, 85, 0
2, 223008, Note_on_c, 0, 87, 0
2, 223008, Note_on_c, 0, 73, 0
2, 223012, Note_on_c, 0, 85, 65
2, 223052, Note_on_c, 0, 87, 56
2, 223056, Note_on_c, 0, 85, 0
2, 223112, Note_on_c, 0, 87, 0
2, 223124, Note_on_c, 0, 85, 70
2, 223168, Note_on_c, 0, 87, 57
2, 223176, Note_on_c, 0, 85, 0
2, 223196, Note_on_c, 0, 73, 65
2, 223200, Note_on_c, 0, 68, 56
2, 223224, Note_on_c, 0, 87, 0
2, 223232, Note_on_c, 0, 85, 69
2, 223300, Note_on_c, 0, 73, 0
2, 223328, Note_on_c, 0, 87, 25
2, 223336, Note_on_c, 0, 68, 0
2, 223340, Note_on_c, 0, 85, 0
2, 223384, Note_on_c, 0, 66, 62
2, 223400, Note_on_c, 0, 87, 0
2, 223404, Note_on_c, 0, 85, 59
2, 223452, Note_on_c, 0, 66, 0
2, 223468, Note_on_c, 0, 85, 0
2, 223468, Note_on_c, 0, 68, 62
2, 223472, Note_on_c, 0, 87, 64
2, 223524, Note_on_c, 0, 87, 0
2, 223532, Note_on_c, 0, 85, 67
2, 223556, Note_on_c, 0, 68, 0
2, 223556, Note_on_c, 0, 66, 63
2, 223584, Note_on_c, 0, 85, 0
2, 223584, Note_on_c, 0, 87, 54
2, 223636, Note_on_c, 0, 66, 0
2, 223644, Note_on_c, 0, 87, 0
2, 223648, Note_on_c, 0, 85, 71
2, 223648, Note_on_c, 0, 61, 65
2, 223692, Note_on_c, 0, 61, 0
2, 223700, Note_on_c, 0, 85, 0
2, 223708, Note_on_c, 0, 87, 69
2, 223740, Note_on_c, 0, 54, 70
2, 223764, Note_on_c, 0, 87, 0
2, 223772, Note_on_c, 0, 85, 68
2, 223776, Note_on_c, 0, 54, 0
2, 223816, Note_on_c, 0, 85, 0
2, 223816, Note_on_c, 0, 87, 55
2, 223876, Note_on_c, 0, 87, 0
2, 223888, Note_on_c, 0, 85, 62
2, 223928, Note_on_c, 0, 85, 0
2, 223928, Note_on_c, 0, 87, 49
2, 223988, Note_on_c, 0, 87, 0
2, 223996, Note_on_c, 0, 85, 62
2, 224016, Note_on_c, 0, 61, 65
2, 224020, Note_on_c, 0, 54, 60
2, 224020, Control_c, 0, 64, 72
2, 224032, Control_c, 0, 64, 40
2, 224048, Note_on_c, 0, 85, 0
2, 224048, Note_on_c, 0, 87, 52
2, 224068, Control_c, 0, 64, 104
2, 224076, Note_on_c, 0, 54, 0
2, 224076, Control_c, 0, 64, 127
2, 224080, Note_on_c, 0, 61, 0
2, 224104, Note_on_c, 0, 87, 0
2, 224108, Note_on_c, 0, 65, 68
2, 224112, Note_on_c, 0, 85, 65
2, 224160, Note_on_c, 0, 87, 62
2, 224164, Note_on_c, 0, 85, 0
2, 224172, Note_on_c, 0, 65, 0
2, 224192, Note_on_c, 0, 66, 69
2, 224224, Note_on_c, 0, 87, 0
2, 224228, Note_on_c, 0, 85, 64
2, 224284, Note_on_c, 0, 85, 0
2, 224284, Note_on_c, 0, 87, 57
2, 224312, Note_on_c, 0, 73, 73
2, 224328, Control_c, 0, 64, 88
2, 224336, Control_c, 0, 64, 24
2, 224344, Note_on_c, 0, 87, 0
2, 224348, Note_on_c, 0, 85, 61
2, 224348, Control_c, 0, 64, 0
2, 224380, Control_c, 0, 64, 72
2, 224392, Note_on_c, 0, 66, 0
2, 224392, Control_c, 0, 64, 127
2, 224396, Note_on_c, 0, 87, 56
2, 224400, Note_on_c, 0, 85, 0
2, 224456, Note_on_c, 0, 87, 0
2, 224464, Note_on_c, 0, 85, 62
2, 224504, Note_on_c, 0, 87, 50
2, 224512, Note_on_c, 0, 85, 0
2, 224560, Note_on_c, 0, 87, 0
2, 224572, Note_on_c, 0, 85, 60
2, 224612, Note_on_c, 0, 85, 0
2, 224612, Note_on_c, 0, 87, 51
2, 224668, Note_on_c, 0, 87, 0
2, 224672, Note_on_c, 0, 73, 0
2, 224676, Note_on_c, 0, 85, 61
2, 224716, Note_on_c, 0, 87, 51
2, 224720, Note_on_c, 0, 85, 0
2, 224780, Note_on_c, 0, 87, 0
2, 224792, Note_on_c, 0, 85, 54
2, 224828, Note_on_c, 0, 87, 45
2, 224836, Note_on_c, 0, 85, 0
2, 224860, Note_on_c, 0, 68, 57
2, 224860, Note_on_c, 0, 73, 52
2, 224888, Note_on_c, 0, 87, 0
2, 224904, Note_on_c, 0, 85, 67
2, 224952, Note_on_c, 0, 85, 0
2, 224960, Note_on_c, 0, 87, 60
2, 224968, Note_on_c, 0, 73, 0
2, 225004, Note_on_c, 0, 68, 0
2, 225032, Note_on_c, 0, 87, 0
2, 225032, Note_on_c, 0, 85, 51
2, 225056, Note_on_c, 0, 66, 53
2, 225080, Note_on_c, 0, 85, 0
2, 225084, Note_on_c, 0, 87, 54
2, 225128, Note_on_c, 0, 85, 52
2, 225140, Note_on_c, 0, 87, 0
2, 225174, Note_on_c, 0, 68, 49
2, 225174, Note_on_c, 0, 74, 58
2, 225200, Note_on_c, 0, 85, 0
2, 225200, Note_on_c, 0, 66, 0
2, 225216, Note_on_c, 0, 86, 64
2, 225216, Control_c, 0, 64, 72
2, 225228, Control_c, 0, 64, 0
2, 225272, Note_on_c, 0, 86, 0
2, 225272, Note_on_c, 0, 87, 53
2, 225292, Control_c, 0, 64, 127
2, 225324, Note_on_c, 0, 87, 0
2, 225332, Note_on_c, 0, 86, 69
2, 225346, Note_on_c, 0, 74, 0
2, 225364, Note_on_c, 0, 66, 51
2, 225378, Note_on_c, 0, 68, 0
2, 225380, Note_on_c, 0, 86, 0
2, 225380, Note_on_c, 0, 87, 59
2, 225432, Note_on_c, 0, 87, 0
2, 225436, Note_on_c, 0, 66, 0
2, 225436, Note_on_c, 0, 86, 68
2, 225484, Note_on_c, 0, 87, 49
2, 225488, Note_on_c, 0, 86, 0
2, 225498, Note_on_c, 0, 62, 50
2, 225536, Note_on_c, 0, 87, 0
2, 225540, Note_on_c, 0, 86, 63
2, 225588, Note_on_c, 0, 87, 52
2, 225592, Note_on_c, 0, 86, 0
2, 225644, Note_on_c, 0, 87, 0
2, 225660, Note_on_c, 0, 86, 56
2, 225666, Note_on_c, 0, 62, 0
2, 225700, Note_on_c, 0, 86, 0
2, 225704, Note_on_c, 0, 87, 61
2, 225732, Note_on_c, 0, 54, 48
2, 225756, Note_on_c, 0, 87, 0
2, 225768, Note_on_c, 0, 86, 64
2, 225800, Note_on_c, 0, 54, 0
2, 225816, Note_on_c, 0, 86, 0
2, 225816, Note_on_c, 0, 87, 53
2, 225864, Note_on_c, 0, 87, 0
2, 225872, Note_on_c, 0, 86, 61
2, 225920, Note_on_c, 0, 86, 0
2, 225920, Note_on_c, 0, 87, 53
2, 225968, Note_on_c, 0, 87, 0
2, 225988, Note_on_c, 0, 86, 47
2, 226020, Note_on_c, 0, 86, 0
2, 226020, Note_on_c, 0, 87, 49
2, 226068, Note_on_c, 0, 87, 0
2, 226092, Note_on_c, 0, 86, 53
2, 226124, Note_on_c, 0, 86, 0
2, 226124, Note_on_c, 0, 87, 57
2, 226176, Note_on_c, 0, 87, 0
2, 226180, Note_on_c, 0, 86, 40
2, 226224, Note_on_c, 0, 86, 0
2, 226236, Note_on_c, 0, 85, 61
2, 226336, Note_on_c, 0, 85, 0
2, 226344, Note_on_c, 0, 86, 65
2, 226400, Note_on_c, 0, 86, 0
2, 226484, Note_on_c, 0, 78, 69
2, 226496, Note_on_c, 0, 47, 52
2, 226496, Control_c, 0, 64, 88
2, 226508, Control_c, 0, 64, 0
2, 226572, Control_c, 0, 64, 56
2, 226584, Note_on_c, 0, 47, 0
2, 226584, Note_on_c, 0, 54, 57
2, 226584, Note_on_c, 0, 87, 72
2, 226584, Control_c, 0, 64, 127
2, 226592, Note_on_c, 0, 78, 0
2, 226652, Note_on_c, 0, 54, 0
2, 226660, Note_on_c, 0, 87, 0
2, 226668, Note_on_c, 0, 78, 69
2, 226668, Note_on_c, 0, 59, 63
2, 226720, Note_on_c, 0, 59, 0
2, 226724, Note_on_c, 0, 78, 0
2, 226772, Note_on_c, 0, 75, 69
2, 226772, Note_on_c, 0, 63, 66
2, 226832, Note_on_c, 0, 75, 0
2, 226868, Note_on_c, 0, 83, 70
2, 226916, Note_on_c, 0, 83, 0
2, 226948, Note_on_c, 0, 75, 67
2, 227012, Note_on_c, 0, 75, 0
2, 227044, Note_on_c, 0, 71, 71
2, 227100, Note_on_c, 0, 71, 0
2, 227128, Note_on_c, 0, 78, 73
2, 227200, Note_on_c, 0, 78, 0
2, 227204, Note_on_c, 0, 59, 64
2, 227208, Note_on_c, 0, 63, 0
2, 227212, Note_on_c, 0, 71, 76
2, 227240, Note_on_c, 0, 59, 0
2, 227256, Note_on_c, 0, 71, 0
2, 227300, Control_c, 0, 64, 104
2, 227308, Control_c, 0, 64, 24
2, 227316, Note_on_c, 0, 70, 85
2, 227320, Control_c, 0, 64, 0
2, 227324, Note_on_c, 0, 54, 60
2, 227376, Note_on_c, 0, 70, 0
2, 227376, Control_c, 0, 64, 104
2, 227384, Control_c, 0, 64, 127
2, 227408, Note_on_c, 0, 80, 70
2, 227476, Note_on_c, 0, 80, 0
2, 227484, Note_on_c, 0, 70, 61
2, 227524, Note_on_c, 0, 54, 0
2, 227536, Note_on_c, 0, 70, 0
2, 227580, Note_on_c, 0, 61, 56
2, 227580, Note_on_c, 0, 76, 75
2, 227632, Note_on_c, 0, 76, 0
2, 227632, Note_on_c, 0, 61, 0
2, 227664, Note_on_c, 0, 78, 71
2, 227680, Note_on_c, 0, 64, 62
2, 227704, Note_on_c, 0, 64, 0
2, 227716, Note_on_c, 0, 78, 0
2, 227748, Note_on_c, 0, 68, 69
2, 227752, Note_on_c, 0, 78, 72
2, 227800, Note_on_c, 0, 68, 0
2, 227804, Note_on_c, 0, 78, 0
2, 227848, Note_on_c, 0, 78, 73
2, 227852, Note_on_c, 0, 66, 72
2, 227912, Note_on_c, 0, 66, 0
2, 227924, Note_on_c, 0, 78, 0
2, 227940, Note_on_c, 0, 90, 75
2, 228004, Note_on_c, 0, 90, 0
2, 228020, Note_on_c, 0, 78, 74
2, 228076, Note_on_c, 0, 78, 0
2, 228128, Note_on_c, 0, 78, 71
2, 228132, Control_c, 0, 64, 72
2, 228136, Note_on_c, 0, 47, 70
2, 228144, Control_c, 0, 64, 0
2, 228176, Note_on_c, 0, 78, 0
2, 228196, Note_on_c, 0, 47, 0
2, 228212, Control_c, 0, 64, 88
2, 228216, Note_on_c, 0, 54, 60
2, 228220, Control_c, 0, 64, 127
2, 228224, Note_on_c, 0, 87, 75
2, 228284, Note_on_c, 0, 54, 0
2, 228304, Note_on_c, 0, 87, 0
2, 228304, Note_on_c, 0, 59, 66
2, 228308, Note_on_c, 0, 78, 77
2, 228360, Note_on_c, 0, 59, 0
2, 228388, Note_on_c, 0, 78, 0
2, 228396, Note_on_c, 0, 75, 77
2, 228400, Note_on_c, 0, 63, 74
2, 228468, Note_on_c, 0, 75, 0
2, 228484, Note_on_c, 0, 83, 74
2, 228544, Note_on_c, 0, 83, 0
2, 228564, Note_on_c, 0, 75, 58
2, 228608, Note_on_c, 0, 75, 0
2, 228648, Note_on_c, 0, 71, 76
2, 228700, Note_on_c, 0, 71, 0
2, 228736, Note_on_c, 0, 78, 69
2, 228792, Note_on_c, 0, 63, 0
2, 228812, Note_on_c, 0, 59, 69
2, 228816, Note_on_c, 0, 71, 69
2, 228828, Note_on_c, 0, 78, 0
2, 228864, Note_on_c, 0, 71, 0
2, 228864, Note_on_c, 0, 59, 0
2, 228908, Note_on_c, 0, 70, 79
2, 228916, Control_c, 0, 64, 104
2, 228928, Control_c, 0, 64, 24
2, 228936, Note_on_c, 0, 54, 56
2, 228936, Control_c, 0, 64, 0
2, 228980, Note_on_c, 0, 70, 0
2, 228992, Control_c, 0, 64, 88
2, 229000, Note_on_c, 0, 80, 73
2, 229000, Control_c, 0, 64, 127
2, 229064, Note_on_c, 0, 80, 0
2, 229080, Note_on_c, 0, 70, 57
2, 229120, Note_on_c, 0, 54, 0
2, 229128, Note_on_c, 0, 70, 0
2, 229168, Note_on_c, 0, 76, 75
2, 229176, Note_on_c, 0, 61, 64
2, 229220, Note_on_c, 0, 76, 0
2, 229236, Note_on_c, 0, 61, 0
2, 229256, Note_on_c, 0, 78, 72
2, 229268, Note_on_c, 0, 64, 68
2, 229304, Note_on_c, 0, 78, 0
2, 229312, Note_on_c, 0, 64, 0
2, 229344, Note_on_c, 0, 78, 67
2, 229348, Note_on_c, 0, 68, 73
2, 229392, Note_on_c, 0, 78, 0
2, 229408, Note_on_c, 0, 68, 0
2, 229440, Note_on_c, 0, 78, 77
2, 229444, Note_on_c, 0, 66, 70
2, 229492, Note_on_c, 0, 66, 0
2, 229520, Note_on_c, 0, 78, 0
2, 229528, Note_on_c, 0, 90, 86
2, 229604, Note_on_c, 0, 90, 0
2, 229616, Note_on_c, 0, 78, 72
2, 229668, Note_on_c, 0, 78, 0
2, 229704, Control_c, 0, 64, 88
2, 229716, Note_on_c, 0, 78, 69
2, 229720, Note_on_c, 0, 47, 62
2, 229720, Control_c, 0, 64, 24
2, 229728, Control_c, 0, 64, 0
2, 229768, Note_on_c, 0, 47, 0
2, 229772, Control_c, 0, 64, 56
2, 229776, Note_on_c, 0, 78, 0
2, 229784, Control_c, 0, 64, 127
2, 229804, Note_on_c, 0, 87, 77
2, 229804, Note_on_c, 0, 54, 59
2, 229864, Note_on_c, 0, 54, 0
2, 229880, Note_on_c, 0, 87, 0
2, 229884, Note_on_c, 0, 59, 62
2, 229888, Note_on_c, 0, 78, 78
2, 229944, Note_on_c, 0, 59, 0
2, 229976, Note_on_c, 0, 63, 62
2, 229980, Note_on_c, 0, 78, 0
2, 229980, Note_on_c, 0, 75, 76
2, 230008, Note_on_c, 0, 63, 0
2, 230040, Note_on_c, 0, 75, 0
2, 230064, Note_on_c, 0, 83, 76
2, 230144, Note_on_c, 0, 83, 0
2, 230148, Note_on_c, 0, 75, 64
2, 230176, Note_on_c, 0, 75, 0
2, 230236, Note_on_c, 0, 71, 73
2, 230292, Note_on_c, 0, 71, 0
2, 230320, Note_on_c, 0, 78, 69
2, 230404, Note_on_c, 0, 71, 70
2, 230472, Note_on_c, 0, 71, 0
2, 230472, Note_on_c, 0, 78, 0
2, 230496, Note_on_c, 0, 66, 69
2, 230568, Note_on_c, 0, 66, 0
2, 230588, Note_on_c, 0, 75, 68
2, 230656, Note_on_c, 0, 75, 0
2, 230664, Note_on_c, 0, 66, 68
2, 230716, Note_on_c, 0, 66, 0
2, 230756, Note_on_c, 0, 63, 67
2, 230824, Note_on_c, 0, 63, 0
2, 230856, Note_on_c, 0, 71, 69
2, 230916, Note_on_c, 0, 71, 0
2, 230932, Note_on_c, 0, 63, 65
2, 231008, Note_on_c, 0, 63, 0
2, 231028, Note_on_c, 0, 59, 65
2, 231092, Note_on_c, 0, 59, 0
2, 231116, Note_on_c, 0, 71, 66
2, 231164, Note_on_c, 0, 71, 0
2, 231204, Note_on_c, 0, 59, 71
2, 231240, Note_on_c, 0, 59, 0
2, 231280, Note_on_c, 0, 35, 71
2, 231308, Control_c, 0, 64, 72
2, 231316, Control_c, 0, 64, 0
2, 231368, Note_on_c, 0, 42, 69
2, 231396, Control_c, 0, 64, 40
2, 231404, Control_c, 0, 64, 127
2, 231460, Note_on_c, 0, 42, 0
2, 231460, Note_on_c, 0, 47, 70
2, 231472, Note_on_c, 0, 35, 0
2, 231500, Note_on_c, 0, 47, 0
2, 231556, Note_on_c, 0, 51, 71
2, 231616, Note_on_c, 0, 51, 0
2, 231648, Note_on_c, 0, 59, 72
2, 231720, Note_on_c, 0, 59, 0
2, 231736, Note_on_c, 0, 54, 69
2, 231776, Note_on_c, 0, 54, 0
2, 231836, Note_on_c, 0, 59, 67
2, 231892, Note_on_c, 0, 59, 0
2, 231928, Note_on_c, 0, 71, 72
2, 231976, Note_on_c, 0, 71, 0
2, 232016, Note_on_c, 0, 63, 73
2, 232108, Note_on_c, 0, 66, 71
2, 232116, Note_on_c, 0, 63, 0
2, 232148, Note_on_c, 0, 66, 0
2, 232200, Note_on_c, 0, 71, 81
2, 232264, Note_on_c, 0, 71, 0
2, 232292, Note_on_c, 0, 83, 81
2, 232344, Note_on_c, 0, 83, 0
2, 232380, Note_on_c, 0, 75, 77
2, 232380, Control_c, 0, 64, 104
2, 232392, Control_c, 0, 64, 72
2, 232424, Control_c, 0, 64, 127
2, 232456, Note_on_c, 0, 75, 0
2, 232464, Note_on_c, 0, 78, 77
2, 232556, Note_on_c, 0, 83, 80
2, 232568, Note_on_c, 0, 78, 0
2, 232592, Note_on_c, 0, 83, 0
2, 232652, Note_on_c, 0, 85, 72
2, 232704, Note_on_c, 0, 85, 0
2, 232740, Note_on_c, 0, 86, 81
2, 232812, Note_on_c, 0, 86, 0
2, 232836, Note_on_c, 0, 87, 79
2, 232900, Note_on_c, 0, 87, 0
2, 232932, Note_on_c, 0, 82, 80
2, 232936, Control_c, 0, 64, 88
2, 232944, Control_c, 0, 64, 0
2, 232952, Note_on_c, 0, 51, 58
2, 232996, Note_on_c, 0, 82, 0
2, 233008, Control_c, 0, 64, 56
2, 233020, Control_c, 0, 64, 127
2, 233024, Note_on_c, 0, 90, 74
2, 233036, Note_on_c, 0, 58, 60
2, 233040, Note_on_c, 0, 51, 0
2, 233096, Note_on_c, 0, 58, 0
2, 233108, Note_on_c, 0, 90, 0
2, 233108, Note_on_c, 0, 63, 65
2, 233112, Note_on_c, 0, 82, 74
2, 233164, Note_on_c, 0, 63, 0
2, 233168, Note_on_c, 0, 82, 0
2, 233204, Note_on_c, 0, 66, 73
2, 233212, Note_on_c, 0, 78, 71
2, 233264, Note_on_c, 0, 78, 0
2, 233296, Note_on_c, 0, 87, 74
2, 233376, Note_on_c, 0, 87, 0
2, 233384, Note_on_c, 0, 78, 70
2, 233448, Note_on_c, 0, 78, 0
2, 233480, Note_on_c, 0, 75, 68
2, 233556, Note_on_c, 0, 82, 69
2, 233560, Note_on_c, 0, 75, 0
2, 233592, Note_on_c, 0, 66, 0
2, 233604, Note_on_c, 0, 63, 75
2, 233636, Note_on_c, 0, 82, 0
2, 233640, Note_on_c, 0, 75, 79
2, 233696, Note_on_c, 0, 75, 0
2, 233720, Note_on_c, 0, 63, 0
2, 233724, Note_on_c, 0, 58, 67
2, 233748, Note_on_c, 0, 74, 77
2, 233748, Control_c, 0, 64, 40
2, 233760, Control_c, 0, 64, 0
2, 233796, Note_on_c, 0, 74, 0
2, 233832, Control_c, 0, 64, 104
2, 233836, Note_on_c, 0, 83, 77
2, 233844, Control_c, 0, 64, 127
2, 233900, Note_on_c, 0, 83, 0
2, 233912, Note_on_c, 0, 74, 71
2, 233956, Note_on_c, 0, 74, 0
2, 233956, Note_on_c, 0, 58, 0
2, 234000, Note_on_c, 0, 80, 79
2, 234012, Note_on_c, 0, 65, 66
2, 234068, Note_on_c, 0, 65, 0
2, 234072, Note_on_c, 0, 80, 0
2, 234088, Note_on_c, 0, 82, 74
2, 234092, Note_on_c, 0, 68, 70
2, 234140, Note_on_c, 0, 82, 0
2, 234152, Note_on_c, 0, 68, 0
2, 234176, Note_on_c, 0, 71, 76
2, 234192, Note_on_c, 0, 82, 70
2, 234236, Note_on_c, 0, 71, 0
2, 234240, Note_on_c, 0, 82, 0
2, 234276, Note_on_c, 0, 82, 77
2, 234280, Note_on_c, 0, 70, 82
2, 234280, Control_c, 0, 64, 104
2, 234288, Control_c, 0, 64, 24
2, 234300, Control_c, 0, 64, 0
2, 234340, Note_on_c, 0, 82, 0
2, 234344, Control_c, 0, 64, 24
2, 234356, Control_c, 0, 64, 127
2, 234372, Note_on_c, 0, 70, 0
2, 234372, Note_on_c, 0, 94, 75
2, 234440, Note_on_c, 0, 94, 0
2, 234460, Note_on_c, 0, 82, 75
2, 234512, Note_on_c, 0, 82, 0
2, 234564, Note_on_c, 0, 82, 76
2, 234584, Control_c, 0, 64, 56
2, 234592, Note_on_c, 0, 51, 67
2, 234592, Control_c, 0, 64, 0
2, 234624, Note_on_c, 0, 82, 0
2, 234624, Control_c, 0, 64, 56
2, 234632, Note_on_c, 0, 51, 0
2, 234636, Control_c, 0, 64, 127
2, 234652, Note_on_c, 0, 90, 74
2, 234660, Note_on_c, 0, 58, 68
2, 234732, Note_on_c, 0, 58, 0
2, 234736, Note_on_c, 0, 90, 0
2, 234744, Note_on_c, 0, 82, 70
2, 234748, Note_on_c, 0, 63, 72
2, 234816, Note_on_c, 0, 63, 0
2, 234816, Note_on_c, 0, 82, 0
2, 234832, Note_on_c, 0, 78, 77
2, 234836, Note_on_c, 0, 66, 77
2, 234896, Note_on_c, 0, 78, 0
2, 234924, Note_on_c, 0, 87, 71
2, 235000, Note_on_c, 0, 87, 0
2, 235000, Note_on_c, 0, 78, 70
2, 235064, Note_on_c, 0, 78, 0
2, 235100, Note_on_c, 0, 75, 64
2, 235156, Note_on_c, 0, 75, 0
2, 235184, Note_on_c, 0, 82, 65
2, 235228, Note_on_c, 0, 63, 65
2, 235240, Note_on_c, 0, 66, 0
2, 235252, Note_on_c, 0, 82, 0
2, 235264, Note_on_c, 0, 75, 76
2, 235320, Note_on_c, 0, 75, 0
2, 235328, Note_on_c, 0, 63, 0
2, 235352, Control_c, 0, 64, 72
2, 235360, Note_on_c, 0, 58, 65
2, 235360, Note_on_c, 0, 74, 76
2, 235364, Control_c, 0, 64, 0
2, 235424, Note_on_c, 0, 74, 0
2, 235428, Control_c, 0, 64, 24
2, 235440, Control_c, 0, 64, 104
2, 235448, Control_c, 0, 64, 127
2, 235452, Note_on_c, 0, 83, 76
2, 235524, Note_on_c, 0, 83, 0
2, 235528, Note_on_c, 0, 74, 70
2, 235568, Note_on_c, 0, 74, 0
2, 235584, Note_on_c, 0, 58, 0
2, 235624, Note_on_c, 0, 80, 73
2, 235632, Note_on_c, 0, 65, 65
2, 235680, Note_on_c, 0, 65, 0
2, 235688, Note_on_c, 0, 80, 0
2, 235712, Note_on_c, 0, 82, 70
2, 235716, Note_on_c, 0, 68, 69
2, 235760, Note_on_c, 0, 82, 0
2, 235780, Note_on_c, 0, 68, 0
2, 235800, Note_on_c, 0, 71, 77
2, 235804, Note_on_c, 0, 82, 65
2, 235856, Note_on_c, 0, 82, 0
2, 235860, Note_on_c, 0, 71, 0
2, 235896, Note_on_c, 0, 82, 73
2, 235896, Control_c, 0, 64, 104
2, 235904, Note_on_c, 0, 70, 75
2, 235904, Control_c, 0, 64, 40
2, 235916, Control_c, 0, 64, 0
2, 235948, Control_c, 0, 64, 40
2, 235960, Note_on_c, 0, 70, 0
2, 235960, Note_on_c, 0, 82, 0
2, 235960, Control_c, 0, 64, 88
2, 235972, Control_c, 0, 64, 127
2, 235996, Note_on_c, 0, 94, 74
2, 236052, Note_on_c, 0, 94, 0
2, 236076, Note_on_c, 0, 82, 75
2, 236128, Note_on_c, 0, 82, 0
2, 236164, Note_on_c, 0, 51, 64
2, 236164, Control_c, 0, 64, 56
2, 236176, Control_c, 0, 64, 0
2, 236180, Note_on_c, 0, 82, 75
2, 236208, Control_c, 0, 64, 24
2, 236220, Control_c, 0, 64, 88
2, 236224, Note_on_c, 0, 51, 0
2, 236232, Control_c, 0, 64, 127
2, 236236, Note_on_c, 0, 82, 0
2, 236252, Note_on_c, 0, 58, 65
2, 236264, Note_on_c, 0, 90, 77
2, 236308, Note_on_c, 0, 58, 0
2, 236336, Note_on_c, 0, 63, 71
2, 236344, Note_on_c, 0, 90, 0
2, 236356, Note_on_c, 0, 82, 73
2, 236408, Note_on_c, 0, 63, 0
2, 236432, Note_on_c, 0, 82, 0
2, 236440, Note_on_c, 0, 78, 78
2, 236444, Note_on_c, 0, 66, 76
2, 236496, Note_on_c, 0, 66, 0
2, 236504, Note_on_c, 0, 78, 0
2, 236528, Note_on_c, 0, 87, 74
2, 236604, Note_on_c, 0, 87, 0
2, 236608, Note_on_c, 0, 78, 67
2, 236668, Note_on_c, 0, 78, 0
2, 236704, Note_on_c, 0, 75, 73
2, 236764, Note_on_c, 0, 75, 0
2, 236788, Note_on_c, 0, 82, 67
2, 236872, Note_on_c, 0, 75, 70
2, 236904, Note_on_c, 0, 82, 0
2, 236940, Note_on_c, 0, 75, 0
2, 236960, Note_on_c, 0, 70, 73
2, 237032, Note_on_c, 0, 70, 0
2, 237056, Note_on_c, 0, 78, 65
2, 237124, Note_on_c, 0, 78, 0
2, 237132, Note_on_c, 0, 70, 67
2, 237184, Note_on_c, 0, 70, 0
2, 237228, Note_on_c, 0, 66, 61
2, 237276, Note_on_c, 0, 66, 0
2, 237312, Note_on_c, 0, 75, 73
2, 237400, Note_on_c, 0, 75, 0
2, 237400, Note_on_c, 0, 66, 61
2, 237468, Note_on_c, 0, 66, 0
2, 237484, Note_on_c, 0, 63, 59
2, 237568, Note_on_c, 0, 63, 0
2, 237576, Note_on_c, 0, 70, 58
2, 237648, Note_on_c, 0, 70, 0
2, 237656, Note_on_c, 0, 63, 63
2, 237728, Note_on_c, 0, 63, 0
2, 237748, Note_on_c, 0, 44, 69
2, 237760, Control_c, 0, 64, 104
2, 237772, Control_c, 0, 64, 24
2, 237780, Control_c, 0, 64, 0
2, 237836, Note_on_c, 0, 44, 0
2, 237840, Note_on_c, 0, 51, 67
2, 237848, Control_c, 0, 64, 72
2, 237856, Control_c, 0, 64, 127
2, 237912, Note_on_c, 0, 51, 0
2, 237932, Note_on_c, 0, 54, 63
2, 238016, Note_on_c, 0, 54, 0
2, 238016, Note_on_c, 0, 56, 62
2, 238056, Note_on_c, 0, 56, 0
2, 238108, Note_on_c, 0, 60, 70
2, 238156, Note_on_c, 0, 60, 0
2, 238188, Note_on_c, 0, 72, 74
2, 238240, Note_on_c, 0, 72, 0
2, 238272, Note_on_c, 0, 63, 65
2, 238312, Note_on_c, 0, 63, 0
2, 238364, Note_on_c, 0, 66, 62
2, 238448, Note_on_c, 0, 68, 67
2, 238468, Note_on_c, 0, 66, 0
2, 238484, Note_on_c, 0, 68, 0
2, 238540, Note_on_c, 0, 72, 85
2, 238604, Control_c, 0, 64, 56
2, 238616, Control_c, 0, 64, 40
2, 238628, Control_c, 0, 64, 56
2, 238632, Note_on_c, 0, 84, 76
2, 238636, Control_c, 0, 64, 104
2, 238648, Control_c, 0, 64, 127
2, 238660, Note_on_c, 0, 72, 0
2, 238684, Note_on_c, 0, 84, 0
2, 238716, Note_on_c, 0, 75, 79
2, 238788, Note_on_c, 0, 75, 0
2, 238804, Note_on_c, 0, 78, 75
2, 238892, Note_on_c, 0, 80, 76
2, 238916, Note_on_c, 0, 78, 0
2, 238936, Note_on_c, 0, 80, 0
2, 238980, Note_on_c, 0, 84, 84
2, 239040, Note_on_c, 0, 84, 0
2, 239064, Note_on_c, 0, 85, 83
2, 239132, Note_on_c, 0, 85, 0
2, 239156, Note_on_c, 0, 86, 85
2, 239224, Note_on_c, 0, 86, 0
2, 239240, Note_on_c, 0, 87, 84
2, 239324, Note_on_c, 0, 87, 0
2, 239344, Note_on_c, 0, 80, 83
2, 239344, Control_c, 0, 64, 72
2, 239352, Control_c, 0, 64, 0
2, 239360, Note_on_c, 0, 49, 63
2, 239416, Note_on_c, 0, 80, 0
2, 239420, Note_on_c, 0, 49, 0
2, 239420, Control_c, 0, 64, 104
2, 239428, Control_c, 0, 64, 127
2, 239432, Note_on_c, 0, 89, 89
2, 239440, Note_on_c, 0, 56, 64
2, 239504, Note_on_c, 0, 56, 0
2, 239516, Note_on_c, 0, 89, 0
2, 239520, Note_on_c, 0, 80, 81
2, 239536, Note_on_c, 0, 61, 69
2, 239560, Note_on_c, 0, 80, 0
2, 239588, Note_on_c, 0, 61, 0
2, 239616, Note_on_c, 0, 77, 76
2, 239628, Note_on_c, 0, 65, 75
2, 239672, Note_on_c, 0, 77, 0
2, 239700, Note_on_c, 0, 85, 73
2, 239788, Note_on_c, 0, 77, 80
2, 239808, Note_on_c, 0, 85, 0
2, 239852, Note_on_c, 0, 77, 0
2, 239880, Note_on_c, 0, 73, 73
2, 239964, Note_on_c, 0, 73, 0
2, 239964, Note_on_c, 0, 80, 80
2, 240004, Note_on_c, 0, 61, 71
2, 240024, Note_on_c, 0, 65, 0
2, 240040, Note_on_c, 0, 80, 0
2, 240052, Note_on_c, 0, 73, 75
2, 240112, Note_on_c, 0, 73, 0
2, 240148, Note_on_c, 0, 56, 66
2, 240156, Note_on_c, 0, 61, 0
2, 240156, Note_on_c, 0, 72, 83
2, 240156, Control_c, 0, 64, 104
2, 240168, Control_c, 0, 64, 24
2, 240180, Control_c, 0, 64, 0
2, 240220, Note_on_c, 0, 72, 0
2, 240244, Control_c, 0, 64, 127
2, 240248, Note_on_c, 0, 82, 70
2, 240312, Note_on_c, 0, 82, 0
2, 240328, Note_on_c, 0, 72, 80
2, 240388, Note_on_c, 0, 72, 0
2, 240396, Note_on_c, 0, 56, 0
2, 240424, Note_on_c, 0, 78, 81
2, 240436, Note_on_c, 0, 63, 67
2, 240492, Note_on_c, 0, 78, 0
2, 240504, Note_on_c, 0, 63, 0
2, 240512, Note_on_c, 0, 80, 80
2, 240528, Note_on_c, 0, 66, 71
2, 240568, Note_on_c, 0, 80, 0
2, 240576, Note_on_c, 0, 66, 0
2, 240604, Note_on_c, 0, 70, 77
2, 240608, Note_on_c, 0, 80, 68
2, 240644, Note_on_c, 0, 80, 0
2, 240656, Note_on_c, 0, 70, 0
2, 240696, Note_on_c, 0, 80, 78
2, 240700, Note_on_c, 0, 68, 81
2, 240744, Note_on_c, 0, 68, 0
2, 240768, Note_on_c, 0, 80, 0
2, 240796, Note_on_c, 0, 92, 86
2, 240860, Note_on_c, 0, 92, 0
2, 240880, Note_on_c, 0, 80, 76
2, 240932, Note_on_c, 0, 80, 0
2, 240960, Control_c, 0, 64, 72
2, 240968, Note_on_c, 0, 49, 72
2, 240972, Control_c, 0, 64, 0
2, 240976, Note_on_c, 0, 80, 74
2, 241024, Note_on_c, 0, 49, 0
2, 241032, Note_on_c, 0, 80, 0
2, 241036, Control_c, 0, 64, 72
2, 241044, Control_c, 0, 64, 127
2, 241056, Note_on_c, 0, 56, 69
2, 241064, Note_on_c, 0, 89, 78
2, 241112, Note_on_c, 0, 56, 0
2, 241120, Note_on_c, 0, 89, 0
2, 241144, Note_on_c, 0, 80, 73
2, 241144, Note_on_c, 0, 61, 72
2, 241212, Note_on_c, 0, 80, 0
2, 241216, Note_on_c, 0, 61, 0
2, 241232, Control_c, 0, 64, 56
2, 241236, Note_on_c, 0, 77, 83
2, 241240, Note_on_c, 0, 65, 78
2, 241240, Control_c, 0, 64, 24
2, 241252, Control_c, 0, 64, 40
2, 241264, Control_c, 0, 64, 72
2, 241276, Control_c, 0, 64, 127
2, 241300, Note_on_c, 0, 77, 0
2, 241324, Note_on_c, 0, 85, 70
2, 241392, Note_on_c, 0, 85, 0
2, 241400, Note_on_c, 0, 77, 60
2, 241436, Note_on_c, 0, 77, 0
2, 241484, Note_on_c, 0, 73, 71
2, 241528, Note_on_c, 0, 73, 0
2, 241568, Note_on_c, 0, 80, 75
2, 241640, Note_on_c, 0, 61, 69
2, 241652, Note_on_c, 0, 73, 69
2, 241664, Note_on_c, 0, 80, 0
2, 241664, Note_on_c, 0, 65, 0
2, 241708, Note_on_c, 0, 73, 0
2, 241720, Note_on_c, 0, 61, 0
2, 241752, Note_on_c, 0, 72, 80
2, 241756, Note_on_c, 0, 56, 65
2, 241764, Control_c, 0, 64, 104
2, 241772, Control_c, 0, 64, 24
2, 241784, Control_c, 0, 64, 0
2, 241812, Note_on_c, 0, 72, 0
2, 241828, Control_c, 0, 64, 40
2, 241840, Control_c, 0, 64, 104
2, 241844, Note_on_c, 0, 82, 69
2, 241852, Control_c, 0, 64, 127
2, 241908, Note_on_c, 0, 82, 0
2, 241924, Note_on_c, 0, 72, 68
2, 241972, Note_on_c, 0, 72, 0
2, 241992, Note_on_c, 0, 56, 0
2, 242016, Note_on_c, 0, 78, 79
2, 242020, Note_on_c, 0, 63, 68
2, 242076, Note_on_c, 0, 63, 0
2, 242076, Note_on_c, 0, 78, 0
2, 242104, Note_on_c, 0, 80, 78
2, 242112, Note_on_c, 0, 66, 73
2, 242160, Note_on_c, 0, 66, 0
2, 242160, Note_on_c, 0, 80, 0
2, 242196, Note_on_c, 0, 70, 80
2, 242196, Note_on_c, 0, 80, 67
2, 242244, Note_on_c, 0, 70, 0
2, 242248, Note_on_c, 0, 80, 0
2, 242284, Note_on_c, 0, 80, 81
2, 242292, Note_on_c, 0, 68, 77
2, 242340, Note_on_c, 0, 68, 0
2, 242356, Note_on_c, 0, 80, 0
2, 242388, Note_on_c, 0, 92, 86
2, 242452, Note_on_c, 0, 92, 0
2, 242472, Note_on_c, 0, 80, 80
2, 242528, Note_on_c, 0, 80, 0
2, 242556, Control_c, 0, 64, 56
2, 242564, Note_on_c, 0, 49, 69
2, 242564, Control_c, 0, 64, 0
2, 242568, Note_on_c, 0, 80, 78
2, 242620, Control_c, 0, 64, 56
2, 242628, Note_on_c, 0, 80, 0
2, 242628, Note_on_c, 0, 49, 0
2, 242632, Control_c, 0, 64, 127
2, 242656, Note_on_c, 0, 56, 63
2, 242660, Note_on_c, 0, 89, 78
2, 242716, Note_on_c, 0, 89, 0
2, 242716, Note_on_c, 0, 56, 0
2, 242740, Note_on_c, 0, 80, 77
2, 242744, Note_on_c, 0, 61, 63
2, 242800, Note_on_c, 0, 61, 0
2, 242820, Note_on_c, 0, 80, 0
2, 242828, Note_on_c, 0, 77, 82
2, 242836, Note_on_c, 0, 65, 66
2, 242876, Note_on_c, 0, 65, 0
2, 242892, Note_on_c, 0, 77, 0
2, 242916, Note_on_c, 0, 85, 72
2, 242992, Note_on_c, 0, 85, 0
2, 242996, Note_on_c, 0, 77, 71
2, 243044, Note_on_c, 0, 77, 0
2, 243088, Note_on_c, 0, 73, 75
2, 243140, Note_on_c, 0, 73, 0
2, 243168, Note_on_c, 0, 80, 77
2, 243256, Note_on_c, 0, 73, 72
2, 243320, Note_on_c, 0, 73, 0
2, 243336, Note_on_c, 0, 80, 0
2, 243340, Note_on_c, 0, 68, 73
2, 243348, Control_c, 0, 64, 104
2, 243356, Control_c, 0, 64, 72
2, 243368, Control_c, 0, 64, 56
2, 243376, Control_c, 0, 64, 72
2, 243388, Control_c, 0, 64, 88
2, 243400, Control_c, 0, 64, 127
2, 243416, Note_on_c, 0, 68, 0
2, 243428, Note_on_c, 0, 77, 74
2, 243496, Note_on_c, 0, 77, 0
2, 243504, Note_on_c, 0, 68, 64
2, 243540, Note_on_c, 0, 68, 0
2, 243608, Note_on_c, 0, 65, 63
2, 243648, Note_on_c, 0, 65, 0
2, 243688, Note_on_c, 0, 73, 71
2, 243768, Note_on_c, 0, 73, 0
2, 243772, Note_on_c, 0, 65, 74
2, 243844, Note_on_c, 0, 65, 0
2, 243856, Note_on_c, 0, 61, 74
2, 243928, Note_on_c, 0, 61, 0
2, 243940, Note_on_c, 0, 68, 65
2, 244008, Note_on_c, 0, 68, 0
2, 244016, Note_on_c, 0, 61, 74
2, 244048, Note_on_c, 0, 61, 0
2, 244112, Note_on_c, 0, 56, 77
2, 244124, Note_on_c, 0, 37, 62
2, 244164, Control_c, 0, 64, 88
2, 244176, Control_c, 0, 64, 0
2, 244184, Note_on_c, 0, 56, 0
2, 244208, Note_on_c, 0, 65, 73
2, 244232, Control_c, 0, 64, 40
2, 244240, Control_c, 0, 64, 104
2, 244252, Control_c, 0, 64, 127
2, 244280, Note_on_c, 0, 65, 0
2, 244284, Note_on_c, 0, 56, 75
2, 244364, Note_on_c, 0, 56, 0
2, 244384, Note_on_c, 0, 53, 83
2, 244452, Note_on_c, 0, 53, 0
2, 244464, Note_on_c, 0, 61, 67
2, 244540, Note_on_c, 0, 61, 0
2, 244544, Note_on_c, 0, 53, 78
2, 244608, Note_on_c, 0, 53, 0
2, 244656, Note_on_c, 0, 49, 79
2, 244708, Note_on_c, 0, 49, 0
2, 244740, Note_on_c, 0, 37, 0
2, 244912, Control_c, 0, 64, 104
2, 244924, Note_on_c, 0, 53, 84
2, 244924, Control_c, 0, 64, 24
2, 244932, Note_on_c, 0, 49, 82
2, 244936, Control_c, 0, 64, 0
2, 244992, Note_on_c, 0, 53, 0
2, 244992, Control_c, 0, 64, 40
2, 245000, Control_c, 0, 64, 127
2, 245020, Note_on_c, 0, 59, 73
2, 245124, Note_on_c, 0, 65, 74
2, 245128, Note_on_c, 0, 59, 0
2, 245152, Note_on_c, 0, 65, 0
2, 245208, Note_on_c, 0, 65, 76
2, 245264, Note_on_c, 0, 65, 0
2, 245300, Note_on_c, 0, 71, 71
2, 245392, Note_on_c, 0, 77, 78
2, 245396, Note_on_c, 0, 71, 0
2, 245412, Note_on_c, 0, 77, 0
2, 245476, Note_on_c, 0, 77, 86
2, 245484, Note_on_c, 0, 37, 54
2, 245532, Note_on_c, 0, 77, 0
2, 245552, Note_on_c, 0, 83, 84
2, 245560, Note_on_c, 0, 37, 0
2, 245596, Note_on_c, 0, 49, 0
2, 245644, Note_on_c, 0, 89, 82
2, 245648, Note_on_c, 0, 83, 0
2, 245680, Note_on_c, 0, 89, 0
2, 245704, Control_c, 0, 64, 40
2, 245716, Control_c, 0, 64, 0
2, 245732, Note_on_c, 0, 84, 96
2, 245748, Note_on_c, 0, 48, 75
2, 245748, Note_on_c, 0, 36, 64
2, 245780, Note_on_c, 0, 36, 0
2, 245784, Control_c, 0, 64, 88
2, 245792, Control_c, 0, 64, 127
2, 245804, Note_on_c, 0, 48, 0
2, 245808, Note_on_c, 0, 84, 0
2, 245832, Note_on_c, 0, 88, 87
2, 245904, Note_on_c, 0, 88, 0
2, 245916, Note_on_c, 0, 84, 85
2, 245984, Note_on_c, 0, 84, 0
2, 246016, Note_on_c, 0, 85, 88
2, 246032, Control_c, 0, 64, 104
2, 246040, Note_on_c, 0, 76, 72
2, 246052, Control_c, 0, 64, 127
2, 246084, Note_on_c, 0, 85, 0
2, 246108, Note_on_c, 0, 91, 81
2, 246160, Note_on_c, 0, 76, 0
2, 246168, Note_on_c, 0, 82, 60
2, 246188, Note_on_c, 0, 85, 81
2, 246192, Note_on_c, 0, 91, 0
2, 246232, Note_on_c, 0, 82, 0
2, 246272, Note_on_c, 0, 85, 0
2, 246292, Note_on_c, 0, 84, 87
2, 246292, Control_c, 0, 64, 72
2, 246296, Note_on_c, 0, 77, 78
2, 246304, Control_c, 0, 64, 24
2, 246312, Control_c, 0, 64, 0
2, 246324, Control_c, 0, 64, 40
2, 246336, Control_c, 0, 64, 88
2, 246344, Control_c, 0, 64, 127
2, 246356, Note_on_c, 0, 84, 0
2, 246372, Note_on_c, 0, 92, 81
2, 246396, Note_on_c, 0, 77, 0
2, 246428, Note_on_c, 0, 80, 60
2, 246464, Note_on_c, 0, 84, 80
2, 246496, Note_on_c, 0, 80, 0
2, 246496, Note_on_c, 0, 92, 0
2, 246540, Note_on_c, 0, 84, 0
2, 246560, Note_on_c, 0, 82, 78
2, 246560, Note_on_c, 0, 72, 67
2, 246564, Control_c, 0, 64, 88
2, 246572, Control_c, 0, 64, 24
2, 246580, Control_c, 0, 64, 0
2, 246592, Control_c, 0, 64, 24
2, 246604, Control_c, 0, 64, 72
2, 246612, Control_c, 0, 64, 127
2, 246632, Note_on_c, 0, 82, 0
2, 246648, Note_on_c, 0, 88, 82
2, 246664, Note_on_c, 0, 72, 0
2, 246684, Note_on_c, 0, 79, 58
2, 246704, Note_on_c, 0, 79, 0
2, 246732, Note_on_c, 0, 88, 0
2, 246736, Note_on_c, 0, 82, 77
2, 246816, Note_on_c, 0, 82, 0
2, 246824, Note_on_c, 0, 80, 82
2, 246824, Note_on_c, 0, 65, 59
2, 246832, Control_c, 0, 64, 72
2, 246840, Control_c, 0, 64, 0
2, 246872, Control_c, 0, 64, 104
2, 246884, Control_c, 0, 64, 127
2, 246896, Note_on_c, 0, 80, 0
2, 246916, Note_on_c, 0, 89, 83
2, 246944, Note_on_c, 0, 65, 0
2, 246964, Note_on_c, 0, 77, 58
2, 246988, Note_on_c, 0, 77, 0
2, 247008, Note_on_c, 0, 80, 72
2, 247012, Note_on_c, 0, 89, 0
2, 247044, Note_on_c, 0, 80, 0
2, 247092, Note_on_c, 0, 61, 65
2, 247092, Control_c, 0, 64, 88
2, 247100, Note_on_c, 0, 77, 86
2, 247100, Control_c, 0, 64, 24
2, 247112, Control_c, 0, 64, 0
2, 247132, Control_c, 0, 64, 56
2, 247144, Note_on_c, 0, 77, 0
2, 247144, Control_c, 0, 64, 104
2, 247156, Control_c, 0, 64, 127
2, 247184, Note_on_c, 0, 83, 80
2, 247208, Note_on_c, 0, 61, 0
2, 247244, Note_on_c, 0, 73, 56
2, 247252, Note_on_c, 0, 83, 0
2, 247268, Note_on_c, 0, 77, 85
2, 247308, Note_on_c, 0, 73, 0
2, 247332, Note_on_c, 0, 77, 0
2, 247356, Note_on_c, 0, 76, 85
2, 247360, Control_c, 0, 64, 104
2, 247372, Control_c, 0, 64, 56
2, 247380, Note_on_c, 0, 60, 58
2, 247384, Control_c, 0, 64, 0
2, 247404, Control_c, 0, 64, 24
2, 247416, Control_c, 0, 64, 72
2, 247424, Note_on_c, 0, 76, 0
2, 247424, Control_c, 0, 64, 127
2, 247444, Note_on_c, 0, 84, 79
2, 247448, Note_on_c, 0, 60, 0
2, 247516, Note_on_c, 0, 72, 62
2, 247544, Note_on_c, 0, 76, 80
2, 247560, Note_on_c, 0, 72, 0
2, 247560, Note_on_c, 0, 84, 0
2, 247604, Note_on_c, 0, 76, 0
2, 247632, Note_on_c, 0, 64, 73
2, 247632, Control_c, 0, 64, 72
2, 247636, Note_on_c, 0, 73, 73
2, 247644, Control_c, 0, 64, 0
2, 247688, Control_c, 0, 64, 72
2, 247696, Control_c, 0, 64, 127
2, 247700, Note_on_c, 0, 73, 0
2, 247716, Note_on_c, 0, 79, 78
2, 247724, Note_on_c, 0, 64, 0
2, 247776, Note_on_c, 0, 70, 57
2, 247788, Note_on_c, 0, 79, 0
2, 247796, Note_on_c, 0, 73, 78
2, 247840, Note_on_c, 0, 70, 0
2, 247876, Note_on_c, 0, 73, 0
2, 247884, Control_c, 0, 64, 72
2, 247892, Note_on_c, 0, 72, 87
2, 247892, Control_c, 0, 64, 0
2, 247904, Note_on_c, 0, 65, 68
2, 247936, Control_c, 0, 64, 24
2, 247948, Control_c, 0, 64, 72
2, 247952, Note_on_c, 0, 72, 0
2, 247956, Control_c, 0, 64, 127
2, 247972, Note_on_c, 0, 80, 77
2, 247976, Note_on_c, 0, 65, 0
2, 248012, Note_on_c, 0, 68, 56
2, 248060, Note_on_c, 0, 72, 76
2, 248088, Note_on_c, 0, 80, 0
2, 248092, Note_on_c, 0, 68, 0
2, 248124, Note_on_c, 0, 72, 0
2, 248132, Control_c, 0, 64, 88
2, 248144, Control_c, 0, 64, 0
2, 248148, Note_on_c, 0, 70, 73
2, 248148, Note_on_c, 0, 60, 68
2, 248196, Control_c, 0, 64, 72
2, 248208, Control_c, 0, 64, 127
2, 248220, Note_on_c, 0, 70, 0
2, 248228, Note_on_c, 0, 60, 0
2, 248244, Note_on_c, 0, 76, 78
2, 248264, Note_on_c, 0, 67, 64
2, 248304, Note_on_c, 0, 67, 0
2, 248324, Note_on_c, 0, 76, 0
2, 248328, Note_on_c, 0, 70, 73
2, 248380, Control_c, 0, 64, 88
2, 248388, Note_on_c, 0, 53, 54
2, 248392, Control_c, 0, 64, 0
2, 248412, Note_on_c, 0, 70, 0
2, 248416, Note_on_c, 0, 68, 74
2, 248436, Control_c, 0, 64, 40
2, 248444, Control_c, 0, 64, 104
2, 248456, Control_c, 0, 64, 127
2, 248484, Note_on_c, 0, 68, 0
2, 248496, Note_on_c, 0, 53, 0
2, 248504, Note_on_c, 0, 77, 82
2, 248524, Note_on_c, 0, 65, 59
2, 248556, Note_on_c, 0, 65, 0
2, 248580, Note_on_c, 0, 68, 68
2, 248592, Note_on_c, 0, 77, 0
2, 248624, Note_on_c, 0, 68, 0
2, 248652, Control_c, 0, 64, 40
2, 248664, Note_on_c, 0, 49, 64
2, 248664, Control_c, 0, 64, 0
2, 248672, Note_on_c, 0, 65, 78
2, 248708, Control_c, 0, 64, 24
2, 248716, Control_c, 0, 64, 88
2, 248720, Note_on_c, 0, 65, 0
2, 248728, Control_c, 0, 64, 127
2, 248740, Note_on_c, 0, 49, 0
2, 248752, Note_on_c, 0, 71, 74
2, 248796, Note_on_c, 0, 61, 49
2, 248820, Note_on_c, 0, 71, 0
2, 248844, Note_on_c, 0, 65, 72
2, 248852, Note_on_c, 0, 61, 0
2, 248912, Note_on_c, 0, 65, 0
2, 248924, Control_c, 0, 64, 56
2, 248928, Note_on_c, 0, 64, 83
2, 248936, Control_c, 0, 64, 0
2, 248940, Note_on_c, 0, 48, 75
2, 248976, Control_c, 0, 64, 24
2, 248988, Control_c, 0, 64, 72
2, 249000, Note_on_c, 0, 64, 0
2, 249000, Control_c, 0, 64, 127
2, 249020, Note_on_c, 0, 72, 79
2, 249048, Note_on_c, 0, 48, 0
2, 249080, Note_on_c, 0, 60, 62
2, 249104, Note_on_c, 0, 64, 77
2, 249116, Note_on_c, 0, 72, 0
2, 249128, Note_on_c, 0, 60, 0
2, 249168, Note_on_c, 0, 64, 0
2, 249184, Control_c, 0, 64, 104
2, 249196, Note_on_c, 0, 61, 75
2, 249196, Control_c, 0, 64, 24
2, 249204, Note_on_c, 0, 52, 73
2, 249204, Control_c, 0, 64, 0
2, 249208, Note_on_c, 0, 64, 43
2, 249232, Note_on_c, 0, 64, 0
2, 249260, Control_c, 0, 64, 72
2, 249268, Note_on_c, 0, 61, 0
2, 249272, Control_c, 0, 64, 104
2, 249276, Note_on_c, 0, 52, 0
2, 249280, Control_c, 0, 64, 127
2, 249288, Note_on_c, 0, 67, 74
2, 249328, Note_on_c, 0, 58, 40
2, 249368, Note_on_c, 0, 67, 0
2, 249368, Note_on_c, 0, 61, 78
2, 249384, Note_on_c, 0, 58, 0
2, 249444, Control_c, 0, 64, 56
2, 249452, Note_on_c, 0, 61, 0
2, 249456, Control_c, 0, 64, 0
2, 249464, Note_on_c, 0, 60, 78
2, 249464, Note_on_c, 0, 53, 72
2, 249508, Control_c, 0, 64, 56
2, 249520, Control_c, 0, 64, 127
2, 249524, Note_on_c, 0, 60, 0
2, 249536, Note_on_c, 0, 53, 0
2, 249548, Note_on_c, 0, 68, 73
2, 249576, Note_on_c, 0, 56, 55
2, 249632, Note_on_c, 0, 60, 74
2, 249648, Note_on_c, 0, 68, 0
2, 249652, Note_on_c, 0, 56, 0
2, 249684, Control_c, 0, 64, 88
2, 249692, Control_c, 0, 64, 0
2, 249696, Note_on_c, 0, 60, 0
2, 249708, Note_on_c, 0, 48, 78
2, 249720, Note_on_c, 0, 58, 69
2, 249756, Control_c, 0, 64, 56
2, 249768, Control_c, 0, 64, 104
2, 249780, Control_c, 0, 64, 127
2, 249788, Note_on_c, 0, 58, 0
2, 249792, Note_on_c, 0, 48, 0
2, 249812, Note_on_c, 0, 64, 80
2, 249828, Note_on_c, 0, 55, 63
2, 249856, Note_on_c, 0, 55, 0
2, 249896, Note_on_c, 0, 58, 76
2, 249900, Note_on_c, 0, 64, 0
2, 249944, Control_c, 0, 64, 56
2, 249952, Control_c, 0, 64, 0
2, 249968, Note_on_c, 0, 41, 60
2, 249980, Note_on_c, 0, 58, 0
2, 249984, Note_on_c, 0, 56, 83
2, 250008, Control_c, 0, 64, 72
2, 250020, Control_c, 0, 64, 127
2, 250056, Note_on_c, 0, 56, 0
2, 250072, Note_on_c, 0, 65, 77
2, 250084, Note_on_c, 0, 41, 0
2, 250084, Note_on_c, 0, 53, 66
2, 250108, Note_on_c, 0, 53, 0
2, 250140, Note_on_c, 0, 56, 68
2, 250160, Note_on_c, 0, 65, 0
2, 250188, Note_on_c, 0, 56, 0
2, 250212, Control_c, 0, 64, 56
2, 250220, Note_on_c, 0, 37, 72
2, 250224, Control_c, 0, 64, 0
2, 250244, Note_on_c, 0, 53, 79
2, 250280, Control_c, 0, 64, 40
2, 250288, Note_on_c, 0, 53, 0
2, 250288, Control_c, 0, 64, 104
2, 250300, Control_c, 0, 64, 127
2, 250324, Note_on_c, 0, 59, 77
2, 250340, Note_on_c, 0, 56, 42
2, 250352, Note_on_c, 0, 37, 0
2, 250360, Note_on_c, 0, 56, 0
2, 250364, Note_on_c, 0, 49, 62
2, 250392, Note_on_c, 0, 59, 0
2, 250408, Note_on_c, 0, 53, 86
2, 250428, Note_on_c, 0, 49, 0
2, 250484, Note_on_c, 0, 53, 0
2, 250508, Control_c, 0, 64, 56
2, 250516, Control_c, 0, 64, 0
2, 250532, Note_on_c, 0, 60, 84
2, 250552, Note_on_c, 0, 48, 82
2, 250552, Note_on_c, 0, 36, 68
2, 250552, Note_on_c, 0, 52, 68
2, 250576, Note_on_c, 0, 52, 0
2, 250624, Control_c, 0, 64, 72
2, 250636, Control_c, 0, 64, 127
2, 250680, Note_on_c, 0, 36, 0
2, 250688, Note_on_c, 0, 48, 0
2, 250704, Note_on_c, 0, 60, 0
2, 252260, Note_on_c, 0, 60, 70
2, 252280, Note_on_c, 0, 48, 70
2, 252300, Control_c, 0, 64, 24
2, 252312, Control_c, 0, 64, 56
2, 252324, Control_c, 0, 64, 88
2, 252350, Note_on_c, 0, 60, 0
2, 252356, Note_on_c, 0, 67, 77
2, 252370, Note_on_c, 0, 48, 0
2, 252376, Control_c, 0, 64, 127
2, 252380, Note_on_c, 0, 55, 46
2, 252408, Note_on_c, 0, 55, 0
2, 252420, Note_on_c, 0, 67, 0
2, 252448, Note_on_c, 0, 72, 88
2, 252452, Note_on_c, 0, 60, 47
2, 252540, Note_on_c, 0, 72, 0
2, 252544, Note_on_c, 0, 60, 0
2, 252548, Note_on_c, 0, 64, 56
2, 252552, Note_on_c, 0, 76, 71
2, 252592, Control_c, 0, 64, 56
2, 252604, Control_c, 0, 64, 0
2, 252684, Control_c, 0, 64, 24
2, 252696, Control_c, 0, 64, 56
2, 252708, Control_c, 0, 64, 104
2, 252720, Control_c, 0, 64, 127
2, 252940, Note_on_c, 0, 76, 0
2, 252968, Note_on_c, 0, 64, 0
2, 252988, Note_on_c, 0, 72, 81
2, 252992, Note_on_c, 0, 60, 53
2, 253020, Note_on_c, 0, 60, 0
2, 253040, Note_on_c, 0, 72, 0
2, 253088, Control_c, 0, 64, 88
2, 253104, Control_c, 0, 64, 40
2, 253116, Control_c, 0, 64, 0
2, 253124, Note_on_c, 0, 61, 82
2, 253132, Note_on_c, 0, 49, 61
2, 253192, Note_on_c, 0, 61, 0
2, 253204, Note_on_c, 0, 49, 0
2, 253208, Control_c, 0, 64, 24
2, 253220, Control_c, 0, 64, 88
2, 253232, Control_c, 0, 64, 127
2, 253416, Note_on_c, 0, 67, 70
2, 253432, Note_on_c, 0, 55, 55
2, 253456, Note_on_c, 0, 55, 0
2, 253464, Note_on_c, 0, 67, 0
2, 253512, Note_on_c, 0, 71, 79
2, 253512, Note_on_c, 0, 59, 52
2, 253560, Note_on_c, 0, 71, 0
2, 253572, Note_on_c, 0, 59, 0
2, 253596, Note_on_c, 0, 79, 80
2, 253608, Note_on_c, 0, 67, 47
2, 253664, Note_on_c, 0, 79, 0
2, 253688, Note_on_c, 0, 67, 0
2, 253692, Note_on_c, 0, 77, 86
2, 253724, Note_on_c, 0, 65, 51
2, 253748, Note_on_c, 0, 65, 0
2, 253752, Note_on_c, 0, 77, 0
2, 253908, Control_c, 0, 64, 104
2, 253920, Control_c, 0, 64, 56
2, 253932, Control_c, 0, 64, 0
2, 253960, Note_on_c, 0, 60, 73
2, 253972, Note_on_c, 0, 48, 61
2, 253996, Note_on_c, 0, 48, 0
2, 254004, Note_on_c, 0, 60, 0
2, 254008, Control_c, 0, 64, 40
2, 254024, Control_c, 0, 64, 104
2, 254036, Control_c, 0, 64, 127
2, 254052, Note_on_c, 0, 67, 81
2, 254060, Note_on_c, 0, 55, 60
2, 254092, Note_on_c, 0, 55, 0
2, 254100, Note_on_c, 0, 67, 0
2, 254140, Note_on_c, 0, 72, 89
2, 254148, Note_on_c, 0, 60, 54
2, 254212, Note_on_c, 0, 72, 0
2, 254244, Note_on_c, 0, 76, 83
2, 254248, Note_on_c, 0, 60, 0
2, 254252, Note_on_c, 0, 64, 60
2, 254280, Control_c, 0, 64, 72
2, 254292, Control_c, 0, 64, 0
2, 254356, Control_c, 0, 64, 40
2, 254368, Control_c, 0, 64, 88
2, 254380, Control_c, 0, 64, 127
2, 254620, Note_on_c, 0, 64, 0
2, 254624, Note_on_c, 0, 76, 0
2, 254672, Note_on_c, 0, 72, 74
2, 254672, Note_on_c, 0, 60, 54
2, 254700, Note_on_c, 0, 60, 0
2, 254724, Note_on_c, 0, 72, 0
2, 254776, Control_c, 0, 64, 88
2, 254792, Control_c, 0, 64, 24
2, 254804, Control_c, 0, 64, 0
2, 254816, Note_on_c, 0, 55, 76
2, 254820, Note_on_c, 0, 43, 67
2, 254876, Note_on_c, 0, 43, 0
2, 254904, Control_c, 0, 64, 88
2, 254912, Note_on_c, 0, 55, 0
2, 254916, Control_c, 0, 64, 127
2, 255096, Note_on_c, 0, 67, 63
2, 255108, Note_on_c, 0, 55, 60
2, 255132, Note_on_c, 0, 55, 0
2, 255152, Note_on_c, 0, 67, 0
2, 255188, Note_on_c, 0, 71, 76
2, 255196, Note_on_c, 0, 59, 55
2, 255252, Note_on_c, 0, 71, 0
2, 255264, Note_on_c, 0, 59, 0
2, 255284, Note_on_c, 0, 76, 76
2, 255288, Note_on_c, 0, 67, 54
2, 255360, Note_on_c, 0, 67, 0
2, 255372, Note_on_c, 0, 76, 0
2, 255388, Note_on_c, 0, 74, 76
2, 255396, Note_on_c, 0, 65, 62
2, 255420, Note_on_c, 0, 65, 0
2, 255440, Note_on_c, 0, 74, 0
2, 255608, Control_c, 0, 64, 88
2, 255620, Control_c, 0, 64, 24
2, 255636, Control_c, 0, 64, 0
2, 255664, Note_on_c, 0, 60, 65
2, 255684, Note_on_c, 0, 48, 48
2, 255704, Note_on_c, 0, 60, 0
2, 255712, Note_on_c, 0, 48, 0
2, 255712, Control_c, 0, 64, 40
2, 255724, Control_c, 0, 64, 88
2, 255736, Control_c, 0, 64, 127
2, 255756, Note_on_c, 0, 67, 74
2, 255768, Note_on_c, 0, 55, 41
2, 255808, Note_on_c, 0, 55, 0
2, 255812, Note_on_c, 0, 67, 0
2, 255836, Note_on_c, 0, 60, 55
2, 255844, Note_on_c, 0, 72, 80
2, 255936, Note_on_c, 0, 72, 0
2, 255936, Note_on_c, 0, 60, 0
2, 255944, Note_on_c, 0, 76, 82
2, 255948, Note_on_c, 0, 64, 55
2, 255980, Note_on_c, 0, 64, 0
2, 256288, Note_on_c, 0, 76, 0
2, 256396, Note_on_c, 0, 60, 61
2, 256396, Note_on_c, 0, 72, 76
2, 256424, Note_on_c, 0, 60, 0
2, 256452, Note_on_c, 0, 72, 0
2, 256552, Note_on_c, 0, 61, 69
2, 256568, Note_on_c, 0, 49, 52
2, 256568, Control_c, 0, 64, 88
2, 256580, Control_c, 0, 64, 0
2, 256680, Note_on_c, 0, 49, 0
2, 256680, Note_on_c, 0, 61, 0
2, 256680, Control_c, 0, 64, 88
2, 256696, Control_c, 0, 64, 127
2, 256856, Note_on_c, 0, 67, 61
2, 256860, Note_on_c, 0, 55, 53
2, 256896, Note_on_c, 0, 55, 0
2, 256896, Note_on_c, 0, 67, 0
2, 256948, Note_on_c, 0, 71, 70
2, 256956, Note_on_c, 0, 59, 49
2, 257000, Note_on_c, 0, 71, 0
2, 257004, Note_on_c, 0, 59, 0
2, 257028, Note_on_c, 0, 79, 70
2, 257044, Note_on_c, 0, 67, 44
2, 257108, Note_on_c, 0, 79, 0
2, 257112, Note_on_c, 0, 67, 0
2, 257140, Note_on_c, 0, 77, 78
2, 257148, Note_on_c, 0, 65, 56
2, 257176, Note_on_c, 0, 65, 0
2, 257200, Note_on_c, 0, 77, 0
2, 257372, Control_c, 0, 64, 104
2, 257384, Control_c, 0, 64, 24
2, 257396, Control_c, 0, 64, 0
2, 257408, Note_on_c, 0, 60, 68
2, 257412, Note_on_c, 0, 48, 62
2, 257436, Note_on_c, 0, 48, 0
2, 257460, Note_on_c, 0, 60, 0
2, 257472, Control_c, 0, 64, 72
2, 257488, Control_c, 0, 64, 127
2, 257508, Note_on_c, 0, 67, 67
2, 257512, Note_on_c, 0, 55, 47
2, 257544, Note_on_c, 0, 55, 0
2, 257568, Note_on_c, 0, 67, 0
2, 257588, Note_on_c, 0, 72, 79
2, 257596, Note_on_c, 0, 60, 45
2, 257680, Note_on_c, 0, 72, 0
2, 257704, Note_on_c, 0, 60, 0
2, 257704, Note_on_c, 0, 76, 73
2, 257716, Note_on_c, 0, 64, 54
2, 257780, Control_c, 0, 64, 56
2, 257796, Control_c, 0, 64, 0
2, 257856, Control_c, 0, 64, 24
2, 257872, Control_c, 0, 64, 88
2, 257884, Control_c, 0, 64, 127
2, 258092, Note_on_c, 0, 76, 0
2, 258132, Note_on_c, 0, 64, 0
2, 258140, Note_on_c, 0, 60, 47
2, 258148, Note_on_c, 0, 72, 64
2, 258168, Note_on_c, 0, 60, 0
2, 258172, Note_on_c, 0, 72, 0
2, 258252, Control_c, 0, 64, 104
2, 258268, Control_c, 0, 64, 40
2, 258280, Control_c, 0, 64, 0
2, 258284, Note_on_c, 0, 55, 70
2, 258300, Note_on_c, 0, 43, 56
2, 258356, Control_c, 0, 64, 40
2, 258364, Note_on_c, 0, 43, 0
2, 258368, Control_c, 0, 64, 127
2, 258396, Note_on_c, 0, 55, 0
2, 258572, Note_on_c, 0, 67, 62
2, 258588, Note_on_c, 0, 55, 52
2, 258612, Note_on_c, 0, 67, 0
2, 258616, Note_on_c, 0, 55, 0
2, 258664, Note_on_c, 0, 71, 70
2, 258676, Note_on_c, 0, 59, 50
2, 258720, Note_on_c, 0, 71, 0
2, 258736, Note_on_c, 0, 59, 0
2, 258752, Note_on_c, 0, 76, 63
2, 258772, Note_on_c, 0, 67, 50
2, 258828, Note_on_c, 0, 76, 0
2, 258844, Note_on_c, 0, 74, 74
2, 258856, Note_on_c, 0, 67, 0
2, 258864, Note_on_c, 0, 65, 62
2, 258888, Note_on_c, 0, 65, 0
2, 258908, Note_on_c, 0, 74, 0
2, 259096, Control_c, 0, 64, 72
2, 259108, Control_c, 0, 64, 0
2, 259132, Note_on_c, 0, 60, 61
2, 259140, Note_on_c, 0, 48, 60
2, 259164, Note_on_c, 0, 48, 0
2, 259180, Note_on_c, 0, 60, 0
2, 259184, Control_c, 0, 64, 40
2, 259200, Control_c, 0, 64, 88
2, 259212, Control_c, 0, 64, 127
2, 259220, Note_on_c, 0, 67, 67
2, 259236, Note_on_c, 0, 55, 53
2, 259268, Note_on_c, 0, 55, 0
2, 259284, Note_on_c, 0, 67, 0
2, 259320, Note_on_c, 0, 72, 77
2, 259324, Note_on_c, 0, 60, 51
2, 259400, Note_on_c, 0, 72, 0
2, 259420, Note_on_c, 0, 60, 0
2, 259428, Note_on_c, 0, 76, 72
2, 259428, Note_on_c, 0, 64, 54
2, 259780, Note_on_c, 0, 76, 0
2, 259864, Note_on_c, 0, 72, 70
2, 259864, Note_on_c, 0, 60, 46
2, 259868, Note_on_c, 0, 64, 0
2, 259896, Note_on_c, 0, 60, 0
2, 259916, Note_on_c, 0, 72, 0
2, 259968, Control_c, 0, 64, 88
2, 259980, Control_c, 0, 64, 0
2, 259996, Note_on_c, 0, 55, 66
2, 260004, Note_on_c, 0, 43, 67
2, 260056, Control_c, 0, 64, 40
2, 260064, Note_on_c, 0, 55, 0
2, 260068, Note_on_c, 0, 43, 0
2, 260068, Control_c, 0, 64, 104
2, 260080, Control_c, 0, 64, 127
2, 260284, Note_on_c, 0, 67, 57
2, 260296, Note_on_c, 0, 55, 53
2, 260336, Note_on_c, 0, 55, 0
2, 260336, Note_on_c, 0, 67, 0
2, 260384, Note_on_c, 0, 71, 68
2, 260388, Note_on_c, 0, 59, 42
2, 260444, Note_on_c, 0, 71, 0
2, 260452, Note_on_c, 0, 59, 0
2, 260476, Note_on_c, 0, 76, 61
2, 260496, Note_on_c, 0, 67, 49
2, 260568, Note_on_c, 0, 76, 0
2, 260580, Note_on_c, 0, 74, 70
2, 260584, Note_on_c, 0, 67, 0
2, 260596, Note_on_c, 0, 65, 44
2, 260624, Note_on_c, 0, 65, 0
2, 260640, Note_on_c, 0, 74, 0
2, 260836, Control_c, 0, 64, 56
2, 260848, Control_c, 0, 64, 0
2, 260860, Note_on_c, 0, 60, 58
2, 260868, Note_on_c, 0, 48, 58
2, 260892, Note_on_c, 0, 48, 0
2, 260892, Note_on_c, 0, 60, 0
2, 260912, Control_c, 0, 64, 56
2, 260924, Control_c, 0, 64, 127
2, 260956, Note_on_c, 0, 67, 69
2, 260960, Note_on_c, 0, 55, 57
2, 260992, Note_on_c, 0, 55, 0
2, 261020, Note_on_c, 0, 67, 0
2, 261052, Note_on_c, 0, 72, 79
2, 261056, Note_on_c, 0, 60, 44
2, 261132, Note_on_c, 0, 72, 0
2, 261156, Note_on_c, 0, 60, 0
2, 261164, Note_on_c, 0, 76, 71
2, 261164, Note_on_c, 0, 64, 53
2, 261192, Control_c, 0, 64, 72
2, 261204, Control_c, 0, 64, 24
2, 261220, Control_c, 0, 64, 0
2, 261256, Control_c, 0, 64, 72
2, 261268, Control_c, 0, 64, 127
2, 261528, Note_on_c, 0, 76, 0
2, 261552, Note_on_c, 0, 64, 0
2, 261612, Note_on_c, 0, 60, 51
2, 261612, Note_on_c, 0, 72, 60
2, 261640, Note_on_c, 0, 60, 0
2, 261648, Note_on_c, 0, 72, 0
2, 261756, Control_c, 0, 64, 72
2, 261764, Note_on_c, 0, 55, 53
2, 261764, Control_c, 0, 64, 24
2, 261772, Note_on_c, 0, 43, 52
2, 261780, Control_c, 0, 64, 0
2, 261832, Note_on_c, 0, 43, 0
2, 261844, Control_c, 0, 64, 56
2, 261856, Control_c, 0, 64, 127
2, 261864, Note_on_c, 0, 55, 0
2, 262048, Note_on_c, 0, 67, 58
2, 262048, Note_on_c, 0, 55, 54
2, 262084, Note_on_c, 0, 55, 0
2, 262100, Note_on_c, 0, 67, 0
2, 262132, Note_on_c, 0, 59, 50
2, 262140, Note_on_c, 0, 71, 68
2, 262200, Note_on_c, 0, 71, 0
2, 262208, Note_on_c, 0, 59, 0
2, 262236, Note_on_c, 0, 76, 70
2, 262256, Note_on_c, 0, 67, 28
2, 262320, Note_on_c, 0, 76, 0
2, 262340, Note_on_c, 0, 67, 0
2, 262340, Note_on_c, 0, 74, 74
2, 262348, Note_on_c, 0, 65, 51
2, 262380, Note_on_c, 0, 65, 0
2, 262400, Note_on_c, 0, 74, 0
2, 262600, Note_on_c, 0, 67, 59
2, 262620, Note_on_c, 0, 55, 44
2, 262660, Note_on_c, 0, 67, 0
2, 262684, Note_on_c, 0, 55, 0
2, 262704, Note_on_c, 0, 71, 62
2, 262716, Note_on_c, 0, 59, 45
2, 262772, Note_on_c, 0, 59, 0
2, 262772, Note_on_c, 0, 71, 0
2, 262804, Note_on_c, 0, 76, 74
2, 262812, Note_on_c, 0, 67, 45
2, 262900, Note_on_c, 0, 67, 0
2, 262900, Note_on_c, 0, 76, 0
2, 262924, Note_on_c, 0, 74, 68
2, 262928, Note_on_c, 0, 65, 51
2, 262980, Note_on_c, 0, 65, 0
2, 262984, Note_on_c, 0, 74, 0
2, 263188, Note_on_c, 0, 79, 70
2, 263208, Note_on_c, 0, 67, 40
2, 263252, Note_on_c, 0, 79, 0
2, 263280, Note_on_c, 0, 67, 0
2, 263288, Note_on_c, 0, 83, 73
2, 263312, Note_on_c, 0, 74, 46
2, 263356, Note_on_c, 0, 74, 0
2, 263356, Note_on_c, 0, 83, 0
2, 263376, Note_on_c, 0, 88, 73
2, 263416, Note_on_c, 0, 79, 31
2, 263496, Note_on_c, 0, 79, 0
2, 263500, Note_on_c, 0, 86, 74
2, 263516, Note_on_c, 0, 88, 0
2, 263532, Note_on_c, 0, 77, 45
2, 263568, Note_on_c, 0, 86, 0
2, 263572, Note_on_c, 0, 77, 0
2, 263816, Note_on_c, 0, 91, 74
2, 263844, Note_on_c, 0, 79, 42
2, 263884, Note_on_c, 0, 91, 0
2, 263912, Note_on_c, 0, 79, 0
2, 263924, Note_on_c, 0, 95, 82
2, 263944, Note_on_c, 0, 86, 49
2, 264004, Note_on_c, 0, 86, 0
2, 264008, Note_on_c, 0, 95, 0
2, 264024, Note_on_c, 0, 100, 83
2, 264048, Note_on_c, 0, 91, 45
2, 264132, Note_on_c, 0, 91, 0
2, 264140, Note_on_c, 0, 100, 0
2, 264152, Note_on_c, 0, 98, 83
2, 264172, Note_on_c, 0, 89, 58
2, 264264, Note_on_c, 0, 98, 0
2, 264272, Note_on_c, 0, 89, 0
2, 264288, Note_on_c, 0, 95, 81
2, 264296, Note_on_c, 0, 86, 53
2, 264416, Note_on_c, 0, 95, 0
2, 264428, Note_on_c, 0, 86, 0
2, 264428, Note_on_c, 0, 91, 72
2, 264444, Note_on_c, 0, 79, 49
2, 264488, Note_on_c, 0, 79, 0
2, 264532, Note_on_c, 0, 91, 0
2, 264580, Note_on_c, 0, 79, 64
2, 264580, Note_on_c, 0, 88, 78
2, 264672, Note_on_c, 0, 79, 0
2, 264712, Note_on_c, 0, 77, 60
2, 264716, Note_on_c, 0, 88, 0
2, 264724, Note_on_c, 0, 86, 74
2, 264828, Note_on_c, 0, 77, 0
2, 264836, Note_on_c, 0, 86, 0
2, 264860, Note_on_c, 0, 74, 56
2, 264864, Note_on_c, 0, 83, 66
2, 265000, Note_on_c, 0, 83, 0
2, 265016, Note_on_c, 0, 79, 66
2, 265020, Note_on_c, 0, 74, 0
2, 265032, Note_on_c, 0, 67, 36
2, 265068, Note_on_c, 0, 67, 0
2, 265096, Note_on_c, 0, 79, 0
2, 265156, Note_on_c, 0, 76, 70
2, 265156, Note_on_c, 0, 67, 54
2, 265268, Note_on_c, 0, 67, 0
2, 265304, Note_on_c, 0, 76, 0
2, 265320, Note_on_c, 0, 65, 48
2, 265320, Note_on_c, 0, 74, 68
2, 265424, Note_on_c, 0, 74, 0
2, 265432, Note_on_c, 0, 65, 0
2, 265468, Note_on_c, 0, 62, 52
2, 265472, Note_on_c, 0, 71, 62
2, 265624, Note_on_c, 0, 71, 0
2, 265632, Note_on_c, 0, 62, 0
2, 265640, Note_on_c, 0, 67, 59
2, 265644, Note_on_c, 0, 55, 36
2, 265692, Note_on_c, 0, 67, 0
2, 265700, Note_on_c, 0, 55, 0
2, 265820, Note_on_c, 0, 64, 62
2, 265820, Note_on_c, 0, 55, 52
2, 265936, Note_on_c, 0, 55, 0
2, 265976, Note_on_c, 0, 64, 0
2, 266012, Note_on_c, 0, 62, 56
2, 266012, Note_on_c, 0, 53, 42
2, 266116, Note_on_c, 0, 53, 0
2, 266208, Note_on_c, 0, 62, 0
2, 266228, Note_on_c, 0, 55, 63
2, 266240, Note_on_c, 0, 43, 46
2, 266348, Note_on_c, 0, 55, 0
2, 266372, Note_on_c, 0, 43, 0
2, 266524, Note_on_c, 0, 64, 55
2, 266524, Note_on_c, 0, 60, 45
2, 266524, Note_on_c, 0, 55, 45
2, 266524, Note_on_c, 0, 48, 42
2, 266524, Note_on_c, 0, 36, 40
2, 266656, Note_on_c, 0, 36, 0
2, 266656, Note_on_c, 0, 55, 0
2, 266656, Note_on_c, 0, 64, 0
2, 266656, Note_on_c, 0, 60, 0
2, 266656, Note_on_c, 0, 48, 0
2, 268033, Control_c, 0, 64, 0
2, 268640, Control_c, 0, 64, 88
2, 268656, Control_c, 0, 64, 127
2, 268992, Note_on_c, 0, 96, 66
2, 268992, Note_on_c, 0, 88, 43
2, 269052, Note_on_c, 0, 88, 0
2, 269072, Note_on_c, 0, 96, 0
2, 269120, Note_on_c, 0, 84, 60
2, 269120, Note_on_c, 0, 88, 64
2, 269228, Note_on_c, 0, 88, 0
2, 269228, Note_on_c, 0, 84, 0
2, 269256, Note_on_c, 0, 91, 67
2, 269256, Note_on_c, 0, 79, 46
2, 269316, Note_on_c, 0, 79, 0
2, 269364, Note_on_c, 0, 91, 0
2, 269384, Note_on_c, 0, 76, 55
2, 269384, Note_on_c, 0, 84, 65
2, 269420, Note_on_c, 0, 84, 0
2, 269432, Note_on_c, 0, 76, 0
2, 269512, Note_on_c, 0, 84, 65
2, 269536, Note_on_c, 0, 72, 47
2, 269592, Note_on_c, 0, 84, 0
2, 269628, Note_on_c, 0, 76, 62
2, 269644, Note_on_c, 0, 72, 0
2, 269656, Note_on_c, 0, 67, 45
2, 269696, Note_on_c, 0, 67, 0
2, 269760, Note_on_c, 0, 76, 0
2, 269788, Note_on_c, 0, 79, 55
2, 269792, Note_on_c, 0, 64, 51
2, 269880, Note_on_c, 0, 64, 0
2, 269908, Note_on_c, 0, 79, 0
2, 269932, Note_on_c, 0, 72, 63
2, 269932, Note_on_c, 0, 60, 44
2, 269964, Note_on_c, 0, 72, 0
2, 269972, Note_on_c, 0, 60, 0
2, 270076, Note_on_c, 0, 72, 60
2, 270092, Note_on_c, 0, 55, 50
2, 270148, Note_on_c, 0, 55, 0
2, 270172, Note_on_c, 0, 72, 0
2, 270296, Note_on_c, 0, 60, 54
2, 270308, Note_on_c, 0, 48, 47
2, 270436, Note_on_c, 0, 48, 0
2, 270464, Note_on_c, 0, 60, 0
2, 273676, Control_c, 0, 64, 56
2, 273692, Control_c, 0, 64, 104
2, 273704, Control_c, 0, 64, 127
2, 274064, Note_on_c, 0, 100, 70
2, 274088, Note_on_c, 0, 84, 38
2, 274156, Note_on_c, 0, 84, 0
2, 274176, Note_on_c, 0, 100, 0
2, 274208, Note_on_c, 0, 79, 47
2, 274216, Note_on_c, 0, 91, 64
2, 274348, Note_on_c, 0, 79, 0
2, 274352, Note_on_c, 0, 91, 0
2, 274360, Note_on_c, 0, 96, 65
2, 274372, Note_on_c, 0, 76, 44
2, 274400, Note_on_c, 0, 76, 0
2, 274488, Note_on_c, 0, 96, 0
2, 274504, Note_on_c, 0, 88, 60
2, 274516, Note_on_c, 0, 72, 49
2, 274536, Note_on_c, 0, 88, 0
2, 274576, Note_on_c, 0, 72, 0
2, 274648, Note_on_c, 0, 88, 59
2, 274652, Note_on_c, 0, 72, 42
2, 274740, Note_on_c, 0, 88, 0
2, 274788, Note_on_c, 0, 72, 0
2, 274796, Note_on_c, 0, 79, 57
2, 274824, Note_on_c, 0, 67, 45
2, 274880, Note_on_c, 0, 67, 0
2, 274936, Note_on_c, 0, 79, 0
2, 274952, Note_on_c, 0, 84, 60
2, 274952, Note_on_c, 0, 64, 48
2, 275032, Note_on_c, 0, 84, 0
2, 275036, Note_on_c, 0, 64, 0
2, 275112, Note_on_c, 0, 76, 57
2, 275112, Note_on_c, 0, 60, 46
2, 275160, Note_on_c, 0, 76, 0
2, 275284, Note_on_c, 0, 60, 0
2, 275292, Note_on_c, 0, 76, 53
2, 275292, Note_on_c, 0, 55, 46
2, 275320, Note_on_c, 0, 55, 0
2, 275332, Note_on_c, 0, 76, 0
2, 275532, Note_on_c, 0, 64, 47
2, 275532, Note_on_c, 0, 48, 43
2, 275620, Note_on_c, 0, 48, 0
2, 275640, Note_on_c, 0, 64, 0
2, 276996, Control_c, 0, 64, 40
2, 277008, Control_c, 0, 64, 56
2, 277016, Control_c, 0, 64, 72
2, 277028, Control_c, 0, 64, 88
2, 277048, Control_c, 0, 64, 104
2, 277060, Control_c, 0, 64, 127
2, 277080, Note_on_c, 0, 96, 58
2, 277084, Note_on_c, 0, 82, 39
2, 277132, Note_on_c, 0, 96, 0
2, 277164, Note_on_c, 0, 91, 67
2, 277180, Note_on_c, 0, 82, 0
2, 277208, Note_on_c, 0, 88, 42
2, 277228, Note_on_c, 0, 91, 0
2, 277244, Note_on_c, 0, 96, 70
2, 277284, Note_on_c, 0, 88, 0
2, 277296, Note_on_c, 0, 96, 0
2, 277340, Note_on_c, 0, 95, 64
2, 277356, Note_on_c, 0, 81, 32
2, 277396, Note_on_c, 0, 95, 0
2, 277412, Note_on_c, 0, 90, 65
2, 277428, Note_on_c, 0, 81, 0
2, 277456, Note_on_c, 0, 87, 27
2, 277472, Note_on_c, 0, 90, 0
2, 277496, Note_on_c, 0, 95, 68
2, 277536, Note_on_c, 0, 87, 0
2, 277556, Note_on_c, 0, 95, 0
2, 277572, Note_on_c, 0, 94, 60
2, 277576, Note_on_c, 0, 80, 42
2, 277640, Note_on_c, 0, 94, 0
2, 277644, Note_on_c, 0, 80, 0
2, 277656, Note_on_c, 0, 89, 61
2, 277680, Note_on_c, 0, 86, 43
2, 277712, Note_on_c, 0, 89, 0
2, 277728, Note_on_c, 0, 94, 59
2, 277760, Note_on_c, 0, 86, 0
2, 277788, Note_on_c, 0, 94, 0
2, 277812, Note_on_c, 0, 93, 74
2, 277812, Note_on_c, 0, 79, 41
2, 277864, Note_on_c, 0, 93, 0
2, 277892, Note_on_c, 0, 88, 53
2, 277900, Note_on_c, 0, 79, 0
2, 277932, Note_on_c, 0, 85, 31
2, 277964, Note_on_c, 0, 88, 0
2, 277972, Note_on_c, 0, 93, 69
2, 278024, Note_on_c, 0, 93, 0
2, 278036, Note_on_c, 0, 85, 0
2, 278036, Note_on_c, 0, 78, 52
2, 278044, Note_on_c, 0, 92, 71
2, 278100, Note_on_c, 0, 92, 0
2, 278120, Note_on_c, 0, 87, 64
2, 278132, Note_on_c, 0, 78, 0
2, 278176, Note_on_c, 0, 84, 43
2, 278188, Note_on_c, 0, 87, 0
2, 278196, Note_on_c, 0, 92, 71
2, 278244, Note_on_c, 0, 84, 0
2, 278252, Note_on_c, 0, 92, 0
2, 278280, Note_on_c, 0, 91, 73
2, 278308, Note_on_c, 0, 77, 41
2, 278332, Note_on_c, 0, 91, 0
2, 278360, Note_on_c, 0, 86, 62
2, 278372, Note_on_c, 0, 77, 0
2, 278396, Note_on_c, 0, 83, 33
2, 278416, Note_on_c, 0, 86, 0
2, 278440, Note_on_c, 0, 91, 74
2, 278496, Note_on_c, 0, 91, 0
2, 278504, Note_on_c, 0, 83, 0
2, 278520, Note_on_c, 0, 90, 63
2, 278532, Note_on_c, 0, 76, 39
2, 278568, Note_on_c, 0, 76, 0
2, 278580, Note_on_c, 0, 90, 0
2, 278604, Note_on_c, 0, 85, 57
2, 278644, Note_on_c, 0, 82, 28
2, 278656, Note_on_c, 0, 85, 0
2, 278672, Note_on_c, 0, 90, 67
2, 278736, Note_on_c, 0, 90, 0
2, 278736, Note_on_c, 0, 82, 0
2, 278752, Note_on_c, 0, 75, 47
2, 278760, Note_on_c, 0, 89, 72
2, 278812, Note_on_c, 0, 89, 0
2, 278820, Note_on_c, 0, 75, 0
2, 278836, Note_on_c, 0, 84, 59
2, 278860, Note_on_c, 0, 81, 40
2, 278888, Note_on_c, 0, 84, 0
2, 278916, Note_on_c, 0, 89, 76
2, 278920, Note_on_c, 0, 81, 0
2, 278936, Control_c, 0, 64, 88
2, 278944, Control_c, 0, 64, 72
2, 278956, Control_c, 0, 64, 56
2, 278964, Control_c, 0, 64, 40
2, 278968, Note_on_c, 0, 89, 0
2, 278988, Note_on_c, 0, 74, 36
2, 278992, Note_on_c, 0, 88, 68
2, 278996, Control_c, 0, 64, 72
2, 279008, Control_c, 0, 64, 104
2, 279016, Control_c, 0, 64, 127
2, 279048, Note_on_c, 0, 88, 0
2, 279072, Note_on_c, 0, 83, 64
2, 279076, Note_on_c, 0, 74, 0
2, 279112, Note_on_c, 0, 80, 30
2, 279128, Note_on_c, 0, 83, 0
2, 279148, Note_on_c, 0, 88, 67
2, 279200, Note_on_c, 0, 80, 0
2, 279208, Note_on_c, 0, 88, 0
2, 279224, Note_on_c, 0, 87, 64
2, 279232, Note_on_c, 0, 73, 39
2, 279280, Note_on_c, 0, 87, 0
2, 279296, Note_on_c, 0, 73, 0
2, 279304, Note_on_c, 0, 82, 56
2, 279328, Note_on_c, 0, 79, 44
2, 279356, Note_on_c, 0, 82, 0
2, 279372, Note_on_c, 0, 87, 61
2, 279380, Note_on_c, 0, 79, 0
2, 279436, Note_on_c, 0, 87, 0
2, 279456, Note_on_c, 0, 72, 39
2, 279460, Note_on_c, 0, 86, 70
2, 279488, Note_on_c, 0, 72, 0
2, 279504, Note_on_c, 0, 86, 0
2, 279532, Note_on_c, 0, 81, 59
2, 279544, Note_on_c, 0, 78, 36
2, 279588, Note_on_c, 0, 81, 0
2, 279612, Note_on_c, 0, 86, 71
2, 279664, Note_on_c, 0, 86, 0
2, 279676, Note_on_c, 0, 78, 0
2, 279684, Note_on_c, 0, 85, 65
2, 279688, Note_on_c, 0, 71, 29
2, 279736, Note_on_c, 0, 71, 0
2, 279744, Note_on_c, 0, 85, 0
2, 279760, Note_on_c, 0, 80, 61
2, 279788, Note_on_c, 0, 77, 36
2, 279816, Note_on_c, 0, 77, 0
2, 279820, Note_on_c, 0, 80, 0
2, 279832, Note_on_c, 0, 85, 65
2, 279896, Note_on_c, 0, 85, 0
2, 279904, Note_on_c, 0, 70, 38
2, 279916, Note_on_c, 0, 84, 71
2, 279968, Note_on_c, 0, 84, 0
2, 279968, Note_on_c, 0, 70, 0
2, 279992, Note_on_c, 0, 79, 60
2, 280004, Note_on_c, 0, 76, 41
2, 280052, Note_on_c, 0, 79, 0
2, 280076, Note_on_c, 0, 84, 65
2, 280104, Note_on_c, 0, 76, 0
2, 280140, Note_on_c, 0, 84, 0
2, 280148, Note_on_c, 0, 69, 28
2, 280156, Note_on_c, 0, 83, 64
2, 280212, Note_on_c, 0, 83, 0
2, 280228, Note_on_c, 0, 78, 61
2, 280236, Note_on_c, 0, 69, 0
2, 280260, Note_on_c, 0, 75, 35
2, 280292, Note_on_c, 0, 78, 0
2, 280312, Note_on_c, 0, 83, 68
2, 280344, Note_on_c, 0, 75, 0
2, 280380, Note_on_c, 0, 83, 0
2, 280388, Note_on_c, 0, 68, 37
2, 280392, Note_on_c, 0, 82, 65
2, 280456, Note_on_c, 0, 82, 0
2, 280460, Note_on_c, 0, 68, 0
2, 280472, Note_on_c, 0, 77, 64
2, 280492, Note_on_c, 0, 74, 40
2, 280528, Note_on_c, 0, 77, 0
2, 280536, Note_on_c, 0, 82, 57
2, 280556, Note_on_c, 0, 74, 0
2, 280600, Note_on_c, 0, 82, 0
2, 280624, Note_on_c, 0, 81, 64
2, 280636, Note_on_c, 0, 67, 33
2, 280676, Note_on_c, 0, 81, 0
2, 280708, Note_on_c, 0, 76, 66
2, 280712, Note_on_c, 0, 67, 0
2, 280744, Note_on_c, 0, 73, 34
2, 280776, Note_on_c, 0, 76, 0
2, 280788, Note_on_c, 0, 81, 66
2, 280824, Note_on_c, 0, 73, 0
2, 280848, Note_on_c, 0, 81, 0
2, 280864, Note_on_c, 0, 66, 43
2, 280864, Note_on_c, 0, 80, 67
2, 280920, Note_on_c, 0, 80, 0
2, 280936, Note_on_c, 0, 66, 0
2, 280944, Note_on_c, 0, 75, 58
2, 280976, Note_on_c, 0, 72, 38
2, 280996, Note_on_c, 0, 75, 0
2, 281016, Note_on_c, 0, 80, 67
2, 281036, Note_on_c, 0, 72, 0
2, 281084, Note_on_c, 0, 80, 0
2, 281108, Note_on_c, 0, 79, 66
2, 281112, Note_on_c, 0, 65, 33
2, 281116, Control_c, 0, 64, 88
2, 281128, Control_c, 0, 64, 72
2, 281140, Control_c, 0, 64, 56
2, 281156, Note_on_c, 0, 79, 0
2, 281168, Note_on_c, 0, 65, 0
2, 281184, Note_on_c, 0, 74, 63
2, 281188, Control_c, 0, 64, 88
2, 281208, Note_on_c, 0, 71, 37
2, 281212, Control_c, 0, 64, 104
2, 281240, Note_on_c, 0, 74, 0
2, 281240, Control_c, 0, 64, 127
2, 281256, Note_on_c, 0, 71, 0
2, 281268, Note_on_c, 0, 79, 66
2, 281324, Note_on_c, 0, 79, 0
2, 281336, Note_on_c, 0, 64, 36
2, 281352, Note_on_c, 0, 78, 61
2, 281416, Note_on_c, 0, 78, 0
2, 281424, Note_on_c, 0, 64, 0
2, 281440, Note_on_c, 0, 73, 52
2, 281460, Note_on_c, 0, 70, 27
2, 281488, Note_on_c, 0, 73, 0
2, 281512, Note_on_c, 0, 78, 63
2, 281548, Note_on_c, 0, 70, 0
2, 281580, Note_on_c, 0, 78, 0
2, 281584, Note_on_c, 0, 63, 29
2, 281608, Note_on_c, 0, 77, 66
2, 281640, Control_c, 0, 64, 88
2, 281648, Control_c, 0, 64, 56
2, 281664, Note_on_c, 0, 77, 0
2, 281672, Note_on_c, 0, 63, 0
2, 281692, Note_on_c, 0, 72, 62
2, 281700, Note_on_c, 0, 69, 38
2, 281708, Control_c, 0, 64, 72
2, 281720, Control_c, 0, 64, 88
2, 281748, Note_on_c, 0, 72, 0
2, 281776, Note_on_c, 0, 69, 0
2, 281776, Note_on_c, 0, 77, 73
2, 281792, Control_c, 0, 64, 104
2, 281832, Note_on_c, 0, 77, 0
2, 281844, Note_on_c, 0, 62, 36
2, 281864, Control_c, 0, 64, 56
2, 281868, Note_on_c, 0, 76, 64
2, 281872, Control_c, 0, 64, 24
2, 281884, Control_c, 0, 64, 0
2, 281936, Control_c, 0, 64, 24
2, 281940, Note_on_c, 0, 76, 0
2, 281944, Control_c, 0, 64, 56
2, 281956, Control_c, 0, 64, 88
2, 281964, Note_on_c, 0, 62, 0
2, 281964, Note_on_c, 0, 71, 60
2, 281964, Control_c, 0, 64, 104
2, 281976, Control_c, 0, 64, 127
2, 281992, Note_on_c, 0, 68, 27
2, 282032, Note_on_c, 0, 71, 0
2, 282044, Note_on_c, 0, 76, 68
2, 282104, Note_on_c, 0, 76, 0
2, 282116, Note_on_c, 0, 68, 0
2, 282128, Control_c, 0, 64, 88
2, 282132, Note_on_c, 0, 75, 63
2, 282136, Note_on_c, 0, 61, 38
2, 282140, Control_c, 0, 64, 56
2, 282148, Control_c, 0, 64, 0
2, 282188, Control_c, 0, 64, 40
2, 282200, Control_c, 0, 64, 72
2, 282204, Note_on_c, 0, 75, 0
2, 282208, Control_c, 0, 64, 104
2, 282220, Control_c, 0, 64, 127
2, 282228, Note_on_c, 0, 70, 55
2, 282236, Note_on_c, 0, 61, 0
2, 282264, Note_on_c, 0, 67, 33
2, 282292, Note_on_c, 0, 70, 0
2, 282312, Note_on_c, 0, 75, 64
2, 282380, Note_on_c, 0, 67, 0
2, 282384, Note_on_c, 0, 75, 0
2, 282412, Control_c, 0, 64, 104
2, 282420, Note_on_c, 0, 74, 64
2, 282424, Control_c, 0, 64, 72
2, 282428, Note_on_c, 0, 60, 44
2, 282432, Control_c, 0, 64, 24
2, 282444, Control_c, 0, 64, 0
2, 282484, Control_c, 0, 64, 40
2, 282488, Note_on_c, 0, 74, 0
2, 282496, Control_c, 0, 64, 72
2, 282504, Control_c, 0, 64, 88
2, 282516, Note_on_c, 0, 69, 60
2, 282516, Control_c, 0, 64, 104
2, 282524, Control_c, 0, 64, 127
2, 282548, Note_on_c, 0, 60, 0
2, 282580, Note_on_c, 0, 66, 30
2, 282588, Note_on_c, 0, 69, 0
2, 282588, Control_c, 0, 64, 56
2, 282596, Control_c, 0, 64, 24
2, 282604, Control_c, 0, 64, 0
2, 282624, Note_on_c, 0, 74, 65
2, 282640, Control_c, 0, 64, 40
2, 282648, Control_c, 0, 64, 56
2, 282660, Control_c, 0, 64, 88
2, 282668, Control_c, 0, 64, 104
2, 282688, Note_on_c, 0, 74, 0
2, 282732, Note_on_c, 0, 66, 0
2, 282740, Note_on_c, 0, 73, 58
2, 282740, Control_c, 0, 64, 88
2, 282748, Control_c, 0, 64, 24
2, 282760, Note_on_c, 0, 59, 40
2, 282760, Control_c, 0, 64, 0
2, 282840, Control_c, 0, 64, 40
2, 282844, Note_on_c, 0, 73, 0
2, 282852, Control_c, 0, 64, 56
2, 282864, Control_c, 0, 64, 72
2, 282868, Note_on_c, 0, 68, 40
2, 282872, Control_c, 0, 64, 88
2, 282880, Note_on_c, 0, 59, 0
2, 282884, Control_c, 0, 64, 104
2, 282896, Note_on_c, 0, 65, 33
2, 282904, Control_c, 0, 64, 127
2, 282968, Note_on_c, 0, 68, 0
2, 282992, Note_on_c, 0, 73, 58
2, 283064, Note_on_c, 0, 73, 0
2, 283104, Note_on_c, 0, 65, 0
2, 283164, Note_on_c, 0, 72, 63
2, 283188, Note_on_c, 0, 53, 38
2, 283220, Control_c, 0, 64, 88
2, 283228, Note_on_c, 0, 53, 0
2, 283232, Control_c, 0, 64, 127
2, 283400, Note_on_c, 0, 72, 0
2, 283436, Note_on_c, 0, 74, 69
2, 283440, Note_on_c, 0, 68, 33
2, 283452, Note_on_c, 0, 60, 40
2, 283504, Note_on_c, 0, 68, 0
2, 283532, Note_on_c, 0, 74, 0
2, 283548, Note_on_c, 0, 76, 76
2, 283552, Note_on_c, 0, 60, 0
2, 283596, Note_on_c, 0, 76, 0
2, 283652, Note_on_c, 0, 65, 50
2, 283664, Note_on_c, 0, 77, 73
2, 283664, Note_on_c, 0, 56, 28
2, 283712, Note_on_c, 0, 56, 0
2, 283712, Note_on_c, 0, 65, 0
2, 283736, Note_on_c, 0, 77, 0
2, 283780, Note_on_c, 0, 79, 84
2, 283888, Note_on_c, 0, 79, 0
2, 283908, Note_on_c, 0, 80, 82
2, 283932, Control_c, 0, 64, 104
2, 283940, Note_on_c, 0, 48, 52
2, 283948, Control_c, 0, 64, 24
2, 283960, Control_c, 0, 64, 0
2, 283964, Note_on_c, 0, 48, 0
2, 284024, Control_c, 0, 64, 72
2, 284036, Control_c, 0, 64, 127
2, 284148, Note_on_c, 0, 80, 0
2, 284172, Note_on_c, 0, 82, 74
2, 284192, Note_on_c, 0, 55, 43
2, 284204, Note_on_c, 0, 64, 37
2, 284248, Note_on_c, 0, 64, 0
2, 284256, Note_on_c, 0, 82, 0
2, 284284, Note_on_c, 0, 80, 73
2, 284296, Note_on_c, 0, 55, 0
2, 284396, Note_on_c, 0, 80, 0
2, 284408, Note_on_c, 0, 58, 36
2, 284408, Note_on_c, 0, 67, 44
2, 284416, Note_on_c, 0, 79, 74
2, 284440, Note_on_c, 0, 67, 0
2, 284460, Note_on_c, 0, 58, 0
2, 284468, Note_on_c, 0, 79, 0
2, 284608, Note_on_c, 0, 72, 72
2, 284652, Control_c, 0, 64, 40
2, 284664, Control_c, 0, 64, 0
2, 284676, Note_on_c, 0, 72, 0
2, 284684, Note_on_c, 0, 84, 80
2, 284708, Note_on_c, 0, 53, 44
2, 284740, Control_c, 0, 64, 72
2, 284752, Control_c, 0, 64, 127
2, 284764, Note_on_c, 0, 53, 0
2, 284896, Note_on_c, 0, 84, 0
2, 284948, Note_on_c, 0, 82, 74
2, 284948, Note_on_c, 0, 68, 45
2, 284964, Note_on_c, 0, 60, 53
2, 285020, Note_on_c, 0, 68, 0
2, 285032, Note_on_c, 0, 82, 0
2, 285052, Note_on_c, 0, 80, 79
2, 285056, Note_on_c, 0, 60, 0
2, 285156, Note_on_c, 0, 80, 0
2, 285172, Note_on_c, 0, 79, 82
2, 285176, Note_on_c, 0, 56, 44
2, 285176, Note_on_c, 0, 65, 55
2, 285212, Note_on_c, 0, 65, 0
2, 285224, Note_on_c, 0, 56, 0
2, 285248, Note_on_c, 0, 79, 0
2, 285276, Note_on_c, 0, 77, 79
2, 285360, Note_on_c, 0, 77, 0
2, 285420, Note_on_c, 0, 80, 81
2, 285432, Note_on_c, 0, 76, 69
2, 285440, Control_c, 0, 64, 40
2, 285456, Control_c, 0, 64, 0
2, 285460, Note_on_c, 0, 48, 56
2, 285492, Note_on_c, 0, 48, 0
2, 285496, Note_on_c, 0, 76, 0
2, 285532, Control_c, 0, 64, 72
2, 285544, Control_c, 0, 64, 127
2, 285664, Note_on_c, 0, 80, 0
2, 285696, Note_on_c, 0, 82, 74
2, 285716, Note_on_c, 0, 55, 51
2, 285720, Note_on_c, 0, 64, 47
2, 285748, Note_on_c, 0, 55, 0
2, 285760, Note_on_c, 0, 64, 0
2, 285780, Note_on_c, 0, 82, 0
2, 285808, Note_on_c, 0, 80, 77
2, 285896, Note_on_c, 0, 80, 0
2, 285944, Note_on_c, 0, 79, 75
2, 285944, Note_on_c, 0, 67, 46
2, 285948, Note_on_c, 0, 70, 54
2, 285956, Note_on_c, 0, 60, 51
2, 285976, Note_on_c, 0, 67, 0
2, 285980, Note_on_c, 0, 60, 0
2, 286000, Note_on_c, 0, 70, 0
2, 286024, Note_on_c, 0, 79, 0
2, 286208, Control_c, 0, 64, 104
2, 286216, Note_on_c, 0, 77, 87
2, 286220, Note_on_c, 0, 68, 69
2, 286224, Control_c, 0, 64, 24
2, 286228, Note_on_c, 0, 56, 47
2, 286236, Note_on_c, 0, 65, 41
2, 286236, Control_c, 0, 64, 0
2, 286248, Note_on_c, 0, 53, 42
2, 286260, Note_on_c, 0, 68, 0
2, 286300, Note_on_c, 0, 77, 0
2, 286312, Control_c, 0, 64, 56
2, 286324, Control_c, 0, 64, 127
2, 286464, Note_on_c, 0, 53, 0
2, 286468, Note_on_c, 0, 89, 85
2, 286480, Control_c, 0, 64, 104
2, 286492, Note_on_c, 0, 56, 0
2, 286492, Note_on_c, 0, 55, 56
2, 286492, Note_on_c, 0, 58, 45
2, 286492, Control_c, 0, 64, 0
2, 286540, Control_c, 0, 64, 40
2, 286556, Control_c, 0, 64, 104
2, 286568, Control_c, 0, 64, 127
2, 286572, Note_on_c, 0, 55, 0
2, 286604, Note_on_c, 0, 58, 0
2, 286680, Note_on_c, 0, 89, 0
2, 286724, Note_on_c, 0, 88, 84
2, 286728, Note_on_c, 0, 60, 60
2, 286728, Note_on_c, 0, 65, 46
2, 286748, Note_on_c, 0, 57, 48
2, 286792, Note_on_c, 0, 65, 0
2, 286792, Note_on_c, 0, 60, 0
2, 286816, Note_on_c, 0, 57, 0
2, 286824, Note_on_c, 0, 88, 0
2, 286832, Note_on_c, 0, 87, 82
2, 286940, Note_on_c, 0, 87, 0
2, 286956, Note_on_c, 0, 86, 79
2, 286972, Note_on_c, 0, 58, 40
2, 286976, Note_on_c, 0, 61, 44
2, 286988, Control_c, 0, 64, 104
2, 287000, Control_c, 0, 64, 24
2, 287016, Control_c, 0, 64, 0
2, 287048, Note_on_c, 0, 86, 0
2, 287072, Note_on_c, 0, 85, 71
2, 287080, Control_c, 0, 64, 40
2, 287092, Control_c, 0, 64, 104
2, 287104, Control_c, 0, 64, 127
2, 287160, Note_on_c, 0, 85, 0
2, 287188, Note_on_c, 0, 84, 83
2, 287288, Note_on_c, 0, 84, 0
2, 287304, Note_on_c, 0, 83, 85
2, 287416, Note_on_c, 0, 82, 79
2, 287420, Note_on_c, 0, 83, 0
2, 287512, Note_on_c, 0, 82, 0
2, 287532, Note_on_c, 0, 65, 0
2, 287532, Note_on_c, 0, 81, 78
2, 287556, Note_on_c, 0, 58, 0
2, 287564, Note_on_c, 0, 61, 0
2, 287616, Note_on_c, 0, 81, 0
2, 287656, Control_c, 0, 64, 88
2, 287664, Note_on_c, 0, 80, 75
2, 287668, Note_on_c, 0, 66, 50
2, 287668, Control_c, 0, 64, 0
2, 287672, Note_on_c, 0, 58, 39
2, 287672, Note_on_c, 0, 61, 37
2, 287728, Note_on_c, 0, 80, 0
2, 287732, Control_c, 0, 64, 40
2, 287744, Control_c, 0, 64, 104
2, 287756, Control_c, 0, 64, 127
2, 287760, Note_on_c, 0, 78, 85
2, 287804, Note_on_c, 0, 78, 0
2, 287856, Note_on_c, 0, 66, 0
2, 287856, Note_on_c, 0, 78, 75
2, 287916, Note_on_c, 0, 78, 0
2, 287936, Note_on_c, 0, 87, 85
2, 287936, Control_c, 0, 64, 56
2, 287948, Control_c, 0, 64, 0
2, 287972, Note_on_c, 0, 68, 37
2, 287988, Control_c, 0, 64, 56
2, 288000, Control_c, 0, 64, 104
2, 288012, Control_c, 0, 64, 127
2, 288032, Note_on_c, 0, 87, 0
2, 288084, Note_on_c, 0, 85, 85
2, 288104, Note_on_c, 0, 68, 0
2, 288120, Note_on_c, 0, 61, 0
2, 288140, Note_on_c, 0, 58, 0
2, 288176, Note_on_c, 0, 85, 0
2, 288196, Note_on_c, 0, 82, 74
2, 288216, Note_on_c, 0, 70, 50
2, 288268, Note_on_c, 0, 70, 0
2, 288296, Note_on_c, 0, 82, 0
2, 288312, Note_on_c, 0, 78, 81
2, 288384, Note_on_c, 0, 78, 0
2, 288452, Note_on_c, 0, 77, 81
2, 288460, Note_on_c, 0, 68, 39
2, 288476, Note_on_c, 0, 60, 42
2, 288520, Control_c, 0, 64, 88
2, 288536, Control_c, 0, 64, 0
2, 288664, Control_c, 0, 64, 24
2, 288676, Control_c, 0, 64, 56
2, 288688, Control_c, 0, 64, 88
2, 288724, Note_on_c, 0, 68, 0
2, 288740, Note_on_c, 0, 77, 0
2, 288744, Note_on_c, 0, 76, 66
2, 288752, Control_c, 0, 64, 0
2, 288780, Note_on_c, 0, 67, 38
2, 288868, Control_c, 0, 64, 40
2, 288872, Note_on_c, 0, 60, 0
2, 288880, Note_on_c, 0, 67, 0
2, 288880, Control_c, 0, 64, 56
2, 288888, Note_on_c, 0, 76, 0
2, 288944, Control_c, 0, 64, 0
2, 289012, Note_on_c, 0, 72, 74
2, 289032, Control_c, 0, 64, 24
2, 289048, Control_c, 0, 64, 72
2, 289060, Control_c, 0, 64, 104
2, 289072, Control_c, 0, 64, 127
2, 289092, Note_on_c, 0, 72, 0
2, 289164, Note_on_c, 0, 73, 58
2, 289200, Note_on_c, 0, 73, 0
2, 289216, Note_on_c, 0, 75, 61
2, 289240, Control_c, 0, 64, 104
2, 289244, Note_on_c, 0, 73, 73
2, 289252, Note_on_c, 0, 75, 0
2, 289252, Control_c, 0, 64, 24
2, 289264, Control_c, 0, 64, 0
2, 289288, Note_on_c, 0, 53, 51
2, 289324, Note_on_c, 0, 53, 0
2, 289340, Control_c, 0, 64, 56
2, 289352, Control_c, 0, 64, 104
2, 289364, Control_c, 0, 64, 127
2, 289396, Note_on_c, 0, 73, 0
2, 289416, Note_on_c, 0, 72, 70
2, 289508, Note_on_c, 0, 72, 0
2, 289516, Note_on_c, 0, 71, 74
2, 289520, Note_on_c, 0, 68, 37
2, 289540, Note_on_c, 0, 60, 43
2, 289576, Note_on_c, 0, 71, 0
2, 289580, Note_on_c, 0, 60, 0
2, 289596, Note_on_c, 0, 68, 0
2, 289624, Note_on_c, 0, 72, 86
2, 289704, Note_on_c, 0, 72, 0
2, 289732, Note_on_c, 0, 65, 46
2, 289740, Note_on_c, 0, 56, 42
2, 289748, Note_on_c, 0, 77, 84
2, 289768, Note_on_c, 0, 65, 0
2, 289784, Note_on_c, 0, 56, 0
2, 289828, Note_on_c, 0, 77, 0
2, 289856, Note_on_c, 0, 79, 85
2, 289940, Note_on_c, 0, 79, 0
2, 289988, Note_on_c, 0, 80, 85
2, 290000, Note_on_c, 0, 76, 70
2, 290004, Control_c, 0, 64, 88
2, 290016, Control_c, 0, 64, 0
2, 290024, Note_on_c, 0, 48, 60
2, 290048, Note_on_c, 0, 48, 0
2, 290056, Note_on_c, 0, 76, 0
2, 290096, Control_c, 0, 64, 40
2, 290108, Control_c, 0, 64, 104
2, 290120, Control_c, 0, 64, 127
2, 290224, Note_on_c, 0, 80, 0
2, 290248, Note_on_c, 0, 82, 74
2, 290280, Note_on_c, 0, 64, 46
2, 290288, Note_on_c, 0, 55, 45
2, 290320, Note_on_c, 0, 55, 0
2, 290324, Note_on_c, 0, 64, 0
2, 290328, Note_on_c, 0, 82, 0
2, 290360, Note_on_c, 0, 80, 77
2, 290452, Note_on_c, 0, 80, 0
2, 290476, Note_on_c, 0, 79, 75
2, 290492, Note_on_c, 0, 67, 47
2, 290496, Note_on_c, 0, 60, 50
2, 290520, Note_on_c, 0, 60, 0
2, 290520, Note_on_c, 0, 67, 0
2, 290560, Note_on_c, 0, 79, 0
2, 290672, Note_on_c, 0, 68, 55
2, 290688, Note_on_c, 0, 77, 60
2, 290692, Control_c, 0, 64, 56
2, 290700, Note_on_c, 0, 68, 0
2, 290708, Control_c, 0, 64, 0
2, 290736, Note_on_c, 0, 56, 37
2, 290740, Note_on_c, 0, 77, 0
2, 290740, Note_on_c, 0, 65, 41
2, 290748, Note_on_c, 0, 53, 48
2, 290772, Control_c, 0, 64, 24
2, 290776, Note_on_c, 0, 84, 92
2, 290784, Control_c, 0, 64, 88
2, 290796, Control_c, 0, 64, 127
2, 290832, Note_on_c, 0, 53, 0
2, 290836, Note_on_c, 0, 56, 0
2, 290844, Note_on_c, 0, 84, 0
2, 290872, Note_on_c, 0, 65, 0
2, 290884, Note_on_c, 0, 83, 87
2, 290952, Note_on_c, 0, 83, 0
2, 290996, Note_on_c, 0, 82, 77
2, 291008, Note_on_c, 0, 68, 44
2, 291024, Note_on_c, 0, 60, 45
2, 291060, Note_on_c, 0, 82, 0
2, 291074, Note_on_c, 0, 84, 78
2, 291104, Note_on_c, 0, 68, 0
2, 291138, Note_on_c, 0, 84, 0
2, 291152, Note_on_c, 0, 80, 83
2, 291164, Note_on_c, 0, 60, 0
2, 291228, Note_on_c, 0, 80, 0
2, 291228, Note_on_c, 0, 79, 82
2, 291236, Note_on_c, 0, 65, 50
2, 291240, Note_on_c, 0, 56, 43
2, 291268, Note_on_c, 0, 65, 0
2, 291280, Note_on_c, 0, 56, 0
2, 291306, Note_on_c, 0, 84, 80
2, 291308, Note_on_c, 0, 79, 0
2, 291384, Note_on_c, 0, 77, 87
2, 291386, Note_on_c, 0, 84, 0
2, 291464, Note_on_c, 0, 77, 0
2, 291464, Note_on_c, 0, 80, 85
2, 291476, Note_on_c, 0, 76, 76
2, 291476, Control_c, 0, 64, 56
2, 291488, Control_c, 0, 64, 0
2, 291504, Note_on_c, 0, 48, 65
2, 291524, Note_on_c, 0, 76, 0
2, 291528, Note_on_c, 0, 48, 0
2, 291564, Control_c, 0, 64, 40
2, 291576, Control_c, 0, 64, 127
2, 291704, Note_on_c, 0, 80, 0
2, 291732, Note_on_c, 0, 82, 74
2, 291752, Note_on_c, 0, 55, 50
2, 291752, Note_on_c, 0, 64, 40
2, 291780, Note_on_c, 0, 55, 0
2, 291796, Note_on_c, 0, 64, 0
2, 291812, Note_on_c, 0, 82, 0
2, 291844, Note_on_c, 0, 80, 77
2, 291932, Note_on_c, 0, 80, 0
2, 291968, Note_on_c, 0, 79, 85
2, 291968, Note_on_c, 0, 67, 49
2, 291972, Note_on_c, 0, 60, 59
2, 291980, Note_on_c, 0, 70, 46
2, 291996, Note_on_c, 0, 60, 0
2, 291996, Note_on_c, 0, 67, 0
2, 292004, Note_on_c, 0, 70, 0
2, 292052, Note_on_c, 0, 79, 0
2, 292228, Control_c, 0, 64, 56
2, 292232, Note_on_c, 0, 68, 84
2, 292236, Note_on_c, 0, 77, 89
2, 292240, Control_c, 0, 64, 100
2, 292252, Note_on_c, 0, 56, 53
2, 292256, Note_on_c, 0, 65, 58
2, 292272, Note_on_c, 0, 53, 48
2, 292292, Note_on_c, 0, 68, 0
2, 292306, Note_on_c, 0, 77, 0
2, 292316, Control_c, 0, 64, 40
2, 292332, Control_c, 0, 64, 104
2, 292344, Control_c, 0, 64, 127
2, 292508, Note_on_c, 0, 101, 103
2, 292512, Note_on_c, 0, 89, 94
2, 292540, Note_on_c, 0, 53, 0
2, 292556, Note_on_c, 0, 101, 0
2, 292556, Note_on_c, 0, 56, 0
2, 292560, Note_on_c, 0, 89, 0
2, 292572, Note_on_c, 0, 65, 0
2, 292760, Note_on_c, 0, 85, 85
2, 292764, Control_c, 0, 64, 104
2, 292768, Note_on_c, 0, 73, 70
2, 292792, Control_c, 0, 64, 88
2, 292828, Control_c, 0, 64, 72
2, 292844, Note_on_c, 0, 85, 0
2, 292848, Note_on_c, 0, 73, 0
2, 292868, Note_on_c, 0, 84, 92
2, 292884, Note_on_c, 0, 72, 64
2, 292952, Note_on_c, 0, 72, 0
2, 292956, Control_c, 0, 64, 40
2, 292968, Control_c, 0, 64, 0
2, 292972, Note_on_c, 0, 84, 0
2, 292988, Note_on_c, 0, 83, 88
2, 292992, Note_on_c, 0, 71, 67
2, 293092, Note_on_c, 0, 83, 0
2, 293104, Note_on_c, 0, 77, 87
2, 293108, Note_on_c, 0, 71, 0
2, 293116, Note_on_c, 0, 65, 66
2, 293208, Note_on_c, 0, 77, 0
2, 293216, Note_on_c, 0, 65, 0
2, 293216, Note_on_c, 0, 76, 78
2, 293232, Note_on_c, 0, 64, 66
2, 293300, Note_on_c, 0, 76, 0
2, 293312, Note_on_c, 0, 64, 0
2, 293336, Note_on_c, 0, 79, 87
2, 293340, Note_on_c, 0, 67, 53
2, 293428, Note_on_c, 0, 67, 0
2, 293436, Note_on_c, 0, 79, 0
2, 293452, Note_on_c, 0, 84, 86
2, 293452, Note_on_c, 0, 72, 62
2, 293544, Note_on_c, 0, 72, 0
2, 293544, Note_on_c, 0, 84, 0
2, 293572, Note_on_c, 0, 81, 79
2, 293580, Note_on_c, 0, 69, 54
2, 293668, Note_on_c, 0, 81, 0
2, 293672, Note_on_c, 0, 69, 0
2, 293680, Note_on_c, 0, 78, 79
2, 293692, Note_on_c, 0, 66, 52
2, 293784, Note_on_c, 0, 78, 0
2, 293796, Note_on_c, 0, 75, 87
2, 293808, Note_on_c, 0, 63, 58
2, 293820, Note_on_c, 0, 66, 0
2, 293904, Note_on_c, 0, 63, 0
2, 293916, Note_on_c, 0, 74, 92
2, 293924, Note_on_c, 0, 75, 0
2, 293948, Note_on_c, 0, 62, 67
2, 294020, Note_on_c, 0, 74, 0
2, 294028, Note_on_c, 0, 62, 0
2, 294036, Note_on_c, 0, 61, 61
2, 294040, Note_on_c, 0, 82, 80
2, 294044, Note_on_c, 0, 73, 75
2, 294128, Note_on_c, 0, 61, 0
2, 294152, Note_on_c, 0, 82, 0
2, 294164, Note_on_c, 0, 73, 0
2, 294164, Note_on_c, 0, 60, 70
2, 294164, Note_on_c, 0, 72, 88
2, 294248, Note_on_c, 0, 72, 0
2, 294256, Note_on_c, 0, 60, 0
2, 294276, Note_on_c, 0, 70, 69
2, 294280, Note_on_c, 0, 76, 86
2, 294300, Note_on_c, 0, 48, 63
2, 294360, Note_on_c, 0, 70, 0
2, 294408, Note_on_c, 0, 76, 0
2, 294416, Note_on_c, 0, 48, 0
2, 294424, Note_on_c, 0, 77, 96
2, 294432, Note_on_c, 0, 68, 71
2, 294452, Note_on_c, 0, 53, 59
2, 294568, Control_c, 0, 64, 56
2, 294580, Note_on_c, 0, 53, 0
2, 294580, Control_c, 0, 64, 88
2, 294592, Control_c, 0, 64, 127
2, 294688, Note_on_c, 0, 68, 0
2, 294732, Note_on_c, 0, 77, 0
2, 294732, Control_c, 0, 64, 104
2, 294748, Control_c, 0, 64, 88
2, 294760, Control_c, 0, 64, 56
2, 294772, Control_c, 0, 64, 24
2, 294784, Control_c, 0, 64, 0
2, 301152, Note_on_c, 0, 72, 80
2, 301392, Note_on_c, 0, 53, 54
2, 301400, Control_c, 0, 64, 24
2, 301412, Control_c, 0, 64, 56
2, 301424, Control_c, 0, 64, 72
2, 301440, Control_c, 0, 64, 88
2, 301448, Control_c, 0, 64, 104
2, 301460, Note_on_c, 0, 53, 0
2, 301476, Control_c, 0, 64, 127
2, 301504, Note_on_c, 0, 72, 0
2, 301528, Note_on_c, 0, 73, 67
2, 301568, Note_on_c, 0, 73, 0
2, 301576, Control_c, 0, 64, 104
2, 301588, Control_c, 0, 64, 72
2, 301604, Control_c, 0, 64, 40
2, 301624, Control_c, 0, 64, 0
2, 301628, Note_on_c, 0, 71, 66
2, 301632, Note_on_c, 0, 68, 48
2, 301648, Note_on_c, 0, 60, 56
2, 301704, Control_c, 0, 64, 56
2, 301716, Control_c, 0, 64, 88
2, 301720, Note_on_c, 0, 68, 0
2, 301724, Note_on_c, 0, 71, 0
2, 301732, Control_c, 0, 64, 127
2, 301736, Note_on_c, 0, 72, 82
2, 301784, Note_on_c, 0, 60, 0
2, 301832, Note_on_c, 0, 72, 0
2, 301832, Control_c, 0, 64, 104
2, 301844, Control_c, 0, 64, 72
2, 301860, Note_on_c, 0, 77, 85
2, 301860, Control_c, 0, 64, 40
2, 301872, Note_on_c, 0, 56, 49
2, 301880, Note_on_c, 0, 65, 39
2, 301912, Note_on_c, 0, 65, 0
2, 301912, Control_c, 0, 64, 88
2, 301924, Note_on_c, 0, 56, 0
2, 301924, Control_c, 0, 64, 104
2, 301940, Note_on_c, 0, 77, 0
2, 301968, Note_on_c, 0, 79, 86
2, 301972, Control_c, 0, 64, 127
2, 302056, Note_on_c, 0, 79, 0
2, 302088, Control_c, 0, 64, 104
2, 302100, Control_c, 0, 64, 72
2, 302104, Note_on_c, 0, 80, 88
2, 302112, Control_c, 0, 64, 24
2, 302128, Note_on_c, 0, 76, 60
2, 302128, Control_c, 0, 64, 0
2, 302144, Note_on_c, 0, 76, 0
2, 302144, Note_on_c, 0, 48, 61
2, 302168, Note_on_c, 0, 48, 0
2, 302208, Control_c, 0, 64, 40
2, 302216, Control_c, 0, 64, 88
2, 302228, Control_c, 0, 64, 127
2, 302328, Note_on_c, 0, 80, 0
2, 302360, Note_on_c, 0, 82, 83
2, 302392, Note_on_c, 0, 55, 51
2, 302408, Note_on_c, 0, 64, 43
2, 302428, Note_on_c, 0, 55, 0
2, 302448, Note_on_c, 0, 64, 0
2, 302448, Note_on_c, 0, 82, 0
2, 302480, Note_on_c, 0, 80, 83
2, 302564, Note_on_c, 0, 80, 0
2, 302608, Note_on_c, 0, 70, 50
2, 302608, Note_on_c, 0, 67, 47
2, 302608, Note_on_c, 0, 79, 79
2, 302612, Note_on_c, 0, 60, 50
2, 302668, Note_on_c, 0, 60, 0
2, 302668, Note_on_c, 0, 67, 0
2, 302676, Note_on_c, 0, 70, 0
2, 302704, Note_on_c, 0, 79, 0
2, 302740, Note_on_c, 0, 68, 35
2, 302788, Note_on_c, 0, 68, 0
2, 302796, Note_on_c, 0, 77, 67
2, 302804, Control_c, 0, 64, 56
2, 302816, Control_c, 0, 64, 88
2, 302828, Note_on_c, 0, 53, 52
2, 302828, Control_c, 0, 64, 127
2, 302848, Note_on_c, 0, 77, 0
2, 302852, Note_on_c, 0, 53, 0
2, 302868, Note_on_c, 0, 84, 84
2, 302932, Note_on_c, 0, 84, 0
2, 302984, Note_on_c, 0, 83, 82
2, 303044, Note_on_c, 0, 83, 0
2, 303108, Note_on_c, 0, 68, 46
2, 303112, Note_on_c, 0, 82, 81
2, 303132, Note_on_c, 0, 60, 46
2, 303184, Note_on_c, 0, 82, 0
2, 303184, Note_on_c, 0, 68, 0
2, 303212, Note_on_c, 0, 60, 0
2, 303224, Note_on_c, 0, 80, 85
2, 303316, Note_on_c, 0, 80, 0
2, 303352, Note_on_c, 0, 79, 85
2, 303368, Note_on_c, 0, 56, 31
2, 303368, Note_on_c, 0, 65, 37
2, 303400, Note_on_c, 0, 65, 0
2, 303428, Note_on_c, 0, 56, 0
2, 303436, Note_on_c, 0, 79, 0
2, 303464, Note_on_c, 0, 77, 87
2, 303564, Note_on_c, 0, 77, 0
2, 303624, Control_c, 0, 64, 104
2, 303628, Note_on_c, 0, 80, 85
2, 303636, Control_c, 0, 64, 56
2, 303648, Control_c, 0, 64, 0
2, 303652, Note_on_c, 0, 46, 58
2, 303724, Note_on_c, 0, 46, 0
2, 303736, Control_c, 0, 64, 40
2, 303748, Control_c, 0, 64, 127
2, 303912, Note_on_c, 0, 80, 0
2, 303928, Note_on_c, 0, 82, 71
2, 303944, Note_on_c, 0, 53, 42
2, 303948, Note_on_c, 0, 62, 36
2, 303972, Note_on_c, 0, 53, 0
2, 303988, Note_on_c, 0, 62, 0
2, 304040, Note_on_c, 0, 82, 0
2, 304060, Note_on_c, 0, 80, 78
2, 304140, Note_on_c, 0, 80, 0
2, 304192, Note_on_c, 0, 80, 71
2, 304204, Note_on_c, 0, 68, 51
2, 304216, Note_on_c, 0, 58, 37
2, 304248, Note_on_c, 0, 68, 0
2, 304264, Note_on_c, 0, 58, 0
2, 304272, Note_on_c, 0, 80, 0
2, 304300, Note_on_c, 0, 79, 76
2, 304376, Note_on_c, 0, 79, 0
2, 304388, Note_on_c, 0, 77, 79
2, 304420, Note_on_c, 0, 77, 0
2, 304520, Control_c, 0, 64, 88
2, 304532, Control_c, 0, 64, 40
2, 304544, Control_c, 0, 64, 0
2, 304560, Note_on_c, 0, 82, 76
2, 304560, Note_on_c, 0, 39, 50
2, 304560, Note_on_c, 0, 75, 60
2, 304604, Note_on_c, 0, 75, 0
2, 304612, Control_c, 0, 64, 24
2, 304616, Note_on_c, 0, 39, 0
2, 304624, Control_c, 0, 64, 88
2, 304632, Control_c, 0, 64, 127
2, 304648, Note_on_c, 0, 82, 0
2, 304648, Note_on_c, 0, 86, 82
2, 304728, Note_on_c, 0, 87, 75
2, 304740, Note_on_c, 0, 86, 0
2, 304772, Note_on_c, 0, 87, 0
2, 304812, Note_on_c, 0, 94, 88
2, 304840, Note_on_c, 0, 67, 50
2, 304840, Note_on_c, 0, 58, 38
2, 304856, Note_on_c, 0, 94, 0
2, 304876, Note_on_c, 0, 67, 0
2, 304896, Note_on_c, 0, 58, 0
2, 305096, Note_on_c, 0, 67, 49
2, 305100, Note_on_c, 0, 58, 44
2, 305132, Note_on_c, 0, 67, 0
2, 305152, Note_on_c, 0, 58, 0
2, 305304, Control_c, 0, 64, 88
2, 305316, Control_c, 0, 64, 40
2, 305328, Control_c, 0, 64, 0
2, 305336, Note_on_c, 0, 94, 80
2, 305340, Note_on_c, 0, 51, 64
2, 305344, Note_on_c, 0, 89, 83
2, 305384, Control_c, 0, 64, 56
2, 305396, Control_c, 0, 64, 127
2, 305400, Note_on_c, 0, 51, 0
2, 305400, Note_on_c, 0, 94, 0
2, 305412, Note_on_c, 0, 89, 0
2, 305516, Note_on_c, 0, 87, 68
2, 305580, Note_on_c, 0, 87, 0
2, 305600, Note_on_c, 0, 67, 47
2, 305604, Note_on_c, 0, 89, 82
2, 305608, Note_on_c, 0, 58, 44
2, 305640, Note_on_c, 0, 58, 0
2, 305644, Note_on_c, 0, 67, 0
2, 305668, Note_on_c, 0, 89, 0
2, 305684, Note_on_c, 0, 87, 74
2, 305760, Note_on_c, 0, 87, 0
2, 305780, Note_on_c, 0, 82, 71
2, 305848, Note_on_c, 0, 82, 0
2, 305868, Note_on_c, 0, 75, 71
2, 305876, Note_on_c, 0, 67, 34
2, 305876, Note_on_c, 0, 58, 30
2, 305900, Note_on_c, 0, 67, 0
2, 305908, Note_on_c, 0, 58, 0
2, 305920, Note_on_c, 0, 75, 0
2, 306052, Control_c, 0, 64, 88
2, 306064, Control_c, 0, 64, 40
2, 306076, Control_c, 0, 64, 0
2, 306108, Note_on_c, 0, 82, 70
2, 306112, Note_on_c, 0, 51, 56
2, 306112, Note_on_c, 0, 75, 38
2, 306132, Control_c, 0, 64, 40
2, 306140, Note_on_c, 0, 75, 0
2, 306144, Control_c, 0, 64, 104
2, 306156, Control_c, 0, 64, 127
2, 306160, Note_on_c, 0, 51, 0
2, 306196, Note_on_c, 0, 86, 72
2, 306204, Note_on_c, 0, 82, 0
2, 306260, Note_on_c, 0, 87, 79
2, 306288, Note_on_c, 0, 86, 0
2, 306316, Note_on_c, 0, 87, 0
2, 306364, Note_on_c, 0, 94, 84
2, 306364, Note_on_c, 0, 67, 49
2, 306368, Note_on_c, 0, 58, 37
2, 306408, Note_on_c, 0, 67, 0
2, 306408, Note_on_c, 0, 94, 0
2, 306424, Note_on_c, 0, 58, 0
2, 306640, Note_on_c, 0, 58, 40
2, 306644, Note_on_c, 0, 67, 42
2, 306676, Note_on_c, 0, 67, 0
2, 306696, Note_on_c, 0, 58, 0
2, 306836, Control_c, 0, 64, 72
2, 306848, Control_c, 0, 64, 24
2, 306860, Control_c, 0, 64, 0
2, 306868, Note_on_c, 0, 94, 76
2, 306880, Note_on_c, 0, 89, 81
2, 306884, Note_on_c, 0, 51, 60
2, 306916, Control_c, 0, 64, 72
2, 306928, Control_c, 0, 64, 127
2, 306940, Note_on_c, 0, 51, 0
2, 306940, Note_on_c, 0, 94, 0
2, 306960, Note_on_c, 0, 89, 0
2, 307052, Note_on_c, 0, 87, 71
2, 307112, Note_on_c, 0, 87, 0
2, 307136, Note_on_c, 0, 89, 78
2, 307136, Note_on_c, 0, 67, 49
2, 307140, Note_on_c, 0, 58, 32
2, 307176, Note_on_c, 0, 67, 0
2, 307188, Note_on_c, 0, 58, 0
2, 307204, Note_on_c, 0, 89, 0
2, 307212, Note_on_c, 0, 87, 71
2, 307292, Note_on_c, 0, 87, 0
2, 307308, Note_on_c, 0, 82, 65
2, 307376, Note_on_c, 0, 82, 0
2, 307400, Note_on_c, 0, 75, 74
2, 307420, Note_on_c, 0, 58, 39
2, 307424, Note_on_c, 0, 67, 44
2, 307448, Note_on_c, 0, 67, 0
2, 307452, Note_on_c, 0, 58, 0
2, 307464, Note_on_c, 0, 75, 0
2, 307588, Control_c, 0, 64, 104
2, 307600, Control_c, 0, 64, 56
2, 307608, Control_c, 0, 64, 0
2, 307636, Note_on_c, 0, 75, 55
2, 307640, Note_on_c, 0, 82, 69
2, 307648, Note_on_c, 0, 51, 54
2, 307668, Control_c, 0, 64, 24
2, 307676, Control_c, 0, 64, 88
2, 307680, Note_on_c, 0, 75, 0
2, 307688, Note_on_c, 0, 51, 0
2, 307688, Control_c, 0, 64, 127
2, 307740, Note_on_c, 0, 86, 72
2, 307780, Note_on_c, 0, 82, 0
2, 307796, Note_on_c, 0, 87, 79
2, 307820, Note_on_c, 0, 86, 0
2, 307844, Note_on_c, 0, 87, 0
2, 307896, Note_on_c, 0, 94, 83
2, 307900, Note_on_c, 0, 66, 64
2, 307904, Note_on_c, 0, 58, 51
2, 307944, Note_on_c, 0, 94, 0
2, 307952, Note_on_c, 0, 66, 0
2, 307960, Note_on_c, 0, 58, 0
2, 308176, Note_on_c, 0, 66, 54
2, 308176, Note_on_c, 0, 58, 44
2, 308220, Note_on_c, 0, 66, 0
2, 308228, Note_on_c, 0, 58, 0
2, 308392, Control_c, 0, 64, 72
2, 308400, Note_on_c, 0, 94, 77
2, 308404, Control_c, 0, 64, 0
2, 308408, Note_on_c, 0, 89, 80
2, 308420, Note_on_c, 0, 54, 54
2, 308460, Control_c, 0, 64, 40
2, 308472, Note_on_c, 0, 94, 0
2, 308472, Control_c, 0, 64, 104
2, 308476, Note_on_c, 0, 54, 0
2, 308484, Control_c, 0, 64, 127
2, 308492, Note_on_c, 0, 89, 0
2, 308580, Note_on_c, 0, 87, 69
2, 308656, Note_on_c, 0, 87, 0
2, 308668, Note_on_c, 0, 66, 43
2, 308672, Note_on_c, 0, 89, 81
2, 308676, Note_on_c, 0, 58, 43
2, 308688, Note_on_c, 0, 63, 41
2, 308720, Note_on_c, 0, 63, 0
2, 308728, Note_on_c, 0, 58, 0
2, 308728, Note_on_c, 0, 66, 0
2, 308740, Note_on_c, 0, 89, 0
2, 308752, Note_on_c, 0, 87, 65
2, 308832, Note_on_c, 0, 87, 0
2, 308832, Note_on_c, 0, 82, 65
2, 308904, Note_on_c, 0, 82, 0
2, 308920, Note_on_c, 0, 75, 73
2, 308940, Note_on_c, 0, 66, 48
2, 308944, Note_on_c, 0, 63, 46
2, 308956, Note_on_c, 0, 58, 46
2, 308984, Note_on_c, 0, 66, 0
2, 308984, Note_on_c, 0, 75, 0
2, 308992, Note_on_c, 0, 63, 0
2, 309004, Note_on_c, 0, 58, 0
2, 309132, Control_c, 0, 64, 104
2, 309144, Control_c, 0, 64, 40
2, 309156, Control_c, 0, 64, 0
2, 309172, Note_on_c, 0, 44, 68
2, 309176, Note_on_c, 0, 82, 69
2, 309176, Note_on_c, 0, 75, 51
2, 309220, Note_on_c, 0, 75, 0
2, 309220, Note_on_c, 0, 44, 0
2, 309224, Control_c, 0, 64, 72
2, 309232, Control_c, 0, 64, 127
2, 309284, Note_on_c, 0, 86, 73
2, 309300, Note_on_c, 0, 82, 0
2, 309344, Note_on_c, 0, 87, 79
2, 309372, Note_on_c, 0, 86, 0
2, 309396, Note_on_c, 0, 87, 0
2, 309440, Note_on_c, 0, 66, 53
2, 309444, Note_on_c, 0, 94, 89
2, 309444, Note_on_c, 0, 56, 50
2, 309444, Note_on_c, 0, 61, 50
2, 309496, Note_on_c, 0, 56, 0
2, 309496, Note_on_c, 0, 66, 0
2, 309496, Note_on_c, 0, 94, 0
2, 309500, Note_on_c, 0, 61, 0
2, 309696, Note_on_c, 0, 66, 61
2, 309704, Note_on_c, 0, 61, 47
2, 309712, Note_on_c, 0, 56, 44
2, 309736, Note_on_c, 0, 61, 0
2, 309740, Note_on_c, 0, 56, 0
2, 309740, Note_on_c, 0, 66, 0
2, 309916, Control_c, 0, 64, 88
2, 309924, Control_c, 0, 64, 40
2, 309936, Control_c, 0, 64, 0
2, 309944, Note_on_c, 0, 92, 85
2, 309948, Note_on_c, 0, 44, 65
2, 309952, Note_on_c, 0, 89, 84
2, 309996, Control_c, 0, 64, 40
2, 310008, Note_on_c, 0, 44, 0
2, 310008, Control_c, 0, 64, 104
2, 310016, Control_c, 0, 64, 127
2, 310040, Note_on_c, 0, 89, 0
2, 310044, Note_on_c, 0, 92, 0
2, 310116, Note_on_c, 0, 87, 77
2, 310180, Note_on_c, 0, 87, 0
2, 310204, Note_on_c, 0, 89, 80
2, 310208, Note_on_c, 0, 66, 45
2, 310216, Note_on_c, 0, 60, 48
2, 310224, Note_on_c, 0, 56, 44
2, 310244, Note_on_c, 0, 60, 0
2, 310256, Note_on_c, 0, 66, 0
2, 310260, Note_on_c, 0, 56, 0
2, 310280, Note_on_c, 0, 89, 0
2, 310284, Note_on_c, 0, 87, 77
2, 310356, Note_on_c, 0, 87, 0
2, 310364, Note_on_c, 0, 80, 70
2, 310408, Note_on_c, 0, 80, 0
2, 310460, Note_on_c, 0, 75, 73
2, 310468, Note_on_c, 0, 66, 49
2, 310480, Note_on_c, 0, 78, 40
2, 310480, Note_on_c, 0, 60, 51
2, 310480, Note_on_c, 0, 56, 44
2, 310508, Note_on_c, 0, 75, 0
2, 310512, Note_on_c, 0, 66, 0
2, 310524, Note_on_c, 0, 60, 0
2, 310524, Note_on_c, 0, 78, 0
2, 310524, Note_on_c, 0, 56, 0
2, 310664, Control_c, 0, 64, 88
2, 310676, Control_c, 0, 64, 24
2, 310688, Control_c, 0, 64, 0
2, 310704, Note_on_c, 0, 80, 75
2, 310708, Note_on_c, 0, 75, 56
2, 310716, Note_on_c, 0, 49, 62
2, 310740, Note_on_c, 0, 75, 0
2, 310744, Control_c, 0, 64, 40
2, 310756, Control_c, 0, 64, 104
2, 310760, Note_on_c, 0, 49, 0
2, 310764, Note_on_c, 0, 80, 0
2, 310768, Control_c, 0, 64, 127
2, 310800, Note_on_c, 0, 86, 79
2, 310880, Note_on_c, 0, 87, 77
2, 310892, Note_on_c, 0, 86, 0
2, 310936, Note_on_c, 0, 87, 0
2, 310976, Note_on_c, 0, 92, 90
2, 310976, Note_on_c, 0, 56, 50
2, 310980, Note_on_c, 0, 66, 45
2, 310988, Note_on_c, 0, 59, 49
2, 311028, Note_on_c, 0, 56, 0
2, 311032, Note_on_c, 0, 59, 0
2, 311032, Note_on_c, 0, 66, 0
2, 311044, Note_on_c, 0, 92, 0
2, 311228, Note_on_c, 0, 66, 65
2, 311232, Note_on_c, 0, 59, 47
2, 311232, Note_on_c, 0, 56, 43
2, 311260, Note_on_c, 0, 59, 0
2, 311308, Note_on_c, 0, 66, 0
2, 311312, Note_on_c, 0, 56, 0
2, 311460, Control_c, 0, 64, 88
2, 311472, Control_c, 0, 64, 24
2, 311476, Note_on_c, 0, 92, 86
2, 311480, Note_on_c, 0, 87, 69
2, 311484, Note_on_c, 0, 49, 62
2, 311484, Control_c, 0, 64, 0
2, 311528, Note_on_c, 0, 49, 0
2, 311540, Control_c, 0, 64, 72
2, 311548, Note_on_c, 0, 92, 0
2, 311548, Control_c, 0, 64, 127
2, 311584, Note_on_c, 0, 87, 0
2, 311652, Note_on_c, 0, 85, 73
2, 311716, Note_on_c, 0, 85, 0
2, 311740, Note_on_c, 0, 65, 46
2, 311740, Note_on_c, 0, 87, 72
2, 311744, Note_on_c, 0, 56, 27
2, 311752, Note_on_c, 0, 59, 33
2, 311784, Note_on_c, 0, 59, 0
2, 311812, Note_on_c, 0, 65, 0
2, 311824, Note_on_c, 0, 87, 0
2, 311824, Note_on_c, 0, 85, 71
2, 311836, Note_on_c, 0, 56, 0
2, 311892, Note_on_c, 0, 85, 0
2, 311904, Note_on_c, 0, 80, 65
2, 311948, Note_on_c, 0, 80, 0
2, 311996, Note_on_c, 0, 65, 42
2, 312008, Note_on_c, 0, 73, 78
2, 312012, Note_on_c, 0, 56, 22
2, 312016, Note_on_c, 0, 59, 34
2, 312020, Note_on_c, 0, 65, 0
2, 312040, Note_on_c, 0, 59, 0
2, 312048, Note_on_c, 0, 56, 0
2, 312052, Note_on_c, 0, 73, 0
2, 312212, Control_c, 0, 64, 88
2, 312220, Control_c, 0, 64, 24
2, 312232, Control_c, 0, 64, 0
2, 312244, Note_on_c, 0, 80, 73
2, 312252, Note_on_c, 0, 73, 46
2, 312256, Note_on_c, 0, 42, 46
2, 312276, Note_on_c, 0, 73, 0
2, 312300, Note_on_c, 0, 42, 0
2, 312300, Control_c, 0, 64, 72
2, 312312, Control_c, 0, 64, 127
2, 312320, Note_on_c, 0, 80, 0
2, 312340, Note_on_c, 0, 84, 77
2, 312408, Note_on_c, 0, 85, 78
2, 312432, Note_on_c, 0, 84, 0
2, 312460, Note_on_c, 0, 85, 0
2, 312512, Note_on_c, 0, 92, 90
2, 312520, Note_on_c, 0, 54, 48
2, 312520, Note_on_c, 0, 59, 53
2, 312520, Note_on_c, 0, 64, 56
2, 312552, Note_on_c, 0, 59, 0
2, 312560, Note_on_c, 0, 64, 0
2, 312564, Note_on_c, 0, 92, 0
2, 312576, Note_on_c, 0, 54, 0
2, 312780, Note_on_c, 0, 64, 49
2, 312784, Note_on_c, 0, 59, 48
2, 312784, Note_on_c, 0, 54, 38
2, 312808, Note_on_c, 0, 59, 0
2, 312808, Note_on_c, 0, 64, 0
2, 312836, Note_on_c, 0, 54, 0
2, 312996, Control_c, 0, 64, 88
2, 313004, Control_c, 0, 64, 24
2, 313016, Control_c, 0, 64, 0
2, 313024, Note_on_c, 0, 42, 68
2, 313024, Note_on_c, 0, 90, 71
2, 313028, Note_on_c, 0, 87, 69
2, 313084, Control_c, 0, 64, 88
2, 313088, Note_on_c, 0, 42, 0
2, 313096, Control_c, 0, 64, 127
2, 313132, Note_on_c, 0, 90, 0
2, 313140, Note_on_c, 0, 87, 0
2, 313204, Note_on_c, 0, 85, 73
2, 313280, Note_on_c, 0, 64, 51
2, 313280, Note_on_c, 0, 58, 36
2, 313280, Note_on_c, 0, 54, 32
2, 313292, Note_on_c, 0, 87, 74
2, 313296, Note_on_c, 0, 85, 0
2, 313320, Note_on_c, 0, 64, 0
2, 313328, Note_on_c, 0, 58, 0
2, 313340, Note_on_c, 0, 54, 0
2, 313376, Note_on_c, 0, 85, 65
2, 313412, Note_on_c, 0, 87, 0
2, 313444, Note_on_c, 0, 85, 0
2, 313456, Note_on_c, 0, 78, 71
2, 313500, Note_on_c, 0, 78, 0
2, 313556, Note_on_c, 0, 64, 42
2, 313556, Note_on_c, 0, 73, 70
2, 313560, Note_on_c, 0, 58, 33
2, 313560, Note_on_c, 0, 54, 33
2, 313584, Note_on_c, 0, 64, 0
2, 313592, Note_on_c, 0, 58, 0
2, 313600, Note_on_c, 0, 73, 0
2, 313604, Note_on_c, 0, 54, 0
2, 313768, Control_c, 0, 64, 56
2, 313780, Control_c, 0, 64, 0
2, 313788, Note_on_c, 0, 71, 67
2, 313792, Note_on_c, 0, 78, 73
2, 313808, Note_on_c, 0, 47, 55
2, 313828, Note_on_c, 0, 47, 0
2, 313836, Note_on_c, 0, 71, 0
2, 313844, Control_c, 0, 64, 56
2, 313852, Note_on_c, 0, 78, 0
2, 313856, Control_c, 0, 64, 127
2, 313880, Note_on_c, 0, 82, 79
2, 313952, Note_on_c, 0, 83, 83
2, 313980, Note_on_c, 0, 82, 0
2, 313992, Note_on_c, 0, 83, 0
2, 314056, Note_on_c, 0, 90, 88
2, 314064, Note_on_c, 0, 54, 43
2, 314064, Note_on_c, 0, 63, 36
2, 314072, Note_on_c, 0, 57, 44
2, 314088, Note_on_c, 0, 90, 0
2, 314100, Note_on_c, 0, 57, 0
2, 314108, Note_on_c, 0, 63, 0
2, 314120, Note_on_c, 0, 54, 0
2, 314316, Note_on_c, 0, 54, 34
2, 314320, Note_on_c, 0, 63, 35
2, 314332, Note_on_c, 0, 57, 32
2, 314356, Note_on_c, 0, 57, 0
2, 314356, Note_on_c, 0, 63, 0
2, 314372, Note_on_c, 0, 54, 0
2, 314504, Control_c, 0, 64, 88
2, 314516, Control_c, 0, 64, 24
2, 314528, Control_c, 0, 64, 0
2, 314548, Note_on_c, 0, 79, 80
2, 314548, Note_on_c, 0, 71, 64
2, 314560, Note_on_c, 0, 47, 58
2, 314580, Note_on_c, 0, 47, 0
2, 314584, Control_c, 0, 64, 24
2, 314592, Note_on_c, 0, 71, 0
2, 314596, Control_c, 0, 64, 88
2, 314608, Control_c, 0, 64, 127
2, 314616, Note_on_c, 0, 79, 0
2, 314636, Note_on_c, 0, 82, 77
2, 314704, Note_on_c, 0, 83, 83
2, 314732, Note_on_c, 0, 82, 0
2, 314744, Note_on_c, 0, 83, 0
2, 314804, Note_on_c, 0, 91, 92
2, 314820, Note_on_c, 0, 55, 60
2, 314820, Note_on_c, 0, 64, 56
2, 314840, Note_on_c, 0, 64, 0
2, 314840, Note_on_c, 0, 55, 0
2, 314840, Note_on_c, 0, 91, 0
2, 315008, Note_on_c, 0, 47, 60
2, 315012, Note_on_c, 0, 55, 56
2, 315032, Note_on_c, 0, 47, 0
2, 315064, Note_on_c, 0, 55, 0
2, 315080, Note_on_c, 0, 64, 60
2, 315112, Note_on_c, 0, 64, 0
2, 315264, Control_c, 0, 64, 104
2, 315276, Control_c, 0, 64, 40
2, 315288, Control_c, 0, 64, 0
2, 315308, Note_on_c, 0, 79, 81
2, 315312, Note_on_c, 0, 72, 64
2, 315316, Note_on_c, 0, 48, 62
2, 315336, Note_on_c, 0, 48, 0
2, 315348, Note_on_c, 0, 72, 0
2, 315356, Control_c, 0, 64, 40
2, 315368, Control_c, 0, 64, 104
2, 315376, Note_on_c, 0, 79, 0
2, 315380, Control_c, 0, 64, 127
2, 315400, Note_on_c, 0, 83, 77
2, 315472, Note_on_c, 0, 84, 82
2, 315492, Note_on_c, 0, 83, 0
2, 315508, Note_on_c, 0, 84, 0
2, 315572, Note_on_c, 0, 91, 93
2, 315580, Note_on_c, 0, 55, 49
2, 315580, Note_on_c, 0, 58, 38
2, 315584, Note_on_c, 0, 64, 45
2, 315608, Note_on_c, 0, 91, 0
2, 315632, Note_on_c, 0, 55, 0
2, 315632, Note_on_c, 0, 64, 0
2, 315636, Note_on_c, 0, 58, 0
2, 315852, Note_on_c, 0, 55, 48
2, 315856, Note_on_c, 0, 64, 55
2, 315864, Note_on_c, 0, 58, 34
2, 315892, Note_on_c, 0, 64, 0
2, 315900, Note_on_c, 0, 58, 0
2, 315904, Note_on_c, 0, 55, 0
2, 316036, Control_c, 0, 64, 104
2, 316048, Control_c, 0, 64, 56
2, 316060, Control_c, 0, 64, 0
2, 316076, Note_on_c, 0, 80, 80
2, 316088, Note_on_c, 0, 72, 71
2, 316096, Note_on_c, 0, 48, 63
2, 316116, Note_on_c, 0, 48, 0
2, 316128, Control_c, 0, 64, 72
2, 316132, Note_on_c, 0, 72, 0
2, 316140, Control_c, 0, 64, 127
2, 316168, Note_on_c, 0, 80, 0
2, 316172, Note_on_c, 0, 83, 84
2, 316244, Note_on_c, 0, 84, 83
2, 316272, Note_on_c, 0, 83, 0
2, 316296, Note_on_c, 0, 84, 0
2, 316352, Note_on_c, 0, 92, 92
2, 316356, Note_on_c, 0, 56, 57
2, 316356, Note_on_c, 0, 65, 59
2, 316384, Note_on_c, 0, 65, 0
2, 316392, Note_on_c, 0, 92, 0
2, 316400, Note_on_c, 0, 56, 0
2, 316552, Note_on_c, 0, 51, 63
2, 316564, Note_on_c, 0, 56, 57
2, 316592, Note_on_c, 0, 51, 0
2, 316620, Note_on_c, 0, 56, 0
2, 316628, Note_on_c, 0, 65, 57
2, 316660, Note_on_c, 0, 65, 0
2, 316788, Control_c, 0, 64, 104
2, 316792, Note_on_c, 0, 49, 68
2, 316800, Control_c, 0, 64, 40
2, 316812, Control_c, 0, 64, 0
2, 316844, Note_on_c, 0, 49, 0
2, 316844, Note_on_c, 0, 56, 56
2, 316848, Note_on_c, 0, 59, 49
2, 316876, Note_on_c, 0, 77, 94
2, 316892, Note_on_c, 0, 65, 64
2, 316900, Note_on_c, 0, 56, 0
2, 316900, Control_c, 0, 64, 104
2, 316904, Note_on_c, 0, 59, 0
2, 316912, Control_c, 0, 64, 127
2, 316924, Note_on_c, 0, 77, 0
2, 316928, Note_on_c, 0, 65, 0
2, 317128, Note_on_c, 0, 101, 88
2, 317132, Note_on_c, 0, 89, 90
2, 317164, Note_on_c, 0, 101, 0
2, 317184, Note_on_c, 0, 89, 0
2, 317368, Note_on_c, 0, 85, 78
2, 317388, Note_on_c, 0, 73, 57
2, 317440, Note_on_c, 0, 85, 0
2, 317460, Note_on_c, 0, 73, 0
2, 317480, Note_on_c, 0, 84, 89
2, 317512, Note_on_c, 0, 72, 51
2, 317544, Note_on_c, 0, 72, 0
2, 317588, Note_on_c, 0, 84, 0
2, 317608, Note_on_c, 0, 71, 65
2, 317608, Control_c, 0, 64, 104
2, 317616, Note_on_c, 0, 83, 93
2, 317616, Control_c, 0, 64, 56
2, 317628, Control_c, 0, 64, 0
2, 317640, Note_on_c, 0, 71, 0
2, 317664, Control_c, 0, 64, 24
2, 317672, Control_c, 0, 64, 88
2, 317684, Note_on_c, 0, 83, 0
2, 317684, Control_c, 0, 64, 127
2, 317868, Note_on_c, 0, 101, 88
2, 317872, Note_on_c, 0, 89, 85
2, 317912, Note_on_c, 0, 101, 0
2, 317928, Note_on_c, 0, 89, 0
2, 318116, Note_on_c, 0, 83, 86
2, 318136, Note_on_c, 0, 71, 52
2, 318192, Note_on_c, 0, 71, 0
2, 318192, Note_on_c, 0, 83, 0
2, 318232, Note_on_c, 0, 84, 93
2, 318240, Note_on_c, 0, 72, 67
2, 318308, Note_on_c, 0, 72, 0
2, 318340, Note_on_c, 0, 84, 0
2, 318344, Control_c, 0, 64, 72
2, 318356, Control_c, 0, 64, 0
2, 318368, Note_on_c, 0, 85, 91
2, 318376, Note_on_c, 0, 73, 73
2, 318412, Control_c, 0, 64, 56
2, 318424, Control_c, 0, 64, 127
2, 318432, Note_on_c, 0, 73, 0
2, 318432, Note_on_c, 0, 85, 0
2, 318624, Note_on_c, 0, 101, 84
2, 318628, Note_on_c, 0, 89, 78
2, 318672, Note_on_c, 0, 101, 0
2, 318684, Note_on_c, 0, 89, 0
2, 318868, Note_on_c, 0, 85, 79
2, 318888, Note_on_c, 0, 73, 54
2, 318940, Note_on_c, 0, 85, 0
2, 318948, Note_on_c, 0, 73, 0
2, 318976, Note_on_c, 0, 84, 84
2, 318988, Note_on_c, 0, 72, 58
2, 319064, Note_on_c, 0, 72, 0
2, 319084, Control_c, 0, 64, 72
2, 319088, Note_on_c, 0, 84, 0
2, 319092, Control_c, 0, 64, 0
2, 319104, Note_on_c, 0, 83, 86
2, 319112, Note_on_c, 0, 71, 64
2, 319148, Control_c, 0, 64, 40
2, 319160, Control_c, 0, 64, 104
2, 319168, Note_on_c, 0, 83, 0
2, 319172, Control_c, 0, 64, 127
2, 319176, Note_on_c, 0, 71, 0
2, 319376, Note_on_c, 0, 101, 84
2, 319376, Note_on_c, 0, 89, 82
2, 319408, Note_on_c, 0, 101, 0
2, 319432, Note_on_c, 0, 89, 0
2, 319620, Note_on_c, 0, 83, 81
2, 319644, Note_on_c, 0, 71, 52
2, 319696, Note_on_c, 0, 83, 0
2, 319712, Note_on_c, 0, 71, 0
2, 319728, Note_on_c, 0, 84, 92
2, 319756, Note_on_c, 0, 72, 63
2, 319840, Note_on_c, 0, 72, 0
2, 319844, Control_c, 0, 64, 104
2, 319848, Note_on_c, 0, 84, 0
2, 319856, Control_c, 0, 64, 56
2, 319864, Note_on_c, 0, 85, 95
2, 319864, Control_c, 0, 64, 0
2, 319884, Note_on_c, 0, 73, 57
2, 319924, Control_c, 0, 64, 56
2, 319932, Note_on_c, 0, 85, 0
2, 319932, Control_c, 0, 64, 127
2, 319940, Note_on_c, 0, 73, 0
2, 320120, Note_on_c, 0, 101, 83
2, 320124, Note_on_c, 0, 89, 80
2, 320156, Note_on_c, 0, 101, 0
2, 320184, Note_on_c, 0, 89, 0
2, 320352, Note_on_c, 0, 85, 82
2, 320368, Note_on_c, 0, 73, 49
2, 320424, Note_on_c, 0, 73, 0
2, 320428, Note_on_c, 0, 85, 0
2, 320464, Note_on_c, 0, 72, 70
2, 320468, Note_on_c, 0, 84, 89
2, 320484, Note_on_c, 0, 72, 0
2, 320592, Control_c, 0, 64, 72
2, 320604, Note_on_c, 0, 84, 0
2, 320604, Note_on_c, 0, 83, 92
2, 320604, Control_c, 0, 64, 0
2, 320628, Note_on_c, 0, 62, 42
2, 320628, Note_on_c, 0, 65, 48
2, 320632, Note_on_c, 0, 71, 40
2, 320672, Control_c, 0, 64, 88
2, 320684, Note_on_c, 0, 83, 0
2, 320684, Control_c, 0, 64, 127
2, 320688, Note_on_c, 0, 65, 0
2, 320696, Note_on_c, 0, 62, 0
2, 320696, Note_on_c, 0, 71, 0
2, 320864, Note_on_c, 0, 101, 83
2, 320868, Note_on_c, 0, 89, 73
2, 320904, Note_on_c, 0, 101, 0
2, 320924, Note_on_c, 0, 89, 0
2, 321116, Note_on_c, 0, 84, 94
2, 321148, Note_on_c, 0, 72, 41
2, 321184, Note_on_c, 0, 84, 0
2, 321192, Note_on_c, 0, 72, 0
2, 321220, Note_on_c, 0, 71, 63
2, 321228, Note_on_c, 0, 83, 96
2, 321240, Note_on_c, 0, 71, 0
2, 321332, Note_on_c, 0, 83, 0
2, 321360, Note_on_c, 0, 82, 85
2, 321364, Control_c, 0, 64, 104
2, 321376, Note_on_c, 0, 61, 36
2, 321376, Control_c, 0, 64, 56
2, 321384, Note_on_c, 0, 70, 38
2, 321384, Note_on_c, 0, 65, 51
2, 321388, Control_c, 0, 64, 0
2, 321444, Note_on_c, 0, 82, 0
2, 321456, Note_on_c, 0, 65, 0
2, 321456, Control_c, 0, 64, 88
2, 321464, Note_on_c, 0, 61, 0
2, 321468, Note_on_c, 0, 70, 0
2, 321468, Control_c, 0, 64, 127
2, 321628, Note_on_c, 0, 101, 82
2, 321632, Note_on_c, 0, 89, 77
2, 321664, Note_on_c, 0, 101, 0
2, 321688, Note_on_c, 0, 89, 0
2, 321860, Note_on_c, 0, 84, 85
2, 321868, Note_on_c, 0, 72, 53
2, 321936, Note_on_c, 0, 72, 0
2, 321936, Note_on_c, 0, 84, 0
2, 321964, Note_on_c, 0, 70, 36
2, 321968, Note_on_c, 0, 82, 83
2, 321984, Note_on_c, 0, 70, 0
2, 322092, Note_on_c, 0, 82, 0
2, 322112, Note_on_c, 0, 80, 87
2, 322116, Control_c, 0, 64, 104
2, 322128, Control_c, 0, 64, 40
2, 322132, Note_on_c, 0, 68, 43
2, 322136, Note_on_c, 0, 65, 48
2, 322136, Control_c, 0, 64, 0
2, 322144, Note_on_c, 0, 60, 39
2, 322196, Note_on_c, 0, 80, 0
2, 322204, Control_c, 0, 64, 56
2, 322216, Control_c, 0, 64, 127
2, 322220, Note_on_c, 0, 65, 0
2, 322228, Note_on_c, 0, 60, 0
2, 322236, Note_on_c, 0, 68, 0
2, 322388, Note_on_c, 0, 101, 82
2, 322392, Note_on_c, 0, 89, 70
2, 322424, Note_on_c, 0, 101, 0
2, 322444, Note_on_c, 0, 89, 0
2, 322644, Note_on_c, 0, 82, 78
2, 322652, Note_on_c, 0, 70, 45
2, 322720, Note_on_c, 0, 70, 0
2, 322728, Note_on_c, 0, 82, 0
2, 322764, Note_on_c, 0, 80, 86
2, 322764, Note_on_c, 0, 68, 55
2, 322848, Note_on_c, 0, 68, 0
2, 322860, Note_on_c, 0, 80, 0
2, 322892, Note_on_c, 0, 67, 54
2, 322892, Note_on_c, 0, 79, 84
2, 322920, Control_c, 0, 64, 88
2, 322932, Control_c, 0, 64, 0
2, 323032, Control_c, 0, 64, 40
2, 323044, Control_c, 0, 64, 88
2, 323056, Control_c, 0, 64, 127
2, 323088, Note_on_c, 0, 67, 0
2, 323116, Note_on_c, 0, 80, 74
2, 323120, Note_on_c, 0, 79, 0
2, 323128, Note_on_c, 0, 68, 54
2, 323216, Note_on_c, 0, 68, 0
2, 323220, Note_on_c, 0, 80, 0
2, 323232, Note_on_c, 0, 79, 77
2, 323244, Note_on_c, 0, 67, 51
2, 323344, Note_on_c, 0, 79, 0
2, 323360, Note_on_c, 0, 67, 0
2, 323360, Note_on_c, 0, 77, 82
2, 323376, Note_on_c, 0, 65, 57
2, 323376, Control_c, 0, 64, 56
2, 323388, Control_c, 0, 64, 0
2, 323468, Control_c, 0, 64, 40
2, 323476, Control_c, 0, 64, 72
2, 323488, Control_c, 0, 64, 88
2, 323500, Control_c, 0, 64, 104
2, 323536, Control_c, 0, 64, 72
2, 323544, Control_c, 0, 64, 24
2, 323556, Control_c, 0, 64, 0
2, 323560, Note_on_c, 0, 65, 0
2, 323592, Note_on_c, 0, 77, 0
2, 323592, Note_on_c, 0, 79, 79
2, 323592, Control_c, 0, 64, 24
2, 323600, Control_c, 0, 64, 56
2, 323612, Note_on_c, 0, 67, 55
2, 323612, Control_c, 0, 64, 88
2, 323624, Control_c, 0, 64, 104
2, 323636, Control_c, 0, 64, 127
2, 323700, Note_on_c, 0, 67, 0
2, 323704, Note_on_c, 0, 82, 69
2, 323728, Note_on_c, 0, 79, 0
2, 323728, Note_on_c, 0, 70, 30
2, 323756, Note_on_c, 0, 70, 0
2, 323776, Note_on_c, 0, 82, 0
2, 323796, Note_on_c, 0, 68, 55
2, 323800, Note_on_c, 0, 80, 62
2, 323828, Note_on_c, 0, 82, 44
2, 323832, Note_on_c, 0, 80, 0
2, 323832, Control_c, 0, 64, 104
2, 323836, Note_on_c, 0, 68, 0
2, 323840, Note_on_c, 0, 70, 54
2, 323840, Control_c, 0, 64, 72
2, 323852, Control_c, 0, 64, 40
2, 323864, Control_c, 0, 64, 0
2, 323880, Note_on_c, 0, 80, 78
2, 323892, Note_on_c, 0, 68, 54
2, 323900, Note_on_c, 0, 70, 0
2, 323900, Note_on_c, 0, 82, 0
2, 323984, Note_on_c, 0, 79, 87
2, 323988, Note_on_c, 0, 80, 0
2, 323996, Note_on_c, 0, 68, 0
2, 324004, Note_on_c, 0, 67, 63
2, 324116, Note_on_c, 0, 67, 0
2, 324124, Note_on_c, 0, 77, 86
2, 324128, Note_on_c, 0, 79, 0
2, 324136, Note_on_c, 0, 65, 60
2, 324380, Note_on_c, 0, 65, 0
2, 324392, Note_on_c, 0, 79, 84
2, 324400, Note_on_c, 0, 77, 0
2, 324400, Note_on_c, 0, 67, 56
2, 324620, Note_on_c, 0, 67, 0
2, 324624, Note_on_c, 0, 80, 86
2, 324632, Note_on_c, 0, 68, 58
2, 324644, Note_on_c, 0, 79, 0
2, 324748, Note_on_c, 0, 79, 76
2, 324760, Note_on_c, 0, 68, 0
2, 324760, Note_on_c, 0, 80, 0
2, 324764, Note_on_c, 0, 67, 51
2, 324872, Note_on_c, 0, 67, 0
2, 324876, Note_on_c, 0, 79, 0
2, 324876, Note_on_c, 0, 77, 80
2, 324888, Note_on_c, 0, 65, 47
2, 324976, Control_c, 0, 64, 24
2, 324984, Note_on_c, 0, 65, 0
2, 324988, Control_c, 0, 64, 40
2, 324992, Note_on_c, 0, 84, 75
2, 325004, Note_on_c, 0, 72, 55
2, 325028, Note_on_c, 0, 77, 0
2, 325072, Note_on_c, 0, 72, 0
2, 325100, Note_on_c, 0, 84, 0
2, 325100, Note_on_c, 0, 79, 77
2, 325112, Control_c, 0, 64, 56
2, 325120, Note_on_c, 0, 67, 43
2, 325196, Note_on_c, 0, 67, 0
2, 325208, Note_on_c, 0, 70, 42
2, 325212, Note_on_c, 0, 82, 70
2, 325216, Note_on_c, 0, 79, 0
2, 325216, Control_c, 0, 64, 72
2, 325256, Note_on_c, 0, 70, 0
2, 325280, Note_on_c, 0, 82, 0
2, 325292, Note_on_c, 0, 68, 56
2, 325300, Note_on_c, 0, 80, 69
2, 325328, Note_on_c, 0, 82, 53
2, 325328, Control_c, 0, 64, 40
2, 325336, Note_on_c, 0, 68, 0
2, 325336, Note_on_c, 0, 70, 55
2, 325340, Note_on_c, 0, 80, 0
2, 325340, Control_c, 0, 64, 0
2, 325376, Note_on_c, 0, 80, 69
2, 325396, Note_on_c, 0, 68, 49
2, 325400, Note_on_c, 0, 70, 0
2, 325408, Note_on_c, 0, 82, 0
2, 325452, Control_c, 0, 64, 24
2, 325464, Control_c, 0, 64, 40
2, 325480, Note_on_c, 0, 80, 0
2, 325484, Note_on_c, 0, 79, 89
2, 325488, Note_on_c, 0, 68, 0
2, 325500, Note_on_c, 0, 67, 63
2, 325556, Control_c, 0, 64, 0
2, 325592, Note_on_c, 0, 80, 79
2, 325596, Note_on_c, 0, 67, 0
2, 325600, Note_on_c, 0, 79, 0
2, 325604, Note_on_c, 0, 68, 60
2, 325604, Control_c, 0, 64, 40
2, 325672, Control_c, 0, 64, 24
2, 325696, Note_on_c, 0, 68, 0
2, 325700, Note_on_c, 0, 80, 0
2, 325704, Note_on_c, 0, 77, 77
2, 325716, Note_on_c, 0, 65, 54
2, 325716, Control_c, 0, 64, 56
2, 325760, Control_c, 0, 64, 40
2, 325772, Control_c, 0, 64, 0
2, 325800, Note_on_c, 0, 77, 0
2, 325804, Note_on_c, 0, 65, 0
2, 325828, Note_on_c, 0, 64, 64
2, 325848, Note_on_c, 0, 76, 71
2, 325864, Control_c, 0, 64, 24
2, 325876, Control_c, 0, 64, 40
2, 325884, Control_c, 0, 64, 56
2, 325940, Note_on_c, 0, 64, 0
2, 325952, Note_on_c, 0, 67, 55
2, 325956, Note_on_c, 0, 79, 87
2, 325968, Note_on_c, 0, 76, 0
2, 325976, Control_c, 0, 64, 72
2, 326020, Control_c, 0, 64, 24
2, 326028, Note_on_c, 0, 67, 0
2, 326032, Control_c, 0, 64, 0
2, 326036, Note_on_c, 0, 79, 0
2, 326076, Note_on_c, 0, 75, 79
2, 326084, Note_on_c, 0, 63, 46
2, 326088, Control_c, 0, 64, 24
2, 326104, Control_c, 0, 64, 40
2, 326124, Control_c, 0, 64, 56
2, 326160, Control_c, 0, 64, 72
2, 326168, Note_on_c, 0, 75, 0
2, 326172, Note_on_c, 0, 63, 0
2, 326192, Note_on_c, 0, 84, 80
2, 326192, Control_c, 0, 64, 88
2, 326212, Note_on_c, 0, 72, 49
2, 326228, Control_c, 0, 64, 104
2, 326260, Control_c, 0, 64, 72
2, 326264, Note_on_c, 0, 72, 0
2, 326272, Control_c, 0, 64, 40
2, 326284, Note_on_c, 0, 84, 0
2, 326284, Control_c, 0, 64, 0
2, 326316, Note_on_c, 0, 74, 76
2, 326328, Note_on_c, 0, 62, 53
2, 326340, Control_c, 0, 64, 40
2, 326352, Control_c, 0, 64, 56
2, 326364, Control_c, 0, 64, 72
2, 326388, Note_on_c, 0, 62, 0
2, 326388, Control_c, 0, 64, 88
2, 326400, Note_on_c, 0, 74, 0
2, 326420, Control_c, 0, 64, 104
2, 326436, Note_on_c, 0, 82, 77
2, 326440, Note_on_c, 0, 70, 39
2, 326464, Control_c, 0, 64, 127
2, 326508, Note_on_c, 0, 82, 0
2, 326512, Note_on_c, 0, 70, 0
2, 326532, Control_c, 0, 64, 88
2, 326544, Control_c, 0, 64, 40
2, 326556, Note_on_c, 0, 73, 81
2, 326556, Control_c, 0, 64, 0
2, 326560, Note_on_c, 0, 61, 52
2, 326612, Control_c, 0, 64, 24
2, 326624, Control_c, 0, 64, 56
2, 326636, Control_c, 0, 64, 72
2, 326648, Note_on_c, 0, 61, 0
2, 326656, Note_on_c, 0, 73, 0
2, 326660, Control_c, 0, 64, 88
2, 326672, Control_c, 0, 64, 104
2, 326676, Note_on_c, 0, 77, 84
2, 326676, Note_on_c, 0, 65, 50
2, 326760, Control_c, 0, 64, 56
2, 326768, Note_on_c, 0, 65, 0
2, 326772, Control_c, 0, 64, 24
2, 326780, Note_on_c, 0, 77, 0
2, 326784, Control_c, 0, 64, 0
2, 326804, Note_on_c, 0, 60, 59
2, 326808, Note_on_c, 0, 72, 66
2, 326816, Control_c, 0, 64, 24
2, 326828, Control_c, 0, 64, 40
2, 326840, Control_c, 0, 64, 56
2, 326852, Control_c, 0, 64, 72
2, 326864, Control_c, 0, 64, 88
2, 326872, Note_on_c, 0, 60, 0
2, 326876, Control_c, 0, 64, 104
2, 326888, Note_on_c, 0, 72, 0
2, 326904, Note_on_c, 0, 80, 81
2, 326912, Note_on_c, 0, 68, 46
2, 326920, Control_c, 0, 64, 127
2, 326980, Note_on_c, 0, 80, 0
2, 326984, Note_on_c, 0, 68, 0
2, 326988, Control_c, 0, 64, 104
2, 327000, Control_c, 0, 64, 56
2, 327012, Control_c, 0, 64, 24
2, 327024, Note_on_c, 0, 70, 75
2, 327024, Control_c, 0, 64, 0
2, 327040, Note_on_c, 0, 58, 45
2, 327068, Control_c, 0, 64, 24
2, 327080, Control_c, 0, 64, 56
2, 327092, Control_c, 0, 64, 72
2, 327100, Control_c, 0, 64, 88
2, 327120, Note_on_c, 0, 58, 0
2, 327124, Control_c, 0, 64, 104
2, 327136, Note_on_c, 0, 70, 0
2, 327144, Note_on_c, 0, 79, 82
2, 327148, Control_c, 0, 64, 127
2, 327152, Note_on_c, 0, 67, 49
2, 327180, Note_on_c, 0, 67, 0
2, 327204, Note_on_c, 0, 79, 0
2, 327216, Control_c, 0, 64, 104
2, 327228, Control_c, 0, 64, 72
2, 327236, Control_c, 0, 64, 24
2, 327248, Control_c, 0, 64, 0
2, 327268, Note_on_c, 0, 56, 54
2, 327268, Note_on_c, 0, 68, 73
2, 327304, Control_c, 0, 64, 24
2, 327316, Control_c, 0, 64, 40
2, 327328, Control_c, 0, 64, 72
2, 327340, Control_c, 0, 64, 88
2, 327352, Note_on_c, 0, 56, 0
2, 327364, Note_on_c, 0, 68, 0
2, 327364, Control_c, 0, 64, 104
2, 327388, Note_on_c, 0, 72, 79
2, 327392, Note_on_c, 0, 60, 55
2, 327396, Control_c, 0, 64, 127
2, 327456, Control_c, 0, 64, 72
2, 327464, Control_c, 0, 64, 40
2, 327472, Note_on_c, 0, 60, 0
2, 327476, Control_c, 0, 64, 0
2, 327492, Note_on_c, 0, 72, 0
2, 327500, Note_on_c, 0, 67, 80
2, 327516, Note_on_c, 0, 55, 65
2, 327568, Control_c, 0, 64, 24
2, 327576, Control_c, 0, 64, 40
2, 327584, Note_on_c, 0, 55, 0
2, 327612, Note_on_c, 0, 67, 0
2, 327612, Control_c, 0, 64, 56
2, 327616, Note_on_c, 0, 76, 83
2, 327624, Note_on_c, 0, 64, 55
2, 327656, Control_c, 0, 64, 72
2, 327692, Note_on_c, 0, 64, 0
2, 327692, Control_c, 0, 64, 40
2, 327704, Control_c, 0, 64, 0
2, 327740, Note_on_c, 0, 76, 0
2, 327744, Note_on_c, 0, 65, 84
2, 327756, Note_on_c, 0, 53, 58
2, 327796, Control_c, 0, 64, 40
2, 327816, Control_c, 0, 64, 56
2, 327824, Note_on_c, 0, 53, 0
2, 327844, Note_on_c, 0, 65, 0
2, 327852, Note_on_c, 0, 73, 81
2, 327852, Note_on_c, 0, 61, 44
2, 327852, Control_c, 0, 64, 72
2, 327904, Note_on_c, 0, 61, 0
2, 327932, Note_on_c, 0, 73, 0
2, 327940, Control_c, 0, 64, 40
2, 327956, Control_c, 0, 64, 0
2, 327976, Note_on_c, 0, 64, 84
2, 327992, Note_on_c, 0, 52, 59
2, 328080, Note_on_c, 0, 52, 0
2, 328084, Note_on_c, 0, 64, 0
2, 328088, Control_c, 0, 64, 24
2, 328092, Note_on_c, 0, 67, 72
2, 328100, Control_c, 0, 64, 56
2, 328108, Note_on_c, 0, 55, 63
2, 328112, Control_c, 0, 64, 72
2, 328124, Control_c, 0, 64, 88
2, 328176, Note_on_c, 0, 55, 0
2, 328180, Control_c, 0, 64, 40
2, 328188, Note_on_c, 0, 67, 0
2, 328192, Control_c, 0, 64, 0
2, 328208, Note_on_c, 0, 63, 75
2, 328220, Note_on_c, 0, 51, 59
2, 328240, Control_c, 0, 64, 24
2, 328248, Control_c, 0, 64, 40
2, 328260, Control_c, 0, 64, 56
2, 328272, Control_c, 0, 64, 72
2, 328312, Note_on_c, 0, 51, 0
2, 328316, Control_c, 0, 64, 88
2, 328324, Note_on_c, 0, 63, 0
2, 328328, Note_on_c, 0, 72, 82
2, 328344, Note_on_c, 0, 60, 55
2, 328388, Note_on_c, 0, 60, 0
2, 328396, Control_c, 0, 64, 56
2, 328408, Control_c, 0, 64, 24
2, 328420, Note_on_c, 0, 72, 0
2, 328420, Control_c, 0, 64, 0
2, 328448, Note_on_c, 0, 62, 78
2, 328464, Note_on_c, 0, 50, 59
2, 328488, Control_c, 0, 64, 24
2, 328500, Control_c, 0, 64, 40
2, 328512, Control_c, 0, 64, 56
2, 328524, Control_c, 0, 64, 72
2, 328540, Note_on_c, 0, 50, 0
2, 328552, Note_on_c, 0, 62, 0
2, 328556, Control_c, 0, 64, 88
2, 328564, Note_on_c, 0, 58, 55
2, 328568, Note_on_c, 0, 70, 71
2, 328588, Note_on_c, 0, 58, 0
2, 328588, Control_c, 0, 64, 104
2, 328632, Note_on_c, 0, 70, 0
2, 328692, Control_c, 0, 64, 72
2, 328704, Control_c, 0, 64, 40
2, 328716, Note_on_c, 0, 58, 80
2, 328716, Control_c, 0, 64, 0
2, 328728, Note_on_c, 0, 49, 59
2, 328840, Control_c, 0, 64, 24
2, 328852, Control_c, 0, 64, 56
2, 328864, Control_c, 0, 64, 72
2, 328872, Control_c, 0, 64, 88
2, 328900, Note_on_c, 0, 49, 0
2, 328908, Note_on_c, 0, 58, 0
2, 328908, Note_on_c, 0, 61, 71
2, 328924, Note_on_c, 0, 53, 62
2, 328940, Control_c, 0, 64, 56
2, 328948, Note_on_c, 0, 61, 0
2, 328952, Control_c, 0, 64, 24
2, 328964, Control_c, 0, 64, 0
2, 328976, Note_on_c, 0, 53, 0
2, 328992, Note_on_c, 0, 65, 86
2, 329008, Note_on_c, 0, 55, 65
2, 329056, Control_c, 0, 64, 40
2, 329068, Control_c, 0, 64, 56
2, 329072, Note_on_c, 0, 65, 0
2, 329080, Note_on_c, 0, 55, 0
2, 329100, Note_on_c, 0, 67, 84
2, 329112, Note_on_c, 0, 58, 56
2, 329136, Control_c, 0, 64, 0
2, 329196, Note_on_c, 0, 67, 0
2, 329212, Note_on_c, 0, 61, 55
2, 329216, Note_on_c, 0, 58, 0
2, 329216, Note_on_c, 0, 70, 82
2, 329224, Control_c, 0, 64, 24
2, 329236, Control_c, 0, 64, 40
2, 329248, Control_c, 0, 64, 56
2, 329260, Control_c, 0, 64, 72
2, 329316, Note_on_c, 0, 61, 0
2, 329320, Note_on_c, 0, 73, 79
2, 329328, Note_on_c, 0, 65, 58
2, 329348, Note_on_c, 0, 70, 0
2, 329368, Note_on_c, 0, 73, 0
2, 329404, Note_on_c, 0, 65, 0
2, 329432, Note_on_c, 0, 77, 93
2, 329440, Note_on_c, 0, 67, 55
2, 329440, Control_c, 0, 64, 24
2, 329452, Control_c, 0, 64, 0
2, 329512, Note_on_c, 0, 77, 0
2, 329520, Note_on_c, 0, 67, 0
2, 329532, Control_c, 0, 64, 40
2, 329544, Control_c, 0, 64, 56
2, 329552, Note_on_c, 0, 79, 90
2, 329556, Control_c, 0, 64, 72
2, 329560, Note_on_c, 0, 70, 56
2, 329568, Control_c, 0, 64, 88
2, 329612, Control_c, 0, 64, 104
2, 329652, Note_on_c, 0, 70, 0
2, 329656, Note_on_c, 0, 79, 0
2, 329664, Note_on_c, 0, 73, 59
2, 329668, Note_on_c, 0, 82, 80
2, 329756, Note_on_c, 0, 73, 0
2, 329764, Note_on_c, 0, 85, 78
2, 329784, Note_on_c, 0, 77, 70
2, 329796, Note_on_c, 0, 82, 0
2, 329812, Note_on_c, 0, 85, 0
2, 329856, Note_on_c, 0, 77, 0
2, 329876, Note_on_c, 0, 89, 85
2, 329900, Note_on_c, 0, 79, 55
2, 329952, Control_c, 0, 64, 88
2, 329980, Note_on_c, 0, 79, 0
2, 329980, Note_on_c, 0, 89, 0
2, 329992, Note_on_c, 0, 91, 90
2, 330000, Note_on_c, 0, 82, 56
2, 330060, Note_on_c, 0, 82, 0
2, 330060, Note_on_c, 0, 91, 0
2, 330076, Control_c, 0, 64, 56
2, 330088, Control_c, 0, 64, 0
2, 330120, Note_on_c, 0, 94, 86
2, 330128, Note_on_c, 0, 89, 86
2, 330132, Note_on_c, 0, 85, 74
2, 330156, Control_c, 0, 64, 40
2, 330168, Control_c, 0, 64, 72
2, 330180, Control_c, 0, 64, 104
2, 330184, Note_on_c, 0, 89, 0
2, 330192, Control_c, 0, 64, 127
2, 330216, Note_on_c, 0, 94, 0
2, 330244, Note_on_c, 0, 85, 0
2, 330284, Note_on_c, 0, 92, 84
2, 330288, Note_on_c, 0, 87, 76
2, 330300, Note_on_c, 0, 84, 70
2, 330328, Note_on_c, 0, 87, 0
2, 330332, Note_on_c, 0, 92, 0
2, 330348, Note_on_c, 0, 84, 0
2, 330352, Control_c, 0, 64, 104
2, 330364, Control_c, 0, 64, 88
2, 330368, Note_on_c, 0, 91, 94
2, 330372, Note_on_c, 0, 85, 89
2, 330372, Control_c, 0, 64, 72
2, 330392, Note_on_c, 0, 82, 57
2, 330396, Control_c, 0, 64, 56
2, 330408, Control_c, 0, 64, 40
2, 330428, Note_on_c, 0, 85, 0
2, 330432, Note_on_c, 0, 91, 0
2, 330432, Control_c, 0, 64, 24
2, 330440, Control_c, 0, 64, 0
2, 330456, Note_on_c, 0, 82, 0
2, 330492, Note_on_c, 0, 89, 90
2, 330496, Note_on_c, 0, 84, 70
2, 330500, Note_on_c, 0, 80, 64
2, 330536, Note_on_c, 0, 84, 0
2, 330552, Note_on_c, 0, 89, 0
2, 330564, Note_on_c, 0, 80, 0
2, 330612, Note_on_c, 0, 88, 85
2, 330616, Note_on_c, 0, 82, 77
2, 330616, Note_on_c, 0, 79, 66
2, 330668, Note_on_c, 0, 88, 0
2, 330668, Control_c, 0, 64, 24
2, 330676, Note_on_c, 0, 79, 0
2, 330680, Control_c, 0, 64, 40
2, 330692, Note_on_c, 0, 82, 0
2, 330692, Control_c, 0, 64, 56
2, 330732, Note_on_c, 0, 80, 80
2, 330732, Note_on_c, 0, 85, 83
2, 330732, Note_on_c, 0, 77, 66
2, 330736, Control_c, 0, 64, 72
2, 330788, Note_on_c, 0, 77, 0
2, 330792, Note_on_c, 0, 80, 0
2, 330792, Control_c, 0, 64, 56
2, 330804, Note_on_c, 0, 85, 0
2, 330804, Control_c, 0, 64, 40
2, 330816, Control_c, 0, 64, 24
2, 330848, Note_on_c, 0, 84, 86
2, 330856, Note_on_c, 0, 79, 68
2, 330860, Note_on_c, 0, 76, 62
2, 330860, Control_c, 0, 64, 0
2, 330888, Note_on_c, 0, 79, 0
2, 330896, Note_on_c, 0, 84, 0
2, 330916, Note_on_c, 0, 76, 0
2, 330952, Control_c, 0, 64, 24
2, 330964, Note_on_c, 0, 73, 49
2, 330964, Note_on_c, 0, 82, 81
2, 330968, Note_on_c, 0, 77, 77
2, 331008, Control_c, 0, 64, 40
2, 331012, Note_on_c, 0, 77, 0
2, 331016, Note_on_c, 0, 82, 0
2, 331024, Note_on_c, 0, 73, 0
2, 331044, Control_c, 0, 64, 56
2, 331080, Note_on_c, 0, 72, 68
2, 331084, Note_on_c, 0, 80, 87
2, 331088, Control_c, 0, 64, 72
2, 331140, Note_on_c, 0, 72, 0
2, 331152, Note_on_c, 0, 80, 0
2, 331168, Control_c, 0, 64, 40
2, 331180, Control_c, 0, 64, 0
2, 331208, Note_on_c, 0, 79, 88
2, 331216, Note_on_c, 0, 70, 52
2, 331220, Note_on_c, 0, 73, 53
2, 331248, Control_c, 0, 64, 0
2, 331252, Note_on_c, 0, 70, 0
2, 331256, Note_on_c, 0, 73, 0
2, 331260, Note_on_c, 0, 79, 0
2, 348673, Note_on_c, 0, 60, 68
2, 348681, Note_on_c, 0, 57, 48
2, 348697, Note_on_c, 0, 53, 48
2, 348701, Control_c, 0, 64, 56
2, 348713, Control_c, 0, 64, 104
2, 348725, Control_c, 0, 64, 127
2, 348745, Note_on_c, 0, 60, 0
2, 348765, Note_on_c, 0, 62, 63
2, 348861, Note_on_c, 0, 57, 0
2, 348865, Note_on_c, 0, 60, 75
2, 348873, Note_on_c, 0, 53, 0
2, 348885, Note_on_c, 0, 62, 0
2, 348905, Note_on_c, 0, 60, 0
2, 348929, Control_c, 0, 64, 104
2, 348941, Control_c, 0, 64, 0
2, 348969, Note_on_c, 0, 96, 86
2, 348973, Note_on_c, 0, 93, 80
2, 348973, Note_on_c, 0, 69, 70
2, 349005, Control_c, 0, 64, 40
2, 349017, Control_c, 0, 64, 104
2, 349025, Control_c, 0, 64, 127
2, 349049, Note_on_c, 0, 93, 0
2, 349057, Note_on_c, 0, 92, 79
2, 349137, Note_on_c, 0, 96, 0
2, 349145, Note_on_c, 0, 91, 79
2, 349153, Note_on_c, 0, 92, 0
2, 349201, Note_on_c, 0, 91, 0
2, 349249, Note_on_c, 0, 65, 65
2, 349249, Note_on_c, 0, 93, 89
2, 349253, Note_on_c, 0, 89, 86
2, 349265, Note_on_c, 0, 69, 0
2, 349281, Note_on_c, 0, 65, 0
2, 349329, Note_on_c, 0, 89, 0
2, 349341, Note_on_c, 0, 88, 70
2, 349405, Note_on_c, 0, 93, 0
2, 349417, Note_on_c, 0, 88, 0
2, 349417, Note_on_c, 0, 86, 72
2, 349477, Note_on_c, 0, 86, 0
2, 349505, Control_c, 0, 64, 104
2, 349513, Control_c, 0, 64, 40
2, 349525, Note_on_c, 0, 84, 89
2, 349525, Note_on_c, 0, 89, 90
2, 349529, Control_c, 0, 64, 0
2, 349537, Note_on_c, 0, 60, 68
2, 349545, Note_on_c, 0, 57, 54
2, 349561, Note_on_c, 0, 53, 42
2, 349585, Note_on_c, 0, 84, 0
2, 349597, Note_on_c, 0, 60, 0
2, 349601, Control_c, 0, 64, 56
2, 349609, Note_on_c, 0, 62, 58
2, 349613, Control_c, 0, 64, 104
2, 349621, Note_on_c, 0, 89, 0
2, 349621, Control_c, 0, 64, 127
2, 349701, Note_on_c, 0, 60, 75
2, 349705, Note_on_c, 0, 57, 0
2, 349717, Note_on_c, 0, 53, 0
2, 349721, Note_on_c, 0, 62, 0
2, 349741, Note_on_c, 0, 60, 0
2, 349753, Control_c, 0, 64, 88
2, 349765, Control_c, 0, 64, 24
2, 349773, Control_c, 0, 64, 0
2, 349805, Note_on_c, 0, 93, 81
2, 349805, Note_on_c, 0, 96, 78
2, 349813, Note_on_c, 0, 69, 74
2, 349817, Control_c, 0, 64, 40
2, 349829, Control_c, 0, 64, 88
2, 349841, Control_c, 0, 64, 127
2, 349877, Note_on_c, 0, 93, 0
2, 349897, Note_on_c, 0, 92, 71
2, 349973, Note_on_c, 0, 96, 0
2, 349981, Note_on_c, 0, 92, 0
2, 349981, Note_on_c, 0, 91, 74
2, 350029, Note_on_c, 0, 91, 0
2, 350085, Note_on_c, 0, 93, 87
2, 350089, Note_on_c, 0, 65, 77
2, 350093, Note_on_c, 0, 89, 82
2, 350121, Note_on_c, 0, 69, 0
2, 350133, Note_on_c, 0, 65, 0
2, 350157, Note_on_c, 0, 89, 0
2, 350193, Note_on_c, 0, 88, 52
2, 350241, Note_on_c, 0, 93, 0
2, 350261, Note_on_c, 0, 88, 0
2, 350261, Note_on_c, 0, 86, 67
2, 350309, Note_on_c, 0, 86, 0
2, 350341, Control_c, 0, 64, 104
2, 350349, Control_c, 0, 64, 56
2, 350361, Control_c, 0, 64, 0
2, 350373, Note_on_c, 0, 84, 73
2, 350373, Note_on_c, 0, 89, 76
2, 350377, Note_on_c, 0, 60, 75
2, 350381, Note_on_c, 0, 57, 60
2, 350401, Note_on_c, 0, 53, 46
2, 350417, Note_on_c, 0, 84, 0
2, 350437, Control_c, 0, 64, 40
2, 350441, Note_on_c, 0, 60, 0
2, 350449, Control_c, 0, 64, 88
2, 350453, Note_on_c, 0, 89, 0
2, 350457, Control_c, 0, 64, 127
2, 350469, Note_on_c, 0, 62, 67
2, 350561, Note_on_c, 0, 60, 74
2, 350565, Note_on_c, 0, 57, 0
2, 350569, Note_on_c, 0, 53, 0
2, 350581, Note_on_c, 0, 62, 0
2, 350589, Note_on_c, 0, 60, 0
2, 350609, Control_c, 0, 64, 104
2, 350621, Control_c, 0, 64, 56
2, 350633, Control_c, 0, 64, 0
2, 350649, Note_on_c, 0, 96, 79
2, 350649, Note_on_c, 0, 69, 83
2, 350649, Note_on_c, 0, 93, 79
2, 350677, Control_c, 0, 64, 24
2, 350685, Control_c, 0, 64, 72
2, 350697, Control_c, 0, 64, 127
2, 350725, Note_on_c, 0, 93, 0
2, 350737, Note_on_c, 0, 92, 68
2, 350817, Note_on_c, 0, 96, 0
2, 350829, Note_on_c, 0, 92, 0
2, 350829, Note_on_c, 0, 91, 69
2, 350877, Note_on_c, 0, 91, 0
2, 350933, Note_on_c, 0, 89, 81
2, 350933, Note_on_c, 0, 93, 82
2, 350937, Note_on_c, 0, 65, 82
2, 350969, Note_on_c, 0, 69, 0
2, 350981, Note_on_c, 0, 65, 0
2, 351013, Note_on_c, 0, 89, 0
2, 351029, Note_on_c, 0, 88, 62
2, 351105, Note_on_c, 0, 88, 0
2, 351113, Note_on_c, 0, 86, 63
2, 351117, Note_on_c, 0, 93, 0
2, 351169, Note_on_c, 0, 86, 0
2, 351209, Control_c, 0, 64, 104
2, 351217, Control_c, 0, 64, 56
2, 351221, Note_on_c, 0, 89, 74
2, 351229, Control_c, 0, 64, 0
2, 351233, Note_on_c, 0, 84, 74
2, 351241, Note_on_c, 0, 60, 75
2, 351241, Note_on_c, 0, 57, 66
2, 351293, Control_c, 0, 64, 72
2, 351305, Note_on_c, 0, 84, 0
2, 351305, Control_c, 0, 64, 127
2, 351317, Note_on_c, 0, 83, 72
2, 351329, Note_on_c, 0, 89, 0
2, 351381, Note_on_c, 0, 83, 0
2, 351413, Note_on_c, 0, 82, 65
2, 351469, Note_on_c, 0, 82, 0
2, 351505, Note_on_c, 0, 81, 67
2, 351509, Note_on_c, 0, 84, 86
2, 351581, Note_on_c, 0, 81, 0
2, 351601, Note_on_c, 0, 80, 65
2, 351629, Note_on_c, 0, 84, 0
2, 351689, Note_on_c, 0, 80, 0
2, 351697, Note_on_c, 0, 79, 64
2, 351737, Note_on_c, 0, 79, 0
2, 351745, Note_on_c, 0, 57, 0
2, 351765, Note_on_c, 0, 60, 0
2, 351773, Control_c, 0, 64, 88
2, 351781, Control_c, 0, 64, 56
2, 351793, Control_c, 0, 64, 24
2, 351801, Note_on_c, 0, 81, 71
2, 351805, Note_on_c, 0, 77, 80
2, 351805, Control_c, 0, 64, 0
2, 351809, Note_on_c, 0, 57, 42
2, 351817, Control_c, 0, 64, 24
2, 351821, Note_on_c, 0, 53, 56
2, 351825, Control_c, 0, 64, 40
2, 351837, Control_c, 0, 64, 72
2, 351845, Control_c, 0, 64, 104
2, 351857, Note_on_c, 0, 81, 0
2, 351857, Control_c, 0, 64, 127
2, 351865, Note_on_c, 0, 57, 0
2, 351869, Note_on_c, 0, 77, 0
2, 351877, Note_on_c, 0, 53, 0
2, 351909, Note_on_c, 0, 76, 66
2, 351957, Note_on_c, 0, 76, 0
2, 351989, Note_on_c, 0, 77, 74
2, 351989, Note_on_c, 0, 74, 50
2, 352037, Note_on_c, 0, 74, 0
2, 352045, Note_on_c, 0, 77, 0
2, 352073, Control_c, 0, 64, 88
2, 352085, Control_c, 0, 64, 40
2, 352097, Control_c, 0, 64, 0
2, 352101, Note_on_c, 0, 76, 85
2, 352109, Note_on_c, 0, 72, 68
2, 352129, Note_on_c, 0, 48, 59
2, 352181, Note_on_c, 0, 72, 0
2, 352193, Control_c, 0, 64, 40
2, 352205, Control_c, 0, 64, 104
2, 352217, Control_c, 0, 64, 127
2, 352221, Note_on_c, 0, 48, 0
2, 352221, Note_on_c, 0, 76, 0
2, 352377, Control_c, 0, 64, 88
2, 352389, Control_c, 0, 64, 40
2, 352393, Note_on_c, 0, 79, 79
2, 352401, Note_on_c, 0, 76, 66
2, 352401, Control_c, 0, 64, 0
2, 352429, Note_on_c, 0, 55, 54
2, 352441, Control_c, 0, 64, 24
2, 352457, Note_on_c, 0, 55, 0
2, 352457, Control_c, 0, 64, 72
2, 352465, Control_c, 0, 64, 127
2, 352489, Note_on_c, 0, 80, 76
2, 352513, Note_on_c, 0, 76, 0
2, 352521, Note_on_c, 0, 55, 4
2, 352537, Note_on_c, 0, 79, 0
2, 352573, Note_on_c, 0, 81, 74
2, 352593, Note_on_c, 0, 80, 0
2, 352617, Note_on_c, 0, 81, 0
2, 352673, Note_on_c, 0, 82, 82
2, 352673, Note_on_c, 0, 64, 54
2, 352677, Note_on_c, 0, 58, 38
2, 352677, Note_on_c, 0, 79, 66
2, 352693, Note_on_c, 0, 55, 0
2, 352713, Note_on_c, 0, 79, 0
2, 352725, Note_on_c, 0, 82, 0
2, 352729, Note_on_c, 0, 64, 0
2, 352737, Note_on_c, 0, 58, 0
2, 352773, Note_on_c, 0, 83, 81
2, 352853, Note_on_c, 0, 84, 87
2, 352861, Note_on_c, 0, 83, 0
2, 352901, Note_on_c, 0, 84, 0
2, 352953, Control_c, 0, 64, 88
2, 352965, Control_c, 0, 64, 24
2, 352969, Note_on_c, 0, 85, 99
2, 352973, Note_on_c, 0, 82, 81
2, 352977, Control_c, 0, 64, 0
2, 352993, Note_on_c, 0, 46, 50
2, 353041, Control_c, 0, 64, 40
2, 353053, Control_c, 0, 64, 127
2, 353081, Note_on_c, 0, 82, 0
2, 353089, Note_on_c, 0, 85, 0
2, 353109, Note_on_c, 0, 46, 0
2, 353245, Control_c, 0, 64, 104
2, 353257, Control_c, 0, 64, 24
2, 353265, Note_on_c, 0, 79, 82
2, 353269, Note_on_c, 0, 70, 57
2, 353269, Control_c, 0, 64, 0
2, 353281, Note_on_c, 0, 77, 64
2, 353289, Note_on_c, 0, 70, 0
2, 353297, Note_on_c, 0, 77, 0
2, 353301, Note_on_c, 0, 55, 52
2, 353321, Control_c, 0, 64, 24
2, 353333, Control_c, 0, 64, 88
2, 353341, Note_on_c, 0, 79, 0
2, 353345, Control_c, 0, 64, 127
2, 353365, Note_on_c, 0, 80, 73
2, 353445, Note_on_c, 0, 81, 74
2, 353473, Note_on_c, 0, 80, 0
2, 353489, Note_on_c, 0, 81, 0
2, 353541, Note_on_c, 0, 82, 83
2, 353549, Note_on_c, 0, 65, 51
2, 353549, Note_on_c, 0, 77, 71
2, 353553, Note_on_c, 0, 79, 58
2, 353557, Note_on_c, 0, 61, 44
2, 353577, Note_on_c, 0, 79, 0
2, 353593, Note_on_c, 0, 77, 0
2, 353605, Note_on_c, 0, 82, 0
2, 353609, Note_on_c, 0, 65, 0
2, 353617, Note_on_c, 0, 55, 0
2, 353621, Note_on_c, 0, 61, 0
2, 353645, Note_on_c, 0, 83, 77
2, 353725, Note_on_c, 0, 84, 84
2, 353745, Note_on_c, 0, 83, 0
2, 353773, Note_on_c, 0, 84, 0
2, 353801, Control_c, 0, 64, 88
2, 353809, Control_c, 0, 64, 24
2, 353821, Control_c, 0, 64, 0
2, 353833, Note_on_c, 0, 85, 95
2, 353837, Note_on_c, 0, 82, 74
2, 353837, Note_on_c, 0, 76, 81
2, 353857, Note_on_c, 0, 48, 62
2, 353881, Note_on_c, 0, 76, 0
2, 353897, Control_c, 0, 64, 56
2, 353909, Control_c, 0, 64, 127
2, 353941, Note_on_c, 0, 48, 0
2, 353941, Note_on_c, 0, 82, 0
2, 353953, Note_on_c, 0, 85, 0
2, 354093, Control_c, 0, 64, 56
2, 354105, Control_c, 0, 64, 0
2, 354121, Note_on_c, 0, 91, 89
2, 354125, Note_on_c, 0, 82, 59
2, 354129, Note_on_c, 0, 76, 74
2, 354145, Control_c, 0, 64, 56
2, 354157, Control_c, 0, 64, 104
2, 354169, Note_on_c, 0, 82, 0
2, 354169, Control_c, 0, 64, 127
2, 354177, Note_on_c, 0, 76, 0
2, 354197, Note_on_c, 0, 91, 0
2, 354225, Note_on_c, 0, 93, 86
2, 354257, Note_on_c, 0, 60, 68
2, 354277, Note_on_c, 0, 93, 0
2, 354309, Note_on_c, 0, 60, 0
2, 354313, Note_on_c, 0, 91, 90
2, 354381, Note_on_c, 0, 91, 0
2, 354405, Note_on_c, 0, 90, 78
2, 354413, Note_on_c, 0, 75, 83
2, 354425, Note_on_c, 0, 81, 61
2, 354457, Note_on_c, 0, 75, 0
2, 354477, Note_on_c, 0, 81, 0
2, 354481, Note_on_c, 0, 90, 0
2, 354501, Note_on_c, 0, 91, 74
2, 354549, Note_on_c, 0, 60, 70
2, 354565, Note_on_c, 0, 91, 0
2, 354597, Note_on_c, 0, 60, 0
2, 354597, Note_on_c, 0, 90, 82
2, 354613, Control_c, 0, 64, 104
2, 354625, Control_c, 0, 64, 88
2, 354633, Control_c, 0, 64, 56
2, 354661, Note_on_c, 0, 90, 0
2, 354685, Note_on_c, 0, 89, 84
2, 354689, Control_c, 0, 64, 72
2, 354693, Note_on_c, 0, 74, 77
2, 354693, Note_on_c, 0, 80, 62
2, 354701, Control_c, 0, 64, 88
2, 354709, Control_c, 0, 64, 104
2, 354737, Note_on_c, 0, 80, 0
2, 354741, Note_on_c, 0, 74, 0
2, 354761, Note_on_c, 0, 89, 0
2, 354785, Note_on_c, 0, 91, 83
2, 354833, Note_on_c, 0, 60, 62
2, 354841, Note_on_c, 0, 91, 0
2, 354865, Note_on_c, 0, 89, 74
2, 354905, Control_c, 0, 64, 72
2, 354917, Note_on_c, 0, 60, 0
2, 354917, Control_c, 0, 64, 40
2, 354929, Control_c, 0, 64, 0
2, 354941, Note_on_c, 0, 89, 0
2, 354969, Control_c, 0, 64, 40
2, 354973, Note_on_c, 0, 88, 90
2, 354977, Note_on_c, 0, 68, 56
2, 354981, Note_on_c, 0, 71, 62
2, 354981, Control_c, 0, 64, 72
2, 354993, Control_c, 0, 64, 104
2, 355001, Control_c, 0, 64, 127
2, 355013, Note_on_c, 0, 68, 0
2, 355037, Note_on_c, 0, 71, 0
2, 355041, Note_on_c, 0, 88, 0
2, 355069, Note_on_c, 0, 89, 82
2, 355109, Note_on_c, 0, 60, 58
2, 355137, Note_on_c, 0, 89, 0
2, 355141, Note_on_c, 0, 60, 0
2, 355157, Control_c, 0, 64, 56
2, 355161, Note_on_c, 0, 86, 88
2, 355165, Control_c, 0, 64, 24
2, 355177, Control_c, 0, 64, 0
2, 355221, Control_c, 0, 64, 72
2, 355229, Control_c, 0, 64, 104
2, 355241, Control_c, 0, 64, 127
2, 355249, Note_on_c, 0, 86, 0
2, 355257, Note_on_c, 0, 84, 85
2, 355269, Note_on_c, 0, 72, 64
2, 355269, Note_on_c, 0, 70, 56
2, 355273, Note_on_c, 0, 67, 58
2, 355309, Note_on_c, 0, 84, 0
2, 355357, Note_on_c, 0, 70, 0
2, 355357, Note_on_c, 0, 82, 81
2, 355417, Note_on_c, 0, 82, 0
2, 355445, Note_on_c, 0, 79, 92
2, 355481, Note_on_c, 0, 67, 0
2, 355497, Note_on_c, 0, 72, 0
2, 355541, Note_on_c, 0, 79, 0
2, 355545, Control_c, 0, 64, 104
2, 355557, Note_on_c, 0, 77, 94
2, 355557, Control_c, 0, 64, 72
2, 355569, Control_c, 0, 64, 24
2, 355573, Note_on_c, 0, 69, 62
2, 355577, Control_c, 0, 64, 0
2, 355581, Note_on_c, 0, 65, 55
2, 355645, Control_c, 0, 64, 40
2, 355653, Control_c, 0, 64, 104
2, 355665, Note_on_c, 0, 77, 0
2, 355665, Control_c, 0, 64, 127
2, 355701, Note_on_c, 0, 65, 0
2, 355701, Note_on_c, 0, 69, 0
2, 355841, Control_c, 0, 64, 88
2, 355849, Note_on_c, 0, 96, 89
2, 355849, Control_c, 0, 64, 24
2, 355853, Note_on_c, 0, 93, 85
2, 355861, Control_c, 0, 64, 0
2, 355913, Control_c, 0, 64, 40
2, 355921, Note_on_c, 0, 93, 0
2, 355925, Control_c, 0, 64, 88
2, 355937, Control_c, 0, 64, 127
2, 355941, Note_on_c, 0, 92, 74
2, 356029, Note_on_c, 0, 96, 0
2, 356033, Note_on_c, 0, 92, 0
2, 356041, Note_on_c, 0, 91, 72
2, 356085, Note_on_c, 0, 91, 0
2, 356137, Note_on_c, 0, 93, 82
2, 356137, Note_on_c, 0, 89, 89
2, 356209, Note_on_c, 0, 89, 0
2, 356229, Note_on_c, 0, 88, 67
2, 356321, Note_on_c, 0, 88, 0
2, 356321, Note_on_c, 0, 93, 0
2, 356325, Note_on_c, 0, 86, 67
2, 356377, Note_on_c, 0, 86, 0
2, 356401, Control_c, 0, 64, 104
2, 356413, Control_c, 0, 64, 56
2, 356425, Control_c, 0, 64, 0
2, 356429, Note_on_c, 0, 84, 89
2, 356433, Note_on_c, 0, 89, 88
2, 356433, Note_on_c, 0, 60, 68
2, 356445, Note_on_c, 0, 57, 51
2, 356457, Note_on_c, 0, 53, 45
2, 356485, Note_on_c, 0, 84, 0
2, 356489, Control_c, 0, 64, 24
2, 356501, Control_c, 0, 64, 72
2, 356505, Note_on_c, 0, 60, 0
2, 356509, Control_c, 0, 64, 104
2, 356517, Note_on_c, 0, 89, 0
2, 356521, Control_c, 0, 64, 127
2, 356533, Note_on_c, 0, 62, 55
2, 356621, Note_on_c, 0, 57, 0
2, 356621, Note_on_c, 0, 60, 76
2, 356625, Note_on_c, 0, 53, 0
2, 356637, Note_on_c, 0, 62, 0
2, 356657, Note_on_c, 0, 60, 0
2, 356685, Control_c, 0, 64, 72
2, 356697, Control_c, 0, 64, 40
2, 356705, Control_c, 0, 64, 0
2, 356721, Note_on_c, 0, 96, 80
2, 356721, Note_on_c, 0, 93, 79
2, 356725, Note_on_c, 0, 69, 77
2, 356749, Control_c, 0, 64, 40
2, 356761, Control_c, 0, 64, 104
2, 356773, Control_c, 0, 64, 127
2, 356793, Note_on_c, 0, 93, 0
2, 356817, Note_on_c, 0, 92, 71
2, 356897, Note_on_c, 0, 92, 0
2, 356905, Note_on_c, 0, 96, 0
2, 356905, Note_on_c, 0, 91, 66
2, 356953, Note_on_c, 0, 91, 0
2, 357009, Note_on_c, 0, 65, 74
2, 357009, Note_on_c, 0, 93, 74
2, 357013, Note_on_c, 0, 89, 72
2, 357033, Note_on_c, 0, 69, 0
2, 357049, Note_on_c, 0, 65, 0
2, 357093, Note_on_c, 0, 89, 0
2, 357105, Note_on_c, 0, 88, 62
2, 357185, Note_on_c, 0, 88, 0
2, 357189, Note_on_c, 0, 86, 63
2, 357193, Note_on_c, 0, 93, 0
2, 357241, Note_on_c, 0, 86, 0
2, 357261, Control_c, 0, 64, 104
2, 357269, Control_c, 0, 64, 72
2, 357281, Control_c, 0, 64, 0
2, 357293, Note_on_c, 0, 84, 72
2, 357293, Note_on_c, 0, 89, 74
2, 357293, Note_on_c, 0, 60, 75
2, 357301, Note_on_c, 0, 57, 56
2, 357329, Note_on_c, 0, 53, 36
2, 357345, Note_on_c, 0, 84, 0
2, 357357, Note_on_c, 0, 60, 0
2, 357357, Control_c, 0, 64, 40
2, 357369, Control_c, 0, 64, 88
2, 357381, Control_c, 0, 64, 127
2, 357385, Note_on_c, 0, 62, 68
2, 357389, Note_on_c, 0, 89, 0
2, 357469, Note_on_c, 0, 60, 82
2, 357477, Note_on_c, 0, 53, 0
2, 357481, Note_on_c, 0, 57, 0
2, 357493, Note_on_c, 0, 62, 0
2, 357513, Note_on_c, 0, 60, 0
2, 357553, Control_c, 0, 64, 88
2, 357565, Control_c, 0, 64, 40
2, 357573, Note_on_c, 0, 69, 70
2, 357573, Note_on_c, 0, 96, 78
2, 357577, Note_on_c, 0, 93, 74
2, 357577, Control_c, 0, 64, 0
2, 357617, Control_c, 0, 64, 24
2, 357629, Control_c, 0, 64, 88
2, 357641, Control_c, 0, 64, 127
2, 357657, Note_on_c, 0, 93, 0
2, 357669, Note_on_c, 0, 92, 69
2, 357749, Note_on_c, 0, 96, 0
2, 357757, Note_on_c, 0, 92, 0
2, 357765, Note_on_c, 0, 91, 71
2, 357813, Note_on_c, 0, 91, 0
2, 357861, Note_on_c, 0, 93, 86
2, 357861, Note_on_c, 0, 65, 78
2, 357861, Note_on_c, 0, 89, 84
2, 357881, Note_on_c, 0, 69, 0
2, 357913, Note_on_c, 0, 65, 0
2, 357937, Note_on_c, 0, 89, 0
2, 357961, Note_on_c, 0, 88, 64
2, 358025, Note_on_c, 0, 93, 0
2, 358045, Note_on_c, 0, 88, 0
2, 358057, Note_on_c, 0, 86, 60
2, 358101, Note_on_c, 0, 86, 0
2, 358125, Control_c, 0, 64, 104
2, 358137, Control_c, 0, 64, 56
2, 358149, Control_c, 0, 64, 0
2, 358153, Note_on_c, 0, 89, 82
2, 358161, Note_on_c, 0, 84, 82
2, 358161, Note_on_c, 0, 60, 72
2, 358165, Note_on_c, 0, 57, 64
2, 358213, Control_c, 0, 64, 56
2, 358225, Control_c, 0, 64, 104
2, 358237, Note_on_c, 0, 84, 0
2, 358237, Control_c, 0, 64, 127
2, 358245, Note_on_c, 0, 83, 75
2, 358257, Note_on_c, 0, 89, 0
2, 358305, Note_on_c, 0, 83, 0
2, 358337, Note_on_c, 0, 82, 74
2, 358405, Note_on_c, 0, 82, 0
2, 358433, Note_on_c, 0, 81, 70
2, 358437, Note_on_c, 0, 84, 80
2, 358489, Note_on_c, 0, 81, 0
2, 358517, Note_on_c, 0, 84, 0
2, 358525, Note_on_c, 0, 80, 71
2, 358609, Note_on_c, 0, 80, 0
2, 358625, Note_on_c, 0, 79, 69
2, 358665, Note_on_c, 0, 79, 0
2, 358693, Control_c, 0, 64, 104
2, 358701, Control_c, 0, 64, 72
2, 358705, Note_on_c, 0, 60, 0
2, 358713, Control_c, 0, 64, 40
2, 358717, Note_on_c, 0, 81, 73
2, 358725, Note_on_c, 0, 77, 75
2, 358725, Control_c, 0, 64, 24
2, 358737, Note_on_c, 0, 53, 61
2, 358737, Note_on_c, 0, 57, 60
2, 358757, Control_c, 0, 64, 56
2, 358765, Control_c, 0, 64, 88
2, 358773, Note_on_c, 0, 77, 0
2, 358773, Note_on_c, 0, 81, 0
2, 358777, Control_c, 0, 64, 104
2, 358785, Note_on_c, 0, 57, 0
2, 358789, Control_c, 0, 64, 127
2, 358793, Note_on_c, 0, 57, 0
2, 358809, Note_on_c, 0, 53, 0
2, 358821, Note_on_c, 0, 76, 70
2, 358853, Note_on_c, 0, 76, 0
2, 358909, Note_on_c, 0, 74, 66
2, 358933, Note_on_c, 0, 74, 0
2, 358985, Control_c, 0, 64, 104
2, 358993, Control_c, 0, 64, 56
2, 359005, Control_c, 0, 64, 0
2, 359009, Note_on_c, 0, 76, 82
2, 359021, Note_on_c, 0, 72, 60
2, 359041, Note_on_c, 0, 48, 61
2, 359077, Note_on_c, 0, 72, 0
2, 359105, Control_c, 0, 64, 56
2, 359113, Note_on_c, 0, 76, 0
2, 359113, Control_c, 0, 64, 127
2, 359141, Note_on_c, 0, 48, 0
2, 359293, Note_on_c, 0, 79, 84
2, 359297, Note_on_c, 0, 76, 68
2, 359297, Control_c, 0, 64, 88
2, 359309, Control_c, 0, 64, 0
2, 359333, Note_on_c, 0, 55, 50
2, 359353, Control_c, 0, 64, 24
2, 359357, Note_on_c, 0, 76, 0
2, 359357, Note_on_c, 0, 79, 0
2, 359365, Control_c, 0, 64, 72
2, 359373, Control_c, 0, 64, 127
2, 359385, Note_on_c, 0, 80, 72
2, 359477, Note_on_c, 0, 81, 68
2, 359489, Note_on_c, 0, 80, 0
2, 359521, Note_on_c, 0, 81, 0
2, 359585, Note_on_c, 0, 82, 77
2, 359593, Note_on_c, 0, 64, 58
2, 359593, Note_on_c, 0, 79, 58
2, 359601, Note_on_c, 0, 58, 40
2, 359633, Note_on_c, 0, 79, 0
2, 359637, Note_on_c, 0, 55, 0
2, 359641, Note_on_c, 0, 82, 0
2, 359669, Note_on_c, 0, 64, 0
2, 359685, Note_on_c, 0, 83, 64
2, 359689, Note_on_c, 0, 58, 0
2, 359765, Note_on_c, 0, 83, 0
2, 359769, Note_on_c, 0, 84, 67
2, 359821, Note_on_c, 0, 84, 0
2, 359873, Control_c, 0, 64, 56
2, 359881, Note_on_c, 0, 85, 90
2, 359885, Note_on_c, 0, 82, 71
2, 359885, Control_c, 0, 64, 0
2, 359901, Note_on_c, 0, 46, 56
2, 359949, Control_c, 0, 64, 88
2, 359961, Control_c, 0, 64, 127
2, 359969, Note_on_c, 0, 82, 0
2, 359973, Note_on_c, 0, 85, 0
2, 359977, Note_on_c, 0, 87, 77
2, 359981, Note_on_c, 0, 46, 0
2, 360065, Note_on_c, 0, 85, 69
2, 360073, Note_on_c, 0, 87, 0
2, 360105, Note_on_c, 0, 85, 0
2, 360157, Control_c, 0, 64, 104
2, 360165, Control_c, 0, 64, 0
2, 360169, Note_on_c, 0, 79, 82
2, 360173, Note_on_c, 0, 70, 64
2, 360173, Note_on_c, 0, 77, 67
2, 360185, Note_on_c, 0, 55, 53
2, 360233, Note_on_c, 0, 77, 0
2, 360233, Note_on_c, 0, 79, 0
2, 360233, Note_on_c, 0, 70, 0
2, 360241, Control_c, 0, 64, 56
2, 360253, Control_c, 0, 64, 127
2, 360261, Note_on_c, 0, 80, 84
2, 360337, Note_on_c, 0, 80, 0
2, 360357, Note_on_c, 0, 81, 83
2, 360405, Note_on_c, 0, 81, 0
2, 360453, Note_on_c, 0, 82, 89
2, 360461, Note_on_c, 0, 65, 53
2, 360461, Note_on_c, 0, 77, 68
2, 360465, Note_on_c, 0, 61, 44
2, 360469, Note_on_c, 0, 79, 48
2, 360485, Note_on_c, 0, 77, 0
2, 360493, Note_on_c, 0, 79, 0
2, 360521, Note_on_c, 0, 82, 0
2, 360549, Note_on_c, 0, 83, 79
2, 360577, Note_on_c, 0, 65, 0
2, 360597, Note_on_c, 0, 61, 0
2, 360601, Note_on_c, 0, 55, 0
2, 360637, Note_on_c, 0, 84, 86
2, 360657, Note_on_c, 0, 83, 0
2, 360685, Note_on_c, 0, 84, 0
2, 360741, Note_on_c, 0, 85, 92
2, 360745, Note_on_c, 0, 82, 80
2, 360749, Note_on_c, 0, 76, 80
2, 360753, Control_c, 0, 64, 88
2, 360765, Control_c, 0, 64, 0
2, 360769, Note_on_c, 0, 48, 66
2, 360801, Note_on_c, 0, 76, 0
2, 360829, Note_on_c, 0, 85, 0
2, 360829, Control_c, 0, 64, 40
2, 360833, Note_on_c, 0, 82, 0
2, 360841, Note_on_c, 0, 48, 0
2, 360841, Control_c, 0, 64, 104
2, 360845, Note_on_c, 0, 87, 85
2, 360849, Control_c, 0, 64, 127
2, 360921, Note_on_c, 0, 87, 0
2, 360929, Note_on_c, 0, 85, 85
2, 360973, Note_on_c, 0, 85, 0
2, 361033, Control_c, 0, 64, 88
2, 361045, Note_on_c, 0, 91, 89
2, 361045, Control_c, 0, 64, 0
2, 361053, Note_on_c, 0, 82, 60
2, 361053, Note_on_c, 0, 67, 59
2, 361061, Note_on_c, 0, 76, 70
2, 361069, Note_on_c, 0, 70, 57
2, 361097, Note_on_c, 0, 82, 0
2, 361101, Control_c, 0, 64, 56
2, 361105, Note_on_c, 0, 67, 0
2, 361109, Control_c, 0, 64, 104
2, 361117, Note_on_c, 0, 76, 0
2, 361121, Control_c, 0, 64, 127
2, 361125, Note_on_c, 0, 91, 0
2, 361149, Note_on_c, 0, 70, 0
2, 361153, Note_on_c, 0, 93, 85
2, 361205, Note_on_c, 0, 93, 0
2, 361213, Note_on_c, 0, 60, 54
2, 361245, Note_on_c, 0, 60, 0
2, 361245, Note_on_c, 0, 91, 88
2, 361313, Note_on_c, 0, 91, 0
2, 361317, Control_c, 0, 64, 104
2, 361325, Control_c, 0, 64, 40
2, 361337, Control_c, 0, 64, 0
2, 361345, Note_on_c, 0, 90, 86
2, 361361, Note_on_c, 0, 75, 67
2, 361365, Note_on_c, 0, 81, 65
2, 361369, Note_on_c, 0, 69, 58
2, 361369, Control_c, 0, 64, 40
2, 361373, Note_on_c, 0, 66, 45
2, 361381, Control_c, 0, 64, 88
2, 361393, Control_c, 0, 64, 127
2, 361397, Note_on_c, 0, 69, 0
2, 361409, Note_on_c, 0, 81, 0
2, 361413, Note_on_c, 0, 75, 0
2, 361421, Note_on_c, 0, 90, 0
2, 361429, Note_on_c, 0, 66, 0
2, 361441, Note_on_c, 0, 91, 87
2, 361485, Note_on_c, 0, 60, 50
2, 361501, Note_on_c, 0, 91, 0
2, 361533, Note_on_c, 0, 60, 0
2, 361533, Note_on_c, 0, 90, 85
2, 361577, Control_c, 0, 64, 72
2, 361589, Control_c, 0, 64, 0
2, 361601, Note_on_c, 0, 90, 0
2, 361621, Note_on_c, 0, 89, 97
2, 361629, Note_on_c, 0, 74, 68
2, 361629, Note_on_c, 0, 80, 61
2, 361633, Note_on_c, 0, 68, 49
2, 361641, Note_on_c, 0, 65, 47
2, 361641, Control_c, 0, 64, 56
2, 361653, Control_c, 0, 64, 88
2, 361657, Note_on_c, 0, 80, 0
2, 361661, Control_c, 0, 64, 127
2, 361677, Note_on_c, 0, 74, 0
2, 361689, Note_on_c, 0, 65, 0
2, 361689, Note_on_c, 0, 68, 0
2, 361693, Note_on_c, 0, 89, 0
2, 361729, Note_on_c, 0, 91, 87
2, 361769, Note_on_c, 0, 60, 50
2, 361777, Note_on_c, 0, 91, 0
2, 361809, Note_on_c, 0, 89, 83
2, 361841, Note_on_c, 0, 60, 0
2, 361857, Control_c, 0, 64, 88
2, 361869, Control_c, 0, 64, 24
2, 361873, Note_on_c, 0, 89, 0
2, 361881, Control_c, 0, 64, 0
2, 361901, Note_on_c, 0, 62, 58
2, 361901, Note_on_c, 0, 88, 88
2, 361901, Note_on_c, 0, 71, 55
2, 361901, Note_on_c, 0, 68, 46
2, 361909, Note_on_c, 0, 79, 65
2, 361921, Control_c, 0, 64, 24
2, 361929, Note_on_c, 0, 79, 0
2, 361933, Control_c, 0, 64, 56
2, 361945, Control_c, 0, 64, 104
2, 361957, Control_c, 0, 64, 127
2, 361965, Note_on_c, 0, 88, 0
2, 361965, Note_on_c, 0, 68, 0
2, 361969, Note_on_c, 0, 71, 0
2, 361973, Note_on_c, 0, 62, 0
2, 361997, Note_on_c, 0, 89, 83
2, 362053, Note_on_c, 0, 60, 48
2, 362073, Note_on_c, 0, 89, 0
2, 362081, Note_on_c, 0, 86, 85
2, 362109, Control_c, 0, 64, 72
2, 362117, Control_c, 0, 64, 0
2, 362145, Note_on_c, 0, 60, 0
2, 362161, Control_c, 0, 64, 24
2, 362169, Note_on_c, 0, 86, 0
2, 362173, Control_c, 0, 64, 56
2, 362181, Note_on_c, 0, 84, 84
2, 362185, Control_c, 0, 64, 127
2, 362189, Note_on_c, 0, 72, 63
2, 362189, Note_on_c, 0, 64, 62
2, 362189, Note_on_c, 0, 70, 53
2, 362233, Note_on_c, 0, 84, 0
2, 362249, Note_on_c, 0, 70, 0
2, 362265, Note_on_c, 0, 64, 0
2, 362273, Note_on_c, 0, 82, 72
2, 362313, Note_on_c, 0, 72, 0
2, 362341, Note_on_c, 0, 82, 0
2, 362361, Note_on_c, 0, 79, 82
2, 362433, Control_c, 0, 64, 88
2, 362445, Control_c, 0, 64, 24
2, 362453, Note_on_c, 0, 79, 0
2, 362453, Control_c, 0, 64, 0
2, 362469, Note_on_c, 0, 77, 78
2, 362469, Note_on_c, 0, 69, 57
2, 362469, Note_on_c, 0, 65, 56
2, 362497, Note_on_c, 0, 65, 0
2, 362509, Control_c, 0, 64, 56
2, 362513, Note_on_c, 0, 69, 0
2, 362517, Note_on_c, 0, 77, 0
2, 362521, Control_c, 0, 64, 88
2, 362533, Control_c, 0, 64, 127
2, 362577, Note_on_c, 0, 69, 77
2, 362585, Control_c, 0, 64, 104
2, 362609, Control_c, 0, 64, 88
2, 362617, Control_c, 0, 64, 72
2, 362629, Control_c, 0, 64, 56
2, 362641, Control_c, 0, 64, 40
2, 362645, Note_on_c, 0, 69, 0
2, 362661, Control_c, 0, 64, 24
2, 362665, Note_on_c, 0, 70, 69
2, 362685, Control_c, 0, 64, 0
2, 362733, Note_on_c, 0, 70, 0
2, 362753, Note_on_c, 0, 71, 68
2, 362833, Note_on_c, 0, 71, 0
2, 362853, Note_on_c, 0, 74, 75
2, 362897, Note_on_c, 0, 74, 0
2, 362941, Note_on_c, 0, 72, 80
2, 363013, Note_on_c, 0, 72, 0
2, 363033, Note_on_c, 0, 76, 80
2, 363109, Note_on_c, 0, 76, 0
2, 363125, Note_on_c, 0, 77, 79
2, 363209, Note_on_c, 0, 77, 0
2, 363221, Note_on_c, 0, 81, 77
2, 363285, Note_on_c, 0, 81, 0
2, 363337, Note_on_c, 0, 79, 83
2, 363349, Note_on_c, 0, 77, 64
2, 363361, Note_on_c, 0, 43, 63
2, 363377, Control_c, 0, 64, 40
2, 363389, Note_on_c, 0, 77, 0
2, 363389, Control_c, 0, 64, 88
2, 363401, Control_c, 0, 64, 127
2, 363417, Note_on_c, 0, 43, 0
2, 363421, Note_on_c, 0, 79, 0
2, 363433, Note_on_c, 0, 71, 70
2, 363525, Note_on_c, 0, 71, 0
2, 363529, Note_on_c, 0, 79, 64
2, 363537, Note_on_c, 0, 77, 58
2, 363557, Note_on_c, 0, 77, 0
2, 363577, Note_on_c, 0, 79, 0
2, 363633, Note_on_c, 0, 83, 84
2, 363641, Note_on_c, 0, 65, 55
2, 363641, Note_on_c, 0, 62, 49
2, 363653, Note_on_c, 0, 55, 33
2, 363669, Note_on_c, 0, 62, 0
2, 363669, Note_on_c, 0, 65, 0
2, 363681, Note_on_c, 0, 55, 0
2, 363693, Note_on_c, 0, 83, 0
2, 363733, Note_on_c, 0, 91, 84
2, 363745, Note_on_c, 0, 89, 68
2, 363777, Note_on_c, 0, 89, 0
2, 363805, Note_on_c, 0, 91, 0
2, 363817, Note_on_c, 0, 83, 82
2, 363833, Control_c, 0, 64, 88
2, 363845, Control_c, 0, 64, 0
2, 363873, Note_on_c, 0, 48, 63
2, 363877, Note_on_c, 0, 58, 46
2, 363881, Note_on_c, 0, 83, 0
2, 363881, Note_on_c, 0, 55, 52
2, 363901, Note_on_c, 0, 48, 0
2, 363921, Note_on_c, 0, 91, 92
2, 363921, Control_c, 0, 64, 72
2, 363929, Note_on_c, 0, 88, 85
2, 363929, Control_c, 0, 64, 127
2, 363941, Note_on_c, 0, 64, 63
2, 363949, Note_on_c, 0, 55, 0
2, 363973, Note_on_c, 0, 58, 0
2, 363981, Note_on_c, 0, 64, 0
2, 363985, Note_on_c, 0, 88, 0
2, 364001, Note_on_c, 0, 91, 0
2, 364009, Note_on_c, 0, 84, 78
2, 364081, Note_on_c, 0, 84, 0
2, 364097, Note_on_c, 0, 91, 94
2, 364105, Note_on_c, 0, 88, 79
2, 364153, Note_on_c, 0, 88, 0
2, 364177, Note_on_c, 0, 91, 0
2, 364213, Control_c, 0, 64, 72
2, 364217, Note_on_c, 0, 93, 107
2, 364221, Note_on_c, 0, 89, 92
2, 364221, Control_c, 0, 64, 0
2, 364233, Note_on_c, 0, 65, 68
2, 364233, Note_on_c, 0, 57, 63
2, 364241, Note_on_c, 0, 53, 61
2, 364301, Control_c, 0, 64, 88
2, 364309, Note_on_c, 0, 84, 74
2, 364309, Control_c, 0, 64, 127
2, 364361, Note_on_c, 0, 93, 0
2, 364373, Note_on_c, 0, 53, 0
2, 364385, Note_on_c, 0, 57, 0
2, 364397, Note_on_c, 0, 89, 0
2, 364401, Note_on_c, 0, 81, 67
2, 364405, Note_on_c, 0, 84, 0
2, 364409, Note_on_c, 0, 65, 0
2, 364449, Note_on_c, 0, 81, 0
2, 364505, Control_c, 0, 64, 72
2, 364513, Note_on_c, 0, 77, 64
2, 364517, Control_c, 0, 64, 24
2, 364525, Control_c, 0, 64, 0
2, 364561, Note_on_c, 0, 77, 0
2, 364573, Control_c, 0, 64, 40
2, 364581, Control_c, 0, 64, 56
2, 364593, Control_c, 0, 64, 88
2, 364601, Note_on_c, 0, 69, 69
2, 364605, Control_c, 0, 64, 104
2, 364657, Control_c, 0, 64, 127
2, 364669, Note_on_c, 0, 69, 0
2, 364693, Note_on_c, 0, 70, 69
2, 364701, Control_c, 0, 64, 56
2, 364709, Control_c, 0, 64, 24
2, 364721, Control_c, 0, 64, 0
2, 364753, Control_c, 0, 64, 56
2, 364757, Note_on_c, 0, 70, 0
2, 364777, Control_c, 0, 64, 72
2, 364781, Note_on_c, 0, 71, 77
2, 364785, Control_c, 0, 64, 88
2, 364841, Note_on_c, 0, 71, 0
2, 364853, Control_c, 0, 64, 104
2, 364861, Note_on_c, 0, 72, 89
2, 364917, Note_on_c, 0, 72, 0
2, 364929, Control_c, 0, 64, 127
2, 364953, Note_on_c, 0, 81, 77
2, 365013, Note_on_c, 0, 81, 0
2, 365049, Control_c, 0, 64, 104
2, 365057, Control_c, 0, 64, 56
2, 365069, Note_on_c, 0, 79, 93
2, 365069, Control_c, 0, 64, 0
2, 365077, Note_on_c, 0, 77, 82
2, 365093, Note_on_c, 0, 43, 58
2, 365137, Note_on_c, 0, 77, 0
2, 365145, Control_c, 0, 64, 72
2, 365149, Note_on_c, 0, 43, 0
2, 365157, Control_c, 0, 64, 127
2, 365161, Note_on_c, 0, 79, 0
2, 365165, Note_on_c, 0, 71, 78
2, 365249, Note_on_c, 0, 71, 0
2, 365261, Note_on_c, 0, 79, 70
2, 365269, Note_on_c, 0, 77, 53
2, 365293, Note_on_c, 0, 77, 0
2, 365305, Note_on_c, 0, 79, 0
2, 365357, Note_on_c, 0, 83, 86
2, 365369, Note_on_c, 0, 65, 58
2, 365373, Note_on_c, 0, 62, 50
2, 365389, Note_on_c, 0, 55, 41
2, 365397, Note_on_c, 0, 62, 0
2, 365413, Note_on_c, 0, 55, 0
2, 365413, Note_on_c, 0, 65, 0
2, 365421, Note_on_c, 0, 83, 0
2, 365461, Note_on_c, 0, 91, 78
2, 365481, Note_on_c, 0, 89, 51
2, 365505, Note_on_c, 0, 89, 0
2, 365533, Note_on_c, 0, 91, 0
2, 365545, Note_on_c, 0, 83, 77
2, 365545, Control_c, 0, 64, 72
2, 365557, Control_c, 0, 64, 0
2, 365601, Note_on_c, 0, 48, 46
2, 365601, Note_on_c, 0, 58, 36
2, 365609, Note_on_c, 0, 83, 0
2, 365609, Note_on_c, 0, 55, 55
2, 365621, Note_on_c, 0, 48, 0
2, 365625, Control_c, 0, 64, 72
2, 365633, Control_c, 0, 64, 127
2, 365649, Note_on_c, 0, 91, 90
2, 365657, Note_on_c, 0, 88, 81
2, 365657, Note_on_c, 0, 64, 62
2, 365673, Note_on_c, 0, 55, 0
2, 365697, Note_on_c, 0, 58, 0
2, 365705, Note_on_c, 0, 88, 0
2, 365713, Note_on_c, 0, 64, 0
2, 365725, Note_on_c, 0, 91, 0
2, 365741, Note_on_c, 0, 84, 70
2, 365817, Note_on_c, 0, 84, 0
2, 365837, Note_on_c, 0, 88, 76
2, 365841, Note_on_c, 0, 91, 74
2, 365893, Note_on_c, 0, 88, 0
2, 365905, Note_on_c, 0, 91, 0
2, 365925, Control_c, 0, 64, 88
2, 365937, Control_c, 0, 64, 40
2, 365945, Note_on_c, 0, 93, 102
2, 365949, Control_c, 0, 64, 0
2, 365953, Note_on_c, 0, 89, 84
2, 365961, Note_on_c, 0, 65, 70
2, 365969, Note_on_c, 0, 57, 59
2, 365969, Note_on_c, 0, 53, 59
2, 366001, Control_c, 0, 64, 24
2, 366013, Control_c, 0, 64, 88
2, 366025, Control_c, 0, 64, 127
2, 366045, Note_on_c, 0, 84, 79
2, 366093, Note_on_c, 0, 93, 0
2, 366133, Note_on_c, 0, 53, 0
2, 366133, Note_on_c, 0, 84, 0
2, 366137, Note_on_c, 0, 89, 0
2, 366137, Note_on_c, 0, 81, 74
2, 366149, Note_on_c, 0, 57, 0
2, 366157, Note_on_c, 0, 65, 0
2, 366177, Note_on_c, 0, 81, 0
2, 366233, Note_on_c, 0, 81, 72
2, 366245, Note_on_c, 0, 77, 76
2, 366333, Note_on_c, 0, 72, 81
2, 366357, Note_on_c, 0, 81, 0
2, 366401, Note_on_c, 0, 77, 0
2, 366413, Note_on_c, 0, 72, 0
2, 366413, Note_on_c, 0, 69, 67
2, 366457, Note_on_c, 0, 69, 0
2, 366517, Note_on_c, 0, 69, 70
2, 366525, Note_on_c, 0, 65, 70
2, 366597, Note_on_c, 0, 69, 0
2, 366617, Note_on_c, 0, 60, 70
2, 366637, Note_on_c, 0, 65, 0
2, 366685, Note_on_c, 0, 60, 0
2, 366713, Note_on_c, 0, 57, 68
2, 366769, Note_on_c, 0, 57, 0
2, 366773, Control_c, 0, 64, 104
2, 366785, Control_c, 0, 64, 56
2, 366793, Control_c, 0, 64, 0
2, 366821, Note_on_c, 0, 58, 79
2, 366849, Note_on_c, 0, 31, 55
2, 366853, Note_on_c, 0, 43, 49
2, 366869, Control_c, 0, 64, 24
2, 366881, Control_c, 0, 64, 72
2, 366893, Control_c, 0, 64, 127
2, 366897, Note_on_c, 0, 31, 0
2, 366921, Note_on_c, 0, 43, 0
2, 366929, Note_on_c, 0, 65, 68
2, 366949, Note_on_c, 0, 58, 0
2, 366973, Note_on_c, 0, 65, 0
2, 367029, Note_on_c, 0, 65, 75
2, 367089, Note_on_c, 0, 65, 0
2, 367121, Note_on_c, 0, 70, 82
2, 367133, Note_on_c, 0, 55, 74
2, 367137, Note_on_c, 0, 43, 63
2, 367189, Note_on_c, 0, 55, 0
2, 367209, Note_on_c, 0, 43, 0
2, 367213, Note_on_c, 0, 77, 77
2, 367233, Note_on_c, 0, 70, 0
2, 367253, Note_on_c, 0, 77, 0
2, 367313, Note_on_c, 0, 77, 60
2, 367373, Note_on_c, 0, 77, 0
2, 367393, Note_on_c, 0, 82, 77
2, 367401, Note_on_c, 0, 43, 83
2, 367401, Note_on_c, 0, 31, 67
2, 367457, Note_on_c, 0, 31, 0
2, 367489, Note_on_c, 0, 43, 0
2, 367497, Note_on_c, 0, 89, 83
2, 367501, Note_on_c, 0, 82, 0
2, 367553, Note_on_c, 0, 89, 0
2, 367581, Note_on_c, 0, 77, 88
2, 367633, Note_on_c, 0, 77, 0
2, 367653, Control_c, 0, 64, 72
2, 367661, Control_c, 0, 64, 24
2, 367673, Control_c, 0, 64, 0
2, 367677, Note_on_c, 0, 45, 94
2, 367681, Note_on_c, 0, 89, 85
2, 367681, Note_on_c, 0, 93, 97
2, 367681, Note_on_c, 0, 33, 77
2, 367737, Control_c, 0, 64, 40
2, 367745, Note_on_c, 0, 33, 0
2, 367749, Control_c, 0, 64, 104
2, 367761, Control_c, 0, 64, 127
2, 367773, Note_on_c, 0, 84, 75
2, 367777, Note_on_c, 0, 45, 0
2, 367849, Note_on_c, 0, 93, 0
2, 367869, Note_on_c, 0, 81, 66
2, 367873, Note_on_c, 0, 84, 0
2, 367877, Note_on_c, 0, 89, 0
2, 367917, Note_on_c, 0, 81, 0
2, 367977, Note_on_c, 0, 81, 79
2, 367977, Note_on_c, 0, 57, 72
2, 367989, Note_on_c, 0, 77, 73
2, 367989, Note_on_c, 0, 45, 62
2, 368029, Note_on_c, 0, 57, 0
2, 368045, Note_on_c, 0, 45, 0
2, 368077, Note_on_c, 0, 72, 80
2, 368105, Note_on_c, 0, 81, 0
2, 368153, Note_on_c, 0, 77, 0
2, 368157, Note_on_c, 0, 72, 0
2, 368165, Note_on_c, 0, 69, 74
2, 368205, Note_on_c, 0, 69, 0
2, 368265, Note_on_c, 0, 69, 76
2, 368269, Note_on_c, 0, 45, 70
2, 368273, Note_on_c, 0, 33, 56
2, 368277, Note_on_c, 0, 65, 70
2, 368341, Note_on_c, 0, 69, 0
2, 368361, Note_on_c, 0, 60, 75
2, 368365, Note_on_c, 0, 33, 0
2, 368373, Note_on_c, 0, 65, 0
2, 368401, Note_on_c, 0, 45, 0
2, 368437, Note_on_c, 0, 60, 0
2, 368461, Note_on_c, 0, 53, 82
2, 368529, Note_on_c, 0, 53, 0
2, 368553, Control_c, 0, 64, 104
2, 368561, Control_c, 0, 64, 40
2, 368565, Note_on_c, 0, 62, 86
2, 368573, Control_c, 0, 64, 0
2, 368589, Note_on_c, 0, 46, 52
2, 368605, Note_on_c, 0, 34, 49
2, 368681, Note_on_c, 0, 65, 76
2, 368681, Control_c, 0, 64, 88
2, 368693, Control_c, 0, 64, 127
2, 368701, Note_on_c, 0, 34, 0
2, 368705, Note_on_c, 0, 62, 0
2, 368709, Note_on_c, 0, 46, 0
2, 368721, Note_on_c, 0, 65, 0
2, 368773, Note_on_c, 0, 65, 75
2, 368821, Note_on_c, 0, 65, 0
2, 368857, Note_on_c, 0, 74, 90
2, 368873, Note_on_c, 0, 58, 71
2, 368881, Note_on_c, 0, 46, 57
2, 368925, Note_on_c, 0, 58, 0
2, 368945, Note_on_c, 0, 46, 0
2, 368953, Note_on_c, 0, 77, 76
2, 368977, Note_on_c, 0, 74, 0
2, 368989, Note_on_c, 0, 77, 0
2, 369037, Note_on_c, 0, 77, 82
2, 369113, Note_on_c, 0, 77, 0
2, 369133, Note_on_c, 0, 86, 93
2, 369145, Note_on_c, 0, 46, 72
2, 369161, Note_on_c, 0, 34, 49
2, 369213, Note_on_c, 0, 46, 0
2, 369229, Note_on_c, 0, 86, 0
2, 369229, Note_on_c, 0, 89, 92
2, 369261, Note_on_c, 0, 34, 0
2, 369293, Note_on_c, 0, 89, 0
2, 369317, Note_on_c, 0, 77, 92
2, 369369, Note_on_c, 0, 77, 0
2, 369397, Control_c, 0, 64, 56
2, 369409, Control_c, 0, 64, 0
2, 369429, Note_on_c, 0, 89, 100
2, 369429, Note_on_c, 0, 77, 93
2, 369429, Note_on_c, 0, 85, 78
2, 369429, Note_on_c, 0, 80, 77
2, 369441, Note_on_c, 0, 47, 63
2, 369441, Note_on_c, 0, 35, 58
2, 369497, Note_on_c, 0, 77, 0
2, 369513, Note_on_c, 0, 35, 0
2, 369517, Control_c, 0, 64, 104
2, 369525, Note_on_c, 0, 80, 0
2, 369529, Control_c, 0, 64, 127
2, 369541, Note_on_c, 0, 47, 0
2, 369561, Note_on_c, 0, 85, 0
2, 369577, Note_on_c, 0, 89, 0
2, 369633, Note_on_c, 0, 84, 76
2, 369689, Note_on_c, 0, 84, 0
2, 369717, Note_on_c, 0, 85, 75
2, 369753, Note_on_c, 0, 61, 63
2, 369813, Note_on_c, 0, 85, 0
2, 369817, Note_on_c, 0, 87, 81
2, 369861, Note_on_c, 0, 87, 0
2, 369901, Note_on_c, 0, 89, 84
2, 369969, Note_on_c, 0, 89, 0
2, 369997, Note_on_c, 0, 90, 84
2, 370033, Note_on_c, 0, 53, 58
2, 370045, Note_on_c, 0, 49, 51
2, 370093, Note_on_c, 0, 92, 85
2, 370097, Note_on_c, 0, 90, 0
2, 370113, Note_on_c, 0, 53, 0
2, 370125, Note_on_c, 0, 49, 0
2, 370177, Note_on_c, 0, 61, 0
2, 370189, Note_on_c, 0, 94, 68
2, 370209, Note_on_c, 0, 92, 0
2, 370241, Note_on_c, 0, 94, 0
2, 370281, Note_on_c, 0, 95, 85
2, 370297, Note_on_c, 0, 46, 57
2, 370301, Control_c, 0, 64, 88
2, 370313, Control_c, 0, 64, 24
2, 370325, Control_c, 0, 64, 0
2, 370349, Note_on_c, 0, 95, 0
2, 370373, Note_on_c, 0, 96, 83
2, 370381, Control_c, 0, 64, 56
2, 370389, Control_c, 0, 64, 127
2, 370437, Note_on_c, 0, 96, 0
2, 370457, Note_on_c, 0, 46, 0
2, 370461, Note_on_c, 0, 99, 78
2, 370553, Note_on_c, 0, 97, 77
2, 370557, Note_on_c, 0, 61, 71
2, 370605, Note_on_c, 0, 99, 0
2, 370645, Note_on_c, 0, 95, 77
2, 370649, Note_on_c, 0, 97, 0
2, 370697, Note_on_c, 0, 95, 0
2, 370733, Note_on_c, 0, 94, 71
2, 370801, Note_on_c, 0, 94, 0
2, 370829, Note_on_c, 0, 92, 77
2, 370845, Note_on_c, 0, 54, 54
2, 370857, Note_on_c, 0, 49, 47
2, 370913, Note_on_c, 0, 54, 0
2, 370913, Note_on_c, 0, 92, 0
2, 370921, Note_on_c, 0, 49, 0
2, 370925, Note_on_c, 0, 61, 0
2, 370925, Note_on_c, 0, 90, 69
2, 371005, Note_on_c, 0, 90, 0
2, 371017, Note_on_c, 0, 89, 79
2, 371073, Note_on_c, 0, 89, 0
2, 371121, Note_on_c, 0, 87, 75
2, 371137, Note_on_c, 0, 47, 63
2, 371137, Control_c, 0, 64, 56
2, 371149, Control_c, 0, 64, 0
2, 371201, Control_c, 0, 64, 72
2, 371209, Note_on_c, 0, 87, 0
2, 371209, Note_on_c, 0, 85, 73
2, 371213, Control_c, 0, 64, 127
2, 371281, Note_on_c, 0, 47, 0
2, 371297, Note_on_c, 0, 85, 0
2, 371297, Note_on_c, 0, 84, 82
2, 371349, Note_on_c, 0, 84, 0
2, 371401, Note_on_c, 0, 83, 83
2, 371413, Note_on_c, 0, 61, 61
2, 371461, Note_on_c, 0, 83, 0
2, 371497, Note_on_c, 0, 82, 76
2, 371577, Note_on_c, 0, 82, 0
2, 371597, Note_on_c, 0, 80, 73
2, 371685, Note_on_c, 0, 80, 0
2, 371693, Note_on_c, 0, 78, 69
2, 371713, Note_on_c, 0, 53, 51
2, 371713, Note_on_c, 0, 49, 34
2, 371785, Note_on_c, 0, 78, 0
2, 371793, Note_on_c, 0, 77, 80
2, 371801, Note_on_c, 0, 53, 0
2, 371805, Note_on_c, 0, 49, 0
2, 371837, Note_on_c, 0, 61, 0
2, 371849, Note_on_c, 0, 77, 0
2, 371893, Note_on_c, 0, 75, 76
2, 371969, Note_on_c, 0, 75, 0
2, 371973, Control_c, 0, 64, 104
2, 371985, Note_on_c, 0, 73, 73
2, 371985, Control_c, 0, 64, 40
2, 371993, Control_c, 0, 64, 0
2, 372001, Note_on_c, 0, 46, 62
2, 372049, Control_c, 0, 64, 24
2, 372061, Control_c, 0, 64, 88
2, 372073, Control_c, 0, 64, 127
2, 372085, Note_on_c, 0, 72, 81
2, 372089, Note_on_c, 0, 73, 0
2, 372129, Note_on_c, 0, 72, 0
2, 372137, Note_on_c, 0, 46, 0
2, 372181, Note_on_c, 0, 71, 70
2, 372233, Note_on_c, 0, 71, 0
2, 372277, Note_on_c, 0, 70, 68
2, 372285, Note_on_c, 0, 61, 53
2, 372285, Control_c, 0, 64, 88
2, 372297, Control_c, 0, 64, 40
2, 372309, Control_c, 0, 64, 0
2, 372353, Note_on_c, 0, 70, 0
2, 372353, Control_c, 0, 64, 24
2, 372365, Control_c, 0, 64, 56
2, 372373, Note_on_c, 0, 68, 67
2, 372373, Control_c, 0, 64, 88
2, 372385, Control_c, 0, 64, 127
2, 372441, Note_on_c, 0, 68, 0
2, 372465, Note_on_c, 0, 65, 67
2, 372525, Control_c, 0, 64, 88
2, 372533, Note_on_c, 0, 65, 0
2, 372537, Control_c, 0, 64, 24
2, 372549, Control_c, 0, 64, 0
2, 372565, Note_on_c, 0, 66, 64
2, 372569, Note_on_c, 0, 54, 51
2, 372585, Note_on_c, 0, 49, 43
2, 372593, Control_c, 0, 64, 24
2, 372601, Control_c, 0, 64, 72
2, 372609, Note_on_c, 0, 61, 0
2, 372613, Note_on_c, 0, 49, 0
2, 372613, Control_c, 0, 64, 127
2, 372625, Note_on_c, 0, 54, 0
2, 372665, Note_on_c, 0, 66, 0
2, 372665, Note_on_c, 0, 68, 63
2, 372745, Note_on_c, 0, 68, 0
2, 372757, Note_on_c, 0, 70, 65
2, 372849, Control_c, 0, 64, 88
2, 372857, Note_on_c, 0, 70, 0
2, 372861, Control_c, 0, 64, 24
2, 372873, Control_c, 0, 64, 0
2, 372881, Note_on_c, 0, 61, 73
2, 372905, Note_on_c, 0, 47, 53
2, 372937, Note_on_c, 0, 61, 0
2, 372937, Control_c, 0, 64, 56
2, 372949, Control_c, 0, 64, 127
2, 373081, Note_on_c, 0, 84, 82
2, 373105, Note_on_c, 0, 47, 0
2, 373137, Note_on_c, 0, 84, 0
2, 373169, Note_on_c, 0, 85, 81
2, 373185, Note_on_c, 0, 61, 64
2, 373265, Note_on_c, 0, 85, 0
2, 373269, Note_on_c, 0, 87, 79
2, 373321, Note_on_c, 0, 87, 0
2, 373357, Note_on_c, 0, 89, 88
2, 373417, Note_on_c, 0, 89, 0
2, 373453, Note_on_c, 0, 90, 82
2, 373465, Note_on_c, 0, 53, 71
2, 373465, Note_on_c, 0, 49, 55
2, 373549, Note_on_c, 0, 90, 0
2, 373553, Note_on_c, 0, 92, 84
2, 373609, Note_on_c, 0, 53, 0
2, 373641, Note_on_c, 0, 94, 81
2, 373661, Note_on_c, 0, 49, 0
2, 373669, Note_on_c, 0, 92, 0
2, 373697, Note_on_c, 0, 94, 0
2, 373713, Note_on_c, 0, 61, 0
2, 373733, Note_on_c, 0, 95, 94
2, 373753, Control_c, 0, 64, 104
2, 373757, Note_on_c, 0, 46, 69
2, 373761, Control_c, 0, 64, 24
2, 373773, Control_c, 0, 64, 0
2, 373817, Note_on_c, 0, 95, 0
2, 373817, Note_on_c, 0, 96, 90
2, 373837, Control_c, 0, 64, 56
2, 373849, Control_c, 0, 64, 127
2, 373889, Note_on_c, 0, 96, 0
2, 373917, Note_on_c, 0, 46, 0
2, 373917, Note_on_c, 0, 99, 88
2, 374009, Note_on_c, 0, 97, 83
2, 374025, Note_on_c, 0, 61, 83
2, 374101, Note_on_c, 0, 95, 83
2, 374105, Note_on_c, 0, 97, 0
2, 374105, Note_on_c, 0, 99, 0
2, 374169, Note_on_c, 0, 95, 0
2, 374197, Note_on_c, 0, 94, 77
2, 374281, Note_on_c, 0, 94, 0
2, 374293, Note_on_c, 0, 92, 83
2, 374301, Note_on_c, 0, 54, 56
2, 374305, Note_on_c, 0, 49, 50
2, 374373, Note_on_c, 0, 61, 0
2, 374381, Note_on_c, 0, 92, 0
2, 374385, Note_on_c, 0, 90, 73
2, 374389, Note_on_c, 0, 49, 0
2, 374473, Note_on_c, 0, 90, 0
2, 374473, Note_on_c, 0, 54, 0
2, 374481, Note_on_c, 0, 89, 81
2, 374541, Note_on_c, 0, 89, 0
2, 374577, Control_c, 0, 64, 72
2, 374585, Note_on_c, 0, 87, 81
2, 374585, Control_c, 0, 64, 0
2, 374609, Note_on_c, 0, 47, 61
2, 374641, Control_c, 0, 64, 72
2, 374653, Control_c, 0, 64, 127
2, 374661, Note_on_c, 0, 87, 0
2, 374673, Note_on_c, 0, 86, 77
2, 374693, Note_on_c, 0, 47, 0
2, 374749, Note_on_c, 0, 86, 0
2, 374769, Note_on_c, 0, 83, 75
2, 374829, Note_on_c, 0, 83, 0
2, 374865, Note_on_c, 0, 80, 77
2, 374873, Note_on_c, 0, 62, 68
2, 374929, Note_on_c, 0, 80, 0
2, 374961, Note_on_c, 0, 79, 82
2, 375025, Note_on_c, 0, 79, 0
2, 375049, Note_on_c, 0, 82, 76
2, 375133, Note_on_c, 0, 82, 0
2, 375157, Note_on_c, 0, 80, 81
2, 375165, Note_on_c, 0, 53, 57
2, 375181, Note_on_c, 0, 50, 46
2, 375193, Note_on_c, 0, 62, 0
2, 375241, Note_on_c, 0, 80, 0
2, 375249, Note_on_c, 0, 77, 76
2, 375333, Note_on_c, 0, 77, 0
2, 375341, Note_on_c, 0, 74, 79
2, 375381, Note_on_c, 0, 74, 0
2, 375437, Note_on_c, 0, 71, 85
2, 375449, Note_on_c, 0, 59, 60
2, 375497, Note_on_c, 0, 71, 0
2, 375525, Note_on_c, 0, 68, 76
2, 375605, Note_on_c, 0, 68, 0
2, 375625, Note_on_c, 0, 67, 79
2, 375689, Note_on_c, 0, 67, 0
2, 375717, Note_on_c, 0, 70, 79
2, 375725, Note_on_c, 0, 53, 0
2, 375737, Note_on_c, 0, 59, 0
2, 375757, Control_c, 0, 64, 56
2, 375761, Note_on_c, 0, 50, 0
2, 375769, Control_c, 0, 64, 0
2, 375813, Note_on_c, 0, 68, 74
2, 375817, Note_on_c, 0, 70, 0
2, 375825, Control_c, 0, 64, 56
2, 375833, Control_c, 0, 64, 127
2, 375909, Note_on_c, 0, 65, 71
2, 375989, Note_on_c, 0, 65, 0
2, 375989, Note_on_c, 0, 68, 0
2, 375997, Note_on_c, 0, 62, 78
2, 376041, Note_on_c, 0, 62, 0
2, 376097, Note_on_c, 0, 59, 80
2, 376149, Note_on_c, 0, 59, 0
2, 376185, Note_on_c, 0, 53, 83
2, 376289, Note_on_c, 0, 53, 0
2, 376289, Control_c, 0, 64, 104
2, 376301, Control_c, 0, 64, 40
2, 376313, Control_c, 0, 64, 0
2, 376317, Note_on_c, 0, 48, 95
2, 376333, Note_on_c, 0, 36, 70
2, 376377, Control_c, 0, 64, 40
2, 376389, Control_c, 0, 64, 104
2, 376397, Control_c, 0, 64, 127
2, 376401, Note_on_c, 0, 48, 0
2, 376489, Note_on_c, 0, 36, 0
2, 376621, Note_on_c, 0, 46, 62
2, 376625, Note_on_c, 0, 50, 84
2, 376637, Control_c, 0, 64, 88
2, 376649, Control_c, 0, 64, 72
2, 376657, Control_c, 0, 64, 40
2, 376669, Control_c, 0, 64, 24
2, 376673, Note_on_c, 0, 46, 0
2, 376685, Note_on_c, 0, 50, 0
2, 376689, Control_c, 0, 64, 0
2, 376721, Note_on_c, 0, 62, 69
2, 376725, Note_on_c, 0, 48, 49
2, 376749, Note_on_c, 0, 48, 0
2, 376765, Note_on_c, 0, 36, 53
2, 376777, Note_on_c, 0, 62, 0
2, 376809, Note_on_c, 0, 53, 71
2, 376829, Note_on_c, 0, 46, 45
2, 376841, Note_on_c, 0, 36, 0
2, 376853, Note_on_c, 0, 46, 0
2, 376865, Note_on_c, 0, 45, 42
2, 376869, Note_on_c, 0, 53, 0
2, 376909, Note_on_c, 0, 52, 81
2, 376917, Note_on_c, 0, 45, 0
2, 376929, Note_on_c, 0, 48, 61
2, 376957, Note_on_c, 0, 48, 0
2, 376965, Note_on_c, 0, 52, 0
2, 377017, Note_on_c, 0, 64, 66
2, 377025, Note_on_c, 0, 36, 52
2, 377073, Note_on_c, 0, 64, 0
2, 377093, Note_on_c, 0, 36, 0
2, 377105, Note_on_c, 0, 55, 74
2, 377113, Note_on_c, 0, 46, 62
2, 377169, Note_on_c, 0, 55, 0
2, 377185, Note_on_c, 0, 46, 0
2, 377189, Control_c, 0, 64, 24
2, 377201, Note_on_c, 0, 53, 82
2, 377213, Note_on_c, 0, 50, 45
2, 377253, Note_on_c, 0, 50, 0
2, 377261, Note_on_c, 0, 53, 0
2, 377289, Note_on_c, 0, 36, 63
2, 377305, Note_on_c, 0, 65, 71
2, 377333, Control_c, 0, 64, 40
2, 377341, Note_on_c, 0, 36, 0
2, 377369, Note_on_c, 0, 65, 0
2, 377393, Note_on_c, 0, 57, 69
2, 377405, Note_on_c, 0, 48, 68
2, 377453, Note_on_c, 0, 57, 0
2, 377461, Note_on_c, 0, 48, 0
2, 377481, Note_on_c, 0, 52, 62
2, 377485, Note_on_c, 0, 55, 77
2, 377505, Note_on_c, 0, 52, 0
2, 377549, Note_on_c, 0, 55, 0
2, 377557, Note_on_c, 0, 36, 64
2, 377581, Note_on_c, 0, 67, 70
2, 377585, Note_on_c, 0, 36, 0
2, 377645, Note_on_c, 0, 67, 0
2, 377665, Note_on_c, 0, 58, 62
2, 377673, Note_on_c, 0, 50, 68
2, 377721, Note_on_c, 0, 50, 0
2, 377749, Note_on_c, 0, 58, 0
2, 377765, Note_on_c, 0, 57, 81
2, 377769, Note_on_c, 0, 53, 65
2, 377825, Note_on_c, 0, 57, 0
2, 377833, Note_on_c, 0, 53, 0
2, 377865, Note_on_c, 0, 69, 73
2, 377865, Note_on_c, 0, 48, 68
2, 377929, Note_on_c, 0, 69, 0
2, 377933, Note_on_c, 0, 48, 0
2, 377949, Note_on_c, 0, 60, 77
2, 377953, Note_on_c, 0, 52, 66
2, 378005, Control_c, 0, 64, 56
2, 378009, Note_on_c, 0, 60, 0
2, 378029, Note_on_c, 0, 52, 0
2, 378045, Note_on_c, 0, 58, 80
2, 378057, Note_on_c, 0, 55, 60
2, 378105, Note_on_c, 0, 55, 0
2, 378109, Note_on_c, 0, 58, 0
2, 378149, Note_on_c, 0, 70, 65
2, 378157, Note_on_c, 0, 48, 65
2, 378217, Note_on_c, 0, 48, 0
2, 378217, Note_on_c, 0, 70, 0
2, 378237, Note_on_c, 0, 53, 62
2, 378245, Note_on_c, 0, 62, 70
2, 378305, Note_on_c, 0, 53, 0
2, 378313, Note_on_c, 0, 62, 0
2, 378317, Control_c, 0, 64, 40
2, 378329, Control_c, 0, 64, 24
2, 378333, Note_on_c, 0, 60, 94
2, 378341, Control_c, 0, 64, 0
2, 378345, Note_on_c, 0, 57, 58
2, 378401, Note_on_c, 0, 57, 0
2, 378417, Note_on_c, 0, 60, 0
2, 378441, Note_on_c, 0, 72, 75
2, 378445, Note_on_c, 0, 48, 66
2, 378493, Note_on_c, 0, 48, 0
2, 378501, Note_on_c, 0, 72, 0
2, 378529, Note_on_c, 0, 64, 75
2, 378533, Note_on_c, 0, 55, 58
2, 378605, Note_on_c, 0, 55, 0
2, 378605, Note_on_c, 0, 64, 0
2, 378617, Note_on_c, 0, 62, 83
2, 378621, Note_on_c, 0, 58, 61
2, 378645, Control_c, 0, 64, 24
2, 378681, Note_on_c, 0, 58, 0
2, 378685, Note_on_c, 0, 62, 0
2, 378717, Note_on_c, 0, 74, 72
2, 378729, Note_on_c, 0, 48, 64
2, 378789, Note_on_c, 0, 74, 0
2, 378801, Note_on_c, 0, 65, 70
2, 378805, Note_on_c, 0, 48, 0
2, 378813, Note_on_c, 0, 57, 58
2, 378869, Note_on_c, 0, 65, 0
2, 378889, Note_on_c, 0, 57, 0
2, 378889, Note_on_c, 0, 64, 83
2, 378905, Note_on_c, 0, 60, 66
2, 378957, Note_on_c, 0, 60, 0
2, 378969, Note_on_c, 0, 64, 0
2, 378989, Note_on_c, 0, 76, 78
2, 379001, Note_on_c, 0, 48, 66
2, 379061, Note_on_c, 0, 48, 0
2, 379061, Note_on_c, 0, 76, 0
2, 379085, Note_on_c, 0, 67, 70
2, 379093, Note_on_c, 0, 58, 58
2, 379157, Note_on_c, 0, 67, 0
2, 379169, Note_on_c, 0, 58, 0
2, 379181, Note_on_c, 0, 65, 82
2, 379189, Note_on_c, 0, 62, 67
2, 379233, Note_on_c, 0, 62, 0
2, 379253, Note_on_c, 0, 65, 0
2, 379281, Note_on_c, 0, 48, 71
2, 379281, Note_on_c, 0, 77, 76
2, 379321, Note_on_c, 0, 48, 0
2, 379353, Note_on_c, 0, 77, 0
2, 379373, Note_on_c, 0, 69, 76
2, 379385, Note_on_c, 0, 60, 66
2, 379441, Note_on_c, 0, 69, 0
2, 379449, Note_on_c, 0, 60, 0
2, 379457, Control_c, 0, 64, 40
2, 379461, Note_on_c, 0, 67, 74
2, 379469, Note_on_c, 0, 64, 70
2, 379493, Note_on_c, 0, 64, 0
2, 379537, Note_on_c, 0, 67, 0
2, 379545, Note_on_c, 0, 48, 70
2, 379557, Note_on_c, 0, 79, 75
2, 379565, Note_on_c, 0, 48, 0
2, 379633, Note_on_c, 0, 79, 0
2, 379641, Note_on_c, 0, 70, 73
2, 379661, Note_on_c, 0, 62, 72
2, 379705, Note_on_c, 0, 62, 0
2, 379729, Note_on_c, 0, 70, 0
2, 379741, Note_on_c, 0, 69, 92
2, 379761, Note_on_c, 0, 65, 64
2, 379769, Control_c, 0, 64, 56
2, 379821, Note_on_c, 0, 65, 0
2, 379829, Note_on_c, 0, 69, 0
2, 379841, Note_on_c, 0, 81, 74
2, 379857, Note_on_c, 0, 60, 60
2, 379909, Note_on_c, 0, 81, 0
2, 379929, Note_on_c, 0, 60, 0
2, 379929, Note_on_c, 0, 72, 77
2, 379945, Note_on_c, 0, 64, 64
2, 379993, Note_on_c, 0, 72, 0
2, 380029, Note_on_c, 0, 64, 0
2, 380029, Note_on_c, 0, 70, 89
2, 380045, Note_on_c, 0, 67, 69
2, 380113, Note_on_c, 0, 67, 0
2, 380125, Note_on_c, 0, 70, 0
2, 380133, Note_on_c, 0, 82, 72
2, 380145, Note_on_c, 0, 60, 61
2, 380205, Note_on_c, 0, 60, 0
2, 380213, Note_on_c, 0, 82, 0
2, 380237, Note_on_c, 0, 74, 77
2, 380237, Note_on_c, 0, 65, 60
2, 380301, Note_on_c, 0, 65, 0
2, 380313, Note_on_c, 0, 74, 0
2, 380329, Note_on_c, 0, 72, 94
2, 380337, Note_on_c, 0, 69, 61
2, 380393, Note_on_c, 0, 69, 0
2, 380421, Note_on_c, 0, 72, 0
2, 380433, Note_on_c, 0, 84, 76
2, 380441, Note_on_c, 0, 60, 56
2, 380501, Note_on_c, 0, 84, 0
2, 380505, Note_on_c, 0, 60, 0
2, 380521, Note_on_c, 0, 76, 81
2, 380529, Note_on_c, 0, 67, 58
2, 380605, Note_on_c, 0, 67, 0
2, 380609, Note_on_c, 0, 76, 0
2, 380613, Note_on_c, 0, 74, 90
2, 380621, Note_on_c, 0, 70, 50
2, 380677, Note_on_c, 0, 70, 0
2, 380701, Note_on_c, 0, 74, 0
2, 380717, Note_on_c, 0, 86, 75
2, 380729, Note_on_c, 0, 60, 54
2, 380789, Note_on_c, 0, 60, 0
2, 380789, Note_on_c, 0, 86, 0
2, 380805, Note_on_c, 0, 77, 80
2, 380809, Note_on_c, 0, 69, 58
2, 380869, Note_on_c, 0, 77, 0
2, 380885, Note_on_c, 0, 69, 0
2, 380893, Note_on_c, 0, 76, 90
2, 380909, Note_on_c, 0, 72, 64
2, 380957, Note_on_c, 0, 72, 0
2, 380977, Note_on_c, 0, 76, 0
2, 381001, Note_on_c, 0, 88, 74
2, 381009, Note_on_c, 0, 60, 58
2, 381069, Note_on_c, 0, 60, 0
2, 381081, Note_on_c, 0, 88, 0
2, 381097, Note_on_c, 0, 79, 80
2, 381101, Note_on_c, 0, 70, 55
2, 381173, Note_on_c, 0, 79, 0
2, 381177, Note_on_c, 0, 70, 0
2, 381189, Note_on_c, 0, 77, 90
2, 381197, Note_on_c, 0, 74, 59
2, 381241, Note_on_c, 0, 74, 0
2, 381265, Note_on_c, 0, 77, 0
2, 381285, Note_on_c, 0, 60, 63
2, 381297, Note_on_c, 0, 89, 79
2, 381333, Note_on_c, 0, 60, 0
2, 381381, Note_on_c, 0, 89, 0
2, 381389, Note_on_c, 0, 81, 82
2, 381397, Note_on_c, 0, 72, 69
2, 381409, Control_c, 0, 64, 72
2, 381449, Note_on_c, 0, 72, 0
2, 381461, Note_on_c, 0, 81, 0
2, 381477, Note_on_c, 0, 76, 64
2, 381485, Note_on_c, 0, 79, 94
2, 381521, Note_on_c, 0, 76, 0
2, 381557, Note_on_c, 0, 60, 55
2, 381565, Note_on_c, 0, 79, 0
2, 381581, Note_on_c, 0, 60, 0
2, 381585, Note_on_c, 0, 91, 85
2, 381661, Note_on_c, 0, 91, 0
2, 381673, Note_on_c, 0, 74, 53
2, 381673, Note_on_c, 0, 82, 76
2, 381729, Note_on_c, 0, 74, 0
2, 381761, Note_on_c, 0, 82, 0
2, 381777, Note_on_c, 0, 81, 88
2, 381777, Note_on_c, 0, 77, 62
2, 381829, Note_on_c, 0, 77, 0
2, 381853, Note_on_c, 0, 81, 0
2, 381865, Note_on_c, 0, 93, 88
2, 381869, Note_on_c, 0, 72, 64
2, 381937, Note_on_c, 0, 93, 0
2, 381945, Note_on_c, 0, 72, 0
2, 381953, Note_on_c, 0, 84, 85
2, 381957, Note_on_c, 0, 76, 67
2, 382025, Note_on_c, 0, 84, 0
2, 382045, Note_on_c, 0, 76, 0
2, 382053, Note_on_c, 0, 82, 91
2, 382065, Note_on_c, 0, 79, 68
2, 382129, Note_on_c, 0, 79, 0
2, 382129, Note_on_c, 0, 82, 0
2, 382153, Note_on_c, 0, 94, 79
2, 382157, Note_on_c, 0, 72, 70
2, 382229, Note_on_c, 0, 94, 0
2, 382233, Note_on_c, 0, 72, 0
2, 382245, Note_on_c, 0, 77, 71
2, 382249, Note_on_c, 0, 86, 84
2, 382321, Note_on_c, 0, 77, 0
2, 382325, Note_on_c, 0, 86, 0
2, 382345, Note_on_c, 0, 84, 97
2, 382349, Note_on_c, 0, 81, 74
2, 382385, Control_c, 0, 64, 88
2, 382421, Note_on_c, 0, 81, 0
2, 382429, Note_on_c, 0, 84, 0
2, 382445, Note_on_c, 0, 96, 87
2, 382453, Note_on_c, 0, 72, 68
2, 382505, Control_c, 0, 64, 72
2, 382521, Note_on_c, 0, 96, 0
2, 382529, Note_on_c, 0, 72, 0
2, 382537, Note_on_c, 0, 88, 85
2, 382537, Control_c, 0, 64, 56
2, 382545, Note_on_c, 0, 79, 71
2, 382613, Control_c, 0, 64, 72
2, 382621, Note_on_c, 0, 88, 0
2, 382625, Note_on_c, 0, 79, 0
2, 382633, Note_on_c, 0, 86, 94
2, 382637, Note_on_c, 0, 82, 71
2, 382645, Control_c, 0, 64, 88
2, 382697, Note_on_c, 0, 82, 0
2, 382721, Note_on_c, 0, 86, 0
2, 382745, Note_on_c, 0, 98, 89
2, 382745, Note_on_c, 0, 72, 70
2, 382785, Control_c, 0, 64, 56
2, 382809, Control_c, 0, 64, 40
2, 382821, Note_on_c, 0, 72, 0
2, 382829, Note_on_c, 0, 98, 0
2, 382837, Note_on_c, 0, 89, 88
2, 382837, Note_on_c, 0, 82, 68
2, 382841, Control_c, 0, 64, 72
2, 382853, Control_c, 0, 64, 104
2, 382861, Control_c, 0, 64, 127
2, 382913, Note_on_c, 0, 89, 0
2, 382917, Note_on_c, 0, 82, 0
2, 382917, Control_c, 0, 64, 104
2, 382933, Note_on_c, 0, 88, 94
2, 382937, Note_on_c, 0, 84, 73
2, 382949, Control_c, 0, 64, 127
2, 382981, Note_on_c, 0, 84, 0
2, 383021, Note_on_c, 0, 88, 0
2, 383037, Note_on_c, 0, 100, 94
2, 383037, Note_on_c, 0, 72, 68
2, 383129, Note_on_c, 0, 100, 0
2, 383129, Note_on_c, 0, 91, 99
2, 383129, Note_on_c, 0, 94, 70
2, 383177, Note_on_c, 0, 94, 0
2, 383193, Note_on_c, 0, 91, 0
2, 383209, Note_on_c, 0, 72, 0
2, 383249, Note_on_c, 0, 101, 103
2, 383253, Note_on_c, 0, 81, 80
2, 383253, Note_on_c, 0, 89, 99
2, 383253, Control_c, 0, 64, 72
2, 383257, Note_on_c, 0, 77, 72
2, 383265, Control_c, 0, 64, 40
2, 383277, Control_c, 0, 64, 0
2, 383329, Control_c, 0, 64, 56
2, 383341, Control_c, 0, 64, 127
2, 383349, Note_on_c, 0, 81, 0
2, 383353, Note_on_c, 0, 77, 0
2, 383373, Note_on_c, 0, 101, 0
2, 383405, Note_on_c, 0, 89, 0
2, 383545, Note_on_c, 0, 96, 96
2, 383549, Note_on_c, 0, 93, 96
2, 383625, Note_on_c, 0, 93, 0
2, 383637, Note_on_c, 0, 92, 79
2, 383733, Note_on_c, 0, 96, 0
2, 383741, Note_on_c, 0, 92, 0
2, 383741, Note_on_c, 0, 91, 75
2, 383789, Note_on_c, 0, 91, 0
2, 383837, Note_on_c, 0, 93, 99
2, 383841, Note_on_c, 0, 89, 97
2, 383925, Note_on_c, 0, 89, 0
2, 383941, Note_on_c, 0, 88, 64
2, 384025, Note_on_c, 0, 93, 0
2, 384029, Note_on_c, 0, 86, 73
2, 384037, Note_on_c, 0, 88, 0
2, 384085, Note_on_c, 0, 86, 0
2, 384121, Control_c, 0, 64, 72
2, 384133, Note_on_c, 0, 84, 92
2, 384133, Note_on_c, 0, 89, 92
2, 384133, Control_c, 0, 64, 24
2, 384141, Control_c, 0, 64, 0
2, 384149, Note_on_c, 0, 60, 74
2, 384161, Note_on_c, 0, 57, 51
2, 384161, Note_on_c, 0, 53, 54
2, 384185, Note_on_c, 0, 84, 0
2, 384189, Note_on_c, 0, 53, 0
2, 384197, Control_c, 0, 64, 24
2, 384209, Control_c, 0, 64, 72
2, 384217, Note_on_c, 0, 60, 0
2, 384217, Control_c, 0, 64, 127
2, 384221, Note_on_c, 0, 89, 0
2, 384245, Note_on_c, 0, 62, 65
2, 384333, Note_on_c, 0, 57, 0
2, 384333, Note_on_c, 0, 60, 67
2, 384349, Note_on_c, 0, 62, 0
2, 384365, Note_on_c, 0, 60, 0
2, 384393, Control_c, 0, 64, 88
2, 384401, Control_c, 0, 64, 40
2, 384413, Control_c, 0, 64, 0
2, 384417, Note_on_c, 0, 96, 88
2, 384421, Note_on_c, 0, 93, 90
2, 384433, Note_on_c, 0, 69, 67
2, 384445, Control_c, 0, 64, 56
2, 384457, Control_c, 0, 64, 104
2, 384469, Control_c, 0, 64, 127
2, 384501, Note_on_c, 0, 93, 0
2, 384517, Note_on_c, 0, 92, 74
2, 384609, Note_on_c, 0, 96, 0
2, 384613, Note_on_c, 0, 92, 0
2, 384613, Note_on_c, 0, 91, 75
2, 384653, Note_on_c, 0, 91, 0
2, 384693, Note_on_c, 0, 65, 63
2, 384701, Note_on_c, 0, 93, 88
2, 384705, Note_on_c, 0, 89, 90
2, 384713, Note_on_c, 0, 69, 0
2, 384729, Note_on_c, 0, 65, 0
2, 384789, Note_on_c, 0, 89, 0
2, 384801, Note_on_c, 0, 88, 67
2, 384881, Note_on_c, 0, 88, 0
2, 384885, Note_on_c, 0, 86, 70
2, 384889, Note_on_c, 0, 93, 0
2, 384933, Note_on_c, 0, 86, 0
2, 384965, Control_c, 0, 64, 88
2, 384977, Control_c, 0, 64, 56
2, 384989, Note_on_c, 0, 89, 96
2, 384989, Control_c, 0, 64, 0
2, 384993, Note_on_c, 0, 84, 90
2, 385005, Note_on_c, 0, 60, 62
2, 385005, Note_on_c, 0, 57, 55
2, 385025, Note_on_c, 0, 53, 39
2, 385041, Note_on_c, 0, 84, 0
2, 385045, Control_c, 0, 64, 24
2, 385053, Control_c, 0, 64, 88
2, 385065, Control_c, 0, 64, 127
2, 385069, Note_on_c, 0, 60, 0
2, 385089, Note_on_c, 0, 89, 0
2, 385097, Note_on_c, 0, 62, 59
2, 385173, Note_on_c, 0, 57, 0
2, 385173, Note_on_c, 0, 60, 59
2, 385177, Note_on_c, 0, 53, 0
2, 385189, Note_on_c, 0, 62, 0
2, 385201, Note_on_c, 0, 60, 0
2, 385237, Control_c, 0, 64, 72
2, 385249, Control_c, 0, 64, 24
2, 385257, Control_c, 0, 64, 0
2, 385269, Note_on_c, 0, 96, 88
2, 385269, Note_on_c, 0, 93, 90
2, 385285, Note_on_c, 0, 69, 69
2, 385293, Control_c, 0, 64, 56
2, 385305, Control_c, 0, 64, 104
2, 385313, Control_c, 0, 64, 127
2, 385345, Note_on_c, 0, 93, 0
2, 385365, Note_on_c, 0, 92, 67
2, 385445, Note_on_c, 0, 91, 70
2, 385449, Note_on_c, 0, 92, 0
2, 385449, Note_on_c, 0, 96, 0
2, 385497, Note_on_c, 0, 91, 0
2, 385549, Note_on_c, 0, 65, 80
2, 385549, Note_on_c, 0, 93, 74
2, 385553, Note_on_c, 0, 89, 75
2, 385581, Note_on_c, 0, 69, 0
2, 385601, Note_on_c, 0, 65, 0
2, 385629, Note_on_c, 0, 89, 0
2, 385649, Note_on_c, 0, 88, 68
2, 385721, Note_on_c, 0, 93, 0
2, 385729, Note_on_c, 0, 88, 0
2, 385737, Note_on_c, 0, 86, 64
2, 385781, Note_on_c, 0, 86, 0
2, 385837, Note_on_c, 0, 89, 76
2, 385841, Note_on_c, 0, 60, 85
2, 385845, Note_on_c, 0, 84, 77
2, 385845, Control_c, 0, 64, 72
2, 385849, Note_on_c, 0, 57, 68
2, 385857, Control_c, 0, 64, 24
2, 385869, Control_c, 0, 64, 0
2, 385909, Control_c, 0, 64, 40
2, 385917, Note_on_c, 0, 84, 0
2, 385921, Control_c, 0, 64, 88
2, 385929, Note_on_c, 0, 83, 69
2, 385933, Note_on_c, 0, 89, 0
2, 385933, Control_c, 0, 64, 127
2, 385997, Note_on_c, 0, 83, 0
2, 386017, Note_on_c, 0, 82, 65
2, 386089, Note_on_c, 0, 82, 0
2, 386117, Note_on_c, 0, 81, 62
2, 386125, Note_on_c, 0, 84, 76
2, 386173, Note_on_c, 0, 81, 0
2, 386213, Note_on_c, 0, 80, 67
2, 386217, Note_on_c, 0, 84, 0
2, 386297, Note_on_c, 0, 80, 0
2, 386309, Note_on_c, 0, 79, 58
2, 386349, Note_on_c, 0, 79, 0
2, 386365, Control_c, 0, 64, 104
2, 386377, Control_c, 0, 64, 56
2, 386381, Note_on_c, 0, 57, 0
2, 386389, Control_c, 0, 64, 0
2, 386401, Note_on_c, 0, 81, 76
2, 386405, Note_on_c, 0, 77, 75
2, 386409, Note_on_c, 0, 57, 25
2, 386429, Note_on_c, 0, 53, 53
2, 386429, Control_c, 0, 64, 56
2, 386441, Control_c, 0, 64, 88
2, 386453, Note_on_c, 0, 60, 0
2, 386453, Control_c, 0, 64, 127
2, 386461, Note_on_c, 0, 57, 0
2, 386465, Note_on_c, 0, 81, 0
2, 386469, Note_on_c, 0, 77, 0
2, 386481, Note_on_c, 0, 53, 0
2, 386497, Note_on_c, 0, 79, 74
2, 386501, Note_on_c, 0, 76, 54
2, 386545, Note_on_c, 0, 76, 0
2, 386581, Note_on_c, 0, 79, 0
2, 386581, Note_on_c, 0, 77, 84
2, 386581, Note_on_c, 0, 74, 70
2, 386629, Note_on_c, 0, 74, 0
2, 386657, Note_on_c, 0, 77, 0
2, 386657, Control_c, 0, 64, 104
2, 386669, Control_c, 0, 64, 56
2, 386681, Control_c, 0, 64, 0
2, 386697, Note_on_c, 0, 76, 82
2, 386705, Note_on_c, 0, 72, 64
2, 386709, Note_on_c, 0, 48, 67
2, 386733, Control_c, 0, 64, 40
2, 386745, Control_c, 0, 64, 88
2, 386749, Note_on_c, 0, 72, 0
2, 386753, Note_on_c, 0, 48, 0
2, 386757, Control_c, 0, 64, 127
2, 386773, Note_on_c, 0, 76, 0
2, 386965, Note_on_c, 0, 79, 80
2, 386965, Note_on_c, 0, 55, 63
2, 386973, Note_on_c, 0, 76, 62
2, 387041, Note_on_c, 0, 76, 0
2, 387041, Note_on_c, 0, 79, 0
2, 387053, Note_on_c, 0, 80, 75
2, 387089, Note_on_c, 0, 55, 0
2, 387153, Note_on_c, 0, 81, 79
2, 387181, Note_on_c, 0, 80, 0
2, 387213, Note_on_c, 0, 81, 0
2, 387257, Note_on_c, 0, 82, 83
2, 387257, Note_on_c, 0, 64, 56
2, 387257, Note_on_c, 0, 58, 52
2, 387261, Note_on_c, 0, 79, 73
2, 387305, Note_on_c, 0, 58, 0
2, 387305, Note_on_c, 0, 64, 0
2, 387317, Note_on_c, 0, 82, 0
2, 387353, Note_on_c, 0, 83, 75
2, 387421, Note_on_c, 0, 79, 0
2, 387449, Note_on_c, 0, 84, 77
2, 387453, Note_on_c, 0, 83, 0
2, 387497, Note_on_c, 0, 84, 0
2, 387517, Control_c, 0, 64, 104
2, 387525, Control_c, 0, 64, 72
2, 387537, Control_c, 0, 64, 0
2, 387557, Note_on_c, 0, 85, 89
2, 387561, Note_on_c, 0, 82, 73
2, 387581, Note_on_c, 0, 46, 63
2, 387601, Control_c, 0, 64, 40
2, 387613, Control_c, 0, 64, 104
2, 387625, Control_c, 0, 64, 127
2, 387633, Note_on_c, 0, 46, 0
2, 387633, Note_on_c, 0, 85, 0
2, 387637, Note_on_c, 0, 82, 0
2, 387829, Control_c, 0, 64, 88
2, 387841, Control_c, 0, 64, 40
2, 387845, Note_on_c, 0, 79, 84
2, 387849, Control_c, 0, 64, 0
2, 387857, Note_on_c, 0, 77, 64
2, 387857, Note_on_c, 0, 70, 49
2, 387861, Note_on_c, 0, 55, 56
2, 387873, Note_on_c, 0, 70, 0
2, 387873, Note_on_c, 0, 77, 0
2, 387897, Control_c, 0, 64, 40
2, 387905, Control_c, 0, 64, 88
2, 387909, Note_on_c, 0, 79, 0
2, 387917, Control_c, 0, 64, 127
2, 387941, Note_on_c, 0, 80, 80
2, 388033, Note_on_c, 0, 80, 0
2, 388037, Note_on_c, 0, 81, 79
2, 388089, Note_on_c, 0, 81, 0
2, 388137, Note_on_c, 0, 82, 81
2, 388141, Note_on_c, 0, 65, 53
2, 388145, Note_on_c, 0, 77, 67
2, 388149, Note_on_c, 0, 79, 55
2, 388149, Note_on_c, 0, 61, 40
2, 388173, Note_on_c, 0, 79, 0
2, 388173, Note_on_c, 0, 77, 0
2, 388185, Note_on_c, 0, 65, 0
2, 388193, Note_on_c, 0, 82, 0
2, 388213, Note_on_c, 0, 61, 0
2, 388233, Note_on_c, 0, 83, 85
2, 388237, Note_on_c, 0, 55, 0
2, 388313, Note_on_c, 0, 83, 0
2, 388317, Note_on_c, 0, 84, 81
2, 388369, Note_on_c, 0, 84, 0
2, 388417, Control_c, 0, 64, 88
2, 388429, Note_on_c, 0, 85, 90
2, 388429, Control_c, 0, 64, 24
2, 388433, Note_on_c, 0, 82, 69
2, 388437, Note_on_c, 0, 76, 77
2, 388437, Control_c, 0, 64, 0
2, 388449, Note_on_c, 0, 48, 64
2, 388485, Note_on_c, 0, 76, 0
2, 388501, Control_c, 0, 64, 72
2, 388509, Note_on_c, 0, 82, 0
2, 388513, Control_c, 0, 64, 127
2, 388525, Note_on_c, 0, 48, 0
2, 388533, Note_on_c, 0, 85, 0
2, 388689, Control_c, 0, 64, 104
2, 388697, Control_c, 0, 64, 40
2, 388709, Control_c, 0, 64, 0
2, 388717, Note_on_c, 0, 91, 84
2, 388729, Note_on_c, 0, 82, 67
2, 388737, Note_on_c, 0, 76, 65
2, 388741, Control_c, 0, 64, 24
2, 388753, Control_c, 0, 64, 72
2, 388761, Control_c, 0, 64, 127
2, 388773, Note_on_c, 0, 82, 0
2, 388789, Note_on_c, 0, 76, 0
2, 388801, Note_on_c, 0, 91, 0
2, 388829, Note_on_c, 0, 93, 86
2, 388877, Note_on_c, 0, 60, 60
2, 388881, Note_on_c, 0, 93, 0
2, 388917, Note_on_c, 0, 91, 84
2, 388933, Note_on_c, 0, 60, 0
2, 388985, Note_on_c, 0, 91, 0
2, 389017, Note_on_c, 0, 90, 82
2, 389021, Note_on_c, 0, 75, 80
2, 389025, Note_on_c, 0, 81, 65
2, 389081, Note_on_c, 0, 81, 0
2, 389081, Note_on_c, 0, 75, 0
2, 389089, Note_on_c, 0, 90, 0
2, 389113, Note_on_c, 0, 91, 77
2, 389153, Note_on_c, 0, 60, 62
2, 389173, Note_on_c, 0, 91, 0
2, 389209, Note_on_c, 0, 90, 83
2, 389217, Note_on_c, 0, 60, 0
2, 389261, Control_c, 0, 64, 88
2, 389273, Note_on_c, 0, 90, 0
2, 389273, Control_c, 0, 64, 72
2, 389301, Note_on_c, 0, 89, 88
2, 389305, Note_on_c, 0, 74, 68
2, 389313, Note_on_c, 0, 80, 58
2, 389329, Control_c, 0, 64, 88
2, 389341, Note_on_c, 0, 80, 0
2, 389349, Control_c, 0, 64, 104
2, 389353, Note_on_c, 0, 74, 0
2, 389361, Control_c, 0, 64, 127
2, 389369, Note_on_c, 0, 89, 0
2, 389405, Note_on_c, 0, 91, 84
2, 389437, Note_on_c, 0, 60, 58
2, 389457, Note_on_c, 0, 91, 0
2, 389485, Note_on_c, 0, 89, 78
2, 389533, Control_c, 0, 64, 72
2, 389545, Control_c, 0, 64, 24
2, 389549, Note_on_c, 0, 60, 0
2, 389557, Note_on_c, 0, 89, 0
2, 389557, Control_c, 0, 64, 0
2, 389573, Note_on_c, 0, 71, 56
2, 389577, Note_on_c, 0, 88, 85
2, 389577, Note_on_c, 0, 79, 73
2, 389577, Note_on_c, 0, 68, 56
2, 389597, Control_c, 0, 64, 40
2, 389609, Control_c, 0, 64, 72
2, 389617, Note_on_c, 0, 79, 0
2, 389621, Control_c, 0, 64, 104
2, 389629, Control_c, 0, 64, 127
2, 389645, Note_on_c, 0, 71, 0
2, 389645, Note_on_c, 0, 88, 0
2, 389665, Note_on_c, 0, 68, 0
2, 389673, Note_on_c, 0, 89, 79
2, 389713, Note_on_c, 0, 60, 59
2, 389749, Note_on_c, 0, 89, 0
2, 389765, Note_on_c, 0, 86, 82
2, 389785, Control_c, 0, 64, 104
2, 389793, Control_c, 0, 64, 72
2, 389805, Control_c, 0, 64, 24
2, 389813, Note_on_c, 0, 60, 0
2, 389817, Control_c, 0, 64, 0
2, 389857, Note_on_c, 0, 86, 0
2, 389857, Control_c, 0, 64, 56
2, 389861, Note_on_c, 0, 84, 85
2, 389869, Note_on_c, 0, 70, 61
2, 389869, Control_c, 0, 64, 88
2, 389873, Note_on_c, 0, 72, 64
2, 389881, Note_on_c, 0, 64, 56
2, 389881, Control_c, 0, 64, 127
2, 389917, Note_on_c, 0, 84, 0
2, 389957, Note_on_c, 0, 82, 69
2, 389965, Note_on_c, 0, 70, 0
2, 390021, Note_on_c, 0, 82, 0
2, 390041, Note_on_c, 0, 79, 81
2, 390093, Note_on_c, 0, 72, 0
2, 390109, Note_on_c, 0, 64, 0
2, 390117, Control_c, 0, 64, 88
2, 390129, Control_c, 0, 64, 40
2, 390133, Note_on_c, 0, 79, 0
2, 390141, Control_c, 0, 64, 0
2, 390145, Note_on_c, 0, 77, 87
2, 390169, Note_on_c, 0, 69, 66
2, 390181, Note_on_c, 0, 65, 58
2, 390229, Note_on_c, 0, 77, 0
2, 390229, Control_c, 0, 64, 72
2, 390237, Control_c, 0, 64, 127
2, 390281, Note_on_c, 0, 69, 0
2, 390285, Note_on_c, 0, 65, 0
2, 390433, Control_c, 0, 64, 72
2, 390445, Control_c, 0, 64, 0
2, 390453, Note_on_c, 0, 96, 87
2, 390453, Note_on_c, 0, 93, 89
2, 390509, Control_c, 0, 64, 40
2, 390521, Control_c, 0, 64, 88
2, 390529, Note_on_c, 0, 93, 0
2, 390533, Control_c, 0, 64, 127
2, 390545, Note_on_c, 0, 92, 77
2, 390637, Note_on_c, 0, 96, 0
2, 390645, Note_on_c, 0, 92, 0
2, 390649, Note_on_c, 0, 91, 75
2, 390701, Note_on_c, 0, 91, 0
2, 390745, Note_on_c, 0, 93, 88
2, 390745, Note_on_c, 0, 89, 86
2, 390829, Note_on_c, 0, 89, 0
2, 390845, Control_c, 0, 64, 104
2, 390849, Note_on_c, 0, 88, 66
2, 390889, Control_c, 0, 64, 88
2, 390937, Note_on_c, 0, 88, 0
2, 390937, Note_on_c, 0, 93, 0
2, 390937, Note_on_c, 0, 86, 68
2, 390989, Control_c, 0, 64, 72
2, 390993, Note_on_c, 0, 86, 0
2, 390997, Control_c, 0, 64, 24
2, 391009, Control_c, 0, 64, 0
2, 391037, Note_on_c, 0, 84, 88
2, 391037, Note_on_c, 0, 89, 83
2, 391049, Note_on_c, 0, 60, 62
2, 391053, Note_on_c, 0, 57, 54
2, 391057, Note_on_c, 0, 53, 53
2, 391085, Control_c, 0, 64, 56
2, 391089, Note_on_c, 0, 84, 0
2, 391097, Control_c, 0, 64, 104
2, 391105, Control_c, 0, 64, 127
2, 391109, Note_on_c, 0, 60, 0
2, 391125, Note_on_c, 0, 89, 0
2, 391133, Note_on_c, 0, 62, 60
2, 391197, Note_on_c, 0, 57, 0
2, 391217, Note_on_c, 0, 60, 67
2, 391221, Note_on_c, 0, 53, 0
2, 391233, Note_on_c, 0, 62, 0
2, 391257, Note_on_c, 0, 60, 0
2, 391289, Control_c, 0, 64, 72
2, 391301, Control_c, 0, 64, 24
2, 391313, Control_c, 0, 64, 0
2, 391325, Note_on_c, 0, 69, 72
2, 391329, Note_on_c, 0, 96, 80
2, 391333, Note_on_c, 0, 93, 81
2, 391345, Note_on_c, 0, 92, 27
2, 391365, Note_on_c, 0, 92, 0
2, 391365, Control_c, 0, 64, 40
2, 391377, Control_c, 0, 64, 88
2, 391389, Control_c, 0, 64, 127
2, 391393, Note_on_c, 0, 93, 0
2, 391429, Note_on_c, 0, 92, 73
2, 391493, Note_on_c, 0, 96, 0
2, 391521, Note_on_c, 0, 92, 0
2, 391521, Note_on_c, 0, 91, 73
2, 391565, Note_on_c, 0, 91, 0
2, 391617, Note_on_c, 0, 65, 66
2, 391621, Note_on_c, 0, 93, 85
2, 391625, Note_on_c, 0, 89, 83
2, 391637, Note_on_c, 0, 69, 0
2, 391657, Note_on_c, 0, 65, 0
2, 391709, Note_on_c, 0, 89, 0
2, 391725, Note_on_c, 0, 88, 64
2, 391785, Note_on_c, 0, 93, 0
2, 391797, Note_on_c, 0, 88, 0
2, 391809, Note_on_c, 0, 86, 65
2, 391857, Note_on_c, 0, 86, 0
2, 391877, Control_c, 0, 64, 88
2, 391889, Control_c, 0, 64, 24
2, 391897, Control_c, 0, 64, 0
2, 391901, Note_on_c, 0, 60, 80
2, 391905, Note_on_c, 0, 89, 69
2, 391909, Note_on_c, 0, 84, 70
2, 391909, Note_on_c, 0, 57, 59
2, 391917, Note_on_c, 0, 53, 55
2, 391937, Note_on_c, 0, 84, 0
2, 391973, Note_on_c, 0, 60, 0
2, 391973, Control_c, 0, 64, 40
2, 391977, Note_on_c, 0, 89, 0
2, 391985, Control_c, 0, 64, 56
2, 391997, Note_on_c, 0, 62, 78
2, 391997, Control_c, 0, 64, 88
2, 392041, Control_c, 0, 64, 104
2, 392077, Note_on_c, 0, 57, 0
2, 392081, Control_c, 0, 64, 127
2, 392089, Note_on_c, 0, 60, 76
2, 392093, Note_on_c, 0, 53, 0
2, 392101, Note_on_c, 0, 62, 0
2, 392129, Note_on_c, 0, 60, 0
2, 392149, Control_c, 0, 64, 56
2, 392157, Control_c, 0, 64, 0
2, 392189, Note_on_c, 0, 69, 80
2, 392193, Note_on_c, 0, 93, 81
2, 392193, Note_on_c, 0, 96, 77
2, 392213, Control_c, 0, 64, 24
2, 392225, Control_c, 0, 64, 72
2, 392233, Control_c, 0, 64, 127
2, 392277, Note_on_c, 0, 93, 0
2, 392289, Note_on_c, 0, 92, 73
2, 392381, Note_on_c, 0, 92, 0
2, 392381, Note_on_c, 0, 91, 72
2, 392385, Note_on_c, 0, 96, 0
2, 392429, Note_on_c, 0, 91, 0
2, 392481, Note_on_c, 0, 93, 86
2, 392481, Note_on_c, 0, 65, 83
2, 392485, Note_on_c, 0, 89, 82
2, 392505, Note_on_c, 0, 69, 0
2, 392533, Note_on_c, 0, 65, 0
2, 392561, Note_on_c, 0, 89, 0
2, 392581, Note_on_c, 0, 88, 65
2, 392641, Note_on_c, 0, 93, 0
2, 392657, Note_on_c, 0, 88, 0
2, 392661, Note_on_c, 0, 86, 68
2, 392717, Note_on_c, 0, 86, 0
2, 392769, Note_on_c, 0, 89, 84
2, 392777, Note_on_c, 0, 60, 74
2, 392781, Note_on_c, 0, 84, 81
2, 392785, Note_on_c, 0, 57, 65
2, 392789, Control_c, 0, 64, 88
2, 392797, Control_c, 0, 64, 40
2, 392809, Control_c, 0, 64, 0
2, 392857, Note_on_c, 0, 84, 0
2, 392865, Note_on_c, 0, 83, 71
2, 392873, Control_c, 0, 64, 24
2, 392877, Note_on_c, 0, 89, 0
2, 392885, Control_c, 0, 64, 72
2, 392897, Control_c, 0, 64, 104
2, 392905, Control_c, 0, 64, 127
2, 392941, Note_on_c, 0, 83, 0
2, 392961, Note_on_c, 0, 82, 69
2, 393033, Note_on_c, 0, 82, 0
2, 393057, Note_on_c, 0, 81, 66
2, 393065, Note_on_c, 0, 84, 76
2, 393125, Note_on_c, 0, 81, 0
2, 393149, Note_on_c, 0, 84, 0
2, 393153, Note_on_c, 0, 80, 70
2, 393237, Note_on_c, 0, 80, 0
2, 393237, Note_on_c, 0, 79, 77
2, 393289, Note_on_c, 0, 79, 0
2, 393321, Control_c, 0, 64, 72
2, 393329, Control_c, 0, 64, 24
2, 393333, Note_on_c, 0, 81, 76
2, 393341, Note_on_c, 0, 77, 79
2, 393341, Control_c, 0, 64, 0
2, 393361, Note_on_c, 0, 53, 47
2, 393361, Note_on_c, 0, 57, 55
2, 393373, Control_c, 0, 64, 24
2, 393377, Note_on_c, 0, 57, 0
2, 393385, Control_c, 0, 64, 56
2, 393389, Note_on_c, 0, 60, 0
2, 393397, Note_on_c, 0, 77, 0
2, 393397, Note_on_c, 0, 81, 0
2, 393397, Control_c, 0, 64, 88
2, 393405, Control_c, 0, 64, 127
2, 393409, Note_on_c, 0, 57, 0
2, 393421, Note_on_c, 0, 53, 0
2, 393429, Note_on_c, 0, 79, 76
2, 393449, Note_on_c, 0, 76, 56
2, 393473, Note_on_c, 0, 76, 0
2, 393505, Note_on_c, 0, 79, 0
2, 393517, Note_on_c, 0, 77, 85
2, 393529, Note_on_c, 0, 74, 25
2, 393545, Note_on_c, 0, 74, 0
2, 393585, Note_on_c, 0, 77, 0
2, 393601, Control_c, 0, 64, 104
2, 393613, Control_c, 0, 64, 56
2, 393621, Control_c, 0, 64, 0
2, 393625, Note_on_c, 0, 76, 84
2, 393641, Note_on_c, 0, 72, 55
2, 393645, Note_on_c, 0, 48, 61
2, 393677, Note_on_c, 0, 72, 0
2, 393697, Control_c, 0, 64, 56
2, 393709, Control_c, 0, 64, 104
2, 393721, Note_on_c, 0, 76, 0
2, 393721, Control_c, 0, 64, 127
2, 393745, Note_on_c, 0, 48, 0
2, 393905, Control_c, 0, 64, 56
2, 393913, Note_on_c, 0, 79, 82
2, 393917, Note_on_c, 0, 76, 63
2, 393917, Control_c, 0, 64, 0
2, 393945, Note_on_c, 0, 55, 56
2, 393957, Control_c, 0, 64, 24
2, 393969, Control_c, 0, 64, 72
2, 393981, Control_c, 0, 64, 104
2, 393989, Control_c, 0, 64, 127
2, 394001, Note_on_c, 0, 80, 74
2, 394037, Note_on_c, 0, 76, 0
2, 394061, Note_on_c, 0, 79, 0
2, 394089, Note_on_c, 0, 81, 81
2, 394113, Note_on_c, 0, 80, 0
2, 394145, Note_on_c, 0, 81, 0
2, 394185, Note_on_c, 0, 82, 85
2, 394189, Note_on_c, 0, 64, 52
2, 394193, Note_on_c, 0, 79, 70
2, 394197, Note_on_c, 0, 58, 35
2, 394201, Note_on_c, 0, 55, 0
2, 394237, Note_on_c, 0, 79, 0
2, 394249, Note_on_c, 0, 82, 0
2, 394249, Note_on_c, 0, 64, 0
2, 394269, Note_on_c, 0, 58, 0
2, 394277, Note_on_c, 0, 83, 73
2, 394361, Note_on_c, 0, 84, 84
2, 394385, Note_on_c, 0, 83, 0
2, 394409, Note_on_c, 0, 84, 0
2, 394457, Control_c, 0, 64, 104
2, 394469, Control_c, 0, 64, 72
2, 394473, Note_on_c, 0, 85, 92
2, 394481, Note_on_c, 0, 82, 72
2, 394481, Control_c, 0, 64, 0
2, 394497, Note_on_c, 0, 46, 60
2, 394545, Control_c, 0, 64, 56
2, 394557, Note_on_c, 0, 82, 0
2, 394557, Note_on_c, 0, 85, 0
2, 394557, Control_c, 0, 64, 104
2, 394565, Control_c, 0, 64, 127
2, 394569, Note_on_c, 0, 87, 76
2, 394597, Note_on_c, 0, 46, 0
2, 394653, Note_on_c, 0, 85, 78
2, 394673, Note_on_c, 0, 87, 0
2, 394709, Note_on_c, 0, 85, 0
2, 394741, Control_c, 0, 64, 88
2, 394749, Control_c, 0, 64, 40
2, 394761, Note_on_c, 0, 79, 81
2, 394761, Note_on_c, 0, 77, 56
2, 394761, Note_on_c, 0, 70, 56
2, 394761, Control_c, 0, 64, 0
2, 394781, Note_on_c, 0, 55, 60
2, 394801, Note_on_c, 0, 79, 0
2, 394809, Note_on_c, 0, 77, 0
2, 394809, Note_on_c, 0, 70, 0
2, 394817, Control_c, 0, 64, 24
2, 394825, Control_c, 0, 64, 72
2, 394837, Control_c, 0, 64, 104
2, 394849, Note_on_c, 0, 80, 77
2, 394849, Control_c, 0, 64, 127
2, 394929, Note_on_c, 0, 80, 0
2, 394945, Note_on_c, 0, 81, 77
2, 394989, Control_c, 0, 64, 104
2, 394997, Note_on_c, 0, 81, 0
2, 395001, Control_c, 0, 64, 56
2, 395013, Control_c, 0, 64, 0
2, 395041, Note_on_c, 0, 82, 84
2, 395049, Note_on_c, 0, 65, 56
2, 395053, Note_on_c, 0, 77, 60
2, 395053, Control_c, 0, 64, 56
2, 395057, Note_on_c, 0, 61, 44
2, 395057, Note_on_c, 0, 79, 50
2, 395065, Control_c, 0, 64, 88
2, 395073, Control_c, 0, 64, 127
2, 395077, Note_on_c, 0, 77, 0
2, 395081, Note_on_c, 0, 79, 0
2, 395109, Note_on_c, 0, 82, 0
2, 395137, Note_on_c, 0, 83, 83
2, 395149, Note_on_c, 0, 65, 0
2, 395185, Note_on_c, 0, 61, 0
2, 395185, Note_on_c, 0, 55, 0
2, 395221, Note_on_c, 0, 84, 81
2, 395225, Note_on_c, 0, 83, 0
2, 395269, Note_on_c, 0, 84, 0
2, 395313, Control_c, 0, 64, 72
2, 395325, Control_c, 0, 64, 0
2, 395337, Note_on_c, 0, 85, 89
2, 395341, Note_on_c, 0, 76, 81
2, 395341, Note_on_c, 0, 82, 73
2, 395361, Note_on_c, 0, 48, 65
2, 395393, Note_on_c, 0, 76, 0
2, 395401, Control_c, 0, 64, 72
2, 395413, Control_c, 0, 64, 104
2, 395421, Note_on_c, 0, 85, 0
2, 395421, Note_on_c, 0, 82, 0
2, 395425, Control_c, 0, 64, 127
2, 395429, Note_on_c, 0, 48, 0
2, 395437, Note_on_c, 0, 87, 74
2, 395521, Note_on_c, 0, 85, 74
2, 395525, Note_on_c, 0, 87, 0
2, 395565, Note_on_c, 0, 85, 0
2, 395597, Control_c, 0, 64, 104
2, 395609, Control_c, 0, 64, 56
2, 395617, Control_c, 0, 64, 0
2, 395633, Note_on_c, 0, 82, 62
2, 395633, Note_on_c, 0, 91, 99
2, 395637, Note_on_c, 0, 67, 51
2, 395653, Note_on_c, 0, 76, 64
2, 395653, Note_on_c, 0, 70, 59
2, 395661, Control_c, 0, 64, 24
2, 395673, Control_c, 0, 64, 72
2, 395685, Note_on_c, 0, 82, 0
2, 395685, Control_c, 0, 64, 104
2, 395693, Control_c, 0, 64, 127
2, 395697, Note_on_c, 0, 67, 0
2, 395701, Note_on_c, 0, 91, 0
2, 395713, Note_on_c, 0, 76, 0
2, 395741, Note_on_c, 0, 93, 89
2, 395785, Note_on_c, 0, 70, 0
2, 395793, Note_on_c, 0, 93, 0
2, 395809, Note_on_c, 0, 60, 65
2, 395833, Note_on_c, 0, 91, 86
2, 395869, Note_on_c, 0, 60, 0
2, 395901, Note_on_c, 0, 91, 0
2, 395901, Control_c, 0, 64, 88
2, 395913, Control_c, 0, 64, 40
2, 395921, Control_c, 0, 64, 0
2, 395933, Note_on_c, 0, 90, 85
2, 395941, Note_on_c, 0, 81, 70
2, 395965, Note_on_c, 0, 75, 67
2, 395965, Control_c, 0, 64, 40
2, 395969, Note_on_c, 0, 69, 59
2, 395977, Control_c, 0, 64, 88
2, 395985, Note_on_c, 0, 66, 47
2, 395985, Control_c, 0, 64, 127
2, 395997, Note_on_c, 0, 69, 0
2, 395997, Note_on_c, 0, 81, 0
2, 396005, Note_on_c, 0, 90, 0
2, 396009, Note_on_c, 0, 75, 0
2, 396017, Note_on_c, 0, 66, 0
2, 396029, Note_on_c, 0, 91, 85
2, 396089, Note_on_c, 0, 91, 0
2, 396113, Note_on_c, 0, 60, 57
2, 396121, Note_on_c, 0, 90, 83
2, 396161, Control_c, 0, 64, 88
2, 396173, Control_c, 0, 64, 40
2, 396177, Note_on_c, 0, 60, 0
2, 396181, Control_c, 0, 64, 0
2, 396193, Note_on_c, 0, 90, 0
2, 396229, Note_on_c, 0, 80, 60
2, 396229, Note_on_c, 0, 89, 86
2, 396233, Note_on_c, 0, 74, 62
2, 396237, Control_c, 0, 64, 56
2, 396249, Note_on_c, 0, 68, 36
2, 396249, Control_c, 0, 64, 88
2, 396253, Note_on_c, 0, 65, 43
2, 396257, Note_on_c, 0, 80, 0
2, 396257, Control_c, 0, 64, 127
2, 396277, Note_on_c, 0, 89, 0
2, 396281, Note_on_c, 0, 74, 0
2, 396309, Note_on_c, 0, 65, 0
2, 396329, Note_on_c, 0, 91, 90
2, 396361, Note_on_c, 0, 68, 0
2, 396377, Note_on_c, 0, 91, 0
2, 396393, Note_on_c, 0, 60, 54
2, 396401, Note_on_c, 0, 89, 81
2, 396453, Note_on_c, 0, 60, 0
2, 396453, Control_c, 0, 64, 104
2, 396465, Control_c, 0, 64, 56
2, 396473, Note_on_c, 0, 89, 0
2, 396477, Control_c, 0, 64, 0
2, 396505, Note_on_c, 0, 88, 87
2, 396509, Note_on_c, 0, 71, 54
2, 396509, Note_on_c, 0, 62, 52
2, 396513, Note_on_c, 0, 68, 44
2, 396529, Control_c, 0, 64, 40
2, 396541, Control_c, 0, 64, 72
2, 396553, Control_c, 0, 64, 104
2, 396561, Control_c, 0, 64, 127
2, 396565, Note_on_c, 0, 88, 0
2, 396581, Note_on_c, 0, 71, 0
2, 396581, Note_on_c, 0, 68, 0
2, 396589, Note_on_c, 0, 62, 0
2, 396593, Note_on_c, 0, 89, 77
2, 396677, Note_on_c, 0, 60, 60
2, 396681, Note_on_c, 0, 89, 0
2, 396681, Control_c, 0, 64, 88
2, 396685, Note_on_c, 0, 86, 84
2, 396693, Control_c, 0, 64, 40
2, 396705, Control_c, 0, 64, 0
2, 396757, Control_c, 0, 64, 56
2, 396769, Control_c, 0, 64, 88
2, 396773, Note_on_c, 0, 60, 0
2, 396777, Note_on_c, 0, 86, 0
2, 396777, Control_c, 0, 64, 127
2, 396785, Note_on_c, 0, 84, 82
2, 396801, Note_on_c, 0, 64, 56
2, 396805, Note_on_c, 0, 72, 55
2, 396805, Note_on_c, 0, 70, 47
2, 396833, Note_on_c, 0, 84, 0
2, 396873, Note_on_c, 0, 64, 0
2, 396873, Note_on_c, 0, 82, 73
2, 396885, Note_on_c, 0, 70, 0
2, 396957, Note_on_c, 0, 82, 0
2, 396961, Note_on_c, 0, 79, 82
2, 396973, Note_on_c, 0, 72, 0
2, 397029, Control_c, 0, 64, 56
2, 397041, Control_c, 0, 64, 0
2, 397061, Note_on_c, 0, 79, 0
2, 397073, Note_on_c, 0, 77, 77
2, 397085, Note_on_c, 0, 69, 59
2, 397089, Note_on_c, 0, 65, 37
2, 397093, Control_c, 0, 64, 24
2, 397105, Control_c, 0, 64, 88
2, 397109, Note_on_c, 0, 77, 0
2, 397117, Control_c, 0, 64, 127
2, 397137, Note_on_c, 0, 69, 0
2, 397141, Note_on_c, 0, 65, 0
2, 397185, Note_on_c, 0, 69, 68
2, 397233, Note_on_c, 0, 69, 0
2, 397269, Control_c, 0, 64, 104
2, 397277, Note_on_c, 0, 70, 72
2, 397289, Control_c, 0, 64, 88
2, 397301, Control_c, 0, 64, 72
2, 397309, Control_c, 0, 64, 56
2, 397321, Control_c, 0, 64, 40
2, 397333, Note_on_c, 0, 70, 0
2, 397333, Control_c, 0, 64, 24
2, 397353, Control_c, 0, 64, 0
2, 397365, Note_on_c, 0, 71, 74
2, 397445, Note_on_c, 0, 71, 0
2, 397461, Note_on_c, 0, 74, 79
2, 397521, Note_on_c, 0, 74, 0
2, 397549, Note_on_c, 0, 72, 81
2, 397625, Note_on_c, 0, 72, 0
2, 397645, Note_on_c, 0, 76, 78
2, 397713, Note_on_c, 0, 76, 0
2, 397737, Note_on_c, 0, 77, 76
2, 397821, Note_on_c, 0, 77, 0
2, 397841, Note_on_c, 0, 81, 77
2, 397901, Note_on_c, 0, 81, 0
2, 397949, Note_on_c, 0, 79, 82
2, 397957, Note_on_c, 0, 77, 74
2, 397961, Control_c, 0, 64, 24
2, 397965, Note_on_c, 0, 43, 59
2, 397973, Control_c, 0, 64, 72
2, 397985, Control_c, 0, 64, 127
2, 397993, Note_on_c, 0, 43, 0
2, 398009, Note_on_c, 0, 77, 0
2, 398029, Note_on_c, 0, 79, 0
2, 398045, Note_on_c, 0, 71, 68
2, 398133, Note_on_c, 0, 71, 0
2, 398145, Note_on_c, 0, 79, 67
2, 398153, Note_on_c, 0, 77, 56
2, 398169, Note_on_c, 0, 77, 0
2, 398185, Note_on_c, 0, 79, 0
2, 398237, Note_on_c, 0, 65, 60
2, 398241, Note_on_c, 0, 62, 54
2, 398245, Note_on_c, 0, 83, 73
2, 398245, Note_on_c, 0, 55, 56
2, 398265, Note_on_c, 0, 62, 0
2, 398277, Note_on_c, 0, 65, 0
2, 398289, Note_on_c, 0, 55, 0
2, 398297, Note_on_c, 0, 83, 0
2, 398345, Note_on_c, 0, 91, 82
2, 398357, Note_on_c, 0, 89, 68
2, 398409, Note_on_c, 0, 89, 0
2, 398409, Control_c, 0, 64, 104
2, 398417, Control_c, 0, 64, 56
2, 398421, Note_on_c, 0, 91, 0
2, 398425, Note_on_c, 0, 83, 81
2, 398429, Control_c, 0, 64, 0
2, 398461, Note_on_c, 0, 48, 65
2, 398477, Note_on_c, 0, 58, 44
2, 398481, Note_on_c, 0, 55, 58
2, 398481, Control_c, 0, 64, 24
2, 398493, Note_on_c, 0, 83, 0
2, 398493, Control_c, 0, 64, 72
2, 398497, Note_on_c, 0, 48, 0
2, 398505, Control_c, 0, 64, 104
2, 398513, Control_c, 0, 64, 127
2, 398529, Note_on_c, 0, 64, 79
2, 398533, Note_on_c, 0, 91, 88
2, 398545, Note_on_c, 0, 55, 0
2, 398545, Note_on_c, 0, 88, 77
2, 398565, Note_on_c, 0, 58, 0
2, 398569, Note_on_c, 0, 64, 0
2, 398589, Note_on_c, 0, 88, 0
2, 398609, Note_on_c, 0, 91, 0
2, 398625, Note_on_c, 0, 84, 71
2, 398697, Note_on_c, 0, 84, 0
2, 398717, Note_on_c, 0, 91, 85
2, 398725, Note_on_c, 0, 88, 70
2, 398769, Note_on_c, 0, 88, 0
2, 398789, Note_on_c, 0, 91, 0
2, 398809, Control_c, 0, 64, 104
2, 398817, Control_c, 0, 64, 72
2, 398825, Note_on_c, 0, 93, 95
2, 398829, Control_c, 0, 64, 24
2, 398837, Note_on_c, 0, 89, 81
2, 398841, Note_on_c, 0, 65, 70
2, 398841, Control_c, 0, 64, 0
2, 398845, Note_on_c, 0, 57, 57
2, 398853, Note_on_c, 0, 53, 55
2, 398905, Control_c, 0, 64, 40
2, 398917, Control_c, 0, 64, 88
2, 398925, Note_on_c, 0, 84, 72
2, 398929, Control_c, 0, 64, 127
2, 398981, Note_on_c, 0, 93, 0
2, 399009, Note_on_c, 0, 53, 0
2, 399013, Note_on_c, 0, 89, 0
2, 399025, Note_on_c, 0, 57, 0
2, 399025, Note_on_c, 0, 84, 0
2, 399025, Note_on_c, 0, 81, 55
2, 399041, Note_on_c, 0, 65, 0
2, 399065, Note_on_c, 0, 81, 0
2, 399133, Note_on_c, 0, 77, 56
2, 399133, Control_c, 0, 64, 72
2, 399145, Control_c, 0, 64, 40
2, 399157, Control_c, 0, 64, 0
2, 399169, Note_on_c, 0, 77, 0
2, 399197, Control_c, 0, 64, 40
2, 399209, Control_c, 0, 64, 72
2, 399217, Note_on_c, 0, 69, 70
2, 399221, Control_c, 0, 64, 88
2, 399229, Control_c, 0, 64, 104
2, 399241, Control_c, 0, 64, 127
2, 399277, Note_on_c, 0, 69, 0
2, 399297, Note_on_c, 0, 70, 69
2, 399369, Note_on_c, 0, 70, 0
2, 399389, Note_on_c, 0, 71, 81
2, 399449, Note_on_c, 0, 71, 0
2, 399477, Note_on_c, 0, 72, 92
2, 399533, Note_on_c, 0, 72, 0
2, 399569, Note_on_c, 0, 81, 87
2, 399629, Note_on_c, 0, 81, 0
2, 399641, Control_c, 0, 64, 88
2, 399653, Control_c, 0, 64, 40
2, 399665, Control_c, 0, 64, 0
2, 399673, Note_on_c, 0, 79, 94
2, 399681, Note_on_c, 0, 77, 84
2, 399697, Note_on_c, 0, 43, 60
2, 399729, Control_c, 0, 64, 40
2, 399741, Control_c, 0, 64, 127
2, 399749, Note_on_c, 0, 77, 0
2, 399761, Note_on_c, 0, 43, 0
2, 399777, Note_on_c, 0, 71, 68
2, 399789, Note_on_c, 0, 79, 0
2, 399857, Note_on_c, 0, 71, 0
2, 399877, Note_on_c, 0, 79, 71
2, 399885, Note_on_c, 0, 77, 63
2, 399905, Note_on_c, 0, 77, 0
2, 399917, Note_on_c, 0, 79, 0
2, 399969, Note_on_c, 0, 65, 63
2, 399977, Note_on_c, 0, 62, 49
2, 399981, Note_on_c, 0, 83, 80
2, 399981, Note_on_c, 0, 55, 43
2, 399997, Note_on_c, 0, 62, 0
2, 400009, Note_on_c, 0, 55, 0
2, 400025, Note_on_c, 0, 65, 0
2, 400033, Note_on_c, 0, 83, 0
2, 400077, Note_on_c, 0, 91, 82
2, 400085, Note_on_c, 0, 89, 68
2, 400137, Note_on_c, 0, 89, 0
2, 400153, Note_on_c, 0, 91, 0
2, 400153, Control_c, 0, 64, 104
2, 400165, Note_on_c, 0, 83, 76
2, 400165, Control_c, 0, 64, 72
2, 400173, Control_c, 0, 64, 24
2, 400185, Control_c, 0, 64, 0
2, 400201, Note_on_c, 0, 48, 55
2, 400209, Note_on_c, 0, 58, 37
2, 400221, Note_on_c, 0, 83, 0
2, 400221, Note_on_c, 0, 55, 46
2, 400229, Note_on_c, 0, 48, 0
2, 400241, Control_c, 0, 64, 56
2, 400249, Control_c, 0, 64, 127
2, 400265, Note_on_c, 0, 91, 92
2, 400273, Note_on_c, 0, 64, 64
2, 400277, Note_on_c, 0, 88, 78
2, 400281, Note_on_c, 0, 55, 0
2, 400313, Note_on_c, 0, 58, 0
2, 400321, Note_on_c, 0, 64, 0
2, 400321, Note_on_c, 0, 88, 0
2, 400341, Note_on_c, 0, 91, 0
2, 400357, Note_on_c, 0, 84, 76
2, 400433, Note_on_c, 0, 84, 0
2, 400449, Note_on_c, 0, 88, 84
2, 400457, Note_on_c, 0, 91, 74
2, 400509, Note_on_c, 0, 88, 0
2, 400517, Note_on_c, 0, 91, 0
2, 400545, Control_c, 0, 64, 88
2, 400553, Note_on_c, 0, 93, 99
2, 400553, Control_c, 0, 64, 24
2, 400561, Note_on_c, 0, 89, 86
2, 400565, Control_c, 0, 64, 0
2, 400569, Note_on_c, 0, 65, 70
2, 400573, Note_on_c, 0, 57, 60
2, 400577, Note_on_c, 0, 53, 62
2, 400621, Control_c, 0, 64, 56
2, 400629, Control_c, 0, 64, 127
2, 400649, Note_on_c, 0, 84, 82
2, 400701, Note_on_c, 0, 93, 0
2, 400733, Note_on_c, 0, 89, 0
2, 400737, Note_on_c, 0, 81, 73
2, 400741, Note_on_c, 0, 84, 0
2, 400781, Note_on_c, 0, 81, 0
2, 400845, Note_on_c, 0, 81, 79
2, 400857, Note_on_c, 0, 77, 68
2, 400881, Note_on_c, 0, 65, 0
2, 400901, Note_on_c, 0, 57, 0
2, 400901, Note_on_c, 0, 77, 0
2, 400909, Note_on_c, 0, 53, 0
2, 400909, Note_on_c, 0, 81, 0
2, 400949, Note_on_c, 0, 72, 76
2, 401021, Note_on_c, 0, 72, 0
2, 401033, Note_on_c, 0, 69, 78
2, 401065, Note_on_c, 0, 69, 0
2, 401133, Note_on_c, 0, 65, 70
2, 401149, Note_on_c, 0, 41, 70
2, 401149, Note_on_c, 0, 29, 62
2, 401205, Note_on_c, 0, 65, 0
2, 401229, Note_on_c, 0, 60, 78
2, 401265, Note_on_c, 0, 29, 0
2, 401293, Note_on_c, 0, 60, 0
2, 401305, Note_on_c, 0, 57, 81
2, 401309, Note_on_c, 0, 41, 0
2, 401369, Note_on_c, 0, 57, 0
2, 401401, Control_c, 0, 64, 104
2, 401413, Control_c, 0, 64, 40
2, 401421, Control_c, 0, 64, 0
2, 401433, Note_on_c, 0, 64, 82
2, 401433, Note_on_c, 0, 58, 70
2, 401449, Note_on_c, 0, 31, 61
2, 401457, Note_on_c, 0, 43, 53
2, 401497, Note_on_c, 0, 31, 0
2, 401497, Control_c, 0, 64, 88
2, 401509, Control_c, 0, 64, 127
2, 401517, Note_on_c, 0, 43, 0
2, 401521, Note_on_c, 0, 64, 0
2, 401541, Note_on_c, 0, 61, 69
2, 401561, Note_on_c, 0, 58, 0
2, 401593, Note_on_c, 0, 61, 0
2, 401645, Note_on_c, 0, 64, 80
2, 401689, Note_on_c, 0, 64, 0
2, 401721, Note_on_c, 0, 55, 75
2, 401729, Note_on_c, 0, 76, 97
2, 401737, Note_on_c, 0, 70, 79
2, 401737, Note_on_c, 0, 43, 58
2, 401765, Note_on_c, 0, 55, 0
2, 401789, Note_on_c, 0, 43, 0
2, 401829, Note_on_c, 0, 73, 74
2, 401833, Note_on_c, 0, 76, 0
2, 401845, Note_on_c, 0, 70, 0
2, 401877, Note_on_c, 0, 73, 0
2, 401921, Note_on_c, 0, 76, 82
2, 401969, Note_on_c, 0, 76, 0
2, 401997, Note_on_c, 0, 43, 78
2, 402001, Note_on_c, 0, 31, 63
2, 402005, Note_on_c, 0, 88, 100
2, 402017, Note_on_c, 0, 82, 77
2, 402053, Note_on_c, 0, 31, 0
2, 402081, Note_on_c, 0, 43, 0
2, 402093, Note_on_c, 0, 88, 0
2, 402105, Note_on_c, 0, 85, 76
2, 402133, Note_on_c, 0, 82, 0
2, 402165, Note_on_c, 0, 85, 0
2, 402181, Note_on_c, 0, 76, 79
2, 402241, Note_on_c, 0, 76, 0
2, 402257, Control_c, 0, 64, 72
2, 402269, Control_c, 0, 64, 24
2, 402281, Control_c, 0, 64, 0
2, 402297, Note_on_c, 0, 87, 95
2, 402301, Note_on_c, 0, 78, 83
2, 402313, Note_on_c, 0, 45, 89
2, 402317, Note_on_c, 0, 33, 74
2, 402357, Note_on_c, 0, 33, 0
2, 402357, Control_c, 0, 64, 88
2, 402365, Control_c, 0, 64, 127
2, 402389, Note_on_c, 0, 45, 0
2, 402397, Note_on_c, 0, 87, 0
2, 402405, Note_on_c, 0, 84, 75
2, 402461, Note_on_c, 0, 78, 0
2, 402477, Note_on_c, 0, 75, 69
2, 402489, Note_on_c, 0, 84, 0
2, 402513, Note_on_c, 0, 75, 0
2, 402581, Note_on_c, 0, 75, 75
2, 402593, Note_on_c, 0, 57, 77
2, 402597, Note_on_c, 0, 45, 62
2, 402613, Note_on_c, 0, 66, 47
2, 402633, Note_on_c, 0, 66, 0
2, 402633, Note_on_c, 0, 57, 0
2, 402637, Note_on_c, 0, 45, 0
2, 402645, Note_on_c, 0, 75, 0
2, 402677, Note_on_c, 0, 72, 76
2, 402761, Note_on_c, 0, 63, 61
2, 402769, Note_on_c, 0, 72, 0
2, 402801, Note_on_c, 0, 63, 0
2, 402841, Control_c, 0, 64, 88
2, 402853, Control_c, 0, 64, 40
2, 402865, Note_on_c, 0, 63, 77
2, 402865, Control_c, 0, 64, 24
2, 402877, Note_on_c, 0, 45, 72
2, 402881, Note_on_c, 0, 33, 65
2, 402897, Control_c, 0, 64, 56
2, 402909, Note_on_c, 0, 54, 56
2, 402909, Control_c, 0, 64, 88
2, 402917, Control_c, 0, 64, 127
2, 402925, Note_on_c, 0, 45, 0
2, 402929, Note_on_c, 0, 33, 0
2, 402937, Note_on_c, 0, 63, 0
2, 402957, Note_on_c, 0, 60, 74
2, 402973, Note_on_c, 0, 54, 0
2, 403033, Note_on_c, 0, 60, 0
2, 403049, Note_on_c, 0, 49, 67
2, 403085, Note_on_c, 0, 49, 0
2, 403125, Control_c, 0, 64, 72
2, 403137, Control_c, 0, 64, 24
2, 403145, Control_c, 0, 64, 0
2, 403149, Note_on_c, 0, 61, 73
2, 403157, Note_on_c, 0, 54, 69
2, 403181, Note_on_c, 0, 46, 65
2, 403185, Note_on_c, 0, 34, 62
2, 403213, Control_c, 0, 64, 24
2, 403221, Control_c, 0, 64, 88
2, 403233, Control_c, 0, 64, 127
2, 403249, Note_on_c, 0, 61, 0
2, 403249, Note_on_c, 0, 58, 65
2, 403257, Note_on_c, 0, 54, 0
2, 403265, Note_on_c, 0, 34, 0
2, 403269, Note_on_c, 0, 46, 0
2, 403297, Note_on_c, 0, 58, 0
2, 403337, Note_on_c, 0, 61, 77
2, 403389, Note_on_c, 0, 61, 0
2, 403437, Note_on_c, 0, 73, 85
2, 403445, Note_on_c, 0, 66, 73
2, 403453, Note_on_c, 0, 58, 77
2, 403461, Note_on_c, 0, 46, 63
2, 403501, Note_on_c, 0, 58, 0
2, 403513, Note_on_c, 0, 46, 0
2, 403533, Note_on_c, 0, 66, 0
2, 403533, Note_on_c, 0, 70, 69
2, 403541, Note_on_c, 0, 73, 0
2, 403577, Note_on_c, 0, 70, 0
2, 403621, Note_on_c, 0, 73, 80
2, 403669, Note_on_c, 0, 73, 0
2, 403717, Note_on_c, 0, 85, 89
2, 403721, Note_on_c, 0, 78, 82
2, 403725, Note_on_c, 0, 46, 82
2, 403733, Note_on_c, 0, 34, 76
2, 403765, Note_on_c, 0, 46, 0
2, 403777, Note_on_c, 0, 34, 0
2, 403809, Note_on_c, 0, 78, 0
2, 403817, Note_on_c, 0, 85, 0
2, 403817, Note_on_c, 0, 82, 67
2, 403873, Note_on_c, 0, 82, 0
2, 403905, Note_on_c, 0, 78, 76
2, 403961, Note_on_c, 0, 78, 0
2, 403981, Control_c, 0, 64, 104
2, 403993, Control_c, 0, 64, 40
2, 404001, Control_c, 0, 64, 0
2, 404005, Note_on_c, 0, 90, 96
2, 404013, Note_on_c, 0, 82, 88
2, 404017, Note_on_c, 0, 42, 84
2, 404021, Note_on_c, 0, 30, 75
2, 404069, Control_c, 0, 64, 56
2, 404081, Control_c, 0, 64, 127
2, 404097, Note_on_c, 0, 30, 0
2, 404097, Note_on_c, 0, 42, 0
2, 404125, Note_on_c, 0, 85, 65
2, 404165, Note_on_c, 0, 90, 0
2, 404185, Note_on_c, 0, 82, 0
2, 404189, Note_on_c, 0, 78, 65
2, 404205, Note_on_c, 0, 85, 0
2, 404225, Note_on_c, 0, 78, 0
2, 404289, Note_on_c, 0, 78, 84
2, 404309, Note_on_c, 0, 54, 83
2, 404321, Note_on_c, 0, 42, 68
2, 404361, Note_on_c, 0, 54, 0
2, 404377, Note_on_c, 0, 42, 0
2, 404393, Note_on_c, 0, 73, 72
2, 404417, Note_on_c, 0, 78, 0
2, 404473, Note_on_c, 0, 73, 0
2, 404477, Note_on_c, 0, 66, 65
2, 404513, Note_on_c, 0, 66, 0
2, 404577, Note_on_c, 0, 66, 81
2, 404593, Note_on_c, 0, 58, 73
2, 404597, Note_on_c, 0, 42, 75
2, 404601, Note_on_c, 0, 30, 67
2, 404669, Note_on_c, 0, 66, 0
2, 404677, Note_on_c, 0, 61, 65
2, 404681, Note_on_c, 0, 30, 0
2, 404697, Note_on_c, 0, 58, 0
2, 404705, Note_on_c, 0, 42, 0
2, 404745, Note_on_c, 0, 61, 0
2, 404757, Note_on_c, 0, 54, 67
2, 404793, Note_on_c, 0, 54, 0
2, 404849, Control_c, 0, 64, 72
2, 404861, Control_c, 0, 64, 0
2, 404885, Note_on_c, 0, 65, 78
2, 404885, Note_on_c, 0, 59, 76
2, 404901, Note_on_c, 0, 44, 68
2, 404905, Note_on_c, 0, 32, 55
2, 404937, Control_c, 0, 64, 40
2, 404949, Control_c, 0, 64, 104
2, 404953, Note_on_c, 0, 32, 0
2, 404957, Control_c, 0, 64, 127
2, 404961, Note_on_c, 0, 44, 0
2, 404989, Note_on_c, 0, 62, 72
2, 404997, Note_on_c, 0, 59, 0
2, 405001, Note_on_c, 0, 65, 0
2, 405037, Note_on_c, 0, 62, 0
2, 405093, Note_on_c, 0, 65, 70
2, 405137, Note_on_c, 0, 65, 0
2, 405181, Note_on_c, 0, 77, 90
2, 405181, Note_on_c, 0, 71, 84
2, 405185, Note_on_c, 0, 56, 77
2, 405193, Note_on_c, 0, 44, 57
2, 405225, Note_on_c, 0, 56, 0
2, 405249, Note_on_c, 0, 44, 0
2, 405273, Note_on_c, 0, 71, 0
2, 405273, Note_on_c, 0, 74, 75
2, 405293, Note_on_c, 0, 77, 0
2, 405313, Note_on_c, 0, 74, 0
2, 405361, Note_on_c, 0, 77, 73
2, 405385, Note_on_c, 0, 87, 34
2, 405405, Note_on_c, 0, 87, 0
2, 405409, Note_on_c, 0, 77, 0
2, 405453, Note_on_c, 0, 44, 80
2, 405453, Note_on_c, 0, 89, 94
2, 405457, Note_on_c, 0, 32, 71
2, 405461, Note_on_c, 0, 83, 87
2, 405537, Note_on_c, 0, 32, 0
2, 405537, Note_on_c, 0, 44, 0
2, 405549, Note_on_c, 0, 89, 0
2, 405549, Note_on_c, 0, 83, 0
2, 405553, Note_on_c, 0, 86, 74
2, 405621, Note_on_c, 0, 86, 0
2, 405637, Note_on_c, 0, 77, 79
2, 405685, Note_on_c, 0, 77, 0
2, 405717, Control_c, 0, 64, 104
2, 405729, Control_c, 0, 64, 56
2, 405741, Control_c, 0, 64, 0
2, 405749, Note_on_c, 0, 88, 88
2, 405753, Note_on_c, 0, 79, 85
2, 405761, Note_on_c, 0, 46, 89
2, 405761, Note_on_c, 0, 34, 71
2, 405805, Control_c, 0, 64, 24
2, 405813, Control_c, 0, 64, 104
2, 405817, Note_on_c, 0, 46, 0
2, 405821, Note_on_c, 0, 34, 0
2, 405825, Control_c, 0, 64, 127
2, 405849, Note_on_c, 0, 88, 0
2, 405853, Note_on_c, 0, 85, 64
2, 405905, Note_on_c, 0, 79, 0
2, 405929, Note_on_c, 0, 76, 70
2, 405941, Note_on_c, 0, 85, 0
2, 405957, Note_on_c, 0, 76, 0
2, 406041, Note_on_c, 0, 76, 78
2, 406049, Note_on_c, 0, 58, 81
2, 406057, Note_on_c, 0, 67, 60
2, 406057, Note_on_c, 0, 46, 62
2, 406089, Note_on_c, 0, 67, 0
2, 406097, Note_on_c, 0, 58, 0
2, 406101, Note_on_c, 0, 76, 0
2, 406113, Note_on_c, 0, 46, 0
2, 406145, Note_on_c, 0, 73, 53
2, 406229, Note_on_c, 0, 73, 0
2, 406233, Note_on_c, 0, 64, 70
2, 406261, Note_on_c, 0, 64, 0
2, 406325, Note_on_c, 0, 64, 89
2, 406337, Note_on_c, 0, 46, 81
2, 406345, Note_on_c, 0, 34, 73
2, 406353, Note_on_c, 0, 55, 50
2, 406393, Note_on_c, 0, 64, 0
2, 406417, Note_on_c, 0, 61, 64
2, 406461, Note_on_c, 0, 55, 0
2, 406489, Note_on_c, 0, 46, 0
2, 406489, Note_on_c, 0, 34, 0
2, 406505, Note_on_c, 0, 52, 74
2, 406509, Note_on_c, 0, 61, 0
2, 406553, Note_on_c, 0, 52, 0
2, 406585, Control_c, 0, 64, 104
2, 406593, Control_c, 0, 64, 40
2, 406609, Control_c, 0, 64, 0
2, 406617, Note_on_c, 0, 62, 80
2, 406625, Note_on_c, 0, 55, 82
2, 406637, Note_on_c, 0, 47, 75
2, 406641, Note_on_c, 0, 35, 64
2, 406673, Control_c, 0, 64, 40
2, 406681, Control_c, 0, 64, 104
2, 406689, Note_on_c, 0, 35, 0
2, 406693, Control_c, 0, 64, 127
2, 406709, Note_on_c, 0, 47, 0
2, 406721, Note_on_c, 0, 62, 0
2, 406721, Note_on_c, 0, 59, 71
2, 406725, Note_on_c, 0, 55, 0
2, 406757, Note_on_c, 0, 59, 0
2, 406817, Note_on_c, 0, 62, 81
2, 406861, Note_on_c, 0, 62, 0
2, 406905, Note_on_c, 0, 74, 88
2, 406909, Note_on_c, 0, 67, 82
2, 406917, Note_on_c, 0, 59, 73
2, 406937, Note_on_c, 0, 47, 42
2, 406957, Note_on_c, 0, 59, 0
2, 406961, Note_on_c, 0, 47, 0
2, 406981, Note_on_c, 0, 67, 0
2, 406993, Note_on_c, 0, 71, 74
2, 407009, Note_on_c, 0, 74, 0
2, 407025, Note_on_c, 0, 71, 0
2, 407077, Note_on_c, 0, 74, 81
2, 407121, Note_on_c, 0, 74, 0
2, 407177, Note_on_c, 0, 86, 90
2, 407181, Note_on_c, 0, 79, 90
2, 407181, Note_on_c, 0, 47, 85
2, 407185, Note_on_c, 0, 35, 75
2, 407225, Note_on_c, 0, 47, 0
2, 407233, Note_on_c, 0, 35, 0
2, 407265, Note_on_c, 0, 79, 0
2, 407277, Note_on_c, 0, 83, 87
2, 407285, Note_on_c, 0, 86, 0
2, 407317, Note_on_c, 0, 83, 0
2, 407369, Note_on_c, 0, 79, 55
2, 407389, Note_on_c, 0, 79, 0
2, 407433, Control_c, 0, 64, 88
2, 407441, Control_c, 0, 64, 40
2, 407453, Control_c, 0, 64, 0
2, 407469, Note_on_c, 0, 91, 102
2, 407473, Note_on_c, 0, 83, 96
2, 407477, Note_on_c, 0, 43, 90
2, 407477, Note_on_c, 0, 31, 77
2, 407517, Control_c, 0, 64, 72
2, 407529, Note_on_c, 0, 31, 0
2, 407529, Control_c, 0, 64, 127
2, 407549, Note_on_c, 0, 43, 0
2, 407569, Note_on_c, 0, 86, 76
2, 407573, Note_on_c, 0, 91, 0
2, 407625, Note_on_c, 0, 83, 0
2, 407661, Note_on_c, 0, 79, 71
2, 407665, Note_on_c, 0, 86, 0
2, 407697, Note_on_c, 0, 79, 0
2, 407765, Note_on_c, 0, 79, 84
2, 407777, Note_on_c, 0, 55, 81
2, 407781, Note_on_c, 0, 43, 68
2, 407789, Note_on_c, 0, 71, 65
2, 407813, Note_on_c, 0, 55, 0
2, 407833, Note_on_c, 0, 43, 0
2, 407841, Note_on_c, 0, 79, 0
2, 407873, Note_on_c, 0, 74, 70
2, 407905, Note_on_c, 0, 71, 0
2, 407953, Note_on_c, 0, 74, 0
2, 407961, Note_on_c, 0, 67, 70
2, 407993, Note_on_c, 0, 67, 0
2, 408053, Note_on_c, 0, 67, 78
2, 408061, Note_on_c, 0, 43, 73
2, 408061, Note_on_c, 0, 31, 65
2, 408069, Note_on_c, 0, 59, 76
2, 408117, Note_on_c, 0, 31, 0
2, 408121, Note_on_c, 0, 43, 0
2, 408133, Note_on_c, 0, 67, 0
2, 408149, Note_on_c, 0, 62, 74
2, 408153, Note_on_c, 0, 59, 0
2, 408225, Note_on_c, 0, 62, 0
2, 408249, Note_on_c, 0, 55, 74
2, 408289, Control_c, 0, 64, 104
2, 408293, Note_on_c, 0, 55, 0
2, 408301, Control_c, 0, 64, 40
2, 408309, Control_c, 0, 64, 0
2, 408341, Note_on_c, 0, 66, 77
2, 408349, Note_on_c, 0, 60, 81
2, 408357, Note_on_c, 0, 33, 59
2, 408357, Note_on_c, 0, 45, 66
2, 408397, Control_c, 0, 64, 72
2, 408401, Note_on_c, 0, 33, 0
2, 408409, Control_c, 0, 64, 127
2, 408421, Note_on_c, 0, 45, 0
2, 408445, Note_on_c, 0, 63, 65
2, 408453, Note_on_c, 0, 60, 0
2, 408461, Note_on_c, 0, 66, 0
2, 408489, Note_on_c, 0, 63, 0
2, 408529, Note_on_c, 0, 66, 73
2, 408577, Note_on_c, 0, 66, 0
2, 408629, Note_on_c, 0, 78, 88
2, 408633, Note_on_c, 0, 72, 87
2, 408633, Note_on_c, 0, 57, 74
2, 408645, Note_on_c, 0, 45, 66
2, 408681, Note_on_c, 0, 57, 0
2, 408701, Note_on_c, 0, 45, 0
2, 408721, Note_on_c, 0, 75, 79
2, 408737, Note_on_c, 0, 72, 0
2, 408757, Note_on_c, 0, 78, 0
2, 408769, Note_on_c, 0, 75, 0
2, 408813, Note_on_c, 0, 78, 83
2, 408877, Note_on_c, 0, 78, 0
2, 408909, Note_on_c, 0, 90, 95
2, 408913, Note_on_c, 0, 45, 82
2, 408917, Note_on_c, 0, 33, 66
2, 408917, Note_on_c, 0, 84, 90
2, 408961, Note_on_c, 0, 33, 0
2, 408977, Note_on_c, 0, 45, 0
2, 409001, Note_on_c, 0, 84, 0
2, 409005, Note_on_c, 0, 90, 0
2, 409033, Note_on_c, 0, 87, 65
2, 409037, Note_on_c, 0, 78, 60
2, 409117, Note_on_c, 0, 78, 0
2, 409117, Note_on_c, 0, 87, 0
2, 409177, Control_c, 0, 64, 88
2, 409189, Control_c, 0, 64, 24
2, 409197, Note_on_c, 0, 89, 105
2, 409201, Note_on_c, 0, 80, 92
2, 409201, Control_c, 0, 64, 0
2, 409209, Note_on_c, 0, 47, 88
2, 409213, Note_on_c, 0, 35, 76
2, 409253, Note_on_c, 0, 35, 0
2, 409253, Control_c, 0, 64, 40
2, 409265, Control_c, 0, 64, 104
2, 409277, Control_c, 0, 64, 127
2, 409285, Note_on_c, 0, 47, 0
2, 409285, Note_on_c, 0, 89, 0
2, 409297, Note_on_c, 0, 86, 80
2, 409337, Note_on_c, 0, 80, 0
2, 409381, Note_on_c, 0, 77, 61
2, 409385, Note_on_c, 0, 86, 0
2, 409409, Note_on_c, 0, 77, 0
2, 409477, Note_on_c, 0, 77, 86
2, 409485, Note_on_c, 0, 59, 79
2, 409493, Note_on_c, 0, 47, 64
2, 409501, Note_on_c, 0, 68, 67
2, 409525, Note_on_c, 0, 59, 0
2, 409541, Note_on_c, 0, 77, 0
2, 409541, Note_on_c, 0, 47, 0
2, 409565, Note_on_c, 0, 74, 73
2, 409617, Note_on_c, 0, 68, 0
2, 409653, Note_on_c, 0, 74, 0
2, 409653, Note_on_c, 0, 65, 64
2, 409681, Note_on_c, 0, 65, 0
2, 409745, Note_on_c, 0, 65, 83
2, 409745, Note_on_c, 0, 56, 65
2, 409765, Note_on_c, 0, 47, 74
2, 409769, Note_on_c, 0, 35, 63
2, 409817, Note_on_c, 0, 47, 0
2, 409817, Note_on_c, 0, 65, 0
2, 409817, Note_on_c, 0, 56, 0
2, 409821, Note_on_c, 0, 35, 0
2, 409825, Note_on_c, 0, 62, 74
2, 409917, Note_on_c, 0, 62, 0
2, 409917, Note_on_c, 0, 53, 76
2, 409969, Note_on_c, 0, 53, 0
2, 410001, Control_c, 0, 64, 72
2, 410013, Control_c, 0, 64, 0
2, 410029, Note_on_c, 0, 64, 85
2, 410033, Note_on_c, 0, 55, 87
2, 410049, Note_on_c, 0, 49, 76
2, 410049, Note_on_c, 0, 37, 61
2, 410089, Control_c, 0, 64, 72
2, 410101, Control_c, 0, 64, 127
2, 410125, Note_on_c, 0, 37, 0
2, 410129, Note_on_c, 0, 58, 64
2, 410137, Note_on_c, 0, 49, 0
2, 410137, Note_on_c, 0, 55, 0
2, 410149, Note_on_c, 0, 64, 0
2, 410169, Note_on_c, 0, 58, 0
2, 410225, Note_on_c, 0, 64, 77
2, 410249, Note_on_c, 0, 68, 32
2, 410269, Note_on_c, 0, 68, 0
2, 410269, Note_on_c, 0, 64, 0
2, 410321, Note_on_c, 0, 76, 90
2, 410325, Note_on_c, 0, 67, 85
2, 410337, Note_on_c, 0, 61, 74
2, 410345, Note_on_c, 0, 49, 57
2, 410381, Note_on_c, 0, 61, 0
2, 410397, Note_on_c, 0, 49, 0
2, 410421, Note_on_c, 0, 70, 69
2, 410425, Note_on_c, 0, 67, 0
2, 410449, Note_on_c, 0, 76, 0
2, 410453, Note_on_c, 0, 70, 0
2, 410513, Note_on_c, 0, 76, 83
2, 410561, Note_on_c, 0, 76, 0
2, 410609, Note_on_c, 0, 49, 76
2, 410609, Note_on_c, 0, 37, 56
2, 410613, Note_on_c, 0, 88, 99
2, 410621, Note_on_c, 0, 79, 96
2, 410645, Note_on_c, 0, 37, 0
2, 410649, Note_on_c, 0, 49, 0
2, 410709, Note_on_c, 0, 88, 0
2, 410709, Note_on_c, 0, 82, 70
2, 410713, Note_on_c, 0, 79, 0
2, 410777, Note_on_c, 0, 82, 0
2, 410793, Note_on_c, 0, 76, 59
2, 410821, Note_on_c, 0, 76, 0
2, 410861, Note_on_c, 0, 74, 60
2, 410869, Note_on_c, 0, 50, 55
2, 410881, Control_c, 0, 64, 24
2, 410889, Control_c, 0, 64, 56
2, 410901, Control_c, 0, 64, 72
2, 410905, Note_on_c, 0, 80, 59
2, 410905, Note_on_c, 0, 56, 50
2, 410911, Note_on_c, 0, 50, 0
2, 410913, Note_on_c, 0, 83, 70
2, 410913, Control_c, 0, 64, 88
2, 410921, Note_on_c, 0, 74, 0
2, 410921, Note_on_c, 0, 59, 50
2, 410925, Control_c, 0, 64, 104
2, 410933, Control_c, 0, 64, 127
2, 410957, Note_on_c, 0, 80, 0
2, 410957, Note_on_c, 0, 89, 97
2, 410965, Note_on_c, 0, 65, 63
2, 410969, Note_on_c, 0, 59, 0
2, 410973, Note_on_c, 0, 83, 0
2, 410981, Note_on_c, 0, 56, 0
2, 410985, Note_on_c, 0, 65, 0
2, 411005, Note_on_c, 0, 89, 0
2, 411125, Control_c, 0, 64, 72
2, 411133, Control_c, 0, 64, 24
2, 411145, Control_c, 0, 64, 0
2, 411173, Note_on_c, 0, 75, 67
2, 411181, Note_on_c, 0, 48, 58
2, 411197, Note_on_c, 0, 57, 55
2, 411205, Note_on_c, 0, 54, 57
2, 411209, Note_on_c, 0, 81, 55
2, 411209, Note_on_c, 0, 84, 63
2, 411213, Note_on_c, 0, 48, 0
2, 411229, Note_on_c, 0, 75, 0
2, 411237, Control_c, 0, 64, 56
2, 411245, Note_on_c, 0, 63, 67
2, 411245, Control_c, 0, 64, 104
2, 411249, Note_on_c, 0, 90, 95
2, 411257, Note_on_c, 0, 81, 0
2, 411257, Note_on_c, 0, 57, 0
2, 411257, Control_c, 0, 64, 127
2, 411265, Note_on_c, 0, 84, 0
2, 411265, Note_on_c, 0, 54, 0
2, 411273, Note_on_c, 0, 63, 0
2, 411293, Note_on_c, 0, 90, 0
2, 411401, Control_c, 0, 64, 88
2, 411413, Control_c, 0, 64, 40
2, 411425, Control_c, 0, 64, 0
2, 411453, Note_on_c, 0, 76, 54
2, 411469, Note_on_c, 0, 49, 58
2, 411489, Note_on_c, 0, 82, 53
2, 411489, Note_on_c, 0, 55, 63
2, 411493, Note_on_c, 0, 58, 56
2, 411493, Note_on_c, 0, 85, 77
2, 411501, Control_c, 0, 64, 24
2, 411513, Control_c, 0, 64, 72
2, 411517, Note_on_c, 0, 49, 0
2, 411521, Note_on_c, 0, 76, 0
2, 411525, Note_on_c, 0, 82, 0
2, 411525, Control_c, 0, 64, 127
2, 411541, Note_on_c, 0, 91, 99
2, 411549, Note_on_c, 0, 55, 0
2, 411549, Note_on_c, 0, 64, 67
2, 411557, Note_on_c, 0, 85, 0
2, 411557, Note_on_c, 0, 58, 0
2, 411581, Note_on_c, 0, 91, 0
2, 411589, Note_on_c, 0, 64, 0
2, 411701, Control_c, 0, 64, 88
2, 411713, Control_c, 0, 64, 24
2, 411721, Control_c, 0, 64, 0
2, 411753, Note_on_c, 0, 77, 74
2, 411761, Note_on_c, 0, 50, 63
2, 411773, Note_on_c, 0, 56, 53
2, 411777, Note_on_c, 0, 83, 54
2, 411785, Note_on_c, 0, 59, 56
2, 411785, Note_on_c, 0, 86, 71
2, 411801, Control_c, 0, 64, 56
2, 411805, Note_on_c, 0, 50, 0
2, 411809, Note_on_c, 0, 77, 0
2, 411813, Control_c, 0, 64, 127
2, 411829, Note_on_c, 0, 83, 0
2, 411833, Note_on_c, 0, 92, 102
2, 411833, Note_on_c, 0, 65, 63
2, 411837, Note_on_c, 0, 59, 0
2, 411845, Note_on_c, 0, 56, 0
2, 411849, Note_on_c, 0, 86, 0
2, 411861, Note_on_c, 0, 65, 0
2, 411873, Note_on_c, 0, 92, 0
2, 411981, Control_c, 0, 64, 104
2, 411993, Control_c, 0, 64, 40
2, 412001, Control_c, 0, 64, 0
2, 412025, Note_on_c, 0, 78, 58
2, 412037, Note_on_c, 0, 51, 65
2, 412073, Note_on_c, 0, 57, 54
2, 412073, Note_on_c, 0, 84, 68
2, 412077, Note_on_c, 0, 60, 62
2, 412081, Note_on_c, 0, 51, 0
2, 412081, Note_on_c, 0, 78, 0
2, 412081, Note_on_c, 0, 87, 75
2, 412081, Control_c, 0, 64, 72
2, 412089, Control_c, 0, 64, 127
2, 412105, Note_on_c, 0, 84, 0
2, 412117, Note_on_c, 0, 66, 63
2, 412129, Note_on_c, 0, 60, 0
2, 412129, Note_on_c, 0, 93, 97
2, 412137, Note_on_c, 0, 57, 0
2, 412145, Note_on_c, 0, 87, 0
2, 412149, Note_on_c, 0, 66, 0
2, 412161, Note_on_c, 0, 93, 0
2, 412269, Control_c, 0, 64, 104
2, 412281, Control_c, 0, 64, 24
2, 412289, Control_c, 0, 64, 0
2, 412329, Note_on_c, 0, 52, 63
2, 412337, Note_on_c, 0, 79, 74
2, 412345, Note_on_c, 0, 58, 55
2, 412361, Note_on_c, 0, 88, 64
2, 412365, Note_on_c, 0, 61, 55
2, 412369, Note_on_c, 0, 85, 52
2, 412369, Control_c, 0, 64, 56
2, 412381, Note_on_c, 0, 52, 0
2, 412381, Control_c, 0, 64, 127
2, 412393, Note_on_c, 0, 79, 0
2, 412425, Note_on_c, 0, 58, 0
2, 412425, Note_on_c, 0, 94, 97
2, 412429, Note_on_c, 0, 61, 0
2, 412429, Note_on_c, 0, 67, 55
2, 412433, Note_on_c, 0, 85, 0
2, 412445, Note_on_c, 0, 88, 0
2, 412457, Note_on_c, 0, 67, 0
2, 412465, Note_on_c, 0, 94, 0
2, 412589, Control_c, 0, 64, 40
2, 412601, Control_c, 0, 64, 0
2, 412613, Note_on_c, 0, 53, 61
2, 412621, Note_on_c, 0, 80, 65
2, 412629, Note_on_c, 0, 59, 60
2, 412641, Note_on_c, 0, 62, 60
2, 412653, Note_on_c, 0, 53, 0
2, 412657, Note_on_c, 0, 86, 71
2, 412657, Control_c, 0, 64, 40
2, 412669, Note_on_c, 0, 89, 79
2, 412669, Control_c, 0, 64, 88
2, 412673, Note_on_c, 0, 80, 0
2, 412677, Control_c, 0, 64, 127
2, 412697, Note_on_c, 0, 62, 0
2, 412697, Note_on_c, 0, 68, 68
2, 412705, Note_on_c, 0, 86, 0
2, 412705, Note_on_c, 0, 59, 0
2, 412725, Note_on_c, 0, 95, 103
2, 412733, Note_on_c, 0, 68, 0
2, 412737, Note_on_c, 0, 89, 0
2, 412757, Note_on_c, 0, 95, 0
2, 412869, Control_c, 0, 64, 88
2, 412881, Control_c, 0, 64, 24
2, 412889, Control_c, 0, 64, 0
2, 412905, Note_on_c, 0, 56, 60
2, 412909, Note_on_c, 0, 83, 53
2, 412937, Note_on_c, 0, 62, 61
2, 412941, Note_on_c, 0, 89, 69
2, 412945, Control_c, 0, 64, 24
2, 412957, Note_on_c, 0, 65, 63
2, 412957, Control_c, 0, 64, 88
2, 412961, Note_on_c, 0, 92, 81
2, 412969, Note_on_c, 0, 56, 0
2, 412969, Control_c, 0, 64, 127
2, 412977, Note_on_c, 0, 83, 0
2, 412997, Note_on_c, 0, 89, 0
2, 412997, Note_on_c, 0, 71, 74
2, 413005, Note_on_c, 0, 65, 0
2, 413005, Note_on_c, 0, 98, 97
2, 413009, Note_on_c, 0, 62, 0
2, 413017, Note_on_c, 0, 92, 0
2, 413037, Note_on_c, 0, 71, 0
2, 413037, Note_on_c, 0, 98, 0
2, 413169, Control_c, 0, 64, 88
2, 413181, Control_c, 0, 64, 24
2, 413189, Control_c, 0, 64, 0
2, 413201, Note_on_c, 0, 57, 62
2, 413209, Note_on_c, 0, 84, 68
2, 413233, Note_on_c, 0, 63, 61
2, 413245, Note_on_c, 0, 93, 72
2, 413245, Note_on_c, 0, 90, 53
2, 413249, Note_on_c, 0, 66, 58
2, 413257, Note_on_c, 0, 57, 0
2, 413257, Control_c, 0, 64, 72
2, 413265, Note_on_c, 0, 84, 0
2, 413269, Control_c, 0, 64, 127
2, 413301, Note_on_c, 0, 63, 0
2, 413301, Note_on_c, 0, 66, 0
2, 413301, Note_on_c, 0, 99, 103
2, 413305, Note_on_c, 0, 90, 0
2, 413305, Note_on_c, 0, 72, 67
2, 413313, Note_on_c, 0, 93, 0
2, 413325, Note_on_c, 0, 72, 0
2, 413345, Note_on_c, 0, 99, 0
2, 413469, Control_c, 0, 64, 56
2, 413477, Note_on_c, 0, 85, 60
2, 413481, Control_c, 0, 64, 0
2, 413493, Note_on_c, 0, 58, 54
2, 413509, Note_on_c, 0, 90, 55
2, 413521, Note_on_c, 0, 64, 53
2, 413525, Note_on_c, 0, 90, 0
2, 413533, Note_on_c, 0, 58, 0
2, 413533, Note_on_c, 0, 67, 51
2, 413533, Note_on_c, 0, 91, 62
2, 413533, Control_c, 0, 64, 56
2, 413537, Note_on_c, 0, 94, 71
2, 413541, Note_on_c, 0, 85, 0
2, 413545, Control_c, 0, 64, 127
2, 413577, Note_on_c, 0, 91, 0
2, 413577, Note_on_c, 0, 73, 76
2, 413589, Note_on_c, 0, 67, 0
2, 413593, Note_on_c, 0, 64, 0
2, 413593, Note_on_c, 0, 100, 90
2, 413601, Note_on_c, 0, 94, 0
2, 413625, Note_on_c, 0, 100, 0
2, 413625, Note_on_c, 0, 73, 0
2, 413745, Control_c, 0, 64, 104
2, 413757, Control_c, 0, 64, 40
2, 413769, Control_c, 0, 64, 0
2, 413773, Note_on_c, 0, 59, 53
2, 413785, Note_on_c, 0, 86, 70
2, 413805, Note_on_c, 0, 92, 64
2, 413817, Note_on_c, 0, 95, 63
2, 413817, Note_on_c, 0, 65, 50
2, 413825, Note_on_c, 0, 68, 60
2, 413825, Control_c, 0, 64, 40
2, 413833, Control_c, 0, 64, 104
2, 413837, Note_on_c, 0, 86, 0
2, 413841, Note_on_c, 0, 59, 0
2, 413845, Control_c, 0, 64, 127
2, 413869, Note_on_c, 0, 92, 0
2, 413877, Note_on_c, 0, 65, 0
2, 413877, Note_on_c, 0, 101, 99
2, 413881, Note_on_c, 0, 68, 0
2, 413881, Note_on_c, 0, 74, 67
2, 413889, Note_on_c, 0, 95, 0
2, 413917, Note_on_c, 0, 74, 0
2, 413921, Note_on_c, 0, 101, 0
2, 414045, Control_c, 0, 64, 104
2, 414057, Note_on_c, 0, 62, 64
2, 414057, Control_c, 0, 64, 40
2, 414069, Control_c, 0, 64, 0
2, 414081, Note_on_c, 0, 83, 67
2, 414085, Note_on_c, 0, 68, 55
2, 414097, Note_on_c, 0, 71, 52
2, 414109, Note_on_c, 0, 62, 0
2, 414109, Note_on_c, 0, 89, 70
2, 414113, Control_c, 0, 64, 24
2, 414121, Note_on_c, 0, 92, 85
2, 414121, Control_c, 0, 64, 88
2, 414133, Note_on_c, 0, 83, 0
2, 414133, Control_c, 0, 64, 127
2, 414137, Note_on_c, 0, 77, 71
2, 414149, Note_on_c, 0, 68, 0
2, 414153, Note_on_c, 0, 71, 0
2, 414157, Note_on_c, 0, 89, 0
2, 414161, Note_on_c, 0, 98, 96
2, 414169, Note_on_c, 0, 77, 0
2, 414173, Note_on_c, 0, 92, 0
2, 414201, Note_on_c, 0, 98, 0
2, 414341, Note_on_c, 0, 60, 65
2, 414341, Note_on_c, 0, 69, 52
2, 414341, Control_c, 0, 64, 72
2, 414349, Control_c, 0, 64, 0
2, 414377, Note_on_c, 0, 69, 0
2, 414377, Note_on_c, 0, 60, 0
2, 414377, Note_on_c, 0, 72, 76
2, 414405, Control_c, 0, 64, 56
2, 414417, Control_c, 0, 64, 127
2, 414425, Note_on_c, 0, 72, 0
2, 414429, Note_on_c, 0, 96, 93
2, 414441, Note_on_c, 0, 93, 85
2, 414457, Note_on_c, 0, 77, 73
2, 414477, Note_on_c, 0, 77, 0
2, 414525, Note_on_c, 0, 89, 87
2, 414585, Note_on_c, 0, 96, 0
2, 414609, Note_on_c, 0, 93, 0
2, 414613, Note_on_c, 0, 89, 0
2, 414613, Note_on_c, 0, 84, 80
2, 414653, Note_on_c, 0, 84, 0
2, 414713, Note_on_c, 0, 84, 76
2, 414725, Note_on_c, 0, 81, 62
2, 414761, Note_on_c, 0, 81, 0
2, 414777, Note_on_c, 0, 84, 0
2, 414817, Note_on_c, 0, 77, 71
2, 414865, Note_on_c, 0, 77, 0
2, 414893, Note_on_c, 0, 72, 78
2, 414965, Note_on_c, 0, 72, 0
2, 414981, Control_c, 0, 64, 88
2, 414993, Control_c, 0, 64, 24
2, 414997, Note_on_c, 0, 73, 76
2, 414997, Note_on_c, 0, 66, 68
2, 415001, Note_on_c, 0, 69, 75
2, 415005, Control_c, 0, 64, 0
2, 415009, Note_on_c, 0, 60, 58
2, 415053, Note_on_c, 0, 66, 0
2, 415053, Note_on_c, 0, 73, 0
2, 415061, Control_c, 0, 64, 40
2, 415069, Control_c, 0, 64, 88
2, 415081, Control_c, 0, 64, 127
2, 415089, Note_on_c, 0, 74, 93
2, 415149, Note_on_c, 0, 74, 0
2, 415153, Note_on_c, 0, 69, 0
2, 415173, Note_on_c, 0, 86, 89
2, 415237, Note_on_c, 0, 86, 0
2, 415281, Note_on_c, 0, 86, 79
2, 415281, Control_c, 0, 64, 88
2, 415285, Note_on_c, 0, 82, 77
2, 415293, Control_c, 0, 64, 24
2, 415297, Note_on_c, 0, 70, 84
2, 415297, Note_on_c, 0, 67, 74
2, 415305, Control_c, 0, 64, 0
2, 415361, Control_c, 0, 64, 40
2, 415373, Note_on_c, 0, 67, 0
2, 415373, Control_c, 0, 64, 104
2, 415385, Note_on_c, 0, 70, 0
2, 415385, Note_on_c, 0, 79, 78
2, 415385, Control_c, 0, 64, 127
2, 415413, Note_on_c, 0, 60, 0
2, 415433, Note_on_c, 0, 86, 0
2, 415457, Note_on_c, 0, 82, 0
2, 415457, Note_on_c, 0, 79, 0
2, 415465, Note_on_c, 0, 74, 79
2, 415497, Note_on_c, 0, 74, 0
2, 415573, Note_on_c, 0, 74, 59
2, 415577, Note_on_c, 0, 48, 71
2, 415597, Note_on_c, 0, 74, 0
2, 415665, Note_on_c, 0, 67, 79
2, 415709, Note_on_c, 0, 67, 0
2, 415745, Note_on_c, 0, 62, 83
2, 415813, Note_on_c, 0, 62, 0
2, 415845, Note_on_c, 0, 63, 70
2, 415853, Note_on_c, 0, 58, 64
2, 415857, Note_on_c, 0, 55, 70
2, 415857, Note_on_c, 0, 62, 68
2, 415889, Note_on_c, 0, 62, 0
2, 415893, Note_on_c, 0, 63, 0
2, 415909, Note_on_c, 0, 55, 0
2, 415937, Note_on_c, 0, 64, 88
2, 415969, Note_on_c, 0, 58, 0
2, 416001, Note_on_c, 0, 64, 0
2, 416025, Note_on_c, 0, 76, 84
2, 416081, Note_on_c, 0, 76, 0
2, 416113, Control_c, 0, 64, 88
2, 416125, Control_c, 0, 64, 0
2, 416129, Note_on_c, 0, 76, 82
2, 416137, Note_on_c, 0, 72, 86
2, 416137, Note_on_c, 0, 60, 82
2, 416145, Note_on_c, 0, 57, 66
2, 416217, Control_c, 0, 64, 56
2, 416221, Note_on_c, 0, 57, 0
2, 416225, Note_on_c, 0, 69, 78
2, 416225, Control_c, 0, 64, 104
2, 416233, Note_on_c, 0, 60, 0
2, 416237, Control_c, 0, 64, 127
2, 416265, Note_on_c, 0, 48, 0
2, 416273, Note_on_c, 0, 76, 0
2, 416281, Note_on_c, 0, 72, 0
2, 416301, Note_on_c, 0, 69, 0
2, 416305, Note_on_c, 0, 64, 75
2, 416337, Note_on_c, 0, 64, 0
2, 416409, Note_on_c, 0, 64, 82
2, 416417, Note_on_c, 0, 60, 73
2, 416437, Note_on_c, 0, 36, 56
2, 416453, Note_on_c, 0, 64, 0
2, 416465, Note_on_c, 0, 60, 0
2, 416509, Note_on_c, 0, 57, 78
2, 416561, Note_on_c, 0, 57, 0
2, 416593, Note_on_c, 0, 52, 81
2, 416653, Note_on_c, 0, 52, 0
2, 416669, Control_c, 0, 64, 72
2, 416681, Control_c, 0, 64, 0
2, 416693, Note_on_c, 0, 52, 74
2, 416709, Note_on_c, 0, 48, 73
2, 416717, Note_on_c, 0, 45, 63
2, 416741, Note_on_c, 0, 52, 0
2, 416761, Control_c, 0, 64, 56
2, 416769, Control_c, 0, 64, 104
2, 416781, Control_c, 0, 64, 127
2, 416793, Note_on_c, 0, 53, 86
2, 416833, Note_on_c, 0, 45, 0
2, 416849, Note_on_c, 0, 53, 0
2, 416857, Note_on_c, 0, 48, 0
2, 416889, Note_on_c, 0, 65, 75
2, 416953, Note_on_c, 0, 65, 0
2, 416969, Control_c, 0, 64, 88
2, 416981, Control_c, 0, 64, 24
2, 416993, Control_c, 0, 64, 0
2, 416997, Note_on_c, 0, 57, 86
2, 417009, Note_on_c, 0, 46, 59
2, 417017, Note_on_c, 0, 50, 56
2, 417041, Note_on_c, 0, 36, 0
2, 417049, Control_c, 0, 64, 40
2, 417061, Control_c, 0, 64, 88
2, 417069, Control_c, 0, 64, 127
2, 417077, Note_on_c, 0, 57, 0
2, 417101, Note_on_c, 0, 55, 85
2, 417133, Note_on_c, 0, 46, 0
2, 417161, Note_on_c, 0, 50, 0
2, 417165, Note_on_c, 0, 55, 0
2, 417193, Note_on_c, 0, 67, 84
2, 417261, Note_on_c, 0, 67, 0
2, 417281, Note_on_c, 0, 58, 83
2, 417281, Control_c, 0, 64, 72
2, 417293, Control_c, 0, 64, 24
2, 417301, Note_on_c, 0, 52, 68
2, 417305, Control_c, 0, 64, 0
2, 417309, Note_on_c, 0, 48, 66
2, 417313, Control_c, 0, 64, 24
2, 417325, Control_c, 0, 64, 56
2, 417329, Note_on_c, 0, 48, 0
2, 417337, Control_c, 0, 64, 88
2, 417349, Control_c, 0, 64, 127
2, 417357, Note_on_c, 0, 52, 0
2, 417361, Note_on_c, 0, 58, 0
2, 417381, Note_on_c, 0, 57, 82
2, 417445, Note_on_c, 0, 57, 0
2, 417473, Note_on_c, 0, 69, 88
2, 417537, Control_c, 0, 64, 104
2, 417541, Note_on_c, 0, 69, 0
2, 417549, Control_c, 0, 64, 56
2, 417557, Note_on_c, 0, 60, 93
2, 417557, Control_c, 0, 64, 0
2, 417581, Note_on_c, 0, 53, 74
2, 417585, Note_on_c, 0, 50, 67
2, 417605, Control_c, 0, 64, 24
2, 417609, Note_on_c, 0, 50, 0
2, 417613, Control_c, 0, 64, 72
2, 417625, Control_c, 0, 64, 127
2, 417629, Note_on_c, 0, 53, 0
2, 417645, Note_on_c, 0, 60, 0
2, 417661, Note_on_c, 0, 58, 81
2, 417733, Note_on_c, 0, 58, 0
2, 417757, Note_on_c, 0, 70, 77
2, 417793, Note_on_c, 0, 70, 0
2, 417857, Control_c, 0, 64, 88
2, 417869, Control_c, 0, 64, 24
2, 417881, Control_c, 0, 64, 0
2, 417885, Note_on_c, 0, 69, 99
2, 417885, Note_on_c, 0, 72, 90
2, 417893, Note_on_c, 0, 60, 71
2, 417897, Note_on_c, 0, 48, 69
2, 417937, Note_on_c, 0, 72, 0
2, 417937, Note_on_c, 0, 69, 0
2, 417941, Note_on_c, 0, 60, 0
2, 417957, Note_on_c, 0, 64, 78
2, 417957, Control_c, 0, 64, 72
2, 417969, Control_c, 0, 64, 127
2, 417973, Note_on_c, 0, 67, 80
2, 417981, Note_on_c, 0, 58, 58
2, 418009, Note_on_c, 0, 64, 0
2, 418025, Note_on_c, 0, 58, 0
2, 418029, Note_on_c, 0, 67, 0
2, 418029, Note_on_c, 0, 72, 93
2, 418037, Note_on_c, 0, 69, 81
2, 418041, Note_on_c, 0, 60, 62
2, 418081, Note_on_c, 0, 60, 0
2, 418089, Note_on_c, 0, 72, 0
2, 418093, Note_on_c, 0, 69, 0
2, 418101, Note_on_c, 0, 64, 82
2, 418109, Note_on_c, 0, 67, 76
2, 418117, Note_on_c, 0, 58, 54
2, 418137, Note_on_c, 0, 58, 0
2, 418157, Note_on_c, 0, 64, 0
2, 418173, Note_on_c, 0, 67, 0
2, 418173, Note_on_c, 0, 69, 82
2, 418173, Note_on_c, 0, 72, 84
2, 418185, Note_on_c, 0, 60, 55
2, 418233, Note_on_c, 0, 60, 0
2, 418233, Note_on_c, 0, 72, 0
2, 418233, Note_on_c, 0, 69, 0
2, 418245, Note_on_c, 0, 64, 82
2, 418245, Note_on_c, 0, 58, 62
2, 418249, Note_on_c, 0, 67, 74
2, 418289, Note_on_c, 0, 58, 0
2, 418305, Note_on_c, 0, 64, 0
2, 418313, Note_on_c, 0, 69, 83
2, 418313, Note_on_c, 0, 72, 85
2, 418321, Note_on_c, 0, 67, 0
2, 418321, Note_on_c, 0, 60, 59
2, 418377, Note_on_c, 0, 60, 0
2, 418381, Note_on_c, 0, 69, 0
2, 418381, Note_on_c, 0, 64, 83
2, 418385, Note_on_c, 0, 72, 0
2, 418393, Note_on_c, 0, 58, 60
2, 418393, Note_on_c, 0, 67, 77
2, 418441, Note_on_c, 0, 64, 0
2, 418445, Note_on_c, 0, 58, 0
2, 418453, Note_on_c, 0, 72, 89
2, 418453, Note_on_c, 0, 69, 83
2, 418457, Note_on_c, 0, 67, 0
2, 418465, Note_on_c, 0, 60, 68
2, 418513, Note_on_c, 0, 69, 0
2, 418521, Note_on_c, 0, 72, 0
2, 418521, Note_on_c, 0, 64, 84
2, 418529, Note_on_c, 0, 67, 76
2, 418537, Note_on_c, 0, 60, 0
2, 418553, Note_on_c, 0, 58, 64
2, 418577, Note_on_c, 0, 64, 0
2, 418593, Note_on_c, 0, 69, 82
2, 418597, Note_on_c, 0, 67, 0
2, 418597, Note_on_c, 0, 72, 79
2, 418605, Note_on_c, 0, 58, 0
2, 418641, Note_on_c, 0, 60, 59
2, 418657, Note_on_c, 0, 69, 0
2, 418661, Note_on_c, 0, 64, 80
2, 418669, Note_on_c, 0, 67, 72
2, 418681, Note_on_c, 0, 48, 0
2, 418685, Note_on_c, 0, 58, 46
2, 418701, Note_on_c, 0, 64, 0
2, 418705, Note_on_c, 0, 58, 0
2, 418709, Note_on_c, 0, 60, 0
2, 418717, Note_on_c, 0, 67, 0
2, 418725, Note_on_c, 0, 72, 0
2, 418785, Note_on_c, 0, 81, 99
2, 418789, Note_on_c, 0, 84, 93
2, 418789, Control_c, 0, 64, 0
2, 418797, Note_on_c, 0, 72, 79
2, 418805, Note_on_c, 0, 60, 73
2, 418833, Note_on_c, 0, 81, 0
2, 418849, Note_on_c, 0, 84, 0
2, 418865, Note_on_c, 0, 76, 85
2, 418865, Control_c, 0, 64, 56
2, 418869, Note_on_c, 0, 79, 88
2, 418873, Note_on_c, 0, 72, 0
2, 418877, Control_c, 0, 64, 127
2, 418889, Note_on_c, 0, 70, 67
2, 418909, Note_on_c, 0, 76, 0
2, 418937, Note_on_c, 0, 79, 0
2, 418937, Note_on_c, 0, 84, 86
2, 418945, Note_on_c, 0, 70, 0
2, 418945, Note_on_c, 0, 81, 82
2, 418953, Note_on_c, 0, 72, 67
2, 419005, Note_on_c, 0, 81, 0
2, 419009, Note_on_c, 0, 72, 0
2, 419013, Note_on_c, 0, 76, 88
2, 419017, Note_on_c, 0, 84, 0
2, 419017, Note_on_c, 0, 79, 84
2, 419021, Note_on_c, 0, 70, 64
2, 419065, Note_on_c, 0, 70, 0
2, 419073, Note_on_c, 0, 76, 0
2, 419077, Note_on_c, 0, 81, 81
2, 419081, Note_on_c, 0, 79, 0
2, 419081, Note_on_c, 0, 84, 82
2, 419089, Note_on_c, 0, 72, 63
2, 419145, Note_on_c, 0, 72, 0
2, 419149, Note_on_c, 0, 81, 0
2, 419149, Note_on_c, 0, 76, 89
2, 419153, Note_on_c, 0, 70, 72
2, 419153, Note_on_c, 0, 79, 86
2, 419161, Note_on_c, 0, 84, 0
2, 419193, Note_on_c, 0, 70, 0
2, 419213, Note_on_c, 0, 76, 0
2, 419217, Note_on_c, 0, 81, 82
2, 419217, Note_on_c, 0, 84, 76
2, 419225, Note_on_c, 0, 79, 0
2, 419229, Note_on_c, 0, 72, 66
2, 419285, Note_on_c, 0, 72, 0
2, 419285, Note_on_c, 0, 81, 0
2, 419285, Note_on_c, 0, 76, 89
2, 419293, Note_on_c, 0, 84, 0
2, 419293, Note_on_c, 0, 70, 73
2, 419293, Note_on_c, 0, 79, 83
2, 419337, Note_on_c, 0, 70, 0
2, 419361, Note_on_c, 0, 76, 0
2, 419361, Note_on_c, 0, 84, 84
2, 419361, Note_on_c, 0, 81, 82
2, 419365, Note_on_c, 0, 79, 0
2, 419365, Note_on_c, 0, 72, 70
2, 419425, Note_on_c, 0, 72, 0
2, 419429, Note_on_c, 0, 76, 92
2, 419433, Note_on_c, 0, 81, 0
2, 419433, Note_on_c, 0, 84, 0
2, 419433, Note_on_c, 0, 79, 86
2, 419433, Note_on_c, 0, 70, 75
2, 419489, Note_on_c, 0, 70, 0
2, 419497, Note_on_c, 0, 76, 0
2, 419497, Note_on_c, 0, 81, 75
2, 419501, Note_on_c, 0, 84, 84
2, 419509, Note_on_c, 0, 79, 0
2, 419513, Note_on_c, 0, 72, 73
2, 419569, Note_on_c, 0, 76, 88
2, 419573, Note_on_c, 0, 81, 0
2, 419573, Note_on_c, 0, 79, 85
2, 419577, Note_on_c, 0, 72, 0
2, 419578, Note_on_c, 0, 60, 90
2, 419581, Note_on_c, 0, 84, 0
2, 419628, Control_c, 0, 64, 72
2, 419629, Note_on_c, 0, 64, 80
2, 419634, Note_on_c, 0, 60, 0
2, 419640, Control_c, 0, 64, 127
2, 419645, Note_on_c, 0, 76, 0
2, 419649, Note_on_c, 0, 70, 80
2, 419669, Note_on_c, 0, 72, 80
2, 419673, Note_on_c, 0, 79, 0
2, 419685, Note_on_c, 0, 64, 0
2, 419689, Note_on_c, 0, 76, 80
2, 419705, Note_on_c, 0, 70, 0
2, 419709, Note_on_c, 0, 79, 80
2, 419721, Note_on_c, 0, 60, 0
2, 419725, Note_on_c, 0, 72, 0
2, 419729, Note_on_c, 0, 84, 80
2, 419745, Note_on_c, 0, 76, 0
2, 419749, Note_on_c, 0, 88, 100
2, 419765, Note_on_c, 0, 79, 0
2, 419785, Note_on_c, 0, 84, 0
2, 419805, Note_on_c, 0, 88, 0
2, 420097, Control_c, 0, 64, 0
2, 423328, Note_on_c, 0, 77, 39
2, 423332, Control_c, 0, 64, 40
2, 423340, Note_on_c, 0, 84, 63
2, 423340, Note_on_c, 0, 41, 43
2, 423348, Control_c, 0, 64, 89
2, 423364, Control_c, 0, 64, 127
2, 423396, Note_on_c, 0, 77, 0
2, 423404, Note_on_c, 0, 41, 0
2, 423456, Note_on_c, 0, 88, 70
2, 423512, Note_on_c, 0, 84, 0
2, 423548, Note_on_c, 0, 89, 77
2, 423568, Note_on_c, 0, 88, 0
2, 423608, Note_on_c, 0, 89, 0
2, 423672, Note_on_c, 0, 96, 81
2, 423684, Note_on_c, 0, 69, 47
2, 423700, Note_on_c, 0, 60, 39
2, 423720, Note_on_c, 0, 96, 0
2, 423732, Note_on_c, 0, 69, 0
2, 423740, Note_on_c, 0, 60, 0
2, 424020, Note_on_c, 0, 60, 46
2, 424028, Note_on_c, 0, 69, 29
2, 424060, Note_on_c, 0, 69, 0
2, 424084, Note_on_c, 0, 60, 0
2, 424296, Control_c, 0, 64, 72
2, 424308, Control_c, 0, 64, 24
2, 424324, Control_c, 0, 64, 0
2, 424332, Note_on_c, 0, 96, 78
2, 424340, Note_on_c, 0, 91, 66
2, 424344, Note_on_c, 0, 53, 45
2, 424400, Control_c, 0, 64, 72
2, 424416, Note_on_c, 0, 53, 0
2, 424416, Control_c, 0, 64, 127
2, 424460, Note_on_c, 0, 91, 0
2, 424488, Note_on_c, 0, 96, 0
2, 424576, Note_on_c, 0, 89, 74
2, 424660, Note_on_c, 0, 69, 36
2, 424664, Note_on_c, 0, 89, 0
2, 424664, Note_on_c, 0, 60, 40
2, 424668, Note_on_c, 0, 91, 72
2, 424720, Note_on_c, 0, 60, 0
2, 424720, Note_on_c, 0, 69, 0
2, 424760, Note_on_c, 0, 89, 72
2, 424780, Note_on_c, 0, 91, 0
2, 424852, Note_on_c, 0, 89, 0
2, 424864, Note_on_c, 0, 84, 75
2, 424920, Note_on_c, 0, 84, 0
2, 424992, Note_on_c, 0, 77, 74
2, 425008, Note_on_c, 0, 69, 38
2, 425012, Note_on_c, 0, 60, 33
2, 425024, Note_on_c, 0, 77, 0
2, 425036, Note_on_c, 0, 69, 0
2, 425064, Note_on_c, 0, 60, 0
2, 425240, Control_c, 0, 64, 88
2, 425256, Control_c, 0, 64, 40
2, 425272, Control_c, 0, 64, 0
2, 425288, Note_on_c, 0, 84, 78
2, 425288, Note_on_c, 0, 77, 50
2, 425320, Note_on_c, 0, 53, 42
2, 425348, Control_c, 0, 64, 40
2, 425364, Note_on_c, 0, 77, 0
2, 425364, Control_c, 0, 64, 127
2, 425396, Note_on_c, 0, 53, 0
2, 425396, Note_on_c, 0, 88, 74
2, 425424, Note_on_c, 0, 84, 0
2, 425484, Note_on_c, 0, 89, 77
2, 425508, Note_on_c, 0, 88, 0
2, 425540, Note_on_c, 0, 89, 0
2, 425600, Note_on_c, 0, 69, 37
2, 425620, Note_on_c, 0, 60, 41
2, 425620, Note_on_c, 0, 96, 73
2, 425652, Note_on_c, 0, 96, 0
2, 425668, Note_on_c, 0, 60, 0
2, 425692, Note_on_c, 0, 69, 0
2, 425956, Note_on_c, 0, 69, 34
2, 425960, Note_on_c, 0, 60, 40
2, 426012, Note_on_c, 0, 69, 0
2, 426056, Note_on_c, 0, 60, 0
2, 426216, Control_c, 0, 64, 104
2, 426232, Control_c, 0, 64, 56
2, 426244, Control_c, 0, 64, 0
2, 426260, Note_on_c, 0, 96, 84
2, 426264, Note_on_c, 0, 91, 78
2, 426280, Note_on_c, 0, 53, 56
2, 426324, Note_on_c, 0, 53, 0
2, 426324, Control_c, 0, 64, 24
2, 426340, Control_c, 0, 64, 104
2, 426356, Control_c, 0, 64, 127
2, 426396, Note_on_c, 0, 96, 0
2, 426412, Note_on_c, 0, 91, 0
2, 426484, Note_on_c, 0, 89, 76
2, 426556, Note_on_c, 0, 89, 0
2, 426572, Note_on_c, 0, 69, 30
2, 426572, Note_on_c, 0, 91, 73
2, 426588, Note_on_c, 0, 60, 36
2, 426628, Note_on_c, 0, 69, 0
2, 426632, Note_on_c, 0, 60, 0
2, 426664, Note_on_c, 0, 89, 74
2, 426708, Note_on_c, 0, 91, 0
2, 426752, Note_on_c, 0, 89, 0
2, 426768, Note_on_c, 0, 84, 71
2, 426832, Note_on_c, 0, 84, 0
2, 426896, Note_on_c, 0, 77, 74
2, 426896, Note_on_c, 0, 69, 32
2, 426908, Note_on_c, 0, 60, 41
2, 426940, Note_on_c, 0, 69, 0
2, 426952, Note_on_c, 0, 77, 0
2, 426960, Note_on_c, 0, 60, 0
2, 427144, Control_c, 0, 64, 88
2, 427160, Control_c, 0, 64, 40
2, 427176, Control_c, 0, 64, 0
2, 427200, Note_on_c, 0, 84, 74
2, 427212, Note_on_c, 0, 77, 54
2, 427224, Note_on_c, 0, 53, 57
2, 427252, Control_c, 0, 64, 56
2, 427256, Note_on_c, 0, 77, 0
2, 427268, Control_c, 0, 64, 127
2, 427284, Note_on_c, 0, 53, 0
2, 427316, Note_on_c, 0, 88, 77
2, 427348, Note_on_c, 0, 84, 0
2, 427404, Note_on_c, 0, 89, 79
2, 427432, Note_on_c, 0, 88, 0
2, 427452, Note_on_c, 0, 89, 0
2, 427516, Note_on_c, 0, 69, 37
2, 427540, Note_on_c, 0, 60, 33
2, 427544, Note_on_c, 0, 96, 83
2, 427592, Note_on_c, 0, 96, 0
2, 427596, Note_on_c, 0, 60, 0
2, 427600, Note_on_c, 0, 69, 0
2, 427864, Note_on_c, 0, 69, 48
2, 427876, Note_on_c, 0, 60, 40
2, 427916, Note_on_c, 0, 69, 0
2, 427956, Note_on_c, 0, 60, 0
2, 428152, Control_c, 0, 64, 72
2, 428160, Note_on_c, 0, 91, 78
2, 428164, Note_on_c, 0, 96, 86
2, 428168, Control_c, 0, 64, 24
2, 428184, Note_on_c, 0, 53, 49
2, 428184, Control_c, 0, 64, 0
2, 428260, Control_c, 0, 64, 88
2, 428272, Note_on_c, 0, 53, 0
2, 428276, Control_c, 0, 64, 127
2, 428332, Note_on_c, 0, 96, 0
2, 428340, Note_on_c, 0, 91, 0
2, 428396, Note_on_c, 0, 89, 77
2, 428476, Note_on_c, 0, 69, 39
2, 428480, Note_on_c, 0, 89, 0
2, 428484, Note_on_c, 0, 91, 79
2, 428496, Note_on_c, 0, 60, 30
2, 428548, Note_on_c, 0, 60, 0
2, 428548, Note_on_c, 0, 69, 0
2, 428560, Note_on_c, 0, 89, 70
2, 428584, Note_on_c, 0, 91, 0
2, 428644, Note_on_c, 0, 89, 0
2, 428648, Note_on_c, 0, 84, 76
2, 428708, Note_on_c, 0, 84, 0
2, 428780, Note_on_c, 0, 101, 94
2, 428796, Note_on_c, 0, 69, 39
2, 428804, Note_on_c, 0, 60, 40
2, 428840, Note_on_c, 0, 101, 0
2, 428844, Note_on_c, 0, 69, 0
2, 428864, Note_on_c, 0, 60, 0
2, 429084, Control_c, 0, 64, 88
2, 429096, Control_c, 0, 64, 40
2, 429108, Note_on_c, 0, 96, 82
2, 429112, Control_c, 0, 64, 0
2, 429116, Note_on_c, 0, 91, 75
2, 429124, Note_on_c, 0, 53, 49
2, 429204, Control_c, 0, 64, 72
2, 429220, Note_on_c, 0, 53, 0
2, 429220, Control_c, 0, 64, 127
2, 429256, Note_on_c, 0, 91, 0
2, 429260, Note_on_c, 0, 96, 0
2, 429336, Note_on_c, 0, 89, 74
2, 429416, Note_on_c, 0, 89, 0
2, 429420, Note_on_c, 0, 91, 70
2, 429444, Note_on_c, 0, 69, 40
2, 429460, Note_on_c, 0, 60, 45
2, 429516, Note_on_c, 0, 60, 0
2, 429520, Note_on_c, 0, 89, 72
2, 429524, Note_on_c, 0, 91, 0
2, 429528, Note_on_c, 0, 69, 0
2, 429596, Note_on_c, 0, 89, 0
2, 429616, Note_on_c, 0, 84, 68
2, 429680, Note_on_c, 0, 84, 0
2, 429744, Note_on_c, 0, 101, 87
2, 429756, Note_on_c, 0, 69, 36
2, 429760, Note_on_c, 0, 60, 41
2, 429796, Note_on_c, 0, 101, 0
2, 429800, Note_on_c, 0, 69, 0
2, 429812, Note_on_c, 0, 60, 0
2, 430088, Note_on_c, 0, 96, 73
2, 430096, Note_on_c, 0, 91, 68
2, 430100, Note_on_c, 0, 53, 44
2, 430104, Control_c, 0, 64, 72
2, 430120, Control_c, 0, 64, 0
2, 430196, Note_on_c, 0, 53, 0
2, 430204, Note_on_c, 0, 96, 0
2, 430208, Note_on_c, 0, 91, 0
2, 430212, Control_c, 0, 64, 104
2, 430228, Control_c, 0, 64, 127
2, 430320, Note_on_c, 0, 89, 70
2, 430408, Note_on_c, 0, 89, 0
2, 430432, Note_on_c, 0, 91, 70
2, 430452, Note_on_c, 0, 69, 41
2, 430472, Note_on_c, 0, 60, 32
2, 430528, Note_on_c, 0, 60, 0
2, 430532, Note_on_c, 0, 89, 68
2, 430536, Note_on_c, 0, 69, 0
2, 430536, Note_on_c, 0, 91, 0
2, 430636, Note_on_c, 0, 89, 0
2, 430656, Note_on_c, 0, 84, 68
2, 430712, Note_on_c, 0, 84, 0
2, 430800, Note_on_c, 0, 101, 82
2, 430828, Note_on_c, 0, 69, 31
2, 430832, Note_on_c, 0, 60, 36
2, 430848, Note_on_c, 0, 101, 0
2, 430872, Note_on_c, 0, 60, 0
2, 430876, Note_on_c, 0, 69, 0
2, 431120, Note_on_c, 0, 65, 49
2, 431136, Control_c, 0, 64, 72
2, 431148, Note_on_c, 0, 72, 66
2, 431148, Control_c, 0, 64, 104
2, 431156, Note_on_c, 0, 65, 0
2, 431156, Control_c, 0, 64, 127
2, 431204, Note_on_c, 0, 72, 0
2, 431212, Note_on_c, 0, 96, 93
2, 431228, Note_on_c, 0, 81, 57
2, 431248, Note_on_c, 0, 81, 0
2, 431296, Note_on_c, 0, 96, 0
2, 431320, Note_on_c, 0, 98, 89
2, 431384, Note_on_c, 0, 98, 0
2, 431412, Note_on_c, 0, 96, 86
2, 431488, Note_on_c, 0, 96, 0
2, 431516, Note_on_c, 0, 93, 86
2, 431552, Control_c, 0, 64, 104
2, 431588, Note_on_c, 0, 93, 0
2, 431608, Note_on_c, 0, 89, 79
2, 431612, Control_c, 0, 64, 88
2, 431672, Note_on_c, 0, 89, 0
2, 431700, Note_on_c, 0, 92, 90
2, 431728, Control_c, 0, 64, 72
2, 431772, Note_on_c, 0, 92, 0
2, 431776, Control_c, 0, 64, 56
2, 431808, Note_on_c, 0, 93, 96
2, 431844, Control_c, 0, 64, 40
2, 431872, Note_on_c, 0, 93, 0
2, 431896, Note_on_c, 0, 84, 81
2, 431900, Control_c, 0, 64, 24
2, 431960, Note_on_c, 0, 84, 0
2, 431972, Control_c, 0, 64, 0
2, 431988, Note_on_c, 0, 88, 81
2, 432076, Note_on_c, 0, 88, 0
2, 432088, Note_on_c, 0, 89, 92
2, 432156, Note_on_c, 0, 89, 0
2, 432176, Note_on_c, 0, 81, 82
2, 432192, Note_on_c, 0, 69, 72
2, 432252, Note_on_c, 0, 81, 0
2, 432260, Note_on_c, 0, 69, 0
2, 432260, Note_on_c, 0, 83, 90
2, 432264, Note_on_c, 0, 71, 78
2, 432340, Note_on_c, 0, 71, 0
2, 432360, Note_on_c, 0, 83, 0
2, 432360, Note_on_c, 0, 72, 78
2, 432364, Note_on_c, 0, 84, 90
2, 432428, Note_on_c, 0, 72, 0
2, 432440, Note_on_c, 0, 84, 0
2, 432444, Note_on_c, 0, 77, 84
2, 432452, Note_on_c, 0, 65, 68
2, 432536, Note_on_c, 0, 80, 85
2, 432544, Note_on_c, 0, 65, 0
2, 432544, Note_on_c, 0, 77, 0
2, 432544, Note_on_c, 0, 68, 62
2, 432608, Note_on_c, 0, 68, 0
2, 432632, Note_on_c, 0, 69, 71
2, 432636, Note_on_c, 0, 80, 0
2, 432636, Note_on_c, 0, 81, 92
2, 432692, Note_on_c, 0, 69, 0
2, 432708, Note_on_c, 0, 81, 0
2, 432720, Note_on_c, 0, 72, 86
2, 432720, Note_on_c, 0, 60, 76
2, 432788, Note_on_c, 0, 72, 0
2, 432800, Note_on_c, 0, 60, 0
2, 432804, Note_on_c, 0, 64, 78
2, 432808, Note_on_c, 0, 76, 94
2, 432876, Note_on_c, 0, 64, 0
2, 432900, Note_on_c, 0, 65, 65
2, 432904, Note_on_c, 0, 77, 97
2, 432908, Note_on_c, 0, 76, 0
2, 432960, Note_on_c, 0, 65, 0
2, 432968, Note_on_c, 0, 77, 0
2, 432988, Note_on_c, 0, 69, 83
2, 432992, Note_on_c, 0, 57, 65
2, 433052, Note_on_c, 0, 69, 0
2, 433076, Note_on_c, 0, 71, 87
2, 433080, Note_on_c, 0, 57, 0
2, 433080, Note_on_c, 0, 59, 73
2, 433148, Note_on_c, 0, 59, 0
2, 433168, Note_on_c, 0, 71, 0
2, 433168, Note_on_c, 0, 72, 90
2, 433176, Note_on_c, 0, 60, 69
2, 433232, Note_on_c, 0, 60, 0
2, 433232, Note_on_c, 0, 72, 0
2, 433252, Note_on_c, 0, 65, 82
2, 433256, Note_on_c, 0, 53, 80
2, 433340, Note_on_c, 0, 53, 0
2, 433340, Note_on_c, 0, 65, 0
2, 433340, Note_on_c, 0, 68, 81
2, 433340, Note_on_c, 0, 56, 67
2, 433416, Note_on_c, 0, 56, 0
2, 433432, Note_on_c, 0, 68, 0
2, 433436, Note_on_c, 0, 69, 96
2, 433440, Note_on_c, 0, 57, 63
2, 433500, Note_on_c, 0, 57, 0
2, 433500, Note_on_c, 0, 69, 0
2, 433524, Note_on_c, 0, 60, 82
2, 433528, Note_on_c, 0, 48, 75
2, 433608, Note_on_c, 0, 48, 0
2, 433612, Note_on_c, 0, 64, 90
2, 433616, Note_on_c, 0, 52, 74
2, 433640, Note_on_c, 0, 60, 0
2, 433684, Note_on_c, 0, 52, 0
2, 433708, Note_on_c, 0, 53, 67
2, 433712, Note_on_c, 0, 65, 96
2, 433716, Note_on_c, 0, 64, 0
2, 433756, Note_on_c, 0, 53, 0
2, 433772, Note_on_c, 0, 65, 0
2, 433796, Note_on_c, 0, 57, 79
2, 433808, Note_on_c, 0, 45, 59
2, 433864, Note_on_c, 0, 57, 0
2, 433872, Note_on_c, 0, 45, 0
2, 433884, Note_on_c, 0, 59, 89
2, 433888, Note_on_c, 0, 47, 74
2, 433952, Note_on_c, 0, 47, 0
2, 433984, Note_on_c, 0, 59, 0
2, 433984, Note_on_c, 0, 60, 97
2, 433984, Note_on_c, 0, 48, 69
2, 434044, Note_on_c, 0, 48, 0
2, 434044, Note_on_c, 0, 60, 0
2, 434068, Note_on_c, 0, 53, 84
2, 434072, Note_on_c, 0, 41, 70
2, 434148, Note_on_c, 0, 53, 0
2, 434152, Note_on_c, 0, 41, 0
2, 434156, Note_on_c, 0, 56, 80
2, 434156, Note_on_c, 0, 44, 72
2, 434220, Note_on_c, 0, 44, 0
2, 434236, Note_on_c, 0, 56, 0
2, 434252, Note_on_c, 0, 45, 74
2, 434256, Note_on_c, 0, 57, 88
2, 434312, Note_on_c, 0, 45, 0
2, 434316, Note_on_c, 0, 57, 0
2, 434348, Note_on_c, 0, 48, 90
2, 434352, Note_on_c, 0, 36, 65
2, 434416, Note_on_c, 0, 48, 0
2, 434436, Note_on_c, 0, 36, 0
2, 434436, Note_on_c, 0, 52, 94
2, 434436, Note_on_c, 0, 40, 73
2, 434528, Note_on_c, 0, 40, 0
2, 434528, Note_on_c, 0, 41, 68
2, 434532, Note_on_c, 0, 53, 93
2, 434552, Note_on_c, 0, 41, 0
2, 434556, Note_on_c, 0, 52, 0
2, 434576, Note_on_c, 0, 53, 0
2, 434616, Note_on_c, 0, 53, 89
2, 434620, Note_on_c, 0, 41, 80
2, 434676, Note_on_c, 0, 53, 0
2, 434712, Note_on_c, 0, 56, 87
2, 434712, Note_on_c, 0, 44, 82
2, 434724, Note_on_c, 0, 41, 0
2, 434792, Note_on_c, 0, 56, 0
2, 434800, Note_on_c, 0, 44, 0
2, 434808, Note_on_c, 0, 57, 90
2, 434808, Note_on_c, 0, 45, 79
2, 434844, Note_on_c, 0, 45, 0
2, 434860, Note_on_c, 0, 57, 0
2, 434900, Note_on_c, 0, 45, 83
2, 434904, Note_on_c, 0, 57, 82
2, 434964, Note_on_c, 0, 57, 0
2, 434964, Note_on_c, 0, 45, 0
2, 434988, Note_on_c, 0, 47, 87
2, 434988, Note_on_c, 0, 59, 92
2, 435068, Note_on_c, 0, 47, 0
2, 435084, Note_on_c, 0, 60, 96
2, 435084, Note_on_c, 0, 48, 79
2, 435100, Note_on_c, 0, 59, 0
2, 435104, Note_on_c, 0, 48, 0
2, 435128, Note_on_c, 0, 60, 0
2, 435164, Note_on_c, 0, 60, 82
2, 435164, Note_on_c, 0, 48, 88
2, 435216, Note_on_c, 0, 60, 0
2, 435232, Note_on_c, 0, 48, 0
2, 435256, Note_on_c, 0, 64, 93
2, 435264, Note_on_c, 0, 52, 74
2, 435336, Note_on_c, 0, 52, 0
2, 435348, Note_on_c, 0, 65, 90
2, 435348, Note_on_c, 0, 53, 78
2, 435356, Note_on_c, 0, 64, 0
2, 435376, Note_on_c, 0, 53, 0
2, 435396, Note_on_c, 0, 65, 0
2, 435432, Note_on_c, 0, 65, 86
2, 435436, Note_on_c, 0, 53, 75
2, 435500, Note_on_c, 0, 65, 0
2, 435504, Note_on_c, 0, 53, 0
2, 435520, Note_on_c, 0, 68, 85
2, 435520, Note_on_c, 0, 56, 77
2, 435584, Note_on_c, 0, 56, 0
2, 435600, Note_on_c, 0, 68, 0
2, 435608, Note_on_c, 0, 69, 97
2, 435620, Note_on_c, 0, 57, 66
2, 435640, Note_on_c, 0, 57, 0
2, 435660, Note_on_c, 0, 69, 0
2, 435692, Note_on_c, 0, 57, 72
2, 435696, Note_on_c, 0, 69, 87
2, 435760, Note_on_c, 0, 69, 0
2, 435772, Note_on_c, 0, 57, 0
2, 435784, Note_on_c, 0, 71, 92
2, 435792, Note_on_c, 0, 59, 69
2, 435876, Note_on_c, 0, 72, 96
2, 435892, Note_on_c, 0, 71, 0
2, 435916, Note_on_c, 0, 59, 0
2, 435924, Note_on_c, 0, 72, 0
2, 435960, Note_on_c, 0, 72, 90
2, 435960, Note_on_c, 0, 60, 81
2, 436020, Note_on_c, 0, 72, 0
2, 436044, Note_on_c, 0, 76, 97
2, 436052, Note_on_c, 0, 64, 71
2, 436056, Note_on_c, 0, 60, 0
2, 436140, Note_on_c, 0, 64, 0
2, 436140, Note_on_c, 0, 77, 99
2, 436152, Note_on_c, 0, 65, 74
2, 436156, Note_on_c, 0, 76, 0
2, 436176, Note_on_c, 0, 65, 0
2, 436188, Note_on_c, 0, 77, 0
2, 436220, Note_on_c, 0, 65, 77
2, 436220, Note_on_c, 0, 77, 89
2, 436284, Note_on_c, 0, 77, 0
2, 436296, Note_on_c, 0, 65, 0
2, 436316, Note_on_c, 0, 68, 80
2, 436320, Note_on_c, 0, 80, 93
2, 436392, Note_on_c, 0, 80, 0
2, 436396, Note_on_c, 0, 68, 0
2, 436412, Note_on_c, 0, 81, 94
2, 436416, Note_on_c, 0, 69, 69
2, 436444, Note_on_c, 0, 69, 0
2, 436456, Note_on_c, 0, 81, 0
2, 436488, Note_on_c, 0, 69, 84
2, 436488, Note_on_c, 0, 81, 85
2, 436548, Note_on_c, 0, 81, 0
2, 436556, Note_on_c, 0, 69, 0
2, 436576, Note_on_c, 0, 83, 97
2, 436580, Note_on_c, 0, 71, 83
2, 436656, Note_on_c, 0, 71, 0
2, 436668, Note_on_c, 0, 84, 93
2, 436676, Note_on_c, 0, 72, 69
2, 436680, Note_on_c, 0, 83, 0
2, 436696, Note_on_c, 0, 72, 0
2, 436708, Note_on_c, 0, 84, 0
2, 436744, Note_on_c, 0, 72, 68
2, 436748, Note_on_c, 0, 84, 86
2, 436804, Note_on_c, 0, 84, 0
2, 436816, Note_on_c, 0, 72, 0
2, 436836, Note_on_c, 0, 88, 97
2, 436844, Note_on_c, 0, 76, 60
2, 436916, Note_on_c, 0, 76, 0
2, 436928, Note_on_c, 0, 88, 0
2, 436928, Note_on_c, 0, 89, 97
2, 436932, Note_on_c, 0, 77, 65
2, 436956, Note_on_c, 0, 77, 0
2, 436972, Note_on_c, 0, 89, 0
2, 437008, Note_on_c, 0, 89, 89
2, 437012, Note_on_c, 0, 77, 78
2, 437076, Note_on_c, 0, 89, 0
2, 437096, Note_on_c, 0, 92, 90
2, 437096, Note_on_c, 0, 80, 85
2, 437104, Note_on_c, 0, 77, 0
2, 437168, Note_on_c, 0, 80, 0
2, 437176, Note_on_c, 0, 92, 0
2, 437188, Note_on_c, 0, 93, 93
2, 437196, Note_on_c, 0, 81, 69
2, 437224, Note_on_c, 0, 81, 0
2, 437228, Note_on_c, 0, 93, 0
2, 437272, Note_on_c, 0, 81, 80
2, 437272, Note_on_c, 0, 93, 92
2, 437336, Note_on_c, 0, 93, 0
2, 437352, Note_on_c, 0, 81, 0
2, 437356, Note_on_c, 0, 95, 99
2, 437360, Note_on_c, 0, 83, 72
2, 437408, Note_on_c, 0, 83, 0
2, 437452, Note_on_c, 0, 96, 94
2, 437456, Note_on_c, 0, 95, 0
2, 437460, Note_on_c, 0, 84, 68
2, 437492, Note_on_c, 0, 96, 0
2, 437500, Note_on_c, 0, 84, 0
2, 437544, Note_on_c, 0, 84, 88
2, 437544, Note_on_c, 0, 96, 89
2, 437604, Note_on_c, 0, 96, 0
2, 437608, Note_on_c, 0, 84, 0
2, 437620, Note_on_c, 0, 100, 102
2, 437628, Note_on_c, 0, 88, 88
2, 437688, Note_on_c, 0, 100, 0
2, 437692, Note_on_c, 0, 88, 0
2, 437732, Note_on_c, 0, 101, 109
2, 437740, Note_on_c, 0, 89, 93
2, 437920, Note_on_c, 0, 89, 0
2, 438060, Note_on_c, 0, 101, 0
2, 439297, Control_c, 0, 121, 0
2, 439297, End_track
3, 0, Start_track
3, 0, MIDI_port, 0
3, 0, Title_t, "1st Violins"
3, 0, Program_c, 1, 48
3, 0, Control_c, 1, 7, 127
3, 0, Control_c, 1, 10, 10
3, 1153, Control_c, 1, 91, 127
3, 1537, Control_c, 1, 11, 65
3, 1574, Note_on_c, 1, 60, 40
3, 2318, Note_on_c, 1, 64, 55
3, 2320, Note_on_c, 1, 60, 0
3, 3018, Note_on_c, 1, 64, 0
3, 3018, Note_on_c, 1, 65, 55
3, 3358, Note_on_c, 1, 65, 0
3, 4354, Note_on_c, 1, 64, 55
3, 4626, Note_on_c, 1, 64, 0
3, 4626, Note_on_c, 1, 65, 55
3, 6074, Note_on_c, 1, 66, 55
3, 6078, Note_on_c, 1, 65, 0
3, 6862, Note_on_c, 1, 66, 0
3, 6862, Note_on_c, 1, 65, 55
3, 7154, Note_on_c, 1, 65, 0
3, 7154, Note_on_c, 1, 64, 55
3, 7444, Note_on_c, 1, 64, 0
3, 7654, Note_on_c, 1, 60, 55
3, 8398, Note_on_c, 1, 60, 0
3, 8398, Note_on_c, 1, 64, 55
3, 9186, Note_on_c, 1, 64, 0
3, 9186, Note_on_c, 1, 65, 55
3, 9436, Note_on_c, 1, 65, 0
3, 10378, Note_on_c, 1, 64, 55
3, 10646, Note_on_c, 1, 65, 55
3, 10648, Note_on_c, 1, 64, 0
3, 11370, Note_on_c, 1, 65, 0
3, 11398, Note_on_c, 1, 65, 55
3, 11626, Note_on_c, 1, 65, 0
3, 11626, Note_on_c, 1, 64, 55
3, 11862, Note_on_c, 1, 64, 0
3, 11862, Note_on_c, 1, 63, 55
3, 12062, Note_on_c, 1, 63, 0
3, 12090, Note_on_c, 1, 63, 55
3, 12326, Note_on_c, 1, 63, 0
3, 12326, Note_on_c, 1, 61, 55
3, 12546, Note_on_c, 1, 61, 0
3, 12574, Note_on_c, 1, 64, 55
3, 12834, Note_on_c, 1, 64, 0
3, 12834, Note_on_c, 1, 65, 55
3, 13057, Control_c, 1, 11, 110
3, 13094, Note_on_c, 1, 65, 0
3, 13346, Note_on_c, 1, 77, 90
3, 13454, Note_on_c, 1, 77, 0
3, 13454, Note_on_c, 1, 75, 83
3, 13574, Note_on_c, 1, 75, 0
3, 13574, Note_on_c, 1, 73, 80
3, 13774, Note_on_c, 1, 73, 0
3, 13826, Note_on_c, 1, 72, 80
3, 13946, Note_on_c, 1, 72, 0
3, 13946, Note_on_c, 1, 70, 80
3, 14074, Note_on_c, 1, 70, 0
3, 14074, Note_on_c, 1, 68, 80
3, 14274, Note_on_c, 1, 68, 0
3, 14334, Note_on_c, 1, 70, 80
3, 14434, Note_on_c, 1, 70, 0
3, 14598, Note_on_c, 1, 72, 80
3, 14698, Note_on_c, 1, 72, 0
3, 14854, Note_on_c, 1, 80, 90
3, 14974, Note_on_c, 1, 80, 0
3, 14974, Note_on_c, 1, 79, 80
3, 15106, Note_on_c, 1, 79, 0
3, 15106, Note_on_c, 1, 77, 80
3, 15306, Note_on_c, 1, 77, 0
3, 15378, Note_on_c, 1, 75, 80
3, 15494, Note_on_c, 1, 75, 0
3, 15494, Note_on_c, 1, 74, 80
3, 15630, Note_on_c, 1, 74, 0
3, 15630, Note_on_c, 1, 72, 80
3, 15830, Note_on_c, 1, 72, 0
3, 15886, Note_on_c, 1, 71, 80
3, 15886, Note_on_c, 1, 62, 80
3, 15886, Note_on_c, 1, 55, 80
3, 15986, Note_on_c, 1, 55, 0
3, 15986, Note_on_c, 1, 62, 0
3, 15986, Note_on_c, 1, 71, 0
3, 16129, Control_c, 1, 11, 120
3, 16154, Note_on_c, 1, 72, 80
3, 16154, Note_on_c, 1, 64, 80
3, 16254, Note_on_c, 1, 64, 0
3, 16254, Note_on_c, 1, 72, 0
3, 16422, Note_on_c, 1, 84, 95
3, 16542, Note_on_c, 1, 84, 0
3, 16542, Note_on_c, 1, 82, 92
3, 16670, Note_on_c, 1, 82, 0
3, 16670, Note_on_c, 1, 80, 88
3, 16920, Note_on_c, 1, 80, 0
3, 16942, Note_on_c, 1, 79, 95
3, 17066, Note_on_c, 1, 79, 0
3, 17066, Note_on_c, 1, 77, 82
3, 17206, Note_on_c, 1, 77, 0
3, 17206, Note_on_c, 1, 76, 82
3, 17446, Note_on_c, 1, 76, 0
3, 17474, Note_on_c, 1, 77, 82
3, 17714, Note_on_c, 1, 77, 0
3, 17722, Note_on_c, 1, 75, 95
3, 17838, Note_on_c, 1, 75, 0
3, 17838, Note_on_c, 1, 73, 80
3, 17978, Note_on_c, 1, 73, 0
3, 17978, Note_on_c, 1, 72, 80
3, 18218, Note_on_c, 1, 72, 0
3, 18254, Note_on_c, 1, 73, 82
3, 18506, Note_on_c, 1, 72, 80
3, 18510, Note_on_c, 1, 73, 0
3, 18610, Note_on_c, 1, 72, 0
3, 18618, Note_on_c, 1, 70, 78
3, 18754, Note_on_c, 1, 70, 0
3, 18762, Note_on_c, 1, 68, 78
3, 18982, Note_on_c, 1, 68, 0
3, 19022, Note_on_c, 1, 70, 75
3, 19122, Note_on_c, 1, 70, 0
3, 19294, Note_on_c, 1, 72, 75
3, 19394, Note_on_c, 1, 72, 0
3, 19585, Control_c, 1, 11, 65
3, 19806, Note_on_c, 1, 60, 55
3, 20518, Note_on_c, 1, 60, 0
3, 20518, Note_on_c, 1, 64, 55
3, 21302, Note_on_c, 1, 64, 0
3, 21302, Note_on_c, 1, 65, 55
3, 21552, Note_on_c, 1, 65, 0
3, 22502, Note_on_c, 1, 64, 55
3, 22770, Note_on_c, 1, 64, 0
3, 22770, Note_on_c, 1, 65, 70
3, 23494, Note_on_c, 1, 65, 0
3, 23526, Note_on_c, 1, 65, 70
3, 25048, Note_on_c, 1, 65, 0
3, 25082, Note_on_c, 1, 65, 70
3, 26125, Note_on_c, 1, 65, 0
3, 26142, Note_on_c, 1, 64, 60
3, 26386, Note_on_c, 1, 64, 0
3, 26386, Note_on_c, 1, 65, 55
3, 26618, Note_on_c, 1, 65, 0
3, 26618, Note_on_c, 1, 64, 55
3, 27142, Note_on_c, 1, 64, 0
3, 27154, Note_on_c, 1, 65, 55
3, 27394, Note_on_c, 1, 65, 0
3, 27394, Note_on_c, 1, 64, 55
3, 27654, Note_on_c, 1, 64, 0
3, 27654, Note_on_c, 1, 62, 55
3, 28130, Note_on_c, 1, 62, 0
3, 28130, Note_on_c, 1, 64, 55
3, 28414, Note_on_c, 1, 65, 65
3, 28418, Note_on_c, 1, 64, 0
3, 28870, Note_on_c, 1, 65, 0
3, 28870, Note_on_c, 1, 60, 55
3, 29254, Note_on_c, 1, 60, 0
3, 31105, Control_c, 1, 11, 70
3, 31238, Note_on_c, 1, 57, 60
3, 31470, Note_on_c, 1, 57, 0
3, 31470, Note_on_c, 1, 58, 65
3, 31726, Note_on_c, 1, 58, 0
3, 31726, Note_on_c, 1, 65, 70
3, 32126, Note_on_c, 1, 65, 0
3, 33793, Control_c, 1, 11, 100
3, 34316, Note_on_c, 1, 76, 77
3, 34392, Note_on_c, 1, 76, 0
3, 34568, Note_on_c, 1, 77, 90
3, 34672, Note_on_c, 1, 77, 0
3, 34816, Note_on_c, 1, 79, 88
3, 34816, Note_on_c, 1, 72, 88
3, 34884, Note_on_c, 1, 72, 0
3, 34884, Note_on_c, 1, 79, 0
3, 35056, Note_on_c, 1, 81, 85
3, 35056, Note_on_c, 1, 72, 85
3, 35152, Note_on_c, 1, 72, 0
3, 35152, Note_on_c, 1, 81, 0
3, 35308, Note_on_c, 1, 82, 81
3, 35436, Note_on_c, 1, 82, 0
3, 35564, Note_on_c, 1, 84, 85
3, 35564, Note_on_c, 1, 77, 85
3, 35680, Note_on_c, 1, 77, 0
3, 35680, Note_on_c, 1, 84, 0
3, 35828, Note_on_c, 1, 85, 85
3, 35828, Note_on_c, 1, 77, 85
3, 35972, Note_on_c, 1, 77, 0
3, 35972, Note_on_c, 1, 85, 0
3, 36104, Note_on_c, 1, 84, 87
3, 36104, Note_on_c, 1, 77, 87
3, 36568, Note_on_c, 1, 77, 0
3, 36568, Note_on_c, 1, 84, 0
3, 37832, Note_on_c, 1, 72, 75
3, 37928, Note_on_c, 1, 72, 0
3, 38084, Note_on_c, 1, 77, 82
3, 38160, Note_on_c, 1, 77, 0
3, 38328, Note_on_c, 1, 80, 93
3, 38328, Note_on_c, 1, 72, 93
3, 38404, Note_on_c, 1, 72, 0
3, 38404, Note_on_c, 1, 80, 0
3, 38584, Note_on_c, 1, 84, 77
3, 38584, Note_on_c, 1, 72, 77
3, 38676, Note_on_c, 1, 72, 0
3, 38676, Note_on_c, 1, 84, 0
3, 38832, Note_on_c, 1, 89, 90
3, 38928, Note_on_c, 1, 89, 0
3, 39092, Note_on_c, 1, 92, 88
3, 39336, Note_on_c, 1, 92, 0
3, 41160, Note_on_c, 1, 79, 79
3, 41160, Note_on_c, 1, 72, 79
3, 41160, Note_on_c, 1, 64, 79
3, 41336, Note_on_c, 1, 64, 0
3, 41336, Note_on_c, 1, 72, 0
3, 41336, Note_on_c, 1, 79, 0
3, 41412, Note_on_c, 1, 80, 73
3, 41412, Note_on_c, 1, 72, 73
3, 41412, Note_on_c, 1, 65, 73
3, 41560, Note_on_c, 1, 65, 0
3, 41560, Note_on_c, 1, 72, 0
3, 41560, Note_on_c, 1, 80, 0
3, 41912, Note_on_c, 1, 79, 74
3, 41912, Note_on_c, 1, 72, 74
3, 41912, Note_on_c, 1, 64, 74
3, 42064, Note_on_c, 1, 64, 0
3, 42064, Note_on_c, 1, 72, 0
3, 42064, Note_on_c, 1, 79, 0
3, 42160, Note_on_c, 1, 80, 74
3, 42160, Note_on_c, 1, 72, 74
3, 42160, Note_on_c, 1, 65, 74
3, 42344, Note_on_c, 1, 65, 0
3, 42344, Note_on_c, 1, 72, 0
3, 42344, Note_on_c, 1, 80, 0
3, 42416, Note_on_c, 1, 84, 74
3, 42416, Note_on_c, 1, 72, 74
3, 42536, Note_on_c, 1, 72, 0
3, 42536, Note_on_c, 1, 84, 0
3, 42676, Note_on_c, 1, 76, 72
3, 42676, Note_on_c, 1, 72, 72
3, 42840, Note_on_c, 1, 72, 0
3, 42840, Note_on_c, 1, 76, 0
3, 42944, Note_on_c, 1, 77, 76
3, 42944, Note_on_c, 1, 72, 76
3, 43104, Note_on_c, 1, 72, 0
3, 43104, Note_on_c, 1, 77, 0
3, 43196, Note_on_c, 1, 79, 76
3, 43196, Note_on_c, 1, 70, 76
3, 43368, Note_on_c, 1, 70, 0
3, 43368, Note_on_c, 1, 79, 0
3, 43460, Note_on_c, 1, 76, 74
3, 43460, Note_on_c, 1, 70, 74
3, 43616, Note_on_c, 1, 70, 0
3, 43616, Note_on_c, 1, 76, 0
3, 43716, Note_on_c, 1, 77, 79
3, 43716, Note_on_c, 1, 68, 79
3, 43900, Note_on_c, 1, 68, 0
3, 43900, Note_on_c, 1, 77, 0
3, 44208, Note_on_c, 1, 79, 76
3, 44208, Note_on_c, 1, 72, 76
3, 44208, Note_on_c, 1, 64, 76
3, 44356, Note_on_c, 1, 64, 0
3, 44356, Note_on_c, 1, 72, 0
3, 44356, Note_on_c, 1, 79, 0
3, 44464, Note_on_c, 1, 80, 65
3, 44464, Note_on_c, 1, 72, 65
3, 44464, Note_on_c, 1, 65, 65
3, 44616, Note_on_c, 1, 65, 0
3, 44616, Note_on_c, 1, 72, 0
3, 44616, Note_on_c, 1, 80, 0
3, 44968, Note_on_c, 1, 79, 72
3, 44968, Note_on_c, 1, 72, 72
3, 44968, Note_on_c, 1, 64, 72
3, 45108, Note_on_c, 1, 64, 0
3, 45108, Note_on_c, 1, 72, 0
3, 45108, Note_on_c, 1, 79, 0
3, 45228, Note_on_c, 1, 80, 71
3, 45228, Note_on_c, 1, 72, 71
3, 45228, Note_on_c, 1, 65, 71
3, 45368, Note_on_c, 1, 65, 0
3, 45368, Note_on_c, 1, 72, 0
3, 45368, Note_on_c, 1, 80, 0
3, 45476, Note_on_c, 1, 84, 77
3, 45476, Note_on_c, 1, 72, 77
3, 45608, Note_on_c, 1, 72, 0
3, 45608, Note_on_c, 1, 84, 0
3, 45728, Note_on_c, 1, 76, 74
3, 45728, Note_on_c, 1, 70, 74
3, 45864, Note_on_c, 1, 70, 0
3, 45864, Note_on_c, 1, 76, 0
3, 45988, Note_on_c, 1, 77, 71
3, 45988, Note_on_c, 1, 72, 71
3, 46136, Note_on_c, 1, 72, 0
3, 46136, Note_on_c, 1, 77, 0
3, 46244, Note_on_c, 1, 79, 81
3, 46244, Note_on_c, 1, 70, 81
3, 46364, Note_on_c, 1, 70, 0
3, 46364, Note_on_c, 1, 79, 0
3, 46500, Note_on_c, 1, 76, 74
3, 46500, Note_on_c, 1, 70, 74
3, 46636, Note_on_c, 1, 70, 0
3, 46636, Note_on_c, 1, 76, 0
3, 46784, Note_on_c, 1, 77, 82
3, 46784, Note_on_c, 1, 68, 82
3, 47140, Note_on_c, 1, 68, 0
3, 47140, Note_on_c, 1, 77, 0
3, 47684, Note_on_c, 1, 89, 94
3, 47684, Note_on_c, 1, 77, 94
3, 48034, Note_on_c, 1, 77, 0
3, 48034, Note_on_c, 1, 89, 0
3, 48568, Note_on_c, 1, 65, 89
3, 49153, Control_c, 1, 11, 80
3, 49252, Note_on_c, 1, 65, 0
3, 50078, Note_on_c, 1, 68, 89
3, 50662, Note_on_c, 1, 68, 0
3, 50689, Program_c, 1, 45
3, 50920, Note_on_c, 1, 68, 80
3, 50960, Note_on_c, 1, 68, 0
3, 51192, Note_on_c, 1, 68, 80
3, 51232, Note_on_c, 1, 68, 0
3, 52225, Program_c, 1, 48
3, 52609, Control_c, 1, 11, 70
3, 53422, Note_on_c, 1, 65, 70
3, 54306, Note_on_c, 1, 65, 0
3, 54306, Note_on_c, 1, 64, 70
3, 54650, Note_on_c, 1, 64, 0
3, 54650, Note_on_c, 1, 65, 60
3, 54990, Note_on_c, 1, 65, 0
3, 56833, Control_c, 1, 11, 80
3, 57370, Note_on_c, 1, 66, 80
3, 57954, Note_on_c, 1, 66, 0
3, 57985, Program_c, 1, 45
3, 58276, Note_on_c, 1, 66, 80
3, 58316, Note_on_c, 1, 66, 0
3, 58556, Note_on_c, 1, 66, 80
3, 58596, Note_on_c, 1, 66, 0
3, 59905, Program_c, 1, 48
3, 60673, Control_c, 1, 11, 70
3, 60970, Note_on_c, 1, 63, 70
3, 61894, Note_on_c, 1, 63, 0
3, 61894, Note_on_c, 1, 61, 70
3, 62250, Note_on_c, 1, 61, 0
3, 62250, Note_on_c, 1, 65, 60
3, 62600, Note_on_c, 1, 65, 0
3, 64513, Program_c, 1, 45
3, 64897, Control_c, 1, 11, 60
3, 65180, Note_on_c, 1, 68, 60
3, 65230, Note_on_c, 1, 68, 0
3, 66700, Note_on_c, 1, 67, 60
3, 66750, Note_on_c, 1, 67, 0
3, 66996, Note_on_c, 1, 68, 60
3, 67046, Note_on_c, 1, 68, 0
3, 67585, Program_c, 1, 48
3, 68474, Note_on_c, 1, 67, 60
3, 68786, Note_on_c, 1, 67, 0
3, 68786, Note_on_c, 1, 68, 60
3, 70574, Note_on_c, 1, 68, 0
3, 70574, Note_on_c, 1, 66, 60
3, 72438, Note_on_c, 1, 66, 0
3, 72438, Note_on_c, 1, 65, 60
3, 72768, Note_on_c, 1, 65, 0
3, 73729, Program_c, 1, 45
3, 74032, Note_on_c, 1, 66, 70
3, 74072, Note_on_c, 1, 66, 0
3, 74348, Note_on_c, 1, 65, 70
3, 74388, Note_on_c, 1, 65, 0
3, 75265, Program_c, 1, 48
3, 75810, Note_on_c, 1, 66, 70
3, 76114, Note_on_c, 1, 66, 0
3, 76114, Note_on_c, 1, 65, 70
3, 77890, Note_on_c, 1, 65, 0
3, 77890, Note_on_c, 1, 67, 70
3, 80390, Note_on_c, 1, 67, 0
3, 82253, Note_on_c, 1, 64, 70
3, 82554, Note_on_c, 1, 64, 0
3, 82554, Note_on_c, 1, 65, 70
3, 82860, Note_on_c, 1, 65, 0
3, 82862, Note_on_c, 1, 67, 70
3, 83162, Note_on_c, 1, 67, 0
3, 83162, Note_on_c, 1, 60, 70
3, 83474, Note_on_c, 1, 60, 0
3, 83474, Note_on_c, 1, 63, 70
3, 83774, Note_on_c, 1, 63, 0
3, 85966, Note_on_c, 1, 69, 70
3, 86254, Note_on_c, 1, 69, 0
3, 86254, Note_on_c, 1, 70, 70
3, 86546, Note_on_c, 1, 70, 0
3, 86546, Note_on_c, 1, 72, 70
3, 86842, Note_on_c, 1, 72, 0
3, 86842, Note_on_c, 1, 65, 70
3, 87190, Note_on_c, 1, 65, 0
3, 87190, Note_on_c, 1, 70, 70
3, 87490, Note_on_c, 1, 70, 0
3, 87553, Program_c, 1, 45
3, 88724, Note_on_c, 1, 69, 70
3, 88764, Note_on_c, 1, 69, 0
3, 89016, Note_on_c, 1, 70, 70
3, 89056, Note_on_c, 1, 70, 0
3, 89089, Program_c, 1, 48
3, 90494, Note_on_c, 1, 72, 75
3, 90774, Note_on_c, 1, 72, 0
3, 90806, Note_on_c, 1, 72, 85
3, 92318, Note_on_c, 1, 72, 0
3, 92318, Note_on_c, 1, 77, 85
3, 93234, Note_on_c, 1, 77, 0
3, 93234, Note_on_c, 1, 71, 75
3, 93524, Note_on_c, 1, 71, 0
3, 93542, Note_on_c, 1, 71, 75
3, 93862, Note_on_c, 1, 71, 0
3, 93862, Note_on_c, 1, 72, 75
3, 94182, Note_on_c, 1, 72, 0
3, 94182, Note_on_c, 1, 74, 75
3, 94506, Note_on_c, 1, 74, 0
3, 94506, Note_on_c, 1, 75, 75
3, 94806, Note_on_c, 1, 75, 0
3, 95233, Program_c, 1, 45
3, 96116, Note_on_c, 1, 71, 70
3, 96156, Note_on_c, 1, 71, 0
3, 96432, Note_on_c, 1, 72, 70
3, 96472, Note_on_c, 1, 72, 0
3, 96769, Program_c, 1, 48
3, 97966, Note_on_c, 1, 71, 70
3, 98282, Note_on_c, 1, 71, 0
3, 98282, Note_on_c, 1, 70, 70
3, 101046, Note_on_c, 1, 70, 0
3, 101046, Note_on_c, 1, 67, 70
3, 101922, Note_on_c, 1, 67, 0
3, 102022, Note_on_c, 1, 65, 80
3, 103032, Note_on_c, 1, 64, 83
3, 103132, Note_on_c, 1, 65, 0
3, 103906, Note_on_c, 1, 64, 0
3, 103906, Note_on_c, 1, 63, 86
3, 104834, Note_on_c, 1, 63, 0
3, 104834, Note_on_c, 1, 61, 84
3, 105732, Note_on_c, 1, 61, 0
3, 105754, Note_on_c, 1, 61, 90
3, 108590, Note_on_c, 1, 61, 0
3, 108590, Note_on_c, 1, 60, 85
3, 109222, Note_on_c, 1, 60, 0
3, 109222, Note_on_c, 1, 58, 82
3, 109562, Note_on_c, 1, 58, 0
3, 109594, Note_on_c, 1, 58, 85
3, 109944, Note_on_c, 1, 58, 0
3, 110593, Control_c, 1, 11, 75
3, 111762, Note_on_c, 1, 63, 65
3, 112137, Note_on_c, 1, 65, 68
3, 112138, Note_on_c, 1, 63, 0
3, 112308, Note_on_c, 1, 67, 71
3, 112315, Note_on_c, 1, 65, 0
3, 112482, Note_on_c, 1, 68, 78
3, 112484, Note_on_c, 1, 67, 0
3, 112638, Note_on_c, 1, 70, 78
3, 112642, Note_on_c, 1, 68, 0
3, 112838, Note_on_c, 1, 70, 0
3, 112838, Note_on_c, 1, 72, 85
3, 113210, Note_on_c, 1, 73, 83
3, 113218, Note_on_c, 1, 72, 0
3, 113382, Note_on_c, 1, 72, 86
3, 113385, Note_on_c, 1, 73, 0
3, 113578, Note_on_c, 1, 68, 71
3, 113582, Note_on_c, 1, 72, 0
3, 113934, Note_on_c, 1, 67, 60
3, 113938, Note_on_c, 1, 68, 0
3, 114682, Note_on_c, 1, 67, 0
3, 114682, Note_on_c, 1, 65, 60
3, 115038, Note_on_c, 1, 65, 0
3, 115038, Note_on_c, 1, 63, 60
3, 115398, Note_on_c, 1, 63, 0
3, 116178, Note_on_c, 1, 63, 69
3, 116506, Note_on_c, 1, 65, 70
3, 116508, Note_on_c, 1, 63, 0
3, 116670, Note_on_c, 1, 65, 0
3, 116670, Note_on_c, 1, 67, 72
3, 116850, Note_on_c, 1, 67, 0
3, 116850, Note_on_c, 1, 68, 75
3, 117018, Note_on_c, 1, 68, 0
3, 117018, Note_on_c, 1, 70, 79
3, 117210, Note_on_c, 1, 72, 83
3, 117214, Note_on_c, 1, 70, 0
3, 117558, Note_on_c, 1, 70, 80
3, 117560, Note_on_c, 1, 72, 0
3, 117730, Note_on_c, 1, 68, 80
3, 117733, Note_on_c, 1, 70, 0
3, 117922, Note_on_c, 1, 65, 75
3, 117925, Note_on_c, 1, 68, 0
3, 118270, Note_on_c, 1, 63, 66
3, 118272, Note_on_c, 1, 65, 0
3, 118620, Note_on_c, 1, 63, 0
3, 118668, Note_on_c, 1, 65, 60
3, 119374, Note_on_c, 1, 65, 0
3, 119374, Note_on_c, 1, 67, 65
3, 119730, Note_on_c, 1, 67, 0
3, 119730, Note_on_c, 1, 68, 70
3, 120434, Note_on_c, 1, 68, 0
3, 120462, Note_on_c, 1, 68, 80
3, 120462, Note_on_c, 1, 61, 60
3, 121426, Note_on_c, 1, 68, 0
3, 121526, Note_on_c, 1, 67, 70
3, 122544, Note_on_c, 1, 61, 0
3, 122644, Note_on_c, 1, 67, 0
3, 122654, Note_on_c, 1, 68, 65
3, 123004, Note_on_c, 1, 68, 0
3, 123330, Note_on_c, 1, 68, 60
3, 123330, Note_on_c, 1, 60, 60
3, 123430, Note_on_c, 1, 60, 0
3, 123430, Note_on_c, 1, 68, 0
3, 123678, Note_on_c, 1, 68, 65
3, 123678, Note_on_c, 1, 60, 65
3, 123778, Note_on_c, 1, 60, 0
3, 123778, Note_on_c, 1, 68, 0
3, 124038, Note_on_c, 1, 68, 60
3, 124038, Note_on_c, 1, 60, 60
3, 124088, Note_on_c, 1, 60, 0
3, 124088, Note_on_c, 1, 68, 0
3, 124198, Note_on_c, 1, 68, 60
3, 124198, Note_on_c, 1, 60, 60
3, 124248, Note_on_c, 1, 60, 0
3, 124248, Note_on_c, 1, 68, 0
3, 124378, Note_on_c, 1, 68, 60
3, 124378, Note_on_c, 1, 60, 60
3, 124428, Note_on_c, 1, 60, 0
3, 124428, Note_on_c, 1, 68, 0
3, 124714, Note_on_c, 1, 68, 65
3, 124714, Note_on_c, 1, 60, 65
3, 124764, Note_on_c, 1, 60, 0
3, 124764, Note_on_c, 1, 68, 0
3, 124886, Note_on_c, 1, 68, 60
3, 124886, Note_on_c, 1, 60, 60
3, 124936, Note_on_c, 1, 60, 0
3, 124936, Note_on_c, 1, 68, 0
3, 125074, Note_on_c, 1, 68, 60
3, 125074, Note_on_c, 1, 60, 60
3, 125174, Note_on_c, 1, 60, 0
3, 125174, Note_on_c, 1, 68, 0
3, 125434, Note_on_c, 1, 68, 60
3, 125434, Note_on_c, 1, 60, 60
3, 125484, Note_on_c, 1, 60, 0
3, 125484, Note_on_c, 1, 68, 0
3, 125602, Note_on_c, 1, 68, 60
3, 125602, Note_on_c, 1, 60, 60
3, 125652, Note_on_c, 1, 60, 0
3, 125652, Note_on_c, 1, 68, 0
3, 125774, Note_on_c, 1, 68, 65
3, 125774, Note_on_c, 1, 60, 65
3, 125874, Note_on_c, 1, 60, 0
3, 125874, Note_on_c, 1, 68, 0
3, 126142, Note_on_c, 1, 68, 60
3, 126142, Note_on_c, 1, 60, 60
3, 126242, Note_on_c, 1, 60, 0
3, 126242, Note_on_c, 1, 68, 0
3, 126510, Note_on_c, 1, 68, 60
3, 126510, Note_on_c, 1, 60, 60
3, 126610, Note_on_c, 1, 60, 0
3, 126610, Note_on_c, 1, 68, 0
3, 126850, Note_on_c, 1, 68, 60
3, 126850, Note_on_c, 1, 60, 60
3, 126950, Note_on_c, 1, 60, 0
3, 126950, Note_on_c, 1, 68, 0
3, 127458, Note_on_c, 1, 68, 60
3, 127458, Note_on_c, 1, 60, 60
3, 127558, Note_on_c, 1, 60, 0
3, 127558, Note_on_c, 1, 68, 0
3, 127762, Note_on_c, 1, 67, 60
3, 127762, Note_on_c, 1, 61, 60
3, 127862, Note_on_c, 1, 61, 0
3, 127862, Note_on_c, 1, 67, 0
3, 128054, Note_on_c, 1, 67, 60
3, 128054, Note_on_c, 1, 61, 60
3, 128104, Note_on_c, 1, 61, 0
3, 128104, Note_on_c, 1, 67, 0
3, 128210, Note_on_c, 1, 67, 60
3, 128210, Note_on_c, 1, 61, 60
3, 128260, Note_on_c, 1, 61, 0
3, 128260, Note_on_c, 1, 67, 0
3, 128366, Note_on_c, 1, 67, 60
3, 128366, Note_on_c, 1, 61, 60
3, 128466, Note_on_c, 1, 61, 0
3, 128466, Note_on_c, 1, 67, 0
3, 128666, Note_on_c, 1, 68, 60
3, 128666, Note_on_c, 1, 60, 60
3, 128766, Note_on_c, 1, 60, 0
3, 128766, Note_on_c, 1, 68, 0
3, 128986, Note_on_c, 1, 68, 60
3, 128986, Note_on_c, 1, 60, 60
3, 129086, Note_on_c, 1, 60, 0
3, 129086, Note_on_c, 1, 68, 0
3, 129327, Note_on_c, 1, 68, 60
3, 129327, Note_on_c, 1, 60, 60
3, 129427, Note_on_c, 1, 60, 0
3, 129427, Note_on_c, 1, 68, 0
3, 129658, Note_on_c, 1, 67, 60
3, 129658, Note_on_c, 1, 61, 60
3, 129758, Note_on_c, 1, 61, 0
3, 129758, Note_on_c, 1, 67, 0
3, 129958, Note_on_c, 1, 67, 60
3, 129958, Note_on_c, 1, 61, 60
3, 130008, Note_on_c, 1, 61, 0
3, 130008, Note_on_c, 1, 67, 0
3, 130118, Note_on_c, 1, 67, 60
3, 130118, Note_on_c, 1, 61, 60
3, 130168, Note_on_c, 1, 61, 0
3, 130168, Note_on_c, 1, 67, 0
3, 130278, Note_on_c, 1, 67, 60
3, 130278, Note_on_c, 1, 61, 60
3, 130378, Note_on_c, 1, 61, 0
3, 130378, Note_on_c, 1, 67, 0
3, 130570, Note_on_c, 1, 68, 60
3, 130570, Note_on_c, 1, 60, 60
3, 130906, Note_on_c, 1, 68, 0
3, 130906, Note_on_c, 1, 63, 60
3, 131214, Note_on_c, 1, 63, 0
3, 131214, Note_on_c, 1, 60, 0
3, 131214, Note_on_c, 1, 72, 60
3, 131214, Note_on_c, 1, 63, 60
3, 131534, Note_on_c, 1, 63, 0
3, 131566, Note_on_c, 1, 72, 0
3, 131566, Note_on_c, 1, 70, 60
3, 131566, Note_on_c, 1, 63, 60
3, 132238, Note_on_c, 1, 63, 0
3, 132238, Note_on_c, 1, 70, 0
3, 132239, Note_on_c, 1, 67, 60
3, 132580, Note_on_c, 1, 67, 0
3, 132580, Note_on_c, 1, 70, 60
3, 132580, Note_on_c, 1, 63, 60
3, 132959, Note_on_c, 1, 63, 0
3, 132959, Note_on_c, 1, 62, 60
3, 133338, Note_on_c, 1, 70, 0
3, 133338, Note_on_c, 1, 68, 60
3, 133658, Note_on_c, 1, 68, 0
3, 133658, Note_on_c, 1, 62, 0
3, 133658, Note_on_c, 1, 67, 60
3, 133658, Note_on_c, 1, 63, 60
3, 134357, Note_on_c, 1, 63, 0
3, 134357, Note_on_c, 1, 61, 60
3, 134695, Note_on_c, 1, 61, 0
3, 134698, Note_on_c, 1, 67, 0
3, 134700, Note_on_c, 1, 68, 60
3, 134700, Note_on_c, 1, 60, 60
3, 134800, Note_on_c, 1, 60, 0
3, 134800, Note_on_c, 1, 68, 0
3, 135350, Note_on_c, 1, 68, 60
3, 135350, Note_on_c, 1, 60, 60
3, 135450, Note_on_c, 1, 60, 0
3, 135450, Note_on_c, 1, 68, 0
3, 135672, Note_on_c, 1, 67, 60
3, 135672, Note_on_c, 1, 61, 60
3, 135772, Note_on_c, 1, 61, 0
3, 135772, Note_on_c, 1, 67, 0
3, 135988, Note_on_c, 1, 67, 60
3, 135988, Note_on_c, 1, 61, 60
3, 136038, Note_on_c, 1, 61, 0
3, 136038, Note_on_c, 1, 67, 0
3, 136128, Note_on_c, 1, 67, 60
3, 136128, Note_on_c, 1, 61, 60
3, 136178, Note_on_c, 1, 61, 0
3, 136178, Note_on_c, 1, 67, 0
3, 136312, Note_on_c, 1, 67, 60
3, 136312, Note_on_c, 1, 61, 60
3, 136412, Note_on_c, 1, 61, 0
3, 136412, Note_on_c, 1, 67, 0
3, 136616, Note_on_c, 1, 68, 60
3, 136616, Note_on_c, 1, 60, 60
3, 136666, Note_on_c, 1, 60, 0
3, 136666, Note_on_c, 1, 68, 0
3, 136778, Note_on_c, 1, 68, 60
3, 136778, Note_on_c, 1, 60, 60
3, 136828, Note_on_c, 1, 60, 0
3, 136828, Note_on_c, 1, 68, 0
3, 136940, Note_on_c, 1, 68, 60
3, 136940, Note_on_c, 1, 60, 60
3, 136990, Note_on_c, 1, 60, 0
3, 136990, Note_on_c, 1, 68, 0
3, 137276, Note_on_c, 1, 68, 60
3, 137276, Note_on_c, 1, 60, 60
3, 137326, Note_on_c, 1, 60, 0
3, 137326, Note_on_c, 1, 68, 0
3, 137428, Note_on_c, 1, 68, 60
3, 137428, Note_on_c, 1, 60, 60
3, 137478, Note_on_c, 1, 60, 0
3, 137478, Note_on_c, 1, 68, 0
3, 137584, Note_on_c, 1, 67, 60
3, 137584, Note_on_c, 1, 61, 60
3, 137684, Note_on_c, 1, 61, 0
3, 137684, Note_on_c, 1, 67, 0
3, 137880, Note_on_c, 1, 67, 60
3, 137880, Note_on_c, 1, 61, 60
3, 137930, Note_on_c, 1, 61, 0
3, 137930, Note_on_c, 1, 67, 0
3, 138018, Note_on_c, 1, 67, 60
3, 138018, Note_on_c, 1, 61, 60
3, 138068, Note_on_c, 1, 61, 0
3, 138068, Note_on_c, 1, 67, 0
3, 138216, Note_on_c, 1, 67, 60
3, 138216, Note_on_c, 1, 61, 60
3, 138316, Note_on_c, 1, 61, 0
3, 138316, Note_on_c, 1, 67, 0
3, 138570, Note_on_c, 1, 68, 60
3, 138570, Note_on_c, 1, 61, 60
3, 138946, Note_on_c, 1, 61, 0
3, 138946, Note_on_c, 1, 60, 60
3, 139398, Note_on_c, 1, 68, 0
3, 139398, Note_on_c, 1, 66, 60
3, 139738, Note_on_c, 1, 66, 0
3, 139826, Note_on_c, 1, 60, 0
3, 139826, Note_on_c, 1, 65, 60
3, 139826, Note_on_c, 1, 61, 60
3, 140966, Note_on_c, 1, 61, 0
3, 140966, Note_on_c, 1, 65, 0
3, 140966, Note_on_c, 1, 67, 60
3, 141236, Note_on_c, 1, 67, 0
3, 141318, Note_on_c, 1, 67, 60
3, 141368, Note_on_c, 1, 67, 0
3, 141474, Note_on_c, 1, 67, 60
3, 141524, Note_on_c, 1, 67, 0
3, 141646, Note_on_c, 1, 67, 60
3, 141746, Note_on_c, 1, 67, 0
3, 142002, Note_on_c, 1, 68, 60
3, 142606, Note_on_c, 1, 68, 0
3, 142650, Note_on_c, 1, 68, 60
3, 142849, Control_c, 1, 11, 60
3, 142974, Note_on_c, 1, 68, 0
3, 142974, Note_on_c, 1, 71, 60
3, 143274, Note_on_c, 1, 71, 0
3, 143595, Note_on_c, 1, 71, 60
3, 143902, Note_on_c, 1, 71, 0
3, 143902, Note_on_c, 1, 68, 60
3, 144202, Note_on_c, 1, 68, 0
3, 145530, Note_on_c, 1, 71, 60
3, 145730, Note_on_c, 1, 71, 0
3, 145854, Note_on_c, 1, 68, 60
3, 146054, Note_on_c, 1, 68, 0
3, 146218, Note_on_c, 1, 68, 60
3, 146418, Note_on_c, 1, 68, 0
3, 146558, Note_on_c, 1, 68, 60
3, 146758, Note_on_c, 1, 68, 0
3, 146898, Note_on_c, 1, 71, 60
3, 147198, Note_on_c, 1, 71, 0
3, 147502, Note_on_c, 1, 71, 60
3, 147802, Note_on_c, 1, 71, 0
3, 147826, Note_on_c, 1, 68, 60
3, 148126, Note_on_c, 1, 68, 0
3, 148628, Note_on_c, 1, 68, 60
3, 148908, Note_on_c, 1, 68, 0
3, 148908, Note_on_c, 1, 67, 60
3, 152204, Note_on_c, 1, 67, 0
3, 152574, Note_on_c, 1, 68, 60
3, 152774, Note_on_c, 1, 68, 0
3, 152884, Note_on_c, 1, 68, 60
3, 152984, Note_on_c, 1, 68, 0
3, 153190, Note_on_c, 1, 68, 60
3, 153290, Note_on_c, 1, 68, 0
3, 153834, Note_on_c, 1, 67, 60
3, 153934, Note_on_c, 1, 67, 0
3, 154178, Note_on_c, 1, 67, 60
3, 154278, Note_on_c, 1, 67, 0
3, 154858, Note_on_c, 1, 68, 60
3, 154958, Note_on_c, 1, 68, 0
3, 155178, Note_on_c, 1, 68, 60
3, 155278, Note_on_c, 1, 68, 0
3, 155830, Note_on_c, 1, 67, 60
3, 155930, Note_on_c, 1, 67, 0
3, 156166, Note_on_c, 1, 67, 60
3, 156266, Note_on_c, 1, 67, 0
3, 156538, Note_on_c, 1, 68, 60
3, 156638, Note_on_c, 1, 68, 0
3, 156852, Note_on_c, 1, 68, 60
3, 156952, Note_on_c, 1, 68, 0
3, 157166, Note_on_c, 1, 68, 60
3, 157266, Note_on_c, 1, 68, 0
3, 157494, Note_on_c, 1, 67, 60
3, 157594, Note_on_c, 1, 67, 0
3, 157822, Note_on_c, 1, 67, 60
3, 157922, Note_on_c, 1, 67, 0
3, 158162, Note_on_c, 1, 67, 60
3, 158262, Note_on_c, 1, 67, 0
3, 158530, Note_on_c, 1, 68, 60
3, 158630, Note_on_c, 1, 68, 0
3, 158832, Note_on_c, 1, 68, 60
3, 158932, Note_on_c, 1, 68, 0
3, 159134, Note_on_c, 1, 68, 75
3, 159234, Note_on_c, 1, 68, 0
3, 159470, Note_on_c, 1, 68, 60
3, 159570, Note_on_c, 1, 68, 0
3, 159862, Note_on_c, 1, 67, 50
3, 160129, Control_c, 1, 11, 50
3, 160574, Note_on_c, 1, 67, 0
3, 160574, Note_on_c, 1, 68, 60
3, 161350, Note_on_c, 1, 68, 0
3, 161350, Note_on_c, 1, 72, 60
3, 162114, Note_on_c, 1, 72, 0
3, 162114, Note_on_c, 1, 68, 60
3, 162866, Note_on_c, 1, 68, 0
3, 162866, Note_on_c, 1, 72, 60
3, 163578, Note_on_c, 1, 72, 0
3, 163598, Note_on_c, 1, 68, 60
3, 164353, Note_on_c, 1, 72, 60
3, 164354, Note_on_c, 1, 68, 0
3, 165078, Note_on_c, 1, 75, 60
3, 165080, Note_on_c, 1, 72, 0
3, 166366, Note_on_c, 1, 68, 60
3, 166368, Note_on_c, 1, 75, 0
3, 166602, Note_on_c, 1, 68, 0
3, 166602, Note_on_c, 1, 67, 60
3, 167346, Note_on_c, 1, 67, 0
3, 167346, Note_on_c, 1, 68, 60
3, 168114, Note_on_c, 1, 68, 0
3, 168114, Note_on_c, 1, 67, 60
3, 168826, Note_on_c, 1, 68, 60
3, 168828, Note_on_c, 1, 67, 0
3, 169410, Note_on_c, 1, 68, 0
3, 169470, Note_on_c, 1, 70, 60
3, 169570, Note_on_c, 1, 70, 0
3, 169570, Note_on_c, 1, 68, 60
3, 170912, Note_on_c, 1, 68, 0
3, 170922, Note_on_c, 1, 70, 60
3, 171022, Note_on_c, 1, 70, 0
3, 171022, Note_on_c, 1, 68, 60
3, 172258, Note_on_c, 1, 68, 0
3, 172258, Note_on_c, 1, 70, 70
3, 172534, Note_on_c, 1, 70, 0
3, 172534, Note_on_c, 1, 71, 78
3, 172834, Note_on_c, 1, 71, 0
3, 175046, Note_on_c, 1, 72, 65
3, 175562, Note_on_c, 1, 72, 0
3, 175562, Note_on_c, 1, 70, 62
3, 175842, Note_on_c, 1, 70, 0
3, 175842, Note_on_c, 1, 68, 62
3, 176226, Note_on_c, 1, 68, 0
3, 176641, Program_c, 1, 45
3, 177025, Control_c, 1, 11, 60
3, 177460, Note_on_c, 1, 72, 60
3, 177500, Note_on_c, 1, 72, 0
3, 177704, Note_on_c, 1, 73, 60
3, 177744, Note_on_c, 1, 73, 0
3, 177952, Note_on_c, 1, 72, 60
3, 177992, Note_on_c, 1, 72, 0
3, 178177, Program_c, 1, 48
3, 178658, Note_on_c, 1, 67, 60
3, 181633, Note_on_c, 1, 67, 0
3, 181633, Note_on_c, 1, 68, 60
3, 181983, Note_on_c, 1, 68, 0
3, 182785, Program_c, 1, 45
3, 183444, Note_on_c, 1, 72, 60
3, 183484, Note_on_c, 1, 72, 0
3, 183696, Note_on_c, 1, 73, 60
3, 183736, Note_on_c, 1, 73, 0
3, 183948, Note_on_c, 1, 72, 60
3, 183988, Note_on_c, 1, 72, 0
3, 184321, Program_c, 1, 48
3, 184666, Note_on_c, 1, 67, 60
3, 186202, Note_on_c, 1, 67, 0
3, 186202, Note_on_c, 1, 68, 63
3, 186970, Note_on_c, 1, 68, 0
3, 186970, Note_on_c, 1, 70, 66
3, 187774, Note_on_c, 1, 70, 0
3, 187774, Note_on_c, 1, 72, 70
3, 188042, Note_on_c, 1, 64, 65
3, 188074, Note_on_c, 1, 72, 0
3, 188306, Note_on_c, 1, 64, 0
3, 188306, Note_on_c, 1, 65, 65
3, 188556, Note_on_c, 1, 65, 0
3, 188578, Note_on_c, 1, 70, 75
3, 189134, Note_on_c, 1, 70, 0
3, 189134, Note_on_c, 1, 63, 65
3, 189598, Note_on_c, 1, 63, 0
3, 189622, Note_on_c, 1, 62, 65
3, 189890, Note_on_c, 1, 62, 0
3, 189890, Note_on_c, 1, 63, 65
3, 190158, Note_on_c, 1, 63, 0
3, 190158, Note_on_c, 1, 68, 68
3, 191438, Note_on_c, 1, 68, 0
3, 191438, Note_on_c, 1, 67, 65
3, 191688, Note_on_c, 1, 67, 0
3, 191714, Note_on_c, 1, 67, 65
3, 192742, Note_on_c, 1, 67, 0
3, 192742, Note_on_c, 1, 65, 65
3, 192986, Note_on_c, 1, 65, 0
3, 192986, Note_on_c, 1, 67, 68
3, 193230, Note_on_c, 1, 67, 0
3, 193230, Note_on_c, 1, 68, 71
3, 193954, Note_on_c, 1, 68, 0
3, 193994, Note_on_c, 1, 68, 65
3, 194498, Note_on_c, 1, 68, 0
3, 194498, Note_on_c, 1, 67, 60
3, 194718, Note_on_c, 1, 67, 0
3, 194746, Note_on_c, 1, 70, 68
3, 195250, Note_on_c, 1, 70, 0
3, 195250, Note_on_c, 1, 69, 63
3, 195470, Note_on_c, 1, 69, 0
3, 195506, Note_on_c, 1, 72, 72
3, 196022, Note_on_c, 1, 72, 0
3, 196022, Note_on_c, 1, 71, 65
3, 196242, Note_on_c, 1, 71, 0
3, 196266, Note_on_c, 1, 70, 75
3, 196786, Note_on_c, 1, 70, 0
3, 196786, Note_on_c, 1, 71, 65
3, 197050, Note_on_c, 1, 66, 65
3, 197086, Note_on_c, 1, 71, 0
3, 197290, Note_on_c, 1, 66, 0
3, 197290, Note_on_c, 1, 68, 65
3, 197550, Note_on_c, 1, 68, 0
3, 197550, Note_on_c, 1, 69, 65
3, 197770, Note_on_c, 1, 69, 0
3, 197798, Note_on_c, 1, 68, 65
3, 198062, Note_on_c, 1, 68, 0
3, 198062, Note_on_c, 1, 70, 65
3, 198310, Note_on_c, 1, 70, 0
3, 198310, Note_on_c, 1, 71, 65
3, 198530, Note_on_c, 1, 71, 0
3, 198558, Note_on_c, 1, 70, 65
3, 198802, Note_on_c, 1, 70, 0
3, 198802, Note_on_c, 1, 72, 65
3, 199062, Note_on_c, 1, 72, 0
3, 199062, Note_on_c, 1, 73, 65
3, 199314, Note_on_c, 1, 73, 0
3, 199314, Note_on_c, 1, 72, 65
3, 200048, Note_on_c, 1, 72, 0
3, 200065, Program_c, 1, 45
3, 200120, Note_on_c, 1, 71, 60
3, 200160, Note_on_c, 1, 71, 0
3, 200372, Note_on_c, 1, 72, 60
3, 200412, Note_on_c, 1, 72, 0
3, 204289, Program_c, 1, 48
3, 204658, Note_on_c, 1, 65, 60
3, 204914, Note_on_c, 1, 65, 0
3, 204914, Note_on_c, 1, 66, 60
3, 206206, Note_on_c, 1, 66, 0
3, 206226, Note_on_c, 1, 64, 60
3, 207009, Note_on_c, 1, 64, 0
3, 207010, Note_on_c, 1, 63, 60
3, 207774, Note_on_c, 1, 70, 60
3, 207778, Note_on_c, 1, 63, 0
3, 208566, Note_on_c, 1, 70, 0
3, 208566, Note_on_c, 1, 71, 60
3, 208826, Note_on_c, 1, 71, 0
3, 208826, Note_on_c, 1, 68, 60
3, 209370, Note_on_c, 1, 68, 0
3, 209370, Note_on_c, 1, 66, 60
3, 210936, Note_on_c, 1, 66, 0
3, 210974, Note_on_c, 1, 70, 60
3, 211778, Note_on_c, 1, 70, 0
3, 211778, Note_on_c, 1, 71, 60
3, 212054, Note_on_c, 1, 71, 0
3, 212054, Note_on_c, 1, 68, 60
3, 212606, Note_on_c, 1, 68, 0
3, 212606, Note_on_c, 1, 66, 60
3, 214978, Note_on_c, 1, 66, 0
3, 214978, Note_on_c, 1, 68, 60
3, 215782, Note_on_c, 1, 68, 0
3, 215782, Note_on_c, 1, 66, 60
3, 218152, Note_on_c, 1, 66, 0
3, 218162, Note_on_c, 1, 68, 60
3, 219070, Note_on_c, 1, 68, 0
3, 219070, Note_on_c, 1, 70, 60
3, 221994, Note_on_c, 1, 70, 0
3, 221994, Note_on_c, 1, 66, 60
3, 222282, Note_on_c, 1, 66, 0
3, 222282, Note_on_c, 1, 70, 60
3, 226422, Note_on_c, 1, 70, 0
3, 226434, Note_on_c, 1, 71, 60
3, 227266, Note_on_c, 1, 71, 0
3, 227266, Note_on_c, 1, 70, 60
3, 228078, Note_on_c, 1, 70, 0
3, 228078, Note_on_c, 1, 71, 60
3, 228865, Note_on_c, 1, 71, 0
3, 228865, Note_on_c, 1, 70, 60
3, 229666, Note_on_c, 1, 70, 0
3, 229666, Note_on_c, 1, 71, 60
3, 231230, Note_on_c, 1, 71, 0
3, 231230, Note_on_c, 1, 66, 60
3, 232846, Note_on_c, 1, 66, 0
3, 232882, Note_on_c, 1, 70, 60
3, 238484, Note_on_c, 1, 70, 0
3, 238490, Note_on_c, 1, 68, 60
3, 244046, Note_on_c, 1, 68, 0
3, 244062, Note_on_c, 1, 65, 60
3, 245682, Note_on_c, 1, 65, 0
3, 245682, Note_on_c, 1, 60, 60
3, 246774, Note_on_c, 1, 60, 0
3, 250369, Control_c, 1, 11, 80
3, 250782, Note_on_c, 1, 60, 90
3, 250932, Note_on_c, 1, 60, 0
3, 251074, Note_on_c, 1, 60, 90
3, 251224, Note_on_c, 1, 60, 0
3, 251370, Note_on_c, 1, 60, 90
3, 251520, Note_on_c, 1, 60, 0
3, 251662, Note_on_c, 1, 60, 90
3, 251812, Note_on_c, 1, 60, 0
3, 251946, Note_on_c, 1, 60, 90
3, 252096, Note_on_c, 1, 60, 0
3, 252104, Control_c, 1, 11, 60
3, 252222, Note_on_c, 1, 60, 60
3, 253074, Note_on_c, 1, 60, 0
3, 253074, Note_on_c, 1, 61, 60
3, 253910, Note_on_c, 1, 61, 0
3, 253910, Note_on_c, 1, 60, 60
3, 254766, Note_on_c, 1, 60, 0
3, 254766, Note_on_c, 1, 55, 60
3, 255614, Note_on_c, 1, 55, 0
3, 255614, Note_on_c, 1, 60, 60
3, 256512, Note_on_c, 1, 60, 0
3, 256513, Note_on_c, 1, 61, 60
3, 257358, Note_on_c, 1, 61, 0
3, 257358, Note_on_c, 1, 60, 60
3, 258234, Note_on_c, 1, 60, 0
3, 258234, Note_on_c, 1, 55, 60
3, 259082, Note_on_c, 1, 55, 0
3, 259082, Note_on_c, 1, 60, 60
3, 259946, Note_on_c, 1, 60, 0
3, 259946, Note_on_c, 1, 55, 60
3, 260810, Note_on_c, 1, 55, 0
3, 260810, Note_on_c, 1, 60, 60
3, 261714, Note_on_c, 1, 60, 0
3, 261714, Note_on_c, 1, 55, 60
3, 267372, Note_on_c, 1, 55, 0
3, 276481, Control_c, 1, 11, 50
3, 277030, Note_on_c, 1, 70, 60
3, 277290, Note_on_c, 1, 70, 0
3, 283114, Note_on_c, 1, 60, 40
3, 283858, Note_on_c, 1, 64, 55
3, 283860, Note_on_c, 1, 60, 0
3, 284558, Note_on_c, 1, 64, 0
3, 284558, Note_on_c, 1, 65, 55
3, 284898, Note_on_c, 1, 65, 0
3, 285894, Note_on_c, 1, 64, 55
3, 286166, Note_on_c, 1, 64, 0
3, 286166, Note_on_c, 1, 65, 55
3, 287614, Note_on_c, 1, 66, 55
3, 287618, Note_on_c, 1, 65, 0
3, 288402, Note_on_c, 1, 66, 0
3, 288402, Note_on_c, 1, 65, 55
3, 288694, Note_on_c, 1, 65, 0
3, 288694, Note_on_c, 1, 64, 55
3, 288984, Note_on_c, 1, 64, 0
3, 289194, Note_on_c, 1, 60, 55
3, 289938, Note_on_c, 1, 60, 0
3, 289938, Note_on_c, 1, 64, 55
3, 290726, Note_on_c, 1, 64, 0
3, 290726, Note_on_c, 1, 65, 55
3, 290976, Note_on_c, 1, 65, 0
3, 291918, Note_on_c, 1, 64, 55
3, 292186, Note_on_c, 1, 65, 55
3, 292188, Note_on_c, 1, 64, 0
3, 292910, Note_on_c, 1, 65, 0
3, 292938, Note_on_c, 1, 65, 55
3, 293166, Note_on_c, 1, 65, 0
3, 293166, Note_on_c, 1, 64, 55
3, 293402, Note_on_c, 1, 64, 0
3, 293402, Note_on_c, 1, 63, 55
3, 293602, Note_on_c, 1, 63, 0
3, 293630, Note_on_c, 1, 63, 55
3, 293866, Note_on_c, 1, 63, 0
3, 293866, Note_on_c, 1, 61, 55
3, 294086, Note_on_c, 1, 61, 0
3, 294114, Note_on_c, 1, 64, 55
3, 294374, Note_on_c, 1, 64, 0
3, 294374, Note_on_c, 1, 65, 55
3, 294597, Control_c, 1, 11, 110
3, 294634, Note_on_c, 1, 65, 0
3, 294886, Note_on_c, 1, 77, 90
3, 294994, Note_on_c, 1, 77, 0
3, 294994, Note_on_c, 1, 75, 83
3, 295114, Note_on_c, 1, 75, 0
3, 295114, Note_on_c, 1, 73, 80
3, 295314, Note_on_c, 1, 73, 0
3, 295366, Note_on_c, 1, 72, 80
3, 295486, Note_on_c, 1, 72, 0
3, 295486, Note_on_c, 1, 70, 80
3, 295614, Note_on_c, 1, 70, 0
3, 295614, Note_on_c, 1, 68, 80
3, 295814, Note_on_c, 1, 68, 0
3, 295874, Note_on_c, 1, 70, 80
3, 295974, Note_on_c, 1, 70, 0
3, 296138, Note_on_c, 1, 72, 80
3, 296238, Note_on_c, 1, 72, 0
3, 296394, Note_on_c, 1, 80, 90
3, 296514, Note_on_c, 1, 80, 0
3, 296514, Note_on_c, 1, 79, 80
3, 296646, Note_on_c, 1, 79, 0
3, 296646, Note_on_c, 1, 77, 80
3, 296846, Note_on_c, 1, 77, 0
3, 296918, Note_on_c, 1, 75, 80
3, 297034, Note_on_c, 1, 75, 0
3, 297034, Note_on_c, 1, 74, 80
3, 297170, Note_on_c, 1, 74, 0
3, 297170, Note_on_c, 1, 72, 80
3, 297370, Note_on_c, 1, 72, 0
3, 297426, Note_on_c, 1, 71, 80
3, 297426, Note_on_c, 1, 62, 80
3, 297426, Note_on_c, 1, 55, 80
3, 297526, Note_on_c, 1, 55, 0
3, 297526, Note_on_c, 1, 62, 0
3, 297526, Note_on_c, 1, 71, 0
3, 297669, Control_c, 1, 11, 120
3, 297694, Note_on_c, 1, 72, 80
3, 297694, Note_on_c, 1, 64, 80
3, 297794, Note_on_c, 1, 64, 0
3, 297794, Note_on_c, 1, 72, 0
3, 297962, Note_on_c, 1, 84, 95
3, 298082, Note_on_c, 1, 84, 0
3, 298082, Note_on_c, 1, 82, 92
3, 298210, Note_on_c, 1, 82, 0
3, 298210, Note_on_c, 1, 80, 88
3, 298460, Note_on_c, 1, 80, 0
3, 298482, Note_on_c, 1, 79, 95
3, 298606, Note_on_c, 1, 79, 0
3, 298606, Note_on_c, 1, 77, 82
3, 298746, Note_on_c, 1, 77, 0
3, 298746, Note_on_c, 1, 76, 82
3, 298986, Note_on_c, 1, 76, 0
3, 299014, Note_on_c, 1, 77, 82
3, 299254, Note_on_c, 1, 77, 0
3, 299262, Note_on_c, 1, 75, 95
3, 299378, Note_on_c, 1, 75, 0
3, 299378, Note_on_c, 1, 73, 80
3, 299518, Note_on_c, 1, 73, 0
3, 299518, Note_on_c, 1, 72, 80
3, 299758, Note_on_c, 1, 72, 0
3, 299794, Note_on_c, 1, 73, 82
3, 300046, Note_on_c, 1, 72, 80
3, 300050, Note_on_c, 1, 73, 0
3, 300150, Note_on_c, 1, 72, 0
3, 300158, Note_on_c, 1, 70, 78
3, 300294, Note_on_c, 1, 70, 0
3, 300302, Note_on_c, 1, 68, 78
3, 300522, Note_on_c, 1, 68, 0
3, 300562, Note_on_c, 1, 70, 75
3, 300662, Note_on_c, 1, 70, 0
3, 300834, Note_on_c, 1, 72, 75
3, 300934, Note_on_c, 1, 72, 0
3, 301125, Control_c, 1, 11, 65
3, 301346, Note_on_c, 1, 60, 55
3, 302058, Note_on_c, 1, 60, 0
3, 302058, Note_on_c, 1, 64, 55
3, 302842, Note_on_c, 1, 64, 0
3, 302842, Note_on_c, 1, 65, 55
3, 303092, Note_on_c, 1, 65, 0
3, 304129, Control_c, 1, 11, 60
3, 304513, Note_on_c, 1, 63, 60
3, 305286, Note_on_c, 1, 63, 0
3, 305286, Note_on_c, 1, 67, 60
3, 306058, Note_on_c, 1, 67, 0
3, 306058, Note_on_c, 1, 70, 60
3, 309894, Note_on_c, 1, 68, 60
3, 309898, Note_on_c, 1, 70, 0
3, 310628, Note_on_c, 1, 68, 0
3, 310658, Note_on_c, 1, 68, 60
3, 312974, Note_on_c, 1, 68, 0
3, 312974, Note_on_c, 1, 66, 60
3, 313516, Note_on_c, 1, 66, 0
3, 313516, Note_on_c, 1, 64, 60
3, 313742, Note_on_c, 1, 63, 60
3, 313752, Note_on_c, 1, 64, 0
3, 314498, Note_on_c, 1, 64, 60
3, 314510, Note_on_c, 1, 63, 0
3, 316033, Note_on_c, 1, 65, 60
3, 316034, Note_on_c, 1, 64, 0
3, 316787, Note_on_c, 1, 65, 0
3, 316826, Note_on_c, 1, 65, 75
3, 317568, Note_on_c, 1, 65, 0
3, 317569, Note_on_c, 1, 68, 70
3, 317821, Note_on_c, 1, 68, 0
3, 318318, Note_on_c, 1, 65, 75
3, 319054, Note_on_c, 1, 65, 0
3, 319054, Note_on_c, 1, 68, 70
3, 319306, Note_on_c, 1, 68, 0
3, 319814, Note_on_c, 1, 65, 75
3, 320538, Note_on_c, 1, 65, 0
3, 320554, Note_on_c, 1, 65, 75
3, 321283, Note_on_c, 1, 65, 0
3, 321310, Note_on_c, 1, 65, 75
3, 322039, Note_on_c, 1, 65, 0
3, 322062, Note_on_c, 1, 65, 70
3, 323066, Note_on_c, 1, 65, 0
3, 323066, Note_on_c, 1, 64, 65
3, 323310, Note_on_c, 1, 64, 0
3, 323310, Note_on_c, 1, 65, 65
3, 323542, Note_on_c, 1, 65, 0
3, 323542, Note_on_c, 1, 64, 65
3, 324074, Note_on_c, 1, 64, 0
3, 324074, Note_on_c, 1, 65, 65
3, 324342, Note_on_c, 1, 65, 0
3, 324342, Note_on_c, 1, 64, 65
3, 324574, Note_on_c, 1, 62, 75
3, 324584, Note_on_c, 1, 64, 0
3, 325050, Note_on_c, 1, 62, 0
3, 325050, Note_on_c, 1, 64, 65
3, 325326, Note_on_c, 1, 65, 80
3, 325328, Note_on_c, 1, 64, 0
3, 325798, Note_on_c, 1, 65, 0
3, 325798, Note_on_c, 1, 60, 65
3, 326266, Note_on_c, 1, 60, 0
3, 328158, Note_on_c, 1, 57, 65
3, 328398, Note_on_c, 1, 57, 0
3, 328398, Note_on_c, 1, 58, 75
3, 328666, Note_on_c, 1, 58, 0
3, 328666, Note_on_c, 1, 65, 80
3, 329050, Note_on_c, 1, 65, 0
3, 330754, Control_c, 1, 11, 100
3, 331277, Note_on_c, 1, 76, 77
3, 331353, Note_on_c, 1, 76, 0
3, 331529, Note_on_c, 1, 77, 90
3, 331633, Note_on_c, 1, 77, 0
3, 331777, Note_on_c, 1, 79, 88
3, 331777, Note_on_c, 1, 72, 88
3, 331845, Note_on_c, 1, 72, 0
3, 331845, Note_on_c, 1, 79, 0
3, 332017, Note_on_c, 1, 81, 85
3, 332017, Note_on_c, 1, 72, 85
3, 332113, Note_on_c, 1, 72, 0
3, 332113, Note_on_c, 1, 81, 0
3, 332269, Note_on_c, 1, 82, 81
3, 332397, Note_on_c, 1, 82, 0
3, 332525, Note_on_c, 1, 84, 85
3, 332525, Note_on_c, 1, 77, 85
3, 332641, Note_on_c, 1, 77, 0
3, 332641, Note_on_c, 1, 84, 0
3, 332789, Note_on_c, 1, 85, 85
3, 332789, Note_on_c, 1, 77, 85
3, 332933, Note_on_c, 1, 77, 0
3, 332933, Note_on_c, 1, 85, 0
3, 333065, Note_on_c, 1, 84, 87
3, 333065, Note_on_c, 1, 77, 87
3, 333529, Note_on_c, 1, 77, 0
3, 333529, Note_on_c, 1, 84, 0
3, 334793, Note_on_c, 1, 72, 75
3, 334889, Note_on_c, 1, 72, 0
3, 335045, Note_on_c, 1, 77, 82
3, 335121, Note_on_c, 1, 77, 0
3, 335289, Note_on_c, 1, 80, 93
3, 335289, Note_on_c, 1, 72, 93
3, 335365, Note_on_c, 1, 72, 0
3, 335365, Note_on_c, 1, 80, 0
3, 335545, Note_on_c, 1, 84, 77
3, 335545, Note_on_c, 1, 72, 77
3, 335637, Note_on_c, 1, 72, 0
3, 335637, Note_on_c, 1, 84, 0
3, 335793, Note_on_c, 1, 89, 90
3, 335889, Note_on_c, 1, 89, 0
3, 336053, Note_on_c, 1, 92, 88
3, 336297, Note_on_c, 1, 92, 0
3, 338121, Note_on_c, 1, 79, 79
3, 338121, Note_on_c, 1, 72, 79
3, 338121, Note_on_c, 1, 64, 79
3, 338297, Note_on_c, 1, 64, 0
3, 338297, Note_on_c, 1, 72, 0
3, 338297, Note_on_c, 1, 79, 0
3, 338373, Note_on_c, 1, 80, 73
3, 338373, Note_on_c, 1, 72, 73
3, 338373, Note_on_c, 1, 65, 73
3, 338521, Note_on_c, 1, 65, 0
3, 338521, Note_on_c, 1, 72, 0
3, 338521, Note_on_c, 1, 80, 0
3, 338873, Note_on_c, 1, 79, 74
3, 338873, Note_on_c, 1, 72, 74
3, 338873, Note_on_c, 1, 64, 74
3, 339025, Note_on_c, 1, 64, 0
3, 339025, Note_on_c, 1, 72, 0
3, 339025, Note_on_c, 1, 79, 0
3, 339121, Note_on_c, 1, 80, 74
3, 339121, Note_on_c, 1, 72, 74
3, 339121, Note_on_c, 1, 65, 74
3, 339305, Note_on_c, 1, 65, 0
3, 339305, Note_on_c, 1, 72, 0
3, 339305, Note_on_c, 1, 80, 0
3, 339377, Note_on_c, 1, 84, 74
3, 339377, Note_on_c, 1, 72, 74
3, 339497, Note_on_c, 1, 72, 0
3, 339497, Note_on_c, 1, 84, 0
3, 339637, Note_on_c, 1, 76, 72
3, 339637, Note_on_c, 1, 72, 72
3, 339801, Note_on_c, 1, 72, 0
3, 339801, Note_on_c, 1, 76, 0
3, 339905, Note_on_c, 1, 77, 76
3, 339905, Note_on_c, 1, 72, 76
3, 340065, Note_on_c, 1, 72, 0
3, 340065, Note_on_c, 1, 77, 0
3, 340157, Note_on_c, 1, 79, 76
3, 340157, Note_on_c, 1, 70, 76
3, 340329, Note_on_c, 1, 70, 0
3, 340329, Note_on_c, 1, 79, 0
3, 340421, Note_on_c, 1, 76, 74
3, 340421, Note_on_c, 1, 70, 74
3, 340577, Note_on_c, 1, 70, 0
3, 340577, Note_on_c, 1, 76, 0
3, 340677, Note_on_c, 1, 77, 79
3, 340677, Note_on_c, 1, 68, 79
3, 340861, Note_on_c, 1, 68, 0
3, 340861, Note_on_c, 1, 77, 0
3, 341169, Note_on_c, 1, 79, 76
3, 341169, Note_on_c, 1, 72, 76
3, 341169, Note_on_c, 1, 64, 76
3, 341317, Note_on_c, 1, 64, 0
3, 341317, Note_on_c, 1, 72, 0
3, 341317, Note_on_c, 1, 79, 0
3, 341425, Note_on_c, 1, 80, 65
3, 341425, Note_on_c, 1, 72, 65
3, 341425, Note_on_c, 1, 65, 65
3, 341577, Note_on_c, 1, 65, 0
3, 341577, Note_on_c, 1, 72, 0
3, 341577, Note_on_c, 1, 80, 0
3, 341929, Note_on_c, 1, 79, 72
3, 341929, Note_on_c, 1, 72, 72
3, 341929, Note_on_c, 1, 64, 72
3, 342069, Note_on_c, 1, 64, 0
3, 342069, Note_on_c, 1, 72, 0
3, 342069, Note_on_c, 1, 79, 0
3, 342189, Note_on_c, 1, 80, 71
3, 342189, Note_on_c, 1, 72, 71
3, 342329, Note_on_c, 1, 72, 0
3, 342329, Note_on_c, 1, 80, 0
3, 342437, Note_on_c, 1, 84, 77
3, 342437, Note_on_c, 1, 72, 77
3, 342569, Note_on_c, 1, 72, 0
3, 342569, Note_on_c, 1, 84, 0
3, 342689, Note_on_c, 1, 84, 74
3, 342825, Note_on_c, 1, 84, 0
3, 342949, Note_on_c, 1, 84, 71
3, 343097, Note_on_c, 1, 84, 0
3, 343205, Note_on_c, 1, 86, 81
3, 343325, Note_on_c, 1, 86, 0
3, 343461, Note_on_c, 1, 88, 74
3, 343597, Note_on_c, 1, 88, 0
3, 343745, Note_on_c, 1, 89, 82
3, 344329, Note_on_c, 1, 89, 0
3, 345601, Control_c, 1, 11, 65
3, 347137, Program_c, 1, 45
3, 348673, Note_on_c, 1, 69, 70
3, 348713, Note_on_c, 1, 69, 0
3, 349525, Note_on_c, 1, 69, 70
3, 349565, Note_on_c, 1, 69, 0
3, 350373, Note_on_c, 1, 69, 70
3, 350413, Note_on_c, 1, 69, 0
3, 350649, Note_on_c, 1, 69, 70
3, 350689, Note_on_c, 1, 69, 0
3, 350933, Note_on_c, 1, 69, 70
3, 350973, Note_on_c, 1, 69, 0
3, 351221, Note_on_c, 1, 65, 70
3, 351261, Note_on_c, 1, 65, 0
3, 351745, Program_c, 1, 48
3, 352050, Note_on_c, 1, 64, 70
3, 352918, Note_on_c, 1, 64, 0
3, 352919, Note_on_c, 1, 65, 70
3, 353783, Note_on_c, 1, 65, 0
3, 353783, Note_on_c, 1, 64, 70
3, 354083, Note_on_c, 1, 64, 0
3, 355201, Program_c, 1, 45
3, 355557, Note_on_c, 1, 69, 70
3, 355597, Note_on_c, 1, 69, 0
3, 356433, Note_on_c, 1, 69, 70
3, 356473, Note_on_c, 1, 69, 0
3, 357293, Note_on_c, 1, 69, 70
3, 357333, Note_on_c, 1, 69, 0
3, 357573, Note_on_c, 1, 69, 70
3, 357613, Note_on_c, 1, 69, 0
3, 357861, Note_on_c, 1, 69, 70
3, 357901, Note_on_c, 1, 69, 0
3, 358153, Note_on_c, 1, 65, 70
3, 358193, Note_on_c, 1, 65, 0
3, 358657, Program_c, 1, 48
3, 358958, Note_on_c, 1, 64, 70
3, 359831, Note_on_c, 1, 64, 0
3, 359831, Note_on_c, 1, 65, 70
3, 360691, Note_on_c, 1, 65, 0
3, 360691, Note_on_c, 1, 64, 70
3, 360991, Note_on_c, 1, 64, 0
3, 362131, Note_on_c, 1, 64, 70
3, 362419, Note_on_c, 1, 64, 0
3, 362419, Note_on_c, 1, 65, 70
3, 362497, Program_c, 1, 48
3, 362719, Note_on_c, 1, 65, 0
3, 363287, Note_on_c, 1, 65, 80
3, 363871, Note_on_c, 1, 65, 0
3, 363871, Note_on_c, 1, 64, 70
3, 364167, Note_on_c, 1, 64, 0
3, 364167, Note_on_c, 1, 65, 70
3, 364467, Note_on_c, 1, 65, 0
3, 365019, Note_on_c, 1, 65, 80
3, 365599, Note_on_c, 1, 65, 0
3, 365599, Note_on_c, 1, 64, 70
3, 365895, Note_on_c, 1, 64, 0
3, 365895, Note_on_c, 1, 65, 70
3, 369317, Note_on_c, 1, 65, 0
3, 369378, Note_on_c, 1, 65, 80
3, 370231, Note_on_c, 1, 66, 65
3, 370610, Note_on_c, 1, 65, 0
3, 371071, Note_on_c, 1, 66, 0
3, 371071, Note_on_c, 1, 65, 65
3, 371935, Note_on_c, 1, 66, 65
3, 371945, Note_on_c, 1, 65, 0
3, 372783, Note_on_c, 1, 66, 0
3, 372831, Note_on_c, 1, 65, 65
3, 373683, Note_on_c, 1, 65, 0
3, 373683, Note_on_c, 1, 66, 65
3, 374535, Note_on_c, 1, 66, 0
3, 374535, Note_on_c, 1, 65, 65
3, 374805, Note_on_c, 1, 65, 0
3, 375947, Note_on_c, 1, 74, 85
3, 375947, Note_on_c, 1, 65, 85
3, 376217, Note_on_c, 1, 74, 0
3, 376247, Note_on_c, 1, 65, 0
3, 376267, Note_on_c, 1, 72, 85
3, 376267, Note_on_c, 1, 65, 85
3, 376567, Note_on_c, 1, 65, 0
3, 376567, Note_on_c, 1, 72, 0
3, 382883, Note_on_c, 1, 76, 90
3, 382883, Note_on_c, 1, 70, 90
3, 383153, Note_on_c, 1, 70, 0
3, 383153, Note_on_c, 1, 76, 0
3, 383199, Note_on_c, 1, 77, 90
3, 383199, Note_on_c, 1, 69, 90
3, 383469, Note_on_c, 1, 69, 0
3, 383469, Note_on_c, 1, 77, 0
3, 384001, Program_c, 1, 45
3, 384133, Note_on_c, 1, 69, 70
3, 384173, Note_on_c, 1, 69, 0
3, 384989, Note_on_c, 1, 69, 70
3, 385029, Note_on_c, 1, 69, 0
3, 385269, Note_on_c, 1, 69, 70
3, 385309, Note_on_c, 1, 69, 0
3, 385549, Note_on_c, 1, 69, 70
3, 385589, Note_on_c, 1, 69, 0
3, 385837, Note_on_c, 1, 65, 70
3, 385877, Note_on_c, 1, 65, 0
3, 386305, Program_c, 1, 48
3, 386646, Note_on_c, 1, 64, 70
3, 387507, Note_on_c, 1, 65, 70
3, 387508, Note_on_c, 1, 64, 0
3, 388379, Note_on_c, 1, 65, 0
3, 388379, Note_on_c, 1, 64, 70
3, 388609, Program_c, 1, 45
3, 388679, Note_on_c, 1, 64, 0
3, 390145, Note_on_c, 1, 69, 70
3, 390185, Note_on_c, 1, 69, 0
3, 391037, Note_on_c, 1, 69, 70
3, 391077, Note_on_c, 1, 69, 0
3, 391905, Note_on_c, 1, 69, 70
3, 391945, Note_on_c, 1, 69, 0
3, 392193, Note_on_c, 1, 69, 70
3, 392233, Note_on_c, 1, 69, 0
3, 392481, Note_on_c, 1, 69, 70
3, 392521, Note_on_c, 1, 69, 0
3, 392769, Note_on_c, 1, 65, 70
3, 392809, Note_on_c, 1, 65, 0
3, 393217, Program_c, 1, 48
3, 393566, Note_on_c, 1, 64, 70
3, 394423, Note_on_c, 1, 64, 0
3, 394423, Note_on_c, 1, 65, 70
3, 395237, Note_on_c, 1, 65, 0
3, 395287, Note_on_c, 1, 64, 70
3, 395587, Note_on_c, 1, 64, 0
3, 396735, Note_on_c, 1, 64, 70
3, 397023, Note_on_c, 1, 65, 70
3, 397025, Note_on_c, 1, 64, 0
3, 397323, Note_on_c, 1, 65, 0
3, 397899, Note_on_c, 1, 65, 80
3, 398483, Note_on_c, 1, 65, 0
3, 398483, Note_on_c, 1, 64, 70
3, 398676, Note_on_c, 1, 64, 0
3, 398775, Note_on_c, 1, 65, 70
3, 399075, Note_on_c, 1, 65, 0
3, 399623, Note_on_c, 1, 65, 80
3, 400214, Note_on_c, 1, 65, 0
3, 400215, Note_on_c, 1, 64, 70
3, 400503, Note_on_c, 1, 65, 70
3, 400505, Note_on_c, 1, 64, 0
3, 401383, Note_on_c, 1, 64, 70
3, 401393, Note_on_c, 1, 65, 0
3, 402247, Note_on_c, 1, 64, 0
3, 402247, Note_on_c, 1, 63, 70
3, 403099, Note_on_c, 1, 61, 70
3, 403105, Note_on_c, 1, 63, 0
3, 403917, Note_on_c, 1, 61, 0
3, 403958, Note_on_c, 1, 66, 70
3, 404835, Note_on_c, 1, 66, 0
3, 404835, Note_on_c, 1, 65, 70
3, 405699, Note_on_c, 1, 64, 70
3, 405703, Note_on_c, 1, 65, 0
3, 406567, Note_on_c, 1, 64, 0
3, 406567, Note_on_c, 1, 62, 70
3, 407425, Note_on_c, 1, 62, 0
3, 407425, Note_on_c, 1, 67, 70
3, 408291, Note_on_c, 1, 67, 0
3, 408291, Note_on_c, 1, 66, 70
3, 409147, Note_on_c, 1, 65, 70
3, 409149, Note_on_c, 1, 66, 0
3, 409979, Note_on_c, 1, 64, 70
3, 409985, Note_on_c, 1, 65, 0
3, 410904, Note_on_c, 1, 64, 0
3, 410907, Note_on_c, 1, 65, 70
3, 411207, Note_on_c, 1, 65, 0
3, 414111, Note_on_c, 1, 62, 70
3, 414379, Note_on_c, 1, 62, 0
3, 414379, Note_on_c, 1, 60, 72
3, 414947, Note_on_c, 1, 60, 0
3, 414947, Note_on_c, 1, 62, 75
3, 415765, Note_on_c, 1, 62, 0
3, 415795, Note_on_c, 1, 64, 78
3, 416643, Note_on_c, 1, 64, 0
3, 416643, Note_on_c, 1, 65, 82
3, 416947, Note_on_c, 1, 65, 0
3, 416947, Note_on_c, 1, 67, 85
3, 417231, Note_on_c, 1, 67, 0
3, 417231, Note_on_c, 1, 69, 88
3, 417507, Note_on_c, 1, 69, 0
3, 417507, Note_on_c, 1, 70, 91
3, 417807, Note_on_c, 1, 70, 0
3, 417835, Note_on_c, 1, 72, 95
3, 419671, Note_on_c, 1, 72, 0
3, 420012, Note_on_c, 1, 76, 85
3, 420312, Note_on_c, 1, 76, 0
3, 420368, Note_on_c, 1, 77, 88
3, 420668, Note_on_c, 1, 77, 0
3, 420732, Note_on_c, 1, 79, 90
3, 421286, Note_on_c, 1, 79, 0
3, 421288, Note_on_c, 1, 81, 90
3, 421488, Note_on_c, 1, 81, 0
3, 421504, Note_on_c, 1, 79, 90
3, 422088, Note_on_c, 1, 79, 0
3, 423169, Control_c, 1, 11, 50
3, 423290, Note_on_c, 1, 69, 60
3, 423514, Control_c, 1, 11, 49
3, 423860, Control_c, 1, 11, 48
3, 424205, Control_c, 1, 11, 47
3, 424551, Control_c, 1, 11, 46
3, 424897, Control_c, 1, 11, 45
3, 425242, Control_c, 1, 11, 44
3, 425588, Control_c, 1, 11, 43
3, 425933, Control_c, 1, 11, 42
3, 426279, Control_c, 1, 11, 41
3, 426625, Control_c, 1, 11, 40
3, 426970, Control_c, 1, 11, 39
3, 427316, Control_c, 1, 11, 38
3, 427661, Control_c, 1, 11, 37
3, 428007, Control_c, 1, 11, 36
3, 428353, Control_c, 1, 11, 35
3, 428698, Control_c, 1, 11, 34
3, 429044, Control_c, 1, 11, 33
3, 429389, Control_c, 1, 11, 32
3, 429735, Control_c, 1, 11, 31
3, 430081, Control_c, 1, 11, 30
3, 431160, Note_on_c, 1, 69, 0
3, 435841, Control_c, 1, 11, 60
3, 435886, Control_c, 1, 11, 61
3, 435932, Control_c, 1, 11, 62
3, 435978, Control_c, 1, 11, 63
3, 436024, Control_c, 1, 11, 64
3, 436070, Control_c, 1, 11, 65
3, 436090, Note_on_c, 1, 65, 60
3, 436116, Control_c, 1, 11, 66
3, 436162, Control_c, 1, 11, 67
3, 436208, Control_c, 1, 11, 68
3, 436253, Control_c, 1, 11, 69
3, 436299, Control_c, 1, 11, 70
3, 436345, Control_c, 1, 11, 71
3, 436391, Control_c, 1, 11, 72
3, 436437, Control_c, 1, 11, 73
3, 436483, Control_c, 1, 11, 74
3, 436529, Control_c, 1, 11, 75
3, 436575, Control_c, 1, 11, 76
3, 436620, Control_c, 1, 11, 77
3, 436666, Control_c, 1, 11, 78
3, 436712, Control_c, 1, 11, 79
3, 436758, Control_c, 1, 11, 80
3, 436804, Control_c, 1, 11, 81
3, 436850, Control_c, 1, 11, 82
3, 436896, Control_c, 1, 11, 83
3, 436942, Control_c, 1, 11, 84
3, 436987, Control_c, 1, 11, 85
3, 437033, Control_c, 1, 11, 86
3, 437079, Control_c, 1, 11, 87
3, 437125, Control_c, 1, 11, 88
3, 437171, Control_c, 1, 11, 89
3, 437217, Control_c, 1, 11, 90
3, 437263, Control_c, 1, 11, 91
3, 437309, Control_c, 1, 11, 92
3, 437354, Control_c, 1, 11, 93
3, 437400, Control_c, 1, 11, 94
3, 437446, Control_c, 1, 11, 95
3, 437492, Control_c, 1, 11, 96
3, 437538, Control_c, 1, 11, 97
3, 437584, Control_c, 1, 11, 98
3, 437630, Control_c, 1, 11, 99
3, 437676, Note_on_c, 1, 65, 0
3, 437676, Control_c, 1, 11, 100
3, 438529, Note_on_c, 1, 81, 90
3, 438529, Note_on_c, 1, 72, 90
3, 438529, Note_on_c, 1, 65, 90
3, 438629, Note_on_c, 1, 65, 0
3, 438629, Note_on_c, 1, 72, 0
3, 438629, Note_on_c, 1, 81, 0
3, 438805, Note_on_c, 1, 81, 90
3, 438805, Note_on_c, 1, 72, 90
3, 438805, Note_on_c, 1, 65, 90
3, 438905, Note_on_c, 1, 65, 0
3, 438905, Note_on_c, 1, 72, 0
3, 438905, Note_on_c, 1, 81, 0
3, 439085, Note_on_c, 1, 81, 90
3, 439085, Note_on_c, 1, 72, 90
3, 439085, Note_on_c, 1, 65, 90
3, 439185, Note_on_c, 1, 65, 0
3, 439185, Note_on_c, 1, 72, 0
3, 439185, Note_on_c, 1, 81, 0
3, 439357, Note_on_c, 1, 81, 90
3, 439357, Note_on_c, 1, 72, 90
3, 439357, Note_on_c, 1, 65, 90
3, 439557, Note_on_c, 1, 65, 0
3, 439557, Note_on_c, 1, 72, 0
3, 439557, Note_on_c, 1, 81, 0
3, 440155, Note_on_c, 1, 81, 90
3, 440155, Note_on_c, 1, 72, 90
3, 440155, Note_on_c, 1, 65, 90
3, 440455, Note_on_c, 1, 65, 0
3, 440455, Note_on_c, 1, 72, 0
3, 440455, Note_on_c, 1, 81, 0
3, 440911, Note_on_c, 1, 65, 90
3, 440967, Note_on_c, 1, 65, 0
3, 440995, Note_on_c, 1, 65, 100
3, 441763, Note_on_c, 1, 65, 0
3, 442369, Control_c, 1, 121, 0
3, 442369, End_track
4, 0, Start_track
4, 0, MIDI_port, 0
4, 0, Title_t, "2nd Violins"
4, 0, Program_c, 2, 48
4, 0, Control_c, 2, 7, 127
4, 0, Control_c, 2, 10, 30
4, 1153, Control_c, 2, 91, 127
4, 1537, Control_c, 2, 11, 50
4, 1574, Note_on_c, 2, 56, 55
4, 2318, Note_on_c, 2, 58, 55
4, 2320, Note_on_c, 2, 56, 0
4, 3018, Note_on_c, 2, 58, 0
4, 3018, Note_on_c, 2, 56, 55
4, 3358, Note_on_c, 2, 56, 0
4, 4354, Note_on_c, 2, 58, 55
4, 4626, Note_on_c, 2, 58, 0
4, 4626, Note_on_c, 2, 56, 55
4, 4878, Note_on_c, 2, 56, 0
4, 4878, Note_on_c, 2, 58, 55
4, 5134, Note_on_c, 2, 58, 0
4, 5134, Note_on_c, 2, 60, 55
4, 5366, Note_on_c, 2, 60, 0
4, 5366, Note_on_c, 2, 61, 55
4, 6862, Note_on_c, 2, 61, 0
4, 6862, Note_on_c, 2, 60, 55
4, 7444, Note_on_c, 2, 60, 0
4, 7654, Note_on_c, 2, 56, 55
4, 8398, Note_on_c, 2, 56, 0
4, 8398, Note_on_c, 2, 58, 55
4, 9186, Note_on_c, 2, 58, 0
4, 9186, Note_on_c, 2, 56, 55
4, 9436, Note_on_c, 2, 56, 0
4, 10378, Note_on_c, 2, 58, 55
4, 10646, Note_on_c, 2, 56, 55
4, 10648, Note_on_c, 2, 58, 0
4, 11370, Note_on_c, 2, 56, 0
4, 11398, Note_on_c, 2, 56, 55
4, 11626, Note_on_c, 2, 56, 0
4, 11626, Note_on_c, 2, 58, 55
4, 11862, Note_on_c, 2, 58, 0
4, 11862, Note_on_c, 2, 57, 55
4, 12090, Note_on_c, 2, 57, 0
4, 12090, Note_on_c, 2, 58, 55
4, 12673, Control_c, 2, 11, 60
4, 12834, Note_on_c, 2, 58, 0
4, 12834, Note_on_c, 2, 56, 70
4, 13057, Control_c, 2, 11, 65
4, 13090, Note_on_c, 2, 56, 0
4, 13090, Note_on_c, 2, 58, 80
4, 13346, Note_on_c, 2, 58, 0
4, 13346, Note_on_c, 2, 65, 90
4, 13346, Note_on_c, 2, 60, 90
4, 13546, Note_on_c, 2, 60, 0
4, 13574, Note_on_c, 2, 65, 0
4, 13574, Note_on_c, 2, 65, 80
4, 13774, Note_on_c, 2, 65, 0
4, 13826, Note_on_c, 2, 64, 80
4, 13826, Note_on_c, 2, 55, 80
4, 14074, Note_on_c, 2, 55, 0
4, 14074, Note_on_c, 2, 64, 0
4, 14074, Note_on_c, 2, 65, 80
4, 14274, Note_on_c, 2, 65, 0
4, 14334, Note_on_c, 2, 67, 80
4, 14334, Note_on_c, 2, 61, 80
4, 14434, Note_on_c, 2, 61, 0
4, 14434, Note_on_c, 2, 67, 0
4, 14598, Note_on_c, 2, 68, 80
4, 14598, Note_on_c, 2, 60, 80
4, 14698, Note_on_c, 2, 60, 0
4, 14698, Note_on_c, 2, 68, 0
4, 14854, Note_on_c, 2, 68, 90
4, 14854, Note_on_c, 2, 60, 90
4, 15106, Note_on_c, 2, 60, 0
4, 15106, Note_on_c, 2, 68, 0
4, 15106, Note_on_c, 2, 68, 80
4, 15306, Note_on_c, 2, 68, 0
4, 15378, Note_on_c, 2, 67, 80
4, 15628, Note_on_c, 2, 67, 0
4, 15630, Note_on_c, 2, 68, 80
4, 15630, Note_on_c, 2, 62, 80
4, 15830, Note_on_c, 2, 62, 0
4, 15830, Note_on_c, 2, 68, 0
4, 15886, Note_on_c, 2, 65, 80
4, 15986, Note_on_c, 2, 65, 0
4, 16154, Note_on_c, 2, 55, 80
4, 16254, Note_on_c, 2, 55, 0
4, 16422, Note_on_c, 2, 72, 95
4, 16422, Note_on_c, 2, 64, 95
4, 16670, Note_on_c, 2, 64, 0
4, 16670, Note_on_c, 2, 72, 0
4, 16670, Note_on_c, 2, 72, 88
4, 16670, Note_on_c, 2, 65, 88
4, 16920, Note_on_c, 2, 65, 0
4, 16920, Note_on_c, 2, 72, 0
4, 16942, Note_on_c, 2, 73, 95
4, 17206, Note_on_c, 2, 73, 0
4, 17206, Note_on_c, 2, 72, 82
4, 17338, Note_on_c, 2, 72, 0
4, 17338, Note_on_c, 2, 70, 82
4, 17470, Note_on_c, 2, 70, 0
4, 17474, Note_on_c, 2, 68, 82
4, 17714, Note_on_c, 2, 68, 0
4, 17722, Note_on_c, 2, 70, 95
4, 17978, Note_on_c, 2, 70, 0
4, 17978, Note_on_c, 2, 68, 80
4, 18116, Note_on_c, 2, 68, 0
4, 18116, Note_on_c, 2, 67, 80
4, 18254, Note_on_c, 2, 67, 0
4, 18254, Note_on_c, 2, 65, 82
4, 18506, Note_on_c, 2, 67, 80
4, 18510, Note_on_c, 2, 65, 0
4, 18746, Note_on_c, 2, 67, 0
4, 18762, Note_on_c, 2, 65, 78
4, 18982, Note_on_c, 2, 65, 0
4, 19022, Note_on_c, 2, 65, 75
4, 19022, Note_on_c, 2, 55, 75
4, 19122, Note_on_c, 2, 55, 0
4, 19122, Note_on_c, 2, 65, 0
4, 19294, Note_on_c, 2, 64, 75
4, 19294, Note_on_c, 2, 55, 75
4, 19394, Note_on_c, 2, 55, 0
4, 19394, Note_on_c, 2, 64, 0
4, 19806, Note_on_c, 2, 56, 55
4, 20518, Note_on_c, 2, 56, 0
4, 20518, Note_on_c, 2, 55, 55
4, 21302, Note_on_c, 2, 55, 0
4, 21302, Note_on_c, 2, 56, 55
4, 21552, Note_on_c, 2, 56, 0
4, 22502, Note_on_c, 2, 58, 55
4, 22770, Note_on_c, 2, 58, 0
4, 22770, Note_on_c, 2, 56, 70
4, 23494, Note_on_c, 2, 56, 0
4, 23526, Note_on_c, 2, 59, 70
4, 24294, Note_on_c, 2, 59, 0
4, 24294, Note_on_c, 2, 58, 70
4, 25082, Note_on_c, 2, 58, 0
4, 25082, Note_on_c, 2, 60, 70
4, 25886, Note_on_c, 2, 60, 0
4, 25886, Note_on_c, 2, 61, 70
4, 26142, Note_on_c, 2, 61, 0
4, 26142, Note_on_c, 2, 60, 60
4, 29254, Note_on_c, 2, 60, 0
4, 31489, Control_c, 2, 11, 70
4, 31726, Note_on_c, 2, 55, 60
4, 32126, Note_on_c, 2, 55, 0
4, 34177, Control_c, 2, 11, 90
4, 34316, Note_on_c, 2, 70, 77
4, 34392, Note_on_c, 2, 70, 0
4, 34568, Note_on_c, 2, 68, 90
4, 34672, Note_on_c, 2, 68, 0
4, 34816, Note_on_c, 2, 67, 88
4, 34884, Note_on_c, 2, 67, 0
4, 35056, Note_on_c, 2, 77, 85
4, 35152, Note_on_c, 2, 77, 0
4, 35308, Note_on_c, 2, 77, 81
4, 35308, Note_on_c, 2, 70, 81
4, 35436, Note_on_c, 2, 70, 0
4, 35436, Note_on_c, 2, 77, 0
4, 35564, Note_on_c, 2, 69, 85
4, 35680, Note_on_c, 2, 69, 0
4, 35828, Note_on_c, 2, 70, 85
4, 35972, Note_on_c, 2, 70, 0
4, 36104, Note_on_c, 2, 72, 87
4, 36104, Note_on_c, 2, 68, 87
4, 36568, Note_on_c, 2, 68, 0
4, 36568, Note_on_c, 2, 72, 0
4, 37832, Note_on_c, 2, 68, 75
4, 37928, Note_on_c, 2, 68, 0
4, 38084, Note_on_c, 2, 68, 82
4, 38160, Note_on_c, 2, 68, 0
4, 38328, Note_on_c, 2, 68, 93
4, 38404, Note_on_c, 2, 68, 0
4, 38584, Note_on_c, 2, 80, 77
4, 38676, Note_on_c, 2, 80, 0
4, 38832, Note_on_c, 2, 80, 90
4, 38928, Note_on_c, 2, 80, 0
4, 39092, Note_on_c, 2, 84, 88
4, 39092, Note_on_c, 2, 72, 88
4, 39336, Note_on_c, 2, 72, 0
4, 39336, Note_on_c, 2, 84, 0
4, 41160, Note_on_c, 2, 55, 79
4, 41336, Note_on_c, 2, 55, 0
4, 41912, Note_on_c, 2, 55, 74
4, 42064, Note_on_c, 2, 55, 0
4, 42416, Note_on_c, 2, 68, 74
4, 42536, Note_on_c, 2, 68, 0
4, 42676, Note_on_c, 2, 70, 72
4, 42840, Note_on_c, 2, 70, 0
4, 42944, Note_on_c, 2, 68, 76
4, 43104, Note_on_c, 2, 68, 0
4, 43196, Note_on_c, 2, 73, 76
4, 43196, Note_on_c, 2, 65, 76
4, 43368, Note_on_c, 2, 65, 0
4, 43368, Note_on_c, 2, 73, 0
4, 43460, Note_on_c, 2, 72, 74
4, 43460, Note_on_c, 2, 64, 74
4, 43460, Note_on_c, 2, 55, 74
4, 43616, Note_on_c, 2, 55, 0
4, 43616, Note_on_c, 2, 64, 0
4, 43616, Note_on_c, 2, 72, 0
4, 43716, Note_on_c, 2, 72, 79
4, 43716, Note_on_c, 2, 65, 79
4, 43716, Note_on_c, 2, 56, 79
4, 43900, Note_on_c, 2, 56, 0
4, 43900, Note_on_c, 2, 65, 0
4, 43900, Note_on_c, 2, 72, 0
4, 44208, Note_on_c, 2, 55, 76
4, 44356, Note_on_c, 2, 55, 0
4, 44968, Note_on_c, 2, 55, 72
4, 45108, Note_on_c, 2, 55, 0
4, 45476, Note_on_c, 2, 63, 77
4, 45608, Note_on_c, 2, 63, 0
4, 45728, Note_on_c, 2, 73, 74
4, 45864, Note_on_c, 2, 73, 0
4, 45988, Note_on_c, 2, 65, 71
4, 46136, Note_on_c, 2, 65, 0
4, 46244, Note_on_c, 2, 73, 81
4, 46244, Note_on_c, 2, 65, 81
4, 46364, Note_on_c, 2, 65, 0
4, 46364, Note_on_c, 2, 73, 0
4, 46500, Note_on_c, 2, 72, 74
4, 46500, Note_on_c, 2, 64, 74
4, 46500, Note_on_c, 2, 55, 74
4, 46636, Note_on_c, 2, 55, 0
4, 46636, Note_on_c, 2, 64, 0
4, 46636, Note_on_c, 2, 72, 0
4, 46784, Note_on_c, 2, 72, 82
4, 46784, Note_on_c, 2, 65, 82
4, 47140, Note_on_c, 2, 65, 0
4, 47140, Note_on_c, 2, 72, 0
4, 47684, Note_on_c, 2, 80, 94
4, 47684, Note_on_c, 2, 72, 94
4, 47684, Note_on_c, 2, 65, 94
4, 47984, Note_on_c, 2, 65, 0
4, 48034, Note_on_c, 2, 72, 0
4, 48034, Note_on_c, 2, 80, 0
4, 49153, Control_c, 2, 11, 80
4, 50078, Note_on_c, 2, 60, 89
4, 50689, Program_c, 2, 45
4, 50762, Note_on_c, 2, 60, 0
4, 50920, Note_on_c, 2, 60, 80
4, 50960, Note_on_c, 2, 60, 0
4, 51192, Note_on_c, 2, 60, 80
4, 51232, Note_on_c, 2, 60, 0
4, 52225, Program_c, 2, 48
4, 52609, Control_c, 2, 11, 70
4, 53422, Note_on_c, 2, 61, 70
4, 54650, Note_on_c, 2, 61, 0
4, 54650, Note_on_c, 2, 60, 60
4, 54990, Note_on_c, 2, 60, 0
4, 56833, Control_c, 2, 11, 80
4, 57370, Note_on_c, 2, 58, 80
4, 57954, Note_on_c, 2, 58, 0
4, 57985, Program_c, 2, 45
4, 58276, Note_on_c, 2, 58, 80
4, 58316, Note_on_c, 2, 58, 0
4, 58556, Note_on_c, 2, 58, 80
4, 58596, Note_on_c, 2, 58, 0
4, 59905, Program_c, 2, 48
4, 60673, Control_c, 2, 11, 70
4, 60970, Note_on_c, 2, 60, 70
4, 61894, Note_on_c, 2, 60, 0
4, 62250, Note_on_c, 2, 60, 60
4, 62600, Note_on_c, 2, 60, 0
4, 64513, Program_c, 2, 45
4, 64897, Control_c, 2, 11, 60
4, 65180, Note_on_c, 2, 60, 60
4, 65230, Note_on_c, 2, 60, 0
4, 66700, Note_on_c, 2, 61, 60
4, 66750, Note_on_c, 2, 61, 0
4, 66996, Note_on_c, 2, 60, 60
4, 67046, Note_on_c, 2, 60, 0
4, 67585, Program_c, 2, 48
4, 68474, Note_on_c, 2, 61, 60
4, 68786, Note_on_c, 2, 61, 0
4, 68786, Note_on_c, 2, 60, 60
4, 72438, Note_on_c, 2, 60, 0
4, 72438, Note_on_c, 2, 61, 60
4, 72768, Note_on_c, 2, 61, 0
4, 73729, Program_c, 2, 45
4, 74032, Note_on_c, 2, 60, 70
4, 74072, Note_on_c, 2, 60, 0
4, 74348, Note_on_c, 2, 61, 70
4, 74388, Note_on_c, 2, 61, 0
4, 75265, Program_c, 2, 48
4, 75810, Note_on_c, 2, 56, 70
4, 76114, Note_on_c, 2, 56, 0
4, 76114, Note_on_c, 2, 56, 70
4, 76994, Note_on_c, 2, 56, 0
4, 76994, Note_on_c, 2, 58, 70
4, 80390, Note_on_c, 2, 58, 0
4, 82253, Note_on_c, 2, 58, 70
4, 83474, Note_on_c, 2, 57, 70
4, 83475, Note_on_c, 2, 58, 0
4, 83774, Note_on_c, 2, 57, 0
4, 85966, Note_on_c, 2, 63, 70
4, 87190, Note_on_c, 2, 63, 0
4, 87190, Note_on_c, 2, 61, 70
4, 87490, Note_on_c, 2, 61, 0
4, 87553, Program_c, 2, 45
4, 88724, Note_on_c, 2, 63, 70
4, 88764, Note_on_c, 2, 63, 0
4, 89016, Note_on_c, 2, 61, 70
4, 89056, Note_on_c, 2, 61, 0
4, 89089, Program_c, 2, 48
4, 90494, Note_on_c, 2, 63, 75
4, 90774, Note_on_c, 2, 63, 0
4, 90806, Note_on_c, 2, 62, 85
4, 93494, Note_on_c, 2, 62, 0
4, 93542, Note_on_c, 2, 62, 75
4, 93862, Note_on_c, 2, 62, 0
4, 93862, Note_on_c, 2, 63, 75
4, 94182, Note_on_c, 2, 63, 0
4, 94182, Note_on_c, 2, 65, 75
4, 94506, Note_on_c, 2, 65, 0
4, 94506, Note_on_c, 2, 67, 75
4, 94806, Note_on_c, 2, 67, 0
4, 95233, Program_c, 2, 45
4, 96116, Note_on_c, 2, 62, 70
4, 96156, Note_on_c, 2, 62, 0
4, 96432, Note_on_c, 2, 64, 70
4, 96472, Note_on_c, 2, 64, 0
4, 96769, Program_c, 2, 48
4, 97966, Note_on_c, 2, 62, 70
4, 98282, Note_on_c, 2, 62, 0
4, 98282, Note_on_c, 2, 64, 70
4, 101046, Note_on_c, 2, 64, 0
4, 101046, Note_on_c, 2, 58, 70
4, 101922, Note_on_c, 2, 58, 0
4, 102022, Note_on_c, 2, 56, 80
4, 103032, Note_on_c, 2, 61, 83
4, 103132, Note_on_c, 2, 56, 0
4, 103906, Note_on_c, 2, 61, 0
4, 103906, Note_on_c, 2, 60, 86
4, 104834, Note_on_c, 2, 60, 0
4, 104834, Note_on_c, 2, 58, 84
4, 105732, Note_on_c, 2, 58, 0
4, 105754, Note_on_c, 2, 58, 90
4, 108590, Note_on_c, 2, 58, 0
4, 108590, Note_on_c, 2, 56, 85
4, 109222, Note_on_c, 2, 56, 0
4, 109222, Note_on_c, 2, 55, 82
4, 109562, Note_on_c, 2, 55, 0
4, 109594, Note_on_c, 2, 55, 85
4, 109944, Note_on_c, 2, 55, 0
4, 110593, Control_c, 2, 11, 55
4, 111762, Note_on_c, 2, 61, 60
4, 112838, Note_on_c, 2, 61, 0
4, 112838, Note_on_c, 2, 60, 60
4, 113578, Note_on_c, 2, 60, 0
4, 113578, Note_on_c, 2, 63, 60
4, 113934, Note_on_c, 2, 63, 0
4, 113934, Note_on_c, 2, 58, 60
4, 114682, Note_on_c, 2, 58, 0
4, 114682, Note_on_c, 2, 56, 60
4, 115038, Note_on_c, 2, 55, 60
4, 115042, Note_on_c, 2, 56, 0
4, 115398, Note_on_c, 2, 55, 0
4, 116178, Note_on_c, 2, 61, 60
4, 117210, Note_on_c, 2, 61, 0
4, 117210, Note_on_c, 2, 60, 60
4, 117558, Note_on_c, 2, 60, 0
4, 117558, Note_on_c, 2, 62, 60
4, 118270, Note_on_c, 2, 62, 0
4, 118658, Note_on_c, 2, 57, 60
4, 119013, Note_on_c, 2, 58, 60
4, 119014, Note_on_c, 2, 57, 0
4, 119730, Note_on_c, 2, 58, 0
4, 119730, Note_on_c, 2, 60, 60
4, 120462, Note_on_c, 2, 58, 60
4, 120463, Note_on_c, 2, 60, 0
4, 122654, Note_on_c, 2, 58, 0
4, 122654, Note_on_c, 2, 60, 60
4, 122881, Control_c, 2, 11, 35
4, 123265, Program_c, 2, 120
4, 123330, Note_on_c, 2, 63, 60
4, 123360, Note_on_c, 2, 60, 0
4, 123410, Note_on_c, 2, 63, 0
4, 123678, Note_on_c, 2, 63, 65
4, 123758, Note_on_c, 2, 63, 0
4, 124038, Note_on_c, 2, 63, 60
4, 124118, Note_on_c, 2, 63, 0
4, 124198, Note_on_c, 2, 63, 60
4, 124278, Note_on_c, 2, 63, 0
4, 124378, Note_on_c, 2, 63, 60
4, 124458, Note_on_c, 2, 63, 0
4, 124714, Note_on_c, 2, 63, 65
4, 124794, Note_on_c, 2, 63, 0
4, 124886, Note_on_c, 2, 63, 60
4, 124966, Note_on_c, 2, 63, 0
4, 125074, Note_on_c, 2, 63, 60
4, 125154, Note_on_c, 2, 63, 0
4, 125434, Note_on_c, 2, 63, 60
4, 125514, Note_on_c, 2, 63, 0
4, 125602, Note_on_c, 2, 63, 60
4, 125682, Note_on_c, 2, 63, 0
4, 125774, Note_on_c, 2, 63, 65
4, 125854, Note_on_c, 2, 63, 0
4, 126142, Note_on_c, 2, 63, 60
4, 126222, Note_on_c, 2, 63, 0
4, 126510, Note_on_c, 2, 63, 60
4, 126590, Note_on_c, 2, 63, 0
4, 126850, Note_on_c, 2, 63, 60
4, 126930, Note_on_c, 2, 63, 0
4, 127458, Note_on_c, 2, 63, 60
4, 127538, Note_on_c, 2, 63, 0
4, 127762, Note_on_c, 2, 63, 60
4, 127842, Note_on_c, 2, 63, 0
4, 128054, Note_on_c, 2, 63, 60
4, 128134, Note_on_c, 2, 63, 0
4, 128210, Note_on_c, 2, 63, 60
4, 128290, Note_on_c, 2, 63, 0
4, 128366, Note_on_c, 2, 63, 60
4, 128446, Note_on_c, 2, 63, 0
4, 128666, Note_on_c, 2, 63, 60
4, 128746, Note_on_c, 2, 63, 0
4, 128986, Note_on_c, 2, 63, 60
4, 129066, Note_on_c, 2, 63, 0
4, 129327, Note_on_c, 2, 63, 60
4, 129407, Note_on_c, 2, 63, 0
4, 129658, Note_on_c, 2, 63, 60
4, 129738, Note_on_c, 2, 63, 0
4, 129958, Note_on_c, 2, 63, 60
4, 130038, Note_on_c, 2, 63, 0
4, 130118, Note_on_c, 2, 63, 60
4, 130198, Note_on_c, 2, 63, 0
4, 130278, Note_on_c, 2, 63, 60
4, 130358, Note_on_c, 2, 63, 0
4, 134700, Note_on_c, 2, 63, 60
4, 134780, Note_on_c, 2, 63, 0
4, 135350, Note_on_c, 2, 63, 60
4, 135430, Note_on_c, 2, 63, 0
4, 135672, Note_on_c, 2, 63, 60
4, 135752, Note_on_c, 2, 63, 0
4, 135988, Note_on_c, 2, 63, 60
4, 136068, Note_on_c, 2, 63, 0
4, 136128, Note_on_c, 2, 63, 60
4, 136208, Note_on_c, 2, 63, 0
4, 136312, Note_on_c, 2, 63, 60
4, 136392, Note_on_c, 2, 63, 0
4, 136616, Note_on_c, 2, 63, 60
4, 136696, Note_on_c, 2, 63, 0
4, 136778, Note_on_c, 2, 63, 60
4, 136858, Note_on_c, 2, 63, 0
4, 136940, Note_on_c, 2, 63, 60
4, 137020, Note_on_c, 2, 63, 0
4, 137276, Note_on_c, 2, 63, 60
4, 137356, Note_on_c, 2, 63, 0
4, 137428, Note_on_c, 2, 63, 60
4, 137508, Note_on_c, 2, 63, 0
4, 137584, Note_on_c, 2, 63, 60
4, 137664, Note_on_c, 2, 63, 0
4, 137880, Note_on_c, 2, 63, 60
4, 137960, Note_on_c, 2, 63, 0
4, 138018, Note_on_c, 2, 63, 60
4, 138098, Note_on_c, 2, 63, 0
4, 138216, Note_on_c, 2, 63, 60
4, 138296, Note_on_c, 2, 63, 0
4, 141313, Note_on_c, 2, 63, 60
4, 141318, Note_on_c, 2, 63, 60
4, 141393, Note_on_c, 2, 63, 0
4, 141398, Note_on_c, 2, 63, 0
4, 141474, Note_on_c, 2, 63, 60
4, 141554, Note_on_c, 2, 63, 0
4, 141646, Program_c, 2, 48
4, 141697, Control_c, 2, 11, 60
4, 142002, Note_on_c, 2, 61, 60
4, 142326, Note_on_c, 2, 61, 0
4, 142326, Note_on_c, 2, 60, 60
4, 142650, Note_on_c, 2, 60, 0
4, 142650, Note_on_c, 2, 59, 60
4, 142849, Control_c, 2, 11, 60
4, 142974, Note_on_c, 2, 59, 0
4, 142974, Note_on_c, 2, 63, 60
4, 143274, Note_on_c, 2, 63, 0
4, 143595, Note_on_c, 2, 63, 60
4, 143902, Note_on_c, 2, 63, 0
4, 143902, Note_on_c, 2, 64, 60
4, 144202, Note_on_c, 2, 64, 0
4, 145530, Note_on_c, 2, 63, 60
4, 145730, Note_on_c, 2, 63, 0
4, 145854, Note_on_c, 2, 64, 60
4, 146054, Note_on_c, 2, 64, 0
4, 146218, Note_on_c, 2, 64, 60
4, 146418, Note_on_c, 2, 64, 0
4, 146558, Note_on_c, 2, 64, 60
4, 146758, Note_on_c, 2, 64, 0
4, 146898, Note_on_c, 2, 63, 60
4, 147198, Note_on_c, 2, 63, 0
4, 147502, Note_on_c, 2, 63, 60
4, 147802, Note_on_c, 2, 63, 0
4, 147826, Note_on_c, 2, 64, 60
4, 148126, Note_on_c, 2, 64, 0
4, 148628, Note_on_c, 2, 61, 60
4, 152574, Note_on_c, 2, 61, 0
4, 152574, Note_on_c, 2, 60, 60
4, 152774, Note_on_c, 2, 60, 0
4, 152884, Note_on_c, 2, 60, 60
4, 152984, Note_on_c, 2, 60, 0
4, 153190, Note_on_c, 2, 60, 60
4, 153290, Note_on_c, 2, 60, 0
4, 153834, Note_on_c, 2, 61, 60
4, 153934, Note_on_c, 2, 61, 0
4, 154178, Note_on_c, 2, 61, 60
4, 154278, Note_on_c, 2, 61, 0
4, 154858, Note_on_c, 2, 60, 60
4, 154958, Note_on_c, 2, 60, 0
4, 155178, Note_on_c, 2, 60, 60
4, 155278, Note_on_c, 2, 60, 0
4, 155830, Note_on_c, 2, 61, 60
4, 155930, Note_on_c, 2, 61, 0
4, 156166, Note_on_c, 2, 61, 60
4, 156266, Note_on_c, 2, 61, 0
4, 156538, Note_on_c, 2, 60, 60
4, 156638, Note_on_c, 2, 60, 0
4, 156852, Note_on_c, 2, 60, 60
4, 156952, Note_on_c, 2, 60, 0
4, 157166, Note_on_c, 2, 60, 60
4, 157266, Note_on_c, 2, 60, 0
4, 157494, Note_on_c, 2, 61, 60
4, 157594, Note_on_c, 2, 61, 0
4, 157822, Note_on_c, 2, 61, 60
4, 157922, Note_on_c, 2, 61, 0
4, 158162, Note_on_c, 2, 61, 60
4, 158262, Note_on_c, 2, 61, 0
4, 158530, Note_on_c, 2, 60, 60
4, 158630, Note_on_c, 2, 60, 0
4, 158832, Note_on_c, 2, 60, 60
4, 158932, Note_on_c, 2, 60, 0
4, 159134, Note_on_c, 2, 60, 75
4, 159234, Note_on_c, 2, 60, 0
4, 159470, Note_on_c, 2, 58, 60
4, 159770, Note_on_c, 2, 58, 0
4, 160129, Control_c, 2, 11, 50
4, 160574, Note_on_c, 2, 60, 60
4, 161350, Note_on_c, 2, 60, 0
4, 161350, Note_on_c, 2, 56, 60
4, 162114, Note_on_c, 2, 56, 0
4, 162114, Note_on_c, 2, 60, 60
4, 162866, Note_on_c, 2, 60, 0
4, 162866, Note_on_c, 2, 56, 60
4, 163578, Note_on_c, 2, 56, 0
4, 163598, Note_on_c, 2, 60, 60
4, 164353, Note_on_c, 2, 56, 60
4, 164354, Note_on_c, 2, 60, 0
4, 165078, Note_on_c, 2, 60, 60
4, 165080, Note_on_c, 2, 56, 0
4, 166602, Note_on_c, 2, 60, 0
4, 166602, Note_on_c, 2, 61, 60
4, 167346, Note_on_c, 2, 61, 0
4, 167346, Note_on_c, 2, 60, 60
4, 168114, Note_on_c, 2, 60, 0
4, 168114, Note_on_c, 2, 61, 60
4, 168826, Note_on_c, 2, 60, 60
4, 168828, Note_on_c, 2, 61, 0
4, 169410, Note_on_c, 2, 60, 0
4, 169570, Note_on_c, 2, 63, 60
4, 169570, Note_on_c, 2, 60, 60
4, 170330, Note_on_c, 2, 60, 0
4, 170330, Note_on_c, 2, 63, 0
4, 170330, Note_on_c, 2, 61, 60
4, 171014, Note_on_c, 2, 61, 0
4, 171022, Note_on_c, 2, 60, 60
4, 171738, Note_on_c, 2, 60, 0
4, 171738, Note_on_c, 2, 61, 60
4, 172532, Note_on_c, 2, 61, 0
4, 172534, Note_on_c, 2, 62, 78
4, 172834, Note_on_c, 2, 62, 0
4, 175046, Note_on_c, 2, 63, 65
4, 175562, Note_on_c, 2, 63, 0
4, 175562, Note_on_c, 2, 61, 62
4, 175842, Note_on_c, 2, 61, 0
4, 175842, Note_on_c, 2, 60, 62
4, 176226, Note_on_c, 2, 60, 0
4, 176641, Program_c, 2, 45
4, 177025, Control_c, 2, 11, 60
4, 177460, Note_on_c, 2, 63, 60
4, 177500, Note_on_c, 2, 63, 0
4, 177704, Note_on_c, 2, 63, 60
4, 177744, Note_on_c, 2, 63, 0
4, 177952, Note_on_c, 2, 63, 60
4, 177992, Note_on_c, 2, 63, 0
4, 178177, Program_c, 2, 48
4, 178658, Note_on_c, 2, 61, 60
4, 181633, Note_on_c, 2, 61, 0
4, 181633, Note_on_c, 2, 60, 60
4, 181983, Note_on_c, 2, 60, 0
4, 182785, Program_c, 2, 45
4, 183444, Note_on_c, 2, 63, 60
4, 183484, Note_on_c, 2, 63, 0
4, 183696, Note_on_c, 2, 63, 60
4, 183736, Note_on_c, 2, 63, 0
4, 183948, Note_on_c, 2, 63, 60
4, 183988, Note_on_c, 2, 63, 0
4, 184321, Program_c, 2, 48
4, 184666, Note_on_c, 2, 61, 60
4, 187774, Note_on_c, 2, 61, 0
4, 187774, Note_on_c, 2, 60, 60
4, 188574, Note_on_c, 2, 60, 0
4, 188578, Note_on_c, 2, 62, 60
4, 189134, Note_on_c, 2, 62, 0
4, 189134, Note_on_c, 2, 63, 60
4, 189394, Note_on_c, 2, 63, 0
4, 189394, Note_on_c, 2, 58, 60
4, 190158, Note_on_c, 2, 60, 60
4, 190162, Note_on_c, 2, 58, 0
4, 190686, Note_on_c, 2, 60, 0
4, 190686, Note_on_c, 2, 61, 60
4, 190950, Note_on_c, 2, 61, 0
4, 190950, Note_on_c, 2, 62, 60
4, 192234, Note_on_c, 2, 62, 0
4, 192234, Note_on_c, 2, 60, 60
4, 192474, Note_on_c, 2, 60, 0
4, 192498, Note_on_c, 2, 60, 60
4, 193478, Note_on_c, 2, 60, 0
4, 193478, Note_on_c, 2, 59, 60
4, 193726, Note_on_c, 2, 60, 60
4, 193746, Note_on_c, 2, 59, 0
4, 193976, Note_on_c, 2, 60, 0
4, 193994, Note_on_c, 2, 62, 60
4, 194498, Note_on_c, 2, 62, 0
4, 194498, Note_on_c, 2, 63, 60
4, 194718, Note_on_c, 2, 63, 0
4, 194746, Note_on_c, 2, 62, 60
4, 194994, Note_on_c, 2, 62, 0
4, 194994, Note_on_c, 2, 64, 60
4, 195250, Note_on_c, 2, 64, 0
4, 195250, Note_on_c, 2, 65, 60
4, 195470, Note_on_c, 2, 65, 0
4, 195506, Note_on_c, 2, 64, 60
4, 195758, Note_on_c, 2, 64, 0
4, 195758, Note_on_c, 2, 66, 60
4, 196022, Note_on_c, 2, 66, 0
4, 196022, Note_on_c, 2, 67, 60
4, 196242, Note_on_c, 2, 67, 0
4, 196266, Note_on_c, 2, 64, 75
4, 196786, Note_on_c, 2, 64, 0
4, 196786, Note_on_c, 2, 62, 65
4, 197006, Note_on_c, 2, 62, 0
4, 197050, Note_on_c, 2, 62, 65
4, 197550, Note_on_c, 2, 62, 0
4, 197550, Note_on_c, 2, 61, 65
4, 197770, Note_on_c, 2, 61, 0
4, 197798, Note_on_c, 2, 64, 65
4, 198310, Note_on_c, 2, 63, 65
4, 198406, Note_on_c, 2, 64, 0
4, 198530, Note_on_c, 2, 63, 0
4, 198558, Note_on_c, 2, 66, 65
4, 199062, Note_on_c, 2, 66, 0
4, 199062, Note_on_c, 2, 65, 65
4, 199314, Note_on_c, 2, 65, 0
4, 199314, Note_on_c, 2, 64, 65
4, 199802, Note_on_c, 2, 64, 0
4, 199802, Note_on_c, 2, 65, 65
4, 200022, Note_on_c, 2, 65, 0
4, 200065, Program_c, 2, 45
4, 200120, Note_on_c, 2, 65, 60
4, 200160, Note_on_c, 2, 65, 0
4, 200372, Note_on_c, 2, 64, 60
4, 200412, Note_on_c, 2, 64, 0
4, 204289, Program_c, 2, 48
4, 204658, Note_on_c, 2, 59, 60
4, 204914, Note_on_c, 2, 59, 0
4, 204914, Note_on_c, 2, 58, 60
4, 206989, Note_on_c, 2, 58, 0
4, 207010, Note_on_c, 2, 59, 60
4, 207774, Note_on_c, 2, 64, 60
4, 207778, Note_on_c, 2, 59, 0
4, 208566, Note_on_c, 2, 64, 0
4, 208566, Note_on_c, 2, 63, 60
4, 208826, Note_on_c, 2, 63, 0
4, 208826, Note_on_c, 2, 65, 60
4, 209370, Note_on_c, 2, 65, 0
4, 209898, Note_on_c, 2, 64, 60
4, 210178, Note_on_c, 2, 64, 0
4, 210178, Note_on_c, 2, 63, 60
4, 210974, Note_on_c, 2, 63, 0
4, 210974, Note_on_c, 2, 64, 60
4, 211778, Note_on_c, 2, 64, 0
4, 211778, Note_on_c, 2, 63, 60
4, 212054, Note_on_c, 2, 63, 0
4, 212054, Note_on_c, 2, 65, 60
4, 212606, Note_on_c, 2, 65, 0
4, 212870, Note_on_c, 2, 59, 60
4, 213142, Note_on_c, 2, 59, 0
4, 213142, Note_on_c, 2, 61, 60
4, 213394, Note_on_c, 2, 61, 0
4, 213394, Note_on_c, 2, 62, 60
4, 214206, Note_on_c, 2, 62, 0
4, 214206, Note_on_c, 2, 61, 60
4, 214458, Note_on_c, 2, 61, 0
4, 214458, Note_on_c, 2, 59, 60
4, 214722, Note_on_c, 2, 59, 0
4, 214722, Note_on_c, 2, 61, 60
4, 214978, Note_on_c, 2, 62, 60
4, 215274, Note_on_c, 2, 61, 0
4, 215782, Note_on_c, 2, 62, 0
4, 215782, Note_on_c, 2, 61, 60
4, 216054, Note_on_c, 2, 61, 0
4, 216054, Note_on_c, 2, 59, 60
4, 216306, Note_on_c, 2, 59, 0
4, 216306, Note_on_c, 2, 61, 60
4, 216566, Note_on_c, 2, 61, 0
4, 216566, Note_on_c, 2, 62, 60
4, 217374, Note_on_c, 2, 62, 0
4, 217374, Note_on_c, 2, 61, 60
4, 217634, Note_on_c, 2, 61, 0
4, 217634, Note_on_c, 2, 59, 60
4, 217898, Note_on_c, 2, 59, 0
4, 217898, Note_on_c, 2, 61, 60
4, 218162, Note_on_c, 2, 61, 0
4, 218162, Note_on_c, 2, 62, 60
4, 219070, Note_on_c, 2, 62, 0
4, 219070, Note_on_c, 2, 61, 60
4, 221994, Note_on_c, 2, 61, 0
4, 221994, Note_on_c, 2, 58, 60
4, 222282, Note_on_c, 2, 58, 0
4, 222282, Note_on_c, 2, 61, 60
4, 225160, Note_on_c, 2, 61, 0
4, 225166, Note_on_c, 2, 62, 60
4, 226434, Note_on_c, 2, 62, 0
4, 226434, Note_on_c, 2, 63, 60
4, 227266, Note_on_c, 2, 63, 0
4, 227266, Note_on_c, 2, 64, 60
4, 228078, Note_on_c, 2, 64, 0
4, 228078, Note_on_c, 2, 63, 60
4, 228865, Note_on_c, 2, 63, 0
4, 228865, Note_on_c, 2, 64, 60
4, 229666, Note_on_c, 2, 64, 0
4, 229666, Note_on_c, 2, 63, 60
4, 231168, Note_on_c, 2, 63, 0
4, 231230, Note_on_c, 2, 63, 60
4, 233698, Note_on_c, 2, 63, 0
4, 233698, Note_on_c, 2, 62, 60
4, 234514, Note_on_c, 2, 62, 0
4, 234514, Note_on_c, 2, 63, 60
4, 235310, Note_on_c, 2, 63, 0
4, 235310, Note_on_c, 2, 62, 60
4, 236078, Note_on_c, 2, 62, 0
4, 236126, Note_on_c, 2, 63, 60
4, 237698, Note_on_c, 2, 63, 0
4, 237698, Note_on_c, 2, 60, 60
4, 239294, Note_on_c, 2, 60, 0
4, 239294, Note_on_c, 2, 61, 60
4, 240106, Note_on_c, 2, 61, 0
4, 240106, Note_on_c, 2, 60, 60
4, 240926, Note_on_c, 2, 60, 0
4, 240926, Note_on_c, 2, 61, 60
4, 241702, Note_on_c, 2, 61, 0
4, 241702, Note_on_c, 2, 60, 60
4, 242518, Note_on_c, 2, 60, 0
4, 242518, Note_on_c, 2, 61, 60
4, 244062, Note_on_c, 2, 61, 0
4, 244062, Note_on_c, 2, 56, 60
4, 244874, Note_on_c, 2, 56, 0
4, 244874, Note_on_c, 2, 59, 60
4, 245682, Note_on_c, 2, 59, 0
4, 274945, Control_c, 2, 11, 45
4, 275482, Note_on_c, 2, 64, 60
4, 277218, Note_on_c, 2, 64, 0
4, 283114, Note_on_c, 2, 56, 55
4, 283858, Note_on_c, 2, 58, 55
4, 283860, Note_on_c, 2, 56, 0
4, 284558, Note_on_c, 2, 58, 0
4, 284558, Note_on_c, 2, 56, 55
4, 284898, Note_on_c, 2, 56, 0
4, 285894, Note_on_c, 2, 58, 55
4, 286166, Note_on_c, 2, 58, 0
4, 286166, Note_on_c, 2, 56, 55
4, 286418, Note_on_c, 2, 56, 0
4, 286418, Note_on_c, 2, 58, 55
4, 286674, Note_on_c, 2, 58, 0
4, 286674, Note_on_c, 2, 60, 55
4, 286906, Note_on_c, 2, 60, 0
4, 286906, Note_on_c, 2, 61, 55
4, 288402, Note_on_c, 2, 61, 0
4, 288402, Note_on_c, 2, 60, 55
4, 288984, Note_on_c, 2, 60, 0
4, 289194, Note_on_c, 2, 56, 55
4, 289938, Note_on_c, 2, 56, 0
4, 289938, Note_on_c, 2, 58, 55
4, 290726, Note_on_c, 2, 58, 0
4, 290726, Note_on_c, 2, 56, 55
4, 290976, Note_on_c, 2, 56, 0
4, 291918, Note_on_c, 2, 58, 55
4, 292186, Note_on_c, 2, 56, 55
4, 292188, Note_on_c, 2, 58, 0
4, 292910, Note_on_c, 2, 56, 0
4, 292938, Note_on_c, 2, 56, 55
4, 293166, Note_on_c, 2, 56, 0
4, 293166, Note_on_c, 2, 58, 55
4, 293402, Note_on_c, 2, 58, 0
4, 293402, Note_on_c, 2, 57, 55
4, 293630, Note_on_c, 2, 57, 0
4, 293630, Note_on_c, 2, 58, 55
4, 294213, Control_c, 2, 11, 60
4, 294374, Note_on_c, 2, 58, 0
4, 294374, Note_on_c, 2, 56, 70
4, 294597, Control_c, 2, 11, 65
4, 294630, Note_on_c, 2, 56, 0
4, 294630, Note_on_c, 2, 58, 80
4, 294886, Note_on_c, 2, 58, 0
4, 294886, Note_on_c, 2, 65, 90
4, 294886, Note_on_c, 2, 60, 90
4, 295086, Note_on_c, 2, 60, 0
4, 295114, Note_on_c, 2, 65, 0
4, 295114, Note_on_c, 2, 65, 80
4, 295314, Note_on_c, 2, 65, 0
4, 295366, Note_on_c, 2, 64, 80
4, 295366, Note_on_c, 2, 55, 80
4, 295614, Note_on_c, 2, 55, 0
4, 295614, Note_on_c, 2, 64, 0
4, 295614, Note_on_c, 2, 65, 80
4, 295814, Note_on_c, 2, 65, 0
4, 295874, Note_on_c, 2, 67, 80
4, 295874, Note_on_c, 2, 61, 80
4, 295974, Note_on_c, 2, 61, 0
4, 295974, Note_on_c, 2, 67, 0
4, 296138, Note_on_c, 2, 68, 80
4, 296138, Note_on_c, 2, 60, 80
4, 296238, Note_on_c, 2, 60, 0
4, 296238, Note_on_c, 2, 68, 0
4, 296394, Note_on_c, 2, 68, 90
4, 296394, Note_on_c, 2, 60, 90
4, 296646, Note_on_c, 2, 60, 0
4, 296646, Note_on_c, 2, 68, 0
4, 296646, Note_on_c, 2, 68, 80
4, 296846, Note_on_c, 2, 68, 0
4, 296918, Note_on_c, 2, 67, 80
4, 297168, Note_on_c, 2, 67, 0
4, 297170, Note_on_c, 2, 68, 80
4, 297170, Note_on_c, 2, 62, 80
4, 297370, Note_on_c, 2, 62, 0
4, 297370, Note_on_c, 2, 68, 0
4, 297426, Note_on_c, 2, 65, 80
4, 297526, Note_on_c, 2, 65, 0
4, 297694, Note_on_c, 2, 55, 80
4, 297794, Note_on_c, 2, 55, 0
4, 297962, Note_on_c, 2, 72, 95
4, 297962, Note_on_c, 2, 64, 95
4, 298210, Note_on_c, 2, 64, 0
4, 298210, Note_on_c, 2, 72, 0
4, 298210, Note_on_c, 2, 72, 88
4, 298210, Note_on_c, 2, 65, 88
4, 298460, Note_on_c, 2, 65, 0
4, 298460, Note_on_c, 2, 72, 0
4, 298482, Note_on_c, 2, 73, 95
4, 298746, Note_on_c, 2, 73, 0
4, 298746, Note_on_c, 2, 72, 82
4, 298878, Note_on_c, 2, 72, 0
4, 298878, Note_on_c, 2, 70, 82
4, 299010, Note_on_c, 2, 70, 0
4, 299014, Note_on_c, 2, 68, 82
4, 299254, Note_on_c, 2, 68, 0
4, 299262, Note_on_c, 2, 70, 95
4, 299518, Note_on_c, 2, 70, 0
4, 299518, Note_on_c, 2, 68, 80
4, 299656, Note_on_c, 2, 68, 0
4, 299656, Note_on_c, 2, 67, 80
4, 299794, Note_on_c, 2, 67, 0
4, 299794, Note_on_c, 2, 65, 82
4, 300046, Note_on_c, 2, 67, 80
4, 300050, Note_on_c, 2, 65, 0
4, 300286, Note_on_c, 2, 67, 0
4, 300302, Note_on_c, 2, 65, 78
4, 300522, Note_on_c, 2, 65, 0
4, 300562, Note_on_c, 2, 65, 75
4, 300562, Note_on_c, 2, 55, 75
4, 300662, Note_on_c, 2, 55, 0
4, 300662, Note_on_c, 2, 65, 0
4, 300834, Note_on_c, 2, 64, 75
4, 300834, Note_on_c, 2, 55, 75
4, 300934, Note_on_c, 2, 55, 0
4, 300934, Note_on_c, 2, 64, 0
4, 301346, Note_on_c, 2, 56, 55
4, 302058, Note_on_c, 2, 56, 0
4, 302058, Note_on_c, 2, 55, 55
4, 302842, Note_on_c, 2, 55, 0
4, 302842, Note_on_c, 2, 56, 55
4, 303092, Note_on_c, 2, 56, 0
4, 304129, Control_c, 2, 11, 55
4, 304513, Note_on_c, 2, 55, 60
4, 305286, Note_on_c, 2, 55, 0
4, 305286, Note_on_c, 2, 58, 60
4, 306058, Note_on_c, 2, 58, 0
4, 306058, Note_on_c, 2, 63, 60
4, 307594, Note_on_c, 2, 63, 0
4, 309126, Note_on_c, 2, 61, 60
4, 309894, Note_on_c, 2, 60, 60
4, 310628, Note_on_c, 2, 60, 0
4, 310658, Note_on_c, 2, 59, 60
4, 311430, Note_on_c, 2, 61, 0
4, 312974, Note_on_c, 2, 59, 0
4, 312974, Note_on_c, 2, 58, 60
4, 313742, Note_on_c, 2, 57, 60
4, 313752, Note_on_c, 2, 58, 0
4, 314498, Note_on_c, 2, 55, 60
4, 314510, Note_on_c, 2, 57, 0
4, 316033, Note_on_c, 2, 56, 60
4, 316034, Note_on_c, 2, 55, 0
4, 316825, Note_on_c, 2, 59, 75
4, 317569, Note_on_c, 2, 56, 0
4, 318287, Note_on_c, 2, 59, 0
4, 318308, Note_on_c, 2, 59, 75
4, 319780, Note_on_c, 2, 59, 0
4, 319814, Note_on_c, 2, 59, 75
4, 321310, Note_on_c, 2, 59, 0
4, 321310, Note_on_c, 2, 58, 75
4, 322062, Note_on_c, 2, 58, 0
4, 322062, Note_on_c, 2, 60, 75
4, 322842, Note_on_c, 2, 60, 0
4, 322842, Note_on_c, 2, 61, 65
4, 323066, Note_on_c, 2, 61, 0
4, 323066, Note_on_c, 2, 60, 65
4, 323500, Note_on_c, 2, 60, 0
4, 323542, Note_on_c, 2, 60, 65
4, 324310, Note_on_c, 2, 60, 0
4, 324342, Note_on_c, 2, 60, 65
4, 326262, Note_on_c, 2, 60, 0
4, 328518, Note_on_c, 2, 55, 75
4, 328902, Note_on_c, 2, 55, 0
4, 331138, Control_c, 2, 11, 90
4, 331277, Note_on_c, 2, 70, 77
4, 331353, Note_on_c, 2, 70, 0
4, 331529, Note_on_c, 2, 68, 90
4, 331633, Note_on_c, 2, 68, 0
4, 331777, Note_on_c, 2, 67, 88
4, 331845, Note_on_c, 2, 67, 0
4, 332017, Note_on_c, 2, 77, 85
4, 332113, Note_on_c, 2, 77, 0
4, 332269, Note_on_c, 2, 77, 81
4, 332269, Note_on_c, 2, 70, 81
4, 332397, Note_on_c, 2, 70, 0
4, 332397, Note_on_c, 2, 77, 0
4, 332525, Note_on_c, 2, 69, 85
4, 332641, Note_on_c, 2, 69, 0
4, 332789, Note_on_c, 2, 70, 85
4, 332933, Note_on_c, 2, 70, 0
4, 333065, Note_on_c, 2, 72, 87
4, 333065, Note_on_c, 2, 68, 87
4, 333529, Note_on_c, 2, 68, 0
4, 333529, Note_on_c, 2, 72, 0
4, 334793, Note_on_c, 2, 68, 75
4, 334889, Note_on_c, 2, 68, 0
4, 335045, Note_on_c, 2, 68, 82
4, 335121, Note_on_c, 2, 68, 0
4, 335289, Note_on_c, 2, 68, 93
4, 335365, Note_on_c, 2, 68, 0
4, 335545, Note_on_c, 2, 80, 77
4, 335637, Note_on_c, 2, 80, 0
4, 335793, Note_on_c, 2, 80, 90
4, 335889, Note_on_c, 2, 80, 0
4, 336053, Note_on_c, 2, 84, 88
4, 336053, Note_on_c, 2, 72, 88
4, 336297, Note_on_c, 2, 72, 0
4, 336297, Note_on_c, 2, 84, 0
4, 338121, Note_on_c, 2, 55, 79
4, 338297, Note_on_c, 2, 55, 0
4, 338873, Note_on_c, 2, 55, 74
4, 339025, Note_on_c, 2, 55, 0
4, 339377, Note_on_c, 2, 68, 74
4, 339497, Note_on_c, 2, 68, 0
4, 339637, Note_on_c, 2, 70, 72
4, 339801, Note_on_c, 2, 70, 0
4, 339905, Note_on_c, 2, 68, 76
4, 340065, Note_on_c, 2, 68, 0
4, 340157, Note_on_c, 2, 73, 76
4, 340157, Note_on_c, 2, 65, 76
4, 340329, Note_on_c, 2, 65, 0
4, 340329, Note_on_c, 2, 73, 0
4, 340421, Note_on_c, 2, 72, 74
4, 340421, Note_on_c, 2, 64, 74
4, 340421, Note_on_c, 2, 55, 74
4, 340577, Note_on_c, 2, 55, 0
4, 340577, Note_on_c, 2, 64, 0
4, 340577, Note_on_c, 2, 72, 0
4, 340677, Note_on_c, 2, 72, 79
4, 340677, Note_on_c, 2, 65, 79
4, 340677, Note_on_c, 2, 56, 79
4, 340861, Note_on_c, 2, 56, 0
4, 340861, Note_on_c, 2, 65, 0
4, 340861, Note_on_c, 2, 72, 0
4, 341169, Note_on_c, 2, 55, 76
4, 341317, Note_on_c, 2, 55, 0
4, 341929, Note_on_c, 2, 55, 72
4, 342069, Note_on_c, 2, 55, 0
4, 342689, Note_on_c, 2, 76, 74
4, 342825, Note_on_c, 2, 76, 0
4, 342949, Note_on_c, 2, 77, 71
4, 343097, Note_on_c, 2, 77, 0
4, 343205, Note_on_c, 2, 77, 81
4, 343205, Note_on_c, 2, 62, 81
4, 343205, Note_on_c, 2, 71, 81
4, 343325, Note_on_c, 2, 71, 0
4, 343325, Note_on_c, 2, 62, 0
4, 343325, Note_on_c, 2, 77, 0
4, 343461, Note_on_c, 2, 79, 74
4, 343461, Note_on_c, 2, 70, 74
4, 343597, Note_on_c, 2, 70, 0
4, 343597, Note_on_c, 2, 79, 0
4, 343745, Note_on_c, 2, 81, 82
4, 343745, Note_on_c, 2, 72, 82
4, 343745, Note_on_c, 2, 65, 82
4, 344329, Note_on_c, 2, 65, 0
4, 344329, Note_on_c, 2, 72, 0
4, 344329, Note_on_c, 2, 81, 0
4, 345601, Control_c, 2, 11, 65
4, 347137, Program_c, 2, 45
4, 348673, Note_on_c, 2, 60, 70
4, 348713, Note_on_c, 2, 60, 0
4, 349525, Note_on_c, 2, 60, 70
4, 349565, Note_on_c, 2, 60, 0
4, 350373, Note_on_c, 2, 60, 70
4, 350413, Note_on_c, 2, 60, 0
4, 350649, Note_on_c, 2, 60, 70
4, 350689, Note_on_c, 2, 60, 0
4, 350933, Note_on_c, 2, 60, 70
4, 350973, Note_on_c, 2, 60, 0
4, 351221, Note_on_c, 2, 57, 70
4, 351261, Note_on_c, 2, 57, 0
4, 351745, Program_c, 2, 48
4, 352050, Note_on_c, 2, 55, 70
4, 354082, Note_on_c, 2, 55, 0
4, 355201, Program_c, 2, 45
4, 355557, Note_on_c, 2, 60, 70
4, 355597, Note_on_c, 2, 60, 0
4, 356433, Note_on_c, 2, 60, 70
4, 356473, Note_on_c, 2, 60, 0
4, 357293, Note_on_c, 2, 60, 70
4, 357333, Note_on_c, 2, 60, 0
4, 357573, Note_on_c, 2, 60, 70
4, 357613, Note_on_c, 2, 60, 0
4, 357861, Note_on_c, 2, 60, 70
4, 357901, Note_on_c, 2, 60, 0
4, 358153, Note_on_c, 2, 57, 70
4, 358193, Note_on_c, 2, 57, 0
4, 358657, Program_c, 2, 48
4, 358958, Note_on_c, 2, 55, 70
4, 360991, Note_on_c, 2, 55, 0
4, 362131, Note_on_c, 2, 58, 70
4, 362419, Note_on_c, 2, 58, 0
4, 362419, Note_on_c, 2, 57, 70
4, 362497, Program_c, 2, 48
4, 362719, Note_on_c, 2, 57, 0
4, 363287, Note_on_c, 2, 55, 80
4, 364167, Note_on_c, 2, 55, 0
4, 364167, Note_on_c, 2, 57, 70
4, 364467, Note_on_c, 2, 57, 0
4, 365019, Note_on_c, 2, 55, 80
4, 365895, Note_on_c, 2, 55, 0
4, 365895, Note_on_c, 2, 57, 70
4, 366771, Note_on_c, 2, 57, 0
4, 366771, Note_on_c, 2, 58, 74
4, 367631, Note_on_c, 2, 58, 0
4, 367631, Note_on_c, 2, 60, 78
4, 368515, Note_on_c, 2, 60, 0
4, 368515, Note_on_c, 2, 62, 82
4, 369363, Note_on_c, 2, 62, 0
4, 369378, Note_on_c, 2, 61, 80
4, 374535, Note_on_c, 2, 61, 0
4, 374535, Note_on_c, 2, 62, 65
4, 375387, Note_on_c, 2, 62, 0
4, 375387, Note_on_c, 2, 59, 65
4, 375657, Note_on_c, 2, 59, 0
4, 375947, Note_on_c, 2, 56, 85
4, 376217, Note_on_c, 2, 56, 0
4, 376267, Note_on_c, 2, 57, 85
4, 376567, Note_on_c, 2, 57, 0
4, 382883, Note_on_c, 2, 82, 90
4, 382883, Note_on_c, 2, 72, 90
4, 383153, Note_on_c, 2, 72, 0
4, 383153, Note_on_c, 2, 82, 0
4, 383199, Note_on_c, 2, 81, 90
4, 383199, Note_on_c, 2, 72, 90
4, 383469, Note_on_c, 2, 72, 0
4, 383469, Note_on_c, 2, 81, 0
4, 384001, Program_c, 2, 45
4, 384133, Note_on_c, 2, 60, 70
4, 384173, Note_on_c, 2, 60, 0
4, 384989, Note_on_c, 2, 60, 70
4, 385029, Note_on_c, 2, 60, 0
4, 385269, Note_on_c, 2, 60, 70
4, 385309, Note_on_c, 2, 60, 0
4, 385549, Note_on_c, 2, 60, 70
4, 385589, Note_on_c, 2, 60, 0
4, 385837, Note_on_c, 2, 57, 70
4, 385877, Note_on_c, 2, 57, 0
4, 386305, Program_c, 2, 48
4, 386646, Note_on_c, 2, 55, 70
4, 388609, Program_c, 2, 45
4, 388680, Note_on_c, 2, 55, 0
4, 390145, Note_on_c, 2, 60, 70
4, 390185, Note_on_c, 2, 60, 0
4, 391037, Note_on_c, 2, 60, 70
4, 391077, Note_on_c, 2, 60, 0
4, 391905, Note_on_c, 2, 60, 70
4, 391945, Note_on_c, 2, 60, 0
4, 392193, Note_on_c, 2, 60, 70
4, 392233, Note_on_c, 2, 60, 0
4, 392481, Note_on_c, 2, 60, 70
4, 392521, Note_on_c, 2, 60, 0
4, 392769, Note_on_c, 2, 57, 70
4, 392809, Note_on_c, 2, 57, 0
4, 393217, Program_c, 2, 48
4, 393566, Note_on_c, 2, 55, 70
4, 395537, Note_on_c, 2, 55, 0
4, 396735, Note_on_c, 2, 58, 70
4, 397023, Note_on_c, 2, 57, 70
4, 397025, Note_on_c, 2, 58, 0
4, 397323, Note_on_c, 2, 57, 0
4, 397899, Note_on_c, 2, 55, 80
4, 398676, Note_on_c, 2, 55, 0
4, 398775, Note_on_c, 2, 57, 70
4, 399075, Note_on_c, 2, 57, 0
4, 399623, Note_on_c, 2, 55, 80
4, 400503, Note_on_c, 2, 57, 70
4, 400504, Note_on_c, 2, 55, 0
4, 401383, Note_on_c, 2, 58, 70
4, 401393, Note_on_c, 2, 57, 0
4, 402247, Note_on_c, 2, 58, 0
4, 402247, Note_on_c, 2, 60, 70
4, 403105, Note_on_c, 2, 60, 0
4, 403958, Note_on_c, 2, 58, 70
4, 404482, Note_on_c, 2, 58, 0
4, 404527, Note_on_c, 2, 58, 70
4, 404835, Note_on_c, 2, 59, 70
4, 404837, Note_on_c, 2, 58, 0
4, 405699, Note_on_c, 2, 61, 70
4, 405703, Note_on_c, 2, 59, 0
4, 406567, Note_on_c, 2, 61, 0
4, 407425, Note_on_c, 2, 59, 70
4, 408291, Note_on_c, 2, 59, 0
4, 408291, Note_on_c, 2, 60, 70
4, 409147, Note_on_c, 2, 62, 70
4, 409149, Note_on_c, 2, 60, 0
4, 409694, Note_on_c, 2, 62, 0
4, 409694, Note_on_c, 2, 56, 70
4, 409979, Note_on_c, 2, 56, 0
4, 409979, Note_on_c, 2, 55, 70
4, 410904, Note_on_c, 2, 55, 0
4, 410907, Note_on_c, 2, 56, 70
4, 411207, Note_on_c, 2, 56, 0
4, 414111, Note_on_c, 2, 56, 70
4, 414379, Note_on_c, 2, 56, 0
4, 414379, Note_on_c, 2, 57, 73
4, 415231, Note_on_c, 2, 57, 0
4, 415231, Note_on_c, 2, 58, 76
4, 416079, Note_on_c, 2, 58, 0
4, 416079, Note_on_c, 2, 60, 79
4, 416947, Note_on_c, 2, 60, 0
4, 416947, Note_on_c, 2, 58, 82
4, 417231, Note_on_c, 2, 58, 0
4, 417231, Note_on_c, 2, 60, 84
4, 417507, Note_on_c, 2, 60, 0
4, 417507, Note_on_c, 2, 62, 86
4, 417807, Note_on_c, 2, 62, 0
4, 417835, Note_on_c, 2, 64, 88
4, 417835, Note_on_c, 2, 58, 88
4, 419671, Note_on_c, 2, 58, 0
4, 419671, Note_on_c, 2, 64, 0
4, 420012, Note_on_c, 2, 67, 85
4, 420312, Note_on_c, 2, 67, 0
4, 420368, Note_on_c, 2, 69, 88
4, 420668, Note_on_c, 2, 69, 0
4, 420732, Note_on_c, 2, 70, 90
4, 421286, Note_on_c, 2, 70, 0
4, 421288, Note_on_c, 2, 72, 90
4, 421488, Note_on_c, 2, 72, 0
4, 421504, Note_on_c, 2, 70, 90
4, 422088, Note_on_c, 2, 70, 0
4, 423169, Control_c, 2, 11, 50
4, 423290, Note_on_c, 2, 60, 60
4, 423514, Control_c, 2, 11, 49
4, 423860, Control_c, 2, 11, 48
4, 424205, Control_c, 2, 11, 47
4, 424551, Control_c, 2, 11, 46
4, 424897, Control_c, 2, 11, 45
4, 425242, Control_c, 2, 11, 44
4, 425588, Control_c, 2, 11, 43
4, 425933, Control_c, 2, 11, 42
4, 426279, Control_c, 2, 11, 41
4, 426625, Control_c, 2, 11, 40
4, 426970, Control_c, 2, 11, 39
4, 427316, Control_c, 2, 11, 38
4, 427661, Control_c, 2, 11, 37
4, 428007, Control_c, 2, 11, 36
4, 428353, Control_c, 2, 11, 35
4, 428698, Control_c, 2, 11, 34
4, 429044, Control_c, 2, 11, 33
4, 429389, Control_c, 2, 11, 32
4, 429735, Control_c, 2, 11, 31
4, 430081, Control_c, 2, 11, 30
4, 431160, Note_on_c, 2, 60, 0
4, 436090, Note_on_c, 2, 57, 60
4, 436116, Control_c, 2, 11, 66
4, 436162, Control_c, 2, 11, 67
4, 436208, Control_c, 2, 11, 68
4, 436253, Control_c, 2, 11, 69
4, 436299, Control_c, 2, 11, 70
4, 436345, Control_c, 2, 11, 71
4, 436391, Control_c, 2, 11, 72
4, 436437, Control_c, 2, 11, 73
4, 436483, Control_c, 2, 11, 74
4, 436529, Control_c, 2, 11, 75
4, 436575, Control_c, 2, 11, 76
4, 436620, Control_c, 2, 11, 77
4, 436666, Control_c, 2, 11, 78
4, 436712, Control_c, 2, 11, 79
4, 436758, Control_c, 2, 11, 80
4, 436804, Control_c, 2, 11, 81
4, 436850, Control_c, 2, 11, 82
4, 436896, Control_c, 2, 11, 83
4, 436942, Control_c, 2, 11, 84
4, 436987, Control_c, 2, 11, 85
4, 437033, Control_c, 2, 11, 86
4, 437079, Control_c, 2, 11, 87
4, 437125, Control_c, 2, 11, 88
4, 437171, Control_c, 2, 11, 89
4, 437217, Control_c, 2, 11, 90
4, 437263, Control_c, 2, 11, 91
4, 437309, Control_c, 2, 11, 92
4, 437354, Control_c, 2, 11, 93
4, 437400, Control_c, 2, 11, 94
4, 437446, Control_c, 2, 11, 95
4, 437492, Control_c, 2, 11, 96
4, 437538, Control_c, 2, 11, 97
4, 437584, Control_c, 2, 11, 98
4, 437630, Control_c, 2, 11, 99
4, 437676, Note_on_c, 2, 57, 0
4, 437676, Control_c, 2, 11, 100
4, 438529, Note_on_c, 2, 57, 90
4, 438629, Note_on_c, 2, 57, 0
4, 438805, Note_on_c, 2, 57, 90
4, 438905, Note_on_c, 2, 57, 0
4, 439085, Note_on_c, 2, 57, 90
4, 439185, Note_on_c, 2, 57, 0
4, 439357, Note_on_c, 2, 57, 90
4, 439557, Note_on_c, 2, 57, 0
4, 440155, Note_on_c, 2, 57, 90
4, 440455, Note_on_c, 2, 57, 0
4, 442369, Control_c, 2, 121, 0
4, 442369, End_track
5, 0, Start_track
5, 0, MIDI_port, 0
5, 0, Title_t, "Violas"
5, 0, Program_c, 3, 48
5, 0, Control_c, 3, 7, 127
5, 0, Control_c, 3, 10, 50
5, 4559, Control_c, 3, 91, 127
5, 4943, Control_c, 3, 11, 55
5, 5366, Note_on_c, 3, 58, 55
5, 6862, Note_on_c, 3, 58, 0
5, 6862, Note_on_c, 3, 56, 55
5, 7154, Note_on_c, 3, 56, 0
5, 7154, Note_on_c, 3, 55, 55
5, 7446, Note_on_c, 3, 55, 0
5, 11626, Note_on_c, 3, 55, 55
5, 11862, Note_on_c, 3, 54, 55
5, 11918, Note_on_c, 3, 55, 0
5, 12326, Note_on_c, 3, 54, 0
5, 12326, Note_on_c, 3, 53, 55
5, 12574, Note_on_c, 3, 55, 55
5, 12618, Note_on_c, 3, 53, 0
5, 12822, Note_on_c, 3, 55, 0
5, 13087, Control_c, 3, 11, 65
5, 13090, Note_on_c, 3, 55, 70
5, 13346, Note_on_c, 3, 55, 0
5, 13441, Control_c, 3, 11, 70
5, 13574, Note_on_c, 3, 58, 80
5, 13774, Note_on_c, 3, 58, 0
5, 13826, Note_on_c, 3, 60, 80
5, 14074, Note_on_c, 3, 60, 0
5, 14074, Note_on_c, 3, 60, 80
5, 14274, Note_on_c, 3, 60, 0
5, 14854, Note_on_c, 3, 63, 90
5, 15106, Note_on_c, 3, 63, 0
5, 15106, Note_on_c, 3, 62, 80
5, 15306, Note_on_c, 3, 62, 0
5, 15378, Note_on_c, 3, 63, 80
5, 15378, Note_on_c, 3, 55, 80
5, 15628, Note_on_c, 3, 55, 0
5, 15628, Note_on_c, 3, 63, 0
5, 15886, Note_on_c, 3, 59, 80
5, 15986, Note_on_c, 3, 59, 0
5, 16154, Note_on_c, 3, 60, 80
5, 16254, Note_on_c, 3, 60, 0
5, 16422, Note_on_c, 3, 55, 95
5, 16670, Note_on_c, 3, 55, 0
5, 16670, Note_on_c, 3, 56, 88
5, 16920, Note_on_c, 3, 56, 0
5, 16942, Note_on_c, 3, 70, 95
5, 17206, Note_on_c, 3, 70, 0
5, 17206, Note_on_c, 3, 67, 82
5, 17470, Note_on_c, 3, 67, 0
5, 17474, Note_on_c, 3, 65, 82
5, 17714, Note_on_c, 3, 65, 0
5, 17722, Note_on_c, 3, 63, 95
5, 18254, Note_on_c, 3, 61, 82
5, 18256, Note_on_c, 3, 63, 0
5, 18506, Note_on_c, 3, 60, 80
5, 18510, Note_on_c, 3, 61, 0
5, 18746, Note_on_c, 3, 60, 0
5, 18762, Note_on_c, 3, 60, 78
5, 18982, Note_on_c, 3, 60, 0
5, 19294, Note_on_c, 3, 60, 75
5, 19394, Note_on_c, 3, 60, 0
5, 23041, Control_c, 3, 11, 60
5, 23526, Note_on_c, 3, 56, 70
5, 24294, Note_on_c, 3, 56, 0
5, 24394, Note_on_c, 3, 55, 70
5, 25082, Note_on_c, 3, 56, 70
5, 25182, Note_on_c, 3, 55, 0
5, 25886, Note_on_c, 3, 55, 60
5, 26125, Note_on_c, 3, 56, 0
5, 26386, Note_on_c, 3, 55, 0
5, 26386, Note_on_c, 3, 56, 55
5, 26618, Note_on_c, 3, 56, 0
5, 26618, Note_on_c, 3, 55, 55
5, 27142, Note_on_c, 3, 55, 0
5, 27154, Note_on_c, 3, 56, 55
5, 27394, Note_on_c, 3, 56, 0
5, 27394, Note_on_c, 3, 55, 55
5, 27654, Note_on_c, 3, 55, 0
5, 27654, Note_on_c, 3, 53, 55
5, 28130, Note_on_c, 3, 53, 0
5, 28130, Note_on_c, 3, 55, 55
5, 28414, Note_on_c, 3, 56, 65
5, 28418, Note_on_c, 3, 55, 0
5, 28870, Note_on_c, 3, 56, 0
5, 28870, Note_on_c, 3, 48, 55
5, 29254, Note_on_c, 3, 48, 0
5, 31489, Control_c, 3, 11, 70
5, 31726, Note_on_c, 3, 58, 70
5, 32126, Note_on_c, 3, 58, 0
5, 34177, Control_c, 3, 11, 90
5, 34316, Note_on_c, 3, 60, 90
5, 34416, Note_on_c, 3, 60, 0
5, 34568, Note_on_c, 3, 60, 90
5, 34672, Note_on_c, 3, 60, 0
5, 34816, Note_on_c, 3, 60, 88
5, 34884, Note_on_c, 3, 60, 0
5, 35056, Note_on_c, 3, 65, 85
5, 35152, Note_on_c, 3, 65, 0
5, 35308, Note_on_c, 3, 65, 81
5, 35436, Note_on_c, 3, 65, 0
5, 35564, Note_on_c, 3, 65, 85
5, 35680, Note_on_c, 3, 65, 0
5, 35828, Note_on_c, 3, 65, 85
5, 35972, Note_on_c, 3, 65, 0
5, 37832, Note_on_c, 3, 60, 75
5, 37928, Note_on_c, 3, 60, 0
5, 38084, Note_on_c, 3, 60, 82
5, 38160, Note_on_c, 3, 60, 0
5, 38328, Note_on_c, 3, 60, 93
5, 38404, Note_on_c, 3, 60, 0
5, 38584, Note_on_c, 3, 68, 77
5, 38676, Note_on_c, 3, 68, 0
5, 38832, Note_on_c, 3, 77, 90
5, 38928, Note_on_c, 3, 77, 0
5, 39092, Note_on_c, 3, 77, 88
5, 39336, Note_on_c, 3, 77, 0
5, 41160, Note_on_c, 3, 67, 79
5, 41160, Note_on_c, 3, 60, 79
5, 41336, Note_on_c, 3, 60, 0
5, 41336, Note_on_c, 3, 67, 0
5, 41912, Note_on_c, 3, 67, 74
5, 41912, Note_on_c, 3, 60, 74
5, 42064, Note_on_c, 3, 60, 0
5, 42064, Note_on_c, 3, 67, 0
5, 42416, Note_on_c, 3, 65, 74
5, 42416, Note_on_c, 3, 60, 74
5, 42536, Note_on_c, 3, 60, 0
5, 42536, Note_on_c, 3, 65, 0
5, 42676, Note_on_c, 3, 60, 72
5, 42840, Note_on_c, 3, 60, 0
5, 42944, Note_on_c, 3, 65, 76
5, 43104, Note_on_c, 3, 65, 0
5, 43196, Note_on_c, 3, 58, 76
5, 43368, Note_on_c, 3, 58, 0
5, 43460, Note_on_c, 3, 60, 74
5, 43616, Note_on_c, 3, 60, 0
5, 44208, Note_on_c, 3, 67, 76
5, 44208, Note_on_c, 3, 60, 76
5, 44356, Note_on_c, 3, 60, 0
5, 44356, Note_on_c, 3, 67, 0
5, 44968, Note_on_c, 3, 67, 72
5, 44968, Note_on_c, 3, 60, 72
5, 45108, Note_on_c, 3, 60, 0
5, 45108, Note_on_c, 3, 67, 0
5, 45988, Note_on_c, 3, 68, 71
5, 46136, Note_on_c, 3, 68, 0
5, 46244, Note_on_c, 3, 58, 81
5, 46364, Note_on_c, 3, 58, 0
5, 46500, Note_on_c, 3, 60, 74
5, 46636, Note_on_c, 3, 60, 0
5, 46784, Note_on_c, 3, 68, 82
5, 46784, Note_on_c, 3, 60, 82
5, 46784, Note_on_c, 3, 53, 82
5, 47140, Note_on_c, 3, 53, 0
5, 47140, Note_on_c, 3, 60, 0
5, 47140, Note_on_c, 3, 68, 0
5, 47684, Note_on_c, 3, 80, 94
5, 47684, Note_on_c, 3, 53, 94
5, 48034, Note_on_c, 3, 53, 0
5, 48034, Note_on_c, 3, 80, 0
5, 49153, Control_c, 3, 11, 80
5, 50078, Note_on_c, 3, 53, 89
5, 50689, Program_c, 3, 45
5, 50762, Note_on_c, 3, 53, 0
5, 50920, Note_on_c, 3, 53, 80
5, 50960, Note_on_c, 3, 53, 0
5, 51192, Note_on_c, 3, 53, 80
5, 51232, Note_on_c, 3, 53, 0
5, 52225, Program_c, 3, 48
5, 52609, Control_c, 3, 11, 70
5, 53422, Note_on_c, 3, 55, 70
5, 54650, Note_on_c, 3, 55, 0
5, 54650, Note_on_c, 3, 56, 60
5, 54990, Note_on_c, 3, 56, 0
5, 56833, Control_c, 3, 11, 80
5, 57370, Note_on_c, 3, 63, 80
5, 57954, Note_on_c, 3, 63, 0
5, 57985, Program_c, 3, 45
5, 58276, Note_on_c, 3, 63, 80
5, 58316, Note_on_c, 3, 63, 0
5, 58556, Note_on_c, 3, 63, 80
5, 58596, Note_on_c, 3, 63, 0
5, 59905, Program_c, 3, 48
5, 60673, Control_c, 3, 11, 70
5, 60970, Note_on_c, 3, 54, 70
5, 61894, Note_on_c, 3, 54, 0
5, 61894, Note_on_c, 3, 53, 60
5, 62600, Note_on_c, 3, 53, 0
5, 64513, Program_c, 3, 45
5, 64897, Control_c, 3, 11, 60
5, 65180, Note_on_c, 3, 56, 60
5, 65230, Note_on_c, 3, 56, 0
5, 66700, Note_on_c, 3, 58, 60
5, 66750, Note_on_c, 3, 58, 0
5, 66996, Note_on_c, 3, 56, 60
5, 67046, Note_on_c, 3, 56, 0
5, 67585, Program_c, 3, 48
5, 68474, Note_on_c, 3, 58, 60
5, 68786, Note_on_c, 3, 58, 0
5, 68786, Note_on_c, 3, 56, 60
5, 69666, Note_on_c, 3, 56, 0
5, 69666, Note_on_c, 3, 51, 60
5, 72438, Note_on_c, 3, 51, 0
5, 72438, Note_on_c, 3, 49, 60
5, 72768, Note_on_c, 3, 49, 0
5, 73729, Program_c, 3, 45
5, 74032, Note_on_c, 3, 56, 70
5, 74072, Note_on_c, 3, 56, 0
5, 74348, Note_on_c, 3, 56, 70
5, 74388, Note_on_c, 3, 56, 0
5, 75265, Program_c, 3, 48
5, 75810, Note_on_c, 3, 60, 70
5, 76114, Note_on_c, 3, 60, 0
5, 76114, Note_on_c, 3, 61, 70
5, 79774, Note_on_c, 3, 61, 0
5, 79774, Note_on_c, 3, 52, 70
5, 80390, Note_on_c, 3, 52, 0
5, 82253, Note_on_c, 3, 48, 70
5, 82554, Note_on_c, 3, 48, 0
5, 82554, Note_on_c, 3, 50, 70
5, 82860, Note_on_c, 3, 50, 0
5, 82862, Note_on_c, 3, 51, 70
5, 83162, Note_on_c, 3, 51, 0
5, 83162, Note_on_c, 3, 52, 70
5, 83474, Note_on_c, 3, 52, 0
5, 83474, Note_on_c, 3, 53, 70
5, 83774, Note_on_c, 3, 53, 0
5, 85966, Note_on_c, 3, 53, 70
5, 87553, Program_c, 3, 45
5, 88724, Note_on_c, 3, 53, 70
5, 88764, Note_on_c, 3, 53, 0
5, 89016, Note_on_c, 3, 53, 70
5, 89031, Note_on_c, 3, 53, 0
5, 89056, Note_on_c, 3, 53, 0
5, 89089, Program_c, 3, 48
5, 90494, Note_on_c, 3, 53, 75
5, 90774, Note_on_c, 3, 53, 0
5, 90806, Note_on_c, 3, 53, 85
5, 92630, Note_on_c, 3, 53, 0
5, 92630, Note_on_c, 3, 55, 85
5, 94810, Note_on_c, 3, 55, 0
5, 95233, Program_c, 3, 45
5, 96116, Note_on_c, 3, 55, 70
5, 96156, Note_on_c, 3, 55, 0
5, 96432, Note_on_c, 3, 55, 70
5, 96472, Note_on_c, 3, 55, 0
5, 96769, Program_c, 3, 48
5, 97966, Note_on_c, 3, 56, 70
5, 98282, Note_on_c, 3, 56, 0
5, 98282, Note_on_c, 3, 55, 70
5, 101046, Note_on_c, 3, 55, 0
5, 101046, Note_on_c, 3, 48, 70
5, 101922, Note_on_c, 3, 48, 0
5, 102022, Note_on_c, 3, 53, 80
5, 102342, Note_on_c, 3, 53, 0
5, 103032, Note_on_c, 3, 58, 83
5, 103906, Note_on_c, 3, 58, 0
5, 103906, Note_on_c, 3, 54, 86
5, 104834, Note_on_c, 3, 54, 0
5, 104834, Note_on_c, 3, 53, 84
5, 105732, Note_on_c, 3, 53, 0
5, 105754, Note_on_c, 3, 52, 90
5, 106698, Note_on_c, 3, 52, 0
5, 106698, Note_on_c, 3, 51, 85
5, 109634, Note_on_c, 3, 51, 0
5, 110593, Control_c, 3, 11, 55
5, 111762, Note_on_c, 3, 58, 60
5, 112838, Note_on_c, 3, 58, 0
5, 112838, Note_on_c, 3, 56, 60
5, 113578, Note_on_c, 3, 56, 0
5, 113934, Note_on_c, 3, 63, 60
5, 114284, Note_on_c, 3, 63, 0
5, 116178, Note_on_c, 3, 58, 60
5, 117209, Note_on_c, 3, 56, 60
5, 117210, Note_on_c, 3, 58, 0
5, 117558, Note_on_c, 3, 53, 60
5, 117559, Note_on_c, 3, 56, 0
5, 117922, Note_on_c, 3, 53, 0
5, 117922, Note_on_c, 3, 56, 60
5, 118270, Note_on_c, 3, 55, 60
5, 118272, Note_on_c, 3, 56, 0
5, 118620, Note_on_c, 3, 55, 0
5, 118658, Note_on_c, 3, 60, 60
5, 119013, Note_on_c, 3, 61, 60
5, 119014, Note_on_c, 3, 60, 0
5, 121205, Note_on_c, 3, 61, 0
5, 123330, Note_on_c, 3, 51, 70
5, 124198, Note_on_c, 3, 51, 0
5, 124378, Note_on_c, 3, 51, 70
5, 125246, Note_on_c, 3, 51, 0
5, 125434, Note_on_c, 3, 51, 70
5, 126302, Note_on_c, 3, 51, 0
5, 126510, Note_on_c, 3, 51, 70
5, 126850, Note_on_c, 3, 51, 60
5, 126950, Note_on_c, 3, 51, 0
5, 126994, Note_on_c, 3, 51, 0
5, 127458, Note_on_c, 3, 51, 60
5, 127558, Note_on_c, 3, 51, 0
5, 127762, Note_on_c, 3, 51, 60
5, 127862, Note_on_c, 3, 51, 0
5, 128054, Note_on_c, 3, 51, 60
5, 128104, Note_on_c, 3, 51, 0
5, 128210, Note_on_c, 3, 51, 60
5, 128260, Note_on_c, 3, 51, 0
5, 128366, Note_on_c, 3, 51, 60
5, 128466, Note_on_c, 3, 51, 0
5, 128666, Note_on_c, 3, 51, 60
5, 128766, Note_on_c, 3, 51, 0
5, 128986, Note_on_c, 3, 51, 60
5, 129086, Note_on_c, 3, 51, 0
5, 129327, Note_on_c, 3, 51, 60
5, 129427, Note_on_c, 3, 51, 0
5, 129658, Note_on_c, 3, 51, 60
5, 129758, Note_on_c, 3, 51, 0
5, 129958, Note_on_c, 3, 51, 60
5, 130008, Note_on_c, 3, 51, 0
5, 130118, Note_on_c, 3, 51, 60
5, 130168, Note_on_c, 3, 51, 0
5, 130278, Note_on_c, 3, 51, 60
5, 130378, Note_on_c, 3, 51, 0
5, 130570, Note_on_c, 3, 51, 60
5, 130906, Note_on_c, 3, 51, 0
5, 130906, Note_on_c, 3, 56, 60
5, 131214, Note_on_c, 3, 56, 0
5, 131214, Note_on_c, 3, 53, 60
5, 131566, Note_on_c, 3, 53, 0
5, 131566, Note_on_c, 3, 55, 60
5, 132238, Note_on_c, 3, 55, 0
5, 132239, Note_on_c, 3, 58, 60
5, 132580, Note_on_c, 3, 58, 0
5, 132580, Note_on_c, 3, 53, 60
5, 133338, Note_on_c, 3, 53, 0
5, 133338, Note_on_c, 3, 58, 60
5, 133638, Note_on_c, 3, 58, 0
5, 133658, Note_on_c, 3, 58, 60
5, 133958, Note_on_c, 3, 58, 0
5, 134700, Note_on_c, 3, 51, 60
5, 134800, Note_on_c, 3, 51, 0
5, 135350, Note_on_c, 3, 51, 60
5, 135450, Note_on_c, 3, 51, 0
5, 135672, Note_on_c, 3, 51, 60
5, 135772, Note_on_c, 3, 51, 0
5, 135988, Note_on_c, 3, 51, 60
5, 136038, Note_on_c, 3, 51, 0
5, 136128, Note_on_c, 3, 51, 60
5, 136178, Note_on_c, 3, 51, 0
5, 136312, Note_on_c, 3, 51, 60
5, 136412, Note_on_c, 3, 51, 0
5, 136616, Note_on_c, 3, 51, 60
5, 136666, Note_on_c, 3, 51, 0
5, 136778, Note_on_c, 3, 51, 60
5, 136828, Note_on_c, 3, 51, 0
5, 136940, Note_on_c, 3, 51, 60
5, 136990, Note_on_c, 3, 51, 0
5, 137276, Note_on_c, 3, 51, 60
5, 137326, Note_on_c, 3, 51, 0
5, 137428, Note_on_c, 3, 51, 60
5, 137478, Note_on_c, 3, 51, 0
5, 137584, Note_on_c, 3, 51, 60
5, 137684, Note_on_c, 3, 51, 0
5, 137880, Note_on_c, 3, 51, 60
5, 137930, Note_on_c, 3, 51, 0
5, 138018, Note_on_c, 3, 51, 60
5, 138068, Note_on_c, 3, 51, 0
5, 138216, Note_on_c, 3, 51, 60
5, 138266, Note_on_c, 3, 51, 0
5, 138570, Note_on_c, 3, 51, 60
5, 139398, Note_on_c, 3, 51, 0
5, 139398, Note_on_c, 3, 56, 60
5, 140966, Note_on_c, 3, 56, 0
5, 140966, Note_on_c, 3, 58, 60
5, 141266, Note_on_c, 3, 58, 0
5, 141318, Note_on_c, 3, 58, 60
5, 141368, Note_on_c, 3, 58, 0
5, 141474, Note_on_c, 3, 58, 60
5, 141524, Note_on_c, 3, 58, 0
5, 141646, Note_on_c, 3, 51, 60
5, 141696, Note_on_c, 3, 51, 0
5, 142002, Note_on_c, 3, 51, 60
5, 142302, Note_on_c, 3, 51, 0
5, 142650, Note_on_c, 3, 51, 60
5, 142849, Control_c, 3, 11, 60
5, 142950, Note_on_c, 3, 51, 0
5, 142974, Note_on_c, 3, 56, 60
5, 143274, Note_on_c, 3, 56, 0
5, 143595, Note_on_c, 3, 56, 60
5, 144202, Note_on_c, 3, 56, 0
5, 145530, Note_on_c, 3, 56, 60
5, 145730, Note_on_c, 3, 56, 0
5, 145854, Note_on_c, 3, 56, 60
5, 146054, Note_on_c, 3, 56, 0
5, 146218, Note_on_c, 3, 56, 60
5, 146418, Note_on_c, 3, 56, 0
5, 146558, Note_on_c, 3, 56, 60
5, 146758, Note_on_c, 3, 56, 0
5, 146898, Note_on_c, 3, 56, 60
5, 147198, Note_on_c, 3, 56, 0
5, 147502, Note_on_c, 3, 56, 60
5, 148102, Note_on_c, 3, 56, 0
5, 148628, Note_on_c, 3, 56, 60
5, 148908, Note_on_c, 3, 56, 0
5, 148908, Note_on_c, 3, 58, 60
5, 152204, Note_on_c, 3, 58, 0
5, 152884, Note_on_c, 3, 51, 60
5, 152984, Note_on_c, 3, 51, 0
5, 153190, Note_on_c, 3, 51, 60
5, 153290, Note_on_c, 3, 51, 0
5, 153834, Note_on_c, 3, 51, 60
5, 153934, Note_on_c, 3, 51, 0
5, 154178, Note_on_c, 3, 51, 60
5, 154278, Note_on_c, 3, 51, 0
5, 154858, Note_on_c, 3, 51, 60
5, 154958, Note_on_c, 3, 51, 0
5, 155178, Note_on_c, 3, 51, 60
5, 155278, Note_on_c, 3, 51, 0
5, 155830, Note_on_c, 3, 51, 60
5, 155930, Note_on_c, 3, 51, 0
5, 156166, Note_on_c, 3, 51, 60
5, 156266, Note_on_c, 3, 51, 0
5, 156538, Note_on_c, 3, 51, 60
5, 156638, Note_on_c, 3, 51, 0
5, 156852, Note_on_c, 3, 51, 60
5, 156952, Note_on_c, 3, 51, 0
5, 157166, Note_on_c, 3, 51, 60
5, 157266, Note_on_c, 3, 51, 0
5, 157494, Note_on_c, 3, 51, 60
5, 157594, Note_on_c, 3, 51, 0
5, 157822, Note_on_c, 3, 51, 60
5, 157922, Note_on_c, 3, 51, 0
5, 158162, Note_on_c, 3, 51, 60
5, 158262, Note_on_c, 3, 51, 0
5, 158530, Note_on_c, 3, 51, 60
5, 158630, Note_on_c, 3, 51, 0
5, 158832, Note_on_c, 3, 51, 60
5, 158932, Note_on_c, 3, 51, 0
5, 159134, Note_on_c, 3, 51, 75
5, 159234, Note_on_c, 3, 51, 0
5, 159470, Note_on_c, 3, 51, 60
5, 159570, Note_on_c, 3, 51, 0
5, 159862, Note_on_c, 3, 51, 60
5, 159962, Note_on_c, 3, 51, 0
5, 160129, Control_c, 3, 11, 50
5, 160574, Note_on_c, 3, 51, 60
5, 166484, Note_on_c, 3, 51, 0
5, 178177, Program_c, 3, 48
5, 178658, Note_on_c, 3, 58, 60
5, 181633, Note_on_c, 3, 58, 0
5, 188578, Note_on_c, 3, 58, 60
5, 190158, Note_on_c, 3, 58, 0
5, 190158, Note_on_c, 3, 56, 60
5, 190950, Note_on_c, 3, 56, 0
5, 190950, Note_on_c, 3, 59, 60
5, 192234, Note_on_c, 3, 59, 0
5, 192986, Note_on_c, 3, 63, 60
5, 193478, Note_on_c, 3, 63, 0
5, 193478, Note_on_c, 3, 62, 60
5, 193726, Note_on_c, 3, 63, 60
5, 193746, Note_on_c, 3, 62, 0
5, 193976, Note_on_c, 3, 63, 0
5, 193994, Note_on_c, 3, 65, 60
5, 194498, Note_on_c, 3, 65, 0
5, 199314, Note_on_c, 3, 55, 65
5, 199802, Note_on_c, 3, 55, 0
5, 199802, Note_on_c, 3, 56, 65
5, 200022, Note_on_c, 3, 56, 0
5, 200065, Program_c, 3, 45
5, 200120, Note_on_c, 3, 61, 60
5, 200160, Note_on_c, 3, 61, 0
5, 200372, Note_on_c, 3, 60, 60
5, 200412, Note_on_c, 3, 60, 0
5, 205825, Program_c, 3, 48
5, 206226, Note_on_c, 3, 61, 60
5, 207009, Note_on_c, 3, 61, 0
5, 207774, Note_on_c, 3, 61, 60
5, 208566, Note_on_c, 3, 61, 0
5, 208566, Note_on_c, 3, 59, 60
5, 209370, Note_on_c, 3, 58, 60
5, 209380, Note_on_c, 3, 59, 0
5, 210178, Note_on_c, 3, 58, 0
5, 210178, Note_on_c, 3, 59, 60
5, 210970, Note_on_c, 3, 59, 0
5, 210974, Note_on_c, 3, 61, 60
5, 211778, Note_on_c, 3, 61, 0
5, 211778, Note_on_c, 3, 59, 60
5, 212606, Note_on_c, 3, 59, 0
5, 212606, Note_on_c, 3, 58, 60
5, 212870, Note_on_c, 3, 58, 0
5, 212870, Note_on_c, 3, 56, 60
5, 213142, Note_on_c, 3, 56, 0
5, 213142, Note_on_c, 3, 58, 60
5, 213394, Note_on_c, 3, 58, 0
5, 213394, Note_on_c, 3, 59, 60
5, 214206, Note_on_c, 3, 59, 0
5, 214206, Note_on_c, 3, 58, 60
5, 214458, Note_on_c, 3, 58, 0
5, 214458, Note_on_c, 3, 56, 60
5, 214722, Note_on_c, 3, 56, 0
5, 214722, Note_on_c, 3, 58, 60
5, 214978, Note_on_c, 3, 59, 60
5, 215274, Note_on_c, 3, 58, 0
5, 215782, Note_on_c, 3, 59, 0
5, 215782, Note_on_c, 3, 58, 60
5, 216054, Note_on_c, 3, 58, 0
5, 216054, Note_on_c, 3, 56, 60
5, 216306, Note_on_c, 3, 56, 0
5, 216306, Note_on_c, 3, 58, 60
5, 216566, Note_on_c, 3, 58, 0
5, 216566, Note_on_c, 3, 59, 60
5, 217374, Note_on_c, 3, 59, 0
5, 217374, Note_on_c, 3, 58, 60
5, 217634, Note_on_c, 3, 58, 0
5, 217634, Note_on_c, 3, 56, 60
5, 217898, Note_on_c, 3, 56, 0
5, 217898, Note_on_c, 3, 58, 60
5, 218162, Note_on_c, 3, 58, 0
5, 218162, Note_on_c, 3, 59, 60
5, 219070, Note_on_c, 3, 59, 0
5, 219070, Note_on_c, 3, 61, 60
5, 219370, Note_on_c, 3, 61, 0
5, 220678, Note_on_c, 3, 54, 60
5, 226254, Note_on_c, 3, 54, 0
5, 226434, Note_on_c, 3, 54, 60
5, 233698, Note_on_c, 3, 54, 0
5, 233698, Note_on_c, 3, 53, 60
5, 234514, Note_on_c, 3, 53, 0
5, 234514, Note_on_c, 3, 54, 60
5, 235310, Note_on_c, 3, 54, 0
5, 235310, Note_on_c, 3, 53, 60
5, 236078, Note_on_c, 3, 53, 0
5, 236126, Note_on_c, 3, 54, 60
5, 239294, Note_on_c, 3, 54, 0
5, 239294, Note_on_c, 3, 53, 60
5, 240106, Note_on_c, 3, 53, 0
5, 240106, Note_on_c, 3, 54, 60
5, 240926, Note_on_c, 3, 54, 0
5, 240926, Note_on_c, 3, 53, 60
5, 241702, Note_on_c, 3, 53, 0
5, 241702, Note_on_c, 3, 54, 60
5, 242470, Note_on_c, 3, 54, 0
5, 242518, Note_on_c, 3, 54, 60
5, 244020, Note_on_c, 3, 54, 0
5, 244062, Note_on_c, 3, 54, 60
5, 245598, Note_on_c, 3, 54, 0
5, 245682, Note_on_c, 3, 48, 60
5, 247218, Note_on_c, 3, 48, 0
5, 271873, Control_c, 3, 11, 45
5, 272682, Note_on_c, 3, 67, 60
5, 277006, Note_on_c, 3, 67, 0
5, 286099, Control_c, 3, 91, 127
5, 286483, Control_c, 3, 11, 55
5, 286906, Note_on_c, 3, 58, 55
5, 288402, Note_on_c, 3, 58, 0
5, 288402, Note_on_c, 3, 56, 55
5, 288694, Note_on_c, 3, 56, 0
5, 288694, Note_on_c, 3, 55, 55
5, 288986, Note_on_c, 3, 55, 0
5, 293166, Note_on_c, 3, 55, 55
5, 293402, Note_on_c, 3, 54, 55
5, 293458, Note_on_c, 3, 55, 0
5, 293866, Note_on_c, 3, 54, 0
5, 293866, Note_on_c, 3, 53, 55
5, 294114, Note_on_c, 3, 55, 55
5, 294158, Note_on_c, 3, 53, 0
5, 294362, Note_on_c, 3, 55, 0
5, 294627, Control_c, 3, 11, 65
5, 294630, Note_on_c, 3, 55, 70
5, 294886, Note_on_c, 3, 55, 0
5, 294981, Control_c, 3, 11, 70
5, 295114, Note_on_c, 3, 58, 80
5, 295314, Note_on_c, 3, 58, 0
5, 295366, Note_on_c, 3, 60, 80
5, 295614, Note_on_c, 3, 60, 0
5, 295614, Note_on_c, 3, 60, 80
5, 295814, Note_on_c, 3, 60, 0
5, 296394, Note_on_c, 3, 63, 90
5, 296646, Note_on_c, 3, 63, 0
5, 296646, Note_on_c, 3, 62, 80
5, 296846, Note_on_c, 3, 62, 0
5, 296918, Note_on_c, 3, 63, 80
5, 296918, Note_on_c, 3, 55, 80
5, 297168, Note_on_c, 3, 55, 0
5, 297168, Note_on_c, 3, 63, 0
5, 297426, Note_on_c, 3, 59, 80
5, 297526, Note_on_c, 3, 59, 0
5, 297694, Note_on_c, 3, 60, 80
5, 297794, Note_on_c, 3, 60, 0
5, 297962, Note_on_c, 3, 55, 95
5, 298210, Note_on_c, 3, 55, 0
5, 298210, Note_on_c, 3, 56, 88
5, 298460, Note_on_c, 3, 56, 0
5, 298482, Note_on_c, 3, 70, 95
5, 298746, Note_on_c, 3, 70, 0
5, 298746, Note_on_c, 3, 67, 82
5, 299010, Note_on_c, 3, 67, 0
5, 299014, Note_on_c, 3, 65, 82
5, 299254, Note_on_c, 3, 65, 0
5, 299262, Note_on_c, 3, 63, 95
5, 299794, Note_on_c, 3, 61, 82
5, 299796, Note_on_c, 3, 63, 0
5, 300046, Note_on_c, 3, 60, 80
5, 300050, Note_on_c, 3, 61, 0
5, 300286, Note_on_c, 3, 60, 0
5, 300302, Note_on_c, 3, 60, 78
5, 300522, Note_on_c, 3, 60, 0
5, 300834, Note_on_c, 3, 60, 75
5, 300934, Note_on_c, 3, 60, 0
5, 302593, Control_c, 3, 11, 60
5, 303578, Note_on_c, 3, 62, 60
5, 304512, Note_on_c, 3, 62, 0
5, 304513, Note_on_c, 3, 63, 60
5, 306058, Note_on_c, 3, 63, 0
5, 306058, Note_on_c, 3, 55, 60
5, 307590, Note_on_c, 3, 54, 60
5, 307594, Note_on_c, 3, 55, 0
5, 309894, Note_on_c, 3, 54, 0
5, 311426, Note_on_c, 3, 53, 60
5, 312194, Note_on_c, 3, 53, 0
5, 312194, Note_on_c, 3, 52, 60
5, 313506, Note_on_c, 3, 52, 0
5, 313506, Note_on_c, 3, 58, 60
5, 313742, Note_on_c, 3, 59, 60
5, 313842, Note_on_c, 3, 58, 0
5, 315264, Note_on_c, 3, 60, 60
5, 315278, Note_on_c, 3, 59, 0
5, 316032, Note_on_c, 3, 60, 0
5, 316033, Note_on_c, 3, 56, 60
5, 316787, Note_on_c, 3, 56, 0
5, 316826, Note_on_c, 3, 56, 60
5, 318278, Note_on_c, 3, 56, 0
5, 318318, Note_on_c, 3, 56, 75
5, 319770, Note_on_c, 3, 56, 0
5, 319814, Note_on_c, 3, 56, 75
5, 320538, Note_on_c, 3, 56, 0
5, 320554, Note_on_c, 3, 56, 75
5, 321283, Note_on_c, 3, 56, 0
5, 321310, Note_on_c, 3, 55, 75
5, 322039, Note_on_c, 3, 55, 0
5, 322062, Note_on_c, 3, 56, 70
5, 322842, Note_on_c, 3, 56, 0
5, 322842, Note_on_c, 3, 55, 70
5, 323310, Note_on_c, 3, 55, 0
5, 323310, Note_on_c, 3, 56, 65
5, 323542, Note_on_c, 3, 56, 0
5, 323542, Note_on_c, 3, 55, 65
5, 324074, Note_on_c, 3, 55, 0
5, 324074, Note_on_c, 3, 56, 65
5, 324342, Note_on_c, 3, 56, 0
5, 324342, Note_on_c, 3, 55, 65
5, 324574, Note_on_c, 3, 53, 75
5, 324584, Note_on_c, 3, 55, 0
5, 325050, Note_on_c, 3, 53, 0
5, 325050, Note_on_c, 3, 55, 65
5, 325326, Note_on_c, 3, 56, 80
5, 325328, Note_on_c, 3, 55, 0
5, 325798, Note_on_c, 3, 56, 0
5, 325798, Note_on_c, 3, 48, 65
5, 326266, Note_on_c, 3, 48, 0
5, 328666, Note_on_c, 3, 58, 80
5, 329050, Note_on_c, 3, 58, 0
5, 331138, Control_c, 3, 11, 90
5, 331277, Note_on_c, 3, 60, 90
5, 331377, Note_on_c, 3, 60, 0
5, 331529, Note_on_c, 3, 60, 90
5, 331633, Note_on_c, 3, 60, 0
5, 331777, Note_on_c, 3, 60, 88
5, 331845, Note_on_c, 3, 60, 0
5, 332017, Note_on_c, 3, 65, 85
5, 332113, Note_on_c, 3, 65, 0
5, 332269, Note_on_c, 3, 65, 81
5, 332397, Note_on_c, 3, 65, 0
5, 332525, Note_on_c, 3, 65, 85
5, 332641, Note_on_c, 3, 65, 0
5, 332789, Note_on_c, 3, 65, 85
5, 332933, Note_on_c, 3, 65, 0
5, 334793, Note_on_c, 3, 60, 75
5, 334889, Note_on_c, 3, 60, 0
5, 335045, Note_on_c, 3, 60, 82
5, 335121, Note_on_c, 3, 60, 0
5, 335289, Note_on_c, 3, 60, 93
5, 335365, Note_on_c, 3, 60, 0
5, 335545, Note_on_c, 3, 68, 77
5, 335637, Note_on_c, 3, 68, 0
5, 335793, Note_on_c, 3, 77, 90
5, 335889, Note_on_c, 3, 77, 0
5, 336053, Note_on_c, 3, 77, 88
5, 336297, Note_on_c, 3, 77, 0
5, 338121, Note_on_c, 3, 67, 79
5, 338121, Note_on_c, 3, 60, 79
5, 338297, Note_on_c, 3, 60, 0
5, 338297, Note_on_c, 3, 67, 0
5, 338873, Note_on_c, 3, 67, 74
5, 338873, Note_on_c, 3, 60, 74
5, 339025, Note_on_c, 3, 60, 0
5, 339025, Note_on_c, 3, 67, 0
5, 339377, Note_on_c, 3, 65, 74
5, 339377, Note_on_c, 3, 60, 74
5, 339497, Note_on_c, 3, 60, 0
5, 339497, Note_on_c, 3, 65, 0
5, 339637, Note_on_c, 3, 60, 72
5, 339801, Note_on_c, 3, 60, 0
5, 339905, Note_on_c, 3, 65, 76
5, 340065, Note_on_c, 3, 65, 0
5, 340157, Note_on_c, 3, 58, 76
5, 340329, Note_on_c, 3, 58, 0
5, 340421, Note_on_c, 3, 60, 74
5, 340577, Note_on_c, 3, 60, 0
5, 341169, Note_on_c, 3, 67, 76
5, 341169, Note_on_c, 3, 60, 76
5, 341317, Note_on_c, 3, 60, 0
5, 341317, Note_on_c, 3, 67, 0
5, 341929, Note_on_c, 3, 67, 72
5, 341929, Note_on_c, 3, 60, 72
5, 342069, Note_on_c, 3, 60, 0
5, 342069, Note_on_c, 3, 67, 0
5, 342189, Note_on_c, 3, 65, 71
5, 342337, Note_on_c, 3, 65, 0
5, 342437, Note_on_c, 3, 60, 71
5, 342569, Note_on_c, 3, 60, 0
5, 342689, Note_on_c, 3, 72, 71
5, 342821, Note_on_c, 3, 72, 0
5, 342949, Note_on_c, 3, 72, 71
5, 343097, Note_on_c, 3, 72, 0
5, 343205, Note_on_c, 3, 71, 81
5, 343325, Note_on_c, 3, 71, 0
5, 343461, Note_on_c, 3, 70, 74
5, 343461, Note_on_c, 3, 60, 74
5, 343597, Note_on_c, 3, 60, 0
5, 343597, Note_on_c, 3, 70, 0
5, 343745, Note_on_c, 3, 69, 82
5, 343745, Note_on_c, 3, 60, 82
5, 344329, Note_on_c, 3, 60, 0
5, 344329, Note_on_c, 3, 69, 0
5, 345601, Control_c, 3, 11, 65
5, 347137, Program_c, 3, 45
5, 348673, Note_on_c, 3, 53, 70
5, 348713, Note_on_c, 3, 53, 0
5, 349525, Note_on_c, 3, 53, 70
5, 349565, Note_on_c, 3, 53, 0
5, 350373, Note_on_c, 3, 53, 70
5, 350413, Note_on_c, 3, 53, 0
5, 350649, Note_on_c, 3, 53, 70
5, 350689, Note_on_c, 3, 53, 0
5, 350933, Note_on_c, 3, 53, 70
5, 350973, Note_on_c, 3, 53, 0
5, 351745, Program_c, 3, 48
5, 352050, Note_on_c, 3, 60, 70
5, 352918, Note_on_c, 3, 60, 0
5, 352919, Note_on_c, 3, 61, 70
5, 353783, Note_on_c, 3, 61, 0
5, 353783, Note_on_c, 3, 60, 70
5, 354083, Note_on_c, 3, 60, 0
5, 355201, Program_c, 3, 45
5, 355557, Note_on_c, 3, 53, 70
5, 355597, Note_on_c, 3, 53, 0
5, 356433, Note_on_c, 3, 53, 70
5, 356473, Note_on_c, 3, 53, 0
5, 357293, Note_on_c, 3, 53, 70
5, 357333, Note_on_c, 3, 53, 0
5, 357573, Note_on_c, 3, 53, 70
5, 357613, Note_on_c, 3, 53, 0
5, 357861, Note_on_c, 3, 53, 70
5, 357901, Note_on_c, 3, 53, 0
5, 358657, Program_c, 3, 48
5, 358958, Note_on_c, 3, 60, 70
5, 359831, Note_on_c, 3, 60, 0
5, 359831, Note_on_c, 3, 61, 70
5, 360691, Note_on_c, 3, 61, 0
5, 360691, Note_on_c, 3, 60, 70
5, 360991, Note_on_c, 3, 60, 0
5, 362498, Program_c, 3, 48
5, 363287, Note_on_c, 3, 62, 80
5, 363871, Note_on_c, 3, 62, 0
5, 363871, Note_on_c, 3, 60, 70
5, 364141, Note_on_c, 3, 60, 0
5, 364167, Note_on_c, 3, 60, 70
5, 364467, Note_on_c, 3, 60, 0
5, 365019, Note_on_c, 3, 62, 80
5, 365599, Note_on_c, 3, 62, 0
5, 365599, Note_on_c, 3, 60, 70
5, 365895, Note_on_c, 3, 60, 0
5, 365895, Note_on_c, 3, 53, 70
5, 369317, Note_on_c, 3, 53, 0
5, 369378, Note_on_c, 3, 56, 80
5, 370231, Note_on_c, 3, 54, 65
5, 370610, Note_on_c, 3, 56, 0
5, 371071, Note_on_c, 3, 54, 0
5, 371071, Note_on_c, 3, 56, 65
5, 371935, Note_on_c, 3, 54, 65
5, 371945, Note_on_c, 3, 56, 0
5, 372783, Note_on_c, 3, 54, 0
5, 372831, Note_on_c, 3, 56, 65
5, 373683, Note_on_c, 3, 56, 0
5, 373683, Note_on_c, 3, 54, 65
5, 374535, Note_on_c, 3, 54, 0
5, 374535, Note_on_c, 3, 56, 65
5, 375383, Note_on_c, 3, 56, 0
5, 382883, Note_on_c, 3, 72, 90
5, 382883, Note_on_c, 3, 64, 90
5, 382883, Note_on_c, 3, 55, 90
5, 383153, Note_on_c, 3, 55, 0
5, 383153, Note_on_c, 3, 64, 0
5, 383153, Note_on_c, 3, 72, 0
5, 383199, Note_on_c, 3, 72, 90
5, 383199, Note_on_c, 3, 65, 90
5, 383199, Note_on_c, 3, 57, 90
5, 383469, Note_on_c, 3, 57, 0
5, 383469, Note_on_c, 3, 65, 0
5, 383469, Note_on_c, 3, 72, 0
5, 384001, Program_c, 3, 45
5, 384133, Note_on_c, 3, 53, 70
5, 384173, Note_on_c, 3, 53, 0
5, 384989, Note_on_c, 3, 53, 70
5, 385029, Note_on_c, 3, 53, 0
5, 385269, Note_on_c, 3, 53, 70
5, 385309, Note_on_c, 3, 53, 0
5, 385549, Note_on_c, 3, 53, 70
5, 385589, Note_on_c, 3, 53, 0
5, 385837, Note_on_c, 3, 57, 70
5, 385877, Note_on_c, 3, 57, 0
5, 386305, Program_c, 3, 48
5, 386646, Note_on_c, 3, 60, 70
5, 387507, Note_on_c, 3, 61, 70
5, 387508, Note_on_c, 3, 60, 0
5, 388379, Note_on_c, 3, 61, 0
5, 388379, Note_on_c, 3, 60, 70
5, 388609, Program_c, 3, 45
5, 388679, Note_on_c, 3, 60, 0
5, 390145, Note_on_c, 3, 53, 70
5, 390185, Note_on_c, 3, 53, 0
5, 391037, Note_on_c, 3, 53, 70
5, 391077, Note_on_c, 3, 53, 0
5, 391905, Note_on_c, 3, 53, 70
5, 391945, Note_on_c, 3, 53, 0
5, 392193, Note_on_c, 3, 53, 70
5, 392233, Note_on_c, 3, 53, 0
5, 392481, Note_on_c, 3, 53, 70
5, 392521, Note_on_c, 3, 53, 0
5, 393217, Program_c, 3, 48
5, 393566, Note_on_c, 3, 60, 70
5, 394423, Note_on_c, 3, 60, 0
5, 394423, Note_on_c, 3, 61, 70
5, 395237, Note_on_c, 3, 61, 0
5, 395287, Note_on_c, 3, 60, 70
5, 395587, Note_on_c, 3, 60, 0
5, 397899, Note_on_c, 3, 62, 80
5, 398483, Note_on_c, 3, 62, 0
5, 398483, Note_on_c, 3, 60, 70
5, 398676, Note_on_c, 3, 60, 0
5, 398775, Note_on_c, 3, 57, 70
5, 399075, Note_on_c, 3, 57, 0
5, 399623, Note_on_c, 3, 62, 80
5, 400214, Note_on_c, 3, 62, 0
5, 400215, Note_on_c, 3, 60, 70
5, 401383, Note_on_c, 3, 59, 70
5, 401395, Note_on_c, 3, 60, 0
5, 402247, Note_on_c, 3, 59, 0
5, 402247, Note_on_c, 3, 54, 70
5, 403933, Note_on_c, 3, 54, 0
5, 403958, Note_on_c, 3, 61, 70
5, 404482, Note_on_c, 3, 61, 0
5, 404527, Note_on_c, 3, 61, 70
5, 404835, Note_on_c, 3, 62, 70
5, 404837, Note_on_c, 3, 61, 0
5, 405699, Note_on_c, 3, 55, 70
5, 405703, Note_on_c, 3, 62, 0
5, 407425, Note_on_c, 3, 55, 0
5, 407425, Note_on_c, 3, 62, 70
5, 408291, Note_on_c, 3, 62, 0
5, 408291, Note_on_c, 3, 63, 70
5, 409147, Note_on_c, 3, 56, 70
5, 409149, Note_on_c, 3, 63, 0
5, 409979, Note_on_c, 3, 58, 70
5, 409985, Note_on_c, 3, 56, 0
5, 410904, Note_on_c, 3, 58, 0
5, 410907, Note_on_c, 3, 59, 70
5, 411207, Note_on_c, 3, 59, 0
5, 414111, Note_on_c, 3, 53, 70
5, 414947, Note_on_c, 3, 53, 0
5, 414947, Note_on_c, 3, 54, 70
5, 415231, Note_on_c, 3, 54, 0
5, 415231, Note_on_c, 3, 55, 76
5, 416079, Note_on_c, 3, 55, 0
5, 416079, Note_on_c, 3, 57, 79
5, 416947, Note_on_c, 3, 57, 0
5, 416947, Note_on_c, 3, 62, 82
5, 417231, Note_on_c, 3, 62, 0
5, 417231, Note_on_c, 3, 64, 84
5, 417507, Note_on_c, 3, 64, 0
5, 417507, Note_on_c, 3, 65, 86
5, 417807, Note_on_c, 3, 65, 0
5, 417835, Note_on_c, 3, 67, 88
5, 419671, Note_on_c, 3, 67, 0
5, 420012, Note_on_c, 3, 60, 85
5, 420312, Note_on_c, 3, 60, 0
5, 420368, Note_on_c, 3, 60, 88
5, 420668, Note_on_c, 3, 60, 0
5, 420732, Note_on_c, 3, 64, 90
5, 421286, Note_on_c, 3, 64, 0
5, 421288, Note_on_c, 3, 64, 90
5, 421488, Note_on_c, 3, 64, 0
5, 421504, Note_on_c, 3, 64, 90
5, 422088, Note_on_c, 3, 64, 0
5, 436090, Note_on_c, 3, 48, 60
5, 436116, Control_c, 3, 11, 66
5, 436162, Control_c, 3, 11, 67
5, 436208, Control_c, 3, 11, 68
5, 436253, Control_c, 3, 11, 69
5, 436299, Control_c, 3, 11, 70
5, 436345, Control_c, 3, 11, 71
5, 436391, Control_c, 3, 11, 72
5, 436437, Control_c, 3, 11, 73
5, 436483, Control_c, 3, 11, 74
5, 436529, Control_c, 3, 11, 75
5, 436575, Control_c, 3, 11, 76
5, 436620, Control_c, 3, 11, 77
5, 436666, Control_c, 3, 11, 78
5, 436712, Control_c, 3, 11, 79
5, 436758, Control_c, 3, 11, 80
5, 436804, Control_c, 3, 11, 81
5, 436850, Control_c, 3, 11, 82
5, 436896, Control_c, 3, 11, 83
5, 436942, Control_c, 3, 11, 84
5, 436987, Control_c, 3, 11, 85
5, 437033, Control_c, 3, 11, 86
5, 437079, Control_c, 3, 11, 87
5, 437125, Control_c, 3, 11, 88
5, 437171, Control_c, 3, 11, 89
5, 437217, Control_c, 3, 11, 90
5, 437263, Control_c, 3, 11, 91
5, 437309, Control_c, 3, 11, 92
5, 437354, Control_c, 3, 11, 93
5, 437400, Control_c, 3, 11, 94
5, 437446, Control_c, 3, 11, 95
5, 437492, Control_c, 3, 11, 96
5, 437538, Control_c, 3, 11, 97
5, 437584, Control_c, 3, 11, 98
5, 437630, Control_c, 3, 11, 99
5, 437676, Note_on_c, 3, 48, 0
5, 437676, Control_c, 3, 11, 100
5, 438529, Note_on_c, 3, 53, 90
5, 438629, Note_on_c, 3, 53, 0
5, 438805, Note_on_c, 3, 53, 90
5, 438905, Note_on_c, 3, 53, 0
5, 439085, Note_on_c, 3, 53, 90
5, 439185, Note_on_c, 3, 53, 0
5, 439357, Note_on_c, 3, 53, 90
5, 439557, Note_on_c, 3, 53, 0
5, 440155, Note_on_c, 3, 53, 90
5, 440455, Note_on_c, 3, 53, 0
5, 440911, Note_on_c, 3, 53, 90
5, 440971, Note_on_c, 3, 53, 0
5, 440995, Note_on_c, 3, 53, 90
5, 441763, Note_on_c, 3, 53, 0
5, 442369, Control_c, 3, 121, 0
5, 442369, End_track
6, 0, Start_track
6, 0, MIDI_port, 0
6, 0, Title_t, "Cellos"
6, 0, Program_c, 4, 48
6, 0, Control_c, 4, 7, 127
6, 0, Control_c, 4, 10, 100
6, 1153, Control_c, 4, 91, 127
6, 1537, Control_c, 4, 11, 60
6, 1574, Note_on_c, 4, 53, 55
6, 2318, Note_on_c, 4, 48, 55
6, 2320, Note_on_c, 4, 53, 0
6, 3018, Note_on_c, 4, 48, 0
6, 3018, Note_on_c, 4, 41, 55
6, 3358, Note_on_c, 4, 41, 0
6, 4354, Note_on_c, 4, 48, 55
6, 4626, Note_on_c, 4, 48, 0
6, 4626, Note_on_c, 4, 53, 55
6, 4878, Note_on_c, 4, 53, 0
6, 4878, Note_on_c, 4, 55, 55
6, 5134, Note_on_c, 4, 55, 0
6, 5134, Note_on_c, 4, 57, 55
6, 5366, Note_on_c, 4, 57, 0
6, 5366, Note_on_c, 4, 46, 55
6, 6862, Note_on_c, 4, 46, 0
6, 6862, Note_on_c, 4, 48, 55
6, 7444, Note_on_c, 4, 48, 0
6, 7654, Note_on_c, 4, 53, 55
6, 8398, Note_on_c, 4, 53, 0
6, 8398, Note_on_c, 4, 48, 55
6, 9186, Note_on_c, 4, 48, 0
6, 9186, Note_on_c, 4, 41, 55
6, 9436, Note_on_c, 4, 41, 0
6, 10378, Note_on_c, 4, 48, 55
6, 10646, Note_on_c, 4, 53, 55
6, 10648, Note_on_c, 4, 48, 0
6, 11370, Note_on_c, 4, 53, 0
6, 11398, Note_on_c, 4, 52, 55
6, 11626, Note_on_c, 4, 52, 0
6, 11626, Note_on_c, 4, 49, 55
6, 11862, Note_on_c, 4, 49, 0
6, 11862, Note_on_c, 4, 48, 55
6, 12090, Note_on_c, 4, 48, 0
6, 12090, Note_on_c, 4, 46, 55
6, 12574, Note_on_c, 4, 46, 0
6, 12574, Note_on_c, 4, 48, 55
6, 12834, Note_on_c, 4, 48, 0
6, 12834, Note_on_c, 4, 41, 70
6, 13057, Control_c, 4, 11, 65
6, 13090, Note_on_c, 4, 43, 75
6, 13094, Note_on_c, 4, 41, 0
6, 13346, Note_on_c, 4, 44, 90
6, 13350, Note_on_c, 4, 43, 0
6, 13574, Note_on_c, 4, 44, 0
6, 13574, Note_on_c, 4, 58, 80
6, 13774, Note_on_c, 4, 58, 0
6, 13826, Note_on_c, 4, 48, 80
6, 14074, Note_on_c, 4, 48, 0
6, 14074, Note_on_c, 4, 53, 80
6, 14274, Note_on_c, 4, 53, 0
6, 14334, Note_on_c, 4, 51, 80
6, 14434, Note_on_c, 4, 51, 0
6, 14598, Note_on_c, 4, 56, 80
6, 14698, Note_on_c, 4, 56, 0
6, 14854, Note_on_c, 4, 44, 90
6, 15106, Note_on_c, 4, 44, 0
6, 15106, Note_on_c, 4, 47, 80
6, 15306, Note_on_c, 4, 47, 0
6, 15378, Note_on_c, 4, 48, 80
6, 15628, Note_on_c, 4, 48, 0
6, 15630, Note_on_c, 4, 53, 80
6, 15830, Note_on_c, 4, 53, 0
6, 16154, Note_on_c, 4, 60, 80
6, 16254, Note_on_c, 4, 60, 0
6, 16422, Note_on_c, 4, 48, 95
6, 16670, Note_on_c, 4, 48, 0
6, 16670, Note_on_c, 4, 53, 88
6, 16920, Note_on_c, 4, 53, 0
6, 16942, Note_on_c, 4, 58, 95
6, 17206, Note_on_c, 4, 58, 0
6, 17206, Note_on_c, 4, 60, 82
6, 17470, Note_on_c, 4, 60, 0
6, 17474, Note_on_c, 4, 61, 82
6, 17714, Note_on_c, 4, 61, 0
6, 17722, Note_on_c, 4, 55, 95
6, 17978, Note_on_c, 4, 55, 0
6, 17978, Note_on_c, 4, 56, 80
6, 18254, Note_on_c, 4, 58, 82
6, 18256, Note_on_c, 4, 56, 0
6, 18506, Note_on_c, 4, 52, 80
6, 18510, Note_on_c, 4, 58, 0
6, 18746, Note_on_c, 4, 52, 0
6, 18762, Note_on_c, 4, 53, 78
6, 18892, Note_on_c, 4, 51, 78
6, 18982, Note_on_c, 4, 53, 0
6, 19022, Note_on_c, 4, 49, 75
6, 19112, Note_on_c, 4, 51, 0
6, 19122, Note_on_c, 4, 49, 0
6, 19294, Note_on_c, 4, 48, 75
6, 19394, Note_on_c, 4, 48, 0
6, 19969, Control_c, 4, 11, 60
6, 21302, Note_on_c, 4, 41, 55
6, 21552, Note_on_c, 4, 41, 0
6, 22502, Note_on_c, 4, 48, 55
6, 22770, Note_on_c, 4, 48, 0
6, 22770, Note_on_c, 4, 53, 70
6, 23494, Note_on_c, 4, 53, 0
6, 23526, Note_on_c, 4, 50, 70
6, 24394, Note_on_c, 4, 50, 0
6, 24394, Note_on_c, 4, 49, 70
6, 25082, Note_on_c, 4, 48, 70
6, 25083, Note_on_c, 4, 49, 0
6, 25886, Note_on_c, 4, 48, 0
6, 25886, Note_on_c, 4, 46, 70
6, 26122, Note_on_c, 4, 46, 0
6, 26142, Note_on_c, 4, 48, 60
6, 26386, Note_on_c, 4, 48, 0
6, 26386, Note_on_c, 4, 41, 55
6, 26618, Note_on_c, 4, 41, 0
6, 26618, Note_on_c, 4, 48, 55
6, 27142, Note_on_c, 4, 48, 0
6, 27154, Note_on_c, 4, 41, 55
6, 27394, Note_on_c, 4, 41, 0
6, 27394, Note_on_c, 4, 48, 55
6, 28108, Note_on_c, 4, 48, 0
6, 28130, Note_on_c, 4, 48, 55
6, 28414, Note_on_c, 4, 41, 65
6, 28418, Note_on_c, 4, 48, 0
6, 28870, Note_on_c, 4, 41, 0
6, 28870, Note_on_c, 4, 48, 55
6, 29254, Note_on_c, 4, 48, 0
6, 31105, Control_c, 4, 11, 70
6, 31238, Note_on_c, 4, 45, 60
6, 31470, Note_on_c, 4, 45, 0
6, 31470, Note_on_c, 4, 46, 65
6, 31726, Note_on_c, 4, 46, 0
6, 31726, Note_on_c, 4, 49, 70
6, 32126, Note_on_c, 4, 49, 0
6, 34177, Control_c, 4, 11, 80
6, 34568, Note_on_c, 4, 53, 70
6, 34668, Note_on_c, 4, 53, 0
6, 34816, Note_on_c, 4, 52, 72
6, 34916, Note_on_c, 4, 52, 0
6, 35056, Note_on_c, 4, 51, 74
6, 35156, Note_on_c, 4, 51, 0
6, 35308, Note_on_c, 4, 49, 76
6, 35408, Note_on_c, 4, 49, 0
6, 35564, Note_on_c, 4, 48, 78
6, 35664, Note_on_c, 4, 48, 0
6, 35828, Note_on_c, 4, 46, 80
6, 35928, Note_on_c, 4, 46, 0
6, 36104, Note_on_c, 4, 48, 82
6, 36384, Note_on_c, 4, 48, 0
6, 37832, Note_on_c, 4, 53, 82
6, 37932, Note_on_c, 4, 53, 0
6, 38084, Note_on_c, 4, 53, 82
6, 38184, Note_on_c, 4, 53, 0
6, 38328, Note_on_c, 4, 53, 82
6, 38428, Note_on_c, 4, 53, 0
6, 38584, Note_on_c, 4, 51, 84
6, 38684, Note_on_c, 4, 51, 0
6, 38832, Note_on_c, 4, 49, 86
6, 38932, Note_on_c, 4, 49, 0
6, 39092, Note_on_c, 4, 48, 88
6, 39352, Note_on_c, 4, 48, 0
6, 41160, Note_on_c, 4, 48, 75
6, 41260, Note_on_c, 4, 48, 0
6, 41412, Note_on_c, 4, 53, 75
6, 41512, Note_on_c, 4, 53, 0
6, 41912, Note_on_c, 4, 48, 75
6, 42012, Note_on_c, 4, 48, 0
6, 42160, Note_on_c, 4, 53, 75
6, 42260, Note_on_c, 4, 53, 0
6, 42416, Note_on_c, 4, 53, 75
6, 42516, Note_on_c, 4, 53, 0
6, 42676, Note_on_c, 4, 55, 75
6, 42776, Note_on_c, 4, 55, 0
6, 42944, Note_on_c, 4, 56, 75
6, 43044, Note_on_c, 4, 56, 0
6, 43196, Note_on_c, 4, 58, 75
6, 43296, Note_on_c, 4, 58, 0
6, 43460, Note_on_c, 4, 60, 75
6, 43560, Note_on_c, 4, 60, 0
6, 43716, Note_on_c, 4, 53, 75
6, 43816, Note_on_c, 4, 53, 0
6, 44208, Note_on_c, 4, 48, 75
6, 44308, Note_on_c, 4, 48, 0
6, 44464, Note_on_c, 4, 53, 75
6, 44564, Note_on_c, 4, 53, 0
6, 44968, Note_on_c, 4, 48, 75
6, 45068, Note_on_c, 4, 48, 0
6, 45228, Note_on_c, 4, 53, 75
6, 45328, Note_on_c, 4, 53, 0
6, 45476, Note_on_c, 4, 56, 75
6, 45576, Note_on_c, 4, 56, 0
6, 45728, Note_on_c, 4, 55, 75
6, 45828, Note_on_c, 4, 55, 0
6, 45988, Note_on_c, 4, 56, 75
6, 46088, Note_on_c, 4, 56, 0
6, 46244, Note_on_c, 4, 58, 75
6, 46344, Note_on_c, 4, 58, 0
6, 46500, Note_on_c, 4, 60, 75
6, 46600, Note_on_c, 4, 60, 0
6, 46784, Note_on_c, 4, 53, 75
6, 46884, Note_on_c, 4, 53, 0
6, 47684, Note_on_c, 4, 53, 75
6, 47984, Note_on_c, 4, 53, 0
6, 48568, Note_on_c, 4, 41, 75
6, 49153, Control_c, 4, 11, 80
6, 49252, Note_on_c, 4, 41, 0
6, 50078, Note_on_c, 4, 41, 89
6, 50689, Program_c, 4, 45
6, 50762, Note_on_c, 4, 41, 0
6, 50920, Note_on_c, 4, 41, 80
6, 50960, Note_on_c, 4, 41, 0
6, 52225, Program_c, 4, 48
6, 52609, Control_c, 4, 11, 70
6, 53422, Note_on_c, 4, 46, 70
6, 54650, Note_on_c, 4, 46, 0
6, 54650, Note_on_c, 4, 44, 60
6, 54990, Note_on_c, 4, 44, 0
6, 56833, Control_c, 4, 11, 80
6, 57370, Note_on_c, 4, 51, 80
6, 57954, Note_on_c, 4, 51, 0
6, 57985, Program_c, 4, 45
6, 58276, Note_on_c, 4, 39, 80
6, 58316, Note_on_c, 4, 39, 0
6, 58556, Note_on_c, 4, 51, 80
6, 58596, Note_on_c, 4, 51, 0
6, 59905, Program_c, 4, 48
6, 60673, Control_c, 4, 11, 70
6, 60970, Note_on_c, 4, 45, 70
6, 61894, Note_on_c, 4, 45, 0
6, 61894, Note_on_c, 4, 46, 65
6, 62250, Note_on_c, 4, 46, 0
6, 62250, Note_on_c, 4, 44, 60
6, 62600, Note_on_c, 4, 44, 0
6, 64513, Program_c, 4, 45
6, 64897, Control_c, 4, 11, 70
6, 65180, Note_on_c, 4, 44, 60
6, 65230, Note_on_c, 4, 44, 0
6, 66700, Note_on_c, 4, 51, 60
6, 66750, Note_on_c, 4, 51, 0
6, 66996, Note_on_c, 4, 44, 60
6, 67046, Note_on_c, 4, 44, 0
6, 67585, Program_c, 4, 48
6, 68474, Note_on_c, 4, 51, 60
6, 68786, Note_on_c, 4, 51, 0
6, 68786, Note_on_c, 4, 44, 60
6, 72438, Note_on_c, 4, 44, 0
6, 72438, Note_on_c, 4, 49, 60
6, 72768, Note_on_c, 4, 49, 0
6, 73729, Program_c, 4, 45
6, 74032, Note_on_c, 4, 44, 70
6, 74072, Note_on_c, 4, 44, 0
6, 74348, Note_on_c, 4, 37, 70
6, 74388, Note_on_c, 4, 37, 0
6, 75265, Program_c, 4, 48
6, 75810, Note_on_c, 4, 44, 70
6, 76114, Note_on_c, 4, 44, 0
6, 76114, Note_on_c, 4, 49, 70
6, 77890, Note_on_c, 4, 49, 0
6, 77890, Note_on_c, 4, 51, 70
6, 79774, Note_on_c, 4, 51, 0
6, 82253, Note_on_c, 4, 36, 70
6, 82554, Note_on_c, 4, 36, 0
6, 82554, Note_on_c, 4, 38, 70
6, 82860, Note_on_c, 4, 38, 0
6, 82862, Note_on_c, 4, 39, 70
6, 83162, Note_on_c, 4, 39, 0
6, 83162, Note_on_c, 4, 40, 70
6, 83474, Note_on_c, 4, 40, 0
6, 83474, Note_on_c, 4, 41, 70
6, 83774, Note_on_c, 4, 41, 0
6, 85966, Note_on_c, 4, 41, 70
6, 86254, Note_on_c, 4, 41, 0
6, 86254, Note_on_c, 4, 43, 70
6, 86546, Note_on_c, 4, 43, 0
6, 86546, Note_on_c, 4, 44, 70
6, 86842, Note_on_c, 4, 44, 0
6, 86842, Note_on_c, 4, 45, 70
6, 87190, Note_on_c, 4, 45, 0
6, 87190, Note_on_c, 4, 46, 70
6, 87490, Note_on_c, 4, 46, 0
6, 87553, Program_c, 4, 45
6, 88724, Note_on_c, 4, 41, 70
6, 88764, Note_on_c, 4, 41, 0
6, 89016, Note_on_c, 4, 46, 70
6, 89056, Note_on_c, 4, 46, 0
6, 89089, Program_c, 4, 48
6, 90494, Note_on_c, 4, 41, 75
6, 90774, Note_on_c, 4, 41, 0
6, 90806, Note_on_c, 4, 44, 85
6, 92630, Note_on_c, 4, 44, 0
6, 92630, Note_on_c, 4, 43, 78
6, 94506, Note_on_c, 4, 43, 0
6, 94506, Note_on_c, 4, 48, 75
6, 94806, Note_on_c, 4, 48, 0
6, 95233, Program_c, 4, 45
6, 96116, Note_on_c, 4, 55, 70
6, 96156, Note_on_c, 4, 55, 0
6, 96432, Note_on_c, 4, 48, 70
6, 96472, Note_on_c, 4, 48, 0
6, 96769, Program_c, 4, 48
6, 97966, Note_on_c, 4, 43, 70
6, 98282, Note_on_c, 4, 43, 0
6, 98282, Note_on_c, 4, 48, 70
6, 101046, Note_on_c, 4, 48, 0
6, 101046, Note_on_c, 4, 40, 70
6, 101922, Note_on_c, 4, 40, 0
6, 102022, Note_on_c, 4, 41, 80
6, 103032, Note_on_c, 4, 43, 83
6, 103132, Note_on_c, 4, 41, 0
6, 103906, Note_on_c, 4, 43, 0
6, 103906, Note_on_c, 4, 45, 86
6, 104834, Note_on_c, 4, 45, 0
6, 104834, Note_on_c, 4, 46, 84
6, 105732, Note_on_c, 4, 46, 0
6, 105754, Note_on_c, 4, 43, 90
6, 107638, Note_on_c, 4, 43, 0
6, 107638, Note_on_c, 4, 44, 90
6, 109222, Note_on_c, 4, 44, 0
6, 109222, Note_on_c, 4, 39, 82
6, 109912, Note_on_c, 4, 39, 0
6, 110593, Control_c, 4, 11, 55
6, 111762, Note_on_c, 4, 39, 60
6, 112748, Note_on_c, 4, 44, 60
6, 112838, Note_on_c, 4, 39, 0
6, 113488, Note_on_c, 4, 44, 0
6, 113578, Note_on_c, 4, 48, 60
6, 113934, Note_on_c, 4, 48, 0
6, 113934, Note_on_c, 4, 51, 60
6, 115398, Note_on_c, 4, 51, 0
6, 116178, Note_on_c, 4, 39, 60
6, 117209, Note_on_c, 4, 44, 65
6, 117210, Note_on_c, 4, 39, 0
6, 117558, Note_on_c, 4, 46, 80
6, 117559, Note_on_c, 4, 44, 0
6, 118270, Note_on_c, 4, 46, 0
6, 118270, Note_on_c, 4, 51, 70
6, 122654, Note_on_c, 4, 51, 0
6, 122654, Note_on_c, 4, 44, 70
6, 122954, Note_on_c, 4, 44, 0
6, 123330, Note_on_c, 4, 44, 70
6, 124198, Note_on_c, 4, 44, 0
6, 124378, Note_on_c, 4, 44, 70
6, 125246, Note_on_c, 4, 44, 0
6, 125434, Note_on_c, 4, 44, 70
6, 126302, Note_on_c, 4, 44, 0
6, 126510, Note_on_c, 4, 44, 70
6, 126721, Control_c, 4, 11, 60
6, 126994, Note_on_c, 4, 44, 0
6, 127105, Program_c, 4, 45
6, 127508, Note_on_c, 4, 44, 70
6, 127548, Note_on_c, 4, 44, 0
6, 127812, Note_on_c, 4, 39, 70
6, 127852, Note_on_c, 4, 39, 0
6, 128416, Note_on_c, 4, 39, 70
6, 128456, Note_on_c, 4, 39, 0
6, 128716, Note_on_c, 4, 44, 70
6, 128756, Note_on_c, 4, 44, 0
6, 129377, Note_on_c, 4, 44, 70
6, 129417, Note_on_c, 4, 44, 0
6, 129708, Note_on_c, 4, 39, 70
6, 129748, Note_on_c, 4, 39, 0
6, 130177, Program_c, 4, 48
6, 130328, Note_on_c, 4, 39, 70
6, 130570, Note_on_c, 4, 39, 0
6, 130570, Note_on_c, 4, 44, 70
6, 131214, Note_on_c, 4, 44, 0
6, 131214, Note_on_c, 4, 45, 70
6, 131566, Note_on_c, 4, 45, 0
6, 131566, Note_on_c, 4, 46, 70
6, 133658, Note_on_c, 4, 46, 0
6, 133658, Note_on_c, 4, 51, 70
6, 133958, Note_on_c, 4, 51, 0
6, 134700, Note_on_c, 4, 44, 70
6, 135000, Note_on_c, 4, 44, 0
6, 135169, Program_c, 4, 45
6, 135400, Note_on_c, 4, 44, 70
6, 135440, Note_on_c, 4, 44, 0
6, 135722, Note_on_c, 4, 51, 70
6, 135762, Note_on_c, 4, 51, 0
6, 136362, Note_on_c, 4, 39, 70
6, 136402, Note_on_c, 4, 39, 0
6, 136664, Note_on_c, 4, 44, 70
6, 136704, Note_on_c, 4, 44, 0
6, 137276, Note_on_c, 4, 44, 70
6, 137316, Note_on_c, 4, 44, 0
6, 137632, Note_on_c, 4, 39, 70
6, 137672, Note_on_c, 4, 39, 0
6, 137857, Program_c, 4, 48
6, 138216, Note_on_c, 4, 39, 70
6, 138570, Note_on_c, 4, 39, 0
6, 138570, Note_on_c, 4, 44, 70
6, 139826, Note_on_c, 4, 44, 0
6, 139826, Note_on_c, 4, 49, 70
6, 140966, Note_on_c, 4, 49, 0
6, 140966, Note_on_c, 4, 51, 70
6, 141266, Note_on_c, 4, 51, 0
6, 141646, Note_on_c, 4, 39, 70
6, 142002, Note_on_c, 4, 56, 70
6, 142004, Note_on_c, 4, 39, 0
6, 142302, Note_on_c, 4, 56, 0
6, 142849, Control_c, 4, 11, 60
6, 142974, Note_on_c, 4, 44, 60
6, 143274, Note_on_c, 4, 44, 0
6, 143595, Note_on_c, 4, 44, 60
6, 143902, Note_on_c, 4, 44, 0
6, 143902, Note_on_c, 4, 49, 60
6, 144202, Note_on_c, 4, 49, 0
6, 145530, Note_on_c, 4, 44, 60
6, 145730, Note_on_c, 4, 44, 0
6, 145854, Note_on_c, 4, 49, 60
6, 146054, Note_on_c, 4, 49, 0
6, 146218, Note_on_c, 4, 49, 60
6, 146418, Note_on_c, 4, 49, 0
6, 146558, Note_on_c, 4, 49, 60
6, 146758, Note_on_c, 4, 49, 0
6, 146898, Note_on_c, 4, 44, 60
6, 147198, Note_on_c, 4, 44, 0
6, 147502, Note_on_c, 4, 44, 60
6, 147802, Note_on_c, 4, 44, 0
6, 147826, Note_on_c, 4, 49, 60
6, 148126, Note_on_c, 4, 49, 0
6, 148628, Note_on_c, 4, 52, 60
6, 148908, Note_on_c, 4, 52, 0
6, 148908, Note_on_c, 4, 51, 60
6, 152204, Note_on_c, 4, 51, 0
6, 152574, Note_on_c, 4, 44, 60
6, 152833, Program_c, 4, 45
6, 152874, Note_on_c, 4, 44, 0
6, 153576, Note_on_c, 4, 39, 60
6, 153616, Note_on_c, 4, 39, 0
6, 154588, Note_on_c, 4, 44, 60
6, 154628, Note_on_c, 4, 44, 0
6, 155564, Note_on_c, 4, 39, 60
6, 155604, Note_on_c, 4, 39, 0
6, 156588, Note_on_c, 4, 44, 60
6, 156628, Note_on_c, 4, 44, 0
6, 157216, Note_on_c, 4, 39, 60
6, 157256, Note_on_c, 4, 39, 0
6, 157544, Note_on_c, 4, 46, 60
6, 157584, Note_on_c, 4, 46, 0
6, 158212, Note_on_c, 4, 39, 60
6, 158252, Note_on_c, 4, 39, 0
6, 158580, Note_on_c, 4, 44, 60
6, 158620, Note_on_c, 4, 44, 0
6, 158977, Program_c, 4, 48
6, 159470, Note_on_c, 4, 39, 60
6, 159770, Note_on_c, 4, 39, 0
6, 160129, Control_c, 4, 11, 50
6, 160574, Note_on_c, 4, 44, 60
6, 166484, Note_on_c, 4, 44, 0
6, 176641, Program_c, 4, 45
6, 177025, Control_c, 4, 11, 60
6, 177460, Note_on_c, 4, 56, 60
6, 177500, Note_on_c, 4, 56, 0
6, 177704, Note_on_c, 4, 55, 60
6, 177744, Note_on_c, 4, 55, 0
6, 177952, Note_on_c, 4, 56, 60
6, 177992, Note_on_c, 4, 56, 0
6, 178177, Program_c, 4, 48
6, 178658, Note_on_c, 4, 51, 60
6, 181633, Note_on_c, 4, 51, 0
6, 181633, Note_on_c, 4, 44, 60
6, 181983, Note_on_c, 4, 44, 0
6, 182785, Program_c, 4, 45
6, 183444, Note_on_c, 4, 56, 60
6, 183484, Note_on_c, 4, 56, 0
6, 183696, Note_on_c, 4, 55, 60
6, 183736, Note_on_c, 4, 55, 0
6, 183948, Note_on_c, 4, 56, 60
6, 183988, Note_on_c, 4, 56, 0
6, 184321, Program_c, 4, 48
6, 184666, Note_on_c, 4, 51, 60
6, 186202, Note_on_c, 4, 51, 0
6, 186202, Note_on_c, 4, 53, 63
6, 186970, Note_on_c, 4, 53, 0
6, 186970, Note_on_c, 4, 55, 66
6, 187774, Note_on_c, 4, 55, 0
6, 187774, Note_on_c, 4, 56, 65
6, 189134, Note_on_c, 4, 56, 0
6, 189134, Note_on_c, 4, 55, 62
6, 189394, Note_on_c, 4, 55, 0
6, 189394, Note_on_c, 4, 54, 65
6, 190686, Note_on_c, 4, 54, 0
6, 190686, Note_on_c, 4, 53, 62
6, 190906, Note_on_c, 4, 53, 0
6, 190950, Note_on_c, 4, 53, 62
6, 191713, Note_on_c, 4, 51, 62
6, 191718, Note_on_c, 4, 53, 0
6, 192497, Note_on_c, 4, 51, 0
6, 192498, Note_on_c, 4, 56, 62
6, 192986, Note_on_c, 4, 56, 0
6, 192986, Note_on_c, 4, 55, 62
6, 193230, Note_on_c, 4, 55, 0
6, 193230, Note_on_c, 4, 53, 62
6, 194246, Note_on_c, 4, 53, 0
6, 194246, Note_on_c, 4, 47, 62
6, 194498, Note_on_c, 4, 47, 0
6, 194498, Note_on_c, 4, 48, 62
6, 194746, Note_on_c, 4, 48, 0
6, 194746, Note_on_c, 4, 55, 62
6, 195010, Note_on_c, 4, 55, 0
6, 195250, Note_on_c, 4, 50, 62
6, 195506, Note_on_c, 4, 50, 0
6, 195506, Note_on_c, 4, 57, 62
6, 195770, Note_on_c, 4, 57, 0
6, 196022, Note_on_c, 4, 52, 62
6, 196266, Note_on_c, 4, 52, 0
6, 196266, Note_on_c, 4, 54, 75
6, 196786, Note_on_c, 4, 54, 0
6, 196786, Note_on_c, 4, 47, 65
6, 197050, Note_on_c, 4, 59, 65
6, 197086, Note_on_c, 4, 47, 0
6, 197290, Note_on_c, 4, 59, 0
6, 197550, Note_on_c, 4, 54, 65
6, 197770, Note_on_c, 4, 54, 0
6, 197798, Note_on_c, 4, 49, 65
6, 198062, Note_on_c, 4, 49, 0
6, 198310, Note_on_c, 4, 56, 65
6, 198530, Note_on_c, 4, 56, 0
6, 198558, Note_on_c, 4, 51, 65
6, 198802, Note_on_c, 4, 51, 0
6, 199062, Note_on_c, 4, 46, 65
6, 199314, Note_on_c, 4, 46, 0
6, 199314, Note_on_c, 4, 48, 65
6, 199802, Note_on_c, 4, 48, 0
6, 199802, Note_on_c, 4, 53, 65
6, 200022, Note_on_c, 4, 53, 0
6, 204658, Note_on_c, 4, 49, 60
6, 204914, Note_on_c, 4, 49, 0
6, 204914, Note_on_c, 4, 42, 60
6, 208564, Note_on_c, 4, 42, 0
6, 208566, Note_on_c, 4, 47, 60
6, 208826, Note_on_c, 4, 47, 0
6, 208826, Note_on_c, 4, 49, 60
6, 209370, Note_on_c, 4, 49, 0
6, 209370, Note_on_c, 4, 42, 60
6, 211502, Note_on_c, 4, 42, 0
6, 211502, Note_on_c, 4, 43, 60
6, 211778, Note_on_c, 4, 44, 60
6, 212046, Note_on_c, 4, 43, 0
6, 212054, Note_on_c, 4, 44, 0
6, 212054, Note_on_c, 4, 49, 70
6, 212606, Note_on_c, 4, 49, 0
6, 212606, Note_on_c, 4, 54, 60
6, 213394, Note_on_c, 4, 54, 0
6, 213394, Note_on_c, 4, 47, 60
6, 214206, Note_on_c, 4, 47, 0
6, 214206, Note_on_c, 4, 54, 60
6, 214978, Note_on_c, 4, 54, 0
6, 214978, Note_on_c, 4, 53, 60
6, 215782, Note_on_c, 4, 53, 0
6, 215782, Note_on_c, 4, 54, 60
6, 216566, Note_on_c, 4, 54, 0
6, 216566, Note_on_c, 4, 47, 60
6, 217374, Note_on_c, 4, 47, 0
6, 217374, Note_on_c, 4, 54, 60
6, 218162, Note_on_c, 4, 54, 0
6, 218162, Note_on_c, 4, 53, 60
6, 219070, Note_on_c, 4, 53, 0
6, 219070, Note_on_c, 4, 54, 60
6, 220716, Note_on_c, 4, 54, 0
6, 226434, Note_on_c, 4, 59, 60
6, 227266, Note_on_c, 4, 59, 0
6, 227266, Note_on_c, 4, 42, 60
6, 228078, Note_on_c, 4, 42, 0
6, 228078, Note_on_c, 4, 59, 60
6, 228865, Note_on_c, 4, 59, 0
6, 228865, Note_on_c, 4, 42, 60
6, 229666, Note_on_c, 4, 42, 0
6, 229666, Note_on_c, 4, 59, 60
6, 232602, Note_on_c, 4, 59, 0
6, 232602, Note_on_c, 4, 58, 60
6, 232882, Note_on_c, 4, 58, 0
6, 232882, Note_on_c, 4, 39, 60
6, 233698, Note_on_c, 4, 39, 0
6, 233698, Note_on_c, 4, 58, 60
6, 234514, Note_on_c, 4, 58, 0
6, 234514, Note_on_c, 4, 39, 60
6, 235310, Note_on_c, 4, 39, 0
6, 235310, Note_on_c, 4, 46, 60
6, 236078, Note_on_c, 4, 46, 0
6, 236126, Note_on_c, 4, 39, 60
6, 237698, Note_on_c, 4, 39, 0
6, 237698, Note_on_c, 4, 44, 60
6, 239294, Note_on_c, 4, 44, 0
6, 239294, Note_on_c, 4, 37, 60
6, 240106, Note_on_c, 4, 37, 0
6, 240106, Note_on_c, 4, 44, 60
6, 240926, Note_on_c, 4, 44, 0
6, 240926, Note_on_c, 4, 37, 60
6, 241702, Note_on_c, 4, 37, 0
6, 241702, Note_on_c, 4, 44, 60
6, 242518, Note_on_c, 4, 44, 0
6, 242518, Note_on_c, 4, 37, 60
6, 244062, Note_on_c, 4, 37, 0
6, 244062, Note_on_c, 4, 49, 60
6, 245682, Note_on_c, 4, 49, 0
6, 245682, Note_on_c, 4, 36, 60
6, 246824, Note_on_c, 4, 36, 0
6, 250369, Control_c, 4, 11, 70
6, 250782, Note_on_c, 4, 48, 90
6, 250932, Note_on_c, 4, 48, 0
6, 251074, Note_on_c, 4, 48, 90
6, 251224, Note_on_c, 4, 48, 0
6, 251370, Note_on_c, 4, 48, 90
6, 251520, Note_on_c, 4, 48, 0
6, 251662, Note_on_c, 4, 48, 90
6, 251812, Note_on_c, 4, 48, 0
6, 251946, Note_on_c, 4, 48, 90
6, 252096, Note_on_c, 4, 48, 0
6, 252104, Control_c, 4, 11, 60
6, 252222, Note_on_c, 4, 48, 60
6, 253074, Note_on_c, 4, 48, 0
6, 253074, Note_on_c, 4, 49, 60
6, 253910, Note_on_c, 4, 49, 0
6, 253910, Note_on_c, 4, 48, 60
6, 254766, Note_on_c, 4, 48, 0
6, 254766, Note_on_c, 4, 43, 60
6, 255614, Note_on_c, 4, 43, 0
6, 255614, Note_on_c, 4, 48, 60
6, 256512, Note_on_c, 4, 48, 0
6, 256513, Note_on_c, 4, 49, 60
6, 257358, Note_on_c, 4, 49, 0
6, 257358, Note_on_c, 4, 48, 60
6, 258234, Note_on_c, 4, 48, 0
6, 258234, Note_on_c, 4, 43, 60
6, 259082, Note_on_c, 4, 43, 0
6, 259082, Note_on_c, 4, 48, 60
6, 259946, Note_on_c, 4, 48, 0
6, 259946, Note_on_c, 4, 43, 60
6, 260810, Note_on_c, 4, 43, 0
6, 260810, Note_on_c, 4, 48, 60
6, 261714, Note_on_c, 4, 48, 0
6, 261714, Note_on_c, 4, 43, 60
6, 266474, Note_on_c, 4, 43, 0
6, 266474, Note_on_c, 4, 48, 50
6, 267364, Note_on_c, 4, 48, 0
6, 268801, Control_c, 4, 11, 45
6, 268942, Note_on_c, 4, 36, 50
6, 278158, Note_on_c, 4, 36, 0
6, 283114, Note_on_c, 4, 53, 55
6, 283858, Note_on_c, 4, 48, 55
6, 283860, Note_on_c, 4, 53, 0
6, 284558, Note_on_c, 4, 48, 0
6, 284558, Note_on_c, 4, 41, 55
6, 284898, Note_on_c, 4, 41, 0
6, 285894, Note_on_c, 4, 48, 55
6, 286166, Note_on_c, 4, 48, 0
6, 286166, Note_on_c, 4, 53, 55
6, 286418, Note_on_c, 4, 53, 0
6, 286418, Note_on_c, 4, 55, 55
6, 286674, Note_on_c, 4, 55, 0
6, 286674, Note_on_c, 4, 57, 55
6, 286906, Note_on_c, 4, 57, 0
6, 286906, Note_on_c, 4, 46, 55
6, 288402, Note_on_c, 4, 46, 0
6, 288402, Note_on_c, 4, 48, 55
6, 288984, Note_on_c, 4, 48, 0
6, 289194, Note_on_c, 4, 53, 55
6, 289938, Note_on_c, 4, 53, 0
6, 289938, Note_on_c, 4, 48, 55
6, 290726, Note_on_c, 4, 48, 0
6, 290726, Note_on_c, 4, 41, 55
6, 290976, Note_on_c, 4, 41, 0
6, 291918, Note_on_c, 4, 48, 55
6, 292186, Note_on_c, 4, 53, 55
6, 292188, Note_on_c, 4, 48, 0
6, 292910, Note_on_c, 4, 53, 0
6, 292938, Note_on_c, 4, 52, 55
6, 293166, Note_on_c, 4, 52, 0
6, 293166, Note_on_c, 4, 49, 55
6, 293402, Note_on_c, 4, 49, 0
6, 293402, Note_on_c, 4, 48, 55
6, 293630, Note_on_c, 4, 48, 0
6, 293630, Note_on_c, 4, 46, 55
6, 294114, Note_on_c, 4, 46, 0
6, 294114, Note_on_c, 4, 48, 55
6, 294374, Note_on_c, 4, 48, 0
6, 294374, Note_on_c, 4, 41, 70
6, 294597, Control_c, 4, 11, 65
6, 294630, Note_on_c, 4, 43, 75
6, 294634, Note_on_c, 4, 41, 0
6, 294886, Note_on_c, 4, 44, 90
6, 294890, Note_on_c, 4, 43, 0
6, 295114, Note_on_c, 4, 44, 0
6, 295114, Note_on_c, 4, 58, 80
6, 295314, Note_on_c, 4, 58, 0
6, 295366, Note_on_c, 4, 48, 80
6, 295614, Note_on_c, 4, 48, 0
6, 295614, Note_on_c, 4, 53, 80
6, 295814, Note_on_c, 4, 53, 0
6, 295874, Note_on_c, 4, 51, 80
6, 295974, Note_on_c, 4, 51, 0
6, 296138, Note_on_c, 4, 56, 80
6, 296238, Note_on_c, 4, 56, 0
6, 296394, Note_on_c, 4, 44, 90
6, 296646, Note_on_c, 4, 44, 0
6, 296646, Note_on_c, 4, 47, 80
6, 296846, Note_on_c, 4, 47, 0
6, 296918, Note_on_c, 4, 48, 80
6, 297168, Note_on_c, 4, 48, 0
6, 297170, Note_on_c, 4, 53, 80
6, 297370, Note_on_c, 4, 53, 0
6, 297694, Note_on_c, 4, 60, 80
6, 297794, Note_on_c, 4, 60, 0
6, 297962, Note_on_c, 4, 48, 95
6, 298210, Note_on_c, 4, 48, 0
6, 298210, Note_on_c, 4, 53, 88
6, 298460, Note_on_c, 4, 53, 0
6, 298482, Note_on_c, 4, 58, 95
6, 298746, Note_on_c, 4, 58, 0
6, 298746, Note_on_c, 4, 60, 82
6, 299010, Note_on_c, 4, 60, 0
6, 299014, Note_on_c, 4, 61, 82
6, 299254, Note_on_c, 4, 61, 0
6, 299262, Note_on_c, 4, 55, 95
6, 299518, Note_on_c, 4, 55, 0
6, 299518, Note_on_c, 4, 56, 80
6, 299794, Note_on_c, 4, 58, 82
6, 299796, Note_on_c, 4, 56, 0
6, 300046, Note_on_c, 4, 52, 80
6, 300050, Note_on_c, 4, 58, 0
6, 300286, Note_on_c, 4, 52, 0
6, 300302, Note_on_c, 4, 53, 78
6, 300432, Note_on_c, 4, 51, 78
6, 300522, Note_on_c, 4, 53, 0
6, 300562, Note_on_c, 4, 49, 75
6, 300652, Note_on_c, 4, 51, 0
6, 300662, Note_on_c, 4, 49, 0
6, 300834, Note_on_c, 4, 48, 75
6, 300934, Note_on_c, 4, 48, 0
6, 301509, Control_c, 4, 11, 60
6, 302842, Note_on_c, 4, 41, 55
6, 303092, Note_on_c, 4, 41, 0
6, 304129, Control_c, 4, 11, 55
6, 304513, Note_on_c, 4, 39, 55
6, 309121, Note_on_c, 4, 39, 0
6, 309126, Note_on_c, 4, 44, 55
6, 310657, Note_on_c, 4, 37, 55
6, 310662, Note_on_c, 4, 44, 0
6, 312193, Note_on_c, 4, 37, 0
6, 312194, Note_on_c, 4, 42, 55
6, 313730, Note_on_c, 4, 42, 0
6, 313742, Note_on_c, 4, 47, 55
6, 315265, Note_on_c, 4, 48, 55
6, 315278, Note_on_c, 4, 47, 0
6, 316801, Note_on_c, 4, 48, 0
6, 316826, Note_on_c, 4, 49, 65
6, 318278, Note_on_c, 4, 49, 0
6, 318327, Note_on_c, 4, 49, 65
6, 319779, Note_on_c, 4, 49, 0
6, 319814, Note_on_c, 4, 49, 65
6, 320554, Note_on_c, 4, 49, 0
6, 320554, Note_on_c, 4, 50, 65
6, 321310, Note_on_c, 4, 50, 0
6, 321310, Note_on_c, 4, 49, 60
6, 322062, Note_on_c, 4, 49, 0
6, 322062, Note_on_c, 4, 48, 55
6, 322842, Note_on_c, 4, 48, 0
6, 322842, Note_on_c, 4, 46, 55
6, 323066, Note_on_c, 4, 46, 0
6, 323066, Note_on_c, 4, 48, 55
6, 323312, Note_on_c, 4, 48, 0
6, 323312, Note_on_c, 4, 41, 55
6, 323522, Note_on_c, 4, 41, 0
6, 323542, Note_on_c, 4, 48, 55
6, 324074, Note_on_c, 4, 48, 0
6, 324074, Note_on_c, 4, 41, 55
6, 324342, Note_on_c, 4, 41, 0
6, 324342, Note_on_c, 4, 48, 55
6, 325026, Note_on_c, 4, 48, 0
6, 325050, Note_on_c, 4, 48, 55
6, 325326, Note_on_c, 4, 41, 55
6, 325328, Note_on_c, 4, 48, 0
6, 325797, Note_on_c, 4, 41, 0
6, 325798, Note_on_c, 4, 48, 55
6, 326266, Note_on_c, 4, 48, 0
6, 328158, Note_on_c, 4, 45, 65
6, 328398, Note_on_c, 4, 45, 0
6, 328398, Note_on_c, 4, 46, 75
6, 328666, Note_on_c, 4, 46, 0
6, 328666, Note_on_c, 4, 49, 80
6, 329050, Note_on_c, 4, 49, 0
6, 331138, Control_c, 4, 11, 80
6, 331529, Note_on_c, 4, 53, 70
6, 331629, Note_on_c, 4, 53, 0
6, 331777, Note_on_c, 4, 52, 72
6, 331877, Note_on_c, 4, 52, 0
6, 332017, Note_on_c, 4, 51, 74
6, 332117, Note_on_c, 4, 51, 0
6, 332269, Note_on_c, 4, 49, 76
6, 332369, Note_on_c, 4, 49, 0
6, 332525, Note_on_c, 4, 48, 78
6, 332625, Note_on_c, 4, 48, 0
6, 332789, Note_on_c, 4, 46, 80
6, 332889, Note_on_c, 4, 46, 0
6, 333065, Note_on_c, 4, 48, 82
6, 333345, Note_on_c, 4, 48, 0
6, 334793, Note_on_c, 4, 53, 82
6, 334893, Note_on_c, 4, 53, 0
6, 335045, Note_on_c, 4, 53, 82
6, 335145, Note_on_c, 4, 53, 0
6, 335289, Note_on_c, 4, 53, 82
6, 335389, Note_on_c, 4, 53, 0
6, 335545, Note_on_c, 4, 51, 84
6, 335645, Note_on_c, 4, 51, 0
6, 335793, Note_on_c, 4, 49, 86
6, 335893, Note_on_c, 4, 49, 0
6, 336053, Note_on_c, 4, 48, 88
6, 336313, Note_on_c, 4, 48, 0
6, 338121, Note_on_c, 4, 48, 75
6, 338221, Note_on_c, 4, 48, 0
6, 338373, Note_on_c, 4, 53, 75
6, 338473, Note_on_c, 4, 53, 0
6, 338873, Note_on_c, 4, 48, 75
6, 338973, Note_on_c, 4, 48, 0
6, 339121, Note_on_c, 4, 53, 75
6, 339221, Note_on_c, 4, 53, 0
6, 339377, Note_on_c, 4, 53, 75
6, 339477, Note_on_c, 4, 53, 0
6, 339637, Note_on_c, 4, 55, 75
6, 339737, Note_on_c, 4, 55, 0
6, 339905, Note_on_c, 4, 56, 75
6, 340005, Note_on_c, 4, 56, 0
6, 340157, Note_on_c, 4, 58, 75
6, 340257, Note_on_c, 4, 58, 0
6, 340421, Note_on_c, 4, 60, 75
6, 340521, Note_on_c, 4, 60, 0
6, 340677, Note_on_c, 4, 53, 75
6, 340777, Note_on_c, 4, 53, 0
6, 341169, Note_on_c, 4, 48, 75
6, 341269, Note_on_c, 4, 48, 0
6, 341425, Note_on_c, 4, 53, 75
6, 341525, Note_on_c, 4, 53, 0
6, 341929, Note_on_c, 4, 48, 75
6, 342029, Note_on_c, 4, 48, 0
6, 342189, Note_on_c, 4, 53, 75
6, 342289, Note_on_c, 4, 53, 0
6, 342437, Note_on_c, 4, 56, 75
6, 342537, Note_on_c, 4, 56, 0
6, 342689, Note_on_c, 4, 55, 75
6, 342789, Note_on_c, 4, 55, 0
6, 342949, Note_on_c, 4, 56, 75
6, 343049, Note_on_c, 4, 56, 0
6, 343205, Note_on_c, 4, 55, 75
6, 343305, Note_on_c, 4, 55, 0
6, 343461, Note_on_c, 4, 60, 75
6, 343561, Note_on_c, 4, 60, 0
6, 343745, Note_on_c, 4, 53, 75
6, 344329, Note_on_c, 4, 53, 0
6, 345601, Control_c, 4, 11, 65
6, 347137, Program_c, 4, 45
6, 348673, Note_on_c, 4, 41, 70
6, 348713, Note_on_c, 4, 41, 0
6, 349525, Note_on_c, 4, 41, 70
6, 349565, Note_on_c, 4, 41, 0
6, 350373, Note_on_c, 4, 41, 70
6, 350413, Note_on_c, 4, 41, 0
6, 350649, Note_on_c, 4, 41, 70
6, 350689, Note_on_c, 4, 41, 0
6, 350933, Note_on_c, 4, 41, 70
6, 350973, Note_on_c, 4, 41, 0
6, 351221, Note_on_c, 4, 41, 70
6, 351261, Note_on_c, 4, 41, 0
6, 351745, Program_c, 4, 48
6, 352050, Note_on_c, 4, 36, 70
6, 352918, Note_on_c, 4, 36, 0
6, 352919, Note_on_c, 4, 46, 70
6, 353783, Note_on_c, 4, 46, 0
6, 353783, Note_on_c, 4, 36, 70
6, 354083, Note_on_c, 4, 36, 0
6, 355201, Program_c, 4, 45
6, 355557, Note_on_c, 4, 41, 70
6, 355597, Note_on_c, 4, 41, 0
6, 356433, Note_on_c, 4, 41, 70
6, 356473, Note_on_c, 4, 41, 0
6, 357293, Note_on_c, 4, 41, 70
6, 357333, Note_on_c, 4, 41, 0
6, 357573, Note_on_c, 4, 41, 70
6, 357613, Note_on_c, 4, 41, 0
6, 357861, Note_on_c, 4, 41, 70
6, 357901, Note_on_c, 4, 41, 0
6, 358153, Note_on_c, 4, 41, 70
6, 358193, Note_on_c, 4, 41, 0
6, 358657, Program_c, 4, 48
6, 358958, Note_on_c, 4, 36, 70
6, 359831, Note_on_c, 4, 36, 0
6, 359831, Note_on_c, 4, 46, 70
6, 360691, Note_on_c, 4, 46, 0
6, 360691, Note_on_c, 4, 36, 70
6, 360991, Note_on_c, 4, 36, 0
6, 362131, Note_on_c, 4, 36, 70
6, 362419, Note_on_c, 4, 36, 0
6, 362419, Note_on_c, 4, 53, 70
6, 362497, Program_c, 4, 48
6, 362719, Note_on_c, 4, 53, 0
6, 363287, Note_on_c, 4, 43, 80
6, 363871, Note_on_c, 4, 43, 0
6, 363871, Note_on_c, 4, 48, 70
6, 364167, Note_on_c, 4, 48, 0
6, 364167, Note_on_c, 4, 41, 70
6, 364467, Note_on_c, 4, 41, 0
6, 365019, Note_on_c, 4, 43, 80
6, 365599, Note_on_c, 4, 43, 0
6, 365599, Note_on_c, 4, 48, 70
6, 365895, Note_on_c, 4, 48, 0
6, 365895, Note_on_c, 4, 41, 70
6, 366771, Note_on_c, 4, 41, 0
6, 366771, Note_on_c, 4, 43, 74
6, 367631, Note_on_c, 4, 43, 0
6, 367631, Note_on_c, 4, 45, 78
6, 368515, Note_on_c, 4, 45, 0
6, 368515, Note_on_c, 4, 46, 82
6, 369363, Note_on_c, 4, 46, 0
6, 369378, Note_on_c, 4, 47, 80
6, 370231, Note_on_c, 4, 46, 65
6, 370610, Note_on_c, 4, 47, 0
6, 371071, Note_on_c, 4, 46, 0
6, 371071, Note_on_c, 4, 47, 65
6, 371935, Note_on_c, 4, 46, 65
6, 371945, Note_on_c, 4, 47, 0
6, 372783, Note_on_c, 4, 46, 0
6, 372831, Note_on_c, 4, 47, 65
6, 373683, Note_on_c, 4, 47, 0
6, 373683, Note_on_c, 4, 46, 65
6, 374535, Note_on_c, 4, 46, 0
6, 374535, Note_on_c, 4, 47, 65
6, 375387, Note_on_c, 4, 47, 0
6, 375387, Note_on_c, 4, 50, 65
6, 375657, Note_on_c, 4, 50, 0
6, 375947, Note_on_c, 4, 47, 85
6, 376217, Note_on_c, 4, 47, 0
6, 376267, Note_on_c, 4, 48, 85
6, 376567, Note_on_c, 4, 48, 0
6, 382883, Note_on_c, 4, 48, 90
6, 383153, Note_on_c, 4, 48, 0
6, 383199, Note_on_c, 4, 41, 90
6, 383469, Note_on_c, 4, 41, 0
6, 384001, Program_c, 4, 45
6, 384133, Note_on_c, 4, 41, 70
6, 384173, Note_on_c, 4, 41, 0
6, 384989, Note_on_c, 4, 41, 70
6, 385029, Note_on_c, 4, 41, 0
6, 385269, Note_on_c, 4, 41, 70
6, 385309, Note_on_c, 4, 41, 0
6, 385549, Note_on_c, 4, 41, 70
6, 385589, Note_on_c, 4, 41, 0
6, 385837, Note_on_c, 4, 41, 70
6, 385877, Note_on_c, 4, 41, 0
6, 386305, Program_c, 4, 48
6, 386646, Note_on_c, 4, 48, 70
6, 387507, Note_on_c, 4, 46, 70
6, 387508, Note_on_c, 4, 48, 0
6, 388379, Note_on_c, 4, 46, 0
6, 388379, Note_on_c, 4, 48, 70
6, 388609, Program_c, 4, 45
6, 388679, Note_on_c, 4, 48, 0
6, 390145, Note_on_c, 4, 41, 70
6, 390185, Note_on_c, 4, 41, 0
6, 391037, Note_on_c, 4, 53, 70
6, 391077, Note_on_c, 4, 53, 0
6, 391905, Note_on_c, 4, 41, 70
6, 391945, Note_on_c, 4, 41, 0
6, 392193, Note_on_c, 4, 41, 70
6, 392233, Note_on_c, 4, 41, 0
6, 392481, Note_on_c, 4, 41, 70
6, 392521, Note_on_c, 4, 41, 0
6, 392769, Note_on_c, 4, 41, 70
6, 392809, Note_on_c, 4, 41, 0
6, 393217, Program_c, 4, 48
6, 393566, Note_on_c, 4, 48, 70
6, 394423, Note_on_c, 4, 48, 0
6, 394423, Note_on_c, 4, 46, 70
6, 395237, Note_on_c, 4, 46, 0
6, 395287, Note_on_c, 4, 48, 70
6, 395587, Note_on_c, 4, 48, 0
6, 396735, Note_on_c, 4, 48, 70
6, 397023, Note_on_c, 4, 53, 70
6, 397025, Note_on_c, 4, 48, 0
6, 397323, Note_on_c, 4, 53, 0
6, 397899, Note_on_c, 4, 43, 80
6, 398483, Note_on_c, 4, 43, 0
6, 398483, Note_on_c, 4, 48, 70
6, 398676, Note_on_c, 4, 48, 0
6, 398775, Note_on_c, 4, 41, 70
6, 399075, Note_on_c, 4, 41, 0
6, 399623, Note_on_c, 4, 43, 80
6, 400214, Note_on_c, 4, 43, 0
6, 400215, Note_on_c, 4, 48, 70
6, 400503, Note_on_c, 4, 41, 70
6, 400505, Note_on_c, 4, 48, 0
6, 401383, Note_on_c, 4, 43, 70
6, 401393, Note_on_c, 4, 41, 0
6, 402247, Note_on_c, 4, 43, 0
6, 402247, Note_on_c, 4, 45, 70
6, 403099, Note_on_c, 4, 46, 70
6, 403105, Note_on_c, 4, 45, 0
6, 403917, Note_on_c, 4, 46, 0
6, 403958, Note_on_c, 4, 42, 70
6, 404482, Note_on_c, 4, 42, 0
6, 404527, Note_on_c, 4, 42, 70
6, 404835, Note_on_c, 4, 44, 70
6, 404837, Note_on_c, 4, 42, 0
6, 405699, Note_on_c, 4, 46, 70
6, 405703, Note_on_c, 4, 44, 0
6, 406567, Note_on_c, 4, 46, 0
6, 406567, Note_on_c, 4, 47, 70
6, 407424, Note_on_c, 4, 43, 70
6, 407425, Note_on_c, 4, 47, 0
6, 408290, Note_on_c, 4, 43, 0
6, 408291, Note_on_c, 4, 45, 70
6, 409147, Note_on_c, 4, 47, 70
6, 409149, Note_on_c, 4, 45, 0
6, 409979, Note_on_c, 4, 49, 70
6, 409985, Note_on_c, 4, 47, 0
6, 410904, Note_on_c, 4, 49, 0
6, 410907, Note_on_c, 4, 50, 70
6, 411207, Note_on_c, 4, 50, 0
6, 414111, Note_on_c, 4, 47, 70
6, 414379, Note_on_c, 4, 47, 0
6, 414379, Note_on_c, 4, 48, 72
6, 416035, Note_on_c, 4, 48, 0
6, 416079, Note_on_c, 4, 48, 74
6, 417815, Note_on_c, 4, 48, 0
6, 420012, Note_on_c, 4, 48, 70
6, 420312, Note_on_c, 4, 48, 0
6, 420368, Note_on_c, 4, 48, 70
6, 420668, Note_on_c, 4, 48, 0
6, 420732, Note_on_c, 4, 48, 70
6, 421286, Note_on_c, 4, 48, 0
6, 421288, Note_on_c, 4, 48, 70
6, 421488, Note_on_c, 4, 48, 0
6, 421504, Note_on_c, 4, 48, 70
6, 422088, Note_on_c, 4, 48, 0
6, 423169, Control_c, 4, 11, 50
6, 423290, Note_on_c, 4, 41, 60
6, 423514, Control_c, 4, 11, 49
6, 423860, Control_c, 4, 11, 48
6, 424205, Control_c, 4, 11, 47
6, 424551, Control_c, 4, 11, 46
6, 424897, Control_c, 4, 11, 45
6, 425242, Control_c, 4, 11, 44
6, 425588, Control_c, 4, 11, 43
6, 425933, Control_c, 4, 11, 42
6, 426279, Control_c, 4, 11, 41
6, 426625, Control_c, 4, 11, 40
6, 426970, Control_c, 4, 11, 39
6, 427316, Control_c, 4, 11, 38
6, 427661, Control_c, 4, 11, 37
6, 428007, Control_c, 4, 11, 36
6, 428353, Control_c, 4, 11, 35
6, 428698, Control_c, 4, 11, 34
6, 429044, Control_c, 4, 11, 33
6, 429389, Control_c, 4, 11, 32
6, 429735, Control_c, 4, 11, 31
6, 430081, Control_c, 4, 11, 30
6, 431160, Note_on_c, 4, 41, 0
6, 436090, Note_on_c, 4, 41, 60
6, 436116, Control_c, 4, 11, 66
6, 436162, Control_c, 4, 11, 67
6, 436208, Control_c, 4, 11, 68
6, 436253, Control_c, 4, 11, 69
6, 436299, Control_c, 4, 11, 70
6, 436345, Control_c, 4, 11, 71
6, 436391, Control_c, 4, 11, 72
6, 436437, Control_c, 4, 11, 73
6, 436483, Control_c, 4, 11, 74
6, 436529, Control_c, 4, 11, 75
6, 436575, Control_c, 4, 11, 76
6, 436620, Control_c, 4, 11, 77
6, 436666, Control_c, 4, 11, 78
6, 436712, Control_c, 4, 11, 79
6, 436758, Control_c, 4, 11, 80
6, 436804, Control_c, 4, 11, 81
6, 436850, Control_c, 4, 11, 82
6, 436896, Control_c, 4, 11, 83
6, 436942, Control_c, 4, 11, 84
6, 436987, Control_c, 4, 11, 85
6, 437033, Control_c, 4, 11, 86
6, 437079, Control_c, 4, 11, 87
6, 437125, Control_c, 4, 11, 88
6, 437171, Control_c, 4, 11, 89
6, 437217, Control_c, 4, 11, 90
6, 437263, Control_c, 4, 11, 91
6, 437309, Control_c, 4, 11, 92
6, 437354, Control_c, 4, 11, 93
6, 437400, Control_c, 4, 11, 94
6, 437446, Control_c, 4, 11, 95
6, 437492, Control_c, 4, 11, 96
6, 437538, Control_c, 4, 11, 97
6, 437584, Control_c, 4, 11, 98
6, 437630, Control_c, 4, 11, 99
6, 437676, Note_on_c, 4, 41, 0
6, 437676, Control_c, 4, 11, 100
6, 437761, Control_c, 4, 11, 70
6, 438529, Note_on_c, 4, 53, 90
6, 438629, Note_on_c, 4, 53, 0
6, 438805, Note_on_c, 4, 53, 90
6, 438905, Note_on_c, 4, 53, 0
6, 439085, Note_on_c, 4, 53, 90
6, 439185, Note_on_c, 4, 53, 0
6, 439357, Note_on_c, 4, 53, 90
6, 439557, Note_on_c, 4, 53, 0
6, 440155, Note_on_c, 4, 53, 90
6, 440455, Note_on_c, 4, 53, 0
6, 440911, Note_on_c, 4, 53, 90
6, 440967, Note_on_c, 4, 53, 0
6, 440995, Note_on_c, 4, 53, 100
6, 441763, Note_on_c, 4, 53, 0
6, 442369, Control_c, 4, 121, 0
6, 442369, End_track
7, 0, Start_track
7, 0, MIDI_port, 0
7, 0, Title_t, "Double Bass"
7, 0, Program_c, 5, 48
7, 0, Control_c, 5, 7, 127
7, 0, Control_c, 5, 10, 127
7, 12289, Control_c, 5, 11, 60
7, 12834, Note_on_c, 5, 41, 90
7, 13090, Note_on_c, 5, 43, 90
7, 13094, Note_on_c, 5, 41, 0
7, 13346, Note_on_c, 5, 44, 90
7, 13350, Note_on_c, 5, 43, 0
7, 13574, Note_on_c, 5, 44, 0
7, 13574, Note_on_c, 5, 58, 80
7, 13774, Note_on_c, 5, 58, 0
7, 13826, Note_on_c, 5, 48, 80
7, 14074, Note_on_c, 5, 48, 0
7, 14074, Note_on_c, 5, 53, 80
7, 14274, Note_on_c, 5, 53, 0
7, 14334, Note_on_c, 5, 51, 80
7, 14434, Note_on_c, 5, 51, 0
7, 14598, Note_on_c, 5, 56, 80
7, 14698, Note_on_c, 5, 56, 0
7, 14854, Note_on_c, 5, 44, 90
7, 15106, Note_on_c, 5, 44, 0
7, 15106, Note_on_c, 5, 47, 80
7, 15306, Note_on_c, 5, 47, 0
7, 15378, Note_on_c, 5, 48, 80
7, 15628, Note_on_c, 5, 48, 0
7, 15630, Note_on_c, 5, 53, 80
7, 15830, Note_on_c, 5, 53, 0
7, 16154, Note_on_c, 5, 60, 80
7, 16254, Note_on_c, 5, 60, 0
7, 16422, Note_on_c, 5, 48, 95
7, 16670, Note_on_c, 5, 48, 0
7, 16670, Note_on_c, 5, 53, 88
7, 16920, Note_on_c, 5, 53, 0
7, 16942, Note_on_c, 5, 58, 95
7, 17206, Note_on_c, 5, 58, 0
7, 17206, Note_on_c, 5, 60, 82
7, 17470, Note_on_c, 5, 60, 0
7, 17474, Note_on_c, 5, 61, 82
7, 17714, Note_on_c, 5, 61, 0
7, 17722, Note_on_c, 5, 55, 95
7, 17978, Note_on_c, 5, 55, 0
7, 17978, Note_on_c, 5, 56, 80
7, 18254, Note_on_c, 5, 58, 82
7, 18256, Note_on_c, 5, 56, 0
7, 18506, Note_on_c, 5, 52, 80
7, 18510, Note_on_c, 5, 58, 0
7, 18746, Note_on_c, 5, 52, 0
7, 18762, Note_on_c, 5, 53, 78
7, 18892, Note_on_c, 5, 51, 78
7, 18982, Note_on_c, 5, 53, 0
7, 19022, Note_on_c, 5, 49, 75
7, 19112, Note_on_c, 5, 51, 0
7, 19122, Note_on_c, 5, 49, 0
7, 19294, Note_on_c, 5, 48, 75
7, 19394, Note_on_c, 5, 48, 0
7, 34177, Control_c, 5, 11, 75
7, 34568, Note_on_c, 5, 53, 70
7, 34668, Note_on_c, 5, 53, 0
7, 34816, Note_on_c, 5, 52, 72
7, 34916, Note_on_c, 5, 52, 0
7, 35056, Note_on_c, 5, 51, 74
7, 35156, Note_on_c, 5, 51, 0
7, 35308, Note_on_c, 5, 49, 76
7, 35408, Note_on_c, 5, 49, 0
7, 35564, Note_on_c, 5, 48, 78
7, 35664, Note_on_c, 5, 48, 0
7, 35828, Note_on_c, 5, 46, 80
7, 35928, Note_on_c, 5, 46, 0
7, 36104, Note_on_c, 5, 48, 82
7, 36384, Note_on_c, 5, 48, 0
7, 37832, Note_on_c, 5, 53, 82
7, 37932, Note_on_c, 5, 53, 0
7, 38084, Note_on_c, 5, 53, 82
7, 38184, Note_on_c, 5, 53, 0
7, 38328, Note_on_c, 5, 53, 82
7, 38428, Note_on_c, 5, 53, 0
7, 38584, Note_on_c, 5, 51, 84
7, 38684, Note_on_c, 5, 51, 0
7, 38832, Note_on_c, 5, 49, 86
7, 38932, Note_on_c, 5, 49, 0
7, 39092, Note_on_c, 5, 48, 88
7, 39352, Note_on_c, 5, 48, 0
7, 41160, Note_on_c, 5, 48, 75
7, 41260, Note_on_c, 5, 48, 0
7, 41412, Note_on_c, 5, 53, 75
7, 41512, Note_on_c, 5, 53, 0
7, 41912, Note_on_c, 5, 48, 75
7, 42012, Note_on_c, 5, 48, 0
7, 42160, Note_on_c, 5, 53, 75
7, 42260, Note_on_c, 5, 53, 0
7, 42416, Note_on_c, 5, 53, 75
7, 42516, Note_on_c, 5, 53, 0
7, 42676, Note_on_c, 5, 55, 75
7, 42776, Note_on_c, 5, 55, 0
7, 42944, Note_on_c, 5, 56, 75
7, 43044, Note_on_c, 5, 56, 0
7, 43196, Note_on_c, 5, 58, 75
7, 43296, Note_on_c, 5, 58, 0
7, 43460, Note_on_c, 5, 60, 75
7, 43560, Note_on_c, 5, 60, 0
7, 43716, Note_on_c, 5, 53, 75
7, 43816, Note_on_c, 5, 53, 0
7, 44208, Note_on_c, 5, 48, 75
7, 44308, Note_on_c, 5, 48, 0
7, 44464, Note_on_c, 5, 53, 75
7, 44564, Note_on_c, 5, 53, 0
7, 44968, Note_on_c, 5, 48, 75
7, 45068, Note_on_c, 5, 48, 0
7, 45228, Note_on_c, 5, 53, 75
7, 45328, Note_on_c, 5, 53, 0
7, 45476, Note_on_c, 5, 56, 75
7, 45576, Note_on_c, 5, 56, 0
7, 45728, Note_on_c, 5, 55, 75
7, 45828, Note_on_c, 5, 55, 0
7, 45988, Note_on_c, 5, 56, 75
7, 46088, Note_on_c, 5, 56, 0
7, 46244, Note_on_c, 5, 58, 75
7, 46344, Note_on_c, 5, 58, 0
7, 46500, Note_on_c, 5, 60, 75
7, 46600, Note_on_c, 5, 60, 0
7, 46784, Note_on_c, 5, 53, 75
7, 46884, Note_on_c, 5, 53, 0
7, 47684, Note_on_c, 5, 53, 75
7, 47984, Note_on_c, 5, 53, 0
7, 48568, Note_on_c, 5, 53, 75
7, 49252, Note_on_c, 5, 53, 0
7, 67585, Control_c, 5, 11, 50
7, 68786, Note_on_c, 5, 44, 60
7, 72438, Note_on_c, 5, 44, 0
7, 72438, Note_on_c, 5, 49, 60
7, 72768, Note_on_c, 5, 49, 0
7, 75265, Control_c, 5, 11, 55
7, 76114, Note_on_c, 5, 49, 60
7, 77890, Note_on_c, 5, 49, 0
7, 77890, Note_on_c, 5, 51, 60
7, 79774, Note_on_c, 5, 51, 0
7, 79774, Note_on_c, 5, 52, 60
7, 80074, Note_on_c, 5, 52, 0
7, 110593, Control_c, 5, 11, 55
7, 111762, Note_on_c, 5, 51, 55
7, 112748, Note_on_c, 5, 56, 55
7, 112838, Note_on_c, 5, 51, 0
7, 113488, Note_on_c, 5, 56, 0
7, 113578, Note_on_c, 5, 48, 55
7, 113934, Note_on_c, 5, 48, 0
7, 113934, Note_on_c, 5, 51, 55
7, 115398, Note_on_c, 5, 51, 0
7, 118270, Note_on_c, 5, 51, 55
7, 122654, Note_on_c, 5, 51, 0
7, 122654, Note_on_c, 5, 56, 55
7, 122954, Note_on_c, 5, 56, 0
7, 178658, Note_on_c, 5, 51, 60
7, 181633, Note_on_c, 5, 51, 0
7, 181633, Note_on_c, 5, 56, 60
7, 181983, Note_on_c, 5, 56, 0
7, 184666, Note_on_c, 5, 51, 60
7, 186202, Note_on_c, 5, 51, 0
7, 186202, Note_on_c, 5, 53, 63
7, 186970, Note_on_c, 5, 53, 0
7, 186970, Note_on_c, 5, 55, 66
7, 187774, Note_on_c, 5, 55, 0
7, 187774, Note_on_c, 5, 56, 70
7, 188074, Note_on_c, 5, 56, 0
7, 188578, Note_on_c, 5, 58, 60
7, 189134, Note_on_c, 5, 58, 0
7, 189134, Note_on_c, 5, 63, 60
7, 189394, Note_on_c, 5, 63, 0
7, 189394, Note_on_c, 5, 51, 60
7, 189654, Note_on_c, 5, 51, 0
7, 190158, Note_on_c, 5, 56, 60
7, 190686, Note_on_c, 5, 49, 62
7, 190906, Note_on_c, 5, 49, 0
7, 190950, Note_on_c, 5, 56, 0
7, 190950, Note_on_c, 5, 55, 62
7, 191713, Note_on_c, 5, 48, 62
7, 191718, Note_on_c, 5, 55, 0
7, 192497, Note_on_c, 5, 48, 0
7, 192498, Note_on_c, 5, 56, 62
7, 192986, Note_on_c, 5, 56, 0
7, 192986, Note_on_c, 5, 55, 62
7, 193230, Note_on_c, 5, 55, 0
7, 193230, Note_on_c, 5, 53, 62
7, 194246, Note_on_c, 5, 53, 0
7, 194246, Note_on_c, 5, 47, 62
7, 194498, Note_on_c, 5, 47, 0
7, 194498, Note_on_c, 5, 48, 62
7, 194746, Note_on_c, 5, 48, 0
7, 194746, Note_on_c, 5, 55, 62
7, 195010, Note_on_c, 5, 55, 0
7, 237698, Note_on_c, 5, 56, 60
7, 239294, Note_on_c, 5, 56, 0
7, 239294, Note_on_c, 5, 49, 60
7, 240106, Note_on_c, 5, 49, 0
7, 240106, Note_on_c, 5, 44, 60
7, 240926, Note_on_c, 5, 44, 0
7, 240926, Note_on_c, 5, 49, 60
7, 241702, Note_on_c, 5, 49, 0
7, 241702, Note_on_c, 5, 44, 60
7, 242518, Note_on_c, 5, 44, 0
7, 242518, Note_on_c, 5, 49, 60
7, 244030, Note_on_c, 5, 49, 0
7, 244062, Note_on_c, 5, 49, 60
7, 245682, Note_on_c, 5, 49, 0
7, 245682, Note_on_c, 5, 48, 60
7, 246824, Note_on_c, 5, 48, 0
7, 250369, Control_c, 5, 11, 70
7, 250782, Note_on_c, 5, 48, 90
7, 250932, Note_on_c, 5, 48, 0
7, 251074, Note_on_c, 5, 48, 90
7, 251224, Note_on_c, 5, 48, 0
7, 251370, Note_on_c, 5, 48, 90
7, 251520, Note_on_c, 5, 48, 0
7, 251662, Note_on_c, 5, 48, 90
7, 251812, Note_on_c, 5, 48, 0
7, 251946, Note_on_c, 5, 48, 90
7, 252096, Note_on_c, 5, 48, 0
7, 254977, Control_c, 5, 11, 55
7, 255614, Note_on_c, 5, 48, 60
7, 256512, Note_on_c, 5, 48, 0
7, 256513, Note_on_c, 5, 49, 60
7, 257358, Note_on_c, 5, 49, 0
7, 257358, Note_on_c, 5, 48, 60
7, 258234, Note_on_c, 5, 48, 0
7, 258234, Note_on_c, 5, 43, 60
7, 259082, Note_on_c, 5, 43, 0
7, 259082, Note_on_c, 5, 48, 60
7, 259946, Note_on_c, 5, 48, 0
7, 259946, Note_on_c, 5, 43, 60
7, 260810, Note_on_c, 5, 43, 0
7, 260810, Note_on_c, 5, 48, 60
7, 261714, Note_on_c, 5, 48, 0
7, 261714, Note_on_c, 5, 43, 60
7, 266474, Note_on_c, 5, 43, 0
7, 266474, Note_on_c, 5, 48, 40
7, 267364, Note_on_c, 5, 48, 0
7, 268801, Control_c, 5, 11, 45
7, 268942, Note_on_c, 5, 36, 40
7, 278158, Note_on_c, 5, 36, 0
7, 293829, Control_c, 5, 11, 60
7, 294374, Note_on_c, 5, 41, 90
7, 294630, Note_on_c, 5, 43, 90
7, 294634, Note_on_c, 5, 41, 0
7, 294886, Note_on_c, 5, 44, 90
7, 294890, Note_on_c, 5, 43, 0
7, 295114, Note_on_c, 5, 44, 0
7, 295114, Note_on_c, 5, 58, 80
7, 295314, Note_on_c, 5, 58, 0
7, 295366, Note_on_c, 5, 48, 80
7, 295614, Note_on_c, 5, 48, 0
7, 295614, Note_on_c, 5, 53, 80
7, 295814, Note_on_c, 5, 53, 0
7, 295874, Note_on_c, 5, 51, 80
7, 295974, Note_on_c, 5, 51, 0
7, 296138, Note_on_c, 5, 56, 80
7, 296238, Note_on_c, 5, 56, 0
7, 296394, Note_on_c, 5, 44, 90
7, 296646, Note_on_c, 5, 44, 0
7, 296646, Note_on_c, 5, 47, 80
7, 296846, Note_on_c, 5, 47, 0
7, 296918, Note_on_c, 5, 48, 80
7, 297168, Note_on_c, 5, 48, 0
7, 297170, Note_on_c, 5, 53, 80
7, 297370, Note_on_c, 5, 53, 0
7, 297694, Note_on_c, 5, 60, 80
7, 297794, Note_on_c, 5, 60, 0
7, 297962, Note_on_c, 5, 48, 95
7, 298210, Note_on_c, 5, 48, 0
7, 298210, Note_on_c, 5, 53, 88
7, 298460, Note_on_c, 5, 53, 0
7, 298482, Note_on_c, 5, 58, 95
7, 298746, Note_on_c, 5, 58, 0
7, 298746, Note_on_c, 5, 60, 82
7, 299010, Note_on_c, 5, 60, 0
7, 299014, Note_on_c, 5, 61, 82
7, 299254, Note_on_c, 5, 61, 0
7, 299262, Note_on_c, 5, 55, 95
7, 299518, Note_on_c, 5, 55, 0
7, 299518, Note_on_c, 5, 56, 80
7, 299794, Note_on_c, 5, 58, 82
7, 299796, Note_on_c, 5, 56, 0
7, 300046, Note_on_c, 5, 52, 80
7, 300050, Note_on_c, 5, 58, 0
7, 300286, Note_on_c, 5, 52, 0
7, 300302, Note_on_c, 5, 53, 78
7, 300432, Note_on_c, 5, 51, 78
7, 300522, Note_on_c, 5, 53, 0
7, 300562, Note_on_c, 5, 49, 75
7, 300652, Note_on_c, 5, 51, 0
7, 300662, Note_on_c, 5, 49, 0
7, 300834, Note_on_c, 5, 48, 75
7, 300934, Note_on_c, 5, 48, 0
7, 331138, Control_c, 5, 11, 75
7, 331529, Note_on_c, 5, 53, 70
7, 331629, Note_on_c, 5, 53, 0
7, 331777, Note_on_c, 5, 52, 72
7, 331877, Note_on_c, 5, 52, 0
7, 332017, Note_on_c, 5, 51, 74
7, 332117, Note_on_c, 5, 51, 0
7, 332269, Note_on_c, 5, 49, 76
7, 332369, Note_on_c, 5, 49, 0
7, 332525, Note_on_c, 5, 48, 78
7, 332625, Note_on_c, 5, 48, 0
7, 332789, Note_on_c, 5, 46, 80
7, 332889, Note_on_c, 5, 46, 0
7, 333065, Note_on_c, 5, 48, 82
7, 333345, Note_on_c, 5, 48, 0
7, 334793, Note_on_c, 5, 53, 82
7, 334893, Note_on_c, 5, 53, 0
7, 335045, Note_on_c, 5, 53, 82
7, 335145, Note_on_c, 5, 53, 0
7, 335289, Note_on_c, 5, 53, 82
7, 335389, Note_on_c, 5, 53, 0
7, 335545, Note_on_c, 5, 51, 84
7, 335645, Note_on_c, 5, 51, 0
7, 335793, Note_on_c, 5, 49, 86
7, 335893, Note_on_c, 5, 49, 0
7, 336053, Note_on_c, 5, 48, 88
7, 336313, Note_on_c, 5, 48, 0
7, 338121, Note_on_c, 5, 48, 75
7, 338221, Note_on_c, 5, 48, 0
7, 338373, Note_on_c, 5, 53, 75
7, 338473, Note_on_c, 5, 53, 0
7, 338873, Note_on_c, 5, 48, 75
7, 338973, Note_on_c, 5, 48, 0
7, 339121, Note_on_c, 5, 53, 75
7, 339221, Note_on_c, 5, 53, 0
7, 339377, Note_on_c, 5, 53, 75
7, 339477, Note_on_c, 5, 53, 0
7, 339637, Note_on_c, 5, 55, 75
7, 339737, Note_on_c, 5, 55, 0
7, 339905, Note_on_c, 5, 56, 75
7, 340005, Note_on_c, 5, 56, 0
7, 340157, Note_on_c, 5, 58, 75
7, 340257, Note_on_c, 5, 58, 0
7, 340421, Note_on_c, 5, 60, 75
7, 340521, Note_on_c, 5, 60, 0
7, 340677, Note_on_c, 5, 53, 75
7, 340777, Note_on_c, 5, 53, 0
7, 341169, Note_on_c, 5, 48, 75
7, 341269, Note_on_c, 5, 48, 0
7, 341425, Note_on_c, 5, 53, 75
7, 341525, Note_on_c, 5, 53, 0
7, 341929, Note_on_c, 5, 48, 75
7, 342029, Note_on_c, 5, 48, 0
7, 342189, Note_on_c, 5, 53, 75
7, 342289, Note_on_c, 5, 53, 0
7, 342437, Note_on_c, 5, 56, 75
7, 342537, Note_on_c, 5, 56, 0
7, 342689, Note_on_c, 5, 55, 75
7, 342789, Note_on_c, 5, 55, 0
7, 342949, Note_on_c, 5, 56, 75
7, 343049, Note_on_c, 5, 56, 0
7, 343205, Note_on_c, 5, 55, 75
7, 343305, Note_on_c, 5, 55, 0
7, 343461, Note_on_c, 5, 60, 75
7, 343561, Note_on_c, 5, 60, 0
7, 343745, Note_on_c, 5, 53, 75
7, 344329, Note_on_c, 5, 53, 0
7, 374535, Note_on_c, 5, 47, 65
7, 375387, Note_on_c, 5, 47, 0
7, 375387, Note_on_c, 5, 50, 65
7, 375657, Note_on_c, 5, 50, 0
7, 375947, Note_on_c, 5, 47, 85
7, 376217, Note_on_c, 5, 47, 0
7, 376267, Note_on_c, 5, 48, 85
7, 376567, Note_on_c, 5, 48, 0
7, 382883, Note_on_c, 5, 60, 90
7, 383153, Note_on_c, 5, 60, 0
7, 383199, Note_on_c, 5, 53, 90
7, 383469, Note_on_c, 5, 53, 0
7, 407424, Note_on_c, 5, 43, 70
7, 408290, Note_on_c, 5, 43, 0
7, 408291, Note_on_c, 5, 45, 70
7, 409147, Note_on_c, 5, 47, 70
7, 409149, Note_on_c, 5, 45, 0
7, 409979, Note_on_c, 5, 49, 70
7, 409985, Note_on_c, 5, 47, 0
7, 410904, Note_on_c, 5, 49, 0
7, 410907, Note_on_c, 5, 50, 70
7, 411207, Note_on_c, 5, 50, 0
7, 414111, Note_on_c, 5, 47, 70
7, 414379, Note_on_c, 5, 47, 0
7, 414379, Note_on_c, 5, 48, 72
7, 416035, Note_on_c, 5, 48, 0
7, 416079, Note_on_c, 5, 48, 74
7, 417815, Note_on_c, 5, 48, 0
7, 420012, Note_on_c, 5, 48, 70
7, 420312, Note_on_c, 5, 48, 0
7, 420368, Note_on_c, 5, 48, 70
7, 420668, Note_on_c, 5, 48, 0
7, 420732, Note_on_c, 5, 48, 70
7, 421286, Note_on_c, 5, 48, 0
7, 421288, Note_on_c, 5, 48, 70
7, 421488, Note_on_c, 5, 48, 0
7, 421504, Note_on_c, 5, 48, 70
7, 422088, Note_on_c, 5, 48, 0
7, 437761, Control_c, 5, 11, 70
7, 438529, Note_on_c, 5, 53, 90
7, 438629, Note_on_c, 5, 53, 0
7, 438805, Note_on_c, 5, 53, 90
7, 438905, Note_on_c, 5, 53, 0
7, 439085, Note_on_c, 5, 53, 90
7, 439185, Note_on_c, 5, 53, 0
7, 439357, Note_on_c, 5, 53, 90
7, 439557, Note_on_c, 5, 53, 0
7, 440155, Note_on_c, 5, 53, 90
7, 440455, Note_on_c, 5, 53, 0
7, 440911, Note_on_c, 5, 53, 90
7, 440967, Note_on_c, 5, 53, 0
7, 440995, Note_on_c, 5, 53, 100
7, 441763, Note_on_c, 5, 53, 0
7, 442369, Control_c, 5, 121, 0
7, 442369, End_track
8, 0, Start_track
8, 0, MIDI_port, 0
8, 0, Title_t, "Flutes"
8, 0, Program_c, 6, 73
8, 0, Control_c, 6, 7, 127
8, 0, Control_c, 6, 10, 50
8, 12289, Control_c, 6, 11, 70
8, 12673, Control_c, 6, 91, 127
8, 13346, Note_on_c, 6, 77, 80
8, 13800, Note_on_c, 6, 77, 0
8, 13826, Note_on_c, 6, 76, 80
8, 14074, Note_on_c, 6, 76, 0
8, 14074, Note_on_c, 6, 77, 80
8, 14334, Note_on_c, 6, 77, 0
8, 14334, Note_on_c, 6, 79, 80
8, 14598, Note_on_c, 6, 79, 0
8, 14598, Note_on_c, 6, 80, 80
8, 14818, Note_on_c, 6, 80, 0
8, 14854, Note_on_c, 6, 80, 80
8, 15378, Note_on_c, 6, 80, 0
8, 15378, Note_on_c, 6, 79, 80
8, 15630, Note_on_c, 6, 79, 0
8, 15630, Note_on_c, 6, 80, 80
8, 15870, Note_on_c, 6, 80, 0
8, 15886, Note_on_c, 6, 79, 80
8, 16106, Note_on_c, 6, 79, 0
8, 16154, Note_on_c, 6, 76, 80
8, 16374, Note_on_c, 6, 76, 0
8, 16422, Note_on_c, 6, 84, 80
8, 16670, Note_on_c, 6, 84, 0
8, 16670, Note_on_c, 6, 80, 80
8, 16942, Note_on_c, 6, 80, 0
8, 16942, Note_on_c, 6, 79, 80
8, 17474, Note_on_c, 6, 79, 0
8, 17474, Note_on_c, 6, 77, 80
8, 17722, Note_on_c, 6, 77, 0
8, 17722, Note_on_c, 6, 75, 80
8, 18253, Note_on_c, 6, 75, 0
8, 18253, Note_on_c, 6, 73, 80
8, 18506, Note_on_c, 6, 73, 0
8, 18506, Note_on_c, 6, 72, 80
8, 19022, Note_on_c, 6, 72, 0
8, 19022, Note_on_c, 6, 70, 80
8, 19022, Note_on_c, 6, 65, 80
8, 19242, Note_on_c, 6, 65, 0
8, 19242, Note_on_c, 6, 70, 0
8, 19294, Note_on_c, 6, 72, 80
8, 19294, Note_on_c, 6, 64, 80
8, 19514, Note_on_c, 6, 64, 0
8, 19514, Note_on_c, 6, 72, 0
8, 34316, Note_on_c, 6, 76, 77
8, 34392, Note_on_c, 6, 76, 0
8, 34568, Note_on_c, 6, 77, 90
8, 34672, Note_on_c, 6, 77, 0
8, 34816, Note_on_c, 6, 79, 88
8, 34884, Note_on_c, 6, 79, 0
8, 35056, Note_on_c, 6, 81, 85
8, 35056, Note_on_c, 6, 77, 85
8, 35152, Note_on_c, 6, 77, 0
8, 35152, Note_on_c, 6, 81, 0
8, 35308, Note_on_c, 6, 82, 81
8, 35308, Note_on_c, 6, 77, 81
8, 35436, Note_on_c, 6, 77, 0
8, 35436, Note_on_c, 6, 82, 0
8, 35564, Note_on_c, 6, 84, 85
8, 35564, Note_on_c, 6, 77, 85
8, 35680, Note_on_c, 6, 77, 0
8, 35680, Note_on_c, 6, 84, 0
8, 35828, Note_on_c, 6, 85, 85
8, 35828, Note_on_c, 6, 77, 85
8, 35972, Note_on_c, 6, 77, 0
8, 35972, Note_on_c, 6, 85, 0
8, 36104, Note_on_c, 6, 84, 87
8, 36104, Note_on_c, 6, 77, 87
8, 36568, Note_on_c, 6, 77, 0
8, 36568, Note_on_c, 6, 84, 0
8, 36576, Note_on_c, 6, 80, 79
8, 36668, Note_on_c, 6, 80, 0
8, 36772, Note_on_c, 6, 80, 73
8, 36844, Note_on_c, 6, 79, 87
8, 36880, Note_on_c, 6, 80, 0
8, 37064, Note_on_c, 6, 79, 0
8, 37088, Note_on_c, 6, 77, 83
8, 37320, Note_on_c, 6, 77, 0
8, 37332, Note_on_c, 6, 76, 79
8, 37556, Note_on_c, 6, 76, 0
8, 37584, Note_on_c, 6, 77, 75
8, 37724, Note_on_c, 6, 77, 0
8, 37832, Note_on_c, 6, 80, 75
8, 37832, Note_on_c, 6, 77, 75
8, 37928, Note_on_c, 6, 77, 0
8, 37928, Note_on_c, 6, 80, 0
8, 38084, Note_on_c, 6, 80, 82
8, 38084, Note_on_c, 6, 77, 82
8, 38160, Note_on_c, 6, 77, 0
8, 38160, Note_on_c, 6, 80, 0
8, 38328, Note_on_c, 6, 80, 93
8, 38328, Note_on_c, 6, 77, 93
8, 38404, Note_on_c, 6, 77, 0
8, 38404, Note_on_c, 6, 80, 0
8, 38584, Note_on_c, 6, 84, 77
8, 38584, Note_on_c, 6, 80, 77
8, 38676, Note_on_c, 6, 80, 0
8, 38676, Note_on_c, 6, 84, 0
8, 38832, Note_on_c, 6, 89, 90
8, 38832, Note_on_c, 6, 80, 90
8, 38928, Note_on_c, 6, 80, 0
8, 38928, Note_on_c, 6, 89, 0
8, 39092, Note_on_c, 6, 92, 88
8, 39092, Note_on_c, 6, 84, 88
8, 39336, Note_on_c, 6, 84, 0
8, 39336, Note_on_c, 6, 92, 0
8, 39612, Note_on_c, 6, 80, 78
8, 39712, Note_on_c, 6, 80, 0
8, 39864, Note_on_c, 6, 80, 76
8, 40088, Note_on_c, 6, 80, 0
8, 40132, Note_on_c, 6, 79, 70
8, 40348, Note_on_c, 6, 79, 0
8, 40388, Note_on_c, 6, 72, 69
8, 40624, Note_on_c, 6, 72, 0
8, 40656, Note_on_c, 6, 77, 82
8, 40872, Note_on_c, 6, 77, 0
8, 41160, Note_on_c, 6, 84, 79
8, 41160, Note_on_c, 6, 72, 79
8, 41336, Note_on_c, 6, 72, 0
8, 41336, Note_on_c, 6, 84, 0
8, 41412, Note_on_c, 6, 84, 73
8, 41412, Note_on_c, 6, 72, 73
8, 41560, Note_on_c, 6, 72, 0
8, 41560, Note_on_c, 6, 84, 0
8, 41660, Note_on_c, 6, 84, 69
8, 41808, Note_on_c, 6, 84, 0
8, 41912, Note_on_c, 6, 84, 74
8, 41912, Note_on_c, 6, 72, 74
8, 42064, Note_on_c, 6, 72, 0
8, 42064, Note_on_c, 6, 84, 0
8, 42160, Note_on_c, 6, 84, 74
8, 42160, Note_on_c, 6, 72, 74
8, 42344, Note_on_c, 6, 72, 0
8, 42344, Note_on_c, 6, 84, 0
8, 42416, Note_on_c, 6, 84, 74
8, 42416, Note_on_c, 6, 77, 74
8, 42536, Note_on_c, 6, 77, 0
8, 42536, Note_on_c, 6, 84, 0
8, 42676, Note_on_c, 6, 76, 72
8, 42840, Note_on_c, 6, 76, 0
8, 42944, Note_on_c, 6, 77, 76
8, 43104, Note_on_c, 6, 77, 0
8, 43196, Note_on_c, 6, 82, 76
8, 43368, Note_on_c, 6, 82, 0
8, 43460, Note_on_c, 6, 79, 74
8, 43460, Note_on_c, 6, 76, 74
8, 43616, Note_on_c, 6, 76, 0
8, 43616, Note_on_c, 6, 79, 0
8, 43716, Note_on_c, 6, 77, 79
8, 43900, Note_on_c, 6, 77, 0
8, 43972, Note_on_c, 6, 84, 72
8, 44104, Note_on_c, 6, 84, 0
8, 44208, Note_on_c, 6, 84, 76
8, 44208, Note_on_c, 6, 72, 76
8, 44356, Note_on_c, 6, 72, 0
8, 44356, Note_on_c, 6, 84, 0
8, 44464, Note_on_c, 6, 84, 65
8, 44464, Note_on_c, 6, 72, 65
8, 44616, Note_on_c, 6, 72, 0
8, 44616, Note_on_c, 6, 84, 0
8, 44708, Note_on_c, 6, 84, 67
8, 44824, Note_on_c, 6, 84, 0
8, 44968, Note_on_c, 6, 84, 72
8, 44968, Note_on_c, 6, 72, 72
8, 45108, Note_on_c, 6, 72, 0
8, 45108, Note_on_c, 6, 84, 0
8, 45228, Note_on_c, 6, 84, 71
8, 45228, Note_on_c, 6, 72, 71
8, 45368, Note_on_c, 6, 72, 0
8, 45368, Note_on_c, 6, 84, 0
8, 45476, Note_on_c, 6, 84, 77
8, 45476, Note_on_c, 6, 75, 77
8, 45608, Note_on_c, 6, 75, 0
8, 45608, Note_on_c, 6, 84, 0
8, 45728, Note_on_c, 6, 85, 80
8, 45728, Note_on_c, 6, 76, 74
8, 45864, Note_on_c, 6, 76, 0
8, 45864, Note_on_c, 6, 85, 0
8, 45988, Note_on_c, 6, 84, 71
8, 45988, Note_on_c, 6, 77, 71
8, 46136, Note_on_c, 6, 77, 0
8, 46136, Note_on_c, 6, 84, 0
8, 46244, Note_on_c, 6, 82, 81
8, 46364, Note_on_c, 6, 82, 0
8, 46500, Note_on_c, 6, 79, 74
8, 46500, Note_on_c, 6, 76, 74
8, 46636, Note_on_c, 6, 76, 0
8, 46636, Note_on_c, 6, 79, 0
8, 46784, Note_on_c, 6, 77, 82
8, 46784, Note_on_c, 6, 72, 82
8, 47140, Note_on_c, 6, 72, 0
8, 47140, Note_on_c, 6, 77, 0
8, 47684, Note_on_c, 6, 89, 94
8, 47684, Note_on_c, 6, 80, 94
8, 48034, Note_on_c, 6, 80, 0
8, 48034, Note_on_c, 6, 89, 0
8, 48568, Note_on_c, 6, 65, 89
8, 49252, Note_on_c, 6, 65, 0
8, 72193, Control_c, 6, 11, 70
8, 72488, Note_on_c, 6, 68, 70
8, 72804, Note_on_c, 6, 68, 0
8, 72804, Note_on_c, 6, 73, 72
8, 73108, Note_on_c, 6, 73, 0
8, 73108, Note_on_c, 6, 77, 74
8, 73416, Note_on_c, 6, 77, 0
8, 73416, Note_on_c, 6, 80, 77
8, 77336, Note_on_c, 6, 80, 0
8, 77336, Note_on_c, 6, 79, 75
8, 77620, Note_on_c, 6, 79, 0
8, 77620, Note_on_c, 6, 77, 73
8, 77910, Note_on_c, 6, 77, 0
8, 77940, Note_on_c, 6, 77, 77
8, 79184, Note_on_c, 6, 77, 0
8, 79184, Note_on_c, 6, 75, 74
8, 79488, Note_on_c, 6, 75, 0
8, 79488, Note_on_c, 6, 73, 72
8, 79778, Note_on_c, 6, 73, 0
8, 79824, Note_on_c, 6, 73, 72
8, 80144, Note_on_c, 6, 73, 0
8, 80144, Note_on_c, 6, 72, 70
8, 80444, Note_on_c, 6, 72, 0
8, 94556, Note_on_c, 6, 67, 70
8, 94860, Note_on_c, 6, 67, 0
8, 94860, Note_on_c, 6, 72, 73
8, 95172, Note_on_c, 6, 72, 0
8, 95172, Note_on_c, 6, 75, 76
8, 95496, Note_on_c, 6, 75, 0
8, 95496, Note_on_c, 6, 79, 80
8, 99564, Note_on_c, 6, 79, 0
8, 99564, Note_on_c, 6, 70, 75
8, 99860, Note_on_c, 6, 70, 0
8, 99860, Note_on_c, 6, 72, 77
8, 100176, Note_on_c, 6, 72, 0
8, 100176, Note_on_c, 6, 73, 80
8, 101400, Note_on_c, 6, 73, 0
8, 101400, Note_on_c, 6, 72, 75
8, 102072, Note_on_c, 6, 72, 0
8, 102072, Note_on_c, 6, 65, 70
8, 102372, Note_on_c, 6, 65, 0
8, 113934, Note_on_c, 6, 82, 70
8, 113934, Note_on_c, 6, 79, 70
8, 114359, Note_on_c, 6, 82, 0
8, 114359, Note_on_c, 6, 87, 74
8, 114727, Note_on_c, 6, 87, 0
8, 114732, Note_on_c, 6, 79, 0
8, 114732, Note_on_c, 6, 89, 78
8, 114732, Note_on_c, 6, 80, 50
8, 115072, Note_on_c, 6, 80, 0
8, 115072, Note_on_c, 6, 89, 0
8, 115088, Note_on_c, 6, 82, 70
8, 115088, Note_on_c, 6, 79, 50
8, 115468, Note_on_c, 6, 82, 0
8, 115468, Note_on_c, 6, 87, 60
8, 115896, Note_on_c, 6, 87, 0
8, 115896, Note_on_c, 6, 79, 0
8, 118708, Note_on_c, 6, 77, 64
8, 118892, Note_on_c, 6, 85, 72
8, 118896, Note_on_c, 6, 77, 0
8, 119064, Note_on_c, 6, 82, 71
8, 119067, Note_on_c, 6, 85, 0
8, 119232, Note_on_c, 6, 77, 85
8, 119234, Note_on_c, 6, 82, 0
8, 119407, Note_on_c, 6, 77, 0
8, 119424, Note_on_c, 6, 79, 83
8, 119600, Note_on_c, 6, 77, 86
8, 119604, Note_on_c, 6, 79, 0
8, 119780, Note_on_c, 6, 77, 0
8, 119780, Note_on_c, 6, 75, 80
8, 119972, Note_on_c, 6, 75, 0
8, 119972, Note_on_c, 6, 84, 81
8, 120148, Note_on_c, 6, 80, 77
8, 120152, Note_on_c, 6, 84, 0
8, 120320, Note_on_c, 6, 80, 0
8, 120320, Note_on_c, 6, 75, 73
8, 120450, Note_on_c, 6, 75, 0
8, 120512, Note_on_c, 6, 73, 77
8, 120696, Note_on_c, 6, 84, 78
8, 120699, Note_on_c, 6, 73, 0
8, 120868, Note_on_c, 6, 82, 72
8, 120871, Note_on_c, 6, 84, 0
8, 121040, Note_on_c, 6, 80, 72
8, 121046, Note_on_c, 6, 82, 0
8, 121212, Note_on_c, 6, 79, 78
8, 121215, Note_on_c, 6, 80, 0
8, 121396, Note_on_c, 6, 77, 84
8, 121398, Note_on_c, 6, 79, 0
8, 121536, Note_on_c, 6, 77, 0
8, 121576, Note_on_c, 6, 75, 73
8, 121756, Note_on_c, 6, 74, 77
8, 121758, Note_on_c, 6, 75, 0
8, 121956, Note_on_c, 6, 73, 64
8, 121961, Note_on_c, 6, 74, 0
8, 122128, Note_on_c, 6, 72, 76
8, 122131, Note_on_c, 6, 73, 0
8, 122312, Note_on_c, 6, 70, 60
8, 122314, Note_on_c, 6, 72, 0
8, 122504, Note_on_c, 6, 72, 73
8, 122507, Note_on_c, 6, 70, 0
8, 122684, Note_on_c, 6, 72, 0
8, 122704, Note_on_c, 6, 68, 57
8, 123248, Note_on_c, 6, 68, 0
8, 293829, Control_c, 6, 11, 70
8, 294213, Control_c, 6, 91, 127
8, 294886, Note_on_c, 6, 77, 80
8, 295340, Note_on_c, 6, 77, 0
8, 295366, Note_on_c, 6, 76, 80
8, 295614, Note_on_c, 6, 76, 0
8, 295614, Note_on_c, 6, 77, 80
8, 295874, Note_on_c, 6, 77, 0
8, 295874, Note_on_c, 6, 79, 80
8, 296138, Note_on_c, 6, 79, 0
8, 296138, Note_on_c, 6, 80, 80
8, 296358, Note_on_c, 6, 80, 0
8, 296394, Note_on_c, 6, 80, 80
8, 296918, Note_on_c, 6, 80, 0
8, 296918, Note_on_c, 6, 79, 80
8, 297170, Note_on_c, 6, 79, 0
8, 297170, Note_on_c, 6, 80, 80
8, 297410, Note_on_c, 6, 80, 0
8, 297426, Note_on_c, 6, 79, 80
8, 297646, Note_on_c, 6, 79, 0
8, 297694, Note_on_c, 6, 76, 80
8, 297914, Note_on_c, 6, 76, 0
8, 297962, Note_on_c, 6, 84, 80
8, 298210, Note_on_c, 6, 84, 0
8, 298210, Note_on_c, 6, 80, 80
8, 298482, Note_on_c, 6, 80, 0
8, 298482, Note_on_c, 6, 79, 80
8, 299014, Note_on_c, 6, 79, 0
8, 299014, Note_on_c, 6, 77, 80
8, 299262, Note_on_c, 6, 77, 0
8, 299262, Note_on_c, 6, 75, 80
8, 299793, Note_on_c, 6, 75, 0
8, 299793, Note_on_c, 6, 73, 80
8, 300046, Note_on_c, 6, 73, 0
8, 300046, Note_on_c, 6, 72, 80
8, 300562, Note_on_c, 6, 72, 0
8, 300562, Note_on_c, 6, 70, 80
8, 300562, Note_on_c, 6, 65, 80
8, 300782, Note_on_c, 6, 65, 0
8, 300782, Note_on_c, 6, 70, 0
8, 300834, Note_on_c, 6, 72, 80
8, 300834, Note_on_c, 6, 64, 80
8, 301054, Note_on_c, 6, 64, 0
8, 301054, Note_on_c, 6, 72, 0
8, 331277, Note_on_c, 6, 76, 77
8, 331353, Note_on_c, 6, 76, 0
8, 331529, Note_on_c, 6, 77, 90
8, 331633, Note_on_c, 6, 77, 0
8, 331777, Note_on_c, 6, 79, 88
8, 331845, Note_on_c, 6, 79, 0
8, 332017, Note_on_c, 6, 81, 85
8, 332017, Note_on_c, 6, 77, 85
8, 332113, Note_on_c, 6, 77, 0
8, 332113, Note_on_c, 6, 81, 0
8, 332269, Note_on_c, 6, 82, 81
8, 332269, Note_on_c, 6, 77, 81
8, 332397, Note_on_c, 6, 77, 0
8, 332397, Note_on_c, 6, 82, 0
8, 332525, Note_on_c, 6, 84, 85
8, 332525, Note_on_c, 6, 77, 85
8, 332641, Note_on_c, 6, 77, 0
8, 332641, Note_on_c, 6, 84, 0
8, 332789, Note_on_c, 6, 85, 85
8, 332789, Note_on_c, 6, 77, 85
8, 332933, Note_on_c, 6, 77, 0
8, 332933, Note_on_c, 6, 85, 0
8, 333065, Note_on_c, 6, 84, 87
8, 333065, Note_on_c, 6, 77, 87
8, 333529, Note_on_c, 6, 77, 0
8, 333529, Note_on_c, 6, 84, 0
8, 333537, Note_on_c, 6, 80, 79
8, 333629, Note_on_c, 6, 80, 0
8, 333733, Note_on_c, 6, 80, 73
8, 333805, Note_on_c, 6, 79, 87
8, 333841, Note_on_c, 6, 80, 0
8, 334025, Note_on_c, 6, 79, 0
8, 334049, Note_on_c, 6, 77, 83
8, 334281, Note_on_c, 6, 77, 0
8, 334293, Note_on_c, 6, 76, 79
8, 334517, Note_on_c, 6, 76, 0
8, 334545, Note_on_c, 6, 77, 75
8, 334685, Note_on_c, 6, 77, 0
8, 334793, Note_on_c, 6, 80, 75
8, 334793, Note_on_c, 6, 77, 75
8, 334889, Note_on_c, 6, 77, 0
8, 334889, Note_on_c, 6, 80, 0
8, 335045, Note_on_c, 6, 80, 82
8, 335045, Note_on_c, 6, 77, 82
8, 335121, Note_on_c, 6, 77, 0
8, 335121, Note_on_c, 6, 80, 0
8, 335289, Note_on_c, 6, 80, 93
8, 335289, Note_on_c, 6, 77, 93
8, 335365, Note_on_c, 6, 77, 0
8, 335365, Note_on_c, 6, 80, 0
8, 335545, Note_on_c, 6, 84, 77
8, 335545, Note_on_c, 6, 80, 77
8, 335637, Note_on_c, 6, 80, 0
8, 335637, Note_on_c, 6, 84, 0
8, 335793, Note_on_c, 6, 89, 90
8, 335793, Note_on_c, 6, 80, 90
8, 335889, Note_on_c, 6, 80, 0
8, 335889, Note_on_c, 6, 89, 0
8, 336053, Note_on_c, 6, 92, 88
8, 336053, Note_on_c, 6, 84, 88
8, 336297, Note_on_c, 6, 84, 0
8, 336297, Note_on_c, 6, 92, 0
8, 336573, Note_on_c, 6, 80, 78
8, 336673, Note_on_c, 6, 80, 0
8, 336825, Note_on_c, 6, 80, 76
8, 337049, Note_on_c, 6, 80, 0
8, 337093, Note_on_c, 6, 79, 70
8, 337309, Note_on_c, 6, 79, 0
8, 337349, Note_on_c, 6, 72, 69
8, 337585, Note_on_c, 6, 72, 0
8, 337617, Note_on_c, 6, 77, 82
8, 337833, Note_on_c, 6, 77, 0
8, 338121, Note_on_c, 6, 84, 79
8, 338121, Note_on_c, 6, 72, 79
8, 338297, Note_on_c, 6, 72, 0
8, 338297, Note_on_c, 6, 84, 0
8, 338373, Note_on_c, 6, 84, 73
8, 338373, Note_on_c, 6, 72, 73
8, 338521, Note_on_c, 6, 72, 0
8, 338521, Note_on_c, 6, 84, 0
8, 338621, Note_on_c, 6, 84, 69
8, 338769, Note_on_c, 6, 84, 0
8, 338873, Note_on_c, 6, 84, 74
8, 338873, Note_on_c, 6, 72, 74
8, 339025, Note_on_c, 6, 72, 0
8, 339025, Note_on_c, 6, 84, 0
8, 339121, Note_on_c, 6, 84, 74
8, 339121, Note_on_c, 6, 72, 74
8, 339305, Note_on_c, 6, 72, 0
8, 339305, Note_on_c, 6, 84, 0
8, 339377, Note_on_c, 6, 84, 74
8, 339377, Note_on_c, 6, 77, 74
8, 339497, Note_on_c, 6, 77, 0
8, 339497, Note_on_c, 6, 84, 0
8, 339637, Note_on_c, 6, 76, 72
8, 339801, Note_on_c, 6, 76, 0
8, 339905, Note_on_c, 6, 77, 76
8, 340065, Note_on_c, 6, 77, 0
8, 340157, Note_on_c, 6, 82, 76
8, 340329, Note_on_c, 6, 82, 0
8, 340421, Note_on_c, 6, 79, 74
8, 340421, Note_on_c, 6, 76, 74
8, 340577, Note_on_c, 6, 76, 0
8, 340577, Note_on_c, 6, 79, 0
8, 340677, Note_on_c, 6, 77, 79
8, 340861, Note_on_c, 6, 77, 0
8, 340933, Note_on_c, 6, 84, 72
8, 341065, Note_on_c, 6, 84, 0
8, 341169, Note_on_c, 6, 84, 76
8, 341169, Note_on_c, 6, 72, 76
8, 341317, Note_on_c, 6, 72, 0
8, 341317, Note_on_c, 6, 84, 0
8, 341425, Note_on_c, 6, 84, 65
8, 341425, Note_on_c, 6, 72, 65
8, 341577, Note_on_c, 6, 72, 0
8, 341577, Note_on_c, 6, 84, 0
8, 341669, Note_on_c, 6, 84, 67
8, 341785, Note_on_c, 6, 84, 0
8, 341929, Note_on_c, 6, 84, 72
8, 341929, Note_on_c, 6, 72, 72
8, 342069, Note_on_c, 6, 72, 0
8, 342069, Note_on_c, 6, 84, 0
8, 342189, Note_on_c, 6, 84, 71
8, 342189, Note_on_c, 6, 72, 71
8, 342329, Note_on_c, 6, 72, 0
8, 342329, Note_on_c, 6, 84, 0
8, 342437, Note_on_c, 6, 84, 85
8, 343205, Note_on_c, 6, 84, 0
8, 343205, Note_on_c, 6, 86, 81
8, 343205, Note_on_c, 6, 83, 81
8, 343325, Note_on_c, 6, 83, 0
8, 343325, Note_on_c, 6, 86, 0
8, 343461, Note_on_c, 6, 82, 74
8, 343461, Note_on_c, 6, 88, 74
8, 343597, Note_on_c, 6, 88, 0
8, 343597, Note_on_c, 6, 82, 0
8, 343745, Note_on_c, 6, 89, 82
8, 343745, Note_on_c, 6, 81, 82
8, 344329, Note_on_c, 6, 81, 0
8, 344329, Note_on_c, 6, 89, 0
8, 382933, Note_on_c, 6, 76, 90
8, 382933, Note_on_c, 6, 67, 90
8, 383203, Note_on_c, 6, 67, 0
8, 383203, Note_on_c, 6, 76, 0
8, 383249, Note_on_c, 6, 77, 90
8, 383249, Note_on_c, 6, 69, 90
8, 383519, Note_on_c, 6, 69, 0
8, 383519, Note_on_c, 6, 77, 0
8, 419749, Note_on_c, 6, 76, 85
8, 419749, Note_on_c, 6, 67, 85
8, 420019, Note_on_c, 6, 67, 0
8, 420019, Note_on_c, 6, 76, 0
8, 420062, Note_on_c, 6, 76, 85
8, 420062, Note_on_c, 6, 67, 85
8, 420362, Note_on_c, 6, 67, 0
8, 420362, Note_on_c, 6, 76, 0
8, 420418, Note_on_c, 6, 77, 88
8, 420418, Note_on_c, 6, 69, 88
8, 420718, Note_on_c, 6, 69, 0
8, 420718, Note_on_c, 6, 77, 0
8, 420782, Note_on_c, 6, 79, 90
8, 420782, Note_on_c, 6, 70, 90
8, 421336, Note_on_c, 6, 70, 0
8, 421336, Note_on_c, 6, 79, 0
8, 421338, Note_on_c, 6, 81, 90
8, 421338, Note_on_c, 6, 72, 90
8, 421538, Note_on_c, 6, 72, 0
8, 421538, Note_on_c, 6, 81, 0
8, 421554, Note_on_c, 6, 79, 90
8, 421554, Note_on_c, 6, 70, 90
8, 422138, Note_on_c, 6, 70, 0
8, 422138, Note_on_c, 6, 79, 0
8, 438568, Note_on_c, 6, 77, 90
8, 438568, Note_on_c, 6, 65, 90
8, 438668, Note_on_c, 6, 65, 0
8, 438668, Note_on_c, 6, 77, 0
8, 438844, Note_on_c, 6, 77, 90
8, 438844, Note_on_c, 6, 65, 90
8, 438944, Note_on_c, 6, 65, 0
8, 438944, Note_on_c, 6, 77, 0
8, 439124, Note_on_c, 6, 77, 90
8, 439124, Note_on_c, 6, 65, 90
8, 439224, Note_on_c, 6, 65, 0
8, 439224, Note_on_c, 6, 77, 0
8, 439396, Note_on_c, 6, 77, 90
8, 439396, Note_on_c, 6, 65, 90
8, 439596, Note_on_c, 6, 65, 0
8, 439596, Note_on_c, 6, 77, 0
8, 440194, Note_on_c, 6, 77, 90
8, 440194, Note_on_c, 6, 65, 90
8, 440494, Note_on_c, 6, 65, 0
8, 440494, Note_on_c, 6, 77, 0
8, 440950, Note_on_c, 6, 65, 90
8, 441006, Note_on_c, 6, 65, 0
8, 441034, Note_on_c, 6, 65, 100
8, 441802, Note_on_c, 6, 65, 0
8, 442369, Control_c, 6, 121, 0
8, 442369, End_track
9, 0, Start_track
9, 0, MIDI_port, 0
9, 0, Title_t, "Oboes"
9, 0, Program_c, 7, 68
9, 0, Control_c, 7, 7, 127
9, 0, Control_c, 7, 10, 60
9, 12289, Control_c, 7, 11, 55
9, 12673, Control_c, 7, 91, 127
9, 13346, Note_on_c, 7, 72, 80
9, 13346, Note_on_c, 7, 65, 80
9, 13574, Note_on_c, 7, 65, 0
9, 13574, Note_on_c, 7, 72, 0
9, 13574, Note_on_c, 7, 73, 80
9, 13574, Note_on_c, 7, 67, 80
9, 13826, Note_on_c, 7, 73, 0
9, 13826, Note_on_c, 7, 72, 90
9, 14074, Note_on_c, 7, 67, 0
9, 14074, Note_on_c, 7, 68, 80
9, 14334, Note_on_c, 7, 72, 0
9, 14334, Note_on_c, 7, 73, 80
9, 14334, Note_on_c, 7, 70, 80
9, 14528, Note_on_c, 7, 68, 0
9, 14598, Note_on_c, 7, 70, 0
9, 14598, Note_on_c, 7, 73, 0
9, 14598, Note_on_c, 7, 72, 80
9, 14598, Note_on_c, 7, 68, 80
9, 15062, Note_on_c, 7, 68, 0
9, 15106, Note_on_c, 7, 72, 0
9, 15106, Note_on_c, 7, 74, 80
9, 15106, Note_on_c, 7, 68, 80
9, 15378, Note_on_c, 7, 68, 0
9, 15378, Note_on_c, 7, 74, 0
9, 15378, Note_on_c, 7, 75, 80
9, 15378, Note_on_c, 7, 67, 80
9, 15630, Note_on_c, 7, 67, 0
9, 15630, Note_on_c, 7, 75, 0
9, 15630, Note_on_c, 7, 72, 80
9, 15630, Note_on_c, 7, 68, 80
9, 15886, Note_on_c, 7, 68, 0
9, 15886, Note_on_c, 7, 72, 0
9, 15886, Note_on_c, 7, 71, 80
9, 15886, Note_on_c, 7, 67, 80
9, 16126, Note_on_c, 7, 67, 0
9, 16154, Note_on_c, 7, 72, 80
9, 16154, Note_on_c, 7, 67, 80
9, 16158, Note_on_c, 7, 71, 0
9, 16394, Note_on_c, 7, 67, 0
9, 16394, Note_on_c, 7, 72, 0
9, 16422, Note_on_c, 7, 79, 80
9, 16422, Note_on_c, 7, 72, 80
9, 16642, Note_on_c, 7, 72, 0
9, 16670, Note_on_c, 7, 79, 0
9, 16670, Note_on_c, 7, 77, 80
9, 16670, Note_on_c, 7, 72, 80
9, 16942, Note_on_c, 7, 72, 0
9, 16942, Note_on_c, 7, 77, 0
9, 16942, Note_on_c, 7, 73, 80
9, 16942, Note_on_c, 7, 70, 80
9, 17206, Note_on_c, 7, 73, 0
9, 17206, Note_on_c, 7, 72, 80
9, 17474, Note_on_c, 7, 72, 0
9, 17474, Note_on_c, 7, 77, 80
9, 17474, Note_on_c, 7, 68, 80
9, 17476, Note_on_c, 7, 70, 0
9, 17722, Note_on_c, 7, 68, 0
9, 17722, Note_on_c, 7, 77, 0
9, 17722, Note_on_c, 7, 70, 80
9, 17722, Note_on_c, 7, 63, 80
9, 17978, Note_on_c, 7, 63, 0
9, 17978, Note_on_c, 7, 70, 0
9, 17978, Note_on_c, 7, 72, 80
9, 17978, Note_on_c, 7, 68, 80
9, 18116, Note_on_c, 7, 68, 0
9, 18116, Note_on_c, 7, 67, 80
9, 18254, Note_on_c, 7, 67, 0
9, 18254, Note_on_c, 7, 72, 0
9, 18254, Note_on_c, 7, 73, 80
9, 18254, Note_on_c, 7, 65, 80
9, 18506, Note_on_c, 7, 65, 0
9, 18506, Note_on_c, 7, 73, 0
9, 18506, Note_on_c, 7, 72, 80
9, 18506, Note_on_c, 7, 67, 80
9, 18762, Note_on_c, 7, 67, 0
9, 18762, Note_on_c, 7, 72, 0
9, 18762, Note_on_c, 7, 68, 80
9, 18762, Note_on_c, 7, 65, 80
9, 18982, Note_on_c, 7, 65, 0
9, 19022, Note_on_c, 7, 70, 80
9, 19022, Note_on_c, 7, 65, 80
9, 19026, Note_on_c, 7, 68, 0
9, 19222, Note_on_c, 7, 65, 0
9, 19222, Note_on_c, 7, 70, 0
9, 19294, Note_on_c, 7, 72, 80
9, 19294, Note_on_c, 7, 64, 80
9, 19494, Note_on_c, 7, 64, 0
9, 19494, Note_on_c, 7, 72, 0
9, 34177, Control_c, 7, 11, 70
9, 34316, Note_on_c, 7, 70, 77
9, 34316, Note_on_c, 7, 67, 77
9, 34392, Note_on_c, 7, 67, 0
9, 34392, Note_on_c, 7, 70, 0
9, 34568, Note_on_c, 7, 68, 90
9, 34568, Note_on_c, 7, 65, 90
9, 34672, Note_on_c, 7, 65, 0
9, 34672, Note_on_c, 7, 68, 0
9, 34816, Note_on_c, 7, 72, 88
9, 34816, Note_on_c, 7, 67, 88
9, 34884, Note_on_c, 7, 67, 0
9, 35056, Note_on_c, 7, 72, 0
9, 35056, Note_on_c, 7, 69, 85
9, 35152, Note_on_c, 7, 69, 0
9, 35308, Note_on_c, 7, 73, 81
9, 35308, Note_on_c, 7, 70, 81
9, 35436, Note_on_c, 7, 70, 0
9, 35436, Note_on_c, 7, 73, 0
9, 35564, Note_on_c, 7, 75, 85
9, 35564, Note_on_c, 7, 69, 85
9, 35680, Note_on_c, 7, 69, 0
9, 35680, Note_on_c, 7, 75, 0
9, 35828, Note_on_c, 7, 73, 85
9, 35828, Note_on_c, 7, 70, 85
9, 35972, Note_on_c, 7, 70, 0
9, 35972, Note_on_c, 7, 73, 0
9, 36104, Note_on_c, 7, 72, 87
9, 36104, Note_on_c, 7, 68, 87
9, 36568, Note_on_c, 7, 68, 0
9, 36568, Note_on_c, 7, 72, 0
9, 37832, Note_on_c, 7, 77, 75
9, 37832, Note_on_c, 7, 68, 75
9, 37928, Note_on_c, 7, 68, 0
9, 37928, Note_on_c, 7, 77, 0
9, 38084, Note_on_c, 7, 77, 82
9, 38084, Note_on_c, 7, 68, 82
9, 38160, Note_on_c, 7, 68, 0
9, 38160, Note_on_c, 7, 77, 0
9, 38328, Note_on_c, 7, 77, 93
9, 38328, Note_on_c, 7, 68, 93
9, 38404, Note_on_c, 7, 68, 0
9, 38404, Note_on_c, 7, 77, 0
9, 38584, Note_on_c, 7, 68, 77
9, 38584, Note_on_c, 7, 80, 77
9, 38676, Note_on_c, 7, 80, 0
9, 38676, Note_on_c, 7, 68, 0
9, 38832, Note_on_c, 7, 80, 90
9, 38832, Note_on_c, 7, 77, 90
9, 38928, Note_on_c, 7, 77, 0
9, 38928, Note_on_c, 7, 80, 0
9, 39092, Note_on_c, 7, 80, 88
9, 39092, Note_on_c, 7, 77, 88
9, 39336, Note_on_c, 7, 77, 0
9, 39336, Note_on_c, 7, 80, 0
9, 41160, Note_on_c, 7, 79, 79
9, 41160, Note_on_c, 7, 76, 79
9, 41336, Note_on_c, 7, 76, 0
9, 41336, Note_on_c, 7, 79, 0
9, 41412, Note_on_c, 7, 80, 79
9, 41412, Note_on_c, 7, 77, 79
9, 41588, Note_on_c, 7, 77, 0
9, 41588, Note_on_c, 7, 80, 0
9, 41912, Note_on_c, 7, 79, 74
9, 41912, Note_on_c, 7, 76, 74
9, 42064, Note_on_c, 7, 76, 0
9, 42064, Note_on_c, 7, 79, 0
9, 42160, Note_on_c, 7, 80, 74
9, 42160, Note_on_c, 7, 77, 74
9, 42312, Note_on_c, 7, 77, 0
9, 42312, Note_on_c, 7, 80, 0
9, 42416, Note_on_c, 7, 80, 74
9, 42416, Note_on_c, 7, 72, 74
9, 42536, Note_on_c, 7, 80, 0
9, 42676, Note_on_c, 7, 79, 72
9, 42700, Note_on_c, 7, 72, 0
9, 42840, Note_on_c, 7, 79, 0
9, 42944, Note_on_c, 7, 77, 76
9, 42944, Note_on_c, 7, 72, 76
9, 43104, Note_on_c, 7, 72, 0
9, 43196, Note_on_c, 7, 73, 76
9, 43368, Note_on_c, 7, 73, 0
9, 43460, Note_on_c, 7, 77, 0
9, 43460, Note_on_c, 7, 76, 74
9, 43460, Note_on_c, 7, 70, 74
9, 43616, Note_on_c, 7, 70, 0
9, 43616, Note_on_c, 7, 76, 0
9, 43716, Note_on_c, 7, 77, 79
9, 43716, Note_on_c, 7, 68, 79
9, 43900, Note_on_c, 7, 68, 0
9, 43900, Note_on_c, 7, 77, 0
9, 44208, Note_on_c, 7, 79, 76
9, 44208, Note_on_c, 7, 76, 76
9, 44356, Note_on_c, 7, 76, 0
9, 44356, Note_on_c, 7, 79, 0
9, 44464, Note_on_c, 7, 80, 76
9, 44464, Note_on_c, 7, 77, 76
9, 44612, Note_on_c, 7, 77, 0
9, 44612, Note_on_c, 7, 80, 0
9, 44968, Note_on_c, 7, 79, 72
9, 44968, Note_on_c, 7, 76, 72
9, 45108, Note_on_c, 7, 76, 0
9, 45108, Note_on_c, 7, 79, 0
9, 45228, Note_on_c, 7, 80, 72
9, 45228, Note_on_c, 7, 77, 72
9, 45368, Note_on_c, 7, 77, 0
9, 45368, Note_on_c, 7, 80, 0
9, 45476, Note_on_c, 7, 80, 77
9, 45476, Note_on_c, 7, 72, 77
9, 45608, Note_on_c, 7, 72, 0
9, 45608, Note_on_c, 7, 80, 0
9, 45728, Note_on_c, 7, 82, 74
9, 45728, Note_on_c, 7, 70, 74
9, 45864, Note_on_c, 7, 70, 0
9, 45864, Note_on_c, 7, 82, 0
9, 45988, Note_on_c, 7, 80, 71
9, 45988, Note_on_c, 7, 72, 71
9, 46136, Note_on_c, 7, 72, 0
9, 46136, Note_on_c, 7, 80, 0
9, 46244, Note_on_c, 7, 79, 81
9, 46244, Note_on_c, 7, 73, 81
9, 46364, Note_on_c, 7, 73, 0
9, 46364, Note_on_c, 7, 79, 0
9, 46500, Note_on_c, 7, 76, 74
9, 46500, Note_on_c, 7, 67, 74
9, 46636, Note_on_c, 7, 67, 0
9, 46636, Note_on_c, 7, 76, 0
9, 46784, Note_on_c, 7, 77, 82
9, 46784, Note_on_c, 7, 65, 82
9, 47140, Note_on_c, 7, 65, 0
9, 47140, Note_on_c, 7, 77, 0
9, 47684, Note_on_c, 7, 84, 94
9, 47684, Note_on_c, 7, 77, 94
9, 48034, Note_on_c, 7, 77, 0
9, 48034, Note_on_c, 7, 84, 0
9, 48568, Note_on_c, 7, 65, 94
9, 49252, Note_on_c, 7, 65, 0
9, 293829, Control_c, 7, 11, 55
9, 294213, Control_c, 7, 91, 127
9, 294886, Note_on_c, 7, 72, 80
9, 294886, Note_on_c, 7, 65, 80
9, 295114, Note_on_c, 7, 65, 0
9, 295114, Note_on_c, 7, 72, 0
9, 295114, Note_on_c, 7, 73, 80
9, 295114, Note_on_c, 7, 67, 80
9, 295366, Note_on_c, 7, 73, 0
9, 295366, Note_on_c, 7, 72, 90
9, 295614, Note_on_c, 7, 67, 0
9, 295614, Note_on_c, 7, 68, 80
9, 295874, Note_on_c, 7, 72, 0
9, 295874, Note_on_c, 7, 73, 80
9, 295874, Note_on_c, 7, 70, 80
9, 296068, Note_on_c, 7, 68, 0
9, 296138, Note_on_c, 7, 70, 0
9, 296138, Note_on_c, 7, 73, 0
9, 296138, Note_on_c, 7, 72, 80
9, 296138, Note_on_c, 7, 68, 80
9, 296602, Note_on_c, 7, 68, 0
9, 296646, Note_on_c, 7, 72, 0
9, 296646, Note_on_c, 7, 74, 80
9, 296646, Note_on_c, 7, 68, 80
9, 296918, Note_on_c, 7, 68, 0
9, 296918, Note_on_c, 7, 74, 0
9, 296918, Note_on_c, 7, 75, 80
9, 296918, Note_on_c, 7, 67, 80
9, 297170, Note_on_c, 7, 67, 0
9, 297170, Note_on_c, 7, 75, 0
9, 297170, Note_on_c, 7, 72, 80
9, 297170, Note_on_c, 7, 68, 80
9, 297426, Note_on_c, 7, 68, 0
9, 297426, Note_on_c, 7, 72, 0
9, 297426, Note_on_c, 7, 71, 80
9, 297426, Note_on_c, 7, 67, 80
9, 297666, Note_on_c, 7, 67, 0
9, 297694, Note_on_c, 7, 72, 80
9, 297694, Note_on_c, 7, 67, 80
9, 297698, Note_on_c, 7, 71, 0
9, 297934, Note_on_c, 7, 67, 0
9, 297934, Note_on_c, 7, 72, 0
9, 297962, Note_on_c, 7, 79, 80
9, 297962, Note_on_c, 7, 72, 80
9, 298182, Note_on_c, 7, 72, 0
9, 298210, Note_on_c, 7, 79, 0
9, 298210, Note_on_c, 7, 77, 80
9, 298210, Note_on_c, 7, 72, 80
9, 298482, Note_on_c, 7, 72, 0
9, 298482, Note_on_c, 7, 77, 0
9, 298482, Note_on_c, 7, 73, 80
9, 298482, Note_on_c, 7, 70, 80
9, 298746, Note_on_c, 7, 73, 0
9, 298746, Note_on_c, 7, 72, 80
9, 299014, Note_on_c, 7, 72, 0
9, 299014, Note_on_c, 7, 77, 80
9, 299014, Note_on_c, 7, 68, 80
9, 299016, Note_on_c, 7, 70, 0
9, 299262, Note_on_c, 7, 68, 0
9, 299262, Note_on_c, 7, 77, 0
9, 299262, Note_on_c, 7, 70, 80
9, 299262, Note_on_c, 7, 63, 80
9, 299518, Note_on_c, 7, 63, 0
9, 299518, Note_on_c, 7, 70, 0
9, 299518, Note_on_c, 7, 72, 80
9, 299518, Note_on_c, 7, 68, 80
9, 299656, Note_on_c, 7, 68, 0
9, 299656, Note_on_c, 7, 67, 80
9, 299794, Note_on_c, 7, 67, 0
9, 299794, Note_on_c, 7, 72, 0
9, 299794, Note_on_c, 7, 73, 80
9, 299794, Note_on_c, 7, 65, 80
9, 300046, Note_on_c, 7, 65, 0
9, 300046, Note_on_c, 7, 73, 0
9, 300046, Note_on_c, 7, 72, 80
9, 300046, Note_on_c, 7, 67, 80
9, 300302, Note_on_c, 7, 67, 0
9, 300302, Note_on_c, 7, 72, 0
9, 300302, Note_on_c, 7, 68, 80
9, 300302, Note_on_c, 7, 65, 80
9, 300522, Note_on_c, 7, 65, 0
9, 300562, Note_on_c, 7, 70, 80
9, 300562, Note_on_c, 7, 65, 80
9, 300566, Note_on_c, 7, 68, 0
9, 300762, Note_on_c, 7, 65, 0
9, 300762, Note_on_c, 7, 70, 0
9, 300834, Note_on_c, 7, 72, 80
9, 300834, Note_on_c, 7, 64, 80
9, 301034, Note_on_c, 7, 64, 0
9, 301034, Note_on_c, 7, 72, 0
9, 331138, Control_c, 7, 11, 70
9, 331277, Note_on_c, 7, 70, 77
9, 331277, Note_on_c, 7, 67, 77
9, 331353, Note_on_c, 7, 67, 0
9, 331353, Note_on_c, 7, 70, 0
9, 331529, Note_on_c, 7, 68, 90
9, 331529, Note_on_c, 7, 65, 90
9, 331633, Note_on_c, 7, 65, 0
9, 331633, Note_on_c, 7, 68, 0
9, 331777, Note_on_c, 7, 72, 88
9, 331777, Note_on_c, 7, 67, 88
9, 331845, Note_on_c, 7, 67, 0
9, 332017, Note_on_c, 7, 72, 0
9, 332017, Note_on_c, 7, 69, 85
9, 332113, Note_on_c, 7, 69, 0
9, 332269, Note_on_c, 7, 73, 81
9, 332269, Note_on_c, 7, 70, 81
9, 332397, Note_on_c, 7, 70, 0
9, 332397, Note_on_c, 7, 73, 0
9, 332525, Note_on_c, 7, 75, 85
9, 332525, Note_on_c, 7, 69, 85
9, 332641, Note_on_c, 7, 69, 0
9, 332641, Note_on_c, 7, 75, 0
9, 332789, Note_on_c, 7, 73, 85
9, 332789, Note_on_c, 7, 70, 85
9, 332933, Note_on_c, 7, 70, 0
9, 332933, Note_on_c, 7, 73, 0
9, 333065, Note_on_c, 7, 72, 87
9, 333065, Note_on_c, 7, 68, 87
9, 333529, Note_on_c, 7, 68, 0
9, 333529, Note_on_c, 7, 72, 0
9, 334793, Note_on_c, 7, 77, 75
9, 334793, Note_on_c, 7, 68, 75
9, 334889, Note_on_c, 7, 68, 0
9, 334889, Note_on_c, 7, 77, 0
9, 335045, Note_on_c, 7, 77, 82
9, 335045, Note_on_c, 7, 68, 82
9, 335121, Note_on_c, 7, 68, 0
9, 335121, Note_on_c, 7, 77, 0
9, 335289, Note_on_c, 7, 77, 93
9, 335289, Note_on_c, 7, 68, 93
9, 335365, Note_on_c, 7, 68, 0
9, 335365, Note_on_c, 7, 77, 0
9, 335545, Note_on_c, 7, 68, 77
9, 335545, Note_on_c, 7, 80, 77
9, 335637, Note_on_c, 7, 80, 0
9, 335637, Note_on_c, 7, 68, 0
9, 335793, Note_on_c, 7, 80, 90
9, 335793, Note_on_c, 7, 77, 90
9, 335889, Note_on_c, 7, 77, 0
9, 335889, Note_on_c, 7, 80, 0
9, 336053, Note_on_c, 7, 80, 88
9, 336053, Note_on_c, 7, 77, 88
9, 336297, Note_on_c, 7, 77, 0
9, 336297, Note_on_c, 7, 80, 0
9, 338121, Note_on_c, 7, 79, 79
9, 338121, Note_on_c, 7, 76, 79
9, 338297, Note_on_c, 7, 76, 0
9, 338297, Note_on_c, 7, 79, 0
9, 338373, Note_on_c, 7, 80, 79
9, 338373, Note_on_c, 7, 77, 79
9, 338549, Note_on_c, 7, 77, 0
9, 338549, Note_on_c, 7, 80, 0
9, 338873, Note_on_c, 7, 79, 74
9, 338873, Note_on_c, 7, 76, 74
9, 339025, Note_on_c, 7, 76, 0
9, 339025, Note_on_c, 7, 79, 0
9, 339121, Note_on_c, 7, 80, 74
9, 339121, Note_on_c, 7, 77, 74
9, 339273, Note_on_c, 7, 77, 0
9, 339273, Note_on_c, 7, 80, 0
9, 339377, Note_on_c, 7, 80, 74
9, 339377, Note_on_c, 7, 72, 74
9, 339497, Note_on_c, 7, 80, 0
9, 339637, Note_on_c, 7, 79, 72
9, 339661, Note_on_c, 7, 72, 0
9, 339801, Note_on_c, 7, 79, 0
9, 339905, Note_on_c, 7, 77, 76
9, 339905, Note_on_c, 7, 72, 76
9, 340065, Note_on_c, 7, 72, 0
9, 340157, Note_on_c, 7, 73, 76
9, 340329, Note_on_c, 7, 73, 0
9, 340421, Note_on_c, 7, 77, 0
9, 340421, Note_on_c, 7, 76, 74
9, 340421, Note_on_c, 7, 70, 74
9, 340577, Note_on_c, 7, 70, 0
9, 340577, Note_on_c, 7, 76, 0
9, 340677, Note_on_c, 7, 77, 79
9, 340677, Note_on_c, 7, 68, 79
9, 340861, Note_on_c, 7, 68, 0
9, 340861, Note_on_c, 7, 77, 0
9, 341169, Note_on_c, 7, 79, 76
9, 341169, Note_on_c, 7, 76, 76
9, 341317, Note_on_c, 7, 76, 0
9, 341317, Note_on_c, 7, 79, 0
9, 341425, Note_on_c, 7, 80, 76
9, 341425, Note_on_c, 7, 77, 76
9, 341573, Note_on_c, 7, 77, 0
9, 341573, Note_on_c, 7, 80, 0
9, 341929, Note_on_c, 7, 79, 72
9, 341929, Note_on_c, 7, 76, 72
9, 342069, Note_on_c, 7, 76, 0
9, 342069, Note_on_c, 7, 79, 0
9, 342189, Note_on_c, 7, 80, 72
9, 342189, Note_on_c, 7, 77, 72
9, 342329, Note_on_c, 7, 77, 0
9, 342329, Note_on_c, 7, 80, 0
9, 342437, Note_on_c, 7, 84, 83
9, 342437, Note_on_c, 7, 75, 77
9, 342569, Note_on_c, 7, 75, 0
9, 342689, Note_on_c, 7, 76, 74
9, 342825, Note_on_c, 7, 76, 0
9, 342949, Note_on_c, 7, 77, 71
9, 343097, Note_on_c, 7, 77, 0
9, 343205, Note_on_c, 7, 84, 0
9, 343205, Note_on_c, 7, 83, 81
9, 343325, Note_on_c, 7, 83, 0
9, 343461, Note_on_c, 7, 82, 74
9, 343597, Note_on_c, 7, 82, 0
9, 343745, Note_on_c, 7, 81, 82
9, 343745, Note_on_c, 7, 77, 82
9, 344329, Note_on_c, 7, 77, 0
9, 344329, Note_on_c, 7, 81, 0
9, 382933, Note_on_c, 7, 82, 90
9, 382933, Note_on_c, 7, 72, 90
9, 383203, Note_on_c, 7, 72, 0
9, 383203, Note_on_c, 7, 82, 0
9, 383249, Note_on_c, 7, 81, 90
9, 383249, Note_on_c, 7, 72, 90
9, 383519, Note_on_c, 7, 72, 0
9, 383519, Note_on_c, 7, 81, 0
9, 419749, Note_on_c, 7, 76, 85
9, 419749, Note_on_c, 7, 67, 85
9, 420019, Note_on_c, 7, 67, 0
9, 420019, Note_on_c, 7, 76, 0
9, 420062, Note_on_c, 7, 76, 85
9, 420062, Note_on_c, 7, 67, 85
9, 420362, Note_on_c, 7, 67, 0
9, 420362, Note_on_c, 7, 76, 0
9, 420418, Note_on_c, 7, 77, 88
9, 420418, Note_on_c, 7, 69, 88
9, 420718, Note_on_c, 7, 69, 0
9, 420718, Note_on_c, 7, 77, 0
9, 420782, Note_on_c, 7, 79, 90
9, 420782, Note_on_c, 7, 70, 90
9, 421336, Note_on_c, 7, 70, 0
9, 421336, Note_on_c, 7, 79, 0
9, 421338, Note_on_c, 7, 81, 90
9, 421338, Note_on_c, 7, 72, 90
9, 421538, Note_on_c, 7, 72, 0
9, 421538, Note_on_c, 7, 81, 0
9, 421554, Note_on_c, 7, 79, 90
9, 421554, Note_on_c, 7, 70, 90
9, 422138, Note_on_c, 7, 70, 0
9, 422138, Note_on_c, 7, 79, 0
9, 438568, Note_on_c, 7, 81, 90
9, 438568, Note_on_c, 7, 72, 90
9, 438668, Note_on_c, 7, 72, 0
9, 438668, Note_on_c, 7, 81, 0
9, 438844, Note_on_c, 7, 81, 90
9, 438844, Note_on_c, 7, 72, 90
9, 438944, Note_on_c, 7, 72, 0
9, 438944, Note_on_c, 7, 81, 0
9, 439124, Note_on_c, 7, 81, 90
9, 439124, Note_on_c, 7, 72, 90
9, 439224, Note_on_c, 7, 72, 0
9, 439224, Note_on_c, 7, 81, 0
9, 439396, Note_on_c, 7, 81, 90
9, 439396, Note_on_c, 7, 72, 90
9, 439596, Note_on_c, 7, 72, 0
9, 439596, Note_on_c, 7, 81, 0
9, 440194, Note_on_c, 7, 81, 90
9, 440194, Note_on_c, 7, 72, 90
9, 440494, Note_on_c, 7, 72, 0
9, 440494, Note_on_c, 7, 81, 0
9, 440950, Note_on_c, 7, 65, 90
9, 441006, Note_on_c, 7, 65, 0
9, 441034, Note_on_c, 7, 65, 100
9, 441802, Note_on_c, 7, 65, 0
9, 442369, Control_c, 7, 121, 0
9, 442369, End_track
10, 0, Start_track
10, 0, MIDI_port, 0
10, 0, Title_t, "Clarinets"
10, 0, Program_c, 8, 71
10, 0, Control_c, 8, 7, 127
10, 0, Control_c, 8, 10, 70
10, 12289, Control_c, 8, 11, 55
10, 12673, Control_c, 8, 91, 127
10, 13346, Note_on_c, 8, 72, 80
10, 13346, Note_on_c, 8, 65, 80
10, 13574, Note_on_c, 8, 65, 0
10, 13574, Note_on_c, 8, 72, 0
10, 13574, Note_on_c, 8, 73, 80
10, 13574, Note_on_c, 8, 67, 80
10, 13826, Note_on_c, 8, 73, 0
10, 13826, Note_on_c, 8, 72, 90
10, 14074, Note_on_c, 8, 67, 0
10, 14074, Note_on_c, 8, 68, 80
10, 14334, Note_on_c, 8, 72, 0
10, 14334, Note_on_c, 8, 73, 80
10, 14334, Note_on_c, 8, 70, 80
10, 14528, Note_on_c, 8, 68, 0
10, 14598, Note_on_c, 8, 70, 0
10, 14598, Note_on_c, 8, 73, 0
10, 14598, Note_on_c, 8, 72, 80
10, 14598, Note_on_c, 8, 68, 80
10, 14818, Note_on_c, 8, 68, 0
10, 14818, Note_on_c, 8, 72, 0
10, 14854, Note_on_c, 8, 72, 80
10, 14854, Note_on_c, 8, 68, 80
10, 15074, Note_on_c, 8, 68, 0
10, 15074, Note_on_c, 8, 72, 0
10, 15106, Note_on_c, 8, 74, 80
10, 15106, Note_on_c, 8, 68, 80
10, 15378, Note_on_c, 8, 68, 0
10, 15378, Note_on_c, 8, 74, 0
10, 15378, Note_on_c, 8, 75, 80
10, 15378, Note_on_c, 8, 67, 80
10, 15630, Note_on_c, 8, 67, 0
10, 15630, Note_on_c, 8, 75, 0
10, 15630, Note_on_c, 8, 72, 80
10, 15630, Note_on_c, 8, 68, 80
10, 15886, Note_on_c, 8, 68, 0
10, 15886, Note_on_c, 8, 72, 0
10, 15886, Note_on_c, 8, 71, 80
10, 15886, Note_on_c, 8, 67, 80
10, 16126, Note_on_c, 8, 67, 0
10, 16154, Note_on_c, 8, 72, 80
10, 16154, Note_on_c, 8, 67, 80
10, 16158, Note_on_c, 8, 71, 0
10, 16394, Note_on_c, 8, 67, 0
10, 16394, Note_on_c, 8, 72, 0
10, 16422, Note_on_c, 8, 67, 80
10, 16422, Note_on_c, 8, 64, 80
10, 16642, Note_on_c, 8, 64, 0
10, 16670, Note_on_c, 8, 67, 0
10, 16670, Note_on_c, 8, 68, 80
10, 16670, Note_on_c, 8, 65, 80
10, 16942, Note_on_c, 8, 65, 0
10, 16942, Note_on_c, 8, 68, 0
10, 16942, Note_on_c, 8, 70, 80
10, 16942, Note_on_c, 8, 58, 80
10, 17206, Note_on_c, 8, 58, 0
10, 17206, Note_on_c, 8, 70, 0
10, 17206, Note_on_c, 8, 67, 80
10, 17206, Note_on_c, 8, 60, 80
10, 17474, Note_on_c, 8, 60, 0
10, 17474, Note_on_c, 8, 67, 0
10, 17474, Note_on_c, 8, 65, 80
10, 17474, Note_on_c, 8, 61, 80
10, 17722, Note_on_c, 8, 61, 0
10, 17722, Note_on_c, 8, 65, 0
10, 17722, Note_on_c, 8, 63, 80
10, 18254, Note_on_c, 8, 63, 0
10, 18254, Note_on_c, 8, 65, 80
10, 18254, Note_on_c, 8, 61, 80
10, 18506, Note_on_c, 8, 61, 0
10, 18506, Note_on_c, 8, 65, 0
10, 18506, Note_on_c, 8, 67, 80
10, 18506, Note_on_c, 8, 60, 80
10, 18762, Note_on_c, 8, 67, 0
10, 18762, Note_on_c, 8, 68, 80
10, 19022, Note_on_c, 8, 67, 80
10, 19022, Note_on_c, 8, 58, 80
10, 19026, Note_on_c, 8, 68, 0
10, 19026, Note_on_c, 8, 60, 0
10, 19222, Note_on_c, 8, 67, 0
10, 19222, Note_on_c, 8, 58, 0
10, 19294, Note_on_c, 8, 67, 80
10, 19294, Note_on_c, 8, 58, 80
10, 19494, Note_on_c, 8, 58, 0
10, 19494, Note_on_c, 8, 67, 0
10, 34177, Control_c, 8, 11, 70
10, 34316, Note_on_c, 8, 70, 77
10, 34316, Note_on_c, 8, 67, 77
10, 34392, Note_on_c, 8, 67, 0
10, 34392, Note_on_c, 8, 70, 0
10, 34568, Note_on_c, 8, 68, 90
10, 34568, Note_on_c, 8, 65, 90
10, 34672, Note_on_c, 8, 65, 0
10, 34672, Note_on_c, 8, 68, 0
10, 34816, Note_on_c, 8, 72, 88
10, 34816, Note_on_c, 8, 67, 88
10, 34884, Note_on_c, 8, 67, 0
10, 34886, Note_on_c, 8, 72, 0
10, 35056, Note_on_c, 8, 72, 85
10, 35056, Note_on_c, 8, 69, 85
10, 35152, Note_on_c, 8, 69, 0
10, 35152, Note_on_c, 8, 72, 0
10, 35308, Note_on_c, 8, 73, 81
10, 35308, Note_on_c, 8, 70, 81
10, 35436, Note_on_c, 8, 70, 0
10, 35436, Note_on_c, 8, 73, 0
10, 35564, Note_on_c, 8, 75, 85
10, 35564, Note_on_c, 8, 69, 85
10, 35680, Note_on_c, 8, 69, 0
10, 35680, Note_on_c, 8, 75, 0
10, 35828, Note_on_c, 8, 73, 85
10, 35828, Note_on_c, 8, 70, 85
10, 35972, Note_on_c, 8, 70, 0
10, 35972, Note_on_c, 8, 73, 0
10, 36104, Note_on_c, 8, 72, 87
10, 36104, Note_on_c, 8, 68, 87
10, 36481, Control_c, 8, 11, 60
10, 36568, Note_on_c, 8, 68, 0
10, 36568, Note_on_c, 8, 72, 0
10, 36576, Note_on_c, 8, 72, 60
10, 36671, Note_on_c, 8, 72, 0
10, 36772, Note_on_c, 8, 72, 60
10, 36844, Note_on_c, 8, 70, 60
10, 36880, Note_on_c, 8, 72, 0
10, 37088, Note_on_c, 8, 70, 0
10, 37088, Note_on_c, 8, 68, 60
10, 37332, Note_on_c, 8, 68, 0
10, 37332, Note_on_c, 8, 67, 60
10, 37584, Note_on_c, 8, 67, 0
10, 37584, Note_on_c, 8, 68, 60
10, 37832, Note_on_c, 8, 72, 75
10, 37832, Note_on_c, 8, 68, 75
10, 37834, Note_on_c, 8, 68, 0
10, 37928, Note_on_c, 8, 72, 0
10, 37928, Note_on_c, 8, 68, 0
10, 38084, Note_on_c, 8, 72, 82
10, 38084, Note_on_c, 8, 68, 82
10, 38160, Note_on_c, 8, 68, 0
10, 38160, Note_on_c, 8, 72, 0
10, 38328, Note_on_c, 8, 72, 93
10, 38328, Note_on_c, 8, 68, 93
10, 38404, Note_on_c, 8, 68, 0
10, 38404, Note_on_c, 8, 72, 0
10, 38584, Note_on_c, 8, 72, 77
10, 38584, Note_on_c, 8, 68, 77
10, 38676, Note_on_c, 8, 68, 0
10, 38676, Note_on_c, 8, 72, 0
10, 38832, Note_on_c, 8, 77, 90
10, 38832, Note_on_c, 8, 68, 90
10, 38928, Note_on_c, 8, 68, 0
10, 38928, Note_on_c, 8, 77, 0
10, 39092, Note_on_c, 8, 77, 88
10, 39092, Note_on_c, 8, 68, 88
10, 39336, Note_on_c, 8, 68, 0
10, 39336, Note_on_c, 8, 77, 0
10, 39612, Note_on_c, 8, 72, 60
10, 39842, Note_on_c, 8, 72, 0
10, 39864, Note_on_c, 8, 72, 60
10, 40132, Note_on_c, 8, 72, 0
10, 40132, Note_on_c, 8, 71, 60
10, 40388, Note_on_c, 8, 71, 0
10, 40388, Note_on_c, 8, 70, 60
10, 40656, Note_on_c, 8, 70, 0
10, 40656, Note_on_c, 8, 68, 60
10, 40906, Note_on_c, 8, 68, 0
10, 41160, Note_on_c, 8, 76, 79
10, 41160, Note_on_c, 8, 67, 79
10, 41336, Note_on_c, 8, 67, 0
10, 41336, Note_on_c, 8, 76, 0
10, 41412, Note_on_c, 8, 77, 79
10, 41412, Note_on_c, 8, 68, 79
10, 41588, Note_on_c, 8, 68, 0
10, 41588, Note_on_c, 8, 77, 0
10, 41912, Note_on_c, 8, 76, 74
10, 41912, Note_on_c, 8, 67, 74
10, 42064, Note_on_c, 8, 67, 0
10, 42064, Note_on_c, 8, 76, 0
10, 42160, Note_on_c, 8, 77, 74
10, 42160, Note_on_c, 8, 68, 74
10, 42312, Note_on_c, 8, 68, 0
10, 42312, Note_on_c, 8, 77, 0
10, 42416, Note_on_c, 8, 77, 74
10, 42416, Note_on_c, 8, 72, 74
10, 42536, Note_on_c, 8, 72, 0
10, 42536, Note_on_c, 8, 77, 0
10, 42676, Note_on_c, 8, 76, 72
10, 42676, Note_on_c, 8, 70, 72
10, 42840, Note_on_c, 8, 70, 0
10, 42840, Note_on_c, 8, 76, 0
10, 42944, Note_on_c, 8, 77, 76
10, 42944, Note_on_c, 8, 68, 76
10, 43104, Note_on_c, 8, 68, 0
10, 43104, Note_on_c, 8, 77, 0
10, 43196, Note_on_c, 8, 73, 76
10, 43196, Note_on_c, 8, 67, 76
10, 43368, Note_on_c, 8, 73, 0
10, 43460, Note_on_c, 8, 72, 74
10, 43524, Note_on_c, 8, 67, 0
10, 43616, Note_on_c, 8, 72, 0
10, 43716, Note_on_c, 8, 72, 79
10, 43716, Note_on_c, 8, 68, 79
10, 43900, Note_on_c, 8, 68, 0
10, 43900, Note_on_c, 8, 72, 0
10, 44208, Note_on_c, 8, 67, 76
10, 44208, Note_on_c, 8, 76, 76
10, 44356, Note_on_c, 8, 76, 0
10, 44356, Note_on_c, 8, 67, 0
10, 44464, Note_on_c, 8, 68, 76
10, 44464, Note_on_c, 8, 77, 76
10, 44612, Note_on_c, 8, 77, 0
10, 44612, Note_on_c, 8, 68, 0
10, 44968, Note_on_c, 8, 67, 72
10, 44968, Note_on_c, 8, 76, 72
10, 45108, Note_on_c, 8, 76, 0
10, 45108, Note_on_c, 8, 67, 0
10, 45228, Note_on_c, 8, 68, 72
10, 45228, Note_on_c, 8, 77, 72
10, 45368, Note_on_c, 8, 77, 0
10, 45368, Note_on_c, 8, 68, 0
10, 45476, Note_on_c, 8, 75, 77
10, 45476, Note_on_c, 8, 72, 77
10, 45608, Note_on_c, 8, 72, 0
10, 45608, Note_on_c, 8, 75, 0
10, 45728, Note_on_c, 8, 76, 74
10, 45728, Note_on_c, 8, 70, 74
10, 45864, Note_on_c, 8, 70, 0
10, 45864, Note_on_c, 8, 76, 0
10, 45988, Note_on_c, 8, 77, 71
10, 45988, Note_on_c, 8, 72, 71
10, 46244, Note_on_c, 8, 73, 81
10, 46256, Note_on_c, 8, 72, 0
10, 46364, Note_on_c, 8, 73, 0
10, 46498, Note_on_c, 8, 77, 0
10, 46500, Note_on_c, 8, 76, 74
10, 46500, Note_on_c, 8, 70, 74
10, 46636, Note_on_c, 8, 70, 0
10, 46636, Note_on_c, 8, 76, 0
10, 46784, Note_on_c, 8, 77, 82
10, 46784, Note_on_c, 8, 68, 82
10, 47140, Note_on_c, 8, 68, 0
10, 47140, Note_on_c, 8, 77, 0
10, 47684, Note_on_c, 8, 80, 94
10, 47684, Note_on_c, 8, 72, 94
10, 48034, Note_on_c, 8, 72, 0
10, 48034, Note_on_c, 8, 80, 0
10, 48568, Note_on_c, 8, 65, 94
10, 48568, Note_on_c, 8, 53, 94
10, 49152, Note_on_c, 8, 53, 0
10, 49152, Note_on_c, 8, 65, 0
10, 64897, Control_c, 8, 11, 50
10, 65180, Note_on_c, 8, 63, 70
10, 65472, Note_on_c, 8, 63, 0
10, 65472, Note_on_c, 8, 68, 72
10, 65776, Note_on_c, 8, 68, 0
10, 65776, Note_on_c, 8, 72, 74
10, 66092, Note_on_c, 8, 72, 0
10, 66092, Note_on_c, 8, 75, 76
10, 70032, Note_on_c, 8, 75, 0
10, 70032, Note_on_c, 8, 73, 74
10, 70316, Note_on_c, 8, 73, 0
10, 70316, Note_on_c, 8, 72, 71
10, 70624, Note_on_c, 8, 72, 0
10, 70624, Note_on_c, 8, 70, 80
10, 70928, Note_on_c, 8, 68, 69
10, 70934, Note_on_c, 8, 70, 0
10, 71238, Note_on_c, 8, 68, 0
10, 86785, Control_c, 8, 11, 60
10, 87240, Note_on_c, 8, 65, 70
10, 87531, Note_on_c, 8, 65, 0
10, 87531, Note_on_c, 8, 70, 72
10, 87828, Note_on_c, 8, 70, 0
10, 87828, Note_on_c, 8, 73, 75
10, 88140, Note_on_c, 8, 73, 0
10, 88140, Note_on_c, 8, 77, 79
10, 92072, Note_on_c, 8, 77, 0
10, 92072, Note_on_c, 8, 75, 76
10, 92368, Note_on_c, 8, 75, 0
10, 92368, Note_on_c, 8, 74, 74
10, 92680, Note_on_c, 8, 74, 0
10, 92680, Note_on_c, 8, 72, 74
10, 92980, Note_on_c, 8, 72, 0
10, 92980, Note_on_c, 8, 71, 72
10, 93280, Note_on_c, 8, 71, 0
10, 104449, Control_c, 8, 11, 75
10, 105804, Note_on_c, 8, 70, 75
10, 107056, Note_on_c, 8, 70, 0
10, 107056, Note_on_c, 8, 62, 75
10, 107376, Note_on_c, 8, 62, 0
10, 107376, Note_on_c, 8, 63, 75
10, 107688, Note_on_c, 8, 63, 0
10, 107688, Note_on_c, 8, 65, 75
10, 108952, Note_on_c, 8, 65, 0
10, 108952, Note_on_c, 8, 63, 75
10, 109594, Note_on_c, 8, 70, 64
10, 109594, Note_on_c, 8, 67, 64
10, 109640, Note_on_c, 8, 63, 0
10, 109949, Note_on_c, 8, 70, 0
10, 109972, Note_on_c, 8, 75, 64
10, 110324, Note_on_c, 8, 67, 0
10, 110324, Note_on_c, 8, 77, 66
10, 110324, Note_on_c, 8, 68, 55
10, 110327, Note_on_c, 8, 75, 0
10, 110680, Note_on_c, 8, 68, 0
10, 110680, Note_on_c, 8, 77, 0
10, 110680, Note_on_c, 8, 70, 72
10, 110680, Note_on_c, 8, 67, 50
10, 111056, Note_on_c, 8, 75, 60
10, 111068, Note_on_c, 8, 70, 0
10, 112154, Note_on_c, 8, 75, 0
10, 112166, Note_on_c, 8, 67, 0
10, 178708, Note_on_c, 8, 73, 70
10, 179196, Note_on_c, 8, 73, 0
10, 179196, Note_on_c, 8, 72, 65
10, 179436, Note_on_c, 8, 72, 0
10, 179436, Note_on_c, 8, 70, 62
10, 179691, Note_on_c, 8, 70, 0
10, 179691, Note_on_c, 8, 69, 62
10, 179948, Note_on_c, 8, 69, 0
10, 179948, Note_on_c, 8, 70, 62
10, 180178, Note_on_c, 8, 70, 0
10, 180208, Note_on_c, 8, 77, 75
10, 180684, Note_on_c, 8, 77, 0
10, 180684, Note_on_c, 8, 75, 70
10, 181172, Note_on_c, 8, 75, 0
10, 181172, Note_on_c, 8, 73, 65
10, 181420, Note_on_c, 8, 73, 0
10, 181420, Note_on_c, 8, 70, 62
10, 181684, Note_on_c, 8, 70, 0
10, 181684, Note_on_c, 8, 68, 62
10, 182034, Note_on_c, 8, 68, 0
10, 265729, Control_c, 8, 11, 60
10, 266524, Note_on_c, 8, 64, 60
10, 266524, Note_on_c, 8, 55, 60
10, 267372, Note_on_c, 8, 55, 0
10, 267372, Note_on_c, 8, 64, 0
10, 267372, Note_on_c, 8, 60, 60
10, 267372, Note_on_c, 8, 52, 60
10, 267560, Note_on_c, 8, 52, 0
10, 267560, Note_on_c, 8, 60, 0
10, 267560, Note_on_c, 8, 62, 63
10, 267560, Note_on_c, 8, 53, 63
10, 267730, Note_on_c, 8, 53, 0
10, 267730, Note_on_c, 8, 62, 0
10, 267760, Note_on_c, 8, 64, 65
10, 267760, Note_on_c, 8, 55, 65
10, 268152, Note_on_c, 8, 55, 0
10, 268152, Note_on_c, 8, 64, 0
10, 268152, Note_on_c, 8, 65, 68
10, 268152, Note_on_c, 8, 57, 68
10, 268344, Note_on_c, 8, 57, 0
10, 268344, Note_on_c, 8, 65, 0
10, 268344, Note_on_c, 8, 64, 65
10, 268344, Note_on_c, 8, 55, 65
10, 268560, Note_on_c, 8, 55, 0
10, 268560, Note_on_c, 8, 64, 0
10, 268560, Note_on_c, 8, 60, 62
10, 268560, Note_on_c, 8, 52, 62
10, 268930, Note_on_c, 8, 52, 0
10, 268930, Note_on_c, 8, 60, 0
10, 268992, Note_on_c, 8, 64, 65
10, 268992, Note_on_c, 8, 55, 65
10, 271880, Note_on_c, 8, 55, 0
10, 271880, Note_on_c, 8, 64, 0
10, 271944, Note_on_c, 8, 60, 60
10, 271944, Note_on_c, 8, 52, 60
10, 272128, Note_on_c, 8, 52, 0
10, 272128, Note_on_c, 8, 60, 0
10, 272128, Note_on_c, 8, 62, 60
10, 272128, Note_on_c, 8, 53, 60
10, 272336, Note_on_c, 8, 53, 0
10, 272336, Note_on_c, 8, 62, 0
10, 272336, Note_on_c, 8, 64, 60
10, 272336, Note_on_c, 8, 55, 60
10, 272528, Note_on_c, 8, 55, 0
10, 272528, Note_on_c, 8, 64, 0
10, 272528, Note_on_c, 8, 65, 60
10, 272528, Note_on_c, 8, 62, 60
10, 272732, Note_on_c, 8, 62, 0
10, 272732, Note_on_c, 8, 65, 0
10, 272732, Note_on_c, 8, 67, 60
10, 272732, Note_on_c, 8, 64, 60
10, 273136, Note_on_c, 8, 64, 0
10, 273136, Note_on_c, 8, 67, 0
10, 273136, Note_on_c, 8, 69, 60
10, 273136, Note_on_c, 8, 65, 60
10, 273336, Note_on_c, 8, 65, 0
10, 273336, Note_on_c, 8, 69, 0
10, 273336, Note_on_c, 8, 67, 60
10, 273336, Note_on_c, 8, 64, 60
10, 273536, Note_on_c, 8, 64, 0
10, 273556, Note_on_c, 8, 67, 0
10, 273556, Note_on_c, 8, 64, 60
10, 273556, Note_on_c, 8, 60, 60
10, 273990, Note_on_c, 8, 60, 0
10, 273990, Note_on_c, 8, 64, 0
10, 274064, Note_on_c, 8, 67, 60
10, 274064, Note_on_c, 8, 64, 60
10, 277136, Note_on_c, 8, 64, 0
10, 277136, Note_on_c, 8, 67, 0
10, 293829, Control_c, 8, 11, 55
10, 294213, Control_c, 8, 91, 127
10, 294886, Note_on_c, 8, 72, 80
10, 294886, Note_on_c, 8, 65, 80
10, 295114, Note_on_c, 8, 65, 0
10, 295114, Note_on_c, 8, 72, 0
10, 295114, Note_on_c, 8, 73, 80
10, 295114, Note_on_c, 8, 67, 80
10, 295366, Note_on_c, 8, 73, 0
10, 295366, Note_on_c, 8, 72, 90
10, 295614, Note_on_c, 8, 67, 0
10, 295614, Note_on_c, 8, 68, 80
10, 295874, Note_on_c, 8, 72, 0
10, 295874, Note_on_c, 8, 73, 80
10, 295874, Note_on_c, 8, 70, 80
10, 296068, Note_on_c, 8, 68, 0
10, 296138, Note_on_c, 8, 70, 0
10, 296138, Note_on_c, 8, 73, 0
10, 296138, Note_on_c, 8, 72, 80
10, 296138, Note_on_c, 8, 68, 80
10, 296358, Note_on_c, 8, 68, 0
10, 296358, Note_on_c, 8, 72, 0
10, 296394, Note_on_c, 8, 72, 80
10, 296394, Note_on_c, 8, 68, 80
10, 296614, Note_on_c, 8, 68, 0
10, 296614, Note_on_c, 8, 72, 0
10, 296646, Note_on_c, 8, 74, 80
10, 296646, Note_on_c, 8, 68, 80
10, 296918, Note_on_c, 8, 68, 0
10, 296918, Note_on_c, 8, 74, 0
10, 296918, Note_on_c, 8, 75, 80
10, 296918, Note_on_c, 8, 67, 80
10, 297170, Note_on_c, 8, 67, 0
10, 297170, Note_on_c, 8, 75, 0
10, 297170, Note_on_c, 8, 72, 80
10, 297170, Note_on_c, 8, 68, 80
10, 297426, Note_on_c, 8, 68, 0
10, 297426, Note_on_c, 8, 72, 0
10, 297426, Note_on_c, 8, 71, 80
10, 297426, Note_on_c, 8, 67, 80
10, 297666, Note_on_c, 8, 67, 0
10, 297694, Note_on_c, 8, 72, 80
10, 297694, Note_on_c, 8, 67, 80
10, 297698, Note_on_c, 8, 71, 0
10, 297934, Note_on_c, 8, 67, 0
10, 297934, Note_on_c, 8, 72, 0
10, 297962, Note_on_c, 8, 67, 80
10, 297962, Note_on_c, 8, 64, 80
10, 298182, Note_on_c, 8, 64, 0
10, 298210, Note_on_c, 8, 67, 0
10, 298210, Note_on_c, 8, 68, 80
10, 298210, Note_on_c, 8, 65, 80
10, 298482, Note_on_c, 8, 65, 0
10, 298482, Note_on_c, 8, 68, 0
10, 298482, Note_on_c, 8, 70, 80
10, 298482, Note_on_c, 8, 58, 80
10, 298746, Note_on_c, 8, 58, 0
10, 298746, Note_on_c, 8, 70, 0
10, 298746, Note_on_c, 8, 67, 80
10, 298746, Note_on_c, 8, 60, 80
10, 299014, Note_on_c, 8, 60, 0
10, 299014, Note_on_c, 8, 67, 0
10, 299014, Note_on_c, 8, 65, 80
10, 299014, Note_on_c, 8, 61, 80
10, 299262, Note_on_c, 8, 61, 0
10, 299262, Note_on_c, 8, 65, 0
10, 299262, Note_on_c, 8, 63, 80
10, 299794, Note_on_c, 8, 63, 0
10, 299794, Note_on_c, 8, 65, 80
10, 299794, Note_on_c, 8, 61, 80
10, 300046, Note_on_c, 8, 61, 0
10, 300046, Note_on_c, 8, 65, 0
10, 300046, Note_on_c, 8, 67, 80
10, 300046, Note_on_c, 8, 60, 80
10, 300302, Note_on_c, 8, 67, 0
10, 300302, Note_on_c, 8, 68, 80
10, 300562, Note_on_c, 8, 67, 80
10, 300562, Note_on_c, 8, 58, 80
10, 300566, Note_on_c, 8, 68, 0
10, 300566, Note_on_c, 8, 60, 0
10, 300762, Note_on_c, 8, 67, 0
10, 300762, Note_on_c, 8, 58, 0
10, 300834, Note_on_c, 8, 67, 80
10, 300834, Note_on_c, 8, 58, 80
10, 301034, Note_on_c, 8, 58, 0
10, 301034, Note_on_c, 8, 67, 0
10, 331138, Control_c, 8, 11, 70
10, 331277, Note_on_c, 8, 70, 77
10, 331277, Note_on_c, 8, 67, 77
10, 331353, Note_on_c, 8, 67, 0
10, 331353, Note_on_c, 8, 70, 0
10, 331529, Note_on_c, 8, 68, 90
10, 331529, Note_on_c, 8, 65, 90
10, 331633, Note_on_c, 8, 65, 0
10, 331633, Note_on_c, 8, 68, 0
10, 331777, Note_on_c, 8, 72, 88
10, 331777, Note_on_c, 8, 67, 88
10, 331845, Note_on_c, 8, 67, 0
10, 331847, Note_on_c, 8, 72, 0
10, 332017, Note_on_c, 8, 72, 85
10, 332017, Note_on_c, 8, 69, 85
10, 332113, Note_on_c, 8, 69, 0
10, 332113, Note_on_c, 8, 72, 0
10, 332269, Note_on_c, 8, 73, 81
10, 332269, Note_on_c, 8, 70, 81
10, 332397, Note_on_c, 8, 70, 0
10, 332397, Note_on_c, 8, 73, 0
10, 332525, Note_on_c, 8, 75, 85
10, 332525, Note_on_c, 8, 69, 85
10, 332641, Note_on_c, 8, 69, 0
10, 332641, Note_on_c, 8, 75, 0
10, 332789, Note_on_c, 8, 73, 85
10, 332789, Note_on_c, 8, 70, 85
10, 332933, Note_on_c, 8, 70, 0
10, 332933, Note_on_c, 8, 73, 0
10, 333065, Note_on_c, 8, 72, 87
10, 333065, Note_on_c, 8, 68, 87
10, 333442, Control_c, 8, 11, 60
10, 333529, Note_on_c, 8, 68, 0
10, 333529, Note_on_c, 8, 72, 0
10, 333537, Note_on_c, 8, 72, 60
10, 333632, Note_on_c, 8, 72, 0
10, 333733, Note_on_c, 8, 72, 60
10, 333805, Note_on_c, 8, 70, 60
10, 333841, Note_on_c, 8, 72, 0
10, 334049, Note_on_c, 8, 70, 0
10, 334049, Note_on_c, 8, 68, 60
10, 334293, Note_on_c, 8, 68, 0
10, 334293, Note_on_c, 8, 67, 60
10, 334545, Note_on_c, 8, 67, 0
10, 334545, Note_on_c, 8, 68, 60
10, 334793, Note_on_c, 8, 72, 75
10, 334793, Note_on_c, 8, 68, 75
10, 334795, Note_on_c, 8, 68, 0
10, 334889, Note_on_c, 8, 72, 0
10, 334889, Note_on_c, 8, 68, 0
10, 335045, Note_on_c, 8, 72, 82
10, 335045, Note_on_c, 8, 68, 82
10, 335121, Note_on_c, 8, 68, 0
10, 335121, Note_on_c, 8, 72, 0
10, 335289, Note_on_c, 8, 72, 93
10, 335289, Note_on_c, 8, 68, 93
10, 335365, Note_on_c, 8, 68, 0
10, 335365, Note_on_c, 8, 72, 0
10, 335545, Note_on_c, 8, 72, 77
10, 335545, Note_on_c, 8, 68, 77
10, 335637, Note_on_c, 8, 68, 0
10, 335637, Note_on_c, 8, 72, 0
10, 335793, Note_on_c, 8, 77, 90
10, 335793, Note_on_c, 8, 68, 90
10, 335889, Note_on_c, 8, 68, 0
10, 335889, Note_on_c, 8, 77, 0
10, 336053, Note_on_c, 8, 77, 88
10, 336053, Note_on_c, 8, 68, 88
10, 336297, Note_on_c, 8, 68, 0
10, 336297, Note_on_c, 8, 77, 0
10, 336573, Note_on_c, 8, 72, 60
10, 336803, Note_on_c, 8, 72, 0
10, 336825, Note_on_c, 8, 72, 60
10, 337093, Note_on_c, 8, 72, 0
10, 337093, Note_on_c, 8, 71, 60
10, 337349, Note_on_c, 8, 71, 0
10, 337349, Note_on_c, 8, 70, 60
10, 337617, Note_on_c, 8, 70, 0
10, 337617, Note_on_c, 8, 68, 60
10, 337867, Note_on_c, 8, 68, 0
10, 338121, Note_on_c, 8, 76, 79
10, 338121, Note_on_c, 8, 67, 79
10, 338297, Note_on_c, 8, 67, 0
10, 338297, Note_on_c, 8, 76, 0
10, 338373, Note_on_c, 8, 77, 79
10, 338373, Note_on_c, 8, 68, 79
10, 338549, Note_on_c, 8, 68, 0
10, 338549, Note_on_c, 8, 77, 0
10, 338873, Note_on_c, 8, 76, 74
10, 338873, Note_on_c, 8, 67, 74
10, 339025, Note_on_c, 8, 67, 0
10, 339025, Note_on_c, 8, 76, 0
10, 339121, Note_on_c, 8, 77, 74
10, 339121, Note_on_c, 8, 68, 74
10, 339273, Note_on_c, 8, 68, 0
10, 339273, Note_on_c, 8, 77, 0
10, 339377, Note_on_c, 8, 77, 74
10, 339377, Note_on_c, 8, 72, 74
10, 339497, Note_on_c, 8, 72, 0
10, 339497, Note_on_c, 8, 77, 0
10, 339637, Note_on_c, 8, 76, 72
10, 339637, Note_on_c, 8, 70, 72
10, 339801, Note_on_c, 8, 70, 0
10, 339801, Note_on_c, 8, 76, 0
10, 339905, Note_on_c, 8, 77, 76
10, 339905, Note_on_c, 8, 68, 76
10, 340065, Note_on_c, 8, 68, 0
10, 340065, Note_on_c, 8, 77, 0
10, 340157, Note_on_c, 8, 73, 76
10, 340157, Note_on_c, 8, 67, 76
10, 340329, Note_on_c, 8, 73, 0
10, 340421, Note_on_c, 8, 72, 74
10, 340485, Note_on_c, 8, 67, 0
10, 340577, Note_on_c, 8, 72, 0
10, 340677, Note_on_c, 8, 72, 79
10, 340677, Note_on_c, 8, 68, 79
10, 340861, Note_on_c, 8, 68, 0
10, 340861, Note_on_c, 8, 72, 0
10, 341169, Note_on_c, 8, 67, 76
10, 341169, Note_on_c, 8, 76, 76
10, 341317, Note_on_c, 8, 76, 0
10, 341317, Note_on_c, 8, 67, 0
10, 341425, Note_on_c, 8, 68, 76
10, 341425, Note_on_c, 8, 77, 76
10, 341573, Note_on_c, 8, 77, 0
10, 341573, Note_on_c, 8, 68, 0
10, 341929, Note_on_c, 8, 76, 72
10, 341929, Note_on_c, 8, 67, 72
10, 342069, Note_on_c, 8, 67, 0
10, 342069, Note_on_c, 8, 76, 0
10, 342189, Note_on_c, 8, 68, 72
10, 342189, Note_on_c, 8, 77, 72
10, 342329, Note_on_c, 8, 77, 0
10, 342329, Note_on_c, 8, 68, 0
10, 342437, Note_on_c, 8, 75, 77
10, 342437, Note_on_c, 8, 72, 77
10, 342569, Note_on_c, 8, 75, 0
10, 342689, Note_on_c, 8, 76, 74
10, 342825, Note_on_c, 8, 76, 0
10, 342949, Note_on_c, 8, 77, 71
10, 342949, Note_on_c, 8, 72, 71
10, 343205, Note_on_c, 8, 72, 0
10, 343205, Note_on_c, 8, 74, 81
10, 343217, Note_on_c, 8, 72, 0
10, 343325, Note_on_c, 8, 74, 0
10, 343461, Note_on_c, 8, 77, 0
10, 343461, Note_on_c, 8, 79, 74
10, 343461, Note_on_c, 8, 72, 74
10, 343597, Note_on_c, 8, 72, 0
10, 343597, Note_on_c, 8, 79, 0
10, 343745, Note_on_c, 8, 81, 82
10, 343745, Note_on_c, 8, 72, 82
10, 344329, Note_on_c, 8, 72, 0
10, 344329, Note_on_c, 8, 81, 0
10, 382933, Note_on_c, 8, 76, 90
10, 382933, Note_on_c, 8, 67, 90
10, 383203, Note_on_c, 8, 67, 0
10, 383203, Note_on_c, 8, 76, 0
10, 383249, Note_on_c, 8, 77, 90
10, 383249, Note_on_c, 8, 69, 90
10, 383519, Note_on_c, 8, 69, 0
10, 383519, Note_on_c, 8, 77, 0
10, 419749, Note_on_c, 8, 70, 85
10, 419749, Note_on_c, 8, 67, 85
10, 420019, Note_on_c, 8, 67, 0
10, 420019, Note_on_c, 8, 70, 0
10, 420062, Note_on_c, 8, 70, 85
10, 420062, Note_on_c, 8, 67, 85
10, 420362, Note_on_c, 8, 67, 0
10, 420362, Note_on_c, 8, 70, 0
10, 420418, Note_on_c, 8, 69, 88
10, 420418, Note_on_c, 8, 65, 88
10, 420718, Note_on_c, 8, 65, 0
10, 420718, Note_on_c, 8, 69, 0
10, 420782, Note_on_c, 8, 67, 90
10, 420782, Note_on_c, 8, 64, 90
10, 421336, Note_on_c, 8, 64, 0
10, 421336, Note_on_c, 8, 67, 0
10, 421338, Note_on_c, 8, 69, 90
10, 421338, Note_on_c, 8, 64, 90
10, 421538, Note_on_c, 8, 64, 0
10, 421538, Note_on_c, 8, 69, 0
10, 421554, Note_on_c, 8, 67, 90
10, 421554, Note_on_c, 8, 64, 90
10, 422138, Note_on_c, 8, 64, 0
10, 422138, Note_on_c, 8, 67, 0
10, 423169, Control_c, 8, 11, 45
10, 423340, Note_on_c, 8, 65, 60
10, 423476, Control_c, 8, 11, 44
10, 423783, Control_c, 8, 11, 43
10, 424090, Control_c, 8, 11, 42
10, 424397, Control_c, 8, 11, 41
10, 424705, Control_c, 8, 11, 40
10, 425012, Control_c, 8, 11, 39
10, 425319, Control_c, 8, 11, 38
10, 425626, Control_c, 8, 11, 37
10, 425933, Control_c, 8, 11, 36
10, 426241, Control_c, 8, 11, 35
10, 426548, Control_c, 8, 11, 34
10, 426855, Control_c, 8, 11, 33
10, 427162, Control_c, 8, 11, 32
10, 427469, Control_c, 8, 11, 31
10, 427777, Control_c, 8, 11, 30
10, 428084, Control_c, 8, 11, 29
10, 428391, Control_c, 8, 11, 28
10, 428698, Control_c, 8, 11, 27
10, 429005, Control_c, 8, 11, 26
10, 429313, Control_c, 8, 11, 25
10, 429620, Control_c, 8, 11, 24
10, 429927, Control_c, 8, 11, 23
10, 430234, Control_c, 8, 11, 22
10, 430541, Control_c, 8, 11, 21
10, 430849, Control_c, 8, 11, 20
10, 431210, Note_on_c, 8, 65, 0
10, 437761, Control_c, 8, 11, 80
10, 438568, Note_on_c, 8, 81, 90
10, 438568, Note_on_c, 8, 72, 90
10, 438668, Note_on_c, 8, 72, 0
10, 438668, Note_on_c, 8, 81, 0
10, 438844, Note_on_c, 8, 81, 90
10, 438844, Note_on_c, 8, 72, 90
10, 438944, Note_on_c, 8, 72, 0
10, 438944, Note_on_c, 8, 81, 0
10, 439124, Note_on_c, 8, 81, 90
10, 439124, Note_on_c, 8, 72, 90
10, 439224, Note_on_c, 8, 72, 0
10, 439224, Note_on_c, 8, 81, 0
10, 439396, Note_on_c, 8, 81, 90
10, 439396, Note_on_c, 8, 72, 90
10, 439596, Note_on_c, 8, 72, 0
10, 439596, Note_on_c, 8, 81, 0
10, 440194, Note_on_c, 8, 81, 90
10, 440194, Note_on_c, 8, 72, 90
10, 440494, Note_on_c, 8, 72, 0
10, 440494, Note_on_c, 8, 81, 0
10, 440950, Note_on_c, 8, 65, 90
10, 441006, Note_on_c, 8, 65, 0
10, 441034, Note_on_c, 8, 65, 100
10, 441802, Note_on_c, 8, 65, 0
10, 442369, Control_c, 8, 121, 0
10, 442369, End_track
11, 0, Start_track
11, 0, MIDI_port, 0
11, 0, Title_t, "Bassoons"
11, 0, Program_c, 10, 70
11, 0, Control_c, 10, 7, 127
11, 0, Control_c, 10, 10, 80
11, 12289, Control_c, 10, 11, 55
11, 12673, Control_c, 10, 91, 127
11, 13346, Note_on_c, 10, 56, 80
11, 13346, Note_on_c, 10, 44, 80
11, 13574, Note_on_c, 10, 44, 0
11, 13574, Note_on_c, 10, 56, 0
11, 13574, Note_on_c, 10, 58, 80
11, 13574, Note_on_c, 10, 46, 80
11, 13826, Note_on_c, 10, 46, 0
11, 13826, Note_on_c, 10, 58, 0
11, 13826, Note_on_c, 10, 60, 90
11, 13826, Note_on_c, 10, 48, 90
11, 14074, Note_on_c, 10, 48, 0
11, 14074, Note_on_c, 10, 53, 80
11, 14334, Note_on_c, 10, 53, 0
11, 14334, Note_on_c, 10, 60, 0
11, 14334, Note_on_c, 10, 63, 80
11, 14334, Note_on_c, 10, 51, 80
11, 14554, Note_on_c, 10, 63, 0
11, 14598, Note_on_c, 10, 51, 0
11, 14598, Note_on_c, 10, 63, 80
11, 14598, Note_on_c, 10, 56, 80
11, 14818, Note_on_c, 10, 56, 0
11, 14818, Note_on_c, 10, 63, 0
11, 14854, Note_on_c, 10, 63, 80
11, 14854, Note_on_c, 10, 44, 80
11, 15074, Note_on_c, 10, 44, 0
11, 15074, Note_on_c, 10, 63, 0
11, 15106, Note_on_c, 10, 65, 80
11, 15106, Note_on_c, 10, 47, 80
11, 15378, Note_on_c, 10, 47, 0
11, 15378, Note_on_c, 10, 65, 0
11, 15378, Note_on_c, 10, 63, 80
11, 15378, Note_on_c, 10, 48, 80
11, 15630, Note_on_c, 10, 48, 0
11, 15630, Note_on_c, 10, 63, 0
11, 15630, Note_on_c, 10, 62, 80
11, 15630, Note_on_c, 10, 53, 80
11, 15850, Note_on_c, 10, 62, 0
11, 15886, Note_on_c, 10, 53, 0
11, 15886, Note_on_c, 10, 62, 80
11, 15886, Note_on_c, 10, 55, 80
11, 16106, Note_on_c, 10, 55, 0
11, 16106, Note_on_c, 10, 62, 0
11, 16154, Note_on_c, 10, 60, 80
11, 16374, Note_on_c, 10, 60, 0
11, 16422, Note_on_c, 10, 60, 80
11, 16422, Note_on_c, 10, 48, 80
11, 16642, Note_on_c, 10, 48, 0
11, 16670, Note_on_c, 10, 60, 0
11, 16670, Note_on_c, 10, 53, 80
11, 16942, Note_on_c, 10, 53, 0
11, 16942, Note_on_c, 10, 58, 80
11, 16942, Note_on_c, 10, 46, 80
11, 17206, Note_on_c, 10, 46, 0
11, 17206, Note_on_c, 10, 58, 0
11, 17206, Note_on_c, 10, 60, 80
11, 17206, Note_on_c, 10, 48, 80
11, 17474, Note_on_c, 10, 48, 0
11, 17474, Note_on_c, 10, 60, 0
11, 17474, Note_on_c, 10, 61, 80
11, 17474, Note_on_c, 10, 49, 80
11, 17722, Note_on_c, 10, 49, 0
11, 17722, Note_on_c, 10, 61, 0
11, 17722, Note_on_c, 10, 55, 80
11, 17722, Note_on_c, 10, 43, 80
11, 17978, Note_on_c, 10, 43, 0
11, 17978, Note_on_c, 10, 55, 0
11, 17978, Note_on_c, 10, 56, 80
11, 17978, Note_on_c, 10, 44, 80
11, 18254, Note_on_c, 10, 44, 0
11, 18254, Note_on_c, 10, 56, 0
11, 18254, Note_on_c, 10, 58, 80
11, 18254, Note_on_c, 10, 46, 80
11, 18506, Note_on_c, 10, 46, 0
11, 18506, Note_on_c, 10, 58, 0
11, 18506, Note_on_c, 10, 52, 80
11, 18762, Note_on_c, 10, 52, 0
11, 18762, Note_on_c, 10, 53, 80
11, 18894, Note_on_c, 10, 53, 0
11, 18894, Note_on_c, 10, 51, 80
11, 19022, Note_on_c, 10, 49, 80
11, 19026, Note_on_c, 10, 51, 0
11, 19222, Note_on_c, 10, 49, 0
11, 19294, Note_on_c, 10, 48, 80
11, 19494, Note_on_c, 10, 48, 0
11, 34177, Control_c, 10, 11, 60
11, 34316, Note_on_c, 10, 60, 77
11, 34316, Note_on_c, 10, 48, 77
11, 34392, Note_on_c, 10, 48, 0
11, 34392, Note_on_c, 10, 60, 0
11, 34568, Note_on_c, 10, 65, 90
11, 34568, Note_on_c, 10, 53, 90
11, 34672, Note_on_c, 10, 53, 0
11, 34672, Note_on_c, 10, 65, 0
11, 34816, Note_on_c, 10, 64, 88
11, 34816, Note_on_c, 10, 52, 88
11, 34884, Note_on_c, 10, 52, 0
11, 34886, Note_on_c, 10, 64, 0
11, 35056, Note_on_c, 10, 63, 85
11, 35056, Note_on_c, 10, 51, 85
11, 35152, Note_on_c, 10, 51, 0
11, 35152, Note_on_c, 10, 63, 0
11, 35308, Note_on_c, 10, 61, 81
11, 35308, Note_on_c, 10, 49, 81
11, 35436, Note_on_c, 10, 49, 0
11, 35436, Note_on_c, 10, 61, 0
11, 35564, Note_on_c, 10, 60, 85
11, 35564, Note_on_c, 10, 48, 85
11, 35680, Note_on_c, 10, 48, 0
11, 35680, Note_on_c, 10, 60, 0
11, 35828, Note_on_c, 10, 58, 85
11, 35828, Note_on_c, 10, 46, 85
11, 35972, Note_on_c, 10, 46, 0
11, 35972, Note_on_c, 10, 58, 0
11, 36104, Note_on_c, 10, 60, 87
11, 36104, Note_on_c, 10, 48, 87
11, 36568, Note_on_c, 10, 48, 0
11, 36568, Note_on_c, 10, 60, 0
11, 37832, Note_on_c, 10, 65, 75
11, 37832, Note_on_c, 10, 53, 75
11, 37928, Note_on_c, 10, 53, 0
11, 37928, Note_on_c, 10, 65, 0
11, 38084, Note_on_c, 10, 65, 82
11, 38084, Note_on_c, 10, 53, 82
11, 38160, Note_on_c, 10, 53, 0
11, 38160, Note_on_c, 10, 65, 0
11, 38328, Note_on_c, 10, 65, 93
11, 38328, Note_on_c, 10, 53, 93
11, 38404, Note_on_c, 10, 53, 0
11, 38404, Note_on_c, 10, 65, 0
11, 38584, Note_on_c, 10, 63, 77
11, 38584, Note_on_c, 10, 51, 77
11, 38676, Note_on_c, 10, 51, 0
11, 38676, Note_on_c, 10, 63, 0
11, 38832, Note_on_c, 10, 61, 90
11, 38832, Note_on_c, 10, 49, 90
11, 38928, Note_on_c, 10, 49, 0
11, 38928, Note_on_c, 10, 61, 0
11, 39092, Note_on_c, 10, 60, 88
11, 39092, Note_on_c, 10, 48, 88
11, 39336, Note_on_c, 10, 48, 0
11, 39336, Note_on_c, 10, 60, 0
11, 39553, Control_c, 10, 11, 50
11, 39612, Note_on_c, 10, 60, 60
11, 39612, Note_on_c, 10, 48, 60
11, 39812, Note_on_c, 10, 48, 0
11, 39812, Note_on_c, 10, 60, 0
11, 39864, Note_on_c, 10, 60, 60
11, 39864, Note_on_c, 10, 48, 60
11, 40132, Note_on_c, 10, 60, 0
11, 40132, Note_on_c, 10, 62, 60
11, 40388, Note_on_c, 10, 62, 0
11, 40388, Note_on_c, 10, 64, 60
11, 40652, Note_on_c, 10, 48, 0
11, 40656, Note_on_c, 10, 64, 0
11, 40656, Note_on_c, 10, 65, 60
11, 40656, Note_on_c, 10, 41, 60
11, 40906, Note_on_c, 10, 41, 0
11, 40906, Note_on_c, 10, 65, 0
11, 41089, Control_c, 10, 11, 60
11, 41160, Note_on_c, 10, 60, 79
11, 41160, Note_on_c, 10, 48, 79
11, 41336, Note_on_c, 10, 48, 0
11, 41336, Note_on_c, 10, 60, 0
11, 41412, Note_on_c, 10, 65, 79
11, 41412, Note_on_c, 10, 53, 79
11, 41588, Note_on_c, 10, 53, 0
11, 41588, Note_on_c, 10, 65, 0
11, 41912, Note_on_c, 10, 60, 74
11, 41912, Note_on_c, 10, 48, 74
11, 42064, Note_on_c, 10, 48, 0
11, 42064, Note_on_c, 10, 60, 0
11, 42160, Note_on_c, 10, 53, 74
11, 42160, Note_on_c, 10, 41, 74
11, 42312, Note_on_c, 10, 41, 0
11, 42312, Note_on_c, 10, 53, 0
11, 42416, Note_on_c, 10, 53, 74
11, 42416, Note_on_c, 10, 41, 74
11, 42536, Note_on_c, 10, 41, 0
11, 42536, Note_on_c, 10, 53, 0
11, 42676, Note_on_c, 10, 55, 72
11, 42676, Note_on_c, 10, 43, 72
11, 42840, Note_on_c, 10, 43, 0
11, 42840, Note_on_c, 10, 55, 0
11, 42944, Note_on_c, 10, 56, 76
11, 42944, Note_on_c, 10, 44, 76
11, 43104, Note_on_c, 10, 44, 0
11, 43104, Note_on_c, 10, 56, 0
11, 43196, Note_on_c, 10, 58, 76
11, 43196, Note_on_c, 10, 46, 76
11, 43368, Note_on_c, 10, 46, 0
11, 43368, Note_on_c, 10, 58, 0
11, 43460, Note_on_c, 10, 60, 74
11, 43460, Note_on_c, 10, 48, 74
11, 43616, Note_on_c, 10, 48, 0
11, 43616, Note_on_c, 10, 60, 0
11, 43716, Note_on_c, 10, 53, 79
11, 43716, Note_on_c, 10, 41, 79
11, 43900, Note_on_c, 10, 41, 0
11, 43900, Note_on_c, 10, 53, 0
11, 44208, Note_on_c, 10, 60, 76
11, 44208, Note_on_c, 10, 48, 76
11, 44356, Note_on_c, 10, 48, 0
11, 44356, Note_on_c, 10, 60, 0
11, 44464, Note_on_c, 10, 65, 76
11, 44464, Note_on_c, 10, 53, 76
11, 44612, Note_on_c, 10, 53, 0
11, 44612, Note_on_c, 10, 65, 0
11, 44968, Note_on_c, 10, 60, 72
11, 44968, Note_on_c, 10, 48, 72
11, 45108, Note_on_c, 10, 48, 0
11, 45108, Note_on_c, 10, 60, 0
11, 45228, Note_on_c, 10, 53, 72
11, 45228, Note_on_c, 10, 41, 72
11, 45368, Note_on_c, 10, 41, 0
11, 45368, Note_on_c, 10, 53, 0
11, 45476, Note_on_c, 10, 56, 77
11, 45476, Note_on_c, 10, 44, 77
11, 45608, Note_on_c, 10, 44, 0
11, 45608, Note_on_c, 10, 56, 0
11, 45728, Note_on_c, 10, 55, 74
11, 45728, Note_on_c, 10, 43, 74
11, 45864, Note_on_c, 10, 43, 0
11, 45864, Note_on_c, 10, 55, 0
11, 45988, Note_on_c, 10, 56, 71
11, 45988, Note_on_c, 10, 44, 71
11, 46136, Note_on_c, 10, 44, 0
11, 46136, Note_on_c, 10, 56, 0
11, 46244, Note_on_c, 10, 58, 81
11, 46244, Note_on_c, 10, 46, 81
11, 46364, Note_on_c, 10, 46, 0
11, 46364, Note_on_c, 10, 58, 0
11, 46500, Note_on_c, 10, 60, 74
11, 46500, Note_on_c, 10, 48, 74
11, 46636, Note_on_c, 10, 48, 0
11, 46636, Note_on_c, 10, 60, 0
11, 46784, Note_on_c, 10, 53, 82
11, 46784, Note_on_c, 10, 41, 82
11, 47140, Note_on_c, 10, 41, 0
11, 47140, Note_on_c, 10, 53, 0
11, 47684, Note_on_c, 10, 65, 94
11, 47684, Note_on_c, 10, 53, 94
11, 48034, Note_on_c, 10, 53, 0
11, 48034, Note_on_c, 10, 65, 0
11, 48568, Note_on_c, 10, 53, 94
11, 48568, Note_on_c, 10, 41, 94
11, 49252, Note_on_c, 10, 41, 0
11, 49252, Note_on_c, 10, 53, 0
11, 66049, Control_c, 10, 11, 50
11, 66996, Note_on_c, 10, 51, 70
11, 67288, Note_on_c, 10, 51, 0
11, 67288, Note_on_c, 10, 56, 72
11, 67592, Note_on_c, 10, 56, 0
11, 67592, Note_on_c, 10, 60, 74
11, 67908, Note_on_c, 10, 60, 0
11, 67908, Note_on_c, 10, 63, 74
11, 70032, Note_on_c, 10, 63, 0
11, 70032, Note_on_c, 10, 61, 72
11, 70316, Note_on_c, 10, 61, 0
11, 70316, Note_on_c, 10, 60, 70
11, 70624, Note_on_c, 10, 60, 0
11, 70624, Note_on_c, 10, 58, 80
11, 70928, Note_on_c, 10, 56, 68
11, 70934, Note_on_c, 10, 58, 0
11, 71238, Note_on_c, 10, 56, 0
11, 74348, Note_on_c, 10, 56, 68
11, 74648, Note_on_c, 10, 56, 0
11, 74648, Note_on_c, 10, 61, 70
11, 74936, Note_on_c, 10, 61, 0
11, 74936, Note_on_c, 10, 65, 73
11, 75244, Note_on_c, 10, 65, 0
11, 75244, Note_on_c, 10, 68, 77
11, 75554, Note_on_c, 10, 68, 0
11, 77336, Note_on_c, 10, 67, 72
11, 77620, Note_on_c, 10, 67, 0
11, 77620, Note_on_c, 10, 65, 70
11, 77910, Note_on_c, 10, 65, 0
11, 77940, Note_on_c, 10, 65, 75
11, 79184, Note_on_c, 10, 65, 0
11, 79184, Note_on_c, 10, 63, 73
11, 79488, Note_on_c, 10, 63, 0
11, 79488, Note_on_c, 10, 61, 70
11, 79778, Note_on_c, 10, 61, 0
11, 79824, Note_on_c, 10, 61, 70
11, 80144, Note_on_c, 10, 61, 0
11, 80144, Note_on_c, 10, 60, 68
11, 80444, Note_on_c, 10, 60, 0
11, 89016, Note_on_c, 10, 53, 68
11, 89320, Note_on_c, 10, 58, 70
11, 89324, Note_on_c, 10, 53, 0
11, 89620, Note_on_c, 10, 58, 0
11, 89620, Note_on_c, 10, 61, 75
11, 89940, Note_on_c, 10, 61, 0
11, 89940, Note_on_c, 10, 65, 77
11, 93912, Note_on_c, 10, 65, 0
11, 93912, Note_on_c, 10, 63, 75
11, 94232, Note_on_c, 10, 63, 0
11, 94232, Note_on_c, 10, 62, 73
11, 94556, Note_on_c, 10, 62, 0
11, 94556, Note_on_c, 10, 60, 70
11, 94876, Note_on_c, 10, 60, 0
11, 96432, Note_on_c, 10, 55, 73
11, 96736, Note_on_c, 10, 55, 0
11, 96736, Note_on_c, 10, 60, 75
11, 97056, Note_on_c, 10, 60, 0
11, 97056, Note_on_c, 10, 63, 78
11, 97372, Note_on_c, 10, 67, 81
11, 97376, Note_on_c, 10, 63, 0
11, 99564, Note_on_c, 10, 67, 0
11, 99564, Note_on_c, 10, 58, 75
11, 99860, Note_on_c, 10, 58, 0
11, 99860, Note_on_c, 10, 60, 77
11, 100176, Note_on_c, 10, 60, 0
11, 100176, Note_on_c, 10, 61, 80
11, 101400, Note_on_c, 10, 61, 0
11, 101400, Note_on_c, 10, 60, 75
11, 102072, Note_on_c, 10, 60, 0
11, 102072, Note_on_c, 10, 53, 70
11, 102372, Note_on_c, 10, 53, 0
11, 109057, Control_c, 10, 11, 45
11, 109972, Note_on_c, 10, 51, 60
11, 110324, Note_on_c, 10, 62, 60
11, 110324, Note_on_c, 10, 59, 60
11, 110327, Note_on_c, 10, 51, 0
11, 110679, Note_on_c, 10, 59, 0
11, 110679, Note_on_c, 10, 62, 0
11, 110680, Note_on_c, 10, 63, 60
11, 111056, Note_on_c, 10, 51, 60
11, 111588, Note_on_c, 10, 63, 0
11, 112154, Note_on_c, 10, 51, 0
11, 149328, Control_c, 10, 11, 45
11, 149328, Note_on_c, 10, 51, 60
11, 149511, Control_c, 10, 11, 46
11, 149528, Note_on_c, 10, 51, 0
11, 149652, Note_on_c, 10, 58, 62
11, 149695, Control_c, 10, 11, 47
11, 149758, Note_on_c, 10, 58, 0
11, 149758, Note_on_c, 10, 57, 64
11, 149878, Control_c, 10, 11, 48
11, 150062, Control_c, 10, 11, 49
11, 150188, Note_on_c, 10, 57, 0
11, 150188, Note_on_c, 10, 58, 66
11, 150246, Control_c, 10, 11, 50
11, 150429, Control_c, 10, 11, 51
11, 150588, Note_on_c, 10, 58, 0
11, 150604, Note_on_c, 10, 63, 68
11, 150613, Control_c, 10, 11, 52
11, 150796, Control_c, 10, 11, 53
11, 150980, Control_c, 10, 11, 54
11, 151012, Note_on_c, 10, 63, 0
11, 151012, Note_on_c, 10, 65, 70
11, 151164, Note_on_c, 10, 65, 0
11, 151164, Control_c, 10, 11, 55
11, 151164, Note_on_c, 10, 67, 73
11, 152566, Note_on_c, 10, 67, 0
11, 152574, Note_on_c, 10, 68, 60
11, 152874, Note_on_c, 10, 68, 0
11, 184716, Note_on_c, 10, 61, 60
11, 185236, Note_on_c, 10, 61, 0
11, 185236, Note_on_c, 10, 60, 60
11, 185468, Note_on_c, 10, 60, 0
11, 185468, Note_on_c, 10, 58, 60
11, 185728, Note_on_c, 10, 58, 0
11, 185728, Note_on_c, 10, 60, 60
11, 186000, Note_on_c, 10, 60, 0
11, 186000, Note_on_c, 10, 58, 60
11, 186268, Note_on_c, 10, 58, 0
11, 186268, Note_on_c, 10, 56, 60
11, 187036, Note_on_c, 10, 56, 0
11, 187036, Note_on_c, 10, 55, 60
11, 187304, Note_on_c, 10, 55, 0
11, 187304, Note_on_c, 10, 53, 60
11, 187552, Note_on_c, 10, 53, 0
11, 187552, Note_on_c, 10, 51, 60
11, 187824, Note_on_c, 10, 51, 0
11, 187824, Note_on_c, 10, 60, 60
11, 188154, Note_on_c, 10, 60, 0
11, 250419, Control_c, 10, 11, 55
11, 250832, Note_on_c, 10, 60, 90
11, 250832, Note_on_c, 10, 48, 90
11, 250982, Note_on_c, 10, 48, 0
11, 250982, Note_on_c, 10, 60, 0
11, 251124, Note_on_c, 10, 60, 90
11, 251124, Note_on_c, 10, 48, 90
11, 251274, Note_on_c, 10, 48, 0
11, 251274, Note_on_c, 10, 60, 0
11, 251420, Note_on_c, 10, 60, 90
11, 251420, Note_on_c, 10, 48, 90
11, 251570, Note_on_c, 10, 48, 0
11, 251570, Note_on_c, 10, 60, 0
11, 251712, Note_on_c, 10, 60, 90
11, 251712, Note_on_c, 10, 48, 90
11, 251862, Note_on_c, 10, 48, 0
11, 251862, Note_on_c, 10, 60, 0
11, 251996, Note_on_c, 10, 60, 90
11, 251996, Note_on_c, 10, 48, 90
11, 252146, Note_on_c, 10, 48, 0
11, 252146, Note_on_c, 10, 60, 0
11, 293829, Control_c, 10, 11, 55
11, 294213, Control_c, 10, 91, 127
11, 294886, Note_on_c, 10, 56, 80
11, 294886, Note_on_c, 10, 44, 80
11, 295114, Note_on_c, 10, 44, 0
11, 295114, Note_on_c, 10, 56, 0
11, 295114, Note_on_c, 10, 58, 80
11, 295114, Note_on_c, 10, 46, 80
11, 295366, Note_on_c, 10, 46, 0
11, 295366, Note_on_c, 10, 58, 0
11, 295366, Note_on_c, 10, 60, 90
11, 295366, Note_on_c, 10, 48, 90
11, 295614, Note_on_c, 10, 48, 0
11, 295614, Note_on_c, 10, 53, 80
11, 295874, Note_on_c, 10, 53, 0
11, 295874, Note_on_c, 10, 60, 0
11, 295874, Note_on_c, 10, 63, 80
11, 295874, Note_on_c, 10, 51, 80
11, 296094, Note_on_c, 10, 63, 0
11, 296138, Note_on_c, 10, 51, 0
11, 296138, Note_on_c, 10, 63, 80
11, 296138, Note_on_c, 10, 56, 80
11, 296358, Note_on_c, 10, 56, 0
11, 296358, Note_on_c, 10, 63, 0
11, 296394, Note_on_c, 10, 63, 80
11, 296394, Note_on_c, 10, 44, 80
11, 296614, Note_on_c, 10, 44, 0
11, 296614, Note_on_c, 10, 63, 0
11, 296646, Note_on_c, 10, 65, 80
11, 296646, Note_on_c, 10, 47, 80
11, 296918, Note_on_c, 10, 47, 0
11, 296918, Note_on_c, 10, 65, 0
11, 296918, Note_on_c, 10, 63, 80
11, 296918, Note_on_c, 10, 48, 80
11, 297170, Note_on_c, 10, 48, 0
11, 297170, Note_on_c, 10, 63, 0
11, 297170, Note_on_c, 10, 62, 80
11, 297170, Note_on_c, 10, 53, 80
11, 297390, Note_on_c, 10, 62, 0
11, 297426, Note_on_c, 10, 53, 0
11, 297426, Note_on_c, 10, 62, 80
11, 297426, Note_on_c, 10, 55, 80
11, 297646, Note_on_c, 10, 55, 0
11, 297646, Note_on_c, 10, 62, 0
11, 297694, Note_on_c, 10, 60, 80
11, 297914, Note_on_c, 10, 60, 0
11, 297962, Note_on_c, 10, 60, 80
11, 297962, Note_on_c, 10, 48, 80
11, 298182, Note_on_c, 10, 48, 0
11, 298210, Note_on_c, 10, 60, 0
11, 298210, Note_on_c, 10, 53, 80
11, 298482, Note_on_c, 10, 53, 0
11, 298482, Note_on_c, 10, 58, 80
11, 298482, Note_on_c, 10, 46, 80
11, 298746, Note_on_c, 10, 46, 0
11, 298746, Note_on_c, 10, 58, 0
11, 298746, Note_on_c, 10, 60, 80
11, 298746, Note_on_c, 10, 48, 80
11, 299014, Note_on_c, 10, 48, 0
11, 299014, Note_on_c, 10, 60, 0
11, 299014, Note_on_c, 10, 61, 80
11, 299014, Note_on_c, 10, 49, 80
11, 299262, Note_on_c, 10, 49, 0
11, 299262, Note_on_c, 10, 61, 0
11, 299262, Note_on_c, 10, 55, 80
11, 299262, Note_on_c, 10, 43, 80
11, 299518, Note_on_c, 10, 43, 0
11, 299518, Note_on_c, 10, 55, 0
11, 299518, Note_on_c, 10, 56, 80
11, 299518, Note_on_c, 10, 44, 80
11, 299794, Note_on_c, 10, 44, 0
11, 299794, Note_on_c, 10, 56, 0
11, 299794, Note_on_c, 10, 58, 80
11, 299794, Note_on_c, 10, 46, 80
11, 300046, Note_on_c, 10, 46, 0
11, 300046, Note_on_c, 10, 58, 0
11, 300046, Note_on_c, 10, 52, 80
11, 300302, Note_on_c, 10, 52, 0
11, 300302, Note_on_c, 10, 53, 80
11, 300434, Note_on_c, 10, 53, 0
11, 300434, Note_on_c, 10, 51, 80
11, 300562, Note_on_c, 10, 49, 80
11, 300566, Note_on_c, 10, 51, 0
11, 300762, Note_on_c, 10, 49, 0
11, 300834, Note_on_c, 10, 48, 80
11, 301034, Note_on_c, 10, 48, 0
11, 331138, Control_c, 10, 11, 60
11, 331277, Note_on_c, 10, 60, 77
11, 331277, Note_on_c, 10, 48, 77
11, 331353, Note_on_c, 10, 48, 0
11, 331353, Note_on_c, 10, 60, 0
11, 331529, Note_on_c, 10, 65, 90
11, 331529, Note_on_c, 10, 53, 90
11, 331633, Note_on_c, 10, 53, 0
11, 331633, Note_on_c, 10, 65, 0
11, 331777, Note_on_c, 10, 64, 88
11, 331777, Note_on_c, 10, 52, 88
11, 331845, Note_on_c, 10, 52, 0
11, 331847, Note_on_c, 10, 64, 0
11, 332017, Note_on_c, 10, 63, 85
11, 332017, Note_on_c, 10, 51, 85
11, 332113, Note_on_c, 10, 51, 0
11, 332113, Note_on_c, 10, 63, 0
11, 332269, Note_on_c, 10, 61, 81
11, 332269, Note_on_c, 10, 49, 81
11, 332397, Note_on_c, 10, 49, 0
11, 332397, Note_on_c, 10, 61, 0
11, 332525, Note_on_c, 10, 60, 85
11, 332525, Note_on_c, 10, 48, 85
11, 332641, Note_on_c, 10, 48, 0
11, 332641, Note_on_c, 10, 60, 0
11, 332789, Note_on_c, 10, 58, 85
11, 332789, Note_on_c, 10, 46, 85
11, 332933, Note_on_c, 10, 46, 0
11, 332933, Note_on_c, 10, 58, 0
11, 333065, Note_on_c, 10, 60, 87
11, 333065, Note_on_c, 10, 48, 87
11, 333529, Note_on_c, 10, 48, 0
11, 333529, Note_on_c, 10, 60, 0
11, 334793, Note_on_c, 10, 65, 75
11, 334793, Note_on_c, 10, 53, 75
11, 334889, Note_on_c, 10, 53, 0
11, 334889, Note_on_c, 10, 65, 0
11, 335045, Note_on_c, 10, 65, 82
11, 335045, Note_on_c, 10, 53, 82
11, 335121, Note_on_c, 10, 53, 0
11, 335121, Note_on_c, 10, 65, 0
11, 335289, Note_on_c, 10, 65, 93
11, 335289, Note_on_c, 10, 53, 93
11, 335365, Note_on_c, 10, 53, 0
11, 335365, Note_on_c, 10, 65, 0
11, 335545, Note_on_c, 10, 63, 77
11, 335545, Note_on_c, 10, 51, 77
11, 335637, Note_on_c, 10, 51, 0
11, 335637, Note_on_c, 10, 63, 0
11, 335793, Note_on_c, 10, 61, 90
11, 335793, Note_on_c, 10, 49, 90
11, 335889, Note_on_c, 10, 49, 0
11, 335889, Note_on_c, 10, 61, 0
11, 336053, Note_on_c, 10, 60, 88
11, 336053, Note_on_c, 10, 48, 88
11, 336297, Note_on_c, 10, 48, 0
11, 336297, Note_on_c, 10, 60, 0
11, 336514, Control_c, 10, 11, 50
11, 336573, Note_on_c, 10, 60, 60
11, 336573, Note_on_c, 10, 48, 60
11, 336773, Note_on_c, 10, 48, 0
11, 336773, Note_on_c, 10, 60, 0
11, 336825, Note_on_c, 10, 60, 60
11, 336825, Note_on_c, 10, 48, 60
11, 337093, Note_on_c, 10, 60, 0
11, 337093, Note_on_c, 10, 62, 60
11, 337349, Note_on_c, 10, 62, 0
11, 337349, Note_on_c, 10, 64, 60
11, 337613, Note_on_c, 10, 48, 0
11, 337617, Note_on_c, 10, 64, 0
11, 337617, Note_on_c, 10, 65, 60
11, 337617, Note_on_c, 10, 41, 60
11, 337867, Note_on_c, 10, 41, 0
11, 337867, Note_on_c, 10, 65, 0
11, 338050, Control_c, 10, 11, 60
11, 338121, Note_on_c, 10, 60, 79
11, 338121, Note_on_c, 10, 48, 79
11, 338297, Note_on_c, 10, 48, 0
11, 338297, Note_on_c, 10, 60, 0
11, 338373, Note_on_c, 10, 65, 79
11, 338373, Note_on_c, 10, 53, 79
11, 338549, Note_on_c, 10, 53, 0
11, 338549, Note_on_c, 10, 65, 0
11, 338873, Note_on_c, 10, 60, 74
11, 338873, Note_on_c, 10, 48, 74
11, 339025, Note_on_c, 10, 48, 0
11, 339025, Note_on_c, 10, 60, 0
11, 339121, Note_on_c, 10, 53, 74
11, 339121, Note_on_c, 10, 41, 74
11, 339273, Note_on_c, 10, 41, 0
11, 339273, Note_on_c, 10, 53, 0
11, 339377, Note_on_c, 10, 53, 74
11, 339377, Note_on_c, 10, 41, 74
11, 339497, Note_on_c, 10, 41, 0
11, 339497, Note_on_c, 10, 53, 0
11, 339637, Note_on_c, 10, 55, 72
11, 339637, Note_on_c, 10, 43, 72
11, 339801, Note_on_c, 10, 43, 0
11, 339801, Note_on_c, 10, 55, 0
11, 339905, Note_on_c, 10, 56, 76
11, 339905, Note_on_c, 10, 44, 76
11, 340065, Note_on_c, 10, 44, 0
11, 340065, Note_on_c, 10, 56, 0
11, 340157, Note_on_c, 10, 58, 76
11, 340157, Note_on_c, 10, 46, 76
11, 340329, Note_on_c, 10, 46, 0
11, 340329, Note_on_c, 10, 58, 0
11, 340421, Note_on_c, 10, 60, 74
11, 340421, Note_on_c, 10, 48, 74
11, 340577, Note_on_c, 10, 48, 0
11, 340577, Note_on_c, 10, 60, 0
11, 340677, Note_on_c, 10, 53, 79
11, 340677, Note_on_c, 10, 41, 79
11, 340861, Note_on_c, 10, 41, 0
11, 340861, Note_on_c, 10, 53, 0
11, 341169, Note_on_c, 10, 60, 76
11, 341169, Note_on_c, 10, 48, 76
11, 341317, Note_on_c, 10, 48, 0
11, 341317, Note_on_c, 10, 60, 0
11, 341425, Note_on_c, 10, 65, 76
11, 341425, Note_on_c, 10, 53, 76
11, 341573, Note_on_c, 10, 53, 0
11, 341573, Note_on_c, 10, 65, 0
11, 341929, Note_on_c, 10, 60, 72
11, 341929, Note_on_c, 10, 48, 72
11, 342069, Note_on_c, 10, 48, 0
11, 342069, Note_on_c, 10, 60, 0
11, 342189, Note_on_c, 10, 53, 72
11, 342189, Note_on_c, 10, 41, 72
11, 342329, Note_on_c, 10, 41, 0
11, 342329, Note_on_c, 10, 53, 0
11, 342437, Note_on_c, 10, 56, 77
11, 342437, Note_on_c, 10, 44, 77
11, 342569, Note_on_c, 10, 44, 0
11, 342569, Note_on_c, 10, 56, 0
11, 342689, Note_on_c, 10, 55, 74
11, 342689, Note_on_c, 10, 43, 74
11, 342825, Note_on_c, 10, 43, 0
11, 342825, Note_on_c, 10, 55, 0
11, 342949, Note_on_c, 10, 56, 71
11, 342949, Note_on_c, 10, 44, 71
11, 343097, Note_on_c, 10, 44, 0
11, 343097, Note_on_c, 10, 56, 0
11, 343205, Note_on_c, 10, 55, 81
11, 343205, Note_on_c, 10, 43, 81
11, 343325, Note_on_c, 10, 43, 0
11, 343325, Note_on_c, 10, 55, 0
11, 343461, Note_on_c, 10, 60, 74
11, 343461, Note_on_c, 10, 48, 74
11, 343597, Note_on_c, 10, 48, 0
11, 343597, Note_on_c, 10, 60, 0
11, 343745, Note_on_c, 10, 53, 82
11, 343745, Note_on_c, 10, 41, 82
11, 344329, Note_on_c, 10, 41, 0
11, 344329, Note_on_c, 10, 53, 0
11, 382933, Note_on_c, 10, 60, 90
11, 382933, Note_on_c, 10, 48, 90
11, 383203, Note_on_c, 10, 48, 0
11, 383203, Note_on_c, 10, 60, 0
11, 383249, Note_on_c, 10, 53, 90
11, 383249, Note_on_c, 10, 41, 90
11, 383519, Note_on_c, 10, 41, 0
11, 383519, Note_on_c, 10, 53, 0
11, 417793, Control_c, 10, 11, 70
11, 418789, Note_on_c, 10, 60, 70
11, 418789, Note_on_c, 10, 48, 70
11, 419749, Note_on_c, 10, 48, 0
11, 419749, Note_on_c, 10, 60, 0
11, 420062, Note_on_c, 10, 60, 85
11, 420062, Note_on_c, 10, 48, 85
11, 420362, Note_on_c, 10, 48, 0
11, 420362, Note_on_c, 10, 60, 0
11, 420418, Note_on_c, 10, 60, 88
11, 420418, Note_on_c, 10, 48, 88
11, 420718, Note_on_c, 10, 48, 0
11, 420718, Note_on_c, 10, 60, 0
11, 420782, Note_on_c, 10, 60, 90
11, 420782, Note_on_c, 10, 48, 90
11, 421336, Note_on_c, 10, 48, 0
11, 421336, Note_on_c, 10, 60, 0
11, 421338, Note_on_c, 10, 60, 90
11, 421338, Note_on_c, 10, 48, 90
11, 421538, Note_on_c, 10, 48, 0
11, 421538, Note_on_c, 10, 60, 0
11, 421554, Note_on_c, 10, 60, 90
11, 421554, Note_on_c, 10, 48, 90
11, 422138, Note_on_c, 10, 48, 0
11, 422138, Note_on_c, 10, 60, 0
11, 423169, Control_c, 10, 11, 30
11, 423169, Control_c, 10, 11, 30
11, 423340, Note_on_c, 10, 65, 40
11, 423340, Note_on_c, 10, 53, 40
11, 423860, Control_c, 10, 11, 29
11, 424551, Control_c, 10, 11, 28
11, 425242, Control_c, 10, 11, 27
11, 425933, Control_c, 10, 11, 26
11, 426625, Control_c, 10, 11, 25
11, 427316, Control_c, 10, 11, 24
11, 428007, Control_c, 10, 11, 23
11, 428698, Control_c, 10, 11, 22
11, 429389, Control_c, 10, 11, 21
11, 430081, Control_c, 10, 11, 20
11, 431210, Note_on_c, 10, 53, 0
11, 431210, Note_on_c, 10, 65, 0
11, 437761, Control_c, 10, 11, 80
11, 438568, Note_on_c, 10, 53, 90
11, 438568, Note_on_c, 10, 41, 90
11, 438668, Note_on_c, 10, 41, 0
11, 438668, Note_on_c, 10, 53, 0
11, 438844, Note_on_c, 10, 53, 90
11, 438844, Note_on_c, 10, 41, 90
11, 438944, Note_on_c, 10, 41, 0
11, 438944, Note_on_c, 10, 53, 0
11, 439124, Note_on_c, 10, 53, 90
11, 439124, Note_on_c, 10, 41, 90
11, 439224, Note_on_c, 10, 41, 0
11, 439224, Note_on_c, 10, 53, 0
11, 439396, Note_on_c, 10, 53, 90
11, 439396, Note_on_c, 10, 41, 90
11, 439596, Note_on_c, 10, 41, 0
11, 439596, Note_on_c, 10, 53, 0
11, 440194, Note_on_c, 10, 53, 90
11, 440194, Note_on_c, 10, 41, 90
11, 440494, Note_on_c, 10, 41, 0
11, 440494, Note_on_c, 10, 53, 0
11, 440950, Note_on_c, 10, 53, 90
11, 440950, Note_on_c, 10, 41, 90
11, 441006, Note_on_c, 10, 41, 0
11, 441006, Note_on_c, 10, 53, 0
11, 441034, Note_on_c, 10, 53, 100
11, 441034, Note_on_c, 10, 41, 100
11, 441802, Note_on_c, 10, 41, 0
11, 441802, Note_on_c, 10, 53, 0
11, 442369, Control_c, 10, 121, 0
11, 442369, End_track
12, 0, Start_track
12, 0, MIDI_port, 0
12, 0, Title_t, "French Horns"
12, 0, Program_c, 11, 60
12, 0, Control_c, 11, 7, 127
12, 0, Control_c, 11, 10, 64
12, 12289, Control_c, 11, 11, 80
12, 12673, Control_c, 11, 91, 127
12, 13346, Note_on_c, 11, 65, 80
12, 13574, Note_on_c, 11, 67, 80
12, 13804, Note_on_c, 11, 67, 0
12, 13826, Note_on_c, 11, 65, 0
12, 13826, Note_on_c, 11, 67, 90
12, 13826, Note_on_c, 11, 60, 90
12, 14074, Note_on_c, 11, 60, 0
12, 14074, Note_on_c, 11, 67, 0
12, 14074, Note_on_c, 11, 68, 80
12, 14074, Note_on_c, 11, 65, 80
12, 14334, Note_on_c, 11, 65, 0
12, 14334, Note_on_c, 11, 68, 0
12, 14334, Note_on_c, 11, 70, 80
12, 14334, Note_on_c, 11, 63, 80
12, 14554, Note_on_c, 11, 70, 0
12, 14598, Note_on_c, 11, 63, 0
12, 14598, Note_on_c, 11, 72, 80
12, 14598, Note_on_c, 11, 68, 80
12, 14818, Note_on_c, 11, 68, 0
12, 14818, Note_on_c, 11, 72, 0
12, 14854, Note_on_c, 11, 68, 80
12, 14854, Note_on_c, 11, 60, 80
12, 15074, Note_on_c, 11, 60, 0
12, 15074, Note_on_c, 11, 68, 0
12, 15106, Note_on_c, 11, 68, 80
12, 15106, Note_on_c, 11, 65, 80
12, 15378, Note_on_c, 11, 65, 0
12, 15378, Note_on_c, 11, 68, 0
12, 15378, Note_on_c, 11, 67, 80
12, 15378, Note_on_c, 11, 63, 80
12, 15630, Note_on_c, 11, 63, 0
12, 15630, Note_on_c, 11, 67, 0
12, 15630, Note_on_c, 11, 68, 80
12, 15630, Note_on_c, 11, 65, 80
12, 15850, Note_on_c, 11, 68, 0
12, 15886, Note_on_c, 11, 65, 0
12, 15886, Note_on_c, 11, 67, 80
12, 16106, Note_on_c, 11, 67, 0
12, 16154, Note_on_c, 11, 67, 80
12, 16154, Note_on_c, 11, 60, 80
12, 16374, Note_on_c, 11, 60, 0
12, 16374, Note_on_c, 11, 67, 0
12, 16422, Note_on_c, 11, 67, 80
12, 16422, Note_on_c, 11, 60, 80
12, 16642, Note_on_c, 11, 60, 0
12, 16670, Note_on_c, 11, 67, 0
12, 16670, Note_on_c, 11, 68, 80
12, 16670, Note_on_c, 11, 65, 80
12, 16942, Note_on_c, 11, 65, 0
12, 16942, Note_on_c, 11, 68, 0
12, 16942, Note_on_c, 11, 67, 80
12, 17172, Note_on_c, 11, 67, 0
12, 17206, Note_on_c, 11, 67, 80
12, 17206, Note_on_c, 11, 60, 80
12, 17474, Note_on_c, 11, 60, 0
12, 17474, Note_on_c, 11, 67, 0
12, 17474, Note_on_c, 11, 65, 80
12, 17722, Note_on_c, 11, 65, 0
12, 17722, Note_on_c, 11, 70, 80
12, 17722, Note_on_c, 11, 63, 80
12, 17978, Note_on_c, 11, 63, 0
12, 17978, Note_on_c, 11, 70, 0
12, 17978, Note_on_c, 11, 72, 80
12, 17978, Note_on_c, 11, 68, 80
12, 18254, Note_on_c, 11, 68, 0
12, 18254, Note_on_c, 11, 72, 0
12, 18254, Note_on_c, 11, 70, 80
12, 18506, Note_on_c, 11, 70, 0
12, 18506, Note_on_c, 11, 67, 80
12, 18506, Note_on_c, 11, 60, 80
12, 18762, Note_on_c, 11, 60, 0
12, 18762, Note_on_c, 11, 67, 0
12, 18762, Note_on_c, 11, 68, 80
12, 18762, Note_on_c, 11, 65, 80
12, 18992, Note_on_c, 11, 65, 0
12, 19022, Note_on_c, 11, 65, 80
12, 19026, Note_on_c, 11, 68, 0
12, 19222, Note_on_c, 11, 65, 0
12, 19294, Note_on_c, 11, 67, 80
12, 19294, Note_on_c, 11, 60, 80
12, 19494, Note_on_c, 11, 60, 0
12, 19494, Note_on_c, 11, 67, 0
12, 34177, Control_c, 11, 11, 70
12, 34316, Note_on_c, 11, 72, 77
12, 34316, Note_on_c, 11, 60, 77
12, 34568, Note_on_c, 11, 60, 0
12, 34568, Note_on_c, 11, 72, 0
12, 34568, Note_on_c, 11, 65, 90
12, 34672, Note_on_c, 11, 65, 0
12, 34816, Note_on_c, 11, 60, 88
12, 34816, Note_on_c, 11, 67, 88
12, 34884, Note_on_c, 11, 67, 0
12, 34886, Note_on_c, 11, 60, 0
12, 35056, Note_on_c, 11, 65, 85
12, 35152, Note_on_c, 11, 65, 0
12, 35308, Note_on_c, 11, 65, 81
12, 35308, Note_on_c, 11, 53, 81
12, 35436, Note_on_c, 11, 53, 0
12, 35436, Note_on_c, 11, 65, 0
12, 35564, Note_on_c, 11, 65, 85
12, 35564, Note_on_c, 11, 53, 85
12, 35680, Note_on_c, 11, 53, 0
12, 35680, Note_on_c, 11, 65, 0
12, 35828, Note_on_c, 11, 65, 85
12, 35828, Note_on_c, 11, 53, 85
12, 35972, Note_on_c, 11, 53, 0
12, 35972, Note_on_c, 11, 65, 0
12, 36104, Note_on_c, 11, 65, 87
12, 36104, Note_on_c, 11, 53, 87
12, 36481, Control_c, 11, 11, 60
12, 36568, Note_on_c, 11, 53, 0
12, 36568, Note_on_c, 11, 65, 0
12, 36844, Note_on_c, 11, 60, 80
12, 36844, Note_on_c, 11, 48, 80
12, 37044, Note_on_c, 11, 48, 0
12, 37044, Note_on_c, 11, 60, 0
12, 37088, Note_on_c, 11, 60, 80
12, 37088, Note_on_c, 11, 48, 80
12, 37288, Note_on_c, 11, 48, 0
12, 37288, Note_on_c, 11, 60, 0
12, 37332, Note_on_c, 11, 60, 80
12, 37332, Note_on_c, 11, 48, 80
12, 37532, Note_on_c, 11, 48, 0
12, 37532, Note_on_c, 11, 60, 0
12, 37584, Note_on_c, 11, 60, 80
12, 37584, Note_on_c, 11, 53, 80
12, 37784, Note_on_c, 11, 53, 0
12, 37784, Note_on_c, 11, 60, 0
12, 37832, Note_on_c, 11, 65, 75
12, 37832, Note_on_c, 11, 53, 75
12, 37928, Note_on_c, 11, 53, 0
12, 37928, Note_on_c, 11, 65, 0
12, 38084, Note_on_c, 11, 65, 82
12, 38084, Note_on_c, 11, 53, 82
12, 38160, Note_on_c, 11, 53, 0
12, 38160, Note_on_c, 11, 65, 0
12, 38328, Note_on_c, 11, 65, 93
12, 38328, Note_on_c, 11, 53, 93
12, 38404, Note_on_c, 11, 53, 0
12, 38404, Note_on_c, 11, 65, 0
12, 38584, Note_on_c, 11, 60, 77
12, 38676, Note_on_c, 11, 60, 0
12, 38832, Note_on_c, 11, 65, 90
12, 38832, Note_on_c, 11, 53, 90
12, 38928, Note_on_c, 11, 53, 0
12, 38928, Note_on_c, 11, 65, 0
12, 39092, Note_on_c, 11, 60, 88
12, 39092, Note_on_c, 11, 53, 88
12, 39336, Note_on_c, 11, 53, 0
12, 39336, Note_on_c, 11, 60, 0
12, 40912, Note_on_c, 11, 72, 100
12, 40912, Note_on_c, 11, 60, 100
12, 41596, Note_on_c, 11, 60, 0
12, 41596, Note_on_c, 11, 72, 0
12, 41660, Note_on_c, 11, 60, 100
12, 41660, Note_on_c, 11, 72, 100
12, 42160, Note_on_c, 11, 65, 90
12, 42280, Note_on_c, 11, 65, 0
12, 42344, Note_on_c, 11, 72, 0
12, 42344, Note_on_c, 11, 60, 0
12, 42416, Note_on_c, 11, 68, 74
12, 42416, Note_on_c, 11, 65, 74
12, 42536, Note_on_c, 11, 65, 0
12, 42536, Note_on_c, 11, 68, 0
12, 42676, Note_on_c, 11, 67, 72
12, 42676, Note_on_c, 11, 60, 72
12, 42840, Note_on_c, 11, 60, 0
12, 42840, Note_on_c, 11, 67, 0
12, 42944, Note_on_c, 11, 65, 76
12, 42944, Note_on_c, 11, 60, 76
12, 43104, Note_on_c, 11, 60, 0
12, 43294, Note_on_c, 11, 65, 0
12, 43328, Note_on_c, 11, 65, 76
12, 43460, Note_on_c, 11, 67, 74
12, 43460, Note_on_c, 11, 60, 74
12, 43500, Note_on_c, 11, 65, 0
12, 43616, Note_on_c, 11, 60, 0
12, 43616, Note_on_c, 11, 67, 0
12, 43716, Note_on_c, 11, 68, 79
12, 43716, Note_on_c, 11, 65, 79
12, 43900, Note_on_c, 11, 65, 0
12, 43900, Note_on_c, 11, 68, 0
12, 44208, Note_on_c, 11, 67, 76
12, 44208, Note_on_c, 11, 60, 76
12, 44356, Note_on_c, 11, 60, 0
12, 44356, Note_on_c, 11, 67, 0
12, 44464, Note_on_c, 11, 68, 76
12, 44464, Note_on_c, 11, 65, 76
12, 44612, Note_on_c, 11, 65, 0
12, 44612, Note_on_c, 11, 68, 0
12, 44968, Note_on_c, 11, 67, 72
12, 44968, Note_on_c, 11, 60, 72
12, 45108, Note_on_c, 11, 60, 0
12, 45108, Note_on_c, 11, 67, 0
12, 45228, Note_on_c, 11, 68, 72
12, 45228, Note_on_c, 11, 65, 72
12, 45368, Note_on_c, 11, 65, 0
12, 45368, Note_on_c, 11, 68, 0
12, 45476, Note_on_c, 11, 68, 77
12, 45476, Note_on_c, 11, 63, 77
12, 45608, Note_on_c, 11, 63, 0
12, 45608, Note_on_c, 11, 68, 0
12, 45728, Note_on_c, 11, 70, 74
12, 45728, Note_on_c, 11, 64, 74
12, 45864, Note_on_c, 11, 64, 0
12, 45864, Note_on_c, 11, 70, 0
12, 45988, Note_on_c, 11, 68, 71
12, 45988, Note_on_c, 11, 65, 71
12, 46136, Note_on_c, 11, 65, 0
12, 46136, Note_on_c, 11, 68, 0
12, 46244, Note_on_c, 11, 67, 81
12, 46364, Note_on_c, 11, 67, 0
12, 46500, Note_on_c, 11, 67, 74
12, 46500, Note_on_c, 11, 60, 74
12, 46636, Note_on_c, 11, 60, 0
12, 46636, Note_on_c, 11, 67, 0
12, 46784, Note_on_c, 11, 68, 82
12, 46784, Note_on_c, 11, 65, 82
12, 47140, Note_on_c, 11, 65, 0
12, 47140, Note_on_c, 11, 68, 0
12, 47684, Note_on_c, 11, 72, 94
12, 47684, Note_on_c, 11, 65, 94
12, 48034, Note_on_c, 11, 65, 0
12, 48034, Note_on_c, 11, 72, 0
12, 48568, Note_on_c, 11, 53, 94
12, 49252, Note_on_c, 11, 53, 0
12, 110593, Control_c, 11, 11, 70
12, 111762, Note_on_c, 11, 63, 60
12, 114234, Note_on_c, 11, 63, 0
12, 159745, Control_c, 11, 11, 60
12, 160522, Note_on_c, 11, 65, 60
12, 160612, Note_on_c, 11, 65, 0
12, 160612, Note_on_c, 11, 63, 60
12, 162074, Note_on_c, 11, 65, 60
12, 162114, Note_on_c, 11, 63, 0
12, 162164, Note_on_c, 11, 65, 0
12, 162164, Note_on_c, 11, 63, 60
12, 163558, Note_on_c, 11, 65, 60
12, 163616, Note_on_c, 11, 63, 0
12, 163648, Note_on_c, 11, 65, 0
12, 163648, Note_on_c, 11, 63, 60
12, 166336, Note_on_c, 11, 63, 0
12, 250419, Control_c, 11, 11, 70
12, 250832, Note_on_c, 11, 60, 90
12, 250832, Note_on_c, 11, 48, 90
12, 250982, Note_on_c, 11, 48, 0
12, 250982, Note_on_c, 11, 60, 0
12, 251124, Note_on_c, 11, 60, 90
12, 251124, Note_on_c, 11, 48, 90
12, 251274, Note_on_c, 11, 48, 0
12, 251274, Note_on_c, 11, 60, 0
12, 251420, Note_on_c, 11, 60, 90
12, 251420, Note_on_c, 11, 48, 90
12, 251570, Note_on_c, 11, 48, 0
12, 251570, Note_on_c, 11, 60, 0
12, 251712, Note_on_c, 11, 60, 90
12, 251712, Note_on_c, 11, 48, 90
12, 251862, Note_on_c, 11, 48, 0
12, 251862, Note_on_c, 11, 60, 0
12, 251996, Note_on_c, 11, 60, 90
12, 251996, Note_on_c, 11, 48, 90
12, 252146, Note_on_c, 11, 48, 0
12, 252146, Note_on_c, 11, 60, 0
12, 293829, Control_c, 11, 11, 80
12, 294213, Control_c, 11, 91, 127
12, 294886, Note_on_c, 11, 65, 80
12, 295114, Note_on_c, 11, 67, 80
12, 295344, Note_on_c, 11, 67, 0
12, 295366, Note_on_c, 11, 65, 0
12, 295366, Note_on_c, 11, 67, 90
12, 295366, Note_on_c, 11, 60, 90
12, 295614, Note_on_c, 11, 60, 0
12, 295614, Note_on_c, 11, 67, 0
12, 295614, Note_on_c, 11, 68, 80
12, 295614, Note_on_c, 11, 65, 80
12, 295874, Note_on_c, 11, 65, 0
12, 295874, Note_on_c, 11, 68, 0
12, 295874, Note_on_c, 11, 70, 80
12, 295874, Note_on_c, 11, 63, 80
12, 296094, Note_on_c, 11, 70, 0
12, 296138, Note_on_c, 11, 63, 0
12, 296138, Note_on_c, 11, 72, 80
12, 296138, Note_on_c, 11, 68, 80
12, 296358, Note_on_c, 11, 68, 0
12, 296358, Note_on_c, 11, 72, 0
12, 296394, Note_on_c, 11, 68, 80
12, 296394, Note_on_c, 11, 60, 80
12, 296614, Note_on_c, 11, 60, 0
12, 296614, Note_on_c, 11, 68, 0
12, 296646, Note_on_c, 11, 68, 80
12, 296646, Note_on_c, 11, 65, 80
12, 296918, Note_on_c, 11, 65, 0
12, 296918, Note_on_c, 11, 68, 0
12, 296918, Note_on_c, 11, 67, 80
12, 296918, Note_on_c, 11, 63, 80
12, 297170, Note_on_c, 11, 63, 0
12, 297170, Note_on_c, 11, 67, 0
12, 297170, Note_on_c, 11, 68, 80
12, 297170, Note_on_c, 11, 65, 80
12, 297390, Note_on_c, 11, 68, 0
12, 297426, Note_on_c, 11, 65, 0
12, 297426, Note_on_c, 11, 67, 80
12, 297646, Note_on_c, 11, 67, 0
12, 297694, Note_on_c, 11, 67, 80
12, 297694, Note_on_c, 11, 60, 80
12, 297914, Note_on_c, 11, 60, 0
12, 297914, Note_on_c, 11, 67, 0
12, 297962, Note_on_c, 11, 67, 80
12, 297962, Note_on_c, 11, 60, 80
12, 298182, Note_on_c, 11, 60, 0
12, 298210, Note_on_c, 11, 67, 0
12, 298210, Note_on_c, 11, 68, 80
12, 298210, Note_on_c, 11, 65, 80
12, 298482, Note_on_c, 11, 65, 0
12, 298482, Note_on_c, 11, 68, 0
12, 298482, Note_on_c, 11, 67, 80
12, 298712, Note_on_c, 11, 67, 0
12, 298746, Note_on_c, 11, 67, 80
12, 298746, Note_on_c, 11, 60, 80
12, 299014, Note_on_c, 11, 60, 0
12, 299014, Note_on_c, 11, 67, 0
12, 299014, Note_on_c, 11, 65, 80
12, 299262, Note_on_c, 11, 65, 0
12, 299262, Note_on_c, 11, 70, 80
12, 299262, Note_on_c, 11, 63, 80
12, 299518, Note_on_c, 11, 63, 0
12, 299518, Note_on_c, 11, 70, 0
12, 299518, Note_on_c, 11, 72, 80
12, 299518, Note_on_c, 11, 68, 80
12, 299794, Note_on_c, 11, 68, 0
12, 299794, Note_on_c, 11, 72, 0
12, 299794, Note_on_c, 11, 70, 80
12, 300046, Note_on_c, 11, 70, 0
12, 300046, Note_on_c, 11, 67, 80
12, 300046, Note_on_c, 11, 60, 80
12, 300302, Note_on_c, 11, 60, 0
12, 300302, Note_on_c, 11, 67, 0
12, 300302, Note_on_c, 11, 68, 80
12, 300302, Note_on_c, 11, 65, 80
12, 300532, Note_on_c, 11, 65, 0
12, 300562, Note_on_c, 11, 65, 80
12, 300566, Note_on_c, 11, 68, 0
12, 300762, Note_on_c, 11, 65, 0
12, 300834, Note_on_c, 11, 67, 80
12, 300834, Note_on_c, 11, 60, 80
12, 301034, Note_on_c, 11, 60, 0
12, 301034, Note_on_c, 11, 67, 0
12, 331138, Control_c, 11, 11, 70
12, 331277, Note_on_c, 11, 72, 77
12, 331277, Note_on_c, 11, 60, 77
12, 331529, Note_on_c, 11, 60, 0
12, 331529, Note_on_c, 11, 72, 0
12, 331529, Note_on_c, 11, 65, 90
12, 331633, Note_on_c, 11, 65, 0
12, 331777, Note_on_c, 11, 60, 88
12, 331777, Note_on_c, 11, 67, 88
12, 331845, Note_on_c, 11, 67, 0
12, 331847, Note_on_c, 11, 60, 0
12, 332017, Note_on_c, 11, 65, 85
12, 332113, Note_on_c, 11, 65, 0
12, 332269, Note_on_c, 11, 65, 81
12, 332269, Note_on_c, 11, 53, 81
12, 332397, Note_on_c, 11, 53, 0
12, 332397, Note_on_c, 11, 65, 0
12, 332525, Note_on_c, 11, 65, 85
12, 332525, Note_on_c, 11, 53, 85
12, 332641, Note_on_c, 11, 53, 0
12, 332641, Note_on_c, 11, 65, 0
12, 332789, Note_on_c, 11, 65, 85
12, 332789, Note_on_c, 11, 53, 85
12, 332933, Note_on_c, 11, 53, 0
12, 332933, Note_on_c, 11, 65, 0
12, 333065, Note_on_c, 11, 65, 87
12, 333065, Note_on_c, 11, 53, 87
12, 333442, Control_c, 11, 11, 60
12, 333529, Note_on_c, 11, 53, 0
12, 333529, Note_on_c, 11, 65, 0
12, 333805, Note_on_c, 11, 60, 80
12, 333805, Note_on_c, 11, 48, 80
12, 334005, Note_on_c, 11, 48, 0
12, 334005, Note_on_c, 11, 60, 0
12, 334049, Note_on_c, 11, 60, 80
12, 334049, Note_on_c, 11, 48, 80
12, 334249, Note_on_c, 11, 48, 0
12, 334249, Note_on_c, 11, 60, 0
12, 334293, Note_on_c, 11, 60, 80
12, 334293, Note_on_c, 11, 48, 80
12, 334493, Note_on_c, 11, 48, 0
12, 334493, Note_on_c, 11, 60, 0
12, 334545, Note_on_c, 11, 60, 80
12, 334545, Note_on_c, 11, 53, 80
12, 334745, Note_on_c, 11, 53, 0
12, 334745, Note_on_c, 11, 60, 0
12, 334793, Note_on_c, 11, 65, 75
12, 334793, Note_on_c, 11, 53, 75
12, 334889, Note_on_c, 11, 53, 0
12, 334889, Note_on_c, 11, 65, 0
12, 335045, Note_on_c, 11, 65, 82
12, 335045, Note_on_c, 11, 53, 82
12, 335121, Note_on_c, 11, 53, 0
12, 335121, Note_on_c, 11, 65, 0
12, 335289, Note_on_c, 11, 65, 93
12, 335289, Note_on_c, 11, 53, 93
12, 335365, Note_on_c, 11, 53, 0
12, 335365, Note_on_c, 11, 65, 0
12, 335545, Note_on_c, 11, 60, 77
12, 335637, Note_on_c, 11, 60, 0
12, 335793, Note_on_c, 11, 65, 90
12, 335793, Note_on_c, 11, 53, 90
12, 335889, Note_on_c, 11, 53, 0
12, 335889, Note_on_c, 11, 65, 0
12, 336053, Note_on_c, 11, 60, 88
12, 336053, Note_on_c, 11, 53, 88
12, 336297, Note_on_c, 11, 53, 0
12, 336297, Note_on_c, 11, 60, 0
12, 337873, Note_on_c, 11, 72, 100
12, 337873, Note_on_c, 11, 60, 100
12, 338557, Note_on_c, 11, 60, 0
12, 338557, Note_on_c, 11, 72, 0
12, 338621, Note_on_c, 11, 60, 100
12, 338621, Note_on_c, 11, 72, 100
12, 339121, Note_on_c, 11, 65, 90
12, 339241, Note_on_c, 11, 65, 0
12, 339305, Note_on_c, 11, 72, 0
12, 339305, Note_on_c, 11, 60, 0
12, 339377, Note_on_c, 11, 68, 74
12, 339377, Note_on_c, 11, 65, 74
12, 339497, Note_on_c, 11, 65, 0
12, 339497, Note_on_c, 11, 68, 0
12, 339637, Note_on_c, 11, 67, 72
12, 339637, Note_on_c, 11, 60, 72
12, 339801, Note_on_c, 11, 60, 0
12, 339801, Note_on_c, 11, 67, 0
12, 339905, Note_on_c, 11, 65, 76
12, 339905, Note_on_c, 11, 60, 76
12, 340065, Note_on_c, 11, 60, 0
12, 340255, Note_on_c, 11, 65, 0
12, 340289, Note_on_c, 11, 65, 76
12, 340421, Note_on_c, 11, 67, 74
12, 340421, Note_on_c, 11, 60, 74
12, 340461, Note_on_c, 11, 65, 0
12, 340577, Note_on_c, 11, 60, 0
12, 340577, Note_on_c, 11, 67, 0
12, 340677, Note_on_c, 11, 68, 79
12, 340677, Note_on_c, 11, 65, 79
12, 340861, Note_on_c, 11, 65, 0
12, 340861, Note_on_c, 11, 68, 0
12, 341169, Note_on_c, 11, 67, 76
12, 341169, Note_on_c, 11, 60, 76
12, 341317, Note_on_c, 11, 60, 0
12, 341317, Note_on_c, 11, 67, 0
12, 341425, Note_on_c, 11, 68, 76
12, 341425, Note_on_c, 11, 65, 76
12, 341573, Note_on_c, 11, 65, 0
12, 341573, Note_on_c, 11, 68, 0
12, 341929, Note_on_c, 11, 67, 72
12, 341929, Note_on_c, 11, 60, 72
12, 342069, Note_on_c, 11, 60, 0
12, 342069, Note_on_c, 11, 67, 0
12, 342189, Note_on_c, 11, 68, 72
12, 342189, Note_on_c, 11, 65, 72
12, 342329, Note_on_c, 11, 65, 0
12, 342329, Note_on_c, 11, 68, 0
12, 342437, Note_on_c, 11, 72, 77
12, 342437, Note_on_c, 11, 63, 77
12, 342569, Note_on_c, 11, 63, 0
12, 342675, Note_on_c, 11, 72, 0
12, 342689, Note_on_c, 11, 64, 74
12, 342825, Note_on_c, 11, 64, 0
12, 342949, Note_on_c, 11, 65, 71
12, 343097, Note_on_c, 11, 65, 0
12, 343461, Note_on_c, 11, 67, 74
12, 343461, Note_on_c, 11, 60, 74
12, 343597, Note_on_c, 11, 60, 0
12, 343597, Note_on_c, 11, 67, 0
12, 343745, Note_on_c, 11, 69, 82
12, 343745, Note_on_c, 11, 53, 82
12, 344065, Control_c, 11, 11, 80
12, 344329, Note_on_c, 11, 53, 0
12, 344329, Note_on_c, 11, 69, 0
12, 344833, Note_on_c, 11, 53, 80
12, 344905, Note_on_c, 11, 53, 0
12, 344941, Note_on_c, 11, 60, 85
12, 345045, Note_on_c, 11, 60, 0
12, 345061, Note_on_c, 11, 65, 86
12, 345197, Note_on_c, 11, 65, 0
12, 345197, Note_on_c, 11, 69, 90
12, 345565, Note_on_c, 11, 69, 0
12, 345609, Note_on_c, 11, 65, 83
12, 346041, Note_on_c, 11, 65, 0
12, 346041, Note_on_c, 11, 60, 84
12, 347137, Control_c, 11, 11, 70
12, 347281, Note_on_c, 11, 60, 0
12, 347385, Note_on_c, 11, 53, 54
12, 347461, Note_on_c, 11, 53, 0
12, 347505, Note_on_c, 11, 60, 62
12, 347605, Note_on_c, 11, 60, 0
12, 347633, Note_on_c, 11, 65, 65
12, 347749, Note_on_c, 11, 65, 0
12, 347757, Note_on_c, 11, 69, 62
12, 348145, Note_on_c, 11, 69, 0
12, 348209, Note_on_c, 11, 65, 61
12, 348629, Note_on_c, 11, 65, 0
12, 348673, Note_on_c, 11, 60, 51
12, 349409, Note_on_c, 11, 60, 0
12, 382933, Note_on_c, 11, 67, 90
12, 382933, Note_on_c, 11, 60, 90
12, 383203, Note_on_c, 11, 60, 0
12, 383203, Note_on_c, 11, 67, 0
12, 383249, Note_on_c, 11, 65, 90
12, 383249, Note_on_c, 11, 69, 90
12, 383519, Note_on_c, 11, 69, 0
12, 383519, Note_on_c, 11, 65, 0
12, 416257, Control_c, 11, 11, 80
12, 417885, Note_on_c, 11, 67, 70
12, 417885, Note_on_c, 11, 60, 70
12, 419621, Note_on_c, 11, 60, 0
12, 419621, Note_on_c, 11, 67, 0
12, 420062, Note_on_c, 11, 67, 85
12, 420062, Note_on_c, 11, 60, 85
12, 420362, Note_on_c, 11, 60, 0
12, 420362, Note_on_c, 11, 67, 0
12, 420418, Note_on_c, 11, 69, 88
12, 420418, Note_on_c, 11, 65, 88
12, 420718, Note_on_c, 11, 65, 0
12, 420718, Note_on_c, 11, 69, 0
12, 420782, Note_on_c, 11, 67, 90
12, 420782, Note_on_c, 11, 60, 90
12, 421336, Note_on_c, 11, 60, 0
12, 421336, Note_on_c, 11, 67, 0
12, 421338, Note_on_c, 11, 69, 90
12, 421338, Note_on_c, 11, 60, 90
12, 421538, Note_on_c, 11, 60, 0
12, 421538, Note_on_c, 11, 69, 0
12, 421554, Note_on_c, 11, 67, 90
12, 421554, Note_on_c, 11, 60, 90
12, 422138, Note_on_c, 11, 60, 0
12, 422138, Note_on_c, 11, 67, 0
12, 423169, Control_c, 11, 11, 55
12, 423340, Note_on_c, 11, 69, 60
12, 423340, Note_on_c, 11, 41, 60
12, 423514, Control_c, 11, 11, 54
12, 423860, Control_c, 11, 11, 53
12, 424205, Control_c, 11, 11, 52
12, 424551, Control_c, 11, 11, 51
12, 424897, Control_c, 11, 11, 50
12, 425242, Control_c, 11, 11, 49
12, 425588, Control_c, 11, 11, 48
12, 425933, Control_c, 11, 11, 47
12, 426279, Control_c, 11, 11, 46
12, 426625, Control_c, 11, 11, 45
12, 426970, Control_c, 11, 11, 44
12, 427316, Control_c, 11, 11, 43
12, 427661, Control_c, 11, 11, 42
12, 428007, Control_c, 11, 11, 41
12, 428353, Control_c, 11, 11, 40
12, 428698, Control_c, 11, 11, 39
12, 429044, Control_c, 11, 11, 38
12, 429389, Control_c, 11, 11, 37
12, 429735, Control_c, 11, 11, 36
12, 430081, Control_c, 11, 11, 35
12, 431210, Note_on_c, 11, 41, 0
12, 431210, Note_on_c, 11, 69, 0
12, 437761, Control_c, 11, 11, 80
12, 438568, Note_on_c, 11, 60, 90
12, 438568, Note_on_c, 11, 53, 90
12, 438668, Note_on_c, 11, 53, 0
12, 438668, Note_on_c, 11, 60, 0
12, 438844, Note_on_c, 11, 60, 90
12, 438844, Note_on_c, 11, 53, 90
12, 438944, Note_on_c, 11, 53, 0
12, 438944, Note_on_c, 11, 60, 0
12, 439124, Note_on_c, 11, 60, 90
12, 439124, Note_on_c, 11, 53, 90
12, 439224, Note_on_c, 11, 53, 0
12, 439224, Note_on_c, 11, 60, 0
12, 439396, Note_on_c, 11, 60, 90
12, 439396, Note_on_c, 11, 53, 90
12, 439596, Note_on_c, 11, 53, 0
12, 439596, Note_on_c, 11, 60, 0
12, 440194, Note_on_c, 11, 60, 90
12, 440194, Note_on_c, 11, 53, 90
12, 440494, Note_on_c, 11, 53, 0
12, 440494, Note_on_c, 11, 60, 0
12, 441034, Note_on_c, 11, 53, 100
12, 441034, Note_on_c, 11, 41, 100
12, 441802, Note_on_c, 11, 41, 0
12, 441802, Note_on_c, 11, 53, 0
12, 442369, Control_c, 11, 121, 0
12, 442369, End_track
13, 0, Start_track
13, 0, MIDI_port, 0
13, 0, Title_t, "Trumpets"
13, 0, Program_c, 12, 56
13, 0, Control_c, 12, 7, 127
13, 0, Control_c, 12, 10, 90
13, 13825, Control_c, 12, 11, 60
13, 14209, Control_c, 12, 91, 127
13, 14334, Note_on_c, 12, 70, 80
13, 14598, Note_on_c, 12, 70, 0
13, 14598, Note_on_c, 12, 72, 80
13, 14598, Note_on_c, 12, 68, 80
13, 14862, Note_on_c, 12, 68, 0
13, 14862, Note_on_c, 12, 72, 0
13, 16422, Note_on_c, 12, 72, 80
13, 16670, Note_on_c, 12, 72, 0
13, 16670, Note_on_c, 12, 77, 80
13, 16670, Note_on_c, 12, 65, 80
13, 16934, Note_on_c, 12, 65, 0
13, 16934, Note_on_c, 12, 77, 0
13, 18762, Note_on_c, 12, 77, 80
13, 18762, Note_on_c, 12, 65, 80
13, 18982, Note_on_c, 12, 65, 0
13, 18982, Note_on_c, 12, 77, 0
13, 19022, Note_on_c, 12, 77, 80
13, 19022, Note_on_c, 12, 65, 80
13, 19242, Note_on_c, 12, 65, 0
13, 19242, Note_on_c, 12, 77, 0
13, 19294, Note_on_c, 12, 72, 80
13, 19514, Note_on_c, 12, 72, 0
13, 34561, Control_c, 12, 11, 70
13, 34816, Note_on_c, 12, 72, 70
13, 34906, Note_on_c, 12, 72, 0
13, 35056, Note_on_c, 12, 77, 72
13, 35056, Note_on_c, 12, 65, 72
13, 35146, Note_on_c, 12, 65, 0
13, 35146, Note_on_c, 12, 77, 0
13, 35308, Note_on_c, 12, 77, 75
13, 35308, Note_on_c, 12, 65, 75
13, 35428, Note_on_c, 12, 65, 0
13, 35428, Note_on_c, 12, 77, 0
13, 35564, Note_on_c, 12, 77, 79
13, 35564, Note_on_c, 12, 65, 79
13, 35684, Note_on_c, 12, 65, 0
13, 35684, Note_on_c, 12, 77, 0
13, 35828, Note_on_c, 12, 77, 82
13, 35828, Note_on_c, 12, 65, 82
13, 35948, Note_on_c, 12, 65, 0
13, 35948, Note_on_c, 12, 77, 0
13, 36104, Note_on_c, 12, 72, 86
13, 36224, Note_on_c, 12, 72, 0
13, 37832, Note_on_c, 12, 77, 86
13, 37832, Note_on_c, 12, 65, 86
13, 37952, Note_on_c, 12, 65, 0
13, 37952, Note_on_c, 12, 77, 0
13, 38084, Note_on_c, 12, 77, 88
13, 38084, Note_on_c, 12, 65, 88
13, 38204, Note_on_c, 12, 65, 0
13, 38204, Note_on_c, 12, 77, 0
13, 38328, Note_on_c, 12, 77, 90
13, 38328, Note_on_c, 12, 65, 90
13, 38448, Note_on_c, 12, 65, 0
13, 38448, Note_on_c, 12, 77, 0
13, 38584, Note_on_c, 12, 72, 92
13, 38704, Note_on_c, 12, 72, 0
13, 38832, Note_on_c, 12, 77, 92
13, 38832, Note_on_c, 12, 65, 92
13, 38952, Note_on_c, 12, 65, 0
13, 38952, Note_on_c, 12, 77, 0
13, 39092, Note_on_c, 12, 72, 94
13, 39332, Note_on_c, 12, 72, 0
13, 40852, Note_on_c, 12, 72, 100
13, 40902, Note_on_c, 12, 72, 0
13, 40912, Note_on_c, 12, 72, 100
13, 41596, Note_on_c, 12, 72, 0
13, 41660, Note_on_c, 12, 72, 100
13, 42160, Note_on_c, 12, 65, 80
13, 42280, Note_on_c, 12, 65, 0
13, 42344, Note_on_c, 12, 72, 0
13, 42416, Note_on_c, 12, 72, 80
13, 42416, Note_on_c, 12, 65, 80
13, 42536, Note_on_c, 12, 65, 0
13, 42536, Note_on_c, 12, 72, 0
13, 42676, Note_on_c, 12, 72, 80
13, 42796, Note_on_c, 12, 72, 0
13, 42944, Note_on_c, 12, 77, 80
13, 42944, Note_on_c, 12, 65, 80
13, 43064, Note_on_c, 12, 65, 0
13, 43064, Note_on_c, 12, 77, 0
13, 43460, Note_on_c, 12, 72, 80
13, 43580, Note_on_c, 12, 72, 0
13, 43716, Note_on_c, 12, 77, 80
13, 43716, Note_on_c, 12, 65, 80
13, 43836, Note_on_c, 12, 65, 0
13, 43836, Note_on_c, 12, 77, 0
13, 43972, Note_on_c, 12, 72, 100
13, 44464, Note_on_c, 12, 65, 80
13, 44466, Note_on_c, 12, 72, 0
13, 44584, Note_on_c, 12, 65, 0
13, 44708, Note_on_c, 12, 72, 100
13, 45228, Note_on_c, 12, 72, 0
13, 45228, Note_on_c, 12, 65, 80
13, 45348, Note_on_c, 12, 65, 0
13, 46500, Note_on_c, 12, 72, 90
13, 46630, Note_on_c, 12, 72, 0
13, 46784, Note_on_c, 12, 77, 90
13, 46784, Note_on_c, 12, 65, 90
13, 47084, Note_on_c, 12, 65, 0
13, 47084, Note_on_c, 12, 77, 0
13, 47684, Note_on_c, 12, 77, 90
13, 47684, Note_on_c, 12, 65, 90
13, 48034, Note_on_c, 12, 65, 0
13, 48034, Note_on_c, 12, 77, 0
13, 48568, Note_on_c, 12, 53, 90
13, 49252, Note_on_c, 12, 53, 0
13, 295365, Control_c, 12, 11, 60
13, 295749, Control_c, 12, 91, 127
13, 295874, Note_on_c, 12, 70, 80
13, 296138, Note_on_c, 12, 70, 0
13, 296138, Note_on_c, 12, 72, 80
13, 296138, Note_on_c, 12, 68, 80
13, 296402, Note_on_c, 12, 68, 0
13, 296402, Note_on_c, 12, 72, 0
13, 297962, Note_on_c, 12, 72, 80
13, 298210, Note_on_c, 12, 72, 0
13, 298210, Note_on_c, 12, 77, 80
13, 298210, Note_on_c, 12, 65, 80
13, 298474, Note_on_c, 12, 65, 0
13, 298474, Note_on_c, 12, 77, 0
13, 300302, Note_on_c, 12, 77, 80
13, 300302, Note_on_c, 12, 65, 80
13, 300522, Note_on_c, 12, 65, 0
13, 300522, Note_on_c, 12, 77, 0
13, 300562, Note_on_c, 12, 77, 80
13, 300562, Note_on_c, 12, 65, 80
13, 300782, Note_on_c, 12, 65, 0
13, 300782, Note_on_c, 12, 77, 0
13, 300834, Note_on_c, 12, 72, 80
13, 301054, Note_on_c, 12, 72, 0
13, 331522, Control_c, 12, 11, 70
13, 331777, Note_on_c, 12, 72, 70
13, 331867, Note_on_c, 12, 72, 0
13, 332017, Note_on_c, 12, 77, 72
13, 332017, Note_on_c, 12, 65, 72
13, 332107, Note_on_c, 12, 65, 0
13, 332107, Note_on_c, 12, 77, 0
13, 332269, Note_on_c, 12, 77, 75
13, 332269, Note_on_c, 12, 65, 75
13, 332389, Note_on_c, 12, 65, 0
13, 332389, Note_on_c, 12, 77, 0
13, 332525, Note_on_c, 12, 77, 79
13, 332525, Note_on_c, 12, 65, 79
13, 332645, Note_on_c, 12, 65, 0
13, 332645, Note_on_c, 12, 77, 0
13, 332789, Note_on_c, 12, 77, 82
13, 332789, Note_on_c, 12, 65, 82
13, 332909, Note_on_c, 12, 65, 0
13, 332909, Note_on_c, 12, 77, 0
13, 333065, Note_on_c, 12, 72, 86
13, 333185, Note_on_c, 12, 72, 0
13, 334793, Note_on_c, 12, 77, 86
13, 334793, Note_on_c, 12, 65, 86
13, 334913, Note_on_c, 12, 65, 0
13, 334913, Note_on_c, 12, 77, 0
13, 335045, Note_on_c, 12, 77, 88
13, 335045, Note_on_c, 12, 65, 88
13, 335165, Note_on_c, 12, 65, 0
13, 335165, Note_on_c, 12, 77, 0
13, 335289, Note_on_c, 12, 77, 90
13, 335289, Note_on_c, 12, 65, 90
13, 335409, Note_on_c, 12, 65, 0
13, 335409, Note_on_c, 12, 77, 0
13, 335545, Note_on_c, 12, 72, 92
13, 335665, Note_on_c, 12, 72, 0
13, 335793, Note_on_c, 12, 77, 92
13, 335793, Note_on_c, 12, 65, 92
13, 335913, Note_on_c, 12, 65, 0
13, 335913, Note_on_c, 12, 77, 0
13, 336053, Note_on_c, 12, 72, 94
13, 336293, Note_on_c, 12, 72, 0
13, 337813, Note_on_c, 12, 72, 100
13, 337863, Note_on_c, 12, 72, 0
13, 337873, Note_on_c, 12, 72, 100
13, 338557, Note_on_c, 12, 72, 0
13, 338621, Note_on_c, 12, 72, 100
13, 339121, Note_on_c, 12, 65, 80
13, 339241, Note_on_c, 12, 65, 0
13, 339305, Note_on_c, 12, 72, 0
13, 339377, Note_on_c, 12, 72, 80
13, 339377, Note_on_c, 12, 65, 80
13, 339497, Note_on_c, 12, 65, 0
13, 339497, Note_on_c, 12, 72, 0
13, 339637, Note_on_c, 12, 72, 80
13, 339757, Note_on_c, 12, 72, 0
13, 339905, Note_on_c, 12, 77, 80
13, 339905, Note_on_c, 12, 65, 80
13, 340025, Note_on_c, 12, 65, 0
13, 340025, Note_on_c, 12, 77, 0
13, 340421, Note_on_c, 12, 72, 80
13, 340541, Note_on_c, 12, 72, 0
13, 340677, Note_on_c, 12, 77, 80
13, 340677, Note_on_c, 12, 65, 80
13, 340797, Note_on_c, 12, 65, 0
13, 340797, Note_on_c, 12, 77, 0
13, 340933, Note_on_c, 12, 72, 100
13, 341425, Note_on_c, 12, 65, 80
13, 341427, Note_on_c, 12, 72, 0
13, 341545, Note_on_c, 12, 65, 0
13, 341669, Note_on_c, 12, 72, 100
13, 342189, Note_on_c, 12, 72, 0
13, 342189, Note_on_c, 12, 65, 80
13, 342309, Note_on_c, 12, 65, 0
13, 343461, Note_on_c, 12, 72, 90
13, 343591, Note_on_c, 12, 72, 0
13, 343745, Note_on_c, 12, 77, 90
13, 343745, Note_on_c, 12, 65, 90
13, 344329, Note_on_c, 12, 65, 0
13, 344329, Note_on_c, 12, 77, 0
13, 382933, Note_on_c, 12, 72, 90
13, 383203, Note_on_c, 12, 72, 0
13, 383249, Note_on_c, 12, 77, 90
13, 383249, Note_on_c, 12, 65, 90
13, 383519, Note_on_c, 12, 65, 0
13, 383519, Note_on_c, 12, 77, 0
13, 420062, Note_on_c, 12, 72, 80
13, 420362, Note_on_c, 12, 72, 0
13, 420418, Note_on_c, 12, 72, 80
13, 420718, Note_on_c, 12, 72, 0
13, 420782, Note_on_c, 12, 72, 80
13, 421336, Note_on_c, 12, 72, 0
13, 421338, Note_on_c, 12, 72, 80
13, 421538, Note_on_c, 12, 72, 0
13, 421554, Note_on_c, 12, 72, 80
13, 422138, Note_on_c, 12, 72, 0
13, 438529, Control_c, 12, 11, 70
13, 438568, Note_on_c, 12, 65, 90
13, 438568, Note_on_c, 12, 72, 90
13, 438668, Note_on_c, 12, 72, 0
13, 438668, Note_on_c, 12, 65, 0
13, 438844, Note_on_c, 12, 65, 90
13, 438844, Note_on_c, 12, 72, 90
13, 438944, Note_on_c, 12, 72, 0
13, 438944, Note_on_c, 12, 65, 0
13, 439124, Note_on_c, 12, 65, 90
13, 439124, Note_on_c, 12, 72, 90
13, 439224, Note_on_c, 12, 72, 0
13, 439224, Note_on_c, 12, 65, 0
13, 439396, Note_on_c, 12, 65, 90
13, 439396, Note_on_c, 12, 72, 90
13, 439596, Note_on_c, 12, 72, 0
13, 439596, Note_on_c, 12, 65, 0
13, 440194, Note_on_c, 12, 65, 90
13, 440194, Note_on_c, 12, 72, 90
13, 440494, Note_on_c, 12, 72, 0
13, 440494, Note_on_c, 12, 65, 0
13, 441034, Note_on_c, 12, 60, 100
13, 441034, Note_on_c, 12, 53, 100
13, 441802, Note_on_c, 12, 53, 0
13, 441802, Note_on_c, 12, 60, 0
13, 442369, Control_c, 12, 121, 0
13, 442369, End_track
14, 0, Start_track
14, 0, MIDI_port, 0
14, 0, Title_t, "Trombones"
14, 0, Program_c, 13, 57
14, 0, Control_c, 13, 7, 127
14, 0, Control_c, 13, 10, 110
14, 13057, Control_c, 13, 91, 127
14, 13441, Control_c, 13, 11, 60
14, 13826, Note_on_c, 13, 48, 60
14, 14066, Note_on_c, 13, 48, 0
14, 14074, Note_on_c, 13, 53, 60
14, 14314, Note_on_c, 13, 53, 0
14, 14334, Note_on_c, 13, 51, 60
14, 14454, Note_on_c, 13, 51, 0
14, 14598, Note_on_c, 13, 56, 60
14, 14718, Note_on_c, 13, 56, 0
14, 14854, Note_on_c, 13, 44, 60
14, 15106, Note_on_c, 13, 44, 0
14, 15106, Note_on_c, 13, 47, 60
14, 15378, Note_on_c, 13, 47, 0
14, 15378, Note_on_c, 13, 48, 60
14, 15630, Note_on_c, 13, 48, 0
14, 15630, Note_on_c, 13, 53, 60
14, 15886, Note_on_c, 13, 53, 0
14, 15886, Note_on_c, 13, 55, 60
14, 16006, Note_on_c, 13, 55, 0
14, 16154, Note_on_c, 13, 60, 60
14, 16274, Note_on_c, 13, 60, 0
14, 16422, Note_on_c, 13, 48, 60
14, 16670, Note_on_c, 13, 48, 0
14, 16670, Note_on_c, 13, 53, 60
14, 16942, Note_on_c, 13, 53, 0
14, 16942, Note_on_c, 13, 58, 60
14, 17206, Note_on_c, 13, 58, 0
14, 17206, Note_on_c, 13, 60, 60
14, 17474, Note_on_c, 13, 60, 0
14, 17474, Note_on_c, 13, 61, 60
14, 17684, Note_on_c, 13, 61, 0
14, 17722, Note_on_c, 13, 55, 60
14, 17978, Note_on_c, 13, 55, 0
14, 17978, Note_on_c, 13, 57, 60
14, 18254, Note_on_c, 13, 57, 0
14, 18254, Note_on_c, 13, 58, 60
14, 18464, Note_on_c, 13, 58, 0
14, 18506, Note_on_c, 13, 52, 60
14, 18762, Note_on_c, 13, 52, 0
14, 18762, Note_on_c, 13, 53, 60
14, 18892, Note_on_c, 13, 53, 0
14, 18892, Note_on_c, 13, 51, 60
14, 19022, Note_on_c, 13, 51, 0
14, 19022, Note_on_c, 13, 49, 60
14, 19142, Note_on_c, 13, 49, 0
14, 19294, Note_on_c, 13, 48, 60
14, 19414, Note_on_c, 13, 48, 0
14, 34316, Note_on_c, 13, 60, 70
14, 34416, Note_on_c, 13, 60, 0
14, 34568, Note_on_c, 13, 53, 70
14, 34668, Note_on_c, 13, 53, 0
14, 34816, Note_on_c, 13, 52, 72
14, 34916, Note_on_c, 13, 52, 0
14, 35056, Note_on_c, 13, 51, 74
14, 35156, Note_on_c, 13, 51, 0
14, 35308, Note_on_c, 13, 49, 76
14, 35408, Note_on_c, 13, 49, 0
14, 35564, Note_on_c, 13, 48, 78
14, 35664, Note_on_c, 13, 48, 0
14, 35828, Note_on_c, 13, 46, 80
14, 35928, Note_on_c, 13, 46, 0
14, 36104, Note_on_c, 13, 48, 82
14, 36384, Note_on_c, 13, 48, 0
14, 37832, Note_on_c, 13, 53, 82
14, 37932, Note_on_c, 13, 53, 0
14, 38084, Note_on_c, 13, 53, 82
14, 38184, Note_on_c, 13, 53, 0
14, 38328, Note_on_c, 13, 53, 82
14, 38428, Note_on_c, 13, 53, 0
14, 38584, Note_on_c, 13, 51, 84
14, 38684, Note_on_c, 13, 51, 0
14, 38832, Note_on_c, 13, 49, 86
14, 38932, Note_on_c, 13, 49, 0
14, 39092, Note_on_c, 13, 48, 88
14, 39352, Note_on_c, 13, 48, 0
14, 41160, Note_on_c, 13, 48, 75
14, 41260, Note_on_c, 13, 48, 0
14, 41412, Note_on_c, 13, 53, 75
14, 41512, Note_on_c, 13, 53, 0
14, 41912, Note_on_c, 13, 48, 75
14, 42012, Note_on_c, 13, 48, 0
14, 42160, Note_on_c, 13, 53, 75
14, 42260, Note_on_c, 13, 53, 0
14, 42416, Note_on_c, 13, 53, 75
14, 42516, Note_on_c, 13, 53, 0
14, 42676, Note_on_c, 13, 55, 75
14, 42776, Note_on_c, 13, 55, 0
14, 42944, Note_on_c, 13, 56, 75
14, 43044, Note_on_c, 13, 56, 0
14, 43196, Note_on_c, 13, 58, 75
14, 43296, Note_on_c, 13, 58, 0
14, 43460, Note_on_c, 13, 60, 75
14, 43560, Note_on_c, 13, 60, 0
14, 43716, Note_on_c, 13, 53, 75
14, 43816, Note_on_c, 13, 53, 0
14, 44208, Note_on_c, 13, 48, 75
14, 44308, Note_on_c, 13, 48, 0
14, 44464, Note_on_c, 13, 53, 75
14, 44564, Note_on_c, 13, 53, 0
14, 44968, Note_on_c, 13, 48, 75
14, 45068, Note_on_c, 13, 48, 0
14, 45228, Note_on_c, 13, 53, 75
14, 45328, Note_on_c, 13, 53, 0
14, 45476, Note_on_c, 13, 56, 75
14, 45576, Note_on_c, 13, 56, 0
14, 45728, Note_on_c, 13, 55, 75
14, 45828, Note_on_c, 13, 55, 0
14, 45988, Note_on_c, 13, 56, 75
14, 46088, Note_on_c, 13, 56, 0
14, 46244, Note_on_c, 13, 58, 75
14, 46344, Note_on_c, 13, 58, 0
14, 46500, Note_on_c, 13, 60, 75
14, 46600, Note_on_c, 13, 60, 0
14, 46784, Note_on_c, 13, 53, 75
14, 46884, Note_on_c, 13, 53, 0
14, 47684, Note_on_c, 13, 53, 75
14, 47984, Note_on_c, 13, 53, 0
14, 48568, Note_on_c, 13, 53, 75
14, 49252, Note_on_c, 13, 53, 0
14, 250419, Control_c, 13, 11, 50
14, 250832, Note_on_c, 13, 48, 70
14, 250982, Note_on_c, 13, 48, 0
14, 251124, Note_on_c, 13, 48, 70
14, 251274, Note_on_c, 13, 48, 0
14, 251420, Note_on_c, 13, 48, 70
14, 251570, Note_on_c, 13, 48, 0
14, 251712, Note_on_c, 13, 48, 70
14, 251862, Note_on_c, 13, 48, 0
14, 251996, Note_on_c, 13, 48, 70
14, 252146, Note_on_c, 13, 48, 0
14, 294597, Control_c, 13, 91, 127
14, 294981, Control_c, 13, 11, 60
14, 295366, Note_on_c, 13, 48, 60
14, 295606, Note_on_c, 13, 48, 0
14, 295614, Note_on_c, 13, 53, 60
14, 295854, Note_on_c, 13, 53, 0
14, 295874, Note_on_c, 13, 51, 60
14, 295994, Note_on_c, 13, 51, 0
14, 296138, Note_on_c, 13, 56, 60
14, 296258, Note_on_c, 13, 56, 0
14, 296394, Note_on_c, 13, 44, 60
14, 296646, Note_on_c, 13, 44, 0
14, 296646, Note_on_c, 13, 47, 60
14, 296918, Note_on_c, 13, 47, 0
14, 296918, Note_on_c, 13, 48, 60
14, 297170, Note_on_c, 13, 48, 0
14, 297170, Note_on_c, 13, 53, 60
14, 297426, Note_on_c, 13, 53, 0
14, 297426, Note_on_c, 13, 55, 60
14, 297546, Note_on_c, 13, 55, 0
14, 297694, Note_on_c, 13, 60, 60
14, 297814, Note_on_c, 13, 60, 0
14, 297962, Note_on_c, 13, 48, 60
14, 298210, Note_on_c, 13, 48, 0
14, 298210, Note_on_c, 13, 53, 60
14, 298482, Note_on_c, 13, 53, 0
14, 298482, Note_on_c, 13, 58, 60
14, 298746, Note_on_c, 13, 58, 0
14, 298746, Note_on_c, 13, 60, 60
14, 299014, Note_on_c, 13, 60, 0
14, 299014, Note_on_c, 13, 61, 60
14, 299224, Note_on_c, 13, 61, 0
14, 299262, Note_on_c, 13, 55, 60
14, 299518, Note_on_c, 13, 55, 0
14, 299518, Note_on_c, 13, 57, 60
14, 299794, Note_on_c, 13, 57, 0
14, 299794, Note_on_c, 13, 58, 60
14, 300004, Note_on_c, 13, 58, 0
14, 300046, Note_on_c, 13, 52, 60
14, 300302, Note_on_c, 13, 52, 0
14, 300302, Note_on_c, 13, 53, 60
14, 300432, Note_on_c, 13, 53, 0
14, 300432, Note_on_c, 13, 51, 60
14, 300562, Note_on_c, 13, 51, 0
14, 300562, Note_on_c, 13, 49, 60
14, 300682, Note_on_c, 13, 49, 0
14, 300834, Note_on_c, 13, 48, 60
14, 300954, Note_on_c, 13, 48, 0
14, 331277, Note_on_c, 13, 60, 70
14, 331377, Note_on_c, 13, 60, 0
14, 331529, Note_on_c, 13, 53, 70
14, 331629, Note_on_c, 13, 53, 0
14, 331777, Note_on_c, 13, 52, 72
14, 331877, Note_on_c, 13, 52, 0
14, 332017, Note_on_c, 13, 51, 74
14, 332117, Note_on_c, 13, 51, 0
14, 332269, Note_on_c, 13, 49, 76
14, 332369, Note_on_c, 13, 49, 0
14, 332525, Note_on_c, 13, 48, 78
14, 332625, Note_on_c, 13, 48, 0
14, 332789, Note_on_c, 13, 46, 80
14, 332889, Note_on_c, 13, 46, 0
14, 333065, Note_on_c, 13, 48, 82
14, 333345, Note_on_c, 13, 48, 0
14, 334793, Note_on_c, 13, 53, 82
14, 334893, Note_on_c, 13, 53, 0
14, 335045, Note_on_c, 13, 53, 82
14, 335145, Note_on_c, 13, 53, 0
14, 335289, Note_on_c, 13, 53, 82
14, 335389, Note_on_c, 13, 53, 0
14, 335545, Note_on_c, 13, 51, 84
14, 335645, Note_on_c, 13, 51, 0
14, 335793, Note_on_c, 13, 49, 86
14, 335893, Note_on_c, 13, 49, 0
14, 336053, Note_on_c, 13, 48, 88
14, 336313, Note_on_c, 13, 48, 0
14, 338121, Note_on_c, 13, 48, 75
14, 338221, Note_on_c, 13, 48, 0
14, 338373, Note_on_c, 13, 53, 75
14, 338473, Note_on_c, 13, 53, 0
14, 338873, Note_on_c, 13, 48, 75
14, 338973, Note_on_c, 13, 48, 0
14, 339121, Note_on_c, 13, 53, 75
14, 339221, Note_on_c, 13, 53, 0
14, 339377, Note_on_c, 13, 53, 75
14, 339477, Note_on_c, 13, 53, 0
14, 339637, Note_on_c, 13, 55, 75
14, 339737, Note_on_c, 13, 55, 0
14, 339905, Note_on_c, 13, 56, 75
14, 340005, Note_on_c, 13, 56, 0
14, 340157, Note_on_c, 13, 58, 75
14, 340257, Note_on_c, 13, 58, 0
14, 340421, Note_on_c, 13, 60, 75
14, 340521, Note_on_c, 13, 60, 0
14, 340677, Note_on_c, 13, 53, 75
14, 340777, Note_on_c, 13, 53, 0
14, 341169, Note_on_c, 13, 48, 75
14, 341269, Note_on_c, 13, 48, 0
14, 341425, Note_on_c, 13, 53, 75
14, 341525, Note_on_c, 13, 53, 0
14, 341929, Note_on_c, 13, 48, 75
14, 342029, Note_on_c, 13, 48, 0
14, 342189, Note_on_c, 13, 53, 75
14, 342289, Note_on_c, 13, 53, 0
14, 342437, Note_on_c, 13, 56, 75
14, 342537, Note_on_c, 13, 56, 0
14, 342689, Note_on_c, 13, 55, 75
14, 342789, Note_on_c, 13, 55, 0
14, 342949, Note_on_c, 13, 56, 75
14, 343049, Note_on_c, 13, 56, 0
14, 343205, Note_on_c, 13, 55, 75
14, 343305, Note_on_c, 13, 55, 0
14, 343461, Note_on_c, 13, 60, 75
14, 343561, Note_on_c, 13, 60, 0
14, 343745, Note_on_c, 13, 53, 75
14, 344329, Note_on_c, 13, 53, 0
14, 382933, Note_on_c, 13, 48, 90
14, 383203, Note_on_c, 13, 48, 0
14, 383249, Note_on_c, 13, 53, 90
14, 383519, Note_on_c, 13, 53, 0
14, 420062, Note_on_c, 13, 48, 80
14, 420362, Note_on_c, 13, 48, 0
14, 420418, Note_on_c, 13, 48, 80
14, 420718, Note_on_c, 13, 48, 0
14, 420782, Note_on_c, 13, 48, 80
14, 421336, Note_on_c, 13, 48, 0
14, 421338, Note_on_c, 13, 48, 80
14, 421538, Note_on_c, 13, 48, 0
14, 421554, Note_on_c, 13, 48, 80
14, 422138, Note_on_c, 13, 48, 0
14, 438529, Control_c, 13, 11, 70
14, 438568, Note_on_c, 13, 65, 90
14, 438668, Note_on_c, 13, 65, 0
14, 438844, Note_on_c, 13, 65, 90
14, 438944, Note_on_c, 13, 65, 0
14, 439124, Note_on_c, 13, 65, 90
14, 439224, Note_on_c, 13, 65, 0
14, 439396, Note_on_c, 13, 65, 90
14, 439596, Note_on_c, 13, 65, 0
14, 440194, Note_on_c, 13, 65, 90
14, 440494, Note_on_c, 13, 65, 0
14, 441034, Note_on_c, 13, 65, 100
14, 441802, Note_on_c, 13, 65, 0
14, 442369, Control_c, 13, 121, 0
14, 442369, End_track
15, 0, Start_track
15, 0, MIDI_port, 0
15, 0, Title_t, "Timpani"
15, 0, Program_c, 14, 47
15, 0, Control_c, 14, 7, 127
15, 0, Control_c, 14, 10, 50
15, 12289, Control_c, 14, 11, 90
15, 12673, Control_c, 14, 91, 127
15, 13346, Note_on_c, 14, 53, 90
15, 13386, Note_on_c, 14, 53, 0
15, 13396, Note_on_c, 14, 53, 90
15, 13436, Note_on_c, 14, 53, 0
15, 13446, Note_on_c, 14, 53, 90
15, 13486, Note_on_c, 14, 53, 0
15, 13496, Note_on_c, 14, 53, 90
15, 13536, Note_on_c, 14, 53, 0
15, 13574, Note_on_c, 14, 53, 90
15, 13682, Note_on_c, 14, 53, 0
15, 13826, Note_on_c, 14, 48, 90
15, 13934, Note_on_c, 14, 48, 0
15, 14074, Note_on_c, 14, 53, 90
15, 14182, Note_on_c, 14, 53, 0
15, 16129, Control_c, 14, 11, 95
15, 16422, Note_on_c, 14, 48, 90
15, 16462, Note_on_c, 14, 48, 0
15, 16472, Note_on_c, 14, 48, 90
15, 16512, Note_on_c, 14, 48, 0
15, 16522, Note_on_c, 14, 48, 90
15, 16562, Note_on_c, 14, 48, 0
15, 16572, Note_on_c, 14, 48, 90
15, 16612, Note_on_c, 14, 48, 0
15, 16670, Note_on_c, 14, 53, 90
15, 16778, Note_on_c, 14, 53, 0
15, 18433, Control_c, 14, 11, 100
15, 18762, Note_on_c, 14, 53, 90
15, 18802, Note_on_c, 14, 53, 0
15, 18812, Note_on_c, 14, 53, 90
15, 18852, Note_on_c, 14, 53, 0
15, 18862, Note_on_c, 14, 53, 90
15, 18902, Note_on_c, 14, 53, 0
15, 18912, Note_on_c, 14, 53, 90
15, 18952, Note_on_c, 14, 53, 0
15, 19022, Note_on_c, 14, 53, 90
15, 19130, Note_on_c, 14, 53, 0
15, 19294, Note_on_c, 14, 48, 90
15, 19402, Note_on_c, 14, 48, 0
15, 34316, Note_on_c, 14, 48, 70
15, 34361, Note_on_c, 14, 48, 0
15, 34376, Note_on_c, 14, 48, 70
15, 34421, Note_on_c, 14, 48, 0
15, 34436, Note_on_c, 14, 48, 70
15, 34481, Note_on_c, 14, 48, 0
15, 34496, Note_on_c, 14, 48, 70
15, 34541, Note_on_c, 14, 48, 0
15, 34568, Note_on_c, 14, 53, 70
15, 34668, Note_on_c, 14, 53, 0
15, 34816, Note_on_c, 14, 48, 72
15, 34916, Note_on_c, 14, 48, 0
15, 35056, Note_on_c, 14, 53, 74
15, 35156, Note_on_c, 14, 53, 0
15, 35308, Note_on_c, 14, 53, 76
15, 35408, Note_on_c, 14, 53, 0
15, 35564, Note_on_c, 14, 48, 78
15, 35664, Note_on_c, 14, 48, 0
15, 35828, Note_on_c, 14, 53, 80
15, 35873, Note_on_c, 14, 53, 0
15, 35888, Note_on_c, 14, 53, 80
15, 35933, Note_on_c, 14, 53, 0
15, 35948, Note_on_c, 14, 53, 80
15, 35993, Note_on_c, 14, 53, 0
15, 36008, Note_on_c, 14, 53, 80
15, 36053, Note_on_c, 14, 53, 0
15, 36104, Note_on_c, 14, 48, 82
15, 36384, Note_on_c, 14, 48, 0
15, 37832, Note_on_c, 14, 53, 82
15, 37932, Note_on_c, 14, 53, 0
15, 38084, Note_on_c, 14, 53, 82
15, 38184, Note_on_c, 14, 53, 0
15, 38328, Note_on_c, 14, 53, 82
15, 38428, Note_on_c, 14, 53, 0
15, 38584, Note_on_c, 14, 48, 84
15, 38684, Note_on_c, 14, 48, 0
15, 38832, Note_on_c, 14, 53, 86
15, 38877, Note_on_c, 14, 53, 0
15, 38892, Note_on_c, 14, 53, 86
15, 38937, Note_on_c, 14, 53, 0
15, 38952, Note_on_c, 14, 53, 86
15, 38997, Note_on_c, 14, 53, 0
15, 39012, Note_on_c, 14, 53, 86
15, 39057, Note_on_c, 14, 53, 0
15, 39092, Note_on_c, 14, 48, 88
15, 39352, Note_on_c, 14, 48, 0
15, 41160, Note_on_c, 14, 48, 75
15, 41205, Note_on_c, 14, 48, 0
15, 41220, Note_on_c, 14, 48, 75
15, 41265, Note_on_c, 14, 48, 0
15, 41280, Note_on_c, 14, 48, 75
15, 41325, Note_on_c, 14, 48, 0
15, 41340, Note_on_c, 14, 48, 75
15, 41385, Note_on_c, 14, 48, 0
15, 41412, Note_on_c, 14, 53, 75
15, 41512, Note_on_c, 14, 53, 0
15, 41912, Note_on_c, 14, 48, 75
15, 41957, Note_on_c, 14, 48, 0
15, 41972, Note_on_c, 14, 48, 75
15, 42017, Note_on_c, 14, 48, 0
15, 42032, Note_on_c, 14, 48, 75
15, 42077, Note_on_c, 14, 48, 0
15, 42092, Note_on_c, 14, 48, 75
15, 42137, Note_on_c, 14, 48, 0
15, 42160, Note_on_c, 14, 53, 75
15, 42260, Note_on_c, 14, 53, 0
15, 42416, Note_on_c, 14, 53, 75
15, 42516, Note_on_c, 14, 53, 0
15, 42676, Note_on_c, 14, 48, 75
15, 42776, Note_on_c, 14, 48, 0
15, 42944, Note_on_c, 14, 53, 75
15, 43044, Note_on_c, 14, 53, 0
15, 43460, Note_on_c, 14, 48, 75
15, 43560, Note_on_c, 14, 48, 0
15, 43716, Note_on_c, 14, 53, 75
15, 43816, Note_on_c, 14, 53, 0
15, 44208, Note_on_c, 14, 48, 75
15, 44253, Note_on_c, 14, 48, 0
15, 44268, Note_on_c, 14, 48, 75
15, 44313, Note_on_c, 14, 48, 0
15, 44328, Note_on_c, 14, 48, 75
15, 44373, Note_on_c, 14, 48, 0
15, 44388, Note_on_c, 14, 48, 75
15, 44433, Note_on_c, 14, 48, 0
15, 44464, Note_on_c, 14, 53, 75
15, 44564, Note_on_c, 14, 53, 0
15, 44968, Note_on_c, 14, 48, 75
15, 45013, Note_on_c, 14, 48, 0
15, 45028, Note_on_c, 14, 48, 75
15, 45073, Note_on_c, 14, 48, 0
15, 45088, Note_on_c, 14, 48, 75
15, 45133, Note_on_c, 14, 48, 0
15, 45148, Note_on_c, 14, 48, 75
15, 45193, Note_on_c, 14, 48, 0
15, 45228, Note_on_c, 14, 53, 75
15, 45328, Note_on_c, 14, 53, 0
15, 46500, Note_on_c, 14, 48, 75
15, 46545, Note_on_c, 14, 48, 0
15, 46560, Note_on_c, 14, 48, 75
15, 46605, Note_on_c, 14, 48, 0
15, 46620, Note_on_c, 14, 48, 75
15, 46665, Note_on_c, 14, 48, 0
15, 46680, Note_on_c, 14, 48, 75
15, 46725, Note_on_c, 14, 48, 0
15, 46784, Note_on_c, 14, 53, 75
15, 46884, Note_on_c, 14, 53, 0
15, 47684, Note_on_c, 14, 53, 75
15, 47784, Note_on_c, 14, 53, 0
15, 48568, Note_on_c, 14, 53, 80
15, 48613, Note_on_c, 14, 53, 0
15, 48628, Note_on_c, 14, 53, 78
15, 48673, Note_on_c, 14, 53, 0
15, 48688, Note_on_c, 14, 53, 76
15, 48733, Note_on_c, 14, 53, 0
15, 48748, Note_on_c, 14, 53, 74
15, 48793, Note_on_c, 14, 53, 0
15, 48808, Note_on_c, 14, 53, 72
15, 48853, Note_on_c, 14, 53, 0
15, 48868, Note_on_c, 14, 53, 70
15, 48913, Note_on_c, 14, 53, 0
15, 48928, Note_on_c, 14, 53, 68
15, 48973, Note_on_c, 14, 53, 0
15, 48988, Note_on_c, 14, 53, 66
15, 49033, Note_on_c, 14, 53, 0
15, 49048, Note_on_c, 14, 53, 64
15, 49093, Note_on_c, 14, 53, 0
15, 49108, Note_on_c, 14, 53, 62
15, 49153, Note_on_c, 14, 53, 0
15, 49168, Note_on_c, 14, 53, 60
15, 49213, Note_on_c, 14, 53, 0
15, 49228, Note_on_c, 14, 53, 58
15, 49273, Note_on_c, 14, 53, 0
15, 49288, Note_on_c, 14, 53, 56
15, 49333, Note_on_c, 14, 53, 0
15, 49348, Note_on_c, 14, 53, 54
15, 49393, Note_on_c, 14, 53, 0
15, 49408, Note_on_c, 14, 53, 52
15, 49453, Note_on_c, 14, 53, 0
15, 49468, Note_on_c, 14, 53, 50
15, 49513, Note_on_c, 14, 53, 0
15, 250419, Control_c, 14, 11, 80
15, 250832, Note_on_c, 14, 48, 90
15, 250952, Note_on_c, 14, 48, 0
15, 251124, Note_on_c, 14, 48, 90
15, 251244, Note_on_c, 14, 48, 0
15, 251420, Note_on_c, 14, 48, 90
15, 251540, Note_on_c, 14, 48, 0
15, 251712, Note_on_c, 14, 48, 90
15, 251832, Note_on_c, 14, 48, 0
15, 251996, Note_on_c, 14, 48, 90
15, 252116, Note_on_c, 14, 48, 0
15, 293829, Control_c, 14, 11, 90
15, 294213, Control_c, 14, 91, 127
15, 294886, Note_on_c, 14, 53, 90
15, 294926, Note_on_c, 14, 53, 0
15, 294936, Note_on_c, 14, 53, 90
15, 294976, Note_on_c, 14, 53, 0
15, 294986, Note_on_c, 14, 53, 90
15, 295026, Note_on_c, 14, 53, 0
15, 295036, Note_on_c, 14, 53, 90
15, 295076, Note_on_c, 14, 53, 0
15, 295114, Note_on_c, 14, 53, 90
15, 295222, Note_on_c, 14, 53, 0
15, 295366, Note_on_c, 14, 48, 90
15, 295474, Note_on_c, 14, 48, 0
15, 295614, Note_on_c, 14, 53, 90
15, 295722, Note_on_c, 14, 53, 0
15, 297669, Control_c, 14, 11, 95
15, 297962, Note_on_c, 14, 48, 90
15, 298002, Note_on_c, 14, 48, 0
15, 298012, Note_on_c, 14, 48, 90
15, 298052, Note_on_c, 14, 48, 0
15, 298062, Note_on_c, 14, 48, 90
15, 298102, Note_on_c, 14, 48, 0
15, 298112, Note_on_c, 14, 48, 90
15, 298152, Note_on_c, 14, 48, 0
15, 298210, Note_on_c, 14, 53, 90
15, 298318, Note_on_c, 14, 53, 0
15, 299973, Control_c, 14, 11, 100
15, 300302, Note_on_c, 14, 53, 90
15, 300342, Note_on_c, 14, 53, 0
15, 300352, Note_on_c, 14, 53, 90
15, 300392, Note_on_c, 14, 53, 0
15, 300402, Note_on_c, 14, 53, 90
15, 300442, Note_on_c, 14, 53, 0
15, 300452, Note_on_c, 14, 53, 90
15, 300492, Note_on_c, 14, 53, 0
15, 300562, Note_on_c, 14, 53, 90
15, 300670, Note_on_c, 14, 53, 0
15, 300834, Note_on_c, 14, 48, 90
15, 300942, Note_on_c, 14, 48, 0
15, 331277, Note_on_c, 14, 48, 70
15, 331322, Note_on_c, 14, 48, 0
15, 331337, Note_on_c, 14, 48, 70
15, 331382, Note_on_c, 14, 48, 0
15, 331397, Note_on_c, 14, 48, 70
15, 331442, Note_on_c, 14, 48, 0
15, 331457, Note_on_c, 14, 48, 70
15, 331502, Note_on_c, 14, 48, 0
15, 331529, Note_on_c, 14, 53, 70
15, 331629, Note_on_c, 14, 53, 0
15, 331777, Note_on_c, 14, 48, 72
15, 331877, Note_on_c, 14, 48, 0
15, 332017, Note_on_c, 14, 53, 74
15, 332117, Note_on_c, 14, 53, 0
15, 332269, Note_on_c, 14, 53, 76
15, 332369, Note_on_c, 14, 53, 0
15, 332525, Note_on_c, 14, 48, 78
15, 332625, Note_on_c, 14, 48, 0
15, 332789, Note_on_c, 14, 53, 80
15, 332834, Note_on_c, 14, 53, 0
15, 332849, Note_on_c, 14, 53, 80
15, 332894, Note_on_c, 14, 53, 0
15, 332909, Note_on_c, 14, 53, 80
15, 332954, Note_on_c, 14, 53, 0
15, 332969, Note_on_c, 14, 53, 80
15, 333014, Note_on_c, 14, 53, 0
15, 333065, Note_on_c, 14, 48, 82
15, 333345, Note_on_c, 14, 48, 0
15, 334793, Note_on_c, 14, 53, 82
15, 334893, Note_on_c, 14, 53, 0
15, 335045, Note_on_c, 14, 53, 82
15, 335145, Note_on_c, 14, 53, 0
15, 335289, Note_on_c, 14, 53, 82
15, 335389, Note_on_c, 14, 53, 0
15, 335545, Note_on_c, 14, 48, 84
15, 335645, Note_on_c, 14, 48, 0
15, 335793, Note_on_c, 14, 53, 86
15, 335838, Note_on_c, 14, 53, 0
15, 335853, Note_on_c, 14, 53, 86
15, 335898, Note_on_c, 14, 53, 0
15, 335913, Note_on_c, 14, 53, 86
15, 335958, Note_on_c, 14, 53, 0
15, 335973, Note_on_c, 14, 53, 86
15, 336018, Note_on_c, 14, 53, 0
15, 336053, Note_on_c, 14, 48, 88
15, 336313, Note_on_c, 14, 48, 0
15, 338121, Note_on_c, 14, 48, 75
15, 338166, Note_on_c, 14, 48, 0
15, 338181, Note_on_c, 14, 48, 75
15, 338226, Note_on_c, 14, 48, 0
15, 338241, Note_on_c, 14, 48, 75
15, 338286, Note_on_c, 14, 48, 0
15, 338301, Note_on_c, 14, 48, 75
15, 338346, Note_on_c, 14, 48, 0
15, 338373, Note_on_c, 14, 53, 75
15, 338473, Note_on_c, 14, 53, 0
15, 338873, Note_on_c, 14, 48, 75
15, 338918, Note_on_c, 14, 48, 0
15, 338933, Note_on_c, 14, 48, 75
15, 338978, Note_on_c, 14, 48, 0
15, 338993, Note_on_c, 14, 48, 75
15, 339038, Note_on_c, 14, 48, 0
15, 339053, Note_on_c, 14, 48, 75
15, 339098, Note_on_c, 14, 48, 0
15, 339121, Note_on_c, 14, 53, 75
15, 339221, Note_on_c, 14, 53, 0
15, 339377, Note_on_c, 14, 53, 75
15, 339477, Note_on_c, 14, 53, 0
15, 339637, Note_on_c, 14, 48, 75
15, 339737, Note_on_c, 14, 48, 0
15, 339905, Note_on_c, 14, 53, 75
15, 340005, Note_on_c, 14, 53, 0
15, 340421, Note_on_c, 14, 48, 75
15, 340521, Note_on_c, 14, 48, 0
15, 340677, Note_on_c, 14, 53, 75
15, 340777, Note_on_c, 14, 53, 0
15, 341169, Note_on_c, 14, 48, 75
15, 341214, Note_on_c, 14, 48, 0
15, 341229, Note_on_c, 14, 48, 75
15, 341274, Note_on_c, 14, 48, 0
15, 341289, Note_on_c, 14, 48, 75
15, 341334, Note_on_c, 14, 48, 0
15, 341349, Note_on_c, 14, 48, 75
15, 341394, Note_on_c, 14, 48, 0
15, 341425, Note_on_c, 14, 53, 75
15, 341525, Note_on_c, 14, 53, 0
15, 341929, Note_on_c, 14, 48, 75
15, 341974, Note_on_c, 14, 48, 0
15, 341989, Note_on_c, 14, 48, 75
15, 342034, Note_on_c, 14, 48, 0
15, 342049, Note_on_c, 14, 48, 75
15, 342094, Note_on_c, 14, 48, 0
15, 342109, Note_on_c, 14, 48, 75
15, 342154, Note_on_c, 14, 48, 0
15, 342189, Note_on_c, 14, 53, 75
15, 342289, Note_on_c, 14, 53, 0
15, 343461, Note_on_c, 14, 48, 75
15, 343506, Note_on_c, 14, 48, 0
15, 343521, Note_on_c, 14, 48, 78
15, 343566, Note_on_c, 14, 48, 0
15, 343581, Note_on_c, 14, 48, 83
15, 343626, Note_on_c, 14, 48, 0
15, 343641, Note_on_c, 14, 48, 86
15, 343686, Note_on_c, 14, 48, 0
15, 343745, Note_on_c, 14, 53, 110
15, 343845, Note_on_c, 14, 53, 0
15, 382933, Note_on_c, 14, 48, 90
15, 382983, Note_on_c, 14, 48, 0
15, 383012, Note_on_c, 14, 48, 90
15, 383062, Note_on_c, 14, 48, 0
15, 383091, Note_on_c, 14, 48, 90
15, 383141, Note_on_c, 14, 48, 0
15, 383170, Note_on_c, 14, 48, 90
15, 383220, Note_on_c, 14, 48, 0
15, 383249, Note_on_c, 14, 53, 100
15, 383319, Note_on_c, 14, 53, 0
15, 420062, Note_on_c, 14, 48, 90
15, 420112, Note_on_c, 14, 48, 0
15, 420418, Note_on_c, 14, 48, 90
15, 420468, Note_on_c, 14, 48, 0
15, 420782, Note_on_c, 14, 48, 90
15, 420832, Note_on_c, 14, 48, 0
15, 421338, Note_on_c, 14, 48, 90
15, 421388, Note_on_c, 14, 48, 0
15, 421554, Note_on_c, 14, 48, 90
15, 421604, Note_on_c, 14, 48, 0
15, 438529, Control_c, 14, 11, 100
15, 438568, Note_on_c, 14, 53, 90
15, 438618, Note_on_c, 14, 53, 0
15, 438844, Note_on_c, 14, 53, 90
15, 438894, Note_on_c, 14, 53, 0
15, 439124, Note_on_c, 14, 53, 90
15, 439174, Note_on_c, 14, 53, 0
15, 439396, Note_on_c, 14, 53, 90
15, 439446, Note_on_c, 14, 53, 0
15, 440194, Note_on_c, 14, 53, 90
15, 440244, Note_on_c, 14, 53, 0
15, 441032, Note_on_c, 14, 53, 90
15, 441077, Note_on_c, 14, 53, 0
15, 441102, Note_on_c, 14, 53, 90
15, 441147, Note_on_c, 14, 53, 0
15, 441172, Note_on_c, 14, 53, 90
15, 441217, Note_on_c, 14, 53, 0
15, 441242, Note_on_c, 14, 53, 90
15, 441287, Note_on_c, 14, 53, 0
15, 441312, Note_on_c, 14, 53, 90
15, 441357, Note_on_c, 14, 53, 0
15, 441382, Note_on_c, 14, 53, 90
15, 441427, Note_on_c, 14, 53, 0
15, 441452, Note_on_c, 14, 53, 90
15, 441497, Note_on_c, 14, 53, 0
15, 441522, Note_on_c, 14, 53, 90
15, 441567, Note_on_c, 14, 53, 0
15, 441592, Note_on_c, 14, 53, 90
15, 441637, Note_on_c, 14, 53, 0
15, 441662, Note_on_c, 14, 53, 90
15, 441707, Note_on_c, 14, 53, 0
15, 441732, Note_on_c, 14, 53, 90
15, 441777, Note_on_c, 14, 53, 0
15, 441802, Note_on_c, 14, 53, 90
15, 441847, Note_on_c, 14, 53, 0
15, 442369, Control_c, 14, 121, 0
15, 442369, End_track
0, 0, End_of_file