0, 0, Header, 1, 11, 120
1, 0, Start_track
1, 0, Title_t, "untitled"
1, 0, Time_signature, 2, 2, 24, 8
1, 0, Key_signature, -6, "major"
1, 0, Tempo, 545455
1, 0, End_track
2, 0, Start_track
2, 0, MIDI_port, 0
2, 0, Title_t, "Piano right hand"
2, 0, Program_c, 0, 0
2, 0, Control_c, 0, 91, 127
2, 0, Control_c, 0, 64, 0
2, 0, Note_on_c, 0, 90, 99
2, 20, Note_on_c, 0, 90, 0
2, 20, Note_on_c, 0, 94, 86
2, 40, Note_on_c, 0, 94, 0
2, 40, Note_on_c, 0, 85, 83
2, 60, Note_on_c, 0, 85, 0
2, 60, Note_on_c, 0, 90, 81
2, 80, Note_on_c, 0, 90, 0
2, 80, Note_on_c, 0, 87, 79
2, 100, Note_on_c, 0, 87, 0
2, 100, Note_on_c, 0, 90, 78
2, 120, Note_on_c, 0, 90, 0
2, 120, Note_on_c, 0, 85, 76
2, 140, Note_on_c, 0, 85, 0
2, 140, Note_on_c, 0, 90, 75
2, 160, Note_on_c, 0, 90, 0
2, 160, Note_on_c, 0, 82, 73
2, 180, Note_on_c, 0, 82, 0
2, 180, Note_on_c, 0, 85, 72
2, 200, Note_on_c, 0, 85, 0
2, 200, Note_on_c, 0, 78, 70
2, 220, Note_on_c, 0, 78, 0
2, 220, Note_on_c, 0, 82, 69
2, 240, Note_on_c, 0, 82, 0
2, 240, Note_on_c, 0, 78, 67
2, 260, Note_on_c, 0, 78, 0
2, 260, Note_on_c, 0, 82, 66
2, 280, Note_on_c, 0, 82, 0
2, 280, Note_on_c, 0, 73, 65
2, 300, Note_on_c, 0, 73, 0
2, 300, Note_on_c, 0, 78, 64
2, 320, Note_on_c, 0, 78, 0
2, 320, Note_on_c, 0, 75, 62
2, 340, Note_on_c, 0, 75, 0
2, 340, Note_on_c, 0, 78, 61
2, 360, Note_on_c, 0, 78, 0
2, 360, Note_on_c, 0, 73, 61
2, 380, Note_on_c, 0, 73, 0
2, 380, Note_on_c, 0, 78, 60
2, 400, Note_on_c, 0, 78, 0
2, 400, Note_on_c, 0, 70, 59
2, 420, Note_on_c, 0, 70, 0
2, 420, Note_on_c, 0, 73, 59
2, 440, Note_on_c, 0, 73, 0
2, 440, Note_on_c, 0, 66, 59
2, 460, Note_on_c, 0, 66, 0
2, 460, Note_on_c, 0, 70, 59
2, 480, Note_on_c, 0, 70, 0
2, 480, Note_on_c, 0, 61, 59
2, 500, Note_on_c, 0, 61, 0
2, 500, Note_on_c, 0, 73, 59
2, 520, Note_on_c, 0, 73, 0
2, 520, Note_on_c, 0, 68, 59
2, 540, Note_on_c, 0, 68, 0
2, 540, Note_on_c, 0, 73, 59
2, 560, Note_on_c, 0, 73, 0
2, 560, Note_on_c, 0, 68, 59
2, 580, Note_on_c, 0, 68, 0
2, 580, Note_on_c, 0, 80, 60
2, 600, Note_on_c, 0, 80, 0
2, 600, Note_on_c, 0, 68, 60
2, 620, Note_on_c, 0, 68, 0
2, 620, Note_on_c, 0, 80, 61
2, 640, Note_on_c, 0, 80, 0
2, 640, Note_on_c, 0, 75, 61
2, 660, Note_on_c, 0, 75, 0
2, 660, Note_on_c, 0, 80, 62
2, 680, Note_on_c, 0, 80, 0
2, 680, Note_on_c, 0, 75, 63
2, 700, Note_on_c, 0, 75, 0
2, 700, Note_on_c, 0, 87, 64
2, 720, Note_on_c, 0, 87, 0
2, 720, Note_on_c, 0, 75, 66
2, 740, Note_on_c, 0, 75, 0
2, 740, Note_on_c, 0, 87, 67
2, 760, Note_on_c, 0, 87, 0
2, 760, Note_on_c, 0, 80, 68
2, 780, Note_on_c, 0, 80, 0
2, 780, Note_on_c, 0, 87, 69
2, 800, Note_on_c, 0, 87, 0
2, 800, Note_on_c, 0, 80, 70
2, 820, Note_on_c, 0, 80, 0
2, 820, Note_on_c, 0, 92, 71
2, 840, Note_on_c, 0, 92, 0
2, 840, Note_on_c, 0, 80, 72
2, 860, Note_on_c, 0, 80, 0
2, 860, Note_on_c, 0, 92, 73
2, 880, Note_on_c, 0, 92, 0
2, 880, Note_on_c, 0, 85, 74
2, 900, Note_on_c, 0, 85, 0
2, 900, Note_on_c, 0, 92, 75
2, 920, Note_on_c, 0, 92, 0
2, 920, Note_on_c, 0, 85, 76
2, 940, Note_on_c, 0, 85, 0
2, 940, Note_on_c, 0, 97, 77
2, 960, Note_on_c, 0, 97, 0
2, 960, Note_on_c, 0, 90, 78
2, 980, Note_on_c, 0, 90, 0
2, 980, Note_on_c, 0, 94, 79
2, 1000, Note_on_c, 0, 94, 0
2, 1000, Note_on_c, 0, 85, 79
2, 1020, Note_on_c, 0, 85, 0
2, 1020, Note_on_c, 0, 90, 79
2, 1040, Note_on_c, 0, 90, 0
2, 1040, Note_on_c, 0, 87, 79
2, 1060, Note_on_c, 0, 87, 0
2, 1060, Note_on_c, 0, 90, 79
2, 1080, Note_on_c, 0, 90, 0
2, 1080, Note_on_c, 0, 85, 79
2, 1100, Note_on_c, 0, 85, 0
2, 1100, Note_on_c, 0, 90, 79
2, 1120, Note_on_c, 0, 90, 0
2, 1120, Note_on_c, 0, 82, 79
2, 1140, Note_on_c, 0, 82, 0
2, 1140, Note_on_c, 0, 85, 79
2, 1160, Note_on_c, 0, 85, 0
2, 1160, Note_on_c, 0, 78, 79
2, 1180, Note_on_c, 0, 78, 0
2, 1180, Note_on_c, 0, 82, 79
2, 1200, Note_on_c, 0, 82, 0
2, 1200, Note_on_c, 0, 78, 79
2, 1220, Note_on_c, 0, 78, 0
2, 1220, Note_on_c, 0, 82, 78
2, 1240, Note_on_c, 0, 82, 0
2, 1240, Note_on_c, 0, 73, 78
2, 1260, Note_on_c, 0, 73, 0
2, 1260, Note_on_c, 0, 78, 78
2, 1280, Note_on_c, 0, 78, 0
2, 1280, Note_on_c, 0, 75, 78
2, 1300, Note_on_c, 0, 75, 0
2, 1300, Note_on_c, 0, 78, 78
2, 1320, Note_on_c, 0, 78, 0
2, 1320, Note_on_c, 0, 73, 78
2, 1340, Note_on_c, 0, 73, 0
2, 1340, Note_on_c, 0, 78, 78
2, 1360, Note_on_c, 0, 78, 0
2, 1360, Note_on_c, 0, 70, 78
2, 1380, Note_on_c, 0, 70, 0
2, 1380, Note_on_c, 0, 73, 78
2, 1400, Note_on_c, 0, 73, 0
2, 1400, Note_on_c, 0, 66, 78
2, 1420, Note_on_c, 0, 66, 0
2, 1420, Note_on_c, 0, 70, 78
2, 1440, Note_on_c, 0, 70, 0
2, 1440, Note_on_c, 0, 63, 78
2, 1460, Note_on_c, 0, 63, 0
2, 1460, Note_on_c, 0, 75, 78
2, 1480, Note_on_c, 0, 75, 0
2, 1480, Note_on_c, 0, 68, 78
2, 1500, Note_on_c, 0, 68, 0
2, 1500, Note_on_c, 0, 75, 78
2, 1520, Note_on_c, 0, 75, 0
2, 1520, Note_on_c, 0, 68, 78
2, 1540, Note_on_c, 0, 68, 0
2, 1540, Note_on_c, 0, 80, 78
2, 1560, Note_on_c, 0, 80, 0
2, 1560, Note_on_c, 0, 75, 78
2, 1580, Note_on_c, 0, 75, 0
2, 1580, Note_on_c, 0, 80, 78
2, 1600, Note_on_c, 0, 80, 0
2, 1600, Note_on_c, 0, 75, 78
2, 1620, Note_on_c, 0, 75, 0
2, 1620, Note_on_c, 0, 75, 78
2, 1640, Note_on_c, 0, 75, 0
2, 1640, Note_on_c, 0, 80, 78
2, 1660, Note_on_c, 0, 80, 0
2, 1660, Note_on_c, 0, 92, 78
2, 1680, Note_on_c, 0, 92, 0
2, 1680, Note_on_c, 0, 82, 78
2, 1700, Note_on_c, 0, 82, 0
2, 1700, Note_on_c, 0, 94, 78
2, 1720, Note_on_c, 0, 94, 0
2, 1720, Note_on_c, 0, 82, 79
2, 1740, Note_on_c, 0, 82, 0
2, 1740, Note_on_c, 0, 94, 78
2, 1760, Note_on_c, 0, 94, 0
2, 1760, Note_on_c, 0, 82, 76
2, 1780, Note_on_c, 0, 82, 0
2, 1780, Note_on_c, 0, 94, 74
2, 1800, Note_on_c, 0, 94, 0
2, 1800, Note_on_c, 0, 82, 72
2, 1820, Note_on_c, 0, 82, 0
2, 1820, Note_on_c, 0, 94, 68
2, 1840, Note_on_c, 0, 94, 0
2, 1840, Note_on_c, 0, 82, 65
2, 1860, Note_on_c, 0, 82, 0
2, 1860, Note_on_c, 0, 94, 61
2, 1880, Note_on_c, 0, 94, 0
2, 1880, Note_on_c, 0, 82, 59
2, 1900, Note_on_c, 0, 82, 0
2, 1900, Note_on_c, 0, 94, 55
2, 1920, Note_on_c, 0, 94, 0
2, 1920, Control_c, 0, 91, 127
2, 1920, Control_c, 0, 64, 0
2, 1920, Note_on_c, 0, 90, 54
2, 1940, Note_on_c, 0, 90, 0
2, 1940, Note_on_c, 0, 94, 52
2, 1960, Note_on_c, 0, 94, 0
2, 1960, Note_on_c, 0, 85, 79
2, 1980, Note_on_c, 0, 85, 0
2, 1980, Note_on_c, 0, 90, 79
2, 2000, Note_on_c, 0, 90, 0
2, 2000, Note_on_c, 0, 87, 79
2, 2020, Note_on_c, 0, 87, 0
2, 2020, Note_on_c, 0, 90, 79
2, 2040, Note_on_c, 0, 90, 0
2, 2040, Note_on_c, 0, 85, 78
2, 2060, Note_on_c, 0, 85, 0
2, 2060, Note_on_c, 0, 90, 78
2, 2080, Note_on_c, 0, 90, 0
2, 2080, Note_on_c, 0, 82, 78
2, 2100, Note_on_c, 0, 82, 0
2, 2100, Note_on_c, 0, 85, 78
2, 2120, Note_on_c, 0, 85, 0
2, 2120, Note_on_c, 0, 78, 77
2, 2140, Note_on_c, 0, 78, 0
2, 2140, Note_on_c, 0, 82, 77
2, 2160, Note_on_c, 0, 82, 0
2, 2160, Note_on_c, 0, 78, 76
2, 2180, Note_on_c, 0, 78, 0
2, 2180, Note_on_c, 0, 82, 76
2, 2200, Note_on_c, 0, 82, 0
2, 2200, Note_on_c, 0, 73, 76
2, 2220, Note_on_c, 0, 73, 0
2, 2220, Note_on_c, 0, 78, 76
2, 2240, Note_on_c, 0, 78, 0
2, 2240, Note_on_c, 0, 75, 76
2, 2260, Note_on_c, 0, 75, 0
2, 2260, Note_on_c, 0, 78, 76
2, 2280, Note_on_c, 0, 78, 0
2, 2280, Note_on_c, 0, 73, 76
2, 2300, Note_on_c, 0, 73, 0
2, 2300, Note_on_c, 0, 78, 76
2, 2320, Note_on_c, 0, 78, 0
2, 2320, Note_on_c, 0, 70, 76
2, 2340, Note_on_c, 0, 70, 0
2, 2340, Note_on_c, 0, 73, 76
2, 2360, Note_on_c, 0, 73, 0
2, 2360, Note_on_c, 0, 66, 76
2, 2380, Note_on_c, 0, 66, 0
2, 2380, Note_on_c, 0, 70, 76
2, 2400, Note_on_c, 0, 70, 0
2, 2400, Note_on_c, 0, 61, 76
2, 2420, Note_on_c, 0, 61, 0
2, 2420, Note_on_c, 0, 73, 76
2, 2440, Note_on_c, 0, 73, 0
2, 2440, Note_on_c, 0, 68, 76
2, 2460, Note_on_c, 0, 68, 0
2, 2460, Note_on_c, 0, 73, 76
2, 2480, Note_on_c, 0, 73, 0
2, 2480, Note_on_c, 0, 68, 76
2, 2500, Note_on_c, 0, 68, 0
2, 2500, Note_on_c, 0, 80, 76
2, 2520, Note_on_c, 0, 80, 0
2, 2520, Note_on_c, 0, 68, 76
2, 2540, Note_on_c, 0, 68, 0
2, 2540, Note_on_c, 0, 80, 76
2, 2560, Note_on_c, 0, 80, 0
2, 2560, Note_on_c, 0, 75, 76
2, 2580, Note_on_c, 0, 75, 0
2, 2580, Note_on_c, 0, 80, 77
2, 2600, Note_on_c, 0, 80, 0
2, 2600, Note_on_c, 0, 75, 78
2, 2620, Note_on_c, 0, 75, 0
2, 2620, Note_on_c, 0, 87, 79
2, 2640, Note_on_c, 0, 87, 0
2, 2640, Note_on_c, 0, 75, 79
2, 2660, Note_on_c, 0, 75, 0
2, 2660, Note_on_c, 0, 87, 81
2, 2680, Note_on_c, 0, 87, 0
2, 2680, Note_on_c, 0, 80, 83
2, 2700, Note_on_c, 0, 80, 0
2, 2700, Note_on_c, 0, 87, 85
2, 2720, Note_on_c, 0, 87, 0
2, 2720, Note_on_c, 0, 80, 87
2, 2740, Note_on_c, 0, 80, 0
2, 2740, Note_on_c, 0, 92, 89
2, 2760, Note_on_c, 0, 92, 0
2, 2760, Note_on_c, 0, 80, 92
2, 2780, Note_on_c, 0, 80, 0
2, 2780, Note_on_c, 0, 92, 94
2, 2800, Note_on_c, 0, 92, 0
2, 2800, Note_on_c, 0, 85, 96
2, 2820, Note_on_c, 0, 85, 0
2, 2820, Note_on_c, 0, 92, 97
2, 2840, Note_on_c, 0, 92, 0
2, 2840, Note_on_c, 0, 85, 99
2, 2860, Note_on_c, 0, 85, 0
2, 2860, Note_on_c, 0, 97, 99
2, 2880, Note_on_c, 0, 97, 0
2, 2880, Note_on_c, 0, 90, 99
2, 2900, Note_on_c, 0, 90, 0
2, 2900, Note_on_c, 0, 94, 99
2, 2920, Note_on_c, 0, 94, 0
2, 2920, Note_on_c, 0, 85, 97
2, 2940, Note_on_c, 0, 85, 0
2, 2940, Note_on_c, 0, 90, 96
2, 2960, Note_on_c, 0, 90, 0
2, 2960, Note_on_c, 0, 87, 94
2, 2980, Note_on_c, 0, 87, 0
2, 2980, Note_on_c, 0, 90, 92
2, 3000, Note_on_c, 0, 90, 0
2, 3000, Note_on_c, 0, 85, 90
2, 3020, Note_on_c, 0, 85, 0
2, 3020, Note_on_c, 0, 90, 89
2, 3040, Note_on_c, 0, 90, 0
2, 3040, Note_on_c, 0, 82, 87
2, 3060, Note_on_c, 0, 82, 0
2, 3060, Note_on_c, 0, 85, 85
2, 3080, Note_on_c, 0, 85, 0
2, 3080, Note_on_c, 0, 78, 83
2, 3100, Note_on_c, 0, 78, 0
2, 3100, Note_on_c, 0, 82, 81
2, 3120, Note_on_c, 0, 82, 0
2, 3120, Note_on_c, 0, 78, 79
2, 3140, Note_on_c, 0, 78, 0
2, 3140, Note_on_c, 0, 82, 77
2, 3160, Note_on_c, 0, 82, 0
2, 3160, Note_on_c, 0, 73, 76
2, 3180, Note_on_c, 0, 73, 0
2, 3180, Note_on_c, 0, 78, 75
2, 3200, Note_on_c, 0, 78, 0
2, 3200, Note_on_c, 0, 75, 74
2, 3220, Note_on_c, 0, 75, 0
2, 3220, Note_on_c, 0, 78, 74
2, 3240, Note_on_c, 0, 78, 0
2, 3240, Note_on_c, 0, 73, 73
2, 3260, Note_on_c, 0, 73, 0
2, 3260, Note_on_c, 0, 78, 73
2, 3280, Note_on_c, 0, 78, 0
2, 3280, Note_on_c, 0, 70, 72
2, 3300, Note_on_c, 0, 70, 0
2, 3300, Note_on_c, 0, 73, 72
2, 3320, Note_on_c, 0, 73, 0
2, 3320, Note_on_c, 0, 66, 72
2, 3340, Note_on_c, 0, 66, 0
2, 3340, Note_on_c, 0, 70, 72
2, 3360, Note_on_c, 0, 70, 0
2, 3360, Note_on_c, 0, 63, 72
2, 3380, Note_on_c, 0, 63, 0
2, 3380, Note_on_c, 0, 75, 72
2, 3400, Note_on_c, 0, 75, 0
2, 3400, Note_on_c, 0, 68, 72
2, 3420, Note_on_c, 0, 68, 0
2, 3420, Note_on_c, 0, 75, 72
2, 3440, Note_on_c, 0, 75, 0
2, 3440, Note_on_c, 0, 68, 72
2, 3460, Note_on_c, 0, 68, 0
2, 3460, Note_on_c, 0, 80, 72
2, 3480, Note_on_c, 0, 80, 0
2, 3480, Note_on_c, 0, 75, 72
2, 3500, Note_on_c, 0, 75, 0
2, 3500, Note_on_c, 0, 80, 73
2, 3520, Note_on_c, 0, 80, 0
2, 3520, Note_on_c, 0, 75, 74
2, 3540, Note_on_c, 0, 75, 0
2, 3540, Note_on_c, 0, 87, 76
2, 3560, Note_on_c, 0, 87, 0
2, 3560, Note_on_c, 0, 80, 78
2, 3580, Note_on_c, 0, 80, 0
2, 3580, Note_on_c, 0, 92, 80
2, 3600, Note_on_c, 0, 92, 0
2, 3600, Note_on_c, 0, 75, 82
2, 3620, Note_on_c, 0, 75, 0
2, 3620, Note_on_c, 0, 87, 83
2, 3640, Note_on_c, 0, 87, 0
2, 3640, Note_on_c, 0, 80, 85
2, 3660, Note_on_c, 0, 80, 0
2, 3660, Note_on_c, 0, 87, 85
2, 3680, Note_on_c, 0, 87, 0
2, 3680, Note_on_c, 0, 73, 85
2, 3700, Note_on_c, 0, 73, 0
2, 3700, Note_on_c, 0, 85, 84
2, 3720, Note_on_c, 0, 85, 0
2, 3720, Note_on_c, 0, 80, 82
2, 3740, Note_on_c, 0, 80, 0
2, 3740, Note_on_c, 0, 85, 81
2, 3760, Note_on_c, 0, 85, 0
2, 3760, Note_on_c, 0, 80, 79
2, 3780, Note_on_c, 0, 80, 0
2, 3780, Note_on_c, 0, 92, 76
2, 3800, Note_on_c, 0, 92, 0
2, 3800, Note_on_c, 0, 85, 74
2, 3820, Note_on_c, 0, 85, 0
2, 3820, Note_on_c, 0, 97, 73
2, 3840, Note_on_c, 0, 97, 0
2, 3840, Note_on_c, 0, 92, 72
2, 3860, Note_on_c, 0, 92, 0
2, 3860, Note_on_c, 0, 94, 70
2, 3880, Note_on_c, 0, 94, 0
2, 3880, Note_on_c, 0, 92, 69
2, 3900, Note_on_c, 0, 92, 0
2, 3900, Note_on_c, 0, 87, 68
2, 3920, Note_on_c, 0, 87, 0
2, 3920, Note_on_c, 0, 99, 66
2, 3940, Note_on_c, 0, 99, 0
2, 3940, Note_on_c, 0, 87, 64
2, 3960, Note_on_c, 0, 87, 0
2, 3960, Note_on_c, 0, 85, 64
2, 3980, Note_on_c, 0, 85, 0
2, 3980, Note_on_c, 0, 87, 67
2, 4000, Note_on_c, 0, 87, 0
2, 4000, Note_on_c, 0, 85, 67
2, 4020, Note_on_c, 0, 85, 0
2, 4020, Note_on_c, 0, 80, 67
2, 4040, Note_on_c, 0, 80, 0
2, 4040, Note_on_c, 0, 92, 67
2, 4060, Note_on_c, 0, 92, 0
2, 4060, Note_on_c, 0, 80, 69
2, 4080, Note_on_c, 0, 80, 0
2, 4080, Note_on_c, 0, 80, 69
2, 4100, Note_on_c, 0, 80, 0
2, 4100, Note_on_c, 0, 82, 69
2, 4120, Note_on_c, 0, 82, 0
2, 4120, Note_on_c, 0, 80, 69
2, 4140, Note_on_c, 0, 80, 0
2, 4140, Note_on_c, 0, 75, 70
2, 4160, Note_on_c, 0, 75, 0
2, 4160, Note_on_c, 0, 87, 71
2, 4180, Note_on_c, 0, 87, 0
2, 4180, Note_on_c, 0, 75, 71
2, 4200, Note_on_c, 0, 75, 0
2, 4200, Note_on_c, 0, 73, 71
2, 4220, Note_on_c, 0, 73, 0
2, 4220, Note_on_c, 0, 75, 72
2, 4240, Note_on_c, 0, 75, 0
2, 4240, Note_on_c, 0, 73, 72
2, 4260, Note_on_c, 0, 73, 0
2, 4260, Note_on_c, 0, 68, 73
2, 4340, Note_on_c, 0, 68, 0
2, 4340, Note_on_c, 0, 75, 75
2, 4360, Note_on_c, 0, 75, 0
2, 4360, Note_on_c, 0, 80, 76
2, 4380, Note_on_c, 0, 80, 0
2, 4380, Note_on_c, 0, 82, 77
2, 4400, Note_on_c, 0, 82, 0
2, 4400, Note_on_c, 0, 80, 77
2, 4420, Note_on_c, 0, 80, 0
2, 4420, Note_on_c, 0, 75, 77
2, 4440, Note_on_c, 0, 75, 0
2, 4440, Note_on_c, 0, 73, 78
2, 4460, Note_on_c, 0, 73, 0
2, 4460, Note_on_c, 0, 80, 78
2, 4480, Note_on_c, 0, 80, 0
2, 4480, Note_on_c, 0, 85, 78
2, 4500, Note_on_c, 0, 85, 0
2, 4500, Note_on_c, 0, 87, 79
2, 4520, Note_on_c, 0, 87, 0
2, 4520, Note_on_c, 0, 85, 79
2, 4540, Note_on_c, 0, 85, 0
2, 4540, Note_on_c, 0, 82, 79
2, 4560, Note_on_c, 0, 82, 0
2, 4560, Note_on_c, 0, 80, 78
2, 4580, Note_on_c, 0, 80, 0
2, 4580, Note_on_c, 0, 87, 77
2, 4600, Note_on_c, 0, 87, 0
2, 4600, Note_on_c, 0, 92, 77
2, 4620, Note_on_c, 0, 92, 0
2, 4620, Note_on_c, 0, 94, 77
2, 4640, Note_on_c, 0, 94, 0
2, 4640, Note_on_c, 0, 92, 77
2, 4660, Note_on_c, 0, 92, 0
2, 4660, Note_on_c, 0, 87, 77
2, 4680, Note_on_c, 0, 87, 0
2, 4680, Note_on_c, 0, 85, 77
2, 4700, Note_on_c, 0, 85, 0
2, 4700, Note_on_c, 0, 92, 77
2, 4720, Note_on_c, 0, 92, 0
2, 4720, Note_on_c, 0, 97, 77
2, 4740, Note_on_c, 0, 97, 0
2, 4740, Note_on_c, 0, 99, 77
2, 4760, Note_on_c, 0, 99, 0
2, 4760, Note_on_c, 0, 97, 77
2, 4780, Note_on_c, 0, 97, 0
2, 4780, Note_on_c, 0, 94, 77
2, 4800, Note_on_c, 0, 94, 0
2, 4800, Note_on_c, 0, 92, 77
2, 4820, Note_on_c, 0, 92, 0
2, 4820, Note_on_c, 0, 94, 77
2, 4840, Note_on_c, 0, 94, 0
2, 4840, Note_on_c, 0, 92, 77
2, 4860, Note_on_c, 0, 92, 0
2, 4860, Note_on_c, 0, 87, 77
2, 4880, Note_on_c, 0, 87, 0
2, 4880, Note_on_c, 0, 99, 77
2, 4900, Note_on_c, 0, 99, 0
2, 4900, Note_on_c, 0, 87, 77
2, 4920, Note_on_c, 0, 87, 0
2, 4920, Note_on_c, 0, 85, 77
2, 4940, Note_on_c, 0, 85, 0
2, 4940, Note_on_c, 0, 87, 77
2, 4960, Note_on_c, 0, 87, 0
2, 4960, Note_on_c, 0, 85, 77
2, 4980, Note_on_c, 0, 85, 0
2, 4980, Note_on_c, 0, 80, 77
2, 5000, Note_on_c, 0, 80, 0
2, 5000, Note_on_c, 0, 92, 77
2, 5020, Note_on_c, 0, 92, 0
2, 5020, Note_on_c, 0, 80, 77
2, 5040, Note_on_c, 0, 80, 0
2, 5040, Note_on_c, 0, 80, 77
2, 5060, Note_on_c, 0, 80, 0
2, 5060, Note_on_c, 0, 82, 77
2, 5080, Note_on_c, 0, 82, 0
2, 5080, Note_on_c, 0, 80, 77
2, 5100, Note_on_c, 0, 80, 0
2, 5100, Note_on_c, 0, 75, 77
2, 5120, Note_on_c, 0, 75, 0
2, 5120, Note_on_c, 0, 87, 77
2, 5140, Note_on_c, 0, 87, 0
2, 5140, Note_on_c, 0, 75, 77
2, 5160, Note_on_c, 0, 75, 0
2, 5160, Note_on_c, 0, 73, 77
2, 5180, Note_on_c, 0, 73, 0
2, 5180, Note_on_c, 0, 75, 77
2, 5200, Note_on_c, 0, 75, 0
2, 5200, Note_on_c, 0, 73, 77
2, 5220, Note_on_c, 0, 73, 0
2, 5220, Note_on_c, 0, 68, 77
2, 5300, Note_on_c, 0, 68, 0
2, 5300, Note_on_c, 0, 80, 77
2, 5320, Note_on_c, 0, 80, 0
2, 5320, Note_on_c, 0, 78, 77
2, 5340, Note_on_c, 0, 78, 0
2, 5340, Note_on_c, 0, 80, 76
2, 5360, Note_on_c, 0, 80, 0
2, 5360, Note_on_c, 0, 78, 75
2, 5380, Note_on_c, 0, 78, 0
2, 5380, Note_on_c, 0, 80, 75
2, 5400, Note_on_c, 0, 80, 0
2, 5400, Note_on_c, 0, 90, 75
2, 5420, Note_on_c, 0, 90, 0
2, 5420, Note_on_c, 0, 80, 75
2, 5440, Note_on_c, 0, 80, 0
2, 5440, Note_on_c, 0, 78, 75
2, 5460, Note_on_c, 0, 78, 0
2, 5460, Note_on_c, 0, 80, 75
2, 5480, Note_on_c, 0, 80, 0
2, 5480, Note_on_c, 0, 78, 75
2, 5500, Note_on_c, 0, 78, 0
2, 5500, Note_on_c, 0, 80, 75
2, 5520, Note_on_c, 0, 80, 0
2, 5520, Note_on_c, 0, 68, 75
2, 5540, Note_on_c, 0, 68, 0
2, 5540, Note_on_c, 0, 80, 74
2, 5560, Note_on_c, 0, 80, 0
2, 5560, Note_on_c, 0, 78, 74
2, 5580, Note_on_c, 0, 78, 0
2, 5580, Note_on_c, 0, 80, 74
2, 5600, Note_on_c, 0, 80, 0
2, 5600, Note_on_c, 0, 78, 74
2, 5620, Note_on_c, 0, 78, 0
2, 5620, Note_on_c, 0, 80, 74
2, 5640, Note_on_c, 0, 80, 0
2, 5640, Note_on_c, 0, 90, 74
2, 5660, Note_on_c, 0, 90, 0
2, 5660, Note_on_c, 0, 80, 74
2, 5680, Note_on_c, 0, 80, 0
2, 5680, Note_on_c, 0, 78, 74
2, 5700, Note_on_c, 0, 78, 0
2, 5700, Note_on_c, 0, 80, 74
2, 5720, Note_on_c, 0, 80, 0
2, 5720, Note_on_c, 0, 78, 74
2, 5740, Note_on_c, 0, 78, 0
2, 5740, Note_on_c, 0, 80, 74
2, 5760, Note_on_c, 0, 80, 0
2, 5760, Note_on_c, 0, 70, 74
2, 5780, Note_on_c, 0, 70, 0
2, 5780, Note_on_c, 0, 82, 74
2, 5800, Note_on_c, 0, 82, 0
2, 5800, Note_on_c, 0, 78, 74
2, 5820, Note_on_c, 0, 78, 0
2, 5820, Note_on_c, 0, 82, 74
2, 5840, Note_on_c, 0, 82, 0
2, 5840, Note_on_c, 0, 78, 74
2, 5860, Note_on_c, 0, 78, 0
2, 5860, Note_on_c, 0, 82, 74
2, 5880, Note_on_c, 0, 82, 0
2, 5880, Note_on_c, 0, 90, 74
2, 5900, Note_on_c, 0, 90, 0
2, 5900, Note_on_c, 0, 82, 74
2, 5920, Note_on_c, 0, 82, 0
2, 5920, Note_on_c, 0, 78, 74
2, 5940, Note_on_c, 0, 78, 0
2, 5940, Note_on_c, 0, 82, 74
2, 5960, Note_on_c, 0, 82, 0
2, 5960, Note_on_c, 0, 78, 74
2, 5980, Note_on_c, 0, 78, 0
2, 5980, Note_on_c, 0, 82, 74
2, 6000, Note_on_c, 0, 82, 0
2, 6000, Note_on_c, 0, 70, 74
2, 6020, Note_on_c, 0, 70, 0
2, 6020, Note_on_c, 0, 82, 74
2, 6040, Note_on_c, 0, 82, 0
2, 6040, Note_on_c, 0, 78, 74
2, 6060, Note_on_c, 0, 78, 0
2, 6060, Note_on_c, 0, 82, 74
2, 6080, Note_on_c, 0, 82, 0
2, 6080, Note_on_c, 0, 78, 72
2, 6100, Note_on_c, 0, 78, 0
2, 6100, Note_on_c, 0, 82, 72
2, 6120, Note_on_c, 0, 82, 0
2, 6120, Note_on_c, 0, 90, 72
2, 6140, Note_on_c, 0, 90, 0
2, 6140, Note_on_c, 0, 82, 72
2, 6160, Note_on_c, 0, 82, 0
2, 6160, Note_on_c, 0, 78, 72
2, 6180, Note_on_c, 0, 78, 0
2, 6180, Note_on_c, 0, 82, 72
2, 6200, Note_on_c, 0, 82, 0
2, 6200, Note_on_c, 0, 78, 72
2, 6220, Note_on_c, 0, 78, 0
2, 6220, Note_on_c, 0, 82, 73
2, 6240, Note_on_c, 0, 82, 0
2, 6240, Note_on_c, 0, 78, 73
2, 6260, Note_on_c, 0, 78, 0
2, 6260, Note_on_c, 0, 82, 73
2, 6280, Note_on_c, 0, 82, 0
2, 6280, Note_on_c, 0, 78, 73
2, 6300, Note_on_c, 0, 78, 0
2, 6300, Note_on_c, 0, 94, 74
2, 6320, Note_on_c, 0, 94, 0
2, 6320, Note_on_c, 0, 82, 74
2, 6340, Note_on_c, 0, 82, 0
2, 6340, Note_on_c, 0, 78, 74
2, 6360, Note_on_c, 0, 78, 0
2, 6360, Note_on_c, 0, 92, 75
2, 6380, Note_on_c, 0, 92, 0
2, 6380, Note_on_c, 0, 82, 75
2, 6400, Note_on_c, 0, 82, 0
2, 6400, Note_on_c, 0, 78, 75
2, 6420, Note_on_c, 0, 78, 0
2, 6420, Note_on_c, 0, 90, 76
2, 6440, Note_on_c, 0, 90, 0
2, 6440, Note_on_c, 0, 82, 76
2, 6460, Note_on_c, 0, 82, 0
2, 6460, Note_on_c, 0, 78, 77
2, 6480, Note_on_c, 0, 78, 0
2, 6480, Note_on_c, 0, 85, 77
2, 6500, Note_on_c, 0, 85, 0
2, 6500, Note_on_c, 0, 82, 78
2, 6520, Note_on_c, 0, 82, 0
2, 6520, Note_on_c, 0, 78, 78
2, 6540, Note_on_c, 0, 78, 0
2, 6540, Note_on_c, 0, 94, 79
2, 6560, Note_on_c, 0, 94, 0
2, 6560, Note_on_c, 0, 82, 79
2, 6580, Note_on_c, 0, 82, 0
2, 6580, Note_on_c, 0, 78, 79
2, 6600, Note_on_c, 0, 78, 0
2, 6600, Note_on_c, 0, 92, 79
2, 6620, Note_on_c, 0, 92, 0
2, 6620, Note_on_c, 0, 82, 80
2, 6640, Note_on_c, 0, 82, 0
2, 6640, Note_on_c, 0, 78, 80
2, 6660, Note_on_c, 0, 78, 0
2, 6660, Note_on_c, 0, 90, 80
2, 6680, Note_on_c, 0, 90, 0
2, 6680, Note_on_c, 0, 82, 80
2, 6700, Note_on_c, 0, 82, 0
2, 6700, Note_on_c, 0, 78, 80
2, 6720, Note_on_c, 0, 78, 0
2, 6720, Note_on_c, 0, 73, 81
2, 6740, Note_on_c, 0, 73, 0
2, 6740, Note_on_c, 0, 85, 81
2, 6760, Note_on_c, 0, 85, 0
2, 6760, Note_on_c, 0, 82, 81
2, 6780, Note_on_c, 0, 82, 0
2, 6780, Note_on_c, 0, 85, 81
2, 6800, Note_on_c, 0, 85, 0
2, 6800, Note_on_c, 0, 85, 82
2, 6820, Note_on_c, 0, 85, 0
2, 6820, Note_on_c, 0, 97, 82
2, 6840, Note_on_c, 0, 97, 0
2, 6840, Note_on_c, 0, 94, 82
2, 6860, Note_on_c, 0, 94, 0
2, 6860, Note_on_c, 0, 97, 83
2, 6880, Note_on_c, 0, 97, 0
2, 6880, Note_on_c, 0, 85, 84
2, 6900, Note_on_c, 0, 85, 0
2, 6900, Note_on_c, 0, 85, 84
2, 6920, Note_on_c, 0, 85, 0
2, 6920, Note_on_c, 0, 82, 84
2, 6940, Note_on_c, 0, 82, 0
2, 6940, Note_on_c, 0, 85, 85
2, 6960, Note_on_c, 0, 85, 0
2, 6960, Note_on_c, 0, 73, 85
2, 6980, Note_on_c, 0, 73, 0
2, 6980, Note_on_c, 0, 85, 86
2, 7000, Note_on_c, 0, 85, 0
2, 7000, Note_on_c, 0, 82, 86
2, 7020, Note_on_c, 0, 82, 0
2, 7020, Note_on_c, 0, 85, 86
2, 7040, Note_on_c, 0, 85, 0
2, 7040, Note_on_c, 0, 85, 87
2, 7060, Note_on_c, 0, 85, 0
2, 7060, Note_on_c, 0, 97, 87
2, 7080, Note_on_c, 0, 97, 0
2, 7080, Note_on_c, 0, 94, 88
2, 7100, Note_on_c, 0, 94, 0
2, 7100, Note_on_c, 0, 97, 88
2, 7120, Note_on_c, 0, 97, 0
2, 7120, Note_on_c, 0, 85, 89
2, 7140, Note_on_c, 0, 85, 0
2, 7140, Note_on_c, 0, 85, 89
2, 7160, Note_on_c, 0, 85, 0
2, 7160, Note_on_c, 0, 82, 89
2, 7180, Note_on_c, 0, 82, 0
2, 7180, Note_on_c, 0, 85, 89
2, 7200, Note_on_c, 0, 85, 0
2, 7200, Note_on_c, 0, 73, 89
2, 7220, Note_on_c, 0, 73, 0
2, 7220, Note_on_c, 0, 85, 90
2, 7240, Note_on_c, 0, 85, 0
2, 7240, Note_on_c, 0, 82, 90
2, 7260, Note_on_c, 0, 82, 0
2, 7260, Note_on_c, 0, 85, 90
2, 7280, Note_on_c, 0, 85, 0
2, 7280, Note_on_c, 0, 85, 91
2, 7300, Note_on_c, 0, 85, 0
2, 7300, Note_on_c, 0, 97, 91
2, 7320, Note_on_c, 0, 97, 0
2, 7320, Note_on_c, 0, 92, 92
2, 7340, Note_on_c, 0, 92, 0
2, 7340, Note_on_c, 0, 97, 92
2, 7360, Note_on_c, 0, 97, 0
2, 7360, Note_on_c, 0, 85, 93
2, 7380, Note_on_c, 0, 85, 0
2, 7380, Note_on_c, 0, 85, 93
2, 7400, Note_on_c, 0, 85, 0
2, 7400, Note_on_c, 0, 80, 93
2, 7420, Note_on_c, 0, 80, 0
2, 7420, Note_on_c, 0, 85, 93
2, 7440, Note_on_c, 0, 85, 0
2, 7440, Note_on_c, 0, 73, 93
2, 7460, Note_on_c, 0, 73, 0
2, 7460, Note_on_c, 0, 85, 94
2, 7480, Note_on_c, 0, 85, 0
2, 7480, Note_on_c, 0, 78, 94
2, 7500, Note_on_c, 0, 78, 0
2, 7500, Note_on_c, 0, 85, 94
2, 7520, Note_on_c, 0, 85, 0
2, 7520, Note_on_c, 0, 73, 94
2, 7540, Note_on_c, 0, 73, 0
2, 7540, Note_on_c, 0, 73, 95
2, 7560, Note_on_c, 0, 73, 0
2, 7560, Note_on_c, 0, 66, 95
2, 7580, Note_on_c, 0, 66, 0
2, 7580, Note_on_c, 0, 73, 95
2, 7600, Note_on_c, 0, 73, 0
2, 7600, Note_on_c, 0, 61, 95
2, 7620, Note_on_c, 0, 61, 0
2, 7620, Note_on_c, 0, 61, 95
2, 7640, Note_on_c, 0, 61, 0
2, 7640, Note_on_c, 0, 54, 96
2, 7660, Note_on_c, 0, 54, 0
2, 7660, Note_on_c, 0, 61, 96
2, 7680, Note_on_c, 0, 61, 0
2, 7680, Note_on_c, 0, 51, 96
2, 7700, Note_on_c, 0, 51, 0
2, 7700, Note_on_c, 0, 54, 96
2, 7720, Note_on_c, 0, 54, 0
2, 7720, Note_on_c, 0, 61, 97
2, 7740, Note_on_c, 0, 61, 0
2, 7740, Note_on_c, 0, 63, 72
2, 7760, Note_on_c, 0, 63, 0
2, 7760, Note_on_c, 0, 54, 72
2, 7780, Note_on_c, 0, 54, 0
2, 7780, Note_on_c, 0, 61, 72
2, 7800, Note_on_c, 0, 61, 0
2, 7800, Note_on_c, 0, 63, 72
2, 7820, Note_on_c, 0, 63, 0
2, 7820, Note_on_c, 0, 66, 72
2, 7840, Note_on_c, 0, 66, 0
2, 7840, Note_on_c, 0, 61, 72
2, 7860, Note_on_c, 0, 61, 0
2, 7860, Note_on_c, 0, 63, 72
2, 7880, Note_on_c, 0, 63, 0
2, 7880, Note_on_c, 0, 66, 72
2, 7900, Note_on_c, 0, 66, 0
2, 7900, Note_on_c, 0, 73, 73
2, 7920, Note_on_c, 0, 73, 0
2, 7920, Note_on_c, 0, 63, 73
2, 7940, Note_on_c, 0, 63, 0
2, 7940, Note_on_c, 0, 66, 74
2, 7960, Note_on_c, 0, 66, 0
2, 7960, Note_on_c, 0, 73, 75
2, 7980, Note_on_c, 0, 73, 0
2, 7980, Note_on_c, 0, 75, 76
2, 8000, Note_on_c, 0, 75, 0
2, 8000, Note_on_c, 0, 66, 76
2, 8020, Note_on_c, 0, 66, 0
2, 8020, Note_on_c, 0, 73, 77
2, 8040, Note_on_c, 0, 73, 0
2, 8040, Note_on_c, 0, 75, 78
2, 8060, Note_on_c, 0, 75, 0
2, 8060, Note_on_c, 0, 78, 78
2, 8080, Note_on_c, 0, 78, 0
2, 8080, Note_on_c, 0, 73, 79
2, 8100, Note_on_c, 0, 73, 0
2, 8100, Note_on_c, 0, 75, 79
2, 8120, Note_on_c, 0, 75, 0
2, 8120, Note_on_c, 0, 85, 79
2, 8140, Note_on_c, 0, 85, 0
2, 8140, Note_on_c, 0, 78, 80
2, 8160, Note_on_c, 0, 78, 0
2, 8160, Note_on_c, 0, 75, 81
2, 8180, Note_on_c, 0, 75, 0
2, 8180, Note_on_c, 0, 78, 82
2, 8200, Note_on_c, 0, 78, 0
2, 8200, Note_on_c, 0, 87, 80
2, 8220, Note_on_c, 0, 87, 0
2, 8220, Note_on_c, 0, 85, 80
2, 8240, Note_on_c, 0, 85, 0
2, 8240, Note_on_c, 0, 78, 79
2, 8260, Note_on_c, 0, 78, 0
2, 8260, Note_on_c, 0, 75, 77
2, 8280, Note_on_c, 0, 75, 0
2, 8280, Note_on_c, 0, 85, 75
2, 8300, Note_on_c, 0, 85, 0
2, 8300, Note_on_c, 0, 78, 75
2, 8320, Note_on_c, 0, 78, 0
2, 8320, Note_on_c, 0, 75, 73
2, 8340, Note_on_c, 0, 75, 0
2, 8340, Note_on_c, 0, 73, 72
2, 8360, Note_on_c, 0, 73, 0
2, 8360, Note_on_c, 0, 78, 71
2, 8380, Note_on_c, 0, 78, 0
2, 8380, Note_on_c, 0, 75, 70
2, 8400, Note_on_c, 0, 75, 0
2, 8400, Note_on_c, 0, 73, 70
2, 8420, Note_on_c, 0, 73, 0
2, 8420, Note_on_c, 0, 66, 68
2, 8440, Note_on_c, 0, 66, 0
2, 8440, Note_on_c, 0, 75, 67
2, 8460, Note_on_c, 0, 75, 0
2, 8460, Note_on_c, 0, 73, 67
2, 8480, Note_on_c, 0, 73, 0
2, 8480, Note_on_c, 0, 66, 65
2, 8500, Note_on_c, 0, 66, 0
2, 8500, Note_on_c, 0, 63, 63
2, 8520, Note_on_c, 0, 63, 0
2, 8520, Note_on_c, 0, 73, 62
2, 8540, Note_on_c, 0, 73, 0
2, 8540, Note_on_c, 0, 66, 61
2, 8560, Note_on_c, 0, 66, 0
2, 8560, Note_on_c, 0, 63, 60
2, 8580, Note_on_c, 0, 63, 0
2, 8580, Note_on_c, 0, 61, 59
2, 8600, Note_on_c, 0, 61, 0
2, 8600, Note_on_c, 0, 66, 57
2, 8620, Note_on_c, 0, 66, 0
2, 8620, Note_on_c, 0, 63, 56
2, 8640, Note_on_c, 0, 63, 0
2, 8640, Note_on_c, 0, 56, 55
2, 8660, Note_on_c, 0, 56, 0
2, 8660, Note_on_c, 0, 63, 55
2, 8680, Note_on_c, 0, 63, 0
2, 8680, Note_on_c, 0, 66, 54
2, 8700, Note_on_c, 0, 66, 0
2, 8700, Note_on_c, 0, 68, 54
2, 8720, Note_on_c, 0, 68, 0
2, 8720, Note_on_c, 0, 63, 54
2, 8740, Note_on_c, 0, 63, 0
2, 8740, Note_on_c, 0, 66, 54
2, 8760, Note_on_c, 0, 66, 0
2, 8760, Note_on_c, 0, 68, 54
2, 8780, Note_on_c, 0, 68, 0
2, 8780, Note_on_c, 0, 75, 55
2, 8800, Note_on_c, 0, 75, 0
2, 8800, Note_on_c, 0, 66, 56
2, 8820, Note_on_c, 0, 66, 0
2, 8820, Note_on_c, 0, 68, 57
2, 8840, Note_on_c, 0, 68, 0
2, 8840, Note_on_c, 0, 75, 57
2, 8860, Note_on_c, 0, 75, 0
2, 8860, Note_on_c, 0, 78, 58
2, 8880, Note_on_c, 0, 78, 0
2, 8880, Note_on_c, 0, 68, 59
2, 8900, Note_on_c, 0, 68, 0
2, 8900, Note_on_c, 0, 75, 59
2, 8920, Note_on_c, 0, 75, 0
2, 8920, Note_on_c, 0, 78, 60
2, 8940, Note_on_c, 0, 78, 0
2, 8940, Note_on_c, 0, 80, 60
2, 8960, Note_on_c, 0, 80, 0
2, 8960, Note_on_c, 0, 75, 60
2, 8980, Note_on_c, 0, 75, 0
2, 8980, Note_on_c, 0, 78, 61
2, 9000, Note_on_c, 0, 78, 0
2, 9000, Note_on_c, 0, 80, 61
2, 9020, Note_on_c, 0, 80, 0
2, 9020, Note_on_c, 0, 87, 62
2, 9040, Note_on_c, 0, 87, 0
2, 9040, Note_on_c, 0, 78, 62
2, 9060, Note_on_c, 0, 78, 0
2, 9060, Note_on_c, 0, 80, 62
2, 9080, Note_on_c, 0, 80, 0
2, 9080, Note_on_c, 0, 90, 62
2, 9100, Note_on_c, 0, 90, 0
2, 9100, Note_on_c, 0, 87, 62
2, 9120, Note_on_c, 0, 87, 0
2, 9120, Note_on_c, 0, 80, 62
2, 9140, Note_on_c, 0, 80, 0
2, 9140, Note_on_c, 0, 78, 62
2, 9160, Note_on_c, 0, 78, 0
2, 9160, Note_on_c, 0, 87, 61
2, 9180, Note_on_c, 0, 87, 0
2, 9180, Note_on_c, 0, 80, 60
2, 9200, Note_on_c, 0, 80, 0
2, 9200, Note_on_c, 0, 78, 59
2, 9220, Note_on_c, 0, 78, 0
2, 9220, Note_on_c, 0, 75, 58
2, 9240, Note_on_c, 0, 75, 0
2, 9240, Note_on_c, 0, 80, 58
2, 9260, Note_on_c, 0, 80, 0
2, 9260, Note_on_c, 0, 78, 57
2, 9280, Note_on_c, 0, 78, 0
2, 9280, Note_on_c, 0, 75, 56
2, 9300, Note_on_c, 0, 75, 0
2, 9300, Note_on_c, 0, 68, 55
2, 9320, Note_on_c, 0, 68, 0
2, 9320, Note_on_c, 0, 78, 54
2, 9340, Note_on_c, 0, 78, 0
2, 9340, Note_on_c, 0, 75, 53
2, 9360, Note_on_c, 0, 75, 0
2, 9360, Note_on_c, 0, 68, 52
2, 9380, Note_on_c, 0, 68, 0
2, 9380, Note_on_c, 0, 66, 52
2, 9400, Note_on_c, 0, 66, 0
2, 9400, Note_on_c, 0, 75, 51
2, 9420, Note_on_c, 0, 75, 0
2, 9420, Note_on_c, 0, 68, 50
2, 9440, Note_on_c, 0, 68, 0
2, 9440, Note_on_c, 0, 66, 50
2, 9460, Note_on_c, 0, 66, 0
2, 9460, Note_on_c, 0, 63, 50
2, 9480, Note_on_c, 0, 63, 0
2, 9480, Note_on_c, 0, 68, 49
2, 9500, Note_on_c, 0, 68, 0
2, 9500, Note_on_c, 0, 66, 49
2, 9520, Note_on_c, 0, 66, 0
2, 9520, Note_on_c, 0, 63, 48
2, 9540, Note_on_c, 0, 63, 0
2, 9540, Note_on_c, 0, 56, 48
2, 9560, Note_on_c, 0, 56, 0
2, 9560, Note_on_c, 0, 66, 48
2, 9580, Note_on_c, 0, 66, 0
2, 9580, Note_on_c, 0, 63, 60
2, 9600, Note_on_c, 0, 63, 0
2, 9600, Note_on_c, 0, 61, 61
2, 9620, Note_on_c, 0, 61, 0
2, 9620, Note_on_c, 0, 73, 61
2, 9640, Note_on_c, 0, 73, 0
2, 9640, Note_on_c, 0, 68, 62
2, 9660, Note_on_c, 0, 68, 0
2, 9660, Note_on_c, 0, 73, 62
2, 9680, Note_on_c, 0, 73, 0
2, 9680, Note_on_c, 0, 65, 63
2, 9700, Note_on_c, 0, 65, 0
2, 9700, Note_on_c, 0, 80, 64
2, 9720, Note_on_c, 0, 80, 0
2, 9720, Note_on_c, 0, 73, 65
2, 9740, Note_on_c, 0, 73, 0
2, 9740, Note_on_c, 0, 80, 66
2, 9760, Note_on_c, 0, 80, 0
2, 9760, Note_on_c, 0, 68, 67
2, 9780, Note_on_c, 0, 68, 0
2, 9780, Note_on_c, 0, 73, 69
2, 9800, Note_on_c, 0, 73, 0
2, 9800, Note_on_c, 0, 68, 70
2, 9820, Note_on_c, 0, 68, 0
2, 9820, Note_on_c, 0, 73, 71
2, 9840, Note_on_c, 0, 73, 0
2, 9840, Note_on_c, 0, 61, 72
2, 9860, Note_on_c, 0, 61, 0
2, 9860, Note_on_c, 0, 73, 72
2, 9880, Note_on_c, 0, 73, 0
2, 9880, Note_on_c, 0, 68, 72
2, 9900, Note_on_c, 0, 68, 0
2, 9900, Note_on_c, 0, 73, 72
2, 9920, Note_on_c, 0, 73, 0
2, 9920, Note_on_c, 0, 68, 71
2, 9940, Note_on_c, 0, 68, 0
2, 9940, Note_on_c, 0, 80, 70
2, 9960, Note_on_c, 0, 80, 0
2, 9960, Note_on_c, 0, 73, 69
2, 9980, Note_on_c, 0, 73, 0
2, 9980, Note_on_c, 0, 80, 68
2, 10000, Note_on_c, 0, 80, 0
2, 10000, Note_on_c, 0, 68, 68
2, 10020, Note_on_c, 0, 68, 0
2, 10020, Note_on_c, 0, 73, 66
2, 10040, Note_on_c, 0, 73, 0
2, 10040, Note_on_c, 0, 68, 65
2, 10060, Note_on_c, 0, 68, 0
2, 10060, Note_on_c, 0, 73, 64
2, 10080, Note_on_c, 0, 73, 0
2, 10080, Note_on_c, 0, 61, 63
2, 10100, Note_on_c, 0, 61, 0
2, 10100, Note_on_c, 0, 73, 62
2, 10120, Note_on_c, 0, 73, 0
2, 10120, Note_on_c, 0, 68, 61
2, 10140, Note_on_c, 0, 68, 0
2, 10140, Note_on_c, 0, 73, 60
2, 10160, Note_on_c, 0, 73, 0
2, 10160, Note_on_c, 0, 73, 60
2, 10180, Note_on_c, 0, 73, 0
2, 10180, Note_on_c, 0, 85, 59
2, 10200, Note_on_c, 0, 85, 0
2, 10200, Note_on_c, 0, 80, 59
2, 10220, Note_on_c, 0, 80, 0
2, 10220, Note_on_c, 0, 85, 57
2, 10240, Note_on_c, 0, 85, 0
2, 10240, Note_on_c, 0, 73, 70
2, 10260, Note_on_c, 0, 73, 0
2, 10260, Note_on_c, 0, 73, 67
2, 10280, Note_on_c, 0, 73, 0
2, 10280, Note_on_c, 0, 68, 66
2, 10300, Note_on_c, 0, 68, 0
2, 10300, Note_on_c, 0, 73, 64
2, 10320, Note_on_c, 0, 73, 0
2, 10320, Note_on_c, 0, 68, 63
2, 10340, Note_on_c, 0, 68, 0
2, 10340, Note_on_c, 0, 80, 62
2, 10360, Note_on_c, 0, 80, 0
2, 10360, Note_on_c, 0, 73, 60
2, 10380, Note_on_c, 0, 73, 0
2, 10380, Note_on_c, 0, 80, 59
2, 10400, Note_on_c, 0, 80, 0
2, 10400, Note_on_c, 0, 80, 57
2, 10420, Note_on_c, 0, 80, 0
2, 10420, Note_on_c, 0, 92, 55
2, 10440, Note_on_c, 0, 92, 0
2, 10440, Note_on_c, 0, 85, 54
2, 10460, Note_on_c, 0, 85, 0
2, 10460, Note_on_c, 0, 92, 53
2, 10480, Note_on_c, 0, 92, 0
2, 10480, Note_on_c, 0, 80, 52
2, 10500, Note_on_c, 0, 80, 0
2, 10500, Note_on_c, 0, 80, 52
2, 10520, Note_on_c, 0, 80, 0
2, 10520, Note_on_c, 0, 73, 51
2, 10540, Note_on_c, 0, 73, 0
2, 10540, Note_on_c, 0, 80, 50
2, 10560, Note_on_c, 0, 80, 0
2, 10560, Note_on_c, 0, 73, 57
2, 10580, Note_on_c, 0, 73, 0
2, 10580, Note_on_c, 0, 75, 63
2, 10600, Note_on_c, 0, 75, 0
2, 10600, Note_on_c, 0, 73, 66
2, 10620, Note_on_c, 0, 73, 0
2, 10620, Note_on_c, 0, 87, 68
2, 10640, Note_on_c, 0, 87, 0
2, 10640, Note_on_c, 0, 85, 69
2, 10660, Note_on_c, 0, 85, 0
2, 10660, Note_on_c, 0, 99, 70
2, 10680, Note_on_c, 0, 99, 0
2, 10680, Note_on_c, 0, 97, 72
2, 10700, Note_on_c, 0, 97, 0
2, 10700, Note_on_c, 0, 99, 74
2, 10720, Note_on_c, 0, 99, 0
2, 10720, Note_on_c, 0, 97, 75
2, 10740, Note_on_c, 0, 97, 0
2, 10740, Note_on_c, 0, 85, 76
2, 10760, Note_on_c, 0, 85, 0
2, 10760, Note_on_c, 0, 87, 78
2, 10780, Note_on_c, 0, 87, 0
2, 10780, Note_on_c, 0, 85, 78
2, 10800, Note_on_c, 0, 85, 0
2, 10800, Note_on_c, 0, 73, 79
2, 10820, Note_on_c, 0, 73, 0
2, 10820, Note_on_c, 0, 75, 79
2, 10840, Note_on_c, 0, 75, 0
2, 10840, Note_on_c, 0, 73, 79
2, 10860, Note_on_c, 0, 73, 0
2, 10860, Note_on_c, 0, 87, 79
2, 10880, Note_on_c, 0, 87, 0
2, 10880, Note_on_c, 0, 85, 78
2, 10900, Note_on_c, 0, 85, 0
2, 10900, Note_on_c, 0, 99, 77
2, 10920, Note_on_c, 0, 99, 0
2, 10920, Note_on_c, 0, 97, 76
2, 10940, Note_on_c, 0, 97, 0
2, 10940, Note_on_c, 0, 99, 75
2, 10960, Note_on_c, 0, 99, 0
2, 10960, Note_on_c, 0, 97, 75
2, 10980, Note_on_c, 0, 97, 0
2, 10980, Note_on_c, 0, 85, 74
2, 11000, Note_on_c, 0, 85, 0
2, 11000, Note_on_c, 0, 87, 73
2, 11020, Note_on_c, 0, 87, 0
2, 11020, Note_on_c, 0, 85, 71
2, 11040, Note_on_c, 0, 85, 0
2, 11040, Note_on_c, 0, 97, 69
2, 11060, Note_on_c, 0, 97, 0
2, 11060, Note_on_c, 0, 99, 68
2, 11080, Note_on_c, 0, 99, 0
2, 11080, Note_on_c, 0, 97, 67
2, 11100, Note_on_c, 0, 97, 0
2, 11100, Note_on_c, 0, 85, 66
2, 11120, Note_on_c, 0, 85, 0
2, 11120, Note_on_c, 0, 87, 65
2, 11140, Note_on_c, 0, 87, 0
2, 11140, Note_on_c, 0, 85, 64
2, 11160, Note_on_c, 0, 85, 0
2, 11160, Note_on_c, 0, 97, 64
2, 11180, Note_on_c, 0, 97, 0
2, 11180, Note_on_c, 0, 99, 64
2, 11200, Note_on_c, 0, 99, 0
2, 11200, Note_on_c, 0, 97, 66
2, 11220, Note_on_c, 0, 97, 0
2, 11220, Note_on_c, 0, 85, 68
2, 11240, Note_on_c, 0, 85, 0
2, 11240, Note_on_c, 0, 87, 70
2, 11260, Note_on_c, 0, 87, 0
2, 11260, Note_on_c, 0, 85, 71
2, 11280, Note_on_c, 0, 85, 0
2, 11280, Note_on_c, 0, 97, 73
2, 11300, Note_on_c, 0, 97, 0
2, 11300, Note_on_c, 0, 99, 75
2, 11320, Note_on_c, 0, 99, 0
2, 11320, Note_on_c, 0, 97, 76
2, 11340, Note_on_c, 0, 97, 0
2, 11340, Note_on_c, 0, 85, 76
2, 11360, Note_on_c, 0, 85, 0
2, 11360, Note_on_c, 0, 87, 75
2, 11380, Note_on_c, 0, 87, 0
2, 11380, Note_on_c, 0, 85, 73
2, 11400, Note_on_c, 0, 85, 0
2, 11400, Note_on_c, 0, 97, 72
2, 11420, Note_on_c, 0, 97, 0
2, 11420, Note_on_c, 0, 99, 71
2, 11440, Note_on_c, 0, 99, 0
2, 11440, Note_on_c, 0, 97, 70
2, 11460, Note_on_c, 0, 97, 0
2, 11460, Note_on_c, 0, 85, 68
2, 11480, Note_on_c, 0, 85, 0
2, 11480, Note_on_c, 0, 87, 66
2, 11500, Note_on_c, 0, 87, 0
2, 11500, Note_on_c, 0, 85, 64
2, 11520, Note_on_c, 0, 85, 0
2, 11520, Control_c, 0, 91, 127
2, 11520, Control_c, 0, 64, 0
2, 11520, Note_on_c, 0, 90, 66
2, 11540, Note_on_c, 0, 90, 0
2, 11540, Note_on_c, 0, 94, 70
2, 11560, Note_on_c, 0, 94, 0
2, 11560, Note_on_c, 0, 85, 73
2, 11580, Note_on_c, 0, 85, 0
2, 11580, Note_on_c, 0, 90, 75
2, 11600, Note_on_c, 0, 90, 0
2, 11600, Note_on_c, 0, 87, 77
2, 11620, Note_on_c, 0, 87, 0
2, 11620, Note_on_c, 0, 90, 79
2, 11640, Note_on_c, 0, 90, 0
2, 11640, Note_on_c, 0, 85, 80
2, 11660, Note_on_c, 0, 85, 0
2, 11660, Note_on_c, 0, 90, 80
2, 11680, Note_on_c, 0, 90, 0
2, 11680, Note_on_c, 0, 82, 78
2, 11700, Note_on_c, 0, 82, 0
2, 11700, Note_on_c, 0, 85, 75
2, 11720, Note_on_c, 0, 85, 0
2, 11720, Note_on_c, 0, 78, 73
2, 11740, Note_on_c, 0, 78, 0
2, 11740, Note_on_c, 0, 82, 72
2, 11760, Note_on_c, 0, 82, 0
2, 11760, Note_on_c, 0, 78, 71
2, 11780, Note_on_c, 0, 78, 0
2, 11780, Note_on_c, 0, 82, 70
2, 11800, Note_on_c, 0, 82, 0
2, 11800, Note_on_c, 0, 73, 69
2, 11820, Note_on_c, 0, 73, 0
2, 11820, Note_on_c, 0, 78, 68
2, 11840, Note_on_c, 0, 78, 0
2, 11840, Note_on_c, 0, 75, 66
2, 11860, Note_on_c, 0, 75, 0
2, 11860, Note_on_c, 0, 78, 64
2, 11880, Note_on_c, 0, 78, 0
2, 11880, Note_on_c, 0, 73, 63
2, 11900, Note_on_c, 0, 73, 0
2, 11900, Note_on_c, 0, 78, 62
2, 11920, Note_on_c, 0, 78, 0
2, 11920, Note_on_c, 0, 70, 61
2, 11940, Note_on_c, 0, 70, 0
2, 11940, Note_on_c, 0, 73, 61
2, 11960, Note_on_c, 0, 73, 0
2, 11960, Note_on_c, 0, 66, 60
2, 11980, Note_on_c, 0, 66, 0
2, 11980, Note_on_c, 0, 70, 59
2, 12000, Note_on_c, 0, 70, 0
2, 12000, Note_on_c, 0, 61, 59
2, 12020, Note_on_c, 0, 61, 0
2, 12020, Note_on_c, 0, 73, 59
2, 12040, Note_on_c, 0, 73, 0
2, 12040, Note_on_c, 0, 68, 59
2, 12060, Note_on_c, 0, 68, 0
2, 12060, Note_on_c, 0, 73, 59
2, 12080, Note_on_c, 0, 73, 0
2, 12080, Note_on_c, 0, 68, 60
2, 12100, Note_on_c, 0, 68, 0
2, 12100, Note_on_c, 0, 80, 61
2, 12120, Note_on_c, 0, 80, 0
2, 12120, Note_on_c, 0, 68, 62
2, 12140, Note_on_c, 0, 68, 0
2, 12140, Note_on_c, 0, 80, 64
2, 12160, Note_on_c, 0, 80, 0
2, 12160, Note_on_c, 0, 75, 66
2, 12180, Note_on_c, 0, 75, 0
2, 12180, Note_on_c, 0, 80, 67
2, 12200, Note_on_c, 0, 80, 0
2, 12200, Note_on_c, 0, 75, 69
2, 12220, Note_on_c, 0, 75, 0
2, 12220, Note_on_c, 0, 87, 70
2, 12240, Note_on_c, 0, 87, 0
2, 12240, Note_on_c, 0, 75, 72
2, 12260, Note_on_c, 0, 75, 0
2, 12260, Note_on_c, 0, 87, 73
2, 12280, Note_on_c, 0, 87, 0
2, 12280, Note_on_c, 0, 80, 74
2, 12300, Note_on_c, 0, 80, 0
2, 12300, Note_on_c, 0, 87, 75
2, 12320, Note_on_c, 0, 87, 0
2, 12320, Note_on_c, 0, 80, 76
2, 12340, Note_on_c, 0, 80, 0
2, 12340, Note_on_c, 0, 92, 77
2, 12360, Note_on_c, 0, 92, 0
2, 12360, Note_on_c, 0, 80, 78
2, 12380, Note_on_c, 0, 80, 0
2, 12380, Note_on_c, 0, 92, 79
2, 12400, Note_on_c, 0, 92, 0
2, 12400, Note_on_c, 0, 85, 80
2, 12420, Note_on_c, 0, 85, 0
2, 12420, Note_on_c, 0, 92, 81
2, 12440, Note_on_c, 0, 92, 0
2, 12440, Note_on_c, 0, 85, 81
2, 12460, Note_on_c, 0, 85, 0
2, 12460, Note_on_c, 0, 97, 81
2, 12480, Note_on_c, 0, 97, 0
2, 12480, Note_on_c, 0, 90, 82
2, 12500, Note_on_c, 0, 90, 0
2, 12500, Note_on_c, 0, 94, 81
2, 12520, Note_on_c, 0, 94, 0
2, 12520, Note_on_c, 0, 85, 79
2, 12540, Note_on_c, 0, 85, 0
2, 12540, Note_on_c, 0, 90, 78
2, 12560, Note_on_c, 0, 90, 0
2, 12560, Note_on_c, 0, 87, 77
2, 12580, Note_on_c, 0, 87, 0
2, 12580, Note_on_c, 0, 90, 76
2, 12600, Note_on_c, 0, 90, 0
2, 12600, Note_on_c, 0, 85, 74
2, 12620, Note_on_c, 0, 85, 0
2, 12620, Note_on_c, 0, 90, 72
2, 12640, Note_on_c, 0, 90, 0
2, 12640, Note_on_c, 0, 82, 71
2, 12660, Note_on_c, 0, 82, 0
2, 12660, Note_on_c, 0, 85, 70
2, 12680, Note_on_c, 0, 85, 0
2, 12680, Note_on_c, 0, 78, 69
2, 12700, Note_on_c, 0, 78, 0
2, 12700, Note_on_c, 0, 82, 68
2, 12720, Note_on_c, 0, 82, 0
2, 12720, Note_on_c, 0, 78, 68
2, 12740, Note_on_c, 0, 78, 0
2, 12740, Note_on_c, 0, 82, 68
2, 12760, Note_on_c, 0, 82, 0
2, 12760, Note_on_c, 0, 73, 68
2, 12780, Note_on_c, 0, 73, 0
2, 12780, Note_on_c, 0, 78, 68
2, 12800, Note_on_c, 0, 78, 0
2, 12800, Note_on_c, 0, 75, 67
2, 12820, Note_on_c, 0, 75, 0
2, 12820, Note_on_c, 0, 78, 66
2, 12840, Note_on_c, 0, 78, 0
2, 12840, Note_on_c, 0, 73, 65
2, 12860, Note_on_c, 0, 73, 0
2, 12860, Note_on_c, 0, 78, 64
2, 12880, Note_on_c, 0, 78, 0
2, 12880, Note_on_c, 0, 70, 63
2, 12900, Note_on_c, 0, 70, 0
2, 12900, Note_on_c, 0, 73, 63
2, 12920, Note_on_c, 0, 73, 0
2, 12920, Note_on_c, 0, 66, 63
2, 12940, Note_on_c, 0, 66, 0
2, 12940, Note_on_c, 0, 70, 63
2, 12960, Note_on_c, 0, 70, 0
2, 12960, Note_on_c, 0, 63, 63
2, 12980, Note_on_c, 0, 63, 0
2, 12980, Note_on_c, 0, 75, 62
2, 13000, Note_on_c, 0, 75, 0
2, 13000, Note_on_c, 0, 68, 62
2, 13020, Note_on_c, 0, 68, 0
2, 13020, Note_on_c, 0, 75, 62
2, 13040, Note_on_c, 0, 75, 0
2, 13040, Note_on_c, 0, 68, 62
2, 13060, Note_on_c, 0, 68, 0
2, 13060, Note_on_c, 0, 80, 63
2, 13080, Note_on_c, 0, 80, 0
2, 13080, Note_on_c, 0, 70, 63
2, 13100, Note_on_c, 0, 70, 0
2, 13100, Note_on_c, 0, 82, 64
2, 13120, Note_on_c, 0, 82, 0
2, 13120, Note_on_c, 0, 70, 65
2, 13140, Note_on_c, 0, 70, 0
2, 13140, Note_on_c, 0, 82, 66
2, 13160, Note_on_c, 0, 82, 0
2, 13160, Note_on_c, 0, 70, 66
2, 13180, Note_on_c, 0, 70, 0
2, 13180, Note_on_c, 0, 82, 67
2, 13200, Note_on_c, 0, 82, 0
2, 13200, Note_on_c, 0, 75, 68
2, 13220, Note_on_c, 0, 75, 0
2, 13220, Note_on_c, 0, 87, 69
2, 13240, Note_on_c, 0, 87, 0
2, 13240, Note_on_c, 0, 80, 69
2, 13260, Note_on_c, 0, 80, 0
2, 13260, Note_on_c, 0, 87, 70
2, 13280, Note_on_c, 0, 87, 0
2, 13280, Note_on_c, 0, 80, 70
2, 13300, Note_on_c, 0, 80, 0
2, 13300, Note_on_c, 0, 92, 70
2, 13320, Note_on_c, 0, 92, 0
2, 13320, Note_on_c, 0, 82, 70
2, 13340, Note_on_c, 0, 82, 0
2, 13340, Note_on_c, 0, 94, 70
2, 13360, Note_on_c, 0, 94, 0
2, 13360, Note_on_c, 0, 82, 70
2, 13380, Note_on_c, 0, 82, 0
2, 13380, Note_on_c, 0, 94, 70
2, 13400, Note_on_c, 0, 94, 0
2, 13400, Note_on_c, 0, 82, 70
2, 13420, Note_on_c, 0, 82, 0
2, 13420, Note_on_c, 0, 94, 70
2, 13440, Note_on_c, 0, 94, 0
2, 13440, Note_on_c, 0, 82, 70
2, 13460, Note_on_c, 0, 82, 0
2, 13460, Note_on_c, 0, 94, 70
2, 13480, Note_on_c, 0, 94, 0
2, 13480, Note_on_c, 0, 87, 70
2, 13500, Note_on_c, 0, 87, 0
2, 13500, Note_on_c, 0, 94, 70
2, 13520, Note_on_c, 0, 94, 0
2, 13520, Note_on_c, 0, 80, 70
2, 13540, Note_on_c, 0, 80, 0
2, 13540, Note_on_c, 0, 92, 70
2, 13560, Note_on_c, 0, 92, 0
2, 13560, Note_on_c, 0, 80, 70
2, 13580, Note_on_c, 0, 80, 0
2, 13580, Note_on_c, 0, 92, 70
2, 13600, Note_on_c, 0, 92, 0
2, 13600, Note_on_c, 0, 85, 70
2, 13620, Note_on_c, 0, 85, 0
2, 13620, Note_on_c, 0, 92, 70
2, 13640, Note_on_c, 0, 92, 0
2, 13640, Note_on_c, 0, 78, 70
2, 13660, Note_on_c, 0, 78, 0
2, 13660, Note_on_c, 0, 90, 70
2, 13680, Note_on_c, 0, 90, 0
2, 13680, Note_on_c, 0, 73, 70
2, 13700, Note_on_c, 0, 73, 0
2, 13700, Note_on_c, 0, 85, 70
2, 13720, Note_on_c, 0, 85, 0
2, 13720, Note_on_c, 0, 80, 70
2, 13740, Note_on_c, 0, 80, 0
2, 13740, Note_on_c, 0, 85, 70
2, 13760, Note_on_c, 0, 85, 0
2, 13760, Note_on_c, 0, 80, 72
2, 13780, Note_on_c, 0, 80, 0
2, 13780, Note_on_c, 0, 92, 69
2, 13800, Note_on_c, 0, 92, 0
2, 13800, Note_on_c, 0, 78, 69
2, 13820, Note_on_c, 0, 78, 0
2, 13820, Note_on_c, 0, 90, 69
2, 13840, Note_on_c, 0, 90, 0
2, 13840, Note_on_c, 0, 85, 69
2, 13860, Note_on_c, 0, 85, 0
2, 13860, Note_on_c, 0, 90, 69
2, 13880, Note_on_c, 0, 90, 0
2, 13880, Note_on_c, 0, 85, 69
2, 13900, Note_on_c, 0, 85, 0
2, 13900, Note_on_c, 0, 97, 69
2, 13920, Note_on_c, 0, 97, 0
2, 13920, Note_on_c, 0, 82, 69
2, 13940, Note_on_c, 0, 82, 0
2, 13940, Note_on_c, 0, 94, 69
2, 13960, Note_on_c, 0, 94, 0
2, 13960, Note_on_c, 0, 87, 69
2, 13980, Note_on_c, 0, 87, 0
2, 13980, Note_on_c, 0, 94, 69
2, 14000, Note_on_c, 0, 94, 0
2, 14000, Note_on_c, 0, 80, 69
2, 14020, Note_on_c, 0, 80, 0
2, 14020, Note_on_c, 0, 92, 69
2, 14040, Note_on_c, 0, 92, 0
2, 14040, Note_on_c, 0, 80, 69
2, 14060, Note_on_c, 0, 80, 0
2, 14060, Note_on_c, 0, 92, 69
2, 14080, Note_on_c, 0, 92, 0
2, 14080, Note_on_c, 0, 85, 69
2, 14100, Note_on_c, 0, 85, 0
2, 14100, Note_on_c, 0, 92, 69
2, 14120, Note_on_c, 0, 92, 0
2, 14120, Note_on_c, 0, 78, 69
2, 14140, Note_on_c, 0, 78, 0
2, 14140, Note_on_c, 0, 90, 69
2, 14160, Note_on_c, 0, 90, 0
2, 14160, Note_on_c, 0, 73, 69
2, 14180, Note_on_c, 0, 73, 0
2, 14180, Note_on_c, 0, 85, 69
2, 14200, Note_on_c, 0, 85, 0
2, 14200, Note_on_c, 0, 80, 69
2, 14220, Note_on_c, 0, 80, 0
2, 14220, Note_on_c, 0, 85, 70
2, 14240, Note_on_c, 0, 85, 0
2, 14240, Note_on_c, 0, 80, 70
2, 14260, Note_on_c, 0, 80, 0
2, 14260, Note_on_c, 0, 92, 71
2, 14280, Note_on_c, 0, 92, 0
2, 14280, Note_on_c, 0, 78, 71
2, 14300, Note_on_c, 0, 78, 0
2, 14300, Note_on_c, 0, 90, 71
2, 14320, Note_on_c, 0, 90, 0
2, 14320, Note_on_c, 0, 85, 71
2, 14340, Note_on_c, 0, 85, 0
2, 14340, Note_on_c, 0, 90, 71
2, 14360, Note_on_c, 0, 90, 0
2, 14360, Note_on_c, 0, 85, 71
2, 14380, Note_on_c, 0, 85, 0
2, 14380, Note_on_c, 0, 97, 71
2, 14400, Note_on_c, 0, 97, 0
2, 14400, Note_on_c, 0, 82, 71
2, 14420, Note_on_c, 0, 82, 0
2, 14420, Note_on_c, 0, 94, 72
2, 14440, Note_on_c, 0, 94, 0
2, 14440, Note_on_c, 0, 87, 72
2, 14460, Note_on_c, 0, 87, 0
2, 14460, Note_on_c, 0, 94, 72
2, 14480, Note_on_c, 0, 94, 0
2, 14480, Note_on_c, 0, 80, 72
2, 14500, Note_on_c, 0, 80, 0
2, 14500, Note_on_c, 0, 92, 72
2, 14520, Note_on_c, 0, 92, 0
2, 14520, Note_on_c, 0, 82, 72
2, 14540, Note_on_c, 0, 82, 0
2, 14540, Note_on_c, 0, 94, 72
2, 14560, Note_on_c, 0, 94, 0
2, 14560, Note_on_c, 0, 87, 72
2, 14580, Note_on_c, 0, 87, 0
2, 14580, Note_on_c, 0, 94, 73
2, 14600, Note_on_c, 0, 94, 0
2, 14600, Note_on_c, 0, 80, 73
2, 14620, Note_on_c, 0, 80, 0
2, 14620, Note_on_c, 0, 92, 74
2, 14640, Note_on_c, 0, 92, 0
2, 14640, Note_on_c, 0, 82, 75
2, 14660, Note_on_c, 0, 82, 0
2, 14660, Note_on_c, 0, 94, 75
2, 14680, Note_on_c, 0, 94, 0
2, 14680, Note_on_c, 0, 87, 77
2, 14700, Note_on_c, 0, 87, 0
2, 14700, Note_on_c, 0, 94, 78
2, 14720, Note_on_c, 0, 94, 0
2, 14720, Note_on_c, 0, 80, 79
2, 14740, Note_on_c, 0, 80, 0
2, 14740, Note_on_c, 0, 92, 81
2, 14760, Note_on_c, 0, 92, 0
2, 14760, Note_on_c, 0, 82, 82
2, 14780, Note_on_c, 0, 82, 0
2, 14780, Note_on_c, 0, 94, 83
2, 14800, Note_on_c, 0, 94, 0
2, 14800, Note_on_c, 0, 87, 84
2, 14820, Note_on_c, 0, 87, 0
2, 14820, Note_on_c, 0, 94, 85
2, 14840, Note_on_c, 0, 94, 0
2, 14840, Note_on_c, 0, 80, 85
2, 14860, Note_on_c, 0, 80, 0
2, 14860, Note_on_c, 0, 92, 86
2, 14880, Note_on_c, 0, 92, 0
2, 14880, Note_on_c, 0, 85, 87
2, 14900, Note_on_c, 0, 85, 0
2, 14900, Note_on_c, 0, 94, 87
2, 14920, Note_on_c, 0, 94, 0
2, 14920, Note_on_c, 0, 80, 87
2, 14940, Note_on_c, 0, 80, 0
2, 14940, Note_on_c, 0, 92, 88
2, 14960, Note_on_c, 0, 92, 0
2, 14960, Note_on_c, 0, 85, 89
2, 14980, Note_on_c, 0, 85, 0
2, 14980, Note_on_c, 0, 94, 90
2, 15000, Note_on_c, 0, 94, 0
2, 15000, Note_on_c, 0, 80, 90
2, 15020, Note_on_c, 0, 80, 0
2, 15020, Note_on_c, 0, 92, 91
2, 15040, Note_on_c, 0, 92, 0
2, 15040, Note_on_c, 0, 85, 92
2, 15060, Note_on_c, 0, 85, 0
2, 15060, Note_on_c, 0, 94, 92
2, 15080, Note_on_c, 0, 94, 0
2, 15080, Note_on_c, 0, 80, 92
2, 15100, Note_on_c, 0, 80, 0
2, 15100, Note_on_c, 0, 92, 91
2, 15120, Note_on_c, 0, 92, 0
2, 15120, Note_on_c, 0, 85, 89
2, 15140, Note_on_c, 0, 85, 0
2, 15140, Note_on_c, 0, 94, 88
2, 15160, Note_on_c, 0, 94, 0
2, 15160, Note_on_c, 0, 80, 85
2, 15180, Note_on_c, 0, 80, 0
2, 15180, Note_on_c, 0, 92, 83
2, 15200, Note_on_c, 0, 92, 0
2, 15200, Note_on_c, 0, 85, 80
2, 15220, Note_on_c, 0, 85, 0
2, 15220, Note_on_c, 0, 94, 76
2, 15240, Note_on_c, 0, 94, 0
2, 15240, Note_on_c, 0, 80, 74
2, 15260, Note_on_c, 0, 80, 0
2, 15260, Note_on_c, 0, 92, 73
2, 15280, Note_on_c, 0, 92, 0
2, 15280, Note_on_c, 0, 85, 72
2, 15300, Note_on_c, 0, 85, 0
2, 15300, Note_on_c, 0, 94, 71
2, 15320, Note_on_c, 0, 94, 0
2, 15320, Note_on_c, 0, 80, 69
2, 15340, Note_on_c, 0, 80, 0
2, 15340, Note_on_c, 0, 92, 66
2, 15360, Note_on_c, 0, 92, 0
2, 15360, Note_on_c, 0, 99, 62
2, 15380, Note_on_c, 0, 99, 0
2, 15390, Note_on_c, 0, 97, 59
2, 15400, Note_on_c, 0, 97, 0
2, 15400, Note_on_c, 0, 94, 59
2, 15420, Note_on_c, 0, 94, 0
2, 15420, Note_on_c, 0, 92, 58
2, 15440, Note_on_c, 0, 92, 0
2, 15440, Note_on_c, 0, 90, 57
2, 15460, Note_on_c, 0, 90, 0
2, 15460, Note_on_c, 0, 87, 56
2, 15480, Note_on_c, 0, 87, 0
2, 15480, Note_on_c, 0, 85, 56
2, 15500, Note_on_c, 0, 85, 0
2, 15500, Note_on_c, 0, 82, 55
2, 15520, Note_on_c, 0, 82, 0
2, 15520, Note_on_c, 0, 80, 55
2, 15540, Note_on_c, 0, 80, 0
2, 15540, Note_on_c, 0, 78, 55
2, 15560, Note_on_c, 0, 78, 0
2, 15560, Note_on_c, 0, 75, 55
2, 15580, Note_on_c, 0, 75, 0
2, 15580, Note_on_c, 0, 73, 55
2, 15600, Note_on_c, 0, 73, 0
2, 15600, Note_on_c, 0, 63, 55
2, 15600, Note_on_c, 0, 66, 55
2, 15600, Note_on_c, 0, 68, 55
2, 15720, Note_on_c, 0, 68, 0
2, 15720, Note_on_c, 0, 66, 0
2, 15720, Note_on_c, 0, 63, 0
2, 15720, Note_on_c, 0, 61, 55
2, 15720, Note_on_c, 0, 65, 55
2, 15720, Note_on_c, 0, 70, 55
2, 15810, Note_on_c, 0, 70, 0
2, 15810, Note_on_c, 0, 68, 55
2, 15840, Note_on_c, 0, 68, 0
2, 15840, Note_on_c, 0, 65, 0
2, 15840, Note_on_c, 0, 61, 0
2, 15840, Note_on_c, 0, 66, 55
2, 15960, Note_on_c, 0, 66, 0
2, 15960, Note_on_c, 0, 92, 55
2, 15980, Note_on_c, 0, 92, 0
2, 15980, Note_on_c, 0, 94, 55
2, 16000, Note_on_c, 0, 94, 0
2, 16000, Note_on_c, 0, 92, 55
2, 16020, Note_on_c, 0, 92, 0
2, 16020, Note_on_c, 0, 85, 55
2, 16040, Note_on_c, 0, 85, 0
2, 16040, Note_on_c, 0, 97, 55
2, 16060, Note_on_c, 0, 97, 0
2, 16060, Note_on_c, 0, 85, 55
2, 16080, Note_on_c, 0, 85, 0
2, 16080, Note_on_c, 0, 85, 55
2, 16100, Note_on_c, 0, 85, 0
2, 16100, Note_on_c, 0, 87, 55
2, 16120, Note_on_c, 0, 87, 0
2, 16120, Note_on_c, 0, 85, 55
2, 16140, Note_on_c, 0, 85, 0
2, 16140, Note_on_c, 0, 78, 55
2, 16160, Note_on_c, 0, 78, 0
2, 16160, Note_on_c, 0, 90, 55
2, 16180, Note_on_c, 0, 90, 0
2, 16180, Note_on_c, 0, 78, 55
2, 16200, Note_on_c, 0, 78, 0
2, 16200, Note_on_c, 0, 80, 55
2, 16220, Note_on_c, 0, 80, 0
2, 16220, Note_on_c, 0, 82, 55
2, 16240, Note_on_c, 0, 82, 0
2, 16240, Note_on_c, 0, 80, 55
2, 16260, Note_on_c, 0, 80, 0
2, 16260, Note_on_c, 0, 73, 55
2, 16340, Note_on_c, 0, 73, 0
2, 16340, Note_on_c, 0, 78, 55
2, 16360, Note_on_c, 0, 78, 0
2, 16360, Note_on_c, 0, 80, 55
2, 16380, Note_on_c, 0, 80, 0
2, 16380, Note_on_c, 0, 82, 55
2, 16400, Note_on_c, 0, 82, 0
2, 16400, Note_on_c, 0, 80, 55
2, 16420, Note_on_c, 0, 80, 0
2, 16420, Note_on_c, 0, 78, 55
2, 16440, Note_on_c, 0, 78, 0
2, 16440, Note_on_c, 0, 73, 55
2, 16460, Note_on_c, 0, 73, 0
2, 16460, Note_on_c, 0, 80, 55
2, 16480, Note_on_c, 0, 80, 0
2, 16480, Note_on_c, 0, 85, 55
2, 16500, Note_on_c, 0, 85, 0
2, 16500, Note_on_c, 0, 87, 55
2, 16520, Note_on_c, 0, 87, 0
2, 16520, Note_on_c, 0, 85, 55
2, 16540, Note_on_c, 0, 85, 0
2, 16540, Note_on_c, 0, 80, 55
2, 16560, Note_on_c, 0, 80, 0
2, 16560, Note_on_c, 0, 78, 55
2, 16580, Note_on_c, 0, 78, 0
2, 16580, Note_on_c, 0, 85, 55
2, 16600, Note_on_c, 0, 85, 0
2, 16600, Note_on_c, 0, 90, 55
2, 16620, Note_on_c, 0, 90, 0
2, 16620, Note_on_c, 0, 92, 55
2, 16640, Note_on_c, 0, 92, 0
2, 16640, Note_on_c, 0, 90, 55
2, 16660, Note_on_c, 0, 90, 0
2, 16660, Note_on_c, 0, 87, 55
2, 16680, Note_on_c, 0, 87, 0
2, 16680, Note_on_c, 0, 85, 55
2, 16700, Note_on_c, 0, 85, 0
2, 16700, Note_on_c, 0, 92, 55
2, 16720, Note_on_c, 0, 92, 0
2, 16720, Note_on_c, 0, 97, 55
2, 16740, Note_on_c, 0, 97, 0
2, 16740, Note_on_c, 0, 99, 55
2, 16760, Note_on_c, 0, 99, 0
2, 16760, Note_on_c, 0, 97, 55
2, 16780, Note_on_c, 0, 97, 0
2, 16780, Note_on_c, 0, 92, 55
2, 16800, Note_on_c, 0, 92, 0
2, 16800, Note_on_c, 0, 90, 55
2, 16820, Note_on_c, 0, 90, 0
2, 16820, Note_on_c, 0, 92, 54
2, 16840, Note_on_c, 0, 92, 0
2, 16840, Note_on_c, 0, 90, 54
2, 16860, Note_on_c, 0, 90, 0
2, 16860, Note_on_c, 0, 85, 54
2, 16880, Note_on_c, 0, 85, 0
2, 16880, Note_on_c, 0, 97, 54
2, 16900, Note_on_c, 0, 97, 0
2, 16900, Note_on_c, 0, 85, 54
2, 16920, Note_on_c, 0, 85, 0
2, 16920, Note_on_c, 0, 85, 54
2, 16940, Note_on_c, 0, 85, 0
2, 16940, Note_on_c, 0, 87, 53
2, 16960, Note_on_c, 0, 87, 0
2, 16960, Note_on_c, 0, 85, 53
2, 16980, Note_on_c, 0, 85, 0
2, 16980, Note_on_c, 0, 80, 53
2, 17000, Note_on_c, 0, 80, 0
2, 17000, Note_on_c, 0, 92, 52
2, 17020, Note_on_c, 0, 92, 0
2, 17020, Note_on_c, 0, 80, 52
2, 17040, Note_on_c, 0, 80, 0
2, 17040, Note_on_c, 0, 80, 52
2, 17060, Note_on_c, 0, 80, 0
2, 17060, Note_on_c, 0, 82, 52
2, 17080, Note_on_c, 0, 82, 0
2, 17080, Note_on_c, 0, 80, 52
2, 17100, Note_on_c, 0, 80, 0
2, 17100, Note_on_c, 0, 78, 52
2, 17120, Note_on_c, 0, 78, 0
2, 17120, Note_on_c, 0, 90, 52
2, 17140, Note_on_c, 0, 90, 0
2, 17140, Note_on_c, 0, 78, 52
2, 17160, Note_on_c, 0, 78, 0
2, 17160, Note_on_c, 0, 73, 52
2, 17300, Note_on_c, 0, 73, 0
2, 17300, Note_on_c, 0, 78, 58
2, 17320, Note_on_c, 0, 78, 0
2, 17320, Note_on_c, 0, 80, 58
2, 17340, Note_on_c, 0, 80, 0
2, 17340, Note_on_c, 0, 82, 58
2, 17360, Note_on_c, 0, 82, 0
2, 17360, Note_on_c, 0, 80, 58
2, 17380, Note_on_c, 0, 80, 0
2, 17380, Note_on_c, 0, 78, 58
2, 17400, Note_on_c, 0, 78, 0
2, 17400, Note_on_c, 0, 73, 58
2, 17420, Note_on_c, 0, 73, 0
2, 17420, Note_on_c, 0, 80, 58
2, 17440, Note_on_c, 0, 80, 0
2, 17440, Note_on_c, 0, 85, 58
2, 17460, Note_on_c, 0, 85, 0
2, 17460, Note_on_c, 0, 87, 58
2, 17480, Note_on_c, 0, 87, 0
2, 17480, Note_on_c, 0, 85, 58
2, 17500, Note_on_c, 0, 85, 0
2, 17500, Note_on_c, 0, 80, 59
2, 17520, Note_on_c, 0, 80, 0
2, 17520, Note_on_c, 0, 78, 59
2, 17540, Note_on_c, 0, 78, 0
2, 17540, Note_on_c, 0, 85, 59
2, 17560, Note_on_c, 0, 85, 0
2, 17560, Note_on_c, 0, 90, 59
2, 17580, Note_on_c, 0, 90, 0
2, 17580, Note_on_c, 0, 92, 60
2, 17600, Note_on_c, 0, 92, 0
2, 17600, Note_on_c, 0, 90, 60
2, 17620, Note_on_c, 0, 90, 0
2, 17620, Note_on_c, 0, 85, 61
2, 17640, Note_on_c, 0, 85, 0
2, 17640, Note_on_c, 0, 80, 61
2, 17660, Note_on_c, 0, 80, 0
2, 17660, Note_on_c, 0, 85, 62
2, 17680, Note_on_c, 0, 85, 0
2, 17680, Note_on_c, 0, 92, 62
2, 17700, Note_on_c, 0, 92, 0
2, 17700, Note_on_c, 0, 94, 62
2, 17720, Note_on_c, 0, 94, 0
2, 17720, Note_on_c, 0, 92, 63
2, 17740, Note_on_c, 0, 92, 0
2, 17740, Note_on_c, 0, 85, 63
2, 17760, Note_on_c, 0, 85, 0
2, 17760, Note_on_c, 0, 94, 63
2, 17780, Note_on_c, 0, 94, 0
2, 17780, Note_on_c, 0, 85, 63
2, 17800, Note_on_c, 0, 85, 0
2, 17800, Note_on_c, 0, 92, 63
2, 17820, Note_on_c, 0, 92, 0
2, 17820, Note_on_c, 0, 82, 64
2, 17840, Note_on_c, 0, 82, 0
2, 17840, Note_on_c, 0, 92, 65
2, 17860, Note_on_c, 0, 92, 0
2, 17860, Note_on_c, 0, 85, 66
2, 17880, Note_on_c, 0, 85, 0
2, 17880, Note_on_c, 0, 90, 66
2, 17900, Note_on_c, 0, 90, 0
2, 17900, Note_on_c, 0, 82, 66
2, 17920, Note_on_c, 0, 82, 0
2, 17920, Note_on_c, 0, 87, 67
2, 17940, Note_on_c, 0, 87, 0
2, 17940, Note_on_c, 0, 80, 68
2, 17960, Note_on_c, 0, 80, 0
2, 17960, Note_on_c, 0, 85, 69
2, 17980, Note_on_c, 0, 85, 0
2, 17980, Note_on_c, 0, 73, 69
2, 18000, Note_on_c, 0, 73, 0
2, 18000, Note_on_c, 0, 82, 70
2, 18020, Note_on_c, 0, 82, 0
2, 18020, Note_on_c, 0, 73, 70
2, 18040, Note_on_c, 0, 73, 0
2, 18040, Note_on_c, 0, 80, 71
2, 18060, Note_on_c, 0, 80, 0
2, 18060, Note_on_c, 0, 70, 71
2, 18080, Note_on_c, 0, 70, 0
2, 18080, Note_on_c, 0, 80, 71
2, 18100, Note_on_c, 0, 80, 0
2, 18100, Note_on_c, 0, 73, 72
2, 18120, Note_on_c, 0, 73, 0
2, 18120, Note_on_c, 0, 78, 72
2, 18140, Note_on_c, 0, 78, 0
2, 18140, Note_on_c, 0, 70, 73
2, 18160, Note_on_c, 0, 70, 0
2, 18160, Note_on_c, 0, 75, 74
2, 18180, Note_on_c, 0, 75, 0
2, 18180, Note_on_c, 0, 68, 74
2, 18200, Note_on_c, 0, 68, 0
2, 18200, Note_on_c, 0, 73, 75
2, 18220, Note_on_c, 0, 73, 0
2, 18220, Note_on_c, 0, 61, 75
2, 18240, Note_on_c, 0, 61, 0
2, 18240, Note_on_c, 0, 70, 76
2, 18260, Note_on_c, 0, 70, 0
2, 18260, Note_on_c, 0, 61, 77
2, 18280, Note_on_c, 0, 61, 0
2, 18280, Note_on_c, 0, 68, 77
2, 18300, Note_on_c, 0, 68, 0
2, 18300, Note_on_c, 0, 58, 78
2, 18320, Note_on_c, 0, 58, 0
2, 18320, Note_on_c, 0, 68, 79
2, 18340, Note_on_c, 0, 68, 0
2, 18340, Note_on_c, 0, 61, 79
2, 18360, Note_on_c, 0, 61, 0
2, 18360, Note_on_c, 0, 66, 80
2, 18380, Note_on_c, 0, 66, 0
2, 18380, Note_on_c, 0, 58, 81
2, 18400, Note_on_c, 0, 58, 0
2, 18400, Note_on_c, 0, 63, 81
2, 18420, Note_on_c, 0, 63, 0
2, 18420, Note_on_c, 0, 56, 82
2, 18440, Note_on_c, 0, 56, 0
2, 18440, Note_on_c, 0, 61, 83
2, 18460, Note_on_c, 0, 61, 0
2, 18460, Note_on_c, 0, 49, 83
2, 18480, Note_on_c, 0, 49, 0
2, 18480, Note_on_c, 0, 58, 84
2, 18500, Note_on_c, 0, 58, 0
2, 18500, Note_on_c, 0, 54, 84
2, 18520, Note_on_c, 0, 54, 0
2, 18520, Note_on_c, 0, 63, 85
2, 18540, Note_on_c, 0, 63, 0
2, 18540, Note_on_c, 0, 49, 86
2, 18560, Note_on_c, 0, 49, 0
2, 18560, Note_on_c, 0, 61, 86
2, 18580, Note_on_c, 0, 61, 0
2, 18580, Note_on_c, 0, 56, 87
2, 18600, Note_on_c, 0, 56, 0
2, 18600, Note_on_c, 0, 58, 88
2, 18620, Note_on_c, 0, 58, 0
2, 18620, Note_on_c, 0, 54, 88
2, 18640, Note_on_c, 0, 54, 0
2, 18640, Note_on_c, 0, 63, 89
2, 18660, Note_on_c, 0, 63, 0
2, 18660, Note_on_c, 0, 49, 90
2, 18680, Note_on_c, 0, 49, 0
2, 18680, Note_on_c, 0, 61, 91
2, 18700, Note_on_c, 0, 61, 0
2, 18700, Note_on_c, 0, 56, 91
2, 18720, Note_on_c, 0, 56, 0
2, 18720, Note_on_c, 0, 58, 92
2, 18780, Note_on_c, 0, 58, 0
2, 18780, Note_on_c, 0, 54, 52
2, 18780, Note_on_c, 0, 58, 52
2, 18800, Note_on_c, 0, 58, 0
2, 18800, Note_on_c, 0, 54, 0
2, 18800, Note_on_c, 0, 56, 52
2, 18820, Note_on_c, 0, 56, 0
2, 18820, Note_on_c, 0, 54, 53
2, 18840, Note_on_c, 0, 54, 0
2, 18840, Note_on_c, 0, 66, 54
2, 18840, Note_on_c, 0, 63, 54
2, 18860, Note_on_c, 0, 63, 0
2, 18860, Note_on_c, 0, 66, 0
2, 18860, Note_on_c, 0, 61, 54
2, 18880, Note_on_c, 0, 61, 0
2, 18880, Note_on_c, 0, 58, 54
2, 18900, Note_on_c, 0, 58, 0
2, 18900, Note_on_c, 0, 70, 55
2, 18900, Note_on_c, 0, 66, 55
2, 18920, Note_on_c, 0, 66, 0
2, 18920, Note_on_c, 0, 70, 0
2, 18920, Note_on_c, 0, 63, 55
2, 18940, Note_on_c, 0, 63, 0
2, 18940, Note_on_c, 0, 61, 55
2, 18960, Note_on_c, 0, 61, 0
2, 18960, Note_on_c, 0, 70, 55
2, 18960, Note_on_c, 0, 73, 55
2, 18980, Note_on_c, 0, 73, 0
2, 18980, Note_on_c, 0, 70, 0
2, 18980, Note_on_c, 0, 68, 55
2, 19000, Note_on_c, 0, 68, 0
2, 19000, Note_on_c, 0, 66, 55
2, 19020, Note_on_c, 0, 66, 0
2, 19020, Note_on_c, 0, 78, 56
2, 19020, Note_on_c, 0, 75, 56
2, 19040, Note_on_c, 0, 75, 0
2, 19040, Note_on_c, 0, 78, 0
2, 19040, Note_on_c, 0, 73, 56
2, 19060, Note_on_c, 0, 73, 0
2, 19060, Note_on_c, 0, 70, 56
2, 19080, Note_on_c, 0, 70, 0
2, 19080, Note_on_c, 0, 82, 57
2, 19080, Note_on_c, 0, 78, 57
2, 19100, Note_on_c, 0, 78, 0
2, 19100, Note_on_c, 0, 82, 0
2, 19100, Note_on_c, 0, 75, 57
2, 19120, Note_on_c, 0, 75, 0
2, 19120, Note_on_c, 0, 73, 58
2, 19140, Note_on_c, 0, 73, 0
2, 19140, Note_on_c, 0, 85, 58
2, 19140, Note_on_c, 0, 82, 58
2, 19160, Note_on_c, 0, 82, 0
2, 19160, Note_on_c, 0, 85, 0
2, 19160, Note_on_c, 0, 80, 59
2, 19180, Note_on_c, 0, 80, 0
2, 19180, Note_on_c, 0, 78, 59
2, 19200, Note_on_c, 0, 78, 0
2, 19200, Note_on_c, 0, 90, 60
2, 19200, Note_on_c, 0, 87, 60
2, 19220, Note_on_c, 0, 87, 0
2, 19220, Note_on_c, 0, 90, 0
2, 19220, Note_on_c, 0, 85, 60
2, 19240, Note_on_c, 0, 85, 0
2, 19240, Note_on_c, 0, 82, 60
2, 19260, Note_on_c, 0, 82, 0
2, 19260, Note_on_c, 0, 94, 61
2, 19260, Note_on_c, 0, 90, 61
2, 19280, Note_on_c, 0, 90, 0
2, 19280, Note_on_c, 0, 94, 0
2, 19280, Note_on_c, 0, 87, 62
2, 19300, Note_on_c, 0, 87, 0
2, 19300, Note_on_c, 0, 85, 62
2, 19320, Note_on_c, 0, 85, 0
2, 19320, Note_on_c, 0, 90, 63
2, 19320, Note_on_c, 0, 87, 63
2, 19340, Note_on_c, 0, 87, 0
2, 19340, Note_on_c, 0, 90, 0
2, 19340, Note_on_c, 0, 85, 63
2, 19360, Note_on_c, 0, 85, 0
2, 19360, Note_on_c, 0, 82, 64
2, 19380, Note_on_c, 0, 82, 0
2, 19380, Note_on_c, 0, 94, 64
2, 19380, Note_on_c, 0, 90, 64
2, 19400, Note_on_c, 0, 90, 0
2, 19400, Note_on_c, 0, 94, 0
2, 19400, Note_on_c, 0, 87, 64
2, 19420, Note_on_c, 0, 87, 0
2, 19420, Note_on_c, 0, 85, 65
2, 19440, Note_on_c, 0, 85, 0
2, 19440, Note_on_c, 0, 90, 66
2, 19440, Note_on_c, 0, 87, 66
2, 19460, Note_on_c, 0, 87, 0
2, 19460, Note_on_c, 0, 90, 0
2, 19460, Note_on_c, 0, 85, 66
2, 19480, Note_on_c, 0, 85, 0
2, 19480, Note_on_c, 0, 82, 67
2, 19500, Note_on_c, 0, 82, 0
2, 19500, Note_on_c, 0, 94, 68
2, 19500, Note_on_c, 0, 90, 68
2, 19520, Note_on_c, 0, 90, 0
2, 19520, Note_on_c, 0, 94, 0
2, 19520, Note_on_c, 0, 87, 68
2, 19540, Note_on_c, 0, 87, 0
2, 19540, Note_on_c, 0, 85, 70
2, 19560, Note_on_c, 0, 85, 0
2, 19560, Note_on_c, 0, 90, 72
2, 19560, Note_on_c, 0, 87, 72
2, 19580, Note_on_c, 0, 87, 0
2, 19580, Note_on_c, 0, 90, 0
2, 19580, Note_on_c, 0, 85, 74
2, 19600, Note_on_c, 0, 85, 0
2, 19600, Note_on_c, 0, 82, 76
2, 19620, Note_on_c, 0, 82, 0
2, 19620, Note_on_c, 0, 94, 77
2, 19620, Note_on_c, 0, 90, 77
2, 19640, Note_on_c, 0, 90, 0
2, 19640, Note_on_c, 0, 94, 0
2, 19640, Note_on_c, 0, 87, 78
2, 19660, Note_on_c, 0, 87, 0
2, 19660, Note_on_c, 0, 85, 79
2, 19680, Note_on_c, 0, 85, 0
2, 19680, Note_on_c, 0, 82, 80
2, 19680, Note_on_c, 0, 90, 80
2, 19700, Note_on_c, 0, 90, 0
2, 19700, Note_on_c, 0, 82, 0
2, 19720, Note_on_c, 0, 78, 83
2, 19720, Note_on_c, 0, 90, 83
2, 19740, Note_on_c, 0, 90, 0
2, 19740, Note_on_c, 0, 78, 0
2, 19740, Note_on_c, 0, 87, 84
2, 19740, Note_on_c, 0, 75, 84
2, 19760, Note_on_c, 0, 75, 0
2, 19760, Note_on_c, 0, 87, 0
2, 19760, Note_on_c, 0, 85, 85
2, 19760, Note_on_c, 0, 73, 85
2, 19780, Note_on_c, 0, 73, 0
2, 19780, Note_on_c, 0, 85, 0
2, 19780, Note_on_c, 0, 82, 87
2, 19780, Note_on_c, 0, 70, 87
2, 19800, Note_on_c, 0, 70, 0
2, 19800, Note_on_c, 0, 82, 0
2, 19800, Note_on_c, 0, 80, 88
2, 19800, Note_on_c, 0, 68, 88
2, 19820, Note_on_c, 0, 68, 0
2, 19820, Note_on_c, 0, 80, 0
2, 19820, Note_on_c, 0, 78, 89
2, 19820, Note_on_c, 0, 66, 89
2, 19840, Note_on_c, 0, 66, 0
2, 19840, Note_on_c, 0, 78, 0
2, 19840, Note_on_c, 0, 75, 90
2, 19840, Note_on_c, 0, 63, 90
2, 19860, Note_on_c, 0, 63, 0
2, 19860, Note_on_c, 0, 75, 0
2, 19860, Note_on_c, 0, 73, 91
2, 19860, Note_on_c, 0, 61, 91
2, 19880, Note_on_c, 0, 61, 0
2, 19880, Note_on_c, 0, 73, 0
2, 19880, Note_on_c, 0, 70, 92
2, 19880, Note_on_c, 0, 58, 92
2, 19900, Note_on_c, 0, 58, 0
2, 19900, Note_on_c, 0, 70, 0
2, 19900, Note_on_c, 0, 68, 93
2, 19900, Note_on_c, 0, 56, 93
2, 19920, Note_on_c, 0, 56, 0
2, 19920, Note_on_c, 0, 68, 0
2, 19920, Note_on_c, 0, 54, 94
2, 19920, Note_on_c, 0, 66, 94
2, 19980, Note_on_c, 0, 66, 0
2, 19980, Note_on_c, 0, 54, 0
2, 20040, Note_on_c, 0, 94, 122
2, 20040, Note_on_c, 0, 90, 122
2, 20040, Note_on_c, 0, 85, 122
2, 20040, Note_on_c, 0, 82, 122
2, 20160, Note_on_c, 0, 82, 0
2, 20160, Note_on_c, 0, 94, 0
2, 20160, Note_on_c, 0, 90, 0
2, 20160, Note_on_c, 0, 85, 0
2, 20160, Note_on_c, 0, 54, 122
2, 20400, Note_on_c, 0, 54, 0
2, 20400, End_track
3, 0, Start_track
3, 0, MIDI_port, 0
3, 0, Title_t, "Piano left hand 1"
3, 0, Program_c, 1, 0
3, 1740, Note_on_c, 1, 74, 59
3, 1740, Note_on_c, 1, 58, 59
3, 1740, Note_on_c, 1, 65, 59
3, 1800, Note_on_c, 1, 65, 0
3, 1800, Note_on_c, 1, 58, 0
3, 1800, Note_on_c, 1, 74, 0
3, 1920, Note_on_c, 1, 54, 70
3, 1920, Note_on_c, 1, 58, 70
3, 1920, Note_on_c, 1, 61, 70
3, 1920, Note_on_c, 1, 66, 70
3, 1980, Note_on_c, 1, 66, 0
3, 1980, Note_on_c, 1, 54, 0
3, 1980, Note_on_c, 1, 58, 0
3, 1980, Note_on_c, 1, 61, 0
3, 1980, Note_on_c, 1, 54, 72
3, 1980, Note_on_c, 1, 59, 72
3, 1980, Note_on_c, 1, 63, 72
3, 1980, Note_on_c, 1, 66, 72
3, 2040, Note_on_c, 1, 66, 0
3, 2040, Note_on_c, 1, 54, 0
3, 2040, Note_on_c, 1, 59, 0
3, 2040, Note_on_c, 1, 63, 0
3, 2040, Note_on_c, 1, 54, 75
3, 2040, Note_on_c, 1, 58, 75
3, 2040, Note_on_c, 1, 61, 75
3, 2040, Note_on_c, 1, 66, 75
3, 2100, Note_on_c, 1, 66, 0
3, 2100, Note_on_c, 1, 54, 0
3, 2100, Note_on_c, 1, 58, 0
3, 2100, Note_on_c, 1, 61, 0
3, 3840, Note_on_c, 1, 60, 63
3, 3840, Note_on_c, 1, 68, 63
3, 3840, Note_on_c, 1, 66, 63
3, 3900, Note_on_c, 1, 66, 0
3, 3900, Note_on_c, 1, 68, 0
3, 3900, Note_on_c, 1, 60, 0
3, 3900, Note_on_c, 1, 56, 63
3, 3900, Note_on_c, 1, 68, 63
3, 3900, Note_on_c, 1, 66, 63
3, 3960, Note_on_c, 1, 66, 0
3, 3960, Note_on_c, 1, 68, 0
3, 3960, Note_on_c, 1, 56, 0
3, 3960, Note_on_c, 1, 61, 63
3, 3960, Note_on_c, 1, 65, 63
3, 3960, Note_on_c, 1, 70, 63
3, 4020, Note_on_c, 1, 70, 0
3, 4020, Note_on_c, 1, 65, 0
3, 4020, Note_on_c, 1, 61, 0
3, 4020, Note_on_c, 1, 56, 63
3, 4020, Note_on_c, 1, 65, 63
3, 4020, Note_on_c, 1, 68, 63
3, 4080, Note_on_c, 1, 68, 0
3, 4080, Note_on_c, 1, 65, 0
3, 4080, Note_on_c, 1, 56, 0
3, 4080, Note_on_c, 1, 60, 63
3, 4080, Note_on_c, 1, 66, 63
3, 4080, Note_on_c, 1, 70, 63
3, 4140, Note_on_c, 1, 70, 0
3, 4140, Note_on_c, 1, 66, 0
3, 4140, Note_on_c, 1, 60, 0
3, 4140, Note_on_c, 1, 56, 63
3, 4140, Note_on_c, 1, 68, 63
3, 4140, Note_on_c, 1, 66, 63
3, 4200, Note_on_c, 1, 66, 0
3, 4200, Note_on_c, 1, 68, 0
3, 4200, Note_on_c, 1, 56, 0
3, 4200, Note_on_c, 1, 61, 63
3, 4200, Note_on_c, 1, 65, 63
3, 4260, Note_on_c, 1, 65, 0
3, 4260, Note_on_c, 1, 61, 0
3, 4260, Note_on_c, 1, 56, 63
3, 4320, Note_on_c, 1, 56, 0
3, 4860, Note_on_c, 1, 60, 63
3, 4860, Note_on_c, 1, 68, 63
3, 4860, Note_on_c, 1, 66, 63
3, 4920, Note_on_c, 1, 66, 0
3, 4920, Note_on_c, 1, 68, 0
3, 4920, Note_on_c, 1, 60, 0
3, 4920, Note_on_c, 1, 61, 63
3, 4920, Note_on_c, 1, 65, 63
3, 4920, Note_on_c, 1, 70, 63
3, 4980, Note_on_c, 1, 70, 0
3, 4980, Note_on_c, 1, 65, 0
3, 4980, Note_on_c, 1, 61, 0
3, 4980, Note_on_c, 1, 56, 63
3, 4980, Note_on_c, 1, 65, 63
3, 4980, Note_on_c, 1, 68, 63
3, 5040, Note_on_c, 1, 68, 0
3, 5040, Note_on_c, 1, 65, 0
3, 5040, Note_on_c, 1, 56, 0
3, 5040, Note_on_c, 1, 60, 63
3, 5040, Note_on_c, 1, 66, 63
3, 5040, Note_on_c, 1, 70, 63
3, 5100, Note_on_c, 1, 70, 0
3, 5100, Note_on_c, 1, 66, 0
3, 5100, Note_on_c, 1, 60, 0
3, 5100, Note_on_c, 1, 56, 63
3, 5100, Note_on_c, 1, 68, 63
3, 5100, Note_on_c, 1, 66, 63
3, 5160, Note_on_c, 1, 66, 0
3, 5160, Note_on_c, 1, 68, 0
3, 5160, Note_on_c, 1, 56, 0
3, 5160, Note_on_c, 1, 61, 63
3, 5160, Note_on_c, 1, 65, 63
3, 5220, Note_on_c, 1, 65, 0
3, 5220, Note_on_c, 1, 61, 0
3, 5220, Note_on_c, 1, 56, 63
3, 5280, Note_on_c, 1, 56, 0
3, 9000, Note_on_c, 1, 68, 62
3, 9000, Note_on_c, 1, 66, 52
3, 9000, Note_on_c, 1, 59, 52
3, 9000, Note_on_c, 1, 56, 52
3, 9090, Note_on_c, 1, 56, 0
3, 9090, Note_on_c, 1, 68, 0
3, 9090, Note_on_c, 1, 66, 0
3, 9090, Note_on_c, 1, 59, 0
3, 9090, Note_on_c, 1, 68, 59
3, 9090, Note_on_c, 1, 66, 59
3, 9090, Note_on_c, 1, 59, 59
3, 9090, Note_on_c, 1, 56, 59
3, 9120, Note_on_c, 1, 56, 0
3, 9120, Note_on_c, 1, 68, 0
3, 9120, Note_on_c, 1, 66, 0
3, 9120, Note_on_c, 1, 59, 0
3, 9120, Note_on_c, 1, 68, 59
3, 9120, Note_on_c, 1, 66, 59
3, 9120, Note_on_c, 1, 59, 59
3, 9120, Note_on_c, 1, 56, 59
3, 9360, Note_on_c, 1, 56, 0
3, 9360, Note_on_c, 1, 68, 0
3, 9360, Note_on_c, 1, 66, 0
3, 9360, Note_on_c, 1, 59, 0
3, 10620, Note_on_c, 1, 56, 72
3, 10620, Note_on_c, 1, 61, 72
3, 10620, Note_on_c, 1, 65, 72
3, 10680, Note_on_c, 1, 65, 0
3, 10680, Note_on_c, 1, 61, 0
3, 10680, Note_on_c, 1, 56, 0
3, 10680, Note_on_c, 1, 57, 72
3, 10680, Note_on_c, 1, 61, 72
3, 10680, Note_on_c, 1, 66, 72
3, 10740, Note_on_c, 1, 66, 0
3, 10740, Note_on_c, 1, 61, 0
3, 10740, Note_on_c, 1, 57, 0
3, 10740, Note_on_c, 1, 58, 72
3, 10740, Note_on_c, 1, 61, 72
3, 10740, Note_on_c, 1, 67, 72
3, 10800, Note_on_c, 1, 67, 0
3, 10800, Note_on_c, 1, 61, 0
3, 10800, Note_on_c, 1, 58, 0
3, 10800, Note_on_c, 1, 59, 72
3, 10800, Note_on_c, 1, 61, 72
3, 10800, Note_on_c, 1, 68, 72
3, 10920, Note_on_c, 1, 68, 0
3, 10920, Note_on_c, 1, 61, 0
3, 10920, Note_on_c, 1, 59, 0
3, 10920, Note_on_c, 1, 58, 73
3, 10920, Note_on_c, 1, 61, 73
3, 10920, Note_on_c, 1, 67, 73
3, 10980, Note_on_c, 1, 67, 0
3, 10980, Note_on_c, 1, 61, 0
3, 10980, Note_on_c, 1, 58, 0
3, 10980, Note_on_c, 1, 57, 74
3, 10980, Note_on_c, 1, 61, 74
3, 10980, Note_on_c, 1, 66, 74
3, 11040, Note_on_c, 1, 66, 0
3, 11040, Note_on_c, 1, 61, 0
3, 11040, Note_on_c, 1, 57, 0
3, 11040, Note_on_c, 1, 56, 74
3, 11040, Note_on_c, 1, 61, 74
3, 11040, Note_on_c, 1, 65, 74
3, 11100, Note_on_c, 1, 65, 0
3, 11100, Note_on_c, 1, 61, 0
3, 11100, Note_on_c, 1, 56, 0
3, 11160, Note_on_c, 1, 59, 76
3, 11160, Note_on_c, 1, 61, 76
3, 11160, Note_on_c, 1, 65, 76
3, 11160, Note_on_c, 1, 68, 76
3, 11220, Note_on_c, 1, 68, 0
3, 11220, Note_on_c, 1, 70, 76
3, 11280, Note_on_c, 1, 70, 0
3, 11280, Note_on_c, 1, 65, 0
3, 11280, Note_on_c, 1, 61, 0
3, 11280, Note_on_c, 1, 59, 0
3, 11280, Note_on_c, 1, 59, 77
3, 11280, Note_on_c, 1, 61, 77
3, 11280, Note_on_c, 1, 65, 77
3, 11280, Note_on_c, 1, 71, 77
3, 11400, Note_on_c, 1, 71, 0
3, 11400, Note_on_c, 1, 70, 78
3, 11460, Note_on_c, 1, 70, 0
3, 11460, Note_on_c, 1, 68, 78
3, 11520, Note_on_c, 1, 68, 0
3, 11520, Note_on_c, 1, 59, 0
3, 11520, Note_on_c, 1, 61, 0
3, 11520, Note_on_c, 1, 65, 0
3, 11520, Note_on_c, 1, 54, 79
3, 11520, Note_on_c, 1, 66, 79
3, 11520, Note_on_c, 1, 61, 79
3, 11520, Note_on_c, 1, 58, 79
3, 11580, Note_on_c, 1, 58, 0
3, 11580, Note_on_c, 1, 54, 0
3, 11580, Note_on_c, 1, 66, 0
3, 11580, Note_on_c, 1, 61, 0
3, 11580, Note_on_c, 1, 59, 79
3, 11580, Note_on_c, 1, 54, 79
3, 11580, Note_on_c, 1, 63, 79
3, 11580, Note_on_c, 1, 66, 79
3, 11640, Note_on_c, 1, 66, 0
3, 11640, Note_on_c, 1, 59, 0
3, 11640, Note_on_c, 1, 54, 0
3, 11640, Note_on_c, 1, 63, 0
3, 11640, Note_on_c, 1, 61, 80
3, 11640, Note_on_c, 1, 66, 80
3, 11640, Note_on_c, 1, 58, 80
3, 11640, Note_on_c, 1, 54, 80
3, 11700, Note_on_c, 1, 54, 0
3, 11700, Note_on_c, 1, 61, 0
3, 11700, Note_on_c, 1, 66, 0
3, 11700, Note_on_c, 1, 58, 0
3, 13500, Note_on_c, 1, 59, 65
3, 13500, Note_on_c, 1, 68, 65
3, 13500, Note_on_c, 1, 63, 65
3, 13560, Note_on_c, 1, 63, 0
3, 13560, Note_on_c, 1, 68, 0
3, 13560, Note_on_c, 1, 59, 0
3, 13620, Note_on_c, 1, 66, 65
3, 13620, Note_on_c, 1, 58, 65
3, 13620, Note_on_c, 1, 61, 65
3, 13680, Note_on_c, 1, 61, 0
3, 13680, Note_on_c, 1, 58, 0
3, 13680, Note_on_c, 1, 66, 0
3, 13740, Note_on_c, 1, 65, 64
3, 13740, Note_on_c, 1, 61, 64
3, 13740, Note_on_c, 1, 59, 64
3, 13740, Note_on_c, 1, 68, 64
3, 13800, Note_on_c, 1, 68, 0
3, 13800, Note_on_c, 1, 65, 0
3, 13800, Note_on_c, 1, 61, 0
3, 13800, Note_on_c, 1, 59, 0
3, 13860, Note_on_c, 1, 70, 64
3, 13860, Note_on_c, 1, 61, 64
3, 13860, Note_on_c, 1, 66, 64
3, 13860, Note_on_c, 1, 58, 64
3, 13920, Note_on_c, 1, 58, 0
3, 13920, Note_on_c, 1, 70, 0
3, 13920, Note_on_c, 1, 61, 0
3, 13920, Note_on_c, 1, 66, 0
3, 13980, Note_on_c, 1, 63, 64
3, 13980, Note_on_c, 1, 68, 64
3, 13980, Note_on_c, 1, 59, 64
3, 14040, Note_on_c, 1, 59, 0
3, 14040, Note_on_c, 1, 68, 0
3, 14040, Note_on_c, 1, 63, 0
3, 14100, Note_on_c, 1, 66, 64
3, 14100, Note_on_c, 1, 58, 64
3, 14100, Note_on_c, 1, 61, 64
3, 14160, Note_on_c, 1, 61, 0
3, 14160, Note_on_c, 1, 58, 0
3, 14160, Note_on_c, 1, 66, 0
3, 14220, Note_on_c, 1, 65, 64
3, 14220, Note_on_c, 1, 61, 64
3, 14220, Note_on_c, 1, 68, 64
3, 14220, Note_on_c, 1, 59, 64
3, 14280, Note_on_c, 1, 59, 0
3, 14280, Note_on_c, 1, 65, 0
3, 14280, Note_on_c, 1, 61, 0
3, 14280, Note_on_c, 1, 68, 0
3, 14340, Note_on_c, 1, 66, 63
3, 14340, Note_on_c, 1, 61, 63
3, 14340, Note_on_c, 1, 70, 63
3, 14340, Note_on_c, 1, 58, 63
3, 14400, Note_on_c, 1, 58, 0
3, 14400, Note_on_c, 1, 66, 0
3, 14400, Note_on_c, 1, 61, 0
3, 14400, Note_on_c, 1, 70, 0
3, 15000, Note_on_c, 1, 66, 77
3, 15000, Note_on_c, 1, 68, 92
3, 15000, Note_on_c, 1, 61, 77
3, 15000, Note_on_c, 1, 56, 77
3, 15120, Note_on_c, 1, 56, 0
3, 15120, Note_on_c, 1, 66, 0
3, 15120, Note_on_c, 1, 68, 0
3, 15120, Note_on_c, 1, 61, 0
3, 15120, Note_on_c, 1, 68, 79
3, 15120, Note_on_c, 1, 73, 94
3, 15120, Note_on_c, 1, 66, 79
3, 15240, Note_on_c, 1, 66, 0
3, 15240, Note_on_c, 1, 73, 0
3, 15240, Note_on_c, 1, 68, 0
3, 15840, Note_on_c, 1, 58, 54
3, 15840, Note_on_c, 1, 54, 54
3, 15840, Note_on_c, 1, 66, 54
3, 15900, Note_on_c, 1, 66, 0
3, 15900, Note_on_c, 1, 58, 0
3, 15900, Note_on_c, 1, 61, 54
3, 15960, Note_on_c, 1, 61, 0
3, 15960, Note_on_c, 1, 68, 54
3, 15960, Note_on_c, 1, 59, 54
3, 16020, Note_on_c, 1, 59, 0
3, 16020, Note_on_c, 1, 68, 0
3, 16020, Note_on_c, 1, 56, 54
3, 16020, Note_on_c, 1, 65, 54
3, 16080, Note_on_c, 1, 65, 0
3, 16080, Note_on_c, 1, 56, 0
3, 16080, Note_on_c, 1, 54, 0
3, 16080, Note_on_c, 1, 66, 54
3, 16080, Note_on_c, 1, 54, 54
3, 16080, Note_on_c, 1, 58, 54
3, 16140, Note_on_c, 1, 58, 0
3, 16140, Note_on_c, 1, 66, 0
3, 16140, Note_on_c, 1, 61, 54
3, 16200, Note_on_c, 1, 61, 0
3, 16200, Note_on_c, 1, 68, 55
3, 16200, Note_on_c, 1, 59, 55
3, 16260, Note_on_c, 1, 59, 0
3, 16260, Note_on_c, 1, 68, 0
3, 16260, Note_on_c, 1, 56, 55
3, 16260, Note_on_c, 1, 65, 55
3, 16320, Note_on_c, 1, 65, 0
3, 16320, Note_on_c, 1, 56, 0
3, 16320, Note_on_c, 1, 54, 0
3, 16800, Note_on_c, 1, 66, 58
3, 16800, Note_on_c, 1, 58, 58
3, 16800, Note_on_c, 1, 54, 58
3, 16860, Note_on_c, 1, 58, 0
3, 16860, Note_on_c, 1, 66, 0
3, 16860, Note_on_c, 1, 61, 58
3, 16920, Note_on_c, 1, 61, 0
3, 16920, Note_on_c, 1, 59, 58
3, 16920, Note_on_c, 1, 68, 58
3, 16980, Note_on_c, 1, 68, 0
3, 16980, Note_on_c, 1, 59, 0
3, 16980, Note_on_c, 1, 65, 58
3, 16980, Note_on_c, 1, 56, 58
3, 17040, Note_on_c, 1, 56, 0
3, 17040, Note_on_c, 1, 65, 0
3, 17040, Note_on_c, 1, 54, 0
3, 17040, Note_on_c, 1, 66, 58
3, 17040, Note_on_c, 1, 54, 58
3, 17040, Note_on_c, 1, 58, 58
3, 17100, Note_on_c, 1, 58, 0
3, 17100, Note_on_c, 1, 66, 0
3, 17100, Note_on_c, 1, 61, 59
3, 17160, Note_on_c, 1, 61, 0
3, 17160, Note_on_c, 1, 59, 59
3, 17160, Note_on_c, 1, 68, 59
3, 17220, Note_on_c, 1, 68, 0
3, 17220, Note_on_c, 1, 59, 0
3, 17220, Note_on_c, 1, 65, 59
3, 17220, Note_on_c, 1, 56, 59
3, 17280, Note_on_c, 1, 56, 0
3, 17280, Note_on_c, 1, 65, 0
3, 17280, Note_on_c, 1, 54, 0
3, 17760, Note_on_c, 1, 54, 68
3, 17760, Note_on_c, 1, 61, 70
3, 17760, Note_on_c, 1, 70, 90
3, 17880, Note_on_c, 1, 70, 0
3, 17880, Note_on_c, 1, 61, 0
3, 17880, Note_on_c, 1, 54, 0
3, 19140, Note_on_c, 1, 54, 48
3, 19160, Note_on_c, 1, 54, 0
3, 19160, Note_on_c, 1, 61, 48
3, 19180, Note_on_c, 1, 61, 0
3, 19180, Note_on_c, 1, 70, 48
3, 19200, Note_on_c, 1, 70, 0
3, 19200, Note_on_c, 1, 58, 48
3, 19220, Note_on_c, 1, 58, 0
3, 19220, Note_on_c, 1, 66, 48
3, 19240, Note_on_c, 1, 66, 0
3, 19240, Note_on_c, 1, 73, 48
3, 19260, Note_on_c, 1, 73, 0
3, 19260, Note_on_c, 1, 61, 48
3, 19280, Note_on_c, 1, 61, 0
3, 19280, Note_on_c, 1, 70, 48
3, 19300, Note_on_c, 1, 70, 0
3, 19300, Note_on_c, 1, 78, 48
3, 19320, Note_on_c, 1, 78, 0
3, 19320, Note_on_c, 1, 66, 48
3, 19340, Note_on_c, 1, 66, 0
3, 19340, Note_on_c, 1, 70, 48
3, 19360, Note_on_c, 1, 70, 0
3, 19360, Note_on_c, 1, 78, 48
3, 19380, Note_on_c, 1, 78, 0
3, 19380, Note_on_c, 1, 61, 48
3, 19400, Note_on_c, 1, 61, 0
3, 19400, Note_on_c, 1, 70, 48
3, 19420, Note_on_c, 1, 70, 0
3, 19420, Note_on_c, 1, 78, 48
3, 19440, Note_on_c, 1, 78, 0
3, 19440, Note_on_c, 1, 66, 48
3, 19460, Note_on_c, 1, 66, 0
3, 19460, Note_on_c, 1, 70, 48
3, 19480, Note_on_c, 1, 70, 0
3, 19480, Note_on_c, 1, 78, 48
3, 19500, Note_on_c, 1, 78, 0
3, 19500, Note_on_c, 1, 61, 48
3, 19520, Note_on_c, 1, 61, 0
3, 19520, Note_on_c, 1, 70, 48
3, 19540, Note_on_c, 1, 70, 0
3, 19540, Note_on_c, 1, 78, 48
3, 19560, Note_on_c, 1, 78, 0
3, 19560, Note_on_c, 1, 66, 48
3, 19580, Note_on_c, 1, 66, 0
3, 19580, Note_on_c, 1, 70, 48
3, 19600, Note_on_c, 1, 70, 0
3, 19600, Note_on_c, 1, 78, 48
3, 19620, Note_on_c, 1, 78, 0
3, 19620, Note_on_c, 1, 61, 48
3, 19640, Note_on_c, 1, 61, 0
3, 19640, Note_on_c, 1, 70, 48
3, 19660, Note_on_c, 1, 70, 0
3, 19660, Note_on_c, 1, 78, 48
3, 19680, Note_on_c, 1, 78, 0
3, 19680, Note_on_c, 1, 66, 48
3, 19700, Note_on_c, 1, 66, 0
3, 20040, Note_on_c, 1, 54, 93
3, 20040, Note_on_c, 1, 61, 98
3, 20040, Note_on_c, 1, 70, 108
3, 20160, Note_on_c, 1, 70, 0
3, 20160, Note_on_c, 1, 61, 0
3, 20160, Note_on_c, 1, 54, 0
3, 20160, End_track
4, 0, Start_track
4, 0, MIDI_port, 0
4, 0, Title_t, "Piano left hand 2"
4, 0, Program_c, 2, 0
4, 0, Control_c, 2, 91, 127
4, 0, Control_c, 2, 64, 0
4, 0, Note_on_c, 2, 54, 75
4, 0, Note_on_c, 2, 61, 75
4, 0, Note_on_c, 2, 58, 75
4, 0, Note_on_c, 2, 66, 89
4, 60, Note_on_c, 2, 66, 0
4, 60, Note_on_c, 2, 54, 0
4, 60, Note_on_c, 2, 61, 0
4, 60, Note_on_c, 2, 58, 0
4, 60, Note_on_c, 2, 66, 84
4, 60, Note_on_c, 2, 63, 71
4, 60, Note_on_c, 2, 59, 71
4, 60, Note_on_c, 2, 54, 71
4, 120, Note_on_c, 2, 54, 0
4, 120, Note_on_c, 2, 66, 0
4, 120, Note_on_c, 2, 63, 0
4, 120, Note_on_c, 2, 59, 0
4, 120, Note_on_c, 2, 66, 89
4, 120, Note_on_c, 2, 61, 75
4, 120, Note_on_c, 2, 58, 75
4, 120, Note_on_c, 2, 54, 75
4, 180, Note_on_c, 2, 54, 0
4, 180, Note_on_c, 2, 66, 0
4, 180, Note_on_c, 2, 61, 0
4, 180, Note_on_c, 2, 58, 0
4, 240, Note_on_c, 2, 42, 48
4, 240, Note_on_c, 2, 54, 57
4, 245, Control_c, 2, 64, 127
4, 300, Note_on_c, 2, 54, 0
4, 300, Note_on_c, 2, 42, 0
4, 300, Note_on_c, 2, 66, 55
4, 300, Note_on_c, 2, 63, 46
4, 300, Note_on_c, 2, 59, 46
4, 360, Note_on_c, 2, 59, 0
4, 360, Note_on_c, 2, 63, 0
4, 360, Note_on_c, 2, 66, 0
4, 360, Note_on_c, 2, 66, 57
4, 360, Note_on_c, 2, 61, 48
4, 360, Note_on_c, 2, 58, 48
4, 362, Control_c, 2, 64, 0
4, 420, Note_on_c, 2, 58, 0
4, 420, Note_on_c, 2, 61, 0
4, 420, Note_on_c, 2, 66, 0
4, 480, Note_on_c, 2, 37, 47
4, 480, Note_on_c, 2, 49, 56
4, 483, Control_c, 2, 64, 127
4, 534, Control_c, 2, 64, 0
4, 540, Note_on_c, 2, 49, 0
4, 540, Note_on_c, 2, 37, 0
4, 540, Note_on_c, 2, 65, 60
4, 540, Note_on_c, 2, 61, 50
4, 540, Note_on_c, 2, 56, 50
4, 600, Note_on_c, 2, 56, 0
4, 600, Note_on_c, 2, 61, 0
4, 600, Note_on_c, 2, 65, 0
4, 600, Note_on_c, 2, 63, 63
4, 600, Note_on_c, 2, 59, 53
4, 600, Note_on_c, 2, 56, 53
4, 601, Control_c, 2, 64, 127
4, 660, Note_on_c, 2, 56, 0
4, 660, Note_on_c, 2, 59, 0
4, 660, Note_on_c, 2, 63, 0
4, 660, Note_on_c, 2, 44, 68
4, 712, Control_c, 2, 64, 0
4, 720, Note_on_c, 2, 44, 0
4, 720, Note_on_c, 2, 49, 70
4, 722, Control_c, 2, 64, 127
4, 780, Note_on_c, 2, 63, 73
4, 780, Note_on_c, 2, 59, 62
4, 780, Note_on_c, 2, 56, 62
4, 781, Control_c, 2, 64, 0
4, 840, Note_on_c, 2, 56, 0
4, 840, Note_on_c, 2, 59, 0
4, 840, Note_on_c, 2, 63, 0
4, 840, Note_on_c, 2, 61, 78
4, 840, Note_on_c, 2, 59, 64
4, 840, Note_on_c, 2, 56, 64
4, 848, Control_c, 2, 64, 127
4, 900, Note_on_c, 2, 56, 0
4, 900, Note_on_c, 2, 49, 0
4, 900, Note_on_c, 2, 61, 0
4, 900, Note_on_c, 2, 59, 0
4, 949, Control_c, 2, 64, 0
4, 960, Note_on_c, 2, 66, 87
4, 960, Note_on_c, 2, 58, 73
4, 960, Note_on_c, 2, 61, 73
4, 960, Note_on_c, 2, 54, 73
4, 1020, Note_on_c, 2, 54, 0
4, 1020, Note_on_c, 2, 66, 0
4, 1020, Note_on_c, 2, 58, 0
4, 1020, Note_on_c, 2, 61, 0
4, 1020, Note_on_c, 2, 66, 82
4, 1020, Note_on_c, 2, 63, 69
4, 1020, Note_on_c, 2, 59, 69
4, 1020, Note_on_c, 2, 54, 69
4, 1080, Note_on_c, 2, 54, 0
4, 1080, Note_on_c, 2, 66, 0
4, 1080, Note_on_c, 2, 63, 0
4, 1080, Note_on_c, 2, 59, 0
4, 1080, Note_on_c, 2, 66, 87
4, 1080, Note_on_c, 2, 61, 73
4, 1080, Note_on_c, 2, 58, 73
4, 1080, Note_on_c, 2, 54, 73
4, 1140, Note_on_c, 2, 54, 0
4, 1140, Note_on_c, 2, 66, 0
4, 1140, Note_on_c, 2, 61, 0
4, 1140, Note_on_c, 2, 58, 0
4, 1200, Note_on_c, 2, 42, 47
4, 1200, Note_on_c, 2, 54, 56
4, 1206, Control_c, 2, 64, 127
4, 1260, Note_on_c, 2, 54, 0
4, 1260, Note_on_c, 2, 42, 0
4, 1260, Note_on_c, 2, 66, 48
4, 1260, Note_on_c, 2, 63, 40
4, 1260, Note_on_c, 2, 59, 40
4, 1315, Control_c, 2, 64, 0
4, 1320, Note_on_c, 2, 59, 0
4, 1320, Note_on_c, 2, 63, 0
4, 1320, Note_on_c, 2, 66, 0
4, 1320, Note_on_c, 2, 66, 57
4, 1320, Note_on_c, 2, 61, 48
4, 1320, Note_on_c, 2, 58, 48
4, 1380, Note_on_c, 2, 58, 0
4, 1380, Note_on_c, 2, 61, 0
4, 1380, Note_on_c, 2, 66, 0
4, 1440, Note_on_c, 2, 47, 66
4, 1500, Note_on_c, 2, 47, 0
4, 1500, Note_on_c, 2, 63, 71
4, 1500, Note_on_c, 2, 56, 60
4, 1620, Note_on_c, 2, 56, 0
4, 1620, Note_on_c, 2, 63, 0
4, 1620, Note_on_c, 2, 47, 64
4, 1677, Control_c, 2, 64, 127
4, 1680, Note_on_c, 2, 47, 0
4, 1680, Note_on_c, 2, 53, 59
4, 1680, Note_on_c, 2, 46, 57
4, 1680, Note_on_c, 2, 62, 77
4, 1740, Note_on_c, 2, 62, 0
4, 1740, Note_on_c, 2, 46, 0
4, 1740, Note_on_c, 2, 53, 0
4, 1792, Control_c, 2, 64, 0
4, 1920, Control_c, 2, 91, 127
4, 1920, Control_c, 2, 64, 0
4, 2160, Note_on_c, 2, 42, 56
4, 2160, Note_on_c, 2, 54, 56
4, 2164, Control_c, 2, 64, 127
4, 2220, Note_on_c, 2, 54, 0
4, 2220, Note_on_c, 2, 42, 0
4, 2220, Note_on_c, 2, 66, 48
4, 2220, Note_on_c, 2, 63, 40
4, 2220, Note_on_c, 2, 59, 40
4, 2278, Control_c, 2, 64, 0
4, 2280, Note_on_c, 2, 59, 0
4, 2280, Note_on_c, 2, 63, 0
4, 2280, Note_on_c, 2, 66, 0
4, 2280, Note_on_c, 2, 66, 56
4, 2280, Note_on_c, 2, 61, 47
4, 2280, Note_on_c, 2, 58, 47
4, 2340, Note_on_c, 2, 58, 0
4, 2340, Note_on_c, 2, 61, 0
4, 2340, Note_on_c, 2, 66, 0
4, 2400, Note_on_c, 2, 37, 51
4, 2400, Note_on_c, 2, 49, 61
4, 2408, Control_c, 2, 64, 127
4, 2454, Control_c, 2, 64, 0
4, 2460, Note_on_c, 2, 49, 0
4, 2460, Note_on_c, 2, 37, 0
4, 2460, Note_on_c, 2, 65, 61
4, 2460, Note_on_c, 2, 61, 51
4, 2460, Note_on_c, 2, 56, 51
4, 2520, Note_on_c, 2, 56, 0
4, 2520, Note_on_c, 2, 61, 0
4, 2520, Note_on_c, 2, 65, 0
4, 2520, Note_on_c, 2, 63, 62
4, 2520, Note_on_c, 2, 59, 52
4, 2520, Note_on_c, 2, 56, 52
4, 2528, Control_c, 2, 64, 127
4, 2580, Note_on_c, 2, 56, 0
4, 2580, Note_on_c, 2, 59, 0
4, 2580, Note_on_c, 2, 63, 0
4, 2580, Note_on_c, 2, 44, 66
4, 2625, Control_c, 2, 64, 0
4, 2640, Note_on_c, 2, 44, 0
4, 2640, Note_on_c, 2, 49, 70
4, 2643, Control_c, 2, 64, 127
4, 2695, Control_c, 2, 64, 0
4, 2700, Note_on_c, 2, 63, 73
4, 2700, Note_on_c, 2, 59, 62
4, 2700, Note_on_c, 2, 56, 62
4, 2760, Note_on_c, 2, 56, 0
4, 2760, Note_on_c, 2, 59, 0
4, 2760, Note_on_c, 2, 63, 0
4, 2760, Note_on_c, 2, 61, 78
4, 2760, Note_on_c, 2, 59, 64
4, 2760, Note_on_c, 2, 56, 64
4, 2769, Control_c, 2, 64, 127
4, 2820, Note_on_c, 2, 56, 0
4, 2820, Note_on_c, 2, 49, 0
4, 2820, Note_on_c, 2, 61, 0
4, 2820, Note_on_c, 2, 59, 0
4, 2863, Control_c, 2, 64, 0
4, 2880, Note_on_c, 2, 66, 87
4, 2880, Note_on_c, 2, 58, 73
4, 2880, Note_on_c, 2, 61, 73
4, 2880, Note_on_c, 2, 54, 73
4, 2940, Note_on_c, 2, 54, 0
4, 2940, Note_on_c, 2, 66, 0
4, 2940, Note_on_c, 2, 58, 0
4, 2940, Note_on_c, 2, 61, 0
4, 2940, Note_on_c, 2, 66, 81
4, 2940, Note_on_c, 2, 63, 69
4, 2940, Note_on_c, 2, 59, 69
4, 2940, Note_on_c, 2, 54, 69
4, 3000, Note_on_c, 2, 54, 0
4, 3000, Note_on_c, 2, 66, 0
4, 3000, Note_on_c, 2, 63, 0
4, 3000, Note_on_c, 2, 59, 0
4, 3000, Note_on_c, 2, 66, 87
4, 3000, Note_on_c, 2, 61, 73
4, 3000, Note_on_c, 2, 58, 73
4, 3000, Note_on_c, 2, 54, 73
4, 3060, Note_on_c, 2, 54, 0
4, 3060, Note_on_c, 2, 66, 0
4, 3060, Note_on_c, 2, 61, 0
4, 3060, Note_on_c, 2, 58, 0
4, 3120, Note_on_c, 2, 42, 47
4, 3120, Note_on_c, 2, 54, 56
4, 3123, Control_c, 2, 64, 127
4, 3180, Note_on_c, 2, 54, 0
4, 3180, Note_on_c, 2, 42, 0
4, 3180, Note_on_c, 2, 66, 50
4, 3180, Note_on_c, 2, 63, 42
4, 3180, Note_on_c, 2, 59, 42
4, 3236, Control_c, 2, 64, 0
4, 3240, Note_on_c, 2, 59, 0
4, 3240, Note_on_c, 2, 63, 0
4, 3240, Note_on_c, 2, 66, 0
4, 3240, Note_on_c, 2, 66, 56
4, 3240, Note_on_c, 2, 61, 47
4, 3240, Note_on_c, 2, 58, 47
4, 3300, Note_on_c, 2, 58, 0
4, 3300, Note_on_c, 2, 61, 0
4, 3300, Note_on_c, 2, 66, 0
4, 3360, Note_on_c, 2, 48, 62
4, 3364, Control_c, 2, 64, 127
4, 3420, Note_on_c, 2, 48, 0
4, 3420, Note_on_c, 2, 63, 68
4, 3420, Note_on_c, 2, 56, 56
4, 3540, Note_on_c, 2, 56, 0
4, 3540, Note_on_c, 2, 63, 0
4, 3540, Note_on_c, 2, 44, 64
4, 3580, Control_c, 2, 64, 0
4, 3600, Note_on_c, 2, 44, 0
4, 3600, Note_on_c, 2, 49, 78
4, 3604, Control_c, 2, 64, 127
4, 3660, Note_on_c, 2, 49, 0
4, 3660, Note_on_c, 2, 65, 71
4, 3660, Note_on_c, 2, 56, 60
4, 3720, Note_on_c, 2, 56, 0
4, 3720, Note_on_c, 2, 65, 0
4, 3826, Control_c, 2, 64, 0
4, 4320, Note_on_c, 2, 48, 62
4, 4329, Control_c, 2, 64, 127
4, 4375, Control_c, 2, 64, 0
4, 4380, Note_on_c, 2, 48, 0
4, 4380, Note_on_c, 2, 66, 68
4, 4380, Note_on_c, 2, 63, 56
4, 4380, Note_on_c, 2, 56, 56
4, 4440, Note_on_c, 2, 56, 0
4, 4440, Note_on_c, 2, 63, 0
4, 4440, Note_on_c, 2, 66, 0
4, 4440, Note_on_c, 2, 65, 63
4, 4440, Note_on_c, 2, 61, 53
4, 4440, Note_on_c, 2, 56, 53
4, 4444, Control_c, 2, 64, 127
4, 4500, Note_on_c, 2, 56, 0
4, 4500, Note_on_c, 2, 61, 0
4, 4500, Note_on_c, 2, 65, 0
4, 4500, Note_on_c, 2, 49, 62
4, 4546, Control_c, 2, 64, 0
4, 4560, Note_on_c, 2, 49, 0
4, 4560, Note_on_c, 2, 44, 62
4, 4567, Control_c, 2, 64, 127
4, 4620, Note_on_c, 2, 44, 0
4, 4620, Note_on_c, 2, 66, 57
4, 4620, Note_on_c, 2, 60, 48
4, 4620, Note_on_c, 2, 56, 48
4, 4628, Control_c, 2, 64, 0
4, 4680, Note_on_c, 2, 56, 0
4, 4680, Note_on_c, 2, 60, 0
4, 4680, Note_on_c, 2, 66, 0
4, 4680, Note_on_c, 2, 37, 62
4, 4684, Control_c, 2, 64, 127
4, 4740, Note_on_c, 2, 37, 0
4, 4740, Note_on_c, 2, 65, 60
4, 4740, Note_on_c, 2, 61, 50
4, 4740, Note_on_c, 2, 56, 50
4, 4786, Control_c, 2, 64, 0
4, 4800, Note_on_c, 2, 56, 0
4, 4800, Note_on_c, 2, 61, 0
4, 4800, Note_on_c, 2, 65, 0
4, 4800, Note_on_c, 2, 44, 62
4, 4804, Control_c, 2, 64, 127
4, 4860, Note_on_c, 2, 44, 0
4, 4916, Control_c, 2, 64, 0
4, 5280, Note_on_c, 2, 48, 68
4, 5287, Control_c, 2, 64, 127
4, 5340, Note_on_c, 2, 48, 0
4, 5340, Note_on_c, 2, 66, 62
4, 5340, Note_on_c, 2, 63, 52
4, 5340, Note_on_c, 2, 56, 52
4, 5400, Note_on_c, 2, 56, 0
4, 5400, Note_on_c, 2, 63, 0
4, 5400, Note_on_c, 2, 66, 0
4, 5460, Note_on_c, 2, 36, 70
4, 5520, Note_on_c, 2, 36, 0
4, 5520, Note_on_c, 2, 48, 72
4, 5580, Note_on_c, 2, 48, 0
4, 5580, Note_on_c, 2, 63, 57
4, 5580, Note_on_c, 2, 56, 57
4, 5580, Note_on_c, 2, 66, 69
4, 5640, Note_on_c, 2, 66, 0
4, 5640, Note_on_c, 2, 56, 0
4, 5640, Note_on_c, 2, 63, 0
4, 5700, Note_on_c, 2, 36, 59
4, 5700, Note_on_c, 2, 48, 70
4, 5732, Control_c, 2, 64, 0
4, 5760, Note_on_c, 2, 48, 0
4, 5760, Note_on_c, 2, 36, 0
4, 5760, Note_on_c, 2, 37, 63
4, 5760, Note_on_c, 2, 49, 77
4, 5768, Control_c, 2, 64, 127
4, 5820, Note_on_c, 2, 49, 0
4, 5820, Note_on_c, 2, 37, 0
4, 5820, Note_on_c, 2, 66, 73
4, 5820, Note_on_c, 2, 61, 62
4, 5820, Note_on_c, 2, 58, 62
4, 5871, Control_c, 2, 64, 0
4, 5880, Note_on_c, 2, 58, 0
4, 5880, Note_on_c, 2, 61, 0
4, 5880, Note_on_c, 2, 66, 0
4, 5880, Note_on_c, 2, 36, 62
4, 5880, Note_on_c, 2, 48, 73
4, 5940, Note_on_c, 2, 48, 0
4, 5940, Note_on_c, 2, 36, 0
4, 5940, Note_on_c, 2, 37, 61
4, 5940, Note_on_c, 2, 49, 72
4, 6000, Note_on_c, 2, 49, 0
4, 6000, Note_on_c, 2, 37, 0
4, 6000, Note_on_c, 2, 38, 69
4, 6000, Note_on_c, 2, 50, 81
4, 6003, Control_c, 2, 64, 127
4, 6060, Note_on_c, 2, 50, 0
4, 6060, Note_on_c, 2, 38, 0
4, 6060, Note_on_c, 2, 66, 77
4, 6060, Note_on_c, 2, 58, 63
4, 6115, Control_c, 2, 64, 0
4, 6120, Note_on_c, 2, 58, 0
4, 6120, Note_on_c, 2, 66, 0
4, 6120, Note_on_c, 2, 37, 64
4, 6120, Note_on_c, 2, 49, 78
4, 6180, Note_on_c, 2, 49, 0
4, 6180, Note_on_c, 2, 37, 0
4, 6180, Note_on_c, 2, 38, 63
4, 6180, Note_on_c, 2, 50, 75
4, 6240, Note_on_c, 2, 50, 0
4, 6240, Note_on_c, 2, 38, 0
4, 6240, Note_on_c, 2, 39, 70
4, 6240, Note_on_c, 2, 51, 82
4, 6244, Control_c, 2, 64, 127
4, 6300, Note_on_c, 2, 51, 0
4, 6300, Note_on_c, 2, 39, 0
4, 6300, Note_on_c, 2, 66, 80
4, 6300, Note_on_c, 2, 58, 68
4, 6420, Note_on_c, 2, 58, 0
4, 6420, Note_on_c, 2, 66, 0
4, 6420, Note_on_c, 2, 39, 78
4, 6420, Note_on_c, 2, 51, 78
4, 6468, Control_c, 2, 64, 0
4, 6480, Note_on_c, 2, 51, 0
4, 6480, Note_on_c, 2, 39, 0
4, 6480, Note_on_c, 2, 40, 80
4, 6480, Note_on_c, 2, 52, 80
4, 6485, Control_c, 2, 64, 127
4, 6540, Note_on_c, 2, 52, 0
4, 6540, Note_on_c, 2, 40, 0
4, 6540, Note_on_c, 2, 66, 82
4, 6540, Note_on_c, 2, 58, 82
4, 6660, Note_on_c, 2, 58, 0
4, 6660, Note_on_c, 2, 66, 0
4, 6660, Note_on_c, 2, 40, 85
4, 6660, Note_on_c, 2, 52, 85
4, 6699, Control_c, 2, 64, 0
4, 6720, Note_on_c, 2, 52, 0
4, 6720, Note_on_c, 2, 40, 0
4, 6720, Note_on_c, 2, 41, 87
4, 6720, Note_on_c, 2, 53, 87
4, 6731, Control_c, 2, 64, 127
4, 6780, Note_on_c, 2, 53, 0
4, 6780, Note_on_c, 2, 41, 0
4, 6780, Note_on_c, 2, 65, 88
4, 6780, Note_on_c, 2, 61, 88
4, 6780, Note_on_c, 2, 58, 88
4, 6838, Control_c, 2, 64, 0
4, 6840, Note_on_c, 2, 58, 0
4, 6840, Note_on_c, 2, 61, 0
4, 6840, Note_on_c, 2, 65, 0
4, 6840, Note_on_c, 2, 40, 89
4, 6840, Note_on_c, 2, 52, 89
4, 6900, Note_on_c, 2, 52, 0
4, 6900, Note_on_c, 2, 40, 0
4, 6900, Note_on_c, 2, 41, 90
4, 6900, Note_on_c, 2, 53, 90
4, 6960, Note_on_c, 2, 53, 0
4, 6960, Note_on_c, 2, 41, 0
4, 6960, Note_on_c, 2, 42, 91
4, 6960, Note_on_c, 2, 54, 91
4, 6968, Control_c, 2, 64, 127
4, 7020, Note_on_c, 2, 54, 0
4, 7020, Note_on_c, 2, 42, 0
4, 7020, Note_on_c, 2, 64, 92
4, 7020, Note_on_c, 2, 61, 92
4, 7020, Note_on_c, 2, 58, 92
4, 7068, Control_c, 2, 64, 0
4, 7080, Note_on_c, 2, 58, 0
4, 7080, Note_on_c, 2, 61, 0
4, 7080, Note_on_c, 2, 64, 0
4, 7080, Note_on_c, 2, 41, 93
4, 7080, Note_on_c, 2, 53, 93
4, 7140, Note_on_c, 2, 53, 0
4, 7140, Note_on_c, 2, 41, 0
4, 7140, Note_on_c, 2, 42, 95
4, 7140, Note_on_c, 2, 54, 95
4, 7200, Note_on_c, 2, 54, 0
4, 7200, Note_on_c, 2, 42, 0
4, 7200, Note_on_c, 2, 43, 96
4, 7200, Note_on_c, 2, 55, 96
4, 7202, Control_c, 2, 64, 127
4, 7260, Note_on_c, 2, 55, 0
4, 7260, Note_on_c, 2, 43, 0
4, 7260, Note_on_c, 2, 64, 97
4, 7260, Note_on_c, 2, 61, 97
4, 7260, Note_on_c, 2, 55, 97
4, 7307, Control_c, 2, 64, 0
4, 7320, Note_on_c, 2, 55, 0
4, 7320, Note_on_c, 2, 61, 0
4, 7320, Note_on_c, 2, 64, 0
4, 7320, Note_on_c, 2, 44, 99
4, 7320, Note_on_c, 2, 56, 99
4, 7324, Control_c, 2, 64, 127
4, 7380, Note_on_c, 2, 56, 0
4, 7380, Note_on_c, 2, 44, 0
4, 7380, Note_on_c, 2, 65, 100
4, 7380, Note_on_c, 2, 61, 100
4, 7380, Note_on_c, 2, 56, 100
4, 7421, Control_c, 2, 64, 0
4, 7440, Note_on_c, 2, 56, 0
4, 7440, Note_on_c, 2, 61, 0
4, 7440, Note_on_c, 2, 65, 0
4, 7440, Note_on_c, 2, 45, 101
4, 7440, Note_on_c, 2, 57, 101
4, 7443, Control_c, 2, 64, 127
4, 7500, Note_on_c, 2, 57, 0
4, 7500, Note_on_c, 2, 45, 0
4, 7500, Note_on_c, 2, 66, 101
4, 7500, Note_on_c, 2, 63, 101
4, 7500, Note_on_c, 2, 57, 101
4, 7560, Note_on_c, 2, 57, 0
4, 7560, Note_on_c, 2, 63, 0
4, 7560, Note_on_c, 2, 66, 0
4, 7620, Note_on_c, 2, 33, 105
4, 7620, Note_on_c, 2, 45, 105
4, 7667, Control_c, 2, 64, 0
4, 7680, Note_on_c, 2, 45, 0
4, 7680, Note_on_c, 2, 33, 0
4, 7680, Note_on_c, 2, 32, 107
4, 7680, Note_on_c, 2, 44, 107
4, 7686, Control_c, 2, 64, 127
4, 7912, Control_c, 2, 64, 0
4, 7920, Note_on_c, 2, 44, 0
4, 7920, Note_on_c, 2, 32, 0
4, 7920, Control_c, 2, 64, 127
4, 8040, Note_on_c, 2, 66, 100
4, 8040, Note_on_c, 2, 61, 83
4, 8040, Note_on_c, 2, 56, 83
4, 8130, Note_on_c, 2, 56, 0
4, 8130, Note_on_c, 2, 61, 0
4, 8130, Note_on_c, 2, 66, 0
4, 8130, Note_on_c, 2, 66, 100
4, 8130, Note_on_c, 2, 61, 100
4, 8130, Note_on_c, 2, 56, 100
4, 8147, Control_c, 2, 64, 0
4, 8160, Note_on_c, 2, 56, 0
4, 8160, Note_on_c, 2, 61, 0
4, 8160, Note_on_c, 2, 66, 0
4, 8160, Control_c, 2, 64, 127
4, 8160, Note_on_c, 2, 66, 100
4, 8160, Note_on_c, 2, 61, 100
4, 8160, Note_on_c, 2, 56, 100
4, 8389, Control_c, 2, 64, 0
4, 8400, Note_on_c, 2, 56, 0
4, 8400, Note_on_c, 2, 61, 0
4, 8400, Note_on_c, 2, 66, 0
4, 8400, Control_c, 2, 64, 127
4, 8628, Control_c, 2, 64, 0
4, 8640, Note_on_c, 2, 32, 64
4, 8640, Note_on_c, 2, 44, 64
4, 8646, Control_c, 2, 64, 127
4, 8872, Control_c, 2, 64, 0
4, 8880, Note_on_c, 2, 44, 0
4, 8880, Note_on_c, 2, 32, 0
4, 8880, Control_c, 2, 64, 127
4, 9107, Control_c, 2, 64, 0
4, 9120, Control_c, 2, 64, 127
4, 9349, Control_c, 2, 64, 0
4, 9360, Control_c, 2, 64, 127
4, 9588, Control_c, 2, 64, 0
4, 9600, Note_on_c, 2, 37, 60
4, 9600, Control_c, 2, 64, 127
4, 9660, Note_on_c, 2, 37, 0
4, 9704, Control_c, 2, 64, 0
4, 9720, Control_c, 2, 64, 127
4, 9720, Note_on_c, 2, 65, 61
4, 9720, Note_on_c, 2, 56, 61
4, 9946, Control_c, 2, 64, 127
4, 9960, Note_on_c, 2, 56, 0
4, 9960, Note_on_c, 2, 65, 0
4, 9960, Control_c, 2, 64, 0
4, 9960, Note_on_c, 2, 64, 65
4, 9960, Note_on_c, 2, 55, 65
4, 10050, Note_on_c, 2, 55, 0
4, 10050, Note_on_c, 2, 64, 0
4, 10050, Note_on_c, 2, 65, 67
4, 10050, Note_on_c, 2, 56, 67
4, 10080, Note_on_c, 2, 56, 0
4, 10080, Note_on_c, 2, 65, 0
4, 10080, Note_on_c, 2, 49, 68
4, 10140, Note_on_c, 2, 49, 0
4, 10187, Control_c, 2, 64, 0
4, 10199, Control_c, 2, 64, 127
4, 10200, Note_on_c, 2, 65, 71
4, 10200, Note_on_c, 2, 56, 71
4, 10426, Control_c, 2, 64, 0
4, 10440, Note_on_c, 2, 56, 0
4, 10440, Note_on_c, 2, 65, 0
4, 10440, Note_on_c, 2, 64, 76
4, 10440, Note_on_c, 2, 55, 76
4, 10442, Control_c, 2, 64, 127
4, 10530, Note_on_c, 2, 55, 0
4, 10530, Note_on_c, 2, 64, 0
4, 10530, Note_on_c, 2, 56, 77
4, 10530, Note_on_c, 2, 65, 77
4, 10560, Note_on_c, 2, 65, 0
4, 10560, Note_on_c, 2, 56, 0
4, 10560, Note_on_c, 2, 53, 78
4, 10620, Note_on_c, 2, 53, 0
4, 10620, Control_c, 2, 64, 0
4, 10620, Control_c, 2, 64, 127
4, 10800, Control_c, 2, 64, 0
4, 10800, Control_c, 2, 64, 127
4, 10920, Control_c, 2, 64, 0
4, 10920, Control_c, 2, 64, 127
4, 11100, Note_on_c, 2, 49, 60
4, 11160, Note_on_c, 2, 49, 0
4, 11160, Control_c, 2, 64, 0
4, 11160, Control_c, 2, 64, 127
4, 11400, Control_c, 2, 64, 0
4, 11400, Control_c, 2, 64, 127
4, 11520, Control_c, 2, 64, 0
4, 11520, Control_c, 2, 91, 127
4, 11520, Control_c, 2, 64, 0
4, 11760, Note_on_c, 2, 42, 63
4, 11760, Note_on_c, 2, 54, 63
4, 11760, Control_c, 2, 64, 127
4, 11820, Note_on_c, 2, 54, 0
4, 11820, Note_on_c, 2, 42, 0
4, 11820, Note_on_c, 2, 66, 63
4, 11820, Note_on_c, 2, 63, 63
4, 11820, Note_on_c, 2, 59, 63
4, 11880, Note_on_c, 2, 59, 0
4, 11880, Note_on_c, 2, 63, 0
4, 11880, Note_on_c, 2, 66, 0
4, 11880, Note_on_c, 2, 66, 63
4, 11880, Note_on_c, 2, 61, 63
4, 11880, Note_on_c, 2, 58, 63
4, 11880, Control_c, 2, 64, 0
4, 11940, Note_on_c, 2, 58, 0
4, 11940, Note_on_c, 2, 61, 0
4, 11940, Note_on_c, 2, 66, 0
4, 12000, Note_on_c, 2, 37, 69
4, 12000, Note_on_c, 2, 49, 69
4, 12000, Control_c, 2, 64, 127
4, 12060, Note_on_c, 2, 49, 0
4, 12060, Note_on_c, 2, 37, 0
4, 12060, Control_c, 2, 64, 0
4, 12060, Note_on_c, 2, 61, 72
4, 12060, Note_on_c, 2, 65, 72
4, 12060, Note_on_c, 2, 56, 72
4, 12120, Note_on_c, 2, 56, 0
4, 12120, Note_on_c, 2, 65, 0
4, 12120, Note_on_c, 2, 61, 0
4, 12120, Note_on_c, 2, 59, 76
4, 12120, Note_on_c, 2, 63, 76
4, 12120, Note_on_c, 2, 56, 76
4, 12120, Control_c, 2, 64, 127
4, 12180, Note_on_c, 2, 56, 0
4, 12180, Note_on_c, 2, 63, 0
4, 12180, Note_on_c, 2, 59, 0
4, 12180, Note_on_c, 2, 44, 79
4, 12240, Note_on_c, 2, 44, 0
4, 12240, Control_c, 2, 64, 0
4, 12240, Note_on_c, 2, 49, 81
4, 12240, Control_c, 2, 64, 127
4, 12300, Note_on_c, 2, 63, 84
4, 12300, Note_on_c, 2, 59, 84
4, 12300, Note_on_c, 2, 56, 84
4, 12300, Control_c, 2, 64, 0
4, 12360, Note_on_c, 2, 56, 0
4, 12360, Note_on_c, 2, 59, 0
4, 12360, Note_on_c, 2, 63, 0
4, 12360, Note_on_c, 2, 61, 86
4, 12360, Note_on_c, 2, 59, 86
4, 12360, Note_on_c, 2, 56, 86
4, 12360, Control_c, 2, 64, 127
4, 12420, Note_on_c, 2, 56, 0
4, 12420, Note_on_c, 2, 49, 0
4, 12420, Note_on_c, 2, 61, 0
4, 12420, Note_on_c, 2, 59, 0
4, 12480, Control_c, 2, 64, 0
4, 12480, Note_on_c, 2, 66, 92
4, 12480, Note_on_c, 2, 58, 92
4, 12480, Note_on_c, 2, 61, 92
4, 12480, Note_on_c, 2, 54, 92
4, 12540, Note_on_c, 2, 54, 0
4, 12540, Note_on_c, 2, 66, 0
4, 12540, Note_on_c, 2, 58, 0
4, 12540, Note_on_c, 2, 61, 0
4, 12540, Note_on_c, 2, 66, 93
4, 12540, Note_on_c, 2, 63, 93
4, 12540, Note_on_c, 2, 59, 93
4, 12540, Note_on_c, 2, 54, 93
4, 12600, Note_on_c, 2, 54, 0
4, 12600, Note_on_c, 2, 66, 0
4, 12600, Note_on_c, 2, 63, 0
4, 12600, Note_on_c, 2, 59, 0
4, 12600, Note_on_c, 2, 66, 94
4, 12600, Note_on_c, 2, 61, 94
4, 12600, Note_on_c, 2, 58, 94
4, 12600, Note_on_c, 2, 54, 94
4, 12660, Note_on_c, 2, 54, 0
4, 12660, Note_on_c, 2, 66, 0
4, 12660, Note_on_c, 2, 61, 0
4, 12660, Note_on_c, 2, 58, 0
4, 12720, Note_on_c, 2, 42, 59
4, 12720, Note_on_c, 2, 54, 59
4, 12720, Control_c, 2, 64, 127
4, 12780, Note_on_c, 2, 54, 0
4, 12780, Note_on_c, 2, 42, 0
4, 12780, Note_on_c, 2, 66, 59
4, 12780, Note_on_c, 2, 63, 59
4, 12780, Note_on_c, 2, 59, 59
4, 12840, Note_on_c, 2, 59, 0
4, 12840, Note_on_c, 2, 63, 0
4, 12840, Note_on_c, 2, 66, 0
4, 12840, Control_c, 2, 64, 0
4, 12840, Note_on_c, 2, 66, 60
4, 12840, Note_on_c, 2, 61, 60
4, 12840, Note_on_c, 2, 58, 60
4, 12900, Note_on_c, 2, 58, 0
4, 12900, Note_on_c, 2, 61, 0
4, 12900, Note_on_c, 2, 66, 0
4, 12960, Note_on_c, 2, 47, 62
4, 12960, Control_c, 2, 64, 127
4, 13020, Note_on_c, 2, 47, 0
4, 13020, Note_on_c, 2, 63, 63
4, 13020, Note_on_c, 2, 56, 63
4, 13080, Note_on_c, 2, 56, 0
4, 13080, Note_on_c, 2, 63, 0
4, 13080, Control_c, 2, 64, 0
4, 13080, Note_on_c, 2, 53, 63
4, 13080, Note_on_c, 2, 58, 63
4, 13080, Note_on_c, 2, 62, 63
4, 13080, Control_c, 2, 64, 127
4, 13140, Note_on_c, 2, 62, 0
4, 13140, Note_on_c, 2, 58, 0
4, 13140, Note_on_c, 2, 53, 0
4, 13140, Note_on_c, 2, 46, 64
4, 13200, Note_on_c, 2, 46, 0
4, 13200, Note_on_c, 2, 47, 64
4, 13200, Control_c, 2, 64, 127
4, 13260, Note_on_c, 2, 47, 0
4, 13260, Note_on_c, 2, 63, 66
4, 13260, Note_on_c, 2, 56, 66
4, 13260, Control_c, 2, 64, 0
4, 13320, Note_on_c, 2, 56, 0
4, 13320, Note_on_c, 2, 63, 0
4, 13320, Note_on_c, 2, 53, 69
4, 13320, Control_c, 2, 64, 0
4, 13320, Note_on_c, 2, 62, 69
4, 13320, Note_on_c, 2, 58, 69
4, 13320, Control_c, 2, 64, 127
4, 13380, Note_on_c, 2, 58, 0
4, 13380, Note_on_c, 2, 62, 0
4, 13380, Note_on_c, 2, 53, 0
4, 13380, Note_on_c, 2, 46, 71
4, 13440, Note_on_c, 2, 46, 0
4, 13440, Note_on_c, 2, 47, 74
4, 13440, Control_c, 2, 64, 0
4, 13440, Control_c, 2, 64, 127
4, 13500, Note_on_c, 2, 47, 0
4, 13560, Control_c, 2, 64, 0
4, 13560, Note_on_c, 2, 49, 78
4, 13560, Control_c, 2, 64, 127
4, 13620, Note_on_c, 2, 49, 0
4, 13680, Control_c, 2, 64, 0
4, 13680, Note_on_c, 2, 47, 82
4, 13680, Control_c, 2, 64, 127
4, 13740, Note_on_c, 2, 47, 0
4, 13800, Control_c, 2, 64, 0
4, 13800, Note_on_c, 2, 46, 85
4, 13800, Control_c, 2, 64, 127
4, 13860, Note_on_c, 2, 46, 0
4, 13920, Control_c, 2, 64, 0
4, 13920, Note_on_c, 2, 47, 88
4, 13920, Control_c, 2, 64, 127
4, 13980, Note_on_c, 2, 47, 0
4, 14040, Control_c, 2, 64, 0
4, 14040, Note_on_c, 2, 49, 91
4, 14040, Control_c, 2, 64, 127
4, 14100, Note_on_c, 2, 49, 0
4, 14160, Control_c, 2, 64, 0
4, 14160, Note_on_c, 2, 47, 94
4, 14160, Control_c, 2, 64, 127
4, 14220, Note_on_c, 2, 47, 0
4, 14280, Control_c, 2, 64, 0
4, 14280, Note_on_c, 2, 46, 94
4, 14280, Control_c, 2, 64, 127
4, 14340, Note_on_c, 2, 46, 0
4, 14400, Control_c, 2, 64, 0
4, 14400, Note_on_c, 2, 47, 94
4, 14400, Control_c, 2, 64, 127
4, 14460, Note_on_c, 2, 47, 0
4, 14460, Note_on_c, 2, 63, 95
4, 14460, Note_on_c, 2, 68, 95
4, 14460, Note_on_c, 2, 56, 95
4, 14580, Note_on_c, 2, 56, 0
4, 14580, Note_on_c, 2, 68, 0
4, 14580, Note_on_c, 2, 63, 0
4, 14580, Note_on_c, 2, 47, 97
4, 14640, Note_on_c, 2, 47, 0
4, 14640, Control_c, 2, 64, 0
4, 14640, Note_on_c, 2, 48, 97
4, 14640, Control_c, 2, 64, 127
4, 14700, Note_on_c, 2, 48, 0
4, 14700, Note_on_c, 2, 63, 98
4, 14700, Note_on_c, 2, 68, 98
4, 14700, Note_on_c, 2, 56, 98
4, 14700, Note_on_c, 2, 66, 98
4, 14820, Note_on_c, 2, 66, 0
4, 14820, Note_on_c, 2, 63, 0
4, 14820, Note_on_c, 2, 68, 0
4, 14820, Note_on_c, 2, 56, 0
4, 14820, Note_on_c, 2, 48, 102
4, 14880, Note_on_c, 2, 48, 0
4, 14880, Control_c, 2, 64, 0
4, 14880, Note_on_c, 2, 49, 103
4, 14880, Control_c, 2, 64, 127
4, 15000, Note_on_c, 2, 49, 0
4, 15120, Control_c, 2, 64, 0
4, 15120, Control_c, 2, 64, 127
4, 15360, Control_c, 2, 64, 0
4, 15360, Note_on_c, 2, 37, 47
4, 15360, Note_on_c, 2, 49, 47
4, 15360, Note_on_c, 2, 56, 47
4, 15360, Note_on_c, 2, 61, 47
4, 15360, Note_on_c, 2, 66, 56
4, 15420, Note_on_c, 2, 37, 0
4, 15600, Note_on_c, 2, 61, 0
4, 15600, Note_on_c, 2, 49, 0
4, 15600, Note_on_c, 2, 56, 0
4, 15600, Note_on_c, 2, 66, 0
4, 15600, Note_on_c, 2, 56, 30
4, 15600, Note_on_c, 2, 49, 56
4, 15600, Note_on_c, 2, 59, 30
4, 15600, Note_on_c, 2, 49, 30
4, 15840, Note_on_c, 2, 49, 0
4, 15840, Note_on_c, 2, 56, 0
4, 15840, Note_on_c, 2, 49, 0
4, 15840, Note_on_c, 2, 59, 0
4, 16320, Note_on_c, 2, 66, 59
4, 16320, Note_on_c, 2, 54, 59
4, 16320, Note_on_c, 2, 58, 59
4, 16380, Note_on_c, 2, 58, 0
4, 16380, Note_on_c, 2, 54, 0
4, 16380, Note_on_c, 2, 66, 0
4, 16440, Note_on_c, 2, 53, 59
4, 16440, Note_on_c, 2, 59, 59
4, 16440, Note_on_c, 2, 63, 59
4, 16500, Note_on_c, 2, 63, 0
4, 16500, Note_on_c, 2, 59, 0
4, 16500, Note_on_c, 2, 53, 0
4, 16500, Note_on_c, 2, 49, 59
4, 16500, Note_on_c, 2, 61, 59
4, 16560, Note_on_c, 2, 61, 0
4, 16560, Note_on_c, 2, 49, 0
4, 16560, Note_on_c, 2, 63, 59
4, 16560, Note_on_c, 2, 54, 59
4, 16560, Note_on_c, 2, 58, 59
4, 16620, Note_on_c, 2, 58, 0
4, 16620, Note_on_c, 2, 54, 0
4, 16620, Note_on_c, 2, 63, 0
4, 16620, Note_on_c, 2, 49, 59
4, 16620, Note_on_c, 2, 61, 59
4, 16680, Note_on_c, 2, 61, 0
4, 16680, Note_on_c, 2, 49, 0
4, 16680, Note_on_c, 2, 59, 59
4, 16680, Note_on_c, 2, 63, 59
4, 16680, Note_on_c, 2, 53, 59
4, 16740, Note_on_c, 2, 53, 0
4, 16740, Note_on_c, 2, 63, 0
4, 16740, Note_on_c, 2, 59, 0
4, 16740, Note_on_c, 2, 61, 59
4, 16740, Note_on_c, 2, 49, 59
4, 16800, Note_on_c, 2, 49, 0
4, 16800, Note_on_c, 2, 61, 0
4, 17280, Note_on_c, 2, 66, 59
4, 17280, Note_on_c, 2, 58, 59
4, 17280, Note_on_c, 2, 54, 59
4, 17340, Note_on_c, 2, 54, 0
4, 17340, Note_on_c, 2, 58, 0
4, 17340, Note_on_c, 2, 66, 0
4, 17340, Note_on_c, 2, 61, 59
4, 17400, Note_on_c, 2, 61, 0
4, 17400, Note_on_c, 2, 63, 59
4, 17400, Note_on_c, 2, 53, 59
4, 17400, Note_on_c, 2, 59, 59
4, 17460, Note_on_c, 2, 59, 0
4, 17460, Note_on_c, 2, 53, 0
4, 17460, Note_on_c, 2, 63, 0
4, 17460, Note_on_c, 2, 61, 61
4, 17460, Note_on_c, 2, 49, 61
4, 17520, Note_on_c, 2, 49, 0
4, 17520, Note_on_c, 2, 61, 0
4, 17520, Note_on_c, 2, 63, 62
4, 17520, Note_on_c, 2, 54, 62
4, 17520, Note_on_c, 2, 58, 62
4, 17580, Note_on_c, 2, 58, 0
4, 17580, Note_on_c, 2, 54, 0
4, 17580, Note_on_c, 2, 63, 0
4, 17580, Note_on_c, 2, 61, 66
4, 17580, Note_on_c, 2, 49, 66
4, 17640, Note_on_c, 2, 49, 0
4, 17640, Note_on_c, 2, 61, 0
4, 17640, Note_on_c, 2, 59, 70
4, 17640, Note_on_c, 2, 53, 70
4, 17640, Note_on_c, 2, 63, 70
4, 17700, Note_on_c, 2, 63, 0
4, 17700, Note_on_c, 2, 53, 0
4, 17700, Note_on_c, 2, 59, 0
4, 17700, Note_on_c, 2, 49, 71
4, 17700, Note_on_c, 2, 61, 71
4, 17760, Note_on_c, 2, 61, 0
4, 17760, Note_on_c, 2, 49, 0
4, 17940, Note_on_c, 2, 49, 82
4, 17940, Note_on_c, 2, 56, 82
4, 17940, Note_on_c, 2, 65, 82
4, 17940, Note_on_c, 2, 59, 82
4, 18000, Note_on_c, 2, 59, 0
4, 18000, Note_on_c, 2, 49, 0
4, 18000, Note_on_c, 2, 56, 0
4, 18000, Note_on_c, 2, 65, 0
4, 18000, Note_on_c, 2, 58, 87
4, 18000, Note_on_c, 2, 54, 87
4, 18000, Note_on_c, 2, 66, 87
4, 18120, Note_on_c, 2, 66, 0
4, 18120, Note_on_c, 2, 54, 0
4, 18120, Note_on_c, 2, 58, 0
4, 18180, Note_on_c, 2, 47, 97
4, 18180, Note_on_c, 2, 53, 97
4, 18180, Note_on_c, 2, 37, 97
4, 18240, Note_on_c, 2, 37, 0
4, 18240, Note_on_c, 2, 53, 0
4, 18240, Note_on_c, 2, 47, 0
4, 18240, Note_on_c, 2, 42, 96
4, 18240, Note_on_c, 2, 54, 96
4, 18240, Note_on_c, 2, 46, 96
4, 18360, Note_on_c, 2, 46, 0
4, 18360, Note_on_c, 2, 54, 0
4, 18360, Note_on_c, 2, 42, 0
4, 18420, Note_on_c, 2, 37, 87
4, 18480, Note_on_c, 2, 37, 0
4, 18480, Note_on_c, 2, 42, 85
4, 18480, Note_on_c, 2, 30, 85
4, 18540, Note_on_c, 2, 30, 0
4, 18540, Note_on_c, 2, 42, 0
4, 18540, Note_on_c, 2, 37, 83
4, 18600, Note_on_c, 2, 37, 0
4, 18600, Note_on_c, 2, 42, 82
4, 18600, Note_on_c, 2, 30, 82
4, 18660, Note_on_c, 2, 30, 0
4, 18660, Note_on_c, 2, 42, 0
4, 18660, Note_on_c, 2, 37, 81
4, 18720, Note_on_c, 2, 37, 0
4, 18720, Note_on_c, 2, 30, 81
4, 18720, Note_on_c, 2, 42, 81
4, 18780, Note_on_c, 2, 42, 0
4, 18780, Note_on_c, 2, 30, 0
4, 18900, Note_on_c, 2, 42, 50
4, 18920, Note_on_c, 2, 42, 0
4, 18920, Note_on_c, 2, 49, 50
4, 18940, Note_on_c, 2, 49, 0
4, 18940, Note_on_c, 2, 58, 50
4, 18960, Note_on_c, 2, 58, 0
4, 18960, Note_on_c, 2, 42, 50
4, 18980, Note_on_c, 2, 42, 0
4, 18980, Note_on_c, 2, 49, 50
4, 19000, Note_on_c, 2, 49, 0
4, 19000, Note_on_c, 2, 58, 50
4, 19020, Note_on_c, 2, 58, 0
4, 19020, Note_on_c, 2, 46, 50
4, 19040, Note_on_c, 2, 46, 0
4, 19040, Note_on_c, 2, 54, 49
4, 19060, Note_on_c, 2, 54, 0
4, 19060, Note_on_c, 2, 61, 49
4, 19080, Note_on_c, 2, 61, 0
4, 19080, Note_on_c, 2, 49, 49
4, 19100, Note_on_c, 2, 49, 0
4, 19100, Note_on_c, 2, 58, 49
4, 19120, Note_on_c, 2, 58, 0
4, 19120, Note_on_c, 2, 66, 49
4, 19140, Note_on_c, 2, 66, 0
4, 19720, Note_on_c, 2, 54, 49
4, 19725, Note_on_c, 2, 66, 49
4, 19740, Note_on_c, 2, 54, 0
4, 19740, Note_on_c, 2, 51, 49
4, 19740, Note_on_c, 2, 63, 49
4, 19745, Note_on_c, 2, 66, 0
4, 19760, Note_on_c, 2, 63, 0
4, 19760, Note_on_c, 2, 51, 0
4, 19760, Note_on_c, 2, 49, 49
4, 19760, Note_on_c, 2, 61, 49
4, 19780, Note_on_c, 2, 61, 0
4, 19780, Note_on_c, 2, 49, 0
4, 19780, Note_on_c, 2, 46, 49
4, 19780, Note_on_c, 2, 58, 49
4, 19800, Note_on_c, 2, 58, 0
4, 19800, Note_on_c, 2, 46, 0
4, 19800, Note_on_c, 2, 44, 49
4, 19800, Note_on_c, 2, 56, 49
4, 19820, Note_on_c, 2, 56, 0
4, 19820, Note_on_c, 2, 44, 0
4, 19820, Note_on_c, 2, 42, 49
4, 19820, Note_on_c, 2, 54, 49
4, 19840, Note_on_c, 2, 54, 0
4, 19840, Note_on_c, 2, 42, 0
4, 19840, Note_on_c, 2, 39, 49
4, 19840, Note_on_c, 2, 51, 49
4, 19860, Note_on_c, 2, 51, 0
4, 19860, Note_on_c, 2, 39, 0
4, 19860, Note_on_c, 2, 37, 49
4, 19860, Note_on_c, 2, 49, 49
4, 19880, Note_on_c, 2, 49, 0
4, 19880, Note_on_c, 2, 37, 0
4, 19880, Note_on_c, 2, 34, 49
4, 19880, Note_on_c, 2, 46, 49
4, 19900, Note_on_c, 2, 46, 0
4, 19900, Note_on_c, 2, 34, 0
4, 19900, Note_on_c, 2, 32, 99
4, 19900, Note_on_c, 2, 44, 99
4, 19920, Note_on_c, 2, 44, 0
4, 19920, Note_on_c, 2, 32, 0
4, 19920, Note_on_c, 2, 30, 99
4, 19920, Note_on_c, 2, 42, 99
4, 20040, Note_on_c, 2, 42, 0
4, 20040, Note_on_c, 2, 30, 0
4, 20160, Note_on_c, 2, 30, 99
4, 20160, Note_on_c, 2, 42, 99
4, 20400, Note_on_c, 2, 42, 0
4, 20400, Note_on_c, 2, 30, 0
4, 20400, Control_c, 2, 64, 0
4, 20400, End_track
5, 0, Start_track
5, 0, MIDI_port, 0
5, 0, Title_t, "-------------------------------------------------------------------"
5, 0, End_track
6, 0, Start_track
6, 0, MIDI_port, 0
6, 0, Title_t, "        Classic series"
6, 0, End_track
7, 0, Start_track
7, 0, MIDI_port, 0
7, 0, Title_t, "        F.Chopin - Etude op.105 ""Black keys"""
7, 0, End_track
8, 0, Start_track
8, 0, MIDI_port, 0
8, 0, Title_t, "        sequenced Nov. 2001"
8, 0, End_track
9, 0, Start_track
9, 0, MIDI_port, 0
9, 0, Title_t, "        by Heinz Kannengiesser"
9, 0, End_track
10, 0, Start_track
10, 0, MIDI_port, 0
10, 0, Title_t, "        www.heinz-kannengiesser.de"
10, 0, End_track
11, 0, Start_track
11, 0, MIDI_port, 0
11, 0, Title_t, "-------------------------------------------------------------------"
11, 0, End_track
0, 0, End_of_file