0, 0, Header, 1, 10, 480
1, 0, Start_track
1, 0, Title_t, "Chopin Prelude  No. 12, Opus 28"
1, 0, Copyright_t, "Copyright \251 2002 by Bernd Krueger "
1, 0, Text_t, "Frederic Chopin"
1, 0, Text_t, "Presto"
1, 0, Text_t, "Fertiggestellt am  27.9.2002\012"
1, 0, Text_t, "Normierung: 23.12.2002\012"
1, 0, Text_t, "Dauer: 1:00 Minuten\012"
1, 0, SMPTE_offset, 96, 0, 3, 0, 0
1, 0, Time_signature, 3, 3, 12, 8
1, 0, Key_signature, 5, "major"
1, 0, Tempo, 478927
1, 240, Tempo, 467472
1, 600, Tempo, 471254
1, 720, Tempo, 465658
1, 1200, Tempo, 473149
1, 1440, Tempo, 465658
1, 1920, Tempo, 465658
1, 2160, Tempo, 463822
1, 2360, Tempo, 456621
1, 2440, Tempo, 458435
1, 2480, Tempo, 460193
1, 2640, Tempo, 469373
1, 2760, Tempo, 503482
1, 2880, Tempo, 462000
1, 3000, Tempo, 469373
1, 3120, Tempo, 454856
1, 3360, Tempo, 467472
1, 3600, Tempo, 471254
1, 3840, Tempo, 463822
1, 4320, Tempo, 467472
1, 4800, Tempo, 478927
1, 5040, Tempo, 473149
1, 5240, Tempo, 471254
1, 5320, Tempo, 473149
1, 5400, Tempo, 475059
1, 5440, Tempo, 476948
1, 5520, Tempo, 480846
1, 5540, Tempo, 484809
1, 5560, Tempo, 488838
1, 5580, Tempo, 495009
1, 5600, Tempo, 499168
1, 5620, Tempo, 503482
1, 5660, Tempo, 514447
1, 5760, Tempo, 478927
1, 6000, Tempo, 471254
1, 6240, Tempo, 482820
1, 6360, Tempo, 471254
1, 6480, Tempo, 465658
1, 6960, Tempo, 473149
1, 7200, Tempo, 465658
1, 7680, Tempo, 465658
1, 7920, Tempo, 463822
1, 8120, Tempo, 456621
1, 8200, Tempo, 458435
1, 8240, Tempo, 460193
1, 8400, Tempo, 469373
1, 8540, Tempo, 499168
1, 8640, Tempo, 463822
1, 8760, Tempo, 478927
1, 8880, Tempo, 467472
1, 9120, Tempo, 467472
1, 9360, Tempo, 460193
1, 9600, Tempo, 454856
1, 9840, Tempo, 467472
1, 10080, Tempo, 460193
1, 10560, Tempo, 467472
1, 10800, Tempo, 458435
1, 11280, Tempo, 467472
1, 11520, Tempo, 454856
1, 11640, Tempo, 467472
1, 11760, Tempo, 453138
1, 12000, Tempo, 463822
1, 12240, Tempo, 475059
1, 12480, Tempo, 460193
1, 12720, Tempo, 482820
1, 12960, Tempo, 469373
1, 13200, Tempo, 486815
1, 13440, Tempo, 476948
1, 13680, Tempo, 492935
1, 13920, Tempo, 473149
1, 14160, Tempo, 503482
1, 14280, Tempo, 553148
1, 14400, Tempo, 485751
1, 14640, Tempo, 474533
1, 14880, Tempo, 490878
1, 15120, Tempo, 483832
1, 15360, Tempo, 470921
1, 15600, Tempo, 486815
1, 15720, Tempo, 525947
1, 15840, Tempo, 478927
1, 16080, Tempo, 473149
1, 16320, Tempo, 478927
1, 16440, Tempo, 519031
1, 16560, Tempo, 483832
1, 16800, Tempo, 474533
1, 17040, Tempo, 490878
1, 17280, Tempo, 478927
1, 17520, Tempo, 467472
1, 17760, Tempo, 490878
1, 18000, Tempo, 478927
1, 18240, Tempo, 467472
1, 18480, Tempo, 490878
1, 18600, Tempo, 519031
1, 18720, Tempo, 478927
1, 18960, Tempo, 473149
1, 19200, Tempo, 478927
1, 19440, Tempo, 478927
1, 19680, Tempo, 467472
1, 19920, Tempo, 490878
1, 20040, Tempo, 530645
1, 20160, Tempo, 478927
1, 20400, Tempo, 475059
1, 20760, Tempo, 471254
1, 20880, Tempo, 465658
1, 21360, Tempo, 480846
1, 21480, Tempo, 514447
1, 21600, Tempo, 478927
1, 21840, Tempo, 473149
1, 22200, Tempo, 471254
1, 22320, Tempo, 465658
1, 22800, Tempo, 482820
1, 22920, Tempo, 561010
1, 23040, Tempo, 473149
1, 23740, Tempo, 469373
1, 23760, Tempo, 480846
1, 24120, Tempo, 488838
1, 24240, Tempo, 478927
1, 24480, Tempo, 486815
1, 24500, Tempo, 467472
1, 24580, Tempo, 469373
1, 24640, Tempo, 471254
1, 24720, Tempo, 473149
1, 24780, Tempo, 475059
1, 24860, Tempo, 476948
1, 24920, Tempo, 478927
1, 25000, Tempo, 480846
1, 25060, Tempo, 482820
1, 25140, Tempo, 484809
1, 25160, Tempo, 480846
1, 25220, Tempo, 482820
1, 25260, Tempo, 484809
1, 25300, Tempo, 486815
1, 25360, Tempo, 488838
1, 25400, Tempo, 490878
1, 25440, Tempo, 492935
1, 25480, Tempo, 495009
1, 25540, Tempo, 497100
1, 25580, Tempo, 499168
1, 25620, Tempo, 501337
1, 25660, Tempo, 503482
1, 25680, Tempo, 533096
1, 25700, Tempo, 521286
1, 25720, Tempo, 523606
1, 25740, Tempo, 525947
1, 25760, Tempo, 528309
1, 25800, Tempo, 558347
1, 25920, Tempo, 505604
1, 26160, Tempo, 495009
1, 26400, Tempo, 484809
1, 26520, Tempo, 521286
1, 26640, Tempo, 501337
1, 26880, Tempo, 495009
1, 26900, Tempo, 507829
1, 27240, Tempo, 507829
1, 27360, Tempo, 497100
1, 27380, Tempo, 516707
1, 27480, Tempo, 574713
1, 27600, Tempo, 514447
1, 27960, Tempo, 523606
1, 28080, Tempo, 540443
1, 28300, Tempo, 503482
1, 28320, Tempo, 484809
1, 28360, Tempo, 486815
1, 28380, Tempo, 488838
1, 28400, Tempo, 490878
1, 28440, Tempo, 492935
1, 28460, Tempo, 495009
1, 28480, Tempo, 497100
1, 28520, Tempo, 499168
1, 28540, Tempo, 501337
1, 28560, Tempo, 503482
1, 28800, Tempo, 480846
1, 29040, Tempo, 471254
1, 29400, Tempo, 471254
1, 29520, Tempo, 465658
1, 30000, Tempo, 473149
1, 30240, Tempo, 465658
1, 30720, Tempo, 465658
1, 30960, Tempo, 463822
1, 31160, Tempo, 456621
1, 31240, Tempo, 458435
1, 31280, Tempo, 460193
1, 31440, Tempo, 469373
1, 31680, Tempo, 454856
1, 31800, Tempo, 469373
1, 31920, Tempo, 454856
1, 32160, Tempo, 467472
1, 32400, Tempo, 471254
1, 32640, Tempo, 463822
1, 33120, Tempo, 467472
1, 33600, Tempo, 478927
1, 33840, Tempo, 473149
1, 34040, Tempo, 471254
1, 34120, Tempo, 473149
1, 34200, Tempo, 475059
1, 34240, Tempo, 476948
1, 34320, Tempo, 480846
1, 34340, Tempo, 484809
1, 34360, Tempo, 488838
1, 34380, Tempo, 495009
1, 34400, Tempo, 499168
1, 34420, Tempo, 503482
1, 34460, Tempo, 514447
1, 34560, Tempo, 478927
1, 34800, Tempo, 471254
1, 35040, Tempo, 482820
1, 35160, Tempo, 471254
1, 35280, Tempo, 465658
1, 35760, Tempo, 473149
1, 36000, Tempo, 465658
1, 36480, Tempo, 465658
1, 36720, Tempo, 463822
1, 36920, Tempo, 456621
1, 37000, Tempo, 458435
1, 37040, Tempo, 460193
1, 37200, Tempo, 469373
1, 37440, Tempo, 469962
1, 37560, Tempo, 477441
1, 37680, Tempo, 469962
1, 37920, Tempo, 477441
1, 38160, Tempo, 469962
1, 38280, Tempo, 477441
1, 38400, Tempo, 469962
1, 38640, Tempo, 477441
1, 38880, Tempo, 469962
1, 39000, Tempo, 477441
1, 39120, Tempo, 469962
1, 39360, Tempo, 477441
1, 39600, Tempo, 469962
1, 39720, Tempo, 477441
1, 39840, Tempo, 469962
1, 40080, Tempo, 477441
1, 40320, Tempo, 469962
1, 40440, Tempo, 477441
1, 40560, Tempo, 469962
1, 40800, Tempo, 477441
1, 41040, Tempo, 469962
1, 41160, Tempo, 477441
1, 41280, Tempo, 469962
1, 41520, Tempo, 477441
1, 41760, Tempo, 469962
1, 41880, Tempo, 477441
1, 42000, Tempo, 469962
1, 42240, Tempo, 477441
1, 42480, Tempo, 469962
1, 42600, Tempo, 477441
1, 42720, Tempo, 469962
1, 42960, Tempo, 486815
1, 43080, Tempo, 505604
1, 43200, Tempo, 475059
1, 43320, Tempo, 484809
1, 43440, Tempo, 475059
1, 43680, Tempo, 477441
1, 43920, Tempo, 469962
1, 44040, Tempo, 477441
1, 44160, Tempo, 469962
1, 44400, Tempo, 477441
1, 44640, Tempo, 469962
1, 44760, Tempo, 477441
1, 44880, Tempo, 469962
1, 45120, Tempo, 477441
1, 45240, Tempo, 520743
1, 45360, Tempo, 473149
1, 46080, Tempo, 519031
1, 46320, Tempo, 499584
1, 46560, Tempo, 483364
1, 46800, Tempo, 487329
1, 46920, Tempo, 499584
1, 47040, Tempo, 483364
1, 47060, Tempo, 487329
1, 47280, Tempo, 479425
1, 47520, Tempo, 487329
1, 47640, Tempo, 519211
1, 47760, Tempo, 483364
1, 48000, Tempo, 475624
1, 48240, Tempo, 487329
1, 48360, Tempo, 553097
1, 48480, Tempo, 483364
1, 48720, Tempo, 491320
1, 48960, Tempo, 525026
1, 49200, Tempo, 493502
1, 49440, Tempo, 485751
1, 49680, Tempo, 487329
1, 49700, Tempo, 493502
1, 49800, Tempo, 499584
1, 49920, Tempo, 489317
1, 50160, Tempo, 475624
1, 50180, Tempo, 479425
1, 50400, Tempo, 499168
1, 50520, Tempo, 577534
1, 50640, Tempo, 505604
1, 50880, Tempo, 495009
1, 51120, Tempo, 503482
1, 51240, Tempo, 553097
1, 51360, Tempo, 497100
1, 51480, Tempo, 509987
1, 51600, Tempo, 525947
1, 51720, Tempo, 555607
1, 51840, Tempo, 482820
1, 52560, Tempo, 478927
1, 52800, Tempo, 463822
1, 53280, Tempo, 478927
1, 53760, Tempo, 512251
1, 54000, Tempo, 499168
1, 54240, Tempo, 509987
1, 54720, Tempo, 584738
1, 54960, Tempo, 545951
1, 55200, Tempo, 593178
1, 55440, Tempo, 568559
1, 55680, Tempo, 693161
1, 55920, Tempo, 620091
1, 56302, Tempo, 603076
1, 56303, Tempo, 631579
1, 56400, Tempo, 600000
1, 56400, End_track
2, 0, Start_track
2, 0, MIDI_port, 0
2, 0, Title_t, "Piano right"
2, 0, Program_c, 0, 0
2, 0, Control_c, 0, 7, 100
2, 0, Control_c, 0, 10, 64
2, 0, Control_c, 0, 91, 127
2, 0, Control_c, 0, 91, 127
2, 1, Note_on_c, 0, 63, 70
2, 1, Note_on_c, 0, 59, 59
2, 120, Note_on_c, 0, 64, 59
2, 121, Note_on_c, 0, 63, 0
2, 180, Note_on_c, 0, 64, 0
2, 180, Note_on_c, 0, 59, 0
2, 240, Note_on_c, 0, 59, 59
2, 240, Note_on_c, 0, 64, 70
2, 360, Note_on_c, 0, 64, 0
2, 360, Note_on_c, 0, 65, 59
2, 420, Note_on_c, 0, 65, 0
2, 420, Note_on_c, 0, 59, 0
2, 480, Note_on_c, 0, 59, 59
2, 480, Note_on_c, 0, 63, 59
2, 480, Note_on_c, 0, 65, 70
2, 600, Note_on_c, 0, 65, 0
2, 600, Note_on_c, 0, 66, 59
2, 660, Note_on_c, 0, 66, 0
2, 660, Note_on_c, 0, 63, 0
2, 660, Note_on_c, 0, 59, 0
2, 720, Note_on_c, 0, 59, 59
2, 720, Note_on_c, 0, 63, 59
2, 720, Note_on_c, 0, 66, 70
2, 840, Note_on_c, 0, 66, 0
2, 840, Note_on_c, 0, 67, 59
2, 900, Note_on_c, 0, 67, 0
2, 900, Note_on_c, 0, 63, 0
2, 900, Note_on_c, 0, 59, 0
2, 960, Note_on_c, 0, 59, 59
2, 960, Note_on_c, 0, 63, 59
2, 960, Note_on_c, 0, 67, 70
2, 1080, Note_on_c, 0, 67, 0
2, 1080, Note_on_c, 0, 68, 59
2, 1140, Note_on_c, 0, 68, 0
2, 1140, Note_on_c, 0, 63, 0
2, 1140, Note_on_c, 0, 59, 0
2, 1200, Note_on_c, 0, 59, 59
2, 1200, Note_on_c, 0, 63, 59
2, 1200, Note_on_c, 0, 68, 70
2, 1320, Note_on_c, 0, 68, 0
2, 1320, Note_on_c, 0, 69, 59
2, 1380, Note_on_c, 0, 69, 0
2, 1380, Note_on_c, 0, 63, 0
2, 1380, Note_on_c, 0, 59, 0
2, 1440, Note_on_c, 0, 63, 60
2, 1440, Note_on_c, 0, 69, 71
2, 1560, Note_on_c, 0, 69, 0
2, 1560, Note_on_c, 0, 70, 61
2, 1620, Note_on_c, 0, 70, 0
2, 1620, Note_on_c, 0, 63, 0
2, 1680, Note_on_c, 0, 63, 61
2, 1680, Note_on_c, 0, 70, 72
2, 1800, Note_on_c, 0, 70, 0
2, 1800, Note_on_c, 0, 71, 62
2, 1860, Note_on_c, 0, 71, 0
2, 1860, Note_on_c, 0, 63, 0
2, 1920, Note_on_c, 0, 63, 62
2, 1920, Note_on_c, 0, 68, 74
2, 1920, Note_on_c, 0, 71, 74
2, 2040, Note_on_c, 0, 71, 0
2, 2040, Note_on_c, 0, 72, 63
2, 2100, Note_on_c, 0, 72, 0
2, 2100, Note_on_c, 0, 68, 0
2, 2100, Note_on_c, 0, 63, 0
2, 2160, Note_on_c, 0, 68, 64
2, 2160, Note_on_c, 0, 63, 64
2, 2160, Note_on_c, 0, 72, 76
2, 2280, Note_on_c, 0, 72, 0
2, 2280, Note_on_c, 0, 73, 65
2, 2340, Note_on_c, 0, 73, 0
2, 2340, Note_on_c, 0, 63, 0
2, 2340, Note_on_c, 0, 68, 0
2, 2400, Note_on_c, 0, 63, 65
2, 2400, Note_on_c, 0, 68, 65
2, 2400, Note_on_c, 0, 73, 77
2, 2520, Note_on_c, 0, 73, 0
2, 2520, Note_on_c, 0, 74, 66
2, 2580, Note_on_c, 0, 74, 0
2, 2580, Note_on_c, 0, 68, 0
2, 2580, Note_on_c, 0, 63, 0
2, 2640, Note_on_c, 0, 63, 66
2, 2640, Note_on_c, 0, 68, 66
2, 2640, Note_on_c, 0, 74, 79
2, 2760, Note_on_c, 0, 74, 0
2, 2760, Note_on_c, 0, 75, 68
2, 2820, Note_on_c, 0, 75, 0
2, 2820, Note_on_c, 0, 68, 0
2, 2820, Note_on_c, 0, 63, 0
2, 2880, Note_on_c, 0, 63, 68
2, 2880, Note_on_c, 0, 70, 68
2, 2880, Note_on_c, 0, 75, 81
2, 3000, Note_on_c, 0, 75, 0
2, 3000, Note_on_c, 0, 76, 77
2, 3060, Note_on_c, 0, 76, 0
2, 3060, Note_on_c, 0, 70, 0
2, 3060, Note_on_c, 0, 63, 0
2, 3120, Note_on_c, 0, 70, 69
2, 3120, Note_on_c, 0, 76, 82
2, 3240, Note_on_c, 0, 76, 0
2, 3240, Note_on_c, 0, 75, 78
2, 3300, Note_on_c, 0, 75, 0
2, 3300, Note_on_c, 0, 70, 0
2, 3360, Note_on_c, 0, 63, 70
2, 3360, Note_on_c, 0, 70, 70
2, 3360, Note_on_c, 0, 75, 84
2, 3480, Note_on_c, 0, 75, 0
2, 3480, Note_on_c, 0, 73, 84
2, 3540, Note_on_c, 0, 73, 0
2, 3540, Note_on_c, 0, 70, 0
2, 3540, Note_on_c, 0, 63, 0
2, 3600, Note_on_c, 0, 63, 69
2, 3600, Note_on_c, 0, 68, 69
2, 3600, Note_on_c, 0, 73, 82
2, 3720, Note_on_c, 0, 73, 0
2, 3720, Note_on_c, 0, 71, 79
2, 3780, Note_on_c, 0, 71, 0
2, 3780, Note_on_c, 0, 68, 0
2, 3780, Note_on_c, 0, 63, 0
2, 3840, Note_on_c, 0, 63, 70
2, 3840, Note_on_c, 0, 68, 70
2, 3840, Note_on_c, 0, 71, 83
2, 3960, Note_on_c, 0, 71, 0
2, 3960, Note_on_c, 0, 73, 79
2, 4020, Note_on_c, 0, 73, 0
2, 4020, Note_on_c, 0, 68, 0
2, 4020, Note_on_c, 0, 63, 0
2, 4080, Note_on_c, 0, 63, 72
2, 4080, Note_on_c, 0, 68, 72
2, 4080, Note_on_c, 0, 73, 85
2, 4200, Note_on_c, 0, 73, 0
2, 4200, Note_on_c, 0, 75, 86
2, 4260, Note_on_c, 0, 75, 0
2, 4260, Note_on_c, 0, 68, 0
2, 4260, Note_on_c, 0, 63, 0
2, 4320, Note_on_c, 0, 64, 73
2, 4320, Note_on_c, 0, 68, 73
2, 4320, Note_on_c, 0, 75, 87
2, 4440, Note_on_c, 0, 75, 0
2, 4440, Note_on_c, 0, 73, 86
2, 4500, Note_on_c, 0, 73, 0
2, 4500, Note_on_c, 0, 68, 0
2, 4500, Note_on_c, 0, 64, 0
2, 4560, Note_on_c, 0, 64, 71
2, 4560, Note_on_c, 0, 68, 71
2, 4560, Note_on_c, 0, 73, 84
2, 4680, Note_on_c, 0, 73, 0
2, 4680, Note_on_c, 0, 71, 83
2, 4740, Note_on_c, 0, 71, 0
2, 4740, Note_on_c, 0, 68, 0
2, 4740, Note_on_c, 0, 64, 0
2, 4800, Note_on_c, 0, 61, 68
2, 4800, Note_on_c, 0, 64, 68
2, 4800, Note_on_c, 0, 71, 81
2, 4920, Note_on_c, 0, 71, 0
2, 4920, Note_on_c, 0, 70, 80
2, 4980, Note_on_c, 0, 70, 0
2, 4980, Note_on_c, 0, 64, 0
2, 4980, Note_on_c, 0, 61, 0
2, 5040, Note_on_c, 0, 61, 84
2, 5160, Note_on_c, 0, 71, 76
2, 5280, Note_on_c, 0, 71, 0
2, 5280, Note_on_c, 0, 61, 0
2, 5280, Note_on_c, 0, 71, 77
2, 5280, Note_on_c, 0, 61, 64
2, 5400, Note_on_c, 0, 71, 0
2, 5400, Note_on_c, 0, 70, 75
2, 5520, Note_on_c, 0, 70, 0
2, 5520, Note_on_c, 0, 61, 0
2, 5520, Note_on_c, 0, 70, 73
2, 5520, Note_on_c, 0, 61, 61
2, 5640, Note_on_c, 0, 70, 0
2, 5640, Note_on_c, 0, 63, 72
2, 5760, Note_on_c, 0, 63, 0
2, 5760, Note_on_c, 0, 61, 0
2, 5760, Note_on_c, 0, 59, 59
2, 5760, Note_on_c, 0, 63, 70
2, 5880, Note_on_c, 0, 63, 0
2, 5880, Note_on_c, 0, 64, 59
2, 5940, Note_on_c, 0, 64, 0
2, 5940, Note_on_c, 0, 59, 0
2, 6000, Note_on_c, 0, 59, 59
2, 6000, Note_on_c, 0, 64, 70
2, 6120, Note_on_c, 0, 64, 0
2, 6120, Note_on_c, 0, 65, 59
2, 6180, Note_on_c, 0, 65, 0
2, 6180, Note_on_c, 0, 59, 0
2, 6240, Note_on_c, 0, 59, 59
2, 6240, Note_on_c, 0, 63, 59
2, 6240, Note_on_c, 0, 65, 70
2, 6360, Note_on_c, 0, 65, 0
2, 6360, Note_on_c, 0, 66, 59
2, 6420, Note_on_c, 0, 66, 0
2, 6420, Note_on_c, 0, 63, 0
2, 6420, Note_on_c, 0, 59, 0
2, 6480, Note_on_c, 0, 59, 59
2, 6480, Note_on_c, 0, 63, 59
2, 6480, Note_on_c, 0, 66, 70
2, 6600, Note_on_c, 0, 66, 0
2, 6600, Note_on_c, 0, 67, 59
2, 6660, Note_on_c, 0, 67, 0
2, 6660, Note_on_c, 0, 63, 0
2, 6660, Note_on_c, 0, 59, 0
2, 6720, Note_on_c, 0, 59, 59
2, 6720, Note_on_c, 0, 63, 59
2, 6720, Note_on_c, 0, 67, 70
2, 6840, Note_on_c, 0, 67, 0
2, 6840, Note_on_c, 0, 68, 59
2, 6900, Note_on_c, 0, 68, 0
2, 6900, Note_on_c, 0, 63, 0
2, 6900, Note_on_c, 0, 59, 0
2, 6960, Note_on_c, 0, 59, 59
2, 6960, Note_on_c, 0, 63, 59
2, 6960, Note_on_c, 0, 68, 70
2, 7080, Note_on_c, 0, 68, 0
2, 7080, Note_on_c, 0, 69, 59
2, 7140, Note_on_c, 0, 69, 0
2, 7140, Note_on_c, 0, 63, 0
2, 7140, Note_on_c, 0, 59, 0
2, 7200, Note_on_c, 0, 59, 60
2, 7200, Note_on_c, 0, 64, 60
2, 7200, Note_on_c, 0, 69, 71
2, 7320, Note_on_c, 0, 69, 0
2, 7320, Note_on_c, 0, 70, 61
2, 7380, Note_on_c, 0, 70, 0
2, 7380, Note_on_c, 0, 64, 0
2, 7380, Note_on_c, 0, 59, 0
2, 7440, Note_on_c, 0, 59, 61
2, 7440, Note_on_c, 0, 64, 61
2, 7440, Note_on_c, 0, 70, 72
2, 7560, Note_on_c, 0, 70, 0
2, 7560, Note_on_c, 0, 71, 62
2, 7620, Note_on_c, 0, 71, 0
2, 7620, Note_on_c, 0, 64, 0
2, 7620, Note_on_c, 0, 59, 0
2, 7680, Note_on_c, 0, 59, 62
2, 7680, Note_on_c, 0, 64, 74
2, 7680, Note_on_c, 0, 71, 74
2, 7800, Note_on_c, 0, 71, 0
2, 7800, Note_on_c, 0, 72, 64
2, 7860, Note_on_c, 0, 72, 0
2, 7860, Note_on_c, 0, 64, 0
2, 7860, Note_on_c, 0, 59, 0
2, 7920, Note_on_c, 0, 65, 65
2, 7920, Note_on_c, 0, 72, 77
2, 8040, Note_on_c, 0, 72, 0
2, 8040, Note_on_c, 0, 73, 72
2, 8100, Note_on_c, 0, 73, 0
2, 8100, Note_on_c, 0, 65, 0
2, 8160, Note_on_c, 0, 65, 66
2, 8160, Note_on_c, 0, 73, 79
2, 8280, Note_on_c, 0, 73, 0
2, 8280, Note_on_c, 0, 74, 73
2, 8340, Note_on_c, 0, 74, 0
2, 8340, Note_on_c, 0, 65, 0
2, 8400, Note_on_c, 0, 65, 68
2, 8400, Note_on_c, 0, 71, 82
2, 8520, Note_on_c, 0, 74, 76
2, 8580, Note_on_c, 0, 74, 0
2, 8580, Note_on_c, 0, 71, 0
2, 8580, Note_on_c, 0, 65, 0
2, 8640, Note_on_c, 0, 66, 76
2, 8640, Note_on_c, 0, 71, 76
2, 8640, Note_on_c, 0, 75, 90
2, 8760, Note_on_c, 0, 75, 0
2, 8760, Note_on_c, 0, 76, 85
2, 8820, Note_on_c, 0, 76, 0
2, 8820, Note_on_c, 0, 71, 0
2, 8820, Note_on_c, 0, 66, 0
2, 8880, Note_on_c, 0, 66, 75
2, 8880, Note_on_c, 0, 71, 75
2, 8880, Note_on_c, 0, 76, 89
2, 9000, Note_on_c, 0, 76, 0
2, 9000, Note_on_c, 0, 75, 87
2, 9060, Note_on_c, 0, 75, 0
2, 9060, Note_on_c, 0, 71, 0
2, 9060, Note_on_c, 0, 66, 0
2, 9120, Note_on_c, 0, 66, 76
2, 9120, Note_on_c, 0, 71, 76
2, 9120, Note_on_c, 0, 75, 90
2, 9240, Note_on_c, 0, 75, 0
2, 9240, Note_on_c, 0, 78, 88
2, 9300, Note_on_c, 0, 78, 0
2, 9300, Note_on_c, 0, 71, 0
2, 9300, Note_on_c, 0, 66, 0
2, 9360, Note_on_c, 0, 66, 76
2, 9360, Note_on_c, 0, 70, 76
2, 9360, Note_on_c, 0, 78, 90
2, 9480, Note_on_c, 0, 78, 0
2, 9480, Note_on_c, 0, 73, 85
2, 9540, Note_on_c, 0, 73, 0
2, 9540, Note_on_c, 0, 70, 0
2, 9540, Note_on_c, 0, 66, 0
2, 9600, Note_on_c, 0, 66, 75
2, 9600, Note_on_c, 0, 70, 75
2, 9600, Note_on_c, 0, 73, 89
2, 9720, Note_on_c, 0, 73, 0
2, 9720, Note_on_c, 0, 75, 87
2, 9780, Note_on_c, 0, 75, 0
2, 9780, Note_on_c, 0, 70, 0
2, 9780, Note_on_c, 0, 66, 0
2, 9840, Note_on_c, 0, 66, 76
2, 9840, Note_on_c, 0, 70, 76
2, 9840, Note_on_c, 0, 75, 90
2, 9960, Note_on_c, 0, 75, 0
2, 9960, Note_on_c, 0, 76, 88
2, 10020, Note_on_c, 0, 76, 0
2, 10020, Note_on_c, 0, 70, 0
2, 10020, Note_on_c, 0, 66, 0
2, 10080, Note_on_c, 0, 66, 68
2, 10080, Note_on_c, 0, 71, 68
2, 10080, Note_on_c, 0, 76, 81
2, 10200, Note_on_c, 0, 76, 0
2, 10200, Note_on_c, 0, 75, 75
2, 10260, Note_on_c, 0, 75, 0
2, 10260, Note_on_c, 0, 71, 0
2, 10260, Note_on_c, 0, 66, 0
2, 10320, Note_on_c, 0, 66, 66
2, 10320, Note_on_c, 0, 71, 66
2, 10320, Note_on_c, 0, 75, 78
2, 10440, Note_on_c, 0, 75, 0
2, 10440, Note_on_c, 0, 80, 75
2, 10500, Note_on_c, 0, 80, 0
2, 10500, Note_on_c, 0, 71, 0
2, 10500, Note_on_c, 0, 66, 0
2, 10560, Note_on_c, 0, 66, 64
2, 10560, Note_on_c, 0, 80, 76
2, 10680, Note_on_c, 0, 80, 0
2, 10680, Note_on_c, 0, 78, 73
2, 10740, Note_on_c, 0, 78, 0
2, 10740, Note_on_c, 0, 66, 0
2, 10800, Note_on_c, 0, 66, 63
2, 10800, Note_on_c, 0, 70, 63
2, 10800, Note_on_c, 0, 78, 74
2, 10920, Note_on_c, 0, 78, 0
2, 10920, Note_on_c, 0, 73, 69
2, 10980, Note_on_c, 0, 73, 0
2, 10980, Note_on_c, 0, 70, 0
2, 10980, Note_on_c, 0, 66, 0
2, 11040, Note_on_c, 0, 64, 60
2, 11040, Note_on_c, 0, 70, 60
2, 11040, Note_on_c, 0, 73, 71
2, 11160, Note_on_c, 0, 73, 0
2, 11160, Note_on_c, 0, 75, 68
2, 11220, Note_on_c, 0, 75, 0
2, 11220, Note_on_c, 0, 70, 0
2, 11220, Note_on_c, 0, 64, 0
2, 11280, Note_on_c, 0, 64, 59
2, 11280, Note_on_c, 0, 70, 59
2, 11280, Note_on_c, 0, 75, 70
2, 11400, Note_on_c, 0, 75, 0
2, 11400, Note_on_c, 0, 76, 67
2, 11460, Note_on_c, 0, 76, 0
2, 11460, Note_on_c, 0, 70, 0
2, 11460, Note_on_c, 0, 64, 0
2, 11520, Note_on_c, 0, 63, 60
2, 11520, Note_on_c, 0, 71, 60
2, 11520, Note_on_c, 0, 76, 72
2, 11640, Note_on_c, 0, 76, 0
2, 11640, Note_on_c, 0, 75, 68
2, 11700, Note_on_c, 0, 75, 0
2, 11700, Note_on_c, 0, 71, 0
2, 11700, Note_on_c, 0, 63, 0
2, 11760, Note_on_c, 0, 63, 61
2, 11760, Note_on_c, 0, 75, 72
2, 11880, Note_on_c, 0, 75, 0
2, 11880, Note_on_c, 0, 71, 72
2, 11940, Note_on_c, 0, 71, 0
2, 11940, Note_on_c, 0, 63, 0
2, 12000, Note_on_c, 0, 64, 64
2, 12000, Note_on_c, 0, 71, 76
2, 12120, Note_on_c, 0, 71, 0
2, 12120, Note_on_c, 0, 67, 75
2, 12180, Note_on_c, 0, 67, 0
2, 12180, Note_on_c, 0, 64, 0
2, 12240, Note_on_c, 0, 63, 66
2, 12240, Note_on_c, 0, 67, 78
2, 12360, Note_on_c, 0, 67, 0
2, 12360, Note_on_c, 0, 66, 74
2, 12420, Note_on_c, 0, 66, 0
2, 12420, Note_on_c, 0, 63, 0
2, 12480, Note_on_c, 0, 63, 67
2, 12480, Note_on_c, 0, 66, 80
2, 12600, Note_on_c, 0, 66, 0
2, 12600, Note_on_c, 0, 71, 75
2, 12660, Note_on_c, 0, 71, 0
2, 12660, Note_on_c, 0, 63, 0
2, 12720, Note_on_c, 0, 64, 69
2, 12720, Note_on_c, 0, 71, 82
2, 12840, Note_on_c, 0, 71, 0
2, 12840, Note_on_c, 0, 67, 78
2, 12900, Note_on_c, 0, 67, 0
2, 12900, Note_on_c, 0, 64, 0
2, 12960, Note_on_c, 0, 63, 72
2, 12960, Note_on_c, 0, 66, 85
2, 13080, Note_on_c, 0, 66, 0
2, 13080, Note_on_c, 0, 71, 81
2, 13140, Note_on_c, 0, 71, 0
2, 13140, Note_on_c, 0, 63, 0
2, 13200, Note_on_c, 0, 64, 72
2, 13200, Note_on_c, 0, 71, 86
2, 13320, Note_on_c, 0, 71, 0
2, 13320, Note_on_c, 0, 67, 85
2, 13380, Note_on_c, 0, 67, 0
2, 13380, Note_on_c, 0, 64, 0
2, 13440, Note_on_c, 0, 63, 76
2, 13440, Note_on_c, 0, 66, 90
2, 13560, Note_on_c, 0, 66, 0
2, 13560, Note_on_c, 0, 71, 88
2, 13620, Note_on_c, 0, 71, 0
2, 13620, Note_on_c, 0, 63, 0
2, 13680, Note_on_c, 0, 64, 77
2, 13680, Note_on_c, 0, 71, 91
2, 13800, Note_on_c, 0, 71, 0
2, 13800, Note_on_c, 0, 67, 87
2, 13860, Note_on_c, 0, 67, 0
2, 13860, Note_on_c, 0, 64, 0
2, 13920, Note_on_c, 0, 62, 78
2, 13920, Note_on_c, 0, 66, 93
2, 14040, Note_on_c, 0, 66, 0
2, 14040, Note_on_c, 0, 71, 92
2, 14100, Note_on_c, 0, 71, 0
2, 14100, Note_on_c, 0, 62, 0
2, 14160, Note_on_c, 0, 64, 81
2, 14160, Note_on_c, 0, 71, 96
2, 14280, Note_on_c, 0, 71, 0
2, 14280, Note_on_c, 0, 67, 95
2, 14340, Note_on_c, 0, 67, 0
2, 14340, Note_on_c, 0, 64, 0
2, 14400, Note_on_c, 0, 71, 92
2, 14400, Note_on_c, 0, 64, 77
2, 14400, Note_on_c, 0, 67, 92
2, 14520, Note_on_c, 0, 67, 0
2, 14520, Note_on_c, 0, 64, 0
2, 14520, Note_on_c, 0, 62, 74
2, 14520, Note_on_c, 0, 66, 87
2, 14610, Note_on_c, 0, 67, 72
2, 14640, Note_on_c, 0, 67, 0
2, 14640, Note_on_c, 0, 66, 0
2, 14640, Note_on_c, 0, 62, 0
2, 14640, Note_on_c, 0, 62, 77
2, 14640, Note_on_c, 0, 66, 92
2, 14760, Note_on_c, 0, 66, 0
2, 14760, Note_on_c, 0, 62, 0
2, 14760, Note_on_c, 0, 61, 72
2, 14760, Note_on_c, 0, 64, 85
2, 14880, Note_on_c, 0, 64, 0
2, 14880, Note_on_c, 0, 61, 0
2, 14880, Note_on_c, 0, 62, 77
2, 14880, Note_on_c, 0, 66, 92
2, 15120, Note_on_c, 0, 66, 0
2, 15120, Note_on_c, 0, 62, 0
2, 15120, Note_on_c, 0, 64, 73
2, 15120, Note_on_c, 0, 67, 87
2, 15240, Note_on_c, 0, 67, 0
2, 15240, Note_on_c, 0, 64, 0
2, 15240, Note_on_c, 0, 62, 70
2, 15240, Note_on_c, 0, 66, 82
2, 15330, Note_on_c, 0, 67, 71
2, 15360, Note_on_c, 0, 67, 0
2, 15360, Note_on_c, 0, 66, 0
2, 15360, Note_on_c, 0, 62, 0
2, 15360, Note_on_c, 0, 62, 73
2, 15360, Note_on_c, 0, 66, 87
2, 15480, Note_on_c, 0, 66, 0
2, 15480, Note_on_c, 0, 62, 0
2, 15480, Note_on_c, 0, 61, 68
2, 15480, Note_on_c, 0, 64, 80
2, 15600, Note_on_c, 0, 64, 0
2, 15600, Note_on_c, 0, 61, 0
2, 15600, Note_on_c, 0, 62, 73
2, 15600, Note_on_c, 0, 66, 87
2, 15840, Note_on_c, 0, 66, 0
2, 15840, Note_on_c, 0, 62, 0
2, 15840, Note_on_c, 0, 71, 0
2, 15840, Note_on_c, 0, 62, 61
2, 15840, Note_on_c, 0, 68, 61
2, 15840, Note_on_c, 0, 71, 72
2, 15960, Note_on_c, 0, 71, 0
2, 15960, Note_on_c, 0, 62, 0
2, 15960, Note_on_c, 0, 64, 61
2, 15960, Note_on_c, 0, 72, 72
2, 16020, Note_on_c, 0, 72, 0
2, 16020, Note_on_c, 0, 64, 0
2, 16020, Note_on_c, 0, 68, 0
2, 16080, Note_on_c, 0, 68, 61
2, 16080, Note_on_c, 0, 64, 61
2, 16080, Note_on_c, 0, 72, 72
2, 16200, Note_on_c, 0, 72, 0
2, 16200, Note_on_c, 0, 64, 0
2, 16200, Note_on_c, 0, 62, 61
2, 16200, Note_on_c, 0, 71, 72
2, 16260, Note_on_c, 0, 71, 0
2, 16260, Note_on_c, 0, 62, 0
2, 16260, Note_on_c, 0, 68, 0
2, 16320, Note_on_c, 0, 68, 61
2, 16320, Note_on_c, 0, 62, 61
2, 16320, Note_on_c, 0, 71, 72
2, 16440, Note_on_c, 0, 71, 0
2, 16440, Note_on_c, 0, 62, 0
2, 16440, Note_on_c, 0, 64, 61
2, 16440, Note_on_c, 0, 72, 72
2, 16500, Note_on_c, 0, 72, 0
2, 16500, Note_on_c, 0, 64, 0
2, 16500, Note_on_c, 0, 68, 0
2, 16560, Note_on_c, 0, 69, 87
2, 16560, Note_on_c, 0, 62, 73
2, 16560, Note_on_c, 0, 65, 87
2, 16680, Note_on_c, 0, 65, 0
2, 16680, Note_on_c, 0, 62, 0
2, 16680, Note_on_c, 0, 60, 70
2, 16680, Note_on_c, 0, 64, 82
2, 16770, Note_on_c, 0, 65, 63
2, 16800, Note_on_c, 0, 65, 0
2, 16800, Note_on_c, 0, 64, 0
2, 16800, Note_on_c, 0, 60, 0
2, 16800, Note_on_c, 0, 60, 73
2, 16800, Note_on_c, 0, 64, 87
2, 16920, Note_on_c, 0, 64, 0
2, 16920, Note_on_c, 0, 60, 0
2, 16920, Note_on_c, 0, 59, 68
2, 16920, Note_on_c, 0, 62, 80
2, 17040, Note_on_c, 0, 62, 0
2, 17040, Note_on_c, 0, 59, 0
2, 17040, Note_on_c, 0, 60, 73
2, 17040, Note_on_c, 0, 64, 87
2, 17280, Note_on_c, 0, 64, 0
2, 17280, Note_on_c, 0, 60, 0
2, 17280, Note_on_c, 0, 69, 0
2, 17280, Note_on_c, 0, 69, 84
2, 17280, Note_on_c, 0, 62, 69
2, 17280, Note_on_c, 0, 65, 82
2, 17400, Note_on_c, 0, 65, 0
2, 17400, Note_on_c, 0, 62, 0
2, 17400, Note_on_c, 0, 60, 66
2, 17400, Note_on_c, 0, 64, 77
2, 17490, Note_on_c, 0, 65, 59
2, 17520, Note_on_c, 0, 65, 0
2, 17520, Note_on_c, 0, 64, 0
2, 17520, Note_on_c, 0, 60, 0
2, 17520, Note_on_c, 0, 60, 69
2, 17520, Note_on_c, 0, 64, 82
2, 17640, Note_on_c, 0, 64, 0
2, 17640, Note_on_c, 0, 60, 0
2, 17640, Note_on_c, 0, 59, 64
2, 17640, Note_on_c, 0, 62, 76
2, 17760, Note_on_c, 0, 62, 0
2, 17760, Note_on_c, 0, 59, 0
2, 17760, Note_on_c, 0, 60, 69
2, 17760, Note_on_c, 0, 64, 82
2, 18000, Note_on_c, 0, 64, 0
2, 18000, Note_on_c, 0, 60, 0
2, 18000, Note_on_c, 0, 62, 69
2, 18000, Note_on_c, 0, 65, 82
2, 18120, Note_on_c, 0, 65, 0
2, 18120, Note_on_c, 0, 62, 0
2, 18120, Note_on_c, 0, 60, 66
2, 18120, Note_on_c, 0, 64, 77
2, 18210, Note_on_c, 0, 65, 59
2, 18240, Note_on_c, 0, 65, 0
2, 18240, Note_on_c, 0, 64, 0
2, 18240, Note_on_c, 0, 60, 0
2, 18240, Note_on_c, 0, 60, 69
2, 18240, Note_on_c, 0, 64, 82
2, 18360, Note_on_c, 0, 64, 0
2, 18360, Note_on_c, 0, 60, 0
2, 18360, Note_on_c, 0, 59, 64
2, 18360, Note_on_c, 0, 62, 76
2, 18480, Note_on_c, 0, 62, 0
2, 18480, Note_on_c, 0, 59, 0
2, 18480, Note_on_c, 0, 60, 69
2, 18480, Note_on_c, 0, 64, 82
2, 18720, Note_on_c, 0, 64, 0
2, 18720, Note_on_c, 0, 60, 0
2, 18720, Note_on_c, 0, 69, 0
2, 18720, Note_on_c, 0, 60, 61
2, 18720, Note_on_c, 0, 66, 61
2, 18720, Note_on_c, 0, 69, 72
2, 18840, Note_on_c, 0, 69, 0
2, 18840, Note_on_c, 0, 60, 0
2, 18840, Note_on_c, 0, 62, 61
2, 18840, Note_on_c, 0, 71, 72
2, 18900, Note_on_c, 0, 71, 0
2, 18900, Note_on_c, 0, 62, 0
2, 18900, Note_on_c, 0, 66, 0
2, 18960, Note_on_c, 0, 66, 61
2, 18960, Note_on_c, 0, 62, 61
2, 18960, Note_on_c, 0, 71, 72
2, 19080, Note_on_c, 0, 71, 0
2, 19080, Note_on_c, 0, 62, 0
2, 19080, Note_on_c, 0, 60, 61
2, 19080, Note_on_c, 0, 69, 72
2, 19140, Note_on_c, 0, 69, 0
2, 19140, Note_on_c, 0, 60, 0
2, 19140, Note_on_c, 0, 66, 0
2, 19200, Note_on_c, 0, 66, 61
2, 19200, Note_on_c, 0, 60, 61
2, 19200, Note_on_c, 0, 69, 72
2, 19320, Note_on_c, 0, 69, 0
2, 19320, Note_on_c, 0, 60, 0
2, 19320, Note_on_c, 0, 62, 61
2, 19320, Note_on_c, 0, 71, 72
2, 19380, Note_on_c, 0, 71, 0
2, 19380, Note_on_c, 0, 62, 0
2, 19380, Note_on_c, 0, 66, 0
2, 19440, Note_on_c, 0, 67, 78
2, 19440, Note_on_c, 0, 60, 65
2, 19440, Note_on_c, 0, 64, 78
2, 19560, Note_on_c, 0, 64, 0
2, 19560, Note_on_c, 0, 60, 0
2, 19560, Note_on_c, 0, 59, 63
2, 19560, Note_on_c, 0, 62, 73
2, 19650, Note_on_c, 0, 64, 56
2, 19680, Note_on_c, 0, 64, 0
2, 19680, Note_on_c, 0, 62, 0
2, 19680, Note_on_c, 0, 59, 0
2, 19680, Note_on_c, 0, 59, 65
2, 19680, Note_on_c, 0, 62, 78
2, 19800, Note_on_c, 0, 62, 0
2, 19800, Note_on_c, 0, 59, 0
2, 19800, Note_on_c, 0, 57, 61
2, 19800, Note_on_c, 0, 60, 72
2, 19920, Note_on_c, 0, 60, 0
2, 19920, Note_on_c, 0, 57, 0
2, 19920, Note_on_c, 0, 59, 65
2, 19920, Note_on_c, 0, 62, 78
2, 20160, Note_on_c, 0, 62, 0
2, 20160, Note_on_c, 0, 59, 0
2, 20160, Note_on_c, 0, 67, 0
2, 20160, Note_on_c, 0, 64, 47
2, 20160, Note_on_c, 0, 67, 56
2, 20280, Note_on_c, 0, 67, 0
2, 20280, Note_on_c, 0, 69, 56
2, 20340, Note_on_c, 0, 69, 0
2, 20340, Note_on_c, 0, 64, 0
2, 20400, Note_on_c, 0, 64, 48
2, 20400, Note_on_c, 0, 69, 58
2, 20520, Note_on_c, 0, 69, 0
2, 20520, Note_on_c, 0, 71, 59
2, 20580, Note_on_c, 0, 71, 0
2, 20580, Note_on_c, 0, 64, 0
2, 20640, Note_on_c, 0, 64, 50
2, 20640, Note_on_c, 0, 71, 60
2, 20760, Note_on_c, 0, 71, 0
2, 20760, Note_on_c, 0, 72, 61
2, 20820, Note_on_c, 0, 72, 0
2, 20820, Note_on_c, 0, 64, 0
2, 20880, Note_on_c, 0, 64, 53
2, 20880, Note_on_c, 0, 72, 63
2, 21000, Note_on_c, 0, 72, 0
2, 21000, Note_on_c, 0, 74, 63
2, 21060, Note_on_c, 0, 74, 0
2, 21060, Note_on_c, 0, 64, 0
2, 21120, Note_on_c, 0, 64, 54
2, 21120, Note_on_c, 0, 69, 54
2, 21120, Note_on_c, 0, 74, 65
2, 21240, Note_on_c, 0, 74, 0
2, 21240, Note_on_c, 0, 76, 66
2, 21300, Note_on_c, 0, 76, 0
2, 21300, Note_on_c, 0, 69, 0
2, 21300, Note_on_c, 0, 64, 0
2, 21360, Note_on_c, 0, 64, 56
2, 21360, Note_on_c, 0, 69, 56
2, 21360, Note_on_c, 0, 76, 67
2, 21480, Note_on_c, 0, 76, 0
2, 21480, Note_on_c, 0, 63, 57
2, 21480, Note_on_c, 0, 75, 68
2, 21540, Note_on_c, 0, 75, 0
2, 21540, Note_on_c, 0, 64, 0
2, 21540, Note_on_c, 0, 69, 0
2, 21540, Note_on_c, 0, 63, 0
2, 21600, Note_on_c, 0, 64, 47
2, 21600, Note_on_c, 0, 67, 56
2, 21720, Note_on_c, 0, 67, 0
2, 21720, Note_on_c, 0, 69, 56
2, 21780, Note_on_c, 0, 69, 0
2, 21780, Note_on_c, 0, 64, 0
2, 21840, Note_on_c, 0, 64, 48
2, 21840, Note_on_c, 0, 69, 58
2, 21960, Note_on_c, 0, 69, 0
2, 21960, Note_on_c, 0, 71, 59
2, 22020, Note_on_c, 0, 71, 0
2, 22020, Note_on_c, 0, 64, 0
2, 22080, Note_on_c, 0, 64, 50
2, 22080, Note_on_c, 0, 71, 60
2, 22200, Note_on_c, 0, 71, 0
2, 22200, Note_on_c, 0, 72, 61
2, 22260, Note_on_c, 0, 72, 0
2, 22260, Note_on_c, 0, 64, 0
2, 22320, Note_on_c, 0, 64, 53
2, 22320, Note_on_c, 0, 72, 63
2, 22440, Note_on_c, 0, 72, 0
2, 22440, Note_on_c, 0, 74, 63
2, 22500, Note_on_c, 0, 74, 0
2, 22500, Note_on_c, 0, 64, 0
2, 22560, Note_on_c, 0, 64, 54
2, 22560, Note_on_c, 0, 69, 54
2, 22560, Note_on_c, 0, 74, 65
2, 22680, Note_on_c, 0, 74, 0
2, 22680, Note_on_c, 0, 76, 66
2, 22740, Note_on_c, 0, 76, 0
2, 22740, Note_on_c, 0, 69, 0
2, 22740, Note_on_c, 0, 64, 0
2, 22800, Note_on_c, 0, 69, 56
2, 22800, Note_on_c, 0, 76, 67
2, 22920, Note_on_c, 0, 76, 0
2, 22920, Note_on_c, 0, 78, 68
2, 22920, Note_on_c, 0, 75, 68
2, 22980, Note_on_c, 0, 75, 0
2, 22980, Note_on_c, 0, 78, 0
2, 22980, Note_on_c, 0, 69, 0
2, 23040, Note_on_c, 0, 67, 56
2, 23040, Note_on_c, 0, 76, 56
2, 23040, Note_on_c, 0, 79, 67
2, 23160, Note_on_c, 0, 79, 0
2, 23160, Note_on_c, 0, 76, 0
2, 23160, Note_on_c, 0, 67, 0
2, 23280, Note_on_c, 0, 69, 56
2, 23280, Note_on_c, 0, 76, 56
2, 23280, Note_on_c, 0, 79, 67
2, 23400, Note_on_c, 0, 79, 0
2, 23400, Note_on_c, 0, 76, 0
2, 23400, Note_on_c, 0, 75, 54
2, 23400, Note_on_c, 0, 78, 64
2, 23460, Note_on_c, 0, 78, 0
2, 23460, Note_on_c, 0, 75, 0
2, 23460, Note_on_c, 0, 69, 0
2, 23520, Note_on_c, 0, 67, 56
2, 23520, Note_on_c, 0, 75, 56
2, 23520, Note_on_c, 0, 78, 67
2, 23640, Note_on_c, 0, 78, 0
2, 23640, Note_on_c, 0, 75, 0
2, 23640, Note_on_c, 0, 76, 55
2, 23640, Note_on_c, 0, 79, 65
2, 23700, Note_on_c, 0, 79, 0
2, 23700, Note_on_c, 0, 76, 0
2, 23700, Note_on_c, 0, 67, 0
2, 23760, Note_on_c, 0, 69, 58
2, 23760, Note_on_c, 0, 76, 58
2, 23760, Note_on_c, 0, 79, 70
2, 23880, Note_on_c, 0, 79, 0
2, 23880, Note_on_c, 0, 76, 0
2, 23880, Note_on_c, 0, 75, 58
2, 23880, Note_on_c, 0, 78, 69
2, 23940, Note_on_c, 0, 78, 0
2, 23940, Note_on_c, 0, 75, 0
2, 23940, Note_on_c, 0, 69, 0
2, 24000, Note_on_c, 0, 67, 62
2, 24000, Note_on_c, 0, 75, 62
2, 24000, Note_on_c, 0, 78, 74
2, 24120, Note_on_c, 0, 78, 0
2, 24120, Note_on_c, 0, 75, 0
2, 24120, Note_on_c, 0, 76, 61
2, 24120, Note_on_c, 0, 79, 72
2, 24180, Note_on_c, 0, 79, 0
2, 24180, Note_on_c, 0, 76, 0
2, 24180, Note_on_c, 0, 67, 0
2, 24240, Note_on_c, 0, 67, 64
2, 24240, Note_on_c, 0, 79, 77
2, 24240, Note_on_c, 0, 76, 64
2, 24360, Note_on_c, 0, 76, 0
2, 24360, Note_on_c, 0, 79, 0
2, 24360, Note_on_c, 0, 67, 0
2, 24360, Note_on_c, 0, 77, 62
2, 24360, Note_on_c, 0, 80, 73
2, 24360, Note_on_c, 0, 68, 62
2, 24420, Note_on_c, 0, 68, 0
2, 24420, Note_on_c, 0, 80, 0
2, 24420, Note_on_c, 0, 77, 0
2, 24480, Note_on_c, 0, 68, 64
2, 24480, Note_on_c, 0, 80, 77
2, 24480, Note_on_c, 0, 77, 64
2, 24600, Note_on_c, 0, 77, 0
2, 24600, Note_on_c, 0, 80, 0
2, 24600, Note_on_c, 0, 68, 0
2, 24600, Note_on_c, 0, 78, 62
2, 24600, Note_on_c, 0, 81, 73
2, 24600, Note_on_c, 0, 69, 62
2, 24660, Note_on_c, 0, 69, 0
2, 24660, Note_on_c, 0, 81, 0
2, 24660, Note_on_c, 0, 78, 0
2, 24720, Note_on_c, 0, 69, 65
2, 24720, Note_on_c, 0, 81, 78
2, 24720, Note_on_c, 0, 78, 65
2, 24840, Note_on_c, 0, 78, 0
2, 24840, Note_on_c, 0, 81, 0
2, 24840, Note_on_c, 0, 69, 0
2, 24840, Note_on_c, 0, 77, 63
2, 24840, Note_on_c, 0, 80, 75
2, 24840, Note_on_c, 0, 68, 63
2, 24900, Note_on_c, 0, 68, 0
2, 24900, Note_on_c, 0, 80, 0
2, 24900, Note_on_c, 0, 77, 0
2, 24960, Note_on_c, 0, 68, 67
2, 24960, Note_on_c, 0, 80, 80
2, 24960, Note_on_c, 0, 77, 67
2, 25080, Note_on_c, 0, 77, 0
2, 25080, Note_on_c, 0, 80, 0
2, 25080, Note_on_c, 0, 68, 0
2, 25080, Note_on_c, 0, 78, 65
2, 25080, Note_on_c, 0, 81, 77
2, 25080, Note_on_c, 0, 69, 65
2, 25140, Note_on_c, 0, 69, 0
2, 25140, Note_on_c, 0, 81, 0
2, 25140, Note_on_c, 0, 78, 0
2, 25200, Note_on_c, 0, 69, 68
2, 25200, Note_on_c, 0, 81, 82
2, 25200, Note_on_c, 0, 78, 68
2, 25320, Note_on_c, 0, 78, 0
2, 25320, Note_on_c, 0, 81, 0
2, 25320, Note_on_c, 0, 69, 0
2, 25320, Note_on_c, 0, 77, 66
2, 25320, Note_on_c, 0, 80, 78
2, 25320, Note_on_c, 0, 68, 66
2, 25380, Note_on_c, 0, 68, 0
2, 25380, Note_on_c, 0, 80, 0
2, 25380, Note_on_c, 0, 77, 0
2, 25440, Note_on_c, 0, 68, 70
2, 25440, Note_on_c, 0, 80, 84
2, 25440, Note_on_c, 0, 77, 70
2, 25560, Note_on_c, 0, 77, 0
2, 25560, Note_on_c, 0, 80, 0
2, 25560, Note_on_c, 0, 68, 0
2, 25560, Note_on_c, 0, 78, 68
2, 25560, Note_on_c, 0, 81, 81
2, 25560, Note_on_c, 0, 69, 68
2, 25620, Note_on_c, 0, 69, 0
2, 25620, Note_on_c, 0, 81, 0
2, 25620, Note_on_c, 0, 78, 0
2, 25680, Note_on_c, 0, 69, 71
2, 25680, Note_on_c, 0, 81, 86
2, 25680, Note_on_c, 0, 78, 71
2, 25800, Note_on_c, 0, 78, 0
2, 25800, Note_on_c, 0, 81, 0
2, 25800, Note_on_c, 0, 69, 0
2, 25800, Note_on_c, 0, 82, 82
2, 25800, Note_on_c, 0, 70, 70
2, 25860, Note_on_c, 0, 70, 0
2, 25860, Note_on_c, 0, 82, 0
2, 25920, Note_on_c, 0, 70, 73
2, 25920, Note_on_c, 0, 78, 73
2, 25920, Note_on_c, 0, 82, 88
2, 26160, Note_on_c, 0, 82, 0
2, 26160, Note_on_c, 0, 78, 0
2, 26160, Note_on_c, 0, 70, 0
2, 26160, Note_on_c, 0, 70, 70
2, 26160, Note_on_c, 0, 82, 83
2, 26160, Note_on_c, 0, 78, 70
2, 26280, Note_on_c, 0, 78, 0
2, 26280, Note_on_c, 0, 77, 65
2, 26280, Note_on_c, 0, 80, 77
2, 26340, Note_on_c, 0, 80, 0
2, 26340, Note_on_c, 0, 70, 0
2, 26340, Note_on_c, 0, 82, 0
2, 26340, Note_on_c, 0, 77, 0
2, 26400, Note_on_c, 0, 70, 63
2, 26400, Note_on_c, 0, 82, 75
2, 26400, Note_on_c, 0, 77, 63
2, 26400, Note_on_c, 0, 80, 75
2, 26520, Note_on_c, 0, 80, 0
2, 26520, Note_on_c, 0, 77, 0
2, 26520, Note_on_c, 0, 75, 58
2, 26520, Note_on_c, 0, 78, 69
2, 26580, Note_on_c, 0, 78, 0
2, 26580, Note_on_c, 0, 70, 0
2, 26580, Note_on_c, 0, 82, 0
2, 26580, Note_on_c, 0, 75, 0
2, 26640, Note_on_c, 0, 77, 73
2, 26640, Note_on_c, 0, 70, 73
2, 26640, Note_on_c, 0, 80, 73
2, 26640, Note_on_c, 0, 82, 88
2, 26880, Note_on_c, 0, 82, 0
2, 26880, Note_on_c, 0, 77, 0
2, 26880, Note_on_c, 0, 70, 0
2, 26880, Note_on_c, 0, 80, 0
2, 26880, Note_on_c, 0, 77, 70
2, 26880, Note_on_c, 0, 70, 70
2, 26880, Note_on_c, 0, 82, 83
2, 26880, Note_on_c, 0, 80, 70
2, 27000, Note_on_c, 0, 80, 0
2, 27000, Note_on_c, 0, 77, 0
2, 27000, Note_on_c, 0, 78, 77
2, 27000, Note_on_c, 0, 75, 65
2, 27060, Note_on_c, 0, 75, 0
2, 27060, Note_on_c, 0, 70, 0
2, 27060, Note_on_c, 0, 82, 0
2, 27060, Note_on_c, 0, 78, 0
2, 27120, Note_on_c, 0, 70, 63
2, 27120, Note_on_c, 0, 82, 75
2, 27120, Note_on_c, 0, 75, 63
2, 27120, Note_on_c, 0, 78, 75
2, 27240, Note_on_c, 0, 78, 0
2, 27240, Note_on_c, 0, 75, 0
2, 27240, Note_on_c, 0, 74, 58
2, 27240, Note_on_c, 0, 77, 69
2, 27300, Note_on_c, 0, 77, 0
2, 27300, Note_on_c, 0, 70, 0
2, 27300, Note_on_c, 0, 82, 0
2, 27300, Note_on_c, 0, 74, 0
2, 27360, Note_on_c, 0, 75, 65
2, 27360, Note_on_c, 0, 70, 65
2, 27360, Note_on_c, 0, 78, 65
2, 27360, Note_on_c, 0, 82, 79
2, 27480, Note_on_c, 0, 82, 0
2, 27480, Note_on_c, 0, 75, 0
2, 27480, Note_on_c, 0, 70, 0
2, 27480, Note_on_c, 0, 78, 0
2, 27600, Note_on_c, 0, 70, 63
2, 27600, Note_on_c, 0, 78, 63
2, 27720, Note_on_c, 0, 78, 0
2, 27720, Note_on_c, 0, 70, 0
2, 27720, Note_on_c, 0, 77, 68
2, 27720, Note_on_c, 0, 68, 57
2, 27780, Note_on_c, 0, 68, 0
2, 27780, Note_on_c, 0, 77, 0
2, 27840, Note_on_c, 0, 68, 54
2, 27840, Note_on_c, 0, 77, 64
2, 27960, Note_on_c, 0, 77, 0
2, 27960, Note_on_c, 0, 68, 0
2, 27960, Note_on_c, 0, 67, 49
2, 27960, Note_on_c, 0, 75, 59
2, 28020, Note_on_c, 0, 75, 0
2, 28020, Note_on_c, 0, 67, 0
2, 28080, Note_on_c, 0, 67, 61
2, 28080, Note_on_c, 0, 75, 74
2, 28200, Note_on_c, 0, 75, 0
2, 28200, Note_on_c, 0, 67, 0
2, 28320, Note_on_c, 0, 67, 57
2, 28320, Note_on_c, 0, 70, 57
2, 28440, Note_on_c, 0, 67, 0
2, 28440, Note_on_c, 0, 64, 52
2, 28500, Note_on_c, 0, 64, 0
2, 28500, Note_on_c, 0, 70, 0
2, 28560, Note_on_c, 0, 71, 58
2, 28560, Note_on_c, 0, 64, 49
2, 28560, Note_on_c, 0, 67, 58
2, 28680, Note_on_c, 0, 64, 0
2, 28680, Note_on_c, 0, 63, 45
2, 28740, Note_on_c, 0, 63, 0
2, 28740, Note_on_c, 0, 67, 0
2, 28740, Note_on_c, 0, 71, 0
2, 28800, Note_on_c, 0, 59, 59
2, 28800, Note_on_c, 0, 63, 70
2, 28920, Note_on_c, 0, 63, 0
2, 28920, Note_on_c, 0, 64, 59
2, 28980, Note_on_c, 0, 64, 0
2, 28980, Note_on_c, 0, 59, 0
2, 29040, Note_on_c, 0, 59, 59
2, 29040, Note_on_c, 0, 64, 70
2, 29160, Note_on_c, 0, 64, 0
2, 29160, Note_on_c, 0, 65, 59
2, 29220, Note_on_c, 0, 65, 0
2, 29220, Note_on_c, 0, 59, 0
2, 29280, Note_on_c, 0, 59, 59
2, 29280, Note_on_c, 0, 63, 59
2, 29280, Note_on_c, 0, 65, 70
2, 29400, Note_on_c, 0, 65, 0
2, 29400, Note_on_c, 0, 66, 59
2, 29460, Note_on_c, 0, 66, 0
2, 29460, Note_on_c, 0, 63, 0
2, 29460, Note_on_c, 0, 59, 0
2, 29520, Note_on_c, 0, 59, 59
2, 29520, Note_on_c, 0, 63, 59
2, 29520, Note_on_c, 0, 66, 70
2, 29640, Note_on_c, 0, 66, 0
2, 29640, Note_on_c, 0, 67, 59
2, 29700, Note_on_c, 0, 67, 0
2, 29700, Note_on_c, 0, 63, 0
2, 29700, Note_on_c, 0, 59, 0
2, 29760, Note_on_c, 0, 59, 59
2, 29760, Note_on_c, 0, 63, 59
2, 29760, Note_on_c, 0, 67, 70
2, 29880, Note_on_c, 0, 67, 0
2, 29880, Note_on_c, 0, 68, 59
2, 29940, Note_on_c, 0, 68, 0
2, 29940, Note_on_c, 0, 63, 0
2, 29940, Note_on_c, 0, 59, 0
2, 30000, Note_on_c, 0, 59, 59
2, 30000, Note_on_c, 0, 63, 59
2, 30000, Note_on_c, 0, 68, 70
2, 30120, Note_on_c, 0, 68, 0
2, 30120, Note_on_c, 0, 69, 59
2, 30180, Note_on_c, 0, 69, 0
2, 30180, Note_on_c, 0, 63, 0
2, 30180, Note_on_c, 0, 59, 0
2, 30240, Note_on_c, 0, 63, 60
2, 30240, Note_on_c, 0, 69, 71
2, 30360, Note_on_c, 0, 69, 0
2, 30360, Note_on_c, 0, 70, 61
2, 30420, Note_on_c, 0, 70, 0
2, 30420, Note_on_c, 0, 63, 0
2, 30480, Note_on_c, 0, 63, 61
2, 30480, Note_on_c, 0, 70, 72
2, 30600, Note_on_c, 0, 70, 0
2, 30600, Note_on_c, 0, 71, 62
2, 30660, Note_on_c, 0, 71, 0
2, 30660, Note_on_c, 0, 63, 0
2, 30720, Note_on_c, 0, 63, 62
2, 30720, Note_on_c, 0, 68, 74
2, 30720, Note_on_c, 0, 71, 74
2, 30840, Note_on_c, 0, 71, 0
2, 30840, Note_on_c, 0, 72, 63
2, 30900, Note_on_c, 0, 72, 0
2, 30900, Note_on_c, 0, 68, 0
2, 30900, Note_on_c, 0, 63, 0
2, 30960, Note_on_c, 0, 68, 64
2, 30960, Note_on_c, 0, 63, 64
2, 30960, Note_on_c, 0, 72, 76
2, 31080, Note_on_c, 0, 72, 0
2, 31080, Note_on_c, 0, 73, 65
2, 31140, Note_on_c, 0, 73, 0
2, 31140, Note_on_c, 0, 63, 0
2, 31140, Note_on_c, 0, 68, 0
2, 31200, Note_on_c, 0, 63, 65
2, 31200, Note_on_c, 0, 68, 65
2, 31200, Note_on_c, 0, 73, 77
2, 31320, Note_on_c, 0, 73, 0
2, 31320, Note_on_c, 0, 74, 66
2, 31380, Note_on_c, 0, 74, 0
2, 31380, Note_on_c, 0, 68, 0
2, 31380, Note_on_c, 0, 63, 0
2, 31440, Note_on_c, 0, 63, 66
2, 31440, Note_on_c, 0, 68, 66
2, 31440, Note_on_c, 0, 74, 79
2, 31560, Note_on_c, 0, 74, 0
2, 31560, Note_on_c, 0, 75, 68
2, 31620, Note_on_c, 0, 75, 0
2, 31620, Note_on_c, 0, 68, 0
2, 31620, Note_on_c, 0, 63, 0
2, 31680, Note_on_c, 0, 63, 68
2, 31680, Note_on_c, 0, 70, 68
2, 31680, Note_on_c, 0, 75, 81
2, 31800, Note_on_c, 0, 75, 0
2, 31800, Note_on_c, 0, 76, 77
2, 31860, Note_on_c, 0, 76, 0
2, 31860, Note_on_c, 0, 70, 0
2, 31860, Note_on_c, 0, 63, 0
2, 31920, Note_on_c, 0, 70, 69
2, 31920, Note_on_c, 0, 76, 82
2, 32040, Note_on_c, 0, 76, 0
2, 32040, Note_on_c, 0, 75, 78
2, 32100, Note_on_c, 0, 75, 0
2, 32100, Note_on_c, 0, 70, 0
2, 32160, Note_on_c, 0, 63, 70
2, 32160, Note_on_c, 0, 70, 70
2, 32160, Note_on_c, 0, 75, 84
2, 32280, Note_on_c, 0, 75, 0
2, 32280, Note_on_c, 0, 73, 84
2, 32340, Note_on_c, 0, 73, 0
2, 32340, Note_on_c, 0, 70, 0
2, 32340, Note_on_c, 0, 63, 0
2, 32400, Note_on_c, 0, 63, 69
2, 32400, Note_on_c, 0, 68, 69
2, 32400, Note_on_c, 0, 73, 82
2, 32520, Note_on_c, 0, 73, 0
2, 32520, Note_on_c, 0, 71, 79
2, 32580, Note_on_c, 0, 71, 0
2, 32580, Note_on_c, 0, 68, 0
2, 32580, Note_on_c, 0, 63, 0
2, 32640, Note_on_c, 0, 63, 70
2, 32640, Note_on_c, 0, 68, 70
2, 32640, Note_on_c, 0, 71, 83
2, 32760, Note_on_c, 0, 71, 0
2, 32760, Note_on_c, 0, 73, 79
2, 32820, Note_on_c, 0, 73, 0
2, 32820, Note_on_c, 0, 68, 0
2, 32820, Note_on_c, 0, 63, 0
2, 32880, Note_on_c, 0, 63, 72
2, 32880, Note_on_c, 0, 68, 72
2, 32880, Note_on_c, 0, 73, 85
2, 33000, Note_on_c, 0, 73, 0
2, 33000, Note_on_c, 0, 75, 86
2, 33060, Note_on_c, 0, 75, 0
2, 33060, Note_on_c, 0, 68, 0
2, 33060, Note_on_c, 0, 63, 0
2, 33120, Note_on_c, 0, 64, 73
2, 33120, Note_on_c, 0, 68, 73
2, 33120, Note_on_c, 0, 75, 87
2, 33240, Note_on_c, 0, 75, 0
2, 33240, Note_on_c, 0, 73, 86
2, 33300, Note_on_c, 0, 73, 0
2, 33300, Note_on_c, 0, 68, 0
2, 33300, Note_on_c, 0, 64, 0
2, 33360, Note_on_c, 0, 64, 71
2, 33360, Note_on_c, 0, 68, 71
2, 33360, Note_on_c, 0, 73, 84
2, 33480, Note_on_c, 0, 73, 0
2, 33480, Note_on_c, 0, 71, 83
2, 33540, Note_on_c, 0, 71, 0
2, 33540, Note_on_c, 0, 68, 0
2, 33540, Note_on_c, 0, 64, 0
2, 33600, Note_on_c, 0, 61, 68
2, 33600, Note_on_c, 0, 64, 68
2, 33600, Note_on_c, 0, 71, 81
2, 33720, Note_on_c, 0, 71, 0
2, 33720, Note_on_c, 0, 70, 80
2, 33780, Note_on_c, 0, 70, 0
2, 33780, Note_on_c, 0, 64, 0
2, 33780, Note_on_c, 0, 61, 0
2, 33840, Note_on_c, 0, 61, 84
2, 33960, Note_on_c, 0, 71, 76
2, 34080, Note_on_c, 0, 71, 0
2, 34080, Note_on_c, 0, 61, 0
2, 34080, Note_on_c, 0, 71, 77
2, 34080, Note_on_c, 0, 61, 64
2, 34200, Note_on_c, 0, 71, 0
2, 34200, Note_on_c, 0, 70, 75
2, 34320, Note_on_c, 0, 70, 0
2, 34320, Note_on_c, 0, 61, 0
2, 34320, Note_on_c, 0, 70, 73
2, 34320, Note_on_c, 0, 61, 61
2, 34440, Note_on_c, 0, 70, 0
2, 34440, Note_on_c, 0, 63, 72
2, 34560, Note_on_c, 0, 63, 0
2, 34560, Note_on_c, 0, 61, 0
2, 34560, Note_on_c, 0, 59, 59
2, 34560, Note_on_c, 0, 63, 70
2, 34680, Note_on_c, 0, 63, 0
2, 34680, Note_on_c, 0, 64, 59
2, 34740, Note_on_c, 0, 64, 0
2, 34740, Note_on_c, 0, 59, 0
2, 34800, Note_on_c, 0, 59, 59
2, 34800, Note_on_c, 0, 64, 70
2, 34920, Note_on_c, 0, 64, 0
2, 34920, Note_on_c, 0, 65, 59
2, 34980, Note_on_c, 0, 65, 0
2, 34980, Note_on_c, 0, 59, 0
2, 35040, Note_on_c, 0, 59, 59
2, 35040, Note_on_c, 0, 63, 59
2, 35040, Note_on_c, 0, 65, 70
2, 35160, Note_on_c, 0, 65, 0
2, 35160, Note_on_c, 0, 66, 59
2, 35220, Note_on_c, 0, 66, 0
2, 35220, Note_on_c, 0, 63, 0
2, 35220, Note_on_c, 0, 59, 0
2, 35280, Note_on_c, 0, 59, 59
2, 35280, Note_on_c, 0, 63, 59
2, 35280, Note_on_c, 0, 66, 70
2, 35400, Note_on_c, 0, 66, 0
2, 35400, Note_on_c, 0, 67, 59
2, 35460, Note_on_c, 0, 67, 0
2, 35460, Note_on_c, 0, 63, 0
2, 35460, Note_on_c, 0, 59, 0
2, 35520, Note_on_c, 0, 59, 59
2, 35520, Note_on_c, 0, 63, 59
2, 35520, Note_on_c, 0, 67, 70
2, 35640, Note_on_c, 0, 67, 0
2, 35640, Note_on_c, 0, 68, 59
2, 35700, Note_on_c, 0, 68, 0
2, 35700, Note_on_c, 0, 63, 0
2, 35700, Note_on_c, 0, 59, 0
2, 35760, Note_on_c, 0, 59, 59
2, 35760, Note_on_c, 0, 63, 59
2, 35760, Note_on_c, 0, 68, 70
2, 35880, Note_on_c, 0, 68, 0
2, 35880, Note_on_c, 0, 69, 59
2, 35940, Note_on_c, 0, 69, 0
2, 35940, Note_on_c, 0, 63, 0
2, 35940, Note_on_c, 0, 59, 0
2, 36000, Note_on_c, 0, 59, 60
2, 36000, Note_on_c, 0, 64, 60
2, 36000, Note_on_c, 0, 69, 71
2, 36120, Note_on_c, 0, 69, 0
2, 36120, Note_on_c, 0, 70, 61
2, 36180, Note_on_c, 0, 70, 0
2, 36180, Note_on_c, 0, 64, 0
2, 36180, Note_on_c, 0, 59, 0
2, 36240, Note_on_c, 0, 59, 61
2, 36240, Note_on_c, 0, 64, 61
2, 36240, Note_on_c, 0, 70, 72
2, 36360, Note_on_c, 0, 70, 0
2, 36360, Note_on_c, 0, 71, 62
2, 36420, Note_on_c, 0, 71, 0
2, 36420, Note_on_c, 0, 64, 0
2, 36420, Note_on_c, 0, 59, 0
2, 36480, Note_on_c, 0, 59, 62
2, 36480, Note_on_c, 0, 64, 74
2, 36480, Note_on_c, 0, 71, 74
2, 36600, Note_on_c, 0, 71, 0
2, 36600, Note_on_c, 0, 72, 64
2, 36660, Note_on_c, 0, 72, 0
2, 36660, Note_on_c, 0, 64, 0
2, 36660, Note_on_c, 0, 59, 0
2, 36720, Note_on_c, 0, 63, 65
2, 36720, Note_on_c, 0, 72, 77
2, 36840, Note_on_c, 0, 72, 0
2, 36840, Note_on_c, 0, 73, 72
2, 36900, Note_on_c, 0, 73, 0
2, 36900, Note_on_c, 0, 63, 0
2, 36960, Note_on_c, 0, 63, 66
2, 36960, Note_on_c, 0, 68, 66
2, 36960, Note_on_c, 0, 73, 79
2, 37080, Note_on_c, 0, 73, 0
2, 37080, Note_on_c, 0, 74, 73
2, 37140, Note_on_c, 0, 74, 0
2, 37140, Note_on_c, 0, 68, 0
2, 37140, Note_on_c, 0, 63, 0
2, 37200, Note_on_c, 0, 63, 68
2, 37200, Note_on_c, 0, 68, 68
2, 37200, Note_on_c, 0, 74, 82
2, 37320, Note_on_c, 0, 75, 76
2, 37380, Note_on_c, 0, 75, 0
2, 37380, Note_on_c, 0, 63, 0
2, 37380, Note_on_c, 0, 68, 0
2, 37380, Note_on_c, 0, 74, 0
2, 37440, Note_on_c, 0, 64, 76
2, 37440, Note_on_c, 0, 68, 76
2, 37440, Note_on_c, 0, 75, 90
2, 37560, Note_on_c, 0, 75, 0
2, 37560, Note_on_c, 0, 73, 77
2, 37620, Note_on_c, 0, 73, 0
2, 37620, Note_on_c, 0, 68, 0
2, 37620, Note_on_c, 0, 64, 0
2, 37680, Note_on_c, 0, 73, 81
2, 37800, Note_on_c, 0, 73, 0
2, 37800, Note_on_c, 0, 71, 73
2, 37860, Note_on_c, 0, 71, 0
2, 37920, Note_on_c, 0, 71, 78
2, 38040, Note_on_c, 0, 71, 0
2, 38040, Note_on_c, 0, 70, 71
2, 38100, Note_on_c, 0, 70, 0
2, 38160, Note_on_c, 0, 63, 76
2, 38160, Note_on_c, 0, 68, 76
2, 38160, Note_on_c, 0, 73, 90
2, 38280, Note_on_c, 0, 73, 0
2, 38280, Note_on_c, 0, 71, 77
2, 38340, Note_on_c, 0, 71, 0
2, 38340, Note_on_c, 0, 68, 0
2, 38340, Note_on_c, 0, 63, 0
2, 38400, Note_on_c, 0, 71, 81
2, 38520, Note_on_c, 0, 71, 0
2, 38520, Note_on_c, 0, 70, 73
2, 38580, Note_on_c, 0, 70, 0
2, 38640, Note_on_c, 0, 70, 78
2, 38760, Note_on_c, 0, 70, 0
2, 38760, Note_on_c, 0, 68, 71
2, 38820, Note_on_c, 0, 68, 0
2, 38880, Note_on_c, 0, 64, 76
2, 38880, Note_on_c, 0, 68, 76
2, 38880, Note_on_c, 0, 75, 90
2, 39000, Note_on_c, 0, 75, 0
2, 39000, Note_on_c, 0, 73, 77
2, 39060, Note_on_c, 0, 73, 0
2, 39060, Note_on_c, 0, 68, 0
2, 39060, Note_on_c, 0, 64, 0
2, 39120, Note_on_c, 0, 73, 81
2, 39240, Note_on_c, 0, 73, 0
2, 39240, Note_on_c, 0, 71, 73
2, 39300, Note_on_c, 0, 71, 0
2, 39360, Note_on_c, 0, 71, 78
2, 39480, Note_on_c, 0, 71, 0
2, 39480, Note_on_c, 0, 70, 71
2, 39540, Note_on_c, 0, 70, 0
2, 39600, Note_on_c, 0, 63, 76
2, 39600, Note_on_c, 0, 68, 76
2, 39600, Note_on_c, 0, 73, 90
2, 39720, Note_on_c, 0, 73, 0
2, 39720, Note_on_c, 0, 71, 77
2, 39780, Note_on_c, 0, 71, 0
2, 39780, Note_on_c, 0, 68, 0
2, 39780, Note_on_c, 0, 63, 0
2, 39840, Note_on_c, 0, 71, 81
2, 39960, Note_on_c, 0, 71, 0
2, 39960, Note_on_c, 0, 70, 73
2, 40020, Note_on_c, 0, 70, 0
2, 40080, Note_on_c, 0, 70, 78
2, 40200, Note_on_c, 0, 70, 0
2, 40200, Note_on_c, 0, 68, 71
2, 40260, Note_on_c, 0, 68, 0
2, 40320, Note_on_c, 0, 61, 76
2, 40320, Note_on_c, 0, 68, 76
2, 40320, Note_on_c, 0, 71, 90
2, 40440, Note_on_c, 0, 71, 0
2, 40440, Note_on_c, 0, 70, 77
2, 40500, Note_on_c, 0, 70, 0
2, 40500, Note_on_c, 0, 68, 0
2, 40500, Note_on_c, 0, 61, 0
2, 40560, Note_on_c, 0, 70, 81
2, 40680, Note_on_c, 0, 70, 0
2, 40680, Note_on_c, 0, 71, 73
2, 40740, Note_on_c, 0, 71, 0
2, 40800, Note_on_c, 0, 71, 79
2, 40920, Note_on_c, 0, 71, 0
2, 40920, Note_on_c, 0, 70, 73
2, 40980, Note_on_c, 0, 70, 0
2, 41040, Note_on_c, 0, 70, 93
2, 41160, Note_on_c, 0, 70, 0
2, 41160, Note_on_c, 0, 71, 80
2, 41220, Note_on_c, 0, 71, 0
2, 41280, Note_on_c, 0, 71, 85
2, 41400, Note_on_c, 0, 71, 0
2, 41400, Note_on_c, 0, 70, 78
2, 41460, Note_on_c, 0, 70, 0
2, 41520, Note_on_c, 0, 70, 84
2, 41640, Note_on_c, 0, 70, 0
2, 41640, Note_on_c, 0, 71, 77
2, 41700, Note_on_c, 0, 71, 0
2, 41760, Note_on_c, 0, 71, 90
2, 41880, Note_on_c, 0, 71, 0
2, 41880, Note_on_c, 0, 70, 83
2, 41940, Note_on_c, 0, 70, 0
2, 42000, Note_on_c, 0, 70, 85
2, 42120, Note_on_c, 0, 70, 0
2, 42120, Note_on_c, 0, 71, 75
2, 42180, Note_on_c, 0, 71, 0
2, 42240, Note_on_c, 0, 71, 79
2, 42360, Note_on_c, 0, 71, 0
2, 42360, Note_on_c, 0, 70, 71
2, 42420, Note_on_c, 0, 70, 0
2, 42480, Note_on_c, 0, 70, 88
2, 42600, Note_on_c, 0, 70, 0
2, 42600, Note_on_c, 0, 71, 73
2, 42660, Note_on_c, 0, 71, 0
2, 42720, Note_on_c, 0, 71, 76
2, 42840, Note_on_c, 0, 71, 0
2, 42840, Note_on_c, 0, 70, 67
2, 42900, Note_on_c, 0, 70, 0
2, 42960, Note_on_c, 0, 70, 70
2, 43080, Note_on_c, 0, 70, 0
2, 43080, Note_on_c, 0, 71, 62
2, 43140, Note_on_c, 0, 71, 0
2, 43200, Note_on_c, 0, 68, 70
2, 43200, Note_on_c, 0, 70, 70
2, 45360, Note_on_c, 0, 68, 0
2, 45360, Note_on_c, 0, 67, 57
2, 45360, Note_on_c, 0, 61, 57
2, 45840, Note_on_c, 0, 70, 0
2, 45840, Note_on_c, 0, 71, 57
2, 46080, Note_on_c, 0, 71, 0
2, 46080, Note_on_c, 0, 61, 0
2, 46080, Note_on_c, 0, 67, 0
2, 46080, Note_on_c, 0, 59, 57
2, 46080, Note_on_c, 0, 68, 57
2, 46200, Note_on_c, 0, 68, 0
2, 46200, Note_on_c, 0, 59, 0
2, 46320, Note_on_c, 0, 64, 53
2, 46320, Note_on_c, 0, 61, 53
2, 46320, Note_on_c, 0, 68, 63
2, 46440, Note_on_c, 0, 68, 0
2, 46440, Note_on_c, 0, 71, 53
2, 46500, Note_on_c, 0, 71, 0
2, 46500, Note_on_c, 0, 61, 0
2, 46500, Note_on_c, 0, 64, 0
2, 46560, Note_on_c, 0, 67, 53
2, 46560, Note_on_c, 0, 61, 53
2, 46560, Note_on_c, 0, 71, 63
2, 46680, Note_on_c, 0, 71, 0
2, 46680, Note_on_c, 0, 70, 53
2, 46740, Note_on_c, 0, 70, 0
2, 46740, Note_on_c, 0, 61, 0
2, 46740, Note_on_c, 0, 67, 0
2, 46800, Note_on_c, 0, 59, 53
2, 46800, Note_on_c, 0, 70, 63
2, 46920, Note_on_c, 0, 70, 0
2, 46920, Note_on_c, 0, 68, 53
2, 46980, Note_on_c, 0, 68, 0
2, 46980, Note_on_c, 0, 59, 0
2, 47040, Note_on_c, 0, 64, 53
2, 47040, Note_on_c, 0, 61, 53
2, 47040, Note_on_c, 0, 68, 63
2, 47160, Note_on_c, 0, 68, 0
2, 47160, Note_on_c, 0, 71, 53
2, 47220, Note_on_c, 0, 71, 0
2, 47220, Note_on_c, 0, 61, 0
2, 47220, Note_on_c, 0, 64, 0
2, 47280, Note_on_c, 0, 67, 53
2, 47280, Note_on_c, 0, 61, 53
2, 47280, Note_on_c, 0, 71, 63
2, 47400, Note_on_c, 0, 71, 0
2, 47400, Note_on_c, 0, 70, 53
2, 47460, Note_on_c, 0, 70, 0
2, 47460, Note_on_c, 0, 61, 0
2, 47460, Note_on_c, 0, 67, 0
2, 47520, Note_on_c, 0, 59, 53
2, 47520, Note_on_c, 0, 70, 63
2, 47640, Note_on_c, 0, 70, 0
2, 47640, Note_on_c, 0, 68, 53
2, 47700, Note_on_c, 0, 68, 0
2, 47700, Note_on_c, 0, 59, 0
2, 47760, Note_on_c, 0, 63, 53
2, 47760, Note_on_c, 0, 66, 63
2, 47880, Note_on_c, 0, 66, 0
2, 47880, Note_on_c, 0, 75, 53
2, 47940, Note_on_c, 0, 75, 0
2, 47940, Note_on_c, 0, 63, 0
2, 48000, Note_on_c, 0, 70, 53
2, 48000, Note_on_c, 0, 64, 53
2, 48000, Note_on_c, 0, 75, 63
2, 48120, Note_on_c, 0, 75, 0
2, 48120, Note_on_c, 0, 73, 53
2, 48180, Note_on_c, 0, 73, 0
2, 48180, Note_on_c, 0, 64, 0
2, 48180, Note_on_c, 0, 70, 0
2, 48240, Note_on_c, 0, 68, 53
2, 48240, Note_on_c, 0, 63, 53
2, 48240, Note_on_c, 0, 73, 63
2, 48360, Note_on_c, 0, 73, 0
2, 48360, Note_on_c, 0, 71, 53
2, 48420, Note_on_c, 0, 71, 0
2, 48420, Note_on_c, 0, 63, 0
2, 48420, Note_on_c, 0, 68, 0
2, 48480, Note_on_c, 0, 63, 63
2, 48600, Note_on_c, 0, 71, 53
2, 48660, Note_on_c, 0, 71, 0
2, 48660, Note_on_c, 0, 63, 0
2, 48720, Note_on_c, 0, 67, 53
2, 48720, Note_on_c, 0, 61, 53
2, 48720, Note_on_c, 0, 71, 63
2, 48840, Note_on_c, 0, 71, 0
2, 48840, Note_on_c, 0, 70, 53
2, 48900, Note_on_c, 0, 70, 0
2, 48900, Note_on_c, 0, 61, 0
2, 48900, Note_on_c, 0, 67, 0
2, 48960, Note_on_c, 0, 59, 53
2, 48960, Note_on_c, 0, 68, 63
2, 49080, Note_on_c, 0, 68, 0
2, 49080, Note_on_c, 0, 59, 0
2, 49200, Note_on_c, 0, 64, 53
2, 49200, Note_on_c, 0, 61, 53
2, 49200, Note_on_c, 0, 68, 63
2, 49320, Note_on_c, 0, 68, 0
2, 49320, Note_on_c, 0, 71, 53
2, 49380, Note_on_c, 0, 71, 0
2, 49380, Note_on_c, 0, 61, 0
2, 49380, Note_on_c, 0, 64, 0
2, 49440, Note_on_c, 0, 67, 53
2, 49440, Note_on_c, 0, 61, 53
2, 49440, Note_on_c, 0, 71, 63
2, 49560, Note_on_c, 0, 71, 0
2, 49560, Note_on_c, 0, 70, 53
2, 49620, Note_on_c, 0, 70, 0
2, 49620, Note_on_c, 0, 61, 0
2, 49620, Note_on_c, 0, 67, 0
2, 49680, Note_on_c, 0, 59, 53
2, 49680, Note_on_c, 0, 70, 63
2, 49800, Note_on_c, 0, 70, 0
2, 49800, Note_on_c, 0, 68, 53
2, 49860, Note_on_c, 0, 68, 0
2, 49860, Note_on_c, 0, 59, 0
2, 49920, Note_on_c, 0, 64, 53
2, 49920, Note_on_c, 0, 61, 53
2, 49920, Note_on_c, 0, 68, 63
2, 50040, Note_on_c, 0, 68, 0
2, 50040, Note_on_c, 0, 71, 53
2, 50100, Note_on_c, 0, 71, 0
2, 50100, Note_on_c, 0, 61, 0
2, 50100, Note_on_c, 0, 64, 0
2, 50160, Note_on_c, 0, 67, 53
2, 50160, Note_on_c, 0, 61, 53
2, 50160, Note_on_c, 0, 71, 63
2, 50280, Note_on_c, 0, 71, 0
2, 50280, Note_on_c, 0, 70, 53
2, 50340, Note_on_c, 0, 70, 0
2, 50340, Note_on_c, 0, 61, 0
2, 50340, Note_on_c, 0, 67, 0
2, 50400, Note_on_c, 0, 59, 53
2, 50400, Note_on_c, 0, 70, 63
2, 50520, Note_on_c, 0, 70, 0
2, 50520, Note_on_c, 0, 68, 53
2, 50580, Note_on_c, 0, 68, 0
2, 50580, Note_on_c, 0, 59, 0
2, 50640, Note_on_c, 0, 61, 53
2, 50640, Note_on_c, 0, 64, 63
2, 50760, Note_on_c, 0, 64, 0
2, 50760, Note_on_c, 0, 73, 53
2, 50820, Note_on_c, 0, 73, 0
2, 50820, Note_on_c, 0, 61, 0
2, 50880, Note_on_c, 0, 68, 53
2, 50880, Note_on_c, 0, 62, 53
2, 50880, Note_on_c, 0, 73, 63
2, 51000, Note_on_c, 0, 73, 0
2, 51000, Note_on_c, 0, 71, 53
2, 51060, Note_on_c, 0, 71, 0
2, 51060, Note_on_c, 0, 62, 0
2, 51060, Note_on_c, 0, 68, 0
2, 51120, Note_on_c, 0, 64, 53
2, 51120, Note_on_c, 0, 61, 53
2, 51120, Note_on_c, 0, 71, 63
2, 51240, Note_on_c, 0, 71, 0
2, 51240, Note_on_c, 0, 69, 53
2, 51300, Note_on_c, 0, 69, 0
2, 51300, Note_on_c, 0, 61, 0
2, 51300, Note_on_c, 0, 64, 0
2, 51360, Note_on_c, 0, 59, 53
2, 51360, Note_on_c, 0, 63, 63
2, 51480, Note_on_c, 0, 71, 53
2, 51540, Note_on_c, 0, 71, 0
2, 51540, Note_on_c, 0, 63, 0
2, 51540, Note_on_c, 0, 59, 0
2, 51600, Note_on_c, 0, 63, 53
2, 51600, Note_on_c, 0, 58, 53
2, 51600, Note_on_c, 0, 68, 63
2, 51720, Note_on_c, 0, 68, 0
2, 51720, Note_on_c, 0, 67, 53
2, 51780, Note_on_c, 0, 67, 0
2, 51780, Note_on_c, 0, 58, 0
2, 51840, Note_on_c, 0, 59, 53
2, 51840, Note_on_c, 0, 68, 63
2, 51960, Note_on_c, 0, 68, 0
2, 51960, Note_on_c, 0, 59, 0
2, 51960, Note_on_c, 0, 63, 0
2, 52560, Note_on_c, 0, 63, 69
2, 53760, Note_on_c, 0, 63, 0
2, 53760, Note_on_c, 0, 64, 63
2, 54000, Note_on_c, 0, 64, 0
2, 54000, Note_on_c, 0, 63, 63
2, 54960, Note_on_c, 0, 63, 0
2, 54960, Note_on_c, 0, 66, 59
2, 55200, Note_on_c, 0, 66, 0
2, 55200, Note_on_c, 0, 64, 52
2, 55440, Note_on_c, 0, 64, 0
2, 55440, Note_on_c, 0, 64, 57
2, 55680, Note_on_c, 0, 64, 0
2, 55680, Note_on_c, 0, 63, 50
2, 56160, Note_on_c, 0, 63, 0
2, 56160, End_track
3, 0, Start_track
3, 0, MIDI_port, 0
3, 0, Title_t, "Piano left"
3, 0, Program_c, 0, 0
3, 0, Control_c, 0, 7, 100
3, 0, Control_c, 0, 10, 64
3, 0, Control_c, 0, 64, 0
3, 0, Text_t, "bdca426d104a26ac9dcb070447587523"
3, 0, Control_c, 0, 91, 127
3, 1, Note_on_c, 0, 56, 66
3, 1, Note_on_c, 0, 51, 56
3, 1, Note_on_c, 0, 44, 56
3, 3, Control_c, 0, 64, 127
3, 91, Control_c, 0, 64, 0
3, 180, Note_on_c, 0, 44, 0
3, 180, Note_on_c, 0, 51, 0
3, 180, Note_on_c, 0, 56, 0
3, 240, Note_on_c, 0, 44, 49
3, 240, Note_on_c, 0, 32, 41
3, 254, Control_c, 0, 64, 127
3, 300, Note_on_c, 0, 32, 0
3, 300, Note_on_c, 0, 44, 0
3, 357, Control_c, 0, 64, 0
3, 480, Note_on_c, 0, 39, 41
3, 480, Note_on_c, 0, 51, 49
3, 503, Control_c, 0, 64, 127
3, 540, Note_on_c, 0, 51, 0
3, 540, Note_on_c, 0, 39, 0
3, 629, Control_c, 0, 64, 0
3, 720, Note_on_c, 0, 51, 49
3, 720, Note_on_c, 0, 44, 49
3, 720, Note_on_c, 0, 56, 59
3, 737, Control_c, 0, 64, 127
3, 851, Control_c, 0, 64, 0
3, 900, Note_on_c, 0, 56, 0
3, 900, Note_on_c, 0, 44, 0
3, 900, Note_on_c, 0, 51, 0
3, 960, Note_on_c, 0, 32, 41
3, 960, Note_on_c, 0, 44, 49
3, 1000, Control_c, 0, 64, 127
3, 1020, Note_on_c, 0, 44, 0
3, 1020, Note_on_c, 0, 32, 0
3, 1134, Control_c, 0, 64, 0
3, 1200, Note_on_c, 0, 39, 41
3, 1200, Note_on_c, 0, 51, 49
3, 1237, Control_c, 0, 64, 127
3, 1260, Note_on_c, 0, 51, 0
3, 1260, Note_on_c, 0, 39, 0
3, 1346, Control_c, 0, 64, 0
3, 1440, Note_on_c, 0, 59, 59
3, 1440, Note_on_c, 0, 51, 49
3, 1440, Note_on_c, 0, 56, 49
3, 1477, Control_c, 0, 64, 127
3, 1611, Control_c, 0, 64, 0
3, 1620, Note_on_c, 0, 56, 0
3, 1620, Note_on_c, 0, 51, 0
3, 1620, Note_on_c, 0, 59, 0
3, 1680, Note_on_c, 0, 32, 43
3, 1680, Note_on_c, 0, 44, 51
3, 1709, Control_c, 0, 64, 127
3, 1740, Note_on_c, 0, 44, 0
3, 1740, Note_on_c, 0, 32, 0
3, 1854, Control_c, 0, 64, 0
3, 1920, Note_on_c, 0, 39, 44
3, 1920, Note_on_c, 0, 51, 52
3, 1954, Control_c, 0, 64, 127
3, 1980, Note_on_c, 0, 51, 0
3, 1980, Note_on_c, 0, 39, 0
3, 2071, Control_c, 0, 64, 0
3, 2160, Note_on_c, 0, 59, 63
3, 2160, Note_on_c, 0, 51, 53
3, 2160, Note_on_c, 0, 56, 53
3, 2180, Control_c, 0, 64, 127
3, 2297, Control_c, 0, 64, 0
3, 2340, Note_on_c, 0, 56, 0
3, 2340, Note_on_c, 0, 51, 0
3, 2340, Note_on_c, 0, 59, 0
3, 2400, Note_on_c, 0, 32, 45
3, 2400, Note_on_c, 0, 44, 54
3, 2429, Control_c, 0, 64, 127
3, 2460, Note_on_c, 0, 44, 0
3, 2460, Note_on_c, 0, 32, 0
3, 2583, Control_c, 0, 64, 0
3, 2640, Note_on_c, 0, 51, 55
3, 2640, Note_on_c, 0, 39, 46
3, 2663, Control_c, 0, 64, 127
3, 2700, Note_on_c, 0, 39, 0
3, 2700, Note_on_c, 0, 51, 0
3, 2786, Control_c, 0, 64, 0
3, 2880, Note_on_c, 0, 51, 47
3, 2880, Note_on_c, 0, 58, 56
3, 2905, Control_c, 0, 64, 127
3, 2940, Note_on_c, 0, 58, 0
3, 2940, Note_on_c, 0, 51, 0
3, 3120, Note_on_c, 0, 43, 48
3, 3120, Control_c, 0, 64, 0
3, 3120, Note_on_c, 0, 51, 57
3, 3155, Control_c, 0, 64, 127
3, 3180, Note_on_c, 0, 51, 0
3, 3180, Note_on_c, 0, 43, 0
3, 3360, Note_on_c, 0, 51, 50
3, 3360, Note_on_c, 0, 58, 59
3, 3366, Control_c, 0, 64, 0
3, 3399, Control_c, 0, 64, 127
3, 3420, Note_on_c, 0, 58, 0
3, 3420, Note_on_c, 0, 51, 0
3, 3600, Control_c, 0, 64, 0
3, 3600, Note_on_c, 0, 44, 47
3, 3600, Note_on_c, 0, 51, 56
3, 3635, Control_c, 0, 64, 127
3, 3660, Note_on_c, 0, 51, 0
3, 3660, Note_on_c, 0, 44, 0
3, 3822, Control_c, 0, 64, 0
3, 3840, Note_on_c, 0, 59, 57
3, 3840, Note_on_c, 0, 51, 48
3, 3865, Control_c, 0, 64, 127
3, 3900, Note_on_c, 0, 51, 0
3, 3900, Note_on_c, 0, 59, 0
3, 4080, Control_c, 0, 64, 0
3, 4080, Note_on_c, 0, 44, 50
3, 4080, Note_on_c, 0, 51, 59
3, 4126, Control_c, 0, 64, 127
3, 4140, Note_on_c, 0, 51, 0
3, 4140, Note_on_c, 0, 44, 0
3, 4281, Control_c, 0, 64, 0
3, 4320, Note_on_c, 0, 56, 60
3, 4320, Note_on_c, 0, 49, 50
3, 4362, Control_c, 0, 64, 127
3, 4380, Note_on_c, 0, 49, 0
3, 4380, Note_on_c, 0, 56, 0
3, 4546, Control_c, 0, 64, 0
3, 4560, Note_on_c, 0, 37, 49
3, 4560, Note_on_c, 0, 49, 58
3, 4588, Control_c, 0, 64, 127
3, 4620, Note_on_c, 0, 49, 0
3, 4620, Note_on_c, 0, 37, 0
3, 4782, Control_c, 0, 64, 0
3, 4800, Note_on_c, 0, 49, 47
3, 4800, Note_on_c, 0, 56, 56
3, 4828, Control_c, 0, 64, 127
3, 4860, Note_on_c, 0, 56, 0
3, 4860, Note_on_c, 0, 49, 0
3, 5040, Control_c, 0, 64, 0
3, 5040, Note_on_c, 0, 51, 45
3, 5040, Note_on_c, 0, 55, 54
3, 5080, Control_c, 0, 64, 127
3, 5100, Note_on_c, 0, 55, 0
3, 5100, Note_on_c, 0, 51, 0
3, 5274, Control_c, 0, 64, 0
3, 5280, Note_on_c, 0, 39, 45
3, 5280, Note_on_c, 0, 51, 54
3, 5337, Control_c, 0, 64, 127
3, 5340, Note_on_c, 0, 51, 0
3, 5340, Note_on_c, 0, 39, 0
3, 5520, Note_on_c, 0, 51, 43
3, 5520, Note_on_c, 0, 55, 51
3, 5529, Control_c, 0, 64, 0
3, 5549, Control_c, 0, 64, 127
3, 5580, Note_on_c, 0, 55, 0
3, 5580, Note_on_c, 0, 51, 0
3, 5717, Control_c, 0, 64, 0
3, 5760, Note_on_c, 0, 44, 49
3, 5760, Note_on_c, 0, 51, 49
3, 5760, Note_on_c, 0, 56, 59
3, 5791, Control_c, 0, 64, 127
3, 5871, Control_c, 0, 64, 0
3, 5940, Note_on_c, 0, 56, 0
3, 5940, Note_on_c, 0, 51, 0
3, 5940, Note_on_c, 0, 44, 0
3, 6000, Note_on_c, 0, 32, 41
3, 6000, Note_on_c, 0, 44, 49
3, 6014, Control_c, 0, 64, 127
3, 6060, Note_on_c, 0, 44, 0
3, 6060, Note_on_c, 0, 32, 0
3, 6131, Control_c, 0, 64, 0
3, 6240, Note_on_c, 0, 39, 41
3, 6240, Note_on_c, 0, 51, 49
3, 6263, Control_c, 0, 64, 127
3, 6300, Note_on_c, 0, 51, 0
3, 6300, Note_on_c, 0, 39, 0
3, 6343, Control_c, 0, 64, 0
3, 6480, Note_on_c, 0, 44, 49
3, 6480, Note_on_c, 0, 51, 49
3, 6480, Note_on_c, 0, 56, 59
3, 6497, Control_c, 0, 64, 127
3, 6586, Control_c, 0, 64, 0
3, 6660, Note_on_c, 0, 56, 0
3, 6660, Note_on_c, 0, 51, 0
3, 6660, Note_on_c, 0, 44, 0
3, 6720, Note_on_c, 0, 44, 49
3, 6720, Note_on_c, 0, 32, 41
3, 6760, Control_c, 0, 64, 127
3, 6780, Note_on_c, 0, 32, 0
3, 6780, Note_on_c, 0, 44, 0
3, 6837, Control_c, 0, 64, 0
3, 6960, Note_on_c, 0, 39, 41
3, 6960, Note_on_c, 0, 51, 49
3, 6997, Control_c, 0, 64, 127
3, 7020, Note_on_c, 0, 51, 0
3, 7020, Note_on_c, 0, 39, 0
3, 7111, Control_c, 0, 64, 0
3, 7200, Note_on_c, 0, 43, 49
3, 7200, Note_on_c, 0, 52, 49
3, 7200, Note_on_c, 0, 55, 59
3, 7237, Control_c, 0, 64, 127
3, 7343, Control_c, 0, 64, 0
3, 7380, Note_on_c, 0, 55, 0
3, 7380, Note_on_c, 0, 52, 0
3, 7380, Note_on_c, 0, 43, 0
3, 7440, Note_on_c, 0, 43, 51
3, 7440, Note_on_c, 0, 31, 43
3, 7469, Control_c, 0, 64, 127
3, 7500, Note_on_c, 0, 31, 0
3, 7500, Note_on_c, 0, 43, 0
3, 7614, Control_c, 0, 64, 0
3, 7680, Note_on_c, 0, 40, 44
3, 7680, Note_on_c, 0, 52, 52
3, 7714, Control_c, 0, 64, 127
3, 7740, Note_on_c, 0, 52, 0
3, 7740, Note_on_c, 0, 40, 0
3, 7831, Control_c, 0, 64, 0
3, 7920, Note_on_c, 0, 55, 55
3, 7920, Note_on_c, 0, 50, 55
3, 7920, Note_on_c, 0, 59, 64
3, 7940, Control_c, 0, 64, 127
3, 8060, Control_c, 0, 64, 0
3, 8100, Note_on_c, 0, 59, 0
3, 8100, Note_on_c, 0, 50, 0
3, 8100, Note_on_c, 0, 55, 0
3, 8160, Note_on_c, 0, 31, 46
3, 8160, Note_on_c, 0, 43, 55
3, 8189, Control_c, 0, 64, 127
3, 8220, Note_on_c, 0, 43, 0
3, 8220, Note_on_c, 0, 31, 0
3, 8294, Control_c, 0, 64, 0
3, 8400, Note_on_c, 0, 43, 48
3, 8400, Note_on_c, 0, 55, 57
3, 8423, Control_c, 0, 64, 127
3, 8460, Note_on_c, 0, 55, 0
3, 8460, Note_on_c, 0, 43, 0
3, 8554, Control_c, 0, 64, 0
3, 8640, Note_on_c, 0, 54, 61
3, 8640, Note_on_c, 0, 42, 51
3, 8665, Control_c, 0, 64, 127
3, 8700, Note_on_c, 0, 42, 0
3, 8700, Note_on_c, 0, 54, 0
3, 8873, Control_c, 0, 64, 0
3, 8880, Note_on_c, 0, 54, 50
3, 8880, Note_on_c, 0, 63, 60
3, 8915, Control_c, 0, 64, 127
3, 8940, Note_on_c, 0, 63, 0
3, 8940, Note_on_c, 0, 54, 0
3, 9120, Note_on_c, 0, 54, 61
3, 9120, Control_c, 0, 64, 0
3, 9120, Note_on_c, 0, 42, 51
3, 9159, Control_c, 0, 64, 127
3, 9180, Note_on_c, 0, 42, 0
3, 9180, Note_on_c, 0, 54, 0
3, 9360, Control_c, 0, 64, 0
3, 9360, Note_on_c, 0, 54, 51
3, 9360, Note_on_c, 0, 64, 61
3, 9392, Control_c, 0, 64, 127
3, 9420, Note_on_c, 0, 64, 0
3, 9420, Note_on_c, 0, 54, 0
3, 9600, Note_on_c, 0, 42, 50
3, 9600, Control_c, 0, 64, 0
3, 9600, Note_on_c, 0, 54, 60
3, 9635, Control_c, 0, 64, 127
3, 9660, Note_on_c, 0, 54, 0
3, 9660, Note_on_c, 0, 42, 0
3, 9840, Note_on_c, 0, 54, 51
3, 9840, Note_on_c, 0, 64, 61
3, 9851, Control_c, 0, 64, 0
3, 9879, Control_c, 0, 64, 127
3, 9900, Note_on_c, 0, 64, 0
3, 9900, Note_on_c, 0, 54, 0
3, 10080, Control_c, 0, 64, 0
3, 10080, Note_on_c, 0, 42, 45
3, 10080, Note_on_c, 0, 54, 54
3, 10140, Note_on_c, 0, 54, 0
3, 10140, Note_on_c, 0, 42, 0
3, 10144, Control_c, 0, 64, 127
3, 10320, Note_on_c, 0, 54, 44
3, 10320, Note_on_c, 0, 63, 52
3, 10327, Control_c, 0, 64, 0
3, 10355, Control_c, 0, 64, 127
3, 10380, Note_on_c, 0, 63, 0
3, 10380, Note_on_c, 0, 54, 0
3, 10560, Note_on_c, 0, 42, 43
3, 10560, Note_on_c, 0, 54, 51
3, 10578, Control_c, 0, 64, 0
3, 10599, Control_c, 0, 64, 127
3, 10620, Note_on_c, 0, 54, 0
3, 10620, Note_on_c, 0, 42, 0
3, 10800, Note_on_c, 0, 64, 50
3, 10800, Control_c, 0, 64, 0
3, 10800, Note_on_c, 0, 54, 42
3, 10849, Control_c, 0, 64, 127
3, 10860, Note_on_c, 0, 54, 0
3, 10860, Note_on_c, 0, 64, 0
3, 11040, Note_on_c, 0, 42, 40
3, 11040, Note_on_c, 0, 54, 47
3, 11047, Control_c, 0, 64, 0
3, 11075, Control_c, 0, 64, 127
3, 11100, Note_on_c, 0, 54, 0
3, 11100, Note_on_c, 0, 42, 0
3, 11280, Note_on_c, 0, 61, 47
3, 11280, Note_on_c, 0, 54, 40
3, 11284, Control_c, 0, 64, 0
3, 11319, Control_c, 0, 64, 127
3, 11340, Note_on_c, 0, 54, 0
3, 11340, Note_on_c, 0, 61, 0
3, 11520, Control_c, 0, 64, 0
3, 11520, Note_on_c, 0, 47, 40
3, 11520, Note_on_c, 0, 54, 48
3, 11563, Control_c, 0, 64, 127
3, 11580, Note_on_c, 0, 54, 0
3, 11580, Note_on_c, 0, 47, 0
3, 11751, Control_c, 0, 64, 0
3, 11760, Note_on_c, 0, 47, 40
3, 11760, Note_on_c, 0, 54, 40
3, 11760, Note_on_c, 0, 59, 48
3, 11795, Control_c, 0, 64, 127
3, 11820, Note_on_c, 0, 59, 0
3, 11820, Note_on_c, 0, 54, 0
3, 11820, Note_on_c, 0, 47, 0
3, 12000, Note_on_c, 0, 59, 51
3, 12000, Note_on_c, 0, 47, 43
3, 12000, Note_on_c, 0, 55, 43
3, 12009, Control_c, 0, 64, 0
3, 12039, Control_c, 0, 64, 127
3, 12060, Note_on_c, 0, 55, 0
3, 12060, Note_on_c, 0, 47, 0
3, 12060, Note_on_c, 0, 59, 0
3, 12240, Control_c, 0, 64, 0
3, 12240, Note_on_c, 0, 59, 53
3, 12240, Note_on_c, 0, 47, 45
3, 12240, Note_on_c, 0, 54, 45
3, 12286, Control_c, 0, 64, 127
3, 12300, Note_on_c, 0, 54, 0
3, 12300, Note_on_c, 0, 47, 0
3, 12300, Note_on_c, 0, 59, 0
3, 12480, Note_on_c, 0, 47, 45
3, 12480, Note_on_c, 0, 54, 45
3, 12480, Note_on_c, 0, 59, 54
3, 12483, Control_c, 0, 64, 0
3, 12515, Control_c, 0, 64, 127
3, 12540, Note_on_c, 0, 59, 0
3, 12540, Note_on_c, 0, 54, 0
3, 12540, Note_on_c, 0, 47, 0
3, 12720, Note_on_c, 0, 55, 46
3, 12720, Note_on_c, 0, 47, 46
3, 12720, Note_on_c, 0, 59, 55
3, 12723, Control_c, 0, 64, 0
3, 12759, Control_c, 0, 64, 127
3, 12780, Note_on_c, 0, 59, 0
3, 12780, Note_on_c, 0, 47, 0
3, 12780, Note_on_c, 0, 55, 0
3, 12960, Note_on_c, 0, 59, 57
3, 12960, Control_c, 0, 64, 0
3, 12960, Note_on_c, 0, 47, 48
3, 12960, Note_on_c, 0, 54, 48
3, 12989, Control_c, 0, 64, 127
3, 13020, Note_on_c, 0, 54, 0
3, 13020, Note_on_c, 0, 47, 0
3, 13020, Note_on_c, 0, 59, 0
3, 13197, Control_c, 0, 64, 0
3, 13200, Note_on_c, 0, 52, 48
3, 13200, Note_on_c, 0, 55, 48
3, 13200, Note_on_c, 0, 59, 57
3, 13235, Control_c, 0, 64, 127
3, 13260, Note_on_c, 0, 59, 0
3, 13260, Note_on_c, 0, 55, 0
3, 13260, Note_on_c, 0, 52, 0
3, 13417, Control_c, 0, 64, 0
3, 13440, Note_on_c, 0, 47, 51
3, 13440, Note_on_c, 0, 54, 51
3, 13440, Note_on_c, 0, 59, 61
3, 13479, Control_c, 0, 64, 127
3, 13500, Note_on_c, 0, 59, 0
3, 13500, Note_on_c, 0, 54, 0
3, 13500, Note_on_c, 0, 47, 0
3, 13680, Note_on_c, 0, 55, 52
3, 13680, Control_c, 0, 64, 0
3, 13680, Note_on_c, 0, 52, 52
3, 13680, Note_on_c, 0, 59, 62
3, 13720, Control_c, 0, 64, 127
3, 13740, Note_on_c, 0, 59, 0
3, 13740, Note_on_c, 0, 52, 0
3, 13740, Note_on_c, 0, 55, 0
3, 13883, Control_c, 0, 64, 0
3, 13920, Note_on_c, 0, 59, 63
3, 13920, Note_on_c, 0, 47, 53
3, 13920, Note_on_c, 0, 54, 53
3, 13955, Control_c, 0, 64, 127
3, 13980, Note_on_c, 0, 54, 0
3, 13980, Note_on_c, 0, 47, 0
3, 13980, Note_on_c, 0, 59, 0
3, 14157, Control_c, 0, 64, 0
3, 14160, Note_on_c, 0, 52, 54
3, 14160, Note_on_c, 0, 55, 54
3, 14160, Note_on_c, 0, 59, 64
3, 14199, Control_c, 0, 64, 127
3, 14220, Note_on_c, 0, 59, 0
3, 14220, Note_on_c, 0, 55, 0
3, 14220, Note_on_c, 0, 52, 0
3, 14357, Control_c, 0, 64, 0
3, 14400, Note_on_c, 0, 47, 60
3, 14400, Note_on_c, 0, 54, 60
3, 14400, Note_on_c, 0, 59, 72
3, 14414, Control_c, 0, 64, 127
3, 14640, Note_on_c, 0, 59, 0
3, 14640, Note_on_c, 0, 54, 0
3, 14640, Note_on_c, 0, 47, 0
3, 14640, Note_on_c, 0, 35, 56
3, 14640, Note_on_c, 0, 47, 66
3, 14651, Control_c, 0, 64, 0
3, 14689, Control_c, 0, 64, 127
3, 14700, Note_on_c, 0, 47, 0
3, 14700, Note_on_c, 0, 35, 0
3, 14873, Control_c, 0, 64, 0
3, 14880, Note_on_c, 0, 47, 56
3, 14880, Note_on_c, 0, 54, 66
3, 14905, Control_c, 0, 64, 127
3, 15120, Note_on_c, 0, 54, 0
3, 15120, Note_on_c, 0, 59, 68
3, 15120, Control_c, 0, 64, 0
3, 15120, Note_on_c, 0, 54, 57
3, 15169, Control_c, 0, 64, 127
3, 15360, Note_on_c, 0, 54, 0
3, 15360, Note_on_c, 0, 59, 0
3, 15360, Note_on_c, 0, 47, 0
3, 15360, Note_on_c, 0, 35, 53
3, 15360, Note_on_c, 0, 47, 62
3, 15371, Control_c, 0, 64, 0
3, 15416, Control_c, 0, 64, 127
3, 15420, Note_on_c, 0, 47, 0
3, 15420, Note_on_c, 0, 35, 0
3, 15600, Note_on_c, 0, 54, 62
3, 15600, Note_on_c, 0, 47, 53
3, 15611, Control_c, 0, 64, 0
3, 15646, Control_c, 0, 64, 127
3, 15780, Control_c, 0, 64, 0
3, 15840, Note_on_c, 0, 47, 0
3, 15840, Note_on_c, 0, 54, 0
3, 15840, Note_on_c, 0, 52, 54
3, 15840, Note_on_c, 0, 59, 64
3, 15857, Control_c, 0, 64, 127
3, 15960, Note_on_c, 0, 59, 0
3, 15960, Note_on_c, 0, 52, 0
3, 16077, Control_c, 0, 64, 0
3, 16080, Note_on_c, 0, 40, 54
3, 16080, Note_on_c, 0, 52, 64
3, 16111, Control_c, 0, 64, 127
3, 16200, Note_on_c, 0, 52, 0
3, 16200, Note_on_c, 0, 40, 0
3, 16317, Control_c, 0, 64, 0
3, 16320, Note_on_c, 0, 59, 64
3, 16320, Note_on_c, 0, 52, 54
3, 16346, Control_c, 0, 64, 127
3, 16440, Note_on_c, 0, 52, 0
3, 16440, Note_on_c, 0, 59, 0
3, 16511, Control_c, 0, 64, 0
3, 16560, Note_on_c, 0, 45, 57
3, 16560, Note_on_c, 0, 52, 57
3, 16560, Note_on_c, 0, 57, 68
3, 16609, Control_c, 0, 64, 127
3, 16763, Control_c, 0, 64, 0
3, 16786, Control_c, 0, 64, 127
3, 16800, Note_on_c, 0, 57, 0
3, 16800, Note_on_c, 0, 52, 0
3, 16800, Note_on_c, 0, 45, 0
3, 16800, Note_on_c, 0, 33, 53
3, 16800, Note_on_c, 0, 45, 62
3, 16860, Note_on_c, 0, 45, 0
3, 16860, Note_on_c, 0, 33, 0
3, 17040, Note_on_c, 0, 45, 53
3, 17040, Note_on_c, 0, 52, 62
3, 17051, Control_c, 0, 64, 0
3, 17091, Control_c, 0, 64, 127
3, 17280, Note_on_c, 0, 52, 0
3, 17280, Control_c, 0, 64, 0
3, 17280, Note_on_c, 0, 52, 54
3, 17280, Note_on_c, 0, 57, 64
3, 17329, Control_c, 0, 64, 127
3, 17469, Control_c, 0, 64, 0
3, 17489, Control_c, 0, 64, 127
3, 17520, Note_on_c, 0, 57, 0
3, 17520, Note_on_c, 0, 52, 0
3, 17520, Note_on_c, 0, 45, 0
3, 17520, Note_on_c, 0, 45, 58
3, 17520, Note_on_c, 0, 33, 50
3, 17580, Note_on_c, 0, 33, 0
3, 17580, Note_on_c, 0, 45, 0
3, 17760, Note_on_c, 0, 45, 50
3, 17760, Note_on_c, 0, 52, 58
3, 17774, Control_c, 0, 64, 0
3, 17806, Control_c, 0, 64, 127
3, 18000, Note_on_c, 0, 52, 0
3, 18000, Note_on_c, 0, 57, 64
3, 18000, Note_on_c, 0, 52, 54
3, 18014, Control_c, 0, 64, 0
3, 18049, Control_c, 0, 64, 127
3, 18194, Control_c, 0, 64, 0
3, 18229, Control_c, 0, 64, 127
3, 18240, Note_on_c, 0, 52, 0
3, 18240, Note_on_c, 0, 57, 0
3, 18240, Note_on_c, 0, 45, 0
3, 18240, Note_on_c, 0, 33, 50
3, 18240, Note_on_c, 0, 45, 58
3, 18300, Note_on_c, 0, 45, 0
3, 18300, Note_on_c, 0, 33, 0
3, 18480, Note_on_c, 0, 52, 58
3, 18480, Note_on_c, 0, 45, 50
3, 18500, Control_c, 0, 64, 0
3, 18543, Control_c, 0, 64, 127
3, 18600, Note_on_c, 0, 45, 0
3, 18600, Note_on_c, 0, 52, 0
3, 18674, Control_c, 0, 64, 0
3, 18720, Note_on_c, 0, 57, 64
3, 18720, Control_c, 0, 64, 127
3, 18720, Note_on_c, 0, 50, 54
3, 18840, Note_on_c, 0, 50, 0
3, 18840, Note_on_c, 0, 57, 0
3, 18957, Control_c, 0, 64, 0
3, 18960, Note_on_c, 0, 38, 54
3, 18960, Note_on_c, 0, 50, 64
3, 18991, Control_c, 0, 64, 127
3, 19080, Note_on_c, 0, 50, 0
3, 19080, Note_on_c, 0, 38, 0
3, 19200, Note_on_c, 0, 57, 64
3, 19200, Control_c, 0, 64, 0
3, 19200, Note_on_c, 0, 50, 54
3, 19226, Control_c, 0, 64, 127
3, 19320, Note_on_c, 0, 50, 0
3, 19320, Note_on_c, 0, 57, 0
3, 19391, Control_c, 0, 64, 0
3, 19440, Control_c, 0, 64, 127
3, 19440, Note_on_c, 0, 43, 51
3, 19440, Note_on_c, 0, 50, 51
3, 19440, Note_on_c, 0, 55, 61
3, 19651, Control_c, 0, 64, 0
3, 19674, Control_c, 0, 64, 127
3, 19680, Note_on_c, 0, 55, 0
3, 19680, Note_on_c, 0, 50, 0
3, 19680, Note_on_c, 0, 43, 0
3, 19680, Note_on_c, 0, 31, 47
3, 19680, Note_on_c, 0, 43, 55
3, 19740, Note_on_c, 0, 43, 0
3, 19740, Note_on_c, 0, 31, 0
3, 19917, Control_c, 0, 64, 0
3, 19920, Note_on_c, 0, 43, 47
3, 19920, Note_on_c, 0, 55, 55
3, 19951, Control_c, 0, 64, 127
3, 20040, Note_on_c, 0, 55, 0
3, 20040, Note_on_c, 0, 43, 0
3, 20106, Control_c, 0, 64, 0
3, 20160, Note_on_c, 0, 48, 40
3, 20160, Note_on_c, 0, 55, 48
3, 20163, Control_c, 0, 64, 127
3, 20220, Note_on_c, 0, 55, 0
3, 20220, Note_on_c, 0, 48, 0
3, 20394, Control_c, 0, 64, 0
3, 20400, Note_on_c, 0, 60, 45
3, 20400, Note_on_c, 0, 48, 38
3, 20400, Note_on_c, 0, 55, 38
3, 20414, Control_c, 0, 64, 127
3, 20460, Note_on_c, 0, 55, 0
3, 20460, Note_on_c, 0, 48, 0
3, 20460, Note_on_c, 0, 60, 0
3, 20640, Control_c, 0, 64, 0
3, 20640, Note_on_c, 0, 48, 39
3, 20640, Note_on_c, 0, 55, 39
3, 20640, Note_on_c, 0, 60, 47
3, 20663, Control_c, 0, 64, 127
3, 20700, Note_on_c, 0, 60, 0
3, 20700, Note_on_c, 0, 55, 0
3, 20700, Note_on_c, 0, 48, 0
3, 20880, Control_c, 0, 64, 0
3, 20880, Note_on_c, 0, 48, 45
3, 20880, Note_on_c, 0, 55, 45
3, 20880, Note_on_c, 0, 60, 54
3, 20923, Control_c, 0, 64, 127
3, 20940, Note_on_c, 0, 60, 0
3, 20940, Note_on_c, 0, 55, 0
3, 20940, Note_on_c, 0, 48, 0
3, 21120, Note_on_c, 0, 60, 51
3, 21120, Note_on_c, 0, 48, 42
3, 21120, Note_on_c, 0, 54, 42
3, 21134, Control_c, 0, 64, 0
3, 21160, Control_c, 0, 64, 127
3, 21180, Note_on_c, 0, 54, 0
3, 21180, Note_on_c, 0, 48, 0
3, 21180, Note_on_c, 0, 60, 0
3, 21354, Control_c, 0, 64, 0
3, 21360, Note_on_c, 0, 59, 52
3, 21360, Note_on_c, 0, 47, 44
3, 21360, Note_on_c, 0, 54, 44
3, 21397, Control_c, 0, 64, 127
3, 21420, Note_on_c, 0, 54, 0
3, 21420, Note_on_c, 0, 47, 0
3, 21420, Note_on_c, 0, 59, 0
3, 21557, Control_c, 0, 64, 0
3, 21600, Note_on_c, 0, 52, 40
3, 21600, Note_on_c, 0, 59, 48
3, 21603, Control_c, 0, 64, 127
3, 21660, Note_on_c, 0, 59, 0
3, 21660, Note_on_c, 0, 52, 0
3, 21840, Note_on_c, 0, 55, 38
3, 21840, Control_c, 0, 64, 0
3, 21840, Note_on_c, 0, 48, 38
3, 21840, Note_on_c, 0, 60, 45
3, 21854, Control_c, 0, 64, 127
3, 21900, Note_on_c, 0, 60, 0
3, 21900, Note_on_c, 0, 48, 0
3, 21900, Note_on_c, 0, 55, 0
3, 22080, Control_c, 0, 64, 0
3, 22080, Note_on_c, 0, 60, 47
3, 22080, Note_on_c, 0, 48, 39
3, 22080, Note_on_c, 0, 55, 39
3, 22103, Control_c, 0, 64, 127
3, 22140, Note_on_c, 0, 55, 0
3, 22140, Note_on_c, 0, 48, 0
3, 22140, Note_on_c, 0, 60, 0
3, 22320, Control_c, 0, 64, 0
3, 22320, Note_on_c, 0, 48, 45
3, 22320, Note_on_c, 0, 55, 45
3, 22320, Note_on_c, 0, 60, 54
3, 22363, Control_c, 0, 64, 127
3, 22380, Note_on_c, 0, 60, 0
3, 22380, Note_on_c, 0, 55, 0
3, 22380, Note_on_c, 0, 48, 0
3, 22560, Note_on_c, 0, 54, 42
3, 22560, Note_on_c, 0, 48, 42
3, 22560, Note_on_c, 0, 60, 51
3, 22574, Control_c, 0, 64, 0
3, 22600, Control_c, 0, 64, 127
3, 22620, Note_on_c, 0, 60, 0
3, 22620, Note_on_c, 0, 48, 0
3, 22794, Control_c, 0, 64, 0
3, 22800, Note_on_c, 0, 59, 52
3, 22800, Note_on_c, 0, 47, 44
3, 22837, Control_c, 0, 64, 127
3, 22860, Note_on_c, 0, 47, 0
3, 22860, Note_on_c, 0, 59, 0
3, 23020, Control_c, 0, 64, 0
3, 23040, Note_on_c, 0, 54, 0
3, 23040, Note_on_c, 0, 52, 43
3, 23040, Note_on_c, 0, 59, 51
3, 23075, Control_c, 0, 64, 127
3, 23160, Note_on_c, 0, 59, 0
3, 23160, Note_on_c, 0, 52, 0
3, 23259, Control_c, 0, 64, 0
3, 23280, Note_on_c, 0, 59, 49
3, 23280, Note_on_c, 0, 47, 41
3, 23315, Control_c, 0, 64, 127
3, 23460, Note_on_c, 0, 47, 0
3, 23460, Note_on_c, 0, 59, 0
3, 23520, Note_on_c, 0, 52, 41
3, 23520, Note_on_c, 0, 59, 49
3, 23527, Control_c, 0, 64, 0
3, 23552, Control_c, 0, 64, 127
3, 23700, Note_on_c, 0, 59, 0
3, 23700, Note_on_c, 0, 52, 0
3, 23760, Note_on_c, 0, 47, 43
3, 23760, Control_c, 0, 64, 0
3, 23760, Note_on_c, 0, 59, 51
3, 23795, Control_c, 0, 64, 127
3, 23940, Note_on_c, 0, 59, 0
3, 23940, Note_on_c, 0, 47, 0
3, 24000, Note_on_c, 0, 52, 45
3, 24000, Note_on_c, 0, 59, 54
3, 24009, Control_c, 0, 64, 0
3, 24032, Control_c, 0, 64, 127
3, 24180, Note_on_c, 0, 59, 0
3, 24180, Note_on_c, 0, 52, 0
3, 24240, Note_on_c, 0, 59, 56
3, 24240, Note_on_c, 0, 47, 47
3, 24250, Control_c, 0, 64, 0
3, 24293, Control_c, 0, 64, 127
3, 24420, Note_on_c, 0, 47, 0
3, 24420, Note_on_c, 0, 59, 0
3, 24480, Note_on_c, 0, 59, 56
3, 24480, Note_on_c, 0, 47, 47
3, 24490, Control_c, 0, 64, 0
3, 24533, Control_c, 0, 64, 127
3, 24660, Note_on_c, 0, 47, 0
3, 24660, Note_on_c, 0, 59, 0
3, 24720, Note_on_c, 0, 59, 47
3, 24720, Note_on_c, 0, 62, 57
3, 24720, Note_on_c, 0, 53, 47
3, 24730, Control_c, 0, 64, 0
3, 24773, Control_c, 0, 64, 127
3, 24900, Note_on_c, 0, 53, 0
3, 24900, Note_on_c, 0, 62, 0
3, 24900, Note_on_c, 0, 59, 0
3, 24960, Note_on_c, 0, 63, 58
3, 24960, Note_on_c, 0, 59, 49
3, 24960, Note_on_c, 0, 54, 49
3, 24970, Control_c, 0, 64, 0
3, 25013, Control_c, 0, 64, 127
3, 25140, Note_on_c, 0, 54, 0
3, 25140, Note_on_c, 0, 59, 0
3, 25140, Note_on_c, 0, 63, 0
3, 25200, Note_on_c, 0, 53, 50
3, 25200, Note_on_c, 0, 59, 50
3, 25200, Note_on_c, 0, 62, 59
3, 25210, Control_c, 0, 64, 0
3, 25253, Control_c, 0, 64, 127
3, 25380, Note_on_c, 0, 62, 0
3, 25380, Note_on_c, 0, 59, 0
3, 25380, Note_on_c, 0, 53, 0
3, 25440, Note_on_c, 0, 59, 51
3, 25440, Note_on_c, 0, 63, 61
3, 25440, Note_on_c, 0, 54, 51
3, 25450, Control_c, 0, 64, 0
3, 25493, Control_c, 0, 64, 127
3, 25620, Note_on_c, 0, 54, 0
3, 25620, Note_on_c, 0, 63, 0
3, 25620, Note_on_c, 0, 59, 0
3, 25680, Note_on_c, 0, 47, 62
3, 25680, Note_on_c, 0, 35, 52
3, 25690, Control_c, 0, 64, 0
3, 25733, Control_c, 0, 64, 127
3, 25860, Note_on_c, 0, 35, 0
3, 25860, Note_on_c, 0, 47, 0
3, 25920, Note_on_c, 0, 34, 56
3, 25920, Note_on_c, 0, 46, 66
3, 25931, Control_c, 0, 64, 0
3, 25955, Control_c, 0, 64, 127
3, 26160, Note_on_c, 0, 46, 0
3, 26160, Note_on_c, 0, 34, 0
3, 26160, Note_on_c, 0, 54, 49
3, 26160, Note_on_c, 0, 58, 49
3, 26160, Note_on_c, 0, 63, 58
3, 26180, Control_c, 0, 64, 0
3, 26197, Control_c, 0, 64, 127
3, 26340, Note_on_c, 0, 63, 0
3, 26340, Note_on_c, 0, 58, 0
3, 26340, Note_on_c, 0, 54, 0
3, 26400, Note_on_c, 0, 63, 44
3, 26400, Note_on_c, 0, 66, 52
3, 26400, Note_on_c, 0, 58, 44
3, 26414, Control_c, 0, 64, 0
3, 26426, Control_c, 0, 64, 127
3, 26580, Note_on_c, 0, 58, 0
3, 26580, Note_on_c, 0, 66, 0
3, 26580, Note_on_c, 0, 63, 0
3, 26640, Note_on_c, 0, 46, 56
3, 26640, Note_on_c, 0, 58, 66
3, 26651, Control_c, 0, 64, 0
3, 26675, Control_c, 0, 64, 127
3, 26880, Note_on_c, 0, 58, 0
3, 26880, Note_on_c, 0, 46, 0
3, 26880, Note_on_c, 0, 53, 49
3, 26880, Note_on_c, 0, 62, 58
3, 26900, Control_c, 0, 64, 0
3, 26917, Control_c, 0, 64, 127
3, 27060, Note_on_c, 0, 62, 0
3, 27060, Note_on_c, 0, 53, 0
3, 27120, Note_on_c, 0, 58, 44
3, 27120, Note_on_c, 0, 68, 52
3, 27120, Note_on_c, 0, 65, 44
3, 27134, Control_c, 0, 64, 0
3, 27146, Control_c, 0, 64, 127
3, 27300, Note_on_c, 0, 65, 0
3, 27300, Note_on_c, 0, 68, 0
3, 27300, Note_on_c, 0, 58, 0
3, 27360, Note_on_c, 0, 39, 50
3, 27360, Note_on_c, 0, 51, 59
3, 27371, Control_c, 0, 64, 0
3, 27395, Control_c, 0, 64, 127
3, 27480, Note_on_c, 0, 51, 0
3, 27480, Note_on_c, 0, 39, 0
3, 27600, Note_on_c, 0, 51, 44
3, 27600, Note_on_c, 0, 58, 52
3, 27620, Control_c, 0, 64, 0
3, 27637, Control_c, 0, 64, 127
3, 27840, Note_on_c, 0, 58, 0
3, 27840, Note_on_c, 0, 62, 44
3, 27854, Control_c, 0, 64, 0
3, 27866, Control_c, 0, 64, 127
3, 28080, Note_on_c, 0, 62, 0
3, 28080, Note_on_c, 0, 63, 55
3, 28091, Control_c, 0, 64, 0
3, 28115, Control_c, 0, 64, 127
3, 28200, Note_on_c, 0, 63, 0
3, 28200, Note_on_c, 0, 51, 0
3, 28320, Note_on_c, 0, 39, 40
3, 28320, Note_on_c, 0, 51, 47
3, 28340, Control_c, 0, 64, 0
3, 28357, Control_c, 0, 64, 127
3, 28500, Note_on_c, 0, 51, 0
3, 28500, Note_on_c, 0, 39, 0
3, 28560, Note_on_c, 0, 51, 38
3, 28560, Note_on_c, 0, 61, 40
3, 28574, Control_c, 0, 64, 0
3, 28586, Control_c, 0, 64, 127
3, 28740, Note_on_c, 0, 61, 0
3, 28758, Control_c, 0, 64, 0
3, 28800, Note_on_c, 0, 51, 0
3, 28800, Note_on_c, 0, 56, 54
3, 28800, Note_on_c, 0, 44, 45
3, 28800, Note_on_c, 0, 51, 45
3, 28803, Control_c, 0, 64, 127
3, 28909, Control_c, 0, 64, 0
3, 28980, Note_on_c, 0, 51, 0
3, 28980, Note_on_c, 0, 44, 0
3, 28980, Note_on_c, 0, 56, 0
3, 29040, Note_on_c, 0, 32, 41
3, 29040, Note_on_c, 0, 44, 49
3, 29054, Control_c, 0, 64, 127
3, 29100, Note_on_c, 0, 44, 0
3, 29100, Note_on_c, 0, 32, 0
3, 29154, Control_c, 0, 64, 0
3, 29280, Note_on_c, 0, 39, 41
3, 29280, Note_on_c, 0, 51, 49
3, 29303, Control_c, 0, 64, 127
3, 29340, Note_on_c, 0, 51, 0
3, 29340, Note_on_c, 0, 39, 0
3, 29429, Control_c, 0, 64, 0
3, 29520, Note_on_c, 0, 56, 59
3, 29520, Note_on_c, 0, 44, 49
3, 29520, Note_on_c, 0, 51, 49
3, 29537, Control_c, 0, 64, 127
3, 29666, Control_c, 0, 64, 0
3, 29700, Note_on_c, 0, 51, 0
3, 29700, Note_on_c, 0, 44, 0
3, 29700, Note_on_c, 0, 56, 0
3, 29760, Note_on_c, 0, 32, 41
3, 29760, Note_on_c, 0, 44, 49
3, 29800, Control_c, 0, 64, 127
3, 29820, Note_on_c, 0, 44, 0
3, 29820, Note_on_c, 0, 32, 0
3, 29894, Control_c, 0, 64, 0
3, 30000, Note_on_c, 0, 51, 49
3, 30000, Note_on_c, 0, 39, 41
3, 30037, Control_c, 0, 64, 127
3, 30060, Note_on_c, 0, 39, 0
3, 30060, Note_on_c, 0, 51, 0
3, 30146, Control_c, 0, 64, 0
3, 30240, Note_on_c, 0, 51, 49
3, 30240, Note_on_c, 0, 56, 49
3, 30240, Note_on_c, 0, 59, 59
3, 30277, Control_c, 0, 64, 127
3, 30377, Control_c, 0, 64, 0
3, 30420, Note_on_c, 0, 59, 0
3, 30420, Note_on_c, 0, 56, 0
3, 30420, Note_on_c, 0, 51, 0
3, 30480, Note_on_c, 0, 32, 43
3, 30480, Note_on_c, 0, 44, 51
3, 30509, Control_c, 0, 64, 127
3, 30540, Note_on_c, 0, 44, 0
3, 30540, Note_on_c, 0, 32, 0
3, 30603, Control_c, 0, 64, 0
3, 30720, Note_on_c, 0, 51, 52
3, 30720, Note_on_c, 0, 39, 44
3, 30754, Control_c, 0, 64, 127
3, 30780, Note_on_c, 0, 39, 0
3, 30780, Note_on_c, 0, 51, 0
3, 30840, Control_c, 0, 64, 0
3, 30960, Note_on_c, 0, 51, 53
3, 30960, Note_on_c, 0, 56, 53
3, 30960, Note_on_c, 0, 59, 63
3, 30980, Control_c, 0, 64, 127
3, 31097, Control_c, 0, 64, 0
3, 31140, Note_on_c, 0, 59, 0
3, 31140, Note_on_c, 0, 56, 0
3, 31140, Note_on_c, 0, 51, 0
3, 31200, Note_on_c, 0, 32, 45
3, 31200, Note_on_c, 0, 44, 54
3, 31229, Control_c, 0, 64, 127
3, 31260, Note_on_c, 0, 44, 0
3, 31260, Note_on_c, 0, 32, 0
3, 31383, Control_c, 0, 64, 0
3, 31440, Note_on_c, 0, 39, 46
3, 31440, Note_on_c, 0, 51, 55
3, 31463, Control_c, 0, 64, 127
3, 31500, Note_on_c, 0, 51, 0
3, 31500, Note_on_c, 0, 39, 0
3, 31586, Control_c, 0, 64, 0
3, 31680, Note_on_c, 0, 51, 47
3, 31680, Note_on_c, 0, 58, 56
3, 31705, Control_c, 0, 64, 127
3, 31740, Note_on_c, 0, 58, 0
3, 31740, Note_on_c, 0, 51, 0
3, 31920, Note_on_c, 0, 51, 57
3, 31920, Control_c, 0, 64, 0
3, 31920, Note_on_c, 0, 43, 48
3, 31955, Control_c, 0, 64, 127
3, 31980, Note_on_c, 0, 43, 0
3, 31980, Note_on_c, 0, 51, 0
3, 32160, Note_on_c, 0, 51, 50
3, 32160, Note_on_c, 0, 58, 59
3, 32166, Control_c, 0, 64, 0
3, 32199, Control_c, 0, 64, 127
3, 32220, Note_on_c, 0, 58, 0
3, 32220, Note_on_c, 0, 51, 0
3, 32400, Note_on_c, 0, 51, 56
3, 32400, Control_c, 0, 64, 0
3, 32400, Note_on_c, 0, 44, 47
3, 32435, Control_c, 0, 64, 127
3, 32460, Note_on_c, 0, 44, 0
3, 32460, Note_on_c, 0, 51, 0
3, 32622, Control_c, 0, 64, 0
3, 32640, Note_on_c, 0, 51, 48
3, 32640, Note_on_c, 0, 59, 57
3, 32665, Control_c, 0, 64, 127
3, 32700, Note_on_c, 0, 59, 0
3, 32700, Note_on_c, 0, 51, 0
3, 32880, Note_on_c, 0, 44, 50
3, 32880, Control_c, 0, 64, 0
3, 32880, Note_on_c, 0, 51, 59
3, 32926, Control_c, 0, 64, 127
3, 32940, Note_on_c, 0, 51, 0
3, 32940, Note_on_c, 0, 44, 0
3, 33081, Control_c, 0, 64, 0
3, 33120, Note_on_c, 0, 49, 50
3, 33120, Note_on_c, 0, 56, 60
3, 33162, Control_c, 0, 64, 127
3, 33180, Note_on_c, 0, 56, 0
3, 33180, Note_on_c, 0, 49, 0
3, 33346, Control_c, 0, 64, 0
3, 33360, Note_on_c, 0, 37, 49
3, 33360, Note_on_c, 0, 49, 58
3, 33388, Control_c, 0, 64, 127
3, 33420, Note_on_c, 0, 49, 0
3, 33420, Note_on_c, 0, 37, 0
3, 33582, Control_c, 0, 64, 0
3, 33600, Note_on_c, 0, 56, 56
3, 33600, Note_on_c, 0, 49, 47
3, 33628, Control_c, 0, 64, 127
3, 33660, Note_on_c, 0, 49, 0
3, 33660, Note_on_c, 0, 56, 0
3, 33840, Control_c, 0, 64, 0
3, 33840, Note_on_c, 0, 51, 45
3, 33840, Note_on_c, 0, 55, 54
3, 33880, Control_c, 0, 64, 127
3, 33900, Note_on_c, 0, 55, 0
3, 33900, Note_on_c, 0, 51, 0
3, 34074, Control_c, 0, 64, 0
3, 34080, Note_on_c, 0, 51, 54
3, 34080, Note_on_c, 0, 39, 45
3, 34137, Control_c, 0, 64, 127
3, 34140, Note_on_c, 0, 39, 0
3, 34140, Note_on_c, 0, 51, 0
3, 34320, Note_on_c, 0, 51, 43
3, 34320, Note_on_c, 0, 55, 51
3, 34337, Control_c, 0, 64, 0
3, 34349, Control_c, 0, 64, 127
3, 34380, Note_on_c, 0, 55, 0
3, 34380, Note_on_c, 0, 51, 0
3, 34517, Control_c, 0, 64, 0
3, 34560, Note_on_c, 0, 44, 65
3, 34560, Note_on_c, 0, 51, 65
3, 34560, Note_on_c, 0, 56, 77
3, 34591, Control_c, 0, 64, 127
3, 34674, Control_c, 0, 64, 0
3, 34740, Note_on_c, 0, 56, 0
3, 34740, Note_on_c, 0, 51, 0
3, 34740, Note_on_c, 0, 44, 0
3, 34800, Note_on_c, 0, 44, 95
3, 34800, Note_on_c, 0, 32, 80
3, 34814, Control_c, 0, 64, 127
3, 34920, Note_on_c, 0, 32, 0
3, 34920, Note_on_c, 0, 44, 0
3, 34934, Control_c, 0, 64, 0
3, 35040, Note_on_c, 0, 39, 49
3, 35040, Note_on_c, 0, 51, 59
3, 35063, Control_c, 0, 64, 127
3, 35100, Note_on_c, 0, 51, 0
3, 35100, Note_on_c, 0, 39, 0
3, 35151, Control_c, 0, 64, 0
3, 35280, Note_on_c, 0, 51, 65
3, 35280, Note_on_c, 0, 44, 65
3, 35280, Note_on_c, 0, 56, 77
3, 35297, Control_c, 0, 64, 127
3, 35391, Control_c, 0, 64, 0
3, 35460, Note_on_c, 0, 56, 0
3, 35460, Note_on_c, 0, 44, 0
3, 35460, Note_on_c, 0, 51, 0
3, 35520, Note_on_c, 0, 30, 79
3, 35520, Note_on_c, 0, 42, 95
3, 35560, Control_c, 0, 64, 127
3, 35640, Note_on_c, 0, 42, 0
3, 35640, Note_on_c, 0, 30, 0
3, 35680, Control_c, 0, 64, 0
3, 35760, Note_on_c, 0, 42, 49
3, 35760, Note_on_c, 0, 51, 59
3, 35797, Control_c, 0, 64, 127
3, 35820, Note_on_c, 0, 51, 0
3, 35820, Note_on_c, 0, 42, 0
3, 35917, Control_c, 0, 64, 0
3, 36000, Note_on_c, 0, 56, 78
3, 36000, Note_on_c, 0, 52, 65
3, 36037, Control_c, 0, 64, 127
3, 36143, Control_c, 0, 64, 0
3, 36180, Note_on_c, 0, 52, 0
3, 36180, Note_on_c, 0, 56, 0
3, 36240, Note_on_c, 0, 28, 77
3, 36240, Note_on_c, 0, 40, 92
3, 36269, Control_c, 0, 64, 127
3, 36360, Note_on_c, 0, 40, 0
3, 36360, Note_on_c, 0, 28, 0
3, 36386, Control_c, 0, 64, 0
3, 36480, Note_on_c, 0, 56, 62
3, 36480, Note_on_c, 0, 52, 52
3, 36514, Control_c, 0, 64, 127
3, 36540, Note_on_c, 0, 52, 0
3, 36540, Note_on_c, 0, 56, 0
3, 36631, Control_c, 0, 64, 0
3, 36720, Note_on_c, 0, 51, 65
3, 36720, Note_on_c, 0, 56, 65
3, 36720, Note_on_c, 0, 59, 77
3, 36740, Control_c, 0, 64, 127
3, 36860, Control_c, 0, 64, 0
3, 36900, Note_on_c, 0, 59, 0
3, 36900, Note_on_c, 0, 56, 0
3, 36900, Note_on_c, 0, 51, 0
3, 36960, Note_on_c, 0, 27, 78
3, 36960, Note_on_c, 0, 39, 94
3, 36989, Control_c, 0, 64, 127
3, 37080, Note_on_c, 0, 39, 0
3, 37080, Note_on_c, 0, 27, 0
3, 37114, Control_c, 0, 64, 0
3, 37200, Note_on_c, 0, 59, 68
3, 37200, Note_on_c, 0, 56, 57
3, 37200, Note_on_c, 0, 51, 57
3, 37223, Control_c, 0, 64, 127
3, 37260, Note_on_c, 0, 51, 0
3, 37260, Note_on_c, 0, 56, 0
3, 37260, Note_on_c, 0, 59, 0
3, 37354, Control_c, 0, 64, 0
3, 37440, Note_on_c, 0, 56, 66
3, 37440, Note_on_c, 0, 49, 66
3, 37440, Note_on_c, 0, 59, 80
3, 37465, Control_c, 0, 64, 127
3, 37500, Note_on_c, 0, 59, 0
3, 37500, Note_on_c, 0, 49, 0
3, 37500, Note_on_c, 0, 56, 0
3, 37673, Control_c, 0, 64, 0
3, 37715, Control_c, 0, 64, 127
3, 37920, Control_c, 0, 64, 0
3, 37959, Control_c, 0, 64, 127
3, 38160, Note_on_c, 0, 59, 80
3, 38160, Control_c, 0, 64, 0
3, 38160, Note_on_c, 0, 56, 66
3, 38160, Note_on_c, 0, 51, 66
3, 38199, Control_c, 0, 64, 127
3, 38220, Note_on_c, 0, 51, 0
3, 38220, Note_on_c, 0, 56, 0
3, 38220, Note_on_c, 0, 59, 0
3, 38393, Control_c, 0, 64, 0
3, 38435, Control_c, 0, 64, 127
3, 38640, Control_c, 0, 64, 0
3, 38679, Control_c, 0, 64, 127
3, 38880, Control_c, 0, 64, 0
3, 38880, Note_on_c, 0, 49, 66
3, 38880, Note_on_c, 0, 56, 66
3, 38880, Note_on_c, 0, 59, 80
3, 38919, Control_c, 0, 64, 127
3, 38940, Note_on_c, 0, 59, 0
3, 38940, Note_on_c, 0, 56, 0
3, 38940, Note_on_c, 0, 49, 0
3, 39113, Control_c, 0, 64, 0
3, 39155, Control_c, 0, 64, 127
3, 39360, Control_c, 0, 64, 0
3, 39399, Control_c, 0, 64, 127
3, 39600, Control_c, 0, 64, 0
3, 39600, Note_on_c, 0, 56, 66
3, 39600, Note_on_c, 0, 51, 66
3, 39600, Note_on_c, 0, 59, 80
3, 39639, Control_c, 0, 64, 127
3, 39660, Note_on_c, 0, 59, 0
3, 39660, Note_on_c, 0, 51, 0
3, 39660, Note_on_c, 0, 56, 0
3, 39833, Control_c, 0, 64, 0
3, 39875, Control_c, 0, 64, 127
3, 40080, Control_c, 0, 64, 0
3, 40119, Control_c, 0, 64, 127
3, 40320, Control_c, 0, 64, 0
3, 40320, Note_on_c, 0, 52, 61
3, 40320, Note_on_c, 0, 56, 72
3, 40359, Control_c, 0, 64, 127
3, 40380, Note_on_c, 0, 56, 0
3, 40380, Note_on_c, 0, 52, 0
3, 40553, Control_c, 0, 64, 0
3, 40595, Control_c, 0, 64, 127
3, 40800, Control_c, 0, 64, 0
3, 40839, Control_c, 0, 64, 127
3, 41040, Control_c, 0, 64, 0
3, 41079, Control_c, 0, 64, 127
3, 41273, Control_c, 0, 64, 0
3, 41315, Control_c, 0, 64, 127
3, 41520, Control_c, 0, 64, 0
3, 41559, Control_c, 0, 64, 127
3, 41760, Control_c, 0, 64, 0
3, 41799, Control_c, 0, 64, 127
3, 42480, Control_c, 0, 64, 0
3, 42515, Control_c, 0, 64, 127
3, 43144, Control_c, 0, 64, 0
3, 43200, Note_on_c, 0, 64, 76
3, 43207, Control_c, 0, 64, 127
3, 43320, Note_on_c, 0, 64, 0
3, 43320, Note_on_c, 0, 63, 64
3, 43341, Control_c, 0, 64, 0
3, 43380, Note_on_c, 0, 63, 0
3, 43440, Note_on_c, 0, 63, 66
3, 43461, Control_c, 0, 64, 127
3, 43560, Note_on_c, 0, 63, 0
3, 43560, Note_on_c, 0, 61, 59
3, 43595, Control_c, 0, 64, 0
3, 43620, Note_on_c, 0, 61, 0
3, 43680, Note_on_c, 0, 61, 63
3, 43712, Control_c, 0, 64, 127
3, 43800, Note_on_c, 0, 61, 0
3, 43800, Note_on_c, 0, 59, 58
3, 43860, Note_on_c, 0, 59, 0
3, 43860, Control_c, 0, 64, 0
3, 43920, Note_on_c, 0, 59, 66
3, 43927, Control_c, 0, 64, 127
3, 44040, Note_on_c, 0, 59, 0
3, 44040, Note_on_c, 0, 58, 57
3, 44061, Control_c, 0, 64, 0
3, 44100, Note_on_c, 0, 58, 0
3, 44160, Note_on_c, 0, 58, 60
3, 44181, Control_c, 0, 64, 127
3, 44280, Note_on_c, 0, 58, 0
3, 44280, Note_on_c, 0, 56, 53
3, 44315, Control_c, 0, 64, 0
3, 44340, Note_on_c, 0, 56, 0
3, 44400, Note_on_c, 0, 56, 59
3, 44432, Control_c, 0, 64, 127
3, 44520, Note_on_c, 0, 56, 0
3, 44520, Note_on_c, 0, 54, 51
3, 44580, Note_on_c, 0, 54, 0
3, 44580, Control_c, 0, 64, 0
3, 44640, Note_on_c, 0, 54, 59
3, 44647, Control_c, 0, 64, 127
3, 44760, Note_on_c, 0, 54, 0
3, 44760, Note_on_c, 0, 52, 51
3, 44781, Control_c, 0, 64, 0
3, 44820, Note_on_c, 0, 52, 0
3, 44880, Note_on_c, 0, 52, 53
3, 44901, Control_c, 0, 64, 127
3, 45000, Note_on_c, 0, 52, 0
3, 45000, Note_on_c, 0, 51, 46
3, 45035, Control_c, 0, 64, 0
3, 45060, Note_on_c, 0, 51, 0
3, 45120, Note_on_c, 0, 51, 51
3, 45152, Control_c, 0, 64, 127
3, 45240, Note_on_c, 0, 51, 0
3, 45240, Note_on_c, 0, 49, 47
3, 45300, Note_on_c, 0, 49, 0
3, 45300, Control_c, 0, 64, 0
3, 45360, Note_on_c, 0, 51, 49
3, 45840, Note_on_c, 0, 39, 49
3, 46080, Note_on_c, 0, 39, 0
3, 46080, Note_on_c, 0, 44, 49
3, 46200, Note_on_c, 0, 44, 0
3, 46320, Note_on_c, 0, 51, 0
3, 46320, Note_on_c, 0, 37, 40
3, 46320, Note_on_c, 0, 49, 48
3, 46351, Control_c, 0, 64, 127
3, 46380, Note_on_c, 0, 49, 0
3, 46380, Note_on_c, 0, 37, 0
3, 46525, Control_c, 0, 64, 0
3, 46560, Note_on_c, 0, 39, 36
3, 46560, Note_on_c, 0, 51, 44
3, 46574, Control_c, 0, 64, 127
3, 46620, Note_on_c, 0, 51, 0
3, 46620, Note_on_c, 0, 39, 0
3, 46800, Note_on_c, 0, 56, 44
3, 46800, Control_c, 0, 64, 0
3, 46800, Note_on_c, 0, 44, 36
3, 46835, Control_c, 0, 64, 127
3, 46860, Note_on_c, 0, 44, 0
3, 46860, Note_on_c, 0, 56, 0
3, 46980, Control_c, 0, 64, 0
3, 47040, Note_on_c, 0, 37, 40
3, 47040, Note_on_c, 0, 49, 48
3, 47071, Control_c, 0, 64, 127
3, 47100, Note_on_c, 0, 49, 0
3, 47100, Note_on_c, 0, 37, 0
3, 47269, Control_c, 0, 64, 0
3, 47280, Note_on_c, 0, 51, 44
3, 47280, Note_on_c, 0, 39, 36
3, 47294, Control_c, 0, 64, 127
3, 47340, Note_on_c, 0, 39, 0
3, 47340, Note_on_c, 0, 51, 0
3, 47520, Control_c, 0, 64, 0
3, 47520, Note_on_c, 0, 40, 36
3, 47520, Note_on_c, 0, 52, 44
3, 47555, Control_c, 0, 64, 127
3, 47580, Note_on_c, 0, 52, 0
3, 47580, Note_on_c, 0, 40, 0
3, 47669, Control_c, 0, 64, 0
3, 47760, Note_on_c, 0, 35, 40
3, 47760, Note_on_c, 0, 47, 48
3, 47791, Control_c, 0, 64, 127
3, 47820, Note_on_c, 0, 47, 0
3, 47820, Note_on_c, 0, 35, 0
3, 47954, Control_c, 0, 64, 0
3, 48000, Note_on_c, 0, 37, 36
3, 48000, Note_on_c, 0, 49, 44
3, 48014, Control_c, 0, 64, 127
3, 48060, Note_on_c, 0, 49, 0
3, 48060, Note_on_c, 0, 37, 0
3, 48240, Control_c, 0, 64, 0
3, 48240, Note_on_c, 0, 39, 36
3, 48240, Note_on_c, 0, 51, 44
3, 48275, Control_c, 0, 64, 127
3, 48300, Note_on_c, 0, 51, 0
3, 48300, Note_on_c, 0, 39, 0
3, 48452, Control_c, 0, 64, 0
3, 48480, Note_on_c, 0, 51, 48
3, 48511, Control_c, 0, 64, 127
3, 48540, Note_on_c, 0, 51, 0
3, 48706, Control_c, 0, 64, 0
3, 48720, Note_on_c, 0, 39, 36
3, 48720, Note_on_c, 0, 51, 44
3, 48734, Control_c, 0, 64, 127
3, 48780, Note_on_c, 0, 51, 0
3, 48780, Note_on_c, 0, 39, 0
3, 48960, Note_on_c, 0, 51, 44
3, 48960, Control_c, 0, 64, 0
3, 48960, Note_on_c, 0, 44, 36
3, 48995, Control_c, 0, 64, 127
3, 49020, Note_on_c, 0, 44, 0
3, 49020, Note_on_c, 0, 51, 0
3, 49108, Control_c, 0, 64, 0
3, 49200, Note_on_c, 0, 37, 40
3, 49200, Note_on_c, 0, 49, 48
3, 49231, Control_c, 0, 64, 127
3, 49260, Note_on_c, 0, 49, 0
3, 49260, Note_on_c, 0, 37, 0
3, 49405, Control_c, 0, 64, 0
3, 49440, Note_on_c, 0, 51, 44
3, 49440, Note_on_c, 0, 39, 36
3, 49454, Control_c, 0, 64, 127
3, 49500, Note_on_c, 0, 39, 0
3, 49500, Note_on_c, 0, 51, 0
3, 49680, Control_c, 0, 64, 0
3, 49680, Note_on_c, 0, 44, 36
3, 49680, Note_on_c, 0, 56, 44
3, 49715, Control_c, 0, 64, 127
3, 49740, Note_on_c, 0, 56, 0
3, 49740, Note_on_c, 0, 44, 0
3, 49860, Control_c, 0, 64, 0
3, 49920, Note_on_c, 0, 37, 40
3, 49920, Note_on_c, 0, 49, 48
3, 49951, Control_c, 0, 64, 127
3, 49980, Note_on_c, 0, 49, 0
3, 49980, Note_on_c, 0, 37, 0
3, 50149, Control_c, 0, 64, 0
3, 50160, Note_on_c, 0, 39, 36
3, 50160, Note_on_c, 0, 51, 44
3, 50174, Control_c, 0, 64, 127
3, 50220, Note_on_c, 0, 51, 0
3, 50220, Note_on_c, 0, 39, 0
3, 50400, Control_c, 0, 64, 0
3, 50400, Note_on_c, 0, 40, 36
3, 50400, Note_on_c, 0, 52, 44
3, 50435, Control_c, 0, 64, 127
3, 50460, Note_on_c, 0, 52, 0
3, 50460, Note_on_c, 0, 40, 0
3, 50549, Control_c, 0, 64, 0
3, 50640, Note_on_c, 0, 45, 48
3, 50640, Note_on_c, 0, 33, 40
3, 50671, Control_c, 0, 64, 127
3, 50700, Note_on_c, 0, 33, 0
3, 50700, Note_on_c, 0, 45, 0
3, 50880, Control_c, 0, 64, 0
3, 50880, Note_on_c, 0, 35, 36
3, 50880, Note_on_c, 0, 47, 44
3, 50894, Control_c, 0, 64, 127
3, 50940, Note_on_c, 0, 47, 0
3, 50940, Note_on_c, 0, 35, 0
3, 51120, Note_on_c, 0, 49, 44
3, 51120, Control_c, 0, 64, 0
3, 51120, Note_on_c, 0, 37, 36
3, 51155, Control_c, 0, 64, 127
3, 51180, Note_on_c, 0, 37, 0
3, 51180, Note_on_c, 0, 49, 0
3, 51300, Control_c, 0, 64, 0
3, 51360, Note_on_c, 0, 39, 45
3, 51360, Note_on_c, 0, 51, 48
3, 51391, Control_c, 0, 64, 127
3, 51420, Note_on_c, 0, 51, 0
3, 51420, Note_on_c, 0, 39, 0
3, 51586, Control_c, 0, 64, 0
3, 51600, Note_on_c, 0, 27, 36
3, 51600, Note_on_c, 0, 39, 44
3, 51614, Control_c, 0, 64, 127
3, 51660, Note_on_c, 0, 39, 0
3, 51660, Note_on_c, 0, 27, 0
3, 51815, Control_c, 0, 64, 0
3, 51840, Note_on_c, 0, 32, 36
3, 51840, Note_on_c, 0, 44, 44
3, 51893, Control_c, 0, 64, 127
3, 51900, Note_on_c, 0, 44, 0
3, 51900, Note_on_c, 0, 32, 0
3, 52084, Control_c, 0, 64, 0
3, 52560, Control_c, 0, 64, 127
3, 52560, Note_on_c, 0, 39, 63
3, 52560, Note_on_c, 0, 51, 63
3, 52800, Note_on_c, 0, 59, 59
3, 52800, Control_c, 0, 64, 0
3, 52800, Note_on_c, 0, 56, 59
3, 52920, Note_on_c, 0, 56, 0
3, 52920, Note_on_c, 0, 59, 0
3, 52920, Note_on_c, 0, 55, 55
3, 52920, Note_on_c, 0, 58, 55
3, 53010, Note_on_c, 0, 58, 0
3, 53010, Note_on_c, 0, 55, 0
3, 53040, Note_on_c, 0, 55, 55
3, 53040, Note_on_c, 0, 58, 55
3, 53160, Note_on_c, 0, 58, 0
3, 53160, Note_on_c, 0, 55, 0
3, 53160, Note_on_c, 0, 58, 55
3, 53160, Note_on_c, 0, 61, 55
3, 53280, Note_on_c, 0, 61, 0
3, 53280, Note_on_c, 0, 58, 0
3, 53280, Note_on_c, 0, 59, 63
3, 53280, Note_on_c, 0, 56, 63
3, 53520, Note_on_c, 0, 56, 0
3, 53520, Note_on_c, 0, 59, 0
3, 53760, Note_on_c, 0, 51, 0
3, 53760, Note_on_c, 0, 39, 0
3, 54000, Note_on_c, 0, 39, 56
3, 54000, Note_on_c, 0, 51, 56
3, 54051, Control_c, 0, 64, 127
3, 54240, Note_on_c, 0, 59, 53
3, 54240, Control_c, 0, 64, 0
3, 54240, Note_on_c, 0, 56, 53
3, 54360, Note_on_c, 0, 56, 0
3, 54360, Note_on_c, 0, 59, 0
3, 54360, Note_on_c, 0, 55, 49
3, 54360, Note_on_c, 0, 58, 49
3, 54450, Note_on_c, 0, 58, 0
3, 54450, Note_on_c, 0, 55, 0
3, 54480, Note_on_c, 0, 55, 49
3, 54480, Note_on_c, 0, 58, 49
3, 54600, Note_on_c, 0, 58, 0
3, 54600, Note_on_c, 0, 55, 0
3, 54600, Note_on_c, 0, 58, 49
3, 54600, Note_on_c, 0, 61, 49
3, 54720, Note_on_c, 0, 61, 0
3, 54720, Note_on_c, 0, 58, 0
3, 54720, Note_on_c, 0, 59, 56
3, 54720, Note_on_c, 0, 56, 56
3, 54960, Note_on_c, 0, 56, 0
3, 54960, Note_on_c, 0, 59, 0
3, 55200, Note_on_c, 0, 51, 0
3, 55200, Note_on_c, 0, 39, 0
3, 55920, Note_on_c, 0, 27, 81
3, 55920, Note_on_c, 0, 39, 90
3, 55920, Note_on_c, 0, 51, 99
3, 55927, Control_c, 0, 64, 127
3, 56040, Note_on_c, 0, 51, 0
3, 56040, Note_on_c, 0, 39, 0
3, 56040, Note_on_c, 0, 27, 0
3, 56040, Control_c, 0, 64, 0
3, 56160, Note_on_c, 0, 44, 101
3, 56160, Note_on_c, 0, 32, 90
3, 56160, Note_on_c, 0, 56, 110
3, 56195, Control_c, 0, 64, 127
3, 56280, Note_on_c, 0, 56, 0
3, 56280, Note_on_c, 0, 32, 0
3, 56280, Note_on_c, 0, 44, 0
3, 56301, Control_c, 0, 64, 0
3, 56301, End_track
4, 0, Start_track
4, 0, MIDI_port, 0
4, 0, Title_t, "Chopin: Prelude No.12 in G# Minor, Op. 28"
4, 0, End_track
5, 0, Start_track
5, 0, MIDI_port, 0
5, 0, Title_t, "Copyright \251 2002 by Bernd Krueger"
5, 0, End_track
6, 0, Start_track
6, 0, MIDI_port, 0
6, 0, Title_t, "email: bernd.krueger@piano-midi.de"
6, 0, End_track
7, 0, Start_track
7, 0, MIDI_port, 0
7, 0, Title_t, "http://www.piano-midi.de"
7, 0, End_track
8, 0, Start_track
8, 0, MIDI_port, 0
8, 0, Title_t, "Edition: 27.09.02"
8, 0, End_track
9, 0, Start_track
9, 0, MIDI_port, 0
9, 0, End_track
10, 0, Start_track
10, 0, MIDI_port, 0
10, 0, End_track
0, 0, End_of_file