0, 0, Header, 1, 4, 1024
1, 0, Start_track
1, 0, Time_signature, 2, 2, 24, 8
1, 0, Key_signature, -6, "major"
1, 0, Tempo, 600000
1, 0, Tempo, 500000
1, 0, Tempo, 500000
1, 1131, Tempo, 504201
1, 1131, Tempo, 508474
1, 1643, Tempo, 517241
1, 1643, Tempo, 526315
1, 2048, Time_signature, 2, 2, 24, 8
1, 2048, Key_signature, -6, "major"
1, 2557, Tempo, 521739
1, 2557, Tempo, 517241
1, 2813, Tempo, 512820
1, 2813, Tempo, 508474
1, 3069, Tempo, 504201
1, 3069, Tempo, 500000
1, 3356, Tempo, 495867
1, 3356, Tempo, 491803
1, 3697, Tempo, 487804
1, 3697, Tempo, 483870
1, 4096, Time_signature, 2, 2, 24, 8
1, 4096, Key_signature, -6, "major"
1, 6144, Time_signature, 2, 2, 24, 8
1, 6144, Key_signature, -6, "major"
1, 8192, Time_signature, 2, 2, 24, 8
1, 8192, Key_signature, -6, "major"
1, 10240, Time_signature, 2, 2, 24, 8
1, 10240, Key_signature, -6, "major"
1, 12288, Time_signature, 2, 2, 24, 8
1, 12288, Key_signature, -6, "major"
1, 14336, Time_signature, 2, 2, 24, 8
1, 14336, Key_signature, -6, "major"
1, 16384, Time_signature, 2, 2, 24, 8
1, 16384, Key_signature, -6, "major"
1, 16452, Tempo, 491803
1, 16452, Tempo, 500000
1, 16580, Tempo, 508474
1, 16580, Tempo, 517241
1, 16708, Tempo, 526315
1, 16708, Tempo, 535714
1, 16836, Tempo, 545454
1, 16836, Tempo, 555555
1, 17621, Tempo, 500000
1, 17621, Tempo, 500000
1, 18314, Tempo, 495867
1, 18314, Tempo, 491803
1, 18432, Time_signature, 2, 2, 24, 8
1, 18432, Key_signature, -6, "major"
1, 18655, Tempo, 487804
1, 18655, Tempo, 483870
1, 20480, Time_signature, 2, 2, 24, 8
1, 20480, Key_signature, -6, "major"
1, 22528, Time_signature, 2, 2, 24, 8
1, 22528, Key_signature, -6, "major"
1, 24576, Time_signature, 2, 2, 24, 8
1, 24576, Key_signature, -6, "major"
1, 25056, Tempo, 491803
1, 25056, Tempo, 500000
1, 25184, Tempo, 508474
1, 25184, Tempo, 517241
1, 25312, Tempo, 526315
1, 25312, Tempo, 535714
1, 25440, Tempo, 545454
1, 25440, Tempo, 555555
1, 25518, Tempo, 500000
1, 25518, Tempo, 500000
1, 26506, Tempo, 495867
1, 26506, Tempo, 491803
1, 26624, Time_signature, 2, 2, 24, 8
1, 26624, Key_signature, -6, "major"
1, 26847, Tempo, 487804
1, 26847, Tempo, 483870
1, 28672, Time_signature, 2, 2, 24, 8
1, 28672, Key_signature, -6, "major"
1, 30720, Time_signature, 2, 2, 24, 8
1, 30720, Key_signature, -6, "major"
1, 32768, Time_signature, 2, 2, 24, 8
1, 32768, Key_signature, -6, "major"
1, 33387, Tempo, 491803
1, 33387, Tempo, 500000
1, 33515, Tempo, 508474
1, 33515, Tempo, 517241
1, 33643, Tempo, 526315
1, 33643, Tempo, 535714
1, 33771, Tempo, 545454
1, 33771, Tempo, 555555
1, 34112, Tempo, 500000
1, 34112, Tempo, 500000
1, 34816, Time_signature, 2, 2, 24, 8
1, 34816, Key_signature, -6, "major"
1, 35125, Tempo, 495867
1, 35125, Tempo, 491803
1, 35466, Tempo, 487804
1, 35466, Tempo, 483870
1, 36864, Time_signature, 2, 2, 24, 8
1, 36864, Key_signature, -6, "major"
1, 38912, Time_signature, 2, 2, 24, 8
1, 38912, Key_signature, -6, "major"
1, 40960, Time_signature, 2, 2, 24, 8
1, 40960, Key_signature, -6, "major"
1, 41845, Tempo, 491803
1, 41845, Tempo, 500000
1, 41973, Tempo, 508474
1, 41973, Tempo, 517241
1, 42101, Tempo, 526315
1, 42101, Tempo, 535714
1, 42229, Tempo, 545454
1, 42229, Tempo, 555555
1, 42261, Tempo, 500000
1, 42261, Tempo, 500000
1, 42890, Tempo, 495867
1, 42890, Tempo, 491803
1, 43008, Time_signature, 2, 2, 24, 8
1, 43008, Key_signature, -6, "major"
1, 43231, Tempo, 487804
1, 43231, Tempo, 483870
1, 45056, Time_signature, 2, 2, 24, 8
1, 45056, Key_signature, -6, "major"
1, 47104, Time_signature, 2, 2, 24, 8
1, 47104, Key_signature, -6, "major"
1, 49152, Time_signature, 2, 2, 24, 8
1, 49152, Key_signature, -6, "major"
1, 49895, Tempo, 491803
1, 49895, Tempo, 500000
1, 50023, Tempo, 508474
1, 50023, Tempo, 517241
1, 50151, Tempo, 526315
1, 50151, Tempo, 535714
1, 50279, Tempo, 545454
1, 50279, Tempo, 555555
1, 50283, Tempo, 500000
1, 50283, Tempo, 500000
1, 51136, Tempo, 495867
1, 51136, Tempo, 491803
1, 51200, Time_signature, 2, 2, 24, 8
1, 51200, Key_signature, -6, "major"
1, 51477, Tempo, 487804
1, 51477, Tempo, 483870
1, 53248, Time_signature, 2, 2, 24, 8
1, 53248, Key_signature, -6, "major"
1, 55296, Time_signature, 2, 2, 24, 8
1, 55296, Key_signature, -6, "major"
1, 57344, Time_signature, 2, 2, 24, 8
1, 57344, Key_signature, -6, "major"
1, 59392, Time_signature, 2, 2, 24, 8
1, 59392, Key_signature, -6, "major"
1, 61440, Time_signature, 2, 2, 24, 8
1, 61440, Key_signature, -6, "major"
1, 63488, Time_signature, 2, 2, 24, 8
1, 63488, Key_signature, -6, "major"
1, 63712, Tempo, 500000
1, 63712, Tempo, 500000
1, 64391, Tempo, 495867
1, 64391, Tempo, 491803
1, 64732, Tempo, 487804
1, 64732, Tempo, 483870
1, 65536, Time_signature, 2, 2, 24, 8
1, 65536, Key_signature, -6, "major"
1, 67584, Time_signature, 2, 2, 24, 8
1, 67584, Key_signature, -6, "major"
1, 69632, Time_signature, 2, 2, 24, 8
1, 69632, Key_signature, -6, "major"
1, 71680, Time_signature, 2, 2, 24, 8
1, 71680, Key_signature, -6, "major"
1, 73728, Time_signature, 2, 2, 24, 8
1, 73728, Key_signature, -6, "major"
1, 73792, Tempo, 487804
1, 73792, Tempo, 491803
1, 73856, Tempo, 495867
1, 73856, Tempo, 500000
1, 73920, Tempo, 504201
1, 73920, Tempo, 508474
1, 73984, Tempo, 512820
1, 73984, Tempo, 517241
1, 75776, Time_signature, 2, 2, 24, 8
1, 75776, Key_signature, -6, "major"
1, 77504, Tempo, 521739
1, 77504, Tempo, 526315
1, 77824, Time_signature, 2, 2, 24, 8
1, 77824, Key_signature, -6, "major"
1, 79872, Time_signature, 2, 2, 24, 8
1, 79872, Key_signature, -6, "major"
1, 81920, Time_signature, 2, 2, 24, 8
1, 81920, Key_signature, -6, "major"
1, 83968, Time_signature, 2, 2, 24, 8
1, 83968, Key_signature, -6, "major"
1, 85767, Tempo, 530973
1, 85767, Tempo, 535714
1, 86016, Time_signature, 2, 2, 24, 8
1, 86016, Key_signature, -6, "major"
1, 88064, Time_signature, 2, 2, 24, 8
1, 88064, Key_signature, -6, "major"
1, 90112, Time_signature, 2, 2, 24, 8
1, 90112, Key_signature, -6, "major"
1, 92160, Time_signature, 2, 2, 24, 8
1, 92160, Key_signature, -6, "major"
1, 94208, Time_signature, 2, 2, 24, 8
1, 94208, Key_signature, -6, "major"
1, 95072, Tempo, 540540
1, 95072, Tempo, 545454
1, 96256, Time_signature, 2, 2, 24, 8
1, 96256, Key_signature, -6, "major"
1, 98304, Time_signature, 2, 2, 24, 8
1, 98304, Key_signature, -6, "major"
1, 99157, Tempo, 550458
1, 99157, Tempo, 555555
1, 100352, Time_signature, 2, 2, 24, 8
1, 100352, Key_signature, -6, "major"
1, 102400, Time_signature, 2, 2, 24, 8
1, 102400, Key_signature, -6, "major"
1, 103243, Tempo, 566037
1, 103243, Tempo, 576923
1, 103307, Tempo, 588235
1, 103307, Tempo, 600000
1, 103371, Tempo, 612244
1, 103371, Tempo, 625000
1, 103435, Tempo, 638297
1, 103435, Tempo, 652173
1, 104448, Time_signature, 2, 2, 24, 8
1, 104448, Key_signature, -6, "major"
1, 104858, End_track
2, 0, Start_track
2, 0, Title_t, "Grand Piano"
2, 0, Program_c, 0, 0
2, 104858, End_track
3, 0, Start_track
3, 0, Title_t, "Ken's Stuff"
3, 0, Program_c, 0, 0
3, 2048, Note_on_c, 0, 70, 76
3, 2304, Note_on_c, 0, 78, 52
3, 2304, Note_on_c, 0, 82, 57
3, 2560, Note_off_c, 0, 70, 0
3, 2560, Note_off_c, 0, 78, 0
3, 2560, Note_off_c, 0, 82, 0
3, 2560, Note_on_c, 0, 71, 57
3, 2560, Note_on_c, 0, 83, 59
3, 2619, Note_off_c, 0, 71, 0
3, 2675, Note_off_c, 0, 83, 0
3, 2816, Note_on_c, 0, 72, 56
3, 2816, Note_on_c, 0, 84, 58
3, 2875, Note_off_c, 0, 72, 0
3, 2931, Note_off_c, 0, 84, 0
3, 3072, Note_on_c, 0, 73, 64
3, 3328, Note_on_c, 0, 80, 48
3, 3328, Note_on_c, 0, 85, 53
3, 3584, Note_off_c, 0, 73, 0
3, 3584, Note_off_c, 0, 80, 0
3, 3584, Note_off_c, 0, 85, 0
3, 3584, Note_on_c, 0, 75, 54
3, 3584, Note_on_c, 0, 87, 56
3, 3643, Note_off_c, 0, 75, 0
3, 3699, Note_off_c, 0, 87, 0
3, 3840, Note_on_c, 0, 73, 51
3, 3840, Note_on_c, 0, 85, 53
3, 3899, Note_off_c, 0, 73, 0
3, 3955, Note_off_c, 0, 85, 0
3, 4096, Note_on_c, 0, 66, 61
3, 4352, Note_on_c, 0, 75, 46
3, 4352, Note_on_c, 0, 78, 51
3, 4608, Note_off_c, 0, 66, 0
3, 4608, Note_off_c, 0, 75, 0
3, 4608, Note_off_c, 0, 78, 0
3, 4608, Note_on_c, 0, 68, 47
3, 4608, Note_on_c, 0, 80, 52
3, 4667, Note_off_c, 0, 68, 0
3, 4723, Note_off_c, 0, 80, 0
3, 4864, Note_on_c, 0, 69, 48
3, 4864, Note_on_c, 0, 81, 53
3, 4923, Note_off_c, 0, 69, 0
3, 4979, Note_off_c, 0, 81, 0
3, 5120, Note_on_c, 0, 70, 62
3, 5376, Note_on_c, 0, 77, 46
3, 5376, Note_on_c, 0, 82, 51
3, 5632, Note_off_c, 0, 70, 0
3, 5632, Note_off_c, 0, 77, 0
3, 5632, Note_off_c, 0, 82, 0
3, 5632, Note_on_c, 0, 71, 49
3, 5632, Note_on_c, 0, 83, 54
3, 5691, Note_off_c, 0, 71, 0
3, 5747, Note_off_c, 0, 83, 0
3, 5888, Note_on_c, 0, 70, 46
3, 5888, Note_on_c, 0, 82, 51
3, 5947, Note_off_c, 0, 70, 0
3, 6003, Note_off_c, 0, 82, 0
3, 6144, Note_on_c, 0, 63, 59
3, 6400, Note_on_c, 0, 71, 46
3, 6400, Note_on_c, 0, 75, 51
3, 6656, Note_off_c, 0, 63, 0
3, 6656, Note_off_c, 0, 71, 0
3, 6656, Note_off_c, 0, 75, 0
3, 6656, Note_on_c, 0, 64, 48
3, 6656, Note_on_c, 0, 76, 53
3, 6715, Note_off_c, 0, 64, 0
3, 6771, Note_off_c, 0, 76, 0
3, 6912, Note_on_c, 0, 65, 49
3, 6912, Note_on_c, 0, 77, 54
3, 6971, Note_off_c, 0, 65, 0
3, 7027, Note_off_c, 0, 77, 0
3, 7168, Note_on_c, 0, 66, 59
3, 7424, Note_on_c, 0, 73, 49
3, 7424, Note_on_c, 0, 78, 54
3, 7680, Note_off_c, 0, 66, 0
3, 7680, Note_off_c, 0, 73, 0
3, 7680, Note_off_c, 0, 78, 0
3, 7680, Note_on_c, 0, 65, 46
3, 7680, Note_on_c, 0, 77, 51
3, 7739, Note_off_c, 0, 65, 0
3, 7795, Note_off_c, 0, 77, 0
3, 7936, Note_on_c, 0, 66, 47
3, 7936, Note_on_c, 0, 78, 52
3, 7995, Note_off_c, 0, 66, 0
3, 8051, Note_off_c, 0, 78, 0
3, 8192, Note_on_c, 0, 68, 79
3, 8448, Note_on_c, 0, 75, 52
3, 8448, Note_on_c, 0, 80, 57
3, 8704, Note_off_c, 0, 68, 0
3, 8704, Note_off_c, 0, 75, 0
3, 8704, Note_off_c, 0, 80, 0
3, 8704, Note_on_c, 0, 70, 68
3, 8704, Note_on_c, 0, 82, 59
3, 8763, Note_off_c, 0, 70, 0
3, 8819, Note_off_c, 0, 82, 0
3, 8960, Note_on_c, 0, 68, 65
3, 8960, Note_on_c, 0, 80, 57
3, 9019, Note_off_c, 0, 68, 0
3, 9075, Note_off_c, 0, 80, 0
3, 9216, Note_on_c, 0, 68, 72
3, 9472, Note_on_c, 0, 77, 50
3, 9472, Note_on_c, 0, 80, 56
3, 9728, Note_off_c, 0, 68, 0
3, 9728, Note_off_c, 0, 77, 0
3, 9728, Note_off_c, 0, 80, 0
3, 9728, Note_on_c, 0, 70, 65
3, 9728, Note_on_c, 0, 82, 56
3, 9787, Note_off_c, 0, 70, 0
3, 9843, Note_off_c, 0, 82, 0
3, 9984, Note_on_c, 0, 71, 67
3, 9984, Note_on_c, 0, 83, 58
3, 10043, Note_off_c, 0, 71, 0
3, 10099, Note_off_c, 0, 83, 0
3, 10240, Note_on_c, 0, 78, 69
3, 10240, Note_on_c, 0, 82, 77
3, 10496, Note_off_c, 0, 78, 0
3, 10496, Note_on_c, 0, 70, 61
3, 10752, Note_off_c, 0, 70, 0
3, 10752, Note_off_c, 0, 82, 0
3, 10752, Note_on_c, 0, 71, 63
3, 10752, Note_on_c, 0, 83, 62
3, 10811, Note_off_c, 0, 71, 0
3, 10867, Note_off_c, 0, 83, 0
3, 11008, Note_on_c, 0, 72, 61
3, 11008, Note_on_c, 0, 84, 60
3, 11067, Note_off_c, 0, 72, 0
3, 11123, Note_off_c, 0, 84, 0
3, 11264, Note_on_c, 0, 73, 67
3, 11520, Note_on_c, 0, 80, 49
3, 11520, Note_on_c, 0, 85, 54
3, 11776, Note_off_c, 0, 73, 0
3, 11776, Note_off_c, 0, 80, 0
3, 11776, Note_off_c, 0, 85, 0
3, 11776, Note_on_c, 0, 75, 56
3, 11776, Note_on_c, 0, 87, 57
3, 11835, Note_off_c, 0, 75, 0
3, 11891, Note_off_c, 0, 87, 0
3, 12032, Note_on_c, 0, 73, 52
3, 12032, Note_on_c, 0, 85, 54
3, 12091, Note_off_c, 0, 73, 0
3, 12147, Note_off_c, 0, 85, 0
3, 12288, Note_on_c, 0, 75, 59
3, 12288, Note_on_c, 0, 78, 59
3, 12544, Note_off_c, 0, 75, 0
3, 12544, Note_on_c, 0, 66, 46
3, 12800, Note_off_c, 0, 66, 0
3, 12800, Note_off_c, 0, 78, 0
3, 12800, Note_on_c, 0, 68, 48
3, 12800, Note_on_c, 0, 80, 53
3, 12859, Note_off_c, 0, 68, 0
3, 12915, Note_off_c, 0, 80, 0
3, 13056, Note_on_c, 0, 69, 49
3, 13056, Note_on_c, 0, 81, 54
3, 13115, Note_off_c, 0, 69, 0
3, 13171, Note_off_c, 0, 81, 0
3, 13312, Note_on_c, 0, 70, 59
3, 13568, Note_on_c, 0, 77, 46
3, 13568, Note_on_c, 0, 82, 51
3, 13824, Note_off_c, 0, 70, 0
3, 13824, Note_off_c, 0, 77, 0
3, 13824, Note_off_c, 0, 82, 0
3, 13824, Note_on_c, 0, 71, 49
3, 13824, Note_on_c, 0, 83, 54
3, 13883, Note_off_c, 0, 71, 0
3, 13939, Note_off_c, 0, 83, 0
3, 14080, Note_on_c, 0, 70, 46
3, 14080, Note_on_c, 0, 82, 51
3, 14139, Note_off_c, 0, 70, 0
3, 14195, Note_off_c, 0, 82, 0
3, 14336, Note_on_c, 0, 71, 59
3, 14336, Note_on_c, 0, 75, 59
3, 14592, Note_off_c, 0, 71, 0
3, 14592, Note_on_c, 0, 63, 46
3, 14848, Note_off_c, 0, 63, 0
3, 14848, Note_off_c, 0, 75, 0
3, 14848, Note_on_c, 0, 64, 48
3, 14848, Note_on_c, 0, 76, 53
3, 14907, Note_off_c, 0, 64, 0
3, 14963, Note_off_c, 0, 76, 0
3, 15104, Note_on_c, 0, 65, 49
3, 15104, Note_on_c, 0, 77, 54
3, 15163, Note_off_c, 0, 65, 0
3, 15219, Note_off_c, 0, 77, 0
3, 15360, Note_on_c, 0, 66, 59
3, 15616, Note_on_c, 0, 73, 46
3, 15616, Note_on_c, 0, 78, 51
3, 15872, Note_off_c, 0, 66, 0
3, 15872, Note_off_c, 0, 73, 0
3, 15872, Note_off_c, 0, 78, 0
3, 15872, Note_on_c, 0, 65, 46
3, 15872, Note_on_c, 0, 77, 51
3, 15931, Note_off_c, 0, 65, 0
3, 15987, Note_off_c, 0, 77, 0
3, 16128, Note_on_c, 0, 66, 43
3, 16128, Note_on_c, 0, 78, 54
3, 16187, Note_off_c, 0, 66, 0
3, 16243, Note_off_c, 0, 78, 0
3, 16384, Note_on_c, 0, 68, 82
3, 16640, Note_on_c, 0, 78, 48
3, 16640, Note_on_c, 0, 80, 65
3, 16896, Note_off_c, 0, 68, 0
3, 16896, Note_off_c, 0, 78, 0
3, 16896, Note_off_c, 0, 80, 0
3, 16896, Note_on_c, 0, 70, 82
3, 16896, Note_on_c, 0, 77, 50
3, 16896, Note_on_c, 0, 82, 57
3, 17152, Note_off_c, 0, 70, 0
3, 17152, Note_off_c, 0, 77, 0
3, 17152, Note_off_c, 0, 82, 0
3, 17152, Note_on_c, 0, 68, 63
3, 17152, Note_on_c, 0, 80, 38
3, 17408, Note_off_c, 0, 68, 0
3, 17408, Note_off_c, 0, 80, 0
3, 17408, Note_on_c, 0, 66, 67
3, 17664, Note_on_c, 0, 73, 32
3, 17664, Note_on_c, 0, 78, 57
3, 17920, Note_off_c, 0, 66, 0
3, 17920, Note_off_c, 0, 73, 0
3, 17920, Note_off_c, 0, 78, 0
3, 17920, Note_on_c, 0, 65, 58
3, 17920, Note_on_c, 0, 77, 37
3, 17979, Note_off_c, 0, 65, 0
3, 18035, Note_off_c, 0, 77, 0
3, 18176, Note_on_c, 0, 66, 60
3, 18176, Note_on_c, 0, 78, 47
3, 18235, Note_off_c, 0, 66, 0
3, 18291, Note_off_c, 0, 78, 0
3, 18432, Note_on_c, 0, 68, 70
3, 18688, Note_on_c, 0, 77, 46
3, 18688, Note_on_c, 0, 80, 56
3, 18944, Note_off_c, 0, 68, 0
3, 18944, Note_off_c, 0, 77, 0
3, 18944, Note_off_c, 0, 80, 0
3, 18944, Note_on_c, 0, 70, 68
3, 18944, Note_on_c, 0, 82, 61
3, 19003, Note_off_c, 0, 70, 0
3, 19059, Note_off_c, 0, 82, 0
3, 19200, Note_on_c, 0, 68, 65
3, 19200, Note_on_c, 0, 80, 57
3, 19259, Note_off_c, 0, 68, 0
3, 19315, Note_off_c, 0, 80, 0
3, 19456, Note_on_c, 0, 68, 55
3, 19712, Note_on_c, 0, 78, 53
3, 19712, Note_on_c, 0, 80, 59
3, 19968, Note_off_c, 0, 68, 0
3, 19968, Note_off_c, 0, 78, 0
3, 19968, Note_off_c, 0, 80, 0
3, 19968, Note_on_c, 0, 72, 69
3, 19968, Note_on_c, 0, 84, 62
3, 20027, Note_off_c, 0, 72, 0
3, 20083, Note_off_c, 0, 84, 0
3, 20224, Note_on_c, 0, 73, 73
3, 20224, Note_on_c, 0, 85, 66
3, 20283, Note_off_c, 0, 73, 0
3, 20339, Note_off_c, 0, 85, 0
3, 20480, Note_on_c, 0, 75, 66
3, 20736, Note_on_c, 0, 80, 67
3, 20736, Note_on_c, 0, 87, 72
3, 20992, Note_off_c, 0, 75, 0
3, 20992, Note_off_c, 0, 80, 0
3, 20992, Note_off_c, 0, 87, 0
3, 20992, Note_on_c, 0, 74, 67
3, 20992, Note_on_c, 0, 86, 63
3, 21051, Note_off_c, 0, 74, 0
3, 21107, Note_off_c, 0, 86, 0
3, 21248, Note_on_c, 0, 75, 73
3, 21248, Note_on_c, 0, 87, 69
3, 21307, Note_off_c, 0, 75, 0
3, 21363, Note_off_c, 0, 87, 0
3, 21504, Note_on_c, 0, 76, 73
3, 21760, Note_on_c, 0, 82, 72
3, 21760, Note_on_c, 0, 88, 77
3, 22016, Note_off_c, 0, 76, 0
3, 22016, Note_off_c, 0, 82, 0
3, 22016, Note_off_c, 0, 88, 0
3, 22016, Note_on_c, 0, 77, 76
3, 22272, Note_on_c, 0, 82, 67
3, 22272, Note_on_c, 0, 89, 72
3, 22528, Note_off_c, 0, 77, 0
3, 22528, Note_off_c, 0, 82, 0
3, 22528, Note_off_c, 0, 89, 0
3, 22528, Note_on_c, 0, 75, 69
3, 22784, Note_on_c, 0, 82, 76
3, 22784, Note_on_c, 0, 87, 81
3, 23040, Note_off_c, 0, 75, 0
3, 23040, Note_off_c, 0, 82, 0
3, 23040, Note_off_c, 0, 87, 0
3, 23040, Note_on_c, 0, 73, 70
3, 23040, Note_on_c, 0, 85, 76
3, 23099, Note_off_c, 0, 73, 0
3, 23155, Note_off_c, 0, 85, 0
3, 23296, Note_on_c, 0, 70, 64
3, 23296, Note_on_c, 0, 82, 69
3, 23355, Note_off_c, 0, 70, 0
3, 23411, Note_off_c, 0, 82, 0
3, 23552, Note_on_c, 0, 68, 62
3, 23808, Note_on_c, 0, 73, 61
3, 23808, Note_on_c, 0, 80, 67
3, 24064, Note_off_c, 0, 68, 0
3, 24064, Note_off_c, 0, 73, 0
3, 24064, Note_off_c, 0, 80, 0
3, 24064, Note_on_c, 0, 67, 59
3, 24064, Note_on_c, 0, 79, 65
3, 24123, Note_off_c, 0, 67, 0
3, 24179, Note_off_c, 0, 79, 0
3, 24320, Note_on_c, 0, 68, 63
3, 24320, Note_on_c, 0, 80, 68
3, 24379, Note_off_c, 0, 68, 0
3, 24435, Note_off_c, 0, 80, 0
3, 24576, Note_on_c, 0, 70, 82
3, 24832, Note_on_c, 0, 72, 65
3, 24832, Note_on_c, 0, 82, 70
3, 25088, Note_off_c, 0, 70, 0
3, 25088, Note_off_c, 0, 72, 0
3, 25088, Note_off_c, 0, 82, 0
3, 25088, Note_on_c, 0, 68, 78
3, 25088, Note_on_c, 0, 80, 66
3, 25147, Note_off_c, 0, 68, 0
3, 25203, Note_off_c, 0, 80, 0
3, 25344, Note_on_c, 0, 66, 71
3, 25344, Note_on_c, 0, 78, 59
3, 25403, Note_off_c, 0, 66, 0
3, 25459, Note_off_c, 0, 78, 0
3, 25600, Note_on_c, 0, 64, 68
3, 25856, Note_on_c, 0, 73, 50
3, 25856, Note_on_c, 0, 76, 55
3, 26112, Note_off_c, 0, 64, 0
3, 26112, Note_off_c, 0, 73, 0
3, 26112, Note_off_c, 0, 76, 0
3, 26112, Note_on_c, 0, 65, 62
3, 26368, Note_on_c, 0, 73, 50
3, 26368, Note_on_c, 0, 77, 55
3, 26624, Note_off_c, 0, 65, 0
3, 26624, Note_off_c, 0, 73, 0
3, 26624, Note_off_c, 0, 77, 0
3, 26624, Note_on_c, 0, 73, 58
3, 26624, Note_on_c, 0, 77, 48
3, 26880, Note_off_c, 0, 73, 0
3, 26880, Note_on_c, 0, 65, 59
3, 27136, Note_off_c, 0, 65, 0
3, 27136, Note_off_c, 0, 77, 0
3, 27136, Note_on_c, 0, 66, 60
3, 27136, Note_on_c, 0, 78, 57
3, 27195, Note_off_c, 0, 66, 0
3, 27251, Note_off_c, 0, 78, 0
3, 27392, Note_on_c, 0, 67, 61
3, 27392, Note_on_c, 0, 79, 57
3, 27451, Note_off_c, 0, 67, 0
3, 27507, Note_off_c, 0, 79, 0
3, 27648, Note_on_c, 0, 68, 62
3, 27904, Note_on_c, 0, 75, 54
3, 27904, Note_on_c, 0, 80, 60
3, 28160, Note_off_c, 0, 68, 0
3, 28160, Note_off_c, 0, 75, 0
3, 28160, Note_off_c, 0, 80, 0
3, 28160, Note_on_c, 0, 70, 64
3, 28160, Note_on_c, 0, 82, 60
3, 28219, Note_off_c, 0, 70, 0
3, 28275, Note_off_c, 0, 82, 0
3, 28416, Note_on_c, 0, 72, 65
3, 28416, Note_on_c, 0, 84, 61
3, 28475, Note_off_c, 0, 72, 0
3, 28531, Note_off_c, 0, 84, 0
3, 28672, Note_on_c, 0, 79, 63
3, 28672, Note_on_c, 0, 85, 65
3, 28928, Note_off_c, 0, 79, 0
3, 28928, Note_on_c, 0, 73, 67
3, 29184, Note_off_c, 0, 73, 0
3, 29184, Note_off_c, 0, 85, 0
3, 29184, Note_on_c, 0, 75, 68
3, 29184, Note_on_c, 0, 87, 72
3, 29243, Note_off_c, 0, 75, 0
3, 29299, Note_off_c, 0, 87, 0
3, 29440, Note_on_c, 0, 76, 72
3, 29440, Note_on_c, 0, 88, 75
3, 29499, Note_off_c, 0, 76, 0
3, 29555, Note_off_c, 0, 88, 0
3, 29696, Note_on_c, 0, 76, 69
3, 29952, Note_on_c, 0, 80, 67
3, 29952, Note_on_c, 0, 88, 73
3, 30208, Note_off_c, 0, 76, 0
3, 30208, Note_off_c, 0, 80, 0
3, 30208, Note_off_c, 0, 88, 0
3, 30208, Note_on_c, 0, 77, 71
3, 30464, Note_on_c, 0, 80, 70
3, 30464, Note_on_c, 0, 89, 76
3, 30720, Note_off_c, 0, 77, 0
3, 30720, Note_off_c, 0, 80, 0
3, 30720, Note_off_c, 0, 89, 0
3, 30720, Note_on_c, 0, 78, 76
3, 30720, Note_on_c, 0, 87, 80
3, 30976, Note_off_c, 0, 78, 0
3, 30976, Note_on_c, 0, 75, 75
3, 31232, Note_off_c, 0, 75, 0
3, 31232, Note_off_c, 0, 87, 0
3, 31232, Note_on_c, 0, 73, 74
3, 31232, Note_on_c, 0, 85, 75
3, 31291, Note_off_c, 0, 73, 0
3, 31347, Note_off_c, 0, 85, 0
3, 31488, Note_on_c, 0, 70, 69
3, 31488, Note_on_c, 0, 82, 69
3, 31547, Note_off_c, 0, 70, 0
3, 31603, Note_off_c, 0, 82, 0
3, 31744, Note_on_c, 0, 68, 67
3, 32000, Note_on_c, 0, 73, 62
3, 32000, Note_on_c, 0, 80, 68
3, 32256, Note_off_c, 0, 68, 0
3, 32256, Note_off_c, 0, 73, 0
3, 32256, Note_off_c, 0, 80, 0
3, 32256, Note_on_c, 0, 67, 64
3, 32256, Note_on_c, 0, 79, 66
3, 32315, Note_off_c, 0, 67, 0
3, 32371, Note_off_c, 0, 79, 0
3, 32512, Note_on_c, 0, 68, 63
3, 32512, Note_on_c, 0, 80, 65
3, 32571, Note_off_c, 0, 68, 0
3, 32627, Note_off_c, 0, 80, 0
3, 32768, Note_on_c, 0, 72, 82
3, 33024, Note_on_c, 0, 78, 61
3, 33024, Note_on_c, 0, 84, 66
3, 33280, Note_off_c, 0, 72, 0
3, 33280, Note_off_c, 0, 78, 0
3, 33280, Note_off_c, 0, 84, 0
3, 33280, Note_on_c, 0, 70, 75
3, 33280, Note_on_c, 0, 82, 64
3, 33339, Note_off_c, 0, 70, 0
3, 33395, Note_off_c, 0, 82, 0
3, 33536, Note_on_c, 0, 68, 71
3, 33536, Note_on_c, 0, 80, 60
3, 33595, Note_off_c, 0, 68, 0
3, 33651, Note_off_c, 0, 80, 0
3, 33792, Note_on_c, 0, 73, 68
3, 34048, Note_on_c, 0, 77, 50
3, 34048, Note_on_c, 0, 85, 55
3, 34304, Note_off_c, 0, 73, 0
3, 34304, Note_off_c, 0, 77, 0
3, 34304, Note_off_c, 0, 85, 0
3, 34304, Note_on_c, 0, 72, 65
3, 34304, Note_on_c, 0, 84, 52
3, 34363, Note_off_c, 0, 72, 0
3, 34419, Note_off_c, 0, 84, 0
3, 34560, Note_on_c, 0, 73, 59
3, 34560, Note_on_c, 0, 85, 49
3, 34619, Note_off_c, 0, 73, 0
3, 34675, Note_off_c, 0, 85, 0
3, 34816, Note_on_c, 0, 73, 64
3, 35072, Note_on_c, 0, 82, 47
3, 35072, Note_on_c, 0, 85, 52
3, 35328, Note_off_c, 0, 73, 0
3, 35328, Note_off_c, 0, 82, 0
3, 35328, Note_off_c, 0, 85, 0
3, 35328, Note_on_c, 0, 76, 62
3, 35328, Note_on_c, 0, 88, 52
3, 35387, Note_off_c, 0, 76, 0
3, 35443, Note_off_c, 0, 88, 0
3, 35584, Note_on_c, 0, 75, 61
3, 35584, Note_on_c, 0, 87, 51
3, 35643, Note_off_c, 0, 75, 0
3, 35699, Note_off_c, 0, 87, 0
3, 35840, Note_on_c, 0, 73, 61
3, 36096, Note_on_c, 0, 80, 45
3, 36096, Note_on_c, 0, 85, 50
3, 36352, Note_off_c, 0, 73, 0
3, 36352, Note_off_c, 0, 80, 0
3, 36352, Note_off_c, 0, 85, 0
3, 36352, Note_on_c, 0, 71, 60
3, 36352, Note_on_c, 0, 83, 50
3, 36411, Note_off_c, 0, 71, 0
3, 36467, Note_off_c, 0, 83, 0
3, 36608, Note_on_c, 0, 70, 60
3, 36608, Note_on_c, 0, 82, 50
3, 36667, Note_off_c, 0, 70, 0
3, 36723, Note_off_c, 0, 82, 0
3, 36864, Note_on_c, 0, 71, 48
3, 37120, Note_on_c, 0, 77, 44
3, 37120, Note_on_c, 0, 83, 49
3, 37376, Note_off_c, 0, 71, 0
3, 37376, Note_off_c, 0, 77, 0
3, 37376, Note_off_c, 0, 83, 0
3, 37376, Note_on_c, 0, 74, 47
3, 37376, Note_on_c, 0, 86, 48
3, 37435, Note_off_c, 0, 74, 0
3, 37491, Note_off_c, 0, 86, 0
3, 37632, Note_on_c, 0, 73, 47
3, 37632, Note_on_c, 0, 85, 48
3, 37691, Note_off_c, 0, 73, 0
3, 37747, Note_off_c, 0, 85, 0
3, 37888, Note_on_c, 0, 71, 47
3, 38144, Note_on_c, 0, 78, 43
3, 38144, Note_on_c, 0, 83, 48
3, 38400, Note_off_c, 0, 71, 0
3, 38400, Note_off_c, 0, 78, 0
3, 38400, Note_off_c, 0, 83, 0
3, 38400, Note_on_c, 0, 69, 46
3, 38400, Note_on_c, 0, 81, 48
3, 38459, Note_off_c, 0, 69, 0
3, 38515, Note_off_c, 0, 81, 0
3, 38656, Note_on_c, 0, 68, 46
3, 38656, Note_on_c, 0, 80, 48
3, 38715, Note_off_c, 0, 68, 0
3, 38771, Note_off_c, 0, 80, 0
3, 38912, Note_on_c, 0, 66, 46
3, 39168, Note_on_c, 0, 75, 42
3, 39168, Note_on_c, 0, 78, 48
3, 39424, Note_off_c, 0, 66, 0
3, 39424, Note_off_c, 0, 75, 0
3, 39424, Note_off_c, 0, 78, 0
3, 39424, Note_on_c, 0, 69, 44
3, 39424, Note_on_c, 0, 81, 48
3, 39483, Note_off_c, 0, 69, 0
3, 39539, Note_off_c, 0, 81, 0
3, 39680, Note_on_c, 0, 68, 44
3, 39680, Note_on_c, 0, 80, 47
3, 39739, Note_off_c, 0, 68, 0
3, 39795, Note_off_c, 0, 80, 0
3, 39936, Note_on_c, 0, 68, 43
3, 40192, Note_on_c, 0, 75, 41
3, 40192, Note_on_c, 0, 80, 46
3, 40448, Note_off_c, 0, 68, 0
3, 40448, Note_off_c, 0, 75, 0
3, 40448, Note_off_c, 0, 80, 0
3, 40448, Note_on_c, 0, 67, 43
3, 40448, Note_on_c, 0, 79, 46
3, 40507, Note_off_c, 0, 67, 0
3, 40563, Note_off_c, 0, 79, 0
3, 40704, Note_on_c, 0, 66, 43
3, 40704, Note_on_c, 0, 78, 46
3, 40763, Note_off_c, 0, 66, 0
3, 40819, Note_off_c, 0, 78, 0
3, 40960, Note_on_c, 0, 65, 50
3, 41216, Note_on_c, 0, 73, 49
3, 41216, Note_on_c, 0, 77, 55
3, 41472, Note_off_c, 0, 65, 0
3, 41472, Note_off_c, 0, 73, 0
3, 41472, Note_off_c, 0, 77, 0
3, 41472, Note_on_c, 0, 66, 50
3, 41472, Note_on_c, 0, 78, 55
3, 41531, Note_off_c, 0, 66, 0
3, 41587, Note_off_c, 0, 78, 0
3, 41728, Note_on_c, 0, 67, 50
3, 41728, Note_on_c, 0, 79, 49
3, 41787, Note_off_c, 0, 67, 0
3, 41843, Note_off_c, 0, 79, 0
3, 41984, Note_on_c, 0, 68, 50
3, 42240, Note_on_c, 0, 73, 49
3, 42240, Note_on_c, 0, 80, 55
3, 42496, Note_off_c, 0, 68, 0
3, 42496, Note_off_c, 0, 73, 0
3, 42496, Note_off_c, 0, 80, 0
3, 42496, Note_on_c, 0, 73, 49
3, 42752, Note_on_c, 0, 80, 49
3, 42752, Note_on_c, 0, 85, 49
3, 43008, Note_off_c, 0, 73, 0
3, 43008, Note_off_c, 0, 80, 0
3, 43008, Note_off_c, 0, 85, 0
3, 43008, Note_on_c, 0, 94, 50
3, 43008, Note_on_c, 0, 97, 56
3, 43264, Note_off_c, 0, 94, 0
3, 43264, Note_on_c, 0, 85, 62
3, 43520, Note_off_c, 0, 85, 0
3, 43520, Note_off_c, 0, 97, 0
3, 43520, Note_on_c, 0, 88, 65
3, 43520, Note_on_c, 0, 100, 75
3, 43579, Note_off_c, 0, 88, 0
3, 43635, Note_off_c, 0, 100, 0
3, 43776, Note_on_c, 0, 87, 62
3, 43776, Note_on_c, 0, 99, 72
3, 43835, Note_off_c, 0, 87, 0
3, 43891, Note_off_c, 0, 99, 0
3, 44032, Note_on_c, 0, 92, 55
3, 44032, Note_on_c, 0, 97, 65
3, 44288, Note_off_c, 0, 92, 0
3, 44288, Note_on_c, 0, 85, 57
3, 44544, Note_off_c, 0, 85, 0
3, 44544, Note_off_c, 0, 97, 0
3, 44544, Note_on_c, 0, 83, 55
3, 44544, Note_on_c, 0, 95, 64
3, 44603, Note_off_c, 0, 83, 0
3, 44659, Note_off_c, 0, 95, 0
3, 44800, Note_on_c, 0, 82, 54
3, 44800, Note_on_c, 0, 94, 62
3, 44859, Note_off_c, 0, 82, 0
3, 44915, Note_off_c, 0, 94, 0
3, 45056, Note_on_c, 0, 89, 50
3, 45056, Note_on_c, 0, 95, 54
3, 45312, Note_off_c, 0, 89, 0
3, 45312, Note_on_c, 0, 83, 59
3, 45568, Note_off_c, 0, 83, 0
3, 45568, Note_off_c, 0, 95, 0
3, 45568, Note_on_c, 0, 86, 58
3, 45568, Note_on_c, 0, 98, 61
3, 45627, Note_off_c, 0, 86, 0
3, 45683, Note_off_c, 0, 98, 0
3, 45824, Note_on_c, 0, 85, 56
3, 45824, Note_on_c, 0, 97, 57
3, 45883, Note_off_c, 0, 85, 0
3, 45939, Note_off_c, 0, 97, 0
3, 46080, Note_on_c, 0, 90, 49
3, 46080, Note_on_c, 0, 95, 50
3, 46336, Note_off_c, 0, 90, 0
3, 46336, Note_on_c, 0, 83, 53
3, 46592, Note_off_c, 0, 83, 0
3, 46592, Note_off_c, 0, 95, 0
3, 46592, Note_on_c, 0, 81, 53
3, 46592, Note_on_c, 0, 93, 53
3, 46651, Note_off_c, 0, 81, 0
3, 46707, Note_off_c, 0, 93, 0
3, 46848, Note_on_c, 0, 80, 52
3, 46848, Note_on_c, 0, 92, 51
3, 46907, Note_off_c, 0, 80, 0
3, 46963, Note_off_c, 0, 92, 0
3, 47104, Note_on_c, 0, 87, 45
3, 47104, Note_on_c, 0, 90, 45
3, 47360, Note_off_c, 0, 87, 0
3, 47360, Note_on_c, 0, 78, 45
3, 47616, Note_off_c, 0, 78, 0
3, 47616, Note_off_c, 0, 90, 0
3, 47616, Note_on_c, 0, 81, 54
3, 47616, Note_on_c, 0, 93, 59
3, 47675, Note_off_c, 0, 81, 0
3, 47731, Note_off_c, 0, 93, 0
3, 47872, Note_on_c, 0, 80, 51
3, 47872, Note_on_c, 0, 92, 58
3, 47931, Note_off_c, 0, 80, 0
3, 47987, Note_off_c, 0, 92, 0
3, 48128, Note_on_c, 0, 80, 50
3, 48384, Note_on_c, 0, 87, 48
3, 48384, Note_on_c, 0, 92, 53
3, 48640, Note_off_c, 0, 80, 0
3, 48640, Note_off_c, 0, 87, 0
3, 48640, Note_off_c, 0, 92, 0
3, 48640, Note_on_c, 0, 79, 46
3, 48640, Note_on_c, 0, 91, 51
3, 48699, Note_off_c, 0, 79, 0
3, 48755, Note_off_c, 0, 91, 0
3, 48896, Note_on_c, 0, 78, 43
3, 48896, Note_on_c, 0, 90, 48
3, 48955, Note_off_c, 0, 78, 0
3, 49011, Note_off_c, 0, 90, 0
3, 49152, Note_on_c, 0, 78, 46
3, 49408, Note_on_c, 0, 83, 42
3, 49408, Note_on_c, 0, 90, 52
3, 49664, Note_off_c, 0, 78, 0
3, 49664, Note_off_c, 0, 83, 0
3, 49664, Note_off_c, 0, 90, 0
3, 49664, Note_on_c, 0, 77, 46
3, 49664, Note_on_c, 0, 89, 52
3, 49723, Note_off_c, 0, 77, 0
3, 49779, Note_off_c, 0, 89, 0
3, 49920, Note_on_c, 0, 75, 46
3, 49920, Note_on_c, 0, 87, 52
3, 49979, Note_off_c, 0, 75, 0
3, 50035, Note_off_c, 0, 87, 0
3, 50176, Note_on_c, 0, 74, 59
3, 50432, Note_on_c, 0, 80, 42
3, 50432, Note_on_c, 0, 86, 52
3, 50688, Note_off_c, 0, 74, 0
3, 50688, Note_off_c, 0, 80, 0
3, 50688, Note_off_c, 0, 86, 0
3, 50688, Note_on_c, 0, 70, 57
3, 50688, Note_on_c, 0, 82, 52
3, 50747, Note_off_c, 0, 70, 0
3, 50803, Note_off_c, 0, 82, 0
3, 50944, Note_on_c, 0, 68, 65
3, 50944, Note_on_c, 0, 80, 52
3, 51003, Note_off_c, 0, 68, 0
3, 51059, Note_off_c, 0, 80, 0
3, 51200, Note_on_c, 0, 70, 112
3, 51456, Note_on_c, 0, 78, 86
3, 51456, Note_on_c, 0, 82, 91
3, 51712, Note_off_c, 0, 70, 0
3, 51712, Note_off_c, 0, 78, 0
3, 51712, Note_off_c, 0, 82, 0
3, 51712, Note_on_c, 0, 71, 86
3, 51712, Note_on_c, 0, 83, 91
3, 51771, Note_off_c, 0, 71, 0
3, 51827, Note_off_c, 0, 83, 0
3, 51968, Note_on_c, 0, 72, 86
3, 51968, Note_on_c, 0, 84, 91
3, 52027, Note_off_c, 0, 72, 0
3, 52083, Note_off_c, 0, 84, 0
3, 52224, Note_on_c, 0, 73, 112
3, 52480, Note_on_c, 0, 80, 86
3, 52480, Note_on_c, 0, 85, 91
3, 52736, Note_off_c, 0, 73, 0
3, 52736, Note_off_c, 0, 80, 0
3, 52736, Note_off_c, 0, 85, 0
3, 52736, Note_on_c, 0, 75, 86
3, 52736, Note_on_c, 0, 87, 91
3, 52795, Note_off_c, 0, 75, 0
3, 52851, Note_off_c, 0, 87, 0
3, 52992, Note_on_c, 0, 73, 86
3, 52992, Note_on_c, 0, 85, 91
3, 53051, Note_off_c, 0, 73, 0
3, 53107, Note_off_c, 0, 85, 0
3, 53248, Note_on_c, 0, 66, 86
3, 53504, Note_on_c, 0, 75, 86
3, 53504, Note_on_c, 0, 78, 91
3, 53760, Note_off_c, 0, 66, 0
3, 53760, Note_off_c, 0, 75, 0
3, 53760, Note_off_c, 0, 78, 0
3, 53760, Note_on_c, 0, 68, 86
3, 53760, Note_on_c, 0, 80, 91
3, 53819, Note_off_c, 0, 68, 0
3, 53875, Note_off_c, 0, 80, 0
3, 54016, Note_on_c, 0, 69, 86
3, 54016, Note_on_c, 0, 81, 91
3, 54075, Note_off_c, 0, 69, 0
3, 54131, Note_off_c, 0, 81, 0
3, 54272, Note_on_c, 0, 70, 86
3, 54528, Note_on_c, 0, 77, 86
3, 54528, Note_on_c, 0, 82, 91
3, 54784, Note_off_c, 0, 70, 0
3, 54784, Note_off_c, 0, 77, 0
3, 54784, Note_off_c, 0, 82, 0
3, 54784, Note_on_c, 0, 71, 86
3, 54784, Note_on_c, 0, 83, 91
3, 54843, Note_off_c, 0, 71, 0
3, 54899, Note_off_c, 0, 83, 0
3, 55040, Note_on_c, 0, 70, 86
3, 55040, Note_on_c, 0, 82, 90
3, 55099, Note_off_c, 0, 70, 0
3, 55155, Note_off_c, 0, 82, 0
3, 55296, Note_on_c, 0, 63, 86
3, 55552, Note_on_c, 0, 71, 86
3, 55552, Note_on_c, 0, 75, 90
3, 55808, Note_off_c, 0, 63, 0
3, 55808, Note_off_c, 0, 71, 0
3, 55808, Note_off_c, 0, 75, 0
3, 55808, Note_on_c, 0, 64, 86
3, 55808, Note_on_c, 0, 76, 90
3, 55867, Note_off_c, 0, 64, 0
3, 55923, Note_off_c, 0, 76, 0
3, 56064, Note_on_c, 0, 65, 86
3, 56064, Note_on_c, 0, 77, 90
3, 56123, Note_off_c, 0, 65, 0
3, 56179, Note_off_c, 0, 77, 0
3, 56320, Note_on_c, 0, 66, 86
3, 56576, Note_on_c, 0, 73, 86
3, 56576, Note_on_c, 0, 78, 90
3, 56832, Note_off_c, 0, 66, 0
3, 56832, Note_off_c, 0, 73, 0
3, 56832, Note_off_c, 0, 78, 0
3, 56832, Note_on_c, 0, 65, 86
3, 56832, Note_on_c, 0, 77, 90
3, 56891, Note_off_c, 0, 65, 0
3, 56947, Note_off_c, 0, 77, 0
3, 57088, Note_on_c, 0, 66, 86
3, 57088, Note_on_c, 0, 78, 90
3, 57147, Note_off_c, 0, 66, 0
3, 57203, Note_off_c, 0, 78, 0
3, 57344, Note_on_c, 0, 68, 86
3, 57600, Note_on_c, 0, 78, 86
3, 57600, Note_on_c, 0, 80, 90
3, 57856, Note_off_c, 0, 68, 0
3, 57856, Note_off_c, 0, 78, 0
3, 57856, Note_off_c, 0, 80, 0
3, 57856, Note_on_c, 0, 70, 86
3, 57856, Note_on_c, 0, 82, 90
3, 57915, Note_off_c, 0, 70, 0
3, 57971, Note_off_c, 0, 82, 0
3, 58112, Note_on_c, 0, 68, 86
3, 58112, Note_on_c, 0, 80, 90
3, 58171, Note_off_c, 0, 68, 0
3, 58227, Note_off_c, 0, 80, 0
3, 58368, Note_on_c, 0, 68, 86
3, 58624, Note_on_c, 0, 77, 86
3, 58624, Note_on_c, 0, 80, 90
3, 58880, Note_off_c, 0, 68, 0
3, 58880, Note_off_c, 0, 77, 0
3, 58880, Note_off_c, 0, 80, 0
3, 58880, Note_on_c, 0, 70, 86
3, 58880, Note_on_c, 0, 82, 90
3, 58939, Note_off_c, 0, 70, 0
3, 58995, Note_off_c, 0, 82, 0
3, 59136, Note_on_c, 0, 71, 86
3, 59136, Note_on_c, 0, 83, 90
3, 59195, Note_off_c, 0, 71, 0
3, 59251, Note_off_c, 0, 83, 0
3, 59392, Note_on_c, 0, 70, 86
3, 59648, Note_on_c, 0, 78, 86
3, 59648, Note_on_c, 0, 82, 90
3, 59904, Note_off_c, 0, 70, 0
3, 59904, Note_off_c, 0, 78, 0
3, 59904, Note_off_c, 0, 82, 0
3, 59904, Note_on_c, 0, 71, 86
3, 59904, Note_on_c, 0, 83, 90
3, 59963, Note_off_c, 0, 71, 0
3, 60019, Note_off_c, 0, 83, 0
3, 60160, Note_on_c, 0, 72, 86
3, 60160, Note_on_c, 0, 84, 90
3, 60219, Note_off_c, 0, 72, 0
3, 60275, Note_off_c, 0, 84, 0
3, 60416, Note_on_c, 0, 73, 86
3, 60672, Note_on_c, 0, 80, 86
3, 60672, Note_on_c, 0, 85, 90
3, 60928, Note_off_c, 0, 73, 0
3, 60928, Note_off_c, 0, 80, 0
3, 60928, Note_off_c, 0, 85, 0
3, 60928, Note_on_c, 0, 75, 85
3, 60928, Note_on_c, 0, 87, 89
3, 60987, Note_off_c, 0, 75, 0
3, 61043, Note_off_c, 0, 87, 0
3, 61184, Note_on_c, 0, 73, 85
3, 61184, Note_on_c, 0, 85, 89
3, 61243, Note_off_c, 0, 73, 0
3, 61299, Note_off_c, 0, 85, 0
3, 61440, Note_on_c, 0, 71, 85
3, 61696, Note_on_c, 0, 80, 86
3, 61696, Note_on_c, 0, 83, 90
3, 61952, Note_off_c, 0, 71, 0
3, 61952, Note_off_c, 0, 80, 0
3, 61952, Note_off_c, 0, 83, 0
3, 61952, Note_on_c, 0, 73, 86
3, 61952, Note_on_c, 0, 85, 90
3, 62011, Note_off_c, 0, 73, 0
3, 62067, Note_off_c, 0, 85, 0
3, 62208, Note_on_c, 0, 74, 87
3, 62208, Note_on_c, 0, 86, 91
3, 62267, Note_off_c, 0, 74, 0
3, 62323, Note_off_c, 0, 86, 0
3, 62464, Note_on_c, 0, 75, 87
3, 62720, Note_on_c, 0, 82, 88
3, 62720, Note_on_c, 0, 87, 92
3, 62976, Note_off_c, 0, 75, 0
3, 62976, Note_off_c, 0, 82, 0
3, 62976, Note_off_c, 0, 87, 0
3, 62976, Note_on_c, 0, 76, 88
3, 62976, Note_on_c, 0, 88, 92
3, 63035, Note_off_c, 0, 76, 0
3, 63091, Note_off_c, 0, 88, 0
3, 63232, Note_on_c, 0, 75, 89
3, 63232, Note_on_c, 0, 87, 93
3, 63291, Note_off_c, 0, 75, 0
3, 63347, Note_off_c, 0, 87, 0
3, 63488, Note_on_c, 0, 75, 89
3, 63744, Note_on_c, 0, 83, 89
3, 63744, Note_on_c, 0, 87, 94
3, 64000, Note_off_c, 0, 75, 0
3, 64000, Note_off_c, 0, 83, 0
3, 64000, Note_off_c, 0, 87, 0
3, 64000, Note_on_c, 0, 76, 89
3, 64000, Note_on_c, 0, 88, 94
3, 64059, Note_off_c, 0, 76, 0
3, 64115, Note_off_c, 0, 88, 0
3, 64256, Note_on_c, 0, 77, 90
3, 64256, Note_on_c, 0, 89, 95
3, 64315, Note_off_c, 0, 77, 0
3, 64371, Note_off_c, 0, 89, 0
3, 64512, Note_on_c, 0, 78, 90
3, 64768, Note_on_c, 0, 85, 91
3, 64768, Note_on_c, 0, 90, 96
3, 65024, Note_off_c, 0, 78, 0
3, 65024, Note_off_c, 0, 85, 0
3, 65024, Note_off_c, 0, 90, 0
3, 65024, Note_on_c, 0, 77, 92
3, 65024, Note_on_c, 0, 89, 97
3, 65083, Note_off_c, 0, 77, 0
3, 65139, Note_off_c, 0, 89, 0
3, 65280, Note_on_c, 0, 78, 92
3, 65280, Note_on_c, 0, 90, 97
3, 65339, Note_off_c, 0, 78, 0
3, 65395, Note_off_c, 0, 90, 0
3, 65536, Note_on_c, 0, 80, 92
3, 65792, Note_on_c, 0, 87, 93
3, 65792, Note_on_c, 0, 90, 93
3, 65792, Note_on_c, 0, 92, 98
3, 66048, Note_off_c, 0, 80, 0
3, 66048, Note_off_c, 0, 87, 0
3, 66048, Note_off_c, 0, 90, 0
3, 66048, Note_off_c, 0, 92, 0
3, 66048, Note_on_c, 0, 79, 94
3, 66048, Note_on_c, 0, 91, 99
3, 66107, Note_off_c, 0, 79, 0
3, 66163, Note_off_c, 0, 91, 0
3, 66304, Note_on_c, 0, 80, 94
3, 66304, Note_on_c, 0, 92, 99
3, 66363, Note_off_c, 0, 80, 0
3, 66419, Note_off_c, 0, 92, 0
3, 66560, Note_on_c, 0, 81, 95
3, 66816, Note_on_c, 0, 87, 96
3, 66816, Note_on_c, 0, 90, 96
3, 66816, Note_on_c, 0, 93, 101
3, 67072, Note_off_c, 0, 81, 0
3, 67072, Note_off_c, 0, 87, 0
3, 67072, Note_off_c, 0, 90, 0
3, 67072, Note_off_c, 0, 93, 0
3, 67072, Note_on_c, 0, 80, 95
3, 67072, Note_on_c, 0, 92, 100
3, 67131, Note_off_c, 0, 80, 0
3, 67187, Note_off_c, 0, 92, 0
3, 67328, Note_on_c, 0, 81, 95
3, 67328, Note_on_c, 0, 93, 100
3, 67387, Note_off_c, 0, 81, 0
3, 67443, Note_off_c, 0, 93, 0
3, 67584, Note_on_c, 0, 82, 97
3, 67840, Note_on_c, 0, 90, 97
3, 67840, Note_on_c, 0, 94, 102
3, 68096, Note_off_c, 0, 82, 0
3, 68096, Note_off_c, 0, 90, 0
3, 68096, Note_off_c, 0, 94, 0
3, 68096, Note_on_c, 0, 80, 97
3, 68096, Note_on_c, 0, 92, 102
3, 68155, Note_off_c, 0, 80, 0
3, 68211, Note_off_c, 0, 92, 0
3, 68352, Note_on_c, 0, 78, 97
3, 68352, Note_on_c, 0, 90, 102
3, 68411, Note_off_c, 0, 78, 0
3, 68467, Note_off_c, 0, 90, 0
3, 68608, Note_on_c, 0, 82, 97
3, 68864, Note_on_c, 0, 89, 97
3, 68864, Note_on_c, 0, 94, 102
3, 69120, Note_off_c, 0, 82, 0
3, 69120, Note_off_c, 0, 89, 0
3, 69120, Note_off_c, 0, 94, 0
3, 69120, Note_on_c, 0, 81, 97
3, 69120, Note_on_c, 0, 93, 102
3, 69179, Note_off_c, 0, 81, 0
3, 69235, Note_off_c, 0, 93, 0
3, 69376, Note_on_c, 0, 80, 97
3, 69376, Note_on_c, 0, 92, 102
3, 69435, Note_off_c, 0, 80, 0
3, 69491, Note_off_c, 0, 92, 0
3, 69632, Note_on_c, 0, 80, 97
3, 69888, Note_on_c, 0, 87, 97
3, 69888, Note_on_c, 0, 92, 102
3, 70144, Note_off_c, 0, 80, 0
3, 70144, Note_off_c, 0, 87, 0
3, 70144, Note_off_c, 0, 92, 0
3, 70144, Note_on_c, 0, 79, 97
3, 70144, Note_on_c, 0, 91, 102
3, 70203, Note_off_c, 0, 79, 0
3, 70259, Note_off_c, 0, 91, 0
3, 70400, Note_on_c, 0, 78, 97
3, 70400, Note_on_c, 0, 90, 102
3, 70459, Note_off_c, 0, 78, 0
3, 70515, Note_off_c, 0, 90, 0
3, 70656, Note_on_c, 0, 78, 97
3, 70912, Note_on_c, 0, 81, 97
3, 70912, Note_on_c, 0, 90, 102
3, 71168, Note_off_c, 0, 78, 0
3, 71168, Note_off_c, 0, 81, 0
3, 71168, Note_off_c, 0, 90, 0
3, 71168, Note_on_c, 0, 77, 97
3, 71168, Note_on_c, 0, 89, 102
3, 71227, Note_off_c, 0, 77, 0
3, 71283, Note_off_c, 0, 89, 0
3, 71424, Note_on_c, 0, 75, 97
3, 71424, Note_on_c, 0, 87, 102
3, 71483, Note_off_c, 0, 75, 0
3, 71539, Note_off_c, 0, 87, 0
3, 71680, Note_on_c, 0, 75, 97
3, 71936, Note_on_c, 0, 80, 97
3, 71936, Note_on_c, 0, 87, 102
3, 72192, Note_off_c, 0, 75, 0
3, 72192, Note_off_c, 0, 80, 0
3, 72192, Note_off_c, 0, 87, 0
3, 72192, Note_on_c, 0, 74, 97
3, 72192, Note_on_c, 0, 86, 102
3, 72251, Note_off_c, 0, 74, 0
3, 72307, Note_off_c, 0, 86, 0
3, 72448, Note_on_c, 0, 73, 97
3, 72448, Note_on_c, 0, 85, 102
3, 72507, Note_off_c, 0, 73, 0
3, 72563, Note_off_c, 0, 85, 0
3, 72704, Note_on_c, 0, 73, 97
3, 72960, Note_on_c, 0, 80, 97
3, 72960, Note_on_c, 0, 85, 101
3, 73216, Note_off_c, 0, 73, 0
3, 73216, Note_off_c, 0, 80, 0
3, 73216, Note_off_c, 0, 85, 0
3, 73216, Note_on_c, 0, 72, 97
3, 73216, Note_on_c, 0, 84, 101
3, 73275, Note_off_c, 0, 72, 0
3, 73331, Note_off_c, 0, 84, 0
3, 73472, Note_on_c, 0, 71, 97
3, 73472, Note_on_c, 0, 83, 101
3, 73531, Note_off_c, 0, 71, 0
3, 73587, Note_off_c, 0, 83, 0
3, 73728, Note_on_c, 0, 71, 104
3, 73984, Note_on_c, 0, 74, 93
3, 73984, Note_on_c, 0, 83, 97
3, 74240, Note_off_c, 0, 71, 0
3, 74240, Note_off_c, 0, 74, 0
3, 74240, Note_off_c, 0, 83, 0
3, 74240, Note_on_c, 0, 70, 92
3, 74240, Note_on_c, 0, 82, 96
3, 74299, Note_off_c, 0, 70, 0
3, 74355, Note_off_c, 0, 82, 0
3, 74496, Note_on_c, 0, 69, 92
3, 74496, Note_on_c, 0, 81, 96
3, 74555, Note_off_c, 0, 69, 0
3, 74611, Note_off_c, 0, 81, 0
3, 74752, Note_on_c, 0, 69, 98
3, 75008, Note_on_c, 0, 72, 91
3, 75008, Note_on_c, 0, 81, 94
3, 75264, Note_off_c, 0, 69, 0
3, 75264, Note_off_c, 0, 72, 0
3, 75264, Note_off_c, 0, 81, 0
3, 75264, Note_on_c, 0, 68, 99
3, 75520, Note_on_c, 0, 73, 92
3, 75520, Note_on_c, 0, 80, 95
3, 75776, Note_off_c, 0, 68, 0
3, 75776, Note_off_c, 0, 80, 0
3, 75776, Note_on_c, 0, 66, 91
3, 75776, Note_on_c, 0, 78, 95
3, 76800, Note_off_c, 0, 66, 0
3, 76800, Note_off_c, 0, 73, 0
3, 76800, Note_off_c, 0, 78, 0
3, 76800, Note_on_c, 0, 68, 71
3, 77056, Note_on_c, 0, 73, 62
3, 77056, Note_on_c, 0, 80, 69
3, 77312, Note_off_c, 0, 68, 0
3, 77312, Note_off_c, 0, 73, 0
3, 77312, Note_off_c, 0, 80, 0
3, 77312, Note_on_c, 0, 70, 47
3, 77312, Note_on_c, 0, 82, 60
3, 77371, Note_off_c, 0, 70, 0
3, 77427, Note_off_c, 0, 82, 0
3, 77568, Note_on_c, 0, 71, 44
3, 77568, Note_on_c, 0, 83, 56
3, 77627, Note_off_c, 0, 71, 0
3, 77683, Note_off_c, 0, 83, 0
3, 77824, Note_on_c, 0, 73, 60
3, 78080, Note_on_c, 0, 78, 46
3, 78080, Note_on_c, 0, 85, 51
3, 78336, Note_off_c, 0, 73, 0
3, 78336, Note_off_c, 0, 78, 0
3, 78336, Note_off_c, 0, 85, 0
3, 78336, Note_on_c, 0, 75, 46
3, 78336, Note_on_c, 0, 87, 51
3, 78395, Note_off_c, 0, 75, 0
3, 78451, Note_off_c, 0, 87, 0
3, 78592, Note_on_c, 0, 73, 46
3, 78592, Note_on_c, 0, 85, 51
3, 78651, Note_off_c, 0, 73, 0
3, 78707, Note_off_c, 0, 85, 0
3, 78848, Note_on_c, 0, 68, 60
3, 79104, Note_on_c, 0, 73, 46
3, 79104, Note_on_c, 0, 80, 51
3, 79360, Note_off_c, 0, 68, 0
3, 79360, Note_off_c, 0, 73, 0
3, 79360, Note_off_c, 0, 80, 0
3, 79360, Note_on_c, 0, 70, 46
3, 79360, Note_on_c, 0, 82, 51
3, 79419, Note_off_c, 0, 70, 0
3, 79475, Note_off_c, 0, 82, 0
3, 79616, Note_on_c, 0, 68, 46
3, 79616, Note_on_c, 0, 80, 51
3, 79675, Note_off_c, 0, 68, 0
3, 79731, Note_off_c, 0, 80, 0
3, 79872, Note_on_c, 0, 61, 60
3, 80128, Note_on_c, 0, 70, 49
3, 80128, Note_on_c, 0, 73, 54
3, 80384, Note_off_c, 0, 61, 0
3, 80384, Note_off_c, 0, 70, 0
3, 80384, Note_off_c, 0, 73, 0
3, 80384, Note_on_c, 0, 65, 49
3, 80384, Note_on_c, 0, 77, 54
3, 80443, Note_off_c, 0, 65, 0
3, 80499, Note_off_c, 0, 77, 0
3, 80640, Note_on_c, 0, 66, 48
3, 80640, Note_on_c, 0, 78, 53
3, 80699, Note_off_c, 0, 66, 0
3, 80755, Note_off_c, 0, 78, 0
3, 80896, Note_on_c, 0, 68, 58
3, 81152, Note_on_c, 0, 73, 47
3, 81152, Note_on_c, 0, 80, 52
3, 81408, Note_off_c, 0, 68, 0
3, 81408, Note_off_c, 0, 73, 0
3, 81408, Note_off_c, 0, 80, 0
3, 81408, Note_on_c, 0, 70, 47
3, 81408, Note_on_c, 0, 82, 52
3, 81467, Note_off_c, 0, 70, 0
3, 81523, Note_off_c, 0, 82, 0
3, 81664, Note_on_c, 0, 71, 47
3, 81664, Note_on_c, 0, 83, 52
3, 81723, Note_off_c, 0, 71, 0
3, 81779, Note_off_c, 0, 83, 0
3, 81920, Note_on_c, 0, 73, 56
3, 82176, Note_on_c, 0, 78, 46
3, 82176, Note_on_c, 0, 85, 51
3, 82432, Note_off_c, 0, 73, 0
3, 82432, Note_off_c, 0, 78, 0
3, 82432, Note_off_c, 0, 85, 0
3, 82432, Note_on_c, 0, 75, 46
3, 82432, Note_on_c, 0, 87, 51
3, 82491, Note_off_c, 0, 75, 0
3, 82547, Note_off_c, 0, 87, 0
3, 82688, Note_on_c, 0, 73, 46
3, 82688, Note_on_c, 0, 85, 51
3, 82747, Note_off_c, 0, 73, 0
3, 82803, Note_off_c, 0, 85, 0
3, 82944, Note_on_c, 0, 68, 56
3, 83200, Note_on_c, 0, 73, 46
3, 83200, Note_on_c, 0, 80, 51
3, 83456, Note_off_c, 0, 68, 0
3, 83456, Note_off_c, 0, 73, 0
3, 83456, Note_off_c, 0, 80, 0
3, 83456, Note_on_c, 0, 70, 46
3, 83456, Note_on_c, 0, 82, 51
3, 83515, Note_off_c, 0, 70, 0
3, 83571, Note_off_c, 0, 82, 0
3, 83712, Note_on_c, 0, 68, 46
3, 83712, Note_on_c, 0, 80, 51
3, 83771, Note_off_c, 0, 68, 0
3, 83827, Note_off_c, 0, 80, 0
3, 83968, Note_on_c, 0, 66, 46
3, 83968, Note_on_c, 0, 78, 51
3, 84086, Note_off_c, 0, 66, 0
3, 84198, Note_off_c, 0, 78, 0
3, 84992, Note_on_c, 0, 85, 46
3, 84992, Note_on_c, 0, 92, 51
3, 85248, Note_off_c, 0, 85, 0
3, 85248, Note_on_c, 0, 80, 46
3, 85504, Note_off_c, 0, 80, 0
3, 85504, Note_off_c, 0, 92, 0
3, 85504, Note_on_c, 0, 82, 46
3, 85504, Note_on_c, 0, 94, 51
3, 85563, Note_off_c, 0, 82, 0
3, 85619, Note_off_c, 0, 94, 0
3, 85760, Note_on_c, 0, 83, 46
3, 85760, Note_on_c, 0, 95, 51
3, 85819, Note_off_c, 0, 83, 0
3, 85875, Note_off_c, 0, 95, 0
3, 86016, Note_on_c, 0, 90, 49
3, 86016, Note_on_c, 0, 97, 55
3, 86272, Note_off_c, 0, 90, 0
3, 86272, Note_on_c, 0, 85, 49
3, 86528, Note_off_c, 0, 85, 0
3, 86528, Note_off_c, 0, 97, 0
3, 86528, Note_on_c, 0, 87, 49
3, 86528, Note_on_c, 0, 99, 54
3, 86587, Note_off_c, 0, 87, 0
3, 86643, Note_off_c, 0, 99, 0
3, 86784, Note_on_c, 0, 85, 48
3, 86784, Note_on_c, 0, 97, 53
3, 86843, Note_off_c, 0, 85, 0
3, 86899, Note_off_c, 0, 97, 0
3, 87040, Note_on_c, 0, 85, 47
3, 87040, Note_on_c, 0, 92, 52
3, 87296, Note_off_c, 0, 85, 0
3, 87296, Note_on_c, 0, 80, 47
3, 87552, Note_off_c, 0, 80, 0
3, 87552, Note_off_c, 0, 92, 0
3, 87552, Note_on_c, 0, 82, 47
3, 87552, Note_on_c, 0, 94, 52
3, 87611, Note_off_c, 0, 82, 0
3, 87667, Note_off_c, 0, 94, 0
3, 87808, Note_on_c, 0, 80, 47
3, 87808, Note_on_c, 0, 92, 52
3, 87867, Note_off_c, 0, 80, 0
3, 87923, Note_off_c, 0, 92, 0
3, 88064, Note_on_c, 0, 82, 46
3, 88064, Note_on_c, 0, 85, 51
3, 88320, Note_off_c, 0, 82, 0
3, 88320, Note_on_c, 0, 73, 47
3, 88576, Note_off_c, 0, 73, 0
3, 88576, Note_off_c, 0, 85, 0
3, 88576, Note_on_c, 0, 77, 48
3, 88576, Note_on_c, 0, 89, 53
3, 88635, Note_off_c, 0, 77, 0
3, 88691, Note_off_c, 0, 89, 0
3, 88832, Note_on_c, 0, 78, 49
3, 88832, Note_on_c, 0, 90, 54
3, 88891, Note_off_c, 0, 78, 0
3, 88947, Note_off_c, 0, 90, 0
3, 89088, Note_on_c, 0, 85, 49
3, 89088, Note_on_c, 0, 92, 54
3, 89344, Note_off_c, 0, 85, 0
3, 89344, Note_on_c, 0, 80, 50
3, 89600, Note_off_c, 0, 80, 0
3, 89600, Note_off_c, 0, 92, 0
3, 89600, Note_on_c, 0, 82, 51
3, 89600, Note_on_c, 0, 94, 57
3, 89659, Note_off_c, 0, 82, 0
3, 89715, Note_off_c, 0, 94, 0
3, 89856, Note_on_c, 0, 83, 52
3, 89856, Note_on_c, 0, 95, 57
3, 89915, Note_off_c, 0, 83, 0
3, 89971, Note_off_c, 0, 95, 0
3, 90112, Note_on_c, 0, 90, 52
3, 90112, Note_on_c, 0, 97, 58
3, 90368, Note_off_c, 0, 90, 0
3, 90368, Note_on_c, 0, 85, 52
3, 90624, Note_off_c, 0, 85, 0
3, 90624, Note_off_c, 0, 97, 0
3, 90624, Note_on_c, 0, 87, 51
3, 90624, Note_on_c, 0, 99, 57
3, 90880, Note_off_c, 0, 87, 0
3, 90880, Note_off_c, 0, 99, 0
3, 90880, Note_on_c, 0, 85, 50
3, 90880, Note_on_c, 0, 97, 56
3, 91136, Note_off_c, 0, 85, 0
3, 91136, Note_off_c, 0, 97, 0
3, 91136, Note_on_c, 0, 85, 49
3, 91136, Note_on_c, 0, 92, 54
3, 91392, Note_off_c, 0, 85, 0
3, 91392, Note_on_c, 0, 80, 48
3, 91648, Note_off_c, 0, 80, 0
3, 91648, Note_off_c, 0, 92, 0
3, 91648, Note_on_c, 0, 82, 47
3, 91648, Note_on_c, 0, 94, 52
3, 91904, Note_off_c, 0, 82, 0
3, 91904, Note_off_c, 0, 94, 0
3, 91904, Note_on_c, 0, 80, 46
3, 91904, Note_on_c, 0, 92, 51
3, 92160, Note_off_c, 0, 80, 0
3, 92160, Note_off_c, 0, 92, 0
3, 92160, Note_on_c, 0, 78, 52
3, 92416, Note_off_c, 0, 78, 0
3, 92416, Note_on_c, 0, 90, 54
3, 92672, Note_off_c, 0, 90, 0
3, 92672, Note_on_c, 0, 87, 48
3, 92672, Note_on_c, 0, 95, 57
3, 92928, Note_off_c, 0, 87, 0
3, 92928, Note_off_c, 0, 95, 0
3, 92928, Note_on_c, 0, 85, 47
3, 92928, Note_on_c, 0, 92, 52
3, 93184, Note_off_c, 0, 85, 0
3, 93184, Note_off_c, 0, 92, 0
3, 93184, Note_on_c, 0, 82, 49
3, 93440, Note_off_c, 0, 82, 0
3, 93440, Note_on_c, 0, 90, 51
3, 93696, Note_off_c, 0, 90, 0
3, 93696, Note_on_c, 0, 87, 46
3, 93696, Note_on_c, 0, 95, 55
3, 93952, Note_off_c, 0, 87, 0
3, 93952, Note_off_c, 0, 95, 0
3, 93952, Note_on_c, 0, 85, 46
3, 93952, Note_on_c, 0, 94, 51
3, 94208, Note_off_c, 0, 85, 0
3, 94208, Note_off_c, 0, 94, 0
3, 94208, Note_on_c, 0, 82, 48
3, 94464, Note_off_c, 0, 82, 0
3, 94464, Note_on_c, 0, 90, 50
3, 94720, Note_off_c, 0, 90, 0
3, 94720, Note_on_c, 0, 87, 42
3, 94720, Note_on_c, 0, 95, 51
3, 94976, Note_off_c, 0, 87, 0
3, 94976, Note_off_c, 0, 95, 0
3, 94976, Note_on_c, 0, 85, 42
3, 94976, Note_on_c, 0, 94, 47
3, 95232, Note_off_c, 0, 85, 0
3, 95232, Note_off_c, 0, 94, 0
3, 95232, Note_on_c, 0, 82, 42
3, 95488, Note_off_c, 0, 82, 0
3, 95488, Note_on_c, 0, 90, 47
3, 95744, Note_off_c, 0, 90, 0
3, 95744, Note_on_c, 0, 87, 41
3, 95744, Note_on_c, 0, 95, 49
3, 96000, Note_off_c, 0, 87, 0
3, 96000, Note_off_c, 0, 95, 0
3, 96000, Note_on_c, 0, 85, 41
3, 96000, Note_on_c, 0, 94, 45
3, 96256, Note_off_c, 0, 85, 0
3, 96256, Note_off_c, 0, 94, 0
3, 96256, Note_on_c, 0, 82, 43
3, 96512, Note_off_c, 0, 82, 0
3, 96512, Note_on_c, 0, 90, 43
3, 96768, Note_off_c, 0, 90, 0
3, 96768, Note_on_c, 0, 87, 38
3, 96768, Note_on_c, 0, 95, 47
3, 97024, Note_off_c, 0, 87, 0
3, 97024, Note_off_c, 0, 95, 0
3, 97024, Note_on_c, 0, 94, 43
3, 97280, Note_off_c, 0, 94, 0
3, 97280, Note_on_c, 0, 82, 41
3, 97536, Note_off_c, 0, 82, 0
3, 97536, Note_on_c, 0, 90, 42
3, 97792, Note_off_c, 0, 90, 0
3, 97792, Note_on_c, 0, 87, 36
3, 97792, Note_on_c, 0, 95, 44
3, 98048, Note_off_c, 0, 87, 0
3, 98048, Note_off_c, 0, 95, 0
3, 98048, Note_on_c, 0, 85, 35
3, 98048, Note_on_c, 0, 94, 40
3, 98304, Note_off_c, 0, 85, 0
3, 98304, Note_off_c, 0, 94, 0
3, 98304, Note_on_c, 0, 82, 41
3, 98560, Note_off_c, 0, 82, 0
3, 98560, Note_on_c, 0, 90, 40
3, 98816, Note_off_c, 0, 90, 0
3, 98816, Note_on_c, 0, 87, 34
3, 98816, Note_on_c, 0, 95, 41
3, 99072, Note_off_c, 0, 87, 0
3, 99072, Note_off_c, 0, 95, 0
3, 99072, Note_on_c, 0, 85, 34
3, 99072, Note_on_c, 0, 94, 38
3, 99328, Note_off_c, 0, 85, 0
3, 99328, Note_off_c, 0, 94, 0
3, 99328, Note_on_c, 0, 82, 37
3, 99584, Note_off_c, 0, 82, 0
3, 99584, Note_on_c, 0, 90, 37
3, 99840, Note_off_c, 0, 90, 0
3, 99840, Note_on_c, 0, 87, 31
3, 99840, Note_on_c, 0, 95, 40
3, 100096, Note_off_c, 0, 87, 0
3, 100096, Note_off_c, 0, 95, 0
3, 100096, Note_on_c, 0, 85, 31
3, 100096, Note_on_c, 0, 94, 36
3, 100352, Note_off_c, 0, 85, 0
3, 100352, Note_off_c, 0, 94, 0
3, 100352, Note_on_c, 0, 82, 31
3, 100352, Note_on_c, 0, 90, 35
3, 100864, Note_off_c, 0, 82, 0
3, 100864, Note_off_c, 0, 90, 0
3, 103424, Note_on_c, 0, 58, 28
3, 103680, Note_off_c, 0, 58, 0
3, 103680, Note_on_c, 0, 66, 28
3, 103936, Note_off_c, 0, 66, 0
3, 103936, Note_on_c, 0, 63, 25
3, 103936, Note_on_c, 0, 71, 34
3, 104192, Note_off_c, 0, 63, 0
3, 104192, Note_off_c, 0, 71, 0
3, 104192, Note_on_c, 0, 61, 25
3, 104192, Note_on_c, 0, 70, 30
3, 104448, Note_off_c, 0, 61, 0
3, 104448, Note_off_c, 0, 70, 0
3, 104448, Note_on_c, 0, 58, 25
3, 104448, Note_on_c, 0, 66, 30
3, 104858, Note_off_c, 0, 58, 0
3, 104858, Note_off_c, 0, 66, 0
3, 104858, End_track
4, 0, Start_track
4, 0, Title_t, "\251 1996"
4, 0, Program_c, 1, 0
4, 2048, Note_on_c, 1, 54, 57
4, 2278, Note_off_c, 1, 54, 0
4, 2560, Note_on_c, 1, 58, 43
4, 2560, Note_on_c, 1, 61, 40
4, 2560, Note_on_c, 1, 66, 45
4, 2637, Note_off_c, 1, 58, 0
4, 2714, Note_off_c, 1, 61, 0
4, 2790, Note_off_c, 1, 66, 0
4, 3072, Note_on_c, 1, 53, 55
4, 3302, Note_off_c, 1, 53, 0
4, 3584, Note_on_c, 1, 56, 43
4, 3584, Note_on_c, 1, 61, 42
4, 3584, Note_on_c, 1, 68, 43
4, 3661, Note_off_c, 1, 56, 0
4, 3738, Note_off_c, 1, 61, 0
4, 3814, Note_off_c, 1, 68, 0
4, 4096, Note_on_c, 1, 51, 53
4, 4326, Note_off_c, 1, 51, 0
4, 4608, Note_on_c, 1, 54, 42
4, 4608, Note_on_c, 1, 58, 40
4, 4608, Note_on_c, 1, 63, 42
4, 4685, Note_off_c, 1, 54, 0
4, 4762, Note_off_c, 1, 58, 0
4, 4838, Note_off_c, 1, 63, 0
4, 5120, Note_on_c, 1, 49, 53
4, 5350, Note_off_c, 1, 49, 0
4, 5632, Note_on_c, 1, 53, 42
4, 5632, Note_on_c, 1, 58, 40
4, 5632, Note_on_c, 1, 65, 42
4, 5709, Note_off_c, 1, 53, 0
4, 5786, Note_off_c, 1, 58, 0
4, 5862, Note_off_c, 1, 65, 0
4, 6144, Note_on_c, 1, 47, 53
4, 6374, Note_off_c, 1, 47, 0
4, 6656, Note_on_c, 1, 54, 40
4, 6656, Note_on_c, 1, 59, 42
4, 6774, Note_off_c, 1, 54, 0
4, 6886, Note_off_c, 1, 59, 0
4, 7168, Note_on_c, 1, 46, 53
4, 7398, Note_off_c, 1, 46, 0
4, 7680, Note_on_c, 1, 49, 42
4, 7680, Note_on_c, 1, 54, 40
4, 7680, Note_on_c, 1, 61, 42
4, 7757, Note_off_c, 1, 49, 0
4, 7834, Note_off_c, 1, 54, 0
4, 7910, Note_off_c, 1, 61, 0
4, 8192, Note_on_c, 1, 48, 53
4, 8422, Note_off_c, 1, 48, 0
4, 8704, Note_on_c, 1, 54, 42
4, 8704, Note_on_c, 1, 56, 40
4, 8704, Note_on_c, 1, 63, 42
4, 8781, Note_off_c, 1, 54, 0
4, 8858, Note_off_c, 1, 56, 0
4, 8934, Note_off_c, 1, 63, 0
4, 9216, Note_on_c, 1, 49, 53
4, 9446, Note_off_c, 1, 49, 0
4, 9728, Note_on_c, 1, 59, 40
4, 9728, Note_on_c, 1, 61, 42
4, 9728, Note_on_c, 1, 65, 41
4, 9805, Note_off_c, 1, 59, 0
4, 9882, Note_off_c, 1, 61, 0
4, 9958, Note_off_c, 1, 65, 0
4, 10240, Note_on_c, 1, 54, 55
4, 10470, Note_off_c, 1, 54, 0
4, 10752, Note_on_c, 1, 58, 44
4, 10752, Note_on_c, 1, 66, 44
4, 10870, Note_off_c, 1, 58, 0
4, 10982, Note_off_c, 1, 66, 0
4, 11264, Note_on_c, 1, 53, 54
4, 11494, Note_off_c, 1, 53, 0
4, 11776, Note_on_c, 1, 56, 42
4, 11776, Note_on_c, 1, 61, 41
4, 11776, Note_on_c, 1, 68, 42
4, 11853, Note_off_c, 1, 56, 0
4, 11930, Note_off_c, 1, 61, 0
4, 12006, Note_off_c, 1, 68, 0
4, 12288, Note_on_c, 1, 51, 53
4, 12518, Note_off_c, 1, 51, 0
4, 12800, Note_on_c, 1, 54, 42
4, 12800, Note_on_c, 1, 58, 40
4, 12800, Note_on_c, 1, 63, 42
4, 12877, Note_off_c, 1, 54, 0
4, 12954, Note_off_c, 1, 58, 0
4, 13030, Note_off_c, 1, 63, 0
4, 13312, Note_on_c, 1, 49, 53
4, 13542, Note_off_c, 1, 49, 0
4, 13824, Note_on_c, 1, 53, 42
4, 13824, Note_on_c, 1, 58, 40
4, 13824, Note_on_c, 1, 65, 42
4, 13901, Note_off_c, 1, 53, 0
4, 13978, Note_off_c, 1, 58, 0
4, 14054, Note_off_c, 1, 65, 0
4, 14336, Note_on_c, 1, 47, 53
4, 14566, Note_off_c, 1, 47, 0
4, 14848, Note_on_c, 1, 54, 40
4, 14848, Note_on_c, 1, 59, 42
4, 14966, Note_off_c, 1, 54, 0
4, 15078, Note_off_c, 1, 59, 0
4, 15360, Note_on_c, 1, 46, 53
4, 15590, Note_off_c, 1, 46, 0
4, 15872, Note_on_c, 1, 49, 42
4, 15872, Note_on_c, 1, 54, 40
4, 15872, Note_on_c, 1, 61, 42
4, 15949, Note_off_c, 1, 49, 0
4, 16026, Note_off_c, 1, 54, 0
4, 16102, Note_off_c, 1, 61, 0
4, 16230, Note_on_c, 1, 48, 50
4, 16332, Note_on_c, 1, 54, 52
4, 16384, Control_c, 1, 64, 127
4, 16434, Note_on_c, 1, 63, 55
4, 16718, Note_on_c, 1, 49, 47
4, 16736, Control_c, 1, 64, 0
4, 16794, Note_on_c, 1, 56, 48
4, 16870, Note_on_c, 1, 59, 50
4, 16885, Control_c, 1, 64, 127
4, 16896, Note_off_c, 1, 48, 0
4, 16896, Note_off_c, 1, 54, 0
4, 16896, Note_off_c, 1, 63, 0
4, 16946, Note_on_c, 1, 65, 52
4, 17365, Control_c, 1, 64, 0
4, 17408, Note_off_c, 1, 49, 0
4, 17408, Note_off_c, 1, 56, 0
4, 17408, Note_off_c, 1, 59, 0
4, 17408, Note_off_c, 1, 65, 0
4, 17408, Note_on_c, 1, 54, 52
4, 17408, Note_on_c, 1, 58, 56
4, 17920, Note_off_c, 1, 54, 0
4, 17920, Note_off_c, 1, 58, 0
4, 18432, Note_on_c, 1, 49, 55
4, 18662, Note_off_c, 1, 49, 0
4, 18944, Note_on_c, 1, 56, 45
4, 18944, Note_on_c, 1, 61, 46
4, 18944, Note_on_c, 1, 65, 45
4, 19021, Note_off_c, 1, 56, 0
4, 19098, Note_off_c, 1, 61, 0
4, 19174, Note_off_c, 1, 65, 0
4, 19456, Note_on_c, 1, 48, 58
4, 19467, Control_c, 1, 64, 127
4, 19686, Note_off_c, 1, 48, 0
4, 19968, Note_on_c, 1, 56, 48
4, 19968, Note_on_c, 1, 63, 48
4, 19968, Note_on_c, 1, 66, 48
4, 20045, Note_off_c, 1, 56, 0
4, 20122, Note_off_c, 1, 63, 0
4, 20198, Note_off_c, 1, 66, 0
4, 20395, Control_c, 1, 64, 0
4, 20480, Note_on_c, 1, 44, 63
4, 20491, Control_c, 1, 64, 127
4, 20710, Note_off_c, 1, 44, 0
4, 20992, Note_on_c, 1, 56, 50
4, 20992, Note_on_c, 1, 60, 48
4, 20992, Note_on_c, 1, 66, 50
4, 21069, Note_off_c, 1, 56, 0
4, 21146, Note_off_c, 1, 60, 0
4, 21222, Note_off_c, 1, 66, 0
4, 21227, Control_c, 1, 64, 0
4, 21504, Note_on_c, 1, 49, 66
4, 21734, Note_off_c, 1, 49, 0
4, 22016, Note_on_c, 1, 56, 54
4, 22016, Note_on_c, 1, 61, 54
4, 22016, Note_on_c, 1, 65, 54
4, 22093, Note_off_c, 1, 56, 0
4, 22170, Note_off_c, 1, 61, 0
4, 22246, Note_off_c, 1, 65, 0
4, 22528, Note_on_c, 1, 43, 71
4, 22549, Control_c, 1, 64, 127
4, 22758, Note_off_c, 1, 43, 0
4, 23040, Note_on_c, 1, 52, 54
4, 23040, Note_on_c, 1, 58, 46
4, 23040, Note_on_c, 1, 61, 48
4, 23117, Note_off_c, 1, 52, 0
4, 23194, Note_off_c, 1, 58, 0
4, 23270, Note_off_c, 1, 61, 0
4, 23349, Control_c, 1, 64, 0
4, 23552, Note_on_c, 1, 44, 65
4, 23563, Control_c, 1, 64, 127
4, 23782, Note_off_c, 1, 44, 0
4, 24064, Note_on_c, 1, 53, 50
4, 24064, Note_on_c, 1, 56, 48
4, 24064, Note_on_c, 1, 61, 50
4, 24141, Note_off_c, 1, 53, 0
4, 24218, Note_off_c, 1, 56, 0
4, 24294, Note_off_c, 1, 61, 0
4, 24491, Control_c, 1, 64, 0
4, 24576, Note_on_c, 1, 44, 66
4, 24587, Control_c, 1, 64, 127
4, 24806, Note_off_c, 1, 44, 0
4, 25088, Note_on_c, 1, 51, 49
4, 25088, Note_on_c, 1, 56, 48
4, 25088, Note_on_c, 1, 60, 49
4, 25165, Note_off_c, 1, 51, 0
4, 25242, Note_off_c, 1, 56, 0
4, 25318, Note_off_c, 1, 60, 0
4, 25323, Control_c, 1, 64, 0
4, 25600, Note_on_c, 1, 49, 57
4, 25830, Note_off_c, 1, 49, 0
4, 26112, Note_on_c, 1, 56, 41
4, 26112, Note_on_c, 1, 61, 43
4, 26230, Note_off_c, 1, 56, 0
4, 26342, Note_off_c, 1, 61, 0
4, 26624, Note_on_c, 1, 49, 55
4, 26854, Note_off_c, 1, 49, 0
4, 27136, Note_on_c, 1, 56, 44
4, 27136, Note_on_c, 1, 61, 46
4, 27254, Note_off_c, 1, 56, 0
4, 27366, Note_off_c, 1, 61, 0
4, 27648, Note_on_c, 1, 48, 60
4, 27659, Control_c, 1, 64, 127
4, 27878, Note_off_c, 1, 48, 0
4, 28160, Note_on_c, 1, 56, 46
4, 28160, Note_on_c, 1, 63, 48
4, 28278, Note_off_c, 1, 56, 0
4, 28390, Note_off_c, 1, 63, 0
4, 28587, Control_c, 1, 64, 0
4, 28672, Note_on_c, 1, 46, 65
4, 28693, Control_c, 1, 64, 127
4, 28902, Note_off_c, 1, 46, 0
4, 29184, Note_on_c, 1, 58, 53
4, 29184, Note_on_c, 1, 61, 50
4, 29184, Note_on_c, 1, 67, 53
4, 29261, Note_off_c, 1, 58, 0
4, 29338, Note_off_c, 1, 61, 0
4, 29414, Note_off_c, 1, 67, 0
4, 29493, Control_c, 1, 64, 0
4, 29696, Note_on_c, 1, 44, 70
4, 29707, Control_c, 1, 64, 127
4, 29926, Note_off_c, 1, 44, 0
4, 30208, Note_on_c, 1, 56, 56
4, 30208, Note_on_c, 1, 61, 53
4, 30208, Note_on_c, 1, 68, 56
4, 30285, Note_off_c, 1, 56, 0
4, 30362, Note_off_c, 1, 61, 0
4, 30438, Note_off_c, 1, 68, 0
4, 30635, Control_c, 1, 64, 0
4, 30720, Note_on_c, 1, 43, 69
4, 30720, Note_on_c, 1, 55, 73
4, 30741, Control_c, 1, 64, 127
4, 30838, Note_off_c, 1, 43, 0
4, 30950, Note_off_c, 1, 55, 0
4, 31232, Note_on_c, 1, 61, 55
4, 31232, Note_on_c, 1, 63, 54
4, 31232, Note_on_c, 1, 70, 55
4, 31309, Note_off_c, 1, 61, 0
4, 31386, Note_off_c, 1, 63, 0
4, 31462, Note_off_c, 1, 70, 0
4, 31541, Control_c, 1, 64, 0
4, 31744, Note_on_c, 1, 44, 67
4, 31755, Control_c, 1, 64, 127
4, 31974, Note_off_c, 1, 44, 0
4, 32256, Note_on_c, 1, 53, 52
4, 32256, Note_on_c, 1, 56, 49
4, 32256, Note_on_c, 1, 61, 41
4, 32333, Note_off_c, 1, 53, 0
4, 32410, Note_off_c, 1, 56, 0
4, 32486, Note_off_c, 1, 61, 0
4, 32683, Control_c, 1, 64, 0
4, 32768, Note_on_c, 1, 32, 70
4, 32789, Control_c, 1, 64, 127
4, 32998, Note_off_c, 1, 32, 0
4, 33280, Note_on_c, 1, 51, 50
4, 33280, Note_on_c, 1, 54, 48
4, 33280, Note_on_c, 1, 60, 50
4, 33357, Note_off_c, 1, 51, 0
4, 33434, Note_off_c, 1, 54, 0
4, 33510, Note_off_c, 1, 60, 0
4, 33589, Control_c, 1, 64, 0
4, 33792, Note_on_c, 1, 37, 58
4, 33803, Control_c, 1, 64, 127
4, 34022, Note_off_c, 1, 37, 0
4, 34304, Note_on_c, 1, 56, 44
4, 34304, Note_on_c, 1, 61, 45
4, 34304, Note_on_c, 1, 65, 44
4, 34381, Note_off_c, 1, 56, 0
4, 34458, Note_off_c, 1, 61, 0
4, 34534, Note_off_c, 1, 65, 0
4, 34731, Control_c, 1, 64, 0
4, 34816, Note_on_c, 1, 49, 55
4, 34837, Control_c, 1, 64, 127
4, 35046, Note_off_c, 1, 49, 0
4, 35328, Note_on_c, 1, 58, 40
4, 35328, Note_on_c, 1, 67, 44
4, 35446, Note_off_c, 1, 58, 0
4, 35558, Note_off_c, 1, 67, 0
4, 35637, Control_c, 1, 64, 0
4, 35840, Note_on_c, 1, 49, 54
4, 35851, Control_c, 1, 64, 127
4, 36070, Note_off_c, 1, 49, 0
4, 36352, Note_on_c, 1, 59, 40
4, 36352, Note_on_c, 1, 68, 42
4, 36470, Note_off_c, 1, 59, 0
4, 36582, Note_off_c, 1, 68, 0
4, 36779, Control_c, 1, 64, 0
4, 36864, Note_on_c, 1, 49, 53
4, 36885, Control_c, 1, 64, 127
4, 37094, Note_off_c, 1, 49, 0
4, 37376, Note_on_c, 1, 56, 40
4, 37376, Note_on_c, 1, 65, 42
4, 37494, Note_off_c, 1, 56, 0
4, 37606, Note_off_c, 1, 65, 0
4, 37685, Control_c, 1, 64, 0
4, 37888, Note_on_c, 1, 49, 53
4, 37899, Control_c, 1, 64, 127
4, 38118, Note_off_c, 1, 49, 0
4, 38400, Note_on_c, 1, 57, 40
4, 38400, Note_on_c, 1, 66, 42
4, 38518, Note_off_c, 1, 57, 0
4, 38630, Note_off_c, 1, 66, 0
4, 38827, Control_c, 1, 64, 0
4, 38912, Note_on_c, 1, 37, 53
4, 38933, Control_c, 1, 64, 127
4, 39142, Note_off_c, 1, 37, 0
4, 39424, Note_on_c, 1, 51, 38
4, 39424, Note_on_c, 1, 60, 41
4, 39542, Note_off_c, 1, 51, 0
4, 39654, Note_off_c, 1, 60, 0
4, 39733, Control_c, 1, 64, 0
4, 39936, Note_on_c, 1, 37, 52
4, 39947, Control_c, 1, 64, 127
4, 40166, Note_off_c, 1, 37, 0
4, 40448, Note_on_c, 1, 51, 37
4, 40448, Note_on_c, 1, 60, 40
4, 40566, Note_off_c, 1, 51, 0
4, 40678, Note_off_c, 1, 60, 0
4, 40875, Control_c, 1, 64, 0
4, 40960, Note_on_c, 1, 37, 57
4, 40981, Control_c, 1, 64, 127
4, 41190, Note_off_c, 1, 37, 0
4, 41472, Note_on_c, 1, 53, 42
4, 41472, Note_on_c, 1, 61, 46
4, 41590, Note_off_c, 1, 53, 0
4, 41702, Note_off_c, 1, 61, 0
4, 41781, Control_c, 1, 64, 0
4, 41984, Note_on_c, 1, 49, 57
4, 41995, Control_c, 1, 64, 127
4, 42214, Note_off_c, 1, 49, 0
4, 42496, Note_on_c, 1, 56, 42
4, 42496, Note_on_c, 1, 65, 46
4, 42614, Note_off_c, 1, 56, 0
4, 42726, Note_off_c, 1, 65, 0
4, 42923, Control_c, 1, 64, 0
4, 43008, Note_on_c, 1, 49, 55
4, 43029, Control_c, 1, 64, 127
4, 43238, Note_off_c, 1, 49, 0
4, 43520, Note_on_c, 1, 58, 41
4, 43520, Note_on_c, 1, 67, 44
4, 43638, Note_off_c, 1, 58, 0
4, 43750, Note_off_c, 1, 67, 0
4, 43829, Control_c, 1, 64, 0
4, 44032, Note_on_c, 1, 49, 54
4, 44043, Control_c, 1, 64, 127
4, 44262, Note_off_c, 1, 49, 0
4, 44544, Note_on_c, 1, 59, 40
4, 44544, Note_on_c, 1, 68, 42
4, 44662, Note_off_c, 1, 59, 0
4, 44774, Note_off_c, 1, 68, 0
4, 44971, Control_c, 1, 64, 0
4, 45056, Note_on_c, 1, 49, 53
4, 45077, Control_c, 1, 64, 127
4, 45286, Note_off_c, 1, 49, 0
4, 45568, Note_on_c, 1, 56, 40
4, 45568, Note_on_c, 1, 65, 42
4, 45686, Note_off_c, 1, 56, 0
4, 45798, Note_off_c, 1, 65, 0
4, 45877, Control_c, 1, 64, 0
4, 46080, Note_on_c, 1, 49, 53
4, 46091, Control_c, 1, 64, 127
4, 46310, Note_off_c, 1, 49, 0
4, 46592, Note_on_c, 1, 57, 40
4, 46592, Note_on_c, 1, 66, 42
4, 46710, Note_off_c, 1, 57, 0
4, 46822, Note_off_c, 1, 66, 0
4, 47019, Control_c, 1, 64, 0
4, 47104, Note_on_c, 1, 37, 53
4, 47125, Control_c, 1, 64, 127
4, 47334, Note_off_c, 1, 37, 0
4, 47616, Note_on_c, 1, 57, 40
4, 47616, Note_on_c, 1, 60, 40
4, 47616, Note_on_c, 1, 66, 42
4, 47693, Note_off_c, 1, 57, 0
4, 47770, Note_off_c, 1, 60, 0
4, 47846, Note_off_c, 1, 66, 0
4, 47925, Control_c, 1, 64, 0
4, 48128, Note_on_c, 1, 49, 53
4, 48139, Control_c, 1, 64, 127
4, 48358, Note_off_c, 1, 49, 0
4, 48640, Note_on_c, 1, 56, 40
4, 48640, Note_on_c, 1, 60, 40
4, 48640, Note_on_c, 1, 66, 42
4, 48717, Note_off_c, 1, 56, 0
4, 48794, Note_off_c, 1, 60, 0
4, 48870, Note_off_c, 1, 66, 0
4, 49067, Control_c, 1, 64, 0
4, 49152, Note_on_c, 1, 49, 51
4, 49173, Control_c, 1, 64, 127
4, 49382, Note_off_c, 1, 49, 0
4, 49664, Note_on_c, 1, 56, 40
4, 49664, Note_on_c, 1, 59, 37
4, 49664, Note_on_c, 1, 66, 40
4, 49741, Note_off_c, 1, 56, 0
4, 49818, Note_off_c, 1, 59, 0
4, 49894, Note_off_c, 1, 66, 0
4, 49973, Control_c, 1, 64, 0
4, 50176, Note_on_c, 1, 49, 51
4, 50187, Control_c, 1, 64, 127
4, 50406, Note_off_c, 1, 49, 0
4, 50688, Note_on_c, 1, 56, 40
4, 50688, Note_on_c, 1, 59, 37
4, 50688, Note_on_c, 1, 65, 40
4, 50765, Note_off_c, 1, 56, 0
4, 50842, Note_off_c, 1, 59, 0
4, 50918, Note_off_c, 1, 65, 0
4, 51115, Control_c, 1, 64, 0
4, 51200, Note_on_c, 1, 42, 84
4, 51200, Note_on_c, 1, 54, 88
4, 51221, Control_c, 1, 64, 127
4, 51318, Note_off_c, 1, 42, 0
4, 51430, Note_off_c, 1, 54, 0
4, 51712, Note_on_c, 1, 58, 78
4, 51712, Note_on_c, 1, 61, 77
4, 51712, Note_on_c, 1, 66, 80
4, 51789, Note_off_c, 1, 58, 0
4, 51866, Note_off_c, 1, 61, 0
4, 51942, Note_off_c, 1, 66, 0
4, 52021, Control_c, 1, 64, 0
4, 52224, Note_on_c, 1, 41, 84
4, 52224, Note_on_c, 1, 53, 88
4, 52235, Control_c, 1, 64, 127
4, 52342, Note_off_c, 1, 41, 0
4, 52454, Note_off_c, 1, 53, 0
4, 52736, Note_on_c, 1, 56, 78
4, 52736, Note_on_c, 1, 61, 77
4, 52736, Note_on_c, 1, 68, 80
4, 52813, Note_off_c, 1, 56, 0
4, 52890, Note_off_c, 1, 61, 0
4, 52966, Note_off_c, 1, 68, 0
4, 53163, Control_c, 1, 64, 0
4, 53248, Note_on_c, 1, 39, 84
4, 53248, Note_on_c, 1, 51, 88
4, 53269, Control_c, 1, 64, 127
4, 53366, Note_off_c, 1, 39, 0
4, 53478, Note_off_c, 1, 51, 0
4, 53760, Note_on_c, 1, 54, 78
4, 53760, Note_on_c, 1, 58, 78
4, 53760, Note_on_c, 1, 63, 80
4, 53837, Note_off_c, 1, 54, 0
4, 53914, Note_off_c, 1, 58, 0
4, 53990, Note_off_c, 1, 63, 0
4, 54069, Control_c, 1, 64, 0
4, 54272, Note_on_c, 1, 37, 84
4, 54272, Note_on_c, 1, 49, 88
4, 54283, Control_c, 1, 64, 127
4, 54390, Note_off_c, 1, 37, 0
4, 54502, Note_off_c, 1, 49, 0
4, 54784, Note_on_c, 1, 53, 78
4, 54784, Note_on_c, 1, 58, 78
4, 54784, Note_on_c, 1, 65, 80
4, 54861, Note_off_c, 1, 53, 0
4, 54938, Note_off_c, 1, 58, 0
4, 55014, Note_off_c, 1, 65, 0
4, 55211, Control_c, 1, 64, 0
4, 55296, Note_on_c, 1, 35, 84
4, 55296, Note_on_c, 1, 47, 88
4, 55317, Control_c, 1, 64, 127
4, 55414, Note_off_c, 1, 35, 0
4, 55526, Note_off_c, 1, 47, 0
4, 55808, Note_on_c, 1, 51, 82
4, 55808, Note_on_c, 1, 54, 78
4, 55808, Note_on_c, 1, 59, 80
4, 55885, Note_off_c, 1, 51, 0
4, 55962, Note_off_c, 1, 54, 0
4, 56038, Note_off_c, 1, 59, 0
4, 56117, Control_c, 1, 64, 0
4, 56320, Note_on_c, 1, 34, 84
4, 56320, Note_on_c, 1, 46, 88
4, 56331, Control_c, 1, 64, 127
4, 56438, Note_off_c, 1, 34, 0
4, 56550, Note_off_c, 1, 46, 0
4, 56832, Note_on_c, 1, 49, 78
4, 56832, Note_on_c, 1, 54, 78
4, 56832, Note_on_c, 1, 61, 80
4, 56909, Note_off_c, 1, 49, 0
4, 56986, Note_off_c, 1, 54, 0
4, 57062, Note_off_c, 1, 61, 0
4, 57259, Control_c, 1, 64, 0
4, 57344, Note_on_c, 1, 36, 84
4, 57344, Note_on_c, 1, 48, 88
4, 57365, Control_c, 1, 64, 127
4, 57462, Note_off_c, 1, 36, 0
4, 57574, Note_off_c, 1, 48, 0
4, 57856, Note_on_c, 1, 54, 78
4, 57856, Note_on_c, 1, 56, 78
4, 57856, Note_on_c, 1, 63, 80
4, 57933, Note_off_c, 1, 54, 0
4, 58010, Note_off_c, 1, 56, 0
4, 58086, Note_off_c, 1, 63, 0
4, 58165, Control_c, 1, 64, 0
4, 58368, Note_on_c, 1, 37, 88
4, 58368, Note_on_c, 1, 49, 84
4, 58379, Control_c, 1, 64, 127
4, 58486, Note_off_c, 1, 37, 0
4, 58598, Note_off_c, 1, 49, 0
4, 58880, Note_on_c, 1, 56, 78
4, 58880, Note_on_c, 1, 59, 78
4, 58880, Note_on_c, 1, 65, 80
4, 58957, Note_off_c, 1, 56, 0
4, 59034, Note_off_c, 1, 59, 0
4, 59110, Note_off_c, 1, 65, 0
4, 59307, Control_c, 1, 64, 0
4, 59392, Note_on_c, 1, 42, 84
4, 59392, Note_on_c, 1, 54, 88
4, 59413, Control_c, 1, 64, 127
4, 59510, Note_off_c, 1, 42, 0
4, 59622, Note_off_c, 1, 54, 0
4, 59904, Note_on_c, 1, 58, 78
4, 59904, Note_on_c, 1, 61, 77
4, 59904, Note_on_c, 1, 66, 80
4, 59981, Note_off_c, 1, 58, 0
4, 60058, Note_off_c, 1, 61, 0
4, 60134, Note_off_c, 1, 66, 0
4, 60213, Control_c, 1, 64, 0
4, 60416, Note_on_c, 1, 41, 88
4, 60416, Note_on_c, 1, 53, 84
4, 60427, Control_c, 1, 64, 127
4, 60534, Note_off_c, 1, 41, 0
4, 60646, Note_off_c, 1, 53, 0
4, 60928, Note_on_c, 1, 56, 78
4, 60928, Note_on_c, 1, 61, 77
4, 60928, Note_on_c, 1, 68, 80
4, 61005, Note_off_c, 1, 56, 0
4, 61082, Note_off_c, 1, 61, 0
4, 61158, Note_off_c, 1, 68, 0
4, 61355, Control_c, 1, 64, 0
4, 61440, Note_on_c, 1, 44, 84
4, 61440, Note_on_c, 1, 56, 88
4, 61461, Control_c, 1, 64, 127
4, 61558, Note_off_c, 1, 44, 0
4, 61670, Note_off_c, 1, 56, 0
4, 61952, Note_on_c, 1, 59, 77
4, 61952, Note_on_c, 1, 63, 78
4, 61952, Note_on_c, 1, 68, 80
4, 62029, Note_off_c, 1, 59, 0
4, 62106, Note_off_c, 1, 63, 0
4, 62182, Note_off_c, 1, 68, 0
4, 62261, Control_c, 1, 64, 0
4, 62464, Note_on_c, 1, 43, 90
4, 62464, Note_on_c, 1, 55, 84
4, 62475, Control_c, 1, 64, 127
4, 62582, Note_off_c, 1, 43, 0
4, 62694, Note_off_c, 1, 55, 0
4, 62976, Note_on_c, 1, 58, 78
4, 62976, Note_on_c, 1, 63, 78
4, 62976, Note_on_c, 1, 70, 81
4, 63053, Note_off_c, 1, 58, 0
4, 63130, Note_off_c, 1, 63, 0
4, 63206, Note_off_c, 1, 70, 0
4, 63403, Control_c, 1, 64, 0
4, 63488, Note_on_c, 1, 47, 86
4, 63488, Note_on_c, 1, 59, 92
4, 63509, Control_c, 1, 64, 127
4, 63606, Note_off_c, 1, 47, 0
4, 63718, Note_off_c, 1, 59, 0
4, 64000, Note_on_c, 1, 63, 78
4, 64000, Note_on_c, 1, 66, 80
4, 64000, Note_on_c, 1, 71, 81
4, 64077, Note_off_c, 1, 63, 0
4, 64154, Note_off_c, 1, 66, 0
4, 64230, Note_off_c, 1, 71, 0
4, 64309, Control_c, 1, 64, 0
4, 64512, Note_on_c, 1, 46, 92
4, 64512, Note_on_c, 1, 58, 88
4, 64523, Control_c, 1, 64, 127
4, 64630, Note_off_c, 1, 46, 0
4, 64742, Note_off_c, 1, 58, 0
4, 65024, Note_on_c, 1, 61, 80
4, 65024, Note_on_c, 1, 66, 81
4, 65024, Note_on_c, 1, 73, 84
4, 65101, Note_off_c, 1, 61, 0
4, 65178, Note_off_c, 1, 66, 0
4, 65254, Note_off_c, 1, 73, 0
4, 65451, Control_c, 1, 64, 0
4, 65536, Control_c, 1, 64, 127
4, 65536, Note_on_c, 1, 48, 88
4, 65536, Note_on_c, 1, 60, 93
4, 65654, Note_off_c, 1, 48, 0
4, 65766, Note_off_c, 1, 60, 0
4, 66048, Note_on_c, 1, 66, 84
4, 66048, Note_on_c, 1, 75, 84
4, 66166, Note_off_c, 1, 66, 0
4, 66208, Control_c, 1, 64, 0
4, 66278, Note_off_c, 1, 75, 0
4, 67072, Note_on_c, 1, 36, 88
4, 67072, Note_on_c, 1, 48, 96
4, 67584, Note_off_c, 1, 36, 0
4, 67584, Note_off_c, 1, 48, 0
4, 67584, Note_on_c, 1, 37, 93
4, 67584, Note_on_c, 1, 49, 97
4, 67605, Control_c, 1, 64, 127
4, 67702, Note_off_c, 1, 37, 0
4, 67814, Note_off_c, 1, 49, 0
4, 68096, Note_on_c, 1, 58, 89
4, 68096, Note_on_c, 1, 66, 89
4, 68214, Note_off_c, 1, 58, 0
4, 68326, Note_off_c, 1, 66, 0
4, 68405, Control_c, 1, 64, 0
4, 68608, Note_on_c, 1, 38, 97
4, 68608, Note_on_c, 1, 50, 94
4, 68619, Control_c, 1, 64, 127
4, 68726, Note_off_c, 1, 38, 0
4, 68838, Note_off_c, 1, 50, 0
4, 69120, Note_on_c, 1, 58, 89
4, 69120, Note_on_c, 1, 65, 90
4, 69238, Note_off_c, 1, 58, 0
4, 69350, Note_off_c, 1, 65, 0
4, 69547, Control_c, 1, 64, 0
4, 69632, Note_on_c, 1, 39, 95
4, 69632, Note_on_c, 1, 51, 99
4, 69653, Control_c, 1, 64, 127
4, 69750, Note_off_c, 1, 39, 0
4, 69862, Note_off_c, 1, 51, 0
4, 70144, Note_on_c, 1, 58, 90
4, 70144, Note_on_c, 1, 63, 89
4, 70144, Note_on_c, 1, 66, 91
4, 70221, Note_off_c, 1, 58, 0
4, 70298, Note_off_c, 1, 63, 0
4, 70374, Note_off_c, 1, 66, 0
4, 70453, Control_c, 1, 64, 0
4, 70656, Note_on_c, 1, 36, 101
4, 70656, Note_on_c, 1, 48, 96
4, 70667, Control_c, 1, 64, 127
4, 70774, Note_off_c, 1, 36, 0
4, 70886, Note_off_c, 1, 48, 0
4, 71168, Note_on_c, 1, 57, 91
4, 71168, Note_on_c, 1, 63, 89
4, 71168, Note_on_c, 1, 66, 91
4, 71245, Note_off_c, 1, 57, 0
4, 71322, Note_off_c, 1, 63, 0
4, 71398, Note_off_c, 1, 66, 0
4, 71595, Control_c, 1, 64, 0
4, 71680, Note_on_c, 1, 37, 93
4, 71680, Note_on_c, 1, 49, 99
4, 71691, Control_c, 1, 64, 127
4, 71798, Note_off_c, 1, 37, 0
4, 71910, Note_off_c, 1, 49, 0
4, 72192, Note_on_c, 1, 56, 89
4, 72192, Note_on_c, 1, 61, 89
4, 72192, Note_on_c, 1, 66, 90
4, 72269, Note_off_c, 1, 56, 0
4, 72346, Note_off_c, 1, 61, 0
4, 72422, Note_off_c, 1, 66, 0
4, 73653, Control_c, 1, 64, 0
4, 73728, Note_on_c, 1, 25, 94
4, 73728, Note_on_c, 1, 37, 97
4, 73739, Control_c, 1, 64, 127
4, 73846, Note_off_c, 1, 25, 0
4, 73958, Note_off_c, 1, 37, 0
4, 74240, Note_on_c, 1, 56, 88
4, 74240, Note_on_c, 1, 59, 89
4, 74240, Note_on_c, 1, 65, 89
4, 74283, Control_c, 1, 64, 0
4, 74317, Note_off_c, 1, 56, 0
4, 74394, Note_off_c, 1, 59, 0
4, 74470, Note_off_c, 1, 65, 0
4, 75776, Note_on_c, 1, 30, 97
4, 75797, Control_c, 1, 64, 127
4, 76006, Note_off_c, 1, 30, 0
4, 76288, Note_on_c, 1, 49, 44
4, 76597, Control_c, 1, 64, 0
4, 76800, Note_on_c, 1, 53, 41
4, 76800, Note_on_c, 1, 59, 44
4, 76811, Control_c, 1, 64, 127
4, 76918, Note_off_c, 1, 53, 0
4, 77030, Note_off_c, 1, 59, 0
4, 77312, Note_on_c, 1, 42, 41
4, 77542, Note_off_c, 1, 42, 0
4, 77739, Control_c, 1, 64, 0
4, 77824, Note_on_c, 1, 54, 40
4, 77824, Note_on_c, 1, 58, 42
4, 77845, Control_c, 1, 64, 127
4, 77901, Note_off_c, 1, 49, 0
4, 77978, Note_off_c, 1, 54, 0
4, 78054, Note_off_c, 1, 58, 0
4, 78336, Note_on_c, 1, 42, 42
4, 78566, Note_off_c, 1, 42, 0
4, 78645, Control_c, 1, 64, 0
4, 78848, Note_on_c, 1, 49, 40
4, 78848, Note_on_c, 1, 53, 40
4, 78848, Note_on_c, 1, 59, 42
4, 78859, Control_c, 1, 64, 127
4, 78925, Note_off_c, 1, 49, 0
4, 79002, Note_off_c, 1, 53, 0
4, 79078, Note_off_c, 1, 59, 0
4, 79360, Note_on_c, 1, 42, 42
4, 79590, Note_off_c, 1, 42, 0
4, 79787, Control_c, 1, 64, 0
4, 79872, Note_on_c, 1, 49, 42
4, 79872, Note_on_c, 1, 54, 40
4, 79872, Note_on_c, 1, 58, 44
4, 79893, Control_c, 1, 64, 127
4, 79949, Note_off_c, 1, 49, 0
4, 80026, Note_off_c, 1, 54, 0
4, 80102, Note_off_c, 1, 58, 0
4, 80384, Note_on_c, 1, 42, 44
4, 80614, Note_off_c, 1, 42, 0
4, 80693, Control_c, 1, 64, 0
4, 80896, Note_on_c, 1, 49, 40
4, 80896, Note_on_c, 1, 53, 40
4, 80896, Note_on_c, 1, 59, 42
4, 80907, Control_c, 1, 64, 127
4, 80973, Note_off_c, 1, 49, 0
4, 81050, Note_off_c, 1, 53, 0
4, 81126, Note_off_c, 1, 59, 0
4, 81408, Note_on_c, 1, 42, 42
4, 81638, Note_off_c, 1, 42, 0
4, 81835, Control_c, 1, 64, 0
4, 81920, Note_on_c, 1, 49, 40
4, 81920, Note_on_c, 1, 54, 40
4, 81920, Note_on_c, 1, 58, 42
4, 81941, Control_c, 1, 64, 127
4, 81997, Note_off_c, 1, 49, 0
4, 82074, Note_off_c, 1, 54, 0
4, 82150, Note_off_c, 1, 58, 0
4, 82432, Note_on_c, 1, 42, 42
4, 82662, Note_off_c, 1, 42, 0
4, 82741, Control_c, 1, 64, 0
4, 82944, Note_on_c, 1, 49, 40
4, 82944, Note_on_c, 1, 53, 40
4, 82944, Note_on_c, 1, 59, 42
4, 82955, Control_c, 1, 64, 127
4, 83021, Note_off_c, 1, 49, 0
4, 83098, Note_off_c, 1, 53, 0
4, 83174, Note_off_c, 1, 59, 0
4, 83456, Note_on_c, 1, 42, 42
4, 83686, Note_off_c, 1, 42, 0
4, 83883, Control_c, 1, 64, 0
4, 83968, Note_on_c, 1, 49, 39
4, 83968, Note_on_c, 1, 54, 40
4, 83968, Note_on_c, 1, 58, 42
4, 83989, Control_c, 1, 64, 127
4, 84045, Note_off_c, 1, 49, 0
4, 84122, Note_off_c, 1, 54, 0
4, 84198, Note_off_c, 1, 58, 0
4, 84480, Note_on_c, 1, 42, 42
4, 84710, Note_off_c, 1, 42, 0
4, 84789, Control_c, 1, 64, 0
4, 84992, Note_on_c, 1, 49, 39
4, 84992, Note_on_c, 1, 53, 40
4, 84992, Note_on_c, 1, 59, 42
4, 85003, Control_c, 1, 64, 127
4, 85069, Note_off_c, 1, 49, 0
4, 85146, Note_off_c, 1, 53, 0
4, 85222, Note_off_c, 1, 59, 0
4, 85504, Note_on_c, 1, 42, 42
4, 85734, Note_off_c, 1, 42, 0
4, 85931, Control_c, 1, 64, 0
4, 86016, Note_on_c, 1, 49, 40
4, 86016, Note_on_c, 1, 54, 42
4, 86016, Note_on_c, 1, 58, 44
4, 86037, Control_c, 1, 64, 127
4, 86093, Note_off_c, 1, 49, 0
4, 86170, Note_off_c, 1, 54, 0
4, 86246, Note_off_c, 1, 58, 0
4, 86528, Note_on_c, 1, 42, 44
4, 86758, Note_off_c, 1, 42, 0
4, 86837, Control_c, 1, 64, 0
4, 87040, Note_on_c, 1, 49, 40
4, 87040, Note_on_c, 1, 53, 41
4, 87040, Note_on_c, 1, 59, 42
4, 87051, Control_c, 1, 64, 127
4, 87117, Note_off_c, 1, 49, 0
4, 87194, Note_off_c, 1, 53, 0
4, 87270, Note_off_c, 1, 59, 0
4, 87552, Note_on_c, 1, 42, 42
4, 87782, Note_off_c, 1, 42, 0
4, 87979, Control_c, 1, 64, 0
4, 88064, Note_on_c, 1, 49, 39
4, 88064, Note_on_c, 1, 54, 40
4, 88064, Note_on_c, 1, 58, 42
4, 88085, Control_c, 1, 64, 127
4, 88141, Note_off_c, 1, 49, 0
4, 88218, Note_off_c, 1, 54, 0
4, 88294, Note_off_c, 1, 58, 0
4, 88576, Note_on_c, 1, 42, 42
4, 88806, Note_off_c, 1, 42, 0
4, 88885, Control_c, 1, 64, 0
4, 89088, Note_on_c, 1, 49, 39
4, 89088, Note_on_c, 1, 53, 40
4, 89088, Note_on_c, 1, 59, 42
4, 89099, Control_c, 1, 64, 127
4, 89165, Note_off_c, 1, 49, 0
4, 89242, Note_off_c, 1, 53, 0
4, 89318, Note_off_c, 1, 59, 0
4, 89600, Note_on_c, 1, 42, 42
4, 89830, Note_off_c, 1, 42, 0
4, 90027, Control_c, 1, 64, 0
4, 90112, Note_on_c, 1, 49, 42
4, 90112, Note_on_c, 1, 54, 43
4, 90112, Note_on_c, 1, 58, 42
4, 90133, Control_c, 1, 64, 127
4, 90189, Note_off_c, 1, 49, 0
4, 90266, Note_off_c, 1, 54, 0
4, 90342, Note_off_c, 1, 58, 0
4, 90624, Note_on_c, 1, 42, 42
4, 90854, Note_off_c, 1, 42, 0
4, 90933, Control_c, 1, 64, 0
4, 91136, Note_on_c, 1, 49, 42
4, 91136, Note_on_c, 1, 53, 40
4, 91136, Note_on_c, 1, 59, 42
4, 91147, Control_c, 1, 64, 127
4, 91213, Note_off_c, 1, 49, 0
4, 91290, Note_off_c, 1, 53, 0
4, 91366, Note_off_c, 1, 59, 0
4, 91648, Note_on_c, 1, 42, 42
4, 91878, Note_off_c, 1, 42, 0
4, 92075, Control_c, 1, 64, 0
4, 92160, Note_on_c, 1, 49, 41
4, 92160, Note_on_c, 1, 58, 44
4, 92278, Note_off_c, 1, 49, 0
4, 92390, Note_off_c, 1, 58, 0
4, 92672, Note_on_c, 1, 30, 46
4, 92683, Control_c, 1, 64, 127
4, 92902, Note_off_c, 1, 30, 0
4, 93184, Note_on_c, 1, 49, 45
4, 93414, Note_off_c, 1, 49, 0
4, 93696, Note_on_c, 1, 54, 42
4, 93696, Note_on_c, 1, 61, 45
4, 93814, Note_off_c, 1, 54, 0
4, 93926, Note_off_c, 1, 61, 0
4, 94208, Note_on_c, 1, 58, 40
4, 94208, Note_on_c, 1, 66, 48
4, 94326, Note_off_c, 1, 58, 0
4, 94438, Note_off_c, 1, 66, 0
4, 94720, Note_on_c, 1, 61, 40
4, 94720, Note_on_c, 1, 70, 48
4, 94838, Note_off_c, 1, 61, 0
4, 94950, Note_off_c, 1, 70, 0
4, 95232, Note_on_c, 1, 66, 40
4, 95232, Note_on_c, 1, 73, 48
4, 95350, Note_off_c, 1, 66, 0
4, 95462, Note_off_c, 1, 73, 0
4, 95744, Note_on_c, 1, 70, 40
4, 95744, Note_on_c, 1, 78, 48
4, 95862, Note_off_c, 1, 70, 0
4, 95974, Note_off_c, 1, 78, 0
4, 96256, Note_on_c, 1, 66, 40
4, 96256, Note_on_c, 1, 73, 48
4, 96374, Note_off_c, 1, 66, 0
4, 96486, Note_off_c, 1, 73, 0
4, 96768, Note_on_c, 1, 61, 40
4, 96768, Note_on_c, 1, 70, 48
4, 96886, Note_off_c, 1, 61, 0
4, 96998, Note_off_c, 1, 70, 0
4, 97280, Note_on_c, 1, 54, 43
4, 97280, Note_on_c, 1, 66, 50
4, 97398, Note_off_c, 1, 54, 0
4, 97510, Note_off_c, 1, 66, 0
4, 97792, Note_on_c, 1, 49, 43
4, 97792, Note_on_c, 1, 61, 50
4, 97910, Note_off_c, 1, 49, 0
4, 98022, Note_off_c, 1, 61, 0
4, 98304, Note_on_c, 1, 42, 44
4, 98304, Note_on_c, 1, 54, 48
4, 98422, Note_off_c, 1, 42, 0
4, 98534, Note_off_c, 1, 54, 0
4, 98816, Note_on_c, 1, 37, 43
4, 98816, Note_on_c, 1, 49, 46
4, 98934, Note_off_c, 1, 37, 0
4, 99046, Note_off_c, 1, 49, 0
4, 99328, Note_on_c, 1, 30, 42
4, 99328, Note_on_c, 1, 42, 46
4, 99446, Note_off_c, 1, 30, 0
4, 99558, Note_off_c, 1, 42, 0
4, 99840, Note_on_c, 1, 25, 40
4, 99840, Note_on_c, 1, 37, 45
4, 99958, Note_off_c, 1, 25, 0
4, 100070, Note_off_c, 1, 37, 0
4, 100352, Note_on_c, 1, 30, 37
4, 100352, Note_on_c, 1, 42, 42
4, 100470, Note_off_c, 1, 30, 0
4, 100582, Note_off_c, 1, 42, 0
4, 100864, Note_on_c, 1, 25, 37
4, 100864, Note_on_c, 1, 37, 42
4, 100982, Note_off_c, 1, 25, 0
4, 101094, Note_off_c, 1, 37, 0
4, 101376, Note_on_c, 1, 30, 36
4, 101376, Note_on_c, 1, 42, 40
4, 101494, Note_off_c, 1, 30, 0
4, 101606, Note_off_c, 1, 42, 0
4, 101888, Note_on_c, 1, 25, 35
4, 101888, Note_on_c, 1, 37, 40
4, 102006, Note_off_c, 1, 25, 0
4, 102118, Note_off_c, 1, 37, 0
4, 102400, Note_on_c, 1, 30, 33
4, 102400, Note_on_c, 1, 42, 40
4, 102518, Note_off_c, 1, 30, 0
4, 102630, Note_off_c, 1, 42, 0
4, 102912, Note_on_c, 1, 25, 32
4, 102912, Note_on_c, 1, 37, 38
4, 102976, Control_c, 1, 64, 0
4, 103030, Note_off_c, 1, 25, 0
4, 103142, Note_off_c, 1, 37, 0
4, 103424, Note_on_c, 1, 30, 26
4, 103424, Note_on_c, 1, 42, 34
4, 103603, Note_off_c, 1, 30, 0
4, 103603, Note_off_c, 1, 42, 0
4, 103936, Note_on_c, 1, 37, 29
4, 103936, Note_on_c, 1, 49, 37
4, 104054, Note_off_c, 1, 37, 0
4, 104166, Note_off_c, 1, 49, 0
4, 104448, Note_on_c, 1, 42, 29
4, 104448, Note_on_c, 1, 54, 37
4, 104566, Note_off_c, 1, 42, 0
4, 104678, Note_off_c, 1, 54, 0
4, 104858, End_track
0, 0, End_of_file